,note_name,start_time,duration,velocity,tempo
0,F#2,4.0,0.031,70,91.0
1,F#2,5.0,0.031,55,91.0
2,F#2,6.0,0.031,55,91.0
3,F#2,7.0,0.031,55,91.0
4,E2,8.0,0.031,74,91.0
5,F#2,8.0,0.031,74,91.0
6,B1,8.0,0.031,74,91.0
7,B1,8.25,0.031,105,91.0
8,D2,8.5,0.031,79,91.0
9,F#2,8.5,0.031,79,91.0
10,D2,9.0,0.031,94,91.0
11,F#2,9.0,0.031,94,91.0
12,E2,9.5,0.031,43,91.0
13,F#2,9.5,0.031,43,91.0
14,B1,9.75,0.031,120,91.0
15,E2,10.0,0.031,46,91.0
16,F#2,10.0,0.031,46,91.0
17,B1,10.25,0.031,112,91.0
18,D2,10.5,0.031,90,91.0
19,F#2,10.5,0.031,90,91.0
20,B1,10.75,0.031,112,91.0
21,E2,11.0,0.031,48,91.0
22,F#2,11.0,0.031,48,91.0
23,B1,11.25,0.031,112,91.0
24,D2,11.5,0.031,76,91.0
25,F#2,11.5,0.031,76,91.0
26,B1,11.75,0.031,99,91.0
27,D2,11.75,0.031,99,91.0
28,C2,12.0,479/1000,83,91.0
29,G3,12.0,479/1000,83,91.0
30,B3,12.0,479/1000,83,91.0
31,E4,12.0,479/1000,83,91.0
32,B1,12.0,0.031,92,91.0
33,F#2,12.0,0.031,92,91.0
34,G3,12.25,0.062,126,91.0
35,G3,12.375,73/1000,91,91.0
36,F#2,12.5,0.031,59,91.0
37,G3,12.5,27/200,119,91.0
38,G3,12.75,73/1000,104,91.0
39,G1,12.75,427/1000,97,91.0
40,D4,12.75,427/1000,97,91.0
41,G3,12.76,427/1000,69,91.0
42,B3,12.76,427/1000,69,91.0
43,D4,12.76,427/1000,69,91.0
44,E-2,12.958,0.031,93,91.0
45,F#2,12.958,0.031,93,91.0
46,D2,12.958,0.031,93,91.0
47,G3,13.0,0.031,122,91.0
48,D2,13.0,0.031,122,91.0
49,G3,13.25,0.062,115,91.0
50,G3,13.375,73/1000,92,91.0
51,A1,13.5,69/125,127,91.0
52,F#2,13.5,0.094,88,91.0
53,G3,13.5,0.094,88,91.0
54,A3,13.51,677/1000,71,91.0
55,C4,13.51,677/1000,71,91.0
56,E4,13.51,677/1000,71,91.0
57,G3,13.75,73/1000,112,91.0
58,B1,14.0,0.094,104,91.0
59,F#2,14.0,0.094,104,91.0
60,G3,14.0,0.094,104,91.0
61,G3,14.25,13/250,113,91.0
62,G3,14.375,0.062,88,91.0
63,A1,14.5,177/1000,127,91.0
64,F#2,14.5,73/1000,89,91.0
65,G3,14.5,73/1000,89,91.0
66,A3,14.51,49/100,71,91.0
67,C4,14.51,49/100,71,91.0
68,E4,14.51,49/100,71,91.0
69,G3,14.75,13/250,104,91.0
70,A3,14.75,0.125,49,91.0
71,C4,14.75,0.125,49,91.0
72,E4,14.75,0.125,49,91.0
73,E-2,14.958,0.031,93,91.0
74,F#2,14.958,0.031,93,91.0
75,D2,14.958,0.031,93,91.0
76,G3,15.0,323/500,109,91.0
77,A1,15.0,0.125,95,91.0
78,A3,15.0,0.125,95,91.0
79,C4,15.0,0.125,95,91.0
80,E4,15.0,0.125,95,91.0
81,B1,15.25,0.406,87,91.0
82,B3,15.25,0.406,87,91.0
83,D4,15.25,0.406,87,91.0
84,F#4,15.25,0.406,87,91.0
85,F#2,15.5,0.031,97,91.0
86,D2,15.75,0.031,27,91.0
87,D2,15.812,0.031,15,91.0
88,D2,15.885,0.031,14,91.0
89,C2,16.0,479/1000,83,91.0
90,G3,16.0,479/1000,83,91.0
91,B3,16.0,479/1000,83,91.0
92,E4,16.0,479/1000,83,91.0
93,B1,16.0,0.031,92,91.0
94,F#2,16.0,0.031,92,91.0
95,G3,16.25,0.062,113,91.0
96,G3,16.375,0.062,86,91.0
97,F#2,16.5,0.094,86,91.0
98,G3,16.5,0.094,86,91.0
99,G3,16.75,73/1000,105,91.0
100,G1,16.75,427/1000,97,91.0
101,D4,16.75,427/1000,97,91.0
102,G3,16.76,427/1000,69,91.0
103,B3,16.76,427/1000,69,91.0
104,D4,16.76,427/1000,69,91.0
105,E-2,16.958,0.031,93,91.0
106,F#2,16.958,0.031,93,91.0
107,D2,16.958,0.031,93,91.0
108,G3,17.0,0.031,122,91.0
109,D2,17.0,0.031,122,91.0
110,G3,17.25,0.062,113,91.0
111,G3,17.375,13/250,83,91.0
112,A1,17.5,69/125,127,91.0
113,F#2,17.5,83/1000,84,91.0
114,G3,17.5,83/1000,84,91.0
115,A3,17.51,677/1000,71,91.0
116,C4,17.51,677/1000,71,91.0
117,E4,17.51,677/1000,71,91.0
118,G3,17.75,73/1000,110,91.0
119,B1,18.0,73/1000,104,91.0
120,F#2,18.0,73/1000,104,91.0
121,G3,18.0,73/1000,104,91.0
122,G3,18.25,0.062,117,91.0
123,G3,18.375,73/1000,93,91.0
124,A1,18.5,177/1000,127,91.0
125,F#2,18.5,73/1000,91,91.0
126,G3,18.5,73/1000,91,91.0
127,A3,18.51,49/100,71,91.0
128,C4,18.51,49/100,71,91.0
129,E4,18.51,49/100,71,91.0
130,A3,18.75,0.062,63,91.0
131,C4,18.75,0.062,63,91.0
132,E4,18.75,0.062,63,91.0
133,G3,18.75,0.062,63,91.0
134,E-2,18.958,0.031,93,91.0
135,F#2,18.958,0.031,93,91.0
136,D2,18.958,0.031,93,91.0
137,A1,19.0,0.125,95,91.0
138,A3,19.0,0.125,95,91.0
139,C4,19.0,0.125,95,91.0
140,E4,19.0,0.125,95,91.0
141,B3,19.0,0.031,112,91.0
142,D2,19.0,0.031,112,91.0
143,G3,19.25,323/500,102,91.0
144,B1,19.25,0.406,87,91.0
145,B3,19.25,0.406,87,91.0
146,D4,19.25,0.406,87,91.0
147,F#4,19.25,0.406,87,91.0
148,F#2,19.5,0.031,97,91.0
149,C2,20.0,479/1000,83,91.0
150,G3,20.0,479/1000,83,91.0
151,B3,20.0,479/1000,83,91.0
152,E4,20.0,479/1000,83,91.0
153,B1,20.0,0.031,92,91.0
154,F#2,20.0,0.031,92,91.0
155,G3,20.25,0.062,119,91.0
156,G3,20.375,0.062,83,91.0
157,F#2,20.5,83/1000,88,91.0
158,G3,20.5,83/1000,88,91.0
159,G3,20.75,0.062,101,91.0
160,G1,20.75,427/1000,97,91.0
161,D4,20.75,427/1000,97,91.0
162,G3,20.76,427/1000,69,91.0
163,B3,20.76,427/1000,69,91.0
164,D4,20.76,427/1000,69,91.0
165,E-2,20.958,0.031,93,91.0
166,F#2,20.958,0.031,93,91.0
167,D2,20.958,0.031,93,91.0
168,G3,21.0,0.031,122,91.0
169,D2,21.0,0.031,122,91.0
170,G3,21.25,0.062,104,91.0
171,G3,21.375,0.062,86,91.0
172,A1,21.5,69/125,127,91.0
173,F#2,21.5,73/1000,89,91.0
174,G3,21.5,73/1000,89,91.0
175,A3,21.51,677/1000,71,91.0
176,C4,21.51,677/1000,71,91.0
177,E4,21.51,677/1000,71,91.0
178,G3,21.75,0.062,117,91.0
179,B1,22.0,73/1000,103,91.0
180,F#2,22.0,73/1000,103,91.0
181,G3,22.0,73/1000,103,91.0
182,G3,22.25,73/1000,107,91.0
183,G3,22.375,13/250,78,91.0
184,A1,22.5,177/1000,127,91.0
185,F#2,22.5,0.062,84,91.0
186,G3,22.5,0.062,84,91.0
187,A3,22.51,49/100,71,91.0
188,C4,22.51,49/100,71,91.0
189,E4,22.51,49/100,71,91.0
190,G3,22.75,13/250,105,91.0
191,A3,22.75,0.125,49,91.0
192,C4,22.75,0.125,49,91.0
193,E4,22.75,0.125,49,91.0
194,E-2,22.958,0.031,93,91.0
195,F#2,22.958,0.031,93,91.0
196,D2,22.958,0.031,93,91.0
197,G3,23.0,0.531,107,91.0
198,A1,23.0,0.125,95,91.0
199,A3,23.0,0.125,95,91.0
200,C4,23.0,0.125,95,91.0
201,E4,23.0,0.125,95,91.0
202,B1,23.25,0.406,87,91.0
203,B3,23.25,0.406,87,91.0
204,D4,23.25,0.406,87,91.0
205,F#4,23.25,0.406,87,91.0
206,F#2,23.5,0.031,97,91.0
207,D2,23.75,0.031,27,91.0
208,D2,23.812,0.031,15,91.0
209,D2,23.885,0.031,14,91.0
210,C2,24.0,479/1000,83,91.0
211,G3,24.0,479/1000,83,91.0
212,B3,24.0,479/1000,83,91.0
213,E4,24.0,479/1000,83,91.0
214,B1,24.0,0.031,92,91.0
215,F#2,24.0,0.031,92,91.0
216,G3,24.25,13/250,124,91.0
217,G3,24.375,0.062,85,91.0
218,F#2,24.5,83/1000,84,91.0
219,G3,24.5,83/1000,84,91.0
220,G3,24.75,0.062,99,91.0
221,G1,24.75,427/1000,97,91.0
222,D4,24.75,427/1000,97,91.0
223,G3,24.76,427/1000,69,91.0
224,B3,24.76,427/1000,69,91.0
225,D4,24.76,427/1000,69,91.0
226,E-2,24.958,0.031,93,91.0
227,F#2,24.958,0.031,93,91.0
228,D2,24.958,0.031,93,91.0
229,G3,25.0,0.031,122,91.0
230,D2,25.0,0.031,122,91.0
231,G3,25.25,0.062,99,91.0
232,G3,25.375,13/250,82,91.0
233,A1,25.5,69/125,127,91.0
234,F#2,25.5,73/1000,85,91.0
235,G3,25.5,73/1000,85,91.0
236,A3,25.51,677/1000,71,91.0
237,C4,25.51,677/1000,71,91.0
238,E4,25.51,677/1000,71,91.0
239,G3,25.75,13/250,98,91.0
240,B1,26.0,83/1000,104,91.0
241,F#2,26.0,83/1000,104,91.0
242,G3,26.0,83/1000,104,91.0
243,G3,26.25,0.062,84,91.0
244,G3,26.375,13/250,78,91.0
245,A1,26.5,177/1000,127,91.0
246,F#2,26.5,73/1000,86,91.0
247,G3,26.5,73/1000,86,91.0
248,A3,26.51,49/100,71,91.0
249,C4,26.51,49/100,71,91.0
250,E4,26.51,49/100,71,91.0
251,G3,26.75,21/500,99,91.0
252,A3,26.75,0.125,49,91.0
253,C4,26.75,0.125,49,91.0
254,E4,26.75,0.125,49,91.0
255,E-2,26.958,0.031,93,91.0
256,F#2,26.958,0.031,93,91.0
257,D2,26.958,0.031,93,91.0
258,G3,27.0,323/500,108,91.0
259,A1,27.0,0.125,95,91.0
260,A3,27.0,0.125,95,91.0
261,C4,27.0,0.125,95,91.0
262,E4,27.0,0.125,95,91.0
263,B1,27.25,0.406,87,91.0
264,B3,27.25,0.406,87,91.0
265,D4,27.25,0.406,87,91.0
266,F#4,27.25,0.406,87,91.0
267,D2,27.5,0.031,82,91.0
268,F#2,27.5,0.031,82,91.0
269,C2,28.0,479/1000,83,91.0
270,G3,28.0,479/1000,83,91.0
271,B3,28.0,479/1000,83,91.0
272,E4,28.0,479/1000,83,91.0
273,B1,28.0,0.031,92,91.0
274,F#2,28.0,0.031,92,91.0
275,G3,28.25,0.062,126,91.0
276,G3,28.375,73/1000,91,91.0
277,F#2,28.5,0.031,59,91.0
278,G3,28.5,27/200,119,91.0
279,G3,28.75,73/1000,104,91.0
280,G1,28.75,427/1000,97,91.0
281,D4,28.75,427/1000,97,91.0
282,G3,28.76,427/1000,69,91.0
283,B3,28.76,427/1000,69,91.0
284,D4,28.76,427/1000,69,91.0
285,E-2,28.958,0.031,93,91.0
286,F#2,28.958,0.031,93,91.0
287,D2,28.958,0.031,93,91.0
288,G3,29.0,0.031,122,91.0
289,D2,29.0,0.031,122,91.0
290,G3,29.25,0.062,115,91.0
291,G3,29.375,73/1000,92,91.0
292,A1,29.5,69/125,127,91.0
293,F#2,29.5,0.094,88,91.0
294,G3,29.5,0.094,88,91.0
295,A3,29.51,677/1000,71,91.0
296,C4,29.51,677/1000,71,91.0
297,E4,29.51,677/1000,71,91.0
298,G3,29.75,73/1000,112,91.0
299,B1,30.0,0.094,104,91.0
300,F#2,30.0,0.094,104,91.0
301,G3,30.0,0.094,104,91.0
302,G3,30.25,13/250,113,91.0
303,G3,30.375,0.062,88,91.0
304,A1,30.5,177/1000,127,91.0
305,F#2,30.5,73/1000,89,91.0
306,G3,30.5,73/1000,89,91.0
307,A3,30.51,49/100,71,91.0
308,C4,30.51,49/100,71,91.0
309,E4,30.51,49/100,71,91.0
310,G3,30.75,13/250,104,91.0
311,A3,30.75,0.125,49,91.0
312,C4,30.75,0.125,49,91.0
313,E4,30.75,0.125,49,91.0
314,E-2,30.958,0.031,93,91.0
315,F#2,30.958,0.031,93,91.0
316,D2,30.958,0.031,93,91.0
317,G3,31.0,323/500,106,91.0
318,A1,31.0,0.125,95,91.0
319,A3,31.0,0.125,95,91.0
320,C4,31.0,0.125,95,91.0
321,E4,31.0,0.125,95,91.0
322,B1,31.25,0.406,87,91.0
323,B3,31.25,0.406,87,91.0
324,D4,31.25,0.406,87,91.0
325,F#4,31.25,0.406,87,91.0
326,F#2,31.5,0.031,97,91.0
327,D2,31.75,0.031,27,91.0
328,D2,31.812,0.031,15,91.0
329,D2,31.885,0.031,14,91.0
330,C2,32.0,479/1000,83,91.0
331,G3,32.0,479/1000,83,91.0
332,B3,32.0,479/1000,83,91.0
333,E4,32.0,479/1000,83,91.0
334,B1,32.0,0.031,92,91.0
335,F#2,32.0,0.031,92,91.0
336,G3,32.25,0.062,126,91.0
337,G3,32.375,73/1000,91,91.0
338,F#2,32.5,0.031,59,91.0
339,G3,32.5,27/200,119,91.0
340,G3,32.75,73/1000,104,91.0
341,G1,32.75,427/1000,97,91.0
342,D4,32.75,427/1000,97,91.0
343,G3,32.76,427/1000,69,91.0
344,B3,32.76,427/1000,69,91.0
345,D4,32.76,427/1000,69,91.0
346,E-2,32.958,0.031,93,91.0
347,F#2,32.958,0.031,93,91.0
348,D2,32.958,0.031,93,91.0
349,G3,33.0,0.031,122,91.0
350,D2,33.0,0.031,122,91.0
351,G3,33.25,0.062,115,91.0
352,G3,33.375,73/1000,92,91.0
353,A1,33.5,69/125,127,91.0
354,F#2,33.5,0.094,88,91.0
355,G3,33.5,0.094,88,91.0
356,A3,33.51,677/1000,71,91.0
357,C4,33.51,677/1000,71,91.0
358,E4,33.51,677/1000,71,91.0
359,G3,33.75,73/1000,112,91.0
360,B1,34.0,0.094,104,91.0
361,F#2,34.0,0.094,104,91.0
362,G3,34.0,0.094,104,91.0
363,G3,34.25,13/250,113,91.0
364,G3,34.375,0.062,88,91.0
365,A1,34.5,177/1000,127,91.0
366,F#2,34.5,73/1000,89,91.0
367,G3,34.5,73/1000,89,91.0
368,A3,34.51,49/100,71,91.0
369,C4,34.51,49/100,71,91.0
370,E4,34.51,49/100,71,91.0
371,G3,34.75,13/250,104,91.0
372,A3,34.75,0.125,49,91.0
373,C4,34.75,0.125,49,91.0
374,E4,34.75,0.125,49,91.0
375,E-2,34.958,0.031,93,91.0
376,F#2,34.958,0.031,93,91.0
377,D2,34.958,0.031,93,91.0
378,G3,35.0,323/500,109,91.0
379,A1,35.0,0.125,95,91.0
380,A3,35.0,0.125,95,91.0
381,C4,35.0,0.125,95,91.0
382,E4,35.0,0.125,95,91.0
383,B1,35.25,0.406,87,91.0
384,B3,35.25,0.406,87,91.0
385,D4,35.25,0.406,87,91.0
386,F#4,35.25,0.406,87,91.0
387,F#2,35.5,0.031,97,91.0
388,C2,36.0,479/1000,83,91.0
389,G3,36.0,479/1000,83,91.0
390,B3,36.0,479/1000,83,91.0
391,E4,36.0,479/1000,83,91.0
392,B1,36.0,0.031,92,91.0
393,F#2,36.0,0.031,92,91.0
394,G3,36.25,0.062,126,91.0
395,G3,36.375,73/1000,91,91.0
396,F#2,36.5,0.031,59,91.0
397,G3,36.5,27/200,119,91.0
398,G3,36.75,73/1000,104,91.0
399,G1,36.75,427/1000,97,91.0
400,D4,36.75,427/1000,97,91.0
401,G3,36.76,427/1000,69,91.0
402,B3,36.76,427/1000,69,91.0
403,D4,36.76,427/1000,69,91.0
404,E-2,36.958,0.031,93,91.0
405,F#2,36.958,0.031,93,91.0
406,D2,36.958,0.031,93,91.0
407,G3,37.0,0.031,122,91.0
408,D2,37.0,0.031,122,91.0
409,G3,37.25,0.062,115,91.0
410,G3,37.375,73/1000,92,91.0
411,A1,37.5,69/125,127,91.0
412,F#2,37.5,0.094,88,91.0
413,G3,37.5,0.094,88,91.0
414,A3,37.51,677/1000,71,91.0
415,C4,37.51,677/1000,71,91.0
416,E4,37.51,677/1000,71,91.0
417,G3,37.75,73/1000,112,91.0
418,B1,38.0,0.094,104,91.0
419,F#2,38.0,0.094,104,91.0
420,G3,38.0,0.094,104,91.0
421,G3,38.25,13/250,113,91.0
422,G3,38.375,0.062,88,91.0
423,A1,38.5,177/1000,127,91.0
424,F#2,38.5,73/1000,89,91.0
425,G3,38.5,73/1000,89,91.0
426,A3,38.51,49/100,71,91.0
427,C4,38.51,49/100,71,91.0
428,E4,38.51,49/100,71,91.0
429,G3,38.75,13/250,104,91.0
430,A3,38.75,0.125,49,91.0
431,C4,38.75,0.125,49,91.0
432,E4,38.75,0.125,49,91.0
433,E-2,38.958,0.031,93,91.0
434,F#2,38.958,0.031,93,91.0
435,D2,38.958,0.031,93,91.0
436,G3,39.0,323/500,109,91.0
437,A1,39.0,0.125,95,91.0
438,A3,39.0,0.125,95,91.0
439,C4,39.0,0.125,95,91.0
440,E4,39.0,0.125,95,91.0
441,B1,39.25,0.406,87,91.0
442,B3,39.25,0.406,87,91.0
443,D4,39.25,0.406,87,91.0
444,F#4,39.25,0.406,87,91.0
445,F#2,39.5,0.031,97,91.0
446,D2,39.75,0.031,27,91.0
447,D2,39.812,0.031,15,91.0
448,D2,39.885,0.031,14,91.0
449,C2,40.0,479/1000,83,91.0
450,G3,40.0,479/1000,83,91.0
451,B3,40.0,479/1000,83,91.0
452,E4,40.0,479/1000,83,91.0
453,B1,40.0,0.031,92,91.0
454,F#2,40.0,0.031,92,91.0
455,G3,40.25,0.062,113,91.0
456,G3,40.375,0.062,86,91.0
457,F#2,40.5,0.094,86,91.0
458,G3,40.5,0.094,86,91.0
459,G3,40.75,73/1000,105,91.0
460,G1,40.75,427/1000,97,91.0
461,D4,40.75,427/1000,97,91.0
462,G3,40.76,427/1000,69,91.0
463,B3,40.76,427/1000,69,91.0
464,D4,40.76,427/1000,69,91.0
465,E-2,40.958,0.031,93,91.0
466,F#2,40.958,0.031,93,91.0
467,D2,40.958,0.031,93,91.0
468,G3,41.0,0.031,122,91.0
469,D2,41.0,0.031,122,91.0
470,G3,41.25,0.062,113,91.0
471,G3,41.375,13/250,83,91.0
472,A1,41.5,69/125,127,91.0
473,F#2,41.5,83/1000,84,91.0
474,G3,41.5,83/1000,84,91.0
475,A3,41.51,677/1000,71,91.0
476,C4,41.51,677/1000,71,91.0
477,E4,41.51,677/1000,71,91.0
478,G3,41.75,73/1000,110,91.0
479,B1,42.0,73/1000,104,91.0
480,F#2,42.0,73/1000,104,91.0
481,G3,42.0,73/1000,104,91.0
482,G3,42.25,0.062,117,91.0
483,G3,42.375,73/1000,93,91.0
484,A1,42.5,177/1000,127,91.0
485,F#2,42.5,73/1000,91,91.0
486,G3,42.5,73/1000,91,91.0
487,A3,42.51,49/100,71,91.0
488,C4,42.51,49/100,71,91.0
489,E4,42.51,49/100,71,91.0
490,A3,42.75,0.062,63,91.0
491,C4,42.75,0.062,63,91.0
492,E4,42.75,0.062,63,91.0
493,G3,42.75,0.062,63,91.0
494,E-2,42.958,0.031,93,91.0
495,F#2,42.958,0.031,93,91.0
496,D2,42.958,0.031,93,91.0
497,A1,43.0,0.125,95,91.0
498,A3,43.0,0.125,95,91.0
499,C4,43.0,0.125,95,91.0
500,E4,43.0,0.125,95,91.0
501,B3,43.0,0.031,112,91.0
502,D2,43.0,0.031,112,91.0
503,G3,43.25,323/500,102,91.0
504,B1,43.25,0.406,87,91.0
505,B3,43.25,0.406,87,91.0
506,D4,43.25,0.406,87,91.0
507,F#4,43.25,0.406,87,91.0
508,D2,43.5,0.031,82,91.0
509,F#2,43.5,0.031,82,91.0
510,C2,44.0,479/1000,83,91.0
511,G3,44.0,479/1000,83,91.0
512,B3,44.0,479/1000,83,91.0
513,E4,44.0,479/1000,83,91.0
514,G4,44.0,37/50,97,91.0
515,G5,44.0,37/50,97,91.0
516,B1,44.0,0.031,92,91.0
517,F#2,44.0,0.031,92,91.0
518,F#2,44.5,0.031,59,91.0
519,G1,44.75,427/1000,97,91.0
520,D4,44.75,427/1000,97,91.0
521,E4,44.75,0.219,97,91.0
522,E5,44.75,0.219,97,91.0
523,G3,44.76,427/1000,69,91.0
524,B3,44.76,427/1000,69,91.0
525,D4,44.76,427/1000,69,91.0
526,E-2,44.958,0.031,93,91.0
527,F#2,44.958,0.031,93,91.0
528,D2,44.958,0.031,93,91.0
529,D4,45.0,427/1000,85,91.0
530,D5,45.0,427/1000,85,91.0
531,A1,45.5,69/125,127,91.0
532,F#2,45.5,0.031,57,91.0
533,A3,45.51,677/1000,71,91.0
534,C4,45.51,677/1000,71,91.0
535,E4,45.51,677/1000,71,91.0
536,G3,46.0,667/1000,94,91.0
537,G4,46.0,667/1000,94,91.0
538,B1,46.0,0.031,93,91.0
539,F#2,46.0,0.031,93,91.0
540,A1,46.5,177/1000,127,91.0
541,F#2,46.5,0.031,61,91.0
542,A3,46.51,49/100,71,91.0
543,C4,46.51,49/100,71,91.0
544,E4,46.51,49/100,71,91.0
545,E3,46.75,99/500,94,91.0
546,E4,46.75,99/500,94,91.0
547,A3,46.75,0.125,49,91.0
548,C4,46.75,0.125,49,91.0
549,E4,46.75,0.125,49,91.0
550,E-2,46.958,0.031,93,91.0
551,F#2,46.958,0.031,93,91.0
552,D2,46.958,0.031,93,91.0
553,A1,47.0,0.125,95,91.0
554,A3,47.0,0.125,95,91.0
555,C4,47.0,0.125,95,91.0
556,E4,47.0,0.125,95,91.0
557,D3,47.0,0.375,82,91.0
558,D4,47.0,0.375,82,91.0
559,B1,47.25,0.406,87,91.0
560,B3,47.25,0.406,87,91.0
561,D4,47.25,0.406,87,91.0
562,F#4,47.25,0.406,87,91.0
563,F#2,47.5,0.031,97,91.0
564,D4,47.5,177/1000,83,91.0
565,D5,47.5,177/1000,83,91.0
566,D2,47.75,0.031,27,91.0
567,D2,47.812,0.031,15,91.0
568,D2,47.885,0.031,14,91.0
569,C2,48.0,479/1000,83,91.0
570,G3,48.0,479/1000,83,91.0
571,B3,48.0,479/1000,83,91.0
572,E4,48.0,479/1000,83,91.0
573,G4,48.0,177/250,97,91.0
574,G5,48.0,177/250,97,91.0
575,B1,48.0,0.031,92,91.0
576,F#2,48.0,0.031,92,91.0
577,F#2,48.5,0.031,59,91.0
578,G1,48.75,427/1000,97,91.0
579,D4,48.75,427/1000,97,91.0
580,E4,48.75,99/500,97,91.0
581,E5,48.75,99/500,97,91.0
582,G3,48.76,427/1000,69,91.0
583,B3,48.76,427/1000,69,91.0
584,D4,48.76,427/1000,69,91.0
585,E-2,48.958,0.031,93,91.0
586,F#2,48.958,0.031,93,91.0
587,D2,48.958,0.031,93,91.0
588,D4,49.0,229/500,83,91.0
589,D5,49.0,229/500,83,91.0
590,A1,49.5,69/125,127,91.0
591,F#2,49.5,0.031,57,91.0
592,A3,49.51,677/1000,71,91.0
593,C4,49.51,677/1000,71,91.0
594,E4,49.51,677/1000,71,91.0
595,G3,50.0,323/500,94,91.0
596,G4,50.0,323/500,94,91.0
597,B1,50.0,0.031,93,91.0
598,F#2,50.0,0.031,93,91.0
599,A1,50.5,177/1000,127,91.0
600,F#2,50.5,0.031,61,91.0
601,A3,50.51,49/100,71,91.0
602,C4,50.51,49/100,71,91.0
603,E4,50.51,49/100,71,91.0
604,E3,50.75,0.125,72,91.0
605,E4,50.75,0.125,72,91.0
606,A3,50.75,0.125,72,91.0
607,E4,50.75,0.125,72,91.0
608,C4,50.75,0.125,50,91.0
609,E4,50.75,0.125,50,91.0
610,E-2,50.958,0.031,93,91.0
611,F#2,50.958,0.031,93,91.0
612,D2,50.958,0.031,93,91.0
613,A1,51.0,0.125,95,91.0
614,A3,51.0,0.125,95,91.0
615,C4,51.0,0.125,95,91.0
616,E4,51.0,0.125,95,91.0
617,D3,51.0,99/250,91,91.0
618,D4,51.0,99/250,91,91.0
619,B1,51.25,0.406,87,91.0
620,B3,51.25,0.406,87,91.0
621,D4,51.25,0.406,87,91.0
622,F#4,51.25,0.406,87,91.0
623,F#2,51.5,0.031,97,91.0
624,D4,51.5,13/50,91,91.0
625,D5,51.5,13/50,91,91.0
626,C2,52.0,479/1000,83,91.0
627,G3,52.0,479/1000,83,91.0
628,B3,52.0,479/1000,83,91.0
629,E4,52.0,479/1000,83,91.0
630,G4,52.0,73/250,97,91.0
631,G5,52.0,73/250,97,91.0
632,B1,52.0,0.031,92,91.0
633,F#2,52.0,0.031,92,91.0
634,F#2,52.5,0.031,59,91.0
635,G1,52.75,427/1000,97,91.0
636,D4,52.75,427/1000,97,91.0
637,G3,52.76,427/1000,69,91.0
638,B3,52.76,427/1000,69,91.0
639,D4,52.76,427/1000,69,91.0
640,E-2,52.958,0.031,93,91.0
641,F#2,52.958,0.031,93,91.0
642,D2,52.958,0.031,93,91.0
643,G3,53.0,271/1000,94,91.0
644,G4,53.0,271/1000,94,91.0
645,A1,53.5,69/125,127,91.0
646,F#2,53.5,0.031,57,91.0
647,A3,53.51,677/1000,71,91.0
648,C4,53.51,677/1000,71,91.0
649,E4,53.51,677/1000,71,91.0
650,G4,54.0,229/1000,97,91.0
651,G5,54.0,229/1000,97,91.0
652,B1,54.0,0.031,93,91.0
653,F#2,54.0,0.031,93,91.0
654,A1,54.5,177/1000,127,91.0
655,F#2,54.5,0.031,61,91.0
656,A3,54.51,49/100,71,91.0
657,C4,54.51,49/100,71,91.0
658,E4,54.51,49/100,71,91.0
659,A3,54.75,0.125,49,91.0
660,C4,54.75,0.125,49,91.0
661,E4,54.75,0.125,49,91.0
662,E-2,54.958,0.031,93,91.0
663,F#2,54.958,0.031,93,91.0
664,D2,54.958,0.031,93,91.0
665,A1,55.0,0.125,95,91.0
666,A3,55.0,0.125,95,91.0
667,C4,55.0,0.125,95,91.0
668,E4,55.0,0.125,95,91.0
669,G3,55.0,0.281,94,91.0
670,G4,55.0,0.281,94,91.0
671,B1,55.25,0.406,87,91.0
672,B3,55.25,0.406,87,91.0
673,D4,55.25,0.406,87,91.0
674,F#4,55.25,0.406,87,91.0
675,F#2,55.5,0.031,97,91.0
676,D2,55.75,0.031,27,91.0
677,D2,55.812,0.031,15,91.0
678,D2,55.885,0.031,14,91.0
679,C2,56.0,479/1000,83,91.0
680,G3,56.0,479/1000,83,91.0
681,B3,56.0,479/1000,83,91.0
682,E4,56.0,479/1000,83,91.0
683,G4,56.0,0.188,97,91.0
684,G5,56.0,0.188,97,91.0
685,B1,56.0,0.031,92,91.0
686,F#2,56.0,0.031,92,91.0
687,F#2,56.5,0.031,59,91.0
688,G3,56.5,0.25,94,91.0
689,G4,56.5,0.25,94,91.0
690,G1,56.75,427/1000,97,91.0
691,D4,56.75,427/1000,97,91.0
692,G3,56.76,427/1000,69,91.0
693,B3,56.76,427/1000,69,91.0
694,D4,56.76,427/1000,69,91.0
695,E-2,56.958,0.031,93,91.0
696,F#2,56.958,0.031,93,91.0
697,D2,56.958,0.031,93,91.0
698,G4,57.0,26/125,97,91.0
699,G5,57.0,26/125,97,91.0
700,A1,57.5,69/125,127,91.0
701,F#2,57.5,0.031,57,91.0
702,G3,57.5,229/1000,94,91.0
703,G4,57.5,229/1000,94,91.0
704,A3,57.51,677/1000,71,91.0
705,C4,57.51,677/1000,71,91.0
706,E4,57.51,677/1000,71,91.0
707,G4,58.0,0.188,97,91.0
708,G5,58.0,0.188,97,91.0
709,B1,58.0,0.031,93,91.0
710,F#2,58.0,0.031,93,91.0
711,F#2,58.5,0.031,61,91.0
712,A1,58.5,6/25,105,91.0
713,G3,58.5,6/25,105,91.0
714,G4,58.5,6/25,105,91.0
715,A3,58.51,49/100,71,91.0
716,C4,58.51,49/100,71,91.0
717,E4,58.51,49/100,71,91.0
718,A3,58.75,0.125,49,91.0
719,C4,58.75,0.125,49,91.0
720,E4,58.75,0.125,49,91.0
721,E-2,58.958,0.031,93,91.0
722,F#2,58.958,0.031,93,91.0
723,D2,58.958,0.031,93,91.0
724,A1,59.0,0.125,96,91.0
725,G4,59.0,0.125,96,91.0
726,G5,59.0,0.125,96,91.0
727,A3,59.0,0.125,96,91.0
728,C4,59.0,0.125,96,91.0
729,E4,59.0,0.125,96,91.0
730,B1,59.25,0.406,87,91.0
731,B3,59.25,0.406,87,91.0
732,D4,59.25,0.406,87,91.0
733,F#4,59.25,0.406,87,91.0
734,G3,59.5,13/50,94,91.0
735,G4,59.5,13/50,94,91.0
736,D2,59.5,0.031,82,91.0
737,F#2,59.5,0.031,82,91.0
738,C2,60.0,479/1000,83,91.0
739,G3,60.0,479/1000,83,91.0
740,B3,60.0,479/1000,83,91.0
741,E4,60.0,479/1000,83,91.0
742,E4,60.0,0.906,80,91.0
743,A4,60.0,0.906,80,91.0
744,E5,60.0,0.906,80,91.0
745,A5,60.0,0.906,80,91.0
746,B1,60.0,0.031,92,91.0
747,F#2,60.0,0.031,92,91.0
748,F#2,60.5,0.031,59,91.0
749,G1,60.75,427/1000,97,91.0
750,D4,60.75,427/1000,97,91.0
751,G3,60.76,427/1000,69,91.0
752,B3,60.76,427/1000,69,91.0
753,D4,60.76,427/1000,69,91.0
754,E-2,60.958,0.031,93,91.0
755,F#2,60.958,0.031,93,91.0
756,D2,60.958,0.031,93,91.0
757,D4,61.0,3.0,51,91.0
758,D5,61.0,3.0,51,91.0
759,G4,61.0,3.0,107,91.0
760,G5,61.0,3.0,107,91.0
761,A1,61.5,69/125,127,91.0
762,F#2,61.5,0.031,57,91.0
763,A3,61.51,677/1000,71,91.0
764,C4,61.51,677/1000,71,91.0
765,E4,61.51,677/1000,71,91.0
766,B1,62.0,0.031,93,91.0
767,F#2,62.0,0.031,93,91.0
768,A1,62.5,177/1000,127,91.0
769,F#2,62.5,0.031,61,91.0
770,A3,62.51,49/100,71,91.0
771,C4,62.51,49/100,71,91.0
772,E4,62.51,49/100,71,91.0
773,A3,62.75,0.125,49,91.0
774,C4,62.75,0.125,49,91.0
775,E4,62.75,0.125,49,91.0
776,E-2,62.958,0.031,93,91.0
777,F#2,62.958,0.031,93,91.0
778,D2,62.958,0.031,93,91.0
779,A1,63.0,0.125,95,91.0
780,A3,63.0,0.125,95,91.0
781,C4,63.0,0.125,95,91.0
782,E4,63.0,0.125,95,91.0
783,B1,63.25,0.406,87,91.0
784,B3,63.25,0.406,87,91.0
785,D4,63.25,0.406,87,91.0
786,F#4,63.25,0.406,87,91.0
787,F#2,63.5,0.031,97,91.0
788,D2,63.75,0.031,27,91.0
789,D2,63.812,0.031,15,91.0
790,D2,63.885,0.031,14,91.0
791,C2,64.0,479/1000,83,91.0
792,G3,64.0,479/1000,83,91.0
793,B3,64.0,479/1000,83,91.0
794,E4,64.0,479/1000,83,91.0
795,B1,64.0,0.031,92,91.0
796,F#2,64.0,0.031,92,91.0
797,D4,64.0,112/125,51,91.0
798,D5,64.0,112/125,51,91.0
799,G4,64.0,99/100,107,91.0
800,G5,64.0,99/100,107,91.0
801,F#2,64.5,0.031,59,91.0
802,G1,64.75,427/1000,97,91.0
803,D4,64.75,427/1000,97,91.0
804,G3,64.76,427/1000,69,91.0
805,B3,64.76,427/1000,69,91.0
806,D4,64.76,427/1000,69,91.0
807,E-2,64.958,0.031,93,91.0
808,F#2,64.958,0.031,93,91.0
809,D2,64.958,0.031,93,91.0
810,A1,65.5,69/125,127,91.0
811,F#2,65.5,0.031,57,91.0
812,E4,65.5,99/250,99,91.0
813,E5,65.5,99/250,99,91.0
814,A3,65.51,677/1000,71,91.0
815,C4,65.51,677/1000,71,91.0
816,E4,65.51,677/1000,71,91.0
817,G4,66.0,333/1000,87,91.0
818,G5,66.0,333/1000,87,91.0
819,B1,66.0,0.031,93,91.0
820,F#2,66.0,0.031,93,91.0
821,A1,66.5,177/1000,127,91.0
822,F#2,66.5,0.031,61,91.0
823,A3,66.51,49/100,71,91.0
824,C4,66.51,49/100,71,91.0
825,E4,66.51,49/100,71,91.0
826,E4,66.75,177/500,105,91.0
827,E5,66.75,177/500,105,91.0
828,A3,66.75,0.125,49,91.0
829,C4,66.75,0.125,49,91.0
830,E4,66.75,0.125,49,91.0
831,E-2,66.958,0.031,93,91.0
832,F#2,66.958,0.031,93,91.0
833,D2,66.958,0.031,93,91.0
834,A1,67.0,0.125,95,91.0
835,A3,67.0,0.125,95,91.0
836,C4,67.0,0.125,95,91.0
837,E4,67.0,0.125,95,91.0
838,B1,67.25,0.406,87,91.0
839,B3,67.25,0.406,87,91.0
840,D4,67.25,0.406,87,91.0
841,F#4,67.25,0.406,87,91.0
842,D4,67.25,27/200,89,91.0
843,D5,67.25,27/200,89,91.0
844,F#2,67.5,0.031,97,91.0
845,E4,67.5,479/1000,79,91.0
846,E5,67.5,479/1000,79,91.0
847,C2,68.0,479/1000,83,91.0
848,G3,68.0,479/1000,83,91.0
849,B3,68.0,479/1000,83,91.0
850,E4,68.0,479/1000,83,91.0
851,B3,68.0,23/200,107,91.0
852,B4,68.0,23/200,107,91.0
853,B1,68.0,0.031,92,91.0
854,F#2,68.0,0.031,92,91.0
855,F#2,68.5,0.031,59,91.0
856,A3,68.5,417/1000,105,91.0
857,A4,68.5,417/1000,105,91.0
858,G1,68.75,427/1000,97,91.0
859,D4,68.75,427/1000,97,91.0
860,G3,68.76,427/1000,69,91.0
861,B3,68.76,427/1000,69,91.0
862,D4,68.76,427/1000,69,91.0
863,E-2,68.958,0.031,93,91.0
864,F#2,68.958,0.031,93,91.0
865,D2,68.958,0.031,93,91.0
866,G3,69.0,3.0,102,91.0
867,G4,69.0,3.0,102,91.0
868,A1,69.5,69/125,127,91.0
869,F#2,69.5,0.031,57,91.0
870,A3,69.51,677/1000,71,91.0
871,C4,69.51,677/1000,71,91.0
872,E4,69.51,677/1000,71,91.0
873,B1,70.0,0.031,93,91.0
874,F#2,70.0,0.031,93,91.0
875,A1,70.5,177/1000,127,91.0
876,F#2,70.5,0.031,61,91.0
877,A3,70.51,49/100,71,91.0
878,C4,70.51,49/100,71,91.0
879,E4,70.51,49/100,71,91.0
880,A3,70.75,0.125,49,91.0
881,C4,70.75,0.125,49,91.0
882,E4,70.75,0.125,49,91.0
883,E-2,70.958,0.031,93,91.0
884,F#2,70.958,0.031,93,91.0
885,D2,70.958,0.031,93,91.0
886,A1,71.0,0.125,95,91.0
887,A3,71.0,0.125,95,91.0
888,C4,71.0,0.125,95,91.0
889,E4,71.0,0.125,95,91.0
890,B1,71.25,0.406,87,91.0
891,B3,71.25,0.406,87,91.0
892,D4,71.25,0.406,87,91.0
893,F#4,71.25,0.406,87,91.0
894,F#2,71.5,0.031,97,91.0
895,D2,71.75,0.031,27,91.0
896,D2,71.812,0.031,15,91.0
897,D2,71.885,0.031,14,91.0
898,C2,72.0,479/1000,83,91.0
899,G3,72.0,479/1000,83,91.0
900,B3,72.0,479/1000,83,91.0
901,E4,72.0,479/1000,83,91.0
902,B1,72.0,0.031,92,91.0
903,F#2,72.0,0.031,92,91.0
904,G3,72.0,1.031,102,91.0
905,G4,72.0,1.031,102,91.0
906,F#2,72.5,0.031,59,91.0
907,G1,72.75,427/1000,97,91.0
908,D4,72.75,427/1000,97,91.0
909,G3,72.76,427/1000,69,91.0
910,B3,72.76,427/1000,69,91.0
911,D4,72.76,427/1000,69,91.0
912,E-2,72.958,0.031,93,91.0
913,F#2,72.958,0.031,93,91.0
914,D2,72.958,0.031,93,91.0
915,A1,73.5,69/125,127,91.0
916,F#2,73.5,0.031,57,91.0
917,A3,73.51,677/1000,71,91.0
918,C4,73.51,677/1000,71,91.0
919,E4,73.51,677/1000,71,91.0
920,B1,74.0,0.031,93,91.0
921,F#2,74.0,0.031,93,91.0
922,A1,74.5,177/1000,127,91.0
923,F#2,74.5,0.031,61,91.0
924,A3,74.51,49/100,71,91.0
925,C4,74.51,49/100,71,91.0
926,E4,74.51,49/100,71,91.0
927,A3,74.75,0.125,49,91.0
928,C4,74.75,0.125,49,91.0
929,E4,74.75,0.125,49,91.0
930,E-2,74.958,0.031,93,91.0
931,F#2,74.958,0.031,93,91.0
932,D2,74.958,0.031,93,91.0
933,A1,75.0,0.125,95,91.0
934,A3,75.0,0.125,95,91.0
935,C4,75.0,0.125,95,91.0
936,E4,75.0,0.125,95,91.0
937,B1,75.25,0.406,87,91.0
938,B3,75.25,0.406,87,91.0
939,D4,75.25,0.406,87,91.0
940,F#4,75.25,0.406,87,91.0
941,D4,75.5,177/1000,98,91.0
942,D5,75.5,177/1000,98,91.0
943,D2,75.5,0.031,82,91.0
944,F#2,75.5,0.031,82,91.0
945,C2,76.0,479/1000,83,91.0
946,G3,76.0,479/1000,83,91.0
947,B3,76.0,479/1000,83,91.0
948,E4,76.0,479/1000,83,91.0
949,E4,76.0,927/1000,80,91.0
950,A4,76.0,927/1000,80,91.0
951,E5,76.0,927/1000,80,91.0
952,A5,76.0,927/1000,80,91.0
953,B1,76.0,0.031,92,91.0
954,F#2,76.0,0.031,92,91.0
955,F#2,76.5,0.031,59,91.0
956,G1,76.75,427/1000,97,91.0
957,D4,76.75,427/1000,97,91.0
958,G3,76.76,427/1000,69,91.0
959,B3,76.76,427/1000,69,91.0
960,D4,76.76,427/1000,69,91.0
961,E-2,76.958,0.031,93,91.0
962,F#2,76.958,0.031,93,91.0
963,D2,76.958,0.031,93,91.0
964,D4,77.0,3.0,50,91.0
965,D5,77.0,3.0,50,91.0
966,G4,77.0,3.0,108,91.0
967,G5,77.0,3.0,108,91.0
968,A1,77.5,69/125,127,91.0
969,F#2,77.5,0.031,57,91.0
970,A3,77.51,677/1000,71,91.0
971,C4,77.51,677/1000,71,91.0
972,E4,77.51,677/1000,71,91.0
973,B1,78.0,0.031,93,91.0
974,F#2,78.0,0.031,93,91.0
975,A1,78.5,177/1000,127,91.0
976,F#2,78.5,0.031,61,91.0
977,A3,78.51,49/100,71,91.0
978,C4,78.51,49/100,71,91.0
979,E4,78.51,49/100,71,91.0
980,A3,78.75,0.125,49,91.0
981,C4,78.75,0.125,49,91.0
982,E4,78.75,0.125,49,91.0
983,E-2,78.958,0.031,93,91.0
984,F#2,78.958,0.031,93,91.0
985,D2,78.958,0.031,93,91.0
986,A1,79.0,0.125,95,91.0
987,A3,79.0,0.125,95,91.0
988,C4,79.0,0.125,95,91.0
989,E4,79.0,0.125,95,91.0
990,B1,79.25,0.406,87,91.0
991,B3,79.25,0.406,87,91.0
992,D4,79.25,0.406,87,91.0
993,F#4,79.25,0.406,87,91.0
994,F#2,79.5,0.031,97,91.0
995,D2,79.75,0.031,27,91.0
996,D2,79.812,0.031,15,91.0
997,D2,79.885,0.031,14,91.0
998,C2,80.0,479/1000,83,91.0
999,G3,80.0,479/1000,83,91.0
1000,B3,80.0,479/1000,83,91.0
1001,E4,80.0,479/1000,83,91.0
1002,B1,80.0,0.031,92,91.0
1003,F#2,80.0,0.031,92,91.0
1004,D4,80.0,833/1000,50,91.0
1005,D5,80.0,833/1000,50,91.0
1006,G4,80.0,101/100,108,91.0
1007,G5,80.0,101/100,108,91.0
1008,F#2,80.5,0.031,59,91.0
1009,G1,80.75,427/1000,97,91.0
1010,D4,80.75,427/1000,97,91.0
1011,G3,80.76,427/1000,69,91.0
1012,B3,80.76,427/1000,69,91.0
1013,D4,80.76,427/1000,69,91.0
1014,E-2,80.958,0.031,93,91.0
1015,F#2,80.958,0.031,93,91.0
1016,D2,80.958,0.031,93,91.0
1017,F#2,81.5,0.031,57,91.0
1018,A1,81.5,49/100,108,91.0
1019,E4,81.5,49/100,108,91.0
1020,E5,81.5,49/100,108,91.0
1021,A3,81.51,677/1000,71,91.0
1022,C4,81.51,677/1000,71,91.0
1023,E4,81.51,677/1000,71,91.0
1024,G4,82.0,0.281,100,91.0
1025,G5,82.0,0.281,100,91.0
1026,B1,82.0,0.031,93,91.0
1027,F#2,82.0,0.031,93,91.0
1028,A1,82.5,177/1000,127,91.0
1029,F#2,82.5,0.031,61,91.0
1030,A3,82.51,49/100,71,91.0
1031,C4,82.51,49/100,71,91.0
1032,E4,82.51,49/100,71,91.0
1033,E4,82.75,271/1000,108,91.0
1034,E5,82.75,271/1000,108,91.0
1035,A3,82.75,0.125,49,91.0
1036,C4,82.75,0.125,49,91.0
1037,E4,82.75,0.125,49,91.0
1038,E-2,82.958,0.031,93,91.0
1039,F#2,82.958,0.031,93,91.0
1040,D2,82.958,0.031,93,91.0
1041,A1,83.0,0.125,95,91.0
1042,A3,83.0,0.125,95,91.0
1043,C4,83.0,0.125,95,91.0
1044,E4,83.0,0.125,95,91.0
1045,B1,83.25,0.406,87,91.0
1046,B3,83.25,0.406,87,91.0
1047,D4,83.25,0.406,87,91.0
1048,F#4,83.25,0.406,87,91.0
1049,D4,83.25,0.188,98,91.0
1050,D5,83.25,0.188,98,91.0
1051,F#2,83.5,0.031,97,91.0
1052,E4,83.5,0.25,83,91.0
1053,E5,83.5,0.25,83,91.0
1054,C2,84.0,479/1000,83,91.0
1055,G3,84.0,479/1000,83,91.0
1056,B3,84.0,479/1000,83,91.0
1057,E4,84.0,479/1000,83,91.0
1058,B3,84.0,0.156,108,91.0
1059,B4,84.0,0.156,108,91.0
1060,B1,84.0,0.031,92,91.0
1061,F#2,84.0,0.031,92,91.0
1062,F#2,84.5,0.031,59,91.0
1063,A3,84.5,417/1000,102,91.0
1064,A4,84.5,417/1000,102,91.0
1065,G1,84.75,427/1000,97,91.0
1066,D4,84.75,427/1000,97,91.0
1067,G3,84.76,427/1000,69,91.0
1068,B3,84.76,427/1000,69,91.0
1069,D4,84.76,427/1000,69,91.0
1070,E-2,84.958,0.031,93,91.0
1071,F#2,84.958,0.031,93,91.0
1072,D2,84.958,0.031,93,91.0
1073,G3,85.0,3.0,100,91.0
1074,G4,85.0,3.0,100,91.0
1075,A1,85.5,69/125,127,91.0
1076,F#2,85.5,0.031,57,91.0
1077,A3,85.51,677/1000,71,91.0
1078,C4,85.51,677/1000,71,91.0
1079,E4,85.51,677/1000,71,91.0
1080,B1,86.0,0.031,93,91.0
1081,F#2,86.0,0.031,93,91.0
1082,A1,86.5,177/1000,127,91.0
1083,F#2,86.5,0.031,61,91.0
1084,A3,86.51,49/100,71,91.0
1085,C4,86.51,49/100,71,91.0
1086,E4,86.51,49/100,71,91.0
1087,A3,86.75,0.125,49,91.0
1088,C4,86.75,0.125,49,91.0
1089,E4,86.75,0.125,49,91.0
1090,E-2,86.958,0.031,93,91.0
1091,F#2,86.958,0.031,93,91.0
1092,D2,86.958,0.031,93,91.0
1093,A1,87.0,0.125,95,91.0
1094,A3,87.0,0.125,95,91.0
1095,C4,87.0,0.125,95,91.0
1096,E4,87.0,0.125,95,91.0
1097,B1,87.25,0.406,87,91.0
1098,B3,87.25,0.406,87,91.0
1099,D4,87.25,0.406,87,91.0
1100,F#4,87.25,0.406,87,91.0
1101,F#2,87.5,0.031,97,91.0
1102,D2,87.75,0.031,27,91.0
1103,D2,87.812,0.031,15,91.0
1104,D2,87.885,0.031,14,91.0
1105,C2,88.0,479/1000,83,91.0
1106,G3,88.0,479/1000,83,91.0
1107,B3,88.0,479/1000,83,91.0
1108,E4,88.0,479/1000,83,91.0
1109,B1,88.0,0.031,92,91.0
1110,F#2,88.0,0.031,92,91.0
1111,G3,88.0,101/100,100,91.0
1112,G4,88.0,101/100,100,91.0
1113,F#2,88.5,0.031,59,91.0
1114,G1,88.75,427/1000,97,91.0
1115,D4,88.75,427/1000,97,91.0
1116,G3,88.76,427/1000,69,91.0
1117,B3,88.76,427/1000,69,91.0
1118,D4,88.76,427/1000,69,91.0
1119,E-2,88.958,0.031,93,91.0
1120,F#2,88.958,0.031,93,91.0
1121,D2,88.958,0.031,93,91.0
1122,A1,89.5,69/125,127,91.0
1123,F#2,89.5,0.031,57,91.0
1124,A3,89.51,677/1000,71,91.0
1125,C4,89.51,677/1000,71,91.0
1126,E4,89.51,677/1000,71,91.0
1127,B1,90.0,0.031,93,91.0
1128,F#2,90.0,0.031,93,91.0
1129,A1,90.5,177/1000,127,91.0
1130,F#2,90.5,0.031,61,91.0
1131,A3,90.51,49/100,71,91.0
1132,C4,90.51,49/100,71,91.0
1133,E4,90.51,49/100,71,91.0
1134,A3,90.75,0.125,49,91.0
1135,C4,90.75,0.125,49,91.0
1136,E4,90.75,0.125,49,91.0
1137,E-2,90.958,0.031,93,91.0
1138,F#2,90.958,0.031,93,91.0
1139,D2,90.958,0.031,93,91.0
1140,A1,91.0,0.125,95,91.0
1141,A3,91.0,0.125,95,91.0
1142,C4,91.0,0.125,95,91.0
1143,E4,91.0,0.125,95,91.0
1144,A4,91.25,0.094,92,91.0
1145,B1,91.25,0.406,87,91.0
1146,B3,91.25,0.406,87,91.0
1147,D4,91.25,0.406,87,91.0
1148,F#4,91.25,0.406,87,91.0
1149,A4,91.5,0.031,79,91.0
1150,D2,91.5,0.031,79,91.0
1151,F#2,91.5,0.031,79,91.0
1152,A4,91.75,13/125,75,91.0
1153,B4,92.0,99/500,97,91.0
1154,C2,92.0,479/1000,83,91.0
1155,G3,92.0,479/1000,83,91.0
1156,B3,92.0,479/1000,83,91.0
1157,E4,92.0,479/1000,83,91.0
1158,B1,92.0,0.031,92,91.0
1159,F#2,92.0,0.031,92,91.0
1160,G4,92.25,23/200,70,91.0
1161,G4,92.5,13/125,62,91.0
1162,F#2,92.5,0.031,59,91.0
1163,G4,92.75,13/125,62,91.0
1164,G1,92.75,427/1000,97,91.0
1165,D4,92.75,427/1000,97,91.0
1166,G3,92.76,427/1000,69,91.0
1167,B3,92.76,427/1000,69,91.0
1168,D4,92.76,427/1000,69,91.0
1169,E-2,92.958,0.031,93,91.0
1170,F#2,92.958,0.031,93,91.0
1171,D2,92.958,0.031,93,91.0
1172,G4,93.0,73/500,82,91.0
1173,A1,93.5,69/125,127,91.0
1174,G4,93.5,0.125,78,91.0
1175,F#2,93.5,0.031,57,91.0
1176,A3,93.51,677/1000,71,91.0
1177,C4,93.51,677/1000,71,91.0
1178,E4,93.51,677/1000,71,91.0
1179,E4,93.75,73/500,70,91.0
1180,G4,94.0,27/200,75,91.0
1181,B1,94.0,0.031,93,91.0
1182,F#2,94.0,0.031,93,91.0
1183,F#2,94.5,0.031,61,91.0
1184,A1,94.5,0.188,110,91.0
1185,E4,94.5,0.188,110,91.0
1186,A3,94.51,49/100,71,91.0
1187,C4,94.51,49/100,71,91.0
1188,E4,94.51,49/100,71,91.0
1189,A3,94.75,0.125,49,91.0
1190,C4,94.75,0.125,49,91.0
1191,E4,94.75,0.125,49,91.0
1192,E-2,94.958,0.031,93,91.0
1193,F#2,94.958,0.031,93,91.0
1194,D2,94.958,0.031,93,91.0
1195,A1,95.0,0.125,95,91.0
1196,A3,95.0,0.125,95,91.0
1197,C4,95.0,0.125,95,91.0
1198,E4,95.0,0.125,95,91.0
1199,B1,95.25,0.406,87,91.0
1200,B3,95.25,0.406,87,91.0
1201,D4,95.25,0.406,87,91.0
1202,F#4,95.25,0.406,87,91.0
1203,F#2,95.5,0.031,97,91.0
1204,D2,95.75,0.031,27,91.0
1205,D2,95.812,0.031,15,91.0
1206,D2,95.885,0.031,14,91.0
1207,C2,96.0,479/1000,83,91.0
1208,G3,96.0,479/1000,83,91.0
1209,B3,96.0,479/1000,83,91.0
1210,E4,96.0,479/1000,83,91.0
1211,G4,96.0,0.031,91,91.0
1212,B1,96.0,0.031,91,91.0
1213,F#2,96.0,0.031,91,91.0
1214,G4,96.25,83/1000,72,91.0
1215,G4,96.5,0.156,69,91.0
1216,F#2,96.5,0.031,59,91.0
1217,E4,96.75,13/125,68,91.0
1218,G1,96.75,427/1000,97,91.0
1219,D4,96.75,427/1000,97,91.0
1220,G3,96.76,427/1000,69,91.0
1221,B3,96.76,427/1000,69,91.0
1222,D4,96.76,427/1000,69,91.0
1223,E-2,96.958,0.031,93,91.0
1224,F#2,96.958,0.031,93,91.0
1225,D2,96.958,0.031,93,91.0
1226,G4,97.0,73/500,98,91.0
1227,B4,97.25,27/200,89,91.0
1228,A1,97.5,69/125,127,91.0
1229,F#2,97.5,0.031,57,91.0
1230,A3,97.51,677/1000,71,91.0
1231,C4,97.51,677/1000,71,91.0
1232,E4,97.51,677/1000,71,91.0
1233,E4,97.75,27/200,76,91.0
1234,G4,98.0,13/125,62,91.0
1235,B1,98.0,0.031,93,91.0
1236,F#2,98.0,0.031,93,91.0
1237,G4,98.25,0.125,69,91.0
1238,F#2,98.5,0.031,61,91.0
1239,A1,98.5,167/1000,105,91.0
1240,E4,98.5,167/1000,105,91.0
1241,A3,98.51,49/100,71,91.0
1242,C4,98.51,49/100,71,91.0
1243,E4,98.51,49/100,71,91.0
1244,A3,98.75,0.125,49,91.0
1245,C4,98.75,0.125,49,91.0
1246,E4,98.75,0.125,49,91.0
1247,E-2,98.958,0.031,93,91.0
1248,F#2,98.958,0.031,93,91.0
1249,D2,98.958,0.031,93,91.0
1250,A1,99.0,0.125,95,91.0
1251,A3,99.0,0.125,95,91.0
1252,C4,99.0,0.125,95,91.0
1253,E4,99.0,0.125,95,91.0
1254,B1,99.25,0.406,87,91.0
1255,B3,99.25,0.406,87,91.0
1256,D4,99.25,0.406,87,91.0
1257,F#4,99.25,0.406,87,91.0
1258,A4,99.5,0.031,86,91.0
1259,F#2,99.5,0.031,86,91.0
1260,A4,99.75,13/125,78,91.0
1261,B4,100.0,73/500,83,91.0
1262,C2,100.0,479/1000,83,91.0
1263,G3,100.0,479/1000,83,91.0
1264,B3,100.0,479/1000,83,91.0
1265,E4,100.0,479/1000,83,91.0
1266,B1,100.0,0.031,92,91.0
1267,F#2,100.0,0.031,92,91.0
1268,G4,100.25,23/200,72,91.0
1269,B4,100.5,73/500,78,91.0
1270,F#2,100.5,0.031,59,91.0
1271,G1,100.75,427/1000,97,91.0
1272,D4,100.75,427/1000,97,91.0
1273,G3,100.76,427/1000,69,91.0
1274,B3,100.76,427/1000,69,91.0
1275,D4,100.76,427/1000,69,91.0
1276,E-2,100.958,0.031,93,91.0
1277,F#2,100.958,0.031,93,91.0
1278,D2,100.958,0.031,93,91.0
1279,B4,101.0,73/500,82,91.0
1280,A1,101.5,69/125,127,91.0
1281,B4,101.5,177/1000,68,91.0
1282,F#2,101.5,0.031,57,91.0
1283,A3,101.51,677/1000,71,91.0
1284,C4,101.51,677/1000,71,91.0
1285,E4,101.51,677/1000,71,91.0
1286,G4,101.75,0.125,67,91.0
1287,G4,102.0,0.156,72,91.0
1288,B1,102.0,0.031,93,91.0
1289,F#2,102.0,0.031,93,91.0
1290,F#2,102.5,0.031,61,91.0
1291,A1,102.5,6/25,106,91.0
1292,E4,102.5,6/25,106,91.0
1293,A3,102.51,49/100,71,91.0
1294,C4,102.51,49/100,71,91.0
1295,E4,102.51,49/100,71,91.0
1296,A3,102.75,0.125,49,91.0
1297,C4,102.75,0.125,49,91.0
1298,E4,102.75,0.125,49,91.0
1299,E-2,102.958,0.031,93,91.0
1300,F#2,102.958,0.031,93,91.0
1301,D2,102.958,0.031,93,91.0
1302,A1,103.0,0.125,95,91.0
1303,A3,103.0,0.125,95,91.0
1304,C4,103.0,0.125,95,91.0
1305,E4,103.0,0.125,95,91.0
1306,B1,103.25,0.406,87,91.0
1307,B3,103.25,0.406,87,91.0
1308,D4,103.25,0.406,87,91.0
1309,F#4,103.25,0.406,87,91.0
1310,F#2,103.5,0.031,97,91.0
1311,G4,103.75,0.031,50,91.0
1312,D2,103.75,0.031,50,91.0
1313,D2,103.812,0.031,15,91.0
1314,D2,103.885,0.031,14,91.0
1315,G4,104.0,0.125,72,91.0
1316,C2,104.0,479/1000,83,91.0
1317,G3,104.0,479/1000,83,91.0
1318,B3,104.0,479/1000,83,91.0
1319,E4,104.0,479/1000,83,91.0
1320,B1,104.0,0.031,92,91.0
1321,F#2,104.0,0.031,92,91.0
1322,E4,104.25,0.125,74,91.0
1323,G4,104.5,23/200,67,91.0
1324,F#2,104.5,0.031,59,91.0
1325,E4,104.75,23/200,74,91.0
1326,G1,104.75,427/1000,97,91.0
1327,D4,104.75,427/1000,97,91.0
1328,G3,104.76,427/1000,69,91.0
1329,B3,104.76,427/1000,69,91.0
1330,D4,104.76,427/1000,69,91.0
1331,E-2,104.958,0.031,93,91.0
1332,F#2,104.958,0.031,93,91.0
1333,D2,104.958,0.031,93,91.0
1334,G4,105.0,23/200,80,91.0
1335,E4,105.25,23/200,82,91.0
1336,A1,105.5,69/125,127,91.0
1337,G4,105.5,13/125,94,91.0
1338,F#2,105.5,0.031,57,91.0
1339,A3,105.51,677/1000,71,91.0
1340,C4,105.51,677/1000,71,91.0
1341,E4,105.51,677/1000,71,91.0
1342,E4,105.75,83/1000,74,91.0
1343,B4,106.0,13/125,87,91.0
1344,B1,106.0,0.031,93,91.0
1345,F#2,106.0,0.031,93,91.0
1346,A1,106.5,177/1000,127,91.0
1347,A4,106.5,771/1000,78,91.0
1348,F#2,106.5,0.031,61,91.0
1349,A3,106.51,49/100,71,91.0
1350,C4,106.51,49/100,71,91.0
1351,E4,106.51,49/100,71,91.0
1352,A3,106.75,0.125,49,91.0
1353,C4,106.75,0.125,49,91.0
1354,E4,106.75,0.125,49,91.0
1355,E-2,106.958,0.031,93,91.0
1356,F#2,106.958,0.031,93,91.0
1357,D2,106.958,0.031,93,91.0
1358,A1,107.0,0.125,95,91.0
1359,A3,107.0,0.125,95,91.0
1360,C4,107.0,0.125,95,91.0
1361,E4,107.0,0.125,95,91.0
1362,B1,107.25,0.406,87,91.0
1363,B3,107.25,0.406,87,91.0
1364,D4,107.25,0.406,87,91.0
1365,F#4,107.25,0.406,87,91.0
1366,G4,107.5,13/125,76,91.0
1367,D2,107.5,0.031,82,91.0
1368,F#2,107.5,0.031,82,91.0
1369,E4,107.75,0.125,71,91.0
1370,G4,108.0,0.156,90,91.0
1371,C2,108.0,479/1000,83,91.0
1372,G3,108.0,479/1000,83,91.0
1373,B3,108.0,479/1000,83,91.0
1374,E4,108.0,479/1000,83,91.0
1375,B1,108.0,0.031,92,91.0
1376,F#2,108.0,0.031,92,91.0
1377,B4,108.5,0.312,81,91.0
1378,F#2,108.5,0.031,59,91.0
1379,G1,108.75,427/1000,97,91.0
1380,D4,108.75,427/1000,97,91.0
1381,G3,108.76,427/1000,69,91.0
1382,B3,108.76,427/1000,69,91.0
1383,D4,108.76,427/1000,69,91.0
1384,E-2,108.958,0.031,93,91.0
1385,F#2,108.958,0.031,93,91.0
1386,D2,108.958,0.031,93,91.0
1387,A1,109.5,69/125,127,91.0
1388,G4,109.5,27/200,79,91.0
1389,F#2,109.5,0.031,57,91.0
1390,A3,109.51,677/1000,71,91.0
1391,C4,109.51,677/1000,71,91.0
1392,E4,109.51,677/1000,71,91.0
1393,E4,109.75,27/200,70,91.0
1394,G4,110.0,0.125,73,91.0
1395,B1,110.0,0.031,93,91.0
1396,F#2,110.0,0.031,93,91.0
1397,G4,110.25,0.094,72,91.0
1398,F#2,110.5,0.031,61,91.0
1399,A1,110.5,23/200,100,91.0
1400,G4,110.5,23/200,100,91.0
1401,A3,110.51,49/100,71,91.0
1402,C4,110.51,49/100,71,91.0
1403,E4,110.51,49/100,71,91.0
1404,E4,110.75,677/1000,88,91.0
1405,A3,110.75,0.125,49,91.0
1406,C4,110.75,0.125,49,91.0
1407,E4,110.75,0.125,49,91.0
1408,E-2,110.958,0.031,93,91.0
1409,F#2,110.958,0.031,93,91.0
1410,D2,110.958,0.031,93,91.0
1411,A1,111.0,0.125,95,91.0
1412,A3,111.0,0.125,95,91.0
1413,C4,111.0,0.125,95,91.0
1414,E4,111.0,0.125,95,91.0
1415,B1,111.25,0.406,87,91.0
1416,B3,111.25,0.406,87,91.0
1417,D4,111.25,0.406,87,91.0
1418,F#4,111.25,0.406,87,91.0
1419,D4,111.5,177/1000,82,91.0
1420,F#2,111.5,0.031,97,91.0
1421,D2,111.75,0.031,27,91.0
1422,D2,111.812,0.031,15,91.0
1423,D2,111.885,0.031,14,91.0
1424,C2,112.0,479/1000,83,91.0
1425,G3,112.0,479/1000,83,91.0
1426,B3,112.0,479/1000,83,91.0
1427,E4,112.0,479/1000,83,91.0
1428,B1,112.0,0.031,92,91.0
1429,F#2,112.0,0.031,92,91.0
1430,E4,112.25,13/125,67,91.0
1431,G4,112.5,0.125,69,91.0
1432,F#2,112.5,0.031,59,91.0
1433,E4,112.75,13/125,68,91.0
1434,G1,112.75,427/1000,97,91.0
1435,D4,112.75,427/1000,97,91.0
1436,G3,112.76,427/1000,69,91.0
1437,B3,112.76,427/1000,69,91.0
1438,D4,112.76,427/1000,69,91.0
1439,E-2,112.958,0.031,93,91.0
1440,F#2,112.958,0.031,93,91.0
1441,D2,112.958,0.031,93,91.0
1442,G4,113.0,0.125,70,91.0
1443,E4,113.25,27/200,73,91.0
1444,A1,113.5,69/125,127,91.0
1445,G4,113.5,27/200,82,91.0
1446,F#2,113.5,0.031,57,91.0
1447,A3,113.51,677/1000,71,91.0
1448,C4,113.51,677/1000,71,91.0
1449,E4,113.51,677/1000,71,91.0
1450,E4,113.75,23/200,67,91.0
1451,G4,114.0,0.125,99,91.0
1452,B1,114.0,0.031,93,91.0
1453,F#2,114.0,0.031,93,91.0
1454,E4,114.25,23/200,71,91.0
1455,F#2,114.5,0.031,61,91.0
1456,A1,114.5,0.125,106,91.0
1457,B4,114.5,0.125,106,91.0
1458,A3,114.51,49/100,71,91.0
1459,C4,114.51,49/100,71,91.0
1460,E4,114.51,49/100,71,91.0
1461,G4,114.75,0.125,54,91.0
1462,A3,114.75,0.125,54,91.0
1463,C4,114.75,0.125,54,91.0
1464,E4,114.75,0.125,54,91.0
1465,E-2,114.958,0.031,93,91.0
1466,F#2,114.958,0.031,93,91.0
1467,D2,114.958,0.031,93,91.0
1468,A1,115.0,0.125,92,91.0
1469,G4,115.0,0.125,92,91.0
1470,A3,115.0,0.125,92,91.0
1471,C4,115.0,0.125,92,91.0
1472,E4,115.0,0.125,92,91.0
1473,G4,115.25,73/500,87,91.0
1474,B1,115.25,0.406,87,91.0
1475,B3,115.25,0.406,87,91.0
1476,D4,115.25,0.406,87,91.0
1477,F#4,115.25,0.406,87,91.0
1478,F#2,115.5,0.031,97,91.0
1479,D4,115.75,0.156,55,91.0
1480,G4,116.0,23/200,78,91.0
1481,C2,116.0,479/1000,83,91.0
1482,G3,116.0,479/1000,83,91.0
1483,B3,116.0,479/1000,83,91.0
1484,E4,116.0,479/1000,83,91.0
1485,B1,116.0,0.031,92,91.0
1486,F#2,116.0,0.031,92,91.0
1487,G4,116.25,23/200,67,91.0
1488,E4,116.5,73/500,71,91.0
1489,F#2,116.5,0.031,59,91.0
1490,G1,116.75,427/1000,97,91.0
1491,D4,116.75,427/1000,97,91.0
1492,G4,116.75,427/1000,73,91.0
1493,G3,116.75,427/1000,73,91.0
1494,B3,116.75,427/1000,73,91.0
1495,D4,116.75,427/1000,73,91.0
1496,E-2,116.958,0.031,93,91.0
1497,F#2,116.958,0.031,93,91.0
1498,D2,116.958,0.031,93,91.0
1499,G4,117.25,27/200,72,91.0
1500,A1,117.5,69/125,127,91.0
1501,E4,117.5,167/1000,78,91.0
1502,F#2,117.5,0.031,57,91.0
1503,A3,117.51,677/1000,71,91.0
1504,C4,117.51,677/1000,71,91.0
1505,E4,117.51,677/1000,71,91.0
1506,G4,118.0,0.594,81,91.0
1507,B1,118.0,0.031,93,91.0
1508,F#2,118.0,0.031,93,91.0
1509,A1,118.5,177/1000,127,91.0
1510,F#2,118.5,0.031,61,91.0
1511,A3,118.51,49/100,71,91.0
1512,C4,118.51,49/100,71,91.0
1513,E4,118.51,49/100,71,91.0
1514,A3,118.75,0.125,49,91.0
1515,C4,118.75,0.125,49,91.0
1516,E4,118.75,0.125,49,91.0
1517,E-2,118.958,0.031,93,91.0
1518,F#2,118.958,0.031,93,91.0
1519,D2,118.958,0.031,93,91.0
1520,A1,119.0,0.125,95,91.0
1521,A3,119.0,0.125,95,91.0
1522,C4,119.0,0.125,95,91.0
1523,E4,119.0,0.125,95,91.0
1524,B1,119.25,0.406,87,91.0
1525,B3,119.25,0.406,87,91.0
1526,D4,119.25,0.406,87,91.0
1527,F#4,119.25,0.406,87,91.0
1528,F#2,119.5,0.031,97,91.0
1529,E4,119.75,0.125,69,91.0
1530,D2,119.75,0.031,27,91.0
1531,D2,119.812,0.031,15,91.0
1532,D2,119.885,0.031,14,91.0
1533,G4,120.0,0.125,75,91.0
1534,C2,120.0,479/1000,83,91.0
1535,G3,120.0,479/1000,83,91.0
1536,B3,120.0,479/1000,83,91.0
1537,E4,120.0,479/1000,83,91.0
1538,B1,120.0,0.031,92,91.0
1539,F#2,120.0,0.031,92,91.0
1540,E4,120.25,23/200,73,91.0
1541,G4,120.5,27/200,75,91.0
1542,F#2,120.5,0.031,59,91.0
1543,E4,120.75,23/200,83,91.0
1544,G1,120.75,427/1000,97,91.0
1545,D4,120.75,427/1000,97,91.0
1546,G3,120.76,427/1000,69,91.0
1547,B3,120.76,427/1000,69,91.0
1548,D4,120.76,427/1000,69,91.0
1549,E-2,120.958,0.031,93,91.0
1550,F#2,120.958,0.031,93,91.0
1551,D2,120.958,0.031,93,91.0
1552,B4,121.0,0.219,85,91.0
1553,A1,121.5,69/125,127,91.0
1554,A4,121.5,73/500,70,91.0
1555,F#2,121.5,0.031,57,91.0
1556,A3,121.51,677/1000,71,91.0
1557,C4,121.51,677/1000,71,91.0
1558,E4,121.51,677/1000,71,91.0
1559,G4,121.75,23/200,66,91.0
1560,B4,122.0,23/200,83,91.0
1561,B1,122.0,0.031,93,91.0
1562,F#2,122.0,0.031,93,91.0
1563,B4,122.25,13/125,73,91.0
1564,F#2,122.5,0.031,61,91.0
1565,A1,122.5,0.125,100,91.0
1566,B4,122.5,0.125,100,91.0
1567,A3,122.51,49/100,71,91.0
1568,C4,122.51,49/100,71,91.0
1569,E4,122.51,49/100,71,91.0
1570,G4,122.75,417/1000,73,91.0
1571,A3,122.75,0.125,49,91.0
1572,C4,122.75,0.125,49,91.0
1573,E4,122.75,0.125,49,91.0
1574,E-2,122.958,0.031,93,91.0
1575,F#2,122.958,0.031,93,91.0
1576,D2,122.958,0.031,93,91.0
1577,A1,123.0,0.125,95,91.0
1578,A3,123.0,0.125,95,91.0
1579,C4,123.0,0.125,95,91.0
1580,E4,123.0,0.125,95,91.0
1581,G4,123.25,27/200,72,91.0
1582,B1,123.25,0.406,87,91.0
1583,B3,123.25,0.406,87,91.0
1584,D4,123.25,0.406,87,91.0
1585,F#4,123.25,0.406,87,91.0
1586,A4,123.5,0.125,69,91.0
1587,D2,123.5,0.031,82,91.0
1588,F#2,123.5,0.031,82,91.0
1589,A4,123.75,23/200,62,91.0
1590,B4,124.0,26/125,94,91.0
1591,C2,124.0,479/1000,83,91.0
1592,G3,124.0,479/1000,83,91.0
1593,B3,124.0,479/1000,83,91.0
1594,E4,124.0,479/1000,83,91.0
1595,B1,124.0,0.031,92,91.0
1596,F#2,124.0,0.031,92,91.0
1597,G4,124.25,0.125,65,91.0
1598,G4,124.5,23/200,65,91.0
1599,F#2,124.5,0.031,59,91.0
1600,G1,124.75,427/1000,89,91.0
1601,G4,124.75,427/1000,89,91.0
1602,D4,124.75,427/1000,89,91.0
1603,G3,124.76,427/1000,69,91.0
1604,B3,124.76,427/1000,69,91.0
1605,D4,124.76,427/1000,69,91.0
1606,E-2,124.958,0.031,93,91.0
1607,F#2,124.958,0.031,93,91.0
1608,D2,124.958,0.031,93,91.0
1609,A1,125.5,69/125,127,91.0
1610,G4,125.5,13/125,85,91.0
1611,F#2,125.5,0.031,57,91.0
1612,A3,125.51,677/1000,71,91.0
1613,C4,125.51,677/1000,71,91.0
1614,E4,125.51,677/1000,71,91.0
1615,E4,125.75,13/125,64,91.0
1616,G4,126.0,23/200,74,91.0
1617,B1,126.0,0.031,93,91.0
1618,F#2,126.0,0.031,93,91.0
1619,G4,126.25,13/125,69,91.0
1620,A1,126.5,177/1000,127,91.0
1621,B4,126.5,729/1000,89,91.0
1622,F#2,126.5,0.031,61,91.0
1623,A3,126.51,49/100,71,91.0
1624,C4,126.51,49/100,71,91.0
1625,E4,126.51,49/100,71,91.0
1626,A3,126.75,0.125,49,91.0
1627,C4,126.75,0.125,49,91.0
1628,E4,126.75,0.125,49,91.0
1629,E-2,126.958,0.031,93,91.0
1630,F#2,126.958,0.031,93,91.0
1631,D2,126.958,0.031,93,91.0
1632,A1,127.0,0.125,95,91.0
1633,A3,127.0,0.125,95,91.0
1634,C4,127.0,0.125,95,91.0
1635,E4,127.0,0.125,95,91.0
1636,G4,127.25,0.094,67,91.0
1637,B1,127.25,0.406,87,91.0
1638,B3,127.25,0.406,87,91.0
1639,D4,127.25,0.406,87,91.0
1640,F#4,127.25,0.406,87,91.0
1641,G4,127.5,23/200,71,91.0
1642,F#2,127.5,0.031,97,91.0
1643,E4,127.75,0.125,76,91.0
1644,D2,127.75,0.031,27,91.0
1645,D2,127.812,0.031,15,91.0
1646,D2,127.885,0.031,14,91.0
1647,G4,128.0,13/125,88,91.0
1648,C2,128.0,479/1000,83,91.0
1649,G3,128.0,479/1000,83,91.0
1650,B3,128.0,479/1000,83,91.0
1651,E4,128.0,479/1000,83,91.0
1652,B1,128.0,0.031,92,91.0
1653,F#2,128.0,0.031,92,91.0
1654,G4,128.25,27/200,78,91.0
1655,B4,128.5,0.188,94,91.0
1656,F#2,128.5,0.031,59,91.0
1657,G1,128.75,427/1000,97,91.0
1658,D4,128.75,427/1000,97,91.0
1659,G3,128.76,427/1000,69,91.0
1660,B3,128.76,427/1000,69,91.0
1661,D4,128.76,427/1000,69,91.0
1662,E-2,128.958,0.031,93,91.0
1663,F#2,128.958,0.031,93,91.0
1664,D2,128.958,0.031,93,91.0
1665,G4,129.25,13/125,78,91.0
1666,A1,129.5,69/125,127,91.0
1667,G4,129.5,13/125,78,91.0
1668,F#2,129.5,0.031,57,91.0
1669,A3,129.51,677/1000,71,91.0
1670,C4,129.51,677/1000,71,91.0
1671,E4,129.51,677/1000,71,91.0
1672,E4,129.75,27/200,77,91.0
1673,G4,130.0,23/200,87,91.0
1674,B1,130.0,0.031,93,91.0
1675,F#2,130.0,0.031,93,91.0
1676,G4,130.25,23/200,72,91.0
1677,A1,130.5,177/1000,127,91.0
1678,G4,130.5,151/500,88,91.0
1679,F#2,130.5,0.031,61,91.0
1680,A3,130.51,49/100,71,91.0
1681,C4,130.51,49/100,71,91.0
1682,E4,130.51,49/100,71,91.0
1683,A3,130.75,0.125,49,91.0
1684,C4,130.75,0.125,49,91.0
1685,E4,130.75,0.125,49,91.0
1686,E-2,130.958,0.031,93,91.0
1687,F#2,130.958,0.031,93,91.0
1688,D2,130.958,0.031,93,91.0
1689,A1,131.0,0.125,95,91.0
1690,A3,131.0,0.125,95,91.0
1691,C4,131.0,0.125,95,91.0
1692,E4,131.0,0.125,95,91.0
1693,B1,131.25,0.406,87,91.0
1694,B3,131.25,0.406,87,91.0
1695,D4,131.25,0.406,87,91.0
1696,F#4,131.25,0.406,87,91.0
1697,F#2,131.5,0.031,97,91.0
1698,C2,132.0,479/1000,83,91.0
1699,G3,132.0,479/1000,83,91.0
1700,B3,132.0,479/1000,83,91.0
1701,E4,132.0,479/1000,83,91.0
1702,B1,132.0,0.031,92,91.0
1703,F#2,132.0,0.031,92,91.0
1704,B4,132.25,167/1000,99,91.0
1705,F#2,132.5,0.031,59,91.0
1706,G4,132.75,23/200,72,91.0
1707,G1,132.75,427/1000,97,91.0
1708,D4,132.75,427/1000,97,91.0
1709,G3,132.76,427/1000,69,91.0
1710,B3,132.76,427/1000,69,91.0
1711,D4,132.76,427/1000,69,91.0
1712,E-2,132.958,0.031,93,91.0
1713,F#2,132.958,0.031,93,91.0
1714,D2,132.958,0.031,93,91.0
1715,G4,133.0,167/1000,77,91.0
1716,B4,133.25,177/1000,88,91.0
1717,A1,133.5,69/125,127,91.0
1718,F#2,133.5,0.031,57,91.0
1719,A3,133.51,677/1000,71,91.0
1720,C4,133.51,677/1000,71,91.0
1721,E4,133.51,677/1000,71,91.0
1722,G4,133.75,83/1000,88,91.0
1723,G4,134.0,0.125,83,91.0
1724,B1,134.0,0.031,93,91.0
1725,F#2,134.0,0.031,93,91.0
1726,A1,134.5,177/1000,127,91.0
1727,F#2,134.5,0.031,61,91.0
1728,B4,134.5,49/100,76,91.0
1729,A3,134.5,49/100,76,91.0
1730,C4,134.5,49/100,76,91.0
1731,E4,134.5,49/100,76,91.0
1732,A3,134.75,0.125,49,91.0
1733,C4,134.75,0.125,49,91.0
1734,E4,134.75,0.125,49,91.0
1735,E-2,134.958,0.031,93,91.0
1736,F#2,134.958,0.031,93,91.0
1737,D2,134.958,0.031,93,91.0
1738,A4,135.0,0.906,99,91.0
1739,A1,135.0,0.125,95,91.0
1740,A3,135.0,0.125,95,91.0
1741,C4,135.0,0.125,95,91.0
1742,E4,135.0,0.125,95,91.0
1743,B1,135.25,0.406,87,91.0
1744,B3,135.25,0.406,87,91.0
1745,D4,135.25,0.406,87,91.0
1746,F#4,135.25,0.406,87,91.0
1747,F#2,135.5,0.031,97,91.0
1748,D2,135.75,0.031,27,91.0
1749,D2,135.812,0.031,15,91.0
1750,D2,135.885,0.031,14,91.0
1751,G4,136.0,23/200,102,91.0
1752,C2,136.0,479/1000,83,91.0
1753,G3,136.0,479/1000,83,91.0
1754,B3,136.0,479/1000,83,91.0
1755,E4,136.0,479/1000,83,91.0
1756,B1,136.0,0.031,92,91.0
1757,F#2,136.0,0.031,92,91.0
1758,G4,136.25,83/1000,78,91.0
1759,G4,136.5,73/500,81,91.0
1760,F#2,136.5,0.031,59,91.0
1761,E4,136.75,0.156,85,91.0
1762,G1,136.75,427/1000,97,91.0
1763,D4,136.75,427/1000,97,91.0
1764,G3,136.76,427/1000,69,91.0
1765,B3,136.76,427/1000,69,91.0
1766,D4,136.76,427/1000,69,91.0
1767,E-2,136.958,0.031,93,91.0
1768,F#2,136.958,0.031,93,91.0
1769,D2,136.958,0.031,93,91.0
1770,G4,137.0,27/200,89,91.0
1771,E4,137.25,23/200,84,91.0
1772,A1,137.5,69/125,127,91.0
1773,G4,137.5,27/200,75,91.0
1774,F#2,137.5,0.031,57,91.0
1775,A3,137.51,677/1000,71,91.0
1776,C4,137.51,677/1000,71,91.0
1777,E4,137.51,677/1000,71,91.0
1778,E4,137.75,0.094,81,91.0
1779,G4,138.0,0.156,104,91.0
1780,B1,138.0,0.031,93,91.0
1781,F#2,138.0,0.031,93,91.0
1782,A1,138.5,177/1000,127,91.0
1783,B4,138.5,73/200,104,91.0
1784,F#2,138.5,0.031,61,91.0
1785,A3,138.51,49/100,71,91.0
1786,C4,138.51,49/100,71,91.0
1787,E4,138.51,49/100,71,91.0
1788,A3,138.75,0.125,49,91.0
1789,C4,138.75,0.125,49,91.0
1790,E4,138.75,0.125,49,91.0
1791,E-2,138.958,0.031,93,91.0
1792,F#2,138.958,0.031,93,91.0
1793,D2,138.958,0.031,93,91.0
1794,A1,139.0,0.125,95,91.0
1795,A3,139.0,0.125,95,91.0
1796,C4,139.0,0.125,95,91.0
1797,E4,139.0,0.125,95,91.0
1798,B1,139.25,0.406,87,91.0
1799,B3,139.25,0.406,87,91.0
1800,D4,139.25,0.406,87,91.0
1801,F#4,139.25,0.406,87,91.0
1802,D2,139.5,0.031,82,91.0
1803,F#2,139.5,0.031,82,91.0
1804,E4,139.75,167/1000,105,91.0
1805,G4,140.0,177/1000,110,91.0
1806,C2,140.0,479/1000,83,91.0
1807,G3,140.0,479/1000,83,91.0
1808,B3,140.0,479/1000,83,91.0
1809,E4,140.0,479/1000,83,91.0
1810,B1,140.0,0.031,92,91.0
1811,F#2,140.0,0.031,92,91.0
1812,E4,140.25,13/125,83,91.0
1813,E4,140.5,0.031,68,91.0
1814,F#2,140.5,0.031,68,91.0
1815,G1,140.75,427/1000,97,91.0
1816,D4,140.75,427/1000,97,91.0
1817,G4,140.75,177/500,84,91.0
1818,B3,140.75,177/500,84,91.0
1819,G3,140.76,427/1000,69,91.0
1820,B3,140.76,427/1000,69,91.0
1821,D4,140.76,427/1000,69,91.0
1822,E-2,140.958,0.031,93,91.0
1823,F#2,140.958,0.031,93,91.0
1824,D2,140.958,0.031,93,91.0
1825,E4,141.25,0.031,84,91.0
1826,E4,141.375,0.031,81,91.0
1827,A1,141.5,69/125,127,91.0
1828,G4,141.5,0.031,74,91.0
1829,F#2,141.5,0.031,74,91.0
1830,A3,141.51,677/1000,71,91.0
1831,C4,141.51,677/1000,71,91.0
1832,E4,141.51,677/1000,71,91.0
1833,E4,141.75,0.062,90,91.0
1834,G4,142.0,177/1000,93,91.0
1835,B1,142.0,0.031,93,91.0
1836,F#2,142.0,0.031,93,91.0
1837,E4,142.25,0.062,83,91.0
1838,A1,142.5,177/1000,127,91.0
1839,B4,142.5,271/1000,106,91.0
1840,F#2,142.5,0.031,61,91.0
1841,A3,142.51,49/100,71,91.0
1842,C4,142.51,49/100,71,91.0
1843,E4,142.51,49/100,71,91.0
1844,A3,142.75,0.125,49,91.0
1845,C4,142.75,0.125,49,91.0
1846,E4,142.75,0.125,49,91.0
1847,E-2,142.958,0.031,93,91.0
1848,F#2,142.958,0.031,93,91.0
1849,D2,142.958,0.031,93,91.0
1850,A1,143.0,0.125,95,91.0
1851,A3,143.0,0.125,95,91.0
1852,C4,143.0,0.125,95,91.0
1853,E4,143.0,0.125,95,91.0
1854,A4,143.25,13/250,90,91.0
1855,B1,143.25,0.406,87,91.0
1856,B3,143.25,0.406,87,91.0
1857,D4,143.25,0.406,87,91.0
1858,F#4,143.25,0.406,87,91.0
1859,A4,143.5,0.031,92,91.0
1860,F#2,143.5,0.031,92,91.0
1861,B4,143.75,0.25,102,91.0
1862,D2,143.75,0.031,27,91.0
1863,D2,143.812,0.031,15,91.0
1864,D2,143.885,0.031,14,91.0
1865,B4,144.0,0.25,102,91.0
1866,C2,144.0,479/1000,83,91.0
1867,G3,144.0,479/1000,83,91.0
1868,B3,144.0,479/1000,83,91.0
1869,E4,144.0,479/1000,83,91.0
1870,B1,144.0,0.031,92,91.0
1871,F#2,144.0,0.031,92,91.0
1872,G4,144.25,73/1000,87,91.0
1873,B4,144.5,0.031,75,91.0
1874,F#2,144.5,0.031,75,91.0
1875,G1,144.75,427/1000,93,91.0
1876,B4,144.75,427/1000,93,91.0
1877,D4,144.75,427/1000,93,91.0
1878,G3,144.76,427/1000,69,91.0
1879,B3,144.76,427/1000,69,91.0
1880,D4,144.76,427/1000,69,91.0
1881,E-2,144.958,0.031,93,91.0
1882,F#2,144.958,0.031,93,91.0
1883,D2,144.958,0.031,93,91.0
1884,G4,145.25,83/1000,83,91.0
1885,A1,145.5,69/125,127,91.0
1886,G4,145.5,0.188,82,91.0
1887,F#2,145.5,0.031,57,91.0
1888,A3,145.51,677/1000,71,91.0
1889,C4,145.51,677/1000,71,91.0
1890,E4,145.51,677/1000,71,91.0
1891,E4,145.75,83/1000,86,91.0
1892,G4,146.0,0.031,90,91.0
1893,B1,146.0,0.031,90,91.0
1894,F#2,146.0,0.031,90,91.0
1895,G4,146.25,73/1000,78,91.0
1896,A1,146.5,177/1000,127,91.0
1897,B4,146.5,0.375,102,91.0
1898,F#2,146.5,0.031,61,91.0
1899,A3,146.51,49/100,71,91.0
1900,C4,146.51,49/100,71,91.0
1901,E4,146.51,49/100,71,91.0
1902,A3,146.75,0.125,49,91.0
1903,C4,146.75,0.125,49,91.0
1904,E4,146.75,0.125,49,91.0
1905,E-2,146.958,0.031,93,91.0
1906,F#2,146.958,0.031,93,91.0
1907,D2,146.958,0.031,93,91.0
1908,A1,147.0,0.125,95,91.0
1909,A3,147.0,0.125,95,91.0
1910,C4,147.0,0.125,95,91.0
1911,E4,147.0,0.125,95,91.0
1912,B1,147.25,0.406,87,91.0
1913,B3,147.25,0.406,87,91.0
1914,D4,147.25,0.406,87,91.0
1915,F#4,147.25,0.406,87,91.0
1916,G4,147.5,0.031,104,91.0
1917,F#2,147.5,0.031,104,91.0
1918,E4,147.75,23/200,105,91.0
1919,C2,148.0,479/1000,83,91.0
1920,G3,148.0,479/1000,83,91.0
1921,B3,148.0,479/1000,83,91.0
1922,E4,148.0,479/1000,83,91.0
1923,G4,148.0,0.031,96,91.0
1924,B1,148.0,0.031,96,91.0
1925,F#2,148.0,0.031,96,91.0
1926,G4,148.25,0.062,87,91.0
1927,E4,148.5,0.031,74,91.0
1928,F#2,148.5,0.031,74,91.0
1929,G1,148.75,427/1000,97,91.0
1930,D4,148.75,427/1000,97,91.0
1931,G4,148.75,177/500,86,91.0
1932,B3,148.75,177/500,86,91.0
1933,G3,148.76,427/1000,69,91.0
1934,B3,148.76,427/1000,69,91.0
1935,D4,148.76,427/1000,69,91.0
1936,E-2,148.958,0.031,93,91.0
1937,F#2,148.958,0.031,93,91.0
1938,D2,148.958,0.031,93,91.0
1939,E4,149.25,0.062,91,91.0
1940,A1,149.5,69/125,127,91.0
1941,G4,149.5,0.031,84,91.0
1942,F#2,149.5,0.031,84,91.0
1943,A3,149.51,677/1000,71,91.0
1944,C4,149.51,677/1000,71,91.0
1945,E4,149.51,677/1000,71,91.0
1946,G4,149.625,73/1000,97,91.0
1947,E4,149.75,73/1000,90,91.0
1948,G4,150.0,0.031,97,91.0
1949,B1,150.0,0.031,97,91.0
1950,F#2,150.0,0.031,97,91.0
1951,E4,150.25,13/250,81,91.0
1952,A1,150.5,177/1000,127,91.0
1953,A4,150.5,77/200,112,91.0
1954,F#2,150.5,0.031,61,91.0
1955,A3,150.51,49/100,71,91.0
1956,C4,150.51,49/100,71,91.0
1957,E4,150.51,49/100,71,91.0
1958,A3,150.75,0.125,49,91.0
1959,C4,150.75,0.125,49,91.0
1960,E4,150.75,0.125,49,91.0
1961,E-2,150.958,0.031,93,91.0
1962,F#2,150.958,0.031,93,91.0
1963,D2,150.958,0.031,93,91.0
1964,A1,151.0,0.125,95,91.0
1965,A3,151.0,0.125,95,91.0
1966,C4,151.0,0.125,95,91.0
1967,E4,151.0,0.125,95,91.0
1968,B1,151.25,0.406,87,91.0
1969,B3,151.25,0.406,87,91.0
1970,D4,151.25,0.406,87,91.0
1971,F#4,151.25,0.406,87,91.0
1972,A4,151.5,0.031,98,91.0
1973,F#2,151.5,0.031,98,91.0
1974,G4,151.75,0.031,60,91.0
1975,D2,151.75,0.031,60,91.0
1976,D2,151.812,0.031,15,91.0
1977,D2,151.885,0.031,14,91.0
1978,A4,152.0,0.188,98,91.0
1979,C2,152.0,479/1000,83,91.0
1980,G3,152.0,479/1000,83,91.0
1981,B3,152.0,479/1000,83,91.0
1982,E4,152.0,479/1000,83,91.0
1983,B1,152.0,0.031,92,91.0
1984,F#2,152.0,0.031,92,91.0
1985,G4,152.25,0.062,72,91.0
1986,A4,152.5,0.031,76,91.0
1987,F#2,152.5,0.031,76,91.0
1988,G4,152.75,73/1000,87,91.0
1989,G1,152.75,427/1000,97,91.0
1990,D4,152.75,427/1000,97,91.0
1991,G3,152.76,427/1000,69,91.0
1992,B3,152.76,427/1000,69,91.0
1993,D4,152.76,427/1000,69,91.0
1994,E-2,152.958,0.031,93,91.0
1995,F#2,152.958,0.031,93,91.0
1996,D2,152.958,0.031,93,91.0
1997,A4,153.0,73/500,102,91.0
1998,G4,153.25,73/1000,70,91.0
1999,A1,153.5,69/125,127,91.0
2000,A4,153.5,0.031,73,91.0
2001,F#2,153.5,0.031,73,91.0
2002,A3,153.51,677/1000,71,91.0
2003,C4,153.51,677/1000,71,91.0
2004,E4,153.51,677/1000,71,91.0
2005,G4,153.75,0.062,90,91.0
2006,B4,154.0,177/1000,97,91.0
2007,B1,154.0,0.031,93,91.0
2008,F#2,154.0,0.031,93,91.0
2009,A1,154.5,177/1000,127,91.0
2010,F#2,154.5,0.031,61,91.0
2011,G4,154.5,49/100,78,91.0
2012,A3,154.5,49/100,78,91.0
2013,C4,154.5,49/100,78,91.0
2014,E4,154.5,49/100,78,91.0
2015,A3,154.75,0.125,49,91.0
2016,C4,154.75,0.125,49,91.0
2017,E4,154.75,0.125,49,91.0
2018,E-2,154.958,0.031,93,91.0
2019,F#2,154.958,0.031,93,91.0
2020,D2,154.958,0.031,93,91.0
2021,A1,155.0,0.125,95,91.0
2022,A3,155.0,0.125,95,91.0
2023,C4,155.0,0.125,95,91.0
2024,E4,155.0,0.125,95,91.0
2025,B1,155.25,0.406,87,91.0
2026,B3,155.25,0.406,87,91.0
2027,D4,155.25,0.406,87,91.0
2028,F#4,155.25,0.406,87,91.0
2029,A4,155.5,0.031,87,91.0
2030,D2,155.5,0.031,87,91.0
2031,F#2,155.5,0.031,87,91.0
2032,A4,155.75,23/200,105,91.0
2033,B4,156.0,0.219,96,91.0
2034,C2,156.0,479/1000,83,91.0
2035,G3,156.0,479/1000,83,91.0
2036,B3,156.0,479/1000,83,91.0
2037,E4,156.0,479/1000,83,91.0
2038,B1,156.0,0.031,92,91.0
2039,F#2,156.0,0.031,92,91.0
2040,G4,156.25,0.125,92,91.0
2041,B4,156.5,13/125,95,91.0
2042,F#2,156.5,0.031,59,91.0
2043,G1,156.75,427/1000,97,91.0
2044,B4,156.75,427/1000,97,91.0
2045,D4,156.75,427/1000,97,91.0
2046,G3,156.76,427/1000,69,91.0
2047,B3,156.76,427/1000,69,91.0
2048,D4,156.76,427/1000,69,91.0
2049,E-2,156.958,0.031,93,91.0
2050,F#2,156.958,0.031,93,91.0
2051,D2,156.958,0.031,93,91.0
2052,G4,157.25,0.094,80,91.0
2053,A1,157.5,69/125,127,91.0
2054,G4,157.5,27/200,84,91.0
2055,F#2,157.5,0.031,57,91.0
2056,A3,157.51,677/1000,71,91.0
2057,C4,157.51,677/1000,71,91.0
2058,E4,157.51,677/1000,71,91.0
2059,E4,157.75,27/200,84,91.0
2060,G4,158.0,0.125,112,91.0
2061,B1,158.0,0.031,93,91.0
2062,F#2,158.0,0.031,93,91.0
2063,A1,158.5,177/1000,127,91.0
2064,E4,158.5,323/1000,102,91.0
2065,F#2,158.5,0.031,61,91.0
2066,A3,158.51,49/100,71,91.0
2067,C4,158.51,49/100,71,91.0
2068,E4,158.51,49/100,71,91.0
2069,A3,158.75,0.125,49,91.0
2070,C4,158.75,0.125,49,91.0
2071,E4,158.75,0.125,49,91.0
2072,E-2,158.958,0.031,93,91.0
2073,F#2,158.958,0.031,93,91.0
2074,D2,158.958,0.031,93,91.0
2075,A1,159.0,0.125,95,91.0
2076,A3,159.0,0.125,95,91.0
2077,C4,159.0,0.125,95,91.0
2078,E4,159.0,0.125,95,91.0
2079,B1,159.25,0.406,87,91.0
2080,B3,159.25,0.406,87,91.0
2081,D4,159.25,0.406,87,91.0
2082,F#4,159.25,0.406,87,91.0
2083,G4,159.5,0.125,112,91.0
2084,F#2,159.5,0.031,97,91.0
2085,E4,159.75,23/200,86,91.0
2086,D2,159.75,0.031,27,91.0
2087,D2,159.812,0.031,15,91.0
2088,D2,159.885,0.031,14,91.0
2089,G4,160.0,73/500,112,91.0
2090,C2,160.0,479/1000,83,91.0
2091,G3,160.0,479/1000,83,91.0
2092,B3,160.0,479/1000,83,91.0
2093,E4,160.0,479/1000,83,91.0
2094,B1,160.0,0.031,92,91.0
2095,F#2,160.0,0.031,92,91.0
2096,G4,160.5,0.156,112,91.0
2097,F#2,160.5,0.031,59,91.0
2098,G1,160.75,427/1000,97,91.0
2099,D4,160.75,427/1000,97,91.0
2100,G3,160.76,427/1000,69,91.0
2101,B3,160.76,427/1000,69,91.0
2102,D4,160.76,427/1000,69,91.0
2103,E-2,160.958,0.031,93,91.0
2104,F#2,160.958,0.031,93,91.0
2105,D2,160.958,0.031,93,91.0
2106,B4,161.0,99/500,100,91.0
2107,E4,161.25,23/200,84,91.0
2108,A1,161.5,69/125,127,91.0
2109,E4,161.5,73/500,80,91.0
2110,F#2,161.5,0.031,57,91.0
2111,A3,161.51,677/1000,71,91.0
2112,C4,161.51,677/1000,71,91.0
2113,E4,161.51,677/1000,71,91.0
2114,E4,161.75,0.125,81,91.0
2115,E4,162.0,99/500,84,91.0
2116,B1,162.0,0.031,93,91.0
2117,F#2,162.0,0.031,93,91.0
2118,A1,162.5,177/1000,127,91.0
2119,F#2,162.5,0.031,61,91.0
2120,E4,162.5,49/100,81,91.0
2121,A3,162.5,49/100,81,91.0
2122,C4,162.5,49/100,81,91.0
2123,E4,162.5,49/100,81,91.0
2124,A3,162.75,0.125,49,91.0
2125,C4,162.75,0.125,49,91.0
2126,E4,162.75,0.125,49,91.0
2127,E-2,162.958,0.031,93,91.0
2128,F#2,162.958,0.031,93,91.0
2129,D2,162.958,0.031,93,91.0
2130,A1,163.0,0.125,95,91.0
2131,A3,163.0,0.125,95,91.0
2132,C4,163.0,0.125,95,91.0
2133,E4,163.0,0.125,95,91.0
2134,G4,163.25,0.094,112,91.0
2135,B1,163.25,0.406,87,91.0
2136,B3,163.25,0.406,87,91.0
2137,D4,163.25,0.406,87,91.0
2138,F#4,163.25,0.406,87,91.0
2139,G4,163.5,13/125,87,91.0
2140,F#2,163.5,0.031,97,91.0
2141,E4,163.75,27/200,96,91.0
2142,C2,164.0,479/1000,83,91.0
2143,G3,164.0,479/1000,83,91.0
2144,B3,164.0,479/1000,83,91.0
2145,E4,164.0,479/1000,83,91.0
2146,G4,164.0,0.031,95,91.0
2147,B1,164.0,0.031,95,91.0
2148,F#2,164.0,0.031,95,91.0
2149,G4,164.25,83/1000,94,91.0
2150,G4,164.5,0.031,80,91.0
2151,F#2,164.5,0.031,80,91.0
2152,E4,164.75,0.062,100,91.0
2153,G1,164.75,427/1000,97,91.0
2154,D4,164.75,427/1000,97,91.0
2155,G3,164.76,427/1000,69,91.0
2156,B3,164.76,427/1000,69,91.0
2157,D4,164.76,427/1000,69,91.0
2158,E4,164.875,83/1000,85,91.0
2159,E-2,164.958,0.031,93,91.0
2160,F#2,164.958,0.031,93,91.0
2161,D2,164.958,0.031,93,91.0
2162,G4,165.0,0.156,93,91.0
2163,A1,165.5,69/125,127,91.0
2164,E4,165.5,26/125,107,91.0
2165,F#2,165.5,0.031,57,91.0
2166,A3,165.51,677/1000,71,91.0
2167,C4,165.51,677/1000,71,91.0
2168,E4,165.51,677/1000,71,91.0
2169,G4,166.0,0.156,110,91.0
2170,B1,166.0,0.031,93,91.0
2171,F#2,166.0,0.031,93,91.0
2172,A1,166.5,177/1000,127,91.0
2173,F#2,166.5,0.031,61,91.0
2174,B4,166.5,49/100,79,91.0
2175,A3,166.5,49/100,79,91.0
2176,C4,166.5,49/100,79,91.0
2177,E4,166.5,49/100,79,91.0
2178,A3,166.75,0.125,49,91.0
2179,C4,166.75,0.125,49,91.0
2180,E4,166.75,0.125,49,91.0
2181,E-2,166.958,0.031,93,91.0
2182,F#2,166.958,0.031,93,91.0
2183,D2,166.958,0.031,93,91.0
2184,A1,167.0,0.125,95,91.0
2185,A3,167.0,0.125,95,91.0
2186,C4,167.0,0.125,95,91.0
2187,E4,167.0,0.125,95,91.0
2188,B1,167.25,0.406,87,91.0
2189,B3,167.25,0.406,87,91.0
2190,D4,167.25,0.406,87,91.0
2191,F#4,167.25,0.406,87,91.0
2192,G4,167.5,0.031,105,91.0
2193,F#2,167.5,0.031,105,91.0
2194,G4,167.75,23/200,108,91.0
2195,D2,167.75,0.031,27,91.0
2196,D2,167.812,0.031,15,91.0
2197,D2,167.885,0.031,14,91.0
2198,G4,168.0,23/200,105,91.0
2199,C2,168.0,479/1000,83,91.0
2200,G3,168.0,479/1000,83,91.0
2201,B3,168.0,479/1000,83,91.0
2202,E4,168.0,479/1000,83,91.0
2203,B1,168.0,0.031,92,91.0
2204,F#2,168.0,0.031,92,91.0
2205,G4,168.25,23/200,89,91.0
2206,G4,168.5,13/125,84,91.0
2207,F#2,168.5,0.031,59,91.0
2208,G4,168.75,0.062,85,91.0
2209,G1,168.75,427/1000,97,91.0
2210,D4,168.75,427/1000,97,91.0
2211,G3,168.76,427/1000,69,91.0
2212,B3,168.76,427/1000,69,91.0
2213,D4,168.76,427/1000,69,91.0
2214,E-2,168.958,0.031,93,91.0
2215,F#2,168.958,0.031,93,91.0
2216,D2,168.958,0.031,93,91.0
2217,G4,169.0,167/1000,92,91.0
2218,E4,169.25,27/200,84,91.0
2219,A1,169.5,69/125,127,91.0
2220,G4,169.5,0.031,78,91.0
2221,F#2,169.5,0.031,78,91.0
2222,A3,169.51,677/1000,71,91.0
2223,C4,169.51,677/1000,71,91.0
2224,E4,169.51,677/1000,71,91.0
2225,G4,169.75,13/125,79,91.0
2226,A4,170.0,0.156,101,91.0
2227,B1,170.0,0.031,93,91.0
2228,F#2,170.0,0.031,93,91.0
2229,E4,170.25,27/200,89,91.0
2230,A1,170.5,177/1000,127,91.0
2231,E4,170.5,0.312,87,91.0
2232,F#2,170.5,0.031,61,91.0
2233,A3,170.51,49/100,71,91.0
2234,C4,170.51,49/100,71,91.0
2235,E4,170.51,49/100,71,91.0
2236,A3,170.75,0.125,49,91.0
2237,C4,170.75,0.125,49,91.0
2238,E4,170.75,0.125,49,91.0
2239,E-2,170.958,0.031,93,91.0
2240,F#2,170.958,0.031,93,91.0
2241,D2,170.958,0.031,93,91.0
2242,A1,171.0,0.125,95,91.0
2243,A3,171.0,0.125,95,91.0
2244,C4,171.0,0.125,95,91.0
2245,E4,171.0,0.125,95,91.0
2246,B1,171.25,0.406,87,91.0
2247,B3,171.25,0.406,87,91.0
2248,D4,171.25,0.406,87,91.0
2249,F#4,171.25,0.406,87,91.0
2250,A4,171.5,0.031,87,91.0
2251,D2,171.5,0.031,87,91.0
2252,F#2,171.5,0.031,87,91.0
2253,A4,171.75,23/200,82,91.0
2254,B4,172.0,177/1000,106,91.0
2255,C2,172.0,479/1000,83,91.0
2256,G3,172.0,479/1000,83,91.0
2257,B3,172.0,479/1000,83,91.0
2258,E4,172.0,479/1000,83,91.0
2259,B1,172.0,0.031,92,91.0
2260,F#2,172.0,0.031,92,91.0
2261,B4,172.5,6/25,115,91.0
2262,F#2,172.5,0.031,59,91.0
2263,G1,172.75,427/1000,97,91.0
2264,D4,172.75,427/1000,97,91.0
2265,G3,172.76,427/1000,69,91.0
2266,B3,172.76,427/1000,69,91.0
2267,D4,172.76,427/1000,69,91.0
2268,E-2,172.958,0.031,93,91.0
2269,F#2,172.958,0.031,93,91.0
2270,D2,172.958,0.031,93,91.0
2271,E4,173.25,0.125,85,91.0
2272,A1,173.5,69/125,127,91.0
2273,G4,173.5,0.031,80,91.0
2274,F#2,173.5,0.031,80,91.0
2275,A3,173.51,677/1000,71,91.0
2276,C4,173.51,677/1000,71,91.0
2277,E4,173.51,677/1000,71,91.0
2278,G4,173.75,13/125,89,91.0
2279,G4,174.0,23/200,92,91.0
2280,B1,174.0,0.031,93,91.0
2281,F#2,174.0,0.031,93,91.0
2282,G4,174.25,13/125,89,91.0
2283,F#2,174.5,0.031,61,91.0
2284,A1,174.5,73/500,109,91.0
2285,G4,174.5,73/500,109,91.0
2286,A3,174.51,49/100,71,91.0
2287,C4,174.51,49/100,71,91.0
2288,E4,174.51,49/100,71,91.0
2289,A3,174.75,0.125,49,91.0
2290,C4,174.75,0.125,49,91.0
2291,E4,174.75,0.125,49,91.0
2292,E-2,174.958,0.031,93,91.0
2293,F#2,174.958,0.031,93,91.0
2294,D2,174.958,0.031,93,91.0
2295,G4,175.0,56/125,101,91.0
2296,A1,175.0,0.125,95,91.0
2297,A3,175.0,0.125,95,91.0
2298,C4,175.0,0.125,95,91.0
2299,E4,175.0,0.125,95,91.0
2300,B1,175.25,0.406,87,91.0
2301,B3,175.25,0.406,87,91.0
2302,D4,175.25,0.406,87,91.0
2303,F#4,175.25,0.406,87,91.0
2304,E4,175.5,73/250,97,91.0
2305,F#2,175.5,0.031,97,91.0
2306,D2,175.75,0.031,27,91.0
2307,D2,175.812,0.031,15,91.0
2308,D2,175.885,0.031,14,91.0
2309,C2,176.0,479/1000,83,91.0
2310,G3,176.0,479/1000,83,91.0
2311,B3,176.0,479/1000,83,91.0
2312,E4,176.0,479/1000,83,91.0
2313,B1,176.0,0.031,92,91.0
2314,F#2,176.0,0.031,92,91.0
2315,G4,176.25,0.062,101,91.0
2316,E4,176.5,0.031,64,91.0
2317,F#2,176.5,0.031,64,91.0
2318,G1,176.75,427/1000,96,91.0
2319,G4,176.75,427/1000,96,91.0
2320,D4,176.75,427/1000,96,91.0
2321,G3,176.76,427/1000,69,91.0
2322,B3,176.76,427/1000,69,91.0
2323,D4,176.76,427/1000,69,91.0
2324,E-2,176.958,0.031,93,91.0
2325,F#2,176.958,0.031,93,91.0
2326,D2,176.958,0.031,93,91.0
2327,E4,177.25,73/500,80,91.0
2328,A1,177.5,69/125,127,91.0
2329,G4,177.5,0.031,81,91.0
2330,F#2,177.5,0.031,81,91.0
2331,A3,177.51,677/1000,71,91.0
2332,C4,177.51,677/1000,71,91.0
2333,E4,177.51,677/1000,71,91.0
2334,E4,177.75,13/250,94,91.0
2335,E4,177.875,83/1000,85,91.0
2336,G4,178.0,13/125,115,91.0
2337,B1,178.0,0.031,93,91.0
2338,F#2,178.0,0.031,93,91.0
2339,A1,178.5,177/1000,127,91.0
2340,G4,178.5,0.031,78,91.0
2341,F#2,178.5,0.031,78,91.0
2342,A3,178.51,49/100,71,91.0
2343,C4,178.51,49/100,71,91.0
2344,E4,178.51,49/100,71,91.0
2345,B4,178.75,479/1000,91,91.0
2346,A3,178.75,0.125,49,91.0
2347,C4,178.75,0.125,49,91.0
2348,E4,178.75,0.125,49,91.0
2349,E-2,178.958,0.031,93,91.0
2350,F#2,178.958,0.031,93,91.0
2351,D2,178.958,0.031,93,91.0
2352,A1,179.0,0.125,95,91.0
2353,A3,179.0,0.125,95,91.0
2354,C4,179.0,0.125,95,91.0
2355,E4,179.0,0.125,95,91.0
2356,E4,179.25,0.094,84,91.0
2357,B1,179.25,0.406,87,91.0
2358,B3,179.25,0.406,87,91.0
2359,D4,179.25,0.406,87,91.0
2360,F#4,179.25,0.406,87,91.0
2361,E4,179.5,73/200,106,91.0
2362,F#2,179.5,0.031,97,91.0
2363,G4,180.0,23/200,104,91.0
2364,C2,180.0,479/1000,83,91.0
2365,G3,180.0,479/1000,83,91.0
2366,B3,180.0,479/1000,83,91.0
2367,E4,180.0,479/1000,83,91.0
2368,B1,180.0,0.031,92,91.0
2369,F#2,180.0,0.031,92,91.0
2370,B4,180.25,0.156,103,91.0
2371,F#2,180.5,0.031,59,91.0
2372,E4,180.75,23/200,79,91.0
2373,G1,180.75,427/1000,97,91.0
2374,D4,180.75,427/1000,97,91.0
2375,G3,180.76,427/1000,69,91.0
2376,B3,180.76,427/1000,69,91.0
2377,D4,180.76,427/1000,69,91.0
2378,E-2,180.958,0.031,93,91.0
2379,F#2,180.958,0.031,93,91.0
2380,D2,180.958,0.031,93,91.0
2381,G4,181.0,0.031,110,91.0
2382,D2,181.0,0.031,110,91.0
2383,G4,181.25,23/200,86,91.0
2384,A1,181.5,69/125,127,91.0
2385,G4,181.5,0.125,76,91.0
2386,F#2,181.5,0.031,57,91.0
2387,A3,181.51,677/1000,71,91.0
2388,C4,181.51,677/1000,71,91.0
2389,E4,181.51,677/1000,71,91.0
2390,G4,181.75,27/200,72,91.0
2391,G4,182.0,99/500,85,91.0
2392,B1,182.0,0.031,93,91.0
2393,F#2,182.0,0.031,93,91.0
2394,F#2,182.5,0.031,61,91.0
2395,A1,182.5,6/25,116,91.0
2396,B4,182.5,6/25,116,91.0
2397,A3,182.51,49/100,71,91.0
2398,C4,182.51,49/100,71,91.0
2399,E4,182.51,49/100,71,91.0
2400,A3,182.75,0.125,49,91.0
2401,C4,182.75,0.125,49,91.0
2402,E4,182.75,0.125,49,91.0
2403,E-2,182.958,0.031,93,91.0
2404,F#2,182.958,0.031,93,91.0
2405,D2,182.958,0.031,93,91.0
2406,A1,183.0,0.125,95,91.0
2407,A3,183.0,0.125,95,91.0
2408,C4,183.0,0.125,95,91.0
2409,E4,183.0,0.125,95,91.0
2410,G4,183.25,83/1000,104,91.0
2411,B1,183.25,0.406,87,91.0
2412,B3,183.25,0.406,87,91.0
2413,D4,183.25,0.406,87,91.0
2414,F#4,183.25,0.406,87,91.0
2415,G4,183.5,27/200,84,91.0
2416,F#2,183.5,0.031,97,91.0
2417,E4,183.75,23/200,87,91.0
2418,D2,183.75,0.031,27,91.0
2419,D2,183.812,0.031,15,91.0
2420,D2,183.885,0.031,14,91.0
2421,G4,184.0,0.125,108,91.0
2422,C2,184.0,479/1000,83,91.0
2423,G3,184.0,479/1000,83,91.0
2424,B3,184.0,479/1000,83,91.0
2425,E4,184.0,479/1000,83,91.0
2426,B1,184.0,0.031,92,91.0
2427,F#2,184.0,0.031,92,91.0
2428,E4,184.25,13/125,86,91.0
2429,B4,184.5,23/200,100,91.0
2430,F#2,184.5,0.031,59,91.0
2431,G4,184.75,23/200,104,91.0
2432,G1,184.75,427/1000,97,91.0
2433,D4,184.75,427/1000,97,91.0
2434,G3,184.76,427/1000,69,91.0
2435,B3,184.76,427/1000,69,91.0
2436,D4,184.76,427/1000,69,91.0
2437,E-2,184.958,0.031,93,91.0
2438,F#2,184.958,0.031,93,91.0
2439,D2,184.958,0.031,93,91.0
2440,G4,185.0,73/500,89,91.0
2441,E4,185.25,0.125,91,91.0
2442,A1,185.5,69/125,127,91.0
2443,G4,185.5,0.125,107,91.0
2444,F#2,185.5,0.031,57,91.0
2445,A3,185.51,677/1000,71,91.0
2446,C4,185.51,677/1000,71,91.0
2447,E4,185.51,677/1000,71,91.0
2448,E4,185.75,23/200,88,91.0
2449,G4,186.0,0.156,110,91.0
2450,B1,186.0,0.031,93,91.0
2451,F#2,186.0,0.031,93,91.0
2452,A1,186.5,177/1000,127,91.0
2453,B4,186.5,0.375,105,91.0
2454,F#2,186.5,0.031,61,91.0
2455,A3,186.51,49/100,71,91.0
2456,C4,186.51,49/100,71,91.0
2457,E4,186.51,49/100,71,91.0
2458,A3,186.75,0.125,49,91.0
2459,C4,186.75,0.125,49,91.0
2460,E4,186.75,0.125,49,91.0
2461,E-2,186.958,0.031,93,91.0
2462,F#2,186.958,0.031,93,91.0
2463,D2,186.958,0.031,93,91.0
2464,A1,187.0,0.125,95,91.0
2465,A3,187.0,0.125,95,91.0
2466,C4,187.0,0.125,95,91.0
2467,E4,187.0,0.125,95,91.0
2468,G4,187.25,13/125,105,91.0
2469,B1,187.25,0.406,87,91.0
2470,B3,187.25,0.406,87,91.0
2471,D4,187.25,0.406,87,91.0
2472,F#4,187.25,0.406,87,91.0
2473,G4,187.5,0.188,99,91.0
2474,D2,187.5,0.031,82,91.0
2475,F#2,187.5,0.031,82,91.0
2476,C2,188.0,479/1000,83,91.0
2477,G3,188.0,479/1000,83,91.0
2478,B3,188.0,479/1000,83,91.0
2479,E4,188.0,479/1000,83,91.0
2480,E4,188.0,0.906,80,91.0
2481,A4,188.0,0.906,80,91.0
2482,E5,188.0,0.906,80,91.0
2483,A5,188.0,0.906,80,91.0
2484,B1,188.0,0.031,92,91.0
2485,F#2,188.0,0.031,92,91.0
2486,F#2,188.5,0.031,59,91.0
2487,G1,188.75,427/1000,97,91.0
2488,D4,188.75,427/1000,97,91.0
2489,G3,188.76,427/1000,69,91.0
2490,B3,188.76,427/1000,69,91.0
2491,D4,188.76,427/1000,69,91.0
2492,E-2,188.958,0.031,93,91.0
2493,F#2,188.958,0.031,93,91.0
2494,D2,188.958,0.031,93,91.0
2495,D4,189.0,3.0,51,91.0
2496,D5,189.0,3.0,51,91.0
2497,G4,189.0,3.0,107,91.0
2498,G5,189.0,3.0,107,91.0
2499,A1,189.5,69/125,127,91.0
2500,F#2,189.5,0.031,57,91.0
2501,A3,189.51,677/1000,71,91.0
2502,C4,189.51,677/1000,71,91.0
2503,E4,189.51,677/1000,71,91.0
2504,B1,190.0,0.031,93,91.0
2505,F#2,190.0,0.031,93,91.0
2506,A1,190.5,177/1000,127,91.0
2507,F#2,190.5,0.031,61,91.0
2508,A3,190.51,49/100,71,91.0
2509,C4,190.51,49/100,71,91.0
2510,E4,190.51,49/100,71,91.0
2511,A3,190.75,0.125,49,91.0
2512,C4,190.75,0.125,49,91.0
2513,E4,190.75,0.125,49,91.0
2514,E-2,190.958,0.031,93,91.0
2515,F#2,190.958,0.031,93,91.0
2516,D2,190.958,0.031,93,91.0
2517,A1,191.0,0.125,95,91.0
2518,A3,191.0,0.125,95,91.0
2519,C4,191.0,0.125,95,91.0
2520,E4,191.0,0.125,95,91.0
2521,B1,191.25,0.406,87,91.0
2522,B3,191.25,0.406,87,91.0
2523,D4,191.25,0.406,87,91.0
2524,F#4,191.25,0.406,87,91.0
2525,F#2,191.5,0.031,97,91.0
2526,D2,191.75,0.031,27,91.0
2527,D2,191.812,0.031,15,91.0
2528,D2,191.885,0.031,14,91.0
2529,C2,192.0,479/1000,83,91.0
2530,G3,192.0,479/1000,83,91.0
2531,B3,192.0,479/1000,83,91.0
2532,E4,192.0,479/1000,83,91.0
2533,B1,192.0,0.031,92,91.0
2534,F#2,192.0,0.031,92,91.0
2535,D4,192.0,112/125,51,91.0
2536,D5,192.0,112/125,51,91.0
2537,G4,192.0,99/100,107,91.0
2538,G5,192.0,99/100,107,91.0
2539,F#2,192.5,0.031,59,91.0
2540,G1,192.75,427/1000,97,91.0
2541,D4,192.75,427/1000,97,91.0
2542,G3,192.76,427/1000,69,91.0
2543,B3,192.76,427/1000,69,91.0
2544,D4,192.76,427/1000,69,91.0
2545,E-2,192.958,0.031,93,91.0
2546,F#2,192.958,0.031,93,91.0
2547,D2,192.958,0.031,93,91.0
2548,A1,193.5,69/125,127,91.0
2549,F#2,193.5,0.031,57,91.0
2550,E4,193.5,99/250,99,91.0
2551,E5,193.5,99/250,99,91.0
2552,A3,193.51,677/1000,71,91.0
2553,C4,193.51,677/1000,71,91.0
2554,E4,193.51,677/1000,71,91.0
2555,G4,194.0,333/1000,87,91.0
2556,G5,194.0,333/1000,87,91.0
2557,B1,194.0,0.031,93,91.0
2558,F#2,194.0,0.031,93,91.0
2559,A1,194.5,177/1000,127,91.0
2560,F#2,194.5,0.031,61,91.0
2561,A3,194.51,49/100,71,91.0
2562,C4,194.51,49/100,71,91.0
2563,E4,194.51,49/100,71,91.0
2564,E4,194.75,177/500,105,91.0
2565,E5,194.75,177/500,105,91.0
2566,A3,194.75,0.125,49,91.0
2567,C4,194.75,0.125,49,91.0
2568,E4,194.75,0.125,49,91.0
2569,E-2,194.958,0.031,93,91.0
2570,F#2,194.958,0.031,93,91.0
2571,D2,194.958,0.031,93,91.0
2572,A1,195.0,0.125,95,91.0
2573,A3,195.0,0.125,95,91.0
2574,C4,195.0,0.125,95,91.0
2575,E4,195.0,0.125,95,91.0
2576,B1,195.25,0.406,87,91.0
2577,B3,195.25,0.406,87,91.0
2578,D4,195.25,0.406,87,91.0
2579,F#4,195.25,0.406,87,91.0
2580,D4,195.25,27/200,89,91.0
2581,D5,195.25,27/200,89,91.0
2582,F#2,195.5,0.031,97,91.0
2583,E4,195.5,479/1000,79,91.0
2584,E5,195.5,479/1000,79,91.0
2585,C2,196.0,479/1000,83,91.0
2586,G3,196.0,479/1000,83,91.0
2587,B3,196.0,479/1000,83,91.0
2588,E4,196.0,479/1000,83,91.0
2589,B3,196.0,23/200,107,91.0
2590,B4,196.0,23/200,107,91.0
2591,B1,196.0,0.031,92,91.0
2592,F#2,196.0,0.031,92,91.0
2593,F#2,196.5,0.031,59,91.0
2594,A3,196.5,417/1000,105,91.0
2595,A4,196.5,417/1000,105,91.0
2596,G1,196.75,427/1000,97,91.0
2597,D4,196.75,427/1000,97,91.0
2598,G3,196.76,427/1000,69,91.0
2599,B3,196.76,427/1000,69,91.0
2600,D4,196.76,427/1000,69,91.0
2601,E-2,196.958,0.031,93,91.0
2602,F#2,196.958,0.031,93,91.0
2603,D2,196.958,0.031,93,91.0
2604,G3,197.0,3.0,102,91.0
2605,G4,197.0,3.0,102,91.0
2606,A1,197.5,69/125,127,91.0
2607,F#2,197.5,0.031,57,91.0
2608,A3,197.51,677/1000,71,91.0
2609,C4,197.51,677/1000,71,91.0
2610,E4,197.51,677/1000,71,91.0
2611,B1,198.0,0.031,93,91.0
2612,F#2,198.0,0.031,93,91.0
2613,A1,198.5,177/1000,127,91.0
2614,F#2,198.5,0.031,61,91.0
2615,A3,198.51,49/100,71,91.0
2616,C4,198.51,49/100,71,91.0
2617,E4,198.51,49/100,71,91.0
2618,A3,198.75,0.125,49,91.0
2619,C4,198.75,0.125,49,91.0
2620,E4,198.75,0.125,49,91.0
2621,E-2,198.958,0.031,93,91.0
2622,F#2,198.958,0.031,93,91.0
2623,D2,198.958,0.031,93,91.0
2624,A1,199.0,0.125,95,91.0
2625,A3,199.0,0.125,95,91.0
2626,C4,199.0,0.125,95,91.0
2627,E4,199.0,0.125,95,91.0
2628,B1,199.25,0.406,87,91.0
2629,B3,199.25,0.406,87,91.0
2630,D4,199.25,0.406,87,91.0
2631,F#4,199.25,0.406,87,91.0
2632,F#2,199.5,0.031,97,91.0
2633,D2,199.75,0.031,27,91.0
2634,D2,199.812,0.031,15,91.0
2635,D2,199.885,0.031,14,91.0
2636,C2,200.0,479/1000,83,91.0
2637,G3,200.0,479/1000,83,91.0
2638,B3,200.0,479/1000,83,91.0
2639,E4,200.0,479/1000,83,91.0
2640,B1,200.0,0.031,92,91.0
2641,F#2,200.0,0.031,92,91.0
2642,G3,200.0,1.031,102,91.0
2643,G4,200.0,1.031,102,91.0
2644,F#2,200.5,0.031,59,91.0
2645,G1,200.75,427/1000,97,91.0
2646,D4,200.75,427/1000,97,91.0
2647,G3,200.76,427/1000,69,91.0
2648,B3,200.76,427/1000,69,91.0
2649,D4,200.76,427/1000,69,91.0
2650,E-2,200.958,0.031,93,91.0
2651,F#2,200.958,0.031,93,91.0
2652,D2,200.958,0.031,93,91.0
2653,A1,201.5,69/125,127,91.0
2654,F#2,201.5,0.031,57,91.0
2655,A3,201.51,677/1000,71,91.0
2656,C4,201.51,677/1000,71,91.0
2657,E4,201.51,677/1000,71,91.0
2658,B1,202.0,0.031,93,91.0
2659,F#2,202.0,0.031,93,91.0
2660,A1,202.5,177/1000,127,91.0
2661,F#2,202.5,0.031,61,91.0
2662,A3,202.51,49/100,71,91.0
2663,C4,202.51,49/100,71,91.0
2664,E4,202.51,49/100,71,91.0
2665,A3,202.75,0.125,49,91.0
2666,C4,202.75,0.125,49,91.0
2667,E4,202.75,0.125,49,91.0
2668,E-2,202.958,0.031,93,91.0
2669,F#2,202.958,0.031,93,91.0
2670,D2,202.958,0.031,93,91.0
2671,A1,203.0,0.125,95,91.0
2672,A3,203.0,0.125,95,91.0
2673,C4,203.0,0.125,95,91.0
2674,E4,203.0,0.125,95,91.0
2675,B1,203.25,0.406,87,91.0
2676,B3,203.25,0.406,87,91.0
2677,D4,203.25,0.406,87,91.0
2678,F#4,203.25,0.406,87,91.0
2679,D4,203.5,177/1000,98,91.0
2680,D5,203.5,177/1000,98,91.0
2681,D2,203.5,0.031,82,91.0
2682,F#2,203.5,0.031,82,91.0
2683,C2,204.0,479/1000,83,91.0
2684,G3,204.0,479/1000,83,91.0
2685,B3,204.0,479/1000,83,91.0
2686,E4,204.0,479/1000,83,91.0
2687,E4,204.0,927/1000,80,91.0
2688,A4,204.0,927/1000,80,91.0
2689,E5,204.0,927/1000,80,91.0
2690,A5,204.0,927/1000,80,91.0
2691,B1,204.0,0.031,92,91.0
2692,F#2,204.0,0.031,92,91.0
2693,F#2,204.5,0.031,59,91.0
2694,G1,204.75,427/1000,97,91.0
2695,D4,204.75,427/1000,97,91.0
2696,G3,204.76,427/1000,69,91.0
2697,B3,204.76,427/1000,69,91.0
2698,D4,204.76,427/1000,69,91.0
2699,E-2,204.958,0.031,93,91.0
2700,F#2,204.958,0.031,93,91.0
2701,D2,204.958,0.031,93,91.0
2702,D4,205.0,3.0,50,91.0
2703,D5,205.0,3.0,50,91.0
2704,G4,205.0,3.0,108,91.0
2705,G5,205.0,3.0,108,91.0
2706,A1,205.5,69/125,127,91.0
2707,F#2,205.5,0.031,57,91.0
2708,A3,205.51,677/1000,71,91.0
2709,C4,205.51,677/1000,71,91.0
2710,E4,205.51,677/1000,71,91.0
2711,B1,206.0,0.031,93,91.0
2712,F#2,206.0,0.031,93,91.0
2713,A1,206.5,177/1000,127,91.0
2714,F#2,206.5,0.031,61,91.0
2715,A3,206.51,49/100,71,91.0
2716,C4,206.51,49/100,71,91.0
2717,E4,206.51,49/100,71,91.0
2718,A3,206.75,0.125,49,91.0
2719,C4,206.75,0.125,49,91.0
2720,E4,206.75,0.125,49,91.0
2721,E-2,206.958,0.031,93,91.0
2722,F#2,206.958,0.031,93,91.0
2723,D2,206.958,0.031,93,91.0
2724,A1,207.0,0.125,95,91.0
2725,A3,207.0,0.125,95,91.0
2726,C4,207.0,0.125,95,91.0
2727,E4,207.0,0.125,95,91.0
2728,B1,207.25,0.406,87,91.0
2729,B3,207.25,0.406,87,91.0
2730,D4,207.25,0.406,87,91.0
2731,F#4,207.25,0.406,87,91.0
2732,F#2,207.5,0.031,97,91.0
2733,D2,207.75,0.031,27,91.0
2734,D2,207.812,0.031,15,91.0
2735,D2,207.885,0.031,14,91.0
2736,C2,208.0,479/1000,83,91.0
2737,G3,208.0,479/1000,83,91.0
2738,B3,208.0,479/1000,83,91.0
2739,E4,208.0,479/1000,83,91.0
2740,B1,208.0,0.031,92,91.0
2741,F#2,208.0,0.031,92,91.0
2742,D4,208.0,833/1000,50,91.0
2743,D5,208.0,833/1000,50,91.0
2744,G4,208.0,101/100,108,91.0
2745,G5,208.0,101/100,108,91.0
2746,F#2,208.5,0.031,59,91.0
2747,G1,208.75,427/1000,97,91.0
2748,D4,208.75,427/1000,97,91.0
2749,G3,208.76,427/1000,69,91.0
2750,B3,208.76,427/1000,69,91.0
2751,D4,208.76,427/1000,69,91.0
2752,E-2,208.958,0.031,93,91.0
2753,F#2,208.958,0.031,93,91.0
2754,D2,208.958,0.031,93,91.0
2755,F#2,209.5,0.031,57,91.0
2756,A1,209.5,49/100,108,91.0
2757,E4,209.5,49/100,108,91.0
2758,E5,209.5,49/100,108,91.0
2759,A3,209.51,677/1000,71,91.0
2760,C4,209.51,677/1000,71,91.0
2761,E4,209.51,677/1000,71,91.0
2762,G4,210.0,0.281,100,91.0
2763,G5,210.0,0.281,100,91.0
2764,B1,210.0,0.031,93,91.0
2765,F#2,210.0,0.031,93,91.0
2766,A1,210.5,177/1000,127,91.0
2767,F#2,210.5,0.031,61,91.0
2768,A3,210.51,49/100,71,91.0
2769,C4,210.51,49/100,71,91.0
2770,E4,210.51,49/100,71,91.0
2771,E4,210.75,271/1000,108,91.0
2772,E5,210.75,271/1000,108,91.0
2773,A3,210.75,0.125,49,91.0
2774,C4,210.75,0.125,49,91.0
2775,E4,210.75,0.125,49,91.0
2776,E-2,210.958,0.031,93,91.0
2777,F#2,210.958,0.031,93,91.0
2778,D2,210.958,0.031,93,91.0
2779,A1,211.0,0.125,95,91.0
2780,A3,211.0,0.125,95,91.0
2781,C4,211.0,0.125,95,91.0
2782,E4,211.0,0.125,95,91.0
2783,B1,211.25,0.406,87,91.0
2784,B3,211.25,0.406,87,91.0
2785,D4,211.25,0.406,87,91.0
2786,F#4,211.25,0.406,87,91.0
2787,D4,211.25,0.188,98,91.0
2788,D5,211.25,0.188,98,91.0
2789,F#2,211.5,0.031,97,91.0
2790,E4,211.5,0.25,83,91.0
2791,E5,211.5,0.25,83,91.0
2792,C2,212.0,479/1000,83,91.0
2793,G3,212.0,479/1000,83,91.0
2794,B3,212.0,479/1000,83,91.0
2795,E4,212.0,479/1000,83,91.0
2796,B3,212.0,0.156,108,91.0
2797,B4,212.0,0.156,108,91.0
2798,B1,212.0,0.031,92,91.0
2799,F#2,212.0,0.031,92,91.0
2800,F#2,212.5,0.031,59,91.0
2801,A3,212.5,417/1000,102,91.0
2802,A4,212.5,417/1000,102,91.0
2803,G1,212.75,427/1000,97,91.0
2804,D4,212.75,427/1000,97,91.0
2805,G3,212.76,427/1000,69,91.0
2806,B3,212.76,427/1000,69,91.0
2807,D4,212.76,427/1000,69,91.0
2808,E-2,212.958,0.031,93,91.0
2809,F#2,212.958,0.031,93,91.0
2810,D2,212.958,0.031,93,91.0
2811,G3,213.0,3.0,100,91.0
2812,G4,213.0,3.0,100,91.0
2813,A1,213.5,69/125,127,91.0
2814,F#2,213.5,0.031,57,91.0
2815,A3,213.51,677/1000,71,91.0
2816,C4,213.51,677/1000,71,91.0
2817,E4,213.51,677/1000,71,91.0
2818,B1,214.0,0.031,93,91.0
2819,F#2,214.0,0.031,93,91.0
2820,A1,214.5,177/1000,127,91.0
2821,F#2,214.5,0.031,61,91.0
2822,A3,214.51,49/100,71,91.0
2823,C4,214.51,49/100,71,91.0
2824,E4,214.51,49/100,71,91.0
2825,A3,214.75,0.125,49,91.0
2826,C4,214.75,0.125,49,91.0
2827,E4,214.75,0.125,49,91.0
2828,E-2,214.958,0.031,93,91.0
2829,F#2,214.958,0.031,93,91.0
2830,D2,214.958,0.031,93,91.0
2831,A1,215.0,0.125,95,91.0
2832,A3,215.0,0.125,95,91.0
2833,C4,215.0,0.125,95,91.0
2834,E4,215.0,0.125,95,91.0
2835,B1,215.25,0.406,87,91.0
2836,B3,215.25,0.406,87,91.0
2837,D4,215.25,0.406,87,91.0
2838,F#4,215.25,0.406,87,91.0
2839,F#2,215.5,0.031,97,91.0
2840,D2,215.75,0.031,27,91.0
2841,D2,215.812,0.031,15,91.0
2842,D2,215.885,0.031,14,91.0
2843,C2,216.0,479/1000,83,91.0
2844,G3,216.0,479/1000,83,91.0
2845,B3,216.0,479/1000,83,91.0
2846,E4,216.0,479/1000,83,91.0
2847,B1,216.0,0.031,92,91.0
2848,F#2,216.0,0.031,92,91.0
2849,G3,216.0,101/100,100,91.0
2850,G4,216.0,101/100,100,91.0
2851,F#2,216.5,0.031,59,91.0
2852,G1,216.75,427/1000,97,91.0
2853,D4,216.75,427/1000,97,91.0
2854,G3,216.76,427/1000,69,91.0
2855,B3,216.76,427/1000,69,91.0
2856,D4,216.76,427/1000,69,91.0
2857,E-2,216.958,0.031,93,91.0
2858,F#2,216.958,0.031,93,91.0
2859,D2,216.958,0.031,93,91.0
2860,A1,217.5,69/125,127,91.0
2861,F#2,217.5,0.031,57,91.0
2862,A3,217.51,677/1000,71,91.0
2863,C4,217.51,677/1000,71,91.0
2864,E4,217.51,677/1000,71,91.0
2865,B1,218.0,0.031,93,91.0
2866,F#2,218.0,0.031,93,91.0
2867,A1,218.5,177/1000,127,91.0
2868,F#2,218.5,0.031,61,91.0
2869,A3,218.51,49/100,71,91.0
2870,C4,218.51,49/100,71,91.0
2871,E4,218.51,49/100,71,91.0
2872,A3,218.75,0.125,49,91.0
2873,C4,218.75,0.125,49,91.0
2874,E4,218.75,0.125,49,91.0
2875,E-2,218.958,0.031,93,91.0
2876,F#2,218.958,0.031,93,91.0
2877,D2,218.958,0.031,93,91.0
2878,A1,219.0,0.125,95,91.0
2879,A3,219.0,0.125,95,91.0
2880,C4,219.0,0.125,95,91.0
2881,E4,219.0,0.125,95,91.0
2882,G4,219.25,0.094,107,91.0
2883,B1,219.25,0.406,87,91.0
2884,B3,219.25,0.406,87,91.0
2885,D4,219.25,0.406,87,91.0
2886,F#4,219.25,0.406,87,91.0
2887,B4,219.5,0.125,96,91.0
2888,D2,219.5,0.031,82,91.0
2889,F#2,219.5,0.031,82,91.0
2890,G4,219.75,13/125,94,91.0
2891,B4,220.0,23/200,94,91.0
2892,C2,220.0,479/1000,83,91.0
2893,G3,220.0,479/1000,83,91.0
2894,B3,220.0,479/1000,83,91.0
2895,E4,220.0,479/1000,83,91.0
2896,B1,220.0,0.031,92,91.0
2897,F#2,220.0,0.031,92,91.0
2898,G4,220.25,83/1000,85,91.0
2899,B4,220.5,917/1000,96,91.0
2900,F#2,220.5,0.031,59,91.0
2901,G1,220.75,427/1000,97,91.0
2902,D4,220.75,427/1000,97,91.0
2903,G3,220.76,427/1000,69,91.0
2904,B3,220.76,427/1000,69,91.0
2905,D4,220.76,427/1000,69,91.0
2906,E-2,220.958,0.031,93,91.0
2907,F#2,220.958,0.031,93,91.0
2908,D2,220.958,0.031,93,91.0
2909,A1,221.5,69/125,127,91.0
2910,G4,221.5,177/1000,78,91.0
2911,F#2,221.5,0.031,57,91.0
2912,A3,221.51,677/1000,71,91.0
2913,C4,221.51,677/1000,71,91.0
2914,E4,221.51,677/1000,71,91.0
2915,E4,221.75,0.125,87,91.0
2916,G4,222.0,0.125,107,91.0
2917,B1,222.0,0.031,93,91.0
2918,F#2,222.0,0.031,93,91.0
2919,F#2,222.5,0.031,61,91.0
2920,A1,222.5,73/500,114,91.0
2921,E4,222.5,73/500,114,91.0
2922,A3,222.51,49/100,71,91.0
2923,C4,222.51,49/100,71,91.0
2924,E4,222.51,49/100,71,91.0
2925,A3,222.75,0.125,49,91.0
2926,C4,222.75,0.125,49,91.0
2927,E4,222.75,0.125,49,91.0
2928,E-2,222.958,0.031,93,91.0
2929,F#2,222.958,0.031,93,91.0
2930,D2,222.958,0.031,93,91.0
2931,A1,223.0,0.125,95,91.0
2932,A3,223.0,0.125,95,91.0
2933,C4,223.0,0.125,95,91.0
2934,E4,223.0,0.125,95,91.0
2935,E4,223.25,83/1000,78,91.0
2936,B1,223.25,0.406,87,91.0
2937,B3,223.25,0.406,87,91.0
2938,D4,223.25,0.406,87,91.0
2939,F#4,223.25,0.406,87,91.0
2940,G4,223.5,13/125,90,91.0
2941,F#2,223.5,0.031,97,91.0
2942,B4,223.75,0.25,94,91.0
2943,D2,223.75,0.031,27,91.0
2944,D2,223.812,0.031,15,91.0
2945,D2,223.885,0.031,14,91.0
2946,B4,224.0,0.25,94,91.0
2947,C2,224.0,479/1000,83,91.0
2948,G3,224.0,479/1000,83,91.0
2949,B3,224.0,479/1000,83,91.0
2950,E4,224.0,479/1000,83,91.0
2951,B1,224.0,0.031,92,91.0
2952,F#2,224.0,0.031,92,91.0
2953,G4,224.25,13/125,86,91.0
2954,E4,224.5,0.156,81,91.0
2955,F#2,224.5,0.031,59,91.0
2956,G4,224.75,73/500,87,91.0
2957,G1,224.75,427/1000,97,91.0
2958,D4,224.75,427/1000,97,91.0
2959,G3,224.76,427/1000,69,91.0
2960,B3,224.76,427/1000,69,91.0
2961,D4,224.76,427/1000,69,91.0
2962,E-2,224.958,0.031,93,91.0
2963,F#2,224.958,0.031,93,91.0
2964,D2,224.958,0.031,93,91.0
2965,G4,225.25,0.094,94,91.0
2966,A1,225.5,69/125,127,91.0
2967,G4,225.5,73/500,69,91.0
2968,F#2,225.5,0.031,57,91.0
2969,A3,225.51,677/1000,71,91.0
2970,C4,225.51,677/1000,71,91.0
2971,E4,225.51,677/1000,71,91.0
2972,E4,225.75,0.094,73,91.0
2973,G4,226.0,23/200,94,91.0
2974,B1,226.0,0.031,93,91.0
2975,F#2,226.0,0.031,93,91.0
2976,G4,226.25,0.125,74,91.0
2977,F#2,226.5,0.031,61,91.0
2978,A1,226.5,229/1000,118,91.0
2979,A4,226.5,229/1000,118,91.0
2980,A3,226.51,49/100,71,91.0
2981,C4,226.51,49/100,71,91.0
2982,E4,226.51,49/100,71,91.0
2983,A3,226.75,0.125,49,91.0
2984,C4,226.75,0.125,49,91.0
2985,E4,226.75,0.125,49,91.0
2986,E-2,226.958,0.031,93,91.0
2987,F#2,226.958,0.031,93,91.0
2988,D2,226.958,0.031,93,91.0
2989,A1,227.0,0.125,95,91.0
2990,A3,227.0,0.125,95,91.0
2991,C4,227.0,0.125,95,91.0
2992,E4,227.0,0.125,95,91.0
2993,B1,227.25,0.406,87,91.0
2994,B3,227.25,0.406,87,91.0
2995,D4,227.25,0.406,87,91.0
2996,F#4,227.25,0.406,87,91.0
2997,G4,227.5,0.125,110,91.0
2998,F#2,227.5,0.031,97,91.0
2999,G4,227.75,27/200,91,91.0
3000,G4,228.0,0.125,92,91.0
3001,C2,228.0,479/1000,83,91.0
3002,G3,228.0,479/1000,83,91.0
3003,B3,228.0,479/1000,83,91.0
3004,E4,228.0,479/1000,83,91.0
3005,B1,228.0,0.031,92,91.0
3006,F#2,228.0,0.031,92,91.0
3007,G4,228.25,0.125,77,91.0
3008,B4,228.5,271/1000,98,91.0
3009,F#2,228.5,0.031,59,91.0
3010,G1,228.75,427/1000,97,91.0
3011,D4,228.75,427/1000,97,91.0
3012,G3,228.76,427/1000,69,91.0
3013,B3,228.76,427/1000,69,91.0
3014,D4,228.76,427/1000,69,91.0
3015,E-2,228.958,0.031,93,91.0
3016,F#2,228.958,0.031,93,91.0
3017,D2,228.958,0.031,93,91.0
3018,G4,229.25,83/1000,98,91.0
3019,A1,229.5,69/125,127,91.0
3020,G4,229.5,27/200,70,91.0
3021,F#2,229.5,0.031,57,91.0
3022,A3,229.51,677/1000,71,91.0
3023,C4,229.51,677/1000,71,91.0
3024,E4,229.51,677/1000,71,91.0
3025,E4,229.75,27/200,77,91.0
3026,G4,230.0,177/1000,105,91.0
3027,B1,230.0,0.031,93,91.0
3028,F#2,230.0,0.031,93,91.0
3029,A1,230.5,177/1000,127,91.0
3030,B4,230.5,151/500,103,91.0
3031,F#2,230.5,0.031,61,91.0
3032,A3,230.51,49/100,71,91.0
3033,C4,230.51,49/100,71,91.0
3034,E4,230.51,49/100,71,91.0
3035,A3,230.75,0.125,49,91.0
3036,C4,230.75,0.125,49,91.0
3037,E4,230.75,0.125,49,91.0
3038,E-2,230.958,0.031,93,91.0
3039,F#2,230.958,0.031,93,91.0
3040,D2,230.958,0.031,93,91.0
3041,A1,231.0,0.125,95,91.0
3042,A3,231.0,0.125,95,91.0
3043,C4,231.0,0.125,95,91.0
3044,E4,231.0,0.125,95,91.0
3045,B1,231.25,0.406,87,91.0
3046,B3,231.25,0.406,87,91.0
3047,D4,231.25,0.406,87,91.0
3048,F#4,231.25,0.406,87,91.0
3049,G4,231.5,0.125,104,91.0
3050,F#2,231.5,0.031,97,91.0
3051,G4,231.75,13/125,69,91.0
3052,D2,231.75,0.031,27,91.0
3053,D2,231.812,0.031,15,91.0
3054,D2,231.885,0.031,14,91.0
3055,G4,232.0,27/200,92,91.0
3056,B1,232.0,0.031,121,91.0
3057,G4,232.25,23/200,75,91.0
3058,G4,232.5,13/125,63,91.0
3059,G4,232.75,0.094,62,91.0
3060,E-2,232.958,0.031,82,91.0
3061,D2,232.958,0.031,82,91.0
3062,G4,233.0,23/200,76,91.0
3063,G4,233.25,13/125,66,91.0
3064,G4,233.5,83/1000,62,91.0
3065,G4,233.75,23/200,72,91.0
3066,B4,234.0,73/500,94,91.0
3067,B1,234.0,0.031,121,91.0
3068,B4,234.25,23/200,77,91.0
3069,A4,234.5,167/1000,115,91.0
3070,E-2,234.958,0.031,82,91.0
3071,D2,234.958,0.031,82,91.0
3072,A4,235.25,13/125,83,91.0
3073,A4,235.5,0.031,64,91.0
3074,D2,235.5,0.031,64,91.0
3075,A4,235.75,73/500,113,91.0
3076,A4,236.0,0.156,107,91.0
3077,C2,236.0,479/1000,83,91.0
3078,G3,236.0,479/1000,83,91.0
3079,B3,236.0,479/1000,83,91.0
3080,E4,236.0,479/1000,83,91.0
3081,B1,236.0,0.031,92,91.0
3082,F#2,236.0,0.031,92,91.0
3083,G4,236.25,0.156,101,91.0
3084,A4,236.5,99/500,105,91.0
3085,F#2,236.5,0.031,59,91.0
3086,G1,236.75,427/1000,97,91.0
3087,D4,236.75,427/1000,97,91.0
3088,G3,236.76,427/1000,69,91.0
3089,B3,236.76,427/1000,69,91.0
3090,D4,236.76,427/1000,69,91.0
3091,E-2,236.958,0.031,93,91.0
3092,F#2,236.958,0.031,93,91.0
3093,D2,236.958,0.031,93,91.0
3094,A1,237.5,69/125,127,91.0
3095,G4,237.5,27/200,102,91.0
3096,F#2,237.5,0.031,57,91.0
3097,A3,237.51,677/1000,71,91.0
3098,C4,237.51,677/1000,71,91.0
3099,E4,237.51,677/1000,71,91.0
3100,G4,237.75,73/500,78,91.0
3101,G4,238.0,0.281,105,91.0
3102,B1,238.0,0.031,93,91.0
3103,F#2,238.0,0.031,93,91.0
3104,G4,238.333,0.25,84,91.0
3105,A1,238.5,177/1000,127,91.0
3106,F#2,238.5,0.031,61,91.0
3107,A3,238.51,49/100,71,91.0
3108,C4,238.51,49/100,71,91.0
3109,E4,238.51,49/100,71,91.0
3110,E4,238.667,0.344,91,91.0
3111,A3,238.75,0.125,49,91.0
3112,C4,238.75,0.125,49,91.0
3113,E4,238.75,0.125,49,91.0
3114,E-2,238.958,0.031,93,91.0
3115,F#2,238.958,0.031,93,91.0
3116,D2,238.958,0.031,93,91.0
3117,A1,239.0,0.125,95,91.0
3118,A3,239.0,0.125,95,91.0
3119,C4,239.0,0.125,95,91.0
3120,E4,239.0,0.125,95,91.0
3121,E4,239.25,0.156,81,91.0
3122,B1,239.25,0.406,87,91.0
3123,B3,239.25,0.406,87,91.0
3124,D4,239.25,0.406,87,91.0
3125,F#4,239.25,0.406,87,91.0
3126,G4,239.5,27/200,89,91.0
3127,F#2,239.5,0.031,97,91.0
3128,B4,239.75,0.25,89,91.0
3129,D2,239.75,0.031,27,91.0
3130,D2,239.812,0.031,15,91.0
3131,D2,239.885,0.031,14,91.0
3132,B4,240.0,0.031,89,91.0
3133,C2,240.0,479/1000,83,91.0
3134,G3,240.0,479/1000,83,91.0
3135,B3,240.0,479/1000,83,91.0
3136,E4,240.0,479/1000,83,91.0
3137,B1,240.0,0.031,92,91.0
3138,F#2,240.0,0.031,92,91.0
3139,G4,240.333,6/25,84,91.0
3140,F#2,240.5,0.031,59,91.0
3141,B4,240.667,26/125,89,91.0
3142,G1,240.75,427/1000,97,91.0
3143,D4,240.75,427/1000,97,91.0
3144,G3,240.76,427/1000,69,91.0
3145,B3,240.76,427/1000,69,91.0
3146,D4,240.76,427/1000,69,91.0
3147,E-2,240.958,0.031,93,91.0
3148,F#2,240.958,0.031,93,91.0
3149,D2,240.958,0.031,93,91.0
3150,G4,241.25,23/200,83,91.0
3151,A1,241.5,69/125,127,91.0
3152,G4,241.5,23/200,77,91.0
3153,F#2,241.5,0.031,57,91.0
3154,A3,241.51,677/1000,71,91.0
3155,C4,241.51,677/1000,71,91.0
3156,E4,241.51,677/1000,71,91.0
3157,G4,241.75,13/125,73,91.0
3158,G4,242.0,0.125,99,91.0
3159,B1,242.0,0.031,93,91.0
3160,F#2,242.0,0.031,93,91.0
3161,G4,242.25,0.094,68,91.0
3162,F#2,242.5,0.031,61,91.0
3163,A1,242.5,73/500,102,91.0
3164,A4,242.5,73/500,102,91.0
3165,A3,242.51,49/100,71,91.0
3166,C4,242.51,49/100,71,91.0
3167,E4,242.51,49/100,71,91.0
3168,A3,242.75,0.125,49,91.0
3169,C4,242.75,0.125,49,91.0
3170,E4,242.75,0.125,49,91.0
3171,E-2,242.958,0.031,93,91.0
3172,F#2,242.958,0.031,93,91.0
3173,D2,242.958,0.031,93,91.0
3174,A1,243.0,0.125,95,91.0
3175,A3,243.0,0.125,95,91.0
3176,C4,243.0,0.125,95,91.0
3177,E4,243.0,0.125,95,91.0
3178,E4,243.25,0.125,82,91.0
3179,B1,243.25,0.406,87,91.0
3180,B3,243.25,0.406,87,91.0
3181,D4,243.25,0.406,87,91.0
3182,F#4,243.25,0.406,87,91.0
3183,G4,243.5,27/200,71,91.0
3184,F#2,243.5,0.031,97,91.0
3185,G4,243.75,27/200,86,91.0
3186,G4,244.0,27/200,102,91.0
3187,C2,244.0,479/1000,83,91.0
3188,G3,244.0,479/1000,83,91.0
3189,B3,244.0,479/1000,83,91.0
3190,E4,244.0,479/1000,83,91.0
3191,B1,244.0,0.031,92,91.0
3192,F#2,244.0,0.031,92,91.0
3193,G4,244.25,0.125,88,91.0
3194,B4,244.5,6/25,103,91.0
3195,F#2,244.5,0.031,59,91.0
3196,G1,244.75,427/1000,97,91.0
3197,D4,244.75,427/1000,97,91.0
3198,G3,244.76,427/1000,69,91.0
3199,B3,244.76,427/1000,69,91.0
3200,D4,244.76,427/1000,69,91.0
3201,E-2,244.958,0.031,93,91.0
3202,F#2,244.958,0.031,93,91.0
3203,D2,244.958,0.031,93,91.0
3204,A1,245.5,69/125,127,91.0
3205,G4,245.5,0.125,104,91.0
3206,F#2,245.5,0.031,57,91.0
3207,A3,245.51,677/1000,71,91.0
3208,C4,245.51,677/1000,71,91.0
3209,E4,245.51,677/1000,71,91.0
3210,E4,245.75,27/200,71,91.0
3211,G4,246.0,177/1000,104,91.0
3212,B1,246.0,0.031,93,91.0
3213,F#2,246.0,0.031,93,91.0
3214,A1,246.5,177/1000,127,91.0
3215,B4,246.5,73/250,101,91.0
3216,F#2,246.5,0.031,61,91.0
3217,A3,246.51,49/100,71,91.0
3218,C4,246.51,49/100,71,91.0
3219,E4,246.51,49/100,71,91.0
3220,A3,246.75,0.125,49,91.0
3221,C4,246.75,0.125,49,91.0
3222,E4,246.75,0.125,49,91.0
3223,E-2,246.958,0.031,93,91.0
3224,F#2,246.958,0.031,93,91.0
3225,D2,246.958,0.031,93,91.0
3226,A1,247.0,0.125,95,91.0
3227,A3,247.0,0.125,95,91.0
3228,C4,247.0,0.125,95,91.0
3229,E4,247.0,0.125,95,91.0
3230,B1,247.25,0.406,87,91.0
3231,B3,247.25,0.406,87,91.0
3232,D4,247.25,0.406,87,91.0
3233,F#4,247.25,0.406,87,91.0
3234,G4,247.5,13/125,90,91.0
3235,F#2,247.5,0.031,97,91.0
3236,G4,247.75,0.031,57,91.0
3237,D2,247.75,0.031,57,91.0
3238,D2,247.812,0.031,15,91.0
3239,D2,247.885,0.031,14,91.0
3240,C2,248.0,479/1000,83,91.0
3241,G3,248.0,479/1000,83,91.0
3242,B3,248.0,479/1000,83,91.0
3243,E4,248.0,479/1000,83,91.0
3244,G4,248.0,0.031,89,91.0
3245,B1,248.0,0.031,89,91.0
3246,F#2,248.0,0.031,89,91.0
3247,B3,248.0,1.0,87,91.0
3248,E4,248.0,1.0,87,91.0
3249,G4,248.0,1.0,87,91.0
3250,B3,248.0,1.0,87,91.0
3251,E4,248.0,1.0,87,91.0
3252,G4,248.0,1.0,87,91.0
3253,G4,248.25,73/1000,105,91.0
3254,G4,248.5,0.031,87,91.0
3255,F#2,248.5,0.031,87,91.0
3256,G4,248.625,73/1000,82,91.0
3257,G4,248.75,13/125,108,91.0
3258,G1,248.75,427/1000,97,91.0
3259,D4,248.75,427/1000,97,91.0
3260,G3,248.76,427/1000,69,91.0
3261,B3,248.76,427/1000,69,91.0
3262,D4,248.76,427/1000,69,91.0
3263,E-2,248.958,0.031,93,91.0
3264,F#2,248.958,0.031,93,91.0
3265,D2,248.958,0.031,93,91.0
3266,G4,249.0,177/1000,94,91.0
3267,A1,249.5,69/125,127,91.0
3268,G4,249.5,23/200,98,91.0
3269,F#2,249.5,0.031,57,91.0
3270,A3,249.51,677/1000,71,91.0
3271,C4,249.51,677/1000,71,91.0
3272,E4,249.51,677/1000,71,91.0
3273,G4,249.75,23/200,90,91.0
3274,A4,250.0,0.156,107,91.0
3275,B1,250.0,0.031,93,91.0
3276,F#2,250.0,0.031,93,91.0
3277,A4,250.25,73/500,98,91.0
3278,A1,250.5,177/1000,127,91.0
3279,F#2,250.5,0.031,61,91.0
3280,A3,250.51,49/100,71,91.0
3281,C4,250.51,49/100,71,91.0
3282,E4,250.51,49/100,71,91.0
3283,E4,250.75,0.125,63,91.0
3284,A3,250.75,0.125,63,91.0
3285,E4,250.75,0.125,63,91.0
3286,C4,250.75,0.125,50,91.0
3287,E4,250.75,0.125,50,91.0
3288,E-2,250.958,0.031,93,91.0
3289,F#2,250.958,0.031,93,91.0
3290,D2,250.958,0.031,93,91.0
3291,A1,251.0,0.125,95,91.0
3292,A3,251.0,0.125,95,91.0
3293,C4,251.0,0.125,95,91.0
3294,E4,251.0,0.125,95,91.0
3295,G4,251.25,0.125,105,91.0
3296,B1,251.25,0.406,87,91.0
3297,B3,251.25,0.406,87,91.0
3298,D4,251.25,0.406,87,91.0
3299,F#4,251.25,0.406,87,91.0
3300,G4,251.5,73/500,102,91.0
3301,D2,251.5,0.031,82,91.0
3302,F#2,251.5,0.031,82,91.0
3303,C2,252.0,479/1000,83,91.0
3304,G3,252.0,479/1000,83,91.0
3305,B3,252.0,479/1000,83,91.0
3306,E4,252.0,479/1000,83,91.0
3307,E4,252.0,0.906,80,91.0
3308,A4,252.0,0.906,80,91.0
3309,E5,252.0,0.906,80,91.0
3310,A5,252.0,0.906,80,91.0
3311,B1,252.0,0.031,92,91.0
3312,F#2,252.0,0.031,92,91.0
3313,F#2,252.5,0.031,59,91.0
3314,G1,252.75,427/1000,97,91.0
3315,D4,252.75,427/1000,97,91.0
3316,G3,252.76,427/1000,69,91.0
3317,B3,252.76,427/1000,69,91.0
3318,D4,252.76,427/1000,69,91.0
3319,E-2,252.958,0.031,93,91.0
3320,F#2,252.958,0.031,93,91.0
3321,D2,252.958,0.031,93,91.0
3322,D4,253.0,3.0,51,91.0
3323,D5,253.0,3.0,51,91.0
3324,G4,253.0,3.0,107,91.0
3325,G5,253.0,3.0,107,91.0
3326,A1,253.5,69/125,127,91.0
3327,F#2,253.5,0.031,57,91.0
3328,A3,253.51,677/1000,71,91.0
3329,C4,253.51,677/1000,71,91.0
3330,E4,253.51,677/1000,71,91.0
3331,B1,254.0,0.031,93,91.0
3332,F#2,254.0,0.031,93,91.0
3333,A1,254.5,177/1000,127,91.0
3334,F#2,254.5,0.031,61,91.0
3335,A3,254.51,49/100,71,91.0
3336,C4,254.51,49/100,71,91.0
3337,E4,254.51,49/100,71,91.0
3338,A3,254.75,0.125,49,91.0
3339,C4,254.75,0.125,49,91.0
3340,E4,254.75,0.125,49,91.0
3341,E-2,254.958,0.031,93,91.0
3342,F#2,254.958,0.031,93,91.0
3343,D2,254.958,0.031,93,91.0
3344,A1,255.0,0.125,95,91.0
3345,A3,255.0,0.125,95,91.0
3346,C4,255.0,0.125,95,91.0
3347,E4,255.0,0.125,95,91.0
3348,B1,255.25,0.406,87,91.0
3349,B3,255.25,0.406,87,91.0
3350,D4,255.25,0.406,87,91.0
3351,F#4,255.25,0.406,87,91.0
3352,F#2,255.5,0.031,97,91.0
3353,D2,255.75,0.031,27,91.0
3354,D2,255.812,0.031,15,91.0
3355,D2,255.885,0.031,14,91.0
3356,C2,256.0,479/1000,83,91.0
3357,G3,256.0,479/1000,83,91.0
3358,B3,256.0,479/1000,83,91.0
3359,E4,256.0,479/1000,83,91.0
3360,B1,256.0,0.031,92,91.0
3361,F#2,256.0,0.031,92,91.0
3362,D4,256.0,112/125,51,91.0
3363,D5,256.0,112/125,51,91.0
3364,G4,256.0,99/100,107,91.0
3365,G5,256.0,99/100,107,91.0
3366,F#2,256.5,0.031,59,91.0
3367,G1,256.75,427/1000,97,91.0
3368,D4,256.75,427/1000,97,91.0
3369,G3,256.76,427/1000,69,91.0
3370,B3,256.76,427/1000,69,91.0
3371,D4,256.76,427/1000,69,91.0
3372,E-2,256.958,0.031,93,91.0
3373,F#2,256.958,0.031,93,91.0
3374,D2,256.958,0.031,93,91.0
3375,A1,257.5,69/125,127,91.0
3376,F#2,257.5,0.031,57,91.0
3377,E4,257.5,99/250,99,91.0
3378,E5,257.5,99/250,99,91.0
3379,A3,257.51,677/1000,71,91.0
3380,C4,257.51,677/1000,71,91.0
3381,E4,257.51,677/1000,71,91.0
3382,G4,258.0,333/1000,87,91.0
3383,G5,258.0,333/1000,87,91.0
3384,B1,258.0,0.031,93,91.0
3385,F#2,258.0,0.031,93,91.0
3386,A1,258.5,177/1000,127,91.0
3387,F#2,258.5,0.031,61,91.0
3388,A3,258.51,49/100,71,91.0
3389,C4,258.51,49/100,71,91.0
3390,E4,258.51,49/100,71,91.0
3391,E4,258.75,177/500,105,91.0
3392,E5,258.75,177/500,105,91.0
3393,A3,258.75,0.125,49,91.0
3394,C4,258.75,0.125,49,91.0
3395,E4,258.75,0.125,49,91.0
3396,E-2,258.958,0.031,93,91.0
3397,F#2,258.958,0.031,93,91.0
3398,D2,258.958,0.031,93,91.0
3399,A1,259.0,0.125,95,91.0
3400,A3,259.0,0.125,95,91.0
3401,C4,259.0,0.125,95,91.0
3402,E4,259.0,0.125,95,91.0
3403,B1,259.25,0.406,87,91.0
3404,B3,259.25,0.406,87,91.0
3405,D4,259.25,0.406,87,91.0
3406,F#4,259.25,0.406,87,91.0
3407,D4,259.25,27/200,89,91.0
3408,D5,259.25,27/200,89,91.0
3409,F#2,259.5,0.031,97,91.0
3410,E4,259.5,479/1000,79,91.0
3411,E5,259.5,479/1000,79,91.0
3412,C2,260.0,479/1000,83,91.0
3413,G3,260.0,479/1000,83,91.0
3414,B3,260.0,479/1000,83,91.0
3415,E4,260.0,479/1000,83,91.0
3416,B3,260.0,23/200,107,91.0
3417,B4,260.0,23/200,107,91.0
3418,B1,260.0,0.031,92,91.0
3419,F#2,260.0,0.031,92,91.0
3420,F#2,260.5,0.031,59,91.0
3421,A3,260.5,417/1000,105,91.0
3422,A4,260.5,417/1000,105,91.0
3423,G1,260.75,427/1000,97,91.0
3424,D4,260.75,427/1000,97,91.0
3425,G3,260.76,427/1000,69,91.0
3426,B3,260.76,427/1000,69,91.0
3427,D4,260.76,427/1000,69,91.0
3428,E-2,260.958,0.031,93,91.0
3429,F#2,260.958,0.031,93,91.0
3430,D2,260.958,0.031,93,91.0
3431,G3,261.0,3.0,102,91.0
3432,G4,261.0,3.0,102,91.0
3433,A1,261.5,69/125,127,91.0
3434,F#2,261.5,0.031,57,91.0
3435,A3,261.51,677/1000,71,91.0
3436,C4,261.51,677/1000,71,91.0
3437,E4,261.51,677/1000,71,91.0
3438,B1,262.0,0.031,93,91.0
3439,F#2,262.0,0.031,93,91.0
3440,A1,262.5,177/1000,127,91.0
3441,F#2,262.5,0.031,61,91.0
3442,A3,262.51,49/100,71,91.0
3443,C4,262.51,49/100,71,91.0
3444,E4,262.51,49/100,71,91.0
3445,A3,262.75,0.125,49,91.0
3446,C4,262.75,0.125,49,91.0
3447,E4,262.75,0.125,49,91.0
3448,E-2,262.958,0.031,93,91.0
3449,F#2,262.958,0.031,93,91.0
3450,D2,262.958,0.031,93,91.0
3451,A1,263.0,0.125,95,91.0
3452,A3,263.0,0.125,95,91.0
3453,C4,263.0,0.125,95,91.0
3454,E4,263.0,0.125,95,91.0
3455,B1,263.25,0.406,87,91.0
3456,B3,263.25,0.406,87,91.0
3457,D4,263.25,0.406,87,91.0
3458,F#4,263.25,0.406,87,91.0
3459,F#2,263.5,0.031,97,91.0
3460,D2,263.75,0.031,27,91.0
3461,D2,263.812,0.031,15,91.0
3462,D2,263.885,0.031,14,91.0
3463,C2,264.0,479/1000,83,91.0
3464,G3,264.0,479/1000,83,91.0
3465,B3,264.0,479/1000,83,91.0
3466,E4,264.0,479/1000,83,91.0
3467,B1,264.0,0.031,92,91.0
3468,F#2,264.0,0.031,92,91.0
3469,G3,264.0,1.031,102,91.0
3470,G4,264.0,1.031,102,91.0
3471,F#2,264.5,0.031,59,91.0
3472,G1,264.75,427/1000,97,91.0
3473,D4,264.75,427/1000,97,91.0
3474,G3,264.76,427/1000,69,91.0
3475,B3,264.76,427/1000,69,91.0
3476,D4,264.76,427/1000,69,91.0
3477,E-2,264.958,0.031,93,91.0
3478,F#2,264.958,0.031,93,91.0
3479,D2,264.958,0.031,93,91.0
3480,A1,265.5,69/125,127,91.0
3481,F#2,265.5,0.031,57,91.0
3482,A3,265.51,677/1000,71,91.0
3483,C4,265.51,677/1000,71,91.0
3484,E4,265.51,677/1000,71,91.0
3485,B1,266.0,0.031,93,91.0
3486,F#2,266.0,0.031,93,91.0
3487,A1,266.5,177/1000,127,91.0
3488,F#2,266.5,0.031,61,91.0
3489,A3,266.51,49/100,71,91.0
3490,C4,266.51,49/100,71,91.0
3491,E4,266.51,49/100,71,91.0
3492,A3,266.75,0.125,49,91.0
3493,C4,266.75,0.125,49,91.0
3494,E4,266.75,0.125,49,91.0
3495,E-2,266.958,0.031,93,91.0
3496,F#2,266.958,0.031,93,91.0
3497,D2,266.958,0.031,93,91.0
3498,A1,267.0,0.125,95,91.0
3499,A3,267.0,0.125,95,91.0
3500,C4,267.0,0.125,95,91.0
3501,E4,267.0,0.125,95,91.0
3502,B1,267.25,0.406,87,91.0
3503,B3,267.25,0.406,87,91.0
3504,D4,267.25,0.406,87,91.0
3505,F#4,267.25,0.406,87,91.0
3506,D4,267.5,177/1000,98,91.0
3507,D5,267.5,177/1000,98,91.0
3508,D2,267.5,0.031,82,91.0
3509,F#2,267.5,0.031,82,91.0
3510,C2,268.0,479/1000,83,91.0
3511,G3,268.0,479/1000,83,91.0
3512,B3,268.0,479/1000,83,91.0
3513,E4,268.0,479/1000,83,91.0
3514,E4,268.0,927/1000,80,91.0
3515,A4,268.0,927/1000,80,91.0
3516,E5,268.0,927/1000,80,91.0
3517,A5,268.0,927/1000,80,91.0
3518,B1,268.0,0.031,92,91.0
3519,F#2,268.0,0.031,92,91.0
3520,F#2,268.5,0.031,59,91.0
3521,G1,268.75,427/1000,97,91.0
3522,D4,268.75,427/1000,97,91.0
3523,G3,268.76,427/1000,69,91.0
3524,B3,268.76,427/1000,69,91.0
3525,D4,268.76,427/1000,69,91.0
3526,E-2,268.958,0.031,93,91.0
3527,F#2,268.958,0.031,93,91.0
3528,D2,268.958,0.031,93,91.0
3529,D4,269.0,3.0,50,91.0
3530,D5,269.0,3.0,50,91.0
3531,G4,269.0,3.0,108,91.0
3532,G5,269.0,3.0,108,91.0
3533,A1,269.5,69/125,127,91.0
3534,F#2,269.5,0.031,57,91.0
3535,A3,269.51,677/1000,71,91.0
3536,C4,269.51,677/1000,71,91.0
3537,E4,269.51,677/1000,71,91.0
3538,B1,270.0,0.031,93,91.0
3539,F#2,270.0,0.031,93,91.0
3540,A1,270.5,177/1000,127,91.0
3541,F#2,270.5,0.031,61,91.0
3542,A3,270.51,49/100,71,91.0
3543,C4,270.51,49/100,71,91.0
3544,E4,270.51,49/100,71,91.0
3545,A3,270.75,0.125,49,91.0
3546,C4,270.75,0.125,49,91.0
3547,E4,270.75,0.125,49,91.0
3548,E-2,270.958,0.031,93,91.0
3549,F#2,270.958,0.031,93,91.0
3550,D2,270.958,0.031,93,91.0
3551,A1,271.0,0.125,95,91.0
3552,A3,271.0,0.125,95,91.0
3553,C4,271.0,0.125,95,91.0
3554,E4,271.0,0.125,95,91.0
3555,B1,271.25,0.406,87,91.0
3556,B3,271.25,0.406,87,91.0
3557,D4,271.25,0.406,87,91.0
3558,F#4,271.25,0.406,87,91.0
3559,F#2,271.5,0.031,97,91.0
3560,D2,271.75,0.031,27,91.0
3561,D2,271.812,0.031,15,91.0
3562,D2,271.885,0.031,14,91.0
3563,C2,272.0,479/1000,83,91.0
3564,G3,272.0,479/1000,83,91.0
3565,B3,272.0,479/1000,83,91.0
3566,E4,272.0,479/1000,83,91.0
3567,B1,272.0,0.031,92,91.0
3568,F#2,272.0,0.031,92,91.0
3569,D4,272.0,833/1000,50,91.0
3570,D5,272.0,833/1000,50,91.0
3571,G4,272.0,101/100,108,91.0
3572,G5,272.0,101/100,108,91.0
3573,F#2,272.5,0.031,59,91.0
3574,G1,272.75,427/1000,97,91.0
3575,D4,272.75,427/1000,97,91.0
3576,G3,272.76,427/1000,69,91.0
3577,B3,272.76,427/1000,69,91.0
3578,D4,272.76,427/1000,69,91.0
3579,E-2,272.958,0.031,93,91.0
3580,F#2,272.958,0.031,93,91.0
3581,D2,272.958,0.031,93,91.0
3582,F#2,273.5,0.031,57,91.0
3583,A1,273.5,49/100,108,91.0
3584,E4,273.5,49/100,108,91.0
3585,E5,273.5,49/100,108,91.0
3586,A3,273.51,677/1000,71,91.0
3587,C4,273.51,677/1000,71,91.0
3588,E4,273.51,677/1000,71,91.0
3589,G4,274.0,0.281,100,91.0
3590,G5,274.0,0.281,100,91.0
3591,B1,274.0,0.031,93,91.0
3592,F#2,274.0,0.031,93,91.0
3593,A1,274.5,177/1000,127,91.0
3594,F#2,274.5,0.031,61,91.0
3595,A3,274.51,49/100,71,91.0
3596,C4,274.51,49/100,71,91.0
3597,E4,274.51,49/100,71,91.0
3598,E4,274.75,271/1000,108,91.0
3599,E5,274.75,271/1000,108,91.0
3600,A3,274.75,0.125,49,91.0
3601,C4,274.75,0.125,49,91.0
3602,E4,274.75,0.125,49,91.0
3603,E-2,274.958,0.031,93,91.0
3604,F#2,274.958,0.031,93,91.0
3605,D2,274.958,0.031,93,91.0
3606,A1,275.0,0.125,95,91.0
3607,A3,275.0,0.125,95,91.0
3608,C4,275.0,0.125,95,91.0
3609,E4,275.0,0.125,95,91.0
3610,B1,275.25,0.406,87,91.0
3611,B3,275.25,0.406,87,91.0
3612,D4,275.25,0.406,87,91.0
3613,F#4,275.25,0.406,87,91.0
3614,D4,275.25,0.188,98,91.0
3615,D5,275.25,0.188,98,91.0
3616,F#2,275.5,0.031,97,91.0
3617,E4,275.5,0.25,83,91.0
3618,E5,275.5,0.25,83,91.0
3619,C2,276.0,479/1000,83,91.0
3620,G3,276.0,479/1000,83,91.0
3621,B3,276.0,479/1000,83,91.0
3622,E4,276.0,479/1000,83,91.0
3623,B3,276.0,0.156,108,91.0
3624,B4,276.0,0.156,108,91.0
3625,B1,276.0,0.031,92,91.0
3626,F#2,276.0,0.031,92,91.0
3627,F#2,276.5,0.031,59,91.0
3628,A3,276.5,417/1000,102,91.0
3629,A4,276.5,417/1000,102,91.0
3630,G1,276.75,427/1000,97,91.0
3631,D4,276.75,427/1000,97,91.0
3632,G3,276.76,427/1000,69,91.0
3633,B3,276.76,427/1000,69,91.0
3634,D4,276.76,427/1000,69,91.0
3635,E-2,276.958,0.031,93,91.0
3636,F#2,276.958,0.031,93,91.0
3637,D2,276.958,0.031,93,91.0
3638,G3,277.0,3.0,100,91.0
3639,G4,277.0,3.0,100,91.0
3640,A1,277.5,69/125,127,91.0
3641,F#2,277.5,0.031,57,91.0
3642,A3,277.51,677/1000,71,91.0
3643,C4,277.51,677/1000,71,91.0
3644,E4,277.51,677/1000,71,91.0
3645,B1,278.0,0.031,93,91.0
3646,F#2,278.0,0.031,93,91.0
3647,A1,278.5,177/1000,127,91.0
3648,F#2,278.5,0.031,61,91.0
3649,A3,278.51,49/100,71,91.0
3650,C4,278.51,49/100,71,91.0
3651,E4,278.51,49/100,71,91.0
3652,A3,278.75,0.125,49,91.0
3653,C4,278.75,0.125,49,91.0
3654,E4,278.75,0.125,49,91.0
3655,E-2,278.958,0.031,93,91.0
3656,F#2,278.958,0.031,93,91.0
3657,D2,278.958,0.031,93,91.0
3658,A1,279.0,0.125,95,91.0
3659,A3,279.0,0.125,95,91.0
3660,C4,279.0,0.125,95,91.0
3661,E4,279.0,0.125,95,91.0
3662,B1,279.25,0.406,87,91.0
3663,B3,279.25,0.406,87,91.0
3664,D4,279.25,0.406,87,91.0
3665,F#4,279.25,0.406,87,91.0
3666,F#2,279.5,0.031,97,91.0
3667,D2,279.75,0.031,27,91.0
3668,D2,279.812,0.031,15,91.0
3669,D2,279.885,0.031,14,91.0
3670,C2,280.0,479/1000,83,91.0
3671,G3,280.0,479/1000,83,91.0
3672,B3,280.0,479/1000,83,91.0
3673,E4,280.0,479/1000,83,91.0
3674,B1,280.0,0.031,92,91.0
3675,F#2,280.0,0.031,92,91.0
3676,G3,280.0,101/100,100,91.0
3677,G4,280.0,101/100,100,91.0
3678,F#2,280.5,0.031,59,91.0
3679,G1,280.75,427/1000,97,91.0
3680,D4,280.75,427/1000,97,91.0
3681,G3,280.76,427/1000,69,91.0
3682,B3,280.76,427/1000,69,91.0
3683,D4,280.76,427/1000,69,91.0
3684,E-2,280.958,0.031,93,91.0
3685,F#2,280.958,0.031,93,91.0
3686,D2,280.958,0.031,93,91.0
3687,A1,281.5,69/125,127,91.0
3688,F#2,281.5,0.031,57,91.0
3689,A3,281.51,677/1000,71,91.0
3690,C4,281.51,677/1000,71,91.0
3691,E4,281.51,677/1000,71,91.0
3692,B1,282.0,0.031,93,91.0
3693,F#2,282.0,0.031,93,91.0
3694,A1,282.5,177/1000,127,91.0
3695,F#2,282.5,0.031,61,91.0
3696,A3,282.51,49/100,71,91.0
3697,C4,282.51,49/100,71,91.0
3698,E4,282.51,49/100,71,91.0
3699,A3,282.75,0.125,49,91.0
3700,C4,282.75,0.125,49,91.0
3701,E4,282.75,0.125,49,91.0
3702,E-2,282.958,0.031,93,91.0
3703,F#2,282.958,0.031,93,91.0
3704,D2,282.958,0.031,93,91.0
3705,A1,283.0,0.125,95,91.0
3706,A3,283.0,0.125,95,91.0
3707,C4,283.0,0.125,95,91.0
3708,E4,283.0,0.125,95,91.0
3709,B1,283.25,0.406,87,91.0
3710,B3,283.25,0.406,87,91.0
3711,D4,283.25,0.406,87,91.0
3712,F#4,283.25,0.406,87,91.0
3713,D2,283.5,0.031,82,91.0
3714,F#2,283.5,0.031,82,91.0
3715,C2,284.0,479/1000,83,91.0
3716,G3,284.0,479/1000,83,91.0
3717,B3,284.0,479/1000,83,91.0
3718,E4,284.0,479/1000,83,91.0
3719,B1,284.0,0.031,92,91.0
3720,F#2,284.0,0.031,92,91.0
3721,F#2,284.5,0.031,59,91.0
3722,G1,284.75,427/1000,97,91.0
3723,D4,284.75,427/1000,97,91.0
3724,G3,284.76,427/1000,69,91.0
3725,B3,284.76,427/1000,69,91.0
3726,D4,284.76,427/1000,69,91.0
3727,E-2,284.958,0.031,93,91.0
3728,F#2,284.958,0.031,93,91.0
3729,D2,284.958,0.031,93,91.0
3730,A1,285.5,69/125,127,91.0
3731,F#2,285.5,0.031,57,91.0
3732,A3,285.51,677/1000,71,91.0
3733,C4,285.51,677/1000,71,91.0
3734,E4,285.51,677/1000,71,91.0
3735,B1,286.0,0.031,93,91.0
3736,F#2,286.0,0.031,93,91.0
3737,A1,286.5,177/1000,127,91.0
3738,F#2,286.5,0.031,61,91.0
3739,A3,286.51,49/100,71,91.0
3740,C4,286.51,49/100,71,91.0
3741,E4,286.51,49/100,71,91.0
3742,A3,286.75,0.125,49,91.0
3743,C4,286.75,0.125,49,91.0
3744,E4,286.75,0.125,49,91.0
3745,E-2,286.958,0.031,93,91.0
3746,F#2,286.958,0.031,93,91.0
3747,D2,286.958,0.031,93,91.0
3748,A1,287.0,0.125,95,91.0
3749,A3,287.0,0.125,95,91.0
3750,C4,287.0,0.125,95,91.0
3751,E4,287.0,0.125,95,91.0
3752,B1,287.25,0.406,87,91.0
3753,B3,287.25,0.406,87,91.0
3754,D4,287.25,0.406,87,91.0
3755,F#4,287.25,0.406,87,91.0
3756,F#2,287.5,0.031,97,91.0
3757,D2,287.75,0.031,27,91.0
3758,D2,287.812,0.031,15,91.0
3759,D2,287.885,0.031,14,91.0
3760,C2,288.0,479/1000,83,91.0
3761,G3,288.0,479/1000,83,91.0
3762,B3,288.0,479/1000,83,91.0
3763,E4,288.0,479/1000,83,91.0
3764,B1,288.0,0.031,92,91.0
3765,F#2,288.0,0.031,92,91.0
3766,F#2,288.5,0.031,59,91.0
3767,G1,288.75,427/1000,97,91.0
3768,D4,288.75,427/1000,97,91.0
3769,G3,288.76,427/1000,69,91.0
3770,B3,288.76,427/1000,69,91.0
3771,D4,288.76,427/1000,69,91.0
3772,E-2,288.958,0.031,93,91.0
3773,F#2,288.958,0.031,93,91.0
3774,D2,288.958,0.031,93,91.0
3775,A1,289.5,69/125,127,91.0
3776,F#2,289.5,0.031,57,91.0
3777,A3,289.51,677/1000,71,91.0
3778,C4,289.51,677/1000,71,91.0
3779,E4,289.51,677/1000,71,91.0
3780,B1,290.0,0.031,93,91.0
3781,F#2,290.0,0.031,93,91.0
3782,A1,290.5,177/1000,127,91.0
3783,F#2,290.5,0.031,61,91.0
3784,A3,290.51,49/100,71,91.0
3785,C4,290.51,49/100,71,91.0
3786,E4,290.51,49/100,71,91.0
3787,A3,290.75,0.125,49,91.0
3788,C4,290.75,0.125,49,91.0
3789,E4,290.75,0.125,49,91.0
3790,E-2,290.958,0.031,93,91.0
3791,F#2,290.958,0.031,93,91.0
3792,D2,290.958,0.031,93,91.0
3793,A1,291.0,0.125,95,91.0
3794,A3,291.0,0.125,95,91.0
3795,C4,291.0,0.125,95,91.0
3796,E4,291.0,0.125,95,91.0
3797,B1,291.25,0.406,87,91.0
3798,B3,291.25,0.406,87,91.0
3799,D4,291.25,0.406,87,91.0
3800,F#4,291.25,0.406,87,91.0
3801,F#2,291.5,0.031,97,91.0
3802,C2,292.0,479/1000,83,91.0
3803,G3,292.0,479/1000,83,91.0
3804,B3,292.0,479/1000,83,91.0
3805,E4,292.0,479/1000,83,91.0
3806,B1,292.0,0.031,92,91.0
3807,F#2,292.0,0.031,92,91.0
3808,F#2,292.5,0.031,59,91.0
3809,G1,292.75,427/1000,97,91.0
3810,D4,292.75,427/1000,97,91.0
3811,G3,292.76,427/1000,69,91.0
3812,B3,292.76,427/1000,69,91.0
3813,D4,292.76,427/1000,69,91.0
3814,E-2,292.958,0.031,93,91.0
3815,F#2,292.958,0.031,93,91.0
3816,D2,292.958,0.031,93,91.0
3817,A1,293.5,69/125,127,91.0
3818,F#2,293.5,0.031,57,91.0
3819,A3,293.51,677/1000,71,91.0
3820,C4,293.51,677/1000,71,91.0
3821,E4,293.51,677/1000,71,91.0
3822,B1,294.0,0.031,93,91.0
3823,F#2,294.0,0.031,93,91.0
3824,A1,294.5,177/1000,127,91.0
3825,F#2,294.5,0.031,61,91.0
3826,A3,294.51,49/100,71,91.0
3827,C4,294.51,49/100,71,91.0
3828,E4,294.51,49/100,71,91.0
3829,A3,294.75,0.125,49,91.0
3830,C4,294.75,0.125,49,91.0
3831,E4,294.75,0.125,49,91.0
3832,E-2,294.958,0.031,93,91.0
3833,F#2,294.958,0.031,93,91.0
3834,D2,294.958,0.031,93,91.0
3835,A1,295.0,0.125,95,91.0
3836,A3,295.0,0.125,95,91.0
3837,C4,295.0,0.125,95,91.0
3838,E4,295.0,0.125,95,91.0
3839,B1,295.25,0.406,87,91.0
3840,B3,295.25,0.406,87,91.0
3841,D4,295.25,0.406,87,91.0
3842,F#4,295.25,0.406,87,91.0
3843,F#2,295.5,0.031,97,91.0
3844,D2,295.75,0.031,27,91.0
3845,D2,295.812,0.031,15,91.0
3846,D2,295.885,0.031,14,91.0
3847,C2,296.0,479/1000,83,91.0
3848,G3,296.0,479/1000,83,91.0
3849,B3,296.0,479/1000,83,91.0
3850,E4,296.0,479/1000,83,91.0
3851,B1,296.0,0.031,92,91.0
3852,F#2,296.0,0.031,92,91.0
3853,F#2,296.5,0.031,59,91.0
3854,G1,296.75,427/1000,97,91.0
3855,D4,296.75,427/1000,97,91.0
3856,G3,296.76,427/1000,69,91.0
3857,B3,296.76,427/1000,69,91.0
3858,D4,296.76,427/1000,69,91.0
3859,E-2,296.958,0.031,93,91.0
3860,F#2,296.958,0.031,93,91.0
3861,D2,296.958,0.031,93,91.0
3862,A1,297.5,69/125,127,91.0
3863,F#2,297.5,0.031,57,91.0
3864,A3,297.51,677/1000,71,91.0
3865,C4,297.51,677/1000,71,91.0
3866,E4,297.51,677/1000,71,91.0
3867,B1,298.0,0.031,93,91.0
3868,F#2,298.0,0.031,93,91.0
3869,A1,298.5,177/1000,127,91.0
3870,F#2,298.5,0.031,61,91.0
3871,A3,298.51,49/100,71,91.0
3872,C4,298.51,49/100,71,91.0
3873,E4,298.51,49/100,71,91.0
3874,A3,298.75,0.125,49,91.0
3875,C4,298.75,0.125,49,91.0
3876,E4,298.75,0.125,49,91.0
3877,E-2,298.958,0.031,93,91.0
3878,F#2,298.958,0.031,93,91.0
3879,D2,298.958,0.031,93,91.0
3880,A1,299.0,0.125,95,91.0
3881,A3,299.0,0.125,95,91.0
3882,C4,299.0,0.125,95,91.0
3883,E4,299.0,0.125,95,91.0
3884,B1,299.25,0.406,87,91.0
3885,B3,299.25,0.406,87,91.0
3886,D4,299.25,0.406,87,91.0
3887,F#4,299.25,0.406,87,91.0
3888,D2,299.5,0.031,82,91.0
3889,F#2,299.5,0.031,82,91.0
3890,C2,300.0,479/1000,83,91.0
3891,G3,300.0,479/1000,83,91.0
3892,B3,300.0,479/1000,83,91.0
3893,E4,300.0,479/1000,83,91.0
3894,B1,300.0,0.031,92,91.0
3895,F#2,300.0,0.031,92,91.0
3896,B4,300.25,0.5,116,91.0
3897,E4,300.25,0.5,116,91.0
3898,F#2,300.5,0.031,59,91.0
3899,G1,300.75,427/1000,97,91.0
3900,D4,300.75,427/1000,97,91.0
3901,A4,300.75,99/500,113,91.0
3902,E4,300.75,99/500,113,91.0
3903,G3,300.76,427/1000,69,91.0
3904,B3,300.76,427/1000,69,91.0
3905,D4,300.76,427/1000,69,91.0
3906,E-2,300.958,0.031,93,91.0
3907,F#2,300.958,0.031,93,91.0
3908,D2,300.958,0.031,93,91.0
3909,G4,301.0,26/125,114,91.0
3910,D4,301.0,26/125,114,91.0
3911,E4,301.25,0.219,114,91.0
3912,D4,301.25,0.219,114,91.0
3913,A1,301.5,69/125,127,91.0
3914,F#2,301.5,0.031,57,91.0
3915,D4,301.5,6/25,114,91.0
3916,D4,301.5,6/25,114,91.0
3917,A3,301.51,677/1000,71,91.0
3918,C4,301.51,677/1000,71,91.0
3919,E4,301.51,677/1000,71,91.0
3920,C4,301.75,13/50,114,91.0
3921,C4,301.75,13/50,114,91.0
3922,B3,302.0,0.75,116,91.0
3923,B3,302.0,0.75,116,91.0
3924,B1,302.0,0.031,93,91.0
3925,F#2,302.0,0.031,93,91.0
3926,A1,302.5,177/1000,127,91.0
3927,F#2,302.5,0.031,61,91.0
3928,A3,302.51,49/100,71,91.0
3929,C4,302.51,49/100,71,91.0
3930,E4,302.51,49/100,71,91.0
3931,C4,302.75,0.125,80,91.0
3932,C4,302.75,0.125,80,91.0
3933,A3,302.75,0.125,80,91.0
3934,E4,302.75,0.125,80,91.0
3935,C4,302.75,0.125,50,91.0
3936,E4,302.75,0.125,50,91.0
3937,B3,302.875,83/1000,112,91.0
3938,B3,302.875,83/1000,112,91.0
3939,E-2,302.958,0.031,93,91.0
3940,F#2,302.958,0.031,93,91.0
3941,D2,302.958,0.031,93,91.0
3942,A1,303.0,0.125,95,91.0
3943,A3,303.0,0.125,95,91.0
3944,C4,303.0,0.125,95,91.0
3945,E4,303.0,0.125,95,91.0
3946,A3,303.0,0.719,116,91.0
3947,A3,303.0,0.719,116,91.0
3948,B1,303.25,0.406,87,91.0
3949,B3,303.25,0.406,87,91.0
3950,D4,303.25,0.406,87,91.0
3951,F#4,303.25,0.406,87,91.0
3952,F#2,303.5,0.031,97,91.0
3953,D2,303.75,0.031,27,91.0
3954,D2,303.812,0.031,15,91.0
3955,D2,303.885,0.031,14,91.0
3956,C2,304.0,479/1000,83,91.0
3957,G3,304.0,479/1000,83,91.0
3958,B3,304.0,479/1000,83,91.0
3959,E4,304.0,479/1000,83,91.0
3960,B1,304.0,0.031,92,91.0
3961,F#2,304.0,0.031,92,91.0
3962,B4,304.25,417/1000,118,91.0
3963,E4,304.25,417/1000,118,91.0
3964,F#2,304.5,0.031,59,91.0
3965,G1,304.75,427/1000,97,91.0
3966,D4,304.75,427/1000,97,91.0
3967,A4,304.75,0.219,114,91.0
3968,E4,304.75,0.219,114,91.0
3969,G3,304.76,427/1000,69,91.0
3970,B3,304.76,427/1000,69,91.0
3971,D4,304.76,427/1000,69,91.0
3972,E-2,304.958,0.031,93,91.0
3973,F#2,304.958,0.031,93,91.0
3974,D2,304.958,0.031,93,91.0
3975,G4,305.0,0.219,116,91.0
3976,D4,305.0,0.219,116,91.0
3977,E4,305.25,6/25,114,91.0
3978,D4,305.25,6/25,114,91.0
3979,A1,305.5,69/125,127,91.0
3980,F#2,305.5,0.031,57,91.0
3981,D4,305.5,229/1000,116,91.0
3982,D4,305.5,229/1000,116,91.0
3983,A3,305.51,677/1000,71,91.0
3984,C4,305.51,677/1000,71,91.0
3985,E4,305.51,677/1000,71,91.0
3986,C4,305.75,6/25,115,91.0
3987,C4,305.75,6/25,115,91.0
3988,B3,306.0,127/200,112,91.0
3989,B3,306.0,771/1000,122,91.0
3990,B1,306.0,0.031,93,91.0
3991,F#2,306.0,0.031,93,91.0
3992,A1,306.5,177/1000,127,91.0
3993,F#2,306.5,0.031,61,91.0
3994,A3,306.51,49/100,71,91.0
3995,C4,306.51,49/100,71,91.0
3996,E4,306.51,49/100,71,91.0
3997,C4,306.75,0.125,81,91.0
3998,C4,306.75,0.125,81,91.0
3999,A3,306.75,0.125,81,91.0
4000,E4,306.75,0.125,81,91.0
4001,C4,306.75,0.125,50,91.0
4002,E4,306.75,0.125,50,91.0
4003,B3,306.875,13/125,113,91.0
4004,B3,306.875,13/125,113,91.0
4005,E-2,306.958,0.031,93,91.0
4006,F#2,306.958,0.031,93,91.0
4007,D2,306.958,0.031,93,91.0
4008,A3,307.0,69/125,111,91.0
4009,A3,307.0,229/500,122,91.0
4010,A1,307.0,0.125,95,91.0
4011,A3,307.0,0.125,95,91.0
4012,C4,307.0,0.125,95,91.0
4013,E4,307.0,0.125,95,91.0
4014,B1,307.25,0.406,87,91.0
4015,B3,307.25,0.406,87,91.0
4016,D4,307.25,0.406,87,91.0
4017,F#4,307.25,0.406,87,91.0
4018,F#2,307.5,0.031,97,91.0
4019,G3,307.5,73/200,116,91.0
4020,G3,307.5,73/200,116,91.0
4021,C2,308.0,479/1000,83,91.0
4022,G3,308.0,479/1000,83,91.0
4023,B3,308.0,479/1000,83,91.0
4024,E4,308.0,479/1000,83,91.0
4025,B1,308.0,0.031,92,91.0
4026,F#2,308.0,0.031,92,91.0
4027,B4,308.25,0.5,116,91.0
4028,E4,308.25,0.5,116,91.0
4029,F#2,308.5,0.031,59,91.0
4030,G1,308.75,427/1000,97,91.0
4031,D4,308.75,427/1000,97,91.0
4032,A4,308.75,99/500,113,91.0
4033,E4,308.75,99/500,113,91.0
4034,G3,308.76,427/1000,69,91.0
4035,B3,308.76,427/1000,69,91.0
4036,D4,308.76,427/1000,69,91.0
4037,E-2,308.958,0.031,93,91.0
4038,F#2,308.958,0.031,93,91.0
4039,D2,308.958,0.031,93,91.0
4040,G4,309.0,26/125,114,91.0
4041,D4,309.0,26/125,114,91.0
4042,E4,309.25,0.219,114,91.0
4043,D4,309.25,0.219,114,91.0
4044,A1,309.5,69/125,127,91.0
4045,F#2,309.5,0.031,57,91.0
4046,D4,309.5,6/25,114,91.0
4047,D4,309.5,6/25,114,91.0
4048,A3,309.51,677/1000,71,91.0
4049,C4,309.51,677/1000,71,91.0
4050,E4,309.51,677/1000,71,91.0
4051,C4,309.75,13/50,114,91.0
4052,C4,309.75,13/50,114,91.0
4053,B3,310.0,0.75,116,91.0
4054,B3,310.0,0.75,116,91.0
4055,B1,310.0,0.031,93,91.0
4056,F#2,310.0,0.031,93,91.0
4057,A1,310.5,177/1000,127,91.0
4058,F#2,310.5,0.031,61,91.0
4059,A3,310.51,49/100,71,91.0
4060,C4,310.51,49/100,71,91.0
4061,E4,310.51,49/100,71,91.0
4062,C4,310.75,0.125,80,91.0
4063,C4,310.75,0.125,80,91.0
4064,A3,310.75,0.125,80,91.0
4065,E4,310.75,0.125,80,91.0
4066,C4,310.75,0.125,50,91.0
4067,E4,310.75,0.125,50,91.0
4068,B3,310.875,83/1000,112,91.0
4069,B3,310.875,83/1000,112,91.0
4070,E-2,310.958,0.031,93,91.0
4071,F#2,310.958,0.031,93,91.0
4072,D2,310.958,0.031,93,91.0
4073,A1,311.0,0.125,95,91.0
4074,A3,311.0,0.125,95,91.0
4075,C4,311.0,0.125,95,91.0
4076,E4,311.0,0.125,95,91.0
4077,A3,311.0,0.719,116,91.0
4078,A3,311.0,0.719,116,91.0
4079,B1,311.25,0.406,87,91.0
4080,B3,311.25,0.406,87,91.0
4081,D4,311.25,0.406,87,91.0
4082,F#4,311.25,0.406,87,91.0
4083,F#2,311.5,0.031,97,91.0
4084,D2,311.75,0.031,27,91.0
4085,D2,311.812,0.031,15,91.0
4086,D2,311.885,0.031,14,91.0
4087,B1,312.0,0.031,121,91.0
4088,B4,312.25,417/1000,118,91.0
4089,E4,312.25,417/1000,118,91.0
4090,E2,312.5,0.031,90,91.0
4091,A4,312.75,0.219,114,91.0
4092,E4,312.75,0.219,114,91.0
4093,E-2,312.958,0.031,98,91.0
4094,E2,312.958,0.031,98,91.0
4095,D2,312.958,0.031,98,91.0
4096,G4,313.0,0.219,116,91.0
4097,D4,313.0,0.219,116,91.0
4098,E4,313.25,6/25,114,91.0
4099,D4,313.25,6/25,114,91.0
4100,E2,313.5,0.031,44,91.0
4101,D4,313.5,229/1000,116,91.0
4102,D4,313.5,229/1000,116,91.0
4103,C4,313.75,6/25,115,91.0
4104,C4,313.75,6/25,115,91.0
4105,E2,313.75,0.031,42,91.0
4106,A2,313.75,0.031,42,91.0
4107,B3,314.0,127/200,112,91.0
4108,B3,314.0,771/1000,122,91.0
4109,B1,314.0,0.031,102,91.0
4110,E2,314.0,0.031,102,91.0
4111,E2,314.5,0.031,53,91.0
4112,C4,314.75,27/200,112,91.0
4113,C4,314.75,27/200,112,91.0
4114,B3,314.875,13/125,113,91.0
4115,B3,314.875,13/125,113,91.0
4116,E-2,314.958,0.031,90,91.0
4117,D2,314.958,0.031,90,91.0
4118,A3,315.0,69/125,111,91.0
4119,A3,315.0,229/500,122,91.0
4120,E2,315.25,0.031,60,91.0
4121,A2,315.25,0.031,60,91.0
4122,G3,315.5,73/200,116,91.0
4123,G3,315.5,73/200,116,91.0
4124,E2,315.5,0.031,75,91.0
4125,A2,315.5,0.031,75,91.0
4126,E2,315.75,0.031,64,91.0
4127,A2,315.75,0.031,64,91.0
4128,C2,316.0,479/1000,83,91.0
4129,G3,316.0,479/1000,83,91.0
4130,B3,316.0,479/1000,83,91.0
4131,E4,316.0,479/1000,83,91.0
4132,B3,316.0,2.0,54,91.0
4133,B3,316.0,2.0,54,91.0
4134,E4,316.0,1.0,86,91.0
4135,G4,316.0,1.0,86,91.0
4136,E4,316.0,1.0,86,91.0
4137,G4,316.0,1.0,86,91.0
4138,B1,316.0,0.031,92,91.0
4139,F#2,316.0,0.031,92,91.0
4140,B4,316.25,0.5,116,91.0
4141,E4,316.25,0.5,116,91.0
4142,F#2,316.5,0.031,59,91.0
4143,G1,316.75,427/1000,97,91.0
4144,D4,316.75,427/1000,97,91.0
4145,A4,316.75,99/500,113,91.0
4146,E4,316.75,99/500,113,91.0
4147,G3,316.76,427/1000,69,91.0
4148,B3,316.76,427/1000,69,91.0
4149,D4,316.76,427/1000,69,91.0
4150,E-2,316.958,0.031,93,91.0
4151,F#2,316.958,0.031,93,91.0
4152,D2,316.958,0.031,93,91.0
4153,G4,317.0,26/125,114,91.0
4154,D4,317.0,26/125,114,91.0
4155,E4,317.25,0.219,114,91.0
4156,D4,317.25,0.219,114,91.0
4157,A1,317.5,69/125,127,91.0
4158,F#2,317.5,0.031,57,91.0
4159,D4,317.5,6/25,114,91.0
4160,D4,317.5,6/25,114,91.0
4161,A3,317.51,677/1000,71,91.0
4162,C4,317.51,677/1000,71,91.0
4163,E4,317.51,677/1000,71,91.0
4164,C4,317.75,13/50,114,91.0
4165,C4,317.75,13/50,114,91.0
4166,B3,318.0,0.75,116,91.0
4167,B3,318.0,0.75,116,91.0
4168,B1,318.0,0.031,93,91.0
4169,F#2,318.0,0.031,93,91.0
4170,A1,318.5,177/1000,127,91.0
4171,F#2,318.5,0.031,61,91.0
4172,A3,318.51,49/100,71,91.0
4173,C4,318.51,49/100,71,91.0
4174,E4,318.51,49/100,71,91.0
4175,C4,318.75,0.125,80,91.0
4176,C4,318.75,0.125,80,91.0
4177,A3,318.75,0.125,80,91.0
4178,E4,318.75,0.125,80,91.0
4179,C4,318.75,0.125,50,91.0
4180,E4,318.75,0.125,50,91.0
4181,B3,318.875,83/1000,112,91.0
4182,B3,318.875,83/1000,112,91.0
4183,E-2,318.958,0.031,93,91.0
4184,F#2,318.958,0.031,93,91.0
4185,D2,318.958,0.031,93,91.0
4186,A1,319.0,0.125,95,91.0
4187,A3,319.0,0.125,95,91.0
4188,C4,319.0,0.125,95,91.0
4189,E4,319.0,0.125,95,91.0
4190,A3,319.0,0.719,116,91.0
4191,A3,319.0,0.719,116,91.0
4192,B1,319.25,0.406,87,91.0
4193,B3,319.25,0.406,87,91.0
4194,D4,319.25,0.406,87,91.0
4195,F#4,319.25,0.406,87,91.0
4196,F#2,319.5,0.031,97,91.0
4197,D2,319.75,0.031,27,91.0
4198,D2,319.812,0.031,15,91.0
4199,D2,319.885,0.031,14,91.0
4200,C2,320.0,479/1000,83,91.0
4201,G3,320.0,479/1000,83,91.0
4202,B3,320.0,479/1000,83,91.0
4203,E4,320.0,479/1000,83,91.0
4204,B3,320.0,2.0,54,91.0
4205,B3,320.0,2.0,54,91.0
4206,E4,320.0,1.0,86,91.0
4207,G4,320.0,1.0,86,91.0
4208,E4,320.0,1.0,86,91.0
4209,G4,320.0,1.0,86,91.0
4210,B1,320.0,0.031,92,91.0
4211,F#2,320.0,0.031,92,91.0
4212,B4,320.25,417/1000,118,91.0
4213,E4,320.25,417/1000,118,91.0
4214,F#2,320.5,0.031,59,91.0
4215,G1,320.75,427/1000,97,91.0
4216,D4,320.75,427/1000,97,91.0
4217,A4,320.75,0.219,114,91.0
4218,E4,320.75,0.219,114,91.0
4219,G3,320.76,427/1000,69,91.0
4220,B3,320.76,427/1000,69,91.0
4221,D4,320.76,427/1000,69,91.0
4222,E-2,320.958,0.031,93,91.0
4223,F#2,320.958,0.031,93,91.0
4224,D2,320.958,0.031,93,91.0
4225,G4,321.0,0.219,116,91.0
4226,D4,321.0,0.219,116,91.0
4227,E4,321.25,6/25,114,91.0
4228,D4,321.25,6/25,114,91.0
4229,A1,321.5,69/125,127,91.0
4230,F#2,321.5,0.031,57,91.0
4231,D4,321.5,229/1000,116,91.0
4232,D4,321.5,229/1000,116,91.0
4233,A3,321.51,677/1000,71,91.0
4234,C4,321.51,677/1000,71,91.0
4235,E4,321.51,677/1000,71,91.0
4236,C4,321.75,6/25,115,91.0
4237,C4,321.75,6/25,115,91.0
4238,B3,322.0,127/200,112,91.0
4239,B3,322.0,771/1000,122,91.0
4240,B1,322.0,0.031,93,91.0
4241,F#2,322.0,0.031,93,91.0
4242,A1,322.5,177/1000,127,91.0
4243,F#2,322.5,0.031,61,91.0
4244,A3,322.51,49/100,71,91.0
4245,C4,322.51,49/100,71,91.0
4246,E4,322.51,49/100,71,91.0
4247,C4,322.75,0.125,81,91.0
4248,C4,322.75,0.125,81,91.0
4249,A3,322.75,0.125,81,91.0
4250,E4,322.75,0.125,81,91.0
4251,C4,322.75,0.125,50,91.0
4252,E4,322.75,0.125,50,91.0
4253,B3,322.875,13/125,113,91.0
4254,B3,322.875,13/125,113,91.0
4255,E-2,322.958,0.031,93,91.0
4256,F#2,322.958,0.031,93,91.0
4257,D2,322.958,0.031,93,91.0
4258,A3,323.0,69/125,111,91.0
4259,A3,323.0,229/500,122,91.0
4260,A1,323.0,0.125,95,91.0
4261,A3,323.0,0.125,95,91.0
4262,C4,323.0,0.125,95,91.0
4263,E4,323.0,0.125,95,91.0
4264,B1,323.25,0.406,87,91.0
4265,B3,323.25,0.406,87,91.0
4266,D4,323.25,0.406,87,91.0
4267,F#4,323.25,0.406,87,91.0
4268,F#2,323.5,0.031,97,91.0
4269,G3,323.5,73/200,116,91.0
4270,G3,323.5,73/200,116,91.0
4271,C2,324.0,479/1000,83,91.0
4272,G3,324.0,479/1000,83,91.0
4273,B3,324.0,479/1000,83,91.0
4274,E4,324.0,479/1000,83,91.0
4275,B3,324.0,2.0,54,91.0
4276,B3,324.0,2.0,54,91.0
4277,E4,324.0,1.0,86,91.0
4278,G4,324.0,1.0,86,91.0
4279,E4,324.0,1.0,86,91.0
4280,G4,324.0,1.0,86,91.0
4281,B1,324.0,0.031,92,91.0
4282,F#2,324.0,0.031,92,91.0
4283,B4,324.25,0.5,116,91.0
4284,E4,324.25,0.5,116,91.0
4285,F#2,324.5,0.031,59,91.0
4286,G1,324.75,427/1000,97,91.0
4287,D4,324.75,427/1000,97,91.0
4288,A4,324.75,99/500,113,91.0
4289,E4,324.75,99/500,113,91.0
4290,G3,324.76,427/1000,69,91.0
4291,B3,324.76,427/1000,69,91.0
4292,D4,324.76,427/1000,69,91.0
4293,E-2,324.958,0.031,93,91.0
4294,F#2,324.958,0.031,93,91.0
4295,D2,324.958,0.031,93,91.0
4296,G4,325.0,26/125,114,91.0
4297,D4,325.0,26/125,114,91.0
4298,E4,325.25,0.219,114,91.0
4299,D4,325.25,0.219,114,91.0
4300,A1,325.5,69/125,127,91.0
4301,F#2,325.5,0.031,57,91.0
4302,D4,325.5,6/25,114,91.0
4303,D4,325.5,6/25,114,91.0
4304,A3,325.51,677/1000,71,91.0
4305,C4,325.51,677/1000,71,91.0
4306,E4,325.51,677/1000,71,91.0
4307,C4,325.75,13/50,114,91.0
4308,C4,325.75,13/50,114,91.0
4309,B3,326.0,0.75,116,91.0
4310,B3,326.0,0.75,116,91.0
4311,B1,326.0,0.031,93,91.0
4312,F#2,326.0,0.031,93,91.0
4313,A1,326.5,177/1000,127,91.0
4314,F#2,326.5,0.031,61,91.0
4315,A3,326.51,49/100,71,91.0
4316,C4,326.51,49/100,71,91.0
4317,E4,326.51,49/100,71,91.0
4318,C4,326.75,0.125,80,91.0
4319,C4,326.75,0.125,80,91.0
4320,A3,326.75,0.125,80,91.0
4321,E4,326.75,0.125,80,91.0
4322,C4,326.75,0.125,50,91.0
4323,E4,326.75,0.125,50,91.0
4324,B3,326.875,83/1000,112,91.0
4325,B3,326.875,83/1000,112,91.0
4326,E-2,326.958,0.031,93,91.0
4327,F#2,326.958,0.031,93,91.0
4328,D2,326.958,0.031,93,91.0
4329,A1,327.0,0.125,95,91.0
4330,A3,327.0,0.125,95,91.0
4331,C4,327.0,0.125,95,91.0
4332,E4,327.0,0.125,95,91.0
4333,A3,327.0,0.719,116,91.0
4334,A3,327.0,0.719,116,91.0
4335,B1,327.25,0.406,87,91.0
4336,B3,327.25,0.406,87,91.0
4337,D4,327.25,0.406,87,91.0
4338,F#4,327.25,0.406,87,91.0
4339,F#2,327.5,0.031,97,91.0
4340,D2,327.75,0.031,27,91.0
4341,D2,327.812,0.031,15,91.0
4342,D2,327.885,0.031,14,91.0
4343,C2,328.0,479/1000,83,91.0
4344,G3,328.0,479/1000,83,91.0
4345,B3,328.0,479/1000,83,91.0
4346,E4,328.0,479/1000,83,91.0
4347,B3,328.0,2.0,54,91.0
4348,B3,328.0,2.0,54,91.0
4349,E4,328.0,1.0,86,91.0
4350,G4,328.0,1.0,86,91.0
4351,E4,328.0,1.0,86,91.0
4352,G4,328.0,1.0,86,91.0
4353,B1,328.0,0.031,92,91.0
4354,F#2,328.0,0.031,92,91.0
4355,B4,328.25,417/1000,118,91.0
4356,E4,328.25,417/1000,118,91.0
4357,F#2,328.5,0.031,59,91.0
4358,G1,328.75,427/1000,97,91.0
4359,D4,328.75,427/1000,97,91.0
4360,A4,328.75,0.219,114,91.0
4361,E4,328.75,0.219,114,91.0
4362,G3,328.76,427/1000,69,91.0
4363,B3,328.76,427/1000,69,91.0
4364,D4,328.76,427/1000,69,91.0
4365,E-2,328.958,0.031,93,91.0
4366,F#2,328.958,0.031,93,91.0
4367,D2,328.958,0.031,93,91.0
4368,G4,329.0,0.219,116,91.0
4369,D4,329.0,0.219,116,91.0
4370,E4,329.25,6/25,114,91.0
4371,D4,329.25,6/25,114,91.0
4372,A1,329.5,69/125,127,91.0
4373,F#2,329.5,0.031,57,91.0
4374,D4,329.5,229/1000,116,91.0
4375,D4,329.5,229/1000,116,91.0
4376,A3,329.51,677/1000,71,91.0
4377,C4,329.51,677/1000,71,91.0
4378,E4,329.51,677/1000,71,91.0
4379,C4,329.75,6/25,115,91.0
4380,C4,329.75,6/25,115,91.0
4381,B3,330.0,127/200,112,91.0
4382,B3,330.0,771/1000,122,91.0
4383,B1,330.0,0.031,93,91.0
4384,F#2,330.0,0.031,93,91.0
4385,A1,330.5,177/1000,127,91.0
4386,F#2,330.5,0.031,61,91.0
4387,A3,330.51,49/100,71,91.0
4388,C4,330.51,49/100,71,91.0
4389,E4,330.51,49/100,71,91.0
4390,C4,330.75,0.125,81,91.0
4391,C4,330.75,0.125,81,91.0
4392,A3,330.75,0.125,81,91.0
4393,E4,330.75,0.125,81,91.0
4394,C4,330.75,0.125,50,91.0
4395,E4,330.75,0.125,50,91.0
4396,B3,330.875,13/125,113,91.0
4397,B3,330.875,13/125,113,91.0
4398,E-2,330.958,0.031,93,91.0
4399,F#2,330.958,0.031,93,91.0
4400,D2,330.958,0.031,93,91.0
4401,A3,331.0,69/125,111,91.0
4402,A3,331.0,229/500,122,91.0
4403,A1,331.0,0.125,95,91.0
4404,A3,331.0,0.125,95,91.0
4405,C4,331.0,0.125,95,91.0
4406,E4,331.0,0.125,95,91.0
4407,B1,331.25,0.406,87,91.0
4408,B3,331.25,0.406,87,91.0
4409,D4,331.25,0.406,87,91.0
4410,F#4,331.25,0.406,87,91.0
4411,G3,331.5,73/200,116,91.0
4412,G3,331.5,73/200,116,91.0
4413,D2,331.5,0.031,82,91.0
4414,F#2,331.5,0.031,82,91.0
4415,C2,332.0,479/1000,83,91.0
4416,G3,332.0,479/1000,83,91.0
4417,B3,332.0,479/1000,83,91.0
4418,E4,332.0,479/1000,83,91.0
4419,E4,332.0,0.906,80,91.0
4420,A4,332.0,0.906,80,91.0
4421,E5,332.0,0.906,80,91.0
4422,A5,332.0,0.906,80,91.0
4423,B1,332.0,0.031,92,91.0
4424,F#2,332.0,0.031,92,91.0
4425,F#2,332.5,0.031,59,91.0
4426,G1,332.75,427/1000,97,91.0
4427,D4,332.75,427/1000,97,91.0
4428,G3,332.76,427/1000,69,91.0
4429,B3,332.76,427/1000,69,91.0
4430,D4,332.76,427/1000,69,91.0
4431,E-2,332.958,0.031,93,91.0
4432,F#2,332.958,0.031,93,91.0
4433,D2,332.958,0.031,93,91.0
4434,D4,333.0,3.0,51,91.0
4435,D5,333.0,3.0,51,91.0
4436,G4,333.0,3.0,107,91.0
4437,G5,333.0,3.0,107,91.0
4438,A1,333.5,69/125,127,91.0
4439,F#2,333.5,0.031,57,91.0
4440,A3,333.51,677/1000,71,91.0
4441,C4,333.51,677/1000,71,91.0
4442,E4,333.51,677/1000,71,91.0
4443,B1,334.0,0.031,93,91.0
4444,F#2,334.0,0.031,93,91.0
4445,A1,334.5,177/1000,127,91.0
4446,F#2,334.5,0.031,61,91.0
4447,A3,334.51,49/100,71,91.0
4448,C4,334.51,49/100,71,91.0
4449,E4,334.51,49/100,71,91.0
4450,A3,334.75,0.125,49,91.0
4451,C4,334.75,0.125,49,91.0
4452,E4,334.75,0.125,49,91.0
4453,E-2,334.958,0.031,93,91.0
4454,F#2,334.958,0.031,93,91.0
4455,D2,334.958,0.031,93,91.0
4456,A1,335.0,0.125,95,91.0
4457,A3,335.0,0.125,95,91.0
4458,C4,335.0,0.125,95,91.0
4459,E4,335.0,0.125,95,91.0
4460,B1,335.25,0.406,87,91.0
4461,B3,335.25,0.406,87,91.0
4462,D4,335.25,0.406,87,91.0
4463,F#4,335.25,0.406,87,91.0
4464,F#2,335.5,0.031,97,91.0
4465,D2,335.75,0.031,27,91.0
4466,D2,335.812,0.031,15,91.0
4467,D2,335.885,0.031,14,91.0
4468,C2,336.0,479/1000,83,91.0
4469,G3,336.0,479/1000,83,91.0
4470,B3,336.0,479/1000,83,91.0
4471,E4,336.0,479/1000,83,91.0
4472,B1,336.0,0.031,92,91.0
4473,F#2,336.0,0.031,92,91.0
4474,D4,336.0,112/125,51,91.0
4475,D5,336.0,112/125,51,91.0
4476,G4,336.0,99/100,107,91.0
4477,G5,336.0,99/100,107,91.0
4478,F#2,336.5,0.031,59,91.0
4479,G1,336.75,427/1000,97,91.0
4480,D4,336.75,427/1000,97,91.0
4481,G3,336.76,427/1000,69,91.0
4482,B3,336.76,427/1000,69,91.0
4483,D4,336.76,427/1000,69,91.0
4484,E-2,336.958,0.031,93,91.0
4485,F#2,336.958,0.031,93,91.0
4486,D2,336.958,0.031,93,91.0
4487,A1,337.5,69/125,127,91.0
4488,F#2,337.5,0.031,57,91.0
4489,E4,337.5,99/250,99,91.0
4490,E5,337.5,99/250,99,91.0
4491,A3,337.51,677/1000,71,91.0
4492,C4,337.51,677/1000,71,91.0
4493,E4,337.51,677/1000,71,91.0
4494,G4,338.0,333/1000,87,91.0
4495,G5,338.0,333/1000,87,91.0
4496,B1,338.0,0.031,93,91.0
4497,F#2,338.0,0.031,93,91.0
4498,A1,338.5,177/1000,127,91.0
4499,F#2,338.5,0.031,61,91.0
4500,A3,338.51,49/100,71,91.0
4501,C4,338.51,49/100,71,91.0
4502,E4,338.51,49/100,71,91.0
4503,E4,338.75,177/500,105,91.0
4504,E5,338.75,177/500,105,91.0
4505,A3,338.75,0.125,49,91.0
4506,C4,338.75,0.125,49,91.0
4507,E4,338.75,0.125,49,91.0
4508,E-2,338.958,0.031,93,91.0
4509,F#2,338.958,0.031,93,91.0
4510,D2,338.958,0.031,93,91.0
4511,A1,339.0,0.125,95,91.0
4512,A3,339.0,0.125,95,91.0
4513,C4,339.0,0.125,95,91.0
4514,E4,339.0,0.125,95,91.0
4515,B1,339.25,0.406,87,91.0
4516,B3,339.25,0.406,87,91.0
4517,D4,339.25,0.406,87,91.0
4518,F#4,339.25,0.406,87,91.0
4519,D4,339.25,27/200,89,91.0
4520,D5,339.25,27/200,89,91.0
4521,F#2,339.5,0.031,97,91.0
4522,E4,339.5,479/1000,79,91.0
4523,E5,339.5,479/1000,79,91.0
4524,C2,340.0,479/1000,83,91.0
4525,G3,340.0,479/1000,83,91.0
4526,B3,340.0,479/1000,83,91.0
4527,E4,340.0,479/1000,83,91.0
4528,B3,340.0,23/200,107,91.0
4529,B4,340.0,23/200,107,91.0
4530,B1,340.0,0.031,92,91.0
4531,F#2,340.0,0.031,92,91.0
4532,F#2,340.5,0.031,59,91.0
4533,A3,340.5,417/1000,105,91.0
4534,A4,340.5,417/1000,105,91.0
4535,G1,340.75,427/1000,97,91.0
4536,D4,340.75,427/1000,97,91.0
4537,G3,340.76,427/1000,69,91.0
4538,B3,340.76,427/1000,69,91.0
4539,D4,340.76,427/1000,69,91.0
4540,E-2,340.958,0.031,93,91.0
4541,F#2,340.958,0.031,93,91.0
4542,D2,340.958,0.031,93,91.0
4543,G3,341.0,3.0,102,91.0
4544,G4,341.0,3.0,102,91.0
4545,A1,341.5,69/125,127,91.0
4546,F#2,341.5,0.031,57,91.0
4547,A3,341.51,677/1000,71,91.0
4548,C4,341.51,677/1000,71,91.0
4549,E4,341.51,677/1000,71,91.0
4550,B1,342.0,0.031,93,91.0
4551,F#2,342.0,0.031,93,91.0
4552,A1,342.5,177/1000,127,91.0
4553,F#2,342.5,0.031,61,91.0
4554,A3,342.51,49/100,71,91.0
4555,C4,342.51,49/100,71,91.0
4556,E4,342.51,49/100,71,91.0
4557,A3,342.75,0.125,49,91.0
4558,C4,342.75,0.125,49,91.0
4559,E4,342.75,0.125,49,91.0
4560,E-2,342.958,0.031,93,91.0
4561,F#2,342.958,0.031,93,91.0
4562,D2,342.958,0.031,93,91.0
4563,A1,343.0,0.125,95,91.0
4564,A3,343.0,0.125,95,91.0
4565,C4,343.0,0.125,95,91.0
4566,E4,343.0,0.125,95,91.0
4567,B1,343.25,0.406,87,91.0
4568,B3,343.25,0.406,87,91.0
4569,D4,343.25,0.406,87,91.0
4570,F#4,343.25,0.406,87,91.0
4571,F#2,343.5,0.031,97,91.0
4572,D2,343.75,0.031,27,91.0
4573,D2,343.812,0.031,15,91.0
4574,D2,343.885,0.031,14,91.0
4575,C2,344.0,479/1000,83,91.0
4576,G3,344.0,479/1000,83,91.0
4577,B3,344.0,479/1000,83,91.0
4578,E4,344.0,479/1000,83,91.0
4579,B1,344.0,0.031,92,91.0
4580,F#2,344.0,0.031,92,91.0
4581,G3,344.0,1.031,102,91.0
4582,G4,344.0,1.031,102,91.0
4583,F#2,344.5,0.031,59,91.0
4584,G1,344.75,427/1000,97,91.0
4585,D4,344.75,427/1000,97,91.0
4586,G3,344.76,427/1000,69,91.0
4587,B3,344.76,427/1000,69,91.0
4588,D4,344.76,427/1000,69,91.0
4589,E-2,344.958,0.031,93,91.0
4590,F#2,344.958,0.031,93,91.0
4591,D2,344.958,0.031,93,91.0
4592,A1,345.5,69/125,127,91.0
4593,F#2,345.5,0.031,57,91.0
4594,A3,345.51,677/1000,71,91.0
4595,C4,345.51,677/1000,71,91.0
4596,E4,345.51,677/1000,71,91.0
4597,B1,346.0,0.031,93,91.0
4598,F#2,346.0,0.031,93,91.0
4599,A1,346.5,177/1000,127,91.0
4600,F#2,346.5,0.031,61,91.0
4601,A3,346.51,49/100,71,91.0
4602,C4,346.51,49/100,71,91.0
4603,E4,346.51,49/100,71,91.0
4604,A3,346.75,0.125,49,91.0
4605,C4,346.75,0.125,49,91.0
4606,E4,346.75,0.125,49,91.0
4607,E-2,346.958,0.031,93,91.0
4608,F#2,346.958,0.031,93,91.0
4609,D2,346.958,0.031,93,91.0
4610,A1,347.0,0.125,95,91.0
4611,A3,347.0,0.125,95,91.0
4612,C4,347.0,0.125,95,91.0
4613,E4,347.0,0.125,95,91.0
4614,B1,347.25,0.406,87,91.0
4615,B3,347.25,0.406,87,91.0
4616,D4,347.25,0.406,87,91.0
4617,F#4,347.25,0.406,87,91.0
4618,D4,347.5,177/1000,98,91.0
4619,D5,347.5,177/1000,98,91.0
4620,D2,347.5,0.031,82,91.0
4621,F#2,347.5,0.031,82,91.0
4622,C2,348.0,479/1000,83,91.0
4623,G3,348.0,479/1000,83,91.0
4624,B3,348.0,479/1000,83,91.0
4625,E4,348.0,479/1000,83,91.0
4626,E4,348.0,927/1000,80,91.0
4627,A4,348.0,927/1000,80,91.0
4628,E5,348.0,927/1000,80,91.0
4629,A5,348.0,927/1000,80,91.0
4630,B1,348.0,0.031,92,91.0
4631,F#2,348.0,0.031,92,91.0
4632,F#2,348.5,0.031,59,91.0
4633,G1,348.75,427/1000,97,91.0
4634,D4,348.75,427/1000,97,91.0
4635,G3,348.76,427/1000,69,91.0
4636,B3,348.76,427/1000,69,91.0
4637,D4,348.76,427/1000,69,91.0
4638,E-2,348.958,0.031,93,91.0
4639,F#2,348.958,0.031,93,91.0
4640,D2,348.958,0.031,93,91.0
4641,D4,349.0,3.0,50,91.0
4642,D5,349.0,3.0,50,91.0
4643,G4,349.0,3.0,108,91.0
4644,G5,349.0,3.0,108,91.0
4645,A1,349.5,69/125,127,91.0
4646,F#2,349.5,0.031,57,91.0
4647,A3,349.51,677/1000,71,91.0
4648,C4,349.51,677/1000,71,91.0
4649,E4,349.51,677/1000,71,91.0
4650,B1,350.0,0.031,93,91.0
4651,F#2,350.0,0.031,93,91.0
4652,A1,350.5,177/1000,127,91.0
4653,F#2,350.5,0.031,61,91.0
4654,A3,350.51,49/100,71,91.0
4655,C4,350.51,49/100,71,91.0
4656,E4,350.51,49/100,71,91.0
4657,A3,350.75,0.125,49,91.0
4658,C4,350.75,0.125,49,91.0
4659,E4,350.75,0.125,49,91.0
4660,E-2,350.958,0.031,93,91.0
4661,F#2,350.958,0.031,93,91.0
4662,D2,350.958,0.031,93,91.0
4663,A1,351.0,0.125,95,91.0
4664,A3,351.0,0.125,95,91.0
4665,C4,351.0,0.125,95,91.0
4666,E4,351.0,0.125,95,91.0
4667,B1,351.25,0.406,87,91.0
4668,B3,351.25,0.406,87,91.0
4669,D4,351.25,0.406,87,91.0
4670,F#4,351.25,0.406,87,91.0
4671,F#2,351.5,0.031,97,91.0
4672,D2,351.75,0.031,27,91.0
4673,D2,351.812,0.031,15,91.0
4674,D2,351.885,0.031,14,91.0
4675,C2,352.0,479/1000,83,91.0
4676,G3,352.0,479/1000,83,91.0
4677,B3,352.0,479/1000,83,91.0
4678,E4,352.0,479/1000,83,91.0
4679,B1,352.0,0.031,92,91.0
4680,F#2,352.0,0.031,92,91.0
4681,D4,352.0,833/1000,50,91.0
4682,D5,352.0,833/1000,50,91.0
4683,G4,352.0,101/100,108,91.0
4684,G5,352.0,101/100,108,91.0
4685,F#2,352.5,0.031,59,91.0
4686,G1,352.75,427/1000,97,91.0
4687,D4,352.75,427/1000,97,91.0
4688,G3,352.76,427/1000,69,91.0
4689,B3,352.76,427/1000,69,91.0
4690,D4,352.76,427/1000,69,91.0
4691,E-2,352.958,0.031,93,91.0
4692,F#2,352.958,0.031,93,91.0
4693,D2,352.958,0.031,93,91.0
4694,F#2,353.5,0.031,57,91.0
4695,A1,353.5,49/100,108,91.0
4696,E4,353.5,49/100,108,91.0
4697,E5,353.5,49/100,108,91.0
4698,A3,353.51,677/1000,71,91.0
4699,C4,353.51,677/1000,71,91.0
4700,E4,353.51,677/1000,71,91.0
4701,G4,354.0,0.281,100,91.0
4702,G5,354.0,0.281,100,91.0
4703,B1,354.0,0.031,93,91.0
4704,F#2,354.0,0.031,93,91.0
4705,A1,354.5,177/1000,127,91.0
4706,F#2,354.5,0.031,61,91.0
4707,A3,354.51,49/100,71,91.0
4708,C4,354.51,49/100,71,91.0
4709,E4,354.51,49/100,71,91.0
4710,E4,354.75,271/1000,108,91.0
4711,E5,354.75,271/1000,108,91.0
4712,A3,354.75,0.125,49,91.0
4713,C4,354.75,0.125,49,91.0
4714,E4,354.75,0.125,49,91.0
4715,E-2,354.958,0.031,93,91.0
4716,F#2,354.958,0.031,93,91.0
4717,D2,354.958,0.031,93,91.0
4718,A1,355.0,0.125,95,91.0
4719,A3,355.0,0.125,95,91.0
4720,C4,355.0,0.125,95,91.0
4721,E4,355.0,0.125,95,91.0
4722,B1,355.25,0.406,87,91.0
4723,B3,355.25,0.406,87,91.0
4724,D4,355.25,0.406,87,91.0
4725,F#4,355.25,0.406,87,91.0
4726,D4,355.25,0.188,98,91.0
4727,D5,355.25,0.188,98,91.0
4728,F#2,355.5,0.031,97,91.0
4729,E4,355.5,0.25,83,91.0
4730,E5,355.5,0.25,83,91.0
4731,C2,356.0,479/1000,83,91.0
4732,G3,356.0,479/1000,83,91.0
4733,B3,356.0,479/1000,83,91.0
4734,E4,356.0,479/1000,83,91.0
4735,B3,356.0,0.156,108,91.0
4736,B4,356.0,0.156,108,91.0
4737,B1,356.0,0.031,92,91.0
4738,F#2,356.0,0.031,92,91.0
4739,F#2,356.5,0.031,59,91.0
4740,A3,356.5,417/1000,102,91.0
4741,A4,356.5,417/1000,102,91.0
4742,G1,356.75,427/1000,97,91.0
4743,D4,356.75,427/1000,97,91.0
4744,G3,356.76,427/1000,69,91.0
4745,B3,356.76,427/1000,69,91.0
4746,D4,356.76,427/1000,69,91.0
4747,E-2,356.958,0.031,93,91.0
4748,F#2,356.958,0.031,93,91.0
4749,D2,356.958,0.031,93,91.0
4750,G3,357.0,3.0,100,91.0
4751,G4,357.0,3.0,100,91.0
4752,A1,357.5,69/125,127,91.0
4753,F#2,357.5,0.031,57,91.0
4754,A3,357.51,677/1000,71,91.0
4755,C4,357.51,677/1000,71,91.0
4756,E4,357.51,677/1000,71,91.0
4757,B1,358.0,0.031,93,91.0
4758,F#2,358.0,0.031,93,91.0
4759,A1,358.5,177/1000,127,91.0
4760,F#2,358.5,0.031,61,91.0
4761,A3,358.51,49/100,71,91.0
4762,C4,358.51,49/100,71,91.0
4763,E4,358.51,49/100,71,91.0
4764,A3,358.75,0.125,49,91.0
4765,C4,358.75,0.125,49,91.0
4766,E4,358.75,0.125,49,91.0
4767,E-2,358.958,0.031,93,91.0
4768,F#2,358.958,0.031,93,91.0
4769,D2,358.958,0.031,93,91.0
4770,A1,359.0,0.125,95,91.0
4771,A3,359.0,0.125,95,91.0
4772,C4,359.0,0.125,95,91.0
4773,E4,359.0,0.125,95,91.0
4774,B1,359.25,0.406,87,91.0
4775,B3,359.25,0.406,87,91.0
4776,D4,359.25,0.406,87,91.0
4777,F#4,359.25,0.406,87,91.0
4778,F#2,359.5,0.031,97,91.0
4779,D2,359.75,0.031,27,91.0
4780,D2,359.812,0.031,15,91.0
4781,D2,359.885,0.031,14,91.0
4782,C2,360.0,479/1000,83,91.0
4783,G3,360.0,479/1000,83,91.0
4784,B3,360.0,479/1000,83,91.0
4785,E4,360.0,479/1000,83,91.0
4786,B1,360.0,0.031,92,91.0
4787,F#2,360.0,0.031,92,91.0
4788,G3,360.0,101/100,100,91.0
4789,G4,360.0,101/100,100,91.0
4790,F#2,360.5,0.031,59,91.0
4791,G1,360.75,427/1000,97,91.0
4792,D4,360.75,427/1000,97,91.0
4793,G3,360.76,427/1000,69,91.0
4794,B3,360.76,427/1000,69,91.0
4795,D4,360.76,427/1000,69,91.0
4796,E-2,360.958,0.031,93,91.0
4797,F#2,360.958,0.031,93,91.0
4798,D2,360.958,0.031,93,91.0
4799,A1,361.5,69/125,127,91.0
4800,F#2,361.5,0.031,57,91.0
4801,A3,361.51,677/1000,71,91.0
4802,C4,361.51,677/1000,71,91.0
4803,E4,361.51,677/1000,71,91.0
4804,B1,362.0,0.031,93,91.0
4805,F#2,362.0,0.031,93,91.0
4806,A1,362.5,177/1000,127,91.0
4807,F#2,362.5,0.031,61,91.0
4808,A3,362.51,49/100,71,91.0
4809,C4,362.51,49/100,71,91.0
4810,E4,362.51,49/100,71,91.0
4811,A3,362.75,0.125,49,91.0
4812,C4,362.75,0.125,49,91.0
4813,E4,362.75,0.125,49,91.0
4814,E-2,362.958,0.031,93,91.0
4815,F#2,362.958,0.031,93,91.0
4816,D2,362.958,0.031,93,91.0
4817,A1,363.0,0.125,95,91.0
4818,A3,363.0,0.125,95,91.0
4819,C4,363.0,0.125,95,91.0
4820,E4,363.0,0.125,95,91.0
4821,B1,363.25,0.406,87,91.0
4822,B3,363.25,0.406,87,91.0
4823,D4,363.25,0.406,87,91.0
4824,F#4,363.25,0.406,87,91.0
4825,D2,363.5,0.031,82,91.0
4826,F#2,363.5,0.031,82,91.0
4827,C2,364.0,479/1000,83,91.0
4828,G3,364.0,479/1000,83,91.0
4829,B3,364.0,479/1000,83,91.0
4830,E4,364.0,479/1000,83,91.0
4831,E4,364.0,0.906,80,91.0
4832,A4,364.0,0.906,80,91.0
4833,E5,364.0,0.906,80,91.0
4834,A5,364.0,0.906,80,91.0
4835,B1,364.0,0.031,92,91.0
4836,F#2,364.0,0.031,92,91.0
4837,F#2,364.5,0.031,59,91.0
4838,G1,364.75,427/1000,97,91.0
4839,D4,364.75,427/1000,97,91.0
4840,G3,364.76,427/1000,69,91.0
4841,B3,364.76,427/1000,69,91.0
4842,D4,364.76,427/1000,69,91.0
4843,E-2,364.958,0.031,93,91.0
4844,F#2,364.958,0.031,93,91.0
4845,D2,364.958,0.031,93,91.0
4846,D4,365.0,3.0,51,91.0
4847,D5,365.0,3.0,51,91.0
4848,G4,365.0,3.0,107,91.0
4849,G5,365.0,3.0,107,91.0
4850,A1,365.5,69/125,127,91.0
4851,F#2,365.5,0.031,57,91.0
4852,A3,365.51,677/1000,71,91.0
4853,C4,365.51,677/1000,71,91.0
4854,E4,365.51,677/1000,71,91.0
4855,B1,366.0,0.031,93,91.0
4856,F#2,366.0,0.031,93,91.0
4857,A1,366.5,177/1000,127,91.0
4858,F#2,366.5,0.031,61,91.0
4859,A3,366.51,49/100,71,91.0
4860,C4,366.51,49/100,71,91.0
4861,E4,366.51,49/100,71,91.0
4862,A3,366.75,0.125,49,91.0
4863,C4,366.75,0.125,49,91.0
4864,E4,366.75,0.125,49,91.0
4865,E-2,366.958,0.031,93,91.0
4866,F#2,366.958,0.031,93,91.0
4867,D2,366.958,0.031,93,91.0
4868,A1,367.0,0.125,95,91.0
4869,A3,367.0,0.125,95,91.0
4870,C4,367.0,0.125,95,91.0
4871,E4,367.0,0.125,95,91.0
4872,B1,367.25,0.406,87,91.0
4873,B3,367.25,0.406,87,91.0
4874,D4,367.25,0.406,87,91.0
4875,F#4,367.25,0.406,87,91.0
4876,F#2,367.5,0.031,97,91.0
4877,D2,367.75,0.031,27,91.0
4878,D2,367.812,0.031,15,91.0
4879,D2,367.885,0.031,14,91.0
4880,C2,368.0,479/1000,83,91.0
4881,G3,368.0,479/1000,83,91.0
4882,B3,368.0,479/1000,83,91.0
4883,E4,368.0,479/1000,83,91.0
4884,B1,368.0,0.031,92,91.0
4885,F#2,368.0,0.031,92,91.0
4886,D4,368.0,112/125,51,91.0
4887,D5,368.0,112/125,51,91.0
4888,G4,368.0,99/100,107,91.0
4889,G5,368.0,99/100,107,91.0
4890,F#2,368.5,0.031,59,91.0
4891,G1,368.75,427/1000,97,91.0
4892,D4,368.75,427/1000,97,91.0
4893,G3,368.76,427/1000,69,91.0
4894,B3,368.76,427/1000,69,91.0
4895,D4,368.76,427/1000,69,91.0
4896,E-2,368.958,0.031,93,91.0
4897,F#2,368.958,0.031,93,91.0
4898,D2,368.958,0.031,93,91.0
4899,A1,369.5,69/125,127,91.0
4900,F#2,369.5,0.031,57,91.0
4901,E4,369.5,99/250,99,91.0
4902,E5,369.5,99/250,99,91.0
4903,A3,369.51,677/1000,71,91.0
4904,C4,369.51,677/1000,71,91.0
4905,E4,369.51,677/1000,71,91.0
4906,G4,370.0,333/1000,87,91.0
4907,G5,370.0,333/1000,87,91.0
4908,B1,370.0,0.031,93,91.0
4909,F#2,370.0,0.031,93,91.0
4910,A1,370.5,177/1000,127,91.0
4911,F#2,370.5,0.031,61,91.0
4912,A3,370.51,49/100,71,91.0
4913,C4,370.51,49/100,71,91.0
4914,E4,370.51,49/100,71,91.0
4915,E4,370.75,177/500,105,91.0
4916,E5,370.75,177/500,105,91.0
4917,A3,370.75,0.125,49,91.0
4918,C4,370.75,0.125,49,91.0
4919,E4,370.75,0.125,49,91.0
4920,E-2,370.958,0.031,93,91.0
4921,F#2,370.958,0.031,93,91.0
4922,D2,370.958,0.031,93,91.0
4923,A1,371.0,0.125,95,91.0
4924,A3,371.0,0.125,95,91.0
4925,C4,371.0,0.125,95,91.0
4926,E4,371.0,0.125,95,91.0
4927,B1,371.25,0.406,87,91.0
4928,B3,371.25,0.406,87,91.0
4929,D4,371.25,0.406,87,91.0
4930,F#4,371.25,0.406,87,91.0
4931,D4,371.25,27/200,89,91.0
4932,D5,371.25,27/200,89,91.0
4933,F#2,371.5,0.031,97,91.0
4934,E4,371.5,479/1000,79,91.0
4935,E5,371.5,479/1000,79,91.0
4936,C2,372.0,479/1000,83,91.0
4937,G3,372.0,479/1000,83,91.0
4938,B3,372.0,479/1000,83,91.0
4939,E4,372.0,479/1000,83,91.0
4940,B3,372.0,23/200,107,91.0
4941,B4,372.0,23/200,107,91.0
4942,B1,372.0,0.031,92,91.0
4943,F#2,372.0,0.031,92,91.0
4944,F#2,372.5,0.031,59,91.0
4945,A3,372.5,417/1000,105,91.0
4946,A4,372.5,417/1000,105,91.0
4947,G1,372.75,427/1000,97,91.0
4948,D4,372.75,427/1000,97,91.0
4949,G3,372.76,427/1000,69,91.0
4950,B3,372.76,427/1000,69,91.0
4951,D4,372.76,427/1000,69,91.0
4952,E-2,372.958,0.031,93,91.0
4953,F#2,372.958,0.031,93,91.0
4954,D2,372.958,0.031,93,91.0
4955,G3,373.0,3.0,102,91.0
4956,G4,373.0,3.0,102,91.0
4957,A1,373.5,69/125,127,91.0
4958,F#2,373.5,0.031,57,91.0
4959,A3,373.51,677/1000,71,91.0
4960,C4,373.51,677/1000,71,91.0
4961,E4,373.51,677/1000,71,91.0
4962,B1,374.0,0.031,93,91.0
4963,F#2,374.0,0.031,93,91.0
4964,A1,374.5,177/1000,127,91.0
4965,F#2,374.5,0.031,61,91.0
4966,A3,374.51,49/100,71,91.0
4967,C4,374.51,49/100,71,91.0
4968,E4,374.51,49/100,71,91.0
4969,A3,374.75,0.125,49,91.0
4970,C4,374.75,0.125,49,91.0
4971,E4,374.75,0.125,49,91.0
4972,E-2,374.958,0.031,93,91.0
4973,F#2,374.958,0.031,93,91.0
4974,D2,374.958,0.031,93,91.0
4975,A1,375.0,0.125,95,91.0
4976,A3,375.0,0.125,95,91.0
4977,C4,375.0,0.125,95,91.0
4978,E4,375.0,0.125,95,91.0
4979,B1,375.25,0.406,87,91.0
4980,B3,375.25,0.406,87,91.0
4981,D4,375.25,0.406,87,91.0
4982,F#4,375.25,0.406,87,91.0
4983,F#2,375.5,0.031,97,91.0
4984,D2,375.75,0.031,27,91.0
4985,D2,375.812,0.031,15,91.0
4986,D2,375.885,0.031,14,91.0
4987,C2,376.0,479/1000,83,91.0
4988,G3,376.0,479/1000,83,91.0
4989,B3,376.0,479/1000,83,91.0
4990,E4,376.0,479/1000,83,91.0
4991,B1,376.0,0.031,92,91.0
4992,F#2,376.0,0.031,92,91.0
4993,G3,376.0,1.031,102,91.0
4994,G4,376.0,1.031,102,91.0
4995,F#2,376.5,0.031,59,91.0
4996,G1,376.75,427/1000,97,91.0
4997,D4,376.75,427/1000,97,91.0
4998,G3,376.76,427/1000,69,91.0
4999,B3,376.76,427/1000,69,91.0
5000,D4,376.76,427/1000,69,91.0
5001,E-2,376.958,0.031,93,91.0
5002,F#2,376.958,0.031,93,91.0
5003,D2,376.958,0.031,93,91.0
5004,A1,377.5,69/125,127,91.0
5005,F#2,377.5,0.031,57,91.0
5006,A3,377.51,677/1000,71,91.0
5007,C4,377.51,677/1000,71,91.0
5008,E4,377.51,677/1000,71,91.0
5009,B1,378.0,0.031,93,91.0
5010,F#2,378.0,0.031,93,91.0
5011,A1,378.5,177/1000,127,91.0
5012,F#2,378.5,0.031,61,91.0
5013,A3,378.51,49/100,71,91.0
5014,C4,378.51,49/100,71,91.0
5015,E4,378.51,49/100,71,91.0
5016,A3,378.75,0.125,49,91.0
5017,C4,378.75,0.125,49,91.0
5018,E4,378.75,0.125,49,91.0
5019,E-2,378.958,0.031,93,91.0
5020,F#2,378.958,0.031,93,91.0
5021,D2,378.958,0.031,93,91.0
5022,A1,379.0,0.125,95,91.0
5023,A3,379.0,0.125,95,91.0
5024,C4,379.0,0.125,95,91.0
5025,E4,379.0,0.125,95,91.0
5026,B1,379.25,0.406,87,91.0
5027,B3,379.25,0.406,87,91.0
5028,D4,379.25,0.406,87,91.0
5029,F#4,379.25,0.406,87,91.0
5030,D4,379.5,177/1000,98,91.0
5031,D5,379.5,177/1000,98,91.0
5032,D2,379.5,0.031,82,91.0
5033,F#2,379.5,0.031,82,91.0
5034,C2,380.0,479/1000,83,91.0
5035,G3,380.0,479/1000,83,91.0
5036,B3,380.0,479/1000,83,91.0
5037,E4,380.0,479/1000,83,91.0
5038,E4,380.0,927/1000,80,91.0
5039,A4,380.0,927/1000,80,91.0
5040,E5,380.0,927/1000,80,91.0
5041,A5,380.0,927/1000,80,91.0
5042,B1,380.0,0.031,92,91.0
5043,F#2,380.0,0.031,92,91.0
5044,F#2,380.5,0.031,59,91.0
5045,G1,380.75,427/1000,97,91.0
5046,D4,380.75,427/1000,97,91.0
5047,G3,380.76,427/1000,69,91.0
5048,B3,380.76,427/1000,69,91.0
5049,D4,380.76,427/1000,69,91.0
5050,E-2,380.958,0.031,93,91.0
5051,F#2,380.958,0.031,93,91.0
5052,D2,380.958,0.031,93,91.0
5053,D4,381.0,3.0,50,91.0
5054,D5,381.0,3.0,50,91.0
5055,G4,381.0,3.0,108,91.0
5056,G5,381.0,3.0,108,91.0
5057,A1,381.5,69/125,127,91.0
5058,F#2,381.5,0.031,57,91.0
5059,A3,381.51,677/1000,71,91.0
5060,C4,381.51,677/1000,71,91.0
5061,E4,381.51,677/1000,71,91.0
5062,B1,382.0,0.031,93,91.0
5063,F#2,382.0,0.031,93,91.0
5064,A1,382.5,177/1000,127,91.0
5065,F#2,382.5,0.031,61,91.0
5066,A3,382.51,49/100,71,91.0
5067,C4,382.51,49/100,71,91.0
5068,E4,382.51,49/100,71,91.0
5069,A3,382.75,0.125,49,91.0
5070,C4,382.75,0.125,49,91.0
5071,E4,382.75,0.125,49,91.0
5072,E-2,382.958,0.031,93,91.0
5073,F#2,382.958,0.031,93,91.0
5074,D2,382.958,0.031,93,91.0
5075,A1,383.0,0.125,95,91.0
5076,A3,383.0,0.125,95,91.0
5077,C4,383.0,0.125,95,91.0
5078,E4,383.0,0.125,95,91.0
5079,B1,383.25,0.406,87,91.0
5080,B3,383.25,0.406,87,91.0
5081,D4,383.25,0.406,87,91.0
5082,F#4,383.25,0.406,87,91.0
5083,F#2,383.5,0.031,97,91.0
5084,D2,383.75,0.031,27,91.0
5085,D2,383.812,0.031,15,91.0
5086,D2,383.885,0.031,14,91.0
5087,C2,384.0,479/1000,83,91.0
5088,G3,384.0,479/1000,83,91.0
5089,B3,384.0,479/1000,83,91.0
5090,E4,384.0,479/1000,83,91.0
5091,B1,384.0,0.031,92,91.0
5092,F#2,384.0,0.031,92,91.0
5093,D4,384.0,823/1000,50,91.0
5094,D5,384.0,823/1000,50,91.0
5095,G4,384.0,101/100,108,91.0
5096,G5,384.0,101/100,108,91.0
5097,F#2,384.5,0.031,59,91.0
5098,G1,384.75,427/1000,97,91.0
5099,D4,384.75,427/1000,97,91.0
5100,G3,384.76,427/1000,69,91.0
5101,B3,384.76,427/1000,69,91.0
5102,D4,384.76,427/1000,69,91.0
5103,E-2,384.958,0.031,93,91.0
5104,F#2,384.958,0.031,93,91.0
5105,D2,384.958,0.031,93,91.0
5106,F#2,385.5,0.031,57,91.0
5107,A1,385.5,49/100,108,91.0
5108,E4,385.5,49/100,108,91.0
5109,E5,385.5,49/100,108,91.0
5110,A3,385.51,677/1000,71,91.0
5111,C4,385.51,677/1000,71,91.0
5112,E4,385.51,677/1000,71,91.0
5113,G4,386.0,0.281,100,91.0
5114,G5,386.0,0.281,100,91.0
5115,B1,386.0,0.031,93,91.0
5116,F#2,386.0,0.031,93,91.0
5117,A1,386.5,177/1000,127,91.0
5118,F#2,386.5,0.031,61,91.0
5119,A3,386.51,49/100,71,91.0
5120,C4,386.51,49/100,71,91.0
5121,E4,386.51,49/100,71,91.0
5122,E4,386.75,271/1000,108,91.0
5123,E5,386.75,271/1000,108,91.0
5124,A3,386.75,0.125,49,91.0
5125,C4,386.75,0.125,49,91.0
5126,E4,386.75,0.125,49,91.0
5127,E-2,386.958,0.031,93,91.0
5128,F#2,386.958,0.031,93,91.0
5129,D2,386.958,0.031,93,91.0
5130,A1,387.0,0.125,95,91.0
5131,A3,387.0,0.125,95,91.0
5132,C4,387.0,0.125,95,91.0
5133,E4,387.0,0.125,95,91.0
5134,B1,387.25,0.406,87,91.0
5135,B3,387.25,0.406,87,91.0
5136,D4,387.25,0.406,87,91.0
5137,F#4,387.25,0.406,87,91.0
5138,D4,387.25,0.188,98,91.0
5139,D5,387.25,0.188,98,91.0
5140,F#2,387.5,0.031,97,91.0
5141,E4,387.5,0.25,83,91.0
5142,E5,387.5,0.25,83,91.0
5143,C2,388.0,479/1000,83,91.0
5144,G3,388.0,479/1000,83,91.0
5145,B3,388.0,479/1000,83,91.0
5146,E4,388.0,479/1000,83,91.0
5147,B3,388.0,0.156,108,91.0
5148,B4,388.0,0.156,108,91.0
5149,B1,388.0,0.031,92,91.0
5150,F#2,388.0,0.031,92,91.0
5151,F#2,388.5,0.031,59,91.0
5152,A3,388.5,417/1000,102,91.0
5153,A4,388.5,417/1000,102,91.0
5154,G1,388.75,427/1000,97,91.0
5155,D4,388.75,427/1000,97,91.0
5156,G3,388.76,427/1000,69,91.0
5157,B3,388.76,427/1000,69,91.0
5158,D4,388.76,427/1000,69,91.0
5159,E-2,388.958,0.031,93,91.0
5160,F#2,388.958,0.031,93,91.0
5161,D2,388.958,0.031,93,91.0
5162,G3,389.0,3.0,100,91.0
5163,G4,389.0,3.0,100,91.0
5164,A1,389.5,69/125,127,91.0
5165,F#2,389.5,0.031,57,91.0
5166,A3,389.51,677/1000,71,91.0
5167,C4,389.51,677/1000,71,91.0
5168,E4,389.51,677/1000,71,91.0
5169,B1,390.0,0.031,93,91.0
5170,F#2,390.0,0.031,93,91.0
5171,A1,390.5,177/1000,127,91.0
5172,F#2,390.5,0.031,61,91.0
5173,A3,390.51,49/100,71,91.0
5174,C4,390.51,49/100,71,91.0
5175,E4,390.51,49/100,71,91.0
5176,A3,390.75,0.125,49,91.0
5177,C4,390.75,0.125,49,91.0
5178,E4,390.75,0.125,49,91.0
5179,E-2,390.958,0.031,93,91.0
5180,F#2,390.958,0.031,93,91.0
5181,D2,390.958,0.031,93,91.0
5182,A1,391.0,0.125,95,91.0
5183,A3,391.0,0.125,95,91.0
5184,C4,391.0,0.125,95,91.0
5185,E4,391.0,0.125,95,91.0
5186,B1,391.25,0.406,87,91.0
5187,B3,391.25,0.406,87,91.0
5188,D4,391.25,0.406,87,91.0
5189,F#4,391.25,0.406,87,91.0
5190,F#2,391.5,0.031,97,91.0
5191,D2,391.75,0.031,27,91.0
5192,D2,391.812,0.031,15,91.0
5193,D2,391.885,0.031,14,91.0
5194,C2,392.0,479/1000,83,91.0
5195,G3,392.0,479/1000,83,91.0
5196,B3,392.0,479/1000,83,91.0
5197,E4,392.0,479/1000,83,91.0
5198,B1,392.0,0.031,92,91.0
5199,F#2,392.0,0.031,92,91.0
5200,G3,392.0,301/100,100,91.0
5201,G4,392.0,301/100,100,91.0
5202,F#2,392.5,0.031,59,91.0
5203,G1,392.75,427/1000,97,91.0
5204,D4,392.75,427/1000,97,91.0
5205,G3,392.76,427/1000,69,91.0
5206,B3,392.76,427/1000,69,91.0
5207,D4,392.76,427/1000,69,91.0
5208,E-2,392.958,0.031,93,91.0
5209,F#2,392.958,0.031,93,91.0
5210,D2,392.958,0.031,93,91.0
5211,A1,393.5,69/125,127,91.0
5212,F#2,393.5,0.031,57,91.0
5213,A3,393.51,677/1000,71,91.0
5214,C4,393.51,677/1000,71,91.0
5215,E4,393.51,677/1000,71,91.0
5216,B1,394.0,0.031,93,91.0
5217,F#2,394.0,0.031,93,91.0
5218,A1,394.5,177/1000,127,91.0
5219,F#2,394.5,0.031,61,91.0
5220,A3,394.51,49/100,71,91.0
5221,C4,394.51,49/100,71,91.0
5222,E4,394.51,49/100,71,91.0
5223,A3,394.75,0.125,49,91.0
5224,C4,394.75,0.125,49,91.0
5225,E4,394.75,0.125,49,91.0
5226,E-2,394.958,0.031,93,91.0
5227,F#2,394.958,0.031,93,91.0
5228,D2,394.958,0.031,93,91.0
5229,A1,395.0,0.125,95,91.0
5230,A3,395.0,0.125,95,91.0
5231,C4,395.0,0.125,95,91.0
5232,E4,395.0,0.125,95,91.0
5233,B1,395.25,0.75,87,91.0
5234,B3,395.25,0.75,87,91.0
5235,D4,395.25,0.75,87,91.0
5236,F#4,395.25,0.75,87,91.0
5237,E3,395.25,0.75,55,91.0
5238,B3,395.25,0.75,55,91.0
5239,E4,395.25,0.75,55,91.0
5240,D2,395.25,0.031,86,91.0
5241,E3,395.25,0.031,86,91.0
5242,B1,396.0,3.75,87,91.0
5243,B3,396.0,3.75,87,91.0
5244,D4,396.0,3.75,87,91.0
5245,F#4,396.0,3.75,87,91.0
5246,E3,396.0,4.0,55,91.0
5247,B3,396.0,4.0,55,91.0
5248,E4,396.0,4.0,55,91.0
5249,E3,400.0,1.0,55,91.0
5250,B3,400.0,1.0,55,91.0
5251,E4,400.0,1.0,55,91.0
