,note_name,start_time,duration,velocity,tempo
0,D6,0.0,0.125,127,95.0
1,F6,0.5,0.125,127,95.0
2,A6,1.0,0.125,127,95.0
3,D6,1.5,0.125,127,95.0
4,B-6,2.0,0.125,127,95.0
5,D6,2.5,0.125,127,95.0
6,A6,3.0,0.125,127,95.0
7,F6,3.5,0.125,127,95.0
8,D6,4.0,0.125,127,95.0
9,F6,4.5,0.125,127,95.0
10,A6,5.0,0.125,127,95.0
11,D6,5.5,0.125,127,95.0
12,B-6,6.0,0.125,127,95.0
13,D6,6.5,0.125,127,95.0
14,A6,7.0,0.125,127,95.0
15,F6,7.5,0.125,127,95.0
16,D6,8.0,0.125,127,95.0
17,F6,8.5,0.125,127,95.0
18,A6,9.0,0.125,127,95.0
19,D6,9.5,0.125,127,95.0
20,C7,10.0,0.125,127,95.0
21,D6,10.5,0.125,127,95.0
22,B-6,11.0,0.125,127,95.0
23,A6,11.5,0.125,127,95.0
24,D6,12.0,0.125,127,95.0
25,F6,12.5,0.125,127,95.0
26,A6,13.0,0.125,127,95.0
27,D6,13.5,0.125,127,95.0
28,C7,14.0,0.125,127,95.0
29,D6,14.5,0.125,127,95.0
30,B-6,15.0,0.125,127,95.0
31,B-3,15.0,0.25,127,95.0
32,B-3,15.0,0.25,127,95.0
33,B-3,15.25,0.25,127,95.0
34,B-3,15.25,0.25,127,95.0
35,A6,15.5,0.125,127,95.0
36,D3,15.5,0.25,127,95.0
37,D3,15.5,0.25,127,95.0
38,D3,15.75,0.25,127,95.0
39,D3,15.75,0.25,127,95.0
40,D6,16.0,0.125,127,95.0
41,F6,16.5,0.125,127,95.0
42,A2,16.5,0.125,127,95.0
43,D2,16.5,0.125,127,95.0
44,D3,16.5,0.125,127,95.0
45,A2,16.5,0.125,127,95.0
46,D2,16.5,0.125,127,95.0
47,D3,16.5,0.125,127,95.0
48,A6,17.0,0.125,127,95.0
49,A2,17.0,0.125,127,95.0
50,D2,17.0,0.125,127,95.0
51,D3,17.0,0.125,127,95.0
52,A2,17.0,0.125,127,95.0
53,D2,17.0,0.125,127,95.0
54,D3,17.0,0.125,127,95.0
55,D6,17.5,0.125,127,95.0
56,B-6,18.0,0.125,127,95.0
57,A2,18.0,0.125,127,95.0
58,D2,18.0,0.125,127,95.0
59,D3,18.0,0.125,127,95.0
60,A2,18.0,0.125,127,95.0
61,D2,18.0,0.125,127,95.0
62,D3,18.0,0.125,127,95.0
63,D6,18.5,0.125,127,95.0
64,A2,18.5,0.125,127,95.0
65,D2,18.5,0.125,127,95.0
66,D3,18.5,0.125,127,95.0
67,A2,18.5,0.125,127,95.0
68,D2,18.5,0.125,127,95.0
69,D3,18.5,0.125,127,95.0
70,A6,19.0,0.125,127,95.0
71,F6,19.5,0.125,127,95.0
72,A2,19.5,0.125,127,95.0
73,D2,19.5,0.125,127,95.0
74,D3,19.5,0.125,127,95.0
75,A2,19.5,0.125,127,95.0
76,D2,19.5,0.125,127,95.0
77,D3,19.5,0.125,127,95.0
78,D6,20.0,0.125,127,95.0
79,A2,20.0,0.125,127,95.0
80,D2,20.0,0.125,127,95.0
81,D3,20.0,0.125,127,95.0
82,A2,20.0,0.125,127,95.0
83,D2,20.0,0.125,127,95.0
84,D3,20.0,0.125,127,95.0
85,F6,20.5,0.125,127,95.0
86,A6,21.0,0.125,127,95.0
87,A2,21.0,0.125,127,95.0
88,D2,21.0,0.125,127,95.0
89,D3,21.0,0.125,127,95.0
90,A2,21.0,0.125,127,95.0
91,D2,21.0,0.125,127,95.0
92,D3,21.0,0.125,127,95.0
93,D6,21.5,0.125,127,95.0
94,A2,21.5,0.125,127,95.0
95,D2,21.5,0.125,127,95.0
96,D3,21.5,0.125,127,95.0
97,A2,21.5,0.125,127,95.0
98,D2,21.5,0.125,127,95.0
99,D3,21.5,0.125,127,95.0
100,B-6,22.0,0.125,127,95.0
101,D6,22.5,0.125,127,95.0
102,D3,22.5,0.25,127,95.0
103,D3,22.5,0.25,127,95.0
104,A2,22.5,0.125,127,95.0
105,D2,22.5,0.125,127,95.0
106,D3,22.5,0.125,127,95.0
107,A2,22.5,0.125,127,95.0
108,D2,22.5,0.125,127,95.0
109,D3,22.5,0.125,127,95.0
110,D3,22.75,0.25,127,95.0
111,D3,22.75,0.25,127,95.0
112,A6,23.0,0.125,127,95.0
113,A3,23.0,0.25,127,95.0
114,A3,23.0,0.25,127,95.0
115,A2,23.0,0.125,127,95.0
116,D2,23.0,0.125,127,95.0
117,D3,23.0,0.125,127,95.0
118,A2,23.0,0.125,127,95.0
119,D2,23.0,0.125,127,95.0
120,D3,23.0,0.125,127,95.0
121,A3,23.25,0.25,127,95.0
122,A3,23.25,0.25,127,95.0
123,F6,23.5,0.125,127,95.0
124,D3,23.5,0.25,127,95.0
125,D3,23.5,0.25,127,95.0
126,A2,23.5,0.125,127,95.0
127,D2,23.5,0.125,127,95.0
128,D3,23.5,0.125,127,95.0
129,A2,23.5,0.125,127,95.0
130,D2,23.5,0.125,127,95.0
131,D3,23.5,0.125,127,95.0
132,D3,23.75,0.25,127,95.0
133,D3,23.75,0.25,127,95.0
134,D6,24.0,0.125,127,95.0
135,F6,24.5,0.125,127,95.0
136,B-2,24.5,0.125,127,95.0
137,D2,24.5,0.125,127,95.0
138,D3,24.5,0.125,127,95.0
139,B-2,24.5,0.125,127,95.0
140,D2,24.5,0.125,127,95.0
141,D3,24.5,0.125,127,95.0
142,A6,25.0,0.125,127,95.0
143,B-2,25.0,0.125,127,95.0
144,D2,25.0,0.125,127,95.0
145,D3,25.0,0.125,127,95.0
146,B-2,25.0,0.125,127,95.0
147,D2,25.0,0.125,127,95.0
148,D3,25.0,0.125,127,95.0
149,D6,25.5,0.125,127,95.0
150,C7,26.0,0.125,127,95.0
151,B-2,26.0,0.125,127,95.0
152,D2,26.0,0.125,127,95.0
153,D3,26.0,0.125,127,95.0
154,B-2,26.0,0.125,127,95.0
155,D2,26.0,0.125,127,95.0
156,D3,26.0,0.125,127,95.0
157,D6,26.5,0.125,127,95.0
158,B-2,26.5,0.125,127,95.0
159,D2,26.5,0.125,127,95.0
160,D3,26.5,0.125,127,95.0
161,B-2,26.5,0.125,127,95.0
162,D2,26.5,0.125,127,95.0
163,D3,26.5,0.125,127,95.0
164,B-6,27.0,0.125,127,95.0
165,A6,27.5,0.125,127,95.0
166,B-2,27.5,0.125,127,95.0
167,D2,27.5,0.125,127,95.0
168,D3,27.5,0.125,127,95.0
169,B-2,27.5,0.125,127,95.0
170,D2,27.5,0.125,127,95.0
171,D3,27.5,0.125,127,95.0
172,D6,28.0,0.125,127,95.0
173,B-2,28.0,0.125,127,95.0
174,D2,28.0,0.125,127,95.0
175,D3,28.0,0.125,127,95.0
176,B-2,28.0,0.125,127,95.0
177,D2,28.0,0.125,127,95.0
178,D3,28.0,0.125,127,95.0
179,F6,28.5,0.125,127,95.0
180,A6,29.0,0.125,127,95.0
181,B-2,29.0,0.125,127,95.0
182,D2,29.0,0.125,127,95.0
183,D3,29.0,0.125,127,95.0
184,B-2,29.0,0.125,127,95.0
185,D2,29.0,0.125,127,95.0
186,D3,29.0,0.125,127,95.0
187,D6,29.5,0.125,127,95.0
188,B-2,29.5,0.125,127,95.0
189,D2,29.5,0.125,127,95.0
190,D3,29.5,0.125,127,95.0
191,B-2,29.5,0.125,127,95.0
192,D2,29.5,0.125,127,95.0
193,D3,29.5,0.125,127,95.0
194,C7,30.0,0.125,127,95.0
195,D6,30.5,0.125,127,95.0
196,D3,30.5,0.25,127,95.0
197,D3,30.5,0.25,127,95.0
198,B-2,30.5,0.125,127,95.0
199,D2,30.5,0.125,127,95.0
200,D3,30.5,0.125,127,95.0
201,B-2,30.5,0.125,127,95.0
202,D2,30.5,0.125,127,95.0
203,D3,30.5,0.125,127,95.0
204,D3,30.75,0.25,127,95.0
205,D3,30.75,0.25,127,95.0
206,B-6,31.0,0.125,127,95.0
207,B-3,31.0,0.25,127,95.0
208,B-3,31.0,0.25,127,95.0
209,B-2,31.0,0.125,127,95.0
210,D2,31.0,0.125,127,95.0
211,D3,31.0,0.125,127,95.0
212,B-2,31.0,0.125,127,95.0
213,D2,31.0,0.125,127,95.0
214,D3,31.0,0.125,127,95.0
215,E2,31.0,0.25,127,95.0
216,D2,31.0,0.25,127,95.0
217,B-3,31.25,0.25,127,95.0
218,B-3,31.25,0.25,127,95.0
219,C2,31.25,0.25,127,95.0
220,A6,31.5,0.125,127,95.0
221,D3,31.5,0.25,127,95.0
222,D3,31.5,0.25,127,95.0
223,B-2,31.5,0.125,127,95.0
224,D2,31.5,0.125,127,95.0
225,D3,31.5,0.125,127,95.0
226,B-2,31.5,0.125,127,95.0
227,D2,31.5,0.125,127,95.0
228,D3,31.5,0.125,127,95.0
229,D3,31.75,0.25,127,95.0
230,D3,31.75,0.25,127,95.0
231,D6,32.0,0.125,127,95.0
232,F#2,32.0,0.25,127,95.0
233,C2,32.0,0.25,127,95.0
234,F#2,32.25,0.25,127,95.0
235,F6,32.5,0.125,127,95.0
236,F#2,32.5,0.25,127,95.0
237,A2,32.5,0.125,127,95.0
238,D2,32.5,0.125,127,95.0
239,D3,32.5,0.125,127,95.0
240,A2,32.5,0.125,127,95.0
241,D2,32.5,0.125,127,95.0
242,D3,32.5,0.125,127,95.0
243,F#2,32.75,0.25,127,95.0
244,C2,32.875,0.125,127,95.0
245,A6,33.0,0.125,127,95.0
246,A2,33.0,0.125,127,95.0
247,D2,33.0,0.125,127,95.0
248,D3,33.0,0.125,127,95.0
249,A2,33.0,0.125,127,95.0
250,D2,33.0,0.125,127,95.0
251,D3,33.0,0.125,127,95.0
252,F#2,33.0,0.25,127,95.0
253,D2,33.0,0.25,127,95.0
254,E2,33.0,0.25,127,95.0
255,F#2,33.25,0.25,127,95.0
256,D6,33.5,0.125,127,95.0
257,F#2,33.5,0.25,127,95.0
258,F#2,33.75,0.25,127,95.0
259,B-6,34.0,0.125,127,95.0
260,A2,34.0,0.125,127,95.0
261,D2,34.0,0.125,127,95.0
262,D3,34.0,0.125,127,95.0
263,A2,34.0,0.125,127,95.0
264,D2,34.0,0.125,127,95.0
265,D3,34.0,0.125,127,95.0
266,F#2,34.0,0.25,127,95.0
267,C2,34.0,0.25,127,95.0
268,F#2,34.25,0.25,127,95.0
269,D6,34.5,0.125,127,95.0
270,A2,34.5,0.125,127,95.0
271,D2,34.5,0.125,127,95.0
272,D3,34.5,0.125,127,95.0
273,A2,34.5,0.125,127,95.0
274,D2,34.5,0.125,127,95.0
275,D3,34.5,0.125,127,95.0
276,F#2,34.5,0.25,127,95.0
277,C2,34.5,0.25,127,95.0
278,F#2,34.75,0.25,127,95.0
279,A6,35.0,0.125,127,95.0
280,F#2,35.0,0.25,127,95.0
281,D2,35.0,0.25,127,95.0
282,E2,35.0,0.25,127,95.0
283,F#2,35.25,0.25,127,95.0
284,F6,35.5,0.125,127,95.0
285,F#2,35.5,0.25,127,95.0
286,A2,35.5,0.125,127,95.0
287,D2,35.5,0.125,127,95.0
288,D3,35.5,0.125,127,95.0
289,A2,35.5,0.125,127,95.0
290,D2,35.5,0.125,127,95.0
291,D3,35.5,0.125,127,95.0
292,F#2,35.75,0.25,127,95.0
293,D6,36.0,0.125,127,95.0
294,A2,36.0,0.125,127,95.0
295,D2,36.0,0.125,127,95.0
296,D3,36.0,0.125,127,95.0
297,A2,36.0,0.125,127,95.0
298,D2,36.0,0.125,127,95.0
299,D3,36.0,0.125,127,95.0
300,C2,36.0,0.25,127,95.0
301,F#2,36.0,0.25,127,95.0
302,F#2,36.25,0.25,127,95.0
303,F6,36.5,0.125,127,95.0
304,F#2,36.5,0.25,127,95.0
305,C2,36.75,0.25,127,95.0
306,F#2,36.75,0.25,127,95.0
307,A6,37.0,0.125,127,95.0
308,A2,37.0,0.125,127,95.0
309,D2,37.0,0.125,127,95.0
310,D3,37.0,0.125,127,95.0
311,A2,37.0,0.125,127,95.0
312,D2,37.0,0.125,127,95.0
313,D3,37.0,0.125,127,95.0
314,D2,37.0,0.25,127,95.0
315,E2,37.0,0.25,127,95.0
316,F#2,37.0,0.25,127,95.0
317,F#2,37.25,0.25,127,95.0
318,D6,37.5,0.125,127,95.0
319,F#2,37.5,0.25,127,95.0
320,A2,37.5,0.125,127,95.0
321,D2,37.5,0.125,127,95.0
322,D3,37.5,0.125,127,95.0
323,A2,37.5,0.125,127,95.0
324,D2,37.5,0.125,127,95.0
325,D3,37.5,0.125,127,95.0
326,F#2,37.75,0.25,127,95.0
327,B-6,38.0,0.125,127,95.0
328,C2,38.0,0.25,127,95.0
329,F#2,38.0,0.25,127,95.0
330,F#2,38.25,0.25,127,95.0
331,D6,38.5,0.125,127,95.0
332,D3,38.5,0.25,127,95.0
333,D3,38.5,0.25,127,95.0
334,A2,38.5,0.125,127,95.0
335,D2,38.5,0.125,127,95.0
336,D3,38.5,0.125,127,95.0
337,A2,38.5,0.125,127,95.0
338,D2,38.5,0.125,127,95.0
339,D3,38.5,0.125,127,95.0
340,C2,38.5,0.25,127,95.0
341,F#2,38.5,0.25,127,95.0
342,D3,38.75,0.25,127,95.0
343,D3,38.75,0.25,127,95.0
344,F#2,38.75,0.25,127,95.0
345,A6,39.0,0.125,127,95.0
346,A3,39.0,0.25,127,95.0
347,A3,39.0,0.25,127,95.0
348,A2,39.0,0.125,127,95.0
349,D2,39.0,0.125,127,95.0
350,D3,39.0,0.125,127,95.0
351,A2,39.0,0.125,127,95.0
352,D2,39.0,0.125,127,95.0
353,D3,39.0,0.125,127,95.0
354,D2,39.0,0.25,127,95.0
355,E2,39.0,0.25,127,95.0
356,F#2,39.0,0.25,127,95.0
357,A3,39.25,0.25,127,95.0
358,A3,39.25,0.25,127,95.0
359,C2,39.25,0.25,127,95.0
360,F#2,39.25,0.25,127,95.0
361,F6,39.5,0.125,127,95.0
362,D3,39.5,0.25,127,95.0
363,D3,39.5,0.25,127,95.0
364,F#2,39.5,0.25,127,95.0
365,A2,39.5,0.125,127,95.0
366,D2,39.5,0.125,127,95.0
367,D3,39.5,0.125,127,95.0
368,A2,39.5,0.125,127,95.0
369,D2,39.5,0.125,127,95.0
370,D3,39.5,0.125,127,95.0
371,D3,39.75,0.25,127,95.0
372,D3,39.75,0.25,127,95.0
373,F#2,39.75,0.25,127,95.0
374,D6,40.0,0.125,127,95.0
375,F#2,40.0,0.25,127,95.0
376,C2,40.0,0.25,127,95.0
377,F#2,40.25,0.25,127,95.0
378,F6,40.5,0.125,127,95.0
379,F#2,40.5,0.25,127,95.0
380,B-2,40.5,0.125,127,95.0
381,D2,40.5,0.125,127,95.0
382,D3,40.5,0.125,127,95.0
383,B-2,40.5,0.125,127,95.0
384,D2,40.5,0.125,127,95.0
385,D3,40.5,0.125,127,95.0
386,F#2,40.75,0.25,127,95.0
387,C2,40.875,0.125,127,95.0
388,A6,41.0,0.125,127,95.0
389,B-2,41.0,0.125,127,95.0
390,D2,41.0,0.125,127,95.0
391,D3,41.0,0.125,127,95.0
392,B-2,41.0,0.125,127,95.0
393,D2,41.0,0.125,127,95.0
394,D3,41.0,0.125,127,95.0
395,F#2,41.0,0.25,127,95.0
396,D2,41.0,0.25,127,95.0
397,E2,41.0,0.25,127,95.0
398,F#2,41.25,0.25,127,95.0
399,D6,41.5,0.125,127,95.0
400,F#2,41.5,0.25,127,95.0
401,F#2,41.75,0.25,127,95.0
402,C7,42.0,0.125,127,95.0
403,B-2,42.0,0.125,127,95.0
404,D2,42.0,0.125,127,95.0
405,D3,42.0,0.125,127,95.0
406,B-2,42.0,0.125,127,95.0
407,D2,42.0,0.125,127,95.0
408,D3,42.0,0.125,127,95.0
409,F#2,42.0,0.25,127,95.0
410,C2,42.0,0.25,127,95.0
411,F#2,42.25,0.25,127,95.0
412,D6,42.5,0.125,127,95.0
413,B-2,42.5,0.125,127,95.0
414,D2,42.5,0.125,127,95.0
415,D3,42.5,0.125,127,95.0
416,B-2,42.5,0.125,127,95.0
417,D2,42.5,0.125,127,95.0
418,D3,42.5,0.125,127,95.0
419,F#2,42.5,0.25,127,95.0
420,C2,42.5,0.25,127,95.0
421,F#2,42.75,0.25,127,95.0
422,B-6,43.0,0.125,127,95.0
423,F#2,43.0,0.25,127,95.0
424,D2,43.0,0.25,127,95.0
425,E2,43.0,0.25,127,95.0
426,F#2,43.25,0.25,127,95.0
427,A6,43.5,0.125,127,95.0
428,F#2,43.5,0.25,127,95.0
429,B-2,43.5,0.125,127,95.0
430,D2,43.5,0.125,127,95.0
431,D3,43.5,0.125,127,95.0
432,B-2,43.5,0.125,127,95.0
433,D2,43.5,0.125,127,95.0
434,D3,43.5,0.125,127,95.0
435,F#2,43.75,0.25,127,95.0
436,D6,44.0,0.125,127,95.0
437,B-2,44.0,0.125,127,95.0
438,D2,44.0,0.125,127,95.0
439,D3,44.0,0.125,127,95.0
440,B-2,44.0,0.125,127,95.0
441,D2,44.0,0.125,127,95.0
442,D3,44.0,0.125,127,95.0
443,C2,44.0,0.25,127,95.0
444,F#2,44.0,0.25,127,95.0
445,F#2,44.25,0.25,127,95.0
446,F6,44.5,0.125,127,95.0
447,F#2,44.5,0.25,127,95.0
448,C2,44.75,0.25,127,95.0
449,F#2,44.75,0.25,127,95.0
450,A6,45.0,0.125,127,95.0
451,B-2,45.0,0.125,127,95.0
452,D2,45.0,0.125,127,95.0
453,D3,45.0,0.125,127,95.0
454,B-2,45.0,0.125,127,95.0
455,D2,45.0,0.125,127,95.0
456,D3,45.0,0.125,127,95.0
457,D2,45.0,0.25,127,95.0
458,E2,45.0,0.25,127,95.0
459,F#2,45.0,0.25,127,95.0
460,F#2,45.25,0.25,127,95.0
461,D6,45.5,0.125,127,95.0
462,F#2,45.5,0.25,127,95.0
463,B-2,45.5,0.125,127,95.0
464,D2,45.5,0.125,127,95.0
465,D3,45.5,0.125,127,95.0
466,B-2,45.5,0.125,127,95.0
467,D2,45.5,0.125,127,95.0
468,D3,45.5,0.125,127,95.0
469,F#2,45.75,0.25,127,95.0
470,C7,46.0,0.125,127,95.0
471,C2,46.0,0.25,127,95.0
472,F#2,46.0,0.25,127,95.0
473,F#2,46.25,0.25,127,95.0
474,D6,46.5,0.125,127,95.0
475,D3,46.5,0.25,127,95.0
476,D3,46.5,0.25,127,95.0
477,B-2,46.5,0.125,127,95.0
478,D2,46.5,0.125,127,95.0
479,D3,46.5,0.125,127,95.0
480,B-2,46.5,0.125,127,95.0
481,D2,46.5,0.125,127,95.0
482,D3,46.5,0.125,127,95.0
483,C2,46.5,0.25,127,95.0
484,F#2,46.5,0.25,127,95.0
485,D3,46.75,0.25,127,95.0
486,D3,46.75,0.25,127,95.0
487,F#2,46.75,0.25,127,95.0
488,B-6,47.0,0.125,127,95.0
489,B-3,47.0,0.25,127,95.0
490,B-3,47.0,0.25,127,95.0
491,B-2,47.0,0.125,127,95.0
492,D2,47.0,0.125,127,95.0
493,D3,47.0,0.125,127,95.0
494,B-2,47.0,0.125,127,95.0
495,D2,47.0,0.125,127,95.0
496,D3,47.0,0.125,127,95.0
497,D2,47.0,0.25,127,95.0
498,E2,47.0,0.25,127,95.0
499,F#2,47.0,0.25,127,95.0
500,B-3,47.25,0.25,127,95.0
501,B-3,47.25,0.25,127,95.0
502,C2,47.25,0.25,127,95.0
503,F#2,47.25,0.25,127,95.0
504,A6,47.5,0.125,127,95.0
505,D3,47.5,0.25,127,95.0
506,D3,47.5,0.25,127,95.0
507,F#2,47.5,0.25,127,95.0
508,B-2,47.5,0.125,127,95.0
509,D2,47.5,0.125,127,95.0
510,D3,47.5,0.125,127,95.0
511,B-2,47.5,0.125,127,95.0
512,D2,47.5,0.125,127,95.0
513,D3,47.5,0.125,127,95.0
514,D3,47.75,0.25,127,95.0
515,D3,47.75,0.25,127,95.0
516,F#2,47.75,0.25,127,95.0
517,D6,48.0,0.125,127,95.0
518,F#2,48.0,0.25,127,95.0
519,C2,48.0,0.25,127,95.0
520,F#2,48.25,0.25,127,95.0
521,F6,48.5,0.125,127,95.0
522,F#2,48.5,0.25,127,95.0
523,A2,48.5,0.125,127,95.0
524,D2,48.5,0.125,127,95.0
525,D3,48.5,0.125,127,95.0
526,A2,48.5,0.125,127,95.0
527,D2,48.5,0.125,127,95.0
528,D3,48.5,0.125,127,95.0
529,F#2,48.75,0.25,127,95.0
530,C2,48.875,0.125,127,95.0
531,A6,49.0,0.125,127,95.0
532,A2,49.0,0.125,127,95.0
533,D2,49.0,0.125,127,95.0
534,D3,49.0,0.125,127,95.0
535,A2,49.0,0.125,127,95.0
536,D2,49.0,0.125,127,95.0
537,D3,49.0,0.125,127,95.0
538,F#2,49.0,0.25,127,95.0
539,D2,49.0,0.25,127,95.0
540,E2,49.0,0.25,127,95.0
541,F#2,49.25,0.25,127,95.0
542,D6,49.5,0.125,127,95.0
543,F#2,49.5,0.25,127,95.0
544,F#2,49.75,0.25,127,95.0
545,B-6,50.0,0.125,127,95.0
546,A2,50.0,0.125,127,95.0
547,D2,50.0,0.125,127,95.0
548,D3,50.0,0.125,127,95.0
549,A2,50.0,0.125,127,95.0
550,D2,50.0,0.125,127,95.0
551,D3,50.0,0.125,127,95.0
552,F#2,50.0,0.25,127,95.0
553,C2,50.0,0.25,127,95.0
554,F#2,50.25,0.25,127,95.0
555,D6,50.5,0.125,127,95.0
556,A2,50.5,0.125,127,95.0
557,D2,50.5,0.125,127,95.0
558,D3,50.5,0.125,127,95.0
559,A2,50.5,0.125,127,95.0
560,D2,50.5,0.125,127,95.0
561,D3,50.5,0.125,127,95.0
562,F#2,50.5,0.25,127,95.0
563,C2,50.5,0.25,127,95.0
564,F#2,50.75,0.25,127,95.0
565,A6,51.0,0.125,127,95.0
566,F#2,51.0,0.25,127,95.0
567,D2,51.0,0.25,127,95.0
568,E2,51.0,0.25,127,95.0
569,F#2,51.25,0.25,127,95.0
570,F6,51.5,0.125,127,95.0
571,F#2,51.5,0.25,127,95.0
572,A2,51.5,0.125,127,95.0
573,D2,51.5,0.125,127,95.0
574,D3,51.5,0.125,127,95.0
575,A2,51.5,0.125,127,95.0
576,D2,51.5,0.125,127,95.0
577,D3,51.5,0.125,127,95.0
578,F#2,51.75,0.25,127,95.0
579,D6,52.0,0.125,127,95.0
580,A2,52.0,0.125,127,95.0
581,D2,52.0,0.125,127,95.0
582,D3,52.0,0.125,127,95.0
583,A2,52.0,0.125,127,95.0
584,D2,52.0,0.125,127,95.0
585,D3,52.0,0.125,127,95.0
586,C2,52.0,0.25,127,95.0
587,F#2,52.0,0.25,127,95.0
588,F#2,52.25,0.25,127,95.0
589,F6,52.5,0.125,127,95.0
590,F#2,52.5,0.25,127,95.0
591,C2,52.75,0.25,127,95.0
592,F#2,52.75,0.25,127,95.0
593,A6,53.0,0.125,127,95.0
594,A2,53.0,0.125,127,95.0
595,D2,53.0,0.125,127,95.0
596,D3,53.0,0.125,127,95.0
597,A2,53.0,0.125,127,95.0
598,D2,53.0,0.125,127,95.0
599,D3,53.0,0.125,127,95.0
600,D2,53.0,0.25,127,95.0
601,E2,53.0,0.25,127,95.0
602,F#2,53.0,0.25,127,95.0
603,F#2,53.25,0.25,127,95.0
604,D6,53.5,0.125,127,95.0
605,F#2,53.5,0.25,127,95.0
606,A2,53.5,0.125,127,95.0
607,D2,53.5,0.125,127,95.0
608,D3,53.5,0.125,127,95.0
609,A2,53.5,0.125,127,95.0
610,D2,53.5,0.125,127,95.0
611,D3,53.5,0.125,127,95.0
612,F#2,53.75,0.25,127,95.0
613,B-6,54.0,0.125,127,95.0
614,C2,54.0,0.25,127,95.0
615,F#2,54.0,0.25,127,95.0
616,F#2,54.25,0.25,127,95.0
617,D6,54.5,0.125,127,95.0
618,D3,54.5,0.25,127,95.0
619,D3,54.5,0.25,127,95.0
620,A2,54.5,0.125,127,95.0
621,D2,54.5,0.125,127,95.0
622,D3,54.5,0.125,127,95.0
623,A2,54.5,0.125,127,95.0
624,D2,54.5,0.125,127,95.0
625,D3,54.5,0.125,127,95.0
626,C2,54.5,0.25,127,95.0
627,F#2,54.5,0.25,127,95.0
628,D3,54.75,0.25,127,95.0
629,D3,54.75,0.25,127,95.0
630,F#2,54.75,0.25,127,95.0
631,A6,55.0,0.125,127,95.0
632,A3,55.0,0.25,127,95.0
633,A3,55.0,0.25,127,95.0
634,A2,55.0,0.125,127,95.0
635,D2,55.0,0.125,127,95.0
636,D3,55.0,0.125,127,95.0
637,A2,55.0,0.125,127,95.0
638,D2,55.0,0.125,127,95.0
639,D3,55.0,0.125,127,95.0
640,D2,55.0,0.25,127,95.0
641,E2,55.0,0.25,127,95.0
642,F#2,55.0,0.25,127,95.0
643,A3,55.25,0.25,127,95.0
644,A3,55.25,0.25,127,95.0
645,C2,55.25,0.25,127,95.0
646,F#2,55.25,0.25,127,95.0
647,F6,55.5,0.125,127,95.0
648,D3,55.5,0.25,127,95.0
649,D3,55.5,0.25,127,95.0
650,F#2,55.5,0.25,127,95.0
651,A2,55.5,0.125,127,95.0
652,D2,55.5,0.125,127,95.0
653,D3,55.5,0.125,127,95.0
654,A2,55.5,0.125,127,95.0
655,D2,55.5,0.125,127,95.0
656,D3,55.5,0.125,127,95.0
657,D3,55.75,0.25,127,95.0
658,D3,55.75,0.25,127,95.0
659,F#2,55.75,0.25,127,95.0
660,D6,56.0,0.125,127,95.0
661,F#2,56.0,0.25,127,95.0
662,C2,56.0,0.25,127,95.0
663,F#2,56.25,0.25,127,95.0
664,F6,56.5,0.125,127,95.0
665,F#2,56.5,0.25,127,95.0
666,B-2,56.5,0.125,127,95.0
667,D2,56.5,0.125,127,95.0
668,D3,56.5,0.125,127,95.0
669,B-2,56.5,0.125,127,95.0
670,D2,56.5,0.125,127,95.0
671,D3,56.5,0.125,127,95.0
672,F#2,56.75,0.25,127,95.0
673,C2,56.875,0.125,127,95.0
674,A6,57.0,0.125,127,95.0
675,B-2,57.0,0.125,127,95.0
676,D2,57.0,0.125,127,95.0
677,D3,57.0,0.125,127,95.0
678,B-2,57.0,0.125,127,95.0
679,D2,57.0,0.125,127,95.0
680,D3,57.0,0.125,127,95.0
681,F#2,57.0,0.25,127,95.0
682,D2,57.0,0.25,127,95.0
683,E2,57.0,0.25,127,95.0
684,F#2,57.25,0.25,127,95.0
685,D6,57.5,0.125,127,95.0
686,F#2,57.5,0.25,127,95.0
687,F#2,57.75,0.25,127,95.0
688,C7,58.0,0.125,127,95.0
689,B-2,58.0,0.125,127,95.0
690,D2,58.0,0.125,127,95.0
691,D3,58.0,0.125,127,95.0
692,B-2,58.0,0.125,127,95.0
693,D2,58.0,0.125,127,95.0
694,D3,58.0,0.125,127,95.0
695,F#2,58.0,0.25,127,95.0
696,C2,58.0,0.25,127,95.0
697,F#2,58.25,0.25,127,95.0
698,D6,58.5,0.125,127,95.0
699,B-2,58.5,0.125,127,95.0
700,D2,58.5,0.125,127,95.0
701,D3,58.5,0.125,127,95.0
702,B-2,58.5,0.125,127,95.0
703,D2,58.5,0.125,127,95.0
704,D3,58.5,0.125,127,95.0
705,F#2,58.5,0.25,127,95.0
706,C2,58.5,0.25,127,95.0
707,F#2,58.75,0.25,127,95.0
708,B-6,59.0,0.125,127,95.0
709,F#2,59.0,0.25,127,95.0
710,D2,59.0,0.25,127,95.0
711,E2,59.0,0.25,127,95.0
712,F#2,59.25,0.25,127,95.0
713,A6,59.5,0.125,127,95.0
714,F#2,59.5,0.25,127,95.0
715,B-2,59.5,0.125,127,95.0
716,D2,59.5,0.125,127,95.0
717,D3,59.5,0.125,127,95.0
718,B-2,59.5,0.125,127,95.0
719,D2,59.5,0.125,127,95.0
720,D3,59.5,0.125,127,95.0
721,F#2,59.75,0.25,127,95.0
722,D6,60.0,0.125,127,95.0
723,B-2,60.0,0.125,127,95.0
724,D2,60.0,0.125,127,95.0
725,D3,60.0,0.125,127,95.0
726,B-2,60.0,0.125,127,95.0
727,D2,60.0,0.125,127,95.0
728,D3,60.0,0.125,127,95.0
729,C2,60.0,0.25,127,95.0
730,F#2,60.0,0.25,127,95.0
731,F#2,60.25,0.25,127,95.0
732,F6,60.5,0.125,127,95.0
733,F#2,60.5,0.25,127,95.0
734,C2,60.75,0.25,127,95.0
735,F#2,60.75,0.25,127,95.0
736,A6,61.0,0.125,127,95.0
737,B-2,61.0,0.125,127,95.0
738,D2,61.0,0.125,127,95.0
739,D3,61.0,0.125,127,95.0
740,B-2,61.0,0.125,127,95.0
741,D2,61.0,0.125,127,95.0
742,D3,61.0,0.125,127,95.0
743,D2,61.0,0.25,127,95.0
744,E2,61.0,0.25,127,95.0
745,F#2,61.0,0.25,127,95.0
746,F#2,61.25,0.25,127,95.0
747,D6,61.5,0.125,127,95.0
748,F#2,61.5,0.25,127,95.0
749,B-2,61.5,0.125,127,95.0
750,D2,61.5,0.125,127,95.0
751,D3,61.5,0.125,127,95.0
752,B-2,61.5,0.125,127,95.0
753,D2,61.5,0.125,127,95.0
754,D3,61.5,0.125,127,95.0
755,F#2,61.75,0.25,127,95.0
756,C7,62.0,0.125,127,95.0
757,C2,62.0,0.25,127,95.0
758,F#2,62.0,0.25,127,95.0
759,F#2,62.25,0.25,127,95.0
760,D6,62.5,0.125,127,95.0
761,D3,62.5,0.25,127,95.0
762,D3,62.5,0.25,127,95.0
763,B-2,62.5,0.125,127,95.0
764,D2,62.5,0.125,127,95.0
765,D3,62.5,0.125,127,95.0
766,B-2,62.5,0.125,127,95.0
767,D2,62.5,0.125,127,95.0
768,D3,62.5,0.125,127,95.0
769,C2,62.5,0.25,127,95.0
770,F#2,62.5,0.25,127,95.0
771,D3,62.75,0.25,127,95.0
772,D3,62.75,0.25,127,95.0
773,F#2,62.75,0.25,127,95.0
774,B-6,63.0,0.125,127,95.0
775,B-3,63.0,0.25,127,95.0
776,B-3,63.0,0.25,127,95.0
777,B-2,63.0,0.125,127,95.0
778,D2,63.0,0.125,127,95.0
779,D3,63.0,0.125,127,95.0
780,B-2,63.0,0.125,127,95.0
781,D2,63.0,0.125,127,95.0
782,D3,63.0,0.125,127,95.0
783,D2,63.0,0.25,127,95.0
784,E2,63.0,0.25,127,95.0
785,F#2,63.0,0.25,127,95.0
786,B-3,63.25,0.25,127,95.0
787,B-3,63.25,0.25,127,95.0
788,C2,63.25,0.25,127,95.0
789,F#2,63.25,0.25,127,95.0
790,A6,63.5,0.125,127,95.0
791,D3,63.5,0.25,127,95.0
792,D3,63.5,0.25,127,95.0
793,F#2,63.5,0.25,127,95.0
794,B-2,63.5,0.125,127,95.0
795,D2,63.5,0.125,127,95.0
796,D3,63.5,0.125,127,95.0
797,B-2,63.5,0.125,127,95.0
798,D2,63.5,0.125,127,95.0
799,D3,63.5,0.125,127,95.0
800,D3,63.75,0.25,127,95.0
801,D3,63.75,0.25,127,95.0
802,F#2,63.75,0.25,127,95.0
803,D6,64.0,0.125,127,95.0
804,F#2,64.0,0.25,127,95.0
805,C2,64.0,0.25,127,95.0
806,F#2,64.25,0.25,127,95.0
807,F6,64.5,0.125,127,95.0
808,F#2,64.5,0.25,127,95.0
809,A2,64.5,0.125,127,95.0
810,D2,64.5,0.125,127,95.0
811,D3,64.5,0.125,127,95.0
812,A2,64.5,0.125,127,95.0
813,D2,64.5,0.125,127,95.0
814,D3,64.5,0.125,127,95.0
815,F#2,64.75,0.25,127,95.0
816,C2,64.875,0.125,127,95.0
817,A6,65.0,0.125,127,95.0
818,A2,65.0,0.125,127,95.0
819,D2,65.0,0.125,127,95.0
820,D3,65.0,0.125,127,95.0
821,A2,65.0,0.125,127,95.0
822,D2,65.0,0.125,127,95.0
823,D3,65.0,0.125,127,95.0
824,F#2,65.0,0.25,127,95.0
825,D2,65.0,0.25,127,95.0
826,E2,65.0,0.25,127,95.0
827,F#2,65.25,0.25,127,95.0
828,D6,65.5,0.125,127,95.0
829,F#2,65.5,0.25,127,95.0
830,F#2,65.75,0.25,127,95.0
831,B-6,66.0,0.125,127,95.0
832,A2,66.0,0.125,127,95.0
833,D2,66.0,0.125,127,95.0
834,D3,66.0,0.125,127,95.0
835,A2,66.0,0.125,127,95.0
836,D2,66.0,0.125,127,95.0
837,D3,66.0,0.125,127,95.0
838,F#2,66.0,0.25,127,95.0
839,C2,66.0,0.25,127,95.0
840,F#2,66.25,0.25,127,95.0
841,D6,66.5,0.125,127,95.0
842,A2,66.5,0.125,127,95.0
843,D2,66.5,0.125,127,95.0
844,D3,66.5,0.125,127,95.0
845,A2,66.5,0.125,127,95.0
846,D2,66.5,0.125,127,95.0
847,D3,66.5,0.125,127,95.0
848,F#2,66.5,0.25,127,95.0
849,C2,66.5,0.25,127,95.0
850,F#2,66.75,0.25,127,95.0
851,A6,67.0,0.125,127,95.0
852,F#2,67.0,0.25,127,95.0
853,D2,67.0,0.25,127,95.0
854,E2,67.0,0.25,127,95.0
855,F#2,67.25,0.25,127,95.0
856,F6,67.5,0.125,127,95.0
857,F#2,67.5,0.25,127,95.0
858,A2,67.5,0.125,127,95.0
859,D2,67.5,0.125,127,95.0
860,D3,67.5,0.125,127,95.0
861,A2,67.5,0.125,127,95.0
862,D2,67.5,0.125,127,95.0
863,D3,67.5,0.125,127,95.0
864,F#2,67.75,0.25,127,95.0
865,D6,68.0,0.125,127,95.0
866,A2,68.0,0.125,127,95.0
867,D2,68.0,0.125,127,95.0
868,D3,68.0,0.125,127,95.0
869,A2,68.0,0.125,127,95.0
870,D2,68.0,0.125,127,95.0
871,D3,68.0,0.125,127,95.0
872,C2,68.0,0.25,127,95.0
873,F#2,68.0,0.25,127,95.0
874,F#2,68.25,0.25,127,95.0
875,F6,68.5,0.125,127,95.0
876,F#2,68.5,0.25,127,95.0
877,C2,68.75,0.25,127,95.0
878,F#2,68.75,0.25,127,95.0
879,A6,69.0,0.125,127,95.0
880,A2,69.0,0.125,127,95.0
881,D2,69.0,0.125,127,95.0
882,D3,69.0,0.125,127,95.0
883,A2,69.0,0.125,127,95.0
884,D2,69.0,0.125,127,95.0
885,D3,69.0,0.125,127,95.0
886,D2,69.0,0.25,127,95.0
887,E2,69.0,0.25,127,95.0
888,F#2,69.0,0.25,127,95.0
889,F#2,69.25,0.25,127,95.0
890,D6,69.5,0.125,127,95.0
891,F#2,69.5,0.25,127,95.0
892,A2,69.5,0.125,127,95.0
893,D2,69.5,0.125,127,95.0
894,D3,69.5,0.125,127,95.0
895,A2,69.5,0.125,127,95.0
896,D2,69.5,0.125,127,95.0
897,D3,69.5,0.125,127,95.0
898,F#2,69.75,0.25,127,95.0
899,B-6,70.0,0.125,127,95.0
900,C2,70.0,0.25,127,95.0
901,F#2,70.0,0.25,127,95.0
902,F#2,70.25,0.25,127,95.0
903,D6,70.5,0.125,127,95.0
904,D3,70.5,0.25,127,95.0
905,D3,70.5,0.25,127,95.0
906,A2,70.5,0.125,127,95.0
907,D2,70.5,0.125,127,95.0
908,D3,70.5,0.125,127,95.0
909,A2,70.5,0.125,127,95.0
910,D2,70.5,0.125,127,95.0
911,D3,70.5,0.125,127,95.0
912,C2,70.5,0.25,127,95.0
913,F#2,70.5,0.25,127,95.0
914,D3,70.75,0.25,127,95.0
915,D3,70.75,0.25,127,95.0
916,F#2,70.75,0.25,127,95.0
917,A6,71.0,0.125,127,95.0
918,A3,71.0,0.25,127,95.0
919,A3,71.0,0.25,127,95.0
920,A2,71.0,0.125,127,95.0
921,D2,71.0,0.125,127,95.0
922,D3,71.0,0.125,127,95.0
923,A2,71.0,0.125,127,95.0
924,D2,71.0,0.125,127,95.0
925,D3,71.0,0.125,127,95.0
926,D2,71.0,0.25,127,95.0
927,E2,71.0,0.25,127,95.0
928,F#2,71.0,0.25,127,95.0
929,A3,71.25,0.25,127,95.0
930,A3,71.25,0.25,127,95.0
931,C2,71.25,0.25,127,95.0
932,F#2,71.25,0.25,127,95.0
933,F6,71.5,0.125,127,95.0
934,D3,71.5,0.25,127,95.0
935,D3,71.5,0.25,127,95.0
936,F#2,71.5,0.25,127,95.0
937,A2,71.5,0.125,127,95.0
938,D2,71.5,0.125,127,95.0
939,D3,71.5,0.125,127,95.0
940,A2,71.5,0.125,127,95.0
941,D2,71.5,0.125,127,95.0
942,D3,71.5,0.125,127,95.0
943,D3,71.75,0.25,127,95.0
944,D3,71.75,0.25,127,95.0
945,F#2,71.75,0.25,127,95.0
946,D6,72.0,0.125,127,95.0
947,F#2,72.0,0.25,127,95.0
948,C2,72.0,0.25,127,95.0
949,F#2,72.25,0.25,127,95.0
950,F6,72.5,0.125,127,95.0
951,F#2,72.5,0.25,127,95.0
952,B-2,72.5,0.125,127,95.0
953,D2,72.5,0.125,127,95.0
954,D3,72.5,0.125,127,95.0
955,B-2,72.5,0.125,127,95.0
956,D2,72.5,0.125,127,95.0
957,D3,72.5,0.125,127,95.0
958,F#2,72.75,0.25,127,95.0
959,C2,72.875,0.125,127,95.0
960,A6,73.0,0.125,127,95.0
961,B-2,73.0,0.125,127,95.0
962,D2,73.0,0.125,127,95.0
963,D3,73.0,0.125,127,95.0
964,B-2,73.0,0.125,127,95.0
965,D2,73.0,0.125,127,95.0
966,D3,73.0,0.125,127,95.0
967,F#2,73.0,0.25,127,95.0
968,D2,73.0,0.25,127,95.0
969,E2,73.0,0.25,127,95.0
970,F#2,73.25,0.25,127,95.0
971,D6,73.5,0.125,127,95.0
972,F#2,73.5,0.25,127,95.0
973,F#2,73.75,0.25,127,95.0
974,C7,74.0,0.125,127,95.0
975,B-2,74.0,0.125,127,95.0
976,D2,74.0,0.125,127,95.0
977,D3,74.0,0.125,127,95.0
978,B-2,74.0,0.125,127,95.0
979,D2,74.0,0.125,127,95.0
980,D3,74.0,0.125,127,95.0
981,F#2,74.0,0.25,127,95.0
982,C2,74.0,0.25,127,95.0
983,F#2,74.25,0.25,127,95.0
984,D6,74.5,0.125,127,95.0
985,B-2,74.5,0.125,127,95.0
986,D2,74.5,0.125,127,95.0
987,D3,74.5,0.125,127,95.0
988,B-2,74.5,0.125,127,95.0
989,D2,74.5,0.125,127,95.0
990,D3,74.5,0.125,127,95.0
991,F#2,74.5,0.25,127,95.0
992,C2,74.5,0.25,127,95.0
993,F#2,74.75,0.25,127,95.0
994,B-6,75.0,0.125,127,95.0
995,F#2,75.0,0.25,127,95.0
996,D2,75.0,0.25,127,95.0
997,E2,75.0,0.25,127,95.0
998,F#2,75.25,0.25,127,95.0
999,A6,75.5,0.125,127,95.0
1000,F#2,75.5,0.25,127,95.0
1001,B-2,75.5,0.125,127,95.0
1002,D2,75.5,0.125,127,95.0
1003,D3,75.5,0.125,127,95.0
1004,B-2,75.5,0.125,127,95.0
1005,D2,75.5,0.125,127,95.0
1006,D3,75.5,0.125,127,95.0
1007,F#2,75.75,0.25,127,95.0
1008,D6,76.0,0.125,127,95.0
1009,B-2,76.0,0.125,127,95.0
1010,D2,76.0,0.125,127,95.0
1011,D3,76.0,0.125,127,95.0
1012,B-2,76.0,0.125,127,95.0
1013,D2,76.0,0.125,127,95.0
1014,D3,76.0,0.125,127,95.0
1015,C2,76.0,0.25,127,95.0
1016,F#2,76.0,0.25,127,95.0
1017,F#2,76.25,0.25,127,95.0
1018,F6,76.5,0.125,127,95.0
1019,F#2,76.5,0.25,127,95.0
1020,C2,76.75,0.25,127,95.0
1021,F#2,76.75,0.25,127,95.0
1022,A6,77.0,0.125,127,95.0
1023,B-2,77.0,0.125,127,95.0
1024,D2,77.0,0.125,127,95.0
1025,D3,77.0,0.125,127,95.0
1026,B-2,77.0,0.125,127,95.0
1027,D2,77.0,0.125,127,95.0
1028,D3,77.0,0.125,127,95.0
1029,D2,77.0,0.25,127,95.0
1030,E2,77.0,0.25,127,95.0
1031,F#2,77.0,0.25,127,95.0
1032,F#2,77.25,0.25,127,95.0
1033,D6,77.5,0.125,127,95.0
1034,F#2,77.5,0.25,127,95.0
1035,B-2,77.5,0.125,127,95.0
1036,D2,77.5,0.125,127,95.0
1037,D3,77.5,0.125,127,95.0
1038,B-2,77.5,0.125,127,95.0
1039,D2,77.5,0.125,127,95.0
1040,D3,77.5,0.125,127,95.0
1041,F#2,77.75,0.25,127,95.0
1042,C7,78.0,0.125,127,95.0
1043,C2,78.0,0.25,127,95.0
1044,F#2,78.0,0.25,127,95.0
1045,F#2,78.25,0.25,127,95.0
1046,D6,78.5,0.125,127,95.0
1047,D3,78.5,0.25,127,95.0
1048,D3,78.5,0.25,127,95.0
1049,B-2,78.5,0.125,127,95.0
1050,D2,78.5,0.125,127,95.0
1051,D3,78.5,0.125,127,95.0
1052,B-2,78.5,0.125,127,95.0
1053,D2,78.5,0.125,127,95.0
1054,D3,78.5,0.125,127,95.0
1055,C2,78.5,0.25,127,95.0
1056,F#2,78.5,0.25,127,95.0
1057,D3,78.75,0.25,127,95.0
1058,D3,78.75,0.25,127,95.0
1059,F#2,78.75,0.25,127,95.0
1060,B-6,79.0,0.125,127,95.0
1061,B-3,79.0,0.25,127,95.0
1062,B-3,79.0,0.25,127,95.0
1063,B-2,79.0,0.125,127,95.0
1064,D2,79.0,0.125,127,95.0
1065,D3,79.0,0.125,127,95.0
1066,B-2,79.0,0.125,127,95.0
1067,D2,79.0,0.125,127,95.0
1068,D3,79.0,0.125,127,95.0
1069,D2,79.0,0.25,127,95.0
1070,E2,79.0,0.25,127,95.0
1071,F#2,79.0,0.25,127,95.0
1072,B-3,79.25,0.25,127,95.0
1073,B-3,79.25,0.25,127,95.0
1074,C2,79.25,0.25,127,95.0
1075,F#2,79.25,0.25,127,95.0
1076,A6,79.5,0.125,127,95.0
1077,D3,79.5,0.25,127,95.0
1078,D3,79.5,0.25,127,95.0
1079,F#2,79.5,0.25,127,95.0
1080,B-2,79.5,0.125,127,95.0
1081,D2,79.5,0.125,127,95.0
1082,D3,79.5,0.125,127,95.0
1083,B-2,79.5,0.125,127,95.0
1084,D2,79.5,0.125,127,95.0
1085,D3,79.5,0.125,127,95.0
1086,D3,79.75,0.25,127,95.0
1087,D3,79.75,0.25,127,95.0
1088,F#2,79.75,0.25,127,95.0
1089,D6,80.0,0.125,127,95.0
1090,F#2,80.0,0.25,127,95.0
1091,C2,80.0,0.25,127,95.0
1092,F#2,80.25,0.25,127,95.0
1093,F6,80.5,0.125,127,95.0
1094,F#2,80.5,0.25,127,95.0
1095,A2,80.5,0.125,127,95.0
1096,D2,80.5,0.125,127,95.0
1097,D3,80.5,0.125,127,95.0
1098,A2,80.5,0.125,127,95.0
1099,D2,80.5,0.125,127,95.0
1100,D3,80.5,0.125,127,95.0
1101,F#2,80.75,0.25,127,95.0
1102,C2,80.875,0.125,127,95.0
1103,A6,81.0,0.125,127,95.0
1104,A2,81.0,0.125,127,95.0
1105,D2,81.0,0.125,127,95.0
1106,D3,81.0,0.125,127,95.0
1107,A2,81.0,0.125,127,95.0
1108,D2,81.0,0.125,127,95.0
1109,D3,81.0,0.125,127,95.0
1110,F#2,81.0,0.25,127,95.0
1111,D2,81.0,0.25,127,95.0
1112,E2,81.0,0.25,127,95.0
1113,F#2,81.25,0.25,127,95.0
1114,D6,81.5,0.125,127,95.0
1115,F#2,81.5,0.25,127,95.0
1116,F#2,81.75,0.25,127,95.0
1117,B-6,82.0,0.125,127,95.0
1118,A2,82.0,0.125,127,95.0
1119,D2,82.0,0.125,127,95.0
1120,D3,82.0,0.125,127,95.0
1121,A2,82.0,0.125,127,95.0
1122,D2,82.0,0.125,127,95.0
1123,D3,82.0,0.125,127,95.0
1124,F#2,82.0,0.25,127,95.0
1125,C2,82.0,0.25,127,95.0
1126,F#2,82.25,0.25,127,95.0
1127,D6,82.5,0.125,127,95.0
1128,A2,82.5,0.125,127,95.0
1129,D2,82.5,0.125,127,95.0
1130,D3,82.5,0.125,127,95.0
1131,A2,82.5,0.125,127,95.0
1132,D2,82.5,0.125,127,95.0
1133,D3,82.5,0.125,127,95.0
1134,F#2,82.5,0.25,127,95.0
1135,C2,82.5,0.25,127,95.0
1136,F#2,82.75,0.25,127,95.0
1137,A6,83.0,0.125,127,95.0
1138,F#2,83.0,0.25,127,95.0
1139,D2,83.0,0.25,127,95.0
1140,E2,83.0,0.25,127,95.0
1141,F#2,83.25,0.25,127,95.0
1142,F6,83.5,0.125,127,95.0
1143,F#2,83.5,0.25,127,95.0
1144,A2,83.5,0.125,127,95.0
1145,D2,83.5,0.125,127,95.0
1146,D3,83.5,0.125,127,95.0
1147,A2,83.5,0.125,127,95.0
1148,D2,83.5,0.125,127,95.0
1149,D3,83.5,0.125,127,95.0
1150,F#2,83.75,0.25,127,95.0
1151,D6,84.0,0.125,127,95.0
1152,A2,84.0,0.125,127,95.0
1153,D2,84.0,0.125,127,95.0
1154,D3,84.0,0.125,127,95.0
1155,A2,84.0,0.125,127,95.0
1156,D2,84.0,0.125,127,95.0
1157,D3,84.0,0.125,127,95.0
1158,C2,84.0,0.25,127,95.0
1159,F#2,84.0,0.25,127,95.0
1160,F#2,84.25,0.25,127,95.0
1161,F6,84.5,0.125,127,95.0
1162,F#2,84.5,0.25,127,95.0
1163,C2,84.75,0.25,127,95.0
1164,F#2,84.75,0.25,127,95.0
1165,A6,85.0,0.125,127,95.0
1166,A2,85.0,0.125,127,95.0
1167,D2,85.0,0.125,127,95.0
1168,D3,85.0,0.125,127,95.0
1169,A2,85.0,0.125,127,95.0
1170,D2,85.0,0.125,127,95.0
1171,D3,85.0,0.125,127,95.0
1172,D2,85.0,0.25,127,95.0
1173,E2,85.0,0.25,127,95.0
1174,F#2,85.0,0.25,127,95.0
1175,F#2,85.25,0.25,127,95.0
1176,D6,85.5,0.125,127,95.0
1177,F#2,85.5,0.25,127,95.0
1178,A2,85.5,0.125,127,95.0
1179,D2,85.5,0.125,127,95.0
1180,D3,85.5,0.125,127,95.0
1181,A2,85.5,0.125,127,95.0
1182,D2,85.5,0.125,127,95.0
1183,D3,85.5,0.125,127,95.0
1184,F#2,85.75,0.25,127,95.0
1185,B-6,86.0,0.125,127,95.0
1186,C2,86.0,0.25,127,95.0
1187,F#2,86.0,0.25,127,95.0
1188,F#2,86.25,0.25,127,95.0
1189,D6,86.5,0.125,127,95.0
1190,D3,86.5,0.25,127,95.0
1191,D3,86.5,0.25,127,95.0
1192,A2,86.5,0.125,127,95.0
1193,D2,86.5,0.125,127,95.0
1194,D3,86.5,0.125,127,95.0
1195,A2,86.5,0.125,127,95.0
1196,D2,86.5,0.125,127,95.0
1197,D3,86.5,0.125,127,95.0
1198,C2,86.5,0.25,127,95.0
1199,F#2,86.5,0.25,127,95.0
1200,D3,86.75,0.25,127,95.0
1201,D3,86.75,0.25,127,95.0
1202,F#2,86.75,0.25,127,95.0
1203,A6,87.0,0.125,127,95.0
1204,A3,87.0,0.25,127,95.0
1205,A3,87.0,0.25,127,95.0
1206,A2,87.0,0.125,127,95.0
1207,D2,87.0,0.125,127,95.0
1208,D3,87.0,0.125,127,95.0
1209,A2,87.0,0.125,127,95.0
1210,D2,87.0,0.125,127,95.0
1211,D3,87.0,0.125,127,95.0
1212,D2,87.0,0.25,127,95.0
1213,E2,87.0,0.25,127,95.0
1214,F#2,87.0,0.25,127,95.0
1215,A3,87.25,0.25,127,95.0
1216,A3,87.25,0.25,127,95.0
1217,C2,87.25,0.25,127,95.0
1218,F#2,87.25,0.25,127,95.0
1219,F6,87.5,0.125,127,95.0
1220,D3,87.5,0.25,127,95.0
1221,D3,87.5,0.25,127,95.0
1222,F#2,87.5,0.25,127,95.0
1223,A2,87.5,0.125,127,95.0
1224,D2,87.5,0.125,127,95.0
1225,D3,87.5,0.125,127,95.0
1226,A2,87.5,0.125,127,95.0
1227,D2,87.5,0.125,127,95.0
1228,D3,87.5,0.125,127,95.0
1229,D3,87.75,0.25,127,95.0
1230,D3,87.75,0.25,127,95.0
1231,F#2,87.75,0.25,127,95.0
1232,D6,88.0,0.125,127,95.0
1233,F#2,88.0,0.25,127,95.0
1234,C2,88.0,0.25,127,95.0
1235,F#2,88.25,0.25,127,95.0
1236,F6,88.5,0.125,127,95.0
1237,F#2,88.5,0.25,127,95.0
1238,B-2,88.5,0.125,127,95.0
1239,D2,88.5,0.125,127,95.0
1240,D3,88.5,0.125,127,95.0
1241,B-2,88.5,0.125,127,95.0
1242,D2,88.5,0.125,127,95.0
1243,D3,88.5,0.125,127,95.0
1244,F#2,88.75,0.25,127,95.0
1245,C2,88.875,0.125,127,95.0
1246,A6,89.0,0.125,127,95.0
1247,B-2,89.0,0.125,127,95.0
1248,D2,89.0,0.125,127,95.0
1249,D3,89.0,0.125,127,95.0
1250,B-2,89.0,0.125,127,95.0
1251,D2,89.0,0.125,127,95.0
1252,D3,89.0,0.125,127,95.0
1253,F#2,89.0,0.25,127,95.0
1254,D2,89.0,0.25,127,95.0
1255,E2,89.0,0.25,127,95.0
1256,F#2,89.25,0.25,127,95.0
1257,D6,89.5,0.125,127,95.0
1258,F#2,89.5,0.25,127,95.0
1259,F#2,89.75,0.25,127,95.0
1260,C7,90.0,0.125,127,95.0
1261,B-2,90.0,0.125,127,95.0
1262,D2,90.0,0.125,127,95.0
1263,D3,90.0,0.125,127,95.0
1264,B-2,90.0,0.125,127,95.0
1265,D2,90.0,0.125,127,95.0
1266,D3,90.0,0.125,127,95.0
1267,F#2,90.0,0.25,127,95.0
1268,C2,90.0,0.25,127,95.0
1269,F#2,90.25,0.25,127,95.0
1270,D6,90.5,0.125,127,95.0
1271,B-2,90.5,0.125,127,95.0
1272,D2,90.5,0.125,127,95.0
1273,D3,90.5,0.125,127,95.0
1274,B-2,90.5,0.125,127,95.0
1275,D2,90.5,0.125,127,95.0
1276,D3,90.5,0.125,127,95.0
1277,F#2,90.5,0.25,127,95.0
1278,C2,90.5,0.25,127,95.0
1279,F#2,90.75,0.25,127,95.0
1280,B-6,91.0,0.125,127,95.0
1281,F#2,91.0,0.25,127,95.0
1282,D2,91.0,0.25,127,95.0
1283,E2,91.0,0.25,127,95.0
1284,F#2,91.25,0.25,127,95.0
1285,A6,91.5,0.125,127,95.0
1286,F#2,91.5,0.25,127,95.0
1287,B-2,91.5,0.125,127,95.0
1288,D2,91.5,0.125,127,95.0
1289,D3,91.5,0.125,127,95.0
1290,B-2,91.5,0.125,127,95.0
1291,D2,91.5,0.125,127,95.0
1292,D3,91.5,0.125,127,95.0
1293,F#2,91.75,0.25,127,95.0
1294,D6,92.0,0.125,127,95.0
1295,B-2,92.0,0.125,127,95.0
1296,D2,92.0,0.125,127,95.0
1297,D3,92.0,0.125,127,95.0
1298,B-2,92.0,0.125,127,95.0
1299,D2,92.0,0.125,127,95.0
1300,D3,92.0,0.125,127,95.0
1301,C2,92.0,0.25,127,95.0
1302,F#2,92.0,0.25,127,95.0
1303,F#2,92.25,0.25,127,95.0
1304,F6,92.5,0.125,127,95.0
1305,F#2,92.5,0.25,127,95.0
1306,C2,92.75,0.25,127,95.0
1307,F#2,92.75,0.25,127,95.0
1308,A6,93.0,0.125,127,95.0
1309,B-2,93.0,0.125,127,95.0
1310,D2,93.0,0.125,127,95.0
1311,D3,93.0,0.125,127,95.0
1312,B-2,93.0,0.125,127,95.0
1313,D2,93.0,0.125,127,95.0
1314,D3,93.0,0.125,127,95.0
1315,D2,93.0,0.25,127,95.0
1316,E2,93.0,0.25,127,95.0
1317,F#2,93.0,0.25,127,95.0
1318,F#2,93.25,0.25,127,95.0
1319,D6,93.5,0.125,127,95.0
1320,F#2,93.5,0.25,127,95.0
1321,B-2,93.5,0.125,127,95.0
1322,D2,93.5,0.125,127,95.0
1323,D3,93.5,0.125,127,95.0
1324,B-2,93.5,0.125,127,95.0
1325,D2,93.5,0.125,127,95.0
1326,D3,93.5,0.125,127,95.0
1327,F#2,93.75,0.25,127,95.0
1328,C7,94.0,0.125,127,95.0
1329,C2,94.0,0.25,127,95.0
1330,F#2,94.0,0.25,127,95.0
1331,F#2,94.25,0.25,127,95.0
1332,D6,94.5,0.125,127,95.0
1333,D3,94.5,0.25,127,95.0
1334,D3,94.5,0.25,127,95.0
1335,B-2,94.5,0.125,127,95.0
1336,D2,94.5,0.125,127,95.0
1337,D3,94.5,0.125,127,95.0
1338,B-2,94.5,0.125,127,95.0
1339,D2,94.5,0.125,127,95.0
1340,D3,94.5,0.125,127,95.0
1341,C2,94.5,0.25,127,95.0
1342,F#2,94.5,0.25,127,95.0
1343,D3,94.75,0.25,127,95.0
1344,D3,94.75,0.25,127,95.0
1345,F#2,94.75,0.25,127,95.0
1346,B-6,95.0,0.125,127,95.0
1347,B-3,95.0,0.25,127,95.0
1348,B-3,95.0,0.25,127,95.0
1349,B-2,95.0,0.125,127,95.0
1350,D2,95.0,0.125,127,95.0
1351,D3,95.0,0.125,127,95.0
1352,B-2,95.0,0.125,127,95.0
1353,D2,95.0,0.125,127,95.0
1354,D3,95.0,0.125,127,95.0
1355,D2,95.0,0.25,127,95.0
1356,E2,95.0,0.25,127,95.0
1357,F#2,95.0,0.25,127,95.0
1358,B-3,95.25,0.25,127,95.0
1359,B-3,95.25,0.25,127,95.0
1360,C2,95.25,0.25,127,95.0
1361,F#2,95.25,0.25,127,95.0
1362,A6,95.5,0.125,127,95.0
1363,D3,95.5,0.25,127,95.0
1364,D3,95.5,0.25,127,95.0
1365,F#2,95.5,0.25,127,95.0
1366,B-2,95.5,0.125,127,95.0
1367,D2,95.5,0.125,127,95.0
1368,D3,95.5,0.125,127,95.0
1369,B-2,95.5,0.125,127,95.0
1370,D2,95.5,0.125,127,95.0
1371,D3,95.5,0.125,127,95.0
1372,D3,95.75,0.25,127,95.0
1373,D3,95.75,0.25,127,95.0
1374,F#2,95.75,0.25,127,95.0
1375,F#2,96.0,0.25,127,95.0
1376,C2,96.0,0.25,127,95.0
1377,F#2,96.25,0.25,127,95.0
1378,F#2,96.5,0.25,127,95.0
1379,A2,96.5,0.125,127,95.0
1380,D2,96.5,0.125,127,95.0
1381,D3,96.5,0.125,127,95.0
1382,A2,96.5,0.125,127,95.0
1383,D2,96.5,0.125,127,95.0
1384,D3,96.5,0.125,127,95.0
1385,D2,96.5,0.125,127,95.0
1386,D3,96.5,0.125,127,95.0
1387,F#2,96.75,0.25,127,95.0
1388,C2,96.875,0.125,127,95.0
1389,A2,97.0,0.125,127,95.0
1390,D2,97.0,0.125,127,95.0
1391,D3,97.0,0.125,127,95.0
1392,A2,97.0,0.125,127,95.0
1393,D2,97.0,0.125,127,95.0
1394,D3,97.0,0.125,127,95.0
1395,F#2,97.0,0.25,127,95.0
1396,D2,97.0,0.25,127,95.0
1397,E2,97.0,0.25,127,95.0
1398,D2,97.0,0.125,127,95.0
1399,D3,97.0,0.125,127,95.0
1400,F#2,97.25,0.25,127,95.0
1401,F#2,97.5,0.25,127,95.0
1402,F#2,97.75,0.25,127,95.0
1403,A2,98.0,0.125,127,95.0
1404,D2,98.0,0.125,127,95.0
1405,D3,98.0,0.125,127,95.0
1406,A2,98.0,0.125,127,95.0
1407,D2,98.0,0.125,127,95.0
1408,D3,98.0,0.125,127,95.0
1409,F#2,98.0,0.25,127,95.0
1410,C2,98.0,0.25,127,95.0
1411,D2,98.0,0.125,127,95.0
1412,D3,98.0,0.125,127,95.0
1413,F#2,98.25,0.25,127,95.0
1414,A2,98.5,0.125,127,95.0
1415,D2,98.5,0.125,127,95.0
1416,D3,98.5,0.125,127,95.0
1417,A2,98.5,0.125,127,95.0
1418,D2,98.5,0.125,127,95.0
1419,D3,98.5,0.125,127,95.0
1420,F#2,98.5,0.25,127,95.0
1421,C2,98.5,0.25,127,95.0
1422,D2,98.5,0.125,127,95.0
1423,D3,98.5,0.125,127,95.0
1424,F#2,98.75,0.25,127,95.0
1425,F#2,99.0,0.25,127,95.0
1426,D2,99.0,0.25,127,95.0
1427,E2,99.0,0.25,127,95.0
1428,F#2,99.25,0.25,127,95.0
1429,F#2,99.5,0.25,127,95.0
1430,A2,99.5,0.125,127,95.0
1431,D2,99.5,0.125,127,95.0
1432,D3,99.5,0.125,127,95.0
1433,A2,99.5,0.125,127,95.0
1434,D2,99.5,0.125,127,95.0
1435,D3,99.5,0.125,127,95.0
1436,D2,99.5,0.125,127,95.0
1437,D3,99.5,0.125,127,95.0
1438,F#2,99.75,0.25,127,95.0
1439,A2,100.0,0.125,127,95.0
1440,D2,100.0,0.125,127,95.0
1441,D3,100.0,0.125,127,95.0
1442,A2,100.0,0.125,127,95.0
1443,D2,100.0,0.125,127,95.0
1444,D3,100.0,0.125,127,95.0
1445,C2,100.0,0.25,127,95.0
1446,F#2,100.0,0.25,127,95.0
1447,D2,100.0,0.125,127,95.0
1448,D3,100.0,0.125,127,95.0
1449,F#2,100.25,0.25,127,95.0
1450,F#2,100.5,0.25,127,95.0
1451,C2,100.75,0.25,127,95.0
1452,F#2,100.75,0.25,127,95.0
1453,A2,101.0,0.125,127,95.0
1454,D2,101.0,0.125,127,95.0
1455,D3,101.0,0.125,127,95.0
1456,A2,101.0,0.125,127,95.0
1457,D2,101.0,0.125,127,95.0
1458,D3,101.0,0.125,127,95.0
1459,D2,101.0,0.25,127,95.0
1460,E2,101.0,0.25,127,95.0
1461,F#2,101.0,0.25,127,95.0
1462,D2,101.0,0.125,127,95.0
1463,D3,101.0,0.125,127,95.0
1464,F#2,101.25,0.25,127,95.0
1465,F#2,101.5,0.25,127,95.0
1466,A2,101.5,0.125,127,95.0
1467,D2,101.5,0.125,127,95.0
1468,D3,101.5,0.125,127,95.0
1469,A2,101.5,0.125,127,95.0
1470,D2,101.5,0.125,127,95.0
1471,D3,101.5,0.125,127,95.0
1472,D2,101.5,0.125,127,95.0
1473,D3,101.5,0.125,127,95.0
1474,F#2,101.75,0.25,127,95.0
1475,C2,102.0,0.25,127,95.0
1476,F#2,102.0,0.25,127,95.0
1477,F#2,102.25,0.25,127,95.0
1478,D3,102.5,0.25,127,95.0
1479,D3,102.5,0.25,127,95.0
1480,A2,102.5,0.125,127,95.0
1481,D2,102.5,0.125,127,95.0
1482,D3,102.5,0.125,127,95.0
1483,A2,102.5,0.125,127,95.0
1484,D2,102.5,0.125,127,95.0
1485,D3,102.5,0.125,127,95.0
1486,C2,102.5,0.25,127,95.0
1487,F#2,102.5,0.25,127,95.0
1488,D2,102.5,0.125,127,95.0
1489,D3,102.5,0.125,127,95.0
1490,D3,102.75,0.25,127,95.0
1491,D3,102.75,0.25,127,95.0
1492,F#2,102.75,0.25,127,95.0
1493,A3,103.0,0.25,127,95.0
1494,A3,103.0,0.25,127,95.0
1495,A2,103.0,0.125,127,95.0
1496,D2,103.0,0.125,127,95.0
1497,D3,103.0,0.125,127,95.0
1498,A2,103.0,0.125,127,95.0
1499,D2,103.0,0.125,127,95.0
1500,D3,103.0,0.125,127,95.0
1501,D2,103.0,0.25,127,95.0
1502,E2,103.0,0.25,127,95.0
1503,F#2,103.0,0.25,127,95.0
1504,D2,103.0,0.125,127,95.0
1505,D3,103.0,0.125,127,95.0
1506,A3,103.25,0.25,127,95.0
1507,A3,103.25,0.25,127,95.0
1508,C2,103.25,0.25,127,95.0
1509,F#2,103.25,0.25,127,95.0
1510,D3,103.5,0.25,127,95.0
1511,D3,103.5,0.25,127,95.0
1512,F#2,103.5,0.25,127,95.0
1513,A2,103.5,0.125,127,95.0
1514,D2,103.5,0.125,127,95.0
1515,D3,103.5,0.125,127,95.0
1516,A2,103.5,0.125,127,95.0
1517,D2,103.5,0.125,127,95.0
1518,D3,103.5,0.125,127,95.0
1519,D2,103.5,0.125,127,95.0
1520,D3,103.5,0.125,127,95.0
1521,D3,103.75,0.25,127,95.0
1522,D3,103.75,0.25,127,95.0
1523,F#2,103.75,0.25,127,95.0
1524,F#2,104.0,0.25,127,95.0
1525,C2,104.0,0.25,127,95.0
1526,F#2,104.25,0.25,127,95.0
1527,F#2,104.5,0.25,127,95.0
1528,B-2,104.5,0.125,127,95.0
1529,D2,104.5,0.125,127,95.0
1530,D3,104.5,0.125,127,95.0
1531,B-2,104.5,0.125,127,95.0
1532,D2,104.5,0.125,127,95.0
1533,D3,104.5,0.125,127,95.0
1534,D2,104.5,0.125,127,95.0
1535,D3,104.5,0.125,127,95.0
1536,F#2,104.75,0.25,127,95.0
1537,C2,104.875,0.125,127,95.0
1538,B-2,105.0,0.125,127,95.0
1539,D2,105.0,0.125,127,95.0
1540,D3,105.0,0.125,127,95.0
1541,B-2,105.0,0.125,127,95.0
1542,D2,105.0,0.125,127,95.0
1543,D3,105.0,0.125,127,95.0
1544,F#2,105.0,0.25,127,95.0
1545,D2,105.0,0.25,127,95.0
1546,E2,105.0,0.25,127,95.0
1547,D2,105.0,0.125,127,95.0
1548,D3,105.0,0.125,127,95.0
1549,F#2,105.25,0.25,127,95.0
1550,F#2,105.5,0.25,127,95.0
1551,F#2,105.75,0.25,127,95.0
1552,B-2,106.0,0.125,127,95.0
1553,D2,106.0,0.125,127,95.0
1554,D3,106.0,0.125,127,95.0
1555,B-2,106.0,0.125,127,95.0
1556,D2,106.0,0.125,127,95.0
1557,D3,106.0,0.125,127,95.0
1558,F#2,106.0,0.25,127,95.0
1559,C2,106.0,0.25,127,95.0
1560,D2,106.0,0.125,127,95.0
1561,D3,106.0,0.125,127,95.0
1562,F#2,106.25,0.25,127,95.0
1563,B-2,106.5,0.125,127,95.0
1564,D2,106.5,0.125,127,95.0
1565,D3,106.5,0.125,127,95.0
1566,B-2,106.5,0.125,127,95.0
1567,D2,106.5,0.125,127,95.0
1568,D3,106.5,0.125,127,95.0
1569,F#2,106.5,0.25,127,95.0
1570,C2,106.5,0.25,127,95.0
1571,D2,106.5,0.125,127,95.0
1572,D3,106.5,0.125,127,95.0
1573,F#2,106.75,0.25,127,95.0
1574,F#2,107.0,0.25,127,95.0
1575,D2,107.0,0.25,127,95.0
1576,E2,107.0,0.25,127,95.0
1577,F#2,107.25,0.25,127,95.0
1578,F#2,107.5,0.25,127,95.0
1579,B-2,107.5,0.125,127,95.0
1580,D2,107.5,0.125,127,95.0
1581,D3,107.5,0.125,127,95.0
1582,B-2,107.5,0.125,127,95.0
1583,D2,107.5,0.125,127,95.0
1584,D3,107.5,0.125,127,95.0
1585,D2,107.5,0.125,127,95.0
1586,D3,107.5,0.125,127,95.0
1587,F#2,107.75,0.25,127,95.0
1588,B-2,108.0,0.125,127,95.0
1589,D2,108.0,0.125,127,95.0
1590,D3,108.0,0.125,127,95.0
1591,B-2,108.0,0.125,127,95.0
1592,D2,108.0,0.125,127,95.0
1593,D3,108.0,0.125,127,95.0
1594,C2,108.0,0.25,127,95.0
1595,F#2,108.0,0.25,127,95.0
1596,D2,108.0,0.125,127,95.0
1597,D3,108.0,0.125,127,95.0
1598,F#2,108.25,0.25,127,95.0
1599,F#2,108.5,0.25,127,95.0
1600,C2,108.75,0.25,127,95.0
1601,F#2,108.75,0.25,127,95.0
1602,B-2,109.0,0.125,127,95.0
1603,D2,109.0,0.125,127,95.0
1604,D3,109.0,0.125,127,95.0
1605,B-2,109.0,0.125,127,95.0
1606,D2,109.0,0.125,127,95.0
1607,D3,109.0,0.125,127,95.0
1608,D2,109.0,0.25,127,95.0
1609,E2,109.0,0.25,127,95.0
1610,F#2,109.0,0.25,127,95.0
1611,D2,109.0,0.125,127,95.0
1612,D3,109.0,0.125,127,95.0
1613,F#2,109.25,0.25,127,95.0
1614,F#2,109.5,0.25,127,95.0
1615,B-2,109.5,0.125,127,95.0
1616,D2,109.5,0.125,127,95.0
1617,D3,109.5,0.125,127,95.0
1618,B-2,109.5,0.125,127,95.0
1619,D2,109.5,0.125,127,95.0
1620,D3,109.5,0.125,127,95.0
1621,D2,109.5,0.125,127,95.0
1622,D3,109.5,0.125,127,95.0
1623,F#2,109.75,0.25,127,95.0
1624,C2,110.0,0.25,127,95.0
1625,F#2,110.0,0.25,127,95.0
1626,F#2,110.25,0.25,127,95.0
1627,D3,110.5,0.25,127,95.0
1628,D3,110.5,0.25,127,95.0
1629,B-2,110.5,0.125,127,95.0
1630,D2,110.5,0.125,127,95.0
1631,D3,110.5,0.125,127,95.0
1632,B-2,110.5,0.125,127,95.0
1633,D2,110.5,0.125,127,95.0
1634,D3,110.5,0.125,127,95.0
1635,C2,110.5,0.25,127,95.0
1636,F#2,110.5,0.25,127,95.0
1637,D2,110.5,0.125,127,95.0
1638,D3,110.5,0.125,127,95.0
1639,D3,110.75,0.25,127,95.0
1640,D3,110.75,0.25,127,95.0
1641,F#2,110.75,0.25,127,95.0
1642,B-3,111.0,0.25,127,95.0
1643,B-3,111.0,0.25,127,95.0
1644,B-2,111.0,0.125,127,95.0
1645,D2,111.0,0.125,127,95.0
1646,D3,111.0,0.125,127,95.0
1647,B-2,111.0,0.125,127,95.0
1648,D2,111.0,0.125,127,95.0
1649,D3,111.0,0.125,127,95.0
1650,D2,111.0,0.25,127,95.0
1651,E2,111.0,0.25,127,95.0
1652,F#2,111.0,0.25,127,95.0
1653,D2,111.0,0.125,127,95.0
1654,D3,111.0,0.125,127,95.0
1655,B-3,111.25,0.25,127,95.0
1656,B-3,111.25,0.25,127,95.0
1657,C2,111.25,0.25,127,95.0
1658,F#2,111.25,0.25,127,95.0
1659,D3,111.5,0.25,127,95.0
1660,D3,111.5,0.25,127,95.0
1661,F#2,111.5,0.25,127,95.0
1662,B-2,111.5,0.125,127,95.0
1663,D2,111.5,0.125,127,95.0
1664,D3,111.5,0.125,127,95.0
1665,B-2,111.5,0.125,127,95.0
1666,D2,111.5,0.125,127,95.0
1667,D3,111.5,0.125,127,95.0
1668,D2,111.5,0.125,127,95.0
1669,D3,111.5,0.125,127,95.0
1670,D3,111.75,0.25,127,95.0
1671,D3,111.75,0.25,127,95.0
1672,F#2,111.75,0.25,127,95.0
1673,E5,112.0,4.0,100,95.0
1674,F#2,112.0,0.25,127,95.0
1675,C2,112.0,0.25,127,95.0
1676,F#2,112.25,0.25,127,95.0
1677,F#2,112.5,0.25,127,95.0
1678,A2,112.5,0.125,127,95.0
1679,D2,112.5,0.125,127,95.0
1680,D3,112.5,0.125,127,95.0
1681,A2,112.5,0.125,127,95.0
1682,D2,112.5,0.125,127,95.0
1683,D3,112.5,0.125,127,95.0
1684,D2,112.5,0.125,127,95.0
1685,D3,112.5,0.125,127,95.0
1686,F#2,112.75,0.25,127,95.0
1687,C2,112.875,0.125,127,95.0
1688,A2,113.0,0.125,127,95.0
1689,D2,113.0,0.125,127,95.0
1690,D3,113.0,0.125,127,95.0
1691,A2,113.0,0.125,127,95.0
1692,D2,113.0,0.125,127,95.0
1693,D3,113.0,0.125,127,95.0
1694,F#2,113.0,0.25,127,95.0
1695,D2,113.0,0.25,127,95.0
1696,E2,113.0,0.25,127,95.0
1697,D2,113.0,0.125,127,95.0
1698,D3,113.0,0.125,127,95.0
1699,F#2,113.25,0.25,127,95.0
1700,F#2,113.5,0.25,127,95.0
1701,F#2,113.75,0.25,127,95.0
1702,A2,114.0,0.125,127,95.0
1703,D2,114.0,0.125,127,95.0
1704,D3,114.0,0.125,127,95.0
1705,A2,114.0,0.125,127,95.0
1706,D2,114.0,0.125,127,95.0
1707,D3,114.0,0.125,127,95.0
1708,F#2,114.0,0.25,127,95.0
1709,C2,114.0,0.25,127,95.0
1710,D2,114.0,0.125,127,95.0
1711,D3,114.0,0.125,127,95.0
1712,F#2,114.25,0.25,127,95.0
1713,A2,114.5,0.125,127,95.0
1714,D2,114.5,0.125,127,95.0
1715,D3,114.5,0.125,127,95.0
1716,A2,114.5,0.125,127,95.0
1717,D2,114.5,0.125,127,95.0
1718,D3,114.5,0.125,127,95.0
1719,F#2,114.5,0.25,127,95.0
1720,C2,114.5,0.25,127,95.0
1721,D2,114.5,0.125,127,95.0
1722,D3,114.5,0.125,127,95.0
1723,F#2,114.75,0.25,127,95.0
1724,F#2,115.0,0.25,127,95.0
1725,D2,115.0,0.25,127,95.0
1726,E2,115.0,0.25,127,95.0
1727,F#2,115.25,0.25,127,95.0
1728,F#2,115.5,0.25,127,95.0
1729,A2,115.5,0.125,127,95.0
1730,D2,115.5,0.125,127,95.0
1731,D3,115.5,0.125,127,95.0
1732,A2,115.5,0.125,127,95.0
1733,D2,115.5,0.125,127,95.0
1734,D3,115.5,0.125,127,95.0
1735,D2,115.5,0.125,127,95.0
1736,D3,115.5,0.125,127,95.0
1737,F#2,115.75,0.25,127,95.0
1738,E5,116.0,2.0,100,95.0
1739,A2,116.0,0.125,127,95.0
1740,D2,116.0,0.125,127,95.0
1741,D3,116.0,0.125,127,95.0
1742,A2,116.0,0.125,127,95.0
1743,D2,116.0,0.125,127,95.0
1744,D3,116.0,0.125,127,95.0
1745,C2,116.0,0.25,127,95.0
1746,F#2,116.0,0.25,127,95.0
1747,D2,116.0,0.125,127,95.0
1748,D3,116.0,0.125,127,95.0
1749,F#2,116.25,0.25,127,95.0
1750,F#2,116.5,0.25,127,95.0
1751,C2,116.75,0.25,127,95.0
1752,F#2,116.75,0.25,127,95.0
1753,A2,117.0,0.125,127,95.0
1754,D2,117.0,0.125,127,95.0
1755,D3,117.0,0.125,127,95.0
1756,A2,117.0,0.125,127,95.0
1757,D2,117.0,0.125,127,95.0
1758,D3,117.0,0.125,127,95.0
1759,D2,117.0,0.25,127,95.0
1760,E2,117.0,0.25,127,95.0
1761,F#2,117.0,0.25,127,95.0
1762,D2,117.0,0.125,127,95.0
1763,D3,117.0,0.125,127,95.0
1764,F#2,117.25,0.25,127,95.0
1765,F#2,117.5,0.25,127,95.0
1766,A2,117.5,0.125,127,95.0
1767,D2,117.5,0.125,127,95.0
1768,D3,117.5,0.125,127,95.0
1769,A2,117.5,0.125,127,95.0
1770,D2,117.5,0.125,127,95.0
1771,D3,117.5,0.125,127,95.0
1772,D2,117.5,0.125,127,95.0
1773,D3,117.5,0.125,127,95.0
1774,F#2,117.75,0.25,127,95.0
1775,C2,118.0,0.25,127,95.0
1776,F#2,118.0,0.25,127,95.0
1777,F#2,118.25,0.25,127,95.0
1778,D3,118.5,0.25,127,95.0
1779,D3,118.5,0.25,127,95.0
1780,A2,118.5,0.125,127,95.0
1781,D2,118.5,0.125,127,95.0
1782,D3,118.5,0.125,127,95.0
1783,A2,118.5,0.125,127,95.0
1784,D2,118.5,0.125,127,95.0
1785,D3,118.5,0.125,127,95.0
1786,C2,118.5,0.25,127,95.0
1787,F#2,118.5,0.25,127,95.0
1788,D2,118.5,0.125,127,95.0
1789,D3,118.5,0.125,127,95.0
1790,D3,118.75,0.25,127,95.0
1791,D3,118.75,0.25,127,95.0
1792,F#2,118.75,0.25,127,95.0
1793,A3,119.0,0.25,127,95.0
1794,A3,119.0,0.25,127,95.0
1795,A2,119.0,0.125,127,95.0
1796,D2,119.0,0.125,127,95.0
1797,D3,119.0,0.125,127,95.0
1798,A2,119.0,0.125,127,95.0
1799,D2,119.0,0.125,127,95.0
1800,D3,119.0,0.125,127,95.0
1801,D2,119.0,0.25,127,95.0
1802,E2,119.0,0.25,127,95.0
1803,F#2,119.0,0.25,127,95.0
1804,D2,119.0,0.125,127,95.0
1805,D3,119.0,0.125,127,95.0
1806,A3,119.25,0.25,127,95.0
1807,A3,119.25,0.25,127,95.0
1808,C2,119.25,0.25,127,95.0
1809,F#2,119.25,0.25,127,95.0
1810,D3,119.5,0.25,127,95.0
1811,D3,119.5,0.25,127,95.0
1812,F#2,119.5,0.25,127,95.0
1813,A2,119.5,0.125,127,95.0
1814,D2,119.5,0.125,127,95.0
1815,D3,119.5,0.125,127,95.0
1816,A2,119.5,0.125,127,95.0
1817,D2,119.5,0.125,127,95.0
1818,D3,119.5,0.125,127,95.0
1819,D2,119.5,0.125,127,95.0
1820,D3,119.5,0.125,127,95.0
1821,D3,119.75,0.25,127,95.0
1822,D3,119.75,0.25,127,95.0
1823,F#2,119.75,0.25,127,95.0
1824,F#2,120.0,0.25,127,95.0
1825,C2,120.0,0.25,127,95.0
1826,F#2,120.25,0.25,127,95.0
1827,F#2,120.5,0.25,127,95.0
1828,B-2,120.5,0.125,127,95.0
1829,D2,120.5,0.125,127,95.0
1830,D3,120.5,0.125,127,95.0
1831,B-2,120.5,0.125,127,95.0
1832,D2,120.5,0.125,127,95.0
1833,D3,120.5,0.125,127,95.0
1834,D2,120.5,0.125,127,95.0
1835,D3,120.5,0.125,127,95.0
1836,F#2,120.75,0.25,127,95.0
1837,C2,120.875,0.125,127,95.0
1838,B-2,121.0,0.125,127,95.0
1839,D2,121.0,0.125,127,95.0
1840,D3,121.0,0.125,127,95.0
1841,B-2,121.0,0.125,127,95.0
1842,D2,121.0,0.125,127,95.0
1843,D3,121.0,0.125,127,95.0
1844,F#2,121.0,0.25,127,95.0
1845,D2,121.0,0.25,127,95.0
1846,E2,121.0,0.25,127,95.0
1847,D2,121.0,0.125,127,95.0
1848,D3,121.0,0.125,127,95.0
1849,F#2,121.25,0.25,127,95.0
1850,F#2,121.5,0.25,127,95.0
1851,F#2,121.75,0.25,127,95.0
1852,G4,122.0,2.0,100,95.0
1853,B-2,122.0,0.125,127,95.0
1854,D2,122.0,0.125,127,95.0
1855,D3,122.0,0.125,127,95.0
1856,B-2,122.0,0.125,127,95.0
1857,D2,122.0,0.125,127,95.0
1858,D3,122.0,0.125,127,95.0
1859,F#2,122.0,0.25,127,95.0
1860,C2,122.0,0.25,127,95.0
1861,D2,122.0,0.125,127,95.0
1862,D3,122.0,0.125,127,95.0
1863,F#2,122.25,0.25,127,95.0
1864,B-2,122.5,0.125,127,95.0
1865,D2,122.5,0.125,127,95.0
1866,D3,122.5,0.125,127,95.0
1867,B-2,122.5,0.125,127,95.0
1868,D2,122.5,0.125,127,95.0
1869,D3,122.5,0.125,127,95.0
1870,F#2,122.5,0.25,127,95.0
1871,C2,122.5,0.25,127,95.0
1872,D2,122.5,0.125,127,95.0
1873,D3,122.5,0.125,127,95.0
1874,F#2,122.75,0.25,127,95.0
1875,F#2,123.0,0.25,127,95.0
1876,D2,123.0,0.25,127,95.0
1877,E2,123.0,0.25,127,95.0
1878,F#2,123.25,0.25,127,95.0
1879,F#2,123.5,0.25,127,95.0
1880,B-2,123.5,0.125,127,95.0
1881,D2,123.5,0.125,127,95.0
1882,D3,123.5,0.125,127,95.0
1883,B-2,123.5,0.125,127,95.0
1884,D2,123.5,0.125,127,95.0
1885,D3,123.5,0.125,127,95.0
1886,D2,123.5,0.125,127,95.0
1887,D3,123.5,0.125,127,95.0
1888,F#2,123.75,0.25,127,95.0
1889,G4,124.0,4.0,100,95.0
1890,B-2,124.0,0.125,127,95.0
1891,D2,124.0,0.125,127,95.0
1892,D3,124.0,0.125,127,95.0
1893,B-2,124.0,0.125,127,95.0
1894,D2,124.0,0.125,127,95.0
1895,D3,124.0,0.125,127,95.0
1896,C2,124.0,0.25,127,95.0
1897,F#2,124.0,0.25,127,95.0
1898,D2,124.0,0.125,127,95.0
1899,D3,124.0,0.125,127,95.0
1900,F#2,124.25,0.25,127,95.0
1901,F#2,124.5,0.25,127,95.0
1902,C2,124.75,0.25,127,95.0
1903,F#2,124.75,0.25,127,95.0
1904,B-2,125.0,0.125,127,95.0
1905,D2,125.0,0.125,127,95.0
1906,D3,125.0,0.125,127,95.0
1907,B-2,125.0,0.125,127,95.0
1908,D2,125.0,0.125,127,95.0
1909,D3,125.0,0.125,127,95.0
1910,D2,125.0,0.25,127,95.0
1911,E2,125.0,0.25,127,95.0
1912,F#2,125.0,0.25,127,95.0
1913,D2,125.0,0.125,127,95.0
1914,D3,125.0,0.125,127,95.0
1915,F#2,125.25,0.25,127,95.0
1916,F#2,125.5,0.25,127,95.0
1917,B-2,125.5,0.125,127,95.0
1918,D2,125.5,0.125,127,95.0
1919,D3,125.5,0.125,127,95.0
1920,B-2,125.5,0.125,127,95.0
1921,D2,125.5,0.125,127,95.0
1922,D3,125.5,0.125,127,95.0
1923,D2,125.5,0.125,127,95.0
1924,D3,125.5,0.125,127,95.0
1925,F#2,125.75,0.25,127,95.0
1926,C2,126.0,0.25,127,95.0
1927,F#2,126.0,0.25,127,95.0
1928,F#2,126.25,0.25,127,95.0
1929,D3,126.5,0.25,127,95.0
1930,D3,126.5,0.25,127,95.0
1931,B-2,126.5,0.125,127,95.0
1932,D2,126.5,0.125,127,95.0
1933,D3,126.5,0.125,127,95.0
1934,B-2,126.5,0.125,127,95.0
1935,D2,126.5,0.125,127,95.0
1936,D3,126.5,0.125,127,95.0
1937,C2,126.5,0.25,127,95.0
1938,F#2,126.5,0.25,127,95.0
1939,D2,126.5,0.125,127,95.0
1940,D3,126.5,0.125,127,95.0
1941,D3,126.75,0.25,127,95.0
1942,D3,126.75,0.25,127,95.0
1943,F#2,126.75,0.25,127,95.0
1944,B-3,127.0,0.25,127,95.0
1945,B-3,127.0,0.25,127,95.0
1946,B-2,127.0,0.125,127,95.0
1947,D2,127.0,0.125,127,95.0
1948,D3,127.0,0.125,127,95.0
1949,B-2,127.0,0.125,127,95.0
1950,D2,127.0,0.125,127,95.0
1951,D3,127.0,0.125,127,95.0
1952,D2,127.0,0.25,127,95.0
1953,E2,127.0,0.25,127,95.0
1954,F#2,127.0,0.25,127,95.0
1955,D2,127.0,0.125,127,95.0
1956,D3,127.0,0.125,127,95.0
1957,B-3,127.25,0.25,127,95.0
1958,B-3,127.25,0.25,127,95.0
1959,C2,127.25,0.25,127,95.0
1960,F#2,127.25,0.25,127,95.0
1961,D3,127.5,0.25,127,95.0
1962,D3,127.5,0.25,127,95.0
1963,F#2,127.5,0.25,127,95.0
1964,B-2,127.5,0.125,127,95.0
1965,D2,127.5,0.125,127,95.0
1966,D3,127.5,0.125,127,95.0
1967,B-2,127.5,0.125,127,95.0
1968,D2,127.5,0.125,127,95.0
1969,D3,127.5,0.125,127,95.0
1970,D2,127.5,0.125,127,95.0
1971,D3,127.5,0.125,127,95.0
1972,D3,127.75,0.25,127,95.0
1973,D3,127.75,0.25,127,95.0
1974,F#2,127.75,0.25,127,95.0
1975,A3,128.0,1.0,127,95.0
1976,C2,128.0,0.25,127,95.0
1977,D3,128.0,0.5,127,95.0
1978,D2,128.0,0.5,127,95.0
1979,A2,128.5,0.125,127,95.0
1980,D2,128.5,0.125,127,95.0
1981,D3,128.5,0.125,127,95.0
1982,A2,128.5,0.125,127,95.0
1983,D2,128.5,0.125,127,95.0
1984,D3,128.5,0.125,127,95.0
1985,D2,128.5,0.5,127,95.0
1986,D3,128.5,0.5,127,95.0
1987,D4,128.5,0.5,127,95.0
1988,C2,128.75,0.25,127,95.0
1989,A3,129.0,1.0,127,95.0
1990,E2,129.0,0.25,127,95.0
1991,A2,129.0,0.125,127,95.0
1992,D2,129.0,0.125,127,95.0
1993,D3,129.0,0.125,127,95.0
1994,A2,129.0,0.125,127,95.0
1995,D2,129.0,0.125,127,95.0
1996,D3,129.0,0.125,127,95.0
1997,D2,129.0,0.5,127,95.0
1998,D3,129.0,0.5,127,95.0
1999,A4,129.0,0.5,127,95.0
2000,D2,129.5,0.5,127,95.0
2001,D3,129.5,0.5,127,95.0
2002,A3,130.0,1.0,127,95.0
2003,C2,130.0,0.25,127,95.0
2004,A2,130.0,0.125,127,95.0
2005,D2,130.0,0.125,127,95.0
2006,D3,130.0,0.125,127,95.0
2007,A2,130.0,0.125,127,95.0
2008,D2,130.0,0.125,127,95.0
2009,D3,130.0,0.125,127,95.0
2010,D2,130.0,0.5,127,95.0
2011,D3,130.0,0.5,127,95.0
2012,A4,130.0,0.5,127,95.0
2013,C2,130.5,0.25,127,95.0
2014,A2,130.5,0.125,127,95.0
2015,D2,130.5,0.125,127,95.0
2016,D3,130.5,0.125,127,95.0
2017,A2,130.5,0.125,127,95.0
2018,D2,130.5,0.125,127,95.0
2019,D3,130.5,0.125,127,95.0
2020,D2,130.5,0.5,127,95.0
2021,D3,130.5,0.5,127,95.0
2022,D4,130.5,0.5,127,95.0
2023,A3,131.0,1.0,127,95.0
2024,E2,131.0,0.25,127,95.0
2025,D2,131.0,0.5,127,95.0
2026,D3,131.0,0.5,127,95.0
2027,C2,131.5,0.25,127,95.0
2028,A2,131.5,0.125,127,95.0
2029,D2,131.5,0.125,127,95.0
2030,D3,131.5,0.125,127,95.0
2031,A2,131.5,0.125,127,95.0
2032,D2,131.5,0.125,127,95.0
2033,D3,131.5,0.125,127,95.0
2034,D2,131.5,0.5,127,95.0
2035,D3,131.5,0.5,127,95.0
2036,D4,131.5,0.5,127,95.0
2037,A3,132.0,1.0,127,95.0
2038,C2,132.0,0.25,127,95.0
2039,A2,132.0,0.125,127,95.0
2040,D2,132.0,0.125,127,95.0
2041,D3,132.0,0.125,127,95.0
2042,A2,132.0,0.125,127,95.0
2043,D2,132.0,0.125,127,95.0
2044,D3,132.0,0.125,127,95.0
2045,D2,132.0,0.5,127,95.0
2046,D3,132.0,0.5,127,95.0
2047,A4,132.0,0.5,127,95.0
2048,D2,132.5,0.5,127,95.0
2049,D3,132.5,0.5,127,95.0
2050,C2,132.75,0.25,127,95.0
2051,A3,133.0,1.0,127,95.0
2052,E2,133.0,0.25,127,95.0
2053,A2,133.0,0.125,127,95.0
2054,D2,133.0,0.125,127,95.0
2055,D3,133.0,0.125,127,95.0
2056,A2,133.0,0.125,127,95.0
2057,D2,133.0,0.125,127,95.0
2058,D3,133.0,0.125,127,95.0
2059,D2,133.0,0.5,127,95.0
2060,D3,133.0,0.5,127,95.0
2061,A4,133.0,0.5,127,95.0
2062,A2,133.5,0.125,127,95.0
2063,D2,133.5,0.125,127,95.0
2064,D3,133.5,0.125,127,95.0
2065,A2,133.5,0.125,127,95.0
2066,D2,133.5,0.125,127,95.0
2067,D3,133.5,0.125,127,95.0
2068,D2,133.5,0.5,127,95.0
2069,D3,133.5,0.5,127,95.0
2070,D4,133.5,0.5,127,95.0
2071,A3,134.0,1.0,127,95.0
2072,C2,134.0,0.25,127,95.0
2073,D2,134.0,0.5,127,95.0
2074,D3,134.0,0.5,127,95.0
2075,D3,134.5,0.25,127,95.0
2076,D3,134.5,0.25,127,95.0
2077,C2,134.5,0.25,127,95.0
2078,A2,134.5,0.125,127,95.0
2079,D2,134.5,0.125,127,95.0
2080,D3,134.5,0.125,127,95.0
2081,A2,134.5,0.125,127,95.0
2082,D2,134.5,0.125,127,95.0
2083,D3,134.5,0.125,127,95.0
2084,D2,134.5,0.5,127,95.0
2085,D3,134.5,0.5,127,95.0
2086,D4,134.5,0.5,127,95.0
2087,D3,134.75,0.25,127,95.0
2088,D3,134.75,0.25,127,95.0
2089,A3,135.0,0.25,127,95.0
2090,A3,135.0,0.25,127,95.0
2091,A3,135.0,1.0,127,95.0
2092,E2,135.0,0.25,127,95.0
2093,A2,135.0,0.125,127,95.0
2094,D2,135.0,0.125,127,95.0
2095,D3,135.0,0.125,127,95.0
2096,A2,135.0,0.125,127,95.0
2097,D2,135.0,0.125,127,95.0
2098,D3,135.0,0.125,127,95.0
2099,D2,135.0,0.5,127,95.0
2100,D3,135.0,0.5,127,95.0
2101,A4,135.0,0.5,127,95.0
2102,A3,135.25,0.25,127,95.0
2103,A3,135.25,0.25,127,95.0
2104,D3,135.5,0.25,127,95.0
2105,D3,135.5,0.25,127,95.0
2106,A2,135.5,0.125,127,95.0
2107,D2,135.5,0.125,127,95.0
2108,D3,135.5,0.125,127,95.0
2109,A2,135.5,0.125,127,95.0
2110,D2,135.5,0.125,127,95.0
2111,D3,135.5,0.125,127,95.0
2112,D2,135.5,0.5,127,95.0
2113,D3,135.5,0.5,127,95.0
2114,D4,135.5,0.5,127,95.0
2115,D3,135.75,0.25,127,95.0
2116,D3,135.75,0.25,127,95.0
2117,E2,135.75,0.25,127,95.0
2118,A3,136.0,1.0,127,95.0
2119,C2,136.0,0.25,127,95.0
2120,E-2,136.0,0.5,127,95.0
2121,E-3,136.0,0.5,127,95.0
2122,E-4,136.0,0.5,127,95.0
2123,B-2,136.5,0.125,127,95.0
2124,D2,136.5,0.125,127,95.0
2125,D3,136.5,0.125,127,95.0
2126,B-2,136.5,0.125,127,95.0
2127,D2,136.5,0.125,127,95.0
2128,D3,136.5,0.125,127,95.0
2129,E-2,136.5,0.5,127,95.0
2130,E-3,136.5,0.5,127,95.0
2131,E-4,136.5,0.5,127,95.0
2132,C2,136.75,0.25,127,95.0
2133,A3,137.0,1.0,127,95.0
2134,E2,137.0,0.25,127,95.0
2135,B-2,137.0,0.125,127,95.0
2136,D2,137.0,0.125,127,95.0
2137,D3,137.0,0.125,127,95.0
2138,B-2,137.0,0.125,127,95.0
2139,D2,137.0,0.125,127,95.0
2140,D3,137.0,0.125,127,95.0
2141,E-2,137.0,0.5,127,95.0
2142,E-3,137.0,0.5,127,95.0
2143,F4,137.0,0.5,127,95.0
2144,E-2,137.5,0.5,127,95.0
2145,E-3,137.5,0.5,127,95.0
2146,A3,138.0,1.0,127,95.0
2147,C2,138.0,0.25,127,95.0
2148,B-2,138.0,0.125,127,95.0
2149,D2,138.0,0.125,127,95.0
2150,D3,138.0,0.125,127,95.0
2151,B-2,138.0,0.125,127,95.0
2152,D2,138.0,0.125,127,95.0
2153,D3,138.0,0.125,127,95.0
2154,E-2,138.0,0.5,127,95.0
2155,E-3,138.0,0.5,127,95.0
2156,F4,138.0,0.5,127,95.0
2157,C2,138.5,0.25,127,95.0
2158,B-2,138.5,0.125,127,95.0
2159,D2,138.5,0.125,127,95.0
2160,D3,138.5,0.125,127,95.0
2161,B-2,138.5,0.125,127,95.0
2162,D2,138.5,0.125,127,95.0
2163,D3,138.5,0.125,127,95.0
2164,E-2,138.5,0.5,127,95.0
2165,E-3,138.5,0.5,127,95.0
2166,E-4,138.5,0.5,127,95.0
2167,A3,139.0,1.0,127,95.0
2168,E2,139.0,0.25,127,95.0
2169,E-2,139.0,0.5,127,95.0
2170,E-3,139.0,0.5,127,95.0
2171,C2,139.5,0.25,127,95.0
2172,B-2,139.5,0.125,127,95.0
2173,D2,139.5,0.125,127,95.0
2174,D3,139.5,0.125,127,95.0
2175,B-2,139.5,0.125,127,95.0
2176,D2,139.5,0.125,127,95.0
2177,D3,139.5,0.125,127,95.0
2178,E-2,139.5,0.5,127,95.0
2179,E-3,139.5,0.5,127,95.0
2180,E-4,139.5,0.5,127,95.0
2181,A3,140.0,1.0,127,95.0
2182,C2,140.0,0.25,127,95.0
2183,B-2,140.0,0.125,127,95.0
2184,D2,140.0,0.125,127,95.0
2185,D3,140.0,0.125,127,95.0
2186,B-2,140.0,0.125,127,95.0
2187,D2,140.0,0.125,127,95.0
2188,D3,140.0,0.125,127,95.0
2189,F4,140.0,0.5,127,95.0
2190,E-2,140.0,0.5,127,95.0
2191,E-3,140.0,0.5,127,95.0
2192,E-2,140.5,0.5,127,95.0
2193,E-3,140.5,0.5,127,95.0
2194,C2,140.75,0.25,127,95.0
2195,A3,141.0,1.0,127,95.0
2196,E2,141.0,0.25,127,95.0
2197,B-2,141.0,0.125,127,95.0
2198,D2,141.0,0.125,127,95.0
2199,D3,141.0,0.125,127,95.0
2200,B-2,141.0,0.125,127,95.0
2201,D2,141.0,0.125,127,95.0
2202,D3,141.0,0.125,127,95.0
2203,F4,141.0,0.5,127,95.0
2204,E-2,141.0,0.5,127,95.0
2205,E-3,141.0,0.5,127,95.0
2206,B-2,141.5,0.125,127,95.0
2207,D2,141.5,0.125,127,95.0
2208,D3,141.5,0.125,127,95.0
2209,B-2,141.5,0.125,127,95.0
2210,D2,141.5,0.125,127,95.0
2211,D3,141.5,0.125,127,95.0
2212,E-4,141.5,0.5,127,95.0
2213,E-2,141.5,0.5,127,95.0
2214,E-3,141.5,0.5,127,95.0
2215,A3,142.0,1.0,127,95.0
2216,C2,142.0,0.25,127,95.0
2217,E-2,142.0,0.5,127,95.0
2218,E-3,142.0,0.5,127,95.0
2219,D3,142.5,0.25,127,95.0
2220,D3,142.5,0.25,127,95.0
2221,C2,142.5,0.25,127,95.0
2222,B-2,142.5,0.125,127,95.0
2223,D2,142.5,0.125,127,95.0
2224,D3,142.5,0.125,127,95.0
2225,B-2,142.5,0.125,127,95.0
2226,D2,142.5,0.125,127,95.0
2227,D3,142.5,0.125,127,95.0
2228,E-4,142.5,0.5,127,95.0
2229,E-2,142.5,0.5,127,95.0
2230,E-3,142.5,0.5,127,95.0
2231,D3,142.75,0.25,127,95.0
2232,D3,142.75,0.25,127,95.0
2233,B-3,143.0,0.25,127,95.0
2234,B-3,143.0,0.25,127,95.0
2235,A3,143.0,1.0,127,95.0
2236,E2,143.0,0.25,127,95.0
2237,B-2,143.0,0.125,127,95.0
2238,D2,143.0,0.125,127,95.0
2239,D3,143.0,0.125,127,95.0
2240,B-2,143.0,0.125,127,95.0
2241,D2,143.0,0.125,127,95.0
2242,D3,143.0,0.125,127,95.0
2243,F4,143.0,0.5,127,95.0
2244,E-2,143.0,0.5,127,95.0
2245,E-3,143.0,0.5,127,95.0
2246,B-3,143.25,0.25,127,95.0
2247,B-3,143.25,0.25,127,95.0
2248,D3,143.5,0.25,127,95.0
2249,D3,143.5,0.25,127,95.0
2250,B-2,143.5,0.125,127,95.0
2251,D2,143.5,0.125,127,95.0
2252,D3,143.5,0.125,127,95.0
2253,B-2,143.5,0.125,127,95.0
2254,D2,143.5,0.125,127,95.0
2255,D3,143.5,0.125,127,95.0
2256,E-4,143.5,0.5,127,95.0
2257,E-2,143.5,0.5,127,95.0
2258,E-3,143.5,0.5,127,95.0
2259,D3,143.75,0.25,127,95.0
2260,D3,143.75,0.25,127,95.0
2261,E2,143.75,0.25,127,95.0
2262,A3,144.0,1.0,127,95.0
2263,C2,144.0,0.25,127,95.0
2264,D3,144.0,0.5,127,95.0
2265,D2,144.0,0.5,127,95.0
2266,A2,144.5,0.125,127,95.0
2267,D2,144.5,0.125,127,95.0
2268,D3,144.5,0.125,127,95.0
2269,A2,144.5,0.125,127,95.0
2270,D2,144.5,0.125,127,95.0
2271,D3,144.5,0.125,127,95.0
2272,D2,144.5,0.5,127,95.0
2273,D3,144.5,0.5,127,95.0
2274,D4,144.5,0.5,127,95.0
2275,C2,144.75,0.25,127,95.0
2276,A3,145.0,1.0,127,95.0
2277,E2,145.0,0.25,127,95.0
2278,A2,145.0,0.125,127,95.0
2279,D2,145.0,0.125,127,95.0
2280,D3,145.0,0.125,127,95.0
2281,A2,145.0,0.125,127,95.0
2282,D2,145.0,0.125,127,95.0
2283,D3,145.0,0.125,127,95.0
2284,D2,145.0,0.5,127,95.0
2285,D3,145.0,0.5,127,95.0
2286,A4,145.0,0.5,127,95.0
2287,D2,145.5,0.5,127,95.0
2288,D3,145.5,0.5,127,95.0
2289,A3,146.0,1.0,127,95.0
2290,C2,146.0,0.25,127,95.0
2291,A2,146.0,0.125,127,95.0
2292,D2,146.0,0.125,127,95.0
2293,D3,146.0,0.125,127,95.0
2294,A2,146.0,0.125,127,95.0
2295,D2,146.0,0.125,127,95.0
2296,D3,146.0,0.125,127,95.0
2297,D2,146.0,0.5,127,95.0
2298,D3,146.0,0.5,127,95.0
2299,A4,146.0,0.5,127,95.0
2300,C2,146.5,0.25,127,95.0
2301,A2,146.5,0.125,127,95.0
2302,D2,146.5,0.125,127,95.0
2303,D3,146.5,0.125,127,95.0
2304,A2,146.5,0.125,127,95.0
2305,D2,146.5,0.125,127,95.0
2306,D3,146.5,0.125,127,95.0
2307,D2,146.5,0.5,127,95.0
2308,D3,146.5,0.5,127,95.0
2309,D4,146.5,0.5,127,95.0
2310,A3,147.0,1.0,127,95.0
2311,E2,147.0,0.25,127,95.0
2312,D2,147.0,0.5,127,95.0
2313,D3,147.0,0.5,127,95.0
2314,C2,147.5,0.25,127,95.0
2315,A2,147.5,0.125,127,95.0
2316,D2,147.5,0.125,127,95.0
2317,D3,147.5,0.125,127,95.0
2318,A2,147.5,0.125,127,95.0
2319,D2,147.5,0.125,127,95.0
2320,D3,147.5,0.125,127,95.0
2321,D2,147.5,0.5,127,95.0
2322,D3,147.5,0.5,127,95.0
2323,D4,147.5,0.5,127,95.0
2324,A3,148.0,1.0,127,95.0
2325,C2,148.0,0.25,127,95.0
2326,A2,148.0,0.125,127,95.0
2327,D2,148.0,0.125,127,95.0
2328,D3,148.0,0.125,127,95.0
2329,A2,148.0,0.125,127,95.0
2330,D2,148.0,0.125,127,95.0
2331,D3,148.0,0.125,127,95.0
2332,D2,148.0,0.5,127,95.0
2333,D3,148.0,0.5,127,95.0
2334,A4,148.0,0.5,127,95.0
2335,D2,148.5,0.5,127,95.0
2336,D3,148.5,0.5,127,95.0
2337,C2,148.75,0.25,127,95.0
2338,A3,149.0,1.0,127,95.0
2339,E2,149.0,0.25,127,95.0
2340,A2,149.0,0.125,127,95.0
2341,D2,149.0,0.125,127,95.0
2342,D3,149.0,0.125,127,95.0
2343,A2,149.0,0.125,127,95.0
2344,D2,149.0,0.125,127,95.0
2345,D3,149.0,0.125,127,95.0
2346,D2,149.0,0.5,127,95.0
2347,D3,149.0,0.5,127,95.0
2348,A4,149.0,0.5,127,95.0
2349,A2,149.5,0.125,127,95.0
2350,D2,149.5,0.125,127,95.0
2351,D3,149.5,0.125,127,95.0
2352,A2,149.5,0.125,127,95.0
2353,D2,149.5,0.125,127,95.0
2354,D3,149.5,0.125,127,95.0
2355,D2,149.5,0.5,127,95.0
2356,D3,149.5,0.5,127,95.0
2357,D4,149.5,0.5,127,95.0
2358,A3,150.0,1.0,127,95.0
2359,C2,150.0,0.25,127,95.0
2360,D2,150.0,0.5,127,95.0
2361,D3,150.0,0.5,127,95.0
2362,D3,150.5,0.25,127,95.0
2363,D3,150.5,0.25,127,95.0
2364,C2,150.5,0.25,127,95.0
2365,A2,150.5,0.125,127,95.0
2366,D2,150.5,0.125,127,95.0
2367,D3,150.5,0.125,127,95.0
2368,A2,150.5,0.125,127,95.0
2369,D2,150.5,0.125,127,95.0
2370,D3,150.5,0.125,127,95.0
2371,D2,150.5,0.5,127,95.0
2372,D3,150.5,0.5,127,95.0
2373,D4,150.5,0.5,127,95.0
2374,D3,150.75,0.25,127,95.0
2375,D3,150.75,0.25,127,95.0
2376,A3,151.0,0.25,127,95.0
2377,A3,151.0,0.25,127,95.0
2378,A3,151.0,1.0,127,95.0
2379,E2,151.0,0.25,127,95.0
2380,A2,151.0,0.125,127,95.0
2381,D2,151.0,0.125,127,95.0
2382,D3,151.0,0.125,127,95.0
2383,A2,151.0,0.125,127,95.0
2384,D2,151.0,0.125,127,95.0
2385,D3,151.0,0.125,127,95.0
2386,D2,151.0,0.5,127,95.0
2387,D3,151.0,0.5,127,95.0
2388,A4,151.0,0.5,127,95.0
2389,A3,151.25,0.25,127,95.0
2390,A3,151.25,0.25,127,95.0
2391,D3,151.5,0.25,127,95.0
2392,D3,151.5,0.25,127,95.0
2393,A2,151.5,0.125,127,95.0
2394,D2,151.5,0.125,127,95.0
2395,D3,151.5,0.125,127,95.0
2396,A2,151.5,0.125,127,95.0
2397,D2,151.5,0.125,127,95.0
2398,D3,151.5,0.125,127,95.0
2399,D2,151.5,0.5,127,95.0
2400,D3,151.5,0.5,127,95.0
2401,D4,151.5,0.5,127,95.0
2402,D3,151.75,0.25,127,95.0
2403,D3,151.75,0.25,127,95.0
2404,E2,151.75,0.25,127,95.0
2405,A3,152.0,1.0,127,95.0
2406,C2,152.0,0.25,127,95.0
2407,E-2,152.0,0.5,127,95.0
2408,E-3,152.0,0.5,127,95.0
2409,E-4,152.0,0.5,127,95.0
2410,B-2,152.5,0.125,127,95.0
2411,D2,152.5,0.125,127,95.0
2412,D3,152.5,0.125,127,95.0
2413,B-2,152.5,0.125,127,95.0
2414,D2,152.5,0.125,127,95.0
2415,D3,152.5,0.125,127,95.0
2416,E-2,152.5,0.5,127,95.0
2417,E-3,152.5,0.5,127,95.0
2418,E-4,152.5,0.5,127,95.0
2419,C2,152.75,0.25,127,95.0
2420,A3,153.0,1.0,127,95.0
2421,E2,153.0,0.25,127,95.0
2422,B-2,153.0,0.125,127,95.0
2423,D2,153.0,0.125,127,95.0
2424,D3,153.0,0.125,127,95.0
2425,B-2,153.0,0.125,127,95.0
2426,D2,153.0,0.125,127,95.0
2427,D3,153.0,0.125,127,95.0
2428,E-2,153.0,0.5,127,95.0
2429,E-3,153.0,0.5,127,95.0
2430,F4,153.0,0.5,127,95.0
2431,E-2,153.5,0.5,127,95.0
2432,E-3,153.5,0.5,127,95.0
2433,A3,154.0,1.0,127,95.0
2434,C2,154.0,0.25,127,95.0
2435,B-2,154.0,0.125,127,95.0
2436,D2,154.0,0.125,127,95.0
2437,D3,154.0,0.125,127,95.0
2438,B-2,154.0,0.125,127,95.0
2439,D2,154.0,0.125,127,95.0
2440,D3,154.0,0.125,127,95.0
2441,E-2,154.0,0.5,127,95.0
2442,E-3,154.0,0.5,127,95.0
2443,F4,154.0,0.5,127,95.0
2444,C2,154.5,0.25,127,95.0
2445,B-2,154.5,0.125,127,95.0
2446,D2,154.5,0.125,127,95.0
2447,D3,154.5,0.125,127,95.0
2448,B-2,154.5,0.125,127,95.0
2449,D2,154.5,0.125,127,95.0
2450,D3,154.5,0.125,127,95.0
2451,E-2,154.5,0.5,127,95.0
2452,E-3,154.5,0.5,127,95.0
2453,E-4,154.5,0.5,127,95.0
2454,A3,155.0,1.0,127,95.0
2455,E2,155.0,0.25,127,95.0
2456,E-2,155.0,0.5,127,95.0
2457,E-3,155.0,0.5,127,95.0
2458,C2,155.5,0.25,127,95.0
2459,B-2,155.5,0.125,127,95.0
2460,D2,155.5,0.125,127,95.0
2461,D3,155.5,0.125,127,95.0
2462,B-2,155.5,0.125,127,95.0
2463,D2,155.5,0.125,127,95.0
2464,D3,155.5,0.125,127,95.0
2465,E-2,155.5,0.5,127,95.0
2466,E-3,155.5,0.5,127,95.0
2467,E-4,155.5,0.5,127,95.0
2468,A3,156.0,1.0,127,95.0
2469,C2,156.0,0.25,127,95.0
2470,B-2,156.0,0.125,127,95.0
2471,D2,156.0,0.125,127,95.0
2472,D3,156.0,0.125,127,95.0
2473,B-2,156.0,0.125,127,95.0
2474,D2,156.0,0.125,127,95.0
2475,D3,156.0,0.125,127,95.0
2476,F4,156.0,0.5,127,95.0
2477,E-2,156.0,0.5,127,95.0
2478,E-3,156.0,0.5,127,95.0
2479,E-2,156.5,0.5,127,95.0
2480,E-3,156.5,0.5,127,95.0
2481,C2,156.75,0.25,127,95.0
2482,A3,157.0,1.0,127,95.0
2483,E2,157.0,0.25,127,95.0
2484,B-2,157.0,0.125,127,95.0
2485,D2,157.0,0.125,127,95.0
2486,D3,157.0,0.125,127,95.0
2487,B-2,157.0,0.125,127,95.0
2488,D2,157.0,0.125,127,95.0
2489,D3,157.0,0.125,127,95.0
2490,F4,157.0,0.5,127,95.0
2491,E-2,157.0,0.5,127,95.0
2492,E-3,157.0,0.5,127,95.0
2493,E2,157.5,0.5,127,95.0
2494,B-2,157.5,0.125,127,95.0
2495,D2,157.5,0.125,127,95.0
2496,D3,157.5,0.125,127,95.0
2497,B-2,157.5,0.125,127,95.0
2498,D2,157.5,0.125,127,95.0
2499,D3,157.5,0.125,127,95.0
2500,E-4,157.5,0.5,127,95.0
2501,E-2,157.5,0.5,127,95.0
2502,E-3,157.5,0.5,127,95.0
2503,A3,158.0,1.0,127,95.0
2504,C3,158.0,0.25,127,95.0
2505,E2,158.0,0.25,127,95.0
2506,E-2,158.0,0.5,127,95.0
2507,E-3,158.0,0.5,127,95.0
2508,C3,158.25,0.25,127,95.0
2509,E2,158.25,0.25,127,95.0
2510,D3,158.5,0.25,127,95.0
2511,D3,158.5,0.25,127,95.0
2512,B-2,158.5,0.125,127,95.0
2513,D2,158.5,0.125,127,95.0
2514,D3,158.5,0.125,127,95.0
2515,B-2,158.5,0.125,127,95.0
2516,D2,158.5,0.125,127,95.0
2517,D3,158.5,0.125,127,95.0
2518,B2,158.5,0.25,127,95.0
2519,E2,158.5,0.25,127,95.0
2520,E-4,158.5,0.5,127,95.0
2521,E-2,158.5,0.5,127,95.0
2522,E-3,158.5,0.5,127,95.0
2523,D3,158.75,0.25,127,95.0
2524,D3,158.75,0.25,127,95.0
2525,B2,158.75,0.25,127,95.0
2526,E2,158.75,0.25,127,95.0
2527,B-3,159.0,0.25,127,95.0
2528,B-3,159.0,0.25,127,95.0
2529,A3,159.0,1.0,127,95.0
2530,B-2,159.0,0.125,127,95.0
2531,D2,159.0,0.125,127,95.0
2532,D3,159.0,0.125,127,95.0
2533,B-2,159.0,0.125,127,95.0
2534,D2,159.0,0.125,127,95.0
2535,D3,159.0,0.125,127,95.0
2536,A2,159.0,0.25,127,95.0
2537,E2,159.0,0.25,127,95.0
2538,F4,159.0,0.5,127,95.0
2539,E-2,159.0,0.5,127,95.0
2540,E-3,159.0,0.5,127,95.0
2541,B-3,159.25,0.25,127,95.0
2542,B-3,159.25,0.25,127,95.0
2543,A2,159.25,0.25,127,95.0
2544,E2,159.25,0.25,127,95.0
2545,D3,159.5,0.25,127,95.0
2546,D3,159.5,0.25,127,95.0
2547,B-2,159.5,0.125,127,95.0
2548,D2,159.5,0.125,127,95.0
2549,D3,159.5,0.125,127,95.0
2550,B-2,159.5,0.125,127,95.0
2551,D2,159.5,0.125,127,95.0
2552,D3,159.5,0.125,127,95.0
2553,G2,159.5,0.25,127,95.0
2554,E2,159.5,0.25,127,95.0
2555,E-4,159.5,0.5,127,95.0
2556,E-2,159.5,0.5,127,95.0
2557,E-3,159.5,0.5,127,95.0
2558,D3,159.75,0.25,127,95.0
2559,D3,159.75,0.25,127,95.0
2560,G2,159.75,0.25,127,95.0
2561,E2,159.75,0.25,127,95.0
2562,F#2,160.0,0.25,127,95.0
2563,C2,160.0,0.25,127,95.0
2564,F#2,160.25,0.25,127,95.0
2565,F#2,160.5,0.25,127,95.0
2566,A2,160.5,0.125,127,95.0
2567,D2,160.5,0.125,127,95.0
2568,D3,160.5,0.125,127,95.0
2569,A2,160.5,0.125,127,95.0
2570,D2,160.5,0.125,127,95.0
2571,D3,160.5,0.125,127,95.0
2572,D2,160.5,0.125,127,95.0
2573,D3,160.5,0.125,127,95.0
2574,F#2,160.75,0.25,127,95.0
2575,C2,160.875,0.125,127,95.0
2576,A2,161.0,0.125,127,95.0
2577,D2,161.0,0.125,127,95.0
2578,D3,161.0,0.125,127,95.0
2579,A2,161.0,0.125,127,95.0
2580,D2,161.0,0.125,127,95.0
2581,D3,161.0,0.125,127,95.0
2582,F#2,161.0,0.25,127,95.0
2583,D2,161.0,0.25,127,95.0
2584,E2,161.0,0.25,127,95.0
2585,D2,161.0,0.125,127,95.0
2586,D3,161.0,0.125,127,95.0
2587,F#2,161.25,0.25,127,95.0
2588,F#2,161.5,0.25,127,95.0
2589,D5,161.5,0.25,100,95.0
2590,F#2,161.75,0.25,127,95.0
2591,F5,161.75,0.25,100,95.0
2592,A5,162.0,1.5,100,95.0
2593,A2,162.0,0.125,127,95.0
2594,D2,162.0,0.125,127,95.0
2595,D3,162.0,0.125,127,95.0
2596,A2,162.0,0.125,127,95.0
2597,D2,162.0,0.125,127,95.0
2598,D3,162.0,0.125,127,95.0
2599,F#2,162.0,0.25,127,95.0
2600,C2,162.0,0.25,127,95.0
2601,D2,162.0,0.125,127,95.0
2602,D3,162.0,0.125,127,95.0
2603,F#2,162.25,0.25,127,95.0
2604,A2,162.5,0.125,127,95.0
2605,D2,162.5,0.125,127,95.0
2606,D3,162.5,0.125,127,95.0
2607,A2,162.5,0.125,127,95.0
2608,D2,162.5,0.125,127,95.0
2609,D3,162.5,0.125,127,95.0
2610,F#2,162.5,0.25,127,95.0
2611,C2,162.5,0.25,127,95.0
2612,D2,162.5,0.125,127,95.0
2613,D3,162.5,0.125,127,95.0
2614,F#2,162.75,0.25,127,95.0
2615,F#2,163.0,0.25,127,95.0
2616,D2,163.0,0.25,127,95.0
2617,E2,163.0,0.25,127,95.0
2618,F#2,163.25,0.25,127,95.0
2619,F#2,163.5,0.25,127,95.0
2620,D5,163.5,0.25,100,95.0
2621,A2,163.5,0.125,127,95.0
2622,D2,163.5,0.125,127,95.0
2623,D3,163.5,0.125,127,95.0
2624,A2,163.5,0.125,127,95.0
2625,D2,163.5,0.125,127,95.0
2626,D3,163.5,0.125,127,95.0
2627,D2,163.5,0.125,127,95.0
2628,D3,163.5,0.125,127,95.0
2629,F#2,163.75,0.25,127,95.0
2630,F5,163.75,0.25,100,95.0
2631,A5,164.0,0.125,100,95.0
2632,A2,164.0,0.125,127,95.0
2633,D2,164.0,0.125,127,95.0
2634,D3,164.0,0.125,127,95.0
2635,A2,164.0,0.125,127,95.0
2636,D2,164.0,0.125,127,95.0
2637,D3,164.0,0.125,127,95.0
2638,C2,164.0,0.25,127,95.0
2639,F#2,164.0,0.25,127,95.0
2640,D2,164.0,0.125,127,95.0
2641,D3,164.0,0.125,127,95.0
2642,F#2,164.25,0.25,127,95.0
2643,F#2,164.5,0.25,127,95.0
2644,B-5,164.5,0.5,100,95.0
2645,C2,164.75,0.25,127,95.0
2646,F#2,164.75,0.25,127,95.0
2647,A5,165.0,0.5,100,95.0
2648,A2,165.0,0.125,127,95.0
2649,D2,165.0,0.125,127,95.0
2650,D3,165.0,0.125,127,95.0
2651,A2,165.0,0.125,127,95.0
2652,D2,165.0,0.125,127,95.0
2653,D3,165.0,0.125,127,95.0
2654,D2,165.0,0.25,127,95.0
2655,E2,165.0,0.25,127,95.0
2656,F#2,165.0,0.25,127,95.0
2657,D2,165.0,0.125,127,95.0
2658,D3,165.0,0.125,127,95.0
2659,F#2,165.25,0.25,127,95.0
2660,F#2,165.5,0.25,127,95.0
2661,F5,165.5,0.5,100,95.0
2662,A2,165.5,0.125,127,95.0
2663,D2,165.5,0.125,127,95.0
2664,D3,165.5,0.125,127,95.0
2665,A2,165.5,0.125,127,95.0
2666,D2,165.5,0.125,127,95.0
2667,D3,165.5,0.125,127,95.0
2668,D2,165.5,0.125,127,95.0
2669,D3,165.5,0.125,127,95.0
2670,F#2,165.75,0.25,127,95.0
2671,D5,166.0,0.5,100,95.0
2672,C2,166.0,0.25,127,95.0
2673,F#2,166.0,0.25,127,95.0
2674,F#2,166.25,0.25,127,95.0
2675,D3,166.5,0.25,127,95.0
2676,D3,166.5,0.25,127,95.0
2677,F5,166.5,0.5,100,95.0
2678,A2,166.5,0.125,127,95.0
2679,D2,166.5,0.125,127,95.0
2680,D3,166.5,0.125,127,95.0
2681,A2,166.5,0.125,127,95.0
2682,D2,166.5,0.125,127,95.0
2683,D3,166.5,0.125,127,95.0
2684,C2,166.5,0.25,127,95.0
2685,F#2,166.5,0.25,127,95.0
2686,D2,166.5,0.125,127,95.0
2687,D3,166.5,0.125,127,95.0
2688,D3,166.75,0.25,127,95.0
2689,D3,166.75,0.25,127,95.0
2690,F#2,166.75,0.25,127,95.0
2691,A3,167.0,0.25,127,95.0
2692,A3,167.0,0.25,127,95.0
2693,A5,167.0,0.5,100,95.0
2694,A2,167.0,0.125,127,95.0
2695,D2,167.0,0.125,127,95.0
2696,D3,167.0,0.125,127,95.0
2697,A2,167.0,0.125,127,95.0
2698,D2,167.0,0.125,127,95.0
2699,D3,167.0,0.125,127,95.0
2700,D2,167.0,0.25,127,95.0
2701,E2,167.0,0.25,127,95.0
2702,F#2,167.0,0.25,127,95.0
2703,D2,167.0,0.125,127,95.0
2704,D3,167.0,0.125,127,95.0
2705,A3,167.25,0.25,127,95.0
2706,A3,167.25,0.25,127,95.0
2707,C2,167.25,0.25,127,95.0
2708,F#2,167.25,0.25,127,95.0
2709,D3,167.5,0.25,127,95.0
2710,D3,167.5,0.25,127,95.0
2711,F#2,167.5,0.25,127,95.0
2712,F5,167.5,0.5,100,95.0
2713,A2,167.5,0.125,127,95.0
2714,D2,167.5,0.125,127,95.0
2715,D3,167.5,0.125,127,95.0
2716,A2,167.5,0.125,127,95.0
2717,D2,167.5,0.125,127,95.0
2718,D3,167.5,0.125,127,95.0
2719,D2,167.5,0.125,127,95.0
2720,D3,167.5,0.125,127,95.0
2721,D3,167.75,0.25,127,95.0
2722,D3,167.75,0.25,127,95.0
2723,F#2,167.75,0.25,127,95.0
2724,F#2,168.0,0.25,127,95.0
2725,C2,168.0,0.25,127,95.0
2726,F#2,168.25,0.25,127,95.0
2727,F#2,168.5,0.25,127,95.0
2728,E-5,168.5,0.5,100,95.0
2729,B-2,168.5,0.125,127,95.0
2730,D2,168.5,0.125,127,95.0
2731,D3,168.5,0.125,127,95.0
2732,B-2,168.5,0.125,127,95.0
2733,D2,168.5,0.125,127,95.0
2734,D3,168.5,0.125,127,95.0
2735,D2,168.5,0.125,127,95.0
2736,D3,168.5,0.125,127,95.0
2737,F#2,168.75,0.25,127,95.0
2738,C2,168.875,0.125,127,95.0
2739,B-5,169.0,0.5,100,95.0
2740,B-2,169.0,0.125,127,95.0
2741,D2,169.0,0.125,127,95.0
2742,D3,169.0,0.125,127,95.0
2743,B-2,169.0,0.125,127,95.0
2744,D2,169.0,0.125,127,95.0
2745,D3,169.0,0.125,127,95.0
2746,F#2,169.0,0.25,127,95.0
2747,D2,169.0,0.25,127,95.0
2748,E2,169.0,0.25,127,95.0
2749,D2,169.0,0.125,127,95.0
2750,D3,169.0,0.125,127,95.0
2751,F#2,169.25,0.25,127,95.0
2752,F#2,169.5,0.25,127,95.0
2753,E-5,169.5,0.5,100,95.0
2754,F#2,169.75,0.25,127,95.0
2755,B-5,170.0,0.125,100,95.0
2756,B-2,170.0,0.125,127,95.0
2757,D2,170.0,0.125,127,95.0
2758,D3,170.0,0.125,127,95.0
2759,B-2,170.0,0.125,127,95.0
2760,D2,170.0,0.125,127,95.0
2761,D3,170.0,0.125,127,95.0
2762,F#2,170.0,0.25,127,95.0
2763,C2,170.0,0.25,127,95.0
2764,D2,170.0,0.125,127,95.0
2765,D3,170.0,0.125,127,95.0
2766,F#2,170.25,0.25,127,95.0
2767,C6,170.5,0.125,100,95.0
2768,B-2,170.5,0.125,127,95.0
2769,D2,170.5,0.125,127,95.0
2770,D3,170.5,0.125,127,95.0
2771,B-2,170.5,0.125,127,95.0
2772,D2,170.5,0.125,127,95.0
2773,D3,170.5,0.125,127,95.0
2774,F#2,170.5,0.25,127,95.0
2775,C2,170.5,0.25,127,95.0
2776,D2,170.5,0.125,127,95.0
2777,D3,170.5,0.125,127,95.0
2778,F#2,170.75,0.25,127,95.0
2779,E-5,171.0,0.5,100,95.0
2780,F#2,171.0,0.25,127,95.0
2781,D2,171.0,0.25,127,95.0
2782,E2,171.0,0.25,127,95.0
2783,F#2,171.25,0.25,127,95.0
2784,F#2,171.5,0.25,127,95.0
2785,B-5,171.5,0.5,100,95.0
2786,B-2,171.5,0.125,127,95.0
2787,D2,171.5,0.125,127,95.0
2788,D3,171.5,0.125,127,95.0
2789,B-2,171.5,0.125,127,95.0
2790,D2,171.5,0.125,127,95.0
2791,D3,171.5,0.125,127,95.0
2792,D2,171.5,0.125,127,95.0
2793,D3,171.5,0.125,127,95.0
2794,F#2,171.75,0.25,127,95.0
2795,E-5,172.0,0.5,100,95.0
2796,B-2,172.0,0.125,127,95.0
2797,D2,172.0,0.125,127,95.0
2798,D3,172.0,0.125,127,95.0
2799,B-2,172.0,0.125,127,95.0
2800,D2,172.0,0.125,127,95.0
2801,D3,172.0,0.125,127,95.0
2802,C2,172.0,0.25,127,95.0
2803,F#2,172.0,0.25,127,95.0
2804,D2,172.0,0.125,127,95.0
2805,D3,172.0,0.125,127,95.0
2806,F#2,172.25,0.25,127,95.0
2807,F#2,172.5,0.25,127,95.0
2808,A5,172.5,0.5,100,95.0
2809,C2,172.75,0.25,127,95.0
2810,F#2,172.75,0.25,127,95.0
2811,E-5,173.0,0.5,100,95.0
2812,B-2,173.0,0.125,127,95.0
2813,D2,173.0,0.125,127,95.0
2814,D3,173.0,0.125,127,95.0
2815,B-2,173.0,0.125,127,95.0
2816,D2,173.0,0.125,127,95.0
2817,D3,173.0,0.125,127,95.0
2818,D2,173.0,0.25,127,95.0
2819,E2,173.0,0.25,127,95.0
2820,F#2,173.0,0.25,127,95.0
2821,D2,173.0,0.125,127,95.0
2822,D3,173.0,0.125,127,95.0
2823,F#2,173.25,0.25,127,95.0
2824,F#2,173.5,0.25,127,95.0
2825,D6,173.5,0.5,100,95.0
2826,B-2,173.5,0.125,127,95.0
2827,D2,173.5,0.125,127,95.0
2828,D3,173.5,0.125,127,95.0
2829,B-2,173.5,0.125,127,95.0
2830,D2,173.5,0.125,127,95.0
2831,D3,173.5,0.125,127,95.0
2832,D2,173.5,0.125,127,95.0
2833,D3,173.5,0.125,127,95.0
2834,F#2,173.75,0.25,127,95.0
2835,E-5,174.0,0.5,100,95.0
2836,C2,174.0,0.25,127,95.0
2837,F#2,174.0,0.25,127,95.0
2838,F#2,174.25,0.25,127,95.0
2839,D3,174.5,0.25,127,95.0
2840,D3,174.5,0.25,127,95.0
2841,C6,174.5,0.5,100,95.0
2842,B-2,174.5,0.125,127,95.0
2843,D2,174.5,0.125,127,95.0
2844,D3,174.5,0.125,127,95.0
2845,B-2,174.5,0.125,127,95.0
2846,D2,174.5,0.125,127,95.0
2847,D3,174.5,0.125,127,95.0
2848,C2,174.5,0.25,127,95.0
2849,F#2,174.5,0.25,127,95.0
2850,D2,174.5,0.125,127,95.0
2851,D3,174.5,0.125,127,95.0
2852,D3,174.75,0.25,127,95.0
2853,D3,174.75,0.25,127,95.0
2854,F#2,174.75,0.25,127,95.0
2855,B-3,175.0,0.25,127,95.0
2856,B-3,175.0,0.25,127,95.0
2857,E-5,175.0,0.5,100,95.0
2858,B-2,175.0,0.125,127,95.0
2859,D2,175.0,0.125,127,95.0
2860,D3,175.0,0.125,127,95.0
2861,B-2,175.0,0.125,127,95.0
2862,D2,175.0,0.125,127,95.0
2863,D3,175.0,0.125,127,95.0
2864,D2,175.0,0.25,127,95.0
2865,E2,175.0,0.25,127,95.0
2866,F#2,175.0,0.25,127,95.0
2867,D2,175.0,0.125,127,95.0
2868,D3,175.0,0.125,127,95.0
2869,B-3,175.25,0.25,127,95.0
2870,B-3,175.25,0.25,127,95.0
2871,C2,175.25,0.25,127,95.0
2872,F#2,175.25,0.25,127,95.0
2873,D3,175.5,0.25,127,95.0
2874,D3,175.5,0.25,127,95.0
2875,F#2,175.5,0.25,127,95.0
2876,B-5,175.5,0.5,100,95.0
2877,B-2,175.5,0.125,127,95.0
2878,D2,175.5,0.125,127,95.0
2879,D3,175.5,0.125,127,95.0
2880,B-2,175.5,0.125,127,95.0
2881,D2,175.5,0.125,127,95.0
2882,D3,175.5,0.125,127,95.0
2883,D2,175.5,0.125,127,95.0
2884,D3,175.5,0.125,127,95.0
2885,D3,175.75,0.25,127,95.0
2886,D3,175.75,0.25,127,95.0
2887,F#2,175.75,0.25,127,95.0
2888,D5,176.5,0.25,100,95.0
2889,A2,176.5,0.125,127,95.0
2890,D2,176.5,0.125,127,95.0
2891,D3,176.5,0.125,127,95.0
2892,A2,176.5,0.125,127,95.0
2893,D2,176.5,0.125,127,95.0
2894,D3,176.5,0.125,127,95.0
2895,F5,176.75,0.25,100,95.0
2896,A5,177.0,0.5,100,95.0
2897,A2,177.0,0.125,127,95.0
2898,D2,177.0,0.125,127,95.0
2899,D3,177.0,0.125,127,95.0
2900,A2,177.0,0.125,127,95.0
2901,D2,177.0,0.125,127,95.0
2902,D3,177.0,0.125,127,95.0
2903,D5,177.5,0.25,100,95.0
2904,F5,177.75,0.25,100,95.0
2905,A5,178.0,1.5,100,95.0
2906,A2,178.0,0.125,127,95.0
2907,D2,178.0,0.125,127,95.0
2908,D3,178.0,0.125,127,95.0
2909,A2,178.0,0.125,127,95.0
2910,D2,178.0,0.125,127,95.0
2911,D3,178.0,0.125,127,95.0
2912,A2,178.5,0.125,127,95.0
2913,D2,178.5,0.125,127,95.0
2914,D3,178.5,0.125,127,95.0
2915,A2,178.5,0.125,127,95.0
2916,D2,178.5,0.125,127,95.0
2917,D3,178.5,0.125,127,95.0
2918,D5,179.5,0.25,100,95.0
2919,A2,179.5,0.125,127,95.0
2920,D2,179.5,0.125,127,95.0
2921,D3,179.5,0.125,127,95.0
2922,A2,179.5,0.125,127,95.0
2923,D2,179.5,0.125,127,95.0
2924,D3,179.5,0.125,127,95.0
2925,F5,179.75,0.25,100,95.0
2926,A5,180.0,0.5,100,95.0
2927,A2,180.0,0.125,127,95.0
2928,D2,180.0,0.125,127,95.0
2929,D3,180.0,0.125,127,95.0
2930,A2,180.0,0.125,127,95.0
2931,D2,180.0,0.125,127,95.0
2932,D3,180.0,0.125,127,95.0
2933,B-5,180.5,0.5,100,95.0
2934,A5,181.0,0.5,100,95.0
2935,A2,181.0,0.125,127,95.0
2936,D2,181.0,0.125,127,95.0
2937,D3,181.0,0.125,127,95.0
2938,A2,181.0,0.125,127,95.0
2939,D2,181.0,0.125,127,95.0
2940,D3,181.0,0.125,127,95.0
2941,F5,181.5,0.5,100,95.0
2942,A2,181.5,0.125,127,95.0
2943,D2,181.5,0.125,127,95.0
2944,D3,181.5,0.125,127,95.0
2945,A2,181.5,0.125,127,95.0
2946,D2,181.5,0.125,127,95.0
2947,D3,181.5,0.125,127,95.0
2948,D5,182.0,0.5,100,95.0
2949,D3,182.5,0.25,127,95.0
2950,D3,182.5,0.25,127,95.0
2951,F5,182.5,0.5,100,95.0
2952,A2,182.5,0.125,127,95.0
2953,D2,182.5,0.125,127,95.0
2954,D3,182.5,0.125,127,95.0
2955,A2,182.5,0.125,127,95.0
2956,D2,182.5,0.125,127,95.0
2957,D3,182.5,0.125,127,95.0
2958,D3,182.75,0.25,127,95.0
2959,D3,182.75,0.25,127,95.0
2960,A3,183.0,0.25,127,95.0
2961,A3,183.0,0.25,127,95.0
2962,A5,183.0,0.5,100,95.0
2963,A2,183.0,0.125,127,95.0
2964,D2,183.0,0.125,127,95.0
2965,D3,183.0,0.125,127,95.0
2966,A2,183.0,0.125,127,95.0
2967,D2,183.0,0.125,127,95.0
2968,D3,183.0,0.125,127,95.0
2969,A3,183.25,0.25,127,95.0
2970,A3,183.25,0.25,127,95.0
2971,D3,183.5,0.25,127,95.0
2972,D3,183.5,0.25,127,95.0
2973,F5,183.5,0.5,100,95.0
2974,A2,183.5,0.125,127,95.0
2975,D2,183.5,0.125,127,95.0
2976,D3,183.5,0.125,127,95.0
2977,A2,183.5,0.125,127,95.0
2978,D2,183.5,0.125,127,95.0
2979,D3,183.5,0.125,127,95.0
2980,D3,183.75,0.25,127,95.0
2981,D3,183.75,0.25,127,95.0
2982,E-5,184.5,0.5,100,95.0
2983,B-2,184.5,0.125,127,95.0
2984,D2,184.5,0.125,127,95.0
2985,D3,184.5,0.125,127,95.0
2986,B-2,184.5,0.125,127,95.0
2987,D2,184.5,0.125,127,95.0
2988,D3,184.5,0.125,127,95.0
2989,B-5,185.0,0.5,100,95.0
2990,B-2,185.0,0.125,127,95.0
2991,D2,185.0,0.125,127,95.0
2992,D3,185.0,0.125,127,95.0
2993,B-2,185.0,0.125,127,95.0
2994,D2,185.0,0.125,127,95.0
2995,D3,185.0,0.125,127,95.0
2996,E-5,185.5,0.5,100,95.0
2997,D6,186.0,0.5,100,95.0
2998,B-2,186.0,0.125,127,95.0
2999,D2,186.0,0.125,127,95.0
3000,D3,186.0,0.125,127,95.0
3001,B-2,186.0,0.125,127,95.0
3002,D2,186.0,0.125,127,95.0
3003,D3,186.0,0.125,127,95.0
3004,C6,186.5,0.5,100,95.0
3005,B-2,186.5,0.125,127,95.0
3006,D2,186.5,0.125,127,95.0
3007,D3,186.5,0.125,127,95.0
3008,B-2,186.5,0.125,127,95.0
3009,D2,186.5,0.125,127,95.0
3010,D3,186.5,0.125,127,95.0
3011,E-5,187.0,0.5,100,95.0
3012,B-5,187.5,0.5,100,95.0
3013,B-2,187.5,0.125,127,95.0
3014,D2,187.5,0.125,127,95.0
3015,D3,187.5,0.125,127,95.0
3016,B-2,187.5,0.125,127,95.0
3017,D2,187.5,0.125,127,95.0
3018,D3,187.5,0.125,127,95.0
3019,E-5,188.0,0.5,100,95.0
3020,B-2,188.0,0.125,127,95.0
3021,D2,188.0,0.125,127,95.0
3022,D3,188.0,0.125,127,95.0
3023,B-2,188.0,0.125,127,95.0
3024,D2,188.0,0.125,127,95.0
3025,D3,188.0,0.125,127,95.0
3026,A5,188.5,0.5,100,95.0
3027,E-5,189.0,0.5,100,95.0
3028,B-2,189.0,0.125,127,95.0
3029,D2,189.0,0.125,127,95.0
3030,D3,189.0,0.125,127,95.0
3031,B-2,189.0,0.125,127,95.0
3032,D2,189.0,0.125,127,95.0
3033,D3,189.0,0.125,127,95.0
3034,B-5,189.5,0.5,100,95.0
3035,B-2,189.5,0.125,127,95.0
3036,D2,189.5,0.125,127,95.0
3037,D3,189.5,0.125,127,95.0
3038,B-2,189.5,0.125,127,95.0
3039,D2,189.5,0.125,127,95.0
3040,D3,189.5,0.125,127,95.0
3041,E-5,190.0,0.5,100,95.0
3042,D3,190.5,0.25,127,95.0
3043,D3,190.5,0.25,127,95.0
3044,D6,190.5,0.5,100,95.0
3045,B-2,190.5,0.125,127,95.0
3046,D2,190.5,0.125,127,95.0
3047,D3,190.5,0.125,127,95.0
3048,B-2,190.5,0.125,127,95.0
3049,D2,190.5,0.125,127,95.0
3050,D3,190.5,0.125,127,95.0
3051,D3,190.75,0.25,127,95.0
3052,D3,190.75,0.25,127,95.0
3053,B-3,191.0,0.25,127,95.0
3054,B-3,191.0,0.25,127,95.0
3055,E-5,191.0,0.5,100,95.0
3056,B-2,191.0,0.125,127,95.0
3057,D2,191.0,0.125,127,95.0
3058,D3,191.0,0.125,127,95.0
3059,B-2,191.0,0.125,127,95.0
3060,D2,191.0,0.125,127,95.0
3061,D3,191.0,0.125,127,95.0
3062,B-3,191.25,0.25,127,95.0
3063,B-3,191.25,0.25,127,95.0
3064,D3,191.5,0.25,127,95.0
3065,D3,191.5,0.25,127,95.0
3066,C6,191.5,0.5,100,95.0
3067,B-2,191.5,0.125,127,95.0
3068,D2,191.5,0.125,127,95.0
3069,D3,191.5,0.125,127,95.0
3070,B-2,191.5,0.125,127,95.0
3071,D2,191.5,0.125,127,95.0
3072,D3,191.5,0.125,127,95.0
3073,D3,191.75,0.25,127,95.0
3074,D3,191.75,0.25,127,95.0
3075,F#2,192.0,0.25,127,95.0
3076,C2,192.0,0.25,127,95.0
3077,F#2,192.25,0.25,127,95.0
3078,F#2,192.5,0.25,127,95.0
3079,E-6,192.5,0.5,100,95.0
3080,A2,192.5,0.125,127,95.0
3081,D2,192.5,0.125,127,95.0
3082,D3,192.5,0.125,127,95.0
3083,A2,192.5,0.125,127,95.0
3084,D2,192.5,0.125,127,95.0
3085,D3,192.5,0.125,127,95.0
3086,D2,192.5,0.125,127,95.0
3087,D3,192.5,0.125,127,95.0
3088,F#2,192.75,0.25,127,95.0
3089,C2,192.875,0.125,127,95.0
3090,D6,193.0,0.5,100,95.0
3091,A2,193.0,0.125,127,95.0
3092,D2,193.0,0.125,127,95.0
3093,D3,193.0,0.125,127,95.0
3094,A2,193.0,0.125,127,95.0
3095,D2,193.0,0.125,127,95.0
3096,D3,193.0,0.125,127,95.0
3097,F#2,193.0,0.25,127,95.0
3098,D2,193.0,0.25,127,95.0
3099,E2,193.0,0.25,127,95.0
3100,D2,193.0,0.125,127,95.0
3101,D3,193.0,0.125,127,95.0
3102,F#2,193.25,0.25,127,95.0
3103,F#2,193.5,0.25,127,95.0
3104,F#2,193.75,0.25,127,95.0
3105,D6,194.0,0.5,100,95.0
3106,A2,194.0,0.125,127,95.0
3107,D2,194.0,0.125,127,95.0
3108,D3,194.0,0.125,127,95.0
3109,A2,194.0,0.125,127,95.0
3110,D2,194.0,0.125,127,95.0
3111,D3,194.0,0.125,127,95.0
3112,F#2,194.0,0.25,127,95.0
3113,C2,194.0,0.25,127,95.0
3114,D2,194.0,0.125,127,95.0
3115,D3,194.0,0.125,127,95.0
3116,F#2,194.25,0.25,127,95.0
3117,E-6,194.5,0.5,100,95.0
3118,A2,194.5,0.125,127,95.0
3119,D2,194.5,0.125,127,95.0
3120,D3,194.5,0.125,127,95.0
3121,A2,194.5,0.125,127,95.0
3122,D2,194.5,0.125,127,95.0
3123,D3,194.5,0.125,127,95.0
3124,F#2,194.5,0.25,127,95.0
3125,C2,194.5,0.25,127,95.0
3126,D2,194.5,0.125,127,95.0
3127,D3,194.5,0.125,127,95.0
3128,F#2,194.75,0.25,127,95.0
3129,F#2,195.0,0.25,127,95.0
3130,D2,195.0,0.25,127,95.0
3131,E2,195.0,0.25,127,95.0
3132,F#2,195.25,0.25,127,95.0
3133,F#2,195.5,0.25,127,95.0
3134,E-6,195.5,0.5,100,95.0
3135,A2,195.5,0.125,127,95.0
3136,D2,195.5,0.125,127,95.0
3137,D3,195.5,0.125,127,95.0
3138,A2,195.5,0.125,127,95.0
3139,D2,195.5,0.125,127,95.0
3140,D3,195.5,0.125,127,95.0
3141,D2,195.5,0.125,127,95.0
3142,D3,195.5,0.125,127,95.0
3143,F#2,195.75,0.25,127,95.0
3144,D6,196.0,0.5,100,95.0
3145,A2,196.0,0.125,127,95.0
3146,D2,196.0,0.125,127,95.0
3147,D3,196.0,0.125,127,95.0
3148,A2,196.0,0.125,127,95.0
3149,D2,196.0,0.125,127,95.0
3150,D3,196.0,0.125,127,95.0
3151,C2,196.0,0.25,127,95.0
3152,F#2,196.0,0.25,127,95.0
3153,D2,196.0,0.125,127,95.0
3154,D3,196.0,0.125,127,95.0
3155,F#2,196.25,0.25,127,95.0
3156,F#2,196.5,0.25,127,95.0
3157,C2,196.75,0.25,127,95.0
3158,F#2,196.75,0.25,127,95.0
3159,D6,197.0,0.5,100,95.0
3160,A2,197.0,0.125,127,95.0
3161,D2,197.0,0.125,127,95.0
3162,D3,197.0,0.125,127,95.0
3163,A2,197.0,0.125,127,95.0
3164,D2,197.0,0.125,127,95.0
3165,D3,197.0,0.125,127,95.0
3166,D2,197.0,0.25,127,95.0
3167,E2,197.0,0.25,127,95.0
3168,F#2,197.0,0.25,127,95.0
3169,D2,197.0,0.125,127,95.0
3170,D3,197.0,0.125,127,95.0
3171,F#2,197.25,0.25,127,95.0
3172,F#2,197.5,0.25,127,95.0
3173,E-6,197.5,0.5,100,95.0
3174,A2,197.5,0.125,127,95.0
3175,D2,197.5,0.125,127,95.0
3176,D3,197.5,0.125,127,95.0
3177,A2,197.5,0.125,127,95.0
3178,D2,197.5,0.125,127,95.0
3179,D3,197.5,0.125,127,95.0
3180,D2,197.5,0.125,127,95.0
3181,D3,197.5,0.125,127,95.0
3182,F#2,197.75,0.25,127,95.0
3183,C2,198.0,0.25,127,95.0
3184,F#2,198.0,0.25,127,95.0
3185,F#2,198.25,0.25,127,95.0
3186,D3,198.5,0.25,127,95.0
3187,D3,198.5,0.25,127,95.0
3188,E-6,198.5,0.5,100,95.0
3189,A2,198.5,0.125,127,95.0
3190,D2,198.5,0.125,127,95.0
3191,D3,198.5,0.125,127,95.0
3192,A2,198.5,0.125,127,95.0
3193,D2,198.5,0.125,127,95.0
3194,D3,198.5,0.125,127,95.0
3195,C2,198.5,0.25,127,95.0
3196,F#2,198.5,0.25,127,95.0
3197,D2,198.5,0.125,127,95.0
3198,D3,198.5,0.125,127,95.0
3199,D3,198.75,0.25,127,95.0
3200,D3,198.75,0.25,127,95.0
3201,F#2,198.75,0.25,127,95.0
3202,A3,199.0,0.25,127,95.0
3203,A3,199.0,0.25,127,95.0
3204,D6,199.0,0.5,100,95.0
3205,A2,199.0,0.125,127,95.0
3206,D2,199.0,0.125,127,95.0
3207,D3,199.0,0.125,127,95.0
3208,A2,199.0,0.125,127,95.0
3209,D2,199.0,0.125,127,95.0
3210,D3,199.0,0.125,127,95.0
3211,D2,199.0,0.25,127,95.0
3212,E2,199.0,0.25,127,95.0
3213,F#2,199.0,0.25,127,95.0
3214,D2,199.0,0.125,127,95.0
3215,D3,199.0,0.125,127,95.0
3216,A3,199.25,0.25,127,95.0
3217,A3,199.25,0.25,127,95.0
3218,C2,199.25,0.25,127,95.0
3219,F#2,199.25,0.25,127,95.0
3220,D3,199.5,0.25,127,95.0
3221,D3,199.5,0.25,127,95.0
3222,F#2,199.5,0.25,127,95.0
3223,E-6,199.5,0.5,100,95.0
3224,A2,199.5,0.125,127,95.0
3225,D2,199.5,0.125,127,95.0
3226,D3,199.5,0.125,127,95.0
3227,A2,199.5,0.125,127,95.0
3228,D2,199.5,0.125,127,95.0
3229,D3,199.5,0.125,127,95.0
3230,D2,199.5,0.125,127,95.0
3231,D3,199.5,0.125,127,95.0
3232,D3,199.75,0.25,127,95.0
3233,D3,199.75,0.25,127,95.0
3234,F#2,199.75,0.25,127,95.0
3235,F#2,200.0,0.25,127,95.0
3236,C2,200.0,0.25,127,95.0
3237,F#2,200.25,0.25,127,95.0
3238,F#2,200.5,0.25,127,95.0
3239,B-5,200.5,0.5,100,95.0
3240,B-2,200.5,0.125,127,95.0
3241,D2,200.5,0.125,127,95.0
3242,D3,200.5,0.125,127,95.0
3243,B-2,200.5,0.125,127,95.0
3244,D2,200.5,0.125,127,95.0
3245,D3,200.5,0.125,127,95.0
3246,D2,200.5,0.125,127,95.0
3247,D3,200.5,0.125,127,95.0
3248,F#2,200.75,0.25,127,95.0
3249,C2,200.875,0.125,127,95.0
3250,A5,201.0,0.5,100,95.0
3251,B-2,201.0,0.125,127,95.0
3252,D2,201.0,0.125,127,95.0
3253,D3,201.0,0.125,127,95.0
3254,B-2,201.0,0.125,127,95.0
3255,D2,201.0,0.125,127,95.0
3256,D3,201.0,0.125,127,95.0
3257,F#2,201.0,0.25,127,95.0
3258,D2,201.0,0.25,127,95.0
3259,E2,201.0,0.25,127,95.0
3260,D2,201.0,0.125,127,95.0
3261,D3,201.0,0.125,127,95.0
3262,F#2,201.25,0.25,127,95.0
3263,F#2,201.5,0.25,127,95.0
3264,F#2,201.75,0.25,127,95.0
3265,A5,202.0,0.5,100,95.0
3266,B-2,202.0,0.125,127,95.0
3267,D2,202.0,0.125,127,95.0
3268,D3,202.0,0.125,127,95.0
3269,B-2,202.0,0.125,127,95.0
3270,D2,202.0,0.125,127,95.0
3271,D3,202.0,0.125,127,95.0
3272,F#2,202.0,0.25,127,95.0
3273,C2,202.0,0.25,127,95.0
3274,D2,202.0,0.125,127,95.0
3275,D3,202.0,0.125,127,95.0
3276,F#2,202.25,0.25,127,95.0
3277,B-5,202.5,0.5,100,95.0
3278,B-2,202.5,0.125,127,95.0
3279,D2,202.5,0.125,127,95.0
3280,D3,202.5,0.125,127,95.0
3281,B-2,202.5,0.125,127,95.0
3282,D2,202.5,0.125,127,95.0
3283,D3,202.5,0.125,127,95.0
3284,F#2,202.5,0.25,127,95.0
3285,C2,202.5,0.25,127,95.0
3286,D2,202.5,0.125,127,95.0
3287,D3,202.5,0.125,127,95.0
3288,F#2,202.75,0.25,127,95.0
3289,F#2,203.0,0.25,127,95.0
3290,D2,203.0,0.25,127,95.0
3291,E2,203.0,0.25,127,95.0
3292,F#2,203.25,0.25,127,95.0
3293,F#2,203.5,0.25,127,95.0
3294,B-5,203.5,0.5,100,95.0
3295,B-2,203.5,0.125,127,95.0
3296,D2,203.5,0.125,127,95.0
3297,D3,203.5,0.125,127,95.0
3298,B-2,203.5,0.125,127,95.0
3299,D2,203.5,0.125,127,95.0
3300,D3,203.5,0.125,127,95.0
3301,D2,203.5,0.125,127,95.0
3302,D3,203.5,0.125,127,95.0
3303,F#2,203.75,0.25,127,95.0
3304,A5,204.0,0.5,100,95.0
3305,B-2,204.0,0.125,127,95.0
3306,D2,204.0,0.125,127,95.0
3307,D3,204.0,0.125,127,95.0
3308,B-2,204.0,0.125,127,95.0
3309,D2,204.0,0.125,127,95.0
3310,D3,204.0,0.125,127,95.0
3311,C2,204.0,0.25,127,95.0
3312,F#2,204.0,0.25,127,95.0
3313,D2,204.0,0.125,127,95.0
3314,D3,204.0,0.125,127,95.0
3315,F#2,204.25,0.25,127,95.0
3316,F#2,204.5,0.25,127,95.0
3317,C2,204.75,0.25,127,95.0
3318,F#2,204.75,0.25,127,95.0
3319,A5,205.0,0.5,100,95.0
3320,B-2,205.0,0.125,127,95.0
3321,D2,205.0,0.125,127,95.0
3322,D3,205.0,0.125,127,95.0
3323,B-2,205.0,0.125,127,95.0
3324,D2,205.0,0.125,127,95.0
3325,D3,205.0,0.125,127,95.0
3326,D2,205.0,0.25,127,95.0
3327,E2,205.0,0.25,127,95.0
3328,F#2,205.0,0.25,127,95.0
3329,D2,205.0,0.125,127,95.0
3330,D3,205.0,0.125,127,95.0
3331,F#2,205.25,0.25,127,95.0
3332,F#2,205.5,0.25,127,95.0
3333,B-5,205.5,0.5,100,95.0
3334,B-2,205.5,0.125,127,95.0
3335,D2,205.5,0.125,127,95.0
3336,D3,205.5,0.125,127,95.0
3337,B-2,205.5,0.125,127,95.0
3338,D2,205.5,0.125,127,95.0
3339,D3,205.5,0.125,127,95.0
3340,D2,205.5,0.125,127,95.0
3341,D3,205.5,0.125,127,95.0
3342,F#2,205.75,0.25,127,95.0
3343,C2,206.0,0.25,127,95.0
3344,F#2,206.0,0.25,127,95.0
3345,F#2,206.25,0.25,127,95.0
3346,D3,206.5,0.25,127,95.0
3347,D3,206.5,0.25,127,95.0
3348,B-5,206.5,0.5,100,95.0
3349,B-2,206.5,0.125,127,95.0
3350,D2,206.5,0.125,127,95.0
3351,D3,206.5,0.125,127,95.0
3352,B-2,206.5,0.125,127,95.0
3353,D2,206.5,0.125,127,95.0
3354,D3,206.5,0.125,127,95.0
3355,C2,206.5,0.25,127,95.0
3356,F#2,206.5,0.25,127,95.0
3357,D2,206.5,0.125,127,95.0
3358,D3,206.5,0.125,127,95.0
3359,D3,206.75,0.25,127,95.0
3360,D3,206.75,0.25,127,95.0
3361,F#2,206.75,0.25,127,95.0
3362,B-3,207.0,0.25,127,95.0
3363,B-3,207.0,0.25,127,95.0
3364,A5,207.0,0.5,100,95.0
3365,B-2,207.0,0.125,127,95.0
3366,D2,207.0,0.125,127,95.0
3367,D3,207.0,0.125,127,95.0
3368,B-2,207.0,0.125,127,95.0
3369,D2,207.0,0.125,127,95.0
3370,D3,207.0,0.125,127,95.0
3371,D2,207.0,0.25,127,95.0
3372,E2,207.0,0.25,127,95.0
3373,F#2,207.0,0.25,127,95.0
3374,D2,207.0,0.125,127,95.0
3375,D3,207.0,0.125,127,95.0
3376,B-3,207.25,0.25,127,95.0
3377,B-3,207.25,0.25,127,95.0
3378,C2,207.25,0.25,127,95.0
3379,F#2,207.25,0.25,127,95.0
3380,D3,207.5,0.25,127,95.0
3381,D3,207.5,0.25,127,95.0
3382,F#2,207.5,0.25,127,95.0
3383,B-5,207.5,0.5,100,95.0
3384,B-2,207.5,0.125,127,95.0
3385,D2,207.5,0.125,127,95.0
3386,D3,207.5,0.125,127,95.0
3387,B-2,207.5,0.125,127,95.0
3388,D2,207.5,0.125,127,95.0
3389,D3,207.5,0.125,127,95.0
3390,D2,207.5,0.125,127,95.0
3391,D3,207.5,0.125,127,95.0
3392,D3,207.75,0.25,127,95.0
3393,D3,207.75,0.25,127,95.0
3394,F#2,207.75,0.25,127,95.0
3395,F#2,208.0,0.25,127,95.0
3396,C2,208.0,0.25,127,95.0
3397,F#2,208.25,0.25,127,95.0
3398,F#2,208.5,0.25,127,95.0
3399,E-6,208.5,0.5,100,95.0
3400,A2,208.5,0.125,127,95.0
3401,D2,208.5,0.125,127,95.0
3402,D3,208.5,0.125,127,95.0
3403,A2,208.5,0.125,127,95.0
3404,D2,208.5,0.125,127,95.0
3405,D3,208.5,0.125,127,95.0
3406,D2,208.5,0.125,127,95.0
3407,D3,208.5,0.125,127,95.0
3408,F#2,208.75,0.25,127,95.0
3409,C2,208.875,0.125,127,95.0
3410,D6,209.0,0.5,100,95.0
3411,A2,209.0,0.125,127,95.0
3412,D2,209.0,0.125,127,95.0
3413,D3,209.0,0.125,127,95.0
3414,A2,209.0,0.125,127,95.0
3415,D2,209.0,0.125,127,95.0
3416,D3,209.0,0.125,127,95.0
3417,F#2,209.0,0.25,127,95.0
3418,D2,209.0,0.25,127,95.0
3419,E2,209.0,0.25,127,95.0
3420,D2,209.0,0.125,127,95.0
3421,D3,209.0,0.125,127,95.0
3422,F#2,209.25,0.25,127,95.0
3423,F#2,209.5,0.25,127,95.0
3424,F#2,209.75,0.25,127,95.0
3425,D6,210.0,0.5,100,95.0
3426,A2,210.0,0.125,127,95.0
3427,D2,210.0,0.125,127,95.0
3428,D3,210.0,0.125,127,95.0
3429,A2,210.0,0.125,127,95.0
3430,D2,210.0,0.125,127,95.0
3431,D3,210.0,0.125,127,95.0
3432,F#2,210.0,0.25,127,95.0
3433,C2,210.0,0.25,127,95.0
3434,D2,210.0,0.125,127,95.0
3435,D3,210.0,0.125,127,95.0
3436,F#2,210.25,0.25,127,95.0
3437,E-6,210.5,0.5,100,95.0
3438,A2,210.5,0.125,127,95.0
3439,D2,210.5,0.125,127,95.0
3440,D3,210.5,0.125,127,95.0
3441,A2,210.5,0.125,127,95.0
3442,D2,210.5,0.125,127,95.0
3443,D3,210.5,0.125,127,95.0
3444,F#2,210.5,0.25,127,95.0
3445,C2,210.5,0.25,127,95.0
3446,D2,210.5,0.125,127,95.0
3447,D3,210.5,0.125,127,95.0
3448,F#2,210.75,0.25,127,95.0
3449,F#2,211.0,0.25,127,95.0
3450,D2,211.0,0.25,127,95.0
3451,E2,211.0,0.25,127,95.0
3452,F#2,211.25,0.25,127,95.0
3453,F#2,211.5,0.25,127,95.0
3454,E-6,211.5,0.5,100,95.0
3455,A2,211.5,0.125,127,95.0
3456,D2,211.5,0.125,127,95.0
3457,D3,211.5,0.125,127,95.0
3458,A2,211.5,0.125,127,95.0
3459,D2,211.5,0.125,127,95.0
3460,D3,211.5,0.125,127,95.0
3461,D2,211.5,0.125,127,95.0
3462,D3,211.5,0.125,127,95.0
3463,F#2,211.75,0.25,127,95.0
3464,D6,212.0,0.5,100,95.0
3465,A2,212.0,0.125,127,95.0
3466,D2,212.0,0.125,127,95.0
3467,D3,212.0,0.125,127,95.0
3468,A2,212.0,0.125,127,95.0
3469,D2,212.0,0.125,127,95.0
3470,D3,212.0,0.125,127,95.0
3471,C2,212.0,0.25,127,95.0
3472,F#2,212.0,0.25,127,95.0
3473,D2,212.0,0.125,127,95.0
3474,D3,212.0,0.125,127,95.0
3475,F#2,212.25,0.25,127,95.0
3476,F#2,212.5,0.25,127,95.0
3477,C2,212.75,0.25,127,95.0
3478,F#2,212.75,0.25,127,95.0
3479,D6,213.0,0.5,100,95.0
3480,A2,213.0,0.125,127,95.0
3481,D2,213.0,0.125,127,95.0
3482,D3,213.0,0.125,127,95.0
3483,A2,213.0,0.125,127,95.0
3484,D2,213.0,0.125,127,95.0
3485,D3,213.0,0.125,127,95.0
3486,D2,213.0,0.25,127,95.0
3487,E2,213.0,0.25,127,95.0
3488,F#2,213.0,0.25,127,95.0
3489,D2,213.0,0.125,127,95.0
3490,D3,213.0,0.125,127,95.0
3491,F#2,213.25,0.25,127,95.0
3492,F#2,213.5,0.25,127,95.0
3493,E-6,213.5,0.5,100,95.0
3494,A2,213.5,0.125,127,95.0
3495,D2,213.5,0.125,127,95.0
3496,D3,213.5,0.125,127,95.0
3497,A2,213.5,0.125,127,95.0
3498,D2,213.5,0.125,127,95.0
3499,D3,213.5,0.125,127,95.0
3500,D2,213.5,0.125,127,95.0
3501,D3,213.5,0.125,127,95.0
3502,F#2,213.75,0.25,127,95.0
3503,C2,214.0,0.25,127,95.0
3504,F#2,214.0,0.25,127,95.0
3505,F#2,214.25,0.25,127,95.0
3506,D3,214.5,0.25,127,95.0
3507,D3,214.5,0.25,127,95.0
3508,E-6,214.5,0.5,100,95.0
3509,A2,214.5,0.125,127,95.0
3510,D2,214.5,0.125,127,95.0
3511,D3,214.5,0.125,127,95.0
3512,A2,214.5,0.125,127,95.0
3513,D2,214.5,0.125,127,95.0
3514,D3,214.5,0.125,127,95.0
3515,C2,214.5,0.25,127,95.0
3516,F#2,214.5,0.25,127,95.0
3517,D2,214.5,0.125,127,95.0
3518,D3,214.5,0.125,127,95.0
3519,D3,214.75,0.25,127,95.0
3520,D3,214.75,0.25,127,95.0
3521,F#2,214.75,0.25,127,95.0
3522,A3,215.0,0.25,127,95.0
3523,A3,215.0,0.25,127,95.0
3524,D6,215.0,0.5,100,95.0
3525,A2,215.0,0.125,127,95.0
3526,D2,215.0,0.125,127,95.0
3527,D3,215.0,0.125,127,95.0
3528,A2,215.0,0.125,127,95.0
3529,D2,215.0,0.125,127,95.0
3530,D3,215.0,0.125,127,95.0
3531,D2,215.0,0.25,127,95.0
3532,E2,215.0,0.25,127,95.0
3533,F#2,215.0,0.25,127,95.0
3534,D2,215.0,0.125,127,95.0
3535,D3,215.0,0.125,127,95.0
3536,A3,215.25,0.25,127,95.0
3537,A3,215.25,0.25,127,95.0
3538,C2,215.25,0.25,127,95.0
3539,F#2,215.25,0.25,127,95.0
3540,D3,215.5,0.25,127,95.0
3541,D3,215.5,0.25,127,95.0
3542,F#2,215.5,0.25,127,95.0
3543,E-6,215.5,0.5,100,95.0
3544,A2,215.5,0.125,127,95.0
3545,D2,215.5,0.125,127,95.0
3546,D3,215.5,0.125,127,95.0
3547,A2,215.5,0.125,127,95.0
3548,D2,215.5,0.125,127,95.0
3549,D3,215.5,0.125,127,95.0
3550,D2,215.5,0.125,127,95.0
3551,D3,215.5,0.125,127,95.0
3552,D3,215.75,0.25,127,95.0
3553,D3,215.75,0.25,127,95.0
3554,F#2,215.75,0.25,127,95.0
3555,F#2,216.0,0.25,127,95.0
3556,C2,216.0,0.25,127,95.0
3557,F#2,216.25,0.25,127,95.0
3558,F#2,216.5,0.25,127,95.0
3559,B-5,216.5,0.5,100,95.0
3560,B-2,216.5,0.125,127,95.0
3561,D2,216.5,0.125,127,95.0
3562,D3,216.5,0.125,127,95.0
3563,B-2,216.5,0.125,127,95.0
3564,D2,216.5,0.125,127,95.0
3565,D3,216.5,0.125,127,95.0
3566,D2,216.5,0.125,127,95.0
3567,D3,216.5,0.125,127,95.0
3568,F#2,216.75,0.25,127,95.0
3569,C2,216.875,0.125,127,95.0
3570,A5,217.0,0.5,100,95.0
3571,B-2,217.0,0.125,127,95.0
3572,D2,217.0,0.125,127,95.0
3573,D3,217.0,0.125,127,95.0
3574,B-2,217.0,0.125,127,95.0
3575,D2,217.0,0.125,127,95.0
3576,D3,217.0,0.125,127,95.0
3577,F#2,217.0,0.25,127,95.0
3578,D2,217.0,0.25,127,95.0
3579,E2,217.0,0.25,127,95.0
3580,D2,217.0,0.125,127,95.0
3581,D3,217.0,0.125,127,95.0
3582,F#2,217.25,0.25,127,95.0
3583,F#2,217.5,0.25,127,95.0
3584,F#2,217.75,0.25,127,95.0
3585,A5,218.0,0.5,100,95.0
3586,B-2,218.0,0.125,127,95.0
3587,D2,218.0,0.125,127,95.0
3588,D3,218.0,0.125,127,95.0
3589,B-2,218.0,0.125,127,95.0
3590,D2,218.0,0.125,127,95.0
3591,D3,218.0,0.125,127,95.0
3592,F#2,218.0,0.25,127,95.0
3593,C2,218.0,0.25,127,95.0
3594,D2,218.0,0.125,127,95.0
3595,D3,218.0,0.125,127,95.0
3596,F#2,218.25,0.25,127,95.0
3597,B-5,218.5,0.5,100,95.0
3598,B-2,218.5,0.125,127,95.0
3599,D2,218.5,0.125,127,95.0
3600,D3,218.5,0.125,127,95.0
3601,B-2,218.5,0.125,127,95.0
3602,D2,218.5,0.125,127,95.0
3603,D3,218.5,0.125,127,95.0
3604,F#2,218.5,0.25,127,95.0
3605,C2,218.5,0.25,127,95.0
3606,D2,218.5,0.125,127,95.0
3607,D3,218.5,0.125,127,95.0
3608,F#2,218.75,0.25,127,95.0
3609,F#2,219.0,0.25,127,95.0
3610,D2,219.0,0.25,127,95.0
3611,E2,219.0,0.25,127,95.0
3612,F#2,219.25,0.25,127,95.0
3613,F#2,219.5,0.25,127,95.0
3614,B-5,219.5,0.5,100,95.0
3615,B-2,219.5,0.125,127,95.0
3616,D2,219.5,0.125,127,95.0
3617,D3,219.5,0.125,127,95.0
3618,B-2,219.5,0.125,127,95.0
3619,D2,219.5,0.125,127,95.0
3620,D3,219.5,0.125,127,95.0
3621,D2,219.5,0.125,127,95.0
3622,D3,219.5,0.125,127,95.0
3623,F#2,219.75,0.25,127,95.0
3624,A5,220.0,0.5,100,95.0
3625,B-2,220.0,0.125,127,95.0
3626,D2,220.0,0.125,127,95.0
3627,D3,220.0,0.125,127,95.0
3628,B-2,220.0,0.125,127,95.0
3629,D2,220.0,0.125,127,95.0
3630,D3,220.0,0.125,127,95.0
3631,C2,220.0,0.25,127,95.0
3632,F#2,220.0,0.25,127,95.0
3633,D2,220.0,0.125,127,95.0
3634,D3,220.0,0.125,127,95.0
3635,F#2,220.25,0.25,127,95.0
3636,F#2,220.5,0.25,127,95.0
3637,C2,220.75,0.25,127,95.0
3638,F#2,220.75,0.25,127,95.0
3639,A5,221.0,0.5,100,95.0
3640,B-2,221.0,0.125,127,95.0
3641,D2,221.0,0.125,127,95.0
3642,D3,221.0,0.125,127,95.0
3643,B-2,221.0,0.125,127,95.0
3644,D2,221.0,0.125,127,95.0
3645,D3,221.0,0.125,127,95.0
3646,D2,221.0,0.25,127,95.0
3647,E2,221.0,0.25,127,95.0
3648,F#2,221.0,0.25,127,95.0
3649,D2,221.0,0.125,127,95.0
3650,D3,221.0,0.125,127,95.0
3651,F#2,221.25,0.25,127,95.0
3652,F#2,221.5,0.25,127,95.0
3653,B-5,221.5,0.5,100,95.0
3654,B-2,221.5,0.125,127,95.0
3655,D2,221.5,0.125,127,95.0
3656,D3,221.5,0.125,127,95.0
3657,B-2,221.5,0.125,127,95.0
3658,D2,221.5,0.125,127,95.0
3659,D3,221.5,0.125,127,95.0
3660,D2,221.5,0.125,127,95.0
3661,D3,221.5,0.125,127,95.0
3662,F#2,221.75,0.25,127,95.0
3663,C2,222.0,0.25,127,95.0
3664,F#2,222.0,0.25,127,95.0
3665,F#2,222.25,0.25,127,95.0
3666,D3,222.5,0.25,127,95.0
3667,D3,222.5,0.25,127,95.0
3668,B-5,222.5,0.5,100,95.0
3669,B-2,222.5,0.125,127,95.0
3670,D2,222.5,0.125,127,95.0
3671,D3,222.5,0.125,127,95.0
3672,B-2,222.5,0.125,127,95.0
3673,D2,222.5,0.125,127,95.0
3674,D3,222.5,0.125,127,95.0
3675,C2,222.5,0.25,127,95.0
3676,F#2,222.5,0.25,127,95.0
3677,D2,222.5,0.125,127,95.0
3678,D3,222.5,0.125,127,95.0
3679,D3,222.75,0.25,127,95.0
3680,D3,222.75,0.25,127,95.0
3681,F#2,222.75,0.25,127,95.0
3682,B-3,223.0,0.25,127,95.0
3683,B-3,223.0,0.25,127,95.0
3684,A5,223.0,0.5,100,95.0
3685,B-2,223.0,0.125,127,95.0
3686,D2,223.0,0.125,127,95.0
3687,D3,223.0,0.125,127,95.0
3688,B-2,223.0,0.125,127,95.0
3689,D2,223.0,0.125,127,95.0
3690,D3,223.0,0.125,127,95.0
3691,D2,223.0,0.25,127,95.0
3692,E2,223.0,0.25,127,95.0
3693,F#2,223.0,0.25,127,95.0
3694,D2,223.0,0.125,127,95.0
3695,D3,223.0,0.125,127,95.0
3696,B-3,223.25,0.25,127,95.0
3697,B-3,223.25,0.25,127,95.0
3698,C2,223.25,0.25,127,95.0
3699,F#2,223.25,0.25,127,95.0
3700,D3,223.5,0.25,127,95.0
3701,D3,223.5,0.25,127,95.0
3702,F#2,223.5,0.25,127,95.0
3703,B-5,223.5,0.5,100,95.0
3704,B-2,223.5,0.125,127,95.0
3705,D2,223.5,0.125,127,95.0
3706,D3,223.5,0.125,127,95.0
3707,B-2,223.5,0.125,127,95.0
3708,D2,223.5,0.125,127,95.0
3709,D3,223.5,0.125,127,95.0
3710,D2,223.5,0.125,127,95.0
3711,D3,223.5,0.125,127,95.0
3712,D3,223.75,0.25,127,95.0
3713,D3,223.75,0.25,127,95.0
3714,F#2,223.75,0.25,127,95.0
3715,F#2,224.0,0.25,127,95.0
3716,C2,224.0,0.25,127,95.0
3717,F#2,224.25,0.25,127,95.0
3718,F#2,224.5,0.25,127,95.0
3719,E-6,224.5,0.5,100,95.0
3720,A2,224.5,0.125,127,95.0
3721,D2,224.5,0.125,127,95.0
3722,D3,224.5,0.125,127,95.0
3723,A2,224.5,0.125,127,95.0
3724,D2,224.5,0.125,127,95.0
3725,D3,224.5,0.125,127,95.0
3726,D2,224.5,0.125,127,95.0
3727,D3,224.5,0.125,127,95.0
3728,F#2,224.75,0.25,127,95.0
3729,C2,224.875,0.125,127,95.0
3730,D6,225.0,0.5,100,95.0
3731,A2,225.0,0.125,127,95.0
3732,D2,225.0,0.125,127,95.0
3733,D3,225.0,0.125,127,95.0
3734,A2,225.0,0.125,127,95.0
3735,D2,225.0,0.125,127,95.0
3736,D3,225.0,0.125,127,95.0
3737,F#2,225.0,0.25,127,95.0
3738,D2,225.0,0.25,127,95.0
3739,E2,225.0,0.25,127,95.0
3740,D2,225.0,0.125,127,95.0
3741,D3,225.0,0.125,127,95.0
3742,F#2,225.25,0.25,127,95.0
3743,F#2,225.5,0.25,127,95.0
3744,F#2,225.75,0.25,127,95.0
3745,D6,226.0,0.5,100,95.0
3746,A2,226.0,0.125,127,95.0
3747,D2,226.0,0.125,127,95.0
3748,D3,226.0,0.125,127,95.0
3749,A2,226.0,0.125,127,95.0
3750,D2,226.0,0.125,127,95.0
3751,D3,226.0,0.125,127,95.0
3752,F#2,226.0,0.25,127,95.0
3753,C2,226.0,0.25,127,95.0
3754,D2,226.0,0.125,127,95.0
3755,D3,226.0,0.125,127,95.0
3756,F#2,226.25,0.25,127,95.0
3757,E-6,226.5,0.5,100,95.0
3758,A2,226.5,0.125,127,95.0
3759,D2,226.5,0.125,127,95.0
3760,D3,226.5,0.125,127,95.0
3761,A2,226.5,0.125,127,95.0
3762,D2,226.5,0.125,127,95.0
3763,D3,226.5,0.125,127,95.0
3764,F#2,226.5,0.25,127,95.0
3765,C2,226.5,0.25,127,95.0
3766,D2,226.5,0.125,127,95.0
3767,D3,226.5,0.125,127,95.0
3768,F#2,226.75,0.25,127,95.0
3769,F#2,227.0,0.25,127,95.0
3770,D2,227.0,0.25,127,95.0
3771,E2,227.0,0.25,127,95.0
3772,F#2,227.25,0.25,127,95.0
3773,F#2,227.5,0.25,127,95.0
3774,E-6,227.5,0.5,100,95.0
3775,A2,227.5,0.125,127,95.0
3776,D2,227.5,0.125,127,95.0
3777,D3,227.5,0.125,127,95.0
3778,A2,227.5,0.125,127,95.0
3779,D2,227.5,0.125,127,95.0
3780,D3,227.5,0.125,127,95.0
3781,D2,227.5,0.125,127,95.0
3782,D3,227.5,0.125,127,95.0
3783,F#2,227.75,0.25,127,95.0
3784,D6,228.0,0.5,100,95.0
3785,A2,228.0,0.125,127,95.0
3786,D2,228.0,0.125,127,95.0
3787,D3,228.0,0.125,127,95.0
3788,A2,228.0,0.125,127,95.0
3789,D2,228.0,0.125,127,95.0
3790,D3,228.0,0.125,127,95.0
3791,C2,228.0,0.25,127,95.0
3792,F#2,228.0,0.25,127,95.0
3793,D2,228.0,0.125,127,95.0
3794,D3,228.0,0.125,127,95.0
3795,F#2,228.25,0.25,127,95.0
3796,F#2,228.5,0.25,127,95.0
3797,C2,228.75,0.25,127,95.0
3798,F#2,228.75,0.25,127,95.0
3799,D6,229.0,0.5,100,95.0
3800,A2,229.0,0.125,127,95.0
3801,D2,229.0,0.125,127,95.0
3802,D3,229.0,0.125,127,95.0
3803,A2,229.0,0.125,127,95.0
3804,D2,229.0,0.125,127,95.0
3805,D3,229.0,0.125,127,95.0
3806,D2,229.0,0.25,127,95.0
3807,E2,229.0,0.25,127,95.0
3808,F#2,229.0,0.25,127,95.0
3809,D2,229.0,0.125,127,95.0
3810,D3,229.0,0.125,127,95.0
3811,F#2,229.25,0.25,127,95.0
3812,F#2,229.5,0.25,127,95.0
3813,E-6,229.5,0.5,100,95.0
3814,A2,229.5,0.125,127,95.0
3815,D2,229.5,0.125,127,95.0
3816,D3,229.5,0.125,127,95.0
3817,A2,229.5,0.125,127,95.0
3818,D2,229.5,0.125,127,95.0
3819,D3,229.5,0.125,127,95.0
3820,D2,229.5,0.125,127,95.0
3821,D3,229.5,0.125,127,95.0
3822,F#2,229.75,0.25,127,95.0
3823,C2,230.0,0.25,127,95.0
3824,F#2,230.0,0.25,127,95.0
3825,F#2,230.25,0.25,127,95.0
3826,D3,230.5,0.25,127,95.0
3827,D3,230.5,0.25,127,95.0
3828,E-6,230.5,0.5,100,95.0
3829,A2,230.5,0.125,127,95.0
3830,D2,230.5,0.125,127,95.0
3831,D3,230.5,0.125,127,95.0
3832,A2,230.5,0.125,127,95.0
3833,D2,230.5,0.125,127,95.0
3834,D3,230.5,0.125,127,95.0
3835,C2,230.5,0.25,127,95.0
3836,F#2,230.5,0.25,127,95.0
3837,D2,230.5,0.125,127,95.0
3838,D3,230.5,0.125,127,95.0
3839,D3,230.75,0.25,127,95.0
3840,D3,230.75,0.25,127,95.0
3841,F#2,230.75,0.25,127,95.0
3842,A3,231.0,0.25,127,95.0
3843,A3,231.0,0.25,127,95.0
3844,D6,231.0,0.5,100,95.0
3845,A2,231.0,0.125,127,95.0
3846,D2,231.0,0.125,127,95.0
3847,D3,231.0,0.125,127,95.0
3848,A2,231.0,0.125,127,95.0
3849,D2,231.0,0.125,127,95.0
3850,D3,231.0,0.125,127,95.0
3851,D2,231.0,0.25,127,95.0
3852,E2,231.0,0.25,127,95.0
3853,F#2,231.0,0.25,127,95.0
3854,D2,231.0,0.125,127,95.0
3855,D3,231.0,0.125,127,95.0
3856,A3,231.25,0.25,127,95.0
3857,A3,231.25,0.25,127,95.0
3858,C2,231.25,0.25,127,95.0
3859,F#2,231.25,0.25,127,95.0
3860,D3,231.5,0.25,127,95.0
3861,D3,231.5,0.25,127,95.0
3862,F#2,231.5,0.25,127,95.0
3863,E-6,231.5,0.5,100,95.0
3864,A2,231.5,0.125,127,95.0
3865,D2,231.5,0.125,127,95.0
3866,D3,231.5,0.125,127,95.0
3867,A2,231.5,0.125,127,95.0
3868,D2,231.5,0.125,127,95.0
3869,D3,231.5,0.125,127,95.0
3870,D2,231.5,0.125,127,95.0
3871,D3,231.5,0.125,127,95.0
3872,D3,231.75,0.25,127,95.0
3873,D3,231.75,0.25,127,95.0
3874,F#2,231.75,0.25,127,95.0
3875,F#2,232.0,0.25,127,95.0
3876,C2,232.0,0.25,127,95.0
3877,F#2,232.25,0.25,127,95.0
3878,F#2,232.5,0.25,127,95.0
3879,B-5,232.5,0.5,100,95.0
3880,B-2,232.5,0.125,127,95.0
3881,D2,232.5,0.125,127,95.0
3882,D3,232.5,0.125,127,95.0
3883,B-2,232.5,0.125,127,95.0
3884,D2,232.5,0.125,127,95.0
3885,D3,232.5,0.125,127,95.0
3886,D2,232.5,0.125,127,95.0
3887,D3,232.5,0.125,127,95.0
3888,F#2,232.75,0.25,127,95.0
3889,C2,232.875,0.125,127,95.0
3890,A5,233.0,0.5,100,95.0
3891,B-2,233.0,0.125,127,95.0
3892,D2,233.0,0.125,127,95.0
3893,D3,233.0,0.125,127,95.0
3894,B-2,233.0,0.125,127,95.0
3895,D2,233.0,0.125,127,95.0
3896,D3,233.0,0.125,127,95.0
3897,F#2,233.0,0.25,127,95.0
3898,D2,233.0,0.25,127,95.0
3899,E2,233.0,0.25,127,95.0
3900,D2,233.0,0.125,127,95.0
3901,D3,233.0,0.125,127,95.0
3902,F#2,233.25,0.25,127,95.0
3903,F#2,233.5,0.25,127,95.0
3904,F#2,233.75,0.25,127,95.0
3905,A5,234.0,0.5,100,95.0
3906,B-2,234.0,0.125,127,95.0
3907,D2,234.0,0.125,127,95.0
3908,D3,234.0,0.125,127,95.0
3909,B-2,234.0,0.125,127,95.0
3910,D2,234.0,0.125,127,95.0
3911,D3,234.0,0.125,127,95.0
3912,F#2,234.0,0.25,127,95.0
3913,C2,234.0,0.25,127,95.0
3914,D2,234.0,0.125,127,95.0
3915,D3,234.0,0.125,127,95.0
3916,F#2,234.25,0.25,127,95.0
3917,B-5,234.5,0.5,100,95.0
3918,B-2,234.5,0.125,127,95.0
3919,D2,234.5,0.125,127,95.0
3920,D3,234.5,0.125,127,95.0
3921,B-2,234.5,0.125,127,95.0
3922,D2,234.5,0.125,127,95.0
3923,D3,234.5,0.125,127,95.0
3924,F#2,234.5,0.25,127,95.0
3925,C2,234.5,0.25,127,95.0
3926,D2,234.5,0.125,127,95.0
3927,D3,234.5,0.125,127,95.0
3928,F#2,234.75,0.25,127,95.0
3929,F#2,235.0,0.25,127,95.0
3930,D2,235.0,0.25,127,95.0
3931,E2,235.0,0.25,127,95.0
3932,F#2,235.25,0.25,127,95.0
3933,F#2,235.5,0.25,127,95.0
3934,B-5,235.5,0.5,100,95.0
3935,B-2,235.5,0.125,127,95.0
3936,D2,235.5,0.125,127,95.0
3937,D3,235.5,0.125,127,95.0
3938,B-2,235.5,0.125,127,95.0
3939,D2,235.5,0.125,127,95.0
3940,D3,235.5,0.125,127,95.0
3941,D2,235.5,0.125,127,95.0
3942,D3,235.5,0.125,127,95.0
3943,F#2,235.75,0.25,127,95.0
3944,A5,236.0,0.5,100,95.0
3945,B-2,236.0,0.125,127,95.0
3946,D2,236.0,0.125,127,95.0
3947,D3,236.0,0.125,127,95.0
3948,B-2,236.0,0.125,127,95.0
3949,D2,236.0,0.125,127,95.0
3950,D3,236.0,0.125,127,95.0
3951,C2,236.0,0.25,127,95.0
3952,F#2,236.0,0.25,127,95.0
3953,D2,236.0,0.125,127,95.0
3954,D3,236.0,0.125,127,95.0
3955,F#2,236.25,0.25,127,95.0
3956,F#2,236.5,0.25,127,95.0
3957,C2,236.75,0.25,127,95.0
3958,F#2,236.75,0.25,127,95.0
3959,A5,237.0,0.5,100,95.0
3960,B-2,237.0,0.125,127,95.0
3961,D2,237.0,0.125,127,95.0
3962,D3,237.0,0.125,127,95.0
3963,B-2,237.0,0.125,127,95.0
3964,D2,237.0,0.125,127,95.0
3965,D3,237.0,0.125,127,95.0
3966,D2,237.0,0.25,127,95.0
3967,E2,237.0,0.25,127,95.0
3968,F#2,237.0,0.25,127,95.0
3969,D2,237.0,0.125,127,95.0
3970,D3,237.0,0.125,127,95.0
3971,F#2,237.25,0.25,127,95.0
3972,F#2,237.5,0.25,127,95.0
3973,B-5,237.5,0.5,100,95.0
3974,B-2,237.5,0.125,127,95.0
3975,D2,237.5,0.125,127,95.0
3976,D3,237.5,0.125,127,95.0
3977,B-2,237.5,0.125,127,95.0
3978,D2,237.5,0.125,127,95.0
3979,D3,237.5,0.125,127,95.0
3980,D2,237.5,0.125,127,95.0
3981,D3,237.5,0.125,127,95.0
3982,F#2,237.75,0.25,127,95.0
3983,C2,238.0,0.25,127,95.0
3984,F#2,238.0,0.25,127,95.0
3985,F#2,238.25,0.25,127,95.0
3986,D3,238.5,0.25,127,95.0
3987,D3,238.5,0.25,127,95.0
3988,B-5,238.5,0.5,100,95.0
3989,B-2,238.5,0.125,127,95.0
3990,D2,238.5,0.125,127,95.0
3991,D3,238.5,0.125,127,95.0
3992,B-2,238.5,0.125,127,95.0
3993,D2,238.5,0.125,127,95.0
3994,D3,238.5,0.125,127,95.0
3995,C2,238.5,0.25,127,95.0
3996,F#2,238.5,0.25,127,95.0
3997,D2,238.5,0.125,127,95.0
3998,D3,238.5,0.125,127,95.0
3999,D3,238.75,0.25,127,95.0
4000,D3,238.75,0.25,127,95.0
4001,F#2,238.75,0.25,127,95.0
4002,B-3,239.0,0.25,127,95.0
4003,B-3,239.0,0.25,127,95.0
4004,A5,239.0,0.5,100,95.0
4005,B-2,239.0,0.125,127,95.0
4006,D2,239.0,0.125,127,95.0
4007,D3,239.0,0.125,127,95.0
4008,B-2,239.0,0.125,127,95.0
4009,D2,239.0,0.125,127,95.0
4010,D3,239.0,0.125,127,95.0
4011,D2,239.0,0.25,127,95.0
4012,E2,239.0,0.25,127,95.0
4013,F#2,239.0,0.25,127,95.0
4014,D2,239.0,0.125,127,95.0
4015,D3,239.0,0.125,127,95.0
4016,B-3,239.25,0.25,127,95.0
4017,B-3,239.25,0.25,127,95.0
4018,C2,239.25,0.25,127,95.0
4019,F#2,239.25,0.25,127,95.0
4020,D3,239.5,0.25,127,95.0
4021,D3,239.5,0.25,127,95.0
4022,F#2,239.5,0.25,127,95.0
4023,B-5,239.5,0.5,100,95.0
4024,B-2,239.5,0.125,127,95.0
4025,D2,239.5,0.125,127,95.0
4026,D3,239.5,0.125,127,95.0
4027,B-2,239.5,0.125,127,95.0
4028,D2,239.5,0.125,127,95.0
4029,D3,239.5,0.125,127,95.0
4030,D2,239.5,0.125,127,95.0
4031,D3,239.5,0.125,127,95.0
4032,D3,239.75,0.25,127,95.0
4033,D3,239.75,0.25,127,95.0
4034,F#2,239.75,0.25,127,95.0
4035,F#2,240.0,0.25,127,95.0
4036,C2,240.0,0.25,127,95.0
4037,F#2,240.25,0.25,127,95.0
4038,F#2,240.5,0.25,127,95.0
4039,E-6,240.5,0.5,100,95.0
4040,A2,240.5,0.125,127,95.0
4041,D2,240.5,0.125,127,95.0
4042,D3,240.5,0.125,127,95.0
4043,A2,240.5,0.125,127,95.0
4044,D2,240.5,0.125,127,95.0
4045,D3,240.5,0.125,127,95.0
4046,D2,240.5,0.125,127,95.0
4047,D3,240.5,0.125,127,95.0
4048,F#2,240.75,0.25,127,95.0
4049,C2,240.875,0.125,127,95.0
4050,D6,241.0,0.5,100,95.0
4051,A2,241.0,0.125,127,95.0
4052,D2,241.0,0.125,127,95.0
4053,D3,241.0,0.125,127,95.0
4054,A2,241.0,0.125,127,95.0
4055,D2,241.0,0.125,127,95.0
4056,D3,241.0,0.125,127,95.0
4057,F#2,241.0,0.25,127,95.0
4058,D2,241.0,0.25,127,95.0
4059,E2,241.0,0.25,127,95.0
4060,D2,241.0,0.125,127,95.0
4061,D3,241.0,0.125,127,95.0
4062,F#2,241.25,0.25,127,95.0
4063,F#2,241.5,0.25,127,95.0
4064,F#2,241.75,0.25,127,95.0
4065,D6,242.0,0.5,100,95.0
4066,A2,242.0,0.125,127,95.0
4067,D2,242.0,0.125,127,95.0
4068,D3,242.0,0.125,127,95.0
4069,A2,242.0,0.125,127,95.0
4070,D2,242.0,0.125,127,95.0
4071,D3,242.0,0.125,127,95.0
4072,F#2,242.0,0.25,127,95.0
4073,C2,242.0,0.25,127,95.0
4074,D2,242.0,0.125,127,95.0
4075,D3,242.0,0.125,127,95.0
4076,F#2,242.25,0.25,127,95.0
4077,E-6,242.5,0.5,100,95.0
4078,A2,242.5,0.125,127,95.0
4079,D2,242.5,0.125,127,95.0
4080,D3,242.5,0.125,127,95.0
4081,A2,242.5,0.125,127,95.0
4082,D2,242.5,0.125,127,95.0
4083,D3,242.5,0.125,127,95.0
4084,F#2,242.5,0.25,127,95.0
4085,C2,242.5,0.25,127,95.0
4086,D2,242.5,0.125,127,95.0
4087,D3,242.5,0.125,127,95.0
4088,F#2,242.75,0.25,127,95.0
4089,F#2,243.0,0.25,127,95.0
4090,D2,243.0,0.25,127,95.0
4091,E2,243.0,0.25,127,95.0
4092,F#2,243.25,0.25,127,95.0
4093,F#2,243.5,0.25,127,95.0
4094,E-6,243.5,0.5,100,95.0
4095,A2,243.5,0.125,127,95.0
4096,D2,243.5,0.125,127,95.0
4097,D3,243.5,0.125,127,95.0
4098,A2,243.5,0.125,127,95.0
4099,D2,243.5,0.125,127,95.0
4100,D3,243.5,0.125,127,95.0
4101,D2,243.5,0.125,127,95.0
4102,D3,243.5,0.125,127,95.0
4103,F#2,243.75,0.25,127,95.0
4104,D6,244.0,0.5,100,95.0
4105,A2,244.0,0.125,127,95.0
4106,D2,244.0,0.125,127,95.0
4107,D3,244.0,0.125,127,95.0
4108,A2,244.0,0.125,127,95.0
4109,D2,244.0,0.125,127,95.0
4110,D3,244.0,0.125,127,95.0
4111,C2,244.0,0.25,127,95.0
4112,F#2,244.0,0.25,127,95.0
4113,D2,244.0,0.125,127,95.0
4114,D3,244.0,0.125,127,95.0
4115,F#2,244.25,0.25,127,95.0
4116,F#2,244.5,0.25,127,95.0
4117,C2,244.75,0.25,127,95.0
4118,F#2,244.75,0.25,127,95.0
4119,D6,245.0,0.5,100,95.0
4120,A2,245.0,0.125,127,95.0
4121,D2,245.0,0.125,127,95.0
4122,D3,245.0,0.125,127,95.0
4123,A2,245.0,0.125,127,95.0
4124,D2,245.0,0.125,127,95.0
4125,D3,245.0,0.125,127,95.0
4126,D2,245.0,0.25,127,95.0
4127,E2,245.0,0.25,127,95.0
4128,F#2,245.0,0.25,127,95.0
4129,D2,245.0,0.125,127,95.0
4130,D3,245.0,0.125,127,95.0
4131,F#2,245.25,0.25,127,95.0
4132,F#2,245.5,0.25,127,95.0
4133,E-6,245.5,0.5,100,95.0
4134,A2,245.5,0.125,127,95.0
4135,D2,245.5,0.125,127,95.0
4136,D3,245.5,0.125,127,95.0
4137,A2,245.5,0.125,127,95.0
4138,D2,245.5,0.125,127,95.0
4139,D3,245.5,0.125,127,95.0
4140,D2,245.5,0.125,127,95.0
4141,D3,245.5,0.125,127,95.0
4142,F#2,245.75,0.25,127,95.0
4143,C2,246.0,0.25,127,95.0
4144,F#2,246.0,0.25,127,95.0
4145,F#2,246.25,0.25,127,95.0
4146,D3,246.5,0.25,127,95.0
4147,D3,246.5,0.25,127,95.0
4148,E-6,246.5,0.5,100,95.0
4149,A2,246.5,0.125,127,95.0
4150,D2,246.5,0.125,127,95.0
4151,D3,246.5,0.125,127,95.0
4152,A2,246.5,0.125,127,95.0
4153,D2,246.5,0.125,127,95.0
4154,D3,246.5,0.125,127,95.0
4155,C2,246.5,0.25,127,95.0
4156,F#2,246.5,0.25,127,95.0
4157,D2,246.5,0.125,127,95.0
4158,D3,246.5,0.125,127,95.0
4159,D3,246.75,0.25,127,95.0
4160,D3,246.75,0.25,127,95.0
4161,F#2,246.75,0.25,127,95.0
4162,A3,247.0,0.25,127,95.0
4163,A3,247.0,0.25,127,95.0
4164,D6,247.0,0.5,100,95.0
4165,A2,247.0,0.125,127,95.0
4166,D2,247.0,0.125,127,95.0
4167,D3,247.0,0.125,127,95.0
4168,A2,247.0,0.125,127,95.0
4169,D2,247.0,0.125,127,95.0
4170,D3,247.0,0.125,127,95.0
4171,D2,247.0,0.25,127,95.0
4172,E2,247.0,0.25,127,95.0
4173,F#2,247.0,0.25,127,95.0
4174,D2,247.0,0.125,127,95.0
4175,D3,247.0,0.125,127,95.0
4176,A3,247.25,0.25,127,95.0
4177,A3,247.25,0.25,127,95.0
4178,C2,247.25,0.25,127,95.0
4179,F#2,247.25,0.25,127,95.0
4180,D3,247.5,0.25,127,95.0
4181,D3,247.5,0.25,127,95.0
4182,F#2,247.5,0.25,127,95.0
4183,E-6,247.5,0.5,100,95.0
4184,A2,247.5,0.125,127,95.0
4185,D2,247.5,0.125,127,95.0
4186,D3,247.5,0.125,127,95.0
4187,A2,247.5,0.125,127,95.0
4188,D2,247.5,0.125,127,95.0
4189,D3,247.5,0.125,127,95.0
4190,D2,247.5,0.125,127,95.0
4191,D3,247.5,0.125,127,95.0
4192,D3,247.75,0.25,127,95.0
4193,D3,247.75,0.25,127,95.0
4194,F#2,247.75,0.25,127,95.0
4195,F#2,248.0,0.25,127,95.0
4196,C2,248.0,0.25,127,95.0
4197,F#2,248.25,0.25,127,95.0
4198,F#2,248.5,0.25,127,95.0
4199,B-5,248.5,0.5,100,95.0
4200,B-2,248.5,0.125,127,95.0
4201,D2,248.5,0.125,127,95.0
4202,D3,248.5,0.125,127,95.0
4203,B-2,248.5,0.125,127,95.0
4204,D2,248.5,0.125,127,95.0
4205,D3,248.5,0.125,127,95.0
4206,D2,248.5,0.125,127,95.0
4207,D3,248.5,0.125,127,95.0
4208,F#2,248.75,0.25,127,95.0
4209,C2,248.875,0.125,127,95.0
4210,A5,249.0,0.5,100,95.0
4211,B-2,249.0,0.125,127,95.0
4212,D2,249.0,0.125,127,95.0
4213,D3,249.0,0.125,127,95.0
4214,B-2,249.0,0.125,127,95.0
4215,D2,249.0,0.125,127,95.0
4216,D3,249.0,0.125,127,95.0
4217,F#2,249.0,0.25,127,95.0
4218,D2,249.0,0.25,127,95.0
4219,E2,249.0,0.25,127,95.0
4220,D2,249.0,0.125,127,95.0
4221,D3,249.0,0.125,127,95.0
4222,F#2,249.25,0.25,127,95.0
4223,F#2,249.5,0.25,127,95.0
4224,F#2,249.75,0.25,127,95.0
4225,A5,250.0,0.5,100,95.0
4226,B-2,250.0,0.125,127,95.0
4227,D2,250.0,0.125,127,95.0
4228,D3,250.0,0.125,127,95.0
4229,B-2,250.0,0.125,127,95.0
4230,D2,250.0,0.125,127,95.0
4231,D3,250.0,0.125,127,95.0
4232,F#2,250.0,0.25,127,95.0
4233,C2,250.0,0.25,127,95.0
4234,D2,250.0,0.125,127,95.0
4235,D3,250.0,0.125,127,95.0
4236,F#2,250.25,0.25,127,95.0
4237,B-5,250.5,0.5,100,95.0
4238,B-2,250.5,0.125,127,95.0
4239,D2,250.5,0.125,127,95.0
4240,D3,250.5,0.125,127,95.0
4241,B-2,250.5,0.125,127,95.0
4242,D2,250.5,0.125,127,95.0
4243,D3,250.5,0.125,127,95.0
4244,F#2,250.5,0.25,127,95.0
4245,C2,250.5,0.25,127,95.0
4246,D2,250.5,0.125,127,95.0
4247,D3,250.5,0.125,127,95.0
4248,F#2,250.75,0.25,127,95.0
4249,F#2,251.0,0.25,127,95.0
4250,D2,251.0,0.25,127,95.0
4251,E2,251.0,0.25,127,95.0
4252,F#2,251.25,0.25,127,95.0
4253,F#2,251.5,0.25,127,95.0
4254,B-5,251.5,0.5,100,95.0
4255,B-2,251.5,0.125,127,95.0
4256,D2,251.5,0.125,127,95.0
4257,D3,251.5,0.125,127,95.0
4258,B-2,251.5,0.125,127,95.0
4259,D2,251.5,0.125,127,95.0
4260,D3,251.5,0.125,127,95.0
4261,D2,251.5,0.125,127,95.0
4262,D3,251.5,0.125,127,95.0
4263,F#2,251.75,0.25,127,95.0
4264,A5,252.0,0.5,100,95.0
4265,B-2,252.0,0.125,127,95.0
4266,D2,252.0,0.125,127,95.0
4267,D3,252.0,0.125,127,95.0
4268,B-2,252.0,0.125,127,95.0
4269,D2,252.0,0.125,127,95.0
4270,D3,252.0,0.125,127,95.0
4271,C2,252.0,0.25,127,95.0
4272,F#2,252.0,0.25,127,95.0
4273,D2,252.0,0.125,127,95.0
4274,D3,252.0,0.125,127,95.0
4275,F#2,252.25,0.25,127,95.0
4276,F#2,252.5,0.25,127,95.0
4277,C2,252.75,0.25,127,95.0
4278,F#2,252.75,0.25,127,95.0
4279,A5,253.0,0.5,100,95.0
4280,B-2,253.0,0.125,127,95.0
4281,D2,253.0,0.125,127,95.0
4282,D3,253.0,0.125,127,95.0
4283,B-2,253.0,0.125,127,95.0
4284,D2,253.0,0.125,127,95.0
4285,D3,253.0,0.125,127,95.0
4286,D2,253.0,0.25,127,95.0
4287,E2,253.0,0.25,127,95.0
4288,F#2,253.0,0.25,127,95.0
4289,D2,253.0,0.125,127,95.0
4290,D3,253.0,0.125,127,95.0
4291,F#2,253.25,0.25,127,95.0
4292,F#2,253.5,0.25,127,95.0
4293,B-5,253.5,0.5,100,95.0
4294,B-2,253.5,0.125,127,95.0
4295,D2,253.5,0.125,127,95.0
4296,D3,253.5,0.125,127,95.0
4297,B-2,253.5,0.125,127,95.0
4298,D2,253.5,0.125,127,95.0
4299,D3,253.5,0.125,127,95.0
4300,D2,253.5,0.125,127,95.0
4301,D3,253.5,0.125,127,95.0
4302,F#2,253.75,0.25,127,95.0
4303,C2,254.0,0.25,127,95.0
4304,F#2,254.0,0.25,127,95.0
4305,F#2,254.25,0.25,127,95.0
4306,D3,254.5,0.25,127,95.0
4307,D3,254.5,0.25,127,95.0
4308,B-5,254.5,0.5,100,95.0
4309,B-2,254.5,0.125,127,95.0
4310,D2,254.5,0.125,127,95.0
4311,D3,254.5,0.125,127,95.0
4312,B-2,254.5,0.125,127,95.0
4313,D2,254.5,0.125,127,95.0
4314,D3,254.5,0.125,127,95.0
4315,C2,254.5,0.25,127,95.0
4316,F#2,254.5,0.25,127,95.0
4317,D2,254.5,0.125,127,95.0
4318,D3,254.5,0.125,127,95.0
4319,D3,254.75,0.25,127,95.0
4320,D3,254.75,0.25,127,95.0
4321,F#2,254.75,0.25,127,95.0
4322,B-3,255.0,0.25,127,95.0
4323,B-3,255.0,0.25,127,95.0
4324,A5,255.0,0.5,100,95.0
4325,B-2,255.0,0.125,127,95.0
4326,D2,255.0,0.125,127,95.0
4327,D3,255.0,0.125,127,95.0
4328,B-2,255.0,0.125,127,95.0
4329,D2,255.0,0.125,127,95.0
4330,D3,255.0,0.125,127,95.0
4331,D2,255.0,0.25,127,95.0
4332,E2,255.0,0.25,127,95.0
4333,F#2,255.0,0.25,127,95.0
4334,D2,255.0,0.125,127,95.0
4335,D3,255.0,0.125,127,95.0
4336,B-3,255.25,0.25,127,95.0
4337,B-3,255.25,0.25,127,95.0
4338,C2,255.25,0.25,127,95.0
4339,F#2,255.25,0.25,127,95.0
4340,D3,255.5,0.25,127,95.0
4341,D3,255.5,0.25,127,95.0
4342,F#2,255.5,0.25,127,95.0
4343,B-5,255.5,0.5,100,95.0
4344,B-2,255.5,0.125,127,95.0
4345,D2,255.5,0.125,127,95.0
4346,D3,255.5,0.125,127,95.0
4347,B-2,255.5,0.125,127,95.0
4348,D2,255.5,0.125,127,95.0
4349,D3,255.5,0.125,127,95.0
4350,D2,255.5,0.125,127,95.0
4351,D3,255.5,0.125,127,95.0
4352,D3,255.75,0.25,127,95.0
4353,D3,255.75,0.25,127,95.0
4354,F#2,255.75,0.25,127,95.0
4355,A3,256.0,1.0,127,95.0
4356,C2,256.0,0.25,127,95.0
4357,D3,256.0,0.5,127,95.0
4358,D2,256.0,0.5,127,95.0
4359,A2,256.5,0.125,127,95.0
4360,D2,256.5,0.125,127,95.0
4361,D3,256.5,0.125,127,95.0
4362,A2,256.5,0.125,127,95.0
4363,D2,256.5,0.125,127,95.0
4364,D3,256.5,0.125,127,95.0
4365,D2,256.5,0.5,127,95.0
4366,D3,256.5,0.5,127,95.0
4367,D4,256.5,0.5,127,95.0
4368,C2,256.75,0.25,127,95.0
4369,A3,257.0,1.0,127,95.0
4370,E2,257.0,0.25,127,95.0
4371,A2,257.0,0.125,127,95.0
4372,D2,257.0,0.125,127,95.0
4373,D3,257.0,0.125,127,95.0
4374,A2,257.0,0.125,127,95.0
4375,D2,257.0,0.125,127,95.0
4376,D3,257.0,0.125,127,95.0
4377,D2,257.0,0.5,127,95.0
4378,D3,257.0,0.5,127,95.0
4379,A4,257.0,0.5,127,95.0
4380,D2,257.5,0.5,127,95.0
4381,D3,257.5,0.5,127,95.0
4382,A3,258.0,1.0,127,95.0
4383,C2,258.0,0.25,127,95.0
4384,A2,258.0,0.125,127,95.0
4385,D2,258.0,0.125,127,95.0
4386,D3,258.0,0.125,127,95.0
4387,A2,258.0,0.125,127,95.0
4388,D2,258.0,0.125,127,95.0
4389,D3,258.0,0.125,127,95.0
4390,D2,258.0,0.5,127,95.0
4391,D3,258.0,0.5,127,95.0
4392,A4,258.0,0.5,127,95.0
4393,C2,258.5,0.25,127,95.0
4394,A2,258.5,0.125,127,95.0
4395,D2,258.5,0.125,127,95.0
4396,D3,258.5,0.125,127,95.0
4397,A2,258.5,0.125,127,95.0
4398,D2,258.5,0.125,127,95.0
4399,D3,258.5,0.125,127,95.0
4400,D2,258.5,0.5,127,95.0
4401,D3,258.5,0.5,127,95.0
4402,D4,258.5,0.5,127,95.0
4403,A3,259.0,1.0,127,95.0
4404,E2,259.0,0.25,127,95.0
4405,D2,259.0,0.5,127,95.0
4406,D3,259.0,0.5,127,95.0
4407,C2,259.5,0.25,127,95.0
4408,A2,259.5,0.125,127,95.0
4409,D2,259.5,0.125,127,95.0
4410,D3,259.5,0.125,127,95.0
4411,A2,259.5,0.125,127,95.0
4412,D2,259.5,0.125,127,95.0
4413,D3,259.5,0.125,127,95.0
4414,D2,259.5,0.5,127,95.0
4415,D3,259.5,0.5,127,95.0
4416,D4,259.5,0.5,127,95.0
4417,A3,260.0,1.0,127,95.0
4418,C2,260.0,0.25,127,95.0
4419,A2,260.0,0.125,127,95.0
4420,D2,260.0,0.125,127,95.0
4421,D3,260.0,0.125,127,95.0
4422,A2,260.0,0.125,127,95.0
4423,D2,260.0,0.125,127,95.0
4424,D3,260.0,0.125,127,95.0
4425,D2,260.0,0.5,127,95.0
4426,D3,260.0,0.5,127,95.0
4427,A4,260.0,0.5,127,95.0
4428,D2,260.5,0.5,127,95.0
4429,D3,260.5,0.5,127,95.0
4430,C2,260.75,0.25,127,95.0
4431,A3,261.0,1.0,127,95.0
4432,E2,261.0,0.25,127,95.0
4433,A2,261.0,0.125,127,95.0
4434,D2,261.0,0.125,127,95.0
4435,D3,261.0,0.125,127,95.0
4436,A2,261.0,0.125,127,95.0
4437,D2,261.0,0.125,127,95.0
4438,D3,261.0,0.125,127,95.0
4439,D2,261.0,0.5,127,95.0
4440,D3,261.0,0.5,127,95.0
4441,A4,261.0,0.5,127,95.0
4442,A2,261.5,0.125,127,95.0
4443,D2,261.5,0.125,127,95.0
4444,D3,261.5,0.125,127,95.0
4445,A2,261.5,0.125,127,95.0
4446,D2,261.5,0.125,127,95.0
4447,D3,261.5,0.125,127,95.0
4448,D2,261.5,0.5,127,95.0
4449,D3,261.5,0.5,127,95.0
4450,D4,261.5,0.5,127,95.0
4451,A3,262.0,1.0,127,95.0
4452,C2,262.0,0.25,127,95.0
4453,D2,262.0,0.5,127,95.0
4454,D3,262.0,0.5,127,95.0
4455,D3,262.5,0.25,127,95.0
4456,D3,262.5,0.25,127,95.0
4457,C2,262.5,0.25,127,95.0
4458,A2,262.5,0.125,127,95.0
4459,D2,262.5,0.125,127,95.0
4460,D3,262.5,0.125,127,95.0
4461,A2,262.5,0.125,127,95.0
4462,D2,262.5,0.125,127,95.0
4463,D3,262.5,0.125,127,95.0
4464,D2,262.5,0.5,127,95.0
4465,D3,262.5,0.5,127,95.0
4466,D4,262.5,0.5,127,95.0
4467,D3,262.75,0.25,127,95.0
4468,D3,262.75,0.25,127,95.0
4469,A3,263.0,0.25,127,95.0
4470,A3,263.0,0.25,127,95.0
4471,A3,263.0,1.0,127,95.0
4472,E2,263.0,0.25,127,95.0
4473,A2,263.0,0.125,127,95.0
4474,D2,263.0,0.125,127,95.0
4475,D3,263.0,0.125,127,95.0
4476,A2,263.0,0.125,127,95.0
4477,D2,263.0,0.125,127,95.0
4478,D3,263.0,0.125,127,95.0
4479,D2,263.0,0.5,127,95.0
4480,D3,263.0,0.5,127,95.0
4481,A4,263.0,0.5,127,95.0
4482,A3,263.25,0.25,127,95.0
4483,A3,263.25,0.25,127,95.0
4484,D3,263.5,0.25,127,95.0
4485,D3,263.5,0.25,127,95.0
4486,A2,263.5,0.125,127,95.0
4487,D2,263.5,0.125,127,95.0
4488,D3,263.5,0.125,127,95.0
4489,A2,263.5,0.125,127,95.0
4490,D2,263.5,0.125,127,95.0
4491,D3,263.5,0.125,127,95.0
4492,D2,263.5,0.5,127,95.0
4493,D3,263.5,0.5,127,95.0
4494,D4,263.5,0.5,127,95.0
4495,D3,263.75,0.25,127,95.0
4496,D3,263.75,0.25,127,95.0
4497,E2,263.75,0.25,127,95.0
4498,A3,264.0,1.0,127,95.0
4499,C2,264.0,0.25,127,95.0
4500,E-2,264.0,0.5,127,95.0
4501,E-3,264.0,0.5,127,95.0
4502,E-4,264.0,0.5,127,95.0
4503,B-2,264.5,0.125,127,95.0
4504,D2,264.5,0.125,127,95.0
4505,D3,264.5,0.125,127,95.0
4506,B-2,264.5,0.125,127,95.0
4507,D2,264.5,0.125,127,95.0
4508,D3,264.5,0.125,127,95.0
4509,E-2,264.5,0.5,127,95.0
4510,E-3,264.5,0.5,127,95.0
4511,E-4,264.5,0.5,127,95.0
4512,C2,264.75,0.25,127,95.0
4513,A3,265.0,1.0,127,95.0
4514,E2,265.0,0.25,127,95.0
4515,B-2,265.0,0.125,127,95.0
4516,D2,265.0,0.125,127,95.0
4517,D3,265.0,0.125,127,95.0
4518,B-2,265.0,0.125,127,95.0
4519,D2,265.0,0.125,127,95.0
4520,D3,265.0,0.125,127,95.0
4521,E-2,265.0,0.5,127,95.0
4522,E-3,265.0,0.5,127,95.0
4523,F4,265.0,0.5,127,95.0
4524,E-2,265.5,0.5,127,95.0
4525,E-3,265.5,0.5,127,95.0
4526,A3,266.0,1.0,127,95.0
4527,C2,266.0,0.25,127,95.0
4528,B-2,266.0,0.125,127,95.0
4529,D2,266.0,0.125,127,95.0
4530,D3,266.0,0.125,127,95.0
4531,B-2,266.0,0.125,127,95.0
4532,D2,266.0,0.125,127,95.0
4533,D3,266.0,0.125,127,95.0
4534,E-2,266.0,0.5,127,95.0
4535,E-3,266.0,0.5,127,95.0
4536,F4,266.0,0.5,127,95.0
4537,C2,266.5,0.25,127,95.0
4538,B-2,266.5,0.125,127,95.0
4539,D2,266.5,0.125,127,95.0
4540,D3,266.5,0.125,127,95.0
4541,B-2,266.5,0.125,127,95.0
4542,D2,266.5,0.125,127,95.0
4543,D3,266.5,0.125,127,95.0
4544,E-2,266.5,0.5,127,95.0
4545,E-3,266.5,0.5,127,95.0
4546,E-4,266.5,0.5,127,95.0
4547,A3,267.0,1.0,127,95.0
4548,E2,267.0,0.25,127,95.0
4549,E-2,267.0,0.5,127,95.0
4550,E-3,267.0,0.5,127,95.0
4551,C2,267.5,0.25,127,95.0
4552,B-2,267.5,0.125,127,95.0
4553,D2,267.5,0.125,127,95.0
4554,D3,267.5,0.125,127,95.0
4555,B-2,267.5,0.125,127,95.0
4556,D2,267.5,0.125,127,95.0
4557,D3,267.5,0.125,127,95.0
4558,E-2,267.5,0.5,127,95.0
4559,E-3,267.5,0.5,127,95.0
4560,E-4,267.5,0.5,127,95.0
4561,A3,268.0,1.0,127,95.0
4562,C2,268.0,0.25,127,95.0
4563,B-2,268.0,0.125,127,95.0
4564,D2,268.0,0.125,127,95.0
4565,D3,268.0,0.125,127,95.0
4566,B-2,268.0,0.125,127,95.0
4567,D2,268.0,0.125,127,95.0
4568,D3,268.0,0.125,127,95.0
4569,F4,268.0,0.5,127,95.0
4570,E-2,268.0,0.5,127,95.0
4571,E-3,268.0,0.5,127,95.0
4572,E-2,268.5,0.5,127,95.0
4573,E-3,268.5,0.5,127,95.0
4574,C2,268.75,0.25,127,95.0
4575,A3,269.0,1.0,127,95.0
4576,E2,269.0,0.25,127,95.0
4577,B-2,269.0,0.125,127,95.0
4578,D2,269.0,0.125,127,95.0
4579,D3,269.0,0.125,127,95.0
4580,B-2,269.0,0.125,127,95.0
4581,D2,269.0,0.125,127,95.0
4582,D3,269.0,0.125,127,95.0
4583,F4,269.0,0.5,127,95.0
4584,E-2,269.0,0.5,127,95.0
4585,E-3,269.0,0.5,127,95.0
4586,B-2,269.5,0.125,127,95.0
4587,D2,269.5,0.125,127,95.0
4588,D3,269.5,0.125,127,95.0
4589,B-2,269.5,0.125,127,95.0
4590,D2,269.5,0.125,127,95.0
4591,D3,269.5,0.125,127,95.0
4592,E-4,269.5,0.5,127,95.0
4593,E-2,269.5,0.5,127,95.0
4594,E-3,269.5,0.5,127,95.0
4595,A3,270.0,1.0,127,95.0
4596,C2,270.0,0.25,127,95.0
4597,E-2,270.0,0.5,127,95.0
4598,E-3,270.0,0.5,127,95.0
4599,D3,270.5,0.25,127,95.0
4600,D3,270.5,0.25,127,95.0
4601,C2,270.5,0.25,127,95.0
4602,B-2,270.5,0.125,127,95.0
4603,D2,270.5,0.125,127,95.0
4604,D3,270.5,0.125,127,95.0
4605,B-2,270.5,0.125,127,95.0
4606,D2,270.5,0.125,127,95.0
4607,D3,270.5,0.125,127,95.0
4608,E-4,270.5,0.5,127,95.0
4609,E-2,270.5,0.5,127,95.0
4610,E-3,270.5,0.5,127,95.0
4611,D3,270.75,0.25,127,95.0
4612,D3,270.75,0.25,127,95.0
4613,B-3,271.0,0.25,127,95.0
4614,B-3,271.0,0.25,127,95.0
4615,A3,271.0,1.0,127,95.0
4616,E2,271.0,0.25,127,95.0
4617,B-2,271.0,0.125,127,95.0
4618,D2,271.0,0.125,127,95.0
4619,D3,271.0,0.125,127,95.0
4620,B-2,271.0,0.125,127,95.0
4621,D2,271.0,0.125,127,95.0
4622,D3,271.0,0.125,127,95.0
4623,F4,271.0,0.5,127,95.0
4624,E-2,271.0,0.5,127,95.0
4625,E-3,271.0,0.5,127,95.0
4626,B-3,271.25,0.25,127,95.0
4627,B-3,271.25,0.25,127,95.0
4628,D3,271.5,0.25,127,95.0
4629,D3,271.5,0.25,127,95.0
4630,B-2,271.5,0.125,127,95.0
4631,D2,271.5,0.125,127,95.0
4632,D3,271.5,0.125,127,95.0
4633,B-2,271.5,0.125,127,95.0
4634,D2,271.5,0.125,127,95.0
4635,D3,271.5,0.125,127,95.0
4636,E-4,271.5,0.5,127,95.0
4637,E-2,271.5,0.5,127,95.0
4638,E-3,271.5,0.5,127,95.0
4639,D3,271.75,0.25,127,95.0
4640,D3,271.75,0.25,127,95.0
4641,E2,271.75,0.25,127,95.0
4642,A3,272.0,1.0,127,95.0
4643,C2,272.0,0.25,127,95.0
4644,D3,272.0,0.5,127,95.0
4645,D2,272.0,0.5,127,95.0
4646,A2,272.5,0.125,127,95.0
4647,D2,272.5,0.125,127,95.0
4648,D3,272.5,0.125,127,95.0
4649,A2,272.5,0.125,127,95.0
4650,D2,272.5,0.125,127,95.0
4651,D3,272.5,0.125,127,95.0
4652,D2,272.5,0.5,127,95.0
4653,D3,272.5,0.5,127,95.0
4654,D4,272.5,0.5,127,95.0
4655,C2,272.75,0.25,127,95.0
4656,A3,273.0,1.0,127,95.0
4657,E2,273.0,0.25,127,95.0
4658,A2,273.0,0.125,127,95.0
4659,D2,273.0,0.125,127,95.0
4660,D3,273.0,0.125,127,95.0
4661,A2,273.0,0.125,127,95.0
4662,D2,273.0,0.125,127,95.0
4663,D3,273.0,0.125,127,95.0
4664,D2,273.0,0.5,127,95.0
4665,D3,273.0,0.5,127,95.0
4666,A4,273.0,0.5,127,95.0
4667,D2,273.5,0.5,127,95.0
4668,D3,273.5,0.5,127,95.0
4669,A3,274.0,1.0,127,95.0
4670,C2,274.0,0.25,127,95.0
4671,A2,274.0,0.125,127,95.0
4672,D2,274.0,0.125,127,95.0
4673,D3,274.0,0.125,127,95.0
4674,A2,274.0,0.125,127,95.0
4675,D2,274.0,0.125,127,95.0
4676,D3,274.0,0.125,127,95.0
4677,D2,274.0,0.5,127,95.0
4678,D3,274.0,0.5,127,95.0
4679,A4,274.0,0.5,127,95.0
4680,C2,274.5,0.25,127,95.0
4681,A2,274.5,0.125,127,95.0
4682,D2,274.5,0.125,127,95.0
4683,D3,274.5,0.125,127,95.0
4684,A2,274.5,0.125,127,95.0
4685,D2,274.5,0.125,127,95.0
4686,D3,274.5,0.125,127,95.0
4687,D2,274.5,0.5,127,95.0
4688,D3,274.5,0.5,127,95.0
4689,D4,274.5,0.5,127,95.0
4690,A3,275.0,1.0,127,95.0
4691,E2,275.0,0.25,127,95.0
4692,D2,275.0,0.5,127,95.0
4693,D3,275.0,0.5,127,95.0
4694,C2,275.5,0.25,127,95.0
4695,A2,275.5,0.125,127,95.0
4696,D2,275.5,0.125,127,95.0
4697,D3,275.5,0.125,127,95.0
4698,A2,275.5,0.125,127,95.0
4699,D2,275.5,0.125,127,95.0
4700,D3,275.5,0.125,127,95.0
4701,D2,275.5,0.5,127,95.0
4702,D3,275.5,0.5,127,95.0
4703,D4,275.5,0.5,127,95.0
4704,A3,276.0,1.0,127,95.0
4705,C2,276.0,0.25,127,95.0
4706,A2,276.0,0.125,127,95.0
4707,D2,276.0,0.125,127,95.0
4708,D3,276.0,0.125,127,95.0
4709,A2,276.0,0.125,127,95.0
4710,D2,276.0,0.125,127,95.0
4711,D3,276.0,0.125,127,95.0
4712,D2,276.0,0.5,127,95.0
4713,D3,276.0,0.5,127,95.0
4714,A4,276.0,0.5,127,95.0
4715,D2,276.5,0.5,127,95.0
4716,D3,276.5,0.5,127,95.0
4717,C2,276.75,0.25,127,95.0
4718,A3,277.0,1.0,127,95.0
4719,E2,277.0,0.25,127,95.0
4720,A2,277.0,0.125,127,95.0
4721,D2,277.0,0.125,127,95.0
4722,D3,277.0,0.125,127,95.0
4723,A2,277.0,0.125,127,95.0
4724,D2,277.0,0.125,127,95.0
4725,D3,277.0,0.125,127,95.0
4726,D2,277.0,0.5,127,95.0
4727,D3,277.0,0.5,127,95.0
4728,A4,277.0,0.5,127,95.0
4729,A2,277.5,0.125,127,95.0
4730,D2,277.5,0.125,127,95.0
4731,D3,277.5,0.125,127,95.0
4732,A2,277.5,0.125,127,95.0
4733,D2,277.5,0.125,127,95.0
4734,D3,277.5,0.125,127,95.0
4735,D2,277.5,0.5,127,95.0
4736,D3,277.5,0.5,127,95.0
4737,D4,277.5,0.5,127,95.0
4738,A3,278.0,1.0,127,95.0
4739,C2,278.0,0.25,127,95.0
4740,D2,278.0,0.5,127,95.0
4741,D3,278.0,0.5,127,95.0
4742,D3,278.5,0.25,127,95.0
4743,D3,278.5,0.25,127,95.0
4744,C2,278.5,0.25,127,95.0
4745,A2,278.5,0.125,127,95.0
4746,D2,278.5,0.125,127,95.0
4747,D3,278.5,0.125,127,95.0
4748,A2,278.5,0.125,127,95.0
4749,D2,278.5,0.125,127,95.0
4750,D3,278.5,0.125,127,95.0
4751,D2,278.5,0.5,127,95.0
4752,D3,278.5,0.5,127,95.0
4753,D4,278.5,0.5,127,95.0
4754,D3,278.75,0.25,127,95.0
4755,D3,278.75,0.25,127,95.0
4756,A3,279.0,0.25,127,95.0
4757,A3,279.0,0.25,127,95.0
4758,A3,279.0,1.0,127,95.0
4759,E2,279.0,0.25,127,95.0
4760,A2,279.0,0.125,127,95.0
4761,D2,279.0,0.125,127,95.0
4762,D3,279.0,0.125,127,95.0
4763,A2,279.0,0.125,127,95.0
4764,D2,279.0,0.125,127,95.0
4765,D3,279.0,0.125,127,95.0
4766,D2,279.0,0.5,127,95.0
4767,D3,279.0,0.5,127,95.0
4768,A4,279.0,0.5,127,95.0
4769,A3,279.25,0.25,127,95.0
4770,A3,279.25,0.25,127,95.0
4771,D3,279.5,0.25,127,95.0
4772,D3,279.5,0.25,127,95.0
4773,A2,279.5,0.125,127,95.0
4774,D2,279.5,0.125,127,95.0
4775,D3,279.5,0.125,127,95.0
4776,A2,279.5,0.125,127,95.0
4777,D2,279.5,0.125,127,95.0
4778,D3,279.5,0.125,127,95.0
4779,D2,279.5,0.5,127,95.0
4780,D3,279.5,0.5,127,95.0
4781,D4,279.5,0.5,127,95.0
4782,D3,279.75,0.25,127,95.0
4783,D3,279.75,0.25,127,95.0
4784,E2,279.75,0.25,127,95.0
4785,A3,280.0,1.0,127,95.0
4786,C2,280.0,0.25,127,95.0
4787,E-2,280.0,0.5,127,95.0
4788,E-3,280.0,0.5,127,95.0
4789,E-4,280.0,0.5,127,95.0
4790,B-2,280.5,0.125,127,95.0
4791,D2,280.5,0.125,127,95.0
4792,D3,280.5,0.125,127,95.0
4793,B-2,280.5,0.125,127,95.0
4794,D2,280.5,0.125,127,95.0
4795,D3,280.5,0.125,127,95.0
4796,E-2,280.5,0.5,127,95.0
4797,E-3,280.5,0.5,127,95.0
4798,E-4,280.5,0.5,127,95.0
4799,C2,280.75,0.25,127,95.0
4800,A3,281.0,1.0,127,95.0
4801,E2,281.0,0.25,127,95.0
4802,B-2,281.0,0.125,127,95.0
4803,D2,281.0,0.125,127,95.0
4804,D3,281.0,0.125,127,95.0
4805,B-2,281.0,0.125,127,95.0
4806,D2,281.0,0.125,127,95.0
4807,D3,281.0,0.125,127,95.0
4808,E-2,281.0,0.5,127,95.0
4809,E-3,281.0,0.5,127,95.0
4810,F4,281.0,0.5,127,95.0
4811,E-2,281.5,0.5,127,95.0
4812,E-3,281.5,0.5,127,95.0
4813,A3,282.0,1.0,127,95.0
4814,C2,282.0,0.25,127,95.0
4815,B-2,282.0,0.125,127,95.0
4816,D2,282.0,0.125,127,95.0
4817,D3,282.0,0.125,127,95.0
4818,B-2,282.0,0.125,127,95.0
4819,D2,282.0,0.125,127,95.0
4820,D3,282.0,0.125,127,95.0
4821,E-2,282.0,0.5,127,95.0
4822,E-3,282.0,0.5,127,95.0
4823,F4,282.0,0.5,127,95.0
4824,C2,282.5,0.25,127,95.0
4825,B-2,282.5,0.125,127,95.0
4826,D2,282.5,0.125,127,95.0
4827,D3,282.5,0.125,127,95.0
4828,B-2,282.5,0.125,127,95.0
4829,D2,282.5,0.125,127,95.0
4830,D3,282.5,0.125,127,95.0
4831,E-2,282.5,0.5,127,95.0
4832,E-3,282.5,0.5,127,95.0
4833,E-4,282.5,0.5,127,95.0
4834,A3,283.0,1.0,127,95.0
4835,E2,283.0,0.25,127,95.0
4836,E-2,283.0,0.5,127,95.0
4837,E-3,283.0,0.5,127,95.0
4838,C2,283.5,0.25,127,95.0
4839,B-2,283.5,0.125,127,95.0
4840,D2,283.5,0.125,127,95.0
4841,D3,283.5,0.125,127,95.0
4842,B-2,283.5,0.125,127,95.0
4843,D2,283.5,0.125,127,95.0
4844,D3,283.5,0.125,127,95.0
4845,E-2,283.5,0.5,127,95.0
4846,E-3,283.5,0.5,127,95.0
4847,E-4,283.5,0.5,127,95.0
4848,A3,284.0,1.0,127,95.0
4849,C2,284.0,0.25,127,95.0
4850,B-2,284.0,0.125,127,95.0
4851,D2,284.0,0.125,127,95.0
4852,D3,284.0,0.125,127,95.0
4853,B-2,284.0,0.125,127,95.0
4854,D2,284.0,0.125,127,95.0
4855,D3,284.0,0.125,127,95.0
4856,F4,284.0,0.5,127,95.0
4857,E-2,284.0,0.5,127,95.0
4858,E-3,284.0,0.5,127,95.0
4859,E-2,284.5,0.5,127,95.0
4860,E-3,284.5,0.5,127,95.0
4861,C2,284.75,0.25,127,95.0
4862,A3,285.0,1.0,127,95.0
4863,E2,285.0,0.25,127,95.0
4864,B-2,285.0,0.125,127,95.0
4865,D2,285.0,0.125,127,95.0
4866,D3,285.0,0.125,127,95.0
4867,B-2,285.0,0.125,127,95.0
4868,D2,285.0,0.125,127,95.0
4869,D3,285.0,0.125,127,95.0
4870,F4,285.0,0.5,127,95.0
4871,E-2,285.0,0.5,127,95.0
4872,E-3,285.0,0.5,127,95.0
4873,E2,285.5,0.5,127,95.0
4874,B-2,285.5,0.125,127,95.0
4875,D2,285.5,0.125,127,95.0
4876,D3,285.5,0.125,127,95.0
4877,B-2,285.5,0.125,127,95.0
4878,D2,285.5,0.125,127,95.0
4879,D3,285.5,0.125,127,95.0
4880,E-4,285.5,0.5,127,95.0
4881,E-2,285.5,0.5,127,95.0
4882,E-3,285.5,0.5,127,95.0
4883,A3,286.0,1.0,127,95.0
4884,C3,286.0,0.25,127,95.0
4885,E2,286.0,0.25,127,95.0
4886,E-2,286.0,0.5,127,95.0
4887,E-3,286.0,0.5,127,95.0
4888,C3,286.25,0.25,127,95.0
4889,E2,286.25,0.25,127,95.0
4890,D3,286.5,0.25,127,95.0
4891,D3,286.5,0.25,127,95.0
4892,B-2,286.5,0.125,127,95.0
4893,D2,286.5,0.125,127,95.0
4894,D3,286.5,0.125,127,95.0
4895,B-2,286.5,0.125,127,95.0
4896,D2,286.5,0.125,127,95.0
4897,D3,286.5,0.125,127,95.0
4898,B2,286.5,0.25,127,95.0
4899,E2,286.5,0.25,127,95.0
4900,E-4,286.5,0.5,127,95.0
4901,E-2,286.5,0.5,127,95.0
4902,E-3,286.5,0.5,127,95.0
4903,D3,286.75,0.25,127,95.0
4904,D3,286.75,0.25,127,95.0
4905,B2,286.75,0.25,127,95.0
4906,E2,286.75,0.25,127,95.0
4907,B-3,287.0,0.25,127,95.0
4908,B-3,287.0,0.25,127,95.0
4909,A3,287.0,1.0,127,95.0
4910,B-2,287.0,0.125,127,95.0
4911,D2,287.0,0.125,127,95.0
4912,D3,287.0,0.125,127,95.0
4913,B-2,287.0,0.125,127,95.0
4914,D2,287.0,0.125,127,95.0
4915,D3,287.0,0.125,127,95.0
4916,A2,287.0,0.25,127,95.0
4917,E2,287.0,0.25,127,95.0
4918,F4,287.0,0.5,127,95.0
4919,E-2,287.0,0.5,127,95.0
4920,E-3,287.0,0.5,127,95.0
4921,B-3,287.25,0.25,127,95.0
4922,B-3,287.25,0.25,127,95.0
4923,A2,287.25,0.25,127,95.0
4924,E2,287.25,0.25,127,95.0
4925,D3,287.5,0.25,127,95.0
4926,D3,287.5,0.25,127,95.0
4927,B-2,287.5,0.125,127,95.0
4928,D2,287.5,0.125,127,95.0
4929,D3,287.5,0.125,127,95.0
4930,B-2,287.5,0.125,127,95.0
4931,D2,287.5,0.125,127,95.0
4932,D3,287.5,0.125,127,95.0
4933,G2,287.5,0.25,127,95.0
4934,E2,287.5,0.25,127,95.0
4935,E-4,287.5,0.5,127,95.0
4936,E-2,287.5,0.5,127,95.0
4937,E-3,287.5,0.5,127,95.0
4938,D3,287.75,0.25,127,95.0
4939,D3,287.75,0.25,127,95.0
4940,G2,287.75,0.25,127,95.0
4941,E2,287.75,0.25,127,95.0
4942,F#2,288.0,0.25,127,95.0
4943,C2,288.0,0.25,127,95.0
4944,F#2,288.25,0.25,127,95.0
4945,F#2,288.5,0.25,127,95.0
4946,E-6,288.5,0.5,100,95.0
4947,A2,288.5,0.125,127,95.0
4948,D2,288.5,0.125,127,95.0
4949,D3,288.5,0.125,127,95.0
4950,A2,288.5,0.125,127,95.0
4951,D2,288.5,0.125,127,95.0
4952,D3,288.5,0.125,127,95.0
4953,D2,288.5,0.125,127,95.0
4954,D3,288.5,0.125,127,95.0
4955,F#2,288.75,0.25,127,95.0
4956,C2,288.875,0.125,127,95.0
4957,D6,289.0,0.5,100,95.0
4958,A2,289.0,0.125,127,95.0
4959,D2,289.0,0.125,127,95.0
4960,D3,289.0,0.125,127,95.0
4961,A2,289.0,0.125,127,95.0
4962,D2,289.0,0.125,127,95.0
4963,D3,289.0,0.125,127,95.0
4964,F#2,289.0,0.25,127,95.0
4965,D2,289.0,0.25,127,95.0
4966,E2,289.0,0.25,127,95.0
4967,D2,289.0,0.125,127,95.0
4968,D3,289.0,0.125,127,95.0
4969,F#2,289.25,0.25,127,95.0
4970,F#2,289.5,0.25,127,95.0
4971,F#2,289.75,0.25,127,95.0
4972,D6,290.0,0.5,100,95.0
4973,A2,290.0,0.125,127,95.0
4974,D2,290.0,0.125,127,95.0
4975,D3,290.0,0.125,127,95.0
4976,A2,290.0,0.125,127,95.0
4977,D2,290.0,0.125,127,95.0
4978,D3,290.0,0.125,127,95.0
4979,F#2,290.0,0.25,127,95.0
4980,C2,290.0,0.25,127,95.0
4981,D2,290.0,0.125,127,95.0
4982,D3,290.0,0.125,127,95.0
4983,F#2,290.25,0.25,127,95.0
4984,E-6,290.5,0.5,100,95.0
4985,A2,290.5,0.125,127,95.0
4986,D2,290.5,0.125,127,95.0
4987,D3,290.5,0.125,127,95.0
4988,A2,290.5,0.125,127,95.0
4989,D2,290.5,0.125,127,95.0
4990,D3,290.5,0.125,127,95.0
4991,F#2,290.5,0.25,127,95.0
4992,C2,290.5,0.25,127,95.0
4993,D2,290.5,0.125,127,95.0
4994,D3,290.5,0.125,127,95.0
4995,F#2,290.75,0.25,127,95.0
4996,F#2,291.0,0.25,127,95.0
4997,D2,291.0,0.25,127,95.0
4998,E2,291.0,0.25,127,95.0
4999,F#2,291.25,0.25,127,95.0
5000,F#2,291.5,0.25,127,95.0
5001,E-6,291.5,0.5,100,95.0
5002,A2,291.5,0.125,127,95.0
5003,D2,291.5,0.125,127,95.0
5004,D3,291.5,0.125,127,95.0
5005,A2,291.5,0.125,127,95.0
5006,D2,291.5,0.125,127,95.0
5007,D3,291.5,0.125,127,95.0
5008,D2,291.5,0.125,127,95.0
5009,D3,291.5,0.125,127,95.0
5010,F#2,291.75,0.25,127,95.0
5011,D6,292.0,0.5,100,95.0
5012,A2,292.0,0.125,127,95.0
5013,D2,292.0,0.125,127,95.0
5014,D3,292.0,0.125,127,95.0
5015,A2,292.0,0.125,127,95.0
5016,D2,292.0,0.125,127,95.0
5017,D3,292.0,0.125,127,95.0
5018,C2,292.0,0.25,127,95.0
5019,F#2,292.0,0.25,127,95.0
5020,D2,292.0,0.125,127,95.0
5021,D3,292.0,0.125,127,95.0
5022,F#2,292.25,0.25,127,95.0
5023,F#2,292.5,0.25,127,95.0
5024,C2,292.75,0.25,127,95.0
5025,F#2,292.75,0.25,127,95.0
5026,D6,293.0,0.5,100,95.0
5027,A2,293.0,0.125,127,95.0
5028,D2,293.0,0.125,127,95.0
5029,D3,293.0,0.125,127,95.0
5030,A2,293.0,0.125,127,95.0
5031,D2,293.0,0.125,127,95.0
5032,D3,293.0,0.125,127,95.0
5033,D2,293.0,0.25,127,95.0
5034,E2,293.0,0.25,127,95.0
5035,F#2,293.0,0.25,127,95.0
5036,D2,293.0,0.125,127,95.0
5037,D3,293.0,0.125,127,95.0
5038,F#2,293.25,0.25,127,95.0
5039,F#2,293.5,0.25,127,95.0
5040,E-6,293.5,0.5,100,95.0
5041,A2,293.5,0.125,127,95.0
5042,D2,293.5,0.125,127,95.0
5043,D3,293.5,0.125,127,95.0
5044,A2,293.5,0.125,127,95.0
5045,D2,293.5,0.125,127,95.0
5046,D3,293.5,0.125,127,95.0
5047,D2,293.5,0.125,127,95.0
5048,D3,293.5,0.125,127,95.0
5049,F#2,293.75,0.25,127,95.0
5050,C2,294.0,0.25,127,95.0
5051,F#2,294.0,0.25,127,95.0
5052,F#2,294.25,0.25,127,95.0
5053,D3,294.5,0.25,127,95.0
5054,D3,294.5,0.25,127,95.0
5055,E-6,294.5,0.5,100,95.0
5056,A2,294.5,0.125,127,95.0
5057,D2,294.5,0.125,127,95.0
5058,D3,294.5,0.125,127,95.0
5059,A2,294.5,0.125,127,95.0
5060,D2,294.5,0.125,127,95.0
5061,D3,294.5,0.125,127,95.0
5062,C2,294.5,0.25,127,95.0
5063,F#2,294.5,0.25,127,95.0
5064,D2,294.5,0.125,127,95.0
5065,D3,294.5,0.125,127,95.0
5066,D3,294.75,0.25,127,95.0
5067,D3,294.75,0.25,127,95.0
5068,F#2,294.75,0.25,127,95.0
5069,A3,295.0,0.25,127,95.0
5070,A3,295.0,0.25,127,95.0
5071,D6,295.0,0.5,100,95.0
5072,A2,295.0,0.125,127,95.0
5073,D2,295.0,0.125,127,95.0
5074,D3,295.0,0.125,127,95.0
5075,A2,295.0,0.125,127,95.0
5076,D2,295.0,0.125,127,95.0
5077,D3,295.0,0.125,127,95.0
5078,D2,295.0,0.25,127,95.0
5079,E2,295.0,0.25,127,95.0
5080,F#2,295.0,0.25,127,95.0
5081,D2,295.0,0.125,127,95.0
5082,D3,295.0,0.125,127,95.0
5083,A3,295.25,0.25,127,95.0
5084,A3,295.25,0.25,127,95.0
5085,C2,295.25,0.25,127,95.0
5086,F#2,295.25,0.25,127,95.0
5087,D3,295.5,0.25,127,95.0
5088,D3,295.5,0.25,127,95.0
5089,F#2,295.5,0.25,127,95.0
5090,E-6,295.5,0.5,100,95.0
5091,A2,295.5,0.125,127,95.0
5092,D2,295.5,0.125,127,95.0
5093,D3,295.5,0.125,127,95.0
5094,A2,295.5,0.125,127,95.0
5095,D2,295.5,0.125,127,95.0
5096,D3,295.5,0.125,127,95.0
5097,D2,295.5,0.125,127,95.0
5098,D3,295.5,0.125,127,95.0
5099,D3,295.75,0.25,127,95.0
5100,D3,295.75,0.25,127,95.0
5101,F#2,295.75,0.25,127,95.0
5102,F#2,296.0,0.25,127,95.0
5103,C2,296.0,0.25,127,95.0
5104,F#2,296.25,0.25,127,95.0
5105,F#2,296.5,0.25,127,95.0
5106,B-5,296.5,0.5,100,95.0
5107,B-2,296.5,0.125,127,95.0
5108,D2,296.5,0.125,127,95.0
5109,D3,296.5,0.125,127,95.0
5110,B-2,296.5,0.125,127,95.0
5111,D2,296.5,0.125,127,95.0
5112,D3,296.5,0.125,127,95.0
5113,D2,296.5,0.125,127,95.0
5114,D3,296.5,0.125,127,95.0
5115,F#2,296.75,0.25,127,95.0
5116,C2,296.875,0.125,127,95.0
5117,A5,297.0,0.5,100,95.0
5118,B-2,297.0,0.125,127,95.0
5119,D2,297.0,0.125,127,95.0
5120,D3,297.0,0.125,127,95.0
5121,B-2,297.0,0.125,127,95.0
5122,D2,297.0,0.125,127,95.0
5123,D3,297.0,0.125,127,95.0
5124,F#2,297.0,0.25,127,95.0
5125,D2,297.0,0.25,127,95.0
5126,E2,297.0,0.25,127,95.0
5127,D2,297.0,0.125,127,95.0
5128,D3,297.0,0.125,127,95.0
5129,F#2,297.25,0.25,127,95.0
5130,F#2,297.5,0.25,127,95.0
5131,F#2,297.75,0.25,127,95.0
5132,A5,298.0,0.5,100,95.0
5133,B-2,298.0,0.125,127,95.0
5134,D2,298.0,0.125,127,95.0
5135,D3,298.0,0.125,127,95.0
5136,B-2,298.0,0.125,127,95.0
5137,D2,298.0,0.125,127,95.0
5138,D3,298.0,0.125,127,95.0
5139,F#2,298.0,0.25,127,95.0
5140,C2,298.0,0.25,127,95.0
5141,D2,298.0,0.125,127,95.0
5142,D3,298.0,0.125,127,95.0
5143,F#2,298.25,0.25,127,95.0
5144,B-5,298.5,0.5,100,95.0
5145,B-2,298.5,0.125,127,95.0
5146,D2,298.5,0.125,127,95.0
5147,D3,298.5,0.125,127,95.0
5148,B-2,298.5,0.125,127,95.0
5149,D2,298.5,0.125,127,95.0
5150,D3,298.5,0.125,127,95.0
5151,F#2,298.5,0.25,127,95.0
5152,C2,298.5,0.25,127,95.0
5153,D2,298.5,0.125,127,95.0
5154,D3,298.5,0.125,127,95.0
5155,F#2,298.75,0.25,127,95.0
5156,F#2,299.0,0.25,127,95.0
5157,D2,299.0,0.25,127,95.0
5158,E2,299.0,0.25,127,95.0
5159,F#2,299.25,0.25,127,95.0
5160,F#2,299.5,0.25,127,95.0
5161,B-5,299.5,0.5,100,95.0
5162,B-2,299.5,0.125,127,95.0
5163,D2,299.5,0.125,127,95.0
5164,D3,299.5,0.125,127,95.0
5165,B-2,299.5,0.125,127,95.0
5166,D2,299.5,0.125,127,95.0
5167,D3,299.5,0.125,127,95.0
5168,D2,299.5,0.125,127,95.0
5169,D3,299.5,0.125,127,95.0
5170,F#2,299.75,0.25,127,95.0
5171,A5,300.0,0.5,100,95.0
5172,B-2,300.0,0.125,127,95.0
5173,D2,300.0,0.125,127,95.0
5174,D3,300.0,0.125,127,95.0
5175,B-2,300.0,0.125,127,95.0
5176,D2,300.0,0.125,127,95.0
5177,D3,300.0,0.125,127,95.0
5178,C2,300.0,0.25,127,95.0
5179,F#2,300.0,0.25,127,95.0
5180,D2,300.0,0.125,127,95.0
5181,D3,300.0,0.125,127,95.0
5182,F#2,300.25,0.25,127,95.0
5183,F#2,300.5,0.25,127,95.0
5184,C2,300.75,0.25,127,95.0
5185,F#2,300.75,0.25,127,95.0
5186,A5,301.0,0.5,100,95.0
5187,B-2,301.0,0.125,127,95.0
5188,D2,301.0,0.125,127,95.0
5189,D3,301.0,0.125,127,95.0
5190,B-2,301.0,0.125,127,95.0
5191,D2,301.0,0.125,127,95.0
5192,D3,301.0,0.125,127,95.0
5193,D2,301.0,0.25,127,95.0
5194,E2,301.0,0.25,127,95.0
5195,F#2,301.0,0.25,127,95.0
5196,D2,301.0,0.125,127,95.0
5197,D3,301.0,0.125,127,95.0
5198,F#2,301.25,0.25,127,95.0
5199,F#2,301.5,0.25,127,95.0
5200,B-5,301.5,0.5,100,95.0
5201,B-2,301.5,0.125,127,95.0
5202,D2,301.5,0.125,127,95.0
5203,D3,301.5,0.125,127,95.0
5204,B-2,301.5,0.125,127,95.0
5205,D2,301.5,0.125,127,95.0
5206,D3,301.5,0.125,127,95.0
5207,D2,301.5,0.125,127,95.0
5208,D3,301.5,0.125,127,95.0
5209,F#2,301.75,0.25,127,95.0
5210,C2,302.0,0.25,127,95.0
5211,F#2,302.0,0.25,127,95.0
5212,F#2,302.25,0.25,127,95.0
5213,D3,302.5,0.25,127,95.0
5214,D3,302.5,0.25,127,95.0
5215,B-5,302.5,0.5,100,95.0
5216,B-2,302.5,0.125,127,95.0
5217,D2,302.5,0.125,127,95.0
5218,D3,302.5,0.125,127,95.0
5219,B-2,302.5,0.125,127,95.0
5220,D2,302.5,0.125,127,95.0
5221,D3,302.5,0.125,127,95.0
5222,C2,302.5,0.25,127,95.0
5223,F#2,302.5,0.25,127,95.0
5224,D2,302.5,0.125,127,95.0
5225,D3,302.5,0.125,127,95.0
5226,D3,302.75,0.25,127,95.0
5227,D3,302.75,0.25,127,95.0
5228,F#2,302.75,0.25,127,95.0
5229,B-3,303.0,0.25,127,95.0
5230,B-3,303.0,0.25,127,95.0
5231,A5,303.0,0.5,100,95.0
5232,B-2,303.0,0.125,127,95.0
5233,D2,303.0,0.125,127,95.0
5234,D3,303.0,0.125,127,95.0
5235,B-2,303.0,0.125,127,95.0
5236,D2,303.0,0.125,127,95.0
5237,D3,303.0,0.125,127,95.0
5238,D2,303.0,0.25,127,95.0
5239,E2,303.0,0.25,127,95.0
5240,F#2,303.0,0.25,127,95.0
5241,D2,303.0,0.125,127,95.0
5242,D3,303.0,0.125,127,95.0
5243,B-3,303.25,0.25,127,95.0
5244,B-3,303.25,0.25,127,95.0
5245,C2,303.25,0.25,127,95.0
5246,F#2,303.25,0.25,127,95.0
5247,D3,303.5,0.25,127,95.0
5248,D3,303.5,0.25,127,95.0
5249,F#2,303.5,0.25,127,95.0
5250,B-5,303.5,0.5,100,95.0
5251,B-2,303.5,0.125,127,95.0
5252,D2,303.5,0.125,127,95.0
5253,D3,303.5,0.125,127,95.0
5254,B-2,303.5,0.125,127,95.0
5255,D2,303.5,0.125,127,95.0
5256,D3,303.5,0.125,127,95.0
5257,D2,303.5,0.125,127,95.0
5258,D3,303.5,0.125,127,95.0
5259,D3,303.75,0.25,127,95.0
5260,D3,303.75,0.25,127,95.0
5261,F#2,303.75,0.25,127,95.0
5262,F#2,304.0,0.25,127,95.0
5263,C2,304.0,0.25,127,95.0
5264,F#2,304.25,0.25,127,95.0
5265,F#2,304.5,0.25,127,95.0
5266,E-6,304.5,0.5,100,95.0
5267,A2,304.5,0.125,127,95.0
5268,D2,304.5,0.125,127,95.0
5269,D3,304.5,0.125,127,95.0
5270,A2,304.5,0.125,127,95.0
5271,D2,304.5,0.125,127,95.0
5272,D3,304.5,0.125,127,95.0
5273,D2,304.5,0.125,127,95.0
5274,D3,304.5,0.125,127,95.0
5275,F#2,304.75,0.25,127,95.0
5276,C2,304.875,0.125,127,95.0
5277,D6,305.0,0.5,100,95.0
5278,A2,305.0,0.125,127,95.0
5279,D2,305.0,0.125,127,95.0
5280,D3,305.0,0.125,127,95.0
5281,A2,305.0,0.125,127,95.0
5282,D2,305.0,0.125,127,95.0
5283,D3,305.0,0.125,127,95.0
5284,F#2,305.0,0.25,127,95.0
5285,D2,305.0,0.25,127,95.0
5286,E2,305.0,0.25,127,95.0
5287,D2,305.0,0.125,127,95.0
5288,D3,305.0,0.125,127,95.0
5289,F#2,305.25,0.25,127,95.0
5290,F#2,305.5,0.25,127,95.0
5291,F#2,305.75,0.25,127,95.0
5292,D6,306.0,0.5,100,95.0
5293,A2,306.0,0.125,127,95.0
5294,D2,306.0,0.125,127,95.0
5295,D3,306.0,0.125,127,95.0
5296,A2,306.0,0.125,127,95.0
5297,D2,306.0,0.125,127,95.0
5298,D3,306.0,0.125,127,95.0
5299,F#2,306.0,0.25,127,95.0
5300,C2,306.0,0.25,127,95.0
5301,D2,306.0,0.125,127,95.0
5302,D3,306.0,0.125,127,95.0
5303,F#2,306.25,0.25,127,95.0
5304,E-6,306.5,0.5,100,95.0
5305,A2,306.5,0.125,127,95.0
5306,D2,306.5,0.125,127,95.0
5307,D3,306.5,0.125,127,95.0
5308,A2,306.5,0.125,127,95.0
5309,D2,306.5,0.125,127,95.0
5310,D3,306.5,0.125,127,95.0
5311,F#2,306.5,0.25,127,95.0
5312,C2,306.5,0.25,127,95.0
5313,D2,306.5,0.125,127,95.0
5314,D3,306.5,0.125,127,95.0
5315,F#2,306.75,0.25,127,95.0
5316,F#2,307.0,0.25,127,95.0
5317,D2,307.0,0.25,127,95.0
5318,E2,307.0,0.25,127,95.0
5319,F#2,307.25,0.25,127,95.0
5320,F#2,307.5,0.25,127,95.0
5321,E-6,307.5,0.5,100,95.0
5322,A2,307.5,0.125,127,95.0
5323,D2,307.5,0.125,127,95.0
5324,D3,307.5,0.125,127,95.0
5325,A2,307.5,0.125,127,95.0
5326,D2,307.5,0.125,127,95.0
5327,D3,307.5,0.125,127,95.0
5328,D2,307.5,0.125,127,95.0
5329,D3,307.5,0.125,127,95.0
5330,F#2,307.75,0.25,127,95.0
5331,D6,308.0,0.5,100,95.0
5332,A2,308.0,0.125,127,95.0
5333,D2,308.0,0.125,127,95.0
5334,D3,308.0,0.125,127,95.0
5335,A2,308.0,0.125,127,95.0
5336,D2,308.0,0.125,127,95.0
5337,D3,308.0,0.125,127,95.0
5338,C2,308.0,0.25,127,95.0
5339,F#2,308.0,0.25,127,95.0
5340,D2,308.0,0.125,127,95.0
5341,D3,308.0,0.125,127,95.0
5342,F#2,308.25,0.25,127,95.0
5343,F#2,308.5,0.25,127,95.0
5344,C2,308.75,0.25,127,95.0
5345,F#2,308.75,0.25,127,95.0
5346,D6,309.0,0.5,100,95.0
5347,A2,309.0,0.125,127,95.0
5348,D2,309.0,0.125,127,95.0
5349,D3,309.0,0.125,127,95.0
5350,A2,309.0,0.125,127,95.0
5351,D2,309.0,0.125,127,95.0
5352,D3,309.0,0.125,127,95.0
5353,D2,309.0,0.25,127,95.0
5354,E2,309.0,0.25,127,95.0
5355,F#2,309.0,0.25,127,95.0
5356,D2,309.0,0.125,127,95.0
5357,D3,309.0,0.125,127,95.0
5358,F#2,309.25,0.25,127,95.0
5359,F#2,309.5,0.25,127,95.0
5360,E-6,309.5,0.5,100,95.0
5361,A2,309.5,0.125,127,95.0
5362,D2,309.5,0.125,127,95.0
5363,D3,309.5,0.125,127,95.0
5364,A2,309.5,0.125,127,95.0
5365,D2,309.5,0.125,127,95.0
5366,D3,309.5,0.125,127,95.0
5367,D2,309.5,0.125,127,95.0
5368,D3,309.5,0.125,127,95.0
5369,F#2,309.75,0.25,127,95.0
5370,C2,310.0,0.25,127,95.0
5371,F#2,310.0,0.25,127,95.0
5372,F#2,310.25,0.25,127,95.0
5373,D3,310.5,0.25,127,95.0
5374,D3,310.5,0.25,127,95.0
5375,E-6,310.5,0.5,100,95.0
5376,A2,310.5,0.125,127,95.0
5377,D2,310.5,0.125,127,95.0
5378,D3,310.5,0.125,127,95.0
5379,A2,310.5,0.125,127,95.0
5380,D2,310.5,0.125,127,95.0
5381,D3,310.5,0.125,127,95.0
5382,C2,310.5,0.25,127,95.0
5383,F#2,310.5,0.25,127,95.0
5384,D2,310.5,0.125,127,95.0
5385,D3,310.5,0.125,127,95.0
5386,D3,310.75,0.25,127,95.0
5387,D3,310.75,0.25,127,95.0
5388,F#2,310.75,0.25,127,95.0
5389,A3,311.0,0.25,127,95.0
5390,A3,311.0,0.25,127,95.0
5391,D6,311.0,0.5,100,95.0
5392,A2,311.0,0.125,127,95.0
5393,D2,311.0,0.125,127,95.0
5394,D3,311.0,0.125,127,95.0
5395,A2,311.0,0.125,127,95.0
5396,D2,311.0,0.125,127,95.0
5397,D3,311.0,0.125,127,95.0
5398,D2,311.0,0.25,127,95.0
5399,E2,311.0,0.25,127,95.0
5400,F#2,311.0,0.25,127,95.0
5401,D2,311.0,0.125,127,95.0
5402,D3,311.0,0.125,127,95.0
5403,A3,311.25,0.25,127,95.0
5404,A3,311.25,0.25,127,95.0
5405,C2,311.25,0.25,127,95.0
5406,F#2,311.25,0.25,127,95.0
5407,D3,311.5,0.25,127,95.0
5408,D3,311.5,0.25,127,95.0
5409,F#2,311.5,0.25,127,95.0
5410,E-6,311.5,0.5,100,95.0
5411,A2,311.5,0.125,127,95.0
5412,D2,311.5,0.125,127,95.0
5413,D3,311.5,0.125,127,95.0
5414,A2,311.5,0.125,127,95.0
5415,D2,311.5,0.125,127,95.0
5416,D3,311.5,0.125,127,95.0
5417,D2,311.5,0.125,127,95.0
5418,D3,311.5,0.125,127,95.0
5419,D3,311.75,0.25,127,95.0
5420,D3,311.75,0.25,127,95.0
5421,F#2,311.75,0.25,127,95.0
5422,F#2,312.0,0.25,127,95.0
5423,C2,312.0,0.25,127,95.0
5424,F#2,312.25,0.25,127,95.0
5425,F#2,312.5,0.25,127,95.0
5426,B-5,312.5,0.5,100,95.0
5427,B-2,312.5,0.125,127,95.0
5428,D2,312.5,0.125,127,95.0
5429,D3,312.5,0.125,127,95.0
5430,B-2,312.5,0.125,127,95.0
5431,D2,312.5,0.125,127,95.0
5432,D3,312.5,0.125,127,95.0
5433,D2,312.5,0.125,127,95.0
5434,D3,312.5,0.125,127,95.0
5435,F#2,312.75,0.25,127,95.0
5436,C2,312.875,0.125,127,95.0
5437,A5,313.0,0.5,100,95.0
5438,B-2,313.0,0.125,127,95.0
5439,D2,313.0,0.125,127,95.0
5440,D3,313.0,0.125,127,95.0
5441,B-2,313.0,0.125,127,95.0
5442,D2,313.0,0.125,127,95.0
5443,D3,313.0,0.125,127,95.0
5444,F#2,313.0,0.25,127,95.0
5445,D2,313.0,0.25,127,95.0
5446,E2,313.0,0.25,127,95.0
5447,D2,313.0,0.125,127,95.0
5448,D3,313.0,0.125,127,95.0
5449,F#2,313.25,0.25,127,95.0
5450,F#2,313.5,0.25,127,95.0
5451,F#2,313.75,0.25,127,95.0
5452,A5,314.0,0.5,100,95.0
5453,B-2,314.0,0.125,127,95.0
5454,D2,314.0,0.125,127,95.0
5455,D3,314.0,0.125,127,95.0
5456,B-2,314.0,0.125,127,95.0
5457,D2,314.0,0.125,127,95.0
5458,D3,314.0,0.125,127,95.0
5459,F#2,314.0,0.25,127,95.0
5460,C2,314.0,0.25,127,95.0
5461,D2,314.0,0.125,127,95.0
5462,D3,314.0,0.125,127,95.0
5463,F#2,314.25,0.25,127,95.0
5464,B-5,314.5,0.5,100,95.0
5465,B-2,314.5,0.125,127,95.0
5466,D2,314.5,0.125,127,95.0
5467,D3,314.5,0.125,127,95.0
5468,B-2,314.5,0.125,127,95.0
5469,D2,314.5,0.125,127,95.0
5470,D3,314.5,0.125,127,95.0
5471,F#2,314.5,0.25,127,95.0
5472,C2,314.5,0.25,127,95.0
5473,D2,314.5,0.125,127,95.0
5474,D3,314.5,0.125,127,95.0
5475,F#2,314.75,0.25,127,95.0
5476,F#2,315.0,0.25,127,95.0
5477,D2,315.0,0.25,127,95.0
5478,E2,315.0,0.25,127,95.0
5479,F#2,315.25,0.25,127,95.0
5480,F#2,315.5,0.25,127,95.0
5481,B-5,315.5,0.5,100,95.0
5482,B-2,315.5,0.125,127,95.0
5483,D2,315.5,0.125,127,95.0
5484,D3,315.5,0.125,127,95.0
5485,B-2,315.5,0.125,127,95.0
5486,D2,315.5,0.125,127,95.0
5487,D3,315.5,0.125,127,95.0
5488,D2,315.5,0.125,127,95.0
5489,D3,315.5,0.125,127,95.0
5490,F#2,315.75,0.25,127,95.0
5491,A5,316.0,0.5,100,95.0
5492,B-2,316.0,0.125,127,95.0
5493,D2,316.0,0.125,127,95.0
5494,D3,316.0,0.125,127,95.0
5495,B-2,316.0,0.125,127,95.0
5496,D2,316.0,0.125,127,95.0
5497,D3,316.0,0.125,127,95.0
5498,C2,316.0,0.25,127,95.0
5499,F#2,316.0,0.25,127,95.0
5500,D2,316.0,0.125,127,95.0
5501,D3,316.0,0.125,127,95.0
5502,F#2,316.25,0.25,127,95.0
5503,F#2,316.5,0.25,127,95.0
5504,C2,316.75,0.25,127,95.0
5505,F#2,316.75,0.25,127,95.0
5506,A5,317.0,0.5,100,95.0
5507,B-2,317.0,0.125,127,95.0
5508,D2,317.0,0.125,127,95.0
5509,D3,317.0,0.125,127,95.0
5510,B-2,317.0,0.125,127,95.0
5511,D2,317.0,0.125,127,95.0
5512,D3,317.0,0.125,127,95.0
5513,D2,317.0,0.25,127,95.0
5514,E2,317.0,0.25,127,95.0
5515,F#2,317.0,0.25,127,95.0
5516,D2,317.0,0.125,127,95.0
5517,D3,317.0,0.125,127,95.0
5518,F#2,317.25,0.25,127,95.0
5519,F#2,317.5,0.25,127,95.0
5520,B-5,317.5,0.5,100,95.0
5521,B-2,317.5,0.125,127,95.0
5522,D2,317.5,0.125,127,95.0
5523,D3,317.5,0.125,127,95.0
5524,B-2,317.5,0.125,127,95.0
5525,D2,317.5,0.125,127,95.0
5526,D3,317.5,0.125,127,95.0
5527,D2,317.5,0.125,127,95.0
5528,D3,317.5,0.125,127,95.0
5529,F#2,317.75,0.25,127,95.0
5530,C2,318.0,0.25,127,95.0
5531,F#2,318.0,0.25,127,95.0
5532,F#2,318.25,0.25,127,95.0
5533,D3,318.5,0.25,127,95.0
5534,D3,318.5,0.25,127,95.0
5535,B-5,318.5,0.5,100,95.0
5536,B-2,318.5,0.125,127,95.0
5537,D2,318.5,0.125,127,95.0
5538,D3,318.5,0.125,127,95.0
5539,B-2,318.5,0.125,127,95.0
5540,D2,318.5,0.125,127,95.0
5541,D3,318.5,0.125,127,95.0
5542,C2,318.5,0.25,127,95.0
5543,F#2,318.5,0.25,127,95.0
5544,D2,318.5,0.125,127,95.0
5545,D3,318.5,0.125,127,95.0
5546,D3,318.75,0.25,127,95.0
5547,D3,318.75,0.25,127,95.0
5548,F#2,318.75,0.25,127,95.0
5549,B-3,319.0,0.25,127,95.0
5550,B-3,319.0,0.25,127,95.0
5551,A5,319.0,0.5,100,95.0
5552,B-2,319.0,0.125,127,95.0
5553,D2,319.0,0.125,127,95.0
5554,D3,319.0,0.125,127,95.0
5555,B-2,319.0,0.125,127,95.0
5556,D2,319.0,0.125,127,95.0
5557,D3,319.0,0.125,127,95.0
5558,D2,319.0,0.25,127,95.0
5559,E2,319.0,0.25,127,95.0
5560,F#2,319.0,0.25,127,95.0
5561,D2,319.0,0.125,127,95.0
5562,D3,319.0,0.125,127,95.0
5563,B-3,319.25,0.25,127,95.0
5564,B-3,319.25,0.25,127,95.0
5565,C2,319.25,0.25,127,95.0
5566,F#2,319.25,0.25,127,95.0
5567,D3,319.5,0.25,127,95.0
5568,D3,319.5,0.25,127,95.0
5569,F#2,319.5,0.25,127,95.0
5570,B-5,319.5,0.5,100,95.0
5571,B-2,319.5,0.125,127,95.0
5572,D2,319.5,0.125,127,95.0
5573,D3,319.5,0.125,127,95.0
5574,B-2,319.5,0.125,127,95.0
5575,D2,319.5,0.125,127,95.0
5576,D3,319.5,0.125,127,95.0
5577,D2,319.5,0.125,127,95.0
5578,D3,319.5,0.125,127,95.0
5579,D3,319.75,0.25,127,95.0
5580,D3,319.75,0.25,127,95.0
5581,F#2,319.75,0.25,127,95.0
5582,D6,320.0,0.125,127,95.0
5583,F#2,320.0,0.25,127,95.0
5584,C2,320.0,0.25,127,95.0
5585,F#2,320.25,0.25,127,95.0
5586,F6,320.5,0.125,127,95.0
5587,F#2,320.5,0.25,127,95.0
5588,A2,320.5,0.125,127,95.0
5589,D2,320.5,0.125,127,95.0
5590,D3,320.5,0.125,127,95.0
5591,A2,320.5,0.125,127,95.0
5592,D2,320.5,0.125,127,95.0
5593,D3,320.5,0.125,127,95.0
5594,D2,320.5,0.125,127,95.0
5595,D3,320.5,0.125,127,95.0
5596,F#2,320.75,0.25,127,95.0
5597,C2,320.875,0.125,127,95.0
5598,A6,321.0,0.125,127,95.0
5599,A2,321.0,0.125,127,95.0
5600,D2,321.0,0.125,127,95.0
5601,D3,321.0,0.125,127,95.0
5602,A2,321.0,0.125,127,95.0
5603,D2,321.0,0.125,127,95.0
5604,D3,321.0,0.125,127,95.0
5605,F#2,321.0,0.25,127,95.0
5606,D2,321.0,0.25,127,95.0
5607,E2,321.0,0.25,127,95.0
5608,D2,321.0,0.125,127,95.0
5609,D3,321.0,0.125,127,95.0
5610,F#2,321.25,0.25,127,95.0
5611,D6,321.5,0.125,127,95.0
5612,F#2,321.5,0.25,127,95.0
5613,F#2,321.75,0.25,127,95.0
5614,B-6,322.0,0.125,127,95.0
5615,A2,322.0,0.125,127,95.0
5616,D2,322.0,0.125,127,95.0
5617,D3,322.0,0.125,127,95.0
5618,A2,322.0,0.125,127,95.0
5619,D2,322.0,0.125,127,95.0
5620,D3,322.0,0.125,127,95.0
5621,F#2,322.0,0.25,127,95.0
5622,C2,322.0,0.25,127,95.0
5623,D2,322.0,0.125,127,95.0
5624,D3,322.0,0.125,127,95.0
5625,F#2,322.25,0.25,127,95.0
5626,D6,322.5,0.125,127,95.0
5627,A2,322.5,0.125,127,95.0
5628,D2,322.5,0.125,127,95.0
5629,D3,322.5,0.125,127,95.0
5630,A2,322.5,0.125,127,95.0
5631,D2,322.5,0.125,127,95.0
5632,D3,322.5,0.125,127,95.0
5633,F#2,322.5,0.25,127,95.0
5634,C2,322.5,0.25,127,95.0
5635,D2,322.5,0.125,127,95.0
5636,D3,322.5,0.125,127,95.0
5637,F#2,322.75,0.25,127,95.0
5638,A6,323.0,0.125,127,95.0
5639,F#2,323.0,0.25,127,95.0
5640,D2,323.0,0.25,127,95.0
5641,E2,323.0,0.25,127,95.0
5642,F#2,323.25,0.25,127,95.0
5643,F6,323.5,0.125,127,95.0
5644,F#2,323.5,0.25,127,95.0
5645,A2,323.5,0.125,127,95.0
5646,D2,323.5,0.125,127,95.0
5647,D3,323.5,0.125,127,95.0
5648,A2,323.5,0.125,127,95.0
5649,D2,323.5,0.125,127,95.0
5650,D3,323.5,0.125,127,95.0
5651,D2,323.5,0.125,127,95.0
5652,D3,323.5,0.125,127,95.0
5653,F#2,323.75,0.25,127,95.0
5654,D6,324.0,0.125,127,95.0
5655,A2,324.0,0.125,127,95.0
5656,D2,324.0,0.125,127,95.0
5657,D3,324.0,0.125,127,95.0
5658,A2,324.0,0.125,127,95.0
5659,D2,324.0,0.125,127,95.0
5660,D3,324.0,0.125,127,95.0
5661,C2,324.0,0.25,127,95.0
5662,F#2,324.0,0.25,127,95.0
5663,D2,324.0,0.125,127,95.0
5664,D3,324.0,0.125,127,95.0
5665,F#2,324.25,0.25,127,95.0
5666,F6,324.5,0.125,127,95.0
5667,F#2,324.5,0.25,127,95.0
5668,C2,324.75,0.25,127,95.0
5669,F#2,324.75,0.25,127,95.0
5670,A6,325.0,0.125,127,95.0
5671,A2,325.0,0.125,127,95.0
5672,D2,325.0,0.125,127,95.0
5673,D3,325.0,0.125,127,95.0
5674,A2,325.0,0.125,127,95.0
5675,D2,325.0,0.125,127,95.0
5676,D3,325.0,0.125,127,95.0
5677,D2,325.0,0.25,127,95.0
5678,E2,325.0,0.25,127,95.0
5679,F#2,325.0,0.25,127,95.0
5680,D2,325.0,0.125,127,95.0
5681,D3,325.0,0.125,127,95.0
5682,F#2,325.25,0.25,127,95.0
5683,D6,325.5,0.125,127,95.0
5684,F#2,325.5,0.25,127,95.0
5685,A2,325.5,0.125,127,95.0
5686,D2,325.5,0.125,127,95.0
5687,D3,325.5,0.125,127,95.0
5688,A2,325.5,0.125,127,95.0
5689,D2,325.5,0.125,127,95.0
5690,D3,325.5,0.125,127,95.0
5691,D2,325.5,0.125,127,95.0
5692,D3,325.5,0.125,127,95.0
5693,F#2,325.75,0.25,127,95.0
5694,B-6,326.0,0.125,127,95.0
5695,C2,326.0,0.25,127,95.0
5696,F#2,326.0,0.25,127,95.0
5697,F#2,326.25,0.25,127,95.0
5698,D6,326.5,0.125,127,95.0
5699,D3,326.5,0.25,127,95.0
5700,D3,326.5,0.25,127,95.0
5701,A2,326.5,0.125,127,95.0
5702,D2,326.5,0.125,127,95.0
5703,D3,326.5,0.125,127,95.0
5704,A2,326.5,0.125,127,95.0
5705,D2,326.5,0.125,127,95.0
5706,D3,326.5,0.125,127,95.0
5707,C2,326.5,0.25,127,95.0
5708,F#2,326.5,0.25,127,95.0
5709,D2,326.5,0.125,127,95.0
5710,D3,326.5,0.125,127,95.0
5711,D3,326.75,0.25,127,95.0
5712,D3,326.75,0.25,127,95.0
5713,F#2,326.75,0.25,127,95.0
5714,A6,327.0,0.125,127,95.0
5715,A3,327.0,0.25,127,95.0
5716,A3,327.0,0.25,127,95.0
5717,A2,327.0,0.125,127,95.0
5718,D2,327.0,0.125,127,95.0
5719,D3,327.0,0.125,127,95.0
5720,A2,327.0,0.125,127,95.0
5721,D2,327.0,0.125,127,95.0
5722,D3,327.0,0.125,127,95.0
5723,D2,327.0,0.25,127,95.0
5724,E2,327.0,0.25,127,95.0
5725,F#2,327.0,0.25,127,95.0
5726,D2,327.0,0.125,127,95.0
5727,D3,327.0,0.125,127,95.0
5728,A3,327.25,0.25,127,95.0
5729,A3,327.25,0.25,127,95.0
5730,C2,327.25,0.25,127,95.0
5731,F#2,327.25,0.25,127,95.0
5732,F6,327.5,0.125,127,95.0
5733,D3,327.5,0.25,127,95.0
5734,D3,327.5,0.25,127,95.0
5735,F#2,327.5,0.25,127,95.0
5736,A2,327.5,0.125,127,95.0
5737,D2,327.5,0.125,127,95.0
5738,D3,327.5,0.125,127,95.0
5739,A2,327.5,0.125,127,95.0
5740,D2,327.5,0.125,127,95.0
5741,D3,327.5,0.125,127,95.0
5742,D2,327.5,0.125,127,95.0
5743,D3,327.5,0.125,127,95.0
5744,D3,327.75,0.25,127,95.0
5745,D3,327.75,0.25,127,95.0
5746,F#2,327.75,0.25,127,95.0
5747,D6,328.0,0.125,127,95.0
5748,F#2,328.0,0.25,127,95.0
5749,C2,328.0,0.25,127,95.0
5750,F#2,328.25,0.25,127,95.0
5751,F6,328.5,0.125,127,95.0
5752,F#2,328.5,0.25,127,95.0
5753,B-2,328.5,0.125,127,95.0
5754,D2,328.5,0.125,127,95.0
5755,D3,328.5,0.125,127,95.0
5756,B-2,328.5,0.125,127,95.0
5757,D2,328.5,0.125,127,95.0
5758,D3,328.5,0.125,127,95.0
5759,D2,328.5,0.125,127,95.0
5760,D3,328.5,0.125,127,95.0
5761,F#2,328.75,0.25,127,95.0
5762,C2,328.875,0.125,127,95.0
5763,A6,329.0,0.125,127,95.0
5764,B-2,329.0,0.125,127,95.0
5765,D2,329.0,0.125,127,95.0
5766,D3,329.0,0.125,127,95.0
5767,B-2,329.0,0.125,127,95.0
5768,D2,329.0,0.125,127,95.0
5769,D3,329.0,0.125,127,95.0
5770,F#2,329.0,0.25,127,95.0
5771,D2,329.0,0.25,127,95.0
5772,E2,329.0,0.25,127,95.0
5773,D2,329.0,0.125,127,95.0
5774,D3,329.0,0.125,127,95.0
5775,F#2,329.25,0.25,127,95.0
5776,D6,329.5,0.125,127,95.0
5777,F#2,329.5,0.25,127,95.0
5778,F#2,329.75,0.25,127,95.0
5779,C7,330.0,0.125,127,95.0
5780,B-2,330.0,0.125,127,95.0
5781,D2,330.0,0.125,127,95.0
5782,D3,330.0,0.125,127,95.0
5783,B-2,330.0,0.125,127,95.0
5784,D2,330.0,0.125,127,95.0
5785,D3,330.0,0.125,127,95.0
5786,F#2,330.0,0.25,127,95.0
5787,C2,330.0,0.25,127,95.0
5788,D2,330.0,0.125,127,95.0
5789,D3,330.0,0.125,127,95.0
5790,F#2,330.25,0.25,127,95.0
5791,D6,330.5,0.125,127,95.0
5792,B-2,330.5,0.125,127,95.0
5793,D2,330.5,0.125,127,95.0
5794,D3,330.5,0.125,127,95.0
5795,B-2,330.5,0.125,127,95.0
5796,D2,330.5,0.125,127,95.0
5797,D3,330.5,0.125,127,95.0
5798,F#2,330.5,0.25,127,95.0
5799,C2,330.5,0.25,127,95.0
5800,D2,330.5,0.125,127,95.0
5801,D3,330.5,0.125,127,95.0
5802,F#2,330.75,0.25,127,95.0
5803,B-6,331.0,0.125,127,95.0
5804,F#2,331.0,0.25,127,95.0
5805,D2,331.0,0.25,127,95.0
5806,E2,331.0,0.25,127,95.0
5807,F#2,331.25,0.25,127,95.0
5808,A6,331.5,0.125,127,95.0
5809,F#2,331.5,0.25,127,95.0
5810,B-2,331.5,0.125,127,95.0
5811,D2,331.5,0.125,127,95.0
5812,D3,331.5,0.125,127,95.0
5813,B-2,331.5,0.125,127,95.0
5814,D2,331.5,0.125,127,95.0
5815,D3,331.5,0.125,127,95.0
5816,D2,331.5,0.125,127,95.0
5817,D3,331.5,0.125,127,95.0
5818,F#2,331.75,0.25,127,95.0
5819,D6,332.0,0.125,127,95.0
5820,B-2,332.0,0.125,127,95.0
5821,D2,332.0,0.125,127,95.0
5822,D3,332.0,0.125,127,95.0
5823,B-2,332.0,0.125,127,95.0
5824,D2,332.0,0.125,127,95.0
5825,D3,332.0,0.125,127,95.0
5826,C2,332.0,0.25,127,95.0
5827,F#2,332.0,0.25,127,95.0
5828,D2,332.0,0.125,127,95.0
5829,D3,332.0,0.125,127,95.0
5830,F#2,332.25,0.25,127,95.0
5831,F6,332.5,0.125,127,95.0
5832,F#2,332.5,0.25,127,95.0
5833,C2,332.75,0.25,127,95.0
5834,F#2,332.75,0.25,127,95.0
5835,A6,333.0,0.125,127,95.0
5836,B-2,333.0,0.125,127,95.0
5837,D2,333.0,0.125,127,95.0
5838,D3,333.0,0.125,127,95.0
5839,B-2,333.0,0.125,127,95.0
5840,D2,333.0,0.125,127,95.0
5841,D3,333.0,0.125,127,95.0
5842,D2,333.0,0.25,127,95.0
5843,E2,333.0,0.25,127,95.0
5844,F#2,333.0,0.25,127,95.0
5845,D2,333.0,0.125,127,95.0
5846,D3,333.0,0.125,127,95.0
5847,F#2,333.25,0.25,127,95.0
5848,D6,333.5,0.125,127,95.0
5849,F#2,333.5,0.25,127,95.0
5850,B-2,333.5,0.125,127,95.0
5851,D2,333.5,0.125,127,95.0
5852,D3,333.5,0.125,127,95.0
5853,B-2,333.5,0.125,127,95.0
5854,D2,333.5,0.125,127,95.0
5855,D3,333.5,0.125,127,95.0
5856,D2,333.5,0.125,127,95.0
5857,D3,333.5,0.125,127,95.0
5858,F#2,333.75,0.25,127,95.0
5859,C7,334.0,0.125,127,95.0
5860,C2,334.0,0.25,127,95.0
5861,F#2,334.0,0.25,127,95.0
5862,F#2,334.25,0.25,127,95.0
5863,D6,334.5,0.125,127,95.0
5864,D3,334.5,0.25,127,95.0
5865,D3,334.5,0.25,127,95.0
5866,B-2,334.5,0.125,127,95.0
5867,D2,334.5,0.125,127,95.0
5868,D3,334.5,0.125,127,95.0
5869,B-2,334.5,0.125,127,95.0
5870,D2,334.5,0.125,127,95.0
5871,D3,334.5,0.125,127,95.0
5872,C2,334.5,0.25,127,95.0
5873,F#2,334.5,0.25,127,95.0
5874,D2,334.5,0.125,127,95.0
5875,D3,334.5,0.125,127,95.0
5876,D3,334.75,0.25,127,95.0
5877,D3,334.75,0.25,127,95.0
5878,F#2,334.75,0.25,127,95.0
5879,B-6,335.0,0.125,127,95.0
5880,B-3,335.0,0.25,127,95.0
5881,B-3,335.0,0.25,127,95.0
5882,B-2,335.0,0.125,127,95.0
5883,D2,335.0,0.125,127,95.0
5884,D3,335.0,0.125,127,95.0
5885,B-2,335.0,0.125,127,95.0
5886,D2,335.0,0.125,127,95.0
5887,D3,335.0,0.125,127,95.0
5888,D2,335.0,0.25,127,95.0
5889,E2,335.0,0.25,127,95.0
5890,F#2,335.0,0.25,127,95.0
5891,D2,335.0,0.125,127,95.0
5892,D3,335.0,0.125,127,95.0
5893,B-3,335.25,0.25,127,95.0
5894,B-3,335.25,0.25,127,95.0
5895,C2,335.25,0.25,127,95.0
5896,F#2,335.25,0.25,127,95.0
5897,A6,335.5,0.125,127,95.0
5898,D3,335.5,0.25,127,95.0
5899,D3,335.5,0.25,127,95.0
5900,F#2,335.5,0.25,127,95.0
5901,B-2,335.5,0.125,127,95.0
5902,D2,335.5,0.125,127,95.0
5903,D3,335.5,0.125,127,95.0
5904,B-2,335.5,0.125,127,95.0
5905,D2,335.5,0.125,127,95.0
5906,D3,335.5,0.125,127,95.0
5907,D2,335.5,0.125,127,95.0
5908,D3,335.5,0.125,127,95.0
5909,D3,335.75,0.25,127,95.0
5910,D3,335.75,0.25,127,95.0
5911,F#2,335.75,0.25,127,95.0
5912,D6,336.0,0.125,127,95.0
5913,F#2,336.0,0.25,127,95.0
5914,C2,336.0,0.25,127,95.0
5915,F#2,336.25,0.25,127,95.0
5916,F6,336.5,0.125,127,95.0
5917,F#2,336.5,0.25,127,95.0
5918,A2,336.5,0.125,127,95.0
5919,D2,336.5,0.125,127,95.0
5920,D3,336.5,0.125,127,95.0
5921,A2,336.5,0.125,127,95.0
5922,D2,336.5,0.125,127,95.0
5923,D3,336.5,0.125,127,95.0
5924,F#2,336.75,0.25,127,95.0
5925,C2,336.875,0.125,127,95.0
5926,A6,337.0,0.125,127,95.0
5927,A2,337.0,0.125,127,95.0
5928,D2,337.0,0.125,127,95.0
5929,D3,337.0,0.125,127,95.0
5930,A2,337.0,0.125,127,95.0
5931,D2,337.0,0.125,127,95.0
5932,D3,337.0,0.125,127,95.0
5933,F#2,337.0,0.25,127,95.0
5934,D2,337.0,0.25,127,95.0
5935,E2,337.0,0.25,127,95.0
5936,F#2,337.25,0.25,127,95.0
5937,D6,337.5,0.125,127,95.0
5938,F#2,337.5,0.25,127,95.0
5939,F#2,337.75,0.25,127,95.0
5940,B-6,338.0,0.125,127,95.0
5941,A2,338.0,0.125,127,95.0
5942,D2,338.0,0.125,127,95.0
5943,D3,338.0,0.125,127,95.0
5944,A2,338.0,0.125,127,95.0
5945,D2,338.0,0.125,127,95.0
5946,D3,338.0,0.125,127,95.0
5947,F#2,338.0,0.25,127,95.0
5948,C2,338.0,0.25,127,95.0
5949,F#2,338.25,0.25,127,95.0
5950,D6,338.5,0.125,127,95.0
5951,A2,338.5,0.125,127,95.0
5952,D2,338.5,0.125,127,95.0
5953,D3,338.5,0.125,127,95.0
5954,A2,338.5,0.125,127,95.0
5955,D2,338.5,0.125,127,95.0
5956,D3,338.5,0.125,127,95.0
5957,F#2,338.5,0.25,127,95.0
5958,C2,338.5,0.25,127,95.0
5959,F#2,338.75,0.25,127,95.0
5960,A6,339.0,0.125,127,95.0
5961,F#2,339.0,0.25,127,95.0
5962,D2,339.0,0.25,127,95.0
5963,E2,339.0,0.25,127,95.0
5964,F#2,339.25,0.25,127,95.0
5965,F6,339.5,0.125,127,95.0
5966,F#2,339.5,0.25,127,95.0
5967,A2,339.5,0.125,127,95.0
5968,D2,339.5,0.125,127,95.0
5969,D3,339.5,0.125,127,95.0
5970,A2,339.5,0.125,127,95.0
5971,D2,339.5,0.125,127,95.0
5972,D3,339.5,0.125,127,95.0
5973,F#2,339.75,0.25,127,95.0
5974,D6,340.0,0.125,127,95.0
5975,A2,340.0,0.125,127,95.0
5976,D2,340.0,0.125,127,95.0
5977,D3,340.0,0.125,127,95.0
5978,A2,340.0,0.125,127,95.0
5979,D2,340.0,0.125,127,95.0
5980,D3,340.0,0.125,127,95.0
5981,C2,340.0,0.25,127,95.0
5982,F#2,340.0,0.25,127,95.0
5983,F#2,340.25,0.25,127,95.0
5984,F6,340.5,0.125,127,95.0
5985,F#2,340.5,0.25,127,95.0
5986,C2,340.75,0.25,127,95.0
5987,F#2,340.75,0.25,127,95.0
5988,A6,341.0,0.125,127,95.0
5989,A2,341.0,0.125,127,95.0
5990,D2,341.0,0.125,127,95.0
5991,D3,341.0,0.125,127,95.0
5992,A2,341.0,0.125,127,95.0
5993,D2,341.0,0.125,127,95.0
5994,D3,341.0,0.125,127,95.0
5995,D2,341.0,0.25,127,95.0
5996,E2,341.0,0.25,127,95.0
5997,F#2,341.0,0.25,127,95.0
5998,F#2,341.25,0.25,127,95.0
5999,D6,341.5,0.125,127,95.0
6000,F#2,341.5,0.25,127,95.0
6001,A2,341.5,0.125,127,95.0
6002,D2,341.5,0.125,127,95.0
6003,D3,341.5,0.125,127,95.0
6004,A2,341.5,0.125,127,95.0
6005,D2,341.5,0.125,127,95.0
6006,D3,341.5,0.125,127,95.0
6007,F#2,341.75,0.25,127,95.0
6008,B-6,342.0,0.125,127,95.0
6009,C2,342.0,0.25,127,95.0
6010,F#2,342.0,0.25,127,95.0
6011,F#2,342.25,0.25,127,95.0
6012,D6,342.5,0.125,127,95.0
6013,D3,342.5,0.25,127,95.0
6014,D3,342.5,0.25,127,95.0
6015,A2,342.5,0.125,127,95.0
6016,D2,342.5,0.125,127,95.0
6017,D3,342.5,0.125,127,95.0
6018,A2,342.5,0.125,127,95.0
6019,D2,342.5,0.125,127,95.0
6020,D3,342.5,0.125,127,95.0
6021,C2,342.5,0.25,127,95.0
6022,F#2,342.5,0.25,127,95.0
6023,D3,342.75,0.25,127,95.0
6024,D3,342.75,0.25,127,95.0
6025,F#2,342.75,0.25,127,95.0
6026,A6,343.0,0.125,127,95.0
6027,A3,343.0,0.25,127,95.0
6028,A3,343.0,0.25,127,95.0
6029,A2,343.0,0.125,127,95.0
6030,D2,343.0,0.125,127,95.0
6031,D3,343.0,0.125,127,95.0
6032,A2,343.0,0.125,127,95.0
6033,D2,343.0,0.125,127,95.0
6034,D3,343.0,0.125,127,95.0
6035,D2,343.0,0.25,127,95.0
6036,E2,343.0,0.25,127,95.0
6037,F#2,343.0,0.25,127,95.0
6038,A3,343.25,0.25,127,95.0
6039,A3,343.25,0.25,127,95.0
6040,C2,343.25,0.25,127,95.0
6041,F#2,343.25,0.25,127,95.0
6042,F6,343.5,0.125,127,95.0
6043,D3,343.5,0.25,127,95.0
6044,D3,343.5,0.25,127,95.0
6045,F#2,343.5,0.25,127,95.0
6046,A2,343.5,0.125,127,95.0
6047,D2,343.5,0.125,127,95.0
6048,D3,343.5,0.125,127,95.0
6049,A2,343.5,0.125,127,95.0
6050,D2,343.5,0.125,127,95.0
6051,D3,343.5,0.125,127,95.0
6052,D3,343.75,0.25,127,95.0
6053,D3,343.75,0.25,127,95.0
6054,F#2,343.75,0.25,127,95.0
6055,D6,344.0,0.125,127,95.0
6056,F#2,344.0,0.25,127,95.0
6057,C2,344.0,0.25,127,95.0
6058,F#2,344.25,0.25,127,95.0
6059,F6,344.5,0.125,127,95.0
6060,F#2,344.5,0.25,127,95.0
6061,B-2,344.5,0.125,127,95.0
6062,D2,344.5,0.125,127,95.0
6063,D3,344.5,0.125,127,95.0
6064,B-2,344.5,0.125,127,95.0
6065,D2,344.5,0.125,127,95.0
6066,D3,344.5,0.125,127,95.0
6067,F#2,344.75,0.25,127,95.0
6068,C2,344.875,0.125,127,95.0
6069,A6,345.0,0.125,127,95.0
6070,B-2,345.0,0.125,127,95.0
6071,D2,345.0,0.125,127,95.0
6072,D3,345.0,0.125,127,95.0
6073,B-2,345.0,0.125,127,95.0
6074,D2,345.0,0.125,127,95.0
6075,D3,345.0,0.125,127,95.0
6076,F#2,345.0,0.25,127,95.0
6077,D2,345.0,0.25,127,95.0
6078,E2,345.0,0.25,127,95.0
6079,F#2,345.25,0.25,127,95.0
6080,D6,345.5,0.125,127,95.0
6081,F#2,345.5,0.25,127,95.0
6082,F#2,345.75,0.25,127,95.0
6083,C7,346.0,0.125,127,95.0
6084,B-2,346.0,0.125,127,95.0
6085,D2,346.0,0.125,127,95.0
6086,D3,346.0,0.125,127,95.0
6087,B-2,346.0,0.125,127,95.0
6088,D2,346.0,0.125,127,95.0
6089,D3,346.0,0.125,127,95.0
6090,F#2,346.0,0.25,127,95.0
6091,C2,346.0,0.25,127,95.0
6092,F#2,346.25,0.25,127,95.0
6093,D6,346.5,0.125,127,95.0
6094,B-2,346.5,0.125,127,95.0
6095,D2,346.5,0.125,127,95.0
6096,D3,346.5,0.125,127,95.0
6097,B-2,346.5,0.125,127,95.0
6098,D2,346.5,0.125,127,95.0
6099,D3,346.5,0.125,127,95.0
6100,F#2,346.5,0.25,127,95.0
6101,C2,346.5,0.25,127,95.0
6102,F#2,346.75,0.25,127,95.0
6103,B-6,347.0,0.125,127,95.0
6104,F#2,347.0,0.25,127,95.0
6105,D2,347.0,0.25,127,95.0
6106,E2,347.0,0.25,127,95.0
6107,F#2,347.25,0.25,127,95.0
6108,A6,347.5,0.125,127,95.0
6109,F#2,347.5,0.25,127,95.0
6110,B-2,347.5,0.125,127,95.0
6111,D2,347.5,0.125,127,95.0
6112,D3,347.5,0.125,127,95.0
6113,B-2,347.5,0.125,127,95.0
6114,D2,347.5,0.125,127,95.0
6115,D3,347.5,0.125,127,95.0
6116,F#2,347.75,0.25,127,95.0
6117,D6,348.0,0.125,127,95.0
6118,B-2,348.0,0.125,127,95.0
6119,D2,348.0,0.125,127,95.0
6120,D3,348.0,0.125,127,95.0
6121,B-2,348.0,0.125,127,95.0
6122,D2,348.0,0.125,127,95.0
6123,D3,348.0,0.125,127,95.0
6124,C2,348.0,0.25,127,95.0
6125,F#2,348.0,0.25,127,95.0
6126,F#2,348.25,0.25,127,95.0
6127,F6,348.5,0.125,127,95.0
6128,F#2,348.5,0.25,127,95.0
6129,C2,348.75,0.25,127,95.0
6130,F#2,348.75,0.25,127,95.0
6131,A6,349.0,0.125,127,95.0
6132,B-2,349.0,0.125,127,95.0
6133,D2,349.0,0.125,127,95.0
6134,D3,349.0,0.125,127,95.0
6135,B-2,349.0,0.125,127,95.0
6136,D2,349.0,0.125,127,95.0
6137,D3,349.0,0.125,127,95.0
6138,D2,349.0,0.25,127,95.0
6139,E2,349.0,0.25,127,95.0
6140,F#2,349.0,0.25,127,95.0
6141,F#2,349.25,0.25,127,95.0
6142,D6,349.5,0.125,127,95.0
6143,F#2,349.5,0.25,127,95.0
6144,B-2,349.5,0.125,127,95.0
6145,D2,349.5,0.125,127,95.0
6146,D3,349.5,0.125,127,95.0
6147,B-2,349.5,0.125,127,95.0
6148,D2,349.5,0.125,127,95.0
6149,D3,349.5,0.125,127,95.0
6150,F#2,349.75,0.25,127,95.0
6151,C7,350.0,0.125,127,95.0
6152,C2,350.0,0.25,127,95.0
6153,F#2,350.0,0.25,127,95.0
6154,F#2,350.25,0.25,127,95.0
6155,D6,350.5,0.125,127,95.0
6156,D3,350.5,0.25,127,95.0
6157,D3,350.5,0.25,127,95.0
6158,B-2,350.5,0.125,127,95.0
6159,D2,350.5,0.125,127,95.0
6160,D3,350.5,0.125,127,95.0
6161,B-2,350.5,0.125,127,95.0
6162,D2,350.5,0.125,127,95.0
6163,D3,350.5,0.125,127,95.0
6164,C2,350.5,0.25,127,95.0
6165,F#2,350.5,0.25,127,95.0
6166,D3,350.75,0.25,127,95.0
6167,D3,350.75,0.25,127,95.0
6168,F#2,350.75,0.25,127,95.0
6169,B-6,351.0,0.125,127,95.0
6170,B-3,351.0,0.25,127,95.0
6171,B-3,351.0,0.25,127,95.0
6172,B-2,351.0,0.125,127,95.0
6173,D2,351.0,0.125,127,95.0
6174,D3,351.0,0.125,127,95.0
6175,B-2,351.0,0.125,127,95.0
6176,D2,351.0,0.125,127,95.0
6177,D3,351.0,0.125,127,95.0
6178,D2,351.0,0.25,127,95.0
6179,E2,351.0,0.25,127,95.0
6180,F#2,351.0,0.25,127,95.0
6181,B-3,351.25,0.25,127,95.0
6182,B-3,351.25,0.25,127,95.0
6183,C2,351.25,0.25,127,95.0
6184,F#2,351.25,0.25,127,95.0
6185,A6,351.5,0.125,127,95.0
6186,D3,351.5,0.25,127,95.0
6187,D3,351.5,0.25,127,95.0
6188,F#2,351.5,0.25,127,95.0
6189,B-2,351.5,0.125,127,95.0
6190,D2,351.5,0.125,127,95.0
6191,D3,351.5,0.125,127,95.0
6192,B-2,351.5,0.125,127,95.0
6193,D2,351.5,0.125,127,95.0
6194,D3,351.5,0.125,127,95.0
6195,D3,351.75,0.25,127,95.0
6196,D3,351.75,0.25,127,95.0
6197,F#2,351.75,0.25,127,95.0
6198,D6,352.0,0.125,127,95.0
6199,F#2,352.0,0.25,127,95.0
6200,C2,352.0,0.25,127,95.0
6201,F#2,352.25,0.25,127,95.0
6202,F6,352.5,0.125,127,95.0
6203,F#2,352.5,0.25,127,95.0
6204,A2,352.5,0.125,127,95.0
6205,D2,352.5,0.125,127,95.0
6206,D3,352.5,0.125,127,95.0
6207,A2,352.5,0.125,127,95.0
6208,D2,352.5,0.125,127,95.0
6209,D3,352.5,0.125,127,95.0
6210,F#2,352.75,0.25,127,95.0
6211,C2,352.875,0.125,127,95.0
6212,A6,353.0,0.125,127,95.0
6213,A2,353.0,0.125,127,95.0
6214,D2,353.0,0.125,127,95.0
6215,D3,353.0,0.125,127,95.0
6216,A2,353.0,0.125,127,95.0
6217,D2,353.0,0.125,127,95.0
6218,D3,353.0,0.125,127,95.0
6219,F#2,353.0,0.25,127,95.0
6220,D2,353.0,0.25,127,95.0
6221,E2,353.0,0.25,127,95.0
6222,F#2,353.25,0.25,127,95.0
6223,D6,353.5,0.125,127,95.0
6224,F#2,353.5,0.25,127,95.0
6225,F#2,353.75,0.25,127,95.0
6226,B-6,354.0,0.125,127,95.0
6227,A2,354.0,0.125,127,95.0
6228,D2,354.0,0.125,127,95.0
6229,D3,354.0,0.125,127,95.0
6230,A2,354.0,0.125,127,95.0
6231,D2,354.0,0.125,127,95.0
6232,D3,354.0,0.125,127,95.0
6233,F#2,354.0,0.25,127,95.0
6234,C2,354.0,0.25,127,95.0
6235,F#2,354.25,0.25,127,95.0
6236,D6,354.5,0.125,127,95.0
6237,A2,354.5,0.125,127,95.0
6238,D2,354.5,0.125,127,95.0
6239,D3,354.5,0.125,127,95.0
6240,A2,354.5,0.125,127,95.0
6241,D2,354.5,0.125,127,95.0
6242,D3,354.5,0.125,127,95.0
6243,F#2,354.5,0.25,127,95.0
6244,C2,354.5,0.25,127,95.0
6245,F#2,354.75,0.25,127,95.0
6246,A6,355.0,0.125,127,95.0
6247,F#2,355.0,0.25,127,95.0
6248,D2,355.0,0.25,127,95.0
6249,E2,355.0,0.25,127,95.0
6250,F#2,355.25,0.25,127,95.0
6251,F6,355.5,0.125,127,95.0
6252,F#2,355.5,0.25,127,95.0
6253,A2,355.5,0.125,127,95.0
6254,D2,355.5,0.125,127,95.0
6255,D3,355.5,0.125,127,95.0
6256,A2,355.5,0.125,127,95.0
6257,D2,355.5,0.125,127,95.0
6258,D3,355.5,0.125,127,95.0
6259,F#2,355.75,0.25,127,95.0
6260,D6,356.0,0.125,127,95.0
6261,A2,356.0,0.125,127,95.0
6262,D2,356.0,0.125,127,95.0
6263,D3,356.0,0.125,127,95.0
6264,A2,356.0,0.125,127,95.0
6265,D2,356.0,0.125,127,95.0
6266,D3,356.0,0.125,127,95.0
6267,C2,356.0,0.25,127,95.0
6268,F#2,356.0,0.25,127,95.0
6269,F#2,356.25,0.25,127,95.0
6270,F6,356.5,0.125,127,95.0
6271,F#2,356.5,0.25,127,95.0
6272,C2,356.75,0.25,127,95.0
6273,F#2,356.75,0.25,127,95.0
6274,A6,357.0,0.125,127,95.0
6275,A2,357.0,0.125,127,95.0
6276,D2,357.0,0.125,127,95.0
6277,D3,357.0,0.125,127,95.0
6278,A2,357.0,0.125,127,95.0
6279,D2,357.0,0.125,127,95.0
6280,D3,357.0,0.125,127,95.0
6281,D2,357.0,0.25,127,95.0
6282,E2,357.0,0.25,127,95.0
6283,F#2,357.0,0.25,127,95.0
6284,F#2,357.25,0.25,127,95.0
6285,D6,357.5,0.125,127,95.0
6286,F#2,357.5,0.25,127,95.0
6287,A2,357.5,0.125,127,95.0
6288,D2,357.5,0.125,127,95.0
6289,D3,357.5,0.125,127,95.0
6290,A2,357.5,0.125,127,95.0
6291,D2,357.5,0.125,127,95.0
6292,D3,357.5,0.125,127,95.0
6293,F#2,357.75,0.25,127,95.0
6294,B-6,358.0,0.125,127,95.0
6295,C2,358.0,0.25,127,95.0
6296,F#2,358.0,0.25,127,95.0
6297,F#2,358.25,0.25,127,95.0
6298,D6,358.5,0.125,127,95.0
6299,D3,358.5,0.25,127,95.0
6300,D3,358.5,0.25,127,95.0
6301,A2,358.5,0.125,127,95.0
6302,D2,358.5,0.125,127,95.0
6303,D3,358.5,0.125,127,95.0
6304,A2,358.5,0.125,127,95.0
6305,D2,358.5,0.125,127,95.0
6306,D3,358.5,0.125,127,95.0
6307,C2,358.5,0.25,127,95.0
6308,F#2,358.5,0.25,127,95.0
6309,D3,358.75,0.25,127,95.0
6310,D3,358.75,0.25,127,95.0
6311,F#2,358.75,0.25,127,95.0
6312,A6,359.0,0.125,127,95.0
6313,A3,359.0,0.25,127,95.0
6314,A3,359.0,0.25,127,95.0
6315,A2,359.0,0.125,127,95.0
6316,D2,359.0,0.125,127,95.0
6317,D3,359.0,0.125,127,95.0
6318,A2,359.0,0.125,127,95.0
6319,D2,359.0,0.125,127,95.0
6320,D3,359.0,0.125,127,95.0
6321,D2,359.0,0.25,127,95.0
6322,E2,359.0,0.25,127,95.0
6323,F#2,359.0,0.25,127,95.0
6324,A3,359.25,0.25,127,95.0
6325,A3,359.25,0.25,127,95.0
6326,C2,359.25,0.25,127,95.0
6327,F#2,359.25,0.25,127,95.0
6328,F6,359.5,0.125,127,95.0
6329,D3,359.5,0.25,127,95.0
6330,D3,359.5,0.25,127,95.0
6331,F#2,359.5,0.25,127,95.0
6332,A2,359.5,0.125,127,95.0
6333,D2,359.5,0.125,127,95.0
6334,D3,359.5,0.125,127,95.0
6335,A2,359.5,0.125,127,95.0
6336,D2,359.5,0.125,127,95.0
6337,D3,359.5,0.125,127,95.0
6338,D3,359.75,0.25,127,95.0
6339,D3,359.75,0.25,127,95.0
6340,F#2,359.75,0.25,127,95.0
6341,D6,360.0,0.125,127,95.0
6342,F#2,360.0,0.25,127,95.0
6343,C2,360.0,0.25,127,95.0
6344,F#2,360.25,0.25,127,95.0
6345,F6,360.5,0.125,127,95.0
6346,F#2,360.5,0.25,127,95.0
6347,B-2,360.5,0.125,127,95.0
6348,D2,360.5,0.125,127,95.0
6349,D3,360.5,0.125,127,95.0
6350,B-2,360.5,0.125,127,95.0
6351,D2,360.5,0.125,127,95.0
6352,D3,360.5,0.125,127,95.0
6353,F#2,360.75,0.25,127,95.0
6354,C2,360.875,0.125,127,95.0
6355,A6,361.0,0.125,127,95.0
6356,B-2,361.0,0.125,127,95.0
6357,D2,361.0,0.125,127,95.0
6358,D3,361.0,0.125,127,95.0
6359,B-2,361.0,0.125,127,95.0
6360,D2,361.0,0.125,127,95.0
6361,D3,361.0,0.125,127,95.0
6362,F#2,361.0,0.25,127,95.0
6363,D2,361.0,0.25,127,95.0
6364,E2,361.0,0.25,127,95.0
6365,F#2,361.25,0.25,127,95.0
6366,D6,361.5,0.125,127,95.0
6367,F#2,361.5,0.25,127,95.0
6368,F#2,361.75,0.25,127,95.0
6369,C7,362.0,0.125,127,95.0
6370,B-2,362.0,0.125,127,95.0
6371,D2,362.0,0.125,127,95.0
6372,D3,362.0,0.125,127,95.0
6373,B-2,362.0,0.125,127,95.0
6374,D2,362.0,0.125,127,95.0
6375,D3,362.0,0.125,127,95.0
6376,F#2,362.0,0.25,127,95.0
6377,C2,362.0,0.25,127,95.0
6378,F#2,362.25,0.25,127,95.0
6379,D6,362.5,0.125,127,95.0
6380,B-2,362.5,0.125,127,95.0
6381,D2,362.5,0.125,127,95.0
6382,D3,362.5,0.125,127,95.0
6383,B-2,362.5,0.125,127,95.0
6384,D2,362.5,0.125,127,95.0
6385,D3,362.5,0.125,127,95.0
6386,F#2,362.5,0.25,127,95.0
6387,C2,362.5,0.25,127,95.0
6388,F#2,362.75,0.25,127,95.0
6389,B-6,363.0,0.125,127,95.0
6390,A6,363.5,0.125,127,95.0
6391,B-2,363.5,0.125,127,95.0
6392,D2,363.5,0.125,127,95.0
6393,D3,363.5,0.125,127,95.0
6394,B-2,363.5,0.125,127,95.0
6395,D2,363.5,0.125,127,95.0
6396,D3,363.5,0.125,127,95.0
6397,D6,364.0,0.125,127,95.0
6398,B-2,364.0,0.125,127,95.0
6399,D2,364.0,0.125,127,95.0
6400,D3,364.0,0.125,127,95.0
6401,B-2,364.0,0.125,127,95.0
6402,D2,364.0,0.125,127,95.0
6403,D3,364.0,0.125,127,95.0
6404,F6,364.5,0.125,127,95.0
6405,A6,365.0,0.125,127,95.0
6406,B-2,365.0,0.125,127,95.0
6407,D2,365.0,0.125,127,95.0
6408,D3,365.0,0.125,127,95.0
6409,B-2,365.0,0.125,127,95.0
6410,D2,365.0,0.125,127,95.0
6411,D3,365.0,0.125,127,95.0
6412,D6,365.5,0.125,127,95.0
6413,B-2,365.5,0.125,127,95.0
6414,D2,365.5,0.125,127,95.0
6415,D3,365.5,0.125,127,95.0
6416,B-2,365.5,0.125,127,95.0
6417,D2,365.5,0.125,127,95.0
6418,D3,365.5,0.125,127,95.0
6419,C7,366.0,0.125,127,95.0
6420,A3,366.25,0.25,127,95.0
6421,E2,366.25,0.25,127,95.0
6422,D6,366.5,0.125,127,95.0
6423,D3,366.5,0.25,127,95.0
6424,D3,366.5,0.25,127,95.0
6425,B-2,366.5,0.125,127,95.0
6426,D2,366.5,0.125,127,95.0
6427,D3,366.5,0.125,127,95.0
6428,B-2,366.5,0.125,127,95.0
6429,D2,366.5,0.125,127,95.0
6430,D3,366.5,0.125,127,95.0
6431,D3,366.75,0.25,127,95.0
6432,D3,366.75,0.25,127,95.0
6433,C2,366.75,0.25,127,95.0
6434,B-6,367.0,0.125,127,95.0
6435,B-3,367.0,0.25,127,95.0
6436,B-3,367.0,0.25,127,95.0
6437,B-2,367.0,0.125,127,95.0
6438,D2,367.0,0.125,127,95.0
6439,D3,367.0,0.125,127,95.0
6440,B-2,367.0,0.125,127,95.0
6441,D2,367.0,0.125,127,95.0
6442,D3,367.0,0.125,127,95.0
6443,B2,367.0,0.25,127,95.0
6444,E2,367.0,0.25,127,95.0
6445,B-3,367.25,0.25,127,95.0
6446,B-3,367.25,0.25,127,95.0
6447,B2,367.25,0.25,127,95.0
6448,E2,367.25,0.25,127,95.0
6449,A6,367.5,0.125,127,95.0
6450,D3,367.5,0.25,127,95.0
6451,D3,367.5,0.25,127,95.0
6452,B-2,367.5,0.125,127,95.0
6453,D2,367.5,0.125,127,95.0
6454,D3,367.5,0.125,127,95.0
6455,B-2,367.5,0.125,127,95.0
6456,D2,367.5,0.125,127,95.0
6457,D3,367.5,0.125,127,95.0
6458,A2,367.5,0.25,127,95.0
6459,E2,367.5,0.25,127,95.0
6460,D3,367.75,0.25,127,95.0
6461,D3,367.75,0.25,127,95.0
6462,A2,367.75,0.25,127,95.0
6463,E2,367.75,0.25,127,95.0
6464,A3,368.0,1.0,127,95.0
6465,C2,368.0,0.25,127,95.0
6466,D3,368.0,0.5,127,95.0
6467,D2,368.0,0.5,127,95.0
6468,A2,368.5,0.125,127,95.0
6469,D2,368.5,0.125,127,95.0
6470,D3,368.5,0.125,127,95.0
6471,A2,368.5,0.125,127,95.0
6472,D2,368.5,0.125,127,95.0
6473,D3,368.5,0.125,127,95.0
6474,D2,368.5,0.5,127,95.0
6475,D3,368.5,0.5,127,95.0
6476,D4,368.5,0.5,127,95.0
6477,C2,368.75,0.25,127,95.0
6478,A3,369.0,1.0,127,95.0
6479,E2,369.0,0.25,127,95.0
6480,A2,369.0,0.125,127,95.0
6481,D2,369.0,0.125,127,95.0
6482,D3,369.0,0.125,127,95.0
6483,A2,369.0,0.125,127,95.0
6484,D2,369.0,0.125,127,95.0
6485,D3,369.0,0.125,127,95.0
6486,D2,369.0,0.5,127,95.0
6487,D3,369.0,0.5,127,95.0
6488,A4,369.0,0.5,127,95.0
6489,D2,369.5,0.5,127,95.0
6490,D3,369.5,0.5,127,95.0
6491,A3,370.0,1.0,127,95.0
6492,C2,370.0,0.25,127,95.0
6493,A2,370.0,0.125,127,95.0
6494,D2,370.0,0.125,127,95.0
6495,D3,370.0,0.125,127,95.0
6496,A2,370.0,0.125,127,95.0
6497,D2,370.0,0.125,127,95.0
6498,D3,370.0,0.125,127,95.0
6499,D2,370.0,0.5,127,95.0
6500,D3,370.0,0.5,127,95.0
6501,A4,370.0,0.5,127,95.0
6502,C2,370.5,0.25,127,95.0
6503,A2,370.5,0.125,127,95.0
6504,D2,370.5,0.125,127,95.0
6505,D3,370.5,0.125,127,95.0
6506,A2,370.5,0.125,127,95.0
6507,D2,370.5,0.125,127,95.0
6508,D3,370.5,0.125,127,95.0
6509,D2,370.5,0.5,127,95.0
6510,D3,370.5,0.5,127,95.0
6511,D4,370.5,0.5,127,95.0
6512,A3,371.0,1.0,127,95.0
6513,E2,371.0,0.25,127,95.0
6514,D2,371.0,0.5,127,95.0
6515,D3,371.0,0.5,127,95.0
6516,C2,371.5,0.25,127,95.0
6517,A2,371.5,0.125,127,95.0
6518,D2,371.5,0.125,127,95.0
6519,D3,371.5,0.125,127,95.0
6520,A2,371.5,0.125,127,95.0
6521,D2,371.5,0.125,127,95.0
6522,D3,371.5,0.125,127,95.0
6523,D2,371.5,0.5,127,95.0
6524,D3,371.5,0.5,127,95.0
6525,D4,371.5,0.5,127,95.0
6526,A3,372.0,1.0,127,95.0
6527,C2,372.0,0.25,127,95.0
6528,A2,372.0,0.125,127,95.0
6529,D2,372.0,0.125,127,95.0
6530,D3,372.0,0.125,127,95.0
6531,A2,372.0,0.125,127,95.0
6532,D2,372.0,0.125,127,95.0
6533,D3,372.0,0.125,127,95.0
6534,D2,372.0,0.5,127,95.0
6535,D3,372.0,0.5,127,95.0
6536,A4,372.0,0.5,127,95.0
6537,D2,372.5,0.5,127,95.0
6538,D3,372.5,0.5,127,95.0
6539,C2,372.75,0.25,127,95.0
6540,A3,373.0,1.0,127,95.0
6541,E2,373.0,0.25,127,95.0
6542,A2,373.0,0.125,127,95.0
6543,D2,373.0,0.125,127,95.0
6544,D3,373.0,0.125,127,95.0
6545,A2,373.0,0.125,127,95.0
6546,D2,373.0,0.125,127,95.0
6547,D3,373.0,0.125,127,95.0
6548,D2,373.0,0.5,127,95.0
6549,D3,373.0,0.5,127,95.0
6550,A4,373.0,0.5,127,95.0
6551,A2,373.5,0.125,127,95.0
6552,D2,373.5,0.125,127,95.0
6553,D3,373.5,0.125,127,95.0
6554,A2,373.5,0.125,127,95.0
6555,D2,373.5,0.125,127,95.0
6556,D3,373.5,0.125,127,95.0
6557,D2,373.5,0.5,127,95.0
6558,D3,373.5,0.5,127,95.0
6559,D4,373.5,0.5,127,95.0
6560,A3,374.0,1.0,127,95.0
6561,C2,374.0,0.25,127,95.0
6562,D2,374.0,0.5,127,95.0
6563,D3,374.0,0.5,127,95.0
6564,D3,374.5,0.25,127,95.0
6565,D3,374.5,0.25,127,95.0
6566,C2,374.5,0.25,127,95.0
6567,A2,374.5,0.125,127,95.0
6568,D2,374.5,0.125,127,95.0
6569,D3,374.5,0.125,127,95.0
6570,A2,374.5,0.125,127,95.0
6571,D2,374.5,0.125,127,95.0
6572,D3,374.5,0.125,127,95.0
6573,D2,374.5,0.5,127,95.0
6574,D3,374.5,0.5,127,95.0
6575,D4,374.5,0.5,127,95.0
6576,D3,374.75,0.25,127,95.0
6577,D3,374.75,0.25,127,95.0
6578,A3,375.0,0.25,127,95.0
6579,A3,375.0,0.25,127,95.0
6580,A3,375.0,1.0,127,95.0
6581,E2,375.0,0.25,127,95.0
6582,A2,375.0,0.125,127,95.0
6583,D2,375.0,0.125,127,95.0
6584,D3,375.0,0.125,127,95.0
6585,A2,375.0,0.125,127,95.0
6586,D2,375.0,0.125,127,95.0
6587,D3,375.0,0.125,127,95.0
6588,D2,375.0,0.5,127,95.0
6589,D3,375.0,0.5,127,95.0
6590,A4,375.0,0.5,127,95.0
6591,A3,375.25,0.25,127,95.0
6592,A3,375.25,0.25,127,95.0
6593,D3,375.5,0.25,127,95.0
6594,D3,375.5,0.25,127,95.0
6595,A2,375.5,0.125,127,95.0
6596,D2,375.5,0.125,127,95.0
6597,D3,375.5,0.125,127,95.0
6598,A2,375.5,0.125,127,95.0
6599,D2,375.5,0.125,127,95.0
6600,D3,375.5,0.125,127,95.0
6601,D2,375.5,0.5,127,95.0
6602,D3,375.5,0.5,127,95.0
6603,D4,375.5,0.5,127,95.0
6604,D3,375.75,0.25,127,95.0
6605,D3,375.75,0.25,127,95.0
6606,E2,375.75,0.25,127,95.0
6607,A3,376.0,1.0,127,95.0
6608,C2,376.0,0.25,127,95.0
6609,E-2,376.0,0.5,127,95.0
6610,E-3,376.0,0.5,127,95.0
6611,E-4,376.0,0.5,127,95.0
6612,B-2,376.5,0.125,127,95.0
6613,D2,376.5,0.125,127,95.0
6614,D3,376.5,0.125,127,95.0
6615,B-2,376.5,0.125,127,95.0
6616,D2,376.5,0.125,127,95.0
6617,D3,376.5,0.125,127,95.0
6618,E-2,376.5,0.5,127,95.0
6619,E-3,376.5,0.5,127,95.0
6620,E-4,376.5,0.5,127,95.0
6621,C2,376.75,0.25,127,95.0
6622,A3,377.0,1.0,127,95.0
6623,E2,377.0,0.25,127,95.0
6624,B-2,377.0,0.125,127,95.0
6625,D2,377.0,0.125,127,95.0
6626,D3,377.0,0.125,127,95.0
6627,B-2,377.0,0.125,127,95.0
6628,D2,377.0,0.125,127,95.0
6629,D3,377.0,0.125,127,95.0
6630,E-2,377.0,0.5,127,95.0
6631,E-3,377.0,0.5,127,95.0
6632,F4,377.0,0.5,127,95.0
6633,E-2,377.5,0.5,127,95.0
6634,E-3,377.5,0.5,127,95.0
6635,A3,378.0,1.0,127,95.0
6636,C2,378.0,0.25,127,95.0
6637,B-2,378.0,0.125,127,95.0
6638,D2,378.0,0.125,127,95.0
6639,D3,378.0,0.125,127,95.0
6640,B-2,378.0,0.125,127,95.0
6641,D2,378.0,0.125,127,95.0
6642,D3,378.0,0.125,127,95.0
6643,E-2,378.0,0.5,127,95.0
6644,E-3,378.0,0.5,127,95.0
6645,F4,378.0,0.5,127,95.0
6646,C2,378.5,0.25,127,95.0
6647,B-2,378.5,0.125,127,95.0
6648,D2,378.5,0.125,127,95.0
6649,D3,378.5,0.125,127,95.0
6650,B-2,378.5,0.125,127,95.0
6651,D2,378.5,0.125,127,95.0
6652,D3,378.5,0.125,127,95.0
6653,E-2,378.5,0.5,127,95.0
6654,E-3,378.5,0.5,127,95.0
6655,E-4,378.5,0.5,127,95.0
6656,A3,379.0,1.0,127,95.0
6657,E2,379.0,0.25,127,95.0
6658,E-2,379.0,0.5,127,95.0
6659,E-3,379.0,0.5,127,95.0
6660,C2,379.5,0.25,127,95.0
6661,B-2,379.5,0.125,127,95.0
6662,D2,379.5,0.125,127,95.0
6663,D3,379.5,0.125,127,95.0
6664,B-2,379.5,0.125,127,95.0
6665,D2,379.5,0.125,127,95.0
6666,D3,379.5,0.125,127,95.0
6667,E-2,379.5,0.5,127,95.0
6668,E-3,379.5,0.5,127,95.0
6669,E-4,379.5,0.5,127,95.0
6670,A3,380.0,1.0,127,95.0
6671,C2,380.0,0.25,127,95.0
6672,B-2,380.0,0.125,127,95.0
6673,D2,380.0,0.125,127,95.0
6674,D3,380.0,0.125,127,95.0
6675,B-2,380.0,0.125,127,95.0
6676,D2,380.0,0.125,127,95.0
6677,D3,380.0,0.125,127,95.0
6678,F4,380.0,0.5,127,95.0
6679,E-2,380.0,0.5,127,95.0
6680,E-3,380.0,0.5,127,95.0
6681,E-2,380.5,0.5,127,95.0
6682,E-3,380.5,0.5,127,95.0
6683,C2,380.75,0.25,127,95.0
6684,A3,381.0,1.0,127,95.0
6685,E2,381.0,0.25,127,95.0
6686,B-2,381.0,0.125,127,95.0
6687,D2,381.0,0.125,127,95.0
6688,D3,381.0,0.125,127,95.0
6689,B-2,381.0,0.125,127,95.0
6690,D2,381.0,0.125,127,95.0
6691,D3,381.0,0.125,127,95.0
6692,F4,381.0,0.5,127,95.0
6693,E-2,381.0,0.5,127,95.0
6694,E-3,381.0,0.5,127,95.0
6695,B-2,381.5,0.125,127,95.0
6696,D2,381.5,0.125,127,95.0
6697,D3,381.5,0.125,127,95.0
6698,B-2,381.5,0.125,127,95.0
6699,D2,381.5,0.125,127,95.0
6700,D3,381.5,0.125,127,95.0
6701,E-4,381.5,0.5,127,95.0
6702,E-2,381.5,0.5,127,95.0
6703,E-3,381.5,0.5,127,95.0
6704,A3,382.0,1.0,127,95.0
6705,C2,382.0,0.25,127,95.0
6706,E-2,382.0,0.5,127,95.0
6707,E-3,382.0,0.5,127,95.0
6708,D3,382.5,0.25,127,95.0
6709,D3,382.5,0.25,127,95.0
6710,C2,382.5,0.25,127,95.0
6711,B-2,382.5,0.125,127,95.0
6712,D2,382.5,0.125,127,95.0
6713,D3,382.5,0.125,127,95.0
6714,B-2,382.5,0.125,127,95.0
6715,D2,382.5,0.125,127,95.0
6716,D3,382.5,0.125,127,95.0
6717,E-4,382.5,0.5,127,95.0
6718,E-2,382.5,0.5,127,95.0
6719,E-3,382.5,0.5,127,95.0
6720,D3,382.75,0.25,127,95.0
6721,D3,382.75,0.25,127,95.0
6722,B-3,383.0,0.25,127,95.0
6723,B-3,383.0,0.25,127,95.0
6724,A3,383.0,1.0,127,95.0
6725,E2,383.0,0.25,127,95.0
6726,B-2,383.0,0.125,127,95.0
6727,D2,383.0,0.125,127,95.0
6728,D3,383.0,0.125,127,95.0
6729,B-2,383.0,0.125,127,95.0
6730,D2,383.0,0.125,127,95.0
6731,D3,383.0,0.125,127,95.0
6732,F4,383.0,0.5,127,95.0
6733,E-2,383.0,0.5,127,95.0
6734,E-3,383.0,0.5,127,95.0
6735,B-3,383.25,0.25,127,95.0
6736,B-3,383.25,0.25,127,95.0
6737,D3,383.5,0.25,127,95.0
6738,D3,383.5,0.25,127,95.0
6739,B-2,383.5,0.125,127,95.0
6740,D2,383.5,0.125,127,95.0
6741,D3,383.5,0.125,127,95.0
6742,B-2,383.5,0.125,127,95.0
6743,D2,383.5,0.125,127,95.0
6744,D3,383.5,0.125,127,95.0
6745,E-4,383.5,0.5,127,95.0
6746,E-2,383.5,0.5,127,95.0
6747,E-3,383.5,0.5,127,95.0
6748,D3,383.75,0.25,127,95.0
6749,D3,383.75,0.25,127,95.0
6750,E2,383.75,0.25,127,95.0
6751,A3,384.0,1.0,127,95.0
6752,C2,384.0,0.25,127,95.0
6753,D3,384.0,0.5,127,95.0
6754,D2,384.0,0.5,127,95.0
6755,A2,384.5,0.125,127,95.0
6756,D2,384.5,0.125,127,95.0
6757,D3,384.5,0.125,127,95.0
6758,A2,384.5,0.125,127,95.0
6759,D2,384.5,0.125,127,95.0
6760,D3,384.5,0.125,127,95.0
6761,D2,384.5,0.5,127,95.0
6762,D3,384.5,0.5,127,95.0
6763,D4,384.5,0.5,127,95.0
6764,C2,384.75,0.25,127,95.0
6765,A3,385.0,1.0,127,95.0
6766,E2,385.0,0.25,127,95.0
6767,A2,385.0,0.125,127,95.0
6768,D2,385.0,0.125,127,95.0
6769,D3,385.0,0.125,127,95.0
6770,A2,385.0,0.125,127,95.0
6771,D2,385.0,0.125,127,95.0
6772,D3,385.0,0.125,127,95.0
6773,D2,385.0,0.5,127,95.0
6774,D3,385.0,0.5,127,95.0
6775,A4,385.0,0.5,127,95.0
6776,D2,385.5,0.5,127,95.0
6777,D3,385.5,0.5,127,95.0
6778,A3,386.0,1.0,127,95.0
6779,C2,386.0,0.25,127,95.0
6780,A2,386.0,0.125,127,95.0
6781,D2,386.0,0.125,127,95.0
6782,D3,386.0,0.125,127,95.0
6783,A2,386.0,0.125,127,95.0
6784,D2,386.0,0.125,127,95.0
6785,D3,386.0,0.125,127,95.0
6786,D2,386.0,0.5,127,95.0
6787,D3,386.0,0.5,127,95.0
6788,A4,386.0,0.5,127,95.0
6789,C2,386.5,0.25,127,95.0
6790,A2,386.5,0.125,127,95.0
6791,D2,386.5,0.125,127,95.0
6792,D3,386.5,0.125,127,95.0
6793,A2,386.5,0.125,127,95.0
6794,D2,386.5,0.125,127,95.0
6795,D3,386.5,0.125,127,95.0
6796,D2,386.5,0.5,127,95.0
6797,D3,386.5,0.5,127,95.0
6798,D4,386.5,0.5,127,95.0
6799,A3,387.0,1.0,127,95.0
6800,E2,387.0,0.25,127,95.0
6801,D2,387.0,0.5,127,95.0
6802,D3,387.0,0.5,127,95.0
6803,C2,387.5,0.25,127,95.0
6804,A2,387.5,0.125,127,95.0
6805,D2,387.5,0.125,127,95.0
6806,D3,387.5,0.125,127,95.0
6807,A2,387.5,0.125,127,95.0
6808,D2,387.5,0.125,127,95.0
6809,D3,387.5,0.125,127,95.0
6810,D2,387.5,0.5,127,95.0
6811,D3,387.5,0.5,127,95.0
6812,D4,387.5,0.5,127,95.0
6813,A3,388.0,1.0,127,95.0
6814,C2,388.0,0.25,127,95.0
6815,A2,388.0,0.125,127,95.0
6816,D2,388.0,0.125,127,95.0
6817,D3,388.0,0.125,127,95.0
6818,A2,388.0,0.125,127,95.0
6819,D2,388.0,0.125,127,95.0
6820,D3,388.0,0.125,127,95.0
6821,D2,388.0,0.5,127,95.0
6822,D3,388.0,0.5,127,95.0
6823,A4,388.0,0.5,127,95.0
6824,D2,388.5,0.5,127,95.0
6825,D3,388.5,0.5,127,95.0
6826,C2,388.75,0.25,127,95.0
6827,A3,389.0,1.0,127,95.0
6828,E2,389.0,0.25,127,95.0
6829,A2,389.0,0.125,127,95.0
6830,D2,389.0,0.125,127,95.0
6831,D3,389.0,0.125,127,95.0
6832,A2,389.0,0.125,127,95.0
6833,D2,389.0,0.125,127,95.0
6834,D3,389.0,0.125,127,95.0
6835,D2,389.0,0.5,127,95.0
6836,D3,389.0,0.5,127,95.0
6837,A4,389.0,0.5,127,95.0
6838,A2,389.5,0.125,127,95.0
6839,D2,389.5,0.125,127,95.0
6840,D3,389.5,0.125,127,95.0
6841,A2,389.5,0.125,127,95.0
6842,D2,389.5,0.125,127,95.0
6843,D3,389.5,0.125,127,95.0
6844,D2,389.5,0.5,127,95.0
6845,D3,389.5,0.5,127,95.0
6846,D4,389.5,0.5,127,95.0
6847,A3,390.0,1.0,127,95.0
6848,C2,390.0,0.25,127,95.0
6849,D2,390.0,0.5,127,95.0
6850,D3,390.0,0.5,127,95.0
6851,D3,390.5,0.25,127,95.0
6852,D3,390.5,0.25,127,95.0
6853,C2,390.5,0.25,127,95.0
6854,A2,390.5,0.125,127,95.0
6855,D2,390.5,0.125,127,95.0
6856,D3,390.5,0.125,127,95.0
6857,A2,390.5,0.125,127,95.0
6858,D2,390.5,0.125,127,95.0
6859,D3,390.5,0.125,127,95.0
6860,D2,390.5,0.5,127,95.0
6861,D3,390.5,0.5,127,95.0
6862,D4,390.5,0.5,127,95.0
6863,D3,390.75,0.25,127,95.0
6864,D3,390.75,0.25,127,95.0
6865,A3,391.0,0.25,127,95.0
6866,A3,391.0,0.25,127,95.0
6867,A3,391.0,1.0,127,95.0
6868,E2,391.0,0.25,127,95.0
6869,A2,391.0,0.125,127,95.0
6870,D2,391.0,0.125,127,95.0
6871,D3,391.0,0.125,127,95.0
6872,A2,391.0,0.125,127,95.0
6873,D2,391.0,0.125,127,95.0
6874,D3,391.0,0.125,127,95.0
6875,D2,391.0,0.5,127,95.0
6876,D3,391.0,0.5,127,95.0
6877,A4,391.0,0.5,127,95.0
6878,A3,391.25,0.25,127,95.0
6879,A3,391.25,0.25,127,95.0
6880,D3,391.5,0.25,127,95.0
6881,D3,391.5,0.25,127,95.0
6882,A2,391.5,0.125,127,95.0
6883,D2,391.5,0.125,127,95.0
6884,D3,391.5,0.125,127,95.0
6885,A2,391.5,0.125,127,95.0
6886,D2,391.5,0.125,127,95.0
6887,D3,391.5,0.125,127,95.0
6888,D2,391.5,0.5,127,95.0
6889,D3,391.5,0.5,127,95.0
6890,D4,391.5,0.5,127,95.0
6891,D3,391.75,0.25,127,95.0
6892,D3,391.75,0.25,127,95.0
6893,E2,391.75,0.25,127,95.0
6894,A3,392.0,1.0,127,95.0
6895,C2,392.0,0.25,127,95.0
6896,E-2,392.0,0.5,127,95.0
6897,E-3,392.0,0.5,127,95.0
6898,E-4,392.0,0.5,127,95.0
6899,B-2,392.5,0.125,127,95.0
6900,D2,392.5,0.125,127,95.0
6901,D3,392.5,0.125,127,95.0
6902,B-2,392.5,0.125,127,95.0
6903,D2,392.5,0.125,127,95.0
6904,D3,392.5,0.125,127,95.0
6905,E-2,392.5,0.5,127,95.0
6906,E-3,392.5,0.5,127,95.0
6907,E-4,392.5,0.5,127,95.0
6908,C2,392.75,0.25,127,95.0
6909,A3,393.0,1.0,127,95.0
6910,E2,393.0,0.25,127,95.0
6911,B-2,393.0,0.125,127,95.0
6912,D2,393.0,0.125,127,95.0
6913,D3,393.0,0.125,127,95.0
6914,B-2,393.0,0.125,127,95.0
6915,D2,393.0,0.125,127,95.0
6916,D3,393.0,0.125,127,95.0
6917,E-2,393.0,0.5,127,95.0
6918,E-3,393.0,0.5,127,95.0
6919,F4,393.0,0.5,127,95.0
6920,E-2,393.5,0.5,127,95.0
6921,E-3,393.5,0.5,127,95.0
6922,A3,394.0,1.0,127,95.0
6923,C2,394.0,0.25,127,95.0
6924,B-2,394.0,0.125,127,95.0
6925,D2,394.0,0.125,127,95.0
6926,D3,394.0,0.125,127,95.0
6927,B-2,394.0,0.125,127,95.0
6928,D2,394.0,0.125,127,95.0
6929,D3,394.0,0.125,127,95.0
6930,E-2,394.0,0.5,127,95.0
6931,E-3,394.0,0.5,127,95.0
6932,F4,394.0,0.5,127,95.0
6933,C2,394.5,0.25,127,95.0
6934,B-2,394.5,0.125,127,95.0
6935,D2,394.5,0.125,127,95.0
6936,D3,394.5,0.125,127,95.0
6937,B-2,394.5,0.125,127,95.0
6938,D2,394.5,0.125,127,95.0
6939,D3,394.5,0.125,127,95.0
6940,E-2,394.5,0.5,127,95.0
6941,E-3,394.5,0.5,127,95.0
6942,E-4,394.5,0.5,127,95.0
6943,A3,395.0,1.0,127,95.0
6944,E2,395.0,0.25,127,95.0
6945,E-2,395.0,0.5,127,95.0
6946,E-3,395.0,0.5,127,95.0
6947,C2,395.5,0.25,127,95.0
6948,B-2,395.5,0.125,127,95.0
6949,D2,395.5,0.125,127,95.0
6950,D3,395.5,0.125,127,95.0
6951,B-2,395.5,0.125,127,95.0
6952,D2,395.5,0.125,127,95.0
6953,D3,395.5,0.125,127,95.0
6954,E-2,395.5,0.5,127,95.0
6955,E-3,395.5,0.5,127,95.0
6956,E-4,395.5,0.5,127,95.0
6957,A3,396.0,1.0,127,95.0
6958,C2,396.0,0.25,127,95.0
6959,B-2,396.0,0.125,127,95.0
6960,D2,396.0,0.125,127,95.0
6961,D3,396.0,0.125,127,95.0
6962,B-2,396.0,0.125,127,95.0
6963,D2,396.0,0.125,127,95.0
6964,D3,396.0,0.125,127,95.0
6965,F4,396.0,0.5,127,95.0
6966,E-2,396.0,0.5,127,95.0
6967,E-3,396.0,0.5,127,95.0
6968,E-2,396.5,0.5,127,95.0
6969,E-3,396.5,0.5,127,95.0
6970,C2,396.75,0.25,127,95.0
6971,A3,397.0,1.0,127,95.0
6972,E2,397.0,0.25,127,95.0
6973,B-2,397.0,0.125,127,95.0
6974,D2,397.0,0.125,127,95.0
6975,D3,397.0,0.125,127,95.0
6976,B-2,397.0,0.125,127,95.0
6977,D2,397.0,0.125,127,95.0
6978,D3,397.0,0.125,127,95.0
6979,F4,397.0,0.5,127,95.0
6980,E-2,397.0,0.5,127,95.0
6981,E-3,397.0,0.5,127,95.0
6982,E2,397.5,0.5,127,95.0
6983,B-2,397.5,0.125,127,95.0
6984,D2,397.5,0.125,127,95.0
6985,D3,397.5,0.125,127,95.0
6986,B-2,397.5,0.125,127,95.0
6987,D2,397.5,0.125,127,95.0
6988,D3,397.5,0.125,127,95.0
6989,E-4,397.5,0.5,127,95.0
6990,E-2,397.5,0.5,127,95.0
6991,E-3,397.5,0.5,127,95.0
6992,A3,398.0,1.0,127,95.0
6993,C3,398.0,0.25,127,95.0
6994,E2,398.0,0.25,127,95.0
6995,E-2,398.0,0.5,127,95.0
6996,E-3,398.0,0.5,127,95.0
6997,C3,398.25,0.25,127,95.0
6998,E2,398.25,0.25,127,95.0
6999,D3,398.5,0.25,127,95.0
7000,D3,398.5,0.25,127,95.0
7001,B-2,398.5,0.125,127,95.0
7002,D2,398.5,0.125,127,95.0
7003,D3,398.5,0.125,127,95.0
7004,B-2,398.5,0.125,127,95.0
7005,D2,398.5,0.125,127,95.0
7006,D3,398.5,0.125,127,95.0
7007,B2,398.5,0.25,127,95.0
7008,E2,398.5,0.25,127,95.0
7009,E-4,398.5,0.5,127,95.0
7010,E-2,398.5,0.5,127,95.0
7011,E-3,398.5,0.5,127,95.0
7012,D3,398.75,0.25,127,95.0
7013,D3,398.75,0.25,127,95.0
7014,B2,398.75,0.25,127,95.0
7015,E2,398.75,0.25,127,95.0
7016,B-3,399.0,0.25,127,95.0
7017,B-3,399.0,0.25,127,95.0
7018,A3,399.0,1.0,127,95.0
7019,B-2,399.0,0.125,127,95.0
7020,D2,399.0,0.125,127,95.0
7021,D3,399.0,0.125,127,95.0
7022,B-2,399.0,0.125,127,95.0
7023,D2,399.0,0.125,127,95.0
7024,D3,399.0,0.125,127,95.0
7025,A2,399.0,0.25,127,95.0
7026,E2,399.0,0.25,127,95.0
7027,F4,399.0,0.5,127,95.0
7028,E-2,399.0,0.5,127,95.0
7029,E-3,399.0,0.5,127,95.0
7030,B-3,399.25,0.25,127,95.0
7031,B-3,399.25,0.25,127,95.0
7032,A2,399.25,0.25,127,95.0
7033,E2,399.25,0.25,127,95.0
7034,D3,399.5,0.25,127,95.0
7035,D3,399.5,0.25,127,95.0
7036,B-2,399.5,0.125,127,95.0
7037,D2,399.5,0.125,127,95.0
7038,D3,399.5,0.125,127,95.0
7039,B-2,399.5,0.125,127,95.0
7040,D2,399.5,0.125,127,95.0
7041,D3,399.5,0.125,127,95.0
7042,G2,399.5,0.25,127,95.0
7043,E2,399.5,0.25,127,95.0
7044,E-4,399.5,0.5,127,95.0
7045,E-2,399.5,0.5,127,95.0
7046,E-3,399.5,0.5,127,95.0
7047,D3,399.75,0.25,127,95.0
7048,D3,399.75,0.25,127,95.0
7049,G2,399.75,0.25,127,95.0
7050,E2,399.75,0.25,127,95.0
