,note_name,start_time,duration,velocity,tempo
0,E4,2.519,0.463,64,60.0
1,A4,3.012,0.463,65,60.0
2,B4,3.505,0.465,64,60.0
3,C#5,4.004,1.518,69,60.0
4,A3,4.004,0.499,69,60.0
5,E4,4.533,0.466,64,60.0
6,A4,5.029,0.99,65,60.0
7,E5,5.522,0.468,64,60.0
8,B4,6.021,1.483,67,60.0
9,G#3,6.021,0.468,67,60.0
10,E4,6.519,0.463,64,60.0
11,G#4,7.012,0.987,65,60.0
12,E5,7.505,0.465,64,60.0
13,A4,8.004,2.016,69,60.0
14,F#3,8.004,0.499,69,60.0
15,C#4,8.533,0.466,64,60.0
16,F#4,9.029,2.97,65,60.0
17,G#4,9.522,0.468,64,60.0
18,A4,10.021,0.497,67,60.0
19,A4,10.519,0.463,64,60.0
20,D5,11.012,0.463,65,60.0
21,E5,11.505,0.465,64,60.0
22,A4,11.838,0.162,61,60.0
23,D5,11.921,0.079,61,60.0
24,A4,12.0,1.521,61,60.0
25,D5,12.0,1.521,61,60.0
26,F#5,12.004,1.518,75,60.0
27,D3,12.004,0.499,69,60.0
28,A3,12.533,0.466,64,60.0
29,D4,13.029,0.463,65,60.0
30,A5,13.522,0.497,64,60.0
31,A3,13.522,0.497,64,60.0
32,E5,14.021,1.483,67,60.0
33,A3,14.021,0.468,67,60.0
34,E4,14.519,0.463,64,60.0
35,A4,15.012,0.463,65,60.0
36,C#5,15.505,0.465,64,60.0
37,E4,15.505,0.465,64,60.0
38,D5,16.004,2.016,69,60.0
39,E3,16.004,0.499,69,60.0
40,B3,16.533,0.466,64,60.0
41,E4,17.029,2.97,65,60.0
42,D5,18.021,0.468,67,60.0
43,C#5,18.519,0.463,64,60.0
44,B4,19.012,0.463,65,60.0
45,A4,19.505,0.465,64,60.0
46,F#4,20.004,2.016,69,60.0
47,D3,20.004,1.024,69,60.0
48,A3,21.029,0.99,65,60.0
49,D3,21.854,2.145,59,60.0
50,A3,21.938,2.062,59,60.0
51,F#4,22.021,0.468,67,60.0
52,D4,22.021,1.979,73,60.0
53,G#4,22.519,0.463,64,60.0
54,A4,23.012,0.463,65,60.0
55,B4,23.505,0.494,64,60.0
56,B4,24.004,2.016,69,60.0
57,E3,24.004,0.499,69,60.0
58,B3,24.533,0.466,64,60.0
59,E4,25.029,0.463,65,60.0
60,B3,25.522,0.497,64,60.0
61,E3,25.854,2.145,59,60.0
62,B3,25.938,2.062,59,60.0
63,B4,26.021,0.468,67,60.0
64,E4,26.021,1.979,73,60.0
65,C#5,26.519,0.463,64,60.0
66,D5,27.012,0.463,65,60.0
67,E5,27.505,0.465,64,60.0
68,D5,28.004,1.024,69,60.0
69,A3,28.004,0.499,69,60.0
70,E4,28.533,0.466,64,60.0
71,C#5,29.029,1.981,65,60.0
72,A4,29.029,0.99,65,60.0
73,E3,30.021,1.979,67,60.0
74,A4,31.012,0.463,65,60.0
75,G#4,31.505,0.465,64,60.0
76,F#4,32.004,2.016,69,60.0
77,D2,32.004,0.499,68,60.0
78,A2,32.533,0.466,64,60.0
79,D3,33.029,0.463,65,60.0
80,F#3,33.522,0.468,64,60.0
81,G#4,34.021,1.979,67,60.0
82,E2,34.021,0.468,66,60.0
83,E3,34.519,0.463,64,60.0
84,A3,35.012,0.463,65,60.0
85,B3,35.505,0.465,64,60.0
86,C#4,36.004,1.518,69,60.0
87,A2,36.004,0.499,69,60.0
88,E3,36.533,0.466,64,60.0
89,A3,37.029,0.99,65,60.0
90,E4,37.522,0.468,64,60.0
91,B3,38.021,1.483,67,60.0
92,G#2,38.021,0.468,67,60.0
93,E3,38.519,0.463,64,60.0
94,G#3,39.012,0.987,65,60.0
95,E4,39.505,0.465,64,60.0
96,A3,40.004,2.016,69,60.0
97,F#2,40.004,0.499,69,60.0
98,C#3,40.533,0.466,64,60.0
99,F#3,41.029,2.97,65,60.0
100,G#3,41.522,0.468,64,60.0
101,A3,42.021,0.497,67,60.0
102,A3,42.519,0.463,64,60.0
103,D4,43.012,0.463,65,60.0
104,E4,43.505,0.465,64,60.0
105,A3,43.838,0.162,61,60.0
106,D4,43.921,0.079,61,60.0
107,A3,44.0,1.521,61,60.0
108,D4,44.0,1.521,61,60.0
109,F#4,44.004,1.518,75,60.0
110,D2,44.004,0.499,68,60.0
111,A2,44.533,0.466,64,60.0
112,D3,45.029,0.463,65,60.0
113,A4,45.522,0.497,64,60.0
114,A2,45.522,0.497,64,60.0
115,E4,46.021,1.483,67,60.0
116,A2,46.021,0.468,67,60.0
117,E3,46.519,0.463,64,60.0
118,A3,47.012,0.463,65,60.0
119,C#4,47.505,0.465,64,60.0
120,E3,47.505,0.465,64,60.0
121,D4,48.004,2.016,69,60.0
122,E2,48.004,0.499,68,60.0
123,B2,48.533,0.466,64,60.0
124,E3,49.029,0.463,65,60.0
125,F#3,49.522,0.468,64,60.0
126,E2,49.854,2.145,58,60.0
127,B2,49.938,2.062,59,60.0
128,D4,50.021,0.468,67,60.0
129,G#3,50.021,1.979,73,60.0
130,C#4,50.519,0.463,64,60.0
131,B3,51.012,0.463,65,60.0
132,A3,51.505,0.465,64,60.0
133,F#3,52.004,2.016,69,60.0
134,D2,52.004,0.499,68,60.0
135,A2,52.533,0.466,64,60.0
136,D3,53.029,0.463,65,60.0
137,E3,53.522,0.468,64,60.0
138,D2,53.854,2.145,58,60.0
139,A2,53.938,2.062,59,60.0
140,F#3,54.021,0.468,67,60.0
141,D3,54.021,1.979,73,60.0
142,G#3,54.519,0.463,64,60.0
143,A3,55.012,0.463,65,60.0
144,B3,55.505,0.465,64,60.0
145,D4,56.004,2.016,69,60.0
146,E2,56.004,0.499,68,60.0
147,B2,56.533,0.466,64,60.0
148,E3,57.029,0.463,65,60.0
149,B2,57.522,0.497,64,60.0
150,D4,57.854,1.156,59,60.0
151,E2,57.854,2.145,58,60.0
152,A4,57.938,1.073,59,60.0
153,B2,57.938,2.062,59,60.0
154,D5,58.021,0.99,73,60.0
155,E3,58.021,1.979,73,60.0
156,C#4,59.012,0.987,64,60.0
157,C#5,59.012,0.987,64,60.0
158,B3,59.838,0.162,61,60.0
159,E4,59.921,0.079,61,60.0
160,B3,60.0,1.99,61,60.0
161,E4,60.0,2.02,61,60.0
162,B4,60.004,2.016,75,60.0
163,A2,60.004,0.499,69,60.0
164,E3,60.533,0.466,64,60.0
165,A3,61.029,0.463,65,60.0
166,B3,61.522,0.497,64,60.0
167,C#4,61.854,0.634,59,60.0
168,A2,61.854,2.145,59,60.0
169,E4,61.938,0.551,59,60.0
170,E3,61.938,2.062,59,60.0
171,C#5,62.021,0.497,73,60.0
172,A3,62.021,1.979,73,60.0
173,D4,62.519,0.492,63,60.0
174,D5,62.519,0.492,63,60.0
175,E4,63.012,0.492,64,60.0
176,E5,63.012,0.492,64,60.0
177,D4,63.505,0.494,63,60.0
178,D5,63.505,0.494,63,60.0
179,A2,64.004,0.499,69,60.0
180,C#4,64.004,1.024,66,60.0
181,E4,64.004,1.024,66,60.0
182,C#5,64.004,1.024,66,60.0
183,E3,64.533,0.466,64,60.0
184,A3,65.029,0.463,65,60.0
185,E4,65.029,0.99,62,60.0
186,B4,65.029,0.99,62,60.0
187,E5,65.029,0.99,62,60.0
188,B3,65.522,0.468,64,60.0
189,A3,66.021,0.468,67,60.0
190,A4,66.021,0.99,64,60.0
191,E5,66.021,0.99,64,60.0
192,A5,66.021,0.99,64,60.0
193,E3,66.519,0.463,64,60.0
194,A2,67.012,0.463,65,60.0
195,B4,67.012,0.987,62,60.0
196,E5,67.012,0.987,62,60.0
197,B5,67.012,0.987,62,60.0
198,G#2,67.505,0.465,64,60.0
199,C#5,67.838,0.162,61,60.0
200,E5,67.921,0.079,61,60.0
201,C#5,68.0,1.028,61,60.0
202,E5,68.0,1.028,61,60.0
203,C#6,68.004,1.024,75,60.0
204,D2,68.004,0.499,68,60.0
205,A2,68.533,0.466,64,60.0
206,D3,69.029,0.99,65,60.0
207,B4,69.029,0.492,64,60.0
208,B5,69.029,0.492,64,60.0
209,A4,69.522,0.497,63,60.0
210,A5,69.522,0.497,63,60.0
211,E2,70.021,0.468,66,60.0
212,G#4,70.021,0.99,66,60.0
213,G#5,70.021,0.99,66,60.0
214,B2,70.519,0.463,64,60.0
215,F#4,71.012,0.987,64,60.0
216,F#5,71.012,0.987,64,60.0
217,E3,71.012,0.987,64,60.0
218,A2,72.004,0.499,69,60.0
219,F#4,72.004,1.024,68,60.0
220,F#5,72.004,1.024,68,60.0
221,E3,72.533,0.466,64,60.0
222,A3,73.029,0.463,65,60.0
223,E4,73.029,1.981,64,60.0
224,E5,73.029,1.981,64,60.0
225,B3,73.522,0.468,64,60.0
226,C#4,74.021,0.468,67,60.0
227,B3,74.519,0.463,64,60.0
228,A4,75.012,0.463,64,60.0
229,A5,75.012,0.463,64,60.0
230,E3,75.012,0.463,64,60.0
231,B4,75.505,0.465,63,60.0
232,B5,75.505,0.465,63,60.0
233,A2,75.505,0.465,63,60.0
234,D2,76.004,0.499,68,60.0
235,C#5,76.004,1.024,66,60.0
236,E5,76.004,1.024,66,60.0
237,C#6,76.004,1.024,66,60.0
238,A2,76.533,0.466,64,60.0
239,D3,77.029,0.99,65,60.0
240,B4,77.029,0.492,64,60.0
241,B5,77.029,0.492,64,60.0
242,A4,77.522,0.497,63,60.0
243,A5,77.522,0.497,63,60.0
244,E-2,78.021,0.468,66,60.0
245,B4,78.021,0.99,66,60.0
246,B5,78.021,0.99,66,60.0
247,B2,78.519,0.463,64,60.0
248,E-5,79.012,0.987,64,60.0
249,E-6,79.012,0.987,64,60.0
250,E-3,79.012,0.987,64,60.0
251,E5,79.838,0.162,56,60.0
252,B5,79.921,0.079,56,60.0
253,E5,80.0,3.999,56,60.0
254,B5,80.0,3.999,56,60.0
255,E6,80.004,3.995,70,60.0
256,E2,80.004,0.499,68,60.0
257,B2,80.533,0.466,64,60.0
258,E3,81.029,0.463,65,60.0
259,F#3,81.522,0.468,64,60.0
260,E3,81.854,2.145,59,60.0
261,G#3,81.938,2.062,59,60.0
262,B3,82.021,1.979,73,60.0
263,D6,83.838,0.162,61,60.0
264,D5,83.879,0.121,56,60.0
265,A6,83.921,0.079,61,60.0
266,D6,84.0,0.503,61,60.0
267,D5,84.0,1.99,56,60.0
268,A6,84.0,3.999,61,60.0
269,D7,84.004,0.528,72,60.0
270,A5,84.004,0.528,72,60.0
271,A5,84.533,0.466,64,60.0
272,F#5,85.029,0.463,65,60.0
273,D5,85.522,2.477,64,60.0
274,A4,86.021,0.468,67,60.0
275,F#4,86.519,0.463,64,60.0
276,D4,87.012,0.463,65,60.0
277,A3,87.505,0.494,64,60.0
278,A3,88.004,2.016,69,60.0
279,E2,88.004,0.499,68,60.0
280,B2,88.533,0.466,64,60.0
281,E3,89.029,0.463,65,60.0
282,G#3,89.522,0.966,64,60.0
283,A3,90.021,0.468,67,60.0
284,E2,90.353,1.605,56,60.0
285,G#3,90.353,1.605,56,60.0
286,B2,90.436,1.563,56,60.0
287,B3,90.519,1.48,70,60.0
288,E3,90.519,1.48,70,60.0
289,E6,91.816,0.184,56,60.0
290,E5,91.816,0.184,56,60.0
291,G#6,91.879,0.121,56,60.0
292,G#5,91.879,0.121,56,60.0
293,B6,91.941,0.059,56,60.0
294,B6,92.0,4.0,56,60.0
295,E6,92.0,4.0,56,60.0
296,E5,92.0,4.0,56,60.0
297,G#6,92.0,4.0,56,60.0
298,G#5,92.0,4.0,56,60.0
299,E7,92.004,3.996,68,60.0
300,B5,92.004,3.996,68,60.0
301,B6,96.0,2.02,56,60.0
302,E6,96.0,1.998,56,60.0
303,E5,96.0,1.998,56,60.0
304,G#6,96.0,1.978,56,60.0
305,G#5,96.0,1.978,56,60.0
306,E7,96.0,2.02,68,60.0
307,B5,96.0,2.02,68,60.0
308,E5,98.519,0.463,64,60.0
309,A5,99.012,0.463,65,60.0
310,B5,99.505,0.465,64,60.0
311,C#6,100.004,1.518,69,60.0
312,A4,100.004,0.499,69,60.0
313,E5,100.533,0.466,64,60.0
314,A5,101.029,0.99,65,60.0
315,E6,101.522,0.468,64,60.0
316,B5,102.021,1.483,67,60.0
317,G#4,102.021,0.468,67,60.0
318,E5,102.519,0.463,64,60.0
319,G#5,103.012,0.987,65,60.0
320,E6,103.505,0.465,64,60.0
321,A5,104.004,2.016,69,60.0
322,F#4,104.004,0.499,69,60.0
323,C#5,104.533,0.466,64,60.0
324,F#5,105.029,2.97,65,60.0
325,G#5,105.522,0.468,64,60.0
326,A5,106.021,0.497,67,60.0
327,A5,106.519,0.463,64,60.0
328,D6,107.012,0.463,65,60.0
329,E6,107.505,0.465,64,60.0
330,A5,107.838,0.162,61,60.0
331,D6,107.921,0.079,61,60.0
332,A5,108.0,1.521,61,60.0
333,D6,108.0,1.521,61,60.0
334,F#6,108.004,1.518,75,60.0
335,D4,108.004,0.499,69,60.0
336,A4,108.533,0.466,64,60.0
337,D5,109.029,0.463,65,60.0
338,A6,109.522,0.497,64,60.0
339,A4,109.522,0.497,64,60.0
340,A5,109.854,1.62,59,60.0
341,C#6,109.938,1.566,59,60.0
342,E6,110.021,0.961,73,60.0
343,A4,110.021,0.468,67,60.0
344,E5,110.519,0.985,64,60.0
345,A5,111.012,0.492,65,60.0
346,C#6,111.505,0.465,64,60.0
347,E5,111.505,0.465,64,60.0
348,G#5,111.838,0.162,61,60.0
349,B5,111.921,0.079,61,60.0
350,G#5,112.0,2.02,61,60.0
351,B5,112.0,2.02,61,60.0
352,D6,112.004,2.016,71,60.0
353,E4,112.004,0.499,69,60.0
354,B4,112.533,0.466,64,60.0
355,E5,113.029,0.463,65,60.0
356,F#5,113.522,0.468,64,60.0
357,G#5,113.854,0.634,59,60.0
358,E4,113.854,2.145,59,60.0
359,B5,113.938,0.58,59,60.0
360,B4,113.938,2.062,59,60.0
361,D6,114.021,0.497,69,60.0
362,E5,114.021,1.979,73,60.0
363,C#6,114.519,0.463,64,60.0
364,B5,115.012,0.463,65,60.0
365,A5,115.505,0.465,64,60.0
366,F#5,116.004,2.016,69,60.0
367,D4,116.004,0.499,69,60.0
368,A4,116.533,0.466,64,60.0
369,D5,117.029,0.463,65,60.0
370,A4,117.522,0.497,64,60.0
371,D4,117.854,2.145,59,60.0
372,A4,117.938,2.062,59,60.0
373,F#5,118.021,0.468,67,60.0
374,D5,118.021,1.979,73,60.0
375,G#5,118.519,0.463,64,60.0
376,A5,119.012,0.463,65,60.0
377,B5,119.505,0.494,64,60.0
378,B5,120.004,0.995,69,60.0
379,E4,120.004,0.499,69,60.0
380,B4,120.533,1.457,64,60.0
381,E5,121.029,0.463,65,60.0
382,B4,121.522,0.497,64,60.0
383,G#5,121.854,0.634,59,60.0
384,B5,121.938,0.551,59,60.0
385,E6,122.021,0.497,73,60.0
386,E4,122.021,1.979,67,60.0
387,F4,122.519,0.492,63,60.0
388,F5,122.519,0.492,63,60.0
389,B-4,123.012,0.492,64,60.0
390,B-5,123.012,0.492,64,60.0
391,C5,123.505,0.494,63,60.0
392,C6,123.505,0.494,63,60.0
393,D5,123.838,0.162,61,60.0
394,G5,123.921,0.079,61,60.0
395,D5,124.0,1.521,61,60.0
396,G5,124.0,1.521,61,60.0
397,D6,124.004,1.518,75,60.0
398,B-2,124.004,0.499,69,60.0
399,F3,124.533,0.466,64,60.0
400,B-3,125.029,0.463,65,60.0
401,F5,125.522,0.468,63,60.0
402,F6,125.522,0.468,63,60.0
403,F3,125.522,0.468,63,60.0
404,C5,125.854,1.649,59,60.0
405,E-5,125.938,1.566,59,60.0
406,C6,126.021,1.483,73,60.0
407,A2,126.021,0.468,67,60.0
408,F3,126.519,0.463,64,60.0
409,A3,127.012,0.463,65,60.0
410,F5,127.505,0.465,63,60.0
411,F6,127.505,0.465,63,60.0
412,F3,127.505,0.465,63,60.0
413,B-4,127.838,0.162,61,60.0
414,D5,127.921,0.079,61,60.0
415,B-4,128.0,2.02,61,60.0
416,D5,128.0,2.02,61,60.0
417,B-5,128.004,2.016,75,60.0
418,G2,128.004,0.499,69,60.0
419,D3,128.533,0.466,64,60.0
420,G3,129.029,0.463,65,60.0
421,A3,129.522,0.468,64,60.0
422,B-3,130.021,0.468,67,60.0
423,B-4,130.519,0.463,63,60.0
424,B-5,130.519,0.463,63,60.0
425,G3,130.519,0.463,63,60.0
426,E-5,131.012,0.463,64,60.0
427,E-6,131.012,0.463,64,60.0
428,D3,131.012,0.463,64,60.0
429,F5,131.505,0.465,63,60.0
430,F6,131.505,0.465,63,60.0
431,G2,131.505,0.465,63,60.0
432,G5,131.838,0.162,61,60.0
433,C6,131.921,0.079,61,60.0
434,G5,132.0,1.521,61,60.0
435,C6,132.0,1.521,61,60.0
436,G6,132.004,1.518,75,60.0
437,E-2,132.004,0.499,68,60.0
438,B-2,132.533,0.466,64,60.0
439,E-3,133.029,0.463,65,60.0
440,B-5,133.522,0.497,63,60.0
441,B-6,133.522,0.497,63,60.0
442,B-2,133.522,0.497,63,60.0
443,F5,133.854,1.649,59,60.0
444,B-5,133.938,1.566,59,60.0
445,F6,134.021,1.483,73,60.0
446,B-2,134.021,0.468,67,60.0
447,F3,134.519,0.463,64,60.0
448,B-3,135.012,0.463,65,60.0
449,D5,135.505,0.465,63,60.0
450,D6,135.505,0.465,63,60.0
451,F3,135.505,0.465,63,60.0
452,E-5,135.838,0.162,61,60.0
453,G5,135.921,0.079,61,60.0
454,E-5,136.0,2.02,61,60.0
455,G5,136.0,2.02,61,60.0
456,E-6,136.004,2.016,75,60.0
457,F2,136.004,0.499,69,60.0
458,C3,136.533,0.466,64,60.0
459,F3,137.029,0.463,65,60.0
460,G3,137.522,0.468,64,60.0
461,E-5,137.854,0.634,59,60.0
462,G5,137.938,0.551,59,60.0
463,E-6,138.021,0.497,73,60.0
464,F3,138.021,1.979,66,60.0
465,A3,138.021,1.979,66,60.0
466,D5,138.519,0.492,63,60.0
467,D6,138.519,0.492,63,60.0
468,C5,139.012,0.492,64,60.0
469,C6,139.012,0.492,64,60.0
470,B-4,139.505,0.494,63,60.0
471,B-5,139.505,0.494,63,60.0
472,G4,139.838,0.162,61,60.0
473,B-4,139.921,0.079,61,60.0
474,G4,140.0,2.02,61,60.0
475,B-4,140.0,2.02,61,60.0
476,G5,140.004,2.016,75,60.0
477,E-2,140.004,0.499,68,60.0
478,B-2,140.533,0.466,64,60.0
479,E-3,141.029,0.463,65,60.0
480,F3,141.522,0.468,64,60.0
481,G4,141.854,0.634,59,60.0
482,E-2,141.854,2.145,58,60.0
483,B-4,141.938,0.551,59,60.0
484,B-2,141.938,2.062,59,60.0
485,G5,142.021,0.497,73,60.0
486,E-3,142.021,1.979,73,60.0
487,A4,142.519,0.492,63,60.0
488,A5,142.519,0.492,63,60.0
489,B-4,143.012,0.492,64,60.0
490,B-5,143.012,0.492,64,60.0
491,C5,143.505,0.494,63,60.0
492,C6,143.505,0.494,63,60.0
493,E-5,143.838,0.162,61,60.0
494,G5,143.921,0.079,61,60.0
495,E-5,144.0,2.02,61,60.0
496,G5,144.0,2.02,61,60.0
497,E-6,144.004,2.016,75,60.0
498,F2,144.004,0.499,69,60.0
499,C3,144.533,0.466,64,60.0
500,F3,145.029,0.463,65,60.0
501,G3,145.522,0.468,64,60.0
502,F5,145.854,1.925,59,60.0
503,B-5,145.938,1.842,59,60.0
504,F6,146.021,1.759,73,60.0
505,F3,146.021,1.979,66,60.0
506,A3,146.021,1.979,66,60.0
507,B-3,148.004,0.499,69,60.0
508,B-2,148.004,3.5,63,60.0
509,F3,148.004,3.5,63,60.0
510,F4,148.533,0.466,64,60.0
511,B-4,149.029,0.463,65,60.0
512,F5,149.522,0.468,64,60.0
513,B-5,150.021,0.468,67,60.0
514,C6,150.519,0.463,64,60.0
515,D6,151.012,0.987,65,60.0
516,B-4,151.505,0.495,64,60.0
517,B-4,152.0,0.532,64,60.0
518,F4,152.408,3.592,56,60.0
519,F5,152.533,0.113,64,60.0
520,B-4,152.533,3.467,66,60.0
521,B-5,152.654,0.114,64,60.0
522,C6,152.776,0.115,64,60.0
523,F6,152.899,0.122,64,60.0
524,C6,153.029,0.122,65,60.0
525,B-5,153.159,0.114,64,60.0
526,F5,153.281,2.719,64,60.0
527,F4,156.0,3.999,56,60.0
528,F5,156.0,3.999,64,60.0
529,B-4,156.0,3.999,66,60.0
