,note_name,start_time,duration,velocity,tempo
0,G5,0.0,0.25,60,111.0
1,D5,0.5,0.25,57,111.0
2,B4,0.5,0.25,53,111.0
3,E-5,1.0,0.25,60,111.0
4,C5,1.0,0.25,57,111.0
5,G5,1.5,0.25,57,111.0
6,A4,1.5,0.25,54,111.0
7,F#5,2.0,0.25,64,111.0
8,D5,2.0,0.25,57,111.0
9,A5,2.5,0.25,59,111.0
10,C5,2.5,0.25,53,111.0
11,G5,3.0,167/1000,64,111.0
12,B-4,3.0,0.25,57,111.0
13,A5,3.167,167/1000,54,111.0
14,G5,3.333,167/1000,54,111.0
15,F#5,3.5,0.25,58,111.0
16,A4,3.5,0.25,54,111.0
17,G5,4.0,0.25,63,111.0
18,B-4,4.0,0.25,57,111.0
19,B-5,4.5,0.25,60,111.0
20,G4,4.5,0.25,54,111.0
21,F#4,5.0,0.25,57,111.0
22,A5,5.0,0.25,63,111.0
23,D5,5.0,0.25,63,111.0
24,C6,5.5,0.25,60,111.0
25,D4,5.5,0.25,55,111.0
26,B-5,6.0,0.25,64,111.0
27,G4,6.0,0.25,57,111.0
28,B4,6.5,0.25,52,111.0
29,F6,6.5,0.25,63,111.0
30,G#5,6.5,0.25,63,111.0
31,D6,6.5,0.25,63,111.0
32,C5,7.0,0.25,55,111.0
33,E6,7.0,0.25,61,111.0
34,G5,7.0,0.25,61,111.0
35,C6,7.0,0.25,61,111.0
36,A4,7.5,0.25,52,111.0
37,F#5,7.5,0.25,60,111.0
38,E-6,7.5,0.25,60,111.0
39,C6,7.5,0.25,60,111.0
40,B-4,8.0,0.25,55,111.0
41,G5,8.0,0.25,58,111.0
42,D6,8.0,0.25,58,111.0
43,F#4,8.5,0.25,53,111.0
44,D5,8.5,0.25,57,111.0
45,A5,8.5,0.25,57,111.0
46,C6,8.5,0.25,57,111.0
47,G4,9.0,0.5,57,111.0
48,G5,9.0,0.5,61,111.0
49,D5,9.0,0.5,61,111.0
50,B-5,9.0,0.5,61,111.0
51,F4,9.5,0.5,52,111.0
52,B4,9.5,0.5,60,111.0
53,G#5,9.5,0.5,60,111.0
54,G5,10.0,1.5,57,111.0
55,C5,10.0,0.5,57,111.0
56,E4,10.0,0.5,54,111.0
57,C#5,10.5,0.5,60,111.0
58,E-4,10.5,0.5,57,111.0
59,D5,11.0,0.5,62,111.0
60,D4,11.0,0.5,58,111.0
61,C#4,11.5,0.5,61,111.0
62,G5,11.5,0.5,67,111.0
63,E-5,11.5,0.5,67,111.0
64,B-5,11.5,0.5,67,111.0
65,D2,12.0,0.5,59,111.0
66,G5,12.0,2.0,70,111.0
67,B-4,12.0,2.0,70,111.0
68,D5,12.0,2.0,70,111.0
69,B-5,12.0,2.0,70,111.0
70,D4,12.5,1.0,55,111.0
71,D4,13.5,1.0,51,111.0
72,B-4,14.0,1.0,67,111.0
73,D5,14.0,1.0,67,111.0
74,D4,14.5,0.5,51,111.0
75,D4,15.0,0.5,51,111.0
76,C5,15.0,0.25,61,111.0
77,A4,15.0,0.25,61,111.0
78,D4,15.5,1.0,55,111.0
79,C5,15.5,0.25,64,111.0
80,E-5,15.5,0.25,64,111.0
81,F5,16.0,0.5,69,111.0
82,A5,16.0,0.5,69,111.0
83,D4,16.5,1.0,54,111.0
84,D5,17.0,0.25,70,111.0
85,F5,17.0,0.25,70,111.0
86,D4,17.5,0.5,52,111.0
87,B-4,17.5,0.25,65,111.0
88,D5,17.5,0.25,65,111.0
89,D4,18.0,0.5,52,111.0
90,B-4,18.0,0.25,68,111.0
91,G4,18.0,0.25,68,111.0
92,D4,18.5,1.0,55,111.0
93,G5,18.5,0.25,63,111.0
94,E-5,18.5,0.25,63,111.0
95,E-5,19.0,0.25,67,111.0
96,C5,19.0,0.25,67,111.0
97,D4,19.5,1.0,51,111.0
98,A4,19.5,0.25,63,111.0
99,C5,19.5,0.25,63,111.0
100,A4,20.0,0.25,67,111.0
101,F#4,20.0,0.25,67,111.0
102,D4,20.5,0.5,51,111.0
103,D5,20.5,0.25,64,111.0
104,F5,20.5,0.25,64,111.0
105,D4,21.0,0.5,51,111.0
106,B-4,21.0,0.25,70,111.0
107,D5,21.0,0.25,70,111.0
108,D4,21.5,0.5,51,111.0
109,G4,21.5,0.25,66,111.0
110,B-4,21.5,0.25,66,111.0
111,E-4,22.0,1.0,69,111.0
112,G4,22.0,0.5,69,111.0
113,D4,22.0,1.0,46,111.0
114,B-4,22.5,0.5,63,111.0
115,A4,23.0,0.5,65,111.0
116,D3,23.0,1.0,43,111.0
117,F#4,23.0,1.0,56,111.0
118,C4,23.0,1.0,56,111.0
119,D5,23.5,0.5,56,111.0
120,D5,24.0,3.0,68,111.0
121,B2,24.0,1.0,51,111.0
122,C4,25.0,1.0,39,111.0
123,D4,25.0,2.0,29,111.0
124,F4,25.0,2.0,29,111.0
125,G#4,25.0,2.0,29,111.0
126,B3,26.0,1.0,36,111.0
127,C3,27.0,1.0,51,111.0
128,C5,27.5,167/1000,64,111.0
129,D5,27.667,167/1000,61,111.0
130,C5,27.833,167/1000,61,111.0
131,B4,28.0,0.5,64,111.0
132,G4,28.0,2.0,45,111.0
133,E-4,28.0,2.0,45,111.0
134,A3,28.0,2.0,45,111.0
135,C5,28.5,0.5,61,111.0
136,D5,29.0,0.5,64,111.0
137,E-5,29.5,0.5,62,111.0
138,D2,30.0,2.0,51,111.0
139,B-4,30.0,0.5,61,111.0
140,G4,30.0,0.5,61,111.0
141,C5,30.5,0.5,63,111.0
142,C#5,31.0,0.5,66,111.0
143,D5,31.5,0.5,69,111.0
144,G5,32.0,0.5,70,111.0
145,D4,32.0,0.5,44,111.0
146,D5,32.5,0.5,66,111.0
147,C4,33.0,0.5,51,111.0
148,D3,33.0,2.5,51,111.0
149,B-4,33.0,2.0,68,111.0
150,F#4,33.0,2.0,68,111.0
151,C#4,33.5,0.5,44,111.0
152,D4,34.0,0.5,51,111.0
153,C#4,34.5,167/1000,51,111.0
154,D4,34.667,167/1000,45,111.0
155,C#4,34.833,167/1000,45,111.0
156,A4,35.0,0.875,68,111.0
157,C4,35.0,0.5,51,111.0
158,D3,35.5,0.5,44,111.0
159,G4,35.875,0.125,55,111.0
160,D5,35.938,0.062,56,111.0
161,G5,36.0,0.5,60,111.0
162,G4,36.0,0.5,55,111.0
163,D5,36.0,0.5,56,111.0
164,G2,36.0,0.5,44,111.0
165,D3,36.0,0.5,44,111.0
166,B-3,36.0,0.5,44,111.0
167,D5,36.5,0.25,57,111.0
168,B4,36.5,0.25,53,111.0
169,E-5,37.0,0.25,60,111.0
170,C5,37.0,0.25,57,111.0
171,G5,37.5,0.25,57,111.0
172,A4,37.5,0.25,54,111.0
173,F#5,38.0,0.25,64,111.0
174,D5,38.0,0.25,57,111.0
175,A5,38.5,0.25,59,111.0
176,C5,38.5,0.25,53,111.0
177,G5,39.0,167/1000,64,111.0
178,B-4,39.0,0.25,57,111.0
179,A5,39.167,167/1000,54,111.0
180,G5,39.333,167/1000,54,111.0
181,F#5,39.5,0.25,59,111.0
182,A4,39.5,0.25,55,111.0
183,G5,40.0,0.25,66,111.0
184,B-4,40.0,0.25,59,111.0
185,B-5,40.5,0.25,64,111.0
186,G4,40.5,0.25,57,111.0
187,F#4,41.0,0.25,62,111.0
188,A5,41.0,0.25,65,111.0
189,D5,41.0,0.25,65,111.0
190,D6,41.5,0.25,71,111.0
191,D4,41.5,0.25,61,111.0
192,F5,42.0,2.0,68,111.0
193,C3,42.0,1.0,51,111.0
194,F#4,43.0,1.0,49,111.0
195,C4,43.0,2.0,41,111.0
196,E-4,43.0,2.0,41,111.0
197,E-5,44.0,1.0,68,111.0
198,G4,44.0,1.0,54,111.0
199,D5,45.0,167/1000,64,111.0
200,F2,45.0,1.0,51,111.0
201,E-5,45.167,167/1000,55,111.0
202,D5,45.333,167/1000,55,111.0
203,C5,45.5,0.5,59,111.0
204,B4,46.0,0.5,64,111.0
205,G#4,46.0,1.0,55,111.0
206,C4,46.0,2.0,41,111.0
207,E-4,46.0,2.0,41,111.0
208,C5,46.5,0.5,58,111.0
209,D5,47.0,0.5,64,111.0
210,A4,47.0,1.0,56,111.0
211,E-5,47.5,0.5,58,111.0
212,D5,48.0,2.0,69,111.0
213,B-2,48.0,1.0,57,111.0
214,C#4,49.0,0.5,49,111.0
215,A4,49.0,0.5,49,111.0
216,F#4,49.0,0.5,49,111.0
217,D4,49.5,0.5,56,111.0
218,B-4,49.5,0.5,56,111.0
219,G#4,50.0,1.0,47,111.0
220,C#5,50.0,0.5,59,111.0
221,B3,50.0,1.0,55,111.0
222,D5,50.5,0.5,56,111.0
223,G4,51.0,3.0,46,111.0
224,F5,51.0,0.5,59,111.0
225,C3,51.0,1.0,60,111.0
226,E-5,51.5,0.5,57,111.0
227,D5,52.0,0.5,64,111.0
228,B3,52.0,0.5,49,111.0
229,E-5,52.5,0.5,61,111.0
230,C4,52.5,0.5,52,111.0
231,C5,53.0,0.5,69,111.0
232,D4,53.0,0.5,55,111.0
233,G4,53.5,0.5,66,111.0
234,E-4,53.5,0.5,57,111.0
235,F2,54.0,0.5,63,111.0
236,B-4,54.0,0.5,66,111.0
237,F4,54.0,0.5,66,111.0
238,D5,54.0,0.5,66,111.0
239,F5,54.5,0.25,57,111.0
240,D5,54.5,0.25,53,111.0
241,F#5,55.0,0.25,60,111.0
242,E-5,55.0,0.25,57,111.0
243,B-5,55.5,0.25,57,111.0
244,C5,55.5,0.25,54,111.0
245,A5,56.0,0.25,64,111.0
246,F5,56.0,0.25,57,111.0
247,C6,56.5,0.25,59,111.0
248,E-5,56.5,0.25,53,111.0
249,B-5,57.0,167/1000,64,111.0
250,D5,57.0,0.25,57,111.0
251,C6,57.167,167/1000,54,111.0
252,B-5,57.333,167/1000,54,111.0
253,A5,57.5,0.25,58,111.0
254,C#5,57.5,0.25,54,111.0
255,B-5,58.0,0.25,63,111.0
256,D5,58.0,0.25,57,111.0
257,D6,58.5,0.25,63,111.0
258,B-4,58.5,0.25,53,111.0
259,A4,59.0,0.25,55,111.0
260,C6,59.0,0.25,60,111.0
261,F5,59.0,0.25,60,111.0
262,F6,59.5,0.25,60,111.0
263,F4,59.5,0.25,51,111.0
264,B-2,60.0,1.0,51,111.0
265,B-4,60.5,0.5,64,111.0
266,C5,61.0,0.5,64,111.0
267,D4,61.0,2.0,45,111.0
268,F3,61.0,2.0,45,111.0
269,D5,61.5,0.5,61,111.0
270,F5,62.0,0.5,64,111.0
271,E-5,62.5,0.5,62,111.0
272,D5,63.0,167/1000,61,111.0
273,B-2,63.0,1.0,48,111.0
274,E-5,63.167,167/1000,56,111.0
275,D5,63.333,167/1000,55,111.0
276,B4,63.5,0.5,59,111.0
277,B-4,64.0,0.5,63,111.0
278,E-4,64.0,2.0,39,111.0
279,B3,64.0,2.0,39,111.0
280,F#3,64.0,2.0,39,111.0
281,G#4,64.5,0.5,57,111.0
282,F#4,65.0,0.5,65,111.0
283,B-4,65.5,0.375,58,111.0
284,B-4,65.875,0.125,60,111.0
285,F4,66.0,2.0,65,111.0
286,B-2,66.0,0.5,52,111.0
287,B-3,66.5,0.5,52,111.0
288,C4,67.0,0.5,54,111.0
289,D4,67.5,0.5,51,111.0
290,F4,68.0,0.5,55,111.0
291,G#4,68.0,1.0,56,111.0
292,B-4,68.0,1.0,56,111.0
293,D4,68.5,0.5,53,111.0
294,E-4,69.0,167/1000,48,111.0
295,B-4,69.0,2.0,49,111.0
296,F#4,69.0,2.0,49,111.0
297,F4,69.167,167/1000,42,111.0
298,E-4,69.333,167/1000,42,111.0
299,D4,69.5,0.5,46,111.0
300,E-4,70.0,0.5,55,111.0
301,F4,70.5,0.5,57,111.0
302,A4,71.0,0.5,67,111.0
303,F#4,71.0,1.0,61,111.0
304,E-5,71.5,0.5,64,111.0
305,B-2,72.0,1.0,51,111.0
306,B-4,72.5,0.5,64,111.0
307,B4,73.0,0.5,64,111.0
308,G#3,73.0,1.0,37,111.0
309,G#4,73.0,2.0,45,111.0
310,D4,73.0,2.0,45,111.0
311,D5,73.5,0.5,61,111.0
312,F5,74.0,0.5,67,111.0
313,B3,74.0,1.0,37,111.0
314,F#5,74.5,0.5,67,111.0
315,F5,75.0,167/1000,61,111.0
316,B-4,75.0,0.5,41,111.0
317,B-2,75.0,1.0,48,111.0
318,F#5,75.167,167/1000,51,111.0
319,F5,75.333,167/1000,51,111.0
320,E-5,75.5,0.5,54,111.0
321,B4,76.0,0.5,65,111.0
322,F#4,76.0,2.0,40,111.0
323,B-3,76.0,2.0,40,111.0
324,B-4,76.5,0.5,58,111.0
325,F#4,77.0,0.5,65,111.0
326,B-4,77.5,0.375,58,111.0
327,B-4,77.875,0.125,60,111.0
328,F4,78.0,2.0,63,111.0
329,B-2,78.0,0.5,57,111.0
330,B-3,78.5,0.5,55,111.0
331,C4,79.0,0.5,57,111.0
332,D4,79.5,0.5,54,111.0
333,F4,80.0,0.5,58,111.0
334,G#4,80.0,1.0,56,111.0
335,B-4,80.0,1.0,56,111.0
336,D4,80.5,0.5,55,111.0
337,E-4,81.0,167/1000,52,111.0
338,F#4,81.0,2.0,56,111.0
339,B-4,81.0,2.0,56,111.0
340,F4,81.167,167/1000,44,111.0
341,E-4,81.333,167/1000,44,111.0
342,D4,81.5,0.5,49,111.0
343,E-4,82.0,0.5,58,111.0
344,F4,82.5,0.5,61,111.0
345,A4,83.0,0.5,67,111.0
346,F#4,83.0,1.0,65,111.0
347,E-5,83.5,0.5,64,111.0
348,D5,84.0,2.0,64,111.0
349,B-2,84.0,1.0,58,111.0
350,E4,85.0,1.0,49,111.0
351,D4,85.0,2.0,41,111.0
352,B-3,85.0,2.0,41,111.0
353,F4,86.0,1.0,46,111.0
354,C3,87.0,1.0,51,111.0
355,C5,87.5,167/1000,64,111.0
356,D5,87.667,167/1000,54,111.0
357,C5,87.833,167/1000,54,111.0
358,B4,88.0,0.5,58,111.0
359,B-4,88.0,1.0,38,111.0
360,G4,88.0,2.0,38,111.0
361,E-4,88.0,2.0,38,111.0
362,C4,88.0,2.0,38,111.0
363,C5,88.5,0.5,61,111.0
364,D5,89.0,0.5,64,111.0
365,A4,89.0,1.0,45,111.0
366,E-5,89.5,0.5,62,111.0
367,D2,90.0,2.0,51,111.0
368,G4,90.0,0.5,61,111.0
369,B-4,90.0,0.5,61,111.0
370,C5,90.5,0.5,63,111.0
371,C#5,91.0,0.5,66,111.0
372,D5,91.5,0.5,69,111.0
373,G5,92.0,0.5,70,111.0
374,D4,92.0,0.5,44,111.0
375,D5,92.5,0.5,66,111.0
376,C4,93.0,0.5,51,111.0
377,D3,93.0,2.5,48,111.0
378,B-4,93.0,2.0,64,111.0
379,F#4,93.0,2.0,64,111.0
380,C#4,93.5,0.5,44,111.0
381,D4,94.0,0.5,51,111.0
382,C#4,94.5,167/1000,51,111.0
383,D4,94.667,167/1000,45,111.0
384,C#4,94.833,167/1000,45,111.0
385,A4,95.0,0.875,65,111.0
386,C4,95.0,0.5,51,111.0
387,D3,95.5,0.5,44,111.0
388,G4,95.875,0.125,55,111.0
389,D5,95.938,0.062,56,111.0
390,G5,96.0,0.5,60,111.0
391,G4,96.0,0.5,55,111.0
392,D5,96.0,0.5,56,111.0
393,G2,96.0,0.5,44,111.0
394,D3,96.0,0.5,44,111.0
395,B-3,96.0,0.5,44,111.0
396,D5,96.5,0.25,57,111.0
397,B4,96.5,0.25,53,111.0
398,E-5,97.0,0.25,60,111.0
399,C5,97.0,0.25,57,111.0
400,G5,97.5,0.25,57,111.0
401,A4,97.5,0.25,54,111.0
402,F#5,98.0,0.25,64,111.0
403,D5,98.0,0.25,57,111.0
404,A5,98.5,0.25,59,111.0
405,C5,98.5,0.25,53,111.0
406,G5,99.0,167/1000,64,111.0
407,B-4,99.0,0.25,57,111.0
408,A5,99.167,167/1000,54,111.0
409,G5,99.333,167/1000,54,111.0
410,F#5,99.5,0.25,58,111.0
411,A4,99.5,0.25,54,111.0
412,G5,100.0,0.25,63,111.0
413,B-4,100.0,0.25,57,111.0
414,B-5,100.5,0.25,60,111.0
415,G4,100.5,0.25,54,111.0
416,F#4,101.0,0.25,57,111.0
417,D5,101.0,0.25,63,111.0
418,A5,101.0,0.25,63,111.0
419,C6,101.5,0.25,60,111.0
420,D4,101.5,0.25,55,111.0
421,B-5,102.0,0.25,64,111.0
422,G4,102.0,0.25,57,111.0
423,B4,102.5,0.25,52,111.0
424,G#5,102.5,0.25,63,111.0
425,F6,102.5,0.25,63,111.0
426,D6,102.5,0.25,63,111.0
427,C5,103.0,0.25,55,111.0
428,C6,103.0,0.25,61,111.0
429,G5,103.0,0.25,61,111.0
430,E6,103.0,0.25,61,111.0
431,A4,103.5,0.25,52,111.0
432,C6,103.5,0.25,60,111.0
433,F#5,103.5,0.25,60,111.0
434,E-6,103.5,0.25,60,111.0
435,B-4,104.0,0.25,55,111.0
436,D6,104.0,0.25,58,111.0
437,G5,104.0,0.25,58,111.0
438,F#4,104.5,0.25,53,111.0
439,C6,104.5,0.25,57,111.0
440,D5,104.5,0.25,57,111.0
441,A5,104.5,0.25,57,111.0
442,G4,105.0,0.5,57,111.0
443,D5,105.0,0.5,65,111.0
444,B-5,105.0,0.5,65,111.0
445,G5,105.0,0.5,65,111.0
446,F4,105.5,0.5,52,111.0
447,G#5,105.5,0.5,60,111.0
448,B4,105.5,0.5,60,111.0
449,G5,106.0,1.5,57,111.0
450,C5,106.0,0.5,57,111.0
451,E4,106.0,0.5,54,111.0
452,C#5,106.5,0.5,60,111.0
453,E-4,106.5,0.5,57,111.0
454,D5,107.0,0.5,62,111.0
455,D4,107.0,0.5,58,111.0
456,C#4,107.5,0.5,61,111.0
457,B-5,107.5,0.5,67,111.0
458,E-5,107.5,0.5,67,111.0
459,G5,107.5,0.5,67,111.0
460,D2,108.0,0.5,59,111.0
461,D5,108.0,2.0,70,111.0
462,B-4,108.0,2.0,70,111.0
463,G5,108.0,2.0,70,111.0
464,B-5,108.0,2.0,70,111.0
465,D4,108.5,1.0,57,111.0
466,D4,109.5,1.0,51,111.0
467,D5,110.0,1.0,68,111.0
468,B-4,110.0,1.0,68,111.0
469,D4,110.5,0.5,51,111.0
470,D4,111.0,0.5,51,111.0
471,C5,111.0,0.25,61,111.0
472,A4,111.0,0.25,61,111.0
473,D4,111.5,1.0,56,111.0
474,E-5,111.5,0.25,66,111.0
475,C5,111.5,0.25,66,111.0
476,A5,112.0,0.5,70,111.0
477,F5,112.0,0.5,70,111.0
478,D4,112.5,1.0,54,111.0
479,D5,113.0,0.25,71,111.0
480,F5,113.0,0.25,71,111.0
481,D4,113.5,0.5,52,111.0
482,D5,113.5,0.25,65,111.0
483,B-4,113.5,0.25,65,111.0
484,D4,114.0,0.5,52,111.0
485,G4,114.0,0.25,68,111.0
486,B-4,114.0,0.25,68,111.0
487,D4,114.5,1.0,56,111.0
488,E-5,114.5,0.25,65,111.0
489,G5,114.5,0.25,65,111.0
490,C5,115.0,0.25,67,111.0
491,E-5,115.0,0.25,67,111.0
492,D4,115.5,1.0,51,111.0
493,A4,115.5,0.25,63,111.0
494,C5,115.5,0.25,63,111.0
495,A4,116.0,0.25,67,111.0
496,F#4,116.0,0.25,67,111.0
497,D4,116.5,0.5,51,111.0
498,F5,116.5,0.25,62,111.0
499,D5,116.5,0.25,62,111.0
500,D4,117.0,0.5,51,111.0
501,D5,117.0,0.5,69,111.0
502,B-4,117.0,0.5,69,111.0
503,D4,117.5,0.5,51,111.0
504,G4,117.5,0.5,66,111.0
505,B-4,117.5,0.5,66,111.0
506,G4,118.0,0.5,69,111.0
507,E-4,118.0,1.0,53,111.0
508,D4,118.0,1.0,46,111.0
509,B-4,118.5,0.5,63,111.0
510,A4,119.0,0.5,65,111.0
511,D3,119.0,1.0,43,111.0
512,F#4,119.0,1.0,52,111.0
513,C4,119.0,1.0,52,111.0
514,B-4,119.5,0.5,59,111.0
515,B4,120.0,3.0,55,111.0
516,B3,120.0,0.5,44,111.0
517,D4,120.0,0.5,44,111.0
518,G2,120.0,2.0,38,111.0
519,D3,120.0,2.0,38,111.0
520,E4,120.5,0.25,42,111.0
521,D4,120.75,0.25,42,111.0
522,B3,121.0,0.5,44,111.0
523,D4,121.5,0.5,41,111.0
524,D2,122.0,1.0,35,111.0
525,D3,122.0,1.0,35,111.0
526,D4,122.5,0.5,42,111.0
527,B4,123.0,3.0,55,111.0
528,B3,123.0,0.5,45,111.0
529,F4,123.0,0.5,45,111.0
530,G#2,123.0,2.0,40,111.0
531,D3,123.0,2.0,40,111.0
532,E4,123.5,0.25,42,111.0
533,D4,123.75,0.25,42,111.0
534,B3,124.0,0.5,44,111.0
535,D4,124.5,0.5,42,111.0
536,D2,125.0,1.0,35,111.0
537,D3,125.0,1.0,35,111.0
538,D4,125.5,0.5,42,111.0
539,C5,126.0,2.0,55,111.0
540,C4,126.0,0.5,44,111.0
541,D4,126.0,0.5,44,111.0
542,A2,126.0,2.0,38,111.0
543,D3,126.0,2.0,38,111.0
544,E4,126.5,0.25,42,111.0
545,D4,126.75,0.25,42,111.0
546,C4,127.0,0.5,44,111.0
547,D4,127.5,0.5,41,111.0
548,C4,128.0,0.5,44,111.0
549,G#4,128.0,1.0,53,111.0
550,D2,128.0,1.0,35,111.0
551,D3,128.0,1.0,35,111.0
552,D4,128.5,0.5,41,111.0
553,A4,129.0,2.0,55,111.0
554,G#4,129.0,21/500,53,111.0
555,C4,129.0,0.5,44,111.0
556,D4,129.0,0.5,44,111.0
557,F#2,129.0,2.0,38,111.0
558,D3,129.0,2.0,38,111.0
559,E4,129.5,0.25,42,111.0
560,D4,129.75,0.25,42,111.0
561,C4,130.0,0.5,44,111.0
562,D4,130.5,0.5,41,111.0
563,C4,131.0,0.5,44,111.0
564,B-4,131.0,1.0,53,111.0
565,D2,131.0,1.0,35,111.0
566,D3,131.0,1.0,35,111.0
567,D4,131.5,0.5,41,111.0
568,B4,132.0,2.0,55,111.0
569,B-4,132.0,21/500,53,111.0
570,B3,132.0,0.5,44,111.0
571,D4,132.0,0.5,44,111.0
572,G2,132.0,2.0,38,111.0
573,D3,132.0,2.0,38,111.0
574,E4,132.5,0.25,42,111.0
575,D4,132.75,0.25,42,111.0
576,B3,133.0,0.5,44,111.0
577,D4,133.5,0.5,41,111.0
578,B3,134.0,0.5,44,111.0
579,B4,134.0,1.0,53,111.0
580,D2,134.0,1.0,35,111.0
581,D3,134.0,1.0,35,111.0
582,D4,134.5,0.5,41,111.0
583,E4,135.0,1.5,55,111.0
584,D4,135.0,0.5,44,111.0
585,B4,135.0,21/500,53,111.0
586,G#3,135.0,0.5,39,111.0
587,E3,135.0,2.0,35,111.0
588,G4,135.5,0.25,42,111.0
589,B3,135.5,0.25,38,111.0
590,F4,135.75,0.25,42,111.0
591,A3,135.75,0.25,38,111.0
592,G#3,136.0,1.0,39,111.0
593,E4,136.0,1.0,44,111.0
594,D4,136.0,1.0,44,111.0
595,B4,136.5,271/500,54,111.0
596,C5,137.0,271/500,59,111.0
597,E3,137.0,1.0,38,111.0
598,D4,137.0,1.0,37,111.0
599,E4,137.0,1.0,37,111.0
600,G#4,137.0,1.0,37,111.0
601,D5,137.5,0.5,57,111.0
602,C4,138.0,0.5,44,111.0
603,C5,138.0,2.0,55,111.0
604,D5,138.0,21/500,57,111.0
605,A2,138.0,3.0,35,111.0
606,E3,138.0,2.0,42,111.0
607,F4,138.5,0.25,42,111.0
608,E4,138.75,0.25,42,111.0
609,C4,139.0,0.5,44,111.0
610,E4,139.5,0.5,41,111.0
611,C4,140.0,0.5,44,111.0
612,C5,140.0,1.0,53,111.0
613,E-3,140.0,0.25,46,111.0
614,F3,140.25,0.25,32,111.0
615,G4,140.5,0.5,41,111.0
616,E-3,140.5,0.5,34,111.0
617,C4,141.0,0.5,47,111.0
618,F#4,141.0,1.0,58,111.0
619,C5,141.0,21/500,53,111.0
620,D2,141.0,3.0,38,111.0
621,A4,141.5,0.25,45,111.0
622,F#4,141.75,0.25,45,111.0
623,C4,142.0,271/500,47,111.0
624,E4,142.0,1.0,44,111.0
625,G3,142.0,1.0,41,111.0
626,A4,142.5,0.5,44,111.0
627,C4,143.0,271/500,50,111.0
628,D4,143.0,1.0,39,111.0
629,F#3,143.0,1.0,37,111.0
630,B-4,143.5,0.5,44,111.0
631,B4,144.0,3.0,55,111.0
632,B3,144.0,0.5,41,111.0
633,D4,144.0,0.5,41,111.0
634,G2,144.0,2.0,32,111.0
635,D3,144.0,2.0,32,111.0
636,E4,144.5,0.25,39,111.0
637,D4,144.75,0.25,39,111.0
638,B3,145.0,0.5,41,111.0
639,D4,145.5,0.5,38,111.0
640,D2,146.0,1.0,35,111.0
641,D3,146.0,1.0,35,111.0
642,D4,146.5,0.5,42,111.0
643,B4,147.0,3.0,55,111.0
644,B3,147.0,0.5,43,111.0
645,F4,147.0,0.5,43,111.0
646,G#2,147.0,2.0,38,111.0
647,D3,147.0,2.0,38,111.0
648,E4,147.5,0.25,40,111.0
649,D4,147.75,0.25,40,111.0
650,B3,148.0,0.5,42,111.0
651,D4,148.5,0.5,40,111.0
652,D2,149.0,1.0,35,111.0
653,D3,149.0,1.0,35,111.0
654,D4,149.5,0.5,42,111.0
655,C5,150.0,2.0,55,111.0
656,C4,150.0,0.5,44,111.0
657,D4,150.0,0.5,44,111.0
658,A2,150.0,2.0,38,111.0
659,D3,150.0,2.0,38,111.0
660,E4,150.5,0.25,42,111.0
661,D4,150.75,0.25,42,111.0
662,C4,151.0,0.5,44,111.0
663,D4,151.5,0.5,41,111.0
664,C4,152.0,0.5,44,111.0
665,G#4,152.0,1.0,53,111.0
666,D2,152.0,1.0,35,111.0
667,D3,152.0,1.0,35,111.0
668,D4,152.5,0.5,41,111.0
669,A4,153.0,2.0,55,111.0
670,G#4,153.0,21/500,53,111.0
671,C4,153.0,0.5,44,111.0
672,D4,153.0,0.5,44,111.0
673,F#2,153.0,2.0,38,111.0
674,D3,153.0,2.0,38,111.0
675,E4,153.5,0.25,42,111.0
676,D4,153.75,0.25,42,111.0
677,C4,154.0,0.5,44,111.0
678,D4,154.5,0.5,41,111.0
679,C4,155.0,0.5,44,111.0
680,B-4,155.0,1.0,53,111.0
681,D2,155.0,1.0,35,111.0
682,D3,155.0,1.0,35,111.0
683,D4,155.5,0.5,41,111.0
684,B4,156.0,2.0,55,111.0
685,B-4,156.0,21/500,53,111.0
686,B3,156.0,0.5,44,111.0
687,D4,156.0,0.5,44,111.0
688,G2,156.0,2.0,38,111.0
689,D3,156.0,2.0,38,111.0
690,E4,156.5,0.25,42,111.0
691,D4,156.75,0.25,42,111.0
692,B3,157.0,0.5,44,111.0
693,D4,157.5,0.5,41,111.0
694,G3,158.0,1.0,47,111.0
695,D4,158.5,0.5,49,111.0
696,E4,159.0,1.5,51,111.0
697,B3,159.0,0.5,51,111.0
698,C#3,159.0,73/250,51,111.0
699,D3,159.25,73/250,39,111.0
700,A4,159.5,0.25,46,111.0
701,C#3,159.5,2.0,49,111.0
702,G4,159.75,0.25,47,111.0
703,E4,160.0,1.0,50,111.0
704,B4,160.5,0.5,57,111.0
705,F#3,160.5,0.5,46,111.0
706,G3,161.0,0.5,50,111.0
707,E4,161.0,0.5,54,111.0
708,E5,161.0,0.5,54,111.0
709,B4,161.5,0.5,55,111.0
710,C#4,161.5,0.5,44,111.0
711,D5,162.0,2.0,50,111.0
712,D4,162.0,0.5,61,111.0
713,F#3,162.0,2.0,49,111.0
714,G4,162.5,0.25,53,111.0
715,F#4,162.75,0.25,53,111.0
716,F4,163.0,1.0,55,111.0
717,E4,163.5,1.5,55,111.0
718,C#5,164.0,0.5,59,111.0
719,F#2,164.0,1.0,46,111.0
720,F#4,164.5,0.5,55,111.0
721,B2,165.0,3.0,48,111.0
722,D4,165.0,3.0,60,111.0
723,B4,165.0,3.0,60,111.0
724,A3,165.5,0.25,47,111.0
725,G3,165.75,0.25,45,111.0
726,F3,166.0,0.5,49,111.0
727,F#3,166.5,0.5,46,111.0
728,B3,167.0,1.0,52,111.0
729,D2,168.0,0.5,62,111.0
730,A4,168.0,2.0,66,111.0
731,C5,168.0,2.0,66,111.0
732,D4,168.5,0.25,53,111.0
733,D4,168.75,0.25,53,111.0
734,D4,169.0,0.5,59,111.0
735,D4,169.5,0.5,55,111.0
736,G#4,170.0,1.0,64,111.0
737,B4,170.0,1.0,64,111.0
738,D4,170.5,0.5,55,111.0
739,D4,171.0,0.5,55,111.0
740,B4,171.0,521/500,66,111.0
741,D5,171.0,521/500,66,111.0
742,D4,171.5,1.0,53,111.0
743,A4,172.0,521/500,67,111.0
744,C5,172.0,521/500,67,111.0
745,D4,172.5,1.0,53,111.0
746,G#4,173.0,1.0,64,111.0
747,B4,173.0,1.0,64,111.0
748,D4,173.5,0.5,49,111.0
749,D4,174.0,0.5,49,111.0
750,F4,174.0,0.5,62,111.0
751,G#4,174.0,0.5,62,111.0
752,D4,174.5,1.0,51,111.0
753,F#4,174.5,0.5,61,111.0
754,A4,174.5,0.5,61,111.0
755,A4,175.0,0.5,61,111.0
756,C5,175.0,0.5,61,111.0
757,D4,175.5,1.0,55,111.0
758,C5,175.5,0.5,64,111.0
759,E5,175.5,0.5,64,111.0
760,E5,176.0,0.5,66,111.0
761,G5,176.0,0.5,66,111.0
762,D4,176.5,0.5,54,111.0
763,D5,176.5,0.5,64,111.0
764,F#5,176.5,0.5,64,111.0
765,D4,177.0,0.5,54,111.0
766,A5,177.0,0.5,66,111.0
767,F#5,177.0,0.5,66,111.0
768,D4,177.5,1.0,57,111.0
769,D5,177.5,0.5,61,111.0
770,F#5,177.5,0.5,61,111.0
771,C5,178.0,0.5,64,111.0
772,E5,178.0,0.5,64,111.0
773,D4,178.5,1.0,51,111.0
774,A4,178.5,0.5,59,111.0
775,C5,178.5,0.5,59,111.0
776,G#4,179.0,0.5,61,111.0
777,B4,179.0,0.5,61,111.0
778,D4,179.5,0.5,51,111.0
779,B4,179.5,0.5,59,111.0
780,D5,179.5,0.5,59,111.0
781,D2,180.0,0.5,62,111.0
782,A4,180.0,2.0,69,111.0
783,C5,180.0,2.0,69,111.0
784,D4,180.5,0.25,48,111.0
785,D4,180.75,0.25,48,111.0
786,D4,181.0,0.5,52,111.0
787,D4,181.5,0.5,49,111.0
788,G#4,182.0,1.0,61,111.0
789,B4,182.0,1.0,61,111.0
790,D4,182.5,0.5,49,111.0
791,D4,183.0,0.5,49,111.0
792,B-4,183.0,521/500,62,111.0
793,D5,183.0,521/500,62,111.0
794,D4,183.5,1.0,48,111.0
795,A4,184.0,521/500,58,111.0
796,C5,184.0,521/500,58,111.0
797,D4,184.5,1.0,48,111.0
798,G4,185.0,1.0,56,111.0
799,B-4,185.0,1.0,56,111.0
800,D4,185.5,0.5,44,111.0
801,D4,186.0,0.5,44,111.0
802,F4,186.0,0.5,56,111.0
803,G#4,186.0,0.5,56,111.0
804,D4,186.5,1.0,46,111.0
805,F#4,186.5,0.5,52,111.0
806,A4,186.5,0.5,52,111.0
807,A4,187.0,0.5,56,111.0
808,C5,187.0,0.5,56,111.0
809,D4,187.5,1.0,45,111.0
810,C5,187.5,0.5,56,111.0
811,E-5,187.5,0.5,56,111.0
812,E-5,188.0,0.5,58,111.0
813,G5,188.0,0.5,58,111.0
814,D4,188.5,0.5,50,111.0
815,D5,188.5,0.5,54,111.0
816,F#5,188.5,0.5,54,111.0
817,D4,189.0,0.5,50,111.0
818,A5,189.0,0.5,60,111.0
819,F#5,189.0,0.5,60,111.0
820,D4,189.5,1.0,48,111.0
821,D5,189.5,0.5,58,111.0
822,F#5,189.5,0.5,58,111.0
823,C5,190.0,0.5,54,111.0
824,E-5,190.0,0.5,54,111.0
825,D4,190.5,1.0,42,111.0
826,G4,190.5,0.5,47,111.0
827,A4,190.5,0.5,47,111.0
828,F#4,191.0,0.5,48,111.0
829,D5,191.0,0.5,48,111.0
830,D4,191.5,0.5,40,111.0
831,A4,191.5,0.5,46,111.0
832,C5,191.5,0.5,46,111.0
833,G4,192.0,3.0,56,111.0
834,B-4,192.0,3.0,56,111.0
835,E-4,192.5,0.25,51,111.0
836,F4,192.75,0.25,50,111.0
837,E-4,193.0,0.5,54,111.0
838,D4,193.5,0.5,49,111.0
839,E-4,194.0,0.5,54,111.0
840,D4,194.5,0.5,50,111.0
841,C#4,195.0,3.0,51,111.0
842,E-5,195.5,271/500,63,111.0
843,F5,196.0,271/500,66,111.0
844,G5,196.5,271/500,64,111.0
845,F5,197.0,271/500,66,111.0
846,E-5,197.5,0.5,66,111.0
847,C#5,198.0,3.0,54,111.0
848,C6,198.0,0.5,57,111.0
849,G5,198.0,0.5,57,111.0
850,E-5,198.0,0.5,57,111.0
851,B-5,198.5,0.5,62,111.0
852,G5,199.0,0.5,66,111.0
853,E-5,199.5,0.5,57,111.0
854,F5,200.0,0.5,61,111.0
855,E-5,200.5,0.5,57,111.0
856,C5,201.0,0.5,54,111.0
857,C#4,201.0,3.0,51,111.0
858,E-4,201.0,1.0,45,111.0
859,G4,201.0,1.0,45,111.0
860,B-4,201.5,0.5,54,111.0
861,G4,202.0,0.5,56,111.0
862,B-4,202.5,0.5,62,111.0
863,E-5,203.0,0.5,63,111.0
864,G5,203.5,0.5,63,111.0
865,C#2,204.0,0.5,56,111.0
866,E-5,204.0,3.0,62,111.0
867,G5,204.0,3.0,62,111.0
868,G4,204.0,3.0,62,111.0
869,B-4,204.0,3.0,62,111.0
870,E-4,204.5,0.25,51,111.0
871,F4,204.75,0.25,50,111.0
872,E-4,205.0,0.5,54,111.0
873,D4,205.5,0.5,49,111.0
874,E-4,206.0,0.5,54,111.0
875,D4,206.5,0.5,50,111.0
876,C#4,207.0,3.0,51,111.0
877,E-5,207.5,271/500,63,111.0
878,F5,208.0,271/500,66,111.0
879,G5,208.5,271/500,64,111.0
880,F5,209.0,271/500,66,111.0
881,E-5,209.5,0.5,66,111.0
882,C#5,210.0,3.0,54,111.0
883,C6,210.0,0.5,57,111.0
884,G5,210.0,0.5,57,111.0
885,E-5,210.0,0.5,57,111.0
886,B-5,210.5,0.5,62,111.0
887,G5,211.0,0.5,66,111.0
888,E-5,211.5,0.5,57,111.0
889,F5,212.0,0.5,61,111.0
890,E-5,212.5,0.5,57,111.0
891,C5,213.0,0.5,54,111.0
892,C#4,213.0,3.0,51,111.0
893,E-4,213.0,1.0,45,111.0
894,G4,213.0,1.0,45,111.0
895,B-4,213.5,0.5,54,111.0
896,G4,214.0,0.5,56,111.0
897,B-4,214.5,0.5,62,111.0
898,E-5,215.0,0.5,63,111.0
899,G5,215.5,0.5,63,111.0
900,D2,216.0,0.5,57,111.0
901,B-4,216.0,2.0,69,111.0
902,D5,216.0,2.0,69,111.0
903,B-5,216.0,2.0,69,111.0
904,G5,216.0,2.0,69,111.0
905,D4,216.5,1.0,55,111.0
906,D4,217.5,1.0,50,111.0
907,B-4,218.0,1.0,67,111.0
908,D5,218.0,1.0,67,111.0
909,D4,218.5,0.5,50,111.0
910,D4,219.0,0.5,50,111.0
911,A4,219.0,0.5,60,111.0
912,C5,219.0,0.5,60,111.0
913,D4,219.5,1.0,56,111.0
914,C5,219.5,0.5,65,111.0
915,E-5,219.5,0.5,65,111.0
916,F5,220.0,1.0,70,111.0
917,A5,220.0,1.0,70,111.0
918,D4,220.5,1.0,53,111.0
919,D5,221.0,0.5,71,111.0
920,F5,221.0,0.5,71,111.0
921,D4,221.5,0.5,51,111.0
922,B-4,221.5,0.5,63,111.0
923,D5,221.5,0.5,63,111.0
924,D4,222.0,0.5,51,111.0
925,G4,222.0,0.25,66,111.0
926,B-4,222.0,0.25,66,111.0
927,D4,222.5,1.0,56,111.0
928,E-5,222.5,0.25,65,111.0
929,G5,222.5,0.25,65,111.0
930,C5,223.0,0.25,66,111.0
931,E-5,223.0,0.25,66,111.0
932,D4,223.5,1.0,50,111.0
933,A4,223.5,0.25,61,111.0
934,C5,223.5,0.25,61,111.0
935,F#4,224.0,0.25,65,111.0
936,A4,224.0,0.25,65,111.0
937,D4,224.5,0.5,50,111.0
938,D5,224.5,0.25,60,111.0
939,F5,224.5,0.25,60,111.0
940,D4,225.0,0.5,50,111.0
941,B-4,225.0,0.25,69,111.0
942,D5,225.0,0.25,69,111.0
943,D4,225.5,0.5,50,111.0
944,G4,225.5,0.25,64,111.0
945,B-4,225.5,0.25,64,111.0
946,E-4,226.0,1.0,68,111.0
947,G4,226.0,0.5,68,111.0
948,D4,226.0,1.0,45,111.0
949,B-4,226.5,0.5,62,111.0
950,A4,227.0,0.5,64,111.0
951,D3,227.0,1.0,42,111.0
952,C4,227.0,1.0,54,111.0
953,F#4,227.0,1.0,54,111.0
954,D5,227.5,0.5,56,111.0
955,D5,228.0,3.0,70,111.0
956,B2,228.0,1.0,53,111.0
957,C4,229.0,1.0,40,111.0
958,D4,229.0,2.0,29,111.0
959,F4,229.0,2.0,29,111.0
960,G#4,229.0,2.0,29,111.0
961,B3,230.0,1.0,36,111.0
962,C3,231.0,1.0,51,111.0
963,C5,231.5,167/1000,64,111.0
964,D5,231.667,167/1000,61,111.0
965,C5,231.833,167/1000,61,111.0
966,B4,232.0,0.5,64,111.0
967,G4,232.0,2.0,45,111.0
968,E-4,232.0,2.0,45,111.0
969,A3,232.0,2.0,45,111.0
970,C5,232.5,0.5,61,111.0
971,D5,233.0,0.5,64,111.0
972,E-5,233.5,0.5,62,111.0
973,D2,234.0,2.0,51,111.0
974,G4,234.0,0.5,61,111.0
975,B-4,234.0,0.5,61,111.0
976,C5,234.5,0.5,63,111.0
977,C#5,235.0,0.5,66,111.0
978,D5,235.5,0.5,69,111.0
979,G5,236.0,0.5,70,111.0
980,D4,236.0,0.5,44,111.0
981,D5,236.5,0.5,66,111.0
982,C4,237.0,0.5,51,111.0
983,D3,237.0,2.5,51,111.0
984,F#4,237.0,2.0,68,111.0
985,B-4,237.0,2.0,68,111.0
986,C#4,237.5,0.5,44,111.0
987,D4,238.0,0.5,51,111.0
988,C#4,238.5,167/1000,51,111.0
989,D4,238.667,167/1000,45,111.0
990,C#4,238.833,167/1000,45,111.0
991,A4,239.0,0.875,68,111.0
992,C4,239.0,0.5,51,111.0
993,D3,239.5,0.5,44,111.0
994,G4,239.875,0.125,55,111.0
995,D5,239.938,0.062,56,111.0
996,G5,240.0,0.5,60,111.0
997,G4,240.0,0.5,55,111.0
998,D5,240.0,0.5,56,111.0
999,G2,240.0,0.5,44,111.0
1000,D3,240.0,0.5,44,111.0
1001,B-3,240.0,0.5,44,111.0
1002,D5,240.5,0.25,57,111.0
1003,B4,240.5,0.25,53,111.0
1004,E-5,241.0,0.25,60,111.0
1005,C5,241.0,0.25,57,111.0
1006,G5,241.5,0.25,57,111.0
1007,A4,241.5,0.25,54,111.0
1008,F#5,242.0,0.25,64,111.0
1009,D5,242.0,0.25,57,111.0
1010,A5,242.5,0.25,59,111.0
1011,C5,242.5,0.25,53,111.0
1012,G5,243.0,167/1000,64,111.0
1013,B-4,243.0,0.25,57,111.0
1014,A5,243.167,167/1000,54,111.0
1015,G5,243.333,167/1000,54,111.0
1016,F#5,243.5,0.25,59,111.0
1017,A4,243.5,0.25,55,111.0
1018,G5,244.0,0.25,66,111.0
1019,B-4,244.0,0.25,59,111.0
1020,B-5,244.5,0.25,64,111.0
1021,G4,244.5,0.25,57,111.0
1022,F#4,245.0,0.25,62,111.0
1023,D5,245.0,0.25,65,111.0
1024,A5,245.0,0.25,65,111.0
1025,D6,245.5,0.25,71,111.0
1026,D4,245.5,0.25,61,111.0
1027,F5,246.0,2.0,68,111.0
1028,C3,246.0,1.0,51,111.0
1029,F#4,247.0,1.0,49,111.0
1030,C4,247.0,2.0,41,111.0
1031,E-4,247.0,2.0,41,111.0
1032,E-5,248.0,1.0,68,111.0
1033,G4,248.0,1.0,54,111.0
1034,D5,249.0,167/1000,64,111.0
1035,F2,249.0,1.0,51,111.0
1036,E-5,249.167,167/1000,55,111.0
1037,D5,249.333,167/1000,55,111.0
1038,C5,249.5,0.5,59,111.0
1039,B4,250.0,0.5,64,111.0
1040,G#4,250.0,1.0,55,111.0
1041,C4,250.0,2.0,41,111.0
1042,E-4,250.0,2.0,41,111.0
1043,C5,250.5,0.5,58,111.0
1044,D5,251.0,0.5,64,111.0
1045,A4,251.0,1.0,56,111.0
1046,E-5,251.5,0.5,58,111.0
1047,D5,252.0,2.0,69,111.0
1048,B-2,252.0,1.0,57,111.0
1049,C#4,253.0,0.5,49,111.0
1050,A4,253.0,0.5,49,111.0
1051,F#4,253.0,0.5,49,111.0
1052,D4,253.5,0.5,56,111.0
1053,B-4,253.5,0.5,56,111.0
1054,G#4,254.0,1.0,47,111.0
1055,C#5,254.0,0.5,59,111.0
1056,B3,254.0,1.0,55,111.0
1057,D5,254.5,0.5,56,111.0
1058,G4,255.0,3.0,46,111.0
1059,F5,255.0,0.5,59,111.0
1060,C3,255.0,1.0,60,111.0
1061,E-5,255.5,0.5,57,111.0
1062,D5,256.0,0.5,64,111.0
1063,B3,256.0,0.5,49,111.0
1064,E-5,256.5,0.5,61,111.0
1065,C4,256.5,0.5,52,111.0
1066,C5,257.0,0.5,69,111.0
1067,D4,257.0,0.5,55,111.0
1068,G4,257.5,0.5,66,111.0
1069,E-4,257.5,0.5,57,111.0
1070,F2,258.0,0.5,63,111.0
1071,F4,258.0,0.5,66,111.0
1072,B-4,258.0,0.5,66,111.0
1073,D5,258.0,0.5,66,111.0
1074,F5,258.5,0.25,57,111.0
1075,D5,258.5,0.25,53,111.0
1076,F#5,259.0,0.25,60,111.0
1077,E-5,259.0,0.25,57,111.0
1078,B-5,259.5,0.25,57,111.0
1079,C5,259.5,0.25,54,111.0
1080,A5,260.0,0.25,64,111.0
1081,F5,260.0,0.25,57,111.0
1082,C6,260.5,0.25,59,111.0
1083,E-5,260.5,0.25,53,111.0
1084,B-5,261.0,167/1000,64,111.0
1085,D5,261.0,0.25,57,111.0
1086,C6,261.167,167/1000,54,111.0
1087,B-5,261.333,167/1000,54,111.0
1088,A5,261.5,0.25,58,111.0
1089,C#5,261.5,0.25,54,111.0
1090,B-5,262.0,0.25,63,111.0
1091,D5,262.0,0.25,57,111.0
1092,D6,262.5,0.25,63,111.0
1093,B-4,262.5,0.25,52,111.0
1094,A4,263.0,0.25,55,111.0
1095,F5,263.0,0.25,60,111.0
1096,C6,263.0,0.25,60,111.0
1097,F6,263.5,0.25,60,111.0
1098,F4,263.5,0.25,51,111.0
1099,B-2,264.0,1.0,51,111.0
1100,B-4,264.5,0.5,64,111.0
1101,C5,265.0,0.5,64,111.0
1102,D4,265.0,2.0,45,111.0
1103,F3,265.0,2.0,45,111.0
1104,D5,265.5,0.5,61,111.0
1105,F5,266.0,0.5,64,111.0
1106,E-5,266.5,0.5,62,111.0
1107,D5,267.0,167/1000,61,111.0
1108,B-2,267.0,1.0,48,111.0
1109,E-5,267.167,167/1000,56,111.0
1110,D5,267.333,167/1000,55,111.0
1111,B4,267.5,0.5,59,111.0
1112,B-4,268.0,0.5,63,111.0
1113,E-4,268.0,2.0,39,111.0
1114,B3,268.0,2.0,39,111.0
1115,F#3,268.0,2.0,39,111.0
1116,G#4,268.5,0.5,57,111.0
1117,F#4,269.0,0.5,65,111.0
1118,B-4,269.5,0.375,58,111.0
1119,B-4,269.875,0.125,60,111.0
1120,F4,270.0,2.0,65,111.0
1121,B-2,270.0,0.5,54,111.0
1122,B-3,270.5,0.5,52,111.0
1123,C4,271.0,0.5,54,111.0
1124,D4,271.5,0.5,51,111.0
1125,F4,272.0,0.5,55,111.0
1126,G#4,272.0,1.0,56,111.0
1127,B-4,272.0,1.0,56,111.0
1128,D4,272.5,0.5,53,111.0
1129,E-4,273.0,167/1000,48,111.0
1130,F#4,273.0,2.0,49,111.0
1131,B-4,273.0,2.0,49,111.0
1132,F4,273.167,167/1000,42,111.0
1133,E-4,273.333,167/1000,42,111.0
1134,D4,273.5,0.5,46,111.0
1135,E-4,274.0,0.5,55,111.0
1136,F4,274.5,0.5,57,111.0
1137,A4,275.0,0.5,67,111.0
1138,F#4,275.0,1.0,61,111.0
1139,E-5,275.5,0.5,64,111.0
1140,B-2,276.0,1.0,51,111.0
1141,B-4,276.5,0.5,64,111.0
1142,B4,277.0,0.5,64,111.0
1143,G#3,277.0,1.0,37,111.0
1144,G#4,277.0,2.0,45,111.0
1145,D4,277.0,2.0,45,111.0
1146,D5,277.5,0.5,61,111.0
1147,F5,278.0,0.5,67,111.0
1148,B3,278.0,1.0,37,111.0
1149,F#5,278.5,0.5,67,111.0
1150,B-4,279.0,0.5,41,111.0
1151,F5,279.0,167/1000,61,111.0
1152,B-2,279.0,1.0,48,111.0
1153,F#5,279.167,167/1000,51,111.0
1154,F5,279.333,167/1000,51,111.0
1155,E-5,279.5,0.5,54,111.0
1156,B4,280.0,0.5,65,111.0
1157,F#4,280.0,2.0,40,111.0
1158,B-3,280.0,2.0,40,111.0
1159,B-4,280.5,0.5,58,111.0
1160,F#4,281.0,0.5,65,111.0
1161,B-4,281.5,0.375,58,111.0
1162,B-4,281.875,0.125,60,111.0
1163,F4,282.0,2.0,63,111.0
1164,B-2,282.0,0.5,57,111.0
1165,B-3,282.5,0.5,55,111.0
1166,C4,283.0,0.5,57,111.0
1167,D4,283.5,0.5,54,111.0
1168,F4,284.0,0.5,58,111.0
1169,G#4,284.0,1.0,56,111.0
1170,B-4,284.0,1.0,56,111.0
1171,D4,284.5,0.5,56,111.0
1172,E-4,285.0,167/1000,52,111.0
1173,F#4,285.0,2.0,56,111.0
1174,B-4,285.0,2.0,56,111.0
1175,F4,285.167,167/1000,44,111.0
1176,E-4,285.333,167/1000,44,111.0
1177,D4,285.5,0.5,49,111.0
1178,E-4,286.0,0.5,58,111.0
1179,F4,286.5,0.5,61,111.0
1180,A4,287.0,0.5,67,111.0
1181,F#4,287.0,1.0,65,111.0
1182,E-5,287.5,0.5,64,111.0
1183,D5,288.0,2.0,64,111.0
1184,B-2,288.0,1.0,58,111.0
1185,E4,289.0,1.0,49,111.0
1186,D4,289.0,2.0,41,111.0
1187,B-3,289.0,2.0,41,111.0
1188,F4,290.0,1.0,46,111.0
1189,C3,291.0,1.0,51,111.0
1190,C5,291.5,167/1000,64,111.0
1191,D5,291.667,167/1000,54,111.0
1192,C5,291.833,167/1000,54,111.0
1193,B4,292.0,0.5,58,111.0
1194,B-4,292.0,1.0,38,111.0
1195,G4,292.0,2.0,38,111.0
1196,E-4,292.0,2.0,38,111.0
1197,C4,292.0,2.0,38,111.0
1198,C5,292.5,0.5,61,111.0
1199,D5,293.0,0.5,64,111.0
1200,A4,293.0,1.0,45,111.0
1201,E-5,293.5,0.5,62,111.0
1202,D2,294.0,2.0,51,111.0
1203,G4,294.0,0.5,61,111.0
1204,B-4,294.0,0.5,61,111.0
1205,C5,294.5,0.5,63,111.0
1206,C#5,295.0,0.5,66,111.0
1207,D5,295.5,0.5,69,111.0
1208,G5,296.0,0.5,70,111.0
1209,D4,296.0,0.5,44,111.0
1210,D5,296.5,0.5,66,111.0
1211,C4,297.0,0.5,51,111.0
1212,D3,297.0,2.5,48,111.0
1213,F#4,297.0,2.0,64,111.0
1214,B-4,297.0,2.0,64,111.0
1215,C#4,297.5,0.5,44,111.0
1216,D4,298.0,0.5,51,111.0
1217,C#4,298.5,167/1000,51,111.0
1218,D4,298.667,167/1000,45,111.0
1219,C#4,298.833,167/1000,45,111.0
1220,A4,299.0,0.875,65,111.0
1221,C4,299.0,0.5,51,111.0
1222,D3,299.5,0.5,44,111.0
1223,G4,299.875,0.125,55,111.0
1224,D5,299.938,0.062,56,111.0
1225,G5,300.0,0.5,60,111.0
1226,G4,300.0,0.5,55,111.0
1227,D5,300.0,0.5,56,111.0
1228,G2,300.0,0.5,44,111.0
1229,D3,300.0,0.5,44,111.0
1230,B-3,300.0,0.5,44,111.0
1231,D5,300.5,0.25,57,111.0
1232,B4,300.5,0.25,53,111.0
1233,E-5,301.0,0.25,60,111.0
1234,C5,301.0,0.25,57,111.0
1235,G5,301.5,0.25,57,111.0
1236,A4,301.5,0.25,54,111.0
1237,F#5,302.0,0.25,64,111.0
1238,D5,302.0,0.25,57,111.0
1239,A5,302.5,0.25,59,111.0
1240,C5,302.5,0.25,53,111.0
1241,G5,303.0,167/1000,64,111.0
1242,B-4,303.0,0.25,57,111.0
1243,A5,303.167,167/1000,54,111.0
1244,G5,303.333,167/1000,54,111.0
1245,F#5,303.5,0.25,58,111.0
1246,A4,303.5,0.25,54,111.0
1247,G5,304.0,0.25,63,111.0
1248,B-4,304.0,0.25,57,111.0
1249,B-5,304.5,0.25,60,111.0
1250,G4,304.5,0.25,54,111.0
1251,F#4,305.0,0.25,57,111.0
1252,D5,305.0,0.25,63,111.0
1253,A5,305.0,0.25,63,111.0
1254,C6,305.5,0.25,60,111.0
1255,D4,305.5,0.25,55,111.0
1256,B-5,306.0,0.25,64,111.0
1257,G4,306.0,0.25,57,111.0
1258,B4,306.5,0.25,52,111.0
1259,G#5,306.5,0.25,63,111.0
1260,F6,306.5,0.25,63,111.0
1261,D6,306.5,0.25,63,111.0
1262,C5,307.0,0.25,55,111.0
1263,E6,307.0,0.25,61,111.0
1264,C6,307.0,0.25,61,111.0
1265,G5,307.0,0.25,61,111.0
1266,A4,307.5,0.25,52,111.0
1267,F#5,307.5,0.25,60,111.0
1268,C6,307.5,0.25,60,111.0
1269,E-6,307.5,0.25,60,111.0
1270,B-4,308.0,0.25,55,111.0
1271,D6,308.0,0.25,58,111.0
1272,G5,308.0,0.25,58,111.0
1273,F#4,308.5,0.25,53,111.0
1274,C6,308.5,0.25,57,111.0
1275,A5,308.5,0.25,57,111.0
1276,D5,308.5,0.25,57,111.0
1277,G4,309.0,0.5,57,111.0
1278,D5,309.0,0.5,65,111.0
1279,G5,309.0,0.5,65,111.0
1280,B-5,309.0,0.5,65,111.0
1281,F4,309.5,0.5,52,111.0
1282,B4,309.5,0.5,60,111.0
1283,G#5,309.5,0.5,60,111.0
1284,G5,310.0,1.5,57,111.0
1285,C5,310.0,0.5,57,111.0
1286,E4,310.0,0.5,54,111.0
1287,C#5,310.5,0.5,60,111.0
1288,E-4,310.5,0.5,57,111.0
1289,D5,311.0,0.5,62,111.0
1290,D4,311.0,0.5,58,111.0
1291,C#4,311.5,0.5,61,111.0
1292,B-5,311.5,0.5,67,111.0
1293,G5,311.5,0.5,67,111.0
1294,E-5,311.5,0.5,67,111.0
1295,D2,312.0,0.5,59,111.0
1296,B-4,312.0,2.0,70,111.0
1297,D5,312.0,2.0,70,111.0
1298,B-5,312.0,2.0,70,111.0
1299,G5,312.0,2.0,70,111.0
1300,D4,312.5,1.0,57,111.0
1301,D4,313.5,1.0,51,111.0
1302,B-4,314.0,1.0,67,111.0
1303,D5,314.0,1.0,67,111.0
1304,D4,314.5,0.5,51,111.0
1305,D4,315.0,0.5,51,111.0
1306,A4,315.0,0.25,61,111.0
1307,C5,315.0,0.25,61,111.0
1308,D4,315.5,1.0,54,111.0
1309,C5,315.5,0.25,67,111.0
1310,E-5,315.5,0.25,67,111.0
1311,F5,316.0,0.5,70,111.0
1312,A5,316.0,0.5,70,111.0
1313,D4,316.5,1.0,54,111.0
1314,D5,317.0,0.25,71,111.0
1315,F5,317.0,0.25,71,111.0
1316,D4,317.5,0.5,52,111.0
1317,B-4,317.5,0.25,65,111.0
1318,D5,317.5,0.25,65,111.0
1319,D4,318.0,0.5,52,111.0
1320,G4,318.0,0.25,68,111.0
1321,B-4,318.0,0.25,68,111.0
1322,D4,318.5,1.0,58,111.0
1323,E-5,318.5,0.25,63,111.0
1324,G5,318.5,0.25,63,111.0
1325,C5,319.0,0.25,67,111.0
1326,E-5,319.0,0.25,67,111.0
1327,D4,319.5,1.0,51,111.0
1328,A4,319.5,0.25,63,111.0
1329,C5,319.5,0.25,63,111.0
1330,F#4,320.0,0.25,67,111.0
1331,A4,320.0,0.25,67,111.0
1332,D4,320.5,0.5,51,111.0
1333,D5,320.5,0.25,64,111.0
1334,F5,320.5,0.25,64,111.0
1335,D4,321.0,0.5,51,111.0
1336,B-4,321.0,0.5,70,111.0
1337,D5,321.0,0.5,70,111.0
1338,D4,321.5,0.5,51,111.0
1339,G4,321.5,0.5,65,111.0
1340,B-4,321.5,0.5,65,111.0
1341,E-4,322.0,1.0,62,111.0
1342,G4,322.0,0.5,69,111.0
1343,D4,322.0,1.0,46,111.0
1344,B-4,322.5,0.5,63,111.0
1345,A4,323.0,0.5,65,111.0
1346,D3,323.0,1.0,43,111.0
1347,C4,323.0,1.0,55,111.0
1348,F#4,323.0,1.0,55,111.0
1349,B-4,323.5,0.5,59,111.0
1350,G2,324.0,0.5,46,111.0
1351,B3,324.0,3.0,47,111.0
1352,D4,324.0,3.0,47,111.0
1353,G4,324.0,3.0,47,111.0
1354,B4,324.0,3.0,47,111.0
1355,C#3,324.5,0.5,43,111.0
1356,D3,325.0,0.5,46,111.0
1357,F3,325.5,73/250,43,111.0
1358,E-3,325.75,167/1000,47,111.0
1359,F3,325.875,167/1000,42,111.0
1360,E-3,326.0,0.5,51,111.0
1361,D3,326.5,0.5,51,111.0
1362,G#3,327.0,0.5,50,111.0
1363,G2,327.0,3.0,43,111.0
1364,E-3,327.0,3.0,43,111.0
1365,C4,327.5,0.5,51,111.0
1366,E-4,328.0,0.5,53,111.0
1367,G#4,328.5,0.5,54,111.0
1368,B-4,329.0,0.5,56,111.0
1369,C5,329.5,0.5,58,111.0
1370,G2,330.0,0.5,46,111.0
1371,D4,330.0,3.0,47,111.0
1372,G4,330.0,3.0,47,111.0
1373,B4,330.0,3.0,47,111.0
1374,D5,330.0,3.0,47,111.0
1375,C#3,330.5,0.5,43,111.0
1376,D3,331.0,0.5,46,111.0
1377,F3,331.5,73/250,43,111.0
1378,E-3,331.75,167/1000,47,111.0
1379,F3,331.875,167/1000,42,111.0
1380,E-3,332.0,0.5,51,111.0
1381,D3,332.5,0.5,51,111.0
1382,G#3,333.0,0.5,50,111.0
1383,G2,333.0,3.0,43,111.0
1384,E-3,333.0,3.0,43,111.0
1385,B-3,333.5,0.5,51,111.0
1386,C4,334.0,333/1000,56,111.0
1387,E-4,334.333,333/1000,53,111.0
1388,G#4,334.667,333/1000,53,111.0
1389,C5,335.0,333/1000,57,111.0
1390,E-5,335.333,333/1000,53,111.0
1391,C6,335.667,333/1000,53,111.0
1392,G2,336.0,0.5,46,111.0
1393,D5,336.0,3.0,55,111.0
1394,G5,336.0,3.0,55,111.0
1395,B5,336.0,3.0,55,111.0
1396,C#3,336.5,0.5,43,111.0
1397,D3,337.0,0.5,46,111.0
1398,F3,337.5,73/250,43,111.0
1399,E-3,337.75,167/1000,47,111.0
1400,F3,337.875,167/1000,42,111.0
1401,E-3,338.0,0.5,51,111.0
1402,D3,338.5,0.5,51,111.0
1403,G3,339.0,0.5,46,111.0
1404,B3,339.5,0.5,43,111.0
1405,C#4,340.0,0.5,46,111.0
1406,D4,340.5,417/1000,43,111.0
1407,F4,340.875,167/1000,42,111.0
1408,E-4,341.0,0.5,51,111.0
1409,D4,341.5,0.5,51,111.0
1410,G4,342.0,0.5,46,111.0
1411,B4,342.5,0.5,43,111.0
1412,C#5,343.0,0.5,46,111.0
1413,D5,343.5,417/1000,43,111.0
1414,F5,343.875,167/1000,42,111.0
1415,E-5,344.0,0.5,51,111.0
1416,D5,344.5,0.5,51,111.0
1417,D5,345.0,3.0,55,111.0
1418,G5,345.0,3.0,55,111.0
1419,B5,345.0,3.0,55,111.0
1420,G4,345.0,3.0,32,111.0
1421,D5,345.0,3.0,32,111.0
1422,G5,345.0,3.0,32,111.0
1423,G2,348.0,3.0,24,111.0
1424,D3,348.0,3.0,24,111.0
1425,G3,348.0,3.0,24,111.0
1426,D5,351.0,3.0,55,111.0
1427,G5,351.0,3.0,55,111.0
1428,B5,351.0,3.0,55,111.0
1429,G6,354.0,3.0,47,111.0
1430,B5,354.0,3.0,47,111.0
1431,D6,354.0,3.0,47,111.0
1432,B6,354.0,3.0,47,111.0
1433,B3,357.0,3.0,38,111.0
1434,D4,357.0,3.0,38,111.0
1435,G4,357.0,3.0,38,111.0
1436,B4,357.0,3.0,38,111.0
