,note_name,start_time,duration,velocity,tempo
0,B-3,0.0,0.5,38,118.97
1,G4,0.0,1.5,45,118.97
2,E-4,0.0,1.5,45,118.97
3,E-2,0.0,1.5,40,118.97
4,E-3,0.0,1.5,40,118.97
5,A3,0.5,0.5,37,118.97
6,B-3,1.0,0.5,38,118.97
7,G3,1.5,0.5,45,118.97
8,G3,2.0,0.5,47,118.97
9,G4,2.0,1.0,50,118.97
10,E-4,2.0,1.0,50,118.97
11,B-1,2.0,1.0,38,118.97
12,B-2,2.0,1.0,38,118.97
13,B-3,2.5,0.5,42,118.97
14,A3,3.0,0.5,38,118.97
15,D4,3.0,1.5,45,118.97
16,G#4,3.0,1.5,45,118.97
17,F3,3.0,1.5,40,118.97
18,F2,3.0,1.5,40,118.97
19,B-3,3.5,0.5,38,118.97
20,C4,4.0,0.5,42,118.97
21,C#4,4.5,0.5,39,118.97
22,D4,5.0,0.5,38,118.97
23,G#4,5.0,1.0,48,118.97
24,B-1,5.0,1.0,38,118.97
25,B-2,5.0,1.0,38,118.97
26,B-3,5.5,0.5,40,118.97
27,B-3,6.0,0.5,36,118.97
28,G4,6.0,1.5,42,118.97
29,E-4,6.0,1.5,42,118.97
30,E-3,6.0,1.5,37,118.97
31,E-2,6.0,1.5,37,118.97
32,A3,6.5,0.5,38,118.97
33,B-3,7.0,0.5,42,118.97
34,G3,7.5,0.5,45,118.97
35,G3,8.0,0.5,47,118.97
36,G4,8.0,1.0,50,118.97
37,E-4,8.0,1.0,50,118.97
38,B-1,8.0,1.0,38,118.97
39,B-2,8.0,1.0,38,118.97
40,B-3,8.5,0.5,41,118.97
41,A3,9.0,0.5,36,118.97
42,D4,9.0,1.5,42,118.97
43,G#4,9.0,1.5,42,118.97
44,F3,9.0,1.5,38,118.97
45,F2,9.0,1.5,38,118.97
46,B-3,9.5,0.5,37,118.97
47,C4,10.0,0.5,42,118.97
48,C#4,10.5,0.5,42,118.97
49,D4,11.0,0.5,38,118.97
50,G#4,11.0,1.0,48,118.97
51,B-1,11.0,1.0,38,118.97
52,B-2,11.0,1.0,38,118.97
53,B-3,11.5,0.5,40,118.97
54,E-3,12.0,0.5,44,118.97
55,E-4,12.0,0.5,47,118.97
56,E-5,12.0,0.5,47,118.97
57,G4,12.5,0.5,39,118.97
58,F4,12.5,0.5,41,118.97
59,F5,12.5,0.5,41,118.97
60,G5,13.0,0.5,49,118.97
61,G4,13.0,1.0,39,118.97
62,B-4,13.5,0.75,52,118.97
63,B-5,13.5,0.75,52,118.97
64,E-4,14.0,0.5,36,118.97
65,B-4,14.25,0.75,43,118.97
66,B-5,14.25,0.75,43,118.97
67,B-3,14.5,0.5,32,118.97
68,E-3,15.0,0.5,44,118.97
69,G#4,15.5,1.5,39,118.97
70,B-4,15.5,0.5,52,118.97
71,B-5,15.5,0.5,52,118.97
72,C5,16.0,0.5,50,118.97
73,C6,16.0,0.5,50,118.97
74,D5,16.5,0.5,55,118.97
75,D6,16.5,0.5,55,118.97
76,D4,17.0,0.5,37,118.97
77,F6,17.0,0.5,54,118.97
78,F5,17.0,0.5,54,118.97
79,B-3,17.5,0.5,37,118.97
80,D6,17.5,0.5,53,118.97
81,D5,17.5,0.5,53,118.97
82,E-3,18.0,0.5,44,118.97
83,C6,18.0,0.5,55,118.97
84,C5,18.0,0.5,55,118.97
85,G4,18.5,249/250,39,118.97
86,D5,18.5,0.5,53,118.97
87,D6,18.5,0.5,53,118.97
88,C5,19.0,0.5,46,118.97
89,C6,19.0,0.5,46,118.97
90,G4,19.5,0.75,51,118.97
91,G5,19.5,0.75,51,118.97
92,E-4,20.0,0.5,37,118.97
93,G4,20.25,0.75,43,118.97
94,G5,20.25,0.75,43,118.97
95,B-3,20.5,0.5,37,118.97
96,E-3,21.0,0.5,44,118.97
97,G#4,21.5,249/250,39,118.97
98,F4,21.5,0.5,52,118.97
99,F5,21.5,0.5,52,118.97
100,G4,22.0,0.5,50,118.97
101,G5,22.0,0.5,50,118.97
102,G#4,22.5,0.5,55,118.97
103,G#5,22.5,0.5,55,118.97
104,D4,23.0,0.5,37,118.97
105,B-5,23.0,0.5,53,118.97
106,B-4,23.0,0.5,53,118.97
107,B-3,23.5,0.5,37,118.97
108,G#5,23.5,0.5,53,118.97
109,G#4,23.5,0.5,53,118.97
110,E-3,24.0,0.5,44,118.97
111,G5,24.0,62/125,55,118.97
112,G4,24.0,62/125,55,118.97
113,G4,24.5,1.5,39,118.97
114,F4,24.5,0.5,50,118.97
115,F5,24.5,0.5,50,118.97
116,E-4,25.0,0.5,46,118.97
117,E-5,25.0,0.5,46,118.97
118,B-3,25.5,0.75,46,118.97
119,B-4,25.5,0.75,46,118.97
120,E-4,26.0,0.5,37,118.97
121,B-3,26.25,0.75,43,118.97
122,B-4,26.25,0.75,43,118.97
123,G3,26.5,0.5,36,118.97
124,B-2,27.0,0.5,44,118.97
125,D4,27.5,2.5,46,118.97
126,F4,27.5,0.5,52,118.97
127,G#3,27.5,1.5,39,118.97
128,G4,28.0,0.5,49,118.97
129,G#4,28.5,0.5,55,118.97
130,B-4,29.0,0.5,53,118.97
131,E3,29.0,0.5,37,118.97
132,G#4,29.5,0.25,53,118.97
133,F3,29.5,0.5,37,118.97
134,G4,29.75,0.125,49,118.97
135,G#4,29.875,0.125,50,118.97
136,E-4,30.0,1.0,48,118.97
137,G4,30.0,0.5,55,118.97
138,B-2,30.0,0.5,44,118.97
139,F4,30.5,0.5,50,118.97
140,G3,30.5,1.5,39,118.97
141,E-4,31.0,0.5,46,118.97
142,B-3,31.5,62/125,51,118.97
143,C4,32.0,0.5,50,118.97
144,B-3,32.0,0.5,37,118.97
145,E-4,32.5,0.5,50,118.97
146,G3,32.5,0.5,37,118.97
147,B-2,33.0,0.5,44,118.97
148,G#3,33.0,0.5,52,118.97
149,D4,33.0,0.5,52,118.97
150,F4,33.5,0.5,50,118.97
151,G#3,33.5,1.5,39,118.97
152,D4,34.0,0.25,46,118.97
153,C4,34.25,0.125,41,118.97
154,D4,34.375,0.125,41,118.97
155,C4,34.5,0.75,50,118.97
156,E3,35.0,0.5,37,118.97
157,B-3,35.25,0.75,45,118.97
158,G#3,35.25,0.75,45,118.97
159,F3,35.5,0.5,37,118.97
160,B-3,36.0,0.5,38,118.97
161,G4,36.0,1.5,45,118.97
162,E-4,36.0,1.5,45,118.97
163,E-2,36.0,1.5,40,118.97
164,E-3,36.0,1.5,40,118.97
165,A3,36.5,0.5,41,118.97
166,B-3,37.0,0.5,41,118.97
167,G3,37.5,0.5,47,118.97
168,G3,38.0,0.5,47,118.97
169,G4,38.0,1.0,50,118.97
170,E-4,38.0,1.0,50,118.97
171,B-1,38.0,1.0,38,118.97
172,B-2,38.0,1.0,38,118.97
173,B-3,38.5,0.5,42,118.97
174,A3,39.0,0.5,38,118.97
175,D4,39.0,1.5,45,118.97
176,G#4,39.0,1.5,45,118.97
177,F2,39.0,1.5,40,118.97
178,F3,39.0,1.5,40,118.97
179,B-3,39.5,0.5,38,118.97
180,C4,40.0,0.5,42,118.97
181,C#4,40.5,0.5,39,118.97
182,D4,41.0,0.5,38,118.97
183,G#4,41.0,1.0,48,118.97
184,B-1,41.0,1.0,38,118.97
185,B-2,41.0,1.0,38,118.97
186,B-3,41.5,0.5,40,118.97
187,B-3,42.0,0.5,36,118.97
188,G4,42.0,1.5,42,118.97
189,E-4,42.0,1.5,42,118.97
190,E-2,42.0,1.5,37,118.97
191,E-3,42.0,1.5,37,118.97
192,A3,42.5,0.5,44,118.97
193,B-3,43.0,0.5,44,118.97
194,G3,43.5,0.5,47,118.97
195,G3,44.0,0.5,47,118.97
196,G4,44.0,1.0,50,118.97
197,E-4,44.0,1.0,50,118.97
198,B-1,44.0,1.0,38,118.97
199,B-2,44.0,1.0,38,118.97
200,B-3,44.5,0.5,41,118.97
201,A3,45.0,0.5,36,118.97
202,D4,45.0,1.5,42,118.97
203,G#4,45.0,1.5,42,118.97
204,F2,45.0,1.5,38,118.97
205,F3,45.0,1.5,38,118.97
206,B-3,45.5,0.5,39,118.97
207,C4,46.0,0.5,42,118.97
208,C#4,46.5,0.5,39,118.97
209,D4,47.0,0.5,38,118.97
210,G#4,47.0,1.0,48,118.97
211,B-1,47.0,1.0,38,118.97
212,B-2,47.0,1.0,38,118.97
213,B-3,47.5,0.5,40,118.97
214,E-3,48.0,0.5,44,118.97
215,E-4,48.0,0.5,47,118.97
216,E-5,48.0,0.5,47,118.97
217,G4,48.5,0.5,39,118.97
218,F4,48.5,0.5,41,118.97
219,F5,48.5,0.5,41,118.97
220,G5,49.0,0.5,42,118.97
221,G4,49.0,1.0,39,118.97
222,B-4,49.5,0.75,54,118.97
223,B-5,49.5,0.75,54,118.97
224,E-4,50.0,0.5,37,118.97
225,B-4,50.25,0.75,43,118.97
226,B-5,50.25,0.75,43,118.97
227,B-3,50.5,0.5,37,118.97
228,E-3,51.0,0.5,44,118.97
229,G#4,51.5,1.5,39,118.97
230,B-4,51.5,0.5,52,118.97
231,B-5,51.5,0.5,52,118.97
232,C5,52.0,0.5,48,118.97
233,C6,52.0,0.5,48,118.97
234,D5,52.5,0.5,55,118.97
235,D6,52.5,0.5,55,118.97
236,D4,53.0,0.5,37,118.97
237,F6,53.0,0.5,50,118.97
238,F5,53.0,0.5,50,118.97
239,B-3,53.5,0.5,37,118.97
240,D6,53.5,0.5,53,118.97
241,D5,53.5,0.5,53,118.97
242,E-3,54.0,0.5,44,118.97
243,C6,54.0,0.5,55,118.97
244,C5,54.0,0.5,55,118.97
245,G4,54.5,249/250,39,118.97
246,D5,54.5,0.5,53,118.97
247,D6,54.5,0.5,53,118.97
248,C5,55.0,0.5,46,118.97
249,C6,55.0,0.5,46,118.97
250,G4,55.5,0.75,51,118.97
251,G5,55.5,0.75,51,118.97
252,E-4,56.0,0.5,37,118.97
253,G4,56.25,0.75,43,118.97
254,G5,56.25,0.75,43,118.97
255,B-3,56.5,0.5,33,118.97
256,E-3,57.0,0.5,44,118.97
257,G#4,57.5,249/250,39,118.97
258,F4,57.5,0.5,52,118.97
259,F5,57.5,0.5,52,118.97
260,G4,58.0,0.5,53,118.97
261,G5,58.0,0.5,53,118.97
262,G#4,58.5,0.5,53,118.97
263,G#5,58.5,0.5,53,118.97
264,D4,59.0,0.5,37,118.97
265,B-5,59.0,0.5,53,118.97
266,B-4,59.0,0.5,53,118.97
267,B-3,59.5,0.5,37,118.97
268,G#5,59.5,0.5,53,118.97
269,G#4,59.5,0.5,53,118.97
270,E-3,60.0,0.5,44,118.97
271,G5,60.0,62/125,55,118.97
272,G4,60.0,62/125,55,118.97
273,G4,60.5,1.5,39,118.97
274,F4,60.5,0.5,48,118.97
275,F5,60.5,0.5,48,118.97
276,E-4,61.0,0.5,46,118.97
277,E-5,61.0,0.5,46,118.97
278,B-3,61.5,0.75,49,118.97
279,B-4,61.5,0.75,49,118.97
280,E-4,62.0,0.5,37,118.97
281,B-3,62.25,0.75,43,118.97
282,B-4,62.25,0.75,43,118.97
283,G3,62.5,0.5,35,118.97
284,B-2,63.0,0.5,44,118.97
285,D4,63.5,2.5,46,118.97
286,F4,63.5,0.5,52,118.97
287,G#3,63.5,1.5,39,118.97
288,G4,64.0,0.5,53,118.97
289,G#4,64.5,0.5,55,118.97
290,B-4,65.0,0.5,53,118.97
291,E3,65.0,0.5,37,118.97
292,G#4,65.5,0.25,53,118.97
293,F3,65.5,0.5,37,118.97
294,G4,65.75,0.125,49,118.97
295,G#4,65.875,0.125,50,118.97
296,E-4,66.0,1.0,48,118.97
297,G4,66.0,0.5,55,118.97
298,B-2,66.0,0.5,44,118.97
299,F4,66.5,0.5,50,118.97
300,G3,66.5,1.5,39,118.97
301,E-4,67.0,0.5,46,118.97
302,B-3,67.5,62/125,51,118.97
303,C4,68.0,0.5,50,118.97
304,B-3,68.0,0.5,37,118.97
305,E-4,68.5,0.5,50,118.97
306,G3,68.5,0.5,37,118.97
307,B-2,69.0,0.5,44,118.97
308,G#3,69.0,0.5,52,118.97
309,D4,69.0,0.5,52,118.97
310,F4,69.5,0.5,50,118.97
311,G#3,69.5,1.5,39,118.97
312,D4,70.0,0.25,46,118.97
313,C4,70.25,0.125,41,118.97
314,D4,70.375,0.125,41,118.97
315,C4,70.5,0.75,50,118.97
316,E3,71.0,0.5,37,118.97
317,B-3,71.25,0.75,45,118.97
318,G#3,71.25,0.75,45,118.97
319,F3,71.5,0.5,37,118.97
320,B-3,72.0,0.5,38,118.97
321,G4,72.0,1.5,45,118.97
322,E-4,72.0,1.5,45,118.97
323,E-2,72.0,1.5,40,118.97
324,E-3,72.0,1.5,40,118.97
325,A3,72.5,0.5,44,118.97
326,B-3,73.0,0.5,44,118.97
327,G3,73.5,0.5,47,118.97
328,G3,74.0,0.5,47,118.97
329,G4,74.0,1.0,50,118.97
330,E-4,74.0,1.0,50,118.97
331,B-1,74.0,1.0,38,118.97
332,B-2,74.0,1.0,38,118.97
333,B-3,74.5,0.5,42,118.97
334,A3,75.0,0.5,38,118.97
335,D4,75.0,1.5,45,118.97
336,G#4,75.0,1.5,45,118.97
337,F2,75.0,1.5,40,118.97
338,F3,75.0,1.5,40,118.97
339,B-3,75.5,0.5,42,118.97
340,C4,76.0,0.5,42,118.97
341,C#4,76.5,0.5,42,118.97
342,D4,77.0,0.5,38,118.97
343,G#4,77.0,1.0,48,118.97
344,B-1,77.0,1.0,38,118.97
345,B-2,77.0,1.0,38,118.97
346,B-3,77.5,0.5,40,118.97
347,B-3,78.0,0.5,36,118.97
348,G4,78.0,1.5,42,118.97
349,E-4,78.0,1.5,42,118.97
350,E-2,78.0,1.5,37,118.97
351,E-3,78.0,1.5,37,118.97
352,A3,78.5,0.5,44,118.97
353,B-3,79.0,0.5,44,118.97
354,G3,79.5,0.5,47,118.97
355,G3,80.0,0.5,47,118.97
356,G4,80.0,1.0,50,118.97
357,E-4,80.0,1.0,50,118.97
358,B-1,80.0,1.0,38,118.97
359,B-2,80.0,1.0,38,118.97
360,B-3,80.5,0.5,41,118.97
361,A3,81.0,0.5,36,118.97
362,D4,81.0,1.5,42,118.97
363,G#4,81.0,1.5,42,118.97
364,F2,81.0,1.5,38,118.97
365,F3,81.0,1.5,38,118.97
366,B-3,81.5,0.5,42,118.97
367,C4,82.0,0.5,42,118.97
368,C#4,82.5,0.5,38,118.97
369,D4,83.0,0.5,38,118.97
370,G#4,83.0,1.0,48,118.97
371,B-1,83.0,1.0,38,118.97
372,B-2,83.0,1.0,38,118.97
373,B-3,83.5,0.5,40,118.97
374,E-3,84.0,0.5,44,118.97
375,E-4,84.0,0.5,47,118.97
376,E-5,84.0,0.5,47,118.97
377,G4,84.5,0.5,39,118.97
378,F4,84.5,0.5,46,118.97
379,F5,84.5,0.5,46,118.97
380,G5,85.0,0.5,42,118.97
381,G4,85.0,1.0,41,118.97
382,B-4,85.5,1.5,53,118.97
383,B-5,85.5,1.5,53,118.97
384,E-4,86.0,0.5,37,118.97
385,B-3,86.5,0.5,37,118.97
386,E-3,87.0,0.5,44,118.97
387,G#4,87.5,1.5,39,118.97
388,B-4,87.5,0.5,52,118.97
389,B-5,87.5,0.5,52,118.97
390,C5,88.0,0.5,50,118.97
391,C6,88.0,0.5,50,118.97
392,C#5,88.5,0.5,55,118.97
393,C#6,88.5,0.5,55,118.97
394,C#4,89.0,0.5,37,118.97
395,F6,89.0,0.5,42,118.97
396,F5,89.0,0.5,42,118.97
397,B-3,89.5,0.5,37,118.97
398,C#6,89.5,0.5,53,118.97
399,C#5,89.5,0.5,53,118.97
400,E-3,90.0,0.5,44,118.97
401,C6,90.0,0.5,55,118.97
402,C5,90.0,0.5,55,118.97
403,G4,90.5,1.5,39,118.97
404,B-4,90.5,0.5,52,118.97
405,B-5,90.5,0.5,52,118.97
406,E-4,91.0,0.5,46,118.97
407,E-5,91.0,0.5,46,118.97
408,E-4,91.5,0.5,51,118.97
409,E-5,91.5,0.5,51,118.97
410,C#4,92.0,0.5,37,118.97
411,F4,92.0,1.0,50,118.97
412,F5,92.0,1.0,50,118.97
413,B-3,92.5,0.5,37,118.97
414,E-3,93.0,0.5,44,118.97
415,C#4,93.5,1.5,39,118.97
416,G4,93.5,0.5,52,118.97
417,G5,93.5,0.5,52,118.97
418,G#4,94.0,0.5,49,118.97
419,G#5,94.0,0.5,49,118.97
420,B-4,94.5,0.5,55,118.97
421,B-5,94.5,0.5,55,118.97
422,G3,95.0,0.5,37,118.97
423,E-6,95.0,0.5,55,118.97
424,E-5,95.0,0.5,55,118.97
425,E-3,95.5,0.5,37,118.97
426,C6,95.5,0.5,49,118.97
427,C5,95.5,0.5,49,118.97
428,G#2,96.0,0.5,44,118.97
429,B-5,96.0,0.5,55,118.97
430,B-4,96.0,0.5,55,118.97
431,C4,96.5,1.5,39,118.97
432,G#4,96.5,0.5,50,118.97
433,G#5,96.5,0.5,50,118.97
434,E-4,97.0,0.5,46,118.97
435,E-5,97.0,0.5,46,118.97
436,E-4,97.5,0.5,51,118.97
437,E-5,97.5,0.5,51,118.97
438,G#3,98.0,0.5,39,118.97
439,G#4,98.0,1.0,55,118.97
440,G#5,98.0,1.0,55,118.97
441,E-3,98.5,0.5,39,118.97
442,G#2,99.0,0.5,48,118.97
443,E-4,99.5,1.5,42,118.97
444,G#4,99.5,0.5,55,118.97
445,G#5,99.5,0.5,55,118.97
446,C5,100.0,1.5,56,118.97
447,E-5,100.0,1.5,56,118.97
448,C6,100.0,1.5,56,118.97
449,G#5,100.0,1.5,56,118.97
450,C4,101.0,0.5,48,118.97
451,G#3,101.5,0.5,46,118.97
452,E-6,101.5,1.0,61,118.97
453,C6,101.5,1.0,61,118.97
454,G#5,101.5,1.0,61,118.97
455,E-5,101.5,1.0,61,118.97
456,G#2,102.0,0.5,50,118.97
457,B3,102.5,1.5,45,118.97
458,E-4,103.0,1.5,57,118.97
459,E-5,103.0,1.5,57,118.97
460,G#3,104.0,0.5,44,118.97
461,E-3,104.5,0.5,45,118.97
462,G#4,104.5,1.0,64,118.97
463,G#5,104.5,1.0,64,118.97
464,G#2,105.0,0.5,54,118.97
465,E-4,105.5,1.5,49,118.97
466,G#4,105.5,0.5,64,118.97
467,G#5,105.5,0.5,64,118.97
468,B4,106.0,1.5,62,118.97
469,E-5,106.0,1.5,62,118.97
470,B5,106.0,1.5,62,118.97
471,G#5,106.0,1.5,62,118.97
472,B3,107.0,0.5,48,118.97
473,G#3,107.5,0.5,49,118.97
474,E-6,107.5,1.0,65,118.97
475,B5,107.5,1.0,65,118.97
476,G#5,107.5,1.0,65,118.97
477,E-5,107.5,1.0,65,118.97
478,B-2,108.0,0.5,65,118.97
479,G4,108.5,0.5,45,118.97
480,E-4,108.5,0.5,53,118.97
481,E-5,108.5,0.5,53,118.97
482,G4,109.0,1.0,45,118.97
483,F4,109.0,0.5,56,118.97
484,F5,109.0,0.5,56,118.97
485,G5,109.5,0.5,55,118.97
486,E-4,110.0,0.5,43,118.97
487,B-4,110.0,0.75,60,118.97
488,B-5,110.0,0.75,60,118.97
489,B-3,110.5,0.5,43,118.97
490,B-4,110.75,0.75,48,118.97
491,B-5,110.75,0.75,48,118.97
492,B-2,111.0,0.5,51,118.97
493,G#4,111.5,1.5,45,118.97
494,B-4,112.0,0.5,58,118.97
495,B-5,112.0,0.5,58,118.97
496,C5,112.5,0.5,60,118.97
497,C6,112.5,0.5,60,118.97
498,D4,113.0,0.5,43,118.97
499,D5,113.0,0.5,66,118.97
500,D6,113.0,0.5,66,118.97
501,B-3,113.5,0.5,43,118.97
502,F6,113.5,0.5,58,118.97
503,F5,113.5,0.5,58,118.97
504,E-3,114.0,0.5,51,118.97
505,D6,114.0,0.5,60,118.97
506,D5,114.0,0.5,60,118.97
507,G4,114.5,249/250,45,118.97
508,C6,114.5,0.5,68,118.97
509,C5,114.5,0.5,68,118.97
510,D5,115.0,0.5,60,118.97
511,D6,115.0,0.5,60,118.97
512,C5,115.5,0.5,51,118.97
513,C6,115.5,0.5,51,118.97
514,E-4,116.0,0.5,43,118.97
515,G4,116.0,0.75,57,118.97
516,G5,116.0,0.75,57,118.97
517,B-3,116.5,0.5,43,118.97
518,G4,116.75,0.75,48,118.97
519,G5,116.75,0.75,48,118.97
520,C3,117.0,0.5,51,118.97
521,C#4,117.5,1.5,45,118.97
522,B-4,118.0,0.5,57,118.97
523,B-5,118.0,0.5,57,118.97
524,C5,118.5,0.5,51,118.97
525,C6,118.5,0.5,51,118.97
526,C4,119.0,0.5,43,118.97
527,B-4,119.0,0.5,60,118.97
528,B-5,119.0,0.5,60,118.97
529,E4,119.5,0.5,43,118.97
530,G#5,119.5,0.5,56,118.97
531,G#4,119.5,0.5,56,118.97
532,F2,120.0,0.5,51,118.97
533,G5,120.0,0.5,54,118.97
534,G4,120.0,0.5,54,118.97
535,E-4,120.5,1.5,45,118.97
536,F5,120.5,0.5,57,118.97
537,F4,120.5,0.5,57,118.97
538,G4,121.0,0.5,54,118.97
539,G5,121.0,0.5,54,118.97
540,G#4,121.5,0.5,52,118.97
541,G#5,121.5,0.5,52,118.97
542,F3,122.0,0.5,43,118.97
543,E-5,122.0,0.75,64,118.97
544,E-6,122.0,0.75,64,118.97
545,E-4,122.5,0.5,43,118.97
546,C5,122.75,0.75,53,118.97
547,C6,122.75,0.75,53,118.97
548,B-2,123.0,0.5,51,118.97
549,G#3,123.5,1.5,45,118.97
550,C5,124.0,0.5,57,118.97
551,C6,124.0,0.5,57,118.97
552,E-5,124.5,0.5,54,118.97
553,E-6,124.5,0.5,54,118.97
554,F3,125.0,0.5,43,118.97
555,C5,125.0,0.5,57,118.97
556,C6,125.0,0.5,57,118.97
557,E-4,125.5,0.5,43,118.97
558,G#5,125.5,0.5,54,118.97
559,G#4,125.5,0.5,54,118.97
560,B-2,126.0,0.5,48,118.97
561,G5,126.0,0.5,54,118.97
562,G4,126.0,0.5,54,118.97
563,E-4,126.5,1.5,45,118.97
564,F5,126.5,0.5,54,118.97
565,F4,126.5,0.5,54,118.97
566,G4,127.0,0.5,54,118.97
567,G5,127.0,0.5,54,118.97
568,G#4,127.5,0.5,52,118.97
569,G#5,127.5,0.5,52,118.97
570,B-3,128.0,0.5,43,118.97
571,D5,128.0,0.75,62,118.97
572,D6,128.0,0.75,62,118.97
573,G#4,128.5,0.5,43,118.97
574,C5,128.75,0.75,52,118.97
575,C6,128.75,0.75,52,118.97
576,B-2,129.0,0.5,45,118.97
577,G3,129.5,0.5,40,118.97
578,G#3,130.0,0.5,38,118.97
579,C5,130.0,0.5,52,118.97
580,C6,130.0,0.5,52,118.97
581,C4,130.5,0.75,35,118.97
582,E4,130.5,0.5,48,118.97
583,E5,130.5,0.5,48,118.97
584,F4,131.0,0.5,44,118.97
585,F5,131.0,0.5,44,118.97
586,B-3,131.25,0.75,34,118.97
587,G#4,131.5,0.75,52,118.97
588,G#5,131.5,0.75,52,118.97
589,E-2,132.0,1.5,40,118.97
590,E-3,132.0,1.5,40,118.97
591,G4,132.25,0.75,47,118.97
592,G5,132.25,0.75,47,118.97
593,B-3,133.0,0.5,38,118.97
594,G4,133.0,1.5,45,118.97
595,E-4,133.0,1.5,45,118.97
596,A3,133.5,0.5,44,118.97
597,B-3,134.0,0.5,44,118.97
598,B-1,134.0,1.0,38,118.97
599,B-2,134.0,1.0,38,118.97
600,G3,134.5,0.5,47,118.97
601,G3,135.0,0.5,47,118.97
602,G4,135.0,1.0,50,118.97
603,E-4,135.0,1.0,50,118.97
604,F2,135.0,1.5,40,118.97
605,F3,135.0,1.5,40,118.97
606,B-3,135.5,0.5,42,118.97
607,A3,136.0,0.5,38,118.97
608,D4,136.0,1.5,45,118.97
609,G#4,136.0,1.5,45,118.97
610,B-3,136.5,0.5,37,118.97
611,C4,137.0,0.5,42,118.97
612,B-1,137.0,1.0,38,118.97
613,B-2,137.0,1.0,38,118.97
614,C#4,137.5,0.5,38,118.97
615,D4,138.0,0.5,38,118.97
616,G#4,138.0,1.0,48,118.97
617,E-2,138.0,1.5,37,118.97
618,E-3,138.0,1.5,37,118.97
619,B-3,138.5,0.5,40,118.97
620,B-3,139.0,0.5,36,118.97
621,G4,139.0,1.5,42,118.97
622,E-4,139.0,1.5,42,118.97
623,A3,139.5,0.5,40,118.97
624,B-3,140.0,0.5,44,118.97
625,B-1,140.0,1.0,38,118.97
626,B-2,140.0,1.0,38,118.97
627,G3,140.5,0.5,47,118.97
628,G3,141.0,0.5,47,118.97
629,G4,141.0,1.0,50,118.97
630,E-4,141.0,1.0,50,118.97
631,F2,141.0,1.5,38,118.97
632,F3,141.0,1.5,38,118.97
633,B-3,141.5,0.5,41,118.97
634,A3,142.0,0.5,36,118.97
635,D4,142.0,1.5,42,118.97
636,G#4,142.0,1.5,42,118.97
637,B-3,142.5,0.5,38,118.97
638,C4,143.0,0.5,42,118.97
639,B-1,143.0,1.0,38,118.97
640,B-2,143.0,1.0,38,118.97
641,C#4,143.5,0.5,38,118.97
642,D4,144.0,0.5,38,118.97
643,G#4,144.0,1.0,48,118.97
644,E-3,144.0,0.5,29,118.97
645,B-3,144.5,0.5,40,118.97
646,G4,144.5,0.5,26,118.97
647,G4,145.0,1.0,26,118.97
648,E-4,145.0,0.5,31,118.97
649,E-5,145.0,0.5,31,118.97
650,F4,145.5,0.5,32,118.97
651,F5,145.5,0.5,32,118.97
652,G5,146.0,0.5,32,118.97
653,E-4,146.0,0.5,24,118.97
654,B-3,146.5,0.5,23,118.97
655,B-4,146.5,0.75,36,118.97
656,B-5,146.5,0.75,36,118.97
657,F3,147.0,0.5,29,118.97
658,B-4,147.25,0.75,28,118.97
659,B-5,147.25,0.75,28,118.97
660,G#4,147.5,1.5,26,118.97
661,B-4,148.5,0.5,35,118.97
662,B-5,148.5,0.5,35,118.97
663,D4,149.0,0.5,24,118.97
664,C5,149.0,0.5,29,118.97
665,C6,149.0,0.5,29,118.97
666,B-3,149.5,0.5,24,118.97
667,D5,149.5,0.5,36,118.97
668,D6,149.5,0.5,36,118.97
669,E-3,150.0,0.5,29,118.97
670,F6,150.0,0.5,36,118.97
671,F5,150.0,0.5,36,118.97
672,G4,150.5,249/250,26,118.97
673,D6,150.5,0.5,36,118.97
674,D5,150.5,0.5,36,118.97
675,C6,151.0,0.5,36,118.97
676,C5,151.0,0.5,36,118.97
677,D5,151.5,0.5,36,118.97
678,D6,151.5,0.5,36,118.97
679,E-4,152.0,0.5,24,118.97
680,C5,152.0,0.5,31,118.97
681,C6,152.0,0.5,31,118.97
682,B-3,152.5,0.5,24,118.97
683,G4,152.5,0.75,34,118.97
684,G5,152.5,0.75,34,118.97
685,F3,153.0,0.5,29,118.97
686,G4,153.25,0.75,28,118.97
687,G5,153.25,0.75,28,118.97
688,G#4,153.5,249/250,26,118.97
689,F4,154.5,0.5,35,118.97
690,F5,154.5,0.5,35,118.97
691,D4,155.0,0.5,24,118.97
692,G4,155.0,0.5,36,118.97
693,G5,155.0,0.5,36,118.97
694,B-3,155.5,0.5,24,118.97
695,G#4,155.5,0.5,36,118.97
696,G#5,155.5,0.5,36,118.97
697,E-3,156.0,0.5,29,118.97
698,B-5,156.0,0.5,36,118.97
699,B-4,156.0,0.5,36,118.97
700,G4,156.5,1.5,26,118.97
701,G#5,156.5,0.5,32,118.97
702,G#4,156.5,0.5,32,118.97
703,G5,157.0,62/125,36,118.97
704,G4,157.0,62/125,36,118.97
705,F4,157.5,0.5,33,118.97
706,F5,157.5,0.5,33,118.97
707,E-4,158.0,0.5,24,118.97
708,E-4,158.0,0.5,31,118.97
709,E-5,158.0,0.5,31,118.97
710,G3,158.5,0.5,24,118.97
711,B-3,158.5,0.75,34,118.97
712,B-4,158.5,0.75,34,118.97
713,B-2,159.0,0.5,29,118.97
714,B-3,159.25,0.75,28,118.97
715,B-4,159.25,0.75,28,118.97
716,G#3,159.5,1.5,26,118.97
717,D4,160.5,2.5,31,118.97
718,F4,160.5,0.5,35,118.97
719,G4,161.0,0.5,36,118.97
720,E3,161.0,0.5,24,118.97
721,G#4,161.5,0.5,36,118.97
722,F3,161.5,0.5,24,118.97
723,B-4,162.0,0.5,36,118.97
724,B-2,162.0,0.5,29,118.97
725,G#4,162.5,0.25,36,118.97
726,G3,162.5,1.5,26,118.97
727,G4,162.75,0.125,32,118.97
728,G#4,162.875,0.125,33,118.97
729,E-4,163.0,1.0,32,118.97
730,G4,163.0,0.5,36,118.97
731,F4,163.5,0.5,33,118.97
732,E-4,164.0,0.5,31,118.97
733,B-3,164.0,0.5,24,118.97
734,B-3,164.5,62/125,34,118.97
735,G3,164.5,0.5,24,118.97
736,C4,165.0,0.5,33,118.97
737,B-2,165.0,0.5,29,118.97
738,E-4,165.5,0.5,33,118.97
739,G#3,165.5,1.5,26,118.97
740,G#3,166.0,0.5,34,118.97
741,D4,166.0,0.5,34,118.97
742,F4,166.5,0.5,33,118.97
743,D4,167.0,0.25,31,118.97
744,E3,167.0,0.5,24,118.97
745,C4,167.25,0.125,27,118.97
746,D4,167.375,0.125,27,118.97
747,C4,167.5,0.75,33,118.97
748,F3,167.5,0.5,24,118.97
749,E-3,168.0,0.5,29,118.97
750,B-3,168.25,0.75,30,118.97
751,G#3,168.25,0.75,30,118.97
752,G4,168.5,0.5,26,118.97
753,G4,169.0,1.0,26,118.97
754,E-4,169.0,0.5,31,118.97
755,E-5,169.0,0.5,31,118.97
756,F4,169.5,0.5,28,118.97
757,F5,169.5,0.5,28,118.97
758,G5,170.0,0.5,32,118.97
759,E-4,170.0,0.5,24,118.97
760,B-3,170.5,0.5,24,118.97
761,B-4,170.5,0.75,36,118.97
762,B-5,170.5,0.75,36,118.97
763,F3,171.0,0.5,29,118.97
764,B-4,171.25,0.75,28,118.97
765,B-5,171.25,0.75,28,118.97
766,G#4,171.5,1.5,26,118.97
767,B-4,172.5,0.5,35,118.97
768,B-5,172.5,0.5,35,118.97
769,D4,173.0,0.5,24,118.97
770,C5,173.0,0.5,31,118.97
771,C6,173.0,0.5,31,118.97
772,B-3,173.5,0.5,24,118.97
773,D5,173.5,0.5,36,118.97
774,D6,173.5,0.5,36,118.97
775,E-3,174.0,0.5,29,118.97
776,F6,174.0,0.5,35,118.97
777,F5,174.0,0.5,35,118.97
778,G4,174.5,249/250,26,118.97
779,D6,174.5,0.5,36,118.97
780,D5,174.5,0.5,36,118.97
781,C6,175.0,0.5,36,118.97
782,C5,175.0,0.5,36,118.97
783,D5,175.5,0.5,36,118.97
784,D6,175.5,0.5,36,118.97
785,E-4,176.0,0.5,24,118.97
786,C5,176.0,0.5,28,118.97
787,C6,176.0,0.5,28,118.97
788,B-3,176.5,0.5,24,118.97
789,G4,176.5,0.75,34,118.97
790,G5,176.5,0.75,34,118.97
791,F3,177.0,0.5,29,118.97
792,G4,177.25,0.75,28,118.97
793,G5,177.25,0.75,28,118.97
794,G#4,177.5,249/250,26,118.97
795,F4,178.5,0.5,35,118.97
796,F5,178.5,0.5,35,118.97
797,D4,179.0,0.5,24,118.97
798,G4,179.0,0.5,36,118.97
799,G5,179.0,0.5,36,118.97
800,B-3,179.5,0.5,24,118.97
801,G#4,179.5,0.5,36,118.97
802,G#5,179.5,0.5,36,118.97
803,E-3,180.0,0.5,29,118.97
804,B-5,180.0,0.5,36,118.97
805,B-4,180.0,0.5,36,118.97
806,G4,180.5,1.5,26,118.97
807,G#5,180.5,0.5,36,118.97
808,G#4,180.5,0.5,36,118.97
809,G5,181.0,62/125,36,118.97
810,G4,181.0,62/125,36,118.97
811,F4,181.5,0.5,33,118.97
812,F5,181.5,0.5,33,118.97
813,E-4,182.0,0.5,24,118.97
814,E-4,182.0,0.5,31,118.97
815,E-5,182.0,0.5,31,118.97
816,G3,182.5,0.5,24,118.97
817,B-3,182.5,0.75,34,118.97
818,B-4,182.5,0.75,34,118.97
819,B-2,183.0,0.5,29,118.97
820,B-3,183.25,0.75,28,118.97
821,B-4,183.25,0.75,28,118.97
822,G#3,183.5,1.5,26,118.97
823,D4,184.5,2.5,31,118.97
824,F4,184.5,0.5,35,118.97
825,G4,185.0,0.5,36,118.97
826,E3,185.0,0.5,24,118.97
827,G#4,185.5,0.5,36,118.97
828,F3,185.5,0.5,24,118.97
829,B-4,186.0,0.5,36,118.97
830,B-2,186.0,0.5,29,118.97
831,G#4,186.5,0.25,36,118.97
832,G3,186.5,1.5,26,118.97
833,G4,186.75,0.125,32,118.97
834,G#4,186.875,0.125,33,118.97
835,E-4,187.0,1.0,32,118.97
836,G4,187.0,0.5,36,118.97
837,F4,187.5,0.5,33,118.97
838,E-4,188.0,0.5,31,118.97
839,B-3,188.0,0.5,24,118.97
840,B-3,188.5,62/125,34,118.97
841,G3,188.5,0.5,24,118.97
842,C4,189.0,0.5,33,118.97
843,B-2,189.0,0.5,29,118.97
844,E-4,189.5,0.5,33,118.97
845,G#3,189.5,1.5,26,118.97
846,G#3,190.0,0.5,34,118.97
847,D4,190.0,0.5,34,118.97
848,F4,190.5,0.5,33,118.97
849,D4,191.0,0.25,31,118.97
850,E3,191.0,0.5,24,118.97
851,C4,191.25,0.125,27,118.97
852,D4,191.375,0.125,27,118.97
853,C4,191.5,0.75,33,118.97
854,F3,191.5,0.5,24,118.97
855,E-2,192.0,1.5,30,118.97
856,E-3,192.0,1.5,30,118.97
857,B-3,192.25,0.75,30,118.97
858,G#3,192.25,0.75,30,118.97
859,B-3,193.0,0.5,28,118.97
860,G4,193.0,1.5,33,118.97
861,E-4,193.0,1.5,33,118.97
862,A3,193.5,0.5,33,118.97
863,B-3,194.0,0.5,33,118.97
864,B-1,194.0,1.0,28,118.97
865,B-2,194.0,1.0,28,118.97
866,G3,194.5,0.5,35,118.97
867,G3,195.0,0.5,35,118.97
868,G4,195.0,1.0,37,118.97
869,E-4,195.0,1.0,37,118.97
870,F2,195.0,1.5,30,118.97
871,F3,195.0,1.5,30,118.97
872,B-3,195.5,0.5,31,118.97
873,A3,196.0,0.5,28,118.97
874,D4,196.0,1.5,33,118.97
875,G#4,196.0,1.5,33,118.97
876,B-3,196.5,0.5,31,118.97
877,C4,197.0,0.5,31,118.97
878,B-1,197.0,1.0,28,118.97
879,B-2,197.0,1.0,28,118.97
880,C#4,197.5,0.5,31,118.97
881,D4,198.0,0.5,28,118.97
882,G#4,198.0,1.0,36,118.97
883,E-2,198.0,1.5,28,118.97
884,E-3,198.0,1.5,28,118.97
885,B-3,198.5,0.5,30,118.97
886,B-3,199.0,0.5,27,118.97
887,G4,199.0,1.5,32,118.97
888,E-4,199.0,1.5,32,118.97
889,A3,199.5,0.5,33,118.97
890,B-3,200.0,0.5,33,118.97
891,B-1,200.0,1.0,28,118.97
892,B-2,200.0,1.0,28,118.97
893,G3,200.5,0.5,35,118.97
894,G3,201.0,0.5,35,118.97
895,G4,201.0,1.0,37,118.97
896,E-4,201.0,1.0,37,118.97
897,F2,201.0,1.5,28,118.97
898,F3,201.0,1.5,28,118.97
899,B-3,201.5,0.5,30,118.97
900,A3,202.0,0.5,27,118.97
901,D4,202.0,1.5,32,118.97
902,G#4,202.0,1.5,32,118.97
903,B-3,202.5,0.5,31,118.97
904,C4,203.0,0.5,31,118.97
905,B-1,203.0,1.0,28,118.97
906,B-2,203.0,1.0,28,118.97
907,C#4,203.5,0.5,31,118.97
908,D4,204.0,0.5,28,118.97
909,G#4,204.0,1.0,36,118.97
910,E-2,204.0,1.5,28,118.97
911,E-3,204.0,1.5,28,118.97
912,B-3,204.5,0.5,30,118.97
913,B-3,205.0,0.5,27,118.97
914,G4,205.0,1.5,32,118.97
915,E-4,205.0,1.5,32,118.97
916,A3,205.5,0.5,32,118.97
917,B-3,206.0,0.5,32,118.97
918,B-1,206.0,1.0,26,118.97
919,B-2,206.0,1.0,26,118.97
920,G3,206.5,0.5,33,118.97
921,G3,207.0,0.5,33,118.97
922,G4,207.0,1.0,36,118.97
923,E-4,207.0,1.0,36,118.97
924,E-2,207.0,1.5,25,118.97
925,E-3,207.0,1.5,25,118.97
926,B-3,207.5,0.5,28,118.97
927,B-3,208.0,0.5,25,118.97
928,G4,208.0,1.5,30,118.97
929,E-4,208.0,1.5,30,118.97
930,A3,208.5,0.5,27,118.97
931,B-3,209.0,0.5,30,118.97
932,B-1,209.0,1.0,22,118.97
933,B-2,209.0,1.0,22,118.97
934,G3,209.5,0.5,31,118.97
935,G3,210.0,0.5,27,118.97
936,G4,210.0,1.0,29,118.97
937,E-4,210.0,1.0,29,118.97
938,E-2,210.0,3.0,22,118.97
939,E-3,210.0,3.0,22,118.97
940,B-3,210.5,0.5,23,118.97
941,G3,211.0,3.0,24,118.97
942,E-4,211.0,3.0,24,118.97
943,G4,211.0,3.0,24,118.97
944,E-2,214.5,1.5,22,118.97
945,E-3,214.5,1.5,22,118.97
946,G3,215.5,1.5,24,118.97
947,E-4,215.5,1.5,24,118.97
948,G4,215.5,1.5,24,118.97
949,G#2,217.5,0.5,36,118.97
950,E-3,218.0,0.5,33,118.97
951,G#3,218.5,0.5,30,118.97
952,B4,218.5,3.0,51,118.97
953,E-5,218.5,3.0,51,118.97
954,B3,219.0,0.5,31,118.97
955,C#4,219.5,0.5,34,118.97
956,E-4,220.0,0.5,33,118.97
957,G#4,220.5,3.0,36,118.97
958,E4,220.5,3.0,36,118.97
959,C#5,221.5,0.5,57,118.97
960,E-5,222.0,0.5,52,118.97
961,E5,222.5,0.5,50,118.97
962,F#5,223.0,0.5,53,118.97
963,B-5,223.5,0.5,53,118.97
964,G#2,223.5,0.5,36,118.97
965,G#5,224.0,0.5,51,118.97
966,E-3,224.0,0.5,33,118.97
967,G#3,224.5,0.5,30,118.97
968,B4,224.5,3.0,51,118.97
969,E-5,224.5,3.0,51,118.97
970,B3,225.0,0.5,31,118.97
971,C#4,225.5,0.5,34,118.97
972,E-4,226.0,0.5,36,118.97
973,G#4,226.5,3.0,36,118.97
974,E4,226.5,3.0,36,118.97
975,C#5,227.5,0.5,57,118.97
976,E-5,228.0,0.5,50,118.97
977,E5,228.5,0.5,50,118.97
978,F#5,229.0,0.5,53,118.97
979,G#5,229.5,0.5,53,118.97
980,G#2,229.5,0.5,36,118.97
981,E5,230.0,0.5,55,118.97
982,E-3,230.0,0.5,33,118.97
983,E-5,230.5,0.5,58,118.97
984,G#3,230.5,0.5,30,118.97
985,C#5,231.0,0.5,53,118.97
986,B3,231.0,0.5,31,118.97
987,B4,231.5,0.5,55,118.97
988,C#4,231.5,0.5,34,118.97
989,G#4,232.0,0.5,52,118.97
990,E-4,232.0,0.5,36,118.97
991,B-4,232.5,0.5,52,118.97
992,E4,232.5,3.0,36,118.97
993,G#3,232.5,3.0,36,118.97
994,B4,233.0,0.5,52,118.97
995,G#4,233.5,0.5,54,118.97
996,C#5,233.5,0.5,54,118.97
997,E-5,234.0,0.5,50,118.97
998,C#5,234.5,0.5,48,118.97
999,E5,235.0,0.5,44,118.97
1000,F#5,235.5,0.5,42,118.97
1001,G#2,235.5,0.5,24,118.97
1002,E5,236.0,0.5,41,118.97
1003,E-3,236.0,0.5,21,118.97
1004,G#3,236.5,0.5,20,118.97
1005,G#4,236.5,3.0,38,118.97
1006,B4,236.5,3.0,38,118.97
1007,E-5,236.5,3.0,38,118.97
1008,G#5,236.5,3.0,38,118.97
1009,B3,237.0,0.5,20,118.97
1010,C#4,237.5,0.5,22,118.97
1011,E-4,238.0,0.5,24,118.97
1012,G4,238.5,3.0,24,118.97
1013,C#4,238.5,3.0,24,118.97
1014,E-5,239.5,3.0,38,118.97
1015,G#2,241.5,0.5,36,118.97
1016,E-3,242.0,0.5,33,118.97
1017,G#3,242.5,0.5,30,118.97
1018,B4,242.5,3.0,51,118.97
1019,E-5,242.5,3.0,51,118.97
1020,B3,243.0,0.5,31,118.97
1021,C#4,243.5,0.5,34,118.97
1022,E-4,244.0,0.5,36,118.97
1023,G#4,244.5,3.0,36,118.97
1024,E4,244.5,3.0,36,118.97
1025,C#5,245.5,0.5,57,118.97
1026,E-5,246.0,0.5,51,118.97
1027,E5,246.5,0.5,51,118.97
1028,F#5,247.0,0.5,53,118.97
1029,B-5,247.5,0.5,55,118.97
1030,G#2,247.5,0.5,36,118.97
1031,G#5,248.0,0.5,53,118.97
1032,E-3,248.0,0.5,33,118.97
1033,G#3,248.5,0.5,30,118.97
1034,B4,248.5,3.0,51,118.97
1035,E-5,248.5,3.0,51,118.97
1036,B3,249.0,0.5,31,118.97
1037,C#4,249.5,0.5,34,118.97
1038,E-4,250.0,0.5,36,118.97
1039,G#4,250.5,3.0,36,118.97
1040,E4,250.5,3.0,36,118.97
1041,C#5,251.5,0.5,57,118.97
1042,E-5,252.0,0.5,51,118.97
1043,E5,252.5,0.5,52,118.97
1044,F#5,253.0,0.5,52,118.97
1045,G#5,253.5,0.5,53,118.97
1046,G#2,253.5,0.5,36,118.97
1047,E5,254.0,0.5,55,118.97
1048,E-3,254.0,0.5,33,118.97
1049,E-5,254.5,0.5,58,118.97
1050,G#3,254.5,0.5,30,118.97
1051,C#5,255.0,0.5,53,118.97
1052,B3,255.0,0.5,31,118.97
1053,B4,255.5,0.5,55,118.97
1054,C#4,255.5,0.5,34,118.97
1055,G#4,256.0,0.5,52,118.97
1056,E-4,256.0,0.5,36,118.97
1057,B-4,256.5,0.5,52,118.97
1058,E4,256.5,3.0,36,118.97
1059,G#3,256.5,3.0,36,118.97
1060,B4,257.0,0.5,52,118.97
1061,G#4,257.5,0.5,53,118.97
1062,C#5,257.5,0.5,53,118.97
1063,E-5,258.0,0.5,49,118.97
1064,C#5,258.5,0.5,47,118.97
1065,E5,259.0,0.5,45,118.97
1066,F#5,259.5,0.5,42,118.97
1067,G#2,259.5,0.5,24,118.97
1068,E5,260.0,0.5,41,118.97
1069,E-3,260.0,0.5,21,118.97
1070,G#3,260.5,0.5,20,118.97
1071,G#4,260.5,3.0,38,118.97
1072,B4,260.5,3.0,38,118.97
1073,E-5,260.5,3.0,38,118.97
1074,G#5,260.5,3.0,38,118.97
1075,B3,261.0,0.5,20,118.97
1076,C#4,261.5,0.5,22,118.97
1077,E-4,262.0,0.5,24,118.97
1078,G#4,262.5,0.5,30,118.97
1079,E-4,263.0,0.5,30,118.97
1080,C#4,263.5,0.5,28,118.97
1081,B3,264.0,0.5,28,118.97
1082,B-3,264.5,0.5,27,118.97
1083,G#3,265.0,0.5,25,118.97
1084,E-2,265.5,0.5,30,118.97
1085,B-2,266.0,0.5,29,118.97
1086,B-4,266.375,0.125,44,118.97
1087,E-5,266.5,3.0,55,118.97
1088,E-3,266.5,0.5,28,118.97
1089,G3,267.0,0.5,30,118.97
1090,B-3,267.5,0.5,34,118.97
1091,E-4,268.0,0.5,38,118.97
1092,B-3,268.5,3.0,41,118.97
1093,G#4,268.5,3.0,41,118.97
1094,E4,268.5,3.0,41,118.97
1095,C#5,270.0,0.5,52,118.97
1096,E-5,270.5,0.5,50,118.97
1097,E5,271.0,0.5,50,118.97
1098,F#5,271.5,0.5,53,118.97
1099,E-2,271.5,0.5,36,118.97
1100,G#5,272.0,0.375,50,118.97
1101,B-2,272.0,0.5,33,118.97
1102,B-4,272.375,0.125,42,118.97
1103,E-5,272.5,3.0,51,118.97
1104,E-3,272.5,0.5,30,118.97
1105,G3,273.0,0.5,31,118.97
1106,B-3,273.5,0.5,34,118.97
1107,E-4,274.0,0.5,36,118.97
1108,E-3,274.406,0.094,36,118.97
1109,B-3,274.406,0.094,36,118.97
1110,C#4,274.469,0.031,41,118.97
1111,E4,274.469,0.031,41,118.97
1112,B-4,276.0,0.5,54,118.97
1113,C#5,276.5,0.25,57,118.97
1114,B4,276.75,167/1000,38,118.97
1115,C#5,276.875,167/1000,37,118.97
1116,B4,277.0,0.5,49,118.97
1117,E-3,277.344,2.844,36,118.97
1118,B-3,277.344,2.844,36,118.97
1119,C#4,277.344,2.844,41,118.97
1120,E4,277.344,2.844,41,118.97
1121,B-4,277.5,0.5,58,118.97
1122,G#4,278.0,0.375,56,118.97
1123,G4,278.5,0.5,63,118.97
1124,G#4,279.0,0.5,58,118.97
1125,B-4,279.5,0.5,60,118.97
1126,E-5,280.0,0.5,57,118.97
1127,E-2,280.219,0.125,39,118.97
1128,E-4,280.344,0.5,39,118.97
1129,F5,280.5,0.5,61,118.97
1130,B3,280.844,0.5,36,118.97
1131,G5,281.0,0.5,57,118.97
1132,B-3,281.344,0.5,33,118.97
1133,B4,281.5,0.5,62,118.97
1134,G#5,281.5,0.5,62,118.97
1135,G3,281.844,0.5,35,118.97
1136,E-5,282.0,0.5,59,118.97
1137,D3,282.344,0.5,39,118.97
1138,C#5,282.5,0.25,59,118.97
1139,B4,282.75,167/1000,42,118.97
1140,E-3,282.844,0.5,45,118.97
1141,C#5,282.875,167/1000,42,118.97
1142,B4,283.0,0.5,53,118.97
1143,G#2,283.344,0.5,49,118.97
1144,B-4,283.5,0.5,49,118.97
1145,D3,283.844,0.5,46,118.97
1146,G#4,284.0,0.375,49,118.97
1147,E-3,284.344,0.5,45,118.97
1148,G4,284.375,0.125,48,118.97
1149,E-5,284.5,3.0,59,118.97
1150,G4,284.5,3.0,48,118.97
1151,G3,284.844,0.5,36,118.97
1152,G#3,285.344,0.5,42,118.97
1153,B3,285.844,0.5,41,118.97
1154,E-2,286.344,0.5,36,118.97
1155,A2,286.844,0.5,38,118.97
1156,B-2,287.344,0.5,40,118.97
1157,D4,287.5,2.875,50,118.97
1158,G#4,287.5,2.875,50,118.97
1159,E-3,287.844,0.5,41,118.97
1160,G3,288.344,0.5,44,118.97
1161,B-3,288.844,0.5,46,118.97
1162,B3,289.344,0.5,45,118.97
1163,G#3,289.844,0.5,39,118.97
1164,E3,290.344,0.5,39,118.97
1165,B-4,290.375,0.125,49,118.97
1166,E-5,290.5,3.0,59,118.97
1167,B2,290.844,0.5,38,118.97
1168,G#2,291.344,0.5,36,118.97
1169,E2,291.844,0.375,34,118.97
1170,E-2,292.344,0.5,36,118.97
1171,B-2,292.844,0.5,35,118.97
1172,E-3,293.344,0.5,34,118.97
1173,G3,293.844,0.5,36,118.97
1174,C#5,294.0,0.5,52,118.97
1175,B-3,294.344,0.5,40,118.97
1176,E-5,294.5,0.5,52,118.97
1177,E-4,294.844,0.5,45,118.97
1178,E5,295.0,0.5,50,118.97
1179,B-3,295.344,3.0,49,118.97
1180,G#4,295.344,3.0,49,118.97
1181,E4,295.344,3.0,49,118.97
1182,F#5,295.5,0.5,53,118.97
1183,G#5,296.0,0.375,50,118.97
1184,B-4,296.375,0.125,42,118.97
1185,E-5,296.5,3.0,51,118.97
1186,E-2,298.344,0.5,36,118.97
1187,B-2,298.844,0.5,33,118.97
1188,E-3,299.344,0.5,30,118.97
1189,G3,299.844,0.5,31,118.97
1190,B-4,300.0,0.5,52,118.97
1191,B-3,300.344,0.5,34,118.97
1192,C#5,300.5,0.25,57,118.97
1193,B4,300.75,167/1000,36,118.97
1194,E-4,300.844,0.5,36,118.97
1195,C#5,300.875,167/1000,36,118.97
1196,B4,301.0,0.5,49,118.97
1197,E-3,301.25,0.094,36,118.97
1198,B-3,301.25,0.094,36,118.97
1199,C#4,301.312,0.031,41,118.97
1200,E4,301.312,0.031,41,118.97
1201,B-4,301.5,0.5,58,118.97
1202,G#4,302.0,0.375,52,118.97
1203,G4,302.5,0.5,63,118.97
1204,G#4,303.0,0.5,58,118.97
1205,B-4,303.5,0.5,60,118.97
1206,E-5,304.0,0.5,57,118.97
1207,E-3,304.188,2.844,36,118.97
1208,B-3,304.188,2.844,36,118.97
1209,C#4,304.188,2.844,41,118.97
1210,E4,304.188,2.844,41,118.97
1211,F5,304.5,0.5,61,118.97
1212,G5,305.0,0.5,57,118.97
1213,B4,305.5,0.5,62,118.97
1214,G#5,305.5,0.5,62,118.97
1215,E-5,306.0,0.5,55,118.97
1216,C#5,306.5,0.25,59,118.97
1217,B4,306.75,167/1000,38,118.97
1218,C#5,306.875,167/1000,39,118.97
1219,B4,307.0,0.5,51,118.97
1220,E-2,307.062,0.125,39,118.97
1221,E-4,307.188,0.5,39,118.97
1222,B-4,307.5,0.5,49,118.97
1223,B3,307.688,0.5,36,118.97
1224,G#4,308.0,0.375,49,118.97
1225,B-3,308.188,0.5,33,118.97
1226,G4,308.375,0.125,48,118.97
1227,E-5,308.5,3.0,59,118.97
1228,G4,308.5,3.0,48,118.97
1229,G3,308.688,0.5,35,118.97
1230,D3,309.188,0.5,39,118.97
1231,E-3,309.688,0.5,45,118.97
1232,G#2,310.188,0.5,49,118.97
1233,D3,310.688,0.5,46,118.97
1234,E-3,311.188,0.5,45,118.97
1235,E-5,311.5,3.0,59,118.97
1236,G4,311.5,3.0,48,118.97
1237,G3,311.688,0.5,38,118.97
1238,G#3,312.188,0.5,42,118.97
1239,B3,312.688,0.5,41,118.97
1240,E-2,313.188,0.5,36,118.97
1241,A2,313.688,0.5,38,118.97
1242,B-2,314.188,0.5,40,118.97
1243,B4,314.5,3.0,51,118.97
1244,E-5,314.5,3.0,51,118.97
1245,E-3,314.688,0.5,41,118.97
1246,G3,315.188,0.5,44,118.97
1247,B-3,315.688,0.5,46,118.97
1248,C#4,316.188,0.5,45,118.97
1249,B3,316.688,0.5,35,118.97
1250,B-3,317.188,0.5,39,118.97
1251,C#5,317.5,0.5,57,118.97
1252,G3,317.688,0.5,38,118.97
1253,E-5,318.0,0.5,51,118.97
1254,E3,318.188,0.5,36,118.97
1255,E5,318.5,0.5,52,118.97
1256,E-3,318.688,0.5,34,118.97
1257,F#5,319.0,0.5,51,118.97
1258,G#2,319.188,0.5,36,118.97
1259,B-5,319.5,0.5,53,118.97
1260,E-3,319.688,0.5,33,118.97
1261,G#5,320.0,0.5,52,118.97
1262,G#3,320.188,0.5,30,118.97
1263,B4,320.5,3.0,51,118.97
1264,E-5,320.5,3.0,51,118.97
1265,B3,320.688,0.5,31,118.97
1266,C#4,321.188,0.5,34,118.97
1267,E-4,321.688,0.5,32,118.97
1268,G#4,322.188,3.0,36,118.97
1269,E4,322.188,3.0,36,118.97
1270,C#5,323.5,0.5,57,118.97
1271,E-5,324.0,0.5,52,118.97
1272,E5,324.5,0.5,52,118.97
1273,F#5,325.0,0.5,51,118.97
1274,G#2,325.188,0.5,36,118.97
1275,G#5,325.5,0.5,53,118.97
1276,E-3,325.688,0.5,33,118.97
1277,E5,326.0,0.5,55,118.97
1278,G#3,326.188,0.5,30,118.97
1279,E-5,326.5,0.5,58,118.97
1280,B3,326.688,0.5,31,118.97
1281,C#5,327.0,0.5,53,118.97
1282,C#4,327.188,0.5,34,118.97
1283,B4,327.5,0.5,55,118.97
1284,E-4,327.688,0.5,36,118.97
1285,G#4,328.0,0.5,52,118.97
1286,G#4,328.188,3.0,36,118.97
1287,E4,328.188,3.0,36,118.97
1288,B-4,328.5,0.5,52,118.97
1289,B4,329.0,0.5,49,118.97
1290,G#4,329.5,0.5,50,118.97
1291,C#5,329.5,0.5,50,118.97
1292,E-5,330.0,0.5,50,118.97
1293,C#5,330.5,0.5,49,118.97
1294,E5,331.0,0.5,42,118.97
1295,G#2,331.188,0.5,36,118.97
1296,F#5,331.5,0.5,42,118.97
1297,E-3,331.688,0.5,33,118.97
1298,E5,332.0,0.5,41,118.97
1299,G#3,332.188,0.5,30,118.97
1300,G#4,332.5,2479/1000,38,118.97
1301,B4,332.5,3.0,38,118.97
1302,E-5,332.5,3.0,38,118.97
1303,G#5,332.5,3.0,38,118.97
1304,B3,332.688,0.5,31,118.97
1305,C#4,333.188,0.5,34,118.97
1306,E-4,333.688,0.5,36,118.97
1307,E4,334.188,3.0,36,118.97
1308,G#3,334.188,3.0,36,118.97
1309,B4,335.5,0.5,38,118.97
1310,B-4,336.0,0.5,38,118.97
1311,G#4,336.5,0.5,36,118.97
1312,E-4,337.0,0.5,33,118.97
1313,G#2,337.188,0.5,24,118.97
1314,B3,337.5,0.5,36,118.97
1315,E-3,337.688,0.5,21,118.97
1316,G#3,338.0,0.5,35,118.97
1317,G#3,338.188,0.5,20,118.97
1318,B3,338.5,0.5,28,118.97
1319,G#4,338.5,1.5,34,118.97
1320,E-4,338.5,1.5,34,118.97
1321,B3,338.688,0.5,20,118.97
1322,B-3,339.0,0.5,30,118.97
1323,E-4,339.188,0.5,22,118.97
1324,B3,339.5,0.5,32,118.97
1325,G#4,339.688,0.5,24,118.97
1326,G#3,340.0,0.5,31,118.97
1327,B3,340.5,0.5,33,118.97
1328,E-4,341.0,0.5,31,118.97
1329,B3,341.5,0.5,28,118.97
1330,G#4,341.5,1.5,34,118.97
1331,E-4,341.5,1.5,34,118.97
1332,B-3,342.0,0.5,30,118.97
1333,B3,342.5,0.5,33,118.97
1334,G#3,343.0,0.5,30,118.97
1335,F2,343.188,3.0,30,118.97
1336,E-3,343.188,3.0,30,118.97
1337,B3,343.5,0.5,35,118.97
1338,E-4,344.0,0.5,31,118.97
1339,B3,344.5,0.5,29,118.97
1340,G#4,344.5,1.5,35,118.97
1341,E-4,344.5,1.5,35,118.97
1342,B-3,345.0,0.5,31,118.97
1343,B3,345.5,0.5,34,118.97
1344,G#3,346.0,0.5,31,118.97
1345,B4,346.188,3.0,32,118.97
1346,B3,346.5,0.5,37,118.97
1347,E-4,347.0,0.5,32,118.97
1348,B3,347.5,0.5,29,118.97
1349,G#4,347.5,1.5,35,118.97
1350,E-4,347.5,1.5,35,118.97
1351,B-3,348.0,0.5,32,118.97
1352,B3,348.5,0.5,34,118.97
1353,G#3,349.0,0.5,30,118.97
1354,F2,349.188,3.0,30,118.97
1355,B2,349.188,3.0,30,118.97
1356,B3,349.5,0.5,37,118.97
1357,E-4,350.0,0.5,32,118.97
1358,B-3,350.5,0.5,25,118.97
1359,G4,350.5,1.5,30,118.97
1360,E-4,350.5,1.5,30,118.97
1361,A3,351.0,0.5,28,118.97
1362,B-3,351.5,0.5,29,118.97
1363,G3,352.0,0.5,27,118.97
1364,B4,352.188,3.0,33,118.97
1365,B-3,352.5,0.5,31,118.97
1366,E-4,353.0,0.5,28,118.97
1367,B-3,353.5,0.5,25,118.97
1368,G4,353.5,1.5,30,118.97
1369,E-4,353.5,1.5,30,118.97
1370,A3,354.0,0.5,28,118.97
1371,B-3,354.5,0.5,29,118.97
1372,G3,355.0,0.5,28,118.97
1373,B-1,355.188,3.0,26,118.97
1374,B-2,355.188,3.0,26,118.97
1375,B-3,355.5,0.5,31,118.97
1376,E-4,356.0,0.5,28,118.97
1377,D4,356.5,0.5,35,118.97
1378,G#4,356.5,0.5,35,118.97
1379,C5,356.5,0.5,35,118.97
1380,D4,357.0,0.5,32,118.97
1381,G#4,357.0,0.5,32,118.97
1382,B-4,357.0,0.5,32,118.97
1383,D4,357.5,0.5,39,118.97
1384,G#4,357.5,0.5,39,118.97
1385,C5,357.5,0.5,39,118.97
1386,D4,358.0,0.5,34,118.97
1387,G#4,358.0,0.5,34,118.97
1388,B-4,358.0,0.5,34,118.97
1389,B-4,358.188,3.0,28,118.97
1390,D4,358.5,0.5,45,118.97
1391,G#4,358.5,0.5,45,118.97
1392,C5,358.5,0.5,45,118.97
1393,D4,359.0,0.5,39,118.97
1394,G#4,359.0,0.5,39,118.97
1395,B-4,359.0,0.5,39,118.97
1396,D5,359.5,0.5,52,118.97
1397,G#5,359.5,0.5,52,118.97
1398,C6,359.5,0.5,52,118.97
1399,D5,360.0,0.5,47,118.97
1400,B-5,360.0,0.5,47,118.97
1401,G#5,360.0,0.5,47,118.97
1402,D5,360.5,0.5,55,118.97
1403,G#5,360.5,0.5,55,118.97
1404,C6,360.5,0.5,55,118.97
1405,D5,361.0,0.5,47,118.97
1406,G#5,361.0,0.5,47,118.97
1407,B-5,361.0,0.5,47,118.97
1408,B-1,361.188,1.5,28,118.97
1409,B-2,361.188,1.5,28,118.97
1410,D5,361.5,0.5,60,118.97
1411,G#5,361.5,0.5,60,118.97
1412,C6,361.5,0.5,60,118.97
1413,D5,362.0,0.5,52,118.97
1414,G#5,362.0,0.5,52,118.97
1415,B-5,362.0,0.5,52,118.97
1416,B-3,362.5,0.5,38,118.97
1417,G4,362.5,1.5,45,118.97
1418,E-4,362.5,1.5,45,118.97
1419,F5,362.562,0.125,33,118.97
1420,B-5,362.688,1.5,49,118.97
1421,A3,363.0,0.5,44,118.97
1422,B-3,363.5,0.5,44,118.97
1423,G3,364.0,0.5,47,118.97
1424,B-2,364.188,1.5,42,118.97
1425,B-3,364.188,1.5,42,118.97
1426,G3,364.5,0.5,47,118.97
1427,G4,364.5,1.0,50,118.97
1428,E-4,364.5,1.0,50,118.97
1429,B-3,365.0,0.5,42,118.97
1430,A3,365.5,0.5,38,118.97
1431,D4,365.5,1.5,45,118.97
1432,G#4,365.5,1.5,45,118.97
1433,F6,365.562,0.125,45,118.97
1434,B-6,365.688,1.5,68,118.97
1435,B-3,366.0,0.5,39,118.97
1436,C4,366.5,0.5,42,118.97
1437,C#4,367.0,0.5,38,118.97
1438,E-2,367.188,1.5,40,118.97
1439,E-3,367.188,1.5,40,118.97
1440,D4,367.5,0.5,38,118.97
1441,G#4,367.5,1.0,48,118.97
1442,B-3,368.0,0.5,40,118.97
1443,B-3,368.5,0.5,36,118.97
1444,G4,368.5,1.5,42,118.97
1445,E-4,368.5,1.5,42,118.97
1446,A3,369.0,0.5,40,118.97
1447,B-1,369.188,1.0,38,118.97
1448,B-2,369.188,1.0,38,118.97
1449,B-3,369.5,0.5,44,118.97
1450,G3,370.0,0.5,47,118.97
1451,F2,370.188,1.5,40,118.97
1452,F3,370.188,1.5,40,118.97
1453,G3,370.5,0.5,47,118.97
1454,G4,370.5,1.0,50,118.97
1455,E-4,370.5,1.0,50,118.97
1456,B-3,371.0,0.5,41,118.97
1457,A3,371.5,0.5,36,118.97
1458,D4,371.5,1.5,42,118.97
1459,G#4,371.5,1.5,42,118.97
1460,B-3,372.0,0.5,42,118.97
1461,B-1,372.188,1.0,38,118.97
1462,B-2,372.188,1.0,38,118.97
1463,C4,372.5,0.5,42,118.97
1464,C#4,373.0,0.5,42,118.97
1465,E-2,373.188,1.5,37,118.97
1466,E-3,373.188,1.5,37,118.97
1467,D4,373.5,0.5,38,118.97
1468,G#4,373.5,1.0,48,118.97
1469,B-3,374.0,0.5,40,118.97
1470,E-4,374.5,0.5,47,118.97
1471,E-5,374.5,0.5,47,118.97
1472,F4,375.0,0.5,46,118.97
1473,F5,375.0,0.5,46,118.97
1474,B-1,375.188,1.0,38,118.97
1475,B-2,375.188,1.0,38,118.97
1476,G5,375.5,0.5,41,118.97
1477,B-4,376.0,0.75,54,118.97
1478,B-5,376.0,0.75,54,118.97
1479,F2,376.188,1.5,38,118.97
1480,F3,376.188,1.5,38,118.97
1481,B-4,376.75,0.75,43,118.97
1482,B-5,376.75,0.75,43,118.97
1483,B-4,378.0,0.5,52,118.97
1484,B-5,378.0,0.5,52,118.97
1485,B-1,378.188,1.0,38,118.97
1486,B-2,378.188,1.0,38,118.97
1487,C5,378.5,0.5,52,118.97
1488,C6,378.5,0.5,52,118.97
1489,D5,379.0,0.5,55,118.97
1490,D6,379.0,0.5,55,118.97
1491,E-3,379.188,0.5,44,118.97
1492,F6,379.5,0.5,50,118.97
1493,F5,379.5,0.5,50,118.97
1494,G4,379.688,0.5,39,118.97
1495,D6,380.0,0.5,53,118.97
1496,D5,380.0,0.5,53,118.97
1497,G4,380.188,1.0,39,118.97
1498,C6,380.5,0.5,55,118.97
1499,C5,380.5,0.5,55,118.97
1500,D5,381.0,0.5,53,118.97
1501,D6,381.0,0.5,53,118.97
1502,E-4,381.188,0.5,37,118.97
1503,C5,381.5,0.5,42,118.97
1504,C6,381.5,0.5,42,118.97
1505,B-3,381.688,0.5,37,118.97
1506,G4,382.0,0.75,50,118.97
1507,G5,382.0,0.75,50,118.97
1508,E-3,382.188,0.5,44,118.97
1509,G#4,382.688,1.5,39,118.97
1510,G4,382.75,0.75,43,118.97
1511,G5,382.75,0.75,43,118.97
1512,F4,384.0,0.5,52,118.97
1513,F5,384.0,0.5,52,118.97
1514,D4,384.188,0.5,37,118.97
1515,G4,384.5,0.5,51,118.97
1516,G5,384.5,0.5,51,118.97
1517,B-3,384.688,0.5,37,118.97
1518,G#4,385.0,0.5,55,118.97
1519,G#5,385.0,0.5,55,118.97
1520,E-3,385.188,0.5,44,118.97
1521,B-5,385.5,0.5,53,118.97
1522,B-4,385.5,0.5,53,118.97
1523,G4,385.688,249/250,39,118.97
1524,G#5,386.0,0.5,49,118.97
1525,G#4,386.0,0.5,49,118.97
1526,G5,386.5,62/125,55,118.97
1527,G4,386.5,62/125,55,118.97
1528,F4,387.0,0.5,47,118.97
1529,F5,387.0,0.5,47,118.97
1530,E-4,387.188,0.5,35,118.97
1531,E-4,387.5,0.5,46,118.97
1532,E-5,387.5,0.5,46,118.97
1533,B-3,387.688,0.5,31,118.97
1534,B-3,388.0,0.75,51,118.97
1535,B-4,388.0,0.75,51,118.97
1536,E-3,388.188,0.5,44,118.97
1537,G#4,388.688,249/250,39,118.97
1538,B-3,388.75,0.75,43,118.97
1539,B-4,388.75,0.75,43,118.97
1540,D4,390.0,2.5,46,118.97
1541,F4,390.0,0.5,52,118.97
1542,D4,390.188,0.5,37,118.97
1543,G4,390.5,0.5,53,118.97
1544,B-3,390.688,0.5,37,118.97
1545,G#4,391.0,0.5,55,118.97
1546,E-3,391.188,0.5,44,118.97
1547,B-4,391.5,0.5,53,118.97
1548,G4,391.688,1.5,39,118.97
1549,G#4,392.0,0.25,50,118.97
1550,G4,392.25,0.125,49,118.97
1551,G#4,392.375,0.125,50,118.97
1552,E-4,392.5,1.0,48,118.97
1553,G4,392.5,0.5,55,118.97
1554,F4,393.0,0.5,50,118.97
1555,E-4,393.188,0.5,36,118.97
1556,E-4,393.5,0.5,46,118.97
1557,G3,393.688,0.5,34,118.97
1558,B-3,394.0,62/125,51,118.97
1559,B-2,394.188,0.5,44,118.97
1560,C4,394.5,0.5,50,118.97
1561,G#3,394.688,1.5,39,118.97
1562,E-4,395.0,0.5,50,118.97
1563,G#3,395.5,0.5,52,118.97
1564,D4,395.5,0.5,52,118.97
1565,F4,396.0,0.5,50,118.97
1566,E3,396.188,0.5,37,118.97
1567,D4,396.5,0.25,46,118.97
1568,F3,396.688,0.5,37,118.97
1569,C4,396.75,0.125,41,118.97
1570,D4,396.875,0.125,41,118.97
1571,C4,397.0,0.75,50,118.97
1572,B-2,397.188,0.5,44,118.97
1573,G3,397.688,1.5,39,118.97
1574,B-3,397.75,0.75,45,118.97
1575,G#3,397.75,0.75,45,118.97
1576,B-3,398.5,0.5,38,118.97
1577,G4,398.5,1.5,45,118.97
1578,E-4,398.5,1.5,45,118.97
1579,A3,399.0,0.5,44,118.97
1580,B-3,399.188,0.5,37,118.97
1581,B-3,399.5,0.5,44,118.97
1582,G3,399.688,0.5,37,118.97
1583,G3,400.0,0.5,47,118.97
1584,B-2,400.188,0.5,44,118.97
1585,G3,400.5,0.5,47,118.97
1586,G4,400.5,1.0,50,118.97
1587,E-4,400.5,1.0,50,118.97
1588,G#3,400.688,1.5,39,118.97
1589,B-3,401.0,0.5,42,118.97
1590,A3,401.5,0.5,38,118.97
1591,D4,401.5,1.5,45,118.97
1592,G#4,401.5,1.5,45,118.97
1593,B-3,402.0,0.5,42,118.97
1594,E3,402.188,0.5,37,118.97
1595,C4,402.5,0.5,42,118.97
1596,F3,402.688,0.5,37,118.97
1597,C#4,403.0,0.5,42,118.97
1598,E-2,403.188,1.5,40,118.97
1599,E-3,403.188,1.5,40,118.97
1600,D4,403.5,0.5,38,118.97
1601,G#4,403.5,1.0,48,118.97
1602,B-3,404.0,0.5,40,118.97
1603,B-3,404.5,0.5,36,118.97
1604,G4,404.5,1.5,42,118.97
1605,E-4,404.5,1.5,42,118.97
1606,A3,405.0,0.5,44,118.97
1607,B-1,405.188,1.0,38,118.97
1608,B-2,405.188,1.0,38,118.97
1609,B-3,405.5,0.5,44,118.97
1610,G3,406.0,0.5,47,118.97
1611,F2,406.188,1.5,40,118.97
1612,F3,406.188,1.5,40,118.97
1613,G3,406.5,0.5,47,118.97
1614,G4,406.5,1.0,50,118.97
1615,E-4,406.5,1.0,50,118.97
1616,B-3,407.0,0.5,41,118.97
1617,A3,407.5,0.5,36,118.97
1618,D4,407.5,1.5,42,118.97
1619,G#4,407.5,1.5,42,118.97
1620,B-3,408.0,0.5,42,118.97
1621,B-1,408.188,1.0,38,118.97
1622,B-2,408.188,1.0,38,118.97
1623,C4,408.5,0.5,42,118.97
1624,C#4,409.0,0.5,42,118.97
1625,E-2,409.188,1.5,37,118.97
1626,E-3,409.188,1.5,37,118.97
1627,D4,409.5,0.5,38,118.97
1628,G#4,409.5,1.0,48,118.97
1629,B-3,410.0,0.5,40,118.97
1630,E-4,410.5,0.5,47,118.97
1631,E-5,410.5,0.5,47,118.97
1632,F4,411.0,0.5,47,118.97
1633,F5,411.0,0.5,47,118.97
1634,B-1,411.188,1.0,38,118.97
1635,B-2,411.188,1.0,38,118.97
1636,G5,411.5,0.5,47,118.97
1637,B-4,412.0,1.5,53,118.97
1638,B-5,412.0,1.5,53,118.97
1639,F2,412.188,1.5,38,118.97
1640,F3,412.188,1.5,38,118.97
1641,B-4,414.0,0.5,52,118.97
1642,B-5,414.0,0.5,52,118.97
1643,B-1,414.188,1.0,38,118.97
1644,B-2,414.188,1.0,38,118.97
1645,C5,414.5,0.5,43,118.97
1646,C6,414.5,0.5,43,118.97
1647,C#5,415.0,0.5,55,118.97
1648,C#6,415.0,0.5,55,118.97
1649,E-3,415.188,0.5,44,118.97
1650,F6,415.5,0.5,41,118.97
1651,F5,415.5,0.5,41,118.97
1652,G4,415.688,0.5,39,118.97
1653,C#6,416.0,0.5,53,118.97
1654,C#5,416.0,0.5,53,118.97
1655,G4,416.188,1.0,39,118.97
1656,C6,416.5,0.5,55,118.97
1657,C5,416.5,0.5,55,118.97
1658,B-4,417.0,0.5,53,118.97
1659,B-5,417.0,0.5,53,118.97
1660,E-4,417.188,0.5,37,118.97
1661,E-4,417.5,0.5,46,118.97
1662,E-5,417.5,0.5,46,118.97
1663,B-3,417.688,0.5,37,118.97
1664,E-4,418.0,0.5,51,118.97
1665,E-5,418.0,0.5,51,118.97
1666,E-3,418.188,0.5,44,118.97
1667,F4,418.5,1.0,51,118.97
1668,F5,418.5,1.0,51,118.97
1669,G#4,418.688,1.5,39,118.97
1670,G4,420.0,0.5,52,118.97
1671,G5,420.0,0.5,52,118.97
1672,C#4,420.188,0.5,37,118.97
1673,G#4,420.5,0.5,47,118.97
1674,G#5,420.5,0.5,47,118.97
1675,B-3,420.688,0.5,37,118.97
1676,B-4,421.0,0.5,55,118.97
1677,B-5,421.0,0.5,55,118.97
1678,E-3,421.188,0.5,44,118.97
1679,E-6,421.5,0.5,52,118.97
1680,E-5,421.5,0.5,52,118.97
1681,G4,421.688,1.5,39,118.97
1682,C6,422.0,0.5,47,118.97
1683,C5,422.0,0.5,47,118.97
1684,B-5,422.5,0.5,55,118.97
1685,B-4,422.5,0.5,55,118.97
1686,G#4,423.0,0.5,50,118.97
1687,G#5,423.0,0.5,50,118.97
1688,C#4,423.188,0.5,37,118.97
1689,E-4,423.5,0.5,46,118.97
1690,E-5,423.5,0.5,46,118.97
1691,B-3,423.688,0.5,37,118.97
1692,E-4,424.0,0.5,51,118.97
1693,E-5,424.0,0.5,51,118.97
1694,E-3,424.188,0.5,44,118.97
1695,G#4,424.5,1.0,52,118.97
1696,G#5,424.5,1.0,52,118.97
1697,C#4,424.688,1.5,39,118.97
1698,G#4,426.0,0.5,52,118.97
1699,G#5,426.0,0.5,52,118.97
1700,G3,426.188,0.5,37,118.97
1701,C5,426.5,1.5,56,118.97
1702,E-5,426.5,1.5,56,118.97
1703,C6,426.5,1.5,56,118.97
1704,G#5,426.5,1.5,56,118.97
1705,E-3,426.688,0.5,37,118.97
1706,G#2,427.188,0.5,44,118.97
1707,C4,427.688,1.5,39,118.97
1708,E-6,428.0,1.0,61,118.97
1709,C6,428.0,1.0,61,118.97
1710,G#5,428.0,1.0,61,118.97
1711,E-5,428.0,1.0,61,118.97
1712,G#3,429.188,0.5,39,118.97
1713,E-4,429.5,1.5,57,118.97
1714,E-5,429.5,1.5,57,118.97
1715,E-3,429.688,0.5,39,118.97
1716,G#2,430.188,0.5,48,118.97
1717,E-4,430.688,1.5,42,118.97
1718,G#4,431.0,1.0,61,118.97
1719,G#5,431.0,1.0,61,118.97
1720,G#4,432.0,0.5,61,118.97
1721,G#5,432.0,0.5,61,118.97
1722,C4,432.188,0.5,39,118.97
1723,B4,432.5,1.5,62,118.97
1724,E-5,432.5,1.5,62,118.97
1725,B5,432.5,1.5,62,118.97
1726,G#5,432.5,1.5,62,118.97
1727,G#3,432.688,0.5,39,118.97
1728,G#2,433.188,0.5,50,118.97
1729,B3,433.688,1.5,45,118.97
1730,E-6,434.0,1.0,65,118.97
1731,B5,434.0,1.0,65,118.97
1732,G#5,434.0,1.0,65,118.97
1733,E-5,434.0,1.0,65,118.97
1734,E-4,435.0,0.5,53,118.97
1735,E-5,435.0,0.5,53,118.97
1736,G#3,435.188,0.5,44,118.97
1737,F4,435.5,0.5,52,118.97
1738,F5,435.5,0.5,52,118.97
1739,E-3,435.688,0.5,45,118.97
1740,G4,436.0,0.5,54,118.97
1741,G5,436.0,0.5,54,118.97
1742,G#2,436.188,0.5,54,118.97
1743,B-4,436.5,0.75,60,118.97
1744,B-5,436.5,0.75,60,118.97
1745,E-4,436.688,1.5,49,118.97
1746,B-4,437.25,0.75,48,118.97
1747,B-5,437.25,0.75,48,118.97
1748,B3,438.188,0.5,48,118.97
1749,B-4,438.5,0.5,58,118.97
1750,B-5,438.5,0.5,58,118.97
1751,G#3,438.688,0.5,49,118.97
1752,C5,439.0,0.5,53,118.97
1753,C6,439.0,0.5,53,118.97
1754,B-2,439.188,0.5,65,118.97
1755,D5,439.5,0.5,62,118.97
1756,D6,439.5,0.5,62,118.97
1757,G4,439.688,0.5,45,118.97
1758,F6,440.0,0.5,55,118.97
1759,F5,440.0,0.5,55,118.97
1760,G4,440.188,249/250,45,118.97
1761,D6,440.5,0.5,60,118.97
1762,D5,440.5,0.5,60,118.97
1763,C6,441.0,0.5,60,118.97
1764,C5,441.0,0.5,60,118.97
1765,E-4,441.188,0.5,43,118.97
1766,D5,441.5,0.5,60,118.97
1767,D6,441.5,0.5,60,118.97
1768,B-3,441.688,0.5,43,118.97
1769,C5,442.0,0.5,51,118.97
1770,C6,442.0,0.5,51,118.97
1771,B-2,442.188,0.5,51,118.97
1772,G4,442.5,0.75,57,118.97
1773,G5,442.5,0.75,57,118.97
1774,G#4,442.688,1.5,45,118.97
1775,G4,443.25,0.75,48,118.97
1776,G5,443.25,0.75,48,118.97
1777,D4,444.188,0.5,43,118.97
1778,B-4,444.5,0.5,57,118.97
1779,B-5,444.5,0.5,57,118.97
1780,B-3,444.688,0.5,43,118.97
1781,C5,445.0,0.5,48,118.97
1782,C6,445.0,0.5,48,118.97
1783,E-3,445.188,0.5,51,118.97
1784,B-4,445.5,0.5,60,118.97
1785,B-5,445.5,0.5,60,118.97
1786,G4,445.688,249/250,45,118.97
1787,G#5,446.0,0.5,54,118.97
1788,G#4,446.0,0.5,54,118.97
1789,G5,446.5,0.5,54,118.97
1790,G4,446.5,0.5,54,118.97
1791,F5,447.0,0.5,57,118.97
1792,F4,447.0,0.5,57,118.97
1793,E-4,447.188,0.5,43,118.97
1794,G4,447.5,0.5,54,118.97
1795,G5,447.5,0.5,54,118.97
1796,B-3,447.688,0.5,43,118.97
1797,G#4,448.0,0.5,52,118.97
1798,G#5,448.0,0.5,52,118.97
1799,C3,448.188,0.5,51,118.97
1800,E-5,448.5,0.75,64,118.97
1801,E-6,448.5,0.75,64,118.97
1802,C#4,448.688,1.5,45,118.97
1803,C5,449.25,0.75,52,118.97
1804,C6,449.25,0.75,52,118.97
1805,C4,450.188,0.5,43,118.97
1806,C5,450.5,0.5,57,118.97
1807,C6,450.5,0.5,57,118.97
1808,E4,450.688,0.5,43,118.97
1809,E-5,451.0,0.5,54,118.97
1810,E-6,451.0,0.5,54,118.97
1811,F2,451.188,0.5,51,118.97
1812,C5,451.5,0.5,55,118.97
1813,C6,451.5,0.5,55,118.97
1814,E-4,451.688,1.5,45,118.97
1815,G#5,452.0,0.5,56,118.97
1816,G#4,452.0,0.5,56,118.97
1817,G5,452.5,0.5,54,118.97
1818,G4,452.5,0.5,54,118.97
1819,F5,453.0,0.5,54,118.97
1820,F4,453.0,0.5,54,118.97
1821,F3,453.188,0.5,43,118.97
1822,G4,453.5,0.5,54,118.97
1823,G5,453.5,0.5,54,118.97
1824,E-4,453.688,0.5,43,118.97
1825,G#4,454.0,0.5,52,118.97
1826,G#5,454.0,0.5,52,118.97
1827,B-2,454.188,0.5,51,118.97
1828,D5,454.5,0.75,64,118.97
1829,D6,454.5,0.75,64,118.97
1830,G#3,454.688,1.5,45,118.97
1831,C5,455.25,0.75,52,118.97
1832,C6,455.25,0.75,52,118.97
1833,G3,456.188,0.5,43,118.97
1834,C5,456.5,0.5,52,118.97
1835,C6,456.5,0.5,52,118.97
1836,E-4,456.688,0.5,43,118.97
1837,E4,457.0,0.5,48,118.97
1838,E5,457.0,0.5,48,118.97
1839,B-2,457.188,0.5,48,118.97
1840,F4,457.5,0.5,44,118.97
1841,F5,457.5,0.5,44,118.97
1842,E-4,457.688,1.5,45,118.97
1843,G#4,458.0,0.75,52,118.97
1844,G#5,458.0,0.75,52,118.97
1845,G4,458.75,0.75,47,118.97
1846,G5,458.75,0.75,47,118.97
1847,B-3,459.188,0.5,43,118.97
1848,B-3,459.5,0.5,38,118.97
1849,G4,459.5,1.5,45,118.97
1850,E-4,459.5,1.5,45,118.97
1851,G#4,459.688,0.5,43,118.97
1852,A3,460.0,0.5,41,118.97
1853,B-2,460.188,0.5,45,118.97
1854,B-3,460.5,0.5,44,118.97
1855,G3,460.688,0.5,40,118.97
1856,G3,461.0,0.5,47,118.97
1857,G#3,461.188,0.5,38,118.97
1858,G3,461.5,0.5,47,118.97
1859,G4,461.5,1.0,50,118.97
1860,E-4,461.5,1.0,50,118.97
1861,C4,461.688,0.75,35,118.97
1862,B-3,462.0,0.5,42,118.97
1863,B-3,462.438,0.75,34,118.97
1864,A3,462.5,0.5,38,118.97
1865,D4,462.5,1.5,45,118.97
1866,G#4,462.5,1.5,45,118.97
1867,B-3,463.0,0.5,39,118.97
1868,E-2,463.188,1.5,40,118.97
1869,E-3,463.188,1.5,40,118.97
1870,C4,463.5,0.5,42,118.97
1871,C#4,464.0,0.5,38,118.97
1872,D4,464.5,0.5,38,118.97
1873,G#4,464.5,1.0,48,118.97
1874,B-3,465.0,0.5,40,118.97
1875,B-1,465.188,1.0,38,118.97
1876,B-2,465.188,1.0,38,118.97
1877,B-3,465.5,0.5,36,118.97
1878,G4,465.5,1.5,42,118.97
1879,E-4,465.5,1.5,42,118.97
1880,A3,466.0,0.5,44,118.97
1881,F2,466.188,1.5,40,118.97
1882,F3,466.188,1.5,40,118.97
1883,B-3,466.5,0.5,42,118.97
1884,G3,467.0,0.5,47,118.97
1885,G3,467.5,0.5,47,118.97
1886,G4,467.5,1.0,50,118.97
1887,E-4,467.5,1.0,50,118.97
1888,B-3,468.0,0.5,41,118.97
1889,B-1,468.188,1.0,38,118.97
1890,B-2,468.188,1.0,38,118.97
1891,A3,468.5,0.5,36,118.97
1892,D4,468.5,1.5,42,118.97
1893,G#4,468.5,1.5,42,118.97
1894,B-3,469.0,0.5,39,118.97
1895,E-2,469.188,1.5,37,118.97
1896,E-3,469.188,1.5,37,118.97
1897,C4,469.5,0.5,42,118.97
1898,C#4,470.0,0.5,37,118.97
1899,D4,470.5,0.5,38,118.97
1900,G#4,470.5,1.0,48,118.97
1901,B-3,471.0,0.5,40,118.97
1902,B-1,471.188,1.0,38,118.97
1903,B-2,471.188,1.0,38,118.97
1904,E-4,471.5,0.5,31,118.97
1905,E-5,471.5,0.5,31,118.97
1906,F4,472.0,0.5,30,118.97
1907,F5,472.0,0.5,30,118.97
1908,F2,472.188,1.5,38,118.97
1909,F3,472.188,1.5,38,118.97
1910,G5,472.5,0.5,30,118.97
1911,B-4,473.0,0.75,36,118.97
1912,B-5,473.0,0.75,36,118.97
1913,B-4,473.75,0.75,28,118.97
1914,B-5,473.75,0.75,28,118.97
1915,B-1,474.188,1.0,38,118.97
1916,B-2,474.188,1.0,38,118.97
1917,B-4,475.0,0.5,35,118.97
1918,B-5,475.0,0.5,35,118.97
1919,E-3,475.188,0.5,29,118.97
1920,C5,475.5,0.5,31,118.97
1921,C6,475.5,0.5,31,118.97
1922,G4,475.688,0.5,26,118.97
1923,D5,476.0,0.5,36,118.97
1924,D6,476.0,0.5,36,118.97
1925,G4,476.188,1.0,26,118.97
1926,F6,476.5,0.5,33,118.97
1927,F5,476.5,0.5,33,118.97
1928,D6,477.0,0.5,36,118.97
1929,D5,477.0,0.5,36,118.97
1930,E-4,477.188,0.5,24,118.97
1931,C6,477.5,0.5,36,118.97
1932,C5,477.5,0.5,36,118.97
1933,B-3,477.688,0.5,24,118.97
1934,D5,478.0,0.5,33,118.97
1935,D6,478.0,0.5,33,118.97
1936,E-3,478.188,0.5,29,118.97
1937,C5,478.5,0.5,31,118.97
1938,C6,478.5,0.5,31,118.97
1939,G#4,478.688,1.5,26,118.97
1940,G4,479.0,0.75,34,118.97
1941,G5,479.0,0.75,34,118.97
1942,G4,479.75,0.75,28,118.97
1943,G5,479.75,0.75,28,118.97
1944,D4,480.188,0.5,24,118.97
1945,B-3,480.688,0.5,24,118.97
1946,F4,481.0,0.5,35,118.97
1947,F5,481.0,0.5,35,118.97
1948,E-3,481.188,0.5,29,118.97
1949,G4,481.5,0.5,32,118.97
1950,G5,481.5,0.5,32,118.97
1951,G4,481.688,249/250,26,118.97
1952,G#4,482.0,0.5,36,118.97
1953,G#5,482.0,0.5,36,118.97
1954,B-5,482.5,0.5,36,118.97
1955,B-4,482.5,0.5,36,118.97
1956,G#5,483.0,0.5,36,118.97
1957,G#4,483.0,0.5,36,118.97
1958,E-4,483.188,0.5,24,118.97
1959,G5,483.5,62/125,36,118.97
1960,G4,483.5,62/125,36,118.97
1961,B-3,483.688,0.5,24,118.97
1962,F4,484.0,0.5,33,118.97
1963,F5,484.0,0.5,33,118.97
1964,E-3,484.188,0.5,29,118.97
1965,E-4,484.5,0.5,31,118.97
1966,E-5,484.5,0.5,31,118.97
1967,G#4,484.688,249/250,26,118.97
1968,B-3,485.0,0.75,34,118.97
1969,B-4,485.0,0.75,34,118.97
1970,B-3,485.75,0.75,28,118.97
1971,B-4,485.75,0.75,28,118.97
1972,D4,486.188,0.5,24,118.97
1973,B-3,486.688,0.5,24,118.97
1974,D4,487.0,2.5,31,118.97
1975,F4,487.0,0.5,35,118.97
1976,E-3,487.188,0.5,29,118.97
1977,G4,487.5,0.5,32,118.97
1978,G4,487.688,1.5,26,118.97
1979,G#4,488.0,0.5,36,118.97
1980,B-4,488.5,0.5,36,118.97
1981,G#4,489.0,0.25,36,118.97
1982,E-4,489.188,0.5,24,118.97
1983,G4,489.25,0.125,32,118.97
1984,G#4,489.375,0.125,33,118.97
1985,E-4,489.5,1.0,32,118.97
1986,G4,489.5,0.5,36,118.97
1987,G3,489.688,0.5,24,118.97
1988,F4,490.0,0.5,33,118.97
1989,B-2,490.188,0.5,29,118.97
1990,E-4,490.5,0.5,31,118.97
1991,G#3,490.688,1.5,26,118.97
1992,B-3,491.0,62/125,34,118.97
1993,C4,491.5,0.5,33,118.97
1994,E-4,492.0,0.5,33,118.97
1995,E3,492.188,0.5,24,118.97
1996,G#3,492.5,0.5,34,118.97
1997,D4,492.5,0.5,34,118.97
1998,F3,492.688,0.5,24,118.97
1999,F4,493.0,0.5,33,118.97
2000,B-2,493.188,0.5,29,118.97
2001,D4,493.5,0.25,31,118.97
2002,G3,493.688,1.5,26,118.97
2003,C4,493.75,0.125,27,118.97
2004,D4,493.875,0.125,27,118.97
2005,C4,494.0,0.75,33,118.97
2006,B-3,494.75,0.75,30,118.97
2007,G#3,494.75,0.75,30,118.97
2008,B-3,495.188,0.5,24,118.97
2009,E-4,495.5,0.5,31,118.97
2010,E-5,495.5,0.5,31,118.97
2011,G3,495.688,0.5,24,118.97
2012,F4,496.0,0.5,28,118.97
2013,F5,496.0,0.5,28,118.97
2014,B-2,496.188,0.5,29,118.97
2015,G5,496.5,0.5,27,118.97
2016,G#3,496.688,1.5,26,118.97
2017,B-4,497.0,0.75,36,118.97
2018,B-5,497.0,0.75,36,118.97
2019,B-4,497.75,0.75,28,118.97
2020,B-5,497.75,0.75,28,118.97
2021,E3,498.188,0.5,24,118.97
2022,F3,498.688,0.5,24,118.97
2023,B-4,499.0,0.5,35,118.97
2024,B-5,499.0,0.5,35,118.97
2025,E-3,499.188,0.5,29,118.97
2026,C5,499.5,0.5,28,118.97
2027,C6,499.5,0.5,28,118.97
2028,G4,499.688,0.5,26,118.97
2029,D5,500.0,0.5,36,118.97
2030,D6,500.0,0.5,36,118.97
2031,G4,500.188,1.0,26,118.97
2032,F6,500.5,0.5,29,118.97
2033,F5,500.5,0.5,29,118.97
2034,D6,501.0,0.5,36,118.97
2035,D5,501.0,0.5,36,118.97
2036,E-4,501.188,0.5,24,118.97
2037,C6,501.5,0.5,36,118.97
2038,C5,501.5,0.5,36,118.97
2039,B-3,501.688,0.5,24,118.97
2040,D5,502.0,0.5,32,118.97
2041,D6,502.0,0.5,32,118.97
2042,E-3,502.188,0.5,29,118.97
2043,C5,502.5,0.5,31,118.97
2044,C6,502.5,0.5,31,118.97
2045,G#4,502.688,1.5,26,118.97
2046,G4,503.0,0.75,34,118.97
2047,G5,503.0,0.75,34,118.97
2048,G4,503.75,0.75,28,118.97
2049,G5,503.75,0.75,28,118.97
2050,D4,504.188,0.5,24,118.97
2051,B-3,504.688,0.5,24,118.97
2052,F4,505.0,0.5,35,118.97
2053,F5,505.0,0.5,35,118.97
2054,E-3,505.188,0.5,29,118.97
2055,G4,505.5,0.5,32,118.97
2056,G5,505.5,0.5,32,118.97
2057,G4,505.688,249/250,26,118.97
2058,G#4,506.0,0.5,36,118.97
2059,G#5,506.0,0.5,36,118.97
2060,B-5,506.5,0.5,32,118.97
2061,B-4,506.5,0.5,32,118.97
2062,G#5,507.0,0.5,36,118.97
2063,G#4,507.0,0.5,36,118.97
2064,E-4,507.188,0.5,24,118.97
2065,G5,507.5,62/125,36,118.97
2066,G4,507.5,62/125,36,118.97
2067,B-3,507.688,0.5,24,118.97
2068,F4,508.0,0.5,33,118.97
2069,F5,508.0,0.5,33,118.97
2070,E-3,508.188,0.5,29,118.97
2071,E-4,508.5,0.5,31,118.97
2072,E-5,508.5,0.5,31,118.97
2073,G#4,508.688,249/250,26,118.97
2074,B-3,509.0,0.75,34,118.97
2075,B-4,509.0,0.75,34,118.97
2076,B-3,509.75,0.75,28,118.97
2077,B-4,509.75,0.75,28,118.97
2078,D4,510.188,0.5,24,118.97
2079,B-3,510.688,0.5,24,118.97
2080,D4,511.0,2.5,31,118.97
2081,F4,511.0,0.5,35,118.97
2082,E-3,511.188,0.5,29,118.97
2083,G4,511.5,0.5,32,118.97
2084,G4,511.688,1.5,26,118.97
2085,G#4,512.0,0.5,36,118.97
2086,B-4,512.5,0.5,34,118.97
2087,G#4,513.0,0.25,36,118.97
2088,E-4,513.188,0.5,24,118.97
2089,G4,513.25,0.125,32,118.97
2090,G#4,513.375,0.125,33,118.97
2091,E-4,513.5,1.0,32,118.97
2092,G4,513.5,0.5,36,118.97
2093,G3,513.688,0.5,24,118.97
2094,F4,514.0,0.5,33,118.97
2095,B-2,514.188,0.5,29,118.97
2096,E-4,514.5,0.5,31,118.97
2097,G#3,514.688,1.5,26,118.97
2098,B-3,515.0,62/125,34,118.97
2099,C4,515.5,0.5,33,118.97
2100,E-4,516.0,0.5,33,118.97
2101,E3,516.188,0.5,24,118.97
2102,G#3,516.5,0.5,34,118.97
2103,D4,516.5,0.5,34,118.97
2104,F3,516.688,0.5,24,118.97
2105,F4,517.0,0.5,33,118.97
2106,B-2,517.188,0.5,29,118.97
2107,D4,517.5,0.25,31,118.97
2108,G3,517.688,1.5,26,118.97
2109,C4,517.75,0.125,27,118.97
2110,D4,517.875,0.125,27,118.97
2111,C4,518.0,0.75,33,118.97
2112,B-3,518.75,0.75,30,118.97
2113,G#3,518.75,0.75,30,118.97
2114,B-3,519.188,0.5,24,118.97
2115,B-3,519.5,0.5,28,118.97
2116,G4,519.5,1.5,33,118.97
2117,E-4,519.5,1.5,33,118.97
2118,G3,519.688,0.5,24,118.97
2119,A3,520.0,0.5,33,118.97
2120,B-2,520.188,0.5,29,118.97
2121,B-3,520.5,0.5,33,118.97
2122,G#3,520.688,1.5,26,118.97
2123,G3,521.0,0.5,35,118.97
2124,G3,521.5,0.5,35,118.97
2125,G4,521.5,1.0,37,118.97
2126,E-4,521.5,1.0,37,118.97
2127,B-3,522.0,0.5,31,118.97
2128,E3,522.188,0.5,24,118.97
2129,A3,522.5,0.5,28,118.97
2130,D4,522.5,1.5,33,118.97
2131,G#4,522.5,1.5,33,118.97
2132,F3,522.688,0.5,24,118.97
2133,B-3,523.0,0.5,31,118.97
2134,E-2,523.188,1.5,30,118.97
2135,E-3,523.188,1.5,30,118.97
2136,C4,523.5,0.5,31,118.97
2137,C#4,524.0,0.5,31,118.97
2138,D4,524.5,0.5,28,118.97
2139,G#4,524.5,1.0,36,118.97
2140,B-3,525.0,0.5,30,118.97
2141,B-1,525.188,1.0,28,118.97
2142,B-2,525.188,1.0,28,118.97
2143,B-3,525.5,0.5,27,118.97
2144,G4,525.5,1.5,32,118.97
2145,E-4,525.5,1.5,32,118.97
2146,A3,526.0,0.5,33,118.97
2147,F2,526.188,1.5,30,118.97
2148,F3,526.188,1.5,30,118.97
2149,B-3,526.5,0.5,33,118.97
2150,G3,527.0,0.5,35,118.97
2151,G3,527.5,0.5,35,118.97
2152,G4,527.5,1.0,37,118.97
2153,E-4,527.5,1.0,37,118.97
2154,B-3,528.0,0.5,30,118.97
2155,B-1,528.188,1.0,28,118.97
2156,B-2,528.188,1.0,28,118.97
2157,A3,528.5,0.5,27,118.97
2158,D4,528.5,1.5,32,118.97
2159,G#4,528.5,1.5,32,118.97
2160,B-3,529.0,0.5,31,118.97
2161,E-2,529.188,1.5,28,118.97
2162,E-3,529.188,1.5,28,118.97
2163,C4,529.5,0.5,31,118.97
2164,C#4,530.0,0.5,31,118.97
2165,D4,530.5,0.5,28,118.97
2166,G#4,530.5,1.0,36,118.97
2167,B-3,531.0,0.5,30,118.97
2168,B-1,531.188,1.0,28,118.97
2169,B-2,531.188,1.0,28,118.97
2170,B-3,531.5,0.5,27,118.97
2171,G4,531.5,1.5,32,118.97
2172,E-4,531.5,1.5,32,118.97
2173,A3,532.0,0.5,31,118.97
2174,F2,532.188,1.5,28,118.97
2175,F3,532.188,1.5,28,118.97
2176,B-3,532.5,0.5,31,118.97
2177,G3,533.0,0.5,33,118.97
2178,G3,533.5,0.5,33,118.97
2179,G4,533.5,1.0,36,118.97
2180,E-4,533.5,1.0,36,118.97
2181,B-3,534.0,0.5,28,118.97
2182,B-1,534.188,1.0,28,118.97
2183,B-2,534.188,1.0,28,118.97
2184,B-3,534.5,0.5,25,118.97
2185,G4,534.5,1.5,30,118.97
2186,E-4,534.5,1.5,30,118.97
2187,A3,535.0,0.5,29,118.97
2188,E-2,535.188,1.5,28,118.97
2189,E-3,535.188,1.5,28,118.97
2190,B-3,535.5,0.5,28,118.97
2191,G3,536.0,0.5,31,118.97
2192,G3,536.5,0.5,27,118.97
2193,G4,536.5,1.0,29,118.97
2194,E-4,536.5,1.0,29,118.97
2195,B-3,537.0,0.5,23,118.97
2196,B-1,537.188,1.0,26,118.97
2197,B-2,537.188,1.0,26,118.97
2198,G3,537.5,3.0,24,118.97
2199,E-4,537.5,3.0,24,118.97
2200,G4,537.5,3.0,24,118.97
2201,E-2,538.188,1.5,25,118.97
2202,E-3,538.188,1.5,25,118.97
2203,B-1,540.188,1.0,22,118.97
2204,B-2,540.188,1.0,22,118.97
2205,E-2,541.188,3.0,22,118.97
2206,E-3,541.188,3.0,22,118.97
2207,G3,542.0,1.5,24,118.97
2208,E-4,542.0,1.5,24,118.97
2209,G4,542.0,1.5,24,118.97
2210,E-5,543.5,1.5,29,118.97
2211,G5,543.5,1.5,29,118.97
2212,E-6,543.5,1.5,29,118.97
2213,B-6,545.0,3.0,28,118.97
2214,E-6,545.0,3.0,28,118.97
2215,G6,545.0,3.0,28,118.97
2216,E-7,545.0,3.0,28,118.97
2217,E-2,545.688,1.5,22,118.97
2218,E-3,545.688,1.5,22,118.97
2219,E-3,547.188,1.5,28,118.97
2220,E-4,547.188,1.5,28,118.97
2221,E-2,548.688,3.0,28,118.97
2222,E-3,548.688,3.0,28,118.97
