,note_name,start_time,duration,velocity,tempo
0,A4,0.0,0.5,51,107.5
1,F5,0.0,0.5,51,107.5
2,F3,0.0,0.5,42,107.5
3,C4,0.0,0.5,42,107.5
4,F4,0.0,0.5,42,107.5
5,A4,0.5,0.5,46,107.5
6,E5,0.5,167/1000,50,107.5
7,E4,0.5,167/1000,37,107.5
8,F5,0.667,167/1000,47,107.5
9,F4,0.667,167/1000,35,107.5
10,E5,0.833,167/1000,47,107.5
11,E4,0.833,167/1000,35,107.5
12,D5,1.0,0.25,50,107.5
13,A4,1.0,0.5,33,107.5
14,D4,1.0,0.25,37,107.5
15,E5,1.25,0.25,47,107.5
16,E4,1.25,0.25,35,107.5
17,A4,1.5,0.5,34,107.5
18,F5,1.5,0.25,53,107.5
19,F4,1.5,0.25,40,107.5
20,D5,1.75,0.25,49,107.5
21,D4,1.75,0.25,36,107.5
22,E4,2.0,0.188,38,107.5
23,A4,2.0,0.188,47,107.5
24,E5,2.0,0.188,47,107.5
25,C4,2.5,0.188,32,107.5
26,A4,2.5,0.188,41,107.5
27,C5,2.5,0.188,41,107.5
28,F5,3.0,0.5,51,107.5
29,A4,3.0,0.5,51,107.5
30,C4,3.0,0.5,42,107.5
31,F3,3.0,0.5,42,107.5
32,F4,3.0,0.5,42,107.5
33,A4,3.5,0.5,46,107.5
34,E5,3.5,167/1000,50,107.5
35,E4,3.5,167/1000,37,107.5
36,F5,3.667,167/1000,47,107.5
37,F4,3.667,167/1000,35,107.5
38,E5,3.833,167/1000,47,107.5
39,E4,3.833,167/1000,35,107.5
40,A4,4.0,0.5,32,107.5
41,D5,4.0,0.25,50,107.5
42,D4,4.0,0.25,37,107.5
43,E5,4.25,0.25,47,107.5
44,E4,4.25,0.25,35,107.5
45,F5,4.5,0.25,53,107.5
46,A4,4.5,0.5,33,107.5
47,F4,4.5,0.25,40,107.5
48,D5,4.75,0.25,49,107.5
49,D4,4.75,0.25,36,107.5
50,E4,5.0,0.188,38,107.5
51,A4,5.0,0.188,47,107.5
52,E5,5.0,0.188,47,107.5
53,C4,5.5,0.188,32,107.5
54,C5,5.5,0.188,41,107.5
55,A4,5.5,0.188,41,107.5
56,A4,6.0,0.5,43,107.5
57,D5,6.0,0.25,58,107.5
58,D4,6.0,0.25,44,107.5
59,E5,6.25,0.25,52,107.5
60,E4,6.25,0.25,39,107.5
61,C4,6.5,0.438,36,107.5
62,C5,6.5,0.438,46,107.5
63,A4,6.5,0.438,46,107.5
64,A4,7.0,0.5,43,107.5
65,D5,7.0,0.25,58,107.5
66,D4,7.0,0.25,44,107.5
67,E5,7.25,0.25,60,107.5
68,E4,7.25,0.25,45,107.5
69,F4,7.5,0.438,48,107.5
70,F5,7.5,0.438,54,107.5
71,A4,7.5,0.438,54,107.5
72,A4,8.0,0.5,43,107.5
73,D5,8.0,0.25,58,107.5
74,D4,8.0,0.25,44,107.5
75,E5,8.25,0.25,52,107.5
76,E4,8.25,0.25,39,107.5
77,C4,8.5,0.438,32,107.5
78,C5,8.5,0.438,41,107.5
79,A4,8.5,0.438,41,107.5
80,A4,9.0,0.5,41,107.5
81,D5,9.0,0.25,56,107.5
82,D4,9.0,0.25,42,107.5
83,E5,9.25,0.25,51,107.5
84,E4,9.25,0.25,38,107.5
85,C4,9.5,0.438,31,107.5
86,C5,9.5,0.438,40,107.5
87,A4,9.5,0.438,40,107.5
88,A4,10.0,0.5,46,107.5
89,D5,10.0,0.25,52,107.5
90,D4,10.0,0.25,36,107.5
91,E5,10.25,0.25,54,107.5
92,E4,10.25,0.25,38,107.5
93,G5,10.5,0.25,57,107.5
94,A4,10.5,0.5,43,107.5
95,G4,10.5,0.25,43,107.5
96,F5,10.75,0.25,51,107.5
97,F4,10.75,0.25,38,107.5
98,A4,11.0,0.5,43,107.5
99,D5,11.0,0.25,55,107.5
100,D4,11.0,0.25,42,107.5
101,E5,11.25,0.25,54,107.5
102,E4,11.25,0.25,40,107.5
103,C4,11.5,0.5,36,107.5
104,C5,11.5,0.5,44,107.5
105,A4,11.5,0.5,44,107.5
106,C#5,12.0,0.5,48,107.5
107,A5,12.0,0.5,48,107.5
108,E4,12.0,0.5,40,107.5
109,A3,12.0,0.5,40,107.5
110,A4,12.0,0.5,40,107.5
111,G#5,12.5,167/1000,47,107.5
112,C#5,12.5,0.5,43,107.5
113,G#4,12.5,167/1000,38,107.5
114,A5,12.667,167/1000,44,107.5
115,A4,12.667,167/1000,36,107.5
116,G#5,12.833,167/1000,44,107.5
117,G#4,12.833,167/1000,36,107.5
118,C#5,13.0,0.5,37,107.5
119,F#5,13.0,0.25,47,107.5
120,F#4,13.0,0.25,38,107.5
121,G#5,13.25,0.25,44,107.5
122,G#4,13.25,0.25,36,107.5
123,C#5,13.5,0.5,36,107.5
124,A5,13.5,0.25,49,107.5
125,A4,13.5,0.25,42,107.5
126,F#5,13.75,0.25,46,107.5
127,F#4,13.75,0.25,37,107.5
128,G#4,14.0,0.188,39,107.5
129,G#5,14.0,0.188,43,107.5
130,C#5,14.0,0.188,43,107.5
131,E4,14.5,0.188,37,107.5
132,C#5,14.5,0.188,42,107.5
133,E5,14.5,0.188,42,107.5
134,C#5,15.0,0.5,48,107.5
135,A5,15.0,0.5,48,107.5
136,E4,15.0,0.5,40,107.5
137,A3,15.0,0.5,40,107.5
138,A4,15.0,0.5,40,107.5
139,C#5,15.5,0.5,43,107.5
140,G#5,15.5,167/1000,47,107.5
141,G#4,15.5,167/1000,38,107.5
142,A5,15.667,167/1000,44,107.5
143,A4,15.667,167/1000,36,107.5
144,G#5,15.833,167/1000,44,107.5
145,G#4,15.833,167/1000,36,107.5
146,C#5,16.0,0.5,37,107.5
147,F#5,16.0,0.25,47,107.5
148,F#4,16.0,0.25,38,107.5
149,G#5,16.25,0.25,44,107.5
150,G#4,16.25,0.25,36,107.5
151,C#5,16.5,0.5,36,107.5
152,A5,16.5,0.25,49,107.5
153,A4,16.5,0.25,42,107.5
154,F#5,16.75,0.25,46,107.5
155,F#4,16.75,0.25,37,107.5
156,G#4,17.0,0.188,39,107.5
157,G#5,17.0,0.188,43,107.5
158,C#5,17.0,0.188,43,107.5
159,E4,17.5,0.188,37,107.5
160,C#5,17.5,0.188,42,107.5
161,E5,17.5,0.188,42,107.5
162,C#5,18.0,0.5,45,107.5
163,F#5,18.0,0.25,54,107.5
164,F#4,18.0,0.25,46,107.5
165,G#5,18.25,0.25,48,107.5
166,G#4,18.25,0.25,40,107.5
167,E4,18.5,0.438,37,107.5
168,C#5,18.5,0.438,45,107.5
169,E5,18.5,0.438,45,107.5
170,C#5,19.0,0.5,45,107.5
171,F#5,19.0,0.25,54,107.5
172,F#4,19.0,0.25,46,107.5
173,G#5,19.25,0.25,56,107.5
174,G#4,19.25,0.25,47,107.5
175,A4,19.5,0.438,50,107.5
176,C#5,19.5,0.438,53,107.5
177,A5,19.5,0.438,53,107.5
178,C#5,20.0,0.5,45,107.5
179,F#5,20.0,0.25,54,107.5
180,F#4,20.0,0.25,46,107.5
181,G#5,20.25,0.25,48,107.5
182,G#4,20.25,0.25,40,107.5
183,E4,20.5,0.438,33,107.5
184,C#5,20.5,0.438,40,107.5
185,E5,20.5,0.438,40,107.5
186,C#5,21.0,0.5,43,107.5
187,F#5,21.0,0.25,52,107.5
188,F#4,21.0,0.25,44,107.5
189,G#5,21.25,0.25,47,107.5
190,G#4,21.25,0.25,39,107.5
191,E4,21.5,0.438,32,107.5
192,C#5,21.5,0.438,39,107.5
193,E5,21.5,0.438,39,107.5
194,C#5,22.0,0.5,48,107.5
195,F#5,22.0,0.25,48,107.5
196,F#4,22.0,0.25,37,107.5
197,G#5,22.25,0.25,50,107.5
198,G#4,22.25,0.25,39,107.5
199,C#5,22.5,0.5,45,107.5
200,B5,22.5,0.25,53,107.5
201,B4,22.5,0.25,45,107.5
202,A5,22.75,0.25,47,107.5
203,A4,22.75,0.25,39,107.5
204,F#5,23.0,0.25,51,107.5
205,C#5,23.0,0.5,45,107.5
206,F#4,23.0,0.25,44,107.5
207,G#5,23.25,0.25,50,107.5
208,G#4,23.25,0.25,42,107.5
209,E4,23.5,0.5,37,107.5
210,C#5,23.5,0.5,44,107.5
211,E5,23.5,0.5,44,107.5
212,C6,24.0,0.5,70,107.5
213,E5,24.0,0.5,70,107.5
214,C3,24.0,0.25,58,107.5
215,G3,24.0,0.25,58,107.5
216,E5,24.5,0.5,56,107.5
217,B5,24.5,167/1000,76,107.5
218,G3,24.5,0.25,53,107.5
219,G2,24.5,0.25,53,107.5
220,C6,24.667,167/1000,66,107.5
221,B5,24.833,167/1000,66,107.5
222,A5,25.0,0.25,72,107.5
223,E5,25.0,0.5,41,107.5
224,G3,25.0,0.25,46,107.5
225,C3,25.0,0.25,46,107.5
226,B5,25.25,0.25,66,107.5
227,F5,25.5,0.5,42,107.5
228,C6,25.5,0.25,76,107.5
229,D3,25.5,0.25,58,107.5
230,G3,25.5,0.25,58,107.5
231,A5,25.75,0.25,67,107.5
232,F5,26.0,0.188,64,107.5
233,B5,26.0,0.188,64,107.5
234,G3,26.0,0.188,53,107.5
235,G2,26.0,0.188,53,107.5
236,F5,26.5,0.188,62,107.5
237,G5,26.5,0.188,62,107.5
238,G3,26.5,0.188,53,107.5
239,D3,26.5,0.188,53,107.5
240,C6,27.0,0.5,70,107.5
241,E5,27.0,0.5,70,107.5
242,G3,27.0,0.25,58,107.5
243,C3,27.0,0.25,58,107.5
244,E5,27.5,0.5,56,107.5
245,B5,27.5,167/1000,76,107.5
246,G3,27.5,0.25,53,107.5
247,G2,27.5,0.25,53,107.5
248,C6,27.667,167/1000,67,107.5
249,B5,27.833,167/1000,67,107.5
250,E5,28.0,0.5,41,107.5
251,A5,28.0,0.25,73,107.5
252,G3,28.0,0.25,46,107.5
253,C3,28.0,0.25,46,107.5
254,B5,28.25,0.25,68,107.5
255,C6,28.5,0.25,77,107.5
256,F5,28.5,0.5,40,107.5
257,D3,28.5,0.25,58,107.5
258,G3,28.5,0.25,58,107.5
259,A5,28.75,0.25,67,107.5
260,F5,29.0,0.188,64,107.5
261,B5,29.0,0.188,64,107.5
262,G2,29.0,0.188,53,107.5
263,G3,29.0,0.188,53,107.5
264,G5,29.5,0.188,62,107.5
265,F5,29.5,0.188,62,107.5
266,G3,29.5,0.188,53,107.5
267,D3,29.5,0.188,53,107.5
268,C3,30.0,0.5,45,107.5
269,G3,30.0,0.25,48,107.5
270,C4,30.0,0.25,58,107.5
271,E4,30.0,0.25,58,107.5
272,G#3,30.25,0.25,45,107.5
273,D4,30.25,0.25,54,107.5
274,F4,30.25,0.25,54,107.5
275,B-3,30.5,0.5,49,107.5
276,E4,30.5,0.5,58,107.5
277,G4,30.5,0.5,58,107.5
278,B-3,31.0,0.25,45,107.5
279,E4,31.0,0.25,54,107.5
280,G4,31.0,0.25,54,107.5
281,G#3,31.25,0.25,45,107.5
282,D4,31.25,0.25,54,107.5
283,F4,31.25,0.25,54,107.5
284,G3,31.5,0.25,43,107.5
285,E4,31.5,0.25,51,107.5
286,C4,31.5,0.25,51,107.5
287,G#3,31.75,0.25,43,107.5
288,D4,31.75,0.25,51,107.5
289,F4,31.75,0.25,51,107.5
290,B-3,32.0,0.25,44,107.5
291,G4,32.0,0.25,52,107.5
292,E4,32.0,0.25,52,107.5
293,C4,32.25,0.25,45,107.5
294,F4,32.25,0.25,54,107.5
295,G#4,32.25,0.25,54,107.5
296,C#4,32.5,0.25,46,107.5
297,G4,32.5,0.25,55,107.5
298,B-4,32.5,0.25,55,107.5
299,E-4,32.75,0.25,48,107.5
300,C5,32.75,0.25,57,107.5
301,G#4,32.75,0.25,57,107.5
302,C#4,33.0,0.25,47,107.5
303,G4,33.0,0.25,56,107.5
304,B-4,33.0,0.25,56,107.5
305,F4,33.25,0.25,49,107.5
306,C#5,33.25,0.25,58,107.5
307,B-4,33.25,0.25,58,107.5
308,E4,33.5,0.25,49,107.5
309,G#4,33.5,0.25,58,107.5
310,C5,33.5,0.25,58,107.5
311,C4,33.75,0.25,45,107.5
312,F4,33.75,0.25,54,107.5
313,G#4,33.75,0.25,54,107.5
314,C#4,34.0,0.25,48,107.5
315,B-4,34.0,0.25,57,107.5
316,G4,34.0,0.25,57,107.5
317,B-3,34.25,0.25,45,107.5
318,E4,34.25,0.25,54,107.5
319,G4,34.25,0.25,54,107.5
320,G#3,34.5,0.25,45,107.5
321,F4,34.5,0.25,54,107.5
322,C4,34.5,0.25,54,107.5
323,B-3,34.75,0.25,40,107.5
324,C#4,34.75,0.25,48,107.5
325,G4,34.75,0.25,48,107.5
326,G3,35.0,0.25,44,107.5
327,B-3,35.0,0.25,52,107.5
328,E4,35.0,0.25,52,107.5
329,G#3,35.25,0.25,40,107.5
330,F4,35.25,0.25,48,107.5
331,C4,35.25,0.25,48,107.5
332,F3,35.5,0.25,42,107.5
333,G#3,35.5,0.25,50,107.5
334,C#4,35.5,0.25,50,107.5
335,G3,35.75,0.25,40,107.5
336,E-4,35.75,0.25,48,107.5
337,B-3,35.75,0.25,48,107.5
338,E5,36.0,0.5,70,107.5
339,C6,36.0,0.5,70,107.5
340,G3,36.0,0.25,58,107.5
341,C3,36.0,0.25,58,107.5
342,E5,36.5,0.5,56,107.5
343,B5,36.5,167/1000,76,107.5
344,G3,36.5,0.25,53,107.5
345,G2,36.5,0.25,53,107.5
346,C6,36.667,167/1000,66,107.5
347,B5,36.833,167/1000,66,107.5
348,E5,37.0,0.5,42,107.5
349,A5,37.0,0.25,73,107.5
350,G3,37.0,0.25,46,107.5
351,C3,37.0,0.25,46,107.5
352,B5,37.25,0.25,69,107.5
353,C6,37.5,0.25,75,107.5
354,F5,37.5,0.5,41,107.5
355,G3,37.5,0.25,58,107.5
356,D3,37.5,0.25,58,107.5
357,A5,37.75,0.25,66,107.5
358,F5,38.0,0.188,64,107.5
359,B5,38.0,0.188,64,107.5
360,G3,38.0,0.188,53,107.5
361,G2,38.0,0.188,53,107.5
362,G5,38.5,0.188,62,107.5
363,F5,38.5,0.188,62,107.5
364,G3,38.5,0.188,53,107.5
365,D3,38.5,0.188,53,107.5
366,E5,39.0,0.5,70,107.5
367,C6,39.0,0.5,70,107.5
368,G3,39.0,0.25,58,107.5
369,C3,39.0,0.25,58,107.5
370,B5,39.5,167/1000,76,107.5
371,E5,39.5,0.5,56,107.5
372,G3,39.5,0.25,53,107.5
373,G2,39.5,0.25,53,107.5
374,C6,39.667,167/1000,67,107.5
375,B5,39.833,167/1000,67,107.5
376,E5,40.0,0.5,39,107.5
377,A5,40.0,0.25,72,107.5
378,G3,40.0,0.25,45,107.5
379,C3,40.0,0.25,45,107.5
380,B5,40.25,0.25,68,107.5
381,F5,40.5,0.5,41,107.5
382,C6,40.5,0.25,75,107.5
383,G3,40.5,0.25,58,107.5
384,D3,40.5,0.25,58,107.5
385,A5,40.75,0.25,65,107.5
386,B5,41.0,0.188,64,107.5
387,F5,41.0,0.188,64,107.5
388,G3,41.0,0.188,53,107.5
389,G2,41.0,0.188,53,107.5
390,F5,41.5,0.188,62,107.5
391,G5,41.5,0.188,62,107.5
392,G3,41.5,0.188,53,107.5
393,D3,41.5,0.188,53,107.5
394,G4,42.0,0.25,43,107.5
395,C4,42.0,0.5,40,107.5
396,C5,42.0,0.25,51,107.5
397,E5,42.0,0.25,51,107.5
398,G#4,42.25,0.25,40,107.5
399,F5,42.25,0.25,48,107.5
400,D5,42.25,0.25,48,107.5
401,B-4,42.5,0.5,44,107.5
402,E5,42.5,0.5,52,107.5
403,G5,42.5,0.5,52,107.5
404,B-4,43.0,0.25,40,107.5
405,G5,43.0,0.25,48,107.5
406,E5,43.0,0.25,48,107.5
407,G#4,43.25,0.25,40,107.5
408,F5,43.25,0.25,48,107.5
409,D5,43.25,0.25,48,107.5
410,G4,43.5,0.25,38,107.5
411,C5,43.5,0.25,46,107.5
412,E5,43.5,0.25,46,107.5
413,G#4,43.75,0.25,38,107.5
414,F5,43.75,0.25,46,107.5
415,D5,43.75,0.25,46,107.5
416,B-4,44.0,0.25,39,107.5
417,E5,44.0,0.25,46,107.5
418,G5,44.0,0.25,46,107.5
419,C5,44.25,0.25,40,107.5
420,F5,44.25,0.25,48,107.5
421,G#5,44.25,0.25,48,107.5
422,C#5,44.5,0.25,41,107.5
423,B-5,44.5,0.25,49,107.5
424,G5,44.5,0.25,49,107.5
425,E-5,44.75,0.25,43,107.5
426,G#5,44.75,0.25,50,107.5
427,C6,44.75,0.25,50,107.5
428,C#5,45.0,0.25,42,107.5
429,B-5,45.0,0.25,50,107.5
430,G5,45.0,0.25,50,107.5
431,F5,45.25,0.25,44,107.5
432,B-5,45.25,0.25,52,107.5
433,C#6,45.25,0.25,52,107.5
434,E5,45.5,0.25,44,107.5
435,G#5,45.5,0.25,52,107.5
436,C6,45.5,0.25,52,107.5
437,C5,45.75,0.25,40,107.5
438,G#5,45.75,0.25,48,107.5
439,F5,45.75,0.25,48,107.5
440,C#5,46.0,0.25,43,107.5
441,G5,46.0,0.25,50,107.5
442,B-5,46.0,0.25,50,107.5
443,B-4,46.25,0.25,40,107.5
444,G5,46.25,0.25,48,107.5
445,E5,46.25,0.25,48,107.5
446,G#4,46.5,0.25,40,107.5
447,C5,46.5,0.25,48,107.5
448,F5,46.5,0.25,48,107.5
449,B-4,46.75,0.25,36,107.5
450,C#5,46.75,0.25,42,107.5
451,G5,46.75,0.25,42,107.5
452,G4,47.0,0.25,39,107.5
453,E5,47.0,0.25,46,107.5
454,B-4,47.0,0.25,46,107.5
455,G#4,47.25,0.25,36,107.5
456,C5,47.25,0.25,42,107.5
457,F5,47.25,0.25,42,107.5
458,F4,47.5,0.25,37,107.5
459,C#5,47.5,0.25,44,107.5
460,G#4,47.5,0.25,44,107.5
461,G4,47.75,0.25,36,107.5
462,B-4,47.75,0.25,42,107.5
463,E-5,47.75,0.25,42,107.5
464,C4,48.0,0.25,45,107.5
465,E4,48.0,0.5,56,107.5
466,C5,48.0,0.5,56,107.5
467,B4,48.5,167/1000,60,107.5
468,E4,48.5,0.5,45,107.5
469,G5,48.5,0.25,65,107.5
470,C5,48.667,167/1000,54,107.5
471,B4,48.833,167/1000,54,107.5
472,A4,49.0,0.25,60,107.5
473,E4,49.0,0.5,33,107.5
474,G3,49.0,0.25,41,107.5
475,B4,49.25,0.25,56,107.5
476,F4,49.5,0.5,33,107.5
477,C5,49.5,0.25,59,107.5
478,D4,49.5,0.25,45,107.5
479,A4,49.75,0.25,58,107.5
480,G5,50.0,0.188,65,107.5
481,B4,50.0,0.188,51,107.5
482,F4,50.0,0.188,51,107.5
483,G3,50.5,0.188,41,107.5
484,F4,50.5,0.188,50,107.5
485,G4,50.5,0.188,50,107.5
486,C4,51.0,0.25,45,107.5
487,C5,51.0,0.5,56,107.5
488,E4,51.0,0.5,56,107.5
489,E4,51.5,0.5,45,107.5
490,B4,51.5,167/1000,60,107.5
491,G5,51.5,0.25,64,107.5
492,C5,51.667,167/1000,56,107.5
493,B4,51.833,167/1000,52,107.5
494,A4,52.0,0.25,60,107.5
495,E4,52.0,0.5,30,107.5
496,G3,52.0,0.25,41,107.5
497,B4,52.25,0.25,56,107.5
498,F4,52.5,0.5,32,107.5
499,C5,52.5,0.25,59,107.5
500,D4,52.5,0.25,45,107.5
501,A4,52.75,0.25,58,107.5
502,G5,53.0,0.188,65,107.5
503,F4,53.0,0.188,51,107.5
504,B4,53.0,0.188,51,107.5
505,G3,53.5,0.188,41,107.5
506,F4,53.5,0.188,50,107.5
507,G4,53.5,0.188,50,107.5
508,C5,54.0,0.188,56,107.5
509,G4,54.0,0.188,56,107.5
510,E4,54.0,0.5,44,107.5
511,C4,54.0,0.5,44,107.5
512,D5,54.5,167/1000,60,107.5
513,G4,54.5,0.5,44,107.5
514,B-4,54.5,0.5,44,107.5
515,F4,54.5,0.5,46,107.5
516,C4,54.5,0.5,46,107.5
517,E5,54.667,167/1000,53,107.5
518,D5,54.833,167/1000,53,107.5
519,G4,55.0,0.188,57,107.5
520,C5,55.0,0.188,57,107.5
521,E4,55.0,0.25,37,107.5
522,C4,55.0,0.25,37,107.5
523,D6,55.5,167/1000,66,107.5
524,B-5,55.5,0.5,48,107.5
525,G5,55.5,0.5,48,107.5
526,F5,55.5,0.5,50,107.5
527,C5,55.5,0.5,50,107.5
528,E6,55.667,167/1000,58,107.5
529,D6,55.833,167/1000,58,107.5
530,G5,56.0,0.188,62,107.5
531,C6,56.0,0.188,62,107.5
532,E5,56.0,0.25,40,107.5
533,C5,56.0,0.25,40,107.5
534,D7,56.5,167/1000,66,107.5
535,G6,56.5,0.5,48,107.5
536,B-6,56.5,0.5,48,107.5
537,C6,56.5,0.5,50,107.5
538,F6,56.5,0.5,50,107.5
539,E7,56.667,167/1000,58,107.5
540,D7,56.833,167/1000,58,107.5
541,C7,57.0,0.188,65,107.5
542,G6,57.0,0.188,65,107.5
543,E6,57.0,0.25,42,107.5
544,C6,57.0,0.25,42,107.5
545,D6,57.5,167/1000,75,107.5
546,G5,57.5,0.5,54,107.5
547,B-5,57.5,0.5,54,107.5
548,F5,57.5,0.5,57,107.5
549,C5,57.5,0.5,57,107.5
550,E6,57.667,167/1000,66,107.5
551,D6,57.833,167/1000,66,107.5
552,G5,58.0,0.188,71,107.5
553,C6,58.0,0.188,71,107.5
554,C5,58.0,0.25,46,107.5
555,E5,58.0,0.25,46,107.5
556,D5,58.5,167/1000,85,107.5
557,G4,58.5,0.5,61,107.5
558,B-4,58.5,0.5,61,107.5
559,C4,58.5,0.5,65,107.5
560,F4,58.5,0.5,65,107.5
561,E5,58.667,167/1000,73,107.5
562,D5,58.833,167/1000,69,107.5
563,G4,59.0,0.188,81,107.5
564,C5,59.0,0.188,81,107.5
565,E4,59.0,0.25,52,107.5
566,C4,59.0,0.25,52,107.5
567,E5,59.5,0.5,88,107.5
568,B-5,59.5,0.5,88,107.5
569,C6,59.5,0.5,88,107.5
570,C5,59.5,0.5,88,107.5
571,C3,59.5,0.25,61,107.5
572,C2,59.5,0.25,61,107.5
573,F5,60.0,0.5,79,107.5
574,A4,60.0,0.5,79,107.5
575,F3,60.0,0.5,64,107.5
576,F4,60.0,0.5,64,107.5
577,C4,60.0,0.5,64,107.5
578,A4,60.5,0.5,71,107.5
579,E5,60.5,167/1000,78,107.5
580,E4,60.5,167/1000,57,107.5
581,F5,60.667,167/1000,69,107.5
582,F4,60.667,167/1000,50,107.5
583,E5,60.833,167/1000,69,107.5
584,E4,60.833,167/1000,50,107.5
585,D5,61.0,0.25,74,107.5
586,A4,61.0,0.5,54,107.5
587,D4,61.0,0.25,57,107.5
588,E5,61.25,0.25,71,107.5
589,E4,61.25,0.25,53,107.5
590,A4,61.5,0.5,55,107.5
591,F5,61.5,0.25,76,107.5
592,F4,61.5,0.25,61,107.5
593,D5,61.75,0.25,72,107.5
594,D4,61.75,0.25,56,107.5
595,E4,62.0,0.188,59,107.5
596,A4,62.0,0.188,73,107.5
597,E5,62.0,0.188,73,107.5
598,C4,62.5,0.188,50,107.5
599,A4,62.5,0.188,64,107.5
600,C5,62.5,0.188,64,107.5
601,F5,63.0,0.5,76,107.5
602,A4,63.0,0.5,76,107.5
603,C4,63.0,0.5,61,107.5
604,F3,63.0,0.5,61,107.5
605,F4,63.0,0.5,61,107.5
606,A4,63.5,0.5,68,107.5
607,E5,63.5,167/1000,75,107.5
608,E4,63.5,167/1000,55,107.5
609,F5,63.667,167/1000,69,107.5
610,F4,63.667,167/1000,50,107.5
611,E5,63.833,167/1000,69,107.5
612,E4,63.833,167/1000,50,107.5
613,A4,64.0,0.5,54,107.5
614,D5,64.0,0.25,75,107.5
615,D4,64.0,0.25,55,107.5
616,E5,64.25,0.25,69,107.5
617,E4,64.25,0.25,50,107.5
618,F5,64.5,0.25,77,107.5
619,A4,64.5,0.5,51,107.5
620,F4,64.5,0.25,56,107.5
621,D5,64.75,0.25,70,107.5
622,D4,64.75,0.25,54,107.5
623,E4,65.0,0.188,57,107.5
624,A4,65.0,0.188,70,107.5
625,E5,65.0,0.188,70,107.5
626,C4,65.5,0.188,49,107.5
627,C5,65.5,0.188,60,107.5
628,A4,65.5,0.188,60,107.5
629,A4,66.0,0.5,53,107.5
630,D5,66.0,0.25,78,107.5
631,D4,66.0,0.25,54,107.5
632,E5,66.25,0.25,72,107.5
633,E4,66.25,0.25,48,107.5
634,C4,66.5,0.438,45,107.5
635,C5,66.5,0.438,60,107.5
636,A4,66.5,0.438,60,107.5
637,A4,67.0,0.5,51,107.5
638,D5,67.0,0.25,72,107.5
639,D4,67.0,0.25,48,107.5
640,E5,67.25,0.25,73,107.5
641,E4,67.25,0.25,51,107.5
642,F4,67.5,0.438,55,107.5
643,F5,67.5,0.438,65,107.5
644,A4,67.5,0.438,65,107.5
645,A4,68.0,0.5,53,107.5
646,D5,68.0,0.25,78,107.5
647,D4,68.0,0.25,54,107.5
648,E5,68.25,0.25,72,107.5
649,E4,68.25,0.25,48,107.5
650,C4,68.5,0.438,42,107.5
651,C5,68.5,0.438,58,107.5
652,A4,68.5,0.438,58,107.5
653,A4,69.0,0.5,45,107.5
654,D5,69.0,0.25,79,107.5
655,D4,69.0,0.25,51,107.5
656,E5,69.25,0.25,71,107.5
657,E4,69.25,0.25,48,107.5
658,C4,69.5,0.438,39,107.5
659,C5,69.5,0.438,56,107.5
660,A4,69.5,0.438,56,107.5
661,D5,70.0,0.25,71,107.5
662,A4,70.0,0.5,50,107.5
663,D4,70.0,0.25,43,107.5
664,E5,70.25,0.25,73,107.5
665,E4,70.25,0.25,44,107.5
666,A4,70.5,1.0,53,107.5
667,G5,70.5,0.25,78,107.5
668,G4,70.5,0.25,48,107.5
669,F5,70.75,0.25,71,107.5
670,F4,70.75,0.25,44,107.5
671,D5,71.0,0.25,77,107.5
672,D4,71.0,0.25,49,107.5
673,E5,71.25,0.25,72,107.5
674,E4,71.25,0.25,46,107.5
675,C5,71.5,0.5,68,107.5
676,C4,71.5,0.5,46,107.5
677,G#5,72.0,0.5,76,107.5
678,C5,72.0,0.5,76,107.5
679,G#3,72.0,0.5,61,107.5
680,G#4,72.0,0.5,61,107.5
681,E-4,72.0,0.5,61,107.5
682,C5,72.5,0.5,68,107.5
683,G5,72.5,167/1000,75,107.5
684,G4,72.5,167/1000,55,107.5
685,G#5,72.667,167/1000,67,107.5
686,G#4,72.667,167/1000,50,107.5
687,G5,72.833,167/1000,67,107.5
688,G4,72.833,167/1000,50,107.5
689,F5,73.0,0.25,75,107.5
690,C5,73.0,0.5,57,107.5
691,F4,73.0,0.25,55,107.5
692,G5,73.25,0.25,69,107.5
693,G4,73.25,0.25,50,107.5
694,C5,73.5,0.5,54,107.5
695,G#5,73.5,0.25,79,107.5
696,G#4,73.5,0.25,59,107.5
697,F5,73.75,0.25,72,107.5
698,F4,73.75,0.25,54,107.5
699,G4,74.0,0.188,57,107.5
700,C#5,74.0,0.188,70,107.5
701,G5,74.0,0.188,70,107.5
702,E-4,74.5,0.188,54,107.5
703,C#5,74.5,0.188,68,107.5
704,E-5,74.5,0.188,68,107.5
705,G#5,75.0,0.5,76,107.5
706,C5,75.0,0.5,76,107.5
707,E-4,75.0,0.5,61,107.5
708,G#3,75.0,0.5,61,107.5
709,G#4,75.0,0.5,61,107.5
710,C5,75.5,0.5,68,107.5
711,G5,75.5,167/1000,75,107.5
712,G4,75.5,167/1000,55,107.5
713,G#5,75.667,167/1000,67,107.5
714,G#4,75.667,167/1000,50,107.5
715,G5,75.833,167/1000,69,107.5
716,G4,75.833,167/1000,50,107.5
717,C5,76.0,0.5,58,107.5
718,F5,76.0,0.25,75,107.5
719,F4,76.0,0.25,55,107.5
720,G5,76.25,0.25,69,107.5
721,G4,76.25,0.25,50,107.5
722,G#5,76.5,0.25,79,107.5
723,C5,76.5,0.5,53,107.5
724,G#4,76.5,0.25,59,107.5
725,F5,76.75,0.25,72,107.5
726,F4,76.75,0.25,54,107.5
727,G4,77.0,0.188,57,107.5
728,C#5,77.0,0.188,70,107.5
729,G5,77.0,0.188,70,107.5
730,E-4,77.5,0.188,54,107.5
731,E-5,77.5,0.188,68,107.5
732,C#5,77.5,0.188,68,107.5
733,C5,78.0,0.5,53,107.5
734,F5,78.0,0.25,78,107.5
735,G#3,78.0,0.5,44,107.5
736,F4,78.0,0.25,54,107.5
737,G5,78.25,0.25,72,107.5
738,G4,78.25,0.25,48,107.5
739,E-4,78.5,0.438,45,107.5
740,E-5,78.5,0.438,60,107.5
741,C5,78.5,0.438,60,107.5
742,C5,79.0,0.5,51,107.5
743,F5,79.0,0.25,72,107.5
744,F4,79.0,0.25,48,107.5
745,G5,79.25,0.25,73,107.5
746,G4,79.25,0.25,51,107.5
747,G#4,79.5,0.438,55,107.5
748,G#5,79.5,0.438,65,107.5
749,C5,79.5,0.438,65,107.5
750,C5,80.0,0.5,53,107.5
751,F5,80.0,0.25,78,107.5
752,F4,80.0,0.25,54,107.5
753,G5,80.25,0.25,72,107.5
754,G4,80.25,0.25,48,107.5
755,E-4,80.5,0.438,42,107.5
756,E-5,80.5,0.438,56,107.5
757,C5,80.5,0.438,56,107.5
758,C5,81.0,0.5,45,107.5
759,F5,81.0,0.25,79,107.5
760,G#3,81.0,0.5,41,107.5
761,F4,81.0,0.25,51,107.5
762,G5,81.25,0.25,71,107.5
763,G4,81.25,0.25,48,107.5
764,E-4,81.5,0.438,40,107.5
765,E-5,81.5,0.438,54,107.5
766,C5,81.5,0.438,54,107.5
767,C5,82.0,0.5,50,107.5
768,F5,82.0,0.25,71,107.5
769,F4,82.0,0.25,43,107.5
770,G5,82.25,0.25,73,107.5
771,G4,82.25,0.25,44,107.5
772,B-5,82.5,0.25,78,107.5
773,C5,82.5,0.5,53,107.5
774,B-4,82.5,0.25,48,107.5
775,G#5,82.75,0.25,71,107.5
776,G#4,82.75,0.25,44,107.5
777,C5,83.0,0.5,49,107.5
778,F5,83.0,0.25,77,107.5
779,F4,83.0,0.25,49,107.5
780,G5,83.25,0.25,72,107.5
781,G4,83.25,0.25,46,107.5
782,E-4,83.5,0.5,46,107.5
783,E-5,83.5,0.5,56,107.5
784,C5,83.5,0.5,56,107.5
785,C2,84.0,0.25,92,107.5
786,B-3,84.5,0.25,60,107.5
787,C#4,84.5,0.25,60,107.5
788,F4,84.5,0.25,60,107.5
789,F3,84.75,0.25,58,107.5
790,C4,85.0,0.25,53,107.5
791,B-4,85.5,0.25,63,107.5
792,C#5,85.5,0.25,63,107.5
793,F5,85.5,0.25,63,107.5
794,F4,85.75,0.25,57,107.5
795,C5,86.0,0.25,54,107.5
796,G5,86.5,0.25,63,107.5
797,B-5,86.5,0.25,63,107.5
798,C#6,86.5,0.25,63,107.5
799,F5,86.75,0.25,61,107.5
800,C6,87.0,0.25,55,107.5
801,B-5,87.5,0.125,71,107.5
802,F5,87.5,0.125,71,107.5
803,G4,87.5,0.125,54,107.5
804,C#5,87.5,0.125,54,107.5
805,F5,87.75,0.125,71,107.5
806,B-5,87.75,0.125,71,107.5
807,G4,87.75,0.125,54,107.5
808,C#5,87.75,0.125,54,107.5
809,G5,88.0,0.25,63,107.5
810,F6,88.0,0.25,76,107.5
811,B-5,88.0,0.25,76,107.5
812,F5,88.5,0.25,73,107.5
813,B-5,88.5,0.25,73,107.5
814,G4,88.5,0.25,48,107.5
815,C#5,88.5,0.25,48,107.5
816,G5,89.0,0.25,54,107.5
817,F6,89.0,0.25,76,107.5
818,B-5,89.0,0.25,76,107.5
819,B-5,89.5,0.25,74,107.5
820,F5,89.5,0.25,74,107.5
821,C#5,89.5,0.25,48,107.5
822,G4,89.5,0.25,48,107.5
823,C2,90.0,0.25,92,107.5
824,C#4,90.5,0.25,63,107.5
825,B-3,90.5,0.25,63,107.5
826,F4,90.5,0.25,63,107.5
827,F3,90.75,0.25,56,107.5
828,C4,91.0,0.25,54,107.5
829,F5,91.5,0.25,63,107.5
830,B-4,91.5,0.25,63,107.5
831,C#5,91.5,0.25,63,107.5
832,F4,91.75,0.25,57,107.5
833,C5,92.0,0.25,54,107.5
834,C#6,92.5,0.25,63,107.5
835,G5,92.5,0.25,63,107.5
836,B-5,92.5,0.25,63,107.5
837,F5,92.75,0.25,57,107.5
838,C6,93.0,0.25,54,107.5
839,B-5,93.5,0.125,71,107.5
840,F5,93.5,0.125,71,107.5
841,C#5,93.5,0.125,54,107.5
842,G4,93.5,0.125,54,107.5
843,F5,93.75,0.125,71,107.5
844,B-5,93.75,0.125,71,107.5
845,C#5,93.75,0.125,54,107.5
846,G4,93.75,0.125,54,107.5
847,G5,94.0,0.25,63,107.5
848,F6,94.0,0.25,76,107.5
849,B-5,94.0,0.25,76,107.5
850,B-5,94.5,0.25,73,107.5
851,F5,94.5,0.25,73,107.5
852,G4,94.5,0.25,48,107.5
853,C#5,94.5,0.25,48,107.5
854,G5,95.0,0.25,54,107.5
855,B-5,95.0,0.25,76,107.5
856,F6,95.0,0.25,76,107.5
857,B-5,95.5,0.25,74,107.5
858,F5,95.5,0.25,74,107.5
859,G4,95.5,0.25,48,107.5
860,C#5,95.5,0.25,48,107.5
861,E6,96.0,0.5,75,107.5
862,C6,96.0,1.0,63,107.5
863,C5,96.0,1.5,44,107.5
864,G5,96.0,0.5,58,107.5
865,D6,96.5,167/1000,70,107.5
866,F5,96.5,167/1000,52,107.5
867,E6,96.667,167/1000,65,107.5
868,G5,96.667,167/1000,48,107.5
869,D6,96.833,167/1000,65,107.5
870,F5,96.833,167/1000,48,107.5
871,C6,97.0,0.5,70,107.5
872,E5,97.0,0.25,52,107.5
873,D6,97.25,0.25,65,107.5
874,F5,97.25,0.25,48,107.5
875,E6,97.5,0.25,74,107.5
876,C6,97.5,0.5,70,107.5
877,G5,97.5,0.25,56,107.5
878,C5,97.5,1.5,44,107.5
879,C6,97.75,0.25,64,107.5
880,E5,97.75,0.25,46,107.5
881,G#5,98.0,0.5,48,107.5
882,C#6,98.0,0.188,68,107.5
883,F5,98.0,0.188,50,107.5
884,C6,98.25,0.188,62,107.5
885,E5,98.25,0.188,45,107.5
886,G#5,98.5,0.5,52,107.5
887,C#6,98.5,0.188,67,107.5
888,F5,98.5,0.188,49,107.5
889,F6,98.75,0.188,62,107.5
890,G#5,98.75,0.188,45,107.5
891,E6,99.0,0.5,75,107.5
892,C6,99.0,1.0,63,107.5
893,C5,99.0,1.5,44,107.5
894,G5,99.0,0.5,58,107.5
895,D6,99.5,167/1000,70,107.5
896,F5,99.5,167/1000,52,107.5
897,E6,99.667,167/1000,65,107.5
898,G5,99.667,167/1000,48,107.5
899,D6,99.833,167/1000,65,107.5
900,F5,99.833,167/1000,48,107.5
901,C6,100.0,0.5,70,107.5
902,E5,100.0,0.25,52,107.5
903,D6,100.25,0.25,65,107.5
904,F5,100.25,0.25,48,107.5
905,E6,100.5,0.25,74,107.5
906,C6,100.5,0.5,70,107.5
907,G5,100.5,0.25,56,107.5
908,C5,100.5,1.5,44,107.5
909,C6,100.75,0.25,64,107.5
910,E5,100.75,0.25,46,107.5
911,G#5,101.0,0.5,51,107.5
912,C#6,101.0,0.188,68,107.5
913,F5,101.0,0.188,50,107.5
914,C6,101.25,0.188,62,107.5
915,E5,101.25,0.188,45,107.5
916,G#5,101.5,0.5,49,107.5
917,C#6,101.5,0.188,67,107.5
918,F5,101.5,0.188,49,107.5
919,F6,101.75,0.188,62,107.5
920,G#5,101.75,0.188,45,107.5
921,E5,102.0,0.5,75,107.5
922,C5,102.0,1.0,63,107.5
923,G4,102.0,0.5,58,107.5
924,C4,102.0,1.5,44,107.5
925,D5,102.5,167/1000,70,107.5
926,F4,102.5,167/1000,52,107.5
927,E5,102.667,167/1000,65,107.5
928,G4,102.667,167/1000,48,107.5
929,D5,102.833,167/1000,65,107.5
930,F4,102.833,167/1000,48,107.5
931,C5,103.0,0.125,70,107.5
932,E4,103.0,0.125,52,107.5
933,D5,103.25,0.125,65,107.5
934,F4,103.25,0.125,48,107.5
935,E5,103.5,0.125,66,107.5
936,G4,103.5,0.125,46,107.5
937,F5,103.75,0.125,67,107.5
938,G#4,103.75,0.125,48,107.5
939,G5,104.0,0.125,69,107.5
940,B-4,104.0,0.125,50,107.5
941,G#5,104.25,0.125,71,107.5
942,C5,104.25,0.125,52,107.5
943,B-5,104.5,0.125,73,107.5
944,C#5,104.5,0.125,54,107.5
945,C6,104.75,0.125,74,107.5
946,E-5,104.75,0.125,55,107.5
947,B-5,105.0,167/1000,72,107.5
948,C#5,105.0,167/1000,54,107.5
949,C6,105.167,167/1000,68,107.5
950,E-5,105.167,167/1000,51,107.5
951,B-5,105.333,167/1000,68,107.5
952,C#5,105.333,167/1000,51,107.5
953,G#5,105.5,167/1000,70,107.5
954,C5,105.5,167/1000,53,107.5
955,B-5,105.667,167/1000,65,107.5
956,C#5,105.667,167/1000,49,107.5
957,G#5,105.833,167/1000,69,107.5
958,C5,105.833,167/1000,52,107.5
959,G5,106.0,167/1000,68,107.5
960,B-4,106.0,167/1000,51,107.5
961,G#5,106.167,167/1000,65,107.5
962,C5,106.167,167/1000,49,107.5
963,G5,106.333,167/1000,64,107.5
964,B-4,106.333,167/1000,48,107.5
965,F5,106.5,167/1000,66,107.5
966,G#4,106.5,167/1000,50,107.5
967,G5,106.667,167/1000,61,107.5
968,B-4,106.667,167/1000,45,107.5
969,F5,106.833,167/1000,61,107.5
970,G#4,106.833,167/1000,45,107.5
971,E-5,107.0,167/1000,64,107.5
972,G4,107.0,167/1000,48,107.5
973,F5,107.167,167/1000,60,107.5
974,G#4,107.167,167/1000,45,107.5
975,E-5,107.333,167/1000,60,107.5
976,G4,107.333,167/1000,45,107.5
977,C#5,107.5,167/1000,62,107.5
978,F4,107.5,167/1000,46,107.5
979,E-5,107.667,167/1000,57,107.5
980,G4,107.667,167/1000,43,107.5
981,C#5,107.833,167/1000,57,107.5
982,F4,107.833,167/1000,43,107.5
983,C2,108.0,0.25,77,107.5
984,F5,108.5,0.25,53,107.5
985,B-4,108.5,0.25,53,107.5
986,C#5,108.5,0.25,53,107.5
987,G4,108.75,0.25,53,107.5
988,C5,109.0,0.25,50,107.5
989,B-5,109.5,0.25,53,107.5
990,F6,109.5,0.25,53,107.5
991,C#6,109.5,0.25,53,107.5
992,G5,109.75,0.25,52,107.5
993,C6,110.0,0.25,52,107.5
994,F5,110.5,0.25,53,107.5
995,C#5,110.5,0.25,53,107.5
996,B-4,110.5,0.25,53,107.5
997,G4,110.75,0.25,53,107.5
998,C5,111.0,0.25,51,107.5
999,B-5,111.5,0.125,65,107.5
1000,F5,111.5,0.125,65,107.5
1001,C#5,111.5,0.125,49,107.5
1002,G4,111.5,0.125,49,107.5
1003,B-5,111.75,0.125,65,107.5
1004,F5,111.75,0.125,65,107.5
1005,G4,111.75,0.125,49,107.5
1006,C#5,111.75,0.125,49,107.5
1007,G5,112.0,0.25,57,107.5
1008,B-5,112.0,0.25,70,107.5
1009,F6,112.0,0.25,70,107.5
1010,B-5,112.5,0.25,66,107.5
1011,F5,112.5,0.25,66,107.5
1012,C#5,112.5,0.25,44,107.5
1013,G4,112.5,0.25,44,107.5
1014,G5,113.0,0.25,49,107.5
1015,B-5,113.0,0.25,70,107.5
1016,F6,113.0,0.25,70,107.5
1017,B-5,113.5,0.25,68,107.5
1018,F5,113.5,0.25,68,107.5
1019,G4,113.5,0.25,44,107.5
1020,C#5,113.5,0.25,44,107.5
1021,C2,114.0,0.25,73,107.5
1022,B-4,114.5,0.25,50,107.5
1023,F5,114.5,0.25,50,107.5
1024,C#5,114.5,0.25,50,107.5
1025,G4,114.75,0.25,51,107.5
1026,C5,115.0,0.25,45,107.5
1027,B-5,115.5,0.25,48,107.5
1028,C#6,115.5,0.25,48,107.5
1029,F6,115.5,0.25,48,107.5
1030,G5,115.75,0.25,49,107.5
1031,C6,116.0,0.25,46,107.5
1032,F5,116.5,0.25,47,107.5
1033,C#5,116.5,0.25,47,107.5
1034,B-4,116.5,0.25,47,107.5
1035,G4,116.75,0.25,46,107.5
1036,C5,117.0,0.25,44,107.5
1037,F4,117.5,0.125,58,107.5
1038,B-4,117.5,0.125,58,107.5
1039,C#4,117.5,0.125,44,107.5
1040,G3,117.5,0.125,44,107.5
1041,B-4,117.75,0.125,58,107.5
1042,F4,117.75,0.125,58,107.5
1043,C#4,117.75,0.125,43,107.5
1044,G3,117.75,0.125,43,107.5
1045,G4,118.0,0.25,50,107.5
1046,B-4,118.0,0.25,61,107.5
1047,F5,118.0,0.25,61,107.5
1048,B-4,118.5,0.25,58,107.5
1049,F4,118.5,0.25,58,107.5
1050,C#4,118.5,0.25,38,107.5
1051,G3,118.5,0.25,38,107.5
1052,G4,119.0,0.25,42,107.5
1053,F5,119.0,0.25,60,107.5
1054,B-4,119.0,0.25,60,107.5
1055,F4,119.5,0.25,58,107.5
1056,B-4,119.5,0.25,58,107.5
1057,C#4,119.5,0.25,38,107.5
1058,G3,119.5,0.25,38,107.5
1059,C3,120.0,0.25,56,107.5
1060,B-4,120.5,0.25,47,107.5
1061,C#5,120.5,0.25,47,107.5
1062,F5,120.5,0.25,47,107.5
1063,G4,120.75,0.25,50,107.5
1064,C5,121.0,0.25,38,107.5
1065,B-4,121.5,0.25,42,107.5
1066,C#5,121.5,0.25,42,107.5
1067,F5,121.5,0.25,42,107.5
1068,G4,121.75,0.25,44,107.5
1069,C5,122.0,0.25,34,107.5
1070,C#5,122.5,0.25,37,107.5
1071,B-4,122.5,0.25,37,107.5
1072,F5,122.5,0.25,37,107.5
1073,G4,122.75,0.25,39,107.5
1074,C5,123.0,0.25,32,107.5
1075,C3,123.5,0.25,38,107.5
1076,C3,123.75,0.25,38,107.5
1077,C3,124.0,0.25,38,107.5
1078,C3,124.25,0.25,38,107.5
1079,C3,124.5,0.25,37,107.5
1080,C3,124.75,0.25,37,107.5
1081,C3,125.0,0.25,37,107.5
1082,C3,125.25,0.25,36,107.5
1083,C3,125.5,0.25,36,107.5
1084,C3,125.75,0.25,36,107.5
1085,C3,126.0,1.5,36,107.5
1086,C2,127.5,1.5,49,107.5
1087,B-4,127.5,0.5,59,107.5
1088,D5,127.5,0.5,59,107.5
1089,B-4,128.0,0.25,56,107.5
1090,D5,128.0,0.25,56,107.5
1091,B-4,128.25,0.25,56,107.5
1092,D5,128.25,0.25,56,107.5
1093,G5,128.5,0.5,59,107.5
1094,E5,128.5,0.5,59,107.5
1095,C3,129.0,0.25,47,107.5
1096,C5,129.5,0.25,37,107.5
1097,C4,130.0,0.25,37,107.5
1098,G5,130.25,1.25,59,107.5
1099,E5,130.25,1.25,59,107.5
1100,F2,130.5,1.5,46,107.5
1101,A4,131.5,0.125,43,107.5
1102,D5,131.5,0.25,54,107.5
1103,F5,131.5,0.25,54,107.5
1104,C5,131.75,0.5,45,107.5
1105,E5,131.75,167/1000,45,107.5
1106,F5,131.917,167/1000,45,107.5
1107,E4,132.0,0.125,41,107.5
1108,E5,132.083,167/1000,45,107.5
1109,A4,132.25,0.5,48,107.5
1110,C5,132.25,0.5,48,107.5
1111,F4,132.5,0.125,44,107.5
1112,C4,133.0,0.125,41,107.5
1113,F4,133.0,0.125,29,107.5
1114,A4,133.0,0.125,29,107.5
1115,C5,133.0,0.125,29,107.5
1116,C#2,133.5,0.25,51,107.5
1117,C5,133.5,0.125,26,107.5
1118,A4,133.5,0.125,26,107.5
1119,F4,133.5,0.125,26,107.5
1120,A4,134.0,0.25,45,107.5
1121,C5,134.0,0.125,29,107.5
1122,A4,134.0,0.125,29,107.5
1123,F4,134.0,0.125,29,107.5
1124,A3,134.5,0.25,47,107.5
1125,C5,134.5,0.125,24,107.5
1126,A4,134.5,0.125,24,107.5
1127,F4,134.5,0.125,24,107.5
1128,F5,134.75,0.5,59,107.5
1129,A5,134.75,0.5,59,107.5
1130,D2,135.0,0.25,47,107.5
1131,E5,135.25,0.25,53,107.5
1132,G5,135.25,0.25,53,107.5
1133,D3,135.5,0.25,37,107.5
1134,D5,135.5,0.25,53,107.5
1135,F5,135.5,0.25,53,107.5
1136,F5,135.75,0.5,57,107.5
1137,D5,135.75,0.5,57,107.5
1138,F#4,136.0,0.25,38,107.5
1139,G2,136.5,1.0,46,107.5
1140,F5,136.75,0.5,57,107.5
1141,D5,136.75,0.5,57,107.5
1142,E-5,137.25,0.25,48,107.5
1143,C5,137.25,0.25,48,107.5
1144,F#4,137.5,0.125,43,107.5
1145,F#5,137.5,0.25,37,107.5
1146,D5,137.5,0.25,37,107.5
1147,B-4,137.75,0.25,48,107.5
1148,D5,137.75,0.25,48,107.5
1149,C#4,138.0,0.125,41,107.5
1150,C5,138.0,0.25,40,107.5
1151,E-5,138.0,0.25,40,107.5
1152,A4,138.25,0.5,45,107.5
1153,C5,138.25,167/1000,45,107.5
1154,D5,138.417,167/1000,45,107.5
1155,E-4,138.5,0.125,44,107.5
1156,C5,138.583,167/1000,45,107.5
1157,G4,138.75,0.5,48,107.5
1158,B-4,138.75,0.5,48,107.5
1159,D4,139.0,0.125,41,107.5
1160,C2,139.5,1.5,52,107.5
1161,D4,139.5,0.125,29,107.5
1162,G4,139.5,0.125,29,107.5
1163,B-4,139.5,0.125,29,107.5
1164,B-4,140.0,0.125,26,107.5
1165,G4,140.0,0.125,26,107.5
1166,D4,140.0,0.125,26,107.5
1167,B-4,140.5,0.125,29,107.5
1168,G4,140.5,0.125,29,107.5
1169,D4,140.5,0.125,29,107.5
1170,C3,141.0,0.25,51,107.5
1171,B-4,141.0,0.125,24,107.5
1172,G4,141.0,0.125,24,107.5
1173,D4,141.0,0.125,24,107.5
1174,B-4,141.25,0.5,64,107.5
1175,D5,141.25,0.5,64,107.5
1176,C5,141.5,0.25,40,107.5
1177,B-4,141.75,0.25,61,107.5
1178,D5,141.75,0.25,61,107.5
1179,C4,142.0,0.25,38,107.5
1180,B-4,142.0,0.25,61,107.5
1181,D5,142.0,0.25,61,107.5
1182,G5,142.25,0.5,64,107.5
1183,E5,142.25,0.5,64,107.5
1184,F2,142.5,1.5,46,107.5
1185,A4,143.5,0.125,43,107.5
1186,E4,144.0,0.125,41,107.5
1187,G5,144.0,1.25,64,107.5
1188,E5,144.0,1.25,64,107.5
1189,F4,144.5,0.125,44,107.5
1190,C4,145.0,0.125,41,107.5
1191,D5,145.25,0.25,54,107.5
1192,F5,145.25,0.25,54,107.5
1193,C3,145.375,0.125,44,107.5
1194,C5,145.5,0.5,45,107.5
1195,E5,145.5,167/1000,45,107.5
1196,A1,145.5,0.5,56,107.5
1197,F5,145.667,167/1000,45,107.5
1198,E5,145.833,167/1000,45,107.5
1199,E2,146.0,1.0,49,107.5
1200,A4,146.0,0.5,44,107.5
1201,C5,146.0,0.5,44,107.5
1202,F4,146.75,0.125,29,107.5
1203,A4,146.75,0.125,29,107.5
1204,C5,146.75,0.125,29,107.5
1205,C3,147.0,0.5,51,107.5
1206,C5,147.25,0.125,26,107.5
1207,A4,147.25,0.125,26,107.5
1208,F4,147.25,0.125,26,107.5
1209,C4,147.5,1.0,40,107.5
1210,C5,147.75,0.125,29,107.5
1211,A4,147.75,0.125,29,107.5
1212,F4,147.75,0.125,29,107.5
1213,C5,148.25,0.125,24,107.5
1214,A4,148.25,0.125,24,107.5
1215,F4,148.25,0.125,24,107.5
1216,C5,148.375,0.125,52,107.5
1217,E-3,148.5,0.25,35,107.5
1218,A5,148.5,0.5,64,107.5
1219,C6,148.5,0.5,64,107.5
1220,E3,148.75,0.25,31,107.5
1221,C4,149.0,0.25,41,107.5
1222,G5,149.0,0.25,58,107.5
1223,B-5,149.0,0.25,58,107.5
1224,F5,149.25,0.25,58,107.5
1225,A5,149.25,0.25,58,107.5
1226,C4,149.5,0.25,41,107.5
1227,A5,149.5,0.5,62,107.5
1228,F5,149.5,0.5,62,107.5
1229,F4,150.0,0.125,38,107.5
1230,E5,150.0,0.25,58,107.5
1231,G5,150.0,0.25,58,107.5
1232,D5,150.25,0.25,58,107.5
1233,F5,150.25,0.25,58,107.5
1234,E4,150.5,0.125,41,107.5
1235,F5,150.5,0.25,58,107.5
1236,A5,150.5,0.25,58,107.5
1237,D4,151.0,0.125,38,107.5
1238,E5,151.0,0.25,50,107.5
1239,G5,151.0,0.25,50,107.5
1240,C5,151.25,0.25,45,107.5
1241,E5,151.25,0.25,45,107.5
1242,C2,151.5,1.5,49,107.5
1243,B-4,151.5,0.5,45,107.5
1244,D5,151.5,0.5,45,107.5
1245,B-4,152.0,167/1000,40,107.5
1246,G4,152.0,0.5,40,107.5
1247,C5,152.167,167/1000,40,107.5
1248,B-4,152.333,167/1000,40,107.5
1249,G4,152.5,0.5,40,107.5
1250,E4,152.5,0.5,40,107.5
1251,C3,153.0,0.25,47,107.5
1252,B-4,153.25,0.125,27,107.5
1253,C5,153.25,0.125,27,107.5
1254,E4,153.25,0.125,27,107.5
1255,C5,153.5,0.25,37,107.5
1256,B-4,153.75,0.125,31,107.5
1257,C5,153.75,0.125,31,107.5
1258,E4,153.75,0.125,31,107.5
1259,C4,154.0,0.25,37,107.5
1260,E4,154.25,0.125,25,107.5
1261,C5,154.25,0.125,25,107.5
1262,B-4,154.25,0.125,25,107.5
1263,F2,154.5,1.0,46,107.5
1264,G4,154.5,0.5,59,107.5
1265,B-4,154.5,0.5,59,107.5
1266,A4,155.0,0.25,56,107.5
1267,C5,155.0,0.25,56,107.5
1268,B-4,155.25,0.25,56,107.5
1269,D5,155.25,0.25,56,107.5
1270,A4,155.5,0.125,43,107.5
1271,G5,155.5,0.5,59,107.5
1272,E5,155.5,0.5,59,107.5
1273,E4,156.0,0.125,41,107.5
1274,F4,156.5,0.125,44,107.5
1275,C4,157.0,0.125,41,107.5
1276,G5,157.25,1.25,59,107.5
1277,E5,157.25,1.25,59,107.5
1278,C#2,157.5,0.25,51,107.5
1279,A4,158.0,0.25,45,107.5
1280,A3,158.5,0.25,47,107.5
1281,D5,158.5,0.25,54,107.5
1282,F5,158.5,0.25,54,107.5
1283,C5,158.75,0.5,45,107.5
1284,E5,158.75,167/1000,45,107.5
1285,F5,158.917,167/1000,45,107.5
1286,D2,159.0,0.25,47,107.5
1287,E5,159.083,167/1000,45,107.5
1288,A4,159.25,0.5,44,107.5
1289,C5,159.25,0.5,44,107.5
1290,D3,159.5,0.25,37,107.5
1291,F#4,160.0,0.25,38,107.5
1292,F4,160.0,0.125,29,107.5
1293,A4,160.0,0.125,29,107.5
1294,C5,160.0,0.125,29,107.5
1295,G2,160.5,1.0,46,107.5
1296,C5,160.5,0.125,26,107.5
1297,A4,160.5,0.125,26,107.5
1298,F4,160.5,0.125,26,107.5
1299,C5,161.0,0.125,29,107.5
1300,A4,161.0,0.125,29,107.5
1301,F4,161.0,0.125,29,107.5
1302,F#4,161.5,0.125,43,107.5
1303,C5,161.5,0.125,24,107.5
1304,A4,161.5,0.125,24,107.5
1305,F4,161.5,0.125,24,107.5
1306,F5,161.75,0.5,59,107.5
1307,A5,161.75,0.5,59,107.5
1308,C#4,162.0,0.125,41,107.5
1309,E5,162.25,0.25,53,107.5
1310,G5,162.25,0.25,53,107.5
1311,E-4,162.5,0.125,44,107.5
1312,D5,162.5,0.25,53,107.5
1313,F5,162.5,0.25,53,107.5
1314,F5,162.75,0.5,57,107.5
1315,D5,162.75,0.5,57,107.5
1316,D4,163.0,0.125,41,107.5
1317,C2,163.5,1.5,51,107.5
1318,F5,163.75,0.5,57,107.5
1319,D5,163.75,0.5,57,107.5
1320,E-5,164.25,0.25,48,107.5
1321,C5,164.25,0.25,48,107.5
1322,F#5,164.5,0.25,38,107.5
1323,D5,164.5,0.25,38,107.5
1324,B-4,164.75,0.25,48,107.5
1325,D5,164.75,0.25,48,107.5
1326,C4,165.0,0.25,47,107.5
1327,C5,165.0,0.25,38,107.5
1328,E-5,165.0,0.25,38,107.5
1329,A4,165.25,0.5,45,107.5
1330,C5,165.25,167/1000,45,107.5
1331,D5,165.417,167/1000,45,107.5
1332,C5,165.5,0.25,37,107.5
1333,C5,165.583,167/1000,45,107.5
1334,G4,165.75,0.5,48,107.5
1335,B-4,165.75,0.5,48,107.5
1336,C3,166.0,0.25,39,107.5
1337,F2,166.5,0.5,46,107.5
1338,D4,166.5,0.125,29,107.5
1339,G4,166.5,0.125,29,107.5
1340,B-4,166.5,0.125,29,107.5
1341,B2,167.0,0.25,31,107.5
1342,B-4,167.0,0.125,26,107.5
1343,G4,167.0,0.125,26,107.5
1344,D4,167.0,0.125,26,107.5
1345,C3,167.25,0.25,29,107.5
1346,A3,167.5,0.5,30,107.5
1347,B-4,167.5,0.125,29,107.5
1348,G4,167.5,0.125,29,107.5
1349,D4,167.5,0.125,29,107.5
1350,C2,168.0,0.25,42,107.5
1351,B-4,168.0,0.125,24,107.5
1352,G4,168.0,0.125,24,107.5
1353,D4,168.0,0.125,24,107.5
1354,G5,168.25,0.25,59,107.5
1355,B-5,168.25,0.25,59,107.5
1356,F3,168.5,167/1000,37,107.5
1357,G3,168.667,167/1000,35,107.5
1358,E5,168.75,0.25,56,107.5
1359,G5,168.75,0.25,56,107.5
1360,F3,168.833,167/1000,35,107.5
1361,E3,169.0,0.25,37,107.5
1362,C5,169.0,0.25,56,107.5
1363,E5,169.0,0.25,56,107.5
1364,D3,169.25,0.25,35,107.5
1365,C5,169.25,0.5,59,107.5
1366,A4,169.25,0.5,59,107.5
1367,F2,169.5,0.5,40,107.5
1368,F3,169.5,0.5,40,107.5
1369,C5,169.75,1.0,59,107.5
1370,A4,169.75,1.0,59,107.5
1371,E3,170.0,0.188,43,107.5
1372,D3,170.25,0.188,40,107.5
1373,C3,170.5,0.188,41,107.5
1374,E3,170.75,0.188,39,107.5
1375,B-4,170.75,0.5,48,107.5
1376,D5,170.75,0.5,48,107.5
1377,D3,171.0,0.188,43,107.5
1378,G4,171.25,0.5,45,107.5
1379,B-4,171.25,167/1000,45,107.5
1380,E3,171.25,0.188,40,107.5
1381,C5,171.417,167/1000,45,107.5
1382,F3,171.5,167/1000,37,107.5
1383,B-4,171.583,167/1000,45,107.5
1384,G3,171.667,167/1000,35,107.5
1385,F4,171.75,0.5,44,107.5
1386,A4,171.75,0.5,44,107.5
1387,F3,171.833,167/1000,35,107.5
1388,E3,172.0,0.25,37,107.5
1389,D3,172.25,0.25,35,107.5
1390,F2,172.5,0.5,40,107.5
1391,F3,172.5,0.5,40,107.5
1392,E3,173.0,0.188,43,107.5
1393,A3,173.25,0.5,46,107.5
1394,F4,173.25,167/1000,50,107.5
1395,D3,173.25,0.188,40,107.5
1396,G4,173.417,167/1000,47,107.5
1397,C3,173.5,0.188,41,107.5
1398,F4,173.583,167/1000,47,107.5
1399,A3,173.75,0.5,43,107.5
1400,E4,173.75,0.25,50,107.5
1401,E3,173.75,0.188,39,107.5
1402,D4,174.0,0.25,47,107.5
1403,D3,174.0,0.188,43,107.5
1404,E3,174.25,0.188,40,107.5
1405,A3,174.25,0.5,46,107.5
1406,F4,174.25,0.5,46,107.5
1407,F3,174.5,167/1000,37,107.5
1408,G3,174.667,167/1000,35,107.5
1409,A3,174.75,0.188,47,107.5
1410,E4,174.75,0.188,47,107.5
1411,F3,174.833,167/1000,35,107.5
1412,D4,175.0,0.188,48,107.5
1413,E3,175.0,0.25,37,107.5
1414,D3,175.25,0.25,35,107.5
1415,A3,175.25,0.188,46,107.5
1416,C4,175.25,0.188,46,107.5
1417,E4,175.5,0.188,46,107.5
1418,F3,175.5,0.25,40,107.5
1419,A3,175.75,0.5,39,107.5
1420,D4,175.75,0.188,51,107.5
1421,E3,175.75,0.188,40,107.5
1422,E4,176.0,0.188,48,107.5
1423,D3,176.0,0.188,43,107.5
1424,A3,176.25,0.5,46,107.5
1425,F4,176.25,167/1000,50,107.5
1426,E3,176.25,0.188,40,107.5
1427,G4,176.417,167/1000,47,107.5
1428,C3,176.5,0.188,41,107.5
1429,F4,176.583,167/1000,47,107.5
1430,A3,176.75,0.5,43,107.5
1431,E4,176.75,0.25,50,107.5
1432,E3,176.75,0.188,39,107.5
1433,D4,177.0,0.25,47,107.5
1434,D3,177.0,0.188,43,107.5
1435,E3,177.25,0.188,40,107.5
1436,A3,177.25,0.5,46,107.5
1437,F4,177.25,0.5,46,107.5
1438,F3,177.5,167/1000,37,107.5
1439,G3,177.667,167/1000,35,107.5
1440,A3,177.75,0.188,47,107.5
1441,E4,177.75,0.188,47,107.5
1442,F3,177.833,167/1000,35,107.5
1443,D4,178.0,0.188,48,107.5
1444,E3,178.0,0.25,37,107.5
1445,D3,178.25,0.25,35,107.5
1446,A3,178.25,0.188,46,107.5
1447,C4,178.25,0.188,46,107.5
1448,E4,178.5,0.188,46,107.5
1449,G2,178.5,1.5,40,107.5
1450,F3,178.5,0.25,40,107.5
1451,A3,178.75,0.5,39,107.5
1452,D4,178.75,0.188,51,107.5
1453,E3,178.75,0.188,40,107.5
1454,E4,179.0,0.188,48,107.5
1455,D3,179.0,0.188,43,107.5
1456,A3,179.25,0.5,46,107.5
1457,F4,179.25,167/1000,50,107.5
1458,F3,179.25,0.188,40,107.5
1459,G4,179.417,167/1000,47,107.5
1460,E3,179.5,0.5,41,107.5
1461,F4,179.583,167/1000,47,107.5
1462,A3,179.75,0.5,43,107.5
1463,E4,179.75,0.25,50,107.5
1464,D4,180.0,0.25,47,107.5
1465,C2,180.0,0.5,54,107.5
1466,A3,180.25,0.5,51,107.5
1467,F4,180.25,0.25,60,107.5
1468,E4,180.5,0.188,48,107.5
1469,C#5,180.5,0.25,57,107.5
1470,E5,180.75,0.25,52,107.5
1471,A3,180.75,0.188,52,107.5
1472,D4,180.75,0.188,52,107.5
1473,E4,181.0,0.188,48,107.5
1474,C5,181.0,0.25,57,107.5
1475,E-5,181.25,0.25,52,107.5
1476,A3,181.25,0.188,50,107.5
1477,C4,181.25,0.188,50,107.5
1478,E4,181.5,0.188,46,107.5
1479,B4,181.5,0.25,57,107.5
1480,A3,181.75,0.5,39,107.5
1481,D4,181.75,0.188,51,107.5
1482,E4,182.0,0.188,48,107.5
1483,B4,182.0,0.125,65,107.5
1484,A3,182.25,0.5,46,107.5
1485,F4,182.25,167/1000,50,107.5
1486,D5,182.25,0.125,56,107.5
1487,G4,182.417,167/1000,47,107.5
1488,G#4,182.5,0.25,65,107.5
1489,F4,182.583,167/1000,47,107.5
1490,A3,182.75,0.5,43,107.5
1491,E4,182.75,0.25,50,107.5
1492,D4,183.0,0.25,47,107.5
1493,B1,183.0,0.5,54,107.5
1494,B-3,183.25,0.5,51,107.5
1495,F4,183.25,0.25,57,107.5
1496,E4,183.5,0.188,48,107.5
1497,B4,183.5,0.25,57,107.5
1498,D5,183.75,0.25,52,107.5
1499,B-3,183.75,0.188,50,107.5
1500,D4,183.75,0.188,50,107.5
1501,F4,184.0,0.188,48,107.5
1502,B-4,184.0,0.25,57,107.5
1503,C#5,184.25,0.25,52,107.5
1504,B-3,184.25,0.5,50,107.5
1505,E4,184.25,0.5,50,107.5
1506,A4,184.5,0.25,57,107.5
1507,B4,185.0,0.125,65,107.5
1508,G5,185.25,0.5,67,107.5
1509,B-5,185.25,167/1000,67,107.5
1510,C5,185.25,0.125,56,107.5
1511,C6,185.417,167/1000,57,107.5
1512,F#4,185.5,0.25,65,107.5
1513,B-5,185.583,167/1000,57,107.5
1514,F#5,185.75,0.5,65,107.5
1515,A5,185.75,167/1000,65,107.5
1516,B-5,185.917,167/1000,57,107.5
1517,F#3,186.0,0.25,54,107.5
1518,A5,186.083,167/1000,57,107.5
1519,F5,186.25,0.5,66,107.5
1520,G#5,186.25,0.5,66,107.5
1521,A4,186.5,0.25,63,107.5
1522,F6,186.75,0.125,78,107.5
1523,C5,186.75,0.25,58,107.5
1524,G#4,187.0,0.25,61,107.5
1525,F5,187.0,0.125,70,107.5
1526,G#5,187.0,0.125,70,107.5
1527,B6,187.25,0.25,76,107.5
1528,B4,187.25,0.25,57,107.5
1529,G4,187.5,0.25,59,107.5
1530,B-4,187.75,0.25,53,107.5
1531,F#4,188.0,0.25,59,107.5
1532,F5,188.25,0.5,67,107.5
1533,G#5,188.25,167/1000,67,107.5
1534,A4,188.25,0.25,52,107.5
1535,B-5,188.417,167/1000,57,107.5
1536,F4,188.5,0.25,57,107.5
1537,G#5,188.583,167/1000,57,107.5
1538,E5,188.75,0.5,65,107.5
1539,G5,188.75,167/1000,65,107.5
1540,G#4,188.75,0.25,50,107.5
1541,G#5,188.917,167/1000,57,107.5
1542,F4,189.0,0.25,56,107.5
1543,G5,189.083,167/1000,57,107.5
1544,G4,189.25,0.25,49,107.5
1545,E-5,189.25,0.5,66,107.5
1546,F#5,189.25,0.5,66,107.5
1547,E4,189.5,0.25,53,107.5
1548,E-6,189.75,0.125,78,107.5
1549,G4,189.75,0.25,48,107.5
1550,C3,190.0,0.5,52,107.5
1551,E-5,190.0,0.125,70,107.5
1552,F#5,190.0,0.125,70,107.5
1553,A6,190.25,0.25,76,107.5
1554,F2,190.5,0.5,56,107.5
1555,B3,191.0,0.25,49,107.5
1556,E-5,191.25,0.25,58,107.5
1557,F#5,191.25,167/1000,74,107.5
1558,C4,191.25,0.25,49,107.5
1559,G#5,191.417,167/1000,63,107.5
1560,A4,191.5,0.5,54,107.5
1561,F#5,191.583,167/1000,63,107.5
1562,D5,191.75,0.25,56,107.5
1563,F5,191.75,167/1000,72,107.5
1564,F#5,191.917,167/1000,63,107.5
1565,C2,192.0,0.25,42,107.5
1566,F5,192.083,167/1000,63,107.5
1567,C#5,192.25,0.25,54,107.5
1568,E5,192.25,167/1000,71,107.5
1569,F#5,192.417,167/1000,61,107.5
1570,F3,192.5,167/1000,37,107.5
1571,E5,192.583,167/1000,60,107.5
1572,G3,192.667,167/1000,35,107.5
1573,C5,192.75,0.25,54,107.5
1574,E-5,192.75,167/1000,69,107.5
1575,F3,192.833,167/1000,35,107.5
1576,F5,192.917,167/1000,59,107.5
1577,E3,193.0,0.25,37,107.5
1578,E-5,193.083,167/1000,59,107.5
1579,B4,193.25,0.25,52,107.5
1580,D5,193.25,167/1000,67,107.5
1581,D3,193.25,0.25,35,107.5
1582,E-5,193.417,167/1000,55,107.5
1583,F3,193.5,0.5,40,107.5
1584,F2,193.5,0.5,40,107.5
1585,D5,193.583,167/1000,55,107.5
1586,B-4,193.75,0.25,51,107.5
1587,C#5,193.75,167/1000,65,107.5
1588,E-5,193.917,167/1000,56,107.5
1589,E3,194.0,0.188,43,107.5
1590,C#5,194.083,167/1000,55,107.5
1591,B-4,194.25,0.25,49,107.5
1592,C5,194.25,167/1000,63,107.5
1593,D3,194.25,0.188,40,107.5
1594,D5,194.417,167/1000,54,107.5
1595,C3,194.5,0.188,41,107.5
1596,C5,194.583,167/1000,54,107.5
1597,B-5,194.75,0.5,68,107.5
1598,D5,194.75,167/1000,68,107.5
1599,E3,194.75,0.188,39,107.5
1600,C5,194.917,167/1000,56,107.5
1601,D3,195.0,0.188,43,107.5
1602,D5,195.083,167/1000,56,107.5
1603,E3,195.25,0.188,40,107.5
1604,C5,195.25,0.25,65,107.5
1605,A5,195.25,0.25,65,107.5
1606,F5,195.5,0.125,48,107.5
1607,F3,195.5,167/1000,37,107.5
1608,G5,195.625,0.125,48,107.5
1609,G3,195.667,167/1000,35,107.5
1610,A4,195.75,0.5,57,107.5
1611,F5,195.75,0.25,57,107.5
1612,F3,195.833,167/1000,35,107.5
1613,D5,196.0,0.25,57,107.5
1614,E3,196.0,0.25,37,107.5
1615,C5,196.25,0.5,63,107.5
1616,D3,196.25,0.25,35,107.5
1617,F2,196.5,0.5,40,107.5
1618,F3,196.5,0.5,40,107.5
1619,E3,197.0,0.188,43,107.5
1620,A3,197.25,0.5,46,107.5
1621,F4,197.25,167/1000,50,107.5
1622,D3,197.25,0.188,40,107.5
1623,G4,197.417,167/1000,47,107.5
1624,C3,197.5,0.188,41,107.5
1625,F4,197.583,167/1000,47,107.5
1626,A3,197.75,0.5,43,107.5
1627,E4,197.75,0.25,50,107.5
1628,E3,197.75,0.188,39,107.5
1629,D4,198.0,0.25,47,107.5
1630,D3,198.0,0.188,43,107.5
1631,E3,198.25,0.188,40,107.5
1632,A3,198.25,0.5,46,107.5
1633,F4,198.25,0.5,46,107.5
1634,F3,198.5,167/1000,37,107.5
1635,G3,198.667,167/1000,35,107.5
1636,A3,198.75,0.188,47,107.5
1637,E4,198.75,0.188,47,107.5
1638,F3,198.833,167/1000,35,107.5
1639,D4,199.0,0.188,48,107.5
1640,E3,199.0,0.25,37,107.5
1641,D3,199.25,0.25,35,107.5
1642,A3,199.25,0.188,46,107.5
1643,C4,199.25,0.188,46,107.5
1644,E4,199.5,0.188,46,107.5
1645,F3,199.5,0.25,40,107.5
1646,A3,199.75,0.5,39,107.5
1647,D4,199.75,0.188,51,107.5
1648,E3,199.75,0.188,40,107.5
1649,E4,200.0,0.188,48,107.5
1650,D3,200.0,0.188,43,107.5
1651,A3,200.25,0.5,46,107.5
1652,F4,200.25,167/1000,50,107.5
1653,E3,200.25,0.188,40,107.5
1654,G4,200.417,167/1000,47,107.5
1655,C3,200.5,0.188,41,107.5
1656,F4,200.583,167/1000,47,107.5
1657,A3,200.75,0.5,43,107.5
1658,E4,200.75,0.25,50,107.5
1659,E3,200.75,0.188,39,107.5
1660,D4,201.0,0.25,47,107.5
1661,D3,201.0,0.188,43,107.5
1662,E3,201.25,0.188,40,107.5
1663,A3,201.25,0.5,46,107.5
1664,F4,201.25,0.5,46,107.5
1665,F3,201.5,167/1000,37,107.5
1666,G3,201.667,167/1000,35,107.5
1667,A3,201.75,0.188,47,107.5
1668,E4,201.75,0.188,47,107.5
1669,F3,201.833,167/1000,35,107.5
1670,D4,202.0,0.188,48,107.5
1671,E3,202.0,0.25,37,107.5
1672,D3,202.25,0.25,35,107.5
1673,A3,202.25,0.188,46,107.5
1674,C4,202.25,0.188,46,107.5
1675,E4,202.5,0.188,46,107.5
1676,F3,202.5,0.25,40,107.5
1677,G2,202.5,1.5,40,107.5
1678,A3,202.75,0.5,39,107.5
1679,D4,202.75,0.188,51,107.5
1680,E3,202.75,0.188,40,107.5
1681,E4,203.0,0.188,48,107.5
1682,D3,203.0,0.188,43,107.5
1683,A3,203.25,0.5,46,107.5
1684,F4,203.25,167/1000,50,107.5
1685,F3,203.25,0.188,40,107.5
1686,G4,203.417,167/1000,47,107.5
1687,E3,203.5,0.5,41,107.5
1688,F4,203.583,167/1000,47,107.5
1689,A3,203.75,0.5,43,107.5
1690,E4,203.75,0.25,50,107.5
1691,D4,204.0,0.25,47,107.5
1692,G1,204.0,0.5,56,107.5
1693,A3,204.25,0.5,51,107.5
1694,F4,204.25,0.25,60,107.5
1695,E4,204.5,0.188,48,107.5
1696,D5,204.5,0.25,59,107.5
1697,E5,204.75,0.25,53,107.5
1698,A3,204.75,0.188,52,107.5
1699,D4,204.75,0.188,52,107.5
1700,E4,205.0,0.188,48,107.5
1701,B-4,205.0,0.25,59,107.5
1702,D5,205.25,0.25,53,107.5
1703,A3,205.25,0.188,50,107.5
1704,C4,205.25,0.188,50,107.5
1705,E4,205.5,0.188,46,107.5
1706,G4,205.5,0.5,59,107.5
1707,A3,205.75,0.5,39,107.5
1708,D4,205.75,0.188,51,107.5
1709,E4,206.0,0.188,48,107.5
1710,B-4,206.0,0.25,62,107.5
1711,A3,206.25,0.5,46,107.5
1712,F4,206.25,167/1000,50,107.5
1713,D5,206.25,0.25,54,107.5
1714,G4,206.417,167/1000,47,107.5
1715,E4,206.5,0.5,62,107.5
1716,F4,206.583,167/1000,47,107.5
1717,A3,206.75,0.5,43,107.5
1718,E4,206.75,0.25,50,107.5
1719,D4,207.0,0.25,47,107.5
1720,E3,207.0,0.5,56,107.5
1721,B-3,207.25,0.5,51,107.5
1722,F4,207.25,0.25,57,107.5
1723,E4,207.5,0.188,48,107.5
1724,B-4,207.5,0.25,59,107.5
1725,D5,207.75,0.25,53,107.5
1726,B-3,207.75,0.188,50,107.5
1727,D4,207.75,0.188,50,107.5
1728,F4,208.0,0.188,48,107.5
1729,G4,208.0,0.25,59,107.5
1730,B-4,208.25,0.25,53,107.5
1731,B-3,208.25,0.5,50,107.5
1732,E4,208.25,0.5,50,107.5
1733,E4,208.5,0.5,59,107.5
1734,C#4,209.0,0.25,59,107.5
1735,G5,209.25,0.5,69,107.5
1736,B-5,209.25,167/1000,69,107.5
1737,A4,209.25,0.25,52,107.5
1738,C6,209.417,167/1000,58,107.5
1739,A3,209.5,0.5,59,107.5
1740,B-5,209.583,167/1000,58,107.5
1741,G5,209.75,167/1000,67,107.5
1742,A5,209.917,167/1000,58,107.5
1743,A2,210.0,0.5,56,107.5
1744,G5,210.083,167/1000,58,107.5
1745,E5,210.25,0.5,68,107.5
1746,G3,210.5,167/1000,45,107.5
1747,A3,210.667,167/1000,38,107.5
1748,D6,210.75,0.25,74,107.5
1749,E6,210.75,0.25,74,107.5
1750,G3,210.833,167/1000,38,107.5
1751,G5,211.0,0.25,68,107.5
1752,F3,211.0,167/1000,44,107.5
1753,G3,211.167,167/1000,38,107.5
1754,G6,211.25,0.5,74,107.5
1755,F3,211.333,167/1000,38,107.5
1756,E3,211.5,167/1000,43,107.5
1757,F3,211.667,167/1000,37,107.5
1758,E3,211.833,167/1000,37,107.5
1759,D3,212.0,167/1000,42,107.5
1760,E3,212.167,167/1000,36,107.5
1761,E5,212.25,0.5,69,107.5
1762,G5,212.25,167/1000,69,107.5
1763,D3,212.333,167/1000,36,107.5
1764,A5,212.417,167/1000,58,107.5
1765,C#3,212.5,167/1000,41,107.5
1766,G5,212.583,167/1000,58,107.5
1767,D3,212.667,167/1000,34,107.5
1768,E5,212.75,167/1000,67,107.5
1769,C#3,212.833,167/1000,34,107.5
1770,F5,212.917,167/1000,58,107.5
1771,B-3,213.0,0.5,41,107.5
1772,A2,213.0,1.5,41,107.5
1773,E5,213.083,167/1000,58,107.5
1774,C#5,213.25,0.5,68,107.5
1775,A3,213.5,0.5,41,107.5
1776,A5,213.75,0.25,71,107.5
1777,E6,213.75,0.25,71,107.5
1778,G5,214.0,0.25,65,107.5
1779,G3,214.0,0.5,41,107.5
1780,C#6,214.25,0.5,59,107.5
1781,A6,214.25,0.5,59,107.5
1782,D2,214.5,0.25,64,107.5
1783,B-4,215.25,0.25,59,107.5
1784,E5,215.25,167/1000,76,107.5
1785,F5,215.417,167/1000,65,107.5
1786,D5,215.5,0.25,71,107.5
1787,E5,215.583,167/1000,65,107.5
1788,A4,215.75,0.25,57,107.5
1789,D5,215.75,167/1000,75,107.5
1790,E5,215.917,167/1000,65,107.5
1791,D2,216.0,0.5,42,107.5
1792,D5,216.083,167/1000,65,107.5
1793,G4,216.25,0.25,56,107.5
1794,C#5,216.25,167/1000,74,107.5
1795,D5,216.417,167/1000,63,107.5
1796,D4,216.5,1.0,37,107.5
1797,C5,216.5,0.5,37,107.5
1798,C#5,216.583,167/1000,62,107.5
1799,F4,216.75,0.25,56,107.5
1800,B-4,216.75,167/1000,71,107.5
1801,C5,216.917,167/1000,60,107.5
1802,B-4,217.0,0.25,37,107.5
1803,B-4,217.083,167/1000,60,107.5
1804,E4,217.25,0.25,54,107.5
1805,A4,217.25,167/1000,69,107.5
1806,A4,217.25,0.25,35,107.5
1807,B-4,217.417,167/1000,57,107.5
1808,C5,217.5,0.5,40,107.5
1809,D4,217.5,1.5,38,107.5
1810,A4,217.583,167/1000,57,107.5
1811,C#4,217.75,1.5,53,107.5
1812,G4,217.75,167/1000,67,107.5
1813,A4,217.917,167/1000,57,107.5
1814,B-4,218.0,0.188,43,107.5
1815,G4,218.083,167/1000,57,107.5
1816,F4,218.25,167/1000,65,107.5
1817,A4,218.25,0.188,40,107.5
1818,G4,218.417,167/1000,56,107.5
1819,G4,218.5,0.188,41,107.5
1820,F4,218.583,167/1000,56,107.5
1821,E4,218.75,167/1000,63,107.5
1822,A4,218.75,0.188,39,107.5
1823,F4,218.917,167/1000,54,107.5
1824,G4,219.0,0.188,43,107.5
1825,D4,219.0,1.5,38,107.5
1826,E4,219.083,167/1000,54,107.5
1827,A4,219.25,0.188,40,107.5
1828,B-4,219.5,0.5,37,107.5
1829,D5,219.75,0.25,68,107.5
1830,F5,219.75,0.25,68,107.5
1831,A5,219.75,0.25,68,107.5
1832,A4,220.0,0.25,60,107.5
1833,A4,220.0,0.25,37,107.5
1834,G4,220.25,0.25,35,107.5
1835,B-4,220.5,0.5,40,107.5
1836,D4,220.5,1.0,40,107.5
1837,G4,221.0,0.188,43,107.5
1838,E-5,221.25,1.0,39,107.5
1839,A5,221.25,167/1000,50,107.5
1840,A4,221.25,0.188,40,107.5
1841,B-5,221.417,167/1000,47,107.5
1842,F4,221.5,0.5,41,107.5
1843,A5,221.583,167/1000,47,107.5
1844,G5,221.75,0.25,50,107.5
1845,F#5,222.0,0.25,47,107.5
1846,D2,222.0,0.5,42,107.5
1847,D5,222.25,0.5,46,107.5
1848,A5,222.25,0.5,46,107.5
1849,C5,222.5,0.5,37,107.5
1850,D4,222.5,1.0,37,107.5
1851,D5,222.75,1.0,39,107.5
1852,G5,222.75,0.188,51,107.5
1853,F5,223.0,0.188,48,107.5
1854,B-4,223.0,0.25,37,107.5
1855,E5,223.25,0.188,49,107.5
1856,A4,223.25,0.25,35,107.5
1857,F5,223.5,0.188,46,107.5
1858,C5,223.5,0.5,40,107.5
1859,D4,223.5,1.5,38,107.5
1860,C#5,223.75,0.5,39,107.5
1861,E5,223.75,0.188,51,107.5
1862,F5,224.0,0.188,48,107.5
1863,B-4,224.0,0.188,43,107.5
1864,C#5,224.25,0.5,46,107.5
1865,G5,224.25,167/1000,50,107.5
1866,A4,224.25,0.188,40,107.5
1867,A5,224.417,167/1000,47,107.5
1868,G4,224.5,0.188,41,107.5
1869,G5,224.583,167/1000,47,107.5
1870,C#5,224.75,0.5,43,107.5
1871,F5,224.75,0.25,50,107.5
1872,A4,224.75,0.188,39,107.5
1873,E5,225.0,0.25,47,107.5
1874,G4,225.0,0.188,43,107.5
1875,D4,225.0,1.5,38,107.5
1876,C#5,225.25,1.0,39,107.5
1877,G5,225.25,0.5,53,107.5
1878,A4,225.25,0.188,40,107.5
1879,B-4,225.5,0.5,37,107.5
1880,E5,225.75,0.188,51,107.5
1881,F5,226.0,0.188,48,107.5
1882,A4,226.0,0.25,37,107.5
1883,G4,226.25,0.25,35,107.5
1884,A4,226.25,0.5,46,107.5
1885,D5,226.25,0.5,46,107.5
1886,B-4,226.5,0.5,40,107.5
1887,D4,226.5,1.0,40,107.5
1888,G4,227.0,0.188,43,107.5
1889,E-5,227.25,1.0,39,107.5
1890,A5,227.25,167/1000,50,107.5
1891,A4,227.25,0.188,40,107.5
1892,B-5,227.417,167/1000,47,107.5
1893,F4,227.5,0.5,41,107.5
1894,A5,227.583,167/1000,47,107.5
1895,G5,227.75,0.25,50,107.5
1896,F#5,228.0,0.25,47,107.5
1897,D2,228.0,0.5,45,107.5
1898,D5,228.25,0.5,46,107.5
1899,A5,228.25,0.5,46,107.5
1900,C5,228.5,0.5,43,107.5
1901,D5,228.75,1.0,39,107.5
1902,G5,228.75,0.188,51,107.5
1903,F5,229.0,0.188,48,107.5
1904,B-4,229.0,0.25,43,107.5
1905,E5,229.25,0.188,49,107.5
1906,A4,229.25,0.25,40,107.5
1907,F5,229.5,0.188,46,107.5
1908,C5,229.5,0.25,43,107.5
1909,C#5,229.75,0.5,39,107.5
1910,E5,229.75,0.188,51,107.5
1911,F5,230.0,0.188,48,107.5
1912,F#4,230.0,0.25,49,107.5
1913,C#5,230.25,0.5,46,107.5
1914,G5,230.25,167/1000,50,107.5
1915,C5,230.25,0.25,42,107.5
1916,A5,230.417,167/1000,47,107.5
1917,E-4,230.5,0.25,49,107.5
1918,G5,230.583,167/1000,47,107.5
1919,C#5,230.75,0.5,43,107.5
1920,F5,230.75,0.25,50,107.5
1921,E5,231.0,0.25,47,107.5
1922,F#3,231.0,0.5,48,107.5
1923,C#5,231.25,1.0,39,107.5
1924,G5,231.25,0.5,53,107.5
1925,C5,231.5,0.5,46,107.5
1926,E5,231.75,0.188,51,107.5
1927,F5,232.0,0.188,48,107.5
1928,B-4,232.0,0.25,46,107.5
1929,A4,232.25,0.25,43,107.5
1930,A4,232.25,0.5,46,107.5
1931,D5,232.25,0.5,46,107.5
1932,C5,232.5,0.25,46,107.5
1933,F#4,233.0,0.25,52,107.5
1934,E-5,233.25,0.5,57,107.5
1935,A5,233.25,167/1000,57,107.5
1936,C5,233.25,0.25,45,107.5
1937,B-5,233.417,167/1000,48,107.5
1938,E-4,233.5,0.25,52,107.5
1939,A5,233.583,167/1000,48,107.5
1940,G5,233.75,0.25,55,107.5
1941,F#5,234.0,0.25,48,107.5
1942,F#3,234.0,0.5,48,107.5
1943,E-5,234.25,0.25,56,107.5
1944,A5,234.25,0.25,56,107.5
1945,C5,234.5,0.5,48,107.5
1946,A5,234.75,0.25,59,107.5
1947,E-6,234.75,0.25,59,107.5
1948,E-5,235.0,0.25,57,107.5
1949,B-4,235.0,0.25,47,107.5
1950,A6,235.25,0.25,63,107.5
1951,A4,235.25,0.25,44,107.5
1952,C5,235.5,0.25,47,107.5
1953,C5,236.0,0.5,48,107.5
1954,E-5,236.25,0.5,60,107.5
1955,A5,236.25,167/1000,60,107.5
1956,B-5,236.417,167/1000,51,107.5
1957,B-4,236.5,0.25,47,107.5
1958,A5,236.583,167/1000,51,107.5
1959,G5,236.75,0.25,58,107.5
1960,A4,236.75,0.25,44,107.5
1961,F#5,237.0,0.25,51,107.5
1962,C5,237.0,0.25,46,107.5
1963,E-5,237.25,0.25,59,107.5
1964,A5,237.25,0.25,59,107.5
1965,F3,237.5,1.0,61,107.5
1966,F2,237.5,1.0,61,107.5
1967,A5,237.75,0.25,63,107.5
1968,E-6,237.75,0.25,63,107.5
1969,E-5,238.0,0.25,57,107.5
1970,A6,238.25,0.25,65,107.5
1971,F3,238.5,0.5,61,107.5
1972,F2,238.5,0.5,61,107.5
1973,F1,239.0,1.0,61,107.5
1974,F2,239.0,1.0,61,107.5
1975,E-5,239.25,0.5,63,107.5
1976,A5,239.25,167/1000,63,107.5
1977,B-5,239.417,167/1000,53,107.5
1978,A5,239.583,167/1000,53,107.5
1979,G5,239.75,0.25,60,107.5
1980,F#5,240.0,0.25,53,107.5
1981,E1,240.0,1.5,57,107.5
1982,E2,240.0,1.5,57,107.5
1983,E-5,240.25,0.25,60,107.5
1984,A5,240.25,0.25,60,107.5
1985,E-5,240.75,0.5,64,107.5
1986,A5,240.75,167/1000,64,107.5
1987,B-5,240.917,167/1000,54,107.5
1988,A5,241.083,167/1000,53,107.5
1989,G5,241.25,0.25,60,107.5
1990,F#5,241.5,0.25,52,107.5
1991,E-5,241.75,0.25,60,107.5
1992,A5,241.75,0.25,60,107.5
1993,E-5,242.25,0.5,74,107.5
1994,A5,242.25,167/1000,74,107.5
1995,B5,242.417,167/1000,65,107.5
1996,A5,242.583,167/1000,66,107.5
1997,G#5,242.75,0.25,72,107.5
1998,A5,243.0,0.25,67,107.5
1999,E1,243.0,1.5,57,107.5
2000,E2,243.0,1.5,57,107.5
2001,E-5,243.25,0.25,83,107.5
2002,A5,243.25,0.25,83,107.5
2003,E-6,243.25,0.25,83,107.5
2004,E-6,243.75,0.5,81,107.5
2005,A6,243.75,167/1000,81,107.5
2006,B6,243.917,167/1000,71,107.5
2007,A6,244.083,167/1000,72,107.5
2008,G#6,244.25,0.25,79,107.5
2009,A6,244.5,0.188,73,107.5
2010,A6,244.688,0.062,76,107.5
2011,C#7,244.688,0.062,76,107.5
2012,E7,244.75,0.438,95,107.5
2013,A6,244.75,0.406,76,107.5
2014,C#7,244.75,0.406,76,107.5
2015,B3,245.0,0.25,53,107.5
2016,A5,245.188,0.469,38,107.5
2017,C#6,245.188,0.469,38,107.5
2018,E6,245.25,0.438,45,107.5
2019,C#4,245.25,0.25,49,107.5
2020,D4,245.5,0.5,54,107.5
2021,A5,245.688,0.469,40,107.5
2022,C#6,245.688,0.469,40,107.5
2023,E6,245.75,0.438,45,107.5
2024,D4,246.0,0.25,54,107.5
2025,A5,246.188,0.062,41,107.5
2026,C#6,246.188,0.062,41,107.5
2027,E6,246.25,0.438,45,107.5
2028,E4,246.25,0.25,51,107.5
2029,A5,246.25,0.406,41,107.5
2030,C#6,246.25,0.406,41,107.5
2031,F#4,246.5,0.75,54,107.5
2032,A5,246.688,0.469,40,107.5
2033,C#6,246.688,0.469,40,107.5
2034,E6,246.75,0.438,45,107.5
2035,A5,247.188,0.469,40,107.5
2036,C#6,247.188,0.469,40,107.5
2037,E6,247.25,0.438,45,107.5
2038,A4,247.25,0.25,50,107.5
2039,F#4,247.5,167/1000,54,107.5
2040,E5,247.656,0.094,34,107.5
2041,G#5,247.656,0.094,34,107.5
2042,G#4,247.667,167/1000,49,107.5
2043,D6,247.719,0.031,42,107.5
2044,E6,247.719,0.031,42,107.5
2045,E5,247.75,0.375,34,107.5
2046,G#5,247.75,0.375,34,107.5
2047,D6,247.75,0.375,42,107.5
2048,E6,247.75,0.375,42,107.5
2049,F#4,247.833,167/1000,50,107.5
2050,E4,248.0,0.5,50,107.5
2051,E5,248.156,0.469,34,107.5
2052,G#5,248.156,0.469,34,107.5
2053,D6,248.219,0.406,42,107.5
2054,E6,248.219,0.406,42,107.5
2055,E5,248.656,0.469,34,107.5
2056,G#5,248.656,0.469,34,107.5
2057,D6,248.719,0.406,42,107.5
2058,E6,248.719,0.406,42,107.5
2059,B3,248.75,0.25,42,107.5
2060,G#3,249.0,0.75,45,107.5
2061,E5,249.156,0.094,34,107.5
2062,G#5,249.156,0.094,34,107.5
2063,D6,249.219,0.031,42,107.5
2064,E6,249.219,0.031,42,107.5
2065,E5,249.25,0.375,34,107.5
2066,G#5,249.25,0.375,34,107.5
2067,D6,249.25,0.375,42,107.5
2068,E6,249.25,0.375,42,107.5
2069,E5,249.656,0.469,34,107.5
2070,G#5,249.656,0.469,34,107.5
2071,D6,249.719,0.406,42,107.5
2072,E6,249.719,0.406,42,107.5
2073,B2,249.75,0.25,42,107.5
2074,E2,250.0,0.5,46,107.5
2075,E5,250.156,0.5,34,107.5
2076,G#5,250.156,0.5,34,107.5
2077,D6,250.219,0.438,42,107.5
2078,E6,250.219,0.438,42,107.5
2079,G#5,250.688,0.062,36,107.5
2080,D6,250.688,0.062,36,107.5
2081,E6,250.75,0.438,45,107.5
2082,G#5,250.75,0.406,36,107.5
2083,D6,250.75,0.406,36,107.5
2084,E4,251.0,0.5,52,107.5
2085,G#5,251.188,0.469,36,107.5
2086,D6,251.188,0.469,36,107.5
2087,E6,251.25,0.438,45,107.5
2088,A4,251.5,0.5,50,107.5
2089,G#5,251.688,0.469,36,107.5
2090,D6,251.688,0.469,36,107.5
2091,E6,251.75,0.438,45,107.5
2092,A4,252.0,0.25,50,107.5
2093,G#5,252.188,0.062,36,107.5
2094,D6,252.188,0.062,36,107.5
2095,E6,252.25,0.438,45,107.5
2096,B4,252.25,0.25,50,107.5
2097,G#5,252.25,0.406,36,107.5
2098,D6,252.25,0.406,36,107.5
2099,G#4,252.5,0.25,53,107.5
2100,G#5,252.688,0.469,36,107.5
2101,D6,252.688,0.469,36,107.5
2102,E6,252.75,0.438,45,107.5
2103,A4,252.75,0.25,50,107.5
2104,F#4,253.0,0.25,53,107.5
2105,G#5,253.188,0.469,36,107.5
2106,D6,253.188,0.469,36,107.5
2107,E6,253.25,0.438,45,107.5
2108,G#4,253.25,0.25,50,107.5
2109,E4,253.5,0.125,50,107.5
2110,F#4,253.625,0.125,46,107.5
2111,A5,253.688,0.062,41,107.5
2112,C#6,253.688,0.062,41,107.5
2113,E6,253.75,0.438,45,107.5
2114,E4,253.75,0.125,49,107.5
2115,A5,253.75,0.406,41,107.5
2116,C#6,253.75,0.406,41,107.5
2117,D4,253.875,0.125,43,107.5
2118,B3,254.0,0.75,47,107.5
2119,A5,254.188,0.469,40,107.5
2120,C#6,254.188,0.469,40,107.5
2121,E6,254.25,0.438,45,107.5
2122,A5,254.688,0.469,40,107.5
2123,C#6,254.688,0.469,40,107.5
2124,E6,254.75,0.438,45,107.5
2125,B3,254.75,0.25,42,107.5
2126,E3,255.0,0.75,45,107.5
2127,A5,255.188,0.062,41,107.5
2128,C#6,255.188,0.062,41,107.5
2129,E6,255.25,0.438,45,107.5
2130,A5,255.25,0.406,41,107.5
2131,C#6,255.25,0.406,41,107.5
2132,A5,255.688,0.469,40,107.5
2133,C#6,255.688,0.469,40,107.5
2134,E6,255.75,0.438,45,107.5
2135,B2,255.75,0.25,42,107.5
2136,E2,256.0,0.5,46,107.5
2137,A5,256.188,0.469,40,107.5
2138,C#6,256.188,0.469,40,107.5
2139,E6,256.25,0.438,45,107.5
2140,G#5,256.688,0.062,41,107.5
2141,D6,256.688,0.062,41,107.5
2142,E6,256.75,0.438,45,107.5
2143,G#5,256.75,0.406,41,107.5
2144,D6,256.75,0.406,41,107.5
2145,B3,257.0,0.25,53,107.5
2146,G#5,257.188,0.469,40,107.5
2147,D6,257.188,0.469,40,107.5
2148,E6,257.25,0.438,45,107.5
2149,C#4,257.25,0.25,49,107.5
2150,D4,257.5,0.5,54,107.5
2151,G#5,257.688,0.469,40,107.5
2152,D6,257.688,0.469,40,107.5
2153,E6,257.75,0.438,45,107.5
2154,D4,258.0,0.25,54,107.5
2155,G#5,258.188,0.062,36,107.5
2156,D6,258.188,0.062,36,107.5
2157,E6,258.25,0.438,45,107.5
2158,E4,258.25,0.25,51,107.5
2159,G#5,258.25,0.406,36,107.5
2160,D6,258.25,0.406,36,107.5
2161,F#4,258.5,0.75,54,107.5
2162,G#5,258.688,0.469,36,107.5
2163,D6,258.688,0.469,36,107.5
2164,E6,258.75,0.438,45,107.5
2165,G#5,259.188,0.469,36,107.5
2166,D6,259.188,0.469,36,107.5
2167,E6,259.25,0.438,45,107.5
2168,A4,259.25,0.25,50,107.5
2169,F#4,259.5,167/1000,54,107.5
2170,G#4,259.667,167/1000,48,107.5
2171,G#5,259.688,0.062,36,107.5
2172,D6,259.688,0.062,36,107.5
2173,E6,259.75,0.438,45,107.5
2174,G#5,259.75,0.406,36,107.5
2175,D6,259.75,0.406,36,107.5
2176,F#4,259.833,167/1000,50,107.5
2177,E4,260.0,0.5,50,107.5
2178,G#5,260.188,0.469,36,107.5
2179,D6,260.188,0.469,36,107.5
2180,E6,260.25,0.438,45,107.5
2181,G#5,260.688,0.469,36,107.5
2182,D6,260.688,0.469,36,107.5
2183,E6,260.75,0.438,45,107.5
2184,E3,260.75,0.25,42,107.5
2185,A2,261.0,0.75,45,107.5
2186,G#5,261.188,0.062,36,107.5
2187,D6,261.188,0.062,36,107.5
2188,E6,261.25,0.438,45,107.5
2189,G#5,261.25,0.406,36,107.5
2190,D6,261.25,0.406,36,107.5
2191,G#5,261.688,0.469,36,107.5
2192,D6,261.688,0.469,36,107.5
2193,E6,261.75,0.438,45,107.5
2194,E2,261.75,0.25,42,107.5
2195,A1,262.0,0.5,46,107.5
2196,G#5,262.188,0.469,36,107.5
2197,D6,262.188,0.469,36,107.5
2198,E6,262.25,0.438,45,107.5
2199,A1,262.5,0.25,46,107.5
2200,A5,262.688,0.062,36,107.5
2201,C#6,262.688,0.062,36,107.5
2202,E6,262.75,0.438,45,107.5
2203,E4,262.75,0.25,48,107.5
2204,A5,262.75,0.406,36,107.5
2205,C#6,262.75,0.406,36,107.5
2206,A4,263.0,0.25,51,107.5
2207,A5,263.188,0.469,36,107.5
2208,C#6,263.188,0.469,36,107.5
2209,E6,263.25,0.438,45,107.5
2210,B4,263.25,0.25,54,107.5
2211,D5,263.5,0.5,59,107.5
2212,A5,263.688,0.469,36,107.5
2213,C#6,263.688,0.469,36,107.5
2214,E6,263.75,0.438,45,107.5
2215,D5,264.0,0.25,59,107.5
2216,A5,264.188,0.062,36,107.5
2217,C#6,264.188,0.062,36,107.5
2218,E6,264.25,0.438,45,107.5
2219,C#5,264.25,0.25,52,107.5
2220,A5,264.25,0.406,36,107.5
2221,C#6,264.25,0.406,36,107.5
2222,B4,264.5,0.25,55,107.5
2223,A5,264.688,0.469,36,107.5
2224,C#6,264.688,0.469,36,107.5
2225,E6,264.75,0.438,45,107.5
2226,A4,264.75,0.25,52,107.5
2227,F#4,265.0,0.25,55,107.5
2228,A5,265.188,0.469,36,107.5
2229,C#6,265.188,0.469,36,107.5
2230,E6,265.25,0.438,45,107.5
2231,G#4,265.25,0.25,52,107.5
2232,E4,265.5,0.125,52,107.5
2233,F#4,265.625,0.125,48,107.5
2234,A5,265.688,0.062,41,107.5
2235,C#6,265.688,0.062,41,107.5
2236,E6,265.75,0.438,45,107.5
2237,E4,265.75,0.125,52,107.5
2238,A5,265.75,0.406,41,107.5
2239,C#6,265.75,0.406,41,107.5
2240,D4,265.875,0.125,48,107.5
2241,B3,266.0,0.75,52,107.5
2242,A5,266.188,0.469,41,107.5
2243,C#6,266.188,0.469,41,107.5
2244,E6,266.25,0.438,46,107.5
2245,A5,266.688,0.469,42,107.5
2246,C#6,266.688,0.469,42,107.5
2247,E6,266.75,0.438,48,107.5
2248,B3,266.75,0.25,42,107.5
2249,E3,267.0,0.75,45,107.5
2250,A5,267.188,0.062,41,107.5
2251,C#6,267.188,0.062,41,107.5
2252,E6,267.25,0.438,45,107.5
2253,A5,267.25,0.406,41,107.5
2254,C#6,267.25,0.406,41,107.5
2255,A5,267.688,0.469,40,107.5
2256,C#6,267.688,0.469,40,107.5
2257,E6,267.75,0.438,45,107.5
2258,B2,267.75,0.25,42,107.5
2259,E2,268.0,0.5,46,107.5
2260,A5,268.188,0.438,40,107.5
2261,C#6,268.188,0.438,40,107.5
2262,E6,268.25,0.406,45,107.5
2263,E5,268.656,0.094,34,107.5
2264,G#5,268.656,0.094,34,107.5
2265,D6,268.719,0.031,42,107.5
2266,E6,268.719,0.031,42,107.5
2267,E5,268.75,0.375,34,107.5
2268,G#5,268.75,0.375,34,107.5
2269,D6,268.75,0.375,42,107.5
2270,E6,268.75,0.375,42,107.5
2271,B3,269.0,0.25,53,107.5
2272,E5,269.156,0.469,34,107.5
2273,G#5,269.156,0.469,34,107.5
2274,D6,269.219,0.406,42,107.5
2275,E6,269.219,0.406,42,107.5
2276,C#4,269.25,0.25,49,107.5
2277,D4,269.5,0.5,54,107.5
2278,E5,269.656,0.469,34,107.5
2279,G#5,269.656,0.469,34,107.5
2280,D6,269.719,0.406,42,107.5
2281,E6,269.719,0.406,42,107.5
2282,D4,270.0,0.25,54,107.5
2283,E5,270.156,0.094,34,107.5
2284,G#5,270.156,0.094,34,107.5
2285,D6,270.219,0.031,42,107.5
2286,E6,270.219,0.031,42,107.5
2287,E4,270.25,0.25,51,107.5
2288,E5,270.25,0.375,34,107.5
2289,G#5,270.25,0.375,34,107.5
2290,D6,270.25,0.375,42,107.5
2291,E6,270.25,0.375,42,107.5
2292,F#4,270.5,0.75,54,107.5
2293,E5,270.656,0.469,34,107.5
2294,G#5,270.656,0.469,34,107.5
2295,D6,270.719,0.406,42,107.5
2296,E6,270.719,0.406,42,107.5
2297,E5,271.156,0.469,34,107.5
2298,G#5,271.156,0.469,34,107.5
2299,D6,271.219,0.406,42,107.5
2300,E6,271.219,0.406,42,107.5
2301,A4,271.25,0.25,50,107.5
2302,F#4,271.5,167/1000,54,107.5
2303,E5,271.656,0.094,34,107.5
2304,G#5,271.656,0.094,34,107.5
2305,G#4,271.667,167/1000,46,107.5
2306,D6,271.719,0.031,42,107.5
2307,E6,271.719,0.031,42,107.5
2308,E5,271.75,0.375,34,107.5
2309,G#5,271.75,0.375,34,107.5
2310,D6,271.75,0.375,42,107.5
2311,E6,271.75,0.375,42,107.5
2312,F#4,271.833,167/1000,50,107.5
2313,E4,272.0,1.0,50,107.5
2314,E5,272.156,0.469,34,107.5
2315,G#5,272.156,0.469,34,107.5
2316,D6,272.219,0.406,42,107.5
2317,E6,272.219,0.406,42,107.5
2318,E5,272.656,0.469,34,107.5
2319,G#5,272.656,0.469,34,107.5
2320,D6,272.719,0.406,42,107.5
2321,E6,272.719,0.406,42,107.5
2322,E4,273.0,1.5,50,107.5
2323,E5,273.156,0.094,34,107.5
2324,G#5,273.156,0.094,34,107.5
2325,D6,273.219,0.031,42,107.5
2326,E6,273.219,0.031,42,107.5
2327,E5,273.25,0.375,34,107.5
2328,G#5,273.25,0.375,34,107.5
2329,D6,273.25,0.375,42,107.5
2330,E6,273.25,0.375,42,107.5
2331,E5,273.656,0.469,34,107.5
2332,G#5,273.656,0.469,34,107.5
2333,D6,273.719,0.406,42,107.5
2334,E6,273.719,0.406,42,107.5
2335,E5,274.156,0.469,34,107.5
2336,G#5,274.156,0.469,34,107.5
2337,D6,274.219,0.406,42,107.5
2338,E6,274.219,0.406,42,107.5
2339,F4,274.5,167/1000,44,107.5
2340,E5,274.656,0.094,34,107.5
2341,A5,274.656,0.094,34,107.5
2342,G4,274.667,167/1000,37,107.5
2343,C#6,274.719,0.031,42,107.5
2344,E6,274.719,0.031,42,107.5
2345,E5,274.75,0.375,34,107.5
2346,A5,274.75,0.375,34,107.5
2347,C#6,274.75,0.375,42,107.5
2348,E6,274.75,0.375,42,107.5
2349,F4,274.833,167/1000,37,107.5
2350,E4,275.0,1.0,38,107.5
2351,E5,275.156,0.469,34,107.5
2352,A5,275.156,0.469,34,107.5
2353,C#6,275.219,0.406,42,107.5
2354,E6,275.219,0.406,42,107.5
2355,E5,275.656,0.469,34,107.5
2356,A5,275.656,0.469,34,107.5
2357,C#6,275.719,0.406,42,107.5
2358,E6,275.719,0.406,42,107.5
2359,E4,276.0,1.5,38,107.5
2360,E5,276.156,0.094,34,107.5
2361,A5,276.156,0.094,34,107.5
2362,C#6,276.219,0.031,42,107.5
2363,E6,276.219,0.031,42,107.5
2364,E5,276.25,0.375,34,107.5
2365,A5,276.25,0.375,34,107.5
2366,C#6,276.25,0.375,42,107.5
2367,E6,276.25,0.375,42,107.5
2368,E5,276.656,0.469,31,107.5
2369,A5,276.656,0.469,31,107.5
2370,C#6,276.719,0.406,38,107.5
2371,E6,276.719,0.406,38,107.5
2372,E5,277.156,0.469,29,107.5
2373,A5,277.156,0.469,29,107.5
2374,C#6,277.219,0.406,36,107.5
2375,E6,277.219,0.406,36,107.5
2376,C#2,277.5,0.5,69,107.5
2377,E5,277.656,0.094,27,107.5
2378,A5,277.656,0.094,27,107.5
2379,C6,277.719,0.031,34,107.5
2380,E6,277.719,0.031,34,107.5
2381,E5,277.75,0.375,27,107.5
2382,A5,277.75,0.375,27,107.5
2383,C6,277.75,0.375,34,107.5
2384,E6,277.75,0.375,34,107.5
2385,F#4,278.0,0.5,54,107.5
2386,C#4,278.0,0.5,54,107.5
2387,E5,278.156,0.469,27,107.5
2388,A5,278.156,0.469,27,107.5
2389,C6,278.219,0.406,34,107.5
2390,E6,278.219,0.406,34,107.5
2391,F4,278.5,0.25,44,107.5
2392,C#4,278.5,0.25,44,107.5
2393,E5,278.656,0.469,27,107.5
2394,A5,278.656,0.469,27,107.5
2395,C6,278.719,0.406,34,107.5
2396,E6,278.719,0.406,34,107.5
2397,C#5,279.0,0.5,54,107.5
2398,F#5,279.0,0.5,54,107.5
2399,E5,279.156,0.094,27,107.5
2400,A5,279.156,0.094,27,107.5
2401,C6,279.219,0.031,34,107.5
2402,E6,279.219,0.031,34,107.5
2403,E5,279.25,0.375,27,107.5
2404,A5,279.25,0.375,27,107.5
2405,C6,279.25,0.375,34,107.5
2406,E6,279.25,0.375,34,107.5
2407,F5,279.5,0.25,44,107.5
2408,C#5,279.5,0.25,44,107.5
2409,E5,279.656,0.469,27,107.5
2410,A5,279.656,0.469,27,107.5
2411,C6,279.719,0.406,34,107.5
2412,E6,279.719,0.406,34,107.5
2413,F#6,280.0,0.5,54,107.5
2414,C#6,280.0,0.5,54,107.5
2415,E5,280.156,0.469,27,107.5
2416,A5,280.156,0.469,27,107.5
2417,C6,280.219,0.406,34,107.5
2418,E6,280.219,0.406,34,107.5
2419,C#6,280.5,0.25,46,107.5
2420,F6,280.5,0.25,46,107.5
2421,F#5,281.0,0.5,57,107.5
2422,C#5,281.0,0.5,57,107.5
2423,D5,281.25,167/1000,72,107.5
2424,G#4,281.25,0.5,52,107.5
2425,B4,281.25,0.5,52,107.5
2426,E5,281.417,167/1000,60,107.5
2427,C#5,281.5,0.25,46,107.5
2428,F5,281.5,0.25,46,107.5
2429,D5,281.583,167/1000,59,107.5
2430,B4,281.75,0.188,63,107.5
2431,G#4,281.75,0.188,63,107.5
2432,C#5,281.75,0.188,63,107.5
2433,C4,282.0,0.5,62,107.5
2434,F4,282.0,0.5,62,107.5
2435,D6,282.25,167/1000,72,107.5
2436,G#5,282.25,0.5,52,107.5
2437,B5,282.25,0.5,52,107.5
2438,E6,282.417,167/1000,61,107.5
2439,E4,282.5,0.25,50,107.5
2440,C4,282.5,0.25,50,107.5
2441,D6,282.583,167/1000,61,107.5
2442,B5,282.75,0.188,64,107.5
2443,G#5,282.75,0.188,64,107.5
2444,C#6,282.75,0.188,64,107.5
2445,C2,283.0,0.25,58,107.5
2446,C3,283.0,0.25,58,107.5
2447,D7,283.25,167/1000,72,107.5
2448,G#6,283.25,0.5,52,107.5
2449,B6,283.25,0.5,52,107.5
2450,E7,283.417,167/1000,60,107.5
2451,F2,283.5,0.5,64,107.5
2452,F3,283.5,0.5,64,107.5
2453,D7,283.583,167/1000,61,107.5
2454,B6,283.75,0.188,66,107.5
2455,G#6,283.75,0.188,66,107.5
2456,C#7,283.75,0.188,66,107.5
2457,A3,284.0,0.5,58,107.5
2458,C4,284.0,0.5,58,107.5
2459,F4,284.0,0.5,58,107.5
2460,D6,284.25,167/1000,75,107.5
2461,G#5,284.25,0.5,54,107.5
2462,B5,284.25,0.5,54,107.5
2463,E6,284.417,167/1000,65,107.5
2464,A3,284.5,0.5,58,107.5
2465,C4,284.5,0.5,58,107.5
2466,F4,284.5,0.5,58,107.5
2467,D6,284.583,167/1000,67,107.5
2468,B5,284.75,0.188,63,107.5
2469,G#5,284.75,0.188,63,107.5
2470,C#6,284.75,0.188,63,107.5
2471,C2,285.0,0.5,64,107.5
2472,C3,285.0,0.5,64,107.5
2473,D5,285.25,167/1000,81,107.5
2474,G4,285.25,0.5,58,107.5
2475,B-4,285.25,0.5,58,107.5
2476,E5,285.417,167/1000,72,107.5
2477,A3,285.5,0.25,58,107.5
2478,C4,285.5,0.25,58,107.5
2479,F4,285.5,0.25,58,107.5
2480,D5,285.583,167/1000,72,107.5
2481,B-4,285.75,0.188,72,107.5
2482,G4,285.75,0.188,72,107.5
2483,C5,285.75,0.188,72,107.5
2484,A3,286.0,0.25,58,107.5
2485,C4,286.0,0.25,58,107.5
2486,F4,286.0,0.25,58,107.5
2487,C6,286.25,0.5,84,107.5
2488,E6,286.25,0.5,84,107.5
2489,C7,286.25,0.5,84,107.5
2490,B-6,286.25,0.5,84,107.5
2491,F2,286.5,0.5,64,107.5
2492,F3,286.5,0.5,64,107.5
2493,A4,286.75,0.5,79,107.5
2494,F5,286.75,0.5,79,107.5
2495,F4,287.0,0.5,58,107.5
2496,A3,287.0,0.5,58,107.5
2497,C4,287.0,0.5,58,107.5
2498,A4,287.25,0.5,71,107.5
2499,E5,287.25,167/1000,77,107.5
2500,F5,287.417,167/1000,66,107.5
2501,A3,287.5,0.5,58,107.5
2502,F4,287.5,0.5,58,107.5
2503,C4,287.5,0.5,58,107.5
2504,E5,287.583,167/1000,67,107.5
2505,A4,287.75,0.5,67,107.5
2506,D5,287.75,0.25,77,107.5
2507,E5,288.0,0.25,70,107.5
2508,C3,288.0,0.5,64,107.5
2509,C2,288.0,0.5,64,107.5
2510,A4,288.25,0.5,58,107.5
2511,F5,288.25,0.25,79,107.5
2512,D5,288.5,0.25,71,107.5
2513,A3,288.5,0.25,58,107.5
2514,F4,288.5,0.25,58,107.5
2515,C4,288.5,0.25,58,107.5
2516,A4,288.75,0.188,72,107.5
2517,E5,288.75,0.188,72,107.5
2518,A3,289.0,0.25,58,107.5
2519,F4,289.0,0.25,58,107.5
2520,C4,289.0,0.25,58,107.5
2521,A4,289.25,0.188,71,107.5
2522,C5,289.25,0.188,71,107.5
2523,F3,289.5,0.5,58,107.5
2524,A4,289.75,0.5,76,107.5
2525,F5,289.75,0.5,76,107.5
2526,B3,290.0,0.25,59,107.5
2527,A4,290.25,0.5,68,107.5
2528,E5,290.25,167/1000,74,107.5
2529,C4,290.25,0.25,52,107.5
2530,F5,290.417,167/1000,67,107.5
2531,C3,290.5,0.375,51,107.5
2532,E5,290.583,167/1000,67,107.5
2533,A4,290.75,0.5,64,107.5
2534,D5,290.75,0.25,74,107.5
2535,D4,290.875,0.125,52,107.5
2536,E5,291.0,0.25,69,107.5
2537,C4,291.0,0.25,59,107.5
2538,A4,291.25,0.5,56,107.5
2539,F5,291.25,0.25,76,107.5
2540,B3,291.25,0.25,50,107.5
2541,D5,291.5,0.25,67,107.5
2542,C4,291.5,0.25,58,107.5
2543,D4,291.75,0.25,51,107.5
2544,A4,291.75,0.188,70,107.5
2545,E5,291.75,0.188,70,107.5
2546,C4,292.0,0.438,49,107.5
2547,A4,292.25,0.188,68,107.5
2548,C5,292.25,0.188,68,107.5
2549,F3,292.5,0.5,58,107.5
2550,A4,292.75,0.5,59,107.5
2551,D5,292.75,0.25,77,107.5
2552,E5,293.0,0.25,72,107.5
2553,B3,293.0,0.25,58,107.5
2554,C4,293.25,0.25,53,107.5
2555,A4,293.25,0.438,62,107.5
2556,C5,293.25,0.438,62,107.5
2557,C3,293.5,0.375,51,107.5
2558,A4,293.75,0.5,56,107.5
2559,D5,293.75,0.25,72,107.5
2560,D4,293.875,0.125,52,107.5
2561,E5,294.0,0.25,73,107.5
2562,C4,294.0,0.25,59,107.5
2563,B3,294.25,0.25,49,107.5
2564,A4,294.25,0.438,68,107.5
2565,F5,294.25,0.438,68,107.5
2566,C4,294.5,0.25,58,107.5
2567,A4,294.75,0.5,59,107.5
2568,D5,294.75,0.25,77,107.5
2569,D4,294.75,0.25,49,107.5
2570,E5,295.0,0.25,72,107.5
2571,C4,295.0,0.438,49,107.5
2572,A4,295.25,0.438,58,107.5
2573,C5,295.25,0.438,58,107.5
2574,C2,295.5,0.25,55,107.5
2575,A4,295.75,0.5,50,107.5
2576,D5,295.75,0.25,78,107.5
2577,E5,296.0,0.25,71,107.5
2578,A4,296.25,0.438,60,107.5
2579,C5,296.25,0.438,60,107.5
2580,C4,296.5,0.25,36,107.5
2581,A4,296.75,0.5,55,107.5
2582,D5,296.75,0.25,71,107.5
2583,E5,297.0,0.25,73,107.5
2584,A4,297.25,0.5,59,107.5
2585,G5,297.25,0.25,77,107.5
2586,F5,297.5,0.25,71,107.5
2587,C5,297.5,0.25,36,107.5
2588,A4,297.75,0.5,59,107.5
2589,D5,297.75,0.25,76,107.5
2590,E5,298.0,0.25,72,107.5
2591,A4,298.25,0.5,58,107.5
2592,C5,298.25,0.5,58,107.5
2593,C6,298.5,0.25,36,107.5
2594,G4,299.0,0.125,38,107.5
2595,D5,299.0,0.125,38,107.5
2596,B-3,299.25,0.25,41,107.5
2597,D4,299.25,0.25,41,107.5
2598,F4,299.25,0.25,41,107.5
2599,G4,299.25,0.125,38,107.5
2600,D5,299.25,0.125,38,107.5
2601,G3,299.5,0.25,40,107.5
2602,G5,299.5,0.25,44,107.5
2603,G4,300.0,0.25,34,107.5
2604,D5,300.0,0.25,34,107.5
2605,B-4,300.25,0.25,43,107.5
2606,D5,300.25,0.25,43,107.5
2607,F5,300.25,0.25,43,107.5
2608,G4,300.5,0.25,38,107.5
2609,G5,300.5,0.25,38,107.5
2610,G4,301.0,0.25,34,107.5
2611,D5,301.0,0.25,34,107.5
2612,F6,301.25,0.25,43,107.5
2613,D6,301.25,0.25,43,107.5
2614,B-5,301.25,0.25,43,107.5
2615,G5,301.5,0.25,43,107.5
2616,C2,301.5,0.25,52,107.5
2617,B-5,302.25,0.125,45,107.5
2618,F5,302.25,0.125,45,107.5
2619,C4,302.5,0.25,37,107.5
2620,B-5,302.5,0.125,45,107.5
2621,F5,302.5,0.125,45,107.5
2622,F6,302.75,0.25,48,107.5
2623,B-5,302.75,0.25,48,107.5
2624,B-5,303.25,0.25,46,107.5
2625,F5,303.25,0.25,46,107.5
2626,C5,303.5,0.25,38,107.5
2627,F6,303.75,0.25,48,107.5
2628,B-5,303.75,0.25,48,107.5
2629,B-5,304.25,0.25,46,107.5
2630,F5,304.25,0.25,46,107.5
2631,C6,304.5,0.25,38,107.5
2632,C5,305.0,0.125,38,107.5
2633,F5,305.0,0.125,38,107.5
2634,B-3,305.25,0.25,43,107.5
2635,D4,305.25,0.25,43,107.5
2636,F4,305.25,0.25,43,107.5
2637,C5,305.25,0.125,38,107.5
2638,F5,305.25,0.125,38,107.5
2639,G3,305.5,0.25,38,107.5
2640,C5,305.5,0.25,44,107.5
2641,F5,305.5,0.25,44,107.5
2642,C5,306.0,0.125,38,107.5
2643,F5,306.0,0.125,38,107.5
2644,B-4,306.25,0.25,43,107.5
2645,D5,306.25,0.25,43,107.5
2646,F5,306.25,0.25,43,107.5
2647,C5,306.25,0.125,38,107.5
2648,F5,306.25,0.125,38,107.5
2649,G4,306.5,0.25,39,107.5
2650,C5,306.5,0.25,44,107.5
2651,F5,306.5,0.25,44,107.5
2652,C5,307.0,0.25,34,107.5
2653,E5,307.0,0.25,34,107.5
2654,F6,307.25,0.25,43,107.5
2655,D6,307.25,0.25,43,107.5
2656,B-5,307.25,0.25,43,107.5
2657,G5,307.5,0.25,38,107.5
2658,F2,307.5,0.5,66,107.5
2659,F3,307.5,0.5,66,107.5
2660,A3,308.0,0.5,60,107.5
2661,C4,308.0,0.5,60,107.5
2662,F4,308.0,0.5,60,107.5
2663,G5,308.25,0.125,44,107.5
2664,D6,308.25,0.125,44,107.5
2665,B-5,308.25,0.125,44,107.5
2666,G5,308.5,0.125,44,107.5
2667,D6,308.5,0.125,44,107.5
2668,B-5,308.5,0.125,44,107.5
2669,A3,308.5,0.5,60,107.5
2670,C4,308.5,0.5,60,107.5
2671,F4,308.5,0.5,60,107.5
2672,G5,308.75,0.25,48,107.5
2673,G6,308.75,0.25,48,107.5
2674,B-5,308.75,0.25,48,107.5
2675,C2,309.0,0.5,66,107.5
2676,C3,309.0,0.5,66,107.5
2677,D6,309.25,0.125,44,107.5
2678,B-5,309.25,0.125,44,107.5
2679,G5,309.25,0.125,44,107.5
2680,B-5,309.5,0.125,44,107.5
2681,G5,309.5,0.125,44,107.5
2682,D6,309.5,0.125,44,107.5
2683,A3,309.5,0.25,60,107.5
2684,C4,309.5,0.25,60,107.5
2685,F4,309.5,0.25,60,107.5
2686,G5,309.75,0.25,48,107.5
2687,B-5,309.75,0.25,48,107.5
2688,G6,309.75,0.25,48,107.5
2689,A3,310.0,0.25,60,107.5
2690,C4,310.0,0.25,60,107.5
2691,F4,310.0,0.25,60,107.5
2692,G5,310.25,0.25,46,107.5
2693,B-5,310.25,0.25,46,107.5
2694,C6,310.25,0.25,46,107.5
2695,F2,310.5,0.5,66,107.5
2696,F3,310.5,0.5,66,107.5
2697,A4,310.75,0.5,81,107.5
2698,F5,310.75,0.5,81,107.5
2699,F4,311.0,0.5,60,107.5
2700,A3,311.0,0.5,60,107.5
2701,C4,311.0,0.5,60,107.5
2702,A4,311.25,0.5,73,107.5
2703,E5,311.25,167/1000,79,107.5
2704,F5,311.417,167/1000,69,107.5
2705,A3,311.5,0.5,60,107.5
2706,F4,311.5,0.5,60,107.5
2707,C4,311.5,0.5,60,107.5
2708,E5,311.583,167/1000,69,107.5
2709,A4,311.75,0.5,69,107.5
2710,D5,311.75,0.25,79,107.5
2711,E5,312.0,0.25,69,107.5
2712,C3,312.0,0.5,66,107.5
2713,C2,312.0,0.5,66,107.5
2714,A4,312.25,0.5,60,107.5
2715,F5,312.25,0.25,81,107.5
2716,D5,312.5,0.25,72,107.5
2717,A3,312.5,0.25,60,107.5
2718,F4,312.5,0.25,60,107.5
2719,C4,312.5,0.25,60,107.5
2720,A4,312.75,0.188,74,107.5
2721,E5,312.75,0.188,74,107.5
2722,A3,313.0,0.25,60,107.5
2723,F4,313.0,0.25,60,107.5
2724,C4,313.0,0.25,60,107.5
2725,A4,313.25,0.188,73,107.5
2726,C5,313.25,0.188,73,107.5
2727,F3,313.5,0.5,60,107.5
2728,A4,313.75,0.5,78,107.5
2729,F5,313.75,0.5,78,107.5
2730,B3,314.0,0.25,61,107.5
2731,A4,314.25,0.5,70,107.5
2732,E5,314.25,167/1000,76,107.5
2733,C4,314.25,0.25,54,107.5
2734,F5,314.417,167/1000,68,107.5
2735,C3,314.5,0.375,53,107.5
2736,E5,314.583,167/1000,68,107.5
2737,A4,314.75,0.5,66,107.5
2738,D5,314.75,0.25,76,107.5
2739,D4,314.875,0.125,54,107.5
2740,E5,315.0,0.25,69,107.5
2741,C4,315.0,0.25,61,107.5
2742,A4,315.25,0.5,58,107.5
2743,F5,315.25,0.25,78,107.5
2744,B3,315.25,0.25,51,107.5
2745,D5,315.5,0.25,71,107.5
2746,C4,315.5,0.25,60,107.5
2747,D4,315.75,0.25,53,107.5
2748,A4,315.75,0.188,72,107.5
2749,E5,315.75,0.188,72,107.5
2750,C4,316.0,0.438,50,107.5
2751,A4,316.25,0.188,70,107.5
2752,C5,316.25,0.188,70,107.5
2753,F3,316.5,0.5,60,107.5
2754,A4,316.75,0.5,61,107.5
2755,D5,316.75,0.25,79,107.5
2756,E5,317.0,0.25,74,107.5
2757,B3,317.0,0.25,64,107.5
2758,C4,317.25,0.25,55,107.5
2759,A4,317.25,0.438,63,107.5
2760,C5,317.25,0.438,63,107.5
2761,C3,317.5,0.375,53,107.5
2762,A4,317.75,0.5,58,107.5
2763,D5,317.75,0.25,74,107.5
2764,D4,317.875,0.125,54,107.5
2765,E5,318.0,0.25,75,107.5
2766,C4,318.0,0.25,61,107.5
2767,B3,318.25,0.25,49,107.5
2768,A4,318.25,0.438,70,107.5
2769,F5,318.25,0.438,70,107.5
2770,C4,318.5,0.25,60,107.5
2771,A4,318.75,0.5,61,107.5
2772,D5,318.75,0.25,79,107.5
2773,D4,318.75,0.25,53,107.5
2774,E5,319.0,0.25,74,107.5
2775,C4,319.0,0.438,50,107.5
2776,A4,319.25,0.438,63,107.5
2777,C5,319.25,0.438,63,107.5
2778,C2,319.5,0.25,98,107.5
2779,A4,319.75,0.5,52,107.5
2780,D5,319.75,0.25,80,107.5
2781,E5,320.0,0.25,73,107.5
2782,A4,320.25,0.438,61,107.5
2783,C5,320.25,0.438,61,107.5
2784,C4,320.5,0.25,62,107.5
2785,A4,320.75,0.5,57,107.5
2786,D5,320.75,0.25,73,107.5
2787,E5,321.0,0.25,75,107.5
2788,A4,321.25,0.5,61,107.5
2789,G5,321.25,0.25,79,107.5
2790,F5,321.5,0.25,73,107.5
2791,C5,321.5,0.25,60,107.5
2792,A4,321.75,0.5,61,107.5
2793,D5,321.75,0.25,78,107.5
2794,E5,322.0,0.25,74,107.5
2795,A4,322.25,0.5,60,107.5
2796,C5,322.25,0.5,60,107.5
2797,C6,322.5,0.25,61,107.5
2798,G4,323.0,0.125,58,107.5
2799,D5,323.0,0.125,58,107.5
2800,B-3,323.25,0.25,65,107.5
2801,D4,323.25,0.25,65,107.5
2802,F4,323.25,0.25,65,107.5
2803,G4,323.25,0.125,58,107.5
2804,D5,323.25,0.125,58,107.5
2805,G3,323.5,0.25,69,107.5
2806,G5,323.5,0.25,67,107.5
2807,G4,324.0,0.25,52,107.5
2808,D5,324.0,0.25,52,107.5
2809,B-4,324.25,0.25,69,107.5
2810,D5,324.25,0.25,69,107.5
2811,F5,324.25,0.25,69,107.5
2812,G4,324.5,0.25,65,107.5
2813,G5,324.5,0.25,58,107.5
2814,G4,325.0,0.25,52,107.5
2815,D5,325.0,0.25,52,107.5
2816,F6,325.25,0.25,69,107.5
2817,D6,325.25,0.25,69,107.5
2818,B-5,325.25,0.25,69,107.5
2819,G5,325.5,0.25,67,107.5
2820,C2,325.5,0.25,98,107.5
2821,B-5,326.25,0.125,77,107.5
2822,F5,326.25,0.125,77,107.5
2823,C4,326.5,0.25,59,107.5
2824,B-5,326.5,0.125,77,107.5
2825,F5,326.5,0.125,77,107.5
2826,F6,326.75,0.25,82,107.5
2827,B-5,326.75,0.25,82,107.5
2828,B-5,327.25,0.25,80,107.5
2829,F5,327.25,0.25,80,107.5
2830,C5,327.5,0.25,60,107.5
2831,F6,327.75,0.25,82,107.5
2832,B-5,327.75,0.25,82,107.5
2833,B-5,328.25,0.25,80,107.5
2834,F5,328.25,0.25,80,107.5
2835,C6,328.5,0.25,59,107.5
2836,C5,329.0,0.125,58,107.5
2837,F5,329.0,0.125,58,107.5
2838,B-3,329.25,0.25,69,107.5
2839,D4,329.25,0.25,69,107.5
2840,F4,329.25,0.25,69,107.5
2841,C5,329.25,0.125,58,107.5
2842,F5,329.25,0.125,58,107.5
2843,G3,329.5,0.25,67,107.5
2844,C5,329.5,0.25,67,107.5
2845,F5,329.5,0.25,67,107.5
2846,C5,330.0,0.125,58,107.5
2847,F5,330.0,0.125,58,107.5
2848,B-4,330.25,0.25,69,107.5
2849,D5,330.25,0.25,69,107.5
2850,F5,330.25,0.25,69,107.5
2851,C5,330.25,0.125,58,107.5
2852,F5,330.25,0.125,58,107.5
2853,G4,330.5,0.25,69,107.5
2854,C5,330.5,0.25,67,107.5
2855,F5,330.5,0.25,67,107.5
2856,C5,331.0,0.25,52,107.5
2857,E5,331.0,0.25,52,107.5
2858,F6,331.25,0.25,68,107.5
2859,D6,331.25,0.25,68,107.5
2860,B-5,331.25,0.25,68,107.5
2861,G5,331.5,0.25,68,107.5
2862,F3,331.5,0.5,35,107.5
2863,C4,331.5,0.5,35,107.5
2864,F4,331.5,0.5,35,107.5
2865,F3,332.0,0.5,32,107.5
2866,C4,332.0,0.5,32,107.5
2867,F4,332.0,0.5,32,107.5
2868,G5,332.25,0.125,75,107.5
2869,D6,332.25,0.125,75,107.5
2870,B-5,332.25,0.125,75,107.5
2871,G5,332.5,0.125,75,107.5
2872,D6,332.5,0.125,75,107.5
2873,B-5,332.5,0.125,75,107.5
2874,F3,332.5,0.5,27,107.5
2875,C4,332.5,0.5,27,107.5
2876,F4,332.5,0.5,27,107.5
2877,G5,332.75,0.25,81,107.5
2878,G6,332.75,0.25,81,107.5
2879,B-5,332.75,0.25,81,107.5
2880,F3,333.0,0.25,35,107.5
2881,C#4,333.0,0.25,35,107.5
2882,F4,333.0,0.25,35,107.5
2883,D6,333.25,0.125,75,107.5
2884,B-5,333.25,0.125,75,107.5
2885,G5,333.25,0.125,75,107.5
2886,B-5,333.5,0.125,75,107.5
2887,G5,333.5,0.125,75,107.5
2888,D6,333.5,0.125,75,107.5
2889,F3,333.5,0.25,31,107.5
2890,C#4,333.5,0.25,31,107.5
2891,F4,333.5,0.25,31,107.5
2892,G5,333.75,0.25,81,107.5
2893,B-5,333.75,0.25,81,107.5
2894,G6,333.75,0.25,81,107.5
2895,F3,334.0,0.25,28,107.5
2896,C#4,334.0,0.25,28,107.5
2897,G5,334.25,0.25,78,107.5
2898,B-5,334.25,0.25,78,107.5
2899,C6,334.25,0.25,78,107.5
2900,F3,334.5,0.5,37,107.5
2901,D4,334.5,0.5,37,107.5
2902,F4,334.5,0.5,37,107.5
2903,A4,334.75,0.375,54,107.5
2904,F5,334.75,0.375,54,107.5
2905,A5,334.75,0.375,54,107.5
2906,G5,335.0,0.125,45,107.5
2907,F3,335.0,0.5,34,107.5
2908,D4,335.0,0.5,34,107.5
2909,F4,335.0,0.5,34,107.5
2910,A5,335.125,0.125,45,107.5
2911,G5,335.25,0.25,53,107.5
2912,F5,335.5,0.25,49,107.5
2913,F3,335.5,0.5,30,107.5
2914,D4,335.5,0.5,30,107.5
2915,F4,335.5,0.5,30,107.5
2916,A4,335.75,0.25,46,107.5
2917,F5,336.0,0.25,46,107.5
2918,F3,336.0,0.25,40,107.5
2919,C#4,336.0,0.25,40,107.5
2920,F4,336.0,0.25,40,107.5
2921,A5,336.25,0.25,51,107.5
2922,G5,336.5,0.25,47,107.5
2923,F3,336.5,0.25,36,107.5
2924,C#4,336.5,0.25,36,107.5
2925,F4,336.5,0.25,36,107.5
2926,F5,336.75,0.25,53,107.5
2927,A4,337.0,0.25,45,107.5
2928,F3,337.0,0.25,33,107.5
2929,C#4,337.0,0.25,33,107.5
2930,F4,337.25,0.25,48,107.5
2931,A4,337.5,0.25,44,107.5
2932,F3,337.5,0.5,42,107.5
2933,C4,337.5,0.5,42,107.5
2934,F4,337.5,0.5,42,107.5
2935,F5,337.75,0.375,57,107.5
2936,A5,337.75,0.375,57,107.5
2937,G5,338.0,0.125,51,107.5
2938,F3,338.0,0.5,39,107.5
2939,C4,338.0,0.5,39,107.5
2940,F4,338.0,0.5,39,107.5
2941,A5,338.125,0.125,51,107.5
2942,G5,338.25,0.25,57,107.5
2943,F5,338.5,0.25,55,107.5
2944,F3,338.5,0.5,34,107.5
2945,C4,338.5,0.5,34,107.5
2946,F4,338.5,0.5,34,107.5
2947,A4,338.75,0.25,51,107.5
2948,F5,339.0,0.25,53,107.5
2949,B2,339.0,0.5,45,107.5
2950,A5,339.25,0.25,60,107.5
2951,G5,339.5,0.25,56,107.5
2952,G3,339.5,1.0,42,107.5
2953,B3,339.5,0.5,42,107.5
2954,F5,339.75,0.25,62,107.5
2955,A4,340.0,0.25,49,107.5
2956,F4,340.0,0.5,36,107.5
2957,F4,340.25,0.25,57,107.5
2958,A4,340.5,0.25,51,107.5
2959,C2,340.5,0.5,63,107.5
2960,A4,340.75,0.375,66,107.5
2961,F5,340.75,0.375,66,107.5
2962,A5,340.75,0.375,66,107.5
2963,G5,341.0,0.125,58,107.5
2964,B3,341.0,0.25,62,107.5
2965,A5,341.125,0.125,59,107.5
2966,G5,341.25,0.25,67,107.5
2967,C4,341.25,0.25,57,107.5
2968,F5,341.5,0.25,64,107.5
2969,A3,341.5,0.25,64,107.5
2970,A4,341.75,0.25,59,107.5
2971,F3,341.75,0.25,57,107.5
2972,F5,342.0,0.25,61,107.5
2973,C2,342.0,0.25,82,107.5
2974,D5,342.25,0.375,70,107.5
2975,F5,342.25,0.375,70,107.5
2976,A5,342.25,0.375,70,107.5
2977,G5,342.5,0.125,61,107.5
2978,C5,342.5,0.25,78,107.5
2979,A5,342.625,0.125,61,107.5
2980,G5,342.75,0.25,71,107.5
2981,F5,343.0,0.25,60,107.5
2982,C4,343.0,0.25,79,107.5
2983,A4,343.25,0.25,63,107.5
2984,G4,343.5,0.25,58,107.5
2985,F3,343.5,0.5,35,107.5
2986,C4,343.5,0.5,35,107.5
2987,F4,343.5,0.5,35,107.5
2988,D5,343.75,0.25,78,107.5
2989,F4,343.75,0.5,57,107.5
2990,A4,343.75,0.5,57,107.5
2991,C5,344.0,0.25,70,107.5
2992,F3,344.0,0.5,32,107.5
2993,C4,344.0,0.5,32,107.5
2994,F4,344.0,0.5,32,107.5
2995,G5,344.25,0.25,82,107.5
2996,A4,344.25,0.5,61,107.5
2997,C5,344.25,0.5,61,107.5
2998,F5,344.5,0.25,75,107.5
2999,F3,344.5,0.5,27,107.5
3000,C4,344.5,0.5,27,107.5
3001,F4,344.5,0.5,27,107.5
3002,D6,344.75,0.25,85,107.5
3003,F5,344.75,0.5,63,107.5
3004,A5,344.75,0.5,63,107.5
3005,C6,345.0,0.25,75,107.5
3006,F3,345.0,0.25,35,107.5
3007,C#4,345.0,0.25,35,107.5
3008,F4,345.0,0.25,35,107.5
3009,D6,345.25,0.25,100,107.5
3010,E5,345.25,0.5,75,107.5
3011,B-5,345.25,0.5,75,107.5
3012,C6,345.5,0.25,83,107.5
3013,F3,345.5,0.25,31,107.5
3014,C#4,345.5,0.25,31,107.5
3015,F4,345.5,0.25,31,107.5
3016,D7,345.75,0.25,99,107.5
3017,B-6,345.75,0.5,74,107.5
3018,E6,345.75,0.5,74,107.5
3019,C7,346.0,0.25,80,107.5
3020,F3,346.0,0.25,28,107.5
3021,C#4,346.0,0.25,28,107.5
3022,D6,346.25,0.25,99,107.5
3023,B-5,346.25,0.5,74,107.5
3024,E5,346.25,0.5,74,107.5
3025,C6,346.5,0.25,79,107.5
3026,F3,346.5,0.5,37,107.5
3027,D4,346.5,0.5,37,107.5
3028,F4,346.5,0.5,37,107.5
3029,A4,346.75,0.375,54,107.5
3030,F5,346.75,0.375,54,107.5
3031,A5,346.75,0.375,54,107.5
3032,G5,347.0,0.125,48,107.5
3033,F3,347.0,0.5,34,107.5
3034,D4,347.0,0.5,34,107.5
3035,F4,347.0,0.5,34,107.5
3036,A5,347.125,0.125,48,107.5
3037,G5,347.25,0.25,53,107.5
3038,F5,347.5,0.25,49,107.5
3039,F3,347.5,0.5,30,107.5
3040,D4,347.5,0.5,30,107.5
3041,F4,347.5,0.5,30,107.5
3042,A4,347.75,0.25,46,107.5
3043,F5,348.0,0.25,46,107.5
3044,F3,348.0,0.25,40,107.5
3045,C#4,348.0,0.25,40,107.5
3046,F4,348.0,0.25,40,107.5
3047,A5,348.25,0.25,51,107.5
3048,G5,348.5,0.25,47,107.5
3049,F3,348.5,0.25,36,107.5
3050,C#4,348.5,0.25,36,107.5
3051,F4,348.5,0.25,36,107.5
3052,F5,348.75,0.25,53,107.5
3053,A4,349.0,0.25,45,107.5
3054,F3,349.0,0.25,33,107.5
3055,C#4,349.0,0.25,33,107.5
3056,F4,349.25,0.25,48,107.5
3057,A4,349.5,0.25,43,107.5
3058,F3,349.5,0.5,42,107.5
3059,C4,349.5,0.5,42,107.5
3060,F4,349.5,0.5,42,107.5
3061,F5,349.75,0.375,57,107.5
3062,A5,349.75,0.375,57,107.5
3063,G5,350.0,0.125,51,107.5
3064,F3,350.0,0.5,39,107.5
3065,C4,350.0,0.5,39,107.5
3066,F4,350.0,0.5,39,107.5
3067,A5,350.125,0.125,51,107.5
3068,G5,350.25,0.25,57,107.5
3069,F5,350.5,0.25,55,107.5
3070,F3,350.5,0.5,34,107.5
3071,C4,350.5,0.5,34,107.5
3072,F4,350.5,0.5,34,107.5
3073,A4,350.75,0.25,51,107.5
3074,F5,351.0,0.25,53,107.5
3075,B2,351.0,0.5,45,107.5
3076,A5,351.25,0.25,60,107.5
3077,G5,351.5,0.25,56,107.5
3078,G3,351.5,1.0,42,107.5
3079,B3,351.5,0.5,42,107.5
3080,F5,351.75,0.25,62,107.5
3081,A4,352.0,0.25,52,107.5
3082,F4,352.0,0.5,36,107.5
3083,F4,352.25,0.25,57,107.5
3084,A4,352.5,0.25,50,107.5
3085,C2,352.5,0.5,63,107.5
3086,A4,352.75,0.375,66,107.5
3087,F5,352.75,0.375,66,107.5
3088,A5,352.75,0.375,66,107.5
3089,G5,353.0,0.125,58,107.5
3090,B3,353.0,0.25,62,107.5
3091,A5,353.125,0.125,56,107.5
3092,G5,353.25,0.25,67,107.5
3093,C4,353.25,0.25,57,107.5
3094,F5,353.5,0.25,64,107.5
3095,A3,353.5,0.25,64,107.5
3096,A4,353.75,0.25,59,107.5
3097,F3,353.75,0.25,57,107.5
3098,F5,354.0,0.25,61,107.5
3099,C2,354.0,0.25,82,107.5
3100,D5,354.25,0.375,70,107.5
3101,F5,354.25,0.375,70,107.5
3102,A5,354.25,0.375,70,107.5
3103,G5,354.5,0.125,63,107.5
3104,C5,354.5,0.25,78,107.5
3105,A5,354.625,0.125,63,107.5
3106,G5,354.75,0.25,71,107.5
3107,F5,355.0,0.25,63,107.5
3108,C4,355.0,0.25,79,107.5
3109,A4,355.25,0.25,63,107.5
3110,G4,355.5,0.25,57,107.5
3111,F2,355.5,0.25,107,107.5
3112,D5,355.75,0.25,78,107.5
3113,F4,355.75,0.5,57,107.5
3114,A4,355.75,0.5,57,107.5
3115,C5,356.0,0.25,69,107.5
3116,G5,356.25,0.25,82,107.5
3117,A4,356.25,0.5,61,107.5
3118,C5,356.25,0.5,61,107.5
3119,F5,356.5,0.25,73,107.5
3120,B3,356.5,0.25,70,107.5
3121,D6,356.75,0.25,85,107.5
3122,F5,356.75,0.5,63,107.5
3123,A5,356.75,0.5,63,107.5
3124,C6,357.0,0.25,76,107.5
3125,D6,357.25,0.25,100,107.5
3126,E5,357.25,0.5,75,107.5
3127,B-5,357.25,0.5,75,107.5
3128,C6,357.5,0.25,77,107.5
3129,B4,357.5,0.25,70,107.5
3130,D7,357.75,0.25,99,107.5
3131,B-6,357.75,0.5,74,107.5
3132,E6,357.75,0.5,74,107.5
3133,C7,358.0,0.25,80,107.5
3134,D6,358.25,0.25,99,107.5
3135,B-5,358.25,0.5,74,107.5
3136,E5,358.25,0.5,74,107.5
3137,C6,358.5,0.25,76,107.5
3138,B5,358.5,0.25,69,107.5
3139,F4,359.0,0.125,57,107.5
3140,C#5,359.0,0.125,57,107.5
3141,G#3,359.25,0.25,71,107.5
3142,C#4,359.25,0.25,71,107.5
3143,F4,359.25,0.25,71,107.5
3144,F4,359.25,0.125,57,107.5
3145,C#5,359.25,0.125,57,107.5
3146,F3,359.5,0.25,71,107.5
3147,C#5,359.5,0.25,65,107.5
3148,G5,359.5,0.25,65,107.5
3149,F4,360.0,0.25,51,107.5
3150,C#5,360.0,0.25,51,107.5
3151,G#4,360.25,0.25,75,107.5
3152,C#5,360.25,0.25,75,107.5
3153,F5,360.25,0.25,75,107.5
3154,F4,360.5,0.25,71,107.5
3155,C#5,360.5,0.25,56,107.5
3156,G5,360.5,0.25,56,107.5
3157,F4,361.0,0.25,51,107.5
3158,C#5,361.0,0.25,51,107.5
3159,F6,361.25,0.25,74,107.5
3160,C#6,361.25,0.25,74,107.5
3161,G#5,361.25,0.25,74,107.5
3162,F5,361.5,0.25,72,107.5
3163,F2,361.5,0.25,107,107.5
3164,F6,362.25,0.125,76,107.5
3165,B5,362.25,0.125,76,107.5
3166,B3,362.5,0.25,68,107.5
3167,F6,362.5,0.125,76,107.5
3168,B5,362.5,0.125,76,107.5
3169,B6,362.75,0.25,80,107.5
3170,F6,362.75,0.25,80,107.5
3171,F6,363.25,0.25,78,107.5
3172,B5,363.25,0.25,78,107.5
3173,B4,363.5,0.25,68,107.5
3174,B6,363.75,0.25,80,107.5
3175,F6,363.75,0.25,80,107.5
3176,F6,364.25,0.25,78,107.5
3177,B5,364.25,0.25,78,107.5
3178,B5,364.5,0.25,69,107.5
3179,F4,365.0,0.125,64,107.5
3180,C#5,365.0,0.125,64,107.5
3181,G#3,365.25,0.25,71,107.5
3182,C#4,365.25,0.25,71,107.5
3183,F4,365.25,0.25,71,107.5
3184,F4,365.25,0.125,57,107.5
3185,C#5,365.25,0.125,57,107.5
3186,F3,365.5,0.25,71,107.5
3187,C#5,365.5,0.25,65,107.5
3188,G5,365.5,0.25,65,107.5
3189,F4,366.0,0.25,51,107.5
3190,C#5,366.0,0.25,51,107.5
3191,G#4,366.25,0.25,75,107.5
3192,C#5,366.25,0.25,75,107.5
3193,F5,366.25,0.25,75,107.5
3194,F4,366.5,0.25,71,107.5
3195,C#5,366.5,0.25,56,107.5
3196,G5,366.5,0.25,56,107.5
3197,F4,367.0,0.25,51,107.5
3198,C#5,367.0,0.25,51,107.5
3199,F6,367.25,0.25,75,107.5
3200,C#6,367.25,0.25,75,107.5
3201,G#5,367.25,0.25,75,107.5
3202,F5,367.5,0.25,73,107.5
3203,F2,367.5,0.25,69,107.5
3204,C3,367.5,0.25,69,107.5
3205,A3,367.5,0.25,69,107.5
3206,F6,368.25,0.125,84,107.5
3207,B5,368.25,0.125,84,107.5
3208,F6,368.5,0.125,76,107.5
3209,B5,368.5,0.125,76,107.5
3210,C6,368.75,0.25,63,107.5
3211,B6,368.75,0.25,80,107.5
3212,F6,368.75,0.25,80,107.5
3213,A5,369.0,0.5,68,107.5
3214,F6,369.25,0.25,78,107.5
3215,B5,369.25,0.25,78,107.5
3216,B6,369.75,0.25,80,107.5
3217,F6,369.75,0.25,80,107.5
3218,C5,370.25,0.25,63,107.5
3219,F6,370.25,0.25,78,107.5
3220,B5,370.25,0.25,78,107.5
3221,A4,370.5,0.5,68,107.5
3222,F6,370.75,0.125,81,107.5
3223,C7,370.75,0.125,81,107.5
3224,F7,370.75,0.125,81,107.5
3225,G6,371.0,0.125,69,107.5
3226,A6,371.125,0.125,70,107.5
3227,G6,371.25,0.25,75,107.5
3228,F6,371.5,0.25,68,107.5
3229,D6,371.75,0.25,72,107.5
3230,C4,371.75,0.25,63,107.5
3231,A3,372.0,0.25,68,107.5
3232,G5,372.5,0.125,62,107.5
3233,A5,372.625,0.125,63,107.5
3234,G5,372.75,0.25,69,107.5
3235,F5,373.0,0.25,68,107.5
3236,D5,373.25,0.25,72,107.5
3237,A2,373.25,0.25,63,107.5
3238,F2,373.5,1.5,76,107.5
3239,G4,374.0,0.125,62,107.5
3240,A4,374.125,0.125,63,107.5
3241,G4,374.25,0.25,69,107.5
3242,F4,374.5,0.25,68,107.5
3243,D4,374.75,0.25,72,107.5
3244,B-2,374.812,0.188,57,107.5
3245,F3,374.812,0.188,57,107.5
3246,C#4,374.875,0.125,57,107.5
3247,C#4,375.0,1.5,57,107.5
3248,B-2,375.0,1.469,57,107.5
3249,F3,375.0,1.469,57,107.5
3250,G3,375.5,0.125,63,107.5
3251,A3,375.625,0.125,63,107.5
3252,G3,375.75,0.25,70,107.5
3253,F3,376.0,0.25,67,107.5
3254,C3,376.25,0.25,73,107.5
3255,F2,376.5,1.5,75,107.5
3256,C3,376.5,1.5,75,107.5
3257,A3,376.5,1.5,75,107.5
3258,F4,378.156,0.094,71,107.5
3259,B-4,378.156,0.094,71,107.5
3260,C#5,378.219,0.031,83,107.5
3261,F5,378.219,0.031,83,107.5
3262,F4,378.25,1.469,71,107.5
3263,B-4,378.25,1.469,71,107.5
3264,C#5,378.25,1.469,83,107.5
3265,F5,378.25,1.469,83,107.5
3266,F4,378.5,0.25,74,107.5
3267,C5,378.5,0.25,74,107.5
3268,F5,378.5,0.25,74,107.5
3269,F1,379.0,0.5,81,107.5
3270,F2,379.0,0.5,81,107.5
3271,F6,379.75,1.5,89,107.5
3272,C6,379.75,1.5,89,107.5
3273,A5,379.75,1.5,89,107.5
3274,F5,379.75,1.5,89,107.5
3275,A6,381.75,0.25,99,107.5
3276,F6,381.75,0.25,99,107.5
3277,C6,381.75,0.25,99,107.5
3278,A5,381.75,0.25,99,107.5
3279,F3,382.25,0.5,107,107.5
