,note_name,start_time,duration,velocity,tempo
0,G3,0.0,0.25,59,128.5
1,D4,0.25,0.125,31,128.5
2,D4,0.5,0.125,47,128.5
3,D4,0.75,0.125,35,128.5
4,E-4,1.0,0.125,53,128.5
5,D4,1.25,0.125,39,128.5
6,C4,1.5,0.125,45,128.5
7,D4,1.75,0.125,37,128.5
8,D4,2.0,0.125,49,128.5
9,D4,2.25,0.125,34,128.5
10,B-3,2.5,0.125,45,128.5
11,D4,2.75,0.125,32,128.5
12,G3,3.0,0.25,62,128.5
13,D4,3.25,0.125,31,128.5
14,D4,3.5,0.125,47,128.5
15,D4,3.75,0.125,35,128.5
16,E-4,4.0,0.125,53,128.5
17,D4,4.25,0.125,39,128.5
18,C4,4.5,0.125,45,128.5
19,D4,4.75,0.125,37,128.5
20,D4,5.0,0.125,49,128.5
21,D4,5.25,0.125,34,128.5
22,B-3,5.5,0.125,45,128.5
23,D4,5.75,0.125,32,128.5
24,G3,6.0,0.25,62,128.5
25,D4,6.25,0.125,31,128.5
26,D4,6.5,0.125,46,128.5
27,D4,6.75,0.125,35,128.5
28,E-4,7.0,0.125,50,128.5
29,D4,7.25,0.125,39,128.5
30,C4,7.5,0.125,45,128.5
31,D4,7.75,0.125,37,128.5
32,D4,8.0,0.125,52,128.5
33,D4,8.25,0.125,40,128.5
34,B-3,8.5,0.125,48,128.5
35,D4,8.75,0.125,37,128.5
36,C4,9.0,0.125,57,128.5
37,D4,9.25,0.125,41,128.5
38,A3,9.5,0.125,49,128.5
39,D4,9.75,0.125,35,128.5
40,B-3,10.0,0.125,53,128.5
41,D4,10.25,0.125,39,128.5
42,C4,10.5,0.125,49,128.5
43,D4,10.75,0.125,34,128.5
44,A3,11.0,0.125,51,128.5
45,D4,11.25,0.125,38,128.5
46,B-3,11.5,0.125,48,128.5
47,D4,11.75,0.125,37,128.5
48,G3,12.0,0.25,59,128.5
49,D4,12.25,0.125,30,128.5
50,D4,12.5,0.125,47,128.5
51,D4,12.75,0.125,35,128.5
52,E-4,13.0,0.125,50,128.5
53,D4,13.25,0.125,36,128.5
54,C4,13.5,0.125,45,128.5
55,D4,13.75,0.125,31,128.5
56,D4,14.0,0.125,51,128.5
57,D4,14.25,0.125,36,128.5
58,B-3,14.5,0.125,45,128.5
59,D4,14.75,0.125,33,128.5
60,G3,15.0,0.25,62,128.5
61,D4,15.25,0.125,37,128.5
62,D4,15.5,0.125,50,128.5
63,D4,15.75,0.125,35,128.5
64,E-4,16.0,0.125,54,128.5
65,D4,16.25,0.125,39,128.5
66,C4,16.5,0.125,45,128.5
67,D4,16.75,0.125,37,128.5
68,D4,17.0,0.125,49,128.5
69,D4,17.25,0.125,34,128.5
70,B-3,17.5,0.125,45,128.5
71,D4,17.75,0.125,32,128.5
72,G3,18.0,0.25,62,128.5
73,D4,18.25,0.125,31,128.5
74,D4,18.5,0.125,47,128.5
75,D4,18.75,0.125,35,128.5
76,E-4,19.0,0.125,50,128.5
77,D4,19.25,0.125,39,128.5
78,C4,19.5,0.125,45,128.5
79,D4,19.75,0.125,37,128.5
80,D4,20.0,0.125,52,128.5
81,D4,20.25,0.125,40,128.5
82,B-3,20.5,0.125,48,128.5
83,D4,20.75,0.125,37,128.5
84,C4,21.0,0.125,57,128.5
85,D4,21.25,0.125,41,128.5
86,A3,21.5,0.125,49,128.5
87,D4,21.75,0.125,35,128.5
88,B-3,22.0,0.125,56,128.5
89,D4,22.25,0.125,43,128.5
90,G3,22.5,0.125,51,128.5
91,D4,22.75,0.125,37,128.5
92,F3,23.0,0.125,56,128.5
93,D4,23.25,0.125,44,128.5
94,E-3,23.5,0.125,53,128.5
95,D4,23.75,0.125,39,128.5
96,D3,24.0,0.25,59,128.5
97,D4,24.25,0.125,31,128.5
98,D4,24.5,0.125,47,128.5
99,D4,24.75,0.125,35,128.5
100,E-4,25.0,0.125,53,128.5
101,D4,25.25,0.125,39,128.5
102,C4,25.5,0.125,45,128.5
103,D4,25.75,0.125,37,128.5
104,D4,26.0,0.125,49,128.5
105,D4,26.25,0.125,34,128.5
106,A3,26.5,0.125,45,128.5
107,D4,26.75,0.125,32,128.5
108,D3,27.0,0.25,62,128.5
109,D4,27.25,0.125,31,128.5
110,D4,27.5,0.125,47,128.5
111,D4,27.75,0.125,35,128.5
112,E-4,28.0,0.125,53,128.5
113,D4,28.25,0.125,39,128.5
114,C4,28.5,0.125,45,128.5
115,D4,28.75,0.125,37,128.5
116,D4,29.0,0.125,49,128.5
117,D4,29.25,0.125,34,128.5
118,A3,29.5,0.125,45,128.5
119,D4,29.75,0.125,32,128.5
120,D3,30.0,0.25,62,128.5
121,D4,30.25,0.125,31,128.5
122,A3,30.5,0.125,47,128.5
123,D4,30.75,0.125,35,128.5
124,C4,31.0,0.125,52,128.5
125,D4,31.25,0.125,39,128.5
126,D4,31.5,0.125,51,128.5
127,D4,31.75,0.125,37,128.5
128,E-4,32.0,0.125,56,128.5
129,D4,32.25,0.125,44,128.5
130,F4,32.5,0.125,53,128.5
131,D4,32.75,0.125,41,128.5
132,D4,33.0,0.125,56,128.5
133,D4,33.25,0.125,48,128.5
134,E-4,33.5,0.125,52,128.5
135,D4,33.75,0.125,42,128.5
136,C4,34.0,0.125,54,128.5
137,D4,34.25,0.125,47,128.5
138,D4,34.5,0.125,49,128.5
139,D4,34.75,0.125,41,128.5
140,B-3,35.0,0.125,51,128.5
141,D4,35.25,0.125,43,128.5
142,A3,35.5,0.125,48,128.5
143,D4,35.75,0.125,37,128.5
144,D3,36.0,0.25,59,128.5
145,D4,36.25,0.125,31,128.5
146,D4,36.5,0.125,47,128.5
147,D4,36.75,0.125,35,128.5
148,E-4,37.0,0.125,53,128.5
149,D4,37.25,0.125,39,128.5
150,C4,37.5,0.125,45,128.5
151,D4,37.75,0.125,37,128.5
152,D4,38.0,0.125,49,128.5
153,D4,38.25,0.125,34,128.5
154,A3,38.5,0.125,45,128.5
155,D4,38.75,0.125,32,128.5
156,D3,39.0,0.25,62,128.5
157,D4,39.25,0.125,31,128.5
158,D4,39.5,0.125,47,128.5
159,D4,39.75,0.125,35,128.5
160,E-4,40.0,0.125,53,128.5
161,D4,40.25,0.125,39,128.5
162,C4,40.5,0.125,45,128.5
163,D4,40.75,0.125,37,128.5
164,D4,41.0,0.125,49,128.5
165,D4,41.25,0.125,34,128.5
166,A3,41.5,0.125,45,128.5
167,D4,41.75,0.125,32,128.5
168,D3,42.0,0.25,62,128.5
169,D4,42.25,0.125,31,128.5
170,C4,42.5,0.125,47,128.5
171,D4,42.75,0.125,35,128.5
172,D4,43.0,0.125,52,128.5
173,D4,43.25,0.125,39,128.5
174,E-4,43.5,0.125,51,128.5
175,D4,43.75,0.125,37,128.5
176,F4,44.0,0.125,56,128.5
177,D4,44.25,0.125,44,128.5
178,D4,44.5,0.125,53,128.5
179,D4,44.75,0.125,41,128.5
180,E-4,45.0,0.125,59,128.5
181,D4,45.25,0.125,48,128.5
182,C4,45.5,0.125,52,128.5
183,D4,45.75,0.125,42,128.5
184,D4,46.0,0.125,54,128.5
185,D4,46.25,0.125,47,128.5
186,B-3,46.5,0.125,49,128.5
187,D4,46.75,0.125,41,128.5
188,C4,47.0,0.125,51,128.5
189,D4,47.25,0.125,43,128.5
190,A3,47.5,0.125,48,128.5
191,D4,47.75,0.125,37,128.5
192,G3,48.0,0.25,64,128.5
193,D5,48.25,0.125,39,128.5
194,D4,48.25,0.125,39,128.5
195,D4,48.5,0.125,51,128.5
196,D5,48.75,0.125,44,128.5
197,D4,48.75,0.125,44,128.5
198,E-4,49.0,0.125,58,128.5
199,D5,49.25,0.125,48,128.5
200,D4,49.25,0.125,48,128.5
201,C4,49.5,0.125,49,128.5
202,D5,49.75,0.125,46,128.5
203,D4,49.75,0.125,46,128.5
204,D4,50.0,0.125,53,128.5
205,D5,50.25,0.125,42,128.5
206,D4,50.25,0.125,42,128.5
207,B-3,50.5,0.125,49,128.5
208,D5,50.75,0.125,40,128.5
209,D4,50.75,0.125,40,128.5
210,G3,51.0,0.25,68,128.5
211,D4,51.25,0.125,39,128.5
212,D5,51.25,0.125,39,128.5
213,D4,51.5,0.125,51,128.5
214,D5,51.75,0.125,44,128.5
215,D4,51.75,0.125,44,128.5
216,E-4,52.0,0.125,58,128.5
217,D5,52.25,0.125,48,128.5
218,D4,52.25,0.125,48,128.5
219,C4,52.5,0.125,49,128.5
220,D5,52.75,0.125,46,128.5
221,D4,52.75,0.125,46,128.5
222,D4,53.0,0.125,53,128.5
223,D4,53.25,0.125,42,128.5
224,D5,53.25,0.125,42,128.5
225,B-3,53.5,0.125,49,128.5
226,D5,53.75,0.125,40,128.5
227,D4,53.75,0.125,40,128.5
228,G3,54.0,0.25,68,128.5
229,D5,54.25,0.125,39,128.5
230,D4,54.25,0.125,39,128.5
231,D4,54.5,0.125,51,128.5
232,D5,54.75,0.125,44,128.5
233,D4,54.75,0.125,44,128.5
234,E-4,55.0,0.125,55,128.5
235,D5,55.25,0.125,48,128.5
236,D4,55.25,0.125,48,128.5
237,C4,55.5,0.125,49,128.5
238,D5,55.75,0.125,46,128.5
239,D4,55.75,0.125,46,128.5
240,D4,56.0,0.125,57,128.5
241,D4,56.25,0.125,50,128.5
242,D5,56.25,0.125,50,128.5
243,B-3,56.5,0.125,52,128.5
244,D5,56.75,0.125,46,128.5
245,D4,56.75,0.125,46,128.5
246,C4,57.0,0.125,62,128.5
247,D5,57.25,0.125,52,128.5
248,D4,57.25,0.125,52,128.5
249,A3,57.5,0.125,53,128.5
250,D5,57.75,0.125,44,128.5
251,D4,57.75,0.125,44,128.5
252,B-3,58.0,0.125,58,128.5
253,D4,58.25,0.125,48,128.5
254,D5,58.25,0.125,48,128.5
255,C4,58.5,0.125,53,128.5
256,D4,58.75,0.125,42,128.5
257,D5,58.75,0.125,42,128.5
258,A3,59.0,0.125,56,128.5
259,D5,59.25,0.125,47,128.5
260,D4,59.25,0.125,47,128.5
261,B-3,59.5,0.125,52,128.5
262,D5,59.75,0.125,46,128.5
263,D4,59.75,0.125,46,128.5
264,G3,60.0,0.25,64,128.5
265,D5,60.25,0.125,39,128.5
266,D4,60.25,0.125,39,128.5
267,D4,60.5,0.125,51,128.5
268,D4,60.75,0.125,44,128.5
269,D5,60.75,0.125,44,128.5
270,E-4,61.0,0.125,58,128.5
271,D5,61.25,0.125,48,128.5
272,D4,61.25,0.125,48,128.5
273,C4,61.5,0.125,49,128.5
274,D5,61.75,0.125,46,128.5
275,D4,61.75,0.125,46,128.5
276,D4,62.0,0.125,53,128.5
277,D5,62.25,0.125,42,128.5
278,D4,62.25,0.125,42,128.5
279,B-3,62.5,0.125,49,128.5
280,D5,62.75,0.125,40,128.5
281,D4,62.75,0.125,40,128.5
282,G3,63.0,0.25,68,128.5
283,D5,63.25,0.125,39,128.5
284,D4,63.25,0.125,39,128.5
285,D4,63.5,0.125,51,128.5
286,D5,63.75,0.125,44,128.5
287,D4,63.75,0.125,44,128.5
288,E-4,64.0,0.125,58,128.5
289,D5,64.25,0.125,48,128.5
290,D4,64.25,0.125,48,128.5
291,C4,64.5,0.125,49,128.5
292,D5,64.75,0.125,46,128.5
293,D4,64.75,0.125,46,128.5
294,D4,65.0,0.125,53,128.5
295,D5,65.25,0.125,42,128.5
296,D4,65.25,0.125,42,128.5
297,B-3,65.5,0.125,49,128.5
298,D5,65.75,0.125,40,128.5
299,D4,65.75,0.125,40,128.5
300,G3,66.0,0.25,68,128.5
301,D4,66.25,0.125,39,128.5
302,D5,66.25,0.125,39,128.5
303,D4,66.5,0.125,51,128.5
304,D5,66.75,0.125,44,128.5
305,D4,66.75,0.125,44,128.5
306,E-4,67.0,0.125,55,128.5
307,D5,67.25,0.125,48,128.5
308,D4,67.25,0.125,48,128.5
309,C4,67.5,0.125,49,128.5
310,D5,67.75,0.125,46,128.5
311,D4,67.75,0.125,46,128.5
312,D4,68.0,0.125,57,128.5
313,D4,68.25,0.125,50,128.5
314,D5,68.25,0.125,50,128.5
315,B-3,68.5,0.125,52,128.5
316,D4,68.75,0.125,46,128.5
317,D5,68.75,0.125,46,128.5
318,C4,69.0,0.125,62,128.5
319,D5,69.25,0.125,52,128.5
320,D4,69.25,0.125,52,128.5
321,A3,69.5,0.125,53,128.5
322,D5,69.75,0.125,44,128.5
323,D4,69.75,0.125,44,128.5
324,B-3,70.0,0.125,60,128.5
325,D5,70.25,0.125,55,128.5
326,D4,70.25,0.125,55,128.5
327,G3,70.5,0.125,58,128.5
328,D4,70.75,0.125,48,128.5
329,D5,70.75,0.125,48,128.5
330,F3,71.0,0.125,64,128.5
331,D5,71.25,0.125,58,128.5
332,D4,71.25,0.125,58,128.5
333,E-3,71.5,0.125,62,128.5
334,D5,71.75,0.125,52,128.5
335,D4,71.75,0.125,52,128.5
336,D3,72.0,0.25,78,128.5
337,D2,72.0,0.25,78,128.5
338,F#5,72.25,0.125,76,128.5
339,A5,72.25,0.125,76,128.5
340,D6,72.25,0.125,76,128.5
341,D5,72.25,0.125,76,128.5
342,D4,72.5,0.125,56,128.5
343,D5,72.75,0.125,48,128.5
344,D4,72.75,0.125,48,128.5
345,E-4,73.0,0.125,63,128.5
346,D4,73.25,0.125,52,128.5
347,D5,73.25,0.125,52,128.5
348,C4,73.5,0.125,54,128.5
349,D5,73.75,0.125,50,128.5
350,D4,73.75,0.125,50,128.5
351,D4,74.0,0.125,58,128.5
352,D5,74.25,0.125,46,128.5
353,D4,74.25,0.125,46,128.5
354,A3,74.5,0.125,54,128.5
355,D5,74.75,0.125,44,128.5
356,D4,74.75,0.125,44,128.5
357,D2,75.0,0.25,81,128.5
358,D3,75.0,0.25,81,128.5
359,F#5,75.25,0.125,78,128.5
360,D5,75.25,0.125,78,128.5
361,A5,75.25,0.125,78,128.5
362,D6,75.25,0.125,78,128.5
363,D4,75.5,0.125,56,128.5
364,D5,75.75,0.125,48,128.5
365,D4,75.75,0.125,48,128.5
366,E-4,76.0,0.125,63,128.5
367,D5,76.25,0.125,52,128.5
368,D4,76.25,0.125,52,128.5
369,C4,76.5,0.125,54,128.5
370,D5,76.75,0.125,50,128.5
371,D4,76.75,0.125,50,128.5
372,D4,77.0,0.125,58,128.5
373,D5,77.25,0.125,46,128.5
374,D4,77.25,0.125,46,128.5
375,A3,77.5,0.125,54,128.5
376,D5,77.75,0.125,44,128.5
377,D4,77.75,0.125,44,128.5
378,D2,78.0,0.25,81,128.5
379,D3,78.0,0.25,81,128.5
380,D6,78.25,0.125,76,128.5
381,D5,78.25,0.125,76,128.5
382,F#5,78.25,0.125,76,128.5
383,A5,78.25,0.125,76,128.5
384,A3,78.5,0.125,56,128.5
385,D5,78.75,0.125,48,128.5
386,D4,78.75,0.125,48,128.5
387,C4,79.0,0.125,62,128.5
388,D4,79.25,0.125,52,128.5
389,D5,79.25,0.125,52,128.5
390,D4,79.5,0.125,61,128.5
391,D5,79.75,0.125,50,128.5
392,D4,79.75,0.125,50,128.5
393,E-4,80.0,0.125,67,128.5
394,D5,80.25,0.125,60,128.5
395,D4,80.25,0.125,60,128.5
396,F4,80.5,0.125,63,128.5
397,D5,80.75,0.125,56,128.5
398,D4,80.75,0.125,56,128.5
399,D4,81.0,0.125,70,128.5
400,D4,81.25,0.125,62,128.5
401,D5,81.25,0.125,62,128.5
402,E-4,81.5,0.125,62,128.5
403,D5,81.75,0.125,58,128.5
404,D4,81.75,0.125,58,128.5
405,C4,82.0,0.125,64,128.5
406,D5,82.25,0.125,62,128.5
407,D4,82.25,0.125,62,128.5
408,D4,82.5,0.125,58,128.5
409,D5,82.75,0.125,56,128.5
410,D4,82.75,0.125,56,128.5
411,B-3,83.0,0.125,61,128.5
412,D5,83.25,0.125,58,128.5
413,D4,83.25,0.125,58,128.5
414,A3,83.5,0.125,57,128.5
415,D5,83.75,0.125,50,128.5
416,D4,83.75,0.125,50,128.5
417,D2,84.0,0.25,78,128.5
418,D3,84.0,0.25,78,128.5
419,A5,84.25,0.125,76,128.5
420,D5,84.25,0.125,76,128.5
421,F#5,84.25,0.125,76,128.5
422,D6,84.25,0.125,76,128.5
423,D4,84.5,0.125,56,128.5
424,D5,84.75,0.125,48,128.5
425,D4,84.75,0.125,48,128.5
426,E-4,85.0,0.125,63,128.5
427,D5,85.25,0.125,52,128.5
428,D4,85.25,0.125,52,128.5
429,C4,85.5,0.125,54,128.5
430,D4,85.75,0.125,50,128.5
431,D5,85.75,0.125,50,128.5
432,D4,86.0,0.125,58,128.5
433,D4,86.25,0.125,46,128.5
434,D5,86.25,0.125,46,128.5
435,A3,86.5,0.125,54,128.5
436,D5,86.75,0.125,44,128.5
437,D4,86.75,0.125,44,128.5
438,D3,87.0,0.25,81,128.5
439,D2,87.0,0.25,81,128.5
440,F#5,87.25,0.125,78,128.5
441,D5,87.25,0.125,78,128.5
442,D6,87.25,0.125,78,128.5
443,A5,87.25,0.125,78,128.5
444,D4,87.5,0.125,56,128.5
445,D4,87.75,0.125,48,128.5
446,D5,87.75,0.125,48,128.5
447,E-4,88.0,0.125,63,128.5
448,D5,88.25,0.125,52,128.5
449,D4,88.25,0.125,52,128.5
450,C4,88.5,0.125,54,128.5
451,D5,88.75,0.125,50,128.5
452,D4,88.75,0.125,50,128.5
453,D4,89.0,0.125,58,128.5
454,D5,89.25,0.125,46,128.5
455,D4,89.25,0.125,46,128.5
456,A3,89.5,0.125,54,128.5
457,D5,89.75,0.125,44,128.5
458,D4,89.75,0.125,44,128.5
459,D3,90.0,0.25,81,128.5
460,D2,90.0,0.25,81,128.5
461,F#5,90.25,0.125,76,128.5
462,D5,90.25,0.125,76,128.5
463,A5,90.25,0.125,76,128.5
464,D6,90.25,0.125,76,128.5
465,A3,90.5,0.125,56,128.5
466,D5,90.75,0.125,48,128.5
467,D4,90.75,0.125,48,128.5
468,C4,91.0,0.125,62,128.5
469,D5,91.25,0.125,52,128.5
470,D4,91.25,0.125,52,128.5
471,D4,91.5,0.125,61,128.5
472,D5,91.75,0.125,50,128.5
473,D4,91.75,0.125,50,128.5
474,E-4,92.0,0.125,67,128.5
475,D4,92.25,0.125,57,128.5
476,D5,92.25,0.125,57,128.5
477,F4,92.5,0.125,63,128.5
478,D5,92.75,0.125,56,128.5
479,D4,92.75,0.125,56,128.5
480,D4,93.0,0.125,70,128.5
481,D5,93.25,0.125,62,128.5
482,D4,93.25,0.125,62,128.5
483,E-4,93.5,0.125,62,128.5
484,D5,93.75,0.125,58,128.5
485,D4,93.75,0.125,58,128.5
486,C4,94.0,0.125,74,128.5
487,D5,94.25,0.125,64,128.5
488,D4,94.25,0.125,64,128.5
489,D4,94.5,0.125,69,128.5
490,D5,94.75,0.125,60,128.5
491,D4,94.75,0.125,60,128.5
492,B-3,95.0,0.125,75,128.5
493,D5,95.25,0.125,68,128.5
494,D4,95.25,0.125,68,128.5
495,D4,95.5,0.125,70,128.5
496,D5,95.75,0.125,68,128.5
497,D4,95.75,0.125,68,128.5
498,G2,96.0,0.25,88,128.5
499,G1,96.0,0.25,88,128.5
500,B-5,96.25,0.125,80,128.5
501,D6,96.25,0.125,80,128.5
502,G6,96.25,0.125,80,128.5
503,G5,96.25,0.125,80,128.5
504,D4,96.5,0.125,70,128.5
505,D4,96.75,0.125,60,128.5
506,D5,96.75,0.125,60,128.5
507,E-4,97.0,0.125,78,128.5
508,D5,97.25,0.125,66,128.5
509,D4,97.25,0.125,66,128.5
510,C4,97.5,0.125,67,128.5
511,D5,97.75,0.125,62,128.5
512,D4,97.75,0.125,62,128.5
513,D4,98.0,0.125,72,128.5
514,D5,98.25,0.125,58,128.5
515,D4,98.25,0.125,58,128.5
516,B-3,98.5,0.125,67,128.5
517,D4,98.75,0.125,54,128.5
518,D5,98.75,0.125,54,128.5
519,G1,99.0,0.25,86,128.5
520,G2,99.0,0.25,86,128.5
521,B-5,99.25,0.125,82,128.5
522,G5,99.25,0.125,82,128.5
523,D6,99.25,0.125,82,128.5
524,G6,99.25,0.125,82,128.5
525,D4,99.5,0.125,70,128.5
526,D5,99.75,0.125,60,128.5
527,D4,99.75,0.125,60,128.5
528,E-4,100.0,0.125,78,128.5
529,D5,100.25,0.125,66,128.5
530,D4,100.25,0.125,66,128.5
531,C4,100.5,0.125,67,128.5
532,D5,100.75,0.125,62,128.5
533,D4,100.75,0.125,62,128.5
534,D4,101.0,0.125,72,128.5
535,D4,101.25,0.125,58,128.5
536,D5,101.25,0.125,58,128.5
537,B-3,101.5,0.125,67,128.5
538,D5,101.75,0.125,54,128.5
539,D4,101.75,0.125,54,128.5
540,G1,102.0,0.25,86,128.5
541,G2,102.0,0.25,86,128.5
542,G6,102.25,0.125,80,128.5
543,G5,102.25,0.125,80,128.5
544,B-5,102.25,0.125,80,128.5
545,D6,102.25,0.125,80,128.5
546,D4,102.5,0.125,67,128.5
547,D5,102.75,0.125,58,128.5
548,D4,102.75,0.125,58,128.5
549,E-4,103.0,0.125,74,128.5
550,D5,103.25,0.125,63,128.5
551,D4,103.25,0.125,63,128.5
552,C4,103.5,0.125,73,128.5
553,D5,103.75,0.125,60,128.5
554,D4,103.75,0.125,60,128.5
555,D4,104.0,0.125,80,128.5
556,D5,104.25,0.125,64,128.5
557,D4,104.25,0.125,64,128.5
558,B-3,104.5,0.125,75,128.5
559,D5,104.75,0.125,66,128.5
560,D4,104.75,0.125,66,128.5
561,C4,105.0,0.125,84,128.5
562,D5,105.25,0.125,70,128.5
563,D4,105.25,0.125,70,128.5
564,A3,105.5,0.125,74,128.5
565,D4,105.75,0.125,62,128.5
566,D5,105.75,0.125,62,128.5
567,B-3,106.0,0.125,76,128.5
568,D5,106.25,0.125,66,128.5
569,D4,106.25,0.125,66,128.5
570,C4,106.5,0.125,69,128.5
571,D5,106.75,0.125,60,128.5
572,D4,106.75,0.125,60,128.5
573,A3,107.0,0.125,73,128.5
574,D5,107.25,0.125,62,128.5
575,D4,107.25,0.125,62,128.5
576,B-3,107.5,0.125,68,128.5
577,D4,107.75,0.125,60,128.5
578,D5,107.75,0.125,60,128.5
579,C#3,108.0,0.25,88,128.5
580,C#2,108.0,0.25,88,128.5
581,B-5,108.25,0.125,86,128.5
582,G5,108.25,0.125,86,128.5
583,G6,108.25,0.125,86,128.5
584,E-6,108.25,0.125,86,128.5
585,E-4,108.5,0.125,70,128.5
586,E-5,108.75,0.125,60,128.5
587,E-4,108.75,0.125,60,128.5
588,F4,109.0,0.125,74,128.5
589,E-5,109.25,0.125,66,128.5
590,E-4,109.25,0.125,66,128.5
591,D4,109.5,0.125,67,128.5
592,E-5,109.75,0.125,62,128.5
593,E-4,109.75,0.125,62,128.5
594,E-4,110.0,0.125,72,128.5
595,E-4,110.25,0.125,58,128.5
596,E-5,110.25,0.125,58,128.5
597,B-3,110.5,0.125,67,128.5
598,E-5,110.75,0.125,54,128.5
599,E-4,110.75,0.125,54,128.5
600,C#2,111.0,0.25,86,128.5
601,C#3,111.0,0.25,86,128.5
602,B-5,111.25,0.125,86,128.5
603,G5,111.25,0.125,86,128.5
604,G6,111.25,0.125,86,128.5
605,E-6,111.25,0.125,86,128.5
606,E-4,111.5,0.125,70,128.5
607,E-4,111.75,0.125,60,128.5
608,E-5,111.75,0.125,60,128.5
609,F4,112.0,0.125,75,128.5
610,E-4,112.25,0.125,66,128.5
611,E-5,112.25,0.125,66,128.5
612,D4,112.5,0.125,67,128.5
613,E-5,112.75,0.125,62,128.5
614,E-4,112.75,0.125,62,128.5
615,E-4,113.0,0.125,72,128.5
616,E-5,113.25,0.125,58,128.5
617,E-4,113.25,0.125,58,128.5
618,B-3,113.5,0.125,67,128.5
619,E-5,113.75,0.125,54,128.5
620,E-4,113.75,0.125,54,128.5
621,C#2,114.0,0.25,88,128.5
622,C#3,114.0,0.25,88,128.5
623,B-5,114.25,0.125,86,128.5
624,G5,114.25,0.125,86,128.5
625,E-6,114.25,0.125,86,128.5
626,G6,114.25,0.125,86,128.5
627,E-4,114.5,0.125,67,128.5
628,E-5,114.75,0.125,58,128.5
629,E-4,114.75,0.125,58,128.5
630,F4,115.0,0.125,74,128.5
631,E-5,115.25,0.125,63,128.5
632,E-4,115.25,0.125,63,128.5
633,D4,115.5,0.125,64,128.5
634,E-5,115.75,0.125,60,128.5
635,E-4,115.75,0.125,60,128.5
636,E-4,116.0,0.125,69,128.5
637,E-5,116.25,0.125,55,128.5
638,E-4,116.25,0.125,55,128.5
639,B-3,116.5,0.125,64,128.5
640,E-4,116.75,0.125,52,128.5
641,E-5,116.75,0.125,52,128.5
642,C4,117.0,0.125,84,128.5
643,E-5,117.25,0.125,62,128.5
644,E-4,117.25,0.125,62,128.5
645,A3,117.5,0.125,70,128.5
646,E-5,117.75,0.125,63,128.5
647,E-4,117.75,0.125,63,128.5
648,B-3,118.0,0.125,72,128.5
649,E-5,118.25,0.125,63,128.5
650,E-4,118.25,0.125,63,128.5
651,C4,118.5,0.125,69,128.5
652,E-4,118.75,0.125,60,128.5
653,E-5,118.75,0.125,60,128.5
654,G3,119.0,0.125,73,128.5
655,E-5,119.25,0.125,64,128.5
656,E-4,119.25,0.125,64,128.5
657,A3,119.5,0.125,68,128.5
658,E-5,119.75,0.125,60,128.5
659,E-4,119.75,0.125,60,128.5
660,D2,120.0,0.25,85,128.5
661,D3,120.0,0.25,85,128.5
662,F#6,120.25,0.125,90,128.5
663,A6,120.25,0.125,90,128.5
664,D7,120.25,0.125,90,128.5
665,D6,120.25,0.125,90,128.5
666,D4,120.5,0.125,73,128.5
667,D5,120.75,0.125,63,128.5
668,D4,120.75,0.125,63,128.5
669,E-4,121.0,0.125,78,128.5
670,D5,121.25,0.125,66,128.5
671,D4,121.25,0.125,66,128.5
672,C#4,121.5,0.125,70,128.5
673,D5,121.75,0.125,65,128.5
674,D4,121.75,0.125,65,128.5
675,D4,122.0,0.125,75,128.5
676,D5,122.25,0.125,60,128.5
677,D4,122.25,0.125,60,128.5
678,A3,122.5,0.125,70,128.5
679,D5,122.75,0.125,56,128.5
680,D4,122.75,0.125,56,128.5
681,C#2,123.0,0.25,86,128.5
682,C#3,123.0,0.25,86,128.5
683,B-6,123.25,0.125,90,128.5
684,E-6,123.25,0.125,90,128.5
685,G6,123.25,0.125,90,128.5
686,E-7,123.25,0.125,90,128.5
687,E-4,123.5,0.125,73,128.5
688,E-5,123.75,0.125,63,128.5
689,E-4,123.75,0.125,63,128.5
690,F4,124.0,0.125,82,128.5
691,E-5,124.25,0.125,69,128.5
692,E-4,124.25,0.125,69,128.5
693,D4,124.5,0.125,70,128.5
694,E-4,124.75,0.125,65,128.5
695,E-5,124.75,0.125,65,128.5
696,E-4,125.0,0.125,75,128.5
697,E-5,125.25,0.125,60,128.5
698,E-4,125.25,0.125,60,128.5
699,B-3,125.5,0.125,70,128.5
700,E-5,125.75,0.125,56,128.5
701,E-4,125.75,0.125,56,128.5
702,D2,126.0,0.25,82,128.5
703,D3,126.0,0.25,82,128.5
704,D7,126.25,0.125,91,128.5
705,D6,126.25,0.125,91,128.5
706,F#6,126.25,0.125,91,128.5
707,A6,126.25,0.125,91,128.5
708,D4,126.5,0.125,73,128.5
709,D5,126.75,0.125,63,128.5
710,D4,126.75,0.125,63,128.5
711,E-4,127.0,0.125,78,128.5
712,D4,127.25,0.125,66,128.5
713,D5,127.25,0.125,66,128.5
714,C#4,127.5,0.125,70,128.5
715,D5,127.75,0.125,65,128.5
716,D4,127.75,0.125,65,128.5
717,D4,128.0,0.125,75,128.5
718,D5,128.25,0.125,60,128.5
719,D4,128.25,0.125,60,128.5
720,A3,128.5,0.125,70,128.5
721,D5,128.75,0.125,56,128.5
722,D4,128.75,0.125,56,128.5
723,C#2,129.0,0.25,86,128.5
724,C#3,129.0,0.25,86,128.5
725,G6,129.25,0.125,90,128.5
726,E-6,129.25,0.125,90,128.5
727,E-7,129.25,0.125,90,128.5
728,B-6,129.25,0.125,90,128.5
729,E-4,129.5,0.125,73,128.5
730,E-5,129.75,0.125,63,128.5
731,E-4,129.75,0.125,63,128.5
732,F4,130.0,0.125,79,128.5
733,E-5,130.25,0.125,69,128.5
734,E-4,130.25,0.125,69,128.5
735,D4,130.5,0.125,70,128.5
736,E-5,130.75,0.125,65,128.5
737,E-4,130.75,0.125,65,128.5
738,E-4,131.0,0.125,75,128.5
739,E-4,131.25,0.125,60,128.5
740,E-5,131.25,0.125,60,128.5
741,B-3,131.5,0.125,70,128.5
742,E-5,131.75,0.125,56,128.5
743,E-4,131.75,0.125,56,128.5
744,D2,132.0,0.25,82,128.5
745,D3,132.0,0.25,82,128.5
746,D7,132.25,0.125,90,128.5
747,D6,132.25,0.125,90,128.5
748,F#6,132.25,0.125,90,128.5
749,A6,132.25,0.125,90,128.5
750,D4,132.5,0.125,73,128.5
751,D5,132.75,0.125,63,128.5
752,D4,132.75,0.125,63,128.5
753,E-4,133.0,0.125,78,128.5
754,D5,133.25,0.125,69,128.5
755,D4,133.25,0.125,69,128.5
756,C#4,133.5,0.125,70,128.5
757,D5,133.75,0.125,65,128.5
758,D4,133.75,0.125,65,128.5
759,D4,134.0,0.125,75,128.5
760,D5,134.25,0.125,60,128.5
761,D4,134.25,0.125,60,128.5
762,B-3,134.5,0.125,70,128.5
763,D5,134.75,0.125,56,128.5
764,D4,134.75,0.125,56,128.5
765,C4,135.0,0.25,76,128.5
766,D5,135.25,0.125,60,128.5
767,D4,135.25,0.125,60,128.5
768,A3,135.5,0.125,67,128.5
769,D5,135.75,0.125,58,128.5
770,D4,135.75,0.125,58,128.5
771,B-3,136.0,0.125,70,128.5
772,D4,136.25,0.125,58,128.5
773,D5,136.25,0.125,58,128.5
774,C4,136.5,0.125,64,128.5
775,D5,136.75,0.125,56,128.5
776,D4,136.75,0.125,56,128.5
777,A3,137.0,0.125,69,128.5
778,D5,137.25,0.125,58,128.5
779,D4,137.25,0.125,58,128.5
780,B-3,137.5,0.125,64,128.5
781,D5,137.75,0.125,52,128.5
782,D4,137.75,0.125,52,128.5
783,G3,138.0,0.25,76,128.5
784,D4,138.25,0.125,60,128.5
785,D5,138.25,0.125,60,128.5
786,A3,138.5,0.125,67,128.5
787,D4,138.75,0.125,56,128.5
788,D5,138.75,0.125,56,128.5
789,B-3,139.0,0.125,69,128.5
790,D5,139.25,0.125,56,128.5
791,D4,139.25,0.125,56,128.5
792,C4,139.5,0.125,62,128.5
793,D5,139.75,0.125,55,128.5
794,D4,139.75,0.125,55,128.5
795,A3,140.0,0.125,66,128.5
796,D5,140.25,0.125,55,128.5
797,D4,140.25,0.125,55,128.5
798,B-3,140.5,0.125,61,128.5
799,D4,140.75,0.125,49,128.5
800,D5,140.75,0.125,49,128.5
801,G3,141.0,0.25,72,128.5
802,D4,141.25,0.125,56,128.5
803,D5,141.25,0.125,56,128.5
804,A3,141.5,0.125,62,128.5
805,D5,141.75,0.125,52,128.5
806,D4,141.75,0.125,52,128.5
807,B-3,142.0,0.125,64,128.5
808,D5,142.25,0.125,52,128.5
809,D4,142.25,0.125,52,128.5
810,G3,142.5,0.125,57,128.5
811,D5,142.75,0.125,49,128.5
812,D4,142.75,0.125,49,128.5
813,F3,143.0,0.125,60,128.5
814,D5,143.25,0.125,50,128.5
815,D4,143.25,0.125,50,128.5
816,E-3,143.5,0.125,55,128.5
817,D4,143.75,0.125,44,128.5
818,D5,143.75,0.125,44,128.5
819,D2,144.0,0.25,68,128.5
820,D3,144.0,0.25,68,128.5
821,D5,144.25,0.125,66,128.5
822,D4,144.25,0.125,66,128.5
823,D4,144.5,0.125,56,128.5
824,D4,144.75,0.125,42,128.5
825,E-4,145.0,0.125,63,128.5
826,D4,145.25,0.125,46,128.5
827,C4,145.5,0.125,54,128.5
828,D4,145.75,0.125,44,128.5
829,D4,146.0,0.125,58,128.5
830,D4,146.25,0.125,40,128.5
831,B-3,146.5,0.125,54,128.5
832,D4,146.75,0.125,38,128.5
833,C4,147.0,0.25,64,128.5
834,D4,147.25,0.125,45,128.5
835,A3,147.5,0.125,56,128.5
836,D4,147.75,0.125,42,128.5
837,B-3,148.0,0.125,59,128.5
838,D4,148.25,0.125,43,128.5
839,C4,148.5,0.125,54,128.5
840,D4,148.75,0.125,41,128.5
841,A3,149.0,0.125,58,128.5
842,D4,149.25,0.125,42,128.5
843,B-3,149.5,0.125,54,128.5
844,D4,149.75,0.125,38,128.5
845,G3,150.0,0.25,64,128.5
846,D4,150.25,0.125,45,128.5
847,A3,150.5,0.125,56,128.5
848,D4,150.75,0.125,41,128.5
849,B-3,151.0,0.125,58,128.5
850,D4,151.25,0.125,41,128.5
851,C4,151.5,0.125,52,128.5
852,D4,151.75,0.125,40,128.5
853,A3,152.0,0.125,56,128.5
854,D4,152.25,0.125,40,128.5
855,B-3,152.5,0.125,51,128.5
856,D4,152.75,0.125,36,128.5
857,G3,153.0,0.25,61,128.5
858,D4,153.25,0.125,41,128.5
859,A3,153.5,0.125,52,128.5
860,D4,153.75,0.125,39,128.5
861,B-3,154.0,0.125,54,128.5
862,D4,154.25,0.125,39,128.5
863,G3,154.5,0.125,48,128.5
864,D4,154.75,0.125,36,128.5
865,F3,155.0,0.125,51,128.5
866,D4,155.25,0.125,37,128.5
867,E-3,155.5,0.125,46,128.5
868,D4,155.75,0.125,32,128.5
869,D2,156.0,3.0,45,128.5
870,A3,156.25,0.125,36,128.5
871,F#3,156.25,0.125,36,128.5
872,A2,156.5,0.125,45,128.5
873,F#3,156.75,0.125,31,128.5
874,A3,156.75,0.125,31,128.5
875,D3,157.0,0.125,42,128.5
876,F#3,157.25,0.125,34,128.5
877,A3,157.25,0.125,34,128.5
878,E-3,157.5,0.125,49,128.5
879,F#3,157.75,0.125,33,128.5
880,A3,157.75,0.125,33,128.5
881,C#3,158.0,0.125,54,128.5
882,F#3,158.25,0.125,35,128.5
883,A3,158.25,0.125,35,128.5
884,D3,158.5,0.125,51,128.5
885,F#3,158.75,0.125,34,128.5
886,A3,158.75,0.125,34,128.5
887,D2,159.0,3.0,56,128.5
888,B-3,159.25,0.125,36,128.5
889,G3,159.25,0.125,36,128.5
890,A2,159.5,0.125,49,128.5
891,G3,159.75,0.125,31,128.5
892,B-3,159.75,0.125,31,128.5
893,E-3,160.0,0.125,51,128.5
894,G3,160.25,0.125,34,128.5
895,B-3,160.25,0.125,34,128.5
896,F3,160.5,0.125,46,128.5
897,G3,160.75,0.125,29,128.5
898,B-3,160.75,0.125,29,128.5
899,D3,161.0,0.125,49,128.5
900,B-3,161.25,0.125,34,128.5
901,G3,161.25,0.125,34,128.5
902,E-3,161.5,0.125,46,128.5
903,G3,161.75,0.125,31,128.5
904,B-3,161.75,0.125,31,128.5
905,D2,162.0,3.0,45,128.5
906,F#3,162.25,0.125,36,128.5
907,A3,162.25,0.125,36,128.5
908,A2,162.5,0.125,45,128.5
909,F#3,162.75,0.125,31,128.5
910,A3,162.75,0.125,31,128.5
911,D3,163.0,0.125,42,128.5
912,F#3,163.25,0.125,34,128.5
913,A3,163.25,0.125,34,128.5
914,E-3,163.5,0.125,47,128.5
915,F#3,163.75,0.125,33,128.5
916,A3,163.75,0.125,33,128.5
917,C#3,164.0,0.125,52,128.5
918,F#3,164.25,0.125,35,128.5
919,A3,164.25,0.125,35,128.5
920,D3,164.5,0.125,49,128.5
921,F#3,164.75,0.125,34,128.5
922,A3,164.75,0.125,34,128.5
923,D2,165.0,3.0,54,128.5
924,G3,165.25,0.125,36,128.5
925,B-3,165.25,0.125,36,128.5
926,A2,165.5,0.125,46,128.5
927,G3,165.75,0.125,31,128.5
928,B-3,165.75,0.125,31,128.5
929,E-3,166.0,0.125,48,128.5
930,B-3,166.25,0.125,34,128.5
931,G3,166.25,0.125,34,128.5
932,F3,166.5,0.125,45,128.5
933,G3,166.75,0.125,29,128.5
934,B-3,166.75,0.125,29,128.5
935,D3,167.0,0.125,47,128.5
936,G3,167.25,0.125,34,128.5
937,B-3,167.25,0.125,34,128.5
938,E-3,167.5,0.125,44,128.5
939,G3,167.75,0.125,31,128.5
940,B-3,167.75,0.125,31,128.5
941,D2,168.0,3.0,45,128.5
942,A3,168.25,0.125,36,128.5
943,F#3,168.25,0.125,36,128.5
944,A2,168.5,0.125,45,128.5
945,F#3,168.75,0.125,31,128.5
946,A3,168.75,0.125,31,128.5
947,D3,169.0,0.125,42,128.5
948,F#3,169.25,0.125,34,128.5
949,A3,169.25,0.125,34,128.5
950,E-3,169.5,0.125,47,128.5
951,F#3,169.75,0.125,33,128.5
952,A3,169.75,0.125,33,128.5
953,C#3,170.0,0.125,51,128.5
954,F#3,170.25,0.125,35,128.5
955,A3,170.25,0.125,35,128.5
956,E-3,170.5,0.125,48,128.5
957,F#3,170.75,0.125,34,128.5
958,A3,170.75,0.125,34,128.5
959,D3,171.0,0.125,53,128.5
960,D2,171.0,3.0,45,128.5
961,A3,171.25,0.125,36,128.5
962,F#3,171.25,0.125,36,128.5
963,E-3,171.5,0.125,46,128.5
964,F#3,171.75,0.125,31,128.5
965,A3,171.75,0.125,31,128.5
966,C#3,172.0,0.125,48,128.5
967,F#3,172.25,0.125,34,128.5
968,A3,172.25,0.125,34,128.5
969,E-3,172.5,0.125,45,128.5
970,F#3,172.75,0.125,29,128.5
971,A3,172.75,0.125,29,128.5
972,D3,173.0,0.125,45,128.5
973,A3,173.25,0.125,34,128.5
974,F#3,173.25,0.125,34,128.5
975,A2,173.5,0.125,44,128.5
976,A3,173.75,0.125,31,128.5
977,F#3,173.75,0.125,31,128.5
978,D2,174.0,0.125,45,128.5
979,F#3,174.25,0.125,43,128.5
980,F#3,174.5,0.125,45,128.5
981,A3,174.75,0.125,43,128.5
982,A3,175.0,0.125,45,128.5
983,D4,175.25,0.125,42,128.5
984,D4,175.5,0.125,45,128.5
985,F#4,175.75,0.125,42,128.5
986,F#4,176.0,0.125,44,128.5
987,A4,176.25,0.125,41,128.5
988,A4,176.5,0.125,43,128.5
989,D5,176.75,0.125,41,128.5
990,D5,177.0,0.125,43,128.5
991,F#5,177.25,0.125,40,128.5
992,F#5,177.5,0.125,42,128.5
993,A5,177.75,0.125,40,128.5
994,A5,178.0,0.125,42,128.5
995,D6,178.25,0.125,39,128.5
996,D6,178.5,0.125,41,128.5
997,F#6,178.75,0.125,39,128.5
998,F#6,179.0,0.125,41,128.5
999,A6,179.25,0.125,39,128.5
1000,A6,179.5,0.125,40,128.5
1001,D7,179.75,0.125,39,128.5
1002,D7,180.0,3.0,43,128.5
1003,F#6,180.0,3.0,43,128.5
1004,D6,180.0,3.0,43,128.5
1005,A5,180.0,3.0,34,128.5
1006,D5,180.0,3.0,34,128.5
1007,D7,184.0,1.0,43,128.5
1008,F#6,184.0,1.0,43,128.5
1009,D6,184.0,1.0,43,128.5
1010,A5,184.0,1.0,34,128.5
1011,D5,184.0,1.0,34,128.5
1012,D6,187.0,2.0,65,128.5
1013,D4,187.0,2.0,55,128.5
1014,C6,189.0,0.5,57,128.5
1015,C4,189.0,0.5,48,128.5
1016,D6,189.5,0.5,57,128.5
1017,D4,189.5,0.5,48,128.5
1018,F6,190.0,1.875,64,128.5
1019,F4,190.0,1.875,54,128.5
1020,D6,191.75,0.125,54,128.5
1021,D4,191.75,0.125,45,128.5
1022,E-6,191.875,0.125,54,128.5
1023,E-4,191.875,0.125,45,128.5
1024,D6,192.0,0.5,60,128.5
1025,D4,192.0,0.5,51,128.5
1026,C6,192.5,0.5,47,128.5
1027,C4,192.5,0.5,39,128.5
1028,D6,193.0,2.0,55,128.5
1029,D4,193.0,2.0,46,128.5
1030,F#4,195.0,1.0,34,128.5
1031,A3,195.0,1.0,28,128.5
1032,D4,195.0,1.0,28,128.5
1033,D2,195.0,1.0,24,128.5
1034,D3,195.0,1.0,24,128.5
1035,F#4,199.0,3.0,34,128.5
1036,A4,199.0,3.0,34,128.5
1037,A3,199.0,3.0,28,128.5
1038,D4,199.0,3.0,28,128.5
1039,D2,199.0,3.0,24,128.5
1040,D3,199.0,3.0,24,128.5
1041,D6,202.0,2.0,65,128.5
1042,D4,202.0,2.0,55,128.5
1043,C6,204.0,0.5,57,128.5
1044,C4,204.0,0.5,48,128.5
1045,D6,204.5,0.5,57,128.5
1046,D4,204.5,0.5,48,128.5
1047,F6,205.0,1.875,64,128.5
1048,F4,205.0,1.875,54,128.5
1049,D6,206.75,0.125,54,128.5
1050,D4,206.75,0.125,45,128.5
1051,E-6,206.875,0.125,54,128.5
1052,E-4,206.875,0.125,45,128.5
1053,D6,207.0,0.5,60,128.5
1054,D4,207.0,0.5,51,128.5
1055,C6,207.5,0.5,47,128.5
1056,C4,207.5,0.5,39,128.5
1057,D6,208.0,2.0,55,128.5
1058,D4,208.0,2.0,46,128.5
1059,D4,210.0,1.0,34,128.5
1060,F3,210.0,1.0,28,128.5
1061,B-3,210.0,1.0,28,128.5
1062,B-1,210.0,1.0,24,128.5
1063,B-2,210.0,1.0,24,128.5
1064,D4,214.0,3.0,34,128.5
1065,F4,214.0,3.0,34,128.5
1066,F3,214.0,3.0,28,128.5
1067,B-3,214.0,3.0,28,128.5
1068,B-1,214.0,3.0,24,128.5
1069,B-2,214.0,3.0,24,128.5
1070,D6,217.0,2.0,62,128.5
1071,D4,217.0,2.0,52,128.5
1072,C#6,219.0,1.0,56,128.5
1073,C#4,219.0,1.0,48,128.5
1074,C#6,220.0,0.75,56,128.5
1075,C#4,220.0,0.75,48,128.5
1076,B-5,220.75,0.125,48,128.5
1077,B-3,220.75,0.125,40,128.5
1078,C6,220.875,0.125,46,128.5
1079,C4,220.875,0.125,39,128.5
1080,B-5,221.0,0.5,54,128.5
1081,B-3,221.0,0.5,45,128.5
1082,A5,221.5,0.5,50,128.5
1083,A3,221.5,0.5,41,128.5
1084,G5,222.0,0.5,52,128.5
1085,G3,222.0,0.5,44,128.5
1086,B-5,222.5,0.5,46,128.5
1087,B-3,222.5,0.5,38,128.5
1088,A5,223.0,2.0,52,128.5
1089,A3,223.0,2.0,44,128.5
1090,F#4,225.0,1.0,41,128.5
1091,A3,225.0,1.0,35,128.5
1092,D4,225.0,1.0,35,128.5
1093,D3,225.0,1.0,28,128.5
1094,D2,225.0,1.0,28,128.5
1095,F#4,229.0,3.0,41,128.5
1096,A4,229.0,3.0,41,128.5
1097,A3,229.0,3.0,35,128.5
1098,D4,229.0,3.0,35,128.5
1099,D3,229.0,3.0,28,128.5
1100,D2,229.0,3.0,28,128.5
1101,D6,232.0,2.0,65,128.5
1102,D4,232.0,2.0,55,128.5
1103,E-6,234.0,0.5,65,128.5
1104,E-4,234.0,0.5,55,128.5
1105,D6,234.5,0.5,57,128.5
1106,D4,234.5,0.5,48,128.5
1107,C#6,235.0,0.5,59,128.5
1108,C#4,235.0,0.5,50,128.5
1109,A5,235.5,0.25,59,128.5
1110,A3,235.5,0.25,50,128.5
1111,B-5,235.75,0.125,46,128.5
1112,B-3,235.75,0.125,39,128.5
1113,C6,235.875,0.125,46,128.5
1114,C4,235.875,0.125,39,128.5
1115,B-5,236.0,0.5,53,128.5
1116,B-3,236.0,0.5,46,128.5
1117,A5,236.5,0.5,52,128.5
1118,A3,236.5,0.5,44,128.5
1119,G5,237.0,0.5,53,128.5
1120,G3,237.0,0.5,45,128.5
1121,B-5,237.5,0.5,47,128.5
1122,B-3,237.5,0.5,39,128.5
1123,A5,238.0,2.0,52,128.5
1124,A3,238.0,2.0,44,128.5
1125,A3,240.0,1.0,25,128.5
1126,E-3,240.0,1.0,23,128.5
1127,C#4,240.0,1.0,28,128.5
1128,G4,240.0,1.0,28,128.5
1129,A3,241.0,3.0,25,128.5
1130,D3,241.0,3.0,23,128.5
1131,D4,241.0,3.0,30,128.5
1132,F#4,241.0,3.0,30,128.5
1133,B-3,244.0,3.0,41,128.5
1134,F4,245.0,2.0,36,128.5
1135,D4,245.0,2.0,34,128.5
1136,A3,247.0,3.0,41,128.5
1137,F#4,247.75,0.125,48,128.5
1138,G#4,247.875,0.125,50,128.5
1139,F#4,248.0,0.5,57,128.5
1140,E-4,248.0,2.0,35,128.5
1141,B3,248.0,2.0,35,128.5
1142,F4,248.5,0.5,53,128.5
1143,F#4,249.0,0.5,59,128.5
1144,E-5,249.5,0.5,55,128.5
1145,B-3,250.0,3.0,44,128.5
1146,D4,251.0,2.0,34,128.5
1147,D5,251.0,2.0,48,128.5
1148,F4,251.0,2.0,48,128.5
1149,A3,253.0,3.0,52,128.5
1150,C#5,254.0,1.0,56,128.5
1151,D5,254.0,2.0,63,128.5
1152,D4,254.0,2.0,48,128.5
1153,C5,255.0,1.0,54,128.5
1154,F#3,255.0,1.0,41,128.5
1155,G3,256.0,3.0,52,128.5
1156,B-4,257.0,1.0,56,128.5
1157,D4,257.0,2.0,51,128.5
1158,D5,258.0,1.0,51,128.5
1159,F3,259.0,3.0,53,128.5
1160,A4,260.0,1.0,58,128.5
1161,D4,260.0,2.0,52,128.5
1162,D5,261.0,1.0,50,128.5
1163,E-3,262.0,3.0,47,128.5
1164,B-3,262.0,3.0,55,128.5
1165,G4,263.0,1.0,58,128.5
1166,D4,263.0,2.0,51,128.5
1167,D5,264.0,1.0,50,128.5
1168,A3,265.0,3.0,39,128.5
1169,E-3,265.0,3.0,47,128.5
1170,C#4,266.0,2.0,28,128.5
1171,G4,266.0,2.0,28,128.5
1172,D3,268.0,3.0,50,128.5
1173,A3,269.0,2.0,45,128.5
1174,D4,270.0,1.0,45,128.5
1175,F#4,270.0,1.0,45,128.5
1176,C4,271.0,0.5,52,128.5
1177,D4,271.5,0.5,44,128.5
1178,E-4,272.0,0.5,51,128.5
1179,A4,272.0,0.5,41,128.5
1180,G4,272.0,0.5,41,128.5
1181,F4,272.5,0.25,55,128.5
1182,E-4,272.75,0.25,51,128.5
1183,D4,273.0,0.5,50,128.5
1184,A4,273.0,0.5,41,128.5
1185,G4,273.0,0.5,41,128.5
1186,C4,273.5,0.5,50,128.5
1187,D3,274.0,3.0,56,128.5
1188,A3,275.0,2.0,50,128.5
1189,D4,276.0,1.0,45,128.5
1190,F#4,276.0,1.0,45,128.5
1191,C4,277.0,0.5,52,128.5
1192,D4,277.5,0.5,44,128.5
1193,E-4,278.0,0.5,51,128.5
1194,A4,278.0,0.5,41,128.5
1195,G4,278.0,0.5,41,128.5
1196,F4,278.5,0.25,55,128.5
1197,E-4,278.75,0.25,51,128.5
1198,D4,279.0,0.5,50,128.5
1199,A4,279.0,0.5,41,128.5
1200,G4,279.0,0.5,41,128.5
1201,C4,279.5,0.5,50,128.5
1202,D3,280.0,3.0,56,128.5
1203,A3,281.0,2.0,50,128.5
1204,D4,282.0,1.0,45,128.5
1205,F#4,282.0,1.0,45,128.5
1206,C6,283.0,0.5,66,128.5
1207,C4,283.0,0.5,61,128.5
1208,D6,283.5,0.5,63,128.5
1209,D4,283.5,0.5,57,128.5
1210,E-6,284.0,0.5,67,128.5
1211,E-4,284.0,0.5,62,128.5
1212,F6,284.5,0.25,65,128.5
1213,F4,284.5,0.25,60,128.5
1214,E-6,284.75,0.25,62,128.5
1215,E-4,284.75,0.25,56,128.5
1216,D6,285.0,0.5,66,128.5
1217,D4,285.0,0.5,61,128.5
1218,C6,285.5,0.5,55,128.5
1219,C4,285.5,0.5,51,128.5
1220,D6,286.0,0.5,65,128.5
1221,D4,286.0,0.5,60,128.5
1222,C#6,286.5,0.5,54,128.5
1223,C#4,286.5,0.5,49,128.5
1224,A5,287.0,0.5,59,128.5
1225,A3,287.0,0.5,54,128.5
1226,C6,287.5,0.5,52,128.5
1227,C4,287.5,0.5,47,128.5
1228,B5,288.0,0.5,54,128.5
1229,B3,288.0,0.5,50,128.5
1230,G5,288.5,0.5,50,128.5
1231,G3,288.5,0.5,46,128.5
1232,B-5,289.0,0.5,54,128.5
1233,B-3,289.0,0.5,49,128.5
1234,A5,289.5,0.5,47,128.5
1235,A3,289.5,0.5,44,128.5
1236,F#5,290.0,0.5,52,128.5
1237,F#3,290.0,0.5,47,128.5
1238,G#5,290.5,0.5,46,128.5
1239,G#3,290.5,0.5,43,128.5
1240,G5,291.0,0.5,51,128.5
1241,G3,291.0,0.5,46,128.5
1242,E-5,291.5,0.5,47,128.5
1243,E-3,291.5,0.5,44,128.5
1244,D3,292.0,3.0,56,128.5
1245,A3,293.0,2.0,51,128.5
1246,D4,294.0,1.0,45,128.5
1247,F#4,294.0,1.0,45,128.5
1248,D4,295.0,0.5,46,128.5
1249,E-4,295.5,0.5,39,128.5
1250,F4,296.0,0.5,45,128.5
1251,C5,296.0,1.0,36,128.5
1252,G#4,296.0,1.0,36,128.5
1253,G4,296.5,0.25,49,128.5
1254,F4,296.75,0.25,45,128.5
1255,E-4,297.0,0.5,45,128.5
1256,C5,297.0,1.0,36,128.5
1257,G#4,297.0,1.0,36,128.5
1258,D4,297.5,0.5,45,128.5
1259,G3,298.0,3.0,56,128.5
1260,D4,299.0,2.0,51,128.5
1261,G4,300.0,1.0,45,128.5
1262,B4,300.0,1.0,45,128.5
1263,D4,301.0,0.5,51,128.5
1264,E-4,301.5,0.5,46,128.5
1265,F4,302.0,0.5,50,128.5
1266,C5,302.0,0.5,39,128.5
1267,G#4,302.0,0.5,39,128.5
1268,G4,302.5,0.25,54,128.5
1269,F4,302.75,0.25,49,128.5
1270,E-4,303.0,0.5,52,128.5
1271,C5,303.0,0.5,39,128.5
1272,G#4,303.0,0.5,39,128.5
1273,D4,303.5,0.5,48,128.5
1274,G3,304.0,3.0,56,128.5
1275,D4,305.0,2.0,50,128.5
1276,G4,306.0,1.0,45,128.5
1277,B4,306.0,1.0,45,128.5
1278,G4,307.0,1.0,49,128.5
1279,E-5,307.0,0.5,67,128.5
1280,C4,307.0,1.0,49,128.5
1281,F#5,307.5,0.5,63,128.5
1282,G4,308.0,1.0,45,128.5
1283,G5,308.0,0.5,66,128.5
1284,B-3,308.0,1.0,45,128.5
1285,D5,308.5,0.25,57,128.5
1286,E-5,308.75,0.25,57,128.5
1287,F#4,309.0,1.0,45,128.5
1288,C5,309.0,0.5,63,128.5
1289,A3,309.0,1.0,45,128.5
1290,D5,309.5,0.5,56,128.5
1291,D4,310.0,1.0,38,128.5
1292,B-4,310.0,0.5,65,128.5
1293,G3,310.0,1.0,45,128.5
1294,D5,310.5,0.5,50,128.5
1295,D4,311.0,1.0,30,128.5
1296,A4,311.0,0.5,62,128.5
1297,F#3,311.0,1.0,36,128.5
1298,D5,311.5,0.5,49,128.5
1299,D4,312.0,1.0,33,128.5
1300,B-4,312.0,0.5,60,128.5
1301,G3,312.0,1.0,39,128.5
1302,D5,312.5,0.5,49,128.5
1303,B-4,313.0,1.0,50,128.5
1304,G5,313.0,0.5,56,128.5
1305,E-4,313.0,1.0,50,128.5
1306,A5,313.5,0.5,51,128.5
1307,B-4,314.0,1.0,50,128.5
1308,B-5,314.0,0.5,56,128.5
1309,D4,314.0,1.0,46,128.5
1310,F5,314.5,0.25,51,128.5
1311,G5,314.75,0.25,51,128.5
1312,A4,315.0,1.0,51,128.5
1313,E-5,315.0,0.5,57,128.5
1314,C4,315.0,1.0,40,128.5
1315,F5,315.5,0.5,49,128.5
1316,F4,316.0,1.0,37,128.5
1317,D5,316.0,0.5,53,128.5
1318,B-3,316.0,1.0,40,128.5
1319,F5,316.5,0.5,46,128.5
1320,F4,317.0,1.0,36,128.5
1321,C#5,317.0,0.5,51,128.5
1322,A3,317.0,1.0,32,128.5
1323,F5,317.5,0.5,44,128.5
1324,F4,318.0,1.0,36,128.5
1325,D5,318.0,0.5,52,128.5
1326,B-3,318.0,1.0,33,128.5
1327,F5,318.5,0.5,46,128.5
1328,G#5,319.0,0.5,57,128.5
1329,G#3,319.0,0.5,39,128.5
1330,B-5,319.5,0.5,50,128.5
1331,B-3,319.5,0.5,35,128.5
1332,C6,320.0,0.5,55,128.5
1333,C4,320.0,0.5,38,128.5
1334,E-6,320.5,0.25,49,128.5
1335,E-4,320.5,0.25,34,128.5
1336,C#6,320.75,0.125,46,128.5
1337,C#4,320.75,0.125,29,128.5
1338,E-6,320.875,0.125,47,128.5
1339,E-4,320.875,0.125,30,128.5
1340,C#6,321.0,0.5,55,128.5
1341,C#4,321.0,0.5,38,128.5
1342,C6,321.5,0.5,48,128.5
1343,C4,321.5,0.5,33,128.5
1344,E-6,322.0,0.5,57,128.5
1345,E-4,322.0,0.5,39,128.5
1346,C6,322.5,0.25,49,128.5
1347,C4,322.5,0.25,34,128.5
1348,B-5,322.75,0.125,44,128.5
1349,B-3,322.75,0.125,29,128.5
1350,C6,322.875,0.125,44,128.5
1351,C4,322.875,0.125,29,128.5
1352,B-5,323.0,0.5,55,128.5
1353,B-3,323.0,0.5,38,128.5
1354,A5,323.5,0.5,48,128.5
1355,A3,323.5,0.5,33,128.5
1356,C6,324.0,0.5,55,128.5
1357,C4,324.0,0.5,38,128.5
1358,E-6,324.5,0.5,48,128.5
1359,E-4,324.5,0.5,33,128.5
1360,E-4,325.0,0.5,55,128.5
1361,C3,325.0,2.0,44,128.5
1362,A3,325.0,2.0,44,128.5
1363,F4,325.5,0.5,46,128.5
1364,G4,326.0,0.5,55,128.5
1365,A4,326.5,0.25,52,128.5
1366,G4,326.75,0.25,49,128.5
1367,F4,327.0,0.5,53,128.5
1368,C#3,327.0,1.0,34,128.5
1369,G3,327.0,1.0,34,128.5
1370,B-3,327.0,1.0,34,128.5
1371,E-4,327.5,0.5,53,128.5
1372,D3,328.0,3.0,50,128.5
1373,A3,329.0,2.0,45,128.5
1374,D4,330.0,1.0,45,128.5
1375,F#4,330.0,1.0,45,128.5
1376,E-4,331.0,0.5,52,128.5
1377,F4,331.5,0.5,44,128.5
1378,G4,332.0,0.5,51,128.5
1379,C5,332.0,0.5,41,128.5
1380,A4,332.0,0.5,41,128.5
1381,A4,332.5,0.25,55,128.5
1382,G4,332.75,0.25,51,128.5
1383,F4,333.0,0.5,50,128.5
1384,C5,333.0,0.5,41,128.5
1385,A4,333.0,0.5,41,128.5
1386,E-4,333.5,0.5,50,128.5
1387,D3,334.0,3.0,56,128.5
1388,A3,335.0,2.0,50,128.5
1389,D4,336.0,1.0,45,128.5
1390,F#4,336.0,1.0,45,128.5
1391,E-4,337.0,0.5,52,128.5
1392,F4,337.5,0.5,44,128.5
1393,G4,338.0,0.5,51,128.5
1394,C5,338.0,0.5,41,128.5
1395,A4,338.0,0.5,41,128.5
1396,A4,338.5,0.25,55,128.5
1397,G4,338.75,0.25,51,128.5
1398,F4,339.0,0.5,50,128.5
1399,C5,339.0,0.5,41,128.5
1400,A4,339.0,0.5,41,128.5
1401,E-4,339.5,0.5,50,128.5
1402,D3,340.0,3.0,56,128.5
1403,A3,341.0,2.0,50,128.5
1404,D4,342.0,1.0,45,128.5
1405,F#4,342.0,1.0,45,128.5
1406,B-3,343.0,0.25,45,128.5
1407,F4,343.25,0.125,26,128.5
1408,D4,343.25,0.125,26,128.5
1409,C#4,343.5,0.125,40,128.5
1410,F4,343.75,0.125,24,128.5
1411,D4,343.75,0.125,24,128.5
1412,D4,344.0,0.125,42,128.5
1413,F4,344.25,0.125,24,128.5
1414,D4,344.25,0.125,24,128.5
1415,F4,344.5,0.125,42,128.5
1416,F4,344.75,0.125,23,128.5
1417,D4,344.75,0.125,23,128.5
1418,C#4,345.0,0.125,41,128.5
1419,F4,345.25,0.125,24,128.5
1420,D4,345.25,0.125,24,128.5
1421,D4,345.5,0.125,38,128.5
1422,F4,345.75,0.125,22,128.5
1423,D4,345.75,0.125,22,128.5
1424,F3,346.0,0.25,45,128.5
1425,F4,346.25,0.125,25,128.5
1426,C4,346.25,0.125,25,128.5
1427,A3,346.25,0.125,25,128.5
1428,G#3,346.5,0.125,40,128.5
1429,C4,346.75,0.125,23,128.5
1430,F4,346.75,0.125,23,128.5
1431,A3,346.75,0.125,23,128.5
1432,A3,347.0,0.125,41,128.5
1433,C4,347.25,0.125,23,128.5
1434,F4,347.25,0.125,23,128.5
1435,A3,347.25,0.125,23,128.5
1436,C4,347.5,0.125,37,128.5
1437,C4,347.75,0.125,22,128.5
1438,F4,347.75,0.125,22,128.5
1439,A3,347.75,0.125,22,128.5
1440,G#3,348.0,0.125,39,128.5
1441,C4,348.25,0.125,22,128.5
1442,F4,348.25,0.125,22,128.5
1443,A3,348.25,0.125,22,128.5
1444,A3,348.5,0.125,36,128.5
1445,C4,348.75,0.125,22,128.5
1446,F4,348.75,0.125,22,128.5
1447,A3,348.75,0.125,22,128.5
1448,E-3,349.0,0.25,43,128.5
1449,C#4,349.25,0.125,23,128.5
1450,G4,349.25,0.125,23,128.5
1451,B-3,349.25,0.125,23,128.5
1452,A3,349.5,0.125,37,128.5
1453,C#4,349.75,0.125,21,128.5
1454,G4,349.75,0.125,21,128.5
1455,B-3,349.75,0.125,21,128.5
1456,B-3,350.0,0.125,38,128.5
1457,C#4,350.25,0.125,21,128.5
1458,G4,350.25,0.125,21,128.5
1459,B-3,350.25,0.125,21,128.5
1460,G3,350.5,0.125,34,128.5
1461,C#4,350.75,0.125,20,128.5
1462,G4,350.75,0.125,20,128.5
1463,B-3,350.75,0.125,20,128.5
1464,F3,351.0,0.125,36,128.5
1465,C#4,351.25,0.125,21,128.5
1466,G4,351.25,0.125,21,128.5
1467,B-3,351.25,0.125,21,128.5
1468,E-3,351.5,0.125,33,128.5
1469,C#4,351.75,0.125,20,128.5
1470,G4,351.75,0.125,20,128.5
1471,B-3,351.75,0.125,20,128.5
1472,D6,352.0,2.0,65,128.5
1473,D4,352.0,2.0,55,128.5
1474,C6,354.0,0.5,57,128.5
1475,C4,354.0,0.5,48,128.5
1476,D6,354.5,0.5,57,128.5
1477,D4,354.5,0.5,48,128.5
1478,F6,355.0,1.875,64,128.5
1479,F4,355.0,1.875,54,128.5
1480,D6,356.75,0.125,54,128.5
1481,D4,356.75,0.125,45,128.5
1482,E-6,356.875,0.125,54,128.5
1483,E-4,356.875,0.125,45,128.5
1484,D6,357.0,0.5,60,128.5
1485,D4,357.0,0.5,51,128.5
1486,C6,357.5,0.5,47,128.5
1487,C4,357.5,0.5,39,128.5
1488,D6,358.0,2.0,55,128.5
1489,D4,358.0,2.0,46,128.5
1490,F#4,360.0,1.0,34,128.5
1491,A3,360.0,1.0,28,128.5
1492,D4,360.0,1.0,28,128.5
1493,D2,360.0,1.0,24,128.5
1494,D3,360.0,1.0,24,128.5
1495,F#4,364.0,3.0,34,128.5
1496,A4,364.0,3.0,34,128.5
1497,A3,364.0,3.0,28,128.5
1498,D4,364.0,3.0,28,128.5
1499,D2,364.0,3.0,24,128.5
1500,D3,364.0,3.0,24,128.5
1501,D6,367.0,2.0,65,128.5
1502,D4,367.0,2.0,55,128.5
1503,C6,369.0,0.5,57,128.5
1504,C4,369.0,0.5,48,128.5
1505,D6,369.5,0.5,57,128.5
1506,D4,369.5,0.5,48,128.5
1507,F6,370.0,1.875,64,128.5
1508,F4,370.0,1.875,54,128.5
1509,D6,371.75,0.125,54,128.5
1510,D4,371.75,0.125,45,128.5
1511,E-6,371.875,0.125,54,128.5
1512,E-4,371.875,0.125,45,128.5
1513,D6,372.0,0.5,60,128.5
1514,D4,372.0,0.5,51,128.5
1515,C6,372.5,0.5,47,128.5
1516,C4,372.5,0.5,39,128.5
1517,D6,373.0,2.0,55,128.5
1518,D4,373.0,2.0,46,128.5
1519,A3,375.0,1.0,25,128.5
1520,E-3,375.0,1.0,23,128.5
1521,C#4,375.0,1.0,28,128.5
1522,G4,375.0,1.0,28,128.5
1523,A3,376.0,3.0,25,128.5
1524,D3,376.0,3.0,23,128.5
1525,D4,376.0,3.0,30,128.5
1526,F#4,376.0,3.0,30,128.5
1527,G3,379.0,0.25,59,128.5
1528,D4,379.25,0.125,31,128.5
1529,D4,379.5,0.125,47,128.5
1530,D4,379.75,0.125,35,128.5
1531,E-4,380.0,0.125,53,128.5
1532,D4,380.25,0.125,39,128.5
1533,C4,380.5,0.125,45,128.5
1534,D4,380.75,0.125,37,128.5
1535,D4,381.0,0.125,49,128.5
1536,D4,381.25,0.125,34,128.5
1537,B-3,381.5,0.125,45,128.5
1538,D4,381.75,0.125,32,128.5
1539,G3,382.0,0.25,62,128.5
1540,D4,382.25,0.125,31,128.5
1541,D4,382.5,0.125,47,128.5
1542,D4,382.75,0.125,35,128.5
1543,E-4,383.0,0.125,53,128.5
1544,D4,383.25,0.125,39,128.5
1545,C4,383.5,0.125,45,128.5
1546,D4,383.75,0.125,37,128.5
1547,D4,384.0,0.125,49,128.5
1548,D4,384.25,0.125,34,128.5
1549,B-3,384.5,0.125,45,128.5
1550,D4,384.75,0.125,32,128.5
1551,G3,385.0,0.25,62,128.5
1552,D4,385.25,0.125,31,128.5
1553,D4,385.5,0.125,47,128.5
1554,D4,385.75,0.125,35,128.5
1555,E-4,386.0,0.125,50,128.5
1556,D4,386.25,0.125,39,128.5
1557,C4,386.5,0.125,45,128.5
1558,D4,386.75,0.125,37,128.5
1559,D4,387.0,0.125,52,128.5
1560,D4,387.25,0.125,40,128.5
1561,B-3,387.5,0.125,48,128.5
1562,D4,387.75,0.125,37,128.5
1563,C4,388.0,0.125,57,128.5
1564,D4,388.25,0.125,41,128.5
1565,A3,388.5,0.125,49,128.5
1566,D4,388.75,0.125,35,128.5
1567,B-3,389.0,0.125,53,128.5
1568,D4,389.25,0.125,39,128.5
1569,C4,389.5,0.125,49,128.5
1570,D4,389.75,0.125,34,128.5
1571,A3,390.0,0.125,51,128.5
1572,D4,390.25,0.125,38,128.5
1573,B-3,390.5,0.125,48,128.5
1574,D4,390.75,0.125,37,128.5
1575,G3,391.0,0.25,59,128.5
1576,D4,391.25,0.125,30,128.5
1577,D4,391.5,0.125,47,128.5
1578,D4,391.75,0.125,35,128.5
1579,E-4,392.0,0.125,50,128.5
1580,D4,392.25,0.125,36,128.5
1581,C4,392.5,0.125,45,128.5
1582,D4,392.75,0.125,31,128.5
1583,D4,393.0,0.125,51,128.5
1584,D4,393.25,0.125,36,128.5
1585,B-3,393.5,0.125,45,128.5
1586,D4,393.75,0.125,33,128.5
1587,G3,394.0,0.25,62,128.5
1588,D4,394.25,0.125,37,128.5
1589,D4,394.5,0.125,50,128.5
1590,D4,394.75,0.125,35,128.5
1591,E-4,395.0,0.125,54,128.5
1592,D4,395.25,0.125,39,128.5
1593,C4,395.5,0.125,45,128.5
1594,D4,395.75,0.125,37,128.5
1595,D4,396.0,0.125,49,128.5
1596,D4,396.25,0.125,34,128.5
1597,B-3,396.5,0.125,45,128.5
1598,D4,396.75,0.125,32,128.5
1599,G3,397.0,0.25,62,128.5
1600,D4,397.25,0.125,31,128.5
1601,D4,397.5,0.125,47,128.5
1602,D4,397.75,0.125,35,128.5
1603,E-4,398.0,0.125,50,128.5
1604,D4,398.25,0.125,39,128.5
1605,C4,398.5,0.125,45,128.5
1606,D4,398.75,0.125,37,128.5
1607,D4,399.0,0.125,52,128.5
1608,D4,399.25,0.125,40,128.5
1609,B-3,399.5,0.125,48,128.5
1610,D4,399.75,0.125,37,128.5
1611,C4,400.0,0.125,55,128.5
1612,D4,400.25,0.125,41,128.5
1613,A3,400.5,0.125,49,128.5
1614,D4,400.75,0.125,35,128.5
1615,B-3,401.0,0.125,56,128.5
1616,D4,401.25,0.125,43,128.5
1617,G3,401.5,0.125,51,128.5
1618,D4,401.75,0.125,37,128.5
1619,F3,402.0,0.125,56,128.5
1620,D4,402.25,0.125,44,128.5
1621,E-3,402.5,0.125,53,128.5
1622,D4,402.75,0.125,39,128.5
1623,D3,403.0,0.25,59,128.5
1624,D4,403.25,0.125,31,128.5
1625,D4,403.5,0.125,47,128.5
1626,D4,403.75,0.125,35,128.5
1627,E-4,404.0,0.125,53,128.5
1628,D4,404.25,0.125,39,128.5
1629,C4,404.5,0.125,45,128.5
1630,D4,404.75,0.125,37,128.5
1631,D4,405.0,0.125,49,128.5
1632,D4,405.25,0.125,34,128.5
1633,A3,405.5,0.125,45,128.5
1634,D4,405.75,0.125,32,128.5
1635,D3,406.0,0.25,62,128.5
1636,D4,406.25,0.125,31,128.5
1637,D4,406.5,0.125,47,128.5
1638,D4,406.75,0.125,35,128.5
1639,E-4,407.0,0.125,53,128.5
1640,D4,407.25,0.125,39,128.5
1641,C4,407.5,0.125,45,128.5
1642,D4,407.75,0.125,37,128.5
1643,D4,408.0,0.125,49,128.5
1644,D4,408.25,0.125,34,128.5
1645,A3,408.5,0.125,45,128.5
1646,D4,408.75,0.125,32,128.5
1647,D3,409.0,0.25,62,128.5
1648,D4,409.25,0.125,31,128.5
1649,A3,409.5,0.125,47,128.5
1650,D4,409.75,0.125,35,128.5
1651,C4,410.0,0.125,52,128.5
1652,D4,410.25,0.125,39,128.5
1653,D4,410.5,0.125,51,128.5
1654,D4,410.75,0.125,37,128.5
1655,E-4,411.0,0.125,56,128.5
1656,D4,411.25,0.125,44,128.5
1657,F4,411.5,0.125,53,128.5
1658,D4,411.75,0.125,41,128.5
1659,D4,412.0,0.125,59,128.5
1660,D4,412.25,0.125,48,128.5
1661,E-4,412.5,0.125,52,128.5
1662,D4,412.75,0.125,42,128.5
1663,C4,413.0,0.125,54,128.5
1664,D4,413.25,0.125,47,128.5
1665,D4,413.5,0.125,49,128.5
1666,D4,413.75,0.125,41,128.5
1667,B-3,414.0,0.125,51,128.5
1668,D4,414.25,0.125,43,128.5
1669,A3,414.5,0.125,48,128.5
1670,D4,414.75,0.125,37,128.5
1671,D3,415.0,0.25,59,128.5
1672,D4,415.25,0.125,31,128.5
1673,D4,415.5,0.125,47,128.5
1674,D4,415.75,0.125,35,128.5
1675,E-4,416.0,0.125,53,128.5
1676,D4,416.25,0.125,39,128.5
1677,C4,416.5,0.125,45,128.5
1678,D4,416.75,0.125,37,128.5
1679,D4,417.0,0.125,49,128.5
1680,D4,417.25,0.125,34,128.5
1681,A3,417.5,0.125,45,128.5
1682,D4,417.75,0.125,32,128.5
1683,D3,418.0,0.25,62,128.5
1684,D4,418.25,0.125,31,128.5
1685,D4,418.5,0.125,47,128.5
1686,D4,418.75,0.125,35,128.5
1687,E-4,419.0,0.125,53,128.5
1688,D4,419.25,0.125,39,128.5
1689,C4,419.5,0.125,45,128.5
1690,D4,419.75,0.125,37,128.5
1691,D4,420.0,0.125,49,128.5
1692,D4,420.25,0.125,34,128.5
1693,A3,420.5,0.125,45,128.5
1694,D4,420.75,0.125,32,128.5
1695,D3,421.0,0.25,62,128.5
1696,D4,421.25,0.125,31,128.5
1697,C4,421.5,0.125,47,128.5
1698,D4,421.75,0.125,35,128.5
1699,D4,422.0,0.125,52,128.5
1700,D4,422.25,0.125,39,128.5
1701,E-4,422.5,0.125,51,128.5
1702,D4,422.75,0.125,37,128.5
1703,F4,423.0,0.125,56,128.5
1704,D4,423.25,0.125,44,128.5
1705,D4,423.5,0.125,53,128.5
1706,D4,423.75,0.125,41,128.5
1707,E-4,424.0,0.125,59,128.5
1708,D4,424.25,0.125,48,128.5
1709,C4,424.5,0.125,52,128.5
1710,D4,424.75,0.125,42,128.5
1711,D4,425.0,0.125,54,128.5
1712,D4,425.25,0.125,47,128.5
1713,B-3,425.5,0.125,49,128.5
1714,D4,425.75,0.125,41,128.5
1715,C4,426.0,0.125,51,128.5
1716,D4,426.25,0.125,43,128.5
1717,A3,426.5,0.125,48,128.5
1718,D4,426.75,0.125,37,128.5
1719,G3,427.0,0.25,64,128.5
1720,D5,427.25,0.125,39,128.5
1721,D4,427.25,0.125,39,128.5
1722,D4,427.5,0.125,51,128.5
1723,D5,427.75,0.125,44,128.5
1724,D4,427.75,0.125,44,128.5
1725,E-4,428.0,0.125,58,128.5
1726,D5,428.25,0.125,48,128.5
1727,D4,428.25,0.125,48,128.5
1728,C4,428.5,0.125,49,128.5
1729,D5,428.75,0.125,46,128.5
1730,D4,428.75,0.125,46,128.5
1731,D4,429.0,0.125,53,128.5
1732,D5,429.25,0.125,42,128.5
1733,D4,429.25,0.125,42,128.5
1734,B-3,429.5,0.125,49,128.5
1735,D5,429.75,0.125,40,128.5
1736,D4,429.75,0.125,40,128.5
1737,G3,430.0,0.25,68,128.5
1738,D5,430.25,0.125,39,128.5
1739,D4,430.25,0.125,39,128.5
1740,D4,430.5,0.125,51,128.5
1741,D5,430.75,0.125,44,128.5
1742,D4,430.75,0.125,44,128.5
1743,E-4,431.0,0.125,58,128.5
1744,D5,431.25,0.125,48,128.5
1745,D4,431.25,0.125,48,128.5
1746,C4,431.5,0.125,49,128.5
1747,D5,431.75,0.125,46,128.5
1748,D4,431.75,0.125,46,128.5
1749,D4,432.0,0.125,53,128.5
1750,D5,432.25,0.125,42,128.5
1751,D4,432.25,0.125,42,128.5
1752,B-3,432.5,0.125,49,128.5
1753,D5,432.75,0.125,40,128.5
1754,D4,432.75,0.125,40,128.5
1755,G3,433.0,0.25,68,128.5
1756,D5,433.25,0.125,39,128.5
1757,D4,433.25,0.125,39,128.5
1758,D4,433.5,0.125,51,128.5
1759,D5,433.75,0.125,44,128.5
1760,D4,433.75,0.125,44,128.5
1761,E-4,434.0,0.125,55,128.5
1762,D5,434.25,0.125,48,128.5
1763,D4,434.25,0.125,48,128.5
1764,C4,434.5,0.125,49,128.5
1765,D5,434.75,0.125,46,128.5
1766,D4,434.75,0.125,46,128.5
1767,D4,435.0,0.125,57,128.5
1768,D5,435.25,0.125,50,128.5
1769,D4,435.25,0.125,50,128.5
1770,B-3,435.5,0.125,52,128.5
1771,D5,435.75,0.125,46,128.5
1772,D4,435.75,0.125,46,128.5
1773,C4,436.0,0.125,62,128.5
1774,D5,436.25,0.125,52,128.5
1775,D4,436.25,0.125,52,128.5
1776,A3,436.5,0.125,53,128.5
1777,D5,436.75,0.125,44,128.5
1778,D4,436.75,0.125,44,128.5
1779,B-3,437.0,0.125,58,128.5
1780,D5,437.25,0.125,48,128.5
1781,D4,437.25,0.125,48,128.5
1782,C4,437.5,0.125,53,128.5
1783,D5,437.75,0.125,42,128.5
1784,D4,437.75,0.125,42,128.5
1785,A3,438.0,0.125,56,128.5
1786,D5,438.25,0.125,47,128.5
1787,D4,438.25,0.125,47,128.5
1788,B-3,438.5,0.125,52,128.5
1789,D5,438.75,0.125,46,128.5
1790,D4,438.75,0.125,46,128.5
1791,G3,439.0,0.25,64,128.5
1792,D5,439.25,0.125,39,128.5
1793,D4,439.25,0.125,39,128.5
1794,D4,439.5,0.125,51,128.5
1795,D5,439.75,0.125,44,128.5
1796,D4,439.75,0.125,44,128.5
1797,E-4,440.0,0.125,58,128.5
1798,D5,440.25,0.125,48,128.5
1799,D4,440.25,0.125,48,128.5
1800,C4,440.5,0.125,49,128.5
1801,D5,440.75,0.125,46,128.5
1802,D4,440.75,0.125,46,128.5
1803,D4,441.0,0.125,53,128.5
1804,D5,441.25,0.125,42,128.5
1805,D4,441.25,0.125,42,128.5
1806,B-3,441.5,0.125,49,128.5
1807,D5,441.75,0.125,40,128.5
1808,D4,441.75,0.125,40,128.5
1809,G3,442.0,0.25,68,128.5
1810,D5,442.25,0.125,39,128.5
1811,D4,442.25,0.125,39,128.5
1812,D4,442.5,0.125,51,128.5
1813,D5,442.75,0.125,44,128.5
1814,D4,442.75,0.125,44,128.5
1815,E-4,443.0,0.125,58,128.5
1816,D5,443.25,0.125,48,128.5
1817,D4,443.25,0.125,48,128.5
1818,C4,443.5,0.125,49,128.5
1819,D5,443.75,0.125,46,128.5
1820,D4,443.75,0.125,46,128.5
1821,D4,444.0,0.125,53,128.5
1822,D5,444.25,0.125,42,128.5
1823,D4,444.25,0.125,42,128.5
1824,B-3,444.5,0.125,49,128.5
1825,D5,444.75,0.125,40,128.5
1826,D4,444.75,0.125,40,128.5
1827,G3,445.0,0.25,68,128.5
1828,D5,445.25,0.125,39,128.5
1829,D4,445.25,0.125,39,128.5
1830,D4,445.5,0.125,51,128.5
1831,D5,445.75,0.125,44,128.5
1832,D4,445.75,0.125,44,128.5
1833,E-4,446.0,0.125,55,128.5
1834,D5,446.25,0.125,48,128.5
1835,D4,446.25,0.125,48,128.5
1836,C4,446.5,0.125,49,128.5
1837,D5,446.75,0.125,46,128.5
1838,D4,446.75,0.125,46,128.5
1839,D4,447.0,0.125,57,128.5
1840,D5,447.25,0.125,50,128.5
1841,D4,447.25,0.125,50,128.5
1842,B-3,447.5,0.125,52,128.5
1843,D5,447.75,0.125,46,128.5
1844,D4,447.75,0.125,46,128.5
1845,C4,448.0,0.125,62,128.5
1846,D5,448.25,0.125,52,128.5
1847,D4,448.25,0.125,52,128.5
1848,A3,448.5,0.125,53,128.5
1849,D5,448.75,0.125,44,128.5
1850,D4,448.75,0.125,44,128.5
1851,B-3,449.0,0.125,62,128.5
1852,D5,449.25,0.125,55,128.5
1853,D4,449.25,0.125,55,128.5
1854,G3,449.5,0.125,58,128.5
1855,D5,449.75,0.125,48,128.5
1856,D4,449.75,0.125,48,128.5
1857,F3,450.0,0.125,64,128.5
1858,D5,450.25,0.125,58,128.5
1859,D4,450.25,0.125,58,128.5
1860,E-3,450.5,0.125,62,128.5
1861,D5,450.75,0.125,52,128.5
1862,D4,450.75,0.125,52,128.5
1863,D2,451.0,0.25,78,128.5
1864,D3,451.0,0.25,78,128.5
1865,D6,451.25,0.125,76,128.5
1866,A5,451.25,0.125,76,128.5
1867,F#5,451.25,0.125,76,128.5
1868,D5,451.25,0.125,76,128.5
1869,D4,451.5,0.125,56,128.5
1870,D5,451.75,0.125,48,128.5
1871,D4,451.75,0.125,48,128.5
1872,E-4,452.0,0.125,63,128.5
1873,D5,452.25,0.125,52,128.5
1874,D4,452.25,0.125,52,128.5
1875,C4,452.5,0.125,54,128.5
1876,D5,452.75,0.125,50,128.5
1877,D4,452.75,0.125,50,128.5
1878,D4,453.0,0.125,58,128.5
1879,D5,453.25,0.125,46,128.5
1880,D4,453.25,0.125,46,128.5
1881,A3,453.5,0.125,54,128.5
1882,D5,453.75,0.125,44,128.5
1883,D4,453.75,0.125,44,128.5
1884,D2,454.0,0.25,81,128.5
1885,D3,454.0,0.25,81,128.5
1886,D6,454.25,0.125,78,128.5
1887,A5,454.25,0.125,78,128.5
1888,F#5,454.25,0.125,78,128.5
1889,D5,454.25,0.125,78,128.5
1890,D4,454.5,0.125,56,128.5
1891,D5,454.75,0.125,48,128.5
1892,D4,454.75,0.125,48,128.5
1893,E-4,455.0,0.125,63,128.5
1894,D5,455.25,0.125,52,128.5
1895,D4,455.25,0.125,52,128.5
1896,C4,455.5,0.125,54,128.5
1897,D5,455.75,0.125,50,128.5
1898,D4,455.75,0.125,50,128.5
1899,D4,456.0,0.125,58,128.5
1900,D5,456.25,0.125,46,128.5
1901,D4,456.25,0.125,46,128.5
1902,A3,456.5,0.125,54,128.5
1903,D5,456.75,0.125,44,128.5
1904,D4,456.75,0.125,44,128.5
1905,D2,457.0,0.25,81,128.5
1906,D3,457.0,0.25,81,128.5
1907,D6,457.25,0.125,76,128.5
1908,A5,457.25,0.125,76,128.5
1909,F#5,457.25,0.125,76,128.5
1910,D5,457.25,0.125,76,128.5
1911,A3,457.5,0.125,56,128.5
1912,D5,457.75,0.125,48,128.5
1913,D4,457.75,0.125,48,128.5
1914,C4,458.0,0.125,62,128.5
1915,D5,458.25,0.125,52,128.5
1916,D4,458.25,0.125,52,128.5
1917,D4,458.5,0.125,61,128.5
1918,D5,458.75,0.125,50,128.5
1919,D4,458.75,0.125,50,128.5
1920,E-4,459.0,0.125,67,128.5
1921,D5,459.25,0.125,60,128.5
1922,D4,459.25,0.125,60,128.5
1923,F4,459.5,0.125,63,128.5
1924,D5,459.75,0.125,56,128.5
1925,D4,459.75,0.125,56,128.5
1926,D4,460.0,0.125,70,128.5
1927,D5,460.25,0.125,62,128.5
1928,D4,460.25,0.125,62,128.5
1929,E-4,460.5,0.125,62,128.5
1930,D5,460.75,0.125,58,128.5
1931,D4,460.75,0.125,58,128.5
1932,C4,461.0,0.125,64,128.5
1933,D5,461.25,0.125,60,128.5
1934,D4,461.25,0.125,60,128.5
1935,D4,461.5,0.125,58,128.5
1936,D5,461.75,0.125,56,128.5
1937,D4,461.75,0.125,56,128.5
1938,B-3,462.0,0.125,61,128.5
1939,D5,462.25,0.125,58,128.5
1940,D4,462.25,0.125,58,128.5
1941,A3,462.5,0.125,57,128.5
1942,D5,462.75,0.125,50,128.5
1943,D4,462.75,0.125,50,128.5
1944,D2,463.0,0.25,78,128.5
1945,D3,463.0,0.25,78,128.5
1946,D6,463.25,0.125,76,128.5
1947,A5,463.25,0.125,76,128.5
1948,F#5,463.25,0.125,76,128.5
1949,D5,463.25,0.125,76,128.5
1950,D4,463.5,0.125,56,128.5
1951,D5,463.75,0.125,48,128.5
1952,D4,463.75,0.125,48,128.5
1953,E-4,464.0,0.125,63,128.5
1954,D5,464.25,0.125,52,128.5
1955,D4,464.25,0.125,52,128.5
1956,C4,464.5,0.125,54,128.5
1957,D5,464.75,0.125,50,128.5
1958,D4,464.75,0.125,50,128.5
1959,D4,465.0,0.125,58,128.5
1960,D5,465.25,0.125,46,128.5
1961,D4,465.25,0.125,46,128.5
1962,A3,465.5,0.125,54,128.5
1963,D5,465.75,0.125,44,128.5
1964,D4,465.75,0.125,44,128.5
1965,D2,466.0,0.25,81,128.5
1966,D3,466.0,0.25,81,128.5
1967,D6,466.25,0.125,78,128.5
1968,A5,466.25,0.125,78,128.5
1969,F#5,466.25,0.125,78,128.5
1970,D5,466.25,0.125,78,128.5
1971,D4,466.5,0.125,56,128.5
1972,D5,466.75,0.125,48,128.5
1973,D4,466.75,0.125,48,128.5
1974,E-4,467.0,0.125,63,128.5
1975,D5,467.25,0.125,52,128.5
1976,D4,467.25,0.125,52,128.5
1977,C4,467.5,0.125,54,128.5
1978,D5,467.75,0.125,50,128.5
1979,D4,467.75,0.125,50,128.5
1980,D4,468.0,0.125,58,128.5
1981,D5,468.25,0.125,46,128.5
1982,D4,468.25,0.125,46,128.5
1983,A3,468.5,0.125,54,128.5
1984,D5,468.75,0.125,44,128.5
1985,D4,468.75,0.125,44,128.5
1986,D2,469.0,0.25,81,128.5
1987,D3,469.0,0.25,81,128.5
1988,D6,469.25,0.125,76,128.5
1989,A5,469.25,0.125,76,128.5
1990,F#5,469.25,0.125,76,128.5
1991,D5,469.25,0.125,76,128.5
1992,A3,469.5,0.125,56,128.5
1993,D5,469.75,0.125,48,128.5
1994,D4,469.75,0.125,48,128.5
1995,C4,470.0,0.125,62,128.5
1996,D5,470.25,0.125,52,128.5
1997,D4,470.25,0.125,52,128.5
1998,D4,470.5,0.125,61,128.5
1999,D5,470.75,0.125,50,128.5
2000,D4,470.75,0.125,50,128.5
2001,E-4,471.0,0.125,67,128.5
2002,D5,471.25,0.125,60,128.5
2003,D4,471.25,0.125,60,128.5
2004,F4,471.5,0.125,63,128.5
2005,D5,471.75,0.125,56,128.5
2006,D4,471.75,0.125,56,128.5
2007,D4,472.0,0.125,70,128.5
2008,D5,472.25,0.125,63,128.5
2009,D4,472.25,0.125,63,128.5
2010,E-4,472.5,0.125,62,128.5
2011,D5,472.75,0.125,58,128.5
2012,D4,472.75,0.125,58,128.5
2013,C4,473.0,0.125,74,128.5
2014,D5,473.25,0.125,64,128.5
2015,D4,473.25,0.125,64,128.5
2016,D4,473.5,0.125,69,128.5
2017,D5,473.75,0.125,60,128.5
2018,D4,473.75,0.125,60,128.5
2019,B-3,474.0,0.125,75,128.5
2020,D5,474.25,0.125,68,128.5
2021,D4,474.25,0.125,68,128.5
2022,D4,474.5,0.125,70,128.5
2023,D5,474.75,0.125,68,128.5
2024,D4,474.75,0.125,68,128.5
2025,G1,475.0,0.25,88,128.5
2026,G2,475.0,0.25,88,128.5
2027,G6,475.25,0.125,80,128.5
2028,D6,475.25,0.125,80,128.5
2029,B-5,475.25,0.125,80,128.5
2030,G5,475.25,0.125,80,128.5
2031,D4,475.5,0.125,70,128.5
2032,D5,475.75,0.125,60,128.5
2033,D4,475.75,0.125,60,128.5
2034,E-4,476.0,0.125,78,128.5
2035,D5,476.25,0.125,66,128.5
2036,D4,476.25,0.125,66,128.5
2037,C4,476.5,0.125,67,128.5
2038,D5,476.75,0.125,62,128.5
2039,D4,476.75,0.125,62,128.5
2040,D4,477.0,0.125,72,128.5
2041,D5,477.25,0.125,58,128.5
2042,D4,477.25,0.125,58,128.5
2043,B-3,477.5,0.125,67,128.5
2044,D5,477.75,0.125,54,128.5
2045,D4,477.75,0.125,54,128.5
2046,G1,478.0,0.25,86,128.5
2047,G2,478.0,0.25,86,128.5
2048,G6,478.25,0.125,82,128.5
2049,D6,478.25,0.125,82,128.5
2050,B-5,478.25,0.125,82,128.5
2051,G5,478.25,0.125,82,128.5
2052,D4,478.5,0.125,70,128.5
2053,D5,478.75,0.125,60,128.5
2054,D4,478.75,0.125,60,128.5
2055,E-4,479.0,0.125,78,128.5
2056,D5,479.25,0.125,66,128.5
2057,D4,479.25,0.125,66,128.5
2058,C4,479.5,0.125,67,128.5
2059,D5,479.75,0.125,62,128.5
2060,D4,479.75,0.125,62,128.5
2061,D4,480.0,0.125,72,128.5
2062,D5,480.25,0.125,58,128.5
2063,D4,480.25,0.125,58,128.5
2064,B-3,480.5,0.125,67,128.5
2065,D5,480.75,0.125,54,128.5
2066,D4,480.75,0.125,54,128.5
2067,G1,481.0,0.25,86,128.5
2068,G2,481.0,0.25,86,128.5
2069,G6,481.25,0.125,80,128.5
2070,D6,481.25,0.125,80,128.5
2071,B-5,481.25,0.125,80,128.5
2072,G5,481.25,0.125,80,128.5
2073,D4,481.5,0.125,67,128.5
2074,D5,481.75,0.125,58,128.5
2075,D4,481.75,0.125,58,128.5
2076,E-4,482.0,0.125,74,128.5
2077,D5,482.25,0.125,60,128.5
2078,D4,482.25,0.125,60,128.5
2079,C4,482.5,0.125,73,128.5
2080,D5,482.75,0.125,60,128.5
2081,D4,482.75,0.125,60,128.5
2082,D4,483.0,0.125,80,128.5
2083,D5,483.25,0.125,64,128.5
2084,D4,483.25,0.125,64,128.5
2085,B-3,483.5,0.125,75,128.5
2086,D5,483.75,0.125,66,128.5
2087,D4,483.75,0.125,66,128.5
2088,C4,484.0,0.125,84,128.5
2089,D5,484.25,0.125,70,128.5
2090,D4,484.25,0.125,70,128.5
2091,A3,484.5,0.125,74,128.5
2092,D5,484.75,0.125,62,128.5
2093,D4,484.75,0.125,62,128.5
2094,B-3,485.0,0.125,76,128.5
2095,D5,485.25,0.125,69,128.5
2096,D4,485.25,0.125,69,128.5
2097,C4,485.5,0.125,69,128.5
2098,D5,485.75,0.125,60,128.5
2099,D4,485.75,0.125,60,128.5
2100,A3,486.0,0.125,73,128.5
2101,D5,486.25,0.125,62,128.5
2102,D4,486.25,0.125,62,128.5
2103,B-3,486.5,0.125,68,128.5
2104,D5,486.75,0.125,60,128.5
2105,D4,486.75,0.125,60,128.5
2106,C#2,487.0,0.25,88,128.5
2107,C#3,487.0,0.25,88,128.5
2108,G6,487.25,0.125,86,128.5
2109,E-6,487.25,0.125,86,128.5
2110,B-5,487.25,0.125,86,128.5
2111,G5,487.25,0.125,86,128.5
2112,E-4,487.5,0.125,70,128.5
2113,E-5,487.75,0.125,60,128.5
2114,E-4,487.75,0.125,60,128.5
2115,F4,488.0,0.125,76,128.5
2116,E-5,488.25,0.125,66,128.5
2117,E-4,488.25,0.125,66,128.5
2118,D4,488.5,0.125,67,128.5
2119,E-5,488.75,0.125,62,128.5
2120,E-4,488.75,0.125,62,128.5
2121,E-4,489.0,0.125,72,128.5
2122,E-5,489.25,0.125,58,128.5
2123,E-4,489.25,0.125,58,128.5
2124,B-3,489.5,0.125,67,128.5
2125,E-5,489.75,0.125,54,128.5
2126,E-4,489.75,0.125,54,128.5
2127,C#2,490.0,0.25,86,128.5
2128,C#3,490.0,0.25,86,128.5
2129,G6,490.25,0.125,86,128.5
2130,E-6,490.25,0.125,86,128.5
2131,B-5,490.25,0.125,86,128.5
2132,G5,490.25,0.125,86,128.5
2133,E-4,490.5,0.125,70,128.5
2134,E-5,490.75,0.125,60,128.5
2135,E-4,490.75,0.125,60,128.5
2136,F4,491.0,0.125,77,128.5
2137,E-5,491.25,0.125,66,128.5
2138,E-4,491.25,0.125,66,128.5
2139,D4,491.5,0.125,67,128.5
2140,E-5,491.75,0.125,62,128.5
2141,E-4,491.75,0.125,62,128.5
2142,E-4,492.0,0.125,72,128.5
2143,E-5,492.25,0.125,58,128.5
2144,E-4,492.25,0.125,58,128.5
2145,B-3,492.5,0.125,67,128.5
2146,E-5,492.75,0.125,54,128.5
2147,E-4,492.75,0.125,54,128.5
2148,C#2,493.0,0.25,88,128.5
2149,C#3,493.0,0.25,88,128.5
2150,G6,493.25,0.125,86,128.5
2151,E-6,493.25,0.125,86,128.5
2152,B-5,493.25,0.125,86,128.5
2153,G5,493.25,0.125,86,128.5
2154,E-4,493.5,0.125,67,128.5
2155,E-5,493.75,0.125,58,128.5
2156,E-4,493.75,0.125,58,128.5
2157,F4,494.0,0.125,75,128.5
2158,E-5,494.25,0.125,63,128.5
2159,E-4,494.25,0.125,63,128.5
2160,D4,494.5,0.125,64,128.5
2161,E-5,494.75,0.125,60,128.5
2162,E-4,494.75,0.125,60,128.5
2163,E-4,495.0,0.125,69,128.5
2164,E-5,495.25,0.125,55,128.5
2165,E-4,495.25,0.125,55,128.5
2166,B-3,495.5,0.125,64,128.5
2167,E-5,495.75,0.125,52,128.5
2168,E-4,495.75,0.125,52,128.5
2169,C4,496.0,0.125,84,128.5
2170,E-5,496.25,0.125,62,128.5
2171,E-4,496.25,0.125,62,128.5
2172,A3,496.5,0.125,70,128.5
2173,E-5,496.75,0.125,62,128.5
2174,E-4,496.75,0.125,62,128.5
2175,B-3,497.0,0.125,72,128.5
2176,E-5,497.25,0.125,63,128.5
2177,E-4,497.25,0.125,63,128.5
2178,C4,497.5,0.125,69,128.5
2179,E-5,497.75,0.125,60,128.5
2180,E-4,497.75,0.125,60,128.5
2181,G3,498.0,0.125,73,128.5
2182,E-5,498.25,0.125,64,128.5
2183,E-4,498.25,0.125,64,128.5
2184,A3,498.5,0.125,68,128.5
2185,E-5,498.75,0.125,60,128.5
2186,E-4,498.75,0.125,60,128.5
2187,D2,499.0,0.25,85,128.5
2188,D3,499.0,0.25,85,128.5
2189,D7,499.25,0.125,90,128.5
2190,A6,499.25,0.125,90,128.5
2191,F#6,499.25,0.125,90,128.5
2192,D6,499.25,0.125,90,128.5
2193,D4,499.5,0.125,73,128.5
2194,D5,499.75,0.125,63,128.5
2195,D4,499.75,0.125,63,128.5
2196,E-4,500.0,0.125,82,128.5
2197,D5,500.25,0.125,66,128.5
2198,D4,500.25,0.125,66,128.5
2199,C#4,500.5,0.125,70,128.5
2200,D5,500.75,0.125,65,128.5
2201,D4,500.75,0.125,65,128.5
2202,D4,501.0,0.125,75,128.5
2203,D5,501.25,0.125,60,128.5
2204,D4,501.25,0.125,60,128.5
2205,A3,501.5,0.125,70,128.5
2206,D5,501.75,0.125,56,128.5
2207,D4,501.75,0.125,56,128.5
2208,C#2,502.0,0.25,86,128.5
2209,C#3,502.0,0.25,86,128.5
2210,E-7,502.25,0.125,90,128.5
2211,B-6,502.25,0.125,90,128.5
2212,G6,502.25,0.125,90,128.5
2213,E-6,502.25,0.125,90,128.5
2214,E-4,502.5,0.125,73,128.5
2215,E-5,502.75,0.125,63,128.5
2216,E-4,502.75,0.125,63,128.5
2217,F4,503.0,0.125,78,128.5
2218,E-5,503.25,0.125,69,128.5
2219,E-4,503.25,0.125,69,128.5
2220,D4,503.5,0.125,70,128.5
2221,E-5,503.75,0.125,65,128.5
2222,E-4,503.75,0.125,65,128.5
2223,E-4,504.0,0.125,75,128.5
2224,E-5,504.25,0.125,60,128.5
2225,E-4,504.25,0.125,60,128.5
2226,B-3,504.5,0.125,70,128.5
2227,E-5,504.75,0.125,56,128.5
2228,E-4,504.75,0.125,56,128.5
2229,D2,505.0,0.25,82,128.5
2230,D3,505.0,0.25,82,128.5
2231,D7,505.25,0.125,91,128.5
2232,A6,505.25,0.125,91,128.5
2233,F#6,505.25,0.125,91,128.5
2234,D6,505.25,0.125,91,128.5
2235,D4,505.5,0.125,73,128.5
2236,D5,505.75,0.125,63,128.5
2237,D4,505.75,0.125,63,128.5
2238,E-4,506.0,0.125,78,128.5
2239,D5,506.25,0.125,66,128.5
2240,D4,506.25,0.125,66,128.5
2241,C#4,506.5,0.125,70,128.5
2242,D5,506.75,0.125,65,128.5
2243,D4,506.75,0.125,65,128.5
2244,D4,507.0,0.125,75,128.5
2245,D5,507.25,0.125,60,128.5
2246,D4,507.25,0.125,60,128.5
2247,A3,507.5,0.125,70,128.5
2248,D5,507.75,0.125,56,128.5
2249,D4,507.75,0.125,56,128.5
2250,C#2,508.0,0.25,86,128.5
2251,C#3,508.0,0.25,86,128.5
2252,E-7,508.25,0.125,90,128.5
2253,B-6,508.25,0.125,90,128.5
2254,G6,508.25,0.125,90,128.5
2255,E-6,508.25,0.125,90,128.5
2256,E-4,508.5,0.125,73,128.5
2257,E-5,508.75,0.125,63,128.5
2258,E-4,508.75,0.125,63,128.5
2259,F4,509.0,0.125,79,128.5
2260,E-5,509.25,0.125,66,128.5
2261,E-4,509.25,0.125,66,128.5
2262,D4,509.5,0.125,70,128.5
2263,E-5,509.75,0.125,65,128.5
2264,E-4,509.75,0.125,65,128.5
2265,E-4,510.0,0.125,75,128.5
2266,E-5,510.25,0.125,60,128.5
2267,E-4,510.25,0.125,60,128.5
2268,B-3,510.5,0.125,70,128.5
2269,E-5,510.75,0.125,56,128.5
2270,E-4,510.75,0.125,56,128.5
2271,D2,511.0,0.25,82,128.5
2272,D3,511.0,0.25,82,128.5
2273,D7,511.25,0.125,90,128.5
2274,A6,511.25,0.125,90,128.5
2275,F#6,511.25,0.125,90,128.5
2276,D6,511.25,0.125,90,128.5
2277,D4,511.5,0.125,73,128.5
2278,D5,511.75,0.125,63,128.5
2279,D4,511.75,0.125,63,128.5
2280,E-4,512.0,0.125,78,128.5
2281,D5,512.25,0.125,66,128.5
2282,D4,512.25,0.125,66,128.5
2283,C4,512.5,0.125,70,128.5
2284,D5,512.75,0.125,65,128.5
2285,D4,512.75,0.125,65,128.5
2286,D4,513.0,0.125,75,128.5
2287,D5,513.25,0.125,60,128.5
2288,D4,513.25,0.125,60,128.5
2289,B-3,513.5,0.125,70,128.5
2290,D5,513.75,0.125,56,128.5
2291,D4,513.75,0.125,56,128.5
2292,C4,514.0,0.25,76,128.5
2293,D5,514.25,0.125,60,128.5
2294,D4,514.25,0.125,60,128.5
2295,A3,514.5,0.125,67,128.5
2296,D5,514.75,0.125,58,128.5
2297,D4,514.75,0.125,58,128.5
2298,B-3,515.0,0.125,70,128.5
2299,D5,515.25,0.125,58,128.5
2300,D4,515.25,0.125,58,128.5
2301,C4,515.5,0.125,64,128.5
2302,D5,515.75,0.125,56,128.5
2303,D4,515.75,0.125,56,128.5
2304,A3,516.0,0.125,69,128.5
2305,D5,516.25,0.125,58,128.5
2306,D4,516.25,0.125,58,128.5
2307,B-3,516.5,0.125,64,128.5
2308,D5,516.75,0.125,52,128.5
2309,D4,516.75,0.125,52,128.5
2310,G3,517.0,0.25,76,128.5
2311,D5,517.25,0.125,60,128.5
2312,D4,517.25,0.125,60,128.5
2313,A3,517.5,0.125,67,128.5
2314,D5,517.75,0.125,56,128.5
2315,D4,517.75,0.125,56,128.5
2316,B-3,518.0,0.125,69,128.5
2317,D5,518.25,0.125,56,128.5
2318,D4,518.25,0.125,56,128.5
2319,C4,518.5,0.125,62,128.5
2320,D5,518.75,0.125,55,128.5
2321,D4,518.75,0.125,55,128.5
2322,A3,519.0,0.125,66,128.5
2323,D5,519.25,0.125,55,128.5
2324,D4,519.25,0.125,55,128.5
2325,B-3,519.5,0.125,61,128.5
2326,D5,519.75,0.125,49,128.5
2327,D4,519.75,0.125,49,128.5
2328,G3,520.0,0.25,72,128.5
2329,D4,520.25,0.125,56,128.5
2330,D5,520.25,0.125,56,128.5
2331,A3,520.5,0.125,62,128.5
2332,D5,520.75,0.125,52,128.5
2333,D4,520.75,0.125,52,128.5
2334,B-3,521.0,0.125,64,128.5
2335,D5,521.25,0.125,52,128.5
2336,D4,521.25,0.125,52,128.5
2337,G3,521.5,0.125,57,128.5
2338,D5,521.75,0.125,49,128.5
2339,D4,521.75,0.125,49,128.5
2340,F3,522.0,0.125,60,128.5
2341,D5,522.25,0.125,50,128.5
2342,D4,522.25,0.125,50,128.5
2343,E-3,522.5,0.125,55,128.5
2344,D5,522.75,0.125,44,128.5
2345,D4,522.75,0.125,44,128.5
2346,D2,523.0,0.25,68,128.5
2347,D3,523.0,0.25,68,128.5
2348,D5,523.25,0.125,66,128.5
2349,D4,523.25,0.125,66,128.5
2350,D4,523.5,0.125,56,128.5
2351,D4,523.75,0.125,42,128.5
2352,E-4,524.0,0.125,61,128.5
2353,D4,524.25,0.125,46,128.5
2354,C4,524.5,0.125,54,128.5
2355,D4,524.75,0.125,44,128.5
2356,D4,525.0,0.125,58,128.5
2357,D4,525.25,0.125,40,128.5
2358,B-3,525.5,0.125,54,128.5
2359,D4,525.75,0.125,38,128.5
2360,C4,526.0,0.25,64,128.5
2361,D4,526.25,0.125,45,128.5
2362,A3,526.5,0.125,56,128.5
2363,D4,526.75,0.125,42,128.5
2364,B-3,527.0,0.125,59,128.5
2365,D4,527.25,0.125,43,128.5
2366,C4,527.5,0.125,54,128.5
2367,D4,527.75,0.125,41,128.5
2368,A3,528.0,0.125,58,128.5
2369,D4,528.25,0.125,42,128.5
2370,B-3,528.5,0.125,54,128.5
2371,D4,528.75,0.125,38,128.5
2372,G3,529.0,0.25,64,128.5
2373,D4,529.25,0.125,45,128.5
2374,A3,529.5,0.125,56,128.5
2375,D4,529.75,0.125,41,128.5
2376,B-3,530.0,0.125,58,128.5
2377,D4,530.25,0.125,41,128.5
2378,C4,530.5,0.125,52,128.5
2379,D4,530.75,0.125,40,128.5
2380,A3,531.0,0.125,56,128.5
2381,D4,531.25,0.125,40,128.5
2382,B-3,531.5,0.125,51,128.5
2383,D4,531.75,0.125,36,128.5
2384,G3,532.0,0.25,61,128.5
2385,D4,532.25,0.125,41,128.5
2386,A3,532.5,0.125,52,128.5
2387,D4,532.75,0.125,39,128.5
2388,B-3,533.0,0.125,54,128.5
2389,D4,533.25,0.125,39,128.5
2390,G3,533.5,0.125,48,128.5
2391,D4,533.75,0.125,36,128.5
2392,F3,534.0,0.125,51,128.5
2393,D4,534.25,0.125,37,128.5
2394,E-3,534.5,0.125,46,128.5
2395,D4,534.75,0.125,32,128.5
2396,D2,535.0,3.0,45,128.5
2397,F#3,535.25,0.125,36,128.5
2398,A3,535.25,0.125,36,128.5
2399,A2,535.5,0.125,45,128.5
2400,F#3,535.75,0.125,31,128.5
2401,A3,535.75,0.125,31,128.5
2402,D3,536.0,0.125,42,128.5
2403,F#3,536.25,0.125,34,128.5
2404,A3,536.25,0.125,34,128.5
2405,E-3,536.5,0.125,49,128.5
2406,F#3,536.75,0.125,33,128.5
2407,A3,536.75,0.125,33,128.5
2408,C#3,537.0,0.125,54,128.5
2409,F#3,537.25,0.125,35,128.5
2410,A3,537.25,0.125,35,128.5
2411,D3,537.5,0.125,51,128.5
2412,F#3,537.75,0.125,34,128.5
2413,A3,537.75,0.125,34,128.5
2414,D2,538.0,3.0,56,128.5
2415,G3,538.25,0.125,36,128.5
2416,B-3,538.25,0.125,36,128.5
2417,A2,538.5,0.125,49,128.5
2418,G3,538.75,0.125,31,128.5
2419,B-3,538.75,0.125,31,128.5
2420,G3,539.0,0.125,56,128.5
2421,G3,539.25,0.125,34,128.5
2422,B-3,539.25,0.125,34,128.5
2423,F3,539.5,0.125,46,128.5
2424,G3,539.75,0.125,29,128.5
2425,B-3,539.75,0.125,29,128.5
2426,D3,540.0,0.125,49,128.5
2427,G3,540.25,0.125,34,128.5
2428,B-3,540.25,0.125,34,128.5
2429,E-3,540.5,0.125,46,128.5
2430,G3,540.75,0.125,31,128.5
2431,B-3,540.75,0.125,31,128.5
2432,D2,541.0,3.0,45,128.5
2433,F#3,541.25,0.125,36,128.5
2434,A3,541.25,0.125,36,128.5
2435,A2,541.5,0.125,45,128.5
2436,F#3,541.75,0.125,31,128.5
2437,A3,541.75,0.125,31,128.5
2438,D3,542.0,0.125,42,128.5
2439,F#3,542.25,0.125,34,128.5
2440,A3,542.25,0.125,34,128.5
2441,E-3,542.5,0.125,47,128.5
2442,F#3,542.75,0.125,33,128.5
2443,A3,542.75,0.125,33,128.5
2444,C#3,543.0,0.125,52,128.5
2445,F#3,543.25,0.125,35,128.5
2446,A3,543.25,0.125,35,128.5
2447,D3,543.5,0.125,49,128.5
2448,F#3,543.75,0.125,34,128.5
2449,A3,543.75,0.125,34,128.5
2450,D2,544.0,3.0,54,128.5
2451,G3,544.25,0.125,36,128.5
2452,B-3,544.25,0.125,36,128.5
2453,A2,544.5,0.125,46,128.5
2454,G3,544.75,0.125,31,128.5
2455,B-3,544.75,0.125,31,128.5
2456,E-3,545.0,0.125,48,128.5
2457,G3,545.25,0.125,34,128.5
2458,B-3,545.25,0.125,34,128.5
2459,F3,545.5,0.125,45,128.5
2460,G3,545.75,0.125,29,128.5
2461,B-3,545.75,0.125,29,128.5
2462,D3,546.0,0.125,47,128.5
2463,G3,546.25,0.125,34,128.5
2464,B-3,546.25,0.125,34,128.5
2465,E-3,546.5,0.125,44,128.5
2466,G3,546.75,0.125,31,128.5
2467,B-3,546.75,0.125,31,128.5
2468,D2,547.0,3.0,45,128.5
2469,F#3,547.25,0.125,36,128.5
2470,A3,547.25,0.125,36,128.5
2471,A2,547.5,0.125,45,128.5
2472,F#3,547.75,0.125,31,128.5
2473,A3,547.75,0.125,31,128.5
2474,D3,548.0,0.125,42,128.5
2475,F#3,548.25,0.125,34,128.5
2476,A3,548.25,0.125,34,128.5
2477,E-3,548.5,0.125,47,128.5
2478,F#3,548.75,0.125,33,128.5
2479,A3,548.75,0.125,33,128.5
2480,C#3,549.0,0.125,51,128.5
2481,F#3,549.25,0.125,35,128.5
2482,A3,549.25,0.125,35,128.5
2483,E-3,549.5,0.125,48,128.5
2484,F#3,549.75,0.125,34,128.5
2485,A3,549.75,0.125,34,128.5
2486,D3,550.0,0.125,53,128.5
2487,D2,550.0,3.0,45,128.5
2488,F#3,550.25,0.125,36,128.5
2489,A3,550.25,0.125,36,128.5
2490,E-3,550.5,0.125,46,128.5
2491,F#3,550.75,0.125,31,128.5
2492,A3,550.75,0.125,31,128.5
2493,C#3,551.0,0.125,48,128.5
2494,F#3,551.25,0.125,34,128.5
2495,A3,551.25,0.125,34,128.5
2496,E-3,551.5,0.125,45,128.5
2497,F#3,551.75,0.125,29,128.5
2498,A3,551.75,0.125,29,128.5
2499,D3,552.0,0.125,45,128.5
2500,F#3,552.25,0.125,34,128.5
2501,A3,552.25,0.125,34,128.5
2502,A2,552.5,0.125,44,128.5
2503,F#3,552.75,0.125,31,128.5
2504,A3,552.75,0.125,31,128.5
2505,D2,553.0,0.125,45,128.5
2506,F#3,553.25,0.125,43,128.5
2507,F#3,553.5,0.125,45,128.5
2508,A3,553.75,0.125,43,128.5
2509,A3,554.0,0.125,45,128.5
2510,D4,554.25,0.125,42,128.5
2511,D4,554.5,0.125,45,128.5
2512,F#4,554.75,0.125,42,128.5
2513,F#4,555.0,0.125,44,128.5
2514,A4,555.25,0.125,41,128.5
2515,A4,555.5,0.125,43,128.5
2516,D5,555.75,0.125,41,128.5
2517,D5,556.0,0.125,43,128.5
2518,F#5,556.25,0.125,40,128.5
2519,F#5,556.5,0.125,42,128.5
2520,A5,556.75,0.125,40,128.5
2521,A5,557.0,0.125,42,128.5
2522,D6,557.25,0.125,39,128.5
2523,D6,557.5,0.125,41,128.5
2524,F#6,557.75,0.125,39,128.5
2525,F#6,558.0,0.125,41,128.5
2526,A6,558.25,0.125,39,128.5
2527,A6,558.5,0.125,40,128.5
2528,D7,558.75,0.125,39,128.5
2529,D6,559.0,3.0,43,128.5
2530,F#6,559.0,3.0,43,128.5
2531,D7,559.0,3.0,43,128.5
2532,A5,559.0,3.0,34,128.5
2533,D5,559.0,3.0,34,128.5
2534,D6,563.0,1.0,43,128.5
2535,F#6,563.0,1.0,43,128.5
2536,D7,563.0,1.0,43,128.5
2537,A5,563.0,1.0,34,128.5
2538,D5,563.0,1.0,34,128.5
2539,D4,565.0,1.0,45,128.5
2540,G4,566.0,3.0,49,128.5
2541,E-3,566.0,3.0,39,128.5
2542,G3,566.0,2.0,44,128.5
2543,B-3,566.0,2.0,44,128.5
2544,C4,568.0,1.0,39,128.5
2545,D4,569.0,3.0,41,128.5
2546,B-3,569.0,3.0,41,128.5
2547,B-2,569.0,3.0,34,128.5
2548,F3,569.0,3.0,34,128.5
2549,G3,572.0,2.0,44,128.5
2550,E-4,572.0,3.0,52,128.5
2551,C3,572.0,3.0,39,128.5
2552,A3,574.0,1.0,43,128.5
2553,B-3,575.0,3.0,42,128.5
2554,G3,575.0,3.0,42,128.5
2555,G2,575.0,3.0,34,128.5
2556,D3,575.0,3.0,34,128.5
2557,E-4,578.0,2.0,44,128.5
2558,G#4,578.0,3.0,49,128.5
2559,C4,578.0,2.0,39,128.5
2560,E4,580.0,1.0,46,128.5
2561,C#4,580.0,1.0,36,128.5
2562,E-4,581.0,3.0,44,128.5
2563,G#4,581.0,2.0,49,128.5
2564,C4,581.0,3.0,39,128.5
2565,G4,583.0,1.0,43,128.5
2566,E-4,584.0,3.0,49,128.5
2567,G4,584.0,3.0,49,128.5
2568,D3,584.0,3.0,32,128.5
2569,C4,584.0,3.0,39,128.5
2570,F#4,587.0,3.0,39,128.5
2571,E-4,587.0,1.0,49,128.5
2572,D3,587.0,3.0,32,128.5
2573,C4,587.0,1.0,39,128.5
2574,D4,588.0,1.0,35,128.5
2575,B-3,588.0,1.0,30,128.5
2576,C4,589.0,1.0,30,128.5
2577,A3,589.0,1.0,26,128.5
2578,G3,590.0,0.25,59,128.5
2579,D4,590.25,0.125,31,128.5
2580,D4,590.5,0.125,47,128.5
2581,D4,590.75,0.125,35,128.5
2582,E-4,591.0,0.125,53,128.5
2583,D4,591.25,0.125,39,128.5
2584,C4,591.5,0.125,45,128.5
2585,D4,591.75,0.125,37,128.5
2586,D4,592.0,0.125,49,128.5
2587,D4,592.25,0.125,34,128.5
2588,B-3,592.5,0.125,45,128.5
2589,D4,592.75,0.125,32,128.5
2590,G3,593.0,0.25,62,128.5
2591,D4,593.25,0.125,31,128.5
2592,D4,593.5,0.125,47,128.5
2593,D4,593.75,0.125,35,128.5
2594,E-4,594.0,0.125,53,128.5
2595,D4,594.25,0.125,39,128.5
2596,C4,594.5,0.125,45,128.5
2597,D4,594.75,0.125,37,128.5
2598,D4,595.0,0.125,49,128.5
2599,D4,595.25,0.125,34,128.5
2600,B-3,595.5,0.125,45,128.5
2601,D4,595.75,0.125,32,128.5
2602,G3,596.0,0.25,56,128.5
2603,G4,596.25,0.125,29,128.5
2604,D4,596.25,0.125,29,128.5
2605,B-4,596.5,0.125,44,128.5
2606,E-4,596.5,0.125,44,128.5
2607,G4,596.75,0.125,29,128.5
2608,D4,596.75,0.125,29,128.5
2609,B-4,597.0,0.125,49,128.5
2610,C#4,597.0,0.125,49,128.5
2611,G4,597.25,0.125,31,128.5
2612,D4,597.25,0.125,31,128.5
2613,B-4,597.5,0.125,46,128.5
2614,E-4,597.5,0.125,46,128.5
2615,G4,597.75,0.125,33,128.5
2616,D4,597.75,0.125,33,128.5
2617,B-4,598.0,0.125,58,128.5
2618,C#4,598.0,0.125,58,128.5
2619,G4,598.25,0.125,37,128.5
2620,D4,598.25,0.125,37,128.5
2621,B-4,598.5,0.125,56,128.5
2622,E-4,598.5,0.125,56,128.5
2623,G4,598.75,0.125,41,128.5
2624,D4,598.75,0.125,41,128.5
2625,B-4,599.0,0.25,68,128.5
2626,C#4,599.0,0.25,68,128.5
2627,G4,599.25,0.125,44,128.5
2628,D4,599.25,0.125,44,128.5
2629,B-4,599.5,0.125,62,128.5
2630,E-4,599.5,0.125,62,128.5
2631,G4,599.75,0.125,48,128.5
2632,D4,599.75,0.125,48,128.5
2633,B-4,600.0,0.125,69,128.5
2634,C#4,600.0,0.125,69,128.5
2635,G4,600.25,0.125,54,128.5
2636,D4,600.25,0.125,54,128.5
2637,B-4,600.5,0.125,66,128.5
2638,E-4,600.5,0.125,66,128.5
2639,G4,600.75,0.125,57,128.5
2640,D4,600.75,0.125,57,128.5
2641,B-4,601.0,0.125,74,128.5
2642,C#4,601.0,0.125,74,128.5
2643,G4,601.25,0.125,63,128.5
2644,D4,601.25,0.125,63,128.5
2645,B-4,601.5,0.125,70,128.5
2646,E-4,601.5,0.125,70,128.5
2647,G4,601.75,0.125,66,128.5
2648,D4,601.75,0.125,66,128.5
2649,G6,602.0,3.0,92,128.5
2650,D6,602.0,3.0,92,128.5
2651,G5,602.0,3.0,92,128.5
2652,G2,602.0,3.0,73,128.5
2653,D3,602.0,3.0,73,128.5
2654,B-3,602.0,3.0,73,128.5
2655,G3,605.0,3.0,94,128.5
2656,G1,605.0,3.0,78,128.5
