,note_name,start_time,duration,velocity,tempo
0,G4,0.0,0.5,50,112.0
1,B4,0.0,0.5,50,112.0
2,D4,0.0,0.5,50,112.0
3,G2,0.0,1.5,38,112.0
4,G3,0.0,1.5,38,112.0
5,B4,0.5,0.5,46,112.0
6,D4,0.5,0.25,48,112.0
7,G4,0.5,0.25,48,112.0
8,F#4,0.75,0.25,49,112.0
9,F4,1.0,0.5,51,112.0
10,B4,1.0,0.5,51,112.0
11,E4,1.5,0.25,49,112.0
12,B4,1.5,0.5,46,112.0
13,D2,1.5,0.5,32,112.0
14,D3,1.5,0.5,32,112.0
15,E-4,1.75,0.25,53,112.0
16,D4,2.0,0.5,53,112.0
17,F#4,2.0,0.5,53,112.0
18,C5,2.0,0.5,53,112.0
19,A2,2.0,0.5,36,112.0
20,A3,2.0,0.5,36,112.0
21,F#4,2.5,0.25,51,112.0
22,C5,2.5,0.5,48,112.0
23,D2,2.5,0.5,40,112.0
24,D3,2.5,0.5,40,112.0
25,D4,2.75,0.25,51,112.0
26,D4,3.0,0.5,55,112.0
27,G4,3.0,0.5,55,112.0
28,B4,3.0,0.5,55,112.0
29,G2,3.0,1.5,43,112.0
30,G3,3.0,1.5,43,112.0
31,B4,3.5,0.5,49,112.0
32,D4,3.5,0.25,51,112.0
33,G4,3.5,0.25,51,112.0
34,F#4,3.75,0.25,53,112.0
35,F4,4.0,0.5,55,112.0
36,B4,4.0,0.5,55,112.0
37,E4,4.5,0.25,49,112.0
38,B4,4.5,0.5,46,112.0
39,D2,4.5,0.5,42,112.0
40,D3,4.5,0.5,42,112.0
41,E-4,4.75,0.25,50,112.0
42,D4,5.0,0.5,53,112.0
43,F#4,5.0,0.5,53,112.0
44,C5,5.0,0.5,53,112.0
45,A2,5.0,0.5,38,112.0
46,A3,5.0,0.5,38,112.0
47,F#4,5.5,0.25,50,112.0
48,C5,5.5,0.5,47,112.0
49,D2,5.5,0.5,36,112.0
50,D3,5.5,0.5,36,112.0
51,D4,5.75,0.25,50,112.0
52,G4,6.0,2.0,52,112.0
53,B4,6.0,2.0,52,112.0
54,D5,6.0,2.0,52,112.0
55,G5,6.0,2.0,52,112.0
56,G2,6.0,2.0,38,112.0
57,G3,6.0,2.0,38,112.0
58,D3,6.5,0.25,44,112.0
59,E3,6.75,0.25,44,112.0
60,D3,7.0,0.25,47,112.0
61,D3,7.5,0.25,44,112.0
62,F#4,8.0,0.75,49,112.0
63,C5,8.0,0.75,49,112.0
64,F#5,8.0,0.75,49,112.0
65,G2,8.0,1.0,38,112.0
66,A3,8.0,1.0,38,112.0
67,D3,8.5,0.5,41,112.0
68,D5,8.75,0.25,57,112.0
69,E5,9.0,0.5,61,112.0
70,G4,9.0,2.0,51,112.0
71,B4,9.0,2.0,51,112.0
72,G2,9.0,2.0,41,112.0
73,B3,9.0,2.0,41,112.0
74,E5,9.5,167/1000,53,112.0
75,D3,9.5,0.25,44,112.0
76,F#5,9.667,167/1000,53,112.0
77,E3,9.75,0.25,44,112.0
78,E5,9.833,167/1000,53,112.0
79,D5,10.0,1.0,58,112.0
80,D3,10.0,0.25,47,112.0
81,D3,10.5,0.25,44,112.0
82,C4,11.0,0.75,38,112.0
83,C5,11.0,0.75,38,112.0
84,D4,11.0,0.75,38,112.0
85,F#4,11.0,0.75,38,112.0
86,A4,11.0,0.75,38,112.0
87,G2,11.0,1.0,38,112.0
88,A3,11.0,1.0,38,112.0
89,D3,11.5,0.5,36,112.0
90,A4,11.75,0.25,48,112.0
91,B4,12.0,0.25,57,112.0
92,D4,12.0,1.5,39,112.0
93,G4,12.0,1.5,39,112.0
94,G2,12.0,2.0,34,112.0
95,G3,12.0,2.0,34,112.0
96,C5,12.25,0.25,50,112.0
97,D5,12.5,0.5,53,112.0
98,D3,12.5,0.25,39,112.0
99,E3,12.75,0.25,39,112.0
100,D5,13.0,1.0,53,112.0
101,D3,13.0,0.25,41,112.0
102,B3,13.5,0.25,38,112.0
103,D3,13.5,0.25,39,112.0
104,D4,13.75,0.25,34,112.0
105,C4,14.0,0.25,38,112.0
106,G2,14.0,1.0,37,112.0
107,F#3,14.0,1.0,37,112.0
108,D4,14.25,0.25,34,112.0
109,C4,14.5,0.25,38,112.0
110,D3,14.5,0.5,37,112.0
111,D4,14.75,0.25,34,112.0
112,B3,15.0,0.5,42,112.0
113,G2,15.0,2.0,38,112.0
114,G3,15.0,2.0,38,112.0
115,B3,15.5,1.5,38,112.0
116,D4,15.5,0.25,38,112.0
117,D3,15.5,0.25,44,112.0
118,E4,15.75,0.25,35,112.0
119,E3,15.75,0.25,44,112.0
120,D4,16.0,0.25,40,112.0
121,D3,16.0,0.25,47,112.0
122,E4,16.25,0.25,36,112.0
123,G4,16.5,0.25,42,112.0
124,D3,16.5,0.25,44,112.0
125,E4,16.75,0.25,39,112.0
126,C4,17.0,1.0,40,112.0
127,F#4,17.0,0.5,46,112.0
128,G2,17.0,1.0,39,112.0
129,A3,17.0,1.0,39,112.0
130,E4,17.5,0.25,42,112.0
131,D3,17.5,0.5,41,112.0
132,D4,17.75,0.25,42,112.0
133,G4,18.0,2.0,56,112.0
134,B4,18.0,2.0,56,112.0
135,D5,18.0,2.0,56,112.0
136,G5,18.0,2.0,56,112.0
137,G2,18.0,2.0,42,112.0
138,G3,18.0,2.0,42,112.0
139,D3,18.5,0.25,48,112.0
140,E3,18.75,0.25,48,112.0
141,D3,19.0,0.25,50,112.0
142,D3,19.5,0.25,48,112.0
143,F#4,20.0,0.75,51,112.0
144,C5,20.0,0.75,51,112.0
145,F#5,20.0,0.75,51,112.0
146,G2,20.0,1.0,38,112.0
147,A3,20.0,1.0,38,112.0
148,D3,20.5,0.5,41,112.0
149,D5,20.75,0.25,59,112.0
150,E5,21.0,0.5,61,112.0
151,G4,21.0,2.0,51,112.0
152,B4,21.0,2.0,51,112.0
153,G2,21.0,2.0,41,112.0
154,B3,21.0,2.0,41,112.0
155,E5,21.5,167/1000,53,112.0
156,D3,21.5,0.25,44,112.0
157,F#5,21.667,167/1000,53,112.0
158,E3,21.75,0.25,44,112.0
159,E5,21.833,167/1000,53,112.0
160,D5,22.0,1.0,58,112.0
161,D3,22.0,0.25,47,112.0
162,D3,22.5,0.25,44,112.0
163,C4,23.0,0.75,38,112.0
164,C5,23.0,0.75,38,112.0
165,D4,23.0,0.75,38,112.0
166,F#4,23.0,0.75,38,112.0
167,A4,23.0,0.75,38,112.0
168,G2,23.0,1.0,38,112.0
169,A3,23.0,1.0,38,112.0
170,D3,23.5,0.5,36,112.0
171,A4,23.75,0.25,48,112.0
172,B4,24.0,0.25,57,112.0
173,D4,24.0,1.5,39,112.0
174,G4,24.0,1.5,39,112.0
175,G2,24.0,2.0,34,112.0
176,G3,24.0,2.0,34,112.0
177,C5,24.25,0.25,50,112.0
178,D5,24.5,0.5,53,112.0
179,D3,24.5,0.25,39,112.0
180,E3,24.75,0.25,39,112.0
181,D5,25.0,1.0,53,112.0
182,D3,25.0,0.25,41,112.0
183,B3,25.5,0.25,38,112.0
184,D3,25.5,0.25,39,112.0
185,D4,25.75,0.25,34,112.0
186,C4,26.0,0.25,38,112.0
187,G2,26.0,1.0,37,112.0
188,F#3,26.0,1.0,37,112.0
189,D4,26.25,0.25,34,112.0
190,C4,26.5,0.25,38,112.0
191,D3,26.5,0.5,37,112.0
192,D4,26.75,0.25,34,112.0
193,B3,27.0,0.5,42,112.0
194,G2,27.0,2.0,38,112.0
195,G3,27.0,2.0,38,112.0
196,B3,27.5,1.5,38,112.0
197,D4,27.5,0.25,38,112.0
198,D3,27.5,0.25,44,112.0
199,E4,27.75,0.25,35,112.0
200,E3,27.75,0.25,44,112.0
201,D4,28.0,0.25,40,112.0
202,D3,28.0,0.25,47,112.0
203,E4,28.25,0.25,36,112.0
204,G4,28.5,0.25,42,112.0
205,D3,28.5,0.25,44,112.0
206,E4,28.75,0.25,39,112.0
207,C4,29.0,1.0,38,112.0
208,F#4,29.0,0.5,46,112.0
209,G2,29.0,1.0,38,112.0
210,A3,29.0,1.0,38,112.0
211,E4,29.5,0.25,42,112.0
212,D3,29.5,0.5,41,112.0
213,D4,29.75,0.25,42,112.0
214,G4,30.0,2.0,59,112.0
215,D5,30.0,2.0,59,112.0
216,G5,30.0,2.0,59,112.0
217,G2,30.0,2.0,44,112.0
218,B-3,30.0,2.0,44,112.0
219,D3,30.5,0.25,49,112.0
220,E-3,30.75,0.25,49,112.0
221,D3,31.0,0.25,52,112.0
222,D3,31.5,0.25,49,112.0
223,F4,32.0,0.75,51,112.0
224,A4,32.0,0.75,51,112.0
225,F5,32.0,0.75,51,112.0
226,F2,32.0,1.0,40,112.0
227,E-4,32.0,1.0,40,112.0
228,F3,32.5,0.5,44,112.0
229,C5,32.75,0.25,60,112.0
230,D5,33.0,0.5,64,112.0
231,F4,33.0,2.0,53,112.0
232,B-4,33.0,2.0,53,112.0
233,B-2,33.0,2.0,44,112.0
234,D4,33.0,2.0,44,112.0
235,D5,33.5,0.25,59,112.0
236,F3,33.5,0.25,46,112.0
237,E-5,33.75,0.25,59,112.0
238,G3,33.75,0.25,46,112.0
239,F5,34.0,1.0,64,112.0
240,F3,34.0,0.25,49,112.0
241,F3,34.5,0.25,46,112.0
242,E-5,35.0,0.75,44,112.0
243,F4,35.0,0.75,44,112.0
244,A4,35.0,0.75,44,112.0
245,B-2,35.0,1.0,40,112.0
246,E-4,35.0,1.0,40,112.0
247,F3,35.5,0.5,37,112.0
248,C5,35.75,0.25,49,112.0
249,D5,36.0,0.25,64,112.0
250,B-4,36.0,2.0,40,112.0
251,F4,36.0,2.0,40,112.0
252,B-2,36.0,2.0,40,112.0
253,D4,36.0,2.0,40,112.0
254,E-5,36.25,0.25,57,112.0
255,D5,36.5,0.25,60,112.0
256,F3,36.5,0.25,46,112.0
257,E-5,36.75,0.25,55,112.0
258,G3,36.75,0.25,46,112.0
259,F5,37.0,0.25,62,112.0
260,F3,37.0,0.25,49,112.0
261,G5,37.25,0.25,56,112.0
262,A5,37.5,0.25,61,112.0
263,F3,37.5,0.25,46,112.0
264,G5,37.75,0.25,53,112.0
265,A4,38.0,1.0,39,112.0
266,F5,38.0,0.25,61,112.0
267,B-2,38.0,1.0,40,112.0
268,E-4,38.0,1.0,40,112.0
269,E-5,38.25,0.25,61,112.0
270,D5,38.5,0.25,67,112.0
271,F3,38.5,0.5,44,112.0
272,C5,38.75,0.25,61,112.0
273,D5,39.0,0.25,69,112.0
274,B-4,39.0,2.0,45,112.0
275,F4,39.0,2.0,45,112.0
276,B-2,39.0,2.0,40,112.0
277,D4,39.0,2.0,40,112.0
278,E-5,39.25,0.25,59,112.0
279,D5,39.5,0.25,64,112.0
280,F3,39.5,0.25,46,112.0
281,E-5,39.75,0.25,55,112.0
282,G3,39.75,0.25,46,112.0
283,F5,40.0,0.25,62,112.0
284,F3,40.0,0.25,49,112.0
285,G5,40.25,0.25,56,112.0
286,A5,40.5,0.25,61,112.0
287,F3,40.5,0.25,46,112.0
288,G5,40.75,0.25,53,112.0
289,A4,41.0,1.0,55,112.0
290,F5,41.0,0.25,59,112.0
291,B-2,41.0,1.0,40,112.0
292,E-4,41.0,1.0,40,112.0
293,E-5,41.25,0.25,59,112.0
294,D5,41.5,0.25,57,112.0
295,F3,41.5,0.5,38,112.0
296,C5,41.75,0.25,56,112.0
297,F4,42.0,2.0,54,112.0
298,B-4,42.0,2.0,54,112.0
299,D5,42.0,2.0,54,112.0
300,B-2,42.0,2.0,38,112.0
301,D4,42.0,2.0,38,112.0
302,F3,42.5,0.25,39,112.0
303,G3,42.75,0.25,39,112.0
304,F3,43.0,0.25,44,112.0
305,F3,43.5,0.25,39,112.0
306,A2,44.0,1.0,31,112.0
307,A3,44.0,0.5,39,112.0
308,C5,44.0,0.5,53,112.0
309,D5,44.0,0.5,53,112.0
310,D4,44.0,1.0,42,112.0
311,F#4,44.0,1.0,42,112.0
312,D5,44.5,0.25,51,112.0
313,D3,44.5,0.5,39,112.0
314,C5,44.75,0.25,51,112.0
315,B4,45.0,1.5,61,112.0
316,G2,45.0,2.0,35,112.0
317,G3,45.0,0.5,42,112.0
318,D4,45.0,2.0,48,112.0
319,G4,45.0,2.0,48,112.0
320,G3,45.5,0.25,39,112.0
321,G#3,45.75,0.25,39,112.0
322,G3,46.0,0.25,44,112.0
323,C5,46.5,0.25,51,112.0
324,G3,46.5,0.25,39,112.0
325,D5,46.75,0.25,51,112.0
326,E-5,47.0,0.5,56,112.0
327,C3,47.0,1.0,31,112.0
328,G3,47.0,0.5,39,112.0
329,G4,47.0,1.0,42,112.0
330,C5,47.0,1.0,42,112.0
331,F5,47.5,0.25,51,112.0
332,A3,47.5,0.5,39,112.0
333,E-5,47.75,0.25,51,112.0
334,G4,48.0,1.0,52,112.0
335,D5,48.0,0.5,67,112.0
336,D3,48.0,2.0,35,112.0
337,B3,48.0,0.5,42,112.0
338,B4,48.5,0.25,51,112.0
339,D4,48.5,0.25,39,112.0
340,C5,48.75,0.25,51,112.0
341,E4,48.75,0.25,39,112.0
342,G4,49.0,1.0,44,112.0
343,D4,49.0,0.25,44,112.0
344,B4,49.0,0.5,54,112.0
345,D5,49.0,0.5,54,112.0
346,B4,49.5,0.25,49,112.0
347,D4,49.5,0.25,39,112.0
348,C5,49.75,0.25,49,112.0
349,B4,50.0,0.5,53,112.0
350,D3,50.0,1.0,31,112.0
351,C4,50.0,0.5,39,112.0
352,D4,50.0,1.0,40,112.0
353,F#4,50.0,1.0,40,112.0
354,A4,50.5,0.25,49,112.0
355,C4,50.5,0.5,37,112.0
356,B4,50.75,0.25,49,112.0
357,D4,51.0,0.5,51,112.0
358,G4,51.0,0.5,51,112.0
359,G2,51.0,1.5,38,112.0
360,B3,51.0,1.5,38,112.0
361,B4,51.5,0.5,46,112.0
362,D4,51.5,0.25,48,112.0
363,G4,51.5,0.25,48,112.0
364,F#4,51.75,0.25,49,112.0
365,F4,52.0,0.5,51,112.0
366,B4,52.0,0.5,51,112.0
367,E4,52.5,0.25,49,112.0
368,B4,52.5,0.5,46,112.0
369,D2,52.5,0.5,32,112.0
370,D3,52.5,0.5,32,112.0
371,E-4,52.75,0.25,53,112.0
372,D4,53.0,0.5,53,112.0
373,F#4,53.0,0.5,53,112.0
374,C5,53.0,0.5,53,112.0
375,A2,53.0,0.5,36,112.0
376,A3,53.0,0.5,36,112.0
377,F#4,53.5,0.25,51,112.0
378,C5,53.5,0.5,48,112.0
379,D2,53.5,0.5,40,112.0
380,D3,53.5,0.5,40,112.0
381,D4,53.75,0.25,51,112.0
382,D4,54.0,0.5,55,112.0
383,G4,54.0,0.5,55,112.0
384,B4,54.0,0.5,55,112.0
385,G2,54.0,1.5,43,112.0
386,G3,54.0,1.5,43,112.0
387,B4,54.5,0.5,49,112.0
388,D4,54.5,0.25,51,112.0
389,G4,54.5,0.25,51,112.0
390,F#4,54.75,0.25,53,112.0
391,F4,55.0,0.5,55,112.0
392,B4,55.0,0.5,55,112.0
393,E4,55.5,0.25,49,112.0
394,B4,55.5,0.5,46,112.0
395,D2,55.5,0.5,42,112.0
396,D3,55.5,0.5,42,112.0
397,E-4,55.75,0.25,50,112.0
398,D4,56.0,0.5,53,112.0
399,F#4,56.0,0.5,53,112.0
400,C5,56.0,0.5,53,112.0
401,A2,56.0,0.5,38,112.0
402,A3,56.0,0.5,38,112.0
403,F#4,56.5,0.25,50,112.0
404,C5,56.5,0.5,47,112.0
405,D2,56.5,0.5,36,112.0
406,D3,56.5,0.5,36,112.0
407,D4,56.75,0.25,50,112.0
408,D4,57.0,0.5,55,112.0
409,G4,57.0,0.5,55,112.0
410,B4,57.0,0.5,55,112.0
411,G2,57.0,0.25,43,112.0
412,G3,57.0,0.25,43,112.0
413,B4,57.5,0.5,49,112.0
414,D4,57.5,0.25,51,112.0
415,G4,57.5,0.25,51,112.0
416,F#4,57.75,0.25,53,112.0
417,G3,58.0,0.25,47,112.0
418,D4,58.0,0.5,54,112.0
419,G4,58.0,0.5,54,112.0
420,B4,58.0,0.5,54,112.0
421,D5,58.5,0.5,46,112.0
422,B4,58.5,0.25,48,112.0
423,G4,58.5,0.25,48,112.0
424,B-4,58.75,0.25,50,112.0
425,D4,59.0,0.25,41,112.0
426,G4,59.0,0.5,53,112.0
427,B4,59.0,0.5,53,112.0
428,D5,59.0,0.5,53,112.0
429,G5,59.5,0.5,47,112.0
430,B4,59.5,0.25,48,112.0
431,D5,59.5,0.25,48,112.0
432,C#5,59.75,0.25,50,112.0
433,G4,60.0,0.25,47,112.0
434,D5,60.0,0.5,55,112.0
435,G5,60.0,0.5,55,112.0
436,B5,60.0,0.5,55,112.0
437,B5,60.5,0.5,49,112.0
438,D5,60.5,0.25,51,112.0
439,G5,60.5,0.25,51,112.0
440,F#5,60.75,0.25,53,112.0
441,B4,61.0,0.25,47,112.0
442,D5,61.0,0.5,54,112.0
443,G5,61.0,0.5,54,112.0
444,B5,61.0,0.5,54,112.0
445,D6,61.5,0.5,46,112.0
446,B5,61.5,0.25,48,112.0
447,G5,61.5,0.25,48,112.0
448,B-5,61.75,0.25,50,112.0
449,D5,62.0,0.25,41,112.0
450,G5,62.0,0.5,50,112.0
451,B5,62.0,0.5,50,112.0
452,D6,62.0,0.5,50,112.0
453,G6,62.5,0.5,46,112.0
454,B5,62.5,0.25,48,112.0
455,D6,62.5,0.25,48,112.0
456,C#6,62.75,0.25,49,112.0
457,G5,63.0,0.25,41,112.0
458,B5,63.0,0.5,52,112.0
459,D6,63.0,0.5,52,112.0
460,G6,63.0,0.5,52,112.0
461,G6,63.5,0.5,45,112.0
462,B5,63.5,0.25,47,112.0
463,D6,63.5,0.25,47,112.0
464,B-5,63.75,0.25,48,112.0
465,G5,64.0,0.25,39,112.0
466,B5,64.0,0.5,49,112.0
467,D6,64.0,0.5,49,112.0
468,G6,64.0,0.5,49,112.0
469,G6,64.5,0.5,42,112.0
470,B5,64.5,0.25,44,112.0
471,D6,64.5,0.25,44,112.0
472,B-5,64.75,0.25,46,112.0
473,G5,65.0,0.25,38,112.0
474,B5,65.0,0.5,47,112.0
475,D6,65.0,0.5,47,112.0
476,G6,65.0,0.5,47,112.0
477,G6,65.5,0.5,39,112.0
478,B5,65.5,0.25,42,112.0
479,D6,65.5,0.25,42,112.0
480,B-5,65.75,0.25,44,112.0
481,G5,66.0,0.25,36,112.0
482,B5,66.0,0.5,45,112.0
483,D6,66.0,0.5,45,112.0
484,G6,66.0,0.5,45,112.0
485,G6,66.5,0.5,38,112.0
486,B5,66.5,0.25,39,112.0
487,D6,66.5,0.25,39,112.0
488,B-5,66.75,0.25,40,112.0
489,G5,67.0,0.25,34,112.0
490,B5,67.0,0.5,42,112.0
491,D6,67.0,0.5,42,112.0
492,G6,67.0,0.5,42,112.0
493,G6,67.5,0.5,36,112.0
494,B5,67.5,0.25,38,112.0
495,D6,67.5,0.25,38,112.0
496,B-5,67.75,0.25,38,112.0
497,G5,68.0,0.25,31,112.0
498,B5,68.0,0.5,40,112.0
499,D6,68.0,0.5,40,112.0
500,G6,68.0,0.5,40,112.0
501,G6,68.5,0.5,34,112.0
502,B5,68.5,0.25,36,112.0
503,D6,68.5,0.25,36,112.0
504,B-5,68.75,0.25,36,112.0
505,G5,69.0,0.5,31,112.0
506,B5,69.0,1.0,33,112.0
507,D6,69.0,1.0,33,112.0
508,G6,69.0,1.0,33,112.0
509,G2,69.5,0.25,49,112.0
510,G2,69.75,0.25,42,112.0
511,G2,70.0,0.25,49,112.0
512,G2,70.25,0.25,42,112.0
513,G2,70.5,0.25,49,112.0
514,G2,70.75,0.25,42,112.0
515,G2,71.0,0.25,49,112.0
516,G2,71.25,0.25,42,112.0
517,G2,71.5,0.25,49,112.0
518,G2,71.75,0.25,42,112.0
519,G2,72.0,0.5,49,112.0
520,G2,72.5,0.25,42,112.0
521,G2,72.75,0.25,42,112.0
522,G2,73.0,0.5,45,112.0
523,G2,73.5,0.25,40,112.0
524,G2,73.75,0.25,40,112.0
525,G2,74.0,0.5,44,112.0
526,G2,74.5,0.5,38,112.0
527,E-5,75.0,2.0,72,112.0
528,G5,75.0,2.0,72,112.0
529,B-5,75.0,2.0,72,112.0
530,E-6,75.0,2.0,72,112.0
531,E-2,75.0,2.0,53,112.0
532,E-3,75.0,2.0,53,112.0
533,B-2,75.5,0.25,56,112.0
534,C3,75.75,0.25,56,112.0
535,B-2,76.0,0.25,59,112.0
536,B-2,76.5,0.25,56,112.0
537,D5,77.0,0.75,65,112.0
538,G#5,77.0,0.75,65,112.0
539,D6,77.0,0.75,65,112.0
540,E-2,77.0,1.0,48,112.0
541,F3,77.0,1.0,48,112.0
542,B-2,77.5,0.5,53,112.0
543,B-5,77.75,0.25,68,112.0
544,C6,78.0,0.5,67,112.0
545,E-5,78.0,2.0,60,112.0
546,G5,78.0,2.0,60,112.0
547,E-2,78.0,2.0,53,112.0
548,G3,78.0,2.0,53,112.0
549,C6,78.5,167/1000,59,112.0
550,B-2,78.5,0.25,56,112.0
551,D6,78.667,167/1000,59,112.0
552,C3,78.75,0.25,56,112.0
553,C6,78.833,167/1000,59,112.0
554,B-5,79.0,1.0,66,112.0
555,B-2,79.0,0.25,59,112.0
556,B-2,79.5,0.25,56,112.0
557,G#5,80.0,0.75,53,112.0
558,B-4,80.0,0.75,53,112.0
559,D5,80.0,0.75,53,112.0
560,E-2,80.0,1.0,48,112.0
561,F3,80.0,1.0,48,112.0
562,B-2,80.5,0.5,46,112.0
563,F5,80.75,0.25,57,112.0
564,G5,81.0,0.25,68,112.0
565,B-4,81.0,1.5,51,112.0
566,E-5,81.0,1.5,51,112.0
567,E-2,81.0,2.0,43,112.0
568,E-3,81.0,2.0,43,112.0
569,G#5,81.25,0.25,60,112.0
570,B-5,81.5,0.5,65,112.0
571,B-2,81.5,0.25,50,112.0
572,C3,81.75,0.25,50,112.0
573,B-5,82.0,1.0,65,112.0
574,B-2,82.0,0.25,53,112.0
575,G3,82.5,0.25,42,112.0
576,B-2,82.5,0.25,44,112.0
577,B-3,82.75,0.25,38,112.0
578,G#3,83.0,0.25,42,112.0
579,E-2,83.0,1.0,41,112.0
580,D3,83.0,1.0,41,112.0
581,B-3,83.25,0.25,38,112.0
582,G#3,83.5,0.25,42,112.0
583,B-2,83.5,0.5,41,112.0
584,B-3,83.75,0.25,38,112.0
585,G3,84.0,0.5,48,112.0
586,E-2,84.0,2.0,43,112.0
587,E-3,84.0,2.0,43,112.0
588,G3,84.5,1.5,42,112.0
589,B-3,84.5,0.25,42,112.0
590,B-2,84.5,0.25,49,112.0
591,C4,84.75,0.25,39,112.0
592,C3,84.75,0.25,49,112.0
593,B-3,85.0,0.25,46,112.0
594,B-2,85.0,0.25,52,112.0
595,C4,85.25,0.25,40,112.0
596,E-4,85.5,0.25,48,112.0
597,B-2,85.5,0.25,49,112.0
598,C4,85.75,0.25,44,112.0
599,G#3,86.0,1.0,46,112.0
600,D4,86.0,0.5,51,112.0
601,E-2,86.0,1.0,44,112.0
602,F3,86.0,1.0,44,112.0
603,C4,86.5,0.25,48,112.0
604,B-2,86.5,0.5,47,112.0
605,B-3,86.75,0.25,48,112.0
606,E-5,87.0,2.0,71,112.0
607,G5,87.0,2.0,71,112.0
608,B-5,87.0,2.0,71,112.0
609,E-6,87.0,2.0,71,112.0
610,E-2,87.0,2.0,53,112.0
611,E-3,87.0,2.0,53,112.0
612,B-2,87.5,0.25,56,112.0
613,C3,87.75,0.25,56,112.0
614,B-2,88.0,0.25,59,112.0
615,B-2,88.5,0.25,56,112.0
616,D5,89.0,0.75,65,112.0
617,G#5,89.0,0.75,65,112.0
618,D6,89.0,0.75,65,112.0
619,E-2,89.0,1.0,48,112.0
620,F3,89.0,1.0,48,112.0
621,B-2,89.5,0.5,53,112.0
622,B-5,89.75,0.25,68,112.0
623,C6,90.0,0.5,71,112.0
624,E-5,90.0,2.0,58,112.0
625,G5,90.0,2.0,58,112.0
626,E-2,90.0,2.0,53,112.0
627,G3,90.0,2.0,53,112.0
628,C6,90.5,167/1000,57,112.0
629,B-2,90.5,0.25,56,112.0
630,D6,90.667,167/1000,57,112.0
631,C3,90.75,0.25,56,112.0
632,C6,90.833,167/1000,57,112.0
633,B-5,91.0,1.0,65,112.0
634,B-2,91.0,0.25,59,112.0
635,B-2,91.5,0.25,56,112.0
636,G4,92.0,0.75,46,112.0
637,A5,92.0,0.75,46,112.0
638,A4,92.0,0.75,46,112.0
639,C#5,92.0,0.75,46,112.0
640,E-2,92.0,1.0,46,112.0
641,E-3,92.0,1.0,46,112.0
642,A2,92.5,0.5,39,112.0
643,G5,92.75,0.25,52,112.0
644,F#5,93.0,0.25,62,112.0
645,A4,93.0,1.5,44,112.0
646,D5,93.0,1.5,44,112.0
647,D2,93.0,2.0,36,112.0
648,D3,93.0,2.0,36,112.0
649,G5,93.25,0.25,55,112.0
650,A5,93.5,0.5,58,112.0
651,A2,93.5,0.25,42,112.0
652,B2,93.75,0.25,42,112.0
653,A5,94.0,1.0,58,112.0
654,A2,94.0,0.25,46,112.0
655,F#3,94.5,0.25,38,112.0
656,A2,94.5,0.25,39,112.0
657,A3,94.75,0.25,34,112.0
658,G3,95.0,0.25,38,112.0
659,D2,95.0,1.0,37,112.0
660,E3,95.0,1.0,37,112.0
661,A3,95.25,0.25,34,112.0
662,G3,95.5,0.25,38,112.0
663,A2,95.5,0.5,37,112.0
664,A3,95.75,0.25,35,112.0
665,F#3,96.0,0.5,44,112.0
666,D2,96.0,2.0,39,112.0
667,D3,96.0,2.0,39,112.0
668,F#3,96.5,1.5,39,112.0
669,A3,96.5,0.25,39,112.0
670,A2,96.5,0.25,46,112.0
671,B3,96.75,0.25,37,112.0
672,B2,96.75,0.25,46,112.0
673,A3,97.0,0.25,42,112.0
674,A2,97.0,0.25,49,112.0
675,B3,97.25,0.25,38,112.0
676,A3,97.5,0.25,46,112.0
677,A2,97.5,0.25,47,112.0
678,B3,97.75,0.25,41,112.0
679,G3,98.0,1.0,44,112.0
680,C#4,98.0,0.5,49,112.0
681,D2,98.0,1.0,42,112.0
682,E3,98.0,1.0,42,112.0
683,B3,98.5,0.25,47,112.0
684,A2,98.5,0.5,46,112.0
685,A3,98.75,0.25,47,112.0
686,D5,99.0,2.0,71,112.0
687,F#5,99.0,2.0,71,112.0
688,A5,99.0,2.0,71,112.0
689,D6,99.0,2.0,71,112.0
690,D2,99.0,2.0,53,112.0
691,D3,99.0,2.0,53,112.0
692,A2,99.5,0.25,56,112.0
693,B2,99.75,0.25,56,112.0
694,A2,100.0,0.25,59,112.0
695,A2,100.5,0.25,56,112.0
696,C#5,101.0,0.75,63,112.0
697,G5,101.0,0.75,63,112.0
698,C#6,101.0,0.75,63,112.0
699,D2,101.0,1.0,48,112.0
700,E3,101.0,1.0,48,112.0
701,A2,101.5,0.5,53,112.0
702,A5,101.75,0.25,67,112.0
703,B5,102.0,0.5,75,112.0
704,D5,102.0,2.0,60,112.0
705,F#5,102.0,2.0,60,112.0
706,D2,102.0,2.0,53,112.0
707,F#3,102.0,2.0,53,112.0
708,B5,102.5,167/1000,59,112.0
709,A2,102.5,0.25,56,112.0
710,C#6,102.667,167/1000,59,112.0
711,B2,102.75,0.25,56,112.0
712,B5,102.833,167/1000,59,112.0
713,A5,103.0,1.0,67,112.0
714,A2,103.0,0.25,59,112.0
715,A2,103.5,0.25,56,112.0
716,G4,104.0,0.75,53,112.0
717,G5,104.0,0.75,53,112.0
718,A4,104.0,0.75,53,112.0
719,C#5,104.0,0.75,53,112.0
720,D2,104.0,1.0,48,112.0
721,E3,104.0,1.0,48,112.0
722,A2,104.5,0.5,46,112.0
723,E5,104.75,0.25,60,112.0
724,F#5,105.0,0.25,68,112.0
725,A4,105.0,1.5,51,112.0
726,D5,105.0,1.5,51,112.0
727,D2,105.0,2.0,43,112.0
728,D3,105.0,2.0,43,112.0
729,G5,105.25,0.25,60,112.0
730,A5,105.5,0.5,65,112.0
731,A2,105.5,0.25,50,112.0
732,B2,105.75,0.25,50,112.0
733,A5,106.0,1.0,65,112.0
734,A2,106.0,0.25,53,112.0
735,F#3,106.5,0.25,42,112.0
736,A2,106.5,0.25,44,112.0
737,A3,106.75,0.25,38,112.0
738,G3,107.0,0.25,42,112.0
739,D2,107.0,1.0,41,112.0
740,E3,107.0,1.0,41,112.0
741,A3,107.25,0.25,38,112.0
742,G3,107.5,0.25,42,112.0
743,A2,107.5,0.5,41,112.0
744,A3,107.75,0.25,38,112.0
745,F#3,108.0,0.5,48,112.0
746,D2,108.0,2.0,43,112.0
747,D3,108.0,2.0,43,112.0
748,F#3,108.5,1.5,42,112.0
749,A3,108.5,0.25,42,112.0
750,A2,108.5,0.25,49,112.0
751,B3,108.75,0.25,39,112.0
752,B2,108.75,0.25,49,112.0
753,A3,109.0,0.25,46,112.0
754,A2,109.0,0.25,52,112.0
755,B3,109.25,0.25,40,112.0
756,D4,109.5,0.25,48,112.0
757,A2,109.5,0.25,49,112.0
758,B3,109.75,0.25,44,112.0
759,G3,110.0,1.0,46,112.0
760,C#4,110.0,0.5,51,112.0
761,D2,110.0,1.0,44,112.0
762,E3,110.0,1.0,44,112.0
763,B3,110.5,0.25,48,112.0
764,A2,110.5,0.5,47,112.0
765,A3,110.75,0.25,48,112.0
766,D5,111.0,2.0,72,112.0
767,F#5,111.0,2.0,72,112.0
768,A5,111.0,2.0,72,112.0
769,D6,111.0,2.0,72,112.0
770,D2,111.0,2.0,58,112.0
771,D3,111.0,2.0,58,112.0
772,A2,111.5,0.25,60,112.0
773,B2,111.75,0.25,60,112.0
774,A2,112.0,0.25,64,112.0
775,A2,112.5,0.25,60,112.0
776,C#5,113.0,0.75,69,112.0
777,G5,113.0,0.75,69,112.0
778,C#6,113.0,0.75,69,112.0
779,E2,113.0,1.0,53,112.0
780,E3,113.0,1.0,53,112.0
781,A2,113.5,0.5,58,112.0
782,A4,113.75,0.25,68,112.0
783,A5,113.75,0.25,68,112.0
784,B4,114.0,1.5,68,112.0
785,B5,114.0,1.5,68,112.0
786,D5,114.0,1.5,68,112.0
787,F#5,114.0,1.5,68,112.0
788,F#2,114.0,2.0,58,112.0
789,F#3,114.0,2.0,58,112.0
790,A2,114.5,0.25,60,112.0
791,B2,114.75,0.25,60,112.0
792,A2,115.0,0.25,64,112.0
793,A2,115.5,0.25,60,112.0
794,D5,115.5,0.5,86,112.0
795,D6,115.5,0.5,86,112.0
796,C#6,116.0,0.75,63,112.0
797,C#5,116.0,0.75,63,112.0
798,G5,116.0,0.75,63,112.0
799,E2,116.0,1.0,53,112.0
800,E3,116.0,1.0,53,112.0
801,A2,116.5,0.5,50,112.0
802,A4,116.75,0.25,68,112.0
803,A5,116.75,0.25,68,112.0
804,B4,117.0,1.5,72,112.0
805,B5,117.0,1.5,72,112.0
806,D5,117.0,1.5,72,112.0
807,F#5,117.0,1.5,72,112.0
808,F#2,117.0,2.0,58,112.0
809,F#3,117.0,2.0,58,112.0
810,A2,117.5,0.25,60,112.0
811,B2,117.75,0.25,60,112.0
812,A2,118.0,0.25,64,112.0
813,A2,118.5,0.25,61,112.0
814,D5,118.5,0.5,82,112.0
815,D6,118.5,0.5,82,112.0
816,C6,119.0,0.75,56,112.0
817,C5,119.0,0.75,56,112.0
818,G5,119.0,0.75,56,112.0
819,E-2,119.0,1.0,53,112.0
820,E-3,119.0,1.0,53,112.0
821,A2,119.5,0.5,46,112.0
822,A4,119.75,0.25,58,112.0
823,A5,119.75,0.25,58,112.0
824,C5,120.0,0.188,45,112.0
825,E-4,120.0,0.188,33,112.0
826,D5,120.25,0.188,47,112.0
827,F4,120.25,0.188,35,112.0
828,E-5,120.5,0.188,49,112.0
829,G4,120.5,0.188,37,112.0
830,F5,120.75,0.188,51,112.0
831,A4,120.75,0.188,38,112.0
832,E-5,121.0,0.188,53,112.0
833,G4,121.0,0.188,40,112.0
834,F5,121.25,0.188,51,112.0
835,A4,121.25,0.188,38,112.0
836,E-5,121.5,0.188,51,112.0
837,G4,121.5,0.188,38,112.0
838,D5,121.75,0.188,51,112.0
839,F4,121.75,0.188,38,112.0
840,C5,122.0,0.188,53,112.0
841,E-4,122.0,0.188,40,112.0
842,D5,122.25,0.188,49,112.0
843,F4,122.25,0.188,37,112.0
844,C5,122.5,0.188,49,112.0
845,E-4,122.5,0.188,37,112.0
846,B-4,122.75,0.188,49,112.0
847,D4,122.75,0.188,37,112.0
848,A4,123.0,0.188,46,112.0
849,C4,123.0,0.188,34,112.0
850,B-4,123.25,0.188,48,112.0
851,D4,123.25,0.188,36,112.0
852,C5,123.5,0.188,49,112.0
853,E-4,123.5,0.188,37,112.0
854,D5,123.75,0.188,51,112.0
855,F4,123.75,0.188,38,112.0
856,C5,124.0,0.188,53,112.0
857,E-4,124.0,0.188,40,112.0
858,D5,124.25,0.188,50,112.0
859,F4,124.25,0.188,37,112.0
860,C5,124.5,0.188,50,112.0
861,E-4,124.5,0.188,37,112.0
862,B-4,124.75,0.188,50,112.0
863,D4,124.75,0.188,37,112.0
864,A4,125.0,0.188,53,112.0
865,C4,125.0,0.188,40,112.0
866,B-4,125.25,0.188,50,112.0
867,D4,125.25,0.188,37,112.0
868,A4,125.5,0.188,50,112.0
869,C4,125.5,0.188,37,112.0
870,G4,125.75,0.188,50,112.0
871,B-3,125.75,0.188,37,112.0
872,F#4,126.0,0.188,48,112.0
873,A3,126.0,0.188,36,112.0
874,G4,126.25,0.188,49,112.0
875,B-3,126.25,0.188,37,112.0
876,A4,126.5,0.188,51,112.0
877,C4,126.5,0.188,38,112.0
878,B-4,126.75,0.188,53,112.0
879,D4,126.75,0.188,40,112.0
880,C5,127.0,0.188,53,112.0
881,E-4,127.0,0.188,40,112.0
882,B-4,127.25,0.188,51,112.0
883,D4,127.25,0.188,38,112.0
884,A4,127.5,0.188,51,112.0
885,C4,127.5,0.188,38,112.0
886,G4,127.75,0.188,51,112.0
887,B-3,127.75,0.188,38,112.0
888,F4,128.0,0.188,53,112.0
889,A3,128.0,0.188,40,112.0
890,G4,128.25,0.188,51,112.0
891,B-3,128.25,0.188,38,112.0
892,F4,128.5,0.188,51,112.0
893,A3,128.5,0.188,38,112.0
894,E-4,128.75,0.188,51,112.0
895,G3,128.75,0.188,38,112.0
896,D4,129.0,0.5,76,112.0
897,F#4,129.0,0.5,76,112.0
898,A4,129.0,0.5,76,112.0
899,D5,129.0,0.5,76,112.0
900,D2,129.0,0.5,64,112.0
901,D3,129.0,0.5,64,112.0
902,F#4,129.5,0.5,78,112.0
903,A4,129.5,0.5,78,112.0
904,D5,129.5,0.5,78,112.0
905,F#5,129.5,0.5,78,112.0
906,D4,129.5,0.5,64,112.0
907,D3,129.5,0.5,64,112.0
908,A4,130.0,0.5,79,112.0
909,D5,130.0,0.5,79,112.0
910,F#5,130.0,0.5,79,112.0
911,A5,130.0,0.5,79,112.0
912,A2,130.0,0.5,66,112.0
913,A3,130.0,0.5,66,112.0
914,D6,130.5,0.5,84,112.0
915,A5,130.5,0.5,84,112.0
916,F#5,130.5,0.5,84,112.0
917,D5,130.5,0.5,84,112.0
918,F#2,130.5,0.5,64,112.0
919,F#3,130.5,0.5,64,112.0
920,E-6,131.0,0.5,89,112.0
921,G6,131.0,0.5,89,112.0
922,B-6,131.0,0.5,89,112.0
923,E-7,131.0,0.5,89,112.0
924,C#2,131.0,0.5,74,112.0
925,C#3,131.0,0.5,74,112.0
926,E-4,131.5,0.5,77,112.0
927,G4,131.5,0.5,77,112.0
928,B-4,131.5,0.5,77,112.0
929,E-5,131.5,0.5,77,112.0
930,C#3,131.5,0.5,62,112.0
931,G3,131.5,0.5,62,112.0
932,C#4,131.5,0.5,62,112.0
933,D4,132.0,0.5,76,112.0
934,F#4,132.0,0.5,76,112.0
935,A4,132.0,0.5,76,112.0
936,D5,132.0,0.5,76,112.0
937,D2,132.0,0.5,64,112.0
938,D3,132.0,0.5,64,112.0
939,F#4,132.5,0.5,78,112.0
940,A4,132.5,0.5,78,112.0
941,D5,132.5,0.5,78,112.0
942,F#5,132.5,0.5,78,112.0
943,D4,132.5,0.5,64,112.0
944,D3,132.5,0.5,64,112.0
945,A4,133.0,0.5,79,112.0
946,D5,133.0,0.5,79,112.0
947,F#5,133.0,0.5,79,112.0
948,A5,133.0,0.5,79,112.0
949,A2,133.0,0.5,66,112.0
950,A3,133.0,0.5,66,112.0
951,D6,133.5,0.5,84,112.0
952,A5,133.5,0.5,84,112.0
953,F#5,133.5,0.5,84,112.0
954,D5,133.5,0.5,84,112.0
955,F#2,133.5,0.5,64,112.0
956,F#3,133.5,0.5,64,112.0
957,E-6,134.0,0.5,89,112.0
958,G6,134.0,0.5,89,112.0
959,B-6,134.0,0.5,89,112.0
960,E-7,134.0,0.5,89,112.0
961,C#2,134.0,0.5,74,112.0
962,C#3,134.0,0.5,74,112.0
963,E-4,134.5,0.5,77,112.0
964,G4,134.5,0.5,77,112.0
965,B-4,134.5,0.5,77,112.0
966,E-5,134.5,0.5,77,112.0
967,C#3,134.5,0.5,62,112.0
968,G3,134.5,0.5,62,112.0
969,C#4,134.5,0.5,62,112.0
970,A3,135.0,0.5,72,112.0
971,D4,135.0,0.5,72,112.0
972,F#4,135.0,0.5,72,112.0
973,D2,135.0,1.5,56,112.0
974,D3,135.0,1.5,56,112.0
975,F#4,135.5,0.5,67,112.0
976,A3,135.5,0.25,67,112.0
977,D4,135.5,0.25,67,112.0
978,C#4,135.75,0.25,67,112.0
979,C4,136.0,0.5,72,112.0
980,F#4,136.0,0.5,72,112.0
981,B3,136.5,0.25,67,112.0
982,F#4,136.5,0.5,67,112.0
983,A1,136.5,0.5,48,112.0
984,A2,136.5,0.5,48,112.0
985,B-3,136.75,0.25,72,112.0
986,A3,137.0,0.5,75,112.0
987,C#4,137.0,0.5,75,112.0
988,G4,137.0,0.5,75,112.0
989,E2,137.0,0.5,53,112.0
990,E3,137.0,0.5,53,112.0
991,C#4,137.5,0.25,69,112.0
992,G4,137.5,0.5,69,112.0
993,A1,137.5,0.5,58,112.0
994,A2,137.5,0.5,58,112.0
995,A3,137.75,0.25,69,112.0
996,A3,138.0,0.5,79,112.0
997,D4,138.0,0.5,79,112.0
998,F#4,138.0,0.5,79,112.0
999,D2,138.0,1.5,62,112.0
1000,D3,138.0,1.5,62,112.0
1001,F#4,138.5,0.5,72,112.0
1002,A3,138.5,0.25,72,112.0
1003,D4,138.5,0.25,72,112.0
1004,C#4,138.75,0.25,72,112.0
1005,C4,139.0,0.5,77,112.0
1006,F#4,139.0,0.5,77,112.0
1007,B3,139.5,0.25,67,112.0
1008,F#4,139.5,0.5,67,112.0
1009,A1,139.5,0.5,60,112.0
1010,A2,139.5,0.5,60,112.0
1011,B-3,139.75,0.25,68,112.0
1012,A3,140.0,0.5,75,112.0
1013,C#4,140.0,0.5,75,112.0
1014,G4,140.0,0.5,75,112.0
1015,E2,140.0,0.5,56,112.0
1016,E3,140.0,0.5,56,112.0
1017,C#4,140.5,0.25,68,112.0
1018,G4,140.5,0.5,68,112.0
1019,A1,140.5,0.5,52,112.0
1020,A2,140.5,0.5,52,112.0
1021,A3,140.75,0.25,68,112.0
1022,D2,141.0,0.5,57,112.0
1023,A3,141.0,1.0,68,112.0
1024,D4,141.0,1.0,68,112.0
1025,F#4,141.0,1.0,68,112.0
1026,D3,141.5,0.25,60,112.0
1027,D3,141.75,0.25,61,112.0
1028,D3,142.0,0.25,61,112.0
1029,D3,142.25,0.25,62,112.0
1030,D3,142.5,0.25,63,112.0
1031,D3,142.75,0.25,64,112.0
1032,D3,143.0,0.25,66,112.0
1033,D3,143.25,0.25,67,112.0
1034,D3,143.5,0.25,68,112.0
1035,D3,143.75,0.25,68,112.0
1036,C5,144.0,0.5,78,112.0
1037,D5,144.0,0.5,78,112.0
1038,F#5,144.0,0.5,78,112.0
1039,A5,144.0,0.5,78,112.0
1040,D6,144.0,0.5,78,112.0
1041,D2,144.0,0.5,62,112.0
1042,D3,144.0,0.5,62,112.0
1043,C5,144.5,0.25,73,112.0
1044,D5,144.5,0.25,73,112.0
1045,F#5,144.5,0.25,73,112.0
1046,A5,144.5,0.25,73,112.0
1047,D6,144.5,0.25,73,112.0
1048,D2,144.5,0.25,57,112.0
1049,D3,144.5,0.25,57,112.0
1050,C5,144.75,0.25,73,112.0
1051,D5,144.75,0.25,73,112.0
1052,F#5,144.75,0.25,73,112.0
1053,A5,144.75,0.25,73,112.0
1054,D6,144.75,0.25,73,112.0
1055,D2,144.75,0.25,57,112.0
1056,D3,144.75,0.25,57,112.0
1057,C5,145.0,0.5,78,112.0
1058,D5,145.0,0.5,78,112.0
1059,F#5,145.0,0.5,78,112.0
1060,A5,145.0,0.5,78,112.0
1061,D6,145.0,0.5,78,112.0
1062,D2,145.0,0.5,62,112.0
1063,D3,145.0,0.5,62,112.0
1064,C5,145.5,0.25,70,112.0
1065,D5,145.5,0.25,70,112.0
1066,F#5,145.5,0.25,70,112.0
1067,A5,145.5,0.25,70,112.0
1068,D6,145.5,0.25,70,112.0
1069,D2,145.5,0.25,56,112.0
1070,D3,145.5,0.25,56,112.0
1071,C5,145.75,0.25,70,112.0
1072,D5,145.75,0.25,70,112.0
1073,F#5,145.75,0.25,70,112.0
1074,A5,145.75,0.25,70,112.0
1075,D6,145.75,0.25,70,112.0
1076,D2,145.75,0.25,56,112.0
1077,D3,145.75,0.25,56,112.0
1078,C5,146.0,0.5,78,112.0
1079,D5,146.0,0.5,78,112.0
1080,F#5,146.0,0.5,78,112.0
1081,A5,146.0,0.5,78,112.0
1082,D6,146.0,0.5,78,112.0
1083,D2,146.0,0.5,62,112.0
1084,D3,146.0,0.5,62,112.0
1085,C5,146.5,0.25,71,112.0
1086,D5,146.5,0.25,71,112.0
1087,F#5,146.5,0.25,71,112.0
1088,A5,146.5,0.25,71,112.0
1089,D6,146.5,0.25,71,112.0
1090,D2,146.5,0.25,56,112.0
1091,D3,146.5,0.25,56,112.0
1092,C5,146.75,0.25,71,112.0
1093,D5,146.75,0.25,71,112.0
1094,F#5,146.75,0.25,71,112.0
1095,A5,146.75,0.25,71,112.0
1096,D6,146.75,0.25,71,112.0
1097,D2,146.75,0.25,56,112.0
1098,D3,146.75,0.25,56,112.0
1099,G2,147.0,1.469,57,112.0
1100,D3,147.0,1.469,57,112.0
1101,G3,147.062,1.438,68,112.0
1102,D5,147.094,0.375,77,112.0
1103,G5,147.094,0.375,77,112.0
1104,B5,147.156,0.312,84,112.0
1105,D6,147.156,0.312,84,112.0
1106,G6,147.219,0.281,91,112.0
1107,B4,147.5,0.5,61,112.0
1108,D4,147.5,0.25,64,112.0
1109,G4,147.5,0.25,64,112.0
1110,F#4,147.75,0.25,67,112.0
1111,F4,148.0,0.5,68,112.0
1112,B4,148.0,0.5,68,112.0
1113,E4,148.5,0.25,64,112.0
1114,B4,148.5,0.5,59,112.0
1115,D2,148.5,0.5,43,112.0
1116,D3,148.5,0.5,43,112.0
1117,E-4,148.75,0.25,69,112.0
1118,D4,149.0,0.5,68,112.0
1119,F#4,149.0,0.5,68,112.0
1120,C5,149.0,0.5,68,112.0
1121,A2,149.0,0.5,46,112.0
1122,A3,149.0,0.5,46,112.0
1123,F#4,149.5,0.25,64,112.0
1124,C5,149.5,0.5,60,112.0
1125,D2,149.5,0.5,50,112.0
1126,D3,149.5,0.5,50,112.0
1127,D4,149.75,0.25,64,112.0
1128,D4,150.0,0.5,69,112.0
1129,G4,150.0,0.5,69,112.0
1130,B4,150.0,0.5,69,112.0
1131,G2,150.0,1.5,53,112.0
1132,G3,150.0,1.5,53,112.0
1133,B4,150.5,0.5,60,112.0
1134,D4,150.5,0.25,63,112.0
1135,G4,150.5,0.25,63,112.0
1136,F#4,150.75,0.25,64,112.0
1137,F4,151.0,0.5,66,112.0
1138,B4,151.0,0.5,66,112.0
1139,E4,151.5,0.25,59,112.0
1140,B4,151.5,0.5,53,112.0
1141,D2,151.5,0.5,48,112.0
1142,D3,151.5,0.5,48,112.0
1143,E-4,151.75,0.25,59,112.0
1144,D4,152.0,0.5,62,112.0
1145,F#4,152.0,0.5,62,112.0
1146,C5,152.0,0.5,62,112.0
1147,A2,152.0,0.5,44,112.0
1148,A3,152.0,0.5,44,112.0
1149,F#4,152.5,0.25,58,112.0
1150,C5,152.5,0.5,52,112.0
1151,D2,152.5,0.5,40,112.0
1152,D3,152.5,0.5,40,112.0
1153,D4,152.75,0.25,57,112.0
1154,G4,153.0,2.0,58,112.0
1155,B4,153.0,2.0,58,112.0
1156,D5,153.0,2.0,58,112.0
1157,G5,153.0,2.0,58,112.0
1158,G2,153.0,2.0,43,112.0
1159,G3,153.0,2.0,43,112.0
1160,D3,153.5,0.25,49,112.0
1161,E3,153.75,0.25,49,112.0
1162,D3,154.0,0.25,52,112.0
1163,D3,154.5,0.25,49,112.0
1164,F#4,155.0,0.75,56,112.0
1165,C5,155.0,0.75,56,112.0
1166,F#5,155.0,0.75,56,112.0
1167,G2,155.0,1.0,43,112.0
1168,A3,155.0,1.0,43,112.0
1169,D3,155.5,0.5,47,112.0
1170,D5,155.75,0.25,63,112.0
1171,E5,156.0,0.5,69,112.0
1172,G4,156.0,2.0,58,112.0
1173,B4,156.0,2.0,58,112.0
1174,G2,156.0,2.0,47,112.0
1175,B3,156.0,2.0,47,112.0
1176,E5,156.5,167/1000,60,112.0
1177,D3,156.5,0.25,49,112.0
1178,F#5,156.667,167/1000,60,112.0
1179,E3,156.75,0.25,49,112.0
1180,E5,156.833,167/1000,60,112.0
1181,D5,157.0,1.0,64,112.0
1182,D3,157.0,0.25,52,112.0
1183,D3,157.5,0.25,49,112.0
1184,C4,158.0,0.75,43,112.0
1185,C5,158.0,0.75,43,112.0
1186,D4,158.0,0.75,43,112.0
1187,F#4,158.0,0.75,43,112.0
1188,A4,158.0,0.75,43,112.0
1189,G2,158.0,1.0,43,112.0
1190,A3,158.0,1.0,43,112.0
1191,D3,158.5,0.5,40,112.0
1192,A4,158.75,0.25,53,112.0
1193,B4,159.0,0.25,63,112.0
1194,D4,159.0,1.5,45,112.0
1195,G4,159.0,1.5,45,112.0
1196,G2,159.0,2.0,38,112.0
1197,G3,159.0,2.0,38,112.0
1198,C5,159.25,0.25,57,112.0
1199,D5,159.5,0.5,60,112.0
1200,D3,159.5,0.25,44,112.0
1201,E3,159.75,0.25,44,112.0
1202,D5,160.0,1.0,60,112.0
1203,D3,160.0,0.25,47,112.0
1204,B3,160.5,0.25,42,112.0
1205,D3,160.5,0.25,44,112.0
1206,D4,160.75,0.25,38,112.0
1207,C4,161.0,0.25,42,112.0
1208,G2,161.0,1.0,41,112.0
1209,F#3,161.0,1.0,41,112.0
1210,D4,161.25,0.25,38,112.0
1211,C4,161.5,0.25,42,112.0
1212,D3,161.5,0.5,41,112.0
1213,D4,161.75,0.25,38,112.0
1214,B3,162.0,0.5,48,112.0
1215,G2,162.0,2.0,43,112.0
1216,G3,162.0,2.0,43,112.0
1217,B3,162.5,1.5,42,112.0
1218,D4,162.5,0.25,42,112.0
1219,D3,162.5,0.25,49,112.0
1220,E4,162.75,0.25,39,112.0
1221,E3,162.75,0.25,49,112.0
1222,D4,163.0,0.25,46,112.0
1223,D3,163.0,0.25,52,112.0
1224,E4,163.25,0.25,40,112.0
1225,G4,163.5,0.25,48,112.0
1226,D3,163.5,0.25,49,112.0
1227,E4,163.75,0.25,44,112.0
1228,C4,164.0,1.0,46,112.0
1229,F#4,164.0,0.5,51,112.0
1230,G2,164.0,1.0,44,112.0
1231,A3,164.0,1.0,44,112.0
1232,E4,164.5,0.25,48,112.0
1233,D3,164.5,0.5,47,112.0
1234,D4,164.75,0.25,48,112.0
1235,G4,165.0,2.0,63,112.0
1236,B4,165.0,2.0,63,112.0
1237,D5,165.0,2.0,63,112.0
1238,G5,165.0,2.0,63,112.0
1239,G2,165.0,2.0,46,112.0
1240,G3,165.0,2.0,46,112.0
1241,D3,165.5,0.25,53,112.0
1242,E3,165.75,0.25,53,112.0
1243,D3,166.0,0.25,57,112.0
1244,D3,166.5,0.25,53,112.0
1245,F#4,167.0,0.75,58,112.0
1246,C5,167.0,0.75,58,112.0
1247,F#5,167.0,0.75,58,112.0
1248,G2,167.0,1.0,43,112.0
1249,A3,167.0,1.0,43,112.0
1250,D3,167.5,0.5,47,112.0
1251,D5,167.75,0.25,66,112.0
1252,E5,168.0,0.5,69,112.0
1253,G4,168.0,2.0,58,112.0
1254,B4,168.0,2.0,58,112.0
1255,G2,168.0,2.0,47,112.0
1256,B3,168.0,2.0,47,112.0
1257,E5,168.5,167/1000,60,112.0
1258,D3,168.5,0.25,49,112.0
1259,F#5,168.667,167/1000,60,112.0
1260,E3,168.75,0.25,49,112.0
1261,E5,168.833,167/1000,60,112.0
1262,D5,169.0,1.0,64,112.0
1263,D3,169.0,0.25,52,112.0
1264,D3,169.5,0.25,49,112.0
1265,C4,170.0,0.75,43,112.0
1266,C5,170.0,0.75,43,112.0
1267,D4,170.0,0.75,43,112.0
1268,F#4,170.0,0.75,43,112.0
1269,A4,170.0,0.75,43,112.0
1270,G2,170.0,1.0,43,112.0
1271,A3,170.0,1.0,43,112.0
1272,D3,170.5,0.5,40,112.0
1273,A4,170.75,0.25,53,112.0
1274,B4,171.0,0.25,63,112.0
1275,D4,171.0,1.5,45,112.0
1276,G4,171.0,1.5,45,112.0
1277,G2,171.0,2.0,38,112.0
1278,G3,171.0,2.0,38,112.0
1279,C5,171.25,0.25,57,112.0
1280,D5,171.5,0.5,60,112.0
1281,D3,171.5,0.25,44,112.0
1282,E3,171.75,0.25,44,112.0
1283,D5,172.0,1.0,60,112.0
1284,D3,172.0,0.25,47,112.0
1285,B3,172.5,0.25,42,112.0
1286,D3,172.5,0.25,44,112.0
1287,D4,172.75,0.25,38,112.0
1288,C4,173.0,0.25,42,112.0
1289,G2,173.0,1.0,41,112.0
1290,F#3,173.0,1.0,41,112.0
1291,D4,173.25,0.25,38,112.0
1292,C4,173.5,0.25,42,112.0
1293,D3,173.5,0.5,41,112.0
1294,D4,173.75,0.25,38,112.0
1295,B3,174.0,0.5,48,112.0
1296,G2,174.0,2.0,43,112.0
1297,G3,174.0,2.0,43,112.0
1298,B3,174.5,1.5,42,112.0
1299,D4,174.5,0.25,42,112.0
1300,D3,174.5,0.25,49,112.0
1301,E4,174.75,0.25,39,112.0
1302,E3,174.75,0.25,49,112.0
1303,D4,175.0,0.25,46,112.0
1304,D3,175.0,0.25,52,112.0
1305,E4,175.25,0.25,40,112.0
1306,G4,175.5,0.25,48,112.0
1307,D3,175.5,0.25,49,112.0
1308,E4,175.75,0.25,44,112.0
1309,C4,176.0,1.0,42,112.0
1310,F#4,176.0,0.5,51,112.0
1311,G2,176.0,1.0,43,112.0
1312,A3,176.0,1.0,43,112.0
1313,E4,176.5,0.25,48,112.0
1314,D3,176.5,0.5,47,112.0
1315,D4,176.75,0.25,48,112.0
1316,G4,177.0,2.0,67,112.0
1317,D5,177.0,2.0,67,112.0
1318,G5,177.0,2.0,67,112.0
1319,G2,177.0,2.0,48,112.0
1320,B-3,177.0,2.0,48,112.0
1321,D3,177.5,0.25,56,112.0
1322,E-3,177.75,0.25,56,112.0
1323,D3,178.0,0.25,59,112.0
1324,D3,178.5,0.25,56,112.0
1325,F4,179.0,0.75,58,112.0
1326,A4,179.0,0.75,58,112.0
1327,F5,179.0,0.75,58,112.0
1328,F2,179.0,1.0,44,112.0
1329,E-4,179.0,1.0,44,112.0
1330,F3,179.5,0.5,49,112.0
1331,C5,179.75,0.25,68,112.0
1332,D5,180.0,0.5,72,112.0
1333,F4,180.0,2.0,60,112.0
1334,B-4,180.0,2.0,60,112.0
1335,B-2,180.0,2.0,49,112.0
1336,D4,180.0,2.0,49,112.0
1337,D5,180.5,0.25,66,112.0
1338,F3,180.5,0.25,51,112.0
1339,E-5,180.75,0.25,66,112.0
1340,G3,180.75,0.25,51,112.0
1341,F5,181.0,1.0,72,112.0
1342,F3,181.0,0.25,55,112.0
1343,F3,181.5,0.25,51,112.0
1344,E-5,182.0,0.75,49,112.0
1345,F4,182.0,0.75,49,112.0
1346,A4,182.0,0.75,49,112.0
1347,B-2,182.0,1.0,44,112.0
1348,E-4,182.0,1.0,44,112.0
1349,F3,182.5,0.5,41,112.0
1350,C5,182.75,0.25,56,112.0
1351,D5,183.0,0.25,72,112.0
1352,B-4,183.0,2.0,44,112.0
1353,F4,183.0,2.0,44,112.0
1354,B-2,183.0,2.0,44,112.0
1355,D4,183.0,2.0,44,112.0
1356,E-5,183.25,0.25,63,112.0
1357,D5,183.5,0.25,68,112.0
1358,F3,183.5,0.25,51,112.0
1359,E-5,183.75,0.25,61,112.0
1360,G3,183.75,0.25,51,112.0
1361,F5,184.0,0.25,70,112.0
1362,F3,184.0,0.25,55,112.0
1363,G5,184.25,0.25,62,112.0
1364,A5,184.5,0.25,69,112.0
1365,F3,184.5,0.25,51,112.0
1366,G5,184.75,0.25,60,112.0
1367,A4,185.0,1.0,44,112.0
1368,F5,185.0,0.25,69,112.0
1369,B-2,185.0,1.0,44,112.0
1370,E-4,185.0,1.0,44,112.0
1371,E-5,185.25,0.25,69,112.0
1372,D5,185.5,0.25,74,112.0
1373,F3,185.5,0.5,49,112.0
1374,C5,185.75,0.25,69,112.0
1375,D5,186.0,0.25,77,112.0
1376,B-4,186.0,2.0,50,112.0
1377,F4,186.0,2.0,50,112.0
1378,B-2,186.0,2.0,44,112.0
1379,D4,186.0,2.0,44,112.0
1380,E-5,186.25,0.25,66,112.0
1381,D5,186.5,0.25,72,112.0
1382,F3,186.5,0.25,51,112.0
1383,E-5,186.75,0.25,61,112.0
1384,G3,186.75,0.25,51,112.0
1385,F5,187.0,0.25,70,112.0
1386,F3,187.0,0.25,55,112.0
1387,G5,187.25,0.25,62,112.0
1388,A5,187.5,0.25,69,112.0
1389,F3,187.5,0.25,51,112.0
1390,G5,187.75,0.25,60,112.0
1391,A4,188.0,1.0,61,112.0
1392,F5,188.0,0.25,67,112.0
1393,B-2,188.0,1.0,46,112.0
1394,E-4,188.0,1.0,46,112.0
1395,E-5,188.25,0.25,66,112.0
1396,D5,188.5,0.25,63,112.0
1397,F3,188.5,0.5,42,112.0
1398,C5,188.75,0.25,62,112.0
1399,F4,189.0,2.0,61,112.0
1400,B-4,189.0,2.0,61,112.0
1401,D5,189.0,2.0,61,112.0
1402,B-2,189.0,2.0,44,112.0
1403,D4,189.0,2.0,44,112.0
1404,F3,189.5,0.25,44,112.0
1405,G3,189.75,0.25,44,112.0
1406,F3,190.0,0.25,49,112.0
1407,F3,190.5,0.25,45,112.0
1408,A2,191.0,1.0,36,112.0
1409,A3,191.0,0.5,44,112.0
1410,C5,191.0,0.5,60,112.0
1411,D5,191.0,0.5,60,112.0
1412,D4,191.0,1.0,48,112.0
1413,F#4,191.0,1.0,48,112.0
1414,D5,191.5,0.25,58,112.0
1415,D3,191.5,0.5,44,112.0
1416,C5,191.75,0.25,58,112.0
1417,B4,192.0,1.5,69,112.0
1418,G2,192.0,2.0,39,112.0
1419,G3,192.0,0.5,48,112.0
1420,D4,192.0,2.0,54,112.0
1421,G4,192.0,2.0,54,112.0
1422,G3,192.5,0.25,44,112.0
1423,G#3,192.75,0.25,44,112.0
1424,G3,193.0,0.25,49,112.0
1425,C5,193.5,0.25,58,112.0
1426,G3,193.5,0.25,45,112.0
1427,D5,193.75,0.25,58,112.0
1428,E-5,194.0,0.5,62,112.0
1429,C3,194.0,1.0,36,112.0
1430,G3,194.0,0.5,44,112.0
1431,G4,194.0,1.0,48,112.0
1432,C5,194.0,1.0,48,112.0
1433,F5,194.5,0.25,58,112.0
1434,A3,194.5,0.5,44,112.0
1435,E-5,194.75,0.25,58,112.0
1436,G4,195.0,1.0,59,112.0
1437,D5,195.0,0.5,74,112.0
1438,D3,195.0,2.0,39,112.0
1439,B3,195.0,0.5,48,112.0
1440,B4,195.5,0.25,58,112.0
1441,D4,195.5,0.25,44,112.0
1442,C5,195.75,0.25,58,112.0
1443,E4,195.75,0.25,44,112.0
1444,G4,196.0,1.0,49,112.0
1445,D4,196.0,0.25,49,112.0
1446,B4,196.0,0.5,60,112.0
1447,D5,196.0,0.5,60,112.0
1448,B4,196.5,0.25,55,112.0
1449,D4,196.5,0.25,45,112.0
1450,C5,196.75,0.25,55,112.0
1451,B4,197.0,0.5,60,112.0
1452,D3,197.0,1.0,36,112.0
1453,C4,197.0,0.5,44,112.0
1454,D4,197.0,1.0,46,112.0
1455,F#4,197.0,1.0,46,112.0
1456,A4,197.5,0.25,55,112.0
1457,C4,197.5,0.5,41,112.0
1458,B4,197.75,0.25,55,112.0
1459,D4,198.0,0.5,58,112.0
1460,G4,198.0,0.5,58,112.0
1461,G2,198.0,1.5,43,112.0
1462,B3,198.0,1.5,43,112.0
1463,B4,198.5,0.5,51,112.0
1464,D4,198.5,0.25,54,112.0
1465,G4,198.5,0.25,54,112.0
1466,F#4,198.75,0.25,56,112.0
1467,F4,199.0,0.5,58,112.0
1468,B4,199.0,0.5,58,112.0
1469,E4,199.5,0.25,56,112.0
1470,B4,199.5,0.5,51,112.0
1471,D2,199.5,0.5,37,112.0
1472,D3,199.5,0.5,37,112.0
1473,E-4,199.75,0.25,60,112.0
1474,D4,200.0,0.5,60,112.0
1475,F#4,200.0,0.5,60,112.0
1476,C5,200.0,0.5,60,112.0
1477,A2,200.0,0.5,41,112.0
1478,A3,200.0,0.5,41,112.0
1479,F#4,200.5,0.25,58,112.0
1480,C5,200.5,0.5,53,112.0
1481,D2,200.5,0.5,45,112.0
1482,D3,200.5,0.5,45,112.0
1483,D4,200.75,0.25,58,112.0
1484,D4,201.0,0.5,62,112.0
1485,G4,201.0,0.5,62,112.0
1486,B4,201.0,0.5,62,112.0
1487,G2,201.0,1.5,48,112.0
1488,G3,201.0,1.5,48,112.0
1489,B4,201.5,0.5,55,112.0
1490,D4,201.5,0.25,58,112.0
1491,G4,201.5,0.25,58,112.0
1492,F#4,201.75,0.25,60,112.0
1493,F4,202.0,0.5,62,112.0
1494,B4,202.0,0.5,62,112.0
1495,E4,202.5,0.25,56,112.0
1496,B4,202.5,0.5,51,112.0
1497,D2,202.5,0.5,46,112.0
1498,D3,202.5,0.5,46,112.0
1499,E-4,202.75,0.25,57,112.0
1500,D4,203.0,0.5,60,112.0
1501,F#4,203.0,0.5,60,112.0
1502,C5,203.0,0.5,60,112.0
1503,A2,203.0,0.5,43,112.0
1504,A3,203.0,0.5,43,112.0
1505,F#4,203.5,0.25,57,112.0
1506,C5,203.5,0.5,52,112.0
1507,D2,203.5,0.5,40,112.0
1508,D3,203.5,0.5,40,112.0
1509,D4,203.75,0.25,57,112.0
1510,D4,204.0,0.5,62,112.0
1511,G4,204.0,0.5,62,112.0
1512,B4,204.0,0.5,62,112.0
1513,G2,204.0,0.25,48,112.0
1514,G3,204.0,0.25,48,112.0
1515,B4,204.5,0.5,55,112.0
1516,D4,204.5,0.25,58,112.0
1517,G4,204.5,0.25,58,112.0
1518,F#4,204.75,0.25,60,112.0
1519,G3,205.0,0.25,52,112.0
1520,D4,205.0,0.5,61,112.0
1521,G4,205.0,0.5,61,112.0
1522,B4,205.0,0.5,61,112.0
1523,D5,205.5,0.5,51,112.0
1524,B4,205.5,0.25,54,112.0
1525,G4,205.5,0.25,54,112.0
1526,B-4,205.75,0.25,57,112.0
1527,D4,206.0,0.25,47,112.0
1528,G4,206.0,0.5,60,112.0
1529,B4,206.0,0.5,60,112.0
1530,D5,206.0,0.5,60,112.0
1531,G5,206.5,0.5,52,112.0
1532,B4,206.5,0.25,54,112.0
1533,D5,206.5,0.25,54,112.0
1534,C#5,206.75,0.25,57,112.0
1535,G4,207.0,0.25,52,112.0
1536,D5,207.0,0.5,62,112.0
1537,G5,207.0,0.5,62,112.0
1538,B5,207.0,0.5,62,112.0
1539,B5,207.5,0.5,55,112.0
1540,D5,207.5,0.25,58,112.0
1541,G5,207.5,0.25,58,112.0
1542,F#5,207.75,0.25,60,112.0
1543,B4,208.0,0.25,52,112.0
1544,D5,208.0,0.5,61,112.0
1545,G5,208.0,0.5,61,112.0
1546,B5,208.0,0.5,61,112.0
1547,D6,208.5,0.5,51,112.0
1548,B5,208.5,0.25,54,112.0
1549,G5,208.5,0.25,54,112.0
1550,B-5,208.75,0.25,57,112.0
1551,D5,209.0,0.25,47,112.0
1552,G5,209.0,0.5,57,112.0
1553,B5,209.0,0.5,57,112.0
1554,D6,209.0,0.5,57,112.0
1555,G6,209.5,0.5,51,112.0
1556,B5,209.5,0.25,54,112.0
1557,D6,209.5,0.25,54,112.0
1558,C#6,209.75,0.25,56,112.0
1559,G5,210.0,0.25,47,112.0
1560,B5,210.0,0.5,59,112.0
1561,D6,210.0,0.5,59,112.0
1562,G6,210.0,0.5,59,112.0
1563,G6,210.5,0.5,50,112.0
1564,B5,210.5,0.25,52,112.0
1565,D6,210.5,0.25,52,112.0
1566,B-5,210.75,0.25,53,112.0
1567,G5,211.0,0.25,45,112.0
1568,B5,211.0,0.5,55,112.0
1569,D6,211.0,0.5,55,112.0
1570,G6,211.0,0.5,55,112.0
1571,G6,211.5,0.5,48,112.0
1572,B5,211.5,0.25,50,112.0
1573,D6,211.5,0.25,50,112.0
1574,B-5,211.75,0.25,51,112.0
1575,G5,212.0,0.25,42,112.0
1576,B5,212.0,0.5,53,112.0
1577,D6,212.0,0.5,53,112.0
1578,G6,212.0,0.5,53,112.0
1579,G6,212.5,0.5,45,112.0
1580,B5,212.5,0.25,47,112.0
1581,D6,212.5,0.25,47,112.0
1582,B-5,212.75,0.25,49,112.0
1583,G5,213.0,0.25,40,112.0
1584,B5,213.0,0.5,50,112.0
1585,D6,213.0,0.5,50,112.0
1586,G6,213.0,0.5,50,112.0
1587,G6,213.5,0.5,42,112.0
1588,B5,213.5,0.25,44,112.0
1589,D6,213.5,0.25,44,112.0
1590,B-5,213.75,0.25,46,112.0
1591,G5,214.0,0.25,38,112.0
1592,B5,214.0,0.5,47,112.0
1593,D6,214.0,0.5,47,112.0
1594,G6,214.0,0.5,47,112.0
1595,G6,214.5,0.5,40,112.0
1596,B5,214.5,0.25,42,112.0
1597,D6,214.5,0.25,42,112.0
1598,B-5,214.75,0.25,42,112.0
1599,G5,215.0,0.25,36,112.0
1600,B5,215.0,0.5,45,112.0
1601,D6,215.0,0.5,45,112.0
1602,G6,215.0,0.5,45,112.0
1603,G6,215.5,0.5,38,112.0
1604,B5,215.5,0.25,40,112.0
1605,D6,215.5,0.25,40,112.0
1606,B-5,215.75,0.25,40,112.0
1607,G5,216.0,0.5,34,112.0
1608,B5,216.0,1.0,37,112.0
1609,D6,216.0,1.0,37,112.0
1610,G6,216.0,1.0,37,112.0
1611,G2,216.5,0.25,45,112.0
1612,G2,216.75,0.25,39,112.0
1613,G2,217.0,0.25,45,112.0
1614,G2,217.25,0.25,39,112.0
1615,G2,217.5,0.25,45,112.0
1616,G2,217.75,0.25,39,112.0
1617,G2,218.0,0.25,45,112.0
1618,G2,218.25,0.25,39,112.0
1619,G2,218.5,0.25,45,112.0
1620,G2,218.75,0.25,39,112.0
1621,G2,219.0,0.5,45,112.0
1622,G2,219.5,0.25,39,112.0
1623,G2,219.75,0.25,39,112.0
1624,G2,220.0,0.5,41,112.0
1625,G2,220.5,0.25,37,112.0
1626,G2,220.75,0.25,37,112.0
1627,G2,221.0,0.5,40,112.0
1628,G2,221.5,0.5,35,112.0
1629,G2,222.0,0.5,40,112.0
1630,C6,225.5,0.5,53,112.0
1631,C4,225.5,0.5,42,112.0
1632,D6,226.0,0.5,59,112.0
1633,D4,226.0,0.5,47,112.0
1634,E-6,226.5,0.5,55,112.0
1635,E-4,226.5,0.5,44,112.0
1636,F6,227.0,0.5,58,112.0
1637,F4,227.0,0.5,42,112.0
1638,G#6,227.5,0.5,61,112.0
1639,G#4,227.5,0.5,46,112.0
1640,C7,228.0,1.25,72,112.0
1641,C5,228.0,1.25,51,112.0
1642,B-6,229.25,0.25,56,112.0
1643,B-4,229.25,0.25,44,112.0
1644,G#6,229.5,0.25,57,112.0
1645,G#4,229.5,0.25,45,112.0
1646,G6,229.75,0.25,53,112.0
1647,G4,229.75,0.25,42,112.0
1648,F6,230.0,0.25,57,112.0
1649,F4,230.0,0.25,45,112.0
1650,G6,230.25,0.25,53,112.0
1651,G4,230.25,0.25,42,112.0
1652,G#6,230.5,0.25,56,112.0
1653,G#4,230.5,0.25,44,112.0
1654,F6,230.75,0.25,52,112.0
1655,F4,230.75,0.25,41,112.0
1656,G6,231.0,0.25,60,112.0
1657,G4,231.0,0.25,48,112.0
1658,G#6,231.25,0.25,55,112.0
1659,G#4,231.25,0.25,44,112.0
1660,G6,231.5,0.25,58,112.0
1661,G4,231.5,0.25,46,112.0
1662,F6,231.75,0.25,50,112.0
1663,F4,231.75,0.25,39,112.0
1664,E-6,232.0,0.25,56,112.0
1665,E-4,232.0,0.25,44,112.0
1666,F6,232.25,0.25,52,112.0
1667,F4,232.25,0.25,41,112.0
1668,E-6,232.5,0.25,53,112.0
1669,E-4,232.5,0.25,42,112.0
1670,D6,232.75,0.25,49,112.0
1671,D4,232.75,0.25,38,112.0
1672,C6,233.0,0.25,55,112.0
1673,C4,233.0,0.25,44,112.0
1674,D6,233.25,0.25,51,112.0
1675,D4,233.25,0.25,40,112.0
1676,E-6,233.5,0.25,56,112.0
1677,E-4,233.5,0.25,44,112.0
1678,G6,233.75,0.25,51,112.0
1679,G4,233.75,0.25,40,112.0
1680,G6,234.0,1.5,58,112.0
1681,G4,234.0,0.5,44,112.0
1682,F2,234.5,0.5,44,112.0
1683,C4,235.0,2.0,38,112.0
1684,D4,235.0,1.25,38,112.0
1685,G#4,235.0,0.5,44,112.0
1686,F6,235.5,0.25,55,112.0
1687,F4,235.5,0.25,44,112.0
1688,E-6,235.75,0.25,49,112.0
1689,E-4,235.75,0.25,39,112.0
1690,D6,236.0,0.25,57,112.0
1691,D4,236.0,1.0,45,112.0
1692,E-6,236.25,0.25,51,112.0
1693,E-4,236.25,0.25,40,112.0
1694,F6,236.5,0.25,51,112.0
1695,F4,236.5,0.25,40,112.0
1696,G#6,236.75,0.25,51,112.0
1697,G#4,236.75,0.25,40,112.0
1698,G6,237.0,167/1000,53,112.0
1699,G4,237.0,167/1000,42,112.0
1700,G#6,237.167,167/1000,45,112.0
1701,G#4,237.167,167/1000,35,112.0
1702,G6,237.333,167/1000,45,112.0
1703,G4,237.333,167/1000,35,112.0
1704,F6,237.5,0.25,51,112.0
1705,F4,237.5,0.25,40,112.0
1706,E-6,237.75,0.25,48,112.0
1707,E-4,237.75,0.25,38,112.0
1708,D6,238.0,0.25,49,112.0
1709,D4,238.0,0.25,39,112.0
1710,E-6,238.25,0.25,50,112.0
1711,E-4,238.25,0.25,39,112.0
1712,F6,238.5,0.25,51,112.0
1713,F4,238.5,0.25,40,112.0
1714,G6,238.75,0.25,45,112.0
1715,G4,238.75,0.25,35,112.0
1716,G3,239.0,1.0,33,112.0
1717,F4,239.0,167/1000,41,112.0
1718,B5,239.0,167/1000,46,112.0
1719,F6,239.0,167/1000,46,112.0
1720,G6,239.167,167/1000,40,112.0
1721,G4,239.167,167/1000,31,112.0
1722,F6,239.333,167/1000,40,112.0
1723,F4,239.333,167/1000,31,112.0
1724,E-6,239.5,0.25,41,112.0
1725,E-4,239.5,0.25,33,112.0
1726,D6,239.75,0.25,38,112.0
1727,D4,239.75,0.25,30,112.0
1728,C7,240.0,0.5,39,112.0
1729,G6,240.0,0.5,39,112.0
1730,E-6,240.0,0.5,39,112.0
1731,C6,240.0,0.5,39,112.0
1732,C3,240.0,0.5,32,112.0
1733,C4,240.0,0.5,32,112.0
1734,F3,240.5,0.25,44,112.0
1735,G3,240.75,0.25,40,112.0
1736,F3,241.0,0.25,44,112.0
1737,C4,241.0,2.0,37,112.0
1738,F4,241.0,2.0,37,112.0
1739,G#4,241.0,2.0,37,112.0
1740,C5,241.0,2.0,37,112.0
1741,G3,241.25,0.25,41,112.0
1742,G#3,241.5,0.25,41,112.0
1743,B-3,241.75,0.25,46,112.0
1744,C4,242.0,0.25,49,112.0
1745,G#3,242.25,0.25,46,112.0
1746,G3,242.5,0.25,47,112.0
1747,F3,242.75,0.25,44,112.0
1748,C5,243.0,0.5,60,112.0
1749,G2,243.0,0.5,56,112.0
1750,E-4,243.0,0.25,51,112.0
1751,G4,243.0,0.25,51,112.0
1752,D4,243.25,0.25,46,112.0
1753,G4,243.5,0.5,48,112.0
1754,G3,243.5,0.5,47,112.0
1755,C4,243.5,0.25,39,112.0
1756,E-4,243.5,0.25,39,112.0
1757,G3,243.75,0.25,44,112.0
1758,C5,244.0,0.5,59,112.0
1759,G2,244.0,0.5,56,112.0
1760,E-4,244.0,0.25,50,112.0
1761,G4,244.0,0.25,50,112.0
1762,D4,244.25,0.25,44,112.0
1763,G4,244.5,0.5,46,112.0
1764,G3,244.5,0.5,46,112.0
1765,C4,244.5,0.25,38,112.0
1766,E-4,244.5,0.25,38,112.0
1767,G3,244.75,0.25,44,112.0
1768,B4,245.0,0.5,58,112.0
1769,G2,245.0,0.5,56,112.0
1770,F4,245.0,0.25,49,112.0
1771,G4,245.0,0.25,49,112.0
1772,E-4,245.25,0.25,41,112.0
1773,G4,245.5,0.5,46,112.0
1774,G3,245.5,0.5,46,112.0
1775,D4,245.5,0.25,38,112.0
1776,F4,245.5,0.25,38,112.0
1777,G3,245.75,0.25,41,112.0
1778,C4,246.0,0.5,44,112.0
1779,E-4,246.0,0.5,44,112.0
1780,G4,246.0,0.5,44,112.0
1781,C5,246.0,0.5,44,112.0
1782,C2,246.0,0.5,52,112.0
1783,C3,246.0,0.5,52,112.0
1784,C6,246.5,0.5,58,112.0
1785,C4,246.5,0.5,46,112.0
1786,D6,247.0,0.5,67,112.0
1787,D4,247.0,0.5,56,112.0
1788,E-6,247.5,0.5,61,112.0
1789,E-4,247.5,0.5,53,112.0
1790,F6,248.0,0.5,66,112.0
1791,F4,248.0,0.5,58,112.0
1792,G#6,248.5,0.5,69,112.0
1793,G#4,248.5,0.5,55,112.0
1794,E-7,249.0,1.25,85,112.0
1795,E-5,249.0,1.25,64,112.0
1796,D7,250.25,0.25,67,112.0
1797,D5,250.25,0.25,52,112.0
1798,C7,250.5,0.25,68,112.0
1799,C5,250.5,0.25,53,112.0
1800,B-6,250.75,0.25,63,112.0
1801,B-4,250.75,0.25,50,112.0
1802,C7,251.0,167/1000,68,112.0
1803,C5,251.0,167/1000,53,112.0
1804,D7,251.167,167/1000,68,112.0
1805,D5,251.167,167/1000,53,112.0
1806,C7,251.333,167/1000,68,112.0
1807,C5,251.333,167/1000,53,112.0
1808,B-6,251.5,0.25,67,112.0
1809,B-4,251.5,0.25,52,112.0
1810,G#6,251.75,0.25,62,112.0
1811,G#4,251.75,0.25,49,112.0
1812,B-6,252.0,0.25,72,112.0
1813,B-4,252.0,0.25,57,112.0
1814,C7,252.25,0.25,66,112.0
1815,C5,252.25,0.25,52,112.0
1816,B-6,252.5,0.25,69,112.0
1817,B-4,252.5,0.25,55,112.0
1818,G#6,252.75,0.25,60,112.0
1819,G#4,252.75,0.25,46,112.0
1820,G6,253.0,0.5,67,112.0
1821,G4,253.0,0.5,52,112.0
1822,F6,253.5,0.25,63,112.0
1823,F4,253.5,0.25,50,112.0
1824,G6,253.75,0.25,58,112.0
1825,G4,253.75,0.25,45,112.0
1826,G#6,254.0,0.25,66,112.0
1827,G#4,254.0,0.25,52,112.0
1828,B-6,254.25,0.25,61,112.0
1829,B-4,254.25,0.25,48,112.0
1830,C7,254.5,0.25,67,112.0
1831,C5,254.5,0.25,52,112.0
1832,G#6,254.75,0.25,61,112.0
1833,G#4,254.75,0.25,48,112.0
1834,G6,255.0,167/1000,73,112.0
1835,G4,255.0,167/1000,57,112.0
1836,G#6,255.167,167/1000,63,112.0
1837,G#4,255.167,167/1000,50,112.0
1838,G6,255.333,167/1000,63,112.0
1839,G4,255.333,167/1000,50,112.0
1840,F6,255.5,0.25,67,112.0
1841,F4,255.5,0.25,52,112.0
1842,G6,255.75,0.25,70,112.0
1843,G4,255.75,0.25,56,112.0
1844,E-6,256.0,0.5,73,112.0
1845,E-4,256.0,0.5,57,112.0
1846,D6,256.5,0.25,70,112.0
1847,D4,256.5,0.25,56,112.0
1848,E-6,256.75,0.25,67,112.0
1849,E-4,256.75,0.25,52,112.0
1850,F6,257.0,167/1000,75,112.0
1851,F4,257.0,167/1000,60,112.0
1852,G6,257.167,167/1000,67,112.0
1853,G4,257.167,167/1000,52,112.0
1854,F6,257.333,167/1000,67,112.0
1855,F4,257.333,167/1000,52,112.0
1856,E-6,257.5,0.25,73,112.0
1857,E-4,257.5,0.25,57,112.0
1858,F6,257.75,0.25,67,112.0
1859,F4,257.75,0.25,52,112.0
1860,D6,258.0,167/1000,73,112.0
1861,D4,258.0,167/1000,57,112.0
1862,E-6,258.167,167/1000,63,112.0
1863,E-4,258.167,167/1000,50,112.0
1864,D6,258.333,167/1000,63,112.0
1865,D4,258.333,167/1000,50,112.0
1866,C6,258.5,0.25,67,112.0
1867,C4,258.5,0.25,52,112.0
1868,E-6,258.75,0.25,70,112.0
1869,E-4,258.75,0.25,56,112.0
1870,D6,259.0,0.5,73,112.0
1871,D4,259.0,0.5,57,112.0
1872,C6,259.5,0.25,70,112.0
1873,C4,259.5,0.25,56,112.0
1874,D6,259.75,0.25,67,112.0
1875,D4,259.75,0.25,52,112.0
1876,E-6,260.0,0.25,75,112.0
1877,E-4,260.0,0.25,60,112.0
1878,F6,260.25,0.25,75,112.0
1879,F4,260.25,0.25,60,112.0
1880,G6,260.5,0.25,73,112.0
1881,G4,260.5,0.25,57,112.0
1882,G#6,260.75,0.25,67,112.0
1883,G#4,260.75,0.25,52,112.0
1884,F6,261.0,167/1000,73,112.0
1885,F4,261.0,167/1000,57,112.0
1886,G6,261.167,167/1000,63,112.0
1887,G4,261.167,167/1000,50,112.0
1888,F6,261.333,167/1000,62,112.0
1889,F4,261.333,167/1000,49,112.0
1890,E-6,261.5,167/1000,72,112.0
1891,E-4,261.5,167/1000,57,112.0
1892,F6,261.667,167/1000,62,112.0
1893,F4,261.667,167/1000,49,112.0
1894,E-6,261.833,167/1000,62,112.0
1895,E-4,261.833,167/1000,49,112.0
1896,D6,262.0,167/1000,71,112.0
1897,D4,262.0,167/1000,56,112.0
1898,E-6,262.167,167/1000,61,112.0
1899,E-4,262.167,167/1000,48,112.0
1900,D6,262.333,167/1000,61,112.0
1901,D4,262.333,167/1000,48,112.0
1902,C6,262.5,167/1000,70,112.0
1903,C4,262.5,167/1000,55,112.0
1904,D6,262.667,167/1000,60,112.0
1905,D4,262.667,167/1000,48,112.0
1906,C6,262.833,167/1000,60,112.0
1907,C4,262.833,167/1000,47,112.0
1908,B-5,263.0,167/1000,69,112.0
1909,B-3,263.0,167/1000,53,112.0
1910,C6,263.167,167/1000,59,112.0
1911,C4,263.167,167/1000,47,112.0
1912,B-5,263.333,167/1000,59,112.0
1913,B-3,263.333,167/1000,47,112.0
1914,G#5,263.5,167/1000,68,112.0
1915,G#3,263.5,167/1000,52,112.0
1916,B-5,263.667,167/1000,59,112.0
1917,B-3,263.667,167/1000,46,112.0
1918,G#5,263.833,167/1000,58,112.0
1919,G#3,263.833,167/1000,46,112.0
1920,G5,264.0,1.0,67,112.0
1921,G3,264.0,0.5,53,112.0
1922,G2,264.5,0.5,46,112.0
1923,D3,265.0,0.25,56,112.0
1924,D4,265.0,2.0,46,112.0
1925,C4,265.0,2.0,46,112.0
1926,F#4,265.0,2.0,46,112.0
1927,A4,265.0,2.0,46,112.0
1928,D5,265.0,2.0,46,112.0
1929,E3,265.25,0.25,51,112.0
1930,F#3,265.5,0.25,51,112.0
1931,G3,265.75,0.25,57,112.0
1932,A3,266.0,0.25,61,112.0
1933,B3,266.25,0.25,57,112.0
1934,C4,266.5,0.25,58,112.0
1935,A3,266.75,0.25,55,112.0
1936,D2,267.0,0.5,56,112.0
1937,D4,267.0,0.25,54,112.0
1938,G4,267.0,0.25,54,112.0
1939,B4,267.0,0.25,54,112.0
1940,C4,267.25,0.25,46,112.0
1941,D3,267.5,0.5,47,112.0
1942,B3,267.5,0.25,42,112.0
1943,D4,267.5,0.25,42,112.0
1944,G4,267.5,0.25,42,112.0
1945,G3,267.75,0.25,44,112.0
1946,D2,268.0,0.5,56,112.0
1947,D4,268.0,0.25,53,112.0
1948,G4,268.0,0.25,53,112.0
1949,B4,268.0,0.25,53,112.0
1950,C4,268.25,0.25,44,112.0
1951,D3,268.5,0.5,46,112.0
1952,B3,268.5,0.25,41,112.0
1953,D4,268.5,0.25,41,112.0
1954,G4,268.5,0.25,41,112.0
1955,G3,268.75,0.25,44,112.0
1956,D2,269.0,0.5,56,112.0
1957,E4,269.0,0.25,52,112.0
1958,F#4,269.0,0.25,52,112.0
1959,C5,269.0,0.25,52,112.0
1960,D4,269.25,0.25,41,112.0
1961,D3,269.5,0.5,46,112.0
1962,C4,269.5,0.25,41,112.0
1963,D4,269.5,0.25,41,112.0
1964,F#4,269.5,0.25,41,112.0
1965,A3,269.75,0.25,41,112.0
1966,G2,270.0,1.0,56,112.0
1967,G3,270.0,0.5,46,112.0
1968,G4,270.0,0.5,46,112.0
1969,G5,270.5,0.5,61,112.0
1970,G5,271.0,0.5,60,112.0
1971,G5,271.5,0.5,58,112.0
1972,G5,272.0,0.75,57,112.0
1973,G5,272.75,0.25,55,112.0
1974,G5,273.0,1.0,60,112.0
1975,G#2,273.0,0.75,42,112.0
1976,F3,273.75,0.25,37,112.0
1977,F5,274.0,0.75,57,112.0
1978,C4,274.0,0.5,41,112.0
1979,D4,274.5,0.5,39,112.0
1980,D5,274.75,0.25,52,112.0
1981,E-5,275.0,0.25,57,112.0
1982,G#4,275.0,1.0,39,112.0
1983,F5,275.25,0.25,53,112.0
1984,G5,275.5,0.25,57,112.0
1985,G#5,275.75,0.25,53,112.0
1986,G5,276.0,0.5,60,112.0
1987,G#2,276.0,0.75,42,112.0
1988,G#5,276.5,0.25,57,112.0
1989,G5,276.75,0.25,55,112.0
1990,F3,276.75,0.25,37,112.0
1991,F5,277.0,0.5,58,112.0
1992,C4,277.0,0.5,41,112.0
1993,D5,277.5,0.25,56,112.0
1994,D4,277.5,0.5,39,112.0
1995,F5,277.75,0.25,56,112.0
1996,E-5,278.0,167/1000,61,112.0
1997,G#4,278.0,1.0,39,112.0
1998,F5,278.167,167/1000,50,112.0
1999,E-5,278.333,167/1000,50,112.0
2000,D5,278.5,0.25,58,112.0
2001,C5,278.75,0.25,51,112.0
2002,B4,279.0,0.75,56,112.0
2003,G2,279.0,0.75,42,112.0
2004,D5,279.75,0.25,52,112.0
2005,D3,279.75,0.25,37,112.0
2006,D5,280.0,2.0,55,112.0
2007,G3,280.0,0.5,41,112.0
2008,B3,280.5,0.5,31,112.0
2009,D4,281.0,0.5,36,112.0
2010,G4,281.5,0.5,31,112.0
2011,B4,282.0,3.0,42,112.0
2012,G5,282.5,0.5,61,112.0
2013,G5,283.0,0.5,60,112.0
2014,G5,283.5,0.5,58,112.0
2015,G5,284.0,0.75,57,112.0
2016,G5,284.75,0.25,55,112.0
2017,G5,285.0,1.0,60,112.0
2018,G#2,285.0,0.75,42,112.0
2019,F3,285.75,0.25,37,112.0
2020,F5,286.0,0.5,57,112.0
2021,C4,286.0,0.5,41,112.0
2022,D5,286.5,0.25,52,112.0
2023,D4,286.5,0.5,39,112.0
2024,E-5,286.75,0.25,52,112.0
2025,F5,287.0,0.125,57,112.0
2026,G#4,287.0,1.0,39,112.0
2027,G5,287.125,0.125,53,112.0
2028,G#5,287.25,0.125,57,112.0
2029,B-5,287.375,0.125,53,112.0
2030,C6,287.5,167/1000,53,112.0
2031,B-5,287.667,167/1000,53,112.0
2032,G#5,287.833,167/1000,53,112.0
2033,G5,288.0,0.5,60,112.0
2034,G#2,288.0,0.75,42,112.0
2035,G#5,288.5,0.25,57,112.0
2036,G5,288.75,0.25,55,112.0
2037,F3,288.75,0.25,37,112.0
2038,F5,289.0,0.5,58,112.0
2039,C4,289.0,0.5,41,112.0
2040,D5,289.5,0.25,56,112.0
2041,D4,289.5,0.5,39,112.0
2042,E-5,289.75,0.25,56,112.0
2043,F5,290.0,167/1000,61,112.0
2044,G#4,290.0,1.0,48,112.0
2045,G5,290.167,167/1000,52,112.0
2046,F5,290.333,167/1000,53,112.0
2047,E-5,290.5,167/1000,58,112.0
2048,D5,290.667,167/1000,61,112.0
2049,C5,290.833,167/1000,63,112.0
2050,B4,291.0,0.5,74,112.0
2051,G2,291.0,0.5,59,112.0
2052,G3,291.0,0.5,59,112.0
2053,F4,291.5,0.125,68,112.0
2054,F3,291.5,0.25,53,112.0
2055,F4,291.75,0.125,68,112.0
2056,G#4,292.0,0.25,75,112.0
2057,G#3,292.0,0.25,59,112.0
2058,D4,292.5,0.125,69,112.0
2059,D3,292.5,0.25,52,112.0
2060,D4,292.75,0.125,70,112.0
2061,F4,293.0,0.25,75,112.0
2062,F3,293.0,0.25,59,112.0
2063,B3,293.5,0.125,68,112.0
2064,B2,293.5,0.25,52,112.0
2065,B3,293.75,0.125,68,112.0
2066,D4,294.0,0.25,81,112.0
2067,D3,294.0,0.25,62,112.0
2068,G#3,294.5,0.125,74,112.0
2069,G#2,294.5,0.25,56,112.0
2070,G#3,294.75,0.125,74,112.0
2071,C4,295.0,0.25,83,112.0
2072,C3,295.0,0.25,59,112.0
2073,F3,295.5,0.125,75,112.0
2074,F2,295.5,0.25,52,112.0
2075,F3,295.75,0.125,75,112.0
2076,G#3,296.0,0.25,83,112.0
2077,G#2,296.0,0.25,59,112.0
2078,D3,296.5,0.125,74,112.0
2079,D2,296.5,0.25,52,112.0
2080,D3,296.75,0.125,74,112.0
2081,G3,297.0,0.25,81,112.0
2082,G2,297.0,0.25,62,112.0
2083,F4,297.5,0.125,74,112.0
2084,F3,297.5,0.25,56,112.0
2085,F4,297.75,0.125,74,112.0
2086,G#4,298.0,0.125,83,112.0
2087,G#3,298.0,0.25,59,112.0
2088,G#4,298.25,0.125,74,112.0
2089,D4,298.5,0.125,79,112.0
2090,D3,298.5,0.25,52,112.0
2091,D4,298.75,0.125,75,112.0
2092,F4,299.0,0.125,83,112.0
2093,F3,299.0,0.25,59,112.0
2094,F4,299.25,0.125,73,112.0
2095,B3,299.5,0.125,79,112.0
2096,B2,299.5,0.25,52,112.0
2097,B3,299.75,0.125,74,112.0
2098,D4,300.0,0.125,81,112.0
2099,D3,300.0,0.25,62,112.0
2100,D4,300.25,0.125,81,112.0
2101,G#3,300.5,0.125,74,112.0
2102,G#2,300.5,0.25,56,112.0
2103,G#3,300.75,0.125,74,112.0
2104,C4,301.0,0.125,83,112.0
2105,C3,301.0,0.25,59,112.0
2106,C4,301.25,0.125,74,112.0
2107,F3,301.5,0.125,79,112.0
2108,F2,301.5,0.25,52,112.0
2109,F3,301.75,0.125,75,112.0
2110,G#3,302.0,0.125,83,112.0
2111,G#2,302.0,0.25,59,112.0
2112,G#3,302.25,0.125,73,112.0
2113,D3,302.5,0.125,79,112.0
2114,D2,302.5,0.25,52,112.0
2115,D3,302.75,0.125,74,112.0
2116,G3,303.0,0.5,79,112.0
2117,G2,303.0,0.5,59,112.0
2118,G2,303.5,0.25,54,112.0
2119,G2,303.75,0.25,54,112.0
2120,G2,304.0,0.25,55,112.0
2121,G2,304.25,0.25,51,112.0
2122,G2,304.5,0.25,50,112.0
2123,G2,304.75,0.25,49,112.0
2124,G2,305.0,0.25,51,112.0
2125,G2,305.25,0.25,47,112.0
2126,G2,305.5,0.25,49,112.0
2127,G2,305.75,0.25,45,112.0
2128,G2,306.0,0.5,47,112.0
2129,C6,309.5,0.5,53,112.0
2130,C4,309.5,0.5,42,112.0
2131,D6,310.0,0.5,59,112.0
2132,D4,310.0,0.5,47,112.0
2133,E-6,310.5,0.5,55,112.0
2134,E-4,310.5,0.5,44,112.0
2135,F6,311.0,0.5,58,112.0
2136,F4,311.0,0.5,42,112.0
2137,G#6,311.5,0.5,61,112.0
2138,G#4,311.5,0.5,46,112.0
2139,C7,312.0,1.25,72,112.0
2140,C5,312.0,1.25,51,112.0
2141,B-6,313.25,0.25,56,112.0
2142,B-4,313.25,0.25,44,112.0
2143,G#6,313.5,0.25,57,112.0
2144,G#4,313.5,0.25,45,112.0
2145,G6,313.75,0.25,53,112.0
2146,G4,313.75,0.25,42,112.0
2147,F6,314.0,0.25,57,112.0
2148,F4,314.0,0.25,45,112.0
2149,G6,314.25,0.25,53,112.0
2150,G4,314.25,0.25,42,112.0
2151,G#6,314.5,0.25,56,112.0
2152,G#4,314.5,0.25,44,112.0
2153,F6,314.75,0.25,52,112.0
2154,F4,314.75,0.25,41,112.0
2155,G6,315.0,0.25,60,112.0
2156,G4,315.0,0.25,48,112.0
2157,G#6,315.25,0.25,55,112.0
2158,G#4,315.25,0.25,44,112.0
2159,G6,315.5,0.25,58,112.0
2160,G4,315.5,0.25,46,112.0
2161,F6,315.75,0.25,50,112.0
2162,F4,315.75,0.25,39,112.0
2163,E-6,316.0,0.25,56,112.0
2164,E-4,316.0,0.25,44,112.0
2165,F6,316.25,0.25,52,112.0
2166,F4,316.25,0.25,41,112.0
2167,E-6,316.5,0.25,53,112.0
2168,E-4,316.5,0.25,42,112.0
2169,D6,316.75,0.25,49,112.0
2170,D4,316.75,0.25,38,112.0
2171,C6,317.0,0.25,55,112.0
2172,C4,317.0,0.25,44,112.0
2173,D6,317.25,0.25,51,112.0
2174,D4,317.25,0.25,40,112.0
2175,E-6,317.5,0.25,56,112.0
2176,E-4,317.5,0.25,44,112.0
2177,G6,317.75,0.25,51,112.0
2178,G4,317.75,0.25,40,112.0
2179,G6,318.0,1.5,58,112.0
2180,G4,318.0,0.5,44,112.0
2181,F2,318.5,0.5,44,112.0
2182,C4,319.0,2.0,38,112.0
2183,D4,319.0,1.25,38,112.0
2184,G#4,319.0,0.5,44,112.0
2185,F6,319.5,0.25,55,112.0
2186,F4,319.5,0.25,44,112.0
2187,E-6,319.75,0.25,49,112.0
2188,E-4,319.75,0.25,39,112.0
2189,D6,320.0,0.25,57,112.0
2190,D4,320.0,1.0,45,112.0
2191,E-6,320.25,0.25,51,112.0
2192,E-4,320.25,0.25,40,112.0
2193,F6,320.5,0.25,51,112.0
2194,F4,320.5,0.25,40,112.0
2195,G#6,320.75,0.25,51,112.0
2196,G#4,320.75,0.25,40,112.0
2197,G6,321.0,167/1000,53,112.0
2198,G4,321.0,167/1000,42,112.0
2199,G#6,321.167,167/1000,45,112.0
2200,G#4,321.167,167/1000,35,112.0
2201,G6,321.333,167/1000,45,112.0
2202,G4,321.333,167/1000,35,112.0
2203,F6,321.5,0.25,51,112.0
2204,F4,321.5,0.25,40,112.0
2205,E-6,321.75,0.25,48,112.0
2206,E-4,321.75,0.25,38,112.0
2207,D6,322.0,0.25,49,112.0
2208,D4,322.0,0.25,39,112.0
2209,E-6,322.25,0.25,50,112.0
2210,E-4,322.25,0.25,39,112.0
2211,F6,322.5,0.25,51,112.0
2212,F4,322.5,0.25,40,112.0
2213,G6,322.75,0.25,45,112.0
2214,G4,322.75,0.25,35,112.0
2215,G3,323.0,1.0,33,112.0
2216,F4,323.0,167/1000,41,112.0
2217,B5,323.0,167/1000,52,112.0
2218,F6,323.0,167/1000,52,112.0
2219,G6,323.167,167/1000,40,112.0
2220,G4,323.167,167/1000,31,112.0
2221,F6,323.333,167/1000,40,112.0
2222,F4,323.333,167/1000,31,112.0
2223,E-6,323.5,0.25,41,112.0
2224,E-4,323.5,0.25,33,112.0
2225,D6,323.75,0.25,38,112.0
2226,D4,323.75,0.25,30,112.0
2227,C7,324.0,0.5,39,112.0
2228,G6,324.0,0.5,39,112.0
2229,E-6,324.0,0.5,39,112.0
2230,C6,324.0,0.5,39,112.0
2231,C3,324.0,0.5,32,112.0
2232,C4,324.0,0.5,32,112.0
2233,F3,324.5,0.25,44,112.0
2234,G3,324.75,0.25,40,112.0
2235,F3,325.0,0.25,44,112.0
2236,C4,325.0,2.0,37,112.0
2237,F4,325.0,2.0,37,112.0
2238,G#4,325.0,2.0,37,112.0
2239,C5,325.0,2.0,37,112.0
2240,G3,325.25,0.25,41,112.0
2241,G#3,325.5,0.25,41,112.0
2242,B-3,325.75,0.25,46,112.0
2243,C4,326.0,0.25,49,112.0
2244,G#3,326.25,0.25,46,112.0
2245,G3,326.5,0.25,47,112.0
2246,F3,326.75,0.25,44,112.0
2247,C5,327.0,0.5,60,112.0
2248,G2,327.0,0.5,56,112.0
2249,E-4,327.0,0.25,51,112.0
2250,G4,327.0,0.25,51,112.0
2251,D4,327.25,0.25,46,112.0
2252,G4,327.5,0.5,48,112.0
2253,G3,327.5,0.5,47,112.0
2254,C4,327.5,0.25,39,112.0
2255,E-4,327.5,0.25,39,112.0
2256,G3,327.75,0.25,44,112.0
2257,C5,328.0,0.5,59,112.0
2258,G2,328.0,0.5,56,112.0
2259,E-4,328.0,0.25,50,112.0
2260,G4,328.0,0.25,50,112.0
2261,D4,328.25,0.25,44,112.0
2262,G4,328.5,0.5,46,112.0
2263,G3,328.5,0.5,46,112.0
2264,C4,328.5,0.25,38,112.0
2265,E-4,328.5,0.25,38,112.0
2266,G3,328.75,0.25,44,112.0
2267,B4,329.0,0.5,58,112.0
2268,G2,329.0,0.5,56,112.0
2269,F4,329.0,0.25,49,112.0
2270,G4,329.0,0.25,49,112.0
2271,E-4,329.25,0.25,41,112.0
2272,G4,329.5,0.5,46,112.0
2273,G3,329.5,0.5,46,112.0
2274,D4,329.5,0.25,38,112.0
2275,F4,329.5,0.25,38,112.0
2276,G3,329.75,0.25,41,112.0
2277,E-4,330.0,0.5,59,112.0
2278,G4,330.0,0.5,59,112.0
2279,C5,330.0,0.5,59,112.0
2280,C2,330.0,3.0,61,112.0
2281,C3,330.0,3.0,61,112.0
2282,C5,330.5,0.5,52,112.0
2283,E-4,330.5,0.25,42,112.0
2284,G4,330.5,0.25,42,112.0
2285,D4,330.75,0.25,48,112.0
2286,E-4,331.0,0.5,58,112.0
2287,G4,331.0,0.5,58,112.0
2288,C5,331.0,0.5,58,112.0
2289,C4,331.5,0.25,41,112.0
2290,E-4,331.5,0.5,50,112.0
2291,G4,331.5,0.5,50,112.0
2292,B3,331.75,0.25,48,112.0
2293,C4,332.0,0.5,56,112.0
2294,E-4,332.0,0.5,56,112.0
2295,G4,332.0,0.5,56,112.0
2296,G3,332.5,0.5,50,112.0
2297,G4,333.0,0.5,65,112.0
2298,B-4,333.0,0.5,65,112.0
2299,E-5,333.0,0.5,65,112.0
2300,C#2,333.0,3.0,67,112.0
2301,C#3,333.0,3.0,67,112.0
2302,E-5,333.5,0.5,57,112.0
2303,G4,333.5,0.25,46,112.0
2304,B-4,333.5,0.25,46,112.0
2305,F#4,333.75,0.25,52,112.0
2306,G4,334.0,0.5,63,112.0
2307,B-4,334.0,0.5,63,112.0
2308,E-5,334.0,0.5,63,112.0
2309,E-4,334.5,0.25,45,112.0
2310,G4,334.5,0.5,55,112.0
2311,B-4,334.5,0.5,55,112.0
2312,D4,334.75,0.25,52,112.0
2313,E-4,335.0,0.5,62,112.0
2314,G4,335.0,0.5,62,112.0
2315,B-4,335.0,0.5,62,112.0
2316,B-3,335.5,0.5,55,112.0
2317,E-4,335.5,0.5,55,112.0
2318,G4,335.5,0.5,55,112.0
2319,G4,336.0,0.5,68,112.0
2320,D4,336.0,0.5,68,112.0
2321,B4,336.0,0.5,68,112.0
2322,D5,336.0,0.5,68,112.0
2323,D2,336.0,0.5,57,112.0
2324,D3,336.0,0.5,57,112.0
2325,D5,336.5,0.5,60,112.0
2326,G4,336.5,0.25,63,112.0
2327,B4,336.5,0.25,63,112.0
2328,F#4,336.75,0.25,66,112.0
2329,G4,337.0,0.5,66,112.0
2330,B4,337.0,0.5,66,112.0
2331,D5,337.0,0.5,66,112.0
2332,D3,337.0,0.5,62,112.0
2333,D2,337.0,0.5,62,112.0
2334,G5,337.5,0.5,57,112.0
2335,D5,337.5,0.25,60,112.0
2336,B4,337.5,0.25,60,112.0
2337,B-4,337.75,0.25,63,112.0
2338,B4,338.0,0.5,66,112.0
2339,D5,338.0,0.5,66,112.0
2340,G5,338.0,0.5,66,112.0
2341,D2,338.0,0.5,57,112.0
2342,D3,338.0,0.5,57,112.0
2343,D5,338.5,0.25,64,112.0
2344,B5,338.5,0.5,59,112.0
2345,G5,338.5,0.5,59,112.0
2346,C#5,338.75,0.25,64,112.0
2347,D5,339.0,0.5,74,112.0
2348,G5,339.0,0.5,74,112.0
2349,B5,339.0,0.5,74,112.0
2350,D2,339.0,0.5,60,112.0
2351,D3,339.0,0.5,60,112.0
2352,D6,339.5,0.5,80,112.0
2353,G5,339.5,0.25,67,112.0
2354,D5,339.5,0.25,67,112.0
2355,B5,339.5,0.25,67,112.0
2356,B-5,339.75,0.25,83,112.0
2357,D5,340.0,0.5,73,112.0
2358,G5,340.0,0.5,73,112.0
2359,B5,340.0,0.5,73,112.0
2360,D6,340.0,0.5,73,112.0
2361,D3,340.0,0.5,60,112.0
2362,D2,340.0,0.5,60,112.0
2363,D5,340.5,0.25,73,112.0
2364,D6,340.5,0.25,73,112.0
2365,D5,340.75,0.25,73,112.0
2366,D6,340.75,0.25,73,112.0
2367,D5,341.0,0.5,78,112.0
2368,C6,341.0,0.5,78,112.0
2369,F#5,341.0,0.5,78,112.0
2370,D6,341.0,0.5,78,112.0
2371,D2,341.0,0.5,66,112.0
2372,D3,341.0,0.5,66,112.0
2373,D5,341.5,0.5,72,112.0
2374,D6,341.5,0.5,72,112.0
2375,F#5,341.5,0.5,72,112.0
2376,C6,341.5,0.5,72,112.0
2377,D2,341.5,0.5,61,112.0
2378,D3,341.5,0.5,61,112.0
2379,D4,342.0,0.5,71,112.0
2380,G4,342.0,0.5,71,112.0
2381,B4,342.0,0.5,71,112.0
2382,G2,342.0,1.5,54,112.0
2383,G3,342.0,1.5,54,112.0
2384,B4,342.5,0.5,63,112.0
2385,D4,342.5,0.25,66,112.0
2386,G4,342.5,0.25,66,112.0
2387,F#4,342.75,0.25,70,112.0
2388,F4,343.0,0.5,72,112.0
2389,B4,343.0,0.5,72,112.0
2390,E4,343.5,0.25,70,112.0
2391,B4,343.5,0.5,63,112.0
2392,D2,343.5,0.5,46,112.0
2393,D3,343.5,0.5,46,112.0
2394,E-4,343.75,0.25,75,112.0
2395,D4,344.0,0.5,74,112.0
2396,F#4,344.0,0.5,74,112.0
2397,C5,344.0,0.5,74,112.0
2398,A2,344.0,0.5,51,112.0
2399,A3,344.0,0.5,51,112.0
2400,F#4,344.5,0.25,72,112.0
2401,C5,344.5,0.5,66,112.0
2402,D2,344.5,0.5,56,112.0
2403,D3,344.5,0.5,56,112.0
2404,D4,344.75,0.25,72,112.0
2405,D4,345.0,0.5,77,112.0
2406,G4,345.0,0.5,77,112.0
2407,B4,345.0,0.5,77,112.0
2408,G2,345.0,1.5,60,112.0
2409,G3,345.0,1.5,60,112.0
2410,B4,345.5,0.5,69,112.0
2411,D4,345.5,0.25,72,112.0
2412,G4,345.5,0.25,72,112.0
2413,F#4,345.75,0.25,75,112.0
2414,F4,346.0,0.5,76,112.0
2415,B4,346.0,0.5,76,112.0
2416,E4,346.5,0.25,70,112.0
2417,B4,346.5,0.5,63,112.0
2418,D2,346.5,0.5,57,112.0
2419,D3,346.5,0.5,57,112.0
2420,E-4,346.75,0.25,71,112.0
2421,D4,347.0,0.5,74,112.0
2422,F#4,347.0,0.5,74,112.0
2423,C5,347.0,0.5,74,112.0
2424,A2,347.0,0.5,54,112.0
2425,A3,347.0,0.5,54,112.0
2426,F#4,347.5,0.25,71,112.0
2427,C5,347.5,0.5,64,112.0
2428,D2,347.5,0.5,50,112.0
2429,D3,347.5,0.5,50,112.0
2430,D4,347.75,0.25,71,112.0
2431,G4,348.0,2.0,58,112.0
2432,B4,348.0,2.0,58,112.0
2433,D5,348.0,2.0,58,112.0
2434,G5,348.0,2.0,58,112.0
2435,G2,348.0,2.0,43,112.0
2436,G3,348.0,2.0,43,112.0
2437,D3,348.5,0.25,49,112.0
2438,E3,348.75,0.25,49,112.0
2439,D3,349.0,0.25,52,112.0
2440,D3,349.5,0.25,49,112.0
2441,F#4,350.0,0.75,56,112.0
2442,C5,350.0,0.75,56,112.0
2443,F#5,350.0,0.75,56,112.0
2444,G2,350.0,1.0,43,112.0
2445,A3,350.0,1.0,43,112.0
2446,D3,350.5,0.5,47,112.0
2447,D5,350.75,0.25,63,112.0
2448,E5,351.0,0.5,69,112.0
2449,G4,351.0,2.0,58,112.0
2450,B4,351.0,2.0,58,112.0
2451,G2,351.0,2.0,47,112.0
2452,B3,351.0,2.0,47,112.0
2453,E5,351.5,167/1000,60,112.0
2454,D3,351.5,0.25,49,112.0
2455,F#5,351.667,167/1000,60,112.0
2456,E3,351.75,0.25,49,112.0
2457,E5,351.833,167/1000,60,112.0
2458,D5,352.0,1.0,64,112.0
2459,D3,352.0,0.25,52,112.0
2460,D3,352.5,0.25,49,112.0
2461,C4,353.0,0.75,43,112.0
2462,C5,353.0,0.75,43,112.0
2463,D4,353.0,0.75,43,112.0
2464,F#4,353.0,0.75,43,112.0
2465,A4,353.0,0.75,43,112.0
2466,G2,353.0,1.0,43,112.0
2467,A3,353.0,1.0,43,112.0
2468,D3,353.5,0.5,40,112.0
2469,A4,353.75,0.25,53,112.0
2470,B4,354.0,0.25,63,112.0
2471,D4,354.0,1.5,45,112.0
2472,G4,354.0,1.5,45,112.0
2473,G2,354.0,2.0,38,112.0
2474,G3,354.0,2.0,38,112.0
2475,C5,354.25,0.25,57,112.0
2476,D5,354.5,0.5,60,112.0
2477,D3,354.5,0.25,44,112.0
2478,E3,354.75,0.25,44,112.0
2479,D5,355.0,1.0,60,112.0
2480,D3,355.0,0.25,47,112.0
2481,B3,355.5,0.25,42,112.0
2482,D3,355.5,0.25,44,112.0
2483,D4,355.75,0.25,38,112.0
2484,C4,356.0,0.25,42,112.0
2485,G2,356.0,1.0,41,112.0
2486,F#3,356.0,1.0,41,112.0
2487,D4,356.25,0.25,38,112.0
2488,C4,356.5,0.25,42,112.0
2489,D3,356.5,0.5,41,112.0
2490,D4,356.75,0.25,38,112.0
2491,B3,357.0,0.5,48,112.0
2492,G2,357.0,2.0,43,112.0
2493,G3,357.0,2.0,43,112.0
2494,B3,357.5,1.5,42,112.0
2495,D4,357.5,0.25,42,112.0
2496,D3,357.5,0.25,49,112.0
2497,E4,357.75,0.25,39,112.0
2498,E3,357.75,0.25,49,112.0
2499,D4,358.0,0.25,46,112.0
2500,D3,358.0,0.25,52,112.0
2501,E4,358.25,0.25,40,112.0
2502,G4,358.5,0.25,48,112.0
2503,D3,358.5,0.25,49,112.0
2504,E4,358.75,0.25,44,112.0
2505,C4,359.0,1.0,46,112.0
2506,F#4,359.0,0.5,51,112.0
2507,G2,359.0,1.0,44,112.0
2508,A3,359.0,1.0,44,112.0
2509,E4,359.5,0.25,48,112.0
2510,D3,359.5,0.5,47,112.0
2511,D4,359.75,0.25,48,112.0
2512,G4,360.0,2.0,63,112.0
2513,B4,360.0,2.0,63,112.0
2514,D5,360.0,2.0,63,112.0
2515,G5,360.0,2.0,63,112.0
2516,G2,360.0,2.0,46,112.0
2517,G3,360.0,2.0,46,112.0
2518,D3,360.5,0.25,53,112.0
2519,E3,360.75,0.25,53,112.0
2520,D3,361.0,0.25,57,112.0
2521,D3,361.5,0.25,53,112.0
2522,F#4,362.0,0.75,58,112.0
2523,C5,362.0,0.75,58,112.0
2524,F#5,362.0,0.75,58,112.0
2525,G2,362.0,1.0,43,112.0
2526,A3,362.0,1.0,43,112.0
2527,D3,362.5,0.5,47,112.0
2528,D5,362.75,0.25,66,112.0
2529,E5,363.0,0.5,69,112.0
2530,G4,363.0,2.0,58,112.0
2531,B4,363.0,2.0,58,112.0
2532,G2,363.0,2.0,47,112.0
2533,B3,363.0,2.0,47,112.0
2534,E5,363.5,167/1000,60,112.0
2535,D3,363.5,0.25,49,112.0
2536,F#5,363.667,167/1000,60,112.0
2537,E3,363.75,0.25,49,112.0
2538,E5,363.833,167/1000,60,112.0
2539,D5,364.0,1.0,64,112.0
2540,D3,364.0,0.25,52,112.0
2541,D3,364.5,0.25,49,112.0
2542,C4,365.0,0.75,43,112.0
2543,C5,365.0,0.75,43,112.0
2544,D4,365.0,0.75,43,112.0
2545,F#4,365.0,0.75,43,112.0
2546,A4,365.0,0.75,43,112.0
2547,G2,365.0,1.0,43,112.0
2548,A3,365.0,1.0,43,112.0
2549,D3,365.5,0.5,40,112.0
2550,A4,365.75,0.25,53,112.0
2551,B4,366.0,0.25,63,112.0
2552,D4,366.0,1.5,45,112.0
2553,G4,366.0,1.5,45,112.0
2554,G2,366.0,2.0,38,112.0
2555,G3,366.0,2.0,38,112.0
2556,C5,366.25,0.25,57,112.0
2557,D5,366.5,0.5,60,112.0
2558,D3,366.5,0.25,44,112.0
2559,E3,366.75,0.25,44,112.0
2560,D5,367.0,1.0,60,112.0
2561,D3,367.0,0.25,47,112.0
2562,B3,367.5,0.25,42,112.0
2563,D3,367.5,0.25,44,112.0
2564,D4,367.75,0.25,38,112.0
2565,C4,368.0,0.25,42,112.0
2566,G2,368.0,1.0,41,112.0
2567,F#3,368.0,1.0,41,112.0
2568,D4,368.25,0.25,38,112.0
2569,C4,368.5,0.25,42,112.0
2570,D3,368.5,0.5,41,112.0
2571,D4,368.75,0.25,38,112.0
2572,B3,369.0,0.5,48,112.0
2573,G2,369.0,2.0,43,112.0
2574,G3,369.0,2.0,43,112.0
2575,B3,369.5,1.5,42,112.0
2576,D4,369.5,0.25,42,112.0
2577,D3,369.5,0.25,49,112.0
2578,E4,369.75,0.25,39,112.0
2579,E3,369.75,0.25,49,112.0
2580,D4,370.0,0.25,46,112.0
2581,D3,370.0,0.25,52,112.0
2582,E4,370.25,0.25,40,112.0
2583,G4,370.5,0.25,48,112.0
2584,D3,370.5,0.25,49,112.0
2585,E4,370.75,0.25,44,112.0
2586,C4,371.0,1.0,42,112.0
2587,F#4,371.0,0.5,51,112.0
2588,G2,371.0,1.0,43,112.0
2589,A3,371.0,1.0,43,112.0
2590,E4,371.5,0.25,48,112.0
2591,D3,371.5,0.5,47,112.0
2592,D4,371.75,0.25,48,112.0
2593,G4,372.0,2.0,67,112.0
2594,D5,372.0,2.0,67,112.0
2595,G5,372.0,2.0,67,112.0
2596,G2,372.0,2.0,48,112.0
2597,B-3,372.0,2.0,48,112.0
2598,D3,372.5,0.25,56,112.0
2599,E-3,372.75,0.25,56,112.0
2600,D3,373.0,0.25,59,112.0
2601,D3,373.5,0.25,56,112.0
2602,F4,374.0,0.75,58,112.0
2603,A4,374.0,0.75,58,112.0
2604,F5,374.0,0.75,58,112.0
2605,F2,374.0,1.0,44,112.0
2606,E-4,374.0,1.0,44,112.0
2607,F3,374.5,0.5,49,112.0
2608,C5,374.75,0.25,68,112.0
2609,D5,375.0,0.5,72,112.0
2610,F4,375.0,2.0,60,112.0
2611,B-4,375.0,2.0,60,112.0
2612,B-2,375.0,2.0,49,112.0
2613,D4,375.0,2.0,49,112.0
2614,D5,375.5,0.25,66,112.0
2615,F3,375.5,0.25,51,112.0
2616,E-5,375.75,0.25,66,112.0
2617,G3,375.75,0.25,51,112.0
2618,F5,376.0,1.0,72,112.0
2619,F3,376.0,0.25,55,112.0
2620,F3,376.5,0.25,51,112.0
2621,E-5,377.0,0.75,49,112.0
2622,F4,377.0,0.75,49,112.0
2623,A4,377.0,0.75,49,112.0
2624,B-2,377.0,1.0,44,112.0
2625,E-4,377.0,1.0,44,112.0
2626,F3,377.5,0.5,41,112.0
2627,C5,377.75,0.25,56,112.0
2628,D5,378.0,0.25,72,112.0
2629,B-4,378.0,2.0,44,112.0
2630,F4,378.0,2.0,44,112.0
2631,B-2,378.0,2.0,44,112.0
2632,D4,378.0,2.0,44,112.0
2633,E-5,378.25,0.25,63,112.0
2634,D5,378.5,0.25,68,112.0
2635,F3,378.5,0.25,51,112.0
2636,E-5,378.75,0.25,61,112.0
2637,G3,378.75,0.25,51,112.0
2638,F5,379.0,0.25,70,112.0
2639,F3,379.0,0.25,55,112.0
2640,G5,379.25,0.25,62,112.0
2641,A5,379.5,0.25,69,112.0
2642,F3,379.5,0.25,51,112.0
2643,G5,379.75,0.25,60,112.0
2644,A4,380.0,1.0,44,112.0
2645,F5,380.0,0.25,69,112.0
2646,B-2,380.0,1.0,44,112.0
2647,E-4,380.0,1.0,44,112.0
2648,E-5,380.25,0.25,69,112.0
2649,D5,380.5,0.25,74,112.0
2650,F3,380.5,0.5,49,112.0
2651,C5,380.75,0.25,69,112.0
2652,D5,381.0,0.25,77,112.0
2653,B-4,381.0,2.0,50,112.0
2654,F4,381.0,2.0,50,112.0
2655,B-2,381.0,2.0,44,112.0
2656,D4,381.0,2.0,44,112.0
2657,E-5,381.25,0.25,66,112.0
2658,D5,381.5,0.25,72,112.0
2659,F3,381.5,0.25,51,112.0
2660,E-5,381.75,0.25,61,112.0
2661,G3,381.75,0.25,51,112.0
2662,F5,382.0,0.25,70,112.0
2663,F3,382.0,0.25,55,112.0
2664,G5,382.25,0.25,62,112.0
2665,A5,382.5,0.25,69,112.0
2666,F3,382.5,0.25,51,112.0
2667,G5,382.75,0.25,60,112.0
2668,A4,383.0,1.0,61,112.0
2669,F5,383.0,0.25,67,112.0
2670,B-2,383.0,1.0,46,112.0
2671,E-4,383.0,1.0,46,112.0
2672,E-5,383.25,0.25,66,112.0
2673,D5,383.5,0.25,63,112.0
2674,F3,383.5,0.5,42,112.0
2675,C5,383.75,0.25,62,112.0
2676,F4,384.0,2.0,61,112.0
2677,B-4,384.0,2.0,61,112.0
2678,D5,384.0,2.0,61,112.0
2679,B-2,384.0,2.0,44,112.0
2680,D4,384.0,2.0,44,112.0
2681,F3,384.5,0.25,44,112.0
2682,G3,384.75,0.25,44,112.0
2683,F3,385.0,0.25,49,112.0
2684,F3,385.5,0.25,45,112.0
2685,A2,386.0,1.0,36,112.0
2686,A3,386.0,0.5,44,112.0
2687,C5,386.0,0.5,60,112.0
2688,D5,386.0,0.5,60,112.0
2689,D4,386.0,1.0,48,112.0
2690,F#4,386.0,1.0,48,112.0
2691,D5,386.5,0.25,58,112.0
2692,D3,386.5,0.5,44,112.0
2693,C5,386.75,0.25,58,112.0
2694,B4,387.0,1.5,69,112.0
2695,G2,387.0,2.0,39,112.0
2696,G3,387.0,0.5,48,112.0
2697,D4,387.0,2.0,54,112.0
2698,G4,387.0,2.0,54,112.0
2699,G3,387.5,0.25,44,112.0
2700,G#3,387.75,0.25,44,112.0
2701,G3,388.0,0.25,49,112.0
2702,C5,388.5,0.25,58,112.0
2703,G3,388.5,0.25,45,112.0
2704,D5,388.75,0.25,58,112.0
2705,E-5,389.0,0.5,62,112.0
2706,C3,389.0,1.0,36,112.0
2707,G3,389.0,0.5,44,112.0
2708,G4,389.0,1.0,48,112.0
2709,C5,389.0,1.0,48,112.0
2710,F5,389.5,0.25,58,112.0
2711,A3,389.5,0.5,44,112.0
2712,E-5,389.75,0.25,58,112.0
2713,G4,390.0,1.0,59,112.0
2714,D5,390.0,0.5,74,112.0
2715,D3,390.0,2.0,39,112.0
2716,B3,390.0,0.5,48,112.0
2717,B4,390.5,0.25,58,112.0
2718,D4,390.5,0.25,44,112.0
2719,C5,390.75,0.25,58,112.0
2720,E4,390.75,0.25,44,112.0
2721,G4,391.0,1.0,49,112.0
2722,D4,391.0,0.25,49,112.0
2723,B4,391.0,0.5,60,112.0
2724,D5,391.0,0.5,60,112.0
2725,B4,391.5,0.25,55,112.0
2726,D4,391.5,0.25,45,112.0
2727,C5,391.75,0.25,55,112.0
2728,B4,392.0,0.5,60,112.0
2729,D3,392.0,1.0,36,112.0
2730,C4,392.0,0.5,44,112.0
2731,D4,392.0,1.0,46,112.0
2732,F#4,392.0,1.0,46,112.0
2733,A4,392.5,0.25,55,112.0
2734,C4,392.5,0.5,41,112.0
2735,B4,392.75,0.25,55,112.0
2736,D4,393.0,0.5,58,112.0
2737,G4,393.0,0.5,58,112.0
2738,G2,393.0,1.5,43,112.0
2739,B3,393.0,1.5,43,112.0
2740,B4,393.5,0.5,51,112.0
2741,D4,393.5,0.25,54,112.0
2742,G4,393.5,0.25,54,112.0
2743,F#4,393.75,0.25,56,112.0
2744,F4,394.0,0.5,58,112.0
2745,B4,394.0,0.5,58,112.0
2746,E4,394.5,0.25,56,112.0
2747,B4,394.5,0.5,51,112.0
2748,D2,394.5,0.5,37,112.0
2749,D3,394.5,0.5,37,112.0
2750,E-4,394.75,0.25,60,112.0
2751,D4,395.0,0.5,60,112.0
2752,F#4,395.0,0.5,60,112.0
2753,C5,395.0,0.5,60,112.0
2754,A2,395.0,0.5,41,112.0
2755,A3,395.0,0.5,41,112.0
2756,F#4,395.5,0.25,58,112.0
2757,C5,395.5,0.5,53,112.0
2758,D2,395.5,0.5,45,112.0
2759,D3,395.5,0.5,45,112.0
2760,D4,395.75,0.25,58,112.0
2761,D4,396.0,0.5,62,112.0
2762,G4,396.0,0.5,62,112.0
2763,B4,396.0,0.5,62,112.0
2764,G2,396.0,1.5,48,112.0
2765,G3,396.0,1.5,48,112.0
2766,B4,396.5,0.5,55,112.0
2767,D4,396.5,0.25,58,112.0
2768,G4,396.5,0.25,58,112.0
2769,F#4,396.75,0.25,60,112.0
2770,F4,397.0,0.5,62,112.0
2771,B4,397.0,0.5,62,112.0
2772,E4,397.5,0.25,56,112.0
2773,B4,397.5,0.5,51,112.0
2774,D2,397.5,0.5,46,112.0
2775,D3,397.5,0.5,46,112.0
2776,E-4,397.75,0.25,57,112.0
2777,D4,398.0,0.5,60,112.0
2778,F#4,398.0,0.5,60,112.0
2779,C5,398.0,0.5,60,112.0
2780,A2,398.0,0.5,43,112.0
2781,A3,398.0,0.5,43,112.0
2782,F#4,398.5,0.25,57,112.0
2783,C5,398.5,0.5,52,112.0
2784,D2,398.5,0.5,40,112.0
2785,D3,398.5,0.5,40,112.0
2786,D4,398.75,0.25,57,112.0
2787,D4,399.0,0.5,62,112.0
2788,G4,399.0,0.5,62,112.0
2789,B4,399.0,0.5,62,112.0
2790,G2,399.0,0.25,48,112.0
2791,G3,399.0,0.25,48,112.0
2792,B4,399.5,0.5,55,112.0
2793,D4,399.5,0.25,58,112.0
2794,G4,399.5,0.25,58,112.0
2795,F#4,399.75,0.25,60,112.0
2796,G3,400.0,0.25,52,112.0
2797,D4,400.0,0.5,61,112.0
2798,G4,400.0,0.5,61,112.0
2799,B4,400.0,0.5,61,112.0
2800,D5,400.5,0.5,51,112.0
2801,B4,400.5,0.25,54,112.0
2802,G4,400.5,0.25,54,112.0
2803,B-4,400.75,0.25,57,112.0
2804,D4,401.0,0.25,47,112.0
2805,G4,401.0,0.5,60,112.0
2806,B4,401.0,0.5,60,112.0
2807,D5,401.0,0.5,60,112.0
2808,G5,401.5,0.5,52,112.0
2809,B4,401.5,0.25,54,112.0
2810,D5,401.5,0.25,54,112.0
2811,C#5,401.75,0.25,57,112.0
2812,G4,402.0,0.25,52,112.0
2813,D5,402.0,0.5,62,112.0
2814,G5,402.0,0.5,62,112.0
2815,B5,402.0,0.5,62,112.0
2816,B5,402.5,0.5,55,112.0
2817,D5,402.5,0.25,58,112.0
2818,G5,402.5,0.25,58,112.0
2819,F#5,402.75,0.25,60,112.0
2820,B4,403.0,0.25,52,112.0
2821,D5,403.0,0.5,61,112.0
2822,G5,403.0,0.5,61,112.0
2823,B5,403.0,0.5,61,112.0
2824,D6,403.5,0.5,51,112.0
2825,B5,403.5,0.25,54,112.0
2826,G5,403.5,0.25,54,112.0
2827,B-5,403.75,0.25,57,112.0
2828,D5,404.0,0.25,47,112.0
2829,G5,404.0,0.5,57,112.0
2830,B5,404.0,0.5,57,112.0
2831,D6,404.0,0.5,57,112.0
2832,G6,404.5,0.5,51,112.0
2833,B5,404.5,0.25,54,112.0
2834,D6,404.5,0.25,54,112.0
2835,C#6,404.75,0.25,56,112.0
2836,G5,405.0,0.25,47,112.0
2837,B5,405.0,0.5,59,112.0
2838,D6,405.0,0.5,59,112.0
2839,G6,405.0,0.5,59,112.0
2840,G6,405.5,0.5,50,112.0
2841,B5,405.5,0.25,52,112.0
2842,D6,405.5,0.25,52,112.0
2843,B-5,405.75,0.25,53,112.0
2844,G5,406.0,0.25,45,112.0
2845,B5,406.0,0.5,55,112.0
2846,D6,406.0,0.5,55,112.0
2847,G6,406.0,0.5,55,112.0
2848,G6,406.5,0.5,48,112.0
2849,B5,406.5,0.25,50,112.0
2850,D6,406.5,0.25,50,112.0
2851,B-5,406.75,0.25,51,112.0
2852,G5,407.0,0.25,42,112.0
2853,B5,407.0,0.5,53,112.0
2854,D6,407.0,0.5,53,112.0
2855,G6,407.0,0.5,53,112.0
2856,G6,407.5,0.5,45,112.0
2857,B5,407.5,0.25,47,112.0
2858,D6,407.5,0.25,47,112.0
2859,B-5,407.75,0.25,49,112.0
2860,G5,408.0,0.25,40,112.0
2861,B5,408.0,0.5,50,112.0
2862,D6,408.0,0.5,50,112.0
2863,G6,408.0,0.5,50,112.0
2864,G6,408.5,0.5,42,112.0
2865,B5,408.5,0.25,44,112.0
2866,D6,408.5,0.25,44,112.0
2867,B-5,408.75,0.25,46,112.0
2868,G5,409.0,0.25,38,112.0
2869,B5,409.0,0.5,47,112.0
2870,D6,409.0,0.5,47,112.0
2871,G6,409.0,0.5,47,112.0
2872,G6,409.5,0.5,40,112.0
2873,B5,409.5,0.25,42,112.0
2874,D6,409.5,0.25,42,112.0
2875,B-5,409.75,0.25,42,112.0
2876,G5,410.0,0.25,36,112.0
2877,B5,410.0,0.5,45,112.0
2878,D6,410.0,0.5,45,112.0
2879,G6,410.0,0.5,45,112.0
2880,G6,410.5,0.5,38,112.0
2881,B5,410.5,0.25,40,112.0
2882,D6,410.5,0.25,40,112.0
2883,B-5,410.75,0.25,40,112.0
2884,B5,411.0,3.0,34,112.0
2885,D6,411.0,3.0,34,112.0
2886,G6,411.0,3.0,34,112.0
2887,G4,411.0,3.0,32,112.0
2888,D5,411.0,3.0,32,112.0
2889,B5,416.0,2.0,34,112.0
2890,D6,416.0,2.0,34,112.0
2891,G6,416.0,2.0,34,112.0
2892,G4,416.0,2.0,32,112.0
2893,D5,416.0,2.0,32,112.0
2894,B5,418.0,1.0,86,112.0
2895,D6,418.0,1.0,86,112.0
2896,G6,418.0,1.0,86,112.0
2897,B6,418.0,1.0,86,112.0
2898,G4,418.0,1.0,74,112.0
2899,D5,418.0,1.0,74,112.0
2900,G5,418.0,1.0,74,112.0
2901,G3,419.0,3.0,99,112.0
2902,G1,419.0,3.0,80,112.0
2903,G2,419.0,3.0,80,112.0
