,note_name,start_time,duration,velocity,tempo
0,B4,0.0,0.25,58,119.0
1,B3,0.0,0.25,49,119.0
2,E-5,0.5,0.25,55,119.0
3,E-4,0.5,0.25,46,119.0
4,F#5,1.0,0.25,55,119.0
5,F#4,1.0,0.25,46,119.0
6,E5,1.5,167/1000,59,119.0
7,E4,1.5,167/1000,49,119.0
8,F#5,1.667,167/1000,55,119.0
9,F#4,1.667,167/1000,46,119.0
10,E5,1.833,167/1000,55,119.0
11,E4,1.833,167/1000,46,119.0
12,C5,2.0,0.25,59,119.0
13,C4,2.0,0.25,49,119.0
14,A5,2.5,0.25,55,119.0
15,A4,2.5,0.25,46,119.0
16,B4,3.0,0.25,58,119.0
17,B3,3.0,0.25,49,119.0
18,E-5,3.5,0.25,55,119.0
19,E-4,3.5,0.25,46,119.0
20,F#5,4.0,0.25,55,119.0
21,F#4,4.0,0.25,46,119.0
22,E5,4.5,167/1000,59,119.0
23,E4,4.5,167/1000,49,119.0
24,F#5,4.667,167/1000,55,119.0
25,F#4,4.667,167/1000,46,119.0
26,E5,4.833,167/1000,55,119.0
27,E4,4.833,167/1000,46,119.0
28,C5,5.0,0.25,59,119.0
29,C4,5.0,0.25,49,119.0
30,A5,5.5,0.25,53,119.0
31,A4,5.5,0.25,46,119.0
32,B3,5.875,0.125,49,119.0
33,B4,6.0,0.25,58,119.0
34,F#4,6.0,1.5,49,119.0
35,E-5,6.5,0.25,55,119.0
36,F#5,7.0,0.25,55,119.0
37,E5,7.5,167/1000,59,119.0
38,F#4,7.5,1.5,49,119.0
39,F#5,7.667,167/1000,55,119.0
40,E5,7.833,167/1000,55,119.0
41,C5,8.0,0.25,59,119.0
42,A5,8.5,0.25,55,119.0
43,B4,9.0,0.25,58,119.0
44,F#4,9.0,1.5,49,119.0
45,E-5,9.5,0.25,55,119.0
46,F#5,10.0,0.25,55,119.0
47,E5,10.5,167/1000,59,119.0
48,F#4,10.5,0.5,49,119.0
49,F#5,10.667,167/1000,55,119.0
50,E5,10.833,167/1000,55,119.0
51,C5,11.0,0.25,59,119.0
52,G4,11.015,0.5,52,119.0
53,A5,11.5,0.25,55,119.0
54,F#4,11.529,471/1000,49,119.0
55,B4,12.0,0.25,58,119.0
56,A4,12.0,1.0,49,119.0
57,F#4,12.0,29/1000,49,119.0
58,E-5,12.5,0.25,55,119.0
59,F#5,13.0,0.25,55,119.0
60,G4,13.0,167/1000,49,119.0
61,A4,13.167,167/1000,45,119.0
62,G4,13.333,167/1000,45,119.0
63,E5,13.5,167/1000,59,119.0
64,F#4,13.5,1.5,49,119.0
65,F#5,13.667,167/1000,55,119.0
66,E5,13.833,167/1000,55,119.0
67,C5,14.0,0.25,59,119.0
68,A5,14.5,0.25,55,119.0
69,B4,15.0,0.25,58,119.0
70,F#4,15.0,1.5,49,119.0
71,E-5,15.5,0.25,55,119.0
72,F#5,16.0,0.25,55,119.0
73,E5,16.5,167/1000,59,119.0
74,F#4,16.5,1.5,49,119.0
75,F#5,16.667,167/1000,55,119.0
76,E5,16.833,167/1000,55,119.0
77,C5,17.0,0.25,59,119.0
78,A5,17.5,0.25,55,119.0
79,B4,18.0,0.25,58,119.0
80,F#4,18.0,1.5,49,119.0
81,E-5,18.5,0.25,55,119.0
82,F#5,19.0,0.25,55,119.0
83,C5,19.5,0.25,63,119.0
84,E4,19.5,1.25,49,119.0
85,G5,20.0,0.25,58,119.0
86,C6,20.5,0.25,59,119.0
87,F#4,20.75,0.125,51,119.0
88,E4,20.875,0.125,53,119.0
89,F#5,21.0,0.25,71,119.0
90,D4,21.0,1.5,56,119.0
91,B5,21.5,0.25,61,119.0
92,F#6,22.0,0.25,63,119.0
93,E6,22.5,0.5,74,119.0
94,C4,22.5,1.5,60,119.0
95,F#4,22.5,1.5,60,119.0
96,A6,23.0,0.5,75,119.0
97,E7,23.5,0.5,80,119.0
98,E-6,23.875,0.125,67,119.0
99,B6,23.938,0.062,74,119.0
100,F#7,24.0,0.5,88,119.0
101,E-6,24.0,0.5,67,119.0
102,B6,24.0,0.5,74,119.0
103,B3,24.0,1.5,70,119.0
104,E-5,24.5,0.25,72,119.0
105,A4,24.5,0.25,61,119.0
106,F#5,25.0,0.25,71,119.0
107,F#4,25.0,0.25,61,119.0
108,E5,25.5,167/1000,77,119.0
109,G4,25.5,0.25,71,119.0
110,B3,25.5,1.5,70,119.0
111,F#5,25.667,167/1000,70,119.0
112,E5,25.833,167/1000,69,119.0
113,C5,26.0,0.25,77,119.0
114,E4,26.0,0.25,64,119.0
115,A5,26.5,0.25,71,119.0
116,G4,26.5,0.25,64,119.0
117,B4,27.0,0.25,79,119.0
118,F#4,27.0,0.25,69,119.0
119,B3,27.0,1.5,70,119.0
120,E-5,27.5,0.25,72,119.0
121,A4,27.5,0.25,61,119.0
122,F#5,28.0,0.25,71,119.0
123,F#4,28.0,0.25,61,119.0
124,E5,28.5,167/1000,77,119.0
125,G4,28.5,0.25,69,119.0
126,B3,28.5,1.5,70,119.0
127,F#5,28.667,167/1000,70,119.0
128,E5,28.833,167/1000,69,119.0
129,C5,29.0,0.25,77,119.0
130,E4,29.0,0.25,64,119.0
131,A5,29.5,0.25,71,119.0
132,G4,29.5,0.25,64,119.0
133,E-4,30.0,0.5,62,119.0
134,B5,30.0,0.5,74,119.0
135,F#5,30.0,0.5,74,119.0
136,D4,30.5,0.5,61,119.0
137,G#5,30.5,0.5,67,119.0
138,F5,30.5,0.5,67,119.0
139,C#4,31.0,0.5,59,119.0
140,A5,31.0,0.5,71,119.0
141,E5,31.0,0.5,71,119.0
142,C4,31.5,0.5,53,119.0
143,F#5,31.5,0.5,67,119.0
144,E-5,31.5,0.5,67,119.0
145,B3,32.0,0.5,56,119.0
146,D5,32.0,0.5,70,119.0
147,G5,32.0,0.5,70,119.0
148,F#3,32.5,0.5,50,119.0
149,C5,32.5,0.5,58,119.0
150,D5,32.5,0.5,58,119.0
151,G3,33.0,0.25,55,119.0
152,B4,33.0,0.25,69,119.0
153,D5,33.0,0.25,69,119.0
154,G4,33.5,0.25,63,119.0
155,B3,33.5,0.25,50,119.0
156,B4,34.0,0.25,60,119.0
157,G3,34.0,0.25,50,119.0
158,A4,34.5,0.125,63,119.0
159,C4,34.5,0.25,61,119.0
160,A4,34.75,0.125,58,119.0
161,E5,35.0,0.25,64,119.0
162,F#4,35.0,0.25,57,119.0
163,C4,35.5,0.25,57,119.0
164,E5,35.5,0.25,59,119.0
165,A5,35.5,0.25,59,119.0
166,B3,35.875,0.125,49,119.0
167,B4,36.0,0.25,58,119.0
168,F#4,36.0,1.5,49,119.0
169,E-5,36.5,0.25,55,119.0
170,F#5,37.0,0.25,55,119.0
171,E5,37.5,167/1000,59,119.0
172,F#4,37.5,1.5,49,119.0
173,F#5,37.667,167/1000,55,119.0
174,E5,37.833,167/1000,55,119.0
175,C5,38.0,0.25,59,119.0
176,A5,38.5,0.25,55,119.0
177,B4,39.0,0.25,58,119.0
178,F#4,39.0,1.5,49,119.0
179,E-5,39.5,0.25,55,119.0
180,F#5,40.0,0.25,55,119.0
181,E5,40.5,167/1000,59,119.0
182,F#4,40.5,0.5,49,119.0
183,F#5,40.667,167/1000,55,119.0
184,E5,40.833,167/1000,55,119.0
185,C5,41.0,0.25,59,119.0
186,G4,41.0,0.5,52,119.0
187,A5,41.5,0.25,55,119.0
188,F#4,41.5,0.5,49,119.0
189,B4,42.0,0.25,58,119.0
190,A4,42.0,1.0,49,119.0
191,E-5,42.5,0.25,55,119.0
192,F#5,43.0,0.25,55,119.0
193,G4,43.0,167/1000,49,119.0
194,A4,43.167,167/1000,45,119.0
195,G4,43.333,167/1000,45,119.0
196,E5,43.5,167/1000,59,119.0
197,F#4,43.5,1.5,49,119.0
198,F#5,43.667,167/1000,55,119.0
199,E5,43.833,167/1000,55,119.0
200,C5,44.0,0.25,59,119.0
201,A5,44.5,0.25,55,119.0
202,B4,45.0,0.25,58,119.0
203,F#4,45.0,1.5,49,119.0
204,E-5,45.5,0.25,55,119.0
205,F#5,46.0,0.25,55,119.0
206,E5,46.5,167/1000,59,119.0
207,F#4,46.5,1.5,49,119.0
208,F#5,46.667,167/1000,55,119.0
209,E5,46.833,167/1000,55,119.0
210,C5,47.0,0.25,59,119.0
211,A5,47.5,0.25,55,119.0
212,B4,48.0,0.25,58,119.0
213,F#4,48.0,1.5,49,119.0
214,E-5,48.5,0.25,55,119.0
215,F#5,49.0,0.25,55,119.0
216,C5,49.5,0.25,63,119.0
217,E4,49.5,1.25,49,119.0
218,G5,50.0,0.25,58,119.0
219,C6,50.5,0.25,59,119.0
220,F#4,50.75,0.125,51,119.0
221,E4,50.875,0.125,53,119.0
222,F#5,51.0,0.25,71,119.0
223,D4,51.0,1.5,56,119.0
224,B5,51.5,0.25,61,119.0
225,F#6,52.0,0.25,63,119.0
226,E6,52.5,0.5,74,119.0
227,C4,52.5,1.5,60,119.0
228,F#4,52.5,1.5,60,119.0
229,A6,53.0,0.5,75,119.0
230,E7,53.5,0.5,80,119.0
231,E-6,53.875,0.125,67,119.0
232,B6,53.938,0.062,74,119.0
233,F#7,54.0,0.5,88,119.0
234,E-6,54.0,0.5,67,119.0
235,B6,54.0,0.5,74,119.0
236,B3,54.0,1.5,70,119.0
237,E-5,54.5,0.25,72,119.0
238,A4,54.5,0.25,61,119.0
239,F#5,55.0,0.25,71,119.0
240,F#4,55.0,0.25,61,119.0
241,E5,55.5,167/1000,77,119.0
242,G4,55.5,0.25,71,119.0
243,B3,55.5,1.5,70,119.0
244,F#5,55.667,167/1000,70,119.0
245,E5,55.833,167/1000,69,119.0
246,C5,56.0,0.25,77,119.0
247,E4,56.0,0.25,64,119.0
248,A5,56.5,0.25,71,119.0
249,G4,56.5,0.25,64,119.0
250,B4,57.0,0.25,79,119.0
251,F#4,57.0,0.25,69,119.0
252,B3,57.0,1.5,70,119.0
253,E-5,57.5,0.25,72,119.0
254,A4,57.5,0.25,61,119.0
255,F#5,58.0,0.25,71,119.0
256,F#4,58.0,0.25,61,119.0
257,E5,58.5,167/1000,77,119.0
258,G4,58.5,0.25,69,119.0
259,B3,58.5,1333/1000,70,119.0
260,F#5,58.667,167/1000,70,119.0
261,E5,58.833,167/1000,69,119.0
262,C5,59.0,0.25,77,119.0
263,E4,59.0,0.25,64,119.0
264,A5,59.5,0.25,71,119.0
265,G4,59.5,0.25,64,119.0
266,B3,59.875,0.125,62,119.0
267,B4,60.0,1.5,82,119.0
268,E-5,60.5,0.25,75,119.0
269,F#5,61.0,0.25,74,119.0
270,E5,61.5,1.5,56,119.0
271,C6,61.5,167/1000,72,119.0
272,A4,61.5,0.5,61,119.0
273,D6,61.667,167/1000,66,119.0
274,C6,61.833,167/1000,66,119.0
275,A5,62.0,0.25,73,119.0
276,F#4,62.0,0.5,56,119.0
277,C6,62.5,0.25,67,119.0
278,A4,62.5,0.5,55,119.0
279,B4,63.0,1.5,82,119.0
280,E-5,63.5,0.25,75,119.0
281,F#5,64.0,0.25,74,119.0
282,E5,64.5,1.5,56,119.0
283,C6,64.5,167/1000,72,119.0
284,A4,64.5,0.5,61,119.0
285,D6,64.667,167/1000,66,119.0
286,C6,64.833,167/1000,66,119.0
287,A5,65.0,0.25,73,119.0
288,F#4,65.0,0.5,56,119.0
289,C6,65.5,0.25,67,119.0
290,A4,65.5,0.5,55,119.0
291,B4,66.0,0.5,62,119.0
292,D5,66.5,0.5,61,119.0
293,F5,66.5,0.5,67,119.0
294,G#5,66.5,0.5,67,119.0
295,C#5,67.0,0.5,59,119.0
296,A5,67.0,0.5,71,119.0
297,E5,67.0,0.5,71,119.0
298,C5,67.5,0.5,53,119.0
299,E-5,67.5,0.5,67,119.0
300,F#5,67.5,0.5,67,119.0
301,B4,68.0,0.5,56,119.0
302,D5,68.0,0.5,70,119.0
303,G5,68.0,0.5,70,119.0
304,F#4,68.5,0.5,50,119.0
305,C5,68.5,0.5,58,119.0
306,D5,68.5,0.5,58,119.0
307,G3,69.0,0.25,57,119.0
308,B4,69.0,0.25,71,119.0
309,D5,69.0,0.25,71,119.0
310,G4,69.5,0.25,64,119.0
311,B3,69.5,0.25,51,119.0
312,B4,70.0,0.25,62,119.0
313,G3,70.0,0.25,51,119.0
314,A4,70.5,0.125,64,119.0
315,C4,70.5,0.25,62,119.0
316,A4,70.75,0.125,60,119.0
317,E5,71.0,0.25,66,119.0
318,F#4,71.0,0.25,59,119.0
319,C4,71.5,0.25,59,119.0
320,E5,71.5,0.25,61,119.0
321,A5,71.5,0.25,61,119.0
322,B5,72.0,0.25,61,119.0
323,B3,72.0,0.25,48,119.0
324,C#6,72.25,0.25,62,119.0
325,C#4,72.25,0.25,49,119.0
326,E-6,72.5,0.25,64,119.0
327,E-4,72.5,0.25,51,119.0
328,E6,72.75,0.25,66,119.0
329,E4,72.75,0.25,52,119.0
330,F#6,73.0,0.25,68,119.0
331,F#4,73.0,0.25,53,119.0
332,G6,73.25,0.25,69,119.0
333,G4,73.25,0.25,55,119.0
334,A6,73.5,0.5,71,119.0
335,A4,73.5,0.5,57,119.0
336,G6,74.0,167/1000,70,119.0
337,G4,74.0,167/1000,56,119.0
338,A6,74.167,167/1000,66,119.0
339,A4,74.167,167/1000,52,119.0
340,G6,74.333,167/1000,66,119.0
341,G4,74.333,167/1000,52,119.0
342,F#6,74.5,0.25,71,119.0
343,F#4,74.5,0.25,57,119.0
344,E6,74.75,0.25,66,119.0
345,E4,74.75,0.25,52,119.0
346,F#6,75.0,0.25,69,119.0
347,F#4,75.0,0.25,55,119.0
348,G6,75.25,0.25,58,119.0
349,G4,75.25,0.25,46,119.0
350,F#6,75.5,0.25,62,119.0
351,F#4,75.5,0.25,49,119.0
352,D6,75.75,0.25,60,119.0
353,D4,75.75,0.25,48,119.0
354,B5,76.0,0.5,58,119.0
355,B3,76.0,0.5,46,119.0
356,C6,76.5,0.25,58,119.0
357,C4,76.5,0.25,46,119.0
358,D6,76.75,0.25,60,119.0
359,D4,76.75,0.25,48,119.0
360,E6,77.0,0.25,61,119.0
361,E4,77.0,0.25,48,119.0
362,F#6,77.25,0.25,63,119.0
363,F#4,77.25,0.25,50,119.0
364,G6,77.5,0.25,66,119.0
365,G4,77.5,0.25,52,119.0
366,E6,77.75,0.25,68,119.0
367,E4,77.75,0.25,53,119.0
368,D6,78.0,0.25,70,119.0
369,D4,78.0,0.25,56,119.0
370,E6,78.25,0.25,69,119.0
371,E4,78.25,0.25,55,119.0
372,D6,78.5,0.25,64,119.0
373,D4,78.5,0.25,51,119.0
374,B5,78.75,0.25,60,119.0
375,B3,78.75,0.25,48,119.0
376,G5,79.0,0.25,59,119.0
377,G3,79.0,0.25,47,119.0
378,A5,79.25,0.25,63,119.0
379,A3,79.25,0.25,50,119.0
380,B5,79.5,0.25,68,119.0
381,B3,79.5,0.25,53,119.0
382,D6,79.75,0.25,67,119.0
383,D4,79.75,0.25,52,119.0
384,C6,80.0,0.25,66,119.0
385,C4,80.0,0.25,52,119.0
386,B5,80.25,0.25,64,119.0
387,B3,80.25,0.25,51,119.0
388,C6,80.5,0.25,62,119.0
389,C4,80.5,0.25,49,119.0
390,E6,80.75,0.25,61,119.0
391,E4,80.75,0.25,48,119.0
392,B3,81.0,0.25,59,119.0
393,E-5,81.167,167/1000,49,119.0
394,B5,81.167,167/1000,49,119.0
395,B4,81.333,167/1000,53,119.0
396,F#4,81.5,0.25,53,119.0
397,E-5,81.667,167/1000,49,119.0
398,B5,81.667,167/1000,49,119.0
399,B4,81.833,167/1000,53,119.0
400,E-5,82.0,0.125,66,119.0
401,E-5,82.167,167/1000,49,119.0
402,B5,82.167,167/1000,49,119.0
403,B4,82.333,167/1000,53,119.0
404,B3,82.5,0.25,57,119.0
405,E5,82.667,167/1000,49,119.0
406,A5,82.667,167/1000,49,119.0
407,C5,82.833,167/1000,53,119.0
408,F#4,83.0,0.25,53,119.0
409,E5,83.167,167/1000,49,119.0
410,A5,83.167,167/1000,49,119.0
411,C5,83.333,167/1000,53,119.0
412,E5,83.5,0.125,53,119.0
413,E5,83.667,167/1000,49,119.0
414,A5,83.667,167/1000,49,119.0
415,C5,83.833,167/1000,53,119.0
416,B3,84.0,0.25,59,119.0
417,E-5,84.167,167/1000,49,119.0
418,B5,84.167,167/1000,49,119.0
419,B4,84.333,167/1000,53,119.0
420,F#4,84.5,0.25,53,119.0
421,B5,84.667,167/1000,49,119.0
422,E-5,84.667,167/1000,49,119.0
423,B4,84.833,167/1000,53,119.0
424,E-5,85.0,0.125,66,119.0
425,B5,85.167,167/1000,49,119.0
426,E-5,85.167,167/1000,49,119.0
427,B4,85.333,167/1000,53,119.0
428,B3,85.5,0.25,57,119.0
429,A5,85.667,167/1000,49,119.0
430,E5,85.667,167/1000,49,119.0
431,C5,85.833,167/1000,53,119.0
432,F#4,86.0,0.25,53,119.0
433,E5,86.167,167/1000,49,119.0
434,A5,86.167,167/1000,49,119.0
435,C5,86.333,167/1000,53,119.0
436,E5,86.5,0.125,53,119.0
437,E5,86.667,167/1000,49,119.0
438,A5,86.667,167/1000,49,119.0
439,C5,86.833,167/1000,53,119.0
440,B3,87.0,0.25,59,119.0
441,E-5,87.167,167/1000,49,119.0
442,B5,87.167,167/1000,49,119.0
443,B4,87.333,167/1000,52,119.0
444,F#4,87.5,0.25,55,119.0
445,B5,87.667,167/1000,49,119.0
446,E-5,87.667,167/1000,49,119.0
447,B4,87.833,167/1000,55,119.0
448,E-5,88.0,0.125,68,119.0
449,E-5,88.167,167/1000,52,119.0
450,B5,88.167,167/1000,52,119.0
451,B4,88.333,167/1000,56,119.0
452,F#5,88.5,0.25,64,119.0
453,B5,88.667,167/1000,52,119.0
454,E-5,88.667,167/1000,52,119.0
455,B4,88.833,167/1000,56,119.0
456,E-5,89.0,0.125,55,119.0
457,B5,89.167,167/1000,50,119.0
458,E-5,89.167,167/1000,50,119.0
459,B4,89.333,167/1000,53,119.0
460,F#5,89.5,0.25,53,119.0
461,E-5,89.667,167/1000,48,119.0
462,B5,89.667,167/1000,48,119.0
463,B4,89.833,167/1000,49,119.0
464,E-5,90.0,0.125,55,119.0
465,E-5,90.167,167/1000,45,119.0
466,B5,90.167,167/1000,45,119.0
467,B4,90.333,167/1000,48,119.0
468,F#5,90.5,0.25,47,119.0
469,E-5,90.667,167/1000,43,119.0
470,B5,90.667,167/1000,43,119.0
471,B4,90.833,167/1000,46,119.0
472,E-5,91.0,0.125,47,119.0
473,B5,91.167,167/1000,42,119.0
474,E-5,91.167,167/1000,42,119.0
475,B4,91.333,167/1000,45,119.0
476,F#5,91.5,0.25,50,119.0
477,E-5,91.667,167/1000,40,119.0
478,B5,91.667,167/1000,40,119.0
479,B4,91.833,167/1000,44,119.0
480,E-5,92.0,0.125,42,119.0
481,B5,92.167,167/1000,39,119.0
482,E-5,92.167,167/1000,39,119.0
483,B4,92.333,167/1000,42,119.0
484,F#5,92.5,0.25,42,119.0
485,E-5,92.667,167/1000,38,119.0
486,B5,92.667,167/1000,38,119.0
487,B4,92.833,81/500,40,119.0
488,E-7,93.0,1.5,41,119.0
489,F#6,93.0,1.5,41,119.0
490,E-6,93.0,1.5,41,119.0
491,B5,93.0,1.5,37,119.0
492,F#5,93.0,1.5,37,119.0
493,B4,93.0,1.5,37,119.0
494,B4,95.0,0.5,58,119.0
495,E5,95.5,2.0,62,119.0
496,E5,97.5,0.5,62,119.0
497,D5,98.0,0.5,56,119.0
498,E5,98.5,1.5,63,119.0
499,D5,100.0,0.5,55,119.0
500,E5,100.5,1.5,61,119.0
501,D5,102.0,167/1000,56,119.0
502,E5,102.167,167/1000,53,119.0
503,D5,102.333,167/1000,50,119.0
504,B4,102.5,1.0,44,119.0
505,G2,103.5,0.25,32,119.0
506,B3,103.75,0.25,39,119.0
507,D3,103.75,0.25,29,119.0
508,D4,104.0,0.25,39,119.0
509,G3,104.0,0.25,29,119.0
510,G4,104.25,0.25,39,119.0
511,B3,104.25,0.25,29,119.0
512,B4,104.5,0.25,41,119.0
513,D4,104.5,0.25,32,119.0
514,D5,104.75,0.25,40,119.0
515,G4,104.75,0.25,27,119.0
516,G5,105.0,0.25,37,119.0
517,B4,105.0,0.25,27,119.0
518,B5,105.25,0.25,37,119.0
519,D5,105.25,0.25,27,119.0
520,D6,105.5,0.25,41,119.0
521,G5,105.5,0.25,30,119.0
522,G6,105.75,0.25,39,119.0
523,B5,105.75,0.25,27,119.0
524,B6,106.0,0.25,39,119.0
525,D6,106.0,0.25,27,119.0
526,D7,106.25,0.25,39,119.0
527,G6,106.25,0.25,27,119.0
528,B4,107.0,0.5,45,119.0
529,E5,107.5,1.5,49,119.0
530,D5,109.0,0.5,46,119.0
531,E5,109.5,1.5,52,119.0
532,D5,111.0,0.5,51,119.0
533,E5,111.5,0.5,56,119.0
534,D5,112.0,0.5,53,119.0
535,E5,112.5,0.25,56,119.0
536,F#5,112.75,0.25,52,119.0
537,E5,113.0,0.25,55,119.0
538,D5,113.25,0.25,51,119.0
539,C5,113.5,2.0,47,119.0
540,C2,115.5,0.25,32,119.0
541,E3,115.75,0.25,39,119.0
542,G2,115.75,0.25,29,119.0
543,G3,116.0,0.25,39,119.0
544,C3,116.0,0.25,29,119.0
545,C4,116.25,0.25,39,119.0
546,E3,116.25,0.25,29,119.0
547,E4,116.5,0.25,41,119.0
548,G3,116.5,0.25,32,119.0
549,G4,116.75,0.25,40,119.0
550,C4,116.75,0.25,27,119.0
551,C5,117.0,0.25,37,119.0
552,E4,117.0,0.25,27,119.0
553,E5,117.25,0.25,37,119.0
554,G4,117.25,0.25,27,119.0
555,G5,117.5,0.25,41,119.0
556,C5,117.5,0.25,30,119.0
557,C6,117.75,0.25,39,119.0
558,E5,117.75,0.25,27,119.0
559,E6,118.0,0.25,39,119.0
560,G5,118.0,0.25,27,119.0
561,E7,118.25,0.25,39,119.0
562,C6,118.25,0.25,27,119.0
563,C5,119.0,0.5,50,119.0
564,E5,119.5,2.0,55,119.0
565,E5,121.5,0.5,55,119.0
566,D5,122.0,0.5,55,119.0
567,E5,122.5,1.0,58,119.0
568,F#5,123.5,0.5,60,119.0
569,G5,124.0,0.5,62,119.0
570,E5,124.5,1/5,62,119.0
571,F#5,124.7,1/5,57,119.0
572,E5,124.9,1/5,60,119.0
573,D5,125.1,1/5,56,119.0
574,C5,125.3,1/5,52,119.0
575,B4,125.5,2.0,49,119.0
576,G2,127.5,0.25,32,119.0
577,B3,127.75,0.25,39,119.0
578,D3,127.75,0.25,29,119.0
579,D4,128.0,0.25,39,119.0
580,G3,128.0,0.25,29,119.0
581,G4,128.25,0.25,39,119.0
582,B3,128.25,0.25,29,119.0
583,B4,128.5,0.25,41,119.0
584,D4,128.5,0.25,32,119.0
585,D5,128.75,0.25,40,119.0
586,G4,128.75,0.25,27,119.0
587,G5,129.0,0.25,37,119.0
588,B4,129.0,0.25,27,119.0
589,B5,129.25,0.25,37,119.0
590,D5,129.25,0.25,27,119.0
591,D6,129.5,0.25,41,119.0
592,G5,129.5,0.25,30,119.0
593,G6,129.75,0.25,39,119.0
594,B5,129.75,0.25,27,119.0
595,B6,130.0,0.25,39,119.0
596,D6,130.0,0.25,27,119.0
597,D7,130.25,0.25,39,119.0
598,G6,130.25,0.25,27,119.0
599,B4,131.0,0.5,55,119.0
600,D5,131.5,2.0,60,119.0
601,D5,133.5,0.5,60,119.0
602,C5,134.0,0.5,56,119.0
603,B4,134.5,1.0,55,119.0
604,A4,135.5,0.5,53,119.0
605,B4,136.0,0.5,53,119.0
606,C5,136.5,0.25,58,119.0
607,D5,136.75,0.25,51,119.0
608,C5,137.0,0.25,56,119.0
609,B4,137.25,0.25,48,119.0
610,A4,137.5,2.0,46,119.0
611,D2,139.5,0.25,32,119.0
612,D3,139.75,0.25,39,119.0
613,A2,139.75,0.25,29,119.0
614,F#3,140.0,0.25,39,119.0
615,D3,140.0,0.25,29,119.0
616,C4,140.25,0.25,39,119.0
617,F#3,140.25,0.25,29,119.0
618,D4,140.5,0.25,41,119.0
619,A3,140.5,0.25,32,119.0
620,F#4,140.75,0.25,40,119.0
621,D4,140.75,0.25,27,119.0
622,C5,141.0,0.25,37,119.0
623,F#4,141.0,0.25,27,119.0
624,D5,141.25,0.25,37,119.0
625,A4,141.25,0.25,27,119.0
626,F#5,141.5,0.25,41,119.0
627,D5,141.5,0.25,30,119.0
628,C6,141.75,0.25,39,119.0
629,F#5,141.75,0.25,27,119.0
630,D6,142.0,0.25,39,119.0
631,A5,142.0,0.25,27,119.0
632,F#6,142.25,0.25,39,119.0
633,C6,142.25,0.25,27,119.0
634,C5,142.75,0.25,52,119.0
635,D5,143.0,0.25,55,119.0
636,E5,143.25,0.25,58,119.0
637,F#5,143.5,167/1000,62,119.0
638,G5,143.667,167/1000,49,119.0
639,F#5,143.833,167/1000,49,119.0
640,E5,144.0,0.25,60,119.0
641,D5,144.25,0.25,50,119.0
642,E5,144.5,167/1000,61,119.0
643,F#5,144.667,167/1000,49,119.0
644,E5,144.833,167/1000,48,119.0
645,D5,145.0,0.25,57,119.0
646,C5,145.25,0.25,52,119.0
647,D5,145.5,0.25,52,119.0
648,E5,145.75,0.25,49,119.0
649,D5,146.0,0.25,51,119.0
650,C5,146.25,0.25,45,119.0
651,B4,146.5,2.0,40,119.0
652,G2,148.5,0.25,32,119.0
653,B3,148.75,0.25,39,119.0
654,D3,148.75,0.25,29,119.0
655,D4,149.0,0.25,39,119.0
656,G3,149.0,0.25,29,119.0
657,G4,149.25,0.25,39,119.0
658,B3,149.25,0.25,29,119.0
659,B4,149.5,0.25,41,119.0
660,D4,149.5,0.25,32,119.0
661,D5,149.75,0.25,40,119.0
662,G4,149.75,0.25,27,119.0
663,G5,150.0,0.25,37,119.0
664,B4,150.0,0.25,27,119.0
665,B5,150.25,0.25,37,119.0
666,D5,150.25,0.25,27,119.0
667,D6,150.5,0.25,41,119.0
668,G5,150.5,0.25,30,119.0
669,G6,150.75,0.25,39,119.0
670,B5,150.75,0.25,27,119.0
671,B6,151.0,0.25,39,119.0
672,D6,151.0,0.25,27,119.0
673,D7,151.25,0.25,39,119.0
674,G6,151.25,0.25,27,119.0
675,B4,151.5,1.0,55,119.0
676,E5,152.5,2.0,60,119.0
677,A2,154.5,0.25,42,119.0
678,F#3,154.75,0.25,38,119.0
679,A3,155.0,0.25,38,119.0
680,C4,155.25,0.25,38,119.0
681,E4,155.5,0.25,47,119.0
682,F#4,155.75,0.25,39,119.0
683,A4,156.0,0.25,39,119.0
684,C5,156.25,0.25,39,119.0
685,E5,156.5,0.25,48,119.0
686,F#5,156.75,0.25,41,119.0
687,A5,157.0,0.25,42,119.0
688,C6,157.25,0.25,42,119.0
689,E6,157.5,1.0,50,119.0
690,D5,158.5,1.0,57,119.0
691,E5,159.5,0.5,61,119.0
692,D5,160.0,0.5,59,119.0
693,C5,160.5,0.5,56,119.0
694,B4,161.0,0.5,52,119.0
695,C5,161.5,167/1000,55,119.0
696,D5,161.667,167/1000,57,119.0
697,C5,161.833,167/1000,57,119.0
698,B4,162.0,167/1000,56,119.0
699,A4,162.167,167/1000,55,119.0
700,G4,162.333,167/1000,53,119.0
701,F#4,162.5,73/500,56,119.0
702,G4,162.642,73/500,56,119.0
703,F#4,162.785,73/500,55,119.0
704,E4,162.927,73/500,51,119.0
705,D4,163.071,73/500,51,119.0
706,C4,163.213,73/500,47,119.0
707,D4,163.356,73/500,47,119.0
708,E-4,163.5,13/125,49,119.0
709,E4,163.6,13/125,51,119.0
710,F#4,163.7,13/125,52,119.0
711,A4,163.8,13/125,55,119.0
712,G4,163.9,13/125,55,119.0
713,F#4,164.0,13/125,53,119.0
714,E4,164.1,13/125,52,119.0
715,E-4,164.2,13/125,49,119.0
716,E4,164.3,13/125,50,119.0
717,C4,164.4,1/10,45,119.0
718,B4,164.5,0.25,58,119.0
719,C4,164.5,1/250,45,119.0
720,B3,164.5,0.25,49,119.0
721,E-5,165.0,0.25,55,119.0
722,E-4,165.0,0.25,46,119.0
723,F#5,165.5,0.25,55,119.0
724,F#4,165.5,0.25,46,119.0
725,E5,166.0,167/1000,59,119.0
726,E4,166.0,167/1000,49,119.0
727,F#5,166.167,167/1000,55,119.0
728,F#4,166.167,167/1000,46,119.0
729,E5,166.333,167/1000,55,119.0
730,E4,166.333,167/1000,46,119.0
731,C5,166.5,0.25,59,119.0
732,C4,166.5,0.25,49,119.0
733,A5,167.0,0.25,55,119.0
734,A4,167.0,0.25,46,119.0
735,B4,167.5,0.25,58,119.0
736,B3,167.5,0.25,49,119.0
737,E-5,168.0,0.25,55,119.0
738,E-4,168.0,0.25,46,119.0
739,F#5,168.5,0.25,55,119.0
740,F#4,168.5,0.25,46,119.0
741,E5,169.0,167/1000,59,119.0
742,E4,169.0,167/1000,49,119.0
743,F#5,169.167,167/1000,55,119.0
744,F#4,169.167,167/1000,46,119.0
745,E5,169.333,167/1000,55,119.0
746,E4,169.333,167/1000,46,119.0
747,C5,169.5,0.25,59,119.0
748,C4,169.5,0.25,49,119.0
749,A5,170.0,0.25,53,119.0
750,A4,170.0,0.25,46,119.0
751,B3,170.375,0.125,49,119.0
752,B4,170.5,0.25,58,119.0
753,F#4,170.5,1.5,49,119.0
754,E-5,171.0,0.25,55,119.0
755,F#5,171.5,0.25,55,119.0
756,E5,172.0,167/1000,59,119.0
757,F#4,172.0,1.5,49,119.0
758,F#5,172.167,167/1000,55,119.0
759,E5,172.333,167/1000,55,119.0
760,C5,172.5,0.25,59,119.0
761,A5,173.0,0.25,55,119.0
762,B4,173.5,0.25,58,119.0
763,F#4,173.5,1.5,49,119.0
764,E-5,174.0,0.25,55,119.0
765,F#5,174.5,0.25,55,119.0
766,E5,175.0,167/1000,59,119.0
767,F#4,175.0,0.5,49,119.0
768,F#5,175.167,167/1000,55,119.0
769,E5,175.333,167/1000,55,119.0
770,C5,175.5,0.25,59,119.0
771,G4,175.5,0.5,52,119.0
772,A5,176.0,0.25,55,119.0
773,F#4,176.0,0.5,49,119.0
774,B4,176.5,0.25,58,119.0
775,A4,176.5,1.0,49,119.0
776,E-5,177.0,0.25,55,119.0
777,F#5,177.5,0.25,55,119.0
778,G4,177.5,167/1000,49,119.0
779,A4,177.667,167/1000,45,119.0
780,G4,177.833,167/1000,45,119.0
781,E5,178.0,167/1000,59,119.0
782,F#4,178.0,1.5,49,119.0
783,F#5,178.167,167/1000,55,119.0
784,E5,178.333,167/1000,55,119.0
785,C5,178.5,0.25,59,119.0
786,A5,179.0,0.25,55,119.0
787,B4,179.5,0.25,58,119.0
788,F#4,179.5,1.5,49,119.0
789,E-5,180.0,0.25,55,119.0
790,F#5,180.5,0.25,55,119.0
791,E5,181.0,167/1000,59,119.0
792,F#4,181.0,1.5,49,119.0
793,F#5,181.167,167/1000,55,119.0
794,E5,181.333,167/1000,55,119.0
795,C5,181.5,0.25,59,119.0
796,A5,182.0,0.25,55,119.0
797,B4,182.5,0.25,58,119.0
798,F#4,182.5,1.5,49,119.0
799,E-5,183.0,0.25,55,119.0
800,F#5,183.5,0.25,55,119.0
801,C5,184.0,0.25,63,119.0
802,E4,184.0,1.25,49,119.0
803,G5,184.5,0.25,58,119.0
804,C6,185.0,0.25,59,119.0
805,F#4,185.25,0.125,51,119.0
806,E4,185.375,0.125,53,119.0
807,F#5,185.5,0.25,71,119.0
808,D4,185.5,1.5,56,119.0
809,B5,186.0,0.25,61,119.0
810,F#6,186.5,0.25,63,119.0
811,E6,187.0,0.5,74,119.0
812,C4,187.0,1.5,60,119.0
813,F#4,187.0,1.5,60,119.0
814,A6,187.5,0.5,75,119.0
815,E7,188.0,0.5,80,119.0
816,E-6,188.375,0.125,67,119.0
817,B6,188.438,0.062,74,119.0
818,F#7,188.5,0.5,88,119.0
819,E-6,188.5,0.5,67,119.0
820,B6,188.5,0.5,74,119.0
821,B3,188.5,1.5,70,119.0
822,E-5,189.0,0.25,72,119.0
823,A4,189.0,0.25,61,119.0
824,F#5,189.5,0.25,71,119.0
825,F#4,189.5,0.25,61,119.0
826,E5,190.0,167/1000,77,119.0
827,G4,190.0,0.25,71,119.0
828,B3,190.0,1.5,70,119.0
829,F#5,190.167,167/1000,70,119.0
830,E5,190.333,167/1000,69,119.0
831,C5,190.5,0.25,77,119.0
832,E4,190.5,0.25,64,119.0
833,A5,191.0,0.25,71,119.0
834,G4,191.0,0.25,64,119.0
835,B4,191.5,0.25,79,119.0
836,F#4,191.5,0.25,69,119.0
837,B3,191.5,1.5,70,119.0
838,E-5,192.0,0.25,72,119.0
839,A4,192.0,0.25,61,119.0
840,F#5,192.5,0.25,71,119.0
841,F#4,192.5,0.25,61,119.0
842,E5,193.0,167/1000,77,119.0
843,G4,193.0,0.25,69,119.0
844,B3,193.0,1.5,70,119.0
845,F#5,193.167,167/1000,70,119.0
846,E5,193.333,167/1000,69,119.0
847,C5,193.5,0.25,77,119.0
848,E4,193.5,0.25,64,119.0
849,A5,194.0,0.25,71,119.0
850,G4,194.0,0.25,64,119.0
851,E-4,194.5,0.5,62,119.0
852,F#5,194.5,0.5,74,119.0
853,B5,194.5,0.5,74,119.0
854,D4,195.0,0.5,61,119.0
855,F5,195.0,0.5,67,119.0
856,G#5,195.0,0.5,67,119.0
857,C#4,195.5,0.5,59,119.0
858,E5,195.5,0.5,71,119.0
859,A5,195.5,0.5,71,119.0
860,C4,196.0,0.5,53,119.0
861,E-5,196.0,0.5,67,119.0
862,F#5,196.0,0.5,67,119.0
863,B3,196.5,0.5,56,119.0
864,D5,196.5,0.5,70,119.0
865,G5,196.5,0.5,70,119.0
866,F#3,197.0,0.5,50,119.0
867,D5,197.0,0.5,58,119.0
868,C5,197.0,0.5,58,119.0
869,G3,197.5,0.25,55,119.0
870,B4,197.5,0.25,69,119.0
871,D5,197.5,0.25,69,119.0
872,G4,198.0,0.25,63,119.0
873,B3,198.0,0.25,50,119.0
874,B4,198.5,0.25,60,119.0
875,G3,198.5,0.25,50,119.0
876,A4,199.0,0.125,63,119.0
877,C4,199.0,0.25,61,119.0
878,A4,199.25,0.125,58,119.0
879,E5,199.5,0.25,64,119.0
880,F#4,199.5,0.25,57,119.0
881,C4,200.0,0.25,57,119.0
882,A5,200.0,0.25,59,119.0
883,E5,200.0,0.25,59,119.0
884,B3,200.375,0.125,49,119.0
885,B4,200.5,0.25,58,119.0
886,F#4,200.5,1.5,49,119.0
887,E-5,201.0,0.25,55,119.0
888,F#5,201.5,0.25,55,119.0
889,E5,202.0,167/1000,59,119.0
890,F#4,202.0,1.5,49,119.0
891,F#5,202.167,167/1000,55,119.0
892,E5,202.333,167/1000,55,119.0
893,C5,202.5,0.25,59,119.0
894,A5,203.0,0.25,55,119.0
895,B4,203.5,0.25,58,119.0
896,F#4,203.5,1.5,49,119.0
897,E-5,204.0,0.25,55,119.0
898,F#5,204.5,0.25,55,119.0
899,E5,205.0,167/1000,59,119.0
900,F#4,205.0,0.5,49,119.0
901,F#5,205.167,167/1000,55,119.0
902,E5,205.333,167/1000,55,119.0
903,C5,205.5,0.25,59,119.0
904,G4,205.5,0.5,52,119.0
905,A5,206.0,0.25,55,119.0
906,F#4,206.0,0.5,49,119.0
907,B4,206.5,0.25,58,119.0
908,A4,206.5,1.0,49,119.0
909,E-5,207.0,0.25,55,119.0
910,F#5,207.5,0.25,55,119.0
911,G4,207.5,167/1000,49,119.0
912,A4,207.667,167/1000,45,119.0
913,G4,207.833,167/1000,45,119.0
914,E5,208.0,167/1000,59,119.0
915,F#4,208.0,1.5,49,119.0
916,F#5,208.167,167/1000,55,119.0
917,E5,208.333,167/1000,55,119.0
918,C5,208.5,0.25,59,119.0
919,A5,209.0,0.25,55,119.0
920,B4,209.5,0.25,58,119.0
921,F#4,209.5,1.5,49,119.0
922,E-5,210.0,0.25,55,119.0
923,F#5,210.5,0.25,55,119.0
924,E5,211.0,167/1000,59,119.0
925,F#4,211.0,1.5,49,119.0
926,F#5,211.167,167/1000,55,119.0
927,E5,211.333,167/1000,55,119.0
928,C5,211.5,0.25,59,119.0
929,A5,212.0,0.25,55,119.0
930,B4,212.5,0.25,58,119.0
931,F#4,212.5,1.5,49,119.0
932,E-5,213.0,0.25,55,119.0
933,F#5,213.5,0.25,55,119.0
934,C5,214.0,0.25,63,119.0
935,E4,214.0,1.25,49,119.0
936,G5,214.5,0.25,58,119.0
937,C6,215.0,0.25,59,119.0
938,F#4,215.25,0.125,51,119.0
939,E4,215.375,0.125,53,119.0
940,F#5,215.5,0.25,71,119.0
941,D4,215.5,1.5,56,119.0
942,B5,216.0,0.25,61,119.0
943,F#6,216.5,0.25,63,119.0
944,E6,217.0,0.5,74,119.0
945,C4,217.0,1.5,60,119.0
946,F#4,217.0,1.5,60,119.0
947,A6,217.5,0.5,75,119.0
948,E7,218.0,0.5,80,119.0
949,E-6,218.375,0.125,67,119.0
950,B6,218.438,0.062,74,119.0
951,F#7,218.5,0.5,88,119.0
952,E-6,218.5,0.5,67,119.0
953,B6,218.5,0.5,74,119.0
954,B3,218.5,1.5,70,119.0
955,E-5,219.0,0.25,72,119.0
956,A4,219.0,0.25,61,119.0
957,F#5,219.5,0.25,71,119.0
958,F#4,219.5,0.25,61,119.0
959,E5,220.0,167/1000,77,119.0
960,G4,220.0,0.25,71,119.0
961,B3,220.0,1.5,70,119.0
962,F#5,220.167,167/1000,70,119.0
963,E5,220.333,167/1000,69,119.0
964,C5,220.5,0.25,77,119.0
965,E4,220.5,0.25,64,119.0
966,A5,221.0,0.25,71,119.0
967,G4,221.0,0.25,64,119.0
968,B4,221.5,0.25,79,119.0
969,F#4,221.5,0.25,69,119.0
970,B3,221.5,1.5,70,119.0
971,E-5,222.0,0.25,72,119.0
972,A4,222.0,0.25,61,119.0
973,F#5,222.5,0.25,71,119.0
974,F#4,222.5,0.25,61,119.0
975,E5,223.0,167/1000,77,119.0
976,G4,223.0,0.25,69,119.0
977,B3,223.0,1333/1000,70,119.0
978,F#5,223.167,167/1000,70,119.0
979,E5,223.333,167/1000,69,119.0
980,C5,223.5,0.25,77,119.0
981,E4,223.5,0.25,64,119.0
982,A5,224.0,0.25,71,119.0
983,G4,224.0,0.25,64,119.0
984,B3,224.375,0.125,62,119.0
985,B4,224.5,1.5,82,119.0
986,E-5,225.0,0.25,75,119.0
987,F#5,225.5,0.25,74,119.0
988,E5,226.0,1.5,56,119.0
989,C6,226.0,167/1000,72,119.0
990,A4,226.0,0.5,61,119.0
991,D6,226.167,167/1000,66,119.0
992,C6,226.333,167/1000,66,119.0
993,A5,226.5,0.25,73,119.0
994,F#4,226.5,0.5,56,119.0
995,C6,227.0,0.25,67,119.0
996,A4,227.0,0.5,55,119.0
997,B4,227.5,1.5,82,119.0
998,E-5,228.0,0.25,75,119.0
999,F#5,228.5,0.25,74,119.0
1000,E5,229.0,1.5,56,119.0
1001,C6,229.0,167/1000,72,119.0
1002,A4,229.0,0.5,61,119.0
1003,D6,229.167,167/1000,66,119.0
1004,C6,229.333,167/1000,66,119.0
1005,A5,229.5,0.25,73,119.0
1006,F#4,229.5,0.5,56,119.0
1007,C6,230.0,0.25,67,119.0
1008,A4,230.0,0.5,55,119.0
1009,B4,230.5,0.5,62,119.0
1010,D5,231.0,0.5,61,119.0
1011,F5,231.0,0.5,67,119.0
1012,G#5,231.0,0.5,67,119.0
1013,C#5,231.5,0.5,59,119.0
1014,A5,231.5,0.5,71,119.0
1015,E5,231.5,0.5,71,119.0
1016,C5,232.0,0.5,53,119.0
1017,E-5,232.0,0.5,67,119.0
1018,F#5,232.0,0.5,67,119.0
1019,B4,232.5,0.5,56,119.0
1020,D5,232.5,0.5,70,119.0
1021,G5,232.5,0.5,70,119.0
1022,F#4,233.0,0.5,50,119.0
1023,D5,233.0,0.5,58,119.0
1024,C5,233.0,0.5,58,119.0
1025,G3,233.5,0.25,57,119.0
1026,D5,233.5,0.25,71,119.0
1027,B4,233.5,0.25,71,119.0
1028,G4,234.0,0.25,64,119.0
1029,B3,234.0,0.25,51,119.0
1030,B4,234.5,0.25,62,119.0
1031,G3,234.5,0.25,51,119.0
1032,A4,235.0,0.125,64,119.0
1033,C4,235.0,0.25,62,119.0
1034,A4,235.25,0.125,60,119.0
1035,E5,235.5,0.25,66,119.0
1036,F#4,235.5,0.25,59,119.0
1037,C4,236.0,0.25,59,119.0
1038,A5,236.0,0.25,61,119.0
1039,E5,236.0,0.25,61,119.0
1040,B5,236.5,0.25,61,119.0
1041,B3,236.5,0.25,48,119.0
1042,C#6,236.75,0.25,62,119.0
1043,C#4,236.75,0.25,49,119.0
1044,E-6,237.0,0.25,64,119.0
1045,E-4,237.0,0.25,51,119.0
1046,E6,237.25,0.25,66,119.0
1047,E4,237.25,0.25,52,119.0
1048,F#6,237.5,0.25,68,119.0
1049,F#4,237.5,0.25,53,119.0
1050,G6,237.75,0.25,69,119.0
1051,G4,237.75,0.25,55,119.0
1052,A6,238.0,0.5,71,119.0
1053,A4,238.0,0.5,57,119.0
1054,G6,238.5,167/1000,70,119.0
1055,G4,238.5,167/1000,56,119.0
1056,A6,238.667,167/1000,66,119.0
1057,A4,238.667,167/1000,52,119.0
1058,G6,238.833,167/1000,66,119.0
1059,G4,238.833,167/1000,52,119.0
1060,F#6,239.0,0.25,71,119.0
1061,F#4,239.0,0.25,57,119.0
1062,E6,239.25,0.25,66,119.0
1063,E4,239.25,0.25,52,119.0
1064,F#6,239.5,0.25,69,119.0
1065,F#4,239.5,0.25,55,119.0
1066,G6,239.75,0.25,58,119.0
1067,G4,239.75,0.25,46,119.0
1068,F#6,240.0,0.25,62,119.0
1069,F#4,240.0,0.25,49,119.0
1070,D6,240.25,0.25,60,119.0
1071,D4,240.25,0.25,48,119.0
1072,B5,240.5,0.5,58,119.0
1073,B3,240.5,0.5,46,119.0
1074,C6,241.0,0.25,58,119.0
1075,C4,241.0,0.25,46,119.0
1076,D6,241.25,0.25,60,119.0
1077,D4,241.25,0.25,48,119.0
1078,E6,241.5,0.25,61,119.0
1079,E4,241.5,0.25,48,119.0
1080,F#6,241.75,0.25,63,119.0
1081,F#4,241.75,0.25,50,119.0
1082,G6,242.0,0.25,66,119.0
1083,G4,242.0,0.25,52,119.0
1084,E6,242.25,0.25,68,119.0
1085,E4,242.25,0.25,53,119.0
1086,D6,242.5,0.25,70,119.0
1087,D4,242.5,0.25,56,119.0
1088,E6,242.75,0.25,69,119.0
1089,E4,242.75,0.25,55,119.0
1090,D6,243.0,0.25,64,119.0
1091,D4,243.0,0.25,51,119.0
1092,B5,243.25,0.25,60,119.0
1093,B3,243.25,0.25,48,119.0
1094,G5,243.5,0.25,59,119.0
1095,G3,243.5,0.25,47,119.0
1096,A5,243.75,0.25,63,119.0
1097,A3,243.75,0.25,50,119.0
1098,B5,244.0,0.25,68,119.0
1099,B3,244.0,0.25,53,119.0
1100,D6,244.25,0.25,67,119.0
1101,D4,244.25,0.25,52,119.0
1102,C6,244.5,0.25,66,119.0
1103,C4,244.5,0.25,52,119.0
1104,B5,244.75,0.25,64,119.0
1105,B3,244.75,0.25,51,119.0
1106,C6,245.0,0.25,62,119.0
1107,C4,245.0,0.25,49,119.0
1108,E6,245.25,0.25,61,119.0
1109,E4,245.25,0.25,48,119.0
1110,B3,245.5,0.25,59,119.0
1111,E-5,245.667,167/1000,49,119.0
1112,B5,245.667,167/1000,49,119.0
1113,B4,245.833,167/1000,53,119.0
1114,F#4,246.0,0.25,53,119.0
1115,B5,246.167,167/1000,49,119.0
1116,E-5,246.167,167/1000,49,119.0
1117,B4,246.333,167/1000,53,119.0
1118,E-5,246.5,0.125,66,119.0
1119,E-5,246.667,167/1000,49,119.0
1120,B5,246.667,167/1000,49,119.0
1121,B4,246.833,167/1000,53,119.0
1122,B3,247.0,0.25,57,119.0
1123,E5,247.167,167/1000,49,119.0
1124,A5,247.167,167/1000,49,119.0
1125,C5,247.333,167/1000,53,119.0
1126,F#4,247.5,0.25,53,119.0
1127,A5,247.667,167/1000,49,119.0
1128,E5,247.667,167/1000,49,119.0
1129,C5,247.833,167/1000,53,119.0
1130,E5,248.0,0.125,53,119.0
1131,E5,248.167,167/1000,49,119.0
1132,A5,248.167,167/1000,49,119.0
1133,C5,248.333,167/1000,53,119.0
1134,B3,248.5,0.25,59,119.0
1135,B5,248.667,167/1000,49,119.0
1136,E-5,248.667,167/1000,49,119.0
1137,B4,248.833,167/1000,53,119.0
1138,F#4,249.0,0.25,53,119.0
1139,E-5,249.167,167/1000,49,119.0
1140,B5,249.167,167/1000,49,119.0
1141,B4,249.333,167/1000,53,119.0
1142,E-5,249.5,0.125,66,119.0
1143,E-5,249.667,167/1000,49,119.0
1144,B5,249.667,167/1000,49,119.0
1145,B4,249.833,167/1000,53,119.0
1146,B3,250.0,0.25,57,119.0
1147,A5,250.167,167/1000,49,119.0
1148,E5,250.167,167/1000,49,119.0
1149,C5,250.333,167/1000,53,119.0
1150,F#4,250.5,0.25,53,119.0
1151,A5,250.667,167/1000,49,119.0
1152,E5,250.667,167/1000,49,119.0
1153,C5,250.833,167/1000,53,119.0
1154,E5,251.0,0.125,53,119.0
1155,A5,251.167,167/1000,49,119.0
1156,E5,251.167,167/1000,49,119.0
1157,C5,251.333,167/1000,53,119.0
1158,B3,251.5,0.25,59,119.0
1159,E-5,251.667,167/1000,49,119.0
1160,B5,251.667,167/1000,49,119.0
1161,B4,251.833,167/1000,52,119.0
1162,F#4,252.0,0.25,55,119.0
1163,E-5,252.167,167/1000,49,119.0
1164,B5,252.167,167/1000,49,119.0
1165,B4,252.333,167/1000,55,119.0
1166,E-5,252.5,0.125,68,119.0
1167,E-5,252.667,167/1000,52,119.0
1168,B5,252.667,167/1000,52,119.0
1169,B4,252.833,167/1000,56,119.0
1170,F#5,253.0,0.25,64,119.0
1171,E-5,253.167,167/1000,52,119.0
1172,B5,253.167,167/1000,52,119.0
1173,B4,253.333,167/1000,56,119.0
1174,E-5,253.5,0.125,55,119.0
1175,B5,253.667,167/1000,50,119.0
1176,E-5,253.667,167/1000,50,119.0
1177,B4,253.833,167/1000,53,119.0
1178,F#5,254.0,0.25,53,119.0
1179,E-5,254.167,167/1000,48,119.0
1180,B5,254.167,167/1000,48,119.0
1181,B4,254.333,167/1000,49,119.0
1182,E-5,254.5,0.125,55,119.0
1183,B5,254.667,167/1000,45,119.0
1184,E-5,254.667,167/1000,45,119.0
1185,B4,254.833,167/1000,48,119.0
1186,F#5,255.0,0.25,47,119.0
1187,B5,255.167,167/1000,43,119.0
1188,E-5,255.167,167/1000,43,119.0
1189,B4,255.333,167/1000,46,119.0
1190,E-5,255.5,0.125,47,119.0
1191,E-5,255.667,167/1000,42,119.0
1192,B5,255.667,167/1000,42,119.0
1193,B4,255.833,167/1000,45,119.0
1194,F#5,256.0,0.25,50,119.0
1195,E-5,256.167,167/1000,40,119.0
1196,B5,256.167,167/1000,40,119.0
1197,B4,256.333,167/1000,44,119.0
1198,E-5,256.5,0.125,42,119.0
1199,B5,256.667,167/1000,39,119.0
1200,E-5,256.667,167/1000,39,119.0
1201,B4,256.833,167/1000,42,119.0
1202,F#5,257.0,0.25,42,119.0
1203,B5,257.167,167/1000,38,119.0
1204,E-5,257.167,167/1000,38,119.0
1205,B4,257.333,81/500,40,119.0
1206,F#6,257.5,1.5,41,119.0
1207,E-6,257.5,1.5,41,119.0
1208,E-7,257.5,1.5,41,119.0
1209,B5,257.5,187/125,37,119.0
1210,F#5,257.5,187/125,37,119.0
1211,B4,257.5,187/125,37,119.0
1212,B4,259.0,1.0,46,119.0
1213,C3,259.0,1/5,49,119.0
1214,F#3,259.2,1/5,44,119.0
1215,C4,259.4,1/5,40,119.0
1216,E4,259.6,1/5,44,119.0
1217,F#4,259.8,1/5,47,119.0
1218,A4,260.0,1.0,49,119.0
1219,G4,261.0,1/5,47,119.0
1220,A4,261.25,1/5,45,119.0
1221,B4,261.5,1/5,46,119.0
1222,C5,261.75,1/5,45,119.0
1223,E-4,262.0,1.0,41,119.0
1224,B4,262.0,1.0,41,119.0
1225,B2,262.0,1.0,30,119.0
1226,F#3,262.0,1.0,30,119.0
1227,E-6,263.0,2.0,39,119.0
1228,F#5,263.0,2.0,39,119.0
1229,E-5,263.0,2.0,39,119.0
1230,B3,263.0,2.0,29,119.0
1231,F#4,263.0,2.0,29,119.0
1232,B4,263.0,2.0,29,119.0
