,note_name,start_time,duration,velocity,tempo
0,B-3,0.0,0.5,38,116.52
1,E-3,0.0,2.0,32,116.52
2,B-3,0.5,1.0,35,116.52
3,B-3,1.5,0.5,33,116.52
4,B-3,2.0,0.5,37,116.52
5,E-3,2.0,2.0,32,116.52
6,B-3,2.5,1.0,35,116.52
7,B-3,3.5,0.5,34,116.52
8,B-3,4.0,0.5,38,116.52
9,E-3,4.0,2.0,32,116.52
10,E-5,4.0,1.5,52,116.52
11,G5,4.0,1.5,52,116.52
12,B-3,4.5,1.0,35,116.52
13,B-3,5.5,0.5,33,116.52
14,F5,5.5,0.5,50,116.52
15,D5,5.5,0.5,50,116.52
16,B-3,6.0,0.5,37,116.52
17,E-3,6.0,2.0,32,116.52
18,G#5,6.0,1.0,52,116.52
19,F5,6.0,1.0,52,116.52
20,B-3,6.5,1.0,35,116.52
21,F5,7.0,0.5,52,116.52
22,D5,7.0,0.5,52,116.52
23,B-3,7.5,0.5,34,116.52
24,E-5,7.5,0.5,50,116.52
25,G5,7.5,0.5,50,116.52
26,B-3,8.0,0.5,38,116.52
27,E-3,8.0,2.0,32,116.52
28,C5,8.0,1.0,52,116.52
29,E-5,8.0,1.0,52,116.52
30,B-3,8.5,1.0,35,116.52
31,C5,9.0,1.0,49,116.52
32,G#4,9.0,1.0,49,116.52
33,B-3,9.5,0.5,33,116.52
34,B-3,10.0,0.5,37,116.52
35,E-3,10.0,2.0,32,116.52
36,G4,10.0,2.0,47,116.52
37,B-4,10.0,2.0,47,116.52
38,B-3,10.5,1.0,35,116.52
39,B-3,11.5,0.5,34,116.52
40,C5,12.0,1.0,51,116.52
41,G#4,12.0,2.0,51,116.52
42,F4,12.0,2.0,34,116.52
43,E-3,12.0,2.0,34,116.52
44,B-3,12.5,1.0,35,116.52
45,D5,13.0,0.5,56,116.52
46,F5,13.5,0.5,55,116.52
47,B-3,13.5,0.5,34,116.52
48,G#4,14.0,2.0,55,116.52
49,D5,14.0,1.0,55,116.52
50,F4,14.0,2.0,34,116.52
51,E-3,14.0,2.0,34,116.52
52,B-3,14.5,1.0,35,116.52
53,B-4,15.0,1.0,51,116.52
54,B-3,15.5,0.5,34,116.52
55,G4,16.0,2.0,51,116.52
56,C5,16.0,0.5,51,116.52
57,B-3,16.0,0.5,37,116.52
58,E-3,16.0,2.0,32,116.52
59,D5,16.5,0.5,49,116.52
60,B-3,16.5,1.0,35,116.52
61,G5,17.0,0.5,52,116.52
62,C5,17.5,0.5,50,116.52
63,B-3,17.5,0.5,34,116.52
64,E-3,18.0,2.0,32,116.52
65,B-3,18.0,0.5,37,116.52
66,G4,18.0,2.0,47,116.52
67,B-4,18.0,2.0,47,116.52
68,B-3,18.5,1.0,35,116.52
69,B-3,19.5,0.5,34,116.52
70,D4,20.0,0.5,42,116.52
71,G3,20.0,2.0,35,116.52
72,D5,20.0,1.5,64,116.52
73,B-4,20.0,1.5,64,116.52
74,D4,20.5,1.0,38,116.52
75,D4,21.5,0.5,36,116.52
76,B-4,21.5,0.5,55,116.52
77,G4,21.5,0.5,55,116.52
78,C5,22.0,1.0,51,116.52
79,A4,22.0,2.0,60,116.52
80,E-4,22.0,0.5,40,116.52
81,G3,22.0,2.0,35,116.52
82,E-4,22.5,1.0,38,116.52
83,F#5,23.0,0.5,65,116.52
84,A5,23.5,0.5,60,116.52
85,E-4,23.5,0.5,37,116.52
86,B-4,24.0,1.0,57,116.52
87,G5,24.0,0.5,64,116.52
88,D4,24.0,0.5,43,116.52
89,G3,24.0,1.0,38,116.52
90,D5,24.5,0.5,56,116.52
91,D4,24.5,0.5,37,116.52
92,C5,25.0,0.5,58,116.52
93,A4,25.0,1.0,51,116.52
94,G3,25.0,1.0,35,116.52
95,E-4,25.0,0.5,39,116.52
96,D5,25.5,0.5,53,116.52
97,E-4,25.5,0.5,35,116.52
98,G3,26.0,2.0,31,116.52
99,D4,26.0,0.5,36,116.52
100,G4,26.0,2.0,47,116.52
101,B-4,26.0,2.0,47,116.52
102,D4,26.5,1.0,34,116.52
103,D4,27.5,0.5,33,116.52
104,F3,28.0,0.5,42,116.52
105,D4,28.0,1.5,60,116.52
106,B-4,28.0,1.5,56,116.52
107,F5,28.0,1.5,56,116.52
108,F3,28.5,1.5,42,116.52
109,G5,29.5,0.5,58,116.52
110,A4,29.5,0.5,49,116.52
111,E-4,29.5,0.5,47,116.52
112,E-5,30.0,0.5,57,116.52
113,A4,30.0,2.0,49,116.52
114,C4,30.0,0.5,48,116.52
115,F3,30.0,2.0,42,116.52
116,F5,30.5,0.5,60,116.52
117,D4,30.5,0.5,49,116.52
118,G5,31.0,0.5,64,116.52
119,E-4,31.0,0.5,50,116.52
120,A5,31.5,0.5,61,116.52
121,F4,31.5,0.5,50,116.52
122,D4,32.0,0.5,56,116.52
123,B-4,32.0,0.5,64,116.52
124,F5,32.0,0.5,64,116.52
125,B3,32.5,0.5,49,116.52
126,G#4,32.5,0.5,52,116.52
127,D5,32.5,0.5,52,116.52
128,C4,33.0,0.5,52,116.52
129,E-5,33.0,0.5,56,116.52
130,A4,33.0,0.5,56,116.52
131,F4,33.5,0.5,46,116.52
132,C#5,33.5,0.5,54,116.52
133,A3,33.5,0.5,48,116.52
134,D5,34.0,0.5,59,116.52
135,F4,34.0,2.0,46,116.52
136,B-3,34.0,2.0,51,116.52
137,C5,34.5,0.5,52,116.52
138,G#4,34.5,1.0,38,116.52
139,E-4,34.5,0.5,39,116.52
140,B4,35.0,0.5,46,116.52
141,D4,35.0,1.0,36,116.52
142,B-4,35.5,0.5,43,116.52
143,B-3,36.0,0.5,38,116.52
144,E-3,36.0,2.0,32,116.52
145,E-5,36.0,1.5,52,116.52
146,G5,36.0,1.5,52,116.52
147,B-3,36.5,1.0,35,116.52
148,B-3,37.5,0.5,33,116.52
149,D5,37.5,0.5,50,116.52
150,F5,37.5,0.5,50,116.52
151,B-3,38.0,0.5,37,116.52
152,E-3,38.0,2.0,32,116.52
153,G#5,38.0,1.0,52,116.52
154,F5,38.0,1.0,52,116.52
155,B-3,38.5,1.0,35,116.52
156,F5,39.0,0.5,52,116.52
157,D5,39.0,0.5,52,116.52
158,B-3,39.5,0.5,34,116.52
159,E-5,39.5,0.5,50,116.52
160,G5,39.5,0.5,50,116.52
161,B-3,40.0,0.5,38,116.52
162,E-3,40.0,2.0,32,116.52
163,E-5,40.0,1.0,52,116.52
164,C5,40.0,1.0,52,116.52
165,B-3,40.5,1.0,35,116.52
166,G#4,41.0,1.0,49,116.52
167,C5,41.0,1.0,49,116.52
168,B-3,41.5,0.5,33,116.52
169,B-3,42.0,0.5,37,116.52
170,E-3,42.0,2.0,32,116.52
171,G4,42.0,2.0,47,116.52
172,B-4,42.0,2.0,47,116.52
173,B-3,42.5,1.0,35,116.52
174,B-3,43.5,0.5,34,116.52
175,C5,44.0,1.0,51,116.52
176,G#4,44.0,2.0,51,116.52
177,F4,44.0,2.0,34,116.52
178,E-3,44.0,2.0,34,116.52
179,B-3,44.5,1.0,35,116.52
180,D5,45.0,0.5,56,116.52
181,F5,45.5,0.5,55,116.52
182,B-3,45.5,0.5,34,116.52
183,G#4,46.0,2.0,55,116.52
184,D5,46.0,1.0,55,116.52
185,F4,46.0,2.0,34,116.52
186,E-3,46.0,2.0,34,116.52
187,B-3,46.5,1.0,35,116.52
188,B-4,47.0,1.0,51,116.52
189,B-3,47.5,0.5,34,116.52
190,C5,48.0,0.5,51,116.52
191,G4,48.0,2.0,51,116.52
192,B-3,48.0,0.5,37,116.52
193,E-3,48.0,2.0,32,116.52
194,D5,48.5,0.5,49,116.52
195,B-3,48.5,1.0,35,116.52
196,G5,49.0,0.5,52,116.52
197,C5,49.5,0.5,50,116.52
198,B-3,49.5,0.5,34,116.52
199,E-3,50.0,2.0,32,116.52
200,B-3,50.0,0.5,37,116.52
201,B-4,50.0,2.0,47,116.52
202,G4,50.0,2.0,47,116.52
203,B-3,50.5,1.0,35,116.52
204,B-3,51.5,0.5,34,116.52
205,D4,52.0,0.5,42,116.52
206,G3,52.0,2.0,35,116.52
207,D5,52.0,1.5,64,116.52
208,B-4,52.0,1.5,64,116.52
209,D4,52.5,1.0,38,116.52
210,D4,53.5,0.5,36,116.52
211,B-4,53.5,0.5,55,116.52
212,G4,53.5,0.5,55,116.52
213,C5,54.0,1.0,51,116.52
214,A4,54.0,2.0,60,116.52
215,E-4,54.0,0.5,40,116.52
216,G3,54.0,2.0,35,116.52
217,E-4,54.5,1.0,38,116.52
218,F#5,55.0,0.5,65,116.52
219,A5,55.5,0.5,60,116.52
220,E-4,55.5,0.5,37,116.52
221,G5,56.0,0.5,64,116.52
222,B-4,56.0,1.0,57,116.52
223,D4,56.0,0.5,43,116.52
224,G3,56.0,1.0,38,116.52
225,D5,56.5,0.5,56,116.52
226,D4,56.5,0.5,37,116.52
227,A4,57.0,1.0,51,116.52
228,C5,57.0,0.5,58,116.52
229,G3,57.0,1.0,35,116.52
230,E-4,57.0,0.5,39,116.52
231,D5,57.5,0.5,53,116.52
232,E-4,57.5,0.5,35,116.52
233,G3,58.0,2.0,31,116.52
234,D4,58.0,0.5,36,116.52
235,G4,58.0,2.0,47,116.52
236,B-4,58.0,2.0,47,116.52
237,D4,58.5,1.0,34,116.52
238,D4,59.5,0.5,33,116.52
239,F3,60.0,1.0,34,116.52
240,D4,60.0,0.5,39,116.52
241,F4,60.0,1.0,55,116.52
242,B-4,60.0,1.0,55,116.52
243,D4,60.5,0.5,37,116.52
244,E-4,61.0,0.5,49,116.52
245,C5,61.0,0.5,54,116.52
246,F#4,61.0,0.5,54,116.52
247,F#4,61.5,0.5,43,116.52
248,B-4,61.5,0.5,55,116.52
249,E-5,61.5,0.5,55,116.52
250,E-4,62.0,0.5,49,116.52
251,C5,62.0,0.5,57,116.52
252,F#4,62.0,0.5,57,116.52
253,F#4,62.5,0.5,44,116.52
254,B-4,62.5,0.5,50,116.52
255,E-5,62.5,0.5,50,116.52
256,B-4,63.0,0.5,51,116.52
257,F#5,63.0,0.5,57,116.52
258,C5,63.0,0.5,57,116.52
259,F#4,63.5,0.5,47,116.52
260,E-5,63.5,0.5,51,116.52
261,B-4,63.5,0.5,51,116.52
262,A4,64.0,2.0,54,116.52
263,D5,64.0,1.0,54,116.52
264,F3,64.0,2.0,43,116.52
265,F4,64.0,0.5,43,116.52
266,F4,64.5,0.5,39,116.52
267,C5,65.0,0.5,53,116.52
268,E-4,65.0,0.5,42,116.52
269,D5,65.5,0.5,49,116.52
270,E-4,65.5,0.5,37,116.52
271,B-4,66.0,2.0,47,116.52
272,F4,66.0,2.0,47,116.52
273,D4,66.0,0.5,42,116.52
274,B-3,66.0,0.5,42,116.52
275,B3,66.5,0.375,36,116.52
276,D4,66.875,167/1000,32,116.52
277,C4,67.0,0.5,38,116.52
278,B-3,67.5,0.5,35,116.52
279,B-1,68.0,0.5,38,116.52
280,F5,68.0,1.5,52,116.52
281,D5,68.0,1.5,52,116.52
282,B-3,68.5,1.0,35,116.52
283,B-3,69.5,0.5,33,116.52
284,C5,69.5,0.5,50,116.52
285,G#4,69.5,0.5,50,116.52
286,B-3,70.0,0.5,37,116.52
287,E-5,70.0,1.0,52,116.52
288,C5,70.0,1.0,52,116.52
289,B-3,70.5,1.0,35,116.52
290,B-4,71.0,0.5,52,116.52
291,D5,71.0,0.5,52,116.52
292,B-3,71.5,0.5,34,116.52
293,B-4,71.5,0.5,50,116.52
294,G4,71.5,0.5,50,116.52
295,B-3,72.0,0.5,38,116.52
296,B-4,72.0,1.0,52,116.52
297,D5,72.0,1.0,52,116.52
298,B-3,72.5,1.0,35,116.52
299,C5,73.0,1.0,49,116.52
300,G#4,73.0,1.0,49,116.52
301,B-3,73.5,0.5,33,116.52
302,B-3,74.0,0.5,37,116.52
303,F4,74.0,2.0,47,116.52
304,G#4,74.0,2.0,47,116.52
305,B-3,74.5,1.0,35,116.52
306,B-3,75.5,0.5,34,116.52
307,B-1,76.0,0.5,54,116.52
308,G#5,76.0,1.5,72,116.52
309,F5,76.0,1.5,72,116.52
310,B-3,76.5,1.0,47,116.52
311,B-3,77.5,0.5,38,116.52
312,G5,77.5,0.5,57,116.52
313,E5,77.5,0.5,57,116.52
314,B-3,78.0,0.5,39,116.52
315,E5,78.0,0.5,63,116.52
316,C#5,78.0,0.5,63,116.52
317,B-3,78.5,1.0,38,116.52
318,G5,78.5,0.5,56,116.52
319,E5,78.5,0.5,56,116.52
320,D5,79.0,0.5,61,116.52
321,F5,79.0,0.5,61,116.52
322,B-3,79.5,0.5,36,116.52
323,B4,79.5,0.5,56,116.52
324,D5,79.5,0.5,56,116.52
325,B-3,80.0,0.5,40,116.52
326,F5,80.0,0.5,60,116.52
327,D5,80.0,0.5,60,116.52
328,B-3,80.5,1.0,38,116.52
329,E-5,80.5,0.5,53,116.52
330,C5,80.5,0.5,53,116.52
331,G#4,81.0,0.5,53,116.52
332,C5,81.0,0.5,53,116.52
333,B-3,81.5,0.5,35,116.52
334,G#4,81.5,0.5,50,116.52
335,F4,81.5,0.5,50,116.52
336,A3,82.0,0.5,45,116.52
337,D4,82.0,2.0,48,116.52
338,F4,82.0,2.0,48,116.52
339,B-3,82.5,0.375,39,116.52
340,C#4,82.875,167/1000,34,116.52
341,B3,83.0,271/500,40,116.52
342,B-3,83.5,0.5,38,116.52
343,A4,84.0,0.5,51,116.52
344,F#5,84.0,1.5,57,116.52
345,E-4,84.0,1.0,44,116.52
346,B-4,84.5,0.5,47,116.52
347,B4,85.0,0.5,52,116.52
348,G#3,85.0,1.0,30,116.52
349,C5,85.5,0.5,40,116.52
350,G#5,85.5,0.5,52,116.52
351,F#5,86.0,167/1000,60,116.52
352,C5,86.0,2.0,40,116.52
353,A3,86.0,2.0,44,116.52
354,G#5,86.167,167/1000,49,116.52
355,F#5,86.333,167/1000,49,116.52
356,F5,86.5,0.5,55,116.52
357,E-4,86.5,1.0,47,116.52
358,E5,87.0,0.5,56,116.52
359,F5,87.5,0.5,49,116.52
360,C4,87.5,0.5,36,116.52
361,C#5,88.0,1.5,57,116.52
362,E4,88.0,0.5,51,116.52
363,B-3,88.0,1.0,44,116.52
364,F4,88.5,0.375,47,116.52
365,G#4,88.875,0.125,46,116.52
366,F#4,89.0,0.5,52,116.52
367,G#3,89.0,1.0,30,116.52
368,C#5,89.5,0.5,46,116.52
369,F4,89.5,0.5,46,116.52
370,C#5,90.0,0.5,60,116.52
371,G3,90.0,2.0,40,116.52
372,E4,90.0,2.0,40,116.52
373,B-4,90.0,2.0,40,116.52
374,C5,90.5,0.5,55,116.52
375,B4,91.0,0.5,56,116.52
376,C5,91.5,0.5,49,116.52
377,C3,91.5,0.5,36,116.52
378,C3,92.0,0.5,34,116.52
379,F2,92.0,2.0,37,116.52
380,G#4,92.0,1.0,51,116.52
381,C5,92.0,1.0,51,116.52
382,C3,92.5,1.0,35,116.52
383,C#5,93.0,0.5,56,116.52
384,B-4,93.0,0.5,56,116.52
385,C3,93.5,0.5,34,116.52
386,C#5,93.5,0.5,52,116.52
387,F5,93.5,0.5,52,116.52
388,C3,94.0,0.5,34,116.52
389,F2,94.0,2.0,37,116.52
390,C#5,94.0,1.0,55,116.52
391,B-4,94.0,1.0,55,116.52
392,C3,94.5,1.0,35,116.52
393,G4,95.0,1.0,51,116.52
394,B-4,95.0,1.0,51,116.52
395,C3,95.5,0.5,34,116.52
396,C3,96.0,0.5,34,116.52
397,F2,96.0,2.0,37,116.52
398,G4,96.0,0.5,51,116.52
399,E4,96.0,0.5,51,116.52
400,C3,96.5,1.0,35,116.52
401,G#4,96.5,0.5,52,116.52
402,F4,96.5,0.5,52,116.52
403,G4,97.0,0.5,57,116.52
404,B-4,97.0,0.5,57,116.52
405,C3,97.5,0.5,34,116.52
406,B-4,97.5,0.5,52,116.52
407,C#5,97.5,0.5,52,116.52
408,F2,98.0,0.5,50,116.52
409,C3,98.0,2.0,50,116.52
410,C5,98.0,2.0,47,116.52
411,G#4,98.0,2.0,47,116.52
412,F2,98.5,1.0,53,116.52
413,E2,99.5,0.5,54,116.52
414,E-2,100.0,0.5,56,116.52
415,G#4,100.0,1.0,69,116.52
416,C5,100.0,1.0,69,116.52
417,E-4,100.5,1.0,44,116.52
418,E-5,101.0,0.5,65,116.52
419,C5,101.0,0.5,65,116.52
420,E-4,101.5,0.5,42,116.52
421,F5,101.5,0.5,59,116.52
422,G#5,101.5,0.5,59,116.52
423,E-4,102.0,0.5,42,116.52
424,C#5,102.0,1.0,63,116.52
425,F5,102.0,1.0,63,116.52
426,E-4,102.5,1.0,44,116.52
427,C#5,103.0,1.0,60,116.52
428,B-4,103.0,1.0,60,116.52
429,E-4,103.5,0.5,42,116.52
430,E-4,104.0,0.5,42,116.52
431,G4,104.0,0.5,65,116.52
432,B-4,104.0,0.5,65,116.52
433,E-4,104.5,1.0,44,116.52
434,C5,104.5,0.5,60,116.52
435,G#4,104.5,0.5,60,116.52
436,B-4,105.0,0.5,70,116.52
437,C#5,105.0,0.5,70,116.52
438,E-4,105.5,0.5,42,116.52
439,C#5,105.5,0.5,59,116.52
440,E5,105.5,0.5,59,116.52
441,G#3,106.0,0.5,49,116.52
442,E-5,106.0,2.0,53,116.52
443,C5,106.0,2.0,53,116.52
444,E-4,106.5,0.5,46,116.52
445,G#4,107.0,0.5,53,116.52
446,G4,107.5,0.5,48,116.52
447,G4,108.0,1.5,54,116.52
448,G#4,108.0,0.5,42,116.52
449,C5,108.0,0.5,42,116.52
450,E-5,108.0,0.5,42,116.52
451,C5,108.5,1.0,37,116.52
452,G#4,108.5,1.0,37,116.52
453,E-5,108.5,1.0,37,116.52
454,F4,109.5,0.5,50,116.52
455,G#4,109.5,0.5,33,116.52
456,E-5,109.5,0.5,33,116.52
457,C5,109.5,0.5,33,116.52
458,C4,110.0,1.0,53,116.52
459,G#4,110.0,0.5,42,116.52
460,E-5,110.0,0.5,42,116.52
461,C5,110.0,0.5,42,116.52
462,E-5,110.5,1.0,37,116.52
463,C5,110.5,1.0,37,116.52
464,G#4,110.5,1.0,37,116.52
465,B3,111.0,0.5,48,116.52
466,C4,111.5,0.5,42,116.52
467,C5,111.5,0.5,33,116.52
468,G#4,111.5,0.5,33,116.52
469,E-5,111.5,0.5,33,116.52
470,F4,112.0,1.0,53,116.52
471,G#4,112.5,0.5,38,116.52
472,E-5,112.5,0.5,38,116.52
473,C5,112.5,0.5,38,116.52
474,G4,113.0,1.0,51,116.52
475,G#4,113.5,0.5,39,116.52
476,C5,113.5,0.5,39,116.52
477,E-5,113.5,0.5,39,116.52
478,G4,114.0,1.0,53,116.52
479,C5,114.5,0.5,39,116.52
480,E-5,114.5,0.5,39,116.52
481,G#4,114.5,0.5,39,116.52
482,F4,115.0,1.0,52,116.52
483,G#4,115.5,0.5,36,116.52
484,C5,115.5,0.5,36,116.52
485,E-5,115.5,0.5,36,116.52
486,G4,116.0,1.5,54,116.52
487,C5,116.0,0.5,37,116.52
488,G#4,116.0,0.5,37,116.52
489,E-5,116.0,0.5,37,116.52
490,G#4,116.5,1.0,37,116.52
491,E-5,116.5,1.0,37,116.52
492,C5,116.5,1.0,37,116.52
493,F4,117.5,0.5,50,116.52
494,G#4,117.5,0.5,33,116.52
495,C5,117.5,0.5,33,116.52
496,E-5,117.5,0.5,33,116.52
497,C4,118.0,1.0,53,116.52
498,C5,118.0,0.5,42,116.52
499,E-5,118.0,0.5,42,116.52
500,G#4,118.0,0.5,42,116.52
501,G#4,118.5,1.0,37,116.52
502,C5,118.5,1.0,37,116.52
503,E-5,118.5,1.0,37,116.52
504,B3,119.0,0.5,48,116.52
505,C4,119.5,0.5,42,116.52
506,C5,119.5,0.5,33,116.52
507,G#4,119.5,0.5,33,116.52
508,E-5,119.5,0.5,33,116.52
509,F4,120.0,0.5,53,116.52
510,G4,120.5,0.5,49,116.52
511,G#4,120.5,0.5,38,116.52
512,E-5,120.5,0.5,38,116.52
513,C5,120.5,0.5,38,116.52
514,G#4,121.0,0.5,51,116.52
515,G4,121.5,0.5,47,116.52
516,G#4,121.5,0.5,39,116.52
517,E-5,121.5,0.5,39,116.52
518,C5,121.5,0.5,39,116.52
519,G4,122.0,1.0,53,116.52
520,C5,122.5,0.5,39,116.52
521,E-5,122.5,0.5,39,116.52
522,G#4,122.5,0.5,39,116.52
523,F4,123.0,1.0,52,116.52
524,G#4,123.5,0.5,36,116.52
525,C5,123.5,0.5,36,116.52
526,E-5,123.5,0.5,36,116.52
527,B-1,124.0,0.5,54,116.52
528,G#5,124.0,1.5,72,116.52
529,C6,124.0,1.5,72,116.52
530,B-3,124.5,1.0,47,116.52
531,B-3,125.5,0.5,38,116.52
532,E5,125.5,0.5,57,116.52
533,G5,125.5,0.5,57,116.52
534,B-3,126.0,0.5,39,116.52
535,B-5,126.0,1.0,63,116.52
536,G5,126.0,1.0,63,116.52
537,B-3,126.5,1.0,38,116.52
538,G#5,127.0,0.5,61,116.52
539,F5,127.0,0.5,61,116.52
540,B-3,127.5,0.5,36,116.52
541,D5,127.5,0.5,56,116.52
542,F5,127.5,0.5,56,116.52
543,B-3,128.0,0.5,39,116.52
544,D5,128.0,1.0,63,116.52
545,B-4,128.0,1.0,63,116.52
546,B-3,128.5,1.0,38,116.52
547,G4,129.0,1.0,54,116.52
548,B-4,129.0,1.0,54,116.52
549,B-3,129.5,0.5,36,116.52
550,B-3,130.0,0.5,39,116.52
551,E4,130.0,1.0,56,116.52
552,G4,130.0,1.0,56,116.52
553,B-3,130.5,1.0,38,116.52
554,G#4,131.0,1.0,52,116.52
555,F4,131.0,1.0,52,116.52
556,B-3,131.5,0.5,36,116.52
557,F#4,132.0,2.0,50,116.52
558,B4,132.0,1.5,56,116.52
559,A3,132.0,0.5,37,116.52
560,E-4,132.0,2.0,56,116.52
561,A3,132.5,1.0,37,116.52
562,C#5,133.5,0.5,51,116.52
563,A3,133.5,0.5,37,116.52
564,G#3,134.0,1.0,39,116.52
565,B4,134.0,0.5,50,116.52
566,E4,134.0,0.5,50,116.52
567,E5,134.5,0.5,55,116.52
568,F#5,135.0,0.5,57,116.52
569,G#5,135.5,0.5,59,116.52
570,B5,136.0,0.5,59,116.52
571,G#5,136.5,0.5,57,116.52
572,F#5,137.0,0.5,55,116.52
573,E5,137.5,0.5,53,116.52
574,E-5,138.0,1.0,51,116.52
575,G#4,138.0,2.0,42,116.52
576,F4,138.0,2.0,35,116.52
577,B-3,138.0,2.0,35,116.52
578,D5,139.0,1.0,50,116.52
579,B-3,140.0,0.5,38,116.52
580,E-3,140.0,2.0,32,116.52
581,G5,140.0,1.5,52,116.52
582,E-5,140.0,1.5,52,116.52
583,B-3,140.5,1.0,35,116.52
584,B-3,141.5,0.5,33,116.52
585,D5,141.5,0.5,50,116.52
586,F5,141.5,0.5,50,116.52
587,B-3,142.0,0.5,37,116.52
588,E-3,142.0,2.0,32,116.52
589,G#5,142.0,1.0,52,116.52
590,F5,142.0,1.0,52,116.52
591,B-3,142.5,1.0,35,116.52
592,D5,143.0,0.5,52,116.52
593,F5,143.0,0.5,52,116.52
594,B-3,143.5,0.5,34,116.52
595,E-5,143.5,0.5,50,116.52
596,G5,143.5,0.5,50,116.52
597,B-3,144.0,0.5,38,116.52
598,E-3,144.0,2.0,32,116.52
599,C5,144.0,1.0,52,116.52
600,E-5,144.0,1.0,52,116.52
601,B-3,144.5,1.0,35,116.52
602,G#4,145.0,1.0,49,116.52
603,C5,145.0,1.0,49,116.52
604,B-3,145.5,0.5,33,116.52
605,B-3,146.0,0.5,37,116.52
606,E-3,146.0,2.0,32,116.52
607,G4,146.0,2.0,47,116.52
608,B-4,146.0,2.0,47,116.52
609,B-3,146.5,1.0,35,116.52
610,B-3,147.5,0.5,34,116.52
611,G#4,148.0,2.0,51,116.52
612,C5,148.0,1.0,51,116.52
613,F4,148.0,2.0,34,116.52
614,E-3,148.0,2.0,34,116.52
615,B-3,148.5,1.0,35,116.52
616,D5,149.0,0.5,56,116.52
617,F5,149.5,0.5,55,116.52
618,B-3,149.5,0.5,34,116.52
619,G#4,150.0,2.0,55,116.52
620,D5,150.0,1.0,55,116.52
621,F4,150.0,2.0,34,116.52
622,E-3,150.0,2.0,34,116.52
623,B-3,150.5,1.0,35,116.52
624,B-4,151.0,1.0,51,116.52
625,B-3,151.5,0.5,34,116.52
626,G4,152.0,2.0,51,116.52
627,C5,152.0,0.5,51,116.52
628,B-3,152.0,0.5,37,116.52
629,E-3,152.0,2.0,32,116.52
630,D5,152.5,0.5,49,116.52
631,B-3,152.5,1.0,35,116.52
632,G5,153.0,0.5,52,116.52
633,C5,153.5,0.5,50,116.52
634,B-3,153.5,0.5,34,116.52
635,E-3,154.0,2.0,32,116.52
636,B-3,154.0,0.5,37,116.52
637,G4,154.0,2.0,47,116.52
638,B-4,154.0,2.0,47,116.52
639,B-3,154.5,1.0,35,116.52
640,B-3,155.5,0.5,34,116.52
641,D4,156.0,0.5,42,116.52
642,G3,156.0,2.0,35,116.52
643,D5,156.0,1.5,64,116.52
644,B-4,156.0,1.5,64,116.52
645,D4,156.5,1.0,38,116.52
646,D4,157.5,0.5,36,116.52
647,G4,157.5,0.5,55,116.52
648,B-4,157.5,0.5,55,116.52
649,C5,158.0,1.0,51,116.52
650,A4,158.0,2.0,60,116.52
651,E-4,158.0,0.5,40,116.52
652,G3,158.0,2.0,35,116.52
653,E-4,158.5,1.0,38,116.52
654,F#5,159.0,0.5,65,116.52
655,A5,159.5,0.5,60,116.52
656,E-4,159.5,0.5,37,116.52
657,B-4,160.0,1.0,57,116.52
658,G5,160.0,0.5,64,116.52
659,D4,160.0,0.5,43,116.52
660,G3,160.0,1.0,38,116.52
661,D5,160.5,0.5,56,116.52
662,D4,160.5,0.5,37,116.52
663,A4,161.0,1.0,51,116.52
664,C5,161.0,0.5,58,116.52
665,G3,161.0,1.0,35,116.52
666,E-4,161.0,0.5,39,116.52
667,D5,161.5,0.5,53,116.52
668,E-4,161.5,0.5,35,116.52
669,G3,162.0,2.0,31,116.52
670,D4,162.0,0.5,36,116.52
671,G4,162.0,2.0,47,116.52
672,B-4,162.0,2.0,47,116.52
673,D4,162.5,1.0,34,116.52
674,D4,163.5,0.5,33,116.52
675,F3,164.0,0.5,42,116.52
676,D4,164.0,1.5,60,116.52
677,B-4,164.0,1.5,56,116.52
678,F5,164.0,1.5,56,116.52
679,F3,164.5,1.5,42,116.52
680,A4,165.5,0.5,49,116.52
681,G5,165.5,0.5,58,116.52
682,E-4,165.5,0.5,47,116.52
683,E-5,166.0,0.5,57,116.52
684,A4,166.0,2.0,49,116.52
685,C4,166.0,0.5,48,116.52
686,F3,166.0,2.0,42,116.52
687,F5,166.5,0.5,60,116.52
688,D4,166.5,0.5,49,116.52
689,G5,167.0,0.5,64,116.52
690,E-4,167.0,0.5,50,116.52
691,A5,167.5,0.5,61,116.52
692,F4,167.5,0.5,50,116.52
693,D4,168.0,0.5,56,116.52
694,B-4,168.0,0.5,64,116.52
695,F5,168.0,0.5,64,116.52
696,B3,168.5,0.5,49,116.52
697,G#4,168.5,0.5,52,116.52
698,D5,168.5,0.5,52,116.52
699,C4,169.0,0.5,52,116.52
700,A4,169.0,0.5,56,116.52
701,E-5,169.0,0.5,56,116.52
702,F4,169.5,0.5,46,116.52
703,C#5,169.5,0.5,54,116.52
704,A3,169.5,0.5,48,116.52
705,D5,170.0,0.5,59,116.52
706,F4,170.0,2.0,46,116.52
707,B-3,170.0,2.0,51,116.52
708,G#4,170.5,1.0,38,116.52
709,C5,170.5,0.5,52,116.52
710,E-4,170.5,0.5,39,116.52
711,B4,171.0,0.5,46,116.52
712,D4,171.0,1.0,36,116.52
713,B-4,171.5,0.5,43,116.52
714,B-3,172.0,0.5,38,116.52
715,E-3,172.0,2.0,32,116.52
716,G5,172.0,1.5,52,116.52
717,E-5,172.0,1.5,52,116.52
718,B-3,172.5,1.0,35,116.52
719,B-3,173.5,0.5,33,116.52
720,D5,173.5,0.5,50,116.52
721,F5,173.5,0.5,50,116.52
722,B-3,174.0,0.5,37,116.52
723,E-3,174.0,2.0,32,116.52
724,G#5,174.0,1.0,52,116.52
725,F5,174.0,1.0,52,116.52
726,B-3,174.5,1.0,35,116.52
727,D5,175.0,0.5,52,116.52
728,F5,175.0,0.5,52,116.52
729,B-3,175.5,0.5,34,116.52
730,E-5,175.5,0.5,50,116.52
731,G5,175.5,0.5,50,116.52
732,B-3,176.0,0.5,38,116.52
733,E-3,176.0,2.0,32,116.52
734,C5,176.0,1.0,52,116.52
735,E-5,176.0,1.0,52,116.52
736,B-3,176.5,1.0,35,116.52
737,G#4,177.0,1.0,49,116.52
738,C5,177.0,1.0,49,116.52
739,B-3,177.5,0.5,33,116.52
740,B-3,178.0,0.5,37,116.52
741,E-3,178.0,2.0,32,116.52
742,G4,178.0,2.0,47,116.52
743,B-4,178.0,2.0,47,116.52
744,B-3,178.5,1.0,35,116.52
745,B-3,179.5,0.5,34,116.52
746,G#4,180.0,2.0,51,116.52
747,C5,180.0,1.0,51,116.52
748,F4,180.0,2.0,34,116.52
749,E-3,180.0,2.0,34,116.52
750,B-3,180.5,1.0,35,116.52
751,D5,181.0,0.5,56,116.52
752,F5,181.5,0.5,55,116.52
753,B-3,181.5,0.5,34,116.52
754,G#4,182.0,2.0,55,116.52
755,D5,182.0,1.0,55,116.52
756,F4,182.0,2.0,34,116.52
757,E-3,182.0,2.0,34,116.52
758,B-3,182.5,1.0,35,116.52
759,B-4,183.0,1.0,51,116.52
760,B-3,183.5,0.5,34,116.52
761,G4,184.0,2.0,51,116.52
762,C5,184.0,0.5,51,116.52
763,B-3,184.0,0.5,37,116.52
764,E-3,184.0,2.0,32,116.52
765,D5,184.5,0.5,49,116.52
766,B-3,184.5,1.0,35,116.52
767,G5,185.0,0.5,52,116.52
768,C5,185.5,0.5,50,116.52
769,B-3,185.5,0.5,34,116.52
770,E-3,186.0,2.0,32,116.52
771,B-3,186.0,0.5,37,116.52
772,G4,186.0,2.0,47,116.52
773,B-4,186.0,2.0,47,116.52
774,B-3,186.5,1.0,35,116.52
775,B-3,187.5,0.5,34,116.52
776,F4,188.0,0.5,52,116.52
777,G4,188.0,1.5,51,116.52
778,C#5,188.0,1.5,51,116.52
779,E-3,188.5,1.0,47,116.52
780,E-4,189.5,0.5,40,116.52
781,G4,189.5,0.5,49,116.52
782,C5,189.5,0.5,49,116.52
783,G4,190.0,2.0,47,116.52
784,C5,190.0,1.5,56,116.52
785,E-4,190.0,0.5,49,116.52
786,D4,190.5,0.5,42,116.52
787,C#4,191.0,1.0,39,116.52
788,B-4,191.5,0.5,52,116.52
789,E-4,192.0,1.0,45,116.52
790,G4,192.0,0.5,53,116.52
791,B3,192.0,0.5,49,116.52
792,G#4,192.5,0.5,55,116.52
793,C4,192.5,0.5,46,116.52
794,B4,193.0,0.5,56,116.52
795,G3,193.0,0.5,52,116.52
796,C5,193.5,0.5,57,116.52
797,G#3,193.5,0.5,47,116.52
798,D5,194.0,0.5,59,116.52
799,B3,194.0,0.5,51,116.52
800,E-5,194.5,0.5,56,116.52
801,C4,194.5,0.5,48,116.52
802,F3,195.0,1.0,45,116.52
803,C5,195.0,0.5,52,116.52
804,E-5,195.0,0.5,52,116.52
805,G#5,195.0,0.5,52,116.52
806,E-4,195.5,0.5,44,116.52
807,G#4,195.5,0.5,44,116.52
808,C5,195.5,0.5,44,116.52
809,B-2,196.0,0.5,44,116.52
810,E-4,196.0,1.5,47,116.52
811,C5,196.0,1.5,47,116.52
812,G#4,196.0,1.5,47,116.52
813,B-3,196.5,1.0,36,116.52
814,B-3,197.5,0.5,36,116.52
815,F4,197.5,0.5,45,116.52
816,G#4,197.5,0.5,45,116.52
817,D5,197.5,0.5,45,116.52
818,B-3,198.0,0.5,36,116.52
819,E-4,198.0,1.0,47,116.52
820,C5,198.0,1.0,47,116.52
821,G#4,198.0,1.0,47,116.52
822,B-3,198.5,1.0,35,116.52
823,D4,199.0,1.0,43,116.52
824,G#4,199.0,1.0,43,116.52
825,B-4,199.0,1.0,43,116.52
826,B-3,199.5,0.5,34,116.52
827,B-2,200.0,0.5,44,116.52
828,G4,200.0,1.5,48,116.52
829,E-4,200.0,1.5,48,116.52
830,B-3,200.5,1.0,48,116.52
831,D4,201.5,0.5,36,116.52
832,E-4,201.5,0.5,46,116.52
833,B-4,201.5,0.5,46,116.52
834,D4,202.0,0.5,36,116.52
835,E-4,202.0,1.0,48,116.52
836,G#4,202.0,1.0,48,116.52
837,C4,202.5,1.0,35,116.52
838,E-4,203.0,1.0,44,116.52
839,G4,203.0,1.0,44,116.52
840,B-3,203.5,0.5,34,116.52
841,C4,204.0,0.5,47,116.52
842,F4,204.0,0.5,47,116.52
843,B-2,204.0,0.5,33,116.52
844,G#3,204.0,0.5,33,116.52
845,C4,204.5,0.5,30,116.52
846,E-4,204.5,0.5,38,116.52
847,G#4,204.5,0.5,38,116.52
848,G#3,205.0,0.5,32,116.52
849,C4,205.0,0.5,46,116.52
850,F4,205.0,0.5,46,116.52
851,B-3,205.5,0.5,30,116.52
852,D4,205.5,0.5,37,116.52
853,G4,205.5,0.5,37,116.52
854,G#3,206.0,1.0,31,116.52
855,C4,206.0,1.0,42,116.52
856,F4,206.0,1.0,42,116.52
857,D4,207.0,1.0,37,116.52
858,G4,207.0,1.0,37,116.52
859,B-4,207.0,1.0,37,116.52
860,B-2,207.0,1.0,28,116.52
861,G#3,207.0,1.0,28,116.52
862,B-2,208.0,0.5,32,116.52
863,E-2,208.0,2.0,28,116.52
864,B-2,208.5,1.0,30,116.52
865,B-2,209.5,0.5,28,116.52
866,B-2,210.0,0.5,30,116.52
867,E-2,210.0,2.0,27,116.52
868,B-2,210.5,1.0,28,116.52
869,B-2,211.5,0.5,27,116.52
870,B-2,212.0,0.5,29,116.52
871,E-2,212.0,2.0,25,116.52
872,G5,212.0,1.5,42,116.52
873,E-5,212.0,1.5,42,116.52
874,B-2,212.5,1.0,27,116.52
875,B-2,213.5,0.5,26,116.52
876,D5,213.5,0.5,38,116.52
877,F5,213.5,0.5,38,116.52
878,B-2,214.0,0.5,28,116.52
879,E-2,214.0,2.0,23,116.52
880,G#5,214.0,1.0,39,116.52
881,F5,214.0,1.0,39,116.52
882,B-2,214.5,1.0,26,116.52
883,D5,215.0,0.5,38,116.52
884,F5,215.0,0.5,38,116.52
885,B-2,215.5,0.5,25,116.52
886,E-5,215.5,0.5,35,116.52
887,G5,215.5,0.5,35,116.52
888,B-2,216.0,0.5,26,116.52
889,E-2,216.0,2.0,21,116.52
890,C5,216.0,1.0,35,116.52
891,E-5,216.0,1.0,35,116.52
892,B-2,216.5,1.0,25,116.52
893,G#4,217.0,1.0,31,116.52
894,C5,217.0,1.0,31,116.52
895,B-2,217.5,0.5,21,116.52
896,B-2,218.0,0.5,25,116.52
897,E-2,218.0,2.0,19,116.52
898,G4,218.0,2.0,29,116.52
899,B-4,218.0,2.0,29,116.52
900,B-2,218.5,1.0,21,116.52
901,B-2,219.5,0.5,19,116.52
902,B2,220.0,0.5,23,116.52
903,E-2,220.0,2.0,18,116.52
904,F#3,220.0,2.0,26,116.52
905,A3,220.0,2.0,26,116.52
906,E-4,220.0,2.0,26,116.52
907,B2,220.5,1.0,19,116.52
908,B2,221.5,0.5,17,116.52
909,B2,222.0,0.5,19,116.52
910,E-2,222.0,2.0,16,116.52
911,B2,222.5,1.0,17,116.52
912,B2,223.5,0.5,15,116.52
913,E-2,224.0,0.5,33,116.52
914,F#3,224.0,2.0,26,116.52
915,A3,224.0,2.0,26,116.52
916,E-4,224.0,2.0,26,116.52
917,B-2,224.5,0.5,29,116.52
918,E-3,225.0,0.5,34,116.52
919,G3,225.5,0.5,31,116.52
920,B-3,226.0,2.0,36,116.52
921,E-6,226.0,3.0,39,116.52
922,G5,226.0,3.0,39,116.52
923,F6,229.0,167/1000,34,116.52
924,G6,229.167,167/1000,33,116.52
925,F6,229.333,167/1000,33,116.52
926,E-6,229.5,167/1000,32,116.52
927,C6,229.667,167/1000,31,116.52
928,B-5,229.833,167/1000,31,116.52
929,G5,230.0,2.0,35,116.52
930,E-4,230.0,2.0,30,116.52
931,G#3,230.0,2.0,30,116.52
932,B4,232.0,2.0,34,116.52
933,F5,232.0,2.0,34,116.52
934,E-5,232.0,2.0,34,116.52
935,E-1,232.0,4.0,21,116.52
936,E-2,232.0,4.0,21,116.52
937,E-7,234.0,4.0,32,116.52
938,B-6,234.0,4.0,32,116.52
939,G6,234.0,4.0,32,116.52
940,E-6,234.0,4.0,32,116.52
