,note_name,start_time,duration,velocity,tempo
0,C#4,0.0,0.25,75,167.75
1,B4,0.5,0.25,45,167.75
2,G#4,0.5,0.25,45,167.75
3,E-5,0.5,0.25,45,167.75
4,F#4,0.75,0.25,51,167.75
5,G#4,1.0,0.25,72,167.75
6,E-5,1.5,0.25,45,167.75
7,B4,1.5,0.25,45,167.75
8,G#4,1.5,0.25,45,167.75
9,F#4,1.75,0.25,51,167.75
10,C#5,2.0,0.25,72,167.75
11,E-5,2.5,0.25,45,167.75
12,G#4,2.5,0.25,45,167.75
13,B4,2.5,0.25,45,167.75
14,F#4,2.75,0.25,51,167.75
15,G#5,3.0,0.25,72,167.75
16,G#4,3.5,0.25,47,167.75
17,B4,3.5,0.25,47,167.75
18,E-5,3.5,0.25,47,167.75
19,F#4,3.75,0.25,52,167.75
20,C#5,4.0,0.25,71,167.75
21,G#4,4.5,0.25,47,167.75
22,E-5,4.5,0.25,47,167.75
23,B4,4.5,0.25,47,167.75
24,F#4,4.75,0.25,52,167.75
25,G#4,5.0,0.25,71,167.75
26,G#4,5.5,0.25,47,167.75
27,B4,5.5,0.25,47,167.75
28,E-5,5.5,0.25,47,167.75
29,F#4,5.75,0.25,52,167.75
30,C#4,6.0,0.25,75,167.75
31,F5,6.5,0.25,45,167.75
32,B5,6.5,0.25,45,167.75
33,E-6,6.5,0.25,45,167.75
34,C#6,6.75,0.25,51,167.75
35,B4,7.0,0.25,51,167.75
36,F5,7.0,0.25,51,167.75
37,G#4,7.0,0.25,51,167.75
38,E-6,7.5,0.25,45,167.75
39,B5,7.5,0.25,45,167.75
40,F5,7.5,0.25,45,167.75
41,C#6,7.75,0.25,51,167.75
42,C#4,8.0,0.25,72,167.75
43,E-6,8.5,0.25,45,167.75
44,B5,8.5,0.25,45,167.75
45,F5,8.5,0.25,45,167.75
46,C#6,8.75,0.25,51,167.75
47,B4,9.0,0.25,53,167.75
48,F5,9.0,0.25,53,167.75
49,G#4,9.0,0.25,53,167.75
50,B5,9.5,0.25,47,167.75
51,F5,9.5,0.25,47,167.75
52,E-6,9.5,0.25,47,167.75
53,C#6,9.75,0.25,52,167.75
54,C#4,10.0,0.25,74,167.75
55,E-6,10.5,0.25,47,167.75
56,B5,10.5,0.25,47,167.75
57,F5,10.5,0.25,47,167.75
58,C#6,10.75,0.25,52,167.75
59,B4,11.0,0.25,52,167.75
60,F5,11.0,0.25,52,167.75
61,G#4,11.0,0.25,52,167.75
62,E-6,11.5,0.25,47,167.75
63,F5,11.5,0.25,47,167.75
64,B5,11.5,0.25,47,167.75
65,C#6,11.75,0.25,52,167.75
66,F#3,12.0,0.25,51,167.75
67,E-4,12.5,0.25,35,167.75
68,F#4,12.5,0.25,35,167.75
69,B-4,12.5,0.25,35,167.75
70,C#4,12.75,123/500,35,167.75
71,C#4,13.0,0.125,49,167.75
72,C#4,13.5,0.125,35,167.75
73,B-4,13.5,0.125,35,167.75
74,F#4,13.5,0.125,35,167.75
75,C#3,14.0,0.125,49,167.75
76,B-4,14.5,0.125,35,167.75
77,F#4,14.5,0.125,35,167.75
78,C#4,14.5,0.125,35,167.75
79,F#3,15.0,0.25,51,167.75
80,B-4,15.5,0.25,35,167.75
81,F#4,15.5,0.25,35,167.75
82,E-4,15.5,0.25,35,167.75
83,C#4,15.75,123/500,35,167.75
84,C#4,16.0,0.125,49,167.75
85,B-4,16.5,0.125,35,167.75
86,C#4,16.5,0.125,35,167.75
87,F#4,16.5,0.125,35,167.75
88,C#3,17.0,0.125,49,167.75
89,C#4,17.5,0.125,35,167.75
90,F#4,17.5,0.125,35,167.75
91,B-4,17.5,0.125,35,167.75
92,G#3,18.0,0.25,51,167.75
93,B4,18.5,0.25,35,167.75
94,F4,18.5,0.25,35,167.75
95,E-4,18.5,0.25,35,167.75
96,C#4,18.75,123/500,35,167.75
97,C#4,19.0,729/1000,51,167.75
98,F4,19.5,0.25,36,167.75
99,E-4,19.5,0.25,36,167.75
100,B4,19.5,0.25,36,167.75
101,C#4,19.75,0.25,36,167.75
102,E-4,20.0,479/1000,55,167.75
103,B4,20.5,0.25,38,167.75
104,F4,20.5,0.25,38,167.75
105,E-4,20.5,0.25,38,167.75
106,C#4,20.75,0.25,38,167.75
107,F4,21.0,479/1000,58,167.75
108,B4,21.5,0.25,39,167.75
109,E-4,21.5,0.25,39,167.75
110,F4,21.5,0.25,39,167.75
111,C#4,21.75,0.25,39,167.75
112,G#4,22.0,0.5,61,167.75
113,E-4,22.5,0.25,41,167.75
114,F4,22.5,0.25,41,167.75
115,B4,22.5,0.25,41,167.75
116,C#4,22.75,123/500,42,167.75
117,C#4,23.0,729/1000,58,167.75
118,E-4,23.5,0.25,43,167.75
119,B4,23.5,0.25,43,167.75
120,F4,23.5,0.25,43,167.75
121,C#4,23.75,0.25,44,167.75
122,F#3,24.0,0.25,51,167.75
123,E-4,24.5,0.25,35,167.75
124,F#4,24.5,0.25,35,167.75
125,B-4,24.5,0.25,35,167.75
126,C#4,24.75,123/500,35,167.75
127,C#4,25.0,0.125,49,167.75
128,C#4,25.5,0.125,35,167.75
129,F#4,25.5,0.125,35,167.75
130,B-4,25.5,0.125,35,167.75
131,C#3,26.0,0.125,49,167.75
132,F#4,26.5,0.125,35,167.75
133,C#4,26.5,0.125,35,167.75
134,B-4,26.5,0.125,35,167.75
135,F#3,27.0,0.25,51,167.75
136,E-4,27.5,0.25,35,167.75
137,F#4,27.5,0.25,35,167.75
138,B-4,27.5,0.25,35,167.75
139,C#4,27.75,123/500,35,167.75
140,C#4,28.0,0.125,49,167.75
141,C#4,28.5,0.125,35,167.75
142,B-4,28.5,0.125,35,167.75
143,F#4,28.5,0.125,35,167.75
144,C#3,29.0,0.125,49,167.75
145,B-4,29.5,0.125,35,167.75
146,F#4,29.5,0.125,35,167.75
147,C#4,29.5,0.125,35,167.75
148,G#3,30.0,0.25,51,167.75
149,B4,30.5,0.25,35,167.75
150,F4,30.5,0.25,35,167.75
151,E-4,30.5,0.25,35,167.75
152,C#4,30.75,0.25,35,167.75
153,C#4,31.0,729/1000,51,167.75
154,B4,31.5,0.25,36,167.75
155,E-4,31.5,0.25,36,167.75
156,F4,31.5,0.25,36,167.75
157,C#4,31.75,0.25,36,167.75
158,E-4,32.0,479/1000,55,167.75
159,E-4,32.5,0.25,38,167.75
160,F4,32.5,0.25,38,167.75
161,B4,32.5,0.25,38,167.75
162,C#4,32.75,0.25,38,167.75
163,F4,33.0,479/1000,58,167.75
164,E-4,33.5,0.25,39,167.75
165,B4,33.5,0.25,39,167.75
166,F4,33.5,0.25,39,167.75
167,C#4,33.75,0.25,39,167.75
168,G#4,34.0,1.0,61,167.75
169,E-4,34.5,0.25,41,167.75
170,F4,34.5,0.25,41,167.75
171,B4,34.5,0.25,41,167.75
172,C#4,34.75,0.25,42,167.75
173,C#4,35.0,729/1000,58,167.75
174,E-4,35.5,0.25,43,167.75
175,F4,35.5,0.25,43,167.75
176,B4,35.5,0.25,43,167.75
177,C#4,35.75,0.25,44,167.75
178,C#4,36.0,0.75,58,167.75
179,F#4,36.0,0.75,58,167.75
180,F#3,36.0,0.75,54,167.75
181,B-3,36.0,0.75,54,167.75
182,C#4,36.75,0.25,50,167.75
183,F#4,36.75,0.25,55,167.75
184,B-4,36.75,0.25,55,167.75
185,F#4,37.0,0.25,50,167.75
186,B-4,37.0,0.25,57,167.75
187,C#5,37.0,0.25,57,167.75
188,B-4,37.5,0.25,54,167.75
189,C#5,37.5,0.25,61,167.75
190,F#5,37.5,0.25,61,167.75
191,C#5,38.0,0.25,56,167.75
192,F#5,38.0,0.25,66,167.75
193,B-5,38.0,0.25,66,167.75
194,F#5,38.5,0.25,54,167.75
195,C#6,38.5,0.25,63,167.75
196,B-5,38.5,0.25,63,167.75
197,B-5,39.0,0.25,63,167.75
198,F#6,39.0,0.5,76,167.75
199,C#6,39.0,0.5,76,167.75
200,F#2,39.875,1.125,58,167.75
201,C#3,39.938,1.062,61,167.75
202,B-3,40.0,1.0,70,167.75
203,F#7,40.0,1.0,85,167.75
204,C#7,40.0,1.0,85,167.75
205,F#6,40.0,1.0,85,167.75
206,F#4,42.0,0.5,53,167.75
207,F#5,42.0,0.5,67,167.75
208,F#6,42.0,0.5,67,167.75
209,G#4,42.5,0.5,55,167.75
210,G#6,42.5,0.5,69,167.75
211,G#5,42.5,0.5,69,167.75
212,B-4,43.0,1.0,56,167.75
213,B-5,43.0,1.0,71,167.75
214,B-6,43.0,1.0,71,167.75
215,G#4,44.0,0.5,54,167.75
216,G#5,44.0,0.5,68,167.75
217,G#6,44.0,0.5,68,167.75
218,F#4,44.5,0.5,50,167.75
219,F#6,44.5,0.375,65,167.75
220,F#5,44.5,0.375,65,167.75
221,G#5,44.75,0.125,53,167.75
222,G#6,44.75,0.125,53,167.75
223,B-5,44.875,0.125,53,167.75
224,B-6,44.875,0.125,53,167.75
225,G#4,45.0,1.0,56,167.75
226,G#6,45.0,1.0,68,167.75
227,G#5,45.0,1.0,68,167.75
228,F#4,46.0,0.5,54,167.75
229,F#5,46.0,0.5,59,167.75
230,F#6,46.0,0.5,59,167.75
231,E-4,46.5,0.5,50,167.75
232,E-6,46.5,0.5,57,167.75
233,E-5,46.5,0.5,57,167.75
234,C#4,47.0,1.0,47,167.75
235,C#5,47.0,1.0,55,167.75
236,C#6,47.0,1.0,55,167.75
237,D5,48.0,1.0,62,167.75
238,G#4,48.0,0.5,62,167.75
239,G#5,48.0,0.5,62,167.75
240,B3,48.0,1.0,59,167.75
241,F#4,48.0,1.0,59,167.75
242,B-5,48.5,0.5,64,167.75
243,B-4,48.5,0.5,64,167.75
244,B4,49.0,1.0,66,167.75
245,D5,49.0,1.0,66,167.75
246,B5,49.0,1.0,66,167.75
247,G#3,49.0,0.875,56,167.75
248,F#4,49.0,0.875,56,167.75
249,C#3,49.875,1.125,42,167.75
250,B3,49.938,1.062,43,167.75
251,C#5,50.0,1.0,59,167.75
252,F4,50.0,1.0,54,167.75
253,G#5,50.0,0.5,59,167.75
254,G#4,50.0,0.5,59,167.75
255,B-5,50.5,0.5,53,167.75
256,B-4,50.5,0.5,53,167.75
257,F#5,51.0,0.5,62,167.75
258,B-4,51.0,0.5,62,167.75
259,F#4,51.0,0.5,62,167.75
260,F#3,51.0,1.0,54,167.75
261,C#4,51.0,1.0,54,167.75
262,E-4,51.5,0.25,35,167.75
263,F#4,51.5,0.25,35,167.75
264,B-4,51.5,0.25,35,167.75
265,C#4,51.75,0.25,35,167.75
266,C#4,52.0,0.125,49,167.75
267,C#4,52.5,0.125,35,167.75
268,F#4,52.5,0.125,35,167.75
269,B-4,52.5,0.125,35,167.75
270,C#3,53.0,0.125,49,167.75
271,F#4,53.5,0.125,35,167.75
272,C#4,53.5,0.125,35,167.75
273,B-4,53.5,0.125,35,167.75
274,F#3,54.0,0.25,51,167.75
275,E-4,54.5,0.25,35,167.75
276,F#4,54.5,0.25,35,167.75
277,B-4,54.5,0.25,35,167.75
278,C#4,54.75,123/500,35,167.75
279,C#4,55.0,0.125,49,167.75
280,C#4,55.5,0.125,35,167.75
281,B-4,55.5,0.125,35,167.75
282,F#4,55.5,0.125,35,167.75
283,C#3,56.0,0.125,49,167.75
284,B-4,56.5,0.125,35,167.75
285,F#4,56.5,0.125,35,167.75
286,C#4,56.5,0.125,35,167.75
287,G#3,57.0,0.25,51,167.75
288,B4,57.5,0.25,35,167.75
289,F4,57.5,0.25,35,167.75
290,E-4,57.5,0.25,35,167.75
291,C#4,57.75,0.25,35,167.75
292,C#4,58.0,729/1000,51,167.75
293,B4,58.5,0.25,36,167.75
294,E-4,58.5,0.25,36,167.75
295,F4,58.5,0.25,36,167.75
296,C#4,58.75,0.25,36,167.75
297,E-4,59.0,479/1000,55,167.75
298,E-4,59.5,0.25,38,167.75
299,F4,59.5,0.25,38,167.75
300,B4,59.5,0.25,38,167.75
301,C#4,59.75,0.25,38,167.75
302,F4,60.0,479/1000,58,167.75
303,E-4,60.5,0.25,39,167.75
304,B4,60.5,0.25,39,167.75
305,F4,60.5,0.25,39,167.75
306,C#4,60.75,0.25,39,167.75
307,G#4,61.0,1.0,61,167.75
308,E-4,61.5,0.25,41,167.75
309,F4,61.5,0.25,41,167.75
310,B4,61.5,0.25,41,167.75
311,C#4,61.75,0.25,42,167.75
312,C#4,62.0,729/1000,58,167.75
313,E-4,62.5,0.25,43,167.75
314,F4,62.5,0.25,43,167.75
315,B4,62.5,0.25,43,167.75
316,C#4,62.75,0.25,44,167.75
317,F#3,63.0,0.25,51,167.75
318,B-4,63.5,0.25,35,167.75
319,F#4,63.5,0.25,35,167.75
320,E-4,63.5,0.25,35,167.75
321,C#4,63.75,123/500,35,167.75
322,C#4,64.0,0.125,49,167.75
323,B-4,64.5,0.125,35,167.75
324,F#4,64.5,0.125,35,167.75
325,C#4,64.5,0.125,35,167.75
326,C#3,65.0,0.125,49,167.75
327,B-4,65.5,0.125,35,167.75
328,C#4,65.5,0.125,35,167.75
329,F#4,65.5,0.125,35,167.75
330,F#3,66.0,0.25,51,167.75
331,E-4,66.5,0.25,35,167.75
332,F#4,66.5,0.25,35,167.75
333,B-4,66.5,0.25,35,167.75
334,C#4,66.75,123/500,35,167.75
335,C#4,67.0,0.125,49,167.75
336,C#4,67.5,0.125,35,167.75
337,F#4,67.5,0.125,35,167.75
338,B-4,67.5,0.125,35,167.75
339,C#3,68.0,0.125,49,167.75
340,F#4,68.5,0.125,35,167.75
341,C#4,68.5,0.125,35,167.75
342,B-4,68.5,0.125,35,167.75
343,G#3,69.0,0.25,51,167.75
344,E-4,69.5,0.25,35,167.75
345,F4,69.5,0.25,35,167.75
346,B4,69.5,0.25,35,167.75
347,C#4,69.75,0.25,35,167.75
348,C#4,70.0,729/1000,51,167.75
349,E-4,70.5,0.25,36,167.75
350,B4,70.5,0.25,36,167.75
351,F4,70.5,0.25,36,167.75
352,C#4,70.75,0.25,36,167.75
353,E-4,71.0,479/1000,55,167.75
354,E-4,71.5,0.25,38,167.75
355,F4,71.5,0.25,38,167.75
356,B4,71.5,0.25,38,167.75
357,C#4,71.75,0.25,38,167.75
358,F4,72.0,479/1000,58,167.75
359,E-4,72.5,0.25,39,167.75
360,F4,72.5,0.25,39,167.75
361,B4,72.5,0.25,39,167.75
362,C#4,72.75,0.25,39,167.75
363,G#4,73.0,1.0,61,167.75
364,B4,73.5,0.25,41,167.75
365,F4,73.5,0.25,41,167.75
366,E-4,73.5,0.25,41,167.75
367,C#4,73.75,123/500,42,167.75
368,C#4,74.0,479/1000,58,167.75
369,B4,74.5,0.25,43,167.75
370,F4,74.5,0.25,43,167.75
371,E-4,74.5,0.25,43,167.75
372,C#4,74.75,0.25,44,167.75
373,F#4,75.0,0.75,58,167.75
374,C#4,75.0,0.75,58,167.75
375,B-3,75.0,0.75,54,167.75
376,F#3,75.0,0.75,54,167.75
377,C#4,75.75,0.25,50,167.75
378,F#4,75.75,0.25,55,167.75
379,B-4,75.75,0.25,55,167.75
380,F#4,76.0,0.25,50,167.75
381,B-4,76.0,0.25,57,167.75
382,C#5,76.0,0.25,57,167.75
383,B-4,76.5,0.25,54,167.75
384,C#5,76.5,0.25,61,167.75
385,F#5,76.5,0.25,61,167.75
386,C#5,77.0,0.25,56,167.75
387,F#5,77.0,0.25,66,167.75
388,B-5,77.0,0.25,66,167.75
389,F#5,77.5,0.25,54,167.75
390,C#6,77.5,0.25,63,167.75
391,B-5,77.5,0.25,63,167.75
392,B-5,78.0,0.25,63,167.75
393,F#6,78.0,0.5,76,167.75
394,C#6,78.0,0.5,76,167.75
395,F#2,78.875,1.125,58,167.75
396,C#3,78.938,1.062,61,167.75
397,B-3,79.0,1.0,70,167.75
398,F#6,79.0,1.0,85,167.75
399,C#7,79.0,1.0,85,167.75
400,F#7,79.0,1.0,85,167.75
401,E-4,81.0,0.5,49,167.75
402,F#5,81.0,0.5,61,167.75
403,F#6,81.0,0.5,61,167.75
404,F4,81.5,0.5,50,167.75
405,G#6,81.5,0.5,63,167.75
406,G#5,81.5,0.5,63,167.75
407,F#4,82.0,1.0,51,167.75
408,B-5,82.0,1.0,66,167.75
409,B-6,82.0,1.0,66,167.75
410,F4,83.0,0.5,49,167.75
411,G#5,83.0,0.5,62,167.75
412,G#6,83.0,0.5,62,167.75
413,E-4,83.5,0.5,46,167.75
414,F#5,83.5,0.375,60,167.75
415,F#6,83.5,0.375,60,167.75
416,G#6,83.75,0.125,49,167.75
417,G#5,83.75,0.125,49,167.75
418,B-5,83.875,0.125,49,167.75
419,B-6,83.875,0.125,49,167.75
420,F4,84.0,1.0,51,167.75
421,G#6,84.0,1.0,62,167.75
422,G#5,84.0,1.0,62,167.75
423,E-4,85.0,0.5,49,167.75
424,F#5,85.0,0.5,58,167.75
425,F#6,85.0,0.5,58,167.75
426,B-3,85.5,0.5,46,167.75
427,F6,85.5,0.5,56,167.75
428,F5,85.5,0.5,56,167.75
429,F#3,86.0,1.0,42,167.75
430,E-5,86.0,1.0,53,167.75
431,E-6,86.0,1.0,53,167.75
432,F#4,87.0,2.0,57,167.75
433,E-3,87.0,2.0,55,167.75
434,C#4,87.0,2.0,55,167.75
435,F5,87.5,0.5,54,167.75
436,E-5,88.0,1.0,62,167.75
437,C#6,88.0,1.0,58,167.75
438,F#4,89.0,1.0,60,167.75
439,C5,89.0,0.5,60,167.75
440,G#3,89.0,1.0,44,167.75
441,E-4,89.0,1.0,44,167.75
442,G#5,89.5,0.5,56,167.75
443,F5,90.0,0.5,57,167.75
444,F4,90.0,0.5,57,167.75
445,C#3,90.0,1.0,53,167.75
446,G#3,90.0,1.0,53,167.75
447,B-3,90.5,0.25,35,167.75
448,C#4,90.5,0.25,35,167.75
449,F4,90.5,0.25,35,167.75
450,G#3,90.75,6/25,35,167.75
451,G#3,91.0,0.125,49,167.75
452,G#3,91.5,0.125,35,167.75
453,C#4,91.5,0.125,35,167.75
454,F4,91.5,0.125,35,167.75
455,G#2,92.0,0.125,49,167.75
456,C#4,92.5,0.125,35,167.75
457,G#3,92.5,0.125,35,167.75
458,F4,92.5,0.125,35,167.75
459,C#3,93.0,0.25,51,167.75
460,B-3,93.5,0.25,35,167.75
461,C#4,93.5,0.25,35,167.75
462,F4,93.5,0.25,35,167.75
463,G#3,93.75,229/1000,35,167.75
464,G#3,94.0,0.125,49,167.75
465,G#3,94.5,0.125,35,167.75
466,F4,94.5,0.125,35,167.75
467,C#4,94.5,0.125,35,167.75
468,G#2,95.0,0.125,49,167.75
469,F4,95.5,0.125,35,167.75
470,C#4,95.5,0.125,35,167.75
471,G#3,95.5,0.125,35,167.75
472,C3,96.0,0.25,51,167.75
473,F#4,96.5,0.25,35,167.75
474,C4,96.5,0.25,35,167.75
475,B-3,96.5,0.25,35,167.75
476,G#3,96.75,229/1000,35,167.75
477,G#3,97.0,0.25,51,167.75
478,F#4,97.5,0.25,36,167.75
479,B-3,97.5,0.25,36,167.75
480,C4,97.5,0.25,36,167.75
481,G#3,97.75,0.25,36,167.75
482,B-3,98.0,0.25,55,167.75
483,B-3,98.5,0.25,38,167.75
484,C4,98.5,0.25,38,167.75
485,F#4,98.5,0.25,38,167.75
486,G#3,98.75,0.25,38,167.75
487,C4,99.0,0.25,58,167.75
488,B-3,99.5,0.25,39,167.75
489,F#4,99.5,0.25,39,167.75
490,C4,99.5,0.25,39,167.75
491,G#3,99.75,0.25,39,167.75
492,E-4,100.0,0.25,61,167.75
493,B-3,100.5,0.25,41,167.75
494,C4,100.5,0.25,41,167.75
495,F#4,100.5,0.25,41,167.75
496,G#3,100.75,229/1000,42,167.75
497,G#3,101.0,0.25,58,167.75
498,B-3,101.5,0.25,43,167.75
499,C4,101.5,0.25,43,167.75
500,F#4,101.5,0.25,43,167.75
501,G#3,101.75,0.25,44,167.75
502,C#3,102.0,0.25,51,167.75
503,F4,102.5,0.25,35,167.75
504,C#4,102.5,0.25,35,167.75
505,B-3,102.5,0.25,35,167.75
506,G#3,102.75,229/1000,35,167.75
507,G#3,103.0,0.125,49,167.75
508,F4,103.5,0.125,35,167.75
509,C#4,103.5,0.125,35,167.75
510,G#3,103.5,0.125,35,167.75
511,G#2,104.0,0.125,49,167.75
512,F4,104.5,0.125,35,167.75
513,G#3,104.5,0.125,35,167.75
514,C#4,104.5,0.125,35,167.75
515,C#3,105.0,0.25,51,167.75
516,B-3,105.5,0.25,35,167.75
517,C#4,105.5,0.25,35,167.75
518,F4,105.5,0.25,35,167.75
519,G#3,105.75,229/1000,35,167.75
520,G#3,106.0,0.125,49,167.75
521,G#3,106.5,0.125,35,167.75
522,C#4,106.5,0.125,35,167.75
523,F4,106.5,0.125,35,167.75
524,G#2,107.0,0.125,49,167.75
525,C#4,107.5,0.125,35,167.75
526,G#3,107.5,0.125,35,167.75
527,F4,107.5,0.125,35,167.75
528,E-3,108.0,0.25,51,167.75
529,B-3,108.5,0.25,35,167.75
530,C4,108.5,0.25,35,167.75
531,F#4,108.5,0.25,35,167.75
532,G#3,108.75,229/1000,35,167.75
533,G#3,109.0,0.25,51,167.75
534,B-3,109.5,0.25,36,167.75
535,F#4,109.5,0.25,36,167.75
536,C4,109.5,0.25,36,167.75
537,G#3,109.75,0.25,36,167.75
538,B-3,110.0,0.25,55,167.75
539,B-3,110.5,0.25,38,167.75
540,C4,110.5,0.25,38,167.75
541,F#4,110.5,0.25,38,167.75
542,G#3,110.75,0.25,38,167.75
543,C4,111.0,0.25,58,167.75
544,B-3,111.5,0.25,39,167.75
545,C4,111.5,0.25,39,167.75
546,F#4,111.5,0.25,39,167.75
547,G#3,111.75,0.25,39,167.75
548,E-4,112.0,0.25,61,167.75
549,F#4,112.5,0.25,41,167.75
550,C4,112.5,0.25,41,167.75
551,B-3,112.5,0.25,41,167.75
552,G#3,112.75,229/1000,42,167.75
553,G#3,113.0,0.25,58,167.75
554,F#4,113.5,0.25,43,167.75
555,C4,113.5,0.25,43,167.75
556,B-3,113.5,0.25,43,167.75
557,G#3,113.75,0.25,44,167.75
558,C#4,114.0,0.75,58,167.75
559,G#3,114.0,0.75,58,167.75
560,C#3,114.0,0.75,54,167.75
561,F3,114.0,0.75,54,167.75
562,G#3,114.75,0.25,50,167.75
563,C#4,114.75,0.25,55,167.75
564,F4,114.75,0.25,55,167.75
565,C#4,115.0,0.25,50,167.75
566,F4,115.0,0.25,57,167.75
567,G#4,115.0,0.25,57,167.75
568,F4,115.5,0.25,54,167.75
569,G#4,115.5,0.25,61,167.75
570,C#5,115.5,0.25,61,167.75
571,G#4,116.0,0.25,56,167.75
572,C#5,116.0,0.25,66,167.75
573,F5,116.0,0.25,66,167.75
574,C#5,116.5,0.25,54,167.75
575,G#5,116.5,0.25,63,167.75
576,F5,116.5,0.25,63,167.75
577,C#4,116.875,0.125,56,167.75
578,G#4,116.938,0.062,56,167.75
579,F5,117.0,0.5,63,167.75
580,C#4,117.0,0.5,56,167.75
581,G#4,117.0,0.5,56,167.75
582,C#5,117.0,0.5,76,167.75
583,C#6,117.0,0.5,76,167.75
584,G#5,117.0,0.5,76,167.75
585,C#7,118.0,1.0,85,167.75
586,F6,118.0,1.0,85,167.75
587,C#6,118.0,1.0,85,167.75
588,C#2,118.0,1.0,64,167.75
589,C#3,118.0,1.0,64,167.75
590,B4,120.0,0.5,49,167.75
591,E-5,120.0,0.5,61,167.75
592,E-6,120.0,0.5,61,167.75
593,C#5,120.5,0.5,50,167.75
594,F6,120.5,0.5,63,167.75
595,F5,120.5,0.5,63,167.75
596,E-5,121.0,1.0,51,167.75
597,F#5,121.0,1.0,66,167.75
598,F#6,121.0,1.0,66,167.75
599,F5,122.0,0.5,49,167.75
600,G#5,122.0,0.5,62,167.75
601,G#6,122.0,0.5,62,167.75
602,E-5,122.5,0.5,46,167.75
603,F#6,122.5,0.375,60,167.75
604,F#5,122.5,0.375,60,167.75
605,F5,122.75,0.125,49,167.75
606,F6,122.75,0.125,49,167.75
607,F#5,122.875,0.125,49,167.75
608,F#6,122.875,0.125,49,167.75
609,C#5,123.0,1.0,51,167.75
610,F6,123.0,1.0,62,167.75
611,F5,123.0,1.0,62,167.75
612,B4,124.0,0.5,49,167.75
613,E-5,124.0,0.5,55,167.75
614,E-6,124.0,0.5,55,167.75
615,C#5,124.5,0.5,46,167.75
616,F6,124.5,0.5,52,167.75
617,F5,124.5,0.5,52,167.75
618,B-4,125.0,1.0,42,167.75
619,C#5,125.0,1.0,50,167.75
620,C#6,125.0,1.0,50,167.75
621,E5,126.0,1.0,52,167.75
622,G4,126.0,0.5,43,167.75
623,B-4,126.0,0.5,52,167.75
624,B-5,126.0,0.5,52,167.75
625,E-3,126.0,1.0,43,167.75
626,C#4,126.0,1.0,43,167.75
627,E-4,126.5,1.375,39,167.75
628,C#6,126.5,0.5,54,167.75
629,C#5,126.5,0.5,54,167.75
630,B4,127.0,1.0,56,167.75
631,E-5,127.0,1.0,56,167.75
632,B5,127.0,1.0,56,167.75
633,G#3,127.0,0.875,44,167.75
634,G#4,127.0,0.875,44,167.75
635,C#3,127.875,1.125,35,167.75
636,B3,127.938,1.062,36,167.75
637,C#5,128.0,1.0,50,167.75
638,F4,128.0,1.0,45,167.75
639,G#5,128.0,0.5,50,167.75
640,G#4,128.0,0.5,50,167.75
641,B-5,128.5,0.5,45,167.75
642,B-4,128.5,0.5,45,167.75
643,F#3,129.0,1.0,45,167.75
644,C#4,129.0,729/1000,45,167.75
645,F#5,129.0,0.5,52,167.75
646,B-4,129.0,0.5,52,167.75
647,F#4,129.0,0.5,52,167.75
648,E-4,129.5,0.25,35,167.75
649,F#4,129.5,0.25,35,167.75
650,B-4,129.5,0.25,35,167.75
651,C#4,129.75,229/1000,35,167.75
652,C#4,130.0,0.125,49,167.75
653,C#4,130.5,0.125,35,167.75
654,F#4,130.5,0.125,35,167.75
655,B-4,130.5,0.125,35,167.75
656,C#3,131.0,0.125,49,167.75
657,F#4,131.5,0.125,35,167.75
658,C#4,131.5,0.125,35,167.75
659,B-4,131.5,0.125,35,167.75
660,F#3,132.0,0.25,51,167.75
661,E-4,132.5,0.25,35,167.75
662,F#4,132.5,0.25,35,167.75
663,B-4,132.5,0.25,35,167.75
664,C#4,132.75,229/1000,35,167.75
665,C#4,133.0,0.125,49,167.75
666,C#4,133.5,0.125,35,167.75
667,B-4,133.5,0.125,35,167.75
668,F#4,133.5,0.125,35,167.75
669,C#3,134.0,0.125,49,167.75
670,B-4,134.5,0.125,35,167.75
671,F#4,134.5,0.125,35,167.75
672,C#4,134.5,0.125,35,167.75
673,G#3,135.0,0.25,51,167.75
674,B4,135.5,0.25,35,167.75
675,F4,135.5,0.25,35,167.75
676,E-4,135.5,0.25,35,167.75
677,C#4,135.75,229/1000,35,167.75
678,C#4,136.0,729/1000,51,167.75
679,B4,136.5,0.25,36,167.75
680,E-4,136.5,0.25,36,167.75
681,F4,136.5,0.25,36,167.75
682,C#4,136.75,0.25,36,167.75
683,E-4,137.0,479/1000,55,167.75
684,E-4,137.5,0.25,38,167.75
685,F4,137.5,0.25,38,167.75
686,B4,137.5,0.25,38,167.75
687,C#4,137.75,0.25,38,167.75
688,F4,138.0,479/1000,58,167.75
689,E-4,138.5,0.25,39,167.75
690,B4,138.5,0.25,39,167.75
691,F4,138.5,0.25,39,167.75
692,C#4,138.75,0.25,39,167.75
693,G#4,139.0,1.0,61,167.75
694,E-4,139.5,0.25,41,167.75
695,F4,139.5,0.25,41,167.75
696,B4,139.5,0.25,41,167.75
697,C#4,139.75,0.25,42,167.75
698,C#4,140.0,729/1000,58,167.75
699,E-4,140.5,0.25,43,167.75
700,F4,140.5,0.25,43,167.75
701,B4,140.5,0.25,43,167.75
702,C#4,140.75,0.25,44,167.75
703,F#3,141.0,0.25,51,167.75
704,B-4,141.5,0.25,35,167.75
705,F#4,141.5,0.25,35,167.75
706,E-4,141.5,0.25,35,167.75
707,C#4,141.75,229/1000,35,167.75
708,C#4,142.0,0.125,49,167.75
709,B-4,142.5,0.125,35,167.75
710,F#4,142.5,0.125,35,167.75
711,C#4,142.5,0.125,35,167.75
712,C#3,143.0,0.125,49,167.75
713,B-4,143.5,0.125,35,167.75
714,C#4,143.5,0.125,35,167.75
715,F#4,143.5,0.125,35,167.75
716,F#3,144.0,0.25,51,167.75
717,E-4,144.5,0.25,35,167.75
718,F#4,144.5,0.25,35,167.75
719,B-4,144.5,0.25,35,167.75
720,C#4,144.75,229/1000,35,167.75
721,C#4,145.0,0.125,49,167.75
722,C#4,145.5,0.125,35,167.75
723,F#4,145.5,0.125,35,167.75
724,B-4,145.5,0.125,35,167.75
725,C#3,146.0,0.125,49,167.75
726,F#4,146.5,0.125,35,167.75
727,C#4,146.5,0.125,35,167.75
728,B-4,146.5,0.125,35,167.75
729,G#3,147.0,0.25,51,167.75
730,E-4,147.5,0.25,35,167.75
731,F4,147.5,0.25,35,167.75
732,B4,147.5,0.25,35,167.75
733,C#4,147.75,229/1000,35,167.75
734,C#4,148.0,729/1000,51,167.75
735,E-4,148.5,0.25,36,167.75
736,B4,148.5,0.25,36,167.75
737,F4,148.5,0.25,36,167.75
738,C#4,148.75,0.25,36,167.75
739,E-4,149.0,479/1000,55,167.75
740,E-4,149.5,0.25,38,167.75
741,F4,149.5,0.25,38,167.75
742,B4,149.5,0.25,38,167.75
743,C#4,149.75,0.25,38,167.75
744,F4,150.0,479/1000,58,167.75
745,E-4,150.5,0.25,39,167.75
746,F4,150.5,0.25,39,167.75
747,B4,150.5,0.25,39,167.75
748,C#4,150.75,0.25,39,167.75
749,G#4,151.0,1.0,61,167.75
750,B4,151.5,0.25,41,167.75
751,F4,151.5,0.25,41,167.75
752,E-4,151.5,0.25,41,167.75
753,C#4,151.75,0.25,42,167.75
754,C#4,152.0,729/1000,58,167.75
755,B4,152.5,0.25,43,167.75
756,F4,152.5,0.25,43,167.75
757,E-4,152.5,0.25,43,167.75
758,C#4,152.75,0.25,44,167.75
759,F#4,153.0,0.75,58,167.75
760,C#4,153.0,0.75,58,167.75
761,F#3,153.0,0.75,54,167.75
762,B-3,153.0,0.75,54,167.75
763,C#4,153.75,0.25,50,167.75
764,F#4,153.75,0.25,55,167.75
765,B-4,153.75,0.25,55,167.75
766,F#4,154.0,0.25,50,167.75
767,B-4,154.0,0.25,57,167.75
768,C#5,154.0,0.25,57,167.75
769,B-4,154.5,0.25,54,167.75
770,C#5,154.5,0.25,61,167.75
771,F#5,154.5,0.25,61,167.75
772,C#5,155.0,0.25,56,167.75
773,F#5,155.0,0.25,66,167.75
774,B-5,155.0,0.25,66,167.75
775,F#5,155.5,0.25,54,167.75
776,C#6,155.5,0.25,63,167.75
777,B-5,155.5,0.25,63,167.75
778,B-5,156.0,0.25,63,167.75
779,F#6,156.0,0.5,76,167.75
780,C#6,156.0,0.5,76,167.75
781,F#2,156.875,1.125,58,167.75
782,C#3,156.938,1.062,61,167.75
783,B-3,157.0,1.0,70,167.75
784,F#6,157.0,1.0,85,167.75
785,C#7,157.0,1.0,85,167.75
786,F#7,157.0,1.0,85,167.75
787,C#4,159.0,0.25,50,167.75
788,F#4,159.0,0.25,50,167.75
789,F#3,159.0,0.25,36,167.75
790,A3,159.0,0.25,36,167.75
791,F#4,159.5,0.25,46,167.75
792,G#4,159.5,0.25,46,167.75
793,F#3,159.5,0.25,32,167.75
794,B3,159.5,0.25,32,167.75
795,F#4,160.0,1.0,53,167.75
796,A4,160.0,1.0,53,167.75
797,F#3,160.0,1.0,40,167.75
798,C#4,160.0,1.0,40,167.75
799,F#4,161.0,0.25,48,167.75
800,B4,161.0,0.25,48,167.75
801,F#3,161.0,0.25,36,167.75
802,D4,161.0,0.25,36,167.75
803,F#4,161.5,0.25,40,167.75
804,A4,161.5,0.25,40,167.75
805,F#3,161.5,0.25,32,167.75
806,C#4,161.5,0.25,32,167.75
807,G#4,161.75,0.125,37,167.75
808,A4,161.875,0.125,37,167.75
809,F4,162.0,1.0,43,167.75
810,G#4,162.0,1.0,43,167.75
811,F#3,162.0,1.0,41,167.75
812,B3,162.0,1.0,41,167.75
813,B4,163.0,1.0,61,167.75
814,D5,163.0,0.5,61,167.75
815,F#3,163.0,1.0,48,167.75
816,F4,163.0,1.0,48,167.75
817,C#5,163.5,0.5,57,167.75
818,A4,164.0,1.0,60,167.75
819,F#5,164.0,1.0,60,167.75
820,F#4,164.0,1.0,45,167.75
821,F#3,164.0,1.0,45,167.75
822,F5,165.0,0.5,61,167.75
823,F4,165.0,0.5,53,167.75
824,F3,165.0,1.0,42,167.75
825,A4,165.0,1.0,50,167.75
826,C5,165.0,1.0,50,167.75
827,A5,165.5,0.5,59,167.75
828,E-4,165.5,0.5,49,167.75
829,A4,166.0,1.0,49,167.75
830,C#5,166.0,1.0,49,167.75
831,A5,166.0,1.0,49,167.75
832,E3,166.0,1.0,45,167.75
833,E4,166.0,1.0,45,167.75
834,G#4,167.0,1.0,48,167.75
835,C5,167.0,1.0,48,167.75
836,E5,167.0,1.0,48,167.75
837,D4,167.0,1.0,40,167.75
838,E3,167.0,1.0,40,167.75
839,A3,168.0,0.5,56,167.75
840,F#4,168.5,0.25,38,167.75
841,A4,168.5,0.25,38,167.75
842,C#5,168.5,0.25,38,167.75
843,E4,168.75,229/1000,38,167.75
844,E5,169.0,0.5,57,167.75
845,E4,169.5,0.125,38,167.75
846,A4,169.5,0.125,38,167.75
847,C#5,169.5,0.125,38,167.75
848,E3,170.0,1.0,53,167.75
849,A4,170.5,0.125,38,167.75
850,E4,170.5,0.125,38,167.75
851,C#5,170.5,0.125,38,167.75
852,E5,170.5,0.125,38,167.75
853,A4,171.0,0.25,50,167.75
854,C#5,171.0,0.25,50,167.75
855,A3,171.0,0.25,36,167.75
856,E4,171.0,0.25,36,167.75
857,A4,171.5,0.25,46,167.75
858,D5,171.5,0.25,46,167.75
859,A3,171.5,0.25,32,167.75
860,F4,171.5,0.25,32,167.75
861,B-4,172.0,1.0,52,167.75
862,E5,172.0,1.0,52,167.75
863,A3,172.0,1.0,40,167.75
864,G4,172.0,1.0,40,167.75
865,B-4,173.0,0.25,50,167.75
866,F5,173.0,0.25,50,167.75
867,A3,173.0,0.25,36,167.75
868,A4,173.0,0.25,36,167.75
869,B-4,173.5,0.25,42,167.75
870,E5,173.5,0.25,42,167.75
871,A3,173.5,0.25,32,167.75
872,G4,173.5,0.25,32,167.75
873,D5,173.75,0.125,46,167.75
874,E5,173.875,0.125,45,167.75
875,B-4,174.0,1.0,50,167.75
876,D5,174.0,1.0,50,167.75
877,A3,174.0,1.0,35,167.75
878,F4,174.0,1.0,35,167.75
879,F4,175.0,0.25,54,167.75
880,C5,175.0,0.25,54,167.75
881,A3,175.0,0.25,40,167.75
882,E4,175.0,0.25,40,167.75
883,F4,175.5,0.25,50,167.75
884,B-4,175.5,0.25,50,167.75
885,A3,175.5,0.25,35,167.75
886,D4,175.5,0.25,35,167.75
887,E4,176.0,1.0,55,167.75
888,A4,176.0,1.0,55,167.75
889,C#4,176.0,1.0,40,167.75
890,A3,176.0,1.0,40,167.75
891,B-4,177.0,1.0,46,167.75
892,E5,177.0,0.5,57,167.75
893,G4,177.0,0.5,45,167.75
894,F5,177.5,0.5,61,167.75
895,D4,177.5,0.5,48,167.75
896,C#4,178.0,1.0,53,167.75
897,B-4,178.0,1.0,60,167.75
898,E5,178.0,1.0,60,167.75
899,G5,178.0,1.0,60,167.75
900,B-4,179.0,0.5,49,167.75
901,A3,179.0,1.0,49,167.75
902,G4,179.0,1.0,54,167.75
903,C#5,179.0,1.0,54,167.75
904,A4,179.5,0.5,53,167.75
905,D4,180.0,0.5,70,167.75
906,B-4,180.5,0.25,45,167.75
907,D5,180.5,0.25,45,167.75
908,F5,180.5,0.25,45,167.75
909,A4,180.75,0.25,45,167.75
910,A5,181.0,0.5,69,167.75
911,A4,181.5,0.125,45,167.75
912,D5,181.5,0.125,45,167.75
913,F5,181.5,0.125,45,167.75
914,A4,182.0,1.0,66,167.75
915,D5,182.5,0.125,45,167.75
916,A4,182.5,0.125,45,167.75
917,F5,182.5,0.125,45,167.75
918,A5,182.5,0.125,45,167.75
919,F4,183.0,0.25,40,167.75
920,A4,183.0,0.25,48,167.75
921,B4,183.0,0.25,48,167.75
922,D5,183.0,0.25,48,167.75
923,E4,183.5,0.25,35,167.75
924,A4,183.5,0.25,44,167.75
925,B4,183.5,0.25,44,167.75
926,E5,183.5,0.25,44,167.75
927,D4,184.0,1.0,45,167.75
928,A4,184.0,1.0,51,167.75
929,B4,184.0,1.0,51,167.75
930,F5,184.0,1.0,51,167.75
931,E4,185.0,0.25,40,167.75
932,B4,185.0,0.25,49,167.75
933,A4,185.0,0.25,49,167.75
934,E5,185.0,0.25,49,167.75
935,F4,185.5,0.25,35,167.75
936,A4,185.5,0.25,41,167.75
937,B4,185.5,0.25,41,167.75
938,D5,185.5,0.25,41,167.75
939,C5,185.75,0.125,46,167.75
940,D5,185.875,0.125,45,167.75
941,E4,186.0,1.0,39,167.75
942,F4,186.0,1.0,48,167.75
943,A4,186.0,1.0,48,167.75
944,C5,186.0,1.0,48,167.75
945,D4,187.0,0.5,45,167.75
946,F4,187.0,0.5,54,167.75
947,A4,187.0,0.5,54,167.75
948,B4,187.0,0.5,54,167.75
949,C4,187.5,0.5,39,167.75
950,F4,187.5,0.5,50,167.75
951,A4,187.5,0.5,50,167.75
952,C5,187.5,0.5,50,167.75
953,B3,188.0,1.0,44,167.75
954,F4,188.0,1.0,55,167.75
955,A4,188.0,1.0,55,167.75
956,D5,188.0,1.0,55,167.75
957,E-4,189.0,1.0,46,167.75
958,A4,189.0,0.5,57,167.75
959,F3,189.0,1.0,45,167.75
960,B3,189.0,1.0,45,167.75
961,B4,189.5,0.5,61,167.75
962,F5,190.0,1.0,59,167.75
963,E-4,190.0,1.0,60,167.75
964,A4,190.0,1.0,60,167.75
965,C5,190.0,1.0,60,167.75
966,F#5,191.0,1.0,55,167.75
967,F#4,191.0,1.0,48,167.75
968,E-4,191.0,1.0,48,167.75
969,A3,191.0,1.0,48,167.75
970,B3,191.0,1.0,48,167.75
971,B4,191.0,1.0,48,167.75
972,B1,191.5,0.5,60,167.75
973,B2,191.5,0.5,60,167.75
974,E1,192.0,0.5,70,167.75
975,E2,192.0,0.5,70,167.75
976,C#4,192.5,0.25,45,167.75
977,E4,192.5,0.25,45,167.75
978,G#4,192.5,0.25,45,167.75
979,B3,192.75,0.25,45,167.75
980,B4,193.0,0.5,70,167.75
981,B3,193.5,0.125,45,167.75
982,E4,193.5,0.125,45,167.75
983,G#4,193.5,0.125,45,167.75
984,B2,194.0,1.0,66,167.75
985,E4,194.5,0.125,45,167.75
986,B3,194.5,0.125,45,167.75
987,G#4,194.5,0.125,45,167.75
988,B4,194.5,0.125,45,167.75
989,A2,195.0,1.0,66,167.75
990,E3,195.0,1.0,66,167.75
991,E4,195.5,0.5,63,167.75
992,D5,195.5,0.5,63,167.75
993,E5,195.5,0.5,63,167.75
994,D4,196.0,0.5,58,167.75
995,F#4,196.0,0.5,67,167.75
996,F#5,196.0,0.5,67,167.75
997,G#4,196.5,0.5,63,167.75
998,G#5,196.5,0.5,63,167.75
999,G#4,197.0,1.0,68,167.75
1000,E2,197.0,0.5,59,167.75
1001,D5,197.0,0.5,68,167.75
1002,F#5,197.0,0.5,68,167.75
1003,C5,197.5,0.5,63,167.75
1004,E5,197.5,0.5,63,167.75
1005,E4,198.0,0.5,60,167.75
1006,A4,198.0,0.5,60,167.75
1007,E5,198.0,0.5,60,167.75
1008,A2,198.0,0.5,56,167.75
1009,E3,198.0,0.5,56,167.75
1010,C#4,198.0,0.5,56,167.75
1011,E-4,198.5,0.25,51,167.75
1012,G#4,198.5,0.25,58,167.75
1013,C5,198.5,0.25,58,167.75
1014,E4,199.0,0.25,55,167.75
1015,A4,199.0,0.25,62,167.75
1016,C#5,199.0,0.25,62,167.75
1017,A4,199.5,0.25,58,167.75
1018,C#5,199.5,0.25,64,167.75
1019,E5,199.5,0.25,64,167.75
1020,C#5,200.0,0.25,62,167.75
1021,E5,200.0,0.25,68,167.75
1022,A5,200.0,0.25,68,167.75
1023,E5,200.5,0.25,65,167.75
1024,C#6,200.5,0.25,72,167.75
1025,A5,200.5,0.25,72,167.75
1026,E6,201.0,0.5,74,167.75
1027,A5,201.0,0.5,74,167.75
1028,F#4,201.0,0.5,69,167.75
1029,C#5,201.0,0.5,69,167.75
1030,C#6,201.5,0.5,60,167.75
1031,E5,201.5,0.5,60,167.75
1032,F#5,202.0,1.0,60,167.75
1033,A4,202.0,0.5,69,167.75
1034,E5,202.0,0.5,69,167.75
1035,E4,202.5,0.5,59,167.75
1036,C#5,202.5,0.5,59,167.75
1037,A4,203.0,1.0,63,167.75
1038,G#5,203.0,0.5,77,167.75
1039,B3,203.0,0.5,59,167.75
1040,E-4,203.0,1.0,63,167.75
1041,B4,203.5,0.5,70,167.75
1042,B2,203.5,0.5,53,167.75
1043,E3,204.0,0.5,63,167.75
1044,E4,204.0,0.5,72,167.75
1045,G#4,204.0,0.5,72,167.75
1046,E5,204.0,0.5,72,167.75
1047,E2,205.0,0.5,69,167.75
1048,E6,205.0,0.5,86,167.75
1049,G#5,205.0,0.5,86,167.75
1050,E5,205.0,0.5,86,167.75
1051,C3,207.0,0.25,51,167.75
1052,A3,207.5,0.25,35,167.75
1053,C4,207.5,0.25,35,167.75
1054,E4,207.5,0.25,35,167.75
1055,G3,207.75,229/1000,35,167.75
1056,G3,208.0,0.125,49,167.75
1057,G3,208.5,0.125,35,167.75
1058,C4,208.5,0.125,35,167.75
1059,E4,208.5,0.125,35,167.75
1060,G2,209.0,0.125,49,167.75
1061,G3,209.5,0.125,35,167.75
1062,C4,209.5,0.125,35,167.75
1063,E4,209.5,0.125,35,167.75
1064,C3,210.0,0.25,51,167.75
1065,A3,210.5,0.25,35,167.75
1066,C4,210.5,0.25,35,167.75
1067,E4,210.5,0.25,35,167.75
1068,G3,210.75,229/1000,35,167.75
1069,G3,211.0,0.125,49,167.75
1070,G3,211.5,0.125,35,167.75
1071,C4,211.5,0.125,35,167.75
1072,E4,211.5,0.125,35,167.75
1073,G2,212.0,0.125,49,167.75
1074,G3,212.5,0.125,35,167.75
1075,C4,212.5,0.125,35,167.75
1076,E4,212.5,0.125,35,167.75
1077,D3,213.0,0.25,51,167.75
1078,A3,213.5,0.25,35,167.75
1079,B3,213.5,0.25,35,167.75
1080,F4,213.5,0.25,35,167.75
1081,G3,213.75,229/1000,35,167.75
1082,G3,214.0,729/1000,51,167.75
1083,A3,214.5,0.25,36,167.75
1084,B3,214.5,0.25,36,167.75
1085,F4,214.5,0.25,36,167.75
1086,G3,214.75,0.25,36,167.75
1087,A3,215.0,1.0,55,167.75
1088,A3,215.5,0.25,38,167.75
1089,B3,215.5,0.25,38,167.75
1090,F4,215.5,0.25,38,167.75
1091,G3,215.75,0.25,38,167.75
1092,B3,216.0,479/1000,58,167.75
1093,A3,216.5,0.25,39,167.75
1094,B3,216.5,0.25,39,167.75
1095,F4,216.5,0.25,39,167.75
1096,G3,216.75,0.25,39,167.75
1097,D4,217.0,1.0,59,167.75
1098,A3,217.5,0.25,41,167.75
1099,B3,217.5,0.25,41,167.75
1100,F4,217.5,0.25,41,167.75
1101,G3,217.75,229/1000,42,167.75
1102,G3,218.0,521/1000,58,167.75
1103,A3,218.5,0.25,43,167.75
1104,B3,218.5,0.25,43,167.75
1105,F4,218.5,0.25,43,167.75
1106,G3,218.75,0.25,44,167.75
1107,C3,219.0,0.25,43,167.75
1108,A3,219.5,0.25,29,167.75
1109,C4,219.5,0.25,29,167.75
1110,E4,219.5,0.25,29,167.75
1111,G3,219.75,229/1000,29,167.75
1112,G3,220.0,0.125,41,167.75
1113,G3,220.5,0.125,29,167.75
1114,C4,220.5,0.125,29,167.75
1115,E4,220.5,0.125,29,167.75
1116,G2,221.0,0.125,41,167.75
1117,G3,221.5,0.125,29,167.75
1118,C4,221.5,0.125,29,167.75
1119,E4,221.5,0.125,29,167.75
1120,C3,222.0,0.25,43,167.75
1121,A3,222.5,0.25,29,167.75
1122,C4,222.5,0.25,29,167.75
1123,E4,222.5,0.25,29,167.75
1124,G3,222.75,229/1000,29,167.75
1125,G3,223.0,0.125,41,167.75
1126,G3,223.5,0.125,29,167.75
1127,C4,223.5,0.125,29,167.75
1128,E4,223.5,0.125,29,167.75
1129,G2,224.0,0.125,41,167.75
1130,G3,224.5,0.125,29,167.75
1131,C4,224.5,0.125,29,167.75
1132,E4,224.5,0.125,29,167.75
1133,D3,225.0,0.25,43,167.75
1134,A3,225.5,0.25,29,167.75
1135,B3,225.5,0.25,29,167.75
1136,F4,225.5,0.25,29,167.75
1137,G3,225.75,229/1000,29,167.75
1138,G3,226.0,729/1000,43,167.75
1139,A3,226.5,0.25,30,167.75
1140,B3,226.5,0.25,30,167.75
1141,F4,226.5,0.25,30,167.75
1142,G3,226.75,0.25,30,167.75
1143,A3,227.0,479/1000,46,167.75
1144,A3,227.5,0.25,32,167.75
1145,B3,227.5,0.25,32,167.75
1146,F4,227.5,0.25,32,167.75
1147,G3,227.75,0.25,32,167.75
1148,B3,228.0,479/1000,49,167.75
1149,A3,228.5,0.25,33,167.75
1150,B3,228.5,0.25,33,167.75
1151,F4,228.5,0.25,33,167.75
1152,G3,228.75,0.25,33,167.75
1153,D4,229.0,1.0,50,167.75
1154,A3,229.5,0.25,34,167.75
1155,B3,229.5,0.25,34,167.75
1156,F4,229.5,0.25,34,167.75
1157,G3,229.75,0.25,35,167.75
1158,G3,230.0,729/1000,49,167.75
1159,A3,230.5,0.25,36,167.75
1160,B3,230.5,0.25,36,167.75
1161,F4,230.5,0.25,36,167.75
1162,G3,230.75,0.25,37,167.75
1163,E4,231.0,0.25,44,167.75
1164,C6,231.0,0.25,54,167.75
1165,C5,231.0,0.25,54,167.75
1166,G4,231.5,0.25,45,167.75
1167,D6,231.5,0.25,56,167.75
1168,D5,231.5,0.25,56,167.75
1169,C5,232.0,0.25,45,167.75
1170,E5,232.0,1.0,59,167.75
1171,E6,232.0,1.0,59,167.75
1172,B4,232.5,0.25,43,167.75
1173,B-4,233.0,0.25,44,167.75
1174,D5,233.0,0.25,55,167.75
1175,D6,233.0,0.25,55,167.75
1176,A4,233.5,0.25,41,167.75
1177,C5,233.5,0.25,51,167.75
1178,C6,233.5,0.25,51,167.75
1179,D5,233.75,0.125,44,167.75
1180,D6,233.75,0.125,44,167.75
1181,E5,233.875,0.125,44,167.75
1182,E6,233.875,0.125,44,167.75
1183,G#4,234.0,0.25,45,167.75
1184,D6,234.0,1.0,55,167.75
1185,D5,234.0,1.0,55,167.75
1186,F#4,234.5,0.25,42,167.75
1187,G4,235.0,0.25,44,167.75
1188,C5,235.0,0.25,52,167.75
1189,C6,235.0,0.25,52,167.75
1190,E4,235.5,0.25,41,167.75
1191,G4,235.5,0.25,50,167.75
1192,G5,235.5,0.25,50,167.75
1193,C4,236.0,0.25,37,167.75
1194,E4,236.0,0.5,56,167.75
1195,E5,236.0,0.5,56,167.75
1196,B-3,236.5,0.5,37,167.75
1197,G#4,236.5,0.5,45,167.75
1198,D5,236.5,0.5,45,167.75
1199,A3,237.0,0.5,34,167.75
1200,B-4,237.0,0.5,45,167.75
1201,C#5,237.0,0.5,45,167.75
1202,F#4,237.5,0.5,36,167.75
1203,C5,237.5,0.5,47,167.75
1204,E-5,237.5,0.5,47,167.75
1205,G4,238.0,0.5,37,167.75
1206,C#5,238.0,0.5,49,167.75
1207,E5,238.0,0.5,49,167.75
1208,D4,238.5,0.5,39,167.75
1209,B-5,238.5,0.5,51,167.75
1210,E5,238.5,0.5,51,167.75
1211,C#4,239.0,0.5,41,167.75
1212,A5,239.0,0.5,53,167.75
1213,G5,239.0,0.5,53,167.75
1214,A3,239.5,0.5,43,167.75
1215,E6,239.5,0.5,54,167.75
1216,G5,239.5,0.5,54,167.75
1217,D4,240.0,2.5,45,167.75
1218,D6,240.0,0.5,59,167.75
1219,F5,240.0,0.5,59,167.75
1220,C5,240.5,0.5,42,167.75
1221,E-5,240.5,0.5,54,167.75
1222,A5,240.5,0.5,54,167.75
1223,B4,241.0,0.5,44,167.75
1224,D5,241.0,0.5,57,167.75
1225,G#5,241.0,0.5,57,167.75
1226,B-4,241.5,0.5,45,167.75
1227,C#6,241.5,0.5,51,167.75
1228,E5,241.5,0.5,51,167.75
1229,A4,242.0,1.0,47,167.75
1230,F#5,242.0,1.0,60,167.75
1231,D6,242.0,1.0,60,167.75
1232,A3,242.5,0.5,37,167.75
1233,F4,243.0,0.25,48,167.75
1234,D6,243.0,0.25,60,167.75
1235,D5,243.0,0.25,60,167.75
1236,A4,243.5,0.25,49,167.75
1237,E6,243.5,0.25,62,167.75
1238,E5,243.5,0.25,62,167.75
1239,D5,244.0,0.25,49,167.75
1240,F5,244.0,1.0,64,167.75
1241,F6,244.0,1.0,64,167.75
1242,C#5,244.5,0.25,47,167.75
1243,C5,245.0,0.25,48,167.75
1244,E5,245.0,0.25,61,167.75
1245,E6,245.0,0.25,61,167.75
1246,B4,245.5,0.25,45,167.75
1247,D5,245.5,0.25,56,167.75
1248,D6,245.5,0.25,56,167.75
1249,E5,245.75,0.125,48,167.75
1250,E6,245.75,0.125,48,167.75
1251,F5,245.875,0.125,48,167.75
1252,F6,245.875,0.125,48,167.75
1253,B-4,246.0,0.25,49,167.75
1254,E6,246.0,1.0,61,167.75
1255,E5,246.0,1.0,61,167.75
1256,G#4,246.5,0.25,46,167.75
1257,A4,247.0,0.25,48,167.75
1258,D5,247.0,0.25,57,167.75
1259,D6,247.0,0.25,57,167.75
1260,F4,247.5,0.25,45,167.75
1261,A4,247.5,0.25,54,167.75
1262,A5,247.5,0.25,54,167.75
1263,D4,248.0,0.25,40,167.75
1264,F4,248.0,0.25,50,167.75
1265,F5,248.0,0.25,50,167.75
1266,C4,248.5,0.5,40,167.75
1267,A4,248.5,0.5,54,167.75
1268,E5,248.5,0.5,54,167.75
1269,B3,249.0,2.5,34,167.75
1270,A4,249.0,0.5,45,167.75
1271,E-5,249.0,0.5,45,167.75
1272,G4,249.5,0.5,36,167.75
1273,C5,249.5,0.5,47,167.75
1274,E5,249.5,0.5,47,167.75
1275,A4,250.0,0.5,37,167.75
1276,E-5,250.0,0.5,49,167.75
1277,F#5,250.0,0.5,49,167.75
1278,E4,250.5,0.5,39,167.75
1279,A5,250.5,0.5,51,167.75
1280,G5,250.5,0.5,51,167.75
1281,E-4,251.0,0.5,41,167.75
1282,C6,251.0,0.5,53,167.75
1283,F#5,251.0,0.5,53,167.75
1284,B3,251.5,0.5,43,167.75
1285,B5,251.5,0.5,54,167.75
1286,A5,251.5,0.5,54,167.75
1287,E4,252.0,2.5,45,167.75
1288,G6,252.0,0.5,59,167.75
1289,G5,252.0,0.5,59,167.75
1290,A4,252.5,0.5,42,167.75
1291,E-5,252.5,0.5,54,167.75
1292,C6,252.5,0.5,54,167.75
1293,G4,253.0,0.5,44,167.75
1294,E5,253.0,0.5,57,167.75
1295,B5,253.0,0.5,57,167.75
1296,C5,253.5,0.5,45,167.75
1297,E-6,253.5,0.5,51,167.75
1298,A5,253.5,0.5,51,167.75
1299,B4,254.0,1.0,47,167.75
1300,G5,254.0,1.0,60,167.75
1301,E6,254.0,1.0,60,167.75
1302,B3,254.5,0.5,37,167.75
1303,G4,255.0,0.25,48,167.75
1304,E6,255.0,0.25,60,167.75
1305,E5,255.0,0.25,60,167.75
1306,B4,255.5,0.25,49,167.75
1307,F#6,255.5,0.25,62,167.75
1308,F#5,255.5,0.25,62,167.75
1309,E5,256.0,0.25,49,167.75
1310,G5,256.0,1.0,64,167.75
1311,G6,256.0,1.0,64,167.75
1312,E-5,256.5,0.25,47,167.75
1313,D5,257.0,0.25,48,167.75
1314,F#5,257.0,0.25,61,167.75
1315,F#6,257.0,0.25,61,167.75
1316,C#5,257.5,0.25,45,167.75
1317,E5,257.5,0.25,56,167.75
1318,E6,257.5,0.25,56,167.75
1319,F#5,257.75,0.125,48,167.75
1320,F#6,257.75,0.125,48,167.75
1321,G5,257.875,0.125,48,167.75
1322,G6,257.875,0.125,48,167.75
1323,C5,258.0,0.25,49,167.75
1324,F#6,258.0,1.0,61,167.75
1325,F#5,258.0,1.0,61,167.75
1326,B-4,258.5,0.25,46,167.75
1327,B4,259.0,0.25,48,167.75
1328,E5,259.0,0.25,57,167.75
1329,E6,259.0,0.25,57,167.75
1330,G4,259.5,0.25,45,167.75
1331,B4,259.5,0.25,54,167.75
1332,B5,259.5,0.25,54,167.75
1333,E4,260.0,0.25,40,167.75
1334,G4,260.0,1.0,50,167.75
1335,G5,260.0,1.0,50,167.75
1336,B3,260.5,0.25,40,167.75
1337,B-4,261.0,0.25,52,167.75
1338,G6,261.0,0.25,64,167.75
1339,G5,261.0,0.25,64,167.75
1340,D5,261.5,0.25,53,167.75
1341,A6,261.5,0.25,67,167.75
1342,A5,261.5,0.25,67,167.75
1343,G5,262.0,0.25,53,167.75
1344,B-5,262.0,1.0,70,167.75
1345,B-6,262.0,1.0,70,167.75
1346,F#5,262.5,0.25,51,167.75
1347,F5,263.0,0.25,52,167.75
1348,A5,263.0,0.25,66,167.75
1349,A6,263.0,0.25,66,167.75
1350,E5,263.5,0.25,49,167.75
1351,G5,263.5,0.25,62,167.75
1352,G6,263.5,0.25,62,167.75
1353,A5,263.75,0.125,52,167.75
1354,A6,263.75,0.125,52,167.75
1355,B-5,263.875,0.125,52,167.75
1356,B-6,263.875,0.125,52,167.75
1357,E-5,264.0,0.25,53,167.75
1358,A6,264.0,1.0,66,167.75
1359,A5,264.0,1.0,66,167.75
1360,C#5,264.5,0.25,50,167.75
1361,D5,265.0,0.25,52,167.75
1362,G5,265.0,0.25,62,167.75
1363,G6,265.0,0.25,62,167.75
1364,B-4,265.5,0.25,49,167.75
1365,D5,265.5,0.25,58,167.75
1366,D6,265.5,0.25,58,167.75
1367,G4,266.0,0.25,44,167.75
1368,B-4,266.0,1.0,55,167.75
1369,B-5,266.0,1.0,55,167.75
1370,D4,266.5,0.25,44,167.75
1371,G5,267.0,0.25,57,167.75
1372,B-6,267.0,0.25,70,167.75
1373,B-5,267.0,0.25,70,167.75
1374,A5,267.5,0.25,58,167.75
1375,C7,267.5,0.25,74,167.75
1376,C6,267.5,0.25,74,167.75
1377,B-5,268.0,0.25,58,167.75
1378,C#6,268.0,0.25,77,167.75
1379,C#7,268.0,0.25,77,167.75
1380,C6,268.5,0.25,56,167.75
1381,E-7,268.5,0.25,68,167.75
1382,E-6,268.5,0.25,68,167.75
1383,B-5,269.0,0.25,57,167.75
1384,C#6,269.0,0.25,73,167.75
1385,C#7,269.0,0.25,73,167.75
1386,A5,269.5,0.25,53,167.75
1387,C6,269.5,0.25,67,167.75
1388,C7,269.5,0.25,67,167.75
1389,G#5,270.0,0.25,58,167.75
1390,B6,270.0,0.25,73,167.75
1391,B5,270.0,0.25,73,167.75
1392,G5,270.5,0.25,55,167.75
1393,B-6,270.5,0.25,64,167.75
1394,B-5,270.5,0.25,64,167.75
1395,E5,271.0,0.25,57,167.75
1396,G5,271.0,0.25,68,167.75
1397,G6,271.0,0.25,68,167.75
1398,C#5,271.5,0.25,53,167.75
1399,E5,271.5,0.25,64,167.75
1400,E6,271.5,0.25,64,167.75
1401,B-4,272.0,0.25,48,167.75
1402,C#5,272.0,0.25,60,167.75
1403,C#6,272.0,0.25,60,167.75
1404,G4,272.5,0.25,48,167.75
1405,B-5,272.5,0.25,55,167.75
1406,B-4,272.5,0.25,55,167.75
1407,C#5,273.0,0.25,58,167.75
1408,E6,273.0,0.25,71,167.75
1409,E5,273.0,0.25,71,167.75
1410,B-4,273.5,0.25,55,167.75
1411,C#6,273.5,0.25,63,167.75
1412,C#5,273.5,0.25,63,167.75
1413,G4,274.0,0.25,54,167.75
1414,B-4,274.0,0.25,64,167.75
1415,B-5,274.0,0.25,64,167.75
1416,E4,274.5,0.25,53,167.75
1417,G4,274.5,0.25,64,167.75
1418,G5,274.5,0.25,64,167.75
1419,C#4,275.0,0.25,48,167.75
1420,E4,275.0,0.25,60,167.75
1421,E5,275.0,0.25,60,167.75
1422,B-3,275.5,0.25,48,167.75
1423,C#5,275.5,0.25,55,167.75
1424,C#4,275.5,0.25,55,167.75
1425,G4,276.0,0.25,52,167.75
1426,B-5,276.0,0.25,66,167.75
1427,B-4,276.0,0.25,66,167.75
1428,E4,276.5,0.25,49,167.75
1429,G5,276.5,0.25,58,167.75
1430,G4,276.5,0.25,58,167.75
1431,C#4,277.0,0.25,48,167.75
1432,E4,277.0,0.25,58,167.75
1433,E5,277.0,0.25,58,167.75
1434,B-3,277.5,0.25,47,167.75
1435,C#4,277.5,0.25,57,167.75
1436,C#5,277.5,0.25,57,167.75
1437,G3,278.0,0.5,43,167.75
1438,C#4,278.0,0.5,52,167.75
1439,B-3,278.0,0.5,52,167.75
1440,B-4,278.0,0.5,52,167.75
1441,E3,278.5,0.5,43,167.75
1442,G4,278.5,0.5,49,167.75
1443,C#5,278.5,0.5,49,167.75
1444,C#4,278.5,0.5,49,167.75
1445,B1,279.0,0.5,44,167.75
1446,B4,279.0,0.5,50,167.75
1447,B3,279.0,0.5,50,167.75
1448,F#2,279.5,0.5,45,167.75
1449,C#5,279.5,0.5,52,167.75
1450,C#4,279.5,0.5,52,167.75
1451,G2,280.0,0.5,45,167.75
1452,B4,280.0,1.0,56,167.75
1453,E-4,280.0,1.0,56,167.75
1454,E-5,280.0,1.0,56,167.75
1455,F#2,280.5,0.5,43,167.75
1456,B2,281.0,0.5,44,167.75
1457,C#4,281.0,0.5,50,167.75
1458,C#5,281.0,0.5,50,167.75
1459,E-3,281.5,0.5,41,167.75
1460,B3,281.5,0.5,47,167.75
1461,B4,281.5,0.5,47,167.75
1462,E3,282.0,0.5,45,167.75
1463,G4,282.0,1.0,52,167.75
1464,C#5,282.0,1.0,52,167.75
1465,C#4,282.0,1.0,52,167.75
1466,F#3,282.5,0.5,39,167.75
1467,G3,283.0,0.5,44,167.75
1468,B3,283.0,0.5,48,167.75
1469,B4,283.0,0.5,48,167.75
1470,E3,283.5,0.5,41,167.75
1471,B-3,283.5,0.5,46,167.75
1472,B-4,283.5,0.5,46,167.75
1473,B-3,284.0,0.5,37,167.75
1474,G3,284.0,1.0,49,167.75
1475,G4,284.0,1.0,49,167.75
1476,B3,284.5,0.5,37,167.75
1477,B1,285.0,0.5,46,167.75
1478,B4,285.0,0.5,52,167.75
1479,B3,285.0,0.5,52,167.75
1480,F#2,285.5,0.5,47,167.75
1481,C#5,285.5,0.5,54,167.75
1482,C#4,285.5,0.5,54,167.75
1483,G2,286.0,0.5,47,167.75
1484,B4,286.0,1.0,58,167.75
1485,E-4,286.0,1.0,58,167.75
1486,E-5,286.0,1.0,58,167.75
1487,F#2,286.5,0.5,45,167.75
1488,B2,287.0,0.5,46,167.75
1489,C#4,287.0,0.5,52,167.75
1490,C#5,287.0,0.5,52,167.75
1491,E-3,287.5,0.5,43,167.75
1492,B3,287.5,0.5,49,167.75
1493,B4,287.5,0.5,49,167.75
1494,E3,288.0,0.5,47,167.75
1495,G4,288.0,1.0,54,167.75
1496,C#5,288.0,1.0,54,167.75
1497,C#4,288.0,1.0,54,167.75
1498,F#3,288.5,0.5,38,167.75
1499,G3,289.0,0.5,47,167.75
1500,B3,289.0,0.5,51,167.75
1501,B4,289.0,0.5,51,167.75
1502,E3,289.5,0.5,45,167.75
1503,B-3,289.5,0.5,50,167.75
1504,B-4,289.5,0.5,50,167.75
1505,B-3,290.0,0.5,40,167.75
1506,G3,290.0,1.0,54,167.75
1507,G4,290.0,1.0,54,167.75
1508,B3,290.5,0.5,40,167.75
1509,B1,291.0,0.5,54,167.75
1510,B4,291.0,0.5,62,167.75
1511,B3,291.0,0.5,62,167.75
1512,F#2,291.5,0.5,56,167.75
1513,C#5,291.5,0.5,64,167.75
1514,C#4,291.5,0.5,64,167.75
1515,G2,292.0,0.5,56,167.75
1516,B4,292.0,1.0,67,167.75
1517,E-4,292.0,1.0,67,167.75
1518,E-5,292.0,1.0,67,167.75
1519,F#2,292.5,0.5,53,167.75
1520,B2,293.0,0.5,54,167.75
1521,C#4,293.0,0.5,63,167.75
1522,C#5,293.0,0.5,63,167.75
1523,E-3,293.5,0.5,51,167.75
1524,B3,293.5,0.5,58,167.75
1525,B4,293.5,0.5,58,167.75
1526,A4,294.0,1.0,58,167.75
1527,C3,294.0,0.5,56,167.75
1528,E-5,294.0,0.5,64,167.75
1529,E-4,294.0,0.5,64,167.75
1530,G#3,294.5,0.5,58,167.75
1531,F5,294.5,0.5,66,167.75
1532,F4,294.5,0.5,66,167.75
1533,A4,295.0,2.0,68,167.75
1534,A3,295.0,0.5,58,167.75
1535,F#4,295.0,1.0,71,167.75
1536,F#5,295.0,1.0,71,167.75
1537,C4,295.5,0.5,55,167.75
1538,E-4,296.0,0.5,56,167.75
1539,F4,296.0,0.25,66,167.75
1540,F5,296.0,0.25,66,167.75
1541,F#4,296.5,0.5,53,167.75
1542,E-4,296.5,0.25,61,167.75
1543,E-5,296.5,0.25,61,167.75
1544,C#3,297.0,0.5,55,167.75
1545,C#4,297.0,0.25,67,167.75
1546,F#4,297.0,0.25,67,167.75
1547,B-4,297.0,0.25,67,167.75
1548,C#5,297.0,0.25,67,167.75
1549,E-4,297.5,0.25,65,167.75
1550,E-5,297.5,0.25,65,167.75
1551,F4,298.0,0.25,70,167.75
1552,B-4,298.0,0.25,70,167.75
1553,F5,298.0,0.25,70,167.75
1554,F#4,298.0,0.5,51,167.75
1555,B-3,298.0,0.5,51,167.75
1556,C#4,298.0,0.5,51,167.75
1557,F#4,298.5,0.25,68,167.75
1558,F#5,298.5,0.25,68,167.75
1559,C#3,299.0,0.5,54,167.75
1560,G#4,299.0,0.25,74,167.75
1561,G#5,299.0,0.25,74,167.75
1562,B-4,299.5,0.25,70,167.75
1563,B-5,299.5,0.25,70,167.75
1564,C#2,300.0,0.5,61,167.75
1565,B4,300.0,0.25,80,167.75
1566,F5,300.0,0.25,80,167.75
1567,B5,300.0,0.25,80,167.75
1568,C5,300.5,0.25,72,167.75
1569,C6,300.5,0.25,72,167.75
1570,C#5,301.0,0.25,82,167.75
1571,F5,301.0,0.25,82,167.75
1572,B5,301.0,0.25,82,167.75
1573,C#6,301.0,0.25,82,167.75
1574,B4,301.0,0.5,43,167.75
1575,F4,301.0,0.5,43,167.75
1576,C#4,301.0,0.5,43,167.75
1577,D6,301.5,0.25,75,167.75
1578,D5,301.5,0.25,75,167.75
1579,E-6,302.0,0.25,84,167.75
1580,B5,302.0,0.25,84,167.75
1581,E-5,302.0,0.25,84,167.75
1582,C#2,302.0,1.0,61,167.75
1583,C#3,302.0,1.0,61,167.75
1584,F6,302.5,0.25,78,167.75
1585,F5,302.5,0.25,78,167.75
1586,F#2,303.0,0.5,70,167.75
1587,F#5,303.0,0.5,69,167.75
1588,F#6,303.0,0.5,69,167.75
1589,C#6,303.0,0.5,69,167.75
1590,G#6,303.5,0.5,76,167.75
1591,G#5,303.5,0.5,76,167.75
1592,C#3,303.5,1.0,69,167.75
1593,B-3,303.5,1.0,69,167.75
1594,C#6,304.0,1.0,80,167.75
1595,B-5,304.0,1.0,80,167.75
1596,B-6,304.0,1.0,80,167.75
1597,C#3,304.5,0.5,62,167.75
1598,B-3,304.5,0.5,62,167.75
1599,F#2,305.0,0.5,70,167.75
1600,G#5,305.0,0.5,75,167.75
1601,G#6,305.0,0.5,75,167.75
1602,F#5,305.5,0.25,69,167.75
1603,F#6,305.5,0.25,69,167.75
1604,C#3,305.5,0.5,60,167.75
1605,B-3,305.5,0.5,60,167.75
1606,G#6,305.75,0.125,75,167.75
1607,B-6,305.875,0.125,75,167.75
1608,F#2,306.0,0.5,72,167.75
1609,D6,306.0,1.0,79,167.75
1610,G#6,306.0,1.0,79,167.75
1611,G#5,306.0,1.0,79,167.75
1612,D3,306.5,1.0,58,167.75
1613,B3,306.5,1.0,58,167.75
1614,F#5,307.0,0.5,71,167.75
1615,F#6,307.0,0.5,71,167.75
1616,E5,307.5,0.5,68,167.75
1617,E6,307.5,0.5,68,167.75
1618,D3,307.5,0.5,60,167.75
1619,B3,307.5,0.5,60,167.75
1620,F#2,308.0,0.5,59,167.75
1621,F#5,308.0,1.0,69,167.75
1622,D5,308.0,1.0,69,167.75
1623,D6,308.0,1.0,69,167.75
1624,D3,308.5,0.5,54,167.75
1625,B3,308.5,0.5,54,167.75
1626,F#2,309.0,0.5,63,167.75
1627,B-5,309.0,0.5,67,167.75
1628,C#5,309.0,0.5,67,167.75
1629,C#6,309.0,0.5,67,167.75
1630,F#5,309.0,0.5,67,167.75
1631,E-6,309.5,0.5,72,167.75
1632,E-5,309.5,0.5,72,167.75
1633,C#3,309.5,1.0,62,167.75
1634,B-3,309.5,1.0,62,167.75
1635,B-5,310.0,1.0,72,167.75
1636,F5,310.0,1.0,72,167.75
1637,F6,310.0,1.0,72,167.75
1638,C#3,310.5,0.5,56,167.75
1639,B-3,310.5,0.5,56,167.75
1640,F#2,311.0,0.5,63,167.75
1641,E-5,311.0,0.5,70,167.75
1642,E-6,311.0,0.5,70,167.75
1643,C#5,311.5,0.5,64,167.75
1644,C#6,311.5,0.5,64,167.75
1645,C#3,311.5,0.5,54,167.75
1646,B-3,311.5,0.5,54,167.75
1647,F#2,312.0,0.5,64,167.75
1648,D5,312.0,3.0,58,167.75
1649,B5,312.0,3.0,58,167.75
1650,B4,312.0,3.0,58,167.75
1651,F3,312.5,1.0,52,167.75
1652,D4,312.5,1.0,52,167.75
1653,F3,313.5,0.5,50,167.75
1654,D4,313.5,0.5,50,167.75
1655,F#2,314.0,0.5,50,167.75
1656,F3,314.5,0.5,46,167.75
1657,D4,314.5,0.5,46,167.75
1658,F#2,315.0,0.5,70,167.75
1659,F#5,315.0,0.5,69,167.75
1660,F#6,315.0,0.5,69,167.75
1661,C#6,315.0,0.5,69,167.75
1662,G#6,315.5,0.5,76,167.75
1663,G#5,315.5,0.5,76,167.75
1664,C#3,315.5,1.0,69,167.75
1665,B-3,315.5,1.0,69,167.75
1666,C#6,316.0,1.0,80,167.75
1667,B-5,316.0,1.0,80,167.75
1668,B-6,316.0,1.0,80,167.75
1669,C#3,316.5,0.5,62,167.75
1670,B-3,316.5,0.5,62,167.75
1671,F#2,317.0,0.5,70,167.75
1672,G#5,317.0,0.5,75,167.75
1673,G#6,317.0,0.5,75,167.75
1674,F#5,317.5,0.25,69,167.75
1675,F#6,317.5,0.25,69,167.75
1676,C#3,317.5,0.5,60,167.75
1677,B-3,317.5,0.5,60,167.75
1678,G#6,317.75,0.125,75,167.75
1679,B-6,317.875,0.125,75,167.75
1680,F#2,318.0,0.5,72,167.75
1681,D6,318.0,1.0,79,167.75
1682,G#6,318.0,1.0,79,167.75
1683,G#5,318.0,1.0,79,167.75
1684,D3,318.5,1.0,58,167.75
1685,B3,318.5,1.0,58,167.75
1686,F#5,319.0,0.5,71,167.75
1687,F#6,319.0,0.5,71,167.75
1688,E5,319.5,0.5,68,167.75
1689,E6,319.5,0.5,68,167.75
1690,D3,319.5,0.5,60,167.75
1691,B3,319.5,0.5,60,167.75
1692,F#2,320.0,0.5,59,167.75
1693,F#5,320.0,1.0,69,167.75
1694,D5,320.0,1.0,69,167.75
1695,D6,320.0,1.0,69,167.75
1696,D3,320.5,0.5,54,167.75
1697,B3,320.5,0.5,54,167.75
1698,F#2,321.0,0.5,63,167.75
1699,B-5,321.0,0.5,67,167.75
1700,C#5,321.0,0.5,67,167.75
1701,C#6,321.0,0.5,67,167.75
1702,F#5,321.0,0.5,67,167.75
1703,E-6,321.5,0.5,72,167.75
1704,E-5,321.5,0.5,72,167.75
1705,C#3,321.5,1.0,62,167.75
1706,B-3,321.5,1.0,62,167.75
1707,B-5,322.0,1.0,72,167.75
1708,F5,322.0,1.0,72,167.75
1709,F6,322.0,1.0,72,167.75
1710,C#3,322.5,0.5,56,167.75
1711,B-3,322.5,0.5,56,167.75
1712,F#2,323.0,0.5,63,167.75
1713,E-5,323.0,0.5,70,167.75
1714,E-6,323.0,0.5,70,167.75
1715,C#5,323.5,0.5,64,167.75
1716,C#6,323.5,0.5,64,167.75
1717,C#3,323.5,0.5,54,167.75
1718,B-3,323.5,0.5,54,167.75
1719,F#2,324.0,0.5,64,167.75
1720,D5,324.0,3.0,58,167.75
1721,B5,324.0,3.0,58,167.75
1722,B4,324.0,3.0,58,167.75
1723,F3,324.5,1.0,52,167.75
1724,D4,324.5,1.0,52,167.75
1725,F3,325.5,0.5,50,167.75
1726,D4,325.5,0.5,50,167.75
1727,F#2,326.0,0.5,50,167.75
1728,F3,326.5,0.5,46,167.75
1729,D4,326.5,0.5,46,167.75
1730,F#3,327.0,0.25,51,167.75
1731,E-4,327.5,0.25,35,167.75
1732,F#4,327.5,0.25,35,167.75
1733,B-4,327.5,0.25,35,167.75
1734,C#4,327.75,229/1000,35,167.75
1735,C#4,328.0,0.125,49,167.75
1736,C#4,328.5,0.125,35,167.75
1737,F#4,328.5,0.125,35,167.75
1738,B-4,328.5,0.125,35,167.75
1739,C#3,329.0,0.125,49,167.75
1740,C#4,329.5,0.125,35,167.75
1741,F#4,329.5,0.125,35,167.75
1742,B-4,329.5,0.125,35,167.75
1743,G#3,330.0,0.5,48,167.75
1744,B5,330.5,0.5,51,167.75
1745,F5,330.5,0.5,51,167.75
1746,C#5,330.5,0.5,51,167.75
1747,C#6,330.5,0.5,51,167.75
1748,C#4,330.5,1.0,47,167.75
1749,F4,330.5,1.0,47,167.75
1750,B4,330.5,1.0,47,167.75
1751,E-5,331.0,0.5,58,167.75
1752,E-6,331.0,0.5,58,167.75
1753,F5,331.5,0.5,59,167.75
1754,F6,331.5,0.5,59,167.75
1755,C#4,331.5,0.5,36,167.75
1756,F4,331.5,0.5,36,167.75
1757,B4,331.5,0.5,36,167.75
1758,C#3,332.0,0.5,53,167.75
1759,E-5,332.0,0.5,62,167.75
1760,E-6,332.0,0.5,62,167.75
1761,C#5,332.5,0.5,60,167.75
1762,C#6,332.5,0.5,60,167.75
1763,C#4,332.5,0.5,35,167.75
1764,F4,332.5,0.5,35,167.75
1765,B4,332.5,0.5,35,167.75
1766,F#3,333.0,0.25,51,167.75
1767,E-4,333.5,0.25,35,167.75
1768,F#4,333.5,0.25,35,167.75
1769,B-4,333.5,0.25,35,167.75
1770,C#4,333.75,229/1000,35,167.75
1771,C#4,334.0,0.125,49,167.75
1772,C#4,334.5,0.125,35,167.75
1773,F#4,334.5,0.125,35,167.75
1774,B-4,334.5,0.125,35,167.75
1775,C#3,335.0,0.125,49,167.75
1776,C#4,335.5,0.125,35,167.75
1777,F#4,335.5,0.125,35,167.75
1778,B-4,335.5,0.125,35,167.75
1779,G#3,336.0,0.5,48,167.75
1780,B5,336.5,0.5,50,167.75
1781,F5,336.5,0.5,50,167.75
1782,C#5,336.5,0.5,50,167.75
1783,C#6,336.5,0.5,50,167.75
1784,C#4,336.5,1.0,47,167.75
1785,F4,336.5,1.0,47,167.75
1786,B4,336.5,1.0,47,167.75
1787,E-5,337.0,0.5,58,167.75
1788,E-6,337.0,0.5,58,167.75
1789,F5,337.5,0.5,59,167.75
1790,F6,337.5,0.5,59,167.75
1791,C#4,337.5,0.5,36,167.75
1792,F4,337.5,0.5,36,167.75
1793,B4,337.5,0.5,36,167.75
1794,C#3,338.0,0.5,53,167.75
1795,E-5,338.0,0.5,62,167.75
1796,E-6,338.0,0.5,62,167.75
1797,C#5,338.5,0.5,60,167.75
1798,C#6,338.5,0.5,60,167.75
1799,C#4,338.5,0.5,35,167.75
1800,F4,338.5,0.5,35,167.75
1801,B4,338.5,0.5,35,167.75
1802,F#3,339.0,0.25,51,167.75
1803,E-4,339.5,0.25,35,167.75
1804,F#4,339.5,0.25,35,167.75
1805,B-4,339.5,0.25,35,167.75
1806,C#4,339.75,229/1000,35,167.75
1807,C#4,340.0,0.125,49,167.75
1808,C#4,340.5,0.125,35,167.75
1809,F#4,340.5,0.125,35,167.75
1810,B-4,340.5,0.125,35,167.75
1811,C#3,341.0,0.125,49,167.75
1812,C#4,341.5,0.125,35,167.75
1813,F#4,341.5,0.125,35,167.75
1814,B-4,341.5,0.125,35,167.75
1815,F#2,342.0,1.0,58,167.75
1816,D5,342.5,0.25,65,167.75
1817,D4,342.5,0.25,65,167.75
1818,A4,342.5,0.25,65,167.75
1819,E4,343.0,0.25,72,167.75
1820,E5,343.0,0.25,72,167.75
1821,D3,343.0,1.0,52,167.75
1822,C4,343.0,1.0,52,167.75
1823,F#4,343.5,0.25,68,167.75
1824,F#5,343.5,0.25,68,167.75
1825,D2,344.0,1.0,52,167.75
1826,G4,344.0,0.25,70,167.75
1827,D5,344.0,0.25,70,167.75
1828,G5,344.0,0.25,70,167.75
1829,A4,344.5,0.25,67,167.75
1830,A5,344.5,0.25,67,167.75
1831,G2,345.0,1.0,59,167.75
1832,B-4,345.0,0.25,70,167.75
1833,D5,345.0,0.25,70,167.75
1834,B-5,345.0,0.25,70,167.75
1835,B4,345.5,0.25,74,167.75
1836,B5,345.5,0.25,74,167.75
1837,D6,346.0,0.25,77,167.75
1838,D5,346.0,0.25,77,167.75
1839,D3,346.0,1.0,55,167.75
1840,B3,346.0,1.0,55,167.75
1841,G6,346.5,0.25,77,167.75
1842,G5,346.5,0.25,77,167.75
1843,G2,347.0,1.0,55,167.75
1844,B6,347.0,0.25,78,167.75
1845,B5,347.0,0.25,78,167.75
1846,D7,347.5,0.25,80,167.75
1847,D6,347.5,0.25,80,167.75
1848,C#3,348.0,3.0,50,167.75
1849,F3,348.5,0.125,38,167.75
1850,B3,348.5,0.25,50,167.75
1851,C#4,348.5,0.25,50,167.75
1852,F#3,349.0,0.125,45,167.75
1853,B3,349.0,0.25,54,167.75
1854,E-4,349.0,0.25,54,167.75
1855,G#3,349.5,0.125,39,167.75
1856,B3,349.5,0.25,50,167.75
1857,F4,349.5,0.25,50,167.75
1858,E-4,349.75,0.125,45,167.75
1859,F4,349.875,0.125,46,167.75
1860,F#3,350.0,0.125,44,167.75
1861,B3,350.0,0.25,54,167.75
1862,E-4,350.0,0.25,54,167.75
1863,F3,350.5,0.125,40,167.75
1864,B3,350.5,0.25,50,167.75
1865,C#4,350.5,0.25,50,167.75
1866,F#3,351.0,0.25,51,167.75
1867,E-4,351.5,0.25,35,167.75
1868,F#4,351.5,0.25,35,167.75
1869,B-4,351.5,0.25,35,167.75
1870,C#4,351.75,229/1000,35,167.75
1871,C#4,352.0,0.125,49,167.75
1872,C#4,352.5,0.125,35,167.75
1873,F#4,352.5,0.125,35,167.75
1874,B-4,352.5,0.125,35,167.75
1875,C#3,353.0,0.125,49,167.75
1876,C#4,353.5,0.125,35,167.75
1877,F#4,353.5,0.125,35,167.75
1878,B-4,353.5,0.125,35,167.75
1879,G#3,354.0,0.5,48,167.75
1880,B5,354.5,0.5,51,167.75
1881,F5,354.5,0.5,51,167.75
1882,C#5,354.5,0.5,51,167.75
1883,C#6,354.5,0.5,51,167.75
1884,C#4,354.5,1.0,47,167.75
1885,F4,354.5,1.0,47,167.75
1886,B4,354.5,1.0,47,167.75
1887,E-5,355.0,0.5,58,167.75
1888,E-6,355.0,0.5,58,167.75
1889,F5,355.5,0.5,59,167.75
1890,F6,355.5,0.5,59,167.75
1891,C#4,355.5,0.5,36,167.75
1892,F4,355.5,0.5,36,167.75
1893,B4,355.5,0.5,36,167.75
1894,C#3,356.0,0.5,53,167.75
1895,E-5,356.0,0.5,62,167.75
1896,E-6,356.0,0.5,62,167.75
1897,C#5,356.5,0.5,60,167.75
1898,C#6,356.5,0.5,60,167.75
1899,C#4,356.5,0.5,35,167.75
1900,F4,356.5,0.5,35,167.75
1901,B4,356.5,0.5,35,167.75
1902,F#3,357.0,0.25,51,167.75
1903,E-4,357.5,0.25,35,167.75
1904,F#4,357.5,0.25,35,167.75
1905,B-4,357.5,0.25,35,167.75
1906,C#4,357.75,229/1000,35,167.75
1907,C#4,358.0,0.125,49,167.75
1908,C#4,358.5,0.125,35,167.75
1909,F#4,358.5,0.125,35,167.75
1910,B-4,358.5,0.125,35,167.75
1911,C#3,359.0,0.125,49,167.75
1912,C#4,359.5,0.125,35,167.75
1913,F#4,359.5,0.125,35,167.75
1914,B-4,359.5,0.125,35,167.75
1915,G#3,360.0,0.5,48,167.75
1916,B5,360.5,0.5,50,167.75
1917,F5,360.5,0.5,50,167.75
1918,C#5,360.5,0.5,50,167.75
1919,C#6,360.5,0.5,50,167.75
1920,C#4,360.5,1.0,47,167.75
1921,F4,360.5,1.0,47,167.75
1922,B4,360.5,1.0,47,167.75
1923,E-5,361.0,0.5,58,167.75
1924,E-6,361.0,0.5,58,167.75
1925,F5,361.5,0.5,59,167.75
1926,F6,361.5,0.5,59,167.75
1927,C#4,361.5,0.5,36,167.75
1928,F4,361.5,0.5,36,167.75
1929,B4,361.5,0.5,36,167.75
1930,C#3,362.0,0.5,53,167.75
1931,E-5,362.0,0.5,62,167.75
1932,E-6,362.0,0.5,62,167.75
1933,C#5,362.5,0.5,60,167.75
1934,C#6,362.5,0.5,60,167.75
1935,C#4,362.5,0.5,35,167.75
1936,F4,362.5,0.5,35,167.75
1937,B4,362.5,0.5,35,167.75
1938,F#3,363.0,0.25,51,167.75
1939,E-4,363.5,0.25,35,167.75
1940,F#4,363.5,0.25,35,167.75
1941,B-4,363.5,0.25,35,167.75
1942,C#4,363.75,229/1000,35,167.75
1943,C#4,364.0,0.125,49,167.75
1944,C#4,364.5,0.125,35,167.75
1945,F#4,364.5,0.125,35,167.75
1946,B-4,364.5,0.125,35,167.75
1947,C#3,365.0,0.125,49,167.75
1948,C#4,365.5,0.125,35,167.75
1949,F#4,365.5,0.125,35,167.75
1950,B-4,365.5,0.125,35,167.75
1951,F#2,366.0,1.0,58,167.75
1952,D5,366.5,0.25,65,167.75
1953,D4,366.5,0.25,65,167.75
1954,A4,366.5,0.25,65,167.75
1955,E4,367.0,0.25,72,167.75
1956,E5,367.0,0.25,72,167.75
1957,D3,367.0,1.0,52,167.75
1958,C4,367.0,1.0,52,167.75
1959,F#4,367.5,0.25,68,167.75
1960,F#5,367.5,0.25,68,167.75
1961,D2,368.0,1.0,52,167.75
1962,G4,368.0,0.25,70,167.75
1963,D5,368.0,0.25,70,167.75
1964,G5,368.0,0.25,70,167.75
1965,A4,368.5,0.25,67,167.75
1966,A5,368.5,0.25,67,167.75
1967,G2,369.0,1.0,59,167.75
1968,B-4,369.0,0.25,70,167.75
1969,D5,369.0,0.25,70,167.75
1970,B-5,369.0,0.25,70,167.75
1971,B4,369.5,0.25,69,167.75
1972,B5,369.5,0.25,69,167.75
1973,D6,370.0,0.25,77,167.75
1974,D5,370.0,0.25,77,167.75
1975,D3,370.0,1.0,55,167.75
1976,B3,370.0,1.0,55,167.75
1977,G6,370.5,0.25,77,167.75
1978,G5,370.5,0.25,77,167.75
1979,G2,371.0,1.0,55,167.75
1980,B6,371.0,0.25,78,167.75
1981,B5,371.0,0.25,78,167.75
1982,D7,371.5,0.25,80,167.75
1983,D6,371.5,0.25,80,167.75
1984,C#3,372.0,3.0,50,167.75
1985,F3,372.5,0.125,38,167.75
1986,B3,372.5,0.25,50,167.75
1987,C#4,372.5,0.25,50,167.75
1988,F#3,373.0,0.125,45,167.75
1989,B3,373.0,0.25,54,167.75
1990,E-4,373.0,0.25,54,167.75
1991,G#3,373.5,0.125,39,167.75
1992,B3,373.5,0.25,50,167.75
1993,F4,373.5,0.25,50,167.75
1994,E-4,373.75,0.125,45,167.75
1995,F4,373.875,0.125,46,167.75
1996,F#3,374.0,0.125,44,167.75
1997,B3,374.0,0.25,54,167.75
1998,E-4,374.0,0.25,54,167.75
1999,F3,374.5,0.125,40,167.75
2000,B3,374.5,0.25,50,167.75
2001,C#4,374.5,0.25,50,167.75
2002,B-3,375.0,0.25,78,167.75
2003,F#4,375.0,0.25,78,167.75
2004,F#2,375.0,0.5,61,167.75
2005,C#3,375.0,0.5,61,167.75
2006,F#6,375.5,0.25,51,167.75
2007,C#6,375.5,0.25,51,167.75
2008,B-5,375.5,0.25,51,167.75
2009,F#5,375.75,0.25,57,167.75
2010,G#5,376.0,0.25,69,167.75
2011,F#6,376.5,0.25,51,167.75
2012,C#6,376.5,0.25,51,167.75
2013,B-5,376.5,0.25,51,167.75
2014,F#5,376.75,0.25,57,167.75
2015,G#5,377.0,0.25,69,167.75
2016,F#6,377.5,0.25,51,167.75
2017,C#6,377.5,0.25,51,167.75
2018,B-5,377.5,0.25,51,167.75
2019,F#5,377.75,0.25,57,167.75
2020,G#5,378.0,0.25,69,167.75
2021,F#6,378.5,0.25,51,167.75
2022,C#6,378.5,0.25,51,167.75
2023,B-5,378.5,0.25,51,167.75
2024,F#5,378.75,0.25,57,167.75
2025,G#5,379.0,0.25,69,167.75
2026,F#6,379.5,0.25,51,167.75
2027,C#6,379.5,0.25,51,167.75
2028,B-5,379.5,0.25,51,167.75
2029,F#5,379.75,0.25,57,167.75
2030,G#5,380.0,0.25,69,167.75
2031,F#5,380.5,0.25,56,167.75
2032,F#6,380.5,0.25,56,167.75
2033,C#6,380.5,0.25,56,167.75
2034,B-5,380.5,0.25,56,167.75
2035,A6,381.0,0.25,82,167.75
2036,C6,381.0,0.25,82,167.75
2037,A5,381.0,0.25,82,167.75
2038,F#3,381.0,0.5,69,167.75
2039,D3,381.0,0.5,69,167.75
2040,F#2,381.0,0.5,69,167.75
2041,D5,381.5,0.25,46,167.75
2042,A4,381.5,0.25,46,167.75
2043,F#4,381.5,0.25,46,167.75
2044,D4,381.75,0.25,51,167.75
2045,E4,382.0,0.25,64,167.75
2046,D5,382.5,0.25,46,167.75
2047,A4,382.5,0.25,46,167.75
2048,F#4,382.5,0.25,46,167.75
2049,D4,382.75,0.25,51,167.75
2050,E4,383.0,0.25,64,167.75
2051,D5,383.5,0.25,46,167.75
2052,A4,383.5,0.25,46,167.75
2053,F#4,383.5,0.25,46,167.75
2054,D4,383.75,0.25,51,167.75
2055,E4,384.0,0.25,64,167.75
2056,D5,384.5,0.25,46,167.75
2057,A4,384.5,0.25,46,167.75
2058,F#4,384.5,0.25,46,167.75
2059,D4,384.75,0.25,51,167.75
2060,E4,385.0,0.25,64,167.75
2061,D5,385.5,0.25,46,167.75
2062,A4,385.5,0.25,46,167.75
2063,F#4,385.5,0.25,46,167.75
2064,D4,385.75,0.25,51,167.75
2065,E4,386.0,0.25,64,167.75
2066,D4,386.5,0.25,50,167.75
2067,D5,386.5,0.25,50,167.75
2068,A4,386.5,0.25,50,167.75
2069,F#4,386.5,0.25,50,167.75
2070,F#4,387.0,0.25,80,167.75
2071,B-4,387.0,0.25,80,167.75
2072,C#5,387.0,0.25,80,167.75
2073,F#5,387.0,0.25,80,167.75
2074,C#3,387.0,0.5,65,167.75
2075,F#2,387.0,0.5,65,167.75
2076,F#3,387.0,0.5,65,167.75
2077,F#6,387.5,0.25,51,167.75
2078,C#6,387.5,0.25,51,167.75
2079,B-5,387.5,0.25,51,167.75
2080,F#5,387.75,0.25,57,167.75
2081,G#5,388.0,0.25,68,167.75
2082,F#6,388.5,0.25,51,167.75
2083,C#6,388.5,0.25,51,167.75
2084,B-5,388.5,0.25,51,167.75
2085,F#5,388.75,0.25,57,167.75
2086,G#5,389.0,0.25,68,167.75
2087,F#6,389.5,0.25,51,167.75
2088,C#6,389.5,0.25,51,167.75
2089,B-5,389.5,0.25,51,167.75
2090,F#5,389.75,0.25,57,167.75
2091,G#5,390.0,0.25,68,167.75
2092,F#6,390.5,0.25,51,167.75
2093,C#6,390.5,0.25,51,167.75
2094,B-5,390.5,0.25,51,167.75
2095,F#5,390.75,0.25,57,167.75
2096,G#5,391.0,0.25,68,167.75
2097,F#6,391.5,0.25,51,167.75
2098,C#6,391.5,0.25,51,167.75
2099,B-5,391.5,0.25,51,167.75
2100,F#5,391.75,0.25,57,167.75
2101,G#5,392.0,0.25,68,167.75
2102,F#5,392.5,0.25,56,167.75
2103,F#6,392.5,0.25,56,167.75
2104,C#6,392.5,0.25,56,167.75
2105,B-5,392.5,0.25,56,167.75
2106,F#6,393.0,0.25,84,167.75
2107,B-6,393.0,0.25,84,167.75
2108,E-6,393.0,0.25,84,167.75
2109,B-5,393.0,0.25,84,167.75
2110,E-3,393.0,0.5,65,167.75
2111,B-2,393.0,0.5,65,167.75
2112,E-2,393.0,0.5,65,167.75
2113,E-5,393.5,0.25,46,167.75
2114,B-4,393.5,0.25,46,167.75
2115,F#4,393.5,0.25,46,167.75
2116,E-4,393.75,0.25,51,167.75
2117,F4,394.0,0.25,64,167.75
2118,E-5,394.5,0.25,46,167.75
2119,B-4,394.5,0.25,46,167.75
2120,F#4,394.5,0.25,46,167.75
2121,E-4,394.75,0.25,51,167.75
2122,F4,395.0,0.25,64,167.75
2123,E-5,395.5,0.25,46,167.75
2124,B-4,395.5,0.25,46,167.75
2125,F#4,395.5,0.25,46,167.75
2126,E-4,395.75,0.25,51,167.75
2127,F4,396.0,0.25,64,167.75
2128,E-5,396.5,0.25,46,167.75
2129,B-4,396.5,0.25,46,167.75
2130,F#4,396.5,0.25,46,167.75
2131,E-4,396.75,0.25,51,167.75
2132,F4,397.0,0.25,64,167.75
2133,E-5,397.5,0.25,46,167.75
2134,B-4,397.5,0.25,46,167.75
2135,F#4,397.5,0.25,46,167.75
2136,E-4,397.75,0.25,51,167.75
2137,E-6,398.0,0.25,68,167.75
2138,B5,398.0,0.25,68,167.75
2139,F#5,398.0,0.25,68,167.75
2140,E-5,398.0,0.25,68,167.75
2141,B2,398.0,0.25,59,167.75
2142,F#3,398.0,0.25,59,167.75
2143,B3,398.0,0.25,59,167.75
2144,F#5,398.5,0.25,70,167.75
2145,B5,398.5,0.25,70,167.75
2146,E-6,398.5,0.25,70,167.75
2147,F#6,398.5,0.25,70,167.75
2148,B2,398.5,0.25,58,167.75
2149,F#3,398.5,0.25,58,167.75
2150,B3,398.5,0.25,58,167.75
2151,B-6,399.0,0.25,76,167.75
2152,F#6,399.0,0.25,76,167.75
2153,C#6,399.0,0.25,76,167.75
2154,B-5,399.0,0.25,76,167.75
2155,F#2,399.0,0.5,62,167.75
2156,C#3,399.0,0.5,62,167.75
2157,F#3,399.0,0.5,62,167.75
2158,B4,399.5,0.25,51,167.75
2159,F#4,399.5,0.25,51,167.75
2160,E-4,399.5,0.25,51,167.75
2161,C#4,399.75,229/1000,57,167.75
2162,C#4,400.0,0.25,68,167.75
2163,C#5,400.5,0.25,52,167.75
2164,B4,400.5,0.25,52,167.75
2165,G#4,400.5,0.25,52,167.75
2166,F#4,400.75,229/1000,59,167.75
2167,F#4,401.0,0.25,72,167.75
2168,B-5,401.5,0.25,54,167.75
2169,F#5,401.5,0.25,54,167.75
2170,E-5,401.5,0.25,54,167.75
2171,C#5,401.75,229/1000,62,167.75
2172,C#5,402.0,0.25,73,167.75
2173,C#6,402.5,0.25,56,167.75
2174,B5,402.5,0.25,56,167.75
2175,G#5,402.5,0.25,56,167.75
2176,F#5,402.75,229/1000,64,167.75
2177,F#5,403.0,0.25,77,167.75
2178,B-6,403.5,0.25,59,167.75
2179,F#6,403.5,0.25,59,167.75
2180,E-6,403.5,0.25,59,167.75
2181,C#6,403.75,229/1000,66,167.75
2182,C#6,404.0,0.25,79,167.75
2183,C#7,404.5,0.25,61,167.75
2184,B6,404.5,0.25,61,167.75
2185,G#6,404.5,0.25,61,167.75
2186,F#6,404.75,229/1000,68,167.75
2187,F#6,405.0,0.5,90,167.75
2188,F#6,407.0,0.5,84,167.75
2189,D6,407.0,0.5,84,167.75
2190,B5,407.0,0.5,84,167.75
2191,F#5,407.0,0.5,84,167.75
2192,B2,407.0,0.5,59,167.75
2193,F#3,407.0,0.5,59,167.75
2194,B3,407.0,0.5,59,167.75
2195,F#2,407.875,0.125,61,167.75
2196,C#3,407.938,0.062,61,167.75
2197,B-3,408.0,0.5,73,167.75
2198,F#2,408.0,0.5,61,167.75
2199,C#3,408.0,0.5,61,167.75
2200,B-6,408.0,0.5,90,167.75
2201,F#6,408.0,0.5,90,167.75
2202,C#6,408.0,0.5,90,167.75
2203,B-5,408.0,0.5,90,167.75
2204,F#3,410.875,0.125,62,167.75
2205,C#4,410.938,0.062,62,167.75
2206,B-4,411.0,0.5,73,167.75
2207,F#3,411.0,0.5,62,167.75
2208,C#4,411.0,0.5,62,167.75
2209,F#6,411.0,0.5,87,167.75
2210,C#7,411.0,0.5,87,167.75
2211,F#7,411.0,0.5,87,167.75
