,note_name,start_time,duration,velocity,tempo
0,F2,1.312,0.188,35,76.85
1,C3,1.375,0.125,37,76.85
2,C5,1.375,0.125,29,76.85
3,F5,1.375,0.125,29,76.85
4,A3,1.438,0.062,39,76.85
5,A5,1.458,21/500,32,76.85
6,C6,1.458,21/500,32,76.85
7,F4,1.5,1.5,50,76.85
8,F2,1.5,1.5,35,76.85
9,C3,1.5,1.5,37,76.85
10,A3,1.5,1.5,39,76.85
11,C5,1.5,229/500,29,76.85
12,F5,1.5,229/500,29,76.85
13,A5,1.5,229/500,32,76.85
14,C6,1.5,229/500,32,76.85
15,A5,2.0,0.5,29,76.85
16,C6,2.0,0.5,29,76.85
17,F5,2.0,0.5,29,76.85
18,C5,2.0,0.5,29,76.85
19,C6,2.5,0.375,29,76.85
20,C5,2.5,0.375,29,76.85
21,A5,2.5,0.375,29,76.85
22,F5,2.5,0.375,29,76.85
23,C5,2.875,0.125,29,76.85
24,F5,2.875,0.125,29,76.85
25,A5,2.958,21/500,32,76.85
26,C6,2.958,21/500,32,76.85
27,C5,3.0,229/500,29,76.85
28,F5,3.0,229/500,29,76.85
29,A5,3.0,229/500,32,76.85
30,C6,3.0,229/500,32,76.85
31,E4,3.25,0.25,44,76.85
32,D4,3.5,0.25,49,76.85
33,F5,3.5,0.5,29,76.85
34,C5,3.5,0.5,29,76.85
35,C6,3.5,0.5,29,76.85
36,A5,3.5,0.5,29,76.85
37,C4,3.75,0.25,44,76.85
38,D4,4.0,0.25,49,76.85
39,F5,4.0,0.375,29,76.85
40,C6,4.0,0.375,29,76.85
41,A5,4.0,0.375,29,76.85
42,C5,4.0,0.375,29,76.85
43,E4,4.25,0.25,44,76.85
44,C5,4.375,0.125,29,76.85
45,F5,4.375,0.125,29,76.85
46,A5,4.458,21/500,32,76.85
47,C6,4.458,21/500,32,76.85
48,F3,4.5,1.5,39,76.85
49,D4,4.5,167/1000,45,76.85
50,C5,4.5,229/500,29,76.85
51,F5,4.5,229/500,29,76.85
52,A5,4.5,229/500,32,76.85
53,C6,4.5,229/500,32,76.85
54,E4,4.667,167/1000,41,76.85
55,D4,4.833,167/1000,41,76.85
56,C4,5.0,1.0,46,76.85
57,A5,5.0,0.5,29,76.85
58,C6,5.0,0.5,29,76.85
59,C5,5.0,0.5,29,76.85
60,F5,5.0,0.5,29,76.85
61,A5,5.5,0.375,29,76.85
62,F5,5.5,0.375,29,76.85
63,C6,5.5,0.375,29,76.85
64,C5,5.5,0.375,29,76.85
65,C5,5.875,0.125,29,76.85
66,F5,5.875,0.125,29,76.85
67,A5,5.958,21/500,32,76.85
68,C6,5.958,21/500,32,76.85
69,C4,6.0,1.312,46,76.85
70,C5,6.0,229/500,29,76.85
71,F5,6.0,229/500,29,76.85
72,A5,6.0,229/500,32,76.85
73,C6,6.0,229/500,32,76.85
74,A5,6.5,0.5,29,76.85
75,C6,6.5,0.5,29,76.85
76,F5,6.5,0.5,29,76.85
77,C5,6.5,0.5,29,76.85
78,C6,7.0,0.375,29,76.85
79,C5,7.0,0.375,29,76.85
80,A5,7.0,0.375,29,76.85
81,F5,7.0,0.375,29,76.85
82,F2,7.312,0.188,34,76.85
83,C3,7.375,0.125,37,76.85
84,C5,7.375,0.125,29,76.85
85,F5,7.375,0.125,29,76.85
86,A3,7.438,0.062,39,76.85
87,A5,7.458,21/500,32,76.85
88,C6,7.458,21/500,32,76.85
89,F4,7.5,1.5,50,76.85
90,F2,7.5,1.5,34,76.85
91,C3,7.5,1.5,37,76.85
92,A3,7.5,1.5,39,76.85
93,C5,7.5,229/500,29,76.85
94,F5,7.5,229/500,29,76.85
95,A5,7.5,229/500,32,76.85
96,C6,7.5,229/500,32,76.85
97,F5,8.0,0.5,29,76.85
98,C5,8.0,0.5,29,76.85
99,C6,8.0,0.5,29,76.85
100,A5,8.0,0.5,29,76.85
101,F5,8.5,0.375,29,76.85
102,C6,8.5,0.375,29,76.85
103,A5,8.5,0.375,29,76.85
104,C5,8.5,0.375,29,76.85
105,C5,8.875,0.125,29,76.85
106,F5,8.875,0.125,29,76.85
107,A5,8.958,21/500,32,76.85
108,C6,8.958,21/500,32,76.85
109,C5,9.0,229/500,29,76.85
110,F5,9.0,229/500,29,76.85
111,A5,9.0,229/500,32,76.85
112,C6,9.0,229/500,32,76.85
113,E4,9.25,0.25,44,76.85
114,D4,9.5,0.25,49,76.85
115,C6,9.5,0.5,29,76.85
116,C5,9.5,0.5,29,76.85
117,A5,9.5,0.5,29,76.85
118,F5,9.5,0.5,29,76.85
119,C4,9.75,0.25,44,76.85
120,D4,10.0,0.25,49,76.85
121,F5,10.0,0.375,29,76.85
122,C5,10.0,0.375,29,76.85
123,C6,10.0,0.375,29,76.85
124,A5,10.0,0.375,29,76.85
125,E4,10.25,0.25,44,76.85
126,C5,10.375,0.125,29,76.85
127,F5,10.375,0.125,29,76.85
128,A5,10.458,21/500,32,76.85
129,C6,10.458,21/500,32,76.85
130,D4,10.5,167/1000,48,76.85
131,F3,10.5,1.5,40,76.85
132,C5,10.5,229/500,29,76.85
133,F5,10.5,229/500,29,76.85
134,A5,10.5,229/500,32,76.85
135,C6,10.5,229/500,32,76.85
136,E4,10.667,167/1000,41,76.85
137,D4,10.833,167/1000,41,76.85
138,C4,11.0,1.0,46,76.85
139,A5,11.0,0.5,29,76.85
140,F5,11.0,0.5,29,76.85
141,C6,11.0,0.5,29,76.85
142,C5,11.0,0.5,29,76.85
143,A5,11.5,0.375,29,76.85
144,C6,11.5,0.375,29,76.85
145,C5,11.5,0.375,29,76.85
146,F5,11.5,0.375,29,76.85
147,C5,11.875,0.125,29,76.85
148,F5,11.875,0.125,29,76.85
149,A5,11.958,21/500,32,76.85
150,C6,11.958,21/500,32,76.85
151,C4,12.0,1.312,46,76.85
152,C5,12.0,229/500,29,76.85
153,F5,12.0,229/500,29,76.85
154,A5,12.0,229/500,32,76.85
155,C6,12.0,229/500,32,76.85
156,C6,12.5,0.5,29,76.85
157,C5,12.5,0.5,29,76.85
158,F5,12.5,0.5,29,76.85
159,A5,12.5,0.5,29,76.85
160,A5,13.0,0.375,29,76.85
161,C6,13.0,0.375,29,76.85
162,F5,13.0,0.375,29,76.85
163,C5,13.0,0.375,29,76.85
164,F2,13.375,0.125,40,76.85
165,E5,13.375,0.125,29,76.85
166,C5,13.375,0.125,29,76.85
167,C3,13.438,0.062,40,76.85
168,G3,13.5,0.25,47,76.85
169,F2,13.5,0.5,40,76.85
170,C3,13.5,0.5,40,76.85
171,C6,13.5,271/500,32,76.85
172,B-5,13.5,271/500,32,76.85
173,E5,13.5,0.5,29,76.85
174,C5,13.5,0.5,29,76.85
175,A3,13.75,0.25,51,76.85
176,B-3,14.0,0.5,53,76.85
177,C6,14.0,0.5,29,76.85
178,C5,14.0,0.5,29,76.85
179,B-5,14.0,0.5,29,76.85
180,E5,14.0,0.5,29,76.85
181,B-3,14.5,0.25,51,76.85
182,E5,14.5,0.375,29,76.85
183,C5,14.5,0.375,29,76.85
184,C6,14.5,0.375,29,76.85
185,B-5,14.5,0.375,29,76.85
186,C4,14.75,0.25,53,76.85
187,E5,14.875,0.125,29,76.85
188,C5,14.875,0.125,29,76.85
189,D4,15.0,0.75,58,76.85
190,B-5,15.0,0.5,32,76.85
191,C6,15.0,0.5,32,76.85
192,E5,15.0,0.5,29,76.85
193,C5,15.0,0.5,29,76.85
194,B-5,15.5,0.5,29,76.85
195,E5,15.5,0.5,29,76.85
196,C6,15.5,0.5,29,76.85
197,C5,15.5,0.5,29,76.85
198,E4,15.75,0.25,58,76.85
199,G4,16.0,0.25,62,76.85
200,B-5,16.0,0.375,29,76.85
201,C6,16.0,0.375,29,76.85
202,C5,16.0,0.375,29,76.85
203,E5,16.0,0.375,29,76.85
204,E4,16.25,0.25,57,76.85
205,E5,16.375,0.125,29,76.85
206,C5,16.375,0.125,29,76.85
207,D4,16.5,167/1000,58,76.85
208,C6,16.5,271/500,32,76.85
209,B-5,16.5,271/500,32,76.85
210,E5,16.5,0.5,29,76.85
211,C5,16.5,0.5,29,76.85
212,E4,16.667,167/1000,53,76.85
213,D4,16.833,167/1000,49,76.85
214,C4,17.0,1.0,49,76.85
215,C6,17.0,0.5,29,76.85
216,C5,17.0,0.5,29,76.85
217,B-5,17.0,0.5,29,76.85
218,E5,17.0,0.5,29,76.85
219,E5,17.5,0.375,29,76.85
220,C5,17.5,0.375,29,76.85
221,C6,17.5,0.375,29,76.85
222,B-5,17.5,0.375,29,76.85
223,E5,17.875,0.125,29,76.85
224,C5,17.875,0.125,29,76.85
225,C4,18.0,1.312,49,76.85
226,B-5,18.0,0.5,32,76.85
227,C6,18.0,0.5,32,76.85
228,E5,18.0,0.5,29,76.85
229,C5,18.0,0.5,29,76.85
230,B-5,18.5,0.5,29,76.85
231,E5,18.5,0.5,29,76.85
232,C6,18.5,0.5,29,76.85
233,C5,18.5,0.5,29,76.85
234,B-5,19.0,0.375,29,76.85
235,C6,19.0,0.375,29,76.85
236,C5,19.0,0.375,29,76.85
237,E5,19.0,0.375,29,76.85
238,F2,19.375,0.125,40,76.85
239,C5,19.375,0.125,29,76.85
240,E5,19.375,0.125,29,76.85
241,C3,19.438,0.062,40,76.85
242,G3,19.5,0.25,47,76.85
243,F2,19.5,0.5,40,76.85
244,C3,19.5,0.5,40,76.85
245,B-5,19.5,0.5,32,76.85
246,C6,19.5,0.5,32,76.85
247,C5,19.5,229/500,29,76.85
248,E5,19.5,229/500,29,76.85
249,A3,19.75,0.25,51,76.85
250,B-3,20.0,0.5,53,76.85
251,C6,20.0,0.5,29,76.85
252,C5,20.0,0.5,29,76.85
253,E5,20.0,0.5,29,76.85
254,B-5,20.0,0.5,29,76.85
255,B-3,20.5,0.25,51,76.85
256,B-5,20.5,0.375,30,76.85
257,C6,20.5,0.375,30,76.85
258,E5,20.5,0.375,30,76.85
259,C5,20.5,0.375,30,76.85
260,C4,20.75,0.25,53,76.85
261,E5,20.875,0.125,31,76.85
262,C5,20.875,0.125,31,76.85
263,D4,21.0,0.5,58,76.85
264,C6,21.0,271/500,35,76.85
265,B-5,21.0,271/500,35,76.85
266,E5,21.0,0.5,31,76.85
267,C5,21.0,0.5,31,76.85
268,E4,21.5,0.25,62,76.85
269,C6,21.5,0.5,31,76.85
270,C5,21.5,0.5,31,76.85
271,B-5,21.5,0.5,31,76.85
272,E5,21.5,0.5,31,76.85
273,A4,21.75,0.25,56,76.85
274,G4,22.0,0.25,62,76.85
275,E5,22.0,0.375,31,76.85
276,C5,22.0,0.375,31,76.85
277,C6,22.0,0.375,31,76.85
278,B-5,22.0,0.375,31,76.85
279,E4,22.25,0.25,57,76.85
280,E5,22.375,0.125,31,76.85
281,C5,22.375,0.125,31,76.85
282,D4,22.5,167/1000,58,76.85
283,B-5,22.5,0.5,32,76.85
284,C6,22.5,0.5,32,76.85
285,E5,22.5,0.5,31,76.85
286,C5,22.5,0.5,31,76.85
287,E4,22.667,167/1000,53,76.85
288,D4,22.833,167/1000,49,76.85
289,C4,23.0,1.0,49,76.85
290,B-5,23.0,0.5,29,76.85
291,E5,23.0,0.5,29,76.85
292,C6,23.0,0.5,29,76.85
293,C5,23.0,0.5,29,76.85
294,B-5,23.5,0.375,29,76.85
295,C6,23.5,0.375,29,76.85
296,C5,23.5,0.375,29,76.85
297,E5,23.5,0.375,29,76.85
298,E5,23.875,0.125,29,76.85
299,C5,23.875,0.125,29,76.85
300,C4,24.0,1.312,49,76.85
301,C6,24.0,271/500,32,76.85
302,B-5,24.0,271/500,32,76.85
303,E5,24.0,0.5,29,76.85
304,C5,24.0,0.5,29,76.85
305,E5,24.5,0.5,29,76.85
306,C6,24.5,0.5,29,76.85
307,B-5,24.5,0.5,29,76.85
308,C5,24.5,0.5,29,76.85
309,B-5,25.0,0.375,29,76.85
310,E5,25.0,0.375,29,76.85
311,C6,25.0,0.375,29,76.85
312,C5,25.0,0.375,29,76.85
313,F2,25.312,0.188,35,76.85
314,C3,25.375,0.125,37,76.85
315,C5,25.375,0.125,29,76.85
316,F5,25.375,0.125,29,76.85
317,A3,25.438,0.062,39,76.85
318,A5,25.458,21/500,32,76.85
319,C6,25.458,21/500,32,76.85
320,F4,25.5,1.5,50,76.85
321,F2,25.5,1.5,35,76.85
322,C3,25.5,1.5,37,76.85
323,A3,25.5,1.5,39,76.85
324,C5,25.5,229/500,29,76.85
325,F5,25.5,229/500,29,76.85
326,A5,25.5,229/500,32,76.85
327,C6,25.5,229/500,32,76.85
328,A5,26.0,0.5,29,76.85
329,C6,26.0,0.5,29,76.85
330,F5,26.0,0.5,29,76.85
331,C5,26.0,0.5,29,76.85
332,C6,26.5,0.375,29,76.85
333,C5,26.5,0.375,29,76.85
334,A5,26.5,0.375,29,76.85
335,F5,26.5,0.375,29,76.85
336,C5,26.875,0.125,29,76.85
337,F5,26.875,0.125,29,76.85
338,A5,26.958,21/500,32,76.85
339,C6,26.958,21/500,32,76.85
340,C5,27.0,229/500,29,76.85
341,F5,27.0,229/500,29,76.85
342,A5,27.0,229/500,32,76.85
343,C6,27.0,229/500,32,76.85
344,E4,27.25,0.25,44,76.85
345,D4,27.5,0.25,49,76.85
346,F5,27.5,0.5,29,76.85
347,C5,27.5,0.5,29,76.85
348,C6,27.5,0.5,29,76.85
349,A5,27.5,0.5,29,76.85
350,C4,27.75,0.25,44,76.85
351,D4,28.0,0.25,49,76.85
352,C6,28.0,0.375,29,76.85
353,C5,28.0,0.375,29,76.85
354,A5,28.0,0.375,29,76.85
355,F5,28.0,0.375,29,76.85
356,E4,28.25,0.25,44,76.85
357,C5,28.375,0.125,29,76.85
358,F5,28.375,0.125,29,76.85
359,A5,28.458,21/500,32,76.85
360,C6,28.458,21/500,32,76.85
361,F3,28.5,1.5,41,76.85
362,D4,28.5,167/1000,51,76.85
363,C5,28.5,229/500,29,76.85
364,F5,28.5,229/500,29,76.85
365,A5,28.5,229/500,32,76.85
366,C6,28.5,229/500,32,76.85
367,E4,28.667,167/1000,41,76.85
368,D4,28.833,167/1000,44,76.85
369,C4,29.0,1.0,44,76.85
370,F5,29.0,0.5,29,76.85
371,C6,29.0,0.5,29,76.85
372,A5,29.0,0.5,29,76.85
373,C5,29.0,0.5,29,76.85
374,A5,29.5,0.375,29,76.85
375,F5,29.5,0.375,29,76.85
376,C6,29.5,0.375,29,76.85
377,C5,29.5,0.375,29,76.85
378,C5,29.875,0.125,29,76.85
379,F5,29.875,0.125,29,76.85
380,A5,29.958,21/500,32,76.85
381,C6,29.958,21/500,32,76.85
382,C4,30.0,1.312,44,76.85
383,C5,30.0,229/500,29,76.85
384,F5,30.0,229/500,29,76.85
385,A5,30.0,229/500,32,76.85
386,C6,30.0,229/500,32,76.85
387,A5,30.5,0.5,29,76.85
388,C6,30.5,0.5,29,76.85
389,F5,30.5,0.5,29,76.85
390,C5,30.5,0.5,29,76.85
391,C6,31.0,0.375,29,76.85
392,C5,31.0,0.375,29,76.85
393,F5,31.0,0.375,29,76.85
394,A5,31.0,0.375,29,76.85
395,E-3,31.375,0.125,37,76.85
396,C5,31.375,0.125,29,76.85
397,E-5,31.375,0.125,29,76.85
398,C4,31.438,0.062,38,76.85
399,G#5,31.458,21/500,32,76.85
400,C6,31.458,21/500,32,76.85
401,G#4,31.5,1.5,49,76.85
402,E-3,31.5,1.5,37,76.85
403,C4,31.5,1.5,38,76.85
404,C5,31.5,229/500,29,76.85
405,E-5,31.5,229/500,29,76.85
406,G#5,31.5,229/500,32,76.85
407,C6,31.5,229/500,32,76.85
408,E-5,32.0,0.5,28,76.85
409,C6,32.0,0.5,28,76.85
410,G#5,32.0,0.5,28,76.85
411,C5,32.0,0.5,28,76.85
412,G#5,32.5,0.375,28,76.85
413,E-5,32.5,0.375,28,76.85
414,C6,32.5,0.375,28,76.85
415,C5,32.5,0.375,28,76.85
416,C5,32.875,0.125,29,76.85
417,E-5,32.875,0.125,29,76.85
418,G#5,32.958,21/500,32,76.85
419,C6,32.958,21/500,32,76.85
420,C5,33.0,229/500,29,76.85
421,E-5,33.0,229/500,29,76.85
422,G#5,33.0,229/500,32,76.85
423,C6,33.0,229/500,32,76.85
424,G4,33.25,0.25,44,76.85
425,F4,33.5,0.25,49,76.85
426,G#5,33.5,0.5,28,76.85
427,C6,33.5,0.5,28,76.85
428,E-5,33.5,0.5,28,76.85
429,C5,33.5,0.5,28,76.85
430,E-4,33.75,0.25,44,76.85
431,F4,34.0,0.25,49,76.85
432,C6,34.0,0.375,28,76.85
433,C5,34.0,0.375,28,76.85
434,G#5,34.0,0.375,28,76.85
435,E-5,34.0,0.375,28,76.85
436,G4,34.25,0.25,44,76.85
437,C5,34.375,0.125,29,76.85
438,E-5,34.375,0.125,29,76.85
439,G#5,34.458,21/500,32,76.85
440,C6,34.458,21/500,32,76.85
441,F4,34.5,167/1000,50,76.85
442,C5,34.5,229/500,29,76.85
443,E-5,34.5,229/500,29,76.85
444,G#5,34.5,229/500,32,76.85
445,C6,34.5,229/500,32,76.85
446,G4,34.667,167/1000,44,76.85
447,F4,34.833,167/1000,44,76.85
448,E-4,35.0,1.0,49,76.85
449,E-5,35.0,0.5,28,76.85
450,C5,35.0,0.5,28,76.85
451,C6,35.0,0.5,28,76.85
452,G#5,35.0,0.5,28,76.85
453,C6,35.5,0.375,28,76.85
454,C5,35.5,0.375,28,76.85
455,G#5,35.5,0.375,28,76.85
456,E-5,35.5,0.375,28,76.85
457,C5,35.875,0.125,29,76.85
458,E-5,35.875,0.125,29,76.85
459,G#5,35.958,21/500,32,76.85
460,C6,35.958,21/500,32,76.85
461,E-4,36.0,1.5,49,76.85
462,C5,36.0,229/500,29,76.85
463,E-5,36.0,229/500,29,76.85
464,G#5,36.0,229/500,32,76.85
465,C6,36.0,229/500,32,76.85
466,E-5,36.5,0.5,28,76.85
467,C6,36.5,0.5,28,76.85
468,G#5,36.5,0.5,28,76.85
469,C5,36.5,0.5,28,76.85
470,G#5,37.0,0.5,28,76.85
471,E-5,37.0,0.5,28,76.85
472,C6,37.0,0.5,28,76.85
473,C5,37.0,0.5,28,76.85
474,C3,37.5,0.5,40,76.85
475,G3,37.5,0.25,47,76.85
476,E5,37.5,0.5,31,76.85
477,C5,37.5,0.5,31,76.85
478,C6,37.5,0.5,31,76.85
479,B-5,37.5,0.5,31,76.85
480,A3,37.75,0.25,51,76.85
481,B-3,38.0,0.5,53,76.85
482,B-5,38.0,0.5,29,76.85
483,C6,38.0,0.5,29,76.85
484,E5,38.0,0.5,29,76.85
485,C5,38.0,0.5,29,76.85
486,C4,38.5,0.25,55,76.85
487,C6,38.5,0.5,29,76.85
488,C5,38.5,0.5,29,76.85
489,E5,38.5,0.5,29,76.85
490,B-5,38.5,0.5,29,76.85
491,D4,38.75,0.25,57,76.85
492,G4,39.0,1.0,61,76.85
493,E5,39.0,0.5,31,76.85
494,B-5,39.0,0.5,31,76.85
495,C5,39.0,0.5,31,76.85
496,C6,39.0,0.5,31,76.85
497,B-5,39.5,0.5,30,76.85
498,C6,39.5,0.5,30,76.85
499,C5,39.5,0.5,30,76.85
500,E5,39.5,0.5,30,76.85
501,E4,40.0,0.5,61,76.85
502,B-5,40.0,0.5,32,76.85
503,C6,40.0,0.5,32,76.85
504,E5,40.0,0.5,32,76.85
505,C5,40.0,0.5,32,76.85
506,D4,40.5,167/1000,57,76.85
507,F3,40.5,1.5,41,76.85
508,C5,40.5,0.5,36,76.85
509,C6,40.5,0.5,36,76.85
510,F5,40.5,0.5,36,76.85
511,A5,40.5,0.5,36,76.85
512,E4,40.667,167/1000,55,76.85
513,D4,40.833,167/1000,51,76.85
514,C4,41.0,1.0,51,76.85
515,C6,41.0,0.5,32,76.85
516,C5,41.0,0.5,32,76.85
517,A5,41.0,0.5,32,76.85
518,F5,41.0,0.5,32,76.85
519,F5,41.5,0.5,32,76.85
520,C5,41.5,0.5,32,76.85
521,C6,41.5,0.5,32,76.85
522,A5,41.5,0.5,32,76.85
523,D3,42.0,1.5,66,76.85
524,F#5,42.0,0.5,35,76.85
525,C5,42.0,0.5,35,76.85
526,D5,42.0,0.5,35,76.85
527,D6,42.0,0.5,35,76.85
528,A5,42.0,0.5,35,76.85
529,A3,42.5,0.5,61,76.85
530,D6,42.5,0.5,32,76.85
531,A5,42.5,0.5,32,76.85
532,D5,42.5,0.5,32,76.85
533,F#5,42.5,0.5,32,76.85
534,C5,42.5,0.5,32,76.85
535,D4,43.0,0.5,61,76.85
536,C5,43.0,0.5,32,76.85
537,F#5,43.0,0.5,32,76.85
538,D5,43.0,0.5,32,76.85
539,D6,43.0,0.5,32,76.85
540,A5,43.0,0.5,32,76.85
541,G5,43.5,0.5,36,76.85
542,B-4,43.5,0.5,36,76.85
543,D5,43.5,0.5,36,76.85
544,B-5,43.5,0.5,36,76.85
545,G3,43.5,0.25,53,76.85
546,D4,43.5,0.25,53,76.85
547,E4,43.75,0.25,61,76.85
548,F4,44.0,0.5,64,76.85
549,G5,44.0,0.5,32,76.85
550,D5,44.0,0.5,32,76.85
551,B-5,44.0,0.5,32,76.85
552,B-4,44.0,0.5,32,76.85
553,D4,44.5,0.25,62,76.85
554,G5,44.5,0.5,32,76.85
555,B-5,44.5,0.5,32,76.85
556,B-4,44.5,0.5,32,76.85
557,D5,44.5,0.5,32,76.85
558,G3,44.75,167/1000,56,76.85
559,C3,44.917,83/1000,49,76.85
560,G3,44.917,83/1000,49,76.85
561,C5,45.0,0.5,36,76.85
562,B-4,45.0,0.5,36,76.85
563,E5,45.0,0.5,36,76.85
564,B-5,45.0,0.5,36,76.85
565,D4,45.083,167/1000,59,76.85
566,C3,45.083,83/1000,49,76.85
567,G3,45.083,83/1000,49,76.85
568,E4,45.25,167/1000,51,76.85
569,D4,45.417,167/1000,53,76.85
570,B-5,45.5,0.5,32,76.85
571,B-4,45.5,0.5,32,76.85
572,C5,45.5,0.5,32,76.85
573,E5,45.5,0.5,32,76.85
574,C4,45.583,0.5,50,76.85
575,C5,46.0,0.5,32,76.85
576,B-4,46.0,0.5,32,76.85
577,E5,46.0,0.5,32,76.85
578,B-5,46.0,0.5,32,76.85
579,C3,46.083,0.5,44,76.85
580,F5,46.5,0.5,32,76.85
581,A4,46.5,0.5,32,76.85
582,C5,46.5,0.5,32,76.85
583,A5,46.5,0.5,32,76.85
584,F2,46.5,83/1000,41,76.85
585,C3,46.5,83/1000,41,76.85
586,A3,46.583,0.25,51,76.85
587,F2,46.583,167/1000,41,76.85
588,C3,46.583,167/1000,41,76.85
589,G3,46.833,0.25,49,76.85
590,F5,47.0,0.5,27,76.85
591,C5,47.0,0.5,27,76.85
592,A5,47.0,0.5,27,76.85
593,A4,47.0,0.5,27,76.85
594,F3,47.083,1.0,45,76.85
595,F5,47.5,0.5,27,76.85
596,A5,47.5,0.5,27,76.85
597,A4,47.5,0.5,27,76.85
598,C5,47.5,0.5,27,76.85
599,C5,48.0,0.5,28,76.85
600,A4,48.0,0.5,28,76.85
601,F5,48.0,0.5,28,76.85
602,A5,48.0,0.5,28,76.85
603,F3,48.083,1.5,45,76.85
604,A5,48.5,0.5,26,76.85
605,A4,48.5,0.5,26,76.85
606,F5,48.5,0.5,26,76.85
607,C5,48.5,0.5,26,76.85
608,A5,49.0,0.5,26,76.85
609,A4,49.0,0.5,26,76.85
610,F5,49.0,0.5,26,76.85
611,C5,49.0,0.5,26,76.85
612,F5,49.5,0.5,29,76.85
613,A5,49.5,0.5,29,76.85
614,A4,49.5,0.5,29,76.85
615,C#5,49.5,0.5,29,76.85
616,F2,49.5,83/1000,38,76.85
617,C#3,49.5,83/1000,38,76.85
618,A3,49.583,0.25,46,76.85
619,F2,49.583,167/1000,38,76.85
620,C#3,49.583,167/1000,38,76.85
621,G3,49.833,0.25,44,76.85
622,A5,50.0,0.5,23,76.85
623,A4,50.0,0.5,23,76.85
624,F5,50.0,0.5,23,76.85
625,C#5,50.0,0.5,23,76.85
626,F3,50.083,1.0,39,76.85
627,C#5,50.5,0.5,23,76.85
628,A4,50.5,0.5,23,76.85
629,A5,50.5,0.5,23,76.85
630,F5,50.5,0.5,23,76.85
631,F5,51.0,0.5,26,76.85
632,A4,51.0,0.5,26,76.85
633,C#5,51.0,0.5,26,76.85
634,A5,51.0,0.5,26,76.85
635,F3,51.083,1.5,39,76.85
636,F5,51.5,0.5,23,76.85
637,C#5,51.5,0.5,23,76.85
638,A5,51.5,0.5,23,76.85
639,A4,51.5,0.5,23,76.85
640,F5,52.0,0.5,23,76.85
641,A5,52.0,0.5,23,76.85
642,A4,52.0,0.5,23,76.85
643,C#5,52.0,0.5,23,76.85
644,C5,52.5,0.5,31,76.85
645,A4,52.5,0.5,31,76.85
646,F5,52.5,0.5,31,76.85
647,A5,52.5,0.5,31,76.85
648,F2,52.5,83/1000,40,76.85
649,C3,52.5,83/1000,40,76.85
650,A3,52.583,0.25,49,76.85
651,F2,52.583,167/1000,40,76.85
652,C3,52.583,167/1000,40,76.85
653,G3,52.833,0.25,47,76.85
654,A5,53.0,0.5,26,76.85
655,A4,53.0,0.5,26,76.85
656,C5,53.0,0.5,26,76.85
657,F5,53.0,0.5,26,76.85
658,F3,53.083,1.0,42,76.85
659,F5,53.5,0.5,26,76.85
660,C5,53.5,0.5,26,76.85
661,A5,53.5,0.5,26,76.85
662,A4,53.5,0.5,26,76.85
663,C5,54.0,0.5,28,76.85
664,A4,54.0,0.5,28,76.85
665,A5,54.0,0.5,28,76.85
666,F5,54.0,0.5,28,76.85
667,F3,54.083,1.5,42,76.85
668,F5,54.5,0.5,26,76.85
669,A5,54.5,0.5,26,76.85
670,C5,54.5,0.5,26,76.85
671,A4,54.5,0.5,26,76.85
672,A5,55.0,0.5,26,76.85
673,A4,55.0,0.5,26,76.85
674,F5,55.0,0.5,26,76.85
675,C5,55.0,0.5,26,76.85
676,A4,55.5,0.5,29,76.85
677,A5,55.5,0.5,29,76.85
678,C#5,55.5,0.5,29,76.85
679,F5,55.5,0.5,29,76.85
680,F2,55.5,83/1000,38,76.85
681,C#3,55.5,83/1000,38,76.85
682,A3,55.583,0.25,46,76.85
683,F2,55.583,167/1000,38,76.85
684,C#3,55.583,167/1000,38,76.85
685,G3,55.833,0.25,44,76.85
686,C#5,56.0,0.5,23,76.85
687,A4,56.0,0.5,23,76.85
688,A5,56.0,0.5,23,76.85
689,F5,56.0,0.5,23,76.85
690,F3,56.083,1.0,39,76.85
691,C#5,56.5,0.5,23,76.85
692,A5,56.5,0.5,23,76.85
693,F5,56.5,0.5,23,76.85
694,A4,56.5,0.5,23,76.85
695,F5,57.0,0.5,26,76.85
696,A5,57.0,0.5,26,76.85
697,C#5,57.0,0.5,26,76.85
698,A4,57.0,0.5,26,76.85
699,F3,57.083,1.5,39,76.85
700,C#5,57.5,0.5,23,76.85
701,A5,57.5,0.5,23,76.85
702,F5,57.5,0.5,23,76.85
703,A4,57.5,0.5,23,76.85
704,F5,58.0,0.5,23,76.85
705,C#5,58.0,0.5,23,76.85
706,A5,58.0,0.5,23,76.85
707,A4,58.0,0.5,23,76.85
708,C5,58.5,0.5,29,76.85
709,A4,58.5,0.5,29,76.85
710,A5,58.5,0.5,29,76.85
711,F5,58.5,0.5,29,76.85
712,F2,58.5,83/1000,33,76.85
713,C3,58.5,83/1000,33,76.85
714,A3,58.583,0.25,39,76.85
715,F2,58.583,167/1000,33,76.85
716,C3,58.583,167/1000,33,76.85
717,G3,58.833,0.25,37,76.85
718,F5,59.0,0.5,27,76.85
719,A5,59.0,0.5,27,76.85
720,C5,59.0,0.5,27,76.85
721,A4,59.0,0.5,27,76.85
722,F3,59.083,1.0,35,76.85
723,A5,59.5,0.5,27,76.85
724,A4,59.5,0.5,27,76.85
725,F5,59.5,0.5,27,76.85
726,C5,59.5,0.5,27,76.85
727,A4,60.0,0.5,26,76.85
728,A5,60.0,0.5,26,76.85
729,C5,60.0,0.5,26,76.85
730,F5,60.0,0.5,26,76.85
731,F3,60.083,0.5,35,76.85
732,C3,61.083,0.5,34,76.85
733,F2,61.583,0.5,40,76.85
734,C3,62.083,0.5,36,76.85
735,C4,62.583,0.5,36,76.85
736,G#3,62.583,0.5,36,76.85
737,C#4,63.083,0.5,38,76.85
738,B-3,63.083,0.5,38,76.85
739,G4,63.583,1.0,33,76.85
740,F2,64.583,0.5,36,76.85
741,C3,65.083,0.5,36,76.85
742,C4,65.583,0.5,36,76.85
743,G#3,65.583,0.5,36,76.85
744,C#4,66.083,0.5,38,76.85
745,B-3,66.083,0.5,38,76.85
746,G4,66.583,1.0,34,76.85
747,F5,67.5,1.5,57,76.85
748,F2,67.583,0.5,36,76.85
749,C3,68.083,0.5,36,76.85
750,C4,68.583,0.5,34,76.85
751,G#3,68.583,0.5,34,76.85
752,E5,69.0,1.0,55,76.85
753,C4,69.083,0.5,36,76.85
754,B-3,69.083,0.5,36,76.85
755,G4,69.583,1.0,29,76.85
756,C5,70.0,0.5,52,76.85
757,C6,70.51,149/100,58,76.85
758,F2,70.583,0.5,36,76.85
759,C3,71.083,0.5,34,76.85
760,C4,71.583,0.5,31,76.85
761,G#3,71.583,0.5,31,76.85
762,C4,72.083,0.5,36,76.85
763,B-3,72.083,0.5,36,76.85
764,G5,72.25,0.25,53,76.85
765,G#5,72.5,0.25,56,76.85
766,E4,72.583,1.0,29,76.85
767,B-5,72.75,0.125,50,76.85
768,G#5,72.875,0.062,41,76.85
769,B-5,72.938,0.062,41,76.85
770,G#5,73.0,0.25,49,76.85
771,G5,73.25,0.25,50,76.85
772,C6,73.5,0.25,53,76.85
773,F2,73.583,0.5,36,76.85
774,F5,73.75,0.25,53,76.85
775,G5,74.0,0.25,56,76.85
776,C3,74.083,0.5,36,76.85
777,G#5,74.25,0.125,50,76.85
778,G5,74.375,0.062,44,76.85
779,G#5,74.438,0.062,41,76.85
780,G5,74.5,0.25,52,76.85
781,C4,74.583,0.5,36,76.85
782,G#3,74.583,0.5,36,76.85
783,F5,74.75,0.25,50,76.85
784,E5,75.0,0.25,53,76.85
785,C4,75.083,0.5,36,76.85
786,B-3,75.083,0.5,36,76.85
787,C5,75.25,0.25,53,76.85
788,B4,75.5,0.25,56,76.85
789,G4,75.583,1.0,29,76.85
790,C5,75.75,0.25,50,76.85
791,E-5,76.0,0.25,52,76.85
792,C#5,76.25,0.25,50,76.85
793,C5,76.5,0.25,49,76.85
794,F2,76.583,0.5,36,76.85
795,F4,76.75,0.25,49,76.85
796,G4,77.0,0.25,51,76.85
797,C3,77.083,0.5,36,76.85
798,G#4,77.25,0.125,46,76.85
799,G4,77.375,0.062,40,76.85
800,G#4,77.438,0.062,38,76.85
801,G4,77.5,0.25,48,76.85
802,C4,77.583,0.5,34,76.85
803,G#3,77.583,0.5,34,76.85
804,F4,77.75,0.25,46,76.85
805,E4,78.0,0.25,49,76.85
806,C4,78.083,0.5,36,76.85
807,B-3,78.083,0.5,36,76.85
808,C#4,78.25,0.25,49,76.85
809,C4,78.5,0.25,49,76.85
810,G4,78.583,0.875,29,76.85
811,B-3,78.75,0.25,39,76.85
812,G#3,79.0,0.25,44,76.85
813,G3,79.25,0.25,38,76.85
814,F3,79.458,0.125,36,76.85
815,F5,79.5,1.5,50,76.85
816,F2,79.583,0.5,31,76.85
817,F3,79.583,21/500,36,76.85
818,C3,80.083,0.5,31,76.85
819,C4,80.583,0.5,29,76.85
820,G#3,80.583,0.5,29,76.85
821,E5,81.0,1.0,49,76.85
822,C4,81.083,0.5,32,76.85
823,B-3,81.083,0.5,32,76.85
824,G4,81.583,1.0,26,76.85
825,C5,82.0,0.5,47,76.85
826,C6,82.5,1.5,51,76.85
827,F2,82.583,0.5,31,76.85
828,C3,83.083,0.5,29,76.85
829,C4,83.583,0.5,29,76.85
830,A3,83.583,0.5,29,76.85
831,C4,84.083,0.5,32,76.85
832,B-3,84.083,0.5,32,76.85
833,G5,84.25,0.25,48,76.85
834,A5,84.5,0.25,49,76.85
835,E4,84.583,1.0,26,76.85
836,B-5,84.75,0.125,45,76.85
837,A5,84.875,0.062,37,76.85
838,B-5,84.938,0.062,37,76.85
839,A5,85.0,0.25,44,76.85
840,G5,85.25,0.25,45,76.85
841,C6,85.5,0.25,48,76.85
842,F2,85.583,0.5,31,76.85
843,F5,85.75,0.25,48,76.85
844,G5,86.0,0.25,49,76.85
845,C3,86.083,0.5,31,76.85
846,A5,86.25,0.125,45,76.85
847,G5,86.375,0.062,39,76.85
848,A5,86.438,0.062,37,76.85
849,G5,86.5,0.25,47,76.85
850,C4,86.583,0.5,30,76.85
851,A3,86.583,0.5,30,76.85
852,F5,86.75,0.25,45,76.85
853,B-5,87.0,1.0,48,76.85
854,E5,87.0,0.25,48,76.85
855,C4,87.083,0.5,32,76.85
856,B-3,87.083,0.5,32,76.85
857,D5,87.25,0.25,48,76.85
858,E5,87.5,0.25,49,76.85
859,G4,87.583,1.0,26,76.85
860,C5,87.75,0.25,45,76.85
861,A5,88.0,0.5,45,76.85
862,B-4,88.0,0.25,47,76.85
863,C5,88.25,0.25,45,76.85
864,A4,88.5,1.5,44,76.85
865,F5,88.5,1.5,44,76.85
866,F2,88.583,0.5,31,76.85
867,C3,89.083,0.5,31,76.85
868,C4,89.583,0.5,29,76.85
869,A3,89.583,0.5,29,76.85
870,F4,90.083,0.5,33,76.85
871,A3,90.083,1.5,29,76.85
872,A4,90.583,1.0,26,76.85
873,A4,91.5,1.5,44,76.85
874,F5,91.5,1.5,44,76.85
875,C#2,91.583,0.5,36,76.85
876,G#2,92.083,0.5,36,76.85
877,F3,92.583,0.5,34,76.85
878,F4,93.0,1.5,57,76.85
879,A3,93.083,0.5,36,76.85
880,C#3,93.083,0.5,36,76.85
881,F#3,93.583,1.0,29,76.85
882,E-4,93.583,1.0,29,76.85
883,E-4,94.5,62/125,55,76.85
884,C#2,94.583,0.5,36,76.85
885,G#2,95.083,0.5,34,76.85
886,A3,95.5,0.375,52,76.85
887,F3,95.583,0.5,31,76.85
888,G#3,95.875,0.125,51,76.85
889,G#4,96.0,1.5,58,76.85
890,G#3,96.0,21/500,51,76.85
891,A3,96.083,0.5,36,76.85
892,C#3,96.083,0.5,36,76.85
893,F#3,96.583,1.0,29,76.85
894,C#4,96.583,1.0,29,76.85
895,C#2,97.583,0.5,36,76.85
896,F#4,97.75,0.25,53,76.85
897,G#4,98.0,0.25,53,76.85
898,G#2,98.083,0.5,34,76.85
899,A4,98.25,0.125,50,76.85
900,G#4,98.375,0.062,41,76.85
901,A4,98.438,0.062,41,76.85
902,G#4,98.5,0.25,49,76.85
903,F3,98.583,0.5,34,76.85
904,F#4,98.75,0.25,50,76.85
905,F4,99.0,0.25,53,76.85
906,A3,99.083,0.5,36,76.85
907,C#3,99.083,0.5,36,76.85
908,F#4,99.25,0.25,53,76.85
909,G#4,99.5,0.25,56,76.85
910,F#3,99.583,1.0,29,76.85
911,F#4,99.75,0.25,50,76.85
912,F4,100.0,0.25,52,76.85
913,G#4,100.25,0.125,50,76.85
914,F#4,100.375,0.062,46,76.85
915,G#4,100.438,0.062,46,76.85
916,F#4,100.5,0.25,55,76.85
917,C#2,100.583,0.5,36,76.85
918,F4,100.75,0.25,51,76.85
919,E-4,101.0,0.75,55,76.85
920,G#2,101.083,0.5,36,76.85
921,F4,101.25,0.25,50,76.85
922,F#4,101.5,0.25,52,76.85
923,F3,101.583,0.5,34,76.85
924,E-4,101.75,0.25,50,76.85
925,F4,102.0,0.75,49,76.85
926,A3,102.083,0.5,36,76.85
927,C#3,102.083,0.5,36,76.85
928,F#3,102.583,1.0,29,76.85
929,E-4,102.583,1.0,29,76.85
930,G#3,102.75,0.25,46,76.85
931,C#4,103.0,0.5,48,76.85
932,C#2,103.583,0.5,36,76.85
933,B3,103.75,0.25,41,76.85
934,A3,104.0,0.25,49,76.85
935,G#2,104.083,0.5,36,76.85
936,G#3,104.25,0.25,40,76.85
937,A3,104.5,0.25,47,76.85
938,F3,104.583,0.5,34,76.85
939,B3,104.75,0.125,40,76.85
940,G#3,104.875,0.125,53,76.85
941,F4,105.0,1.5,57,76.85
942,G#3,105.0,21/500,53,76.85
943,A3,105.083,0.5,36,76.85
944,C#3,105.083,0.5,36,76.85
945,F#3,105.583,1.0,29,76.85
946,E-4,105.583,1.0,29,76.85
947,E-4,106.5,62/125,55,76.85
948,C#2,106.583,0.5,36,76.85
949,G#2,107.083,0.5,34,76.85
950,A3,107.5,0.375,52,76.85
951,F3,107.583,0.5,31,76.85
952,G#3,107.875,0.125,51,76.85
953,G#4,108.0,1.5,58,76.85
954,G#3,108.0,21/500,51,76.85
955,A3,108.083,0.5,36,76.85
956,C#3,108.083,0.5,36,76.85
957,F#3,108.583,1.0,29,76.85
958,E-4,108.583,1.0,29,76.85
959,C#2,109.583,0.5,45,76.85
960,F#4,109.75,0.25,53,76.85
961,G#4,110.0,0.25,53,76.85
962,G#2,110.083,0.5,39,76.85
963,A4,110.25,0.25,56,76.85
964,B4,110.5,0.25,59,76.85
965,F3,110.583,0.5,38,76.85
966,C#5,110.75,0.125,61,76.85
967,B4,110.875,0.062,53,76.85
968,C#5,110.938,0.062,53,76.85
969,B4,111.0,0.25,62,76.85
970,A3,111.083,0.5,44,76.85
971,A4,111.25,0.25,57,76.85
972,G#4,111.5,0.25,62,76.85
973,F#3,111.583,1.0,29,76.85
974,F#4,111.75,0.25,58,76.85
975,G#4,112.0,0.25,60,76.85
976,A4,112.25,0.125,56,76.85
977,F#4,112.375,0.062,51,76.85
978,G#4,112.438,0.062,52,76.85
979,C#2,112.458,0.125,33,76.85
980,F#4,112.5,0.25,58,76.85
981,C#2,112.583,1.5,33,76.85
982,F3,112.583,1.5,42,76.85
983,C#4,112.583,1.5,42,76.85
984,F4,112.75,0.25,52,76.85
985,E-4,113.0,1.0,51,76.85
986,F4,113.25,0.25,44,76.85
987,F#4,113.5,0.25,49,76.85
988,G#4,113.75,0.25,44,76.85
989,C#5,114.0,0.5,27,76.85
990,G#4,114.0,0.5,27,76.85
991,F4,114.0,0.5,27,76.85
992,F5,114.0,0.5,27,76.85
993,C4,114.333,0.25,41,76.85
994,F5,114.5,0.5,25,76.85
995,C#5,114.5,0.5,25,76.85
996,G#4,114.5,0.5,25,76.85
997,F4,114.5,0.5,25,76.85
998,B-3,114.583,0.25,47,76.85
999,G#3,114.833,0.25,41,76.85
1000,F5,115.0,0.5,25,76.85
1001,C#5,115.0,0.5,25,76.85
1002,G#4,115.0,0.5,25,76.85
1003,F4,115.0,0.5,25,76.85
1004,B-3,115.083,0.25,47,76.85
1005,C4,115.333,0.25,41,76.85
1006,C#5,115.5,0.5,27,76.85
1007,G#4,115.5,0.5,27,76.85
1008,F4,115.5,0.5,27,76.85
1009,F5,115.5,0.5,27,76.85
1010,B-3,115.583,167/1000,42,76.85
1011,C4,115.75,167/1000,39,76.85
1012,B-3,115.917,167/1000,39,76.85
1013,F5,116.0,0.5,25,76.85
1014,C#5,116.0,0.5,25,76.85
1015,G#4,116.0,0.5,25,76.85
1016,F4,116.0,0.5,25,76.85
1017,G#3,116.083,1.0,44,76.85
1018,F5,116.5,0.5,25,76.85
1019,C#5,116.5,0.5,25,76.85
1020,G#4,116.5,0.5,25,76.85
1021,F4,116.5,0.5,25,76.85
1022,C#5,117.0,0.5,27,76.85
1023,G#4,117.0,0.5,27,76.85
1024,F4,117.0,0.5,27,76.85
1025,F5,117.0,0.5,27,76.85
1026,G#3,117.083,1.375,44,76.85
1027,F5,117.5,0.5,25,76.85
1028,C#5,117.5,0.5,25,76.85
1029,G#4,117.5,0.5,25,76.85
1030,F4,117.5,0.5,25,76.85
1031,F5,118.0,0.5,25,76.85
1032,C#5,118.0,0.5,25,76.85
1033,G#4,118.0,0.5,25,76.85
1034,F4,118.0,0.5,25,76.85
1035,C#2,118.458,0.125,33,76.85
1036,C#5,118.5,0.5,27,76.85
1037,G#4,118.5,0.5,27,76.85
1038,F4,118.5,0.5,27,76.85
1039,F5,118.5,0.5,27,76.85
1040,C#2,118.583,1.5,33,76.85
1041,F3,118.583,1.5,42,76.85
1042,C#4,118.583,1.5,42,76.85
1043,F5,119.0,0.5,25,76.85
1044,C#5,119.0,0.5,25,76.85
1045,G#4,119.0,0.5,25,76.85
1046,F4,119.0,0.5,25,76.85
1047,F5,119.5,0.5,25,76.85
1048,C#5,119.5,0.5,25,76.85
1049,G#4,119.5,0.5,25,76.85
1050,F4,119.5,0.5,25,76.85
1051,C#5,120.0,0.5,27,76.85
1052,G#4,120.0,0.5,27,76.85
1053,F4,120.0,0.5,27,76.85
1054,F5,120.0,0.5,27,76.85
1055,C4,120.333,0.25,41,76.85
1056,F5,120.5,0.5,25,76.85
1057,C#5,120.5,0.5,25,76.85
1058,G#4,120.5,0.5,25,76.85
1059,F4,120.5,0.5,25,76.85
1060,B-3,120.583,0.25,47,76.85
1061,G#3,120.833,0.25,41,76.85
1062,F5,121.0,0.5,25,76.85
1063,C#5,121.0,0.5,25,76.85
1064,G#4,121.0,0.5,25,76.85
1065,F4,121.0,0.5,25,76.85
1066,B-3,121.083,0.25,47,76.85
1067,C4,121.333,0.25,41,76.85
1068,C#5,121.5,0.5,27,76.85
1069,G#4,121.5,0.5,27,76.85
1070,F4,121.5,0.5,27,76.85
1071,F5,121.5,0.5,27,76.85
1072,B-3,121.583,167/1000,42,76.85
1073,C4,121.75,167/1000,39,76.85
1074,B-3,121.917,167/1000,39,76.85
1075,F5,122.0,0.5,25,76.85
1076,C#5,122.0,0.5,25,76.85
1077,G#4,122.0,0.5,25,76.85
1078,F4,122.0,0.5,25,76.85
1079,G#3,122.083,1.0,44,76.85
1080,F5,122.5,0.5,25,76.85
1081,C#5,122.5,0.5,25,76.85
1082,G#4,122.5,0.5,25,76.85
1083,F4,122.5,0.5,25,76.85
1084,C#5,123.0,0.5,27,76.85
1085,G#4,123.0,0.5,27,76.85
1086,F4,123.0,0.5,27,76.85
1087,F5,123.0,0.5,27,76.85
1088,G#3,123.083,1.375,44,76.85
1089,F5,123.5,0.5,25,76.85
1090,C#5,123.5,0.5,25,76.85
1091,G#4,123.5,0.5,25,76.85
1092,F4,123.5,0.5,25,76.85
1093,F5,124.0,0.5,25,76.85
1094,C#5,124.0,0.5,25,76.85
1095,G#4,124.0,0.5,25,76.85
1096,F4,124.0,0.5,25,76.85
1097,B-2,124.458,0.125,42,76.85
1098,C#5,124.5,0.5,27,76.85
1099,G#4,124.5,0.5,27,76.85
1100,F4,124.5,0.5,27,76.85
1101,F5,124.5,0.5,27,76.85
1102,G3,124.521,0.062,42,76.85
1103,C#4,124.583,167/1000,42,76.85
1104,B-2,124.583,1.5,42,76.85
1105,G3,124.583,167/1000,42,76.85
1106,E-4,124.75,167/1000,39,76.85
1107,C#4,124.917,167/1000,39,76.85
1108,F5,125.0,0.5,25,76.85
1109,C#5,125.0,0.5,25,76.85
1110,G#4,125.0,0.5,25,76.85
1111,F4,125.0,0.5,25,76.85
1112,G3,125.083,1.0,44,76.85
1113,F5,125.5,0.5,25,76.85
1114,C#5,125.5,0.5,25,76.85
1115,G#4,125.5,0.5,25,76.85
1116,F4,125.5,0.5,25,76.85
1117,C#5,126.0,0.5,27,76.85
1118,G4,126.0,0.5,27,76.85
1119,F4,126.0,0.5,27,76.85
1120,F5,126.0,0.5,27,76.85
1121,G3,126.083,1.5,44,76.85
1122,F5,126.5,0.5,25,76.85
1123,C#5,126.5,0.5,25,76.85
1124,G4,126.5,0.5,25,76.85
1125,F4,126.5,0.5,25,76.85
1126,F5,127.0,0.5,25,76.85
1127,C#5,127.0,0.5,25,76.85
1128,G4,127.0,0.5,25,76.85
1129,F4,127.0,0.5,25,76.85
1130,C#5,127.5,0.5,27,76.85
1131,G4,127.5,0.5,27,76.85
1132,F4,127.5,0.5,27,76.85
1133,F5,127.5,0.5,27,76.85
1134,C3,127.583,1.5,42,76.85
1135,B-3,127.583,167/1000,42,76.85
1136,C4,127.75,167/1000,39,76.85
1137,B-3,127.917,167/1000,39,76.85
1138,F5,128.0,0.5,25,76.85
1139,C#5,128.0,0.5,25,76.85
1140,G4,128.0,0.5,25,76.85
1141,F4,128.0,0.5,25,76.85
1142,G3,128.083,1.0,44,76.85
1143,F5,128.5,0.5,25,76.85
1144,C#5,128.5,0.5,25,76.85
1145,G4,128.5,0.5,25,76.85
1146,F4,128.5,0.5,25,76.85
1147,C#5,129.0,0.5,27,76.85
1148,G4,129.0,0.5,27,76.85
1149,F4,129.0,0.5,27,76.85
1150,F5,129.0,0.5,27,76.85
1151,C4,129.083,1.5,44,76.85
1152,F5,129.5,0.5,25,76.85
1153,C#5,129.5,0.5,25,76.85
1154,G4,129.5,0.5,25,76.85
1155,F4,129.5,0.5,25,76.85
1156,F5,130.0,0.5,25,76.85
1157,C#5,130.0,0.5,25,76.85
1158,G4,130.0,0.5,25,76.85
1159,F4,130.0,0.5,25,76.85
1160,C#5,130.5,0.5,27,76.85
1161,G4,130.5,0.5,27,76.85
1162,B-4,130.5,0.5,27,76.85
1163,E5,130.5,0.5,27,76.85
1164,F2,130.583,0.5,36,76.85
1165,E5,131.0,0.5,25,76.85
1166,C#5,131.0,0.5,25,76.85
1167,G4,131.0,0.5,25,76.85
1168,B-4,131.0,0.5,25,76.85
1169,C3,131.083,0.5,36,76.85
1170,E5,131.5,0.5,25,76.85
1171,C#5,131.5,0.5,25,76.85
1172,G4,131.5,0.5,25,76.85
1173,B-4,131.5,0.5,25,76.85
1174,C4,131.583,0.5,34,76.85
1175,G#3,131.583,0.5,34,76.85
1176,F5,132.0,1.5,57,76.85
1177,C4,132.083,0.5,36,76.85
1178,B-3,132.083,0.5,36,76.85
1179,G4,132.583,1.0,29,76.85
1180,E5,133.5,1.0,55,76.85
1181,F2,133.583,0.5,36,76.85
1182,C3,134.083,0.5,34,76.85
1183,C5,134.5,0.5,52,76.85
1184,C4,134.583,0.5,31,76.85
1185,G#3,134.583,0.5,31,76.85
1186,C6,135.01,149/100,58,76.85
1187,C4,135.083,0.5,36,76.85
1188,B-3,135.083,0.5,36,76.85
1189,E4,135.583,1.0,29,76.85
1190,F2,136.583,0.5,36,76.85
1191,G5,136.75,0.25,53,76.85
1192,G#5,137.0,0.25,56,76.85
1193,C3,137.083,0.5,36,76.85
1194,B-5,137.25,0.125,50,76.85
1195,G#5,137.375,0.062,41,76.85
1196,B-5,137.438,0.062,41,76.85
1197,G#5,137.5,0.25,49,76.85
1198,C4,137.583,0.5,36,76.85
1199,G#3,137.583,0.5,36,76.85
1200,G5,137.75,0.25,50,76.85
1201,C6,138.0,0.25,53,76.85
1202,C4,138.083,0.5,36,76.85
1203,B-3,138.083,0.5,36,76.85
1204,F5,138.25,0.25,53,76.85
1205,G5,138.5,0.25,56,76.85
1206,G4,138.583,1.0,29,76.85
1207,G#5,138.75,0.125,50,76.85
1208,G5,138.875,0.062,44,76.85
1209,G#5,138.938,0.062,41,76.85
1210,G5,139.0,0.25,52,76.85
1211,F5,139.25,0.25,50,76.85
1212,E5,139.5,0.25,53,76.85
1213,F2,139.583,0.5,36,76.85
1214,C5,139.75,0.25,53,76.85
1215,B4,140.0,0.25,56,76.85
1216,C3,140.083,0.5,36,76.85
1217,C5,140.25,0.25,50,76.85
1218,E-5,140.5,0.25,52,76.85
1219,C4,140.583,0.5,34,76.85
1220,G#3,140.583,0.5,34,76.85
1221,C#5,140.75,0.25,50,76.85
1222,C5,141.0,1.5,49,76.85
1223,C4,141.083,0.5,36,76.85
1224,B-3,141.083,0.5,36,76.85
1225,F4,141.25,0.25,49,76.85
1226,G4,141.5,0.25,51,76.85
1227,G4,141.583,0.875,29,76.85
1228,G#4,141.75,0.125,46,76.85
1229,G4,141.875,0.062,40,76.85
1230,G#4,141.938,0.062,38,76.85
1231,G4,142.0,0.25,48,76.85
1232,F4,142.25,0.25,46,76.85
1233,F3,142.458,0.125,36,76.85
1234,E4,142.5,0.25,49,76.85
1235,C5,142.5,1.5,49,76.85
1236,F2,142.583,0.5,31,76.85
1237,F3,142.583,21/500,36,76.85
1238,C#4,142.75,0.25,49,76.85
1239,C4,143.0,0.25,49,76.85
1240,C3,143.083,0.5,31,76.85
1241,B-3,143.25,0.25,39,76.85
1242,G#3,143.5,0.25,44,76.85
1243,C4,143.583,0.5,29,76.85
1244,G#3,143.583,0.5,29,76.85
1245,G3,143.75,0.25,38,76.85
1246,F5,144.0,1.5,50,76.85
1247,C4,144.083,0.5,32,76.85
1248,B-3,144.083,0.5,32,76.85
1249,G4,144.583,1.0,26,76.85
1250,E5,145.5,1.0,49,76.85
1251,F2,145.583,0.5,31,76.85
1252,C3,146.083,0.5,29,76.85
1253,C5,146.5,0.5,47,76.85
1254,C4,146.583,0.5,29,76.85
1255,A3,146.583,0.5,29,76.85
1256,C6,147.0,1.5,51,76.85
1257,C4,147.083,0.5,32,76.85
1258,B-3,147.083,0.5,32,76.85
1259,E4,147.583,1.0,26,76.85
1260,F2,148.583,0.5,31,76.85
1261,G5,148.75,0.25,48,76.85
1262,A5,149.0,0.25,49,76.85
1263,C3,149.083,0.5,31,76.85
1264,B-5,149.25,0.125,45,76.85
1265,A5,149.375,0.062,37,76.85
1266,B-5,149.438,0.062,37,76.85
1267,A5,149.5,0.25,44,76.85
1268,C4,149.583,0.5,30,76.85
1269,A3,149.583,0.5,30,76.85
1270,G5,149.75,0.25,45,76.85
1271,C6,150.0,0.25,48,76.85
1272,C4,150.083,0.5,32,76.85
1273,B-3,150.083,0.5,32,76.85
1274,F5,150.25,0.25,48,76.85
1275,G5,150.5,0.25,49,76.85
1276,G4,150.583,1.0,26,76.85
1277,A5,150.75,0.125,45,76.85
1278,G5,150.875,0.062,39,76.85
1279,A5,150.938,0.062,37,76.85
1280,G5,151.0,0.25,47,76.85
1281,F5,151.25,0.25,45,76.85
1282,B-5,151.5,1.0,48,76.85
1283,E5,151.5,0.25,48,76.85
1284,F2,151.583,0.5,31,76.85
1285,D5,151.75,0.25,48,76.85
1286,E5,152.0,0.25,49,76.85
1287,C3,152.083,0.5,31,76.85
1288,C5,152.25,0.25,45,76.85
1289,A5,152.5,0.5,45,76.85
1290,B-4,152.5,0.25,47,76.85
1291,C4,152.583,0.5,29,76.85
1292,A3,152.583,0.5,29,76.85
1293,C5,152.75,0.25,45,76.85
1294,A4,153.0,1.5,44,76.85
1295,F5,153.0,1.5,44,76.85
1296,F4,153.083,0.5,33,76.85
1297,A3,153.083,1.5,29,76.85
1298,A4,153.583,249/250,26,76.85
1299,A4,154.5,249/500,44,76.85
1300,F5,154.5,1.5,44,76.85
1301,F2,154.583,0.5,44,76.85
1302,C#3,155.083,0.5,39,76.85
1303,F3,155.583,0.5,39,76.85
1304,A4,156.0,0.25,56,76.85
1305,A3,156.0,1.5,46,76.85
1306,C#4,156.0,1.5,46,76.85
1307,A3,156.083,0.5,42,76.85
1308,G4,156.25,0.25,52,76.85
1309,F4,156.5,1.0,51,76.85
1310,C#4,156.583,1.0,36,76.85
1311,F4,157.5,1.5,51,76.85
1312,F2,157.583,0.5,44,76.85
1313,C3,158.083,0.5,39,76.85
1314,F3,158.583,0.5,39,76.85
1315,A4,159.0,0.25,56,76.85
1316,A3,159.0,1.5,46,76.85
1317,C4,159.0,1.5,46,76.85
1318,A3,159.083,0.5,42,76.85
1319,G4,159.25,0.25,52,76.85
1320,F4,159.5,1.0,51,76.85
1321,C4,159.583,1.0,36,76.85
1322,F4,160.5,1.5,51,76.85
1323,F2,160.583,0.5,40,76.85
1324,C#3,161.083,0.5,36,76.85
1325,F3,161.583,0.5,36,76.85
1326,A4,162.0,0.25,51,76.85
1327,A3,162.0,1.5,42,76.85
1328,C#4,162.0,1.5,42,76.85
1329,A3,162.083,0.5,39,76.85
1330,G4,162.25,0.25,48,76.85
1331,F4,162.5,1.0,47,76.85
1332,C#4,162.583,1.0,33,76.85
1333,F4,163.5,1.5,47,76.85
1334,F2,163.583,0.5,40,76.85
1335,C3,164.083,0.5,36,76.85
1336,F3,164.583,0.5,36,76.85
1337,A4,165.0,0.25,51,76.85
1338,A3,165.0,1.5,42,76.85
1339,C4,165.0,1.5,42,76.85
1340,A3,165.083,0.5,39,76.85
1341,G4,165.25,0.25,48,76.85
1342,F4,165.5,1.0,47,76.85
1343,C4,165.583,1.0,33,76.85
1344,F4,166.5,1.5,47,76.85
1345,C#3,166.583,1.5,44,76.85
1346,F3,166.583,1.5,44,76.85
1347,G#3,166.583,1.5,44,76.85
1348,C#4,168.0,0.25,56,76.85
1349,F4,168.0,0.25,56,76.85
1350,B-2,168.083,1.5,40,76.85
1351,F3,168.083,1.5,40,76.85
1352,G3,168.083,1.5,40,76.85
1353,E-4,168.25,0.25,52,76.85
1354,C#4,168.5,1.0,51,76.85
1355,C#4,169.5,0.25,51,76.85
1356,F4,169.5,0.25,51,76.85
1357,C2,169.583,0.5,44,76.85
1358,E-4,169.75,0.25,48,76.85
1359,C#4,170.0,1.0,47,76.85
1360,G2,170.083,1.0,48,76.85
1361,B-2,171.333,0.25,45,76.85
1362,G#2,171.583,0.25,48,76.85
1363,G2,171.833,0.25,44,76.85
1364,G3,172.0,0.5,44,76.85
1365,C4,172.0,0.5,44,76.85
1366,E4,172.0,0.5,44,76.85
1367,G4,172.0,0.5,44,76.85
1368,G#2,172.083,0.25,49,76.85
1369,B-2,172.333,0.25,44,76.85
1370,G3,172.5,0.5,44,76.85
1371,C4,172.5,0.5,44,76.85
1372,E4,172.5,0.5,44,76.85
1373,G4,172.5,0.5,44,76.85
1374,C2,172.583,0.5,44,76.85
1375,G3,173.0,1.0,35,76.85
1376,C#4,173.0,1.0,35,76.85
1377,F4,173.0,1.0,35,76.85
1378,G4,173.0,1.0,35,76.85
1379,G2,173.083,1.0,48,76.85
1380,B-2,174.333,0.25,45,76.85
1381,G#2,174.583,0.25,48,76.85
1382,G2,174.833,0.25,44,76.85
1383,G3,175.0,0.5,44,76.85
1384,C4,175.0,0.5,44,76.85
1385,E4,175.0,0.5,44,76.85
1386,G4,175.0,0.5,44,76.85
1387,G#2,175.083,0.25,49,76.85
1388,B-2,175.333,0.25,44,76.85
1389,G3,175.5,0.5,44,76.85
1390,C4,175.5,0.5,44,76.85
1391,E4,175.5,0.5,44,76.85
1392,G4,175.5,0.5,44,76.85
1393,C2,175.583,0.5,44,76.85
1394,G3,176.0,1.0,35,76.85
1395,C#4,176.0,1.0,35,76.85
1396,F4,176.0,1.0,35,76.85
1397,G4,176.0,1.0,35,76.85
1398,C#3,176.083,0.5,55,76.85
1399,B-2,176.583,0.5,48,76.85
1400,C3,177.083,0.5,44,76.85
1401,F3,177.5,0.25,40,76.85
1402,C#4,177.583,0.5,56,76.85
1403,G3,177.75,0.25,37,76.85
1404,B-3,178.0,0.25,43,76.85
1405,B-3,178.083,0.5,50,76.85
1406,C#4,178.25,0.25,40,76.85
1407,G3,178.5,0.25,43,76.85
1408,E3,178.5,0.25,43,76.85
1409,C4,178.583,0.5,48,76.85
1410,C4,178.75,0.25,39,76.85
1411,F4,179.0,0.25,49,76.85
1412,C#5,179.083,0.5,61,76.85
1413,G4,179.25,0.25,46,76.85
1414,B-4,179.5,0.25,50,76.85
1415,B-4,179.583,0.5,56,76.85
1416,C#5,179.75,0.25,48,76.85
1417,G4,180.0,0.25,52,76.85
1418,E4,180.0,0.25,52,76.85
1419,C5,180.083,1.0,41,76.85
1420,C5,180.25,0.25,48,76.85
1421,F5,180.5,0.25,53,76.85
1422,G5,180.75,0.25,50,76.85
1423,B-5,181.0,0.25,56,76.85
1424,C4,181.083,0.5,41,76.85
1425,C#6,181.25,0.25,52,76.85
1426,F2,181.396,0.188,30,76.85
1427,C3,181.458,0.125,33,76.85
1428,C6,181.5,0.25,55,76.85
1429,E5,181.5,0.25,55,76.85
1430,A3,181.521,0.062,35,76.85
1431,F4,181.583,1.5,45,76.85
1432,F2,181.583,1.5,30,76.85
1433,C3,181.583,1.5,33,76.85
1434,A3,181.583,1.5,35,76.85
1435,G5,181.75,0.25,50,76.85
1436,D5,182.0,0.25,52,76.85
1437,B-5,182.0,0.25,52,76.85
1438,E5,182.25,0.25,42,76.85
1439,B-4,182.5,0.25,48,76.85
1440,A5,182.5,0.25,48,76.85
1441,C5,182.75,0.25,37,76.85
1442,C5,182.875,0.125,26,76.85
1443,F5,182.875,0.125,26,76.85
1444,A5,182.958,21/500,28,76.85
1445,C6,182.958,21/500,28,76.85
1446,C5,183.0,229/500,26,76.85
1447,F5,183.0,229/500,26,76.85
1448,A5,183.0,229/500,28,76.85
1449,C6,183.0,229/500,28,76.85
1450,E4,183.333,0.25,39,76.85
1451,C6,183.5,0.5,25,76.85
1452,A5,183.5,0.5,25,76.85
1453,F5,183.5,0.5,25,76.85
1454,C5,183.5,0.5,25,76.85
1455,D4,183.583,0.25,44,76.85
1456,C4,183.833,0.25,39,76.85
1457,C6,184.0,0.375,25,76.85
1458,A5,184.0,0.375,25,76.85
1459,F5,184.0,0.375,25,76.85
1460,C5,184.0,0.375,25,76.85
1461,D4,184.083,0.25,44,76.85
1462,E4,184.333,0.25,39,76.85
1463,C5,184.375,0.125,26,76.85
1464,F5,184.375,0.125,26,76.85
1465,A5,184.458,21/500,28,76.85
1466,C6,184.458,21/500,28,76.85
1467,C5,184.5,229/500,26,76.85
1468,F5,184.5,229/500,26,76.85
1469,A5,184.5,229/500,28,76.85
1470,C6,184.5,229/500,28,76.85
1471,D4,184.583,167/1000,39,76.85
1472,F3,184.583,1.5,35,76.85
1473,E4,184.75,167/1000,37,76.85
1474,D4,184.917,167/1000,37,76.85
1475,C6,185.0,0.5,25,76.85
1476,A5,185.0,0.5,25,76.85
1477,F5,185.0,0.5,25,76.85
1478,C5,185.0,0.5,25,76.85
1479,C4,185.083,1.0,40,76.85
1480,C6,185.5,0.375,25,76.85
1481,A5,185.5,0.375,25,76.85
1482,F5,185.5,0.375,25,76.85
1483,C5,185.5,0.375,25,76.85
1484,C5,185.875,0.125,26,76.85
1485,F5,185.875,0.125,26,76.85
1486,A5,185.958,21/500,28,76.85
1487,C6,185.958,21/500,28,76.85
1488,C5,186.0,229/500,26,76.85
1489,F5,186.0,229/500,26,76.85
1490,A5,186.0,229/500,28,76.85
1491,C6,186.0,229/500,28,76.85
1492,C4,186.083,1.312,40,76.85
1493,C6,186.5,0.5,25,76.85
1494,A5,186.5,0.5,25,76.85
1495,F5,186.5,0.5,25,76.85
1496,C5,186.5,0.5,25,76.85
1497,C6,187.0,0.375,25,76.85
1498,A5,187.0,0.375,25,76.85
1499,F5,187.0,0.375,25,76.85
1500,C5,187.0,0.375,25,76.85
1501,C5,187.375,0.125,26,76.85
1502,F5,187.375,0.125,26,76.85
1503,F2,187.396,0.188,29,76.85
1504,C3,187.458,0.125,33,76.85
1505,A5,187.458,21/500,28,76.85
1506,C6,187.458,21/500,28,76.85
1507,C5,187.5,229/500,26,76.85
1508,F5,187.5,229/500,26,76.85
1509,A5,187.5,229/500,28,76.85
1510,C6,187.5,229/500,28,76.85
1511,A3,187.521,0.062,35,76.85
1512,F4,187.583,1.5,45,76.85
1513,F2,187.583,1.5,29,76.85
1514,C3,187.583,1.5,33,76.85
1515,A3,187.583,1.5,35,76.85
1516,C6,188.0,0.5,25,76.85
1517,A5,188.0,0.5,25,76.85
1518,F5,188.0,0.5,25,76.85
1519,C5,188.0,0.5,25,76.85
1520,C6,188.5,0.375,25,76.85
1521,A5,188.5,0.375,25,76.85
1522,F5,188.5,0.375,25,76.85
1523,C5,188.5,0.375,25,76.85
1524,C5,188.875,0.125,26,76.85
1525,F5,188.875,0.125,26,76.85
1526,A5,188.958,21/500,28,76.85
1527,C6,188.958,21/500,28,76.85
1528,C5,189.0,229/500,26,76.85
1529,F5,189.0,229/500,26,76.85
1530,A5,189.0,229/500,28,76.85
1531,C6,189.0,229/500,28,76.85
1532,E4,189.333,0.25,39,76.85
1533,C6,189.5,0.5,25,76.85
1534,A5,189.5,0.5,25,76.85
1535,F5,189.5,0.5,25,76.85
1536,C5,189.5,0.5,25,76.85
1537,D4,189.583,0.25,44,76.85
1538,C4,189.833,0.25,39,76.85
1539,C6,190.0,0.375,25,76.85
1540,A5,190.0,0.375,25,76.85
1541,F5,190.0,0.375,25,76.85
1542,C5,190.0,0.375,25,76.85
1543,D4,190.083,0.25,44,76.85
1544,E4,190.333,0.25,39,76.85
1545,C5,190.375,0.125,26,76.85
1546,F5,190.375,0.125,26,76.85
1547,A5,190.458,21/500,28,76.85
1548,C6,190.458,21/500,28,76.85
1549,C5,190.5,229/500,26,76.85
1550,F5,190.5,229/500,26,76.85
1551,A5,190.5,229/500,28,76.85
1552,C6,190.5,229/500,28,76.85
1553,D4,190.583,167/1000,42,76.85
1554,F3,190.583,1.5,36,76.85
1555,E4,190.75,167/1000,37,76.85
1556,D4,190.917,167/1000,37,76.85
1557,C6,191.0,0.5,25,76.85
1558,A5,191.0,0.5,25,76.85
1559,F5,191.0,0.5,25,76.85
1560,C5,191.0,0.5,25,76.85
1561,C4,191.083,1.0,40,76.85
1562,C6,191.5,0.375,25,76.85
1563,A5,191.5,0.375,25,76.85
1564,F5,191.5,0.375,25,76.85
1565,C5,191.5,0.375,25,76.85
1566,C5,191.875,0.125,26,76.85
1567,F5,191.875,0.125,26,76.85
1568,A5,191.958,21/500,28,76.85
1569,C6,191.958,21/500,28,76.85
1570,C5,192.0,229/500,26,76.85
1571,F5,192.0,229/500,26,76.85
1572,A5,192.0,229/500,28,76.85
1573,C6,192.0,229/500,28,76.85
1574,C4,192.083,1.312,40,76.85
1575,C6,192.5,0.5,25,76.85
1576,A5,192.5,0.5,25,76.85
1577,F5,192.5,0.5,25,76.85
1578,C5,192.5,0.5,25,76.85
1579,C6,193.0,0.375,25,76.85
1580,A5,193.0,0.375,25,76.85
1581,F5,193.0,0.375,25,76.85
1582,C5,193.0,0.375,25,76.85
1583,C5,193.375,0.125,26,76.85
1584,F5,193.375,0.125,26,76.85
1585,F2,193.458,0.125,36,76.85
1586,A5,193.458,21/500,28,76.85
1587,C6,193.458,21/500,28,76.85
1588,C5,193.5,229/500,26,76.85
1589,F5,193.5,229/500,26,76.85
1590,A5,193.5,229/500,28,76.85
1591,C6,193.5,229/500,28,76.85
1592,C3,193.521,0.062,36,76.85
1593,G3,193.583,0.25,41,76.85
1594,F2,193.583,0.5,36,76.85
1595,C3,193.583,0.5,36,76.85
1596,A3,193.833,0.25,46,76.85
1597,C6,194.0,0.5,25,76.85
1598,A5,194.0,0.5,25,76.85
1599,F5,194.0,0.5,25,76.85
1600,C5,194.0,0.5,25,76.85
1601,B-3,194.083,0.5,48,76.85
1602,C6,194.5,0.375,25,76.85
1603,A5,194.5,0.375,25,76.85
1604,F5,194.5,0.375,25,76.85
1605,C5,194.5,0.375,25,76.85
1606,B-3,194.583,0.25,46,76.85
1607,C4,194.833,0.25,48,76.85
1608,E5,194.875,0.125,26,76.85
1609,C5,194.875,0.125,26,76.85
1610,B-5,195.0,0.5,28,76.85
1611,C6,195.0,0.5,28,76.85
1612,E5,195.0,0.5,26,76.85
1613,C5,195.0,0.5,26,76.85
1614,D4,195.083,0.75,51,76.85
1615,C6,195.5,0.5,25,76.85
1616,B-5,195.5,0.5,25,76.85
1617,E5,195.5,0.5,25,76.85
1618,C5,195.5,0.5,25,76.85
1619,E4,195.833,0.25,51,76.85
1620,C6,196.0,0.375,25,76.85
1621,B-5,196.0,0.375,25,76.85
1622,E5,196.0,0.375,25,76.85
1623,C5,196.0,0.375,25,76.85
1624,G4,196.083,0.25,56,76.85
1625,E4,196.333,0.25,50,76.85
1626,E5,196.375,0.125,26,76.85
1627,C5,196.375,0.125,26,76.85
1628,B-5,196.5,0.5,28,76.85
1629,C6,196.5,0.5,28,76.85
1630,E5,196.5,0.5,26,76.85
1631,C5,196.5,0.5,26,76.85
1632,D4,196.583,167/1000,51,76.85
1633,E4,196.75,167/1000,48,76.85
1634,D4,196.917,167/1000,44,76.85
1635,C6,197.0,0.5,25,76.85
1636,B-5,197.0,0.5,25,76.85
1637,E5,197.0,0.5,25,76.85
1638,C5,197.0,0.5,25,76.85
1639,C4,197.083,1.0,44,76.85
1640,C6,197.5,0.375,25,76.85
1641,B-5,197.5,0.375,25,76.85
1642,E5,197.5,0.375,25,76.85
1643,C5,197.5,0.375,25,76.85
1644,E5,197.875,0.125,26,76.85
1645,C5,197.875,0.125,26,76.85
1646,B-5,198.0,0.5,28,76.85
1647,C6,198.0,0.5,28,76.85
1648,E5,198.0,0.5,26,76.85
1649,C5,198.0,0.5,26,76.85
1650,C4,198.083,1.312,44,76.85
1651,C6,198.5,0.5,25,76.85
1652,B-5,198.5,0.5,25,76.85
1653,E5,198.5,0.5,25,76.85
1654,C5,198.5,0.5,25,76.85
1655,C6,199.0,0.375,25,76.85
1656,B-5,199.0,0.375,25,76.85
1657,E5,199.0,0.375,25,76.85
1658,C5,199.0,0.375,25,76.85
1659,E5,199.375,0.125,26,76.85
1660,C5,199.375,0.125,26,76.85
1661,F2,199.458,0.125,36,76.85
1662,B-5,199.5,0.5,28,76.85
1663,C6,199.5,0.5,28,76.85
1664,E5,199.5,0.5,26,76.85
1665,C5,199.5,0.5,26,76.85
1666,C3,199.521,0.062,36,76.85
1667,G3,199.583,0.25,41,76.85
1668,F2,199.583,0.5,36,76.85
1669,C3,199.583,0.5,36,76.85
1670,A3,199.833,0.25,46,76.85
1671,C6,200.0,0.5,25,76.85
1672,B-5,200.0,0.5,25,76.85
1673,E5,200.0,0.5,25,76.85
1674,C5,200.0,0.5,25,76.85
1675,B-3,200.083,0.5,48,76.85
1676,C6,200.5,0.375,25,76.85
1677,B-5,200.5,0.375,25,76.85
1678,E5,200.5,0.375,25,76.85
1679,C5,200.5,0.375,25,76.85
1680,B-3,200.583,0.25,46,76.85
1681,C4,200.833,0.25,48,76.85
1682,E5,200.875,0.125,26,76.85
1683,C5,200.875,0.125,26,76.85
1684,B-5,201.0,0.5,28,76.85
1685,C6,201.0,0.5,28,76.85
1686,E5,201.0,0.5,26,76.85
1687,C5,201.0,0.5,26,76.85
1688,D4,201.083,0.5,51,76.85
1689,C6,201.5,0.5,25,76.85
1690,B-5,201.5,0.5,25,76.85
1691,E5,201.5,0.5,25,76.85
1692,C5,201.5,0.5,25,76.85
1693,E4,201.583,0.25,56,76.85
1694,A4,201.833,0.25,49,76.85
1695,C6,202.0,0.375,26,76.85
1696,B-5,202.0,0.375,26,76.85
1697,E5,202.0,0.375,26,76.85
1698,C5,202.0,0.375,26,76.85
1699,G4,202.083,0.25,56,76.85
1700,E4,202.333,0.25,50,76.85
1701,E5,202.375,0.125,28,76.85
1702,C5,202.375,0.125,28,76.85
1703,B-5,202.5,0.5,32,76.85
1704,C6,202.5,0.5,32,76.85
1705,E5,202.5,0.5,28,76.85
1706,C5,202.5,0.5,28,76.85
1707,D4,202.583,167/1000,51,76.85
1708,E4,202.75,167/1000,48,76.85
1709,D4,202.917,167/1000,44,76.85
1710,C6,203.0,0.5,28,76.85
1711,B-5,203.0,0.5,28,76.85
1712,E5,203.0,0.5,28,76.85
1713,C5,203.0,0.5,28,76.85
1714,C4,203.083,1.0,44,76.85
1715,C6,203.5,0.375,28,76.85
1716,B-5,203.5,0.375,28,76.85
1717,E5,203.5,0.375,28,76.85
1718,C5,203.5,0.375,28,76.85
1719,E5,203.875,0.125,28,76.85
1720,C5,203.875,0.125,28,76.85
1721,B-5,204.0,0.5,28,76.85
1722,C6,204.0,0.5,28,76.85
1723,E5,204.0,0.5,28,76.85
1724,C5,204.0,0.5,28,76.85
1725,C4,204.083,1.312,44,76.85
1726,C6,204.5,0.5,25,76.85
1727,B-5,204.5,0.5,25,76.85
1728,E5,204.5,0.5,25,76.85
1729,C5,204.5,0.5,25,76.85
1730,C6,205.0,0.375,25,76.85
1731,B-5,205.0,0.375,25,76.85
1732,E5,205.0,0.375,25,76.85
1733,C5,205.0,0.375,25,76.85
1734,E5,205.375,0.125,26,76.85
1735,C5,205.375,0.125,26,76.85
1736,F2,205.396,0.188,38,76.85
1737,C3,205.458,0.125,40,76.85
1738,B-5,205.5,0.5,28,76.85
1739,C6,205.5,0.5,28,76.85
1740,E5,205.5,0.5,26,76.85
1741,C5,205.5,0.5,26,76.85
1742,A3,205.521,0.062,42,76.85
1743,F4,205.583,1.5,55,76.85
1744,F2,205.583,1.5,38,76.85
1745,C3,205.583,1.5,40,76.85
1746,A3,205.583,1.5,42,76.85
1747,C6,206.0,0.5,28,76.85
1748,B-5,206.0,0.5,28,76.85
1749,E5,206.0,0.5,28,76.85
1750,C5,206.0,0.5,28,76.85
1751,C6,206.5,0.375,30,76.85
1752,B-5,206.5,0.375,30,76.85
1753,E5,206.5,0.375,30,76.85
1754,C5,206.5,0.375,30,76.85
1755,C5,206.875,0.125,31,76.85
1756,F5,206.875,0.125,31,76.85
1757,A5,206.958,21/500,35,76.85
1758,C6,206.958,21/500,35,76.85
1759,E4,207.333,0.25,48,76.85
1760,C5,207.458,229/500,31,76.85
1761,F5,207.458,229/500,31,76.85
1762,A5,207.458,229/500,35,76.85
1763,C6,207.458,229/500,35,76.85
1764,D4,207.583,0.25,53,76.85
1765,C4,207.833,0.25,48,76.85
1766,C6,207.958,0.5,31,76.85
1767,A5,207.958,0.5,31,76.85
1768,F5,207.958,0.5,31,76.85
1769,C5,207.958,0.5,31,76.85
1770,D4,208.083,0.25,53,76.85
1771,E4,208.333,0.25,48,76.85
1772,C6,208.458,0.375,31,76.85
1773,A5,208.458,0.375,31,76.85
1774,F5,208.458,0.375,31,76.85
1775,C5,208.458,0.375,31,76.85
1776,D4,208.583,167/1000,56,76.85
1777,F3,208.583,1.5,45,76.85
1778,E4,208.75,167/1000,45,76.85
1779,C5,208.833,0.125,31,76.85
1780,F5,208.833,0.125,31,76.85
1781,D4,208.917,167/1000,48,76.85
1782,A5,208.917,21/500,35,76.85
1783,C6,208.917,21/500,35,76.85
1784,C5,208.958,229/500,31,76.85
1785,F5,208.958,229/500,31,76.85
1786,A5,208.958,229/500,35,76.85
1787,C6,208.958,229/500,35,76.85
1788,C4,209.083,1.0,48,76.85
1789,C6,209.458,0.5,31,76.85
1790,A5,209.458,0.5,31,76.85
1791,F5,209.458,0.5,31,76.85
1792,C5,209.458,0.5,31,76.85
1793,C6,209.958,0.375,31,76.85
1794,A5,209.958,0.375,31,76.85
1795,F5,209.958,0.375,31,76.85
1796,C5,209.958,0.375,31,76.85
1797,C4,210.083,1.312,48,76.85
1798,C5,210.333,0.125,31,76.85
1799,F5,210.333,0.125,31,76.85
1800,A5,210.417,21/500,35,76.85
1801,C6,210.417,21/500,35,76.85
1802,C5,210.458,229/500,31,76.85
1803,F5,210.458,229/500,31,76.85
1804,A5,210.458,229/500,35,76.85
1805,C6,210.458,229/500,35,76.85
1806,C6,210.958,0.5,31,76.85
1807,A5,210.958,0.5,31,76.85
1808,F5,210.958,0.5,31,76.85
1809,C5,210.958,0.5,31,76.85
1810,E-3,211.458,0.125,37,76.85
1811,C6,211.458,0.375,31,76.85
1812,A5,211.458,0.375,31,76.85
1813,F5,211.458,0.375,31,76.85
1814,C5,211.458,0.375,31,76.85
1815,C4,211.521,0.062,38,76.85
1816,G#4,211.583,1.5,49,76.85
1817,E-3,211.583,1.5,37,76.85
1818,C4,211.583,1.5,38,76.85
1819,C5,211.833,0.125,31,76.85
1820,F5,211.833,0.125,31,76.85
1821,A5,211.917,21/500,36,76.85
1822,C6,211.917,21/500,36,76.85
1823,C5,211.958,229/500,31,76.85
1824,F5,211.958,229/500,31,76.85
1825,A5,211.958,229/500,36,76.85
1826,C6,211.958,229/500,36,76.85
1827,C6,212.458,0.5,30,76.85
1828,A5,212.458,0.5,30,76.85
1829,F5,212.458,0.5,30,76.85
1830,C5,212.458,0.5,30,76.85
1831,C6,212.958,0.375,29,76.85
1832,A5,212.958,0.375,29,76.85
1833,F5,212.958,0.375,29,76.85
1834,C5,212.958,0.375,29,76.85
1835,G4,213.333,0.25,44,76.85
1836,C5,213.333,0.125,29,76.85
1837,E-5,213.333,0.125,29,76.85
1838,G#5,213.417,21/500,32,76.85
1839,C6,213.417,21/500,32,76.85
1840,C5,213.458,229/500,29,76.85
1841,E-5,213.458,229/500,29,76.85
1842,G#5,213.458,229/500,32,76.85
1843,C6,213.458,229/500,32,76.85
1844,F4,213.583,0.25,49,76.85
1845,E-4,213.833,0.25,44,76.85
1846,C6,213.958,0.5,28,76.85
1847,G#5,213.958,0.5,28,76.85
1848,E-5,213.958,0.5,28,76.85
1849,C5,213.958,0.5,28,76.85
1850,F4,214.083,0.25,49,76.85
1851,G4,214.333,0.25,44,76.85
1852,C6,214.458,0.375,28,76.85
1853,G#5,214.458,0.375,28,76.85
1854,E-5,214.458,0.375,28,76.85
1855,C5,214.458,0.375,28,76.85
1856,F4,214.583,167/1000,50,76.85
1857,G4,214.75,167/1000,44,76.85
1858,C5,214.833,0.125,29,76.85
1859,E-5,214.833,0.125,29,76.85
1860,F4,214.917,167/1000,44,76.85
1861,G#5,214.917,21/500,32,76.85
1862,C6,214.917,21/500,32,76.85
1863,C5,214.958,229/500,29,76.85
1864,E-5,214.958,229/500,29,76.85
1865,G#5,214.958,229/500,32,76.85
1866,C6,214.958,229/500,32,76.85
1867,E-4,215.083,1.0,49,76.85
1868,C6,215.458,0.5,28,76.85
1869,G#5,215.458,0.5,28,76.85
1870,E-5,215.458,0.5,28,76.85
1871,C5,215.458,0.5,28,76.85
1872,C6,215.958,0.375,28,76.85
1873,G#5,215.958,0.375,28,76.85
1874,E-5,215.958,0.375,28,76.85
1875,C5,215.958,0.375,28,76.85
1876,E-4,216.083,1.5,49,76.85
1877,C5,216.333,0.125,29,76.85
1878,E-5,216.333,0.125,29,76.85
1879,G#5,216.417,21/500,32,76.85
1880,C6,216.417,21/500,32,76.85
1881,C5,216.458,229/500,29,76.85
1882,E-5,216.458,229/500,29,76.85
1883,G#5,216.458,229/500,32,76.85
1884,C6,216.458,229/500,32,76.85
1885,C6,216.958,0.5,28,76.85
1886,G#5,216.958,0.5,28,76.85
1887,E-5,216.958,0.5,28,76.85
1888,C5,216.958,0.5,28,76.85
1889,C6,217.458,0.375,28,76.85
1890,G#5,217.458,0.375,28,76.85
1891,E-5,217.458,0.375,28,76.85
1892,C5,217.458,0.375,28,76.85
1893,C3,217.583,0.5,40,76.85
1894,G3,217.583,0.25,47,76.85
1895,A3,217.833,0.25,51,76.85
1896,C5,217.833,0.125,29,76.85
1897,E-5,217.833,0.125,29,76.85
1898,G#5,217.917,21/500,32,76.85
1899,C6,217.917,21/500,32,76.85
1900,C5,217.958,229/500,29,76.85
1901,E-5,217.958,229/500,29,76.85
1902,G#5,217.958,229/500,32,76.85
1903,C6,217.958,229/500,32,76.85
1904,B-3,218.083,0.5,53,76.85
1905,C6,218.458,0.5,28,76.85
1906,G#5,218.458,0.5,28,76.85
1907,E-5,218.458,0.5,28,76.85
1908,C5,218.458,0.5,28,76.85
1909,C4,218.583,0.25,55,76.85
1910,D4,218.833,0.25,57,76.85
1911,C6,218.958,0.5,28,76.85
1912,G#5,218.958,0.5,28,76.85
1913,E-5,218.958,0.5,28,76.85
1914,C5,218.958,0.5,28,76.85
1915,G4,219.083,1.0,61,76.85
1916,C5,219.458,0.5,31,76.85
1917,E5,219.458,0.5,31,76.85
1918,B-5,219.458,0.5,31,76.85
1919,C6,219.458,0.5,31,76.85
1920,C6,219.958,0.5,29,76.85
1921,B-5,219.958,0.5,29,76.85
1922,E5,219.958,0.5,29,76.85
1923,C5,219.958,0.5,29,76.85
1924,E4,220.083,0.5,61,76.85
1925,C6,220.458,0.5,29,76.85
1926,B-5,220.458,0.5,29,76.85
1927,E5,220.458,0.5,29,76.85
1928,C5,220.458,0.5,29,76.85
1929,F3,220.583,1.5,41,76.85
1930,D4,220.583,167/1000,57,76.85
1931,E4,220.75,167/1000,55,76.85
1932,D4,220.917,167/1000,51,76.85
1933,C5,220.958,0.5,31,76.85
1934,E5,220.958,0.5,31,76.85
1935,B-5,220.958,0.5,31,76.85
1936,C6,220.958,0.5,31,76.85
1937,C4,221.083,1.0,51,76.85
1938,C6,221.458,0.5,30,76.85
1939,B-5,221.458,0.5,30,76.85
1940,E5,221.458,0.5,30,76.85
1941,C5,221.458,0.5,30,76.85
1942,C6,221.958,0.5,32,76.85
1943,B-5,221.958,0.5,32,76.85
1944,E5,221.958,0.5,32,76.85
1945,C5,221.958,0.5,32,76.85
1946,D3,222.083,1.5,66,76.85
1947,C5,222.458,0.5,36,76.85
1948,F5,222.458,0.5,36,76.85
1949,A5,222.458,0.5,36,76.85
1950,C6,222.458,0.5,36,76.85
1951,A3,222.583,0.5,61,76.85
1952,C6,222.958,0.5,32,76.85
1953,A5,222.958,0.5,32,76.85
1954,F5,222.958,0.5,32,76.85
1955,C5,222.958,0.5,32,76.85
1956,D4,223.083,0.5,61,76.85
1957,C6,223.458,0.5,32,76.85
1958,A5,223.458,0.5,32,76.85
1959,F5,223.458,0.5,32,76.85
1960,C5,223.458,0.5,32,76.85
1961,G3,223.583,0.25,52,76.85
1962,D4,223.583,0.25,52,76.85
1963,E4,223.833,0.25,61,76.85
1964,C5,223.958,0.5,35,76.85
1965,D5,223.958,0.5,35,76.85
1966,F#5,223.958,0.5,35,76.85
1967,A5,223.958,0.5,35,76.85
1968,D6,223.958,0.5,35,76.85
1969,F4,224.083,0.5,64,76.85
1970,C5,224.458,0.5,32,76.85
1971,D6,224.458,0.5,32,76.85
1972,A5,224.458,0.5,32,76.85
1973,F#5,224.458,0.5,32,76.85
1974,D5,224.458,0.5,32,76.85
1975,D4,224.583,0.25,62,76.85
1976,G3,224.833,167/1000,56,76.85
1977,C5,224.958,0.5,32,76.85
1978,D6,224.958,0.5,32,76.85
1979,A5,224.958,0.5,32,76.85
1980,F#5,224.958,0.5,32,76.85
1981,D5,224.958,0.5,32,76.85
1982,C3,225.0,83/1000,49,76.85
1983,G3,225.0,83/1000,49,76.85
1984,D4,225.167,167/1000,59,76.85
1985,C3,225.167,83/1000,49,76.85
1986,G3,225.167,83/1000,49,76.85
1987,E4,225.333,167/1000,51,76.85
1988,B-4,225.458,0.5,36,76.85
1989,D5,225.458,0.5,36,76.85
1990,G5,225.458,0.5,36,76.85
1991,B-5,225.458,0.5,36,76.85
1992,D4,225.5,167/1000,53,76.85
1993,C4,225.667,0.5,50,76.85
1994,B-5,225.958,0.5,32,76.85
1995,G5,225.958,0.5,32,76.85
1996,D5,225.958,0.5,32,76.85
1997,B-4,225.958,0.5,32,76.85
1998,C3,226.167,0.5,44,76.85
1999,B-5,226.458,0.5,32,76.85
2000,G5,226.458,0.5,32,76.85
2001,D5,226.458,0.5,32,76.85
2002,B-4,226.458,0.5,32,76.85
2003,F2,226.583,83/1000,41,76.85
2004,C3,226.583,83/1000,41,76.85
2005,A3,226.667,0.25,51,76.85
2006,F2,226.667,167/1000,41,76.85
2007,C3,226.667,167/1000,41,76.85
2008,G3,226.917,0.25,49,76.85
2009,B-4,226.958,0.5,36,76.85
2010,C5,226.958,0.5,36,76.85
2011,E5,226.958,0.5,36,76.85
2012,B-5,226.958,0.5,36,76.85
2013,F3,227.167,1.0,45,76.85
2014,B-5,227.458,0.5,32,76.85
2015,E5,227.458,0.5,32,76.85
2016,C5,227.458,0.5,32,76.85
2017,B-4,227.458,0.5,32,76.85
2018,B-5,227.958,0.5,32,76.85
2019,E5,227.958,0.5,32,76.85
2020,C5,227.958,0.5,32,76.85
2021,B-4,227.958,0.5,32,76.85
2022,F3,228.167,1.5,45,76.85
2023,A4,228.458,0.5,32,76.85
2024,C5,228.458,0.5,32,76.85
2025,F5,228.458,0.5,32,76.85
2026,A5,228.458,0.5,32,76.85
2027,A5,228.958,0.5,27,76.85
2028,F5,228.958,0.5,27,76.85
2029,C5,228.958,0.5,27,76.85
2030,A4,228.958,0.5,27,76.85
2031,A5,229.458,0.5,27,76.85
2032,F5,229.458,0.5,27,76.85
2033,C5,229.458,0.5,27,76.85
2034,A4,229.458,0.5,27,76.85
2035,F2,229.583,83/1000,38,76.85
2036,C#3,229.583,83/1000,38,76.85
2037,A3,229.667,0.25,46,76.85
2038,F2,229.667,167/1000,38,76.85
2039,C#3,229.667,167/1000,38,76.85
2040,G3,229.917,0.25,44,76.85
2041,A4,229.958,0.5,28,76.85
2042,C5,229.958,0.5,28,76.85
2043,F5,229.958,0.5,28,76.85
2044,A5,229.958,0.5,28,76.85
2045,F3,230.167,1.0,39,76.85
2046,A5,230.458,0.5,26,76.85
2047,F5,230.458,0.5,26,76.85
2048,C5,230.458,0.5,26,76.85
2049,A4,230.458,0.5,26,76.85
2050,A5,230.958,0.5,26,76.85
2051,F5,230.958,0.5,26,76.85
2052,C5,230.958,0.5,26,76.85
2053,A4,230.958,0.5,26,76.85
2054,F3,231.167,1.5,39,76.85
2055,A4,231.458,0.5,29,76.85
2056,C#5,231.458,0.5,29,76.85
2057,F5,231.458,0.5,29,76.85
2058,A5,231.458,0.5,29,76.85
2059,A5,231.958,0.5,23,76.85
2060,F5,231.958,0.5,23,76.85
2061,C#5,231.958,0.5,23,76.85
2062,A4,231.958,0.5,23,76.85
2063,A5,232.458,0.5,23,76.85
2064,F5,232.458,0.5,23,76.85
2065,C#5,232.458,0.5,23,76.85
2066,A4,232.458,0.5,23,76.85
2067,F2,232.583,83/1000,38,76.85
2068,C3,232.583,83/1000,38,76.85
2069,A3,232.667,0.25,46,76.85
2070,F2,232.667,167/1000,38,76.85
2071,C3,232.667,167/1000,38,76.85
2072,G3,232.917,0.25,44,76.85
2073,A4,232.958,0.5,26,76.85
2074,C#5,232.958,0.5,26,76.85
2075,F5,232.958,0.5,26,76.85
2076,A5,232.958,0.5,26,76.85
2077,F3,233.167,1.0,40,76.85
2078,A5,233.458,0.5,23,76.85
2079,F5,233.458,0.5,23,76.85
2080,C#5,233.458,0.5,23,76.85
2081,A4,233.458,0.5,23,76.85
2082,A5,233.958,0.5,23,76.85
2083,F5,233.958,0.5,23,76.85
2084,C#5,233.958,0.5,23,76.85
2085,A4,233.958,0.5,23,76.85
2086,F3,234.167,1.5,40,76.85
2087,A4,234.458,0.5,29,76.85
2088,C5,234.458,0.5,29,76.85
2089,F5,234.458,0.5,29,76.85
2090,A5,234.458,0.5,29,76.85
2091,A5,234.958,0.5,24,76.85
2092,F5,234.958,0.5,24,76.85
2093,C5,234.958,0.5,24,76.85
2094,A4,234.958,0.5,24,76.85
2095,A5,235.458,0.5,24,76.85
2096,F5,235.458,0.5,24,76.85
2097,C5,235.458,0.5,24,76.85
2098,A4,235.458,0.5,24,76.85
2099,F2,235.583,83/1000,36,76.85
2100,C#3,235.583,83/1000,36,76.85
2101,A3,235.667,0.25,42,76.85
2102,F2,235.667,167/1000,36,76.85
2103,C#3,235.667,167/1000,36,76.85
2104,G3,235.917,0.25,41,76.85
2105,A4,235.958,0.5,26,76.85
2106,C5,235.958,0.5,26,76.85
2107,F5,235.958,0.5,26,76.85
2108,A5,235.958,0.5,26,76.85
2109,F3,236.167,1.0,37,76.85
2110,A5,236.458,0.5,24,76.85
2111,F5,236.458,0.5,24,76.85
2112,C5,236.458,0.5,24,76.85
2113,A4,236.458,0.5,24,76.85
2114,A5,236.958,0.5,24,76.85
2115,F5,236.958,0.5,24,76.85
2116,C5,236.958,0.5,24,76.85
2117,A4,236.958,0.5,24,76.85
2118,F3,237.167,1.5,37,76.85
2119,A4,237.458,0.5,27,76.85
2120,C#5,237.458,0.5,27,76.85
2121,F5,237.458,0.5,27,76.85
2122,A5,237.458,0.5,27,76.85
2123,A5,237.958,0.5,21,76.85
2124,F5,237.958,0.5,21,76.85
2125,C#5,237.958,0.5,21,76.85
2126,A4,237.958,0.5,21,76.85
2127,A5,238.458,0.5,21,76.85
2128,F5,238.458,0.5,21,76.85
2129,C#5,238.458,0.5,21,76.85
2130,A4,238.458,0.5,21,76.85
2131,F2,238.583,83/1000,30,76.85
2132,C3,238.583,83/1000,30,76.85
2133,A3,238.667,0.25,37,76.85
2134,F2,238.667,167/1000,30,76.85
2135,C3,238.667,167/1000,30,76.85
2136,G3,238.917,0.25,35,76.85
2137,A4,238.958,0.5,23,76.85
2138,C#5,238.958,0.5,23,76.85
2139,F5,238.958,0.5,23,76.85
2140,A5,238.958,0.5,23,76.85
2141,F3,239.167,1.0,33,76.85
2142,A5,239.458,0.5,22,76.85
2143,F5,239.458,0.5,22,76.85
2144,C#5,239.458,0.5,22,76.85
2145,A4,239.458,0.5,22,76.85
2146,A5,239.958,0.5,22,76.85
2147,F5,239.958,0.5,22,76.85
2148,C#5,239.958,0.5,22,76.85
2149,A4,239.958,0.5,22,76.85
2150,F3,240.167,0.5,33,76.85
2151,A4,240.458,0.5,27,76.85
2152,C5,240.458,0.5,27,76.85
2153,F5,240.458,0.5,27,76.85
2154,A5,240.458,0.5,27,76.85
2155,A5,240.958,0.5,25,76.85
2156,F5,240.958,0.5,25,76.85
2157,C5,240.958,0.5,25,76.85
2158,A4,240.958,0.5,25,76.85
2159,C3,241.167,0.5,34,76.85
2160,A5,241.458,0.5,25,76.85
2161,F5,241.458,0.5,25,76.85
2162,C5,241.458,0.5,25,76.85
2163,A4,241.458,0.5,25,76.85
2164,F2,241.667,0.25,28,76.85
2165,C3,241.917,0.25,29,76.85
2166,A4,241.958,0.5,24,76.85
2167,C5,241.958,0.5,24,76.85
2168,F5,241.958,0.5,24,76.85
2169,A5,241.958,0.5,24,76.85
2170,F3,242.167,0.25,30,76.85
2171,A3,242.417,0.25,31,76.85
2172,C4,242.667,0.25,31,76.85
2173,F4,242.917,0.25,33,76.85
2174,A4,243.167,0.25,34,76.85
2175,C4,243.417,0.25,27,76.85
2176,F4,243.667,0.25,29,76.85
2177,A3,243.708,0.25,34,76.85
2178,A4,243.917,0.25,30,76.85
2179,C4,243.958,0.25,35,76.85
2180,C5,244.167,0.25,33,76.85
2181,F4,244.208,0.25,37,76.85
2182,F5,244.417,0.25,35,76.85
2183,A4,244.458,0.25,38,76.85
2184,A5,244.667,1.5,36,76.85
2185,C5,244.708,0.25,39,76.85
2186,F5,244.958,0.25,46,76.85
2187,A4,245.208,0.25,33,76.85
2188,C5,245.458,0.25,35,76.85
2189,F5,245.708,0.25,38,76.85
2190,A5,245.958,0.25,40,76.85
2191,F2,246.167,1.5,23,76.85
2192,C3,246.167,1.5,23,76.85
2193,F3,246.167,1.5,23,76.85
2194,C6,246.208,0.25,44,76.85
2195,F6,246.458,1.5,46,76.85
2196,A3,247.958,1.5,30,76.85
2197,C4,247.958,1.5,30,76.85
2198,F4,247.958,1.5,30,76.85
2199,A4,247.958,1.5,30,76.85
