,note_name,start_time,duration,velocity,tempo
0,C#3,0.0,2.0,34,96.93
1,G#4,0.5,26/125,39,96.93
2,F4,0.667,26/125,39,96.93
3,C#4,0.833,26/125,39,96.93
4,G#3,1.0,0.25,44,96.93
5,G#3,1.5,1.0,36,96.93
6,G#4,1.5,1.0,36,96.93
7,C#4,1.5,1.0,36,96.93
8,F4,1.5,1.0,36,96.93
9,G#2,2.0,0.5,34,96.93
10,D3,2.5,0.5,39,96.93
11,G#3,2.5,0.5,40,96.93
12,B3,2.5,0.5,40,96.93
13,G#4,2.5,0.5,40,96.93
14,F4,2.5,0.5,40,96.93
15,E-3,3.0,2.0,49,96.93
16,G#4,3.5,26/125,39,96.93
17,F#4,3.667,26/125,39,96.93
18,C4,3.833,26/125,39,96.93
19,G#3,4.0,0.25,44,96.93
20,F#4,4.5,1.0,38,96.93
21,G#4,4.5,1.0,38,96.93
22,C4,4.5,1.0,38,96.93
23,G#3,4.5,1.0,38,96.93
24,G#2,5.0,0.5,39,96.93
25,C3,5.5,0.5,35,96.93
26,G#3,5.5,0.5,36,96.93
27,G#4,5.5,0.5,36,96.93
28,E4,5.5,0.5,36,96.93
29,C#3,6.0,2.0,27,96.93
30,G#4,6.5,26/125,27,96.93
31,F4,6.667,26/125,27,96.93
32,C#4,6.833,26/125,27,96.93
33,G#3,7.0,0.25,30,96.93
34,F4,7.5,1.0,28,96.93
35,G#4,7.5,1.0,28,96.93
36,C#4,7.5,1.0,28,96.93
37,G#3,7.5,1.0,28,96.93
38,G#2,8.0,0.5,27,96.93
39,D3,8.5,0.5,31,96.93
40,G#3,8.5,0.5,26,96.93
41,G#4,8.5,0.5,26,96.93
42,F4,8.5,0.5,26,96.93
43,B3,8.5,0.5,26,96.93
44,E-3,9.0,2.0,36,96.93
45,G#4,9.5,26/125,27,96.93
46,F#4,9.667,26/125,27,96.93
47,C4,9.833,26/125,27,96.93
48,G#3,10.0,0.25,30,96.93
49,C4,10.5,1.0,32,96.93
50,G#4,10.5,1.0,32,96.93
51,F#4,10.5,1.0,32,96.93
52,G#3,10.5,1.0,32,96.93
53,G#2,11.0,0.5,31,96.93
54,C3,11.5,229/500,34,96.93
55,G#4,11.5,229/500,31,96.93
56,E4,11.5,229/500,31,96.93
57,G#3,11.5,229/500,31,96.93
58,C#3,12.0,0.25,39,96.93
59,F5,12.0,0.5,46,96.93
60,F4,12.0,0.5,46,96.93
61,G3,12.5,26/125,32,96.93
62,G#3,12.667,26/125,32,96.93
63,C#4,12.833,167/1000,31,96.93
64,F4,13.0,1.5,46,96.93
65,F5,13.0,1.5,46,96.93
66,G#4,13.5,0.5,42,96.93
67,G#2,14.0,0.25,38,96.93
68,F5,14.5,0.5,41,96.93
69,F4,14.5,0.5,41,96.93
70,C#4,14.5,0.25,34,96.93
71,G#4,14.5,0.25,34,96.93
72,G#3,14.5,0.25,34,96.93
73,C#3,15.0,0.25,39,96.93
74,F4,15.0,0.75,46,96.93
75,F5,15.0,0.75,46,96.93
76,G3,15.5,26/125,32,96.93
77,G#3,15.667,26/125,32,96.93
78,G#5,15.75,0.25,43,96.93
79,G#4,15.75,0.25,43,96.93
80,C#4,15.833,26/125,31,96.93
81,F4,16.0,0.25,38,96.93
82,G#5,16.0,2.0,43,96.93
83,G#4,16.0,2.0,43,96.93
84,G#3,16.5,0.5,40,96.93
85,F4,16.5,0.5,40,96.93
86,C#4,16.5,0.5,40,96.93
87,G#2,17.0,0.25,38,96.93
88,C#4,17.5,0.25,30,96.93
89,F4,17.5,0.25,30,96.93
90,G#3,17.5,0.25,30,96.93
91,E-3,18.0,0.25,46,96.93
92,G3,18.5,26/125,38,96.93
93,F#5,18.5,271/500,55,96.93
94,F#4,18.5,271/500,55,96.93
95,G#3,18.667,26/125,38,96.93
96,C4,18.833,26/125,37,96.93
97,F#4,19.0,0.25,45,96.93
98,G#5,19.0,271/500,58,96.93
99,G#4,19.0,271/500,58,96.93
100,B-4,19.5,271/500,61,96.93
101,B-5,19.5,271/500,61,96.93
102,G#3,19.5,0.5,49,96.93
103,F#4,19.5,0.5,49,96.93
104,C4,19.5,0.5,49,96.93
105,G#2,20.0,0.25,47,96.93
106,C#5,20.0,271/500,64,96.93
107,C#6,20.0,271/500,64,96.93
108,C5,20.5,0.5,62,96.93
109,C6,20.5,0.5,62,96.93
110,F#4,20.5,0.25,38,96.93
111,G#3,20.5,0.25,38,96.93
112,C4,20.5,0.25,38,96.93
113,E-3,21.0,0.25,53,96.93
114,E-5,21.0,271/500,71,96.93
115,E-6,21.0,271/500,71,96.93
116,C5,21.0,21/500,62,96.93
117,C6,21.0,21/500,62,96.93
118,G3,21.5,26/125,38,96.93
119,B-4,21.5,271/500,56,96.93
120,B-5,21.5,271/500,56,96.93
121,G#3,21.667,26/125,38,96.93
122,C4,21.833,26/125,37,96.93
123,F#4,22.0,0.25,45,96.93
124,G#5,22.0,2.0,55,96.93
125,G#4,22.0,2.0,55,96.93
126,G#3,22.5,0.5,43,96.93
127,F#4,22.5,0.5,43,96.93
128,C4,22.5,0.5,43,96.93
129,G#2,23.0,0.25,37,96.93
130,C4,23.5,0.25,36,96.93
131,G#3,23.5,0.25,36,96.93
132,F#4,23.5,0.25,36,96.93
133,C#3,24.0,0.25,46,96.93
134,F5,24.0,0.5,53,96.93
135,F4,24.0,0.5,53,96.93
136,G3,24.5,26/125,38,96.93
137,G#3,24.667,26/125,38,96.93
138,C#4,24.833,167/1000,37,96.93
139,F5,25.0,1.5,53,96.93
140,F4,25.0,1.5,53,96.93
141,G#4,25.5,0.5,50,96.93
142,G#2,26.0,0.25,45,96.93
143,F5,26.5,0.5,49,96.93
144,F4,26.5,0.5,49,96.93
145,G#4,26.5,0.25,40,96.93
146,C#4,26.5,0.25,40,96.93
147,G#3,26.5,0.25,40,96.93
148,C#3,27.0,0.25,46,96.93
149,F4,27.0,0.75,55,96.93
150,F5,27.0,0.75,55,96.93
151,G3,27.5,26/125,38,96.93
152,G#3,27.667,26/125,38,96.93
153,G#5,27.75,0.25,51,96.93
154,G#4,27.75,0.25,51,96.93
155,C#4,27.833,26/125,37,96.93
156,F4,28.0,0.25,45,96.93
157,G#4,28.0,2.0,51,96.93
158,G#5,28.0,2.0,51,96.93
159,C#4,28.5,0.5,48,96.93
160,F4,28.5,0.5,48,96.93
161,G#3,28.5,0.5,48,96.93
162,G#2,29.0,0.25,45,96.93
163,F4,29.5,0.25,36,96.93
164,G#3,29.5,0.25,36,96.93
165,C#4,29.5,0.25,36,96.93
166,E-3,30.0,0.25,46,96.93
167,G3,30.5,26/125,38,96.93
168,F#5,30.5,271/500,55,96.93
169,F#4,30.5,271/500,55,96.93
170,G#3,30.667,26/125,38,96.93
171,C4,30.833,26/125,37,96.93
172,F#4,31.0,0.25,45,96.93
173,G#4,31.0,271/500,58,96.93
174,G#5,31.0,271/500,58,96.93
175,B-5,31.5,271/500,61,96.93
176,B-4,31.5,271/500,61,96.93
177,C4,31.5,0.5,49,96.93
178,F#4,31.5,0.5,49,96.93
179,G#3,31.5,0.5,49,96.93
180,G#2,32.0,0.25,47,96.93
181,C#5,32.0,271/500,64,96.93
182,C#6,32.0,271/500,64,96.93
183,C6,32.5,0.5,62,96.93
184,C5,32.5,0.5,62,96.93
185,C4,32.5,0.25,38,96.93
186,F#4,32.5,0.25,38,96.93
187,G#3,32.5,0.25,38,96.93
188,E-3,33.0,0.25,53,96.93
189,F#5,33.0,271/500,64,96.93
190,F#6,33.0,271/500,64,96.93
191,C6,33.0,21/500,62,96.93
192,C5,33.0,21/500,62,96.93
193,G3,33.5,26/125,38,96.93
194,B-4,33.5,271/500,56,96.93
195,B-5,33.5,271/500,56,96.93
196,G#3,33.667,26/125,38,96.93
197,C4,33.833,26/125,37,96.93
198,F#4,34.0,0.25,45,96.93
199,G#4,34.0,2.0,55,96.93
200,G#5,34.0,2.0,55,96.93
201,C4,34.5,0.5,43,96.93
202,G#3,34.5,0.5,43,96.93
203,F#4,34.5,0.5,43,96.93
204,G#2,35.0,0.25,37,96.93
205,E4,35.5,0.25,36,96.93
206,G#3,35.5,0.25,36,96.93
207,C4,35.5,0.25,36,96.93
208,F3,36.0,0.25,50,96.93
209,C#6,36.0,0.5,58,96.93
210,C#5,36.0,0.5,58,96.93
211,A3,36.5,26/125,41,96.93
212,C#4,36.667,26/125,41,96.93
213,F4,36.833,167/1000,40,96.93
214,A4,37.0,0.25,55,96.93
215,C#5,37.0,1.5,58,96.93
216,C#6,37.0,1.5,58,96.93
217,F4,37.5,0.5,49,96.93
218,C#4,37.5,0.5,49,96.93
219,F3,38.0,0.25,49,96.93
220,C6,38.5,0.5,53,96.93
221,C5,38.5,0.5,53,96.93
222,A3,38.5,0.25,44,96.93
223,E-4,38.5,0.25,44,96.93
224,F#3,39.0,0.25,50,96.93
225,C6,39.0,1.0,58,96.93
226,C5,39.0,1.0,58,96.93
227,C4,39.5,26/125,41,96.93
228,C#4,39.667,26/125,41,96.93
229,F#4,39.833,167/1000,40,96.93
230,B-5,40.0,0.5,55,96.93
231,B-4,40.0,0.5,55,96.93
232,D4,40.5,0.5,55,96.93
233,F5,40.5,0.5,55,96.93
234,F4,40.5,0.5,55,96.93
235,D3,41.0,0.25,49,96.93
236,G#4,41.0,0.5,58,96.93
237,G#5,41.0,0.5,58,96.93
238,B-5,41.5,0.5,53,96.93
239,B-4,41.5,0.5,53,96.93
240,F4,41.5,0.25,44,96.93
241,B-3,41.5,0.25,44,96.93
242,E-3,42.0,0.25,50,96.93
243,G#5,42.0,1.0,58,96.93
244,G#4,42.0,1.0,58,96.93
245,A3,42.5,26/125,41,96.93
246,B-3,42.667,26/125,41,96.93
247,E-4,42.833,167/1000,40,96.93
248,F#4,43.0,0.5,58,96.93
249,F#5,43.0,0.5,58,96.93
250,B-3,43.5,1.5,50,96.93
251,B4,43.5,0.375,57,96.93
252,D5,43.5,0.375,57,96.93
253,B4,43.875,0.625,53,96.93
254,F#5,44.0,0.5,58,96.93
255,B-4,44.0,0.5,46,96.93
256,G#4,44.5,0.5,43,96.93
257,B4,44.5,0.375,54,96.93
258,F5,44.5,0.375,54,96.93
259,F#4,44.875,0.125,41,96.93
260,F5,45.0,1.0,56,96.93
261,F#4,45.0,3.0,41,96.93
262,E-3,45.0,0.25,46,96.93
263,A3,45.5,26/125,38,96.93
264,B-3,45.667,26/125,38,96.93
265,B3,45.833,167/1000,37,96.93
266,B-3,45.987,0.5,50,96.93
267,E-5,46.0,2.0,56,96.93
268,D4,46.506,0.5,50,96.93
269,F4,47.006,0.5,55,96.93
270,E-4,47.506,247/500,51,96.93
271,E-2,48.0,0.25,46,96.93
272,E-4,48.0,3/500,51,96.93
273,G4,48.0,0.5,50,96.93
274,C#5,48.0,0.5,50,96.93
275,F4,48.0,0.5,50,96.93
276,D3,48.5,26/125,38,96.93
277,G4,48.5,0.5,48,96.93
278,E-4,48.5,0.5,48,96.93
279,C5,48.5,0.5,48,96.93
280,E-3,48.667,26/125,38,96.93
281,F3,48.833,167/1000,37,96.93
282,E-3,49.0,0.25,50,96.93
283,C#4,49.0,1.0,48,96.93
284,C5,49.0,1.0,48,96.93
285,G4,49.0,1.0,48,96.93
286,E-3,49.5,1.0,50,96.93
287,C#4,50.0,0.375,50,96.93
288,G4,50.0,0.375,50,96.93
289,B-4,50.0,0.375,50,96.93
290,C#4,50.375,0.625,35,96.93
291,G4,50.438,0.562,42,96.93
292,E-5,50.5,0.5,55,96.93
293,E-3,50.5,0.5,46,96.93
294,C4,51.0,0.5,49,96.93
295,E-3,51.0,3.0,49,96.93
296,E-4,51.0,0.5,54,96.93
297,G#4,51.0,0.5,54,96.93
298,C#4,51.5,0.5,46,96.93
299,F4,51.5,0.5,49,96.93
300,B-4,51.5,0.5,49,96.93
301,F4,52.0,0.5,49,96.93
302,C#5,52.0,0.5,54,96.93
303,G#4,52.0,0.5,54,96.93
304,E-4,52.5,0.5,45,96.93
305,G4,52.5,0.375,50,96.93
306,C5,52.5,0.375,50,96.93
307,G#4,52.875,0.625,50,96.93
308,E-5,53.0,0.5,55,96.93
309,G4,53.0,0.5,48,96.93
310,E-4,53.5,0.5,45,96.93
311,C5,53.5,0.375,50,96.93
312,G4,53.5,0.375,50,96.93
313,C#4,53.875,0.125,41,96.93
314,G4,53.938,0.062,41,96.93
315,C#5,54.0,1.0,56,96.93
316,C#4,54.0,1.0,41,96.93
317,G4,54.0,1.0,41,96.93
318,E-3,54.0,0.25,46,96.93
319,D4,54.5,26/125,38,96.93
320,E-4,54.667,26/125,38,96.93
321,F4,54.833,167/1000,37,96.93
322,E-4,55.0,0.25,43,96.93
323,G4,55.0,1.0,55,96.93
324,F4,55.0,1.0,55,96.93
325,C#5,55.0,1.0,55,96.93
326,E-4,55.5,1.0,50,96.93
327,C#4,56.0,1.0,52,96.93
328,C5,56.0,1.0,52,96.93
329,G4,56.0,1.0,52,96.93
330,E-4,56.5,0.5,46,96.93
331,C4,57.0,0.5,49,96.93
332,G#3,57.0,3.0,49,96.93
333,G#4,57.0,0.5,51,96.93
334,E-4,57.0,0.5,51,96.93
335,C#4,57.5,0.5,46,96.93
336,F4,57.5,0.5,51,96.93
337,B-4,57.5,0.5,51,96.93
338,E-4,58.0,0.5,49,96.93
339,C5,58.0,0.5,56,96.93
340,F#4,58.0,0.5,56,96.93
341,B-4,58.5,0.5,50,96.93
342,C5,58.5,0.5,56,96.93
343,F#5,58.5,0.5,56,96.93
344,G#4,59.0,0.5,50,96.93
345,C5,59.0,0.5,55,96.93
346,F5,59.0,0.5,55,96.93
347,F#4,59.5,0.5,47,96.93
348,C5,59.5,0.5,50,96.93
349,E5,59.5,0.5,50,96.93
350,C#3,60.0,0.25,55,96.93
351,F4,60.0,0.5,53,96.93
352,F5,60.0,0.5,53,96.93
353,G3,60.5,26/125,49,96.93
354,G#3,60.667,26/125,49,96.93
355,C#4,60.833,167/1000,48,96.93
356,F4,61.0,1.5,58,96.93
357,F5,61.0,1.5,58,96.93
358,G#4,61.5,0.5,61,96.93
359,G#2,62.0,0.25,59,96.93
360,F5,62.5,0.5,60,96.93
361,F4,62.5,0.5,60,96.93
362,C#4,62.5,0.25,52,96.93
363,G#3,62.5,0.25,52,96.93
364,G#4,62.5,0.25,52,96.93
365,C#3,63.0,0.25,60,96.93
366,F4,63.0,0.75,64,96.93
367,F5,63.0,0.75,64,96.93
368,G3,63.5,26/125,49,96.93
369,G#3,63.667,26/125,49,96.93
370,G#4,63.75,0.25,64,96.93
371,G#5,63.75,0.25,64,96.93
372,C#4,63.833,26/125,48,96.93
373,F4,64.0,0.25,60,96.93
374,G#4,64.0,2.0,64,96.93
375,G#5,64.0,2.0,64,96.93
376,G#3,64.5,0.5,57,96.93
377,F4,64.5,0.5,57,96.93
378,C#4,64.5,0.5,57,96.93
379,G#2,65.0,0.25,61,96.93
380,C#4,65.5,0.25,49,96.93
381,G#3,65.5,0.25,49,96.93
382,F4,65.5,0.25,49,96.93
383,E-3,66.0,0.25,57,96.93
384,G3,66.5,26/125,47,96.93
385,F#5,66.5,271/500,65,96.93
386,F#4,66.5,271/500,65,96.93
387,G#3,66.667,26/125,47,96.93
388,C4,66.833,26/125,46,96.93
389,F#4,67.0,0.25,56,96.93
390,G#4,67.0,271/500,67,96.93
391,G#5,67.0,271/500,67,96.93
392,B-5,67.5,271/500,70,96.93
393,B-4,67.5,271/500,70,96.93
394,G#3,67.5,0.5,59,96.93
395,F#4,67.5,0.5,59,96.93
396,C4,67.5,0.5,59,96.93
397,G#2,68.0,0.25,56,96.93
398,C#5,68.0,271/500,73,96.93
399,C#6,68.0,271/500,73,96.93
400,C6,68.5,0.5,68,96.93
401,C5,68.5,0.5,68,96.93
402,F#4,68.5,0.25,44,96.93
403,G#3,68.5,0.25,44,96.93
404,C4,68.5,0.25,44,96.93
405,E-3,69.0,0.25,60,96.93
406,E-6,69.0,271/500,78,96.93
407,E-5,69.0,271/500,78,96.93
408,C6,69.0,21/500,68,96.93
409,C5,69.0,21/500,68,96.93
410,G3,69.5,26/125,47,96.93
411,B-4,69.5,271/500,66,96.93
412,B-5,69.5,271/500,66,96.93
413,G#3,69.667,26/125,47,96.93
414,C4,69.833,26/125,44,96.93
415,F#4,70.0,0.25,55,96.93
416,G#5,70.0,2.0,62,96.93
417,G#4,70.0,2.0,62,96.93
418,G#3,70.5,0.5,51,96.93
419,F#4,70.5,0.5,51,96.93
420,C4,70.5,0.5,51,96.93
421,G#2,71.0,0.25,42,96.93
422,C4,71.5,0.25,40,96.93
423,F#4,71.5,0.25,40,96.93
424,G#3,71.5,0.25,40,96.93
425,C#3,72.0,0.25,39,96.93
426,F5,72.0,0.5,45,96.93
427,F4,72.0,0.5,45,96.93
428,G3,72.5,26/125,32,96.93
429,G#3,72.667,26/125,32,96.93
430,C#4,72.833,167/1000,31,96.93
431,F4,73.0,1.5,45,96.93
432,F5,73.0,1.5,45,96.93
433,G#4,73.5,0.5,42,96.93
434,G#2,74.0,0.25,38,96.93
435,F4,74.5,0.5,41,96.93
436,F5,74.5,0.5,41,96.93
437,G#4,74.5,0.25,34,96.93
438,G#3,74.5,0.25,34,96.93
439,C#4,74.5,0.25,34,96.93
440,C#3,75.0,0.25,39,96.93
441,F4,75.0,0.75,46,96.93
442,F5,75.0,0.75,46,96.93
443,G3,75.5,26/125,32,96.93
444,G#3,75.667,26/125,32,96.93
445,G#4,75.75,0.25,43,96.93
446,G#5,75.75,0.25,43,96.93
447,C#4,75.833,26/125,31,96.93
448,F4,76.0,0.25,38,96.93
449,G#5,76.0,2.0,43,96.93
450,G#4,76.0,2.0,43,96.93
451,C#4,76.5,0.5,40,96.93
452,G#3,76.5,0.5,40,96.93
453,F4,76.5,0.5,40,96.93
454,G#2,77.0,0.25,38,96.93
455,F4,77.5,0.25,30,96.93
456,G#3,77.5,0.25,30,96.93
457,C#4,77.5,0.25,30,96.93
458,E-3,78.0,0.25,46,96.93
459,G3,78.5,26/125,38,96.93
460,F#5,78.5,271/500,55,96.93
461,F#4,78.5,271/500,55,96.93
462,G#3,78.667,26/125,38,96.93
463,C4,78.833,26/125,37,96.93
464,F#4,79.0,0.25,45,96.93
465,G#5,79.0,271/500,57,96.93
466,G#4,79.0,271/500,57,96.93
467,B-5,79.5,271/500,59,96.93
468,B-4,79.5,271/500,59,96.93
469,C4,79.5,0.5,48,96.93
470,G#3,79.5,0.5,48,96.93
471,F#4,79.5,0.5,48,96.93
472,G#2,80.0,0.25,45,96.93
473,C#5,80.0,271/500,61,96.93
474,C#6,80.0,271/500,61,96.93
475,C6,80.5,0.5,58,96.93
476,C5,80.5,0.5,58,96.93
477,C4,80.5,0.25,36,96.93
478,G#3,80.5,0.25,36,96.93
479,F#4,80.5,0.25,36,96.93
480,E-3,81.0,0.25,49,96.93
481,F#5,81.0,271/500,65,96.93
482,F#6,81.0,271/500,65,96.93
483,C6,81.0,21/500,58,96.93
484,C5,81.0,21/500,58,96.93
485,G3,81.5,26/125,38,96.93
486,B-4,81.5,271/500,56,96.93
487,B-5,81.5,271/500,56,96.93
488,G#3,81.667,26/125,38,96.93
489,C4,81.833,26/125,37,96.93
490,F#4,82.0,0.25,45,96.93
491,G#4,82.0,1.0,55,96.93
492,G#5,82.0,1.0,55,96.93
493,C4,82.5,0.5,43,96.93
494,F#4,82.5,0.5,43,96.93
495,G#3,82.5,0.5,43,96.93
496,B2,83.0,1.0,33,96.93
497,A4,83.0,271/500,35,96.93
498,E-5,83.0,271/500,35,96.93
499,G#5,83.0,271/500,35,96.93
500,B-3,83.375,0.125,23,96.93
501,G5,83.5,0.5,37,96.93
502,B3,83.5,0.25,28,96.93
503,E3,84.0,0.25,42,96.93
504,G#4,84.0,0.5,47,96.93
505,G#5,84.0,0.5,47,96.93
506,B-3,84.5,26/125,36,96.93
507,B3,84.667,26/125,36,96.93
508,C#4,84.833,167/1000,36,96.93
509,B3,85.0,0.25,49,96.93
510,G#4,85.0,1.5,52,96.93
511,G#5,85.0,1.5,52,96.93
512,B3,85.5,0.5,44,96.93
513,B2,86.0,0.25,44,96.93
514,G#5,86.5,0.5,53,96.93
515,G#4,86.5,0.5,53,96.93
516,B3,86.5,0.25,44,96.93
517,F3,86.5,0.25,44,96.93
518,D4,86.5,0.25,44,96.93
519,F#3,87.0,0.25,50,96.93
520,B4,87.0,0.5,55,96.93
521,B5,87.0,0.5,55,96.93
522,B-3,87.5,26/125,41,96.93
523,A4,87.5,0.5,55,96.93
524,A5,87.5,0.5,55,96.93
525,B3,87.667,26/125,41,96.93
526,C#4,87.833,167/1000,40,96.93
527,B3,88.0,0.25,55,96.93
528,C#6,88.0,0.5,62,96.93
529,C#5,88.0,0.5,62,96.93
530,B3,88.5,0.5,56,96.93
531,E-5,88.5,0.5,58,96.93
532,E-6,88.5,0.5,58,96.93
533,B2,89.0,0.25,51,96.93
534,G#5,89.0,0.5,68,96.93
535,G#6,89.0,0.5,68,96.93
536,F#5,89.5,0.5,64,96.93
537,F#6,89.5,0.5,64,96.93
538,E-4,89.5,0.25,47,96.93
539,B3,89.5,0.25,47,96.93
540,A4,89.5,0.25,47,96.93
541,E3,90.0,0.25,42,96.93
542,G#5,90.0,0.5,49,96.93
543,G#4,90.0,0.5,49,96.93
544,B-3,90.5,26/125,34,96.93
545,B3,90.667,26/125,34,96.93
546,C#4,90.833,167/1000,34,96.93
547,B3,91.0,0.25,46,96.93
548,G#4,91.0,1.5,49,96.93
549,G#5,91.0,1.5,49,96.93
550,B3,91.5,0.5,41,96.93
551,B2,92.0,0.25,41,96.93
552,G#5,92.5,0.5,45,96.93
553,G#4,92.5,0.5,45,96.93
554,B3,92.5,0.25,37,96.93
555,F3,92.5,0.25,37,96.93
556,D4,92.5,0.25,37,96.93
557,F#3,93.0,0.25,42,96.93
558,B5,93.0,0.5,49,96.93
559,B4,93.0,0.5,49,96.93
560,B-3,93.5,26/125,34,96.93
561,A5,93.5,0.5,49,96.93
562,A4,93.5,0.5,49,96.93
563,B3,93.667,26/125,34,96.93
564,C#4,93.833,167/1000,34,96.93
565,B3,94.0,0.25,46,96.93
566,C#5,94.0,0.5,51,96.93
567,C#6,94.0,0.5,51,96.93
568,B3,94.5,0.5,46,96.93
569,E-5,94.5,0.375,48,96.93
570,E-6,94.5,0.375,48,96.93
571,G#5,94.875,0.625,48,96.93
572,G#6,95.0,0.5,55,96.93
573,B2,95.0,0.25,48,96.93
574,F#6,95.5,0.5,52,96.93
575,F#5,95.5,0.5,52,96.93
576,E-4,95.5,0.25,43,96.93
577,B3,95.5,0.25,43,96.93
578,A4,95.5,0.25,43,96.93
579,E4,96.0,0.5,69,96.93
580,G#5,96.0,1.0,58,96.93
581,G#4,96.0,1.0,58,96.93
582,E-4,96.5,26/125,56,96.93
583,E4,96.667,26/125,56,96.93
584,E-4,96.833,167/1000,56,96.93
585,D4,97.0,0.5,66,96.93
586,G#5,97.0,1.0,55,96.93
587,G#4,97.0,1.0,55,96.93
588,F#5,97.0,1.0,55,96.93
589,E-4,97.5,0.5,53,96.93
590,E5,98.0,1.0,66,96.93
591,C4,98.0,0.5,60,96.93
592,G#4,98.0,1.0,61,96.93
593,G#5,98.0,1.0,61,96.93
594,G#3,98.5,0.5,55,96.93
595,C#4,99.0,0.5,60,96.93
596,F5,99.5,0.5,66,96.93
597,A3,99.5,0.5,55,96.93
598,G#4,99.5,0.5,61,96.93
599,G#5,99.5,0.5,61,96.93
600,B-3,100.0,0.5,58,96.93
601,C5,100.0,0.5,54,96.93
602,F#4,100.0,0.5,54,96.93
603,E-5,100.0,0.5,54,96.93
604,F3,100.5,0.5,54,96.93
605,F4,100.5,0.5,58,96.93
606,C#5,100.5,0.5,58,96.93
607,F#3,101.0,0.5,57,96.93
608,C5,101.0,0.5,53,96.93
609,A4,101.0,0.5,53,96.93
610,E-4,101.0,0.5,53,96.93
611,C#4,101.5,0.5,56,96.93
612,B-4,101.5,0.5,56,96.93
613,D3,101.5,0.5,53,96.93
614,B3,101.5,0.5,53,96.93
615,G#4,102.0,0.5,53,96.93
616,F4,102.0,0.5,53,96.93
617,B-3,102.0,3.0,49,96.93
618,E-3,102.0,3.0,49,96.93
619,F#4,102.5,0.5,58,96.93
620,G#4,103.0,0.5,55,96.93
621,A4,103.5,0.5,55,96.93
622,B-4,104.0,0.5,60,96.93
623,C#5,104.5,0.5,65,96.93
624,F#4,105.0,0.375,58,96.93
625,G#2,105.0,0.5,50,96.93
626,C4,105.375,0.125,50,96.93
627,F#4,105.438,0.062,51,96.93
628,B-4,105.5,0.875,58,96.93
629,C4,105.5,0.875,50,96.93
630,F#4,105.5,0.875,51,96.93
631,G3,105.5,26/125,41,96.93
632,G#3,105.667,26/125,41,96.93
633,B-3,105.833,167/1000,40,96.93
634,G#3,106.0,0.5,50,96.93
635,F#4,106.375,2.125,48,96.93
636,F5,106.5,1.5,58,96.93
637,G#3,106.5,0.5,50,96.93
638,G#2,107.0,1.0,46,96.93
639,G#3,107.5,0.5,43,96.93
640,C5,108.0,0.5,53,96.93
641,C#3,108.0,2.0,40,96.93
642,G#4,109.0,26/125,46,96.93
643,F4,109.167,26/125,46,96.93
644,C#4,109.333,26/125,46,96.93
645,G#3,109.5,0.25,52,96.93
646,G#2,110.0,0.5,40,96.93
647,C#4,110.0,1.0,43,96.93
648,G#4,110.0,1.0,43,96.93
649,F4,110.0,1.0,43,96.93
650,G#3,110.0,1.0,43,96.93
651,D3,110.5,0.5,47,96.93
652,E-3,111.0,2.0,58,96.93
653,F4,111.0,0.5,47,96.93
654,G#4,111.0,0.5,47,96.93
655,B3,111.0,0.5,47,96.93
656,G#3,111.0,0.5,47,96.93
657,G#4,112.0,26/125,46,96.93
658,F#4,112.167,26/125,46,96.93
659,C4,112.333,26/125,46,96.93
660,G#3,112.5,0.25,52,96.93
661,G#2,113.0,0.5,47,96.93
662,G#3,113.0,1.0,46,96.93
663,C4,113.0,1.0,46,96.93
664,F#4,113.0,1.0,46,96.93
665,G#4,113.0,1.0,46,96.93
666,C3,113.5,0.5,42,96.93
667,C#3,114.0,2.0,27,96.93
668,E4,114.0,0.5,43,96.93
669,G#3,114.0,0.5,43,96.93
670,G#4,114.0,0.5,43,96.93
671,G#4,115.0,26/125,27,96.93
672,F4,115.167,26/125,27,96.93
673,C#4,115.333,26/125,27,96.93
674,G#3,115.5,0.25,30,96.93
675,G#2,116.0,0.5,27,96.93
676,G#3,116.0,1.0,27,96.93
677,C#4,116.0,1.0,27,96.93
678,F4,116.0,1.0,27,96.93
679,G#4,116.0,1.0,27,96.93
680,D3,116.5,0.5,31,96.93
681,E-3,117.0,2.0,36,96.93
682,B3,117.0,0.5,26,96.93
683,G#4,117.0,0.5,26,96.93
684,F4,117.0,0.5,26,96.93
685,G#3,117.0,0.5,26,96.93
686,G#4,118.0,26/125,27,96.93
687,F#4,118.167,26/125,27,96.93
688,C4,118.333,26/125,27,96.93
689,G#3,118.5,0.25,30,96.93
690,G#2,119.0,0.5,31,96.93
691,G#3,119.0,1.0,31,96.93
692,C4,119.0,1.0,31,96.93
693,G#4,119.0,1.0,31,96.93
694,F#4,119.0,1.0,31,96.93
695,C3,119.5,0.5,34,96.93
696,C#4,120.0,0.5,63,96.93
697,G#3,120.0,0.5,31,96.93
698,E4,120.0,0.5,31,96.93
699,G#4,120.0,0.5,31,96.93
700,B3,120.5,26/125,56,96.93
701,E4,120.5,0.25,40,96.93
702,G#4,120.5,0.25,40,96.93
703,C#4,120.667,26/125,56,96.93
704,B3,120.833,167/1000,56,96.93
705,A3,121.0,0.5,62,96.93
706,E4,121.0,0.25,41,96.93
707,G#4,121.0,0.25,41,96.93
708,B3,121.5,0.5,56,96.93
709,E4,121.5,0.25,40,96.93
710,G#4,121.5,0.25,40,96.93
711,C#4,122.0,0.5,63,96.93
712,E4,122.0,0.25,42,96.93
713,G#4,122.0,0.25,42,96.93
714,E-4,122.5,0.5,58,96.93
715,E4,122.5,0.25,45,96.93
716,G#4,122.5,0.25,45,96.93
717,C#4,123.0,0.5,68,96.93
718,E4,123.0,0.25,48,96.93
719,G#4,123.0,0.25,48,96.93
720,C4,123.5,26/125,52,96.93
721,E4,123.5,0.25,50,96.93
722,G#4,123.5,0.25,50,96.93
723,C#4,123.667,26/125,52,96.93
724,C4,123.833,167/1000,52,96.93
725,G#3,124.0,2.0,57,96.93
726,E4,124.0,0.25,45,96.93
727,G#4,124.0,0.25,45,96.93
728,E4,124.5,0.25,47,96.93
729,G#4,124.5,0.25,47,96.93
730,E4,125.0,0.25,32,96.93
731,G#4,125.0,0.25,32,96.93
732,E4,125.5,0.25,29,96.93
733,G#4,125.5,0.25,29,96.93
734,C#4,126.0,0.5,34,96.93
735,E4,126.0,0.25,28,96.93
736,G#4,126.0,0.25,28,96.93
737,E5,126.5,3.0,33,96.93
738,B3,126.5,26/125,30,96.93
739,E4,126.5,0.25,24,96.93
740,G#4,126.5,0.25,24,96.93
741,C#4,126.667,26/125,30,96.93
742,B3,126.833,167/1000,30,96.93
743,A3,127.0,0.5,33,96.93
744,E4,127.0,0.25,24,96.93
745,G#4,127.0,0.25,24,96.93
746,B3,127.5,0.5,30,96.93
747,E4,127.5,0.25,24,96.93
748,G#4,127.5,0.25,24,96.93
749,C#4,128.0,0.5,34,96.93
750,E4,128.0,0.25,24,96.93
751,G#4,128.0,0.25,24,96.93
752,E-4,128.5,0.5,31,96.93
753,E4,128.5,0.25,27,96.93
754,G#4,128.5,0.25,27,96.93
755,C#4,129.0,0.5,39,96.93
756,E4,129.0,0.25,28,96.93
757,G#4,129.0,0.25,28,96.93
758,E5,129.5,3.0,33,96.93
759,C4,129.5,26/125,28,96.93
760,E4,129.5,0.25,30,96.93
761,G#4,129.5,0.25,30,96.93
762,C#4,129.667,26/125,28,96.93
763,C4,129.833,167/1000,28,96.93
764,G#3,130.0,2.0,30,96.93
765,E4,130.0,0.25,27,96.93
766,G#4,130.0,0.25,27,96.93
767,E4,130.5,0.25,27,96.93
768,G#4,130.5,0.25,27,96.93
769,E4,131.0,0.25,23,96.93
770,G#4,131.0,0.25,23,96.93
771,E4,131.5,0.25,21,96.93
772,G#4,131.5,0.25,21,96.93
773,E4,132.0,0.25,21,96.93
774,G#4,132.0,0.25,21,96.93
775,F#3,132.0,2.0,49,96.93
776,C#4,132.0,2.0,49,96.93
777,A4,132.5,2.0,54,96.93
778,E5,132.5,0.5,73,96.93
779,E-5,133.0,26/125,64,96.93
780,E5,133.167,26/125,63,96.93
781,E-5,133.333,167/1000,63,96.93
782,C#5,133.5,0.5,74,96.93
783,E-5,134.0,0.5,63,96.93
784,C#3,134.0,1.0,47,96.93
785,G#3,134.0,1.0,47,96.93
786,E4,134.5,1.0,50,96.93
787,E5,134.5,0.5,70,96.93
788,C#5,135.0,0.5,62,96.93
789,F#3,135.0,2.0,37,96.93
790,C#4,135.0,2.0,37,96.93
791,A4,135.5,2.0,38,96.93
792,E5,135.5,0.5,47,96.93
793,E-5,136.0,26/125,42,96.93
794,E5,136.167,26/125,41,96.93
795,E-5,136.333,167/1000,41,96.93
796,C#5,136.5,0.5,48,96.93
797,E-5,137.0,0.5,41,96.93
798,C#3,137.0,1.0,33,96.93
799,G#3,137.0,1.0,33,96.93
800,E4,137.5,1.0,35,96.93
801,E5,137.5,0.5,45,96.93
802,C#5,138.0,0.5,40,96.93
803,G#3,138.0,3.0,37,96.93
804,E-4,138.0,0.5,41,96.93
805,E4,138.5,1.0,38,96.93
806,B4,138.5,0.5,47,96.93
807,C#4,138.5,0.5,37,96.93
808,A4,139.0,26/125,42,96.93
809,C4,139.0,1.0,41,96.93
810,B4,139.167,26/125,41,96.93
811,A4,139.333,167/1000,41,96.93
812,E-4,139.5,0.5,35,96.93
813,G#4,139.5,1.0,48,96.93
814,E-4,140.0,0.5,39,96.93
815,C#4,140.0,0.5,34,96.93
816,E-4,140.5,0.5,36,96.93
817,E4,140.5,0.5,44,96.93
818,A4,140.5,0.5,44,96.93
819,E4,141.0,0.5,39,96.93
820,G#3,141.0,2.5,37,96.93
821,F#4,141.0,0.5,46,96.93
822,B4,141.0,0.5,46,96.93
823,E-4,141.5,0.5,36,96.93
824,G#4,141.5,0.5,49,96.93
825,C#5,141.5,0.5,49,96.93
826,C#4,142.0,0.5,39,96.93
827,F#4,142.0,0.5,46,96.93
828,B4,142.0,0.5,46,96.93
829,E-4,142.5,0.5,34,96.93
830,E4,142.5,0.5,46,96.93
831,A4,142.5,0.5,46,96.93
832,C4,143.0,0.5,37,96.93
833,F#4,143.0,0.5,44,96.93
834,B4,143.0,0.5,44,96.93
835,G#3,143.5,0.5,34,96.93
836,E-4,143.5,1.0,42,96.93
837,G#4,143.5,1.0,42,96.93
838,C#4,144.0,0.5,48,96.93
839,B3,144.5,26/125,41,96.93
840,E4,144.5,0.25,30,96.93
841,G#4,144.5,0.25,30,96.93
842,C#4,144.667,26/125,41,96.93
843,B3,144.833,167/1000,41,96.93
844,A3,145.0,0.5,47,96.93
845,E4,145.0,0.25,30,96.93
846,G#4,145.0,0.25,30,96.93
847,B3,145.5,0.5,41,96.93
848,E4,145.5,0.25,30,96.93
849,G#4,145.5,0.25,30,96.93
850,C#4,146.0,0.5,48,96.93
851,E4,146.0,0.25,31,96.93
852,G#4,146.0,0.25,31,96.93
853,E-4,146.5,0.5,43,96.93
854,E4,146.5,0.25,34,96.93
855,G#4,146.5,0.25,34,96.93
856,C#4,147.0,0.5,53,96.93
857,E4,147.0,0.25,36,96.93
858,G#4,147.0,0.25,36,96.93
859,C4,147.5,26/125,39,96.93
860,E4,147.5,0.25,38,96.93
861,G#4,147.5,0.25,38,96.93
862,C#4,147.667,26/125,39,96.93
863,C4,147.833,167/1000,39,96.93
864,G#3,148.0,2.0,42,96.93
865,E4,148.0,0.25,34,96.93
866,G#4,148.0,0.25,34,96.93
867,E4,148.5,0.25,35,96.93
868,G#4,148.5,0.25,35,96.93
869,E4,149.0,0.25,25,96.93
870,G#4,149.0,0.25,25,96.93
871,E4,149.5,0.25,24,96.93
872,G#4,149.5,0.25,24,96.93
873,C#4,150.0,0.5,34,96.93
874,E4,150.0,0.25,23,96.93
875,G#4,150.0,0.25,23,96.93
876,E5,150.5,3.0,33,96.93
877,B3,150.5,26/125,30,96.93
878,E4,150.5,0.25,24,96.93
879,G#4,150.5,0.25,24,96.93
880,C#4,150.667,26/125,30,96.93
881,B3,150.833,167/1000,30,96.93
882,A3,151.0,0.5,33,96.93
883,E4,151.0,0.25,24,96.93
884,G#4,151.0,0.25,24,96.93
885,B3,151.5,0.5,30,96.93
886,E4,151.5,0.25,24,96.93
887,G#4,151.5,0.25,24,96.93
888,C#4,152.0,0.5,34,96.93
889,E4,152.0,0.25,24,96.93
890,G#4,152.0,0.25,24,96.93
891,E-4,152.5,0.5,31,96.93
892,E4,152.5,0.25,27,96.93
893,G#4,152.5,0.25,27,96.93
894,C#4,153.0,0.5,39,96.93
895,E4,153.0,0.25,28,96.93
896,G#4,153.0,0.25,28,96.93
897,E5,153.5,3.0,33,96.93
898,C4,153.5,26/125,28,96.93
899,E4,153.5,0.25,30,96.93
900,G#4,153.5,0.25,30,96.93
901,C#4,153.667,26/125,28,96.93
902,C4,153.833,167/1000,28,96.93
903,G#3,154.0,2.0,30,96.93
904,E4,154.0,0.25,27,96.93
905,G#4,154.0,0.25,27,96.93
906,E4,154.5,0.25,27,96.93
907,G#4,154.5,0.25,27,96.93
908,E4,155.0,0.25,23,96.93
909,G#4,155.0,0.25,23,96.93
910,E4,155.5,0.25,21,96.93
911,G#4,155.5,0.25,21,96.93
912,E4,156.0,0.25,21,96.93
913,G#4,156.0,0.25,21,96.93
914,F#3,156.0,2.0,50,96.93
915,C#4,156.0,2.0,50,96.93
916,A4,156.5,2.0,54,96.93
917,E5,156.5,0.5,73,96.93
918,E-5,157.0,26/125,64,96.93
919,E5,157.167,26/125,63,96.93
920,E-5,157.333,167/1000,63,96.93
921,C#5,157.5,0.5,74,96.93
922,E-5,158.0,0.5,63,96.93
923,C#3,158.0,1.0,47,96.93
924,G#3,158.0,1.0,47,96.93
925,E4,158.5,1.0,50,96.93
926,E5,158.5,0.5,70,96.93
927,C#5,159.0,0.5,62,96.93
928,F#3,159.0,2.0,37,96.93
929,C#4,159.0,2.0,37,96.93
930,A4,159.5,2.0,38,96.93
931,E5,159.5,0.5,47,96.93
932,E-5,160.0,26/125,42,96.93
933,E5,160.167,26/125,41,96.93
934,E-5,160.333,167/1000,41,96.93
935,C#5,160.5,0.5,48,96.93
936,E-5,161.0,0.5,41,96.93
937,C#3,161.0,1.0,33,96.93
938,G#3,161.0,1.0,33,96.93
939,E4,161.5,1.0,35,96.93
940,E5,161.5,0.5,45,96.93
941,C#5,162.0,0.5,40,96.93
942,B3,162.0,0.5,51,96.93
943,A3,162.5,26/125,46,96.93
944,C#4,162.5,0.5,34,96.93
945,E4,162.5,0.5,34,96.93
946,B3,162.667,26/125,45,96.93
947,A3,162.833,167/1000,45,96.93
948,G#3,163.0,1.0,52,96.93
949,C#4,163.0,0.5,30,96.93
950,E4,163.0,0.5,30,96.93
951,C4,163.5,0.5,34,96.93
952,E4,163.5,0.5,34,96.93
953,B3,164.0,0.5,41,96.93
954,C#4,164.0,0.5,30,96.93
955,E4,164.0,0.5,30,96.93
956,A3,164.5,0.25,39,96.93
957,E-4,164.5,0.5,48,96.93
958,G#4,164.5,0.5,48,96.93
959,G#2,164.75,0.25,37,96.93
960,F#3,164.812,0.188,45,96.93
961,G#2,165.0,1.0,37,96.93
962,F#3,165.0,1.0,45,96.93
963,C#4,165.0,0.25,44,96.93
964,F#4,165.0,0.25,44,96.93
965,A3,165.375,0.125,41,96.93
966,C4,165.438,0.062,41,96.93
967,E4,165.5,0.5,48,96.93
968,A3,165.5,1.0,41,96.93
969,C4,165.5,1.0,41,96.93
970,E-4,166.0,26/125,42,96.93
971,C#3,166.0,2.0,40,96.93
972,E3,166.0,0.5,40,96.93
973,E4,166.167,26/125,42,96.93
974,E-4,166.333,26/125,42,96.93
975,F#3,166.5,0.5,39,96.93
976,G#3,166.5,0.5,47,96.93
977,C#4,166.5,0.5,47,96.93
978,A3,167.0,0.375,45,96.93
979,E3,167.0,1.0,40,96.93
980,G#3,167.375,1.125,45,96.93
981,C#4,167.5,1.0,45,96.93
982,G#3,168.0,1.5,50,96.93
983,C4,168.5,0.5,36,96.93
984,E-4,168.5,0.5,36,96.93
985,C4,169.0,0.5,36,96.93
986,E-4,169.0,0.5,36,96.93
987,F#3,169.5,0.25,50,96.93
988,E-4,169.5,0.5,36,96.93
989,C#4,169.5,0.5,36,96.93
990,G#3,169.75,0.25,48,96.93
991,A3,170.0,0.25,52,96.93
992,C#4,170.0,0.5,36,96.93
993,E-4,170.0,0.5,36,96.93
994,B3,170.25,0.25,50,96.93
995,A3,170.5,0.25,50,96.93
996,C#4,170.5,0.5,41,96.93
997,E-4,170.5,0.5,41,96.93
998,F#3,170.75,0.25,46,96.93
999,G#3,171.0,0.5,52,96.93
1000,C#4,171.0,0.5,39,96.93
1001,E-4,171.0,0.5,39,96.93
1002,A3,171.5,26/125,47,96.93
1003,C4,171.5,0.5,45,96.93
1004,E-4,171.5,0.5,45,96.93
1005,B3,171.667,26/125,47,96.93
1006,A3,171.833,26/125,47,96.93
1007,C#4,172.0,0.5,45,96.93
1008,E-4,172.0,1.0,45,96.93
1009,G#3,172.0,0.5,52,96.93
1010,C4,172.5,0.5,45,96.93
1011,A4,172.5,26/125,54,96.93
1012,B4,172.667,26/125,54,96.93
1013,A4,172.833,26/125,55,96.93
1014,C#5,173.0,0.5,48,96.93
1015,E-5,173.0,1.0,48,96.93
1016,G#4,173.0,0.5,65,96.93
1017,C5,173.5,0.5,47,96.93
1018,G#5,174.0,0.5,63,96.93
1019,G#2,174.0,0.25,57,96.93
1020,G#5,174.5,1.0,66,96.93
1021,E-4,174.5,26/125,51,96.93
1022,A4,174.5,1.5,66,96.93
1023,C5,174.5,1.5,66,96.93
1024,E4,174.667,26/125,51,96.93
1025,E-4,174.833,26/125,51,96.93
1026,G#3,175.0,2.0,60,96.93
1027,F#5,175.5,0.5,62,96.93
1028,E-4,175.5,0.5,50,96.93
1029,G#4,176.0,0.5,53,96.93
1030,A4,176.0,0.5,58,96.93
1031,C5,176.0,0.5,58,96.93
1032,E5,176.5,0.5,63,96.93
1033,F#4,176.5,0.5,50,96.93
1034,A4,176.5,1.0,50,96.93
1035,C5,176.5,1.0,50,96.93
1036,E-5,177.0,0.5,57,96.93
1037,E4,177.0,0.5,56,96.93
1038,G#3,177.0,3.0,60,96.93
1039,G#4,177.5,0.5,52,96.93
1040,C#5,177.5,26/125,58,96.93
1041,E-4,177.5,0.25,52,96.93
1042,E-5,177.667,26/125,54,96.93
1043,C#4,177.75,0.25,52,96.93
1044,C#5,177.833,26/125,55,96.93
1045,C4,178.0,0.5,55,96.93
1046,F#4,178.0,73/250,55,96.93
1047,B4,178.0,73/250,55,96.93
1048,E4,178.25,73/250,54,96.93
1049,A4,178.25,73/250,54,96.93
1050,E-4,178.5,0.5,47,96.93
1051,G#4,178.5,1.0,53,96.93
1052,C#4,178.5,0.5,53,96.93
1053,E4,179.0,0.5,45,96.93
1054,C4,179.0,1.0,53,96.93
1055,E-4,179.5,1.0,52,96.93
1056,G#4,179.5,1.0,52,96.93
1057,G#3,180.0,1.5,45,96.93
1058,C4,180.5,0.5,32,96.93
1059,E-4,180.5,0.5,32,96.93
1060,C4,181.0,0.5,32,96.93
1061,E-4,181.0,0.5,32,96.93
1062,F#3,181.5,0.25,45,96.93
1063,E-4,181.5,0.5,32,96.93
1064,C#4,181.5,0.5,32,96.93
1065,G#3,181.75,0.25,43,96.93
1066,A3,182.0,0.25,46,96.93
1067,C#4,182.0,0.5,32,96.93
1068,E-4,182.0,0.5,32,96.93
1069,B3,182.25,0.25,45,96.93
1070,A3,182.5,0.25,45,96.93
1071,C#4,182.5,0.5,36,96.93
1072,E-4,182.5,0.5,36,96.93
1073,F#3,182.75,0.25,41,96.93
1074,G#3,183.0,0.5,46,96.93
1075,C#4,183.0,0.5,35,96.93
1076,E-4,183.0,0.5,35,96.93
1077,A3,183.5,26/125,42,96.93
1078,C4,183.5,0.5,40,96.93
1079,E-4,183.5,0.5,40,96.93
1080,B3,183.667,26/125,42,96.93
1081,A3,183.833,26/125,42,96.93
1082,C#4,184.0,0.5,40,96.93
1083,E-4,184.0,1.0,40,96.93
1084,G#3,184.0,0.5,46,96.93
1085,C4,184.5,0.5,40,96.93
1086,A4,184.5,26/125,48,96.93
1087,B4,184.667,26/125,48,96.93
1088,A4,184.833,26/125,48,96.93
1089,C#5,185.0,0.5,43,96.93
1090,E-5,185.0,1.0,43,96.93
1091,G#4,185.0,0.5,50,96.93
1092,C5,185.5,0.5,40,96.93
1093,B3,185.5,0.5,34,96.93
1094,A4,185.5,0.5,34,96.93
1095,E4,186.0,3.0,40,96.93
1096,G#4,186.0,1.0,40,96.93
1097,B4,186.0,0.5,43,96.93
1098,E-5,186.0,0.5,43,96.93
1099,B4,186.5,1.0,45,96.93
1100,E5,186.5,0.5,45,96.93
1101,E-5,187.0,26/125,42,96.93
1102,A4,187.0,1.0,40,96.93
1103,E5,187.167,26/125,42,96.93
1104,E-5,187.333,26/125,42,96.93
1105,C#5,187.5,0.75,45,96.93
1106,F#4,188.0,0.5,42,96.93
1107,C#5,188.25,0.25,42,96.93
1108,B4,188.5,0.75,48,96.93
1109,E-5,188.5,0.25,48,96.93
1110,A4,188.5,0.5,39,96.93
1111,F#5,188.75,0.25,45,96.93
1112,E-5,189.0,0.25,47,96.93
1113,A4,189.0,1.0,41,96.93
1114,E4,189.0,3.0,41,96.93
1115,B4,189.25,0.25,45,96.93
1116,C#5,189.5,0.25,46,96.93
1117,C#5,190.0,26/125,43,96.93
1118,G#4,190.0,0.5,41,96.93
1119,E-5,190.167,26/125,43,96.93
1120,C#5,190.333,26/125,43,96.93
1121,B4,190.5,0.25,46,96.93
1122,A4,190.5,0.5,39,96.93
1123,E5,190.75,0.25,42,96.93
1124,C#5,191.0,0.25,44,96.93
1125,G#4,191.0,1.0,39,96.93
1126,E-5,191.25,0.25,43,96.93
1127,B4,191.5,1.0,43,96.93
1128,A3,192.0,0.5,62,96.93
1129,C#4,192.5,1.0,53,96.93
1130,E-4,192.5,2.0,53,96.93
1131,A3,192.5,26/125,56,96.93
1132,B3,192.667,26/125,56,96.93
1133,A3,192.833,26/125,56,96.93
1134,G#3,193.0,0.5,62,96.93
1135,C4,193.5,1.0,53,96.93
1136,E-3,193.5,26/125,58,96.93
1137,G#3,193.75,26/125,58,96.93
1138,A3,194.0,0.5,62,96.93
1139,E-4,194.5,1.0,57,96.93
1140,C#4,194.5,1.0,57,96.93
1141,A3,194.5,26/125,56,96.93
1142,B3,194.667,26/125,56,96.93
1143,A3,194.833,167/1000,56,96.93
1144,G#3,195.0,0.5,62,96.93
1145,A3,195.0,21/500,56,96.93
1146,C4,195.5,0.5,53,96.93
1147,E-4,195.5,479/1000,57,96.93
1148,E-4,195.5,0.25,38,96.93
1149,E4,195.75,0.25,35,96.93
1150,E-6,196.0,0.25,48,96.93
1151,F#4,196.0,0.25,38,96.93
1152,E6,196.25,0.25,45,96.93
1153,G#4,196.25,0.25,35,96.93
1154,F#6,196.5,0.25,48,96.93
1155,F#4,196.5,0.25,35,96.93
1156,G#6,196.75,0.25,45,96.93
1157,E-4,196.75,0.25,35,96.93
1158,F#6,197.0,0.25,45,96.93
1159,C4,197.0,0.25,38,96.93
1160,E-6,197.25,0.25,45,96.93
1161,E4,197.25,0.25,35,96.93
1162,C6,197.5,0.25,48,96.93
1163,E-4,197.5,0.25,35,96.93
1164,E6,197.75,0.25,45,96.93
1165,A3,197.75,0.25,35,96.93
1166,E-6,198.0,0.25,45,96.93
1167,G#3,198.0,0.5,57,96.93
1168,A5,198.25,0.25,45,96.93
1169,G#5,198.5,0.5,55,96.93
1170,A3,198.5,26/125,56,96.93
1171,B3,198.667,26/125,56,96.93
1172,A3,198.833,26/125,56,96.93
1173,G#3,199.0,0.5,62,96.93
1174,E-3,199.5,26/125,58,96.93
1175,E-4,199.5,1.0,53,96.93
1176,C4,199.5,1.0,53,96.93
1177,G#3,199.75,26/125,58,96.93
1178,A3,200.0,0.5,62,96.93
1179,E-4,200.5,1.0,57,96.93
1180,C#4,200.5,1.0,57,96.93
1181,A3,200.5,26/125,56,96.93
1182,B3,200.667,26/125,56,96.93
1183,A3,200.833,167/1000,56,96.93
1184,G#3,201.0,0.5,62,96.93
1185,A3,201.0,21/500,56,96.93
1186,C4,201.5,0.5,53,96.93
1187,E-4,201.5,479/1000,57,96.93
1188,E-4,201.5,0.25,49,96.93
1189,E4,201.75,0.25,46,96.93
1190,E-6,202.0,0.25,62,96.93
1191,F#4,202.0,0.25,49,96.93
1192,E6,202.25,0.25,58,96.93
1193,G#4,202.25,0.25,46,96.93
1194,F#6,202.5,0.25,62,96.93
1195,F#4,202.5,0.25,46,96.93
1196,G#6,202.75,0.25,58,96.93
1197,E-4,202.75,0.25,46,96.93
1198,F#6,203.0,0.25,58,96.93
1199,C4,203.0,0.25,54,96.93
1200,E-6,203.25,0.25,58,96.93
1201,E4,203.25,0.25,48,96.93
1202,C6,203.5,0.25,66,96.93
1203,E-4,203.5,0.25,48,96.93
1204,E6,203.75,0.25,63,96.93
1205,A3,203.75,0.25,48,96.93
1206,E-6,204.0,0.25,61,96.93
1207,G#3,204.0,0.5,62,96.93
1208,A5,204.25,0.25,61,96.93
1209,G#5,204.5,0.5,66,96.93
1210,F#3,204.5,0.25,54,96.93
1211,G#3,204.75,0.25,50,96.93
1212,F#5,205.0,0.25,68,96.93
1213,A3,205.0,0.25,54,96.93
1214,G#5,205.25,0.25,63,96.93
1215,C#4,205.25,0.25,50,96.93
1216,A5,205.5,0.25,68,96.93
1217,B3,205.5,0.25,50,96.93
1218,C#6,205.75,0.25,63,96.93
1219,G#3,205.75,0.25,50,96.93
1220,B5,206.0,0.25,63,96.93
1221,F#3,206.0,0.25,54,96.93
1222,G#5,206.25,0.25,63,96.93
1223,A3,206.25,0.25,50,96.93
1224,F#5,206.5,0.25,68,96.93
1225,G#3,206.5,0.25,50,96.93
1226,A5,206.75,0.25,63,96.93
1227,E3,206.75,0.25,50,96.93
1228,G#5,207.0,0.25,63,96.93
1229,E-3,207.0,0.25,54,96.93
1230,E5,207.25,0.25,63,96.93
1231,E3,207.25,0.25,52,96.93
1232,E-5,207.5,0.25,68,96.93
1233,F#3,207.5,0.25,52,96.93
1234,E5,207.75,0.25,66,96.93
1235,G#3,207.75,0.25,52,96.93
1236,F#5,208.0,0.25,66,96.93
1237,F#3,208.0,0.25,57,96.93
1238,G#5,208.25,0.25,66,96.93
1239,E-3,208.25,0.25,55,96.93
1240,F#5,208.5,0.25,72,96.93
1241,E3,208.5,0.25,56,96.93
1242,E-5,208.75,0.25,69,96.93
1243,C#3,208.75,0.25,54,96.93
1244,E5,209.0,0.25,70,96.93
1245,E-3,209.0,0.25,54,96.93
1246,C#5,209.25,0.25,68,96.93
1247,B2,209.25,0.25,52,96.93
1248,E-5,209.5,0.25,68,96.93
1249,C#3,209.5,0.25,54,96.93
1250,B4,209.75,0.25,65,96.93
1251,A2,209.75,0.25,51,96.93
1252,C#5,210.0,0.25,68,96.93
1253,G#2,210.0,0.5,68,96.93
1254,A4,210.25,0.25,64,96.93
1255,G#4,210.5,0.5,68,96.93
1256,E-3,210.5,0.5,54,96.93
1257,A3,210.5,0.5,54,96.93
1258,C#4,211.0,0.5,68,96.93
1259,F#4,211.0,167/1000,68,96.93
1260,G#3,211.0,0.5,48,96.93
1261,C4,211.0,0.5,48,96.93
1262,G#4,211.167,167/1000,58,96.93
1263,A4,211.333,167/1000,57,96.93
1264,E-4,211.5,0.5,63,96.93
1265,G#4,211.5,167/1000,63,96.93
1266,E-3,211.5,0.5,52,96.93
1267,A3,211.5,0.5,52,96.93
1268,A4,211.667,167/1000,54,96.93
1269,G#4,211.833,167/1000,55,96.93
1270,C#4,212.0,0.5,68,96.93
1271,F#4,212.0,167/1000,68,96.93
1272,G#3,212.0,0.5,46,96.93
1273,C4,212.0,0.5,46,96.93
1274,G#4,212.167,167/1000,56,96.93
1275,A4,212.333,167/1000,56,96.93
1276,E-4,212.5,0.5,59,96.93
1277,G#4,212.5,167/1000,59,96.93
1278,E-3,212.5,0.5,50,96.93
1279,A3,212.5,0.5,50,96.93
1280,A4,212.667,167/1000,55,96.93
1281,G#4,212.833,167/1000,55,96.93
1282,C#4,213.0,0.5,65,96.93
1283,F#4,213.0,167/1000,65,96.93
1284,G#3,213.0,0.5,46,96.93
1285,C4,213.0,0.5,46,96.93
1286,G#4,213.167,167/1000,55,96.93
1287,A4,213.333,167/1000,55,96.93
1288,G#3,213.5,1.0,57,96.93
1289,E-4,213.5,0.5,68,96.93
1290,G#4,213.5,0.5,68,96.93
1291,G#3,214.5,1.0,65,96.93
1292,G#3,215.5,0.5,68,96.93
1293,C#3,216.0,2.0,48,96.93
1294,G#4,217.0,26/125,55,96.93
1295,F4,217.167,26/125,55,96.93
1296,C#4,217.333,26/125,55,96.93
1297,G#3,217.5,0.25,62,96.93
1298,G#2,218.0,0.5,48,96.93
1299,G#3,218.0,1.0,51,96.93
1300,C#4,218.0,1.0,51,96.93
1301,F4,218.0,1.0,51,96.93
1302,G#4,218.0,1.0,51,96.93
1303,D3,218.5,0.5,56,96.93
1304,E-3,219.0,2.0,69,96.93
1305,G#3,219.0,0.5,56,96.93
1306,B3,219.0,0.5,56,96.93
1307,F4,219.0,0.5,56,96.93
1308,G#4,219.0,0.5,56,96.93
1309,G#4,220.0,26/125,55,96.93
1310,F#4,220.167,26/125,55,96.93
1311,C4,220.333,26/125,55,96.93
1312,G#3,220.5,0.25,62,96.93
1313,G#2,221.0,0.5,56,96.93
1314,G#3,221.0,1.0,54,96.93
1315,C4,221.0,1.0,54,96.93
1316,F#4,221.0,1.0,54,96.93
1317,G#4,221.0,1.0,54,96.93
1318,C3,221.5,0.5,50,96.93
1319,C#3,222.0,2.0,30,96.93
1320,G#3,222.0,0.5,51,96.93
1321,E4,222.0,0.5,51,96.93
1322,G#4,222.0,0.5,51,96.93
1323,G#4,223.0,26/125,30,96.93
1324,F4,223.167,26/125,30,96.93
1325,C#4,223.333,26/125,30,96.93
1326,G#3,223.5,0.25,34,96.93
1327,G#2,224.0,0.5,30,96.93
1328,G#3,224.0,1.0,30,96.93
1329,C#4,224.0,1.0,30,96.93
1330,F4,224.0,1.0,30,96.93
1331,G#4,224.0,1.0,30,96.93
1332,D3,224.5,0.5,35,96.93
1333,E-3,225.0,2.0,40,96.93
1334,G#3,225.0,0.5,29,96.93
1335,B3,225.0,0.5,29,96.93
1336,F4,225.0,0.5,29,96.93
1337,G#4,225.0,0.5,29,96.93
1338,G#4,226.0,26/125,30,96.93
1339,F#4,226.167,26/125,30,96.93
1340,C4,226.333,26/125,30,96.93
1341,G#3,226.5,0.25,34,96.93
1342,G#2,227.0,0.5,35,96.93
1343,G#3,227.0,1.0,36,96.93
1344,C4,227.0,1.0,36,96.93
1345,F#4,227.0,1.0,36,96.93
1346,G#4,227.0,1.0,36,96.93
1347,C3,227.5,0.438,39,96.93
1348,C#3,228.0,0.25,39,96.93
1349,G#3,228.0,0.438,35,96.93
1350,E4,228.0,0.438,35,96.93
1351,G#4,228.0,0.438,35,96.93
1352,G3,228.5,26/125,32,96.93
1353,F5,228.5,0.5,45,96.93
1354,F4,228.5,0.5,45,96.93
1355,G#3,228.667,26/125,32,96.93
1356,C#4,228.833,167/1000,31,96.93
1357,G#4,229.5,0.5,42,96.93
1358,F4,229.5,1.5,46,96.93
1359,F5,229.5,1.5,46,96.93
1360,G#2,230.0,0.25,38,96.93
1361,G#4,230.5,0.25,34,96.93
1362,C#4,230.5,0.25,34,96.93
1363,G#3,230.5,0.25,34,96.93
1364,C#3,231.0,0.25,39,96.93
1365,F4,231.0,0.5,41,96.93
1366,F5,231.0,0.5,41,96.93
1367,G3,231.5,26/125,32,96.93
1368,F4,231.5,0.75,46,96.93
1369,F5,231.5,0.75,46,96.93
1370,G#3,231.667,26/125,32,96.93
1371,C#4,231.833,26/125,31,96.93
1372,F4,232.0,0.25,38,96.93
1373,G#4,232.25,0.25,43,96.93
1374,G#5,232.25,0.25,43,96.93
1375,G#4,232.5,2.0,43,96.93
1376,G#5,232.5,2.0,43,96.93
1377,G#3,232.5,0.5,40,96.93
1378,C#4,232.5,0.5,40,96.93
1379,F4,232.5,0.5,40,96.93
1380,G#2,233.0,0.25,38,96.93
1381,F4,233.5,0.25,30,96.93
1382,C#4,233.5,0.25,30,96.93
1383,G#3,233.5,0.25,30,96.93
1384,E-3,234.0,0.25,46,96.93
1385,G3,234.5,26/125,38,96.93
1386,G#3,234.667,26/125,38,96.93
1387,C4,234.833,26/125,37,96.93
1388,F#4,235.0,0.25,45,96.93
1389,F#5,235.0,271/500,55,96.93
1390,F#4,235.0,271/500,55,96.93
1391,G#4,235.5,271/500,58,96.93
1392,G#5,235.5,271/500,58,96.93
1393,G#3,235.5,0.5,49,96.93
1394,C4,235.5,0.5,49,96.93
1395,F#4,235.5,0.5,49,96.93
1396,G#2,236.0,0.25,47,96.93
1397,B-4,236.0,271/500,61,96.93
1398,B-5,236.0,271/500,61,96.93
1399,C#5,236.5,271/500,64,96.93
1400,C#6,236.5,271/500,64,96.93
1401,F#4,236.5,0.25,38,96.93
1402,C4,236.5,0.25,38,96.93
1403,G#3,236.5,0.25,38,96.93
1404,E-3,237.0,0.25,53,96.93
1405,C5,237.0,0.5,62,96.93
1406,C6,237.0,0.5,62,96.93
1407,G3,237.5,26/125,38,96.93
1408,E-5,237.5,271/500,71,96.93
1409,E-6,237.5,271/500,71,96.93
1410,C5,237.5,21/500,62,96.93
1411,C6,237.5,21/500,62,96.93
1412,G#3,237.667,26/125,38,96.93
1413,C4,237.833,26/125,37,96.93
1414,F#4,238.0,0.25,45,96.93
1415,B-4,238.0,271/500,56,96.93
1416,B-5,238.0,271/500,56,96.93
1417,G#4,238.5,2.0,55,96.93
1418,G#5,238.5,2.0,55,96.93
1419,G#3,238.5,0.5,43,96.93
1420,C4,238.5,0.5,43,96.93
1421,F#4,238.5,0.5,43,96.93
1422,G#2,239.0,0.25,37,96.93
1423,F#4,239.5,0.25,36,96.93
1424,C4,239.5,0.25,36,96.93
1425,G#3,239.5,0.25,36,96.93
1426,C#3,240.0,0.25,39,96.93
1427,G3,240.5,26/125,32,96.93
1428,F5,240.5,0.5,45,96.93
1429,F4,240.5,0.5,45,96.93
1430,G#3,240.667,26/125,32,96.93
1431,C#4,240.833,167/1000,31,96.93
1432,G#4,241.5,0.5,42,96.93
1433,F4,241.5,1.5,45,96.93
1434,F5,241.5,1.5,45,96.93
1435,G#2,242.0,0.25,38,96.93
1436,G#4,242.5,0.25,34,96.93
1437,C#4,242.5,0.25,34,96.93
1438,G#3,242.5,0.25,34,96.93
1439,C#3,243.0,0.25,39,96.93
1440,F4,243.0,0.5,41,96.93
1441,F5,243.0,0.5,41,96.93
1442,G3,243.5,26/125,32,96.93
1443,F4,243.5,0.75,46,96.93
1444,F5,243.5,0.75,46,96.93
1445,G#3,243.667,26/125,32,96.93
1446,C#4,243.833,26/125,31,96.93
1447,F4,244.0,0.25,38,96.93
1448,G#4,244.25,0.25,43,96.93
1449,G#5,244.25,0.25,43,96.93
1450,G#4,244.5,2.0,43,96.93
1451,G#5,244.5,2.0,43,96.93
1452,G#3,244.5,0.5,40,96.93
1453,C#4,244.5,0.5,40,96.93
1454,F4,244.5,0.5,40,96.93
1455,G#2,245.0,0.25,38,96.93
1456,F4,245.5,0.25,30,96.93
1457,C#4,245.5,0.25,30,96.93
1458,G#3,245.5,0.25,30,96.93
1459,E-3,246.0,0.25,46,96.93
1460,G3,246.5,26/125,38,96.93
1461,G#3,246.667,26/125,38,96.93
1462,C4,246.833,26/125,37,96.93
1463,F#4,247.0,0.25,45,96.93
1464,F#5,247.0,271/500,55,96.93
1465,F#4,247.0,271/500,55,96.93
1466,G#4,247.5,271/500,58,96.93
1467,G#5,247.5,271/500,58,96.93
1468,G#3,247.5,0.5,49,96.93
1469,C4,247.5,0.5,49,96.93
1470,F#4,247.5,0.5,49,96.93
1471,G#2,248.0,0.25,47,96.93
1472,B-4,248.0,271/500,61,96.93
1473,B-5,248.0,271/500,61,96.93
1474,C#5,248.5,271/500,64,96.93
1475,C#6,248.5,271/500,64,96.93
1476,F#4,248.5,0.25,38,96.93
1477,C4,248.5,0.25,38,96.93
1478,G#3,248.5,0.25,38,96.93
1479,E-3,249.0,0.25,53,96.93
1480,C5,249.0,0.5,62,96.93
1481,C6,249.0,0.5,62,96.93
1482,G3,249.5,26/125,38,96.93
1483,F#5,249.5,271/500,67,96.93
1484,F#6,249.5,271/500,67,96.93
1485,C5,249.5,21/500,62,96.93
1486,C6,249.5,21/500,62,96.93
1487,G#3,249.667,26/125,38,96.93
1488,C4,249.833,26/125,37,96.93
1489,F#4,250.0,0.25,45,96.93
1490,B-4,250.0,271/500,56,96.93
1491,B-5,250.0,271/500,56,96.93
1492,G#4,250.5,2.0,55,96.93
1493,G#5,250.5,2.0,55,96.93
1494,G#3,250.5,0.5,43,96.93
1495,C4,250.5,0.5,43,96.93
1496,F#4,250.5,0.5,43,96.93
1497,G#2,251.0,0.25,37,96.93
1498,E4,251.5,0.25,36,96.93
1499,C4,251.5,0.25,36,96.93
1500,G#3,251.5,0.25,36,96.93
1501,F3,252.0,0.25,50,96.93
1502,A3,252.5,26/125,41,96.93
1503,C#6,252.5,0.5,58,96.93
1504,C#5,252.5,0.5,58,96.93
1505,C#4,252.667,26/125,41,96.93
1506,F4,252.833,167/1000,40,96.93
1507,A4,253.0,0.25,55,96.93
1508,C#5,253.5,1.5,58,96.93
1509,C#6,253.5,1.5,58,96.93
1510,C#4,253.5,0.5,49,96.93
1511,F4,253.5,0.5,49,96.93
1512,F3,254.0,0.25,49,96.93
1513,E-4,254.5,0.25,44,96.93
1514,A3,254.5,0.25,44,96.93
1515,F#3,255.0,0.25,50,96.93
1516,C5,255.0,0.5,53,96.93
1517,C6,255.0,0.5,53,96.93
1518,C4,255.5,26/125,41,96.93
1519,C6,255.5,1.0,58,96.93
1520,C5,255.5,1.0,58,96.93
1521,C#4,255.667,26/125,41,96.93
1522,F#4,255.833,167/1000,40,96.93
1523,D4,256.5,0.5,55,96.93
1524,B-4,256.5,0.5,55,96.93
1525,B-5,256.5,0.5,55,96.93
1526,D3,257.0,0.25,49,96.93
1527,F4,257.0,0.5,55,96.93
1528,F5,257.0,0.5,55,96.93
1529,G#4,257.5,0.5,58,96.93
1530,G#5,257.5,0.5,58,96.93
1531,F4,257.5,0.25,44,96.93
1532,B-3,257.5,0.25,44,96.93
1533,E-3,258.0,0.25,50,96.93
1534,B-4,258.0,0.5,53,96.93
1535,B-5,258.0,0.5,53,96.93
1536,A3,258.5,26/125,41,96.93
1537,G#5,258.5,1.0,58,96.93
1538,G#4,258.5,1.0,58,96.93
1539,B-3,258.667,26/125,41,96.93
1540,E-4,258.833,167/1000,40,96.93
1541,B-3,259.5,1.5,50,96.93
1542,F#4,259.5,0.5,58,96.93
1543,F#5,259.5,0.5,58,96.93
1544,B-4,260.0,0.5,46,96.93
1545,B4,260.0,0.375,57,96.93
1546,D5,260.0,0.375,57,96.93
1547,B4,260.375,0.625,53,96.93
1548,F#5,260.5,0.5,58,96.93
1549,G#4,260.5,0.5,43,96.93
1550,E-3,261.0,0.25,46,96.93
1551,B4,261.0,0.375,54,96.93
1552,F5,261.0,0.375,54,96.93
1553,F#4,261.375,0.125,41,96.93
1554,F5,261.5,1.0,56,96.93
1555,F#4,261.5,3.0,41,96.93
1556,A3,261.5,26/125,38,96.93
1557,B-3,261.667,26/125,38,96.93
1558,B3,261.833,167/1000,37,96.93
1559,B-3,262.0,0.5,50,96.93
1560,E-5,262.5,2.0,56,96.93
1561,D4,262.5,0.5,50,96.93
1562,F4,263.0,0.5,55,96.93
1563,E-4,263.5,0.5,51,96.93
1564,E-2,264.0,0.25,46,96.93
1565,D3,264.5,26/125,38,96.93
1566,G4,264.5,0.5,50,96.93
1567,F4,264.5,0.5,50,96.93
1568,C#5,264.5,0.5,50,96.93
1569,E-3,264.667,26/125,38,96.93
1570,F3,264.833,167/1000,37,96.93
1571,E-3,265.0,0.25,50,96.93
1572,E-4,265.0,0.5,48,96.93
1573,G4,265.0,0.5,48,96.93
1574,C5,265.0,0.5,48,96.93
1575,E-3,265.5,1.0,50,96.93
1576,C#4,265.5,1.0,48,96.93
1577,G4,265.5,1.0,48,96.93
1578,C5,265.5,1.0,48,96.93
1579,E-3,266.5,0.5,46,96.93
1580,C#4,266.5,0.375,50,96.93
1581,G4,266.5,0.375,50,96.93
1582,B-4,266.5,0.375,50,96.93
1583,C#4,266.875,0.625,35,96.93
1584,G4,266.938,0.562,42,96.93
1585,E-5,267.0,0.5,55,96.93
1586,E-3,267.0,3.0,41,96.93
1587,C4,267.0,0.5,41,96.93
1588,C#4,267.5,0.5,39,96.93
1589,E-4,267.5,0.5,45,96.93
1590,G#4,267.5,0.5,45,96.93
1591,F4,268.0,0.5,41,96.93
1592,F4,268.0,0.5,41,96.93
1593,B-4,268.0,0.5,41,96.93
1594,E-4,268.5,0.5,38,96.93
1595,G#4,268.5,0.5,45,96.93
1596,C#5,268.5,0.5,45,96.93
1597,G4,269.0,0.5,40,96.93
1598,G4,269.0,0.375,42,96.93
1599,C5,269.0,0.375,42,96.93
1600,G#4,269.375,0.625,42,96.93
1601,E-5,269.5,0.5,46,96.93
1602,E-4,269.5,0.5,38,96.93
1603,E-3,270.0,0.25,39,96.93
1604,G4,270.0,0.375,42,96.93
1605,C5,270.0,0.375,42,96.93
1606,C#4,270.375,0.125,34,96.93
1607,G4,270.438,0.062,34,96.93
1608,C#5,270.5,1.0,47,96.93
1609,C#4,270.5,1.0,34,96.93
1610,G4,270.5,1.0,34,96.93
1611,D4,270.5,26/125,32,96.93
1612,E-4,270.667,26/125,32,96.93
1613,F4,270.833,167/1000,31,96.93
1614,E-4,271.0,0.25,36,96.93
1615,E-4,271.5,1.0,42,96.93
1616,F4,271.5,1.0,46,96.93
1617,G4,271.5,1.0,46,96.93
1618,C#5,271.5,1.0,46,96.93
1619,E-4,272.5,0.5,39,96.93
1620,C#4,272.5,1.0,44,96.93
1621,G4,272.5,1.0,44,96.93
1622,C5,272.5,1.0,44,96.93
1623,G#3,273.0,3.0,41,96.93
1624,C4,273.0,0.5,41,96.93
1625,C#4,273.5,0.5,40,96.93
1626,E-4,273.5,0.5,45,96.93
1627,G#4,273.5,0.5,45,96.93
1628,E-4,274.0,0.5,44,96.93
1629,F4,274.0,0.5,42,96.93
1630,B-4,274.0,0.5,42,96.93
1631,B-4,274.5,0.5,47,96.93
1632,F#4,274.5,0.5,48,96.93
1633,C5,274.5,0.5,48,96.93
1634,G#4,275.0,0.5,44,96.93
1635,C5,275.0,0.5,50,96.93
1636,F#5,275.0,0.5,50,96.93
1637,F#4,275.5,0.5,36,96.93
1638,C5,275.5,0.5,44,96.93
1639,F5,275.5,0.5,44,96.93
1640,C#3,276.0,0.25,54,96.93
1641,C5,276.0,0.5,36,96.93
1642,E5,276.0,0.5,36,96.93
1643,G3,276.5,26/125,49,96.93
1644,F5,276.5,0.5,49,96.93
1645,F4,276.5,0.5,49,96.93
1646,G#3,276.667,26/125,49,96.93
1647,C#4,276.833,167/1000,48,96.93
1648,G#4,277.5,0.5,59,96.93
1649,F4,277.5,1.5,58,96.93
1650,F5,277.5,1.5,58,96.93
1651,G#2,278.0,0.25,58,96.93
1652,G#4,278.5,0.25,52,96.93
1653,C#4,278.5,0.25,52,96.93
1654,G#3,278.5,0.25,52,96.93
1655,C#3,279.0,0.25,59,96.93
1656,F4,279.0,0.5,60,96.93
1657,F5,279.0,0.5,60,96.93
1658,G3,279.5,26/125,49,96.93
1659,F4,279.5,0.75,67,96.93
1660,F5,279.5,0.75,67,96.93
1661,G#3,279.667,26/125,49,96.93
1662,C#4,279.833,26/125,48,96.93
1663,F4,280.0,0.25,59,96.93
1664,G#4,280.25,0.25,64,96.93
1665,G#5,280.25,0.25,64,96.93
1666,G#4,280.5,2.0,64,96.93
1667,G#5,280.5,2.0,64,96.93
1668,G#3,280.5,0.5,56,96.93
1669,C#4,280.5,0.5,56,96.93
1670,F4,280.5,0.5,56,96.93
1671,G#2,281.0,0.25,61,96.93
1672,F4,281.5,0.25,49,96.93
1673,C#4,281.5,0.25,49,96.93
1674,G#3,281.5,0.25,49,96.93
1675,E-3,282.0,0.25,55,96.93
1676,G3,282.5,26/125,45,96.93
1677,G#3,282.667,26/125,45,96.93
1678,C4,282.833,26/125,44,96.93
1679,F#4,283.0,0.25,53,96.93
1680,F#5,283.0,271/500,62,96.93
1681,F#4,283.0,271/500,62,96.93
1682,G#4,283.5,271/500,64,96.93
1683,G#5,283.5,271/500,64,96.93
1684,G#3,283.5,0.5,57,96.93
1685,C4,283.5,0.5,57,96.93
1686,F#4,283.5,0.5,57,96.93
1687,B-4,284.0,271/500,66,96.93
1688,B-5,284.0,271/500,66,96.93
1689,G#2,284.008,0.25,53,96.93
1690,C#5,284.5,271/500,69,96.93
1691,C#6,284.5,271/500,69,96.93
1692,F#4,284.5,0.25,42,96.93
1693,C4,284.5,0.25,42,96.93
1694,G#3,284.5,0.25,42,96.93
1695,E-3,285.0,0.25,58,96.93
1696,C5,285.0,0.5,66,96.93
1697,C6,285.0,0.5,66,96.93
1698,G3,285.5,26/125,45,96.93
1699,E-5,285.5,271/500,76,96.93
1700,E-6,285.5,271/500,76,96.93
1701,C5,285.5,21/500,66,96.93
1702,C6,285.5,21/500,66,96.93
1703,G#3,285.667,26/125,45,96.93
1704,C4,285.833,26/125,42,96.93
1705,F#4,286.0,0.25,52,96.93
1706,B-4,286.0,271/500,64,96.93
1707,B-5,286.0,271/500,64,96.93
1708,G#4,286.5,2.0,60,96.93
1709,G#5,286.5,2.0,60,96.93
1710,G#3,286.5,0.5,49,96.93
1711,C4,286.5,0.5,49,96.93
1712,F#4,286.5,0.5,49,96.93
1713,G#2,287.0,0.25,41,96.93
1714,F#4,287.5,0.25,39,96.93
1715,C4,287.5,0.25,39,96.93
1716,G#3,287.5,0.25,39,96.93
1717,C#3,288.0,0.25,39,96.93
1718,G3,288.5,26/125,32,96.93
1719,F5,288.5,0.5,45,96.93
1720,F4,288.5,0.5,45,96.93
1721,G#3,288.667,26/125,32,96.93
1722,C#4,288.833,167/1000,31,96.93
1723,G#4,289.5,0.5,42,96.93
1724,F4,289.5,1.5,45,96.93
1725,F5,289.5,1.5,45,96.93
1726,G#2,290.0,0.25,38,96.93
1727,G#4,290.5,0.25,34,96.93
1728,C#4,290.5,0.25,34,96.93
1729,G#3,290.5,0.25,34,96.93
1730,C#3,291.0,0.25,39,96.93
1731,F4,291.0,0.5,41,96.93
1732,F5,291.0,0.5,41,96.93
1733,G3,291.5,26/125,32,96.93
1734,F4,291.5,0.75,46,96.93
1735,F5,291.5,0.75,46,96.93
1736,G#3,291.667,26/125,32,96.93
1737,C#4,291.833,26/125,31,96.93
1738,F4,292.0,0.25,38,96.93
1739,G#4,292.25,0.25,43,96.93
1740,G#5,292.25,0.25,43,96.93
1741,G#4,292.5,2.0,43,96.93
1742,G#5,292.5,2.0,43,96.93
1743,G#3,292.5,0.5,40,96.93
1744,C#4,292.5,0.5,40,96.93
1745,F4,292.5,0.5,40,96.93
1746,G#2,293.0,0.25,38,96.93
1747,F4,293.5,0.25,30,96.93
1748,C#4,293.5,0.25,30,96.93
1749,G#3,293.5,0.25,30,96.93
1750,E-3,294.0,0.25,46,96.93
1751,G3,294.5,26/125,38,96.93
1752,G#3,294.667,26/125,38,96.93
1753,C4,294.833,26/125,37,96.93
1754,F#4,295.0,0.25,45,96.93
1755,F#5,295.0,271/500,55,96.93
1756,F#4,295.0,271/500,55,96.93
1757,G#4,295.5,271/500,57,96.93
1758,G#5,295.5,271/500,57,96.93
1759,G#3,295.5,0.5,48,96.93
1760,C4,295.5,0.5,48,96.93
1761,F#4,295.5,0.5,48,96.93
1762,G#2,296.0,0.25,45,96.93
1763,B-4,296.0,271/500,59,96.93
1764,B-5,296.0,271/500,59,96.93
1765,C#5,296.5,271/500,61,96.93
1766,C#6,296.5,271/500,61,96.93
1767,F#4,296.5,0.25,36,96.93
1768,C4,296.5,0.25,36,96.93
1769,G#3,296.5,0.25,36,96.93
1770,E-3,297.0,0.25,49,96.93
1771,C5,297.0,0.5,58,96.93
1772,C6,297.0,0.5,58,96.93
1773,G3,297.5,26/125,38,96.93
1774,F#5,297.5,271/500,65,96.93
1775,F#6,297.5,271/500,65,96.93
1776,C5,297.5,21/500,58,96.93
1777,C6,297.5,21/500,58,96.93
1778,G#3,297.667,26/125,38,96.93
1779,C4,297.833,26/125,37,96.93
1780,F#4,298.0,0.25,45,96.93
1781,B-4,298.0,271/500,56,96.93
1782,B-5,298.0,271/500,56,96.93
1783,G#4,298.5,1.0,55,96.93
1784,G#5,298.5,1.0,55,96.93
1785,G#3,298.5,0.5,43,96.93
1786,C4,298.5,0.5,43,96.93
1787,F#4,298.5,0.5,43,96.93
1788,B2,299.0,1.0,33,96.93
1789,B-3,299.375,0.125,23,96.93
1790,B3,299.5,0.25,28,96.93
1791,A4,299.5,271/500,35,96.93
1792,E-5,299.5,271/500,35,96.93
1793,G#5,299.5,271/500,35,96.93
1794,G5,300.0,0.5,37,96.93
1795,E3,300.0,0.25,42,96.93
1796,B-3,300.5,26/125,36,96.93
1797,G#5,300.5,0.5,49,96.93
1798,G#4,300.5,0.5,49,96.93
1799,B3,300.667,26/125,36,96.93
1800,C#4,300.833,167/1000,36,96.93
1801,B3,301.0,0.25,49,96.93
1802,B3,301.5,0.5,44,96.93
1803,G#4,301.5,1.5,52,96.93
1804,G#5,301.5,1.5,52,96.93
1805,B2,302.0,0.25,44,96.93
1806,B3,302.5,0.25,44,96.93
1807,D4,302.5,0.25,44,96.93
1808,F3,302.5,0.25,44,96.93
1809,F#3,303.0,0.25,50,96.93
1810,G#4,303.0,0.5,53,96.93
1811,G#5,303.0,0.5,53,96.93
1812,B-3,303.5,26/125,41,96.93
1813,B5,303.5,0.5,55,96.93
1814,B4,303.5,0.5,55,96.93
1815,B3,303.667,26/125,41,96.93
1816,C#4,303.833,167/1000,40,96.93
1817,B3,304.0,0.25,55,96.93
1818,A4,304.0,0.5,55,96.93
1819,A5,304.0,0.5,55,96.93
1820,B3,304.5,0.5,56,96.93
1821,C#5,304.5,0.5,62,96.93
1822,C#6,304.5,0.5,62,96.93
1823,B2,305.0,0.25,51,96.93
1824,E-5,305.0,0.5,58,96.93
1825,E-6,305.0,0.5,58,96.93
1826,G#5,305.5,0.5,68,96.93
1827,G#6,305.5,0.5,68,96.93
1828,E-4,305.5,0.25,47,96.93
1829,A4,305.5,0.25,47,96.93
1830,B3,305.5,0.25,47,96.93
1831,E3,306.0,0.25,42,96.93
1832,F#5,306.0,0.5,64,96.93
1833,F#6,306.0,0.5,64,96.93
1834,B-3,306.5,26/125,34,96.93
1835,G#5,306.5,0.5,49,96.93
1836,G#4,306.5,0.5,49,96.93
1837,B3,306.667,26/125,34,96.93
1838,C#4,306.833,167/1000,34,96.93
1839,B3,307.0,0.25,46,96.93
1840,B3,307.5,0.5,41,96.93
1841,G#4,307.5,1.5,49,96.93
1842,G#5,307.5,1.5,49,96.93
1843,B2,308.0,0.25,41,96.93
1844,B3,308.5,0.25,37,96.93
1845,D4,308.5,0.25,37,96.93
1846,F3,308.5,0.25,37,96.93
1847,F#3,309.0,0.25,42,96.93
1848,G#4,309.0,0.5,45,96.93
1849,G#5,309.0,0.5,45,96.93
1850,B-3,309.5,26/125,34,96.93
1851,B5,309.5,0.5,49,96.93
1852,B4,309.5,0.5,49,96.93
1853,B3,309.667,26/125,34,96.93
1854,C#4,309.833,167/1000,34,96.93
1855,B3,310.0,0.25,46,96.93
1856,A4,310.0,0.5,49,96.93
1857,A5,310.0,0.5,49,96.93
1858,B3,310.5,0.5,46,96.93
1859,C#5,310.5,0.5,51,96.93
1860,C#6,310.5,0.5,51,96.93
1861,B2,311.0,0.25,48,96.93
1862,E-5,311.0,0.375,48,96.93
1863,E-6,311.0,0.375,48,96.93
1864,G#5,311.375,0.625,48,96.93
1865,G#6,311.5,0.5,55,96.93
1866,E-4,311.5,0.25,43,96.93
1867,A4,311.5,0.25,43,96.93
1868,B3,311.5,0.25,43,96.93
1869,E4,312.0,0.5,69,96.93
1870,F#5,312.0,0.5,52,96.93
1871,F#6,312.0,0.5,52,96.93
1872,E-4,312.5,26/125,56,96.93
1873,G#5,312.5,1.0,58,96.93
1874,G#4,312.5,1.0,58,96.93
1875,E4,312.667,26/125,56,96.93
1876,E-4,312.833,167/1000,56,96.93
1877,D4,313.0,0.5,66,96.93
1878,E-4,313.5,0.5,53,96.93
1879,F#5,313.5,1.0,55,96.93
1880,G#4,313.5,1.0,55,96.93
1881,G#5,313.5,1.0,55,96.93
1882,C4,314.0,0.5,60,96.93
1883,E5,314.5,1.0,66,96.93
1884,G#3,314.5,0.5,55,96.93
1885,G#4,314.5,1.0,61,96.93
1886,G#5,314.5,1.0,61,96.93
1887,C#4,315.0,0.5,60,96.93
1888,A3,315.5,0.5,55,96.93
1889,F5,316.0,0.5,66,96.93
1890,B-3,316.0,0.5,58,96.93
1891,G#4,316.0,0.5,61,96.93
1892,G#5,316.0,0.5,61,96.93
1893,F3,316.5,0.5,54,96.93
1894,F#4,316.5,0.5,54,96.93
1895,C5,316.5,0.5,54,96.93
1896,E-5,316.5,0.5,54,96.93
1897,F#3,317.0,0.5,57,96.93
1898,F4,317.0,0.5,58,96.93
1899,C#5,317.0,0.5,58,96.93
1900,E-4,317.5,0.5,53,96.93
1901,A4,317.5,0.5,53,96.93
1902,C5,317.5,0.5,53,96.93
1903,D3,317.5,0.5,53,96.93
1904,B3,317.5,0.5,53,96.93
1905,C#4,318.0,0.5,56,96.93
1906,B-4,318.0,0.5,56,96.93
1907,E-3,318.0,3.0,49,96.93
1908,B-3,318.0,3.0,49,96.93
1909,F4,318.5,0.5,53,96.93
1910,G#4,318.5,0.5,53,96.93
1911,F#4,319.0,0.5,58,96.93
1912,G#4,319.5,0.5,55,96.93
1913,A4,320.0,0.5,55,96.93
1914,B-4,320.5,0.5,60,96.93
1915,C#5,321.0,0.5,65,96.93
1916,G#2,321.0,0.5,50,96.93
1917,F#4,321.5,0.375,58,96.93
1918,G3,321.5,26/125,41,96.93
1919,G#3,321.667,26/125,41,96.93
1920,B-3,321.833,167/1000,40,96.93
1921,C4,321.875,0.125,50,96.93
1922,F#4,321.938,0.062,51,96.93
1923,B-4,322.0,0.875,58,96.93
1924,C4,322.0,0.875,50,96.93
1925,F#4,322.0,0.875,51,96.93
1926,G#3,322.0,0.5,50,96.93
1927,G#3,322.5,0.5,50,96.93
1928,F#4,322.875,2.125,48,96.93
1929,F5,323.0,1.5,58,96.93
1930,G#2,323.0,1.0,46,96.93
1931,G#3,323.5,0.5,43,96.93
1932,C#3,324.0,2.0,34,96.93
1933,C5,324.5,0.5,53,96.93
1934,G#4,325.5,26/125,39,96.93
1935,F4,325.667,26/125,39,96.93
1936,C#4,325.833,26/125,39,96.93
1937,G#3,326.0,0.25,44,96.93
1938,G#2,326.0,0.5,34,96.93
1939,D3,326.5,0.5,39,96.93
1940,G#3,326.5,1.0,36,96.93
1941,C#4,326.5,1.0,36,96.93
1942,G#4,326.5,1.0,36,96.93
1943,F4,326.5,1.0,36,96.93
1944,E-3,327.0,2.0,49,96.93
1945,G#3,327.5,0.5,40,96.93
1946,B3,327.5,0.5,40,96.93
1947,F4,327.5,0.5,40,96.93
1948,G#4,327.5,0.5,40,96.93
1949,G#4,328.5,26/125,39,96.93
1950,F#4,328.667,26/125,39,96.93
1951,C4,328.833,26/125,39,96.93
1952,G#3,329.0,0.25,44,96.93
1953,G#2,329.0,0.5,39,96.93
1954,C3,329.5,0.5,35,96.93
1955,G#3,329.5,1.0,38,96.93
1956,C4,329.5,1.0,38,96.93
1957,F#4,329.5,1.0,38,96.93
1958,G#4,329.5,1.0,38,96.93
1959,C#3,330.0,2.0,27,96.93
1960,G#3,330.5,0.5,36,96.93
1961,E4,330.5,0.5,36,96.93
1962,G#4,330.5,0.5,36,96.93
1963,G#4,331.5,26/125,27,96.93
1964,F4,331.667,26/125,27,96.93
1965,C#4,331.833,26/125,27,96.93
1966,G#3,332.0,0.25,30,96.93
1967,G#2,332.0,0.5,27,96.93
1968,D3,332.5,0.5,31,96.93
1969,G#3,332.5,1.0,27,96.93
1970,C#4,332.5,1.0,27,96.93
1971,F4,332.5,1.0,27,96.93
1972,G#4,332.5,1.0,27,96.93
1973,E-3,333.0,2.0,36,96.93
1974,G#3,333.5,0.5,26,96.93
1975,B3,333.5,0.5,26,96.93
1976,F4,333.5,0.5,26,96.93
1977,G#4,333.5,0.5,26,96.93
1978,G#4,334.5,26/125,27,96.93
1979,F#4,334.667,26/125,27,96.93
1980,C4,334.833,26/125,27,96.93
1981,G#3,335.0,0.25,30,96.93
1982,G#2,335.0,0.5,31,96.93
1983,C3,335.5,0.5,34,96.93
1984,G#3,335.5,1.0,32,96.93
1985,C4,335.5,1.0,32,96.93
1986,F#4,335.5,1.0,32,96.93
1987,G#4,335.5,1.0,32,96.93
1988,C#3,336.0,0.5,31,96.93
1989,G#3,336.5,0.125,32,96.93
1990,G#3,336.5,0.5,31,96.93
1991,E4,336.5,0.5,31,96.93
1992,G#4,336.5,0.5,31,96.93
1993,C#4,337.0,0.125,32,96.93
1994,G#3,337.0,0.5,31,96.93
1995,F4,337.0,0.5,31,96.93
1996,G#4,337.0,0.5,31,96.93
1997,F4,337.5,0.125,31,96.93
1998,F4,337.75,0.125,33,96.93
1999,C#4,337.75,0.125,33,96.93
2000,G#4,338.0,0.125,31,96.93
2001,G#4,338.25,0.125,33,96.93
2002,F4,338.25,0.125,33,96.93
2003,C#5,338.5,0.125,30,96.93
2004,C#5,338.75,0.125,33,96.93
2005,G#4,338.75,0.125,33,96.93
2006,F5,339.0,0.125,30,96.93
2007,F5,339.25,0.125,32,96.93
2008,C#5,339.25,0.125,32,96.93
2009,G#4,339.5,0.125,29,96.93
2010,G#5,339.75,0.125,32,96.93
2011,F5,339.75,0.125,32,96.93
2012,C#5,340.0,0.125,29,96.93
2013,C#6,340.25,0.125,31,96.93
2014,G#5,340.25,0.125,31,96.93
2015,F5,340.5,0.125,29,96.93
2016,C#5,340.75,0.125,31,96.93
2017,F5,340.75,0.125,31,96.93
2018,G#5,341.0,0.125,28,96.93
2019,G#5,341.25,0.125,30,96.93
2020,F5,341.25,0.125,30,96.93
2021,C#6,341.5,0.125,28,96.93
2022,C#6,341.75,0.125,30,96.93
2023,G#5,341.75,0.125,30,96.93
2024,C#5,341.875,0.125,28,96.93
2025,G#5,341.875,0.125,28,96.93
2026,C#5,342.0,2.969,28,96.93
2027,G#5,342.0,2.969,28,96.93
2028,F6,342.25,0.125,30,96.93
2029,C#6,342.25,0.125,30,96.93
2030,G#6,342.75,0.125,29,96.93
2031,F6,342.75,0.125,29,96.93
2032,C#6,342.938,0.062,32,96.93
2033,F6,342.938,0.062,32,96.93
2034,C#7,343.0,3.0,35,96.93
2035,C#6,343.0,2.969,32,96.93
2036,F6,343.0,2.969,32,96.93
2037,C#2,345.0,3.0,19,96.93
2038,G#2,345.0,3.0,19,96.93
2039,C#3,345.0,3.0,19,96.93
2040,F4,346.0,3.0,22,96.93
2041,C#4,346.0,3.0,22,96.93
2042,F3,346.0,3.0,22,96.93
