,note_name,start_time,duration,velocity,tempo
0,B3,0.0,0.5,44,114.0
1,B3,0.5,0.75,40,114.0
2,B3,1.25,0.25,41,114.0
3,B3,1.5,0.75,44,114.0
4,B3,2.25,0.25,40,114.0
5,B3,2.5,0.5,44,114.0
6,B3,3.0,0.75,40,114.0
7,B3,3.75,0.25,40,114.0
8,B3,4.0,0.75,44,114.0
9,F4,4.0,1.0,54,114.0
10,G#4,4.0,1.0,54,114.0
11,B3,4.75,0.25,38,114.0
12,B3,5.0,0.5,44,114.0
13,F#4,5.0,0.5,55,114.0
14,A4,5.0,0.5,55,114.0
15,B3,5.5,0.75,40,114.0
16,F#4,5.5,0.75,52,114.0
17,A4,5.5,0.75,52,114.0
18,B3,6.25,0.25,40,114.0
19,E4,6.25,0.25,48,114.0
20,C#5,6.25,0.25,48,114.0
21,B3,6.5,0.75,44,114.0
22,E-4,6.5,0.75,52,114.0
23,B4,6.5,0.75,52,114.0
24,B3,7.25,0.25,40,114.0
25,G4,7.25,0.25,46,114.0
26,E-4,7.25,0.25,46,114.0
27,B3,7.5,0.5,44,114.0
28,E4,7.5,0.5,52,114.0
29,G#4,7.5,0.5,52,114.0
30,B3,8.0,0.75,40,114.0
31,G#4,8.0,0.75,54,114.0
32,B4,8.0,0.75,54,114.0
33,B3,8.75,0.25,40,114.0
34,G#5,8.75,0.25,53,114.0
35,E5,8.75,0.25,53,114.0
36,B3,9.0,0.75,44,114.0
37,F#5,9.0,0.75,50,114.0
38,E-5,9.0,0.75,50,114.0
39,B3,9.75,0.25,40,114.0
40,E5,9.75,0.25,48,114.0
41,C#5,9.75,0.25,48,114.0
42,B3,10.0,0.5,44,114.0
43,E-5,10.0,167/1000,52,114.0
44,B4,10.0,167/1000,52,114.0
45,E5,10.167,167/1000,44,114.0
46,C#5,10.167,167/1000,44,114.0
47,E-5,10.333,167/1000,44,114.0
48,B4,10.333,167/1000,44,114.0
49,B3,10.5,0.75,40,114.0
50,C#5,10.5,0.75,49,114.0
51,A4,10.5,0.75,49,114.0
52,B3,11.25,0.25,40,114.0
53,E-5,11.25,0.25,48,114.0
54,B4,11.25,0.25,48,114.0
55,B3,11.5,0.75,44,114.0
56,C#5,11.5,0.75,52,114.0
57,E5,11.5,0.75,52,114.0
58,B3,12.25,0.25,44,114.0
59,C#5,12.25,0.25,48,114.0
60,A4,12.25,0.25,48,114.0
61,E3,12.5,1.5,39,114.0
62,B3,12.5,0.5,50,114.0
63,G#4,12.5,1.5,44,114.0
64,B4,12.5,1.5,44,114.0
65,B3,13.0,0.75,48,114.0
66,E4,13.75,0.25,49,114.0
67,E-4,14.0,0.75,49,114.0
68,D4,14.75,0.25,45,114.0
69,C#4,15.0,2.5,48,114.0
70,G#4,15.0,0.5,48,114.0
71,B4,15.0,0.5,52,114.0
72,F5,15.0,0.5,52,114.0
73,A4,15.5,0.75,51,114.0
74,C#5,15.5,0.75,52,114.0
75,F#5,15.5,0.75,52,114.0
76,B4,16.25,0.25,50,114.0
77,D5,16.25,0.25,55,114.0
78,G#5,16.25,0.25,55,114.0
79,B5,16.375,167/1000,50,114.0
80,A5,16.5,0.75,58,114.0
81,F5,16.5,1.0,49,114.0
82,C#5,16.5,0.75,46,114.0
83,G#5,17.25,0.25,57,114.0
84,B4,17.25,0.25,48,114.0
85,G#5,17.5,0.5,60,114.0
86,F#4,17.5,1.5,39,114.0
87,B4,17.5,0.5,50,114.0
88,C#5,17.5,1.5,46,114.0
89,C#6,17.5,1.5,46,114.0
90,F#5,18.0,0.75,58,114.0
91,A4,18.0,0.75,49,114.0
92,F5,18.75,0.25,50,114.0
93,G#4,18.75,0.25,46,114.0
94,F#5,19.0,0.75,53,114.0
95,A4,19.0,0.75,48,114.0
96,E4,19.75,0.25,46,114.0
97,C5,19.75,0.25,55,114.0
98,A4,19.75,0.25,55,114.0
99,B4,20.0,0.5,57,114.0
100,A4,20.0,1.5,47,114.0
101,B3,20.0,1.5,37,114.0
102,E-4,20.0,0.5,49,114.0
103,F5,20.5,0.75,58,114.0
104,D4,20.5,0.75,49,114.0
105,F#5,21.25,0.25,59,114.0
106,E-4,21.25,0.25,49,114.0
107,A5,21.5,0.75,61,114.0
108,B3,21.5,1.0,37,114.0
109,C#5,21.5,0.75,46,114.0
110,G#5,22.25,0.25,57,114.0
111,B4,22.25,0.25,48,114.0
112,B5,22.5,2.0,42,114.0
113,B4,22.5,2.25,38,114.0
114,F#5,22.5,0.5,55,114.0
115,E4,22.5,2.25,34,114.0
116,A4,22.5,0.5,46,114.0
117,E5,23.0,0.75,52,114.0
118,G#4,23.0,0.75,45,114.0
119,E-5,23.75,0.25,50,114.0
120,G4,23.75,0.25,41,114.0
121,E5,23.988,0.5,50,114.0
122,G#4,24.0,0.5,37,114.0
123,F4,24.75,0.25,54,114.0
124,G#4,24.75,0.25,54,114.0
125,B3,25.0,0.5,44,114.0
126,F#4,25.0,0.5,55,114.0
127,A4,25.0,0.5,55,114.0
128,B3,25.5,0.75,40,114.0
129,F#4,25.5,0.75,52,114.0
130,A4,25.5,0.75,52,114.0
131,B3,26.25,0.25,40,114.0
132,E4,26.25,0.25,48,114.0
133,C#5,26.25,0.25,48,114.0
134,B3,26.5,0.75,44,114.0
135,E-4,26.5,0.75,52,114.0
136,B4,26.5,0.75,52,114.0
137,B3,27.25,0.25,40,114.0
138,G4,27.25,0.25,46,114.0
139,E-4,27.25,0.25,46,114.0
140,B3,27.5,0.5,44,114.0
141,E4,27.5,0.5,52,114.0
142,G#4,27.5,0.5,52,114.0
143,B3,28.0,0.75,40,114.0
144,G#4,28.0,0.75,54,114.0
145,B4,28.0,0.75,54,114.0
146,B3,28.75,0.25,40,114.0
147,G#5,28.75,0.25,55,114.0
148,E5,28.75,0.25,55,114.0
149,B3,29.0,0.75,44,114.0
150,F#5,29.0,0.75,50,114.0
151,E-5,29.0,0.75,50,114.0
152,B3,29.75,0.25,40,114.0
153,E5,29.75,0.25,48,114.0
154,C#5,29.75,0.25,48,114.0
155,B3,30.0,0.5,44,114.0
156,E-5,30.0,167/1000,52,114.0
157,B4,30.0,167/1000,52,114.0
158,E5,30.167,167/1000,44,114.0
159,C#5,30.167,167/1000,44,114.0
160,E-5,30.333,167/1000,44,114.0
161,B4,30.333,167/1000,44,114.0
162,B3,30.5,0.75,40,114.0
163,C#5,30.5,0.75,49,114.0
164,A4,30.5,0.75,49,114.0
165,B3,31.25,0.25,40,114.0
166,E-5,31.25,0.25,48,114.0
167,B4,31.25,0.25,48,114.0
168,B3,31.5,0.75,44,114.0
169,C#5,31.5,0.75,52,114.0
170,E5,31.5,0.75,52,114.0
171,B3,32.25,0.25,44,114.0
172,C#5,32.25,0.25,48,114.0
173,A4,32.25,0.25,48,114.0
174,E3,32.5,0.5,50,114.0
175,G#4,32.5,1.5,44,114.0
176,B4,32.5,1.5,44,114.0
177,B3,33.0,0.75,48,114.0
178,E4,33.75,0.25,51,114.0
179,G#4,34.0,0.75,54,114.0
180,B4,34.75,0.25,55,114.0
181,E5,35.0,1.5,52,114.0
182,A5,35.0,0.5,65,114.0
183,B-4,35.0,1.5,49,114.0
184,C5,35.0,2.5,59,114.0
185,G5,35.5,0.75,61,114.0
186,A5,36.25,0.25,61,114.0
187,C6,36.5,0.75,57,114.0
188,A4,36.5,1.0,55,114.0
189,G5,36.513,247/250,51,114.0
190,F5,37.25,0.25,50,114.0
191,G#5,37.5,0.5,57,114.0
192,E-5,37.5,1.5,48,114.0
193,G5,37.5,3/250,51,114.0
194,A4,37.5,1.5,41,114.0
195,B4,37.5,2.5,49,114.0
196,F#5,38.0,0.75,51,114.0
197,G#5,38.75,0.25,51,114.0
198,F#5,39.0,1.0,44,114.0
199,B5,39.0,0.75,47,114.0
200,G#4,39.0,1.0,46,114.0
201,E5,39.75,0.25,50,114.0
202,B4,40.0,0.5,48,114.0
203,F5,40.0,0.5,52,114.0
204,D5,40.0,0.5,52,114.0
205,A4,40.5,0.75,51,114.0
206,F#5,40.5,0.75,52,114.0
207,C#5,40.5,0.75,52,114.0
208,F4,41.25,0.25,55,114.0
209,G#5,41.25,0.25,55,114.0
210,D5,41.25,0.25,55,114.0
211,F#4,41.5,1.0,44,114.0
212,A5,41.5,1.0,53,114.0
213,C#5,41.5,1.0,53,114.0
214,B3,42.5,1.5,39,114.0
215,A4,42.5,0.5,50,114.0
216,F#5,42.5,0.5,55,114.0
217,E-5,42.5,0.5,55,114.0
218,C#5,43.0,0.75,55,114.0
219,A5,43.0,0.75,54,114.0
220,E-5,43.0,0.75,54,114.0
221,B4,43.75,0.25,42,114.0
222,G#5,43.75,0.25,49,114.0
223,E-5,43.75,0.25,49,114.0
224,E5,44.0,1.0,48,114.0
225,B4,44.0,1.0,48,114.0
226,E4,44.0,1.0,42,114.0
227,G#4,44.0,1.0,42,114.0
228,B3,45.0,0.5,44,114.0
229,A4,45.0,0.5,55,114.0
230,F#4,45.0,0.5,55,114.0
231,B3,45.5,0.75,40,114.0
232,A4,45.5,0.75,52,114.0
233,F#4,45.5,0.75,52,114.0
234,B3,46.25,0.25,40,114.0
235,C#5,46.25,0.25,48,114.0
236,E4,46.25,0.25,48,114.0
237,B3,46.5,0.75,44,114.0
238,B4,46.5,0.75,52,114.0
239,E-4,46.5,0.75,52,114.0
240,B3,47.25,0.25,40,114.0
241,E-4,47.25,0.25,46,114.0
242,G4,47.25,0.25,46,114.0
243,B3,47.5,0.5,44,114.0
244,G#4,47.5,0.5,52,114.0
245,E4,47.5,0.5,52,114.0
246,B3,48.0,0.75,40,114.0
247,B4,48.0,0.75,54,114.0
248,G#4,48.0,0.75,54,114.0
249,B3,48.75,0.25,40,114.0
250,E5,48.75,0.25,55,114.0
251,G#5,48.75,0.25,55,114.0
252,B3,49.0,0.75,44,114.0
253,E-5,49.0,0.75,50,114.0
254,F#5,49.0,0.75,50,114.0
255,B3,49.75,0.25,40,114.0
256,E5,49.75,0.25,48,114.0
257,C#5,49.75,0.25,48,114.0
258,B3,50.0,0.5,44,114.0
259,B4,50.0,167/1000,52,114.0
260,E-5,50.0,167/1000,52,114.0
261,C#5,50.167,167/1000,44,114.0
262,E5,50.167,167/1000,44,114.0
263,B4,50.333,167/1000,44,114.0
264,E-5,50.333,167/1000,44,114.0
265,B3,50.5,0.75,40,114.0
266,A4,50.5,0.75,49,114.0
267,C#5,50.5,0.75,49,114.0
268,B3,51.25,0.25,40,114.0
269,B4,51.25,0.25,48,114.0
270,E-5,51.25,0.25,48,114.0
271,B3,51.5,0.75,44,114.0
272,C#5,51.5,0.75,52,114.0
273,E5,51.5,0.75,52,114.0
274,B3,52.25,0.25,44,114.0
275,A4,52.25,0.25,48,114.0
276,C#5,52.25,0.25,48,114.0
277,E3,52.5,1.5,39,114.0
278,B3,52.5,0.5,50,114.0
279,G#4,52.5,1.5,44,114.0
280,B4,52.5,1.5,44,114.0
281,B3,53.0,0.75,48,114.0
282,E4,53.75,0.25,49,114.0
283,E-4,54.0,0.75,49,114.0
284,D4,54.75,0.25,45,114.0
285,C#4,55.0,2.5,48,114.0
286,G#4,55.0,0.5,48,114.0
287,F5,55.0,0.5,52,114.0
288,B4,55.0,0.5,52,114.0
289,A4,55.5,0.75,51,114.0
290,F#5,55.5,0.75,52,114.0
291,C#5,55.5,0.75,52,114.0
292,B4,56.25,0.25,50,114.0
293,G#5,56.25,0.25,55,114.0
294,D5,56.25,0.25,55,114.0
295,B5,56.375,167/1000,50,114.0
296,F5,56.5,1.0,46,114.0
297,A5,56.5,0.75,55,114.0
298,C#5,56.5,0.75,46,114.0
299,G#5,57.25,0.25,57,114.0
300,B4,57.25,0.25,48,114.0
301,G#5,57.5,0.5,60,114.0
302,F#4,57.5,1.5,39,114.0
303,B4,57.5,0.5,50,114.0
304,C#6,57.5,1.5,44,114.0
305,C#5,57.5,1.5,44,114.0
306,F#5,58.0,0.75,58,114.0
307,A4,58.0,0.75,49,114.0
308,F5,58.75,0.25,51,114.0
309,G#4,58.75,0.25,44,114.0
310,F#5,59.0,0.75,55,114.0
311,A4,59.0,0.75,48,114.0
312,E4,59.75,0.25,46,114.0
313,C5,59.75,0.25,55,114.0
314,A4,59.75,0.25,55,114.0
315,A4,60.0,1.5,47,114.0
316,B4,60.0,0.5,57,114.0
317,B3,60.0,1.5,39,114.0
318,E-4,60.0,0.5,49,114.0
319,F5,60.5,0.75,58,114.0
320,D4,60.5,0.75,49,114.0
321,F#5,61.25,0.25,59,114.0
322,E-4,61.25,0.25,49,114.0
323,E-5,61.5,1.0,47,114.0
324,A5,61.5,0.75,62,114.0
325,B3,61.5,1.0,39,114.0
326,C#5,61.5,0.75,49,114.0
327,G#5,62.25,0.25,57,114.0
328,B4,62.25,0.25,48,114.0
329,B5,62.5,2.0,40,114.0
330,B4,62.5,2.25,39,114.0
331,F#5,62.5,0.5,55,114.0
332,E4,62.5,2.25,34,114.0
333,A4,62.5,0.5,46,114.0
334,E5,63.0,0.75,52,114.0
335,G#4,63.0,0.75,45,114.0
336,E-5,63.75,0.25,50,114.0
337,G4,63.75,0.25,41,114.0
338,E5,63.987,0.5,50,114.0
339,G#4,64.0,0.5,37,114.0
340,G#4,64.75,0.25,54,114.0
341,E4,64.75,0.25,54,114.0
342,B3,65.0,0.5,44,114.0
343,A4,65.0,0.5,55,114.0
344,F#4,65.0,0.5,55,114.0
345,B3,65.5,0.75,40,114.0
346,F#4,65.5,0.75,52,114.0
347,A4,65.5,0.75,52,114.0
348,B3,66.25,0.25,40,114.0
349,E4,66.25,0.25,48,114.0
350,C#5,66.25,0.25,48,114.0
351,B3,66.5,0.75,44,114.0
352,E-4,66.5,0.75,52,114.0
353,B4,66.5,0.75,52,114.0
354,B3,67.25,0.25,40,114.0
355,G4,67.25,0.25,46,114.0
356,E-4,67.25,0.25,46,114.0
357,B3,67.5,0.5,44,114.0
358,E4,67.5,0.5,52,114.0
359,G#4,67.5,0.5,52,114.0
360,B3,68.0,0.75,40,114.0
361,G#4,68.0,0.75,54,114.0
362,B4,68.0,0.75,54,114.0
363,B3,68.75,0.25,40,114.0
364,G#5,68.75,0.25,55,114.0
365,E5,68.75,0.25,55,114.0
366,B3,69.0,0.75,44,114.0
367,E-5,69.0,0.75,50,114.0
368,F#5,69.0,0.75,50,114.0
369,B3,69.75,0.25,40,114.0
370,E5,69.75,0.25,48,114.0
371,C#5,69.75,0.25,48,114.0
372,B3,70.0,0.5,44,114.0
373,E-5,70.0,167/1000,52,114.0
374,B4,70.0,167/1000,52,114.0
375,E5,70.167,167/1000,44,114.0
376,C#5,70.167,167/1000,44,114.0
377,E-5,70.333,167/1000,44,114.0
378,B4,70.333,167/1000,44,114.0
379,B3,70.5,0.75,40,114.0
380,C#5,70.5,0.75,49,114.0
381,A4,70.5,0.75,49,114.0
382,B3,71.25,0.25,40,114.0
383,E-5,71.25,0.25,48,114.0
384,B4,71.25,0.25,48,114.0
385,B3,71.5,0.75,44,114.0
386,E5,71.5,0.75,52,114.0
387,C#5,71.5,0.75,52,114.0
388,B3,72.25,0.25,44,114.0
389,A4,72.25,0.25,48,114.0
390,C#5,72.25,0.25,48,114.0
391,E3,72.5,0.5,50,114.0
392,B4,72.5,1.5,44,114.0
393,G#4,72.5,1.5,44,114.0
394,B3,73.0,0.75,48,114.0
395,E4,73.75,0.25,50,114.0
396,G#4,74.0,0.75,54,114.0
397,B4,74.75,0.25,55,114.0
398,E5,75.0,1.5,53,114.0
399,A5,75.0,0.5,67,114.0
400,B-4,75.0,1.5,49,114.0
401,C5,75.0,2.5,59,114.0
402,G5,75.5,0.75,61,114.0
403,A5,76.25,0.25,61,114.0
404,C6,76.5,0.75,53,114.0
405,A4,76.5,1.0,55,114.0
406,G5,76.513,247/250,61,114.0
407,F5,77.25,0.25,50,114.0
408,G#5,77.5,0.5,57,114.0
409,E-5,77.5,1.5,46,114.0
410,G5,77.5,3/250,61,114.0
411,A4,77.5,1.5,41,114.0
412,B4,77.5,2.5,49,114.0
413,F#5,78.0,0.75,51,114.0
414,G#5,78.75,0.25,51,114.0
415,B5,79.0,0.75,45,114.0
416,F#5,79.0,1.0,47,114.0
417,G#4,79.0,1.0,46,114.0
418,E5,79.75,0.25,50,114.0
419,B4,80.0,0.5,48,114.0
420,D5,80.0,0.5,52,114.0
421,F5,80.0,0.5,52,114.0
422,A4,80.5,0.75,51,114.0
423,F#5,80.5,0.75,52,114.0
424,C#5,80.5,0.75,52,114.0
425,F4,81.25,0.25,55,114.0
426,G#5,81.25,0.25,55,114.0
427,D5,81.25,0.25,55,114.0
428,F#4,81.5,1.0,46,114.0
429,A5,81.5,1.0,54,114.0
430,C#5,81.5,1.0,54,114.0
431,B3,82.5,1.5,39,114.0
432,A4,82.5,0.5,50,114.0
433,F#5,82.5,0.5,55,114.0
434,E-5,82.5,0.5,55,114.0
435,C#5,83.0,0.75,56,114.0
436,A5,83.0,0.75,54,114.0
437,E-5,83.0,0.75,54,114.0
438,B4,83.75,0.25,42,114.0
439,G#5,83.75,0.25,49,114.0
440,E-5,83.75,0.25,49,114.0
441,E5,84.0,1.0,48,114.0
442,B4,84.0,1.0,48,114.0
443,E4,84.0,1.0,42,114.0
444,G#4,84.0,1.0,42,114.0
445,B3,85.0,167/1000,48,114.0
446,C#4,85.167,167/1000,42,114.0
447,B3,85.333,167/1000,42,114.0
448,B-3,85.5,0.75,44,114.0
449,E-5,85.5,1.0,34,114.0
450,B4,85.5,1.0,34,114.0
451,F#4,85.5,1.0,34,114.0
452,E-4,85.5,1.0,34,114.0
453,G#3,86.25,0.25,44,114.0
454,B-3,86.5,0.75,48,114.0
455,E-5,86.5,1.0,34,114.0
456,B4,86.5,1.0,34,114.0
457,F#4,86.5,1.0,34,114.0
458,E-4,86.5,1.0,34,114.0
459,F#3,87.25,0.25,41,114.0
460,G#3,87.5,167/1000,48,114.0
461,B-3,87.667,167/1000,42,114.0
462,G#3,87.833,167/1000,42,114.0
463,F#3,88.0,0.75,44,114.0
464,E-5,88.0,1.0,34,114.0
465,B4,88.0,1.0,34,114.0
466,F#4,88.0,1.0,34,114.0
467,E-4,88.0,1.0,34,114.0
468,G#3,88.75,0.25,44,114.0
469,B-3,89.0,0.75,48,114.0
470,E-5,89.0,1.0,34,114.0
471,B4,89.0,1.0,34,114.0
472,F#4,89.0,1.0,34,114.0
473,E-4,89.0,1.0,34,114.0
474,B3,89.75,0.25,41,114.0
475,B-3,90.0,167/1000,48,114.0
476,B3,90.167,167/1000,42,114.0
477,B-3,90.333,167/1000,42,114.0
478,G#3,90.5,0.75,44,114.0
479,E-5,90.5,1.0,34,114.0
480,B4,90.5,1.0,34,114.0
481,F#4,90.5,1.0,34,114.0
482,E-4,90.5,1.0,34,114.0
483,F#3,91.25,0.25,44,114.0
484,G#3,91.5,0.75,48,114.0
485,E-5,91.5,1.0,34,114.0
486,B4,91.5,1.0,34,114.0
487,F#4,91.5,1.0,34,114.0
488,E-4,91.5,1.0,34,114.0
489,B-3,92.25,0.25,41,114.0
490,F#3,92.5,1.5,48,114.0
491,D4,93.0,0.75,52,114.0
492,E-4,93.75,0.25,51,114.0
493,F#4,94.0,0.75,56,114.0
494,B4,94.75,0.25,56,114.0
495,A4,95.0,2.5,57,114.0
496,F#5,95.0,0.5,63,114.0
497,E-3,95.0,2.5,46,114.0
498,E5,95.5,0.75,62,114.0
499,F#4,95.5,1.0,48,114.0
500,C4,95.5,2.0,48,114.0
501,E-5,96.25,0.125,59,114.0
502,E-5,96.375,0.062,50,114.0
503,F#5,96.438,0.062,50,114.0
504,E5,96.5,0.75,58,114.0
505,E-5,97.25,0.25,55,114.0
506,G#4,97.5,1.5,51,114.0
507,C5,97.5,0.5,59,114.0
508,E4,97.5,0.5,46,114.0
509,C#5,98.0,0.75,56,114.0
510,C#4,98.0,0.75,40,114.0
511,E5,98.75,0.25,59,114.0
512,G#3,98.75,0.25,49,114.0
513,G#5,99.0,0.75,64,114.0
514,E3,99.0,0.75,46,114.0
515,B5,99.75,0.25,61,114.0
516,C#3,99.75,0.25,51,114.0
517,F#2,100.0,0.5,53,114.0
518,B5,100.0,0.5,66,114.0
519,E-6,100.0,0.5,66,114.0
520,F3,100.5,0.75,48,114.0
521,B-5,100.5,0.75,58,114.0
522,C#6,100.5,0.75,58,114.0
523,F#3,101.25,0.25,49,114.0
524,F#5,101.25,0.25,56,114.0
525,B-5,101.25,0.25,56,114.0
526,B-3,101.5,0.75,52,114.0
527,E5,101.5,0.75,61,114.0
528,G#5,101.5,0.75,61,114.0
529,F#4,102.25,0.25,49,114.0
530,D5,102.25,0.25,52,114.0
531,F5,102.25,0.25,52,114.0
532,B2,102.5,0.5,53,114.0
533,E-5,102.5,2.5,56,114.0
534,F#5,102.5,2.5,56,114.0
535,F3,103.0,0.75,45,114.0
536,F#3,103.75,0.125,39,114.0
537,B-3,103.875,167/1000,37,114.0
538,G3,104.0,0.75,46,114.0
539,F#3,104.75,0.25,42,114.0
540,D4,105.0,0.5,42,114.0
541,C#4,105.5,0.75,39,114.0
542,F#5,105.5,1.0,30,114.0
543,D5,105.5,1.0,30,114.0
544,B4,105.5,1.0,30,114.0
545,F#4,105.5,1.0,30,114.0
546,B3,106.25,0.25,39,114.0
547,C#4,106.5,0.75,42,114.0
548,F#5,106.5,1.0,30,114.0
549,D5,106.5,1.0,30,114.0
550,B4,106.5,1.0,30,114.0
551,F#4,106.5,1.0,30,114.0
552,D4,107.25,0.25,37,114.0
553,C#4,107.5,167/1000,42,114.0
554,D4,107.667,167/1000,38,114.0
555,C#4,107.833,167/1000,38,114.0
556,B3,108.0,0.75,39,114.0
557,F#5,108.0,1.0,30,114.0
558,D5,108.0,1.0,30,114.0
559,B4,108.0,1.0,30,114.0
560,F#4,108.0,1.0,30,114.0
561,C#4,108.75,0.25,39,114.0
562,D4,109.0,0.75,42,114.0
563,F#5,109.0,1.0,30,114.0
564,D5,109.0,1.0,30,114.0
565,B4,109.0,1.0,30,114.0
566,F#4,109.0,1.0,30,114.0
567,E4,109.75,0.25,37,114.0
568,D4,110.0,167/1000,42,114.0
569,E4,110.167,167/1000,38,114.0
570,D4,110.333,167/1000,38,114.0
571,C#4,110.5,0.75,39,114.0
572,F#5,110.5,1.0,30,114.0
573,D5,110.5,1.0,30,114.0
574,B4,110.5,1.0,30,114.0
575,G#4,110.5,1.0,30,114.0
576,B3,111.25,1.25,39,114.0
577,A5,111.5,0.75,51,114.0
578,B-4,111.5,1.0,27,114.0
579,E5,111.5,1.0,39,114.0
580,C#5,111.5,1.0,39,114.0
581,G5,112.25,0.25,46,114.0
582,B4,112.5,0.5,48,114.0
583,D5,112.5,1.5,50,114.0
584,F#5,112.5,1.5,50,114.0
585,F4,113.0,0.75,39,114.0
586,F#4,113.75,0.125,38,114.0
587,A4,113.875,167/1000,35,114.0
588,G4,114.0,0.75,44,114.0
589,F#4,114.75,0.25,38,114.0
590,E-4,115.0,0.5,53,114.0
591,C5,115.0,0.5,60,114.0
592,F#5,115.0,0.5,60,114.0
593,A5,115.0,0.5,60,114.0
594,E4,115.5,0.75,50,114.0
595,B4,115.5,0.75,57,114.0
596,E5,115.5,0.75,57,114.0
597,G#5,115.5,0.75,57,114.0
598,B-3,116.25,0.25,50,114.0
599,C#5,116.25,0.25,56,114.0
600,E5,116.25,0.25,56,114.0
601,G5,116.25,0.25,56,114.0
602,B3,116.5,0.75,53,114.0
603,D5,116.5,0.75,62,114.0
604,F#5,116.5,0.75,62,114.0
605,A3,117.25,0.25,50,114.0
606,F#5,117.25,0.25,57,114.0
607,B5,117.25,0.25,57,114.0
608,G#3,117.5,0.5,54,114.0
609,B4,117.5,0.5,69,114.0
610,F5,117.5,0.5,69,114.0
611,B5,117.5,0.5,69,114.0
612,G3,118.0,0.75,50,114.0
613,B4,118.0,0.75,64,114.0
614,E5,118.0,0.75,64,114.0
615,B5,118.0,0.75,64,114.0
616,F3,118.75,0.25,55,114.0
617,B4,118.75,0.25,64,114.0
618,C#5,118.75,0.25,64,114.0
619,B5,118.75,0.25,64,114.0
620,F#3,119.0,1.0,51,114.0
621,B4,119.0,1.0,65,114.0
622,D5,119.0,1.0,65,114.0
623,B5,119.0,1.0,65,114.0
624,E4,120.0,0.5,45,114.0
625,G4,120.0,0.5,51,114.0
626,B4,120.0,0.5,51,114.0
627,C#5,120.0,0.5,51,114.0
628,E4,120.5,0.75,48,114.0
629,G4,120.5,0.75,49,114.0
630,B4,120.5,0.75,49,114.0
631,C#5,120.5,0.75,49,114.0
632,D4,121.25,0.25,47,114.0
633,G4,121.25,0.25,54,114.0
634,B4,121.25,0.25,54,114.0
635,D5,121.25,0.25,54,114.0
636,E5,121.5,0.75,62,114.0
637,C#4,121.5,1.0,49,114.0
638,G4,121.5,1.0,53,114.0
639,B4,121.5,1.0,53,114.0
640,G5,122.25,0.25,64,114.0
641,B-4,122.5,0.5,58,114.0
642,D5,122.5,0.5,58,114.0
643,F#3,122.5,0.5,46,114.0
644,E4,122.5,0.5,46,114.0
645,B-4,123.0,0.75,46,114.0
646,C#5,123.0,0.75,46,114.0
647,F#3,123.0,0.75,44,114.0
648,E4,123.0,0.75,44,114.0
649,B-4,123.75,0.25,43,114.0
650,D5,123.75,0.25,43,114.0
651,F#3,123.75,0.25,36,114.0
652,E4,123.75,0.25,36,114.0
653,F#4,124.0,1.0,42,114.0
654,B4,124.0,1.0,42,114.0
655,B3,124.0,1.0,36,114.0
656,D4,124.0,1.0,36,114.0
657,B3,125.0,167/1000,48,114.0
658,C#4,125.167,167/1000,42,114.0
659,B3,125.333,167/1000,42,114.0
660,B-3,125.5,0.75,44,114.0
661,E-5,125.5,1.0,34,114.0
662,B4,125.5,1.0,34,114.0
663,F#4,125.5,1.0,34,114.0
664,E-4,125.5,1.0,34,114.0
665,G#3,126.25,0.25,44,114.0
666,B-3,126.5,0.75,48,114.0
667,E-5,126.5,1.0,34,114.0
668,B4,126.5,1.0,34,114.0
669,F#4,126.5,1.0,34,114.0
670,E-4,126.5,1.0,34,114.0
671,F#3,127.25,0.25,41,114.0
672,G#3,127.5,167/1000,48,114.0
673,B-3,127.667,167/1000,42,114.0
674,G#3,127.833,167/1000,42,114.0
675,F#3,128.0,0.75,44,114.0
676,E-5,128.0,1.0,34,114.0
677,B4,128.0,1.0,34,114.0
678,F#4,128.0,1.0,34,114.0
679,E-4,128.0,1.0,34,114.0
680,G#3,128.75,0.25,44,114.0
681,B-3,129.0,0.75,48,114.0
682,E-5,129.0,1.0,34,114.0
683,B4,129.0,1.0,34,114.0
684,F#4,129.0,1.0,34,114.0
685,E-4,129.0,1.0,34,114.0
686,B3,129.75,0.25,41,114.0
687,B-3,130.0,167/1000,48,114.0
688,B3,130.167,167/1000,42,114.0
689,B-3,130.333,167/1000,42,114.0
690,G#3,130.5,0.75,44,114.0
691,E-5,130.5,1.0,34,114.0
692,B4,130.5,1.0,34,114.0
693,F#4,130.5,1.0,34,114.0
694,E-4,130.5,1.0,34,114.0
695,F#3,131.25,0.25,44,114.0
696,G#3,131.5,0.75,48,114.0
697,E-5,131.5,1.0,34,114.0
698,B4,131.5,1.0,34,114.0
699,F#4,131.5,1.0,34,114.0
700,E-4,131.5,1.0,34,114.0
701,B-3,132.25,0.25,41,114.0
702,F#3,132.5,1.5,48,114.0
703,D4,133.0,0.75,52,114.0
704,E-4,133.75,0.25,51,114.0
705,F#4,134.0,0.75,56,114.0
706,B4,134.75,0.25,56,114.0
707,A4,135.0,2.5,57,114.0
708,F#5,135.0,0.5,63,114.0
709,E-3,135.0,2.5,46,114.0
710,E5,135.5,0.75,62,114.0
711,C4,135.5,2.0,48,114.0
712,F#4,135.5,1.0,48,114.0
713,E-5,136.25,0.125,59,114.0
714,E-5,136.375,0.062,50,114.0
715,F#5,136.438,0.062,50,114.0
716,E5,136.5,0.75,58,114.0
717,E-5,137.25,0.25,55,114.0
718,G#4,137.5,1.5,51,114.0
719,C5,137.5,0.5,59,114.0
720,E4,137.5,0.5,46,114.0
721,C#5,138.0,0.75,56,114.0
722,C#4,138.0,0.75,40,114.0
723,E5,138.75,0.25,59,114.0
724,G#3,138.75,0.25,49,114.0
725,G#5,139.0,0.75,64,114.0
726,E3,139.0,0.75,46,114.0
727,B5,139.75,0.25,61,114.0
728,C#3,139.75,0.25,51,114.0
729,F#2,140.0,0.5,53,114.0
730,B5,140.0,0.5,66,114.0
731,E-6,140.0,0.5,66,114.0
732,F3,140.5,0.75,48,114.0
733,B-5,140.5,0.75,58,114.0
734,C#6,140.5,0.75,58,114.0
735,F#3,141.25,0.25,49,114.0
736,F#5,141.25,0.25,56,114.0
737,B-5,141.25,0.25,56,114.0
738,B-3,141.5,0.75,52,114.0
739,E5,141.5,0.75,61,114.0
740,G#5,141.5,0.75,61,114.0
741,F#4,142.25,0.25,49,114.0
742,D5,142.25,0.25,52,114.0
743,F5,142.25,0.25,52,114.0
744,B2,142.5,0.5,53,114.0
745,E-5,142.5,2.5,56,114.0
746,F#5,142.5,2.5,56,114.0
747,F3,143.0,0.75,45,114.0
748,F#3,143.75,0.125,39,114.0
749,B-3,143.875,167/1000,37,114.0
750,G3,144.0,0.75,46,114.0
751,F#3,144.75,0.25,42,114.0
752,D4,145.0,0.5,42,114.0
753,C#4,145.5,0.75,39,114.0
754,F#5,145.5,1.0,30,114.0
755,D5,145.5,1.0,30,114.0
756,B4,145.5,1.0,30,114.0
757,F#4,145.5,1.0,30,114.0
758,B3,146.25,0.25,39,114.0
759,C#4,146.5,0.75,42,114.0
760,F#5,146.5,1.0,30,114.0
761,D5,146.5,1.0,30,114.0
762,B4,146.5,1.0,30,114.0
763,F#4,146.5,1.0,30,114.0
764,D4,147.25,0.25,37,114.0
765,C#4,147.5,167/1000,42,114.0
766,D4,147.667,167/1000,38,114.0
767,C#4,147.833,167/1000,38,114.0
768,B3,148.0,0.75,39,114.0
769,F#5,148.0,1.0,30,114.0
770,D5,148.0,1.0,30,114.0
771,B4,148.0,1.0,30,114.0
772,F#4,148.0,1.0,30,114.0
773,C#4,148.75,0.25,39,114.0
774,D4,149.0,0.75,42,114.0
775,F#5,149.0,1.0,30,114.0
776,D5,149.0,1.0,30,114.0
777,B4,149.0,1.0,30,114.0
778,F#4,149.0,1.0,30,114.0
779,E4,149.75,0.25,37,114.0
780,D4,150.0,167/1000,42,114.0
781,E4,150.167,167/1000,38,114.0
782,D4,150.333,167/1000,38,114.0
783,C#4,150.5,0.75,39,114.0
784,F#5,150.5,1.0,30,114.0
785,D5,150.5,1.0,30,114.0
786,B4,150.5,1.0,30,114.0
787,G#4,150.5,1.0,30,114.0
788,B3,151.25,1.25,39,114.0
789,A5,151.5,0.75,51,114.0
790,B-4,151.5,1.0,27,114.0
791,E5,151.5,1.0,39,114.0
792,C#5,151.5,1.0,39,114.0
793,G5,152.25,0.25,46,114.0
794,B4,152.5,0.5,48,114.0
795,D5,152.5,1.5,50,114.0
796,F#5,152.5,1.5,50,114.0
797,F4,153.0,0.75,39,114.0
798,F#4,153.75,0.125,38,114.0
799,A4,153.875,167/1000,35,114.0
800,G4,154.0,0.75,44,114.0
801,F#4,154.75,0.25,38,114.0
802,E-4,155.0,0.5,53,114.0
803,C5,155.0,0.5,60,114.0
804,F#5,155.0,0.5,60,114.0
805,A5,155.0,0.5,60,114.0
806,E4,155.5,0.75,50,114.0
807,B4,155.5,0.75,57,114.0
808,E5,155.5,0.75,57,114.0
809,G#5,155.5,0.75,57,114.0
810,B-3,156.25,0.25,50,114.0
811,C#5,156.25,0.25,56,114.0
812,E5,156.25,0.25,56,114.0
813,G5,156.25,0.25,56,114.0
814,B3,156.5,0.75,53,114.0
815,D5,156.5,0.75,62,114.0
816,F#5,156.5,0.75,62,114.0
817,A3,157.25,0.25,50,114.0
818,F#5,157.25,0.25,57,114.0
819,B5,157.25,0.25,57,114.0
820,G#3,157.5,0.5,54,114.0
821,B4,157.5,0.5,69,114.0
822,F5,157.5,0.5,69,114.0
823,B5,157.5,0.5,69,114.0
824,G3,158.0,0.75,50,114.0
825,B4,158.0,0.75,64,114.0
826,E5,158.0,0.75,64,114.0
827,B5,158.0,0.75,64,114.0
828,F3,158.75,0.25,55,114.0
829,B4,158.75,0.25,64,114.0
830,C#5,158.75,0.25,64,114.0
831,B5,158.75,0.25,64,114.0
832,F#3,159.0,1.0,51,114.0
833,B4,159.0,1.0,65,114.0
834,D5,159.0,1.0,65,114.0
835,B5,159.0,1.0,65,114.0
836,E4,160.0,0.5,45,114.0
837,G4,160.0,0.5,51,114.0
838,B4,160.0,0.5,51,114.0
839,C#5,160.0,0.5,51,114.0
840,E4,160.5,0.75,48,114.0
841,G4,160.5,0.75,49,114.0
842,B4,160.5,0.75,49,114.0
843,C#5,160.5,0.75,49,114.0
844,D4,161.25,0.25,47,114.0
845,G4,161.25,0.25,54,114.0
846,B4,161.25,0.25,54,114.0
847,D5,161.25,0.25,54,114.0
848,E5,161.5,0.75,62,114.0
849,C#4,161.5,1.0,49,114.0
850,G4,161.5,1.0,53,114.0
851,B4,161.5,1.0,53,114.0
852,G5,162.25,0.25,64,114.0
853,B-4,162.5,0.5,58,114.0
854,D5,162.5,0.5,58,114.0
855,F#3,162.5,0.5,46,114.0
856,E4,162.5,0.5,46,114.0
857,B-4,163.0,0.75,46,114.0
858,C#5,163.0,0.75,46,114.0
859,F#3,163.0,0.75,44,114.0
860,E4,163.0,0.75,44,114.0
861,B-4,163.75,0.25,43,114.0
862,D5,163.75,0.25,43,114.0
863,E4,163.75,0.25,36,114.0
864,F#3,163.75,0.25,36,114.0
865,F#4,164.0,1.0,42,114.0
866,B4,164.0,1.0,42,114.0
867,D4,164.0,1.0,36,114.0
868,B3,164.0,1.0,36,114.0
869,B3,165.0,0.5,44,114.0
870,F#4,165.0,0.5,55,114.0
871,A4,165.0,0.5,55,114.0
872,B3,165.5,0.75,40,114.0
873,F#4,165.5,0.75,52,114.0
874,A4,165.5,0.75,52,114.0
875,B3,166.25,0.25,40,114.0
876,E4,166.25,0.25,48,114.0
877,C#5,166.25,0.25,48,114.0
878,B3,166.5,0.75,44,114.0
879,E-4,166.5,0.75,52,114.0
880,B4,166.5,0.75,52,114.0
881,B3,167.25,0.25,40,114.0
882,G4,167.25,0.25,46,114.0
883,E-4,167.25,0.25,46,114.0
884,B3,167.5,0.5,44,114.0
885,E4,167.5,0.5,52,114.0
886,G#4,167.5,0.5,52,114.0
887,B3,168.0,0.75,40,114.0
888,G#4,168.0,0.75,54,114.0
889,B4,168.0,0.75,54,114.0
890,B3,168.75,0.25,40,114.0
891,G#5,168.75,0.25,53,114.0
892,E5,168.75,0.25,53,114.0
893,B3,169.0,0.75,44,114.0
894,E-5,169.0,0.75,50,114.0
895,F#5,169.0,0.75,50,114.0
896,B3,169.75,0.25,40,114.0
897,C#5,169.75,0.25,48,114.0
898,E5,169.75,0.25,48,114.0
899,B3,170.0,0.5,44,114.0
900,B4,170.0,167/1000,52,114.0
901,E-5,170.0,167/1000,52,114.0
902,C#5,170.167,167/1000,44,114.0
903,E5,170.167,167/1000,44,114.0
904,B4,170.333,167/1000,44,114.0
905,E-5,170.333,167/1000,44,114.0
906,B3,170.5,0.75,40,114.0
907,A4,170.5,0.75,49,114.0
908,C#5,170.5,0.75,49,114.0
909,B3,171.25,0.25,40,114.0
910,B4,171.25,0.25,48,114.0
911,E-5,171.25,0.25,48,114.0
912,B3,171.5,0.75,44,114.0
913,C#5,171.5,0.75,52,114.0
914,E5,171.5,0.75,52,114.0
915,B3,172.25,0.25,44,114.0
916,A4,172.25,0.25,48,114.0
917,C#5,172.25,0.25,48,114.0
918,E3,172.5,1.5,37,114.0
919,B3,172.5,0.5,50,114.0
920,G#4,172.5,1.5,44,114.0
921,B4,172.5,1.5,44,114.0
922,B3,173.0,0.75,48,114.0
923,E4,173.75,0.25,49,114.0
924,E-4,174.0,0.75,49,114.0
925,D4,174.75,0.25,45,114.0
926,C#4,175.0,2.5,48,114.0
927,G#4,175.0,0.5,48,114.0
928,B4,175.0,0.5,52,114.0
929,F5,175.0,0.5,52,114.0
930,A4,175.5,0.75,51,114.0
931,C#5,175.5,0.75,52,114.0
932,F#5,175.5,0.75,52,114.0
933,B4,176.25,0.25,50,114.0
934,D5,176.25,0.25,55,114.0
935,G#5,176.25,0.25,55,114.0
936,B5,176.375,167/1000,50,114.0
937,F5,176.5,1.0,49,114.0
938,A5,176.5,0.75,58,114.0
939,C#5,176.5,0.75,46,114.0
940,G#5,177.25,0.25,57,114.0
941,B4,177.25,0.25,48,114.0
942,G#5,177.5,0.5,60,114.0
943,F#4,177.5,1.5,39,114.0
944,B4,177.5,0.5,50,114.0
945,C#5,177.5,1.5,46,114.0
946,C#6,177.5,1.5,46,114.0
947,F#5,178.0,0.75,58,114.0
948,A4,178.0,0.75,49,114.0
949,F5,178.75,0.25,50,114.0
950,G#4,178.75,0.25,46,114.0
951,F#5,179.0,0.75,53,114.0
952,A4,179.0,0.75,48,114.0
953,E4,179.75,0.25,46,114.0
954,A4,179.75,0.25,55,114.0
955,C5,179.75,0.25,55,114.0
956,A4,180.0,1.5,47,114.0
957,B4,180.0,0.5,57,114.0
958,B3,180.0,1.5,37,114.0
959,E-4,180.0,0.5,49,114.0
960,F5,180.5,0.75,58,114.0
961,D4,180.5,0.75,49,114.0
962,F#5,181.25,0.25,59,114.0
963,E-4,181.25,0.25,49,114.0
964,A5,181.5,0.75,61,114.0
965,B3,181.5,1.0,37,114.0
966,C#5,181.5,0.75,46,114.0
967,G#5,182.25,0.25,57,114.0
968,B4,182.25,0.25,48,114.0
969,B4,182.5,2.25,38,114.0
970,B5,182.5,2.0,42,114.0
971,F#5,182.5,0.5,55,114.0
972,E4,182.5,2.25,34,114.0
973,A4,182.5,0.5,46,114.0
974,E5,183.0,0.75,52,114.0
975,G#4,183.0,0.75,45,114.0
976,E-5,183.75,0.25,50,114.0
977,G4,183.75,0.25,41,114.0
978,E5,183.988,0.5,50,114.0
979,G#4,184.0,0.5,37,114.0
980,G#4,184.75,0.25,54,114.0
981,F4,184.75,0.25,54,114.0
982,B3,185.0,0.5,44,114.0
983,F#4,185.0,0.5,55,114.0
984,A4,185.0,0.5,55,114.0
985,B3,185.5,0.75,40,114.0
986,F#4,185.5,0.75,52,114.0
987,A4,185.5,0.75,52,114.0
988,B3,186.25,0.25,40,114.0
989,E4,186.25,0.25,48,114.0
990,C#5,186.25,0.25,48,114.0
991,B3,186.5,0.75,44,114.0
992,E-4,186.5,0.75,52,114.0
993,B4,186.5,0.75,52,114.0
994,B3,187.25,0.25,40,114.0
995,G4,187.25,0.25,46,114.0
996,E-4,187.25,0.25,46,114.0
997,B3,187.5,0.5,44,114.0
998,E4,187.5,0.5,52,114.0
999,G#4,187.5,0.5,52,114.0
1000,B3,188.0,0.75,40,114.0
1001,G#4,188.0,0.75,54,114.0
1002,B4,188.0,0.75,54,114.0
1003,B3,188.75,0.25,40,114.0
1004,G#5,188.75,0.25,55,114.0
1005,E5,188.75,0.25,55,114.0
1006,B3,189.0,0.75,44,114.0
1007,E-5,189.0,0.75,50,114.0
1008,F#5,189.0,0.75,50,114.0
1009,B3,189.75,0.25,40,114.0
1010,C#5,189.75,0.25,48,114.0
1011,E5,189.75,0.25,48,114.0
1012,B3,190.0,0.5,44,114.0
1013,B4,190.0,167/1000,52,114.0
1014,E-5,190.0,167/1000,52,114.0
1015,C#5,190.167,167/1000,44,114.0
1016,E5,190.167,167/1000,44,114.0
1017,B4,190.333,167/1000,44,114.0
1018,E-5,190.333,167/1000,44,114.0
1019,B3,190.5,0.75,40,114.0
1020,A4,190.5,0.75,49,114.0
1021,C#5,190.5,0.75,49,114.0
1022,B3,191.25,0.25,40,114.0
1023,B4,191.25,0.25,48,114.0
1024,E-5,191.25,0.25,48,114.0
1025,B3,191.5,0.75,44,114.0
1026,C#5,191.5,0.75,52,114.0
1027,E5,191.5,0.75,52,114.0
1028,B3,192.25,0.25,44,114.0
1029,A4,192.25,0.25,48,114.0
1030,C#5,192.25,0.25,48,114.0
1031,E3,192.5,0.5,50,114.0
1032,G#4,192.5,1.5,44,114.0
1033,B4,192.5,1.5,44,114.0
1034,B3,193.0,0.75,48,114.0
1035,E4,193.75,0.25,51,114.0
1036,G#4,194.0,0.75,54,114.0
1037,B4,194.75,0.25,55,114.0
1038,E5,195.0,1.5,54,114.0
1039,A5,195.0,0.5,65,114.0
1040,B-4,195.0,1.5,49,114.0
1041,C5,195.0,2.5,59,114.0
1042,G5,195.5,0.75,61,114.0
1043,A5,196.25,0.25,61,114.0
1044,C6,196.5,0.75,57,114.0
1045,A4,196.5,1.0,55,114.0
1046,G5,196.512,247/250,51,114.0
1047,F5,197.25,0.25,50,114.0
1048,E-5,197.5,1.5,48,114.0
1049,G#5,197.5,0.5,57,114.0
1050,G5,197.5,3/250,51,114.0
1051,A4,197.5,1.5,41,114.0
1052,B4,197.5,2.5,49,114.0
1053,F#5,198.0,0.75,51,114.0
1054,G#5,198.75,0.25,51,114.0
1055,F#5,199.0,1.0,44,114.0
1056,B5,199.0,0.75,47,114.0
1057,G#4,199.0,1.0,46,114.0
1058,E5,199.75,0.25,50,114.0
1059,B4,200.0,0.5,48,114.0
1060,D5,200.0,0.5,52,114.0
1061,F5,200.0,0.5,52,114.0
1062,A4,200.5,0.75,51,114.0
1063,C#5,200.5,0.75,52,114.0
1064,F#5,200.5,0.75,52,114.0
1065,F4,201.25,0.25,55,114.0
1066,D5,201.25,0.25,55,114.0
1067,G#5,201.25,0.25,55,114.0
1068,F#4,201.5,1.0,44,114.0
1069,C#5,201.5,1.0,53,114.0
1070,A5,201.5,1.0,53,114.0
1071,B3,202.5,1.5,39,114.0
1072,A4,202.5,0.5,50,114.0
1073,E-5,202.5,0.5,55,114.0
1074,F#5,202.5,0.5,55,114.0
1075,C#5,203.0,0.75,55,114.0
1076,E-5,203.0,0.75,54,114.0
1077,A5,203.0,0.75,54,114.0
1078,B4,203.75,0.25,42,114.0
1079,E-5,203.75,0.25,49,114.0
1080,G#5,203.75,0.25,49,114.0
1081,B4,204.0,1.0,48,114.0
1082,E5,204.0,1.0,48,114.0
1083,E4,204.0,1.0,42,114.0
1084,G#4,204.0,1.0,42,114.0
1085,C4,205.0,0.5,37,114.0
1086,E4,205.0,0.5,46,114.0
1087,G4,205.0,0.5,46,114.0
1088,B3,205.5,0.75,34,114.0
1089,D4,205.5,0.75,43,114.0
1090,G4,205.5,0.75,43,114.0
1091,C4,206.25,0.25,34,114.0
1092,E4,206.25,0.25,40,114.0
1093,G4,206.25,0.25,40,114.0
1094,B3,206.5,0.75,37,114.0
1095,D4,206.5,0.75,43,114.0
1096,G4,206.5,0.75,43,114.0
1097,A3,207.25,0.25,41,114.0
1098,C5,207.25,0.25,40,114.0
1099,D5,207.25,0.25,40,114.0
1100,F#4,207.25,0.25,40,114.0
1101,G3,207.5,0.5,50,114.0
1102,G4,207.5,0.5,56,114.0
1103,B4,207.5,0.5,56,114.0
1104,D5,207.5,0.5,56,114.0
1105,F#3,208.0,0.75,45,114.0
1106,A4,208.0,0.75,51,114.0
1107,B4,208.0,0.75,51,114.0
1108,E-5,208.0,0.75,51,114.0
1109,E3,208.75,0.25,44,114.0
1110,G#4,208.75,0.25,49,114.0
1111,B4,208.75,0.25,49,114.0
1112,E5,208.75,0.25,49,114.0
1113,D3,209.0,0.75,48,114.0
1114,B4,209.0,0.75,51,114.0
1115,F5,209.0,0.75,51,114.0
1116,G#5,209.0,0.75,51,114.0
1117,B5,209.75,0.25,58,114.0
1118,B2,209.75,0.25,47,114.0
1119,C3,210.0,0.5,55,114.0
1120,E5,210.0,0.5,67,114.0
1121,A5,210.0,0.5,67,114.0
1122,C6,210.5,0.75,65,114.0
1123,A2,210.5,0.75,52,114.0
1124,E6,211.25,0.25,69,114.0
1125,F#2,211.25,0.25,55,114.0
1126,B2,211.5,0.75,60,114.0
1127,A5,211.5,0.75,72,114.0
1128,E-6,211.5,0.75,72,114.0
1129,B6,212.25,0.25,73,114.0
1130,B1,212.25,0.25,59,114.0
1131,E2,212.5,0.5,70,114.0
1132,G#6,212.5,1.5,81,114.0
1133,G#5,212.5,1.5,81,114.0
1134,B2,213.0,0.75,64,114.0
1135,E3,213.75,0.25,62,114.0
1136,G#3,214.0,0.75,70,114.0
1137,B3,214.75,0.25,64,114.0
1138,A4,215.0,1.5,57,114.0
1139,B4,215.0,0.5,68,114.0
1140,B3,215.0,2.5,45,114.0
1141,E-4,215.0,0.5,53,114.0
1142,C#5,215.5,0.75,62,114.0
1143,E4,215.5,0.75,50,114.0
1144,E-5,216.25,0.25,66,114.0
1145,F#4,216.25,0.25,48,114.0
1146,A4,216.5,1.0,59,114.0
1147,B4,216.5,0.75,70,114.0
1148,E-4,216.5,0.75,53,114.0
1149,G#5,217.25,0.25,65,114.0
1150,F#4,217.25,0.25,51,114.0
1151,G#4,217.5,1.5,52,114.0
1152,E4,217.5,0.5,52,114.0
1153,B4,217.5,1.5,62,114.0
1154,E5,217.5,1.5,62,114.0
1155,E-4,218.0,0.75,51,114.0
1156,D4,218.75,0.25,47,114.0
1157,C#4,219.0,0.75,49,114.0
1158,C4,219.75,0.25,51,114.0
1159,A3,220.0,1.5,51,114.0
1160,B3,220.0,0.5,61,114.0
1161,B2,220.0,2.5,40,114.0
1162,E-3,220.0,0.5,47,114.0
1163,C#4,220.5,0.75,55,114.0
1164,E3,220.5,0.75,45,114.0
1165,E-4,221.25,0.25,59,114.0
1166,F#3,221.25,0.25,43,114.0
1167,A3,221.5,1.0,53,114.0
1168,B3,221.5,0.5,63,114.0
1169,E-3,221.5,0.75,47,114.0
1170,G#4,222.0,0.5,56,114.0
1171,F#3,222.25,0.25,42,114.0
1172,B3,222.5,0.5,58,114.0
1173,E4,222.5,0.5,58,114.0
1174,E3,222.5,0.5,45,114.0
1175,G#3,222.5,0.5,45,114.0
1176,E5,223.0,1.0,78,114.0
1177,G#5,223.0,1.0,78,114.0
1178,E6,223.0,1.0,78,114.0
1179,E2,223.0,1.0,54,114.0
1180,E3,223.0,1.0,54,114.0
1181,B3,225.0,0.5,44,114.0
1182,F#4,225.0,0.5,55,114.0
1183,A4,225.0,0.5,55,114.0
1184,B3,225.5,0.75,40,114.0
1185,F#4,225.5,0.75,52,114.0
1186,A4,225.5,0.75,52,114.0
1187,B3,226.25,0.25,40,114.0
1188,E4,226.25,0.25,48,114.0
1189,C#5,226.25,0.25,48,114.0
1190,B3,226.5,0.75,44,114.0
1191,E-4,226.5,0.75,52,114.0
1192,B4,226.5,0.75,52,114.0
1193,B3,227.25,0.25,40,114.0
1194,G4,227.25,0.25,46,114.0
1195,E-4,227.25,0.25,46,114.0
1196,B3,227.5,0.5,44,114.0
1197,E4,227.5,0.5,52,114.0
1198,G#4,227.5,0.5,52,114.0
1199,B3,228.0,0.75,40,114.0
1200,G#4,228.0,0.75,54,114.0
1201,B4,228.0,0.75,54,114.0
1202,B3,228.75,0.25,40,114.0
1203,G#5,228.75,0.25,53,114.0
1204,E5,228.75,0.25,53,114.0
1205,B3,229.0,0.75,44,114.0
1206,E-5,229.0,0.75,50,114.0
1207,F#5,229.0,0.75,50,114.0
1208,B3,229.75,0.25,40,114.0
1209,C#5,229.75,0.25,48,114.0
1210,E5,229.75,0.25,48,114.0
1211,B3,230.0,0.5,44,114.0
1212,B4,230.0,167/1000,52,114.0
1213,E-5,230.0,167/1000,52,114.0
1214,C#5,230.167,167/1000,44,114.0
1215,E5,230.167,167/1000,44,114.0
1216,B4,230.333,167/1000,44,114.0
1217,E-5,230.333,167/1000,44,114.0
1218,B3,230.5,0.75,40,114.0
1219,A4,230.5,0.75,49,114.0
1220,C#5,230.5,0.75,49,114.0
1221,B3,231.25,0.25,40,114.0
1222,B4,231.25,0.25,48,114.0
1223,E-5,231.25,0.25,48,114.0
1224,B3,231.5,0.75,44,114.0
1225,C#5,231.5,0.75,52,114.0
1226,E5,231.5,0.75,52,114.0
1227,B3,232.25,0.25,44,114.0
1228,A4,232.25,0.25,48,114.0
1229,C#5,232.25,0.25,48,114.0
1230,E3,232.5,1.5,39,114.0
1231,B3,232.5,0.5,50,114.0
1232,G#4,232.5,1.5,44,114.0
1233,B4,232.5,1.5,44,114.0
1234,B3,233.0,0.75,48,114.0
1235,E4,233.75,0.25,49,114.0
1236,E-4,234.0,0.75,49,114.0
1237,D4,234.75,0.25,45,114.0
1238,G#4,235.0,0.5,48,114.0
1239,C#4,235.0,2.5,48,114.0
1240,B4,235.0,0.5,52,114.0
1241,F5,235.0,0.5,52,114.0
1242,A4,235.5,0.75,51,114.0
1243,C#5,235.5,0.75,52,114.0
1244,F#5,235.5,0.75,52,114.0
1245,B4,236.25,0.25,50,114.0
1246,D5,236.25,0.25,55,114.0
1247,G#5,236.25,0.25,55,114.0
1248,B5,236.375,167/1000,50,114.0
1249,F5,236.5,1.0,49,114.0
1250,A5,236.5,0.75,58,114.0
1251,C#5,236.5,0.75,46,114.0
1252,G#5,237.25,0.25,57,114.0
1253,B4,237.25,0.25,48,114.0
1254,G#5,237.5,0.5,60,114.0
1255,F#4,237.5,1.5,39,114.0
1256,B4,237.5,0.5,50,114.0
1257,C#5,237.5,1.5,46,114.0
1258,C#6,237.5,1.5,46,114.0
1259,F#5,238.0,0.75,58,114.0
1260,A4,238.0,0.75,49,114.0
1261,F5,238.75,0.25,50,114.0
1262,G#4,238.75,0.25,46,114.0
1263,F#5,239.0,0.75,53,114.0
1264,A4,239.0,0.75,48,114.0
1265,E4,239.75,0.25,46,114.0
1266,A4,239.75,0.25,55,114.0
1267,C5,239.75,0.25,55,114.0
1268,A4,240.0,1.5,47,114.0
1269,B4,240.0,0.5,57,114.0
1270,B3,240.0,1.5,37,114.0
1271,E-4,240.0,0.5,49,114.0
1272,F5,240.5,0.75,58,114.0
1273,D4,240.5,0.75,49,114.0
1274,F#5,241.25,0.25,59,114.0
1275,E-4,241.25,0.25,49,114.0
1276,A5,241.5,0.75,61,114.0
1277,B3,241.5,1.0,37,114.0
1278,C#5,241.5,0.75,46,114.0
1279,G#5,242.25,0.25,57,114.0
1280,B4,242.25,0.25,48,114.0
1281,B4,242.5,2.25,38,114.0
1282,B5,242.5,2.0,42,114.0
1283,F#5,242.5,0.5,55,114.0
1284,A4,242.5,0.5,46,114.0
1285,E4,242.5,2.25,34,114.0
1286,E5,243.0,0.75,52,114.0
1287,G#4,243.0,0.75,45,114.0
1288,E-5,243.75,0.25,50,114.0
1289,G4,243.75,0.25,41,114.0
1290,E5,243.988,0.5,50,114.0
1291,G#4,244.0,0.5,37,114.0
1292,G#4,244.75,0.25,54,114.0
1293,F4,244.75,0.25,54,114.0
1294,B3,245.0,0.5,44,114.0
1295,F#4,245.0,0.5,55,114.0
1296,A4,245.0,0.5,55,114.0
1297,B3,245.5,0.75,40,114.0
1298,F#4,245.5,0.75,52,114.0
1299,A4,245.5,0.75,52,114.0
1300,B3,246.25,0.25,40,114.0
1301,E4,246.25,0.25,48,114.0
1302,C#5,246.25,0.25,48,114.0
1303,B3,246.5,0.75,44,114.0
1304,E-4,246.5,0.75,52,114.0
1305,B4,246.5,0.75,52,114.0
1306,B3,247.25,0.25,40,114.0
1307,G4,247.25,0.25,46,114.0
1308,E-4,247.25,0.25,46,114.0
1309,B3,247.5,0.5,44,114.0
1310,E4,247.5,0.5,52,114.0
1311,G#4,247.5,0.5,52,114.0
1312,B3,248.0,0.75,40,114.0
1313,G#4,248.0,0.75,54,114.0
1314,B4,248.0,0.75,54,114.0
1315,B3,248.75,0.25,40,114.0
1316,G#5,248.75,0.25,55,114.0
1317,E5,248.75,0.25,55,114.0
1318,B3,249.0,0.75,44,114.0
1319,E-5,249.0,0.75,50,114.0
1320,F#5,249.0,0.75,50,114.0
1321,B3,249.75,0.25,40,114.0
1322,C#5,249.75,0.25,48,114.0
1323,E5,249.75,0.25,48,114.0
1324,B3,250.0,0.5,44,114.0
1325,B4,250.0,167/1000,52,114.0
1326,E-5,250.0,167/1000,52,114.0
1327,C#5,250.167,167/1000,44,114.0
1328,E5,250.167,167/1000,44,114.0
1329,B4,250.333,167/1000,44,114.0
1330,E-5,250.333,167/1000,44,114.0
1331,B3,250.5,0.75,40,114.0
1332,A4,250.5,0.75,49,114.0
1333,C#5,250.5,0.75,49,114.0
1334,B3,251.25,0.25,40,114.0
1335,B4,251.25,0.25,48,114.0
1336,E-5,251.25,0.25,48,114.0
1337,B3,251.5,0.75,44,114.0
1338,C#5,251.5,0.75,52,114.0
1339,E5,251.5,0.75,52,114.0
1340,B3,252.25,0.25,44,114.0
1341,A4,252.25,0.25,48,114.0
1342,C#5,252.25,0.25,48,114.0
1343,E3,252.5,0.5,50,114.0
1344,G#4,252.5,1.5,44,114.0
1345,B4,252.5,1.5,44,114.0
1346,B3,253.0,0.75,48,114.0
1347,E4,253.75,0.25,51,114.0
1348,G#4,254.0,0.75,54,114.0
1349,B4,254.75,0.25,55,114.0
1350,E5,255.0,1.5,53,114.0
1351,A5,255.0,0.5,65,114.0
1352,C5,255.0,2.5,59,114.0
1353,B-4,255.0,1.5,49,114.0
1354,G5,255.5,0.75,61,114.0
1355,A5,256.25,0.25,61,114.0
1356,C6,256.5,0.75,57,114.0
1357,A4,256.5,1.0,55,114.0
1358,G5,256.512,247/250,51,114.0
1359,F5,257.25,0.25,50,114.0
1360,E-5,257.5,1.5,48,114.0
1361,G#5,257.5,0.5,57,114.0
1362,G5,257.5,3/250,51,114.0
1363,A4,257.5,1.5,41,114.0
1364,B4,257.5,2.5,49,114.0
1365,F#5,258.0,0.75,51,114.0
1366,G#5,258.75,0.25,51,114.0
1367,F#5,259.0,1.0,44,114.0
1368,B5,259.0,0.75,47,114.0
1369,G#4,259.0,1.0,46,114.0
1370,E5,259.75,0.25,50,114.0
1371,B4,260.0,0.5,48,114.0
1372,D5,260.0,0.5,52,114.0
1373,F5,260.0,0.5,52,114.0
1374,A4,260.5,0.75,51,114.0
1375,C#5,260.5,0.75,52,114.0
1376,F#5,260.5,0.75,52,114.0
1377,F4,261.25,0.25,55,114.0
1378,D5,261.25,0.25,55,114.0
1379,G#5,261.25,0.25,55,114.0
1380,F#4,261.5,1.0,44,114.0
1381,C#5,261.5,1.0,53,114.0
1382,A5,261.5,1.0,53,114.0
1383,A4,262.5,0.5,50,114.0
1384,B3,262.5,1.5,39,114.0
1385,E-5,262.5,0.5,55,114.0
1386,F#5,262.5,0.5,55,114.0
1387,C#5,263.0,0.75,55,114.0
1388,E-5,263.0,0.75,54,114.0
1389,A5,263.0,0.75,54,114.0
1390,B4,263.75,0.25,42,114.0
1391,E-5,263.75,0.25,49,114.0
1392,G#5,263.75,0.25,49,114.0
1393,B4,264.0,1.0,48,114.0
1394,E5,264.0,1.0,48,114.0
1395,E4,264.0,1.0,42,114.0
1396,G#4,264.0,1.0,42,114.0
1397,C4,265.0,0.5,37,114.0
1398,E4,265.0,0.5,46,114.0
1399,G4,265.0,0.5,46,114.0
1400,B3,265.5,0.75,34,114.0
1401,D4,265.5,0.75,43,114.0
1402,G4,265.5,0.75,43,114.0
1403,C4,266.25,0.25,34,114.0
1404,E4,266.25,0.25,40,114.0
1405,G4,266.25,0.25,40,114.0
1406,B3,266.5,0.75,37,114.0
1407,D4,266.5,0.75,43,114.0
1408,G4,266.5,0.75,43,114.0
1409,A3,267.25,0.25,41,114.0
1410,C5,267.25,0.25,40,114.0
1411,D5,267.25,0.25,40,114.0
1412,F#4,267.25,0.25,40,114.0
1413,G3,267.5,0.5,50,114.0
1414,G4,267.5,0.5,56,114.0
1415,B4,267.5,0.5,56,114.0
1416,D5,267.5,0.5,56,114.0
1417,F#3,268.0,0.75,45,114.0
1418,A4,268.0,0.75,51,114.0
1419,B4,268.0,0.75,51,114.0
1420,E-5,268.0,0.75,51,114.0
1421,E3,268.75,0.25,44,114.0
1422,G#4,268.75,0.25,49,114.0
1423,B4,268.75,0.25,49,114.0
1424,E5,268.75,0.25,49,114.0
1425,D3,269.0,0.75,48,114.0
1426,B4,269.0,0.75,51,114.0
1427,F5,269.0,0.75,51,114.0
1428,G#5,269.0,0.75,51,114.0
1429,B5,269.75,0.25,58,114.0
1430,B2,269.75,0.25,47,114.0
1431,C3,270.0,0.5,55,114.0
1432,E5,270.0,0.5,70,114.0
1433,A5,270.0,0.5,70,114.0
1434,C6,270.5,0.75,65,114.0
1435,A2,270.5,0.75,52,114.0
1436,E6,271.25,0.25,69,114.0
1437,F#2,271.25,0.25,55,114.0
1438,B2,271.5,0.75,60,114.0
1439,A5,271.5,0.75,72,114.0
1440,E-6,271.5,0.75,72,114.0
1441,B6,272.25,0.25,73,114.0
1442,B1,272.25,0.25,59,114.0
1443,E2,272.5,0.5,70,114.0
1444,G#6,272.5,1.5,81,114.0
1445,G#5,272.5,1.5,81,114.0
1446,B2,273.0,0.75,64,114.0
1447,E3,273.75,0.25,62,114.0
1448,G#3,274.0,0.75,70,114.0
1449,B3,274.75,0.25,64,114.0
1450,A4,275.0,1.5,57,114.0
1451,B4,275.0,0.5,68,114.0
1452,B3,275.0,2.5,45,114.0
1453,E-4,275.0,0.5,53,114.0
1454,C#5,275.5,0.75,62,114.0
1455,E4,275.5,0.75,50,114.0
1456,E-5,276.25,0.25,66,114.0
1457,F#4,276.25,0.25,48,114.0
1458,A4,276.5,1.0,59,114.0
1459,B4,276.5,0.75,70,114.0
1460,E-4,276.5,0.75,53,114.0
1461,G#5,277.25,0.25,65,114.0
1462,F#4,277.25,0.25,51,114.0
1463,E4,277.5,0.5,52,114.0
1464,G#4,277.5,1.5,52,114.0
1465,B4,277.5,1.5,62,114.0
1466,E5,277.5,1.5,62,114.0
1467,E-4,278.0,0.75,51,114.0
1468,D4,278.75,0.25,47,114.0
1469,C#4,279.0,0.75,49,114.0
1470,C4,279.75,0.25,51,114.0
1471,A3,280.0,1.5,51,114.0
1472,B3,280.0,0.5,61,114.0
1473,E-3,280.0,0.5,47,114.0
1474,B2,280.0,2.5,40,114.0
1475,C#4,280.5,0.75,55,114.0
1476,E3,280.5,0.75,45,114.0
1477,E-4,281.25,0.25,59,114.0
1478,F#3,281.25,0.25,43,114.0
1479,A3,281.5,1.0,53,114.0
1480,B3,281.5,0.5,63,114.0
1481,E-3,281.5,0.75,47,114.0
1482,G#4,282.0,0.5,56,114.0
1483,F#3,282.25,0.25,42,114.0
1484,B3,282.5,0.5,58,114.0
1485,E4,282.5,0.5,58,114.0
1486,E3,282.5,0.5,45,114.0
1487,G#3,282.5,0.5,45,114.0
1488,E5,283.0,1.0,82,114.0
1489,G#5,283.0,1.0,82,114.0
1490,E6,283.0,1.0,82,114.0
1491,E2,283.0,1.0,56,114.0
1492,E3,283.0,1.0,56,114.0
