,note_name,start_time,duration,velocity,tempo
0,D4,0.0,3.0,74,104.69
1,C#4,1.5,1.5,69,104.69
2,C4,3.0,3.0,64,104.69
3,D4,3.0,7.5,74,104.69
4,A3,4.5,1.5,61,104.69
5,D3,7.5,1.375,45,104.69
6,F3,8.875,0.125,39,104.69
7,E-3,9.0,1.5,49,104.69
8,F#3,10.5,3.0,57,104.69
9,C4,10.5,3.0,64,104.69
10,A3,10.5,3.0,61,104.69
11,D3,10.5,1.5,48,104.69
12,D3,12.0,1.5,38,104.69
13,G2,12.0,1.5,38,104.69
14,G3,12.0,1.5,38,104.69
15,F#3,13.5,1.5,57,104.69
16,C4,13.5,1.5,64,104.69
17,A3,13.5,1.5,61,104.69
18,G2,13.5,1.5,42,104.69
19,C4,13.5,1.5,42,104.69
20,D4,15.0,0.75,53,104.69
21,G2,15.0,1.5,38,104.69
22,B-3,15.0,1.5,38,104.69
23,D4,15.75,0.25,53,104.69
24,D4,16.0,0.5,53,104.69
25,G4,16.5,1.0,50,104.69
26,B-3,16.5,1.0,50,104.69
27,D4,16.5,1.0,50,104.69
28,G2,16.5,1.5,39,104.69
29,A3,16.5,1.5,39,104.69
30,D3,16.5,1.5,39,104.69
31,A4,17.5,0.5,53,104.69
32,F#4,18.0,1.0,54,104.69
33,E-4,18.0,1.0,54,104.69
34,B-4,18.0,1.0,54,104.69
35,D3,18.0,1.5,38,104.69
36,G2,18.0,1.5,38,104.69
37,G3,18.0,1.5,38,104.69
38,A4,19.0,0.5,52,104.69
39,D4,19.5,1.0,52,104.69
40,G4,19.5,1.0,52,104.69
41,C4,19.5,1.5,42,104.69
42,G2,19.5,1.5,42,104.69
43,G4,20.5,0.5,53,104.69
44,C4,21.0,0.75,53,104.69
45,D4,21.0,0.75,53,104.69
46,G2,21.0,187/125,38,104.69
47,B-3,21.0,187/125,38,104.69
48,D4,21.75,0.25,53,104.69
49,C4,21.75,0.25,53,104.69
50,C4,22.0,0.5,53,104.69
51,D4,22.0,0.5,53,104.69
52,B-3,22.5,1.0,53,104.69
53,G4,22.5,1.0,53,104.69
54,D4,22.5,1.0,53,104.69
55,F#3,22.5,1.5,38,104.69
56,F#2,22.5,1.5,38,104.69
57,A4,23.5,0.5,53,104.69
58,F2,24.0,3.0,39,104.69
59,D3,24.0,1.5,48,104.69
60,E-4,24.0,1.0,57,104.69
61,F#4,24.0,1.0,57,104.69
62,B-4,24.0,1.0,57,104.69
63,A4,25.0,0.5,51,104.69
64,E-3,25.5,1.5,42,104.69
65,D4,25.5,1.0,49,104.69
66,G4,25.5,1.0,49,104.69
67,G4,26.5,0.5,53,104.69
68,B-3,27.0,0.75,53,104.69
69,D4,27.0,0.75,53,104.69
70,B-2,27.0,1.5,48,104.69
71,D3,27.0,1.5,48,104.69
72,B-3,27.75,0.25,53,104.69
73,D4,27.75,0.25,53,104.69
74,D4,28.0,0.5,53,104.69
75,B-3,28.0,0.5,53,104.69
76,B-3,28.5,1.0,60,104.69
77,F4,28.5,1.0,60,104.69
78,E-2,28.5,1.5,44,104.69
79,B-2,28.5,1.5,44,104.69
80,F4,29.5,0.5,58,104.69
81,A3,30.0,1.0,58,104.69
82,F4,30.0,1.0,58,104.69
83,B-1,30.0,1.5,39,104.69
84,B-2,30.0,1.5,39,104.69
85,D4,31.0,0.5,57,104.69
86,F3,31.5,1.0,61,104.69
87,B-3,31.5,1.0,61,104.69
88,E-2,31.5,1.5,48,104.69
89,B-2,31.5,1.5,48,104.69
90,B-3,32.5,0.5,62,104.69
91,B-3,33.0,0.75,59,104.69
92,G3,33.0,1.5,59,104.69
93,B-1,33.0,1.5,42,104.69
94,B-2,33.0,1.5,42,104.69
95,B-3,33.75,0.25,59,104.69
96,C4,34.0,0.5,53,104.69
97,F3,34.5,1.5,49,104.69
98,D4,34.5,1.5,49,104.69
99,B-3,34.5,1.5,49,104.69
100,C3,34.5,1.5,42,104.69
101,F2,34.5,1.5,42,104.69
102,F#3,36.0,1.5,46,104.69
103,B-3,36.0,0.75,55,104.69
104,B-2,36.0,1.5,48,104.69
105,B-3,36.75,0.25,50,104.69
106,C4,37.0,0.5,56,104.69
107,D4,37.5,1.0,54,104.69
108,F3,37.5,1.0,54,104.69
109,B-3,37.5,1.0,54,104.69
110,E-2,37.5,1.0,36,104.69
111,E-3,37.5,1.0,36,104.69
112,F4,38.5,0.5,60,104.69
113,A2,38.5,0.5,37,104.69
114,E-4,39.0,1.0,63,104.69
115,A3,39.0,1.0,63,104.69
116,G4,39.0,1.0,63,104.69
117,D2,39.0,3.0,34,104.69
118,D3,39.0,3.0,34,104.69
119,F4,40.0,0.5,56,104.69
120,D4,40.5,1.0,53,104.69
121,F3,40.5,1.0,53,104.69
122,B-3,40.5,1.0,53,104.69
123,C4,41.5,0.5,52,104.69
124,G3,42.0,1.0,49,104.69
125,B-3,42.0,0.75,49,104.69
126,B-3,42.75,0.25,48,104.69
127,C4,43.0,0.5,41,104.69
128,G3,43.0,0.5,41,104.69
129,A3,43.5,3.0,42,104.69
130,F#3,43.5,3.0,42,104.69
131,D4,43.5,3.0,42,104.69
132,D2,43.5,1.5,34,104.69
133,D3,43.5,1.5,34,104.69
134,G3,46.5,1.5,38,104.69
135,G4,46.5,1.5,38,104.69
136,D4,46.5,1.5,38,104.69
137,A3,48.0,1.5,42,104.69
138,F#3,48.0,1.5,42,104.69
139,D4,48.0,1.5,42,104.69
140,G3,48.0,1.5,40,104.69
141,C5,48.0,1.5,40,104.69
142,D5,49.5,0.75,53,104.69
143,G3,49.5,1.5,38,104.69
144,B-4,49.5,1.5,38,104.69
145,D5,50.25,0.25,53,104.69
146,D5,50.5,0.5,53,104.69
147,D5,51.0,1.0,50,104.69
148,B-4,51.0,1.0,50,104.69
149,G5,51.0,1.0,50,104.69
150,D4,51.0,1.5,39,104.69
151,A4,51.0,1.5,39,104.69
152,G3,51.0,1.5,39,104.69
153,A5,52.0,0.5,53,104.69
154,E-5,52.5,1.0,53,104.69
155,F#5,52.5,1.0,53,104.69
156,B-5,52.5,1.0,53,104.69
157,G3,52.5,1.5,38,104.69
158,G4,52.5,1.5,38,104.69
159,D4,52.5,1.5,38,104.69
160,A5,53.5,0.5,51,104.69
161,D5,54.0,1.0,52,104.69
162,G5,54.0,1.0,52,104.69
163,G3,54.0,1.5,38,104.69
164,C5,54.0,1.5,38,104.69
165,G5,55.0,0.5,53,104.69
166,C5,55.5,0.75,53,104.69
167,D5,55.5,0.75,53,104.69
168,G3,55.5,187/125,38,104.69
169,B-4,55.5,187/125,38,104.69
170,C5,56.25,0.25,53,104.69
171,D5,56.25,0.25,53,104.69
172,D5,56.5,0.5,53,104.69
173,C5,56.5,0.5,53,104.69
174,G5,57.0,1.0,53,104.69
175,D5,57.0,1.0,53,104.69
176,B-4,57.0,1.0,53,104.69
177,F#4,57.0,1.5,38,104.69
178,F#3,57.0,1.5,38,104.69
179,A5,58.0,0.5,53,104.69
180,F3,58.5,3.0,36,104.69
181,D4,58.5,1.5,48,104.69
182,F#5,58.5,1.0,55,104.69
183,E-5,58.5,1.0,55,104.69
184,B-5,58.5,1.0,55,104.69
185,A5,59.5,0.5,51,104.69
186,E-4,60.0,1.5,42,104.69
187,D5,60.0,1.0,57,104.69
188,G5,60.0,1.0,57,104.69
189,G5,61.0,0.5,53,104.69
190,B-4,61.5,0.75,53,104.69
191,D5,61.5,0.75,53,104.69
192,D4,61.5,1.5,48,104.69
193,B-3,61.5,1.5,48,104.69
194,D5,62.25,0.25,53,104.69
195,B-4,62.25,0.25,53,104.69
196,B-4,62.5,0.5,53,104.69
197,D5,62.5,0.5,53,104.69
198,B-4,63.0,1.0,60,104.69
199,F5,63.0,1.0,60,104.69
200,E-4,63.0,1.5,44,104.69
201,E-3,63.0,1.5,44,104.69
202,F5,64.0,0.5,55,104.69
203,A4,64.5,1.0,54,104.69
204,F5,64.5,1.0,54,104.69
205,B-2,64.5,1.5,39,104.69
206,B-3,64.5,1.5,39,104.69
207,B-4,65.5,0.5,61,104.69
208,F4,66.0,1.0,58,104.69
209,B-4,66.0,1.0,58,104.69
210,E-3,66.0,1.5,48,104.69
211,B-3,66.0,1.5,48,104.69
212,B-4,67.0,0.5,62,104.69
213,G4,67.5,1.5,59,104.69
214,B-4,67.5,0.75,59,104.69
215,B-2,67.5,1.5,42,104.69
216,B-3,67.5,1.5,42,104.69
217,B-4,68.25,0.25,59,104.69
218,C5,68.5,0.5,58,104.69
219,F4,69.0,1.5,49,104.69
220,D5,69.0,1.5,49,104.69
221,B-4,69.0,1.5,49,104.69
222,F3,69.0,1.5,42,104.69
223,C4,69.0,1.5,42,104.69
224,F#4,70.5,1.5,46,104.69
225,B-4,70.5,0.75,55,104.69
226,B-3,70.5,1.5,48,104.69
227,B-4,71.25,0.25,50,104.69
228,C5,71.5,0.5,56,104.69
229,D5,72.0,1.0,54,104.69
230,F4,72.0,1.0,54,104.69
231,B-4,72.0,1.0,54,104.69
232,E-4,72.0,1.0,36,104.69
233,E-3,72.0,1.0,36,104.69
234,F5,73.0,0.5,57,104.69
235,A3,73.0,0.5,37,104.69
236,E-5,73.5,1.0,59,104.69
237,A4,73.5,1.0,59,104.69
238,G5,73.5,1.0,59,104.69
239,D3,73.5,3.0,34,104.69
240,D4,73.5,3.0,34,104.69
241,F5,74.5,0.5,56,104.69
242,D5,75.0,1.0,55,104.69
243,F4,75.0,1.0,55,104.69
244,B-4,75.0,1.0,55,104.69
245,C5,76.0,0.5,52,104.69
246,G4,76.5,1.5,49,104.69
247,B-4,76.5,0.75,49,104.69
248,B-4,77.25,0.25,48,104.69
249,C5,77.5,0.5,41,104.69
250,D3,77.985,297/200,34,104.69
251,D4,77.985,297/200,34,104.69
252,D5,78.0,3.0,43,104.69
253,A4,78.0,3.0,43,104.69
254,F#4,78.0,3.0,43,104.69
255,G#3,80.985,3.0,37,104.69
256,G2,80.985,3.0,37,104.69
257,D5,82.5,1.5,43,104.69
258,A4,82.5,1.5,43,104.69
259,F#4,82.5,1.5,43,104.69
260,G3,83.985,1.5,41,104.69
261,G2,83.985,3.0,35,104.69
262,D4,84.0,0.75,53,104.69
263,D4,84.75,0.25,53,104.69
264,D4,85.0,0.5,53,104.69
265,F3,85.485,0.75,41,104.69
266,B3,85.5,1.0,50,104.69
267,D4,85.5,1.0,50,104.69
268,F4,85.5,1.0,50,104.69
269,E-3,86.235,0.25,39,104.69
270,D3,86.485,0.5,40,104.69
271,G4,86.5,0.375,54,104.69
272,B-4,86.875,0.125,51,104.69
273,G#3,86.985,3.0,37,104.69
274,G2,86.985,3.0,37,104.69
275,D4,87.0,1.0,57,104.69
276,B3,87.0,1.0,57,104.69
277,G#4,87.0,1.0,57,104.69
278,G4,88.0,0.5,55,104.69
279,B3,88.5,1.0,51,104.69
280,D4,88.5,1.0,51,104.69
281,F4,88.5,1.0,51,104.69
282,F4,89.5,0.5,53,104.69
283,G#3,89.985,1.5,41,104.69
284,G2,89.985,1.375,35,104.69
285,G#3,90.0,1.5,53,104.69
286,B3,90.0,0.75,53,104.69
287,C4,90.75,0.25,53,104.69
288,D4,91.0,0.5,53,104.69
289,G2,91.36,1.625,66,104.69
290,B3,91.485,0.75,62,104.69
291,D4,91.5,1.0,50,104.69
292,B3,91.5,1.0,50,104.69
293,F4,91.5,1.0,50,104.69
294,C#4,92.235,0.25,55,104.69
295,D4,92.485,0.5,57,104.69
296,G4,92.5,0.375,58,104.69
297,B-4,92.875,0.125,51,104.69
298,C2,92.985,1.0,69,104.69
299,C3,92.985,1.0,69,104.69
300,B3,93.0,1.0,55,104.69
301,D4,93.0,1.0,55,104.69
302,G#4,93.0,1.0,55,104.69
303,C4,93.985,0.5,53,104.69
304,C5,93.985,0.5,53,104.69
305,G4,93.985,0.5,53,104.69
306,G4,94.0,0.5,55,104.69
307,G4,94.485,0.75,57,104.69
308,C5,94.485,0.75,57,104.69
309,C4,94.485,0.75,57,104.69
310,F4,94.5,1.0,51,104.69
311,B3,94.5,1.0,51,104.69
312,D4,94.5,1.0,51,104.69
313,G4,95.235,0.25,55,104.69
314,C4,95.235,0.25,55,104.69
315,C5,95.235,0.25,55,104.69
316,G4,95.485,0.5,57,104.69
317,C4,95.485,0.5,57,104.69
318,F4,95.5,0.5,53,104.69
319,C4,95.985,0.75,57,104.69
320,B4,95.985,0.75,57,104.69
321,G#4,95.985,0.75,57,104.69
322,D5,96.0,0.75,73,104.69
323,G4,96.0,0.75,73,104.69
324,F5,96.0,0.75,73,104.69
325,G5,96.0,0.75,73,104.69
326,C4,96.735,0.25,54,104.69
327,G#4,96.735,0.25,54,104.69
328,B-4,96.75,0.25,66,104.69
329,G5,96.75,0.25,66,104.69
330,G4,96.75,0.25,66,104.69
331,F5,96.75,0.25,66,104.69
332,C4,96.985,0.375,54,104.69
333,G#4,96.985,0.375,54,104.69
334,F5,97.0,0.5,66,104.69
335,G5,97.0,0.5,66,104.69
336,B4,97.0,0.5,66,104.69
337,G4,97.0,0.5,66,104.69
338,C4,97.485,0.75,56,104.69
339,G#4,97.485,0.75,56,104.69
340,E-6,97.5,1.0,74,104.69
341,G6,97.5,1.0,74,104.69
342,G5,97.5,1.0,74,104.69
343,C6,97.5,1.0,74,104.69
344,G#4,98.235,0.25,53,104.69
345,C4,98.235,0.25,53,104.69
346,G#4,98.485,0.5,50,104.69
347,C4,98.485,0.5,50,104.69
348,E-5,98.5,0.5,72,104.69
349,G5,98.5,0.5,72,104.69
350,E-6,98.5,0.5,72,104.69
351,G4,98.985,0.75,56,104.69
352,C4,98.985,0.75,56,104.69
353,G5,99.0,0.75,76,104.69
354,E-5,99.0,0.75,76,104.69
355,E-6,99.0,0.75,76,104.69
356,G4,99.735,0.25,52,104.69
357,C4,99.735,0.25,52,104.69
358,D5,99.75,0.25,71,104.69
359,G5,99.75,0.25,71,104.69
360,D6,99.75,0.25,71,104.69
361,G4,99.985,0.5,52,104.69
362,C4,99.985,0.5,52,104.69
363,C6,100.0,0.5,71,104.69
364,G5,100.0,0.5,71,104.69
365,C5,100.0,0.5,71,104.69
366,G4,100.485,0.75,57,104.69
367,C5,100.485,0.75,57,104.69
368,C4,100.485,0.75,57,104.69
369,F5,100.5,0.75,76,104.69
370,D5,100.5,0.75,76,104.69
371,D6,100.5,0.75,76,104.69
372,C4,101.235,0.25,55,104.69
373,C5,101.235,0.25,55,104.69
374,G4,101.235,0.25,55,104.69
375,B4,101.25,0.25,66,104.69
376,D5,101.25,0.25,66,104.69
377,F5,101.25,0.25,66,104.69
378,C4,101.485,0.5,49,104.69
379,G4,101.485,0.5,49,104.69
380,G5,101.5,0.375,66,104.69
381,D5,101.5,0.375,66,104.69
382,B4,101.5,0.375,66,104.69
383,B-5,101.875,0.125,66,104.69
384,G#4,101.985,0.75,57,104.69
385,B4,101.985,0.75,57,104.69
386,C4,101.985,0.75,57,104.69
387,G#5,102.0,0.75,69,104.69
388,D5,102.0,0.75,69,104.69
389,B4,102.0,0.75,69,104.69
390,C4,102.735,0.25,54,104.69
391,G#4,102.735,0.25,54,104.69
392,G5,102.75,0.25,66,104.69
393,B4,102.75,0.25,66,104.69
394,D5,102.75,0.25,66,104.69
395,C4,102.985,0.375,54,104.69
396,G#4,102.985,0.375,54,104.69
397,F5,103.0,0.5,62,104.69
398,D5,103.0,0.5,62,104.69
399,B4,103.0,0.5,62,104.69
400,C4,103.485,0.75,56,104.69
401,G#4,103.485,0.75,56,104.69
402,E-5,103.5,0.75,73,104.69
403,C5,103.5,0.75,73,104.69
404,G#4,104.235,0.25,53,104.69
405,C4,104.235,0.25,53,104.69
406,E-5,104.25,0.25,66,104.69
407,C5,104.25,0.25,66,104.69
408,F#5,104.25,0.25,66,104.69
409,G#4,104.485,0.5,53,104.69
410,C4,104.485,0.5,53,104.69
411,E-5,104.5,0.5,66,104.69
412,G5,104.5,0.5,66,104.69
413,C5,104.5,0.5,66,104.69
414,C4,104.985,1.5,56,104.69
415,G4,104.985,1.5,56,104.69
416,E-5,105.0,0.75,76,104.69
417,G5,105.0,0.75,76,104.69
418,E-6,105.0,0.75,76,104.69
419,G5,105.75,0.25,71,104.69
420,D5,105.75,0.25,71,104.69
421,D6,105.75,0.25,71,104.69
422,G5,106.0,0.5,67,104.69
423,C6,106.0,0.5,67,104.69
424,C5,106.0,0.5,67,104.69
425,B-3,106.485,1.5,50,104.69
426,G4,106.485,1.5,50,104.69
427,D5,106.5,0.75,76,104.69
428,F5,106.5,0.75,76,104.69
429,D6,106.5,0.75,76,104.69
430,F5,107.25,0.25,66,104.69
431,D5,107.25,0.25,66,104.69
432,B4,107.25,0.25,66,104.69
433,G5,107.5,0.375,66,104.69
434,D5,107.5,0.375,66,104.69
435,B4,107.5,0.375,66,104.69
436,B-5,107.875,0.125,67,104.69
437,A3,107.985,3.0,50,104.69
438,E-4,107.985,1.5,50,104.69
439,G#5,108.0,0.75,69,104.69
440,D5,108.0,0.75,69,104.69
441,B4,108.0,0.75,69,104.69
442,G5,108.75,0.25,66,104.69
443,B4,108.75,0.25,66,104.69
444,D5,108.75,0.25,66,104.69
445,B4,109.0,0.5,66,104.69
446,F5,109.0,0.5,66,104.69
447,D5,109.0,0.5,66,104.69
448,D4,109.485,1.5,50,104.69
449,E-5,109.5,0.75,73,104.69
450,C5,109.5,0.75,73,104.69
451,C5,110.25,0.25,66,104.69
452,E-5,110.25,0.25,66,104.69
453,F#5,110.25,0.25,66,104.69
454,G5,110.5,0.5,66,104.69
455,E-5,110.5,0.5,66,104.69
456,C5,110.5,0.5,66,104.69
457,D4,110.985,1.5,50,104.69
458,G3,110.985,3.0,50,104.69
459,D6,111.0,1.5,81,104.69
460,D5,111.0,0.75,68,104.69
461,G5,111.0,0.75,68,104.69
462,G5,111.758,0.25,74,104.69
463,D5,111.992,0.5,74,104.69
464,E4,112.485,1.5,50,104.69
465,C6,112.5,1.25,81,104.69
466,G5,112.5,0.75,68,104.69
467,C5,112.5,0.75,68,104.69
468,G5,113.258,0.25,70,104.69
469,C5,113.5,0.25,68,104.69
470,A5,113.75,0.125,62,104.69
471,C6,113.875,0.125,62,104.69
472,A3,113.985,3.0,50,104.69
473,F4,113.985,1.5,50,104.69
474,D5,114.0,0.75,56,104.69
475,C5,114.0,0.75,56,104.69
476,F#5,114.0,0.75,56,104.69
477,A5,114.0,0.75,56,104.69
478,G5,114.75,0.25,69,104.69
479,A5,115.0,0.5,69,104.69
480,E4,115.485,1.0,50,104.69
481,B-5,115.5,1.5,81,104.69
482,B-4,115.5,0.75,68,104.69
483,D5,115.5,0.75,68,104.69
484,G5,116.258,0.25,74,104.69
485,G4,116.485,0.5,45,104.69
486,D5,116.5,0.5,74,104.69
487,D4,116.985,0.75,53,104.69
488,F#4,116.985,1.5,45,104.69
489,B-5,117.0,0.75,72,104.69
490,D5,117.0,0.75,72,104.69
491,G5,117.0,0.75,72,104.69
492,D6,117.0,0.75,72,104.69
493,C#4,117.735,0.25,50,104.69
494,G5,117.75,0.25,69,104.69
495,D4,117.985,0.5,50,104.69
496,D5,118.0,0.5,69,104.69
497,D4,118.485,1.5,53,104.69
498,A5,118.5,1.5,68,104.69
499,A4,118.5,0.75,62,104.69
500,D5,118.5,0.75,62,104.69
501,D5,119.25,0.25,74,104.69
502,A4,119.5,0.5,56,104.69
503,G4,119.985,3.0,49,104.69
504,D4,119.985,0.75,49,104.69
505,A5,120.0,0.75,72,104.69
506,C#5,120.0,1.5,61,104.69
507,G5,120.0,1.5,61,104.69
508,C#4,120.735,0.25,42,104.69
509,B-5,120.75,0.25,69,104.69
510,D4,120.985,0.5,49,104.69
511,A5,121.0,0.5,69,104.69
512,D4,121.485,1.5,50,104.69
513,A5,121.5,1.5,71,104.69
514,D6,121.5,1.5,71,104.69
515,D5,121.5,1.5,71,104.69
516,D4,122.985,0.75,49,104.69
517,F#4,122.985,3.0,49,104.69
518,C#4,123.735,0.25,42,104.69
519,D5,123.75,0.25,63,104.69
520,D4,123.985,0.5,49,104.69
521,D5,124.0,0.5,63,104.69
522,D4,124.485,1.5,50,104.69
523,E-5,124.5,0.75,71,104.69
524,C5,124.5,1.5,60,104.69
525,A4,124.5,1.5,60,104.69
526,G5,125.25,0.25,61,104.69
527,B-5,125.5,0.5,61,104.69
528,D4,125.985,0.75,49,104.69
529,D6,126.0,0.75,69,104.69
530,E-5,126.0,1.5,58,104.69
531,G5,126.0,1.5,58,104.69
532,D4,126.735,0.25,42,104.69
533,C6,126.75,0.25,63,104.69
534,D4,126.985,0.5,49,104.69
535,G5,127.0,0.5,63,104.69
536,D4,127.485,1.5,50,104.69
537,A5,127.5,0.75,71,104.69
538,C5,127.5,1.5,56,104.69
539,D5,127.5,1.5,56,104.69
540,B-5,128.25,0.25,61,104.69
541,A5,128.5,0.5,61,104.69
542,D4,128.985,0.75,49,104.69
543,E-5,129.0,0.75,62,104.69
544,F#5,129.0,0.75,62,104.69
545,C6,129.0,0.75,62,104.69
546,E-4,129.735,0.25,39,104.69
547,D5,129.75,0.25,56,104.69
548,F#5,129.75,0.25,56,104.69
549,B-5,129.75,0.25,56,104.69
550,D4,129.985,0.5,44,104.69
551,C5,130.0,0.5,56,104.69
552,F#5,130.0,0.5,56,104.69
553,A5,130.0,0.5,56,104.69
554,D4,130.485,0.5,44,104.69
555,B-4,130.5,0.75,64,104.69
556,D5,130.5,0.75,64,104.69
557,G5,130.5,0.75,64,104.69
558,C5,131.25,0.25,54,104.69
559,E-5,131.25,0.25,54,104.69
560,A5,131.25,0.25,54,104.69
561,B-4,131.5,0.5,54,104.69
562,D5,131.5,0.5,54,104.69
563,G5,131.5,0.5,54,104.69
564,G3,131.985,3.0,44,104.69
565,D3,131.985,0.75,44,104.69
566,A4,132.0,0.75,58,104.69
567,F5,132.0,0.75,58,104.69
568,C5,132.0,0.75,58,104.69
569,C#3,132.735,0.25,38,104.69
570,D5,132.75,0.25,52,104.69
571,G5,132.75,0.25,52,104.69
572,B-4,132.75,0.25,52,104.69
573,D3,132.985,0.5,44,104.69
574,E-5,133.0,0.5,52,104.69
575,G4,133.0,0.5,52,104.69
576,B-4,133.0,0.5,52,104.69
577,D3,133.485,1.5,45,104.69
578,D5,133.5,1.5,54,104.69
579,F#4,133.5,1.5,54,104.69
580,A4,133.5,1.5,54,104.69
581,F#3,134.985,3.0,44,104.69
582,D3,134.985,0.75,44,104.69
583,C#3,135.735,0.25,38,104.69
584,D4,135.75,0.25,47,104.69
585,D3,135.985,0.5,44,104.69
586,D4,136.0,0.5,47,104.69
587,D3,136.485,1.5,45,104.69
588,E-4,136.5,0.75,63,104.69
589,C4,136.5,1.5,53,104.69
590,A3,136.5,1.5,53,104.69
591,G4,137.25,0.25,55,104.69
592,B-4,137.5,0.5,55,104.69
593,D3,137.985,0.75,44,104.69
594,D5,138.0,0.75,61,104.69
595,G4,138.0,1.5,51,104.69
596,E-4,138.0,1.5,51,104.69
597,D3,138.735,0.25,38,104.69
598,C5,138.75,0.25,57,104.69
599,D3,138.985,0.5,44,104.69
600,G4,139.0,0.5,57,104.69
601,D3,139.485,1.5,45,104.69
602,A4,139.5,0.75,63,104.69
603,D4,139.5,1.5,46,104.69
604,C4,139.5,1.5,46,104.69
605,B-4,140.25,0.25,55,104.69
606,A4,140.5,0.5,55,104.69
607,F#3,140.985,1.5,38,104.69
608,D3,140.985,0.25,38,104.69
609,C5,141.0,0.75,61,104.69
610,F#4,141.0,1.5,51,104.69
611,E-4,141.0,1.5,51,104.69
612,C#3,141.235,0.25,38,104.69
613,D3,141.485,0.25,38,104.69
614,C#3,141.735,0.25,37,104.69
615,B-4,141.75,0.25,57,104.69
616,D3,141.985,0.25,38,104.69
617,A4,142.0,0.5,57,104.69
618,C#3,142.235,0.25,33,104.69
619,F#3,142.485,1.5,38,104.69
620,E-3,142.485,0.25,38,104.69
621,G4,142.5,0.75,56,104.69
622,B-3,142.5,0.75,56,104.69
623,D4,142.5,0.75,56,104.69
624,D3,142.735,0.25,33,104.69
625,C#3,142.985,0.25,38,104.69
626,D3,143.235,0.25,34,104.69
627,A4,143.25,0.25,49,104.69
628,C4,143.25,0.25,49,104.69
629,E-4,143.25,0.25,49,104.69
630,E-3,143.485,0.25,38,104.69
631,G4,143.5,0.5,49,104.69
632,B-3,143.5,0.5,49,104.69
633,D4,143.5,0.5,49,104.69
634,D3,143.735,0.25,30,104.69
635,G3,143.985,0.25,37,104.69
636,G2,143.985,1.5,37,104.69
637,F4,144.0,0.75,52,104.69
638,A3,144.0,0.75,52,104.69
639,C4,144.0,0.75,52,104.69
640,F#3,144.235,0.25,40,104.69
641,F3,144.485,0.25,41,104.69
642,E3,144.735,0.25,42,104.69
643,G4,144.75,0.25,45,104.69
644,B-3,144.75,0.25,45,104.69
645,D4,144.75,0.25,45,104.69
646,E-3,144.985,0.25,44,104.69
647,E-4,145.0,0.5,45,104.69
648,G3,145.0,0.5,45,104.69
649,B-3,145.0,0.5,45,104.69
650,D3,145.235,0.25,47,104.69
651,C#3,145.485,0.25,47,104.69
652,A3,145.5,1.5,58,104.69
653,D4,145.5,1.5,58,104.69
654,D3,145.735,0.25,44,104.69
655,E-3,145.985,0.25,42,104.69
656,E3,146.235,0.25,41,104.69
657,F3,146.485,0.25,40,104.69
658,F#3,146.735,0.25,40,104.69
659,G2,146.985,1.5,41,104.69
660,G3,146.985,0.25,41,104.69
661,C4,147.0,1.5,53,104.69
662,D4,147.0,0.75,53,104.69
663,F#3,147.235,0.25,36,104.69
664,G3,147.485,0.25,41,104.69
665,D3,147.735,0.25,37,104.69
666,D4,147.75,0.25,53,104.69
667,C#3,147.985,0.25,41,104.69
668,D4,148.0,0.5,53,104.69
669,D3,148.235,0.25,36,104.69
670,F#3,148.485,0.25,41,104.69
671,B-3,148.5,1.0,50,104.69
672,D4,148.5,1.0,50,104.69
673,G4,148.5,1.0,50,104.69
674,D3,148.735,0.25,40,104.69
675,C#3,148.985,0.25,41,104.69
676,D3,149.235,0.25,36,104.69
677,E-3,149.485,0.25,42,104.69
678,A4,149.5,0.5,56,104.69
679,D3,149.735,0.25,41,104.69
680,G3,149.985,0.25,37,104.69
681,G2,149.985,1.5,37,104.69
682,E-4,150.0,1.0,57,104.69
683,F#4,150.0,1.0,57,104.69
684,B-4,150.0,1.0,57,104.69
685,F#3,150.235,0.25,40,104.69
686,F3,150.485,0.25,42,104.69
687,E3,150.735,0.25,44,104.69
688,E-3,150.985,0.25,44,104.69
689,A4,151.0,0.5,55,104.69
690,D3,151.235,0.25,42,104.69
691,C#3,151.485,0.25,42,104.69
692,B-3,151.5,1.0,51,104.69
693,D4,151.5,1.0,51,104.69
694,G4,151.5,1.0,51,104.69
695,D3,151.735,0.25,41,104.69
696,E-3,151.985,0.25,40,104.69
697,E3,152.235,0.25,37,104.69
698,F3,152.485,0.25,41,104.69
699,G4,152.5,0.5,53,104.69
700,F#3,152.735,0.25,41,104.69
701,G2,152.985,1.5,41,104.69
702,G3,152.985,0.25,41,104.69
703,C4,153.0,0.75,53,104.69
704,D4,153.0,0.75,53,104.69
705,F#3,153.235,0.25,36,104.69
706,G3,153.485,0.25,41,104.69
707,D3,153.735,0.25,37,104.69
708,C4,153.75,0.25,53,104.69
709,D4,153.75,0.25,53,104.69
710,C#3,153.985,0.25,47,104.69
711,C4,154.0,0.5,49,104.69
712,D4,154.0,0.5,49,104.69
713,D3,154.235,0.25,42,104.69
714,F#2,154.485,1.5,47,104.69
715,B-3,154.5,1.0,53,104.69
716,D4,154.5,1.0,53,104.69
717,G4,154.5,1.0,53,104.69
718,D3,154.735,0.25,41,104.69
719,C#3,154.985,0.25,40,104.69
720,D3,155.235,0.25,41,104.69
721,E-3,155.485,0.25,41,104.69
722,A4,155.5,0.5,53,104.69
723,D3,155.735,0.25,41,104.69
724,D3,155.985,0.25,49,104.69
725,F2,155.985,1.5,49,104.69
726,E-4,156.0,1.0,60,104.69
727,F#4,156.0,1.0,60,104.69
728,B-4,156.0,1.0,60,104.69
729,C#3,156.235,0.25,40,104.69
730,D3,156.485,0.25,49,104.69
731,C#3,156.735,0.25,40,104.69
732,D3,156.985,0.25,48,104.69
733,A4,157.0,0.5,52,104.69
734,C#3,157.235,0.25,42,104.69
735,E-3,157.485,0.25,47,104.69
736,F2,157.485,1.5,47,104.69
737,B-3,157.5,1.0,49,104.69
738,D4,157.5,1.0,49,104.69
739,G4,157.5,1.0,49,104.69
740,D3,157.735,0.25,41,104.69
741,E-3,157.985,0.25,48,104.69
742,C3,158.235,0.25,41,104.69
743,F3,158.485,0.25,47,104.69
744,G4,158.5,0.5,53,104.69
745,E-3,158.735,0.25,41,104.69
746,B-2,158.985,1.5,47,104.69
747,D3,158.985,0.25,47,104.69
748,B-3,159.0,0.75,53,104.69
749,D4,159.0,0.75,53,104.69
750,C#3,159.235,0.25,38,104.69
751,D3,159.485,0.25,47,104.69
752,C#3,159.735,0.25,38,104.69
753,B-3,159.75,0.25,53,104.69
754,D4,159.75,0.25,53,104.69
755,D3,159.985,0.25,47,104.69
756,B-3,160.0,0.5,49,104.69
757,D4,160.0,0.5,49,104.69
758,C#3,160.235,0.25,41,104.69
759,E-2,160.485,0.25,47,104.69
760,B-3,160.5,1.0,60,104.69
761,F4,160.5,1.0,60,104.69
762,A2,160.735,0.25,41,104.69
763,B-2,160.985,0.25,48,104.69
764,E-3,161.235,0.25,44,104.69
765,G3,161.485,0.25,52,104.69
766,F4,161.5,0.5,58,104.69
767,E-3,161.735,0.25,41,104.69
768,B-2,161.985,0.25,49,104.69
769,A3,162.0,1.0,58,104.69
770,F4,162.0,1.0,58,104.69
771,E3,162.235,0.25,44,104.69
772,F3,162.485,0.25,48,104.69
773,C#3,162.735,0.25,41,104.69
774,D3,162.985,0.25,49,104.69
775,D4,163.0,0.5,55,104.69
776,B-2,163.235,0.25,41,104.69
777,E-2,163.485,0.25,47,104.69
778,F3,163.5,1.0,61,104.69
779,B-3,163.5,1.0,61,104.69
780,A2,163.735,0.25,41,104.69
781,B-2,163.985,0.25,42,104.69
782,E3,164.235,0.25,41,104.69
783,F#3,164.485,0.25,47,104.69
784,B-3,164.5,0.5,62,104.69
785,E3,164.735,0.25,41,104.69
786,B-2,164.985,0.25,48,104.69
787,G3,165.0,1.5,59,104.69
788,B-3,165.0,0.75,59,104.69
789,A2,165.235,0.25,41,104.69
790,B-2,165.485,0.25,48,104.69
791,C#3,165.735,0.25,44,104.69
792,B-3,165.75,0.25,59,104.69
793,D3,165.985,0.25,47,104.69
794,C4,166.0,0.5,58,104.69
795,B-2,166.235,0.25,41,104.69
796,F2,166.485,0.25,52,104.69
797,F3,166.5,1.5,49,104.69
798,D4,166.5,1.5,49,104.69
799,B-3,166.5,1.5,49,104.69
800,B2,166.735,0.25,41,104.69
801,C3,166.985,0.25,44,104.69
802,D3,167.235,0.25,47,104.69
803,E-3,167.485,0.25,48,104.69
804,F2,167.735,0.25,41,104.69
805,B-2,167.985,0.25,49,104.69
806,F#3,168.0,1.5,46,104.69
807,B-3,168.0,0.75,55,104.69
808,A2,168.235,0.25,41,104.69
809,B-2,168.485,0.25,47,104.69
810,C#3,168.735,0.25,40,104.69
811,B-3,168.75,0.25,50,104.69
812,D3,168.985,0.25,47,104.69
813,C4,169.0,0.5,56,104.69
814,B-2,169.235,0.25,41,104.69
815,E-2,169.485,0.25,44,104.69
816,F3,169.5,1.0,54,104.69
817,B-3,169.5,1.0,54,104.69
818,D4,169.5,1.0,54,104.69
819,A2,169.735,0.25,41,104.69
820,B-2,169.985,0.25,44,104.69
821,C3,170.235,0.25,37,104.69
822,E-3,170.485,0.25,41,104.69
823,F4,170.5,0.5,60,104.69
824,A2,170.735,0.25,37,104.69
825,D2,170.985,0.25,47,104.69
826,A3,171.0,1.0,63,104.69
827,E-4,171.0,1.0,63,104.69
828,G4,171.0,1.0,63,104.69
829,C#3,171.235,0.25,41,104.69
830,D3,171.485,0.25,47,104.69
831,G#2,171.735,0.25,41,104.69
832,B-2,171.985,0.25,47,104.69
833,F4,172.0,0.5,56,104.69
834,A2,172.235,0.25,41,104.69
835,F2,172.485,0.25,47,104.69
836,D4,172.5,1.0,53,104.69
837,F3,172.5,1.0,53,104.69
838,B-3,172.5,1.0,53,104.69
839,F#2,172.735,0.25,41,104.69
840,C#2,172.985,0.25,47,104.69
841,D2,173.235,0.25,41,104.69
842,G#1,173.485,0.25,47,104.69
843,C4,173.5,0.5,52,104.69
844,A1,173.735,0.25,41,104.69
845,D2,173.985,3.0,49,104.69
846,G3,174.0,1.0,49,104.69
847,B-3,174.0,0.75,49,104.69
848,B-3,174.75,0.25,48,104.69
849,G3,175.0,0.5,41,104.69
850,C4,175.0,0.5,41,104.69
851,F#3,175.5,3.0,43,104.69
852,A3,175.5,3.0,43,104.69
853,D4,175.5,3.0,43,104.69
854,G2,176.985,3.0,37,104.69
855,G#3,176.985,3.0,37,104.69
856,G2,179.985,3.0,35,104.69
857,G#3,179.985,149/100,41,104.69
858,F#3,180.0,1.5,43,104.69
859,A3,180.0,1.5,43,104.69
860,D4,180.0,1.5,43,104.69
861,F3,181.485,0.75,41,104.69
862,D4,181.5,0.75,53,104.69
863,E-3,182.235,0.25,39,104.69
864,D4,182.25,0.25,53,104.69
865,D3,182.485,0.5,40,104.69
866,D4,182.5,0.5,53,104.69
867,G2,182.985,3.0,37,104.69
868,G#3,182.985,3.0,37,104.69
869,B3,183.0,1.0,50,104.69
870,D4,183.0,1.0,50,104.69
871,F4,183.0,1.0,50,104.69
872,G4,184.0,0.375,56,104.69
873,B-4,184.375,0.125,51,104.69
874,B3,184.5,1.0,57,104.69
875,D4,184.5,1.0,57,104.69
876,G#4,184.5,1.0,57,104.69
877,G4,185.5,0.5,56,104.69
878,G2,185.985,1.375,35,104.69
879,G#3,185.985,1.5,41,104.69
880,B3,186.0,1.0,51,104.69
881,D4,186.0,1.0,51,104.69
882,F4,186.0,1.0,51,104.69
883,F4,187.0,0.5,53,104.69
884,G2,187.36,1.625,66,104.69
885,B3,187.485,0.75,62,104.69
886,G#3,187.5,1.5,53,104.69
887,B3,187.5,0.75,53,104.69
888,C#4,188.235,0.25,55,104.69
889,C4,188.25,0.25,53,104.69
890,D4,188.485,0.5,57,104.69
891,D4,188.5,0.5,53,104.69
892,C2,188.985,0.25,69,104.69
893,B3,189.0,1.0,50,104.69
894,D4,189.0,1.0,50,104.69
895,F4,189.0,1.0,50,104.69
896,G2,189.235,0.25,61,104.69
897,C3,189.485,0.25,61,104.69
898,E-3,189.735,0.25,61,104.69
899,G3,189.985,0.25,69,104.69
900,G4,190.0,0.375,58,104.69
901,C4,190.235,0.25,61,104.69
902,B-4,190.375,0.125,51,104.69
903,E-4,190.485,0.25,61,104.69
904,B3,190.5,1.0,57,104.69
905,D4,190.5,1.0,57,104.69
906,G#4,190.5,1.0,57,104.69
907,G4,190.735,0.25,61,104.69
908,C5,190.985,0.25,59,104.69
909,E-5,191.235,0.25,63,104.69
910,G5,191.485,0.25,68,104.69
911,G4,191.5,0.5,59,104.69
912,C6,191.735,0.25,72,104.69
913,E-6,191.985,1.5,79,104.69
914,B3,192.0,1.0,51,104.69
915,D4,192.0,1.0,51,104.69
916,F4,192.0,1.0,51,104.69
917,F4,193.0,0.5,53,104.69
918,C4,193.485,0.75,53,104.69
919,G4,193.5,0.75,73,104.69
920,D5,193.5,0.75,73,104.69
921,F5,193.5,0.75,73,104.69
922,G5,193.5,0.75,73,104.69
923,B-3,194.235,0.25,51,104.69
924,B-4,194.25,0.25,66,104.69
925,G4,194.25,0.25,66,104.69
926,F5,194.25,0.25,66,104.69
927,G5,194.25,0.25,66,104.69
928,A3,194.485,0.5,52,104.69
929,G4,194.5,0.5,66,104.69
930,B4,194.5,0.5,66,104.69
931,F5,194.5,0.5,66,104.69
932,G5,194.5,0.5,66,104.69
933,A3,194.985,1.5,59,104.69
934,G6,195.0,3.0,74,104.69
935,E-6,195.0,3.0,74,104.69
936,C6,195.0,3.0,74,104.69
937,G5,195.0,3.0,74,104.69
938,E-4,196.485,0.75,59,104.69
939,D4,197.235,0.25,57,104.69
940,C4,197.485,0.5,57,104.69
941,C4,197.985,149/100,61,104.69
942,A3,199.485,1.5,52,104.69
943,E-4,199.5,0.75,58,104.69
944,G4,199.5,0.75,58,104.69
945,A4,199.5,0.75,58,104.69
946,E-4,200.25,0.25,62,104.69
947,G4,200.25,0.25,62,104.69
948,B-4,200.25,0.25,62,104.69
949,E-4,200.5,0.5,62,104.69
950,G4,200.5,0.5,62,104.69
951,C5,200.5,0.5,62,104.69
952,B-3,200.985,1.5,51,104.69
953,D3,200.985,0.75,51,104.69
954,E-4,201.0,1.5,70,104.69
955,G4,201.0,1.5,70,104.69
956,C5,201.0,1.5,70,104.69
957,E-5,201.0,1.5,70,104.69
958,C#3,201.735,0.25,41,104.69
959,D3,201.985,0.5,47,104.69
960,D3,202.485,1.5,47,104.69
961,G4,202.5,0.75,62,104.69
962,A4,202.5,0.75,62,104.69
963,C5,202.5,0.75,62,104.69
964,G4,203.25,0.25,68,104.69
965,A4,203.25,0.25,68,104.69
966,D5,203.25,0.25,68,104.69
967,G4,203.5,0.5,66,104.69
968,A4,203.5,0.5,66,104.69
969,E-5,203.5,0.5,66,104.69
970,D3,203.985,0.75,49,104.69
971,G3,203.985,3.0,49,104.69
972,G4,204.0,1.5,76,104.69
973,A4,204.0,1.5,76,104.69
974,E-5,204.0,1.5,76,104.69
975,A5,204.0,1.5,76,104.69
976,C#3,204.735,0.25,41,104.69
977,D3,204.985,0.5,49,104.69
978,D3,205.485,1.5,48,104.69
979,G4,205.5,0.75,69,104.69
980,C4,205.5,1.5,58,104.69
981,E-4,205.5,1.5,58,104.69
982,A4,206.25,0.25,60,104.69
983,G4,206.5,0.5,58,104.69
984,D3,206.985,0.75,49,104.69
985,B-3,206.985,1.5,49,104.69
986,G4,207.0,1.5,62,104.69
987,D4,207.0,1.5,62,104.69
988,D5,207.0,1.5,62,104.69
989,C#3,207.735,0.25,41,104.69
990,D3,207.985,0.5,49,104.69
991,B-3,208.485,1.5,48,104.69
992,E-3,208.485,1.5,48,104.69
993,D4,209.25,0.25,57,104.69
994,D4,209.5,0.5,57,104.69
995,E-3,209.985,1.5,48,104.69
996,G#2,209.985,1.5,48,104.69
997,E-4,210.0,0.75,67,104.69
998,C4,210.0,1.5,56,104.69
999,A3,210.0,1.5,56,104.69
1000,G4,210.75,0.25,59,104.69
1001,A4,211.0,0.5,59,104.69
1002,D3,211.485,1.5,48,104.69
1003,C5,211.5,0.75,68,104.69
1004,E-4,211.5,1.5,57,104.69
1005,G4,211.5,1.5,57,104.69
1006,D5,212.25,0.25,59,104.69
1007,E-5,212.5,0.5,59,104.69
1008,D3,212.985,0.75,49,104.69
1009,G2,212.985,1.5,49,104.69
1010,G4,213.0,1.5,60,104.69
1011,D5,213.0,1.5,60,104.69
1012,D4,213.0,1.5,60,104.69
1013,E-3,213.735,0.25,41,104.69
1014,D3,213.985,0.5,49,104.69
1015,D3,214.485,1.5,48,104.69
1016,C#4,214.5,1.5,55,104.69
1017,G4,214.5,0.75,66,104.69
1018,C5,215.25,0.25,56,104.69
1019,B-4,215.5,0.5,59,104.69
1020,G2,215.985,1.5,38,104.69
1021,D3,215.985,1.5,38,104.69
1022,G3,215.985,1.5,38,104.69
1023,C4,216.0,1.25,55,104.69
1024,G#4,216.0,0.75,66,104.69
1025,C5,216.75,0.25,55,104.69
1026,G4,217.0,0.25,56,104.69
1027,F#4,217.25,0.125,55,104.69
1028,G4,217.375,0.125,56,104.69
1029,C4,217.485,1.5,42,104.69
1030,G2,217.485,1.5,42,104.69
1031,C4,217.5,1.5,52,104.69
1032,F#4,217.5,0.75,62,104.69
1033,E4,218.25,0.25,55,104.69
1034,F#4,218.5,0.5,55,104.69
1035,B-3,218.985,1.5,38,104.69
1036,G2,218.985,1.5,38,104.69
1037,G4,219.0,1.5,48,104.69
1038,B-3,219.0,1.5,48,104.69
1039,G2,220.485,1.5,39,104.69
1040,D3,220.485,1.5,39,104.69
1041,A3,220.485,1.5,39,104.69
1042,A3,220.5,1.5,45,104.69
1043,C4,220.5,0.75,49,104.69
1044,D4,220.5,0.75,49,104.69
1045,C4,221.25,0.25,49,104.69
1046,D4,221.25,0.25,49,104.69
1047,C4,221.5,0.5,49,104.69
1048,D4,221.5,0.5,49,104.69
1049,G2,221.985,1.5,38,104.69
1050,D3,221.985,1.5,38,104.69
1051,G3,221.985,1.5,38,104.69
1052,B-3,222.0,1.0,50,104.69
1053,D4,222.0,1.0,50,104.69
1054,G4,222.0,1.0,50,104.69
1055,A4,223.0,0.5,55,104.69
1056,G2,223.485,1.5,42,104.69
1057,C4,223.485,1.5,42,104.69
1058,E-4,223.5,1.0,54,104.69
1059,F#4,223.5,1.0,54,104.69
1060,B-4,223.5,1.0,54,104.69
1061,A4,224.5,0.5,53,104.69
1062,G2,224.985,149/100,38,104.69
1063,B-3,224.985,149/100,38,104.69
1064,D4,225.0,1.0,52,104.69
1065,G4,225.0,1.0,52,104.69
1066,G4,226.0,0.5,53,104.69
1067,F#2,226.485,1.5,38,104.69
1068,F#3,226.485,1.5,38,104.69
1069,C4,226.5,0.75,53,104.69
1070,D4,226.5,0.75,53,104.69
1071,C4,227.25,0.25,53,104.69
1072,D4,227.25,0.25,53,104.69
1073,C4,227.5,0.5,51,104.69
1074,D4,227.5,0.5,51,104.69
1075,D3,227.985,1.5,48,104.69
1076,F2,227.985,3.0,39,104.69
1077,B-3,228.0,1.0,53,104.69
1078,D4,228.0,1.0,53,104.69
1079,G4,228.0,1.0,53,104.69
1080,A4,229.0,0.5,55,104.69
1081,E-3,229.485,1.5,42,104.69
1082,E-4,229.5,1.0,54,104.69
1083,F#4,229.5,1.0,54,104.69
1084,B-4,229.5,1.0,54,104.69
1085,A4,230.5,0.5,51,104.69
1086,B-2,230.985,1.5,45,104.69
1087,D3,230.985,1.5,45,104.69
1088,D4,231.0,1.0,54,104.69
1089,G4,231.0,1.0,54,104.69
1090,G4,232.0,0.5,53,104.69
1091,E-2,232.485,1.5,44,104.69
1092,B-2,232.485,1.5,44,104.69
1093,B-3,232.5,0.75,53,104.69
1094,D4,232.5,0.75,53,104.69
1095,B-3,233.25,0.25,53,104.69
1096,D4,233.25,0.25,53,104.69
1097,B-3,233.5,0.5,50,104.69
1098,D4,233.5,0.5,50,104.69
1099,B-1,233.985,1.5,39,104.69
1100,B-2,233.985,1.5,39,104.69
1101,B-3,234.0,1.0,60,104.69
1102,F4,234.0,1.0,60,104.69
1103,F4,235.0,0.5,58,104.69
1104,E-2,235.485,1.5,48,104.69
1105,B-2,235.485,1.5,48,104.69
1106,A3,235.5,1.0,58,104.69
1107,F4,235.5,1.0,58,104.69
1108,D4,236.5,0.5,56,104.69
1109,B-1,236.985,1.5,42,104.69
1110,B-2,236.985,1.5,42,104.69
1111,F3,237.0,1.0,61,104.69
1112,B-3,237.0,1.0,61,104.69
1113,B-3,238.0,0.5,62,104.69
1114,F2,238.485,1.5,42,104.69
1115,C3,238.485,1.5,42,104.69
1116,G3,238.5,1.5,59,104.69
1117,B-3,238.5,0.75,59,104.69
1118,B-3,239.25,0.25,59,104.69
1119,C4,239.5,0.5,58,104.69
1120,B-2,239.985,1.5,48,104.69
1121,F3,240.0,1.5,49,104.69
1122,D4,240.0,1.5,49,104.69
1123,B-3,240.0,1.5,49,104.69
1124,E-2,241.485,1.0,36,104.69
1125,E-3,241.485,1.0,36,104.69
1126,F#3,241.5,1.5,46,104.69
1127,B-3,241.5,0.75,55,104.69
1128,B-3,242.25,0.25,50,104.69
1129,A2,242.485,0.5,37,104.69
1130,C4,242.5,0.5,56,104.69
1131,D3,242.985,3.0,33,104.69
1132,D2,242.985,3.0,33,104.69
1133,F3,243.0,1.0,54,104.69
1134,B-3,243.0,1.0,54,104.69
1135,D4,243.0,1.0,54,104.69
1136,F4,244.0,0.5,60,104.69
1137,A3,244.5,1.0,63,104.69
1138,E-4,244.5,1.0,63,104.69
1139,G4,244.5,1.0,63,104.69
1140,F4,245.5,0.5,56,104.69
1141,D4,246.0,1.0,53,104.69
1142,F3,246.0,1.0,53,104.69
1143,B-3,246.0,1.0,53,104.69
1144,C4,247.0,0.5,52,104.69
1145,D3,247.485,1.5,33,104.69
1146,D2,247.485,1.5,33,104.69
1147,G3,247.5,1.0,49,104.69
1148,B-3,247.5,0.75,49,104.69
1149,B-3,248.25,0.25,48,104.69
1150,G3,248.5,0.5,41,104.69
1151,C4,248.5,0.5,41,104.69
1152,F#3,249.0,3.0,42,104.69
1153,A3,249.0,3.0,42,104.69
1154,D4,249.0,3.0,42,104.69
1155,D4,250.485,1.5,38,104.69
1156,G3,250.485,1.5,38,104.69
1157,G4,250.485,1.5,38,104.69
1158,C5,251.985,1.5,40,104.69
1159,G3,251.985,1.5,40,104.69
1160,G3,253.485,1.5,38,104.69
1161,B-4,253.485,1.5,38,104.69
1162,F#3,253.5,1.5,42,104.69
1163,A3,253.5,1.5,42,104.69
1164,D4,253.5,1.5,42,104.69
1165,G3,254.985,1.5,39,104.69
1166,D4,254.985,1.5,39,104.69
1167,A4,254.985,1.5,39,104.69
1168,D5,255.0,0.75,53,104.69
1169,D5,255.75,0.25,53,104.69
1170,D5,256.0,0.5,53,104.69
1171,G3,256.485,1.5,38,104.69
1172,D4,256.485,1.5,38,104.69
1173,G4,256.485,1.5,38,104.69
1174,B-4,256.5,1.0,50,104.69
1175,D5,256.5,1.0,50,104.69
1176,G5,256.5,1.0,50,104.69
1177,A5,257.5,0.5,53,104.69
1178,G3,257.985,1.5,42,104.69
1179,C5,257.985,1.5,42,104.69
1180,E-5,258.0,1.0,54,104.69
1181,F#5,258.0,1.0,54,104.69
1182,B-5,258.0,1.0,54,104.69
1183,A5,259.0,0.5,50,104.69
1184,G3,259.485,149/100,38,104.69
1185,B-4,259.485,149/100,38,104.69
1186,D5,259.5,1.0,52,104.69
1187,G5,259.5,1.0,52,104.69
1188,G5,260.5,0.5,53,104.69
1189,F#4,260.985,1.5,38,104.69
1190,F#3,260.985,1.5,38,104.69
1191,C5,261.0,0.75,53,104.69
1192,D5,261.0,0.75,53,104.69
1193,C5,261.75,0.25,53,104.69
1194,D5,261.75,0.25,53,104.69
1195,C5,262.0,0.5,53,104.69
1196,D5,262.0,0.5,53,104.69
1197,D4,262.485,1.5,48,104.69
1198,F3,262.485,3.0,39,104.69
1199,B-4,262.5,1.0,53,104.69
1200,D5,262.5,1.0,53,104.69
1201,G5,262.5,1.0,53,104.69
1202,A5,263.5,0.5,55,104.69
1203,E-4,263.985,1.5,42,104.69
1204,E-5,264.0,1.0,54,104.69
1205,F#5,264.0,1.0,54,104.69
1206,B-5,264.0,1.0,54,104.69
1207,A5,265.0,0.5,53,104.69
1208,B-3,265.485,1.5,45,104.69
1209,D4,265.485,1.5,45,104.69
1210,D5,265.5,1.0,57,104.69
1211,G5,265.5,1.0,57,104.69
1212,G5,266.5,0.5,53,104.69
1213,E-3,266.985,1.5,44,104.69
1214,E-4,266.985,1.5,44,104.69
1215,B-4,267.0,0.75,53,104.69
1216,D5,267.0,0.75,53,104.69
1217,B-4,267.75,0.25,53,104.69
1218,D5,267.75,0.25,53,104.69
1219,B-4,268.0,0.5,53,104.69
1220,D5,268.0,0.5,53,104.69
1221,B-2,268.485,1.5,39,104.69
1222,B-3,268.485,1.5,39,104.69
1223,B-4,268.5,1.0,60,104.69
1224,F5,268.5,1.0,60,104.69
1225,F5,269.5,0.5,58,104.69
1226,B-3,269.985,1.5,48,104.69
1227,E-3,269.985,1.5,48,104.69
1228,A4,270.0,1.0,58,104.69
1229,F5,270.0,1.0,58,104.69
1230,B-4,271.0,0.5,61,104.69
1231,B-3,271.485,1.5,42,104.69
1232,B-2,271.485,1.5,42,104.69
1233,F4,271.5,1.0,58,104.69
1234,B-4,271.5,1.0,58,104.69
1235,B-4,272.5,0.5,62,104.69
1236,C4,272.985,1.5,42,104.69
1237,F3,272.985,1.5,42,104.69
1238,G4,273.0,1.5,59,104.69
1239,B-4,273.0,0.75,59,104.69
1240,B-4,273.75,0.25,59,104.69
1241,C5,274.0,0.5,58,104.69
1242,B-3,274.485,1.5,48,104.69
1243,F4,274.5,1.5,49,104.69
1244,D5,274.5,1.5,49,104.69
1245,B-4,274.5,1.5,49,104.69
1246,E-3,275.985,1.0,36,104.69
1247,E-4,275.985,1.0,36,104.69
1248,F#4,276.0,1.5,46,104.69
1249,B-4,276.0,0.75,55,104.69
1250,B-4,276.75,0.25,50,104.69
1251,A3,276.985,0.5,37,104.69
1252,C5,277.0,0.5,56,104.69
1253,D3,277.485,3.0,34,104.69
1254,D4,277.485,3.0,34,104.69
1255,F4,277.5,1.0,54,104.69
1256,B-4,277.5,1.0,54,104.69
1257,D5,277.5,1.0,54,104.69
1258,F5,278.5,0.5,60,104.69
1259,A4,279.0,1.0,63,104.69
1260,E-5,279.0,1.0,63,104.69
1261,G5,279.0,1.0,63,104.69
1262,F5,280.0,0.5,56,104.69
1263,D5,280.5,1.0,55,104.69
1264,F4,280.5,1.0,55,104.69
1265,B-4,280.5,1.0,55,104.69
1266,C5,281.5,0.5,52,104.69
1267,D3,281.975,149/100,34,104.69
1268,D4,281.975,149/100,34,104.69
1269,G4,282.0,1.5,49,104.69
1270,B-4,282.0,0.75,49,104.69
1271,B-4,282.75,0.25,48,104.69
1272,C5,283.0,0.5,41,104.69
1273,F#4,283.5,3.0,43,104.69
1274,A4,283.5,3.0,43,104.69
1275,D5,283.5,3.0,43,104.69
1276,G2,284.975,3.0,37,104.69
1277,G#3,284.975,3.0,37,104.69
1278,G3,287.975,1.5,41,104.69
1279,G2,287.975,3.0,35,104.69
1280,F#4,288.0,1.5,43,104.69
1281,A4,288.0,1.5,43,104.69
1282,D5,288.0,1.5,43,104.69
1283,F3,289.475,0.75,41,104.69
1284,D4,289.5,0.75,53,104.69
1285,E-3,290.225,0.25,39,104.69
1286,D4,290.25,0.25,53,104.69
1287,D3,290.475,0.5,40,104.69
1288,D4,290.5,0.5,53,104.69
1289,G2,290.975,3.0,37,104.69
1290,G#3,290.975,3.0,37,104.69
1291,B3,291.0,1.0,50,104.69
1292,D4,291.0,1.0,50,104.69
1293,F4,291.0,1.0,50,104.69
1294,G4,292.0,0.375,55,104.69
1295,B-4,292.375,0.125,51,104.69
1296,B3,292.5,1.0,57,104.69
1297,D4,292.5,1.0,57,104.69
1298,G#4,292.5,1.0,57,104.69
1299,G4,293.5,0.5,55,104.69
1300,G2,293.975,1.375,35,104.69
1301,G#3,293.975,1.5,41,104.69
1302,B3,294.0,1.0,51,104.69
1303,D4,294.0,1.0,51,104.69
1304,F4,294.0,1.0,51,104.69
1305,F4,295.0,0.5,53,104.69
1306,G2,295.35,1.625,66,104.69
1307,B3,295.475,0.75,62,104.69
1308,G#3,295.5,1.5,53,104.69
1309,B3,295.5,0.75,53,104.69
1310,C#4,296.225,0.25,55,104.69
1311,C4,296.25,0.25,53,104.69
1312,D4,296.475,0.5,57,104.69
1313,D4,296.5,0.5,53,104.69
1314,C2,296.975,1.0,69,104.69
1315,C3,296.975,1.0,69,104.69
1316,B3,297.0,1.0,50,104.69
1317,D4,297.0,1.0,50,104.69
1318,F4,297.0,1.0,50,104.69
1319,G4,297.975,0.5,53,104.69
1320,C5,297.975,0.5,53,104.69
1321,C4,297.975,0.5,53,104.69
1322,G4,298.0,0.375,57,104.69
1323,B-4,298.375,0.125,51,104.69
1324,G4,298.475,0.75,57,104.69
1325,C4,298.475,0.75,57,104.69
1326,C5,298.475,0.75,57,104.69
1327,B3,298.5,1.0,57,104.69
1328,D4,298.5,1.0,57,104.69
1329,G#4,298.5,1.0,57,104.69
1330,C4,299.225,0.25,55,104.69
1331,C5,299.225,0.25,55,104.69
1332,G4,299.225,0.25,55,104.69
1333,G4,299.475,0.5,57,104.69
1334,C4,299.475,0.5,57,104.69
1335,G4,299.5,0.5,55,104.69
1336,B4,299.975,0.75,57,104.69
1337,C4,299.975,0.75,57,104.69
1338,G#4,299.975,0.75,57,104.69
1339,B3,300.0,1.0,51,104.69
1340,D4,300.0,1.0,51,104.69
1341,F4,300.0,1.0,51,104.69
1342,G#4,300.725,0.25,54,104.69
1343,C4,300.725,0.25,54,104.69
1344,G#4,300.975,0.375,54,104.69
1345,C4,300.975,0.375,54,104.69
1346,F4,301.0,0.5,53,104.69
1347,G#4,301.475,0.75,56,104.69
1348,C4,301.475,0.75,56,104.69
1349,G4,301.5,0.75,73,104.69
1350,D5,301.5,0.75,73,104.69
1351,F5,301.5,0.75,73,104.69
1352,G5,301.5,0.75,73,104.69
1353,G#4,302.225,0.25,53,104.69
1354,C4,302.225,0.25,53,104.69
1355,B-4,302.25,0.25,66,104.69
1356,G4,302.25,0.25,66,104.69
1357,F5,302.25,0.25,66,104.69
1358,G5,302.25,0.25,66,104.69
1359,G#4,302.475,0.5,53,104.69
1360,C4,302.475,0.5,53,104.69
1361,G4,302.5,0.5,66,104.69
1362,B4,302.5,0.5,66,104.69
1363,F5,302.5,0.5,66,104.69
1364,G5,302.5,0.5,66,104.69
1365,C4,302.975,0.75,56,104.69
1366,G4,302.975,0.75,56,104.69
1367,G6,303.0,1.0,74,104.69
1368,E-6,303.0,1.0,74,104.69
1369,C6,303.0,1.0,74,104.69
1370,G5,303.0,1.0,74,104.69
1371,G4,303.725,0.25,52,104.69
1372,C4,303.725,0.25,52,104.69
1373,G4,303.975,0.5,52,104.69
1374,C4,303.975,0.5,52,104.69
1375,E-6,304.0,0.5,72,104.69
1376,G5,304.0,0.5,72,104.69
1377,E-5,304.0,0.5,72,104.69
1378,C4,304.475,0.75,57,104.69
1379,G4,304.475,0.75,57,104.69
1380,C5,304.475,0.75,57,104.69
1381,G5,304.5,0.75,76,104.69
1382,E-5,304.5,0.75,76,104.69
1383,E-6,304.5,0.75,76,104.69
1384,C4,305.225,0.25,55,104.69
1385,G4,305.225,0.25,55,104.69
1386,C5,305.225,0.25,55,104.69
1387,D5,305.25,0.25,71,104.69
1388,G5,305.25,0.25,71,104.69
1389,D6,305.25,0.25,71,104.69
1390,G4,305.475,0.5,52,104.69
1391,C4,305.475,0.5,52,104.69
1392,C6,305.5,0.5,71,104.69
1393,G5,305.5,0.5,71,104.69
1394,C5,305.5,0.5,71,104.69
1395,G#4,305.975,0.75,57,104.69
1396,C4,305.975,0.75,57,104.69
1397,B4,305.975,0.75,57,104.69
1398,F5,306.0,0.75,76,104.69
1399,D5,306.0,0.75,76,104.69
1400,D6,306.0,0.75,76,104.69
1401,C4,306.725,0.25,54,104.69
1402,G#4,306.725,0.25,54,104.69
1403,B4,306.75,0.25,66,104.69
1404,D5,306.75,0.25,66,104.69
1405,F5,306.75,0.25,66,104.69
1406,C4,306.975,0.375,54,104.69
1407,G#4,306.975,0.375,54,104.69
1408,G5,307.0,0.375,66,104.69
1409,D5,307.0,0.375,66,104.69
1410,B4,307.0,0.375,66,104.69
1411,B-5,307.375,0.125,66,104.69
1412,C4,307.475,0.75,56,104.69
1413,G#4,307.475,0.75,56,104.69
1414,D5,307.5,0.75,69,104.69
1415,B4,307.5,0.75,69,104.69
1416,G#5,307.5,0.75,69,104.69
1417,C4,308.225,0.25,53,104.69
1418,G#4,308.225,0.25,53,104.69
1419,B4,308.25,0.25,66,104.69
1420,D5,308.25,0.25,66,104.69
1421,G5,308.25,0.25,66,104.69
1422,C4,308.475,0.5,53,104.69
1423,G#4,308.475,0.5,53,104.69
1424,F5,308.5,0.5,66,104.69
1425,D5,308.5,0.5,66,104.69
1426,B4,308.5,0.5,66,104.69
1427,C4,308.975,1.5,56,104.69
1428,G4,308.975,1.5,56,104.69
1429,E-5,309.0,0.75,73,104.69
1430,C5,309.0,0.75,73,104.69
1431,C5,309.75,0.25,66,104.69
1432,E-5,309.75,0.25,66,104.69
1433,F#5,309.75,0.25,66,104.69
1434,G5,310.0,0.5,66,104.69
1435,E-5,310.0,0.5,66,104.69
1436,C5,310.0,0.5,66,104.69
1437,B-3,310.475,1.5,50,104.69
1438,G4,310.475,1.5,50,104.69
1439,G5,310.5,0.75,76,104.69
1440,E-5,310.5,0.75,76,104.69
1441,E-6,310.5,0.75,76,104.69
1442,D5,311.25,0.25,71,104.69
1443,G5,311.25,0.25,71,104.69
1444,D6,311.25,0.25,71,104.69
1445,C6,311.5,0.5,71,104.69
1446,G5,311.5,0.5,71,104.69
1447,C5,311.5,0.5,71,104.69
1448,A3,311.975,3.0,50,104.69
1449,E-4,311.975,1.5,50,104.69
1450,F5,312.0,0.75,76,104.69
1451,D5,312.0,0.75,76,104.69
1452,D6,312.0,0.75,76,104.69
1453,B4,312.75,0.25,66,104.69
1454,D5,312.75,0.25,66,104.69
1455,F5,312.75,0.25,66,104.69
1456,G5,313.0,0.375,66,104.69
1457,D5,313.0,0.375,66,104.69
1458,B4,313.0,0.375,66,104.69
1459,B-5,313.375,0.125,67,104.69
1460,D4,313.475,1.5,50,104.69
1461,D5,313.5,0.75,69,104.69
1462,B4,313.5,0.75,69,104.69
1463,G#5,313.5,0.75,69,104.69
1464,B4,314.25,0.25,66,104.69
1465,D5,314.25,0.25,66,104.69
1466,G5,314.25,0.25,66,104.69
1467,F5,314.5,0.5,66,104.69
1468,D5,314.5,0.5,66,104.69
1469,B4,314.5,0.5,66,104.69
1470,G3,314.975,3.0,50,104.69
1471,D4,314.975,1.5,50,104.69
1472,E-5,315.0,0.75,73,104.69
1473,C5,315.0,0.75,73,104.69
1474,C5,315.75,0.25,66,104.69
1475,E-5,315.75,0.25,66,104.69
1476,F#5,315.75,0.25,66,104.69
1477,G5,316.0,0.5,66,104.69
1478,E-5,316.0,0.5,66,104.69
1479,C5,316.0,0.5,66,104.69
1480,E4,316.475,1.5,50,104.69
1481,D6,316.5,1.5,81,104.69
1482,D5,316.5,0.75,68,104.69
1483,G5,316.5,0.75,68,104.69
1484,G5,317.258,0.25,74,104.69
1485,D5,317.492,0.5,68,104.69
1486,F4,317.975,1.5,50,104.69
1487,A3,317.975,3.0,50,104.69
1488,C6,318.0,1.25,81,104.69
1489,C5,318.0,0.75,68,104.69
1490,G5,318.0,0.75,68,104.69
1491,G5,318.758,0.25,70,104.69
1492,C5,319.0,0.25,66,104.69
1493,A5,319.25,0.125,62,104.69
1494,C6,319.375,0.125,62,104.69
1495,E4,319.475,1.0,50,104.69
1496,C5,319.5,0.75,56,104.69
1497,D5,319.5,0.75,56,104.69
1498,F#5,319.5,0.75,56,104.69
1499,A5,319.5,0.75,56,104.69
1500,G5,320.25,0.25,69,104.69
1501,G4,320.475,0.5,45,104.69
1502,A5,320.5,0.5,69,104.69
1503,D4,320.975,0.75,53,104.69
1504,F#4,320.975,1.5,45,104.69
1505,B-5,321.0,1.5,81,104.69
1506,B-4,321.0,0.75,68,104.69
1507,D5,321.0,0.75,68,104.69
1508,C#4,321.725,0.25,50,104.69
1509,G5,321.758,0.25,71,104.69
1510,D4,321.975,0.5,50,104.69
1511,D5,322.0,0.5,68,104.69
1512,D4,322.475,1.5,53,104.69
1513,D5,322.5,0.75,72,104.69
1514,G5,322.5,0.75,72,104.69
1515,B-5,322.5,0.75,72,104.69
1516,D6,322.5,0.75,72,104.69
1517,G5,323.25,0.25,69,104.69
1518,D5,323.5,0.5,69,104.69
1519,D4,323.975,0.75,49,104.69
1520,G4,323.975,3.0,49,104.69
1521,A5,324.0,1.5,68,104.69
1522,A4,324.0,0.75,62,104.69
1523,D5,324.0,0.75,62,104.69
1524,C#4,324.725,0.25,42,104.69
1525,D5,324.75,0.25,74,104.69
1526,D4,324.975,0.5,49,104.69
1527,A4,325.0,0.5,66,104.69
1528,D4,325.475,1.5,50,104.69
1529,A5,325.5,0.75,72,104.69
1530,C#5,325.5,1.5,61,104.69
1531,G5,325.5,1.5,61,104.69
1532,B-5,326.25,0.25,69,104.69
1533,A5,326.5,0.5,69,104.69
1534,F#4,326.975,3.0,49,104.69
1535,D4,326.975,0.75,49,104.69
1536,D6,327.0,1.5,71,104.69
1537,A5,327.0,1.5,71,104.69
1538,D5,327.0,1.5,71,104.69
1539,C#4,327.725,0.25,42,104.69
1540,D4,327.975,0.5,49,104.69
1541,D4,328.475,1.5,50,104.69
1542,D5,329.25,0.25,63,104.69
1543,D5,329.5,0.5,63,104.69
1544,D4,329.975,0.75,49,104.69
1545,E-5,330.0,0.75,71,104.69
1546,C5,330.0,1.5,60,104.69
1547,A4,330.0,1.5,60,104.69
1548,D4,330.725,0.25,42,104.69
1549,G5,330.75,0.25,61,104.69
1550,D4,330.975,0.5,49,104.69
1551,B-5,331.0,0.5,61,104.69
1552,D4,331.475,1.5,50,104.69
1553,D6,331.5,0.75,69,104.69
1554,E-5,331.5,1.5,58,104.69
1555,G5,331.5,1.5,58,104.69
1556,C6,332.25,0.25,63,104.69
1557,G5,332.5,0.5,63,104.69
1558,D4,332.975,0.75,49,104.69
1559,A5,333.0,0.75,71,104.69
1560,D5,333.0,1.5,52,104.69
1561,C5,333.0,1.5,52,104.69
1562,E-4,333.725,0.25,39,104.69
1563,B-5,333.75,0.25,61,104.69
1564,D4,333.975,0.5,44,104.69
1565,A5,334.0,0.5,61,104.69
1566,D4,334.475,0.5,44,104.69
1567,E-5,334.5,0.75,62,104.69
1568,F#5,334.5,0.75,62,104.69
1569,C6,334.5,0.75,62,104.69
1570,D5,335.25,0.25,56,104.69
1571,F#5,335.25,0.25,56,104.69
1572,B-5,335.25,0.25,56,104.69
1573,C5,335.5,0.5,56,104.69
1574,F#5,335.5,0.5,56,104.69
1575,A5,335.5,0.5,56,104.69
1576,D3,335.975,0.75,44,104.69
1577,G3,335.975,3.0,44,104.69
1578,B-4,336.0,0.75,64,104.69
1579,D5,336.0,0.75,64,104.69
1580,G5,336.0,0.75,64,104.69
1581,C#3,336.725,0.25,38,104.69
1582,C5,336.75,0.25,54,104.69
1583,E-5,336.75,0.25,54,104.69
1584,A5,336.75,0.25,54,104.69
1585,D3,336.975,0.5,44,104.69
1586,B-4,337.0,0.5,54,104.69
1587,D5,337.0,0.5,54,104.69
1588,G5,337.0,0.5,54,104.69
1589,D3,337.475,1.5,45,104.69
1590,A4,337.5,0.75,58,104.69
1591,C5,337.5,0.75,58,104.69
1592,F5,337.5,0.75,58,104.69
1593,B-4,338.25,0.25,52,104.69
1594,D5,338.25,0.25,52,104.69
1595,G5,338.25,0.25,52,104.69
1596,G4,338.5,0.5,52,104.69
1597,B-4,338.5,0.5,52,104.69
1598,E-5,338.5,0.5,52,104.69
1599,D3,338.975,0.75,44,104.69
1600,F#3,338.975,3.0,44,104.69
1601,F#4,339.0,1.5,54,104.69
1602,A4,339.0,1.5,54,104.69
1603,D5,339.0,1.5,54,104.69
1604,C#3,339.725,0.25,38,104.69
1605,D3,339.975,0.5,44,104.69
1606,D3,340.475,1.5,45,104.69
1607,D4,341.25,0.25,47,104.69
1608,D4,341.5,0.5,47,104.69
1609,D3,341.975,0.75,44,104.69
1610,E-4,342.0,0.75,63,104.69
1611,C4,342.0,1.5,53,104.69
1612,A3,342.0,1.5,53,104.69
1613,D3,342.725,0.25,38,104.69
1614,G4,342.75,0.25,55,104.69
1615,D3,342.975,0.5,44,104.69
1616,B-4,343.0,0.5,55,104.69
1617,D3,343.475,1.5,45,104.69
1618,D5,343.5,0.75,61,104.69
1619,E-4,343.5,1.5,51,104.69
1620,G4,343.5,1.5,51,104.69
1621,C5,344.25,0.25,57,104.69
1622,G4,344.5,0.5,57,104.69
1623,F#3,344.975,1.5,38,104.69
1624,D3,344.975,0.25,38,104.69
1625,A4,345.0,0.75,63,104.69
1626,D4,345.0,1.5,48,104.69
1627,C4,345.0,1.5,48,104.69
1628,C#3,345.225,0.25,38,104.69
1629,D3,345.475,0.25,38,104.69
1630,C#3,345.725,0.25,37,104.69
1631,B-4,345.75,0.25,55,104.69
1632,D3,345.975,0.25,38,104.69
1633,A4,346.0,0.5,55,104.69
1634,C#3,346.225,0.25,33,104.69
1635,E-3,346.475,0.25,38,104.69
1636,F#3,346.475,1.5,38,104.69
1637,C5,346.5,0.75,61,104.69
1638,E-4,346.5,1.5,51,104.69
1639,F#4,346.5,1.5,51,104.69
1640,D3,346.725,0.25,33,104.69
1641,C#3,346.975,0.25,38,104.69
1642,D3,347.225,0.25,34,104.69
1643,B-4,347.25,0.25,57,104.69
1644,E-3,347.475,0.25,38,104.69
1645,A4,347.5,0.5,57,104.69
1646,D3,347.725,0.25,33,104.69
1647,G2,347.975,1.5,37,104.69
1648,G3,347.975,0.25,37,104.69
1649,B-3,348.0,0.75,56,104.69
1650,D4,348.0,0.75,56,104.69
1651,G4,348.0,0.75,56,104.69
1652,F#3,348.225,0.25,40,104.69
1653,F3,348.475,0.25,41,104.69
1654,E3,348.725,0.25,42,104.69
1655,C4,348.75,0.25,49,104.69
1656,E-4,348.75,0.25,49,104.69
1657,A4,348.75,0.25,49,104.69
1658,E-3,348.975,0.25,44,104.69
1659,B-3,349.0,0.5,49,104.69
1660,D4,349.0,0.5,49,104.69
1661,G4,349.0,0.5,49,104.69
1662,D3,349.225,0.25,47,104.69
1663,C#3,349.475,0.25,47,104.69
1664,A3,349.5,0.75,52,104.69
1665,C4,349.5,0.75,52,104.69
1666,F4,349.5,0.75,52,104.69
1667,D3,349.725,0.25,44,104.69
1668,E-3,349.975,0.25,42,104.69
1669,E3,350.225,0.25,41,104.69
1670,B-3,350.25,0.25,45,104.69
1671,D4,350.25,0.25,45,104.69
1672,G4,350.25,0.25,45,104.69
1673,F3,350.475,0.25,40,104.69
1674,G3,350.5,0.5,45,104.69
1675,B-3,350.5,0.5,45,104.69
1676,E-4,350.5,0.5,45,104.69
1677,F#3,350.725,0.25,40,104.69
1678,G2,350.975,1.5,41,104.69
1679,G3,350.975,0.25,41,104.69
1680,A3,351.0,1.5,58,104.69
1681,D4,351.0,1.5,58,104.69
1682,F#3,351.225,0.25,36,104.69
1683,G3,351.475,0.25,41,104.69
1684,D3,351.725,0.25,37,104.69
1685,C#3,351.975,0.25,41,104.69
1686,D3,352.225,0.25,36,104.69
1687,F#3,352.475,0.25,41,104.69
1688,C4,352.5,1.5,53,104.69
1689,D4,352.5,0.75,53,104.69
1690,D3,352.725,0.25,40,104.69
1691,C#3,352.975,0.25,41,104.69
1692,D3,353.225,0.25,36,104.69
1693,D4,353.25,0.25,53,104.69
1694,E-3,353.475,0.25,42,104.69
1695,D4,353.5,0.5,53,104.69
1696,D3,353.725,0.25,41,104.69
1697,G2,353.975,1.5,37,104.69
1698,G3,353.975,0.25,37,104.69
1699,B-3,354.0,1.0,50,104.69
1700,D4,354.0,1.0,50,104.69
1701,G4,354.0,1.0,50,104.69
1702,F#3,354.225,0.25,40,104.69
1703,F3,354.475,0.25,42,104.69
1704,E3,354.725,0.25,44,104.69
1705,E-3,354.975,0.25,44,104.69
1706,A4,355.0,0.5,56,104.69
1707,D3,355.225,0.25,42,104.69
1708,C#3,355.475,0.25,42,104.69
1709,E-4,355.5,1.0,57,104.69
1710,F#4,355.5,1.0,57,104.69
1711,B-4,355.5,1.0,57,104.69
1712,D3,355.725,0.25,41,104.69
1713,E-3,355.975,0.25,40,104.69
1714,E3,356.225,0.25,37,104.69
1715,F3,356.475,0.25,41,104.69
1716,A4,356.5,0.5,59,104.69
1717,F#3,356.725,0.25,41,104.69
1718,G2,356.975,1.5,41,104.69
1719,G3,356.975,0.25,41,104.69
1720,B-3,357.0,1.0,51,104.69
1721,D4,357.0,1.0,51,104.69
1722,G4,357.0,1.0,51,104.69
1723,F#3,357.225,0.25,36,104.69
1724,G3,357.475,0.25,41,104.69
1725,D3,357.725,0.25,37,104.69
1726,C#3,357.975,0.25,47,104.69
1727,G4,358.0,0.5,53,104.69
1728,D3,358.225,0.25,42,104.69
1729,F#2,358.475,1.5,47,104.69
1730,C4,358.5,0.75,53,104.69
1731,D4,358.5,0.75,53,104.69
1732,D3,358.725,0.25,41,104.69
1733,C#3,358.975,0.25,37,104.69
1734,D3,359.225,0.25,41,104.69
1735,C4,359.25,0.25,53,104.69
1736,D4,359.25,0.25,53,104.69
1737,E-3,359.475,0.25,42,104.69
1738,C4,359.5,0.5,51,104.69
1739,D4,359.5,0.5,51,104.69
1740,D3,359.725,0.25,41,104.69
1741,D3,359.975,0.25,49,104.69
1742,F2,359.975,1.5,49,104.69
1743,B-3,360.0,1.0,53,104.69
1744,D4,360.0,1.0,53,104.69
1745,G4,360.0,1.0,53,104.69
1746,C#3,360.225,0.25,44,104.69
1747,D3,360.475,0.25,49,104.69
1748,C#3,360.725,0.25,42,104.69
1749,D3,360.975,0.25,48,104.69
1750,A4,361.0,0.5,56,104.69
1751,C#3,361.225,0.25,42,104.69
1752,E-3,361.475,0.25,47,104.69
1753,F2,361.475,1.5,47,104.69
1754,E-4,361.5,1.0,60,104.69
1755,F#4,361.5,1.0,60,104.69
1756,B-4,361.5,1.0,60,104.69
1757,D3,361.725,0.25,41,104.69
1758,E-3,361.975,0.25,48,104.69
1759,C3,362.225,0.25,41,104.69
1760,F3,362.475,0.25,47,104.69
1761,A4,362.5,0.5,53,104.69
1762,E-3,362.725,0.25,41,104.69
1763,B-2,362.975,1.5,47,104.69
1764,D3,362.975,0.25,47,104.69
1765,B-3,363.0,1.0,51,104.69
1766,D4,363.0,1.0,51,104.69
1767,G4,363.0,1.0,51,104.69
1768,C#3,363.225,0.25,39,104.69
1769,D3,363.475,0.25,47,104.69
1770,C#3,363.725,0.25,41,104.69
1771,D3,363.975,0.25,47,104.69
1772,G4,364.0,0.5,53,104.69
1773,C#3,364.225,0.25,41,104.69
1774,E-2,364.475,0.25,47,104.69
1775,B-3,364.5,0.75,53,104.69
1776,D4,364.5,0.75,53,104.69
1777,A2,364.725,0.25,41,104.69
1778,B-2,364.975,0.25,48,104.69
1779,E-3,365.225,0.25,44,104.69
1780,B-3,365.25,0.25,53,104.69
1781,D4,365.25,0.25,53,104.69
1782,G3,365.475,0.25,52,104.69
1783,B-3,365.5,0.5,49,104.69
1784,D4,365.5,0.5,49,104.69
1785,E-3,365.725,0.25,41,104.69
1786,B-2,365.975,0.25,49,104.69
1787,B-3,366.0,1.0,60,104.69
1788,F4,366.0,1.0,60,104.69
1789,E3,366.225,0.25,44,104.69
1790,F3,366.475,0.25,48,104.69
1791,C#3,366.725,0.25,41,104.69
1792,D3,366.975,0.25,49,104.69
1793,F4,367.0,0.5,58,104.69
1794,B-2,367.225,0.25,41,104.69
1795,E-2,367.475,0.25,47,104.69
1796,A3,367.5,1.0,58,104.69
1797,F4,367.5,1.0,58,104.69
1798,A2,367.725,0.25,41,104.69
1799,B-2,367.975,0.25,42,104.69
1800,E3,368.225,0.25,41,104.69
1801,F#3,368.475,0.25,47,104.69
1802,D4,368.5,0.5,59,104.69
1803,E3,368.725,0.25,41,104.69
1804,B-2,368.975,0.25,48,104.69
1805,F3,369.0,1.0,61,104.69
1806,B-3,369.0,1.0,61,104.69
1807,A2,369.225,0.25,41,104.69
1808,B-2,369.475,0.25,48,104.69
1809,C#3,369.725,0.25,44,104.69
1810,D3,369.975,0.25,47,104.69
1811,B-3,370.0,0.5,62,104.69
1812,B-2,370.225,0.25,41,104.69
1813,F2,370.475,0.25,52,104.69
1814,G3,370.5,1.5,59,104.69
1815,B-3,370.5,0.75,59,104.69
1816,B2,370.725,0.25,41,104.69
1817,C3,370.975,0.25,44,104.69
1818,D3,371.225,0.25,47,104.69
1819,B-3,371.25,0.25,59,104.69
1820,E-3,371.475,0.25,48,104.69
1821,C4,371.5,0.5,58,104.69
1822,F2,371.725,0.25,41,104.69
1823,B-2,371.975,0.25,49,104.69
1824,F3,372.0,1.5,49,104.69
1825,D4,372.0,1.5,49,104.69
1826,B-3,372.0,1.5,49,104.69
1827,A2,372.225,0.25,41,104.69
1828,B-2,372.475,0.25,47,104.69
1829,C#3,372.725,0.25,40,104.69
1830,D3,372.975,0.25,47,104.69
1831,B-2,373.225,0.25,41,104.69
1832,E-2,373.475,0.25,44,104.69
1833,F#3,373.5,1.5,46,104.69
1834,B-3,373.5,0.75,55,104.69
1835,A2,373.725,0.25,41,104.69
1836,B-2,373.975,0.25,44,104.69
1837,C3,374.225,0.25,37,104.69
1838,B-3,374.25,0.25,50,104.69
1839,E-3,374.475,0.25,41,104.69
1840,C4,374.5,0.5,56,104.69
1841,A2,374.725,0.25,37,104.69
1842,D2,374.975,0.25,47,104.69
1843,F3,375.0,1.0,54,104.69
1844,B-3,375.0,1.0,54,104.69
1845,D4,375.0,1.0,54,104.69
1846,C#3,375.225,0.25,41,104.69
1847,D3,375.475,0.25,47,104.69
1848,G#2,375.725,0.25,41,104.69
1849,B-2,375.975,0.25,47,104.69
1850,F4,376.0,0.5,60,104.69
1851,A2,376.225,0.25,41,104.69
1852,F2,376.475,0.25,47,104.69
1853,A3,376.5,1.0,63,104.69
1854,E-4,376.5,1.0,63,104.69
1855,G4,376.5,1.0,63,104.69
1856,F#2,376.725,0.25,41,104.69
1857,C#2,376.975,0.25,47,104.69
1858,D2,377.225,0.25,41,104.69
1859,G#1,377.475,0.25,47,104.69
1860,F4,377.5,0.5,56,104.69
1861,A1,377.725,0.25,41,104.69
1862,D2,377.975,3.0,49,104.69
1863,D4,378.0,1.0,52,104.69
1864,F3,378.0,1.0,52,104.69
1865,B-3,378.0,1.0,52,104.69
1866,C4,379.0,0.5,52,104.69
1867,G3,379.5,1.0,49,104.69
1868,B-3,379.5,0.75,49,104.69
1869,B-3,380.25,0.25,48,104.69
1870,G3,380.5,0.5,41,104.69
1871,C4,380.5,0.5,41,104.69
1872,G2,380.975,3.0,37,104.69
1873,G#3,380.975,3.0,37,104.69
1874,F#3,381.0,3.0,43,104.69
1875,A3,381.0,3.0,43,104.69
1876,D4,381.0,3.0,43,104.69
1877,G2,383.975,3.0,35,104.69
1878,G#3,383.975,149/100,41,104.69
1879,F3,385.475,0.75,41,104.69
1880,F#3,385.5,1.5,43,104.69
1881,A3,385.5,1.5,43,104.69
1882,D4,385.5,1.5,43,104.69
1883,E-3,386.225,0.25,39,104.69
1884,D3,386.475,0.5,40,104.69
1885,G2,386.975,3.0,37,104.69
1886,G#3,386.975,3.0,37,104.69
1887,D4,387.0,0.75,53,104.69
1888,D4,387.75,0.25,53,104.69
1889,D4,388.0,0.5,53,104.69
1890,B3,388.5,1.0,50,104.69
1891,D4,388.5,1.0,50,104.69
1892,F4,388.5,1.0,50,104.69
1893,G4,389.5,0.375,58,104.69
1894,B-4,389.875,0.125,51,104.69
1895,G#3,389.975,1.5,41,104.69
1896,G2,389.975,1.375,35,104.69
1897,B3,390.0,1.0,57,104.69
1898,D4,390.0,1.0,57,104.69
1899,G#4,390.0,1.0,57,104.69
1900,G4,391.0,0.5,55,104.69
1901,G2,391.35,1.625,66,104.69
1902,B3,391.475,0.75,62,104.69
1903,B3,391.5,1.0,51,104.69
1904,D4,391.5,1.0,51,104.69
1905,F4,391.5,1.0,51,104.69
1906,C#4,392.225,0.25,55,104.69
1907,D4,392.475,0.5,57,104.69
1908,F4,392.5,0.5,53,104.69
1909,C2,392.975,0.25,69,104.69
1910,G#3,393.0,1.5,53,104.69
1911,B3,393.0,0.75,53,104.69
1912,G2,393.225,0.25,61,104.69
1913,C3,393.475,0.25,61,104.69
1914,E-3,393.725,0.25,61,104.69
1915,C4,393.75,0.25,53,104.69
1916,G3,393.975,0.25,69,104.69
1917,D4,394.0,0.5,53,104.69
1918,C4,394.225,0.25,61,104.69
1919,E-4,394.475,0.25,61,104.69
1920,B3,394.5,1.0,50,104.69
1921,D4,394.5,1.0,50,104.69
1922,F4,394.5,1.0,50,104.69
1923,G4,394.725,0.25,61,104.69
1924,C5,394.975,0.25,59,104.69
1925,E-5,395.225,0.25,63,104.69
1926,G5,395.475,0.25,68,104.69
1927,G4,395.5,0.375,58,104.69
1928,C6,395.725,0.25,72,104.69
1929,B-4,395.875,0.125,51,104.69
1930,E-6,395.975,1.5,79,104.69
1931,B3,396.0,1.0,57,104.69
1932,D4,396.0,1.0,57,104.69
1933,G#4,396.0,1.0,57,104.69
1934,G4,397.0,0.5,56,104.69
1935,C4,397.475,0.75,53,104.69
1936,B3,397.5,1.0,51,104.69
1937,D4,397.5,1.0,51,104.69
1938,F4,397.5,1.0,51,104.69
1939,B-3,398.225,0.25,51,104.69
1940,A3,398.475,0.5,52,104.69
1941,F4,398.5,0.5,53,104.69
1942,A3,398.975,1.5,59,104.69
1943,G4,399.0,0.75,73,104.69
1944,D5,399.0,0.75,73,104.69
1945,F5,399.0,0.75,73,104.69
1946,G5,399.0,0.75,73,104.69
1947,B-4,399.75,0.25,66,104.69
1948,G4,399.75,0.25,66,104.69
1949,F5,399.75,0.25,66,104.69
1950,G5,399.75,0.25,66,104.69
1951,G4,400.0,0.5,66,104.69
1952,B4,400.0,0.5,66,104.69
1953,F5,400.0,0.5,66,104.69
1954,G5,400.0,0.5,66,104.69
1955,E-4,400.475,0.75,59,104.69
1956,G6,400.5,3.0,74,104.69
1957,E-6,400.5,3.0,74,104.69
1958,C6,400.5,3.0,74,104.69
1959,G5,400.5,3.0,74,104.69
1960,D4,401.225,0.25,57,104.69
1961,C4,401.475,0.5,57,104.69
1962,C4,401.975,149/100,61,104.69
1963,A3,403.475,1.5,52,104.69
1964,B-3,404.975,1.5,51,104.69
1965,D3,404.975,0.75,51,104.69
1966,E-4,405.0,0.75,58,104.69
1967,G4,405.0,0.75,58,104.69
1968,A4,405.0,0.75,58,104.69
1969,C#3,405.725,0.25,41,104.69
1970,E-4,405.75,0.25,62,104.69
1971,G4,405.75,0.25,62,104.69
1972,B-4,405.75,0.25,62,104.69
1973,D3,405.975,0.5,47,104.69
1974,E-4,406.0,0.5,62,104.69
1975,G4,406.0,0.5,62,104.69
1976,C5,406.0,0.5,62,104.69
1977,D3,406.475,1.5,47,104.69
1978,E-4,406.5,1.5,70,104.69
1979,G4,406.5,1.5,70,104.69
1980,C5,406.5,1.5,70,104.69
1981,E-5,406.5,1.5,70,104.69
1982,G3,407.975,3.0,49,104.69
1983,D3,407.975,0.75,49,104.69
1984,G4,408.0,0.75,62,104.69
1985,A4,408.0,0.75,62,104.69
1986,C5,408.0,0.75,62,104.69
1987,C#3,408.725,0.25,41,104.69
1988,G4,408.75,0.25,68,104.69
1989,A4,408.75,0.25,68,104.69
1990,D5,408.75,0.25,68,104.69
1991,D3,408.975,0.5,49,104.69
1992,G4,409.0,0.5,66,104.69
1993,A4,409.0,0.5,66,104.69
1994,E-5,409.0,0.5,66,104.69
1995,D3,409.475,1.5,48,104.69
1996,G4,409.5,1.5,76,104.69
1997,A4,409.5,1.5,76,104.69
1998,E-5,409.5,1.5,76,104.69
1999,A5,409.5,1.5,76,104.69
2000,D3,410.975,0.75,49,104.69
2001,B-3,410.975,1.5,49,104.69
2002,G4,411.0,0.75,69,104.69
2003,C4,411.0,1.5,58,104.69
2004,E-4,411.0,1.5,58,104.69
2005,C#3,411.725,0.25,41,104.69
2006,A4,411.75,0.25,60,104.69
2007,D3,411.975,0.5,49,104.69
2008,G4,412.0,0.5,58,104.69
2009,E-3,412.475,1.5,48,104.69
2010,B-3,412.475,1.5,48,104.69
2011,G4,412.5,1.5,62,104.69
2012,D4,412.5,1.5,62,104.69
2013,D5,412.5,1.5,62,104.69
2014,E-3,413.975,1.5,48,104.69
2015,G#2,413.975,1.5,48,104.69
2016,D4,414.75,0.25,57,104.69
2017,D4,415.0,0.5,53,104.69
2018,D3,415.475,1.5,48,104.69
2019,E-4,415.5,0.75,67,104.69
2020,C4,415.5,1.5,56,104.69
2021,A3,415.5,1.5,56,104.69
2022,G4,416.25,0.25,59,104.69
2023,A4,416.5,0.5,59,104.69
2024,G2,416.975,1.5,49,104.69
2025,D3,416.975,0.75,49,104.69
2026,C5,417.0,0.75,68,104.69
2027,E-4,417.0,1.5,57,104.69
2028,G4,417.0,1.5,57,104.69
2029,E-3,417.725,0.25,41,104.69
2030,D5,417.75,0.25,59,104.69
2031,D3,417.975,0.5,49,104.69
2032,E-5,418.0,0.5,59,104.69
2033,D3,418.475,1.5,48,104.69
2034,G4,418.5,1.5,60,104.69
2035,D5,418.5,1.5,60,104.69
2036,D4,418.5,1.5,60,104.69
2037,G2,419.975,1.5,51,104.69
2038,D3,419.975,0.75,51,104.69
2039,C#4,420.0,1.5,55,104.69
2040,G4,420.0,0.75,66,104.69
2041,E-3,420.725,0.25,42,104.69
2042,C5,420.75,0.25,56,104.69
2043,D3,420.975,0.5,51,104.69
2044,B-4,421.0,0.5,59,104.69
2045,D3,421.475,1.5,50,104.69
2046,C4,421.5,1.25,55,104.69
2047,G#4,421.5,0.75,66,104.69
2048,C5,422.25,0.25,55,104.69
2049,G4,422.5,0.25,56,104.69
2050,F#4,422.75,0.125,55,104.69
2051,G4,422.875,0.125,56,104.69
2052,D3,422.975,0.75,51,104.69
2053,G2,422.975,1.5,51,104.69
2054,C4,423.0,1.5,52,104.69
2055,F#4,423.0,0.75,62,104.69
2056,E-3,423.725,0.25,42,104.69
2057,E4,423.75,0.25,55,104.69
2058,D3,423.975,0.5,51,104.69
2059,F#4,424.0,0.5,55,104.69
2060,D3,424.475,1.5,50,104.69
2061,G4,424.5,1.5,48,104.69
2062,B-3,424.5,1.5,48,104.69
2063,D3,425.975,0.75,51,104.69
2064,G2,425.975,1.5,51,104.69
2065,A3,426.0,1.5,45,104.69
2066,C4,426.0,0.75,49,104.69
2067,D4,426.0,0.75,49,104.69
2068,E-3,426.725,0.25,40,104.69
2069,C4,426.75,0.25,49,104.69
2070,D4,426.75,0.25,49,104.69
2071,D3,426.975,0.5,49,104.69
2072,C4,427.0,0.5,49,104.69
2073,D4,427.0,0.5,49,104.69
2074,D3,427.475,1.5,47,104.69
2075,C4,427.475,1.5,47,104.69
2076,B-3,427.5,1.0,50,104.69
2077,D4,427.5,1.0,50,104.69
2078,G4,427.5,1.0,50,104.69
2079,A4,428.5,0.5,55,104.69
2080,D3,428.975,0.5,41,104.69
2081,G2,428.975,0.5,41,104.69
2082,E-4,429.0,1.0,57,104.69
2083,F#4,429.0,1.0,57,104.69
2084,B-4,429.0,1.0,57,104.69
2085,F#2,429.475,0.25,49,104.69
2086,G2,429.725,0.25,49,104.69
2087,A2,429.975,0.25,50,104.69
2088,A4,430.0,0.5,54,104.69
2089,B-2,430.225,0.25,51,104.69
2090,C#3,430.475,0.25,52,104.69
2091,D4,430.5,1.0,52,104.69
2092,G4,430.5,1.0,52,104.69
2093,D3,430.725,0.25,53,104.69
2094,A2,430.975,0.25,50,104.69
2095,B-2,431.225,0.25,51,104.69
2096,C#3,431.475,0.25,51,104.69
2097,G4,431.5,0.5,53,104.69
2098,D3,431.725,0.25,52,104.69
2099,F#3,431.975,0.25,53,104.69
2100,A3,432.0,1.5,40,104.69
2101,C4,432.0,0.75,53,104.69
2102,D4,432.0,0.75,53,104.69
2103,G3,432.225,0.25,56,104.69
2104,C#3,432.475,0.25,51,104.69
2105,D3,432.725,0.25,52,104.69
2106,C4,432.75,0.25,53,104.69
2107,D4,432.75,0.25,53,104.69
2108,F#3,432.975,0.25,56,104.69
2109,C4,433.0,0.5,53,104.69
2110,D4,433.0,0.5,53,104.69
2111,G3,433.225,0.25,57,104.69
2112,A3,433.475,0.25,59,104.69
2113,B-3,433.5,1.0,53,104.69
2114,D4,433.5,1.0,53,104.69
2115,G4,433.5,1.0,53,104.69
2116,B-3,433.725,0.25,60,104.69
2117,F#3,433.975,0.25,56,104.69
2118,G3,434.225,0.25,58,104.69
2119,A3,434.475,0.25,59,104.69
2120,A4,434.5,0.375,54,104.69
2121,B-3,434.725,0.25,60,104.69
2122,C5,434.875,167/1000,44,104.69
2123,C#4,434.975,0.25,61,104.69
2124,E-4,435.0,1.0,56,104.69
2125,F#4,435.0,1.0,56,104.69
2126,B-4,435.0,1.0,56,104.69
2127,D4,435.225,0.25,62,104.69
2128,A3,435.475,0.25,57,104.69
2129,B-3,435.725,0.25,58,104.69
2130,C#4,435.975,0.25,60,104.69
2131,A4,436.0,0.5,52,104.69
2132,D4,436.225,0.25,61,104.69
2133,F#4,436.475,0.25,64,104.69
2134,B-3,436.5,0.5,49,104.69
2135,D4,436.5,0.5,49,104.69
2136,G4,436.5,0.5,49,104.69
2137,G4,436.725,0.25,66,104.69
2138,C#4,436.975,0.25,68,104.69
2139,F#3,437.0,0.25,49,104.69
2140,D4,437.225,0.25,61,104.69
2141,G3,437.25,0.25,49,104.69
2142,F#4,437.475,0.25,63,104.69
2143,A3,437.5,0.25,50,104.69
2144,G4,437.725,0.25,65,104.69
2145,B-3,437.75,0.25,51,104.69
2146,A4,437.975,0.25,67,104.69
2147,C#4,438.0,0.25,52,104.69
2148,B-4,438.225,0.25,68,104.69
2149,D4,438.25,0.25,53,104.69
2150,F#4,438.475,0.25,70,104.69
2151,A3,438.5,0.25,50,104.69
2152,G4,438.725,0.25,62,104.69
2153,B-3,438.75,0.25,51,104.69
2154,A4,438.975,0.25,66,104.69
2155,C#4,439.0,0.25,51,104.69
2156,B-4,439.225,0.25,69,104.69
2157,D4,439.25,0.25,52,104.69
2158,C#5,439.475,0.25,72,104.69
2159,F#4,439.5,0.25,53,104.69
2160,D5,439.725,0.25,76,104.69
2161,G4,439.75,0.25,56,104.69
2162,A4,439.975,0.25,74,104.69
2163,C#4,440.0,0.25,51,104.69
2164,B-4,440.225,0.25,77,104.69
2165,D4,440.25,0.25,52,104.69
2166,C#5,440.475,0.25,81,104.69
2167,F#4,440.5,0.25,56,104.69
2168,D5,440.725,0.25,83,104.69
2169,G4,440.75,0.25,57,104.69
2170,G5,440.975,1.5,93,104.69
2171,A4,441.0,0.25,59,104.69
2172,B-4,441.25,0.25,60,104.69
2173,F#4,441.5,0.25,56,104.69
2174,G4,441.75,0.25,58,104.69
2175,A4,442.0,0.25,59,104.69
2176,B-4,442.25,0.25,60,104.69
2177,D3,442.475,1.5,77,104.69
2178,D2,442.475,1.5,77,104.69
2179,C#5,442.5,0.25,61,104.69
2180,D5,442.75,0.25,62,104.69
2181,A4,443.0,0.25,57,104.69
2182,B-4,443.25,0.25,58,104.69
2183,C#5,443.5,0.25,60,104.69
2184,D5,443.75,0.25,61,104.69
2185,G2,443.975,1.5,84,104.69
2186,G3,443.975,1.5,84,104.69
2187,F#5,444.0,0.25,64,104.69
2188,G5,444.25,0.25,66,104.69
2189,C#5,444.5,0.25,59,104.69
2190,D5,444.75,0.25,61,104.69
2191,F#5,445.0,0.25,63,104.69
2192,G5,445.25,0.25,64,104.69
2193,D3,445.475,1.5,77,104.69
2194,D2,445.475,1.5,77,104.69
2195,A5,445.5,0.25,66,104.69
2196,B-5,445.75,0.25,68,104.69
2197,F#5,446.0,0.25,64,104.69
2198,G5,446.25,0.25,66,104.69
2199,A5,446.5,0.25,69,104.69
2200,B-5,446.75,0.25,72,104.69
2201,G1,446.975,3.0,84,104.69
2202,G2,446.975,3.0,84,104.69
2203,C#6,447.0,0.25,74,104.69
2204,D6,447.25,0.25,77,104.69
2205,A5,447.5,0.25,74,104.69
2206,B-5,447.75,0.25,77,104.69
2207,C#6,448.0,0.25,81,104.69
2208,D6,448.25,0.25,83,104.69
2209,G6,448.5,1.5,93,104.69
2210,B-4,449.975,3.0,84,104.69
2211,G3,449.975,3.0,84,104.69
2212,D4,449.975,3.0,84,104.69
2213,C5,450.0,1.5,87,104.69
2214,D5,450.0,1.5,87,104.69
2215,F#5,450.0,1.5,87,104.69
2216,D6,450.0,1.5,87,104.69
2217,A5,450.0,1.5,87,104.69
2218,B-4,451.5,1.5,86,104.69
2219,D5,451.5,1.5,86,104.69
2220,B-5,451.5,1.5,86,104.69
2221,G5,451.5,1.5,86,104.69
2222,A4,453.0,1.5,86,104.69
2223,C5,453.0,1.5,86,104.69
2224,D5,453.0,1.5,86,104.69
2225,F#5,453.0,1.5,86,104.69
2226,G4,454.5,3.0,92,104.69
2227,B-4,454.5,3.0,92,104.69
2228,D5,454.5,3.0,92,104.69
2229,G5,454.5,3.0,92,104.69
2230,G6,457.5,3.0,100,104.69
2231,D6,457.5,3.0,100,104.69
2232,G5,457.5,3.0,100,104.69
