,note_name,start_time,duration,velocity,tempo
0,C4,4.5,1.25,35,165.83
1,C2,4.5,1.25,27,165.83
2,G#3,5.75,0.25,31,165.83
3,G#1,5.75,0.25,25,165.83
4,F3,6.0,4.5,28,165.83
5,F1,6.0,4.5,22,165.83
6,G#3,10.5,1.25,35,165.83
7,G#1,10.5,1.25,27,165.83
8,C4,11.75,0.25,30,165.83
9,C2,11.75,0.25,24,165.83
10,F4,12.0,1.5,35,165.83
11,F2,12.0,1.5,27,165.83
12,G#4,13.5,1.25,35,165.83
13,G#2,13.5,1.25,27,165.83
14,C5,14.75,0.25,30,165.83
15,C3,14.75,0.25,24,165.83
16,F5,15.0,1479/1000,35,165.83
17,F3,15.0,1479/1000,27,165.83
18,F4,16.5,1.5,33,165.83
19,G#3,16.5,1.5,26,165.83
20,C5,18.0,2.5,35,165.83
21,G3,18.0,3.0,26,165.83
22,C4,18.0,3.0,26,165.83
23,E3,18.0,3.0,26,165.83
24,D5,20.5,0.375,33,165.83
25,C5,20.875,0.125,31,165.83
26,D5,21.0,167/1000,32,165.83
27,F3,21.0,3.0,26,165.83
28,B3,21.0,3.0,26,165.83
29,G#3,21.0,3.0,26,165.83
30,E5,21.167,167/1000,28,165.83
31,D5,21.333,167/1000,32,165.83
32,E5,21.5,167/1000,28,165.83
33,D5,21.667,167/1000,32,165.83
34,E5,21.833,167/1000,29,165.83
35,D5,22.0,167/1000,32,165.83
36,E5,22.167,167/1000,28,165.83
37,D5,22.333,167/1000,31,165.83
38,E5,22.5,167/1000,29,165.83
39,D5,22.667,167/1000,27,165.83
40,E5,22.833,167/1000,32,165.83
41,D5,23.0,0.25,27,165.83
42,C5,23.25,0.25,28,165.83
43,E5,23.5,0.25,31,165.83
44,D5,23.75,0.25,28,165.83
45,C5,24.0,1.0,35,165.83
46,G3,24.0,1.0,22,165.83
47,E3,24.0,1.0,22,165.83
48,C4,24.0,1.0,22,165.83
49,C#4,28.5,1.25,35,165.83
50,C#2,28.5,1.25,27,165.83
51,B-3,29.75,0.25,31,165.83
52,B-1,29.75,0.25,25,165.83
53,F#3,30.0,4.5,28,165.83
54,F#1,30.0,4.5,22,165.83
55,B-3,34.5,1.25,35,165.83
56,B-1,34.5,1.25,27,165.83
57,C#4,35.75,0.25,30,165.83
58,C#2,35.75,0.25,24,165.83
59,F#4,36.0,1.5,35,165.83
60,F#2,36.0,1.5,27,165.83
61,B-4,37.5,1.25,35,165.83
62,B-2,37.5,1.25,27,165.83
63,C#5,38.75,0.25,30,165.83
64,C#3,38.75,0.25,24,165.83
65,F#5,39.0,1.5,34,165.83
66,F#3,39.0,1.5,29,165.83
67,F#4,40.5,1.5,33,165.83
68,B-3,40.5,1.5,26,165.83
69,C#5,42.0,2.5,35,165.83
70,F3,42.0,3.0,26,165.83
71,C#4,42.0,3.0,26,165.83
72,G#3,42.0,3.0,26,165.83
73,E-5,44.5,0.375,32,165.83
74,C#5,44.875,0.125,31,165.83
75,E-5,45.0,167/1000,30,165.83
76,A3,45.0,3.0,26,165.83
77,C4,45.0,3.0,26,165.83
78,F#3,45.0,3.0,26,165.83
79,F5,45.167,167/1000,27,165.83
80,E-5,45.333,167/1000,30,165.83
81,F5,45.5,167/1000,27,165.83
82,E-5,45.667,167/1000,30,165.83
83,F5,45.833,167/1000,27,165.83
84,E-5,46.0,167/1000,29,165.83
85,F5,46.167,167/1000,27,165.83
86,E-5,46.333,167/1000,29,165.83
87,F5,46.5,167/1000,28,165.83
88,E-5,46.667,167/1000,30,165.83
89,F5,46.833,167/1000,28,165.83
90,E-5,47.0,0.25,26,165.83
91,C#5,47.25,0.25,28,165.83
92,F5,47.5,0.25,31,165.83
93,E-5,47.75,0.25,29,165.83
94,C#5,48.0,1.0,35,165.83
95,F3,48.0,1.0,22,165.83
96,G#3,48.0,1.0,22,165.83
97,C#4,48.0,1.0,22,165.83
98,C5,54.0,2.5,35,165.83
99,G4,54.0,3.0,26,165.83
100,E4,54.0,3.0,26,165.83
101,D5,56.5,0.375,42,165.83
102,C5,56.875,0.125,38,165.83
103,D5,57.0,167/1000,43,165.83
104,G#4,57.0,3.0,26,165.83
105,B4,57.0,3.0,26,165.83
106,F4,57.0,3.0,26,165.83
107,E5,57.167,167/1000,35,165.83
108,D5,57.333,167/1000,40,165.83
109,E5,57.5,167/1000,36,165.83
110,D5,57.667,167/1000,39,165.83
111,E5,57.833,167/1000,36,165.83
112,D5,58.0,167/1000,41,165.83
113,E5,58.167,167/1000,37,165.83
114,D5,58.333,167/1000,40,165.83
115,E5,58.5,167/1000,35,165.83
116,D5,58.667,167/1000,31,165.83
117,E5,58.833,167/1000,37,165.83
118,D5,59.0,0.25,33,165.83
119,C5,59.25,0.25,33,165.83
120,E5,59.5,0.25,37,165.83
121,D5,59.75,0.25,33,165.83
122,C5,60.0,1.0,35,165.83
123,E4,60.0,1.0,24,165.83
124,G4,60.0,1.0,24,165.83
125,C#2,61.5,0.25,27,165.83
126,C#2,62.0,0.25,26,165.83
127,C#2,62.5,0.25,26,165.83
128,C2,63.0,0.5,26,165.83
129,E5,66.0,2.5,35,165.83
130,G4,66.0,3.0,26,165.83
131,C#5,66.0,3.0,26,165.83
132,B-4,66.0,3.0,26,165.83
133,F5,68.5,0.5,38,165.83
134,F5,69.0,167/1000,39,165.83
135,B-4,69.0,3.0,26,165.83
136,C#5,69.0,3.0,26,165.83
137,G#4,69.0,3.0,26,165.83
138,G5,69.167,167/1000,34,165.83
139,F5,69.333,167/1000,39,165.83
140,G5,69.5,167/1000,35,165.83
141,F5,69.667,167/1000,39,165.83
142,G5,69.833,167/1000,35,165.83
143,F5,70.0,167/1000,39,165.83
144,G5,70.167,167/1000,35,165.83
145,F5,70.333,167/1000,39,165.83
146,G5,70.5,167/1000,36,165.83
147,F5,70.667,167/1000,33,165.83
148,G5,70.833,167/1000,39,165.83
149,F5,71.0,0.25,33,165.83
150,E5,71.25,0.25,34,165.83
151,G5,71.5,0.25,40,165.83
152,F5,71.75,0.25,35,165.83
153,E5,72.0,1.0,35,165.83
154,G4,72.0,1.0,23,165.83
155,B-4,72.0,1.0,23,165.83
156,C#5,72.0,1.0,23,165.83
157,C#2,73.5,0.25,27,165.83
158,C#2,74.0,0.25,26,165.83
159,C#2,74.5,0.25,26,165.83
160,C2,75.0,0.5,26,165.83
161,E5,76.5,0.5,35,165.83
162,G5,76.5,0.5,35,165.83
163,G5,77.0,0.5,31,165.83
164,E5,77.0,0.5,31,165.83
165,E5,77.5,0.5,35,165.83
166,G5,77.5,0.5,35,165.83
167,G5,78.0,1.0,35,165.83
168,B-5,78.0,1.0,35,165.83
169,C#2,79.5,0.5,27,165.83
170,C#2,80.0,0.5,26,165.83
171,C#2,80.5,0.5,26,165.83
172,C2,81.0,1.0,26,165.83
173,B-5,82.5,0.5,83,165.83
174,G5,82.5,0.5,83,165.83
175,B-5,83.0,0.5,77,165.83
176,G5,83.0,0.5,77,165.83
177,G5,83.5,0.5,83,165.83
178,B-5,83.5,0.5,83,165.83
179,E6,84.0,0.25,85,165.83
180,B-5,84.25,0.25,76,165.83
181,G6,84.5,0.25,85,165.83
182,E6,84.75,0.25,75,165.83
183,B-6,85.0,0.25,85,165.83
184,G6,85.25,0.25,76,165.83
185,E6,85.5,0.25,85,165.83
186,G6,85.75,0.25,76,165.83
187,B-5,86.0,0.25,83,165.83
188,E6,86.25,0.25,75,165.83
189,G5,86.5,0.25,83,165.83
190,B-5,86.75,0.25,74,165.83
191,E5,87.0,0.25,81,165.83
192,G5,87.25,0.25,74,165.83
193,B-4,87.5,0.25,81,165.83
194,E5,87.75,0.25,71,165.83
195,G4,88.0,0.25,80,165.83
196,B-4,88.25,0.25,73,165.83
197,E4,88.5,0.25,80,165.83
198,G4,88.75,0.25,70,165.83
199,B-3,89.0,0.25,79,165.83
200,E4,89.25,0.25,71,165.83
201,G3,89.5,0.25,75,165.83
202,B-3,89.75,0.25,63,165.83
203,E3,90.0,0.25,75,165.83
204,G3,90.25,0.25,64,165.83
205,B-2,90.5,0.25,75,165.83
206,E3,90.75,0.25,60,165.83
207,G1,91.0,0.25,73,165.83
208,B-1,91.25,0.25,67,165.83
209,E2,91.5,0.25,77,165.83
210,G2,91.75,0.25,67,165.83
211,B-2,92.0,0.25,77,165.83
212,C#3,92.25,0.25,67,165.83
213,E3,92.5,0.25,82,165.83
214,G3,92.75,0.25,73,165.83
215,B-3,93.0,0.5,89,165.83
216,F2,94.5,0.5,80,165.83
217,F1,94.5,0.5,80,165.83
218,G#3,94.5,0.5,80,165.83
219,C#4,94.5,0.5,80,165.83
220,C#3,94.5,0.5,80,165.83
221,E2,96.0,4.375,45,165.83
222,E3,96.0,4.375,45,165.83
223,C3,96.0,4.375,45,165.83
224,C4,96.0,4.375,45,165.83
225,G3,96.0,4.375,45,165.83
226,C4,100.5,1.25,35,165.83
227,C2,100.5,1.25,27,165.83
228,G#3,101.75,0.25,31,165.83
229,G#1,101.75,0.25,25,165.83
230,F3,102.0,0.5,103,165.83
231,F1,102.0,0.5,81,165.83
232,C4,102.5,99/100,84,165.83
233,F4,102.5,99/100,84,165.83
234,G#3,102.5,99/100,84,165.83
235,F3,102.5,99/100,84,165.83
236,G#1,103.0,99/100,68,165.83
237,F1,103.0,99/100,68,165.83
238,F2,103.0,99/100,68,165.83
239,C2,103.0,99/100,68,165.83
240,C4,103.5,99/100,80,165.83
241,G#3,103.5,99/100,80,165.83
242,F4,103.5,99/100,80,165.83
243,G#4,103.5,99/100,80,165.83
244,G#1,104.0,99/100,64,165.83
245,C2,104.0,99/100,64,165.83
246,F2,104.0,99/100,64,165.83
247,F1,104.0,99/100,64,165.83
248,C4,104.5,99/100,79,165.83
249,C5,104.5,99/100,79,165.83
250,F4,104.5,99/100,79,165.83
251,G#4,104.5,99/100,79,165.83
252,G#1,105.0,99/100,62,165.83
253,C2,105.0,99/100,62,165.83
254,F2,105.0,99/100,62,165.83
255,F1,105.0,99/100,62,165.83
256,C5,105.5,99/100,80,165.83
257,F5,105.5,99/100,80,165.83
258,F4,105.5,99/100,80,165.83
259,G#4,105.5,99/100,80,165.83
260,G#1,106.0,99/100,68,165.83
261,F1,106.0,99/100,68,165.83
262,F2,106.0,99/100,68,165.83
263,C2,106.0,99/100,68,165.83
264,F5,106.5,99/100,85,165.83
265,G#4,106.5,99/100,85,165.83
266,C5,106.5,99/100,85,165.83
267,G#5,106.5,99/100,85,165.83
268,G#1,107.0,99/100,62,165.83
269,C2,107.0,99/100,62,165.83
270,F2,107.0,99/100,62,165.83
271,F1,107.0,99/100,62,165.83
272,F5,107.5,62/125,80,165.83
273,C6,107.5,62/125,80,165.83
274,G#5,107.5,62/125,80,165.83
275,C5,107.5,62/125,80,165.83
276,F6,108.0,4.5,88,165.83
277,F5,108.0,4.5,88,165.83
278,C6,108.0,4.5,88,165.83
279,G#5,108.0,4.5,88,165.83
280,F1,108.0,4.5,68,165.83
281,C2,108.0,4.5,68,165.83
282,F2,108.0,4.5,68,165.83
283,G#1,108.0,4.5,68,165.83
284,G#3,112.5,1.25,41,165.83
285,G#1,112.5,1.25,33,165.83
286,C4,113.75,0.25,35,165.83
287,C2,113.75,0.25,28,165.83
288,F4,114.0,1.5,39,165.83
289,F2,114.0,1.5,33,165.83
290,G#4,115.5,1.25,41,165.83
291,G#2,115.5,1.25,33,165.83
292,C5,116.75,0.25,36,165.83
293,C3,116.75,0.25,28,165.83
294,F5,117.0,149/100,39,165.83
295,F3,117.0,149/100,33,165.83
296,F4,118.5,1.5,39,165.83
297,F2,118.5,1.5,30,165.83
298,C4,120.0,0.5,103,165.83
299,G3,120.0,0.5,81,165.83
300,E3,120.0,0.5,81,165.83
301,G3,120.5,99/100,75,165.83
302,C4,120.5,99/100,93,165.83
303,E4,120.5,99/100,93,165.83
304,G2,121.0,99/100,70,165.83
305,C3,121.0,99/100,70,165.83
306,E2,121.0,99/100,70,165.83
307,E4,121.5,99/100,83,165.83
308,G4,121.5,99/100,83,165.83
309,C4,121.5,99/100,83,165.83
310,E2,122.0,99/100,66,165.83
311,C3,122.0,99/100,66,165.83
312,G2,122.0,99/100,66,165.83
313,C5,122.5,99/100,82,165.83
314,E4,122.5,99/100,82,165.83
315,G4,122.5,99/100,82,165.83
316,G2,123.0,99/100,64,165.83
317,E2,123.0,99/100,64,165.83
318,C3,123.0,99/100,64,165.83
319,E5,123.5,99/100,82,165.83
320,G4,123.5,99/100,82,165.83
321,C5,123.5,99/100,82,165.83
322,E2,124.0,99/100,70,165.83
323,C3,124.0,99/100,70,165.83
324,G2,124.0,99/100,70,165.83
325,G5,124.5,99/100,88,165.83
326,C5,124.5,99/100,88,165.83
327,E5,124.5,99/100,88,165.83
328,G2,125.0,99/100,64,165.83
329,C3,125.0,99/100,64,165.83
330,E2,125.0,99/100,64,165.83
331,C6,125.5,62/125,83,165.83
332,E5,125.5,62/125,83,165.83
333,G5,125.5,62/125,83,165.83
334,C5,126.0,2.5,41,165.83
335,G4,126.0,3.0,30,165.83
336,E4,126.0,3.0,30,165.83
337,D5,128.5,0.5,45,165.83
338,D5,129.0,167/1000,39,165.83
339,G#4,129.0,3.0,30,165.83
340,B4,129.0,3.0,30,165.83
341,F4,129.0,3.0,30,165.83
342,E5,129.167,0.25,35,165.83
343,D5,129.333,167/1000,39,165.83
344,E5,129.5,167/1000,36,165.83
345,D5,129.667,167/1000,38,165.83
346,E5,129.833,167/1000,36,165.83
347,D5,130.0,167/1000,38,165.83
348,E5,130.167,167/1000,36,165.83
349,D5,130.333,167/1000,39,165.83
350,E5,130.5,167/1000,37,165.83
351,D5,130.667,167/1000,35,165.83
352,E5,130.833,167/1000,39,165.83
353,D5,131.0,0.25,35,165.83
354,C5,131.25,0.25,36,165.83
355,E5,131.5,0.25,41,165.83
356,D5,131.75,0.25,38,165.83
357,C4,132.0,62/125,103,165.83
358,G3,132.0,62/125,81,165.83
359,E3,132.0,62/125,81,165.83
360,G3,132.5,99/100,75,165.83
361,C4,132.5,99/100,93,165.83
362,E4,132.5,99/100,93,165.83
363,G2,133.0,99/100,70,165.83
364,C3,133.0,99/100,70,165.83
365,E2,133.0,99/100,70,165.83
366,C4,133.5,99/100,83,165.83
367,E4,133.5,99/100,83,165.83
368,G4,133.5,99/100,83,165.83
369,E2,134.0,99/100,66,165.83
370,C3,134.0,99/100,66,165.83
371,G2,134.0,99/100,66,165.83
372,E4,134.5,99/100,82,165.83
373,G4,134.5,99/100,82,165.83
374,C5,134.5,99/100,82,165.83
375,G2,135.0,99/100,64,165.83
376,E2,135.0,99/100,64,165.83
377,C3,135.0,99/100,64,165.83
378,G4,135.5,99/100,82,165.83
379,C5,135.5,99/100,82,165.83
380,E5,135.5,99/100,82,165.83
381,E2,136.0,99/100,70,165.83
382,C3,136.0,99/100,70,165.83
383,G2,136.0,99/100,70,165.83
384,C5,136.5,99/100,88,165.83
385,E5,136.5,99/100,88,165.83
386,G5,136.5,99/100,88,165.83
387,G2,137.0,99/100,64,165.83
388,C3,137.0,99/100,64,165.83
389,E2,137.0,99/100,64,165.83
390,E5,137.5,62/125,83,165.83
391,C6,137.5,62/125,83,165.83
392,G5,137.5,62/125,83,165.83
393,C5,138.0,2.5,48,165.83
394,G4,138.0,3.0,36,165.83
395,E4,138.0,3.0,36,165.83
396,C#5,140.5,0.375,52,165.83
397,C5,140.875,0.125,48,165.83
398,C#5,141.0,167/1000,46,165.83
399,G4,141.0,3.0,36,165.83
400,E-4,141.0,3.0,36,165.83
401,E-5,141.167,167/1000,41,165.83
402,C#5,141.333,167/1000,46,165.83
403,E-5,141.5,167/1000,41,165.83
404,C#5,141.667,167/1000,44,165.83
405,E-5,141.833,167/1000,41,165.83
406,C#5,142.0,167/1000,46,165.83
407,E-5,142.167,167/1000,42,165.83
408,C#5,142.333,167/1000,46,165.83
409,E-5,142.5,0.25,43,165.83
410,C#5,142.75,0.25,40,165.83
411,E-5,143.0,0.25,46,165.83
412,C#5,143.25,0.25,42,165.83
413,C5,143.5,0.25,48,165.83
414,C#5,143.75,0.25,44,165.83
415,G5,144.0,1.5,58,165.83
416,B-5,144.0,1.5,58,165.83
417,G4,144.5,0.5,36,165.83
418,E-4,144.5,0.5,36,165.83
419,E-5,145.0,229/500,36,165.83
420,E-5,145.5,229/500,36,165.83
421,E-5,146.0,229/500,39,165.83
422,E-5,146.5,229/500,37,165.83
423,E-5,147.0,229/500,36,165.83
424,E-5,147.5,229/500,39,165.83
425,E-5,148.0,229/500,35,165.83
426,E-5,148.5,229/500,35,165.83
427,E-5,149.0,229/500,39,165.83
428,E-5,149.5,229/500,36,165.83
429,E-5,150.0,229/500,36,165.83
430,B5,150.0,1.5,56,165.83
431,G#5,150.0,1.5,56,165.83
432,E-5,151.0,229/500,38,165.83
433,E-5,151.5,229/500,38,165.83
434,B4,152.0,0.5,39,165.83
435,G#4,152.0,0.5,39,165.83
436,E-5,152.5,229/500,37,165.83
437,E-5,153.0,229/500,37,165.83
438,E-5,153.5,229/500,41,165.83
439,E-5,154.0,229/500,37,165.83
440,E-5,154.5,229/500,38,165.83
441,E-5,155.0,229/500,46,165.83
442,E-5,155.5,229/500,40,165.83
443,E-5,156.0,229/500,40,165.83
444,E6,156.0,6.0,75,165.83
445,G#5,156.0,6.0,75,165.83
446,B5,156.0,6.0,75,165.83
447,E-5,157.0,229/500,38,165.83
448,E-5,157.5,229/500,38,165.83
449,G#4,158.0,0.5,40,165.83
450,B4,158.0,0.5,40,165.83
451,E-5,158.5,229/500,37,165.83
452,E-5,159.0,229/500,37,165.83
453,G#4,159.5,0.5,37,165.83
454,B4,159.5,0.5,37,165.83
455,E-5,160.0,229/500,37,165.83
456,E-5,160.5,229/500,37,165.83
457,G#4,161.0,0.5,37,165.83
458,B4,161.0,0.5,37,165.83
459,E-5,161.5,229/500,37,165.83
460,E-5,162.0,229/500,37,165.83
461,B-5,162.0,1.0,52,165.83
462,E-6,162.0,1.0,52,165.83
463,G5,162.0,1.0,52,165.83
464,G4,162.5,0.5,39,165.83
465,B-4,162.5,0.5,39,165.83
466,E-4,163.0,229/500,37,165.83
467,E-4,163.5,229/500,37,165.83
468,E-4,164.0,229/500,38,165.83
469,E-4,164.5,229/500,37,165.83
470,E-4,165.0,229/500,37,165.83
471,E-4,165.5,229/500,37,165.83
472,E-4,166.0,229/500,37,165.83
473,E-4,166.5,229/500,37,165.83
474,G5,166.5,1.25,56,165.83
475,B-5,166.5,1.25,56,165.83
476,E-4,167.0,229/500,38,165.83
477,E-4,167.5,229/500,37,165.83
478,B-5,167.75,0.25,52,165.83
479,G5,167.75,0.25,52,165.83
480,E-4,168.0,229/500,37,165.83
481,B5,168.0,1.0,58,165.83
482,G#5,168.0,1.0,58,165.83
483,E-4,168.5,229/500,39,165.83
484,E-4,169.0,229/500,37,165.83
485,G5,169.0,0.5,52,165.83
486,B-5,169.0,0.5,52,165.83
487,E-4,169.5,229/500,37,165.83
488,E-4,170.0,229/500,38,165.83
489,E-4,170.5,229/500,37,165.83
490,B-4,170.5,0.5,50,165.83
491,G4,170.5,0.5,50,165.83
492,E-4,171.0,229/500,37,165.83
493,E-4,171.5,229/500,38,165.83
494,E-4,172.0,229/500,39,165.83
495,B-3,172.0,0.5,49,165.83
496,G3,172.0,0.5,49,165.83
497,E-4,172.5,229/500,37,165.83
498,B-3,173.0,0.5,44,165.83
499,C#4,173.0,0.5,44,165.83
500,E-4,173.5,229/500,37,165.83
501,G5,173.75,0.25,58,165.83
502,B-5,173.75,0.25,58,165.83
503,E-4,174.0,229/500,37,165.83
504,C#6,174.0,1.0,61,165.83
505,B-5,174.0,1.0,61,165.83
506,E-4,174.5,229/500,39,165.83
507,E-4,175.0,229/500,37,165.83
508,B5,175.0,0.5,52,165.83
509,G#5,175.0,0.5,52,165.83
510,E-4,175.5,229/500,37,165.83
511,E-4,176.0,229/500,37,165.83
512,E-4,176.5,229/500,37,165.83
513,B4,176.5,0.5,49,165.83
514,G#4,176.5,0.5,49,165.83
515,E-4,177.0,229/500,37,165.83
516,E-4,177.5,229/500,38,165.83
517,E-4,178.0,229/500,37,165.83
518,B3,178.0,49/100,47,165.83
519,G#3,178.0,49/100,47,165.83
520,E-4,178.5,229/500,37,165.83
521,B3,179.0,0.5,46,165.83
522,G#3,179.0,0.5,46,165.83
523,E-4,179.5,229/500,37,165.83
524,G#5,179.75,0.25,52,165.83
525,B5,179.75,0.25,52,165.83
526,E-4,180.0,229/500,37,165.83
527,G#5,180.0,6.0,75,165.83
528,E6,180.0,6.0,75,165.83
529,B5,180.0,6.0,75,165.83
530,E-4,181.0,229/500,38,165.83
531,E-4,181.5,229/500,38,165.83
532,G#3,182.0,0.5,40,165.83
533,B3,182.0,0.5,40,165.83
534,E-4,182.5,229/500,37,165.83
535,E-4,183.0,229/500,37,165.83
536,B3,183.5,0.5,37,165.83
537,G#3,183.5,0.5,37,165.83
538,E-4,184.0,229/500,37,165.83
539,E-4,184.5,229/500,37,165.83
540,B3,185.0,0.5,36,165.83
541,G#3,185.0,0.5,36,165.83
542,E-4,185.5,229/500,37,165.83
543,E-4,186.0,229/500,37,165.83
544,G5,186.0,1.0,61,165.83
545,E-6,186.0,1.0,61,165.83
546,B-5,186.0,1.0,61,165.83
547,E-4,187.0,229/500,38,165.83
548,E-4,187.5,229/500,38,165.83
549,B-3,188.0,0.5,40,165.83
550,G3,188.0,0.5,40,165.83
551,E-4,188.5,229/500,37,165.83
552,E-4,189.0,229/500,37,165.83
553,E-5,189.0,3.0,52,165.83
554,F#4,189.0,3.0,52,165.83
555,A4,189.0,3.0,52,165.83
556,E-4,190.0,229/500,37,165.83
557,E-4,190.5,229/500,37,165.83
558,F#3,191.0,0.5,36,165.83
559,A3,191.0,0.5,36,165.83
560,E-4,191.5,229/500,37,165.83
561,E-4,192.0,229/500,37,165.83
562,D5,192.0,1.0,52,165.83
563,F4,192.0,1.0,52,165.83
564,G#4,192.0,1.0,52,165.83
565,E-4,193.0,229/500,37,165.83
566,E-4,193.5,229/500,36,165.83
567,G#3,194.0,0.5,38,165.83
568,F3,194.0,0.5,38,165.83
569,E-4,194.5,229/500,34,165.83
570,E-4,195.0,229/500,34,165.83
571,C#5,195.0,1.0,46,165.83
572,E4,195.0,1.0,46,165.83
573,G4,195.0,1.0,46,165.83
574,E-4,196.0,229/500,32,165.83
575,E-4,196.5,229/500,32,165.83
576,E3,197.0,0.5,30,165.83
577,G3,197.0,0.5,30,165.83
578,E-4,197.5,229/500,31,165.83
579,E-4,198.0,229/500,30,165.83
580,C#5,198.0,1.5,41,165.83
581,E-4,198.0,1.5,41,165.83
582,G4,198.0,1.5,41,165.83
583,E-3,199.0,229/500,25,165.83
584,E-3,199.5,229/500,26,165.83
585,E-3,200.0,229/500,28,165.83
586,E-3,200.5,229/500,26,165.83
587,E-3,201.0,229/500,26,165.83
588,E-3,201.5,229/500,28,165.83
589,E-3,202.0,229/500,26,165.83
590,E-3,202.5,229/500,26,165.83
591,E-3,203.0,229/500,28,165.83
592,E-3,203.5,229/500,26,165.83
593,E-3,204.0,229/500,27,165.83
594,B-3,204.5,1.5,41,165.83
595,C#4,204.5,1.5,41,165.83
596,G3,204.5,1.5,41,165.83
597,E-2,205.0,229/500,25,165.83
598,E-2,205.5,229/500,26,165.83
599,E-2,206.0,229/500,28,165.83
600,E-2,206.5,229/500,26,165.83
601,E-2,207.0,229/500,26,165.83
602,E-2,207.5,229/500,28,165.83
603,E-2,208.0,229/500,26,165.83
604,E-2,208.5,229/500,26,165.83
605,E-2,209.0,229/500,28,165.83
606,E-2,209.5,229/500,26,165.83
607,E-2,210.0,229/500,27,165.83
608,G#1,210.5,0.5,28,165.83
609,G#2,211.0,0.5,22,165.83
610,C2,211.0,0.5,22,165.83
611,E-2,211.0,0.5,22,165.83
612,G#1,211.5,0.5,26,165.83
613,G#2,212.0,0.5,24,165.83
614,C2,212.0,0.5,24,165.83
615,E-2,212.0,0.5,24,165.83
616,G#1,212.5,0.5,26,165.83
617,G#2,213.0,0.5,22,165.83
618,C2,213.0,0.5,22,165.83
619,E-2,213.0,0.5,22,165.83
620,G#1,213.5,0.5,28,165.83
621,G#2,214.0,0.5,22,165.83
622,E-2,214.0,0.5,22,165.83
623,C2,214.0,0.5,22,165.83
624,C4,214.5,1.25,44,165.83
625,G#1,214.5,0.5,26,165.83
626,C3,215.0,1.25,40,165.83
627,C2,215.0,0.5,24,165.83
628,G#2,215.0,0.5,24,165.83
629,E-2,215.0,0.5,24,165.83
630,G#1,215.5,0.5,26,165.83
631,E-4,215.75,0.25,40,165.83
632,G#3,216.0,1.5,40,165.83
633,G#4,216.0,1.5,40,165.83
634,C2,216.0,0.5,23,165.83
635,E-2,216.0,0.5,23,165.83
636,G#2,216.0,0.5,23,165.83
637,E-3,216.25,0.25,37,165.83
638,G#1,216.5,0.5,28,165.83
639,G#2,217.0,0.5,22,165.83
640,C2,217.0,0.5,22,165.83
641,E-2,217.0,0.5,22,165.83
642,G#1,217.5,0.5,26,165.83
643,C5,217.5,1.25,42,165.83
644,C4,217.5,1.25,42,165.83
645,G#2,218.0,0.5,24,165.83
646,C2,218.0,0.5,24,165.83
647,E-2,218.0,0.5,24,165.83
648,G#1,218.5,0.5,26,165.83
649,G#3,218.75,0.25,38,165.83
650,G#4,218.75,0.25,38,165.83
651,G4,219.0,1.5,40,165.83
652,G3,219.0,1.5,40,165.83
653,C2,219.0,0.5,22,165.83
654,E-2,219.0,0.5,22,165.83
655,G#2,219.0,0.5,22,165.83
656,B-1,219.5,0.5,28,165.83
657,B-2,220.0,0.5,22,165.83
658,E-2,220.0,0.5,22,165.83
659,C#2,220.0,0.5,22,165.83
660,B-1,220.5,0.5,26,165.83
661,B-3,220.5,1.25,42,165.83
662,B-4,220.5,1.25,42,165.83
663,E-2,221.0,0.5,24,165.83
664,B-2,221.0,0.5,24,165.83
665,C#2,221.0,0.5,24,165.83
666,B-1,221.5,0.5,26,165.83
667,G3,221.75,0.25,38,165.83
668,G4,221.75,0.25,38,165.83
669,G#4,222.0,1.5,40,165.83
670,G#3,222.0,1.5,40,165.83
671,C#2,222.0,0.5,23,165.83
672,B-2,222.0,0.5,23,165.83
673,E-2,222.0,0.5,23,165.83
674,C2,222.5,0.5,28,165.83
675,E-2,223.0,0.5,22,165.83
676,G#2,223.0,0.5,22,165.83
677,C3,223.0,0.5,22,165.83
678,E-4,223.5,3.0,40,165.83
679,C2,223.5,0.5,26,165.83
680,E-3,224.0,3.0,40,165.83
681,E-2,224.0,0.5,24,165.83
682,G#2,224.0,0.5,24,165.83
683,C3,224.0,0.5,24,165.83
684,C2,224.5,0.5,26,165.83
685,G#2,225.0,0.5,22,165.83
686,C3,225.0,0.5,22,165.83
687,E-2,225.0,0.5,22,165.83
688,C2,225.5,0.5,28,165.83
689,E-2,226.0,0.5,22,165.83
690,G#2,226.0,0.5,22,165.83
691,C3,226.0,0.5,22,165.83
692,F4,226.5,1.25,44,165.83
693,C2,226.5,0.5,26,165.83
694,F3,227.0,1.25,40,165.83
695,G#2,227.0,0.5,28,165.83
696,C#2,227.5,0.5,26,165.83
697,C#4,227.75,0.25,40,165.83
698,C4,228.0,1.5,44,165.83
699,G#2,228.0,0.5,27,165.83
700,C#3,228.25,0.25,37,165.83
701,C3,228.5,1.5,40,165.83
702,E-2,228.5,0.5,28,165.83
703,G#2,229.0,0.5,25,165.83
704,E-4,229.5,1.25,44,165.83
705,E-2,229.5,0.5,26,165.83
706,G#2,230.0,0.5,28,165.83
707,E-3,230.0,1.25,40,165.83
708,E-2,230.5,0.5,25,165.83
709,C4,230.75,0.25,39,165.83
710,B-3,231.0,1.5,44,165.83
711,G#2,231.0,0.5,25,165.83
712,C3,231.25,0.25,36,165.83
713,B-2,231.5,1.5,40,165.83
714,E-2,231.5,0.5,28,165.83
715,G2,232.0,0.5,25,165.83
716,E-4,232.5,1.25,44,165.83
717,E-2,232.5,0.5,25,165.83
718,E-3,233.0,1.25,40,165.83
719,G2,233.0,0.5,28,165.83
720,E-2,233.5,0.5,25,165.83
721,C#4,233.75,0.25,39,165.83
722,C4,234.0,1.5,42,165.83
723,G2,234.0,0.5,25,165.83
724,C#3,234.25,0.25,36,165.83
725,G#2,234.5,0.5,28,165.83
726,G#3,235.0,0.5,22,165.83
727,C3,235.0,0.5,22,165.83
728,E-3,235.0,0.5,22,165.83
729,E-4,235.5,3.0,42,165.83
730,G#2,235.5,0.5,27,165.83
731,G#3,236.0,0.5,25,165.83
732,C3,236.0,0.5,25,165.83
733,E-3,236.0,0.5,25,165.83
734,G#2,236.5,0.5,28,165.83
735,G#3,237.0,0.5,24,165.83
736,C3,237.0,0.5,24,165.83
737,E-3,237.0,0.5,24,165.83
738,G#2,237.5,0.5,32,165.83
739,G#3,238.0,0.5,26,165.83
740,E-3,238.0,0.5,26,165.83
741,C3,238.0,0.5,26,165.83
742,C5,238.5,1.25,55,165.83
743,G#2,238.5,0.5,31,165.83
744,C4,239.0,1.25,51,165.83
745,C3,239.0,0.5,30,165.83
746,E-3,239.0,0.5,30,165.83
747,G#3,239.0,0.5,30,165.83
748,G#2,239.5,0.5,33,165.83
749,E-5,239.75,0.25,53,165.83
750,G#5,240.0,1.5,54,165.83
751,G#4,240.0,1.5,54,165.83
752,C3,240.0,0.5,29,165.83
753,E-3,240.0,0.5,29,165.83
754,G#3,240.0,0.5,29,165.83
755,E-4,240.25,0.25,49,165.83
756,G#2,240.5,0.5,37,165.83
757,G#3,241.0,0.5,29,165.83
758,E-3,241.0,0.5,29,165.83
759,C3,241.0,0.5,29,165.83
760,G#2,241.5,0.5,36,165.83
761,C5,241.5,1.25,60,165.83
762,C6,241.5,1.25,60,165.83
763,G#3,242.0,0.5,33,165.83
764,E-3,242.0,0.5,33,165.83
765,C3,242.0,0.5,33,165.83
766,G#2,242.5,0.5,37,165.83
767,G#5,242.75,0.25,56,165.83
768,G#4,242.75,0.25,56,165.83
769,G4,243.0,1.5,59,165.83
770,G5,243.0,1.5,59,165.83
771,C3,243.0,0.5,32,165.83
772,G#3,243.0,0.5,32,165.83
773,E-3,243.0,0.5,32,165.83
774,B-2,243.5,0.5,40,165.83
775,B-3,244.0,0.5,32,165.83
776,E-3,244.0,0.5,32,165.83
777,C#3,244.0,0.5,32,165.83
778,B-2,244.5,0.5,39,165.83
779,B-4,244.5,1.25,65,165.83
780,B-5,244.5,1.25,65,165.83
781,E-3,245.0,0.5,37,165.83
782,B-3,245.0,0.5,37,165.83
783,C#3,245.0,0.5,37,165.83
784,B-2,245.5,0.5,40,165.83
785,G5,245.75,0.25,60,165.83
786,G4,245.75,0.25,60,165.83
787,G#4,246.0,1.5,54,165.83
788,G#5,246.0,1.5,54,165.83
789,C#3,246.0,0.5,36,165.83
790,B-3,246.0,0.5,36,165.83
791,E-3,246.0,0.5,36,165.83
792,C4,246.5,6.0,32,165.83
793,E-3,246.5,6.0,32,165.83
794,C3,246.5,6.0,32,165.83
795,G#3,246.5,6.0,32,165.83
796,E-4,247.5,4.5,48,165.83
797,E-5,247.5,4.5,48,165.83
798,E5,252.0,1.5,78,165.83
799,E4,252.0,1.5,78,165.83
800,G#3,252.5,1.5,59,165.83
801,C#3,252.5,6.0,50,165.83
802,E3,252.5,6.0,50,165.83
803,C#4,253.5,4.5,75,165.83
804,C#5,253.5,4.5,75,165.83
805,A3,254.0,4.5,57,165.83
806,B4,258.0,4.5,58,165.83
807,G#3,258.5,6.0,33,165.83
808,E-3,258.5,6.0,33,165.83
809,B3,258.5,6.0,33,165.83
810,B-4,262.5,1.0,51,165.83
811,G#4,263.5,0.375,49,165.83
812,A4,263.875,0.125,38,165.83
813,B-4,264.0,0.25,44,165.83
814,B4,264.25,0.25,38,165.83
815,B-4,264.5,0.25,46,165.83
816,G3,264.5,6.0,29,165.83
817,C#4,264.5,6.0,29,165.83
818,E-3,264.5,6.0,29,165.83
819,B4,264.75,0.25,40,165.83
820,B-4,265.0,0.25,47,165.83
821,B4,265.25,0.25,40,165.83
822,B-4,265.5,0.25,48,165.83
823,B4,265.75,0.25,41,165.83
824,B-4,266.0,0.25,49,165.83
825,B4,266.25,0.25,42,165.83
826,B-4,266.5,0.25,50,165.83
827,B4,266.75,0.25,42,165.83
828,B-4,267.0,0.25,51,165.83
829,B4,267.25,0.25,44,165.83
830,B-4,267.5,0.25,51,165.83
831,B4,267.75,0.25,45,165.83
832,B-4,268.0,0.25,52,165.83
833,B4,268.25,0.25,46,165.83
834,B-4,268.5,0.25,53,165.83
835,B4,268.75,0.25,48,165.83
836,B-4,269.0,0.25,55,165.83
837,B4,269.25,0.25,48,165.83
838,B-4,269.5,0.25,56,165.83
839,B4,269.75,0.25,48,165.83
840,E5,270.0,0.25,46,165.83
841,E-5,270.25,0.25,39,165.83
842,E5,270.5,0.25,46,165.83
843,E-5,270.75,0.25,40,165.83
844,E5,271.0,0.25,48,165.83
845,E-5,271.25,0.25,41,165.83
846,E5,271.5,0.25,50,165.83
847,E-5,271.75,0.25,44,165.83
848,E5,272.0,0.25,51,165.83
849,E-5,272.25,0.25,45,165.83
850,E5,272.5,0.25,53,165.83
851,E-5,272.75,0.25,47,165.83
852,E5,273.0,0.25,56,165.83
853,E-5,273.25,0.25,48,165.83
854,E5,273.5,0.25,56,165.83
855,E-5,273.75,0.25,47,165.83
856,E5,274.0,0.25,56,165.83
857,E-5,274.25,0.25,48,165.83
858,E5,274.5,0.25,56,165.83
859,E-5,274.75,0.25,49,165.83
860,E5,275.0,0.25,56,165.83
861,E-5,275.25,0.25,49,165.83
862,D5,275.5,0.25,56,165.83
863,E-5,275.75,0.25,48,165.83
864,E6,276.0,0.25,55,165.83
865,E-6,276.25,0.25,46,165.83
866,E6,276.5,0.25,55,165.83
867,E-6,276.75,0.25,48,165.83
868,E6,277.0,0.25,57,165.83
869,E-6,277.25,0.25,50,165.83
870,E6,277.5,0.25,60,165.83
871,E-6,277.75,0.25,51,165.83
872,E6,278.0,0.25,62,165.83
873,E-6,278.25,0.25,52,165.83
874,E6,278.5,0.25,63,165.83
875,E-6,278.75,0.25,55,165.83
876,E6,279.0,0.25,67,165.83
877,E-6,279.25,0.25,56,165.83
878,E6,279.5,0.25,68,165.83
879,E-6,279.75,0.25,57,165.83
880,E6,280.0,0.25,67,165.83
881,E-6,280.25,0.25,56,165.83
882,E6,280.5,0.25,67,165.83
883,E-6,280.75,0.25,58,165.83
884,E6,281.0,0.25,67,165.83
885,E-6,281.25,0.25,58,165.83
886,D6,281.5,0.25,67,165.83
887,E-6,281.75,0.25,56,165.83
888,E6,282.0,0.5,64,165.83
889,E-6,282.5,0.5,55,165.83
890,C#6,283.0,0.5,48,165.83
891,B5,283.5,0.5,49,165.83
892,B-5,284.0,0.5,48,165.83
893,G#5,284.5,0.5,48,165.83
894,G5,285.0,0.5,49,165.83
895,F#5,285.5,0.5,47,165.83
896,E5,286.0,0.5,47,165.83
897,E-5,286.5,0.5,48,165.83
898,C#5,287.0,0.5,48,165.83
899,B4,287.5,0.5,45,165.83
900,B-4,288.0,0.5,48,165.83
901,G#4,288.5,0.5,44,165.83
902,G4,289.0,0.5,44,165.83
903,F#4,289.5,0.5,45,165.83
904,E4,290.0,0.5,45,165.83
905,E-4,290.5,0.5,45,165.83
906,C#4,291.0,0.5,45,165.83
907,B3,292.0,0.5,44,165.83
908,B-3,292.5,0.5,42,165.83
909,G#3,293.0,0.5,42,165.83
910,G3,293.5,0.5,41,165.83
911,F#3,294.0,0.5,39,165.83
912,E3,294.5,0.5,42,165.83
913,E-3,295.0,0.5,41,165.83
914,C#3,295.5,0.5,41,165.83
915,B2,296.0,0.5,40,165.83
916,B-2,296.5,0.5,39,165.83
917,G#2,297.0,0.5,39,165.83
918,G2,297.5,0.5,42,165.83
919,F#2,298.0,0.5,41,165.83
920,F2,298.5,0.5,41,165.83
921,E-2,299.0,0.5,41,165.83
922,C#2,299.5,0.5,41,165.83
923,B1,300.0,0.5,41,165.83
924,B-1,300.5,0.5,42,165.83
925,B1,301.0,0.5,42,165.83
926,C#2,301.5,0.5,42,165.83
927,E-2,302.0,0.5,42,165.83
928,E2,302.5,0.5,41,165.83
929,E-2,303.0,0.5,39,165.83
930,C#2,303.5,0.5,42,165.83
931,B1,304.0,0.5,40,165.83
932,B-1,304.5,0.5,40,165.83
933,E-2,305.0,0.5,45,165.83
934,C#2,305.5,0.5,42,165.83
935,G#3,306.0,0.25,83,165.83
936,E-2,306.0,0.5,40,165.83
937,E-3,306.25,0.25,66,165.83
938,B2,306.5,0.25,66,165.83
939,G#1,306.5,0.25,64,165.83
940,E-3,306.75,0.25,66,165.83
941,E-2,306.75,0.25,52,165.83
942,G#3,307.0,0.25,80,165.83
943,G#2,307.0,0.25,52,165.83
944,E-3,307.25,0.25,64,165.83
945,E-2,307.25,0.25,52,165.83
946,B3,307.5,0.25,84,165.83
947,G#1,307.5,0.25,58,165.83
948,E-3,307.75,0.25,66,165.83
949,E-2,307.75,0.25,51,165.83
950,B-3,308.0,0.25,83,165.83
951,G#1,308.0,0.25,68,165.83
952,E-3,308.25,0.25,66,165.83
953,E-2,308.25,0.25,52,165.83
954,G#3,308.5,0.25,81,165.83
955,G#1,308.5,0.25,64,165.83
956,E-3,308.75,0.25,66,165.83
957,E-2,308.75,0.25,52,165.83
958,G#3,309.0,0.25,83,165.83
959,G#1,309.0,0.25,62,165.83
960,E-3,309.25,0.25,63,165.83
961,E-2,309.25,0.25,52,165.83
962,B2,309.5,0.25,63,165.83
963,G#1,309.5,0.25,64,165.83
964,E-3,309.75,0.25,63,165.83
965,E-2,309.75,0.25,52,165.83
966,G#3,310.0,0.25,79,165.83
967,G#2,310.0,0.25,52,165.83
968,E-3,310.25,0.25,62,165.83
969,E-2,310.25,0.25,52,165.83
970,B3,310.5,0.25,83,165.83
971,G#1,310.5,0.25,58,165.83
972,E-3,310.75,0.25,63,165.83
973,E-2,310.75,0.25,51,165.83
974,B-3,311.0,0.25,80,165.83
975,G#1,311.0,0.25,68,165.83
976,E-3,311.25,0.25,66,165.83
977,E-2,311.25,0.25,52,165.83
978,G#3,311.5,0.25,80,165.83
979,G#1,311.5,0.25,64,165.83
980,E-3,311.75,0.25,64,165.83
981,E-2,311.75,0.25,52,165.83
982,E4,312.0,0.25,83,165.83
983,G#1,312.0,0.25,62,165.83
984,B3,312.25,0.25,66,165.83
985,E-2,312.25,0.25,52,165.83
986,G#3,312.5,0.25,66,165.83
987,G#1,312.5,0.25,64,165.83
988,B3,312.75,0.25,66,165.83
989,E2,312.75,0.25,52,165.83
990,E4,313.0,0.25,80,165.83
991,G#2,313.0,0.25,52,165.83
992,B3,313.25,0.25,64,165.83
993,E2,313.25,0.25,52,165.83
994,G#4,313.5,0.25,84,165.83
995,G#1,313.5,0.25,58,165.83
996,B3,313.75,0.25,66,165.83
997,E2,313.75,0.25,51,165.83
998,F#4,314.0,0.25,83,165.83
999,G#1,314.0,0.25,68,165.83
1000,B3,314.25,0.25,66,165.83
1001,E2,314.25,0.25,52,165.83
1002,E4,314.5,0.25,81,165.83
1003,G#1,314.5,0.25,64,165.83
1004,B3,314.75,0.25,66,165.83
1005,E2,314.75,0.25,52,165.83
1006,E4,315.0,0.25,83,165.83
1007,G#1,315.0,0.25,62,165.83
1008,B3,315.25,0.25,63,165.83
1009,E2,315.25,0.25,52,165.83
1010,G#3,315.5,0.25,63,165.83
1011,G#1,315.5,0.25,64,165.83
1012,B3,315.75,0.25,63,165.83
1013,E2,315.75,0.25,52,165.83
1014,E4,316.0,0.25,80,165.83
1015,G#2,316.0,0.25,52,165.83
1016,B3,316.25,0.25,62,165.83
1017,E2,316.25,0.25,52,165.83
1018,G#4,316.5,0.25,83,165.83
1019,G#1,316.5,0.25,58,165.83
1020,B3,316.75,0.25,63,165.83
1021,E2,316.75,0.25,51,165.83
1022,F#4,317.0,0.25,80,165.83
1023,G#1,317.0,0.25,68,165.83
1024,B3,317.25,0.25,66,165.83
1025,E2,317.25,0.25,52,165.83
1026,E4,317.5,0.25,80,165.83
1027,G#1,317.5,0.25,64,165.83
1028,B3,317.75,0.25,64,165.83
1029,E2,317.75,0.25,52,165.83
1030,C#5,318.0,0.25,92,165.83
1031,G#1,318.0,0.25,62,165.83
1032,E5,318.25,0.25,67,165.83
1033,E2,318.25,0.25,52,165.83
1034,C#5,318.5,0.25,77,165.83
1035,A1,318.5,4.5,98,165.83
1036,A2,318.5,4.5,98,165.83
1037,E5,318.75,0.25,67,165.83
1038,C#5,319.0,0.25,74,165.83
1039,E5,319.25,0.25,67,165.83
1040,C#5,319.5,0.25,73,165.83
1041,E5,319.75,0.25,67,165.83
1042,C#5,320.0,0.25,73,165.83
1043,E5,320.25,0.25,67,165.83
1044,C#5,320.5,0.25,73,165.83
1045,E5,320.75,0.25,67,165.83
1046,C#5,321.0,0.25,73,165.83
1047,E5,321.25,0.25,67,165.83
1048,C#5,321.5,0.25,73,165.83
1049,E5,321.75,0.25,67,165.83
1050,C#5,322.0,0.25,72,165.83
1051,E5,322.25,0.25,67,165.83
1052,C#5,322.5,0.25,95,165.83
1053,E5,322.75,0.25,78,165.83
1054,B-4,323.0,0.25,89,165.83
1055,B-2,323.0,0.5,81,165.83
1056,B-1,323.0,0.5,81,165.83
1057,C#5,323.25,0.25,78,165.83
1058,G4,323.5,0.25,84,165.83
1059,C#2,323.5,0.5,72,165.83
1060,B-4,323.75,0.25,77,165.83
1061,E4,324.0,0.25,82,165.83
1062,E2,324.0,0.5,82,165.83
1063,G4,324.25,0.25,70,165.83
1064,C#4,324.5,0.25,81,165.83
1065,G2,324.5,0.5,95,165.83
1066,E4,324.75,0.25,71,165.83
1067,B-3,325.0,0.25,82,165.83
1068,B-2,325.0,0.5,82,165.83
1069,C#4,325.25,0.25,68,165.83
1070,G#3,325.5,0.25,81,165.83
1071,C#3,325.5,0.5,82,165.83
1072,B-3,325.75,0.25,70,165.83
1073,C#4,326.0,0.25,80,165.83
1074,E3,326.0,479/1000,85,165.83
1075,B-3,326.25,0.25,70,165.83
1076,G#3,326.5,0.25,80,165.83
1077,E3,326.5,479/1000,83,165.83
1078,B-3,326.75,0.25,69,165.83
1079,E3,327.0,479/1000,83,165.83
1080,G#3,327.25,0.25,70,165.83
1081,C#4,327.5,0.25,80,165.83
1082,E3,327.5,1.5,97,165.83
1083,B-3,327.75,0.25,69,165.83
1084,G#3,328.0,0.25,77,165.83
1085,C#4,328.25,0.25,70,165.83
1086,G3,328.75,0.25,69,165.83
1087,C#4,329.0,0.25,80,165.83
1088,E-3,329.0,1.5,89,165.83
1089,B-3,329.25,0.25,69,165.83
1090,G3,329.5,0.25,78,165.83
1091,C#4,329.75,0.25,69,165.83
1092,G#4,330.0,0.25,83,165.83
1093,E-4,330.25,0.25,66,165.83
1094,B3,330.5,0.25,66,165.83
1095,G#2,330.5,0.25,64,165.83
1096,E-4,330.75,0.25,66,165.83
1097,E-3,330.75,0.25,52,165.83
1098,G#4,331.0,0.25,80,165.83
1099,G#3,331.0,0.25,52,165.83
1100,E-4,331.25,0.25,64,165.83
1101,E-3,331.25,0.25,52,165.83
1102,B4,331.5,0.25,84,165.83
1103,G#2,331.5,0.25,58,165.83
1104,E-4,331.75,0.25,66,165.83
1105,E-3,331.75,0.25,51,165.83
1106,B-4,332.0,0.25,83,165.83
1107,G#2,332.0,0.25,68,165.83
1108,E-4,332.25,0.25,66,165.83
1109,E-3,332.25,0.25,52,165.83
1110,G#4,332.5,0.25,81,165.83
1111,G#2,332.5,0.25,64,165.83
1112,E-4,332.75,0.25,66,165.83
1113,E-3,332.75,0.25,52,165.83
1114,G#4,333.0,0.25,83,165.83
1115,G#2,333.0,0.25,62,165.83
1116,E-4,333.25,0.25,63,165.83
1117,E-3,333.25,0.25,52,165.83
1118,B3,333.5,0.25,63,165.83
1119,G#2,333.5,0.25,64,165.83
1120,E-4,333.75,0.25,63,165.83
1121,E-3,333.75,0.25,52,165.83
1122,G#4,334.0,0.25,80,165.83
1123,G#3,334.0,0.25,52,165.83
1124,E-4,334.25,0.25,62,165.83
1125,E-3,334.25,0.25,52,165.83
1126,B4,334.5,0.25,83,165.83
1127,G#2,334.5,0.25,58,165.83
1128,E-4,334.75,0.25,63,165.83
1129,E-3,334.75,0.25,51,165.83
1130,B-4,335.0,0.25,80,165.83
1131,G#2,335.0,0.25,68,165.83
1132,E-4,335.25,0.25,66,165.83
1133,E-3,335.25,0.25,52,165.83
1134,G#4,335.5,0.25,80,165.83
1135,G#2,335.5,0.25,64,165.83
1136,E-4,335.75,0.25,64,165.83
1137,E-3,335.75,0.25,52,165.83
1138,E5,336.0,0.25,83,165.83
1139,G#2,336.0,0.25,62,165.83
1140,B4,336.25,0.25,66,165.83
1141,E-3,336.25,0.25,52,165.83
1142,G#4,336.5,0.25,66,165.83
1143,G#2,336.5,0.25,64,165.83
1144,B4,336.75,0.25,66,165.83
1145,E3,336.75,0.25,52,165.83
1146,E5,337.0,0.25,80,165.83
1147,G#3,337.0,0.25,52,165.83
1148,B4,337.25,0.25,64,165.83
1149,E3,337.25,0.25,52,165.83
1150,G#5,337.5,0.25,84,165.83
1151,G#2,337.5,0.25,58,165.83
1152,B4,337.75,0.25,66,165.83
1153,E3,337.75,0.25,51,165.83
1154,F#5,338.0,0.25,83,165.83
1155,G#2,338.0,0.25,68,165.83
1156,B4,338.25,0.25,66,165.83
1157,E3,338.25,0.25,52,165.83
1158,E5,338.5,0.25,81,165.83
1159,G#2,338.5,0.25,64,165.83
1160,B4,338.75,0.25,66,165.83
1161,E3,338.75,0.25,52,165.83
1162,E5,339.0,0.25,83,165.83
1163,G#2,339.0,0.25,62,165.83
1164,B4,339.25,0.25,63,165.83
1165,E3,339.25,0.25,52,165.83
1166,G#4,339.5,0.25,63,165.83
1167,G#2,339.5,0.25,64,165.83
1168,B4,339.75,0.25,63,165.83
1169,E3,339.75,0.25,52,165.83
1170,E5,340.0,0.25,80,165.83
1171,G#3,340.0,0.25,52,165.83
1172,B4,340.25,0.25,62,165.83
1173,E3,340.25,0.25,52,165.83
1174,G#5,340.5,0.25,83,165.83
1175,G#2,340.5,0.25,58,165.83
1176,B4,340.75,0.25,63,165.83
1177,E3,340.75,0.25,51,165.83
1178,F#5,341.0,0.25,80,165.83
1179,G#2,341.0,0.25,68,165.83
1180,B4,341.25,0.25,66,165.83
1181,E3,341.25,0.25,52,165.83
1182,E5,341.5,0.25,80,165.83
1183,G#2,341.5,0.25,64,165.83
1184,B4,341.75,0.25,64,165.83
1185,E3,341.75,0.25,52,165.83
1186,C#6,342.0,0.25,94,165.83
1187,G#2,342.0,0.25,62,165.83
1188,E6,342.25,0.25,77,165.83
1189,E3,342.25,0.25,52,165.83
1190,C#6,342.5,0.25,78,165.83
1191,A3,342.5,4.5,98,165.83
1192,A2,342.5,4.5,98,165.83
1193,E6,342.75,0.25,69,165.83
1194,C#6,343.0,0.25,75,165.83
1195,E6,343.25,0.25,69,165.83
1196,C#6,343.5,0.25,75,165.83
1197,E6,343.75,0.25,69,165.83
1198,C#6,344.0,0.25,74,165.83
1199,E6,344.25,0.25,69,165.83
1200,C#6,344.5,0.25,71,165.83
1201,E6,344.75,0.25,69,165.83
1202,C#6,345.0,0.25,71,165.83
1203,E6,345.25,0.25,69,165.83
1204,C#6,345.5,0.25,71,165.83
1205,E6,345.75,0.25,69,165.83
1206,C#6,346.0,0.25,73,165.83
1207,E6,346.25,0.25,69,165.83
1208,C#6,346.5,0.25,76,165.83
1209,E6,346.75,0.25,69,165.83
1210,C#6,347.0,0.25,77,165.83
1211,B-2,347.0,0.5,74,165.83
1212,B-3,347.0,0.5,74,165.83
1213,E6,347.25,0.25,69,165.83
1214,C#6,347.5,0.25,77,165.83
1215,C#4,347.5,0.5,65,165.83
1216,C#3,347.5,0.5,65,165.83
1217,E6,347.75,0.25,69,165.83
1218,C#6,348.0,0.25,82,165.83
1219,E4,348.0,0.5,72,165.83
1220,E3,348.0,0.5,72,165.83
1221,E6,348.25,0.25,70,165.83
1222,B-5,348.5,0.25,81,165.83
1223,G4,348.5,0.5,85,165.83
1224,G3,348.5,0.5,85,165.83
1225,C#6,348.75,0.25,71,165.83
1226,G#5,349.0,0.25,82,165.83
1227,B-4,349.0,0.5,72,165.83
1228,B-3,349.0,0.5,72,165.83
1229,B-5,349.25,0.25,68,165.83
1230,G#5,349.5,0.25,81,165.83
1231,C#5,349.5,0.5,72,165.83
1232,C#4,349.5,0.5,72,165.83
1233,B-5,349.75,0.25,70,165.83
1234,C#6,350.0,0.25,80,165.83
1235,E4,350.0,479/1000,76,165.83
1236,E5,350.0,479/1000,76,165.83
1237,B-5,350.25,0.25,70,165.83
1238,G#5,350.5,0.25,80,165.83
1239,E5,350.5,479/1000,74,165.83
1240,E4,350.5,479/1000,74,165.83
1241,B-5,350.75,0.25,69,165.83
1242,E5,351.0,479/1000,74,165.83
1243,E4,351.0,479/1000,74,165.83
1244,G#5,351.25,0.25,72,165.83
1245,C#6,351.5,0.25,77,165.83
1246,E4,351.5,1.5,91,165.83
1247,E5,351.5,1.5,91,165.83
1248,B-5,351.75,0.25,70,165.83
1249,G#5,352.0,0.25,74,165.83
1250,C#6,352.25,0.25,69,165.83
1251,G5,352.75,0.25,67,165.83
1252,C#6,353.0,0.25,71,165.83
1253,E-5,353.0,1.5,78,165.83
1254,E-4,353.0,1.5,78,165.83
1255,B-5,353.25,0.25,64,165.83
1256,G5,353.5,0.25,68,165.83
1257,C#6,353.75,0.25,62,165.83
1258,E5,354.25,0.25,72,165.83
1259,C#6,354.5,0.25,78,165.83
1260,G#4,354.5,1.5,102,165.83
1261,B-5,354.75,0.25,70,165.83
1262,E5,355.0,0.25,77,165.83
1263,C#6,355.25,0.25,69,165.83
1264,E-5,355.75,0.25,67,165.83
1265,C#6,356.0,0.25,74,165.83
1266,G4,356.0,1.5,86,165.83
1267,B-5,356.25,0.25,64,165.83
1268,E-5,356.5,0.25,70,165.83
1269,C#6,356.75,0.25,62,165.83
1270,G#5,357.25,0.25,72,165.83
1271,C#6,357.5,0.25,78,165.83
1272,E5,357.5,1.5,102,165.83
1273,B-5,357.75,0.25,70,165.83
1274,G#5,358.0,0.25,76,165.83
1275,C#6,358.25,0.25,69,165.83
1276,G5,358.75,0.25,67,165.83
1277,C#6,359.0,0.25,73,165.83
1278,E-5,359.0,1.5,86,165.83
1279,B-5,359.25,0.25,64,165.83
1280,G5,359.5,0.25,70,165.83
1281,C#6,359.75,0.25,62,165.83
1282,D5,360.5,3.0,97,165.83
1283,B5,360.75,0.25,79,165.83
1284,F5,360.75,2.75,91,165.83
1285,D6,361.0,0.25,83,165.83
1286,G#5,361.0,2.5,97,165.83
1287,F6,361.25,0.25,74,165.83
1288,G#6,361.5,0.25,85,165.83
1289,F6,361.75,0.25,81,165.83
1290,D6,362.0,0.25,86,165.83
1291,B6,362.25,0.25,83,165.83
1292,B-6,362.5,0.25,86,165.83
1293,G#6,362.75,0.25,78,165.83
1294,G6,363.0,0.25,83,165.83
1295,B-6,363.25,0.25,81,165.83
1296,G#6,363.5,0.25,84,165.83
1297,E-5,363.5,3.0,85,165.83
1298,G6,363.75,0.25,82,165.83
1299,G5,363.75,2.75,77,165.83
1300,E6,364.0,0.25,81,165.83
1301,E-6,364.25,0.25,74,165.83
1302,C#6,364.5,0.25,78,165.83
1303,E6,364.75,0.25,75,165.83
1304,E-6,365.0,0.25,74,165.83
1305,C#6,365.25,0.25,72,165.83
1306,B5,365.5,0.25,71,165.83
1307,B-5,365.75,0.25,66,165.83
1308,G#5,366.25,0.25,42,165.83
1309,B5,366.5,0.25,45,165.83
1310,G#4,366.5,1.5,45,165.83
1311,B4,366.5,1.5,45,165.83
1312,E-6,366.75,0.25,47,165.83
1313,G#6,367.0,0.25,49,165.83
1314,G#5,367.25,0.25,45,165.83
1315,C#5,368.0,1.5,44,165.83
1316,E5,368.0,1.5,44,165.83
1317,G#6,368.25,0.25,49,165.83
1318,G#5,368.5,0.25,45,165.83
1319,G#6,368.75,0.25,49,165.83
1320,B4,369.5,1.5,45,165.83
1321,E-5,369.5,1.5,45,165.83
1322,G#6,369.75,0.25,48,165.83
1323,G#5,370.0,0.25,45,165.83
1324,G#6,370.25,0.25,48,165.83
1325,E-5,371.0,1.5,60,165.83
1326,B-4,371.0,1.5,60,165.83
1327,C#5,371.0,1.5,60,165.83
1328,G6,371.25,0.25,48,165.83
1329,G5,371.5,0.25,45,165.83
1330,G6,371.75,0.25,49,165.83
1331,G#5,372.25,0.25,42,165.83
1332,B5,372.5,0.25,45,165.83
1333,G#4,372.5,1.5,45,165.83
1334,B4,372.5,1.5,45,165.83
1335,E-6,372.75,0.25,47,165.83
1336,G#6,373.0,0.25,49,165.83
1337,G#5,373.25,0.25,45,165.83
1338,C#4,374.0,1.5,44,165.83
1339,E4,374.0,1.5,44,165.83
1340,G#5,374.25,0.25,49,165.83
1341,G#4,374.5,0.25,45,165.83
1342,G#5,374.75,0.25,49,165.83
1343,B3,375.5,1.5,45,165.83
1344,E-4,375.5,1.5,45,165.83
1345,G#5,375.75,0.25,48,165.83
1346,G#4,376.0,0.25,45,165.83
1347,G#5,376.25,0.25,48,165.83
1348,B-3,377.0,1.5,60,165.83
1349,C#4,377.0,1.5,60,165.83
1350,E-4,377.0,1.5,60,165.83
1351,G5,377.25,0.25,48,165.83
1352,G4,377.5,0.25,45,165.83
1353,G5,377.75,0.25,49,165.83
1354,G#5,378.25,0.25,42,165.83
1355,B5,378.5,0.25,45,165.83
1356,B3,378.5,1.5,45,165.83
1357,G#3,378.5,1.5,45,165.83
1358,E-6,378.75,0.25,47,165.83
1359,G#6,379.0,0.25,49,165.83
1360,G#5,379.25,0.25,45,165.83
1361,E3,380.0,1.5,44,165.83
1362,C#3,380.0,1.5,44,165.83
1363,G#6,380.25,0.25,49,165.83
1364,G#5,380.5,0.25,45,165.83
1365,G#6,380.75,0.25,49,165.83
1366,E-3,381.5,1.5,45,165.83
1367,B2,381.5,1.5,45,165.83
1368,G#6,381.75,0.25,48,165.83
1369,G#5,382.0,0.25,45,165.83
1370,G#6,382.25,0.25,48,165.83
1371,E-3,383.0,1.5,60,165.83
1372,C#3,383.0,1.5,60,165.83
1373,B-2,383.0,1.5,60,165.83
1374,G6,383.25,0.25,48,165.83
1375,G5,383.5,0.25,45,165.83
1376,G6,383.75,0.25,49,165.83
1377,G#6,384.0,0.25,48,165.83
1378,E-6,384.25,0.25,45,165.83
1379,B5,384.5,0.25,44,165.83
1380,G#2,384.5,3.0,48,165.83
1381,E-6,384.75,0.25,39,165.83
1382,G#6,385.0,0.25,42,165.83
1383,E-6,385.25,0.25,39,165.83
1384,B5,385.5,0.25,46,165.83
1385,E-6,385.75,0.25,41,165.83
1386,G#6,386.0,0.25,41,165.83
1387,E-6,386.25,0.25,37,165.83
1388,B5,386.5,0.25,40,165.83
1389,E-6,386.75,0.25,36,165.83
1390,G#6,387.0,0.25,42,165.83
1391,E-6,387.25,0.25,39,165.83
1392,B5,387.5,0.25,39,165.83
1393,E-2,387.5,1.5,38,165.83
1394,E-6,387.75,0.25,35,165.83
1395,G#6,388.0,0.25,38,165.83
1396,E-6,388.25,0.25,34,165.83
1397,G#6,388.5,0.25,39,165.83
1398,E-6,388.75,0.25,35,165.83
1399,G#6,389.0,0.25,37,165.83
1400,B1,389.0,1.5,30,165.83
1401,E-6,389.25,0.25,31,165.83
1402,G#6,389.5,0.25,36,165.83
1403,E-6,389.75,0.25,30,165.83
1404,G#6,390.0,4.5,33,165.83
1405,G#1,390.5,4.5,27,165.83
1406,B3,394.5,1.25,35,165.83
1407,B2,395.0,1.25,27,165.83
1408,G#3,395.75,0.25,31,165.83
1409,E-3,396.0,4.5,28,165.83
1410,G#2,396.25,0.25,25,165.83
1411,E-2,396.5,4.5,22,165.83
1412,B3,400.5,1.25,35,165.83
1413,B2,401.0,1.25,27,165.83
1414,G#3,401.75,0.25,31,165.83
1415,E3,402.0,4.5,28,165.83
1416,G#2,402.25,0.25,25,165.83
1417,E2,402.5,4.5,22,165.83
1418,G#3,406.5,1.25,35,165.83
1419,G#2,407.0,1.25,27,165.83
1420,B3,407.75,0.25,30,165.83
1421,E4,408.0,1.5,35,165.83
1422,B2,408.25,0.25,24,165.83
1423,E3,408.5,1.5,27,165.83
1424,G#4,409.5,1.25,36,165.83
1425,G#3,410.0,1.25,28,165.83
1426,B4,410.75,0.25,31,165.83
1427,E5,411.0,149/100,36,165.83
1428,B3,411.25,0.25,25,165.83
1429,E4,411.5,149/100,28,165.83
1430,E4,412.5,1.5,34,165.83
1431,E3,413.0,1.5,27,165.83
1432,B4,414.0,2.5,35,165.83
1433,F#3,414.5,3.0,26,165.83
1434,E-3,414.5,3.0,26,165.83
1435,B3,414.5,3.0,26,165.83
1436,C#5,416.5,0.375,33,165.83
1437,B4,416.875,0.125,34,165.83
1438,C#5,417.0,167/1000,31,165.83
1439,E-5,417.167,167/1000,27,165.83
1440,C#5,417.333,167/1000,31,165.83
1441,E-5,417.5,167/1000,27,165.83
1442,E3,417.5,3.0,26,165.83
1443,B-3,417.5,3.0,26,165.83
1444,G3,417.5,3.0,26,165.83
1445,C#5,417.667,167/1000,31,165.83
1446,E-5,417.833,167/1000,28,165.83
1447,C#5,418.0,167/1000,31,165.83
1448,E-5,418.167,167/1000,27,165.83
1449,C#5,418.333,167/1000,31,165.83
1450,E-5,418.5,167/1000,28,165.83
1451,C#5,418.667,167/1000,26,165.83
1452,E-5,418.833,167/1000,31,165.83
1453,C#5,419.0,0.25,26,165.83
1454,B4,419.25,0.25,30,165.83
1455,E-5,419.5,0.25,35,165.83
1456,C#5,419.75,0.25,31,165.83
1457,B4,420.0,1.0,35,165.83
1458,F#3,420.5,1.0,22,165.83
1459,E-3,420.5,1.0,22,165.83
1460,B3,420.5,1.0,22,165.83
1461,F#5,426.0,2.5,35,165.83
1462,C#5,426.5,3.0,26,165.83
1463,A4,426.5,3.0,26,165.83
1464,G#5,428.5,0.5,35,165.83
1465,F5,429.0,3.0,35,165.83
1466,G#5,429.0,167/1000,44,165.83
1467,A5,429.167,167/1000,35,165.83
1468,G#5,429.333,167/1000,40,165.83
1469,A5,429.5,167/1000,36,165.83
1470,B4,429.5,3.0,28,165.83
1471,D5,429.5,3.0,28,165.83
1472,G#5,429.667,167/1000,39,165.83
1473,A5,429.833,167/1000,36,165.83
1474,G#5,430.0,167/1000,38,165.83
1475,A5,430.167,167/1000,34,165.83
1476,G#5,430.333,167/1000,37,165.83
1477,A5,430.5,167/1000,35,165.83
1478,G#5,430.667,167/1000,31,165.83
1479,A5,430.833,167/1000,36,165.83
1480,G#5,431.0,0.25,33,165.83
1481,F#5,431.25,0.25,33,165.83
1482,A5,431.5,0.25,37,165.83
1483,G#5,431.75,0.25,33,165.83
1484,F#5,432.0,1.0,35,165.83
1485,A4,432.5,1.0,24,165.83
1486,C#5,432.5,1.0,24,165.83
1487,E4,438.0,2.5,35,165.83
1488,B3,438.5,3.0,26,165.83
1489,G#3,438.5,3.0,26,165.83
1490,F#4,440.5,0.5,35,165.83
1491,E-4,441.0,3.0,35,165.83
1492,F#4,441.0,167/1000,44,165.83
1493,G#4,441.167,167/1000,35,165.83
1494,F#4,441.333,167/1000,40,165.83
1495,G#4,441.5,167/1000,36,165.83
1496,A3,441.5,3.0,28,165.83
1497,C4,441.5,3.0,28,165.83
1498,F#4,441.667,167/1000,39,165.83
1499,G#4,441.833,167/1000,36,165.83
1500,F#4,442.0,167/1000,39,165.83
1501,G#4,442.167,167/1000,35,165.83
1502,F#4,442.333,167/1000,39,165.83
1503,G#4,442.5,167/1000,35,165.83
1504,F#4,442.667,167/1000,31,165.83
1505,G#4,442.833,167/1000,36,165.83
1506,F#4,443.0,0.25,33,165.83
1507,E4,443.25,0.25,33,165.83
1508,G#4,443.5,0.25,37,165.83
1509,F#4,443.75,0.25,33,165.83
1510,E4,444.0,1.5,35,165.83
1511,G#3,444.5,1.5,24,165.83
1512,B3,444.5,1.5,24,165.83
1513,A3,445.5,3.0,48,165.83
1514,C#4,445.5,3.0,48,165.83
1515,A4,445.5,3.0,48,165.83
1516,F#2,446.0,3.0,44,165.83
1517,F#4,448.5,1.25,44,165.83
1518,A3,448.5,1.5,36,165.83
1519,C#4,448.5,1.5,36,165.83
1520,A2,449.0,1.5,40,165.83
1521,G#4,449.75,0.25,39,165.83
1522,E4,450.0,3.0,37,165.83
1523,G#3,450.0,3.0,37,165.83
1524,B3,450.0,3.0,37,165.83
1525,B2,450.5,3.0,35,165.83
1526,E-4,453.0,3.0,32,165.83
1527,A3,453.0,3.0,32,165.83
1528,F#3,453.0,3.0,32,165.83
1529,B1,453.5,3.0,30,165.83
1530,E5,456.0,2.5,35,165.83
1531,B4,456.5,3.0,26,165.83
1532,G#4,456.5,3.0,26,165.83
1533,F#5,458.5,0.5,35,165.83
1534,F#5,459.0,167/1000,36,165.83
1535,E-5,459.0,3.0,29,165.83
1536,G#5,459.167,167/1000,33,165.83
1537,F#5,459.333,167/1000,36,165.83
1538,G#5,459.5,167/1000,34,165.83
1539,A4,459.5,3.0,28,165.83
1540,C5,459.5,3.0,28,165.83
1541,F#5,459.667,167/1000,36,165.83
1542,G#5,459.833,167/1000,34,165.83
1543,F#5,460.0,167/1000,36,165.83
1544,G#5,460.167,167/1000,32,165.83
1545,F#5,460.333,167/1000,36,165.83
1546,G#5,460.5,167/1000,33,165.83
1547,F#5,460.667,167/1000,30,165.83
1548,G#5,460.833,167/1000,34,165.83
1549,F#5,461.0,0.25,31,165.83
1550,E5,461.25,0.25,33,165.83
1551,G#5,461.5,0.25,37,165.83
1552,F#5,461.75,0.25,33,165.83
1553,E5,462.0,1.5,35,165.83
1554,G#4,462.5,1.5,24,165.83
1555,B4,462.5,1.5,24,165.83
1556,A4,463.5,3.0,48,165.83
1557,C#5,463.5,3.0,48,165.83
1558,A5,463.5,3.0,48,165.83
1559,F#4,464.0,3.0,41,165.83
1560,F#3,464.0,3.0,41,165.83
1561,F#5,466.5,1.25,44,165.83
1562,A4,466.5,1.5,36,165.83
1563,C#5,466.5,1.5,36,165.83
1564,A3,467.0,1.5,40,165.83
1565,G#5,467.75,0.25,39,165.83
1566,G#4,468.0,3.0,37,165.83
1567,E5,468.0,3.0,37,165.83
1568,B4,468.0,3.0,37,165.83
1569,B3,468.5,3.0,35,165.83
1570,E-5,471.0,1.0,32,165.83
1571,A4,471.0,1.0,32,165.83
1572,F#4,471.0,1.0,32,165.83
1573,B2,471.5,1.0,30,165.83
1574,B2,473.0,1.25,83,165.83
1575,B4,474.0,0.25,70,165.83
1576,G4,474.25,0.25,61,165.83
1577,G2,474.25,0.25,75,165.83
1578,B4,474.5,0.25,70,165.83
1579,E2,474.5,4.5,80,165.83
1580,G4,474.75,0.25,60,165.83
1581,B4,475.0,0.25,70,165.83
1582,G4,475.25,0.25,61,165.83
1583,B4,475.5,0.25,70,165.83
1584,G4,475.75,0.25,60,165.83
1585,B4,476.0,0.25,70,165.83
1586,G4,476.25,0.25,60,165.83
1587,B4,476.5,0.25,70,165.83
1588,G4,476.75,0.25,59,165.83
1589,B4,477.0,0.25,70,165.83
1590,G4,477.25,0.25,61,165.83
1591,B4,477.5,0.25,70,165.83
1592,G4,477.75,0.25,60,165.83
1593,B4,478.0,0.25,70,165.83
1594,G4,478.25,0.25,61,165.83
1595,B4,478.5,0.25,70,165.83
1596,G4,478.75,0.25,60,165.83
1597,B4,479.0,0.25,70,165.83
1598,G2,479.0,1.25,81,165.83
1599,G4,479.25,0.25,60,165.83
1600,B4,479.5,0.25,70,165.83
1601,G4,479.75,0.25,59,165.83
1602,B4,480.0,0.25,70,165.83
1603,G4,480.25,0.25,61,165.83
1604,B2,480.25,0.25,73,165.83
1605,B4,480.5,0.25,70,165.83
1606,E3,480.5,1.5,81,165.83
1607,G4,480.75,0.25,60,165.83
1608,B4,481.0,0.25,70,165.83
1609,G4,481.25,0.25,61,165.83
1610,B4,481.5,0.25,70,165.83
1611,G4,481.75,0.25,60,165.83
1612,B4,482.0,0.25,70,165.83
1613,G3,482.0,1.25,83,165.83
1614,G4,482.25,0.25,60,165.83
1615,B4,482.5,0.25,70,165.83
1616,G4,482.75,0.25,59,165.83
1617,B4,483.0,0.25,70,165.83
1618,G4,483.25,0.25,61,165.83
1619,B3,483.25,0.25,73,165.83
1620,B4,483.5,0.25,70,165.83
1621,E4,483.5,1.5,82,165.83
1622,G4,483.75,0.25,60,165.83
1623,B4,484.0,0.25,70,165.83
1624,G4,484.25,0.25,61,165.83
1625,B4,484.5,0.25,70,165.83
1626,G4,484.75,0.25,60,165.83
1627,B4,485.0,0.25,70,165.83
1628,E4,485.0,1.5,79,165.83
1629,G4,485.25,0.25,60,165.83
1630,B4,485.5,0.25,70,165.83
1631,G4,485.75,0.25,59,165.83
1632,F4,486.0,3/10,83,165.83
1633,G4,486.3,3/10,67,165.83
1634,B4,486.6,3/10,70,165.83
1635,G4,486.9,3/10,68,165.83
1636,F4,487.2,3/10,68,165.83
1637,D4,487.5,3/10,81,165.83
1638,F4,487.8,3/10,67,165.83
1639,G4,488.1,3/10,70,165.83
1640,F4,488.4,3/10,68,165.83
1641,D4,488.7,3/10,68,165.83
1642,B3,489.0,3/10,77,165.83
1643,D4,489.3,3/10,62,165.83
1644,F4,489.6,3/10,67,165.83
1645,D4,489.9,3/10,63,165.83
1646,B3,490.2,3/10,63,165.83
1647,B4,490.5,1.25,89,165.83
1648,G3,491.0,3/10,70,165.83
1649,B3,491.3,3/10,59,165.83
1650,D4,491.6,3/10,62,165.83
1651,D5,491.75,0.25,80,165.83
1652,B3,491.9,3/10,60,165.83
1653,G5,492.0,1.5,89,165.83
1654,G3,492.2,3/10,60,165.83
1655,F3,492.5,3/10,70,165.83
1656,G3,492.8,3/10,59,165.83
1657,B3,493.1,3/10,62,165.83
1658,G3,493.4,3/10,60,165.83
1659,B5,493.5,1.25,91,165.83
1660,F3,493.7,3/10,60,165.83
1661,D3,494.0,3/10,70,165.83
1662,F3,494.3,3/10,59,165.83
1663,G3,494.6,3/10,62,165.83
1664,D6,494.75,0.25,80,165.83
1665,F3,494.9,3/10,60,165.83
1666,G5,495.0,1.5,86,165.83
1667,G6,495.0,1.5,86,165.83
1668,D3,495.2,3/10,60,165.83
1669,B2,495.5,0.25,70,165.83
1670,D3,495.75,0.25,59,165.83
1671,F3,496.0,0.25,60,165.83
1672,D3,496.25,0.25,66,165.83
1673,B2,496.5,0.25,59,165.83
1674,G6,496.5,1.5,82,165.83
1675,G5,496.5,1.5,82,165.83
1676,G2,496.75,0.25,60,165.83
1677,F2,497.0,0.25,70,165.83
1678,G2,497.25,0.25,60,165.83
1679,B2,497.5,0.25,60,165.83
1680,G2,497.75,0.25,66,165.83
1681,F2,498.0,0.25,66,165.83
1682,G5,498.0,3/10,91,165.83
1683,G6,498.0,3/10,91,165.83
1684,D2,498.25,0.25,60,165.83
1685,E-6,498.3,3/10,73,165.83
1686,C2,498.5,4.5,80,165.83
1687,G6,498.6,3/10,77,165.83
1688,E-6,498.9,3/10,74,165.83
1689,C6,499.2,3/10,74,165.83
1690,G5,499.5,3/10,91,165.83
1691,C6,499.8,3/10,73,165.83
1692,E-6,500.1,3/10,77,165.83
1693,C6,500.4,3/10,74,165.83
1694,G5,500.7,3/10,74,165.83
1695,E-5,501.0,3/10,91,165.83
1696,G5,501.3,3/10,73,165.83
1697,C6,501.6,3/10,77,165.83
1698,G5,501.9,3/10,74,165.83
1699,E-5,502.2,3/10,74,165.83
1700,C5,502.5,3/10,91,165.83
1701,E-5,502.8,3/10,73,165.83
1702,E-2,503.0,1.25,81,165.83
1703,G5,503.1,3/10,77,165.83
1704,E-5,503.4,3/10,74,165.83
1705,C5,503.7,3/10,74,165.83
1706,G4,504.0,3/10,91,165.83
1707,G2,504.25,0.25,73,165.83
1708,C5,504.3,3/10,73,165.83
1709,C3,504.5,1.5,81,165.83
1710,E-5,504.6,3/10,77,165.83
1711,C5,504.9,3/10,74,165.83
1712,G4,505.2,3/10,74,165.83
1713,E-4,505.5,3/10,91,165.83
1714,G4,505.8,3/10,73,165.83
1715,E-3,506.0,1.25,83,165.83
1716,C5,506.1,3/10,77,165.83
1717,G4,506.4,3/10,74,165.83
1718,E-4,506.7,3/10,74,165.83
1719,E-4,507.0,3/10,91,165.83
1720,G3,507.25,0.25,73,165.83
1721,G4,507.3,3/10,73,165.83
1722,C4,507.5,1.5,82,165.83
1723,C5,507.6,3/10,77,165.83
1724,G4,507.9,3/10,74,165.83
1725,E-4,508.2,3/10,74,165.83
1726,E-4,508.5,3/10,91,165.83
1727,G4,508.8,3/10,73,165.83
1728,C4,509.0,1.5,79,165.83
1729,C5,509.1,3/10,77,165.83
1730,G4,509.4,3/10,74,165.83
1731,E-4,509.7,3/10,74,165.83
1732,C#4,510.0,3/10,83,165.83
1733,E-4,510.3,3/10,67,165.83
1734,G4,510.6,3/10,70,165.83
1735,E-4,510.9,3/10,68,165.83
1736,C#4,511.2,3/10,68,165.83
1737,B-3,511.5,3/10,81,165.83
1738,C#4,511.8,3/10,67,165.83
1739,E-4,512.1,3/10,70,165.83
1740,C#4,512.4,3/10,68,165.83
1741,B-3,512.7,3/10,68,165.83
1742,G3,513.0,3/10,77,165.83
1743,B-3,513.3,3/10,62,165.83
1744,C#4,513.6,3/10,67,165.83
1745,B-3,513.9,3/10,63,165.83
1746,G3,514.2,3/10,63,165.83
1747,G4,514.5,1.25,89,165.83
1748,E-3,515.0,3/10,70,165.83
1749,G3,515.3,3/10,59,165.83
1750,B-3,515.6,3/10,62,165.83
1751,B-4,515.75,0.25,80,165.83
1752,G3,515.9,3/10,60,165.83
1753,E-5,516.0,1.5,89,165.83
1754,E-3,516.2,3/10,60,165.83
1755,C#3,516.5,3/10,70,165.83
1756,E-3,516.8,3/10,59,165.83
1757,G3,517.1,3/10,62,165.83
1758,E-3,517.4,3/10,60,165.83
1759,G5,517.5,1.25,91,165.83
1760,C#3,517.7,3/10,60,165.83
1761,B-2,518.0,3/10,70,165.83
1762,C#3,518.3,3/10,59,165.83
1763,E-3,518.6,3/10,62,165.83
1764,B-5,518.75,0.25,80,165.83
1765,C#3,518.9,3/10,60,165.83
1766,E-5,519.0,1.5,86,165.83
1767,E-6,519.0,1.5,86,165.83
1768,B-2,519.2,3/10,60,165.83
1769,G2,519.5,0.25,70,165.83
1770,B-2,519.75,0.25,59,165.83
1771,C#3,520.0,0.25,60,165.83
1772,B-2,520.25,0.25,66,165.83
1773,G2,520.5,0.25,59,165.83
1774,E-5,520.5,1.5,82,165.83
1775,E-6,520.5,1.5,82,165.83
1776,E-2,520.75,0.25,60,165.83
1777,C#2,521.0,0.25,70,165.83
1778,E-2,521.25,0.25,60,165.83
1779,G2,521.5,0.25,60,165.83
1780,E-2,521.75,0.25,66,165.83
1781,E-6,522.0,3/10,100,165.83
1782,C#2,522.0,0.25,66,165.83
1783,B-1,522.25,0.25,60,165.83
1784,G#6,522.3,3/10,80,165.83
1785,G#1,522.5,4.5,80,165.83
1786,C7,522.6,3/10,83,165.83
1787,G#6,522.9,3/10,81,165.83
1788,E-6,523.2,3/10,80,165.83
1789,C6,523.5,3/10,97,165.83
1790,E-6,523.8,3/10,78,165.83
1791,G#6,524.1,3/10,81,165.83
1792,E-6,524.4,3/10,79,165.83
1793,C6,524.7,3/10,75,165.83
1794,G#5,525.0,3/10,95,165.83
1795,C6,525.3,3/10,77,165.83
1796,E-6,525.6,3/10,79,165.83
1797,C6,525.9,3/10,77,165.83
1798,G#5,526.2,3/10,77,165.83
1799,E-5,526.5,3/10,93,165.83
1800,G#5,526.8,3/10,74,165.83
1801,C2,527.0,1.25,81,165.83
1802,C6,527.1,3/10,78,165.83
1803,G#5,527.4,3/10,74,165.83
1804,E-5,527.7,3/10,74,165.83
1805,C5,528.0,3/10,91,165.83
1806,E-2,528.25,0.25,73,165.83
1807,E-5,528.3,3/10,73,165.83
1808,G#2,528.5,1.5,81,165.83
1809,G#5,528.6,3/10,77,165.83
1810,E-5,528.9,3/10,74,165.83
1811,C5,529.2,3/10,74,165.83
1812,G#4,529.5,3/10,91,165.83
1813,C5,529.8,3/10,73,165.83
1814,C3,530.0,1.25,83,165.83
1815,E-5,530.1,3/10,77,165.83
1816,C5,530.4,3/10,74,165.83
1817,G#4,530.7,3/10,74,165.83
1818,E-4,531.0,3/10,91,165.83
1819,E-3,531.25,0.25,73,165.83
1820,G#4,531.3,3/10,73,165.83
1821,G#3,531.5,1.5,82,165.83
1822,C5,531.6,3/10,77,165.83
1823,G#4,531.9,3/10,74,165.83
1824,E-4,532.2,3/10,74,165.83
1825,C4,532.5,3/10,91,165.83
1826,E-4,532.8,3/10,73,165.83
1827,G#3,533.0,1.5,79,165.83
1828,G#4,533.1,3/10,77,165.83
1829,E-4,533.4,3/10,74,165.83
1830,C4,533.7,3/10,74,165.83
1831,F#4,534.0,4.5,83,165.83
1832,A3,534.5,3/10,83,165.83
1833,C4,534.8,3/10,67,165.83
1834,E-4,535.1,3/10,70,165.83
1835,C4,535.4,3/10,68,165.83
1836,A3,535.7,3/10,68,165.83
1837,F#3,536.0,3/10,81,165.83
1838,A3,536.3,3/10,67,165.83
1839,C4,536.6,3/10,70,165.83
1840,A3,536.9,3/10,68,165.83
1841,F#3,537.2,3/10,68,165.83
1842,E-3,537.5,3/10,77,165.83
1843,F#3,537.8,3/10,62,165.83
1844,A3,538.1,3/10,67,165.83
1845,F#3,538.4,3/10,63,165.83
1846,C5,538.5,1.25,89,165.83
1847,E-3,538.7,3/10,63,165.83
1848,C3,539.0,3/10,70,165.83
1849,E-3,539.3,3/10,59,165.83
1850,F#3,539.6,3/10,62,165.83
1851,E-5,539.75,0.25,85,165.83
1852,E-3,539.9,3/10,60,165.83
1853,F#5,540.0,1.5,92,165.83
1854,C3,540.2,3/10,60,165.83
1855,A2,540.5,3/10,70,165.83
1856,C3,540.8,3/10,59,165.83
1857,E-3,541.1,3/10,62,165.83
1858,C3,541.4,3/10,60,165.83
1859,C6,541.5,1.25,95,165.83
1860,A2,541.7,3/10,60,165.83
1861,F#2,542.0,3/10,70,165.83
1862,A2,542.3,3/10,59,165.83
1863,C3,542.6,3/10,62,165.83
1864,E-6,542.75,0.25,84,165.83
1865,A2,542.9,3/10,60,165.83
1866,F#6,543.0,1.5,96,165.83
1867,F#2,543.2,3/10,60,165.83
1868,E-2,543.5,0.25,70,165.83
1869,F#2,543.75,0.25,59,165.83
1870,A2,544.0,0.25,60,165.83
1871,F#2,544.25,0.25,66,165.83
1872,F#6,544.5,1.5,93,165.83
1873,E-2,544.5,0.25,59,165.83
1874,C2,544.75,0.25,60,165.83
1875,A1,545.0,0.25,70,165.83
1876,C2,545.25,0.25,60,165.83
1877,E-2,545.5,0.25,60,165.83
1878,F#2,545.75,0.25,66,165.83
1879,F#6,546.0,2.0,105,165.83
1880,E-2,546.0,0.25,66,165.83
1881,C2,546.25,0.25,60,165.83
1882,G#1,546.5,0.25,70,165.83
1883,C2,546.75,0.25,60,165.83
1884,E-2,547.0,0.25,60,165.83
1885,F#2,547.25,0.25,66,165.83
1886,E-2,547.5,0.25,66,165.83
1887,C2,547.75,0.25,60,165.83
1888,F#6,548.0,0.25,77,165.83
1889,A1,548.0,0.25,70,165.83
1890,E-6,548.25,0.25,76,165.83
1891,C2,548.25,0.25,60,165.83
1892,C6,548.5,0.25,75,165.83
1893,E-2,548.5,0.25,60,165.83
1894,F#5,548.75,0.25,75,165.83
1895,F#2,548.75,0.25,66,165.83
1896,F#6,549.0,2.0,103,165.83
1897,E-2,549.0,0.25,66,165.83
1898,C2,549.25,0.25,60,165.83
1899,G#1,549.5,0.25,70,165.83
1900,C2,549.75,0.25,60,165.83
1901,E-2,550.0,0.25,60,165.83
1902,F#2,550.25,0.25,66,165.83
1903,E-2,550.5,0.25,66,165.83
1904,C2,550.75,0.25,60,165.83
1905,F#5,551.0,0.25,77,165.83
1906,A1,551.0,0.25,70,165.83
1907,E-5,551.25,0.25,76,165.83
1908,C2,551.25,0.25,60,165.83
1909,C5,551.5,0.25,75,165.83
1910,E-2,551.5,0.25,60,165.83
1911,F#4,551.75,0.25,75,165.83
1912,F#2,551.75,0.25,66,165.83
1913,F#5,552.0,2.0,94,165.83
1914,E-2,552.0,0.25,66,165.83
1915,C2,552.25,0.25,60,165.83
1916,G#1,552.5,0.25,70,165.83
1917,C2,552.75,0.25,60,165.83
1918,E-2,553.0,0.25,60,165.83
1919,F#2,553.25,0.25,60,165.83
1920,E-2,553.5,0.25,66,165.83
1921,C2,553.75,0.25,60,165.83
1922,F#4,554.0,0.25,72,165.83
1923,A1,554.0,0.25,70,165.83
1924,E-4,554.25,0.25,71,165.83
1925,C2,554.25,0.25,60,165.83
1926,C4,554.5,0.25,69,165.83
1927,E-2,554.5,0.25,60,165.83
1928,F#3,554.75,0.25,69,165.83
1929,F#2,554.75,0.25,61,165.83
1930,F#4,555.0,0.5,91,165.83
1931,E-2,555.0,0.25,66,165.83
1932,C2,555.25,0.25,60,165.83
1933,F#4,555.5,0.25,74,165.83
1934,G#1,555.5,0.25,70,165.83
1935,E-4,555.75,0.25,70,165.83
1936,C2,555.75,0.25,60,165.83
1937,C4,556.0,0.25,70,165.83
1938,E-2,556.0,0.25,60,165.83
1939,F#3,556.25,0.25,69,165.83
1940,F#2,556.25,0.25,61,165.83
1941,F#4,556.5,0.5,89,165.83
1942,E-2,556.5,0.25,66,165.83
1943,C2,556.75,0.25,60,165.83
1944,F#4,557.0,0.25,74,165.83
1945,A1,557.0,0.25,70,165.83
1946,E-4,557.25,0.25,72,165.83
1947,C2,557.25,0.25,60,165.83
1948,C4,557.5,0.25,72,165.83
1949,E-2,557.5,0.25,60,165.83
1950,F#3,557.75,0.25,71,165.83
1951,F#2,557.75,0.25,60,165.83
1952,F#4,558.0,1.5,84,165.83
1953,E-2,558.0,0.25,66,165.83
1954,C2,558.25,0.25,60,165.83
1955,G#1,558.5,0.5,60,165.83
1956,G#2,558.5,0.5,60,165.83
1957,G#3,559.0,229/500,36,165.83
1958,G#3,559.5,229/500,36,165.83
1959,G#3,560.0,229/500,39,165.83
1960,G#3,560.5,229/500,37,165.83
1961,G#3,561.0,229/500,36,165.83
1962,G#3,561.5,229/500,39,165.83
1963,G#3,562.0,229/500,35,165.83
1964,G#3,562.5,229/500,35,165.83
1965,G#3,563.0,229/500,39,165.83
1966,G#3,563.5,229/500,36,165.83
1967,G#3,564.0,229/500,36,165.83
1968,E-4,564.0,1.5,58,165.83
1969,C4,564.0,1.5,58,165.83
1970,G#3,565.0,229/500,36,165.83
1971,G#3,565.5,229/500,36,165.83
1972,G#3,566.0,229/500,39,165.83
1973,G#3,566.5,229/500,37,165.83
1974,G#3,567.0,229/500,36,165.83
1975,C5,567.0,1.5,59,165.83
1976,E-5,567.0,1.5,59,165.83
1977,F#3,567.5,0.5,39,165.83
1978,G#3,568.0,229/500,35,165.83
1979,G#3,568.5,229/500,35,165.83
1980,G#3,569.0,229/500,39,165.83
1981,G#3,569.5,229/500,36,165.83
1982,G#3,570.0,229/500,36,165.83
1983,F4,570.0,1.5,55,165.83
1984,C#4,570.0,1.5,55,165.83
1985,G#3,571.0,229/500,36,165.83
1986,G#3,571.5,229/500,36,165.83
1987,G#3,572.0,229/500,39,165.83
1988,G#3,572.5,229/500,37,165.83
1989,G#3,573.0,229/500,36,165.83
1990,C#5,573.0,1.5,58,165.83
1991,F5,573.0,1.5,58,165.83
1992,F3,573.5,0.5,39,165.83
1993,G#3,574.0,229/500,35,165.83
1994,G#3,574.5,229/500,35,165.83
1995,G#3,575.0,229/500,39,165.83
1996,G#3,575.5,229/500,36,165.83
1997,G#3,576.0,229/500,36,165.83
1998,C#4,576.0,6.0,61,165.83
1999,B-4,576.0,6.0,61,165.83
2000,F4,576.0,6.0,61,165.83
2001,G#3,577.0,229/500,38,165.83
2002,G#3,577.5,229/500,38,165.83
2003,F3,578.0,0.5,40,165.83
2004,C#3,578.0,0.5,40,165.83
2005,G#3,578.5,229/500,37,165.83
2006,G#3,579.0,229/500,37,165.83
2007,C#3,579.5,0.5,37,165.83
2008,F3,579.5,0.5,37,165.83
2009,G#3,580.0,229/500,37,165.83
2010,G#3,580.5,229/500,37,165.83
2011,C#3,581.0,0.5,37,165.83
2012,F3,581.0,0.5,37,165.83
2013,G#3,581.5,229/500,37,165.83
2014,G#3,582.0,229/500,37,165.83
2015,C4,582.0,1.0,52,165.83
2016,E-4,582.0,1.0,52,165.83
2017,G#4,582.0,1.0,52,165.83
2018,C3,582.5,0.5,39,165.83
2019,E-3,582.5,0.5,39,165.83
2020,G#3,583.0,229/500,37,165.83
2021,G#3,583.5,229/500,37,165.83
2022,G#3,584.0,229/500,38,165.83
2023,G#3,584.5,229/500,37,165.83
2024,G#3,585.0,229/500,37,165.83
2025,G#3,585.5,229/500,37,165.83
2026,G#3,586.0,229/500,37,165.83
2027,G#3,586.5,229/500,37,165.83
2028,C4,586.5,1.25,55,165.83
2029,E-4,586.5,1.25,55,165.83
2030,G#3,587.0,229/500,38,165.83
2031,G#3,587.5,229/500,37,165.83
2032,C4,587.75,0.25,50,165.83
2033,E-4,587.75,0.25,50,165.83
2034,G#3,588.0,229/500,37,165.83
2035,C#4,588.0,1.0,55,165.83
2036,F4,588.0,1.0,55,165.83
2037,G#3,588.5,229/500,39,165.83
2038,G#3,589.0,229/500,37,165.83
2039,C4,589.0,0.5,50,165.83
2040,E-4,589.0,0.5,50,165.83
2041,G#3,589.5,229/500,37,165.83
2042,G#3,590.0,229/500,38,165.83
2043,G#3,590.5,229/500,37,165.83
2044,C5,590.5,0.5,58,165.83
2045,E-5,590.5,0.5,58,165.83
2046,G#3,591.0,229/500,37,165.83
2047,G#3,591.5,229/500,38,165.83
2048,G#3,592.0,229/500,39,165.83
2049,E-6,592.0,0.5,56,165.83
2050,C6,592.0,0.5,56,165.83
2051,F#3,593.0,0.5,44,165.83
2052,E-3,593.0,0.5,44,165.83
2053,G#3,593.5,229/500,37,165.83
2054,C4,593.75,0.25,53,165.83
2055,E-4,593.75,0.25,53,165.83
2056,G#3,594.0,229/500,37,165.83
2057,E-4,594.0,1.0,57,165.83
2058,F#4,594.0,1.0,57,165.83
2059,G#3,594.5,229/500,39,165.83
2060,G#3,595.0,229/500,37,165.83
2061,F4,595.0,0.5,52,165.83
2062,C#4,595.0,0.5,52,165.83
2063,G#3,595.5,229/500,37,165.83
2064,G#3,596.0,229/500,37,165.83
2065,G#3,596.5,229/500,37,165.83
2066,C#5,596.5,0.5,60,165.83
2067,F5,596.5,0.5,60,165.83
2068,G#3,597.0,229/500,37,165.83
2069,G#3,597.5,229/500,38,165.83
2070,G#3,598.0,229/500,37,165.83
2071,F6,598.0,49/100,56,165.83
2072,C#6,598.0,49/100,56,165.83
2073,G#3,598.5,229/500,37,165.83
2074,C#3,599.0,0.5,46,165.83
2075,F3,599.0,0.5,46,165.83
2076,G#3,599.5,229/500,37,165.83
2077,F4,599.75,0.25,52,165.83
2078,C#4,599.75,0.25,52,165.83
2079,G#3,600.0,229/500,37,165.83
2080,C#4,600.0,6.0,61,165.83
2081,F4,600.0,6.0,61,165.83
2082,B-4,600.0,6.0,61,165.83
2083,G#3,601.0,229/500,38,165.83
2084,G#3,601.5,229/500,38,165.83
2085,F3,602.0,0.5,40,165.83
2086,C#3,602.0,0.5,40,165.83
2087,G#3,602.5,229/500,37,165.83
2088,G#3,603.0,229/500,37,165.83
2089,C#3,603.5,0.5,37,165.83
2090,F3,603.5,0.5,37,165.83
2091,G#3,604.0,229/500,37,165.83
2092,G#3,604.5,229/500,37,165.83
2093,C#3,605.0,0.5,36,165.83
2094,F3,605.0,0.5,36,165.83
2095,G#3,605.5,229/500,37,165.83
2096,G#3,606.0,229/500,37,165.83
2097,C4,606.0,1.0,56,165.83
2098,E-4,606.0,1.0,56,165.83
2099,G#4,606.0,1.0,56,165.83
2100,G#3,607.0,229/500,38,165.83
2101,G#3,607.5,229/500,38,165.83
2102,E-3,608.0,0.5,40,165.83
2103,C3,608.0,0.5,40,165.83
2104,G#3,608.5,229/500,37,165.83
2105,G#3,609.0,229/500,37,165.83
2106,C#4,609.0,3.0,52,165.83
2107,E4,609.0,3.0,52,165.83
2108,A4,609.0,3.0,52,165.83
2109,G#3,610.0,229/500,37,165.83
2110,G#3,610.5,229/500,37,165.83
2111,C#3,611.0,0.5,36,165.83
2112,E3,611.0,0.5,36,165.83
2113,G#3,611.5,229/500,37,165.83
2114,G#3,612.0,229/500,37,165.83
2115,C4,612.0,1.0,57,165.83
2116,G#4,612.0,1.0,57,165.83
2117,E-4,612.0,1.0,57,165.83
2118,G#3,613.0,229/500,38,165.83
2119,G#3,613.5,229/500,38,165.83
2120,E-3,614.0,0.5,40,165.83
2121,C3,614.0,0.5,40,165.83
2122,G#3,614.5,229/500,37,165.83
2123,G#3,615.0,229/500,37,165.83
2124,C#5,615.0,3.0,58,165.83
2125,A5,615.0,3.0,58,165.83
2126,E5,615.0,3.0,58,165.83
2127,G#3,616.0,229/500,37,165.83
2128,G#3,616.5,229/500,37,165.83
2129,C#3,617.0,0.5,36,165.83
2130,E3,617.0,0.5,36,165.83
2131,G#3,617.5,229/500,37,165.83
2132,G#3,618.0,229/500,37,165.83
2133,E-5,618.0,1.0,56,165.83
2134,G#5,618.0,1.0,56,165.83
2135,C5,618.0,1.0,56,165.83
2136,G#3,619.0,229/500,37,165.83
2137,G#3,619.5,229/500,36,165.83
2138,E-3,620.0,0.5,38,165.83
2139,C3,620.0,0.5,38,165.83
2140,G#3,620.5,229/500,34,165.83
2141,G#3,621.0,229/500,34,165.83
2142,D4,621.0,1.0,46,165.83
2143,B3,621.0,1.0,46,165.83
2144,G#4,621.0,1.0,46,165.83
2145,G#3,622.0,229/500,32,165.83
2146,G#3,622.5,229/500,32,165.83
2147,B2,623.0,0.5,30,165.83
2148,D3,623.0,0.5,30,165.83
2149,G#3,623.5,229/500,31,165.83
2150,G#3,624.0,229/500,30,165.83
2151,C#4,624.0,1.0,44,165.83
2152,B-3,624.0,1.0,44,165.83
2153,G4,624.0,1.0,44,165.83
2154,G#3,625.0,229/500,31,165.83
2155,G#3,625.5,229/500,30,165.83
2156,C#3,626.0,0.5,32,165.83
2157,B-2,626.0,0.5,32,165.83
2158,G#3,626.5,229/500,28,165.83
2159,G#3,627.0,229/500,28,165.83
2160,A3,627.0,1.0,39,165.83
2161,C4,627.0,1.0,39,165.83
2162,F#4,627.0,1.0,39,165.83
2163,G#3,628.0,229/500,27,165.83
2164,G#3,628.5,229/500,27,165.83
2165,C3,629.0,0.5,25,165.83
2166,A2,629.0,0.5,25,165.83
2167,G#3,629.5,229/500,26,165.83
2168,G#3,630.0,229/500,25,165.83
2169,F#4,630.0,1.0,47,165.83
2170,C4,630.0,1.0,47,165.83
2171,G#3,630.0,1.0,47,165.83
2172,G#2,631.0,1.0,44,165.83
2173,G2,631.5,0.5,39,165.83
2174,G#2,632.0,1.0,44,165.83
2175,B-2,632.5,0.5,41,165.83
2176,E-5,633.0,0.5,67,165.83
2177,G#2,633.0,1.0,45,165.83
2178,F5,633.5,0.5,61,165.83
2179,F#2,633.5,0.5,41,165.83
2180,E-5,634.0,0.5,59,165.83
2181,G#2,634.0,2.5,41,165.83
2182,C#5,634.5,0.5,69,165.83
2183,F#2,634.5,0.5,48,165.83
2184,E-5,635.0,0.5,66,165.83
2185,F2,635.0,0.5,42,165.83
2186,C#5,635.5,0.5,64,165.83
2187,F#2,635.5,0.5,42,165.83
2188,C5,636.0,0.5,70,165.83
2189,F2,636.0,0.5,47,165.83
2190,F#5,636.5,0.5,66,165.83
2191,E-2,636.5,0.5,55,165.83
2192,G#2,637.0,1.0,48,165.83
2193,G2,637.5,0.5,42,165.83
2194,G#2,638.0,1.0,48,165.83
2195,B-2,638.5,0.5,45,165.83
2196,F#5,639.0,0.5,73,165.83
2197,G#2,639.0,3.5,49,165.83
2198,G#5,639.5,0.5,70,165.83
2199,E-2,639.5,0.5,46,165.83
2200,F#5,640.0,0.5,70,165.83
2201,F2,640.0,0.5,46,165.83
2202,F5,640.5,0.5,74,165.83
2203,E-2,640.5,0.5,50,165.83
2204,F#5,641.0,0.5,71,165.83
2205,C#2,641.0,0.5,47,165.83
2206,F5,641.5,0.5,68,165.83
2207,E-2,641.5,0.5,47,165.83
2208,E-5,642.0,0.5,81,165.83
2209,C#2,642.0,0.5,51,165.83
2210,E-6,642.5,0.5,72,165.83
2211,C2,642.5,0.5,57,165.83
2212,G#2,643.0,1.0,52,165.83
2213,G2,643.5,0.5,47,165.83
2214,G#2,644.0,1.0,52,165.83
2215,B-2,644.5,0.5,49,165.83
2216,E-6,645.0,0.5,83,165.83
2217,G#2,645.0,3.5,53,165.83
2218,F6,645.5,0.5,77,165.83
2219,C2,645.5,0.5,50,165.83
2220,E-6,646.0,0.5,73,165.83
2221,C#2,646.0,0.5,50,165.83
2222,C#6,646.5,0.5,77,165.83
2223,C2,646.5,0.5,54,165.83
2224,E-6,647.0,0.5,75,165.83
2225,B-1,647.0,0.5,50,165.83
2226,C#6,647.5,0.5,73,165.83
2227,C2,647.5,0.5,51,165.83
2228,C6,648.0,0.5,76,165.83
2229,B-1,648.0,0.5,51,165.83
2230,C#6,648.5,0.5,75,165.83
2231,G#1,648.5,0.5,55,165.83
2232,C6,649.0,0.5,72,165.83
2233,G1,649.0,0.5,49,165.83
2234,B-5,649.5,0.5,76,165.83
2235,G#1,649.5,0.5,49,165.83
2236,C6,650.0,0.5,73,165.83
2237,B-1,650.0,0.5,53,165.83
2238,B-5,650.5,0.5,69,165.83
2239,G#1,650.5,0.5,46,165.83
2240,G#5,651.0,0.5,74,165.83
2241,B-1,651.0,0.5,45,165.83
2242,B-5,651.5,0.5,70,165.83
2243,B1,651.5,0.5,50,165.83
2244,G#5,652.0,0.5,67,165.83
2245,B-1,652.0,0.5,44,165.83
2246,F#5,652.5,0.5,72,165.83
2247,B1,652.5,0.5,42,165.83
2248,G#5,653.0,0.5,66,165.83
2249,C2,653.0,0.5,47,165.83
2250,F#5,653.5,0.5,63,165.83
2251,B1,653.5,0.5,40,165.83
2252,F5,654.0,1.0,73,165.83
2253,C2,654.0,0.5,40,165.83
2254,C#2,654.5,0.5,36,165.83
2255,C#3,655.0,0.5,28,165.83
2256,F2,655.0,0.5,28,165.83
2257,G#2,655.0,0.5,28,165.83
2258,C#2,655.5,0.5,33,165.83
2259,C#3,656.0,0.5,31,165.83
2260,F2,656.0,0.5,31,165.83
2261,G#2,656.0,0.5,31,165.83
2262,C#2,656.5,0.5,33,165.83
2263,C#3,657.0,0.5,28,165.83
2264,G#2,657.0,0.5,28,165.83
2265,F2,657.0,0.5,28,165.83
2266,C#2,657.5,0.5,36,165.83
2267,C#3,658.0,0.5,28,165.83
2268,F2,658.0,0.5,28,165.83
2269,G#2,658.0,0.5,28,165.83
2270,C#2,658.5,0.5,33,165.83
2271,F4,658.5,1.25,50,165.83
2272,F3,658.5,1.25,50,165.83
2273,G#2,659.0,0.5,31,165.83
2274,F2,659.0,0.5,31,165.83
2275,C#3,659.0,0.5,31,165.83
2276,C#2,659.5,0.5,33,165.83
2277,G#4,659.75,0.25,44,165.83
2278,G#3,659.75,0.25,44,165.83
2279,C#5,660.0,1.5,51,165.83
2280,C#4,660.0,1.5,51,165.83
2281,C#3,660.0,0.5,30,165.83
2282,F2,660.0,0.5,30,165.83
2283,G#2,660.0,0.5,30,165.83
2284,C#2,660.5,0.5,36,165.83
2285,C#3,661.0,0.5,28,165.83
2286,G#2,661.0,0.5,28,165.83
2287,F2,661.0,0.5,28,165.83
2288,C#2,661.5,0.5,33,165.83
2289,F5,661.5,1.25,54,165.83
2290,F4,661.5,1.25,54,165.83
2291,C#3,662.0,0.5,31,165.83
2292,G#2,662.0,0.5,31,165.83
2293,F2,662.0,0.5,31,165.83
2294,C#2,662.5,0.5,33,165.83
2295,C#5,662.75,0.25,48,165.83
2296,C#4,662.75,0.25,48,165.83
2297,C5,663.0,1.5,51,165.83
2298,C4,663.0,1.5,51,165.83
2299,F2,663.0,0.5,28,165.83
2300,C#3,663.0,0.5,28,165.83
2301,G#2,663.0,0.5,28,165.83
2302,E-2,663.5,0.5,36,165.83
2303,E-3,664.0,0.5,28,165.83
2304,F#2,664.0,0.5,28,165.83
2305,G#2,664.0,0.5,28,165.83
2306,E-2,664.5,0.5,33,165.83
2307,E-4,664.5,1.25,54,165.83
2308,E-5,664.5,1.25,54,165.83
2309,G#2,665.0,0.5,31,165.83
2310,F#2,665.0,0.5,31,165.83
2311,E-3,665.0,0.5,31,165.83
2312,E-2,665.5,0.5,33,165.83
2313,C4,665.75,0.25,48,165.83
2314,C5,665.75,0.25,48,165.83
2315,C#5,666.0,1.5,51,165.83
2316,C#4,666.0,1.5,51,165.83
2317,F#2,666.0,0.5,30,165.83
2318,G#2,666.0,0.5,30,165.83
2319,E-3,666.0,0.5,30,165.83
2320,F2,666.5,0.5,36,165.83
2321,G#2,667.0,0.5,28,165.83
2322,F3,667.0,0.5,28,165.83
2323,C#3,667.0,0.5,28,165.83
2324,F2,667.5,0.5,33,165.83
2325,G#3,667.5,3.0,52,165.83
2326,G#4,667.5,3.0,52,165.83
2327,F3,668.0,0.5,31,165.83
2328,C#3,668.0,0.5,31,165.83
2329,G#2,668.0,0.5,31,165.83
2330,F2,668.5,0.5,33,165.83
2331,G#2,669.0,0.5,28,165.83
2332,F3,669.0,0.5,28,165.83
2333,C#3,669.0,0.5,28,165.83
2334,F2,669.5,0.5,36,165.83
2335,F3,670.0,0.5,28,165.83
2336,G#2,670.0,0.5,28,165.83
2337,C#3,670.0,0.5,28,165.83
2338,F2,670.5,0.5,33,165.83
2339,B-3,670.5,1.25,54,165.83
2340,B-4,670.5,1.25,54,165.83
2341,C#3,671.0,0.5,31,165.83
2342,F#3,671.0,0.5,31,165.83
2343,E-3,671.0,0.5,31,165.83
2344,F#2,671.5,0.5,33,165.83
2345,F#4,671.75,0.25,53,165.83
2346,F4,672.0,1.5,59,165.83
2347,C#3,672.0,0.5,30,165.83
2348,F#3,672.0,0.5,30,165.83
2349,E-3,672.0,0.5,30,165.83
2350,G#2,672.5,0.5,37,165.83
2351,C#3,673.0,0.5,29,165.83
2352,G#3,673.0,0.5,29,165.83
2353,F3,673.0,0.5,29,165.83
2354,G#4,673.5,1.25,61,165.83
2355,G#2,673.5,0.5,34,165.83
2356,C#3,674.0,0.5,33,165.83
2357,G#3,674.0,0.5,33,165.83
2358,F3,674.0,0.5,33,165.83
2359,G#2,674.5,0.5,34,165.83
2360,F4,674.75,0.25,55,165.83
2361,E-4,675.0,1.5,63,165.83
2362,C#3,675.0,0.5,30,165.83
2363,G#3,675.0,0.5,30,165.83
2364,F3,675.0,0.5,30,165.83
2365,G#2,675.5,0.5,40,165.83
2366,C3,676.0,0.5,31,165.83
2367,G#3,676.0,0.5,31,165.83
2368,E-3,676.0,0.5,31,165.83
2369,F#4,676.5,1.25,66,165.83
2370,G#2,676.5,0.5,36,165.83
2371,C3,677.0,0.5,35,165.83
2372,G#3,677.0,0.5,35,165.83
2373,E-3,677.0,0.5,35,165.83
2374,G#2,677.5,0.5,37,165.83
2375,E-4,677.75,0.25,59,165.83
2376,C4,678.0,1.5,72,165.83
2377,C3,678.0,0.5,32,165.83
2378,G#3,678.0,0.5,32,165.83
2379,E-3,678.0,0.5,32,165.83
2380,A2,678.5,0.5,51,165.83
2381,C3,679.0,0.5,36,165.83
2382,F3,679.0,0.5,36,165.83
2383,A3,679.0,0.5,36,165.83
2384,F4,679.5,3.0,63,165.83
2385,A2,679.5,0.5,45,165.83
2386,C3,680.0,0.5,32,165.83
2387,F3,680.0,0.5,32,165.83
2388,A3,680.0,0.5,32,165.83
2389,A2,680.5,0.5,36,165.83
2390,C3,681.0,0.5,31,165.83
2391,F3,681.0,0.5,31,165.83
2392,A3,681.0,0.5,31,165.83
2393,A2,681.5,0.5,39,165.83
2394,C3,682.0,0.5,31,165.83
2395,F3,682.0,0.5,31,165.83
2396,A3,682.0,0.5,31,165.83
2397,A2,682.5,0.5,39,165.83
2398,C#5,682.5,1.25,58,165.83
2399,C#4,682.5,1.25,58,165.83
2400,F3,683.0,0.5,30,165.83
2401,B-3,683.0,0.5,30,165.83
2402,C#3,683.0,0.5,30,165.83
2403,B-2,683.5,0.5,33,165.83
2404,F5,683.75,0.25,56,165.83
2405,F4,683.75,0.25,56,165.83
2406,B-5,684.0,1.5,56,165.83
2407,B-4,684.0,1.5,56,165.83
2408,C#3,684.0,0.5,29,165.83
2409,F3,684.0,0.5,29,165.83
2410,B-3,684.0,0.5,29,165.83
2411,B-2,684.5,0.5,37,165.83
2412,C#3,685.0,0.5,29,165.83
2413,F3,685.0,0.5,29,165.83
2414,B-3,685.0,0.5,29,165.83
2415,B-2,685.5,0.5,36,165.83
2416,C#6,685.5,1.25,60,165.83
2417,C#5,685.5,1.25,60,165.83
2418,C#3,686.0,0.5,33,165.83
2419,F3,686.0,0.5,33,165.83
2420,B-3,686.0,0.5,33,165.83
2421,B-2,686.5,0.5,37,165.83
2422,B-4,686.75,0.25,56,165.83
2423,B-5,686.75,0.25,56,165.83
2424,A5,687.0,1.5,59,165.83
2425,A4,687.0,1.5,59,165.83
2426,F3,687.0,0.5,32,165.83
2427,B-3,687.0,0.5,32,165.83
2428,C#3,687.0,0.5,32,165.83
2429,C3,687.5,0.5,40,165.83
2430,E-3,688.0,0.5,32,165.83
2431,F3,688.0,0.5,32,165.83
2432,C4,688.0,0.5,32,165.83
2433,C3,688.5,0.5,39,165.83
2434,C5,688.5,1.25,62,165.83
2435,C6,688.5,1.25,62,165.83
2436,E-3,689.0,0.5,37,165.83
2437,C4,689.0,0.5,37,165.83
2438,F3,689.0,0.5,37,165.83
2439,C3,689.5,0.5,40,165.83
2440,A4,689.75,0.25,60,165.83
2441,A5,689.75,0.25,60,165.83
2442,B-4,690.0,1.5,54,165.83
2443,B-5,690.0,1.5,54,165.83
2444,F3,690.0,0.5,36,165.83
2445,C4,690.0,0.5,36,165.83
2446,E-3,690.0,0.5,36,165.83
2447,C#3,690.5,0.5,37,165.83
2448,F3,691.0,0.5,29,165.83
2449,B-3,691.0,0.5,29,165.83
2450,C#4,691.0,0.5,29,165.83
2451,C#3,691.5,0.5,36,165.83
2452,F5,691.5,3.0,52,165.83
2453,F4,691.5,3.0,52,165.83
2454,F3,692.0,0.5,33,165.83
2455,B-3,692.0,0.5,33,165.83
2456,C#4,692.0,0.5,33,165.83
2457,C#3,692.5,0.5,37,165.83
2458,B-3,693.0,0.5,32,165.83
2459,C#4,693.0,0.5,32,165.83
2460,F3,693.0,0.5,32,165.83
2461,C#3,693.5,0.5,40,165.83
2462,F3,694.0,0.5,32,165.83
2463,B-3,694.0,0.5,32,165.83
2464,C#4,694.0,0.5,32,165.83
2465,F#5,694.5,1.25,68,165.83
2466,F#4,694.5,1.5,62,165.83
2467,C#3,694.5,0.5,39,165.83
2468,F#3,695.0,0.5,31,165.83
2469,E-4,695.0,0.5,31,165.83
2470,B-3,695.0,0.5,31,165.83
2471,E-3,695.5,0.5,33,165.83
2472,E-5,695.75,0.25,63,165.83
2473,C#5,696.0,1.5,70,165.83
2474,F#3,696.0,0.5,30,165.83
2475,E-4,696.0,0.5,30,165.83
2476,B-3,696.0,0.5,30,165.83
2477,F3,696.5,0.5,37,165.83
2478,B-3,697.0,0.5,29,165.83
2479,F4,697.0,0.5,29,165.83
2480,C#4,697.0,0.5,29,165.83
2481,F5,697.5,1.25,67,165.83
2482,F3,697.5,0.5,34,165.83
2483,B-3,698.0,0.5,33,165.83
2484,F4,698.0,0.5,33,165.83
2485,C#4,698.0,0.5,33,165.83
2486,F3,698.5,0.5,34,165.83
2487,C#5,698.75,0.25,61,165.83
2488,C5,699.0,1.5,70,165.83
2489,C#4,699.0,0.5,30,165.83
2490,F4,699.0,0.5,30,165.83
2491,B-3,699.0,0.5,30,165.83
2492,F3,699.5,0.5,40,165.83
2493,C4,700.0,0.5,32,165.83
2494,A3,700.0,0.5,32,165.83
2495,E-4,700.0,0.5,32,165.83
2496,E-5,700.5,1.25,71,165.83
2497,F3,700.5,0.5,37,165.83
2498,C4,701.0,0.5,36,165.83
2499,A3,701.0,0.5,36,165.83
2500,E-4,701.0,0.5,36,165.83
2501,F3,701.5,0.5,38,165.83
2502,C5,701.75,0.25,67,165.83
2503,B-4,702.0,1.5,78,165.83
2504,C4,702.0,0.5,33,165.83
2505,A3,702.0,0.5,33,165.83
2506,E-4,702.0,0.5,33,165.83
2507,F#3,702.5,0.5,53,165.83
2508,F#4,703.0,0.5,37,165.83
2509,C#4,703.0,0.5,37,165.83
2510,B-3,703.0,0.5,37,165.83
2511,C#5,703.5,3.0,73,165.83
2512,F#3,703.5,0.5,47,165.83
2513,F#4,704.0,0.5,39,165.83
2514,C#4,704.0,0.5,39,165.83
2515,B-3,704.0,0.5,39,165.83
2516,F#3,704.5,0.5,43,165.83
2517,F#4,705.0,0.5,38,165.83
2518,C#4,705.0,0.5,38,165.83
2519,B-3,705.0,0.5,38,165.83
2520,F#3,705.5,0.5,47,165.83
2521,F#4,706.0,0.5,37,165.83
2522,C#4,706.0,0.5,37,165.83
2523,B-3,706.0,0.5,37,165.83
2524,F#3,706.5,0.5,47,165.83
2525,B-4,706.5,1.25,76,165.83
2526,B-5,706.5,1.25,76,165.83
2527,B-3,707.0,0.5,39,165.83
2528,C#4,707.0,0.5,39,165.83
2529,F#4,707.0,0.5,39,165.83
2530,F#3,707.5,0.5,42,165.83
2531,C#6,707.75,0.25,72,165.83
2532,C#5,707.75,0.25,72,165.83
2533,F#5,708.0,1.5,76,165.83
2534,F#6,708.0,1.5,76,165.83
2535,F#4,708.0,0.5,38,165.83
2536,B-3,708.0,0.5,38,165.83
2537,C#4,708.0,0.5,38,165.83
2538,F#3,708.5,0.5,48,165.83
2539,F#4,709.0,0.5,38,165.83
2540,C#4,709.0,0.5,38,165.83
2541,B-3,709.0,0.5,38,165.83
2542,F#3,709.5,0.5,47,165.83
2543,B-5,709.5,1.25,78,165.83
2544,B-6,709.5,1.25,78,165.83
2545,F#4,710.0,0.5,43,165.83
2546,C#4,710.0,0.5,43,165.83
2547,B-3,710.0,0.5,43,165.83
2548,F#3,710.5,0.5,48,165.83
2549,F#6,710.75,0.25,72,165.83
2550,F#5,710.75,0.25,72,165.83
2551,F5,711.0,1.5,77,165.83
2552,F6,711.0,1.5,77,165.83
2553,B-3,711.0,0.5,41,165.83
2554,F#4,711.0,0.5,41,165.83
2555,C#4,711.0,0.5,41,165.83
2556,G#3,711.5,0.5,52,165.83
2557,G#4,712.0,0.5,41,165.83
2558,B3,712.0,0.5,41,165.83
2559,C#4,712.0,0.5,41,165.83
2560,G#3,712.5,0.5,50,165.83
2561,G#5,712.5,1.25,81,165.83
2562,G#6,712.5,1.25,81,165.83
2563,C#4,713.0,0.5,48,165.83
2564,G#4,713.0,0.5,48,165.83
2565,B3,713.0,0.5,48,165.83
2566,G#3,713.5,0.5,52,165.83
2567,F5,713.75,0.25,78,165.83
2568,F6,713.75,0.25,78,165.83
2569,F#5,714.0,1.5,84,165.83
2570,F#6,714.0,1.5,84,165.83
2571,B3,714.0,0.5,46,165.83
2572,G#4,714.0,0.5,46,165.83
2573,C#4,714.0,0.5,46,165.83
2574,B-3,714.5,0.5,48,165.83
2575,B-4,715.0,0.5,38,165.83
2576,C#4,715.0,0.5,38,165.83
2577,F#4,715.0,0.5,38,165.83
2578,B-3,715.5,0.5,47,165.83
2579,C#5,715.5,4.5,74,165.83
2580,C#6,715.5,4.5,74,165.83
2581,B-4,716.0,0.5,36,165.83
2582,C#4,716.0,0.5,36,165.83
2583,F#4,716.0,0.5,36,165.83
2584,B-3,716.5,0.5,40,165.83
2585,C#4,717.0,0.5,37,165.83
2586,F#4,717.0,0.5,37,165.83
2587,B-4,717.0,0.5,37,165.83
2588,B-3,717.5,0.5,50,165.83
2589,B-4,718.0,0.5,41,165.83
2590,F#4,718.0,0.5,41,165.83
2591,C#4,718.0,0.5,41,165.83
2592,B-3,718.5,0.5,52,165.83
2593,F#4,719.0,0.5,42,165.83
2594,B-4,719.0,0.5,42,165.83
2595,C#4,719.0,0.5,42,165.83
2596,B-3,719.5,0.5,48,165.83
2597,F#6,720.0,1.5,84,165.83
2598,F#5,720.0,1.5,84,165.83
2599,F#4,720.0,0.5,46,165.83
2600,B-4,720.0,0.5,46,165.83
2601,C#4,720.0,0.5,46,165.83
2602,B3,720.5,0.5,57,165.83
2603,B4,721.0,0.5,38,165.83
2604,D4,721.0,0.5,38,165.83
2605,F#4,721.0,0.5,38,165.83
2606,B3,721.5,0.5,47,165.83
2607,D6,721.5,4.5,76,165.83
2608,D5,721.5,4.5,76,165.83
2609,B4,722.0,0.5,36,165.83
2610,D4,722.0,0.5,36,165.83
2611,F#4,722.0,0.5,36,165.83
2612,B3,722.5,0.5,40,165.83
2613,D4,723.0,0.5,37,165.83
2614,F#4,723.0,0.5,37,165.83
2615,B4,723.0,0.5,37,165.83
2616,B3,723.5,0.5,50,165.83
2617,B4,724.0,0.5,41,165.83
2618,F#4,724.0,0.5,41,165.83
2619,D4,724.0,0.5,41,165.83
2620,B3,724.5,0.5,53,165.83
2621,F#4,725.0,0.5,43,165.83
2622,B4,725.0,0.5,43,165.83
2623,D4,725.0,0.5,43,165.83
2624,B3,725.5,0.5,49,165.83
2625,G5,726.0,1.5,96,165.83
2626,G6,726.0,1.5,96,165.83
2627,F#4,726.0,0.5,47,165.83
2628,B4,726.0,0.5,47,165.83
2629,D4,726.0,0.5,47,165.83
2630,B3,726.5,0.5,60,165.83
2631,D4,727.0,0.5,39,165.83
2632,G4,727.0,0.5,39,165.83
2633,B4,727.0,0.5,39,165.83
2634,B3,727.5,0.5,49,165.83
2635,D5,727.5,4.5,82,165.83
2636,D6,727.5,4.5,82,165.83
2637,D4,728.0,0.5,38,165.83
2638,G4,728.0,0.5,38,165.83
2639,B4,728.0,0.5,38,165.83
2640,B3,728.5,0.5,42,165.83
2641,G4,729.0,0.5,39,165.83
2642,B4,729.0,0.5,39,165.83
2643,D4,729.0,0.5,39,165.83
2644,B3,729.5,0.5,53,165.83
2645,D4,730.0,0.5,43,165.83
2646,G4,730.0,0.5,43,165.83
2647,B4,730.0,0.5,43,165.83
2648,B3,730.5,0.5,56,165.83
2649,D4,731.0,0.5,45,165.83
2650,B4,731.0,0.5,45,165.83
2651,G4,731.0,0.5,45,165.83
2652,B3,731.5,0.5,51,165.83
2653,G5,732.0,1.5,102,165.83
2654,G6,732.0,1.5,102,165.83
2655,D4,732.0,0.5,49,165.83
2656,B4,732.0,0.5,49,165.83
2657,G4,732.0,0.5,49,165.83
2658,C4,732.5,0.5,64,165.83
2659,E4,733.0,0.5,41,165.83
2660,G4,733.0,0.5,41,165.83
2661,C5,733.0,0.5,41,165.83
2662,C4,733.5,0.5,51,165.83
2663,E6,733.5,4.5,87,165.83
2664,E5,733.5,4.5,87,165.83
2665,E4,734.0,0.5,41,165.83
2666,G4,734.0,0.5,41,165.83
2667,C5,734.0,0.5,41,165.83
2668,C4,734.5,0.5,47,165.83
2669,G4,735.0,0.5,41,165.83
2670,C5,735.0,0.5,41,165.83
2671,E4,735.0,0.5,41,165.83
2672,C4,735.5,0.5,57,165.83
2673,E4,736.0,0.5,46,165.83
2674,G4,736.0,0.5,46,165.83
2675,C5,736.0,0.5,46,165.83
2676,C4,736.5,0.5,59,165.83
2677,E4,737.0,0.5,49,165.83
2678,C5,737.0,0.5,49,165.83
2679,G4,737.0,0.5,49,165.83
2680,C4,737.5,0.5,55,165.83
2681,E4,738.0,0.5,52,165.83
2682,C5,738.0,0.5,52,165.83
2683,G4,738.0,0.5,52,165.83
2684,C#4,738.5,3.0,102,165.83
2685,E4,738.75,2.75,78,165.83
2686,G4,739.0,2.5,78,165.83
2687,B-4,739.25,2.25,78,165.83
2688,G5,739.5,1.25,75,165.83
2689,C#5,739.5,2.0,78,165.83
2690,B-5,739.75,0.75,71,165.83
2691,C#6,740.0,0.25,70,165.83
2692,E6,740.25,0.5,70,165.83
2693,G6,740.5,0.25,73,165.83
2694,G5,740.75,0.25,71,165.83
2695,E4,741.5,3.0,101,165.83
2696,G4,741.75,2.75,78,165.83
2697,B-4,742.0,2.5,78,165.83
2698,C#5,742.25,2.25,78,165.83
2699,G5,742.5,1.25,77,165.83
2700,E5,742.5,2.0,79,165.83
2701,B-5,742.75,0.75,72,165.83
2702,C#6,743.0,0.25,72,165.83
2703,E6,743.25,0.5,70,165.83
2704,G6,743.5,0.25,74,165.83
2705,G5,743.75,0.25,72,165.83
2706,G4,744.5,3.0,101,165.83
2707,B-4,744.75,2.75,84,165.83
2708,C#5,745.0,2.5,84,165.83
2709,E5,745.25,2.25,84,165.83
2710,G5,745.5,1.25,77,165.83
2711,B-5,745.75,0.75,71,165.83
2712,C#6,746.0,0.25,71,165.83
2713,E6,746.25,0.5,70,165.83
2714,G6,746.5,0.25,76,165.83
2715,G5,746.75,0.25,71,165.83
2716,B-4,747.5,3.0,100,165.83
2717,C#5,747.75,2.75,84,165.83
2718,E5,748.0,2.5,86,165.83
2719,G5,748.5,1.25,77,165.83
2720,B-5,748.75,0.75,71,165.83
2721,C#6,749.0,0.25,73,165.83
2722,E6,749.25,0.5,70,165.83
2723,G6,749.5,0.25,76,165.83
2724,G5,749.75,0.25,71,165.83
2725,B-5,750.5,1.0,77,165.83
2726,C#5,750.5,1.5,96,165.83
2727,C#6,750.75,0.75,71,165.83
2728,E5,750.75,1.25,84,165.83
2729,E6,751.0,0.25,74,165.83
2730,G5,751.0,1.0,84,165.83
2731,G6,751.25,0.25,70,165.83
2732,C#6,752.0,1.0,77,165.83
2733,E5,752.0,1.5,98,165.83
2734,E6,752.25,0.75,72,165.83
2735,G5,752.25,1.25,84,165.83
2736,G6,752.5,0.25,74,165.83
2737,B-5,752.5,1.0,84,165.83
2738,B-6,752.75,0.25,70,165.83
2739,G5,753.5,0.25,100,165.83
2740,E6,753.75,0.25,73,165.83
2741,B-5,753.75,0.25,84,165.83
2742,G6,754.0,0.25,74,165.83
2743,C#6,754.0,0.25,84,165.83
2744,B-6,754.25,0.25,73,165.83
2745,B-5,755.0,0.25,100,165.83
2746,E6,755.25,0.25,73,165.83
2747,C#6,755.25,0.25,84,165.83
2748,G6,755.5,0.25,74,165.83
2749,E6,755.5,0.25,84,165.83
2750,B-6,755.75,0.25,73,165.83
2751,E6,756.5,0.25,77,165.83
2752,C#6,756.5,0.25,102,165.83
2753,G6,756.75,0.25,75,165.83
2754,E6,756.75,119/500,84,165.83
2755,B-6,757.0,0.5,74,165.83
2756,C#6,758.0,0.25,77,165.83
2757,B-5,758.0,0.25,97,165.83
2758,E6,758.25,0.25,75,165.83
2759,C#6,758.25,119/500,84,165.83
2760,G6,758.5,0.5,74,165.83
2761,B-5,759.5,0.25,77,165.83
2762,G5,759.5,0.25,96,165.83
2763,C#6,759.75,0.25,75,165.83
2764,B-5,759.75,119/500,84,165.83
2765,E6,760.0,0.5,74,165.83
2766,G5,761.0,0.25,77,165.83
2767,E5,761.0,0.25,96,165.83
2768,B-5,761.25,0.25,75,165.83
2769,G5,761.25,119/500,84,165.83
2770,C#6,761.5,0.5,74,165.83
2771,E5,762.5,0.25,77,165.83
2772,C#5,762.5,0.25,96,165.83
2773,G5,762.75,0.25,72,165.83
2774,E5,762.75,119/500,84,165.83
2775,B-5,763.0,0.5,74,165.83
2776,C#5,764.0,0.25,77,165.83
2777,B-4,764.0,0.25,96,165.83
2778,E5,764.25,0.25,75,165.83
2779,C#5,764.25,119/500,84,165.83
2780,G5,764.5,0.5,74,165.83
2781,B-4,765.5,0.25,77,165.83
2782,G4,765.5,0.25,96,165.83
2783,C#5,765.75,0.25,75,165.83
2784,B-4,765.75,119/500,84,165.83
2785,E5,766.0,0.5,74,165.83
2786,G4,767.0,0.25,77,165.83
2787,E4,767.0,0.25,96,165.83
2788,B-4,767.25,0.25,75,165.83
2789,G4,767.25,119/500,84,165.83
2790,C#5,767.5,0.5,74,165.83
2791,E4,768.5,0.25,72,165.83
2792,C#4,768.5,0.25,91,165.83
2793,G4,768.75,0.25,71,165.83
2794,E4,768.75,119/500,80,165.83
2795,B-4,769.0,0.5,70,165.83
2796,C#4,770.0,0.25,72,165.83
2797,B-3,770.0,0.25,91,165.83
2798,E4,770.25,0.25,71,165.83
2799,C#4,770.25,119/500,80,165.83
2800,G4,770.5,0.5,70,165.83
2801,B-3,771.5,0.25,72,165.83
2802,G3,771.5,0.25,91,165.83
2803,C#4,771.75,0.25,71,165.83
2804,B-3,771.75,119/500,80,165.83
2805,E4,772.0,0.5,70,165.83
2806,G3,773.0,0.25,72,165.83
2807,E3,773.0,0.25,91,165.83
2808,B-3,773.25,0.25,71,165.83
2809,G3,773.25,119/500,80,165.83
2810,C#4,773.5,0.5,70,165.83
2811,E3,774.5,0.25,72,165.83
2812,C#3,774.5,0.25,91,165.83
2813,G3,774.75,0.25,71,165.83
2814,E3,774.75,119/500,80,165.83
2815,B-3,775.0,0.5,70,165.83
2816,C#3,776.0,0.25,72,165.83
2817,B-2,776.0,0.25,91,165.83
2818,E3,776.25,0.25,71,165.83
2819,C#3,776.25,119/500,80,165.83
2820,G3,776.5,0.5,70,165.83
2821,B-2,777.5,0.25,72,165.83
2822,G2,777.5,0.25,91,165.83
2823,C#3,777.75,0.25,71,165.83
2824,B-2,777.75,119/500,80,165.83
2825,E3,778.0,0.5,70,165.83
2826,G2,779.0,0.25,72,165.83
2827,E2,779.0,0.25,91,165.83
2828,B-2,779.25,0.25,71,165.83
2829,G2,779.25,119/500,80,165.83
2830,C#3,779.5,0.5,70,165.83
2831,B-2,780.0,0.25,71,165.83
2832,G2,780.0,0.25,71,165.83
2833,E3,780.25,0.25,63,165.83
2834,C#2,780.5,1.0,104,165.83
2835,B-2,780.5,0.25,71,165.83
2836,G2,780.5,0.25,71,165.83
2837,E3,780.75,0.25,63,165.83
2838,B-2,781.0,0.25,71,165.83
2839,G2,781.0,0.25,71,165.83
2840,E3,781.25,0.25,63,165.83
2841,B-2,781.5,0.25,71,165.83
2842,G2,781.5,0.25,71,165.83
2843,E3,781.75,0.25,63,165.83
2844,C#5,782.0,0.5,106,165.83
2845,B-2,782.0,0.25,71,165.83
2846,G2,782.0,0.25,71,165.83
2847,E3,782.25,0.25,63,165.83
2848,C#5,782.5,0.5,100,165.83
2849,G2,782.5,0.25,71,165.83
2850,B-2,782.5,0.25,71,165.83
2851,E3,782.75,0.25,63,165.83
2852,C#5,783.0,0.5,100,165.83
2853,B-2,783.0,0.25,71,165.83
2854,G2,783.0,0.25,71,165.83
2855,E3,783.25,0.25,63,165.83
2856,C#5,783.5,1.0,105,165.83
2857,G2,783.5,0.25,71,165.83
2858,B-2,783.5,0.25,71,165.83
2859,E3,783.75,0.25,63,165.83
2860,B-2,784.0,0.25,71,165.83
2861,G2,784.0,0.25,71,165.83
2862,E3,784.25,0.25,63,165.83
2863,B-2,784.5,0.25,71,165.83
2864,G2,784.5,0.25,71,165.83
2865,E3,784.75,0.25,63,165.83
2866,C#2,785.0,0.5,98,165.83
2867,B-2,785.0,0.25,71,165.83
2868,G2,785.0,0.25,71,165.83
2869,E3,785.25,0.25,63,165.83
2870,C#2,785.5,0.5,93,165.83
2871,G2,785.5,0.25,71,165.83
2872,B-2,785.5,0.25,71,165.83
2873,E3,785.75,0.25,63,165.83
2874,C#2,786.0,0.5,93,165.83
2875,G2,786.0,0.25,71,165.83
2876,B-2,786.0,0.25,71,165.83
2877,E3,786.25,0.25,63,165.83
2878,C#2,786.5,1.0,100,165.83
2879,B-2,786.5,0.25,71,165.83
2880,G2,786.5,0.25,71,165.83
2881,E3,786.75,0.25,63,165.83
2882,G2,787.0,0.25,71,165.83
2883,B-2,787.0,0.25,71,165.83
2884,E3,787.25,0.25,63,165.83
2885,G2,787.5,0.25,71,165.83
2886,B-2,787.5,0.25,71,165.83
2887,E3,787.75,0.25,63,165.83
2888,C#5,788.0,0.5,106,165.83
2889,B-2,788.0,0.25,71,165.83
2890,G2,788.0,0.25,71,165.83
2891,E3,788.25,0.25,63,165.83
2892,C#5,788.5,0.5,100,165.83
2893,G2,788.5,0.25,71,165.83
2894,B-2,788.5,0.25,71,165.83
2895,E3,788.75,0.25,63,165.83
2896,C#5,789.0,0.5,100,165.83
2897,G2,789.0,0.25,71,165.83
2898,B-2,789.0,0.25,71,165.83
2899,E3,789.25,0.25,63,165.83
2900,C#5,789.5,1.0,105,165.83
2901,G2,789.5,0.25,71,165.83
2902,B-2,789.5,0.25,71,165.83
2903,E3,789.75,0.25,63,165.83
2904,G2,790.0,0.25,71,165.83
2905,B-2,790.0,0.25,71,165.83
2906,E3,790.25,0.25,63,165.83
2907,B-2,790.5,0.25,71,165.83
2908,G2,790.5,0.25,71,165.83
2909,E3,790.75,0.25,63,165.83
2910,C#2,791.0,0.5,98,165.83
2911,G2,791.0,0.25,71,165.83
2912,B-2,791.0,0.25,71,165.83
2913,E3,791.25,0.25,63,165.83
2914,C#2,791.5,0.5,93,165.83
2915,B-2,791.5,0.25,71,165.83
2916,G2,791.5,0.25,71,165.83
2917,E3,791.75,0.25,63,165.83
2918,C#2,792.0,0.5,93,165.83
2919,B-2,792.0,0.25,71,165.83
2920,G2,792.0,0.25,71,165.83
2921,E3,792.25,0.25,63,165.83
2922,C2,792.5,1.0,100,165.83
2923,G2,792.5,0.25,71,165.83
2924,B-2,792.5,0.25,71,165.83
2925,E3,792.75,0.25,63,165.83
2926,G2,793.0,0.25,71,165.83
2927,B-2,793.0,0.25,71,165.83
2928,E3,793.25,0.25,63,165.83
2929,B-2,793.5,0.25,71,165.83
2930,G2,793.5,0.25,71,165.83
2931,E3,793.75,0.25,63,165.83
2932,C#5,794.0,0.5,106,165.83
2933,G2,794.0,0.25,71,165.83
2934,B-2,794.0,0.25,71,165.83
2935,E3,794.25,0.25,63,165.83
2936,C#5,794.5,0.5,100,165.83
2937,B-2,794.5,0.25,71,165.83
2938,G2,794.5,0.25,71,165.83
2939,E3,794.75,0.25,63,165.83
2940,C#5,795.0,0.5,100,165.83
2941,B-2,795.0,0.25,71,165.83
2942,G2,795.0,0.25,71,165.83
2943,E3,795.25,0.25,63,165.83
2944,C5,795.5,1.0,105,165.83
2945,G2,795.5,0.25,71,165.83
2946,B-2,795.5,0.25,71,165.83
2947,E3,795.75,0.25,63,165.83
2948,G2,796.0,0.25,71,165.83
2949,B-2,796.0,0.25,71,165.83
2950,E3,796.25,0.25,63,165.83
2951,B-2,796.5,0.25,71,165.83
2952,G2,796.5,0.25,71,165.83
2953,E3,796.75,0.25,63,165.83
2954,C#2,797.0,0.5,98,165.83
2955,G2,797.0,0.25,71,165.83
2956,B-2,797.0,0.25,71,165.83
2957,E3,797.25,0.25,63,165.83
2958,C#2,797.5,0.5,93,165.83
2959,G2,797.5,0.25,71,165.83
2960,B-2,797.5,0.25,71,165.83
2961,E3,797.75,0.25,63,165.83
2962,C#2,798.0,0.5,93,165.83
2963,G2,798.0,0.25,71,165.83
2964,B-2,798.0,0.25,71,165.83
2965,E3,798.25,0.25,63,165.83
2966,C2,798.5,1.0,100,165.83
2967,G2,798.5,0.25,71,165.83
2968,B-2,798.5,0.25,71,165.83
2969,E3,798.75,0.25,63,165.83
2970,G2,799.0,0.25,71,165.83
2971,B-2,799.0,0.25,71,165.83
2972,E3,799.25,0.25,63,165.83
2973,B-2,799.5,0.25,71,165.83
2974,G2,799.5,0.25,71,165.83
2975,E3,799.75,0.25,63,165.83
2976,C#5,800.0,0.5,106,165.83
2977,G2,800.0,0.25,71,165.83
2978,B-2,800.0,0.25,71,165.83
2979,E3,800.25,0.25,63,165.83
2980,C#5,800.5,0.5,100,165.83
2981,B-2,800.5,0.25,71,165.83
2982,G2,800.5,0.25,71,165.83
2983,E3,800.75,0.25,63,165.83
2984,C#5,801.0,0.5,100,165.83
2985,B-2,801.0,0.25,71,165.83
2986,G2,801.0,0.25,71,165.83
2987,E3,801.25,0.25,63,165.83
2988,C5,801.5,1.0,105,165.83
2989,G2,801.5,0.25,71,165.83
2990,B-2,801.5,0.25,71,165.83
2991,E3,801.75,0.25,63,165.83
2992,G2,802.0,0.25,71,165.83
2993,B-2,802.0,0.25,71,165.83
2994,E3,802.25,0.25,63,165.83
2995,G2,802.5,0.25,71,165.83
2996,B-2,802.5,0.25,71,165.83
2997,E3,802.75,0.25,63,165.83
2998,C#2,803.0,0.5,110,165.83
2999,B-2,803.0,0.25,71,165.83
3000,G2,803.0,0.25,71,165.83
3001,E3,803.25,0.25,63,165.83
3002,C#2,803.5,0.5,105,165.83
3003,G2,803.5,0.25,71,165.83
3004,B-2,803.5,0.25,71,165.83
3005,E3,803.75,0.25,63,165.83
3006,C#2,804.0,0.5,105,165.83
3007,G2,804.0,1.0,65,165.83
3008,E3,804.0,1.0,65,165.83
3009,B-2,804.0,1.0,65,165.83
3010,C2,804.5,229/500,59,165.83
3011,C2,805.0,229/500,30,165.83
3012,C2,805.5,229/500,30,165.83
3013,C2,806.0,229/500,32,165.83
3014,C2,806.5,229/500,27,165.83
3015,C2,807.0,229/500,27,165.83
3016,C2,807.5,229/500,30,165.83
3017,C2,808.0,229/500,24,165.83
3018,C2,808.5,229/500,24,165.83
3019,C2,809.0,229/500,28,165.83
3020,C2,809.5,229/500,22,165.83
3021,C2,810.0,229/500,22,165.83
3022,C2,810.5,229/500,24,165.83
3023,C2,811.0,229/500,22,165.83
3024,C2,811.5,229/500,22,165.83
3025,C2,812.0,229/500,24,165.83
3026,C2,812.5,229/500,20,165.83
3027,C2,813.0,229/500,20,165.83
3028,C2,813.5,229/500,23,165.83
3029,C2,814.0,229/500,18,165.83
3030,C2,814.5,229/500,23,165.83
3031,C3,814.5,1.25,31,165.83
3032,C4,814.5,1.25,31,165.83
3033,C2,815.0,229/500,23,165.83
3034,C2,815.5,229/500,20,165.83
3035,G#3,815.75,0.25,28,165.83
3036,G#2,815.75,0.25,28,165.83
3037,C2,816.0,229/500,22,165.83
3038,F2,816.0,4.5,25,165.83
3039,F3,816.0,4.5,25,165.83
3040,C2,816.5,229/500,23,165.83
3041,C2,817.0,229/500,20,165.83
3042,C2,817.5,229/500,22,165.83
3043,C2,818.0,229/500,23,165.83
3044,C2,818.5,229/500,20,165.83
3045,C2,819.0,229/500,22,165.83
3046,C2,819.5,229/500,23,165.83
3047,C2,820.0,229/500,20,165.83
3048,C2,820.5,229/500,22,165.83
3049,G#3,820.5,1.25,31,165.83
3050,G#2,820.5,1.25,31,165.83
3051,C2,821.0,229/500,23,165.83
3052,C2,821.5,229/500,20,165.83
3053,C3,821.75,0.25,27,165.83
3054,C4,821.75,0.25,27,165.83
3055,C2,822.0,229/500,22,165.83
3056,F4,822.0,1.5,31,165.83
3057,F3,822.0,1.5,31,165.83
3058,C2,822.5,229/500,23,165.83
3059,C2,823.0,229/500,20,165.83
3060,C2,823.5,229/500,22,165.83
3061,G#4,823.5,1.25,32,165.83
3062,G#3,823.5,1.25,32,165.83
3063,C2,824.0,229/500,23,165.83
3064,C2,824.5,229/500,20,165.83
3065,C5,824.75,0.25,28,165.83
3066,C4,824.75,0.25,28,165.83
3067,C2,825.0,229/500,22,165.83
3068,F5,825.0,149/100,36,165.83
3069,F4,825.0,149/100,36,165.83
3070,C2,825.5,229/500,23,165.83
3071,C2,826.0,229/500,20,165.83
3072,C2,826.5,229/500,22,165.83
3073,F4,826.5,1.5,30,165.83
3074,F3,826.5,1.5,30,165.83
3075,C2,827.0,229/500,23,165.83
3076,C2,827.5,229/500,20,165.83
3077,C5,828.0,2.5,35,165.83
3078,C2,828.0,229/500,22,165.83
3079,G4,828.0,3.0,26,165.83
3080,E4,828.0,3.0,26,165.83
3081,C2,828.5,229/500,23,165.83
3082,C2,829.0,229/500,20,165.83
3083,C2,829.5,229/500,22,165.83
3084,C2,830.0,229/500,23,165.83
3085,D5,830.5,0.5,33,165.83
3086,C2,830.5,229/500,20,165.83
3087,D5,831.0,167/1000,33,165.83
3088,C2,831.0,229/500,22,165.83
3089,F4,831.0,3.0,26,165.83
3090,B4,831.0,3.0,26,165.83
3091,E5,831.167,167/1000,29,165.83
3092,D5,831.333,167/1000,33,165.83
3093,E5,831.5,167/1000,29,165.83
3094,C2,831.5,229/500,23,165.83
3095,D5,831.667,167/1000,33,165.83
3096,E5,831.833,167/1000,30,165.83
3097,D5,832.0,167/1000,33,165.83
3098,C2,832.0,229/500,20,165.83
3099,E5,832.167,167/1000,29,165.83
3100,D5,832.333,167/1000,33,165.83
3101,E5,832.5,167/1000,30,165.83
3102,C2,832.5,229/500,22,165.83
3103,D5,832.667,167/1000,28,165.83
3104,E5,832.833,167/1000,33,165.83
3105,D5,833.0,0.25,28,165.83
3106,C2,833.0,229/500,23,165.83
3107,C5,833.25,0.25,30,165.83
3108,E5,833.5,0.25,35,165.83
3109,C2,833.5,229/500,20,165.83
3110,D5,833.75,0.25,31,165.83
3111,C2,834.0,229/500,22,165.83
3112,C5,834.0,1.0,25,165.83
3113,E4,834.0,1.0,25,165.83
3114,G4,834.0,1.0,25,165.83
3115,C2,834.5,229/500,23,165.83
3116,C2,835.0,229/500,20,165.83
3117,C2,835.5,229/500,22,165.83
3118,C2,836.0,229/500,23,165.83
3119,C2,836.5,229/500,20,165.83
3120,C2,837.0,229/500,22,165.83
3121,C2,837.5,229/500,23,165.83
3122,C#2,838.0,229/500,20,165.83
3123,C#2,838.5,229/500,22,165.83
3124,C#4,838.5,1.25,31,165.83
3125,C#3,838.5,1.25,31,165.83
3126,C#2,839.0,229/500,23,165.83
3127,C#2,839.5,229/500,20,165.83
3128,B-3,839.75,0.25,28,165.83
3129,B-2,839.75,0.25,28,165.83
3130,C#2,840.0,229/500,22,165.83
3131,F#3,840.0,4.5,25,165.83
3132,F#2,840.0,4.5,25,165.83
3133,C#2,840.5,229/500,23,165.83
3134,C#2,841.0,229/500,20,165.83
3135,C#2,841.5,229/500,22,165.83
3136,C#2,842.0,229/500,23,165.83
3137,C#2,842.5,229/500,20,165.83
3138,C#2,843.0,229/500,22,165.83
3139,C#2,843.5,229/500,23,165.83
3140,C#2,844.0,229/500,20,165.83
3141,C#2,844.5,229/500,22,165.83
3142,B-2,844.5,1.25,31,165.83
3143,B-3,844.5,1.25,31,165.83
3144,C#2,845.0,229/500,23,165.83
3145,C#2,845.5,229/500,20,165.83
3146,C#4,845.75,0.25,27,165.83
3147,C#3,845.75,0.25,27,165.83
3148,C#2,846.0,229/500,22,165.83
3149,F#3,846.0,1.5,31,165.83
3150,F#4,846.0,1.5,31,165.83
3151,C#2,846.5,229/500,23,165.83
3152,C#2,847.0,229/500,20,165.83
3153,C#2,847.5,229/500,22,165.83
3154,B-4,847.5,1.25,32,165.83
3155,B-3,847.5,1.25,32,165.83
3156,C#2,848.0,229/500,23,165.83
3157,C#2,848.5,229/500,20,165.83
3158,C#4,848.75,0.25,28,165.83
3159,C#5,848.75,0.25,28,165.83
3160,C#2,849.0,229/500,22,165.83
3161,F#5,849.0,1.5,36,165.83
3162,F#4,849.0,1.5,36,165.83
3163,C#2,849.5,229/500,23,165.83
3164,C#2,850.0,229/500,20,165.83
3165,C#2,850.5,229/500,22,165.83
3166,F#3,850.5,1.5,30,165.83
3167,F#4,850.5,1.5,30,165.83
3168,C#2,851.0,229/500,23,165.83
3169,C#2,851.5,229/500,20,165.83
3170,C#5,852.0,2.5,35,165.83
3171,C#2,852.0,229/500,22,165.83
3172,F4,852.0,3.0,26,165.83
3173,G#4,852.0,3.0,26,165.83
3174,C#2,852.5,229/500,23,165.83
3175,C#2,853.0,229/500,20,165.83
3176,C#2,853.5,229/500,22,165.83
3177,C#2,854.0,229/500,23,165.83
3178,E-5,854.5,0.5,33,165.83
3179,C#2,854.5,229/500,20,165.83
3180,E-5,855.0,167/1000,28,165.83
3181,C#2,855.0,229/500,22,165.83
3182,F#4,855.0,3.0,26,165.83
3183,C5,855.0,3.0,26,165.83
3184,F5,855.167,167/1000,25,165.83
3185,E-5,855.333,167/1000,28,165.83
3186,F5,855.5,167/1000,25,165.83
3187,C#2,855.5,229/500,23,165.83
3188,E-5,855.667,167/1000,28,165.83
3189,F5,855.833,167/1000,25,165.83
3190,E-5,856.0,167/1000,29,165.83
3191,C#2,856.0,229/500,20,165.83
3192,F5,856.167,167/1000,25,165.83
3193,E-5,856.333,167/1000,29,165.83
3194,F5,856.5,167/1000,26,165.83
3195,C#2,856.5,229/500,22,165.83
3196,E-5,856.667,167/1000,29,165.83
3197,F5,856.833,167/1000,27,165.83
3198,E-5,857.0,0.25,24,165.83
3199,C#2,857.0,229/500,23,165.83
3200,C#5,857.25,0.25,30,165.83
3201,F5,857.5,0.25,35,165.83
3202,C#2,857.5,229/500,20,165.83
3203,E-5,857.75,0.25,31,165.83
3204,C#2,858.0,229/500,22,165.83
3205,C#5,858.0,1.0,25,165.83
3206,F4,858.0,1.0,25,165.83
3207,G#4,858.0,1.0,25,165.83
3208,C#2,858.5,229/500,23,165.83
3209,F2,859.0,229/500,18,165.83
3210,B1,859.0,229/500,18,165.83
3211,F2,859.5,229/500,19,165.83
3212,B1,859.5,229/500,19,165.83
3213,F2,860.0,229/500,20,165.83
3214,B1,860.0,229/500,20,165.83
3215,F2,860.5,229/500,18,165.83
3216,B1,860.5,229/500,18,165.83
3217,F2,861.0,229/500,19,165.83
3218,B1,861.0,229/500,19,165.83
3219,F2,861.5,229/500,20,165.83
3220,B1,861.5,229/500,20,165.83
3221,B1,862.0,229/500,18,165.83
3222,F2,862.0,229/500,18,165.83
3223,B1,862.5,229/500,19,165.83
3224,F2,862.5,229/500,19,165.83
3225,B1,863.0,229/500,20,165.83
3226,F2,863.0,229/500,20,165.83
3227,B1,863.5,229/500,18,165.83
3228,F2,863.5,229/500,18,165.83
3229,C5,864.0,2.5,35,165.83
3230,B1,864.0,229/500,19,165.83
3231,F2,864.0,229/500,19,165.83
3232,E2,864.5,3.0,26,165.83
3233,C2,865.0,229/500,20,165.83
3234,C2,865.5,229/500,22,165.83
3235,C2,866.0,229/500,23,165.83
3236,D5,866.5,0.375,38,165.83
3237,C2,866.5,229/500,20,165.83
3238,C5,866.875,0.125,38,165.83
3239,D5,867.0,167/1000,37,165.83
3240,C2,867.0,229/500,22,165.83
3241,E5,867.167,167/1000,32,165.83
3242,D5,867.333,167/1000,37,165.83
3243,E5,867.5,167/1000,33,165.83
3244,F2,867.5,3.0,26,165.83
3245,D5,867.667,167/1000,37,165.83
3246,E5,867.833,167/1000,33,165.83
3247,D5,868.0,167/1000,37,165.83
3248,C2,868.0,229/500,20,165.83
3249,E5,868.167,167/1000,33,165.83
3250,D5,868.333,167/1000,37,165.83
3251,E5,868.5,167/1000,34,165.83
3252,C2,868.5,229/500,22,165.83
3253,D5,868.667,167/1000,31,165.83
3254,E5,868.833,167/1000,37,165.83
3255,D5,869.0,0.25,31,165.83
3256,C2,869.0,229/500,23,165.83
3257,C5,869.25,0.25,34,165.83
3258,E5,869.5,0.25,40,165.83
3259,C2,869.5,229/500,20,165.83
3260,D5,869.75,0.25,35,165.83
3261,C5,870.0,1.0,35,165.83
3262,C2,870.0,229/500,22,165.83
3263,E2,870.5,229/500,26,165.83
3264,C2,871.0,229/500,20,165.83
3265,C2,871.5,229/500,22,165.83
3266,C#3,872.0,229/500,25,165.83
3267,C2,872.0,229/500,25,165.83
3268,C2,872.5,229/500,23,165.83
3269,C#3,872.5,229/500,23,165.83
3270,C#3,873.0,229/500,24,165.83
3271,C2,873.0,229/500,24,165.83
3272,C3,873.5,1.0,26,165.83
3273,C2,873.5,229/500,26,165.83
3274,C2,874.0,229/500,20,165.83
3275,C2,874.5,229/500,22,165.83
3276,C2,875.0,229/500,23,165.83
3277,C2,875.5,229/500,20,165.83
3278,E5,876.0,2.5,40,165.83
3279,C2,876.0,229/500,22,165.83
3280,G2,876.5,3.0,26,165.83
3281,C2,877.0,229/500,20,165.83
3282,C2,877.5,229/500,22,165.83
3283,C2,878.0,229/500,23,165.83
3284,F5,878.5,0.375,38,165.83
3285,C2,878.5,229/500,20,165.83
3286,E5,878.875,0.125,38,165.83
3287,F5,879.0,167/1000,37,165.83
3288,C2,879.0,229/500,22,165.83
3289,G5,879.167,167/1000,32,165.83
3290,F5,879.333,167/1000,37,165.83
3291,G5,879.5,167/1000,33,165.83
3292,G#2,879.5,3.0,26,165.83
3293,F5,879.667,167/1000,37,165.83
3294,G5,879.833,167/1000,33,165.83
3295,F5,880.0,167/1000,37,165.83
3296,C2,880.0,229/500,20,165.83
3297,G5,880.167,167/1000,33,165.83
3298,F5,880.333,167/1000,37,165.83
3299,G5,880.5,167/1000,34,165.83
3300,C2,880.5,229/500,22,165.83
3301,F5,880.667,167/1000,31,165.83
3302,G5,880.833,167/1000,37,165.83
3303,F5,881.0,0.25,31,165.83
3304,C2,881.0,229/500,23,165.83
3305,E5,881.25,0.25,34,165.83
3306,G5,881.5,0.25,40,165.83
3307,C2,881.5,229/500,20,165.83
3308,F5,881.75,0.25,35,165.83
3309,E5,882.0,1.0,35,165.83
3310,C2,882.0,229/500,22,165.83
3311,G2,882.5,229/500,26,165.83
3312,C2,883.0,229/500,20,165.83
3313,C2,883.5,229/500,22,165.83
3314,C2,884.0,229/500,25,165.83
3315,C#3,884.0,229/500,25,165.83
3316,C#3,884.5,229/500,23,165.83
3317,C2,884.5,229/500,23,165.83
3318,C#3,885.0,229/500,24,165.83
3319,C2,885.0,229/500,24,165.83
3320,C3,885.5,1.0,26,165.83
3321,C2,885.5,229/500,26,165.83
3322,C2,886.0,229/500,20,165.83
3323,C2,886.5,229/500,22,165.83
3324,E5,886.5,0.5,35,165.83
3325,G5,886.5,0.5,35,165.83
3326,C2,887.0,229/500,23,165.83
3327,E5,887.0,0.5,31,165.83
3328,G5,887.0,0.5,31,165.83
3329,C2,887.5,229/500,20,165.83
3330,G5,887.5,0.5,35,165.83
3331,E5,887.5,0.5,35,165.83
3332,C2,888.0,229/500,22,165.83
3333,B-5,888.0,1.0,35,165.83
3334,G5,888.0,1.0,35,165.83
3335,C2,888.5,229/500,26,165.83
3336,C2,889.0,229/500,20,165.83
3337,C2,889.5,229/500,22,165.83
3338,C#3,890.0,229/500,25,165.83
3339,C2,890.0,229/500,25,165.83
3340,C2,890.5,229/500,23,165.83
3341,C#3,890.5,229/500,23,165.83
3342,C2,891.0,229/500,24,165.83
3343,C#3,891.0,229/500,24,165.83
3344,C3,891.5,1.0,26,165.83
3345,C2,891.5,229/500,26,165.83
3346,C2,892.0,229/500,20,165.83
3347,C2,892.5,229/500,22,165.83
3348,G5,892.5,0.5,66,165.83
3349,B-5,892.5,0.5,66,165.83
3350,C2,893.0,229/500,43,165.83
3351,G5,893.0,0.5,62,165.83
3352,B-5,893.0,0.5,62,165.83
3353,C2,893.5,229/500,38,165.83
3354,B-5,893.5,0.5,68,165.83
3355,G5,893.5,0.5,68,165.83
3356,E6,894.0,0.25,71,165.83
3357,C2,894.0,229/500,41,165.83
3358,B-5,894.25,0.25,64,165.83
3359,G6,894.5,0.25,72,165.83
3360,C2,894.5,229/500,50,165.83
3361,E6,894.75,0.25,64,165.83
3362,B-6,895.0,0.25,73,165.83
3363,C2,895.0,229/500,40,165.83
3364,G6,895.25,0.25,66,165.83
3365,E6,895.5,0.25,74,165.83
3366,C2,895.5,229/500,43,165.83
3367,G6,895.75,0.25,67,165.83
3368,B-5,896.0,0.25,74,165.83
3369,C2,896.0,229/500,47,165.83
3370,E6,896.25,0.25,68,165.83
3371,G5,896.5,0.25,75,165.83
3372,C2,896.5,229/500,43,165.83
3373,B-5,896.75,0.25,68,165.83
3374,E5,897.0,0.25,75,165.83
3375,C2,897.0,229/500,45,165.83
3376,G5,897.25,0.25,69,165.83
3377,B-4,897.5,0.25,76,165.83
3378,C2,897.5,229/500,55,165.83
3379,E5,897.75,0.25,67,165.83
3380,G4,898.0,0.25,76,165.83
3381,C2,898.0,229/500,45,165.83
3382,B-4,898.25,0.25,70,165.83
3383,E4,898.5,0.25,77,165.83
3384,C2,898.5,229/500,48,165.83
3385,G4,898.75,0.25,68,165.83
3386,B-3,899.0,0.25,78,165.83
3387,C2,899.0,229/500,52,165.83
3388,E4,899.25,0.25,71,165.83
3389,C2,899.5,229/500,47,165.83
3390,G3,900.0,0.25,75,165.83
3391,C2,900.0,229/500,50,165.83
3392,B-3,900.25,0.25,63,165.83
3393,C2,900.5,229/500,61,165.83
3394,E3,900.5,0.25,76,165.83
3395,G3,900.75,0.25,65,165.83
3396,C2,901.0,229/500,49,165.83
3397,B-2,901.0,0.25,77,165.83
3398,E3,901.25,0.25,62,165.83
3399,G2,901.5,0.25,76,165.83
3400,C2,901.5,229/500,52,165.83
3401,B-2,901.75,0.25,69,165.83
3402,C2,902.0,229/500,57,165.83
3403,C#3,902.0,0.25,80,165.83
3404,B-2,902.25,0.25,70,165.83
3405,E3,902.5,0.25,81,165.83
3406,C2,902.5,229/500,51,165.83
3407,C#3,902.75,0.25,71,165.83
3408,C2,903.0,229/500,54,165.83
3409,G3,903.0,0.25,86,165.83
3410,E3,903.25,0.25,78,165.83
3411,B-3,903.5,0.5,74,165.83
3412,G2,903.5,0.5,74,165.83
3413,G1,903.5,0.5,74,165.83
3414,C2,904.0,0.5,58,165.83
3415,C2,904.5,0.5,57,165.83
3416,C#3,905.0,0.5,82,165.83
3417,C#4,905.0,0.5,82,165.83
3418,G#3,905.0,0.5,82,165.83
3419,F2,905.0,0.5,82,165.83
3420,F1,905.0,0.5,82,165.83
3421,C2,905.5,0.5,78,165.83
3422,C2,906.0,0.5,66,165.83
3423,E3,906.5,4.375,45,165.83
3424,C2,906.5,4.375,45,165.83
3425,C4,906.5,4.375,45,165.83
3426,E2,906.5,4.375,45,165.83
3427,G3,906.5,4.375,45,165.83
3428,C4,910.5,1.25,35,165.83
3429,C2,911.0,1.25,27,165.83
3430,A3,911.75,0.25,31,165.83
3431,F3,912.0,62/125,103,165.83
3432,A1,912.25,0.25,25,165.83
3433,F1,912.5,0.5,81,165.83
3434,A3,912.5,99/100,84,165.83
3435,F3,912.5,99/100,84,165.83
3436,C4,912.5,99/100,84,165.83
3437,F4,912.5,99/100,84,165.83
3438,C4,913.5,99/100,80,165.83
3439,F4,913.5,99/100,80,165.83
3440,A4,913.5,99/100,80,165.83
3441,A3,913.5,99/100,80,165.83
3442,A1,913.5,99/100,68,165.83
3443,F1,913.5,99/100,68,165.83
3444,F2,913.5,99/100,68,165.83
3445,C2,913.5,99/100,68,165.83
3446,C4,914.5,99/100,79,165.83
3447,F4,914.5,99/100,79,165.83
3448,C5,914.5,99/100,79,165.83
3449,A4,914.5,99/100,79,165.83
3450,A1,914.5,99/100,64,165.83
3451,C2,914.5,99/100,64,165.83
3452,F2,914.5,99/100,64,165.83
3453,F1,914.5,99/100,64,165.83
3454,A4,915.5,99/100,80,165.83
3455,F5,915.5,99/100,80,165.83
3456,C5,915.5,99/100,80,165.83
3457,F4,915.5,99/100,80,165.83
3458,A1,915.5,99/100,62,165.83
3459,F1,915.5,99/100,62,165.83
3460,F2,915.5,99/100,62,165.83
3461,C2,915.5,99/100,62,165.83
3462,F5,916.5,99/100,85,165.83
3463,A4,916.5,99/100,85,165.83
3464,C5,916.5,99/100,85,165.83
3465,A5,916.5,99/100,85,165.83
3466,A1,916.5,99/100,68,165.83
3467,C2,916.5,99/100,68,165.83
3468,F2,916.5,99/100,68,165.83
3469,F1,916.5,99/100,68,165.83
3470,F5,917.5,62/125,80,165.83
3471,C6,917.5,62/125,80,165.83
3472,C5,917.5,62/125,80,165.83
3473,A5,917.5,62/125,80,165.83
3474,A1,917.5,99/100,62,165.83
3475,F1,917.5,99/100,62,165.83
3476,F2,917.5,99/100,62,165.83
3477,C2,917.5,99/100,62,165.83
3478,A5,918.0,4.5,88,165.83
3479,C6,918.0,4.5,88,165.83
3480,F6,918.0,4.5,88,165.83
3481,F5,918.0,4.5,88,165.83
3482,F1,918.5,4.5,68,165.83
3483,A1,918.5,4.5,68,165.83
3484,C2,918.5,4.5,68,165.83
3485,F2,918.5,4.5,68,165.83
3486,A3,922.5,1.25,41,165.83
3487,A1,923.0,1.25,33,165.83
3488,C4,923.75,0.25,35,165.83
3489,F4,924.0,1.5,40,165.83
3490,C2,924.25,0.25,28,165.83
3491,F2,924.5,1.5,34,165.83
3492,A4,925.5,1.25,43,165.83
3493,A2,926.0,1.25,34,165.83
3494,C5,926.75,0.25,37,165.83
3495,F5,927.0,149/100,40,165.83
3496,C3,927.25,0.25,29,165.83
3497,F3,927.5,149/100,34,165.83
3498,F4,928.5,1.5,40,165.83
3499,F2,929.0,1.5,31,165.83
3500,C4,930.0,62/125,103,165.83
3501,C4,930.5,99/100,93,165.83
3502,E4,930.5,99/100,93,165.83
3503,E3,930.5,62/125,81,165.83
3504,G3,930.5,62/125,81,165.83
3505,G3,931.0,99/100,75,165.83
3506,C4,931.5,99/100,83,165.83
3507,G4,931.5,99/100,83,165.83
3508,E4,931.5,99/100,83,165.83
3509,E2,931.5,99/100,70,165.83
3510,C3,931.5,99/100,70,165.83
3511,G2,931.5,99/100,70,165.83
3512,G4,932.5,99/100,84,165.83
3513,C5,932.5,99/100,84,165.83
3514,E4,932.5,99/100,84,165.83
3515,G2,932.5,99/100,66,165.83
3516,E2,932.5,99/100,66,165.83
3517,C3,932.5,99/100,66,165.83
3518,E5,933.5,99/100,82,165.83
3519,G4,933.5,99/100,82,165.83
3520,C5,933.5,99/100,82,165.83
3521,E2,933.5,99/100,64,165.83
3522,C3,933.5,99/100,64,165.83
3523,G2,933.5,99/100,64,165.83
3524,G5,934.5,99/100,88,165.83
3525,C5,934.5,99/100,88,165.83
3526,E5,934.5,99/100,88,165.83
3527,G2,934.5,99/100,70,165.83
3528,C3,934.5,99/100,70,165.83
3529,E2,934.5,99/100,70,165.83
3530,C6,935.5,62/125,83,165.83
3531,E5,935.5,62/125,83,165.83
3532,G5,935.5,62/125,83,165.83
3533,E2,935.5,99/100,64,165.83
3534,C3,935.5,99/100,64,165.83
3535,G2,935.5,99/100,64,165.83
3536,C5,936.0,2.5,41,165.83
3537,E4,936.5,3.0,30,165.83
3538,G4,936.5,3.0,30,165.83
3539,D5,938.5,0.5,45,165.83
3540,D5,939.0,167/1000,38,165.83
3541,E5,939.167,0.25,35,165.83
3542,D5,939.333,167/1000,38,165.83
3543,E5,939.5,167/1000,36,165.83
3544,F4,939.5,3.0,30,165.83
3545,B4,939.5,3.0,30,165.83
3546,G#4,939.5,3.0,30,165.83
3547,D5,939.667,167/1000,39,165.83
3548,E5,939.833,167/1000,36,165.83
3549,D5,940.0,167/1000,38,165.83
3550,E5,940.167,167/1000,36,165.83
3551,D5,940.333,167/1000,39,165.83
3552,E5,940.5,167/1000,37,165.83
3553,D5,940.667,167/1000,35,165.83
3554,E5,940.833,167/1000,39,165.83
3555,D5,941.0,0.25,35,165.83
3556,C5,941.25,0.25,36,165.83
3557,E5,941.5,0.25,41,165.83
3558,D5,941.75,0.25,38,165.83
3559,C4,942.0,62/125,103,165.83
3560,E4,942.5,99/100,93,165.83
3561,C4,942.5,99/100,93,165.83
3562,G3,942.5,62/125,81,165.83
3563,E3,942.5,62/125,81,165.83
3564,G3,943.0,99/100,75,165.83
3565,E4,943.5,99/100,83,165.83
3566,G4,943.5,99/100,83,165.83
3567,C4,943.5,99/100,83,165.83
3568,G2,943.5,99/100,70,165.83
3569,E2,943.5,99/100,70,165.83
3570,C3,943.5,99/100,70,165.83
3571,C5,944.5,99/100,84,165.83
3572,E4,944.5,99/100,84,165.83
3573,G4,944.5,99/100,84,165.83
3574,E2,944.5,99/100,66,165.83
3575,C3,944.5,99/100,66,165.83
3576,G2,944.5,99/100,66,165.83
3577,E5,945.5,99/100,82,165.83
3578,G4,945.5,99/100,82,165.83
3579,C5,945.5,99/100,82,165.83
3580,G2,945.5,99/100,64,165.83
3581,C3,945.5,99/100,64,165.83
3582,E2,945.5,99/100,64,165.83
3583,G5,946.5,99/100,88,165.83
3584,C5,946.5,99/100,88,165.83
3585,E5,946.5,99/100,88,165.83
3586,E2,946.5,99/100,70,165.83
3587,C3,946.5,99/100,70,165.83
3588,G2,946.5,99/100,70,165.83
3589,E5,947.5,62/125,83,165.83
3590,C6,947.5,62/125,83,165.83
3591,G5,947.5,62/125,83,165.83
3592,G2,947.5,99/100,64,165.83
3593,C3,947.5,99/100,64,165.83
3594,E2,947.5,99/100,64,165.83
3595,C5,948.0,2.5,41,165.83
3596,G4,948.5,3.0,30,165.83
3597,E4,948.5,3.0,30,165.83
3598,D5,950.5,0.5,45,165.83
3599,D5,951.0,167/1000,44,165.83
3600,E5,951.167,167/1000,39,165.83
3601,D5,951.333,167/1000,42,165.83
3602,E5,951.5,167/1000,37,165.83
3603,G#4,951.5,3.0,30,165.83
3604,F4,951.5,3.0,30,165.83
3605,D5,951.667,167/1000,41,165.83
3606,E5,951.833,167/1000,36,165.83
3607,D5,952.0,167/1000,40,165.83
3608,E5,952.167,167/1000,37,165.83
3609,D5,952.333,167/1000,41,165.83
3610,E5,952.5,0.25,38,165.83
3611,D5,952.75,0.25,37,165.83
3612,E5,953.0,0.25,42,165.83
3613,D5,953.25,0.25,41,165.83
3614,C5,953.5,0.25,48,165.83
3615,D5,953.75,0.25,44,165.83
3616,G3,954.0,62/125,88,165.83
3617,E4,954.0,62/125,88,165.83
3618,B-3,954.0,62/125,88,165.83
3619,E4,954.5,99/100,90,165.83
3620,B-3,954.5,99/100,90,165.83
3621,G4,954.5,99/100,90,165.83
3622,G4,955.5,99/100,83,165.83
3623,B-4,955.5,99/100,83,165.83
3624,E4,955.5,99/100,83,165.83
3625,G2,955.5,99/100,70,165.83
3626,E3,955.5,99/100,70,165.83
3627,B-2,955.5,99/100,70,165.83
3628,B-4,956.5,99/100,87,165.83
3629,E5,956.5,99/100,87,165.83
3630,G4,956.5,99/100,87,165.83
3631,B-2,956.5,99/100,66,165.83
3632,G2,956.5,99/100,66,165.83
3633,E3,956.5,99/100,66,165.83
3634,B-4,957.5,99/100,82,165.83
3635,G5,957.5,99/100,82,165.83
3636,E5,957.5,99/100,82,165.83
3637,G2,957.5,99/100,64,165.83
3638,E3,957.5,99/100,64,165.83
3639,B-2,957.5,99/100,64,165.83
3640,E5,958.5,99/100,88,165.83
3641,B-5,958.5,99/100,88,165.83
3642,G5,958.5,99/100,88,165.83
3643,B-2,958.5,99/100,70,165.83
3644,E3,958.5,99/100,70,165.83
3645,G2,958.5,99/100,70,165.83
3646,G5,959.5,62/125,83,165.83
3647,E6,959.5,62/125,83,165.83
3648,B-5,959.5,62/125,83,165.83
3649,G2,959.5,99/100,64,165.83
3650,E3,959.5,99/100,64,165.83
3651,B-2,959.5,99/100,64,165.83
3652,E5,960.0,2.5,48,165.83
3653,G4,960.5,3.0,36,165.83
3654,B-4,960.5,3.0,36,165.83
3655,F5,962.5,0.5,52,165.83
3656,F5,963.0,167/1000,46,165.83
3657,G5,963.167,167/1000,41,165.83
3658,F5,963.333,167/1000,46,165.83
3659,G5,963.5,167/1000,41,165.83
3660,G#4,963.5,3.0,36,165.83
3661,C5,963.5,3.0,36,165.83
3662,F5,963.667,167/1000,46,165.83
3663,G5,963.833,167/1000,41,165.83
3664,F5,964.0,167/1000,46,165.83
3665,G5,964.167,167/1000,42,165.83
3666,F5,964.333,167/1000,46,165.83
3667,G5,964.5,0.25,43,165.83
3668,F5,964.75,0.25,40,165.83
3669,G5,965.0,0.25,46,165.83
3670,F5,965.25,0.25,42,165.83
3671,E5,965.5,0.25,48,165.83
3672,F5,965.75,0.25,44,165.83
3673,G4,966.0,62/125,92,165.83
3674,E4,966.0,62/125,92,165.83
3675,E5,966.5,99/100,93,165.83
3676,C#5,966.5,99/100,93,165.83
3677,E5,967.5,99/100,88,165.83
3678,G5,967.5,99/100,88,165.83
3679,B-2,967.5,99/100,68,165.83
3680,E3,967.5,99/100,68,165.83
3681,G3,967.5,99/100,68,165.83
3682,C#3,967.5,99/100,68,165.83
3683,B-5,968.5,99/100,93,165.83
3684,G5,968.5,99/100,93,165.83
3685,B-3,968.5,99/100,64,165.83
3686,E4,968.5,99/100,64,165.83
3687,C#4,968.5,99/100,64,165.83
3688,G4,968.5,99/100,64,165.83
3689,B-5,969.5,99/100,88,165.83
3690,C#6,969.5,99/100,88,165.83
3691,B-3,969.5,99/100,62,165.83
3692,E4,969.5,99/100,62,165.83
3693,G4,969.5,99/100,62,165.83
3694,C#4,969.5,99/100,62,165.83
3695,C#6,970.5,99/100,94,165.83
3696,E6,970.5,99/100,94,165.83
3697,C#4,970.5,99/100,68,165.83
3698,E4,970.5,99/100,68,165.83
3699,G4,970.5,99/100,68,165.83
3700,B-3,970.5,99/100,68,165.83
3701,E6,971.5,62/125,86,165.83
3702,G6,971.5,62/125,86,165.83
3703,C#4,971.5,99/100,62,165.83
3704,B-3,971.5,99/100,62,165.83
3705,G4,971.5,99/100,62,165.83
3706,E4,971.5,99/100,62,165.83
3707,G5,972.0,2.5,79,165.83
3708,E5,972.0,3.0,59,165.83
3709,B-4,972.5,3.0,59,165.83
3710,C#5,972.5,3.0,59,165.83
3711,G#5,974.5,0.5,87,165.83
3712,F5,975.0,3.0,64,165.83
3713,G#5,975.0,0.25,76,165.83
3714,B-5,975.25,0.25,68,165.83
3715,G#5,975.5,0.25,76,165.83
3716,B4,975.5,3.0,59,165.83
3717,D5,975.5,3.0,59,165.83
3718,B-5,975.75,0.25,68,165.83
3719,G#5,976.0,0.25,76,165.83
3720,B-5,976.25,0.25,68,165.83
3721,G#5,976.5,0.25,76,165.83
3722,B-5,976.75,0.25,67,165.83
3723,G#5,977.0,0.25,67,165.83
3724,G5,977.25,0.25,70,165.83
3725,B-5,977.5,0.25,79,165.83
3726,G#5,977.75,0.25,73,165.83
3727,E5,978.0,1.5,58,165.83
3728,G5,978.0,1.5,58,165.83
3729,C4,978.5,0.5,39,165.83
3730,C5,979.0,229/500,36,165.83
3731,C5,979.5,229/500,36,165.83
3732,C5,980.0,229/500,39,165.83
3733,C5,980.5,229/500,37,165.83
3734,C5,981.0,229/500,36,165.83
3735,C5,981.5,229/500,39,165.83
3736,C5,982.0,229/500,35,165.83
3737,C5,982.5,229/500,35,165.83
3738,C5,983.0,229/500,39,165.83
3739,C5,983.5,229/500,36,165.83
3740,C5,984.0,229/500,36,165.83
3741,F5,984.0,1.5,56,165.83
3742,G#5,984.0,1.5,56,165.83
3743,C5,985.0,229/500,38,165.83
3744,C5,985.5,229/500,38,165.83
3745,G#4,986.0,0.5,39,165.83
3746,F4,986.0,0.5,39,165.83
3747,C5,986.5,229/500,37,165.83
3748,C5,987.0,229/500,37,165.83
3749,C5,987.5,229/500,41,165.83
3750,C5,988.0,229/500,37,165.83
3751,C5,988.5,229/500,38,165.83
3752,C5,989.0,229/500,46,165.83
3753,C5,989.5,229/500,40,165.83
3754,C5,990.0,229/500,40,165.83
3755,G#5,990.0,6.0,75,165.83
3756,F5,990.0,6.0,75,165.83
3757,C#6,990.0,6.0,75,165.83
3758,C5,991.0,229/500,38,165.83
3759,C5,991.5,229/500,38,165.83
3760,G#4,992.0,0.5,40,165.83
3761,F4,992.0,0.5,40,165.83
3762,C5,992.5,229/500,37,165.83
3763,C5,993.0,229/500,37,165.83
3764,F4,993.5,0.5,37,165.83
3765,G#4,993.5,0.5,37,165.83
3766,C5,994.0,229/500,37,165.83
3767,C5,994.5,229/500,37,165.83
3768,F4,995.0,0.5,37,165.83
3769,G#4,995.0,0.5,37,165.83
3770,C5,995.5,229/500,37,165.83
3771,C5,996.0,229/500,37,165.83
3772,G5,996.0,1.0,52,165.83
3773,E5,996.0,1.0,52,165.83
3774,C6,996.0,1.0,52,165.83
3775,E4,996.5,0.5,39,165.83
3776,G4,996.5,0.5,39,165.83
3777,C4,997.0,229/500,37,165.83
3778,C4,997.5,229/500,37,165.83
3779,C4,998.0,229/500,38,165.83
3780,C4,998.5,229/500,37,165.83
3781,C4,999.0,229/500,37,165.83
3782,C4,999.5,229/500,37,165.83
3783,C4,1000.0,229/500,37,165.83
3784,C4,1000.5,229/500,37,165.83
3785,E5,1000.5,1.25,56,165.83
3786,G5,1000.5,1.25,56,165.83
3787,C4,1001.0,229/500,38,165.83
3788,C4,1001.5,229/500,37,165.83
3789,G5,1001.75,0.25,52,165.83
3790,E5,1001.75,0.25,52,165.83
3791,C4,1002.0,229/500,37,165.83
3792,G#5,1002.0,1.0,58,165.83
3793,F5,1002.0,1.0,58,165.83
3794,C4,1002.5,229/500,39,165.83
3795,C4,1003.0,229/500,37,165.83
3796,G5,1003.0,0.5,52,165.83
3797,E5,1003.0,0.5,52,165.83
3798,C4,1003.5,229/500,37,165.83
3799,C4,1004.0,229/500,38,165.83
3800,C4,1004.5,229/500,37,165.83
3801,G4,1004.5,0.5,50,165.83
3802,E4,1004.5,0.5,50,165.83
3803,C4,1005.0,229/500,37,165.83
3804,C4,1005.5,229/500,38,165.83
3805,C4,1006.0,229/500,39,165.83
3806,G3,1006.0,0.5,49,165.83
3807,E3,1006.0,0.5,49,165.83
3808,C4,1006.5,229/500,37,165.83
3809,G3,1007.0,0.5,44,165.83
3810,B-3,1007.0,0.5,44,165.83
3811,C4,1007.5,229/500,37,165.83
3812,G5,1007.75,0.25,58,165.83
3813,E5,1007.75,0.25,58,165.83
3814,C4,1008.0,229/500,37,165.83
3815,B-5,1008.0,1.0,61,165.83
3816,G5,1008.0,1.0,61,165.83
3817,C4,1008.5,229/500,39,165.83
3818,C4,1009.0,229/500,37,165.83
3819,F5,1009.0,0.5,52,165.83
3820,G#5,1009.0,0.5,52,165.83
3821,C4,1009.5,229/500,37,165.83
3822,C4,1010.0,229/500,37,165.83
3823,C4,1010.5,229/500,37,165.83
3824,F4,1010.5,0.5,49,165.83
3825,G#4,1010.5,0.5,49,165.83
3826,C4,1011.0,229/500,37,165.83
3827,C4,1011.5,229/500,38,165.83
3828,C4,1012.0,229/500,37,165.83
3829,F3,1012.0,49/100,47,165.83
3830,G#3,1012.0,49/100,47,165.83
3831,C4,1012.5,229/500,37,165.83
3832,G#3,1013.0,0.5,46,165.83
3833,F3,1013.0,0.5,46,165.83
3834,C4,1013.5,229/500,37,165.83
3835,F5,1013.75,0.25,52,165.83
3836,G#5,1013.75,0.25,52,165.83
3837,C4,1014.0,229/500,37,165.83
3838,G#5,1014.0,6.0,75,165.83
3839,F5,1014.0,6.0,75,165.83
3840,C#6,1014.0,6.0,75,165.83
3841,C4,1015.0,229/500,38,165.83
3842,C4,1015.5,229/500,38,165.83
3843,F3,1016.0,0.5,40,165.83
3844,G#3,1016.0,0.5,40,165.83
3845,C4,1016.5,229/500,37,165.83
3846,C4,1017.0,229/500,37,165.83
3847,G#3,1017.5,0.5,37,165.83
3848,F3,1017.5,0.5,37,165.83
3849,C4,1018.0,229/500,37,165.83
3850,C4,1018.5,229/500,37,165.83
3851,G#3,1019.0,0.5,36,165.83
3852,F3,1019.0,0.5,36,165.83
3853,C4,1019.5,229/500,37,165.83
3854,C4,1020.0,229/500,37,165.83
3855,G5,1020.0,1.0,61,165.83
3856,E5,1020.0,1.0,61,165.83
3857,C6,1020.0,1.0,61,165.83
3858,C4,1021.0,229/500,38,165.83
3859,C4,1021.5,229/500,38,165.83
3860,E3,1022.0,0.5,40,165.83
3861,G3,1022.0,0.5,40,165.83
3862,C4,1022.5,229/500,37,165.83
3863,C4,1023.0,229/500,37,165.83
3864,F#4,1023.0,3.0,52,165.83
3865,E-4,1023.0,3.0,52,165.83
3866,C5,1023.0,3.0,52,165.83
3867,C4,1024.0,229/500,37,165.83
3868,C4,1024.5,229/500,37,165.83
3869,F#3,1025.0,0.5,36,165.83
3870,E-3,1025.0,0.5,36,165.83
3871,C4,1025.5,229/500,37,165.83
3872,C4,1026.0,229/500,37,165.83
3873,F4,1026.0,1.0,52,165.83
3874,B4,1026.0,1.0,52,165.83
3875,D4,1026.0,1.0,52,165.83
3876,C4,1027.0,229/500,37,165.83
3877,C4,1027.5,229/500,36,165.83
3878,D3,1028.0,0.5,38,165.83
3879,F3,1028.0,0.5,38,165.83
3880,C4,1028.5,229/500,34,165.83
3881,C4,1029.0,229/500,34,165.83
3882,C#4,1029.0,1.0,46,165.83
3883,B-4,1029.0,1.0,46,165.83
3884,F4,1029.0,1.0,46,165.83
3885,C4,1030.0,229/500,32,165.83
3886,C4,1030.5,229/500,32,165.83
3887,F3,1031.0,0.5,30,165.83
3888,C#3,1031.0,0.5,30,165.83
3889,C4,1031.5,229/500,31,165.83
3890,C4,1032.0,229/500,30,165.83
3891,C4,1032.0,1.5,41,165.83
3892,G#4,1032.0,1.5,41,165.83
3893,F4,1032.0,1.5,41,165.83
3894,C3,1033.0,229/500,25,165.83
3895,C3,1033.5,229/500,26,165.83
3896,C3,1034.0,229/500,28,165.83
3897,C3,1034.5,229/500,26,165.83
3898,C3,1035.0,229/500,26,165.83
3899,C3,1035.5,229/500,28,165.83
3900,C3,1036.0,229/500,26,165.83
3901,C3,1036.5,229/500,26,165.83
3902,C3,1037.0,229/500,28,165.83
3903,C3,1037.5,229/500,26,165.83
3904,C3,1038.0,229/500,27,165.83
3905,G3,1038.5,1.5,41,165.83
3906,B-2,1038.5,1.5,41,165.83
3907,E3,1038.5,1.5,41,165.83
3908,C3,1038.5,1.5,41,165.83
3909,C2,1039.0,0.5,25,165.83
3910,C2,1039.5,0.5,26,165.83
3911,C2,1040.0,0.5,28,165.83
3912,C2,1040.5,0.5,26,165.83
3913,C2,1041.0,0.5,26,165.83
3914,C2,1041.5,0.5,28,165.83
3915,C2,1042.0,0.5,26,165.83
3916,C2,1042.5,0.5,26,165.83
3917,C2,1043.0,0.5,28,165.83
3918,C2,1043.5,0.5,26,165.83
3919,C2,1044.0,0.5,27,165.83
3920,F1,1044.5,0.5,28,165.83
3921,A1,1045.0,0.5,22,165.83
3922,C2,1045.0,0.5,22,165.83
3923,F2,1045.0,0.5,22,165.83
3924,F1,1045.5,0.5,26,165.83
3925,A1,1046.0,0.5,24,165.83
3926,C2,1046.0,0.5,24,165.83
3927,F2,1046.0,0.5,24,165.83
3928,F1,1046.5,0.5,26,165.83
3929,A1,1047.0,0.5,22,165.83
3930,C2,1047.0,0.5,22,165.83
3931,F2,1047.0,0.5,22,165.83
3932,F1,1047.5,0.5,28,165.83
3933,A1,1048.0,0.5,22,165.83
3934,C2,1048.0,0.5,22,165.83
3935,F2,1048.0,0.5,22,165.83
3936,A3,1048.5,1.25,44,165.83
3937,F1,1048.5,0.5,26,165.83
3938,A2,1049.0,1.25,40,165.83
3939,C2,1049.0,0.5,24,165.83
3940,A1,1049.0,0.5,24,165.83
3941,F2,1049.0,0.5,24,165.83
3942,F1,1049.5,0.5,26,165.83
3943,C4,1049.75,0.25,40,165.83
3944,F3,1050.0,1.5,40,165.83
3945,F4,1050.0,1.5,40,165.83
3946,F2,1050.0,0.5,23,165.83
3947,A1,1050.0,0.5,23,165.83
3948,C2,1050.0,0.5,23,165.83
3949,C3,1050.25,0.25,37,165.83
3950,F1,1050.5,0.5,28,165.83
3951,A1,1051.0,0.5,22,165.83
3952,C2,1051.0,0.5,22,165.83
3953,F2,1051.0,0.5,22,165.83
3954,F1,1051.5,0.5,26,165.83
3955,A3,1051.5,1.25,42,165.83
3956,A4,1051.5,1.25,42,165.83
3957,F2,1052.0,0.5,24,165.83
3958,C2,1052.0,0.5,24,165.83
3959,A1,1052.0,0.5,24,165.83
3960,F1,1052.5,0.5,26,165.83
3961,F4,1052.75,0.25,38,165.83
3962,F3,1052.75,0.25,38,165.83
3963,E4,1053.0,1.5,40,165.83
3964,E3,1053.0,1.5,40,165.83
3965,C2,1053.0,0.5,22,165.83
3966,F2,1053.0,0.5,22,165.83
3967,A1,1053.0,0.5,22,165.83
3968,G1,1053.5,0.5,28,165.83
3969,B-1,1054.0,0.5,22,165.83
3970,E2,1054.0,0.5,22,165.83
3971,G2,1054.0,0.5,22,165.83
3972,G1,1054.5,0.5,26,165.83
3973,G4,1054.5,1.25,42,165.83
3974,G3,1054.5,1.25,42,165.83
3975,B-1,1055.0,0.5,24,165.83
3976,G2,1055.0,0.5,24,165.83
3977,E2,1055.0,0.5,24,165.83
3978,G1,1055.5,0.5,26,165.83
3979,E4,1055.75,0.25,38,165.83
3980,E3,1055.75,0.25,38,165.83
3981,F3,1056.0,1.5,40,165.83
3982,F4,1056.0,1.5,40,165.83
3983,E2,1056.0,0.5,23,165.83
3984,G2,1056.0,0.5,23,165.83
3985,B-1,1056.0,0.5,23,165.83
3986,A1,1056.5,0.5,28,165.83
3987,F2,1057.0,0.5,22,165.83
3988,A2,1057.0,0.5,22,165.83
3989,C2,1057.0,0.5,22,165.83
3990,C4,1057.5,3.0,40,165.83
3991,A1,1057.5,0.5,26,165.83
3992,C3,1058.0,3.0,40,165.83
3993,A2,1058.0,0.5,24,165.83
3994,F2,1058.0,0.5,24,165.83
3995,C2,1058.0,0.5,24,165.83
3996,A1,1058.5,0.5,26,165.83
3997,C2,1059.0,0.5,22,165.83
3998,A2,1059.0,0.5,22,165.83
3999,F2,1059.0,0.5,22,165.83
4000,A1,1059.5,0.5,28,165.83
4001,A2,1060.0,0.5,22,165.83
4002,C2,1060.0,0.5,22,165.83
4003,F2,1060.0,0.5,22,165.83
4004,D4,1060.5,1.25,44,165.83
4005,A1,1060.5,0.5,26,165.83
4006,F2,1061.0,0.5,28,165.83
4007,D3,1061.0,1.25,40,165.83
4008,B-1,1061.5,0.5,26,165.83
4009,B-3,1061.75,0.25,40,165.83
4010,A3,1062.0,1.5,44,165.83
4011,F2,1062.0,0.5,27,165.83
4012,B-2,1062.25,0.25,37,165.83
4013,A2,1062.5,1.5,40,165.83
4014,C2,1062.5,0.5,28,165.83
4015,F2,1063.0,0.5,25,165.83
4016,C4,1063.5,1.25,44,165.83
4017,C2,1063.5,0.5,26,165.83
4018,F2,1064.0,0.5,28,165.83
4019,C3,1064.0,1.25,40,165.83
4020,C2,1064.5,0.5,25,165.83
4021,A3,1064.75,0.25,39,165.83
4022,G3,1065.0,1.5,44,165.83
4023,F2,1065.0,0.5,25,165.83
4024,A2,1065.25,0.25,36,165.83
4025,G2,1065.5,1.5,40,165.83
4026,C2,1065.5,0.5,28,165.83
4027,E2,1066.0,0.5,25,165.83
4028,C4,1066.5,1.25,44,165.83
4029,C2,1066.5,0.5,25,165.83
4030,C3,1067.0,1.25,40,165.83
4031,E2,1067.0,0.5,28,165.83
4032,C2,1067.5,0.5,25,165.83
4033,B-3,1067.75,0.25,39,165.83
4034,A3,1068.0,1.5,42,165.83
4035,E2,1068.0,0.5,25,165.83
4036,B-2,1068.25,0.25,36,165.83
4037,F2,1068.5,0.5,28,165.83
4038,A2,1069.0,0.5,22,165.83
4039,C3,1069.0,0.5,22,165.83
4040,F3,1069.0,0.5,22,165.83
4041,C4,1069.5,3.0,42,165.83
4042,F2,1069.5,0.5,27,165.83
4043,A2,1070.0,0.5,25,165.83
4044,C3,1070.0,0.5,25,165.83
4045,F3,1070.0,0.5,25,165.83
4046,F2,1070.5,0.5,28,165.83
4047,A2,1071.0,0.5,24,165.83
4048,C3,1071.0,0.5,24,165.83
4049,F3,1071.0,0.5,24,165.83
4050,F2,1071.5,0.5,32,165.83
4051,A2,1072.0,0.5,26,165.83
4052,C3,1072.0,0.5,26,165.83
4053,F3,1072.0,0.5,26,165.83
4054,A4,1072.5,1.25,55,165.83
4055,F2,1072.5,0.5,31,165.83
4056,A3,1073.0,1.25,51,165.83
4057,C3,1073.0,0.5,30,165.83
4058,A2,1073.0,0.5,30,165.83
4059,F3,1073.0,0.5,30,165.83
4060,F2,1073.5,0.5,33,165.83
4061,C5,1073.75,0.25,53,165.83
4062,F4,1074.0,1.5,54,165.83
4063,F5,1074.0,1.5,54,165.83
4064,F3,1074.0,0.5,29,165.83
4065,A2,1074.0,0.5,29,165.83
4066,C3,1074.0,0.5,29,165.83
4067,C4,1074.25,0.25,49,165.83
4068,F2,1074.5,0.5,37,165.83
4069,A2,1075.0,0.5,29,165.83
4070,C3,1075.0,0.5,29,165.83
4071,F3,1075.0,0.5,29,165.83
4072,F2,1075.5,0.5,36,165.83
4073,A5,1075.5,1.25,60,165.83
4074,A4,1075.5,1.25,60,165.83
4075,A2,1076.0,0.5,33,165.83
4076,C3,1076.0,0.5,33,165.83
4077,F3,1076.0,0.5,33,165.83
4078,F2,1076.5,0.5,37,165.83
4079,F5,1076.75,0.25,56,165.83
4080,F4,1076.75,0.25,56,165.83
4081,E5,1077.0,1.5,59,165.83
4082,E4,1077.0,1.5,59,165.83
4083,C3,1077.0,0.5,32,165.83
4084,F3,1077.0,0.5,32,165.83
4085,A2,1077.0,0.5,32,165.83
4086,G2,1077.5,0.5,40,165.83
4087,B-2,1078.0,0.5,32,165.83
4088,C3,1078.0,0.5,32,165.83
4089,G3,1078.0,0.5,32,165.83
4090,G2,1078.5,0.5,39,165.83
4091,G5,1078.5,1.25,65,165.83
4092,G4,1078.5,1.25,65,165.83
4093,B-2,1079.0,0.5,37,165.83
4094,G3,1079.0,0.5,37,165.83
4095,C3,1079.0,0.5,37,165.83
4096,G2,1079.5,0.5,40,165.83
4097,E5,1079.75,0.25,60,165.83
4098,E4,1079.75,0.25,60,165.83
4099,F5,1080.0,1.5,54,165.83
4100,F4,1080.0,1.5,54,165.83
4101,C3,1080.0,0.5,36,165.83
4102,G3,1080.0,0.5,36,165.83
4103,B-2,1080.0,0.5,36,165.83
4104,A3,1080.5,6.0,32,165.83
4105,C3,1080.5,6.0,32,165.83
4106,A2,1080.5,6.0,32,165.83
4107,F3,1080.5,6.0,32,165.83
4108,C4,1081.5,4.5,50,165.83
4109,C5,1081.5,4.5,50,165.83
4110,C#4,1086.0,1.5,78,165.83
4111,C#5,1086.0,1.5,78,165.83
4112,F3,1086.5,1.5,59,165.83
4113,C#3,1086.5,6.0,50,165.83
4114,B-2,1086.5,6.0,50,165.83
4115,B-3,1087.5,4.5,75,165.83
4116,B-4,1087.5,4.5,75,165.83
4117,F#3,1088.0,4.5,57,165.83
4118,G#4,1092.0,4.5,58,165.83
4119,C3,1092.5,6.0,33,165.83
4120,G#3,1092.5,6.0,33,165.83
4121,F3,1092.5,6.0,33,165.83
4122,G4,1096.5,1.0,51,165.83
4123,F4,1097.5,0.5,49,165.83
4124,G4,1098.0,0.25,46,165.83
4125,G#4,1098.25,0.25,39,165.83
4126,G4,1098.5,0.25,46,165.83
4127,C3,1098.5,6.0,29,165.83
4128,E3,1098.5,6.0,29,165.83
4129,B-3,1098.5,6.0,29,165.83
4130,G#4,1098.75,0.25,40,165.83
4131,G4,1099.0,0.25,47,165.83
4132,G#4,1099.25,0.25,40,165.83
4133,G4,1099.5,0.25,48,165.83
4134,G#4,1099.75,0.25,41,165.83
4135,G4,1100.0,0.25,49,165.83
4136,G#4,1100.25,0.25,42,165.83
4137,G4,1100.5,0.25,50,165.83
4138,G#4,1100.75,0.25,42,165.83
4139,G4,1101.0,0.25,51,165.83
4140,G#4,1101.25,0.25,44,165.83
4141,G4,1101.5,0.25,51,165.83
4142,G#4,1101.75,0.25,45,165.83
4143,G4,1102.0,0.25,52,165.83
4144,G#4,1102.25,0.25,46,165.83
4145,G4,1102.5,0.25,53,165.83
4146,G#4,1102.75,0.25,48,165.83
4147,G4,1103.0,0.25,55,165.83
4148,G#4,1103.25,0.25,48,165.83
4149,G4,1103.5,0.25,56,165.83
4150,G#4,1103.75,0.25,48,165.83
4151,C#5,1104.0,0.25,46,165.83
4152,C5,1104.25,0.25,39,165.83
4153,C#5,1104.5,0.25,46,165.83
4154,C5,1104.75,0.25,40,165.83
4155,C#5,1105.0,0.25,48,165.83
4156,C5,1105.25,0.25,41,165.83
4157,C#5,1105.5,0.25,50,165.83
4158,C5,1105.75,0.25,44,165.83
4159,C#5,1106.0,0.25,51,165.83
4160,C5,1106.25,0.25,45,165.83
4161,C#5,1106.5,0.25,53,165.83
4162,C5,1106.75,0.25,47,165.83
4163,C#5,1107.0,0.25,56,165.83
4164,C5,1107.25,0.25,48,165.83
4165,C#5,1107.5,0.25,56,165.83
4166,C5,1107.75,0.25,47,165.83
4167,C#5,1108.0,0.25,56,165.83
4168,C5,1108.25,0.25,48,165.83
4169,C#5,1108.5,0.25,56,165.83
4170,C5,1108.75,0.25,49,165.83
4171,C#5,1109.0,0.25,56,165.83
4172,C5,1109.25,0.25,49,165.83
4173,B4,1109.5,0.25,56,165.83
4174,C5,1109.75,0.25,48,165.83
4175,C#6,1110.0,0.25,49,165.83
4176,C6,1110.25,0.25,41,165.83
4177,C#6,1110.5,0.25,49,165.83
4178,C6,1110.75,0.25,43,165.83
4179,C#6,1111.0,0.25,51,165.83
4180,C6,1111.25,0.25,45,165.83
4181,C#6,1111.5,0.25,54,165.83
4182,C6,1111.75,0.25,45,165.83
4183,C#6,1112.0,0.25,55,165.83
4184,C6,1112.25,0.25,46,165.83
4185,C#6,1112.5,0.25,56,165.83
4186,C6,1112.75,0.25,49,165.83
4187,C#6,1113.0,0.25,60,165.83
4188,C6,1113.25,0.25,49,165.83
4189,C#6,1113.5,0.25,58,165.83
4190,C6,1113.75,0.25,48,165.83
4191,C#6,1114.0,0.25,55,165.83
4192,C6,1114.25,0.25,45,165.83
4193,C#6,1114.5,0.25,54,165.83
4194,C6,1114.75,0.25,45,165.83
4195,C#6,1115.0,0.25,52,165.83
4196,C6,1115.25,0.25,44,165.83
4197,B5,1115.5,0.25,50,165.83
4198,C6,1115.75,0.25,40,165.83
4199,C#6,1116.0,0.5,47,165.83
4200,C6,1116.5,0.5,47,165.83
4201,B-5,1117.0,0.5,45,165.83
4202,G#5,1117.5,0.5,42,165.83
4203,G5,1118.0,0.5,43,165.83
4204,F#5,1118.5,0.5,42,165.83
4205,F5,1119.0,0.5,42,165.83
4206,E5,1119.5,0.5,42,165.83
4207,E-5,1120.0,0.5,42,165.83
4208,C#5,1120.5,0.5,42,165.83
4209,C5,1121.0,0.5,41,165.83
4210,B-4,1121.5,0.5,41,165.83
4211,G#4,1122.0,0.5,41,165.83
4212,G4,1122.5,0.5,39,165.83
4213,F#4,1123.0,0.5,39,165.83
4214,F4,1123.5,0.5,38,165.83
4215,E4,1124.0,0.5,37,165.83
4216,E-4,1124.5,0.5,36,165.83
4217,C#4,1125.0,0.5,36,165.83
4218,C4,1125.5,0.5,36,165.83
4219,B-3,1126.0,0.5,35,165.83
4220,G#3,1127.0,0.5,34,165.83
4221,G3,1127.5,0.5,35,165.83
4222,F#3,1128.0,0.5,33,165.83
4223,F3,1128.5,0.5,34,165.83
4224,E3,1129.0,0.5,33,165.83
4225,E-3,1129.5,0.5,33,165.83
4226,C#3,1130.0,0.5,33,165.83
4227,C3,1130.5,0.5,32,165.83
4228,B-2,1131.0,0.5,32,165.83
4229,G#2,1131.5,0.5,34,165.83
4230,G2,1132.0,0.5,33,165.83
4231,F#2,1132.5,0.5,33,165.83
4232,F2,1133.0,0.5,33,165.83
4233,E2,1133.5,0.5,33,165.83
4234,E-2,1134.0,0.5,33,165.83
4235,C#2,1134.5,0.5,34,165.83
4236,C2,1135.0,0.5,34,165.83
4237,B-1,1135.5,0.5,34,165.83
4238,G#1,1136.0,0.5,34,165.83
4239,G1,1136.5,0.5,33,165.83
4240,G#1,1137.0,0.5,31,165.83
4241,B-1,1137.5,0.5,34,165.83
4242,C2,1138.0,0.5,33,165.83
4243,B1,1138.5,0.5,33,165.83
4244,C2,1139.0,0.5,36,165.83
4245,B1,1139.5,0.5,34,165.83
4246,F3,1140.0,0.25,83,165.83
4247,C2,1140.0,0.5,33,165.83
4248,C3,1140.25,0.25,66,165.83
4249,G#2,1140.5,0.25,66,165.83
4250,F1,1140.5,0.25,64,165.83
4251,C3,1140.75,0.25,66,165.83
4252,C2,1140.75,0.25,52,165.83
4253,F3,1141.0,0.25,72,165.83
4254,F2,1141.0,0.25,52,165.83
4255,C3,1141.25,0.25,64,165.83
4256,C2,1141.25,0.25,52,165.83
4257,G#3,1141.5,0.25,84,165.83
4258,F1,1141.5,0.25,58,165.83
4259,C3,1141.75,0.25,66,165.83
4260,C2,1141.75,0.25,51,165.83
4261,G3,1142.0,0.25,83,165.83
4262,F1,1142.0,0.25,68,165.83
4263,C3,1142.25,0.25,66,165.83
4264,C2,1142.25,0.25,52,165.83
4265,F3,1142.5,0.25,81,165.83
4266,F1,1142.5,0.25,64,165.83
4267,C3,1142.75,0.25,66,165.83
4268,C2,1142.75,0.25,52,165.83
4269,F3,1143.0,0.25,83,165.83
4270,F1,1143.0,0.25,62,165.83
4271,C3,1143.25,0.25,63,165.83
4272,C2,1143.25,0.25,52,165.83
4273,G#2,1143.5,0.25,63,165.83
4274,F1,1143.5,0.25,64,165.83
4275,C3,1143.75,0.25,63,165.83
4276,C2,1143.75,0.25,52,165.83
4277,F3,1144.0,0.25,66,165.83
4278,F2,1144.0,0.25,52,165.83
4279,C3,1144.25,0.25,62,165.83
4280,C2,1144.25,0.25,52,165.83
4281,G#3,1144.5,0.25,83,165.83
4282,F1,1144.5,0.25,58,165.83
4283,C3,1144.75,0.25,63,165.83
4284,C2,1144.75,0.25,51,165.83
4285,G3,1145.0,0.25,80,165.83
4286,F1,1145.0,0.25,68,165.83
4287,C3,1145.25,0.25,66,165.83
4288,C2,1145.25,0.25,52,165.83
4289,F3,1145.5,0.25,80,165.83
4290,F1,1145.5,0.25,64,165.83
4291,C3,1145.75,0.25,64,165.83
4292,C2,1145.75,0.25,52,165.83
4293,C#4,1146.0,0.25,83,165.83
4294,F1,1146.0,0.25,62,165.83
4295,G#3,1146.25,0.25,66,165.83
4296,C2,1146.25,0.25,52,165.83
4297,F3,1146.5,0.25,66,165.83
4298,F1,1146.5,0.25,64,165.83
4299,G#3,1146.75,0.25,66,165.83
4300,C#2,1146.75,0.25,52,165.83
4301,C#4,1147.0,0.25,77,165.83
4302,F2,1147.0,0.25,52,165.83
4303,G#3,1147.25,0.25,64,165.83
4304,C#2,1147.25,0.25,52,165.83
4305,F4,1147.5,0.25,84,165.83
4306,F1,1147.5,0.25,58,165.83
4307,G#3,1147.75,0.25,66,165.83
4308,C#2,1147.75,0.25,51,165.83
4309,E-4,1148.0,0.25,83,165.83
4310,F1,1148.0,0.25,68,165.83
4311,G#3,1148.25,0.25,66,165.83
4312,C#2,1148.25,0.25,52,165.83
4313,C#4,1148.5,0.25,81,165.83
4314,F1,1148.5,0.25,64,165.83
4315,G#3,1148.75,0.25,66,165.83
4316,C#2,1148.75,0.25,52,165.83
4317,C#4,1149.0,0.25,83,165.83
4318,F1,1149.0,0.25,62,165.83
4319,G#3,1149.25,0.25,63,165.83
4320,C#2,1149.25,0.25,52,165.83
4321,F3,1149.5,0.25,63,165.83
4322,F1,1149.5,0.25,64,165.83
4323,G#3,1149.75,0.25,63,165.83
4324,C#2,1149.75,0.25,52,165.83
4325,C#4,1150.0,0.25,75,165.83
4326,F2,1150.0,0.25,52,165.83
4327,G#3,1150.25,0.25,62,165.83
4328,C#2,1150.25,0.25,52,165.83
4329,F4,1150.5,0.25,83,165.83
4330,F1,1150.5,0.25,58,165.83
4331,G#3,1150.75,0.25,63,165.83
4332,C#2,1150.75,0.25,51,165.83
4333,E-4,1151.0,0.25,80,165.83
4334,F1,1151.0,0.25,68,165.83
4335,G#3,1151.25,0.25,66,165.83
4336,C#2,1151.25,0.25,52,165.83
4337,C#4,1151.5,0.25,80,165.83
4338,F1,1151.5,0.25,64,165.83
4339,G#3,1151.75,0.25,64,165.83
4340,C#2,1151.75,0.25,52,165.83
4341,B-4,1152.0,0.25,93,165.83
4342,F1,1152.0,0.25,62,165.83
4343,C#5,1152.25,0.25,74,165.83
4344,C#2,1152.25,0.25,52,165.83
4345,B-4,1152.5,0.25,76,165.83
4346,F#2,1152.5,4.5,99,165.83
4347,F#1,1152.5,4.5,99,165.83
4348,C#5,1152.75,0.25,67,165.83
4349,B-4,1153.0,0.25,72,165.83
4350,C#5,1153.25,0.25,67,165.83
4351,B-4,1153.5,0.25,72,165.83
4352,C#5,1153.75,0.25,67,165.83
4353,B-4,1154.0,0.25,72,165.83
4354,C#5,1154.25,0.25,67,165.83
4355,B-4,1154.5,0.25,72,165.83
4356,C#5,1154.75,0.25,67,165.83
4357,B-4,1155.0,0.25,76,165.83
4358,C#5,1155.25,0.25,67,165.83
4359,B-4,1155.5,0.25,76,165.83
4360,C#5,1155.75,0.25,67,165.83
4361,B-4,1156.0,0.25,76,165.83
4362,C#5,1156.25,0.25,67,165.83
4363,B-4,1156.5,0.25,95,165.83
4364,C#5,1156.75,0.25,78,165.83
4365,G4,1157.0,0.25,89,165.83
4366,G1,1157.0,0.5,81,165.83
4367,G2,1157.0,0.5,81,165.83
4368,B-4,1157.25,0.25,78,165.83
4369,E4,1157.5,0.25,84,165.83
4370,B-1,1157.5,0.5,72,165.83
4371,G4,1157.75,0.25,77,165.83
4372,C#4,1158.0,0.25,82,165.83
4373,C#2,1158.0,0.5,82,165.83
4374,E4,1158.25,0.25,70,165.83
4375,B-3,1158.5,0.25,81,165.83
4376,E2,1158.5,0.5,95,165.83
4377,C#4,1158.75,0.25,71,165.83
4378,G3,1159.0,0.25,82,165.83
4379,G2,1159.0,0.5,82,165.83
4380,B-3,1159.25,0.25,68,165.83
4381,F3,1159.5,0.25,81,165.83
4382,B-2,1159.5,0.5,82,165.83
4383,G3,1159.75,0.25,70,165.83
4384,B-3,1160.0,0.25,80,165.83
4385,C#3,1160.0,479/1000,85,165.83
4386,G3,1160.25,0.25,70,165.83
4387,F3,1160.5,0.25,80,165.83
4388,C#3,1160.5,479/1000,83,165.83
4389,G3,1160.75,0.25,69,165.83
4390,C#3,1161.0,479/1000,83,165.83
4391,F3,1161.25,0.25,70,165.83
4392,B-3,1161.5,0.25,80,165.83
4393,C#3,1161.5,1.5,97,165.83
4394,G3,1161.75,0.25,69,165.83
4395,F3,1162.0,0.25,77,165.83
4396,B-3,1162.25,0.25,70,165.83
4397,E3,1162.75,0.25,69,165.83
4398,B-3,1163.0,0.25,80,165.83
4399,C3,1163.0,1.5,89,165.83
4400,G3,1163.25,0.25,69,165.83
4401,E3,1163.5,0.25,78,165.83
4402,B-3,1163.75,0.25,69,165.83
4403,F4,1164.0,0.25,83,165.83
4404,C4,1164.25,0.25,66,165.83
4405,G#3,1164.5,0.25,66,165.83
4406,F2,1164.5,0.25,64,165.83
4407,C4,1164.75,0.25,66,165.83
4408,C3,1164.75,0.25,52,165.83
4409,F4,1165.0,0.25,80,165.83
4410,F3,1165.0,0.25,52,165.83
4411,C4,1165.25,0.25,64,165.83
4412,C3,1165.25,0.25,52,165.83
4413,G#4,1165.5,0.25,84,165.83
4414,F2,1165.5,0.25,58,165.83
4415,C4,1165.75,0.25,66,165.83
4416,C3,1165.75,0.25,51,165.83
4417,G4,1166.0,0.25,83,165.83
4418,F2,1166.0,0.25,68,165.83
4419,C4,1166.25,0.25,66,165.83
4420,C3,1166.25,0.25,52,165.83
4421,F4,1166.5,0.25,81,165.83
4422,F2,1166.5,0.25,64,165.83
4423,C4,1166.75,0.25,66,165.83
4424,C3,1166.75,0.25,52,165.83
4425,F4,1167.0,0.25,83,165.83
4426,F2,1167.0,0.25,62,165.83
4427,C4,1167.25,0.25,63,165.83
4428,C3,1167.25,0.25,52,165.83
4429,G#3,1167.5,0.25,63,165.83
4430,F2,1167.5,0.25,64,165.83
4431,C4,1167.75,0.25,63,165.83
4432,C3,1167.75,0.25,52,165.83
4433,F4,1168.0,0.25,80,165.83
4434,F3,1168.0,0.25,52,165.83
4435,C4,1168.25,0.25,62,165.83
4436,C3,1168.25,0.25,52,165.83
4437,G#4,1168.5,0.25,83,165.83
4438,F2,1168.5,0.25,58,165.83
4439,C4,1168.75,0.25,63,165.83
4440,C3,1168.75,0.25,51,165.83
4441,G4,1169.0,0.25,80,165.83
4442,F2,1169.0,0.25,68,165.83
4443,C4,1169.25,0.25,66,165.83
4444,C3,1169.25,0.25,52,165.83
4445,F4,1169.5,0.25,80,165.83
4446,F2,1169.5,0.25,64,165.83
4447,C4,1169.75,0.25,64,165.83
4448,C3,1169.75,0.25,52,165.83
4449,C#5,1170.0,0.25,83,165.83
4450,F2,1170.0,0.25,62,165.83
4451,G#4,1170.25,0.25,66,165.83
4452,C3,1170.25,0.25,52,165.83
4453,F4,1170.5,0.25,66,165.83
4454,F2,1170.5,0.25,64,165.83
4455,G#4,1170.75,0.25,66,165.83
4456,C#3,1170.75,0.25,52,165.83
4457,C#5,1171.0,0.25,80,165.83
4458,F3,1171.0,0.25,52,165.83
4459,G#4,1171.25,0.25,64,165.83
4460,C#3,1171.25,0.25,52,165.83
4461,F5,1171.5,0.25,84,165.83
4462,F2,1171.5,0.25,58,165.83
4463,G#4,1171.75,0.25,66,165.83
4464,C#3,1171.75,0.25,51,165.83
4465,E-5,1172.0,0.25,83,165.83
4466,F2,1172.0,0.25,68,165.83
4467,G#4,1172.25,0.25,66,165.83
4468,C#3,1172.25,0.25,52,165.83
4469,C#5,1172.5,0.25,81,165.83
4470,F2,1172.5,0.25,64,165.83
4471,G#4,1172.75,0.25,66,165.83
4472,C#3,1172.75,0.25,52,165.83
4473,C#5,1173.0,0.25,83,165.83
4474,F2,1173.0,0.25,62,165.83
4475,G#4,1173.25,0.25,63,165.83
4476,C#3,1173.25,0.25,52,165.83
4477,F4,1173.5,0.25,63,165.83
4478,F2,1173.5,0.25,64,165.83
4479,G#4,1173.75,0.25,63,165.83
4480,C#3,1173.75,0.25,52,165.83
4481,C#5,1174.0,0.25,80,165.83
4482,F3,1174.0,0.25,52,165.83
4483,G#4,1174.25,0.25,62,165.83
4484,C#3,1174.25,0.25,52,165.83
4485,F5,1174.5,0.25,83,165.83
4486,F2,1174.5,0.25,58,165.83
4487,G#4,1174.75,0.25,63,165.83
4488,C#3,1174.75,0.25,51,165.83
4489,E-5,1175.0,0.25,80,165.83
4490,F2,1175.0,0.25,68,165.83
4491,G#4,1175.25,0.25,66,165.83
4492,C#3,1175.25,0.25,52,165.83
4493,C#5,1175.5,0.25,80,165.83
4494,F2,1175.5,0.25,64,165.83
4495,G#4,1175.75,0.25,64,165.83
4496,C#3,1175.75,0.25,52,165.83
4497,B-5,1176.0,0.25,93,165.83
4498,F2,1176.0,0.25,62,165.83
4499,C#6,1176.25,0.25,75,165.83
4500,C#3,1176.25,0.25,52,165.83
4501,B-5,1176.5,0.25,80,165.83
4502,F#2,1176.5,4.5,98,165.83
4503,F#3,1176.5,4.5,98,165.83
4504,C#6,1176.75,0.25,69,165.83
4505,B-5,1177.0,0.25,77,165.83
4506,C#6,1177.25,0.25,69,165.83
4507,B-5,1177.5,0.25,78,165.83
4508,C#6,1177.75,0.25,69,165.83
4509,B-5,1178.0,0.25,74,165.83
4510,C#6,1178.25,0.25,69,165.83
4511,B-5,1178.5,0.25,74,165.83
4512,C#6,1178.75,0.25,69,165.83
4513,B-5,1179.0,0.25,74,165.83
4514,C#6,1179.25,0.25,69,165.83
4515,B-5,1179.5,0.25,74,165.83
4516,C#6,1179.75,0.25,69,165.83
4517,B-5,1180.0,0.25,74,165.83
4518,C#6,1180.25,0.25,69,165.83
4519,B-5,1180.5,0.25,75,165.83
4520,C#6,1180.75,0.25,69,165.83
4521,B-5,1181.0,0.25,77,165.83
4522,G3,1181.0,0.5,74,165.83
4523,G2,1181.0,0.5,74,165.83
4524,C#6,1181.25,0.25,69,165.83
4525,B-5,1181.5,0.25,77,165.83
4526,B-2,1181.5,0.5,65,165.83
4527,B-3,1181.5,0.5,65,165.83
4528,C#6,1181.75,0.25,69,165.83
4529,B-5,1182.0,0.25,82,165.83
4530,C#3,1182.0,0.5,72,165.83
4531,C#4,1182.0,0.5,72,165.83
4532,C#6,1182.25,0.25,70,165.83
4533,G5,1182.5,0.25,81,165.83
4534,E4,1182.5,0.5,85,165.83
4535,E3,1182.5,0.5,85,165.83
4536,B-5,1182.75,0.25,71,165.83
4537,F5,1183.0,0.25,82,165.83
4538,G3,1183.0,0.5,72,165.83
4539,G4,1183.0,0.5,72,165.83
4540,G5,1183.25,0.25,68,165.83
4541,F5,1183.5,0.25,81,165.83
4542,B-3,1183.5,0.5,72,165.83
4543,B-4,1183.5,0.5,72,165.83
4544,G5,1183.75,0.25,70,165.83
4545,B-5,1184.0,0.25,80,165.83
4546,C#5,1184.0,479/1000,76,165.83
4547,C#4,1184.0,479/1000,76,165.83
4548,G5,1184.25,0.25,70,165.83
4549,F5,1184.5,0.25,80,165.83
4550,C#4,1184.5,479/1000,74,165.83
4551,C#5,1184.5,479/1000,74,165.83
4552,G5,1184.75,0.25,69,165.83
4553,C#4,1185.0,479/1000,74,165.83
4554,C#5,1185.0,479/1000,74,165.83
4555,F5,1185.25,0.25,72,165.83
4556,B-5,1185.5,0.25,82,165.83
4557,C#5,1185.5,1.5,91,165.83
4558,C#4,1185.5,1.5,91,165.83
4559,G5,1185.75,0.25,70,165.83
4560,F5,1186.0,0.25,77,165.83
4561,B-5,1186.25,0.25,69,165.83
4562,E5,1186.75,0.25,67,165.83
4563,B-5,1187.0,0.25,75,165.83
4564,C4,1187.0,1.5,78,165.83
4565,C5,1187.0,1.5,78,165.83
4566,G5,1187.25,0.25,64,165.83
4567,E5,1187.5,0.25,72,165.83
4568,B-5,1187.75,0.25,62,165.83
4569,C#5,1188.25,0.25,72,165.83
4570,B-5,1188.5,0.25,82,165.83
4571,F4,1188.5,1.5,102,165.83
4572,G5,1188.75,0.25,70,165.83
4573,C#5,1189.0,0.25,77,165.83
4574,B-5,1189.25,0.25,69,165.83
4575,C5,1189.75,0.25,67,165.83
4576,B-5,1190.0,0.25,75,165.83
4577,E4,1190.0,1.5,86,165.83
4578,G5,1190.25,0.25,64,165.83
4579,C5,1190.5,0.25,72,165.83
4580,B-5,1190.75,0.25,62,165.83
4581,F5,1191.25,0.25,72,165.83
4582,B-5,1191.5,0.25,82,165.83
4583,C#5,1191.5,1.5,102,165.83
4584,G5,1191.75,0.25,70,165.83
4585,F5,1192.0,0.25,77,165.83
4586,B-5,1192.25,0.25,69,165.83
4587,E5,1192.75,0.25,67,165.83
4588,B-5,1193.0,0.25,75,165.83
4589,C5,1193.0,1.5,86,165.83
4590,G5,1193.25,0.25,64,165.83
4591,E5,1193.5,0.25,72,165.83
4592,B-5,1193.75,0.25,62,165.83
4593,B4,1194.5,3.0,97,165.83
4594,D5,1194.75,2.75,91,165.83
4595,B5,1195.0,0.25,83,165.83
4596,F5,1195.0,2.5,95,165.83
4597,D6,1195.25,0.25,79,165.83
4598,G#5,1195.25,2.25,87,165.83
4599,F6,1195.5,0.25,87,165.83
4600,D6,1195.75,0.25,79,165.83
4601,B5,1196.0,0.25,86,165.83
4602,G#6,1196.25,0.25,83,165.83
4603,G6,1196.5,0.25,84,165.83
4604,F6,1196.75,0.25,79,165.83
4605,E6,1197.0,0.25,79,165.83
4606,G6,1197.25,0.25,74,165.83
4607,F6,1197.5,0.25,79,165.83
4608,C5,1197.5,3.0,85,165.83
4609,E6,1197.75,0.25,72,165.83
4610,E5,1197.75,2.75,77,165.83
4611,C#6,1198.0,0.25,73,165.83
4612,G5,1198.0,2.5,77,165.83
4613,C6,1198.25,0.25,72,165.83
4614,B-5,1198.5,0.25,78,165.83
4615,C#6,1198.75,0.25,73,165.83
4616,C6,1199.0,0.25,75,165.83
4617,B-5,1199.25,0.25,72,165.83
4618,G#5,1199.5,0.25,71,165.83
4619,G5,1199.75,0.25,70,165.83
4620,F5,1200.25,0.25,39,165.83
4621,G#5,1200.5,0.25,41,165.83
4622,G#4,1200.5,1.5,41,165.83
4623,F4,1200.5,1.5,41,165.83
4624,C6,1200.75,0.25,43,165.83
4625,F6,1201.0,0.25,45,165.83
4626,F5,1201.25,0.25,41,165.83
4627,C#5,1202.0,1.5,40,165.83
4628,B-4,1202.0,1.5,40,165.83
4629,F6,1202.25,0.25,45,165.83
4630,F5,1202.5,0.25,41,165.83
4631,F6,1202.75,0.25,45,165.83
4632,C5,1203.5,1.5,41,165.83
4633,G#4,1203.5,1.5,41,165.83
4634,F6,1203.75,0.25,44,165.83
4635,F5,1204.0,0.25,41,165.83
4636,F6,1204.25,0.25,44,165.83
4637,C5,1205.0,1.5,55,165.83
4638,B-4,1205.0,1.5,55,165.83
4639,G4,1205.0,1.5,55,165.83
4640,E6,1205.25,0.25,44,165.83
4641,E5,1205.5,0.25,41,165.83
4642,E6,1205.75,0.25,45,165.83
4643,F5,1206.25,0.25,39,165.83
4644,G#5,1206.5,0.25,41,165.83
4645,F4,1206.5,1.5,41,165.83
4646,G#4,1206.5,1.5,41,165.83
4647,C6,1206.75,0.25,43,165.83
4648,F6,1207.0,0.25,45,165.83
4649,F5,1207.25,0.25,41,165.83
4650,B-3,1208.0,1.5,40,165.83
4651,C#4,1208.0,1.5,40,165.83
4652,F5,1208.25,0.25,45,165.83
4653,F4,1208.5,0.25,41,165.83
4654,F5,1208.75,0.25,45,165.83
4655,G#3,1209.5,1.5,41,165.83
4656,C4,1209.5,1.5,41,165.83
4657,F5,1209.75,0.25,44,165.83
4658,F4,1210.0,0.25,41,165.83
4659,F5,1210.25,0.25,44,165.83
4660,C4,1211.0,1.5,55,165.83
4661,B-3,1211.0,1.5,55,165.83
4662,G3,1211.0,1.5,55,165.83
4663,E5,1211.25,0.25,44,165.83
4664,E4,1211.5,0.25,41,165.83
4665,E5,1211.75,0.25,45,165.83
4666,F5,1212.25,0.25,39,165.83
4667,G#5,1212.5,0.25,41,165.83
4668,F3,1212.5,1.5,41,165.83
4669,G#3,1212.5,1.5,41,165.83
4670,C6,1212.75,0.25,43,165.83
4671,F6,1213.0,0.25,45,165.83
4672,F5,1213.25,0.25,41,165.83
4673,B-2,1214.0,1.5,40,165.83
4674,C#3,1214.0,1.5,40,165.83
4675,F6,1214.25,0.25,45,165.83
4676,F5,1214.5,0.25,41,165.83
4677,F6,1214.75,0.25,45,165.83
4678,G#2,1215.5,1.5,41,165.83
4679,C3,1215.5,1.5,41,165.83
4680,F6,1215.75,0.25,44,165.83
4681,F5,1216.0,0.25,41,165.83
4682,F6,1216.25,0.25,44,165.83
4683,G2,1217.0,1.5,55,165.83
4684,B-2,1217.0,1.5,55,165.83
4685,C3,1217.0,1.5,55,165.83
4686,E6,1217.25,0.25,44,165.83
4687,E5,1217.5,0.25,41,165.83
4688,E6,1217.75,0.25,45,165.83
4689,F6,1218.0,0.25,44,165.83
4690,C6,1218.25,0.25,41,165.83
4691,G#5,1218.5,0.25,40,165.83
4692,F2,1218.5,3.0,44,165.83
4693,C6,1218.75,0.25,36,165.83
4694,F6,1219.0,0.25,39,165.83
4695,C6,1219.25,0.25,36,165.83
4696,G#5,1219.5,0.25,42,165.83
4697,C6,1219.75,0.25,38,165.83
4698,F6,1220.0,0.25,38,165.83
4699,C6,1220.25,0.25,34,165.83
4700,G#5,1220.5,0.25,37,165.83
4701,C6,1220.75,0.25,33,165.83
4702,F6,1221.0,0.25,39,165.83
4703,C6,1221.25,0.25,36,165.83
4704,G#5,1221.5,0.25,36,165.83
4705,C2,1221.5,1.5,36,165.83
4706,C6,1221.75,0.25,32,165.83
4707,F6,1222.0,0.25,35,165.83
4708,C6,1222.25,0.25,31,165.83
4709,F6,1222.5,0.25,36,165.83
4710,C6,1222.75,0.25,34,165.83
4711,F6,1223.0,0.25,34,165.83
4712,G#1,1223.0,1.5,30,165.83
4713,C6,1223.25,0.25,30,165.83
4714,F6,1223.5,0.25,33,165.83
4715,C6,1223.75,0.25,30,165.83
4716,F6,1224.0,0.25,38,165.83
4717,C6,1224.25,0.25,30,165.83
4718,G#5,1224.5,0.25,37,165.83
4719,F1,1224.5,4.5,24,165.83
4720,C6,1224.75,0.25,30,165.83
4721,F6,1225.0,0.25,33,165.83
4722,C6,1225.25,0.25,30,165.83
4723,G#5,1225.5,0.25,36,165.83
4724,C6,1225.75,0.25,30,165.83
4725,F6,1226.0,0.25,35,165.83
4726,C6,1226.25,0.25,30,165.83
4727,G#5,1226.5,0.25,31,165.83
4728,C6,1226.75,0.25,30,165.83
4729,F6,1227.0,0.25,38,165.83
4730,C6,1227.25,0.25,30,165.83
4731,G#5,1227.5,0.25,33,165.83
4732,C6,1227.75,0.25,29,165.83
4733,F6,1228.0,0.25,33,165.83
4734,C6,1228.25,0.25,28,165.83
4735,F6,1228.5,0.25,37,165.83
4736,C6,1228.75,0.25,33,165.83
4737,G#5,1229.0,0.25,34,165.83
4738,G#1,1229.0,1.25,29,165.83
4739,C6,1229.25,0.25,29,165.83
4740,F6,1229.5,0.25,33,165.83
4741,C6,1229.75,0.25,29,165.83
4742,F6,1230.0,0.25,38,165.83
4743,C6,1230.25,0.25,30,165.83
4744,C2,1230.25,0.25,26,165.83
4745,G#5,1230.5,0.25,37,165.83
4746,F2,1230.5,1.5,29,165.83
4747,C6,1230.75,0.25,30,165.83
4748,F6,1231.0,0.25,33,165.83
4749,C6,1231.25,0.25,30,165.83
4750,F6,1231.5,0.25,36,165.83
4751,C6,1231.75,0.25,30,165.83
4752,G#5,1232.0,0.25,35,165.83
4753,G#2,1232.0,1.25,29,165.83
4754,C6,1232.25,0.25,30,165.83
4755,F6,1232.5,0.25,31,165.83
4756,C6,1232.75,0.25,30,165.83
4757,F6,1233.0,0.25,38,165.83
4758,C6,1233.25,0.25,30,165.83
4759,C3,1233.25,0.25,26,165.83
4760,G#5,1233.5,0.25,33,165.83
4761,F3,1233.5,1.5,29,165.83
4762,C6,1233.75,0.25,29,165.83
4763,F6,1234.0,0.25,33,165.83
4764,C6,1234.25,0.25,28,165.83
4765,F6,1234.5,0.25,37,165.83
4766,C6,1234.75,0.25,33,165.83
4767,G#5,1235.0,0.25,34,165.83
4768,F2,1235.0,1.5,28,165.83
4769,C6,1235.25,0.25,29,165.83
4770,F6,1235.5,0.25,33,165.83
4771,C6,1235.75,0.25,29,165.83
4772,E-6,1236.0,0.25,38,165.83
4773,C6,1236.25,0.25,30,165.83
4774,G#5,1236.5,0.25,37,165.83
4775,F#2,1236.5,4.5,34,165.83
4776,C6,1236.75,0.25,30,165.83
4777,E-6,1237.0,0.25,33,165.83
4778,C6,1237.25,0.25,30,165.83
4779,G#5,1237.5,0.25,36,165.83
4780,C6,1237.75,0.25,30,165.83
4781,E-6,1238.0,0.25,35,165.83
4782,C6,1238.25,0.25,30,165.83
4783,G#5,1238.5,0.25,31,165.83
4784,C6,1238.75,0.25,30,165.83
4785,E-6,1239.0,0.25,38,165.83
4786,C6,1239.25,0.25,30,165.83
4787,G#5,1239.5,0.25,33,165.83
4788,C6,1239.75,0.25,29,165.83
4789,E-6,1240.0,0.25,33,165.83
4790,C6,1240.25,0.25,28,165.83
4791,E-6,1240.5,0.25,37,165.83
4792,C6,1240.75,0.25,33,165.83
4793,G#5,1241.0,0.25,34,165.83
4794,C3,1241.0,1.25,33,165.83
4795,C6,1241.25,0.25,29,165.83
4796,E-6,1241.5,0.25,33,165.83
4797,C6,1241.75,0.25,29,165.83
4798,E-6,1242.0,0.25,38,165.83
4799,C6,1242.25,0.25,30,165.83
4800,E-3,1242.25,0.25,28,165.83
4801,G#5,1242.5,0.25,37,165.83
4802,F#3,1242.5,1.5,33,165.83
4803,C6,1242.75,0.25,30,165.83
4804,E-6,1243.0,0.25,33,165.83
4805,C6,1243.25,0.25,30,165.83
4806,E-6,1243.5,0.25,36,165.83
4807,C6,1243.75,0.25,30,165.83
4808,G#5,1244.0,0.25,35,165.83
4809,C4,1244.0,1.25,33,165.83
4810,C6,1244.25,0.25,30,165.83
4811,E-6,1244.5,0.25,31,165.83
4812,C6,1244.75,0.25,30,165.83
4813,E-6,1245.0,0.25,38,165.83
4814,C6,1245.25,0.25,30,165.83
4815,E-4,1245.25,0.25,28,165.83
4816,G#5,1245.5,0.25,33,165.83
4817,F#4,1245.5,1.5,33,165.83
4818,C6,1245.75,0.25,29,165.83
4819,E-6,1246.0,0.25,33,165.83
4820,C6,1246.25,0.25,28,165.83
4821,E-6,1246.5,0.25,37,165.83
4822,C6,1246.75,0.25,33,165.83
4823,G#5,1247.0,0.25,34,165.83
4824,F#3,1247.0,1.5,30,165.83
4825,C6,1247.25,0.25,29,165.83
4826,E-6,1247.5,0.25,33,165.83
4827,C6,1247.75,0.25,29,165.83
4828,F6,1248.0,0.25,38,165.83
4829,C#6,1248.25,0.25,30,165.83
4830,G#5,1248.5,0.25,37,165.83
4831,F3,1248.5,1.5,33,165.83
4832,C#6,1248.75,0.25,30,165.83
4833,F6,1249.0,0.25,33,165.83
4834,C#6,1249.25,0.25,31,165.83
4835,F6,1249.5,0.25,37,165.83
4836,C#6,1249.75,0.25,30,165.83
4837,G#5,1250.0,0.25,36,165.83
4838,G#3,1250.0,1.25,34,165.83
4839,C#6,1250.25,0.25,31,165.83
4840,F6,1250.5,0.25,34,165.83
4841,C#6,1250.75,0.25,33,165.83
4842,F6,1251.0,0.25,40,165.83
4843,C#6,1251.25,0.25,33,165.83
4844,C#4,1251.25,0.25,30,165.83
4845,G#5,1251.5,0.25,35,165.83
4846,F4,1251.5,1.5,36,165.83
4847,C#6,1251.75,0.25,31,165.83
4848,F6,1252.0,0.25,35,165.83
4849,C#6,1252.25,0.25,30,165.83
4850,F6,1252.5,0.25,40,165.83
4851,C#6,1252.75,0.25,36,165.83
4852,G#5,1253.0,0.25,37,165.83
4853,F3,1253.0,1.5,35,165.83
4854,C#6,1253.25,0.25,33,165.83
4855,F6,1253.5,0.25,36,165.83
4856,C#6,1253.75,0.25,33,165.83
4857,F#6,1254.0,0.25,40,165.83
4858,C6,1254.25,0.25,35,165.83
4859,G#5,1254.5,0.25,40,165.83
4860,E-3,1254.5,1.25,40,165.83
4861,C6,1254.75,0.25,35,165.83
4862,F#6,1255.0,0.25,37,165.83
4863,C6,1255.25,0.25,36,165.83
4864,F#6,1255.5,0.25,42,165.83
4865,C6,1255.75,0.25,35,165.83
4866,F#3,1255.75,0.25,36,165.83
4867,G#5,1256.0,0.25,41,165.83
4868,G#3,1256.0,1.25,42,165.83
4869,C6,1256.25,0.25,37,165.83
4870,F#6,1256.5,0.25,38,165.83
4871,C6,1256.75,0.25,37,165.83
4872,F#6,1257.0,0.25,44,165.83
4873,C6,1257.25,0.25,36,165.83
4874,C4,1257.25,0.25,38,165.83
4875,G#5,1257.5,0.25,44,165.83
4876,E-4,1257.5,1.25,44,165.83
4877,C6,1257.75,0.25,38,165.83
4878,F#6,1258.0,0.25,39,165.83
4879,C6,1258.25,0.25,38,165.83
4880,F#6,1258.5,0.25,45,165.83
4881,E-6,1258.75,0.25,38,165.83
4882,F#4,1258.75,0.25,39,165.83
4883,G#5,1259.0,0.25,44,165.83
4884,G#4,1259.0,1.25,47,165.83
4885,E-6,1259.25,0.25,39,165.83
4886,F#6,1259.5,0.25,39,165.83
4887,E-6,1259.75,0.25,39,165.83
4888,F6,1260.0,1.0,55,165.83
4889,C5,1260.25,0.25,42,165.83
4890,C#4,1260.5,0.5,33,165.83
4891,F4,1261.0,0.5,26,165.83
4892,G#4,1261.0,0.5,26,165.83
4893,C#5,1261.0,0.5,26,165.83
4894,C#4,1261.5,0.5,31,165.83
4895,F4,1262.0,0.5,28,165.83
4896,G#4,1262.0,0.5,28,165.83
4897,C#5,1262.0,0.5,28,165.83
4898,C#4,1262.5,0.5,31,165.83
4899,F4,1263.0,0.5,26,165.83
4900,G#4,1263.0,0.5,26,165.83
4901,C#5,1263.0,0.5,26,165.83
4902,C#4,1263.5,0.5,33,165.83
4903,F4,1264.0,0.5,26,165.83
4904,G#4,1264.0,0.5,26,165.83
4905,C#5,1264.0,0.5,26,165.83
4906,F5,1264.5,1.25,62,165.83
4907,C#4,1264.5,0.5,31,165.83
4908,F4,1265.0,0.5,28,165.83
4909,C#5,1265.0,0.5,28,165.83
4910,G#4,1265.0,0.5,28,165.83
4911,C#4,1265.5,0.5,31,165.83
4912,G#5,1265.75,0.25,57,165.83
4913,C#6,1266.0,1.5,66,165.83
4914,F4,1266.0,0.5,27,165.83
4915,G#4,1266.0,0.5,27,165.83
4916,C#5,1266.0,0.5,27,165.83
4917,C#4,1266.5,0.5,33,165.83
4918,F4,1267.0,0.5,26,165.83
4919,G#4,1267.0,0.5,26,165.83
4920,C#5,1267.0,0.5,26,165.83
4921,F6,1267.5,1.25,62,165.83
4922,C#4,1267.5,0.5,31,165.83
4923,F4,1268.0,0.5,28,165.83
4924,G#4,1268.0,0.5,28,165.83
4925,C#5,1268.0,0.5,28,165.83
4926,C#4,1268.5,0.5,31,165.83
4927,C#6,1268.75,0.25,55,165.83
4928,C6,1269.0,1.5,63,165.83
4929,G#4,1269.0,0.5,26,165.83
4930,C#5,1269.0,0.5,26,165.83
4931,F4,1269.0,0.5,26,165.83
4932,E-4,1269.5,0.5,33,165.83
4933,F#4,1270.0,0.5,26,165.83
4934,G#4,1270.0,0.5,26,165.83
4935,E-5,1270.0,0.5,26,165.83
4936,E-6,1270.5,1.25,66,165.83
4937,E-4,1270.5,0.5,31,165.83
4938,G#4,1271.0,0.5,28,165.83
4939,F#4,1271.0,0.5,28,165.83
4940,E-5,1271.0,0.5,28,165.83
4941,E-4,1271.5,0.5,31,165.83
4942,C6,1271.75,0.25,55,165.83
4943,C#6,1272.0,1.5,66,165.83
4944,F#4,1272.0,0.5,27,165.83
4945,G#4,1272.0,0.5,27,165.83
4946,E-5,1272.0,0.5,27,165.83
4947,F4,1272.5,0.5,33,165.83
4948,G#4,1273.0,0.5,26,165.83
4949,F5,1273.0,0.5,26,165.83
4950,C#5,1273.0,0.5,26,165.83
4951,G#5,1273.5,3.0,59,165.83
4952,F4,1273.5,0.5,31,165.83
4953,F5,1274.0,0.5,28,165.83
4954,C#5,1274.0,0.5,28,165.83
4955,G#4,1274.0,0.5,28,165.83
4956,F4,1274.5,0.5,31,165.83
4957,G#4,1275.0,0.5,26,165.83
4958,F5,1275.0,0.5,26,165.83
4959,C#5,1275.0,0.5,26,165.83
4960,F4,1275.5,0.5,33,165.83
4961,F5,1276.0,0.5,26,165.83
4962,G#4,1276.0,0.5,26,165.83
4963,C#5,1276.0,0.5,26,165.83
4964,F5,1276.5,1.25,68,165.83
4965,F4,1276.5,0.5,31,165.83
4966,C#5,1277.0,0.5,36,165.83
4967,G#4,1277.0,0.5,36,165.83
4968,G#4,1277.5,0.5,34,165.83
4969,G#5,1277.75,0.25,62,165.83
4970,C#6,1278.0,1.5,71,165.83
4971,G#4,1278.0,0.5,35,165.83
4972,C#5,1278.0,0.5,35,165.83
4973,F4,1278.5,0.5,36,165.83
4974,G#4,1279.0,0.5,28,165.83
4975,C#5,1279.0,0.5,28,165.83
4976,F5,1279.0,0.5,28,165.83
4977,F6,1279.5,1.25,74,165.83
4978,F4,1279.5,0.5,34,165.83
4979,C#5,1280.0,0.5,32,165.83
4980,G#4,1280.0,0.5,32,165.83
4981,F5,1280.0,0.5,32,165.83
4982,F4,1280.5,0.5,35,165.83
4983,C#6,1280.75,0.25,64,165.83
4984,C6,1281.0,1.5,75,165.83
4985,F5,1281.0,0.5,30,165.83
4986,C#5,1281.0,0.5,30,165.83
4987,G#4,1281.0,0.5,30,165.83
4988,F#4,1281.5,0.5,39,165.83
4989,A4,1282.0,0.5,31,165.83
4990,E-5,1282.0,0.5,31,165.83
4991,C5,1282.0,0.5,31,165.83
4992,E-6,1282.5,1.25,80,165.83
4993,F#4,1282.5,0.5,38,165.83
4994,E-5,1283.0,0.5,40,165.83
4995,A4,1283.0,0.5,40,165.83
4996,C5,1283.0,0.5,40,165.83
4997,F#4,1283.5,0.5,38,165.83
4998,C6,1283.75,0.25,71,165.83
4999,B5,1284.0,1.5,85,165.83
5000,E-5,1284.0,0.5,40,165.83
5001,A4,1284.0,0.5,40,165.83
5002,C5,1284.0,0.5,40,165.83
5003,F4,1284.5,0.5,49,165.83
5004,D5,1285.0,0.5,33,165.83
5005,B4,1285.0,0.5,33,165.83
5006,G#4,1285.0,0.5,33,165.83
5007,D6,1285.5,3.0,95,165.83
5008,F4,1285.5,0.5,41,165.83
5009,G#4,1286.0,0.5,38,165.83
5010,D5,1286.0,0.5,38,165.83
5011,B4,1286.0,0.5,38,165.83
5012,F4,1286.5,0.5,42,165.83
5013,G#4,1287.0,0.5,37,165.83
5014,D5,1287.0,0.5,37,165.83
5015,B4,1287.0,0.5,37,165.83
5016,F4,1287.5,0.5,49,165.83
5017,G#4,1288.0,0.5,40,165.83
5018,B4,1288.0,0.5,40,165.83
5019,D5,1288.0,0.5,40,165.83
5020,D6,1288.5,1.25,84,165.83
5021,F4,1288.5,0.5,48,165.83
5022,B4,1289.0,0.5,46,165.83
5023,G#4,1289.0,0.5,46,165.83
5024,D5,1289.0,0.5,46,165.83
5025,F4,1289.5,0.5,50,165.83
5026,B5,1289.75,0.25,79,165.83
5027,C6,1290.0,1.5,85,165.83
5028,D5,1290.0,0.5,45,165.83
5029,G#4,1290.0,0.5,45,165.83
5030,B4,1290.0,0.5,45,165.83
5031,E4,1290.5,0.5,54,165.83
5032,E5,1291.0,0.5,40,165.83
5033,C5,1291.0,0.5,40,165.83
5034,G4,1291.0,0.5,40,165.83
5035,E6,1291.5,3.0,97,165.83
5036,E4,1291.5,0.5,51,165.83
5037,G4,1292.0,0.5,46,165.83
5038,E5,1292.0,0.5,46,165.83
5039,C5,1292.0,0.5,46,165.83
5040,E4,1292.5,0.5,47,165.83
5041,G4,1293.0,0.5,45,165.83
5042,E5,1293.0,0.5,45,165.83
5043,C5,1293.0,0.5,45,165.83
5044,E4,1293.5,0.5,49,165.83
5045,G4,1294.0,0.5,47,165.83
5046,C5,1294.0,0.5,47,165.83
5047,E5,1294.0,0.5,47,165.83
5048,E4,1294.5,0.5,48,165.83
5049,G6,1294.5,1.25,78,165.83
5050,G5,1294.5,1.25,78,165.83
5051,C5,1295.0,0.5,46,165.83
5052,G4,1295.0,0.5,46,165.83
5053,E5,1295.0,0.5,46,165.83
5054,E4,1295.5,0.5,50,165.83
5055,F5,1295.75,0.25,73,165.83
5056,F6,1295.75,0.25,73,165.83
5057,E6,1296.0,1.5,78,165.83
5058,E5,1296.0,1.5,78,165.83
5059,E5,1296.0,0.5,45,165.83
5060,G4,1296.0,0.5,45,165.83
5061,C5,1296.0,0.5,45,165.83
5062,B-3,1296.5,0.5,54,165.83
5063,G4,1297.0,0.5,40,165.83
5064,E4,1297.0,0.5,40,165.83
5065,C#4,1297.0,0.5,40,165.83
5066,B-3,1297.5,0.5,51,165.83
5067,G5,1297.5,3.0,86,165.83
5068,G6,1297.5,3.0,86,165.83
5069,C#4,1298.0,0.5,46,165.83
5070,G4,1298.0,0.5,46,165.83
5071,E4,1298.0,0.5,46,165.83
5072,B-3,1298.5,0.5,47,165.83
5073,C#4,1299.0,0.5,45,165.83
5074,G4,1299.0,0.5,45,165.83
5075,E4,1299.0,0.5,45,165.83
5076,B-3,1299.5,0.5,49,165.83
5077,E4,1300.0,0.5,47,165.83
5078,G4,1300.0,0.5,47,165.83
5079,C#4,1300.0,0.5,47,165.83
5080,B-3,1300.5,0.5,48,165.83
5081,G5,1300.5,1.25,81,165.83
5082,G6,1300.5,1.25,81,165.83
5083,C#4,1301.0,0.5,48,165.83
5084,G4,1301.0,0.5,48,165.83
5085,E4,1301.0,0.5,48,165.83
5086,B-3,1301.5,0.5,52,165.83
5087,E5,1301.75,0.25,76,165.83
5088,E6,1301.75,0.25,76,165.83
5089,F6,1302.0,1.5,82,165.83
5090,F5,1302.0,1.5,82,165.83
5091,C#4,1302.0,0.5,47,165.83
5092,E4,1302.0,0.5,47,165.83
5093,G4,1302.0,0.5,47,165.83
5094,G#3,1302.5,0.5,56,165.83
5095,C4,1303.0,0.5,42,165.83
5096,F4,1303.0,0.5,42,165.83
5097,G#4,1303.0,0.5,42,165.83
5098,G#3,1303.5,0.5,53,165.83
5099,G#6,1303.5,3.0,88,165.83
5100,G#5,1303.5,3.0,88,165.83
5101,F4,1304.0,0.5,48,165.83
5102,G#4,1304.0,0.5,48,165.83
5103,C4,1304.0,0.5,48,165.83
5104,G#3,1304.5,0.5,49,165.83
5105,F4,1305.0,0.5,47,165.83
5106,G#4,1305.0,0.5,47,165.83
5107,C4,1305.0,0.5,47,165.83
5108,G#3,1305.5,0.5,51,165.83
5109,F4,1306.0,0.5,49,165.83
5110,G#4,1306.0,0.5,49,165.83
5111,C4,1306.0,0.5,49,165.83
5112,G#3,1306.5,0.5,50,165.83
5113,G#6,1306.5,1.25,81,165.83
5114,G#5,1306.5,1.25,81,165.83
5115,C4,1307.0,0.5,48,165.83
5116,G#4,1307.0,0.5,48,165.83
5117,F4,1307.0,0.5,48,165.83
5118,G#3,1307.5,0.5,52,165.83
5119,F6,1307.75,0.25,76,165.83
5120,F5,1307.75,0.25,76,165.83
5121,C4,1308.0,0.5,47,165.83
5122,F4,1308.0,0.5,47,165.83
5123,G#4,1308.0,0.5,47,165.83
5124,C#4,1308.25,0.25,80,165.83
5125,B-3,1308.5,0.25,77,165.83
5126,B-1,1308.5,0.5,101,165.83
5127,B-2,1308.5,0.5,101,165.83
5128,F#4,1308.75,0.25,72,165.83
5129,C#3,1309.5,0.25,75,165.83
5130,F#4,1309.75,0.25,75,165.83
5131,F#3,1309.75,0.25,69,165.83
5132,C#4,1310.0,0.25,78,165.83
5133,B-3,1310.0,0.5,86,165.83
5134,B-4,1310.25,0.25,73,165.83
5135,F#3,1311.0,0.25,75,165.83
5136,B-4,1311.25,0.25,74,165.83
5137,B-3,1311.25,0.25,73,165.83
5138,F#4,1311.5,0.25,80,165.83
5139,C#4,1311.5,0.5,86,165.83
5140,C#5,1311.75,0.25,74,165.83
5141,B-3,1312.5,0.25,78,165.83
5142,C#5,1312.75,0.25,75,165.83
5143,C#4,1312.75,0.25,73,165.83
5144,B-4,1313.0,0.25,80,165.83
5145,F#4,1313.0,0.5,84,165.83
5146,F#5,1313.25,0.25,72,165.83
5147,C#4,1314.0,0.25,77,165.83
5148,F#5,1314.25,0.25,74,165.83
5149,F#4,1314.25,0.25,71,165.83
5150,C#5,1314.5,0.25,77,165.83
5151,B-4,1314.5,0.5,81,165.83
5152,B-5,1314.75,0.25,72,165.83
5153,F#4,1315.5,0.25,75,165.83
5154,B-5,1315.75,0.25,71,165.83
5155,B-4,1315.75,0.25,74,165.83
5156,F#5,1316.0,0.25,75,165.83
5157,C#5,1316.0,0.5,81,165.83
5158,C#6,1316.25,0.25,73,165.83
5159,B-4,1317.0,0.25,75,165.83
5160,C#6,1317.25,0.25,74,165.83
5161,C#5,1317.25,0.25,73,165.83
5162,B-5,1317.5,0.25,80,165.83
5163,F#5,1317.5,0.5,84,165.83
5164,F#6,1317.75,0.25,74,165.83
5165,C#5,1318.5,0.25,75,165.83
5166,F#5,1318.75,0.25,74,165.83
5167,F#6,1319.0,0.25,82,165.83
5168,B-5,1319.0,0.5,83,165.83
5169,C#6,1319.25,0.25,79,165.83
5170,B-6,1319.5,0.5,84,165.83
5171,E-4,1320.25,0.25,80,165.83
5172,C4,1320.5,0.25,77,165.83
5173,C3,1320.5,0.5,101,165.83
5174,C2,1320.5,0.5,101,165.83
5175,A4,1320.75,0.25,72,165.83
5176,E-3,1321.5,0.25,80,165.83
5177,A4,1321.75,0.25,75,165.83
5178,A3,1321.75,0.25,73,165.83
5179,E-4,1322.0,0.25,78,165.83
5180,C4,1322.0,0.5,89,165.83
5181,C5,1322.25,0.25,73,165.83
5182,A3,1323.0,0.25,78,165.83
5183,C5,1323.25,0.25,74,165.83
5184,C4,1323.25,0.25,73,165.83
5185,A4,1323.5,0.25,80,165.83
5186,E-4,1323.5,0.5,86,165.83
5187,E-5,1323.75,0.25,74,165.83
5188,C4,1324.5,0.25,78,165.83
5189,E-5,1324.75,0.25,75,165.83
5190,E-4,1324.75,0.25,73,165.83
5191,C5,1325.0,0.25,80,165.83
5192,A4,1325.0,0.5,84,165.83
5193,A5,1325.25,0.25,72,165.83
5194,E-4,1326.0,0.25,77,165.83
5195,A5,1326.25,0.25,75,165.83
5196,A4,1326.25,0.25,71,165.83
5197,E-5,1326.5,0.25,77,165.83
5198,C5,1326.5,0.5,82,165.83
5199,C6,1326.75,0.25,72,165.83
5200,A4,1327.5,0.25,75,165.83
5201,C6,1327.75,0.25,71,165.83
5202,C5,1327.75,0.25,73,165.83
5203,A5,1328.0,0.25,75,165.83
5204,E-5,1328.0,0.5,85,165.83
5205,E-6,1328.25,0.25,73,165.83
5206,C5,1329.0,0.25,75,165.83
5207,E-6,1329.25,0.25,74,165.83
5208,E-5,1329.25,0.25,73,165.83
5209,C6,1329.5,0.25,80,165.83
5210,A5,1329.5,0.5,84,165.83
5211,A6,1329.75,0.25,74,165.83
5212,E-5,1330.5,0.25,80,165.83
5213,A5,1330.75,0.25,74,165.83
5214,A6,1331.0,0.25,83,165.83
5215,C6,1331.0,0.5,85,165.83
5216,E-6,1331.25,0.25,77,165.83
5217,C7,1331.5,0.5,83,165.83
5218,F4,1332.25,0.25,74,165.83
5219,C#4,1332.5,0.25,77,165.83
5220,C#2,1332.5,0.5,101,165.83
5221,C#3,1332.5,0.5,101,165.83
5222,B-4,1332.75,0.25,72,165.83
5223,F3,1333.5,0.25,78,165.83
5224,B-3,1333.75,0.25,73,165.83
5225,B-4,1334.0,0.25,75,165.83
5226,C#4,1334.0,0.5,84,165.83
5227,F4,1334.25,0.25,72,165.83
5228,C#5,1334.5,0.5,73,165.83
5229,G4,1335.25,0.25,75,165.83
5230,E4,1335.5,0.25,77,165.83
5231,E3,1335.5,0.5,101,165.83
5232,E2,1335.5,0.5,101,165.83
5233,C5,1335.75,0.25,72,165.83
5234,G3,1336.5,0.25,80,165.83
5235,C4,1336.75,0.25,73,165.83
5236,C5,1337.0,0.25,75,165.83
5237,E4,1337.0,0.5,82,165.83
5238,G4,1337.25,0.25,72,165.83
5239,E5,1337.5,0.5,73,165.83
5240,G#4,1338.25,0.25,73,165.83
5241,F4,1338.5,0.25,77,165.83
5242,F3,1338.5,0.5,101,165.83
5243,F2,1338.5,0.5,101,165.83
5244,C#5,1338.75,0.25,72,165.83
5245,G#3,1339.5,0.25,80,165.83
5246,C#4,1339.75,0.25,73,165.83
5247,C#5,1340.0,0.25,75,165.83
5248,F4,1340.0,0.5,86,165.83
5249,G#4,1340.25,0.25,71,165.83
5250,F5,1340.5,0.5,73,165.83
5251,B-4,1341.25,0.25,80,165.83
5252,G4,1341.5,0.25,77,165.83
5253,G2,1341.5,0.5,101,165.83
5254,G3,1341.5,0.5,101,165.83
5255,E5,1341.75,0.25,72,165.83
5256,B-3,1342.5,0.25,80,165.83
5257,E4,1342.75,0.25,73,165.83
5258,E5,1343.0,0.25,75,165.83
5259,G4,1343.0,0.5,86,165.83
5260,B-4,1343.25,0.25,73,165.83
5261,G5,1343.5,0.5,73,165.83
5262,C5,1344.25,0.25,64,165.83
5263,G#4,1344.5,0.25,69,165.83
5264,G#2,1344.5,0.5,75,165.83
5265,F5,1344.75,0.25,64,165.83
5266,G#3,1345.5,0.25,69,165.83
5267,C#5,1345.75,0.25,64,165.83
5268,C4,1345.75,0.25,61,165.83
5269,B-4,1346.0,0.25,69,165.83
5270,B-2,1346.0,0.5,77,165.83
5271,G5,1346.25,0.25,67,165.83
5272,B-3,1347.0,0.25,69,165.83
5273,E-5,1347.25,0.25,69,165.83
5274,C#4,1347.25,0.25,64,165.83
5275,C5,1347.5,0.25,73,165.83
5276,C3,1347.5,0.5,78,165.83
5277,A5,1347.75,0.25,69,165.83
5278,C4,1348.5,0.25,71,165.83
5279,F5,1348.75,0.25,71,165.83
5280,E-4,1348.75,0.25,67,165.83
5281,C#5,1349.0,0.25,68,165.83
5282,C#3,1349.0,0.5,81,165.83
5283,B-5,1349.25,0.25,70,165.83
5284,C#4,1350.0,0.25,77,165.83
5285,G5,1350.25,0.25,71,165.83
5286,F4,1350.25,0.25,71,165.83
5287,E5,1350.5,0.25,73,165.83
5288,E3,1350.5,0.5,80,165.83
5289,C6,1350.75,0.25,70,165.83
5290,E4,1351.5,0.25,77,165.83
5291,G#5,1351.75,0.25,69,165.83
5292,G4,1351.75,0.25,73,165.83
5293,F5,1352.0,0.25,73,165.83
5294,F3,1352.0,0.5,83,165.83
5295,C#6,1352.25,0.25,72,165.83
5296,F4,1353.0,0.25,77,165.83
5297,B-5,1353.25,0.25,74,165.83
5298,G#4,1353.25,0.25,72,165.83
5299,G5,1353.5,0.25,78,165.83
5300,G3,1353.5,0.5,84,165.83
5301,E6,1353.75,0.25,74,165.83
5302,G4,1354.5,0.25,78,165.83
5303,C6,1354.75,0.25,75,165.83
5304,B-4,1354.75,0.25,74,165.83
5305,G#5,1355.0,0.25,77,165.83
5306,G#3,1355.0,0.5,85,165.83
5307,F6,1355.25,0.25,75,165.83
5308,G#4,1356.0,0.25,77,165.83
5309,C#6,1356.25,0.25,78,165.83
5310,C5,1356.25,0.25,73,165.83
5311,B-5,1356.5,0.25,79,165.83
5312,B-3,1356.5,0.5,86,165.83
5313,G6,1356.75,0.25,74,165.83
5314,B-4,1357.5,0.25,81,165.83
5315,E-6,1357.75,0.25,74,165.83
5316,C#5,1357.75,0.25,77,165.83
5317,C6,1358.0,0.25,79,165.83
5318,C4,1358.0,0.5,89,165.83
5319,A6,1358.25,0.25,74,165.83
5320,C5,1359.0,0.25,80,165.83
5321,F6,1359.25,0.25,79,165.83
5322,E-5,1359.25,0.25,78,165.83
5323,C#6,1359.5,0.25,80,165.83
5324,C#4,1359.5,0.5,89,165.83
5325,B-6,1359.75,0.25,79,165.83
5326,C#5,1360.5,0.25,83,165.83
5327,F6,1360.75,0.25,81,165.83
5328,F5,1360.75,0.25,80,165.83
5329,C#6,1361.0,0.25,83,165.83
5330,C#4,1361.0,0.5,92,165.83
5331,B-6,1361.25,0.25,80,165.83
5332,C#5,1362.0,0.25,84,165.83
5333,F5,1362.25,0.25,80,165.83
5334,F2,1362.5,0.25,108,165.83
5335,F6,1362.75,0.25,78,165.83
5336,F3,1362.75,0.25,100,165.83
5337,C#6,1363.0,0.25,82,165.83
5338,G#3,1363.0,0.25,92,165.83
5339,B-6,1363.25,0.25,79,165.83
5340,F6,1363.5,0.25,89,165.83
5341,C#6,1363.75,0.25,83,165.83
5342,B-5,1364.0,0.25,78,165.83
5343,F5,1364.25,0.25,78,165.83
5344,C#5,1364.5,0.25,82,165.83
5345,B-5,1364.75,0.25,79,165.83
5346,F5,1365.0,0.25,86,165.83
5347,C#5,1365.25,0.25,82,165.83
5348,B-4,1365.5,0.25,80,165.83
5349,F4,1365.75,0.25,74,165.83
5350,C#4,1366.0,0.25,78,165.83
5351,B-4,1366.25,0.25,73,165.83
5352,F4,1366.5,0.25,81,165.83
5353,C#4,1366.75,0.25,78,165.83
5354,B-3,1367.5,0.25,74,165.83
5355,F3,1367.75,0.25,74,165.83
5356,C#3,1368.0,0.25,74,165.83
5357,B-3,1368.25,0.25,74,165.83
5358,F3,1368.5,0.25,79,165.83
5359,C#3,1368.75,0.25,71,165.83
5360,B-2,1369.0,0.25,74,165.83
5361,C#3,1369.25,0.25,71,165.83
5362,C#4,1369.5,0.25,80,165.83
5363,F3,1369.5,0.25,74,165.83
5364,F4,1369.75,0.25,75,165.83
5365,B-3,1369.75,0.25,72,165.83
5366,B-4,1370.0,0.25,75,165.83
5367,C#5,1370.25,0.25,75,165.83
5368,F5,1370.5,0.25,79,165.83
5369,C#5,1370.75,0.25,73,165.83
5370,B-4,1371.0,0.25,80,165.83
5371,C#5,1371.25,0.25,74,165.83
5372,F5,1371.5,0.25,79,165.83
5373,B-5,1371.75,0.25,74,165.83
5374,C#6,1372.0,0.25,82,165.83
5375,B-5,1372.25,0.25,75,165.83
5376,F6,1372.5,0.25,83,165.83
5377,C#6,1372.75,0.25,78,165.83
5378,B-6,1373.0,0.25,83,165.83
5379,F6,1373.25,0.25,78,165.83
5380,C#6,1373.5,0.25,80,165.83
5381,B-5,1373.75,0.25,75,165.83
5382,D4,1374.5,0.25,105,165.83
5383,G#6,1374.75,0.25,78,165.83
5384,D5,1374.75,0.25,100,165.83
5385,F6,1375.0,0.25,85,165.83
5386,F5,1375.0,0.25,92,165.83
5387,B6,1375.25,0.25,81,165.83
5388,G#6,1375.5,0.25,92,165.83
5389,F6,1375.75,0.25,80,165.83
5390,D6,1376.0,0.25,81,165.83
5391,B5,1376.25,0.25,77,165.83
5392,G#5,1376.5,0.25,81,165.83
5393,F5,1376.75,0.25,79,165.83
5394,B5,1377.0,0.25,85,165.83
5395,G#5,1377.25,0.25,82,165.83
5396,F5,1377.5,0.25,78,165.83
5397,D5,1377.75,0.25,74,165.83
5398,B4,1378.0,0.25,75,165.83
5399,G#4,1378.25,0.25,73,165.83
5400,D5,1378.5,0.25,81,165.83
5401,B4,1378.75,0.25,78,165.83
5402,G#4,1379.0,0.25,74,165.83
5403,F4,1379.25,0.25,74,165.83
5404,D4,1379.5,0.25,74,165.83
5405,B3,1379.75,0.25,74,165.83
5406,G#4,1380.0,0.25,79,165.83
5407,F4,1380.25,0.25,71,165.83
5408,D4,1380.5,0.25,74,165.83
5409,B3,1381.25,0.25,71,165.83
5410,G#3,1381.5,0.25,74,165.83
5411,F3,1381.75,0.25,72,165.83
5412,D3,1382.0,0.25,80,165.83
5413,B2,1382.25,0.25,75,165.83
5414,D3,1382.5,0.25,75,165.83
5415,F3,1382.75,0.25,75,165.83
5416,D4,1383.0,0.25,80,165.83
5417,G#3,1383.0,0.25,79,165.83
5418,F4,1383.25,0.25,74,165.83
5419,B3,1383.25,0.25,73,165.83
5420,G#4,1383.5,0.25,79,165.83
5421,B4,1383.75,0.25,74,165.83
5422,D5,1384.0,0.25,82,165.83
5423,F5,1384.25,0.25,75,165.83
5424,G#5,1384.5,0.25,83,165.83
5425,B5,1384.75,0.25,78,165.83
5426,D6,1385.0,0.25,83,165.83
5427,F6,1385.25,0.25,78,165.83
5428,G#6,1385.5,0.25,80,165.83
5429,B6,1385.75,0.25,75,165.83
5430,C2,1386.5,0.5,125,165.83
5431,G#6,1386.75,0.25,78,165.83
5432,F6,1387.0,0.25,82,165.83
5433,C7,1387.25,0.25,79,165.83
5434,G#6,1387.5,0.25,92,165.83
5435,F6,1387.75,0.25,83,165.83
5436,C6,1388.0,0.25,82,165.83
5437,G#5,1388.25,0.25,78,165.83
5438,F5,1388.5,0.25,82,165.83
5439,C6,1388.75,0.25,79,165.83
5440,G#5,1389.0,0.25,86,165.83
5441,F5,1389.25,0.25,82,165.83
5442,C5,1389.5,0.25,80,165.83
5443,G#4,1389.75,0.25,74,165.83
5444,F4,1390.0,0.25,78,165.83
5445,C5,1390.25,0.25,73,165.83
5446,G#4,1390.5,0.25,81,165.83
5447,F4,1390.75,0.25,78,165.83
5448,C4,1391.5,0.25,74,165.83
5449,G#3,1391.75,0.25,74,165.83
5450,F3,1392.0,0.25,74,165.83
5451,C4,1392.25,0.25,74,165.83
5452,G#3,1392.5,0.25,79,165.83
5453,F3,1392.75,0.25,71,165.83
5454,C3,1393.0,0.25,74,165.83
5455,G#2,1393.25,0.25,71,165.83
5456,F2,1393.5,0.25,74,165.83
5457,C2,1393.75,0.25,72,165.83
5458,F2,1394.0,0.25,80,165.83
5459,G#2,1394.25,0.25,75,165.83
5460,C3,1394.5,0.25,75,165.83
5461,F3,1394.75,0.25,75,165.83
5462,F4,1395.0,0.25,80,165.83
5463,G#3,1395.0,0.25,79,165.83
5464,G#4,1395.25,0.25,74,165.83
5465,C4,1395.25,0.25,73,165.83
5466,C5,1395.5,0.25,79,165.83
5467,F5,1395.75,0.25,74,165.83
5468,G#5,1396.0,0.25,78,165.83
5469,C6,1396.25,0.25,75,165.83
5470,F6,1396.5,0.25,83,165.83
5471,G#6,1396.75,0.25,78,165.83
5472,C7,1397.0,0.25,83,165.83
5473,G#6,1397.25,0.25,78,165.83
5474,F6,1397.5,0.25,80,165.83
5475,C6,1397.75,0.25,75,165.83
5476,C2,1398.5,0.25,82,165.83
5477,G6,1398.75,0.25,72,165.83
5478,C3,1398.75,0.25,72,165.83
5479,E6,1399.0,0.25,77,165.83
5480,E3,1399.0,0.25,73,165.83
5481,B-6,1399.25,0.25,73,165.83
5482,G3,1399.25,0.25,74,165.83
5483,G6,1399.5,0.25,78,165.83
5484,B-3,1399.5,0.5,74,165.83
5485,E6,1399.75,0.25,77,165.83
5486,C6,1400.0,0.25,74,165.83
5487,B-5,1400.25,0.25,72,165.83
5488,G5,1400.5,0.25,77,165.83
5489,E5,1400.75,0.25,73,165.83
5490,C5,1401.0,0.25,78,165.83
5491,B-4,1401.25,0.25,75,165.83
5492,G4,1401.5,0.25,71,165.83
5493,E4,1401.75,0.25,70,165.83
5494,C4,1402.5,0.25,73,165.83
5495,B-3,1402.75,0.25,69,165.83
5496,G3,1403.0,0.25,74,165.83
5497,E3,1403.25,0.25,69,165.83
5498,C3,1403.5,0.25,71,165.83
5499,B-2,1403.75,0.25,70,165.83
5500,G2,1404.0,0.25,70,165.83
5501,E2,1404.25,0.25,70,165.83
5502,C2,1404.5,0.25,75,165.83
5503,E2,1404.75,0.25,67,165.83
5504,G2,1405.0,0.25,70,165.83
5505,B-2,1405.25,0.25,67,165.83
5506,C3,1405.5,0.25,70,165.83
5507,E3,1405.75,0.25,68,165.83
5508,C4,1406.0,0.25,71,165.83
5509,G3,1406.0,0.25,76,165.83
5510,E4,1406.25,0.25,71,165.83
5511,B-3,1406.25,0.25,71,165.83
5512,G4,1406.5,0.25,73,165.83
5513,B-4,1406.75,0.25,69,165.83
5514,C5,1407.0,0.25,73,165.83
5515,E5,1407.25,0.25,66,165.83
5516,G5,1407.5,0.25,70,165.83
5517,E5,1407.75,0.25,66,165.83
5518,C5,1408.0,0.25,70,165.83
5519,E5,1408.25,0.25,66,165.83
5520,G5,1408.5,0.25,70,165.83
5521,E5,1408.75,0.25,60,165.83
5522,B-5,1409.0,0.25,65,165.83
5523,G5,1409.25,0.25,58,165.83
5524,E5,1409.5,0.25,63,165.83
5525,G5,1409.75,0.25,56,165.83
5526,B-5,1410.0,1.0,57,165.83
5527,C#3,1412.0,0.5,37,165.83
5528,C#3,1412.5,0.5,35,165.83
5529,C#3,1413.0,0.5,35,165.83
5530,C3,1413.5,1.0,36,165.83
5531,G5,1414.5,0.5,46,165.83
5532,E5,1414.5,0.5,46,165.83
5533,E5,1415.0,0.5,42,165.83
5534,G5,1415.0,0.5,42,165.83
5535,E5,1415.5,0.5,46,165.83
5536,G5,1415.5,0.5,46,165.83
5537,B-5,1416.0,1.0,46,165.83
5538,G5,1416.0,1.0,46,165.83
5539,C#3,1418.0,0.5,35,165.83
5540,C#3,1418.5,0.5,33,165.83
5541,C#3,1419.0,0.5,33,165.83
5542,C3,1419.5,1.0,34,165.83
5543,E4,1420.5,0.5,39,165.83
5544,G4,1420.5,0.5,39,165.83
5545,E4,1421.0,0.5,37,165.83
5546,G4,1421.0,0.5,37,165.83
5547,G4,1421.5,0.5,37,165.83
5548,E4,1421.5,0.5,37,165.83
5549,G4,1422.0,1.0,41,165.83
5550,B-4,1422.0,1.0,41,165.83
5551,C#2,1424.0,0.5,32,165.83
5552,C#2,1424.5,0.5,30,165.83
5553,C#2,1425.0,0.5,30,165.83
5554,C2,1425.5,1.5,31,165.83
5555,C#2,1427.0,0.5,31,165.83
5556,C#2,1427.5,0.5,29,165.83
5557,C#2,1428.0,0.5,29,165.83
5558,C2,1428.5,1.5,29,165.83
5559,B-4,1429.5,0.5,32,165.83
5560,G4,1429.5,0.5,32,165.83
5561,E5,1429.5,0.5,32,165.83
5562,C#2,1430.0,0.5,21,165.83
5563,E5,1430.0,0.5,36,165.83
5564,B-4,1430.0,0.5,36,165.83
5565,G4,1430.0,0.5,36,165.83
5566,C#2,1430.5,0.5,24,165.83
5567,E5,1430.5,0.5,39,165.83
5568,G4,1430.5,0.5,39,165.83
5569,B-4,1430.5,0.5,39,165.83
5570,C#2,1431.0,0.5,26,165.83
5571,E5,1431.0,1.5,43,165.83
5572,B-4,1431.0,1.5,43,165.83
5573,G4,1431.0,1.5,43,165.83
5574,C2,1431.5,1.5,28,165.83
5575,C6,1432.5,0.5,90,165.83
5576,B-5,1432.5,0.5,90,165.83
5577,G5,1432.5,0.5,90,165.83
5578,E5,1432.5,0.5,90,165.83
5579,E6,1432.5,0.5,90,165.83
5580,E5,1433.0,0.5,81,165.83
5581,C6,1433.0,0.5,81,165.83
5582,G5,1433.0,0.5,81,165.83
5583,E6,1433.0,0.5,81,165.83
5584,B-5,1433.0,0.5,81,165.83
5585,C2,1433.0,0.5,76,165.83
5586,C3,1433.0,0.5,76,165.83
5587,G5,1433.5,0.5,81,165.83
5588,E5,1433.5,0.5,81,165.83
5589,B-5,1433.5,0.5,81,165.83
5590,C6,1433.5,0.5,81,165.83
5591,E6,1433.5,0.5,81,165.83
5592,C3,1433.5,0.5,72,165.83
5593,C2,1433.5,0.5,72,165.83
5594,C6,1434.0,1.0,91,165.83
5595,G#5,1434.0,1.0,91,165.83
5596,F6,1434.0,1.0,91,165.83
5597,F5,1434.0,1.0,91,165.83
5598,C3,1434.0,0.5,72,165.83
5599,C2,1434.0,0.5,72,165.83
5600,F1,1434.5,0.5,78,165.83
5601,F2,1434.5,0.5,78,165.83
5602,F4,1435.0,0.5,30,165.83
5603,C4,1435.0,0.5,30,165.83
5604,G#3,1435.5,0.5,37,165.83
5605,F4,1436.0,0.5,37,165.83
5606,C4,1436.0,0.5,37,165.83
5607,G#3,1436.5,0.5,37,165.83
5608,C4,1437.0,0.5,34,165.83
5609,F4,1437.0,0.5,34,165.83
5610,G#3,1437.5,0.5,42,165.83
5611,F4,1438.0,0.5,34,165.83
5612,C4,1438.0,0.5,34,165.83
5613,G#4,1438.5,1.25,66,165.83
5614,G#3,1438.5,0.5,37,165.83
5615,F4,1439.0,0.5,37,165.83
5616,C4,1439.0,0.5,37,165.83
5617,G#3,1439.5,0.5,37,165.83
5618,C5,1439.75,0.25,58,165.83
5619,F5,1440.0,1.5,63,165.83
5620,F4,1440.0,0.5,36,165.83
5621,C4,1440.0,0.5,36,165.83
5622,G#3,1440.5,0.5,42,165.83
5623,C4,1441.0,0.5,33,165.83
5624,F4,1441.0,0.5,33,165.83
5625,G#5,1441.5,1.25,68,165.83
5626,G#3,1441.5,0.5,37,165.83
5627,F4,1442.0,0.5,37,165.83
5628,C4,1442.0,0.5,37,165.83
5629,G#3,1442.5,0.5,37,165.83
5630,F5,1442.75,0.25,60,165.83
5631,E5,1443.0,1.5,63,165.83
5632,F4,1443.0,0.5,34,165.83
5633,C4,1443.0,0.5,34,165.83
5634,B-3,1443.5,0.5,42,165.83
5635,G4,1444.0,0.5,34,165.83
5636,C4,1444.0,0.5,34,165.83
5637,G5,1444.5,1.25,68,165.83
5638,B-3,1444.5,0.5,37,165.83
5639,G4,1445.0,0.5,37,165.83
5640,C4,1445.0,0.5,37,165.83
5641,B-3,1445.5,0.5,37,165.83
5642,E5,1445.75,0.25,60,165.83
5643,F5,1446.0,1.5,63,165.83
5644,G4,1446.0,0.5,36,165.83
5645,C4,1446.0,0.5,36,165.83
5646,G#3,1446.5,0.5,42,165.83
5647,C4,1447.0,0.5,33,165.83
5648,F4,1447.0,0.5,33,165.83
5649,C5,1447.5,3.0,62,165.83
5650,G#3,1447.5,0.5,37,165.83
5651,C4,1448.0,0.5,37,165.83
5652,F4,1448.0,0.5,37,165.83
5653,G#3,1448.5,0.5,37,165.83
5654,C4,1449.0,0.5,34,165.83
5655,F4,1449.0,0.5,34,165.83
5656,G#3,1449.5,0.5,42,165.83
5657,C4,1450.0,0.5,34,165.83
5658,F4,1450.0,0.5,34,165.83
5659,G#3,1450.5,0.5,42,165.83
5660,G#5,1450.5,1.25,66,165.83
5661,G#4,1450.5,1.25,66,165.83
5662,C4,1451.0,0.5,39,165.83
5663,F4,1451.0,0.5,39,165.83
5664,G#3,1451.5,0.5,40,165.83
5665,C6,1451.75,0.25,57,165.83
5666,C5,1451.75,0.25,57,165.83
5667,F5,1452.0,1.5,67,165.83
5668,F6,1452.0,1.5,67,165.83
5669,C4,1452.0,0.5,38,165.83
5670,F4,1452.0,0.5,38,165.83
5671,G#3,1452.5,0.5,46,165.83
5672,G#4,1453.0,0.5,38,165.83
5673,C4,1453.0,0.5,38,165.83
5674,F4,1453.0,0.5,38,165.83
5675,G#3,1453.5,0.5,42,165.83
5676,G#6,1453.5,1.25,72,165.83
5677,G#5,1453.5,1.25,72,165.83
5678,G#4,1454.0,0.5,43,165.83
5679,C4,1454.0,0.5,43,165.83
5680,F4,1454.0,0.5,43,165.83
5681,G#3,1454.5,0.5,43,165.83
5682,F6,1454.75,0.25,65,165.83
5683,F5,1454.75,0.25,65,165.83
5684,E6,1455.0,1.5,70,165.83
5685,E5,1455.0,1.5,70,165.83
5686,G#4,1455.0,0.5,41,165.83
5687,F4,1455.0,0.5,41,165.83
5688,C4,1455.0,0.5,41,165.83
5689,B-3,1455.5,0.5,49,165.83
5690,E4,1456.0,0.5,39,165.83
5691,C4,1456.0,0.5,39,165.83
5692,G4,1456.0,0.5,39,165.83
5693,B-3,1456.5,0.5,46,165.83
5694,G6,1456.5,1.25,75,165.83
5695,G5,1456.5,1.25,75,165.83
5696,E4,1457.0,0.5,43,165.83
5697,G4,1457.0,0.5,43,165.83
5698,C4,1457.0,0.5,43,165.83
5699,B-3,1457.5,0.5,47,165.83
5700,E6,1457.75,0.25,71,165.83
5701,E5,1457.75,0.25,71,165.83
5702,F#6,1458.0,1.5,90,165.83
5703,F#5,1458.0,1.5,90,165.83
5704,E4,1458.0,0.5,42,165.83
5705,G4,1458.0,0.5,42,165.83
5706,C4,1458.0,0.5,42,165.83
5707,A3,1458.5,0.5,55,165.83
5708,F#4,1459.0,0.5,45,165.83
5709,E-4,1459.0,0.5,45,165.83
5710,C4,1459.0,0.5,45,165.83
5711,A3,1459.5,0.5,49,165.83
5712,C5,1459.5,3.0,71,165.83
5713,C6,1459.5,3.0,71,165.83
5714,F#4,1460.0,0.5,50,165.83
5715,C4,1460.0,0.5,50,165.83
5716,E-4,1460.0,0.5,50,165.83
5717,A3,1460.5,0.5,49,165.83
5718,C4,1461.0,0.5,46,165.83
5719,E-4,1461.0,0.5,46,165.83
5720,F#4,1461.0,0.5,46,165.83
5721,A3,1461.5,0.5,55,165.83
5722,F#4,1462.0,0.5,46,165.83
5723,C4,1462.0,0.5,46,165.83
5724,E-4,1462.0,0.5,46,165.83
5725,A3,1462.5,0.5,55,165.83
5726,E-5,1462.5,1.25,77,165.83
5727,E-6,1462.5,1.25,77,165.83
5728,E-4,1463.0,0.5,44,165.83
5729,F#4,1463.0,0.5,44,165.83
5730,C4,1463.0,0.5,44,165.83
5731,A3,1463.5,0.5,48,165.83
5732,C5,1463.75,0.25,72,165.83
5733,C6,1463.75,0.25,72,165.83
5734,F6,1464.0,1.5,90,165.83
5735,F5,1464.0,1.5,90,165.83
5736,E-4,1464.0,0.5,43,165.83
5737,F#4,1464.0,0.5,43,165.83
5738,C4,1464.0,0.5,43,165.83
5739,A3,1464.5,0.5,55,165.83
5740,F4,1465.0,0.5,45,165.83
5741,E-4,1465.0,0.5,45,165.83
5742,C4,1465.0,0.5,45,165.83
5743,A3,1465.5,0.5,49,165.83
5744,B-4,1465.5,3.0,71,165.83
5745,B-5,1465.5,3.0,71,165.83
5746,F4,1466.0,0.5,55,165.83
5747,C#4,1466.0,0.5,55,165.83
5748,B-3,1466.5,0.5,49,165.83
5749,C#4,1467.0,0.5,49,165.83
5750,F4,1467.0,0.5,49,165.83
5751,B-3,1467.5,0.5,55,165.83
5752,F4,1468.0,0.5,49,165.83
5753,C#4,1468.0,0.5,49,165.83
5754,B-3,1468.5,0.5,55,165.83
5755,C#5,1468.5,1.25,77,165.83
5756,C#6,1468.5,1.25,77,165.83
5757,G4,1469.0,0.5,46,165.83
5758,E4,1469.0,0.5,46,165.83
5759,B-3,1469.5,0.5,48,165.83
5760,B-5,1469.75,0.25,72,165.83
5761,B-4,1469.75,0.25,72,165.83
5762,G#4,1470.0,1.5,82,165.83
5763,G#5,1470.0,1.5,82,165.83
5764,E4,1470.0,0.5,46,165.83
5765,G4,1470.0,0.5,46,165.83
5766,C3,1470.5,0.5,55,165.83
5767,F3,1471.0,0.5,45,165.83
5768,G#3,1471.0,0.5,45,165.83
5769,C4,1471.0,0.5,45,165.83
5770,C3,1471.5,0.5,49,165.83
5771,C6,1471.5,1.25,77,165.83
5772,C5,1471.5,1.25,77,165.83
5773,G#3,1472.0,0.5,44,165.83
5774,C4,1472.0,0.5,44,165.83
5775,F3,1472.0,0.5,44,165.83
5776,C3,1472.5,0.5,48,165.83
5777,G#5,1472.75,0.25,72,165.83
5778,G#4,1472.75,0.25,72,165.83
5779,G5,1473.0,1.5,82,165.83
5780,G4,1473.0,1.5,82,165.83
5781,G#3,1473.0,0.5,43,165.83
5782,F3,1473.0,0.5,43,165.83
5783,C4,1473.0,0.5,43,165.83
5784,B-2,1473.5,0.5,55,165.83
5785,C3,1474.0,0.5,45,165.83
5786,E3,1474.0,0.5,45,165.83
5787,G3,1474.0,0.5,45,165.83
5788,B-2,1474.5,0.5,49,165.83
5789,G5,1474.5,1.25,84,165.83
5790,G6,1474.5,1.25,84,165.83
5791,E3,1475.0,0.5,43,165.83
5792,C3,1475.0,0.5,43,165.83
5793,G3,1475.0,0.5,43,165.83
5794,B-2,1475.5,0.5,47,165.83
5795,E5,1475.75,0.25,78,165.83
5796,E6,1475.75,0.25,78,165.83
5797,F#5,1475.958,21/500,94,165.83
5798,F#6,1475.958,21/500,94,165.83
5799,F#5,1476.0,729/500,94,165.83
5800,F#6,1476.0,729/500,94,165.83
5801,G3,1476.0,0.5,42,165.83
5802,C3,1476.0,0.5,42,165.83
5803,E3,1476.0,0.5,42,165.83
5804,A2,1476.5,0.5,53,165.83
5805,E-3,1477.0,0.5,44,165.83
5806,A3,1477.0,0.5,44,165.83
5807,F#3,1477.0,0.5,44,165.83
5808,A2,1477.458,0.5,48,165.83
5809,C5,1477.5,3.0,78,165.83
5810,C6,1477.5,3.0,78,165.83
5811,E-3,1478.0,0.5,53,165.83
5812,A3,1478.0,0.5,53,165.83
5813,F#3,1478.0,0.5,53,165.83
5814,A2,1478.5,0.5,48,165.83
5815,E-3,1479.0,0.5,48,165.83
5816,A3,1479.0,0.5,48,165.83
5817,F#3,1479.0,0.5,48,165.83
5818,A2,1479.5,0.5,53,165.83
5819,E-3,1480.0,0.5,48,165.83
5820,A3,1480.0,0.5,48,165.83
5821,F#3,1480.0,0.5,48,165.83
5822,A2,1480.5,0.5,53,165.83
5823,E-6,1480.5,1.25,84,165.83
5824,E-5,1480.5,1.25,84,165.83
5825,F#3,1481.0,0.5,50,165.83
5826,A3,1481.0,0.5,50,165.83
5827,E-3,1481.0,0.5,50,165.83
5828,A2,1481.5,0.5,49,165.83
5829,C5,1481.75,0.25,78,165.83
5830,C6,1481.75,0.25,78,165.83
5831,F6,1482.0,1.5,94,165.83
5832,F5,1482.0,1.5,94,165.83
5833,F#3,1482.0,0.5,44,165.83
5834,A3,1482.0,0.5,44,165.83
5835,E-3,1482.0,0.5,44,165.83
5836,A2,1482.5,0.5,57,165.83
5837,A3,1483.0,0.5,46,165.83
5838,F3,1483.0,0.5,46,165.83
5839,E-3,1483.0,0.5,46,165.83
5840,A2,1483.5,0.5,49,165.83
5841,B-5,1483.5,3.0,78,165.83
5842,B-4,1483.5,3.0,78,165.83
5843,C#3,1484.0,0.5,57,165.83
5844,F3,1484.0,0.5,57,165.83
5845,B-3,1484.0,0.5,57,165.83
5846,B-2,1484.5,0.5,49,165.83
5847,C#3,1485.0,0.5,49,165.83
5848,F3,1485.0,0.5,49,165.83
5849,B-3,1485.0,0.5,49,165.83
5850,B-2,1485.5,0.5,57,165.83
5851,C#3,1486.0,0.5,49,165.83
5852,F3,1486.0,0.5,49,165.83
5853,B-3,1486.0,0.5,49,165.83
5854,B-2,1486.5,0.5,57,165.83
5855,C#5,1486.5,1.25,84,165.83
5856,C#6,1486.5,1.25,84,165.83
5857,G3,1487.0,0.5,51,165.83
5858,B-3,1487.0,0.5,51,165.83
5859,E3,1487.0,0.5,51,165.83
5860,B-2,1487.5,0.5,49,165.83
5861,B-4,1487.75,0.25,78,165.83
5862,B-5,1487.75,0.25,78,165.83
5863,G#4,1488.0,1.5,90,165.83
5864,G#5,1488.0,1.5,90,165.83
5865,E3,1488.0,0.5,50,165.83
5866,B-3,1488.0,0.5,50,165.83
5867,G3,1488.0,0.5,50,165.83
5868,C3,1488.5,0.5,57,165.83
5869,C4,1489.0,0.5,46,165.83
5870,G#3,1489.0,0.5,46,165.83
5871,F3,1489.0,0.5,46,165.83
5872,C3,1489.5,0.5,49,165.83
5873,C6,1489.5,1.25,84,165.83
5874,C5,1489.5,1.25,84,165.83
5875,F3,1490.0,0.5,45,165.83
5876,C4,1490.0,0.5,45,165.83
5877,G#3,1490.0,0.5,45,165.83
5878,C3,1490.5,0.5,49,165.83
5879,G#5,1490.75,0.25,78,165.83
5880,G#4,1490.75,0.25,78,165.83
5881,G5,1491.0,1.5,90,165.83
5882,G4,1491.0,1.5,90,165.83
5883,F3,1491.0,0.5,44,165.83
5884,C4,1491.0,0.5,44,165.83
5885,G#3,1491.0,0.5,44,165.83
5886,C3,1491.5,0.5,57,165.83
5887,C4,1492.0,0.5,46,165.83
5888,E3,1492.0,0.5,46,165.83
5889,G3,1492.0,0.5,46,165.83
5890,C3,1492.5,0.5,49,165.83
5891,C6,1492.5,1.0,92,165.83
5892,C5,1492.5,1.0,92,165.83
5893,C4,1493.0,0.5,41,165.83
5894,G3,1493.0,0.5,41,165.83
5895,E3,1493.0,0.5,41,165.83
5896,C3,1493.5,0.5,44,165.83
5897,C6,1493.5,0.5,88,165.83
5898,C5,1493.5,0.5,88,165.83
5899,C6,1494.0,0.5,96,165.83
5900,C5,1494.0,0.5,96,165.83
5901,C4,1494.0,0.5,40,165.83
5902,G3,1494.0,0.5,40,165.83
5903,E3,1494.0,0.5,40,165.83
5904,F4,1494.5,229/500,66,165.83
5905,C4,1494.5,229/500,66,165.83
5906,C5,1494.5,229/500,66,165.83
5907,G#4,1494.5,229/500,66,165.83
5908,F2,1494.5,1.0,66,165.83
5909,C3,1494.5,1.0,66,165.83
5910,F3,1494.5,1.0,66,165.83
5911,G#2,1494.5,1.0,66,165.83
5912,G#4,1495.0,229/500,66,165.83
5913,C5,1495.0,229/500,66,165.83
5914,C4,1495.0,229/500,66,165.83
5915,F4,1495.0,229/500,66,165.83
5916,G#4,1495.5,1.5,69,165.83
5917,F4,1495.5,1.5,69,165.83
5918,C5,1495.5,1.5,69,165.83
5919,C4,1495.5,1.5,69,165.83
5920,F3,1496.5,229/500,79,165.83
5921,G#3,1496.5,229/500,79,165.83
5922,F3,1497.0,229/500,76,165.83
5923,G#3,1497.0,229/500,76,165.83
5924,C4,1497.5,229/500,68,165.83
5925,C5,1497.5,229/500,68,165.83
5926,E4,1497.5,229/500,68,165.83
5927,G4,1497.5,229/500,68,165.83
5928,E3,1497.5,1.0,80,165.83
5929,G3,1497.5,1.0,80,165.83
5930,C5,1498.0,229/500,68,165.83
5931,C4,1498.0,229/500,68,165.83
5932,E4,1498.0,229/500,68,165.83
5933,G4,1498.0,229/500,68,165.83
5934,C5,1498.5,1.5,69,165.83
5935,B-4,1498.5,1.5,69,165.83
5936,G4,1498.5,1.5,69,165.83
5937,C4,1498.5,1.5,69,165.83
5938,G3,1499.5,229/500,79,165.83
5939,B-3,1499.5,229/500,79,165.83
5940,G3,1500.0,229/500,76,165.83
5941,B-3,1500.0,229/500,76,165.83
5942,G#4,1500.5,229/500,66,165.83
5943,C4,1500.5,229/500,66,165.83
5944,F4,1500.5,229/500,66,165.83
5945,C5,1500.5,229/500,66,165.83
5946,F3,1500.5,1.0,80,165.83
5947,G#3,1500.5,1.0,80,165.83
5948,G#4,1501.0,229/500,66,165.83
5949,C5,1501.0,229/500,66,165.83
5950,C4,1501.0,229/500,66,165.83
5951,F4,1501.0,229/500,66,165.83
5952,C4,1501.5,1.5,69,165.83
5953,G#4,1501.5,1.5,69,165.83
5954,F4,1501.5,1.5,69,165.83
5955,C5,1501.5,1.5,69,165.83
5956,G#3,1502.5,229/500,79,165.83
5957,F3,1502.5,229/500,79,165.83
5958,G#3,1503.0,229/500,76,165.83
5959,F3,1503.0,229/500,76,165.83
5960,E4,1503.5,229/500,68,165.83
5961,C4,1503.5,229/500,68,165.83
5962,C5,1503.5,229/500,68,165.83
5963,G4,1503.5,229/500,68,165.83
5964,G3,1503.5,1.0,80,165.83
5965,E3,1503.5,1.0,80,165.83
5966,E4,1504.0,229/500,68,165.83
5967,G4,1504.0,229/500,68,165.83
5968,C4,1504.0,229/500,68,165.83
5969,C5,1504.0,229/500,68,165.83
5970,C5,1504.5,1.5,69,165.83
5971,G4,1504.5,1.5,69,165.83
5972,B-4,1504.5,1.5,69,165.83
5973,C4,1504.5,1.5,69,165.83
5974,B-3,1505.5,229/500,79,165.83
5975,G3,1505.5,229/500,79,165.83
5976,G3,1506.0,229/500,76,165.83
5977,B-3,1506.0,229/500,76,165.83
5978,F4,1506.5,229/500,68,165.83
5979,C4,1506.5,229/500,68,165.83
5980,C5,1506.5,229/500,68,165.83
5981,G#4,1506.5,229/500,68,165.83
5982,G#3,1506.5,229/500,73,165.83
5983,F3,1506.5,229/500,73,165.83
5984,F4,1507.5,229/500,76,165.83
5985,C#4,1507.5,229/500,76,165.83
5986,C#5,1507.5,229/500,76,165.83
5987,G4,1507.5,229/500,76,165.83
5988,G#3,1507.5,229/500,70,165.83
5989,F3,1507.5,229/500,70,165.83
5990,C#4,1508.5,229/500,68,165.83
5991,F4,1508.5,229/500,68,165.83
5992,G4,1508.5,229/500,68,165.83
5993,C#5,1508.5,229/500,68,165.83
5994,F3,1508.5,229/500,64,165.83
5995,B-2,1508.5,229/500,64,165.83
5996,G3,1508.5,229/500,64,165.83
5997,C4,1509.5,229/500,72,165.83
5998,C5,1509.5,229/500,72,165.83
5999,G#4,1509.5,229/500,72,165.83
6000,F4,1509.5,229/500,72,165.83
6001,F3,1509.5,229/500,71,165.83
6002,G#3,1509.5,229/500,71,165.83
6003,C3,1509.5,229/500,71,165.83
6004,C4,1510.5,229/500,73,165.83
6005,E4,1510.5,229/500,73,165.83
6006,C5,1510.5,229/500,73,165.83
6007,G4,1510.5,229/500,73,165.83
6008,F3,1510.5,229/500,67,165.83
6009,G#3,1510.5,229/500,67,165.83
6010,C3,1510.5,229/500,67,165.83
6011,E4,1511.5,229/500,62,165.83
6012,G4,1511.5,229/500,62,165.83
6013,C4,1511.5,229/500,62,165.83
6014,C5,1511.5,229/500,62,165.83
6015,C3,1511.5,229/500,67,165.83
6016,G3,1511.5,229/500,67,165.83
6017,E3,1511.5,229/500,67,165.83
6018,F4,1512.0,0.5,80,165.83
6019,G#4,1512.0,0.5,80,165.83
6020,C4,1512.0,0.5,80,165.83
6021,C5,1512.0,0.5,80,165.83
6022,F3,1512.5,229/500,66,165.83
6023,C3,1512.5,229/500,66,165.83
6024,G#3,1512.5,229/500,66,165.83
6025,C4,1512.5,229/500,66,165.83
6026,G#2,1512.5,1.0,64,165.83
6027,C3,1512.5,1.0,64,165.83
6028,F3,1512.5,1.0,64,165.83
6029,F2,1512.5,1.0,64,165.83
6030,C3,1513.0,229/500,66,165.83
6031,C4,1513.0,229/500,66,165.83
6032,G#3,1513.0,229/500,66,165.83
6033,F3,1513.0,229/500,66,165.83
6034,C3,1513.5,1.5,69,165.83
6035,F3,1513.5,1.5,69,165.83
6036,C4,1513.5,1.5,69,165.83
6037,G#3,1513.5,1.5,69,165.83
6038,G#2,1514.5,229/500,75,165.83
6039,F2,1514.5,229/500,75,165.83
6040,G#2,1515.0,229/500,72,165.83
6041,F2,1515.0,229/500,72,165.83
6042,C3,1515.5,229/500,68,165.83
6043,G3,1515.5,229/500,68,165.83
6044,C4,1515.5,229/500,68,165.83
6045,E3,1515.5,229/500,68,165.83
6046,G2,1515.5,1.0,76,165.83
6047,E2,1515.5,1.0,76,165.83
6048,G3,1516.0,229/500,68,165.83
6049,E3,1516.0,229/500,68,165.83
6050,C3,1516.0,229/500,68,165.83
6051,C4,1516.0,229/500,68,165.83
6052,G3,1516.5,1.5,69,165.83
6053,B-3,1516.5,1.5,69,165.83
6054,C4,1516.5,1.5,69,165.83
6055,C3,1516.5,1.5,69,165.83
6056,B-2,1517.5,229/500,75,165.83
6057,G2,1517.5,229/500,75,165.83
6058,B-2,1518.0,229/500,72,165.83
6059,G2,1518.0,229/500,72,165.83
6060,C3,1518.5,229/500,66,165.83
6061,F3,1518.5,229/500,66,165.83
6062,G#3,1518.5,229/500,66,165.83
6063,C4,1518.5,229/500,66,165.83
6064,G#2,1518.5,1.0,76,165.83
6065,F2,1518.5,1.0,76,165.83
6066,C3,1519.0,229/500,66,165.83
6067,G#3,1519.0,229/500,66,165.83
6068,C4,1519.0,229/500,66,165.83
6069,F3,1519.0,229/500,66,165.83
6070,F3,1519.5,1.5,69,165.83
6071,C3,1519.5,1.5,69,165.83
6072,G#3,1519.5,1.5,69,165.83
6073,C4,1519.5,1.5,69,165.83
6074,G#2,1520.5,229/500,75,165.83
6075,F2,1520.5,229/500,75,165.83
6076,G#2,1521.0,229/500,72,165.83
6077,F2,1521.0,229/500,72,165.83
6078,E3,1521.5,229/500,68,165.83
6079,G3,1521.5,229/500,68,165.83
6080,C3,1521.5,229/500,68,165.83
6081,C4,1521.5,229/500,68,165.83
6082,G2,1521.5,1.0,76,165.83
6083,E2,1521.5,1.0,76,165.83
6084,G3,1522.0,229/500,68,165.83
6085,C4,1522.0,229/500,68,165.83
6086,E3,1522.0,229/500,68,165.83
6087,C3,1522.0,229/500,68,165.83
6088,B-3,1522.5,1.5,69,165.83
6089,C3,1522.5,1.5,69,165.83
6090,G3,1522.5,1.5,69,165.83
6091,C4,1522.5,1.5,69,165.83
6092,B-2,1523.5,229/500,75,165.83
6093,G2,1523.5,229/500,75,165.83
6094,B-2,1524.0,229/500,72,165.83
6095,G2,1524.0,229/500,72,165.83
6096,F3,1524.5,229/500,68,165.83
6097,G#3,1524.5,229/500,68,165.83
6098,C4,1524.5,229/500,68,165.83
6099,C3,1524.5,229/500,68,165.83
6100,F2,1524.5,229/500,72,165.83
6101,G#2,1524.5,229/500,72,165.83
6102,C#3,1525.5,229/500,74,165.83
6103,C#4,1525.5,229/500,74,165.83
6104,G3,1525.5,229/500,74,165.83
6105,F3,1525.5,229/500,74,165.83
6106,G#2,1525.5,229/500,65,165.83
6107,F2,1525.5,229/500,65,165.83
6108,C#3,1526.5,229/500,68,165.83
6109,F3,1526.5,229/500,68,165.83
6110,G3,1526.5,229/500,68,165.83
6111,C#4,1526.5,229/500,68,165.83
6112,B-1,1526.5,229/500,59,165.83
6113,G2,1526.5,229/500,59,165.83
6114,F2,1526.5,229/500,59,165.83
6115,G#3,1527.5,229/500,71,165.83
6116,C4,1527.5,229/500,71,165.83
6117,C3,1527.5,229/500,71,165.83
6118,F3,1527.5,229/500,71,165.83
6119,G#2,1527.5,229/500,66,165.83
6120,C2,1527.5,229/500,66,165.83
6121,F2,1527.5,229/500,66,165.83
6122,G3,1528.5,229/500,71,165.83
6123,E3,1528.5,229/500,71,165.83
6124,C4,1528.5,229/500,71,165.83
6125,C3,1528.5,229/500,71,165.83
6126,G#2,1528.5,229/500,63,165.83
6127,C2,1528.5,229/500,63,165.83
6128,F2,1528.5,229/500,63,165.83
6129,E3,1529.5,229/500,68,165.83
6130,G3,1529.5,229/500,68,165.83
6131,C3,1529.5,229/500,68,165.83
6132,C4,1529.5,229/500,68,165.83
6133,E2,1529.5,229/500,63,165.83
6134,G2,1529.5,229/500,63,165.83
6135,C2,1529.5,229/500,63,165.83
6136,G#4,1530.5,229/500,68,165.83
6137,C5,1530.5,229/500,68,165.83
6138,F4,1530.5,229/500,68,165.83
6139,C4,1530.5,229/500,68,165.83
6140,C2,1530.5,229/500,65,165.83
6141,F2,1530.5,229/500,65,165.83
6142,G#2,1530.5,229/500,65,165.83
6143,G#1,1530.5,229/500,65,165.83
6144,F4,1531.5,229/500,74,165.83
6145,C#4,1531.5,229/500,74,165.83
6146,C#5,1531.5,229/500,74,165.83
6147,G4,1531.5,229/500,74,165.83
6148,G#1,1531.5,229/500,62,165.83
6149,F2,1531.5,229/500,62,165.83
6150,C2,1531.5,229/500,62,165.83
6151,G#2,1531.5,229/500,62,165.83
6152,F4,1532.5,229/500,68,165.83
6153,C#4,1532.5,229/500,68,165.83
6154,G4,1532.5,229/500,68,165.83
6155,C#5,1532.5,229/500,68,165.83
6156,B-2,1532.5,229/500,59,165.83
6157,F2,1532.5,229/500,59,165.83
6158,G2,1532.5,229/500,59,165.83
6159,B-1,1532.5,229/500,59,165.83
6160,C5,1533.5,229/500,71,165.83
6161,F4,1533.5,229/500,71,165.83
6162,C4,1533.5,229/500,71,165.83
6163,G#4,1533.5,229/500,71,165.83
6164,C3,1533.5,229/500,67,165.83
6165,G#2,1533.5,229/500,67,165.83
6166,F2,1533.5,229/500,67,165.83
6167,C2,1533.5,229/500,67,165.83
6168,C4,1534.5,229/500,71,165.83
6169,E4,1534.5,229/500,71,165.83
6170,C5,1534.5,229/500,71,165.83
6171,G4,1534.5,229/500,71,165.83
6172,C3,1534.5,229/500,64,165.83
6173,F2,1534.5,229/500,64,165.83
6174,G#2,1534.5,229/500,64,165.83
6175,C2,1534.5,229/500,64,165.83
6176,E4,1535.5,229/500,68,165.83
6177,G4,1535.5,229/500,68,165.83
6178,C4,1535.5,229/500,68,165.83
6179,C5,1535.5,229/500,68,165.83
6180,B-2,1535.5,229/500,64,165.83
6181,E2,1535.5,229/500,64,165.83
6182,G2,1535.5,229/500,64,165.83
6183,B-1,1535.5,229/500,64,165.83
6184,G#5,1536.5,229/500,77,165.83
6185,C6,1536.5,229/500,77,165.83
6186,F5,1536.5,229/500,77,165.83
6187,C5,1536.5,229/500,77,165.83
6188,C2,1536.5,229/500,68,165.83
6189,F2,1536.5,229/500,68,165.83
6190,G#2,1536.5,229/500,68,165.83
6191,G#1,1536.5,229/500,68,165.83
6192,G5,1537.5,229/500,84,165.83
6193,C#5,1537.5,229/500,84,165.83
6194,F5,1537.5,229/500,84,165.83
6195,C#6,1537.5,229/500,84,165.83
6196,G#1,1537.5,229/500,65,165.83
6197,F2,1537.5,229/500,65,165.83
6198,C2,1537.5,229/500,65,165.83
6199,G#2,1537.5,229/500,65,165.83
6200,C#6,1538.5,229/500,77,165.83
6201,C#5,1538.5,229/500,77,165.83
6202,F5,1538.5,229/500,77,165.83
6203,G5,1538.5,229/500,77,165.83
6204,B-2,1538.5,229/500,62,165.83
6205,F2,1538.5,229/500,62,165.83
6206,G2,1538.5,229/500,62,165.83
6207,B-1,1538.5,229/500,62,165.83
6208,C6,1539.5,229/500,82,165.83
6209,G#5,1539.5,229/500,82,165.83
6210,F5,1539.5,229/500,82,165.83
6211,C5,1539.5,229/500,82,165.83
6212,C3,1539.5,229/500,70,165.83
6213,F2,1539.5,229/500,70,165.83
6214,C2,1539.5,229/500,70,165.83
6215,G#2,1539.5,229/500,70,165.83
6216,C6,1540.5,229/500,81,165.83
6217,C5,1540.5,229/500,81,165.83
6218,E5,1540.5,229/500,81,165.83
6219,G5,1540.5,229/500,81,165.83
6220,G#2,1540.5,229/500,67,165.83
6221,F2,1540.5,229/500,67,165.83
6222,C2,1540.5,229/500,67,165.83
6223,C3,1540.5,229/500,67,165.83
6224,C6,1541.5,229/500,77,165.83
6225,E5,1541.5,229/500,77,165.83
6226,C5,1541.5,229/500,77,165.83
6227,G5,1541.5,229/500,77,165.83
6228,C2,1541.5,229/500,67,165.83
6229,C3,1541.5,229/500,67,165.83
6230,G2,1541.5,229/500,67,165.83
6231,E2,1541.5,229/500,67,165.83
6232,C4,1542.0,0.25,64,165.83
6233,G#3,1542.25,0.25,55,165.83
6234,C4,1542.5,0.25,59,165.83
6235,F1,1542.5,1.0,96,165.83
6236,F2,1542.5,1.0,96,165.83
6237,G#3,1542.75,0.25,50,165.83
6238,C4,1543.0,0.25,55,165.83
6239,G#3,1543.25,0.25,48,165.83
6240,C4,1543.5,0.25,43,165.83
6241,G#3,1543.75,0.25,37,165.83
6242,C4,1544.0,0.25,43,165.83
6243,G#4,1544.0,1.25,62,165.83
6244,G#3,1544.25,0.25,37,165.83
6245,C4,1544.5,0.25,43,165.83
6246,G#3,1544.75,0.25,36,165.83
6247,C4,1545.0,0.25,43,165.83
6248,G#3,1545.25,0.25,36,165.83
6249,C5,1545.25,0.25,54,165.83
6250,C4,1545.5,0.25,42,165.83
6251,F5,1545.5,1.5,59,165.83
6252,G#3,1545.75,0.25,36,165.83
6253,C4,1546.0,0.25,42,165.83
6254,G#3,1546.25,0.25,35,165.83
6255,C4,1546.5,0.25,42,165.83
6256,G#3,1546.75,0.25,35,165.83
6257,C4,1547.0,0.25,41,165.83
6258,G#5,1547.0,1.25,60,165.83
6259,G#3,1547.25,0.25,35,165.83
6260,C4,1547.5,0.25,41,165.83
6261,G#3,1547.75,0.25,35,165.83
6262,C4,1548.0,0.25,41,165.83
6263,G#3,1548.25,0.25,35,165.83
6264,C6,1548.25,0.25,52,165.83
6265,C4,1548.5,0.25,41,165.83
6266,F6,1548.5,1.5,56,165.83
6267,G#3,1548.75,0.25,34,165.83
6268,C4,1549.0,0.25,40,165.83
6269,G#3,1549.25,0.25,34,165.83
6270,C4,1549.5,0.25,40,165.83
6271,G#3,1549.75,0.25,34,165.83
6272,C4,1550.0,0.25,40,165.83
6273,C6,1550.0,1.25,58,165.83
6274,G#3,1550.25,0.25,33,165.83
6275,C4,1550.5,0.25,40,165.83
6276,G#3,1550.75,0.25,33,165.83
6277,C4,1551.0,0.25,40,165.83
6278,G#3,1551.25,0.25,33,165.83
6279,G#5,1551.25,0.25,50,165.83
6280,C4,1551.5,0.25,39,165.83
6281,F5,1551.5,1.5,54,165.83
6282,G#3,1551.75,0.25,33,165.83
6283,C4,1552.0,0.25,39,165.83
6284,G#3,1552.25,0.25,33,165.83
6285,C4,1552.5,0.25,39,165.83
6286,G#3,1552.75,0.25,32,165.83
6287,C4,1553.0,0.25,38,165.83
6288,C5,1553.0,1.25,56,165.83
6289,G#3,1553.25,0.25,32,165.83
6290,C4,1553.5,0.25,38,165.83
6291,G#3,1553.75,0.25,32,165.83
6292,C4,1554.0,0.25,38,165.83
6293,G#3,1554.25,0.25,32,165.83
6294,G#4,1554.25,0.25,48,165.83
6295,C4,1554.5,0.25,37,165.83
6296,F4,1554.5,1.5,52,165.83
6297,G#3,1554.75,0.25,31,165.83
6298,C4,1555.0,0.25,37,165.83
6299,G#3,1555.25,0.25,31,165.83
6300,C5,1555.5,0.25,37,165.83
6301,G#4,1555.75,0.25,31,165.83
6302,C5,1556.0,0.25,37,165.83
6303,C4,1556.0,1.25,47,165.83
6304,G#4,1556.25,0.25,31,165.83
6305,C5,1556.5,0.25,36,165.83
6306,G#4,1556.75,0.25,31,165.83
6307,C5,1557.0,0.25,36,165.83
6308,G#4,1557.25,0.25,30,165.83
6309,G#3,1557.25,0.25,41,165.83
6310,C5,1557.5,0.25,36,165.83
6311,F3,1557.5,1.5,44,165.83
6312,G#4,1557.75,0.25,30,165.83
6313,C5,1558.0,0.25,35,165.83
6314,G#4,1558.25,0.25,30,165.83
6315,C5,1558.5,0.25,35,165.83
6316,G#4,1558.75,0.25,30,165.83
6317,C5,1559.0,0.25,35,165.83
6318,C3,1559.0,1.25,45,165.83
6319,G#4,1559.25,0.25,30,165.83
6320,C5,1559.5,0.25,34,165.83
6321,G#4,1559.75,0.25,29,165.83
6322,C5,1560.0,0.25,34,165.83
6323,G#4,1560.25,0.25,29,165.83
6324,G#2,1560.25,0.25,39,165.83
6325,C5,1560.5,0.25,34,165.83
6326,F2,1560.5,1.5,42,165.83
6327,G#4,1560.75,0.25,28,165.83
6328,C5,1561.0,0.25,33,165.83
6329,G#4,1561.25,0.25,27,165.83
6330,C5,1561.5,0.25,33,165.83
6331,G#4,1561.75,0.25,27,165.83
6332,C5,1562.0,0.25,32,165.83
6333,C2,1562.0,1.25,38,165.83
6334,G#4,1562.25,0.25,27,165.83
6335,C5,1562.5,0.25,31,165.83
6336,G#4,1562.75,0.25,26,165.83
6337,C5,1563.0,0.25,31,165.83
6338,G#4,1563.25,0.25,26,165.83
6339,G#1,1563.25,0.25,27,165.83
6340,C5,1563.5,0.25,31,165.83
6341,F1,1563.5,1.5,28,165.83
6342,G#4,1563.75,0.25,25,165.83
6343,C5,1564.0,0.25,30,165.83
6344,G#4,1564.25,0.25,25,165.83
6345,C5,1564.5,0.25,29,165.83
6346,G#4,1564.75,0.25,25,165.83
6347,C5,1565.0,0.25,29,165.83
6348,F1,1565.0,1.5,27,165.83
6349,G#4,1565.25,0.25,24,165.83
6350,C5,1565.5,0.25,29,165.83
6351,G#4,1565.75,0.25,24,165.83
6352,C5,1566.0,0.25,28,165.83
6353,G#4,1566.25,0.25,23,165.83
6354,C5,1566.5,0.25,27,165.83
6355,F1,1566.5,3.0,27,165.83
6356,G#4,1566.75,0.25,23,165.83
6357,C5,1567.0,0.25,26,165.83
6358,G#4,1567.25,0.25,22,165.83
6359,C5,1567.5,0.25,26,165.83
6360,G#4,1567.75,0.25,22,165.83
6361,C5,1568.0,0.25,25,165.83
6362,G#4,1568.25,0.25,21,165.83
6363,C5,1568.5,0.25,24,165.83
6364,G#4,1568.75,0.25,20,165.83
6365,C5,1569.0,0.25,23,165.83
6366,G#4,1569.25,0.25,20,165.83
6367,C5,1569.5,0.25,23,165.83
6368,F1,1569.5,3.0,19,165.83
6369,G#4,1569.75,0.25,19,165.83
6370,C5,1570.0,0.25,22,165.83
6371,G#4,1570.25,0.25,18,165.83
6372,C5,1570.5,0.25,21,165.83
6373,G#4,1570.75,0.25,18,165.83
6374,C5,1571.0,0.25,21,165.83
6375,G#4,1571.25,0.25,17,165.83
6376,C5,1571.5,0.25,20,165.83
6377,G#4,1571.75,0.25,17,165.83
6378,C5,1572.0,6.0,16,165.83
6379,G#4,1572.0,6.0,16,165.83
6380,F1,1572.5,6.0,12,165.83
