,note_name,start_time,duration,velocity,tempo
0,E4,0.0,297/200,97,139.29
1,C#5,0.0,297/200,97,139.29
2,B-2,0.0,297/200,78,139.29
3,G3,0.0,297/200,78,139.29
4,E4,1.5,62/125,90,139.29
5,C#5,1.5,62/125,90,139.29
6,G3,1.5,62/125,71,139.29
7,B-2,1.5,62/125,71,139.29
8,C#5,2.0,297/200,97,139.29
9,E4,2.0,297/200,97,139.29
10,B-2,2.0,297/200,78,139.29
11,G3,2.0,297/200,78,139.29
12,E4,3.5,62/125,90,139.29
13,C#5,3.5,62/125,90,139.29
14,G3,3.5,62/125,70,139.29
15,B-2,3.5,62/125,70,139.29
16,E4,4.0,93/125,97,139.29
17,C#5,4.0,93/125,97,139.29
18,B-2,4.0,93/125,78,139.29
19,G3,4.0,93/125,78,139.29
20,C#5,4.75,31/125,90,139.29
21,E4,4.75,31/125,90,139.29
22,G3,4.75,31/125,71,139.29
23,B-2,4.75,31/125,71,139.29
24,E4,5.0,93/125,97,139.29
25,C#5,5.0,93/125,97,139.29
26,B-2,5.0,93/125,78,139.29
27,G3,5.0,93/125,78,139.29
28,E4,5.75,31/125,88,139.29
29,C#5,5.75,31/125,88,139.29
30,B-2,5.75,31/125,70,139.29
31,G3,5.75,31/125,70,139.29
32,C#5,6.0,93/125,97,139.29
33,E4,6.0,93/125,97,139.29
34,G3,6.0,93/125,78,139.29
35,B-2,6.0,93/125,78,139.29
36,E4,6.75,31/125,90,139.29
37,C#5,6.75,31/125,90,139.29
38,B-2,6.75,31/125,70,139.29
39,G3,6.75,31/125,70,139.29
40,C#5,7.0,93/125,97,139.29
41,E4,7.0,93/125,97,139.29
42,G3,7.0,93/125,78,139.29
43,B-2,7.0,93/125,78,139.29
44,E4,7.75,31/125,90,139.29
45,C#5,7.75,31/125,90,139.29
46,B-2,7.75,31/125,70,139.29
47,G3,7.75,31/125,70,139.29
48,E4,8.0,1.0,97,139.29
49,C#5,8.0,1.0,97,139.29
50,G3,8.0,1.0,78,139.29
51,B-2,8.0,1.0,78,139.29
52,C#6,9.5,0.25,50,139.29
53,C6,9.75,0.25,50,139.29
54,B-5,10.0,0.25,54,139.29
55,C6,10.25,0.25,50,139.29
56,B-5,10.5,0.25,50,139.29
57,G#5,10.75,0.25,50,139.29
58,G5,11.0,0.25,54,139.29
59,G#5,11.25,0.25,50,139.29
60,G5,11.5,0.25,50,139.29
61,F5,11.75,0.25,50,139.29
62,E5,12.0,1.0,54,139.29
63,C#5,13.5,0.25,50,139.29
64,C5,13.75,0.25,50,139.29
65,B-4,14.0,0.25,53,139.29
66,C5,14.25,0.25,50,139.29
67,B-4,14.5,0.25,50,139.29
68,G#4,14.75,0.25,50,139.29
69,G4,15.0,0.25,53,139.29
70,G#4,15.25,0.25,50,139.29
71,G4,15.5,0.25,50,139.29
72,F4,15.75,0.25,50,139.29
73,E4,16.0,1.0,52,139.29
74,C#5,17.5,0.25,50,139.29
75,C5,17.75,0.25,50,139.29
76,B-4,18.0,0.25,51,139.29
77,C5,18.25,0.25,51,139.29
78,B-4,18.5,0.25,52,139.29
79,G#4,18.75,0.25,52,139.29
80,G4,19.0,0.25,53,139.29
81,G#4,19.25,0.25,54,139.29
82,G4,19.5,0.25,54,139.29
83,F4,19.75,0.25,55,139.29
84,E4,20.0,0.25,55,139.29
85,F4,20.25,0.25,56,139.29
86,E4,20.5,0.25,57,139.29
87,C#4,20.75,0.25,57,139.29
88,C4,21.0,0.25,58,139.29
89,C#4,21.25,0.25,61,139.29
90,C4,21.5,0.25,62,139.29
91,B3,21.75,0.25,63,139.29
92,B-3,22.0,0.25,64,139.29
93,C4,22.25,0.25,65,139.29
94,B-3,22.5,0.25,66,139.29
95,G#3,22.75,0.25,67,139.29
96,G3,23.0,0.25,68,139.29
97,G#3,23.25,0.25,69,139.29
98,G3,23.5,0.25,70,139.29
99,F3,23.75,0.25,71,139.29
100,E3,24.0,0.25,73,139.29
101,F3,24.25,0.25,71,139.29
102,E3,24.5,0.25,72,139.29
103,C#3,24.75,0.25,71,139.29
104,C3,25.0,271/1000,75,139.29
105,C2,25.0,271/1000,60,139.29
106,C#3,25.25,271/1000,75,139.29
107,C#2,25.25,271/1000,60,139.29
108,C3,25.5,271/1000,75,139.29
109,C2,25.5,271/1000,60,139.29
110,B2,25.75,0.25,75,139.29
111,B1,25.75,0.25,60,139.29
112,C3,26.0,271/1000,75,139.29
113,B2,26.0,21/1000,75,139.29
114,C2,26.0,271/1000,60,139.29
115,B1,26.0,21/1000,60,139.29
116,C#3,26.25,271/1000,75,139.29
117,C#2,26.25,271/1000,60,139.29
118,C3,26.5,271/1000,75,139.29
119,C2,26.5,271/1000,60,139.29
120,B2,26.75,271/1000,75,139.29
121,B1,26.75,271/1000,60,139.29
122,C3,27.0,271/1000,75,139.29
123,C2,27.0,271/1000,60,139.29
124,C#3,27.25,271/1000,75,139.29
125,C#2,27.25,271/1000,60,139.29
126,C3,27.5,271/1000,75,139.29
127,C2,27.5,271/1000,60,139.29
128,B2,27.75,0.25,75,139.29
129,B1,27.75,0.25,60,139.29
130,C3,28.0,271/1000,75,139.29
131,B2,28.0,21/1000,75,139.29
132,C2,28.0,271/1000,60,139.29
133,B1,28.0,21/1000,60,139.29
134,C#3,28.25,271/1000,75,139.29
135,C#2,28.25,271/1000,60,139.29
136,C3,28.5,271/1000,75,139.29
137,C2,28.5,271/1000,60,139.29
138,B2,28.75,271/1000,75,139.29
139,B1,28.75,271/1000,60,139.29
140,C3,29.0,271/1000,75,139.29
141,C2,29.0,271/1000,60,139.29
142,C#3,29.25,271/1000,75,139.29
143,C#2,29.25,271/1000,60,139.29
144,C3,29.5,271/1000,75,139.29
145,C2,29.5,271/1000,60,139.29
146,B2,29.75,0.25,75,139.29
147,B1,29.75,0.25,60,139.29
148,B-2,30.0,271/1000,74,139.29
149,B2,30.0,21/1000,75,139.29
150,B-1,30.0,271/1000,57,139.29
151,B1,30.0,21/1000,60,139.29
152,C3,30.25,271/1000,74,139.29
153,C2,30.25,271/1000,57,139.29
154,B-2,30.5,271/1000,74,139.29
155,B-1,30.5,271/1000,57,139.29
156,A2,30.75,271/1000,74,139.29
157,A1,30.75,271/1000,57,139.29
158,B-2,31.0,271/1000,74,139.29
159,B-1,31.0,271/1000,57,139.29
160,C3,31.25,271/1000,74,139.29
161,C2,31.25,271/1000,57,139.29
162,B-2,31.5,271/1000,74,139.29
163,B-1,31.5,271/1000,57,139.29
164,A2,31.75,0.25,74,139.29
165,A1,31.75,0.25,57,139.29
166,B-2,32.0,271/1000,74,139.29
167,A2,32.0,21/1000,74,139.29
168,B-1,32.0,271/1000,57,139.29
169,A1,32.0,21/1000,57,139.29
170,C3,32.25,271/1000,74,139.29
171,C2,32.25,271/1000,56,139.29
172,B-2,32.5,271/1000,74,139.29
173,B-1,32.5,271/1000,56,139.29
174,A2,32.75,271/1000,74,139.29
175,A1,32.75,271/1000,56,139.29
176,B-2,33.0,271/1000,73,139.29
177,B-1,33.0,271/1000,55,139.29
178,C3,33.25,271/1000,73,139.29
179,C2,33.25,271/1000,55,139.29
180,B-2,33.5,271/1000,73,139.29
181,B-1,33.5,271/1000,55,139.29
182,A2,33.75,0.25,73,139.29
183,A1,33.75,0.25,55,139.29
184,B-2,34.0,271/1000,74,139.29
185,A2,34.0,21/1000,73,139.29
186,B-1,34.0,271/1000,55,139.29
187,A1,34.0,21/1000,55,139.29
188,C3,34.25,271/1000,72,139.29
189,C2,34.25,271/1000,54,139.29
190,B-2,34.5,271/1000,70,139.29
191,B-1,34.5,271/1000,53,139.29
192,A2,34.75,271/1000,68,139.29
193,A1,34.75,271/1000,52,139.29
194,B-2,35.0,271/1000,67,139.29
195,B-1,35.0,271/1000,51,139.29
196,C3,35.25,271/1000,65,139.29
197,C2,35.25,271/1000,50,139.29
198,B-2,35.5,271/1000,63,139.29
199,B-1,35.5,271/1000,49,139.29
200,A2,35.75,0.25,61,139.29
201,A1,35.75,0.25,48,139.29
202,B-2,36.0,271/1000,60,139.29
203,A2,36.0,21/1000,61,139.29
204,B-1,36.0,271/1000,47,139.29
205,A1,36.0,21/1000,48,139.29
206,G2,36.25,271/1000,58,139.29
207,G1,36.25,271/1000,46,139.29
208,G#2,36.5,271/1000,56,139.29
209,G#1,36.5,271/1000,45,139.29
210,B-2,36.75,271/1000,54,139.29
211,B-1,36.75,271/1000,44,139.29
212,C3,37.0,271/1000,53,139.29
213,C2,37.0,271/1000,43,139.29
214,B-2,37.25,271/1000,51,139.29
215,B-1,37.25,271/1000,42,139.29
216,G#2,37.5,271/1000,49,139.29
217,G#1,37.5,271/1000,41,139.29
218,G2,37.75,0.25,47,139.29
219,G1,37.75,0.25,40,139.29
220,G2,38.0,21/1000,47,139.29
221,F1,38.0,1.0,39,139.29
222,G1,38.0,21/1000,40,139.29
223,C3,38.25,0.25,40,139.29
224,F3,38.5,0.25,37,139.29
225,G#3,38.75,0.25,37,139.29
226,C4,39.0,0.25,40,139.29
227,C#4,39.25,0.25,38,139.29
228,C4,39.5,0.25,38,139.29
229,B-3,39.75,0.25,38,139.29
230,G#3,40.0,0.25,40,139.29
231,B-3,40.25,0.25,37,139.29
232,G#3,40.5,0.25,37,139.29
233,G3,40.75,0.25,37,139.29
234,F3,41.0,0.25,40,139.29
235,G3,41.25,0.25,37,139.29
236,G#3,41.5,0.25,37,139.29
237,F3,41.75,0.25,37,139.29
238,F2,41.75,0.25,35,139.29
239,F1,42.0,1.0,40,139.29
240,C3,42.25,0.25,40,139.29
241,F3,42.5,0.25,37,139.29
242,G#3,42.75,0.25,37,139.29
243,C4,43.0,0.25,40,139.29
244,C#4,43.25,0.25,38,139.29
245,C4,43.5,0.25,38,139.29
246,B-3,43.75,0.25,38,139.29
247,G#3,44.0,0.25,40,139.29
248,B-3,44.25,0.25,37,139.29
249,G#3,44.5,0.25,37,139.29
250,G3,44.75,0.25,37,139.29
251,F3,45.0,0.25,40,139.29
252,G3,45.25,0.25,37,139.29
253,G#3,45.5,0.25,37,139.29
254,F3,45.75,0.25,37,139.29
255,F2,45.75,0.25,35,139.29
256,B-1,46.0,1.0,40,139.29
257,C#3,46.25,0.25,44,139.29
258,F#3,46.5,0.25,40,139.29
259,B-3,46.75,0.25,40,139.29
260,C#4,47.0,0.25,44,139.29
261,E-4,47.25,0.25,41,139.29
262,C#4,47.5,0.25,41,139.29
263,C4,47.75,0.25,41,139.29
264,B-3,48.0,0.25,44,139.29
265,C4,48.25,0.25,40,139.29
266,B-3,48.5,0.25,40,139.29
267,G#3,48.75,0.25,40,139.29
268,F#3,49.0,0.25,44,139.29
269,G#3,49.25,0.25,40,139.29
270,F#3,49.5,0.25,40,139.29
271,F3,49.75,0.25,40,139.29
272,C#2,49.75,0.25,36,139.29
273,E3,50.0,0.25,44,139.29
274,C2,50.0,0.5,40,139.29
275,F3,50.25,0.25,40,139.29
276,G3,50.5,0.25,40,139.29
277,E3,50.75,0.25,40,139.29
278,F3,51.0,0.25,44,139.29
279,C#2,51.0,0.5,38,139.29
280,G3,51.25,0.25,40,139.29
281,G#3,51.5,0.25,40,139.29
282,F3,51.75,0.25,40,139.29
283,G3,52.0,0.25,44,139.29
284,B-1,52.0,0.5,40,139.29
285,G#3,52.25,0.25,40,139.29
286,B-3,52.5,0.25,40,139.29
287,G3,52.75,0.25,40,139.29
288,E3,53.0,0.25,44,139.29
289,C2,53.0,0.5,37,139.29
290,F3,53.25,0.25,37,139.29
291,G3,53.5,0.25,38,139.29
292,E3,53.75,0.25,40,139.29
293,F3,54.0,0.25,44,139.29
294,F2,54.0,1.0,40,139.29
295,F1,54.0,1.0,40,139.29
296,C3,54.25,0.25,40,139.29
297,F3,54.5,0.25,37,139.29
298,G#3,54.75,0.25,37,139.29
299,C4,55.0,0.25,40,139.29
300,C#4,55.25,0.25,38,139.29
301,C4,55.5,0.25,38,139.29
302,B-3,55.75,0.25,38,139.29
303,C5,55.75,0.25,49,139.29
304,G#4,55.75,0.25,49,139.29
305,G#3,56.0,0.25,40,139.29
306,G#4,56.0,1.0,57,139.29
307,C5,56.0,1.0,57,139.29
308,B-3,56.25,0.25,37,139.29
309,G#3,56.5,0.25,37,139.29
310,G3,56.75,0.25,37,139.29
311,F3,57.0,0.25,40,139.29
312,G#4,57.0,0.5,30,139.29
313,F4,57.0,0.5,30,139.29
314,G3,57.25,0.25,37,139.29
315,G#3,57.5,0.25,37,139.29
316,F3,57.75,0.25,37,139.29
317,F2,58.0,1.0,40,139.29
318,F1,58.0,1.0,40,139.29
319,C3,58.25,0.25,40,139.29
320,F3,58.5,0.25,37,139.29
321,G#3,58.75,0.25,37,139.29
322,C4,59.0,0.25,40,139.29
323,C#4,59.25,0.25,38,139.29
324,C4,59.5,0.25,38,139.29
325,B-3,59.75,0.25,38,139.29
326,G#4,59.75,0.25,51,139.29
327,C5,59.75,0.25,51,139.29
328,G#3,60.0,0.25,40,139.29
329,C5,60.0,1.0,56,139.29
330,G#4,60.0,1.0,56,139.29
331,B-3,60.25,0.25,37,139.29
332,G#3,60.5,0.25,37,139.29
333,G3,60.75,0.25,37,139.29
334,F3,61.0,0.25,40,139.29
335,F4,61.0,0.5,30,139.29
336,G#4,61.0,0.5,30,139.29
337,G3,61.25,0.25,37,139.29
338,G#3,61.5,0.25,37,139.29
339,F3,61.75,0.25,37,139.29
340,B-1,62.0,1.0,40,139.29
341,B-2,62.0,1.0,40,139.29
342,C#3,62.25,0.25,44,139.29
343,F#3,62.5,0.25,40,139.29
344,B-3,62.75,0.25,40,139.29
345,C#4,63.0,0.25,44,139.29
346,E-4,63.25,0.25,41,139.29
347,C#4,63.5,0.25,41,139.29
348,C4,63.75,0.25,41,139.29
349,B-4,63.75,0.25,63,139.29
350,C#5,63.75,0.25,63,139.29
351,B-3,64.0,0.25,44,139.29
352,C#5,64.0,2.0,70,139.29
353,B-4,64.0,2.0,70,139.29
354,C4,64.25,0.25,40,139.29
355,B-3,64.5,0.25,40,139.29
356,G#3,64.75,0.25,40,139.29
357,F#3,65.0,0.25,44,139.29
358,G#3,65.25,0.25,40,139.29
359,F#3,65.5,0.25,40,139.29
360,F3,65.75,0.25,40,139.29
361,E3,66.0,0.25,44,139.29
362,B-4,66.0,0.5,51,139.29
363,C5,66.0,0.5,51,139.29
364,F3,66.25,0.25,40,139.29
365,G3,66.5,0.25,40,139.29
366,C3,66.5,0.5,43,139.29
367,C2,66.5,0.5,43,139.29
368,E3,66.75,0.25,40,139.29
369,F3,67.0,0.25,44,139.29
370,G3,67.25,0.25,40,139.29
371,G#3,67.5,0.25,40,139.29
372,C#2,67.5,0.5,37,139.29
373,C#3,67.5,0.5,37,139.29
374,F3,67.75,0.25,40,139.29
375,G3,68.0,0.25,44,139.29
376,G#3,68.25,0.25,40,139.29
377,B-3,68.5,0.25,40,139.29
378,B-1,68.5,0.5,39,139.29
379,B-2,68.5,0.5,39,139.29
380,G3,68.75,0.25,40,139.29
381,E3,69.0,0.25,44,139.29
382,F3,69.25,0.25,37,139.29
383,G3,69.5,0.25,38,139.29
384,C3,69.5,0.5,35,139.29
385,C2,69.5,0.5,35,139.29
386,E3,69.75,0.25,40,139.29
387,F3,70.0,0.25,37,139.29
388,F1,70.0,1.0,44,139.29
389,F2,70.0,1.0,44,139.29
390,C4,70.25,0.25,38,139.29
391,F4,70.5,0.25,40,139.29
392,G#4,70.75,0.25,42,139.29
393,C5,71.0,0.25,43,139.29
394,C4,71.25,0.25,45,139.29
395,F4,71.5,0.25,46,139.29
396,G#4,71.75,0.25,48,139.29
397,G#3,71.75,0.25,52,139.29
398,F3,71.75,0.25,52,139.29
399,F3,72.0,1.0,65,139.29
400,G#3,72.0,1.0,65,139.29
401,C4,72.25,0.25,46,139.29
402,F4,72.5,0.25,47,139.29
403,G#4,72.75,0.25,49,139.29
404,C5,73.0,0.25,50,139.29
405,C4,73.25,0.25,52,139.29
406,F4,73.5,0.25,53,139.29
407,G#4,73.75,0.25,38,139.29
408,G#3,73.75,0.25,54,139.29
409,F3,73.75,0.25,54,139.29
410,C3,74.0,2.0,66,139.29
411,G#3,74.0,2.0,66,139.29
412,F3,74.0,2.0,66,139.29
413,B3,74.25,0.25,51,139.29
414,D4,74.5,0.25,52,139.29
415,G#4,74.75,0.25,52,139.29
416,B4,75.0,1.0,54,139.29
417,B3,75.25,0.25,52,139.29
418,D4,75.5,0.25,52,139.29
419,G#4,75.75,0.25,52,139.29
420,B4,76.0,1.0,54,139.29
421,C3,76.0,0.5,48,139.29
422,E3,76.0,0.5,48,139.29
423,G3,76.0,0.5,48,139.29
424,B3,76.25,0.25,52,139.29
425,E4,76.5,0.25,50,139.29
426,G4,76.75,0.25,49,139.29
427,C5,77.0,1.0,52,139.29
428,C4,77.25,0.25,46,139.29
429,E4,77.5,0.25,44,139.29
430,G4,77.75,0.25,38,139.29
431,C2,78.0,1.0,42,139.29
432,C3,78.0,1.0,42,139.29
433,C4,78.25,0.25,38,139.29
434,E4,78.5,0.25,40,139.29
435,G4,78.75,0.25,42,139.29
436,C5,79.0,0.25,43,139.29
437,C4,79.25,0.25,45,139.29
438,E4,79.5,0.25,46,139.29
439,G4,79.75,0.25,48,139.29
440,B-3,79.75,0.25,60,139.29
441,G3,79.75,0.25,60,139.29
442,B-3,80.0,1.0,68,139.29
443,G3,80.0,1.0,68,139.29
444,C4,80.25,0.25,46,139.29
445,E4,80.5,0.25,47,139.29
446,G4,80.75,0.25,49,139.29
447,C5,81.0,0.25,50,139.29
448,C4,81.25,0.25,52,139.29
449,E4,81.5,0.25,53,139.29
450,G4,81.75,0.25,38,139.29
451,G3,81.75,0.25,61,139.29
452,B-3,81.75,0.25,61,139.29
453,F3,82.0,2.0,62,139.29
454,B-3,82.0,2.0,62,139.29
455,G3,82.0,2.0,62,139.29
456,C4,82.25,0.25,51,139.29
457,E4,82.5,0.25,52,139.29
458,G4,82.75,0.25,52,139.29
459,C5,83.0,1.0,54,139.29
460,C4,83.25,0.25,52,139.29
461,E4,83.5,0.25,52,139.29
462,G4,83.75,0.25,52,139.29
463,C5,84.0,1.0,53,139.29
464,G#3,84.0,0.5,50,139.29
465,F3,84.0,0.5,50,139.29
466,C4,84.25,0.25,52,139.29
467,E4,84.5,0.25,50,139.29
468,G4,84.75,0.25,49,139.29
469,C5,85.0,1.0,47,139.29
470,C4,85.25,0.25,46,139.29
471,F4,85.5,0.25,44,139.29
472,G#4,85.75,0.25,38,139.29
473,F2,86.0,1.0,45,139.29
474,F3,86.0,1.0,45,139.29
475,F4,86.25,0.25,38,139.29
476,A4,86.5,0.25,40,139.29
477,C5,86.75,0.25,42,139.29
478,F5,87.0,0.25,43,139.29
479,F4,87.25,0.25,45,139.29
480,A4,87.5,0.25,46,139.29
481,C5,87.75,0.25,48,139.29
482,C4,87.75,0.25,59,139.29
483,E-4,87.75,0.25,59,139.29
484,C4,88.0,1.0,68,139.29
485,E-4,88.0,1.0,68,139.29
486,F4,88.25,0.25,46,139.29
487,A4,88.5,0.25,47,139.29
488,C5,88.75,0.25,49,139.29
489,F5,89.0,0.25,50,139.29
490,F4,89.25,0.25,52,139.29
491,A4,89.5,0.25,53,139.29
492,C5,89.75,0.25,54,139.29
493,E-4,89.75,0.25,66,139.29
494,C4,89.75,0.25,66,139.29
495,C4,90.0,2.0,72,139.29
496,E-4,90.0,2.0,72,139.29
497,B-3,90.0,2.0,72,139.29
498,F4,90.25,0.25,50,139.29
499,A4,90.5,0.25,50,139.29
500,C5,90.75,0.25,50,139.29
501,F5,91.0,1.0,55,139.29
502,F4,91.25,0.25,53,139.29
503,A4,91.5,0.25,52,139.29
504,C5,91.75,0.25,52,139.29
505,F4,92.0,0.25,54,139.29
506,A4,92.0,0.25,54,139.29
507,F5,92.25,0.25,54,139.29
508,B-4,92.5,0.25,53,139.29
509,F4,92.5,0.25,53,139.29
510,C4,92.5,0.5,72,139.29
511,E-4,92.5,0.5,72,139.29
512,B-3,92.5,0.5,72,139.29
513,F5,92.75,0.25,52,139.29
514,C5,93.0,0.25,52,139.29
515,F4,93.0,0.25,52,139.29
516,B-3,93.0,0.5,64,139.29
517,C#4,93.0,0.5,64,139.29
518,F5,93.25,0.25,51,139.29
519,F4,93.5,0.25,50,139.29
520,C#5,93.5,0.25,50,139.29
521,C4,93.5,0.5,61,139.29
522,G#3,93.5,0.5,61,139.29
523,F5,93.75,0.25,50,139.29
524,G3,94.0,0.5,59,139.29
525,B-3,94.0,0.5,59,139.29
526,C4,94.25,0.25,52,139.29
527,F4,94.5,0.25,49,139.29
528,F3,94.5,1.0,56,139.29
529,G#3,94.5,1.0,56,139.29
530,C3,94.5,1.0,56,139.29
531,G#4,94.75,0.25,50,139.29
532,C5,95.0,1.0,56,139.29
533,C4,95.25,0.25,50,139.29
534,F4,95.5,0.25,50,139.29
535,G#4,95.75,0.25,50,139.29
536,C5,96.0,1.0,56,139.29
537,C4,96.25,0.25,52,139.29
538,G#3,96.25,0.25,56,139.29
539,F3,96.25,0.25,56,139.29
540,G4,96.5,0.25,52,139.29
541,G3,96.5,1.0,63,139.29
542,B-3,96.5,1.0,63,139.29
543,C3,96.5,1.0,63,139.29
544,B-4,96.75,0.25,52,139.29
545,C5,97.0,1.0,56,139.29
546,C4,97.25,0.25,52,139.29
547,E4,97.5,0.25,52,139.29
548,G4,97.75,0.25,52,139.29
549,C4,98.0,1.0,59,139.29
550,C5,98.0,1.0,59,139.29
551,F4,98.0,1.0,59,139.29
552,G#4,98.0,1.0,59,139.29
553,G3,98.25,0.25,53,139.29
554,E3,98.25,0.25,53,139.29
555,F3,98.5,0.25,56,139.29
556,C4,98.75,0.25,49,139.29
557,G#3,99.0,0.25,49,139.29
558,F3,99.25,0.25,49,139.29
559,C3,99.5,0.25,53,139.29
560,G#3,99.75,0.25,49,139.29
561,G#5,99.75,0.25,69,139.29
562,F5,99.75,0.25,69,139.29
563,F3,100.0,0.25,49,139.29
564,G#5,100.0,1.0,74,139.29
565,F5,100.0,1.0,74,139.29
566,C3,100.25,0.25,49,139.29
567,G#2,100.5,0.25,53,139.29
568,F3,100.75,0.25,49,139.29
569,C3,101.0,0.25,49,139.29
570,G#2,101.25,0.25,49,139.29
571,F2,101.5,0.25,53,139.29
572,C3,101.75,0.25,49,139.29
573,F5,101.75,0.25,70,139.29
574,G#5,101.75,0.25,70,139.29
575,G#2,102.0,0.25,49,139.29
576,F5,102.0,2.0,75,139.29
577,G#5,102.0,2.0,75,139.29
578,F2,102.25,0.25,49,139.29
579,C2,102.5,0.25,53,139.29
580,F2,102.75,0.25,49,139.29
581,G#2,103.0,0.25,49,139.29
582,C3,103.25,0.25,49,139.29
583,B2,103.5,0.25,53,139.29
584,C3,103.75,0.25,49,139.29
585,B2,104.0,0.25,49,139.29
586,E5,104.0,0.5,68,139.29
587,G5,104.0,0.5,68,139.29
588,C3,104.25,0.25,49,139.29
589,B2,104.5,0.25,53,139.29
590,C3,104.75,0.25,49,139.29
591,G2,105.0,0.25,49,139.29
592,C3,105.25,0.25,49,139.29
593,E2,105.5,0.25,53,139.29
594,C3,105.75,0.25,49,139.29
595,G2,106.0,0.25,49,139.29
596,C3,106.25,0.25,49,139.29
597,C2,106.5,0.25,56,139.29
598,E2,106.75,0.25,49,139.29
599,G2,107.0,0.25,49,139.29
600,C3,107.25,0.25,49,139.29
601,E2,107.5,0.25,53,139.29
602,G2,107.75,0.25,49,139.29
603,B-5,107.75,0.25,69,139.29
604,G5,107.75,0.25,69,139.29
605,C3,108.0,0.25,49,139.29
606,B-5,108.0,1.0,74,139.29
607,G5,108.0,1.0,74,139.29
608,E3,108.25,0.25,49,139.29
609,G2,108.5,0.25,53,139.29
610,C3,108.75,0.25,49,139.29
611,E3,109.0,0.25,49,139.29
612,G3,109.25,0.25,49,139.29
613,C3,109.5,0.25,53,139.29
614,E3,109.75,0.25,49,139.29
615,G5,109.75,0.25,70,139.29
616,B-5,109.75,0.25,70,139.29
617,G3,110.0,0.25,49,139.29
618,B-5,110.0,2.0,75,139.29
619,G5,110.0,2.0,75,139.29
620,C4,110.25,0.25,49,139.29
621,F3,110.5,0.25,59,139.29
622,G#3,110.75,0.25,49,139.29
623,C4,111.0,0.25,49,139.29
624,F4,111.25,0.25,49,139.29
625,E4,111.5,0.25,53,139.29
626,F4,111.75,0.25,49,139.29
627,E4,112.0,0.25,49,139.29
628,G#5,112.0,0.5,68,139.29
629,F5,112.0,0.5,68,139.29
630,F4,112.25,0.25,49,139.29
631,E4,112.5,0.25,53,139.29
632,F4,112.75,0.25,49,139.29
633,C4,113.0,0.25,49,139.29
634,F4,113.25,0.25,49,139.29
635,G#3,113.5,0.25,53,139.29
636,F4,113.75,0.25,49,139.29
637,C4,114.0,0.25,49,139.29
638,F4,114.25,0.25,49,139.29
639,F3,114.5,0.25,61,139.29
640,A3,114.75,0.25,53,139.29
641,C4,115.0,0.25,53,139.29
642,F4,115.25,0.25,53,139.29
643,A3,115.5,0.25,58,139.29
644,C4,115.75,0.25,53,139.29
645,C6,115.75,0.25,82,139.29
646,E-6,115.75,0.25,82,139.29
647,F4,116.0,0.25,53,139.29
648,E-6,116.0,1.0,89,139.29
649,C6,116.0,1.0,89,139.29
650,A4,116.25,0.25,53,139.29
651,C4,116.5,0.25,58,139.29
652,F4,116.75,0.25,53,139.29
653,A4,117.0,0.25,53,139.29
654,C5,117.25,0.25,53,139.29
655,F4,117.5,0.25,58,139.29
656,A4,117.75,0.25,53,139.29
657,C6,117.75,0.25,84,139.29
658,E-6,117.75,0.25,84,139.29
659,C5,118.0,0.25,53,139.29
660,E-6,118.0,2.0,90,139.29
661,C6,118.0,2.0,90,139.29
662,F5,118.25,0.25,53,139.29
663,A4,118.5,0.25,67,139.29
664,F5,118.75,0.25,53,139.29
665,E5,119.0,0.25,53,139.29
666,F5,119.25,0.25,53,139.29
667,A4,119.5,0.25,58,139.29
668,F5,119.75,0.25,53,139.29
669,A4,120.0,0.25,53,139.29
670,F5,120.25,0.25,53,139.29
671,A4,120.5,0.25,57,139.29
672,E-6,120.5,0.5,90,139.29
673,C6,120.5,0.5,90,139.29
674,F5,120.75,0.25,56,139.29
675,B-4,121.0,0.25,56,139.29
676,C#6,121.0,0.5,79,139.29
677,B-5,121.0,0.5,79,139.29
678,F5,121.25,0.25,55,139.29
679,C5,121.5,0.25,54,139.29
680,G#5,121.5,0.5,77,139.29
681,C6,121.5,0.5,77,139.29
682,F5,121.75,0.25,53,139.29
683,C#5,122.0,0.25,52,139.29
684,G5,122.0,0.5,73,139.29
685,B-5,122.0,0.5,73,139.29
686,F5,122.25,0.25,52,139.29
687,C4,122.5,0.25,52,139.29
688,F5,122.5,1.0,82,139.29
689,G#5,122.5,1.0,82,139.29
690,F4,122.75,0.25,47,139.29
691,G#4,123.0,0.25,47,139.29
692,C5,123.25,0.25,47,139.29
693,B4,123.5,0.25,52,139.29
694,C5,123.75,0.25,47,139.29
695,B4,124.0,0.25,47,139.29
696,C5,124.25,0.25,47,139.29
697,F5,124.25,0.25,79,139.29
698,F6,124.25,0.25,79,139.29
699,G#5,124.25,0.25,79,139.29
700,C4,124.5,0.25,52,139.29
701,G5,124.5,1.0,82,139.29
702,G6,124.5,1.0,82,139.29
703,B-5,124.5,1.0,82,139.29
704,E4,124.75,0.25,47,139.29
705,G4,125.0,0.25,47,139.29
706,C5,125.25,0.25,47,139.29
707,C4,125.5,0.25,52,139.29
708,G4,125.75,0.25,47,139.29
709,B-4,126.0,0.25,47,139.29
710,C5,126.25,0.25,47,139.29
711,E5,126.25,0.25,79,139.29
712,E6,126.25,0.25,79,139.29
713,G5,126.25,0.25,79,139.29
714,F3,126.5,0.25,52,139.29
715,F5,126.5,0.25,73,139.29
716,F6,126.5,0.25,73,139.29
717,G#5,126.5,0.25,73,139.29
718,C5,126.75,0.25,61,139.29
719,F4,126.75,0.25,38,139.29
720,G#4,126.75,0.25,38,139.29
721,F5,127.0,0.25,62,139.29
722,C4,127.0,0.25,39,139.29
723,C5,127.0,0.25,39,139.29
724,G#5,127.25,0.25,63,139.29
725,G#4,127.25,0.25,41,139.29
726,F4,127.25,0.25,41,139.29
727,C6,127.5,0.25,68,139.29
728,C5,127.5,0.25,45,139.29
729,C4,127.5,0.25,45,139.29
730,C#6,127.75,0.25,65,139.29
731,G#4,127.75,0.25,44,139.29
732,F4,127.75,0.25,44,139.29
733,C6,128.0,0.25,66,139.29
734,C5,128.0,0.25,45,139.29
735,C4,128.0,0.25,45,139.29
736,B-5,128.25,0.25,65,139.29
737,G#4,128.25,0.25,45,139.29
738,F4,128.25,0.25,45,139.29
739,G#5,128.5,0.25,68,139.29
740,C5,128.5,0.25,46,139.29
741,C4,128.5,0.25,46,139.29
742,B-5,128.75,0.25,67,139.29
743,G#4,128.75,0.25,46,139.29
744,F4,128.75,0.25,46,139.29
745,G#5,129.0,0.25,66,139.29
746,C5,129.0,0.25,45,139.29
747,C4,129.0,0.25,45,139.29
748,G5,129.25,0.25,65,139.29
749,G#4,129.25,0.25,45,139.29
750,F4,129.25,0.25,45,139.29
751,F5,129.5,0.25,64,139.29
752,C5,129.5,0.25,45,139.29
753,C4,129.5,0.25,45,139.29
754,G5,129.75,0.25,63,139.29
755,G#4,129.75,0.25,44,139.29
756,F4,129.75,0.25,44,139.29
757,G#5,130.0,0.25,63,139.29
758,C5,130.0,0.25,44,139.29
759,C4,130.0,0.25,44,139.29
760,F5,130.25,0.25,62,139.29
761,G#4,130.25,0.25,43,139.29
762,F4,130.25,0.25,43,139.29
763,F3,130.5,0.25,54,139.29
764,C5,130.75,0.25,61,139.29
765,G#4,130.75,0.25,38,139.29
766,F4,130.75,0.25,38,139.29
767,F5,131.0,0.25,62,139.29
768,C5,131.0,0.25,39,139.29
769,C4,131.0,0.25,39,139.29
770,G#5,131.25,0.25,63,139.29
771,G#4,131.25,0.25,41,139.29
772,F4,131.25,0.25,41,139.29
773,C6,131.5,0.25,68,139.29
774,C5,131.5,0.25,45,139.29
775,C4,131.5,0.25,45,139.29
776,C#6,131.75,0.25,65,139.29
777,G#4,131.75,0.25,44,139.29
778,F4,131.75,0.25,44,139.29
779,C6,132.0,0.25,66,139.29
780,C4,132.0,0.25,45,139.29
781,C5,132.0,0.25,45,139.29
782,B-5,132.25,0.25,65,139.29
783,F4,132.25,0.25,45,139.29
784,G#4,132.25,0.25,45,139.29
785,G#5,132.5,0.25,68,139.29
786,C5,132.5,0.25,46,139.29
787,C4,132.5,0.25,46,139.29
788,B-5,132.75,0.25,67,139.29
789,G#4,132.75,0.25,46,139.29
790,F4,132.75,0.25,46,139.29
791,G#5,133.0,0.25,66,139.29
792,C5,133.0,0.25,45,139.29
793,C4,133.0,0.25,45,139.29
794,G5,133.25,0.25,65,139.29
795,G#4,133.25,0.25,45,139.29
796,F4,133.25,0.25,45,139.29
797,F5,133.5,0.25,64,139.29
798,C5,133.5,0.25,45,139.29
799,C4,133.5,0.25,45,139.29
800,G5,133.75,0.25,63,139.29
801,G#4,133.75,0.25,44,139.29
802,F4,133.75,0.25,44,139.29
803,G#5,134.0,0.25,63,139.29
804,C5,134.0,0.25,44,139.29
805,C4,134.0,0.25,44,139.29
806,F5,134.25,0.25,62,139.29
807,G#4,134.25,0.25,43,139.29
808,F4,134.25,0.25,43,139.29
809,G2,134.5,0.25,55,139.29
810,F5,134.75,0.25,64,139.29
811,G3,134.75,0.25,40,139.29
812,F3,134.75,0.25,40,139.29
813,B5,135.0,0.25,65,139.29
814,B3,135.0,0.25,41,139.29
815,D3,135.0,0.25,41,139.29
816,D6,135.25,0.25,66,139.29
817,G3,135.25,0.25,43,139.29
818,F3,135.25,0.25,43,139.29
819,F6,135.5,0.25,72,139.29
820,B3,135.5,0.25,47,139.29
821,D3,135.5,0.25,47,139.29
822,G6,135.75,0.25,69,139.29
823,G3,135.75,0.25,46,139.29
824,F3,135.75,0.25,46,139.29
825,F6,136.0,0.25,70,139.29
826,D3,136.0,0.25,47,139.29
827,B3,136.0,0.25,47,139.29
828,E-6,136.25,0.25,69,139.29
829,F3,136.25,0.25,48,139.29
830,G3,136.25,0.25,48,139.29
831,D6,136.5,0.25,72,139.29
832,D3,136.5,0.25,49,139.29
833,B3,136.5,0.25,49,139.29
834,E-6,136.75,0.25,71,139.29
835,G#3,136.75,0.25,49,139.29
836,F3,136.75,0.25,49,139.29
837,D6,137.0,0.25,70,139.29
838,B3,137.0,0.25,48,139.29
839,D3,137.0,0.25,48,139.29
840,C6,137.25,0.25,69,139.29
841,G#3,137.25,0.25,47,139.29
842,F3,137.25,0.25,47,139.29
843,B5,137.5,0.25,68,139.29
844,D3,137.5,0.25,47,139.29
845,B3,137.5,0.25,47,139.29
846,C6,137.75,0.25,67,139.29
847,F3,137.75,0.25,46,139.29
848,G3,137.75,0.25,46,139.29
849,D6,138.0,0.25,66,139.29
850,D3,138.0,0.25,46,139.29
851,B3,138.0,0.25,46,139.29
852,B5,138.25,0.25,65,139.29
853,F3,138.25,0.25,45,139.29
854,G3,138.25,0.25,45,139.29
855,G2,138.5,0.25,54,139.29
856,F5,138.75,0.25,64,139.29
857,F3,138.75,0.25,40,139.29
858,G3,138.75,0.25,40,139.29
859,B5,139.0,0.25,65,139.29
860,D3,139.0,0.25,41,139.29
861,B3,139.0,0.25,41,139.29
862,D6,139.25,0.25,66,139.29
863,F3,139.25,0.25,43,139.29
864,G3,139.25,0.25,43,139.29
865,F6,139.5,0.25,72,139.29
866,D3,139.5,0.25,47,139.29
867,B3,139.5,0.25,47,139.29
868,G6,139.75,0.25,69,139.29
869,F3,139.75,0.25,46,139.29
870,G3,139.75,0.25,46,139.29
871,F6,140.0,0.25,70,139.29
872,D3,140.0,0.25,47,139.29
873,B3,140.0,0.25,47,139.29
874,E-6,140.25,0.25,69,139.29
875,G3,140.25,0.25,48,139.29
876,F3,140.25,0.25,48,139.29
877,D6,140.5,0.25,72,139.29
878,B3,140.5,0.25,49,139.29
879,D3,140.5,0.25,49,139.29
880,E-6,140.75,0.25,71,139.29
881,F3,140.75,0.25,49,139.29
882,G#3,140.75,0.25,49,139.29
883,D6,141.0,0.25,70,139.29
884,D3,141.0,0.25,48,139.29
885,B3,141.0,0.25,48,139.29
886,C6,141.25,0.25,69,139.29
887,F3,141.25,0.25,47,139.29
888,G#3,141.25,0.25,47,139.29
889,B5,141.5,0.25,68,139.29
890,D3,141.5,0.25,47,139.29
891,B3,141.5,0.25,47,139.29
892,C6,141.75,0.25,67,139.29
893,G3,141.75,0.25,46,139.29
894,F3,141.75,0.25,46,139.29
895,D6,142.0,0.25,66,139.29
896,B3,142.0,0.25,46,139.29
897,D3,142.0,0.25,46,139.29
898,B5,142.25,0.25,65,139.29
899,G3,142.25,0.25,45,139.29
900,F3,142.25,0.25,45,139.29
901,C3,142.5,0.25,56,139.29
902,G5,142.75,0.25,67,139.29
903,C4,142.75,0.25,42,139.29
904,E-4,142.75,0.25,42,139.29
905,C6,143.0,0.25,68,139.29
906,G3,143.0,0.25,43,139.29
907,G4,143.0,0.25,43,139.29
908,E-6,143.25,0.25,69,139.29
909,E-4,143.25,0.25,45,139.29
910,C4,143.25,0.25,45,139.29
911,G6,143.5,0.25,75,139.29
912,G4,143.5,0.25,49,139.29
913,G3,143.5,0.25,49,139.29
914,G#6,143.75,0.25,72,139.29
915,E-4,143.75,0.25,48,139.29
916,C4,143.75,0.25,48,139.29
917,G6,144.0,0.25,73,139.29
918,G4,144.0,0.25,49,139.29
919,G3,144.0,0.25,49,139.29
920,F6,144.25,0.25,72,139.29
921,E-4,144.25,0.25,50,139.29
922,C4,144.25,0.25,50,139.29
923,E-6,144.5,0.25,75,139.29
924,G4,144.5,0.25,51,139.29
925,G3,144.5,0.25,51,139.29
926,F6,144.75,0.25,74,139.29
927,E-4,144.75,0.25,51,139.29
928,C4,144.75,0.25,51,139.29
929,E-6,145.0,0.25,73,139.29
930,G4,145.0,0.25,50,139.29
931,G3,145.0,0.25,50,139.29
932,D6,145.25,0.25,72,139.29
933,C4,145.25,0.25,49,139.29
934,E-4,145.25,0.25,49,139.29
935,C6,145.5,0.25,71,139.29
936,G3,145.5,0.25,49,139.29
937,G4,145.5,0.25,49,139.29
938,D6,145.75,0.25,70,139.29
939,E-4,145.75,0.25,48,139.29
940,C4,145.75,0.25,48,139.29
941,E-6,146.0,0.25,69,139.29
942,G4,146.0,0.25,48,139.29
943,G3,146.0,0.25,48,139.29
944,C6,146.25,0.25,68,139.29
945,E-4,146.25,0.25,47,139.29
946,C4,146.25,0.25,47,139.29
947,C3,146.5,0.5,56,139.29
948,G5,146.75,0.25,67,139.29
949,C6,147.0,0.25,68,139.29
950,G4,147.0,0.25,43,139.29
951,E-6,147.25,0.25,69,139.29
952,E-4,147.25,0.25,45,139.29
953,G6,147.5,0.25,76,139.29
954,C5,147.5,0.25,49,139.29
955,G#6,147.75,0.25,74,139.29
956,G4,147.75,0.25,49,139.29
957,G6,148.0,0.25,75,139.29
958,C5,148.0,0.25,50,139.29
959,F6,148.25,0.25,74,139.29
960,G4,148.25,0.25,52,139.29
961,E-6,148.5,0.25,78,139.29
962,E-5,148.5,0.25,53,139.29
963,F6,148.75,0.25,77,139.29
964,C5,148.75,0.25,53,139.29
965,E-6,149.0,0.25,77,139.29
966,E-5,149.0,0.25,53,139.29
967,D6,149.25,0.25,76,139.29
968,C5,149.25,0.25,51,139.29
969,C6,149.5,0.25,75,139.29
970,G5,149.5,0.25,52,139.29
971,D6,149.75,0.25,75,139.29
972,E-5,149.75,0.25,51,139.29
973,E-6,150.0,0.25,74,139.29
974,G5,150.0,0.25,51,139.29
975,C6,150.25,0.25,74,139.29
976,E-5,150.25,0.25,51,139.29
977,F5,150.5,1.5,80,139.29
978,G#5,150.5,1.5,80,139.29
979,C#6,150.75,0.25,70,139.29
980,E-6,151.0,0.25,73,139.29
981,C#6,151.25,0.25,70,139.29
982,E-6,151.5,0.25,65,139.29
983,C#6,151.75,0.25,63,139.29
984,C6,152.0,0.25,59,139.29
985,G5,152.0,0.5,66,139.29
986,E-5,152.0,0.5,66,139.29
987,C#6,152.25,0.25,59,139.29
988,D5,152.5,1.0,68,139.29
989,F5,152.5,1.0,68,139.29
990,B5,152.75,0.25,58,139.29
991,C6,153.0,0.25,60,139.29
992,B5,153.25,0.25,57,139.29
993,E-5,153.5,1.0,64,139.29
994,G5,153.5,1.0,64,139.29
995,C6,153.75,0.25,57,139.29
996,D6,154.0,0.25,60,139.29
997,C6,154.25,0.25,56,139.29
998,G#5,154.5,1.5,80,139.29
999,F5,154.5,1.5,80,139.29
1000,C#6,154.75,0.25,70,139.29
1001,E-6,155.0,0.25,73,139.29
1002,C#6,155.25,0.25,70,139.29
1003,E-6,155.5,0.25,65,139.29
1004,C#6,155.75,0.25,63,139.29
1005,C6,156.0,0.25,59,139.29
1006,G5,156.0,0.5,66,139.29
1007,E-5,156.0,0.5,66,139.29
1008,C#6,156.25,0.25,59,139.29
1009,F5,156.5,1.0,68,139.29
1010,D5,156.5,1.0,68,139.29
1011,B5,156.75,0.25,58,139.29
1012,C6,157.0,0.25,60,139.29
1013,B5,157.25,0.25,57,139.29
1014,G5,157.5,1.0,64,139.29
1015,E-5,157.5,1.0,64,139.29
1016,C6,157.75,0.25,57,139.29
1017,D6,158.0,0.25,60,139.29
1018,C6,158.25,0.25,56,139.29
1019,F5,158.5,1.5,80,139.29
1020,G#5,158.5,1.5,80,139.29
1021,C#6,158.75,0.25,70,139.29
1022,E-6,159.0,0.25,73,139.29
1023,C#6,159.25,0.25,70,139.29
1024,E-6,159.5,0.25,73,139.29
1025,C#6,159.75,0.25,70,139.29
1026,C6,160.0,0.25,59,139.29
1027,G5,160.0,0.5,66,139.29
1028,E-5,160.0,0.5,66,139.29
1029,D6,160.25,0.25,59,139.29
1030,D5,160.5,1.0,68,139.29
1031,F5,160.5,1.0,68,139.29
1032,B5,160.75,0.25,58,139.29
1033,C6,161.0,0.25,60,139.29
1034,B5,161.25,0.25,58,139.29
1035,C5,161.5,1.0,65,139.29
1036,E-5,161.5,1.0,65,139.29
1037,G#5,161.75,0.25,58,139.29
1038,B-5,162.0,0.25,61,139.29
1039,G#5,162.25,0.25,57,139.29
1040,B4,162.5,1.0,70,139.29
1041,D5,162.5,1.0,70,139.29
1042,G5,162.75,0.25,60,139.29
1043,G#5,163.0,0.25,62,139.29
1044,G5,163.25,0.25,60,139.29
1045,C5,163.5,1.0,70,139.29
1046,A4,163.5,1.0,70,139.29
1047,F#5,163.75,0.25,61,139.29
1048,G5,164.0,0.25,65,139.29
1049,F#5,164.25,0.25,62,139.29
1050,C5,164.5,1.0,75,139.29
1051,G#4,164.5,1.0,75,139.29
1052,F5,164.75,0.25,65,139.29
1053,G5,165.0,0.25,67,139.29
1054,F5,165.25,0.25,64,139.29
1055,C5,165.5,1.0,75,139.29
1056,G4,165.5,1.0,75,139.29
1057,E-5,165.75,0.25,66,139.29
1058,F5,166.0,0.25,69,139.29
1059,E-5,166.25,0.25,67,139.29
1060,F#4,166.5,2.0,76,139.29
1061,E-5,166.75,0.25,67,139.29
1062,F5,167.0,0.25,70,139.29
1063,E-5,167.25,0.25,68,139.29
1064,G#4,167.5,1.0,75,139.29
1065,D5,167.75,0.25,66,139.29
1066,E-5,168.0,0.25,69,139.29
1067,D5,168.25,0.25,64,139.29
1068,E-4,168.5,1.0,72,139.29
1069,G3,168.5,2.0,72,139.29
1070,G4,168.5,2.0,72,139.29
1071,C5,168.75,0.25,64,139.29
1072,D5,169.0,0.25,65,139.29
1073,C5,169.25,0.25,62,139.29
1074,D4,169.5,1.0,68,139.29
1075,B4,169.75,0.25,60,139.29
1076,C5,170.0,0.25,62,139.29
1077,B4,170.25,0.25,57,139.29
1078,F3,170.5,1.5,65,139.29
1079,C#4,170.5,1.5,65,139.29
1080,G#3,170.5,1.5,65,139.29
1081,G#4,170.75,0.25,66,139.29
1082,G#5,171.0,0.25,73,139.29
1083,G#4,171.25,0.25,59,139.29
1084,G#5,171.5,0.25,71,139.29
1085,G#4,171.75,0.25,58,139.29
1086,G#5,172.0,0.25,63,139.29
1087,G3,172.0,0.5,53,139.29
1088,C4,172.0,0.5,53,139.29
1089,E-3,172.0,0.5,53,139.29
1090,G#4,172.25,0.25,59,139.29
1091,D3,172.5,1.0,56,139.29
1092,F3,172.5,1.0,56,139.29
1093,B3,172.5,1.0,56,139.29
1094,G#4,172.75,0.25,60,139.29
1095,G#5,173.0,0.25,71,139.29
1096,G5,173.25,0.25,66,139.29
1097,F5,173.5,0.25,68,139.29
1098,G3,173.5,1.0,51,139.29
1099,C4,173.5,1.0,51,139.29
1100,E-3,173.5,1.0,51,139.29
1101,E-5,173.75,0.25,66,139.29
1102,D5,174.0,0.25,65,139.29
1103,C5,174.25,0.25,58,139.29
1104,F3,174.5,1.5,65,139.29
1105,C#4,174.5,1.5,65,139.29
1106,G#3,174.5,1.5,65,139.29
1107,G#5,174.75,0.25,68,139.29
1108,G#6,175.0,0.25,75,139.29
1109,G#5,175.25,0.25,67,139.29
1110,G#6,175.5,0.25,74,139.29
1111,G#5,175.75,0.25,67,139.29
1112,G#6,176.0,0.25,69,139.29
1113,G3,176.0,0.5,53,139.29
1114,C4,176.0,0.5,53,139.29
1115,E-3,176.0,0.5,53,139.29
1116,G#5,176.25,0.25,60,139.29
1117,D3,176.5,1.0,54,139.29
1118,B3,176.5,1.0,54,139.29
1119,F3,176.5,1.0,54,139.29
1120,G#5,176.75,0.25,61,139.29
1121,G#6,177.0,0.25,73,139.29
1122,G6,177.25,0.25,66,139.29
1123,F6,177.5,0.25,70,139.29
1124,E-3,177.5,1.0,51,139.29
1125,G3,177.5,1.0,51,139.29
1126,C4,177.5,1.0,51,139.29
1127,E-6,177.75,0.25,68,139.29
1128,D6,178.0,0.25,67,139.29
1129,C6,178.25,0.25,65,139.29
1130,C#4,178.5,1.5,65,139.29
1131,G#3,178.5,1.5,65,139.29
1132,F3,178.5,1.5,65,139.29
1133,G#4,178.75,0.25,66,139.29
1134,G#5,179.0,0.25,73,139.29
1135,G#4,179.25,0.25,66,139.29
1136,G#5,179.5,0.25,73,139.29
1137,G#4,179.75,0.25,66,139.29
1138,G#5,180.0,0.25,68,139.29
1139,C4,180.0,0.5,53,139.29
1140,E-3,180.0,0.5,53,139.29
1141,G3,180.0,0.5,53,139.29
1142,G#4,180.25,0.25,61,139.29
1143,D3,180.5,1.0,54,139.29
1144,B3,180.5,1.0,54,139.29
1145,F3,180.5,1.0,54,139.29
1146,G#5,180.75,0.25,68,139.29
1147,G#4,181.0,0.25,60,139.29
1148,G#5,181.25,0.25,68,139.29
1149,G#3,181.5,1.0,52,139.29
1150,E-3,181.5,1.0,52,139.29
1151,C3,181.5,1.0,52,139.29
1152,G#6,181.75,0.25,78,139.29
1153,G#5,182.0,0.25,69,139.29
1154,G#6,182.25,0.25,75,139.29
1155,G3,182.5,1.0,60,139.29
1156,B2,182.5,1.0,60,139.29
1157,D3,182.5,1.0,60,139.29
1158,G6,182.75,0.25,78,139.29
1159,G5,183.0,0.25,71,139.29
1160,G6,183.25,0.25,74,139.29
1161,F#3,183.5,1.0,58,139.29
1162,E-3,183.5,1.0,58,139.29
1163,C3,183.5,1.0,58,139.29
1164,A2,183.5,1.0,58,139.29
1165,F#6,183.75,0.25,75,139.29
1166,F#5,184.0,0.25,71,139.29
1167,F#6,184.25,0.25,74,139.29
1168,D3,184.5,1.0,60,139.29
1169,B2,184.5,1.0,60,139.29
1170,F3,184.5,1.0,60,139.29
1171,F6,184.75,0.25,78,139.29
1172,F5,185.0,0.25,69,139.29
1173,F6,185.25,0.25,74,139.29
1174,E-3,185.5,1.0,62,139.29
1175,C3,185.5,1.0,62,139.29
1176,E-6,185.75,0.25,77,139.29
1177,G5,186.0,0.25,71,139.29
1178,E-5,186.0,0.25,71,139.29
1179,E-6,186.25,0.25,75,139.29
1180,E-3,186.5,1.0,66,139.29
1181,F#2,186.5,2.0,56,139.29
1182,A2,186.5,2.0,56,139.29
1183,E-6,186.75,0.25,75,139.29
1184,A5,187.0,0.25,68,139.29
1185,E-5,187.0,0.25,68,139.29
1186,E-6,187.25,0.25,75,139.29
1187,D3,187.5,1.0,64,139.29
1188,D6,187.75,0.25,73,139.29
1189,A5,188.0,0.25,66,139.29
1190,D5,188.0,0.25,66,139.29
1191,D6,188.25,0.25,73,139.29
1192,C3,188.5,1.0,61,139.29
1193,G2,188.5,2.0,61,139.29
1194,C6,188.75,0.25,71,139.29
1195,E-5,189.0,0.25,66,139.29
1196,C5,189.0,0.25,66,139.29
1197,C6,189.25,0.25,71,139.29
1198,B2,189.5,1.0,59,139.29
1199,B5,189.75,0.25,69,139.29
1200,B4,190.0,0.25,62,139.29
1201,D5,190.0,0.25,62,139.29
1202,B5,190.25,0.25,64,139.29
1203,G5,190.5,0.25,68,139.29
1204,C6,190.5,0.25,68,139.29
1205,E-5,190.5,0.25,68,139.29
1206,C5,190.5,0.25,68,139.29
1207,C2,190.5,0.5,62,139.29
1208,G2,190.5,0.5,62,139.29
1209,C3,190.5,0.5,62,139.29
1210,E-2,190.5,0.5,62,139.29
1211,G4,190.75,0.25,74,139.29
1212,C5,191.0,0.25,76,139.29
1213,E-5,191.25,0.25,78,139.29
1214,G5,191.5,0.25,80,139.29
1215,G#5,191.75,0.25,76,139.29
1216,G3,191.75,0.25,59,139.29
1217,G5,192.0,0.25,76,139.29
1218,C4,192.0,0.25,62,139.29
1219,F5,192.25,0.25,76,139.29
1220,E-4,192.25,0.25,64,139.29
1221,E-5,192.5,0.25,77,139.29
1222,G4,192.5,0.25,70,139.29
1223,F5,192.75,0.25,71,139.29
1224,G#4,192.75,0.25,64,139.29
1225,E-5,193.0,0.25,72,139.29
1226,G4,193.0,0.25,64,139.29
1227,D5,193.25,0.25,72,139.29
1228,F4,193.25,0.25,64,139.29
1229,C5,193.5,0.25,78,139.29
1230,E-4,193.5,0.25,70,139.29
1231,B-4,193.75,0.25,73,139.29
1232,D4,193.75,0.25,63,139.29
1233,G#4,194.0,0.25,73,139.29
1234,C4,194.0,0.25,63,139.29
1235,G4,194.25,0.25,72,139.29
1236,B-3,194.25,0.25,63,139.29
1237,F4,194.5,0.25,75,139.29
1238,G#3,194.5,0.25,67,139.29
1239,E-4,194.75,0.25,70,139.29
1240,G3,194.75,0.25,60,139.29
1241,D4,195.0,0.25,70,139.29
1242,F3,195.0,0.25,60,139.29
1243,C4,195.25,0.25,70,139.29
1244,E-3,195.25,0.25,60,139.29
1245,B3,195.5,0.5,73,139.29
1246,D3,195.5,0.25,71,139.29
1247,E-3,195.75,0.25,65,139.29
1248,F3,196.0,0.25,73,139.29
1249,D4,196.0,0.375,72,139.29
1250,G3,196.0,0.375,72,139.29
1251,B3,196.0,0.375,72,139.29
1252,G4,196.0,0.375,72,139.29
1253,E-3,196.25,0.25,69,139.29
1254,D3,196.5,0.25,73,139.29
1255,B3,196.5,0.375,67,139.29
1256,F4,196.5,0.375,67,139.29
1257,G3,196.5,0.375,67,139.29
1258,G4,196.5,0.375,67,139.29
1259,C3,196.75,0.25,73,139.29
1260,B2,197.0,0.25,72,139.29
1261,B3,197.0,0.375,66,139.29
1262,G3,197.0,0.375,66,139.29
1263,F4,197.0,0.375,66,139.29
1264,G4,197.0,0.375,66,139.29
1265,G#2,197.25,0.25,72,139.29
1266,G2,197.5,0.25,71,139.29
1267,G3,197.5,0.375,66,139.29
1268,G4,197.5,0.375,66,139.29
1269,B3,197.5,0.375,66,139.29
1270,F4,197.5,0.375,66,139.29
1271,F2,197.75,0.25,71,139.29
1272,E-2,198.0,0.25,70,139.29
1273,F4,198.0,0.375,66,139.29
1274,G4,198.0,0.375,66,139.29
1275,G3,198.0,0.375,66,139.29
1276,B3,198.0,0.375,66,139.29
1277,D2,198.25,0.25,70,139.29
1278,E-4,198.5,0.25,77,139.29
1279,G3,198.5,0.25,77,139.29
1280,C4,198.5,0.25,77,139.29
1281,G4,198.5,0.25,77,139.29
1282,C2,198.5,0.5,70,139.29
1283,G2,198.5,0.5,70,139.29
1284,C3,198.5,0.5,70,139.29
1285,E-2,198.5,0.5,70,139.29
1286,G5,198.75,0.25,74,139.29
1287,C6,199.0,0.25,76,139.29
1288,E-6,199.25,0.25,78,139.29
1289,G6,199.5,0.25,80,139.29
1290,G#6,199.75,0.25,76,139.29
1291,G4,199.75,0.25,59,139.29
1292,G6,200.0,0.25,76,139.29
1293,C5,200.0,0.25,62,139.29
1294,F6,200.25,0.25,76,139.29
1295,E-5,200.25,0.25,64,139.29
1296,E-6,200.5,0.25,77,139.29
1297,G5,200.5,0.25,70,139.29
1298,F6,200.75,0.25,71,139.29
1299,G#5,200.75,0.25,64,139.29
1300,E-6,201.0,0.25,72,139.29
1301,G5,201.0,0.25,64,139.29
1302,D6,201.25,0.25,72,139.29
1303,F5,201.25,0.25,64,139.29
1304,C6,201.5,0.25,78,139.29
1305,E-5,201.5,0.25,70,139.29
1306,B-5,201.75,0.25,73,139.29
1307,D5,201.75,0.25,63,139.29
1308,G#5,202.0,0.25,73,139.29
1309,C5,202.0,0.25,63,139.29
1310,G5,202.25,0.25,72,139.29
1311,B-4,202.25,0.25,63,139.29
1312,F5,202.5,0.25,75,139.29
1313,G#4,202.5,0.25,67,139.29
1314,E-5,202.75,0.25,70,139.29
1315,G4,202.75,0.25,60,139.29
1316,D5,203.0,0.25,70,139.29
1317,F4,203.0,0.25,60,139.29
1318,C5,203.25,0.25,70,139.29
1319,E-4,203.25,0.25,60,139.29
1320,B4,203.5,0.5,73,139.29
1321,D4,203.5,0.25,71,139.29
1322,E-4,203.75,0.25,65,139.29
1323,F4,204.0,0.25,73,139.29
1324,B4,204.0,0.375,70,139.29
1325,G5,204.0,0.375,70,139.29
1326,D5,204.0,0.375,70,139.29
1327,G4,204.0,0.375,70,139.29
1328,E-4,204.25,0.25,69,139.29
1329,D4,204.5,0.25,73,139.29
1330,G4,204.5,0.375,64,139.29
1331,G5,204.5,0.375,64,139.29
1332,B4,204.5,0.375,64,139.29
1333,F5,204.5,0.375,64,139.29
1334,C4,204.75,0.25,73,139.29
1335,B3,205.0,0.25,72,139.29
1336,F5,205.0,0.375,62,139.29
1337,G4,205.0,0.375,62,139.29
1338,B4,205.0,0.375,62,139.29
1339,G5,205.0,0.375,62,139.29
1340,G#3,205.25,0.25,72,139.29
1341,G3,205.5,0.25,71,139.29
1342,B4,205.5,0.375,64,139.29
1343,F5,205.5,0.375,64,139.29
1344,G4,205.5,0.375,64,139.29
1345,G5,205.5,0.375,64,139.29
1346,F3,205.75,0.25,71,139.29
1347,E-3,206.0,0.25,70,139.29
1348,B4,206.0,0.375,63,139.29
1349,G4,206.0,0.375,63,139.29
1350,F5,206.0,0.375,63,139.29
1351,G5,206.0,0.375,63,139.29
1352,D3,206.25,0.25,70,139.29
1353,C3,206.5,0.25,67,139.29
1354,G4,206.5,0.5,64,139.29
1355,G5,206.5,0.5,64,139.29
1356,C5,206.5,0.5,64,139.29
1357,E-5,206.5,0.5,64,139.29
1358,D3,206.75,0.25,60,139.29
1359,E-3,207.0,0.25,60,139.29
1360,F3,207.25,0.25,60,139.29
1361,G3,207.5,0.25,71,139.29
1362,A3,207.75,0.25,65,139.29
1363,B3,208.0,0.25,73,139.29
1364,E-6,208.0,0.375,70,139.29
1365,G6,208.0,0.375,70,139.29
1366,G5,208.0,0.375,70,139.29
1367,C6,208.0,0.375,70,139.29
1368,C4,208.25,0.25,69,139.29
1369,D4,208.5,0.25,73,139.29
1370,F6,208.5,0.375,64,139.29
1371,G5,208.5,0.375,64,139.29
1372,B5,208.5,0.375,64,139.29
1373,G6,208.5,0.375,64,139.29
1374,C4,208.75,0.25,73,139.29
1375,B3,209.0,0.25,72,139.29
1376,B5,209.0,0.375,62,139.29
1377,G6,209.0,0.375,62,139.29
1378,F6,209.0,0.375,62,139.29
1379,G5,209.0,0.375,62,139.29
1380,G#3,209.25,0.25,72,139.29
1381,G3,209.5,0.25,71,139.29
1382,G5,209.5,0.375,64,139.29
1383,G6,209.5,0.375,64,139.29
1384,F6,209.5,0.375,64,139.29
1385,B5,209.5,0.375,64,139.29
1386,F3,209.75,0.25,71,139.29
1387,E-3,210.0,0.25,70,139.29
1388,B5,210.0,0.375,63,139.29
1389,G6,210.0,0.375,63,139.29
1390,F6,210.0,0.375,63,139.29
1391,G5,210.0,0.375,63,139.29
1392,D3,210.25,0.25,70,139.29
1393,C3,210.5,0.25,67,139.29
1394,G5,210.5,0.375,64,139.29
1395,G6,210.5,0.375,64,139.29
1396,C6,210.5,0.375,64,139.29
1397,E-6,210.5,0.375,64,139.29
1398,D3,210.75,0.25,60,139.29
1399,E-3,211.0,0.25,60,139.29
1400,F3,211.25,0.25,60,139.29
1401,G3,211.5,0.25,71,139.29
1402,A3,211.75,0.25,65,139.29
1403,B3,212.0,0.25,73,139.29
1404,E-5,212.0,0.375,70,139.29
1405,G4,212.0,0.375,70,139.29
1406,C5,212.0,0.375,70,139.29
1407,G5,212.0,0.375,70,139.29
1408,C4,212.25,0.25,69,139.29
1409,D4,212.5,0.25,73,139.29
1410,B4,212.5,0.375,64,139.29
1411,F5,212.5,0.375,64,139.29
1412,G4,212.5,0.375,64,139.29
1413,G5,212.5,0.375,64,139.29
1414,C4,212.75,0.25,73,139.29
1415,B3,213.0,0.25,72,139.29
1416,B4,213.0,0.375,62,139.29
1417,G4,213.0,0.375,62,139.29
1418,F5,213.0,0.375,62,139.29
1419,G5,213.0,0.375,62,139.29
1420,G#3,213.25,0.25,72,139.29
1421,G3,213.5,0.25,71,139.29
1422,G4,213.5,0.375,64,139.29
1423,G5,213.5,0.375,64,139.29
1424,B4,213.5,0.375,64,139.29
1425,F5,213.5,0.375,64,139.29
1426,F3,213.75,0.25,71,139.29
1427,E-3,214.0,0.25,70,139.29
1428,F5,214.0,0.375,63,139.29
1429,G5,214.0,0.375,63,139.29
1430,G4,214.0,0.375,63,139.29
1431,B4,214.0,0.375,63,139.29
1432,D3,214.25,0.25,70,139.29
1433,C3,214.5,0.25,67,139.29
1434,E-5,214.5,0.375,62,139.29
1435,G4,214.5,0.375,62,139.29
1436,C5,214.5,0.375,62,139.29
1437,G5,214.5,0.375,62,139.29
1438,D3,214.75,0.25,60,139.29
1439,E-3,215.0,0.25,60,139.29
1440,F3,215.25,0.25,60,139.29
1441,G3,215.5,0.25,71,139.29
1442,A3,215.75,0.25,65,139.29
1443,B3,216.0,0.25,73,139.29
1444,E-5,216.0,0.375,70,139.29
1445,C6,216.0,0.375,70,139.29
1446,G5,216.0,0.375,70,139.29
1447,C5,216.0,0.375,70,139.29
1448,C4,216.25,0.25,69,139.29
1449,B-3,216.5,0.25,73,139.29
1450,C5,216.5,0.375,62,139.29
1451,C6,216.5,0.375,62,139.29
1452,E5,216.5,0.375,62,139.29
1453,G5,216.5,0.375,62,139.29
1454,G#3,216.75,0.25,73,139.29
1455,G3,217.0,0.25,72,139.29
1456,C5,217.0,0.375,60,139.29
1457,C6,217.0,0.375,60,139.29
1458,E5,217.0,0.375,60,139.29
1459,G5,217.0,0.375,60,139.29
1460,F3,217.25,0.25,72,139.29
1461,E3,217.5,0.25,71,139.29
1462,G5,217.5,0.375,62,139.29
1463,C6,217.5,0.375,62,139.29
1464,E5,217.5,0.375,62,139.29
1465,C5,217.5,0.375,62,139.29
1466,D3,217.75,0.25,71,139.29
1467,C3,218.0,0.25,70,139.29
1468,E5,218.0,0.375,60,139.29
1469,C5,218.0,0.375,60,139.29
1470,C6,218.0,0.375,60,139.29
1471,G5,218.0,0.375,60,139.29
1472,B-2,218.25,0.25,70,139.29
1473,G#2,218.5,0.25,67,139.29
1474,F5,218.5,0.375,62,139.29
1475,C6,218.5,0.375,62,139.29
1476,G#5,218.5,0.375,62,139.29
1477,C5,218.5,0.375,62,139.29
1478,B-2,218.75,0.25,60,139.29
1479,C3,219.0,0.25,60,139.29
1480,D3,219.25,0.25,60,139.29
1481,E3,219.5,0.25,71,139.29
1482,F3,219.75,0.25,65,139.29
1483,G3,220.0,0.25,73,139.29
1484,C4,220.0,0.5,70,139.29
1485,C5,220.0,0.5,70,139.29
1486,F4,220.0,0.5,70,139.29
1487,G#4,220.0,0.5,70,139.29
1488,G#3,220.25,0.25,69,139.29
1489,G3,220.5,0.25,73,139.29
1490,B-4,220.5,0.5,64,139.29
1491,C4,220.5,0.5,64,139.29
1492,E4,220.5,0.5,64,139.29
1493,C5,220.5,0.5,64,139.29
1494,F3,220.75,0.25,73,139.29
1495,E3,221.0,0.25,72,139.29
1496,E4,221.0,0.5,62,139.29
1497,B-4,221.0,0.5,62,139.29
1498,C4,221.0,0.5,62,139.29
1499,C5,221.0,0.5,62,139.29
1500,D3,221.25,0.25,72,139.29
1501,C3,221.5,0.25,71,139.29
1502,E4,221.5,0.5,64,139.29
1503,C4,221.5,0.5,64,139.29
1504,B-4,221.5,0.5,64,139.29
1505,C5,221.5,0.5,64,139.29
1506,B-2,221.75,0.25,71,139.29
1507,G#2,222.0,0.25,70,139.29
1508,C4,222.0,0.5,63,139.29
1509,C5,222.0,0.5,63,139.29
1510,E4,222.0,0.5,63,139.29
1511,B-4,222.0,0.5,63,139.29
1512,G2,222.25,0.25,70,139.29
1513,A4,222.5,0.25,79,139.29
1514,C5,222.5,0.25,79,139.29
1515,C4,222.5,0.25,79,139.29
1516,E-4,222.5,0.25,79,139.29
1517,F#1,222.5,0.25,77,139.29
1518,F#2,222.5,0.25,77,139.29
1519,A3,222.75,0.25,70,139.29
1520,C4,223.0,0.25,71,139.29
1521,E-4,223.25,0.25,72,139.29
1522,F#4,223.5,0.25,72,139.29
1523,A4,223.75,0.25,72,139.29
1524,C5,224.0,0.25,73,139.29
1525,E-5,224.25,0.25,74,139.29
1526,F#5,224.5,0.25,75,139.29
1527,A5,224.75,0.25,77,139.29
1528,C6,225.0,0.25,79,139.29
1529,E-6,225.25,0.25,81,139.29
1530,F#6,225.5,0.25,83,139.29
1531,E-6,225.75,0.25,83,139.29
1532,C6,226.0,0.25,82,139.29
1533,A5,226.25,0.25,81,139.29
1534,F#5,226.5,0.25,81,139.29
1535,E-5,226.75,0.25,80,139.29
1536,C5,227.0,0.25,79,139.29
1537,A4,227.25,0.25,78,139.29
1538,F#4,227.5,0.25,77,139.29
1539,E-4,227.75,0.25,76,139.29
1540,C4,228.0,0.25,75,139.29
1541,A3,228.25,0.25,69,139.29
1542,F#3,228.5,0.25,68,139.29
1543,E-3,228.75,0.25,68,139.29
1544,C3,229.0,0.25,67,139.29
1545,A2,229.25,0.25,66,139.29
1546,F#2,229.5,0.25,66,139.29
1547,E-2,229.75,0.25,65,139.29
1548,C2,230.0,0.25,64,139.29
1549,A1,230.25,0.25,63,139.29
1550,F#1,230.5,0.25,60,139.29
1551,A1,230.75,0.25,59,139.29
1552,C2,231.0,0.25,58,139.29
1553,E-2,231.25,0.25,57,139.29
1554,F#1,231.5,0.25,56,139.29
1555,A1,231.75,0.25,54,139.29
1556,C2,232.0,0.25,53,139.29
1557,E-2,232.25,0.25,52,139.29
1558,F#1,232.5,0.25,51,139.29
1559,A1,232.75,0.25,47,139.29
1560,C2,233.0,0.25,47,139.29
1561,E-2,233.25,0.25,47,139.29
1562,F#1,233.5,0.25,52,139.29
1563,A1,233.75,0.25,47,139.29
1564,C2,234.0,0.25,46,139.29
1565,E-2,234.25,0.25,46,139.29
1566,F1,234.5,1.0,39,139.29
1567,A3,234.75,0.25,40,139.29
1568,C4,235.0,0.25,37,139.29
1569,E-4,235.25,0.25,37,139.29
1570,F#4,235.5,0.25,40,139.29
1571,G#4,235.75,0.25,38,139.29
1572,F#4,236.0,0.25,38,139.29
1573,F4,236.25,0.25,38,139.29
1574,E-4,236.5,0.25,40,139.29
1575,F4,236.75,0.25,37,139.29
1576,E-4,237.0,0.25,37,139.29
1577,C#4,237.25,0.25,37,139.29
1578,C4,237.5,0.25,40,139.29
1579,C#4,237.75,0.25,37,139.29
1580,E-4,238.0,0.25,37,139.29
1581,C4,238.25,0.25,37,139.29
1582,F2,238.25,0.25,35,139.29
1583,F1,238.5,1.0,40,139.29
1584,A3,238.75,0.25,40,139.29
1585,C4,239.0,0.25,37,139.29
1586,E-4,239.25,0.25,37,139.29
1587,F#4,239.5,0.25,40,139.29
1588,G#4,239.75,0.25,38,139.29
1589,F#4,240.0,0.25,38,139.29
1590,F4,240.25,0.25,38,139.29
1591,E-4,240.5,0.25,40,139.29
1592,F4,240.75,0.25,37,139.29
1593,E-4,241.0,0.25,37,139.29
1594,C#4,241.25,0.25,37,139.29
1595,C4,241.5,0.25,40,139.29
1596,C#4,241.75,0.25,37,139.29
1597,E-4,242.0,0.25,37,139.29
1598,C4,242.25,0.25,37,139.29
1599,F2,242.25,0.25,35,139.29
1600,F1,242.5,1.0,40,139.29
1601,A3,242.75,0.25,47,139.29
1602,C4,243.0,0.25,49,139.29
1603,E-4,243.25,0.25,50,139.29
1604,F#4,243.5,0.25,52,139.29
1605,G#4,243.75,0.25,54,139.29
1606,F#4,244.0,0.25,56,139.29
1607,A3,244.0,0.25,38,139.29
1608,F4,244.25,0.25,58,139.29
1609,B-3,244.25,0.25,42,139.29
1610,E-4,244.5,0.5,67,139.29
1611,C4,244.5,0.25,49,139.29
1612,C#4,244.75,0.25,42,139.29
1613,E-4,245.0,0.25,47,139.29
1614,C4,245.0,0.25,43,139.29
1615,F4,245.25,0.25,49,139.29
1616,B-3,245.25,0.25,43,139.29
1617,F#4,245.5,0.25,52,139.29
1618,A3,245.5,0.5,47,139.29
1619,G#4,245.75,0.25,54,139.29
1620,F#4,246.0,0.25,56,139.29
1621,A3,246.0,0.25,41,139.29
1622,F4,246.25,0.25,59,139.29
1623,B-3,246.25,0.25,46,139.29
1624,E-4,246.5,0.5,67,139.29
1625,C4,246.5,0.25,53,139.29
1626,C#4,246.75,0.25,42,139.29
1627,E-4,247.0,0.25,50,139.29
1628,C4,247.0,0.25,43,139.29
1629,F4,247.25,0.25,50,139.29
1630,B-3,247.25,0.25,43,139.29
1631,F#4,247.5,0.25,56,139.29
1632,A3,247.5,0.5,47,139.29
1633,G#4,247.75,0.25,49,139.29
1634,F#4,248.0,0.25,50,139.29
1635,A3,248.0,0.25,43,139.29
1636,F4,248.25,0.25,50,139.29
1637,B-3,248.25,0.25,47,139.29
1638,E-4,248.5,0.5,67,139.29
1639,C4,248.5,0.25,52,139.29
1640,C#4,248.75,0.25,42,139.29
1641,C4,249.0,0.25,43,139.29
1642,F#4,249.0,0.5,56,139.29
1643,F#5,249.0,0.5,56,139.29
1644,B-3,249.25,0.25,43,139.29
1645,A3,249.5,0.25,44,139.29
1646,F4,249.5,0.5,60,139.29
1647,F5,249.5,0.5,60,139.29
1648,F#3,249.75,0.25,42,139.29
1649,F3,250.0,0.25,41,139.29
1650,A4,250.0,0.5,54,139.29
1651,A5,250.0,0.5,54,139.29
1652,E-3,250.25,0.25,39,139.29
1653,C#3,250.5,2.0,44,139.29
1654,B-5,250.5,0.25,56,139.29
1655,B-4,250.5,0.25,56,139.29
1656,F4,250.75,0.25,51,139.29
1657,F3,250.75,0.25,32,139.29
1658,B-4,251.0,0.25,52,139.29
1659,B-3,251.0,0.25,33,139.29
1660,C#5,251.25,0.25,53,139.29
1661,F3,251.25,0.25,34,139.29
1662,F5,251.5,0.25,57,139.29
1663,B-3,251.5,0.25,38,139.29
1664,F#5,251.75,0.25,55,139.29
1665,F3,251.75,0.25,37,139.29
1666,F5,252.0,0.25,56,139.29
1667,B-3,252.0,0.25,38,139.29
1668,E-5,252.25,0.25,55,139.29
1669,F3,252.25,0.25,38,139.29
1670,C#5,252.5,0.25,57,139.29
1671,B-3,252.5,0.25,39,139.29
1672,C#3,252.5,2.0,44,139.29
1673,E-5,252.75,0.25,56,139.29
1674,F3,252.75,0.25,39,139.29
1675,C#5,253.0,0.25,56,139.29
1676,B-3,253.0,0.25,38,139.29
1677,C5,253.25,0.25,55,139.29
1678,F3,253.25,0.25,38,139.29
1679,B-4,253.5,0.25,54,139.29
1680,B-3,253.5,0.25,38,139.29
1681,C5,253.75,0.25,53,139.29
1682,F3,253.75,0.25,37,139.29
1683,C#5,254.0,0.25,53,139.29
1684,B-3,254.0,0.25,37,139.29
1685,B-4,254.25,0.25,52,139.29
1686,F3,254.25,0.25,36,139.29
1687,C#3,254.5,2.0,44,139.29
1688,F4,254.75,0.25,51,139.29
1689,F3,254.75,0.25,32,139.29
1690,B-4,255.0,0.25,52,139.29
1691,B-3,255.0,0.25,33,139.29
1692,C#5,255.25,0.25,53,139.29
1693,F3,255.25,0.25,34,139.29
1694,F5,255.5,0.25,57,139.29
1695,B-3,255.5,0.25,38,139.29
1696,F#5,255.75,0.25,55,139.29
1697,F3,255.75,0.25,37,139.29
1698,F5,256.0,0.25,56,139.29
1699,B-3,256.0,0.25,38,139.29
1700,E-5,256.25,0.25,55,139.29
1701,F3,256.25,0.25,38,139.29
1702,C#5,256.5,0.25,57,139.29
1703,B-3,256.5,0.25,39,139.29
1704,C#3,256.5,2.0,44,139.29
1705,E-5,256.75,0.25,56,139.29
1706,F3,256.75,0.25,39,139.29
1707,C#5,257.0,0.25,56,139.29
1708,B-3,257.0,0.25,38,139.29
1709,C5,257.25,0.25,55,139.29
1710,F3,257.25,0.25,38,139.29
1711,B-4,257.5,0.25,54,139.29
1712,B-3,257.5,0.25,38,139.29
1713,C5,257.75,0.25,53,139.29
1714,F3,257.75,0.25,37,139.29
1715,C#5,258.0,0.25,53,139.29
1716,B-3,258.0,0.25,37,139.29
1717,B-4,258.25,0.25,52,139.29
1718,F3,258.25,0.25,36,139.29
1719,E-3,258.5,2.0,44,139.29
1720,F#4,258.75,0.25,51,139.29
1721,F#3,258.75,0.25,32,139.29
1722,B4,259.0,0.25,53,139.29
1723,B3,259.0,0.25,33,139.29
1724,E-5,259.25,0.25,54,139.29
1725,F#3,259.25,0.25,35,139.29
1726,F#5,259.5,0.25,59,139.29
1727,B3,259.5,0.25,39,139.29
1728,G#5,259.75,0.25,58,139.29
1729,F#3,259.75,0.25,39,139.29
1730,F#5,260.0,0.25,59,139.29
1731,B3,260.0,0.25,40,139.29
1732,F5,260.25,0.25,59,139.29
1733,F#3,260.25,0.25,41,139.29
1734,E-5,260.5,0.25,62,139.29
1735,B3,260.5,0.25,42,139.29
1736,E-3,260.5,2.0,44,139.29
1737,F5,260.75,0.25,62,139.29
1738,F#3,260.75,0.25,43,139.29
1739,E-5,261.0,0.25,62,139.29
1740,B3,261.0,0.25,42,139.29
1741,C#5,261.25,0.25,62,139.29
1742,F#3,261.25,0.25,42,139.29
1743,B4,261.5,0.25,62,139.29
1744,B3,261.5,0.25,43,139.29
1745,C#5,261.75,0.25,61,139.29
1746,F#3,261.75,0.25,42,139.29
1747,E-5,262.0,0.25,64,139.29
1748,B3,262.0,0.25,45,139.29
1749,B4,262.25,0.25,61,139.29
1750,F#3,262.25,0.25,42,139.29
1751,B-4,262.5,0.25,68,139.29
1752,F3,262.5,2.0,46,139.29
1753,C5,262.75,0.25,64,139.29
1754,B-3,262.75,0.25,46,139.29
1755,B-4,263.0,0.25,66,139.29
1756,C#4,263.0,0.25,44,139.29
1757,A4,263.25,0.25,64,139.29
1758,B-3,263.25,0.25,44,139.29
1759,B-4,263.5,0.25,62,139.29
1760,C#4,263.5,0.25,43,139.29
1761,C5,263.75,0.25,60,139.29
1762,B-3,263.75,0.25,42,139.29
1763,C#5,264.0,0.25,59,139.29
1764,C#4,264.0,0.25,41,139.29
1765,B-4,264.25,0.25,58,139.29
1766,B-3,264.25,0.25,40,139.29
1767,A4,264.5,0.25,62,139.29
1768,E-3,264.5,2.0,42,139.29
1769,B-4,264.75,0.25,61,139.29
1770,F3,264.75,0.25,42,139.29
1771,A4,265.0,0.25,60,139.29
1772,C4,265.0,0.25,41,139.29
1773,G4,265.25,0.25,58,139.29
1774,F3,265.25,0.25,40,139.29
1775,A4,265.5,0.25,56,139.29
1776,C4,265.5,0.25,39,139.29
1777,B-4,265.75,0.25,55,139.29
1778,F3,265.75,0.25,38,139.29
1779,C5,266.0,0.25,54,139.29
1780,C4,266.0,0.25,38,139.29
1781,A4,266.25,0.25,53,139.29
1782,F3,266.25,0.25,36,139.29
1783,B-4,266.5,0.5,61,139.29
1784,C#3,266.5,0.25,48,139.29
1785,F4,266.75,0.25,48,139.29
1786,B-4,267.0,0.25,57,139.29
1787,C#5,267.25,0.25,58,139.29
1788,F5,267.5,0.25,62,139.29
1789,B-3,267.5,1.0,58,139.29
1790,F#5,267.75,0.25,60,139.29
1791,C#4,267.75,0.25,40,139.29
1792,F5,268.0,0.25,61,139.29
1793,F4,268.0,0.25,41,139.29
1794,E-5,268.25,0.25,60,139.29
1795,C#4,268.25,0.25,41,139.29
1796,C#5,268.5,0.25,62,139.29
1797,A3,268.5,1.0,62,139.29
1798,E-5,268.75,0.25,61,139.29
1799,C#4,268.75,0.25,42,139.29
1800,C#5,269.0,0.25,61,139.29
1801,F4,269.0,0.25,41,139.29
1802,C5,269.25,0.25,60,139.29
1803,C#4,269.25,0.25,41,139.29
1804,B-5,269.5,0.5,69,139.29
1805,B-4,269.5,0.25,69,139.29
1806,B-3,269.5,1.0,54,139.29
1807,C5,269.75,0.25,58,139.29
1808,C#4,269.75,0.25,40,139.29
1809,C#5,270.0,0.25,59,139.29
1810,F4,270.0,0.25,40,139.29
1811,B-4,270.25,0.25,58,139.29
1812,C#4,270.25,0.25,40,139.29
1813,A5,270.5,0.5,71,139.29
1814,C#3,270.5,0.25,49,139.29
1815,F4,270.75,0.25,50,139.29
1816,B-4,271.0,0.25,60,139.29
1817,C#5,271.25,0.25,62,139.29
1818,B-5,271.5,0.5,69,139.29
1819,F5,271.5,0.25,69,139.29
1820,B-3,271.5,1.0,65,139.29
1821,F#5,271.75,0.25,65,139.29
1822,C#4,271.75,0.25,43,139.29
1823,F5,272.0,0.25,67,139.29
1824,F4,272.0,0.25,45,139.29
1825,E-5,272.25,0.25,66,139.29
1826,C#4,272.25,0.25,45,139.29
1827,C#5,272.5,0.25,69,139.29
1828,A3,272.5,1.0,70,139.29
1829,E-5,272.75,0.25,68,139.29
1830,C#4,272.75,0.25,47,139.29
1831,C#5,273.0,0.25,69,139.29
1832,F4,273.0,0.25,46,139.29
1833,C5,273.25,0.25,69,139.29
1834,C#4,273.25,0.25,47,139.29
1835,B-5,273.5,0.5,82,139.29
1836,B-4,273.5,0.25,68,139.29
1837,B-3,273.5,1.0,72,139.29
1838,C5,273.75,0.25,67,139.29
1839,C#4,273.75,0.25,46,139.29
1840,C#5,274.0,0.25,68,139.29
1841,F4,274.0,0.25,47,139.29
1842,B-4,274.25,0.25,67,139.29
1843,C#4,274.25,0.25,46,139.29
1844,E-3,274.5,0.25,70,139.29
1845,B4,274.5,0.25,88,139.29
1846,B5,274.5,0.25,88,139.29
1847,F#5,274.75,0.25,74,139.29
1848,F#4,274.75,0.25,55,139.29
1849,B4,274.75,0.25,55,139.29
1850,B5,275.0,0.25,76,139.29
1851,E-4,275.0,0.25,59,139.29
1852,E-6,275.25,0.25,78,139.29
1853,F#4,275.25,0.25,55,139.29
1854,B4,275.25,0.25,55,139.29
1855,F#6,275.5,0.25,80,139.29
1856,E-4,275.5,0.25,59,139.29
1857,G#6,275.75,0.25,76,139.29
1858,F#4,275.75,0.25,55,139.29
1859,B4,275.75,0.25,55,139.29
1860,F#6,276.0,0.25,76,139.29
1861,E-4,276.0,0.25,59,139.29
1862,F6,276.25,0.25,76,139.29
1863,F#4,276.25,0.25,56,139.29
1864,B4,276.25,0.25,56,139.29
1865,E-6,276.5,0.25,77,139.29
1866,E-4,276.5,0.25,59,139.29
1867,F6,276.75,0.25,71,139.29
1868,F#4,276.75,0.25,55,139.29
1869,B4,276.75,0.25,55,139.29
1870,E-6,277.0,0.25,72,139.29
1871,E-4,277.0,0.25,59,139.29
1872,C#6,277.25,0.25,72,139.29
1873,F#4,277.25,0.25,55,139.29
1874,B4,277.25,0.25,55,139.29
1875,B5,277.5,0.25,78,139.29
1876,E-4,277.5,0.25,59,139.29
1877,C#6,277.75,0.25,73,139.29
1878,F#4,277.75,0.25,55,139.29
1879,B4,277.75,0.25,55,139.29
1880,B5,278.0,0.25,73,139.29
1881,E-4,278.0,0.25,59,139.29
1882,B-5,278.25,0.25,72,139.29
1883,F#4,278.25,0.25,56,139.29
1884,B4,278.25,0.25,56,139.29
1885,A5,278.5,0.25,77,139.29
1886,F4,278.5,0.25,59,139.29
1887,C6,278.75,0.25,71,139.29
1888,A4,278.75,0.25,55,139.29
1889,C5,278.75,0.25,55,139.29
1890,E-5,278.75,0.25,55,139.29
1891,E-6,279.0,0.25,72,139.29
1892,F4,279.0,0.25,59,139.29
1893,C#6,279.25,0.25,72,139.29
1894,A4,279.25,0.25,55,139.29
1895,C5,279.25,0.25,55,139.29
1896,E-5,279.25,0.25,55,139.29
1897,C6,279.5,0.25,78,139.29
1898,F4,279.5,0.25,59,139.29
1899,C#6,279.75,0.25,73,139.29
1900,A4,279.75,0.25,55,139.29
1901,C5,279.75,0.25,55,139.29
1902,E-5,279.75,0.25,55,139.29
1903,C6,280.0,0.25,73,139.29
1904,F4,280.0,0.25,59,139.29
1905,B-5,280.25,0.25,72,139.29
1906,A4,280.25,0.25,56,139.29
1907,C5,280.25,0.25,56,139.29
1908,E-5,280.25,0.25,56,139.29
1909,A5,280.5,0.25,77,139.29
1910,F4,280.5,0.25,59,139.29
1911,B-5,280.75,0.25,71,139.29
1912,A4,280.75,0.25,55,139.29
1913,A5,281.0,0.25,72,139.29
1914,F4,281.0,0.25,59,139.29
1915,F#5,281.25,0.25,72,139.29
1916,A4,281.25,0.25,55,139.29
1917,F5,281.5,0.25,74,139.29
1918,F3,281.5,0.25,59,139.29
1919,E-5,281.75,0.25,71,139.29
1920,F4,281.75,0.25,50,139.29
1921,C#5,282.0,0.25,71,139.29
1922,F3,282.0,0.25,57,139.29
1923,C5,282.25,0.25,69,139.29
1924,F4,282.25,0.25,49,139.29
1925,B-4,282.5,0.25,73,139.29
1926,B-2,282.5,0.5,59,139.29
1927,F5,283.0,1.0,74,139.29
1928,B-3,283.0,0.25,44,139.29
1929,C#4,283.0,0.25,44,139.29
1930,F4,283.25,0.25,38,139.29
1931,B-3,283.5,0.25,44,139.29
1932,C#4,283.5,0.25,44,139.29
1933,F4,283.75,0.25,38,139.29
1934,F5,284.0,0.25,61,139.29
1935,C#4,284.0,0.25,44,139.29
1936,B-3,284.0,0.25,44,139.29
1937,F4,284.25,0.25,38,139.29
1938,F5,284.5,0.25,61,139.29
1939,B-3,284.5,0.25,44,139.29
1940,C#4,284.5,0.25,44,139.29
1941,F4,284.75,0.25,38,139.29
1942,F#5,285.0,1.0,72,139.29
1943,C#4,285.0,0.25,44,139.29
1944,B-3,285.0,0.25,44,139.29
1945,E4,285.25,0.25,38,139.29
1946,B-3,285.5,0.25,44,139.29
1947,C#4,285.5,0.25,44,139.29
1948,E4,285.75,0.25,38,139.29
1949,F#5,286.0,0.25,60,139.29
1950,B-3,286.0,0.25,44,139.29
1951,C#4,286.0,0.25,44,139.29
1952,E4,286.25,0.25,38,139.29
1953,F#5,286.5,0.25,59,139.29
1954,A3,286.5,0.25,44,139.29
1955,C4,286.5,0.25,44,139.29
1956,E4,286.75,0.25,38,139.29
1957,F5,287.0,1.0,73,139.29
1958,C4,287.0,0.25,44,139.29
1959,A3,287.0,0.25,44,139.29
1960,F4,287.25,0.25,38,139.29
1961,A3,287.5,0.25,44,139.29
1962,C4,287.5,0.25,44,139.29
1963,F4,287.75,0.25,38,139.29
1964,F5,288.0,0.25,63,139.29
1965,A3,288.0,0.25,44,139.29
1966,C4,288.0,0.25,44,139.29
1967,F4,288.25,0.25,38,139.29
1968,F5,288.5,0.25,65,139.29
1969,A3,288.5,0.25,44,139.29
1970,C4,288.5,0.25,44,139.29
1971,F4,288.75,0.25,38,139.29
1972,C5,289.0,0.25,61,139.29
1973,C4,289.0,0.25,44,139.29
1974,A3,289.0,0.25,44,139.29
1975,F4,289.25,0.25,38,139.29
1976,C#5,289.5,0.25,61,139.29
1977,A3,289.5,0.25,44,139.29
1978,C4,289.5,0.25,44,139.29
1979,F4,289.75,0.25,38,139.29
1980,E-5,290.0,0.25,61,139.29
1981,A3,290.0,0.25,44,139.29
1982,C4,290.0,0.25,44,139.29
1983,F4,290.25,0.25,38,139.29
1984,C#5,290.5,0.25,65,139.29
1985,C#4,290.5,0.25,44,139.29
1986,B-3,290.5,0.25,44,139.29
1987,F4,290.75,0.25,38,139.29
1988,F6,291.0,1.0,76,139.29
1989,F5,291.0,1.0,76,139.29
1990,B-3,291.0,0.25,58,139.29
1991,C#4,291.0,0.25,58,139.29
1992,F4,291.25,0.25,51,139.29
1993,B-3,291.5,0.25,58,139.29
1994,C#4,291.5,0.25,58,139.29
1995,F4,291.75,0.25,51,139.29
1996,F6,292.0,0.25,71,139.29
1997,F5,292.0,0.25,71,139.29
1998,C#4,292.0,0.25,58,139.29
1999,B-3,292.0,0.25,58,139.29
2000,F4,292.25,0.25,51,139.29
2001,F6,292.5,0.25,71,139.29
2002,F5,292.5,0.25,71,139.29
2003,B-3,292.5,0.25,58,139.29
2004,C#4,292.5,0.25,58,139.29
2005,F4,292.75,0.25,51,139.29
2006,F#6,293.0,1.0,78,139.29
2007,F#5,293.0,1.0,78,139.29
2008,C#4,293.0,0.25,58,139.29
2009,B-3,293.0,0.25,58,139.29
2010,E4,293.25,0.25,51,139.29
2011,B-3,293.5,0.25,58,139.29
2012,C#4,293.5,0.25,58,139.29
2013,E4,293.75,0.25,51,139.29
2014,F#6,294.0,0.25,70,139.29
2015,F#5,294.0,0.25,70,139.29
2016,B-3,294.0,0.25,58,139.29
2017,C#4,294.0,0.25,58,139.29
2018,E4,294.25,0.25,51,139.29
2019,F#6,294.5,0.25,69,139.29
2020,F#5,294.5,0.25,69,139.29
2021,A3,294.5,0.25,58,139.29
2022,C4,294.5,0.25,58,139.29
2023,E4,294.75,0.25,51,139.29
2024,F6,295.0,1.0,78,139.29
2025,F5,295.0,1.0,78,139.29
2026,C4,295.0,0.25,58,139.29
2027,A3,295.0,0.25,58,139.29
2028,F4,295.25,0.25,51,139.29
2029,A3,295.5,0.25,58,139.29
2030,C4,295.5,0.25,58,139.29
2031,F4,295.75,0.25,51,139.29
2032,F6,296.0,0.25,74,139.29
2033,F5,296.0,0.25,74,139.29
2034,A3,296.0,0.25,58,139.29
2035,C4,296.0,0.25,58,139.29
2036,F4,296.25,0.25,51,139.29
2037,F6,296.5,0.25,76,139.29
2038,F5,296.5,0.25,76,139.29
2039,A3,296.5,0.25,58,139.29
2040,C4,296.5,0.25,58,139.29
2041,F4,296.75,0.25,51,139.29
2042,C6,297.0,0.25,71,139.29
2043,C5,297.0,0.25,71,139.29
2044,C4,297.0,0.25,58,139.29
2045,A3,297.0,0.25,58,139.29
2046,F4,297.25,0.25,51,139.29
2047,C#6,297.5,0.25,71,139.29
2048,C#5,297.5,0.25,71,139.29
2049,A3,297.5,0.25,58,139.29
2050,C4,297.5,0.25,58,139.29
2051,F4,297.75,0.25,51,139.29
2052,E-6,298.0,0.25,71,139.29
2053,E-5,298.0,0.25,71,139.29
2054,A3,298.0,0.25,58,139.29
2055,C4,298.0,0.25,58,139.29
2056,F4,298.25,0.25,51,139.29
2057,C#6,298.5,0.25,76,139.29
2058,C#5,298.5,0.25,76,139.29
2059,C#4,298.5,0.25,58,139.29
2060,B-3,298.5,0.25,58,139.29
2061,F4,298.75,0.25,51,139.29
2062,C5,299.0,1.0,72,139.29
2063,E3,299.0,0.25,44,139.29
2064,G3,299.0,0.25,44,139.29
2065,C4,299.25,0.25,38,139.29
2066,E3,299.5,0.25,44,139.29
2067,G3,299.5,0.25,44,139.29
2068,C4,299.75,0.25,38,139.29
2069,C5,300.0,0.25,61,139.29
2070,G3,300.0,0.25,44,139.29
2071,E3,300.0,0.25,44,139.29
2072,C4,300.25,0.25,38,139.29
2073,C5,300.5,0.25,61,139.29
2074,F3,300.5,0.25,44,139.29
2075,G#3,300.5,0.25,44,139.29
2076,C4,300.75,0.25,38,139.29
2077,B4,301.0,1.0,72,139.29
2078,G#3,301.0,0.25,44,139.29
2079,F3,301.0,0.25,44,139.29
2080,D4,301.25,0.25,38,139.29
2081,F3,301.5,0.25,44,139.29
2082,G#3,301.5,0.25,44,139.29
2083,D4,301.75,0.25,38,139.29
2084,B4,302.0,0.25,60,139.29
2085,F3,302.0,0.25,44,139.29
2086,G#3,302.0,0.25,44,139.29
2087,D4,302.25,0.25,38,139.29
2088,B4,302.5,0.25,59,139.29
2089,E3,302.5,0.25,44,139.29
2090,G3,302.5,0.25,44,139.29
2091,D4,302.75,0.25,38,139.29
2092,C5,303.0,1.0,71,139.29
2093,G3,303.0,0.25,44,139.29
2094,E3,303.0,0.25,44,139.29
2095,C4,303.25,0.25,38,139.29
2096,E3,303.5,0.25,44,139.29
2097,G3,303.5,0.25,44,139.29
2098,C4,303.75,0.25,38,139.29
2099,C5,304.0,0.25,63,139.29
2100,E3,304.0,0.25,44,139.29
2101,G3,304.0,0.25,44,139.29
2102,C4,304.25,0.25,38,139.29
2103,C5,304.5,0.25,65,139.29
2104,E3,304.5,0.25,44,139.29
2105,G3,304.5,0.25,44,139.29
2106,C4,304.75,0.25,38,139.29
2107,G4,305.0,0.25,61,139.29
2108,G3,305.0,0.25,44,139.29
2109,E3,305.0,0.25,44,139.29
2110,C4,305.25,0.25,38,139.29
2111,G#4,305.5,0.25,61,139.29
2112,E3,305.5,0.25,44,139.29
2113,G3,305.5,0.25,44,139.29
2114,C4,305.75,0.25,38,139.29
2115,B-4,306.0,0.25,61,139.29
2116,E3,306.0,0.25,44,139.29
2117,G3,306.0,0.25,44,139.29
2118,C4,306.25,0.25,38,139.29
2119,G#4,306.5,0.25,65,139.29
2120,G#3,306.5,0.25,44,139.29
2121,F3,306.5,0.25,44,139.29
2122,C4,306.75,0.25,38,139.29
2123,C6,307.0,1.0,76,139.29
2124,C5,307.0,1.0,76,139.29
2125,G#3,307.0,0.25,58,139.29
2126,F3,307.0,0.25,58,139.29
2127,C4,307.25,0.25,51,139.29
2128,G#3,307.5,0.25,58,139.29
2129,F3,307.5,0.25,58,139.29
2130,C4,307.75,0.25,51,139.29
2131,C6,308.0,0.25,71,139.29
2132,C5,308.0,0.25,71,139.29
2133,G#3,308.0,0.25,58,139.29
2134,F3,308.0,0.25,58,139.29
2135,C4,308.25,0.25,51,139.29
2136,C6,308.5,0.25,71,139.29
2137,C5,308.5,0.25,71,139.29
2138,G#3,308.5,0.25,58,139.29
2139,F3,308.5,0.25,58,139.29
2140,C4,308.75,0.25,51,139.29
2141,B5,309.0,1.0,78,139.29
2142,B4,309.0,1.0,78,139.29
2143,G#3,309.0,0.25,58,139.29
2144,F3,309.0,0.25,58,139.29
2145,D4,309.25,0.25,51,139.29
2146,G#3,309.5,0.25,58,139.29
2147,F3,309.5,0.25,58,139.29
2148,D4,309.75,0.25,51,139.29
2149,B5,310.0,0.25,70,139.29
2150,B4,310.0,0.25,70,139.29
2151,F3,310.0,0.25,58,139.29
2152,G#3,310.0,0.25,58,139.29
2153,D4,310.25,0.25,51,139.29
2154,B5,310.5,0.25,69,139.29
2155,B4,310.5,0.25,69,139.29
2156,G3,310.5,0.25,58,139.29
2157,E3,310.5,0.25,58,139.29
2158,D4,310.75,0.25,51,139.29
2159,C6,311.0,1.0,78,139.29
2160,C5,311.0,1.0,78,139.29
2161,E3,311.0,0.25,58,139.29
2162,G3,311.0,0.25,58,139.29
2163,C4,311.25,0.25,51,139.29
2164,E3,311.5,0.25,58,139.29
2165,G3,311.5,0.25,58,139.29
2166,C4,311.75,0.25,51,139.29
2167,C6,312.0,0.25,74,139.29
2168,C5,312.0,0.25,74,139.29
2169,E3,312.0,0.25,58,139.29
2170,G3,312.0,0.25,58,139.29
2171,C4,312.25,0.25,51,139.29
2172,C6,312.5,0.25,76,139.29
2173,C5,312.5,0.25,76,139.29
2174,G3,312.5,0.25,58,139.29
2175,E3,312.5,0.25,58,139.29
2176,C4,312.75,0.25,51,139.29
2177,G5,313.0,0.25,71,139.29
2178,G4,313.0,0.25,71,139.29
2179,G3,313.0,0.25,58,139.29
2180,E3,313.0,0.25,58,139.29
2181,C4,313.25,0.25,51,139.29
2182,G#5,313.5,0.25,71,139.29
2183,G#4,313.5,0.25,71,139.29
2184,G3,313.5,0.25,58,139.29
2185,E3,313.5,0.25,58,139.29
2186,C4,313.75,0.25,51,139.29
2187,B-5,314.0,0.25,71,139.29
2188,B-4,314.0,0.25,71,139.29
2189,G3,314.0,0.25,58,139.29
2190,E3,314.0,0.25,58,139.29
2191,C4,314.25,0.25,51,139.29
2192,G#5,314.5,0.25,76,139.29
2193,G#4,314.5,0.25,76,139.29
2194,G#2,314.5,1.0,64,139.29
2195,C3,314.5,1.0,64,139.29
2196,F3,314.5,1.0,64,139.29
2197,F2,314.5,1.0,64,139.29
2198,C4,314.75,0.25,70,139.29
2199,F4,315.0,0.25,72,139.29
2200,G#4,315.25,0.25,74,139.29
2201,C5,315.5,0.25,76,139.29
2202,C#5,315.75,0.25,72,139.29
2203,C3,315.75,0.25,56,139.29
2204,C5,316.0,0.25,72,139.29
2205,F3,316.0,0.25,58,139.29
2206,B-4,316.25,0.25,72,139.29
2207,G#3,316.25,0.25,60,139.29
2208,G#4,316.5,0.25,73,139.29
2209,C4,316.5,0.25,66,139.29
2210,B-4,316.75,0.25,67,139.29
2211,C#4,316.75,0.25,60,139.29
2212,G#4,317.0,0.25,69,139.29
2213,C4,317.0,0.25,61,139.29
2214,G4,317.25,0.25,69,139.29
2215,B-3,317.25,0.25,61,139.29
2216,F4,317.5,0.25,75,139.29
2217,G#3,317.5,0.25,67,139.29
2218,G4,317.75,0.25,70,139.29
2219,B-3,317.75,0.25,60,139.29
2220,G#4,318.0,0.25,70,139.29
2221,C4,318.0,0.25,60,139.29
2222,F4,318.25,0.25,70,139.29
2223,G#3,318.25,0.25,60,139.29
2224,F#4,318.5,0.25,75,139.29
2225,B-3,318.5,0.25,72,139.29
2226,C#4,318.75,0.25,72,139.29
2227,C4,318.75,0.25,60,139.29
2228,F#4,319.0,0.25,74,139.29
2229,B-3,319.0,0.25,60,139.29
2230,B-4,319.25,0.25,76,139.29
2231,G#3,319.25,0.25,60,139.29
2232,C#5,319.5,0.25,78,139.29
2233,F#3,319.5,0.25,68,139.29
2234,E-5,319.75,0.25,75,139.29
2235,C#3,319.75,0.25,57,139.29
2236,C#5,320.0,0.25,75,139.29
2237,F#3,320.0,0.25,60,139.29
2238,C5,320.25,0.25,75,139.29
2239,B-3,320.25,0.25,62,139.29
2240,B-4,320.5,0.25,76,139.29
2241,C#4,320.5,0.25,69,139.29
2242,C5,320.75,0.25,70,139.29
2243,E-4,320.75,0.25,63,139.29
2244,B-4,321.0,0.25,71,139.29
2245,C#4,321.0,0.25,63,139.29
2246,G#4,321.25,0.25,71,139.29
2247,C4,321.25,0.25,63,139.29
2248,F#4,321.5,0.25,76,139.29
2249,B-3,321.5,0.25,69,139.29
2250,G#4,321.75,0.25,73,139.29
2251,C4,321.75,0.25,62,139.29
2252,B-4,322.0,0.25,73,139.29
2253,C#4,322.0,0.25,62,139.29
2254,F#4,322.25,0.25,72,139.29
2255,B-3,322.25,0.25,62,139.29
2256,A4,322.5,0.25,77,139.29
2257,C4,322.5,0.25,74,139.29
2258,E-4,322.75,0.25,74,139.29
2259,C#4,322.75,0.25,62,139.29
2260,A4,323.0,0.25,76,139.29
2261,C4,323.0,0.25,63,139.29
2262,C5,323.25,0.25,78,139.29
2263,B-3,323.25,0.25,63,139.29
2264,E-5,323.5,0.25,80,139.29
2265,A3,323.5,0.25,70,139.29
2266,F5,323.75,0.25,76,139.29
2267,E-3,323.75,0.25,59,139.29
2268,E-5,324.0,0.25,76,139.29
2269,A3,324.0,0.25,62,139.29
2270,C#5,324.25,0.25,77,139.29
2271,C4,324.25,0.25,65,139.29
2272,C5,324.5,0.25,78,139.29
2273,E-4,324.5,0.25,71,139.29
2274,C#5,324.75,0.25,72,139.29
2275,F4,324.75,0.25,65,139.29
2276,C5,325.0,0.25,73,139.29
2277,E-4,325.0,0.25,65,139.29
2278,B-4,325.25,0.25,73,139.29
2279,C#4,325.25,0.25,65,139.29
2280,A4,325.5,0.25,80,139.29
2281,C4,325.5,0.25,72,139.29
2282,B-4,325.75,0.25,75,139.29
2283,C#4,325.75,0.25,64,139.29
2284,C5,326.0,0.25,75,139.29
2285,E-4,326.0,0.25,64,139.29
2286,A4,326.25,0.25,74,139.29
2287,C4,326.25,0.25,64,139.29
2288,B-4,326.5,0.25,90,139.29
2289,C#4,326.5,0.25,70,139.29
2290,F4,326.75,0.25,76,139.29
2291,F3,326.75,0.25,59,139.29
2292,B-4,327.0,0.25,79,139.29
2293,B-3,327.0,0.25,63,139.29
2294,C#5,327.25,0.25,82,139.29
2295,C#4,327.25,0.25,66,139.29
2296,F5,327.5,0.25,83,139.29
2297,F4,327.5,0.25,65,139.29
2298,F#5,327.75,0.25,83,139.29
2299,F#4,327.75,0.25,65,139.29
2300,F5,328.0,0.25,82,139.29
2301,F4,328.0,0.25,65,139.29
2302,E-5,328.25,0.25,82,139.29
2303,E-4,328.25,0.25,64,139.29
2304,C#5,328.5,0.25,81,139.29
2305,C#4,328.5,0.25,64,139.29
2306,C5,328.75,0.25,81,139.29
2307,C4,328.75,0.25,64,139.29
2308,B-4,329.0,0.25,80,139.29
2309,B-3,329.0,0.25,63,139.29
2310,G#4,329.25,0.25,80,139.29
2311,G#3,329.25,0.25,63,139.29
2312,F#4,329.5,0.25,79,139.29
2313,F#3,329.5,0.25,62,139.29
2314,F4,329.75,0.25,79,139.29
2315,F3,329.75,0.25,62,139.29
2316,E-4,330.0,0.25,78,139.29
2317,E-3,330.0,0.25,62,139.29
2318,C#4,330.25,0.25,78,139.29
2319,C#3,330.25,0.25,61,139.29
2320,C4,330.5,0.25,77,139.29
2321,C3,330.5,0.25,61,139.29
2322,B-3,330.75,0.25,77,139.29
2323,B-2,330.75,0.25,61,139.29
2324,G#3,331.0,0.25,76,139.29
2325,G#2,331.0,0.25,60,139.29
2326,F#3,331.25,0.25,76,139.29
2327,F#2,331.25,0.25,60,139.29
2328,F3,331.5,0.25,73,139.29
2329,F2,331.5,0.25,59,139.29
2330,E-3,331.75,0.25,73,139.29
2331,E-2,331.75,0.25,59,139.29
2332,C#3,332.0,0.25,74,139.29
2333,C#2,332.0,0.25,59,139.29
2334,C3,332.25,0.25,76,139.29
2335,C2,332.25,0.25,59,139.29
2336,B-2,332.5,0.25,78,139.29
2337,B-1,332.5,0.25,59,139.29
2338,C3,332.75,0.25,79,139.29
2339,C2,332.75,0.25,59,139.29
2340,C#3,333.0,0.25,81,139.29
2341,C#2,333.0,0.25,62,139.29
2342,B-2,333.25,0.25,82,139.29
2343,C2,333.25,0.25,64,139.29
2344,B-2,333.5,0.5,82,139.29
2345,B-1,333.5,0.5,65,139.29
2346,B1,334.0,0.5,72,139.29
2347,B2,334.0,0.5,80,139.29
2348,D3,334.0,0.5,80,139.29
2349,F3,334.0,0.5,80,139.29
2350,G#3,334.0,0.5,80,139.29
2351,C2,334.5,0.25,89,139.29
2352,C3,334.5,0.25,87,139.29
2353,E3,334.5,0.25,87,139.29
2354,G3,334.5,0.25,87,139.29
2355,C3,334.75,0.25,66,139.29
2356,C4,334.75,0.25,66,139.29
2357,E2,335.0,0.25,76,139.29
2358,C4,335.25,0.25,66,139.29
2359,C3,335.25,0.25,66,139.29
2360,C2,335.5,0.25,76,139.29
2361,C4,335.75,0.25,66,139.29
2362,C3,335.75,0.25,66,139.29
2363,F2,336.0,0.25,76,139.29
2364,C4,336.25,0.25,66,139.29
2365,C3,336.25,0.25,66,139.29
2366,C2,336.5,0.25,76,139.29
2367,C4,336.75,0.25,66,139.29
2368,C3,336.75,0.25,66,139.29
2369,G2,337.0,0.25,76,139.29
2370,C4,337.25,0.25,66,139.29
2371,C3,337.25,0.25,66,139.29
2372,C2,337.5,0.25,76,139.29
2373,C4,337.75,0.25,66,139.29
2374,C3,337.75,0.25,66,139.29
2375,G#2,338.0,0.25,76,139.29
2376,C4,338.25,0.25,66,139.29
2377,C3,338.25,0.25,66,139.29
2378,C2,338.5,0.25,74,139.29
2379,C4,338.75,0.25,64,139.29
2380,C5,338.75,0.25,64,139.29
2381,B-2,339.0,0.25,74,139.29
2382,C4,339.25,0.25,64,139.29
2383,C5,339.25,0.25,64,139.29
2384,C2,339.5,0.25,75,139.29
2385,C4,339.75,0.25,65,139.29
2386,C5,339.75,0.25,65,139.29
2387,G#2,340.0,0.25,76,139.29
2388,C4,340.25,0.25,66,139.29
2389,C5,340.25,0.25,66,139.29
2390,C2,340.5,0.25,77,139.29
2391,C4,340.75,0.25,64,139.29
2392,C5,340.75,0.25,64,139.29
2393,G2,341.0,0.25,78,139.29
2394,C4,341.25,0.25,64,139.29
2395,C5,341.25,0.25,64,139.29
2396,C2,341.5,0.25,79,139.29
2397,C4,341.75,0.25,65,139.29
2398,C5,341.75,0.25,65,139.29
2399,F2,342.0,0.25,80,139.29
2400,C4,342.25,0.25,66,139.29
2401,C5,342.25,0.25,66,139.29
2402,C2,342.5,0.25,81,139.29
2403,C5,342.75,0.25,67,139.29
2404,C6,342.75,0.25,67,139.29
2405,E2,343.0,0.25,82,139.29
2406,C5,343.25,0.25,68,139.29
2407,C6,343.25,0.25,68,139.29
2408,C2,343.5,0.25,82,139.29
2409,C5,343.75,0.25,69,139.29
2410,C6,343.75,0.25,69,139.29
2411,F2,344.0,0.25,83,139.29
2412,C5,344.25,0.25,70,139.29
2413,C6,344.25,0.25,70,139.29
2414,C2,344.5,0.25,84,139.29
2415,C5,344.75,0.25,71,139.29
2416,C6,344.75,0.25,71,139.29
2417,G2,345.0,0.25,85,139.29
2418,C5,345.25,0.25,72,139.29
2419,C6,345.25,0.25,72,139.29
2420,C2,345.5,0.25,86,139.29
2421,C5,345.75,0.25,73,139.29
2422,C6,345.75,0.25,73,139.29
2423,G#2,346.0,0.25,87,139.29
2424,C5,346.25,0.25,74,139.29
2425,C6,346.25,0.25,74,139.29
2426,C2,346.5,0.25,88,139.29
2427,C6,346.75,0.25,75,139.29
2428,C7,346.75,0.25,75,139.29
2429,A2,347.0,0.25,89,139.29
2430,C6,347.25,0.25,76,139.29
2431,C7,347.25,0.25,76,139.29
2432,C2,347.5,0.25,91,139.29
2433,C6,347.75,0.25,78,139.29
2434,C7,347.75,0.25,78,139.29
2435,B-2,348.0,0.25,92,139.29
2436,C6,348.25,0.25,81,139.29
2437,C7,348.25,0.25,81,139.29
2438,C2,348.5,0.25,94,139.29
2439,C6,348.75,0.25,82,139.29
2440,C7,348.75,0.25,82,139.29
2441,B2,349.0,0.25,96,139.29
2442,C6,349.25,0.25,84,139.29
2443,C7,349.25,0.25,84,139.29
2444,C2,349.5,0.25,99,139.29
2445,C6,349.75,0.25,86,139.29
2446,C7,349.75,0.25,86,139.29
2447,C3,350.0,0.25,101,139.29
2448,C6,350.25,0.25,88,139.29
2449,C7,350.25,0.25,88,139.29
2450,B-1,350.5,0.5,90,139.29
2451,F#2,350.5,0.5,90,139.29
2452,C#2,350.5,0.5,90,139.29
2453,B-2,350.5,0.5,90,139.29
2454,C#3,350.75,0.25,72,139.29
2455,F#3,351.0,0.25,75,139.29
2456,B-3,351.25,0.25,76,139.29
2457,C#4,351.5,0.25,90,139.29
2458,B-2,351.75,0.25,71,139.29
2459,C#3,352.0,0.25,74,139.29
2460,F#3,352.25,0.25,76,139.29
2461,B-3,352.5,0.25,91,139.29
2462,C#4,352.75,0.25,72,139.29
2463,F#4,353.0,0.25,75,139.29
2464,B-4,353.25,0.25,76,139.29
2465,C#5,353.5,0.25,88,139.29
2466,B-3,353.75,0.25,73,139.29
2467,C#4,354.0,0.25,76,139.29
2468,F#4,354.25,0.25,78,139.29
2469,B-4,354.5,0.25,86,139.29
2470,C#5,354.75,0.25,77,139.29
2471,F#5,355.0,0.25,79,139.29
2472,B-5,355.25,0.25,81,139.29
2473,C#6,355.5,0.5,89,139.29
2474,C2,358.5,0.5,87,139.29
2475,B-2,358.5,0.5,87,139.29
2476,G2,358.5,0.5,87,139.29
2477,C3,358.5,0.5,87,139.29
2478,E3,358.75,0.25,72,139.29
2479,G3,359.0,0.25,75,139.29
2480,B-3,359.25,0.25,76,139.29
2481,E4,359.5,0.25,89,139.29
2482,C3,359.75,0.25,71,139.29
2483,G3,360.0,0.25,74,139.29
2484,B-3,360.25,0.25,76,139.29
2485,C4,360.5,0.25,90,139.29
2486,E4,360.75,0.25,72,139.29
2487,G4,361.0,0.25,75,139.29
2488,B-4,361.25,0.25,76,139.29
2489,E5,361.5,0.25,87,139.29
2490,C4,361.75,0.25,73,139.29
2491,G4,362.0,0.25,76,139.29
2492,B-4,362.25,0.25,78,139.29
2493,C5,362.5,0.25,89,139.29
2494,E5,362.75,0.25,77,139.29
2495,G5,363.0,0.25,79,139.29
2496,B-5,363.25,0.25,81,139.29
2497,E6,363.5,0.5,93,139.29
2498,C#2,366.5,333/1000,58,139.29
2499,C#3,366.833,333/1000,50,139.29
2500,E3,367.167,333/1000,50,139.29
2501,G3,367.5,0.25,50,139.29
2502,B-3,367.75,0.25,54,139.29
2503,C#4,368.0,0.25,51,139.29
2504,E4,368.25,0.25,53,139.29
2505,G4,368.5,0.5,54,139.29
2506,E2,370.5,333/1000,55,139.29
2507,E3,370.833,333/1000,47,139.29
2508,G3,371.167,333/1000,47,139.29
2509,B-3,371.5,0.25,47,139.29
2510,C#4,371.75,0.25,51,139.29
2511,E4,372.0,0.25,48,139.29
2512,G4,372.25,0.25,50,139.29
2513,B-4,372.5,0.5,51,139.29
2514,G2,374.5,333/1000,52,139.29
2515,G3,374.833,333/1000,44,139.29
2516,B-3,375.167,333/1000,44,139.29
2517,C#4,375.5,0.25,44,139.29
2518,E4,375.75,0.25,48,139.29
2519,G4,376.0,0.25,45,139.29
2520,B-4,376.25,0.25,47,139.29
2521,C#5,376.5,0.5,48,139.29
2522,B-2,378.5,333/1000,49,139.29
2523,B-3,378.833,333/1000,41,139.29
2524,C#4,379.167,333/1000,41,139.29
2525,E4,379.5,0.25,41,139.29
2526,G4,379.75,0.25,45,139.29
2527,B-4,380.0,0.25,42,139.29
2528,C#5,380.25,0.25,44,139.29
2529,E5,380.5,0.5,45,139.29
2530,C#3,382.5,0.5,40,139.29
2531,E3,383.0,0.5,36,139.29
2532,G3,383.5,0.5,36,139.29
2533,B-3,384.0,0.5,36,139.29
2534,C#4,384.5,0.5,35,139.29
2535,E4,385.0,0.5,36,139.29
2536,G4,385.5,0.5,37,139.29
2537,B-4,386.0,0.5,38,139.29
2538,C#5,386.5,0.5,39,139.29
2539,E5,387.0,0.5,40,139.29
2540,G5,387.5,0.5,40,139.29
2541,B-5,388.0,0.5,41,139.29
2542,C#6,388.5,0.5,42,139.29
2543,E6,389.0,0.5,43,139.29
2544,G6,389.5,0.5,44,139.29
2545,B-6,390.0,0.5,46,139.29
2546,G6,390.5,0.5,46,139.29
2547,E6,391.0,0.5,45,139.29
2548,C#6,391.5,0.5,45,139.29
2549,B-5,392.0,0.5,44,139.29
2550,G5,392.5,0.5,44,139.29
2551,E5,393.0,0.5,43,139.29
2552,C#5,393.5,0.5,43,139.29
2553,B-4,394.0,0.5,42,139.29
2554,G4,394.5,0.5,42,139.29
2555,E4,395.0,0.5,41,139.29
2556,C#4,395.5,0.5,40,139.29
2557,B-3,396.0,0.5,38,139.29
2558,G3,396.5,0.5,38,139.29
2559,E3,397.0,0.5,37,139.29
2560,C#3,397.5,0.5,36,139.29
2561,B-2,398.0,0.5,35,139.29
2562,G2,398.5,2.0,35,139.29
2563,E2,400.5,2.0,36,139.29
2564,C#2,402.5,2.0,35,139.29
2565,B-1,404.5,2.0,34,139.29
2566,G1,406.5,2.0,34,139.29
2567,G1,408.5,2.0,34,139.29
2568,C2,410.5,2.0,34,139.29
2569,E3,410.5,1.5,34,139.29
2570,B-2,410.5,1.5,34,139.29
2571,G2,410.5,1.5,34,139.29
2572,C3,410.5,1.5,34,139.29
2573,C2,412.5,2.0,34,139.29
2574,C2,414.5,2.0,34,139.29
2575,G3,414.5,1.5,34,139.29
2576,B-3,414.5,1.5,34,139.29
2577,C4,414.5,1.5,34,139.29
2578,E4,414.5,1.5,34,139.29
2579,C2,416.5,2.0,34,139.29
2580,G4,416.5,1.5,34,139.29
2581,B-4,416.5,1.5,34,139.29
2582,C5,416.5,1.5,34,139.29
2583,E5,416.5,1.5,34,139.29
2584,C2,418.5,2.0,34,139.29
2585,E6,418.5,1.5,34,139.29
2586,C6,418.5,1.5,34,139.29
2587,B-5,418.5,1.5,34,139.29
2588,G5,418.5,1.5,34,139.29
2589,C2,420.5,1.75,34,139.29
2590,B-2,420.5,1.5,34,139.29
2591,G2,420.5,1.5,34,139.29
2592,E3,420.5,1.5,34,139.29
2593,C3,420.5,1.5,34,139.29
2594,C2,422.25,0.25,34,139.29
2595,F2,422.5,1.0,39,139.29
2596,F1,422.5,1.0,39,139.29
2597,C3,422.75,0.25,40,139.29
2598,F3,423.0,0.25,37,139.29
2599,G#3,423.25,0.25,37,139.29
2600,C4,423.5,0.25,40,139.29
2601,C#4,423.75,0.25,38,139.29
2602,C4,424.0,0.25,38,139.29
2603,B-3,424.25,0.25,38,139.29
2604,G#3,424.5,0.25,40,139.29
2605,B-3,424.75,0.25,37,139.29
2606,G#3,425.0,0.25,37,139.29
2607,G3,425.25,0.25,37,139.29
2608,F3,425.5,0.25,40,139.29
2609,G3,425.75,0.25,37,139.29
2610,G#3,426.0,0.25,37,139.29
2611,F3,426.25,0.25,37,139.29
2612,F1,426.5,1.0,40,139.29
2613,F2,426.5,1.0,40,139.29
2614,C3,426.75,0.25,40,139.29
2615,F3,427.0,0.25,37,139.29
2616,G#3,427.25,0.25,37,139.29
2617,C4,427.5,0.25,40,139.29
2618,C#4,427.75,0.25,38,139.29
2619,C4,428.0,0.25,38,139.29
2620,B-3,428.25,0.25,38,139.29
2621,G#4,428.25,0.25,51,139.29
2622,C5,428.25,0.25,51,139.29
2623,G#3,428.5,0.25,40,139.29
2624,G#4,428.5,1.0,56,139.29
2625,C5,428.5,1.0,56,139.29
2626,B-3,428.75,0.25,37,139.29
2627,G#3,429.0,0.25,37,139.29
2628,G3,429.25,0.25,37,139.29
2629,F3,429.5,0.25,40,139.29
2630,G#4,429.5,0.5,30,139.29
2631,F4,429.5,0.5,30,139.29
2632,G3,429.75,0.25,37,139.29
2633,G#3,430.0,0.25,37,139.29
2634,F3,430.25,0.25,37,139.29
2635,B-1,430.5,1.0,40,139.29
2636,B-2,430.5,1.0,40,139.29
2637,C#3,430.75,0.25,44,139.29
2638,F#3,431.0,0.25,40,139.29
2639,B-3,431.25,0.25,40,139.29
2640,C#4,431.5,0.25,44,139.29
2641,E-4,431.75,0.25,41,139.29
2642,C#4,432.0,0.25,41,139.29
2643,C4,432.25,0.25,41,139.29
2644,C#5,432.25,0.25,63,139.29
2645,B-4,432.25,0.25,63,139.29
2646,B-3,432.5,0.25,44,139.29
2647,C#5,432.5,2.0,70,139.29
2648,B-4,432.5,2.0,70,139.29
2649,C4,432.75,0.25,40,139.29
2650,B-3,433.0,0.25,40,139.29
2651,G#3,433.25,0.25,40,139.29
2652,F#3,433.5,0.25,44,139.29
2653,G#3,433.75,0.25,40,139.29
2654,F#3,434.0,0.25,40,139.29
2655,F3,434.25,0.25,40,139.29
2656,E3,434.5,0.25,44,139.29
2657,B-4,434.5,0.5,51,139.29
2658,C5,434.5,0.5,51,139.29
2659,F3,434.75,0.25,40,139.29
2660,G3,435.0,0.25,40,139.29
2661,C3,435.0,0.5,43,139.29
2662,C2,435.0,0.5,43,139.29
2663,E3,435.25,0.25,40,139.29
2664,F3,435.5,0.25,44,139.29
2665,G3,435.75,0.25,40,139.29
2666,G#3,436.0,0.25,40,139.29
2667,C#2,436.0,0.5,37,139.29
2668,C#3,436.0,0.5,37,139.29
2669,F3,436.25,0.25,40,139.29
2670,G3,436.5,0.25,44,139.29
2671,G#3,436.75,0.25,40,139.29
2672,B-3,437.0,0.25,40,139.29
2673,B-1,437.0,0.5,39,139.29
2674,B-2,437.0,0.5,39,139.29
2675,G3,437.25,0.25,40,139.29
2676,E3,437.5,0.25,44,139.29
2677,F3,437.75,0.25,37,139.29
2678,G3,438.0,0.25,38,139.29
2679,C2,438.0,0.5,35,139.29
2680,C3,438.0,0.5,35,139.29
2681,E3,438.25,0.25,40,139.29
2682,F3,438.5,1.0,38,139.29
2683,F2,438.5,0.25,40,139.29
2684,F1,438.5,0.25,40,139.29
2685,C3,438.75,0.25,37,139.29
2686,F3,439.0,0.25,37,139.29
2687,G#3,439.25,0.25,40,139.29
2688,C4,439.5,0.25,38,139.29
2689,C#4,439.75,0.25,38,139.29
2690,E4,440.0,0.25,57,139.29
2691,C4,440.0,0.25,38,139.29
2692,B-3,440.25,0.25,40,139.29
2693,F4,440.5,0.25,62,139.29
2694,G#3,440.5,0.25,37,139.29
2695,B-3,440.75,0.25,37,139.29
2696,G4,441.0,0.25,57,139.29
2697,G#3,441.0,0.25,37,139.29
2698,G3,441.25,0.25,40,139.29
2699,G#4,441.5,0.25,62,139.29
2700,F3,441.5,0.25,37,139.29
2701,G3,441.75,0.25,37,139.29
2702,F4,442.0,0.25,59,139.29
2703,G#3,442.0,0.25,37,139.29
2704,F3,442.25,0.25,37,139.29
2705,G#3,442.5,0.25,40,139.29
2706,C3,442.75,0.25,37,139.29
2707,F3,443.0,0.25,37,139.29
2708,G#3,443.25,0.25,40,139.29
2709,C4,443.5,0.25,38,139.29
2710,C#4,443.75,0.25,38,139.29
2711,C4,444.0,0.25,38,139.29
2712,E5,444.0,0.25,56,139.29
2713,E4,444.0,0.25,56,139.29
2714,B-3,444.25,0.25,40,139.29
2715,G#3,444.5,0.25,37,139.29
2716,F5,444.5,0.25,62,139.29
2717,F4,444.5,0.25,62,139.29
2718,B-3,444.75,0.25,37,139.29
2719,G#3,445.0,0.25,37,139.29
2720,G4,445.0,0.25,58,139.29
2721,G5,445.0,0.25,58,139.29
2722,G3,445.25,0.25,40,139.29
2723,F3,445.5,0.25,37,139.29
2724,G#4,445.5,0.25,62,139.29
2725,G#5,445.5,0.25,62,139.29
2726,G3,445.75,0.25,37,139.29
2727,G#3,446.0,0.25,37,139.29
2728,F4,446.0,0.25,58,139.29
2729,F5,446.0,0.25,58,139.29
2730,F3,446.25,0.25,37,139.29
2731,B-3,446.5,0.25,44,139.29
2732,C#3,446.75,0.25,40,139.29
2733,F#3,447.0,0.25,40,139.29
2734,B-3,447.25,0.25,44,139.29
2735,C#4,447.5,0.25,41,139.29
2736,E-4,447.75,0.25,41,139.29
2737,C#4,448.0,0.25,41,139.29
2738,F4,448.0,0.5,65,139.29
2739,F5,448.0,0.5,65,139.29
2740,C4,448.25,0.25,44,139.29
2741,B-3,448.5,0.25,40,139.29
2742,F#4,448.5,0.5,70,139.29
2743,F#5,448.5,0.5,70,139.29
2744,C4,448.75,0.25,40,139.29
2745,B-3,449.0,0.25,40,139.29
2746,B-4,449.0,0.5,72,139.29
2747,B-5,449.0,0.5,72,139.29
2748,G#3,449.25,0.25,44,139.29
2749,F#3,449.5,0.25,40,139.29
2750,C#5,449.5,0.25,75,139.29
2751,C#6,449.5,0.25,75,139.29
2752,G#3,449.75,0.25,40,139.29
2753,F#3,450.0,0.25,40,139.29
2754,C#5,450.0,0.25,72,139.29
2755,C#6,450.0,0.25,72,139.29
2756,F3,450.25,0.25,44,139.29
2757,E3,450.5,0.25,40,139.29
2758,C#5,450.5,1.0,77,139.29
2759,C#6,450.5,1.0,77,139.29
2760,F3,450.75,0.25,40,139.29
2761,G3,451.0,0.25,40,139.29
2762,G#3,451.25,0.25,44,139.29
2763,B-3,451.5,0.25,40,139.29
2764,C6,451.5,1.0,71,139.29
2765,C5,451.5,1.0,71,139.29
2766,G#3,451.75,0.25,40,139.29
2767,G3,452.0,0.25,40,139.29
2768,F3,452.25,0.25,44,139.29
2769,E3,452.5,0.25,40,139.29
2770,F3,452.75,0.25,40,139.29
2771,E3,453.0,0.25,40,139.29
2772,C#3,453.25,0.25,44,139.29
2773,C3,453.5,0.25,37,139.29
2774,C6,453.5,1.0,71,139.29
2775,C5,453.5,1.0,71,139.29
2776,B-2,453.75,0.25,38,139.29
2777,G#2,454.0,0.25,40,139.29
2778,G2,454.25,0.25,40,139.29
2779,F2,454.5,1.0,44,139.29
2780,E4,454.5,1.0,64,139.29
2781,E5,454.5,1.0,64,139.29
2782,F5,455.5,0.25,57,139.29
2783,F4,455.5,0.25,57,139.29
2784,C4,455.75,0.25,41,139.29
2785,F4,456.0,0.25,44,139.29
2786,G#4,456.25,0.25,46,139.29
2787,G#3,456.25,0.25,52,139.29
2788,F3,456.25,0.25,52,139.29
2789,C5,456.5,0.25,43,139.29
2790,F3,456.5,1.0,65,139.29
2791,G#3,456.5,1.0,65,139.29
2792,C4,456.75,0.25,45,139.29
2793,F4,457.0,0.25,46,139.29
2794,G#4,457.25,0.25,48,139.29
2795,C4,457.75,0.25,46,139.29
2796,F4,458.0,0.25,47,139.29
2797,G#4,458.25,0.25,49,139.29
2798,G#3,458.25,0.25,54,139.29
2799,F3,458.25,0.25,54,139.29
2800,C5,458.5,0.25,50,139.29
2801,C3,458.5,2.0,66,139.29
2802,G#3,458.5,2.0,66,139.29
2803,F3,458.5,2.0,66,139.29
2804,C4,458.75,0.25,52,139.29
2805,F4,459.0,0.25,53,139.29
2806,G#4,459.25,0.25,38,139.29
2807,B3,459.75,0.25,51,139.29
2808,D4,460.0,0.25,52,139.29
2809,G#4,460.25,0.25,52,139.29
2810,B4,460.5,1.0,54,139.29
2811,E3,460.5,0.5,48,139.29
2812,C3,460.5,0.5,48,139.29
2813,G3,460.5,0.5,48,139.29
2814,B3,460.75,0.25,52,139.29
2815,D4,461.0,0.25,52,139.29
2816,G#4,461.25,0.25,52,139.29
2817,B4,461.5,1.0,54,139.29
2818,B3,461.75,0.25,52,139.29
2819,E4,462.0,0.25,50,139.29
2820,G4,462.25,0.25,49,139.29
2821,C5,462.5,1.0,52,139.29
2822,C3,462.5,1.0,42,139.29
2823,C2,462.5,1.0,42,139.29
2824,C4,462.75,0.25,46,139.29
2825,E4,463.0,0.25,44,139.29
2826,G4,463.25,0.25,38,139.29
2827,C4,463.75,0.25,38,139.29
2828,E4,464.0,0.25,40,139.29
2829,G4,464.25,0.25,42,139.29
2830,B-3,464.25,0.25,60,139.29
2831,G3,464.25,0.25,60,139.29
2832,C5,464.5,0.25,43,139.29
2833,G3,464.5,1.0,68,139.29
2834,B-3,464.5,1.0,68,139.29
2835,C4,464.75,0.25,45,139.29
2836,E4,465.0,0.25,46,139.29
2837,G4,465.25,0.25,48,139.29
2838,C4,465.75,0.25,46,139.29
2839,E4,466.0,0.25,47,139.29
2840,G4,466.25,0.25,49,139.29
2841,G3,466.25,0.25,61,139.29
2842,B-3,466.25,0.25,61,139.29
2843,C5,466.5,0.25,50,139.29
2844,F3,466.5,2.0,62,139.29
2845,B-3,466.5,2.0,62,139.29
2846,G3,466.5,2.0,62,139.29
2847,C4,466.75,0.25,52,139.29
2848,E4,467.0,0.25,53,139.29
2849,G4,467.25,0.25,38,139.29
2850,C4,467.75,0.25,51,139.29
2851,E4,468.0,0.25,52,139.29
2852,G4,468.25,0.25,52,139.29
2853,C5,468.5,1.0,54,139.29
2854,F3,468.5,0.5,50,139.29
2855,G#3,468.5,0.5,50,139.29
2856,C4,468.75,0.25,52,139.29
2857,E4,469.0,0.25,52,139.29
2858,G4,469.25,0.25,52,139.29
2859,C5,469.5,1.0,53,139.29
2860,C4,469.75,0.25,52,139.29
2861,E4,470.0,0.25,50,139.29
2862,G4,470.25,0.25,49,139.29
2863,C5,470.5,1.0,47,139.29
2864,F2,470.5,1.0,45,139.29
2865,F3,470.5,1.0,45,139.29
2866,C4,470.75,0.25,46,139.29
2867,F4,471.0,0.25,44,139.29
2868,G#4,471.25,0.25,38,139.29
2869,F4,471.75,0.25,38,139.29
2870,A4,472.0,0.25,40,139.29
2871,C5,472.25,0.25,42,139.29
2872,E-4,472.25,0.25,59,139.29
2873,C4,472.25,0.25,59,139.29
2874,F5,472.5,0.25,43,139.29
2875,C4,472.5,1.0,68,139.29
2876,E-4,472.5,1.0,68,139.29
2877,F4,472.75,0.25,45,139.29
2878,A4,473.0,0.25,46,139.29
2879,C5,473.25,0.25,48,139.29
2880,F4,473.75,0.25,46,139.29
2881,A4,474.0,0.25,47,139.29
2882,C5,474.25,0.25,49,139.29
2883,C4,474.25,0.25,66,139.29
2884,E-4,474.25,0.25,66,139.29
2885,F5,474.5,0.25,50,139.29
2886,B-3,474.5,2.0,72,139.29
2887,E-4,474.5,2.0,72,139.29
2888,C4,474.5,2.0,72,139.29
2889,F4,474.75,0.25,52,139.29
2890,A4,475.0,0.25,53,139.29
2891,C5,475.25,0.25,54,139.29
2892,F4,475.75,0.25,50,139.29
2893,A4,476.0,0.25,50,139.29
2894,C5,476.25,0.25,50,139.29
2895,F5,476.5,1.0,55,139.29
2896,F4,476.75,0.25,53,139.29
2897,A4,477.0,0.25,52,139.29
2898,B-3,477.0,0.5,72,139.29
2899,E-4,477.0,0.5,72,139.29
2900,C4,477.0,0.5,72,139.29
2901,C5,477.25,0.25,52,139.29
2902,A4,477.5,0.25,54,139.29
2903,F4,477.5,0.25,54,139.29
2904,C#4,477.5,0.5,64,139.29
2905,B-3,477.5,0.5,64,139.29
2906,F5,477.75,0.25,54,139.29
2907,F4,478.0,0.25,53,139.29
2908,B-4,478.0,0.25,53,139.29
2909,C4,478.0,0.5,61,139.29
2910,G#3,478.0,0.5,61,139.29
2911,F5,478.25,0.25,52,139.29
2912,F4,478.5,0.25,52,139.29
2913,C5,478.5,0.25,52,139.29
2914,B-3,478.5,0.5,59,139.29
2915,G3,478.5,0.5,59,139.29
2916,F5,478.75,0.25,51,139.29
2917,C#5,479.0,0.25,50,139.29
2918,F4,479.0,0.25,50,139.29
2919,C3,479.0,1.0,56,139.29
2920,G#3,479.0,1.0,56,139.29
2921,F3,479.0,1.0,56,139.29
2922,F5,479.25,0.25,50,139.29
2923,C4,479.75,0.25,52,139.29
2924,F4,480.0,0.25,49,139.29
2925,G#4,480.25,0.25,50,139.29
2926,C5,480.5,1.0,56,139.29
2927,C4,480.75,0.25,50,139.29
2928,G#3,480.75,0.25,56,139.29
2929,F3,480.75,0.25,56,139.29
2930,F4,481.0,0.25,50,139.29
2931,C3,481.0,1.0,63,139.29
2932,B-3,481.0,1.0,63,139.29
2933,G3,481.0,1.0,63,139.29
2934,G#4,481.25,0.25,50,139.29
2935,C5,481.5,1.0,56,139.29
2936,C4,481.75,0.25,52,139.29
2937,G4,482.0,0.25,52,139.29
2938,B-4,482.25,0.25,52,139.29
2939,C5,482.5,1.0,56,139.29
2940,C4,482.75,0.25,52,139.29
2941,G3,482.75,0.25,53,139.29
2942,E3,482.75,0.25,53,139.29
2943,E4,483.0,0.25,52,139.29
2944,F3,483.0,0.25,56,139.29
2945,G4,483.25,0.25,52,139.29
2946,C4,483.25,0.25,49,139.29
2947,G#3,483.5,0.25,49,139.29
2948,C4,483.5,1.0,59,139.29
2949,F4,483.5,1.0,59,139.29
2950,G#4,483.5,1.0,59,139.29
2951,C5,483.5,1.0,59,139.29
2952,F3,483.75,0.25,49,139.29
2953,C3,484.0,0.25,53,139.29
2954,G#3,484.25,0.25,49,139.29
2955,F3,484.5,0.25,49,139.29
2956,C3,484.75,0.25,49,139.29
2957,G#2,485.0,0.25,53,139.29
2958,F3,485.25,0.25,49,139.29
2959,G#5,485.25,0.25,69,139.29
2960,F5,485.25,0.25,69,139.29
2961,C3,485.5,0.25,49,139.29
2962,G#5,485.5,1.0,74,139.29
2963,F5,485.5,1.0,74,139.29
2964,G#2,485.75,0.25,49,139.29
2965,F2,486.0,0.25,53,139.29
2966,C3,486.25,0.25,49,139.29
2967,G#2,486.5,0.25,49,139.29
2968,F2,486.75,0.25,49,139.29
2969,C2,487.0,0.25,53,139.29
2970,F2,487.25,0.25,49,139.29
2971,G#5,487.25,0.25,70,139.29
2972,F5,487.25,0.25,70,139.29
2973,G#2,487.5,0.25,49,139.29
2974,G#5,487.5,2.0,75,139.29
2975,F5,487.5,2.0,75,139.29
2976,C3,487.75,0.25,49,139.29
2977,B2,488.0,0.25,53,139.29
2978,C3,488.25,0.25,49,139.29
2979,B2,488.5,0.25,49,139.29
2980,C3,488.75,0.25,49,139.29
2981,B2,489.0,0.25,53,139.29
2982,C3,489.25,0.25,49,139.29
2983,G2,489.5,0.25,49,139.29
2984,G5,489.5,0.5,68,139.29
2985,E5,489.5,0.5,68,139.29
2986,C3,489.75,0.25,49,139.29
2987,E2,490.0,0.25,53,139.29
2988,C3,490.25,0.25,49,139.29
2989,G2,490.5,0.25,49,139.29
2990,C3,490.75,0.25,49,139.29
2991,C2,491.0,0.25,56,139.29
2992,E2,491.25,0.25,49,139.29
2993,G2,491.5,0.25,49,139.29
2994,C3,491.75,0.25,49,139.29
2995,E2,492.0,0.25,53,139.29
2996,G2,492.25,0.25,49,139.29
2997,C3,492.5,0.25,49,139.29
2998,E3,492.75,0.25,49,139.29
2999,G2,493.0,0.25,53,139.29
3000,C3,493.25,0.25,49,139.29
3001,B-5,493.25,0.25,75,139.29
3002,G5,493.25,0.25,75,139.29
3003,E3,493.5,0.25,49,139.29
3004,B-5,493.5,1.0,81,139.29
3005,G5,493.5,1.0,81,139.29
3006,G3,493.75,0.25,49,139.29
3007,C3,494.0,0.25,53,139.29
3008,E3,494.25,0.25,49,139.29
3009,G3,494.5,0.25,49,139.29
3010,C4,494.75,0.25,49,139.29
3011,F3,495.0,0.25,59,139.29
3012,G#3,495.25,0.25,49,139.29
3013,B-5,495.25,0.25,77,139.29
3014,G5,495.25,0.25,77,139.29
3015,C4,495.5,0.25,49,139.29
3016,B-5,495.5,2.0,82,139.29
3017,G5,495.5,2.0,82,139.29
3018,F4,495.75,0.25,49,139.29
3019,E4,496.0,0.25,53,139.29
3020,F4,496.25,0.25,49,139.29
3021,E4,496.5,0.25,49,139.29
3022,F4,496.75,0.25,49,139.29
3023,E4,497.0,0.25,53,139.29
3024,F4,497.25,0.25,49,139.29
3025,C4,497.5,0.25,49,139.29
3026,G#5,497.5,0.5,74,139.29
3027,F5,497.5,0.5,74,139.29
3028,F4,497.75,0.25,49,139.29
3029,G#3,498.0,0.25,53,139.29
3030,F4,498.25,0.25,49,139.29
3031,C4,498.5,0.25,49,139.29
3032,F4,498.75,0.25,49,139.29
3033,F3,499.0,0.25,61,139.29
3034,A3,499.25,0.25,53,139.29
3035,C4,499.5,0.25,53,139.29
3036,F4,499.75,0.25,53,139.29
3037,A3,500.0,0.25,58,139.29
3038,C4,500.25,0.25,53,139.29
3039,F4,500.5,0.25,53,139.29
3040,A4,500.75,0.25,53,139.29
3041,C4,501.0,0.25,58,139.29
3042,F4,501.25,0.25,53,139.29
3043,E-6,501.25,0.25,82,139.29
3044,C6,501.25,0.25,82,139.29
3045,A4,501.5,0.25,53,139.29
3046,E-6,501.5,1.0,89,139.29
3047,C6,501.5,1.0,89,139.29
3048,C5,501.75,0.25,53,139.29
3049,F4,502.0,0.25,58,139.29
3050,A4,502.25,0.25,53,139.29
3051,C5,502.5,0.25,53,139.29
3052,F5,502.75,0.25,53,139.29
3053,A4,503.0,0.25,67,139.29
3054,F5,503.25,0.25,53,139.29
3055,E-6,503.25,0.25,84,139.29
3056,C6,503.25,0.25,84,139.29
3057,E5,503.5,0.25,53,139.29
3058,E-6,503.5,2.0,90,139.29
3059,C6,503.5,2.0,90,139.29
3060,F5,503.75,0.25,53,139.29
3061,A4,504.0,0.25,58,139.29
3062,F5,504.25,0.25,53,139.29
3063,A4,504.5,0.25,53,139.29
3064,F5,504.75,0.25,53,139.29
3065,A4,505.0,0.25,57,139.29
3066,F5,505.25,0.25,56,139.29
3067,B-4,505.5,0.25,56,139.29
3068,F5,505.75,0.25,55,139.29
3069,C5,506.0,0.25,54,139.29
3070,E-6,506.0,0.5,90,139.29
3071,C6,506.0,0.5,90,139.29
3072,F5,506.25,0.25,53,139.29
3073,C#5,506.5,0.25,52,139.29
3074,C#6,506.5,0.5,79,139.29
3075,B-5,506.5,0.5,79,139.29
3076,F5,506.75,0.25,52,139.29
3077,C4,507.0,0.25,52,139.29
3078,C6,507.0,0.5,77,139.29
3079,G#5,507.0,0.5,77,139.29
3080,F4,507.25,0.25,47,139.29
3081,G#4,507.5,0.25,47,139.29
3082,B-5,507.5,0.5,73,139.29
3083,G5,507.5,0.5,73,139.29
3084,C5,507.75,0.25,47,139.29
3085,B4,508.0,0.25,52,139.29
3086,G#5,508.0,1.0,82,139.29
3087,F5,508.0,1.0,82,139.29
3088,C5,508.25,0.25,47,139.29
3089,B4,508.5,0.25,47,139.29
3090,C5,508.75,0.25,47,139.29
3091,C4,509.0,0.25,52,139.29
3092,E4,509.25,0.25,47,139.29
3093,G4,509.5,0.25,47,139.29
3094,C5,509.75,0.25,47,139.29
3095,F6,509.75,0.25,79,139.29
3096,G#5,509.75,0.25,79,139.29
3097,F5,509.75,0.25,79,139.29
3098,C4,510.0,0.25,52,139.29
3099,G6,510.0,1.0,82,139.29
3100,B-5,510.0,1.0,82,139.29
3101,G5,510.0,1.0,82,139.29
3102,G4,510.25,0.25,47,139.29
3103,B-4,510.5,0.25,47,139.29
3104,C5,510.75,0.25,47,139.29
3105,F3,511.0,0.25,52,139.29
3106,F4,511.25,0.25,38,139.29
3107,G#4,511.25,0.25,38,139.29
3108,C4,511.5,0.25,39,139.29
3109,C5,511.5,0.25,39,139.29
3110,E6,511.75,0.25,79,139.29
3111,G5,511.75,0.25,79,139.29
3112,E5,511.75,0.25,79,139.29
3113,G#4,511.75,0.25,41,139.29
3114,F4,511.75,0.25,41,139.29
3115,F6,512.0,0.25,73,139.29
3116,G#5,512.0,0.25,73,139.29
3117,F5,512.0,0.25,73,139.29
3118,C5,512.0,0.25,45,139.29
3119,C4,512.0,0.25,45,139.29
3120,C5,512.25,0.25,61,139.29
3121,F4,512.25,0.25,44,139.29
3122,G#4,512.25,0.25,44,139.29
3123,F5,512.5,0.25,62,139.29
3124,C5,512.5,0.25,45,139.29
3125,C4,512.5,0.25,45,139.29
3126,G#5,512.75,0.25,63,139.29
3127,F4,512.75,0.25,45,139.29
3128,G#4,512.75,0.25,45,139.29
3129,C6,513.0,0.25,68,139.29
3130,C4,513.0,0.25,46,139.29
3131,C5,513.0,0.25,46,139.29
3132,C#6,513.25,0.25,65,139.29
3133,F4,513.25,0.25,46,139.29
3134,G#4,513.25,0.25,46,139.29
3135,C6,513.5,0.25,66,139.29
3136,C4,513.5,0.25,45,139.29
3137,C5,513.5,0.25,45,139.29
3138,B-5,513.75,0.25,65,139.29
3139,G#4,513.75,0.25,45,139.29
3140,F4,513.75,0.25,45,139.29
3141,G#5,514.0,0.25,68,139.29
3142,C5,514.0,0.25,45,139.29
3143,C4,514.0,0.25,45,139.29
3144,B-5,514.25,0.25,67,139.29
3145,F4,514.25,0.25,44,139.29
3146,G#4,514.25,0.25,44,139.29
3147,G#5,514.5,0.25,66,139.29
3148,C5,514.5,0.25,44,139.29
3149,C4,514.5,0.25,44,139.29
3150,G5,514.75,0.25,65,139.29
3151,F4,514.75,0.25,43,139.29
3152,G#4,514.75,0.25,43,139.29
3153,F5,515.0,0.25,64,139.29
3154,F3,515.0,0.25,54,139.29
3155,G5,515.25,0.25,63,139.29
3156,F4,515.25,0.25,38,139.29
3157,G#4,515.25,0.25,38,139.29
3158,G#5,515.5,0.25,63,139.29
3159,C5,515.5,0.25,39,139.29
3160,C4,515.5,0.25,39,139.29
3161,F5,515.75,0.25,62,139.29
3162,F4,515.75,0.25,41,139.29
3163,G#4,515.75,0.25,41,139.29
3164,C5,516.0,0.25,45,139.29
3165,C4,516.0,0.25,45,139.29
3166,C5,516.25,0.25,61,139.29
3167,F4,516.25,0.25,44,139.29
3168,G#4,516.25,0.25,44,139.29
3169,F5,516.5,0.25,62,139.29
3170,C5,516.5,0.25,45,139.29
3171,C4,516.5,0.25,45,139.29
3172,G#5,516.75,0.25,63,139.29
3173,G#4,516.75,0.25,45,139.29
3174,F4,516.75,0.25,45,139.29
3175,C6,517.0,0.25,68,139.29
3176,C4,517.0,0.25,46,139.29
3177,C5,517.0,0.25,46,139.29
3178,C#6,517.25,0.25,65,139.29
3179,F4,517.25,0.25,46,139.29
3180,G#4,517.25,0.25,46,139.29
3181,C6,517.5,0.25,66,139.29
3182,C5,517.5,0.25,45,139.29
3183,C4,517.5,0.25,45,139.29
3184,B-5,517.75,0.25,65,139.29
3185,F4,517.75,0.25,45,139.29
3186,G#4,517.75,0.25,45,139.29
3187,G#5,518.0,0.25,68,139.29
3188,C4,518.0,0.25,45,139.29
3189,C5,518.0,0.25,45,139.29
3190,B-5,518.25,0.25,67,139.29
3191,G#4,518.25,0.25,44,139.29
3192,F4,518.25,0.25,44,139.29
3193,G#5,518.5,0.25,66,139.29
3194,C5,518.5,0.25,44,139.29
3195,C4,518.5,0.25,44,139.29
3196,G5,518.75,0.25,65,139.29
3197,G#4,518.75,0.25,43,139.29
3198,F4,518.75,0.25,43,139.29
3199,F5,519.0,0.25,64,139.29
3200,G#2,519.0,0.25,55,139.29
3201,G5,519.25,0.25,63,139.29
3202,F#3,519.25,0.25,40,139.29
3203,G#3,519.25,0.25,40,139.29
3204,G#5,519.5,0.25,63,139.29
3205,C4,519.5,0.25,41,139.29
3206,E-3,519.5,0.25,41,139.29
3207,F5,519.75,0.25,62,139.29
3208,F#3,519.75,0.25,43,139.29
3209,G#3,519.75,0.25,43,139.29
3210,C4,520.0,0.25,47,139.29
3211,E-3,520.0,0.25,47,139.29
3212,F#5,520.25,0.25,64,139.29
3213,F#3,520.25,0.25,46,139.29
3214,G#3,520.25,0.25,46,139.29
3215,C6,520.5,0.25,65,139.29
3216,C4,520.5,0.25,47,139.29
3217,E-3,520.5,0.25,47,139.29
3218,E-6,520.75,0.25,66,139.29
3219,G#3,520.75,0.25,48,139.29
3220,F#3,520.75,0.25,48,139.29
3221,F#6,521.0,0.25,72,139.29
3222,E-3,521.0,0.25,49,139.29
3223,C4,521.0,0.25,49,139.29
3224,G#6,521.25,0.25,69,139.29
3225,G#3,521.25,0.25,49,139.29
3226,F#3,521.25,0.25,49,139.29
3227,F#6,521.5,0.25,70,139.29
3228,E-3,521.5,0.25,48,139.29
3229,C4,521.5,0.25,48,139.29
3230,F6,521.75,0.25,69,139.29
3231,F#3,521.75,0.25,47,139.29
3232,G#3,521.75,0.25,47,139.29
3233,E-6,522.0,0.25,72,139.29
3234,C4,522.0,0.25,47,139.29
3235,E-3,522.0,0.25,47,139.29
3236,F6,522.25,0.25,71,139.29
3237,F#3,522.25,0.25,46,139.29
3238,G#3,522.25,0.25,46,139.29
3239,E-6,522.5,0.25,70,139.29
3240,C4,522.5,0.25,46,139.29
3241,E-3,522.5,0.25,46,139.29
3242,C#6,522.75,0.25,69,139.29
3243,G#3,522.75,0.25,45,139.29
3244,F#3,522.75,0.25,45,139.29
3245,C6,523.0,0.25,68,139.29
3246,G#2,523.0,0.25,54,139.29
3247,C#6,523.25,0.25,67,139.29
3248,F#3,523.25,0.25,40,139.29
3249,G#3,523.25,0.25,40,139.29
3250,E-6,523.5,0.25,66,139.29
3251,C4,523.5,0.25,41,139.29
3252,E-3,523.5,0.25,41,139.29
3253,C6,523.75,0.25,65,139.29
3254,F#3,523.75,0.25,43,139.29
3255,G#3,523.75,0.25,43,139.29
3256,C4,524.0,0.25,47,139.29
3257,E-3,524.0,0.25,47,139.29
3258,F#5,524.25,0.25,64,139.29
3259,F#3,524.25,0.25,46,139.29
3260,G#3,524.25,0.25,46,139.29
3261,C6,524.5,0.25,65,139.29
3262,E-3,524.5,0.25,47,139.29
3263,C4,524.5,0.25,47,139.29
3264,E-6,524.75,0.25,66,139.29
3265,G#3,524.75,0.25,48,139.29
3266,F#3,524.75,0.25,48,139.29
3267,F#6,525.0,0.25,72,139.29
3268,C4,525.0,0.25,49,139.29
3269,E-3,525.0,0.25,49,139.29
3270,G#6,525.25,0.25,69,139.29
3271,F#3,525.25,0.25,49,139.29
3272,G#3,525.25,0.25,49,139.29
3273,F#6,525.5,0.25,70,139.29
3274,C4,525.5,0.25,48,139.29
3275,E-3,525.5,0.25,48,139.29
3276,F6,525.75,0.25,69,139.29
3277,G#3,525.75,0.25,47,139.29
3278,F#3,525.75,0.25,47,139.29
3279,E-6,526.0,0.25,72,139.29
3280,E-3,526.0,0.25,47,139.29
3281,C4,526.0,0.25,47,139.29
3282,F6,526.25,0.25,71,139.29
3283,F#3,526.25,0.25,46,139.29
3284,G#3,526.25,0.25,46,139.29
3285,E-6,526.5,0.25,70,139.29
3286,E-3,526.5,0.25,46,139.29
3287,C4,526.5,0.25,46,139.29
3288,C#6,526.75,0.25,69,139.29
3289,G#3,526.75,0.25,45,139.29
3290,F#3,526.75,0.25,45,139.29
3291,C6,527.0,0.25,68,139.29
3292,C#3,527.0,0.25,56,139.29
3293,B-5,527.25,0.25,67,139.29
3294,C#4,527.25,0.25,42,139.29
3295,F4,527.25,0.25,42,139.29
3296,G#5,527.5,0.25,66,139.29
3297,G#4,527.5,0.25,43,139.29
3298,G#3,527.5,0.25,43,139.29
3299,F#5,527.75,0.25,65,139.29
3300,F4,527.75,0.25,45,139.29
3301,C#4,527.75,0.25,45,139.29
3302,F5,528.0,0.25,68,139.29
3303,G#3,528.0,0.25,49,139.29
3304,G#4,528.0,0.25,49,139.29
3305,G#5,528.25,0.25,67,139.29
3306,C#4,528.25,0.25,48,139.29
3307,F4,528.25,0.25,48,139.29
3308,C#6,528.5,0.25,68,139.29
3309,G#4,528.5,0.25,49,139.29
3310,G#3,528.5,0.25,49,139.29
3311,F6,528.75,0.25,69,139.29
3312,C#4,528.75,0.25,50,139.29
3313,F4,528.75,0.25,50,139.29
3314,G#6,529.0,0.25,75,139.29
3315,G#4,529.0,0.25,51,139.29
3316,G#3,529.0,0.25,51,139.29
3317,B-6,529.25,0.25,72,139.29
3318,C#4,529.25,0.25,51,139.29
3319,F4,529.25,0.25,51,139.29
3320,G#6,529.5,0.25,73,139.29
3321,G#3,529.5,0.25,50,139.29
3322,G#4,529.5,0.25,50,139.29
3323,F#6,529.75,0.25,72,139.29
3324,F4,529.75,0.25,49,139.29
3325,C#4,529.75,0.25,49,139.29
3326,F6,530.0,0.25,75,139.29
3327,G#4,530.0,0.25,49,139.29
3328,G#3,530.0,0.25,49,139.29
3329,F#6,530.25,0.25,74,139.29
3330,C#4,530.25,0.25,48,139.29
3331,F4,530.25,0.25,48,139.29
3332,F6,530.5,0.25,73,139.29
3333,G#4,530.5,0.25,48,139.29
3334,G#3,530.5,0.25,48,139.29
3335,E-6,530.75,0.25,72,139.29
3336,C#4,530.75,0.25,47,139.29
3337,F4,530.75,0.25,47,139.29
3338,C#6,531.0,0.25,71,139.29
3339,C#3,531.0,0.25,56,139.29
3340,E-6,531.25,0.25,70,139.29
3341,C#4,531.25,0.25,42,139.29
3342,F4,531.25,0.25,42,139.29
3343,F6,531.5,0.25,69,139.29
3344,G#4,531.5,0.25,43,139.29
3345,G#3,531.5,0.25,43,139.29
3346,C#6,531.75,0.25,68,139.29
3347,C#4,531.75,0.25,45,139.29
3348,F4,531.75,0.25,45,139.29
3349,G#4,532.0,0.5,49,139.29
3350,G#5,532.25,0.25,67,139.29
3351,C#6,532.5,0.25,68,139.29
3352,C#5,532.5,0.5,55,139.29
3353,F6,532.75,0.25,69,139.29
3354,G#6,533.0,0.25,76,139.29
3355,F5,533.0,0.5,58,139.29
3356,B-6,533.25,0.25,74,139.29
3357,G#6,533.5,0.25,75,139.29
3358,G#5,533.5,0.5,62,139.29
3359,F#6,533.75,0.25,74,139.29
3360,F6,534.0,0.25,78,139.29
3361,C#6,534.0,0.5,66,139.29
3362,F#6,534.25,0.25,77,139.29
3363,G#6,534.5,0.25,77,139.29
3364,C#6,534.5,0.5,69,139.29
3365,F#6,534.75,0.25,76,139.29
3366,F6,535.0,0.25,75,139.29
3367,C#6,535.0,1.5,80,139.29
3368,B-5,535.0,1.5,80,139.29
3369,F#6,535.25,0.25,75,139.29
3370,G#6,535.5,0.25,74,139.29
3371,F6,535.75,0.25,74,139.29
3372,F#6,536.25,0.25,70,139.29
3373,G#6,536.5,0.25,73,139.29
3374,G#5,536.5,0.5,66,139.29
3375,C6,536.5,0.5,66,139.29
3376,F#6,536.75,0.25,70,139.29
3377,G#6,537.0,0.25,65,139.29
3378,G5,537.0,1.0,68,139.29
3379,B-5,537.0,1.0,68,139.29
3380,F#6,537.25,0.25,63,139.29
3381,F6,537.5,0.25,59,139.29
3382,F#6,537.75,0.25,59,139.29
3383,C6,538.0,1.0,64,139.29
3384,G#5,538.0,1.0,64,139.29
3385,E6,538.25,0.25,58,139.29
3386,F6,538.5,0.25,60,139.29
3387,E6,538.75,0.25,57,139.29
3388,B-5,539.0,1.5,80,139.29
3389,C#6,539.0,1.5,80,139.29
3390,F6,539.25,0.25,57,139.29
3391,G6,539.5,0.25,60,139.29
3392,F6,539.75,0.25,56,139.29
3393,F#6,540.25,0.25,70,139.29
3394,G#6,540.5,0.25,73,139.29
3395,C6,540.5,0.5,66,139.29
3396,G#5,540.5,0.5,66,139.29
3397,F#6,540.75,0.25,70,139.29
3398,G#6,541.0,0.25,65,139.29
3399,G5,541.0,1.0,68,139.29
3400,B-5,541.0,1.0,68,139.29
3401,F#6,541.25,0.25,63,139.29
3402,F6,541.5,0.25,59,139.29
3403,F#6,541.75,0.25,59,139.29
3404,G#5,542.0,1.0,64,139.29
3405,C6,542.0,1.0,64,139.29
3406,E6,542.25,0.25,58,139.29
3407,F6,542.5,0.25,60,139.29
3408,E6,542.75,0.25,57,139.29
3409,C#6,543.0,1.5,80,139.29
3410,B-5,543.0,1.5,80,139.29
3411,F6,543.25,0.25,57,139.29
3412,G6,543.5,0.25,60,139.29
3413,F6,543.75,0.25,56,139.29
3414,F#6,544.25,0.25,70,139.29
3415,G#6,544.5,0.25,73,139.29
3416,C6,544.5,0.5,66,139.29
3417,G#5,544.5,0.5,66,139.29
3418,F#6,544.75,0.25,70,139.29
3419,G#6,545.0,0.25,73,139.29
3420,G5,545.0,1.0,68,139.29
3421,B-5,545.0,1.0,68,139.29
3422,F#6,545.25,0.25,70,139.29
3423,F6,545.5,0.25,59,139.29
3424,G6,545.75,0.25,59,139.29
3425,G#5,546.0,1.0,65,139.29
3426,F5,546.0,1.0,65,139.29
3427,E6,546.25,0.25,58,139.29
3428,F6,546.5,0.25,60,139.29
3429,E6,546.75,0.25,58,139.29
3430,E5,547.0,1.0,70,139.29
3431,G5,547.0,1.0,70,139.29
3432,C#6,547.25,0.25,58,139.29
3433,E-6,547.5,0.25,61,139.29
3434,C#6,547.75,0.25,57,139.29
3435,F5,548.0,1.0,70,139.29
3436,D5,548.0,1.0,70,139.29
3437,C6,548.25,0.25,60,139.29
3438,C#6,548.5,0.25,62,139.29
3439,C6,548.75,0.25,60,139.29
3440,F5,549.0,1.0,75,139.29
3441,C#5,549.0,1.0,75,139.29
3442,B5,549.25,0.25,61,139.29
3443,C6,549.5,0.25,65,139.29
3444,B5,549.75,0.25,62,139.29
3445,C5,550.0,1.0,75,139.29
3446,F5,550.0,1.0,75,139.29
3447,B-5,550.25,0.25,65,139.29
3448,C6,550.5,0.25,67,139.29
3449,B-5,550.75,0.25,64,139.29
3450,B4,551.0,2.0,76,139.29
3451,G#5,551.25,0.25,66,139.29
3452,B-5,551.5,0.25,69,139.29
3453,G#5,551.75,0.25,67,139.29
3454,D5,552.0,1.0,75,139.29
3455,G#5,552.25,0.25,67,139.29
3456,B-5,552.5,0.25,70,139.29
3457,G#5,552.75,0.25,68,139.29
3458,G#4,553.0,1.0,72,139.29
3459,C4,553.0,2.0,72,139.29
3460,C5,553.0,2.0,72,139.29
3461,G5,553.25,0.25,66,139.29
3462,G#5,553.5,0.25,69,139.29
3463,G5,553.75,0.25,64,139.29
3464,G4,554.0,1.0,68,139.29
3465,F5,554.25,0.25,64,139.29
3466,G5,554.5,0.25,65,139.29
3467,F5,554.75,0.25,62,139.29
3468,B-2,555.0,1.5,65,139.29
3469,F#3,555.0,1.5,65,139.29
3470,C#3,555.0,1.5,65,139.29
3471,E5,555.25,0.25,60,139.29
3472,F5,555.5,0.25,62,139.29
3473,E5,555.75,0.25,57,139.29
3474,C#4,556.25,0.25,66,139.29
3475,C#5,556.5,0.25,73,139.29
3476,G#2,556.5,0.5,53,139.29
3477,F3,556.5,0.5,53,139.29
3478,C3,556.5,0.5,53,139.29
3479,C#4,556.75,0.25,59,139.29
3480,C#5,557.0,0.25,71,139.29
3481,E3,557.0,1.0,54,139.29
3482,B-2,557.0,1.0,54,139.29
3483,G2,557.0,1.0,54,139.29
3484,C#4,557.25,0.25,58,139.29
3485,C#5,557.5,0.25,63,139.29
3486,C#4,557.75,0.25,59,139.29
3487,C3,558.0,1.0,51,139.29
3488,G#2,558.0,1.0,51,139.29
3489,F3,558.0,1.0,51,139.29
3490,C#4,558.25,0.25,60,139.29
3491,C#5,558.5,0.25,71,139.29
3492,C5,558.75,0.25,66,139.29
3493,B-4,559.0,0.25,68,139.29
3494,F#3,559.0,1.5,65,139.29
3495,C#3,559.0,1.5,65,139.29
3496,B-2,559.0,1.5,65,139.29
3497,G#4,559.25,0.25,66,139.29
3498,G4,559.5,0.25,65,139.29
3499,F4,559.75,0.25,58,139.29
3500,C#5,560.25,0.25,68,139.29
3501,C#6,560.5,0.25,75,139.29
3502,C3,560.5,0.5,53,139.29
3503,F3,560.5,0.5,53,139.29
3504,G#2,560.5,0.5,53,139.29
3505,C#5,560.75,0.25,67,139.29
3506,C#6,561.0,0.25,74,139.29
3507,E3,561.0,1.0,57,139.29
3508,B-2,561.0,1.0,57,139.29
3509,G2,561.0,1.0,57,139.29
3510,C#5,561.25,0.25,67,139.29
3511,C#6,561.5,0.25,69,139.29
3512,C#5,561.75,0.25,60,139.29
3513,G#2,562.0,1.0,51,139.29
3514,F3,562.0,1.0,51,139.29
3515,C3,562.0,1.0,51,139.29
3516,C#5,562.25,0.25,61,139.29
3517,C#6,562.5,0.25,73,139.29
3518,C6,562.75,0.25,66,139.29
3519,B-5,563.0,0.25,70,139.29
3520,B-2,563.0,1.5,65,139.29
3521,F#3,563.0,1.5,65,139.29
3522,C#3,563.0,1.5,65,139.29
3523,G#5,563.25,0.25,68,139.29
3524,G5,563.5,0.25,67,139.29
3525,F5,563.75,0.25,65,139.29
3526,C#4,564.25,0.25,66,139.29
3527,C#5,564.5,0.25,73,139.29
3528,G#2,564.5,0.5,53,139.29
3529,C3,564.5,0.5,53,139.29
3530,F3,564.5,0.5,53,139.29
3531,C#4,564.75,0.25,66,139.29
3532,C#5,565.0,0.25,73,139.29
3533,E3,565.0,1.0,58,139.29
3534,B-2,565.0,1.0,58,139.29
3535,G2,565.0,1.0,58,139.29
3536,C#4,565.25,0.25,66,139.29
3537,C#5,565.5,0.25,68,139.29
3538,C#4,565.75,0.25,61,139.29
3539,F2,566.0,1.0,52,139.29
3540,C#3,566.0,1.0,52,139.29
3541,G#2,566.0,1.0,52,139.29
3542,C#5,566.25,0.25,68,139.29
3543,C#4,566.5,0.25,60,139.29
3544,C#5,566.75,0.25,68,139.29
3545,E2,567.0,1.0,56,139.29
3546,C3,567.0,1.0,56,139.29
3547,G2,567.0,1.0,56,139.29
3548,C#6,567.25,0.25,78,139.29
3549,C#5,567.5,0.25,69,139.29
3550,C#6,567.75,0.25,75,139.29
3551,B2,568.0,1.0,56,139.29
3552,D2,568.0,1.0,56,139.29
3553,G#2,568.0,1.0,56,139.29
3554,F2,568.0,1.0,56,139.29
3555,C6,568.25,0.25,76,139.29
3556,C5,568.5,0.25,71,139.29
3557,C6,568.75,0.25,75,139.29
3558,B-2,569.0,1.0,60,139.29
3559,E2,569.0,1.0,60,139.29
3560,G2,569.0,1.0,60,139.29
3561,B5,569.25,0.25,77,139.29
3562,B4,569.5,0.25,71,139.29
3563,B5,569.75,0.25,74,139.29
3564,G#2,570.0,1.0,67,139.29
3565,F2,570.0,1.0,67,139.29
3566,B-5,570.25,0.25,78,139.29
3567,B-4,570.5,0.25,69,139.29
3568,B-5,570.75,0.25,77,139.29
3569,B1,571.0,2.0,66,139.29
3570,G#2,571.0,1.0,66,139.29
3571,G#5,571.25,0.25,77,139.29
3572,G#4,571.5,0.25,71,139.29
3573,C5,571.5,0.25,71,139.29
3574,G#5,571.75,0.25,77,139.29
3575,F#2,572.0,1.0,64,139.29
3576,G#5,572.25,0.25,75,139.29
3577,D5,572.5,0.25,68,139.29
3578,G#4,572.5,0.25,68,139.29
3579,G#5,572.75,0.25,75,139.29
3580,C2,573.0,2.0,61,139.29
3581,F2,573.0,1.0,61,139.29
3582,G5,573.25,0.25,73,139.29
3583,D5,573.5,0.25,66,139.29
3584,G4,573.5,0.25,66,139.29
3585,G5,573.75,0.25,73,139.29
3586,E2,574.0,1.0,59,139.29
3587,F5,574.25,0.25,71,139.29
3588,G#4,574.5,0.25,66,139.29
3589,F4,574.5,0.25,66,139.29
3590,F5,574.75,0.25,71,139.29
3591,F1,575.0,0.5,62,139.29
3592,G#1,575.0,0.5,62,139.29
3593,C2,575.0,0.5,62,139.29
3594,F2,575.0,0.5,62,139.29
3595,E5,575.25,0.25,72,139.29
3596,G4,575.5,0.25,66,139.29
3597,E4,575.5,0.25,66,139.29
3598,E5,575.75,0.25,69,139.29
3599,F4,576.0,0.25,69,139.29
3600,G#4,576.0,0.25,69,139.29
3601,F5,576.0,0.25,69,139.29
3602,C4,576.25,0.25,74,139.29
3603,C3,576.25,0.25,59,139.29
3604,F4,576.5,0.25,76,139.29
3605,F3,576.5,0.25,62,139.29
3606,G#4,576.75,0.25,78,139.29
3607,G#3,576.75,0.25,64,139.29
3608,C5,577.0,0.25,80,139.29
3609,C4,577.0,0.25,70,139.29
3610,C#5,577.25,0.25,76,139.29
3611,C#4,577.25,0.25,64,139.29
3612,C5,577.5,0.25,76,139.29
3613,C4,577.5,0.25,64,139.29
3614,B-4,577.75,0.25,76,139.29
3615,B-3,577.75,0.25,64,139.29
3616,G#4,578.0,0.25,77,139.29
3617,G#3,578.0,0.25,70,139.29
3618,B-4,578.25,0.25,71,139.29
3619,G3,578.25,0.25,63,139.29
3620,G#4,578.5,0.25,72,139.29
3621,F3,578.5,0.25,63,139.29
3622,G4,578.75,0.25,72,139.29
3623,E-3,578.75,0.25,63,139.29
3624,F4,579.0,0.25,78,139.29
3625,C#3,579.0,0.25,67,139.29
3626,E-4,579.25,0.25,73,139.29
3627,C3,579.25,0.25,60,139.29
3628,C#4,579.5,0.25,73,139.29
3629,B-2,579.5,0.25,60,139.29
3630,C4,579.75,0.25,72,139.29
3631,G#2,579.75,0.25,60,139.29
3632,B-3,580.0,0.25,75,139.29
3633,G2,580.0,0.25,71,139.29
3634,G#3,580.25,0.25,70,139.29
3635,G#2,580.25,0.25,65,139.29
3636,F#3,580.5,0.25,70,139.29
3637,B-2,580.5,0.25,73,139.29
3638,F3,580.75,0.25,70,139.29
3639,G#2,580.75,0.25,69,139.29
3640,E3,581.0,0.5,73,139.29
3641,G2,581.0,0.25,73,139.29
3642,F2,581.25,0.25,73,139.29
3643,E2,581.5,0.25,72,139.29
3644,C3,581.5,0.375,72,139.29
3645,E3,581.5,0.375,72,139.29
3646,F#3,581.5,0.375,72,139.29
3647,C4,581.5,0.375,72,139.29
3648,D2,581.75,0.25,72,139.29
3649,C2,582.0,0.25,71,139.29
3650,C3,582.0,0.375,67,139.29
3651,E3,582.0,0.375,67,139.29
3652,B-3,582.0,0.375,67,139.29
3653,C4,582.0,0.375,67,139.29
3654,B-1,582.25,0.25,71,139.29
3655,G#1,582.5,0.25,70,139.29
3656,C3,582.5,0.375,66,139.29
3657,E3,582.5,0.375,66,139.29
3658,B-3,582.5,0.375,66,139.29
3659,C4,582.5,0.375,66,139.29
3660,G1,582.75,0.25,70,139.29
3661,C3,583.0,0.375,66,139.29
3662,E3,583.0,0.375,66,139.29
3663,B-3,583.0,0.375,66,139.29
3664,C4,583.0,0.375,66,139.29
3665,F1,583.0,0.5,70,139.29
3666,C2,583.0,0.5,70,139.29
3667,F2,583.0,0.5,70,139.29
3668,G#1,583.0,0.5,70,139.29
3669,C3,583.5,0.375,66,139.29
3670,E3,583.5,0.375,66,139.29
3671,B-3,583.5,0.375,66,139.29
3672,C4,583.5,0.375,66,139.29
3673,C3,584.0,0.25,77,139.29
3674,F3,584.0,0.25,77,139.29
3675,G#3,584.0,0.25,77,139.29
3676,C4,584.0,0.25,77,139.29
3677,C5,584.25,0.25,74,139.29
3678,C4,584.25,0.25,59,139.29
3679,F5,584.5,0.25,76,139.29
3680,F4,584.5,0.25,62,139.29
3681,G#5,584.75,0.25,78,139.29
3682,G#4,584.75,0.25,64,139.29
3683,C6,585.0,0.25,80,139.29
3684,C5,585.0,0.25,70,139.29
3685,C#6,585.25,0.25,76,139.29
3686,C#5,585.25,0.25,64,139.29
3687,C6,585.5,0.25,76,139.29
3688,C5,585.5,0.25,64,139.29
3689,B-5,585.75,0.25,76,139.29
3690,B-4,585.75,0.25,64,139.29
3691,G#5,586.0,0.25,77,139.29
3692,G#4,586.0,0.25,70,139.29
3693,B-5,586.25,0.25,71,139.29
3694,G4,586.25,0.25,63,139.29
3695,G#5,586.5,0.25,72,139.29
3696,F4,586.5,0.25,63,139.29
3697,G5,586.75,0.25,72,139.29
3698,E-4,586.75,0.25,63,139.29
3699,F5,587.0,0.25,78,139.29
3700,C#4,587.0,0.25,67,139.29
3701,E-5,587.25,0.25,73,139.29
3702,C4,587.25,0.25,60,139.29
3703,C#5,587.5,0.25,73,139.29
3704,B-3,587.5,0.25,60,139.29
3705,C5,587.75,0.25,72,139.29
3706,G#3,587.75,0.25,60,139.29
3707,B-4,588.0,0.25,75,139.29
3708,G3,588.0,0.25,71,139.29
3709,G#4,588.25,0.25,70,139.29
3710,G#3,588.25,0.25,65,139.29
3711,G4,588.5,0.25,70,139.29
3712,B-3,588.5,0.25,73,139.29
3713,F4,588.75,0.25,70,139.29
3714,G#3,588.75,0.25,69,139.29
3715,E4,589.0,0.5,73,139.29
3716,G3,589.0,0.25,73,139.29
3717,F3,589.25,0.25,73,139.29
3718,E3,589.5,0.25,72,139.29
3719,C4,589.5,0.375,70,139.29
3720,E4,589.5,0.375,70,139.29
3721,G4,589.5,0.375,70,139.29
3722,C5,589.5,0.375,70,139.29
3723,D3,589.75,0.25,72,139.29
3724,C3,590.0,0.25,71,139.29
3725,C4,590.0,0.375,64,139.29
3726,E4,590.0,0.375,64,139.29
3727,B-4,590.0,0.375,64,139.29
3728,C5,590.0,0.375,64,139.29
3729,B-2,590.25,0.25,71,139.29
3730,G#2,590.5,0.25,70,139.29
3731,C4,590.5,0.375,62,139.29
3732,E4,590.5,0.375,62,139.29
3733,B-4,590.5,0.375,62,139.29
3734,C5,590.5,0.375,62,139.29
3735,G2,590.75,0.25,70,139.29
3736,F2,591.0,0.25,67,139.29
3737,C4,591.0,0.375,64,139.29
3738,E4,591.0,0.375,64,139.29
3739,B-4,591.0,0.375,64,139.29
3740,C5,591.0,0.375,64,139.29
3741,G2,591.25,0.25,60,139.29
3742,G#2,591.5,0.25,60,139.29
3743,C4,591.5,0.375,63,139.29
3744,E4,591.5,0.375,63,139.29
3745,B-4,591.5,0.375,63,139.29
3746,C5,591.5,0.375,63,139.29
3747,B-2,591.75,0.25,60,139.29
3748,C3,592.0,0.25,71,139.29
3749,C4,592.0,0.5,64,139.29
3750,F4,592.0,0.5,64,139.29
3751,G#4,592.0,0.5,64,139.29
3752,C5,592.0,0.5,64,139.29
3753,D3,592.25,0.25,65,139.29
3754,E3,592.5,0.25,73,139.29
3755,F3,592.75,0.25,69,139.29
3756,G3,593.0,0.25,73,139.29
3757,F3,593.25,0.25,73,139.29
3758,E3,593.5,0.25,72,139.29
3759,C5,593.5,0.375,76,139.29
3760,F5,593.5,0.375,76,139.29
3761,G#5,593.5,0.375,76,139.29
3762,C6,593.5,0.375,76,139.29
3763,D3,593.75,0.25,72,139.29
3764,C3,594.0,0.25,71,139.29
3765,C5,594.0,0.375,71,139.29
3766,E5,594.0,0.375,71,139.29
3767,B-5,594.0,0.375,71,139.29
3768,C6,594.0,0.375,71,139.29
3769,B-2,594.25,0.25,71,139.29
3770,G#2,594.5,0.25,70,139.29
3771,C5,594.5,0.375,68,139.29
3772,E5,594.5,0.375,68,139.29
3773,B-5,594.5,0.375,68,139.29
3774,C6,594.5,0.375,68,139.29
3775,G2,594.75,0.25,70,139.29
3776,F2,595.0,0.25,67,139.29
3777,C5,595.0,0.375,71,139.29
3778,E5,595.0,0.375,71,139.29
3779,B-5,595.0,0.375,71,139.29
3780,C6,595.0,0.375,71,139.29
3781,G2,595.25,0.25,60,139.29
3782,G#2,595.5,0.25,60,139.29
3783,C5,595.5,0.375,70,139.29
3784,E5,595.5,0.375,70,139.29
3785,B-5,595.5,0.375,70,139.29
3786,C6,595.5,0.375,70,139.29
3787,B-2,595.75,0.25,60,139.29
3788,C3,596.0,0.25,71,139.29
3789,C5,596.0,0.375,71,139.29
3790,F5,596.0,0.375,71,139.29
3791,G#5,596.0,0.375,71,139.29
3792,C6,596.0,0.375,71,139.29
3793,D3,596.25,0.25,65,139.29
3794,E3,596.5,0.25,73,139.29
3795,F3,596.75,0.25,69,139.29
3796,G3,597.0,0.25,73,139.29
3797,F3,597.25,0.25,73,139.29
3798,E3,597.5,0.25,72,139.29
3799,C4,597.5,0.375,70,139.29
3800,F4,597.5,0.375,70,139.29
3801,G#4,597.5,0.375,70,139.29
3802,C5,597.5,0.375,70,139.29
3803,D3,597.75,0.25,72,139.29
3804,C3,598.0,0.25,71,139.29
3805,C4,598.0,0.375,64,139.29
3806,E4,598.0,0.375,64,139.29
3807,B-4,598.0,0.375,64,139.29
3808,C5,598.0,0.375,64,139.29
3809,B-2,598.25,0.25,71,139.29
3810,G#2,598.5,0.25,70,139.29
3811,C4,598.5,0.375,62,139.29
3812,E4,598.5,0.375,62,139.29
3813,B-4,598.5,0.375,62,139.29
3814,C5,598.5,0.375,62,139.29
3815,G2,598.75,0.25,70,139.29
3816,F2,599.0,0.25,67,139.29
3817,C4,599.0,0.375,64,139.29
3818,E4,599.0,0.375,64,139.29
3819,B-4,599.0,0.375,64,139.29
3820,C5,599.0,0.375,64,139.29
3821,E2,599.25,0.25,60,139.29
3822,D2,599.5,0.25,60,139.29
3823,C4,599.5,0.375,63,139.29
3824,E4,599.5,0.375,63,139.29
3825,B-4,599.5,0.375,63,139.29
3826,C5,599.5,0.375,63,139.29
3827,C2,599.75,0.25,60,139.29
3828,B-1,600.0,0.25,64,139.29
3829,C4,600.0,0.375,68,139.29
3830,F4,600.0,0.375,68,139.29
3831,G#4,600.0,0.375,68,139.29
3832,C5,600.0,0.375,68,139.29
3833,G#1,600.25,0.25,59,139.29
3834,G1,600.5,0.25,65,139.29
3835,C5,600.5,0.375,74,139.29
3836,F5,600.5,0.375,74,139.29
3837,G#5,600.5,0.375,74,139.29
3838,C6,600.5,0.375,74,139.29
3839,F1,600.75,0.25,58,139.29
3840,G1,601.0,0.25,68,139.29
3841,C5,601.0,0.375,78,139.29
3842,F5,601.0,0.375,78,139.29
3843,G#5,601.0,0.375,78,139.29
3844,C6,601.0,0.375,78,139.29
3845,G#1,601.25,0.25,69,139.29
3846,B-1,601.5,0.25,71,139.29
3847,C5,601.5,0.375,77,139.29
3848,F5,601.5,0.375,77,139.29
3849,G#5,601.5,0.375,77,139.29
3850,C6,601.5,0.375,77,139.29
3851,C2,601.75,0.25,72,139.29
3852,D2,602.0,0.25,74,139.29
3853,C5,602.0,0.375,78,139.29
3854,E5,602.0,0.375,78,139.29
3855,B-5,602.0,0.375,78,139.29
3856,C6,602.0,0.375,78,139.29
3857,E2,602.25,0.25,75,139.29
3858,F2,602.5,0.25,77,139.29
3859,C5,602.5,0.375,76,139.29
3860,E5,602.5,0.375,76,139.29
3861,B-5,602.5,0.375,76,139.29
3862,C6,602.5,0.375,76,139.29
3863,G2,602.75,0.25,78,139.29
3864,C5,603.0,0.375,82,139.29
3865,E5,603.0,0.375,82,139.29
3866,B-5,603.0,0.375,82,139.29
3867,C6,603.0,0.375,82,139.29
3868,F#1,603.0,0.25,77,139.29
3869,F#2,603.0,0.25,77,139.29
3870,C5,603.5,0.375,82,139.29
3871,E5,603.5,0.375,82,139.29
3872,B-5,603.5,0.375,82,139.29
3873,C6,603.5,0.375,82,139.29
3874,C5,604.0,0.25,90,139.29
3875,E-5,604.0,0.25,90,139.29
3876,A5,604.0,0.25,90,139.29
3877,C6,604.0,0.25,90,139.29
3878,A3,604.25,0.25,70,139.29
3879,C4,604.5,0.25,71,139.29
3880,E-4,604.75,0.25,72,139.29
3881,F#4,605.0,0.25,72,139.29
3882,A4,605.25,0.25,72,139.29
3883,C5,605.5,0.25,73,139.29
3884,E-5,605.75,0.25,74,139.29
3885,F#5,606.0,0.25,75,139.29
3886,A5,606.25,0.25,77,139.29
3887,C6,606.5,0.25,79,139.29
3888,E-6,606.75,0.25,81,139.29
3889,F#6,607.0,0.25,83,139.29
3890,E-6,607.25,0.25,83,139.29
3891,C6,607.5,0.25,82,139.29
3892,A5,607.75,0.25,81,139.29
3893,F#5,608.0,0.25,81,139.29
3894,E-5,608.25,0.25,80,139.29
3895,C5,608.5,0.25,79,139.29
3896,A4,608.75,0.25,78,139.29
3897,A3,608.75,0.25,69,139.29
3898,F#4,609.0,0.25,77,139.29
3899,F#3,609.0,0.25,68,139.29
3900,E-4,609.25,0.25,76,139.29
3901,E-3,609.25,0.25,68,139.29
3902,C4,609.5,0.25,75,139.29
3903,C3,609.5,0.25,67,139.29
3904,A2,609.75,0.25,66,139.29
3905,F#2,610.0,0.25,66,139.29
3906,E-2,610.25,0.25,65,139.29
3907,C2,610.5,0.25,64,139.29
3908,A1,610.75,0.25,63,139.29
3909,F#1,611.0,0.25,60,139.29
3910,E-2,611.25,0.25,59,139.29
3911,C2,611.5,0.25,58,139.29
3912,A1,611.75,0.25,57,139.29
3913,F#1,612.0,0.25,56,139.29
3914,E-2,612.25,0.25,54,139.29
3915,C2,612.5,0.25,53,139.29
3916,A1,612.75,0.25,52,139.29
3917,F#1,613.0,0.25,51,139.29
3918,E-2,613.25,0.25,47,139.29
3919,C2,613.5,0.25,47,139.29
3920,A1,613.75,0.25,43,139.29
3921,F#1,614.0,0.25,47,139.29
3922,E-2,614.25,0.25,41,139.29
3923,C2,614.5,0.25,39,139.29
3924,A1,614.75,0.25,38,139.29
3925,F1,615.0,1.0,39,139.29
3926,A3,616.25,0.25,40,139.29
3927,C4,616.5,0.25,37,139.29
3928,E-4,616.75,0.25,37,139.29
3929,F#4,617.0,0.25,40,139.29
3930,G#4,617.25,0.25,38,139.29
3931,F#4,617.5,0.25,38,139.29
3932,F4,617.75,0.25,38,139.29
3933,E-4,618.0,0.25,40,139.29
3934,F4,618.25,0.25,37,139.29
3935,E-4,618.5,0.25,37,139.29
3936,C#4,618.75,0.25,37,139.29
3937,F2,618.75,0.25,35,139.29
3938,C4,619.0,0.25,40,139.29
3939,F1,619.0,1.0,40,139.29
3940,C#4,619.25,0.25,37,139.29
3941,E-4,619.5,0.25,37,139.29
3942,C4,619.75,0.25,37,139.29
3943,A3,620.25,0.25,40,139.29
3944,C4,620.5,0.25,37,139.29
3945,E-4,620.75,0.25,37,139.29
3946,F#4,621.0,0.25,40,139.29
3947,G#4,621.25,0.25,38,139.29
3948,F#4,621.5,0.25,38,139.29
3949,F4,621.75,0.25,38,139.29
3950,E-4,622.0,0.25,40,139.29
3951,F4,622.25,0.25,37,139.29
3952,E-4,622.5,0.25,37,139.29
3953,C#4,622.75,0.25,37,139.29
3954,F2,622.75,0.25,35,139.29
3955,C4,623.0,0.25,40,139.29
3956,F1,623.0,1.0,40,139.29
3957,C#4,623.25,0.25,37,139.29
3958,E-4,623.5,0.25,37,139.29
3959,C4,623.75,0.25,37,139.29
3960,A3,624.25,0.25,47,139.29
3961,C4,624.5,0.25,49,139.29
3962,A3,624.5,0.25,38,139.29
3963,E-4,624.75,0.25,50,139.29
3964,B-3,624.75,0.25,42,139.29
3965,F#4,625.0,0.25,52,139.29
3966,C4,625.0,0.25,49,139.29
3967,G#4,625.25,0.25,54,139.29
3968,C#4,625.25,0.25,42,139.29
3969,F#4,625.5,0.25,56,139.29
3970,C4,625.5,0.25,43,139.29
3971,F4,625.75,0.25,58,139.29
3972,B-3,625.75,0.25,43,139.29
3973,E-4,626.0,0.5,67,139.29
3974,A3,626.0,0.5,47,139.29
3975,E-4,626.5,0.25,47,139.29
3976,A3,626.5,0.25,41,139.29
3977,F4,626.75,0.25,49,139.29
3978,B-3,626.75,0.25,46,139.29
3979,F#4,627.0,0.25,52,139.29
3980,C4,627.0,0.25,53,139.29
3981,G#4,627.25,0.25,54,139.29
3982,C#4,627.25,0.25,42,139.29
3983,F#4,627.5,0.25,56,139.29
3984,C4,627.5,0.25,43,139.29
3985,F4,627.75,0.25,59,139.29
3986,B-3,627.75,0.25,43,139.29
3987,E-4,628.0,0.5,67,139.29
3988,A3,628.0,0.5,47,139.29
3989,E-4,628.5,0.25,50,139.29
3990,A3,628.5,0.25,43,139.29
3991,F4,628.75,0.25,50,139.29
3992,B-3,628.75,0.25,47,139.29
3993,F#4,629.0,0.25,56,139.29
3994,C4,629.0,0.25,52,139.29
3995,G#4,629.25,0.25,49,139.29
3996,C#4,629.25,0.25,42,139.29
3997,F#4,629.5,0.25,50,139.29
3998,C4,629.5,0.25,43,139.29
3999,F4,629.75,0.25,50,139.29
4000,B-3,629.75,0.25,43,139.29
4001,E-4,630.0,0.5,67,139.29
4002,A3,630.0,0.25,44,139.29
4003,F#3,630.25,0.25,42,139.29
4004,F3,630.5,0.25,41,139.29
4005,F#4,630.5,0.5,56,139.29
4006,F#5,630.5,0.5,56,139.29
4007,E-3,630.75,0.25,39,139.29
4008,C#3,631.0,2.0,44,139.29
4009,F4,631.0,0.5,60,139.29
4010,F5,631.0,0.5,60,139.29
4011,F3,631.25,0.25,32,139.29
4012,B-3,631.5,0.25,33,139.29
4013,A4,631.5,0.5,54,139.29
4014,A5,631.5,0.5,54,139.29
4015,F3,631.75,0.25,34,139.29
4016,B-3,632.0,0.25,38,139.29
4017,B-5,632.0,0.25,56,139.29
4018,B-4,632.0,0.25,56,139.29
4019,F4,632.25,0.25,51,139.29
4020,F3,632.25,0.25,37,139.29
4021,B-4,632.5,0.25,52,139.29
4022,B-3,632.5,0.25,38,139.29
4023,C#5,632.75,0.25,53,139.29
4024,F3,632.75,0.25,38,139.29
4025,F5,633.0,0.25,57,139.29
4026,B-3,633.0,0.25,39,139.29
4027,C#3,633.0,2.0,44,139.29
4028,F#5,633.25,0.25,55,139.29
4029,F3,633.25,0.25,39,139.29
4030,F5,633.5,0.25,56,139.29
4031,B-3,633.5,0.25,38,139.29
4032,E-5,633.75,0.25,55,139.29
4033,F3,633.75,0.25,38,139.29
4034,C#5,634.0,0.25,57,139.29
4035,B-3,634.0,0.25,38,139.29
4036,E-5,634.25,0.25,56,139.29
4037,F3,634.25,0.25,37,139.29
4038,C#5,634.5,0.25,56,139.29
4039,B-3,634.5,0.25,37,139.29
4040,C5,634.75,0.25,55,139.29
4041,F3,634.75,0.25,36,139.29
4042,B-4,635.0,0.25,54,139.29
4043,C#3,635.0,2.0,44,139.29
4044,C5,635.25,0.25,53,139.29
4045,F3,635.25,0.25,32,139.29
4046,C#5,635.5,0.25,53,139.29
4047,B-3,635.5,0.25,33,139.29
4048,B-4,635.75,0.25,52,139.29
4049,F3,635.75,0.25,34,139.29
4050,B-3,636.0,0.25,38,139.29
4051,F4,636.25,0.25,51,139.29
4052,F3,636.25,0.25,37,139.29
4053,B-4,636.5,0.25,52,139.29
4054,B-3,636.5,0.25,38,139.29
4055,C#5,636.75,0.25,53,139.29
4056,F3,636.75,0.25,38,139.29
4057,F5,637.0,0.25,57,139.29
4058,B-3,637.0,0.25,39,139.29
4059,C#3,637.0,2.0,44,139.29
4060,F#5,637.25,0.25,55,139.29
4061,F3,637.25,0.25,39,139.29
4062,F5,637.5,0.25,56,139.29
4063,B-3,637.5,0.25,38,139.29
4064,E-5,637.75,0.25,55,139.29
4065,F3,637.75,0.25,38,139.29
4066,C#5,638.0,0.25,57,139.29
4067,B-3,638.0,0.25,38,139.29
4068,E-5,638.25,0.25,56,139.29
4069,F3,638.25,0.25,37,139.29
4070,C#5,638.5,0.25,56,139.29
4071,B-3,638.5,0.25,37,139.29
4072,C5,638.75,0.25,55,139.29
4073,F3,638.75,0.25,36,139.29
4074,B-4,639.0,0.25,54,139.29
4075,E-3,639.0,2.0,44,139.29
4076,C5,639.25,0.25,53,139.29
4077,F#3,639.25,0.25,32,139.29
4078,C#5,639.5,0.25,53,139.29
4079,B3,639.5,0.25,33,139.29
4080,B-4,639.75,0.25,52,139.29
4081,F#3,639.75,0.25,35,139.29
4082,B3,640.0,0.25,39,139.29
4083,F#4,640.25,0.25,51,139.29
4084,F#3,640.25,0.25,39,139.29
4085,B4,640.5,0.25,53,139.29
4086,B3,640.5,0.25,40,139.29
4087,E-5,640.75,0.25,54,139.29
4088,F#3,640.75,0.25,41,139.29
4089,F#5,641.0,0.25,59,139.29
4090,B3,641.0,0.25,42,139.29
4091,E-3,641.0,2.0,44,139.29
4092,G#5,641.25,0.25,58,139.29
4093,F#3,641.25,0.25,43,139.29
4094,F#5,641.5,0.25,59,139.29
4095,B3,641.5,0.25,42,139.29
4096,F5,641.75,0.25,59,139.29
4097,F#3,641.75,0.25,42,139.29
4098,E-5,642.0,0.25,62,139.29
4099,B3,642.0,0.25,43,139.29
4100,F5,642.25,0.25,62,139.29
4101,F#3,642.25,0.25,42,139.29
4102,E-5,642.5,0.25,62,139.29
4103,B3,642.5,0.25,45,139.29
4104,C#5,642.75,0.25,62,139.29
4105,F#3,642.75,0.25,42,139.29
4106,B4,643.0,0.25,62,139.29
4107,F3,643.0,2.0,46,139.29
4108,C#5,643.25,0.25,61,139.29
4109,B-3,643.25,0.25,46,139.29
4110,E-5,643.5,0.25,64,139.29
4111,C#4,643.5,0.25,44,139.29
4112,B4,643.75,0.25,61,139.29
4113,B-3,643.75,0.25,44,139.29
4114,B-4,644.0,0.25,68,139.29
4115,C#4,644.0,0.25,43,139.29
4116,C5,644.25,0.25,64,139.29
4117,B-3,644.25,0.25,42,139.29
4118,B-4,644.5,0.25,66,139.29
4119,C#4,644.5,0.25,41,139.29
4120,A4,644.75,0.25,64,139.29
4121,B-3,644.75,0.25,40,139.29
4122,B-4,645.0,0.25,62,139.29
4123,E-3,645.0,2.0,42,139.29
4124,C5,645.25,0.25,60,139.29
4125,F3,645.25,0.25,42,139.29
4126,C#5,645.5,0.25,59,139.29
4127,C4,645.5,0.25,41,139.29
4128,B-4,645.75,0.25,58,139.29
4129,F3,645.75,0.25,40,139.29
4130,A4,646.0,0.25,62,139.29
4131,C4,646.0,0.25,39,139.29
4132,B-4,646.25,0.25,61,139.29
4133,F3,646.25,0.25,38,139.29
4134,A4,646.5,0.25,60,139.29
4135,C4,646.5,0.25,38,139.29
4136,G4,646.75,0.25,58,139.29
4137,F3,646.75,0.25,36,139.29
4138,A4,647.0,0.25,56,139.29
4139,C#3,647.0,0.25,48,139.29
4140,B-4,647.25,0.25,55,139.29
4141,F4,647.25,0.25,48,139.29
4142,C5,647.5,0.25,54,139.29
4143,A4,647.75,0.25,53,139.29
4144,B-4,648.0,0.5,61,139.29
4145,B-3,648.0,1.0,58,139.29
4146,C#4,648.25,0.25,40,139.29
4147,B-4,648.5,0.25,57,139.29
4148,F4,648.5,0.25,41,139.29
4149,C#5,648.75,0.25,58,139.29
4150,C#4,648.75,0.25,41,139.29
4151,F5,649.0,0.25,62,139.29
4152,A3,649.0,1.0,63,139.29
4153,F#5,649.25,0.25,60,139.29
4154,C#4,649.25,0.25,42,139.29
4155,F5,649.5,0.25,61,139.29
4156,F4,649.5,0.25,42,139.29
4157,E-5,649.75,0.25,61,139.29
4158,C#4,649.75,0.25,42,139.29
4159,C#5,650.0,0.25,63,139.29
4160,B-3,650.0,1.0,55,139.29
4161,E-5,650.25,0.25,62,139.29
4162,C#4,650.25,0.25,41,139.29
4163,C#5,650.5,0.25,62,139.29
4164,F4,650.5,0.25,41,139.29
4165,C5,650.75,0.25,61,139.29
4166,C#4,650.75,0.25,41,139.29
4167,B-5,651.0,0.5,71,139.29
4168,B-4,651.0,0.25,71,139.29
4169,C#3,651.0,0.25,51,139.29
4170,C5,651.25,0.25,60,139.29
4171,F4,651.25,0.25,52,139.29
4172,C#5,651.5,0.25,61,139.29
4173,B-4,651.75,0.25,60,139.29
4174,A5,652.0,0.5,74,139.29
4175,B-3,652.0,1.0,68,139.29
4176,C#4,652.25,0.25,45,139.29
4177,B-4,652.5,0.25,63,139.29
4178,F4,652.5,0.25,47,139.29
4179,C#5,652.75,0.25,65,139.29
4180,C#4,652.75,0.25,48,139.29
4181,B-5,653.0,0.5,73,139.29
4182,F5,653.0,0.25,73,139.29
4183,A3,653.0,1.0,74,139.29
4184,F#5,653.25,0.25,68,139.29
4185,C#4,653.25,0.25,50,139.29
4186,F5,653.5,0.25,71,139.29
4187,F4,653.5,0.25,49,139.29
4188,E-5,653.75,0.25,70,139.29
4189,C#4,653.75,0.25,50,139.29
4190,C#5,654.0,0.25,73,139.29
4191,B-3,654.0,1.0,77,139.29
4192,E-5,654.25,0.25,72,139.29
4193,C#4,654.25,0.25,50,139.29
4194,C#5,654.5,0.25,74,139.29
4195,F4,654.5,0.25,51,139.29
4196,C5,654.75,0.25,74,139.29
4197,C#4,654.75,0.25,50,139.29
4198,B-5,655.0,0.5,88,139.29
4199,B-4,655.0,0.25,73,139.29
4200,E-3,655.0,0.25,70,139.29
4201,C5,655.25,0.25,73,139.29
4202,F#4,655.25,0.25,55,139.29
4203,B4,655.25,0.25,55,139.29
4204,C#5,655.5,0.25,74,139.29
4205,E-4,655.5,0.25,59,139.29
4206,B-4,655.75,0.25,73,139.29
4207,F#4,655.75,0.25,55,139.29
4208,B4,655.75,0.25,55,139.29
4209,E-4,656.0,0.25,59,139.29
4210,B4,656.0,0.25,88,139.29
4211,B5,656.0,0.25,88,139.29
4212,F#5,656.25,0.25,74,139.29
4213,F#4,656.25,0.25,55,139.29
4214,B4,656.25,0.25,55,139.29
4215,B5,656.5,0.25,76,139.29
4216,E-4,656.5,0.25,59,139.29
4217,E-6,656.75,0.25,78,139.29
4218,F#4,656.75,0.25,56,139.29
4219,B4,656.75,0.25,56,139.29
4220,F#6,657.0,0.25,80,139.29
4221,E-4,657.0,0.25,59,139.29
4222,G#6,657.25,0.25,76,139.29
4223,F#4,657.25,0.25,55,139.29
4224,B4,657.25,0.25,55,139.29
4225,F#6,657.5,0.25,76,139.29
4226,E-4,657.5,0.25,59,139.29
4227,F6,657.75,0.25,76,139.29
4228,F#4,657.75,0.25,55,139.29
4229,B4,657.75,0.25,55,139.29
4230,E-6,658.0,0.25,77,139.29
4231,E-4,658.0,0.25,59,139.29
4232,F6,658.25,0.25,71,139.29
4233,F#4,658.25,0.25,55,139.29
4234,B4,658.25,0.25,55,139.29
4235,E-6,658.5,0.25,72,139.29
4236,E-4,658.5,0.25,59,139.29
4237,C#6,658.75,0.25,72,139.29
4238,F#4,658.75,0.25,56,139.29
4239,B4,658.75,0.25,56,139.29
4240,B5,659.0,0.25,78,139.29
4241,F4,659.0,0.25,59,139.29
4242,C#6,659.25,0.25,73,139.29
4243,A4,659.25,0.25,55,139.29
4244,C5,659.25,0.25,55,139.29
4245,E-5,659.25,0.25,55,139.29
4246,B5,659.5,0.25,73,139.29
4247,F4,659.5,0.25,59,139.29
4248,B-5,659.75,0.25,72,139.29
4249,A4,659.75,0.25,55,139.29
4250,C5,659.75,0.25,55,139.29
4251,E-5,659.75,0.25,55,139.29
4252,A5,660.0,0.25,77,139.29
4253,F4,660.0,0.25,59,139.29
4254,C6,660.25,0.25,71,139.29
4255,A4,660.25,0.25,55,139.29
4256,C5,660.25,0.25,55,139.29
4257,E-5,660.25,0.25,55,139.29
4258,E-6,660.5,0.25,72,139.29
4259,F4,660.5,0.25,59,139.29
4260,C#6,660.75,0.25,72,139.29
4261,A4,660.75,0.25,56,139.29
4262,C5,660.75,0.25,56,139.29
4263,E-5,660.75,0.25,56,139.29
4264,C6,661.0,0.25,78,139.29
4265,F4,661.0,0.25,59,139.29
4266,C#6,661.25,0.25,73,139.29
4267,A4,661.25,0.25,55,139.29
4268,C6,661.5,0.25,73,139.29
4269,F4,661.5,0.25,59,139.29
4270,B-5,661.75,0.25,72,139.29
4271,A4,661.75,0.25,55,139.29
4272,A5,662.0,0.25,77,139.29
4273,F3,662.0,0.25,59,139.29
4274,B-5,662.25,0.25,71,139.29
4275,F4,662.25,0.25,50,139.29
4276,A5,662.5,0.25,72,139.29
4277,F3,662.5,0.25,57,139.29
4278,F#5,662.75,0.25,72,139.29
4279,F4,662.75,0.25,49,139.29
4280,F5,663.0,0.25,74,139.29
4281,B-2,663.0,0.5,59,139.29
4282,E-5,663.25,0.25,71,139.29
4283,C#5,663.5,0.25,71,139.29
4284,B-3,663.5,0.25,44,139.29
4285,C#4,663.5,0.25,44,139.29
4286,C5,663.75,0.25,69,139.29
4287,F4,663.75,0.25,38,139.29
4288,B-4,664.0,0.25,73,139.29
4289,B-3,664.0,0.25,44,139.29
4290,C#4,664.0,0.25,44,139.29
4291,F4,664.25,0.25,38,139.29
4292,F5,664.5,1.0,74,139.29
4293,C#4,664.5,0.25,44,139.29
4294,B-3,664.5,0.25,44,139.29
4295,F4,664.75,0.25,38,139.29
4296,B-3,665.0,0.25,44,139.29
4297,C#4,665.0,0.25,44,139.29
4298,F4,665.25,0.25,38,139.29
4299,F5,665.5,0.25,61,139.29
4300,C#4,665.5,0.25,44,139.29
4301,B-3,665.5,0.25,44,139.29
4302,E4,665.75,0.25,38,139.29
4303,F5,666.0,0.25,61,139.29
4304,B-3,666.0,0.25,44,139.29
4305,C#4,666.0,0.25,44,139.29
4306,E4,666.25,0.25,38,139.29
4307,F#5,666.5,1.0,72,139.29
4308,B-3,666.5,0.25,44,139.29
4309,C#4,666.5,0.25,44,139.29
4310,E4,666.75,0.25,38,139.29
4311,A3,667.0,0.25,44,139.29
4312,C4,667.0,0.25,44,139.29
4313,E4,667.25,0.25,38,139.29
4314,F#5,667.5,0.25,60,139.29
4315,C4,667.5,0.25,44,139.29
4316,A3,667.5,0.25,44,139.29
4317,F4,667.75,0.25,38,139.29
4318,F#5,668.0,0.25,59,139.29
4319,A3,668.0,0.25,44,139.29
4320,C4,668.0,0.25,44,139.29
4321,F4,668.25,0.25,38,139.29
4322,F5,668.5,1.0,73,139.29
4323,A3,668.5,0.25,44,139.29
4324,C4,668.5,0.25,44,139.29
4325,F4,668.75,0.25,38,139.29
4326,A3,669.0,0.25,44,139.29
4327,C4,669.0,0.25,44,139.29
4328,F4,669.25,0.25,38,139.29
4329,F5,669.5,0.25,63,139.29
4330,C4,669.5,0.25,44,139.29
4331,A3,669.5,0.25,44,139.29
4332,F4,669.75,0.25,38,139.29
4333,F5,670.0,0.25,65,139.29
4334,A3,670.0,0.25,44,139.29
4335,C4,670.0,0.25,44,139.29
4336,F4,670.25,0.25,38,139.29
4337,C5,670.5,0.25,61,139.29
4338,A3,670.5,0.25,44,139.29
4339,C4,670.5,0.25,44,139.29
4340,F4,670.75,0.25,38,139.29
4341,C#5,671.0,0.25,61,139.29
4342,C#4,671.0,0.25,44,139.29
4343,B-3,671.0,0.25,44,139.29
4344,F4,671.25,0.25,38,139.29
4345,E-5,671.5,0.25,61,139.29
4346,B-3,671.5,0.25,58,139.29
4347,C#4,671.5,0.25,58,139.29
4348,F4,671.75,0.25,51,139.29
4349,C#5,672.0,0.25,65,139.29
4350,B-3,672.0,0.25,58,139.29
4351,C#4,672.0,0.25,58,139.29
4352,F4,672.25,0.25,51,139.29
4353,F6,672.5,1.0,76,139.29
4354,F5,672.5,1.0,76,139.29
4355,C#4,672.5,0.25,58,139.29
4356,B-3,672.5,0.25,58,139.29
4357,F4,672.75,0.25,51,139.29
4358,B-3,673.0,0.25,58,139.29
4359,C#4,673.0,0.25,58,139.29
4360,F4,673.25,0.25,51,139.29
4361,F6,673.5,0.25,71,139.29
4362,F5,673.5,0.25,71,139.29
4363,C#4,673.5,0.25,58,139.29
4364,B-3,673.5,0.25,58,139.29
4365,E4,673.75,0.25,51,139.29
4366,F6,674.0,0.25,71,139.29
4367,F5,674.0,0.25,71,139.29
4368,B-3,674.0,0.25,58,139.29
4369,C#4,674.0,0.25,58,139.29
4370,E4,674.25,0.25,51,139.29
4371,F#6,674.5,1.0,78,139.29
4372,F#5,674.5,1.0,78,139.29
4373,B-3,674.5,0.25,58,139.29
4374,C#4,674.5,0.25,58,139.29
4375,E4,674.75,0.25,51,139.29
4376,A3,675.0,0.25,58,139.29
4377,C4,675.0,0.25,58,139.29
4378,E4,675.25,0.25,51,139.29
4379,F#6,675.5,0.25,70,139.29
4380,F#5,675.5,0.25,70,139.29
4381,C4,675.5,0.25,58,139.29
4382,A3,675.5,0.25,58,139.29
4383,F4,675.75,0.25,51,139.29
4384,F#6,676.0,0.25,69,139.29
4385,F#5,676.0,0.25,69,139.29
4386,A3,676.0,0.25,58,139.29
4387,C4,676.0,0.25,58,139.29
4388,F4,676.25,0.25,51,139.29
4389,F6,676.5,1.0,78,139.29
4390,F5,676.5,1.0,78,139.29
4391,A3,676.5,0.25,58,139.29
4392,C4,676.5,0.25,58,139.29
4393,F4,676.75,0.25,51,139.29
4394,A3,677.0,0.25,58,139.29
4395,C4,677.0,0.25,58,139.29
4396,F4,677.25,0.25,51,139.29
4397,F6,677.5,0.25,74,139.29
4398,F5,677.5,0.25,74,139.29
4399,C4,677.5,0.25,58,139.29
4400,A3,677.5,0.25,58,139.29
4401,F4,677.75,0.25,51,139.29
4402,F6,678.0,0.25,76,139.29
4403,F5,678.0,0.25,76,139.29
4404,A3,678.0,0.25,58,139.29
4405,C4,678.0,0.25,58,139.29
4406,F4,678.25,0.25,51,139.29
4407,C6,678.5,0.25,71,139.29
4408,C5,678.5,0.25,71,139.29
4409,A3,678.5,0.25,58,139.29
4410,C4,678.5,0.25,58,139.29
4411,F4,678.75,0.25,51,139.29
4412,C#6,679.0,0.25,71,139.29
4413,C#5,679.0,0.25,71,139.29
4414,C#4,679.0,0.25,58,139.29
4415,B-3,679.0,0.25,58,139.29
4416,F4,679.25,0.25,51,139.29
4417,E-6,679.5,0.25,71,139.29
4418,E-5,679.5,0.25,71,139.29
4419,E3,679.5,0.25,44,139.29
4420,G3,679.5,0.25,44,139.29
4421,C4,679.75,0.25,38,139.29
4422,C#6,680.0,0.25,76,139.29
4423,C#5,680.0,0.25,76,139.29
4424,E3,680.0,0.25,44,139.29
4425,G3,680.0,0.25,44,139.29
4426,C4,680.25,0.25,38,139.29
4427,C5,680.5,1.0,72,139.29
4428,G3,680.5,0.25,44,139.29
4429,E3,680.5,0.25,44,139.29
4430,C4,680.75,0.25,38,139.29
4431,F3,681.0,0.25,44,139.29
4432,G#3,681.0,0.25,44,139.29
4433,C4,681.25,0.25,38,139.29
4434,C5,681.5,0.25,61,139.29
4435,G#3,681.5,0.25,44,139.29
4436,F3,681.5,0.25,44,139.29
4437,D4,681.75,0.25,38,139.29
4438,C5,682.0,0.25,61,139.29
4439,F3,682.0,0.25,44,139.29
4440,G#3,682.0,0.25,44,139.29
4441,D4,682.25,0.25,38,139.29
4442,B4,682.5,1.0,72,139.29
4443,F3,682.5,0.25,44,139.29
4444,G#3,682.5,0.25,44,139.29
4445,D4,682.75,0.25,38,139.29
4446,E3,683.0,0.25,44,139.29
4447,G3,683.0,0.25,44,139.29
4448,D4,683.25,0.25,38,139.29
4449,B4,683.5,0.25,60,139.29
4450,G3,683.5,0.25,44,139.29
4451,E3,683.5,0.25,44,139.29
4452,C4,683.75,0.25,38,139.29
4453,B4,684.0,0.25,59,139.29
4454,E3,684.0,0.25,44,139.29
4455,G3,684.0,0.25,44,139.29
4456,C4,684.25,0.25,38,139.29
4457,C5,684.5,1.0,71,139.29
4458,E3,684.5,0.25,44,139.29
4459,G3,684.5,0.25,44,139.29
4460,C4,684.75,0.25,38,139.29
4461,E3,685.0,0.25,44,139.29
4462,G3,685.0,0.25,44,139.29
4463,C4,685.25,0.25,38,139.29
4464,C5,685.5,0.25,63,139.29
4465,G3,685.5,0.25,44,139.29
4466,E3,685.5,0.25,44,139.29
4467,C4,685.75,0.25,38,139.29
4468,C5,686.0,0.25,65,139.29
4469,E3,686.0,0.25,44,139.29
4470,G3,686.0,0.25,44,139.29
4471,C4,686.25,0.25,38,139.29
4472,G4,686.5,0.25,61,139.29
4473,E3,686.5,0.25,44,139.29
4474,G3,686.5,0.25,44,139.29
4475,C4,686.75,0.25,38,139.29
4476,G#4,687.0,0.25,61,139.29
4477,G#3,687.0,0.25,44,139.29
4478,F3,687.0,0.25,44,139.29
4479,C4,687.25,0.25,38,139.29
4480,B-4,687.5,0.25,61,139.29
4481,F3,687.5,0.25,58,139.29
4482,G#3,687.5,0.25,58,139.29
4483,C4,687.75,0.25,51,139.29
4484,G#4,688.0,0.25,65,139.29
4485,F3,688.0,0.25,58,139.29
4486,G#3,688.0,0.25,58,139.29
4487,C4,688.25,0.25,51,139.29
4488,C6,688.5,1.0,76,139.29
4489,C5,688.5,1.0,76,139.29
4490,G#3,688.5,0.25,58,139.29
4491,F3,688.5,0.25,58,139.29
4492,C4,688.75,0.25,51,139.29
4493,F3,689.0,0.25,58,139.29
4494,G#3,689.0,0.25,58,139.29
4495,C4,689.25,0.25,51,139.29
4496,C6,689.5,0.25,71,139.29
4497,C5,689.5,0.25,71,139.29
4498,G#3,689.5,0.25,58,139.29
4499,F3,689.5,0.25,58,139.29
4500,D4,689.75,0.25,51,139.29
4501,C6,690.0,0.25,71,139.29
4502,C5,690.0,0.25,71,139.29
4503,F3,690.0,0.25,58,139.29
4504,G#3,690.0,0.25,58,139.29
4505,D4,690.25,0.25,51,139.29
4506,B5,690.5,1.0,78,139.29
4507,B4,690.5,1.0,78,139.29
4508,F3,690.5,0.25,58,139.29
4509,G#3,690.5,0.25,58,139.29
4510,D4,690.75,0.25,51,139.29
4511,E3,691.0,0.25,58,139.29
4512,G3,691.0,0.25,58,139.29
4513,D4,691.25,0.25,51,139.29
4514,B5,691.5,0.25,70,139.29
4515,B4,691.5,0.25,70,139.29
4516,G3,691.5,0.25,58,139.29
4517,E3,691.5,0.25,58,139.29
4518,C4,691.75,0.25,51,139.29
4519,B5,692.0,0.25,69,139.29
4520,B4,692.0,0.25,69,139.29
4521,E3,692.0,0.25,58,139.29
4522,G3,692.0,0.25,58,139.29
4523,C4,692.25,0.25,51,139.29
4524,C6,692.5,1.0,78,139.29
4525,C5,692.5,1.0,78,139.29
4526,E3,692.5,0.25,58,139.29
4527,G3,692.5,0.25,58,139.29
4528,C4,692.75,0.25,51,139.29
4529,E3,693.0,0.25,58,139.29
4530,G3,693.0,0.25,58,139.29
4531,C4,693.25,0.25,51,139.29
4532,C6,693.5,0.25,74,139.29
4533,C5,693.5,0.25,74,139.29
4534,G3,693.5,0.25,58,139.29
4535,E3,693.5,0.25,58,139.29
4536,C4,693.75,0.25,51,139.29
4537,C6,694.0,0.25,76,139.29
4538,C5,694.0,0.25,76,139.29
4539,E3,694.0,0.25,58,139.29
4540,G3,694.0,0.25,58,139.29
4541,C4,694.25,0.25,51,139.29
4542,G5,694.5,0.25,71,139.29
4543,G4,694.5,0.25,71,139.29
4544,E3,694.5,0.25,58,139.29
4545,G3,694.5,0.25,58,139.29
4546,C4,694.75,0.25,51,139.29
4547,G#5,695.0,0.25,71,139.29
4548,G#4,695.0,0.25,71,139.29
4549,F2,695.0,1.0,64,139.29
4550,G#2,695.0,1.0,64,139.29
4551,C3,695.0,1.0,64,139.29
4552,F3,695.0,1.0,64,139.29
4553,B-5,695.5,0.25,71,139.29
4554,B-4,695.5,0.25,71,139.29
4555,G#5,696.0,0.25,76,139.29
4556,G#4,696.0,0.25,76,139.29
4557,C4,696.25,0.25,70,139.29
4558,C3,696.25,0.25,56,139.29
4559,F4,696.5,0.25,72,139.29
4560,F3,696.5,0.25,58,139.29
4561,G#4,696.75,0.25,74,139.29
4562,G#3,696.75,0.25,60,139.29
4563,C5,697.0,0.25,76,139.29
4564,C4,697.0,0.25,66,139.29
4565,C#5,697.25,0.25,72,139.29
4566,C#4,697.25,0.25,60,139.29
4567,C5,697.5,0.25,72,139.29
4568,C4,697.5,0.25,61,139.29
4569,B-4,697.75,0.25,72,139.29
4570,B-3,697.75,0.25,61,139.29
4571,G#4,698.0,0.25,73,139.29
4572,G#3,698.0,0.25,67,139.29
4573,B-4,698.25,0.25,67,139.29
4574,B-3,698.25,0.25,60,139.29
4575,G#4,698.5,0.25,69,139.29
4576,C4,698.5,0.25,60,139.29
4577,G4,698.75,0.25,69,139.29
4578,G#3,698.75,0.25,60,139.29
4579,F4,699.0,0.25,75,139.29
4580,B-3,699.0,0.25,72,139.29
4581,G4,699.25,0.25,70,139.29
4582,C4,699.25,0.25,60,139.29
4583,G#4,699.5,0.25,70,139.29
4584,B-3,699.5,0.25,60,139.29
4585,F4,699.75,0.25,70,139.29
4586,G#3,699.75,0.25,60,139.29
4587,F#4,700.0,0.25,75,139.29
4588,F#3,700.0,0.25,68,139.29
4589,C#4,700.25,0.25,72,139.29
4590,C#3,700.25,0.25,57,139.29
4591,F#4,700.5,0.25,74,139.29
4592,F#3,700.5,0.25,60,139.29
4593,B-4,700.75,0.25,76,139.29
4594,B-3,700.75,0.25,62,139.29
4595,C#5,701.0,0.25,78,139.29
4596,C#4,701.0,0.25,69,139.29
4597,E-5,701.25,0.25,75,139.29
4598,E-4,701.25,0.25,63,139.29
4599,C#5,701.5,0.25,75,139.29
4600,C#4,701.5,0.25,63,139.29
4601,C5,701.75,0.25,75,139.29
4602,C4,701.75,0.25,63,139.29
4603,B-4,702.0,0.25,76,139.29
4604,B-3,702.0,0.25,69,139.29
4605,C5,702.25,0.25,70,139.29
4606,C4,702.25,0.25,62,139.29
4607,B-4,702.5,0.25,71,139.29
4608,C#4,702.5,0.25,62,139.29
4609,G#4,702.75,0.25,71,139.29
4610,B-3,702.75,0.25,62,139.29
4611,F#4,703.0,0.25,76,139.29
4612,C4,703.0,0.25,74,139.29
4613,G#4,703.25,0.25,73,139.29
4614,C#4,703.25,0.25,62,139.29
4615,B-4,703.5,0.25,73,139.29
4616,C4,703.5,0.25,63,139.29
4617,F#4,703.75,0.25,72,139.29
4618,B-3,703.75,0.25,63,139.29
4619,A4,704.0,0.25,77,139.29
4620,A3,704.0,0.25,70,139.29
4621,E-4,704.25,0.25,74,139.29
4622,E-3,704.25,0.25,59,139.29
4623,A4,704.5,0.25,76,139.29
4624,A3,704.5,0.25,62,139.29
4625,C5,704.75,0.25,78,139.29
4626,C4,704.75,0.25,65,139.29
4627,E-5,705.0,0.25,80,139.29
4628,E-4,705.0,0.25,71,139.29
4629,F5,705.25,0.25,76,139.29
4630,F4,705.25,0.25,65,139.29
4631,E-5,705.5,0.25,76,139.29
4632,E-4,705.5,0.25,65,139.29
4633,C#5,705.75,0.25,77,139.29
4634,C#4,705.75,0.25,65,139.29
4635,C5,706.0,0.25,78,139.29
4636,C4,706.0,0.25,72,139.29
4637,C#5,706.25,0.25,72,139.29
4638,C#4,706.25,0.25,64,139.29
4639,C5,706.5,0.25,73,139.29
4640,E-4,706.5,0.25,64,139.29
4641,B-4,706.75,0.25,73,139.29
4642,C4,706.75,0.25,64,139.29
4643,A4,707.0,0.25,80,139.29
4644,C#4,707.0,0.25,70,139.29
4645,B-4,707.25,0.25,75,139.29
4646,F3,707.25,0.25,59,139.29
4647,C5,707.5,0.25,75,139.29
4648,B-3,707.5,0.25,63,139.29
4649,A4,707.75,0.25,74,139.29
4650,C#4,707.75,0.25,66,139.29
4651,B-4,708.0,0.25,90,139.29
4652,F4,708.0,0.25,65,139.29
4653,F4,708.25,0.25,76,139.29
4654,F#4,708.25,0.25,65,139.29
4655,B-4,708.5,0.25,79,139.29
4656,F4,708.5,0.25,65,139.29
4657,C#5,708.75,0.25,82,139.29
4658,E-4,708.75,0.25,64,139.29
4659,F5,709.0,0.25,83,139.29
4660,C#4,709.0,0.25,64,139.29
4661,F#5,709.25,0.25,83,139.29
4662,C4,709.25,0.25,64,139.29
4663,F5,709.5,0.25,82,139.29
4664,B-3,709.5,0.25,63,139.29
4665,E-5,709.75,0.25,82,139.29
4666,G#3,709.75,0.25,63,139.29
4667,C#5,710.0,0.25,81,139.29
4668,F#3,710.0,0.25,62,139.29
4669,C5,710.25,0.25,81,139.29
4670,F3,710.25,0.25,62,139.29
4671,B-4,710.5,0.25,80,139.29
4672,E-3,710.5,0.25,62,139.29
4673,G#4,710.75,0.25,80,139.29
4674,C#3,710.75,0.25,61,139.29
4675,F#4,711.0,0.25,79,139.29
4676,C3,711.0,0.25,61,139.29
4677,F4,711.25,0.25,79,139.29
4678,B-2,711.25,0.25,61,139.29
4679,E-4,711.5,0.25,78,139.29
4680,G#2,711.5,0.25,60,139.29
4681,C#4,711.75,0.25,78,139.29
4682,F#2,711.75,0.25,60,139.29
4683,C4,712.0,0.25,77,139.29
4684,F2,712.0,0.25,59,139.29
4685,B-3,712.25,0.25,77,139.29
4686,E-2,712.25,0.25,59,139.29
4687,G#3,712.5,0.25,76,139.29
4688,C#2,712.5,0.25,59,139.29
4689,F#3,712.75,0.25,76,139.29
4690,C2,712.75,0.25,59,139.29
4691,F3,713.0,0.25,73,139.29
4692,B-1,713.0,0.25,59,139.29
4693,E-3,713.25,0.25,73,139.29
4694,C2,713.25,0.25,59,139.29
4695,C#3,713.5,0.25,74,139.29
4696,C#2,713.5,0.25,62,139.29
4697,C3,713.75,0.25,76,139.29
4698,C2,713.75,0.25,64,139.29
4699,B-2,714.0,0.25,78,139.29
4700,B-1,714.0,0.5,65,139.29
4701,C3,714.25,0.25,79,139.29
4702,C#3,714.5,0.25,81,139.29
4703,B1,714.5,0.5,72,139.29
4704,B-2,714.75,0.25,82,139.29
4705,B-2,715.0,0.5,82,139.29
4706,C2,715.0,0.25,89,139.29
4707,E2,715.5,0.25,76,139.29
4708,B2,715.5,0.5,80,139.29
4709,D3,715.5,0.5,80,139.29
4710,F3,715.5,0.5,80,139.29
4711,G#3,715.5,0.5,80,139.29
4712,C2,716.0,0.25,76,139.29
4713,C3,716.0,0.25,87,139.29
4714,E3,716.0,0.25,87,139.29
4715,G3,716.0,0.25,87,139.29
4716,C3,716.25,0.25,66,139.29
4717,C4,716.25,0.25,66,139.29
4718,F2,716.5,0.25,76,139.29
4719,C4,716.75,0.25,66,139.29
4720,C3,716.75,0.25,66,139.29
4721,C2,717.0,0.25,76,139.29
4722,C4,717.25,0.25,66,139.29
4723,C3,717.25,0.25,66,139.29
4724,G2,717.5,0.25,76,139.29
4725,C4,717.75,0.25,66,139.29
4726,C3,717.75,0.25,66,139.29
4727,C2,718.0,0.25,76,139.29
4728,C4,718.25,0.25,66,139.29
4729,C3,718.25,0.25,66,139.29
4730,G#2,718.5,0.25,76,139.29
4731,C4,718.75,0.25,66,139.29
4732,C3,718.75,0.25,66,139.29
4733,C2,719.0,0.25,74,139.29
4734,C4,719.25,0.25,66,139.29
4735,C3,719.25,0.25,66,139.29
4736,B-2,719.5,0.25,74,139.29
4737,C4,719.75,0.25,66,139.29
4738,C3,719.75,0.25,66,139.29
4739,C2,720.0,0.25,75,139.29
4740,C4,720.25,0.25,64,139.29
4741,C5,720.25,0.25,64,139.29
4742,G#2,720.5,0.25,76,139.29
4743,C4,720.75,0.25,64,139.29
4744,C5,720.75,0.25,64,139.29
4745,C2,721.0,0.25,77,139.29
4746,C4,721.25,0.25,65,139.29
4747,C5,721.25,0.25,65,139.29
4748,G2,721.5,0.25,78,139.29
4749,C4,721.75,0.25,66,139.29
4750,C5,721.75,0.25,66,139.29
4751,C2,722.0,0.25,79,139.29
4752,C4,722.25,0.25,64,139.29
4753,C5,722.25,0.25,64,139.29
4754,F2,722.5,0.25,80,139.29
4755,C4,722.75,0.25,64,139.29
4756,C5,722.75,0.25,64,139.29
4757,C2,723.0,0.25,81,139.29
4758,C4,723.25,0.25,65,139.29
4759,C5,723.25,0.25,65,139.29
4760,E2,723.5,0.25,82,139.29
4761,C4,723.75,0.25,66,139.29
4762,C5,723.75,0.25,66,139.29
4763,C2,724.0,0.25,82,139.29
4764,C5,724.25,0.25,67,139.29
4765,C6,724.25,0.25,67,139.29
4766,F2,724.5,0.25,83,139.29
4767,C5,724.75,0.25,68,139.29
4768,C6,724.75,0.25,68,139.29
4769,C2,725.0,0.25,84,139.29
4770,C5,725.25,0.25,69,139.29
4771,C6,725.25,0.25,69,139.29
4772,G2,725.5,0.25,85,139.29
4773,C5,725.75,0.25,70,139.29
4774,C6,725.75,0.25,70,139.29
4775,C2,726.0,0.25,86,139.29
4776,C5,726.25,0.25,71,139.29
4777,C6,726.25,0.25,71,139.29
4778,G#2,726.5,0.25,87,139.29
4779,C5,726.75,0.25,72,139.29
4780,C6,726.75,0.25,72,139.29
4781,C2,727.0,0.25,88,139.29
4782,C5,727.25,0.25,73,139.29
4783,C6,727.25,0.25,73,139.29
4784,A2,727.5,0.25,89,139.29
4785,C5,727.75,0.25,74,139.29
4786,C6,727.75,0.25,74,139.29
4787,C2,728.0,0.25,91,139.29
4788,C6,728.25,0.25,75,139.29
4789,C7,728.25,0.25,75,139.29
4790,B-2,728.5,0.25,92,139.29
4791,C6,728.75,0.25,76,139.29
4792,C7,728.75,0.25,76,139.29
4793,C2,729.0,0.25,94,139.29
4794,C6,729.25,0.25,78,139.29
4795,C7,729.25,0.25,78,139.29
4796,B2,729.5,0.25,96,139.29
4797,C6,729.75,0.25,81,139.29
4798,C7,729.75,0.25,81,139.29
4799,C2,730.0,0.25,99,139.29
4800,C6,730.25,0.25,82,139.29
4801,C7,730.25,0.25,82,139.29
4802,C3,730.5,0.25,101,139.29
4803,C6,730.75,0.25,84,139.29
4804,C7,730.75,0.25,84,139.29
4805,B-1,731.0,0.5,90,139.29
4806,C#2,731.0,0.5,90,139.29
4807,F#2,731.0,0.5,90,139.29
4808,B-2,731.0,0.5,90,139.29
4809,C#3,731.25,0.25,72,139.29
4810,C6,731.25,0.25,86,139.29
4811,C7,731.25,0.25,86,139.29
4812,F#3,731.5,0.25,75,139.29
4813,B-3,731.75,0.25,76,139.29
4814,C6,731.75,0.25,88,139.29
4815,C7,731.75,0.25,88,139.29
4816,C#4,732.0,0.25,90,139.29
4817,B-2,732.25,0.25,71,139.29
4818,C#3,732.5,0.25,74,139.29
4819,F#3,732.75,0.25,76,139.29
4820,B-3,733.0,0.25,91,139.29
4821,C#4,734.25,0.25,72,139.29
4822,B-3,734.25,0.25,73,139.29
4823,F#4,734.5,0.25,75,139.29
4824,C#4,734.5,0.25,76,139.29
4825,B-4,734.75,0.25,76,139.29
4826,F#4,734.75,0.25,78,139.29
4827,C#5,735.0,0.25,88,139.29
4828,B-4,735.0,0.25,86,139.29
4829,C#5,736.25,0.25,77,139.29
4830,F#5,736.5,0.25,79,139.29
4831,B-5,736.75,0.25,81,139.29
4832,C#6,737.0,0.5,89,139.29
4833,C2,739.0,0.5,87,139.29
4834,G2,739.0,0.5,87,139.29
4835,B-2,739.0,0.5,87,139.29
4836,C3,739.0,0.5,87,139.29
4837,E3,739.25,0.25,72,139.29
4838,G3,739.5,0.25,75,139.29
4839,B-3,739.75,0.25,76,139.29
4840,C3,740.25,0.25,71,139.29
4841,G3,740.5,0.25,74,139.29
4842,B-3,740.75,0.25,76,139.29
4843,E4,741.0,0.25,89,139.29
4844,C4,741.0,0.25,90,139.29
4845,E4,742.25,0.25,72,139.29
4846,C4,742.25,0.25,73,139.29
4847,G4,742.5,0.25,75,139.29
4848,G4,742.5,0.25,76,139.29
4849,B-4,742.75,0.25,76,139.29
4850,B-4,742.75,0.25,78,139.29
4851,E5,743.0,0.25,87,139.29
4852,C5,743.0,0.25,89,139.29
4853,E5,744.25,0.25,77,139.29
4854,G5,744.5,0.25,79,139.29
4855,B-5,744.75,0.25,81,139.29
4856,E6,745.0,0.5,93,139.29
4857,C#2,747.0,333/1000,58,139.29
4858,C#3,747.333,333/1000,50,139.29
4859,E3,747.667,333/1000,50,139.29
4860,G3,748.0,0.25,50,139.29
4861,B-3,748.25,0.25,54,139.29
4862,C#4,749.5,0.25,51,139.29
4863,E4,749.75,0.25,53,139.29
4864,G4,750.0,0.5,54,139.29
4865,E2,751.0,333/1000,55,139.29
4866,E3,751.333,333/1000,47,139.29
4867,G3,751.667,333/1000,47,139.29
4868,B-3,753.0,0.25,47,139.29
4869,C#4,753.25,0.25,51,139.29
4870,E4,753.5,0.25,48,139.29
4871,G4,753.75,0.25,50,139.29
4872,B-4,754.0,0.5,51,139.29
4873,G2,755.0,333/1000,52,139.29
4874,G3,755.333,333/1000,44,139.29
4875,B-3,755.667,333/1000,44,139.29
4876,C#4,757.0,0.25,44,139.29
4877,E4,757.25,0.25,48,139.29
4878,G4,757.5,0.25,45,139.29
4879,B-4,757.75,0.25,47,139.29
4880,C#5,758.0,0.5,48,139.29
4881,B-2,759.0,333/1000,49,139.29
4882,B-3,759.333,333/1000,41,139.29
4883,C#4,759.667,333/1000,41,139.29
4884,E4,761.0,0.25,41,139.29
4885,G4,761.25,0.25,45,139.29
4886,B-4,761.5,0.25,42,139.29
4887,C#5,761.75,0.25,44,139.29
4888,E5,762.0,0.5,45,139.29
4889,C#3,763.0,0.5,40,139.29
4890,E3,763.5,0.5,36,139.29
4891,G3,764.0,0.5,36,139.29
4892,B-3,764.5,0.5,36,139.29
4893,C#4,766.0,0.5,35,139.29
4894,E4,766.5,0.5,36,139.29
4895,G4,767.0,0.5,37,139.29
4896,B-4,767.5,0.5,38,139.29
4897,C#5,768.0,0.5,39,139.29
4898,E5,768.5,0.5,40,139.29
4899,G5,769.0,0.5,40,139.29
4900,B-5,769.5,0.5,41,139.29
4901,C#6,770.0,0.5,42,139.29
4902,E6,770.5,0.5,43,139.29
4903,G6,771.0,0.5,44,139.29
4904,B-6,771.5,0.5,46,139.29
4905,G6,772.0,0.5,46,139.29
4906,E6,772.5,0.5,45,139.29
4907,C#6,773.0,0.5,45,139.29
4908,B-5,773.5,0.5,44,139.29
4909,G5,774.0,0.5,44,139.29
4910,E5,774.5,0.5,43,139.29
4911,C#5,775.0,0.5,43,139.29
4912,B-4,775.5,0.5,42,139.29
4913,G4,776.0,0.5,42,139.29
4914,E4,776.5,0.5,41,139.29
4915,B-3,776.5,0.5,38,139.29
4916,C#4,777.0,0.5,40,139.29
4917,G3,777.0,0.5,38,139.29
4918,E3,777.5,0.5,37,139.29
4919,C#3,778.0,0.5,36,139.29
4920,B-2,778.5,0.5,35,139.29
4921,G2,779.0,2.0,35,139.29
4922,E2,781.0,2.0,36,139.29
4923,C#2,783.0,2.0,35,139.29
4924,B-1,785.0,2.0,34,139.29
4925,G1,787.0,2.0,34,139.29
4926,G1,789.0,2.0,34,139.29
4927,C2,791.0,2.0,34,139.29
4928,E3,791.0,1.5,34,139.29
4929,C3,791.0,1.5,34,139.29
4930,B-2,791.0,1.5,34,139.29
4931,G2,791.0,1.5,34,139.29
4932,C2,793.0,2.0,34,139.29
4933,C2,795.0,2.0,34,139.29
4934,G3,796.0,1.5,34,139.29
4935,B-3,796.0,1.5,34,139.29
4936,C4,796.0,1.5,34,139.29
4937,E4,796.0,1.5,34,139.29
4938,C2,797.0,2.0,34,139.29
4939,G4,798.0,1.5,34,139.29
4940,B-4,798.0,1.5,34,139.29
4941,C5,798.0,1.5,34,139.29
4942,E5,798.0,1.5,34,139.29
4943,C2,799.0,2.0,34,139.29
4944,E6,800.0,1.5,34,139.29
4945,C6,800.0,1.5,34,139.29
4946,B-5,800.0,1.5,34,139.29
4947,G5,800.0,1.5,34,139.29
4948,C2,801.0,1.75,34,139.29
4949,G2,801.0,1.5,34,139.29
4950,B-2,801.0,1.5,34,139.29
4951,C3,801.0,1.5,34,139.29
4952,E3,801.0,1.5,34,139.29
4953,C2,802.75,0.25,34,139.29
4954,F2,803.0,1.0,39,139.29
4955,F1,803.0,1.0,39,139.29
4956,C3,804.25,0.25,40,139.29
4957,F3,804.5,0.25,37,139.29
4958,G#3,804.75,0.25,37,139.29
4959,C4,805.0,0.25,40,139.29
4960,C#4,805.25,0.25,38,139.29
4961,C4,805.5,0.25,38,139.29
4962,B-3,805.75,0.25,38,139.29
4963,G#3,806.0,0.25,40,139.29
4964,B-3,806.25,0.25,37,139.29
4965,G#3,806.5,0.25,37,139.29
4966,G3,806.75,0.25,37,139.29
4967,F3,807.0,0.25,40,139.29
4968,F2,807.0,1.0,40,139.29
4969,F1,807.0,1.0,40,139.29
4970,G3,807.25,0.25,37,139.29
4971,G#3,807.5,0.25,37,139.29
4972,F3,807.75,0.25,37,139.29
4973,C3,808.25,0.25,40,139.29
4974,F3,808.5,0.25,37,139.29
4975,G#3,808.75,0.25,37,139.29
4976,G#4,808.75,0.25,51,139.29
4977,C5,808.75,0.25,51,139.29
4978,C4,809.0,0.25,40,139.29
4979,G#4,809.0,1.0,56,139.29
4980,C5,809.0,1.0,56,139.29
4981,C#4,809.25,0.25,38,139.29
4982,C4,809.5,0.25,38,139.29
4983,B-3,809.75,0.25,38,139.29
4984,G#3,810.0,0.25,40,139.29
4985,F4,810.0,0.5,30,139.29
4986,G#4,810.0,0.5,30,139.29
4987,B-3,810.25,0.25,37,139.29
4988,G#3,810.5,0.25,37,139.29
4989,G3,810.75,0.25,37,139.29
4990,F3,811.0,0.25,40,139.29
4991,B-2,811.0,1.0,40,139.29
4992,B-1,811.0,1.0,40,139.29
4993,G3,811.25,0.25,37,139.29
4994,G#3,811.5,0.25,37,139.29
4995,F3,811.75,0.25,37,139.29
4996,C#3,812.25,0.25,44,139.29
4997,F#3,812.5,0.25,40,139.29
4998,B-3,812.75,0.25,40,139.29
4999,B-4,812.75,0.25,63,139.29
5000,C#5,812.75,0.25,63,139.29
5001,C#4,813.0,0.25,44,139.29
5002,B-4,813.0,2.0,70,139.29
5003,C#5,813.0,2.0,70,139.29
5004,E-4,813.25,0.25,41,139.29
5005,C#4,813.5,0.25,41,139.29
5006,C4,813.75,0.25,41,139.29
5007,B-3,814.0,0.25,44,139.29
5008,C4,814.25,0.25,40,139.29
5009,B-3,814.5,0.25,40,139.29
5010,G#3,814.75,0.25,40,139.29
5011,F#3,815.0,0.25,44,139.29
5012,B-4,815.0,0.5,51,139.29
5013,C5,815.0,0.5,51,139.29
5014,G#3,815.25,0.25,40,139.29
5015,F#3,815.5,0.25,40,139.29
5016,C3,815.5,0.5,43,139.29
5017,C2,815.5,0.5,43,139.29
5018,F3,815.75,0.25,40,139.29
5019,E3,816.0,0.25,44,139.29
5020,F3,816.25,0.25,40,139.29
5021,G3,816.5,0.25,40,139.29
5022,C#3,816.5,0.5,37,139.29
5023,C#2,816.5,0.5,37,139.29
5024,E3,816.75,0.25,40,139.29
5025,F3,817.0,0.25,44,139.29
5026,G3,817.25,0.25,40,139.29
5027,G#3,817.5,0.25,40,139.29
5028,B-2,817.5,0.5,39,139.29
5029,B-1,817.5,0.5,39,139.29
5030,F3,817.75,0.25,40,139.29
5031,G3,818.0,0.25,44,139.29
5032,G#3,818.25,0.25,40,139.29
5033,B-3,818.5,0.25,40,139.29
5034,C3,818.5,0.5,35,139.29
5035,C2,818.5,0.5,35,139.29
5036,G3,818.75,0.25,40,139.29
5037,E3,819.0,0.25,44,139.29
5038,F1,819.0,0.25,40,139.29
5039,F2,819.0,0.25,40,139.29
5040,F3,819.25,0.25,37,139.29
5041,C3,819.25,0.25,37,139.29
5042,G3,819.5,0.25,38,139.29
5043,F3,819.5,0.25,37,139.29
5044,E3,819.75,0.25,40,139.29
5045,G#3,819.75,0.25,40,139.29
5046,F3,820.0,1.0,38,139.29
5047,C4,820.0,0.25,38,139.29
5048,C#4,820.25,0.25,38,139.29
5049,C4,820.5,0.25,38,139.29
5050,B-3,820.75,0.25,40,139.29
5051,G#3,821.0,0.25,37,139.29
5052,B-3,821.25,0.25,37,139.29
5053,E4,821.5,0.25,57,139.29
5054,G#3,821.5,0.25,37,139.29
5055,G3,821.75,0.25,40,139.29
5056,F4,822.0,0.25,62,139.29
5057,F3,822.0,0.25,37,139.29
5058,G3,822.25,0.25,37,139.29
5059,G4,822.5,0.25,57,139.29
5060,G#3,822.5,0.25,37,139.29
5061,F3,822.75,0.25,37,139.29
5062,G#4,823.0,0.25,62,139.29
5063,G#3,823.0,0.25,40,139.29
5064,C3,823.25,0.25,37,139.29
5065,F4,823.5,0.25,59,139.29
5066,F3,823.5,0.25,37,139.29
5067,G#3,823.75,0.25,40,139.29
5068,C4,824.0,0.25,38,139.29
5069,C#4,824.25,0.25,38,139.29
5070,C4,824.5,0.25,38,139.29
5071,B-3,824.75,0.25,40,139.29
5072,G#3,825.0,0.25,37,139.29
5073,B-3,825.25,0.25,37,139.29
5074,G#3,825.5,0.25,37,139.29
5075,E5,825.5,0.25,56,139.29
5076,E4,825.5,0.25,56,139.29
5077,G3,825.75,0.25,40,139.29
5078,F3,826.0,0.25,37,139.29
5079,F5,826.0,0.25,62,139.29
5080,F4,826.0,0.25,62,139.29
5081,G3,826.25,0.25,37,139.29
5082,G#3,826.5,0.25,37,139.29
5083,G4,826.5,0.25,58,139.29
5084,G5,826.5,0.25,58,139.29
5085,F3,826.75,0.25,37,139.29
5086,B-3,827.0,0.25,44,139.29
5087,G#4,827.0,0.25,62,139.29
5088,G#5,827.0,0.25,62,139.29
5089,C#3,827.25,0.25,40,139.29
5090,F#3,827.5,0.25,40,139.29
5091,F4,827.5,0.25,58,139.29
5092,F5,827.5,0.25,58,139.29
5093,B-3,827.75,0.25,44,139.29
5094,C#4,828.0,0.25,41,139.29
5095,E-4,828.25,0.25,41,139.29
5096,C#4,828.5,0.25,41,139.29
5097,C4,828.75,0.25,44,139.29
5098,B-3,829.0,0.25,40,139.29
5099,C4,829.25,0.25,40,139.29
5100,B-3,829.5,0.25,40,139.29
5101,F4,829.5,0.5,65,139.29
5102,F5,829.5,0.5,65,139.29
5103,G#3,829.75,0.25,44,139.29
5104,F#3,830.0,0.25,40,139.29
5105,F#4,830.0,0.5,70,139.29
5106,F#5,830.0,0.5,70,139.29
5107,G#3,830.25,0.25,40,139.29
5108,F#3,830.5,0.25,40,139.29
5109,B-4,830.5,0.5,72,139.29
5110,B-5,830.5,0.5,72,139.29
5111,F3,830.75,0.25,44,139.29
5112,E3,831.0,0.25,40,139.29
5113,C#5,831.0,0.25,75,139.29
5114,C#6,831.0,0.25,75,139.29
5115,F3,831.25,0.25,40,139.29
5116,G3,831.5,0.25,40,139.29
5117,C#5,831.5,0.25,72,139.29
5118,C#6,831.5,0.25,72,139.29
5119,G#3,831.75,0.25,44,139.29
5120,B-3,832.0,0.25,40,139.29
5121,C#5,832.0,1.0,77,139.29
5122,C#6,832.0,1.0,77,139.29
5123,G#3,832.25,0.25,40,139.29
5124,G3,832.5,0.25,40,139.29
5125,F3,832.75,0.25,44,139.29
5126,E3,833.0,0.25,40,139.29
5127,C6,833.0,1.0,71,139.29
5128,C5,833.0,1.0,71,139.29
5129,F3,833.25,0.25,40,139.29
5130,E3,833.5,0.25,40,139.29
5131,C#3,833.75,0.25,44,139.29
5132,C3,834.0,0.25,37,139.29
5133,B-2,834.25,0.25,38,139.29
5134,G#2,834.5,0.25,40,139.29
5135,G2,834.75,0.25,40,139.29
5136,F2,835.0,1.0,44,139.29
5137,C6,835.0,1.0,71,139.29
5138,C5,835.0,1.0,71,139.29
5139,E4,836.0,1.0,64,139.29
5140,E5,836.0,1.0,64,139.29
5141,F3,836.75,0.25,52,139.29
5142,G#3,836.75,0.25,52,139.29
5143,F5,837.0,0.25,57,139.29
5144,F4,837.0,0.25,57,139.29
5145,F3,837.0,1.0,65,139.29
5146,G#3,837.0,1.0,65,139.29
5147,C4,837.25,0.25,41,139.29
5148,F4,837.5,0.25,44,139.29
5149,G#4,837.75,0.25,46,139.29
5150,C5,838.0,0.25,43,139.29
5151,C4,838.25,0.25,45,139.29
5152,F4,838.5,0.25,46,139.29
5153,G#4,838.75,0.25,48,139.29
5154,F3,838.75,0.25,54,139.29
5155,G#3,838.75,0.25,54,139.29
5156,C3,839.0,2.0,66,139.29
5157,F3,839.0,2.0,66,139.29
5158,G#3,839.0,2.0,66,139.29
5159,C4,839.25,0.25,46,139.29
5160,F4,839.5,0.25,47,139.29
5161,G#4,839.75,0.25,49,139.29
5162,C5,840.0,0.25,50,139.29
5163,C4,840.25,0.25,52,139.29
5164,F4,840.5,0.25,53,139.29
5165,G#4,840.75,0.25,38,139.29
5166,C3,841.0,0.5,48,139.29
5167,E3,841.0,0.5,48,139.29
5168,G3,841.0,0.5,48,139.29
5169,B3,841.25,0.25,51,139.29
5170,D4,841.5,0.25,52,139.29
5171,G#4,841.75,0.25,52,139.29
5172,B4,842.0,1.0,54,139.29
5173,B3,842.25,0.25,52,139.29
5174,D4,842.5,0.25,52,139.29
5175,G#4,842.75,0.25,52,139.29
5176,B4,843.0,1.0,54,139.29
5177,C2,843.0,1.0,42,139.29
5178,C3,843.0,1.0,42,139.29
5179,B3,843.25,0.25,52,139.29
5180,E4,843.5,0.25,50,139.29
5181,G4,843.75,0.25,49,139.29
5182,C5,844.0,1.0,52,139.29
5183,C4,844.25,0.25,46,139.29
5184,E4,844.5,0.25,44,139.29
5185,G4,844.75,0.25,38,139.29
5186,G3,844.75,0.25,60,139.29
5187,B-3,844.75,0.25,60,139.29
5188,G3,845.0,1.0,68,139.29
5189,B-3,845.0,1.0,68,139.29
5190,C4,845.25,0.25,38,139.29
5191,E4,845.5,0.25,40,139.29
5192,G4,845.75,0.25,42,139.29
5193,C5,846.0,0.25,43,139.29
5194,C4,846.25,0.25,45,139.29
5195,E4,846.5,0.25,46,139.29
5196,G4,846.75,0.25,48,139.29
5197,G3,846.75,0.25,61,139.29
5198,B-3,846.75,0.25,61,139.29
5199,F3,847.0,2.0,62,139.29
5200,G3,847.0,2.0,62,139.29
5201,B-3,847.0,2.0,62,139.29
5202,C4,847.25,0.25,46,139.29
5203,E4,847.5,0.25,47,139.29
5204,G4,847.75,0.25,49,139.29
5205,C5,848.0,0.25,50,139.29
5206,C4,848.25,0.25,52,139.29
5207,E4,848.5,0.25,53,139.29
5208,G4,848.75,0.25,38,139.29
5209,F3,849.0,0.5,50,139.29
5210,G#3,849.0,0.5,50,139.29
5211,C4,849.25,0.25,51,139.29
5212,E4,849.5,0.25,52,139.29
5213,G4,849.75,0.25,52,139.29
5214,C5,850.0,1.0,54,139.29
5215,C4,850.25,0.25,52,139.29
5216,E4,850.5,0.25,52,139.29
5217,G4,850.75,0.25,52,139.29
5218,C5,851.0,1.0,53,139.29
5219,F2,851.0,1.0,45,139.29
5220,F3,851.0,1.0,45,139.29
5221,C4,851.25,0.25,52,139.29
5222,E4,851.5,0.25,50,139.29
5223,G4,851.75,0.25,49,139.29
5224,C5,852.0,1.0,47,139.29
5225,C4,852.25,0.25,46,139.29
5226,F4,852.5,0.25,44,139.29
5227,G#4,852.75,0.25,38,139.29
5228,C4,852.75,0.25,59,139.29
5229,E-4,852.75,0.25,59,139.29
5230,C4,853.0,1.0,68,139.29
5231,E-4,853.0,1.0,68,139.29
5232,F4,853.25,0.25,38,139.29
5233,A4,853.5,0.25,40,139.29
5234,C5,853.75,0.25,42,139.29
5235,F5,854.0,0.25,43,139.29
5236,F4,854.25,0.25,45,139.29
5237,A4,854.5,0.25,46,139.29
5238,C5,854.75,0.25,48,139.29
5239,C4,854.75,0.25,66,139.29
5240,E-4,854.75,0.25,66,139.29
5241,B-3,855.0,2.0,72,139.29
5242,C4,855.0,2.0,72,139.29
5243,E-4,855.0,2.0,72,139.29
5244,F4,855.25,0.25,46,139.29
5245,A4,855.5,0.25,47,139.29
5246,C5,855.75,0.25,49,139.29
5247,F5,856.0,0.25,50,139.29
5248,F4,856.25,0.25,52,139.29
5249,A4,856.5,0.25,53,139.29
5250,C5,856.75,0.25,54,139.29
5251,F4,857.25,0.25,50,139.29
5252,A4,857.5,0.25,50,139.29
5253,B-3,857.5,0.5,72,139.29
5254,C4,857.5,0.5,72,139.29
5255,E-4,857.5,0.5,72,139.29
5256,C5,857.75,0.25,50,139.29
5257,F5,858.0,1.0,55,139.29
5258,B-3,858.0,0.5,64,139.29
5259,C#4,858.0,0.5,64,139.29
5260,F4,858.25,0.25,53,139.29
5261,A4,858.5,0.25,52,139.29
5262,G#3,858.5,0.5,61,139.29
5263,C4,858.5,0.5,61,139.29
5264,C5,858.75,0.25,52,139.29
5265,A4,859.0,0.25,54,139.29
5266,F4,859.0,0.25,54,139.29
5267,G3,859.0,0.5,59,139.29
5268,B-3,859.0,0.5,59,139.29
5269,F5,859.25,0.25,54,139.29
5270,F4,859.5,0.25,53,139.29
5271,B-4,859.5,0.25,53,139.29
5272,C3,859.5,1.0,56,139.29
5273,F3,859.5,1.0,56,139.29
5274,G#3,859.5,1.0,56,139.29
5275,F5,859.75,0.25,52,139.29
5276,F4,860.0,0.25,52,139.29
5277,C5,860.0,0.25,52,139.29
5278,F5,860.25,0.25,51,139.29
5279,C#5,860.5,0.25,50,139.29
5280,F4,860.5,0.25,50,139.29
5281,F5,860.75,0.25,50,139.29
5282,C4,861.25,0.25,52,139.29
5283,F3,861.25,0.25,56,139.29
5284,G#3,861.25,0.25,56,139.29
5285,F4,861.5,0.25,49,139.29
5286,C3,861.5,1.0,63,139.29
5287,G3,861.5,1.0,63,139.29
5288,B-3,861.5,1.0,63,139.29
5289,G#4,861.75,0.25,50,139.29
5290,C5,862.0,1.0,56,139.29
5291,C4,862.25,0.25,50,139.29
5292,F4,862.5,0.25,50,139.29
5293,G#4,862.75,0.25,50,139.29
5294,C5,863.0,1.0,56,139.29
5295,C4,863.25,0.25,52,139.29
5296,E3,863.25,0.25,53,139.29
5297,G3,863.25,0.25,53,139.29
5298,G4,863.5,0.25,52,139.29
5299,F3,863.5,0.25,56,139.29
5300,B-4,863.75,0.25,52,139.29
5301,C4,863.75,0.25,49,139.29
5302,C5,864.0,1.0,56,139.29
5303,G#3,864.0,0.25,49,139.29
5304,C4,864.25,0.25,52,139.29
5305,F3,864.25,0.25,49,139.29
5306,E4,864.5,0.25,52,139.29
5307,C3,864.5,0.25,53,139.29
5308,G4,864.75,0.25,52,139.29
5309,G#3,864.75,0.25,49,139.29
5310,F3,865.0,0.25,49,139.29
5311,C4,865.0,1.0,59,139.29
5312,F4,865.0,1.0,59,139.29
5313,G#4,865.0,1.0,59,139.29
5314,C5,865.0,1.0,59,139.29
5315,C3,865.25,0.25,49,139.29
5316,G#2,865.5,0.25,53,139.29
5317,F3,865.75,0.25,49,139.29
5318,C3,866.0,0.25,49,139.29
5319,G#2,866.25,0.25,49,139.29
5320,F2,866.5,0.25,53,139.29
5321,C3,866.75,0.25,49,139.29
5322,G#5,866.75,0.25,69,139.29
5323,F5,866.75,0.25,69,139.29
5324,G#2,867.0,0.25,49,139.29
5325,G#5,867.0,1.0,74,139.29
5326,F5,867.0,1.0,74,139.29
5327,F2,867.25,0.25,49,139.29
5328,C2,867.5,0.25,53,139.29
5329,F2,867.75,0.25,49,139.29
5330,G#2,868.0,0.25,49,139.29
5331,C3,868.25,0.25,49,139.29
5332,B2,868.5,0.25,53,139.29
5333,C3,868.75,0.25,49,139.29
5334,G#5,868.75,0.25,70,139.29
5335,F5,868.75,0.25,70,139.29
5336,B2,869.0,0.25,49,139.29
5337,G#5,869.0,2.0,75,139.29
5338,F5,869.0,2.0,75,139.29
5339,C3,869.25,0.25,49,139.29
5340,B2,869.5,0.25,53,139.29
5341,C3,869.75,0.25,49,139.29
5342,G2,870.0,0.25,49,139.29
5343,C3,870.25,0.25,49,139.29
5344,E2,870.5,0.25,53,139.29
5345,C3,870.75,0.25,49,139.29
5346,G2,871.0,0.25,49,139.29
5347,G5,871.0,0.5,68,139.29
5348,E5,871.0,0.5,68,139.29
5349,C3,871.25,0.25,49,139.29
5350,C2,871.5,0.25,56,139.29
5351,E2,871.75,0.25,49,139.29
5352,G2,872.0,0.25,49,139.29
5353,C3,872.25,0.25,49,139.29
5354,E2,872.5,0.25,53,139.29
5355,G2,872.75,0.25,49,139.29
5356,C3,873.0,0.25,49,139.29
5357,E3,873.25,0.25,49,139.29
5358,G2,873.5,0.25,53,139.29
5359,C3,873.75,0.25,49,139.29
5360,E3,874.0,0.25,49,139.29
5361,G3,874.25,0.25,49,139.29
5362,C3,874.5,0.25,53,139.29
5363,E3,874.75,0.25,49,139.29
5364,B-5,874.75,0.25,75,139.29
5365,G5,874.75,0.25,75,139.29
5366,G3,875.0,0.25,49,139.29
5367,B-5,875.0,1.0,81,139.29
5368,G5,875.0,1.0,81,139.29
5369,C4,875.25,0.25,49,139.29
5370,F3,875.5,0.25,59,139.29
5371,G#3,875.75,0.25,49,139.29
5372,C4,876.0,0.25,49,139.29
5373,F4,876.25,0.25,49,139.29
5374,E4,876.5,0.25,53,139.29
5375,F4,876.75,0.25,49,139.29
5376,B-5,876.75,0.25,77,139.29
5377,G5,876.75,0.25,77,139.29
5378,E4,877.0,0.25,49,139.29
5379,B-5,877.0,2.0,82,139.29
5380,G5,877.0,2.0,82,139.29
5381,F4,877.25,0.25,49,139.29
5382,E4,877.5,0.25,53,139.29
5383,F4,877.75,0.25,49,139.29
5384,C4,878.0,0.25,49,139.29
5385,F4,878.25,0.25,49,139.29
5386,G#3,878.5,0.25,53,139.29
5387,F4,878.75,0.25,49,139.29
5388,C4,879.0,0.25,49,139.29
5389,G#5,879.0,0.5,74,139.29
5390,F5,879.0,0.5,74,139.29
5391,F4,879.25,0.25,49,139.29
5392,F3,879.5,0.25,61,139.29
5393,A3,879.75,0.25,53,139.29
5394,C4,880.0,0.25,53,139.29
5395,F4,880.25,0.25,53,139.29
5396,A3,880.5,0.25,58,139.29
5397,C4,880.75,0.25,53,139.29
5398,F4,881.0,0.25,53,139.29
5399,A4,881.25,0.25,53,139.29
5400,C4,881.5,0.25,58,139.29
5401,F4,881.75,0.25,53,139.29
5402,A4,882.0,0.25,53,139.29
5403,C5,882.25,0.25,53,139.29
5404,F4,882.5,0.25,58,139.29
5405,A4,882.75,0.25,53,139.29
5406,E-6,882.75,0.25,82,139.29
5407,C6,882.75,0.25,82,139.29
5408,C5,883.0,0.25,53,139.29
5409,E-6,883.0,1.0,89,139.29
5410,C6,883.0,1.0,89,139.29
5411,F5,883.25,0.25,53,139.29
5412,A4,883.5,0.25,67,139.29
5413,F5,883.75,0.25,53,139.29
5414,E5,884.0,0.25,53,139.29
5415,F5,884.25,0.25,53,139.29
5416,A4,884.5,0.25,58,139.29
5417,F5,884.75,0.25,53,139.29
5418,E-6,884.75,0.25,84,139.29
5419,C6,884.75,0.25,84,139.29
5420,A4,885.0,0.25,53,139.29
5421,E-6,885.0,2.0,90,139.29
5422,C6,885.0,2.0,90,139.29
5423,F5,885.25,0.25,53,139.29
5424,A4,885.5,0.25,57,139.29
5425,F5,885.75,0.25,56,139.29
5426,B-4,886.0,0.25,56,139.29
5427,F5,886.25,0.25,55,139.29
5428,C5,886.5,0.25,54,139.29
5429,F5,886.75,0.25,53,139.29
5430,C#5,887.0,0.25,52,139.29
5431,F5,887.25,0.25,52,139.29
5432,C4,887.5,0.25,52,139.29
5433,E-6,887.5,0.5,90,139.29
5434,C6,887.5,0.5,90,139.29
5435,F4,887.75,0.25,47,139.29
5436,G#4,888.0,0.25,47,139.29
5437,C#6,888.0,0.5,79,139.29
5438,B-5,888.0,0.5,79,139.29
5439,C5,888.25,0.25,47,139.29
5440,B4,888.5,0.25,52,139.29
5441,C6,888.5,0.5,77,139.29
5442,G#5,888.5,0.5,77,139.29
5443,C5,888.75,0.25,47,139.29
5444,B4,889.0,0.25,47,139.29
5445,B-5,889.0,0.5,73,139.29
5446,G5,889.0,0.5,73,139.29
5447,C5,889.25,0.25,47,139.29
5448,C4,889.5,0.25,52,139.29
5449,G#5,889.5,1.0,82,139.29
5450,F5,889.5,1.0,82,139.29
5451,E4,889.75,0.25,47,139.29
5452,G4,890.0,0.25,47,139.29
5453,C5,890.25,0.25,47,139.29
5454,C4,890.5,0.25,52,139.29
5455,G4,890.75,0.25,47,139.29
5456,B-4,891.0,0.25,47,139.29
5457,C5,891.25,0.25,47,139.29
5458,F6,891.25,0.25,79,139.29
5459,G#5,891.25,0.25,79,139.29
5460,F5,891.25,0.25,79,139.29
5461,F3,891.5,0.25,52,139.29
5462,G6,891.5,1.0,82,139.29
5463,B-5,891.5,1.0,82,139.29
5464,G5,891.5,1.0,82,139.29
5465,G#4,891.75,0.25,38,139.29
5466,F4,891.75,0.25,38,139.29
5467,C4,892.0,0.25,39,139.29
5468,C5,892.0,0.25,39,139.29
5469,G#4,892.25,0.25,41,139.29
5470,F4,892.25,0.25,41,139.29
5471,C4,892.5,0.25,45,139.29
5472,C5,892.5,0.25,45,139.29
5473,G#4,892.75,0.25,44,139.29
5474,F4,892.75,0.25,44,139.29
5475,C4,893.0,0.25,45,139.29
5476,C5,893.0,0.25,45,139.29
5477,E6,893.25,0.25,79,139.29
5478,G5,893.25,0.25,79,139.29
5479,E5,893.25,0.25,79,139.29
5480,G#4,893.25,0.25,45,139.29
5481,F4,893.25,0.25,45,139.29
5482,F6,893.5,0.25,73,139.29
5483,G#5,893.5,0.25,73,139.29
5484,F5,893.5,0.25,73,139.29
5485,C4,893.5,0.25,46,139.29
5486,C5,893.5,0.25,46,139.29
5487,C5,893.75,0.25,61,139.29
5488,G#4,893.75,0.25,46,139.29
5489,F4,893.75,0.25,46,139.29
5490,F5,894.0,0.25,62,139.29
5491,C4,894.0,0.25,45,139.29
5492,C5,894.0,0.25,45,139.29
5493,G#5,894.25,0.25,63,139.29
5494,G#4,894.25,0.25,45,139.29
5495,F4,894.25,0.25,45,139.29
5496,C6,894.5,0.25,68,139.29
5497,C4,894.5,0.25,45,139.29
5498,C5,894.5,0.25,45,139.29
5499,C#6,894.75,0.25,65,139.29
5500,G#4,894.75,0.25,44,139.29
5501,F4,894.75,0.25,44,139.29
5502,C6,895.0,0.25,66,139.29
5503,C4,895.0,0.25,44,139.29
5504,C5,895.0,0.25,44,139.29
5505,B-5,895.25,0.25,65,139.29
5506,G#4,895.25,0.25,43,139.29
5507,F4,895.25,0.25,43,139.29
5508,G#5,895.5,0.25,68,139.29
5509,F3,895.5,0.25,54,139.29
5510,B-5,895.75,0.25,67,139.29
5511,G#4,895.75,0.25,38,139.29
5512,F4,895.75,0.25,38,139.29
5513,G#5,896.0,0.25,66,139.29
5514,C4,896.0,0.25,39,139.29
5515,C5,896.0,0.25,39,139.29
5516,G5,896.25,0.25,65,139.29
5517,G#4,896.25,0.25,41,139.29
5518,F4,896.25,0.25,41,139.29
5519,F5,896.5,0.25,64,139.29
5520,C4,896.5,0.25,45,139.29
5521,C5,896.5,0.25,45,139.29
5522,G5,896.75,0.25,63,139.29
5523,G#4,896.75,0.25,44,139.29
5524,F4,896.75,0.25,44,139.29
5525,G#5,897.0,0.25,63,139.29
5526,C4,897.0,0.25,45,139.29
5527,C5,897.0,0.25,45,139.29
5528,F5,897.25,0.25,62,139.29
5529,G#4,897.25,0.25,45,139.29
5530,F4,897.25,0.25,45,139.29
5531,C4,897.5,0.25,46,139.29
5532,C5,897.5,0.25,46,139.29
5533,C5,897.75,0.25,61,139.29
5534,G#4,897.75,0.25,46,139.29
5535,F4,897.75,0.25,46,139.29
5536,F5,898.0,0.25,62,139.29
5537,C4,898.0,0.25,45,139.29
5538,C5,898.0,0.25,45,139.29
5539,G#5,898.25,0.25,63,139.29
5540,G#4,898.25,0.25,45,139.29
5541,F4,898.25,0.25,45,139.29
5542,C6,898.5,0.25,68,139.29
5543,C4,898.5,0.25,45,139.29
5544,C5,898.5,0.25,45,139.29
5545,C#6,898.75,0.25,65,139.29
5546,G#4,898.75,0.25,44,139.29
5547,F4,898.75,0.25,44,139.29
5548,C6,899.0,0.25,66,139.29
5549,C4,899.0,0.25,44,139.29
5550,C5,899.0,0.25,44,139.29
5551,B-5,899.25,0.25,65,139.29
5552,G#4,899.25,0.25,43,139.29
5553,F4,899.25,0.25,43,139.29
5554,G#5,899.5,0.25,68,139.29
5555,G#2,899.5,0.25,55,139.29
5556,B-5,899.75,0.25,67,139.29
5557,G#3,899.75,0.25,40,139.29
5558,F#3,899.75,0.25,40,139.29
5559,G#5,900.0,0.25,66,139.29
5560,E-3,900.0,0.25,41,139.29
5561,C4,900.0,0.25,41,139.29
5562,G5,900.25,0.25,65,139.29
5563,G#3,900.25,0.25,43,139.29
5564,F#3,900.25,0.25,43,139.29
5565,F5,900.5,0.25,64,139.29
5566,E-3,900.5,0.25,47,139.29
5567,C4,900.5,0.25,47,139.29
5568,G5,900.75,0.25,63,139.29
5569,G#3,900.75,0.25,46,139.29
5570,F#3,900.75,0.25,46,139.29
5571,G#5,901.0,0.25,63,139.29
5572,E-3,901.0,0.25,47,139.29
5573,C4,901.0,0.25,47,139.29
5574,F5,901.25,0.25,62,139.29
5575,G#3,901.25,0.25,48,139.29
5576,F#3,901.25,0.25,48,139.29
5577,E-3,901.5,0.25,49,139.29
5578,C4,901.5,0.25,49,139.29
5579,F#5,901.75,0.25,64,139.29
5580,G#3,901.75,0.25,49,139.29
5581,F#3,901.75,0.25,49,139.29
5582,C6,902.0,0.25,65,139.29
5583,E-3,902.0,0.25,48,139.29
5584,C4,902.0,0.25,48,139.29
5585,E-6,902.25,0.25,66,139.29
5586,G#3,902.25,0.25,47,139.29
5587,F#3,902.25,0.25,47,139.29
5588,F#6,902.5,0.25,72,139.29
5589,E-3,902.5,0.25,47,139.29
5590,C4,902.5,0.25,47,139.29
5591,G#6,902.75,0.25,69,139.29
5592,G#3,902.75,0.25,46,139.29
5593,F#3,902.75,0.25,46,139.29
5594,F#6,903.0,0.25,70,139.29
5595,E-3,903.0,0.25,46,139.29
5596,C4,903.0,0.25,46,139.29
5597,F6,903.25,0.25,69,139.29
5598,G#3,903.25,0.25,45,139.29
5599,F#3,903.25,0.25,45,139.29
5600,E-6,903.5,0.25,72,139.29
5601,G#2,903.5,0.25,54,139.29
5602,F6,903.75,0.25,71,139.29
5603,G#3,903.75,0.25,40,139.29
5604,F#3,903.75,0.25,40,139.29
5605,E-6,904.0,0.25,70,139.29
5606,E-3,904.0,0.25,41,139.29
5607,C4,904.0,0.25,41,139.29
5608,C#6,904.25,0.25,69,139.29
5609,G#3,904.25,0.25,43,139.29
5610,F#3,904.25,0.25,43,139.29
5611,C6,904.5,0.25,68,139.29
5612,E-3,904.5,0.25,47,139.29
5613,C4,904.5,0.25,47,139.29
5614,C#6,904.75,0.25,67,139.29
5615,G#3,904.75,0.25,46,139.29
5616,F#3,904.75,0.25,46,139.29
5617,E-6,905.0,0.25,66,139.29
5618,E-3,905.0,0.25,47,139.29
5619,C4,905.0,0.25,47,139.29
5620,C6,905.25,0.25,65,139.29
5621,G#3,905.25,0.25,48,139.29
5622,F#3,905.25,0.25,48,139.29
5623,E-3,905.5,0.25,49,139.29
5624,C4,905.5,0.25,49,139.29
5625,F#5,905.75,0.25,64,139.29
5626,G#3,905.75,0.25,49,139.29
5627,F#3,905.75,0.25,49,139.29
5628,C6,906.0,0.25,65,139.29
5629,E-3,906.0,0.25,48,139.29
5630,C4,906.0,0.25,48,139.29
5631,E-6,906.25,0.25,66,139.29
5632,G#3,906.25,0.25,47,139.29
5633,F#3,906.25,0.25,47,139.29
5634,F#6,906.5,0.25,72,139.29
5635,E-3,906.5,0.25,47,139.29
5636,C4,906.5,0.25,47,139.29
5637,G#6,906.75,0.25,69,139.29
5638,G#3,906.75,0.25,46,139.29
5639,F#3,906.75,0.25,46,139.29
5640,F#6,907.0,0.25,70,139.29
5641,E-3,907.0,0.25,46,139.29
5642,C4,907.0,0.25,46,139.29
5643,F6,907.25,0.25,69,139.29
5644,G#3,907.25,0.25,45,139.29
5645,F#3,907.25,0.25,45,139.29
5646,E-6,907.5,0.25,72,139.29
5647,C#3,907.5,0.25,56,139.29
5648,F6,907.75,0.25,71,139.29
5649,F4,907.75,0.25,42,139.29
5650,C#4,907.75,0.25,42,139.29
5651,E-6,908.0,0.25,70,139.29
5652,G#3,908.0,0.25,43,139.29
5653,G#4,908.0,0.25,43,139.29
5654,C#6,908.25,0.25,69,139.29
5655,F4,908.25,0.25,45,139.29
5656,C#4,908.25,0.25,45,139.29
5657,C6,908.5,0.25,68,139.29
5658,G#3,908.5,0.25,49,139.29
5659,G#4,908.5,0.25,49,139.29
5660,B-5,908.75,0.25,67,139.29
5661,F4,908.75,0.25,48,139.29
5662,C#4,908.75,0.25,48,139.29
5663,G#5,909.0,0.25,66,139.29
5664,G#3,909.0,0.25,49,139.29
5665,G#4,909.0,0.25,49,139.29
5666,F#5,909.25,0.25,65,139.29
5667,F4,909.25,0.25,50,139.29
5668,C#4,909.25,0.25,50,139.29
5669,F5,909.5,0.25,68,139.29
5670,G#3,909.5,0.25,51,139.29
5671,G#4,909.5,0.25,51,139.29
5672,G#5,909.75,0.25,67,139.29
5673,F4,909.75,0.25,51,139.29
5674,C#4,909.75,0.25,51,139.29
5675,C#6,910.0,0.25,68,139.29
5676,G#3,910.0,0.25,50,139.29
5677,G#4,910.0,0.25,50,139.29
5678,F6,910.25,0.25,69,139.29
5679,F4,910.25,0.25,49,139.29
5680,C#4,910.25,0.25,49,139.29
5681,G#6,910.5,0.25,75,139.29
5682,G#3,910.5,0.25,49,139.29
5683,G#4,910.5,0.25,49,139.29
5684,B-6,910.75,0.25,72,139.29
5685,F4,910.75,0.25,48,139.29
5686,C#4,910.75,0.25,48,139.29
5687,G#6,911.0,0.25,73,139.29
5688,G#3,911.0,0.25,48,139.29
5689,G#4,911.0,0.25,48,139.29
5690,F#6,911.25,0.25,72,139.29
5691,F4,911.25,0.25,47,139.29
5692,C#4,911.25,0.25,47,139.29
5693,F6,911.5,0.25,75,139.29
5694,C#3,911.5,0.25,56,139.29
5695,F#6,911.75,0.25,74,139.29
5696,C#4,911.75,0.25,42,139.29
5697,F4,911.75,0.25,42,139.29
5698,F6,912.0,0.25,73,139.29
5699,G#3,912.0,0.25,43,139.29
5700,G#4,912.0,0.25,43,139.29
5701,E-6,912.25,0.25,72,139.29
5702,C#4,912.25,0.25,45,139.29
5703,F4,912.25,0.25,45,139.29
5704,C#6,912.5,0.25,71,139.29
5705,G#4,912.5,0.5,49,139.29
5706,E-6,912.75,0.25,70,139.29
5707,F6,913.0,0.25,69,139.29
5708,C#5,913.0,0.5,55,139.29
5709,C#6,913.25,0.25,68,139.29
5710,F5,913.5,0.5,58,139.29
5711,G#5,913.75,0.25,67,139.29
5712,C#6,914.0,0.25,68,139.29
5713,G#5,914.0,0.5,62,139.29
5714,F6,914.25,0.25,69,139.29
5715,G#6,914.5,0.25,76,139.29
5716,C#6,914.5,0.5,66,139.29
5717,B-6,914.75,0.25,74,139.29
5718,G#6,915.0,0.25,75,139.29
5719,C#6,915.0,0.5,69,139.29
5720,F#6,915.25,0.25,74,139.29
5721,F6,915.5,0.25,78,139.29
5722,C#6,915.5,1.5,80,139.29
5723,B-5,915.5,1.5,80,139.29
5724,F#6,915.75,0.25,77,139.29
5725,G#6,916.0,0.25,77,139.29
5726,F#6,916.25,0.25,76,139.29
5727,F6,916.5,0.25,75,139.29
5728,F#6,916.75,0.25,75,139.29
5729,G#6,917.0,0.25,74,139.29
5730,G#5,917.0,0.5,66,139.29
5731,C6,917.0,0.5,66,139.29
5732,F6,917.25,0.25,74,139.29
5733,G5,917.5,1.0,68,139.29
5734,B-5,917.5,1.0,68,139.29
5735,F#6,917.75,0.25,70,139.29
5736,G#6,918.0,0.25,73,139.29
5737,F#6,918.25,0.25,70,139.29
5738,G#6,918.5,0.25,65,139.29
5739,G#5,918.5,1.0,64,139.29
5740,C6,918.5,1.0,64,139.29
5741,F#6,918.75,0.25,63,139.29
5742,F6,919.0,0.25,59,139.29
5743,F#6,919.25,0.25,59,139.29
5744,C#6,919.5,1.5,80,139.29
5745,B-5,919.5,1.5,80,139.29
5746,E6,919.75,0.25,58,139.29
5747,F6,920.0,0.25,60,139.29
5748,E6,920.25,0.25,57,139.29
5749,F6,920.75,0.25,57,139.29
5750,G6,921.0,0.25,60,139.29
5751,G#5,921.0,0.5,66,139.29
5752,C6,921.0,0.5,66,139.29
5753,F6,921.25,0.25,56,139.29
5754,G5,921.5,1.0,68,139.29
5755,B-5,921.5,1.0,68,139.29
5756,F#6,921.75,0.25,70,139.29
5757,G#6,922.0,0.25,73,139.29
5758,F#6,922.25,0.25,70,139.29
5759,G#6,922.5,0.25,65,139.29
5760,G#5,922.5,1.0,64,139.29
5761,C6,922.5,1.0,64,139.29
5762,F#6,922.75,0.25,63,139.29
5763,F6,923.0,0.25,59,139.29
5764,F#6,923.25,0.25,59,139.29
5765,C#6,923.5,1.5,80,139.29
5766,B-5,923.5,1.5,80,139.29
5767,E6,923.75,0.25,58,139.29
5768,F6,924.0,0.25,60,139.29
5769,E6,924.25,0.25,57,139.29
5770,F6,924.75,0.25,57,139.29
5771,G6,925.0,0.25,60,139.29
5772,G#5,925.0,0.5,66,139.29
5773,C6,925.0,0.5,66,139.29
5774,F6,925.25,0.25,56,139.29
5775,G5,925.5,1.0,68,139.29
5776,B-5,925.5,1.0,68,139.29
5777,F#6,925.75,0.25,70,139.29
5778,G#6,926.0,0.25,73,139.29
5779,F#6,926.25,0.25,70,139.29
5780,G#6,926.5,0.25,73,139.29
5781,F5,926.5,1.0,65,139.29
5782,G#5,926.5,1.0,65,139.29
5783,F#6,926.75,0.25,70,139.29
5784,F6,927.0,0.25,59,139.29
5785,G6,927.25,0.25,59,139.29
5786,G5,927.5,1.0,70,139.29
5787,E5,927.5,1.0,70,139.29
5788,E6,927.75,0.25,58,139.29
5789,F6,928.0,0.25,60,139.29
5790,E6,928.25,0.25,58,139.29
5791,D5,928.5,1.0,70,139.29
5792,F5,928.5,1.0,70,139.29
5793,C#6,928.75,0.25,58,139.29
5794,E-6,929.0,0.25,61,139.29
5795,C#6,929.25,0.25,57,139.29
5796,F5,929.5,1.0,75,139.29
5797,C#5,929.5,1.0,75,139.29
5798,C6,929.75,0.25,60,139.29
5799,C#6,930.0,0.25,62,139.29
5800,C6,930.25,0.25,60,139.29
5801,C5,930.5,1.0,75,139.29
5802,F5,930.5,1.0,75,139.29
5803,B5,930.75,0.25,61,139.29
5804,C6,931.0,0.25,65,139.29
5805,B5,931.25,0.25,62,139.29
5806,B4,931.5,2.0,76,139.29
5807,B-5,931.75,0.25,65,139.29
5808,C6,932.0,0.25,67,139.29
5809,B-5,932.25,0.25,64,139.29
5810,D5,932.5,1.0,75,139.29
5811,G#5,932.75,0.25,66,139.29
5812,B-5,933.0,0.25,69,139.29
5813,G#5,933.25,0.25,67,139.29
5814,G#4,933.5,1.0,72,139.29
5815,C4,933.5,2.0,72,139.29
5816,C5,933.5,2.0,72,139.29
5817,G#5,933.75,0.25,67,139.29
5818,B-5,934.0,0.25,70,139.29
5819,G#5,934.25,0.25,68,139.29
5820,G4,934.5,1.0,68,139.29
5821,G5,934.75,0.25,66,139.29
5822,G#5,935.0,0.25,69,139.29
5823,G5,935.25,0.25,64,139.29
5824,B-2,935.5,1.5,65,139.29
5825,F#3,935.5,1.5,65,139.29
5826,C#3,935.5,1.5,65,139.29
5827,F5,935.75,0.25,64,139.29
5828,G5,936.0,0.25,65,139.29
5829,F5,936.25,0.25,62,139.29
5830,E5,936.75,0.25,60,139.29
5831,F5,937.0,0.25,62,139.29
5832,G#2,937.0,0.5,53,139.29
5833,C3,937.0,0.5,53,139.29
5834,F3,937.0,0.5,53,139.29
5835,E5,937.25,0.25,57,139.29
5836,E3,937.5,1.0,54,139.29
5837,G2,937.5,1.0,54,139.29
5838,B-2,937.5,1.0,54,139.29
5839,C#4,937.75,0.25,66,139.29
5840,C#5,938.0,0.25,73,139.29
5841,C#4,938.25,0.25,59,139.29
5842,C#5,938.5,0.25,71,139.29
5843,G#2,938.5,1.0,51,139.29
5844,C3,938.5,1.0,51,139.29
5845,F3,938.5,1.0,51,139.29
5846,C#4,938.75,0.25,58,139.29
5847,C#5,939.0,0.25,63,139.29
5848,C#4,939.25,0.25,59,139.29
5849,B-2,939.5,1.5,65,139.29
5850,F#3,939.5,1.5,65,139.29
5851,C#3,939.5,1.5,65,139.29
5852,C#4,939.75,0.25,60,139.29
5853,C#5,940.0,0.25,71,139.29
5854,C5,940.25,0.25,66,139.29
5855,B-4,940.5,0.25,68,139.29
5856,G#4,940.75,0.25,66,139.29
5857,G4,941.0,0.25,65,139.29
5858,G#2,941.0,0.5,53,139.29
5859,C3,941.0,0.5,53,139.29
5860,F3,941.0,0.5,53,139.29
5861,F4,941.25,0.25,58,139.29
5862,E3,941.5,1.0,57,139.29
5863,G2,941.5,1.0,57,139.29
5864,B-2,941.5,1.0,57,139.29
5865,C#5,941.75,0.25,68,139.29
5866,C#6,942.0,0.25,75,139.29
5867,C#5,942.25,0.25,67,139.29
5868,C#6,942.5,0.25,74,139.29
5869,G#2,942.5,1.0,51,139.29
5870,C3,942.5,1.0,51,139.29
5871,F3,942.5,1.0,51,139.29
5872,C#5,942.75,0.25,67,139.29
5873,C#6,943.0,0.25,69,139.29
5874,C#5,943.25,0.25,60,139.29
5875,B-2,943.5,1.5,65,139.29
5876,F#3,943.5,1.5,65,139.29
5877,C#3,943.5,1.5,65,139.29
5878,C#5,943.75,0.25,61,139.29
5879,C#6,944.0,0.25,73,139.29
5880,C6,944.25,0.25,66,139.29
5881,B-5,944.5,0.25,70,139.29
5882,G#5,944.75,0.25,68,139.29
5883,G5,945.0,0.25,67,139.29
5884,F3,945.0,0.5,53,139.29
5885,G#2,945.0,0.5,53,139.29
5886,C3,945.0,0.5,53,139.29
5887,F5,945.25,0.25,65,139.29
5888,E3,945.5,1.0,58,139.29
5889,G2,945.5,1.0,58,139.29
5890,B-2,945.5,1.0,58,139.29
5891,C#4,945.75,0.25,66,139.29
5892,C#5,946.0,0.25,73,139.29
5893,C#4,946.25,0.25,66,139.29
5894,C#5,946.5,0.25,73,139.29
5895,C#3,946.5,1.0,52,139.29
5896,F2,946.5,1.0,52,139.29
5897,G#2,946.5,1.0,52,139.29
5898,C#4,946.75,0.25,66,139.29
5899,C#5,947.0,0.25,68,139.29
5900,C#4,947.25,0.25,61,139.29
5901,E2,947.5,1.0,56,139.29
5902,C3,947.5,1.0,56,139.29
5903,G2,947.5,1.0,56,139.29
5904,C#5,947.75,0.25,68,139.29
5905,C#4,948.0,0.25,60,139.29
5906,C#5,948.25,0.25,68,139.29
5907,B2,948.5,1.0,56,139.29
5908,G#2,948.5,1.0,56,139.29
5909,D2,948.5,1.0,56,139.29
5910,F2,948.5,1.0,56,139.29
5911,C#6,948.75,0.25,78,139.29
5912,C#5,949.0,0.25,69,139.29
5913,C#6,949.25,0.25,75,139.29
5914,B-2,949.5,1.0,60,139.29
5915,G2,949.5,1.0,60,139.29
5916,E2,949.5,1.0,60,139.29
5917,C6,949.75,0.25,76,139.29
5918,C5,950.0,0.25,71,139.29
5919,C6,950.25,0.25,74,139.29
5920,F2,950.5,1.0,67,139.29
5921,G#2,950.5,1.0,67,139.29
5922,B5,950.75,0.25,77,139.29
5923,B4,951.0,0.25,71,139.29
5924,B5,951.25,0.25,74,139.29
5925,G#2,951.5,1.0,66,139.29
5926,B1,951.5,2.0,66,139.29
5927,B-5,951.75,0.25,78,139.29
5928,B-4,952.0,0.25,69,139.29
5929,B-5,952.25,0.25,74,139.29
5930,F#2,952.5,1.0,64,139.29
5931,G#5,952.75,0.25,77,139.29
5932,G#4,953.0,0.25,71,139.29
5933,C5,953.0,0.25,71,139.29
5934,G#5,953.25,0.25,73,139.29
5935,F2,953.5,1.0,61,139.29
5936,C2,953.5,2.0,61,139.29
5937,G#5,953.75,0.25,75,139.29
5938,D5,954.0,0.25,68,139.29
5939,G#4,954.0,0.25,68,139.29
5940,G#5,954.25,0.25,72,139.29
5941,E2,954.5,1.0,59,139.29
5942,G5,954.75,0.25,73,139.29
5943,D5,955.0,0.25,66,139.29
5944,G4,955.0,0.25,66,139.29
5945,G5,955.25,0.25,73,139.29
5946,F1,955.5,0.5,62,139.29
5947,G#1,955.5,0.5,62,139.29
5948,C2,955.5,0.5,62,139.29
5949,F2,955.5,0.5,62,139.29
5950,F5,955.75,0.25,71,139.29
5951,G#4,956.0,0.25,66,139.29
5952,F4,956.0,0.25,66,139.29
5953,F5,956.25,0.25,71,139.29
5954,E5,956.75,0.25,72,139.29
5955,C3,956.75,0.25,59,139.29
5956,F3,957.0,0.25,62,139.29
5957,G4,957.0,0.25,66,139.29
5958,E4,957.0,0.25,66,139.29
5959,E5,957.25,0.25,69,139.29
5960,G#3,957.25,0.25,64,139.29
5961,C4,957.5,0.25,70,139.29
5962,F4,957.5,0.25,69,139.29
5963,G#4,957.5,0.25,69,139.29
5964,F5,957.5,0.25,69,139.29
5965,C4,957.75,0.25,74,139.29
5966,C#4,957.75,0.25,64,139.29
5967,F4,958.0,0.25,76,139.29
5968,C4,958.0,0.25,64,139.29
5969,G#4,958.25,0.25,78,139.29
5970,B-3,958.25,0.25,64,139.29
5971,C5,958.5,0.25,80,139.29
5972,G#3,958.5,0.25,70,139.29
5973,C#5,958.75,0.25,76,139.29
5974,G3,958.75,0.25,63,139.29
5975,C5,959.0,0.25,76,139.29
5976,F3,959.0,0.25,63,139.29
5977,B-4,959.25,0.25,76,139.29
5978,E-3,959.25,0.25,63,139.29
5979,G#4,959.5,0.25,77,139.29
5980,C#3,959.5,0.25,67,139.29
5981,B-4,959.75,0.25,71,139.29
5982,C3,959.75,0.25,60,139.29
5983,G#4,960.0,0.25,72,139.29
5984,B-2,960.0,0.25,60,139.29
5985,G4,960.25,0.25,72,139.29
5986,G#2,960.25,0.25,60,139.29
5987,F4,960.5,0.25,78,139.29
5988,G2,960.5,0.25,71,139.29
5989,E-4,960.75,0.25,73,139.29
5990,G#2,960.75,0.25,65,139.29
5991,C#4,961.0,0.25,73,139.29
5992,B-2,961.0,0.25,73,139.29
5993,C4,961.25,0.25,72,139.29
5994,G#2,961.25,0.25,69,139.29
5995,B-3,961.5,0.25,75,139.29
5996,G2,961.5,0.25,73,139.29
5997,G#3,961.75,0.25,70,139.29
5998,F2,961.75,0.25,73,139.29
5999,F#3,962.0,0.25,70,139.29
6000,E2,962.0,0.25,72,139.29
6001,F3,962.25,0.25,70,139.29
6002,D2,962.25,0.25,72,139.29
6003,E3,962.5,0.5,73,139.29
6004,C2,962.5,0.25,71,139.29
6005,B-1,962.75,0.25,71,139.29
6006,G#1,963.0,0.25,70,139.29
6007,C3,963.0,0.375,72,139.29
6008,E3,963.0,0.375,72,139.29
6009,F#3,963.0,0.375,72,139.29
6010,C4,963.0,0.375,72,139.29
6011,G1,963.25,0.25,70,139.29
6012,C3,963.5,0.375,67,139.29
6013,E3,963.5,0.375,67,139.29
6014,B-3,963.5,0.375,67,139.29
6015,C4,963.5,0.375,67,139.29
6016,F1,963.5,0.5,70,139.29
6017,G#1,963.5,0.5,70,139.29
6018,C2,963.5,0.5,70,139.29
6019,F2,963.5,0.5,70,139.29
6020,C3,964.0,0.375,66,139.29
6021,E3,964.0,0.375,66,139.29
6022,B-3,964.0,0.375,66,139.29
6023,C4,964.0,0.375,66,139.29
6024,C3,964.5,0.375,66,139.29
6025,E3,964.5,0.375,66,139.29
6026,B-3,964.5,0.375,66,139.29
6027,C4,964.5,0.375,66,139.29
6028,C4,964.75,0.25,59,139.29
6029,F4,965.0,0.25,62,139.29
6030,C3,965.0,0.375,66,139.29
6031,E3,965.0,0.375,66,139.29
6032,B-3,965.0,0.375,66,139.29
6033,C4,965.0,0.375,66,139.29
6034,G#4,965.25,0.25,64,139.29
6035,C5,965.5,0.25,70,139.29
6036,C3,965.5,0.25,77,139.29
6037,F3,965.5,0.25,77,139.29
6038,G#3,965.5,0.25,77,139.29
6039,C4,965.5,0.25,77,139.29
6040,C5,965.75,0.25,74,139.29
6041,C#5,965.75,0.25,64,139.29
6042,F5,966.0,0.25,76,139.29
6043,C5,966.0,0.25,64,139.29
6044,G#5,966.25,0.25,78,139.29
6045,B-4,966.25,0.25,64,139.29
6046,C6,966.5,0.25,80,139.29
6047,G#4,966.5,0.25,70,139.29
6048,C#6,966.75,0.25,76,139.29
6049,G4,966.75,0.25,63,139.29
6050,C6,967.0,0.25,76,139.29
6051,F4,967.0,0.25,63,139.29
6052,B-5,967.25,0.25,76,139.29
6053,E-4,967.25,0.25,63,139.29
6054,G#5,967.5,0.25,77,139.29
6055,C#4,967.5,0.25,67,139.29
6056,B-5,967.75,0.25,71,139.29
6057,C4,967.75,0.25,60,139.29
6058,G#5,968.0,0.25,72,139.29
6059,B-3,968.0,0.25,60,139.29
6060,G5,968.25,0.25,72,139.29
6061,G#3,968.25,0.25,60,139.29
6062,F5,968.5,0.25,78,139.29
6063,G3,968.5,0.25,71,139.29
6064,E-5,968.75,0.25,73,139.29
6065,G#3,968.75,0.25,65,139.29
6066,C#5,969.0,0.25,73,139.29
6067,B-3,969.0,0.25,73,139.29
6068,C5,969.25,0.25,72,139.29
6069,G#3,969.25,0.25,69,139.29
6070,B-4,969.5,0.25,75,139.29
6071,G3,969.5,0.25,73,139.29
6072,G#4,969.75,0.25,70,139.29
6073,F3,969.75,0.25,73,139.29
6074,G4,970.0,0.25,70,139.29
6075,E3,970.0,0.25,72,139.29
6076,F4,970.25,0.25,70,139.29
6077,D3,970.25,0.25,72,139.29
6078,E4,970.5,0.5,73,139.29
6079,C3,970.5,0.25,71,139.29
6080,B-2,970.75,0.25,71,139.29
6081,G#2,971.0,0.25,70,139.29
6082,C4,971.0,0.375,70,139.29
6083,E4,971.0,0.375,70,139.29
6084,G4,971.0,0.375,70,139.29
6085,C5,971.0,0.375,70,139.29
6086,G2,971.25,0.25,70,139.29
6087,F2,971.5,0.25,67,139.29
6088,C4,971.5,0.375,64,139.29
6089,E4,971.5,0.375,64,139.29
6090,B-4,971.5,0.375,64,139.29
6091,C5,971.5,0.375,64,139.29
6092,G2,971.75,0.25,60,139.29
6093,G#2,972.0,0.25,60,139.29
6094,C4,972.0,0.375,62,139.29
6095,E4,972.0,0.375,62,139.29
6096,B-4,972.0,0.375,62,139.29
6097,C5,972.0,0.375,62,139.29
6098,B-2,972.25,0.25,60,139.29
6099,C3,972.5,0.25,71,139.29
6100,C4,972.5,0.375,64,139.29
6101,E4,972.5,0.375,64,139.29
6102,B-4,972.5,0.375,64,139.29
6103,C5,972.5,0.375,64,139.29
6104,D3,972.75,0.25,65,139.29
6105,E3,973.0,0.25,73,139.29
6106,C4,973.0,0.375,63,139.29
6107,E4,973.0,0.375,63,139.29
6108,B-4,973.0,0.375,63,139.29
6109,C5,973.0,0.375,63,139.29
6110,F3,973.25,0.25,69,139.29
6111,G3,973.5,0.25,73,139.29
6112,C4,973.5,0.5,64,139.29
6113,F4,973.5,0.5,64,139.29
6114,G#4,973.5,0.5,64,139.29
6115,C5,973.5,0.5,64,139.29
6116,F3,973.75,0.25,73,139.29
6117,E3,974.0,0.25,72,139.29
6118,D3,974.25,0.25,72,139.29
6119,C3,974.5,0.25,71,139.29
6120,B-2,974.75,0.25,71,139.29
6121,G#2,975.0,0.25,70,139.29
6122,C5,975.0,0.375,76,139.29
6123,F5,975.0,0.375,76,139.29
6124,G#5,975.0,0.375,76,139.29
6125,C6,975.0,0.375,76,139.29
6126,G2,975.25,0.25,70,139.29
6127,F2,975.5,0.25,67,139.29
6128,C5,975.5,0.375,71,139.29
6129,E5,975.5,0.375,71,139.29
6130,B-5,975.5,0.375,71,139.29
6131,C6,975.5,0.375,71,139.29
6132,G2,975.75,0.25,60,139.29
6133,G#2,976.0,0.25,60,139.29
6134,C5,976.0,0.375,68,139.29
6135,E5,976.0,0.375,68,139.29
6136,B-5,976.0,0.375,68,139.29
6137,C6,976.0,0.375,68,139.29
6138,B-2,976.25,0.25,60,139.29
6139,C3,976.5,0.25,71,139.29
6140,C5,976.5,0.375,71,139.29
6141,E5,976.5,0.375,71,139.29
6142,B-5,976.5,0.375,71,139.29
6143,C6,976.5,0.375,71,139.29
6144,D3,976.75,0.25,65,139.29
6145,E3,977.0,0.25,73,139.29
6146,C5,977.0,0.375,70,139.29
6147,E5,977.0,0.375,70,139.29
6148,B-5,977.0,0.375,70,139.29
6149,C6,977.0,0.375,70,139.29
6150,F3,977.25,0.25,69,139.29
6151,G3,977.5,0.25,73,139.29
6152,C5,977.5,0.375,71,139.29
6153,F5,977.5,0.375,71,139.29
6154,G#5,977.5,0.375,71,139.29
6155,C6,977.5,0.375,71,139.29
6156,F3,977.75,0.25,73,139.29
6157,E3,978.0,0.25,72,139.29
6158,D3,978.25,0.25,72,139.29
6159,C3,978.5,0.25,71,139.29
6160,B-2,978.75,0.25,71,139.29
6161,G#2,979.0,0.25,70,139.29
6162,C4,979.0,0.375,70,139.29
6163,F4,979.0,0.375,70,139.29
6164,G#4,979.0,0.375,70,139.29
6165,C5,979.0,0.375,70,139.29
6166,G2,979.25,0.25,70,139.29
6167,F2,979.5,1.0,67,139.29
6168,C4,979.5,0.375,64,139.29
6169,E4,979.5,0.375,64,139.29
6170,B-4,979.5,0.375,64,139.29
6171,C5,979.5,0.375,64,139.29
6172,C4,980.0,0.375,62,139.29
6173,E4,980.0,0.375,62,139.29
6174,B-4,980.0,0.375,62,139.29
6175,C5,980.0,0.375,62,139.29
6176,C4,980.5,0.375,64,139.29
6177,E4,980.5,0.375,64,139.29
6178,B-4,980.5,0.375,64,139.29
6179,C5,980.5,0.375,64,139.29
6180,C4,981.0,0.375,63,139.29
6181,E4,981.0,0.375,63,139.29
6182,B-4,981.0,0.375,63,139.29
6183,C5,981.0,0.375,63,139.29
6184,C3,981.0,0.375,63,139.29
6185,C2,981.0,0.375,63,139.29
6186,F2,981.0,0.375,63,139.29
6187,G#2,981.0,0.375,63,139.29
6188,C4,981.5,0.25,73,139.29
6189,F4,981.5,0.25,73,139.29
6190,G#4,981.5,0.25,73,139.29
6191,C5,981.5,0.25,73,139.29
6192,G2,981.5,0.375,64,139.29
6193,E2,981.5,0.375,64,139.29
6194,B-2,981.5,0.375,64,139.29
6195,C2,981.5,0.375,64,139.29
6196,C3,981.5,0.375,64,139.29
6197,G4,981.75,0.25,74,139.29
6198,G#4,982.0,0.25,75,139.29
6199,G2,982.0,0.375,63,139.29
6200,C2,982.0,0.375,63,139.29
6201,E2,982.0,0.375,63,139.29
6202,B-2,982.0,0.375,63,139.29
6203,C3,982.0,0.375,63,139.29
6204,B-4,982.25,0.25,76,139.29
6205,C5,982.5,0.25,77,139.29
6206,G2,982.5,0.375,59,139.29
6207,E2,982.5,0.375,59,139.29
6208,C2,982.5,0.375,59,139.29
6209,B-2,982.5,0.375,59,139.29
6210,C3,982.5,0.375,59,139.29
6211,D5,982.75,0.25,78,139.29
6212,E5,983.0,0.25,79,139.29
6213,G2,983.0,0.375,60,139.29
6214,B-2,983.0,0.375,60,139.29
6215,C2,983.0,0.375,60,139.29
6216,E2,983.0,0.375,60,139.29
6217,C3,983.0,0.375,60,139.29
6218,F5,983.25,0.25,80,139.29
6219,G5,983.5,0.25,80,139.29
6220,C2,983.5,1.0,59,139.29
6221,C3,983.5,1.0,59,139.29
6222,G#2,983.5,1.0,59,139.29
6223,F2,983.5,1.0,59,139.29
6224,F5,983.75,0.25,79,139.29
6225,E5,984.0,0.25,79,139.29
6226,C#5,984.25,0.25,78,139.29
6227,C5,984.5,0.25,77,139.29
6228,B-4,984.75,0.25,76,139.29
6229,G#4,985.0,0.25,75,139.29
6230,C4,985.0,0.375,63,139.29
6231,C3,985.0,0.375,63,139.29
6232,F3,985.0,0.375,63,139.29
6233,G#3,985.0,0.375,63,139.29
6234,G4,985.25,0.25,74,139.29
6235,F4,985.5,0.25,73,139.29
6236,G3,985.5,0.375,64,139.29
6237,E3,985.5,0.375,64,139.29
6238,B-3,985.5,0.375,64,139.29
6239,C3,985.5,0.375,64,139.29
6240,C4,985.5,0.375,64,139.29
6241,G4,985.75,0.25,74,139.29
6242,G#4,986.0,0.25,75,139.29
6243,G3,986.0,0.375,63,139.29
6244,C3,986.0,0.375,63,139.29
6245,E3,986.0,0.375,63,139.29
6246,B-3,986.0,0.375,63,139.29
6247,C4,986.0,0.375,63,139.29
6248,B-4,986.25,0.25,76,139.29
6249,C5,986.5,0.25,77,139.29
6250,G3,986.5,0.375,59,139.29
6251,E3,986.5,0.375,59,139.29
6252,C3,986.5,0.375,59,139.29
6253,B-3,986.5,0.375,59,139.29
6254,C4,986.5,0.375,59,139.29
6255,D5,986.75,0.25,78,139.29
6256,E5,987.0,0.25,79,139.29
6257,G3,987.0,0.375,60,139.29
6258,B-3,987.0,0.375,60,139.29
6259,C3,987.0,0.375,60,139.29
6260,E3,987.0,0.375,60,139.29
6261,C4,987.0,0.375,60,139.29
6262,F5,987.25,0.25,80,139.29
6263,G5,987.5,0.25,80,139.29
6264,C3,987.5,1.0,59,139.29
6265,C4,987.5,1.0,59,139.29
6266,G#3,987.5,1.0,59,139.29
6267,F3,987.5,1.0,59,139.29
6268,F5,987.75,0.25,79,139.29
6269,E5,988.0,0.25,79,139.29
6270,C#5,988.25,0.25,78,139.29
6271,C5,988.5,0.25,77,139.29
6272,B-4,988.75,0.25,76,139.29
6273,G#4,989.0,0.25,75,139.29
6274,C3,989.0,0.375,56,139.29
6275,C2,989.0,0.375,56,139.29
6276,F2,989.0,0.375,56,139.29
6277,G#2,989.0,0.375,56,139.29
6278,G4,989.25,0.25,74,139.29
6279,F4,989.5,0.25,73,139.29
6280,G2,989.5,0.375,57,139.29
6281,E2,989.5,0.375,57,139.29
6282,B-2,989.5,0.375,57,139.29
6283,C2,989.5,0.375,57,139.29
6284,C3,989.5,0.375,57,139.29
6285,G4,989.75,0.25,74,139.29
6286,G#4,990.0,0.25,75,139.29
6287,G2,990.0,0.375,56,139.29
6288,C2,990.0,0.375,56,139.29
6289,E2,990.0,0.375,56,139.29
6290,B-2,990.0,0.375,56,139.29
6291,C3,990.0,0.375,56,139.29
6292,B-4,990.25,0.25,76,139.29
6293,C5,990.5,0.25,77,139.29
6294,G2,990.5,0.375,52,139.29
6295,E2,990.5,0.375,52,139.29
6296,C2,990.5,0.375,52,139.29
6297,B-2,990.5,0.375,52,139.29
6298,C3,990.5,0.375,52,139.29
6299,D5,990.75,0.25,78,139.29
6300,E5,991.0,0.25,79,139.29
6301,G2,991.0,0.375,53,139.29
6302,B-2,991.0,0.375,53,139.29
6303,C2,991.0,0.375,53,139.29
6304,E2,991.0,0.375,53,139.29
6305,C3,991.0,0.375,53,139.29
6306,F5,991.25,0.25,80,139.29
6307,G5,991.5,0.25,80,139.29
6308,G2,991.5,0.375,57,139.29
6309,E2,991.5,0.375,57,139.29
6310,B-2,991.5,0.375,57,139.29
6311,C2,991.5,0.375,57,139.29
6312,C3,991.5,0.375,57,139.29
6313,F#5,991.75,0.25,76,139.29
6314,G5,992.0,0.25,79,139.29
6315,G2,992.0,0.375,56,139.29
6316,C2,992.0,0.375,56,139.29
6317,E2,992.0,0.375,56,139.29
6318,B-2,992.0,0.375,56,139.29
6319,C3,992.0,0.375,56,139.29
6320,F#5,992.25,0.25,73,139.29
6321,G5,992.5,0.25,77,139.29
6322,G2,992.5,0.375,52,139.29
6323,E2,992.5,0.375,52,139.29
6324,C2,992.5,0.375,52,139.29
6325,B-2,992.5,0.375,52,139.29
6326,C3,992.5,0.375,52,139.29
6327,F#5,992.75,0.25,72,139.29
6328,G5,993.0,0.25,75,139.29
6329,G2,993.0,0.375,53,139.29
6330,B-2,993.0,0.375,53,139.29
6331,C2,993.0,0.375,53,139.29
6332,E2,993.0,0.375,53,139.29
6333,C3,993.0,0.375,53,139.29
6334,F#5,993.25,0.25,70,139.29
6335,G5,993.5,0.25,77,139.29
6336,G2,993.5,0.375,57,139.29
6337,E2,993.5,0.375,57,139.29
6338,B-2,993.5,0.375,57,139.29
6339,C2,993.5,0.375,57,139.29
6340,C3,993.5,0.375,57,139.29
6341,F#5,993.75,0.25,72,139.29
6342,G5,994.0,0.25,76,139.29
6343,G2,994.0,0.375,56,139.29
6344,C2,994.0,0.375,56,139.29
6345,E2,994.0,0.375,56,139.29
6346,B-2,994.0,0.375,56,139.29
6347,C3,994.0,0.375,56,139.29
6348,F#5,994.25,0.25,72,139.29
6349,G5,994.5,0.25,75,139.29
6350,G2,994.5,0.375,52,139.29
6351,E2,994.5,0.375,52,139.29
6352,C2,994.5,0.375,52,139.29
6353,B-2,994.5,0.375,52,139.29
6354,C3,994.5,0.375,52,139.29
6355,F#5,994.75,0.25,71,139.29
6356,G5,995.0,0.25,74,139.29
6357,C3,995.0,0.375,53,139.29
6358,G2,995.0,0.375,53,139.29
6359,B-2,995.0,0.375,53,139.29
6360,C2,995.0,0.375,53,139.29
6361,E2,995.0,0.375,53,139.29
6362,F#5,995.25,0.25,71,139.29
6363,G5,995.5,0.25,80,139.29
6364,F1,995.5,2.0,65,139.29
6365,G#1,995.5,2.0,65,139.29
6366,C2,995.5,2.0,65,139.29
6367,F2,995.5,2.0,65,139.29
6368,F5,995.75,0.25,79,139.29
6369,E5,996.0,0.25,79,139.29
6370,C#5,996.25,0.25,78,139.29
6371,C5,996.5,0.25,77,139.29
6372,B-4,996.75,0.25,76,139.29
6373,G#4,997.0,0.25,75,139.29
6374,G4,997.25,0.25,74,139.29
6375,G#3,997.5,2.0,100,139.29
6376,C4,997.5,2.0,100,139.29
6377,F4,997.5,2.0,100,139.29
6378,F1,997.5,2.0,65,139.29
6379,G#1,997.5,2.0,65,139.29
6380,C2,997.5,2.0,65,139.29
6381,F2,997.5,2.0,65,139.29
6382,G#3,999.5,2.0,94,139.29
6383,C4,999.5,2.0,94,139.29
6384,G#4,999.5,2.0,94,139.29
6385,C2,999.5,0.25,40,139.29
6386,C3,999.5,0.25,40,139.29
6387,C2,1000.0,0.25,36,139.29
6388,C2,1000.5,0.25,36,139.29
6389,C2,1001.0,0.25,36,139.29
6390,G3,1001.5,0.25,50,139.29
6391,B-3,1001.5,0.25,50,139.29
6392,G4,1001.5,0.25,50,139.29
6393,F1,1001.5,0.25,40,139.29
6394,F2,1001.5,0.25,40,139.29
6395,F2,1002.0,0.25,37,139.29
6396,G3,1002.0,0.25,50,139.29
6397,B-3,1002.0,0.25,50,139.29
6398,E4,1002.0,0.25,50,139.29
6399,F2,1002.5,0.25,37,139.29
6400,G3,1002.5,0.25,46,139.29
6401,B-3,1002.5,0.25,46,139.29
6402,C4,1002.5,0.25,46,139.29
6403,F2,1003.0,0.25,37,139.29
6404,G3,1003.0,0.25,46,139.29
6405,B-3,1003.0,0.25,46,139.29
6406,E4,1003.0,0.25,46,139.29
6407,G#3,1003.5,0.25,50,139.29
6408,C4,1003.5,0.25,50,139.29
6409,F4,1003.5,0.25,50,139.29
6410,C2,1003.5,0.25,40,139.29
6411,C3,1003.5,0.25,40,139.29
6412,C2,1004.0,0.25,36,139.29
6413,G#3,1004.0,0.25,47,139.29
6414,C4,1004.0,0.25,47,139.29
6415,C2,1004.5,0.25,36,139.29
6416,G#3,1004.5,0.25,47,139.29
6417,C4,1004.5,0.25,47,139.29
6418,F4,1004.5,0.25,47,139.29
6419,C2,1005.0,0.25,36,139.29
6420,G#3,1005.0,0.25,47,139.29
6421,C4,1005.0,0.25,47,139.29
6422,G#4,1005.0,0.25,47,139.29
6423,G3,1005.5,0.25,50,139.29
6424,B-3,1005.5,0.25,50,139.29
6425,G4,1005.5,0.25,50,139.29
6426,F1,1005.5,0.25,40,139.29
6427,F2,1005.5,0.25,40,139.29
6428,F2,1006.0,0.25,37,139.29
6429,G3,1006.0,0.25,50,139.29
6430,B-3,1006.0,0.25,50,139.29
6431,E4,1006.0,0.25,50,139.29
6432,F2,1006.5,0.25,38,139.29
6433,G3,1006.5,0.25,46,139.29
6434,B-3,1006.5,0.25,46,139.29
6435,C4,1006.5,0.25,46,139.29
6436,F2,1007.0,0.25,39,139.29
6437,G3,1007.0,0.25,46,139.29
6438,B-3,1007.0,0.25,46,139.29
6439,E4,1007.0,0.25,46,139.29
6440,G1,1007.5,0.25,44,139.29
6441,G#3,1007.5,0.25,50,139.29
6442,C4,1007.5,0.25,50,139.29
6443,F4,1007.5,0.25,50,139.29
6444,G2,1008.0,0.25,39,139.29
6445,G#3,1008.0,0.25,47,139.29
6446,C4,1008.0,0.25,47,139.29
6447,G1,1008.5,0.25,38,139.29
6448,G#3,1008.5,0.25,49,139.29
6449,C4,1008.5,0.25,49,139.29
6450,F4,1008.5,0.25,49,139.29
6451,G1,1009.0,0.25,38,139.29
6452,G#3,1009.0,0.25,50,139.29
6453,C4,1009.0,0.25,50,139.29
6454,G#4,1009.0,0.25,50,139.29
6455,C2,1009.5,1.0,48,139.29
6456,G3,1009.5,0.25,55,139.29
6457,C4,1009.5,0.25,55,139.29
6458,G4,1009.5,0.25,55,139.29
6459,G3,1010.0,0.25,50,139.29
6460,C4,1010.0,0.25,50,139.29
6461,E-4,1010.0,0.25,50,139.29
6462,G3,1010.5,0.25,49,139.29
6463,B3,1010.5,0.25,49,139.29
6464,D4,1010.5,0.25,49,139.29
6465,C2,1011.0,0.125,53,139.29
6466,G3,1011.0,0.25,48,139.29
6467,B3,1011.0,0.25,48,139.29
6468,G4,1011.0,0.25,48,139.29
6469,B-1,1011.125,0.125,55,139.29
6470,G#1,1011.25,0.125,57,139.29
6471,G1,1011.375,0.125,61,139.29
6472,C4,1011.5,1.0,60,139.29
6473,F1,1011.5,2.0,65,139.29
6474,G#1,1011.5,2.0,65,139.29
6475,C2,1011.5,2.0,65,139.29
6476,F2,1011.5,2.0,65,139.29
6477,C4,1013.0,167/1000,75,139.29
6478,D4,1013.167,167/1000,78,139.29
6479,E4,1013.333,167/1000,80,139.29
6480,G#3,1013.5,2.0,100,139.29
6481,C4,1013.5,2.0,100,139.29
6482,F4,1013.5,2.0,100,139.29
6483,F1,1013.5,2.0,65,139.29
6484,G#1,1013.5,2.0,65,139.29
6485,C2,1013.5,2.0,65,139.29
6486,F2,1013.5,2.0,65,139.29
6487,G#3,1015.5,2.0,94,139.29
6488,C4,1015.5,2.0,94,139.29
6489,G#4,1015.5,2.0,94,139.29
6490,C2,1015.5,0.25,40,139.29
6491,C3,1015.5,0.25,40,139.29
6492,C2,1016.0,0.25,36,139.29
6493,C2,1016.5,0.25,36,139.29
6494,C2,1017.0,0.25,36,139.29
6495,G3,1017.5,0.25,50,139.29
6496,B-3,1017.5,0.25,50,139.29
6497,G4,1017.5,0.25,50,139.29
6498,F1,1017.5,0.25,40,139.29
6499,F2,1017.5,0.25,40,139.29
6500,F2,1018.0,0.25,37,139.29
6501,G3,1018.0,0.25,50,139.29
6502,B-3,1018.0,0.25,50,139.29
6503,E4,1018.0,0.25,50,139.29
6504,F2,1018.5,0.25,37,139.29
6505,G3,1018.5,0.25,46,139.29
6506,B-3,1018.5,0.25,46,139.29
6507,C4,1018.5,0.25,46,139.29
6508,F2,1019.0,0.25,37,139.29
6509,G3,1019.0,0.25,46,139.29
6510,B-3,1019.0,0.25,46,139.29
6511,E4,1019.0,0.25,46,139.29
6512,G#3,1019.5,0.25,50,139.29
6513,C4,1019.5,0.25,50,139.29
6514,F4,1019.5,0.25,50,139.29
6515,C2,1019.5,0.25,40,139.29
6516,C3,1019.5,0.25,40,139.29
6517,C2,1020.0,0.25,36,139.29
6518,G#3,1020.0,0.25,47,139.29
6519,C4,1020.0,0.25,47,139.29
6520,C2,1020.5,0.25,36,139.29
6521,G#3,1020.5,0.25,47,139.29
6522,C4,1020.5,0.25,47,139.29
6523,F4,1020.5,0.25,47,139.29
6524,C2,1021.0,0.25,36,139.29
6525,G#3,1021.0,0.25,47,139.29
6526,C4,1021.0,0.25,47,139.29
6527,G#4,1021.0,0.25,47,139.29
6528,G3,1021.5,0.25,50,139.29
6529,B-3,1021.5,0.25,50,139.29
6530,G4,1021.5,0.25,50,139.29
6531,F1,1021.5,0.25,40,139.29
6532,F2,1021.5,0.25,40,139.29
6533,F2,1022.0,0.25,37,139.29
6534,G3,1022.0,0.25,50,139.29
6535,B-3,1022.0,0.25,50,139.29
6536,E4,1022.0,0.25,50,139.29
6537,F2,1022.5,0.25,38,139.29
6538,G3,1022.5,0.25,46,139.29
6539,B-3,1022.5,0.25,46,139.29
6540,C4,1022.5,0.25,46,139.29
6541,F2,1023.0,0.25,39,139.29
6542,G3,1023.0,0.25,46,139.29
6543,B-3,1023.0,0.25,46,139.29
6544,E4,1023.0,0.25,46,139.29
6545,G1,1023.5,0.25,44,139.29
6546,G#3,1023.5,0.25,50,139.29
6547,C4,1023.5,0.25,50,139.29
6548,F4,1023.5,0.25,50,139.29
6549,G2,1024.0,0.25,39,139.29
6550,G#3,1024.0,0.25,47,139.29
6551,C4,1024.0,0.25,47,139.29
6552,G1,1024.5,0.25,38,139.29
6553,G#3,1024.5,0.25,49,139.29
6554,C4,1024.5,0.25,49,139.29
6555,F4,1024.5,0.25,49,139.29
6556,G1,1025.0,0.25,38,139.29
6557,G#3,1025.0,0.25,50,139.29
6558,C4,1025.0,0.25,50,139.29
6559,G#4,1025.0,0.25,50,139.29
6560,C2,1025.5,1.0,48,139.29
6561,G3,1025.5,0.25,55,139.29
6562,C4,1025.5,0.25,55,139.29
6563,G4,1025.5,0.25,55,139.29
6564,G3,1026.0,0.25,50,139.29
6565,C4,1026.0,0.25,50,139.29
6566,E-4,1026.0,0.25,50,139.29
6567,G3,1026.5,0.25,49,139.29
6568,B3,1026.5,0.25,49,139.29
6569,D4,1026.5,0.25,49,139.29
6570,E-2,1027.0,167/1000,63,139.29
6571,G3,1027.0,0.25,48,139.29
6572,B3,1027.0,0.25,48,139.29
6573,G4,1027.0,0.25,48,139.29
6574,F2,1027.167,167/1000,66,139.29
6575,G2,1027.333,167/1000,68,139.29
6576,C4,1027.5,1.0,60,139.29
6577,G#1,1027.5,2.0,65,139.29
6578,C2,1027.5,2.0,65,139.29
6579,E-2,1027.5,2.0,65,139.29
6580,G#2,1027.5,2.0,65,139.29
6581,E-4,1029.0,167/1000,75,139.29
6582,F4,1029.167,167/1000,78,139.29
6583,G4,1029.333,167/1000,80,139.29
6584,C4,1029.5,2.0,100,139.29
6585,E-4,1029.5,2.0,100,139.29
6586,G#4,1029.5,2.0,100,139.29
6587,G#1,1029.5,2.0,65,139.29
6588,C2,1029.5,2.0,65,139.29
6589,E-2,1029.5,2.0,65,139.29
6590,G#2,1029.5,2.0,65,139.29
6591,C4,1031.5,2.0,94,139.29
6592,E-4,1031.5,2.0,94,139.29
6593,C5,1031.5,2.0,94,139.29
6594,E-2,1031.5,0.25,40,139.29
6595,E-3,1031.5,0.25,40,139.29
6596,E-2,1032.0,0.25,36,139.29
6597,E-2,1032.5,0.25,36,139.29
6598,E-2,1033.0,0.25,36,139.29
6599,B-3,1033.5,0.25,50,139.29
6600,C#4,1033.5,0.25,50,139.29
6601,B-4,1033.5,0.25,50,139.29
6602,G#1,1033.5,0.25,40,139.29
6603,G#2,1033.5,0.25,40,139.29
6604,G#2,1034.0,0.25,37,139.29
6605,B-3,1034.0,0.25,50,139.29
6606,C#4,1034.0,0.25,50,139.29
6607,G4,1034.0,0.25,50,139.29
6608,G#2,1034.5,0.25,37,139.29
6609,B-3,1034.5,0.25,46,139.29
6610,C#4,1034.5,0.25,46,139.29
6611,E-4,1034.5,0.25,46,139.29
6612,G#2,1035.0,0.25,37,139.29
6613,B-3,1035.0,0.25,46,139.29
6614,C#4,1035.0,0.25,46,139.29
6615,G4,1035.0,0.25,46,139.29
6616,C4,1035.5,0.25,50,139.29
6617,E-4,1035.5,0.25,50,139.29
6618,G#4,1035.5,0.25,50,139.29
6619,E-2,1035.5,0.25,40,139.29
6620,E-3,1035.5,0.25,40,139.29
6621,E-2,1036.0,0.25,36,139.29
6622,C4,1036.0,0.25,47,139.29
6623,E-4,1036.0,0.25,47,139.29
6624,E-2,1036.5,0.25,36,139.29
6625,C4,1036.5,0.25,47,139.29
6626,E-4,1036.5,0.25,47,139.29
6627,G#4,1036.5,0.25,47,139.29
6628,E-2,1037.0,0.25,36,139.29
6629,C4,1037.0,0.25,47,139.29
6630,E-4,1037.0,0.25,47,139.29
6631,C5,1037.0,0.25,47,139.29
6632,B-3,1037.5,0.25,50,139.29
6633,C#4,1037.5,0.25,50,139.29
6634,B-4,1037.5,0.25,50,139.29
6635,G#1,1037.5,0.25,40,139.29
6636,G#2,1037.5,0.25,40,139.29
6637,G#2,1038.0,0.25,37,139.29
6638,B-3,1038.0,0.25,50,139.29
6639,C#4,1038.0,0.25,50,139.29
6640,G4,1038.0,0.25,50,139.29
6641,G#2,1038.5,0.25,37,139.29
6642,B-3,1038.5,0.25,46,139.29
6643,C#4,1038.5,0.25,46,139.29
6644,E-4,1038.5,0.25,46,139.29
6645,G#2,1039.0,0.25,37,139.29
6646,B-3,1039.0,0.25,46,139.29
6647,C#4,1039.0,0.25,46,139.29
6648,G4,1039.0,0.25,46,139.29
6649,C4,1039.5,0.25,50,139.29
6650,E-4,1039.5,0.25,50,139.29
6651,G#4,1039.5,0.25,50,139.29
6652,F1,1039.5,0.25,42,139.29
6653,F2,1039.5,0.25,42,139.29
6654,F1,1040.0,0.25,37,139.29
6655,C4,1040.0,0.25,47,139.29
6656,E-4,1040.0,0.25,47,139.29
6657,F1,1040.5,0.25,38,139.29
6658,C4,1040.5,0.25,47,139.29
6659,E-4,1040.5,0.25,47,139.29
6660,G#4,1040.5,0.25,47,139.29
6661,F1,1041.0,0.25,38,139.29
6662,C4,1041.0,0.25,47,139.29
6663,E-4,1041.0,0.25,47,139.29
6664,C5,1041.0,0.25,47,139.29
6665,C4,1041.5,0.25,52,139.29
6666,E-4,1041.5,0.25,52,139.29
6667,A4,1041.5,0.25,52,139.29
6668,B-1,1041.5,0.25,43,139.29
6669,B-2,1041.5,0.25,43,139.29
6670,B-2,1042.0,0.25,40,139.29
6671,C4,1042.0,0.25,52,139.29
6672,E-4,1042.0,0.25,52,139.29
6673,F4,1042.0,0.25,52,139.29
6674,B-2,1042.5,0.25,42,139.29
6675,C4,1042.5,0.25,48,139.29
6676,E-4,1042.5,0.25,48,139.29
6677,A4,1042.5,0.25,48,139.29
6678,B-2,1043.0,0.25,42,139.29
6679,C4,1043.0,0.25,49,139.29
6680,E-4,1043.0,0.25,49,139.29
6681,C5,1043.0,0.25,49,139.29
6682,C2,1043.5,0.25,48,139.29
6683,C#4,1043.5,0.25,54,139.29
6684,F4,1043.5,0.25,54,139.29
6685,B-4,1043.5,0.25,54,139.29
6686,C3,1044.0,0.25,43,139.29
6687,C#4,1044.0,0.25,52,139.29
6688,F4,1044.0,0.25,52,139.29
6689,C2,1044.5,0.25,42,139.29
6690,C#4,1044.5,0.25,53,139.29
6691,F4,1044.5,0.25,53,139.29
6692,B-4,1044.5,0.25,53,139.29
6693,C2,1045.0,0.25,42,139.29
6694,C#4,1045.0,0.25,54,139.29
6695,F4,1045.0,0.25,54,139.29
6696,C#5,1045.0,0.25,54,139.29
6697,C4,1045.5,0.25,60,139.29
6698,F4,1045.5,0.25,60,139.29
6699,C5,1045.5,0.25,60,139.29
6700,F1,1045.5,1.0,48,139.29
6701,F2,1045.5,1.0,48,139.29
6702,C4,1046.0,0.25,60,139.29
6703,F4,1046.0,0.25,60,139.29
6704,G#4,1046.0,0.25,60,139.29
6705,C4,1046.5,0.25,53,139.29
6706,E4,1046.5,0.25,53,139.29
6707,G4,1046.5,0.25,53,139.29
6708,E-2,1047.0,167/1000,63,139.29
6709,C4,1047.0,0.25,53,139.29
6710,E4,1047.0,0.25,53,139.29
6711,C5,1047.0,0.25,53,139.29
6712,F2,1047.167,167/1000,66,139.29
6713,G2,1047.333,167/1000,68,139.29
6714,F4,1047.5,1.0,70,139.29
6715,G#1,1047.5,2.0,65,139.29
6716,C2,1047.5,2.0,65,139.29
6717,E-2,1047.5,2.0,65,139.29
6718,G#2,1047.5,2.0,65,139.29
6719,E-4,1049.0,167/1000,75,139.29
6720,F4,1049.167,167/1000,78,139.29
6721,G4,1049.333,167/1000,80,139.29
6722,C4,1049.5,2.0,100,139.29
6723,E-4,1049.5,2.0,100,139.29
6724,G#4,1049.5,2.0,100,139.29
6725,G#1,1049.5,2.0,65,139.29
6726,C2,1049.5,2.0,65,139.29
6727,E-2,1049.5,2.0,65,139.29
6728,G#2,1049.5,2.0,65,139.29
6729,C4,1051.5,2.0,94,139.29
6730,E-4,1051.5,2.0,94,139.29
6731,C5,1051.5,2.0,94,139.29
6732,E-2,1051.5,0.25,40,139.29
6733,E-3,1051.5,0.25,40,139.29
6734,E-2,1052.0,0.25,36,139.29
6735,E-2,1052.5,0.25,36,139.29
6736,E-2,1053.0,0.25,36,139.29
6737,B-3,1053.5,0.25,50,139.29
6738,C#4,1053.5,0.25,50,139.29
6739,B-4,1053.5,0.25,50,139.29
6740,G#1,1053.5,0.25,40,139.29
6741,G#2,1053.5,0.25,40,139.29
6742,G#2,1054.0,0.25,37,139.29
6743,B-3,1054.0,0.25,50,139.29
6744,C#4,1054.0,0.25,50,139.29
6745,G4,1054.0,0.25,50,139.29
6746,G#2,1054.5,0.25,37,139.29
6747,B-3,1054.5,0.25,46,139.29
6748,C#4,1054.5,0.25,46,139.29
6749,E-4,1054.5,0.25,46,139.29
6750,G#2,1055.0,0.25,37,139.29
6751,B-3,1055.0,0.25,46,139.29
6752,C#4,1055.0,0.25,46,139.29
6753,G4,1055.0,0.25,46,139.29
6754,C4,1055.5,0.25,50,139.29
6755,E-4,1055.5,0.25,50,139.29
6756,G#4,1055.5,0.25,50,139.29
6757,E-2,1055.5,0.25,40,139.29
6758,E-3,1055.5,0.25,40,139.29
6759,E-2,1056.0,0.25,36,139.29
6760,C4,1056.0,0.25,47,139.29
6761,E-4,1056.0,0.25,47,139.29
6762,E-2,1056.5,0.25,36,139.29
6763,C4,1056.5,0.25,47,139.29
6764,E-4,1056.5,0.25,47,139.29
6765,G#4,1056.5,0.25,47,139.29
6766,E-2,1057.0,0.25,36,139.29
6767,C4,1057.0,0.25,47,139.29
6768,E-4,1057.0,0.25,47,139.29
6769,C5,1057.0,0.25,47,139.29
6770,B-3,1057.5,0.25,50,139.29
6771,C#4,1057.5,0.25,50,139.29
6772,B-4,1057.5,0.25,50,139.29
6773,G#1,1057.5,0.25,40,139.29
6774,G#2,1057.5,0.25,40,139.29
6775,G#2,1058.0,0.25,37,139.29
6776,B-3,1058.0,0.25,50,139.29
6777,C#4,1058.0,0.25,50,139.29
6778,G4,1058.0,0.25,50,139.29
6779,G#2,1058.5,0.25,37,139.29
6780,B-3,1058.5,0.25,46,139.29
6781,C#4,1058.5,0.25,46,139.29
6782,E-4,1058.5,0.25,46,139.29
6783,G#2,1059.0,0.25,37,139.29
6784,B-3,1059.0,0.25,46,139.29
6785,C#4,1059.0,0.25,46,139.29
6786,G4,1059.0,0.25,46,139.29
6787,C4,1059.5,0.25,50,139.29
6788,E-4,1059.5,0.25,50,139.29
6789,G#4,1059.5,0.25,50,139.29
6790,F1,1059.5,0.25,42,139.29
6791,F2,1059.5,0.25,42,139.29
6792,F1,1060.0,0.25,37,139.29
6793,C4,1060.0,0.25,47,139.29
6794,E-4,1060.0,0.25,47,139.29
6795,F1,1060.5,0.25,38,139.29
6796,C4,1060.5,0.25,47,139.29
6797,E-4,1060.5,0.25,47,139.29
6798,G#4,1060.5,0.25,47,139.29
6799,F1,1061.0,0.25,38,139.29
6800,C4,1061.0,0.25,47,139.29
6801,E-4,1061.0,0.25,47,139.29
6802,C5,1061.0,0.25,47,139.29
6803,C4,1061.5,0.25,52,139.29
6804,E-4,1061.5,0.25,52,139.29
6805,A4,1061.5,0.25,52,139.29
6806,B-1,1061.5,0.25,43,139.29
6807,B-2,1061.5,0.25,43,139.29
6808,B-2,1062.0,0.25,40,139.29
6809,C4,1062.0,0.25,52,139.29
6810,E-4,1062.0,0.25,52,139.29
6811,F4,1062.0,0.25,52,139.29
6812,B-2,1062.5,0.25,42,139.29
6813,C4,1062.5,0.25,48,139.29
6814,E-4,1062.5,0.25,48,139.29
6815,A4,1062.5,0.25,48,139.29
6816,B-2,1063.0,0.25,42,139.29
6817,C4,1063.0,0.25,49,139.29
6818,E-4,1063.0,0.25,49,139.29
6819,C5,1063.0,0.25,49,139.29
6820,C2,1063.5,0.25,48,139.29
6821,C#4,1063.5,0.25,54,139.29
6822,F4,1063.5,0.25,54,139.29
6823,B-4,1063.5,0.25,54,139.29
6824,C3,1064.0,0.25,43,139.29
6825,C#4,1064.0,0.25,52,139.29
6826,F4,1064.0,0.25,52,139.29
6827,C2,1064.5,0.25,42,139.29
6828,C#4,1064.5,0.25,53,139.29
6829,F4,1064.5,0.25,53,139.29
6830,B-4,1064.5,0.25,53,139.29
6831,C2,1065.0,0.25,42,139.29
6832,C#4,1065.0,0.25,54,139.29
6833,F4,1065.0,0.25,54,139.29
6834,C#5,1065.0,0.25,54,139.29
6835,C4,1065.5,0.25,60,139.29
6836,F4,1065.5,0.25,60,139.29
6837,C5,1065.5,0.25,60,139.29
6838,F1,1065.5,0.25,54,139.29
6839,F2,1065.5,0.25,54,139.29
6840,F2,1065.75,1.75,45,139.29
6841,G#2,1066.0,1.5,49,139.29
6842,C4,1066.0,0.25,60,139.29
6843,F4,1066.0,0.25,60,139.29
6844,G#4,1066.0,0.25,60,139.29
6845,C3,1066.25,1.25,52,139.29
6846,F3,1066.5,1.0,67,139.29
6847,C4,1066.5,0.25,53,139.29
6848,E4,1066.5,0.25,53,139.29
6849,G4,1066.5,0.25,53,139.29
6850,C4,1067.0,0.25,53,139.29
6851,E4,1067.0,0.25,53,139.29
6852,C5,1067.0,0.25,53,139.29
6853,F4,1067.5,0.25,70,139.29
6854,F2,1067.5,0.25,45,139.29
6855,G#2,1067.5,0.25,49,139.29
6856,C3,1067.5,0.25,52,139.29
6857,F3,1067.5,0.25,67,139.29
6858,C4,1067.75,0.25,65,139.29
6859,F2,1067.75,1.75,45,139.29
6860,F4,1068.0,0.25,63,139.29
6861,G#2,1068.0,1.5,49,139.29
6862,G#4,1068.25,0.25,62,139.29
6863,C3,1068.25,1.25,52,139.29
6864,C5,1068.5,0.25,62,139.29
6865,F3,1068.5,1.0,67,139.29
6866,C#5,1068.75,0.25,58,139.29
6867,C5,1069.0,0.25,62,139.29
6868,B-4,1069.25,0.25,57,139.29
6869,G#4,1069.5,0.25,65,139.29
6870,F2,1069.5,0.25,45,139.29
6871,G#2,1069.5,0.25,49,139.29
6872,C3,1069.5,0.25,52,139.29
6873,F3,1069.5,0.25,67,139.29
6874,B-4,1069.75,0.25,60,139.29
6875,F2,1069.75,1.75,45,139.29
6876,G#4,1070.0,0.25,60,139.29
6877,G#2,1070.0,1.5,49,139.29
6878,G4,1070.25,0.25,54,139.29
6879,C3,1070.25,1.25,52,139.29
6880,F4,1070.5,0.25,63,139.29
6881,F3,1070.5,1.0,67,139.29
6882,G4,1070.75,0.25,54,139.29
6883,G#4,1071.0,0.25,57,139.29
6884,F4,1071.25,0.25,54,139.29
6885,G#4,1071.5,0.25,67,139.29
6886,F2,1071.5,0.25,45,139.29
6887,G#2,1071.5,0.25,49,139.29
6888,C3,1071.5,0.25,52,139.29
6889,F3,1071.5,0.25,67,139.29
6890,C4,1071.75,0.25,63,139.29
6891,F2,1071.75,1.75,45,139.29
6892,F4,1072.0,0.25,63,139.29
6893,G#2,1072.0,1.5,49,139.29
6894,G#4,1072.25,0.25,60,139.29
6895,C3,1072.25,1.25,52,139.29
6896,C5,1072.5,0.25,63,139.29
6897,F3,1072.5,1.0,67,139.29
6898,C#5,1072.75,0.25,59,139.29
6899,C5,1073.0,0.25,61,139.29
6900,B-4,1073.25,0.25,61,139.29
6901,G#4,1073.5,0.25,64,139.29
6902,B-4,1073.75,0.25,61,139.29
6903,B-2,1073.75,1.75,45,139.29
6904,G#4,1074.0,0.25,60,139.29
6905,C#3,1074.0,1.5,49,139.29
6906,G4,1074.25,0.25,54,139.29
6907,F#3,1074.25,1.25,52,139.29
6908,F4,1074.5,0.25,63,139.29
6909,B-3,1074.5,1.0,67,139.29
6910,G4,1074.75,0.25,54,139.29
6911,G#4,1075.0,0.25,57,139.29
6912,F4,1075.25,0.25,54,139.29
6913,F#4,1075.5,0.25,67,139.29
6914,B-2,1075.5,0.25,45,139.29
6915,C#3,1075.5,0.25,49,139.29
6916,F#3,1075.5,0.25,52,139.29
6917,B-3,1075.5,0.25,67,139.29
6918,C#4,1075.75,0.25,63,139.29
6919,B-2,1075.75,1.75,45,139.29
6920,F#4,1076.0,0.25,63,139.29
6921,C#3,1076.0,1.5,49,139.29
6922,B-4,1076.25,0.25,62,139.29
6923,F#3,1076.25,1.25,52,139.29
6924,C#5,1076.5,0.25,63,139.29
6925,B-3,1076.5,1.0,67,139.29
6926,E-5,1076.75,0.25,61,139.29
6927,C#5,1077.0,0.25,63,139.29
6928,C5,1077.25,0.25,61,139.29
6929,B-4,1077.5,0.25,64,139.29
6930,C5,1077.75,0.25,60,139.29
6931,C3,1077.75,1.75,45,139.29
6932,B-4,1078.0,0.25,60,139.29
6933,G3,1078.0,1.5,49,139.29
6934,G#4,1078.25,0.25,54,139.29
6935,B-3,1078.25,1.25,52,139.29
6936,F#4,1078.5,0.25,63,139.29
6937,C4,1078.5,1.0,67,139.29
6938,G#4,1078.75,0.25,54,139.29
6939,F#4,1079.0,0.25,57,139.29
6940,F4,1079.25,0.25,54,139.29
6941,E4,1079.5,0.25,69,139.29
6942,C3,1079.5,0.25,45,139.29
6943,G3,1079.5,0.25,49,139.29
6944,B-3,1079.5,0.25,52,139.29
6945,C4,1079.5,0.25,67,139.29
6946,F4,1079.75,0.25,63,139.29
6947,C3,1079.75,1.75,45,139.29
6948,G4,1080.0,0.25,63,139.29
6949,G3,1080.0,1.5,49,139.29
6950,G#4,1080.25,0.25,62,139.29
6951,B-3,1080.25,1.25,52,139.29
6952,B-4,1080.5,0.25,63,139.29
6953,C4,1080.5,1.0,67,139.29
6954,G#4,1080.75,0.25,61,139.29
6955,G4,1081.0,0.25,63,139.29
6956,F4,1081.25,0.25,61,139.29
6957,E4,1081.5,0.25,63,139.29
6958,F2,1081.5,0.25,56,139.29
6959,F3,1081.5,0.25,56,139.29
6960,F4,1081.75,0.25,64,139.29
6961,F3,1081.75,1.75,47,139.29
6962,G4,1082.0,0.25,61,139.29
6963,G#3,1082.0,1.5,51,139.29
6964,G#4,1082.25,0.25,54,139.29
6965,C4,1082.25,1.25,54,139.29
6966,B-4,1082.5,0.25,62,139.29
6967,F4,1082.5,1.0,71,139.29
6968,C5,1082.75,0.25,63,139.29
6969,D5,1083.0,0.25,65,139.29
6970,E5,1083.25,0.25,69,139.29
6971,F5,1083.5,0.25,72,139.29
6972,F3,1083.5,0.25,47,139.29
6973,G#3,1083.5,0.25,51,139.29
6974,C4,1083.5,0.25,54,139.29
6975,F4,1083.5,0.25,71,139.29
6976,C5,1083.75,0.25,69,139.29
6977,F3,1083.75,1.75,47,139.29
6978,F5,1084.0,0.25,65,139.29
6979,G#3,1084.0,1.5,51,139.29
6980,G#5,1084.25,0.25,64,139.29
6981,C4,1084.25,1.25,54,139.29
6982,C6,1084.5,0.25,67,139.29
6983,F4,1084.5,1.0,71,139.29
6984,C#6,1084.75,0.25,64,139.29
6985,C6,1085.0,0.25,64,139.29
6986,B-5,1085.25,0.25,64,139.29
6987,G#5,1085.5,0.25,66,139.29
6988,F3,1085.5,0.25,47,139.29
6989,G#3,1085.5,0.25,51,139.29
6990,C4,1085.5,0.25,54,139.29
6991,F4,1085.5,0.25,71,139.29
6992,B-5,1085.75,0.25,63,139.29
6993,F3,1085.75,1.75,47,139.29
6994,G#5,1086.0,0.25,63,139.29
6995,G#3,1086.0,1.5,51,139.29
6996,G5,1086.25,0.25,55,139.29
6997,C4,1086.25,1.25,54,139.29
6998,F5,1086.5,0.25,63,139.29
6999,F4,1086.5,1.0,71,139.29
7000,G5,1086.75,0.25,56,139.29
7001,G#5,1087.0,0.25,60,139.29
7002,F5,1087.25,0.25,55,139.29
7003,G#5,1087.5,0.25,72,139.29
7004,F3,1087.5,0.25,47,139.29
7005,G#3,1087.5,0.25,51,139.29
7006,C4,1087.5,0.25,54,139.29
7007,F4,1087.5,0.25,71,139.29
7008,C5,1087.75,0.25,65,139.29
7009,F3,1087.75,1.75,47,139.29
7010,F5,1088.0,0.25,65,139.29
7011,G#3,1088.0,1.5,51,139.29
7012,G#5,1088.25,0.25,64,139.29
7013,C4,1088.25,1.25,54,139.29
7014,C6,1088.5,0.25,67,139.29
7015,F4,1088.5,1.0,71,139.29
7016,C#6,1088.75,0.25,64,139.29
7017,C6,1089.0,0.25,64,139.29
7018,B-5,1089.25,0.25,64,139.29
7019,G#5,1089.5,0.25,64,139.29
7020,B-5,1089.75,0.25,63,139.29
7021,B-3,1089.75,1.75,47,139.29
7022,G#5,1090.0,0.25,63,139.29
7023,C#4,1090.0,1.5,51,139.29
7024,G5,1090.25,0.25,55,139.29
7025,F#4,1090.25,1.25,54,139.29
7026,F5,1090.5,0.25,63,139.29
7027,B-4,1090.5,1.0,71,139.29
7028,G5,1090.75,0.25,56,139.29
7029,G#5,1091.0,0.25,60,139.29
7030,F5,1091.25,0.25,55,139.29
7031,F#5,1091.5,0.25,71,139.29
7032,B-3,1091.5,0.25,47,139.29
7033,C#4,1091.5,0.25,51,139.29
7034,F#4,1091.5,0.25,54,139.29
7035,B-4,1091.5,0.25,71,139.29
7036,C#5,1091.75,0.25,65,139.29
7037,B-3,1091.75,1.75,47,139.29
7038,F#5,1092.0,0.25,65,139.29
7039,C#4,1092.0,1.5,51,139.29
7040,B-5,1092.25,0.25,64,139.29
7041,F#4,1092.25,1.25,54,139.29
7042,C#6,1092.5,0.25,67,139.29
7043,B-4,1092.5,1.0,71,139.29
7044,E-6,1092.75,0.25,64,139.29
7045,C#6,1093.0,0.25,64,139.29
7046,C6,1093.25,0.25,64,139.29
7047,B-5,1093.5,0.25,67,139.29
7048,C6,1093.75,0.25,63,139.29
7049,C4,1093.75,1.75,47,139.29
7050,B-5,1094.0,0.25,63,139.29
7051,E4,1094.0,1.5,51,139.29
7052,G#5,1094.25,0.25,55,139.29
7053,G4,1094.25,1.25,54,139.29
7054,F#5,1094.5,0.25,63,139.29
7055,C5,1094.5,1.0,71,139.29
7056,G#5,1094.75,0.25,56,139.29
7057,F#5,1095.0,0.25,60,139.29
7058,F5,1095.25,0.25,55,139.29
7059,E5,1095.5,0.25,72,139.29
7060,C4,1095.5,0.25,47,139.29
7061,E4,1095.5,0.25,51,139.29
7062,G4,1095.5,0.25,54,139.29
7063,C5,1095.5,0.25,71,139.29
7064,F5,1095.75,0.25,65,139.29
7065,C3,1095.75,1.75,47,139.29
7066,G5,1096.0,0.25,65,139.29
7067,E3,1096.0,1.5,51,139.29
7068,G#5,1096.25,0.25,64,139.29
7069,G3,1096.25,1.25,54,139.29
7070,B-5,1096.5,0.25,70,139.29
7071,C4,1096.5,1.0,73,139.29
7072,G#5,1096.75,0.25,66,139.29
7073,G5,1097.0,0.25,65,139.29
7074,F5,1097.25,0.25,63,139.29
7075,E5,1097.5,0.25,66,139.29
7076,F2,1097.5,0.25,77,139.29
7077,F3,1097.5,0.25,77,139.29
7078,F5,1097.75,0.25,67,139.29
7079,G5,1098.0,0.25,63,139.29
7080,G#5,1098.25,0.25,55,139.29
7081,B-5,1098.5,0.25,63,139.29
7082,C6,1098.75,0.25,66,139.29
7083,D6,1099.0,0.25,71,139.29
7084,C5,1099.0,0.5,71,139.29
7085,E6,1099.25,0.25,73,139.29
7086,F5,1099.25,0.25,74,139.29
7087,F6,1099.5,0.25,80,139.29
7088,G#5,1099.5,1.5,89,139.29
7089,C5,1099.5,1.5,71,139.29
7090,F5,1099.5,1.5,74,139.29
7091,G#5,1099.75,0.25,75,139.29
7092,C6,1100.0,0.25,70,139.29
7093,F6,1100.25,0.25,70,139.29
7094,G#6,1100.5,1.0,86,139.29
7095,C4,1101.0,0.5,67,139.29
7096,G#6,1101.5,0.25,86,139.29
7097,F4,1101.5,0.5,82,139.29
7098,C6,1101.75,0.25,70,139.29
7099,F6,1102.0,0.25,70,139.29
7100,G#6,1102.25,0.25,73,139.29
7101,C7,1102.5,0.25,77,139.29
7102,G#6,1102.75,0.25,76,139.29
7103,G6,1103.0,0.25,73,139.29
7104,C5,1103.0,0.5,71,139.29
7105,E6,1103.25,0.25,73,139.29
7106,F5,1103.25,0.25,74,139.29
7107,F6,1103.5,0.25,78,139.29
7108,G#5,1103.5,1.5,87,139.29
7109,C5,1103.5,1.5,71,139.29
7110,F5,1103.5,1.5,74,139.29
7111,G#5,1103.75,0.25,75,139.29
7112,C6,1104.0,0.25,70,139.29
7113,F6,1104.25,0.25,70,139.29
7114,G#6,1104.5,1.0,86,139.29
7115,C4,1105.0,0.5,67,139.29
7116,G#6,1105.5,0.25,86,139.29
7117,F4,1105.5,0.5,82,139.29
7118,C6,1105.75,0.25,69,139.29
7119,F6,1106.0,0.25,72,139.29
7120,G#6,1106.25,0.25,75,139.29
7121,C7,1106.5,0.25,77,139.29
7122,G#6,1106.75,0.25,76,139.29
7123,G6,1107.0,0.25,75,139.29
7124,C5,1107.0,0.5,71,139.29
7125,E6,1107.25,0.25,72,139.29
7126,F5,1107.25,0.25,74,139.29
7127,F6,1107.5,0.25,78,139.29
7128,G#5,1107.5,1.5,86,139.29
7129,C5,1107.5,1.5,71,139.29
7130,F5,1107.5,1.5,74,139.29
7131,G#5,1107.75,0.25,75,139.29
7132,C6,1108.0,0.25,70,139.29
7133,F6,1108.25,0.25,70,139.29
7134,G#6,1108.5,1.0,86,139.29
7135,C4,1109.0,0.5,67,139.29
7136,G#6,1109.5,0.25,86,139.29
7137,F4,1109.5,0.5,85,139.29
7138,C6,1109.75,0.25,69,139.29
7139,F6,1110.0,0.25,72,139.29
7140,G#6,1110.25,0.25,75,139.29
7141,C7,1110.5,0.25,77,139.29
7142,G#6,1110.75,0.25,76,139.29
7143,G6,1111.0,0.25,75,139.29
7144,C5,1111.0,0.5,71,139.29
7145,E6,1111.25,0.25,73,139.29
7146,F5,1111.25,0.25,74,139.29
7147,F6,1111.5,0.25,77,139.29
7148,G#5,1111.5,1.5,88,139.29
7149,C5,1111.5,1.5,71,139.29
7150,F5,1111.5,1.5,74,139.29
7151,G#5,1111.75,0.25,75,139.29
7152,C6,1112.0,0.25,70,139.29
7153,F6,1112.25,0.25,70,139.29
7154,G#6,1112.5,1.0,86,139.29
7155,C4,1113.0,0.5,66,139.29
7156,G#6,1113.5,0.25,86,139.29
7157,F4,1113.5,1.0,88,139.29
7158,C6,1113.75,0.25,70,139.29
7159,F6,1114.0,0.25,72,139.29
7160,G#6,1114.25,0.25,75,139.29
7161,C7,1114.5,0.25,76,139.29
7162,G#6,1114.75,0.25,76,139.29
7163,G6,1115.0,0.25,75,139.29
7164,C4,1115.0,0.5,67,139.29
7165,E6,1115.25,0.25,73,139.29
7166,F6,1115.5,0.25,77,139.29
7167,F3,1115.5,1.0,89,139.29
7168,C6,1115.75,0.25,72,139.29
7169,F6,1116.0,0.25,72,139.29
7170,G#6,1116.25,0.25,76,139.29
7171,C7,1116.5,0.25,79,139.29
7172,G#6,1116.75,0.25,78,139.29
7173,G6,1117.0,0.25,77,139.29
7174,C3,1117.0,0.5,66,139.29
7175,E6,1117.25,0.25,76,139.29
7176,F6,1117.5,0.25,79,139.29
7177,F2,1117.5,1.0,92,139.29
7178,C6,1117.75,0.25,75,139.29
7179,F6,1118.0,0.25,77,139.29
7180,G#6,1118.25,0.25,80,139.29
7181,C7,1118.5,0.25,80,139.29
7182,G#6,1118.75,0.25,79,139.29
7183,G6,1119.0,0.25,77,139.29
7184,C2,1119.0,0.5,63,139.29
7185,E6,1119.25,0.25,77,139.29
7186,F6,1119.5,0.25,89,139.29
7187,F1,1119.5,0.5,87,139.29
7188,C6,1119.75,0.25,82,139.29
7189,F6,1120.0,0.25,85,139.29
7190,C2,1120.0,0.5,65,139.29
7191,G#6,1120.25,0.25,88,139.29
7192,C7,1120.5,0.25,84,139.29
7193,F1,1120.5,0.5,89,139.29
7194,G#6,1120.75,0.25,82,139.29
7195,G6,1121.0,0.25,82,139.29
7196,C2,1121.0,0.5,64,139.29
7197,E6,1121.25,0.25,80,139.29
7198,C7,1121.5,0.25,89,139.29
7199,F1,1121.5,0.25,72,139.29
7200,G#6,1121.75,0.25,75,139.29
7201,G#1,1121.75,0.25,63,139.29
7202,G6,1122.0,0.25,79,139.29
7203,C2,1122.0,0.25,63,139.29
7204,E6,1122.25,0.25,84,139.29
7205,F2,1122.25,0.25,63,139.29
7206,C7,1122.5,0.25,90,139.29
7207,F1,1122.5,0.25,72,139.29
7208,G#6,1122.75,0.25,89,139.29
7209,G#1,1122.75,0.25,63,139.29
7210,G6,1123.0,0.25,87,139.29
7211,C2,1123.0,0.25,63,139.29
7212,E6,1123.25,0.25,89,139.29
7213,F2,1123.25,0.25,63,139.29
7214,C7,1123.5,0.25,93,139.29
7215,F1,1123.5,0.25,72,139.29
7216,G#6,1123.75,0.25,79,139.29
7217,G#1,1123.75,0.25,63,139.29
7218,F6,1124.0,0.25,80,139.29
7219,C2,1124.0,0.25,63,139.29
7220,C6,1124.25,0.25,80,139.29
7221,F2,1124.25,0.25,63,139.29
7222,G#6,1124.5,0.25,93,139.29
7223,F1,1124.5,0.25,72,139.29
7224,F6,1124.75,0.25,82,139.29
7225,G#1,1124.75,0.25,63,139.29
7226,C6,1125.0,0.25,82,139.29
7227,C2,1125.0,0.25,63,139.29
7228,G#5,1125.25,0.25,82,139.29
7229,F2,1125.25,0.25,63,139.29
7230,F6,1125.5,0.25,93,139.29
7231,F1,1125.5,0.25,72,139.29
7232,C6,1125.75,0.25,81,139.29
7233,G#1,1125.75,0.25,63,139.29
7234,G#5,1126.0,0.25,81,139.29
7235,C2,1126.0,0.25,63,139.29
7236,F5,1126.25,0.25,82,139.29
7237,F2,1126.25,0.25,63,139.29
7238,C6,1126.5,0.25,93,139.29
7239,F1,1126.5,0.25,72,139.29
7240,G#5,1126.75,0.25,81,139.29
7241,G#1,1126.75,0.25,63,139.29
7242,F5,1127.0,0.25,81,139.29
7243,C2,1127.0,0.25,63,139.29
7244,C5,1127.25,0.25,81,139.29
7245,F2,1127.25,0.25,63,139.29
7246,G#5,1127.5,0.25,93,139.29
7247,F1,1127.5,0.25,72,139.29
7248,F5,1127.75,0.25,80,139.29
7249,G#1,1127.75,0.25,63,139.29
7250,C5,1128.0,0.25,80,139.29
7251,C2,1128.0,0.25,63,139.29
7252,G#4,1128.25,0.25,80,139.29
7253,F2,1128.25,0.25,63,139.29
7254,F5,1128.5,0.25,93,139.29
7255,F1,1128.5,0.25,72,139.29
7256,C5,1128.75,0.25,82,139.29
7257,G#1,1128.75,0.25,63,139.29
7258,G#4,1129.0,0.25,81,139.29
7259,C2,1129.0,0.25,63,139.29
7260,F4,1129.25,0.25,81,139.29
7261,F2,1129.25,0.25,63,139.29
7262,C5,1129.5,0.25,93,139.29
7263,F1,1129.5,0.25,72,139.29
7264,G#4,1129.75,0.25,80,139.29
7265,G#1,1129.75,0.25,63,139.29
7266,F4,1130.0,0.25,80,139.29
7267,C2,1130.0,0.25,63,139.29
7268,C4,1130.25,0.25,80,139.29
7269,F2,1130.25,0.25,63,139.29
7270,G#4,1130.5,0.25,93,139.29
7271,F1,1130.5,0.25,72,139.29
7272,F4,1130.75,0.25,80,139.29
7273,G#1,1130.75,0.25,63,139.29
7274,C4,1131.0,0.25,81,139.29
7275,C2,1131.0,0.25,63,139.29
7276,G#3,1131.25,0.25,81,139.29
7277,F2,1131.25,0.25,63,139.29
7278,F4,1131.5,0.25,93,139.29
7279,F1,1131.5,0.25,72,139.29
7280,C4,1131.75,0.25,81,139.29
7281,G#1,1131.75,0.25,63,139.29
7282,G#3,1132.0,0.25,81,139.29
7283,C2,1132.0,0.25,63,139.29
7284,F3,1132.25,0.25,81,139.29
7285,F2,1132.25,0.25,63,139.29
7286,C4,1132.5,0.25,93,139.29
7287,F1,1132.5,0.25,72,139.29
7288,G#3,1132.75,0.25,81,139.29
7289,G#1,1132.75,0.25,63,139.29
7290,F3,1133.0,0.25,81,139.29
7291,C2,1133.0,0.25,63,139.29
7292,C3,1133.25,0.25,81,139.29
7293,F2,1133.25,0.25,63,139.29
7294,G#3,1133.5,0.25,93,139.29
7295,F1,1133.5,0.5,72,139.29
7296,G#1,1133.5,0.5,72,139.29
7297,C2,1133.5,0.5,72,139.29
7298,F2,1133.5,0.5,72,139.29
7299,F3,1133.75,0.25,81,139.29
7300,C3,1134.0,0.25,81,139.29
7301,G#2,1134.25,0.25,81,139.29
7302,F3,1134.5,0.25,93,139.29
7303,C3,1134.75,0.25,85,139.29
7304,G#2,1135.0,0.25,80,139.29
7305,C3,1135.25,0.25,80,139.29
7306,F2,1135.5,0.5,94,139.29
7307,G#2,1135.5,0.5,94,139.29
7308,C3,1135.5,0.5,94,139.29
7309,F3,1135.5,0.5,94,139.29
7310,F1,1135.5,0.5,75,139.29
7311,G#1,1135.5,0.5,75,139.29
7312,C2,1135.5,0.5,75,139.29
7313,F2,1135.5,0.5,75,139.29
7314,F4,1137.5,0.5,98,139.29
7315,G#4,1137.5,0.5,98,139.29
7316,C5,1137.5,0.5,98,139.29
7317,F5,1137.5,0.5,98,139.29
7318,F1,1137.5,0.5,75,139.29
7319,G#1,1137.5,0.5,75,139.29
7320,C2,1137.5,0.5,75,139.29
7321,F2,1137.5,0.5,75,139.29
7322,F3,1139.5,0.5,98,139.29
7323,G#3,1139.5,0.5,98,139.29
7324,C4,1139.5,0.5,98,139.29
7325,F4,1139.5,0.5,98,139.29
