,note_name,start_time,duration,velocity,tempo
0,C#2,0.0,1.0,47,42.26
1,C#3,0.0,1.0,42,42.26
2,F3,0.0,1.0,42,42.26
3,G#3,0.0,1.0,42,42.26
4,F#1,1.0,1.0,35,42.26
5,C#3,1.0,1.0,42,42.26
6,B-3,1.0,1.0,42,42.26
7,F#3,1.0,1.0,42,42.26
8,C#2,2.0,1.5,37,42.26
9,C#3,2.0,1.5,39,42.26
10,F3,2.0,1.5,39,42.26
11,G#3,2.0,1.5,39,42.26
12,F#1,3.5,0.5,35,42.26
13,B-3,3.5,0.5,39,42.26
14,E-3,3.5,0.5,39,42.26
15,C#3,3.5,0.5,39,42.26
16,G#1,4.0,1.0,40,42.26
17,C#3,4.0,1.0,42,42.26
18,E-3,4.0,1.0,42,42.26
19,G#3,4.0,1.0,42,42.26
20,G#2,5.0,0.875,40,42.26
21,G#3,5.0,1.0,41,42.26
22,C3,5.0,1.0,41,42.26
23,E-3,5.0,1.0,41,42.26
24,F#2,5.875,0.125,36,42.26
25,F2,6.0,0.75,43,42.26
26,C#3,6.0,2.0,42,42.26
27,F3,6.0,2.0,42,42.26
28,G#3,6.0,2.0,42,42.26
29,F#2,6.75,0.25,36,42.26
30,G#2,7.0,0.375,41,42.26
31,F#2,7.375,0.125,37,42.26
32,F2,7.5,0.375,40,42.26
33,E-2,7.875,0.125,40,42.26
34,C#4,8.0,1.0,48,42.26
35,G#3,8.0,1.0,48,42.26
36,F3,8.0,1.0,48,42.26
37,C#2,8.0,1.0,42,42.26
38,C#3,8.0,1.0,42,42.26
39,F#3,9.0,1.0,50,42.26
40,B-3,9.0,1.0,50,42.26
41,C#4,9.0,1.0,50,42.26
42,F#2,9.0,1.0,44,42.26
43,F#1,9.0,1.0,44,42.26
44,G#3,10.0,1.5,39,42.26
45,F3,10.0,1.5,39,42.26
46,C#4,10.0,1.5,39,42.26
47,C#2,10.0,1.5,30,42.26
48,C#3,10.0,1.5,30,42.26
49,E3,11.5,0.5,39,42.26
50,C#4,11.5,0.5,39,42.26
51,G3,11.5,0.5,39,42.26
52,A1,11.5,0.5,33,42.26
53,A2,11.5,0.5,33,42.26
54,F#3,12.0,1.0,42,42.26
55,E-3,12.0,1.0,42,42.26
56,C#4,12.0,1.0,42,42.26
57,G#1,12.0,1.0,34,42.26
58,G#2,12.0,1.0,34,42.26
59,G#2,13.0,1.0,34,42.26
60,E-3,13.0,1.0,39,42.26
61,C4,13.0,1.0,39,42.26
62,F#3,13.0,1.0,39,42.26
63,G#2,14.0,0.375,34,42.26
64,C#3,14.0,1.5,39,42.26
65,F3,14.0,1.5,39,42.26
66,C#4,14.0,1.5,39,42.26
67,F#2,14.375,0.125,28,42.26
68,F2,14.5,0.375,32,42.26
69,E-2,14.875,0.125,27,42.26
70,C#2,15.0,0.5,27,42.26
71,C#2,16.0,1.0,47,42.26
72,C#3,16.0,1.0,42,42.26
73,F3,16.0,1.0,42,42.26
74,G#3,16.0,1.0,42,42.26
75,F#1,17.0,1.0,35,42.26
76,C#3,17.0,1.0,42,42.26
77,F#3,17.0,1.0,42,42.26
78,B-3,17.0,1.0,42,42.26
79,C#2,18.0,1.5,37,42.26
80,C#3,18.0,1.5,39,42.26
81,F3,18.0,1.5,39,42.26
82,G#3,18.0,1.5,39,42.26
83,F#1,19.5,0.5,35,42.26
84,C#3,19.5,0.5,39,42.26
85,E-3,19.5,0.5,39,42.26
86,B-3,19.5,0.5,39,42.26
87,G#1,20.0,1.0,40,42.26
88,C#3,20.0,1.0,42,42.26
89,E-3,20.0,1.0,42,42.26
90,G#3,20.0,1.0,42,42.26
91,G#2,21.0,0.875,40,42.26
92,C3,21.0,1.0,41,42.26
93,E-3,21.0,1.0,41,42.26
94,G#3,21.0,1.0,41,42.26
95,F#2,21.875,0.125,36,42.26
96,F2,22.0,0.75,43,42.26
97,C#3,22.0,2.0,42,42.26
98,F3,22.0,2.0,42,42.26
99,G#3,22.0,2.0,42,42.26
100,F#2,22.75,0.25,36,42.26
101,G#2,23.0,0.375,41,42.26
102,F#2,23.375,0.125,37,42.26
103,F2,23.5,0.375,40,42.26
104,E-2,23.875,0.125,40,42.26
105,F3,24.0,1.0,48,42.26
106,G#3,24.0,1.0,48,42.26
107,C#4,24.0,1.0,48,42.26
108,C#2,24.0,1.0,42,42.26
109,C#3,24.0,1.0,42,42.26
110,F#3,25.0,1.0,50,42.26
111,B-3,25.0,1.0,50,42.26
112,C#4,25.0,1.0,50,42.26
113,F#1,25.0,1.0,44,42.26
114,F#2,25.0,1.0,44,42.26
115,F3,26.0,1.5,36,42.26
116,G#3,26.0,1.5,36,42.26
117,C#4,26.0,1.5,36,42.26
118,C#2,26.0,1.5,28,42.26
119,C#3,26.0,1.5,28,42.26
120,E3,27.5,0.5,39,42.26
121,G3,27.5,0.5,39,42.26
122,C#4,27.5,0.5,39,42.26
123,A1,27.5,0.5,33,42.26
124,A2,27.5,0.5,33,42.26
125,E-3,28.0,1.0,42,42.26
126,F#3,28.0,1.0,42,42.26
127,C#4,28.0,1.0,42,42.26
128,G#1,28.0,1.0,34,42.26
129,G#2,28.0,1.0,34,42.26
130,G#2,29.0,1.0,34,42.26
131,E-3,29.0,1.0,39,42.26
132,F#3,29.0,1.0,39,42.26
133,C4,29.0,1.0,39,42.26
134,G#2,30.0,0.375,34,42.26
135,C#3,30.0,1.5,39,42.26
136,F3,30.0,1.5,39,42.26
137,C#4,30.0,1.5,39,42.26
138,F#2,30.375,0.125,28,42.26
139,F2,30.5,0.375,31,42.26
140,E-2,30.875,0.125,27,42.26
141,C#2,31.0,0.5,27,42.26
142,C3,32.0,1.0,42,42.26
143,E-3,32.0,1.0,42,42.26
144,G#3,32.0,1.0,42,42.26
145,F#2,32.0,1.0,40,42.26
146,G#2,32.0,1.0,40,42.26
147,C3,33.0,0.875,42,42.26
148,F#3,33.0,0.875,42,42.26
149,G#3,33.0,0.875,42,42.26
150,E-2,33.0,0.875,35,42.26
151,G#2,33.0,0.875,35,42.26
152,C3,33.875,0.125,42,42.26
153,E-3,33.875,0.125,42,42.26
154,G#3,33.875,0.125,42,42.26
155,F#2,33.875,0.125,35,42.26
156,G#2,33.875,0.125,35,42.26
157,C#3,34.0,0.75,42,42.26
158,F3,34.0,0.75,42,42.26
159,G#3,34.0,0.75,42,42.26
160,F2,34.0,0.75,36,42.26
161,G#2,34.0,0.75,36,42.26
162,F3,34.75,0.25,48,42.26
163,G#3,34.75,0.25,48,42.26
164,C#4,34.75,0.25,48,42.26
165,C#2,34.75,0.25,42,42.26
166,G#2,34.75,0.25,42,42.26
167,G#3,35.0,0.5,44,42.26
168,F#3,35.0,0.5,44,42.26
169,C4,35.0,0.5,44,42.26
170,E-2,35.0,0.5,40,42.26
171,G#2,35.0,0.5,40,42.26
172,F3,35.5,0.5,33,42.26
173,G#3,35.5,0.5,33,42.26
174,C#4,35.5,0.5,33,42.26
175,C#2,35.5,0.5,31,42.26
176,G#2,35.5,0.5,31,42.26
177,C3,36.0,1.0,42,42.26
178,E-3,36.0,1.0,42,42.26
179,G#3,36.0,1.0,42,42.26
180,F#2,36.0,1.0,40,42.26
181,G#2,36.0,1.0,40,42.26
182,C3,37.0,0.875,42,42.26
183,F#3,37.0,0.875,42,42.26
184,G#3,37.0,0.875,42,42.26
185,E-2,37.0,0.875,35,42.26
186,G#2,37.0,0.875,35,42.26
187,C3,37.875,0.125,42,42.26
188,E-3,37.875,0.125,42,42.26
189,G#3,37.875,0.125,42,42.26
190,F#2,37.875,0.125,35,42.26
191,G#2,37.875,0.125,35,42.26
192,C#3,38.0,0.75,42,42.26
193,F3,38.0,0.75,42,42.26
194,G#3,38.0,0.75,42,42.26
195,F2,38.0,0.75,36,42.26
196,G#2,38.0,0.75,36,42.26
197,F3,38.75,0.25,48,42.26
198,G#3,38.75,0.25,48,42.26
199,F4,38.75,0.25,48,42.26
200,C#2,38.75,0.25,42,42.26
201,G#2,38.75,0.25,42,42.26
202,F4,39.0,0.25,58,42.26
203,G#3,39.0,0.5,45,42.26
204,F#3,39.0,0.5,45,42.26
205,C2,39.0,0.5,40,42.26
206,G#2,39.0,0.5,40,42.26
207,E-4,39.25,0.25,51,42.26
208,F3,39.5,0.5,33,42.26
209,G#3,39.5,0.5,33,42.26
210,C#4,39.5,0.5,33,42.26
211,C#2,39.5,0.5,31,42.26
212,G#2,39.5,0.5,31,42.26
213,C3,40.0,1.0,49,42.26
214,E-3,40.0,1.0,49,42.26
215,G#3,40.0,1.0,49,42.26
216,F#2,40.0,1.0,48,42.26
217,G#2,40.0,1.0,48,42.26
218,C3,41.0,0.875,59,42.26
219,F#3,41.0,0.875,59,42.26
220,G#3,41.0,0.875,59,42.26
221,E-2,41.0,0.875,49,42.26
222,G#2,41.0,0.875,49,42.26
223,C3,41.875,0.125,64,42.26
224,E-3,41.875,0.125,64,42.26
225,G#3,41.875,0.125,64,42.26
226,F#2,41.875,0.125,55,42.26
227,G#2,41.875,0.125,55,42.26
228,G#3,42.0,0.75,76,42.26
229,C#4,42.0,0.75,76,42.26
230,G#4,42.0,0.75,76,42.26
231,F2,42.0,0.75,73,42.26
232,F3,42.0,0.75,73,42.26
233,C#4,42.75,0.25,64,42.26
234,F4,42.75,0.25,64,42.26
235,G#4,42.75,0.25,64,42.26
236,C#2,42.75,0.25,50,42.26
237,C#3,42.75,0.25,50,42.26
238,G#4,43.0,0.25,79,42.26
239,E-4,43.0,0.5,61,42.26
240,C4,43.0,0.5,61,42.26
241,E-2,43.0,0.5,57,42.26
242,E-3,43.0,0.5,57,42.26
243,F#4,43.25,0.25,66,42.26
244,G#3,43.5,0.5,48,42.26
245,C#4,43.5,0.5,48,42.26
246,F4,43.5,0.5,48,42.26
247,F2,43.5,0.5,39,42.26
248,F3,43.5,0.5,39,42.26
249,F#2,44.0,1.0,37,42.26
250,F#3,44.0,1.0,42,42.26
251,B-3,44.0,1.0,42,42.26
252,E-4,44.0,1.0,42,42.26
253,G#2,45.0,1.0,34,42.26
254,C3,45.0,1.0,39,42.26
255,E-3,45.0,1.0,39,42.26
256,G#3,45.0,1.0,39,42.26
257,G#2,46.0,0.375,34,42.26
258,C#3,46.0,1.5,39,42.26
259,F3,46.0,1.5,39,42.26
260,C#4,46.0,1.5,39,42.26
261,F#2,46.375,0.125,28,42.26
262,F2,46.5,0.375,30,42.26
263,E-2,46.875,0.125,27,42.26
264,C#2,47.0,0.5,26,42.26
265,C3,48.0,1.0,42,42.26
266,E-3,48.0,1.0,42,42.26
267,G#3,48.0,1.0,42,42.26
268,F#2,48.0,1.0,40,42.26
269,G#2,48.0,1.0,40,42.26
270,C3,49.0,0.875,42,42.26
271,F#3,49.0,0.875,42,42.26
272,G#3,49.0,0.875,42,42.26
273,E-2,49.0,0.875,35,42.26
274,G#2,49.0,0.875,35,42.26
275,C3,49.875,0.125,42,42.26
276,E-3,49.875,0.125,42,42.26
277,G#3,49.875,0.125,42,42.26
278,F#2,49.875,0.125,35,42.26
279,G#2,49.875,0.125,35,42.26
280,C#3,50.0,0.75,42,42.26
281,F3,50.0,0.75,42,42.26
282,G#3,50.0,0.75,42,42.26
283,F2,50.0,0.75,36,42.26
284,G#2,50.0,0.75,36,42.26
285,F3,50.75,0.25,48,42.26
286,G#3,50.75,0.25,48,42.26
287,C#4,50.75,0.25,48,42.26
288,C#2,50.75,0.25,42,42.26
289,G#2,50.75,0.25,42,42.26
290,G#3,51.0,0.5,44,42.26
291,F#3,51.0,0.5,44,42.26
292,C4,51.0,0.5,44,42.26
293,E-2,51.0,0.5,40,42.26
294,G#2,51.0,0.5,40,42.26
295,F3,51.5,0.5,33,42.26
296,G#3,51.5,0.5,33,42.26
297,C#4,51.5,0.5,33,42.26
298,C#2,51.5,0.5,31,42.26
299,G#2,51.5,0.5,31,42.26
300,C3,52.0,1.0,42,42.26
301,E-3,52.0,1.0,42,42.26
302,G#3,52.0,1.0,42,42.26
303,F#2,52.0,1.0,40,42.26
304,G#2,52.0,1.0,40,42.26
305,C3,53.0,0.875,42,42.26
306,F#3,53.0,0.875,42,42.26
307,G#3,53.0,0.875,42,42.26
308,E-2,53.0,0.875,35,42.26
309,G#2,53.0,0.875,35,42.26
310,C3,53.875,0.125,42,42.26
311,E-3,53.875,0.125,42,42.26
312,G#3,53.875,0.125,42,42.26
313,F#2,53.875,0.125,35,42.26
314,G#2,53.875,0.125,35,42.26
315,C#3,54.0,0.75,42,42.26
316,F3,54.0,0.75,42,42.26
317,G#3,54.0,0.75,42,42.26
318,F2,54.0,0.75,36,42.26
319,G#2,54.0,0.75,36,42.26
320,F3,54.75,0.25,48,42.26
321,G#3,54.75,0.25,48,42.26
322,F4,54.75,0.25,48,42.26
323,C#2,54.75,0.25,42,42.26
324,G#2,54.75,0.25,42,42.26
325,F4,55.0,0.25,58,42.26
326,G#3,55.0,0.5,45,42.26
327,F#3,55.0,0.5,45,42.26
328,C2,55.0,0.5,40,42.26
329,G#2,55.0,0.5,40,42.26
330,E-4,55.25,0.25,51,42.26
331,F3,55.5,0.5,33,42.26
332,G#3,55.5,0.5,33,42.26
333,C#4,55.5,0.5,33,42.26
334,C#2,55.5,0.5,31,42.26
335,G#2,55.5,0.5,31,42.26
336,C3,56.0,1.0,49,42.26
337,E-3,56.0,1.0,49,42.26
338,G#3,56.0,1.0,49,42.26
339,F#2,56.0,1.0,48,42.26
340,G#2,56.0,1.0,48,42.26
341,C3,57.0,0.875,59,42.26
342,F#3,57.0,0.875,59,42.26
343,G#3,57.0,0.875,59,42.26
344,E-2,57.0,0.875,49,42.26
345,G#2,57.0,0.875,49,42.26
346,C3,57.875,0.125,64,42.26
347,E-3,57.875,0.125,64,42.26
348,G#3,57.875,0.125,64,42.26
349,F#2,57.875,0.125,55,42.26
350,G#2,57.875,0.125,55,42.26
351,G#3,58.0,0.75,76,42.26
352,C#4,58.0,0.75,76,42.26
353,G#4,58.0,0.75,76,42.26
354,F2,58.0,0.75,73,42.26
355,F3,58.0,0.75,73,42.26
356,C#4,58.75,0.25,65,42.26
357,F4,58.75,0.25,65,42.26
358,G#4,58.75,0.25,65,42.26
359,C#2,58.75,0.25,52,42.26
360,C#3,58.75,0.25,52,42.26
361,G#4,59.0,0.25,79,42.26
362,E-4,59.0,0.5,61,42.26
363,C4,59.0,0.5,61,42.26
364,E-2,59.0,0.5,57,42.26
365,E-3,59.0,0.5,57,42.26
366,F#4,59.25,0.25,66,42.26
367,G#3,59.5,0.5,48,42.26
368,C#4,59.5,0.5,48,42.26
369,F4,59.5,0.5,48,42.26
370,F2,59.5,0.5,39,42.26
371,F3,59.5,0.5,39,42.26
372,F#2,60.0,1.0,37,42.26
373,F#3,60.0,1.0,42,42.26
374,B-3,60.0,1.0,42,42.26
375,E-4,60.0,1.0,42,42.26
376,G#2,61.0,1.0,34,42.26
377,C3,61.0,1.0,39,42.26
378,E-3,61.0,1.0,39,42.26
379,G#3,61.0,1.0,39,42.26
380,G#2,62.0,0.375,34,42.26
381,C#3,62.0,1.5,39,42.26
382,F3,62.0,1.5,39,42.26
383,C#4,62.0,1.5,39,42.26
384,F#2,62.375,0.125,28,42.26
385,F2,62.5,0.375,30,42.26
386,E-2,62.875,0.125,28,42.26
387,C#2,63.0,0.5,26,42.26
388,C#3,64.0,0.5,42,42.26
389,F3,64.0,0.5,42,42.26
390,G#3,64.0,0.5,42,42.26
391,C#2,64.5,1.0,40,42.26
392,C#3,65.0,0.5,39,42.26
393,F#3,65.0,0.5,39,42.26
394,B-3,65.0,0.5,39,42.26
395,F#1,65.5,0.5,31,42.26
396,F#1,66.0,0.5,31,42.26
397,C#3,66.0,0.5,42,42.26
398,F3,66.0,0.5,42,42.26
399,G#3,66.0,0.5,42,42.26
400,G#1,66.5,1.0,39,42.26
401,C#3,67.0,0.5,39,42.26
402,E-3,67.0,0.5,39,42.26
403,B-3,67.0,0.5,39,42.26
404,G1,67.5,0.5,35,42.26
405,G1,68.0,0.5,35,42.26
406,C#3,68.0,0.5,42,42.26
407,E-3,68.0,0.5,42,42.26
408,G#3,68.0,0.5,42,42.26
409,G#1,68.5,1.0,40,42.26
410,C3,69.0,0.5,41,42.26
411,E-3,69.0,0.5,41,42.26
412,G#3,69.0,0.5,41,42.26
413,F#2,69.5,0.5,38,42.26
414,F#3,70.0,0.25,38,42.26
415,F#2,70.0,0.25,38,42.26
416,F2,70.25,0.5,31,42.26
417,F3,70.5,0.25,37,42.26
418,E-2,70.75,0.5,29,42.26
419,E-3,71.0,0.25,36,42.26
420,C#2,71.25,0.5,28,42.26
421,C#3,71.5,0.25,35,42.26
422,C2,71.75,0.25,26,42.26
423,C2,72.0,0.5,26,42.26
424,F3,72.0,0.5,43,42.26
425,G#3,72.0,0.5,43,42.26
426,C#4,72.0,0.5,43,42.26
427,C#2,72.5,1.0,42,42.26
428,F#3,73.0,0.5,43,42.26
429,B-3,73.0,0.5,43,42.26
430,C#4,73.0,0.5,43,42.26
431,F#2,73.5,0.5,32,42.26
432,F#2,74.0,0.5,32,42.26
433,F3,74.0,0.5,43,42.26
434,G#3,74.0,0.5,43,42.26
435,C#4,74.0,0.5,43,42.26
436,G#2,74.5,1.0,40,42.26
437,E3,75.0,0.5,41,42.26
438,G3,75.0,0.5,41,42.26
439,C#4,75.0,0.5,41,42.26
440,A2,75.5,0.5,36,42.26
441,A2,76.0,0.5,36,42.26
442,E-3,76.0,0.5,42,42.26
443,F#3,76.0,0.5,42,42.26
444,C#4,76.0,0.5,42,42.26
445,G#2,76.5,1.0,40,42.26
446,E-3,77.0,0.5,41,42.26
447,F#3,77.0,0.5,41,42.26
448,C4,77.0,0.5,41,42.26
449,G#1,77.5,0.5,38,42.26
450,G#1,78.0,0.25,38,42.26
451,C#3,78.0,0.25,37,42.26
452,F3,78.0,0.25,37,42.26
453,C#4,78.0,0.25,37,42.26
454,C#2,78.25,0.5,34,42.26
455,G#3,78.5,0.25,39,42.26
456,G#2,78.75,0.5,30,42.26
457,F3,79.0,0.25,42,42.26
458,F2,79.25,0.5,34,42.26
459,E-3,79.5,0.25,39,42.26
460,E-2,79.75,0.25,31,42.26
461,E-2,80.0,0.5,31,42.26
462,C#3,80.0,0.5,42,42.26
463,F3,80.0,0.5,42,42.26
464,G#3,80.0,0.5,42,42.26
465,C#2,80.5,1.0,40,42.26
466,C#3,81.0,0.5,39,42.26
467,F#3,81.0,0.5,39,42.26
468,B-3,81.0,0.5,39,42.26
469,F#1,81.5,0.5,31,42.26
470,F#1,82.0,0.5,31,42.26
471,C#3,82.0,0.5,42,42.26
472,F3,82.0,0.5,42,42.26
473,G#3,82.0,0.5,42,42.26
474,G#1,82.5,1.0,39,42.26
475,C#3,83.0,0.5,39,42.26
476,E-3,83.0,0.5,39,42.26
477,B-3,83.0,0.5,39,42.26
478,G1,83.5,0.5,35,42.26
479,G1,84.0,0.5,35,42.26
480,C#3,84.0,0.5,42,42.26
481,E-3,84.0,0.5,42,42.26
482,G#3,84.0,0.5,42,42.26
483,G#1,84.5,1.0,40,42.26
484,C3,85.0,0.5,41,42.26
485,E-3,85.0,0.5,41,42.26
486,G#3,85.0,0.5,41,42.26
487,F#2,85.5,0.5,38,42.26
488,F#3,86.0,0.25,39,42.26
489,F#2,86.0,0.25,38,42.26
490,F2,86.25,0.5,31,42.26
491,F3,86.5,0.25,38,42.26
492,E-2,86.75,0.5,30,42.26
493,E-3,87.0,0.25,38,42.26
494,C#2,87.25,0.5,29,42.26
495,C#3,87.5,0.25,37,42.26
496,C2,87.75,0.25,28,42.26
497,C2,88.0,0.5,28,42.26
498,F3,88.0,0.5,43,42.26
499,G#3,88.0,0.5,43,42.26
500,C#4,88.0,0.5,43,42.26
501,C#2,88.5,1.0,42,42.26
502,F#3,89.0,0.5,43,42.26
503,B-3,89.0,0.5,43,42.26
504,C#4,89.0,0.5,43,42.26
505,F#2,89.5,0.5,32,42.26
506,F#2,90.0,0.5,32,42.26
507,F3,90.0,0.5,43,42.26
508,G#3,90.0,0.5,43,42.26
509,C#4,90.0,0.5,43,42.26
510,G#2,90.5,1.0,40,42.26
511,E3,91.0,0.5,41,42.26
512,G3,91.0,0.5,41,42.26
513,C#4,91.0,0.5,41,42.26
514,A2,91.5,0.5,36,42.26
515,A2,92.0,0.5,36,42.26
516,E-3,92.0,0.5,42,42.26
517,F#3,92.0,0.5,42,42.26
518,C#4,92.0,0.5,42,42.26
519,G#2,92.5,1.0,40,42.26
520,E-3,93.0,0.5,41,42.26
521,F#3,93.0,0.5,41,42.26
522,C4,93.0,0.5,41,42.26
523,G#1,93.5,0.5,38,42.26
524,G#1,94.0,0.25,38,42.26
525,C#3,94.0,0.25,37,42.26
526,F3,94.0,0.25,37,42.26
527,C#4,94.0,0.25,37,42.26
528,C#2,94.25,0.5,34,42.26
529,G#3,94.5,0.25,39,42.26
530,G#2,94.75,0.5,30,42.26
531,F3,95.0,0.25,42,42.26
532,F2,95.25,0.5,34,42.26
533,C#3,95.5,0.25,39,42.26
534,C#2,95.75,0.25,31,42.26
535,C3,96.0,0.5,42,42.26
536,E-3,96.0,0.5,42,42.26
537,G#3,96.0,0.5,42,42.26
538,F#2,96.5,1.0,40,42.26
539,C3,97.0,0.5,41,42.26
540,E-3,97.0,0.5,41,42.26
541,G#3,97.0,0.5,41,42.26
542,F#4,97.5,0.5,57,42.26
543,F#4,98.0,0.25,57,42.26
544,C#3,98.0,0.5,42,42.26
545,F3,98.0,0.5,42,42.26
546,G#3,98.0,0.5,42,42.26
547,F4,98.25,0.25,38,42.26
548,F3,98.5,0.25,45,42.26
549,C#3,98.75,0.25,38,42.26
550,F#3,99.0,0.25,52,42.26
551,E-3,99.25,0.25,45,42.26
552,G#3,99.5,0.25,54,42.26
553,F3,99.75,0.25,45,42.26
554,C3,100.0,0.5,54,42.26
555,E-3,100.0,0.5,54,42.26
556,G#3,100.0,0.5,54,42.26
557,F#2,100.5,1.0,59,42.26
558,E-3,101.0,0.5,53,42.26
559,G#3,101.0,0.5,53,42.26
560,C4,101.0,0.5,53,42.26
561,G#4,101.5,0.5,58,42.26
562,F#4,101.5,0.5,58,42.26
563,F3,102.0,0.5,60,42.26
564,G#3,102.0,0.5,60,42.26
565,C#4,102.0,0.5,60,42.26
566,G#4,102.0,0.25,58,42.26
567,F#4,102.0,0.25,58,42.26
568,F4,102.25,0.25,60,42.26
569,G#3,102.5,0.25,67,42.26
570,F3,102.75,0.25,50,42.26
571,C#3,102.75,0.25,50,42.26
572,C4,103.0,0.25,73,42.26
573,F#3,103.25,0.25,58,42.26
574,E-3,103.25,0.25,58,42.26
575,C#4,103.5,0.25,75,42.26
576,G#3,103.75,123/500,56,42.26
577,F3,103.75,123/500,56,42.26
578,C3,104.0,0.5,82,42.26
579,E-3,104.0,0.5,82,42.26
580,G#3,104.0,0.5,82,42.26
581,F#1,104.5,1.0,67,42.26
582,F#2,104.5,1.0,67,42.26
583,F#3,105.0,0.5,66,42.26
584,C4,105.0,0.5,66,42.26
585,E-4,105.0,0.5,66,42.26
586,E-5,105.5,0.5,72,42.26
587,C5,105.5,0.5,72,42.26
588,F3,106.0,0.5,79,42.26
589,C#4,106.0,0.5,79,42.26
590,F4,106.0,0.5,79,42.26
591,E-5,106.0,0.25,72,42.26
592,C5,106.0,0.25,72,42.26
593,C#5,106.25,0.25,66,42.26
594,F5,106.25,0.25,66,42.26
595,F4,106.5,0.25,67,42.26
596,F3,106.5,0.25,67,42.26
597,C#3,106.75,0.25,60,42.26
598,C#2,106.75,0.25,60,42.26
599,F#4,107.0,0.25,72,42.26
600,F#3,107.0,0.25,72,42.26
601,E-3,107.25,0.25,64,42.26
602,E-2,107.25,0.25,64,42.26
603,G#4,107.5,0.25,70,42.26
604,G#3,107.5,0.25,70,42.26
605,F3,107.75,0.25,56,42.26
606,F2,107.75,0.25,56,42.26
607,B-3,108.0,0.5,58,42.26
608,B-4,108.0,0.5,58,42.26
609,F3,108.0,0.5,56,42.26
610,F2,108.0,0.5,56,42.26
611,F#2,108.5,1.0,42,42.26
612,C3,109.0,0.5,41,42.26
613,E-3,109.0,0.5,41,42.26
614,G#3,109.0,0.5,41,42.26
615,G#2,109.5,0.5,38,42.26
616,F#3,110.0,0.25,40,42.26
617,G#2,110.0,0.25,38,42.26
618,F#2,110.25,0.5,31,42.26
619,F3,110.5,0.25,39,42.26
620,F2,110.75,0.5,30,42.26
621,E-3,111.0,0.25,38,42.26
622,E-2,111.25,0.5,28,42.26
623,C#3,111.5,0.25,37,42.26
624,C#2,111.75,0.25,27,42.26
625,C3,112.0,0.5,42,42.26
626,E-3,112.0,0.5,42,42.26
627,G#3,112.0,0.5,42,42.26
628,F#2,112.5,1.0,40,42.26
629,C3,113.0,0.5,41,42.26
630,E-3,113.0,0.5,41,42.26
631,G#3,113.0,0.5,41,42.26
632,F#4,113.5,0.5,57,42.26
633,F#4,114.0,0.25,57,42.26
634,C#3,114.0,0.5,42,42.26
635,F3,114.0,0.5,42,42.26
636,G#3,114.0,0.5,42,42.26
637,F4,114.25,0.25,38,42.26
638,F3,114.5,0.25,45,42.26
639,C#3,114.75,0.25,38,42.26
640,F#3,115.0,0.25,52,42.26
641,E-3,115.25,0.25,45,42.26
642,G#3,115.5,0.25,54,42.26
643,F3,115.75,0.25,45,42.26
644,C3,116.0,0.5,54,42.26
645,E-3,116.0,0.5,54,42.26
646,G#3,116.0,0.5,54,42.26
647,F#2,116.5,1.0,59,42.26
648,E-3,117.0,0.5,53,42.26
649,G#3,117.0,0.5,53,42.26
650,C4,117.0,0.5,53,42.26
651,G#4,117.5,0.5,58,42.26
652,F#4,117.5,0.5,58,42.26
653,F3,118.0,0.5,60,42.26
654,G#3,118.0,0.5,60,42.26
655,C#4,118.0,0.5,60,42.26
656,G#4,118.0,0.25,58,42.26
657,F#4,118.0,0.25,58,42.26
658,F4,118.25,0.25,60,42.26
659,G#3,118.5,0.25,67,42.26
660,F3,118.75,0.25,50,42.26
661,C#3,118.75,0.25,50,42.26
662,C4,119.0,0.25,73,42.26
663,F#3,119.25,0.25,58,42.26
664,E-3,119.25,0.25,58,42.26
665,C#4,119.5,0.25,75,42.26
666,G#3,119.75,123/500,56,42.26
667,F3,119.75,123/500,56,42.26
668,C3,120.0,0.5,82,42.26
669,E-3,120.0,0.5,82,42.26
670,G#3,120.0,0.5,82,42.26
671,F#1,120.5,1.0,67,42.26
672,F#2,120.5,1.0,67,42.26
673,F#3,121.0,0.5,66,42.26
674,C4,121.0,0.5,66,42.26
675,E-4,121.0,0.5,66,42.26
676,E-5,121.5,0.5,72,42.26
677,C5,121.5,0.5,72,42.26
678,F3,122.0,0.5,79,42.26
679,C#4,122.0,0.5,79,42.26
680,F4,122.0,0.5,79,42.26
681,E-5,122.0,0.25,72,42.26
682,C5,122.0,0.25,72,42.26
683,C#5,122.25,0.25,66,42.26
684,F5,122.25,0.25,66,42.26
685,F4,122.5,0.25,67,42.26
686,F3,122.5,0.25,67,42.26
687,C#3,122.75,0.25,60,42.26
688,C#2,122.75,0.25,60,42.26
689,F#4,123.0,0.25,72,42.26
690,F#3,123.0,0.25,72,42.26
691,E-3,123.25,0.25,64,42.26
692,E-2,123.25,0.25,64,42.26
693,G#4,123.5,0.25,70,42.26
694,G#3,123.5,0.25,70,42.26
695,F3,123.75,0.25,56,42.26
696,F2,123.75,0.25,56,42.26
697,B-3,124.0,0.5,58,42.26
698,B-4,124.0,0.5,58,42.26
699,F3,124.0,0.5,56,42.26
700,F2,124.0,0.5,56,42.26
701,F#2,124.5,1.0,42,42.26
702,C3,125.0,0.5,41,42.26
703,E-3,125.0,0.5,41,42.26
704,G#3,125.0,0.5,41,42.26
705,G#2,125.5,0.5,38,42.26
706,F3,126.0,0.25,42,42.26
707,G#2,126.0,0.25,38,42.26
708,F2,126.25,0.5,30,42.26
709,E-3,126.5,0.25,39,42.26
710,E-2,126.75,0.75,27,42.26
711,C#3,127.0,0.25,37,42.26
712,C#2,127.5,0.5,26,42.26
713,G#4,128.0,0.25,47,42.26
714,C#3,128.0,1.0,51,42.26
715,F4,128.25,0.25,40,42.26
716,C#4,128.5,0.25,43,42.26
717,G#4,128.75,0.25,39,42.26
718,C#4,129.0,0.25,44,42.26
719,F#2,129.0,1.0,38,42.26
720,B-4,129.25,0.25,40,42.26
721,F#4,129.5,0.25,40,42.26
722,C#4,129.75,0.25,38,42.26
723,G#4,130.0,0.25,47,42.26
724,C#3,130.0,1.5,42,42.26
725,F4,130.25,0.25,43,42.26
726,C#4,130.5,0.25,43,42.26
727,G#4,130.75,0.25,44,42.26
728,C#4,131.0,0.25,42,42.26
729,G#4,131.25,0.25,39,42.26
730,F#2,131.5,0.5,38,42.26
731,C#4,131.5,0.25,44,42.26
732,E-4,131.5,0.25,44,42.26
733,B-4,131.75,0.25,40,42.26
734,G#4,132.0,0.25,47,42.26
735,G#2,132.0,1.0,44,42.26
736,E-4,132.25,0.25,43,42.26
737,C#4,132.5,0.25,40,42.26
738,G#4,132.75,0.25,40,42.26
739,C4,133.0,0.25,46,42.26
740,G#3,133.0,1.0,44,42.26
741,G#4,133.25,0.25,40,42.26
742,E-4,133.5,0.25,43,42.26
743,C4,133.75,0.25,43,42.26
744,G#4,134.0,0.25,47,42.26
745,G#3,134.0,0.5,44,42.26
746,F4,134.25,0.25,44,42.26
747,C#4,134.5,0.25,43,42.26
748,F#3,134.5,0.25,39,42.26
749,G#4,134.75,0.25,43,42.26
750,F3,134.75,0.25,39,42.26
751,F4,135.0,0.25,47,42.26
752,E-3,135.0,0.5,41,42.26
753,C#5,135.25,0.25,44,42.26
754,G#4,135.5,0.25,41,42.26
755,C#3,135.5,0.5,38,42.26
756,F4,135.75,0.25,38,42.26
757,C#5,136.0,0.25,47,42.26
758,C#4,136.0,1.0,51,42.26
759,G#4,136.25,0.25,43,42.26
760,F4,136.5,0.25,43,42.26
761,C#5,136.75,0.25,39,42.26
762,F#4,137.0,0.25,64,42.26
763,F#3,137.0,1.0,58,42.26
764,C#5,137.25,0.25,43,42.26
765,B-4,137.5,0.25,47,42.26
766,F#4,137.75,0.25,38,42.26
767,C#5,138.0,0.25,47,42.26
768,C#4,138.0,1.5,42,42.26
769,G#4,138.25,0.25,43,42.26
770,F4,138.5,0.25,43,42.26
771,C#5,138.75,0.25,44,42.26
772,F4,139.0,0.25,42,42.26
773,C#5,139.25,0.25,39,42.26
774,A3,139.5,0.5,38,42.26
775,E4,139.5,0.25,44,42.26
776,G4,139.5,0.25,44,42.26
777,C#5,139.75,0.25,40,42.26
778,E-4,140.0,0.25,47,42.26
779,G#3,140.0,1.0,44,42.26
780,C#5,140.25,0.25,43,42.26
781,F#4,140.5,0.25,43,42.26
782,E-4,140.75,0.25,39,42.26
783,C5,141.0,0.25,46,42.26
784,G#2,141.0,1.0,44,42.26
785,F#4,141.25,0.25,43,42.26
786,E-4,141.5,0.25,43,42.26
787,C5,141.75,0.25,39,42.26
788,C#5,142.0,0.25,47,42.26
789,G#2,142.0,0.5,44,42.26
790,G#4,142.25,0.25,44,42.26
791,F4,142.5,0.25,43,42.26
792,C#2,142.5,0.25,36,42.26
793,C#5,142.75,0.25,43,42.26
794,F2,142.75,0.25,36,42.26
795,G#4,143.0,0.25,47,42.26
796,G#2,143.0,0.25,38,42.26
797,F4,143.25,0.25,40,42.26
798,C#3,143.25,0.25,34,42.26
799,C#4,143.5,0.25,41,42.26
800,F3,143.5,0.25,35,42.26
801,G#4,143.75,0.25,38,42.26
802,E-3,143.75,0.25,30,42.26
803,G#4,144.0,0.25,47,42.26
804,C#3,144.0,1.0,51,42.26
805,F4,144.25,0.25,40,42.26
806,C#4,144.5,0.25,43,42.26
807,G#4,144.75,0.25,39,42.26
808,C#4,145.0,0.25,44,42.26
809,F#2,145.0,1.0,38,42.26
810,B-4,145.25,0.25,40,42.26
811,F#4,145.5,0.25,40,42.26
812,C#4,145.75,0.25,38,42.26
813,G#4,146.0,0.25,47,42.26
814,C#3,146.0,1.5,42,42.26
815,F4,146.25,0.25,43,42.26
816,C#4,146.5,0.25,43,42.26
817,G#4,146.75,0.25,44,42.26
818,C#4,147.0,0.25,42,42.26
819,G#4,147.25,0.25,39,42.26
820,F#2,147.5,0.5,38,42.26
821,C#4,147.5,0.25,44,42.26
822,E-4,147.5,0.25,44,42.26
823,B-4,147.75,0.25,40,42.26
824,G#4,148.0,0.25,47,42.26
825,G#2,148.0,1.0,44,42.26
826,E-4,148.25,0.25,43,42.26
827,C#4,148.5,0.25,40,42.26
828,G#4,148.75,0.25,40,42.26
829,C4,149.0,0.25,46,42.26
830,G#3,149.0,1.0,44,42.26
831,G#4,149.25,0.25,40,42.26
832,E-4,149.5,0.25,43,42.26
833,C4,149.75,0.25,43,42.26
834,G#4,150.0,0.25,47,42.26
835,G#3,150.0,0.5,44,42.26
836,F4,150.25,0.25,44,42.26
837,C#4,150.5,0.25,43,42.26
838,F#3,150.5,0.25,39,42.26
839,G#4,150.75,0.25,43,42.26
840,F3,150.75,0.25,39,42.26
841,F4,151.0,0.25,47,42.26
842,E-3,151.0,0.5,41,42.26
843,C#5,151.25,0.25,44,42.26
844,G#4,151.5,0.25,41,42.26
845,C#3,151.5,0.5,38,42.26
846,F4,151.75,0.25,38,42.26
847,C#5,152.0,0.25,47,42.26
848,C#4,152.0,1.0,51,42.26
849,G#4,152.25,0.25,43,42.26
850,F4,152.5,0.25,43,42.26
851,C#5,152.75,0.25,39,42.26
852,F#4,153.0,0.25,59,42.26
853,F#3,153.0,1.0,58,42.26
854,C#5,153.25,0.25,43,42.26
855,B-4,153.5,0.25,47,42.26
856,F#4,153.75,0.25,38,42.26
857,C#5,154.0,0.25,47,42.26
858,C#4,154.0,1.5,42,42.26
859,G#4,154.25,0.25,43,42.26
860,F4,154.5,0.25,43,42.26
861,C#5,154.75,0.25,44,42.26
862,F4,155.0,0.25,42,42.26
863,C#5,155.25,0.25,39,42.26
864,A3,155.5,0.5,38,42.26
865,E4,155.5,0.25,44,42.26
866,G4,155.5,0.25,44,42.26
867,C#5,155.75,0.25,40,42.26
868,E-4,156.0,0.25,47,42.26
869,G#3,156.0,1.0,44,42.26
870,C#5,156.25,0.25,43,42.26
871,F#4,156.5,0.25,43,42.26
872,E-4,156.75,0.25,39,42.26
873,C5,157.0,0.25,46,42.26
874,G#2,157.0,1.0,44,42.26
875,F#4,157.25,0.25,43,42.26
876,E-4,157.5,0.25,43,42.26
877,C5,157.75,0.25,39,42.26
878,C#5,158.0,0.25,47,42.26
879,G#2,158.0,0.5,44,42.26
880,G#4,158.25,0.25,44,42.26
881,F4,158.5,0.25,43,42.26
882,C#3,158.5,0.25,36,42.26
883,C#5,158.75,0.25,43,42.26
884,F3,158.75,0.25,36,42.26
885,G#4,159.0,0.25,47,42.26
886,F3,159.0,0.25,38,42.26
887,F4,159.25,0.25,40,42.26
888,C#3,159.25,0.25,34,42.26
889,C#4,159.5,0.25,41,42.26
890,F3,159.5,0.25,35,42.26
891,G#4,159.75,0.25,38,42.26
892,G#3,159.75,0.25,30,42.26
893,G#4,160.0,0.25,47,42.26
894,G#3,160.0,2.0,51,42.26
895,F#3,160.0,1.0,51,42.26
896,E-4,160.25,0.25,40,42.26
897,C4,160.5,0.25,43,42.26
898,G#4,160.75,0.25,39,42.26
899,C4,161.0,0.25,44,42.26
900,E-3,161.0,1.0,38,42.26
901,G#4,161.25,0.25,40,42.26
902,F#4,161.5,0.25,40,42.26
903,C4,161.75,0.25,38,42.26
904,C#4,162.0,0.25,49,42.26
905,F3,162.0,0.5,42,42.26
906,G#3,162.0,0.5,42,42.26
907,F4,162.25,0.25,49,42.26
908,G#4,162.5,0.25,53,42.26
909,E-3,162.5,0.25,45,42.26
910,G#3,162.5,0.25,45,42.26
911,C#5,162.75,0.25,57,42.26
912,F3,162.75,0.25,50,42.26
913,G#3,162.75,0.25,50,42.26
914,C5,163.0,0.25,62,42.26
915,E-3,163.0,0.5,54,42.26
916,G#3,163.0,0.5,54,42.26
917,F#4,163.25,0.25,49,42.26
918,C#5,163.5,0.25,55,42.26
919,C#3,163.5,0.5,46,42.26
920,G#3,163.5,0.5,46,42.26
921,F4,163.75,0.25,43,42.26
922,G#4,164.0,0.25,47,42.26
923,G#3,164.0,2.0,51,42.26
924,F#3,164.0,1.0,51,42.26
925,E-4,164.25,0.25,40,42.26
926,C4,164.5,0.25,43,42.26
927,G#4,164.75,0.25,39,42.26
928,C4,165.0,0.25,44,42.26
929,E-3,165.0,1.0,38,42.26
930,G#4,165.25,0.25,40,42.26
931,F#4,165.5,0.25,40,42.26
932,C4,165.75,0.25,38,42.26
933,C#4,166.0,0.25,49,42.26
934,F3,166.0,0.5,42,42.26
935,G#3,166.0,0.5,42,42.26
936,F4,166.25,0.25,49,42.26
937,G#4,166.5,0.25,53,42.26
938,E-3,166.5,0.25,45,42.26
939,G#3,166.5,0.25,45,42.26
940,F5,166.75,0.25,55,42.26
941,C#3,166.75,0.25,50,42.26
942,G#3,166.75,0.25,50,42.26
943,E-5,167.0,0.25,62,42.26
944,C3,167.0,0.5,54,42.26
945,G#3,167.0,0.5,54,42.26
946,F#4,167.25,0.25,49,42.26
947,C#5,167.5,0.25,55,42.26
948,C#3,167.5,0.5,46,42.26
949,G#3,167.5,0.5,46,42.26
950,F4,167.75,0.25,43,42.26
951,G#4,168.0,0.25,58,42.26
952,G#3,168.0,2.0,58,42.26
953,F#3,168.0,1.0,58,42.26
954,E-4,168.25,0.25,50,42.26
955,C4,168.5,0.25,58,42.26
956,G#4,168.75,0.25,53,42.26
957,C4,169.0,0.25,67,42.26
958,E-3,169.0,1.0,62,42.26
959,G#4,169.25,0.25,62,42.26
960,F#4,169.5,0.25,67,42.26
961,C4,169.75,0.25,63,42.26
962,F3,170.0,0.5,64,42.26
963,G#3,170.0,0.5,64,42.26
964,C#4,170.0,0.5,64,42.26
965,G#5,170.25,0.25,73,42.26
966,G#4,170.5,0.25,74,42.26
967,F#3,170.5,0.25,58,42.26
968,E-3,170.5,0.25,58,42.26
969,C#4,170.5,0.25,58,42.26
970,G#5,170.75,0.25,65,42.26
971,C#3,170.75,0.25,52,42.26
972,F3,170.75,0.25,52,42.26
973,C#4,170.75,0.25,52,42.26
974,F#5,171.0,0.25,70,42.26
975,F#3,171.0,0.5,59,42.26
976,E-3,171.0,0.5,59,42.26
977,C4,171.0,0.5,59,42.26
978,G#4,171.25,0.25,58,42.26
979,F5,171.5,0.25,63,42.26
980,G#3,171.5,0.5,46,42.26
981,F3,171.5,0.5,46,42.26
982,C#4,171.5,0.5,46,42.26
983,G#4,171.75,0.25,48,42.26
984,E-5,172.0,0.25,47,42.26
985,F#3,172.0,1.0,36,42.26
986,B-3,172.0,1.0,36,42.26
987,E-4,172.0,1.0,36,42.26
988,B-4,172.25,0.25,43,42.26
989,F#4,172.5,0.25,43,42.26
990,E-5,172.75,0.25,39,42.26
991,G#4,173.0,0.25,46,42.26
992,G#3,173.0,1.0,37,42.26
993,C4,173.0,1.0,37,42.26
994,F#4,173.25,0.25,43,42.26
995,E-4,173.5,0.25,43,42.26
996,G#4,173.75,0.25,39,42.26
997,F4,174.0,0.25,47,42.26
998,G#3,174.0,0.5,37,42.26
999,C#4,174.0,0.5,37,42.26
1000,C#5,174.25,0.25,44,42.26
1001,G#4,174.5,0.25,43,42.26
1002,C#3,174.5,0.25,36,42.26
1003,F4,174.75,0.25,43,42.26
1004,E-3,174.75,0.25,36,42.26
1005,C#4,175.0,0.25,47,42.26
1006,F3,175.0,0.25,38,42.26
1007,C#3,175.25,0.25,31,42.26
1008,G#3,175.25,0.25,31,42.26
1009,E-3,175.5,0.25,32,42.26
1010,G#3,175.5,0.25,32,42.26
1011,F3,175.75,0.25,28,42.26
1012,G#3,175.75,0.25,28,42.26
1013,G#4,176.0,0.25,47,42.26
1014,G#3,176.0,2.0,51,42.26
1015,F#3,176.0,1.0,51,42.26
1016,E-4,176.25,0.25,40,42.26
1017,C4,176.5,0.25,43,42.26
1018,G#4,176.75,0.25,39,42.26
1019,C4,177.0,0.25,44,42.26
1020,E-3,177.0,1.0,38,42.26
1021,G#4,177.25,0.25,40,42.26
1022,F#4,177.5,0.25,40,42.26
1023,C4,177.75,0.25,38,42.26
1024,C#4,178.0,0.25,49,42.26
1025,F3,178.0,0.5,42,42.26
1026,G#3,178.0,0.5,42,42.26
1027,F4,178.25,0.25,49,42.26
1028,G#4,178.5,0.25,53,42.26
1029,E-3,178.5,0.25,45,42.26
1030,G#3,178.5,0.25,45,42.26
1031,C#5,178.75,0.25,57,42.26
1032,F3,178.75,0.25,50,42.26
1033,G#3,178.75,0.25,50,42.26
1034,C5,179.0,0.25,62,42.26
1035,E-3,179.0,0.5,54,42.26
1036,G#3,179.0,0.5,54,42.26
1037,F#4,179.25,0.25,49,42.26
1038,C#5,179.5,0.25,55,42.26
1039,C#3,179.5,0.5,46,42.26
1040,G#3,179.5,0.5,46,42.26
1041,F4,179.75,0.25,43,42.26
1042,G#4,180.0,0.25,47,42.26
1043,G#3,180.0,2.0,51,42.26
1044,F#3,180.0,1.0,51,42.26
1045,E-4,180.25,0.25,40,42.26
1046,C4,180.5,0.25,43,42.26
1047,G#4,180.75,0.25,39,42.26
1048,C4,181.0,0.25,44,42.26
1049,E-3,181.0,1.0,38,42.26
1050,G#4,181.25,0.25,40,42.26
1051,F#4,181.5,0.25,40,42.26
1052,C4,181.75,0.25,38,42.26
1053,C#4,182.0,0.25,49,42.26
1054,F3,182.0,0.5,42,42.26
1055,G#3,182.0,0.5,42,42.26
1056,F4,182.25,0.25,49,42.26
1057,G#4,182.5,0.25,53,42.26
1058,E-3,182.5,0.25,45,42.26
1059,G#3,182.5,0.25,45,42.26
1060,F5,182.75,0.25,54,42.26
1061,C#3,182.75,0.25,50,42.26
1062,G#3,182.75,0.25,50,42.26
1063,E-5,183.0,0.25,62,42.26
1064,C3,183.0,0.5,54,42.26
1065,G#3,183.0,0.5,54,42.26
1066,F#4,183.25,0.25,49,42.26
1067,C#5,183.5,0.25,55,42.26
1068,C#3,183.5,0.5,46,42.26
1069,G#3,183.5,0.5,46,42.26
1070,F4,183.75,0.25,43,42.26
1071,G#4,184.0,0.25,58,42.26
1072,G#3,184.0,2.0,58,42.26
1073,F#3,184.0,1.0,58,42.26
1074,E-4,184.25,0.25,50,42.26
1075,C4,184.5,0.25,58,42.26
1076,G#4,184.75,0.25,53,42.26
1077,C4,185.0,0.25,67,42.26
1078,E-3,185.0,1.0,62,42.26
1079,G#4,185.25,0.25,62,42.26
1080,F#4,185.5,0.25,67,42.26
1081,C4,185.75,0.25,64,42.26
1082,F3,186.0,0.5,64,42.26
1083,G#3,186.0,0.5,64,42.26
1084,C#4,186.0,0.5,64,42.26
1085,G#5,186.25,0.25,74,42.26
1086,G#4,186.5,0.25,74,42.26
1087,F#3,186.5,0.25,58,42.26
1088,E-3,186.5,0.25,58,42.26
1089,C#4,186.5,0.25,58,42.26
1090,G#5,186.75,0.25,66,42.26
1091,C#3,186.75,0.25,52,42.26
1092,F3,186.75,0.25,52,42.26
1093,C#4,186.75,0.25,52,42.26
1094,F#5,187.0,0.25,73,42.26
1095,F#3,187.0,0.5,59,42.26
1096,E-3,187.0,0.5,59,42.26
1097,C4,187.0,0.5,59,42.26
1098,G#4,187.25,0.25,58,42.26
1099,F5,187.5,0.25,63,42.26
1100,G#3,187.5,0.5,46,42.26
1101,F3,187.5,0.5,46,42.26
1102,C#4,187.5,0.5,46,42.26
1103,G#4,187.75,0.25,48,42.26
1104,E-5,188.0,0.25,47,42.26
1105,F#3,188.0,1.0,36,42.26
1106,B-3,188.0,1.0,36,42.26
1107,E-4,188.0,1.0,36,42.26
1108,B-4,188.25,0.25,43,42.26
1109,F#4,188.5,0.25,43,42.26
1110,E-5,188.75,0.25,39,42.26
1111,G#4,189.0,0.25,46,42.26
1112,G#3,189.0,1.0,37,42.26
1113,C4,189.0,1.0,37,42.26
1114,F#4,189.25,0.25,43,42.26
1115,E-4,189.5,0.25,43,42.26
1116,G#4,189.75,0.25,39,42.26
1117,F4,190.0,0.25,47,42.26
1118,G#3,190.0,0.5,37,42.26
1119,C#4,190.0,0.5,37,42.26
1120,C#5,190.25,0.25,44,42.26
1121,G#4,190.5,0.25,43,42.26
1122,C#3,190.5,0.5,36,42.26
1123,F4,190.75,0.25,43,42.26
1124,C#4,191.0,0.25,47,42.26
1125,G#4,191.125,0.125,40,42.26
1126,F4,191.25,0.125,37,42.26
1127,G#4,191.375,0.125,37,42.26
1128,E4,191.5,0.125,40,42.26
1129,G#4,191.625,0.125,37,42.26
1130,F4,191.75,0.125,37,42.26
1131,G#4,191.875,0.125,37,42.26
1132,C#4,192.0,0.125,40,42.26
1133,G#4,192.125,0.125,36,42.26
1134,F4,192.25,0.125,36,42.26
1135,G#4,192.375,0.125,36,42.26
1136,G#5,192.5,1.0,72,42.26
1137,C#5,192.5,0.125,40,42.26
1138,G#4,192.625,0.125,36,42.26
1139,F4,192.75,0.125,36,42.26
1140,G#4,192.875,0.125,36,42.26
1141,C#4,193.0,0.125,40,42.26
1142,B-4,193.125,0.125,35,42.26
1143,F#4,193.25,0.125,37,42.26
1144,B-4,193.375,0.125,37,42.26
1145,B-5,193.5,0.5,74,42.26
1146,C#5,193.5,0.125,40,42.26
1147,B-4,193.625,0.125,37,42.26
1148,F#4,193.75,0.125,37,42.26
1149,B-4,193.875,0.125,37,42.26
1150,B-5,194.0,0.5,74,42.26
1151,C#4,194.0,0.125,40,42.26
1152,G#4,194.125,0.125,37,42.26
1153,F4,194.25,0.125,37,42.26
1154,G#4,194.375,0.125,37,42.26
1155,G#5,194.5,1.0,72,42.26
1156,C#5,194.5,0.125,40,42.26
1157,G#4,194.625,0.125,37,42.26
1158,F4,194.75,0.125,37,42.26
1159,G#4,194.875,0.125,37,42.26
1160,C#4,195.0,0.125,40,42.26
1161,G#4,195.125,0.125,37,42.26
1162,F4,195.25,0.125,37,42.26
1163,G#4,195.375,0.125,37,42.26
1164,F#3,195.5,0.125,52,42.26
1165,C#5,195.5,0.5,69,42.26
1166,E-5,195.5,0.5,69,42.26
1167,B-5,195.5,0.5,69,42.26
1168,F#4,195.625,0.125,46,42.26
1169,E-4,195.75,0.125,46,42.26
1170,F#4,195.875,0.125,46,42.26
1171,G#3,196.0,0.125,57,42.26
1172,C#5,196.0,0.5,72,42.26
1173,E-5,196.0,0.5,72,42.26
1174,G#5,196.0,0.5,72,42.26
1175,F#4,196.125,0.125,46,42.26
1176,E-4,196.25,0.125,46,42.26
1177,F#4,196.375,0.125,46,42.26
1178,G#3,196.5,0.125,57,42.26
1179,C#5,196.5,0.5,69,42.26
1180,E-5,196.5,0.5,69,42.26
1181,G#5,196.5,0.5,69,42.26
1182,F#4,196.625,0.125,46,42.26
1183,E-4,196.75,0.125,46,42.26
1184,F#4,196.875,0.125,46,42.26
1185,G#3,197.0,0.125,59,42.26
1186,C5,197.0,0.5,73,42.26
1187,E-5,197.0,0.5,73,42.26
1188,G#5,197.0,0.5,73,42.26
1189,F#4,197.125,0.125,46,42.26
1190,E-4,197.25,0.125,46,42.26
1191,F#4,197.375,0.125,46,42.26
1192,G#3,197.5,0.125,58,42.26
1193,C5,197.5,0.5,69,42.26
1194,E-5,197.5,0.5,69,42.26
1195,G#5,197.5,0.5,69,42.26
1196,F#4,197.625,0.125,46,42.26
1197,E-4,197.75,0.125,46,42.26
1198,F#4,197.875,0.125,46,42.26
1199,C#4,198.0,0.125,46,42.26
1200,C#5,198.0,0.5,72,42.26
1201,F5,198.0,0.5,72,42.26
1202,G#5,198.0,0.5,72,42.26
1203,E-4,198.125,0.125,47,42.26
1204,F4,198.25,0.125,48,42.26
1205,F#4,198.375,0.125,49,42.26
1206,G#4,198.5,0.125,52,42.26
1207,B-4,198.625,0.125,49,42.26
1208,G#4,198.75,0.125,51,42.26
1209,F#4,198.875,0.125,50,42.26
1210,F4,199.0,0.125,45,42.26
1211,F#4,199.125,0.125,47,42.26
1212,G#4,199.25,0.125,48,42.26
1213,B-4,199.375,0.125,49,42.26
1214,C5,199.5,0.125,54,42.26
1215,C#5,199.625,0.125,46,42.26
1216,G#4,199.75,0.125,50,42.26
1217,F#4,199.875,0.125,46,42.26
1218,F4,200.0,0.125,40,42.26
1219,C#5,200.125,0.125,36,42.26
1220,G#4,200.25,0.125,36,42.26
1221,C#5,200.375,0.125,36,42.26
1222,F5,200.5,0.125,40,42.26
1223,C#6,200.5,1.0,66,42.26
1224,G#5,200.5,1.0,66,42.26
1225,C#5,200.625,0.125,36,42.26
1226,G#4,200.75,0.125,36,42.26
1227,C#5,200.875,0.125,36,42.26
1228,F#4,201.0,0.125,40,42.26
1229,C#5,201.125,0.125,35,42.26
1230,B-4,201.25,0.125,37,42.26
1231,C#5,201.375,0.125,37,42.26
1232,F#5,201.5,0.125,40,42.26
1233,C#6,201.5,0.5,67,42.26
1234,B-5,201.5,0.5,67,42.26
1235,C#5,201.625,0.125,37,42.26
1236,B-4,201.75,0.125,37,42.26
1237,C#5,201.875,0.125,37,42.26
1238,F4,202.0,0.125,40,42.26
1239,C#6,202.0,0.5,67,42.26
1240,B-5,202.0,0.5,67,42.26
1241,C#5,202.125,0.125,37,42.26
1242,G#4,202.25,0.125,37,42.26
1243,C#5,202.375,0.125,37,42.26
1244,F5,202.5,0.125,40,42.26
1245,C#6,202.5,1.0,68,42.26
1246,G#5,202.5,1.0,68,42.26
1247,C#5,202.625,0.125,37,42.26
1248,G#4,202.75,0.125,37,42.26
1249,C#5,202.875,0.125,37,42.26
1250,F4,203.0,0.125,40,42.26
1251,C#5,203.125,0.125,37,42.26
1252,G#4,203.25,0.125,37,42.26
1253,C#5,203.375,0.125,37,42.26
1254,E4,203.5,0.125,52,42.26
1255,C#5,203.5,0.5,69,42.26
1256,G5,203.5,0.5,69,42.26
1257,C#6,203.5,0.5,69,42.26
1258,B-4,203.625,0.125,46,42.26
1259,G4,203.75,0.125,46,42.26
1260,B-4,203.875,0.125,46,42.26
1261,E-4,204.0,0.125,57,42.26
1262,C#5,204.0,0.5,72,42.26
1263,F#5,204.0,0.5,72,42.26
1264,C#6,204.0,0.5,72,42.26
1265,A4,204.125,0.125,46,42.26
1266,F#4,204.25,0.125,46,42.26
1267,A4,204.375,0.125,46,42.26
1268,E-4,204.5,0.125,57,42.26
1269,C#5,204.5,0.5,69,42.26
1270,F#5,204.5,0.5,69,42.26
1271,C#6,204.5,0.5,69,42.26
1272,A4,204.625,0.125,46,42.26
1273,F#4,204.75,0.125,46,42.26
1274,A4,204.875,0.125,46,42.26
1275,E-4,205.0,0.125,59,42.26
1276,C5,205.0,0.5,73,42.26
1277,F#5,205.0,0.5,73,42.26
1278,C6,205.0,0.5,73,42.26
1279,G#4,205.125,0.125,46,42.26
1280,F#4,205.25,0.125,46,42.26
1281,G#4,205.375,0.125,46,42.26
1282,E-4,205.5,0.125,58,42.26
1283,C5,205.5,0.5,69,42.26
1284,F#5,205.5,0.5,69,42.26
1285,C6,205.5,0.5,69,42.26
1286,G#4,205.625,0.125,46,42.26
1287,F#4,205.75,0.125,46,42.26
1288,G#4,205.875,0.125,46,42.26
1289,C#6,206.0,0.125,66,42.26
1290,C#4,206.0,0.5,72,42.26
1291,F4,206.0,0.5,72,42.26
1292,G#4,206.0,0.5,72,42.26
1293,E-6,206.125,0.125,57,42.26
1294,F6,206.25,0.125,59,42.26
1295,C6,206.375,0.125,60,42.26
1296,C#6,206.5,0.125,66,42.26
1297,G#5,206.625,0.125,56,42.26
1298,B-5,206.75,0.125,58,42.26
1299,F#5,206.875,0.125,57,42.26
1300,F5,207.0,0.125,51,42.26
1301,G#5,207.125,0.125,54,42.26
1302,F#5,207.25,0.125,55,42.26
1303,E-5,207.375,0.125,56,42.26
1304,C#5,207.5,0.125,63,42.26
1305,F5,207.625,0.125,53,42.26
1306,E-5,207.75,0.125,57,42.26
1307,C5,207.875,0.125,53,42.26
1308,C#5,208.0,0.125,52,42.26
1309,E-5,208.125,0.125,46,42.26
1310,C#5,208.25,0.125,46,42.26
1311,C5,208.375,0.125,46,42.26
1312,C#5,208.5,0.125,52,42.26
1313,C#4,208.5,1.0,55,42.26
1314,G#4,208.5,1.0,55,42.26
1315,F4,208.5,1.0,55,42.26
1316,G#5,208.625,0.125,46,42.26
1317,G5,208.75,0.125,46,42.26
1318,G#5,208.875,0.125,46,42.26
1319,C#5,209.0,0.125,52,42.26
1320,E-5,209.125,0.125,45,42.26
1321,C#5,209.25,0.125,48,42.26
1322,C5,209.375,0.125,48,42.26
1323,C#5,209.5,0.125,52,42.26
1324,C#4,209.5,0.5,56,42.26
1325,B-4,209.5,0.5,56,42.26
1326,F#4,209.5,0.5,56,42.26
1327,B-5,209.625,0.125,48,42.26
1328,A5,209.75,0.125,48,42.26
1329,B-5,209.875,0.125,48,42.26
1330,C#5,210.0,0.125,52,42.26
1331,C#4,210.0,0.5,56,42.26
1332,B-4,210.0,0.5,56,42.26
1333,F#4,210.0,0.5,56,42.26
1334,E-5,210.125,0.125,48,42.26
1335,C#5,210.25,0.125,48,42.26
1336,C5,210.375,0.125,48,42.26
1337,C#5,210.5,0.125,52,42.26
1338,C#4,210.5,1.0,57,42.26
1339,G#4,210.5,1.0,57,42.26
1340,F4,210.5,1.0,57,42.26
1341,G#5,210.625,0.125,48,42.26
1342,G5,210.75,0.125,48,42.26
1343,G#5,210.875,0.125,48,42.26
1344,C#5,211.0,0.125,52,42.26
1345,G#5,211.125,0.125,48,42.26
1346,G5,211.25,0.125,48,42.26
1347,G#5,211.375,0.125,48,42.26
1348,C#5,211.5,0.125,73,42.26
1349,E-4,211.5,0.5,61,42.26
1350,F#3,211.5,0.5,61,42.26
1351,C#4,211.5,0.5,61,42.26
1352,F#4,211.5,0.5,61,42.26
1353,B-5,211.625,0.125,63,42.26
1354,A5,211.75,0.125,63,42.26
1355,B-5,211.875,0.125,63,42.26
1356,C#5,212.0,0.125,80,42.26
1357,C#4,212.0,0.5,65,42.26
1358,G#3,212.0,0.5,65,42.26
1359,E-4,212.0,0.5,65,42.26
1360,F#4,212.0,0.5,65,42.26
1361,G#5,212.125,0.125,66,42.26
1362,G5,212.25,0.125,67,42.26
1363,G#5,212.375,0.125,67,42.26
1364,C#5,212.5,0.125,80,42.26
1365,C#4,212.5,0.5,61,42.26
1366,G#3,212.5,0.5,61,42.26
1367,E-4,212.5,0.5,61,42.26
1368,F#4,212.5,0.5,61,42.26
1369,G#5,212.625,0.125,66,42.26
1370,G5,212.75,0.125,66,42.26
1371,G#5,212.875,0.125,66,42.26
1372,C5,213.0,0.125,83,42.26
1373,C4,213.0,0.5,60,42.26
1374,G#3,213.0,0.5,60,42.26
1375,E-4,213.0,0.5,60,42.26
1376,F#4,213.0,0.5,60,42.26
1377,G#5,213.125,0.125,67,42.26
1378,G5,213.25,0.125,67,42.26
1379,G#5,213.375,0.125,67,42.26
1380,C5,213.5,0.125,81,42.26
1381,C4,213.5,0.5,57,42.26
1382,G#3,213.5,0.5,57,42.26
1383,E-4,213.5,0.5,57,42.26
1384,F#4,213.5,0.5,57,42.26
1385,G#5,213.625,0.125,63,42.26
1386,G5,213.75,0.125,63,42.26
1387,G#5,213.875,0.125,63,42.26
1388,G#5,214.0,0.125,53,42.26
1389,C#4,214.0,0.5,70,42.26
1390,F4,214.0,0.5,70,42.26
1391,F#5,214.125,0.125,54,42.26
1392,F5,214.25,0.125,55,42.26
1393,E-5,214.375,0.125,56,42.26
1394,C#5,214.5,0.125,60,42.26
1395,E-5,214.625,0.125,56,42.26
1396,F5,214.75,0.125,58,42.26
1397,F#5,214.875,0.125,57,42.26
1398,G#5,215.0,0.125,51,42.26
1399,F#5,215.125,0.125,54,42.26
1400,F5,215.25,0.125,55,42.26
1401,F#5,215.375,0.125,56,42.26
1402,G#5,215.5,0.125,63,42.26
1403,B-5,215.625,0.125,53,42.26
1404,C6,215.75,0.125,57,42.26
1405,C#6,215.875,0.125,53,42.26
1406,F5,216.0,0.125,52,42.26
1407,F#5,216.125,0.125,46,42.26
1408,F5,216.25,0.125,46,42.26
1409,E5,216.375,0.125,46,42.26
1410,F5,216.5,0.125,52,42.26
1411,C#5,216.5,1.0,57,42.26
1412,G#4,216.5,1.0,57,42.26
1413,C#6,216.625,0.125,46,42.26
1414,C6,216.75,0.125,46,42.26
1415,C#6,216.875,0.125,46,42.26
1416,F#5,217.0,0.125,52,42.26
1417,G#5,217.125,0.125,45,42.26
1418,F#5,217.25,0.125,48,42.26
1419,F5,217.375,0.125,48,42.26
1420,F#5,217.5,0.125,52,42.26
1421,C#5,217.5,0.5,58,42.26
1422,B-4,217.5,0.5,58,42.26
1423,C#6,217.625,0.125,48,42.26
1424,C6,217.75,0.125,48,42.26
1425,C#6,217.875,0.125,48,42.26
1426,F5,218.0,0.125,52,42.26
1427,C#5,218.0,0.5,58,42.26
1428,B-4,218.0,0.5,58,42.26
1429,F#5,218.125,0.125,48,42.26
1430,F5,218.25,0.125,48,42.26
1431,E5,218.375,0.125,48,42.26
1432,F5,218.5,0.125,52,42.26
1433,C#5,218.5,1.0,58,42.26
1434,G#4,218.5,1.0,58,42.26
1435,C#6,218.625,0.125,48,42.26
1436,C6,218.75,0.125,48,42.26
1437,C#6,218.875,0.125,48,42.26
1438,F5,219.0,0.125,52,42.26
1439,C#6,219.125,0.125,48,42.26
1440,C6,219.25,0.125,48,42.26
1441,C#6,219.375,0.125,48,42.26
1442,A4,219.5,0.5,71,42.26
1443,G5,219.5,0.125,66,42.26
1444,E5,219.5,0.125,66,42.26
1445,C#6,219.625,0.125,63,42.26
1446,C6,219.75,0.125,63,42.26
1447,C#6,219.875,0.125,63,42.26
1448,G#4,220.0,0.5,75,42.26
1449,F#5,220.0,0.125,73,42.26
1450,E-5,220.0,0.125,73,42.26
1451,C#6,220.125,0.125,66,42.26
1452,C6,220.25,0.125,66,42.26
1453,C#6,220.375,0.125,66,42.26
1454,G#4,220.5,0.5,71,42.26
1455,F#5,220.5,0.125,73,42.26
1456,E-5,220.5,0.125,73,42.26
1457,C#6,220.625,0.125,67,42.26
1458,C6,220.75,0.125,67,42.26
1459,C#6,220.875,0.125,67,42.26
1460,G#3,221.0,0.5,76,42.26
1461,F#5,221.0,0.125,76,42.26
1462,E-5,221.0,0.125,76,42.26
1463,C6,221.125,0.125,67,42.26
1464,B5,221.25,0.125,67,42.26
1465,C6,221.375,0.125,67,42.26
1466,G#3,221.5,0.5,70,42.26
1467,F#5,221.5,0.125,74,42.26
1468,E-5,221.5,0.125,74,42.26
1469,C6,221.625,0.125,67,42.26
1470,B5,221.75,0.125,67,42.26
1471,C6,221.875,0.125,67,42.26
1472,G#3,222.0,0.125,54,42.26
1473,C#5,222.0,0.5,78,42.26
1474,F5,222.0,0.5,78,42.26
1475,C#6,222.0,0.5,78,42.26
1476,B-3,222.125,0.125,55,42.26
1477,C4,222.25,0.125,57,42.26
1478,C#4,222.375,0.125,58,42.26
1479,C4,222.5,0.125,59,42.26
1480,C#4,222.625,0.125,53,42.26
1481,E-4,222.75,0.125,56,42.26
1482,F4,222.875,0.125,53,42.26
1483,E-4,223.0,0.125,48,42.26
1484,F4,223.125,0.125,49,42.26
1485,F#4,223.25,0.125,50,42.26
1486,G#4,223.375,0.125,51,42.26
1487,B-4,223.5,0.125,54,42.26
1488,C5,223.625,0.125,46,42.26
1489,C#5,223.75,0.125,50,42.26
1490,G#4,223.875,0.125,46,42.26
1491,F#4,224.0,0.125,40,42.26
1492,E-5,224.125,0.125,36,42.26
1493,C5,224.25,0.125,36,42.26
1494,E-5,224.375,0.125,36,42.26
1495,G#5,224.5,1.0,69,42.26
1496,B4,224.5,0.125,40,42.26
1497,E-5,224.625,0.125,36,42.26
1498,C5,224.75,0.125,36,42.26
1499,E-5,224.875,0.125,36,42.26
1500,F#5,225.0,0.125,57,42.26
1501,E-5,225.125,0.125,35,42.26
1502,C5,225.25,0.125,37,42.26
1503,E-5,225.375,0.125,37,42.26
1504,G#5,225.5,0.5,59,42.26
1505,F#4,225.5,0.125,40,42.26
1506,E-5,225.625,0.125,37,42.26
1507,C5,225.75,0.125,37,42.26
1508,E-5,225.875,0.125,37,42.26
1509,G#5,226.0,0.5,59,42.26
1510,F4,226.0,0.125,40,42.26
1511,C#5,226.125,0.125,37,42.26
1512,G#4,226.25,0.125,37,42.26
1513,C#5,226.375,0.125,37,42.26
1514,G#5,226.5,0.5,55,42.26
1515,F4,226.5,0.125,40,42.26
1516,C#5,226.625,0.125,37,42.26
1517,G#4,226.75,0.125,37,42.26
1518,C#5,226.875,0.125,37,42.26
1519,G#5,227.0,0.5,59,42.26
1520,E-4,227.0,0.125,40,42.26
1521,C5,227.125,0.125,37,42.26
1522,F#4,227.25,0.125,37,42.26
1523,C5,227.375,0.125,37,42.26
1524,G#5,227.5,0.5,56,42.26
1525,C#4,227.5,0.125,40,42.26
1526,C#5,227.625,0.125,38,42.26
1527,F4,227.75,0.125,38,42.26
1528,C#5,227.875,0.125,38,42.26
1529,F#4,228.0,0.125,40,42.26
1530,E-5,228.125,0.125,36,42.26
1531,C5,228.25,0.125,36,42.26
1532,E-5,228.375,0.125,36,42.26
1533,G#5,228.5,1.0,69,42.26
1534,B4,228.5,0.125,40,42.26
1535,E-5,228.625,0.125,36,42.26
1536,C5,228.75,0.125,36,42.26
1537,E-5,228.875,0.125,36,42.26
1538,F#5,229.0,0.125,58,42.26
1539,E-5,229.125,0.125,35,42.26
1540,C5,229.25,0.125,37,42.26
1541,E-5,229.375,0.125,37,42.26
1542,G#5,229.5,0.5,57,42.26
1543,F#4,229.5,0.125,40,42.26
1544,E-5,229.625,0.125,37,42.26
1545,C5,229.75,0.125,37,42.26
1546,E-5,229.875,0.125,37,42.26
1547,G#5,230.0,0.5,60,42.26
1548,F4,230.0,0.125,40,42.26
1549,F5,230.125,0.125,37,42.26
1550,C#5,230.25,0.125,37,42.26
1551,F5,230.375,0.125,37,42.26
1552,G#5,230.5,0.5,56,42.26
1553,G#4,230.5,0.125,40,42.26
1554,F5,230.625,0.125,37,42.26
1555,C#5,230.75,0.125,37,42.26
1556,F5,230.875,0.125,37,42.26
1557,G#5,231.0,0.5,59,42.26
1558,F#4,231.0,0.125,40,42.26
1559,E-5,231.125,0.125,37,42.26
1560,C5,231.25,0.125,37,42.26
1561,E-5,231.375,0.125,37,42.26
1562,G#5,231.5,0.5,56,42.26
1563,F4,231.5,0.125,40,42.26
1564,C#5,231.625,0.125,38,42.26
1565,G#4,231.75,0.125,38,42.26
1566,C#5,231.875,0.125,38,42.26
1567,C5,232.0,0.125,48,42.26
1568,F#5,232.125,0.125,47,42.26
1569,E-5,232.25,0.125,47,42.26
1570,F#5,232.375,0.125,47,42.26
1571,C6,232.5,0.5,67,42.26
1572,G#5,232.5,0.125,53,42.26
1573,F#5,232.625,0.125,48,42.26
1574,E-5,232.75,0.125,48,42.26
1575,F#5,232.875,0.125,48,42.26
1576,B5,233.0,0.5,72,42.26
1577,G#5,233.0,0.125,55,42.26
1578,F#5,233.125,0.125,48,42.26
1579,E-5,233.25,0.125,50,42.26
1580,F#5,233.375,0.125,50,42.26
1581,C6,233.5,0.5,70,42.26
1582,G#5,233.5,0.125,56,42.26
1583,F#5,233.625,0.125,52,42.26
1584,E-5,233.75,0.125,52,42.26
1585,F#5,233.875,0.125,53,42.26
1586,C#6,234.0,0.5,77,42.26
1587,F5,234.0,0.125,57,42.26
1588,G#5,234.125,0.125,52,42.26
1589,F5,234.25,0.125,53,42.26
1590,G#5,234.375,0.125,53,42.26
1591,F6,234.5,0.5,75,42.26
1592,C#6,234.5,0.125,60,42.26
1593,G#5,234.625,0.125,53,42.26
1594,C#6,234.75,0.125,55,42.26
1595,G#5,234.875,0.125,55,42.26
1596,E-6,235.0,0.5,86,42.26
1597,C6,235.0,0.125,61,42.26
1598,F#5,235.125,0.125,53,42.26
1599,C6,235.25,0.125,57,42.26
1600,F#5,235.375,0.125,57,42.26
1601,C#6,235.5,0.5,82,42.26
1602,F5,235.5,0.125,67,42.26
1603,G#5,235.625,0.125,62,42.26
1604,F5,235.75,0.125,62,42.26
1605,G#5,235.875,0.125,62,42.26
1606,F#6,236.0,1.0,94,42.26
1607,B-5,236.0,0.125,81,42.26
1608,F#5,236.125,0.125,69,42.26
1609,B-5,236.25,0.125,74,42.26
1610,G#5,236.375,0.125,61,42.26
1611,F#5,236.5,0.125,68,42.26
1612,F5,236.625,0.125,60,42.26
1613,E-5,236.75,0.125,63,42.26
1614,C#5,236.875,0.125,61,42.26
1615,C5,237.0,0.125,60,42.26
1616,E-5,237.0,1.0,73,42.26
1617,F#5,237.0,1.0,73,42.26
1618,G#5,237.0,1.0,73,42.26
1619,B-4,237.125,0.125,59,42.26
1620,G#4,237.25,0.125,57,42.26
1621,F#4,237.375,0.125,56,42.26
1622,F4,237.5,0.125,55,42.26
1623,E-4,237.625,0.125,52,42.26
1624,C#4,237.75,0.125,51,42.26
1625,C4,237.875,0.125,49,42.26
1626,C#4,238.0,0.5,55,42.26
1627,F5,238.0,0.125,50,42.26
1628,G#5,238.0,0.125,50,42.26
1629,B-5,238.125,0.125,45,42.26
1630,G#5,238.25,0.125,45,42.26
1631,F#5,238.375,0.125,44,42.26
1632,F5,238.5,0.125,41,42.26
1633,F#5,238.625,0.125,45,42.26
1634,G#5,238.75,0.125,47,42.26
1635,B-5,238.875,0.125,50,42.26
1636,C6,239.0,0.125,52,42.26
1637,C#6,239.125,0.125,50,42.26
1638,G#5,239.25,0.125,48,42.26
1639,F#5,239.375,0.125,49,42.26
1640,F5,239.5,0.125,50,42.26
1641,G#5,239.625,0.125,45,42.26
1642,F5,239.75,0.125,46,42.26
1643,C#5,239.875,0.125,46,42.26
1644,C5,240.0,0.125,55,42.26
1645,G#5,240.125,0.125,42,42.26
1646,B-5,240.25,0.125,42,42.26
1647,G#5,240.375,0.125,42,42.26
1648,C6,240.5,0.125,51,42.26
1649,F#3,240.5,1.0,66,42.26
1650,G#5,240.625,0.125,42,42.26
1651,B-5,240.75,0.125,42,42.26
1652,G#5,240.875,0.125,42,42.26
1653,E-6,241.0,0.125,55,42.26
1654,G#5,241.125,0.125,41,42.26
1655,B-5,241.25,0.125,44,42.26
1656,G#5,241.375,0.125,44,42.26
1657,C6,241.5,0.125,48,42.26
1658,F#4,241.5,0.5,59,42.26
1659,G#4,241.5,0.5,59,42.26
1660,E-5,241.5,0.5,59,42.26
1661,G#5,241.625,0.125,44,42.26
1662,B-5,241.75,0.125,44,42.26
1663,G#5,241.875,0.125,44,42.26
1664,C#6,242.0,0.125,53,42.26
1665,F#4,242.0,0.5,59,42.26
1666,G#4,242.0,0.5,59,42.26
1667,E-5,242.0,0.5,59,42.26
1668,G#5,242.125,0.125,44,42.26
1669,B-5,242.25,0.125,44,42.26
1670,G#5,242.375,0.125,44,42.26
1671,C#6,242.5,0.125,55,42.26
1672,F4,242.5,0.25,52,42.26
1673,G#4,242.5,0.25,52,42.26
1674,C#5,242.5,0.25,52,42.26
1675,G#5,242.625,0.125,44,42.26
1676,B-5,242.75,0.125,44,42.26
1677,G#5,242.875,0.125,44,42.26
1678,F#5,243.0,0.125,48,42.26
1679,E-4,243.0,0.25,49,42.26
1680,G#4,243.0,0.25,49,42.26
1681,C5,243.0,0.25,49,42.26
1682,G#5,243.125,0.125,44,42.26
1683,B-5,243.25,0.125,44,42.26
1684,G#5,243.375,0.125,44,42.26
1685,F5,243.5,0.125,48,42.26
1686,C#4,243.5,0.25,45,42.26
1687,G#4,243.5,0.25,45,42.26
1688,C#5,243.5,0.25,45,42.26
1689,G#5,243.625,0.125,45,42.26
1690,B-5,243.75,0.125,45,42.26
1691,G#5,243.875,0.125,45,42.26
1692,C5,244.0,0.125,55,42.26
1693,G#5,244.125,0.125,42,42.26
1694,B-5,244.25,0.125,42,42.26
1695,G#5,244.375,0.125,42,42.26
1696,C6,244.5,0.125,51,42.26
1697,F#3,244.5,1.0,66,42.26
1698,G#5,244.625,0.125,42,42.26
1699,B-5,244.75,0.125,42,42.26
1700,G#5,244.875,0.125,42,42.26
1701,E-6,245.0,0.125,55,42.26
1702,G#5,245.125,0.125,41,42.26
1703,B-5,245.25,0.125,44,42.26
1704,G#5,245.375,0.125,44,42.26
1705,B-5,245.5,0.125,48,42.26
1706,C5,245.5,0.5,59,42.26
1707,E-5,245.5,0.5,59,42.26
1708,F#5,245.5,0.5,59,42.26
1709,G#5,245.625,0.125,44,42.26
1710,B-5,245.75,0.125,44,42.26
1711,G#5,245.875,0.125,44,42.26
1712,B-5,246.0,0.125,53,42.26
1713,C5,246.0,0.5,59,42.26
1714,E-5,246.0,0.5,59,42.26
1715,F#5,246.0,0.5,59,42.26
1716,G#5,246.125,0.125,44,42.26
1717,B-5,246.25,0.125,44,42.26
1718,G#5,246.375,0.125,44,42.26
1719,C#6,246.5,0.125,55,42.26
1720,G#4,246.5,0.25,48,42.26
1721,C#5,246.5,0.25,48,42.26
1722,F5,246.5,0.25,48,42.26
1723,G#5,246.625,0.125,44,42.26
1724,B-5,246.75,0.125,44,42.26
1725,G#5,246.875,0.125,44,42.26
1726,E-6,247.0,0.125,59,42.26
1727,F#4,247.0,0.25,51,42.26
1728,C5,247.0,0.25,51,42.26
1729,E-5,247.0,0.25,51,42.26
1730,G#5,247.125,0.125,47,42.26
1731,B-5,247.25,0.125,47,42.26
1732,G#5,247.375,0.125,44,42.26
1733,F6,247.5,0.125,57,42.26
1734,F4,247.5,0.25,48,42.26
1735,G#4,247.5,0.25,48,42.26
1736,C#5,247.5,0.25,48,42.26
1737,G#5,247.625,0.125,47,42.26
1738,B-5,247.75,0.125,47,42.26
1739,G#5,247.875,0.125,48,42.26
1740,E-6,248.0,0.125,71,42.26
1741,C6,248.125,0.125,58,42.26
1742,C#6,248.25,0.125,58,42.26
1743,C6,248.375,0.125,58,42.26
1744,E-6,248.5,0.125,72,42.26
1745,F#4,248.5,1.0,74,42.26
1746,C5,248.5,1.0,74,42.26
1747,E-5,248.5,1.0,74,42.26
1748,C6,248.625,0.125,58,42.26
1749,C#6,248.75,0.125,59,42.26
1750,C6,248.875,0.125,61,42.26
1751,G#6,249.0,0.125,75,42.26
1752,C6,249.125,0.125,57,42.26
1753,C#6,249.25,0.125,61,42.26
1754,C6,249.375,0.125,61,42.26
1755,G#6,249.5,0.125,78,42.26
1756,E-5,249.5,0.5,72,42.26
1757,F#5,249.5,0.5,72,42.26
1758,G#5,249.5,0.5,72,42.26
1759,C6,249.625,0.125,68,42.26
1760,C#6,249.75,0.125,69,42.26
1761,C6,249.875,0.125,70,42.26
1762,G#6,250.0,0.125,82,42.26
1763,E-5,250.0,0.5,72,42.26
1764,F#5,250.0,0.5,72,42.26
1765,G#5,250.0,0.5,72,42.26
1766,C6,250.125,0.125,72,42.26
1767,C#6,250.25,0.125,73,42.26
1768,C6,250.375,0.125,74,42.26
1769,G#6,250.5,0.125,90,42.26
1770,C#5,250.5,0.25,60,42.26
1771,F5,250.5,0.25,60,42.26
1772,G#5,250.5,0.25,60,42.26
1773,C#6,250.625,0.125,78,42.26
1774,E-6,250.75,0.125,78,42.26
1775,C#6,250.875,0.125,80,42.26
1776,G#6,251.0,0.125,97,42.26
1777,C5,251.0,0.25,64,42.26
1778,F#4,251.0,0.25,64,42.26
1779,E-5,251.0,0.25,64,42.26
1780,F#5,251.0,0.25,64,42.26
1781,E-6,251.125,0.125,81,42.26
1782,F6,251.25,0.125,82,42.26
1783,E-6,251.375,0.125,84,42.26
1784,G#6,251.5,0.125,99,42.26
1785,G#4,251.5,0.25,63,42.26
1786,F4,251.5,0.25,63,42.26
1787,C#5,251.5,0.25,63,42.26
1788,F5,251.5,0.25,63,42.26
1789,F6,251.625,0.125,84,42.26
1790,F#6,251.75,0.125,85,42.26
1791,F6,251.875,0.125,88,42.26
1792,B-6,252.0,0.125,104,42.26
1793,F#6,252.125,0.125,92,42.26
1794,B-6,252.25,0.125,97,42.26
1795,G#6,252.375,0.125,86,42.26
1796,F#6,252.5,0.125,97,42.26
1797,E-4,252.5,0.25,71,42.26
1798,F#4,252.5,0.25,71,42.26
1799,B-4,252.5,0.25,71,42.26
1800,C#5,252.5,0.25,71,42.26
1801,F6,252.625,0.125,83,42.26
1802,E-6,252.75,0.125,90,42.26
1803,C#6,252.875,0.125,78,42.26
1804,C6,253.0,0.125,86,42.26
1805,B-5,253.125,0.125,79,42.26
1806,G#5,253.25,0.125,82,42.26
1807,F#5,253.375,0.125,75,42.26
1808,F5,253.5,0.125,79,42.26
1809,G#3,253.5,0.25,72,42.26
1810,C4,253.5,0.25,72,42.26
1811,E-4,253.5,0.25,72,42.26
1812,F#4,253.5,0.25,72,42.26
1813,E-5,253.625,0.125,72,42.26
1814,C#5,253.75,0.125,75,42.26
1815,C5,253.875,0.125,69,42.26
1816,C#5,254.0,0.125,72,42.26
1817,B-4,254.125,0.125,70,42.26
1818,G#4,254.25,0.125,69,42.26
1819,F#4,254.375,0.125,67,42.26
1820,F4,254.5,0.125,64,42.26
1821,E-4,254.625,0.125,63,42.26
1822,C#4,254.75,0.125,61,42.26
1823,C4,254.875,0.125,60,42.26
1824,B-3,255.0,0.125,54,42.26
1825,G#3,255.125,0.125,53,42.26
1826,F#3,255.25,0.125,51,42.26
1827,F3,255.375,0.125,50,42.26
1828,E-3,255.5,0.125,48,42.26
1829,C#3,255.625,0.125,47,42.26
1830,G#2,255.75,0.125,45,42.26
1831,F2,255.875,0.125,44,42.26
1832,C#2,256.0,1.0,47,42.26
1833,C#3,256.0,1.0,42,42.26
1834,F3,256.0,1.0,42,42.26
1835,G#3,256.0,1.0,42,42.26
1836,F#1,257.0,1.0,35,42.26
1837,C#3,257.0,1.0,42,42.26
1838,F#3,257.0,1.0,42,42.26
1839,B-3,257.0,1.0,42,42.26
1840,C#2,258.0,1.5,37,42.26
1841,C#3,258.0,1.5,39,42.26
1842,F3,258.0,1.5,39,42.26
1843,G#3,258.0,1.5,39,42.26
1844,F#3,259.5,0.5,35,42.26
1845,C#4,259.5,0.5,39,42.26
1846,E-4,259.5,0.5,39,42.26
1847,B-4,259.5,0.5,39,42.26
1848,G#3,260.0,1.25,40,42.26
1849,C#4,260.0,1.0,42,42.26
1850,E-4,260.0,1.0,42,42.26
1851,G#4,260.0,1.0,42,42.26
1852,C4,261.0,1.0,41,42.26
1853,E-4,261.0,1.0,41,42.26
1854,G#4,261.0,1.0,41,42.26
1855,F#3,261.25,0.25,38,42.26
1856,F3,261.5,0.25,38,42.26
1857,E-3,261.75,0.25,38,42.26
1858,C#3,262.0,0.25,40,42.26
1859,C#4,262.0,0.5,42,42.26
1860,F4,262.0,0.5,42,42.26
1861,G#4,262.0,0.5,42,42.26
1862,B-2,262.25,0.25,37,42.26
1863,G#2,262.5,0.25,37,42.26
1864,F#2,262.75,0.25,37,42.26
1865,F2,263.0,0.25,40,42.26
1866,G#2,263.25,0.25,38,42.26
1867,F#2,263.5,0.25,38,42.26
1868,E-2,263.75,0.25,38,42.26
1869,F3,264.0,1.0,48,42.26
1870,G#3,264.0,1.0,48,42.26
1871,C#4,264.0,1.0,48,42.26
1872,C#2,264.0,1.0,42,42.26
1873,C#3,264.0,1.0,42,42.26
1874,F#3,265.0,1.0,50,42.26
1875,B-3,265.0,1.0,50,42.26
1876,C#4,265.0,1.0,50,42.26
1877,F#1,265.0,1.0,44,42.26
1878,F#2,265.0,1.0,44,42.26
1879,F3,266.0,1.5,39,42.26
1880,G#3,266.0,1.5,39,42.26
1881,C#4,266.0,1.5,39,42.26
1882,C#2,266.0,1.5,30,42.26
1883,C#3,266.0,1.5,30,42.26
1884,A3,267.5,0.5,36,42.26
1885,E4,267.5,0.5,39,42.26
1886,G4,267.5,0.5,39,42.26
1887,C#5,267.5,0.5,39,42.26
1888,G#3,268.0,1.25,37,42.26
1889,E-4,268.0,1.0,42,42.26
1890,F#4,268.0,1.0,42,42.26
1891,C#5,268.0,1.0,42,42.26
1892,E-4,269.0,1.0,39,42.26
1893,F#4,269.0,1.0,39,42.26
1894,C5,269.0,1.0,39,42.26
1895,F#3,269.25,0.25,37,42.26
1896,E-3,269.5,0.25,37,42.26
1897,C3,269.75,0.25,37,42.26
1898,G#2,270.0,0.25,40,42.26
1899,C#4,270.0,0.5,39,42.26
1900,F4,270.0,0.5,39,42.26
1901,C#5,270.0,0.5,39,42.26
1902,F2,270.25,0.25,37,42.26
1903,E-2,270.5,0.25,37,42.26
1904,C#2,270.75,0.25,37,42.26
1905,C2,271.0,0.25,40,42.26
1906,C#2,271.25,0.25,37,42.26
1907,F2,271.5,0.25,37,42.26
1908,C#2,271.75,0.25,37,42.26
1909,C3,272.0,1.0,42,42.26
1910,E-3,272.0,1.0,42,42.26
1911,G#3,272.0,1.0,42,42.26
1912,F#2,272.0,1.0,40,42.26
1913,G#2,272.0,1.0,40,42.26
1914,C3,273.0,0.875,42,42.26
1915,F#3,273.0,0.875,42,42.26
1916,G#3,273.0,0.875,42,42.26
1917,E-2,273.0,0.875,35,42.26
1918,G#2,273.0,0.875,35,42.26
1919,C3,273.875,0.125,42,42.26
1920,E-3,273.875,0.125,42,42.26
1921,G#3,273.875,0.125,42,42.26
1922,F#2,273.875,0.125,35,42.26
1923,G#2,273.875,0.125,35,42.26
1924,C#3,274.0,0.75,42,42.26
1925,F3,274.0,0.75,42,42.26
1926,G#3,274.0,0.75,42,42.26
1927,F2,274.0,0.75,36,42.26
1928,G#2,274.0,0.75,36,42.26
1929,C#4,274.75,0.25,46,42.26
1930,F4,274.75,0.25,48,42.26
1931,G#4,274.75,0.25,48,42.26
1932,C#5,274.75,0.25,48,42.26
1933,E-4,275.0,0.5,44,42.26
1934,G#4,275.0,0.5,44,42.26
1935,F#4,275.0,0.5,44,42.26
1936,C5,275.0,0.5,44,42.26
1937,C#4,275.5,0.5,34,42.26
1938,F4,275.5,0.5,33,42.26
1939,G#4,275.5,0.5,33,42.26
1940,C#5,275.5,0.5,33,42.26
1941,C3,276.0,1.0,42,42.26
1942,E-3,276.0,1.0,42,42.26
1943,G#3,276.0,1.0,42,42.26
1944,F#2,276.0,1.0,40,42.26
1945,G#2,276.0,1.0,40,42.26
1946,C3,277.0,0.875,42,42.26
1947,F#3,277.0,0.875,42,42.26
1948,G#3,277.0,0.875,42,42.26
1949,E-2,277.0,0.875,35,42.26
1950,G#2,277.0,0.875,35,42.26
1951,C3,277.875,0.125,42,42.26
1952,E-3,277.875,0.125,42,42.26
1953,G#3,277.875,0.125,42,42.26
1954,F#2,277.875,0.125,35,42.26
1955,G#2,277.875,0.125,35,42.26
1956,C#3,278.0,0.75,42,42.26
1957,F3,278.0,0.75,42,42.26
1958,G#3,278.0,0.75,42,42.26
1959,F2,278.0,0.75,36,42.26
1960,G#2,278.0,0.75,36,42.26
1961,C#4,278.75,0.25,46,42.26
1962,F4,278.75,0.25,48,42.26
1963,G#4,278.75,0.25,48,42.26
1964,F5,278.75,0.25,48,42.26
1965,F5,279.0,0.25,58,42.26
1966,C4,279.0,0.5,44,42.26
1967,G#4,279.0,0.5,45,42.26
1968,F#4,279.0,0.5,45,42.26
1969,E-5,279.25,0.25,51,42.26
1970,C#4,279.5,0.5,34,42.26
1971,F4,279.5,0.5,33,42.26
1972,G#4,279.5,0.5,33,42.26
1973,C#5,279.5,0.5,33,42.26
1974,C3,280.0,1.0,57,42.26
1975,E-3,280.0,1.0,57,42.26
1976,G#3,280.0,1.0,57,42.26
1977,F#2,280.0,1.0,56,42.26
1978,G#2,280.0,1.0,56,42.26
1979,C3,281.0,0.875,68,42.26
1980,F#3,281.0,0.875,68,42.26
1981,G#3,281.0,0.875,68,42.26
1982,E-2,281.0,0.875,57,42.26
1983,G#2,281.0,0.875,57,42.26
1984,C3,281.875,0.125,73,42.26
1985,E-3,281.875,0.125,73,42.26
1986,G#3,281.875,0.125,73,42.26
1987,F#2,281.875,0.125,62,42.26
1988,G#2,281.875,0.125,62,42.26
1989,F4,282.0,0.75,82,42.26
1990,G#4,282.0,0.75,86,42.26
1991,C#5,282.0,0.75,86,42.26
1992,G#5,282.0,0.75,86,42.26
1993,C#5,282.75,0.25,74,42.26
1994,F5,282.75,0.25,74,42.26
1995,G#5,282.75,0.25,74,42.26
1996,C#4,282.75,0.25,60,42.26
1997,F4,282.75,0.25,60,42.26
1998,G#5,283.0,0.25,87,42.26
1999,E-5,283.0,0.5,70,42.26
2000,C5,283.0,0.5,70,42.26
2001,E-4,283.0,0.5,65,42.26
2002,F#4,283.0,0.5,65,42.26
2003,F#5,283.25,0.25,68,42.26
2004,C#5,283.5,0.5,64,42.26
2005,F5,283.5,0.5,64,42.26
2006,F4,283.5,0.25,50,42.26
2007,G#4,283.5,0.25,50,42.26
2008,C#4,283.75,0.25,44,42.26
2009,F4,283.75,0.25,44,42.26
2010,F#4,284.0,1.0,42,42.26
2011,B-4,284.0,1.0,42,42.26
2012,E-5,284.0,1.0,42,42.26
2013,F#3,284.0,1.0,37,42.26
2014,B-3,284.0,1.0,37,42.26
2015,E-4,285.0,1.0,40,42.26
2016,G#4,285.0,1.0,40,42.26
2017,C4,285.0,1.0,34,42.26
2018,G#3,285.0,1.0,34,42.26
2019,B-2,286.0,2.0,27,42.26
2020,C#3,286.125,1.875,28,42.26
2021,E3,286.25,1.75,30,42.26
2022,G3,286.375,1.625,31,42.26
2023,B-3,286.5,1.5,34,42.26
2024,C#4,286.625,1.375,30,42.26
2025,E4,286.75,1.25,32,42.26
2026,G4,286.875,1.125,34,42.26
2027,C#5,287.0,1.0,38,42.26
2028,B-3,288.0,2.0,74,42.26
2029,C#4,288.125,1.875,79,42.26
2030,E4,288.25,1.75,82,42.26
2031,G4,288.375,1.625,86,42.26
2032,B-4,288.5,1.5,90,42.26
2033,C#6,288.5,1.5,90,42.26
2034,G5,288.5,1.5,90,42.26
2035,E5,288.5,1.5,90,42.26
2036,C#5,288.5,1.5,90,42.26
