,note_name,start_time,duration,velocity,tempo
0,C4,0.002,2.0,61,74.0
1,E4,0.252,1.75,57,74.0
2,G4,0.502,0.25,56,74.0
3,C5,0.752,0.25,60,74.0
4,E5,1.002,9/40,63,74.0
5,G4,1.252,0.25,50,74.0
6,C5,1.502,0.25,47,74.0
7,E5,1.752,0.25,47,74.0
8,C4,2.002,999/500,62,74.0
9,E4,2.252,437/250,57,74.0
10,G4,2.502,0.25,56,74.0
11,C5,2.752,0.25,60,74.0
12,E5,3.002,9/40,62,74.0
13,G4,3.252,0.25,50,74.0
14,C5,3.502,0.25,48,74.0
15,E5,3.752,31/125,48,74.0
16,E5,4.0,1/500,48,74.0
17,C4,4.0,1/500,62,74.0
18,E4,4.0,1/500,57,74.0
19,C4,4.002,2.0,65,74.0
20,D4,4.252,1.75,60,74.0
21,A4,4.502,0.25,56,74.0
22,D5,4.752,0.25,60,74.0
23,F5,5.002,9/40,65,74.0
24,A4,5.252,0.25,51,74.0
25,D5,5.502,0.25,50,74.0
26,F5,5.752,0.25,50,74.0
27,C4,6.002,999/500,65,74.0
28,D4,6.252,437/250,60,74.0
29,A4,6.502,0.25,58,74.0
30,D5,6.752,0.25,60,74.0
31,F5,7.002,9/40,65,74.0
32,A4,7.252,0.25,52,74.0
33,D5,7.502,0.25,50,74.0
34,F5,7.752,31/125,50,74.0
35,F5,8.0,1/500,50,74.0
36,C4,8.0,1/500,65,74.0
37,D4,8.0,1/500,60,74.0
38,B3,8.002,2.0,65,74.0
39,D4,8.252,1.75,60,74.0
40,G4,8.502,0.25,56,74.0
41,D5,8.752,0.25,60,74.0
42,F5,9.002,9/40,65,74.0
43,G4,9.252,0.25,51,74.0
44,D5,9.502,0.25,50,74.0
45,F5,9.752,0.25,50,74.0
46,B3,10.002,999/500,65,74.0
47,D4,10.252,437/250,60,74.0
48,G4,10.502,0.25,56,74.0
49,D5,10.752,0.25,60,74.0
50,F5,11.002,9/40,65,74.0
51,G4,11.252,0.25,52,74.0
52,D5,11.502,0.25,50,74.0
53,F5,11.752,31/125,50,74.0
54,F5,12.0,1/500,50,74.0
55,B3,12.0,1/500,65,74.0
56,D4,12.0,1/500,60,74.0
57,C4,12.002,2.0,61,74.0
58,E4,12.252,1.75,57,74.0
59,G4,12.502,0.25,53,74.0
60,C5,12.752,0.25,55,74.0
61,E5,13.002,9/40,60,74.0
62,G4,13.252,0.25,50,74.0
63,C5,13.502,0.25,47,74.0
64,E5,13.752,0.25,47,74.0
65,C4,14.002,999/500,62,74.0
66,E4,14.252,437/250,57,74.0
67,G4,14.502,0.25,55,74.0
68,C5,14.752,0.25,57,74.0
69,E5,15.002,9/40,61,74.0
70,G4,15.252,0.25,50,74.0
71,C5,15.502,0.25,48,74.0
72,E5,15.752,31/125,48,74.0
73,E5,16.0,1/500,48,74.0
74,C4,16.0,1/500,62,74.0
75,E4,16.0,1/500,57,74.0
76,C4,16.002,2.0,67,74.0
77,E4,16.252,1.75,62,74.0
78,A4,16.502,0.25,61,74.0
79,E5,16.752,0.25,66,74.0
80,A5,17.002,9/40,70,74.0
81,A4,17.252,0.25,55,74.0
82,E5,17.502,0.25,51,74.0
83,A5,17.752,0.25,51,74.0
84,C4,18.002,999/500,68,74.0
85,E4,18.252,437/250,62,74.0
86,A4,18.502,0.25,61,74.0
87,E5,18.752,0.25,65,74.0
88,A5,19.002,9/40,68,74.0
89,A4,19.252,0.25,55,74.0
90,E5,19.502,0.25,52,74.0
91,A5,19.752,31/125,52,74.0
92,A5,20.0,1/500,52,74.0
93,C4,20.0,1/500,68,74.0
94,E4,20.0,1/500,62,74.0
95,C4,20.002,2.0,61,74.0
96,D4,20.252,1.75,57,74.0
97,F#4,20.502,0.25,56,74.0
98,A4,20.752,0.25,60,74.0
99,D5,21.002,9/40,63,74.0
100,F#4,21.252,0.25,50,74.0
101,A4,21.502,0.25,47,74.0
102,D5,21.752,0.25,47,74.0
103,C4,22.002,999/500,62,74.0
104,D4,22.252,437/250,57,74.0
105,F#4,22.502,0.25,56,74.0
106,A4,22.752,0.25,60,74.0
107,D5,23.002,9/40,62,74.0
108,F#4,23.252,0.25,50,74.0
109,A4,23.502,0.25,48,74.0
110,D5,23.752,31/125,48,74.0
111,D5,24.0,1/500,48,74.0
112,C4,24.0,1/500,62,74.0
113,D4,24.0,1/500,57,74.0
114,B3,24.002,2.0,65,74.0
115,D4,24.252,1.75,60,74.0
116,G4,24.502,0.25,58,74.0
117,D5,24.752,0.25,63,74.0
118,G5,25.002,9/40,66,74.0
119,G4,25.252,0.25,51,74.0
120,D5,25.502,0.25,50,74.0
121,G5,25.752,0.25,50,74.0
122,B3,26.002,999/500,65,74.0
123,D4,26.252,437/250,60,74.0
124,G4,26.502,0.25,58,74.0
125,D5,26.752,0.25,62,74.0
126,G5,27.002,9/40,65,74.0
127,G4,27.252,0.25,52,74.0
128,D5,27.502,0.25,50,74.0
129,G5,27.752,31/125,50,74.0
130,G5,28.0,1/500,50,74.0
131,B3,28.0,1/500,65,74.0
132,D4,28.0,1/500,60,74.0
133,B3,28.002,2.0,61,74.0
134,C4,28.252,1.75,57,74.0
135,E4,28.502,0.25,56,74.0
136,G4,28.752,0.25,60,74.0
137,C5,29.002,9/40,63,74.0
138,E4,29.252,0.25,50,74.0
139,G4,29.502,0.25,47,74.0
140,C5,29.752,0.25,47,74.0
141,B3,30.002,999/500,62,74.0
142,C4,30.252,437/250,57,74.0
143,E4,30.502,0.25,56,74.0
144,G4,30.752,0.25,60,74.0
145,C5,31.002,9/40,62,74.0
146,E4,31.252,0.25,50,74.0
147,G4,31.502,0.25,48,74.0
148,C5,31.752,31/125,48,74.0
149,C5,32.0,1/500,48,74.0
150,B3,32.0,1/500,62,74.0
151,C4,32.0,1/500,57,74.0
152,A3,32.002,2.0,61,74.0
153,C4,32.252,1.75,57,74.0
154,E4,32.502,0.25,56,74.0
155,G4,32.752,0.25,60,74.0
156,C5,33.002,9/40,63,74.0
157,E4,33.252,0.25,50,74.0
158,G4,33.502,0.25,47,74.0
159,C5,33.752,0.25,47,74.0
160,A3,34.002,999/500,62,74.0
161,C4,34.252,437/250,57,74.0
162,E4,34.502,0.25,56,74.0
163,G4,34.752,0.25,60,74.0
164,C5,35.002,9/40,62,74.0
165,E4,35.252,0.25,50,74.0
166,G4,35.502,0.25,48,74.0
167,C5,35.752,31/125,48,74.0
168,C5,36.0,1/500,48,74.0
169,A3,36.0,1/500,62,74.0
170,C4,36.0,1/500,57,74.0
171,D3,36.002,2.0,61,74.0
172,A3,36.252,1.75,57,74.0
173,D4,36.502,0.25,56,74.0
174,F#4,36.752,0.25,60,74.0
175,C5,37.002,9/40,63,74.0
176,D4,37.252,0.25,50,74.0
177,F#4,37.502,0.25,47,74.0
178,C5,37.752,0.25,47,74.0
179,D3,38.002,999/500,62,74.0
180,A3,38.252,437/250,57,74.0
181,D4,38.502,0.25,56,74.0
182,F#4,38.752,0.25,60,74.0
183,C5,39.002,9/40,62,74.0
184,D4,39.252,0.25,50,74.0
185,F#4,39.502,0.25,48,74.0
186,C5,39.752,31/125,48,74.0
187,C5,40.0,1/500,48,74.0
188,D3,40.0,1/500,62,74.0
189,A3,40.0,1/500,57,74.0
190,G3,40.002,2.0,57,74.0
191,B3,40.252,1.75,55,74.0
192,D4,40.502,0.25,53,74.0
193,G4,40.752,0.25,56,74.0
194,B4,41.002,9/40,60,74.0
195,D4,41.252,0.25,46,74.0
196,G4,41.502,0.25,45,74.0
197,B4,41.752,0.25,45,74.0
198,G3,42.002,999/500,58,74.0
199,B3,42.252,437/250,55,74.0
200,D4,42.502,0.25,53,74.0
201,G4,42.752,0.25,56,74.0
202,B4,43.002,9/40,58,74.0
203,D4,43.252,0.25,47,74.0
204,G4,43.502,0.25,45,74.0
205,B4,43.752,31/125,45,74.0
206,B4,44.0,1/500,45,74.0
207,G3,44.0,1/500,58,74.0
208,B3,44.0,1/500,55,74.0
209,G3,44.002,2.0,57,74.0
210,B-3,44.252,1.75,55,74.0
211,E4,44.502,0.25,53,74.0
212,G4,44.752,0.25,56,74.0
213,C#5,45.002,9/40,60,74.0
214,E4,45.252,0.25,46,74.0
215,G4,45.502,0.25,45,74.0
216,C#5,45.752,0.25,45,74.0
217,G3,46.002,999/500,58,74.0
218,B-3,46.252,437/250,55,74.0
219,E4,46.502,0.25,53,74.0
220,G4,46.752,0.25,56,74.0
221,C#5,47.002,9/40,58,74.0
222,E4,47.252,0.25,47,74.0
223,G4,47.502,0.25,45,74.0
224,C#5,47.752,31/125,45,74.0
225,C#5,48.0,1/500,45,74.0
226,G3,48.0,1/500,58,74.0
227,B-3,48.0,1/500,55,74.0
228,F3,48.002,2.0,61,74.0
229,A3,48.252,1.75,57,74.0
230,D4,48.502,0.25,56,74.0
231,A4,48.752,0.25,60,74.0
232,D5,49.002,9/40,63,74.0
233,D4,49.252,0.25,50,74.0
234,A4,49.502,0.25,47,74.0
235,D5,49.752,0.25,47,74.0
236,F3,50.002,999/500,62,74.0
237,A3,50.252,437/250,57,74.0
238,D4,50.502,0.25,56,74.0
239,A4,50.752,0.25,60,74.0
240,D5,51.002,9/40,62,74.0
241,D4,51.252,0.25,50,74.0
242,A4,51.502,0.25,48,74.0
243,D5,51.752,31/125,48,74.0
244,D5,52.0,1/500,48,74.0
245,F3,52.0,1/500,62,74.0
246,A3,52.0,1/500,57,74.0
247,F3,52.002,2.0,57,74.0
248,G#3,52.252,1.75,55,74.0
249,D4,52.502,0.25,53,74.0
250,F4,52.752,0.25,56,74.0
251,B4,53.002,9/40,60,74.0
252,D4,53.252,0.25,46,74.0
253,F4,53.502,0.25,45,74.0
254,B4,53.752,0.25,45,74.0
255,F3,54.002,999/500,58,74.0
256,G#3,54.252,437/250,55,74.0
257,D4,54.502,0.25,53,74.0
258,F4,54.752,0.25,56,74.0
259,B4,55.002,9/40,58,74.0
260,D4,55.252,0.25,47,74.0
261,F4,55.502,0.25,45,74.0
262,B4,55.752,31/125,45,74.0
263,B4,56.0,1/500,45,74.0
264,F3,56.0,1/500,58,74.0
265,G#3,56.0,1/500,55,74.0
266,E3,56.002,2.0,57,74.0
267,G3,56.252,1.75,55,74.0
268,C4,56.502,0.25,53,74.0
269,G4,56.752,0.25,56,74.0
270,C5,57.002,9/40,60,74.0
271,C4,57.252,0.25,46,74.0
272,G4,57.502,0.25,45,74.0
273,C5,57.752,0.25,45,74.0
274,E3,58.002,999/500,58,74.0
275,G3,58.252,437/250,55,74.0
276,C4,58.502,0.25,53,74.0
277,G4,58.752,0.25,56,74.0
278,C5,59.002,9/40,58,74.0
279,C4,59.252,0.25,47,74.0
280,G4,59.502,0.25,45,74.0
281,C5,59.752,31/125,45,74.0
282,C5,60.0,1/500,45,74.0
283,E3,60.0,1/500,58,74.0
284,G3,60.0,1/500,55,74.0
285,E3,60.002,2.0,55,74.0
286,F3,60.252,1.75,51,74.0
287,A3,60.502,0.25,50,74.0
288,C4,60.752,0.25,53,74.0
289,F4,61.002,9/40,56,74.0
290,A3,61.252,0.25,45,74.0
291,C4,61.502,0.25,42,74.0
292,F4,61.752,0.25,42,74.0
293,E3,62.002,999/500,55,74.0
294,F3,62.252,437/250,51,74.0
295,A3,62.502,0.25,50,74.0
296,C4,62.752,0.25,53,74.0
297,F4,63.002,9/40,55,74.0
298,A3,63.252,0.25,45,74.0
299,C4,63.502,0.25,43,74.0
300,F4,63.752,31/125,43,74.0
301,F4,64.0,1/500,43,74.0
302,E3,64.0,1/500,55,74.0
303,F3,64.0,1/500,51,74.0
304,D3,64.002,2.0,55,74.0
305,F3,64.252,1.75,51,74.0
306,A3,64.502,0.25,50,74.0
307,C4,64.752,0.25,53,74.0
308,F4,65.002,9/40,56,74.0
309,A3,65.252,0.25,45,74.0
310,C4,65.502,0.25,42,74.0
311,F4,65.752,0.25,42,74.0
312,D3,66.002,999/500,55,74.0
313,F3,66.252,437/250,51,74.0
314,A3,66.502,0.25,50,74.0
315,C4,66.752,0.25,53,74.0
316,F4,67.002,9/40,55,74.0
317,A3,67.252,0.25,45,74.0
318,C4,67.502,0.25,43,74.0
319,F4,67.752,31/125,43,74.0
320,F4,68.0,1/500,43,74.0
321,D3,68.0,1/500,55,74.0
322,F3,68.0,1/500,51,74.0
323,G2,68.002,2.0,55,74.0
324,D3,68.252,1.75,51,74.0
325,G3,68.502,0.25,50,74.0
326,B3,68.752,0.25,53,74.0
327,F4,69.002,9/40,56,74.0
328,G3,69.252,0.25,45,74.0
329,B3,69.502,0.25,42,74.0
330,F4,69.752,0.25,42,74.0
331,G2,70.002,999/500,55,74.0
332,D3,70.252,437/250,51,74.0
333,G3,70.502,0.25,50,74.0
334,B3,70.752,0.25,53,74.0
335,F4,71.002,9/40,55,74.0
336,G3,71.252,0.25,45,74.0
337,B3,71.502,0.25,43,74.0
338,F4,71.752,31/125,43,74.0
339,F4,72.0,1/500,43,74.0
340,G2,72.0,1/500,55,74.0
341,D3,72.0,1/500,51,74.0
342,C3,72.002,2.0,55,74.0
343,E3,72.252,1.75,51,74.0
344,G3,72.502,0.25,50,74.0
345,C4,72.752,0.25,53,74.0
346,E4,73.002,9/40,56,74.0
347,G3,73.252,0.25,45,74.0
348,C4,73.502,0.25,42,74.0
349,E4,73.752,0.25,42,74.0
350,C3,74.002,999/500,55,74.0
351,E3,74.252,437/250,51,74.0
352,G3,74.502,0.25,50,74.0
353,C4,74.752,0.25,53,74.0
354,E4,75.002,9/40,55,74.0
355,G3,75.252,0.25,45,74.0
356,C4,75.502,0.25,43,74.0
357,E4,75.752,31/125,43,74.0
358,E4,76.0,1/500,43,74.0
359,C3,76.0,1/500,55,74.0
360,E3,76.0,1/500,51,74.0
361,C3,76.002,2.0,51,74.0
362,G3,76.252,1.75,48,74.0
363,B-3,76.502,0.25,47,74.0
364,C4,76.752,0.25,50,74.0
365,E4,77.002,9/40,53,74.0
366,B-3,77.252,0.25,41,74.0
367,C4,77.502,0.25,40,74.0
368,E4,77.752,0.25,40,74.0
369,C3,78.002,999/500,52,74.0
370,G3,78.252,437/250,48,74.0
371,B-3,78.502,0.25,47,74.0
372,C4,78.752,0.25,50,74.0
373,E4,79.002,9/40,52,74.0
374,B-3,79.252,0.25,42,74.0
375,C4,79.502,0.25,40,74.0
376,E4,79.752,31/125,40,74.0
377,E4,80.0,1/500,40,74.0
378,C3,80.0,1/500,52,74.0
379,G3,80.0,1/500,48,74.0
380,F2,80.002,2.0,51,74.0
381,F3,80.252,1.75,48,74.0
382,A3,80.502,0.25,47,74.0
383,C4,80.752,0.25,50,74.0
384,E4,81.002,9/40,53,74.0
385,A3,81.252,0.25,41,74.0
386,C4,81.502,0.25,40,74.0
387,E4,81.752,0.25,40,74.0
388,F2,82.002,999/500,52,74.0
389,F3,82.252,437/250,48,74.0
390,A3,82.502,0.25,47,74.0
391,C4,82.752,0.25,50,74.0
392,E4,83.002,9/40,52,74.0
393,A3,83.252,0.25,42,74.0
394,C4,83.502,0.25,40,74.0
395,E4,83.752,31/125,40,74.0
396,E4,84.0,1/500,40,74.0
397,F2,84.0,1/500,52,74.0
398,F3,84.0,1/500,48,74.0
399,F#2,84.002,2.0,55,74.0
400,C3,84.252,1.75,51,74.0
401,A3,84.502,0.25,50,74.0
402,C4,84.752,0.25,53,74.0
403,E-4,85.002,9/40,56,74.0
404,A3,85.252,0.25,45,74.0
405,C4,85.502,0.25,42,74.0
406,E-4,85.752,0.25,42,74.0
407,F#2,86.002,999/500,55,74.0
408,C3,86.252,437/250,51,74.0
409,A3,86.502,0.25,50,74.0
410,C4,86.752,0.25,53,74.0
411,E-4,87.002,9/40,55,74.0
412,A3,87.252,0.25,45,74.0
413,C4,87.502,0.25,43,74.0
414,E-4,87.752,31/125,43,74.0
415,E-4,88.0,1/500,43,74.0
416,F#2,88.0,1/500,55,74.0
417,C3,88.0,1/500,51,74.0
418,G#2,88.002,2.0,51,74.0
419,F3,88.252,1.75,48,74.0
420,B3,88.502,0.25,47,74.0
421,C4,88.752,0.25,50,74.0
422,D4,89.002,9/40,53,74.0
423,B3,89.252,0.25,41,74.0
424,C4,89.502,0.25,40,74.0
425,D4,89.752,0.25,40,74.0
426,G#2,90.002,999/500,52,74.0
427,F3,90.252,437/250,48,74.0
428,B3,90.502,0.25,47,74.0
429,C4,90.752,0.25,50,74.0
430,D4,91.002,9/40,52,74.0
431,B3,91.252,0.25,42,74.0
432,C4,91.502,0.25,40,74.0
433,D4,91.752,31/125,40,74.0
434,D4,92.0,1/500,40,74.0
435,G#2,92.0,1/500,52,74.0
436,F3,92.0,1/500,48,74.0
437,G2,92.002,2.0,55,74.0
438,F3,92.252,1.75,51,74.0
439,G3,92.502,0.25,50,74.0
440,B3,92.752,0.25,53,74.0
441,D4,93.002,9/40,56,74.0
442,G3,93.252,0.25,45,74.0
443,B3,93.502,0.25,42,74.0
444,D4,93.752,0.25,42,74.0
445,G2,94.002,999/500,55,74.0
446,F3,94.252,437/250,51,74.0
447,G3,94.502,0.25,50,74.0
448,B3,94.752,0.25,53,74.0
449,D4,95.002,9/40,55,74.0
450,G3,95.252,0.25,45,74.0
451,B3,95.502,0.25,43,74.0
452,D4,95.752,31/125,43,74.0
453,D4,96.0,1/500,43,74.0
454,G2,96.0,1/500,55,74.0
455,F3,96.0,1/500,51,74.0
456,G2,96.002,2.0,55,74.0
457,E3,96.252,1.75,51,74.0
458,G3,96.502,0.25,50,74.0
459,C4,96.752,0.25,53,74.0
460,E4,97.002,9/40,56,74.0
461,G3,97.252,0.25,45,74.0
462,C4,97.502,0.25,42,74.0
463,E4,97.752,0.25,42,74.0
464,G2,98.002,999/500,55,74.0
465,E3,98.252,437/250,51,74.0
466,G3,98.502,0.25,50,74.0
467,C4,98.752,0.25,53,74.0
468,E4,99.002,9/40,55,74.0
469,G3,99.252,0.25,45,74.0
470,C4,99.502,0.25,43,74.0
471,E4,99.752,31/125,43,74.0
472,E4,100.0,1/500,43,74.0
473,G2,100.0,1/500,55,74.0
474,E3,100.0,1/500,51,74.0
475,G2,100.002,2.0,57,74.0
476,D3,100.252,1.75,55,74.0
477,G3,100.502,0.25,53,74.0
478,C4,100.752,0.25,56,74.0
479,F4,101.002,9/40,60,74.0
480,G3,101.252,0.25,46,74.0
481,C4,101.502,0.25,45,74.0
482,F4,101.752,0.25,45,74.0
483,G2,102.002,999/500,58,74.0
484,D3,102.252,437/250,55,74.0
485,G3,102.502,0.25,53,74.0
486,C4,102.752,0.25,56,74.0
487,F4,103.002,9/40,58,74.0
488,G3,103.252,0.25,47,74.0
489,C4,103.502,0.25,45,74.0
490,F4,103.752,31/125,45,74.0
491,F4,104.0,1/500,45,74.0
492,G2,104.0,1/500,58,74.0
493,D3,104.0,1/500,55,74.0
494,G2,104.002,2.0,57,74.0
495,D3,104.252,1.75,55,74.0
496,G3,104.502,0.25,53,74.0
497,B3,104.752,0.25,56,74.0
498,F4,105.002,9/40,60,74.0
499,G3,105.252,0.25,46,74.0
500,B3,105.502,0.25,45,74.0
501,F4,105.752,0.25,45,74.0
502,G2,106.002,999/500,58,74.0
503,D3,106.252,437/250,55,74.0
504,G3,106.502,0.25,53,74.0
505,B3,106.752,0.25,56,74.0
506,F4,107.002,9/40,58,74.0
507,G3,107.252,0.25,47,74.0
508,B3,107.502,0.25,45,74.0
509,F4,107.752,31/125,45,74.0
510,F4,108.0,1/500,45,74.0
511,G2,108.0,1/500,58,74.0
512,D3,108.0,1/500,55,74.0
513,G2,108.002,2.0,61,74.0
514,E-3,108.252,1.75,57,74.0
515,A3,108.502,0.25,56,74.0
516,C4,108.752,0.25,60,74.0
517,F#4,109.002,9/40,63,74.0
518,A3,109.252,0.25,50,74.0
519,C4,109.502,0.25,47,74.0
520,F#4,109.752,0.25,47,74.0
521,G2,110.002,999/500,62,74.0
522,E-3,110.252,437/250,57,74.0
523,A3,110.502,0.25,56,74.0
524,C4,110.752,0.25,60,74.0
525,F#4,111.002,9/40,62,74.0
526,A3,111.252,0.25,50,74.0
527,C4,111.502,0.25,48,74.0
528,F#4,111.752,31/125,48,74.0
529,F#4,112.0,1/500,48,74.0
530,G2,112.0,1/500,62,74.0
531,E-3,112.0,1/500,57,74.0
532,G2,112.002,2.0,65,74.0
533,E3,112.252,1.75,60,74.0
534,G3,112.502,0.25,58,74.0
535,C4,112.752,0.25,63,74.0
536,G4,113.002,9/40,66,74.0
537,G3,113.252,0.25,51,74.0
538,C4,113.502,0.25,50,74.0
539,G4,113.752,0.25,50,74.0
540,G2,114.002,999/500,65,74.0
541,E3,114.252,437/250,60,74.0
542,G3,114.502,0.25,58,74.0
543,C4,114.752,0.25,62,74.0
544,G4,115.002,9/40,65,74.0
545,G3,115.252,0.25,52,74.0
546,C4,115.502,0.25,50,74.0
547,G4,115.752,31/125,50,74.0
548,G4,116.0,1/500,50,74.0
549,G2,116.0,1/500,65,74.0
550,E3,116.0,1/500,60,74.0
551,G2,116.002,2.0,55,74.0
552,D3,116.252,1.75,51,74.0
553,G3,116.502,0.25,50,74.0
554,C4,116.752,0.25,53,74.0
555,F4,117.002,9/40,56,74.0
556,G3,117.252,0.25,45,74.0
557,C4,117.502,0.25,42,74.0
558,F4,117.752,0.25,42,74.0
559,G2,118.002,999/500,55,74.0
560,D3,118.252,437/250,51,74.0
561,G3,118.502,0.25,50,74.0
562,C4,118.752,0.25,53,74.0
563,F4,119.002,9/40,55,74.0
564,G3,119.252,0.25,45,74.0
565,C4,119.502,0.25,43,74.0
566,F4,119.752,31/125,43,74.0
567,F4,120.0,1/500,43,74.0
568,G2,120.0,1/500,55,74.0
569,D3,120.0,1/500,51,74.0
570,G2,120.002,2.0,55,74.0
571,D3,120.252,1.75,51,74.0
572,G3,120.502,0.25,50,74.0
573,B3,120.752,0.25,53,74.0
574,F4,121.002,9/40,56,74.0
575,G3,121.252,0.25,45,74.0
576,B3,121.502,0.25,42,74.0
577,F4,121.752,0.25,42,74.0
578,G2,122.002,999/500,55,74.0
579,D3,122.252,437/250,51,74.0
580,G3,122.502,0.25,50,74.0
581,B3,122.752,0.25,53,74.0
582,F4,123.002,9/40,55,74.0
583,G3,123.252,0.25,45,74.0
584,B3,123.502,0.25,43,74.0
585,F4,123.752,31/125,43,74.0
586,F4,124.0,1/500,43,74.0
587,G2,124.0,1/500,55,74.0
588,D3,124.0,1/500,51,74.0
589,C2,124.002,2.0,57,74.0
590,C3,124.252,1.75,55,74.0
591,G3,124.502,0.25,53,74.0
592,B-3,124.752,0.25,56,74.0
593,E4,125.002,9/40,60,74.0
594,G3,125.252,0.25,46,74.0
595,B-3,125.502,0.25,45,74.0
596,E4,125.752,0.25,45,74.0
597,C2,126.002,999/500,58,74.0
598,C3,126.252,437/250,55,74.0
599,G3,126.502,0.25,53,74.0
600,B-3,126.752,0.25,56,74.0
601,E4,127.002,9/40,58,74.0
602,G3,127.252,0.25,47,74.0
603,B-3,127.502,0.25,45,74.0
604,E4,127.752,31/125,45,74.0
605,E4,128.0,1/500,45,74.0
606,C2,128.0,1/500,58,74.0
607,C3,128.0,1/500,55,74.0
608,C2,128.002,1999/500,55,74.0
609,C3,128.25,3.75,51,74.0
610,F3,128.5,0.25,50,74.0
611,A3,128.75,0.25,53,74.0
612,C4,129.0,0.25,55,74.0
613,F4,129.25,0.25,53,74.0
614,C4,129.5,0.25,53,74.0
615,A3,129.75,0.25,53,74.0
616,C4,130.0,0.25,55,74.0
617,A3,130.25,0.25,50,74.0
618,F3,130.5,0.25,47,74.0
619,A3,130.75,0.25,46,74.0
620,F3,131.0,0.25,46,74.0
621,D3,131.25,0.25,42,74.0
622,F3,131.5,0.25,43,74.0
623,D3,131.75,0.25,38,74.0
624,C2,132.0,1/500,55,74.0
625,C2,132.002,1999/500,55,74.0
626,D3,132.25,3.75,51,74.0
627,G4,132.5,0.25,50,74.0
628,B4,132.75,0.25,53,74.0
629,D5,133.0,0.25,55,74.0
630,F5,133.25,0.25,60,74.0
631,D5,133.5,0.25,55,74.0
632,B4,133.75,0.25,53,74.0
633,D5,134.0,0.25,56,74.0
634,B4,134.25,0.25,53,74.0
635,G4,134.5,0.25,56,74.0
636,B4,134.75,0.25,53,74.0
637,D4,135.0,0.25,55,74.0
638,F4,135.25,0.25,50,74.0
639,E4,135.5,0.25,50,74.0
640,D4,135.75,0.25,50,74.0
641,C2,136.0,1/500,55,74.0
642,C5,136.002,3.0,50,74.0
643,G4,136.002,3.0,50,74.0
644,E4,136.002,3.0,50,74.0
645,C2,136.002,3.0,53,74.0
646,C3,136.002,3.0,53,74.0
647,C4,140.5,0.5,53,74.0
648,D4,141.0,0.5,54,74.0
649,E4,141.5,0.5,56,74.0
650,F4,142.0,0.75,60,74.0
651,G4,142.75,0.125,58,74.0
652,F4,142.875,0.125,58,74.0
653,E4,143.0,229/500,60,74.0
654,A4,143.5,0.5,60,74.0
655,D4,144.0,229/500,56,74.0
656,G4,144.5,0.75,60,74.0
657,A4,145.25,0.25,59,74.0
658,G4,145.5,0.25,59,74.0
659,F4,145.75,0.25,59,74.0
660,E4,146.0,0.25,58,74.0
661,F4,146.25,0.25,58,74.0
662,G4,146.5,0.5,53,74.0
663,E4,146.5,0.25,58,74.0
664,D4,146.75,0.25,57,74.0
665,A4,147.0,0.5,54,74.0
666,C4,147.0,0.25,57,74.0
667,D4,147.25,0.25,56,74.0
668,B4,147.5,0.5,55,74.0
669,C4,147.5,0.25,56,74.0
670,B3,147.75,0.25,56,74.0
671,C5,148.0,0.75,60,74.0
672,A3,148.0,0.5,56,74.0
673,F#4,148.5,0.5,56,74.0
674,D5,148.75,0.125,57,74.0
675,C5,148.875,0.125,57,74.0
676,B4,149.0,229/500,57,74.0
677,G4,149.0,1.5,60,74.0
678,E5,149.5,0.5,60,74.0
679,A4,150.0,229/500,56,74.0
680,D5,150.5,0.75,60,74.0
681,F#4,150.5,0.25,57,74.0
682,E4,150.75,0.25,57,74.0
683,F#4,151.0,229/500,57,74.0
684,E5,151.25,0.25,57,74.0
685,D5,151.5,0.25,57,74.0
686,D4,151.5,0.5,57,74.0
687,C5,151.75,0.25,56,74.0
688,B4,152.0,0.188,55,74.0
689,G4,152.0,0.5,59,74.0
690,G4,152.25,0.25,55,74.0
691,A4,152.5,0.25,56,74.0
692,F4,152.5,0.5,58,74.0
693,G3,152.5,0.5,50,74.0
694,B4,152.75,0.25,57,74.0
695,C5,153.0,0.25,57,74.0
696,E4,153.0,0.5,57,74.0
697,A3,153.0,0.5,52,74.0
698,B4,153.25,0.25,53,74.0
699,C5,153.5,0.25,54,74.0
700,D4,153.5,0.5,56,74.0
701,B3,153.5,0.5,55,74.0
702,D5,153.75,0.25,55,74.0
703,E5,154.0,0.25,56,74.0
704,C4,154.0,0.5,55,74.0
705,C4,154.0,0.75,60,74.0
706,D5,154.25,0.25,57,74.0
707,E5,154.5,0.25,58,74.0
708,F#5,154.75,0.25,59,74.0
709,D4,154.75,0.125,57,74.0
710,C4,154.875,0.125,57,74.0
711,G5,155.0,0.5,60,74.0
712,B3,155.0,229/500,57,74.0
713,B4,155.5,0.5,56,74.0
714,G4,155.5,0.5,60,74.0
715,E4,155.5,0.5,60,74.0
716,C5,156.0,229/500,60,74.0
717,G4,156.0,0.5,60,74.0
718,A3,156.0,229/500,56,74.0
719,A4,156.5,0.5,55,74.0
720,F4,156.5,0.25,58,74.0
721,D4,156.5,0.75,60,74.0
722,E4,156.75,0.25,58,74.0
723,D5,157.0,0.25,58,74.0
724,F4,157.0,1.25,58,74.0
725,C5,157.25,0.25,57,74.0
726,E4,157.25,0.25,58,74.0
727,B4,157.5,0.25,56,74.0
728,D4,157.5,0.25,57,74.0
729,A4,157.75,0.25,55,74.0
730,C4,157.75,0.25,56,74.0
731,G4,158.0,0.75,54,74.0
732,B3,158.0,229/500,55,74.0
733,F4,158.25,0.25,57,74.0
734,E4,158.5,0.5,57,74.0
735,C4,158.5,1.0,60,74.0
736,C3,158.5,0.5,51,74.0
737,G4,158.75,0.25,56,74.0
738,F4,159.0,0.25,55,74.0
739,D4,159.0,1.0,57,74.0
740,D3,159.0,0.5,53,74.0
741,E4,159.25,0.25,55,74.0
742,F4,159.5,0.25,55,74.0
743,B-3,159.5,0.5,58,74.0
744,E3,159.5,0.5,56,74.0
745,G4,159.75,0.25,55,74.0
746,A4,160.0,0.25,55,74.0
747,C4,160.0,0.5,56,74.0
748,A3,160.0,229/500,56,74.0
749,F3,160.0,0.75,60,74.0
750,G4,160.25,0.25,56,74.0
751,A4,160.5,0.25,55,74.0
752,F4,160.5,0.5,60,74.0
753,D4,160.5,0.5,60,74.0
754,B4,160.75,0.25,57,74.0
755,G3,160.75,0.125,57,74.0
756,F3,160.875,0.125,57,74.0
757,C5,161.0,2.0,59,74.0
758,G3,161.0,229/500,56,74.0
759,E3,161.0,229/500,57,74.0
760,G4,161.25,0.25,57,74.0
761,F4,161.5,0.25,57,74.0
762,C4,161.5,0.5,60,74.0
763,A3,161.5,0.5,60,74.0
764,E4,161.75,0.25,57,74.0
765,F4,162.0,229/500,57,74.0
766,D3,162.0,229/500,55,74.0
767,A3,162.25,0.25,55,74.0
768,D4,162.5,0.5,56,74.0
769,B3,162.5,0.25,56,74.0
770,G3,162.5,0.75,60,74.0
771,C4,162.75,0.25,58,74.0
772,B4,163.0,1.0,57,74.0
773,G4,163.0,1.0,62,74.0
774,D4,163.0,1.0,59,74.0
775,A3,163.25,0.25,59,74.0
776,G3,163.5,0.25,58,74.0
777,F3,163.75,0.25,57,74.0
778,G4,164.0,1.0,62,74.0
779,G3,164.0,1.0,60,74.0
780,E3,164.0,0.188,56,74.0
781,F3,164.25,0.25,57,74.0
782,C5,164.5,0.5,60,74.0
783,E3,164.5,0.25,56,74.0
784,D3,164.75,0.25,55,74.0
785,D5,165.0,0.5,63,74.0
786,C3,165.0,0.188,54,74.0
787,D3,165.25,0.25,57,74.0
788,E5,165.5,0.5,64,74.0
789,G3,165.5,0.5,53,74.0
790,C3,165.5,0.25,56,74.0
791,B2,165.75,0.25,55,74.0
792,F5,166.0,0.75,69,74.0
793,A3,166.0,0.5,54,74.0
794,A2,166.0,229/500,54,74.0
795,B3,166.5,0.5,55,74.0
796,D3,166.5,0.5,57,74.0
797,G5,166.75,0.125,66,74.0
798,F5,166.875,0.125,66,74.0
799,E5,167.0,229/500,66,74.0
800,C4,167.0,0.75,60,74.0
801,A3,167.0,0.5,60,74.0
802,A5,167.5,0.5,69,74.0
803,F#3,167.5,0.5,57,74.0
804,D4,167.75,0.125,58,74.0
805,C4,167.875,0.125,58,74.0
806,D5,168.0,229/500,64,74.0
807,B3,168.0,229/500,58,74.0
808,G3,168.0,0.25,58,74.0
809,A3,168.25,0.25,58,74.0
810,G5,168.5,0.75,69,74.0
811,E4,168.5,0.5,60,74.0
812,B-3,168.5,0.25,60,74.0
813,G3,168.75,0.25,58,74.0
814,A3,169.0,229/500,56,74.0
815,C#3,169.0,0.5,56,74.0
816,A5,169.25,0.25,67,74.0
817,G5,169.5,0.25,66,74.0
818,D4,169.5,0.75,60,74.0
819,D3,169.5,0.5,57,74.0
820,F5,169.75,0.25,64,74.0
821,E5,170.0,229/500,63,74.0
822,A3,170.0,1.0,58,74.0
823,E4,170.25,0.25,57,74.0
824,A5,170.5,0.75,70,74.0
825,D4,170.5,0.25,56,74.0
826,C4,170.75,0.25,56,74.0
827,B3,171.0,0.5,55,74.0
828,E3,171.0,1.0,56,74.0
829,B5,171.25,0.25,68,74.0
830,A5,171.5,0.25,67,74.0
831,E4,171.5,0.5,60,74.0
832,G5,171.75,0.25,66,74.0
833,F5,172.0,2.0,65,74.0
834,E4,172.0,1.0,60,74.0
835,A3,172.0,0.25,56,74.0
836,B3,172.25,0.25,57,74.0
837,G4,172.5,0.5,51,74.0
838,C4,172.5,0.25,58,74.0
839,D4,172.75,0.25,59,74.0
840,A4,173.0,0.5,53,74.0
841,D4,173.0,1.0,60,74.0
842,C4,173.0,0.25,60,74.0
843,B3,173.25,0.25,57,74.0
844,B4,173.5,0.5,56,74.0
845,A3,173.5,0.25,56,74.0
846,G3,173.75,0.25,55,74.0
847,E5,174.0,0.75,60,74.0
848,C5,174.0,0.75,60,74.0
849,C4,174.0,0.5,60,74.0
850,B3,174.25,0.25,58,74.0
851,C4,174.5,0.25,60,74.0
852,F#5,174.75,0.25,57,74.0
853,D5,174.75,0.125,57,74.0
854,A3,174.75,0.188,57,74.0
855,C5,174.875,0.125,57,74.0
856,G5,175.0,1.0,63,74.0
857,B4,175.0,229/500,57,74.0
858,E4,175.0,0.25,58,74.0
859,D4,175.25,0.25,58,74.0
860,E5,175.5,0.5,60,74.0
861,C4,175.5,0.25,57,74.0
862,B3,175.75,0.25,57,74.0
863,G5,176.0,1.0,63,74.0
864,A4,176.0,229/500,56,74.0
865,C4,176.0,0.188,60,74.0
866,A3,176.25,0.25,54,74.0
867,D5,176.5,0.75,60,74.0
868,B3,176.5,0.25,56,74.0
869,C4,176.75,0.25,58,74.0
870,F#5,177.0,1.0,63,74.0
871,D4,177.0,0.25,60,74.0
872,E5,177.25,0.25,57,74.0
873,C4,177.25,0.25,59,74.0
874,D5,177.5,0.25,56,74.0
875,B3,177.5,0.25,58,74.0
876,C5,177.75,0.25,55,74.0
877,A3,177.75,0.25,57,74.0
878,G5,178.0,0.25,60,74.0
879,B4,178.0,0.5,54,74.0
880,G3,178.0,1.0,56,74.0
881,F5,178.25,0.25,59,74.0
882,E5,178.5,0.25,58,74.0
883,G2,178.5,0.5,54,74.0
884,D5,178.75,0.25,57,74.0
885,C5,179.0,0.25,56,74.0
886,A2,179.0,0.5,55,74.0
887,D5,179.25,0.25,57,74.0
888,C5,179.5,0.25,57,74.0
889,D4,179.5,0.5,51,74.0
890,B2,179.5,0.5,55,74.0
891,B4,179.75,0.25,57,74.0
892,A4,180.0,0.25,57,74.0
893,E4,180.0,0.5,52,74.0
894,C3,180.0,0.75,60,74.0
895,C5,180.25,0.25,58,74.0
896,B4,180.5,0.25,58,74.0
897,F#4,180.5,0.5,54,74.0
898,A4,180.75,0.25,57,74.0
899,D3,180.75,0.125,58,74.0
900,C3,180.875,0.125,58,74.0
901,G4,181.0,0.75,60,74.0
902,B2,181.0,229/500,58,74.0
903,E3,181.5,0.5,60,74.0
904,A4,181.75,0.125,58,74.0
905,G4,181.875,0.125,58,74.0
906,F#4,182.0,229/500,58,74.0
907,A2,182.0,229/500,55,74.0
908,C5,182.25,0.25,58,74.0
909,B4,182.5,0.5,60,74.0
910,D3,182.5,0.75,60,74.0
911,A4,182.75,0.25,55,74.0
912,G#4,183.0,0.375,54,74.0
913,E4,183.0,229/500,57,74.0
914,E3,183.25,0.25,60,74.0
915,E5,183.5,0.5,60,74.0
916,A4,183.5,0.5,60,74.0
917,D3,183.5,0.25,58,74.0
918,C3,183.75,0.25,57,74.0
919,D5,184.0,0.5,58,74.0
920,A4,184.0,0.25,60,74.0
921,B2,184.0,0.5,55,74.0
922,B4,184.25,0.25,58,74.0
923,C5,184.5,0.25,56,74.0
924,A4,184.5,0.25,58,74.0
925,E3,184.5,0.5,52,74.0
926,B4,184.75,0.25,56,74.0
927,G4,184.75,0.25,58,74.0
928,A4,185.0,0.25,54,74.0
929,F#4,185.0,0.5,58,74.0
930,F#3,185.0,0.5,54,74.0
931,G#4,185.25,0.25,54,74.0
932,A4,185.5,0.25,54,74.0
933,F4,185.5,0.5,57,74.0
934,G#3,185.5,0.5,56,74.0
935,D3,185.5,0.5,58,74.0
936,B4,185.75,0.25,53,74.0
937,C5,186.0,0.188,56,74.0
938,E4,186.0,0.5,55,74.0
939,A3,186.0,0.75,60,74.0
940,C3,186.0,0.5,58,74.0
941,F#4,186.25,0.25,54,74.0
942,A4,186.5,0.25,54,74.0
943,D4,186.5,0.75,54,74.0
944,F3,186.5,1.0,60,74.0
945,G#4,186.75,0.25,55,74.0
946,B3,186.75,0.125,57,74.0
947,A3,186.875,0.125,57,74.0
948,B4,187.0,0.5,58,74.0
949,G#3,187.0,229/500,57,74.0
950,E4,187.25,0.25,54,74.0
951,A4,187.5,0.25,56,74.0
952,F#4,187.5,0.25,55,74.0
953,C4,187.5,0.5,60,74.0
954,E3,187.5,0.5,58,74.0
955,B4,187.75,0.25,56,74.0
956,G#4,187.75,0.25,55,74.0
957,C5,188.0,229/500,58,74.0
958,A4,188.0,0.25,57,74.0
959,F#3,188.0,229/500,56,74.0
960,E3,188.0,0.5,58,74.0
961,G#4,188.25,0.25,56,74.0
962,F5,188.5,0.5,64,74.0
963,A4,188.5,0.25,56,74.0
964,B3,188.5,0.75,60,74.0
965,D3,188.5,1.0,57,74.0
966,B4,188.75,0.25,56,74.0
967,E5,189.0,0.5,62,74.0
968,G#4,189.0,0.25,58,74.0
969,F#4,189.25,0.25,55,74.0
970,C4,189.25,0.25,60,74.0
971,D5,189.5,1.0,60,74.0
972,G#4,189.5,0.25,55,74.0
973,B3,189.5,0.25,59,74.0
974,E3,189.5,0.5,57,74.0
975,A4,189.75,0.25,55,74.0
976,A3,189.75,0.25,57,74.0
977,B4,190.0,0.5,59,74.0
978,G#3,190.0,229/500,56,74.0
979,F3,190.0,0.5,60,74.0
980,C5,190.5,0.25,58,74.0
981,A3,190.5,1.0,59,74.0
982,E3,190.5,0.25,55,74.0
983,B4,190.75,0.25,58,74.0
984,D3,190.75,0.25,55,74.0
985,B4,191.0,0.094,60,74.0
986,E3,191.0,1.0,58,74.0
987,C5,191.094,0.094,55,74.0
988,B4,191.188,0.562,60,74.0
989,G#3,191.5,0.5,57,74.0
990,A4,191.75,0.25,57,74.0
991,A4,192.0,1.0,60,74.0
992,A3,192.0,1.0,60,74.0
993,A2,192.0,1.0,61,74.0
994,C4,192.5,0.5,53,74.0
995,D4,193.0,0.5,54,74.0
996,E4,193.5,0.5,55,74.0
997,G3,193.5,0.5,52,74.0
998,F4,194.0,0.75,60,74.0
999,A3,194.0,0.5,54,74.0
1000,B3,194.5,0.5,56,74.0
1001,G4,194.75,0.125,58,74.0
1002,F4,194.875,0.125,58,74.0
1003,E4,195.0,229/500,58,74.0
1004,C4,195.0,0.75,60,74.0
1005,A4,195.5,0.5,60,74.0
1006,D4,195.75,0.125,57,74.0
1007,C4,195.875,0.125,57,74.0
1008,D4,196.0,229/500,56,74.0
1009,B3,196.0,229/500,57,74.0
1010,G4,196.5,0.75,60,74.0
1011,E4,196.5,0.5,60,74.0
1012,G2,196.5,0.5,52,74.0
1013,A3,197.0,229/500,55,74.0
1014,A2,197.0,0.5,53,74.0
1015,A4,197.25,0.25,57,74.0
1016,G4,197.5,0.25,57,74.0
1017,D4,197.5,1.0,60,74.0
1018,B2,197.5,0.5,55,74.0
1019,F4,197.75,0.25,57,74.0
1020,E4,198.0,229/500,57,74.0
1021,C3,198.0,0.75,60,74.0
1022,G4,198.5,0.5,53,74.0
1023,E4,198.5,0.5,56,74.0
1024,G3,198.5,0.5,57,74.0
1025,D3,198.75,0.125,57,74.0
1026,C3,198.875,0.125,57,74.0
1027,A4,199.0,0.5,54,74.0
1028,F#4,199.0,0.5,56,74.0
1029,D4,199.0,1.0,60,74.0
1030,B2,199.0,229/500,57,74.0
1031,B4,199.5,0.5,55,74.0
1032,G4,199.5,0.5,60,74.0
1033,E3,199.5,0.5,60,74.0
1034,C5,200.0,0.75,60,74.0
1035,G4,200.0,0.375,60,74.0
1036,C4,200.0,229/500,57,74.0
1037,A2,200.0,229/500,56,74.0
1038,F#4,200.5,0.5,58,74.0
1039,A3,200.5,0.5,57,74.0
1040,D3,200.5,0.75,60,74.0
1041,D5,200.75,0.125,57,74.0
1042,C5,200.875,0.125,57,74.0
1043,B4,201.0,229/500,57,74.0
1044,G#4,201.0,0.5,58,74.0
1045,E4,201.0,1.0,60,74.0
1046,E3,201.25,0.25,61,74.0
1047,C5,201.5,0.5,53,74.0
1048,A4,201.5,1.0,61,74.0
1049,D3,201.5,0.25,60,74.0
1050,C3,201.75,0.25,59,74.0
1051,D5,202.0,0.5,56,74.0
1052,D4,202.0,0.5,57,74.0
1053,B2,202.0,229/500,58,74.0
1054,E5,202.5,0.5,59,74.0
1055,G4,202.5,0.5,57,74.0
1056,B-2,202.5,0.5,57,74.0
1057,F5,203.0,0.75,64,74.0
1058,A4,203.0,0.5,57,74.0
1059,A2,203.0,0.5,57,74.0
1060,B4,203.5,0.5,57,74.0
1061,G2,203.5,0.5,56,74.0
1062,G5,203.75,0.125,60,74.0
1063,F5,203.875,0.125,60,74.0
1064,E5,204.0,229/500,60,74.0
1065,C5,204.0,0.75,60,74.0
1066,A2,204.0,0.375,56,74.0
1067,A5,204.5,0.5,68,74.0
1068,A3,204.5,0.5,51,74.0
1069,F#3,204.5,0.5,60,74.0
1070,D5,204.75,0.125,58,74.0
1071,C5,204.875,0.125,58,74.0
1072,D5,205.0,229/500,60,74.0
1073,B4,205.0,229/500,58,74.0
1074,B3,205.0,0.5,53,74.0
1075,G3,205.0,0.5,60,74.0
1076,G5,205.5,0.75,66,74.0
1077,E5,205.5,0.5,60,74.0
1078,C#4,205.5,0.5,55,74.0
1079,E3,205.5,0.5,57,74.0
1080,A4,206.0,229/500,58,74.0
1081,D4,206.0,0.75,60,74.0
1082,D3,206.0,479/500,57,74.0
1083,A5,206.25,0.25,66,74.0
1084,G5,206.5,0.25,64,74.0
1085,D5,206.5,0.75,60,74.0
1086,F5,206.75,0.25,63,74.0
1087,E4,206.75,0.125,58,74.0
1088,D4,206.875,0.125,58,74.0
1089,E5,207.0,229/500,61,74.0
1090,C4,207.0,229/500,58,74.0
1091,E3,207.0,0.5,56,74.0
1092,E5,207.25,0.25,57,74.0
1093,A5,207.5,0.5,67,74.0
1094,D5,207.5,0.25,56,74.0
1095,F4,207.5,0.5,60,74.0
1096,F3,207.5,0.5,56,74.0
1097,C5,207.75,0.25,55,74.0
1098,D5,208.0,229/500,60,74.0
1099,B4,208.0,229/500,54,74.0
1100,B3,208.0,229/500,54,74.0
1101,G3,208.0,0.75,60,74.0
1102,B-5,208.5,0.5,67,74.0
1103,G5,208.5,0.5,65,74.0
1104,E4,208.5,0.75,60,74.0
1105,A3,208.75,0.125,57,74.0
1106,G3,208.875,0.125,57,74.0
1107,A5,209.0,0.5,67,74.0
1108,C#5,209.0,0.5,58,74.0
1109,F3,209.0,229/500,57,74.0
1110,F4,209.25,0.25,61,74.0
1111,G5,209.5,0.25,64,74.0
1112,D5,209.5,0.5,58,74.0
1113,E4,209.5,0.25,59,74.0
1114,B-3,209.5,0.5,60,74.0
1115,F5,209.75,0.25,61,74.0
1116,D4,209.75,0.25,58,74.0
1117,G5,210.0,0.25,64,74.0
1118,E5,210.0,229/500,60,74.0
1119,C#4,210.0,0.5,56,74.0
1120,E3,210.0,229/500,55,74.0
1121,F5,210.25,0.25,61,74.0
1122,G5,210.5,0.25,64,74.0
1123,C#5,210.5,0.5,56,74.0
1124,A3,210.5,0.75,60,74.0
1125,E5,210.75,0.25,60,74.0
1126,F5,211.0,0.25,64,74.0
1127,D5,211.0,0.5,56,74.0
1128,G5,211.25,0.25,60,74.0
1129,B-3,211.25,0.25,58,74.0
1130,G5,211.5,0.062,64,74.0
1131,E5,211.5,0.5,56,74.0
1132,A3,211.5,0.25,58,74.0
1133,A5,211.562,0.062,55,74.0
1134,G5,211.625,0.062,55,74.0
1135,F5,211.75,0.125,60,74.0
1136,G3,211.75,0.25,57,74.0
1137,G5,211.875,0.125,60,74.0
1138,A5,212.0,0.188,67,74.0
1139,A4,212.0,0.5,58,74.0
1140,F3,212.0,0.25,58,74.0
1141,C#5,212.25,0.25,60,74.0
1142,E3,212.25,0.25,55,74.0
1143,D5,212.5,0.25,60,74.0
1144,A3,212.5,0.5,53,74.0
1145,F3,212.5,0.188,58,74.0
1146,G5,212.75,0.25,60,74.0
1147,D3,212.75,0.25,55,74.0
1148,E5,213.0,0.094,64,74.0
1149,B3,213.0,0.5,54,74.0
1150,G3,213.0,0.5,59,74.0
1151,F5,213.094,0.094,55,74.0
1152,E5,213.188,0.562,60,74.0
1153,E4,213.5,0.5,52,74.0
1154,C#4,213.5,0.5,55,74.0
1155,A3,213.5,0.5,59,74.0
1156,D5,213.75,0.25,60,74.0
1157,D5,214.0,0.5,61,74.0
1158,F#4,214.0,0.5,53,74.0
1159,D4,214.0,0.75,60,74.0
1160,D3,214.0,2.0,56,74.0
1161,G4,214.5,0.5,55,74.0
1162,E4,214.75,0.125,57,74.0
1163,D4,214.875,0.125,57,74.0
1164,A4,215.0,0.75,60,74.0
1165,C4,215.0,229/500,57,74.0
1166,F#4,215.5,0.5,60,74.0
1167,B4,215.75,0.125,58,74.0
1168,A4,215.875,0.125,58,74.0
1169,G4,216.0,229/500,58,74.0
1170,B3,216.0,229/500,54,74.0
1171,D3,216.0,0.25,56,74.0
1172,E3,216.25,0.25,57,74.0
1173,C5,216.5,0.5,60,74.0
1174,E4,216.5,0.75,60,74.0
1175,D3,216.5,0.25,57,74.0
1176,C3,216.75,0.25,56,74.0
1177,F#4,217.0,123/500,55,74.0
1178,B2,217.0,0.25,56,74.0
1179,F#4,217.25,0.25,63,74.0
1180,A2,217.25,0.25,55,74.0
1181,B4,217.5,0.75,60,74.0
1182,E4,217.5,0.25,63,74.0
1183,G2,217.5,0.25,55,74.0
1184,D4,217.75,0.25,62,74.0
1185,F#2,217.75,0.25,54,74.0
1186,C4,218.0,2.0,60,74.0
1187,E2,218.0,229/500,54,74.0
1188,C5,218.25,0.25,57,74.0
1189,B4,218.5,0.25,57,74.0
1190,E3,218.5,0.5,52,74.0
1191,A4,218.75,0.25,56,74.0
1192,G4,219.0,0.25,56,74.0
1193,F#3,219.0,0.5,54,74.0
1194,F#4,219.25,0.25,55,74.0
1195,G4,219.5,0.5,51,74.0
1196,E4,219.5,0.25,54,74.0
1197,G3,219.5,0.5,56,74.0
1198,D4,219.75,0.25,54,74.0
1199,A4,220.0,0.5,53,74.0
1200,E4,220.0,1.0,57,74.0
1201,C4,220.0,0.25,60,74.0
1202,G3,220.0,0.5,56,74.0
1203,D4,220.25,0.25,60,74.0
1204,B4,220.5,0.5,55,74.0
1205,C4,220.5,0.25,59,74.0
1206,A3,220.5,0.25,60,74.0
1207,B3,220.75,0.25,58,74.0
1208,G3,220.75,0.25,58,74.0
1209,C5,221.0,0.75,60,74.0
1210,D4,221.0,1.25,58,74.0
1211,A3,221.0,0.25,57,74.0
1212,F#3,221.0,229/500,60,74.0
1213,G3,221.25,0.25,56,74.0
1214,A3,221.5,0.188,58,74.0
1215,D3,221.5,0.5,57,74.0
1216,D5,221.75,0.125,58,74.0
1217,F#3,221.75,0.25,54,74.0
1218,C5,221.875,0.125,58,74.0
1219,B4,222.0,229/500,58,74.0
1220,G3,222.0,229/500,54,74.0
1221,G3,222.0,2.0,59,74.0
1222,A4,222.25,0.25,57,74.0
1223,E5,222.5,0.5,60,74.0
1224,G4,222.5,0.25,57,74.0
1225,B3,222.5,0.5,57,74.0
1226,F4,222.75,0.25,56,74.0
1227,A4,223.0,229/500,57,74.0
1228,E4,223.0,0.25,56,74.0
1229,C4,223.0,0.5,60,74.0
1230,G4,223.25,0.25,60,74.0
1231,D5,223.5,0.5,60,74.0
1232,F4,223.5,0.25,56,74.0
1233,D4,223.5,0.5,63,74.0
1234,A4,223.75,0.25,56,74.0
1235,D5,224.0,0.25,60,74.0
1236,G4,224.0,1.25,58,74.0
1237,E4,224.0,0.75,66,74.0
1238,G3,224.0,2.0,59,74.0
1239,E5,224.25,0.25,60,74.0
1240,D5,224.5,0.25,57,74.0
1241,C5,224.75,0.25,56,74.0
1242,F4,224.75,0.125,60,74.0
1243,E4,224.875,0.125,60,74.0
1244,B4,225.0,0.25,55,74.0
1245,D4,225.0,229/500,60,74.0
1246,C5,225.25,0.25,55,74.0
1247,A4,225.25,0.25,56,74.0
1248,D5,225.5,0.25,57,74.0
1249,B-4,225.5,0.5,56,74.0
1250,G4,225.5,0.5,65,74.0
1251,E5,225.75,0.25,59,74.0
1252,F5,226.0,0.25,61,74.0
1253,C5,226.0,1.0,54,74.0
1254,C4,226.0,229/500,58,74.0
1255,A3,226.0,1.0,52,74.0
1256,G5,226.25,0.25,61,74.0
1257,A5,226.5,0.25,61,74.0
1258,F4,226.5,0.75,66,74.0
1259,G5,226.75,0.25,60,74.0
1260,F5,227.0,0.25,60,74.0
1261,D5,227.0,229/500,60,74.0
1262,B3,227.0,0.5,57,74.0
1263,E5,227.25,0.25,59,74.0
1264,G4,227.25,0.25,62,74.0
1265,D5,227.5,0.25,59,74.0
1266,G4,227.5,0.5,57,74.0
1267,F4,227.5,0.25,60,74.0
1268,C4,227.5,0.5,57,74.0
1269,C5,227.75,0.25,58,74.0
1270,E4,227.75,0.25,58,74.0
1271,B4,228.0,1.0,58,74.0
1272,G4,228.0,1.5,60,74.0
1273,D4,228.0,1.0,57,74.0
1274,F3,228.0,0.188,58,74.0
1275,A3,228.25,0.25,60,74.0
1276,G3,228.5,0.25,59,74.0
1277,F3,228.75,0.25,58,74.0
1278,C5,229.0,0.5,57,74.0
1279,E4,229.0,0.5,60,74.0
1280,E3,229.0,0.25,57,74.0
1281,D3,229.25,0.25,56,74.0
1282,D5,229.5,0.5,57,74.0
1283,F4,229.5,1.0,57,74.0
1284,D4,229.5,1.0,60,74.0
1285,C3,229.5,0.25,56,74.0
1286,B2,229.75,0.25,55,74.0
1287,G4,230.0,229/500,58,74.0
1288,C3,230.0,0.25,51,74.0
1289,D3,230.25,0.25,53,74.0
1290,C5,230.5,1.0,60,74.0
1291,E4,230.5,0.5,57,74.0
1292,G3,230.5,0.5,58,74.0
1293,E3,230.5,0.25,56,74.0
1294,F3,230.75,0.25,58,74.0
1295,D4,231.0,1.0,57,74.0
1296,G3,231.0,1.0,61,74.0
1297,B4,231.5,0.5,57,74.0
1298,G2,231.5,0.5,57,74.0
1299,C5,232.0,1.0,60,74.0
1300,E4,232.0,229/500,56,74.0
1301,G3,232.0,229/500,61,74.0
1302,C3,232.0,4.0,60,74.0
1303,A4,232.5,1.0,68,74.0
1304,C3,232.5,0.5,51,74.0
1305,B4,233.0,0.5,67,74.0
1306,D3,233.0,0.5,53,74.0
1307,B-4,233.5,0.5,67,74.0
1308,G4,233.5,1.0,56,74.0
1309,E3,233.5,0.5,55,74.0
1310,A4,234.0,0.5,66,74.0
1311,F3,234.0,0.75,60,74.0
1312,D5,234.5,1.0,72,74.0
1313,F4,234.5,0.5,56,74.0
1314,G3,234.75,0.125,56,74.0
1315,F3,234.875,0.125,56,74.0
1316,G4,235.0,0.5,57,74.0
1317,E3,235.0,229/500,57,74.0
1318,C5,235.5,0.5,67,74.0
1319,A4,235.5,0.5,57,74.0
1320,A3,235.5,0.5,60,74.0
1321,D5,236.0,0.5,67,74.0
1322,B-4,236.0,0.75,60,74.0
1323,D3,236.0,229/500,55,74.0
1324,C3,236.0,4.0,60,74.0
1325,E5,236.5,0.5,70,74.0
1326,G3,236.5,0.75,60,74.0
1327,C5,236.75,0.125,57,74.0
1328,B-4,236.875,0.125,57,74.0
1329,F5,237.0,1.25,74,74.0
1330,A4,237.0,229/500,57,74.0
1331,A3,237.25,0.25,58,74.0
1332,D5,237.5,0.5,60,74.0
1333,G3,237.5,0.25,58,74.0
1334,F3,237.75,0.25,57,74.0
1335,G4,238.0,229/500,55,74.0
1336,E3,238.0,0.188,57,74.0
1337,A5,238.25,0.25,69,74.0
1338,D3,238.25,0.25,56,74.0
1339,G5,238.5,0.25,69,74.0
1340,C5,238.5,0.75,60,74.0
1341,E3,238.5,0.25,56,74.0
1342,F5,238.75,0.25,68,74.0
1343,F3,238.75,0.25,56,74.0
1344,E5,239.0,0.25,67,74.0
1345,G3,239.0,0.25,57,74.0
1346,F5,239.25,0.25,69,74.0
1347,D5,239.25,0.25,62,74.0
1348,A3,239.25,0.25,59,74.0
1349,E5,239.5,0.25,68,74.0
1350,C5,239.5,0.25,62,74.0
1351,B-3,239.5,0.188,63,74.0
1352,D5,239.75,0.25,67,74.0
1353,B-4,239.75,0.25,62,74.0
1354,G3,239.75,0.25,60,74.0
1355,C5,240.0,2.0,70,74.0
1356,A4,240.0,0.25,61,74.0
1357,A3,240.0,0.188,60,74.0
1358,C3,240.0,4.0,60,74.0
1359,B-4,240.25,0.25,61,74.0
1360,E3,240.25,0.25,63,74.0
1361,A4,240.5,0.25,61,74.0
1362,F3,240.5,0.25,55,74.0
1363,G4,240.75,0.25,60,74.0
1364,G3,240.75,0.25,57,74.0
1365,F4,241.0,0.25,60,74.0
1366,A3,241.0,0.25,59,74.0
1367,G4,241.25,0.25,60,74.0
1368,B3,241.25,0.25,60,74.0
1369,F4,241.5,0.25,59,74.0
1370,C4,241.5,0.188,62,74.0
1371,E4,241.75,0.25,59,74.0
1372,A3,241.75,0.25,58,74.0
1373,D4,242.0,1.75,59,74.0
1374,B3,242.0,2.0,62,74.0
1375,G4,242.25,0.125,56,74.0
1376,A4,242.375,0.125,57,74.0
1377,B4,242.5,0.25,57,74.0
1378,C5,242.75,0.25,59,74.0
1379,D5,243.0,0.25,60,74.0
1380,E5,243.25,0.25,62,74.0
1381,F5,243.5,0.5,63,74.0
1382,G4,243.75,0.25,57,74.0
1383,F5,244.0,0.125,63,74.0
1384,A4,244.0,1.0,60,74.0
1385,C4,244.0,4.0,60,74.0
1386,C3,244.0,4.0,60,74.0
1387,C5,244.125,0.125,55,74.0
1388,D5,244.25,0.125,57,74.0
1389,E5,244.375,0.125,58,74.0
1390,F5,244.5,0.25,59,74.0
1391,G5,244.75,0.25,62,74.0
1392,A5,245.0,0.75,65,74.0
1393,F5,245.25,0.25,57,74.0
1394,D5,245.5,0.5,57,74.0
1395,B5,245.75,0.25,64,74.0
1396,E5,246.0,2.0,48,74.0
1397,G5,246.0,2.0,54,74.0
1398,C6,246.0,2.0,54,74.0
