,note_name,start_time,duration,velocity,tempo
0,D3,0.0,0.375,47,139.0
1,D5,0.25,73/250,57,139.0
2,E5,0.5,73/250,57,139.0
3,F#5,0.75,73/250,57,139.0
4,A4,1.0,0.25,60,139.0
5,D4,1.0,0.375,40,139.0
6,F#5,1.25,73/250,57,139.0
7,E5,1.5,73/250,57,139.0
8,D5,1.75,73/250,57,139.0
9,A5,2.0,0.25,62,139.0
10,F#3,2.0,0.375,45,139.0
11,D5,2.25,73/250,58,139.0
12,E5,2.5,73/250,58,139.0
13,F#5,2.75,73/250,58,139.0
14,A4,3.0,0.25,61,139.0
15,D4,3.0,0.375,40,139.0
16,F#5,3.25,73/250,57,139.0
17,E5,3.5,73/250,57,139.0
18,D5,3.75,0.25,57,139.0
19,G5,4.0,0.25,60,139.0
20,D5,4.0,21/500,57,139.0
21,E3,4.0,0.375,46,139.0
22,E5,4.25,73/250,58,139.0
23,F#5,4.5,73/250,58,139.0
24,G5,4.75,73/250,58,139.0
25,B4,5.0,0.25,60,139.0
26,D4,5.0,0.375,42,139.0
27,D5,5.25,73/250,58,139.0
28,C#5,5.5,73/250,58,139.0
29,B4,5.75,73/250,58,139.0
30,C#5,6.0,0.25,61,139.0
31,A3,6.0,0.375,45,139.0
32,E5,6.25,73/250,58,139.0
33,F#5,6.5,73/250,58,139.0
34,G5,6.75,73/250,58,139.0
35,A4,7.0,0.25,60,139.0
36,C#4,7.0,0.375,41,139.0
37,G5,7.25,73/250,58,139.0
38,F#5,7.5,73/250,58,139.0
39,E5,7.75,0.25,58,139.0
40,F#5,8.0,0.25,62,139.0
41,E5,8.0,21/500,58,139.0
42,D3,8.0,0.375,45,139.0
43,D5,8.25,73/250,57,139.0
44,E5,8.5,73/250,56,139.0
45,F#5,8.75,73/250,56,139.0
46,A4,9.0,0.25,61,139.0
47,D4,9.0,0.375,40,139.0
48,C#5,9.25,73/250,56,139.0
49,B4,9.5,73/250,56,139.0
50,A4,9.75,73/250,56,139.0
51,B4,10.0,0.25,62,139.0
52,D3,10.0,0.375,44,139.0
53,D5,10.25,73/250,56,139.0
54,E5,10.5,73/250,56,139.0
55,F#5,10.75,73/250,56,139.0
56,B4,11.0,0.25,61,139.0
57,D4,11.0,0.375,42,139.0
58,A5,11.25,73/250,56,139.0
59,G#5,11.5,73/250,56,139.0
60,F#5,11.75,0.25,56,139.0
61,G#5,12.0,0.25,61,139.0
62,F#5,12.0,21/500,56,139.0
63,D3,12.0,0.375,45,139.0
64,E5,12.25,73/250,56,139.0
65,F#5,12.5,73/250,56,139.0
66,G#5,12.75,73/250,56,139.0
67,B4,13.0,0.25,60,139.0
68,G#3,13.0,0.375,42,139.0
69,D5,13.25,73/250,56,139.0
70,C#5,13.5,73/250,56,139.0
71,B4,13.75,73/250,56,139.0
72,A4,14.0,0.25,60,139.0
73,C#3,14.0,0.375,45,139.0
74,C#5,14.25,73/250,56,139.0
75,D5,14.5,73/250,56,139.0
76,E5,14.75,73/250,56,139.0
77,F#4,15.0,0.25,60,139.0
78,A3,15.0,0.375,42,139.0
79,E5,15.25,73/250,56,139.0
80,D5,15.5,73/250,56,139.0
81,C#5,15.75,0.25,56,139.0
82,D5,16.0,0.25,60,139.0
83,C#5,16.0,21/500,56,139.0
84,B2,16.0,0.375,46,139.0
85,B4,16.25,73/250,56,139.0
86,C#5,16.5,73/250,56,139.0
87,D5,16.75,73/250,56,139.0
88,F#4,17.0,0.25,60,139.0
89,A3,17.0,0.375,39,139.0
90,A4,17.25,73/250,55,139.0
91,G#4,17.5,73/250,55,139.0
92,F#4,17.75,73/250,54,139.0
93,G#4,18.0,0.25,59,139.0
94,E3,18.0,0.375,44,139.0
95,B4,18.25,73/250,54,139.0
96,C#5,18.5,73/250,54,139.0
97,D5,18.75,73/250,54,139.0
98,E4,19.0,0.25,59,139.0
99,G#3,19.0,0.375,38,139.0
100,D5,19.25,73/250,53,139.0
101,C#5,19.5,73/250,53,139.0
102,B4,19.75,0.25,53,139.0
103,C#5,20.0,0.25,57,139.0
104,B4,20.0,21/500,53,139.0
105,A2,20.0,0.375,42,139.0
106,A4,20.25,73/250,54,139.0
107,B4,20.5,73/250,54,139.0
108,C#5,20.75,73/250,54,139.0
109,E4,21.0,0.25,56,139.0
110,A3,21.0,0.375,39,139.0
111,G4,21.25,73/250,53,139.0
112,F#4,21.5,73/250,53,139.0
113,E4,21.75,73/250,53,139.0
114,F#4,22.0,0.25,55,139.0
115,A2,22.0,0.375,41,139.0
116,A4,22.25,73/250,53,139.0
117,B4,22.5,73/250,52,139.0
118,C#5,22.75,73/250,52,139.0
119,F#4,23.0,0.25,55,139.0
120,A3,23.0,0.375,36,139.0
121,E5,23.25,73/250,51,139.0
122,E-5,23.5,73/250,51,139.0
123,C#5,23.75,0.25,51,139.0
124,E-5,24.0,0.25,54,139.0
125,C#5,24.0,21/500,51,139.0
126,A2,24.0,0.375,39,139.0
127,B4,24.25,73/250,51,139.0
128,C#5,24.5,73/250,51,139.0
129,E-5,24.75,73/250,51,139.0
130,F#4,25.0,0.25,54,139.0
131,E-3,25.0,0.375,36,139.0
132,A4,25.25,73/250,52,139.0
133,G4,25.5,73/250,52,139.0
134,F#4,25.75,73/250,52,139.0
135,E4,26.0,0.25,55,139.0
136,G2,26.0,0.375,41,139.0
137,G4,26.25,73/250,53,139.0
138,A4,26.5,73/250,53,139.0
139,B4,26.75,73/250,53,139.0
140,C#4,27.0,0.25,57,139.0
141,E3,27.0,0.375,38,139.0
142,D5,27.25,73/250,54,139.0
143,C#5,27.5,73/250,54,139.0
144,B4,27.75,0.25,54,139.0
145,B-4,28.0,0.25,57,139.0
146,B4,28.0,21/500,54,139.0
147,F#2,28.0,0.375,44,139.0
148,E4,28.25,73/250,55,139.0
149,F#4,28.5,73/250,55,139.0
150,G4,28.75,73/250,55,139.0
151,C#4,29.0,0.25,59,139.0
152,F#3,29.0,0.375,39,139.0
153,G4,29.25,73/250,55,139.0
154,F#4,29.5,73/250,56,139.0
155,E4,29.75,73/250,56,139.0
156,D4,30.0,0.25,61,139.0
157,F#2,30.0,0.375,46,139.0
158,B4,30.25,73/250,57,139.0
159,C#5,30.5,73/250,57,139.0
160,D5,30.75,73/250,57,139.0
161,F#4,31.0,0.25,62,139.0
162,F#3,31.0,0.375,41,139.0
163,A4,31.25,73/250,58,139.0
164,G#4,31.5,73/250,58,139.0
165,F#4,31.75,0.25,58,139.0
166,F4,32.0,0.25,63,139.0
167,F#4,32.0,21/500,58,139.0
168,F#2,32.0,0.375,46,139.0
169,G#4,32.25,73/250,58,139.0
170,A4,32.5,73/250,59,139.0
171,B4,32.75,73/250,59,139.0
172,F4,33.0,0.25,63,139.0
173,F#3,33.0,0.375,42,139.0
174,D5,33.25,73/250,59,139.0
175,C#5,33.5,73/250,59,139.0
176,B4,33.75,73/250,60,139.0
177,G#5,34.0,0.25,63,139.0
178,F#2,34.0,0.375,47,139.0
179,F5,34.25,73/250,60,139.0
180,F#5,34.5,73/250,60,139.0
181,G#5,34.75,73/250,60,139.0
182,C#5,35.0,0.25,65,139.0
183,F#3,35.0,0.375,42,139.0
184,B5,35.25,73/250,61,139.0
185,A5,35.5,73/250,62,139.0
186,G#5,35.75,0.25,62,139.0
187,A5,36.0,0.25,67,139.0
188,G#5,36.0,21/500,62,139.0
189,F#2,36.0,0.375,49,139.0
190,F#5,36.25,73/250,62,139.0
191,G#5,36.5,73/250,62,139.0
192,A5,36.75,73/250,62,139.0
193,C#5,37.0,0.25,67,139.0
194,F#3,37.0,0.375,44,139.0
195,E5,37.25,73/250,62,139.0
196,E-5,37.5,73/250,62,139.0
197,C#5,37.75,73/250,62,139.0
198,E-5,38.0,0.25,67,139.0
199,B2,38.0,0.375,49,139.0
200,F#5,38.25,73/250,62,139.0
201,G5,38.5,73/250,62,139.0
202,A5,38.75,73/250,62,139.0
203,B4,39.0,0.25,67,139.0
204,E-3,39.0,0.375,45,139.0
205,A5,39.25,73/250,62,139.0
206,G5,39.5,73/250,62,139.0
207,F#5,39.75,0.25,62,139.0
208,G5,40.0,0.25,67,139.0
209,F#5,40.0,21/500,62,139.0
210,E2,40.0,0.375,48,139.0
211,E5,40.25,73/250,62,139.0
212,F#5,40.5,73/250,62,139.0
213,G5,40.75,73/250,62,139.0
214,B4,41.0,0.25,66,139.0
215,E3,41.0,0.375,45,139.0
216,D5,41.25,73/250,62,139.0
217,C5,41.5,73/250,62,139.0
218,B4,41.75,73/250,62,139.0
219,C5,42.0,0.25,66,139.0
220,E2,42.0,0.375,48,139.0
221,E-5,42.25,73/250,62,139.0
222,E5,42.5,73/250,62,139.0
223,F#5,42.75,73/250,62,139.0
224,A4,43.0,0.25,66,139.0
225,E-3,43.0,0.375,48,139.0
226,C5,43.25,73/250,62,139.0
227,B4,43.5,73/250,62,139.0
228,A4,43.75,0.25,62,139.0
229,G4,44.0,0.25,66,139.0
230,A4,44.0,21/500,62,139.0
231,E2,44.0,0.375,48,139.0
232,E5,44.25,73/250,62,139.0
233,F#5,44.5,73/250,62,139.0
234,G5,44.75,73/250,61,139.0
235,B4,45.0,0.25,66,139.0
236,E3,45.0,0.375,45,139.0
237,D5,45.25,73/250,62,139.0
238,C#5,45.5,73/250,62,139.0
239,B4,45.75,73/250,62,139.0
240,C#5,46.0,0.25,66,139.0
241,A2,46.0,0.375,48,139.0
242,E5,46.25,73/250,62,139.0
243,F#5,46.5,73/250,62,139.0
244,G5,46.75,73/250,62,139.0
245,A4,47.0,0.25,64,139.0
246,C#3,47.0,0.375,45,139.0
247,G5,47.25,73/250,62,139.0
248,F#5,47.5,73/250,62,139.0
249,E5,47.75,0.25,62,139.0
250,F#5,48.0,0.25,67,139.0
251,E5,48.0,21/500,62,139.0
252,D2,48.0,0.375,48,139.0
253,D5,48.25,73/250,62,139.0
254,E5,48.5,73/250,62,139.0
255,F#5,48.75,73/250,62,139.0
256,A4,49.0,0.25,65,139.0
257,D3,49.0,0.375,44,139.0
258,C5,49.25,73/250,61,139.0
259,B4,49.5,73/250,60,139.0
260,A4,49.75,73/250,60,139.0
261,B4,50.0,0.25,65,139.0
262,D2,50.0,0.375,47,139.0
263,G4,50.25,73/250,59,139.0
264,A4,50.5,73/250,59,139.0
265,B4,50.75,73/250,59,139.0
266,C#4,51.0,0.25,64,139.0
267,D3,51.0,0.375,40,139.0
268,B4,51.25,73/250,58,139.0
269,A4,51.5,73/250,58,139.0
270,G4,51.75,0.25,58,139.0
271,F#4,52.0,0.25,63,139.0
272,G4,52.0,21/500,58,139.0
273,D2,52.0,0.375,45,139.0
274,D4,52.25,73/250,57,139.0
275,E4,52.5,73/250,57,139.0
276,F#4,52.75,73/250,57,139.0
277,A3,53.0,0.25,62,139.0
278,D3,53.0,0.375,41,139.0
279,C4,53.25,73/250,57,139.0
280,B3,53.5,73/250,56,139.0
281,A3,53.75,73/250,56,139.0
282,B3,54.0,0.25,61,139.0
283,D2,54.0,0.375,44,139.0
284,D4,54.25,73/250,56,139.0
285,E4,54.5,73/250,56,139.0
286,F#4,54.75,73/250,55,139.0
287,B3,55.0,0.25,60,139.0
288,D3,55.0,0.375,38,139.0
289,A4,55.25,73/250,54,139.0
290,G#4,55.5,73/250,54,139.0
291,F#4,55.75,0.25,54,139.0
292,G#4,56.0,0.25,58,139.0
293,F#4,56.0,21/500,54,139.0
294,D2,56.0,0.375,42,139.0
295,E4,56.25,73/250,54,139.0
296,F#4,56.5,73/250,53,139.0
297,G#4,56.75,73/250,53,139.0
298,B3,57.0,0.25,57,139.0
299,G#3,57.0,0.375,38,139.0
300,D4,57.25,73/250,53,139.0
301,C4,57.5,73/250,53,139.0
302,B3,57.75,73/250,52,139.0
303,A3,58.0,0.25,56,139.0
304,C3,58.0,0.375,41,139.0
305,C4,58.25,73/250,52,139.0
306,D4,58.5,73/250,52,139.0
307,E4,58.75,73/250,52,139.0
308,A3,59.0,0.25,55,139.0
309,F#3,59.0,0.375,37,139.0
310,G4,59.25,73/250,51,139.0
311,F#4,59.5,73/250,50,139.0
312,E4,59.75,0.25,50,139.0
313,E-4,60.0,0.25,54,139.0
314,E4,60.0,21/500,50,139.0
315,B2,60.0,0.375,40,139.0
316,A3,60.25,73/250,50,139.0
317,B3,60.5,73/250,50,139.0
318,C4,60.75,73/250,50,139.0
319,A3,61.0,0.25,54,139.0
320,E-3,61.0,0.375,37,139.0
321,C4,61.25,73/250,50,139.0
322,B3,61.5,73/250,50,139.0
323,A3,61.75,73/250,50,139.0
324,G3,62.0,0.25,54,139.0
325,E3,62.0,0.375,41,139.0
326,E4,62.25,73/250,50,139.0
327,F#4,62.5,73/250,50,139.0
328,G4,62.75,73/250,50,139.0
329,B3,63.0,0.25,54,139.0
330,G3,63.0,0.375,36,139.0
331,D4,63.25,73/250,50,139.0
332,C#4,63.5,73/250,50,139.0
333,B3,63.75,0.25,50,139.0
334,B-3,64.0,0.25,54,139.0
335,B3,64.0,21/500,50,139.0
336,B2,64.0,0.375,41,139.0
337,C#4,64.25,73/250,50,139.0
338,D4,64.5,73/250,50,139.0
339,E4,64.75,73/250,50,139.0
340,B-3,65.0,0.25,54,139.0
341,E3,65.0,0.375,37,139.0
342,G4,65.25,73/250,50,139.0
343,F#4,65.5,73/250,50,139.0
344,E4,65.75,73/250,51,139.0
345,C#5,66.0,0.25,55,139.0
346,G3,66.0,0.375,42,139.0
347,B-4,66.25,73/250,51,139.0
348,B4,66.5,73/250,52,139.0
349,C#5,66.75,73/250,52,139.0
350,F#4,67.0,0.25,55,139.0
351,B-3,67.0,0.375,37,139.0
352,E5,67.25,73/250,52,139.0
353,D5,67.5,73/250,52,139.0
354,C#5,67.75,0.25,52,139.0
355,D5,68.0,0.25,57,139.0
356,C#5,68.0,21/500,52,139.0
357,B2,68.0,0.375,43,139.0
358,B4,68.25,73/250,53,139.0
359,C#5,68.5,73/250,53,139.0
360,D5,68.75,73/250,53,139.0
361,F#4,69.0,0.25,58,139.0
362,B3,69.0,0.375,38,139.0
363,A4,69.25,73/250,53,139.0
364,G#4,69.5,73/250,53,139.0
365,F#4,69.75,73/250,54,139.0
366,G#4,70.0,0.25,59,139.0
367,E3,70.0,0.375,44,139.0
368,B4,70.25,73/250,54,139.0
369,C5,70.5,73/250,54,139.0
370,D5,70.75,73/250,54,139.0
371,E4,71.0,0.25,59,139.0
372,G#3,71.0,0.375,39,139.0
373,D5,71.25,73/250,55,139.0
374,C5,71.5,73/250,55,139.0
375,B4,71.75,0.25,55,139.0
376,C5,72.0,0.25,61,139.0
377,B4,72.0,21/500,55,139.0
378,A2,72.0,0.375,46,139.0
379,A4,72.25,73/250,55,139.0
380,B4,72.5,73/250,54,139.0
381,C5,72.75,73/250,53,139.0
382,E4,73.0,0.25,59,139.0
383,A3,73.0,0.375,40,139.0
384,G4,73.25,73/250,52,139.0
385,F#4,73.5,73/250,52,139.0
386,E4,73.75,73/250,51,139.0
387,F#4,74.0,0.25,56,139.0
388,D3,74.0,0.375,43,139.0
389,A4,74.25,73/250,50,139.0
390,B4,74.5,73/250,50,139.0
391,C5,74.75,73/250,49,139.0
392,D4,75.0,0.25,54,139.0
393,F#3,75.0,0.375,36,139.0
394,C5,75.25,73/250,48,139.0
395,B4,75.5,73/250,47,139.0
396,A4,75.75,0.25,47,139.0
397,B4,76.0,0.25,51,139.0
398,A4,76.0,21/500,47,139.0
399,G2,76.0,0.375,39,139.0
400,G4,76.25,73/250,46,139.0
401,A4,76.5,73/250,46,139.0
402,B4,76.75,73/250,46,139.0
403,D4,77.0,0.25,51,139.0
404,G3,77.0,0.375,34,139.0
405,B4,77.25,73/250,46,139.0
406,A4,77.5,73/250,46,139.0
407,G4,77.75,73/250,46,139.0
408,D5,78.0,0.25,51,139.0
409,B2,78.0,0.375,39,139.0
410,G4,78.25,73/250,46,139.0
411,A4,78.5,73/250,46,139.0
412,B4,78.75,73/250,46,139.0
413,D4,79.0,0.25,51,139.0
414,G3,79.0,0.375,35,139.0
415,B4,79.25,73/250,46,139.0
416,A4,79.5,73/250,46,139.0
417,G4,79.75,0.25,46,139.0
418,C5,80.0,0.25,51,139.0
419,G4,80.0,21/500,46,139.0
420,A2,80.0,0.375,39,139.0
421,A4,80.25,73/250,48,139.0
422,B4,80.5,73/250,48,139.0
423,C5,80.75,73/250,48,139.0
424,E4,81.0,0.25,51,139.0
425,G3,81.0,0.375,34,139.0
426,G4,81.25,73/250,48,139.0
427,F#4,81.5,73/250,48,139.0
428,E4,81.75,73/250,48,139.0
429,F#4,82.0,0.25,51,139.0
430,D3,82.0,0.375,39,139.0
431,A4,82.25,73/250,48,139.0
432,B4,82.5,73/250,48,139.0
433,C5,82.75,73/250,48,139.0
434,D4,83.0,0.25,51,139.0
435,F#3,83.0,0.375,34,139.0
436,C5,83.25,73/250,48,139.0
437,B4,83.5,73/250,48,139.0
438,A4,83.75,0.25,48,139.0
439,B4,84.0,0.25,51,139.0
440,A4,84.0,21/500,48,139.0
441,G2,84.0,0.375,39,139.0
442,G4,84.25,73/250,48,139.0
443,A4,84.5,73/250,48,139.0
444,B4,84.75,73/250,48,139.0
445,D4,85.0,0.25,51,139.0
446,G3,85.0,0.375,34,139.0
447,F#4,85.25,73/250,48,139.0
448,E4,85.5,73/250,48,139.0
449,D4,85.75,73/250,48,139.0
450,E4,86.0,0.25,51,139.0
451,G2,86.0,0.375,39,139.0
452,G4,86.25,73/250,48,139.0
453,A4,86.5,73/250,48,139.0
454,B4,86.75,73/250,48,139.0
455,E4,87.0,0.25,51,139.0
456,G3,87.0,0.375,34,139.0
457,D5,87.25,73/250,48,139.0
458,C#5,87.5,73/250,48,139.0
459,B4,87.75,0.25,48,139.0
460,C#5,88.0,0.25,51,139.0
461,B4,88.0,21/500,48,139.0
462,G2,88.0,0.375,39,139.0
463,A4,88.25,73/250,48,139.0
464,B4,88.5,73/250,48,139.0
465,C#5,88.75,73/250,48,139.0
466,E4,89.0,0.25,51,139.0
467,C#3,89.0,0.375,34,139.0
468,G4,89.25,73/250,49,139.0
469,F#4,89.5,73/250,49,139.0
470,E4,89.75,73/250,49,139.0
471,D4,90.0,0.25,52,139.0
472,F#2,90.0,0.375,39,139.0
473,F#4,90.25,73/250,49,139.0
474,G4,90.5,73/250,49,139.0
475,A4,90.75,73/250,49,139.0
476,B3,91.0,0.25,53,139.0
477,D3,91.0,0.375,34,139.0
478,A4,91.25,73/250,49,139.0
479,G4,91.5,73/250,49,139.0
480,F#4,91.75,0.25,49,139.0
481,G4,92.0,0.25,53,139.0
482,F#4,92.0,21/500,49,139.0
483,E2,92.0,0.375,40,139.0
484,E4,92.25,73/250,49,139.0
485,F#4,92.5,73/250,49,139.0
486,G4,92.75,73/250,49,139.0
487,B3,93.0,0.25,54,139.0
488,D3,93.0,0.375,35,139.0
489,D4,93.25,73/250,49,139.0
490,C#4,93.5,73/250,50,139.0
491,B3,93.75,73/250,50,139.0
492,C#4,94.0,0.25,54,139.0
493,A2,94.0,0.375,42,139.0
494,E4,94.25,73/250,50,139.0
495,F#4,94.5,73/250,50,139.0
496,G4,94.75,73/250,50,139.0
497,A3,95.0,0.25,55,139.0
498,C#3,95.0,0.375,36,139.0
499,G4,95.25,73/250,50,139.0
500,F#4,95.5,73/250,51,139.0
501,E4,95.75,0.25,51,139.0
502,F#4,96.0,0.25,55,139.0
503,E4,96.0,21/500,51,139.0
504,D2,96.0,0.375,43,139.0
505,D4,96.25,73/250,51,139.0
506,E4,96.5,73/250,51,139.0
507,F#4,96.75,73/250,52,139.0
508,A3,97.0,0.25,56,139.0
509,D3,97.0,0.375,38,139.0
510,F#4,97.25,73/250,52,139.0
511,E4,97.5,73/250,52,139.0
512,D4,97.75,73/250,52,139.0
513,A4,98.0,0.25,57,139.0
514,F#2,98.0,0.375,44,139.0
515,F#4,98.25,73/250,52,139.0
516,G4,98.5,73/250,52,139.0
517,A4,98.75,73/250,53,139.0
518,D4,99.0,0.25,57,139.0
519,A3,99.0,0.375,39,139.0
520,C5,99.25,73/250,53,139.0
521,B4,99.5,73/250,53,139.0
522,A4,99.75,0.25,53,139.0
523,B4,100.0,0.25,58,139.0
524,A4,100.0,21/500,53,139.0
525,G2,100.0,0.375,45,139.0
526,G4,100.25,73/250,53,139.0
527,A4,100.5,73/250,53,139.0
528,B4,100.75,73/250,53,139.0
529,D4,101.0,0.25,58,139.0
530,G3,101.0,0.375,40,139.0
531,B4,101.25,73/250,54,139.0
532,A4,101.5,73/250,54,139.0
533,G4,101.75,73/250,54,139.0
534,D5,102.0,0.25,59,139.0
535,B2,102.0,0.375,46,139.0
536,B4,102.25,73/250,54,139.0
537,C#5,102.5,73/250,54,139.0
538,D5,102.75,73/250,54,139.0
539,G#4,103.0,0.25,60,139.0
540,D4,103.0,0.375,41,139.0
541,F5,103.25,73/250,55,139.0
542,E5,103.5,73/250,55,139.0
543,D5,103.75,0.25,55,139.0
544,C#5,104.0,0.25,60,139.0
545,D5,104.0,21/500,55,139.0
546,A2,104.0,4.0,47,139.0
547,A4,104.25,73/250,56,139.0
548,B4,104.5,73/250,56,139.0
549,C#5,104.75,73/250,56,139.0
550,E4,105.0,0.25,60,139.0
551,G3,105.0,0.375,41,139.0
552,G4,105.25,73/250,56,139.0
553,F#4,105.5,73/250,56,139.0
554,E4,105.75,73/250,56,139.0
555,A4,106.0,0.25,60,139.0
556,F#3,106.0,0.375,47,139.0
557,D5,106.25,73/250,56,139.0
558,E5,106.5,73/250,56,139.0
559,F#5,106.75,73/250,56,139.0
560,B4,107.0,0.25,61,139.0
561,D3,107.0,0.375,41,139.0
562,A5,107.25,73/250,56,139.0
563,G5,107.5,73/250,56,139.0
564,F#5,107.75,0.25,56,139.0
565,G5,108.0,0.25,61,139.0
566,F#5,108.0,21/500,56,139.0
567,E3,108.0,0.375,47,139.0
568,A2,108.0,4.0,47,139.0
569,C#5,108.25,73/250,56,139.0
570,D5,108.5,73/250,56,139.0
571,E5,108.75,73/250,56,139.0
572,A4,109.0,0.25,61,139.0
573,C#3,109.0,0.375,41,139.0
574,G5,109.25,73/250,56,139.0
575,F#5,109.5,73/250,56,139.0
576,E5,109.75,73/250,56,139.0
577,F#5,110.0,0.25,61,139.0
578,D3,110.0,0.375,47,139.0
579,B4,110.25,73/250,56,139.0
580,C#5,110.5,73/250,56,139.0
581,D5,110.75,73/250,56,139.0
582,G#4,111.0,0.25,61,139.0
583,B2,111.0,0.375,41,139.0
584,F#5,111.25,73/250,56,139.0
585,E5,111.5,73/250,56,139.0
586,D5,111.75,0.25,56,139.0
587,C#5,112.0,0.25,60,139.0
588,D5,112.0,21/500,56,139.0
589,A2,112.0,4.0,47,139.0
590,G4,112.25,73/250,56,139.0
591,E3,112.25,73/250,51,139.0
592,A4,112.5,73/250,56,139.0
593,F#3,112.5,73/250,50,139.0
594,B-4,112.75,73/250,56,139.0
595,G3,112.75,73/250,50,139.0
596,E4,113.0,0.25,60,139.0
597,C#3,113.0,0.25,54,139.0
598,G4,113.25,73/250,56,139.0
599,E3,113.25,73/250,50,139.0
600,F4,113.5,73/250,56,139.0
601,D3,113.5,73/250,50,139.0
602,E4,113.75,73/250,56,139.0
603,C#3,113.75,73/250,50,139.0
604,F4,114.0,0.25,60,139.0
605,D3,114.0,0.25,54,139.0
606,D5,114.25,73/250,56,139.0
607,F3,114.25,73/250,51,139.0
608,E5,114.5,73/250,62,139.0
609,G3,114.5,73/250,53,139.0
610,F5,114.75,73/250,58,139.0
611,A3,114.75,73/250,53,139.0
612,C#5,115.0,0.25,60,139.0
613,E3,115.0,0.25,54,139.0
614,E5,115.25,73/250,56,139.0
615,G3,115.25,73/250,50,139.0
616,D5,115.5,73/250,56,139.0
617,F3,115.5,73/250,50,139.0
618,C#5,115.75,0.25,56,139.0
619,E3,115.75,0.25,50,139.0
620,D5,116.0,0.25,60,139.0
621,C#5,116.0,21/500,56,139.0
622,F3,116.0,0.25,55,139.0
623,E3,116.0,21/500,50,139.0
624,B-5,116.25,73/250,66,139.0
625,D3,116.25,73/250,50,139.0
626,A5,116.5,73/250,65,139.0
627,E3,116.5,73/250,50,139.0
628,G5,116.75,73/250,64,139.0
629,F3,116.75,73/250,50,139.0
630,F5,117.0,0.25,62,139.0
631,A2,117.0,0.25,51,139.0
632,E5,117.25,73/250,61,139.0
633,C3,117.25,73/250,52,139.0
634,D5,117.5,73/250,60,139.0
635,B-2,117.5,73/250,54,139.0
636,C#5,117.75,73/250,58,139.0
637,A2,117.75,73/250,56,139.0
638,D5,118.0,0.25,60,139.0
639,G#2,118.0,2.0,58,139.0
640,F5,118.25,73/250,62,139.0
641,E5,118.5,73/250,61,139.0
642,D5,118.75,73/250,60,139.0
643,B5,119.0,0.25,65,139.0
644,G#5,119.25,73/250,61,139.0
645,A5,119.5,73/250,63,139.0
646,B5,119.75,0.25,66,139.0
647,F5,120.0,0.25,68,139.0
648,B5,120.0,21/500,66,139.0
649,G#2,120.0,4.0,58,139.0
650,D5,120.25,73/250,61,139.0
651,E5,120.5,73/250,61,139.0
652,F5,120.75,73/250,61,139.0
653,B4,121.0,0.25,65,139.0
654,G#4,121.25,73/250,59,139.0
655,A4,121.5,73/250,59,139.0
656,B4,121.75,73/250,59,139.0
657,E4,122.0,0.25,61,139.0
658,F#4,122.25,73/250,55,139.0
659,G#4,122.5,73/250,57,139.0
660,A4,122.75,73/250,59,139.0
661,B4,123.0,73/250,60,139.0
662,C#5,123.25,73/250,62,139.0
663,D5,123.5,73/250,64,139.0
664,E5,123.75,0.25,65,139.0
665,F5,124.0,1.5,71,139.0
666,E5,124.0,21/500,65,139.0
667,A2,124.0,4.0,60,139.0
668,C#5,124.25,0.25,57,139.0
669,D5,124.5,0.25,57,139.0
670,A3,124.5,0.5,50,139.0
671,A4,124.75,0.25,57,139.0
672,B-4,125.0,0.25,57,139.0
673,G3,125.0,0.5,50,139.0
674,G4,125.25,0.25,57,139.0
675,E5,125.5,1.0,71,139.0
676,C#3,125.5,0.5,50,139.0
677,G4,125.75,0.25,57,139.0
678,A4,126.0,0.25,57,139.0
679,F3,126.0,0.5,55,139.0
680,F4,126.25,0.25,57,139.0
681,D5,126.5,1.0,71,139.0
682,D3,126.5,0.5,50,139.0
683,F4,126.75,0.25,56,139.0
684,G4,127.0,0.25,57,139.0
685,E3,127.0,0.5,53,139.0
686,E4,127.25,0.25,57,139.0
687,C#5,127.5,0.5,69,139.0
688,G3,127.5,0.5,50,139.0
689,E4,127.75,0.25,56,139.0
690,A2,128.0,1.0,44,139.0
691,D3,128.062,0.938,45,139.0
692,F3,128.125,0.875,48,139.0
693,G#3,128.188,0.812,49,139.0
694,B3,128.25,0.75,52,139.0
695,D4,128.312,0.688,52,139.0
696,F4,128.375,0.625,57,139.0
697,G#4,128.438,0.562,60,139.0
698,B4,128.5,0.5,64,139.0
699,D5,128.562,0.562,68,139.0
700,C#5,129.125,0.125,53,139.0
701,B4,129.25,0.125,53,139.0
702,A4,129.375,0.125,52,139.0
703,G#4,129.5,0.125,52,139.0
704,F#4,129.625,0.125,51,139.0
705,E4,129.75,0.125,51,139.0
706,F#4,129.875,0.125,50,139.0
707,G#4,130.0,0.125,47,139.0
708,A4,130.125,0.125,48,139.0
709,B4,130.25,0.125,49,139.0
710,C#5,130.375,0.125,50,139.0
711,D5,130.5,0.125,51,139.0
712,E5,130.625,0.125,51,139.0
713,F5,130.75,0.125,52,139.0
714,E5,130.875,0.125,53,139.0
715,D5,131.0,0.125,54,139.0
716,C#5,131.125,0.125,53,139.0
717,B4,131.25,0.125,52,139.0
718,A4,131.375,0.125,52,139.0
719,G#4,131.5,0.125,51,139.0
720,F#4,131.625,0.125,51,139.0
721,E4,131.75,0.125,50,139.0
722,D4,131.875,0.125,49,139.0
723,C#4,132.0,0.5,58,139.0
724,E4,132.062,0.438,58,139.0
725,G4,132.125,0.375,58,139.0
726,B-4,132.188,0.312,58,139.0
727,C#5,132.25,0.25,58,139.0
728,E5,132.312,0.188,58,139.0
729,G5,132.375,0.125,58,139.0
730,B-5,132.438,0.062,58,139.0
731,D4,133.0,0.5,62,139.0
732,F4,133.062,0.438,62,139.0
733,G#4,133.125,0.375,62,139.0
734,B4,133.188,0.312,62,139.0
735,D5,133.25,0.25,63,139.0
736,F5,133.312,0.188,63,139.0
737,G#5,133.375,0.125,63,139.0
738,B5,133.438,0.062,63,139.0
739,D5,134.0,1.0,69,139.0
740,E3,134.0,1.0,68,139.0
741,A4,134.0,2.0,58,139.0
742,E4,134.0,2.0,58,139.0
743,A2,134.0,2.0,62,139.0
744,A3,134.0,2.0,62,139.0
745,C#5,135.0,1.0,65,139.0
746,G3,135.0,1.0,63,139.0
747,D5,136.0,3.0,64,139.0
748,A4,136.0,3.0,64,139.0
749,F#4,136.0,3.0,64,139.0
750,D3,136.0,3.0,61,139.0
751,A3,136.0,3.0,61,139.0
752,F#3,136.0,3.0,61,139.0
753,D3,141.0,0.125,66,139.0
754,E3,141.125,0.125,66,139.0
755,F#3,141.25,0.125,66,139.0
756,G3,141.375,0.125,66,139.0
757,F#3,141.5,0.125,66,139.0
758,E3,141.625,0.125,66,139.0
759,F#3,141.75,0.125,66,139.0
760,D3,141.875,0.125,66,139.0
761,B3,142.0,0.75,71,139.0
762,B3,142.75,0.25,67,139.0
763,A3,143.0,0.75,72,139.0
764,G3,143.75,0.25,66,139.0
765,F#3,144.0,0.75,67,139.0
766,G3,144.75,0.25,61,139.0
767,A3,145.0,0.125,66,139.0
768,F#3,145.0,0.75,60,139.0
769,B3,145.125,0.125,66,139.0
770,C#4,145.25,0.125,66,139.0
771,D4,145.375,0.125,66,139.0
772,C#4,145.5,0.125,66,139.0
773,B3,145.625,0.125,66,139.0
774,C#4,145.75,0.125,66,139.0
775,E3,145.75,0.25,57,139.0
776,A3,145.875,0.125,66,139.0
777,F#4,146.0,0.75,71,139.0
778,D3,146.0,1.0,60,139.0
779,F#4,146.75,0.25,66,139.0
780,E4,147.0,0.75,71,139.0
781,E3,147.0,1.0,56,139.0
782,D4,147.75,0.25,66,139.0
783,C#4,148.0,1.0,73,139.0
784,A2,148.0,0.75,62,139.0
785,E3,148.75,83/1000,56,139.0
786,F#3,148.833,83/1000,56,139.0
787,G3,148.917,83/1000,56,139.0
788,F#4,149.0,0.75,72,139.0
789,A3,149.0,2.0,63,139.0
790,F#4,149.75,0.25,68,139.0
791,B3,150.0,0.75,73,139.0
792,B3,150.75,83/1000,67,139.0
793,C#4,150.833,83/1000,67,139.0
794,D4,150.917,83/1000,67,139.0
795,E4,151.0,0.25,71,139.0
796,G3,151.0,1.0,56,139.0
797,D4,151.25,0.25,67,139.0
798,E4,151.5,0.25,72,139.0
799,C#4,151.75,0.25,67,139.0
800,A3,152.0,1.0,73,139.0
801,G3,152.0,0.75,56,139.0
802,F#3,152.75,0.125,54,139.0
803,E3,152.875,0.125,54,139.0
804,D4,153.0,0.125,68,139.0
805,D4,153.0,2.0,67,139.0
806,F#3,153.0,0.75,59,139.0
807,E4,153.125,0.125,68,139.0
808,F#4,153.25,0.125,68,139.0
809,G4,153.375,0.125,68,139.0
810,F#4,153.5,0.125,68,139.0
811,E4,153.625,0.125,68,139.0
812,F#4,153.75,0.125,68,139.0
813,F#3,153.75,0.25,56,139.0
814,D4,153.875,0.125,68,139.0
815,B4,154.0,0.75,73,139.0
816,G3,154.0,0.75,60,139.0
817,B4,154.75,0.25,68,139.0
818,E3,154.75,0.25,56,139.0
819,A4,155.0,0.75,72,139.0
820,C#4,155.0,1.0,58,139.0
821,A3,155.0,0.75,60,139.0
822,G4,155.75,0.25,69,139.0
823,A2,155.75,0.25,56,139.0
824,F#4,156.0,0.75,73,139.0
825,D4,156.0,1.0,63,139.0
826,D3,156.0,0.75,60,139.0
827,G#4,156.75,0.25,68,139.0
828,E3,156.75,0.25,56,139.0
829,A4,157.0,0.125,71,139.0
830,A4,157.0,2.0,73,139.0
831,C#4,157.0,1.0,63,139.0
832,F#3,157.0,0.75,60,139.0
833,B4,157.125,0.125,71,139.0
834,C#5,157.25,0.125,71,139.0
835,D5,157.375,0.125,71,139.0
836,C#5,157.5,0.125,71,139.0
837,B4,157.625,0.125,71,139.0
838,C#5,157.75,0.125,71,139.0
839,E3,157.75,0.25,56,139.0
840,A4,157.875,0.125,71,139.0
841,F#5,158.0,0.75,75,139.0
842,B3,158.0,2.0,63,139.0
843,F#3,158.0,0.75,60,139.0
844,F#5,158.75,0.25,71,139.0
845,D3,158.75,0.25,56,139.0
846,E5,159.0,0.75,76,139.0
847,G#4,159.0,1.0,67,139.0
848,E3,159.0,1.0,62,139.0
849,D5,159.75,0.25,71,139.0
850,C#5,160.0,0.75,75,139.0
851,A4,160.0,1.0,72,139.0
852,A3,160.0,1.0,63,139.0
853,A2,160.0,1.0,63,139.0
854,E5,160.75,83/1000,69,139.0
855,F#5,160.833,83/1000,69,139.0
856,G5,160.917,83/1000,69,139.0
857,A5,161.0,0.75,76,139.0
858,C#5,161.0,1.0,65,139.0
859,F#4,161.0,0.125,71,139.0
860,G4,161.125,0.125,71,139.0
861,A4,161.25,0.125,71,139.0
862,B4,161.375,0.125,71,139.0
863,A4,161.5,0.125,71,139.0
864,G4,161.625,0.125,71,139.0
865,A5,161.75,0.25,72,139.0
866,A4,161.75,0.125,71,139.0
867,F#4,161.875,0.125,71,139.0
868,A5,162.0,0.75,76,139.0
869,D5,162.0,1.0,65,139.0
870,B4,162.0,1.0,78,139.0
871,D5,162.75,83/1000,70,139.0
872,E5,162.833,83/1000,70,139.0
873,F#5,162.917,83/1000,70,139.0
874,G5,163.0,0.75,74,139.0
875,D5,163.0,1.0,65,139.0
876,E4,163.0,0.125,71,139.0
877,F#4,163.125,0.125,71,139.0
878,G4,163.25,0.125,71,139.0
879,A4,163.375,0.125,71,139.0
880,G4,163.5,0.125,71,139.0
881,F#4,163.625,0.125,71,139.0
882,G5,163.75,0.25,70,139.0
883,G4,163.75,0.125,71,139.0
884,E4,163.875,0.125,71,139.0
885,G5,164.0,1.0,73,139.0
886,C#5,164.0,0.75,66,139.0
887,A4,164.0,1.0,77,139.0
888,E5,164.75,83/1000,72,139.0
889,D5,164.833,83/1000,72,139.0
890,C#5,164.917,83/1000,72,139.0
891,F#5,165.0,0.75,74,139.0
892,D5,165.0,0.75,77,139.0
893,A4,165.0,0.75,60,139.0
894,D2,165.0,0.125,66,139.0
895,E2,165.125,0.125,66,139.0
896,F#2,165.25,0.125,66,139.0
897,G2,165.375,0.125,66,139.0
898,F#2,165.5,0.125,66,139.0
899,E2,165.625,0.125,66,139.0
900,E5,165.75,0.25,69,139.0
901,C#5,165.75,0.25,69,139.0
902,G4,165.75,0.25,57,139.0
903,F#2,165.75,0.125,66,139.0
904,D2,165.875,0.125,66,139.0
905,D5,166.0,0.75,74,139.0
906,B4,166.0,1.0,74,139.0
907,F#4,166.0,0.75,60,139.0
908,B2,166.0,0.75,72,139.0
909,E5,166.75,0.25,71,139.0
910,G4,166.75,0.25,57,139.0
911,B2,166.75,0.25,66,139.0
912,C#5,167.0,0.75,75,139.0
913,A4,167.0,1.0,65,139.0
914,E4,167.0,1.0,60,139.0
915,A2,167.0,0.75,71,139.0
916,C#5,167.75,0.25,73,139.0
917,G2,167.75,0.25,66,139.0
918,C#5,168.0,1.0,73,139.0
919,A4,168.0,1.0,65,139.0
920,D4,168.0,1.0,64,139.0
921,F#2,168.0,0.75,72,139.0
922,D3,168.75,83/1000,66,139.0
923,E3,168.833,83/1000,66,139.0
924,F#3,168.917,83/1000,66,139.0
925,B4,169.0,0.125,73,139.0
926,B4,169.0,2.0,65,139.0
927,D4,169.0,1.0,60,139.0
928,G3,169.0,0.75,72,139.0
929,C#5,169.125,0.125,73,139.0
930,D5,169.25,0.125,73,139.0
931,E5,169.375,0.125,73,139.0
932,D5,169.5,0.125,73,139.0
933,C#5,169.625,0.125,73,139.0
934,D5,169.75,0.125,73,139.0
935,F#3,169.75,0.25,66,139.0
936,B4,169.875,0.125,70,139.0
937,G5,170.0,0.75,78,139.0
938,C#4,170.0,2.0,60,139.0
939,G3,170.0,0.75,72,139.0
940,G5,170.75,0.25,73,139.0
941,E3,170.75,0.25,66,139.0
942,F#5,171.0,0.75,76,139.0
943,B-4,171.0,1.0,61,139.0
944,F#3,171.0,1.0,71,139.0
945,E5,171.75,0.25,73,139.0
946,D5,172.0,1.0,76,139.0
947,B4,172.0,1.0,65,139.0
948,B3,172.0,1.0,60,139.0
949,B2,172.0,0.125,66,139.0
950,C#3,172.125,0.125,66,139.0
951,D3,172.25,0.125,66,139.0
952,E3,172.375,0.125,66,139.0
953,D3,172.5,0.125,66,139.0
954,C#3,172.625,0.125,66,139.0
955,D3,172.75,0.125,66,139.0
956,B2,172.875,0.125,66,139.0
957,B5,173.0,0.25,72,139.0
958,G#3,173.0,0.5,73,139.0
959,A5,173.25,0.25,70,139.0
960,B5,173.5,0.25,72,139.0
961,G#5,173.75,0.25,69,139.0
962,G#5,174.0,0.25,71,139.0
963,D5,174.0,0.75,55,139.0
964,B4,174.0,0.75,54,139.0
965,F#5,174.25,0.25,69,139.0
966,G#5,174.5,0.25,72,139.0
967,E5,174.75,0.25,67,139.0
968,B4,174.75,0.25,52,139.0
969,G#4,174.75,0.25,50,139.0
970,E5,175.0,0.25,69,139.0
971,B4,175.0,0.75,55,139.0
972,G#4,175.0,0.75,54,139.0
973,D5,175.25,0.25,67,139.0
974,E5,175.5,0.25,68,139.0
975,C#5,175.75,0.25,64,139.0
976,A4,175.75,0.25,52,139.0
977,E4,175.75,0.25,50,139.0
978,C#5,176.0,1.0,64,139.0
979,A4,176.0,1.0,55,139.0
980,E4,176.0,1.0,54,139.0
981,A2,176.0,0.125,66,139.0
982,B2,176.125,0.125,66,139.0
983,C#3,176.25,0.125,66,139.0
984,D3,176.375,0.125,66,139.0
985,C#3,176.5,0.125,66,139.0
986,B2,176.625,0.125,66,139.0
987,C#3,176.75,0.125,66,139.0
988,A2,176.875,0.125,66,139.0
989,A5,177.0,0.25,72,139.0
990,F#3,177.0,0.5,73,139.0
991,G5,177.25,0.25,70,139.0
992,A5,177.5,0.25,72,139.0
993,F#5,177.75,0.25,69,139.0
994,F#5,178.0,0.25,71,139.0
995,C5,178.0,0.75,55,139.0
996,A4,178.0,0.75,54,139.0
997,E5,178.25,0.25,69,139.0
998,F#5,178.5,0.25,72,139.0
999,D5,178.75,0.25,67,139.0
1000,A4,178.75,0.25,52,139.0
1001,F#4,178.75,0.25,50,139.0
1002,D5,179.0,0.25,69,139.0
1003,A4,179.0,0.75,55,139.0
1004,F#4,179.0,0.75,54,139.0
1005,C5,179.25,0.25,67,139.0
1006,D5,179.5,0.25,68,139.0
1007,B4,179.75,0.25,64,139.0
1008,G4,179.75,0.25,52,139.0
1009,D4,179.75,0.25,50,139.0
1010,B4,180.0,1.0,64,139.0
1011,G4,180.0,249/250,55,139.0
1012,D4,180.0,1.0,54,139.0
1013,G2,180.0,0.125,63,139.0
1014,A2,180.125,0.125,63,139.0
1015,B2,180.25,0.125,63,139.0
1016,C3,180.375,0.125,63,139.0
1017,B2,180.5,0.125,63,139.0
1018,A2,180.625,0.125,63,139.0
1019,B2,180.75,0.125,63,139.0
1020,G2,180.875,0.125,63,139.0
1021,G4,181.0,0.125,72,139.0
1022,E3,181.0,0.75,68,139.0
1023,A4,181.125,0.125,72,139.0
1024,B4,181.25,0.125,72,139.0
1025,C5,181.375,0.125,72,139.0
1026,B4,181.5,0.125,72,139.0
1027,A4,181.625,0.125,72,139.0
1028,B4,181.75,0.125,72,139.0
1029,D3,181.75,0.25,60,139.0
1030,G4,181.875,0.125,72,139.0
1031,E5,182.0,0.75,76,139.0
1032,C3,182.0,1.0,66,139.0
1033,E5,182.75,0.25,71,139.0
1034,D5,183.0,0.75,75,139.0
1035,D3,183.0,1.0,60,139.0
1036,C5,183.75,0.25,71,139.0
1037,B4,184.0,0.75,75,139.0
1038,G3,184.0,0.75,66,139.0
1039,C#5,184.75,0.25,71,139.0
1040,A3,184.75,0.25,49,139.0
1041,D5,185.0,2.0,74,139.0
1042,D4,185.0,0.125,67,139.0
1043,B3,185.0,0.75,54,139.0
1044,E4,185.125,0.125,67,139.0
1045,F#4,185.25,0.125,67,139.0
1046,G4,185.375,0.125,67,139.0
1047,F#4,185.5,0.125,67,139.0
1048,E4,185.625,0.125,67,139.0
1049,F#4,185.75,0.125,67,139.0
1050,A3,185.75,0.25,49,139.0
1051,D4,185.875,0.125,67,139.0
1052,B4,186.0,0.75,73,139.0
1053,G3,186.0,0.75,54,139.0
1054,B4,186.75,0.25,67,139.0
1055,E3,186.75,0.25,48,139.0
1056,C#5,187.0,1.0,71,139.0
1057,A4,187.0,0.75,73,139.0
1058,A3,187.0,0.75,54,139.0
1059,G4,187.75,0.25,67,139.0
1060,A2,187.75,0.25,51,139.0
1061,D5,188.0,1.0,72,139.0
1062,F#4,188.0,0.75,72,139.0
1063,B2,188.0,0.125,61,139.0
1064,C#3,188.125,0.125,61,139.0
1065,D3,188.25,0.125,61,139.0
1066,E3,188.375,0.125,59,139.0
1067,D3,188.5,0.125,61,139.0
1068,C#3,188.625,0.125,61,139.0
1069,A4,188.75,0.25,55,139.0
1070,D3,188.75,0.125,61,139.0
1071,B2,188.875,0.125,61,139.0
1072,D5,189.0,0.125,71,139.0
1073,D5,189.0,2.0,61,139.0
1074,B3,189.0,0.75,65,139.0
1075,E5,189.125,0.125,71,139.0
1076,F#5,189.25,0.125,71,139.0
1077,G5,189.375,0.125,71,139.0
1078,F#5,189.5,0.125,71,139.0
1079,E5,189.625,0.125,71,139.0
1080,F#5,189.75,0.125,71,139.0
1081,A3,189.75,0.25,50,139.0
1082,D5,189.875,0.125,71,139.0
1083,B5,190.0,0.75,76,139.0
1084,G3,190.0,0.75,53,139.0
1085,B5,190.75,0.25,71,139.0
1086,E3,190.75,0.25,48,139.0
1087,A5,191.0,0.75,76,139.0
1088,C5,191.0,1.0,61,139.0
1089,A3,191.0,0.75,53,139.0
1090,G5,191.75,0.25,71,139.0
1091,A2,191.75,0.25,48,139.0
1092,F#5,192.0,0.75,76,139.0
1093,C5,192.0,1.0,61,139.0
1094,D3,192.0,1.0,56,139.0
1095,D5,192.75,83/1000,71,139.0
1096,E5,192.833,83/1000,71,139.0
1097,F#5,192.917,83/1000,71,139.0
1098,G5,193.0,0.75,76,139.0
1099,B4,193.0,1.0,61,139.0
1100,G3,193.0,0.125,65,139.0
1101,E3,193.0,1.0,52,139.0
1102,A3,193.125,0.125,65,139.0
1103,B3,193.25,0.125,65,139.0
1104,C4,193.375,0.125,65,139.0
1105,B3,193.5,0.125,65,139.0
1106,A3,193.625,0.125,65,139.0
1107,G5,193.75,0.25,73,139.0
1108,B3,193.75,0.125,65,139.0
1109,G3,193.875,0.125,65,139.0
1110,G5,194.0,0.75,75,139.0
1111,A4,194.0,2.0,61,139.0
1112,E4,194.0,0.75,70,139.0
1113,C4,194.0,0.75,52,139.0
1114,A5,194.75,0.25,73,139.0
1115,E4,194.75,0.25,66,139.0
1116,A3,194.75,0.25,52,139.0
1117,F#5,195.0,0.75,76,139.0
1118,D4,195.0,0.75,70,139.0
1119,F#5,195.75,0.25,72,139.0
1120,C4,195.75,0.25,66,139.0
1121,D3,195.75,0.25,52,139.0
1122,F#5,196.0,0.75,72,139.0
1123,G4,196.0,1.0,61,139.0
1124,B3,196.0,1.0,71,139.0
1125,G3,196.0,1.0,57,139.0
1126,E5,196.75,0.125,67,139.0
1127,E-5,196.875,0.125,67,139.0
1128,E5,197.0,1.75,73,139.0
1129,B4,197.0,1.0,61,139.0
1130,G4,197.0,1.0,58,139.0
1131,E2,197.0,0.125,66,139.0
1132,F#2,197.125,0.125,66,139.0
1133,G2,197.25,0.125,66,139.0
1134,A2,197.375,0.125,66,139.0
1135,G2,197.5,0.125,66,139.0
1136,F#2,197.625,0.125,66,139.0
1137,G2,197.75,0.125,66,139.0
1138,E2,197.875,0.125,66,139.0
1139,A4,198.0,2.0,61,139.0
1140,F#4,198.0,2.0,58,139.0
1141,C3,198.0,0.75,72,139.0
1142,E-5,198.75,0.25,67,139.0
1143,C3,198.75,0.25,57,139.0
1144,E5,199.0,0.75,72,139.0
1145,B2,199.0,0.75,61,139.0
1146,F#5,199.75,0.25,66,139.0
1147,A2,199.75,0.25,56,139.0
1148,B4,200.0,0.75,71,139.0
1149,A4,200.0,1.0,61,139.0
1150,F#4,200.0,1.0,58,139.0
1151,G2,200.0,0.75,61,139.0
1152,C5,200.75,0.125,64,139.0
1153,F#2,200.75,0.25,56,139.0
1154,A4,200.875,0.125,64,139.0
1155,B4,201.0,0.75,67,139.0
1156,G4,201.0,0.75,60,139.0
1157,E4,201.0,0.75,61,139.0
1158,G2,201.0,0.75,60,139.0
1159,C5,201.75,0.25,62,139.0
1160,E4,201.75,31/125,55,139.0
1161,F#3,201.75,0.25,57,139.0
1162,A2,201.75,0.25,55,139.0
1163,G4,202.0,1.0,68,139.0
1164,E4,202.0,1.0,60,139.0
1165,G3,202.0,0.75,60,139.0
1166,B2,202.0,2.0,60,139.0
1167,A3,202.75,0.25,57,139.0
1168,F#4,203.0,1.0,64,139.0
1169,E-4,203.0,1.0,55,139.0
1170,B3,203.0,0.75,60,139.0
1171,A3,203.75,0.25,57,139.0
1172,E4,204.0,0.125,63,139.0
1173,E4,204.0,1.0,61,139.0
1174,G3,204.0,1.0,60,139.0
1175,E3,204.0,1.0,61,139.0
1176,F#4,204.125,0.125,63,139.0
1177,G4,204.25,0.125,63,139.0
1178,A4,204.375,0.125,63,139.0
1179,G4,204.5,0.125,63,139.0
1180,F#4,204.625,0.125,63,139.0
1181,G4,204.75,0.125,63,139.0
1182,E4,204.875,0.125,63,139.0
1183,G5,205.0,0.5,69,139.0
1184,B3,205.0,0.25,55,139.0
1185,A3,205.25,0.25,51,139.0
1186,B3,205.5,0.25,55,139.0
1187,G3,205.75,0.25,51,139.0
1188,E4,206.0,0.75,57,139.0
1189,B3,206.0,0.75,57,139.0
1190,G3,206.0,0.25,55,139.0
1191,F#3,206.25,0.25,51,139.0
1192,G3,206.5,0.25,55,139.0
1193,C#4,206.75,31/125,53,139.0
1194,G3,206.75,31/125,53,139.0
1195,E3,206.75,0.25,50,139.0
1196,C#4,207.0,0.75,57,139.0
1197,G3,207.0,0.75,57,139.0
1198,E3,207.0,0.25,55,139.0
1199,D3,207.25,0.25,50,139.0
1200,E3,207.5,0.25,55,139.0
1201,A3,207.75,0.25,53,139.0
1202,E3,207.75,0.25,53,139.0
1203,C#3,207.75,0.25,50,139.0
1204,A4,208.0,0.125,63,139.0
1205,A3,208.0,1.0,57,139.0
1206,E3,208.0,1.0,57,139.0
1207,C#3,208.0,1.0,55,139.0
1208,B4,208.125,0.125,63,139.0
1209,C#5,208.25,0.125,63,139.0
1210,D5,208.375,0.125,63,139.0
1211,C#5,208.5,0.125,63,139.0
1212,B4,208.625,0.125,63,139.0
1213,C#5,208.75,0.125,63,139.0
1214,A4,208.875,0.125,63,139.0
1215,F#5,209.0,0.5,68,139.0
1216,A3,209.0,0.25,55,139.0
1217,G3,209.25,0.25,50,139.0
1218,A3,209.5,0.25,55,139.0
1219,F#3,209.75,0.25,50,139.0
1220,D4,210.0,0.75,57,139.0
1221,A3,210.0,0.75,57,139.0
1222,F#3,210.0,0.25,55,139.0
1223,E3,210.25,0.25,50,139.0
1224,F#3,210.5,0.25,55,139.0
1225,B3,210.75,31/125,53,139.0
1226,F#3,210.75,31/125,54,139.0
1227,D3,210.75,0.25,50,139.0
1228,B3,211.0,0.75,57,139.0
1229,F#3,211.0,0.75,57,139.0
1230,D3,211.0,0.25,55,139.0
1231,C#3,211.25,0.25,50,139.0
1232,D3,211.5,0.25,55,139.0
1233,G3,211.75,0.25,52,139.0
1234,D3,211.75,0.25,54,139.0
1235,B2,211.75,0.25,51,139.0
1236,G4,212.0,0.125,64,139.0
1237,G3,212.0,1.0,57,139.0
1238,D3,212.0,1.0,57,139.0
1239,B2,212.0,1.0,55,139.0
1240,A4,212.125,0.125,64,139.0
1241,B4,212.25,0.125,64,139.0
1242,C5,212.375,0.125,64,139.0
1243,B4,212.5,0.125,64,139.0
1244,A4,212.625,0.125,64,139.0
1245,B4,212.75,0.125,64,139.0
1246,G4,212.875,0.125,64,139.0
1247,E5,213.0,0.5,69,139.0
1248,G3,213.0,0.25,55,139.0
1249,F#3,213.25,0.25,51,139.0
1250,G3,213.5,0.25,55,139.0
1251,E3,213.75,0.25,51,139.0
1252,C#4,214.0,0.75,57,139.0
1253,G3,214.0,0.75,57,139.0
1254,E3,214.0,0.25,55,139.0
1255,D3,214.25,0.25,51,139.0
1256,E3,214.5,0.25,55,139.0
1257,A3,214.75,31/125,55,139.0
1258,E3,214.75,31/125,54,139.0
1259,C#3,214.75,0.25,51,139.0
1260,A3,215.0,0.75,57,139.0
1261,E3,215.0,0.75,57,139.0
1262,C#3,215.0,0.25,55,139.0
1263,B2,215.25,0.25,51,139.0
1264,C#3,215.5,0.25,55,139.0
1265,F#3,215.75,31/125,54,139.0
1266,C#3,215.75,31/125,54,139.0
1267,A2,215.75,0.25,51,139.0
1268,F#4,216.0,0.125,64,139.0
1269,F#3,216.0,1.0,51,139.0
1270,C#3,216.0,1.0,51,139.0
1271,A2,216.0,1.0,49,139.0
1272,G4,216.125,0.125,64,139.0
1273,A4,216.25,0.125,64,139.0
1274,B4,216.375,0.125,64,139.0
1275,A4,216.5,0.125,64,139.0
1276,G4,216.625,0.125,64,139.0
1277,A4,216.75,0.125,64,139.0
1278,F#4,216.875,0.125,64,139.0
1279,D5,217.0,0.75,69,139.0
1280,B3,217.0,0.125,62,139.0
1281,C#4,217.125,0.125,62,139.0
1282,D4,217.25,0.125,62,139.0
1283,E4,217.375,0.125,62,139.0
1284,D4,217.5,0.125,62,139.0
1285,C#4,217.625,0.125,62,139.0
1286,D5,217.75,0.25,64,139.0
1287,D4,217.75,0.125,62,139.0
1288,B3,217.875,0.125,62,139.0
1289,D5,218.0,0.75,68,139.0
1290,G4,218.0,2.0,67,139.0
1291,E3,218.0,0.125,59,139.0
1292,F#3,218.125,0.125,59,139.0
1293,G3,218.25,0.125,59,139.0
1294,A3,218.375,0.125,59,139.0
1295,G3,218.5,0.125,59,139.0
1296,F#3,218.625,0.125,59,139.0
1297,E5,218.75,0.25,64,139.0
1298,G3,218.75,0.125,59,139.0
1299,E3,218.875,0.125,59,139.0
1300,C#5,219.0,83/1000,68,139.0
1301,A3,219.0,1.0,63,139.0
1302,D5,219.083,83/1000,60,139.0
1303,B3,219.125,0.125,60,139.0
1304,C#5,219.167,583/1000,68,139.0
1305,C#4,219.25,0.125,60,139.0
1306,D4,219.375,0.125,60,139.0
1307,C#4,219.5,0.125,60,139.0
1308,B3,219.625,0.125,60,139.0
1309,D5,219.75,0.125,64,139.0
1310,C#4,219.75,0.125,60,139.0
1311,E5,219.875,0.125,64,139.0
1312,A3,219.875,0.125,60,139.0
1313,F#5,220.0,1.0,69,139.0
1314,F#4,220.0,1.0,65,139.0
1315,D4,220.0,1.0,65,139.0
1316,D3,220.0,0.125,62,139.0
1317,E3,220.125,0.125,62,139.0
1318,F#3,220.25,0.125,62,139.0
1319,G3,220.375,0.125,62,139.0
1320,F#3,220.5,0.125,62,139.0
1321,E3,220.625,0.125,62,139.0
1322,F#3,220.75,0.125,62,139.0
1323,D3,220.875,0.125,62,139.0
1324,B5,221.0,0.25,72,139.0
1325,G3,221.0,0.5,65,139.0
1326,A5,221.25,0.25,70,139.0
1327,B5,221.5,0.25,72,139.0
1328,G5,221.75,0.25,69,139.0
1329,G5,222.0,0.25,71,139.0
1330,D5,222.0,0.75,55,139.0
1331,B4,222.0,0.75,54,139.0
1332,F#5,222.25,0.25,69,139.0
1333,G5,222.5,0.25,72,139.0
1334,E5,222.75,0.25,67,139.0
1335,B4,222.75,31/125,52,139.0
1336,G4,222.75,31/125,50,139.0
1337,E5,223.0,0.25,69,139.0
1338,B4,223.0,0.75,55,139.0
1339,G4,223.0,0.75,54,139.0
1340,D5,223.25,0.25,67,139.0
1341,E5,223.5,0.25,68,139.0
1342,C#5,223.75,0.25,64,139.0
1343,A4,223.75,31/125,52,139.0
1344,E4,223.75,0.25,50,139.0
1345,C#5,224.0,1.0,68,139.0
1346,G3,224.0,1.0,54,139.0
1347,G2,224.0,1.0,54,139.0
1348,E4,224.0,1.0,55,139.0
1349,A4,224.0,1.0,55,139.0
1350,D5,225.0,0.75,64,139.0
1351,A4,225.0,0.75,49,139.0
1352,F#4,225.0,0.75,48,139.0
1353,F#3,225.0,0.125,62,139.0
1354,G3,225.125,0.125,62,139.0
1355,A3,225.25,0.125,62,139.0
1356,G3,225.375,0.125,62,139.0
1357,F#3,225.5,0.125,62,139.0
1358,E3,225.625,0.125,62,139.0
1359,D5,225.75,0.25,61,139.0
1360,A4,225.75,0.25,46,139.0
1361,F#4,225.75,0.25,45,139.0
1362,D3,225.75,0.125,62,139.0
1363,C#3,225.875,0.125,62,139.0
1364,D5,226.0,0.75,66,139.0
1365,B4,226.0,0.75,49,139.0
1366,F#4,226.0,0.75,48,139.0
1367,B2,226.0,0.125,62,139.0
1368,C#3,226.125,0.125,62,139.0
1369,D3,226.25,0.125,62,139.0
1370,C#3,226.375,0.125,62,139.0
1371,B2,226.5,0.125,62,139.0
1372,A2,226.625,0.125,62,139.0
1373,E5,226.75,0.25,61,139.0
1374,B4,226.75,0.25,46,139.0
1375,G4,226.75,0.25,45,139.0
1376,B2,226.75,0.125,62,139.0
1377,G2,226.875,0.125,62,139.0
1378,C#5,227.0,83/1000,66,139.0
1379,A4,227.0,1.0,49,139.0
1380,E4,227.0,1.0,48,139.0
1381,A2,227.0,0.75,66,139.0
1382,D5,227.083,83/1000,66,139.0
1383,C#5,227.167,83/1000,66,139.0
1384,D5,227.25,83/1000,66,139.0
1385,C#5,227.333,83/1000,66,139.0
1386,D5,227.417,83/1000,66,139.0
1387,C#5,227.5,0.25,66,139.0
1388,D5,227.75,0.25,61,139.0
1389,A2,227.75,0.25,62,139.0
1390,D5,228.0,1.0,64,139.0
1391,A4,228.0,1.0,49,139.0
1392,F#4,228.0,1.0,48,139.0
1393,D2,228.0,0.75,66,139.0
1394,D3,228.75,83/1000,62,139.0
1395,E3,228.833,83/1000,62,139.0
1396,F#3,228.917,83/1000,62,139.0
1397,B4,229.0,0.125,64,139.0
1398,G3,229.0,1.0,66,139.0
1399,C#5,229.125,0.125,64,139.0
1400,D5,229.25,0.125,64,139.0
1401,E5,229.375,0.125,64,139.0
1402,D5,229.5,0.125,64,139.0
1403,C#5,229.625,0.125,64,139.0
1404,D5,229.75,0.125,64,139.0
1405,B4,229.875,0.125,64,139.0
1406,E5,230.0,1.0,64,139.0
1407,B4,230.0,1.0,49,139.0
1408,E4,230.0,1.0,48,139.0
1409,C#3,230.0,0.125,60,139.0
1410,D3,230.125,0.125,61,139.0
1411,E3,230.25,0.125,61,139.0
1412,F#3,230.375,0.125,59,139.0
1413,E3,230.5,0.125,61,139.0
1414,D3,230.625,0.125,61,139.0
1415,E3,230.75,0.125,61,139.0
1416,C#3,230.875,0.125,61,139.0
1417,A4,231.0,0.125,64,139.0
1418,F#3,231.0,1.0,64,139.0
1419,B4,231.125,0.125,64,139.0
1420,C#5,231.25,0.125,64,139.0
1421,D5,231.375,0.125,64,139.0
1422,C#5,231.5,0.125,64,139.0
1423,B4,231.625,0.125,64,139.0
1424,C#5,231.75,0.125,64,139.0
1425,A4,231.875,0.125,64,139.0
1426,D5,232.0,1.0,72,139.0
1427,A4,232.0,1.0,49,139.0
1428,D4,232.0,1.0,48,139.0
1429,B2,232.0,0.125,67,139.0
1430,C#3,232.125,0.125,67,139.0
1431,D3,232.25,0.125,67,139.0
1432,E3,232.375,0.125,67,139.0
1433,D3,232.5,0.125,67,139.0
1434,C#3,232.625,0.125,67,139.0
1435,D3,232.75,0.125,67,139.0
1436,B2,232.875,0.125,67,139.0
1437,G4,233.0,0.125,64,139.0
1438,E3,233.0,0.125,60,139.0
1439,A4,233.125,0.125,64,139.0
1440,F#3,233.125,0.125,60,139.0
1441,B4,233.25,0.125,64,139.0
1442,G3,233.25,0.125,60,139.0
1443,C5,233.375,0.125,65,139.0
1444,A3,233.375,0.125,60,139.0
1445,B4,233.5,0.125,65,139.0
1446,G3,233.5,0.125,60,139.0
1447,A4,233.625,0.125,66,139.0
1448,F#3,233.625,0.125,61,139.0
1449,B4,233.75,0.125,66,139.0
1450,G3,233.75,0.125,61,139.0
1451,G4,233.875,0.125,66,139.0
1452,E3,233.875,0.125,61,139.0
1453,C#5,234.0,0.125,66,139.0
1454,A3,234.0,0.125,62,139.0
1455,D5,234.125,0.125,66,139.0
1456,B3,234.125,0.125,62,139.0
1457,E5,234.25,0.125,67,139.0
1458,C#4,234.25,0.125,62,139.0
1459,F#5,234.375,0.125,67,139.0
1460,D4,234.375,0.125,62,139.0
1461,E5,234.5,0.125,68,139.0
1462,C#4,234.5,0.125,63,139.0
1463,D5,234.625,0.125,68,139.0
1464,B3,234.625,0.125,63,139.0
1465,E5,234.75,0.125,68,139.0
1466,C#4,234.75,0.125,63,139.0
1467,C#5,234.875,0.125,69,139.0
1468,A3,234.875,0.125,64,139.0
1469,F#5,235.0,0.125,69,139.0
1470,D4,235.0,0.125,64,139.0
1471,G5,235.125,0.125,69,139.0
1472,E4,235.125,0.125,64,139.0
1473,A5,235.25,0.125,69,139.0
1474,F#4,235.25,0.125,64,139.0
1475,B5,235.375,0.125,69,139.0
1476,G4,235.375,0.125,64,139.0
1477,A5,235.5,0.125,70,139.0
1478,F#4,235.5,0.125,65,139.0
1479,G5,235.625,0.125,70,139.0
1480,E4,235.625,0.125,65,139.0
1481,A5,235.75,0.125,71,139.0
1482,F#4,235.75,0.125,66,139.0
1483,F#5,235.875,0.125,71,139.0
1484,D4,235.875,0.125,66,139.0
1485,B5,236.0,0.75,77,139.0
1486,G4,236.0,0.75,72,139.0
1487,C#5,236.75,0.25,72,139.0
1488,A4,236.75,0.25,70,139.0
1489,E4,236.75,0.25,69,139.0
1490,G3,236.75,0.25,69,139.0
1491,D5,237.0,0.75,77,139.0
1492,A4,237.0,0.75,72,139.0
1493,F#4,237.0,0.75,72,139.0
1494,F#3,237.0,0.75,72,139.0
1495,E5,237.75,0.25,72,139.0
1496,C#5,237.75,0.25,70,139.0
1497,G4,237.75,0.25,69,139.0
1498,E3,237.75,0.25,69,139.0
1499,F#5,238.0,0.75,78,139.0
1500,D5,238.0,0.75,72,139.0
1501,A4,238.0,0.75,72,139.0
1502,D3,238.0,0.75,72,139.0
1503,F#4,238.75,0.25,72,139.0
1504,D4,238.75,31/125,70,139.0
1505,A3,238.75,0.25,68,139.0
1506,C3,238.75,0.25,69,139.0
1507,G4,239.0,0.75,77,139.0
1508,D4,239.0,0.75,72,139.0
1509,B3,239.0,0.75,72,139.0
1510,B2,239.0,0.75,72,139.0
1511,A4,239.75,0.25,72,139.0
1512,F#4,239.75,0.25,69,139.0
1513,C4,239.75,0.25,68,139.0
1514,A2,239.75,0.25,68,139.0
1515,B4,240.0,0.75,76,139.0
1516,G4,240.0,0.75,72,139.0
1517,D4,240.0,0.75,72,139.0
1518,G2,240.0,0.75,72,139.0
1519,B4,240.75,0.25,72,139.0
1520,D4,240.75,0.25,69,139.0
1521,G4,240.75,0.25,68,139.0
1522,F#2,240.75,0.25,68,139.0
1523,C#5,241.0,0.75,76,139.0
1524,E4,241.0,0.75,72,139.0
1525,G4,241.0,0.75,72,139.0
1526,E2,241.0,0.75,72,139.0
1527,D5,241.75,0.25,72,139.0
1528,F#4,241.75,123/500,69,139.0
1529,A4,241.75,0.25,68,139.0
1530,D2,241.75,0.25,68,139.0
1531,F#4,242.0,1.0,77,139.0
1532,D4,242.0,1.0,72,139.0
1533,A3,242.0,1.0,72,139.0
1534,A2,242.0,2.0,72,139.0
1535,E4,243.0,1.0,76,139.0
1536,C#4,243.0,1.0,72,139.0
1537,G3,243.0,1.0,72,139.0
1538,D4,244.0,4.0,76,139.0
1539,A3,244.0,4.0,72,139.0
1540,F#3,244.0,4.0,70,139.0
1541,D2,244.0,4.0,66,139.0
