,note_name,start_time,duration,velocity,tempo
0,A3,0.0,1.5,42,46.0
1,A1,0.0,1.5,26,46.0
2,A2,0.0,1.5,26,46.0
3,C#4,1.5,1.5,40,46.0
4,C#2,1.5,1.5,26,46.0
5,C#3,1.5,1.5,26,46.0
6,F#4,3.0,1.5,40,46.0
7,C#4,3.0,1.5,40,46.0
8,C#5,3.0,1.0,44,46.0
9,A4,3.0,1.0,44,46.0
10,F#2,3.0,1.5,31,46.0
11,C#3,3.0,1.5,31,46.0
12,F#3,3.0,1.5,31,46.0
13,A4,4.0,0.5,42,46.0
14,C#4,4.5,0.5,43,46.0
15,A4,4.5,0.5,43,46.0
16,F#2,4.5,0.5,31,46.0
17,C#3,4.5,0.5,31,46.0
18,F#3,4.5,0.5,31,46.0
19,C#4,5.0,0.5,38,46.0
20,F#4,5.0,0.5,38,46.0
21,A2,5.0,0.5,28,46.0
22,C#3,5.0,0.5,28,46.0
23,A3,5.0,0.5,28,46.0
24,B3,5.5,0.5,36,46.0
25,F4,5.5,0.5,36,46.0
26,G#4,5.5,0.5,36,46.0
27,C#4,5.5,0.5,36,46.0
28,G#2,5.5,0.5,28,46.0
29,C#3,5.5,0.5,28,46.0
30,G#3,5.5,0.5,28,46.0
31,A3,6.0,1.5,44,46.0
32,F#4,6.0,1.5,44,46.0
33,A4,6.0,1.5,44,46.0
34,C#4,6.0,1.5,44,46.0
35,F#2,6.0,1.5,30,46.0
36,C#3,6.0,1.5,30,46.0
37,F#3,6.0,1.5,30,46.0
38,B3,7.5,1.0,50,46.0
39,B4,7.5,1.0,50,46.0
40,F#4,7.5,1.0,50,46.0
41,D2,7.5,1.0,36,46.0
42,D3,7.5,1.0,36,46.0
43,F#4,8.5,62/125,49,46.0
44,D4,8.5,62/125,49,46.0
45,D5,8.5,62/125,49,46.0
46,B1,8.5,62/125,37,46.0
47,B2,8.5,62/125,37,46.0
48,D4,9.0,1.0,55,46.0
49,D5,9.0,1.0,55,46.0
50,F#4,9.0,1.0,55,46.0
51,B1,9.0,1.0,42,46.0
52,B2,9.0,1.0,42,46.0
53,F#4,10.0,62/125,51,46.0
54,C#5,10.0,62/125,51,46.0
55,C#4,10.0,62/125,51,46.0
56,A1,10.0,62/125,38,46.0
57,A2,10.0,62/125,38,46.0
58,F#4,10.5,0.5,57,46.0
59,C#5,10.5,0.5,57,46.0
60,C#4,10.5,0.5,57,46.0
61,A1,10.5,0.5,44,46.0
62,A2,10.5,0.5,44,46.0
63,F4,11.0,0.5,52,46.0
64,B4,11.0,0.5,52,46.0
65,C#5,11.0,0.5,52,46.0
66,F5,11.0,0.5,52,46.0
67,G#1,11.0,0.5,42,46.0
68,G#2,11.0,0.5,42,46.0
69,C#5,11.5,0.5,57,46.0
70,A4,11.5,0.5,57,46.0
71,F#4,11.5,0.5,57,46.0
72,F#5,11.5,0.5,57,46.0
73,F#1,11.5,0.5,44,46.0
74,F#2,11.5,0.5,44,46.0
75,G#5,12.0,1.5,65,46.0
76,C#5,12.0,1.5,65,46.0
77,G#4,12.0,1.5,65,46.0
78,F1,12.0,1.5,44,46.0
79,F2,12.0,1.5,44,46.0
80,D5,13.5,1.5,46,46.0
81,B4,13.5,1.5,46,46.0
82,G#4,13.5,1.5,46,46.0
83,B3,13.5,1.5,32,46.0
84,G#3,13.5,1.5,32,46.0
85,F3,13.5,1.5,32,46.0
86,D4,13.5,1.5,32,46.0
87,G#4,15.0,1.5,45,46.0
88,B4,15.0,1.5,45,46.0
89,D5,15.0,1.5,45,46.0
90,F1,15.0,1.5,31,46.0
91,F2,15.0,1.5,31,46.0
92,D4,16.0,0.5,42,46.0
93,C#4,16.5,1.0,38,46.0
94,A4,16.5,1.0,38,46.0
95,C#5,16.5,1.0,38,46.0
96,F#1,16.5,1.0,28,46.0
97,F#2,16.5,1.0,28,46.0
98,B3,17.5,62/125,37,46.0
99,D4,17.5,62/125,37,46.0
100,F4,17.5,62/125,37,46.0
101,B4,17.5,62/125,37,46.0
102,G#1,17.5,62/125,28,46.0
103,G#2,17.5,62/125,28,46.0
104,B3,18.0,297/200,42,46.0
105,D4,18.0,297/200,42,46.0
106,F4,18.0,297/200,42,46.0
107,B4,18.0,297/200,42,46.0
108,G#1,18.0,297/200,32,46.0
109,G#2,18.0,297/200,32,46.0
110,B3,19.5,0.5,41,46.0
111,F4,19.5,0.5,41,46.0
112,D4,19.5,0.5,41,46.0
113,B4,19.5,0.5,41,46.0
114,G#1,19.5,0.5,32,46.0
115,G#2,19.5,0.5,32,46.0
116,F#4,20.0,0.5,36,46.0
117,A3,20.0,0.5,36,46.0
118,C#4,20.0,0.5,36,46.0
119,A4,20.0,0.5,36,46.0
120,A1,20.0,0.5,28,46.0
121,A2,20.0,0.5,28,46.0
122,G#3,20.5,0.5,36,46.0
123,D4,20.5,0.5,36,46.0
124,F#4,20.5,0.5,36,46.0
125,G#4,20.5,0.5,36,46.0
126,B1,20.5,0.5,28,46.0
127,B2,20.5,0.5,28,46.0
128,F#4,21.0,99/100,42,46.0
129,G#3,21.0,99/100,42,46.0
130,E-4,21.0,99/100,42,46.0
131,G#4,21.0,99/100,42,46.0
132,C2,21.0,99/100,32,46.0
133,C3,21.0,99/100,32,46.0
134,E-4,22.0,62/125,38,46.0
135,G#3,22.0,62/125,38,46.0
136,F#4,22.0,62/125,38,46.0
137,G#4,22.0,62/125,38,46.0
138,C2,22.0,62/125,30,46.0
139,C3,22.0,62/125,30,46.0
140,E-4,22.5,0.5,47,46.0
141,F#4,22.5,0.5,47,46.0
142,G#3,22.5,0.5,47,46.0
143,G#4,22.5,0.5,47,46.0
144,C2,22.5,62/125,36,46.0
145,C3,22.5,62/125,36,46.0
146,F#4,23.0,0.5,42,46.0
147,E-4,23.0,0.5,42,46.0
148,A3,23.0,0.5,42,46.0
149,A4,23.0,0.5,42,46.0
150,C2,23.0,62/125,34,46.0
151,C3,23.0,62/125,34,46.0
152,F#3,23.5,0.5,44,46.0
153,A3,23.5,0.5,44,46.0
154,E-4,23.5,0.5,44,46.0
155,F#4,23.5,0.5,44,46.0
156,C2,23.5,0.5,36,46.0
157,C3,23.5,0.5,36,46.0
158,E-4,24.0,0.5,44,46.0
159,F#3,24.0,1.5,47,46.0
160,A3,24.0,1.5,47,46.0
161,F#4,24.0,1.5,47,46.0
162,C#2,24.0,1.5,36,46.0
163,C#3,24.0,1.5,36,46.0
164,C4,24.5,0.5,45,46.0
165,C#4,25.0,0.5,46,46.0
166,G#3,25.5,0.5,43,46.0
167,F4,25.5,0.5,43,46.0
168,F3,25.5,0.5,43,46.0
169,C#4,25.5,0.5,43,46.0
170,C#2,25.5,0.5,30,46.0
171,C#3,25.5,0.5,30,46.0
172,G#4,26.0,0.5,57,46.0
173,C#3,26.0,0.5,33,46.0
174,F3,26.0,0.5,33,46.0
175,G#3,26.0,0.5,33,46.0
176,B4,26.5,0.5,59,46.0
177,C#3,26.5,0.5,33,46.0
178,G#3,26.5,0.5,33,46.0
179,B3,26.5,0.5,33,46.0
180,F4,27.0,0.5,50,46.0
181,D4,27.0,1.0,55,46.0
182,B4,27.0,1.0,55,46.0
183,C#3,27.0,1.0,40,46.0
184,B3,27.0,1.0,40,46.0
185,G#4,27.5,0.5,50,46.0
186,C#4,28.0,62/125,47,46.0
187,A4,28.0,62/125,47,46.0
188,F#4,28.0,62/125,47,46.0
189,C#3,28.0,62/125,31,46.0
190,A3,28.0,62/125,31,46.0
191,A4,28.5,0.5,51,46.0
192,C#4,28.5,0.5,51,46.0
193,F#4,28.5,0.5,51,46.0
194,C#3,28.5,0.5,40,46.0
195,A3,28.5,0.5,40,46.0
196,F4,29.0,0.5,44,46.0
197,G#4,29.0,0.5,44,46.0
198,B3,29.0,0.5,44,46.0
199,D4,29.0,0.5,44,46.0
200,C#3,29.0,0.5,35,46.0
201,G#3,29.0,0.5,35,46.0
202,A3,29.5,0.25,42,46.0
203,F#4,29.5,0.5,46,46.0
204,E-4,29.5,0.5,46,46.0
205,C#3,29.5,0.5,35,46.0
206,F#3,29.5,0.5,35,46.0
207,C4,29.75,0.25,42,46.0
208,E-4,30.0,1.0,52,46.0
209,F#4,30.0,1.0,52,46.0
210,A3,30.0,1.0,52,46.0
211,C4,30.0,1.0,52,46.0
212,C#3,30.0,1.0,40,46.0
213,F#3,30.0,1.0,40,46.0
214,F4,31.0,0.5,47,46.0
215,C#4,31.0,0.5,47,46.0
216,G#3,31.0,0.5,47,46.0
217,C#3,31.0,0.5,31,46.0
218,F3,31.0,0.5,31,46.0
219,F4,31.5,0.5,66,46.0
220,C#3,31.5,1.0,36,46.0
221,F3,31.5,0.5,49,46.0
222,G#4,32.0,0.5,60,46.0
223,G#3,32.0,0.5,45,46.0
224,B4,32.5,0.25,63,46.0
225,B3,32.5,0.25,38,46.0
226,F4,32.5,0.5,42,46.0
227,G#4,32.5,0.5,42,46.0
228,G#3,32.5,0.5,32,46.0
229,C#3,32.5,0.5,32,46.0
230,D5,32.75,31/125,63,46.0
231,D4,32.75,31/125,38,46.0
232,B3,33.0,1.0,38,46.0
233,C#3,33.0,1.0,38,46.0
234,D4,33.0,1.0,38,46.0
235,B4,33.5,1.0,61,46.0
236,D5,33.5,1.0,61,46.0
237,F4,33.5,0.5,42,46.0
238,G#4,33.5,0.5,42,46.0
239,F4,34.0,0.5,36,46.0
240,G#4,34.0,0.5,36,46.0
241,A3,34.0,62/125,33,46.0
242,C#3,34.0,62/125,33,46.0
243,C#4,34.0,62/125,33,46.0
244,F#4,34.5,62/125,50,46.0
245,C#5,34.5,62/125,50,46.0
246,A4,34.5,62/125,50,46.0
247,C#3,34.5,0.5,36,46.0
248,C#4,34.5,0.5,36,46.0
249,A3,34.5,0.5,36,46.0
250,C#5,35.0,0.5,50,46.0
251,A4,35.0,0.5,50,46.0
252,C#3,35.0,0.5,32,46.0
253,B3,35.0,0.5,32,46.0
254,G#3,35.0,0.5,32,46.0
255,F#4,35.25,0.25,46,46.0
256,D4,35.5,0.5,41,46.0
257,G#4,35.5,0.5,41,46.0
258,B4,35.5,0.5,41,46.0
259,F4,35.5,0.5,41,46.0
260,C#3,35.5,62/125,31,46.0
261,A3,35.5,62/125,31,46.0
262,F#3,35.5,62/125,31,46.0
263,C4,36.0,62/125,41,46.0
264,F#4,36.0,62/125,41,46.0
265,A4,36.0,62/125,41,46.0
266,E-4,36.0,62/125,41,46.0
267,F#3,36.0,1.0,34,46.0
268,C#3,36.0,1.0,34,46.0
269,A3,36.0,1.0,34,46.0
270,F#4,36.5,1.0,50,46.0
271,A4,36.5,1.0,50,46.0
272,C4,37.0,0.5,44,46.0
273,E-4,37.0,0.5,44,46.0
274,F3,37.0,62/125,26,46.0
275,C#3,37.0,62/125,26,46.0
276,G#3,37.0,62/125,26,46.0
277,C#4,37.5,62/125,40,46.0
278,F4,37.5,62/125,40,46.0
279,G#4,37.5,62/125,40,46.0
280,F3,37.5,1.0,28,46.0
281,C#3,37.5,1.0,28,46.0
282,G#3,37.5,1.0,28,46.0
283,G#4,38.0,1.0,38,46.0
284,F4,38.0,1.0,38,46.0
285,C#4,38.0,1.0,38,46.0
286,G3,38.5,0.375,22,46.0
287,E3,38.5,0.375,22,46.0
288,C#3,38.5,0.375,22,46.0
289,B-3,38.5,0.375,22,46.0
290,E4,39.0,0.375,36,46.0
291,G4,39.0,0.375,36,46.0
292,C#4,39.0,0.375,36,46.0
293,D3,39.0,1.5,36,46.0
294,G3,39.0,1.5,36,46.0
295,B3,39.0,1.5,36,46.0
296,G4,39.375,0.125,53,46.0
297,B5,39.5,1.0,65,46.0
298,A5,40.5,0.5,62,46.0
299,G3,40.5,1.5,30,46.0
300,B3,40.5,1.0,33,46.0
301,D4,40.5,1.0,33,46.0
302,G4,41.0,1.5,55,46.0
303,G5,41.0,1.0,65,46.0
304,D4,41.5,0.5,30,46.0
305,F#5,42.0,0.5,64,46.0
306,E4,42.0,1.5,36,46.0
307,C4,42.0,1.5,36,46.0
308,G4,42.5,1.5,55,46.0
309,E5,42.5,1.0,65,46.0
310,F#5,43.5,0.5,63,46.0
311,B3,43.5,1.0,32,46.0
312,D4,43.5,1.0,32,46.0
313,G4,44.0,1.0,60,46.0
314,G5,44.0,1.0,60,46.0
315,D4,44.5,62/125,32,46.0
316,F#4,45.0,62/125,64,46.0
317,D4,45.0,0.5,35,46.0
318,F#4,45.5,0.5,60,46.0
319,C#4,45.5,0.5,31,46.0
320,F#4,46.0,0.5,49,46.0
321,A4,46.0,0.5,49,46.0
322,C#3,46.0,0.5,27,46.0
323,F#3,46.0,0.5,27,46.0
324,A3,46.0,0.5,27,46.0
325,C#4,46.0,0.5,27,46.0
326,F#4,46.5,0.5,46,46.0
327,A4,46.5,0.5,46,46.0
328,C#5,46.5,0.5,46,46.0
329,C#3,46.5,99/100,30,46.0
330,F3,46.5,99/100,30,46.0
331,G#3,46.5,99/100,30,46.0
332,C#4,46.5,99/100,30,46.0
333,C#5,47.0,99/100,48,46.0
334,F4,47.0,99/100,48,46.0
335,G#4,47.0,99/100,48,46.0
336,C#3,47.5,62/125,28,46.0
337,F3,47.5,62/125,28,46.0
338,G#3,47.5,62/125,28,46.0
339,C#4,47.5,62/125,28,46.0
340,C#5,48.0,62/125,38,46.0
341,G#4,48.0,62/125,38,46.0
342,F4,48.0,62/125,38,46.0
343,C#3,48.0,1.0,30,46.0
344,F3,48.0,1.0,30,46.0
345,G#3,48.0,1.0,30,46.0
346,C#4,48.0,1.0,30,46.0
347,G#4,48.5,1.0,43,46.0
348,F4,48.5,1.0,43,46.0
349,C#5,48.5,1.0,43,46.0
350,F#3,49.0,62/125,29,46.0
351,A3,49.0,62/125,29,46.0
352,C#4,49.0,62/125,29,46.0
353,F#4,49.5,62/125,40,46.0
354,A4,49.5,62/125,40,46.0
355,F#3,49.5,62/125,30,46.0
356,A3,49.5,62/125,30,46.0
357,C#4,49.5,62/125,30,46.0
358,A3,50.0,0.5,34,46.0
359,F#4,50.0,62/125,42,46.0
360,A4,50.0,62/125,42,46.0
361,C#4,50.5,0.5,41,46.0
362,F#4,50.5,0.5,41,46.0
363,G#3,50.5,0.25,33,46.0
364,B3,50.5,0.25,33,46.0
365,F#3,50.75,0.25,38,46.0
366,A3,50.75,0.25,38,46.0
367,C#4,51.0,0.5,44,46.0
368,C#2,51.0,3.0,43,46.0
369,G#4,51.0,0.25,44,46.0
370,F4,51.0,0.25,44,46.0
371,F#4,51.25,0.25,47,46.0
372,A4,51.25,0.25,47,46.0
373,F2,51.5,0.5,38,46.0
374,G#4,51.5,1.0,51,46.0
375,B4,51.5,1.0,51,46.0
376,D4,52.0,0.5,50,46.0
377,F#2,52.0,0.5,39,46.0
378,G#2,52.5,0.75,42,46.0
379,C#4,52.5,0.5,51,46.0
380,F#4,52.5,0.5,51,46.0
381,A4,52.5,0.5,51,46.0
382,A4,53.0,0.5,60,46.0
383,B3,53.0,1.0,51,46.0
384,F4,53.0,1.0,51,46.0
385,D4,53.0,1.0,51,46.0
386,A2,53.25,0.25,45,46.0
387,G#4,53.5,0.5,57,46.0
388,B2,53.5,0.25,48,46.0
389,C3,53.75,0.25,50,46.0
390,F#4,54.0,0.5,48,46.0
391,E-4,54.0,0.5,48,46.0
392,A3,54.0,0.5,48,46.0
393,C#2,54.0,1.75,40,46.0
394,C#3,54.0,1.75,40,46.0
395,C#4,54.5,1.5,50,46.0
396,A3,54.5,0.5,55,46.0
397,F#4,54.5,0.5,55,46.0
398,G3,55.0,0.5,53,46.0
399,E4,55.0,0.5,53,46.0
400,G#3,55.5,62/125,53,46.0
401,F4,55.5,62/125,53,46.0
402,C#3,55.75,0.25,45,46.0
403,F3,56.0,0.25,45,46.0
404,G#3,56.0,0.75,53,46.0
405,C#4,56.0,0.75,53,46.0
406,F4,56.0,0.75,53,46.0
407,G#3,56.25,0.25,45,46.0
408,B3,56.5,0.25,38,46.0
409,G#4,56.75,0.25,60,46.0
410,D4,56.75,31/125,38,46.0
411,B4,57.0,0.25,63,46.0
412,C#2,57.0,0.5,40,46.0
413,C#3,57.0,0.5,40,46.0
414,D5,57.25,31/125,66,46.0
415,D5,57.5,1.0,71,46.0
416,G#4,57.5,0.5,40,46.0
417,B4,57.5,0.5,40,46.0
418,F4,57.5,0.5,40,46.0
419,D4,57.5,0.5,40,46.0
420,F2,57.5,0.5,33,46.0
421,C#3,57.5,0.5,33,46.0
422,F3,57.5,0.5,33,46.0
423,F4,58.0,0.5,36,46.0
424,G#4,58.0,0.5,36,46.0
425,C#3,58.0,0.5,33,46.0
426,F#2,58.0,0.5,33,46.0
427,F#3,58.0,0.5,33,46.0
428,A4,58.5,0.5,51,46.0
429,C#5,58.5,0.5,51,46.0
430,G#2,58.5,0.75,36,46.0
431,G#3,58.5,0.75,36,46.0
432,C#3,58.5,0.75,36,46.0
433,C#5,59.0,0.5,55,46.0
434,F4,59.0,1.0,39,46.0
435,D4,59.0,1.0,39,46.0
436,G#4,59.0,1.0,39,46.0
437,A3,59.25,0.25,42,46.0
438,A2,59.25,0.25,42,46.0
439,B4,59.5,0.5,47,46.0
440,B3,59.5,0.25,44,46.0
441,B2,59.5,0.25,44,46.0
442,C4,59.75,0.25,46,46.0
443,C3,59.75,0.25,46,46.0
444,C#3,60.0,1.0,32,46.0
445,E-4,60.0,0.5,42,46.0
446,F#4,60.0,0.5,42,46.0
447,A4,60.0,0.5,42,46.0
448,F#4,60.5,1.0,50,46.0
449,A4,60.5,1.0,50,46.0
450,E-4,60.5,0.5,44,46.0
451,C4,60.5,0.5,44,46.0
452,F#3,60.5,0.5,32,46.0
453,A3,60.5,0.5,32,46.0
454,C4,61.0,0.5,39,46.0
455,E-4,61.0,0.5,39,46.0
456,F3,61.0,0.5,26,46.0
457,C#3,61.0,0.5,26,46.0
458,G#3,61.0,0.5,26,46.0
459,C#4,61.5,0.5,40,46.0
460,F4,61.5,0.5,40,46.0
461,G#4,61.5,0.5,40,46.0
462,F3,61.5,0.5,28,46.0
463,C#3,61.5,0.5,28,46.0
464,G#3,61.5,0.5,28,46.0
465,F4,62.0,0.5,38,46.0
466,C#4,62.0,0.5,38,46.0
467,G#4,62.0,0.5,38,46.0
468,B-3,62.0,0.5,22,46.0
469,E3,62.0,0.5,22,46.0
470,C#3,62.0,0.5,22,46.0
471,G3,62.0,0.5,22,46.0
472,E4,62.5,0.5,36,46.0
473,G4,62.5,0.5,36,46.0
474,D3,62.5,0.5,23,46.0
475,G3,62.5,0.5,23,46.0
476,B3,62.5,0.5,23,46.0
477,D4,63.0,0.375,34,46.0
478,B3,63.0,1.5,36,46.0
479,G2,63.0,1.5,36,46.0
480,D3,63.0,1.5,36,46.0
481,G4,63.375,0.125,53,46.0
482,B5,63.5,1.0,65,46.0
483,A5,64.485,62/125,60,46.0
484,G3,64.5,1.5,32,46.0
485,B2,64.5,1.5,32,46.0
486,D4,64.5,1.5,32,46.0
487,A5,65.0,0.5,65,46.0
488,G6,65.5,0.5,56,46.0
489,G5,65.5,0.5,56,46.0
490,F#5,66.0,62/125,59,46.0
491,F#6,66.0,62/125,59,46.0
492,C3,66.0,1.5,34,46.0
493,E4,66.0,1.5,34,46.0
494,G3,66.0,1.5,34,46.0
495,F#6,66.5,0.5,64,46.0
496,F#5,66.5,0.5,64,46.0
497,E5,67.0,0.5,62,46.0
498,E6,67.0,0.5,62,46.0
499,B2,67.5,1.0,39,46.0
500,F#5,67.5,62/125,66,46.0
501,F#6,67.5,62/125,66,46.0
502,G3,67.5,0.5,43,46.0
503,D4,67.5,0.5,43,46.0
504,G3,68.0,0.5,35,46.0
505,F#6,68.0,0.5,69,46.0
506,F#5,68.0,0.5,69,46.0
507,G6,68.5,0.75,66,46.0
508,G5,68.5,0.75,66,46.0
509,D3,68.5,0.5,40,46.0
510,F#3,68.5,0.5,40,46.0
511,D3,69.0,0.5,35,46.0
512,F#3,69.0,0.5,35,46.0
513,F#5,69.25,31/125,60,46.0
514,F#4,69.25,31/125,60,46.0
515,F#4,69.5,0.5,54,46.0
516,F#5,69.5,0.5,54,46.0
517,C#3,69.5,0.5,31,46.0
518,F#3,69.5,0.5,31,46.0
519,A3,69.5,0.5,31,46.0
520,A5,70.0,0.5,52,46.0
521,A4,70.0,0.5,52,46.0
522,C#3,70.0,62/125,27,46.0
523,F#3,70.0,62/125,27,46.0
524,A3,70.0,62/125,27,46.0
525,C#4,70.0,62/125,27,46.0
526,C#6,70.5,62/125,59,46.0
527,C#5,70.5,62/125,59,46.0
528,C#3,70.5,1.0,33,46.0
529,F3,70.5,1.0,33,46.0
530,G#3,70.5,1.0,33,46.0
531,C#4,70.5,1.0,33,46.0
532,C#5,71.0,1.0,62,46.0
533,C#6,71.0,1.0,62,46.0
534,F#3,71.5,62/125,29,46.0
535,A3,71.5,62/125,29,46.0
536,C#4,71.5,62/125,29,46.0
537,C#6,72.0,62/125,57,46.0
538,C#5,72.0,62/125,57,46.0
539,A3,72.0,0.5,35,46.0
540,F#3,72.0,0.5,35,46.0
541,C#4,72.0,0.5,35,46.0
542,B2,72.5,1.0,26,46.0
543,D4,72.5,0.5,34,46.0
544,C#6,72.5,0.5,58,46.0
545,C#5,72.5,0.5,58,46.0
546,G3,73.0,0.5,31,46.0
547,D5,73.0,0.5,57,46.0
548,D6,73.0,0.5,57,46.0
549,B3,73.5,0.5,39,46.0
550,G4,73.5,0.5,52,46.0
551,G5,73.5,0.5,52,46.0
552,C#2,74.0,0.5,26,46.0
553,C#3,74.0,1.0,31,46.0
554,B5,74.0,0.5,58,46.0
555,B4,74.0,0.5,58,46.0
556,F3,74.5,0.5,31,46.0
557,C#4,74.5,0.5,52,46.0
558,C#5,74.5,0.5,52,46.0
559,F4,75.0,0.5,52,46.0
560,F5,75.0,0.5,52,46.0
561,C#3,75.0,0.5,35,46.0
562,F#2,75.0,0.5,35,46.0
563,F#3,75.0,0.5,35,46.0
564,F#5,75.5,0.5,58,46.0
565,F#4,75.5,0.5,58,46.0
566,C#3,75.5,1.0,33,46.0
567,F2,75.5,1.0,33,46.0
568,G#3,75.5,1.0,33,46.0
569,C#5,76.0,0.75,62,46.0
570,C#6,76.0,0.75,62,46.0
571,C#3,76.5,0.5,30,46.0
572,F#2,76.5,0.5,30,46.0
573,F#3,76.5,0.5,30,46.0
574,G#4,76.75,0.25,45,46.0
575,G#5,76.75,0.25,45,46.0
576,C#3,77.0,1.0,20,46.0
577,A3,77.0,0.75,32,46.0
578,A5,77.0,0.5,49,46.0
579,A4,77.0,0.5,49,46.0
580,A4,77.5,0.75,50,46.0
581,A5,77.5,0.75,50,46.0
582,F3,77.75,0.25,22,46.0
583,F4,78.25,0.25,40,46.0
584,F5,78.25,0.25,40,46.0
585,F#2,78.5,0.25,26,46.0
586,C#4,79.0,0.25,22,46.0
587,A3,79.0,0.25,22,46.0
588,F#3,79.0,0.25,22,46.0
589,C#3,79.0,0.25,22,46.0
590,C#4,79.5,0.25,26,46.0
591,A3,79.5,0.25,26,46.0
592,F#3,79.5,0.25,26,46.0
593,C#3,79.5,0.25,26,46.0
594,F#2,80.0,0.25,26,46.0
595,C#4,80.5,0.25,22,46.0
596,A3,80.5,0.25,22,46.0
597,F#3,80.5,0.25,22,46.0
598,C#3,80.5,0.25,22,46.0
599,C#3,81.0,0.25,24,46.0
600,F#3,81.0,0.25,24,46.0
601,A3,81.0,0.25,24,46.0
602,C#4,81.0,0.25,24,46.0
603,C#5,81.25,0.25,44,46.0
604,C#5,81.5,123/500,44,46.0
605,F#2,81.5,0.25,26,46.0
606,C#5,81.75,62/125,44,46.0
607,C#4,82.0,0.25,22,46.0
608,A3,82.0,0.25,22,46.0
609,F#3,82.0,0.25,22,46.0
610,C#3,82.0,0.25,22,46.0
611,C#5,82.25,62/125,44,46.0
612,F#5,82.5,62/125,55,46.0
613,C#3,82.5,0.25,26,46.0
614,F#3,82.5,0.25,26,46.0
615,A3,82.5,0.25,26,46.0
616,C#4,82.5,0.25,26,46.0
617,C#5,82.75,62/125,44,46.0
618,F#5,83.0,0.5,63,46.0
619,F#2,83.0,0.25,26,46.0
620,C#5,83.25,62/125,44,46.0
621,A5,83.5,0.5,63,46.0
622,C#4,83.5,0.25,22,46.0
623,A3,83.5,0.25,22,46.0
624,F#3,83.5,0.25,22,46.0
625,C#3,83.5,0.25,22,46.0
626,C#5,83.75,62/125,48,46.0
627,C#6,84.0,62/125,68,46.0
628,F3,84.0,0.25,24,46.0
629,C#3,84.0,0.25,24,46.0
630,G#3,84.0,0.25,24,46.0
631,B3,84.0,0.25,24,46.0
632,C#4,84.0,0.25,24,46.0
633,C#5,84.25,0.25,50,46.0
634,C#6,84.5,1.0,71,46.0
635,G#2,84.5,0.25,26,46.0
636,F5,84.75,62/125,52,46.0
637,B5,84.75,62/125,52,46.0
638,D4,85.0,0.25,22,46.0
639,B3,85.0,0.25,22,46.0
640,G#3,85.0,0.25,22,46.0
641,F3,85.0,0.25,22,46.0
642,F5,85.25,0.5,40,46.0
643,B5,85.25,0.5,40,46.0
644,E6,85.5,0.25,75,46.0
645,F3,85.5,0.25,26,46.0
646,G#3,85.5,0.25,26,46.0
647,B3,85.5,0.25,26,46.0
648,D4,85.5,0.25,26,46.0
649,D6,85.75,0.25,67,46.0
650,D6,86.0,0.5,73,46.0
651,G#2,86.0,0.25,26,46.0
652,B4,86.25,62/125,44,46.0
653,F5,86.5,0.5,64,46.0
654,D4,86.5,0.25,22,46.0
655,B3,86.5,0.25,22,46.0
656,G#3,86.5,0.25,22,46.0
657,F3,86.5,0.25,22,46.0
658,B4,86.75,62/125,44,46.0
659,B5,87.0,0.5,64,46.0
660,F3,87.0,0.25,24,46.0
661,G#3,87.0,0.25,24,46.0
662,B3,87.0,0.25,24,46.0
663,D4,87.0,0.25,24,46.0
664,B4,87.25,0.25,44,46.0
665,B5,87.5,0.5,74,46.0
666,B4,87.5,0.25,44,46.0
667,G#2,87.5,0.25,26,46.0
668,F4,87.75,62/125,44,46.0
669,B4,88.0,0.5,55,46.0
670,D4,88.0,0.25,22,46.0
671,B3,88.0,0.25,22,46.0
672,G#3,88.0,0.25,22,46.0
673,F3,88.0,0.25,22,46.0
674,F4,88.25,62/125,39,46.0
675,C#5,88.5,0.25,63,46.0
676,F3,88.5,0.25,26,46.0
677,G#3,88.5,0.25,26,46.0
678,B3,88.5,0.25,26,46.0
679,D4,88.5,0.25,26,46.0
680,F4,88.75,62/125,37,46.0
681,D5,88.75,31/125,65,46.0
682,G#2,89.0,0.25,26,46.0
683,B4,89.0,0.5,53,46.0
684,D5,89.0,0.5,53,46.0
685,F4,89.25,62/125,40,46.0
686,B4,89.25,62/125,40,46.0
687,C#5,89.5,0.75,63,46.0
688,C#4,89.5,0.25,22,46.0
689,B3,89.5,0.25,22,46.0
690,G#3,89.5,0.25,22,46.0
691,F3,89.5,0.25,22,46.0
692,B4,89.75,62/125,40,46.0
693,F4,89.75,62/125,40,46.0
694,C#3,90.0,0.25,24,46.0
695,F#3,90.0,0.25,24,46.0
696,A3,90.0,0.25,24,46.0
697,C#4,90.0,0.25,24,46.0
698,F4,90.25,0.25,52,46.0
699,B4,90.25,0.25,52,46.0
700,B4,90.5,0.25,63,46.0
701,F#2,90.5,0.25,26,46.0
702,A4,90.75,0.5,54,46.0
703,C#4,91.0,0.25,22,46.0
704,A3,91.0,0.25,22,46.0
705,F#3,91.0,0.25,22,46.0
706,C#3,91.0,0.25,22,46.0
707,C#5,91.25,0.5,63,46.0
708,C#3,91.5,0.25,26,46.0
709,F#3,91.5,0.25,26,46.0
710,A3,91.5,0.25,26,46.0
711,C#4,91.5,0.25,26,46.0
712,F#5,91.75,417/1000,67,46.0
713,F#2,92.0,0.25,26,46.0
714,A5,92.167,167/1000,66,46.0
715,C#6,92.333,333/1000,67,46.0
716,C#4,92.5,0.25,22,46.0
717,A3,92.5,0.25,22,46.0
718,F#3,92.5,0.25,22,46.0
719,C#3,92.5,0.25,22,46.0
720,F#6,92.667,167/1000,70,46.0
721,G#6,92.833,167/1000,71,46.0
722,A6,93.0,167/1000,75,46.0
723,F3,93.0,0.25,26,46.0
724,C#3,93.0,0.25,26,46.0
725,G#3,93.0,0.25,26,46.0
726,B3,93.0,0.25,26,46.0
727,C#4,93.0,0.25,26,46.0
728,F#6,93.167,167/1000,73,46.0
729,C#6,93.333,167/1000,63,46.0
730,C#6,93.5,0.125,68,46.0
731,G#2,93.5,0.25,30,46.0
732,D6,93.625,0.125,63,46.0
733,C#6,93.75,0.062,59,46.0
734,D6,93.812,0.062,60,46.0
735,C#6,93.875,0.062,62,46.0
736,D6,93.938,0.062,63,46.0
737,C#6,94.0,0.062,64,46.0
738,D4,94.0,0.25,26,46.0
739,B3,94.0,0.25,26,46.0
740,G#3,94.0,0.25,26,46.0
741,F3,94.0,0.25,26,46.0
742,D6,94.062,0.062,65,46.0
743,C#6,94.125,0.125,66,46.0
744,C6,94.25,0.125,69,46.0
745,C#6,94.375,0.125,71,46.0
746,E6,94.5,167/1000,74,46.0
747,F3,94.5,0.25,30,46.0
748,G#3,94.5,0.25,30,46.0
749,B3,94.5,0.25,30,46.0
750,D4,94.5,0.25,30,46.0
751,C#6,94.667,167/1000,69,46.0
752,D6,94.833,33/200,70,46.0
753,D6,95.0,167/1000,76,46.0
754,G#2,95.0,0.25,29,46.0
755,E5,95.167,167/1000,62,46.0
756,F5,95.333,167/1000,62,46.0
757,F5,95.5,167/1000,70,46.0
758,D4,95.5,0.25,23,46.0
759,B3,95.5,0.25,23,46.0
760,G#3,95.5,0.25,23,46.0
761,F3,95.5,0.25,23,46.0
762,D6,95.667,167/1000,59,46.0
763,C#6,95.833,33/200,60,46.0
764,C#6,96.0,167/1000,67,46.0
765,F3,96.0,0.25,24,46.0
766,G#3,96.0,0.25,24,46.0
767,B3,96.0,0.25,24,46.0
768,D4,96.0,0.25,24,46.0
769,B-5,96.167,167/1000,58,46.0
770,B5,96.333,33/200,53,46.0
771,B5,96.5,0.125,59,46.0
772,G#2,96.5,0.25,29,46.0
773,F4,96.625,0.125,46,46.0
774,F#4,96.75,0.125,47,46.0
775,G#4,96.875,0.125,48,46.0
776,A4,97.0,0.125,49,46.0
777,D4,97.0,0.25,26,46.0
778,B3,97.0,0.25,26,46.0
779,G#3,97.0,0.25,26,46.0
780,F3,97.0,0.25,26,46.0
781,B-4,97.125,0.125,50,46.0
782,B4,97.25,0.125,51,46.0
783,C5,97.375,0.125,52,46.0
784,C#5,97.5,167/1000,54,46.0
785,F3,97.5,0.25,30,46.0
786,G#3,97.5,0.25,30,46.0
787,B3,97.5,0.25,30,46.0
788,D4,97.5,0.25,30,46.0
789,D5,97.667,167/1000,55,46.0
790,E-5,97.833,167/1000,57,46.0
791,E5,98.0,167/1000,58,46.0
792,G#2,98.0,0.25,32,46.0
793,C#5,98.167,167/1000,60,46.0
794,D5,98.333,33/200,61,46.0
795,D5,98.5,0.125,64,46.0
796,C#4,98.5,0.25,27,46.0
797,B3,98.5,0.25,27,46.0
798,G#3,98.5,0.25,27,46.0
799,F3,98.5,0.25,27,46.0
800,B5,98.625,0.125,62,46.0
801,G#5,98.75,0.125,56,46.0
802,F5,98.875,0.125,56,46.0
803,D5,99.0,0.125,62,46.0
804,F#3,99.0,0.25,31,46.0
805,A3,99.0,0.25,31,46.0
806,C#4,99.0,0.25,31,46.0
807,C5,99.125,0.125,57,46.0
808,D5,99.25,0.125,55,46.0
809,C#5,99.375,0.125,55,46.0
810,C#5,99.5,0.5,57,46.0
811,A2,99.5,0.25,32,46.0
812,F#4,99.75,62/125,48,46.0
813,F#5,100.0,0.75,62,46.0
814,C#4,100.0,0.25,27,46.0
815,A3,100.0,0.25,27,46.0
816,F#3,100.0,0.25,27,46.0
817,F#4,100.25,0.5,48,46.0
818,F3,100.5,0.25,32,46.0
819,G#3,100.5,0.25,32,46.0
820,B3,100.5,0.25,32,46.0
821,D4,100.5,0.25,32,46.0
822,C#5,100.75,0.25,56,46.0
823,D5,101.0,1.0,62,46.0
824,G#2,101.0,0.25,32,46.0
825,B4,101.25,62/125,40,46.0
826,F4,101.25,62/125,40,46.0
827,C#4,101.5,0.25,27,46.0
828,B3,101.5,0.25,27,46.0
829,G#3,101.5,0.25,27,46.0
830,F3,101.5,0.25,27,46.0
831,F4,101.75,62/125,40,46.0
832,B4,101.75,62/125,40,46.0
833,C#5,102.0,0.5,56,46.0
834,F#3,102.0,0.25,31,46.0
835,A3,102.0,0.25,31,46.0
836,C#4,102.0,0.25,31,46.0
837,F4,102.25,0.25,40,46.0
838,B4,102.25,0.25,40,46.0
839,C#5,102.5,167/1000,62,46.0
840,A2,102.5,0.25,32,46.0
841,C#6,102.667,167/1000,57,46.0
842,G#5,102.833,167/1000,57,46.0
843,B5,103.0,0.125,63,46.0
844,C#3,103.0,0.25,27,46.0
845,C#4,103.0,0.25,27,46.0
846,A3,103.0,0.25,27,46.0
847,F#3,103.0,0.25,27,46.0
848,A5,103.125,0.125,65,46.0
849,F5,103.25,0.125,68,46.0
850,F#5,103.375,0.125,70,46.0
851,G#5,103.5,0.125,71,46.0
852,C#3,103.5,0.25,31,46.0
853,F3,103.5,0.25,31,46.0
854,G#3,103.5,0.25,31,46.0
855,B3,103.5,0.25,31,46.0
856,C#4,103.5,0.25,31,46.0
857,F#5,103.625,0.125,70,46.0
858,A5,103.75,83/1000,68,46.0
859,F#5,103.833,83/1000,67,46.0
860,C#5,103.919,83/1000,65,46.0
861,E5,104.0,0.25,66,46.0
862,G#2,104.0,0.25,32,46.0
863,E-5,104.25,0.25,62,46.0
864,B4,104.25,62/125,48,46.0
865,F4,104.25,62/125,48,46.0
866,D5,104.5,0.25,62,46.0
867,C#4,104.5,0.25,27,46.0
868,B3,104.5,0.25,27,46.0
869,G#3,104.5,0.25,27,46.0
870,D5,104.75,62/125,49,46.0
871,B4,104.75,62/125,49,46.0
872,F4,104.75,62/125,49,46.0
873,A3,105.0,0.25,34,46.0
874,C#4,105.0,0.25,34,46.0
875,F4,105.25,0.25,49,46.0
876,B4,105.25,0.25,49,46.0
877,C#5,105.25,0.25,49,46.0
878,C#5,105.5,0.75,60,46.0
879,A2,105.5,0.25,35,46.0
880,F#4,105.75,0.5,40,46.0
881,C#4,106.0,0.25,32,46.0
882,B-3,106.0,0.25,32,46.0
883,F#5,106.25,62/125,62,46.0
884,B-3,106.5,0.25,38,46.0
885,C#4,106.5,0.25,38,46.0
886,F#5,106.75,99/100,63,46.0
887,B-2,107.0,0.25,40,46.0
888,F#4,107.25,0.5,40,46.0
889,E-4,107.5,0.25,36,46.0
890,B3,107.5,0.25,36,46.0
891,F#5,107.75,62/125,65,46.0
892,B3,108.0,0.25,42,46.0
893,E-4,108.0,0.25,42,46.0
894,F#5,108.25,0.25,67,46.0
895,F#5,108.5,0.75,67,46.0
896,B2,108.5,0.25,42,46.0
897,B4,108.75,0.5,45,46.0
898,E4,109.0,0.25,38,46.0
899,C#4,109.0,0.25,38,46.0
900,B5,109.25,62/125,69,46.0
901,C#4,109.5,0.25,45,46.0
902,E4,109.5,0.25,45,46.0
903,B5,109.75,99/100,71,46.0
904,C#3,110.0,0.25,44,46.0
905,B4,110.25,0.5,61,46.0
906,F#4,110.5,0.25,40,46.0
907,E-4,110.5,0.25,40,46.0
908,B4,110.75,62/125,68,46.0
909,B5,110.75,62/125,68,46.0
910,F#4,111.0,0.25,45,46.0
911,E-4,111.0,0.25,45,46.0
912,E-3,111.25,0.25,41,46.0
913,B4,111.25,0.25,69,46.0
914,B5,111.25,0.25,69,46.0
915,B4,111.5,123/500,69,46.0
916,B5,111.5,123/500,69,46.0
917,G4,111.5,0.25,45,46.0
918,E4,111.5,0.25,45,46.0
919,E3,111.75,0.25,42,46.0
920,B4,111.75,62/125,70,46.0
921,B5,111.75,62/125,70,46.0
922,A4,112.0,0.25,46,46.0
923,F#4,112.0,0.25,46,46.0
924,F#3,112.25,0.25,41,46.0
925,B4,112.25,62/125,71,46.0
926,B5,112.25,62/125,71,46.0
927,G4,112.5,0.25,52,46.0
928,B4,112.5,0.25,52,46.0
929,B4,112.75,31/125,66,46.0
930,B5,112.75,62/125,78,46.0
931,G3,112.75,0.25,44,46.0
932,G#4,113.0,0.25,52,46.0
933,B4,113.0,0.25,52,46.0
934,G#3,113.25,0.25,51,46.0
935,E6,113.25,62/125,72,46.0
936,B5,113.25,62/125,72,46.0
937,E5,113.25,62/125,72,46.0
938,A4,113.5,0.25,57,46.0
939,C#5,113.5,0.25,57,46.0
940,A3,113.75,0.25,49,46.0
941,D6,113.75,62/125,74,46.0
942,E6,113.75,62/125,74,46.0
943,B5,113.75,62/125,74,46.0
944,E5,113.75,62/125,74,46.0
945,A4,114.0,0.5,44,46.0
946,C#5,114.0,0.5,44,46.0
947,E6,114.25,31/125,72,46.0
948,C#6,114.25,31/125,72,46.0
949,A5,114.25,31/125,72,46.0
950,E5,114.25,31/125,72,46.0
951,E5,114.5,0.5,56,46.0
952,E6,114.5,0.25,73,46.0
953,C#4,114.5,0.5,40,46.0
954,A3,114.5,1.0,34,46.0
955,G#5,114.75,0.25,57,46.0
956,E5,115.0,0.5,54,46.0
957,B5,115.0,0.25,64,46.0
958,E-4,115.0,0.75,35,46.0
959,A5,115.25,0.25,60,46.0
960,F#5,115.5,0.75,51,46.0
961,G#5,115.5,0.25,60,46.0
962,A3,115.5,1.5,33,46.0
963,A5,115.75,0.25,60,46.0
964,E-4,115.75,0.25,32,46.0
965,C6,116.0,0.5,69,46.0
966,F#4,116.0,0.25,38,46.0
967,F#5,116.25,0.25,60,46.0
968,E4,116.25,0.25,34,46.0
969,A5,116.5,0.75,65,46.0
970,B5,116.5,1.0,55,46.0
971,E-4,116.5,0.25,39,46.0
972,G5,116.75,0.25,57,46.0
973,E4,116.75,0.25,35,46.0
974,F#5,117.0,0.25,60,46.0
975,A3,117.0,1.5,34,46.0
976,D4,117.0,0.5,48,46.0
977,G5,117.25,0.25,55,46.0
978,F5,117.5,0.5,56,46.0
979,B5,117.5,0.5,55,46.0
980,C#4,117.5,1.25,40,46.0
981,G#5,117.75,0.25,57,46.0
982,E5,118.0,1.25,54,46.0
983,B-5,118.0,0.25,64,46.0
984,A5,118.25,0.25,60,46.0
985,G#5,118.5,0.25,60,46.0
986,A3,118.5,1.5,33,46.0
987,A5,118.75,0.25,60,46.0
988,C#4,118.75,0.25,32,46.0
989,B5,119.0,0.5,69,46.0
990,E4,119.0,0.25,38,46.0
991,E5,119.25,0.25,60,46.0
992,D4,119.25,0.25,34,46.0
993,G5,119.5,0.25,65,46.0
994,A5,119.5,1.0,55,46.0
995,C#4,119.5,0.25,39,46.0
996,F#5,119.75,0.25,57,46.0
997,D4,119.75,0.25,35,46.0
998,F5,120.0,0.25,60,46.0
999,A3,120.0,1.0,33,46.0
1000,E-4,120.0,0.5,39,46.0
1001,C4,120.0,0.5,39,46.0
1002,F#5,120.25,0.25,55,46.0
1003,E-5,120.5,0.5,50,46.0
1004,A5,120.5,0.25,55,46.0
1005,E4,120.5,0.5,36,46.0
1006,C#4,120.5,0.5,36,46.0
1007,F#5,120.75,0.25,53,46.0
1008,E5,121.0,0.5,51,46.0
1009,A5,121.0,0.25,61,46.0
1010,E-4,121.0,0.25,39,46.0
1011,B-3,121.0,0.5,33,46.0
1012,G5,121.25,0.25,55,46.0
1013,E4,121.25,31/125,39,46.0
1014,C#5,121.5,0.5,51,46.0
1015,F#5,121.5,0.25,61,46.0
1016,E4,121.5,0.25,45,46.0
1017,B-3,121.5,0.5,38,46.0
1018,G5,121.75,31/125,55,46.0
1019,C#4,121.75,0.25,39,46.0
1020,G5,122.0,0.25,63,46.0
1021,C#5,122.0,0.5,53,46.0
1022,E4,122.0,0.25,44,46.0
1023,B3,122.0,0.5,37,46.0
1024,E5,122.25,0.25,57,46.0
1025,D4,122.25,0.25,39,46.0
1026,D5,122.5,0.5,56,46.0
1027,G5,122.5,0.25,67,46.0
1028,C#4,122.5,0.25,43,46.0
1029,G#3,122.5,0.5,36,46.0
1030,F#5,122.75,0.25,58,46.0
1031,D4,122.75,31/125,39,46.0
1032,E5,123.0,0.25,68,46.0
1033,B4,123.0,0.5,57,46.0
1034,G#3,123.0,0.5,42,46.0
1035,D4,123.0,0.5,42,46.0
1036,F5,123.25,31/125,61,46.0
1037,F5,123.5,0.5,71,46.0
1038,B4,123.5,0.25,57,46.0
1039,C#4,123.5,0.5,38,46.0
1040,G3,123.5,0.5,38,46.0
1041,F4,123.75,0.25,61,46.0
1042,B-4,124.0,0.25,68,46.0
1043,E4,124.0,0.5,62,46.0
1044,E5,124.0,0.5,62,46.0
1045,A3,124.0,0.5,35,46.0
1046,F#3,124.0,0.5,35,46.0
1047,D4,124.0,0.5,35,46.0
1048,A4,124.25,0.25,59,46.0
1049,G#4,124.5,0.25,69,46.0
1050,E3,124.5,0.25,45,46.0
1051,A2,124.5,0.5,38,46.0
1052,F#4,124.5,0.5,64,46.0
1053,D5,124.5,0.5,64,46.0
1054,A4,124.75,0.25,60,46.0
1055,C#3,124.75,0.25,39,46.0
1056,G5,125.0,0.5,74,46.0
1057,C#5,125.0,0.25,67,46.0
1058,E3,125.0,0.25,57,46.0
1059,B2,125.0,0.5,43,46.0
1060,E5,125.25,0.25,62,46.0
1061,D3,125.25,0.25,48,46.0
1062,C#3,125.5,0.25,57,46.0
1063,G#2,125.5,0.5,48,46.0
1064,F#5,125.5,0.5,66,46.0
1065,D5,125.5,0.5,66,46.0
1066,D3,125.75,0.25,53,46.0
1067,B5,126.0,0.5,69,46.0
1068,F2,126.0,0.5,51,46.0
1069,D3,126.0,0.25,67,46.0
1070,F5,126.0,0.5,58,46.0
1071,B4,126.0,0.5,58,46.0
1072,G#2,126.25,0.25,59,46.0
1073,B5,126.5,0.5,69,46.0
1074,F#2,126.5,0.75,53,46.0
1075,B2,126.5,0.25,69,46.0
1076,B4,126.5,0.5,65,46.0
1077,G#5,126.5,0.5,65,46.0
1078,D5,126.5,0.5,65,46.0
1079,A2,126.75,0.25,58,46.0
1080,G#2,127.0,0.25,69,46.0
1081,D5,127.0,0.5,66,46.0
1082,A4,127.0,0.5,66,46.0
1083,A5,127.0,0.5,66,46.0
1084,F2,127.25,0.25,52,46.0
1085,A2,127.25,0.25,52,46.0
1086,D5,127.5,0.5,80,46.0
1087,D6,127.5,1.0,91,46.0
1088,E2,127.5,0.25,62,46.0
1089,A2,127.5,0.25,62,46.0
1090,G#1,127.75,0.25,61,46.0
1091,B-1,128.0,0.25,72,46.0
1092,D5,128.0,0.5,82,46.0
1093,G5,128.0,0.5,82,46.0
1094,A1,128.25,0.25,63,46.0
1095,G#1,128.5,0.25,72,46.0
1096,E5,128.5,0.5,76,46.0
1097,C#5,128.5,0.5,76,46.0
1098,C#6,128.5,0.5,76,46.0
1099,G5,128.5,0.5,76,46.0
1100,A1,128.75,229/1000,62,46.0
1101,A1,129.0,0.25,81,46.0
1102,C#6,129.0,0.5,83,46.0
1103,G5,129.0,0.5,83,46.0
1104,G6,129.0,0.5,83,46.0
1105,E6,129.0,0.5,83,46.0
1106,E3,129.25,0.25,43,46.0
1107,C#3,129.5,0.25,47,46.0
1108,G3,129.75,0.25,43,46.0
1109,E3,130.0,0.25,48,46.0
1110,B-3,130.25,0.25,43,46.0
1111,C#6,130.25,0.75,83,46.0
1112,G5,130.25,0.75,83,46.0
1113,G6,130.25,0.75,83,46.0
1114,E6,130.25,0.75,83,46.0
1115,G#3,130.5,0.25,47,46.0
1116,A3,130.75,0.25,43,46.0
1117,G4,131.0,0.25,50,46.0
1118,E3,131.0,0.25,46,46.0
1119,E4,131.25,0.25,54,46.0
1120,B3,131.25,0.25,39,46.0
1121,B-4,131.5,0.25,45,46.0
1122,A3,131.5,0.25,45,46.0
1123,G#4,131.75,0.25,52,46.0
1124,G3,131.75,0.25,40,46.0
1125,A4,132.0,0.25,45,46.0
1126,D3,132.0,2.5,32,46.0
1127,F#3,132.0,0.25,38,46.0
1128,E4,132.25,0.25,50,46.0
1129,B3,132.25,0.25,33,46.0
1130,B4,132.5,0.25,45,46.0
1131,G#3,132.5,0.25,38,46.0
1132,A4,132.75,0.25,49,46.0
1133,A3,132.75,0.25,34,46.0
1134,G4,133.0,0.25,45,46.0
1135,F#3,133.0,0.25,38,46.0
1136,F#4,133.25,0.5,49,46.0
1137,B3,133.25,0.25,33,46.0
1138,G#3,133.5,0.25,38,46.0
1139,A3,133.75,0.25,33,46.0
1140,F#3,134.0,0.25,32,46.0
1141,D2,134.25,1.5,58,46.0
1142,B3,134.25,0.25,28,46.0
1143,D3,134.5,0.5,27,46.0
1144,F#3,134.5,0.25,32,46.0
1145,A3,134.75,0.25,28,46.0
1146,C#3,135.0,0.5,32,46.0
1147,E3,135.0,0.25,38,46.0
1148,A3,135.25,0.25,33,46.0
1149,D3,135.5,0.5,32,46.0
1150,F#3,135.5,0.25,38,46.0
1151,D2,135.75,0.25,52,46.0
1152,A3,135.75,0.25,34,46.0
1153,A1,136.0,0.25,46,46.0
1154,E3,136.0,62/125,34,46.0
1155,G3,136.0,0.25,41,46.0
1156,A1,136.25,187/125,52,46.0
1157,A3,136.25,0.25,36,46.0
1158,E3,136.5,0.5,34,46.0
1159,G3,136.5,0.25,40,46.0
1160,A3,136.75,0.25,34,46.0
1161,D3,137.0,0.5,32,46.0
1162,F#3,137.0,0.25,38,46.0
1163,A3,137.25,0.25,32,46.0
1164,C#3,137.5,0.5,31,46.0
1165,E3,137.5,0.25,37,46.0
1166,A1,137.75,249/250,52,46.0
1167,A3,137.75,0.25,34,46.0
1168,D3,138.0,2.5,32,46.0
1169,F#3,138.0,0.25,38,46.0
1170,B3,138.25,0.25,33,46.0
1171,G#3,138.5,0.25,38,46.0
1172,A1,138.75,0.5,52,46.0
1173,A3,138.75,0.25,34,46.0
1174,F#3,139.0,0.25,38,46.0
1175,F#1,139.25,0.5,52,46.0
1176,B3,139.25,0.25,33,46.0
1177,G#3,139.5,0.25,38,46.0
1178,A3,139.75,0.25,33,46.0
1179,F#3,140.0,0.25,38,46.0
1180,B3,140.25,0.25,32,46.0
1181,D6,140.25,1.5,57,46.0
1182,D5,140.25,1.5,57,46.0
1183,D3,140.5,0.5,29,46.0
1184,F#3,140.5,0.25,34,46.0
1185,A3,140.75,0.25,29,46.0
1186,C#3,141.0,0.5,27,46.0
1187,E3,141.0,0.25,32,46.0
1188,A3,141.25,0.25,28,46.0
1189,D3,141.5,0.5,28,46.0
1190,F#3,141.5,0.25,34,46.0
1191,A3,141.75,0.25,31,46.0
1192,D6,141.75,0.25,52,46.0
1193,D5,141.75,0.25,52,46.0
1194,E3,142.0,62/125,32,46.0
1195,G3,142.0,0.25,39,46.0
1196,A5,142.0,31/125,45,46.0
1197,A4,142.0,31/125,45,46.0
1198,A3,142.25,0.25,35,46.0
1199,A5,142.25,187/125,52,46.0
1200,A4,142.25,187/125,52,46.0
1201,E3,142.5,0.5,34,46.0
1202,G3,142.5,0.25,40,46.0
1203,A3,142.75,0.25,34,46.0
1204,D3,143.0,0.5,32,46.0
1205,F#3,143.0,0.25,38,46.0
1206,A3,143.25,0.25,32,46.0
1207,C#3,143.5,0.5,31,46.0
1208,E3,143.5,0.25,37,46.0
1209,A3,143.75,0.25,34,46.0
1210,A5,143.75,249/250,52,46.0
1211,A4,143.75,249/250,52,46.0
1212,D3,144.0,2.5,32,46.0
1213,F#3,144.0,169/1000,38,46.0
1214,B3,144.169,167/1000,33,46.0
1215,A3,144.333,167/1000,33,46.0
1216,G#3,144.5,169/1000,38,46.0
1217,B3,144.667,167/1000,34,46.0
1218,A5,144.75,0.5,52,46.0
1219,A4,144.75,0.5,52,46.0
1220,A3,144.833,0.125,34,46.0
1221,F#3,145.0,169/1000,38,46.0
1222,B3,145.169,167/1000,33,46.0
1223,F#5,145.25,0.5,49,46.0
1224,F#4,145.25,0.5,49,46.0
1225,A3,145.333,0.125,33,46.0
1226,G#3,145.5,169/1000,38,46.0
1227,B3,145.667,167/1000,33,46.0
1228,A3,145.833,0.125,33,46.0
1229,F#3,146.0,169/1000,38,46.0
1230,B3,146.169,167/1000,34,46.0
1231,D2,146.25,249/250,58,46.0
1232,A3,146.333,0.125,34,46.0
1233,D3,146.5,0.5,32,46.0
1234,F#3,146.5,169/1000,38,46.0
1235,B-3,146.667,167/1000,34,46.0
1236,A3,146.833,0.125,34,46.0
1237,C#3,147.0,0.5,32,46.0
1238,E3,147.0,169/1000,38,46.0
1239,B3,147.167,167/1000,33,46.0
1240,D2,147.25,62/125,56,46.0
1241,A3,147.333,0.125,33,46.0
1242,D3,147.5,0.5,32,46.0
1243,F#3,147.5,169/1000,38,46.0
1244,B3,147.667,167/1000,34,46.0
1245,D2,147.75,167/1000,56,46.0
1246,A3,147.833,0.125,34,46.0
1247,C#2,147.917,167/1000,50,46.0
1248,E3,148.0,62/125,34,46.0
1249,G3,148.0,169/1000,41,46.0
1250,D2,148.083,0.125,50,46.0
1251,B3,148.167,167/1000,36,46.0
1252,A1,148.25,249/250,52,46.0
1253,A3,148.333,0.125,36,46.0
1254,E3,148.5,0.5,34,46.0
1255,G3,148.5,169/1000,40,46.0
1256,B3,148.667,167/1000,34,46.0
1257,A3,148.833,0.125,34,46.0
1258,D3,149.0,0.5,32,46.0
1259,F#3,149.0,169/1000,38,46.0
1260,B3,149.167,167/1000,32,46.0
1261,A1,149.25,249/250,52,46.0
1262,A3,149.333,0.125,32,46.0
1263,C#3,149.5,0.5,31,46.0
1264,E3,149.5,169/1000,37,46.0
1265,B3,149.667,167/1000,34,46.0
1266,A3,149.833,0.125,34,46.0
1267,D3,150.0,2.5,32,46.0
1268,F#3,150.0,169/1000,38,46.0
1269,B3,150.169,167/1000,39,46.0
1270,A1,150.25,1.0,52,46.0
1271,A3,150.333,167/1000,39,46.0
1272,G#3,150.5,169/1000,46,46.0
1273,B3,150.667,167/1000,41,46.0
1274,A3,150.833,0.125,42,46.0
1275,F#3,151.0,169/1000,47,46.0
1276,B3,151.169,167/1000,41,46.0
1277,F#1,151.25,0.5,52,46.0
1278,A3,151.333,0.125,42,46.0
1279,G#3,151.5,169/1000,49,46.0
1280,B3,151.667,167/1000,42,46.0
1281,A3,151.833,0.125,43,46.0
1282,F#3,152.0,169/1000,50,46.0
1283,B3,152.169,167/1000,45,46.0
1284,D6,152.25,249/250,66,46.0
1285,D5,152.25,249/250,66,46.0
1286,A3,152.333,0.125,45,46.0
1287,D3,152.5,0.5,43,46.0
1288,F#3,152.5,169/1000,51,46.0
1289,B-3,152.667,167/1000,50,46.0
1290,A3,152.833,0.125,50,46.0
1291,C#3,153.0,0.5,44,46.0
1292,E3,153.0,169/1000,53,46.0
1293,B3,153.167,167/1000,46,46.0
1294,D5,153.25,62/125,66,46.0
1295,D6,153.25,62/125,66,46.0
1296,A3,153.333,0.125,46,46.0
1297,D3,153.5,0.5,45,46.0
1298,F#3,153.5,169/1000,54,46.0
1299,B3,153.667,167/1000,48,46.0
1300,D6,153.75,169/1000,64,46.0
1301,D5,153.75,169/1000,64,46.0
1302,A3,153.833,0.125,49,46.0
1303,C#5,153.917,167/1000,56,46.0
1304,C#6,153.917,167/1000,56,46.0
1305,E3,154.0,0.5,50,46.0
1306,G3,154.0,169/1000,60,46.0
1307,D5,154.083,0.125,56,46.0
1308,D6,154.083,0.125,56,46.0
1309,B3,154.167,167/1000,53,46.0
1310,A5,154.25,499/500,63,46.0
1311,A4,154.25,499/500,63,46.0
1312,A3,154.333,0.125,54,46.0
1313,E3,154.5,0.5,50,46.0
1314,G3,154.5,169/1000,60,46.0
1315,B3,154.667,167/1000,51,46.0
1316,A3,154.833,0.125,51,46.0
1317,D3,155.0,0.5,49,46.0
1318,F#3,155.0,169/1000,58,46.0
1319,B3,155.167,167/1000,49,46.0
1320,A4,155.25,249/250,66,46.0
1321,A5,155.25,249/250,66,46.0
1322,A3,155.333,0.125,50,46.0
1323,C#3,155.5,0.5,49,46.0
1324,E3,155.5,169/1000,58,46.0
1325,A3,155.667,167/1000,53,46.0
1326,G3,155.833,0.125,40,46.0
1327,F#3,156.0,167/1000,40,46.0
1328,D3,156.0,1.5,50,46.0
1329,A3,156.167,167/1000,36,46.0
1330,A4,156.25,833/1000,66,46.0
1331,A5,156.25,833/1000,66,46.0
1332,G3,156.333,167/1000,36,46.0
1333,F#3,156.5,167/1000,40,46.0
1334,G3,156.667,167/1000,38,46.0
1335,A3,156.833,167/1000,38,46.0
1336,B3,157.0,167/1000,40,46.0
1337,G4,157.083,167/1000,48,46.0
1338,G5,157.083,167/1000,48,46.0
1339,C#4,157.167,167/1000,37,46.0
1340,F#4,157.25,0.5,50,46.0
1341,F#5,157.25,0.5,50,46.0
1342,D4,157.333,167/1000,37,46.0
1343,E4,157.5,0.5,40,46.0
1344,E3,157.5,1.5,50,46.0
1345,F#4,157.75,167/1000,40,46.0
1346,F#5,157.75,1.0,50,46.0
1347,E5,157.917,167/1000,40,46.0
1348,E4,158.0,167/1000,40,46.0
1349,D5,158.083,167/1000,40,46.0
1350,D4,158.167,167/1000,36,46.0
1351,C#5,158.25,167/1000,50,46.0
1352,C#4,158.333,167/1000,36,46.0
1353,B4,158.417,167/1000,41,46.0
1354,B3,158.5,167/1000,40,46.0
1355,A4,158.583,167/1000,43,46.0
1356,A3,158.667,167/1000,35,46.0
1357,G4,158.75,167/1000,50,46.0
1358,G5,158.75,1.5,50,46.0
1359,G3,158.833,167/1000,35,46.0
1360,B-4,158.917,167/1000,42,46.0
1361,C#4,159.0,167/1000,40,46.0
1362,F#3,159.0,1.5,50,46.0
1363,A4,159.083,167/1000,42,46.0
1364,D4,159.167,167/1000,36,46.0
1365,G4,159.25,167/1000,50,46.0
1366,C#4,159.333,167/1000,37,46.0
1367,A4,159.417,167/1000,40,46.0
1368,A3,159.5,167/1000,42,46.0
1369,B4,159.583,167/1000,40,46.0
1370,B3,159.667,167/1000,40,46.0
1371,C#5,159.75,167/1000,50,46.0
1372,C4,159.833,167/1000,41,46.0
1373,D5,159.917,167/1000,41,46.0
1374,D4,160.0,167/1000,44,46.0
1375,E5,160.083,167/1000,41,46.0
1376,E4,160.167,167/1000,41,46.0
1377,A4,160.25,0.5,50,46.0
1378,A5,160.25,0.5,50,46.0
1379,F#4,160.333,167/1000,41,46.0
1380,G4,160.5,667/1000,46,46.0
1381,G3,160.5,1.5,57,46.0
1382,A4,160.75,167/1000,42,46.0
1383,A5,160.75,1.0,52,46.0
1384,G5,160.917,167/1000,42,46.0
1385,F#5,161.083,167/1000,43,46.0
1386,F#4,161.167,167/1000,43,46.0
1387,E5,161.25,167/1000,55,46.0
1388,E4,161.333,167/1000,44,46.0
1389,D5,161.417,167/1000,45,46.0
1390,D4,161.5,167/1000,50,46.0
1391,C5,161.583,167/1000,48,46.0
1392,C4,161.667,167/1000,44,46.0
1393,B4,161.75,167/1000,57,46.0
1394,B5,161.75,1.5,57,46.0
1395,B3,161.833,167/1000,44,46.0
1396,D5,161.917,167/1000,48,46.0
1397,E4,162.0,167/1000,52,46.0
1398,A3,162.0,1.0,65,46.0
1399,C5,162.083,167/1000,49,46.0
1400,C#4,162.167,167/1000,47,46.0
1401,B4,162.25,167/1000,60,46.0
1402,D4,162.333,167/1000,47,46.0
1403,C5,162.417,167/1000,48,46.0
1404,E4,162.5,167/1000,54,46.0
1405,D5,162.583,167/1000,49,46.0
1406,F#4,162.667,167/1000,51,46.0
1407,E5,162.75,167/1000,62,46.0
1408,G4,162.833,167/1000,52,46.0
1409,F#5,162.917,167/1000,51,46.0
1410,B3,163.0,0.5,70,46.0
1411,F#4,163.0,167/1000,56,46.0
1412,G5,163.083,167/1000,52,46.0
1413,E4,163.167,167/1000,52,46.0
1414,C#6,163.25,0.5,65,46.0
1415,G5,163.25,167/1000,52,46.0
1416,D4,163.333,167/1000,52,46.0
1417,G5,163.417,167/1000,53,46.0
1418,B-4,163.5,167/1000,58,46.0
1419,C#4,163.5,1.0,72,46.0
1420,F#5,163.583,167/1000,54,46.0
1421,E4,163.667,167/1000,52,46.0
1422,E5,163.75,167/1000,54,46.0
1423,F#4,163.833,167/1000,53,46.0
1424,D5,163.917,167/1000,54,46.0
1425,G4,164.0,167/1000,60,46.0
1426,C#5,164.083,167/1000,55,46.0
1427,A4,164.167,167/1000,57,46.0
1428,D6,164.25,0.5,70,46.0
1429,D5,164.25,167/1000,70,46.0
1430,B-4,164.333,167/1000,58,46.0
1431,E5,164.417,167/1000,57,46.0
1432,E-4,164.5,0.5,77,46.0
1433,A4,164.5,167/1000,62,46.0
1434,F#5,164.583,167/1000,61,46.0
1435,G4,164.667,167/1000,57,46.0
1436,E5,164.75,167/1000,72,46.0
1437,E6,164.75,1.0,77,46.0
1438,F#4,164.833,167/1000,58,46.0
1439,B-5,164.917,167/1000,61,46.0
1440,G4,165.0,167/1000,58,46.0
1441,E4,165.0,0.5,72,46.0
1442,A5,165.083,167/1000,62,46.0
1443,B-4,165.167,167/1000,52,46.0
1444,G5,165.25,167/1000,75,46.0
1445,C#5,165.333,167/1000,53,46.0
1446,F#5,165.417,167/1000,60,46.0
1447,F#4,165.5,0.5,50,46.0
1448,C5,165.5,167/1000,51,46.0
1449,E5,165.583,167/1000,61,46.0
1450,B4,165.667,167/1000,48,46.0
1451,F#5,165.75,167/1000,77,46.0
1452,F#6,165.75,0.5,83,46.0
1453,C5,165.833,167/1000,49,46.0
1454,G5,165.917,167/1000,63,46.0
1455,G4,166.0,333/1000,65,46.0
1456,B4,166.0,167/1000,52,46.0
1457,A5,166.083,167/1000,64,46.0
1458,A4,166.167,167/1000,48,46.0
1459,G6,166.25,0.5,88,46.0
1460,G5,166.25,167/1000,72,46.0
1461,G3,166.333,167/1000,52,46.0
1462,G4,166.333,167/1000,52,46.0
1463,F#5,166.417,167/1000,61,46.0
1464,B3,166.5,167/1000,48,46.0
1465,G#3,166.5,1.0,52,46.0
1466,E5,166.583,167/1000,62,46.0
1467,C#4,166.667,167/1000,47,46.0
1468,A5,166.75,0.5,74,46.0
1469,E-5,166.75,167/1000,63,46.0
1470,D4,166.833,167/1000,39,46.0
1471,D5,166.917,167/1000,51,46.0
1472,F4,167.0,167/1000,45,46.0
1473,E-5,167.083,167/1000,51,46.0
1474,E4,167.167,167/1000,38,46.0
1475,B5,167.25,0.5,70,46.0
1476,D5,167.25,167/1000,65,46.0
1477,D4,167.333,167/1000,37,46.0
1478,C5,167.417,167/1000,53,46.0
1479,C#4,167.5,167/1000,43,46.0
1480,G3,167.5,0.5,38,46.0
1481,B4,167.583,167/1000,54,46.0
1482,E-4,167.667,167/1000,36,46.0
1483,D5,167.75,167/1000,53,46.0
1484,F5,167.75,1.0,70,46.0
1485,E4,167.833,167/1000,35,46.0
1486,C#5,167.917,167/1000,48,46.0
1487,F#4,168.0,1.5,42,46.0
1488,A4,168.0,1.5,42,46.0
1489,B4,168.083,167/1000,47,46.0
1490,G#4,168.25,167/1000,52,46.0
1491,A4,168.417,167/1000,46,46.0
1492,B4,168.583,167/1000,45,46.0
1493,C#5,168.75,167/1000,47,46.0
1494,E5,168.75,0.5,58,46.0
1495,B-4,168.917,167/1000,44,46.0
1496,A4,169.083,167/1000,43,46.0
1497,E-5,169.25,1.5,56,46.0
1498,A5,169.25,1.5,56,46.0
1499,E-4,169.5,249/250,35,46.0
1500,F#4,169.5,249/250,35,46.0
1501,B3,170.5,0.5,28,46.0
1502,E-4,170.5,0.5,28,46.0
1503,F#4,170.5,0.5,28,46.0
1504,B5,170.75,249/250,47,46.0
1505,F#5,170.75,249/250,47,46.0
1506,B4,170.75,249/250,47,46.0
1507,E4,171.0,0.75,41,46.0
1508,G4,171.0,0.75,41,46.0
1509,F#5,171.75,0.5,46,46.0
1510,E-5,171.75,0.5,46,46.0
1511,B4,171.75,0.5,46,46.0
1512,G3,171.75,0.25,33,46.0
1513,B3,171.75,0.25,33,46.0
1514,G3,172.0,0.5,43,46.0
1515,A4,172.0,0.25,43,46.0
1516,A5,172.25,0.25,61,46.0
1517,G4,172.25,0.25,37,46.0
1518,F#5,172.5,0.25,57,46.0
1519,F#4,172.5,0.25,46,46.0
1520,A3,172.5,1.0,39,46.0
1521,G#4,172.75,0.25,39,46.0
1522,G6,172.75,0.25,66,46.0
1523,G5,172.75,0.25,66,46.0
1524,B4,173.0,0.25,44,46.0
1525,B4,173.0,0.25,62,46.0
1526,B5,173.0,0.25,62,46.0
1527,A4,173.25,0.25,40,46.0
1528,F#6,173.25,0.25,69,46.0
1529,F#5,173.25,0.25,69,46.0
1530,E6,173.5,0.25,62,46.0
1531,E5,173.5,0.25,62,46.0
1532,A1,173.5,0.25,42,46.0
1533,A2,173.5,0.25,42,46.0
1534,D6,173.75,1.0,52,46.0
1535,D5,173.75,0.25,62,46.0
1536,G1,173.75,0.125,42,46.0
1537,G2,173.75,0.125,42,46.0
1538,F#1,173.875,0.125,42,46.0
1539,F#2,173.875,0.125,42,46.0
1540,F5,174.0,0.25,65,46.0
1541,F#1,174.0,0.125,52,46.0
1542,A1,174.125,0.125,44,46.0
1543,G5,174.25,0.25,69,46.0
1544,C2,174.25,0.125,43,46.0
1545,E-2,174.375,0.125,42,46.0
1546,F#5,174.5,0.25,64,46.0
1547,F#2,174.5,0.125,41,46.0
1548,A2,174.625,0.125,40,46.0
1549,C3,174.75,0.125,39,46.0
1550,C#5,174.75,0.25,56,46.0
1551,A5,174.75,0.25,56,46.0
1552,C#6,174.75,0.25,56,46.0
1553,E5,174.75,0.25,56,46.0
1554,E-3,174.875,0.125,38,46.0
1555,F#3,175.0,0.125,36,46.0
1556,C5,175.0,0.25,61,46.0
1557,A5,175.0,0.25,61,46.0
1558,C6,175.0,0.25,61,46.0
1559,E-5,175.0,0.25,61,46.0
1560,C4,175.125,0.125,27,46.0
1561,C6,175.25,0.5,72,46.0
1562,A5,175.25,0.125,61,46.0
1563,G3,175.25,0.125,27,46.0
1564,F#5,175.375,0.125,71,46.0
1565,B3,175.375,0.125,27,46.0
1566,E-5,175.5,0.125,69,46.0
1567,G2,175.5,1.0,24,46.0
1568,G3,175.5,1.0,24,46.0
1569,C5,175.625,0.125,68,46.0
1570,C5,175.75,0.75,66,46.0
1571,A4,175.75,0.125,56,46.0
1572,F#4,175.875,0.125,61,46.0
1573,E-4,176.0,0.125,59,46.0
1574,C4,176.125,0.125,58,46.0
1575,A4,176.25,0.125,60,46.0
1576,E-4,176.375,0.125,48,46.0
1577,B4,176.5,0.25,48,46.0
1578,B3,176.5,0.125,44,46.0
1579,D4,176.5,0.125,44,46.0
1580,G4,176.625,0.125,48,46.0
1581,B-3,176.75,1.0,36,46.0
1582,B-4,176.75,1.0,36,46.0
1583,G4,176.75,1.0,36,46.0
1584,D4,176.75,1.0,36,46.0
1585,A1,177.0,167/1000,39,46.0
1586,D2,177.167,167/1000,34,46.0
1587,F#2,177.333,167/1000,34,46.0
1588,A2,177.5,0.75,39,46.0
1589,D3,177.625,0.125,32,46.0
1590,F#3,177.75,0.125,32,46.0
1591,A3,177.875,0.125,32,46.0
1592,D3,178.0,0.125,38,46.0
1593,F#3,178.125,0.125,34,46.0
1594,A4,178.25,0.5,61,46.0
1595,F#4,178.25,167/1000,51,46.0
1596,B2,178.25,0.25,28,46.0
1597,D3,178.25,0.125,34,46.0
1598,F3,178.375,0.125,34,46.0
1599,D4,178.417,167/1000,55,46.0
1600,C#3,178.5,62/125,35,46.0
1601,E3,178.5,62/125,35,46.0
1602,A3,178.583,167/1000,55,46.0
1603,A4,178.75,0.75,61,46.0
1604,F#4,178.75,0.125,51,46.0
1605,D4,178.875,0.125,54,46.0
1606,A3,179.0,0.125,55,46.0
1607,B-2,179.0,0.75,26,46.0
1608,C#3,179.0,0.75,26,46.0
1609,E3,179.0,0.75,26,46.0
1610,G3,179.0,0.75,26,46.0
1611,F#4,179.125,0.125,55,46.0
1612,F#4,179.25,0.125,63,46.0
1613,D4,179.375,0.125,54,46.0
1614,G#4,179.5,0.25,59,46.0
1615,F4,179.5,0.125,50,46.0
1616,D4,179.625,0.125,50,46.0
1617,E4,179.75,62/125,50,46.0
1618,B-3,179.75,62/125,50,46.0
1619,G3,179.75,62/125,50,46.0
1620,G4,179.75,62/125,50,46.0
1621,B2,179.75,0.25,24,46.0
1622,E-3,179.75,0.25,24,46.0
1623,F#3,179.75,0.25,24,46.0
1624,B2,180.0,99/100,27,46.0
1625,E-3,180.0,99/100,27,46.0
1626,F#3,180.0,99/100,27,46.0
1627,B2,181.0,62/125,23,46.0
1628,E-3,181.0,62/125,23,46.0
1629,F#3,181.0,62/125,23,46.0
1630,B3,181.0,62/125,23,46.0
1631,B2,181.5,99/100,26,46.0
1632,E-3,181.5,99/100,26,46.0
1633,F#3,181.5,99/100,26,46.0
1634,B3,181.5,99/100,26,46.0
1635,B2,182.5,62/125,23,46.0
1636,E-3,182.5,62/125,23,46.0
1637,F#3,182.5,62/125,23,46.0
1638,B3,182.5,62/125,23,46.0
1639,E-4,182.75,99/100,42,46.0
1640,F#4,182.75,99/100,42,46.0
1641,B1,183.0,62/125,28,46.0
1642,B2,183.0,62/125,28,46.0
1643,F#1,183.5,99/100,28,46.0
1644,F#2,183.5,99/100,28,46.0
1645,E-4,183.75,62/125,38,46.0
1646,F#4,183.75,62/125,38,46.0
1647,B4,183.75,62/125,38,46.0
1648,B3,184.25,99/100,40,46.0
1649,E-4,184.25,99/100,40,46.0
1650,B4,184.25,99/100,40,46.0
1651,F#4,184.25,99/100,40,46.0
1652,G1,184.5,62/125,28,46.0
1653,G2,184.5,62/125,28,46.0
1654,A1,185.0,99/100,23,46.0
1655,A2,185.0,99/100,23,46.0
1656,E-4,185.25,62/125,38,46.0
1657,B3,185.25,62/125,38,46.0
1658,B4,185.25,62/125,38,46.0
1659,F#4,185.25,62/125,38,46.0
1660,E4,185.75,62/125,40,46.0
1661,B3,185.75,62/125,40,46.0
1662,B4,185.75,62/125,40,46.0
1663,D1,186.0,1.0,22,46.0
1664,D2,186.0,1.0,22,46.0
1665,A3,186.25,99/100,36,46.0
1666,E4,186.25,99/100,36,46.0
1667,C#4,186.25,99/100,36,46.0
1668,A4,186.25,99/100,36,46.0
1669,F#3,187.0,0.5,22,46.0
1670,A3,187.25,1.0,36,46.0
1671,F#4,187.25,1.0,36,46.0
1672,D4,187.25,1.0,36,46.0
1673,A4,187.25,1.0,36,46.0
1674,A2,187.5,1.0,24,46.0
1675,F#4,188.25,0.5,33,46.0
1676,A3,188.5,0.5,21,46.0
1677,A3,188.75,1.0,42,46.0
1678,F#3,189.0,1.0,24,46.0
1679,A4,189.75,0.5,36,46.0
1680,A1,190.0,0.5,31,46.0
1681,A2,190.0,0.5,31,46.0
1682,F#4,190.25,1.0,40,46.0
1683,B2,190.5,1.0,34,46.0
1684,B1,190.5,1.0,34,46.0
1685,A2,190.5,1.0,34,46.0
1686,F#6,191.25,0.5,52,46.0
1687,F#5,191.25,0.5,52,46.0
1688,A5,191.25,0.5,52,46.0
1689,C#2,191.5,62/125,29,46.0
1690,C#3,191.5,62/125,29,46.0
1691,A2,191.5,62/125,29,46.0
1692,G5,191.75,1.0,56,46.0
1693,E5,191.75,1.0,56,46.0
1694,E6,191.75,1.0,56,46.0
1695,A2,192.0,1.0,32,46.0
1696,D2,192.0,1.0,32,46.0
1697,D3,192.0,1.0,32,46.0
1698,A5,192.75,62/125,45,46.0
1699,E5,192.75,62/125,45,46.0
1700,A4,192.75,62/125,45,46.0
1701,G5,192.75,62/125,45,46.0
1702,F#4,193.0,0.5,33,46.0
1703,A4,193.25,1.0,48,46.0
1704,A5,193.25,1.0,48,46.0
1705,F#5,193.25,1.0,48,46.0
1706,A3,193.5,1.0,33,46.0
1707,F#5,194.25,0.5,43,46.0
1708,F#2,194.5,0.5,28,46.0
1709,A2,194.5,0.5,28,46.0
1710,F#3,194.5,0.5,28,46.0
1711,A4,194.75,1.0,50,46.0
1712,A2,195.0,1.0,30,46.0
1713,A3,195.0,1.0,30,46.0
1714,A4,195.75,0.5,43,46.0
1715,A5,195.75,0.5,43,46.0
1716,F#2,196.0,1.0,30,46.0
1717,A2,196.0,1.0,30,46.0
1718,F#3,196.0,1.0,30,46.0
1719,F#5,196.25,1.0,50,46.0
1720,F#4,196.25,1.0,50,46.0
1721,E2,197.0,0.5,30,46.0
1722,A2,197.0,0.5,30,46.0
1723,E3,197.0,0.5,30,46.0
1724,A4,197.25,0.5,44,46.0
1725,A5,197.25,0.5,44,46.0
1726,A1,197.5,0.5,32,46.0
1727,A2,197.5,0.5,32,46.0
1728,G5,197.75,1.0,53,46.0
1729,B5,197.75,1.0,53,46.0
1730,B4,197.75,1.0,53,46.0
1731,D2,198.0,1.5,33,46.0
1732,A2,198.0,1.5,33,46.0
1733,C#6,198.75,0.5,47,46.0
1734,E5,198.75,0.5,47,46.0
1735,G5,198.75,0.5,47,46.0
1736,C#5,198.75,0.5,47,46.0
1737,F#5,199.25,1.5,53,46.0
1738,D5,199.25,1.5,53,46.0
1739,D6,199.25,1.5,53,46.0
1740,A1,199.5,297/200,34,46.0
1741,A2,199.5,297/200,34,46.0
1742,E6,200.75,297/200,60,46.0
1743,C#6,200.75,297/200,60,46.0
1744,E5,200.75,297/200,60,46.0
1745,A1,201.0,1.0,35,46.0
1746,A2,201.0,1.0,35,46.0
1747,G2,202.0,0.25,43,46.0
1748,F#2,202.25,0.25,45,46.0
1749,E5,202.25,1.0,66,46.0
1750,E6,202.25,1.0,66,46.0
1751,C#6,202.25,1.0,66,46.0
1752,E2,202.5,0.25,53,46.0
1753,D2,202.75,0.25,48,46.0
1754,C#2,203.0,167/1000,64,46.0
1755,E2,203.167,167/1000,53,46.0
1756,E-6,203.25,0.5,66,46.0
1757,F#6,203.25,0.5,66,46.0
1758,F#5,203.25,0.5,66,46.0
1759,A2,203.333,167/1000,55,46.0
1760,C#3,203.5,167/1000,65,46.0
1761,E3,203.667,167/1000,59,46.0
1762,G6,203.75,62/125,71,46.0
1763,G5,203.75,62/125,71,46.0
1764,E6,203.75,62/125,71,46.0
1765,A3,203.833,167/1000,59,46.0
1766,F#2,204.0,1.5,40,46.0
1767,F#3,204.0,1.5,40,46.0
1768,E6,204.25,62/125,76,46.0
1769,A6,204.25,62/125,76,46.0
1770,A5,204.25,62/125,76,46.0
1771,E6,204.75,62/125,78,46.0
1772,A6,204.75,62/125,78,46.0
1773,G6,204.75,62/125,78,46.0
1774,A5,204.75,62/125,78,46.0
1775,A6,205.25,0.5,68,46.0
1776,A5,205.25,0.5,68,46.0
1777,A2,205.5,1.5,40,46.0
1778,A3,205.5,1.5,40,46.0
1779,A4,205.75,0.5,50,46.0
1780,A5,205.75,0.5,50,46.0
1781,F#4,206.25,62/125,50,46.0
1782,F#5,206.25,62/125,50,46.0
1783,F#4,206.75,0.5,56,46.0
1784,F#5,206.75,0.5,56,46.0
1785,D3,207.0,1.5,40,46.0
1786,D4,207.0,1.5,40,46.0
1787,D4,207.25,0.5,50,46.0
1788,D5,207.25,0.5,50,46.0
1789,E4,207.75,0.5,52,46.0
1790,E5,207.75,0.5,52,46.0
1791,F#4,208.25,1.5,56,46.0
1792,F#5,208.25,1.5,56,46.0
1793,B2,208.5,1.0,40,46.0
1794,B3,208.5,1.0,40,46.0
1795,G2,209.5,0.5,33,46.0
1796,G3,209.5,0.5,33,46.0
1797,G4,209.75,1.0,56,46.0
1798,G5,209.75,1.0,56,46.0
1799,E2,210.0,1.0,43,46.0
1800,E3,210.0,1.0,43,46.0
1801,B4,210.75,62/125,58,46.0
1802,B5,210.75,62/125,58,46.0
1803,E3,211.0,62/125,40,46.0
1804,G3,211.0,62/125,40,46.0
1805,B4,211.25,1.0,60,46.0
1806,G5,211.25,1.0,60,46.0
1807,B5,211.25,1.0,60,46.0
1808,C#3,211.5,1.0,40,46.0
1809,E3,211.5,1.0,40,46.0
1810,G5,212.25,62/125,58,46.0
1811,B-5,212.25,62/125,58,46.0
1812,B-4,212.25,62/125,58,46.0
1813,B2,212.5,0.25,40,46.0
1814,D3,212.5,0.25,40,46.0
1815,B-4,212.75,0.5,60,46.0
1816,B-5,212.75,0.5,60,46.0
1817,B-2,212.75,31/125,42,46.0
1818,C#3,212.75,31/125,42,46.0
1819,B-2,213.0,0.25,47,46.0
1820,C#3,213.25,0.25,44,46.0
1821,E6,213.25,0.5,59,46.0
1822,E5,213.25,0.5,59,46.0
1823,F#3,213.5,0.25,47,46.0
1824,B-3,213.75,0.25,49,46.0
1825,F6,213.75,0.25,61,46.0
1826,F5,213.75,0.25,61,46.0
1827,C#4,214.0,0.25,51,46.0
1828,F#5,214.0,31/125,62,46.0
1829,F#6,214.0,31/125,62,46.0
1830,F#4,214.25,0.25,53,46.0
1831,F#6,214.25,1.5,64,46.0
1832,F#5,214.25,1.5,64,46.0
1833,G#4,214.5,1.5,49,46.0
1834,F#4,214.5,1.5,49,46.0
1835,E-4,214.5,1.5,49,46.0
1836,C4,214.5,1.5,49,46.0
1837,E-5,215.75,0.25,68,46.0
1838,F#5,216.0,0.25,70,46.0
1839,G#2,216.0,1.0,46,46.0
1840,G#3,216.0,1.0,46,46.0
1841,G#5,216.25,0.25,69,46.0
1842,E-6,216.5,0.25,73,46.0
1843,F#6,216.75,0.25,74,46.0
1844,G#6,217.0,0.25,76,46.0
1845,F2,217.0,62/125,42,46.0
1846,F3,217.0,62/125,42,46.0
1847,F4,217.25,1.5,56,46.0
1848,F5,217.25,1.5,56,46.0
1849,F2,217.5,0.5,46,46.0
1850,F3,217.5,0.5,46,46.0
1851,C#2,218.0,0.5,42,46.0
1852,C#3,218.0,0.5,42,46.0
1853,E-2,218.5,0.5,42,46.0
1854,E-3,218.5,0.5,42,46.0
1855,G#4,218.75,0.5,51,46.0
1856,G#5,218.75,1.0,60,46.0
1857,F2,219.0,1.0,46,46.0
1858,F3,219.0,1.0,46,46.0
1859,F5,219.25,0.5,57,46.0
1860,G#5,219.75,0.5,53,46.0
1861,F#5,219.75,0.5,53,46.0
1862,F3,220.0,0.5,42,46.0
1863,G#3,220.0,0.5,42,46.0
1864,C#6,220.25,1.5,69,46.0
1865,G#5,220.25,0.5,58,46.0
1866,F#3,220.5,1.0,46,46.0
1867,A3,220.5,1.0,46,46.0
1868,C#5,220.75,0.5,60,46.0
1869,C#5,221.25,62/125,60,46.0
1870,C#4,221.5,0.5,44,46.0
1871,A3,221.5,0.5,44,46.0
1872,A5,221.75,1.0,68,46.0
1873,C#5,221.75,0.5,57,46.0
1874,C#4,222.0,1.0,46,46.0
1875,A3,222.0,1.0,46,46.0
1876,A4,222.25,0.5,56,46.0
1877,C#5,222.75,0.5,54,46.0
1878,F#5,222.75,0.5,54,46.0
1879,F#4,222.75,0.5,54,46.0
1880,C4,223.0,62/125,42,46.0
1881,G#3,223.0,62/125,42,46.0
1882,F#6,223.25,1.0,73,46.0
1883,F#5,223.25,0.5,62,46.0
1884,G#3,223.5,0.5,46,46.0
1885,C4,223.5,0.5,46,46.0
1886,E-6,223.75,0.5,70,46.0
1887,E-4,224.0,0.5,42,46.0
1888,C4,224.0,0.5,42,46.0
1889,F#5,224.25,62/125,66,46.0
1890,E-6,224.25,62/125,66,46.0
1891,F#6,224.25,62/125,66,46.0
1892,F4,224.5,0.5,42,46.0
1893,C#4,224.5,0.5,42,46.0
1894,F#5,224.75,0.5,72,46.0
1895,E-6,224.75,0.5,72,46.0
1896,F#6,224.75,0.5,72,46.0
1897,D4,225.0,0.25,50,46.0
1898,F4,225.25,0.25,45,46.0
1899,E-6,225.25,0.5,66,46.0
1900,G#5,225.25,0.5,66,46.0
1901,F#5,225.25,0.5,66,46.0
1902,G#4,225.5,0.25,48,46.0
1903,D5,225.75,0.25,51,46.0
1904,C#6,225.75,0.5,66,46.0
1905,G#5,225.75,0.5,66,46.0
1906,F5,225.75,0.5,66,46.0
1907,F5,226.0,229/1000,52,46.0
1908,B5,226.25,1.5,73,46.0
1909,G#5,226.25,0.25,49,46.0
1910,G#5,226.25,1.0,62,46.0
1911,F5,226.25,1.0,62,46.0
1912,D5,226.5,1.0,48,46.0
1913,F5,226.5,1.0,48,46.0
1914,G#5,226.5,1.0,48,46.0
1915,B-5,226.5,1.0,48,46.0
1916,G#5,227.25,229/1000,70,46.0
1917,F5,227.5,0.25,67,46.0
1918,D3,227.75,0.25,61,46.0
1919,F3,228.0,0.25,60,46.0
1920,G2,228.0,0.25,62,46.0
1921,B-3,228.25,0.25,62,46.0
1922,B-2,228.25,0.25,50,46.0
1923,D4,228.5,0.25,64,46.0
1924,E-3,228.5,0.25,50,46.0
1925,F4,228.75,0.25,67,46.0
1926,G3,228.75,0.25,47,46.0
1927,B-4,229.0,123/500,69,46.0
1928,B-3,229.0,0.25,54,46.0
1929,E-4,229.25,0.25,45,46.0
1930,B-4,229.25,1.0,68,46.0
1931,B-5,229.25,1.0,68,46.0
1932,B-2,229.5,0.25,53,46.0
1933,E-3,229.75,0.25,45,46.0
1934,G3,230.0,0.25,51,46.0
1935,B-3,230.25,0.25,45,46.0
1936,G4,230.25,62/125,62,46.0
1937,G5,230.25,62/125,62,46.0
1938,G#3,230.5,0.25,45,46.0
1939,F3,230.75,0.25,45,46.0
1940,G4,230.75,0.5,68,46.0
1941,G5,230.75,0.5,68,46.0
1942,E-3,231.0,0.25,55,46.0
1943,G3,231.25,0.25,49,46.0
1944,E-4,231.25,0.5,62,46.0
1945,E-5,231.25,0.5,62,46.0
1946,B-3,231.5,0.25,49,46.0
1947,F4,231.75,0.25,57,46.0
1948,E-4,231.75,0.25,49,46.0
1949,F5,231.75,0.5,61,46.0
1950,B-4,231.75,0.5,61,46.0
1951,D5,231.75,0.5,61,46.0
1952,G#4,232.0,0.25,68,46.0
1953,G#2,232.0,0.25,54,46.0
1954,G#3,232.25,0.25,47,46.0
1955,G5,232.25,1.0,65,46.0
1956,G4,232.25,1.0,65,46.0
1957,B-4,232.25,1.0,65,46.0
1958,E-5,232.25,1.0,65,46.0
1959,B2,232.5,0.25,54,46.0
1960,E-3,232.75,0.25,48,46.0
1961,G#3,233.0,0.25,51,46.0
1962,B3,233.25,0.25,45,46.0
1963,B5,233.25,0.5,68,46.0
1964,B4,233.25,0.5,68,46.0
1965,C#3,233.5,0.25,45,46.0
1966,C#4,233.75,0.25,45,46.0
1967,G#5,233.75,1.0,69,46.0
1968,G#4,233.75,1.0,69,46.0
1969,B-2,234.0,0.25,65,46.0
1970,C#3,234.25,0.25,42,46.0
1971,F#3,234.5,0.25,51,46.0
1972,B-3,234.75,0.25,46,46.0
1973,F5,234.75,0.5,62,46.0
1974,F4,234.75,0.5,62,46.0
1975,C#3,235.0,0.25,58,46.0
1976,C#4,235.25,0.25,46,46.0
1977,C#6,235.25,1.0,78,46.0
1978,C#5,235.25,1.0,78,46.0
1979,E-3,235.5,0.25,58,46.0
1980,G3,235.75,0.25,47,46.0
1981,B-3,236.0,0.25,55,46.0
1982,C#4,236.25,0.25,47,46.0
1983,B-4,236.25,0.5,72,46.0
1984,B-5,236.25,0.5,72,46.0
1985,G3,236.5,0.25,30,46.0
1986,B-3,236.75,0.25,30,46.0
1987,G5,236.75,1.0,74,46.0
1988,G4,236.75,1.0,74,46.0
1989,G#3,237.0,0.25,39,46.0
1990,B3,237.25,0.25,26,46.0
1991,E-4,237.5,0.25,26,46.0
1992,E-5,237.75,0.5,54,46.0
1993,G#4,237.75,123/500,26,46.0
1994,C4,238.0,0.25,31,46.0
1995,E-4,238.0,0.25,30,46.0
1996,G4,238.0,0.25,30,46.0
1997,B4,238.25,1.0,46,46.0
1998,E-4,238.25,0.25,31,46.0
1999,E-4,238.25,0.5,39,46.0
2000,G#4,238.25,0.5,39,46.0
2001,C#4,238.5,0.25,40,46.0
2002,E4,238.75,0.25,34,46.0
2003,G#4,239.0,0.25,34,46.0
2004,G#4,239.25,0.5,52,46.0
2005,C#5,239.25,123/500,29,46.0
2006,F4,239.5,0.25,34,46.0
2007,E5,239.75,1.0,58,46.0
2008,G#4,239.75,0.25,31,46.0
2009,F#3,240.0,0.25,39,46.0
2010,B-3,240.25,0.25,31,46.0
2011,C#4,240.5,0.25,31,46.0
2012,C#5,240.75,0.5,56,46.0
2013,F#4,240.75,0.25,45,46.0
2014,E-2,241.0,0.25,59,46.0
2015,B-4,241.25,1.0,60,46.0
2016,E-3,241.25,0.25,52,46.0
2017,F#2,241.5,0.25,58,46.0
2018,B-2,241.75,0.25,49,46.0
2019,E-3,242.0,0.25,57,46.0
2020,F#3,242.25,0.25,49,46.0
2021,F#5,242.25,0.5,74,46.0
2022,F#6,242.25,0.5,74,46.0
2023,G#2,242.5,0.25,53,46.0
2024,G#3,242.75,0.25,49,46.0
2025,E-5,242.75,1.0,80,46.0
2026,E-6,242.75,1.0,80,46.0
2027,E2,243.0,0.25,59,46.0
2028,G#2,243.25,0.25,51,46.0
2029,C#3,243.5,0.25,52,46.0
2030,E3,243.75,0.25,50,46.0
2031,C5,243.75,0.5,76,46.0
2032,C6,243.75,0.5,76,46.0
2033,G#2,244.0,0.25,50,46.0
2034,G#3,244.25,0.25,45,46.0
2035,G#5,244.25,1.0,80,46.0
2036,G#6,244.25,1.0,80,46.0
2037,A2,244.5,0.25,54,46.0
2038,C#3,244.75,0.25,49,46.0
2039,E3,245.0,0.25,49,46.0
2040,A3,245.25,123/500,49,46.0
2041,E5,245.25,0.5,74,46.0
2042,E6,245.25,0.5,74,46.0
2043,C#3,245.5,0.25,37,46.0
2044,C#4,245.75,0.25,34,46.0
2045,C#5,245.75,1.0,80,46.0
2046,C#6,245.75,1.0,80,46.0
2047,E-3,246.0,1.0,39,46.0
2048,F#3,246.25,0.75,31,46.0
2049,B-3,246.5,0.25,31,46.0
2050,E-4,246.75,123/500,31,46.0
2051,A3,246.75,0.5,49,46.0
2052,A4,246.75,0.5,49,46.0
2053,G3,247.0,0.25,35,46.0
2054,A3,247.25,49/100,43,46.0
2055,F#4,247.25,1.0,51,46.0
2056,B-3,247.25,0.25,31,46.0
2057,G#3,247.5,0.25,37,46.0
2058,B3,247.75,0.25,34,46.0
2059,E-4,248.0,0.25,34,46.0
2060,E-4,248.25,0.5,56,46.0
2061,G#4,248.25,0.25,34,46.0
2062,C4,248.5,0.25,37,46.0
2063,B5,248.75,1.0,63,46.0
2064,E-4,248.75,0.25,34,46.0
2065,C#4,249.0,0.25,41,46.0
2066,F4,249.25,0.25,31,46.0
2067,G#4,249.5,0.25,31,46.0
2068,G#5,249.75,0.5,53,46.0
2069,C#5,249.75,123/500,31,46.0
2070,F4,250.0,0.25,42,46.0
2071,F5,250.25,1.0,51,46.0
2072,G#4,250.25,0.25,36,46.0
2073,F#4,250.5,0.25,42,46.0
2074,A4,250.75,0.25,34,46.0
2075,C#5,251.0,0.25,34,46.0
2076,F#5,251.25,0.25,34,46.0
2077,C#6,251.25,0.5,56,46.0
2078,C#5,251.25,0.5,56,46.0
2079,B3,251.5,0.25,37,46.0
2080,A5,251.75,1.0,60,46.0
2081,C#5,251.75,0.25,51,46.0
2082,B4,251.75,0.25,34,46.0
2083,B3,251.75,0.25,34,46.0
2084,F#5,252.0,62/125,51,46.0
2085,G#3,252.25,0.25,30,46.0
2086,G#4,252.25,0.25,30,46.0
2087,A4,252.5,0.25,51,46.0
2088,D6,252.75,0.5,53,46.0
2089,D5,252.75,0.5,53,46.0
2090,F4,252.75,0.25,30,46.0
2091,F3,252.75,0.25,30,46.0
2092,B5,253.25,1.0,52,46.0
2093,B4,253.25,1.0,52,46.0
2094,C#4,253.75,0.25,28,46.0
2095,C#3,253.75,0.25,28,46.0
2096,G#4,254.25,0.5,46,46.0
2097,G#5,254.25,0.5,46,46.0
2098,C#2,254.25,0.25,28,46.0
2099,C#3,254.25,0.25,28,46.0
2100,F5,254.75,1.0,42,46.0
2101,F4,254.75,1.0,42,46.0
2102,C#2,255.25,0.25,24,46.0
2103,C#3,255.25,0.25,24,46.0
2104,C#2,255.75,0.25,25,46.0
2105,D5,255.75,62/125,39,46.0
2106,F4,255.75,62/125,39,46.0
2107,G#4,255.75,62/125,39,46.0
2108,B4,255.75,62/125,39,46.0
2109,B4,256.25,99/100,30,46.0
2110,F4,256.25,99/100,30,46.0
2111,D4,256.25,99/100,30,46.0
2112,G#4,256.25,99/100,30,46.0
2113,C#2,256.75,0.25,22,46.0
2114,C#2,257.25,0.25,21,46.0
2115,G#4,257.25,62/125,28,46.0
2116,B3,257.25,62/125,28,46.0
2117,D4,257.25,62/125,28,46.0
2118,F4,257.25,62/125,28,46.0
2119,C#2,257.5,0.5,21,46.0
2120,F4,257.75,99/100,26,46.0
2121,G#3,257.75,99/100,26,46.0
2122,B3,257.75,99/100,26,46.0
2123,D4,257.75,99/100,26,46.0
2124,C#2,258.0,62/125,30,46.0
2125,C#2,258.5,62/125,24,46.0
2126,D4,258.75,0.5,23,46.0
2127,F3,258.75,0.5,23,46.0
2128,G#3,258.75,0.5,23,46.0
2129,B3,258.75,0.5,23,46.0
2130,G#2,259.0,62/125,22,46.0
2131,C#2,259.0,62/125,22,46.0
2132,D4,259.25,0.125,23,46.0
2133,F3,259.25,0.125,23,46.0
2134,G#3,259.25,0.125,23,46.0
2135,B3,259.25,0.125,23,46.0
2136,B3,259.375,0.125,30,46.0
2137,G#3,259.5,0.125,30,46.0
2138,C#2,259.5,62/125,22,46.0
2139,G#2,259.5,62/125,22,46.0
2140,F3,259.625,0.125,30,46.0
2141,D3,259.75,0.125,30,46.0
2142,B2,259.875,0.125,30,46.0
2143,G#2,260.0,0.125,30,46.0
2144,C#2,260.0,62/125,22,46.0
2145,G#2,260.0,62/125,22,46.0
2146,B2,260.125,0.125,30,46.0
2147,D3,260.25,0.125,35,46.0
2148,F3,260.375,0.125,30,46.0
2149,G#3,260.5,0.125,30,46.0
2150,F#1,260.5,62/125,21,46.0
2151,C#2,260.5,62/125,21,46.0
2152,F#2,260.5,62/125,21,46.0
2153,B3,260.625,0.125,30,46.0
2154,B3,260.75,0.125,33,46.0
2155,D4,260.75,0.125,33,46.0
2156,F4,260.875,0.125,30,46.0
2157,G#4,261.0,0.125,30,46.0
2158,F#1,261.0,62/125,21,46.0
2159,C#2,261.0,62/125,21,46.0
2160,F#2,261.0,62/125,21,46.0
2161,B4,261.125,0.125,30,46.0
2162,D5,261.25,0.125,32,46.0
2163,B4,261.25,0.125,32,46.0
2164,F5,261.375,0.125,30,46.0
2165,G#5,261.5,0.125,30,46.0
2166,C#2,261.5,62/125,21,46.0
2167,F#2,261.5,62/125,21,46.0
2168,C#3,261.5,62/125,21,46.0
2169,B5,261.625,0.125,30,46.0
2170,A5,261.75,0.5,22,46.0
2171,D6,261.75,0.125,32,46.0
2172,C6,261.875,0.125,28,46.0
2173,D6,262.0,0.125,28,46.0
2174,C#2,262.0,62/125,21,46.0
2175,F#2,262.0,62/125,21,46.0
2176,C#3,262.0,62/125,21,46.0
2177,C#6,262.125,0.125,28,46.0
2178,A5,262.25,0.5,24,46.0
2179,D6,262.25,0.125,35,46.0
2180,C#5,262.375,0.125,24,46.0
2181,D6,262.5,0.125,28,46.0
2182,C#2,262.5,62/125,21,46.0
2183,F#2,262.5,62/125,21,46.0
2184,C#3,262.5,62/125,21,46.0
2185,C#6,262.625,0.125,28,46.0
2186,C#5,262.75,0.125,22,46.0
2187,A5,262.75,0.5,32,46.0
2188,C#6,262.875,0.125,28,46.0
2189,D6,263.0,0.125,28,46.0
2190,C#2,263.0,62/125,21,46.0
2191,F#2,263.0,62/125,21,46.0
2192,C#3,263.0,62/125,21,46.0
2193,C#6,263.125,0.125,28,46.0
2194,B5,263.25,0.125,28,46.0
2195,A4,263.375,0.125,24,46.0
2196,B5,263.5,0.125,28,46.0
2197,C#2,263.5,62/125,21,46.0
2198,F2,263.5,62/125,21,46.0
2199,C#3,263.5,62/125,21,46.0
2200,A5,263.625,0.125,26,46.0
2201,A4,263.75,0.125,28,46.0
2202,A5,263.875,0.125,28,46.0
2203,B5,264.0,0.125,28,46.0
2204,C#2,264.0,62/125,30,46.0
2205,F#2,264.0,62/125,30,46.0
2206,C#3,264.0,62/125,30,46.0
2207,A5,264.125,0.125,28,46.0
2208,G#5,264.25,0.125,34,46.0
2209,F#4,264.375,0.125,24,46.0
2210,G#5,264.5,0.125,28,46.0
2211,C#2,264.5,62/125,24,46.0
2212,F#2,264.5,62/125,24,46.0
2213,C#3,264.5,62/125,24,46.0
2214,F#5,264.625,0.125,28,46.0
2215,G#4,264.75,0.125,28,46.0
2216,G#5,264.875,0.125,28,46.0
2217,A5,265.0,0.125,26,46.0
2218,D2,265.0,62/125,25,46.0
2219,F#2,265.0,62/125,25,46.0
2220,D3,265.0,62/125,25,46.0
2221,G#5,265.125,0.125,26,46.0
2222,A4,265.25,0.125,31,46.0
2223,A5,265.375,0.125,31,46.0
2224,B5,265.5,0.125,29,46.0
2225,D2,265.5,62/125,27,46.0
2226,F#2,265.5,62/125,27,46.0
2227,D3,265.5,62/125,27,46.0
2228,A5,265.625,0.125,30,46.0
2229,B5,265.75,0.125,39,46.0
2230,B-4,265.875,0.125,28,46.0
2231,B5,266.0,0.125,35,46.0
2232,D2,266.0,62/125,28,46.0
2233,F#2,266.0,62/125,28,46.0
2234,D3,266.0,62/125,28,46.0
2235,B-5,266.125,0.125,35,46.0
2236,B4,266.25,0.125,36,46.0
2237,B5,266.375,0.125,37,46.0
2238,C#6,266.5,0.125,37,46.0
2239,B1,266.5,62/125,29,46.0
2240,F#2,266.5,62/125,29,46.0
2241,B2,266.5,62/125,29,46.0
2242,B5,266.625,0.125,38,46.0
2243,C#6,266.75,0.125,49,46.0
2244,B5,266.875,0.125,40,46.0
2245,B4,267.0,0.125,34,46.0
2246,B1,267.0,62/125,31,46.0
2247,F#2,267.0,62/125,31,46.0
2248,B2,267.0,62/125,31,46.0
2249,B5,267.125,0.125,42,46.0
2250,B4,267.25,0.125,42,46.0
2251,B5,267.375,0.125,44,46.0
2252,C#6,267.5,0.125,42,46.0
2253,B2,267.5,62/125,31,46.0
2254,F#3,267.5,62/125,31,46.0
2255,B3,267.5,62/125,31,46.0
2256,B5,267.625,0.125,42,46.0
2257,E6,267.75,0.125,55,46.0
2258,D6,267.875,0.125,46,46.0
2259,D5,268.0,0.125,40,46.0
2260,A2,268.0,62/125,32,46.0
2261,F#3,268.0,62/125,32,46.0
2262,A3,268.0,62/125,32,46.0
2263,D6,268.125,0.125,48,46.0
2264,D5,268.25,0.125,50,46.0
2265,D6,268.375,0.125,50,46.0
2266,E6,268.5,0.125,51,46.0
2267,A2,268.5,62/125,33,46.0
2268,F#3,268.5,62/125,33,46.0
2269,A3,268.5,62/125,33,46.0
2270,D6,268.625,0.125,51,46.0
2271,E6,268.75,0.125,60,46.0
2272,D6,268.875,0.125,43,46.0
2273,D5,269.0,0.125,52,46.0
2274,G#2,269.0,62/125,34,46.0
2275,C#3,269.0,62/125,34,46.0
2276,G#3,269.0,62/125,34,46.0
2277,D6,269.125,0.125,53,46.0
2278,C#5,269.25,0.125,52,46.0
2279,C#6,269.375,0.125,54,46.0
2280,D6,269.5,0.125,54,46.0
2281,F#2,269.5,62/125,35,46.0
2282,C#3,269.5,62/125,35,46.0
2283,F#3,269.5,62/125,35,46.0
2284,C#6,269.625,0.125,55,46.0
2285,D6,269.75,0.125,68,46.0
2286,C#6,269.875,0.125,56,46.0
2287,C#5,270.0,0.125,47,46.0
2288,F2,270.0,62/125,37,46.0
2289,C#3,270.0,62/125,37,46.0
2290,G#3,270.0,62/125,37,46.0
2291,C#6,270.125,0.125,56,46.0
2292,F5,270.25,0.125,50,46.0
2293,B5,270.25,0.125,50,46.0
2294,F6,270.375,0.125,57,46.0
2295,F#6,270.5,0.125,58,46.0
2296,F2,270.5,62/125,36,46.0
2297,C#3,270.5,62/125,36,46.0
2298,G#3,270.5,62/125,36,46.0
2299,F6,270.625,0.125,58,46.0
2300,G#6,270.75,0.125,70,46.0
2301,F#6,270.875,0.125,59,46.0
2302,A5,271.0,0.125,50,46.0
2303,F#5,271.0,0.125,50,46.0
2304,F3,271.0,62/125,36,46.0
2305,G#3,271.0,62/125,36,46.0
2306,B3,271.0,62/125,36,46.0
2307,C#4,271.0,62/125,36,46.0
2308,F#6,271.125,0.125,60,46.0
2309,A6,271.25,0.125,68,46.0
2310,G#6,271.375,0.125,61,46.0
2311,G#5,271.5,0.125,61,46.0
2312,F3,271.5,62/125,36,46.0
2313,G#3,271.5,62/125,36,46.0
2314,B3,271.5,62/125,36,46.0
2315,D4,271.5,62/125,36,46.0
2316,G#6,271.625,0.125,61,46.0
2317,G#6,271.875,0.125,51,46.0
2318,G#5,272.0,0.125,60,46.0
2319,F3,272.0,62/125,36,46.0
2320,G#3,272.0,62/125,36,46.0
2321,B3,272.0,62/125,36,46.0
2322,D4,272.0,62/125,36,46.0
2323,G#6,272.125,0.125,55,46.0
2324,G#6,272.375,0.125,54,46.0
2325,G#5,272.5,0.125,59,46.0
2326,F3,272.5,62/125,36,46.0
2327,G#3,272.5,62/125,36,46.0
2328,B3,272.5,62/125,36,46.0
2329,D4,272.5,62/125,36,46.0
2330,G#6,272.625,0.125,55,46.0
2331,G#5,272.875,0.125,53,46.0
2332,E6,273.0,0.125,64,46.0
2333,F3,273.0,62/125,37,46.0
2334,G#3,273.0,62/125,37,46.0
2335,B3,273.0,62/125,37,46.0
2336,D4,273.0,62/125,37,46.0
2337,D6,273.125,0.125,53,46.0
2338,C#6,273.25,0.125,61,46.0
2339,D6,273.375,0.125,61,46.0
2340,G#5,273.5,0.125,57,46.0
2341,F2,273.5,62/125,36,46.0
2342,G#2,273.5,62/125,36,46.0
2343,F3,273.5,62/125,36,46.0
2344,D6,273.625,0.125,57,46.0
2345,D6,273.875,0.125,56,46.0
2346,G#5,274.0,0.125,64,46.0
2347,F2,274.0,62/125,36,46.0
2348,G#2,274.0,62/125,36,46.0
2349,F3,274.0,62/125,36,46.0
2350,D6,274.125,0.125,56,46.0
2351,D5,274.25,0.125,61,46.0
2352,C#6,274.375,0.125,54,46.0
2353,E6,274.5,0.125,58,46.0
2354,F2,274.5,62/125,32,46.0
2355,G#2,274.5,62/125,32,46.0
2356,F3,274.5,62/125,32,46.0
2357,D6,274.625,0.125,53,46.0
2358,C#6,274.75,0.125,66,46.0
2359,D6,274.875,0.125,51,46.0
2360,D5,275.0,0.125,61,46.0
2361,F#2,275.0,62/125,30,46.0
2362,A2,275.0,62/125,30,46.0
2363,F#3,275.0,62/125,30,46.0
2364,D6,275.125,0.125,54,46.0
2365,D5,275.25,0.125,63,46.0
2366,D6,275.375,0.125,57,46.0
2367,E6,275.5,0.125,64,46.0
2368,G#2,275.5,62/125,28,46.0
2369,B2,275.5,62/125,28,46.0
2370,G#3,275.5,62/125,28,46.0
2371,D6,275.625,121/1000,57,46.0
2372,D6,275.75,0.125,66,46.0
2373,C#6,275.875,0.125,53,46.0
2374,C#5,276.0,0.125,59,46.0
2375,G#2,276.0,62/125,27,46.0
2376,B2,276.0,62/125,27,46.0
2377,G#3,276.0,62/125,27,46.0
2378,C#6,276.125,0.125,51,46.0
2379,C6,276.25,0.125,50,46.0
2380,C#6,276.375,0.125,49,46.0
2381,C#5,276.5,0.125,48,46.0
2382,G#3,276.5,62/125,27,46.0
2383,B3,276.5,62/125,27,46.0
2384,D4,276.5,62/125,27,46.0
2385,F4,276.5,62/125,27,46.0
2386,C#6,276.625,0.125,47,46.0
2387,B-5,276.75,0.125,55,46.0
2388,B5,276.875,0.125,46,46.0
2389,B4,277.0,0.125,37,46.0
2390,G#3,277.0,62/125,30,46.0
2391,B3,277.0,62/125,30,46.0
2392,D4,277.0,62/125,30,46.0
2393,F4,277.0,62/125,30,46.0
2394,B5,277.125,0.125,44,46.0
2395,B4,277.25,0.125,50,46.0
2396,B5,277.375,0.125,44,46.0
2397,C#6,277.5,0.125,45,46.0
2398,B3,277.5,62/125,34,46.0
2399,G#3,277.5,62/125,34,46.0
2400,D4,277.5,62/125,34,46.0
2401,F4,277.5,62/125,34,46.0
2402,B5,277.625,0.125,46,46.0
2403,B-5,277.75,0.125,55,46.0
2404,B5,277.875,0.125,48,46.0
2405,B4,278.0,0.125,43,46.0
2406,A3,278.0,62/125,33,46.0
2407,C#4,278.0,62/125,33,46.0
2408,F#4,278.0,62/125,33,46.0
2409,B5,278.125,0.125,51,46.0
2410,B4,278.25,0.125,56,46.0
2411,B5,278.375,0.125,54,46.0
2412,C#6,278.5,0.125,55,46.0
2413,B3,278.5,31/125,32,46.0
2414,D4,278.5,31/125,32,46.0
2415,F#4,278.5,31/125,32,46.0
2416,B5,278.625,0.125,56,46.0
2417,C4,278.75,0.25,32,46.0
2418,E-4,278.75,0.25,32,46.0
2419,F#4,278.75,0.25,32,46.0
2420,C#6,278.875,0.125,49,46.0
2421,B4,279.0,0.125,43,46.0
2422,B5,279.125,0.125,49,46.0
2423,C4,279.25,0.25,32,46.0
2424,E-4,279.25,0.25,32,46.0
2425,F#4,279.25,0.25,32,46.0
2426,G#4,279.25,0.25,32,46.0
2427,B5,279.375,0.125,45,46.0
2428,A4,279.5,0.125,43,46.0
2429,A5,279.625,0.125,43,46.0
2430,C4,279.75,0.25,31,46.0
2431,E-4,279.75,0.25,31,46.0
2432,F#4,279.75,0.25,31,46.0
2433,A5,279.875,0.125,49,46.0
2434,G#4,280.0,0.125,47,46.0
2435,G#5,280.125,0.125,54,46.0
2436,G#4,280.25,0.125,54,46.0
2437,F#4,280.25,0.25,30,46.0
2438,C4,280.25,0.25,30,46.0
2439,E-4,280.25,0.25,30,46.0
2440,G#4,280.25,0.25,30,46.0
2441,G#5,280.375,0.125,54,46.0
2442,G5,280.5,0.125,51,46.0
2443,G#5,280.625,0.125,51,46.0
2444,A5,280.75,0.125,61,46.0
2445,C4,280.75,0.25,29,46.0
2446,E-4,280.75,0.25,29,46.0
2447,F#4,280.75,0.25,29,46.0
2448,G#5,280.875,0.125,43,46.0
2449,G#4,281.0,0.125,52,46.0
2450,G#5,281.125,0.125,52,46.0
2451,G#4,281.25,0.125,50,46.0
2452,C4,281.25,0.25,28,46.0
2453,E-4,281.25,0.25,28,46.0
2454,F#4,281.25,0.25,28,46.0
2455,A4,281.25,0.25,28,46.0
2456,G#5,281.375,0.125,51,46.0
2457,A5,281.5,0.125,51,46.0
2458,G#5,281.625,0.125,50,46.0
2459,A5,281.75,0.125,61,46.0
2460,F#3,281.75,0.25,27,46.0
2461,C3,281.75,0.25,27,46.0
2462,E-3,281.75,0.25,27,46.0
2463,A3,281.75,0.25,27,46.0
2464,G#5,281.875,0.125,50,46.0
2465,G#4,282.0,0.125,41,46.0
2466,G#5,282.125,0.125,49,46.0
2467,A4,282.25,0.125,49,46.0
2468,C#3,282.25,0.25,29,46.0
2469,F#3,282.25,0.25,29,46.0
2470,A3,282.25,0.25,29,46.0
2471,A5,282.375,0.125,48,46.0
2472,B5,282.5,0.125,48,46.0
2473,A5,282.625,0.125,48,46.0
2474,G#5,282.75,0.125,57,46.0
2475,A3,282.75,0.25,23,46.0
2476,C#3,282.75,0.25,23,46.0
2477,F#3,282.75,0.25,23,46.0
2478,C4,282.75,0.25,23,46.0
2479,F#5,282.875,0.125,47,46.0
2480,F#4,283.0,0.125,39,46.0
2481,F#5,283.125,0.125,47,46.0
2482,F5,283.25,0.125,53,46.0
2483,A3,283.25,0.25,27,46.0
2484,C#3,283.25,0.25,27,46.0
2485,F#3,283.25,0.25,27,46.0
2486,C#4,283.25,0.25,27,46.0
2487,F#5,283.375,0.125,46,46.0
2488,F#4,283.5,0.125,45,46.0
2489,F3,283.5,0.5,27,46.0
2490,C#3,283.5,0.5,27,46.0
2491,G#3,283.5,0.5,27,46.0
2492,C#4,283.5,0.5,27,46.0
2493,F#5,283.625,0.125,46,46.0
2494,G#5,283.75,0.125,54,46.0
2495,F#5,283.875,0.125,39,46.0
2496,F#4,284.0,0.125,46,46.0
2497,C#3,284.0,0.5,28,46.0
2498,F3,284.0,0.5,28,46.0
2499,G#3,284.0,0.5,28,46.0
2500,F#5,284.125,0.125,46,46.0
2501,F5,284.25,0.125,45,46.0
2502,F#5,284.375,0.125,41,46.0
2503,F#4,284.5,0.125,46,46.0
2504,C#3,284.5,0.5,28,46.0
2505,G#3,284.5,0.5,28,46.0
2506,B3,284.5,0.5,28,46.0
2507,F#5,284.625,0.125,40,46.0
2508,F#5,284.875,0.125,46,46.0
2509,F4,285.0,0.125,39,46.0
2510,C#3,285.0,0.5,29,46.0
2511,G#3,285.0,0.5,29,46.0
2512,B3,285.0,0.5,29,46.0
2513,F5,285.125,0.125,46,46.0
2514,A5,285.375,0.125,46,46.0
2515,G#4,285.5,0.125,42,46.0
2516,C#3,285.5,0.5,24,46.0
2517,G#3,285.5,0.5,24,46.0
2518,B3,285.5,0.5,24,46.0
2519,G#5,285.625,0.125,46,46.0
2520,C#6,285.875,0.125,46,46.0
2521,B4,286.0,0.125,39,46.0
2522,C#3,286.0,0.5,28,46.0
2523,F#3,286.0,0.5,28,46.0
2524,A3,286.0,0.5,28,46.0
2525,B5,286.125,0.125,46,46.0
2526,C#6,286.25,0.125,46,46.0
2527,B4,286.375,0.125,39,46.0
2528,C#6,286.5,0.125,46,46.0
2529,C#3,286.5,0.5,24,46.0
2530,F#3,286.5,0.5,24,46.0
2531,A3,286.5,0.5,24,46.0
2532,B5,286.625,0.125,46,46.0
2533,B-5,286.75,0.125,54,46.0
2534,B5,286.875,0.125,46,46.0
2535,B4,287.0,0.125,37,46.0
2536,B2,287.0,0.5,27,46.0
2537,D3,287.0,0.5,27,46.0
2538,F3,287.0,0.5,27,46.0
2539,G#3,287.0,0.5,27,46.0
2540,B5,287.125,121/1000,46,46.0
2541,B5,287.25,0.125,45,46.0
2542,A5,287.375,0.125,46,46.0
2543,A4,287.5,0.125,41,46.0
2544,A2,287.5,0.5,27,46.0
2545,C3,287.5,0.5,27,46.0
2546,E-3,287.5,0.5,27,46.0
2547,F#3,287.5,0.5,27,46.0
2548,A5,287.625,0.125,46,46.0
2549,B5,287.75,0.125,57,46.0
2550,A4,287.875,0.125,39,46.0
2551,B5,288.0,0.125,44,46.0
2552,E-3,288.0,0.5,28,46.0
2553,B-2,288.0,0.5,28,46.0
2554,B2,288.0,0.5,28,46.0
2555,F#3,288.0,0.5,28,46.0
2556,A5,288.125,121/1000,46,46.0
2557,A5,288.25,0.125,46,46.0
2558,G#4,288.375,0.125,39,46.0
2559,A5,288.5,0.125,43,46.0
2560,E-3,288.5,0.5,24,46.0
2561,B-2,288.5,0.5,24,46.0
2562,B2,288.5,0.5,24,46.0
2563,F#3,288.5,0.5,24,46.0
2564,G#5,288.625,121/1000,43,46.0
2565,G#5,288.75,0.125,55,46.0
2566,F#4,288.875,0.125,38,46.0
2567,G#5,289.0,0.125,39,46.0
2568,G#2,289.0,0.5,28,46.0
2569,C#3,289.0,0.5,28,46.0
2570,F3,289.0,0.5,28,46.0
2571,F#5,289.125,0.125,46,46.0
2572,F5,289.25,0.125,46,46.0
2573,F#5,289.375,0.125,46,46.0
2574,F#4,289.5,0.125,41,46.0
2575,G#2,289.5,0.5,24,46.0
2576,C#3,289.5,0.5,24,46.0
2577,F3,289.5,0.5,24,46.0
2578,F#5,289.625,0.125,46,46.0
2579,G#5,289.75,0.125,54,46.0
2580,F#5,289.875,0.125,45,46.0
2581,F#4,290.0,0.125,38,46.0
2582,C#3,290.0,0.5,26,46.0
2583,F3,290.0,0.25,31,46.0
2584,F#5,290.125,0.125,46,46.0
2585,F4,290.25,0.125,45,46.0
2586,F3,290.25,0.25,31,46.0
2587,G#3,290.25,0.25,31,46.0
2588,F5,290.375,0.125,42,46.0
2589,F#5,290.5,0.125,46,46.0
2590,C#3,290.5,0.5,27,46.0
2591,B3,290.5,0.25,32,46.0
2592,G#3,290.5,0.25,32,46.0
2593,F5,290.625,0.125,46,46.0
2594,F#5,290.75,0.125,57,46.0
2595,D4,290.75,0.25,34,46.0
2596,B3,290.75,0.25,34,46.0
2597,F4,290.875,0.125,39,46.0
2598,F#5,291.0,0.125,45,46.0
2599,C#3,291.0,62/125,33,46.0
2600,B3,291.0,62/125,33,46.0
2601,D4,291.0,62/125,33,46.0
2602,F5,291.125,0.125,46,46.0
2603,G#4,291.25,0.125,51,46.0
2604,G#5,291.375,0.125,47,46.0
2605,A5,291.5,0.125,47,46.0
2606,C#3,291.5,62/125,34,46.0
2607,B3,291.5,62/125,34,46.0
2608,D4,291.5,62/125,34,46.0
2609,G#5,291.625,0.125,48,46.0
2610,B5,291.75,0.125,59,46.0
2611,B4,291.875,0.125,42,46.0
2612,D5,292.0,0.125,51,46.0
2613,C#3,292.0,62/125,36,46.0
2614,A3,292.0,62/125,36,46.0
2615,C#4,292.0,62/125,36,46.0
2616,D6,292.125,0.125,53,46.0
2617,C#6,292.25,0.125,58,46.0
2618,D6,292.375,0.125,55,46.0
2619,D5,292.5,0.125,50,46.0
2620,C#3,292.5,62/125,37,46.0
2621,A3,292.5,62/125,37,46.0
2622,C#4,292.5,62/125,37,46.0
2623,D6,292.625,0.125,57,46.0
2624,E6,292.75,0.125,68,46.0
2625,D6,292.875,0.125,58,46.0
2626,D5,293.0,0.125,50,46.0
2627,C#3,293.0,62/125,34,46.0
2628,G#3,293.0,62/125,34,46.0
2629,B3,293.0,62/125,34,46.0
2630,D6,293.125,121/1000,61,46.0
2631,D6,293.25,0.125,60,46.0
2632,C#5,293.375,0.125,52,46.0
2633,D6,293.5,0.125,59,46.0
2634,C#3,293.5,62/125,31,46.0
2635,F#3,293.5,62/125,31,46.0
2636,A3,293.5,62/125,31,46.0
2637,C#6,293.625,0.125,58,46.0
2638,D6,293.875,0.125,62,46.0
2639,C#5,294.0,0.125,50,46.0
2640,C#3,294.0,62/125,35,46.0
2641,F#3,294.0,62/125,35,46.0
2642,A3,294.0,62/125,35,46.0
2643,C#6,294.125,0.125,54,46.0
2644,C#6,294.375,0.125,56,46.0
2645,B4,294.5,0.125,45,46.0
2646,A3,294.5,62/125,32,46.0
2647,C#3,294.5,62/125,32,46.0
2648,F#3,294.5,62/125,32,46.0
2649,C4,294.5,62/125,32,46.0
2650,B5,294.625,0.125,49,46.0
2651,B5,294.875,0.125,50,46.0
2652,A4,295.0,0.125,40,46.0
2653,F3,295.0,62/125,29,46.0
2654,C#3,295.0,62/125,29,46.0
2655,G#3,295.0,62/125,29,46.0
2656,C#4,295.0,62/125,29,46.0
2657,A5,295.125,0.125,47,46.0
2658,B5,295.25,0.125,57,46.0
2659,A4,295.375,0.125,45,46.0
2660,B5,295.5,0.125,54,46.0
2661,F3,295.5,62/125,29,46.0
2662,C#3,295.5,62/125,29,46.0
2663,G#3,295.5,62/125,29,46.0
2664,C#4,295.5,62/125,29,46.0
2665,A5,295.625,0.125,51,46.0
2666,G#5,295.75,0.125,63,46.0
2667,A5,295.875,0.125,52,46.0
2668,A4,296.0,0.125,42,46.0
2669,F3,296.0,62/125,28,46.0
2670,C#3,296.0,62/125,28,46.0
2671,G#3,296.0,62/125,28,46.0
2672,C#4,296.0,62/125,28,46.0
2673,A5,296.125,0.125,51,46.0
2674,A5,296.25,0.125,49,46.0
2675,G#4,296.375,0.125,42,46.0
2676,A5,296.5,0.125,48,46.0
2677,E3,296.5,62/125,27,46.0
2678,B-3,296.5,62/125,27,46.0
2679,C#3,296.5,62/125,27,46.0
2680,G3,296.5,62/125,27,46.0
2681,C#4,296.5,62/125,27,46.0
2682,G#5,296.625,0.125,47,46.0
2683,G#5,296.875,0.125,50,46.0
2684,G#4,297.0,0.125,41,46.0
2685,G3,297.0,62/125,27,46.0
2686,D3,297.0,62/125,27,46.0
2687,B3,297.0,62/125,27,46.0
2688,D4,297.0,62/125,27,46.0
2689,G#5,297.125,0.125,49,46.0
2690,G#6,297.375,0.125,48,46.0
2691,G#5,297.5,0.125,53,46.0
2692,G3,297.5,62/125,26,46.0
2693,D3,297.5,62/125,26,46.0
2694,B3,297.5,62/125,26,46.0
2695,D4,297.5,62/125,26,46.0
2696,G#6,297.625,0.125,48,46.0
2697,G6,297.875,0.125,44,46.0
2698,G5,298.0,0.125,51,46.0
2699,D3,298.0,62/125,25,46.0
2700,B3,298.0,62/125,25,46.0
2701,G3,298.0,62/125,25,46.0
2702,D4,298.0,62/125,25,46.0
2703,G6,298.125,0.125,47,46.0
2704,G6,298.375,0.125,46,46.0
2705,G5,298.5,0.125,52,46.0
2706,G3,298.5,62/125,25,46.0
2707,D3,298.5,62/125,25,46.0
2708,B3,298.5,62/125,25,46.0
2709,D4,298.5,62/125,25,46.0
2710,G6,298.625,0.125,46,46.0
2711,G6,298.875,0.125,45,46.0
2712,B5,299.0,0.125,51,46.0
2713,G3,299.0,62/125,28,46.0
2714,B3,299.0,62/125,28,46.0
2715,D4,299.0,62/125,28,46.0
2716,B6,299.125,0.125,45,46.0
2717,B6,299.375,0.125,44,46.0
2718,A5,299.5,0.125,48,46.0
2719,B3,299.5,62/125,31,46.0
2720,G3,299.5,62/125,31,46.0
2721,D4,299.5,62/125,31,46.0
2722,A6,299.625,0.125,43,46.0
2723,A6,299.875,0.125,43,46.0
2724,G5,300.0,0.125,49,46.0
2725,G3,300.0,62/125,35,46.0
2726,C4,300.0,62/125,35,46.0
2727,E4,300.0,62/125,35,46.0
2728,G6,300.125,0.125,45,46.0
2729,G6,300.375,0.125,48,46.0
2730,G5,300.5,0.125,57,46.0
2731,G3,300.5,62/125,36,46.0
2732,C4,300.5,62/125,36,46.0
2733,E4,300.5,62/125,36,46.0
2734,G6,300.625,0.125,51,46.0
2735,G6,300.875,0.125,55,46.0
2736,G5,301.0,0.125,61,46.0
2737,C4,301.0,62/125,32,46.0
2738,G3,301.0,62/125,32,46.0
2739,E4,301.0,62/125,32,46.0
2740,F#5,301.125,0.125,57,46.0
2741,F#6,301.125,0.125,57,46.0
2742,F#6,301.375,0.125,60,46.0
2743,E5,301.5,0.125,55,46.0
2744,G3,301.5,62/125,29,46.0
2745,B3,301.5,62/125,29,46.0
2746,D4,301.5,62/125,29,46.0
2747,E6,301.625,0.125,63,46.0
2748,E6,301.875,0.125,60,46.0
2749,E5,302.0,0.125,53,46.0
2750,D3,302.0,62/125,25,46.0
2751,G3,302.0,62/125,25,46.0
2752,B3,302.0,62/125,25,46.0
2753,D4,302.0,62/125,25,46.0
2754,E6,302.125,0.125,57,46.0
2755,E6,302.375,0.125,53,46.0
2756,E5,302.5,0.125,57,46.0
2757,D3,302.5,62/125,25,46.0
2758,A3,302.5,62/125,25,46.0
2759,F#3,302.5,62/125,25,46.0
2760,D4,302.5,62/125,25,46.0
2761,F#5,302.625,0.125,50,46.0
2762,F#6,302.625,0.125,50,46.0
2763,F#6,302.875,0.125,47,46.0
2764,G5,303.0,0.125,54,46.0
2765,F#3,303.0,62/125,26,46.0
2766,D3,303.0,62/125,26,46.0
2767,A3,303.0,62/125,26,46.0
2768,D4,303.0,62/125,26,46.0
2769,G6,303.125,0.125,44,46.0
2770,G6,303.375,0.125,43,46.0
2771,G5,303.5,0.125,50,46.0
2772,F#3,303.5,62/125,25,46.0
2773,C#3,303.5,62/125,25,46.0
2774,A3,303.5,62/125,25,46.0
2775,C#4,303.5,62/125,25,46.0
2776,G6,303.625,0.125,43,46.0
2777,G6,303.875,0.125,43,46.0
2778,G5,304.0,0.125,51,46.0
2779,F#3,304.0,62/125,25,46.0
2780,C#3,304.0,62/125,25,46.0
2781,A3,304.0,62/125,25,46.0
2782,C#4,304.0,62/125,25,46.0
2783,F#5,304.125,0.125,43,46.0
2784,F#6,304.125,0.125,43,46.0
2785,F#6,304.25,0.125,52,46.0
2786,F#5,304.375,0.125,43,46.0
2787,F#5,304.5,0.125,43,46.0
2788,F3,304.5,62/125,25,46.0
2789,C#3,304.5,62/125,25,46.0
2790,G#3,304.5,62/125,25,46.0
2791,C#4,304.5,62/125,25,46.0
2792,F#6,304.625,0.125,43,46.0
2793,A6,304.75,0.125,50,46.0
2794,A5,304.875,0.125,36,46.0
2795,A5,305.0,0.125,43,46.0
2796,C#3,305.0,62/125,27,46.0
2797,F3,305.0,62/125,27,46.0
2798,G#3,305.0,62/125,27,46.0
2799,C#4,305.0,62/125,27,46.0
2800,A6,305.125,0.125,43,46.0
2801,C#7,305.25,0.125,50,46.0
2802,C#6,305.375,0.125,43,46.0
2803,C#6,305.5,0.125,49,46.0
2804,C#3,305.5,62/125,30,46.0
2805,F3,305.5,62/125,30,46.0
2806,G#3,305.5,62/125,30,46.0
2807,C#4,305.5,62/125,30,46.0
2808,C#7,305.625,0.125,43,46.0
2809,C#7,305.875,0.125,43,46.0
2810,C#6,306.0,0.125,49,46.0
2811,F3,306.0,62/125,36,46.0
2812,C#3,306.0,62/125,36,46.0
2813,G#3,306.0,62/125,36,46.0
2814,C#4,306.0,62/125,36,46.0
2815,C#7,306.125,0.125,45,46.0
2816,C#6,306.375,0.125,48,46.0
2817,C#5,306.5,0.125,45,46.0
2818,F3,306.5,62/125,38,46.0
2819,C#3,306.5,62/125,38,46.0
2820,G#3,306.5,62/125,38,46.0
2821,C#4,306.5,62/125,38,46.0
2822,C#6,306.625,0.125,51,46.0
2823,C#7,306.875,0.125,55,46.0
2824,C#6,307.0,0.125,65,46.0
2825,F#3,307.0,62/125,33,46.0
2826,A3,307.0,62/125,33,46.0
2827,C#4,307.0,62/125,33,46.0
2828,C#7,307.125,0.125,57,46.0
2829,C#6,307.375,0.125,60,46.0
2830,C#5,307.5,0.125,48,46.0
2831,F#3,307.5,62/125,28,46.0
2832,A3,307.5,62/125,28,46.0
2833,C#4,307.5,62/125,28,46.0
2834,C#6,307.625,0.125,63,46.0
2835,C#7,307.875,0.125,53,46.0
2836,C#6,308.0,0.125,61,46.0
2837,C#4,308.0,31/125,32,46.0
2838,A3,308.0,31/125,32,46.0
2839,C#7,308.125,0.125,59,46.0
2840,A6,308.25,0.125,55,46.0
2841,C#3,308.25,0.25,27,46.0
2842,A2,308.25,0.25,27,46.0
2843,A3,308.25,0.25,27,46.0
2844,A5,308.375,0.125,54,46.0
2845,A5,308.5,0.125,52,46.0
2846,G#2,308.5,0.25,34,46.0
2847,C#3,308.5,0.25,34,46.0
2848,G#3,308.5,0.25,34,46.0
2849,A6,308.625,0.125,49,46.0
2850,A6,308.75,0.125,52,46.0
2851,F#2,308.75,0.25,36,46.0
2852,C#3,308.75,0.25,36,46.0
2853,F#3,308.75,0.25,36,46.0
2854,A5,308.875,0.125,41,46.0
2855,A5,309.0,0.125,47,46.0
2856,C#2,309.0,31/125,40,46.0
2857,C#3,309.0,31/125,40,46.0
2858,A6,309.125,0.125,44,46.0
2859,F#6,309.25,0.125,52,46.0
2860,C#2,309.25,0.5,61,46.0
2861,F#5,309.375,0.125,47,46.0
2862,F#5,309.5,0.125,47,46.0
2863,F#4,309.625,0.125,46,46.0
2864,F5,309.75,0.125,53,46.0
2865,G#5,309.75,0.125,53,46.0
2866,B4,309.75,0.125,53,46.0
2867,F1,309.75,0.5,43,46.0
2868,F2,309.75,0.5,43,46.0
2869,G#4,309.875,0.125,56,46.0
2870,F#5,310.0,0.125,53,46.0
2871,A5,310.0,0.125,53,46.0
2872,C#5,310.0,0.125,53,46.0
2873,A4,310.125,0.125,62,46.0
2874,G#5,310.25,0.5,58,46.0
2875,B5,310.25,0.5,58,46.0
2876,B4,310.25,0.5,58,46.0
2877,F#1,310.25,0.5,43,46.0
2878,F#2,310.25,0.5,43,46.0
2879,G#4,310.75,0.5,53,46.0
2880,B4,310.75,0.5,53,46.0
2881,D4,310.75,0.5,53,46.0
2882,G#1,310.75,0.5,43,46.0
2883,G#2,310.75,0.5,43,46.0
2884,C#4,311.25,0.5,53,46.0
2885,F#4,311.25,0.5,53,46.0
2886,A4,311.25,0.5,53,46.0
2887,A1,311.25,0.25,45,46.0
2888,A2,311.25,0.25,45,46.0
2889,B1,311.5,0.25,48,46.0
2890,B2,311.5,0.25,48,46.0
2891,B3,311.75,0.5,56,46.0
2892,D4,311.75,0.5,56,46.0
2893,A4,311.75,0.5,56,46.0
2894,F4,311.75,0.5,56,46.0
2895,C2,311.75,0.25,50,46.0
2896,C3,311.75,0.25,50,46.0
2897,C#2,312.0,0.25,46,46.0
2898,C#3,312.0,0.25,46,46.0
2899,D4,312.25,0.5,54,46.0
2900,B3,312.25,0.5,54,46.0
2901,G#4,312.25,0.5,54,46.0
2902,F4,312.25,0.5,54,46.0
2903,C2,312.25,0.25,40,46.0
2904,C3,312.25,0.25,40,46.0
2905,C#2,312.5,0.25,45,46.0
2906,C#3,312.5,0.25,45,46.0
2907,E-4,312.75,0.5,53,46.0
2908,A3,312.75,0.5,53,46.0
2909,F#4,312.75,0.5,53,46.0
2910,C2,312.75,0.25,40,46.0
2911,C3,312.75,0.25,40,46.0
2912,C#2,313.0,0.25,42,46.0
2913,C#3,313.0,0.25,42,46.0
2914,E-4,313.25,0.75,56,46.0
2915,F#4,313.25,1.5,61,46.0
2916,A3,313.25,1.5,61,46.0
2917,C2,313.25,0.25,38,46.0
2918,C3,313.25,0.25,38,46.0
2919,C#2,313.5,0.25,44,46.0
2920,C#3,313.5,0.25,44,46.0
2921,F3,313.75,0.25,36,46.0
2922,C4,314.0,0.25,55,46.0
2923,G#3,314.0,0.25,46,46.0
2924,C#4,314.25,0.25,55,46.0
2925,F3,314.25,0.25,36,46.0
2926,C4,314.5,0.25,55,46.0
2927,G#3,314.5,0.25,44,46.0
2928,B3,314.75,0.25,36,46.0
2929,G#3,314.75,1.5,53,46.0
2930,F4,314.75,1.5,53,46.0
2931,C#4,314.75,1.5,53,46.0
2932,C#3,315.0,0.25,36,46.0
2933,F3,315.0,0.25,36,46.0
2934,G#3,315.0,0.25,36,46.0
2935,B3,315.0,0.25,36,46.0
2936,C#2,315.25,0.5,56,46.0
2937,C#3,315.25,0.5,56,46.0
2938,G#4,315.5,0.25,57,46.0
2939,B4,315.75,0.25,60,46.0
2940,F2,315.75,0.5,43,46.0
2941,F3,315.75,0.5,43,46.0
2942,D5,316.0,0.25,63,46.0
2943,G#4,316.25,62/125,53,46.0
2944,D4,316.25,62/125,53,46.0
2945,D5,316.25,62/125,53,46.0
2946,F4,316.25,62/125,53,46.0
2947,B4,316.25,62/125,53,46.0
2948,F#2,316.25,0.5,43,46.0
2949,F#3,316.25,0.5,43,46.0
2950,G#4,316.75,62/125,52,46.0
2951,D5,316.75,62/125,52,46.0
2952,D4,316.75,62/125,52,46.0
2953,B4,316.75,62/125,52,46.0
2954,G#2,316.75,0.5,43,46.0
2955,G#3,316.75,0.5,43,46.0
2956,C#4,317.25,62/125,53,46.0
2957,C#5,317.25,62/125,53,46.0
2958,A4,317.25,62/125,53,46.0
2959,A2,317.25,0.25,45,46.0
2960,A3,317.25,0.25,45,46.0
2961,B2,317.5,0.25,48,46.0
2962,B3,317.5,0.25,48,46.0
2963,G#4,317.75,62/125,58,46.0
2964,C#5,317.75,62/125,58,46.0
2965,F4,317.75,62/125,58,46.0
2966,D4,317.75,62/125,58,46.0
2967,C3,317.75,0.25,50,46.0
2968,C4,317.75,0.25,50,46.0
2969,G#4,318.25,62/125,54,46.0
2970,B4,318.25,62/125,54,46.0
2971,F4,318.25,62/125,54,46.0
2972,D4,318.25,62/125,54,46.0
2973,C3,318.25,0.25,50,46.0
2974,C4,318.25,0.25,50,46.0
2975,C#3,318.5,0.25,40,46.0
2976,C#4,318.5,0.25,40,46.0
2977,E-4,318.75,62/125,53,46.0
2978,F#4,318.75,62/125,53,46.0
2979,A4,318.75,62/125,53,46.0
2980,C2,318.75,0.25,45,46.0
2981,C3,318.75,0.25,45,46.0
2982,C#2,319.0,0.25,40,46.0
2983,C#3,319.0,0.25,40,46.0
2984,F#4,319.25,1.0,61,46.0
2985,A4,319.25,1.0,61,46.0
2986,C2,319.25,0.25,42,46.0
2987,C3,319.25,0.25,42,46.0
2988,C#2,319.5,0.25,38,46.0
2989,C#3,319.5,0.25,38,46.0
2990,C4,319.75,0.25,55,46.0
2991,C3,319.75,0.25,42,46.0
2992,C2,319.75,0.25,42,46.0
2993,C#4,320.0,0.25,55,46.0
2994,C#2,320.0,0.25,38,46.0
2995,C#3,320.0,0.25,38,46.0
2996,C4,320.25,0.25,55,46.0
2997,C#2,320.25,0.25,34,46.0
2998,F4,320.25,0.5,51,46.0
2999,G#4,320.25,0.5,51,46.0
3000,C#4,320.5,0.25,55,46.0
3001,B-2,320.5,0.25,30,46.0
3002,D2,320.75,0.25,33,46.0
3003,C#4,320.75,0.5,52,46.0
3004,G#3,320.75,0.5,52,46.0
3005,F4,320.75,0.5,52,46.0
3006,G#4,320.75,0.5,52,46.0
3007,B2,321.0,0.25,30,46.0
3008,G4,321.25,0.875,48,46.0
3009,G1,321.25,0.25,33,46.0
3010,G3,321.25,0.5,35,46.0
3011,B-3,321.25,0.5,35,46.0
3012,E4,321.25,0.5,35,46.0
3013,G2,321.5,0.25,28,46.0
3014,D3,321.75,0.25,28,46.0
3015,G3,321.75,0.5,35,46.0
3016,B3,321.75,0.5,35,46.0
3017,D4,321.75,0.5,35,46.0
3018,G2,322.0,0.25,28,46.0
3019,G4,322.125,0.125,47,46.0
3020,B5,322.25,1.0,63,46.0
3021,D3,322.25,0.25,28,46.0
3022,G2,322.5,0.25,28,46.0
3023,B4,322.75,0.5,47,46.0
3024,B1,322.75,0.25,33,46.0
3025,G2,323.0,0.25,28,46.0
3026,G3,323.25,0.25,28,46.0
3027,A4,323.25,62/125,44,46.0
3028,A5,323.25,62/125,44,46.0
3029,G2,323.5,0.25,28,46.0
3030,G3,323.75,0.25,28,46.0
3031,A4,323.75,0.5,48,46.0
3032,A5,323.75,0.5,48,46.0
3033,G2,324.0,0.25,28,46.0
3034,C2,324.25,0.25,33,46.0
3035,G4,324.25,0.5,42,46.0
3036,G5,324.25,0.5,42,46.0
3037,G2,324.5,0.25,29,46.0
3038,G4,324.75,0.5,36,46.0
3039,G3,324.75,0.25,29,46.0
3040,B4,324.75,0.25,42,46.0
3041,G5,324.75,0.25,42,46.0
3042,G2,325.0,0.25,29,46.0
3043,D5,325.0,0.25,38,46.0
3044,F#5,325.0,0.25,38,46.0
3045,G3,325.25,0.25,29,46.0
3046,G4,325.25,0.5,48,46.0
3047,D5,325.25,0.5,48,46.0
3048,F#5,325.25,0.5,48,46.0
3049,G2,325.5,0.25,29,46.0
3050,G1,325.75,0.25,33,46.0
3051,G4,325.75,0.5,40,46.0
3052,C5,325.75,0.5,40,46.0
3053,E5,325.75,0.5,40,46.0
3054,G2,326.0,0.25,28,46.0
3055,G3,326.25,0.25,28,46.0
3056,E5,326.25,0.25,39,46.0
3057,C5,326.25,0.25,39,46.0
3058,G4,326.25,0.25,39,46.0
3059,G2,326.5,0.25,28,46.0
3060,E-5,326.5,0.25,41,46.0
3061,F#5,326.5,0.25,41,46.0
3062,A4,326.5,0.25,41,46.0
3063,C5,326.5,0.25,41,46.0
3064,G3,326.75,0.125,28,46.0
3065,E-5,326.75,0.25,44,46.0
3066,F#5,326.75,0.25,44,46.0
3067,A4,326.75,0.25,44,46.0
3068,C5,326.75,0.25,44,46.0
3069,G2,326.875,0.125,24,46.0
3070,G5,327.0,0.25,41,46.0
3071,D5,327.0,0.25,41,46.0
3072,B4,327.0,0.25,41,46.0
3073,D2,327.0,0.25,26,46.0
3074,F#2,327.0,0.25,26,46.0
3075,B4,327.25,0.5,41,46.0
3076,D5,327.25,0.5,41,46.0
3077,G5,327.25,0.5,41,46.0
3078,D2,327.25,0.25,28,46.0
3079,F#2,327.25,0.25,28,46.0
3080,A2,327.5,0.25,27,46.0
3081,G4,327.75,0.25,40,46.0
3082,C#2,327.75,0.25,24,46.0
3083,F#2,327.75,0.25,24,46.0
3084,A2,327.75,0.25,24,46.0
3085,C#3,328.0,0.25,27,46.0
3086,F#3,328.0,0.25,33,46.0
3087,F#4,328.0,0.25,33,46.0
3088,F#3,328.25,62/125,37,46.0
3089,F#4,328.25,62/125,37,46.0
3090,C#2,328.25,0.25,24,46.0
3091,F#2,328.25,0.25,24,46.0
3092,A2,328.25,0.25,24,46.0
3093,C#3,328.5,0.25,27,46.0
3094,A3,328.75,62/125,32,46.0
3095,A4,328.75,62/125,32,46.0
3096,F#4,328.75,62/125,32,46.0
3097,C#4,328.75,62/125,32,46.0
3098,C#2,328.75,0.25,30,46.0
3099,F2,328.75,0.25,30,46.0
3100,G#2,328.75,0.25,30,46.0
3101,C#3,329.0,0.25,28,46.0
3102,C#4,329.25,62/125,32,46.0
3103,C#5,329.25,62/125,32,46.0
3104,A4,329.25,62/125,32,46.0
3105,F#4,329.25,62/125,32,46.0
3106,C#2,329.25,0.25,25,46.0
3107,F2,329.25,0.25,25,46.0
3108,G#2,329.25,0.25,25,46.0
3109,C#3,329.5,0.25,28,46.0
3110,C#4,329.75,99/100,36,46.0
3111,C#5,329.75,99/100,36,46.0
3112,G#4,329.75,99/100,36,46.0
3113,F4,329.75,99/100,36,46.0
3114,F#2,329.75,0.25,28,46.0
3115,A2,329.75,0.25,28,46.0
3116,C#3,330.0,0.25,28,46.0
3117,F#2,330.25,0.25,28,46.0
3118,A2,330.25,0.25,28,46.0
3119,C#3,330.5,0.25,26,46.0
3120,C#4,330.75,62/125,30,46.0
3121,C#5,330.75,62/125,30,46.0
3122,A4,330.75,62/125,30,46.0
3123,F#4,330.75,62/125,30,46.0
3124,B1,330.75,0.25,24,46.0
3125,B2,330.75,0.25,24,46.0
3126,D3,331.0,0.25,26,46.0
3127,C#4,331.25,0.5,38,46.0
3128,A4,331.25,0.5,38,46.0
3129,C#5,331.25,0.5,38,46.0
3130,B1,331.25,0.25,24,46.0
3131,G2,331.25,0.25,24,46.0
3132,B2,331.5,123/500,26,46.0
3133,D4,331.75,0.5,36,46.0
3134,G4,331.75,0.5,36,46.0
3135,D5,331.75,0.5,36,46.0
3136,B1,331.75,0.25,28,46.0
3137,B2,331.75,0.25,28,46.0
3138,B2,332.0,0.25,24,46.0
3139,G3,332.25,0.5,33,46.0
3140,G4,332.25,0.5,33,46.0
3141,C#2,332.25,0.25,22,46.0
3142,C#3,332.25,0.25,22,46.0
3143,C#3,332.5,0.25,24,46.0
3144,C#2,332.75,0.25,24,46.0
3145,B3,332.75,0.5,34,46.0
3146,B4,332.75,0.5,34,46.0
3147,F2,333.0,0.25,24,46.0
3148,C#4,333.25,0.5,37,46.0
3149,F#1,333.25,0.25,29,46.0
3150,C#2,333.5,0.25,24,46.0
3151,F#2,333.5,0.25,24,46.0
3152,F1,333.75,0.25,26,46.0
3153,F4,333.75,0.5,28,46.0
3154,F3,333.75,0.5,28,46.0
3155,C#2,334.0,0.25,22,46.0
3156,G#2,334.0,0.25,22,46.0
3157,F1,334.25,0.25,23,46.0
3158,F#4,334.25,0.5,35,46.0
3159,F#3,334.25,0.5,35,46.0
3160,C#2,334.5,0.25,20,46.0
3161,G#2,334.5,0.25,20,46.0
3162,F#1,334.75,0.25,24,46.0
3163,C#5,334.75,0.75,38,46.0
3164,C#4,334.75,0.75,38,46.0
3165,C#2,335.0,0.25,21,46.0
3166,A2,335.0,0.25,21,46.0
3167,C#2,335.25,0.25,18,46.0
3168,G#4,335.5,0.25,26,46.0
3169,G#3,335.5,0.25,26,46.0
3170,C#3,335.5,0.25,16,46.0
3171,F#2,335.5,0.25,16,46.0
3172,C#2,335.75,0.25,18,46.0
3173,A4,335.75,0.5,28,46.0
3174,A3,335.75,0.5,28,46.0
3175,C#3,336.0,0.25,18,46.0
3176,A5,336.25,0.75,38,46.0
3177,A4,336.25,0.75,38,46.0
3178,D2,336.75,0.25,26,46.0
3179,D3,336.75,0.25,26,46.0
3180,F5,337.0,0.25,23,46.0
3181,F4,337.0,0.25,23,46.0
3182,A4,337.25,0.25,20,46.0
3183,F#4,337.25,0.25,20,46.0
3184,D4,337.25,0.25,20,46.0
3185,A3,337.25,0.25,20,46.0
3186,A4,337.75,0.25,20,46.0
3187,F#4,337.75,0.25,20,46.0
3188,D4,337.75,0.25,20,46.0
3189,A3,337.75,0.25,20,46.0
3190,D2,338.25,0.25,26,46.0
3191,D3,338.25,0.25,26,46.0
3192,A4,338.75,0.25,20,46.0
3193,F#4,338.75,0.25,20,46.0
3194,D4,338.75,0.25,20,46.0
3195,A3,338.75,0.25,20,46.0
3196,A4,339.25,0.25,20,46.0
3197,F#4,339.25,0.25,20,46.0
3198,D4,339.25,0.25,20,46.0
3199,A3,339.25,0.25,20,46.0
3200,F#5,339.75,0.5,43,46.0
3201,D2,339.75,0.25,24,46.0
3202,D3,339.75,0.25,24,46.0
3203,F#5,340.25,61/250,43,46.0
3204,A4,340.25,0.25,20,46.0
3205,F#4,340.25,0.25,20,46.0
3206,D4,340.25,0.25,20,46.0
3207,A3,340.25,0.25,20,46.0
3208,F#5,340.5,62/125,44,46.0
3209,A4,340.75,0.25,20,46.0
3210,F#4,340.75,0.25,20,46.0
3211,D4,340.75,0.25,20,46.0
3212,A3,340.75,0.25,20,46.0
3213,F#5,341.0,62/125,44,46.0
3214,A5,341.25,62/125,61,46.0
3215,D2,341.25,0.25,24,46.0
3216,D3,341.25,0.25,24,46.0
3217,F#5,341.5,62/125,49,46.0
3218,D6,341.75,0.5,74,46.0
3219,A4,341.75,0.25,20,46.0
3220,F#4,341.75,0.25,20,46.0
3221,D4,341.75,0.25,20,46.0
3222,A3,341.75,0.25,20,46.0
3223,F#5,342.0,62/125,54,46.0
3224,E6,342.25,0.5,71,46.0
3225,A4,342.25,0.25,20,46.0
3226,E4,342.25,0.25,20,46.0
3227,C#4,342.25,0.25,20,46.0
3228,A3,342.25,0.25,20,46.0
3229,F#5,342.5,62/125,52,46.0
3230,F#6,342.75,0.5,71,46.0
3231,C#2,342.75,0.25,24,46.0
3232,C#3,342.75,0.25,24,46.0
3233,F#5,343.0,0.25,45,46.0
3234,F#6,343.25,0.062,69,46.0
3235,A4,343.25,0.25,20,46.0
3236,E4,343.25,0.25,20,46.0
3237,C#4,343.25,0.25,20,46.0
3238,A3,343.25,0.25,20,46.0
3239,G6,343.312,0.062,61,46.0
3240,F#6,343.375,0.062,67,46.0
3241,G6,343.438,0.062,63,46.0
3242,F#6,343.5,0.062,63,46.0
3243,G6,343.562,0.062,71,46.0
3244,F#6,343.625,0.062,69,46.0
3245,G6,343.688,0.062,78,46.0
3246,A6,343.75,0.5,83,46.0
3247,A4,343.75,0.25,20,46.0
3248,E4,343.75,0.25,20,46.0
3249,C#4,343.75,0.25,20,46.0
3250,A3,343.75,0.25,20,46.0
3251,A5,344.0,99/100,57,46.0
3252,G6,344.25,0.5,75,46.0
3253,C#2,344.25,0.25,24,46.0
3254,C#3,344.25,0.25,24,46.0
3255,G6,344.75,667/1000,77,46.0
3256,A4,344.75,0.25,20,46.0
3257,E4,344.75,0.25,20,46.0
3258,C#4,344.75,0.25,20,46.0
3259,A3,344.75,0.25,20,46.0
3260,A5,345.0,0.5,56,46.0
3261,A4,345.25,0.25,20,46.0
3262,E4,345.25,0.25,20,46.0
3263,C#4,345.25,0.25,20,46.0
3264,A3,345.25,0.25,20,46.0
3265,E6,345.5,0.25,68,46.0
3266,C#6,345.75,0.25,62,46.0
3267,C#2,345.75,0.25,24,46.0
3268,C#3,345.75,0.25,24,46.0
3269,D6,346.0,0.25,65,46.0
3270,E-6,346.25,0.25,74,46.0
3271,A4,346.25,0.25,20,46.0
3272,E4,346.25,0.25,20,46.0
3273,C#4,346.25,0.25,20,46.0
3274,A3,346.25,0.25,20,46.0
3275,E6,346.5,417/1000,64,46.0
3276,A4,346.75,0.25,20,46.0
3277,E4,346.75,0.25,20,46.0
3278,C#4,346.75,0.25,20,46.0
3279,A3,346.75,0.25,20,46.0
3280,G5,346.917,167/1000,63,46.0
3281,F#5,347.083,167/1000,64,46.0
3282,G5,347.25,167/1000,64,46.0
3283,C#2,347.25,0.25,24,46.0
3284,C#3,347.25,0.25,24,46.0
3285,A5,347.417,167/1000,66,46.0
3286,B-5,347.583,167/1000,68,46.0
3287,C#6,347.75,167/1000,70,46.0
3288,A4,347.75,0.25,20,46.0
3289,E4,347.75,0.25,20,46.0
3290,C#4,347.75,0.25,20,46.0
3291,A3,347.75,0.25,20,46.0
3292,B5,347.917,167/1000,68,46.0
3293,A5,348.083,167/1000,66,46.0
3294,G5,348.25,167/1000,69,46.0
3295,A4,348.25,0.25,22,46.0
3296,F#4,348.25,0.25,22,46.0
3297,D4,348.25,0.25,22,46.0
3298,A3,348.25,0.25,22,46.0
3299,F#5,348.417,167/1000,65,46.0
3300,G5,348.583,167/1000,60,46.0
3301,G#5,348.75,167/1000,69,46.0
3302,D2,348.75,0.25,28,46.0
3303,D3,348.75,0.25,28,46.0
3304,A5,348.917,167/1000,64,46.0
3305,E5,349.083,167/1000,59,46.0
3306,G5,349.25,0.25,70,46.0
3307,F#4,349.25,0.25,22,46.0
3308,D4,349.25,0.25,22,46.0
3309,A3,349.25,0.25,22,46.0
3310,F#3,349.25,0.25,22,46.0
3311,F#5,349.5,0.5,64,46.0
3312,F#4,349.75,0.25,22,46.0
3313,D4,349.75,0.25,22,46.0
3314,B3,349.75,0.25,22,46.0
3315,F#3,349.75,0.25,22,46.0
3316,A5,350.0,0.5,69,46.0
3317,B1,350.25,0.25,27,46.0
3318,B2,350.25,0.25,27,46.0
3319,D6,350.5,62/125,76,46.0
3320,F#4,350.75,0.25,22,46.0
3321,D4,350.75,0.25,22,46.0
3322,B3,350.75,0.25,22,46.0
3323,F#3,350.75,0.25,22,46.0
3324,D6,351.0,0.5,74,46.0
3325,C#4,351.25,0.25,22,46.0
3326,F#4,351.25,0.25,22,46.0
3327,E4,351.25,0.25,22,46.0
3328,B-3,351.25,0.25,22,46.0
3329,F#3,351.25,0.25,22,46.0
3330,E6,351.5,0.5,78,46.0
3331,B-1,351.75,0.25,28,46.0
3332,B-2,351.75,0.25,28,46.0
3333,F#6,352.0,31/125,68,46.0
3334,F#6,352.25,0.062,62,46.0
3335,G3,352.25,0.25,22,46.0
3336,G4,352.25,0.25,22,46.0
3337,E4,352.25,0.25,22,46.0
3338,C#4,352.25,0.25,22,46.0
3339,B-3,352.25,0.25,22,46.0
3340,G6,352.312,0.062,59,46.0
3341,F#6,352.375,0.062,64,46.0
3342,G6,352.438,0.062,60,46.0
3343,F#6,352.5,0.062,67,46.0
3344,G6,352.562,0.062,62,46.0
3345,F#6,352.625,0.062,69,46.0
3346,G6,352.688,0.062,65,46.0
3347,F#6,352.75,0.062,72,46.0
3348,G3,352.75,0.25,22,46.0
3349,G4,352.75,0.25,22,46.0
3350,E4,352.75,0.25,22,46.0
3351,C#4,352.75,0.25,22,46.0
3352,B-3,352.75,0.25,22,46.0
3353,G6,352.812,0.062,66,46.0
3354,F#6,352.875,0.062,74,46.0
3355,G6,352.938,0.062,70,46.0
3356,F#6,353.0,83/1000,77,46.0
3357,F6,353.083,83/1000,79,46.0
3358,F#6,353.167,83/1000,75,46.0
3359,A6,353.25,0.25,84,46.0
3360,B-1,353.25,0.25,27,46.0
3361,B-2,353.25,0.25,27,46.0
3362,G6,353.5,0.25,67,46.0
3363,G6,353.75,667/1000,72,46.0
3364,G3,353.75,0.25,22,46.0
3365,G4,353.75,0.25,22,46.0
3366,E4,353.75,0.25,22,46.0
3367,C#4,353.75,0.25,22,46.0
3368,B-3,353.75,0.25,22,46.0
3369,C#4,354.25,0.25,22,46.0
3370,G4,354.25,0.25,22,46.0
3371,E4,354.25,0.25,22,46.0
3372,B-3,354.25,0.25,22,46.0
3373,G3,354.25,0.25,22,46.0
3374,E-6,354.417,167/1000,69,46.0
3375,E6,354.583,167/1000,72,46.0
3376,G6,354.75,167/1000,72,46.0
3377,B-1,354.75,0.25,28,46.0
3378,B-2,354.75,0.25,28,46.0
3379,F#6,354.917,167/1000,67,46.0
3380,E6,355.083,81/500,64,46.0
3381,E6,355.25,667/1000,77,46.0
3382,G3,355.25,0.25,22,46.0
3383,G4,355.25,0.25,22,46.0
3384,E4,355.25,0.25,22,46.0
3385,C#4,355.25,0.25,22,46.0
3386,B-3,355.25,0.25,22,46.0
3387,F#3,355.75,0.25,22,46.0
3388,F#4,355.75,0.25,22,46.0
3389,E4,355.75,0.25,22,46.0
3390,C#4,355.75,0.25,22,46.0
3391,B-3,355.75,0.25,22,46.0
3392,C6,355.917,167/1000,67,46.0
3393,C#6,356.083,167/1000,64,46.0
3394,E6,356.25,167/1000,76,46.0
3395,B-1,356.25,0.25,27,46.0
3396,B-2,356.25,0.25,27,46.0
3397,D6,356.417,167/1000,67,46.0
3398,C#6,356.583,167/1000,65,46.0
3399,B5,356.75,0.125,72,46.0
3400,F#4,356.75,0.25,22,46.0
3401,F#3,356.75,0.25,22,46.0
3402,E4,356.75,0.25,22,46.0
3403,C#4,356.75,0.25,22,46.0
3404,B-3,356.75,0.25,22,46.0
3405,B-5,356.875,0.125,62,46.0
3406,D6,357.0,0.125,66,46.0
3407,C#6,357.125,0.125,63,46.0
3408,C6,357.25,0.125,72,46.0
3409,B3,357.25,0.25,22,46.0
3410,F#4,357.25,0.25,22,46.0
3411,D4,357.25,0.25,22,46.0
3412,F#3,357.25,0.25,22,46.0
3413,C#6,357.375,0.125,63,46.0
3414,E5,357.5,0.125,66,46.0
3415,G5,357.625,0.125,60,46.0
3416,F5,357.75,0.125,72,46.0
3417,B1,357.75,0.25,28,46.0
3418,B2,357.75,0.25,28,46.0
3419,F#5,357.875,0.125,62,46.0
3420,C#5,358.0,0.125,66,46.0
3421,E5,358.125,0.125,61,46.0
3422,D5,358.25,0.5,66,46.0
3423,F#4,358.25,0.25,22,46.0
3424,D4,358.25,0.25,22,46.0
3425,B3,358.25,0.25,22,46.0
3426,F#3,358.25,0.25,22,46.0
3427,B5,358.75,0.75,70,46.0
3428,F#4,358.75,0.25,22,46.0
3429,E4,358.75,0.25,22,46.0
3430,F#3,358.75,0.25,22,46.0
3431,B-3,358.75,0.25,22,46.0
3432,C#2,359.25,0.25,27,46.0
3433,C#3,359.25,0.25,27,46.0
3434,F#5,359.5,0.25,59,46.0
3435,G5,359.75,1.0,66,46.0
3436,F#4,359.75,0.25,22,46.0
3437,E4,359.75,0.25,22,46.0
3438,F#3,359.75,0.25,22,46.0
3439,B-3,359.75,0.25,22,46.0
3440,B-4,360.0,62/125,42,46.0
3441,E5,360.0,62/125,42,46.0
3442,B3,360.25,0.25,24,46.0
3443,F#4,360.25,0.25,24,46.0
3444,D4,360.25,0.25,24,46.0
3445,F#3,360.25,0.25,24,46.0
3446,B-4,360.5,62/125,40,46.0
3447,E5,360.5,62/125,40,46.0
3448,F#5,360.75,0.5,64,46.0
3449,B1,360.75,0.25,30,46.0
3450,B2,360.75,0.25,30,46.0
3451,B-4,361.0,0.25,42,46.0
3452,E5,361.0,0.25,42,46.0
3453,F#5,361.25,0.125,66,46.0
3454,B4,361.25,0.5,43,46.0
3455,D5,361.25,0.5,43,46.0
3456,F#4,361.25,0.25,24,46.0
3457,D4,361.25,0.25,24,46.0
3458,B3,361.25,0.25,24,46.0
3459,F#3,361.25,0.25,24,46.0
3460,F#6,361.375,0.125,56,46.0
3461,C#6,361.5,0.125,59,46.0
3462,D6,361.625,0.125,55,46.0
3463,E6,361.75,0.125,66,46.0
3464,F#4,361.75,0.25,25,46.0
3465,E4,361.75,0.25,25,46.0
3466,F#3,361.75,0.25,25,46.0
3467,B-3,361.75,0.25,25,46.0
3468,D6,361.875,0.125,57,46.0
3469,B-5,362.0,0.125,59,46.0
3470,B5,362.125,0.125,55,46.0
3471,C#6,362.25,0.125,66,46.0
3472,C#2,362.25,0.25,31,46.0
3473,C#3,362.25,0.25,31,46.0
3474,B5,362.375,0.125,60,46.0
3475,D6,362.5,83/1000,66,46.0
3476,B5,362.583,83/1000,57,46.0
3477,F#5,362.669,83/1000,50,46.0
3478,A5,362.75,0.25,66,46.0
3479,F#4,362.75,0.25,26,46.0
3480,E4,362.75,0.25,26,46.0
3481,F#3,362.75,0.25,26,46.0
3482,B-3,362.75,0.25,26,46.0
3483,G5,363.0,62/125,41,46.0
3484,B-4,363.0,62/125,41,46.0
3485,E5,363.0,62/125,41,46.0
3486,B3,363.25,0.25,31,46.0
3487,F#4,363.25,0.25,31,46.0
3488,D4,363.25,0.25,31,46.0
3489,F#3,363.25,0.25,31,46.0
3490,E5,363.5,62/125,41,46.0
3491,B-4,363.5,62/125,41,46.0
3492,G5,363.5,62/125,41,46.0
3493,D2,363.75,0.25,52,46.0
3494,D3,363.75,0.25,52,46.0
3495,F#5,364.0,0.25,44,46.0
3496,B-4,364.0,0.25,44,46.0
3497,E5,364.0,0.25,44,46.0
3498,F#5,364.25,93/125,72,46.0
3499,D5,364.25,31/125,61,46.0
3500,B4,364.25,31/125,61,46.0
3501,C#4,364.25,0.25,34,46.0
3502,F#3,364.25,0.25,34,46.0
3503,C#3,364.25,0.25,34,46.0
3504,F#4,364.5,62/125,53,46.0
3505,B3,364.75,0.25,34,46.0
3506,F#3,364.75,0.25,34,46.0
3507,B2,364.75,0.25,34,46.0
3508,F#4,365.0,62/125,65,46.0
3509,F#5,365.0,62/125,65,46.0
3510,D5,365.0,31/125,47,46.0
3511,B4,365.0,31/125,47,46.0
3512,B-4,365.25,31/125,54,46.0
3513,E5,365.25,31/125,54,46.0
3514,B1,365.25,0.25,56,46.0
3515,B2,365.25,0.25,56,46.0
3516,B-4,365.5,31/125,58,46.0
3517,F#5,365.5,31/125,58,46.0
3518,F#4,365.5,31/125,58,46.0
3519,E5,365.5,31/125,58,46.0
3520,F#5,365.75,93/125,77,46.0
3521,B4,365.75,31/125,65,46.0
3522,F#4,365.75,31/125,65,46.0
3523,D5,365.75,31/125,65,46.0
3524,A3,365.75,0.25,37,46.0
3525,A2,365.75,0.25,37,46.0
3526,B4,366.0,62/125,56,46.0
3527,G#3,366.25,0.25,38,46.0
3528,G#2,366.25,0.25,38,46.0
3529,D5,366.5,31/125,56,46.0
3530,F#5,366.5,31/125,56,46.0
3531,B4,366.5,62/125,69,46.0
3532,B5,366.5,62/125,69,46.0
3533,E-5,366.75,31/125,57,46.0
3534,F#5,366.75,31/125,57,46.0
3535,G#1,366.75,0.25,60,46.0
3536,G#2,366.75,0.25,60,46.0
3537,E-5,367.0,31/125,63,46.0
3538,B4,367.0,31/125,63,46.0
3539,F#5,367.0,31/125,63,46.0
3540,B5,367.0,31/125,63,46.0
3541,C5,367.25,31/125,66,46.0
3542,F#5,367.25,31/125,66,46.0
3543,E-5,367.25,31/125,66,46.0
3544,C6,367.25,31/125,66,46.0
3545,F#3,367.25,0.25,40,46.0
3546,F#2,367.25,0.25,40,46.0
3547,C5,367.5,62/125,66,46.0
3548,F#5,367.5,62/125,66,46.0
3549,E-5,367.5,62/125,66,46.0
3550,C6,367.5,62/125,66,46.0
3551,F3,367.75,0.25,48,46.0
3552,F2,367.75,0.25,48,46.0
3553,C5,368.0,62/125,72,46.0
3554,C6,368.0,62/125,72,46.0
3555,F#5,368.0,31/125,72,46.0
3556,E-5,368.0,31/125,72,46.0
3557,F3,368.0,0.25,50,46.0
3558,F4,368.0,0.25,50,46.0
3559,E-5,368.25,31/125,72,46.0
3560,A5,368.25,31/125,72,46.0
3561,F2,368.25,0.25,60,46.0
3562,F3,368.25,0.25,60,46.0
3563,C5,368.5,31/125,69,46.0
3564,A5,368.5,31/125,69,46.0
3565,C6,368.5,31/125,69,46.0
3566,E-5,368.5,31/125,69,46.0
3567,F3,368.5,0.25,61,46.0
3568,F4,368.5,0.25,61,46.0
3569,C#5,368.75,31/125,70,46.0
3570,C#6,368.75,31/125,70,46.0
3571,G#5,368.75,31/125,70,46.0
3572,E-3,368.75,0.25,52,46.0
3573,E-2,368.75,0.25,52,46.0
3574,G#5,369.0,62/125,71,46.0
3575,C#5,369.0,62/125,71,46.0
3576,C#6,369.0,62/125,71,46.0
3577,E-3,369.0,0.25,52,46.0
3578,E-4,369.0,0.25,52,46.0
3579,C#2,369.25,0.5,44,46.0
3580,C#3,369.25,0.5,44,46.0
3581,C#6,369.5,62/125,82,46.0
3582,C#5,369.5,31/125,75,46.0
3583,G#5,369.5,31/125,75,46.0
3584,C#4,369.75,1.0,25,46.0
3585,F#5,369.75,31/125,76,46.0
3586,C#5,369.75,31/125,76,46.0
3587,F4,369.75,0.5,28,46.0
3588,G#4,369.75,0.5,28,46.0
3589,F#5,370.0,31/125,69,46.0
3590,C#5,370.0,0.25,76,46.0
3591,C#6,370.0,0.25,76,46.0
3592,F5,370.25,0.25,67,46.0
3593,F#4,370.25,0.5,24,46.0
3594,B-4,370.25,0.75,29,46.0
3595,C#5,370.25,123/500,76,46.0
3596,C#6,370.25,123/500,76,46.0
3597,C6,370.5,0.25,62,46.0
3598,C5,370.5,0.25,62,46.0
3599,G4,370.75,0.25,25,46.0
3600,C#4,370.75,1.5,25,46.0
3601,E-6,370.75,0.25,59,46.0
3602,E-5,370.75,0.25,59,46.0
3603,C#6,371.0,0.25,59,46.0
3604,C#5,371.0,0.25,59,46.0
3605,B-4,371.0,0.25,28,46.0
3606,G4,371.0,0.25,28,46.0
3607,C6,371.25,0.25,58,46.0
3608,C5,371.25,0.25,58,46.0
3609,B-4,371.25,0.25,28,46.0
3610,C#5,371.25,0.25,28,46.0
3611,C#5,371.5,0.25,57,46.0
3612,C#6,371.5,0.25,57,46.0
3613,G#4,371.5,0.25,26,46.0
3614,B4,371.5,0.25,26,46.0
3615,E5,371.75,0.5,56,46.0
3616,E6,371.75,0.5,56,46.0
3617,G4,371.75,0.25,26,46.0
3618,B-4,371.75,0.25,26,46.0
3619,G#4,372.0,0.25,26,46.0
3620,B4,372.0,0.25,26,46.0
3621,C#4,372.25,1.5,27,46.0
3622,E-5,372.25,1.0,55,46.0
3623,E-6,372.25,1.0,55,46.0
3624,F#4,372.25,0.25,30,46.0
3625,B-4,372.25,0.25,30,46.0
3626,F#4,372.5,0.25,30,46.0
3627,A4,372.5,0.25,30,46.0
3628,F4,372.75,1.25,30,46.0
3629,G#4,372.75,1.25,30,46.0
3630,E-5,373.25,0.25,55,46.0
3631,E-6,373.25,0.25,55,46.0
3632,C6,373.5,0.25,50,46.0
3633,C5,373.5,0.25,50,46.0
3634,C#4,373.75,1.5,25,46.0
3635,E-6,373.75,0.25,58,46.0
3636,E-5,373.75,0.25,58,46.0
3637,C#6,374.0,0.25,50,46.0
3638,C#5,374.0,0.25,50,46.0
3639,G#4,374.0,0.25,28,46.0
3640,F4,374.0,0.25,28,46.0
3641,C6,374.25,0.25,56,46.0
3642,C5,374.25,0.25,56,46.0
3643,G#4,374.25,0.25,28,46.0
3644,B4,374.25,0.25,28,46.0
3645,C#5,374.5,0.25,49,46.0
3646,C#6,374.5,0.25,49,46.0
3647,F#4,374.5,0.25,26,46.0
3648,B-4,374.5,0.25,26,46.0
3649,E-5,374.75,0.5,54,46.0
3650,E-6,374.75,0.5,54,46.0
3651,F4,374.75,0.25,26,46.0
3652,G#4,374.75,0.25,26,46.0
3653,F#4,375.0,0.25,26,46.0
3654,B-4,375.0,0.25,26,46.0
3655,C#4,375.25,1.0,28,46.0
3656,C#6,375.25,1.0,50,46.0
3657,C#5,375.25,1.0,50,46.0
3658,E4,375.25,0.5,31,46.0
3659,G4,375.25,0.5,31,46.0
3660,F4,375.75,0.5,26,46.0
3661,G#4,375.75,0.5,26,46.0
3662,C#6,376.25,0.25,50,46.0
3663,C#5,376.25,0.25,50,46.0
3664,D4,376.25,0.5,35,46.0
3665,F4,376.25,0.5,35,46.0
3666,G#4,376.25,0.5,35,46.0
3667,B-4,376.5,0.25,52,46.0
3668,B-5,376.5,0.25,52,46.0
3669,G#4,376.75,0.25,35,46.0
3670,D4,376.75,0.5,29,46.0
3671,C#5,376.75,0.25,61,46.0
3672,C#6,376.75,0.25,61,46.0
3673,F4,377.0,0.25,31,46.0
3674,B4,377.0,0.25,54,46.0
3675,B5,377.0,0.25,54,46.0
3676,E-4,377.25,0.5,33,46.0
3677,G#4,377.25,0.25,39,46.0
3678,B-4,377.25,0.25,62,46.0
3679,B-5,377.25,0.25,62,46.0
3680,F#4,377.5,0.25,34,46.0
3681,B5,377.5,31/125,56,46.0
3682,B4,377.5,31/125,56,46.0
3683,C4,377.75,0.5,34,46.0
3684,F4,377.75,0.25,40,46.0
3685,B4,377.75,0.25,62,46.0
3686,B5,377.75,0.25,62,46.0
3687,F#4,378.0,0.25,35,46.0
3688,G#4,378.0,0.25,56,46.0
3689,G#5,378.0,0.25,56,46.0
3690,C4,378.25,0.5,39,46.0
3691,F#4,378.25,0.25,46,46.0
3692,B4,378.25,0.25,62,46.0
3693,B5,378.25,0.25,62,46.0
3694,E-4,378.5,0.25,40,46.0
3695,B-4,378.5,0.25,57,46.0
3696,B-5,378.5,0.25,57,46.0
3697,B3,378.75,0.5,38,46.0
3698,F#4,378.75,0.25,45,46.0
3699,G#4,378.75,0.25,62,46.0
3700,G#5,378.75,0.25,62,46.0
3701,F4,379.0,0.25,40,46.0
3702,A4,379.0,61/250,57,46.0
3703,A5,379.0,61/250,57,46.0
3704,B-3,379.25,0.5,42,46.0
3705,F#4,379.25,0.25,50,46.0
3706,A4,379.25,0.5,68,46.0
3707,A5,379.25,0.5,68,46.0
3708,C#4,379.5,0.25,40,46.0
3709,F#4,379.75,0.25,50,46.0
3710,G#5,379.75,0.5,62,46.0
3711,C#5,379.75,0.5,62,46.0
3712,G#4,379.75,0.5,62,46.0
3713,G#3,379.75,0.5,42,46.0
3714,C#4,379.75,0.5,42,46.0
3715,F4,380.0,0.25,40,46.0
3716,C#5,380.25,0.75,63,46.0
3717,F#5,380.25,0.5,75,46.0
3718,F#3,380.25,0.5,47,46.0
3719,C#4,380.25,0.5,47,46.0
3720,F#4,380.25,0.5,47,46.0
3721,B5,380.75,0.5,78,46.0
3722,B2,380.75,0.5,43,46.0
3723,B3,380.75,0.5,43,46.0
3724,C#5,381.0,0.25,67,46.0
3725,G#5,381.25,0.25,67,46.0
3726,B-5,381.25,0.5,79,46.0
3727,B2,381.25,0.5,46,46.0
3728,B3,381.25,0.25,55,46.0
3729,F#5,381.5,0.25,67,46.0
3730,F3,381.5,0.25,47,46.0
3731,F5,381.75,0.25,69,46.0
3732,E-6,381.75,0.5,82,46.0
3733,B-2,381.75,0.5,45,46.0
3734,G#3,381.75,0.25,54,46.0
3735,F#5,382.0,0.25,70,46.0
3736,F#3,382.0,0.25,49,46.0
3737,E-6,382.25,0.5,82,46.0
3738,A2,382.25,0.5,46,46.0
3739,F3,382.25,0.25,55,46.0
3740,E-5,382.25,0.5,80,46.0
3741,F#5,382.25,0.5,80,46.0
3742,E-3,382.5,0.25,50,46.0
3743,C3,382.75,0.25,57,46.0
3744,G#2,382.75,0.5,48,46.0
3745,F#5,382.75,0.5,72,46.0
3746,C#6,382.75,0.5,72,46.0
3747,C#5,382.75,0.5,72,46.0
3748,C#3,383.0,0.25,52,46.0
3749,E-2,383.25,0.25,61,46.0
3750,F#6,383.25,1.0,86,46.0
3751,F#5,383.25,1.0,86,46.0
3752,C#2,383.5,0.25,51,46.0
3753,C2,383.75,0.25,64,46.0
3754,C#2,384.0,0.25,58,46.0
3755,C#2,384.25,0.25,72,46.0
3756,F6,384.25,0.5,83,46.0
3757,F5,384.25,0.5,83,46.0
3758,G#3,384.5,0.25,32,46.0
3759,F3,384.75,0.25,36,46.0
3760,B6,384.75,0.5,86,46.0
3761,B5,384.75,0.5,86,46.0
3762,F6,384.75,0.5,86,46.0
3763,G#6,384.75,0.5,86,46.0
3764,B3,385.0,0.25,31,46.0
3765,G#3,385.25,0.25,36,46.0
3766,B6,385.25,0.75,86,46.0
3767,B5,385.25,0.75,86,46.0
3768,F6,385.25,0.75,86,46.0
3769,G#6,385.25,0.75,86,46.0
3770,D4,385.5,0.25,28,46.0
3771,C4,385.75,0.25,34,46.0
3772,B4,386.0,0.25,36,46.0
3773,C#4,386.0,0.25,30,46.0
3774,G#4,386.25,0.25,40,46.0
3775,G#3,386.25,0.25,34,46.0
3776,D5,386.5,0.25,36,46.0
3777,E-4,386.5,0.25,29,46.0
3778,C5,386.75,0.25,40,46.0
3779,C#4,386.75,0.25,34,46.0
3780,C#5,387.0,0.25,36,46.0
3781,B3,387.0,0.25,30,46.0
3782,G#4,387.25,0.25,40,46.0
3783,F#3,387.25,2.5,32,46.0
3784,B-3,387.25,0.25,38,46.0
3785,E-5,387.5,0.25,36,46.0
3786,E-4,387.5,0.25,33,46.0
3787,C#5,387.75,0.25,40,46.0
3788,C4,387.75,0.25,38,46.0
3789,B4,388.0,0.25,35,46.0
3790,C#4,388.0,0.25,34,46.0
3791,B-4,388.25,0.5,49,46.0
3792,B-3,388.25,0.25,38,46.0
3793,E-4,388.5,0.25,33,46.0
3794,C4,388.75,0.25,38,46.0
3795,C#4,389.0,0.25,33,46.0
3796,F#2,389.25,1.5,58,46.0
3797,B-3,389.25,0.25,38,46.0
3798,E-4,389.5,0.25,34,46.0
3799,F#3,389.75,0.5,32,46.0
3800,B-3,389.75,0.25,38,46.0
3801,C#4,390.0,0.25,34,46.0
3802,F3,390.25,0.5,32,46.0
3803,G#3,390.25,0.25,38,46.0
3804,C#4,390.5,0.25,33,46.0
3805,F#2,390.75,0.25,52,46.0
3806,F#3,390.75,0.5,32,46.0
3807,B-3,390.75,0.25,38,46.0
3808,C#2,391.0,123/500,46,46.0
3809,C#4,391.0,0.25,34,46.0
3810,C#2,391.25,187/125,52,46.0
3811,G#3,391.25,0.5,34,46.0
3812,B3,391.25,0.25,41,46.0
3813,C#4,391.5,0.25,36,46.0
3814,G#3,391.75,0.5,34,46.0
3815,B3,391.75,0.25,40,46.0
3816,C#4,392.0,0.25,34,46.0
3817,F#3,392.25,0.5,32,46.0
3818,B-3,392.25,0.25,38,46.0
3819,C#4,392.5,0.25,32,46.0
3820,C#2,392.75,249/250,52,46.0
3821,F3,392.75,0.5,31,46.0
3822,G#3,392.75,0.25,37,46.0
3823,C#4,393.0,0.25,34,46.0
3824,F#3,393.25,2.5,32,46.0
3825,B-3,393.25,0.25,38,46.0
3826,E-4,393.5,0.25,33,46.0
3827,C#2,393.75,62/125,52,46.0
3828,C4,393.75,0.25,38,46.0
3829,C#4,394.0,0.25,34,46.0
3830,B-1,394.25,0.5,52,46.0
3831,B-3,394.25,0.25,38,46.0
3832,E-4,394.5,0.25,33,46.0
3833,C4,394.75,0.25,38,46.0
3834,C#4,395.0,0.25,33,46.0
3835,B-3,395.25,0.25,38,46.0
3836,F#6,395.25,747/500,57,46.0
3837,F#5,395.25,747/500,57,46.0
3838,E-4,395.5,0.25,28,46.0
3839,F#3,395.75,0.5,27,46.0
3840,B-3,395.75,0.25,32,46.0
3841,C#4,396.0,0.25,28,46.0
3842,F3,396.25,0.5,32,46.0
3843,G#3,396.25,0.25,38,46.0
3844,C#4,396.5,0.25,33,46.0
3845,F#3,396.75,0.5,32,46.0
3846,B-3,396.75,0.25,38,46.0
3847,F#6,396.75,31/125,52,46.0
3848,F#5,396.75,31/125,52,46.0
3849,C#4,397.0,0.25,34,46.0
3850,C#6,397.0,31/125,45,46.0
3851,C#5,397.0,31/125,45,46.0
3852,G#3,397.25,0.5,34,46.0
3853,B3,397.25,0.25,41,46.0
3854,C#6,397.25,297/200,52,46.0
3855,C#5,397.25,297/200,52,46.0
3856,C#4,397.5,0.25,36,46.0
3857,G#3,397.75,0.5,34,46.0
3858,B3,397.75,0.25,40,46.0
3859,C#4,398.0,0.25,34,46.0
3860,F#3,398.25,0.5,32,46.0
3861,B-3,398.25,0.25,38,46.0
3862,C#4,398.5,0.25,32,46.0
3863,F3,398.75,0.5,26,46.0
3864,G#3,398.75,0.25,31,46.0
3865,C#6,398.75,99/100,52,46.0
3866,C#5,398.75,99/100,52,46.0
3867,C#4,399.0,0.25,28,46.0
3868,F#3,399.25,2.5,32,46.0
3869,B-3,399.25,169/1000,38,46.0
3870,E-4,399.419,167/1000,33,46.0
3871,C#4,399.583,167/1000,33,46.0
3872,C4,399.75,169/1000,38,46.0
3873,C#6,399.75,62/125,52,46.0
3874,C#5,399.75,62/125,52,46.0
3875,E-4,399.917,167/1000,34,46.0
3876,C#4,400.083,0.125,34,46.0
3877,B-3,400.25,169/1000,38,46.0
3878,B-5,400.25,0.5,49,46.0
3879,B-4,400.25,0.5,49,46.0
3880,E-4,400.419,167/1000,33,46.0
3881,C#4,400.583,0.125,33,46.0
3882,C4,400.75,169/1000,38,46.0
3883,E-4,400.917,167/1000,33,46.0
3884,C#4,401.083,0.125,33,46.0
3885,F#2,401.25,99/100,58,46.0
3886,B-3,401.25,169/1000,38,46.0
3887,E-4,401.419,167/1000,34,46.0
3888,C#4,401.583,0.125,34,46.0
3889,F#3,401.75,0.5,32,46.0
3890,B-3,401.75,169/1000,38,46.0
3891,D4,401.917,167/1000,34,46.0
3892,C#4,402.083,0.125,34,46.0
3893,F#2,402.25,62/125,58,46.0
3894,F3,402.25,0.5,32,46.0
3895,G#3,402.25,169/1000,38,46.0
3896,E-4,402.417,167/1000,33,46.0
3897,C#4,402.583,0.125,33,46.0
3898,F#2,402.75,167/1000,56,46.0
3899,F#3,402.75,0.5,32,46.0
3900,B-3,402.75,169/1000,38,46.0
3901,F2,402.917,167/1000,50,46.0
3902,E-4,402.917,167/1000,34,46.0
3903,F#2,403.083,0.125,50,46.0
3904,C#4,403.083,0.125,34,46.0
3905,C#2,403.25,99/100,52,46.0
3906,G#3,403.25,0.5,34,46.0
3907,B3,403.25,169/1000,41,46.0
3908,E-4,403.417,167/1000,36,46.0
3909,C#4,403.583,0.125,36,46.0
3910,G#3,403.75,0.5,34,46.0
3911,B3,403.75,169/1000,40,46.0
3912,E-4,403.917,167/1000,34,46.0
3913,C#4,404.083,0.125,34,46.0
3914,C#2,404.25,99/100,52,46.0
3915,F#3,404.25,0.5,32,46.0
3916,B-3,404.25,169/1000,38,46.0
3917,E-4,404.417,167/1000,32,46.0
3918,C#4,404.583,0.125,32,46.0
3919,F3,404.75,0.5,31,46.0
3920,G#3,404.75,169/1000,37,46.0
3921,E-4,404.917,167/1000,34,46.0
3922,C#4,405.083,0.125,34,46.0
3923,C#2,405.25,99/100,52,46.0
3924,F#3,405.25,2.5,32,46.0
3925,B-3,405.25,169/1000,38,46.0
3926,E-4,405.419,167/1000,33,46.0
3927,C#4,405.583,167/1000,33,46.0
3928,C4,405.75,169/1000,39,46.0
3929,E-4,405.917,167/1000,34,46.0
3930,C#4,406.083,0.125,35,46.0
3931,B-1,406.25,0.5,52,46.0
3932,B-3,406.25,169/1000,39,46.0
3933,E-4,406.419,167/1000,34,46.0
3934,C#4,406.583,0.125,35,46.0
3935,C4,406.75,169/1000,41,46.0
3936,E-4,406.917,167/1000,35,46.0
3937,C#4,407.083,0.125,36,46.0
3938,B-3,407.25,169/1000,42,46.0
3939,F#6,407.25,297/200,63,46.0
3940,F#5,407.25,297/200,63,46.0
3941,E-4,407.419,167/1000,38,46.0
3942,C#4,407.583,0.125,34,46.0
3943,F#3,407.75,0.5,32,46.0
3944,B-3,407.75,169/1000,38,46.0
3945,D4,407.917,167/1000,34,46.0
3946,C#4,408.083,0.125,34,46.0
3947,F3,408.25,0.5,39,46.0
3948,G#3,408.25,169/1000,47,46.0
3949,E-4,408.417,167/1000,41,46.0
3950,C#4,408.583,0.125,41,46.0
3951,F#3,408.75,0.5,40,46.0
3952,B-3,408.75,169/1000,49,46.0
3953,F#6,408.75,169/1000,61,46.0
3954,F#5,408.75,169/1000,61,46.0
3955,E-4,408.917,167/1000,44,46.0
3956,F5,408.917,167/1000,54,46.0
3957,F6,408.917,167/1000,54,46.0
3958,C#4,409.083,0.125,46,46.0
3959,F#5,409.083,0.125,54,46.0
3960,F#6,409.083,0.125,54,46.0
3961,G#3,409.25,0.5,47,46.0
3962,B3,409.25,169/1000,57,46.0
3963,C#6,409.25,99/100,63,46.0
3964,C#5,409.25,99/100,63,46.0
3965,E-4,409.417,167/1000,51,46.0
3966,C#4,409.583,0.125,53,46.0
3967,G#3,409.75,0.5,50,46.0
3968,B3,409.75,169/1000,60,46.0
3969,E-4,409.917,167/1000,51,46.0
3970,C#4,410.083,0.125,51,46.0
3971,F#3,410.25,0.5,49,46.0
3972,B-3,410.25,169/1000,58,46.0
3973,C#5,410.25,99/100,66,46.0
3974,C#6,410.25,99/100,66,46.0
3975,E-4,410.417,167/1000,49,46.0
3976,C#4,410.583,0.125,50,46.0
3977,F3,410.75,0.5,49,46.0
3978,G#3,410.75,169/1000,58,46.0
3979,C#4,410.917,167/1000,53,46.0
3980,B3,411.083,0.125,40,46.0
3981,B-3,411.25,167/1000,40,46.0
3982,F#3,411.25,1.5,50,46.0
3983,C#5,411.25,833/1000,68,46.0
3984,C#6,411.25,833/1000,68,46.0
3985,C#4,411.417,167/1000,36,46.0
3986,B3,411.583,167/1000,36,46.0
3987,B-3,411.75,167/1000,40,46.0
3988,B3,411.917,167/1000,38,46.0
3989,C#4,412.083,167/1000,38,46.0
3990,B4,412.083,167/1000,48,46.0
3991,B5,412.083,167/1000,48,46.0
3992,E-4,412.25,167/1000,40,46.0
3993,B-4,412.25,0.5,50,46.0
3994,B-5,412.25,0.5,50,46.0
3995,F4,412.417,167/1000,37,46.0
3996,F#4,412.583,167/1000,37,46.0
3997,B-4,412.75,167/1000,40,46.0
3998,B-5,412.75,1.0,55,46.0
3999,G#4,412.75,667/1000,40,46.0
4000,G#3,412.75,1.5,50,46.0
4001,G#5,412.917,167/1000,40,46.0
4002,F#5,413.083,167/1000,40,46.0
4003,F5,413.25,167/1000,50,46.0
4004,E-5,413.417,167/1000,41,46.0
4005,F#4,413.417,167/1000,36,46.0
4006,C#5,413.583,167/1000,43,46.0
4007,F4,413.583,167/1000,36,46.0
4008,B4,413.75,167/1000,50,46.0
4009,B5,413.75,1.5,55,46.0
4010,E-4,413.75,167/1000,40,46.0
4011,C#5,413.917,167/1000,42,46.0
4012,C#4,413.917,167/1000,35,46.0
4013,B-4,414.083,167/1000,42,46.0
4014,B3,414.083,167/1000,35,46.0
4015,B4,414.25,167/1000,50,46.0
4016,F4,414.25,167/1000,40,46.0
4017,B-3,414.25,1.5,50,46.0
4018,C#5,414.417,167/1000,40,46.0
4019,F#4,414.417,167/1000,36,46.0
4020,E-5,414.583,167/1000,40,46.0
4021,F4,414.583,167/1000,37,46.0
4022,F5,414.75,167/1000,50,46.0
4023,C#4,414.75,167/1000,42,46.0
4024,F#5,414.917,167/1000,41,46.0
4025,E-4,414.917,167/1000,40,46.0
4026,G#5,415.083,167/1000,41,46.0
4027,E4,415.083,167/1000,41,46.0
4028,F#4,415.25,167/1000,44,46.0
4029,C#5,415.25,0.5,52,46.0
4030,C#6,415.25,0.5,52,46.0
4031,G#4,415.417,167/1000,41,46.0
4032,B-4,415.583,167/1000,41,46.0
4033,B-5,415.75,167/1000,42,46.0
4034,C#6,415.75,1.0,57,46.0
4035,B4,415.75,0.5,46,46.0
4036,B3,415.75,1.5,57,46.0
4037,G#5,415.917,167/1000,42,46.0
4038,F#5,416.083,167/1000,43,46.0
4039,E5,416.25,167/1000,55,46.0
4040,B4,416.25,167/1000,48,46.0
4041,E-5,416.417,167/1000,45,46.0
4042,B-4,416.417,167/1000,43,46.0
4043,C#5,416.583,333/1000,48,46.0
4044,G#4,416.583,167/1000,44,46.0
4045,E-6,416.75,1.5,67,46.0
4046,F#4,416.75,167/1000,50,46.0
4047,E-5,416.917,167/1000,48,46.0
4048,F4,416.917,167/1000,44,46.0
4049,E5,417.083,167/1000,49,46.0
4050,E-4,417.083,167/1000,44,46.0
4051,E-5,417.25,167/1000,60,46.0
4052,C#4,417.25,1.0,65,46.0
4053,F5,417.417,167/1000,48,46.0
4054,F4,417.417,167/1000,47,46.0
4055,F#5,417.583,167/1000,49,46.0
4056,F#4,417.583,167/1000,47,46.0
4057,G#5,417.75,167/1000,62,46.0
4058,G#4,417.75,167/1000,54,46.0
4059,B-5,417.917,167/1000,51,46.0
4060,B-4,417.917,167/1000,51,46.0
4061,B5,418.083,167/1000,52,46.0
4062,B4,418.083,167/1000,52,46.0
4063,F6,418.25,0.5,71,46.0
4064,B5,418.25,167/1000,52,46.0
4065,E-4,418.25,0.5,70,46.0
4066,B-4,418.25,167/1000,56,46.0
4067,B5,418.417,167/1000,53,46.0
4068,G#4,418.417,167/1000,52,46.0
4069,B-5,418.583,167/1000,54,46.0
4070,F#4,418.583,167/1000,52,46.0
4071,G#5,418.75,167/1000,54,46.0
4072,F4,418.75,1.0,72,46.0
4073,F#5,418.917,167/1000,54,46.0
4074,G#4,418.917,167/1000,52,46.0
4075,F5,419.083,167/1000,55,46.0
4076,B-4,419.083,167/1000,53,46.0
4077,F#6,419.25,0.5,77,46.0
4078,F#5,419.25,167/1000,70,46.0
4079,B4,419.25,167/1000,60,46.0
4080,G#5,419.417,167/1000,57,46.0
4081,C#5,419.417,167/1000,57,46.0
4082,B-5,419.583,167/1000,61,46.0
4083,E-5,419.583,167/1000,58,46.0
4084,G#5,419.75,167/1000,72,46.0
4085,G#6,419.75,1.0,84,46.0
4086,F#4,419.75,0.5,77,46.0
4087,C#5,419.75,167/1000,62,46.0
4088,B5,419.917,167/1000,61,46.0
4089,B4,419.917,167/1000,57,46.0
4090,B-5,420.083,167/1000,62,46.0
4091,B-4,420.083,167/1000,58,46.0
4092,G#5,420.25,167/1000,75,46.0
4093,E5,420.25,167/1000,58,46.0
4094,G#4,420.25,0.5,72,46.0
4095,B-5,420.417,167/1000,60,46.0
4096,C#5,420.417,167/1000,52,46.0
4097,B5,420.583,167/1000,61,46.0
4098,E-5,420.583,167/1000,53,46.0
4099,B-6,420.75,0.5,91,46.0
4100,B-5,420.75,167/1000,77,46.0
4101,B-4,420.75,0.5,61,46.0
4102,E5,420.75,167/1000,51,46.0
4103,B5,420.917,167/1000,63,46.0
4104,B-3,420.917,333/1000,48,46.0
4105,F#4,420.917,167/1000,48,46.0
4106,C#6,421.083,167/1000,64,46.0
4107,G4,421.083,167/1000,49,46.0
4108,B6,421.25,0.5,96,46.0
4109,C#6,421.25,167/1000,64,46.0
4110,B3,421.25,0.5,65,46.0
4111,F#4,421.25,167/1000,52,46.0
4112,B-5,421.417,167/1000,61,46.0
4113,E4,421.417,167/1000,48,46.0
4114,B5,421.583,167/1000,62,46.0
4115,E-4,421.583,167/1000,52,46.0
4116,C#6,421.75,0.5,74,46.0
4117,G5,421.75,167/1000,63,46.0
4118,E-4,421.75,167/1000,48,46.0
4119,C4,421.75,1.0,52,46.0
4120,F#5,421.917,167/1000,51,46.0
4121,F4,421.917,167/1000,47,46.0
4122,E5,422.083,167/1000,51,46.0
4123,F#4,422.083,167/1000,39,46.0
4124,E-6,422.25,0.5,70,46.0
4125,E-5,422.25,167/1000,65,46.0
4126,A4,422.25,167/1000,45,46.0
4127,E5,422.417,167/1000,53,46.0
4128,G#4,422.417,167/1000,38,46.0
4129,F#5,422.583,333/1000,54,46.0
4130,F#4,422.583,167/1000,37,46.0
4131,A5,422.75,1.0,70,46.0
4132,C#4,422.75,167/1000,43,46.0
4133,B3,422.75,0.5,38,46.0
4134,F5,422.917,167/1000,48,46.0
4135,F4,422.917,167/1000,36,46.0
4136,E-5,423.083,167/1000,47,46.0
4137,G#4,423.083,167/1000,35,46.0
4138,C5,423.25,167/1000,52,46.0
4139,B-4,423.25,1.5,42,46.0
4140,C#5,423.25,1.5,42,46.0
4141,C#5,423.417,167/1000,46,46.0
4142,E-5,423.583,167/1000,45,46.0
4143,F5,423.75,167/1000,47,46.0
4144,G#5,423.75,0.5,58,46.0
4145,D5,423.917,167/1000,44,46.0
4146,C#5,424.083,167/1000,43,46.0
4147,E5,424.25,1.0,51,46.0
4148,G5,424.25,1.5,56,46.0
4149,C#6,424.25,1.5,56,46.0
4150,G4,424.75,1.0,35,46.0
4151,B-4,424.75,1.0,35,46.0
4152,E-5,425.25,0.5,51,46.0
4153,E-6,425.75,1.0,47,46.0
4154,B-5,425.75,1.0,47,46.0
4155,E-5,425.75,1.0,47,46.0
4156,E-4,425.75,0.5,28,46.0
4157,G4,425.75,0.5,28,46.0
4158,B-4,426.25,0.25,41,46.0
4159,G4,426.5,0.25,37,46.0
4160,G#3,426.75,0.5,36,46.0
4161,G#4,426.75,0.25,46,46.0
4162,C#5,426.75,0.5,46,46.0
4163,E-5,426.75,0.5,46,46.0
4164,B-5,426.75,0.5,46,46.0
4165,E-4,427.0,0.25,37,46.0
4166,B2,427.25,0.5,49,46.0
4167,C#4,427.25,0.25,49,46.0
4168,C#5,427.25,0.25,56,46.0
4169,C#6,427.25,0.25,56,46.0
4170,B3,427.5,0.25,47,46.0
4171,B-4,427.5,0.25,52,46.0
4172,B-5,427.5,0.25,52,46.0
4173,B5,427.75,0.25,68,46.0
4174,B4,427.75,0.25,68,46.0
4175,C#3,427.75,0.5,50,46.0
4176,B-3,427.75,0.5,50,46.0
4177,E-5,428.0,0.25,66,46.0
4178,E-6,428.0,0.25,66,46.0
4179,B-6,428.25,0.25,73,46.0
4180,B-5,428.25,0.25,73,46.0
4181,C#2,428.25,0.25,40,46.0
4182,B-2,428.25,0.25,40,46.0
4183,G#6,428.5,0.5,68,46.0
4184,G#5,428.5,0.5,68,46.0
4185,C#2,428.5,0.375,40,46.0
4186,C#3,428.5,0.375,40,46.0
4187,B1,428.875,0.125,49,46.0
4188,B2,428.875,0.125,49,46.0
4189,F#6,429.0,0.5,66,46.0
4190,F#5,429.0,0.5,66,46.0
4191,B-1,429.0,0.125,50,46.0
4192,B-2,429.0,0.125,50,46.0
4193,B1,429.125,0.125,52,46.0
4194,B2,429.125,0.125,52,46.0
4195,B-1,429.25,0.125,52,46.0
4196,C#2,429.375,0.125,44,46.0
4197,E2,429.5,0.125,43,46.0
4198,F#4,429.5,0.25,60,46.0
4199,B-4,429.5,0.25,60,46.0
4200,F#5,429.5,0.25,60,46.0
4201,G2,429.625,0.125,42,46.0
4202,B-2,429.75,0.125,41,46.0
4203,F4,429.75,0.25,62,46.0
4204,F5,429.75,0.25,62,46.0
4205,G#4,429.75,0.25,62,46.0
4206,C#3,429.875,0.125,40,46.0
4207,E3,430.0,0.125,39,46.0
4208,C#5,430.0,0.25,67,46.0
4209,E4,430.0,0.25,67,46.0
4210,E5,430.0,0.25,67,46.0
4211,G4,430.0,0.25,67,46.0
4212,G3,430.125,0.125,38,46.0
4213,E4,430.25,1.0,48,46.0
4214,G4,430.25,1.0,48,46.0
4215,C#5,430.25,1.0,48,46.0
4216,E5,430.25,1.0,48,46.0
4217,B-3,430.25,0.125,36,46.0
4218,C#4,430.25,0.125,36,46.0
4219,E4,430.375,0.125,27,46.0
4220,B3,430.5,0.125,27,46.0
4221,E-4,430.625,0.125,27,46.0
4222,B2,430.75,1.0,24,46.0
4223,B3,430.75,1.0,24,46.0
4224,C#5,431.25,0.125,40,46.0
4225,E5,431.25,0.25,51,46.0
4226,G4,431.375,0.125,40,46.0
4227,E-5,431.5,0.25,40,46.0
4228,B4,431.5,0.125,40,46.0
4229,F#4,431.625,0.125,40,46.0
4230,D4,431.75,1.0,30,46.0
4231,F#4,431.75,1.0,30,46.0
4232,B-4,431.75,1.0,30,46.0
4233,D5,431.75,1.0,30,46.0
4234,C#2,432.25,167/1000,39,46.0
4235,F#2,432.417,167/1000,34,46.0
4236,B-2,432.583,167/1000,34,46.0
4237,C#3,432.75,167/1000,31,46.0
4238,F#3,432.917,167/1000,31,46.0
4239,B-3,433.083,167/1000,31,46.0
4240,C#5,433.25,1.25,61,46.0
4241,C#3,433.25,0.25,39,46.0
4242,F#3,433.25,0.125,38,46.0
4243,F#4,433.25,1.0,51,46.0
4244,B-4,433.25,1.0,51,46.0
4245,C#4,433.25,1.0,51,46.0
4246,B-3,433.375,0.125,34,46.0
4247,E-3,433.5,0.25,28,46.0
4248,F#3,433.5,0.125,34,46.0
4249,A3,433.625,0.125,34,46.0
4250,D3,433.75,0.5,34,46.0
4251,F3,433.75,0.5,34,46.0
4252,G#3,433.75,0.5,34,46.0
4253,B3,433.75,0.5,34,46.0
4254,B-4,434.25,0.125,40,46.0
4255,D3,434.25,0.75,26,46.0
4256,F3,434.25,0.75,26,46.0
4257,G#3,434.25,0.75,26,46.0
4258,B3,434.25,0.75,26,46.0
4259,F#4,434.375,0.125,40,46.0
4260,A4,434.5,0.125,40,46.0
4261,C5,434.5,0.25,40,46.0
4262,F#4,434.625,0.125,40,46.0
4263,F4,434.75,0.5,42,46.0
4264,B4,434.75,0.5,42,46.0
4265,G#4,434.75,0.5,42,46.0
4266,D4,434.75,0.5,42,46.0
4267,E-3,435.0,0.25,24,46.0
4268,G3,435.0,0.25,24,46.0
4269,B-3,435.0,0.25,24,46.0
4270,E-3,435.25,99/100,27,46.0
4271,G3,435.25,99/100,27,46.0
4272,B-3,435.25,99/100,27,46.0
4273,E-3,436.25,62/125,23,46.0
4274,G3,436.25,62/125,23,46.0
4275,B-3,436.25,62/125,23,46.0
4276,E-4,436.25,62/125,23,46.0
4277,E-3,436.75,99/100,26,46.0
4278,G3,436.75,99/100,26,46.0
4279,B-3,436.75,99/100,26,46.0
4280,E-4,436.75,99/100,26,46.0
4281,G4,437.75,99/100,42,46.0
4282,B-4,437.75,99/100,42,46.0
4283,E-3,437.75,62/125,23,46.0
4284,G3,437.75,62/125,23,46.0
4285,B-3,437.75,62/125,23,46.0
4286,E-4,437.75,62/125,23,46.0
4287,E-2,438.25,0.5,28,46.0
4288,E-3,438.25,0.5,28,46.0
4289,G4,438.75,0.5,38,46.0
4290,B-4,438.75,0.5,38,46.0
4291,E-5,438.75,0.5,38,46.0
4292,B-1,438.75,1.0,28,46.0
4293,B-2,438.75,1.0,28,46.0
4294,G4,439.25,1.0,40,46.0
4295,E-4,439.25,1.0,40,46.0
4296,B-4,439.25,1.0,40,46.0
4297,E-5,439.25,1.0,40,46.0
4298,B1,439.75,0.5,28,46.0
4299,B2,439.75,0.5,28,46.0
4300,E-4,440.25,0.5,39,46.0
4301,E-5,440.25,0.5,39,46.0
4302,G4,440.25,0.5,39,46.0
4303,C#2,440.25,1.0,23,46.0
4304,C#3,440.25,1.0,23,46.0
4305,E-4,440.75,0.5,40,46.0
4306,F#4,440.75,0.5,40,46.0
4307,E-5,440.75,0.5,40,46.0
4308,C#4,441.25,1.0,37,46.0
4309,C#5,441.25,1.0,37,46.0
4310,F4,441.25,1.0,37,46.0
4311,F#1,441.25,1.0,22,46.0
4312,F#2,441.25,1.0,22,46.0
4313,B-3,442.25,0.5,22,46.0
4314,C#4,442.25,1.0,36,46.0
4315,F#4,442.25,1.0,36,46.0
4316,B-4,442.25,1.0,36,46.0
4317,C#5,442.25,1.0,36,46.0
4318,C#3,442.75,1.0,24,46.0
4319,B-4,443.25,0.5,33,46.0
4320,C#4,443.75,1.0,42,46.0
4321,C#4,443.75,0.5,21,46.0
4322,B-3,444.25,1.0,24,46.0
4323,C#5,444.75,0.5,36,46.0
4324,B-4,445.25,1.0,40,46.0
4325,C#2,445.25,1.0,31,46.0
4326,C#3,445.25,1.0,31,46.0
4327,B-5,446.25,0.5,52,46.0
4328,C#5,446.25,0.5,52,46.0
4329,B-4,446.25,0.5,52,46.0
4330,E-2,446.25,0.25,34,46.0
4331,E-3,446.25,0.25,34,46.0
4332,C#2,446.5,0.25,34,46.0
4333,C#3,446.5,0.25,34,46.0
4334,G#4,446.75,1.0,56,46.0
4335,G#5,446.75,1.0,56,46.0
4336,B4,446.75,1.0,56,46.0
4337,E-3,446.75,0.25,29,46.0
4338,C#3,446.75,0.25,29,46.0
4339,E-2,446.75,0.25,29,46.0
4340,F2,447.0,0.25,29,46.0
4341,C#3,447.0,0.25,29,46.0
4342,F3,447.0,0.25,29,46.0
4343,C#3,447.25,1.0,32,46.0
4344,F#2,447.25,1.0,32,46.0
4345,F#3,447.25,1.0,32,46.0
4346,C#5,447.75,0.5,45,46.0
4347,B4,447.75,0.5,45,46.0
4348,G#4,447.75,0.5,45,46.0
4349,C#4,447.75,0.5,45,46.0
4350,B-4,448.25,0.5,33,46.0
4351,C#5,448.25,1.0,48,46.0
4352,C#4,448.25,1.0,48,46.0
4353,B-4,448.25,1.0,48,46.0
4354,C#4,448.75,1.0,37,46.0
4355,B-5,449.25,0.5,51,46.0
4356,C#5,449.75,1.0,50,46.0
4357,B-1,449.75,0.5,31,46.0
4358,B-2,449.75,0.5,31,46.0
4359,C#2,450.25,0.5,37,46.0
4360,C#3,450.25,0.5,37,46.0
4361,C#6,450.75,0.5,54,46.0
4362,C#5,450.75,0.5,54,46.0
4363,C#3,450.75,0.5,31,46.0
4364,C#4,450.75,0.5,31,46.0
4365,B-4,451.25,1.0,59,46.0
4366,B-5,451.25,1.0,59,46.0
4367,B-2,451.25,0.5,32,46.0
4368,C#3,451.25,0.5,32,46.0
4369,B-3,451.25,0.5,32,46.0
4370,G#2,451.75,1.0,38,46.0
4371,C#3,451.75,1.0,38,46.0
4372,G#3,451.75,1.0,38,46.0
4373,C#5,452.25,1.0,57,46.0
4374,C#6,452.25,1.0,57,46.0
4375,C#2,452.75,0.5,37,46.0
4376,C#3,452.75,0.5,37,46.0
4377,C#6,453.25,0.25,56,46.0
4378,E-5,453.25,0.5,62,46.0
4379,E-6,453.25,0.5,62,46.0
4380,F#2,453.25,1.5,38,46.0
4381,C#3,453.25,1.5,38,46.0
4382,F#3,453.25,1.5,38,46.0
4383,B5,453.5,0.25,61,46.0
4384,B-5,453.75,0.25,67,46.0
4385,F6,453.75,0.5,62,46.0
4386,F5,453.75,0.5,62,46.0
4387,B5,454.0,0.25,60,46.0
4388,B-5,454.25,1.5,60,46.0
4389,F#6,454.25,1.5,60,46.0
4390,F#5,454.25,1.5,60,46.0
4391,C#2,454.75,1.5,30,46.0
4392,C#3,454.75,1.5,30,46.0
4393,G#5,455.75,1.5,51,46.0
4394,F6,455.75,1.5,51,46.0
4395,G#6,455.75,1.5,51,46.0
4396,F#1,456.25,1.0,24,46.0
4397,F#2,456.25,1.0,24,46.0
4398,C#6,456.75,0.5,52,46.0
4399,B-6,457.25,1.0,38,46.0
4400,F#6,457.25,1.0,38,46.0
4401,C#6,457.25,1.0,38,46.0
4402,B-5,457.25,1.0,38,46.0
4403,F#2,457.25,62/125,24,46.0
4404,F#3,457.25,62/125,24,46.0
4405,F#2,457.75,1.0,27,46.0
4406,F#3,457.75,1.0,27,46.0
4407,B-4,458.25,62/125,38,46.0
4408,C#5,458.25,62/125,38,46.0
4409,B-5,458.25,62/125,38,46.0
4410,C#6,458.75,0.75,54,46.0
4411,B-5,458.75,0.75,54,46.0
4412,C#5,458.75,0.75,54,46.0
4413,F#2,458.75,0.375,40,46.0
4414,F#3,458.75,0.375,40,46.0
4415,E2,459.125,0.125,34,46.0
4416,E3,459.125,0.125,34,46.0
4417,D2,459.25,1.5,30,46.0
4418,D3,459.25,1.5,30,46.0
4419,D6,459.5,0.25,60,46.0
4420,B5,459.5,0.25,60,46.0
4421,D5,459.5,0.25,60,46.0
4422,E6,459.75,0.25,64,46.0
4423,C#6,459.75,0.25,64,46.0
4424,E5,459.75,0.25,64,46.0
4425,F#6,460.0,31/125,50,46.0
4426,D6,460.0,31/125,50,46.0
4427,F#5,460.0,31/125,50,46.0
4428,F#6,460.25,1.0,47,46.0
4429,F#5,460.25,1.0,47,46.0
4430,F#2,460.75,1.5,28,46.0
4431,F#3,460.75,1.5,28,46.0
4432,D6,461.25,123/250,37,46.0
4433,D5,461.25,123/250,37,46.0
4434,D6,461.75,0.5,42,46.0
4435,D5,461.75,0.5,42,46.0
4436,B5,462.25,0.5,40,46.0
4437,B4,462.25,0.5,40,46.0
4438,B2,462.25,1.0,28,46.0
4439,B3,462.25,1.0,28,46.0
4440,C#5,462.75,0.5,40,46.0
4441,C#6,462.75,0.5,40,46.0
4442,D5,463.25,1.0,43,46.0
4443,D6,463.25,1.0,43,46.0
4444,B2,464.25,0.5,28,46.0
4445,B3,464.25,0.5,28,46.0
4446,G2,464.75,0.25,24,46.0
4447,G3,464.75,0.25,24,46.0
4448,D2,465.0,61/250,24,46.0
4449,D3,465.0,61/250,24,46.0
4450,D2,465.25,1.0,28,46.0
4451,D3,465.25,1.0,28,46.0
4452,B4,466.25,1.5,43,46.0
4453,B5,466.25,1.5,43,46.0
4454,B1,466.25,62/125,24,46.0
4455,B2,466.25,62/125,24,46.0
4456,B1,466.75,0.5,28,46.0
4457,B2,466.75,0.5,28,46.0
4458,G1,467.25,0.5,24,46.0
4459,G2,467.25,0.5,24,46.0
4460,D5,467.75,1.5,43,46.0
4461,D6,467.75,1.5,43,46.0
4462,A1,467.75,0.5,24,46.0
4463,A2,467.75,0.5,24,46.0
4464,B1,468.25,0.5,50,46.0
4465,B2,468.25,0.5,50,46.0
4466,B2,468.75,0.5,54,46.0
4467,G3,468.75,0.5,54,46.0
4468,G6,469.25,2.0,74,46.0
4469,G5,469.25,2.0,74,46.0
4470,C3,469.25,0.5,57,46.0
4471,A3,469.25,0.5,57,46.0
4472,D3,469.75,0.5,60,46.0
4473,B3,469.75,0.5,60,46.0
4474,B3,470.25,0.5,42,46.0
4475,G3,470.25,0.5,42,46.0
4476,D3,470.75,0.25,35,46.0
4477,C4,470.75,0.25,35,46.0
4478,A3,470.75,0.25,35,46.0
4479,B3,471.0,0.25,31,46.0
4480,G3,471.0,0.25,31,46.0
4481,G3,471.25,2.5,36,46.0
4482,B3,471.25,169/1000,42,46.0
4483,B4,471.25,0.5,50,46.0
4484,D5,471.25,0.5,50,46.0
4485,E4,471.419,167/1000,37,46.0
4486,D4,471.583,167/1000,37,46.0
4487,C#4,471.75,169/1000,42,46.0
4488,F#4,471.75,0.25,48,46.0
4489,C5,471.75,0.25,48,46.0
4490,E4,471.917,167/1000,38,46.0
4491,G4,472.0,0.25,44,46.0
4492,B4,472.0,0.25,44,46.0
4493,D4,472.083,0.125,38,46.0
4494,B3,472.25,169/1000,42,46.0
4495,G4,472.25,0.5,47,46.0
4496,B4,472.25,0.5,47,46.0
4497,E4,472.419,167/1000,37,46.0
4498,D4,472.583,0.125,37,46.0
4499,C#4,472.75,169/1000,42,46.0
4500,E4,472.917,167/1000,37,46.0
4501,D4,473.083,0.125,37,46.0
4502,G2,473.25,99/100,58,46.0
4503,B3,473.25,169/1000,42,46.0
4504,E4,473.419,167/1000,38,46.0
4505,D4,473.583,0.125,38,46.0
4506,G3,473.75,0.5,36,46.0
4507,B3,473.75,169/1000,42,46.0
4508,E-4,473.917,167/1000,38,46.0
4509,D4,474.083,0.125,38,46.0
4510,G2,474.25,62/125,58,46.0
4511,F#3,474.25,0.5,36,46.0
4512,A3,474.25,169/1000,42,46.0
4513,E4,474.417,167/1000,37,46.0
4514,D4,474.583,0.125,37,46.0
4515,G2,474.75,167/1000,56,46.0
4516,G3,474.75,0.5,36,46.0
4517,B3,474.75,169/1000,42,46.0
4518,F#2,474.917,167/1000,50,46.0
4519,E4,474.917,167/1000,38,46.0
4520,G2,475.083,0.125,50,46.0
4521,D4,475.083,0.125,38,46.0
4522,D2,475.25,99/100,52,46.0
4523,A3,475.25,0.5,38,46.0
4524,C4,475.25,169/1000,46,46.0
4525,E4,475.417,167/1000,40,46.0
4526,D4,475.583,0.125,40,46.0
4527,A3,475.75,0.5,38,46.0
4528,C4,475.75,169/1000,45,46.0
4529,E4,475.917,167/1000,38,46.0
4530,D4,476.083,0.125,38,46.0
4531,D2,476.25,99/100,52,46.0
4532,G3,476.25,0.5,36,46.0
4533,B3,476.25,169/1000,42,46.0
4534,E4,476.417,167/1000,36,46.0
4535,D4,476.583,0.125,36,46.0
4536,F#3,476.75,0.5,35,46.0
4537,B-3,476.75,167/1000,41,46.0
4538,E4,476.917,167/1000,38,46.0
4539,D4,477.083,0.125,38,46.0
4540,D2,477.25,1.0,52,46.0
4541,G3,477.25,2.5,36,46.0
4542,B3,477.25,169/1000,42,46.0
4543,E4,477.419,167/1000,37,46.0
4544,D4,477.583,167/1000,37,46.0
4545,C#4,477.75,169/1000,43,46.0
4546,E4,477.917,167/1000,38,46.0
4547,D4,478.083,0.125,39,46.0
4548,B1,478.25,0.5,48,46.0
4549,B3,478.25,169/1000,44,46.0
4550,E4,478.419,167/1000,38,46.0
4551,D4,478.583,0.125,39,46.0
4552,C#4,478.75,169/1000,46,46.0
4553,E4,478.917,167/1000,39,46.0
4554,D4,479.083,0.125,40,46.0
4555,B3,479.25,169/1000,47,46.0
4556,G6,479.25,99/100,63,46.0
4557,G5,479.25,99/100,63,46.0
4558,E4,479.419,167/1000,42,46.0
4559,D4,479.583,0.125,42,46.0
4560,G3,479.75,0.5,40,46.0
4561,B3,479.75,169/1000,48,46.0
4562,E-4,479.917,167/1000,43,46.0
4563,D4,480.083,0.125,43,46.0
4564,F#3,480.25,0.5,41,46.0
4565,A3,480.25,169/1000,50,46.0
4566,G5,480.25,62/125,63,46.0
4567,G6,480.25,62/125,63,46.0
4568,E4,480.417,167/1000,43,46.0
4569,D4,480.583,0.125,43,46.0
4570,G3,480.75,0.5,42,46.0
4571,B3,480.75,169/1000,51,46.0
4572,G6,480.75,169/1000,61,46.0
4573,G5,480.75,169/1000,61,46.0
4574,E4,480.917,167/1000,45,46.0
4575,F#5,480.917,167/1000,54,46.0
4576,F#6,480.917,167/1000,54,46.0
4577,D4,481.083,0.125,46,46.0
4578,G5,481.083,0.125,50,46.0
4579,G6,481.083,0.125,50,46.0
4580,A3,481.25,0.5,47,46.0
4581,C4,481.25,169/1000,57,46.0
4582,D6,481.25,99/100,63,46.0
4583,D5,481.25,99/100,63,46.0
4584,E4,481.417,167/1000,50,46.0
4585,D4,481.583,0.125,51,46.0
4586,A3,481.75,0.5,47,46.0
4587,C4,481.75,169/1000,57,46.0
4588,E4,481.917,167/1000,48,46.0
4589,D4,482.083,0.125,48,46.0
4590,G3,482.25,0.5,46,46.0
4591,B3,482.25,169/1000,55,46.0
4592,D5,482.25,99/100,66,46.0
4593,D6,482.25,99/100,66,46.0
4594,E4,482.417,167/1000,46,46.0
4595,D4,482.583,0.125,47,46.0
4596,F#3,482.75,0.5,46,46.0
4597,B-3,482.75,167/1000,55,46.0
4598,E4,482.917,167/1000,50,46.0
4599,D4,483.083,0.125,38,46.0
4600,F#3,483.25,0.5,45,46.0
4601,B-3,483.25,167/1000,55,46.0
4602,D5,483.25,99/100,68,46.0
4603,D6,483.25,99/100,68,46.0
4604,E4,483.417,167/1000,50,46.0
4605,D4,483.583,0.125,51,46.0
4606,G3,483.75,0.5,50,46.0
4607,B3,483.75,169/1000,60,46.0
4608,E4,483.917,167/1000,54,46.0
4609,D4,484.083,0.125,55,46.0
4610,G#3,484.25,0.5,57,46.0
4611,B3,484.25,169/1000,69,46.0
4612,D6,484.25,99/100,68,46.0
4613,D5,484.25,99/100,68,46.0
4614,E4,484.417,167/1000,61,46.0
4615,D4,484.583,0.125,63,46.0
4616,G#3,484.75,0.5,59,46.0
4617,B3,484.75,167/1000,70,46.0
4618,E4,484.917,167/1000,60,46.0
4619,D4,485.083,0.125,61,46.0
4620,G#3,485.25,0.5,54,46.0
4621,B3,485.25,169/1000,60,46.0
4622,D5,485.25,99/100,76,46.0
4623,D6,485.25,99/100,76,46.0
4624,F4,485.417,167/1000,54,46.0
4625,D4,485.583,0.125,55,46.0
4626,G#3,485.75,0.5,53,46.0
4627,B3,485.75,169/1000,63,46.0
4628,F4,485.917,167/1000,57,46.0
4629,D4,486.083,0.125,57,46.0
4630,A3,486.25,0.5,55,46.0
4631,D4,486.25,167/1000,67,46.0
4632,D5,486.25,667/1000,80,46.0
4633,D6,486.25,667/1000,80,46.0
4634,F#4,486.417,167/1000,58,46.0
4635,E4,486.583,0.125,59,46.0
4636,B-3,486.75,0.5,58,46.0
4637,D4,486.75,169/1000,70,46.0
4638,F#4,486.917,167/1000,62,46.0
4639,C#5,486.917,167/1000,68,46.0
4640,C#6,486.917,167/1000,68,46.0
4641,E4,487.083,0.125,64,46.0
4642,D5,487.083,81/500,68,46.0
4643,D6,487.083,81/500,68,46.0
4644,B3,487.25,0.5,66,46.0
4645,D4,487.25,169/1000,79,46.0
4646,F#5,487.25,99/100,78,46.0
4647,D6,487.25,99/100,78,46.0
4648,D5,487.25,99/100,78,46.0
4649,F#4,487.417,167/1000,71,46.0
4650,E4,487.583,0.125,72,46.0
4651,B3,487.75,0.5,68,46.0
4652,D4,487.75,167/1000,81,46.0
4653,F#4,487.917,167/1000,69,46.0
4654,E4,488.083,0.125,70,46.0
4655,B3,488.25,0.5,62,46.0
4656,D4,488.25,169/1000,69,46.0
4657,F#5,488.25,99/100,86,46.0
4658,D5,488.25,99/100,86,46.0
4659,D6,488.25,99/100,86,46.0
4660,F#4,488.417,167/1000,63,46.0
4661,E4,488.583,0.125,63,46.0
4662,B3,488.75,0.5,61,46.0
4663,D4,488.75,169/1000,72,46.0
4664,F4,488.917,167/1000,65,46.0
4665,F#4,489.083,0.125,66,46.0
4666,B3,489.25,0.5,63,46.0
4667,D4,489.25,167/1000,76,46.0
4668,F#5,489.25,667/1000,92,46.0
4669,F#6,489.25,667/1000,92,46.0
4670,G4,489.417,167/1000,66,46.0
4671,F#4,489.583,0.125,67,46.0
4672,C4,489.75,0.5,66,46.0
4673,E-4,489.75,167/1000,79,46.0
4674,G#4,489.917,167/1000,71,46.0
4675,F5,489.917,167/1000,77,46.0
4676,F6,489.917,167/1000,77,46.0
4677,F#4,490.083,0.125,73,46.0
4678,F#5,490.083,81/500,78,46.0
4679,F#6,490.083,81/500,78,46.0
4680,C4,490.25,0.5,71,46.0
4681,E-4,490.25,167/1000,84,46.0
4682,F#5,490.25,99/100,91,46.0
4683,F#6,490.25,99/100,91,46.0
4684,A4,490.417,167/1000,72,46.0
4685,F#4,490.583,0.125,72,46.0
4686,C3,490.75,0.5,73,46.0
4687,E-3,490.75,167/1000,86,46.0
4688,A3,490.917,167/1000,74,46.0
4689,F#3,491.083,0.125,74,46.0
4690,C4,491.25,0.5,69,46.0
4691,E-4,491.25,167/1000,82,46.0
4692,F#5,491.25,0.75,103,46.0
4693,F#6,491.25,0.75,103,46.0
4694,A4,491.417,167/1000,73,46.0
4695,F#4,491.583,0.125,73,46.0
4696,C3,491.75,0.5,71,46.0
4697,E-3,491.75,167/1000,84,46.0
4698,A3,491.917,167/1000,76,46.0
4699,F#3,492.083,0.125,76,46.0
4700,C4,492.25,3/40,81,46.0
4701,F#5,492.25,0.75,103,46.0
4702,F#6,492.25,0.75,103,46.0
4703,A4,492.375,0.125,74,46.0
4704,F#4,492.5,0.125,68,46.0
4705,E-4,492.5,0.125,68,46.0
4706,A4,492.625,0.125,74,46.0
4707,C3,492.75,3/40,81,46.0
4708,A3,492.875,0.125,75,46.0
4709,E-3,493.0,0.125,69,46.0
4710,F#3,493.0,0.125,69,46.0
4711,A3,493.125,0.125,75,46.0
4712,C4,493.25,3/40,81,46.0
4713,F#6,493.25,31/125,102,46.0
4714,F#5,493.25,31/125,102,46.0
4715,A4,493.375,0.125,74,46.0
4716,F#6,493.5,62/125,102,46.0
4717,F#4,493.5,0.125,68,46.0
4718,E-4,493.5,0.125,68,46.0
4719,A4,493.625,0.125,74,46.0
4720,C3,493.75,1/20,81,46.0
4721,A3,493.833,83/1000,73,46.0
4722,E-3,493.917,83/1000,73,46.0
4723,F#3,493.917,83/1000,73,46.0
4724,F#6,494.0,62/125,103,46.0
4725,A3,494.002,83/1000,73,46.0
4726,E-3,494.083,83/1000,68,46.0
4727,F#3,494.083,83/1000,68,46.0
4728,A3,494.167,83/1000,73,46.0
4729,C4,494.25,1/20,81,46.0
4730,A4,494.333,83/1000,73,46.0
4731,E-4,494.417,83/1000,73,46.0
4732,F#4,494.417,83/1000,73,46.0
4733,F#6,494.5,62/125,104,46.0
4734,A4,494.502,83/1000,73,46.0
4735,E-4,494.583,83/1000,68,46.0
4736,F#4,494.583,83/1000,68,46.0
4737,A4,494.667,83/1000,73,46.0
4738,C3,494.75,1/20,81,46.0
4739,A3,494.833,83/1000,74,46.0
4740,E-3,494.917,83/1000,74,46.0
4741,F#3,494.917,83/1000,74,46.0
4742,F#6,495.0,62/125,106,46.0
4743,A3,495.002,83/1000,74,46.0
4744,E-3,495.083,83/1000,68,46.0
4745,F#3,495.083,83/1000,68,46.0
4746,A3,495.167,83/1000,74,46.0
4747,C#4,495.25,1.0,38,46.0
4748,F#6,495.5,62/125,107,46.0
4749,F#6,496.0,0.25,108,46.0
4750,C#5,496.25,1.0,48,46.0
4751,A3,496.25,62/125,33,46.0
4752,A3,496.75,0.5,35,46.0
4753,A4,497.25,62/125,42,46.0
4754,F#3,497.25,0.5,31,46.0
4755,A4,497.75,0.5,47,46.0
4756,C#3,497.75,0.5,28,46.0
4757,G#3,497.75,0.5,28,46.0
4758,F#4,498.25,0.5,41,46.0
4759,F#2,498.25,1.0,31,46.0
4760,F#3,498.25,1.0,31,46.0
4761,F4,498.75,0.5,36,46.0
4762,G#4,498.75,0.5,36,46.0
4763,C#4,498.75,0.5,36,46.0
4764,A3,499.25,1.0,44,46.0
4765,F#4,499.25,1.0,44,46.0
4766,A4,499.25,1.0,44,46.0
4767,C#4,499.25,1.0,44,46.0
4768,F#2,499.25,0.5,38,46.0
4769,F#3,499.25,0.5,38,46.0
4770,B1,499.75,1.0,40,46.0
4771,B2,499.75,1.0,40,46.0
4772,B-3,500.25,0.5,49,46.0
4773,C#4,500.25,0.5,49,46.0
4774,F#4,500.25,0.5,49,46.0
4775,B-4,500.25,0.5,49,46.0
4776,D4,500.75,1.0,54,46.0
4777,B3,500.75,1.0,54,46.0
4778,B4,500.75,1.0,54,46.0
4779,F#4,500.75,1.0,54,46.0
4780,B1,500.75,0.5,45,46.0
4781,B2,500.75,0.5,45,46.0
4782,G#1,501.25,1.0,52,46.0
4783,G#2,501.25,1.0,52,46.0
4784,B4,501.75,0.5,58,46.0
4785,F#4,501.75,0.5,58,46.0
4786,D4,501.75,0.5,58,46.0
4787,D5,501.75,0.5,58,46.0
4788,B4,502.25,1.0,70,46.0
4789,D4,502.25,1.0,70,46.0
4790,D5,502.25,1.0,70,46.0
4791,F4,502.25,1.0,70,46.0
4792,A1,502.25,62/125,44,46.0
4793,A2,502.25,62/125,44,46.0
4794,A1,502.75,0.5,52,46.0
4795,A2,502.75,0.5,52,46.0
4796,A4,503.25,62/125,58,46.0
4797,F#4,503.25,62/125,58,46.0
4798,C#5,503.25,62/125,58,46.0
4799,C#4,503.25,62/125,58,46.0
4800,B1,503.25,0.5,47,46.0
4801,B2,503.25,0.5,47,46.0
4802,A4,503.75,0.5,66,46.0
4803,F#4,503.75,0.5,66,46.0
4804,C#5,503.75,0.5,66,46.0
4805,C#4,503.75,0.5,66,46.0
4806,C3,503.75,0.5,46,46.0
4807,C2,503.75,0.5,46,46.0
4808,B3,504.25,0.5,58,46.0
4809,D4,504.25,0.5,58,46.0
4810,G#4,504.25,0.5,58,46.0
4811,B4,504.25,0.5,58,46.0
4812,C2,504.25,0.5,38,46.0
4813,C3,504.25,0.5,38,46.0
4814,F#4,504.75,0.5,58,46.0
4815,E-4,504.75,0.5,58,46.0
4816,A3,504.75,0.5,58,46.0
4817,A4,504.75,0.5,58,46.0
4818,C#2,504.75,0.75,42,46.0
4819,C#3,504.75,0.75,42,46.0
4820,F#4,505.25,1.0,50,46.0
4821,A3,505.25,1.0,50,46.0
4822,A4,505.25,1.0,50,46.0
4823,E-4,505.25,1.0,50,46.0
4824,C2,505.5,0.25,37,46.0
4825,C3,505.5,0.25,37,46.0
4826,C#4,505.75,1.0,46,46.0
4827,C#2,505.75,0.5,44,46.0
4828,C#3,505.75,0.5,44,46.0
4829,F4,506.25,0.5,49,46.0
4830,G#3,506.25,0.5,49,46.0
4831,G#4,506.25,0.5,49,46.0
4832,C#2,506.25,0.5,42,46.0
4833,C#3,506.25,0.5,42,46.0
4834,F4,506.75,0.5,56,46.0
4835,C#4,506.75,0.5,56,46.0
4836,G#4,506.75,0.5,56,46.0
4837,G#3,506.75,0.5,56,46.0
4838,D3,506.75,0.5,44,46.0
4839,D2,506.75,0.5,44,46.0
4840,G4,507.25,1.0,60,46.0
4841,G3,507.25,0.5,49,46.0
4842,B-3,507.25,0.5,49,46.0
4843,E4,507.25,0.5,49,46.0
4844,G2,507.25,1.5,36,46.0
4845,G1,507.25,1.5,36,46.0
4846,D2,507.25,1.5,36,46.0
4847,D4,507.75,0.375,52,46.0
4848,B3,507.75,0.375,52,46.0
4849,G3,507.75,0.375,52,46.0
4850,G4,508.125,0.125,53,46.0
4851,B5,508.25,1.0,65,46.0
4852,B4,508.75,0.5,55,46.0
4853,G2,508.75,1.5,32,46.0
4854,B1,508.75,1.5,32,46.0
4855,D3,508.75,1.5,32,46.0
4856,A4,509.25,62/125,57,46.0
4857,A5,509.25,62/125,57,46.0
4858,A4,509.75,0.5,60,46.0
4859,A5,509.75,0.5,60,46.0
4860,G4,510.25,0.5,54,46.0
4861,G5,510.25,0.5,54,46.0
4862,C2,510.25,1.5,35,46.0
4863,E3,510.25,1.5,35,46.0
4864,G2,510.25,1.5,35,46.0
4865,F#4,510.75,62/125,54,46.0
4866,F#5,510.75,62/125,54,46.0
4867,F#4,511.25,0.5,60,46.0
4868,F#5,511.25,0.5,60,46.0
4869,E4,511.75,0.5,54,46.0
4870,E5,511.75,0.5,54,46.0
4871,B1,511.75,0.5,31,46.0
4872,G2,511.75,0.5,31,46.0
4873,D3,511.75,0.5,31,46.0
4874,G2,512.25,0.75,46,46.0
4875,F#4,512.25,62/125,54,46.0
4876,F#5,512.25,62/125,54,46.0
4877,D2,512.75,0.5,32,46.0
4878,F#4,512.75,0.5,56,46.0
4879,F#5,512.75,0.5,56,46.0
4880,F#2,513.0,31/125,38,46.0
4881,G4,513.25,0.75,57,46.0
4882,G5,513.25,0.75,57,46.0
4883,D2,513.25,0.5,32,46.0
4884,F#2,513.25,0.5,32,46.0
4885,C#2,513.75,0.5,30,46.0
4886,A2,513.75,0.5,30,46.0
4887,F#3,514.0,31/125,44,46.0
4888,F#4,514.0,31/125,44,46.0
4889,F#3,514.25,0.5,52,46.0
4890,F#4,514.25,0.5,52,46.0
4891,C#2,514.25,62/125,28,46.0
4892,C#3,514.25,62/125,28,46.0
4893,A3,514.75,0.5,49,46.0
4894,A4,514.75,0.5,49,46.0
4895,C#2,514.75,1.0,32,46.0
4896,C#3,514.75,1.0,32,46.0
4897,C#4,515.25,62/125,45,46.0
4898,F#4,515.25,62/125,45,46.0
4899,A4,515.25,62/125,45,46.0
4900,C#5,515.25,62/125,45,46.0
4901,C#4,515.75,1.0,47,46.0
4902,C#5,515.75,1.0,47,46.0
4903,F4,515.75,1.0,47,46.0
4904,G#4,515.75,1.0,47,46.0
4905,F#2,515.75,62/125,30,46.0
4906,C#3,515.75,62/125,30,46.0
4907,F#2,516.25,519/1000,32,46.0
4908,C#3,516.25,519/1000,32,46.0
4909,B1,516.75,1.5,27,46.0
4910,D3,516.75,0.5,32,46.0
4911,C#4,516.75,62/125,38,46.0
4912,C#5,516.75,62/125,38,46.0
4913,A4,516.75,62/125,38,46.0
4914,F#4,516.75,62/125,38,46.0
4915,G2,517.25,0.5,32,46.0
4916,A4,517.25,0.5,43,46.0
4917,C#4,517.25,0.5,43,46.0
4918,C#5,517.25,0.5,43,46.0
4919,B2,517.75,0.5,35,46.0
4920,D4,517.75,0.5,38,46.0
4921,D5,517.75,0.5,38,46.0
4922,G4,517.75,0.5,38,46.0
4923,C#2,518.25,0.5,35,46.0
4924,G3,518.25,0.5,40,46.0
4925,G4,518.25,0.5,40,46.0
4926,C#2,518.75,0.5,33,46.0
4927,F2,518.75,0.25,33,46.0
4928,B3,518.75,0.5,42,46.0
4929,B4,518.75,0.5,42,46.0
4930,F#2,519.0,0.25,30,46.0
4931,C#3,519.25,0.5,41,46.0
4932,C#4,519.25,0.5,41,46.0
4933,C#2,519.25,0.5,32,46.0
4934,F#2,519.25,0.5,32,46.0
4935,F4,519.75,0.25,40,46.0
4936,F3,519.75,0.25,40,46.0
4937,F#1,519.75,0.5,26,46.0
4938,F#2,519.75,0.5,26,46.0
4939,F#3,520.0,0.25,35,46.0
4940,F#4,520.0,0.25,35,46.0
4941,F#4,520.25,1.0,52,46.0
4942,F#3,520.25,0.75,25,46.0
4943,B-3,520.25,0.75,25,46.0
4944,E4,520.25,0.75,25,46.0
4945,B-1,520.25,0.5,26,46.0
4946,B-2,520.25,0.5,26,46.0
4947,C#2,520.75,0.5,32,46.0
4948,C#3,520.75,0.5,32,46.0
4949,F#4,521.0,62/125,25,46.0
4950,F#5,521.25,0.5,57,46.0
4951,F#1,521.25,0.5,26,46.0
4952,F#2,521.25,0.5,26,46.0
4953,F#4,521.5,62/125,25,46.0
4954,F#5,521.75,1.0,57,46.0
4955,B-1,521.75,0.5,26,46.0
4956,B-2,521.75,0.5,26,46.0
4957,F#4,522.0,62/125,25,46.0
4958,B1,522.25,0.5,28,46.0
4959,B2,522.25,0.5,28,46.0
4960,F#4,522.5,62/125,25,46.0
4961,C#5,522.75,0.5,50,46.0
4962,F#1,522.75,0.5,24,46.0
4963,F#2,522.75,0.5,24,46.0
4964,F#4,523.0,0.25,25,46.0
4965,E5,523.25,0.5,57,46.0
4966,F#4,523.25,123/500,25,46.0
4967,B1,523.25,0.5,24,46.0
4968,B2,523.25,0.5,24,46.0
4969,F#4,523.5,62/125,25,46.0
4970,D5,523.75,0.5,51,46.0
4971,D2,523.75,0.5,28,46.0
4972,D3,523.75,0.5,28,46.0
4973,D4,524.0,62/125,25,46.0
4974,G#4,524.0,62/125,25,46.0
4975,F4,524.0,62/125,25,46.0
4976,B4,524.25,1.0,51,46.0
4977,F#1,524.25,0.5,23,46.0
4978,F#2,524.25,0.5,23,46.0
4979,D4,524.5,62/125,25,46.0
4980,F4,524.5,62/125,25,46.0
4981,G#4,524.5,62/125,25,46.0
4982,B1,524.75,0.5,23,46.0
4983,B2,524.75,0.5,23,46.0
4984,D4,525.0,62/125,25,46.0
4985,F4,525.0,62/125,25,46.0
4986,G#4,525.0,62/125,25,46.0
4987,D5,525.25,0.5,56,46.0
4988,C#2,525.25,0.5,26,46.0
4989,C#3,525.25,0.5,26,46.0
4990,D4,525.5,62/125,25,46.0
4991,F4,525.5,62/125,25,46.0
4992,G#4,525.5,62/125,25,46.0
4993,B4,525.75,0.5,53,46.0
4994,F#1,525.75,0.5,21,46.0
4995,F#2,525.75,0.5,21,46.0
4996,D4,526.0,31/125,25,46.0
4997,F4,526.0,31/125,25,46.0
4998,G#4,526.0,31/125,25,46.0
4999,B-4,526.25,167/1000,48,46.0
5000,C#4,526.25,0.5,34,46.0
5001,F#4,526.25,0.5,34,46.0
5002,B-1,526.25,0.5,22,46.0
5003,B-2,526.25,0.5,22,46.0
5004,F#5,526.417,167/1000,45,46.0
5005,C#5,526.583,167/1000,48,46.0
5006,B-5,526.75,167/1000,54,46.0
5007,C#2,526.75,0.5,29,46.0
5008,C#3,526.75,0.5,29,46.0
5009,F#5,526.917,167/1000,51,46.0
5010,C#6,527.083,167/1000,51,46.0
5011,F#5,527.25,167/1000,57,46.0
5012,F#1,527.25,0.5,24,46.0
5013,F#2,527.25,0.5,24,46.0
5014,G6,527.417,167/1000,63,46.0
5015,F#6,527.583,167/1000,59,46.0
5016,F6,527.75,167/1000,64,46.0
5017,B-1,527.75,0.5,24,46.0
5018,B-2,527.75,0.5,24,46.0
5019,F#6,527.917,167/1000,59,46.0
5020,E6,528.083,333/1000,59,46.0
5021,B1,528.25,0.5,33,46.0
5022,B2,528.25,0.5,33,46.0
5023,C#6,528.417,167/1000,57,46.0
5024,B-5,528.583,167/1000,57,46.0
5025,C#5,528.75,0.5,34,46.0
5026,G5,528.75,167/1000,62,46.0
5027,F#1,528.75,0.5,26,46.0
5028,F#2,528.75,0.5,26,46.0
5029,F#5,528.917,167/1000,60,46.0
5030,E5,529.083,167/1000,60,46.0
5031,E5,529.25,167/1000,60,46.0
5032,B1,529.25,0.5,24,46.0
5033,B2,529.25,0.5,24,46.0
5034,C#5,529.417,167/1000,59,46.0
5035,D5,529.583,167/1000,59,46.0
5036,B5,529.75,167/1000,63,46.0
5037,D2,529.75,167/1000,32,46.0
5038,D3,529.75,167/1000,32,46.0
5039,G#5,529.917,167/1000,53,46.0
5040,F#1,529.917,167/1000,33,46.0
5041,D6,530.083,333/1000,58,46.0
5042,B1,530.083,167/1000,35,46.0
5043,D2,530.25,167/1000,42,46.0
5044,C#6,530.417,167/1000,53,46.0
5045,F#2,530.417,167/1000,40,46.0
5046,B5,530.583,81/500,50,46.0
5047,B2,530.583,167/1000,38,46.0
5048,D3,530.75,167/1000,35,46.0
5049,B4,530.75,99/100,44,46.0
5050,D5,530.75,99/100,44,46.0
5051,F5,530.75,99/100,44,46.0
5052,G#5,530.75,99/100,44,46.0
5053,B5,530.75,99/100,44,46.0
5054,F#2,530.917,167/1000,33,46.0
5055,D3,531.083,167/1000,31,46.0
5056,F#2,531.25,167/1000,27,46.0
5057,C#3,531.417,167/1000,20,46.0
5058,F#2,531.583,167/1000,20,46.0
5059,F#3,531.75,167/1000,27,46.0
5060,B4,531.75,0.5,46,46.0
5061,D5,531.75,0.5,46,46.0
5062,F5,531.75,0.5,46,46.0
5063,G#5,531.75,0.5,46,46.0
5064,B5,531.75,0.5,46,46.0
5065,C#3,531.917,167/1000,22,46.0
5066,F#3,532.083,167/1000,22,46.0
5067,F#2,532.25,167/1000,27,46.0
5068,B-4,532.25,312/125,46,46.0
5069,C#5,532.25,312/125,46,46.0
5070,F#5,532.25,312/125,46,46.0
5071,B-5,532.25,312/125,46,46.0
5072,C#3,532.417,167/1000,23,46.0
5073,F#2,532.583,167/1000,23,46.0
5074,F#3,532.75,167/1000,27,46.0
5075,C#3,532.917,167/1000,23,46.0
5076,F#3,533.083,167/1000,23,46.0
5077,C#3,533.25,167/1000,27,46.0
5078,F#2,533.417,167/1000,21,46.0
5079,C#3,533.583,167/1000,21,46.0
5080,F#3,533.75,167/1000,27,46.0
5081,C#3,533.917,167/1000,22,46.0
5082,F#3,534.083,167/1000,22,46.0
5083,C#2,534.25,167/1000,27,46.0
5084,F#2,534.417,167/1000,23,46.0
5085,C#2,534.583,167/1000,23,46.0
5086,C#3,534.75,167/1000,27,46.0
5087,B-4,534.75,0.5,45,46.0
5088,C#5,534.75,0.5,45,46.0
5089,F#5,534.75,0.5,45,46.0
5090,B-5,534.75,0.5,45,46.0
5091,F#2,534.917,167/1000,23,46.0
5092,C#3,535.083,167/1000,23,46.0
5093,C#2,535.25,167/1000,26,46.0
5094,B-4,535.25,249/250,45,46.0
5095,C#5,535.25,249/250,45,46.0
5096,F#5,535.25,249/250,45,46.0
5097,B-5,535.25,249/250,45,46.0
5098,F#2,535.417,167/1000,22,46.0
5099,C#2,535.583,167/1000,22,46.0
5100,C#3,535.75,167/1000,27,46.0
5101,F#2,535.917,167/1000,23,46.0
5102,C#3,536.083,167/1000,23,46.0
5103,C#2,536.25,167/1000,27,46.0
5104,F#6,536.25,187/125,43,46.0
5105,B-5,536.25,187/125,43,46.0
5106,F#5,536.25,187/125,43,46.0
5107,F#2,536.417,167/1000,23,46.0
5108,C#2,536.583,167/1000,23,46.0
5109,C#3,536.75,167/1000,27,46.0
5110,F#2,536.917,167/1000,24,46.0
5111,C#3,537.083,167/1000,24,46.0
5112,F#2,537.25,167/1000,27,46.0
5113,C#2,537.417,167/1000,23,46.0
5114,F#2,537.583,167/1000,23,46.0
5115,F#1,537.75,167/1000,27,46.0
5116,F#5,537.75,0.5,39,46.0
5117,B-5,537.75,0.5,39,46.0
5118,F#6,537.75,0.5,39,46.0
5119,C#2,537.917,167/1000,23,46.0
5120,F#1,538.083,167/1000,23,46.0
5121,F#2,538.25,167/1000,27,46.0
5122,F#5,538.25,49/100,39,46.0
5123,B-5,538.25,49/100,39,46.0
5124,F#6,538.25,49/100,39,46.0
5125,C#2,538.417,167/1000,24,46.0
5126,F#2,538.583,167/1000,24,46.0
5127,F#1,538.75,167/1000,27,46.0
5128,B-6,538.75,1981/1000,38,46.0
5129,C#6,538.75,1981/1000,38,46.0
5130,B-5,538.75,1981/1000,38,46.0
5131,C#2,538.917,167/1000,24,46.0
5132,F#1,539.083,167/1000,24,46.0
5133,F#2,539.25,167/1000,27,46.0
5134,C#2,539.417,167/1000,23,46.0
5135,F#2,539.583,167/1000,23,46.0
5136,C#2,539.75,167/1000,27,46.0
5137,F#2,539.917,167/1000,24,46.0
5138,C#2,540.083,167/1000,24,46.0
5139,C#3,540.25,0.5,30,46.0
5140,C#5,540.75,0.5,35,46.0
5141,C#4,540.75,0.5,26,46.0
5142,C#5,541.25,1.0,38,46.0
5143,A3,541.25,62/125,26,46.0
5144,A3,541.75,0.5,28,46.0
5145,A4,542.25,62/125,33,46.0
5146,F#3,542.25,0.5,24,46.0
5147,A4,542.75,0.5,37,46.0
5148,F3,542.75,0.5,21,46.0
5149,C#3,542.75,0.5,21,46.0
5150,G#3,542.75,0.5,21,46.0
5151,F#4,543.25,0.5,32,46.0
5152,A3,543.25,0.5,30,46.0
5153,F#3,543.25,0.5,30,46.0
5154,F4,543.75,0.5,29,46.0
5155,G#4,543.75,0.5,29,46.0
5156,C#4,543.75,0.5,29,46.0
5157,F#2,543.75,1.5,30,46.0
5158,F#3,543.75,1.5,30,46.0
5159,F#4,544.25,1.0,35,46.0
5160,A4,544.25,1.0,35,46.0
5161,C#4,544.25,1.0,35,46.0
5162,B-3,545.25,0.5,31,46.0
5163,C#4,545.25,0.5,31,46.0
5164,F#4,545.25,0.5,31,46.0
5165,B-4,545.25,0.5,31,46.0
5166,B1,545.25,0.5,31,46.0
5167,B2,545.25,0.5,31,46.0
5168,D4,545.75,1.0,38,46.0
5169,B3,545.75,1.0,38,46.0
5170,B4,545.75,1.0,38,46.0
5171,F#4,545.75,1.0,38,46.0
5172,F#1,545.75,0.5,36,46.0
5173,F#2,545.75,0.5,36,46.0
5174,B1,546.25,0.5,42,46.0
5175,B-4,546.75,0.5,42,46.0
5176,F#4,546.75,0.5,42,46.0
5177,C#4,546.75,0.5,42,46.0
5178,C#5,546.75,0.5,42,46.0
5179,F1,546.75,99/100,31,46.0
5180,F2,546.75,99/100,31,46.0
5181,B4,547.25,62/125,47,46.0
5182,D4,547.25,62/125,47,46.0
5183,D5,547.25,62/125,47,46.0
5184,F#4,547.25,62/125,47,46.0
5185,B4,547.75,99/100,30,46.0
5186,G#4,547.75,99/100,30,46.0
5187,D5,547.75,99/100,30,46.0
5188,D4,547.75,99/100,30,46.0
5189,F1,547.75,99/100,31,46.0
5190,F2,547.75,99/100,31,46.0
5191,B4,548.75,99/100,35,46.0
5192,G#4,548.75,99/100,35,46.0
5193,D5,548.75,99/100,35,46.0
5194,D4,548.75,99/100,35,46.0
5195,F2,548.75,0.25,28,46.0
5196,F1,548.75,0.25,28,46.0
5197,F#1,549.0,61/250,28,46.0
5198,F#2,549.0,61/250,28,46.0
5199,F#1,549.25,1.5,31,46.0
5200,F#2,549.25,1.5,31,46.0
5201,D4,549.75,0.25,27,46.0
5202,G#4,549.75,0.25,27,46.0
5203,B4,549.75,0.25,27,46.0
5204,D5,549.75,0.25,27,46.0
5205,B-4,550.0,61/250,27,46.0
5206,C#4,550.0,61/250,27,46.0
5207,C#5,550.0,61/250,27,46.0
5208,C#4,550.25,3.0,35,46.0
5209,B-4,550.25,3.0,35,46.0
5210,C#5,550.25,3.0,35,46.0
5211,F#2,550.75,1.5,26,46.0
5212,C#3,550.75,1.5,26,46.0
5213,B-3,550.75,1.5,26,46.0
5214,B-4,553.25,749/250,30,46.0
5215,F#5,553.25,749/250,30,46.0
5216,C#6,553.25,749/250,30,46.0
5217,F#2,553.75,1.5,26,46.0
5218,C#3,553.75,1.5,26,46.0
5219,B-3,553.75,1.5,26,46.0
5220,F#1,555.25,1.5,20,46.0
5221,C#2,555.25,1.5,20,46.0
5222,B-2,555.25,1.5,20,46.0
5223,B-4,556.25,1.5,30,46.0
5224,F#5,556.25,1.5,30,46.0
5225,C#6,556.25,1.5,30,46.0
5226,B-3,557.75,1.5,30,46.0
5227,F#4,557.75,1.5,30,46.0
5228,C#5,557.75,1.5,30,46.0
5229,F#1,558.25,1.5,20,46.0
5230,C#2,558.25,1.5,20,46.0
5231,B-2,558.25,1.5,20,46.0
5232,B-3,559.625,0.625,24,46.0
5233,F#4,559.75,0.5,24,46.0
5234,F#1,559.75,1.5,20,46.0
5235,C#2,559.75,1.5,20,46.0
5236,B-2,559.75,1.5,20,46.0
5237,C#5,559.875,0.375,33,46.0
5238,F#1,561.25,1.0,16,46.0
5239,C#2,561.375,0.875,18,46.0
5240,B-2,561.5,0.75,20,46.0
