,note_name,start_time,duration,velocity,tempo
0,G4,2.0,0.25,69,149.8
1,E4,2.0,0.25,69,149.8
2,B3,2.0,0.25,69,149.8
3,G3,2.0,0.25,69,149.8
4,E3,2.0,0.25,58,149.8
5,E2,2.0,0.25,58,149.8
6,G4,3.0,1.5,84,149.8
7,G3,3.0,2.0,70,149.8
8,B3,3.0,2.0,70,149.8
9,E4,3.0,2.0,70,149.8
10,E2,3.0,2.0,66,149.8
11,E3,3.0,2.0,66,149.8
12,F#4,4.5,0.5,77,149.8
13,E4,5.0,0.25,62,149.8
14,G3,5.0,0.25,62,149.8
15,E3,5.0,0.25,58,149.8
16,E2,5.0,0.25,58,149.8
17,A3,6.0,0.5,75,149.8
18,F#4,6.0,0.5,75,149.8
19,A4,6.0,0.5,75,149.8
20,D2,6.0,0.5,66,149.8
21,D3,6.0,0.5,66,149.8
22,D4,8.0,1.0,29,149.8
23,A4,8.0,1.0,34,149.8
24,F#4,8.0,1.0,34,149.8
25,F#4,9.0,1.5,41,149.8
26,A4,9.0,1.5,41,149.8
27,C4,9.0,1.5,33,149.8
28,D4,9.0,1.5,33,149.8
29,G4,10.5,0.5,40,149.8
30,D4,10.5,0.5,28,149.8
31,B3,10.5,0.5,28,149.8
32,A4,11.0,0.75,38,149.8
33,F#4,11.0,0.75,38,149.8
34,A3,11.0,0.75,26,149.8
35,C4,11.0,0.75,26,149.8
36,B4,12.0,0.75,40,149.8
37,G4,12.0,0.75,40,149.8
38,G3,12.0,0.75,33,149.8
39,B3,12.0,0.75,33,149.8
40,B4,14.0,0.25,69,149.8
41,G4,14.0,0.25,69,149.8
42,D4,14.0,0.25,69,149.8
43,B3,14.0,0.25,69,149.8
44,G3,14.0,0.25,58,149.8
45,G2,14.0,0.25,58,149.8
46,B4,15.0,1.5,84,149.8
47,D4,15.0,2.0,70,149.8
48,B3,15.0,2.0,70,149.8
49,G4,15.0,2.0,70,149.8
50,G2,15.0,2.0,66,149.8
51,G3,15.0,2.0,66,149.8
52,A4,16.5,0.5,77,149.8
53,G4,17.0,0.25,62,149.8
54,B3,17.0,0.25,62,149.8
55,G2,17.0,0.25,58,149.8
56,G1,17.0,0.25,58,149.8
57,C#4,18.0,0.5,75,149.8
58,B-4,18.0,0.5,75,149.8
59,C#5,18.0,0.5,75,149.8
60,F#1,18.0,0.5,66,149.8
61,F#2,18.0,0.5,66,149.8
62,F#4,20.0,1.0,29,149.8
63,C#5,20.0,1.0,34,149.8
64,B-4,20.0,1.0,34,149.8
65,B-4,21.0,1.5,41,149.8
66,C#5,21.0,1.5,41,149.8
67,E4,21.0,1.5,33,149.8
68,F#4,21.0,1.5,33,149.8
69,B4,22.5,0.5,40,149.8
70,F#4,22.5,0.5,28,149.8
71,D4,22.5,0.5,28,149.8
72,C#5,23.0,0.75,38,149.8
73,B-4,23.0,0.75,38,149.8
74,C#4,23.0,0.75,26,149.8
75,E4,23.0,0.75,26,149.8
76,D5,24.0,0.75,40,149.8
77,B4,24.0,0.75,40,149.8
78,B3,24.0,0.75,33,149.8
79,D4,24.0,0.75,33,149.8
80,D5,26.0,1.0,70,149.8
81,D5,27.0,1.0,70,149.8
82,D4,27.0,2.0,38,149.8
83,B3,27.0,3.0,38,149.8
84,G4,27.0,3.0,45,149.8
85,G5,28.0,1.0,70,149.8
86,E5,29.0,1.0,62,149.8
87,E4,29.0,1.0,50,149.8
88,D5,30.0,1.0,66,149.8
89,A3,30.0,2.0,39,149.8
90,E4,30.0,2.0,50,149.8
91,G4,30.0,2.0,45,149.8
92,C5,31.0,19/20,56,149.8
93,C5,32.0,1.0,61,149.8
94,F#4,32.0,1.0,38,149.8
95,E-4,32.0,1.0,32,149.8
96,C5,33.0,1.0,61,149.8
97,D4,33.0,2.0,34,149.8
98,F#4,33.0,2.0,38,149.8
99,A5,34.0,1.0,61,149.8
100,C5,35.0,1.0,52,149.8
101,F#4,35.0,1.0,46,149.8
102,C5,36.0,1.0,52,149.8
103,G4,36.0,2.0,46,149.8
104,B4,37.0,19/20,61,149.8
105,B4,38.0,1.0,55,149.8
106,G3,38.0,1.0,45,149.8
107,B4,39.0,1.0,55,149.8
108,E3,39.0,2.0,49,149.8
109,G4,40.0,19/20,50,149.8
110,G4,41.0,1.0,44,149.8
111,E4,41.0,1.0,41,149.8
112,G4,42.0,1.0,44,149.8
113,C4,42.0,2.0,40,149.8
114,E4,43.0,19/20,43,149.8
115,E4,44.0,1.0,41,149.8
116,C3,44.0,1.0,28,149.8
117,E4,45.0,1.0,41,149.8
118,C2,45.0,3.0,28,149.8
119,C3,45.0,3.0,28,149.8
120,G3,46.0,1.0,36,149.8
121,E3,47.0,1.0,24,149.8
122,E-3,48.0,9/5,26,149.8
123,B3,48.0,9/5,26,149.8
124,B2,48.0,9/5,26,149.8
125,B1,48.0,9/5,26,149.8
126,E5,50.0,1.0,56,149.8
127,E6,50.0,1.0,56,149.8
128,E3,51.0,3.0,28,149.8
129,E5,51.0,1.5,56,149.8
130,E6,51.0,1.5,56,149.8
131,B3,51.0,3.0,31,149.8
132,G2,51.0,3.0,31,149.8
133,E-5,52.5,0.5,49,149.8
134,E-6,52.5,0.5,49,149.8
135,E5,53.0,1.0,52,149.8
136,E6,53.0,1.0,52,149.8
137,A2,54.0,2.0,39,149.8
138,E3,54.0,3.0,28,149.8
139,C4,54.0,2.0,54,149.8
140,E4,54.0,2.0,54,149.8
141,F#4,54.0,2.0,54,149.8
142,B-2,56.0,1.0,43,149.8
143,F#4,56.0,1.0,59,149.8
144,E4,56.0,1.0,59,149.8
145,C#4,56.0,1.0,59,149.8
146,F#4,57.0,1.5,71,149.8
147,B2,57.0,3.0,49,149.8
148,A3,57.0,3.0,60,149.8
149,E-4,57.0,3.0,60,149.8
150,G4,58.5,0.5,51,149.8
151,A4,59.0,0.5,56,149.8
152,G4,59.5,0.5,43,149.8
153,F#4,60.0,1.0,47,149.8
154,G3,60.0,2.0,26,149.8
155,C3,60.0,2.0,26,149.8
156,E4,61.0,1.0,39,149.8
157,B2,62.0,0.5,32,149.8
158,E5,62.0,1.0,56,149.8
159,E6,62.0,1.0,56,149.8
160,A2,62.5,0.5,35,149.8
161,E3,63.0,3.0,39,149.8
162,G2,63.0,2.0,39,149.8
163,B3,63.0,3.0,39,149.8
164,E5,64.5,1.5,56,149.8
165,E6,64.5,1.5,56,149.8
166,G#2,65.0,1.0,37,149.8
167,A2,66.0,2.0,39,149.8
168,E3,66.0,3.0,39,149.8
169,E-5,66.0,0.5,56,149.8
170,E-6,66.0,0.5,56,149.8
171,E5,66.5,1.0,61,149.8
172,E6,66.5,1.0,61,149.8
173,C4,67.5,2.0,54,149.8
174,E4,67.5,2.0,54,149.8
175,F#4,67.5,2.0,54,149.8
176,B-2,68.0,1.0,34,149.8
177,B1,69.0,3.0,34,149.8
178,B2,69.0,3.0,34,149.8
179,F#4,69.5,1.0,47,149.8
180,E4,69.5,1.0,47,149.8
181,C#4,69.5,1.0,47,149.8
182,F#4,70.5,1.5,55,149.8
183,A3,70.5,3.0,46,149.8
184,E-4,70.5,3.0,46,149.8
185,A4,72.0,0.5,38,149.8
186,E3,72.0,1.0,20,149.8
187,E2,72.0,1.0,20,149.8
188,G4,72.5,0.5,41,149.8
189,F#4,73.0,0.5,32,149.8
190,G3,73.5,1.0,33,149.8
191,E4,73.5,1.0,33,149.8
192,B1,74.0,0.25,28,149.8
193,B2,74.0,0.25,28,149.8
194,B1,75.0,2.0,31,149.8
195,B2,75.0,2.0,31,149.8
196,B3,75.5,0.25,33,149.8
197,B4,75.5,0.25,33,149.8
198,B4,76.5,2.0,38,149.8
199,B3,76.5,2.0,38,149.8
200,E2,77.0,0.25,28,149.8
201,E3,77.0,0.25,28,149.8
202,E2,78.0,2.0,31,149.8
203,E3,78.0,2.0,31,149.8
204,E4,78.5,0.25,33,149.8
205,E5,78.5,0.25,33,149.8
206,E5,79.5,2.0,38,149.8
207,E4,79.5,2.0,38,149.8
208,B2,80.0,0.25,28,149.8
209,B3,80.0,0.25,28,149.8
210,B2,81.0,2.0,31,149.8
211,B3,81.0,2.0,31,149.8
212,B4,81.5,0.25,33,149.8
213,B5,81.5,0.25,33,149.8
214,B5,82.5,2.0,37,149.8
215,B4,82.5,2.0,37,149.8
216,E3,83.0,0.25,28,149.8
217,E4,83.0,0.25,28,149.8
218,E3,84.0,2.0,31,149.8
219,E4,84.0,2.0,31,149.8
220,E6,84.5,0.25,33,149.8
221,E5,84.5,0.25,33,149.8
222,E5,85.5,2.0,38,149.8
223,E6,85.5,2.0,38,149.8
224,G3,86.0,0.25,57,149.8
225,B3,86.0,0.25,57,149.8
226,D4,86.0,0.25,57,149.8
227,F4,86.0,0.25,57,149.8
228,G3,87.0,1.5,62,149.8
229,B3,87.0,1.5,62,149.8
230,D4,87.0,1.5,62,149.8
231,F4,87.0,1.5,62,149.8
232,F5,87.5,0.25,73,149.8
233,B5,87.5,0.25,73,149.8
234,D6,87.5,0.25,73,149.8
235,F6,87.5,0.25,73,149.8
236,F5,88.5,1.5,80,149.8
237,B5,88.5,1.5,80,149.8
238,D6,88.5,1.5,80,149.8
239,F6,88.5,1.5,80,149.8
240,E6,90.0,11/40,70,149.8
241,D6,90.25,11/40,69,149.8
242,C6,90.5,11/40,68,149.8
243,B5,90.75,11/40,68,149.8
244,A5,91.0,11/40,68,149.8
245,G5,91.25,0.25,66,149.8
246,F5,91.5,11/40,64,149.8
247,G5,91.5,1/40,66,149.8
248,E5,91.75,11/40,64,149.8
249,D5,92.0,11/40,64,149.8
250,C5,92.25,11/40,64,149.8
251,B4,92.5,183/1000,63,149.8
252,A4,92.667,183/1000,63,149.8
253,G4,92.833,183/1000,63,149.8
254,F4,93.0,183/1000,63,149.8
255,E4,93.167,183/1000,63,149.8
256,D4,93.333,183/1000,63,149.8
257,C4,93.5,221/1000,63,149.8
258,B3,93.7,221/1000,63,149.8
259,A3,93.9,221/1000,63,149.8
260,G3,94.1,221/1000,62,149.8
261,F#3,94.3,1/5,62,149.8
262,G3,94.5,0.5,89,149.8
263,F#3,94.5,21/1000,62,149.8
264,B2,95.0,0.25,26,149.8
265,B1,95.0,0.25,26,149.8
266,C2,96.0,0.5,32,149.8
267,C3,96.0,0.5,32,149.8
268,F4,96.5,0.25,36,149.8
269,D4,96.5,0.25,36,149.8
270,G3,96.5,0.25,36,149.8
271,E4,97.5,0.5,40,149.8
272,C4,97.5,0.5,40,149.8
273,G3,97.5,0.5,40,149.8
274,E3,98.0,0.25,62,149.8
275,G#3,98.0,0.25,62,149.8
276,B3,98.0,0.25,62,149.8
277,D4,98.0,0.25,62,149.8
278,E3,99.0,1.5,68,149.8
279,G#3,99.0,1.5,68,149.8
280,B3,99.0,1.5,68,149.8
281,D4,99.0,1.5,68,149.8
282,D5,99.5,0.25,80,149.8
283,G#5,99.5,0.25,80,149.8
284,B5,99.5,0.25,80,149.8
285,D6,99.5,0.25,80,149.8
286,D5,100.5,1.5,88,149.8
287,G#5,100.5,1.5,88,149.8
288,B5,100.5,1.5,88,149.8
289,D6,100.5,1.5,88,149.8
290,C6,102.0,11/40,70,149.8
291,B5,102.25,11/40,69,149.8
292,A5,102.5,11/40,68,149.8
293,G#5,102.75,11/40,68,149.8
294,F#5,103.0,11/40,68,149.8
295,E5,103.25,0.25,66,149.8
296,D5,103.5,11/40,64,149.8
297,E5,103.5,1/40,66,149.8
298,C5,103.75,11/40,64,149.8
299,B4,104.0,11/40,64,149.8
300,A4,104.25,11/40,64,149.8
301,G#4,104.5,183/1000,63,149.8
302,F#4,104.667,183/1000,63,149.8
303,E4,104.833,183/1000,63,149.8
304,D4,105.0,183/1000,63,149.8
305,C4,105.167,183/1000,63,149.8
306,B3,105.333,183/1000,63,149.8
307,A3,105.5,221/1000,63,149.8
308,G#3,105.7,221/1000,63,149.8
309,F#3,105.9,221/1000,63,149.8
310,E3,106.1,221/1000,62,149.8
311,E-3,106.3,1/5,62,149.8
312,E3,106.5,1.0,89,149.8
313,E-3,106.5,21/1000,62,149.8
314,G#2,107.0,0.25,26,149.8
315,G#1,107.0,0.25,26,149.8
316,A1,108.0,0.5,32,149.8
317,A2,108.0,0.5,32,149.8
318,D4,108.5,0.25,36,149.8
319,B3,108.5,0.25,36,149.8
320,E3,108.5,0.25,36,149.8
321,C4,109.5,0.5,40,149.8
322,A3,109.5,0.5,40,149.8
323,E3,109.5,0.5,40,149.8
324,B-3,110.0,0.938,50,149.8
325,B-3,111.0,3.0,50,149.8
326,B-5,111.5,0.938,57,149.8
327,B-5,112.5,1.5,60,149.8
328,A5,114.0,11/40,53,149.8
329,B-3,114.0,1.0,50,149.8
330,G5,114.25,11/40,53,149.8
331,F5,114.5,11/40,51,149.8
332,E-5,114.75,11/40,51,149.8
333,D5,115.0,11/40,51,149.8
334,C5,115.25,0.25,51,149.8
335,B-4,115.5,11/40,51,149.8
336,C5,115.5,1/40,51,149.8
337,A4,115.75,11/40,50,149.8
338,G4,116.0,11/40,49,149.8
339,F4,116.25,11/40,49,149.8
340,E-4,116.5,367/1000,53,149.8
341,D4,116.833,367/1000,49,149.8
342,C4,117.167,367/1000,44,149.8
343,B-3,117.5,979/1000,53,149.8
344,B-3,118.5,3.0,53,149.8
345,E4,119.0,9/10,53,149.8
346,E4,120.0,2.0,62,149.8
347,B-3,121.5,2.0,53,149.8
348,B-3,122.0,9/10,49,149.8
349,E4,122.0,9/10,49,149.8
350,E4,123.0,2.0,54,149.8
351,B-3,123.0,2.0,54,149.8
352,G4,123.5,9/10,53,149.8
353,G4,124.5,2.0,59,149.8
354,B-3,125.0,9/10,49,149.8
355,E4,125.0,9/10,49,149.8
356,E4,126.0,2.0,59,149.8
357,B-3,126.0,2.0,59,149.8
358,G4,126.5,9/10,58,149.8
359,C#5,126.5,9/10,58,149.8
360,C#5,127.5,2.0,62,149.8
361,G4,127.5,2.0,62,149.8
362,B-3,128.0,9/10,52,149.8
363,C#4,128.0,9/10,52,149.8
364,E4,128.0,9/10,52,149.8
365,G4,128.0,9/10,52,149.8
366,G4,129.0,2.0,69,149.8
367,B-3,129.0,3.0,58,149.8
368,C#4,129.0,3.0,58,149.8
369,E4,129.0,3.0,58,149.8
370,C#5,129.5,9/10,62,149.8
371,E5,129.5,9/10,62,149.8
372,G5,129.5,9/10,62,149.8
373,G5,130.5,2.0,78,149.8
374,C#5,130.5,3.0,66,149.8
375,E5,130.5,3.0,66,149.8
376,F#4,131.0,1.0,63,149.8
377,F#5,132.5,1.0,80,149.8
378,F4,134.0,2.0,77,149.8
379,B-3,134.0,2.0,58,149.8
380,C#4,134.0,2.0,58,149.8
381,E4,134.0,2.0,58,149.8
382,F5,135.5,2.0,84,149.8
383,C#5,135.5,2.0,66,149.8
384,E5,135.5,2.0,66,149.8
385,F#4,136.0,9/10,66,149.8
386,E4,136.0,9/10,66,149.8
387,C#4,136.0,9/10,66,149.8
388,B-3,136.0,9/10,66,149.8
389,F#4,137.0,0.25,43,149.8
390,D4,137.0,0.25,43,149.8
391,B3,137.0,0.25,43,149.8
392,F#5,137.5,9/10,73,149.8
393,E5,137.5,9/10,73,149.8
394,C#5,137.5,9/10,73,149.8
395,B3,137.5,0.25,35,149.8
396,D4,137.5,0.25,35,149.8
397,F#4,137.5,0.25,35,149.8
398,B3,138.0,0.25,35,149.8
399,D4,138.0,0.25,35,149.8
400,F#4,138.0,0.25,35,149.8
401,B4,138.5,3.0,85,149.8
402,D5,138.5,3.0,85,149.8
403,F#5,138.5,3.0,85,149.8
404,B3,138.5,0.25,35,149.8
405,D4,138.5,0.25,35,149.8
406,F#4,138.5,0.25,35,149.8
407,B3,139.0,0.25,35,149.8
408,D4,139.0,0.25,35,149.8
409,F#4,139.0,0.25,35,149.8
410,B3,139.5,0.25,35,149.8
411,D4,139.5,0.25,35,149.8
412,F#4,139.5,0.25,35,149.8
413,B3,140.0,0.25,43,149.8
414,F#3,140.0,0.25,43,149.8
415,D3,140.0,0.25,43,149.8
416,D3,140.5,0.25,36,149.8
417,F#3,140.5,0.25,36,149.8
418,B3,140.5,0.25,36,149.8
419,D3,141.0,0.25,36,149.8
420,F#3,141.0,0.25,36,149.8
421,B3,141.0,0.25,36,149.8
422,B4,141.5,3.0,85,149.8
423,F#5,141.5,3.0,85,149.8
424,B5,141.5,3.0,85,149.8
425,D3,141.5,0.25,36,149.8
426,F#3,141.5,0.25,36,149.8
427,B3,141.5,0.25,36,149.8
428,D3,142.0,0.25,36,149.8
429,F#3,142.0,0.25,36,149.8
430,B3,142.0,0.25,36,149.8
431,D3,142.5,0.25,36,149.8
432,F#3,142.5,0.25,36,149.8
433,B3,142.5,0.25,36,149.8
434,A3,143.0,0.25,39,149.8
435,F#3,143.0,0.25,39,149.8
436,E-3,143.0,0.25,39,149.8
437,E-3,143.5,0.25,30,149.8
438,F#3,143.5,0.25,30,149.8
439,A3,143.5,0.25,30,149.8
440,G3,144.0,0.25,40,149.8
441,E3,144.0,0.25,40,149.8
442,F#4,144.5,0.25,45,149.8
443,B4,144.5,0.25,45,149.8
444,G3,144.5,0.25,34,149.8
445,E3,144.5,0.25,34,149.8
446,G3,145.0,0.25,34,149.8
447,E3,145.0,0.25,34,149.8
448,C5,145.5,0.25,54,149.8
449,C4,145.5,0.25,54,149.8
450,G3,145.5,0.25,34,149.8
451,E3,145.5,0.25,34,149.8
452,B3,146.0,0.25,40,149.8
453,G3,146.0,0.25,40,149.8
454,E3,146.0,0.25,40,149.8
455,B3,146.5,0.25,32,149.8
456,G3,146.5,0.25,32,149.8
457,E3,146.5,0.25,32,149.8
458,A3,147.0,0.25,40,149.8
459,F#3,147.0,0.25,40,149.8
460,C5,147.5,0.25,52,149.8
461,G4,147.5,0.25,52,149.8
462,F#3,147.5,0.25,34,149.8
463,A3,147.5,0.25,34,149.8
464,F#3,148.0,0.25,34,149.8
465,A3,148.0,0.25,34,149.8
466,E-5,148.5,0.25,54,149.8
467,E-4,148.5,0.25,54,149.8
468,F#3,148.5,0.25,34,149.8
469,A3,148.5,0.25,34,149.8
470,C4,149.0,0.25,39,149.8
471,A3,149.0,0.25,39,149.8
472,F#3,149.0,0.25,39,149.8
473,F#3,149.5,0.25,32,149.8
474,A3,149.5,0.25,32,149.8
475,C4,149.5,0.25,32,149.8
476,B3,150.0,0.25,40,149.8
477,G3,150.0,0.25,40,149.8
478,E-5,150.5,0.25,52,149.8
479,A4,150.5,0.25,52,149.8
480,G3,150.5,0.25,36,149.8
481,B3,150.5,0.25,36,149.8
482,G3,151.0,0.25,36,149.8
483,B3,151.0,0.25,36,149.8
484,E5,151.5,0.25,58,149.8
485,E4,151.5,0.25,58,149.8
486,G3,151.5,0.25,36,149.8
487,B3,151.5,0.25,36,149.8
488,G#3,152.0,0.25,45,149.8
489,B3,152.0,0.25,45,149.8
490,G#3,152.5,0.25,39,149.8
491,B3,152.5,0.25,39,149.8
492,D4,152.5,0.25,39,149.8
493,G#3,153.0,0.25,42,149.8
494,B3,153.0,0.25,42,149.8
495,C#4,153.0,0.25,42,149.8
496,E5,153.5,0.25,55,149.8
497,B4,153.5,0.25,55,149.8
498,G#3,153.5,0.25,37,149.8
499,B3,153.5,0.25,37,149.8
500,C#4,153.5,0.25,37,149.8
501,G#3,154.0,0.25,38,149.8
502,B3,154.0,0.25,38,149.8
503,C#4,154.0,0.25,38,149.8
504,F5,154.5,0.25,60,149.8
505,F4,154.5,0.25,60,149.8
506,G#3,154.5,0.25,38,149.8
507,B3,154.5,0.25,38,149.8
508,C#4,154.5,0.25,38,149.8
509,C#4,155.0,0.25,34,149.8
510,C#4,155.5,0.25,32,149.8
511,C#4,156.0,0.25,32,149.8
512,C#4,156.5,0.25,32,149.8
513,G#4,156.5,0.25,41,149.8
514,B4,156.5,0.25,41,149.8
515,E5,156.5,0.25,41,149.8
516,C#4,157.0,0.25,32,149.8
517,F5,157.0,0.25,34,149.8
518,B4,157.0,0.25,34,149.8
519,G#4,157.0,0.25,34,149.8
520,C#4,157.5,0.25,32,149.8
521,F5,157.5,0.25,34,149.8
522,B4,157.5,0.25,34,149.8
523,G#4,157.5,0.25,34,149.8
524,C#4,158.0,0.25,40,149.8
525,F5,158.0,0.25,34,149.8
526,B4,158.0,0.25,34,149.8
527,G#4,158.0,0.25,34,149.8
528,C#4,158.5,0.25,45,149.8
529,F5,158.5,0.25,34,149.8
530,B4,158.5,0.25,34,149.8
531,G#4,158.5,0.25,34,149.8
532,C#4,159.0,0.25,49,149.8
533,F5,159.0,0.25,34,149.8
534,B4,159.0,0.25,34,149.8
535,G#4,159.0,0.25,34,149.8
536,C#4,159.5,0.25,52,149.8
537,G#4,159.5,0.25,41,149.8
538,B4,159.5,0.25,41,149.8
539,F5,159.5,0.25,41,149.8
540,C#4,160.0,0.25,56,149.8
541,F5,160.0,0.25,47,149.8
542,B4,160.0,0.25,47,149.8
543,G#4,160.0,0.25,47,149.8
544,C#4,160.5,0.25,58,149.8
545,F5,160.5,0.25,51,149.8
546,B4,160.5,0.25,51,149.8
547,G#4,160.5,0.25,51,149.8
548,F5,161.0,0.25,56,149.8
549,B4,161.0,0.25,56,149.8
550,G#4,161.0,0.25,56,149.8
551,F#3,161.0,0.25,63,149.8
552,B-3,161.0,0.25,63,149.8
553,C#4,161.0,0.25,63,149.8
554,E4,161.0,0.25,63,149.8
555,F5,161.5,0.25,62,149.8
556,B4,161.5,0.25,62,149.8
557,G#4,161.5,0.25,62,149.8
558,E4,161.5,0.25,52,149.8
559,C#4,161.5,0.25,52,149.8
560,B-3,161.5,0.25,52,149.8
561,F#3,161.5,0.25,52,149.8
562,F5,162.0,0.25,67,149.8
563,B4,162.0,0.25,67,149.8
564,G#4,162.0,0.25,67,149.8
565,E4,162.0,0.25,52,149.8
566,C#4,162.0,0.25,52,149.8
567,B-3,162.0,0.25,52,149.8
568,F#3,162.0,0.25,52,149.8
569,F#5,162.5,0.25,83,149.8
570,B-5,162.5,0.25,83,149.8
571,C#6,162.5,0.25,83,149.8
572,E6,162.5,0.25,83,149.8
573,F#6,162.5,0.25,83,149.8
574,E4,162.5,0.25,52,149.8
575,C#4,162.5,0.25,52,149.8
576,B-3,162.5,0.25,52,149.8
577,F#3,162.5,0.25,52,149.8
578,G5,163.0,0.25,75,149.8
579,B-5,163.0,0.25,75,149.8
580,C#6,163.0,0.25,75,149.8
581,E6,163.0,0.25,75,149.8
582,G6,163.0,0.25,75,149.8
583,E4,163.0,0.25,52,149.8
584,C#4,163.0,0.25,52,149.8
585,B-3,163.0,0.25,52,149.8
586,F#3,163.0,0.25,52,149.8
587,G5,163.5,0.25,75,149.8
588,B-5,163.5,0.25,75,149.8
589,C#6,163.5,0.25,75,149.8
590,E6,163.5,0.25,75,149.8
591,G6,163.5,0.25,75,149.8
592,E4,163.5,0.25,52,149.8
593,C#4,163.5,0.25,52,149.8
594,B-3,163.5,0.25,52,149.8
595,F#3,163.5,0.25,52,149.8
596,G5,164.0,0.25,75,149.8
597,B-5,164.0,0.25,75,149.8
598,C#6,164.0,0.25,75,149.8
599,E6,164.0,0.25,75,149.8
600,G6,164.0,0.25,75,149.8
601,E4,164.0,0.25,56,149.8
602,C#4,164.0,0.25,56,149.8
603,B-3,164.0,0.25,56,149.8
604,F#3,164.0,0.25,56,149.8
605,G5,164.5,0.25,75,149.8
606,B-5,164.5,0.25,75,149.8
607,C#6,164.5,0.25,75,149.8
608,E6,164.5,0.25,75,149.8
609,G6,164.5,0.25,75,149.8
610,F#3,164.5,0.25,53,149.8
611,B-3,164.5,0.25,53,149.8
612,C#4,164.5,0.25,53,149.8
613,E4,164.5,0.25,53,149.8
614,G5,165.0,0.25,75,149.8
615,B-5,165.0,0.25,75,149.8
616,C#6,165.0,0.25,75,149.8
617,E6,165.0,0.25,75,149.8
618,G6,165.0,0.25,75,149.8
619,F#3,165.0,0.25,50,149.8
620,B-3,165.0,0.25,50,149.8
621,C#4,165.0,0.25,50,149.8
622,E4,165.0,0.25,50,149.8
623,G5,165.5,0.25,77,149.8
624,B-5,165.5,0.25,77,149.8
625,C#6,165.5,0.25,77,149.8
626,E6,165.5,0.25,77,149.8
627,G6,165.5,0.25,77,149.8
628,F#3,165.5,0.25,46,149.8
629,B-3,165.5,0.25,46,149.8
630,C#4,165.5,0.25,46,149.8
631,E4,165.5,0.25,46,149.8
632,G5,166.0,0.25,70,149.8
633,B-5,166.0,0.25,70,149.8
634,C#6,166.0,0.25,70,149.8
635,E6,166.0,0.25,70,149.8
636,G6,166.0,0.25,70,149.8
637,F#3,166.0,0.25,41,149.8
638,B-3,166.0,0.25,41,149.8
639,C#4,166.0,0.25,41,149.8
640,E4,166.0,0.25,41,149.8
641,G5,166.5,0.25,67,149.8
642,B-5,166.5,0.25,67,149.8
643,C#6,166.5,0.25,67,149.8
644,E6,166.5,0.25,67,149.8
645,G6,166.5,0.25,67,149.8
646,F#3,166.5,0.25,41,149.8
647,B-3,166.5,0.25,41,149.8
648,C#4,166.5,0.25,41,149.8
649,E4,166.5,0.25,41,149.8
650,B2,167.0,0.25,40,149.8
651,G5,167.0,0.25,61,149.8
652,B-5,167.0,0.25,61,149.8
653,C#6,167.0,0.25,61,149.8
654,E6,167.0,0.25,61,149.8
655,G6,167.0,0.25,61,149.8
656,D4,167.25,0.25,34,149.8
657,F#3,167.5,0.25,37,149.8
658,G5,167.5,0.25,55,149.8
659,B-5,167.5,0.25,55,149.8
660,C#6,167.5,0.25,55,149.8
661,E6,167.5,0.25,55,149.8
662,G6,167.5,0.25,55,149.8
663,D4,167.75,0.25,34,149.8
664,C#3,168.0,0.25,40,149.8
665,G5,168.0,0.25,51,149.8
666,B-5,168.0,0.25,51,149.8
667,C#6,168.0,0.25,51,149.8
668,E6,168.0,0.25,51,149.8
669,G6,168.0,0.25,51,149.8
670,E4,168.25,0.25,34,149.8
671,F#3,168.5,0.25,37,149.8
672,G6,168.5,1.0,56,149.8
673,G5,168.5,1.0,56,149.8
674,E4,168.75,0.25,34,149.8
675,D3,169.0,0.25,40,149.8
676,F#4,169.25,0.25,35,149.8
677,F#3,169.5,0.25,38,149.8
678,F#6,169.5,2.0,56,149.8
679,F#5,169.5,2.0,56,149.8
680,F#4,169.75,0.25,35,149.8
681,B2,170.0,0.25,40,149.8
682,D4,170.25,0.25,34,149.8
683,F#3,170.5,0.25,37,149.8
684,D4,170.75,0.25,34,149.8
685,C#3,171.0,0.25,40,149.8
686,E4,171.25,0.25,34,149.8
687,F#3,171.5,0.25,37,149.8
688,E4,171.75,0.25,34,149.8
689,D3,172.0,0.25,40,149.8
690,F#4,172.25,0.25,35,149.8
691,F#3,172.5,0.25,38,149.8
692,F#6,172.5,1.0,56,149.8
693,F#5,172.5,1.0,56,149.8
694,F#4,172.75,0.25,35,149.8
695,B2,173.0,0.25,40,149.8
696,D4,173.25,0.25,34,149.8
697,F#3,173.5,0.25,37,149.8
698,B4,173.5,2.0,56,149.8
699,B5,173.5,2.0,56,149.8
700,D4,173.75,0.25,34,149.8
701,C#3,174.0,0.25,40,149.8
702,E4,174.25,0.25,34,149.8
703,F#3,174.5,0.25,37,149.8
704,E4,174.75,0.25,34,149.8
705,D3,175.0,0.25,40,149.8
706,F#4,175.25,0.25,35,149.8
707,F#3,175.5,0.25,38,149.8
708,F#4,175.75,0.25,35,149.8
709,B2,176.0,0.25,40,149.8
710,D4,176.25,0.25,34,149.8
711,F#3,176.5,0.25,37,149.8
712,B4,176.5,1.0,56,149.8
713,B5,176.5,1.0,56,149.8
714,D4,176.75,0.25,34,149.8
715,C#3,177.0,0.25,40,149.8
716,E4,177.25,0.25,34,149.8
717,F#3,177.5,0.25,37,149.8
718,F#4,177.5,2.0,56,149.8
719,F#5,177.5,2.0,56,149.8
720,E4,177.75,0.25,34,149.8
721,D3,178.0,0.25,40,149.8
722,F#4,178.25,0.25,35,149.8
723,F#3,178.5,0.25,38,149.8
724,F#4,178.75,0.25,35,149.8
725,E3,179.0,0.25,40,149.8
726,D4,179.25,0.25,34,149.8
727,B3,179.5,0.25,37,149.8
728,D4,179.75,0.25,34,149.8
729,F3,180.0,0.25,49,149.8
730,D4,180.25,0.25,34,149.8
731,B3,180.5,0.25,42,149.8
732,F#4,180.5,1.0,56,149.8
733,F#5,180.5,1.0,56,149.8
734,D4,180.75,0.25,34,149.8
735,F#3,181.0,0.25,48,149.8
736,D4,181.25,0.25,35,149.8
737,B3,181.5,2.0,56,149.8
738,B4,181.5,2.0,56,149.8
739,B3,181.5,0.25,38,149.8
740,D4,181.75,0.25,38,149.8
741,F#3,182.0,0.25,51,149.8
742,D4,182.25,0.25,39,149.8
743,B3,182.5,0.25,42,149.8
744,D4,182.75,0.25,39,149.8
745,F#3,183.0,0.25,48,149.8
746,D4,183.25,0.25,38,149.8
747,B4,183.5,1.0,56,149.8
748,B3,183.5,0.25,39,149.8
749,D4,183.75,0.25,38,149.8
750,F#3,184.0,0.25,45,149.8
751,E4,184.25,0.25,41,149.8
752,G4,184.5,1.0,63,149.8
753,C#4,184.5,0.25,45,149.8
754,E4,184.75,0.25,40,149.8
755,B2,185.0,0.25,40,149.8
756,D4,185.25,0.25,36,149.8
757,F#4,185.5,979/1000,57,149.8
758,F#3,185.5,0.25,41,149.8
759,D4,185.75,0.25,40,149.8
760,C#3,186.0,0.25,50,149.8
761,E4,186.25,0.25,41,149.8
762,F#4,186.5,2.0,65,149.8
763,F#3,186.5,0.25,44,149.8
764,E4,186.75,0.25,39,149.8
765,D3,187.0,0.25,45,149.8
766,F#4,187.25,0.25,38,149.8
767,F#3,187.5,0.25,40,149.8
768,F#4,187.75,0.25,36,149.8
769,B2,188.0,0.25,40,149.8
770,D4,188.25,0.25,36,149.8
771,B-4,188.5,1.0,58,149.8
772,F#3,188.5,0.25,41,149.8
773,D4,188.75,0.25,40,149.8
774,C#3,189.0,0.25,50,149.8
775,E4,189.25,0.25,41,149.8
776,B4,189.5,0.5,56,149.8
777,F#3,189.5,0.25,44,149.8
778,E4,189.75,0.25,39,149.8
779,G5,190.0,0.5,68,149.8
780,D3,190.0,0.25,45,149.8
781,F#4,190.25,0.25,38,149.8
782,G6,190.5,1.5,74,149.8
783,F#3,190.5,0.25,40,149.8
784,F#4,190.75,0.25,36,149.8
785,B2,191.0,0.25,40,149.8
786,D4,191.25,0.25,36,149.8
787,F#3,191.5,0.25,41,149.8
788,D4,191.75,0.25,40,149.8
789,F#6,192.0,0.5,56,149.8
790,C#3,192.0,0.25,50,149.8
791,E4,192.25,0.25,41,149.8
792,F#3,192.5,0.25,44,149.8
793,E4,192.75,0.25,39,149.8
794,F#6,193.0,0.5,69,149.8
795,D3,193.0,0.25,45,149.8
796,F#4,193.25,0.25,38,149.8
797,C#6,193.5,1.5,66,149.8
798,F#3,193.5,0.25,40,149.8
799,F#4,193.75,0.25,36,149.8
800,B2,194.0,0.25,40,149.8
801,D4,194.25,0.25,36,149.8
802,F#3,194.5,0.25,41,149.8
803,D4,194.75,0.25,40,149.8
804,B5,195.0,0.5,51,149.8
805,C#3,195.0,0.25,50,149.8
806,E4,195.25,0.25,41,149.8
807,F#3,195.5,0.25,44,149.8
808,E4,195.75,0.25,39,149.8
809,B5,196.0,0.5,73,149.8
810,D3,196.0,0.25,45,149.8
811,F#4,196.25,0.25,38,149.8
812,G5,196.5,1.5,70,149.8
813,F#3,196.5,0.25,40,149.8
814,F#4,196.75,0.25,36,149.8
815,E3,197.0,0.25,40,149.8
816,D4,197.25,0.25,34,149.8
817,B3,197.5,0.25,37,149.8
818,D4,197.75,0.25,34,149.8
819,F#5,198.0,0.5,53,149.8
820,F3,198.0,0.25,49,149.8
821,D4,198.25,0.25,34,149.8
822,B3,198.5,0.25,42,149.8
823,D4,198.75,0.25,34,149.8
824,F#5,199.0,0.5,70,149.8
825,F#3,199.0,0.25,48,149.8
826,D4,199.25,0.25,35,149.8
827,C#5,199.5,1.5,65,149.8
828,B3,199.5,0.25,38,149.8
829,D4,199.75,0.25,38,149.8
830,F#3,200.0,1979/1000,53,149.8
831,B4,201.0,479/1000,56,149.8
832,B4,201.5,1.0,63,149.8
833,F#2,202.0,1.0,52,149.8
834,F#1,202.0,1.0,52,149.8
835,G4,202.5,1.0,63,149.8
836,B2,203.0,0.25,86,149.8
837,B1,203.0,0.25,86,149.8
838,F#4,203.5,979/1000,65,149.8
839,C#3,203.5,0.25,75,149.8
840,C#2,203.5,0.25,75,149.8
841,D3,204.0,0.25,75,149.8
842,D2,204.0,0.25,75,149.8
843,F#4,204.5,0.5,71,149.8
844,E3,204.5,0.25,80,149.8
845,E2,204.5,0.25,80,149.8
846,D4,205.0,0.5,65,149.8
847,F#3,205.0,1.0,87,149.8
848,F#2,205.0,1.0,87,149.8
849,B3,205.5,0.5,71,149.8
850,G3,206.0,0.5,65,149.8
851,F#3,206.0,3.0,87,149.8
852,F#2,206.0,3.0,87,149.8
853,F#3,206.5,0.5,70,149.8
854,B-3,207.0,0.5,76,149.8
855,B3,207.5,1.0,80,149.8
856,E2,209.0,3.0,40,149.8
857,E3,209.0,3.0,40,149.8
858,B3,210.5,3.0,73,149.8
859,G3,210.5,3.0,73,149.8
860,F#3,212.0,3.0,40,149.8
861,F#2,212.0,3.0,40,149.8
862,C4,213.5,2.0,34,149.8
863,G3,213.5,3.0,28,149.8
864,B2,215.0,0.25,86,149.8
865,B1,215.0,0.25,86,149.8
866,G4,215.5,1.0,39,149.8
867,C#3,215.5,0.25,75,149.8
868,C#2,215.5,0.25,75,149.8
869,D3,216.0,0.25,75,149.8
870,D2,216.0,0.25,75,149.8
871,G4,216.5,2.0,39,149.8
872,E4,216.5,3.0,27,149.8
873,B-3,216.5,3.0,27,149.8
874,C#4,216.5,3.0,27,149.8
875,E3,216.5,0.25,80,149.8
876,E2,216.5,0.25,80,149.8
877,F#3,217.0,1.0,87,149.8
878,F#2,217.0,1.0,87,149.8
879,F#3,218.0,3.0,87,149.8
880,F#2,218.0,3.0,87,149.8
881,F#4,218.5,979/1000,33,149.8
882,F#4,219.5,1.0,36,149.8
883,D4,219.5,1.0,36,149.8
884,B3,219.5,1.0,36,149.8
885,E2,221.0,3.0,40,149.8
886,E3,221.0,3.0,40,149.8
887,B3,222.5,3.0,73,149.8
888,G3,222.5,3.0,73,149.8
889,F#2,224.0,3.0,26,149.8
890,F#3,224.0,3.0,26,149.8
891,C4,225.5,2.0,34,149.8
892,G3,225.5,3.0,28,149.8
893,G4,227.5,1.0,39,149.8
894,G4,228.5,2.0,39,149.8
895,E4,228.5,3.0,27,149.8
896,B-3,228.5,3.0,27,149.8
897,C#4,228.5,3.0,27,149.8
898,B2,230.0,3.0,21,149.8
899,B1,230.0,3.0,21,149.8
900,F#4,230.5,979/1000,33,149.8
901,G4,233.556,118/125,39,149.8
902,G4,234.5,257/125,39,149.8
903,B3,234.5,3.0,24,149.8
904,D4,234.5,3.0,24,149.8
905,F#2,236.0,3.0,21,149.8
906,F#1,236.0,3.0,21,149.8
907,F#4,236.556,118/125,33,149.8
908,F#4,237.5,7/125,33,149.8
909,B1,239.0,1.0,21,149.8
910,B2,239.0,1.0,21,149.8
911,G4,239.556,118/125,39,149.8
912,G4,240.5,257/125,39,149.8
913,C#4,240.5,3.0,24,149.8
914,E4,240.5,3.0,24,149.8
915,B1,242.0,1.0,21,149.8
916,B2,242.0,1.0,21,149.8
917,B-4,242.5,1.0,33,149.8
918,B3,243.5,1.0,30,149.8
919,D4,243.5,1.0,30,149.8
920,B4,243.5,1.0,30,149.8
921,B1,245.0,1.0,21,149.8
922,B2,245.0,1.0,21,149.8
923,B3,246.5,1.0,30,149.8
924,D4,246.5,1.0,30,149.8
925,B4,246.5,1.0,30,149.8
926,B3,249.5,1.0,30,149.8
927,D4,249.5,1.0,30,149.8
928,B4,249.5,1.0,30,149.8
929,B4,252.5,2979/1000,33,149.8
930,B4,255.5,2979/1000,33,149.8
931,A4,256.0,0.25,28,149.8
932,F#4,256.0,0.25,28,149.8
933,F#4,257.0,1.0,31,149.8
934,A4,257.0,1.0,31,149.8
935,B4,258.5,1979/1000,33,149.8
936,A4,259.0,0.25,28,149.8
937,F#4,259.0,0.25,28,149.8
938,E4,260.0,1.0,31,149.8
939,G4,260.0,1.0,31,149.8
940,A5,260.5,0.25,38,149.8
941,B4,260.5,0.25,38,149.8
942,B4,261.0,0.25,33,149.8
943,B4,261.5,0.25,34,149.8
944,A5,261.5,1.5,46,149.8
945,B4,262.0,0.25,30,149.8
946,G4,262.0,1.0,28,149.8
947,E4,262.0,1.0,28,149.8
948,B4,262.5,0.25,30,149.8
949,B4,263.0,0.25,30,149.8
950,G5,263.0,0.5,42,149.8
951,D4,263.0,1.0,31,149.8
952,F4,263.0,1.0,31,149.8
953,B4,263.5,0.25,34,149.8
954,F#5,263.5,0.25,34,149.8
955,B4,264.0,0.25,30,149.8
956,B4,264.5,0.25,34,149.8
957,B5,264.5,0.5,46,149.8
958,G5,264.5,0.5,46,149.8
959,B4,265.0,0.25,30,149.8
960,F4,265.0,0.5,28,149.8
961,D4,265.0,0.5,28,149.8
962,B4,265.5,0.25,30,149.8
963,B4,266.0,0.25,30,149.8
964,C4,266.0,0.5,31,149.8
965,E4,266.0,0.5,31,149.8
966,B4,266.5,0.25,30,149.8
967,E4,266.5,0.25,30,149.8
968,B5,266.5,1.0,31,149.8
969,G5,266.5,1.0,31,149.8
970,B4,267.0,0.25,30,149.8
971,E4,267.0,0.25,30,149.8
972,B4,267.5,0.25,34,149.8
973,E4,267.5,0.25,30,149.8
974,B5,267.5,1.5,36,149.8
975,G#5,267.5,1.5,36,149.8
976,B4,268.0,0.25,30,149.8
977,E4,268.0,0.25,39,149.8
978,B4,268.5,0.25,30,149.8
979,E4,268.5,0.25,37,149.8
980,B4,269.0,0.25,30,149.8
981,A5,269.0,0.5,40,149.8
982,E4,269.0,0.25,40,149.8
983,A3,269.0,1.0,36,149.8
984,C4,269.0,1.0,36,149.8
985,B4,269.5,0.25,30,149.8
986,E4,269.5,0.25,36,149.8
987,B5,269.5,0.5,30,149.8
988,G#5,269.5,0.5,30,149.8
989,B4,270.0,0.25,30,149.8
990,E4,270.0,0.25,37,149.8
991,E4,270.5,0.25,38,149.8
992,C5,270.5,1.0,35,149.8
993,A5,270.5,1.0,35,149.8
994,C6,270.5,1.0,35,149.8
995,E4,271.0,0.25,38,149.8
996,C4,271.0,0.25,38,149.8
997,A3,271.0,0.25,38,149.8
998,E4,271.5,0.25,40,149.8
999,F4,272.0,0.25,47,149.8
1000,G#3,272.0,1.0,42,149.8
1001,B3,272.0,1.0,42,149.8
1002,F4,272.5,0.25,42,149.8
1003,C5,272.5,0.25,48,149.8
1004,C6,272.5,0.25,48,149.8
1005,F4,273.0,0.25,43,149.8
1006,F4,273.5,0.25,45,149.8
1007,C5,273.5,1.5,54,149.8
1008,C6,273.5,1.5,54,149.8
1009,G#3,274.0,0.25,49,149.8
1010,B3,274.0,0.25,49,149.8
1011,F4,274.0,0.25,49,149.8
1012,F4,274.5,0.25,50,149.8
1013,F4,275.0,0.25,53,149.8
1014,B4,275.0,0.5,54,149.8
1015,B5,275.0,0.5,54,149.8
1016,G#3,275.0,1.0,49,149.8
1017,B-3,275.0,1.0,49,149.8
1018,F4,275.5,0.25,49,149.8
1019,A4,275.5,0.25,48,149.8
1020,A5,275.5,0.25,48,149.8
1021,F4,276.0,0.25,49,149.8
1022,F4,276.5,0.25,50,149.8
1023,D6,276.5,0.5,64,149.8
1024,D5,276.5,0.5,64,149.8
1025,F4,277.0,0.25,49,149.8
1026,B-3,277.0,0.25,49,149.8
1027,G#3,277.0,0.25,49,149.8
1028,F4,277.5,0.25,52,149.8
1029,G3,278.0,0.25,60,149.8
1030,B-3,278.0,0.25,60,149.8
1031,E-4,278.0,0.25,60,149.8
1032,D5,278.5,0.25,64,149.8
1033,D6,278.5,0.25,64,149.8
1034,E-4,278.5,0.25,54,149.8
1035,B-3,278.5,0.25,54,149.8
1036,G3,278.5,0.25,54,149.8
1037,E-4,279.0,0.25,54,149.8
1038,B-3,279.0,0.25,54,149.8
1039,G3,279.0,0.25,54,149.8
1040,D5,279.5,1.5,73,149.8
1041,D6,279.5,1.5,73,149.8
1042,E-4,279.5,0.25,54,149.8
1043,B-3,279.5,0.25,54,149.8
1044,G3,279.5,0.25,54,149.8
1045,E-4,280.0,0.25,54,149.8
1046,B-3,280.0,0.25,54,149.8
1047,G3,280.0,0.25,54,149.8
1048,E-4,280.5,0.25,54,149.8
1049,B-3,280.5,0.25,54,149.8
1050,G3,280.5,0.25,54,149.8
1051,C5,281.0,0.5,69,149.8
1052,C6,281.0,0.5,69,149.8
1053,F#3,281.0,0.25,56,149.8
1054,B-3,281.0,0.25,56,149.8
1055,D5,281.5,0.25,64,149.8
1056,D6,281.5,0.25,64,149.8
1057,B-3,281.5,0.25,51,149.8
1058,F#3,281.5,0.25,51,149.8
1059,B-3,282.0,0.25,51,149.8
1060,F#3,282.0,0.25,51,149.8
1061,E-5,282.5,1.5,89,149.8
1062,E-6,282.5,1.5,89,149.8
1063,B-3,282.5,0.25,51,149.8
1064,F#3,282.5,0.25,51,149.8
1065,B-3,283.0,0.25,51,149.8
1066,F#3,283.0,0.25,51,149.8
1067,B-3,283.5,0.25,52,149.8
1068,F#3,283.5,0.25,52,149.8
1069,D5,284.0,0.5,68,149.8
1070,D6,284.0,0.5,68,149.8
1071,E-3,284.0,0.25,52,149.8
1072,F#3,284.0,0.25,52,149.8
1073,E-6,284.5,0.5,78,149.8
1074,E-5,284.5,0.5,78,149.8
1075,F#3,284.5,0.25,48,149.8
1076,E-3,284.5,0.25,48,149.8
1077,F#3,285.0,0.25,48,149.8
1078,E-3,285.0,0.25,48,149.8
1079,E-4,285.5,1.5,89,149.8
1080,F#3,285.5,0.25,48,149.8
1081,E-3,285.5,0.25,48,149.8
1082,F#3,286.0,0.25,48,149.8
1083,E-3,286.0,0.25,48,149.8
1084,F#3,286.5,0.25,48,149.8
1085,E-3,286.5,0.25,48,149.8
1086,D4,287.0,0.5,62,149.8
1087,E-3,287.0,0.25,54,149.8
1088,C3,287.0,0.25,54,149.8
1089,E-4,287.5,0.5,71,149.8
1090,E-3,287.5,0.25,49,149.8
1091,C3,287.5,0.25,49,149.8
1092,E-3,288.0,0.25,49,149.8
1093,C3,288.0,0.25,49,149.8
1094,E-4,288.5,1.5,82,149.8
1095,F#4,288.5,1.5,82,149.8
1096,E-3,288.5,0.25,50,149.8
1097,C3,288.5,0.25,50,149.8
1098,E-3,289.0,0.25,50,149.8
1099,C3,289.0,0.25,50,149.8
1100,E-3,289.5,0.25,50,149.8
1101,C3,289.5,0.25,50,149.8
1102,F4,290.0,0.5,58,149.8
1103,D4,290.0,0.5,58,149.8
1104,A2,290.0,0.25,54,149.8
1105,C3,290.0,0.25,54,149.8
1106,F#4,290.5,0.5,68,149.8
1107,E-4,290.5,0.5,68,149.8
1108,C3,290.5,0.25,50,149.8
1109,A2,290.5,0.25,50,149.8
1110,C3,291.0,0.25,50,149.8
1111,A2,291.0,0.25,50,149.8
1112,F#5,291.5,1.5,85,149.8
1113,E-5,291.5,1.5,85,149.8
1114,C3,291.5,0.25,50,149.8
1115,A2,291.5,0.25,50,149.8
1116,C3,292.0,0.25,50,149.8
1117,A2,292.0,0.25,50,149.8
1118,C3,292.5,0.25,50,149.8
1119,A2,292.5,0.25,50,149.8
1120,F5,293.0,0.5,60,149.8
1121,D5,293.0,0.5,60,149.8
1122,F#2,293.0,0.25,61,149.8
1123,A2,293.0,0.25,61,149.8
1124,C3,293.0,0.25,61,149.8
1125,F#5,293.5,0.5,69,149.8
1126,E-5,293.5,0.5,69,149.8
1127,F#2,293.5,0.25,56,149.8
1128,C3,293.5,0.25,56,149.8
1129,A2,293.5,0.25,56,149.8
1130,F#2,294.0,0.25,56,149.8
1131,C3,294.0,0.25,56,149.8
1132,A2,294.0,0.25,56,149.8
1133,C6,294.5,1.5,86,149.8
1134,C5,294.5,1.5,86,149.8
1135,F#2,294.5,0.25,56,149.8
1136,C3,294.5,0.25,56,149.8
1137,A2,294.5,0.25,56,149.8
1138,F#2,295.0,0.25,56,149.8
1139,C3,295.0,0.25,56,149.8
1140,A2,295.0,0.25,56,149.8
1141,F#2,295.5,0.25,57,149.8
1142,C3,295.5,0.25,57,149.8
1143,A2,295.5,0.25,57,149.8
1144,B5,296.0,0.5,61,149.8
1145,B4,296.0,0.5,61,149.8
1146,E-2,296.0,0.25,54,149.8
1147,F#2,296.0,0.25,54,149.8
1148,A2,296.0,0.25,54,149.8
1149,C3,296.0,0.25,54,149.8
1150,C6,296.5,0.5,71,149.8
1151,C5,296.5,0.5,71,149.8
1152,E-2,296.5,0.25,50,149.8
1153,F#2,296.5,0.25,50,149.8
1154,C3,296.5,0.25,50,149.8
1155,A2,296.5,0.25,50,149.8
1156,E-2,297.0,0.25,50,149.8
1157,F#2,297.0,0.25,50,149.8
1158,C3,297.0,0.25,50,149.8
1159,A2,297.0,0.25,50,149.8
1160,A3,297.5,1.5,97,149.8
1161,E-2,297.5,0.25,50,149.8
1162,F#2,297.5,0.25,50,149.8
1163,C3,297.5,0.25,50,149.8
1164,A2,297.5,0.25,50,149.8
1165,E-2,298.0,0.25,51,149.8
1166,F#2,298.0,0.25,51,149.8
1167,C3,298.0,0.25,51,149.8
1168,A2,298.0,0.25,51,149.8
1169,E-2,298.5,0.25,51,149.8
1170,F#2,298.5,0.25,51,149.8
1171,C3,298.5,0.25,51,149.8
1172,A2,298.5,0.25,51,149.8
1173,G#3,299.0,0.5,68,149.8
1174,D2,299.0,0.25,56,149.8
1175,F#2,299.0,0.25,56,149.8
1176,A2,299.0,0.25,56,149.8
1177,C3,299.0,0.25,56,149.8
1178,A3,299.5,0.5,78,149.8
1179,D2,299.5,0.25,51,149.8
1180,F#2,299.5,0.25,51,149.8
1181,C3,299.5,0.25,51,149.8
1182,A2,299.5,0.25,51,149.8
1183,D2,300.0,0.25,51,149.8
1184,F#2,300.0,0.25,51,149.8
1185,C3,300.0,0.25,51,149.8
1186,A2,300.0,0.25,51,149.8
1187,F#6,300.5,1.5,90,149.8
1188,F#5,300.5,1.5,90,149.8
1189,D2,300.5,0.25,51,149.8
1190,F#2,300.5,0.25,51,149.8
1191,C3,300.5,0.25,51,149.8
1192,A2,300.5,0.25,51,149.8
1193,D2,301.0,0.25,51,149.8
1194,F#2,301.0,0.25,51,149.8
1195,C3,301.0,0.25,51,149.8
1196,A2,301.0,0.25,51,149.8
1197,D2,301.5,0.25,51,149.8
1198,F#2,301.5,0.25,51,149.8
1199,C3,301.5,0.25,51,149.8
1200,A2,301.5,0.25,51,149.8
1201,F6,302.0,0.5,64,149.8
1202,F5,302.0,0.5,64,149.8
1203,G2,302.0,0.25,65,149.8
1204,G1,302.0,0.25,65,149.8
1205,F#6,302.5,0.5,74,149.8
1206,F#5,302.5,0.5,74,149.8
1207,G1,302.5,0.25,59,149.8
1208,G2,302.5,0.25,59,149.8
1209,G2,303.0,0.25,62,149.8
1210,G1,303.0,0.25,62,149.8
1211,F#4,303.5,1.5,76,149.8
1212,C5,303.5,1.5,76,149.8
1213,A4,303.5,1.5,76,149.8
1214,F#4,305.0,0.5,63,149.8
1215,B4,305.0,0.5,63,149.8
1216,A4,305.0,0.5,63,149.8
1217,F#4,305.5,0.5,73,149.8
1218,C5,305.5,0.5,73,149.8
1219,A4,305.5,0.5,73,149.8
1220,G2,305.5,0.25,26,149.8
1221,G1,305.5,0.25,26,149.8
1222,G1,306.0,0.25,30,149.8
1223,G2,306.0,0.25,30,149.8
1224,B4,306.5,1.0,84,149.8
1225,G#4,306.5,1.0,84,149.8
1226,F4,306.5,1.0,84,149.8
1227,A4,308.0,0.25,36,149.8
1228,B4,308.0,0.25,36,149.8
1229,F5,308.0,0.25,36,149.8
1230,G4,308.5,0.25,36,149.8
1231,C5,308.5,0.25,36,149.8
1232,E5,308.5,0.25,36,149.8
1233,G2,308.5,0.25,26,149.8
1234,G1,308.5,0.25,26,149.8
1235,G1,309.0,0.25,30,149.8
1236,G2,309.0,0.25,30,149.8
1237,E-5,309.5,1.0,42,149.8
1238,A4,309.5,1.0,42,149.8
1239,F#4,309.5,1.0,42,149.8
1240,F#4,311.0,0.25,36,149.8
1241,A4,311.0,0.25,36,149.8
1242,E-5,311.0,0.25,36,149.8
1243,F4,311.5,0.25,36,149.8
1244,B4,311.5,0.25,36,149.8
1245,D5,311.5,0.25,36,149.8
1246,G1,311.5,0.25,28,149.8
1247,G2,311.5,0.25,28,149.8
1248,C#5,312.5,1.0,40,149.8
1249,G4,312.5,1.0,40,149.8
1250,E4,312.5,1.0,40,149.8
1251,G1,312.5,0.25,28,149.8
1252,G2,312.5,0.25,28,149.8
1253,G1,313.5,0.25,28,149.8
1254,G2,313.5,0.25,28,149.8
1255,E-4,314.0,0.25,36,149.8
1256,G4,314.0,0.25,36,149.8
1257,C5,314.0,0.25,36,149.8
1258,D4,314.5,0.25,36,149.8
1259,G4,314.5,0.25,36,149.8
1260,B4,314.5,0.25,36,149.8
1261,G2,314.5,0.25,31,149.8
1262,G1,314.5,0.25,31,149.8
1263,C#4,315.5,0.25,45,149.8
1264,E4,315.5,0.25,45,149.8
1265,B-4,315.5,0.25,45,149.8
1266,A2,315.5,0.25,35,149.8
1267,A1,315.5,0.25,35,149.8
1268,C4,316.5,0.25,45,149.8
1269,E4,316.5,0.25,45,149.8
1270,A4,316.5,0.25,45,149.8
1271,B2,316.5,0.25,36,149.8
1272,B1,316.5,0.25,36,149.8
1273,C4,317.5,0.25,45,149.8
1274,E-4,317.5,0.25,45,149.8
1275,G#4,317.5,0.25,45,149.8
1276,C3,317.5,0.25,36,149.8
1277,C2,317.5,0.25,36,149.8
1278,G4,318.5,0.25,54,149.8
1279,C#2,318.5,0.25,37,149.8
1280,C#3,318.5,0.25,37,149.8
1281,F#4,319.5,0.25,55,149.8
1282,D2,319.5,0.25,38,149.8
1283,D3,319.5,0.25,38,149.8
1284,F4,320.5,0.25,58,149.8
1285,E-2,320.5,0.25,38,149.8
1286,E-3,320.5,0.25,38,149.8
1287,E4,321.5,0.25,60,149.8
1288,E2,321.5,0.25,42,149.8
1289,E3,321.5,0.25,42,149.8
1290,E-4,322.5,0.25,60,149.8
1291,F2,322.5,0.25,44,149.8
1292,F3,322.5,0.25,44,149.8
1293,D4,323.5,0.25,60,149.8
1294,F#3,323.5,0.25,32,149.8
1295,F#2,323.5,0.25,32,149.8
1296,C#4,324.5,0.25,60,149.8
1297,G3,324.5,0.25,28,149.8
1298,G2,324.5,0.25,28,149.8
1299,C4,325.5,0.25,64,149.8
1300,G3,325.5,0.25,24,149.8
1301,G2,325.5,0.25,24,149.8
1302,B3,326.5,0.25,68,149.8
1303,B-3,327.5,0.25,63,149.8
1304,A3,328.5,0.25,50,149.8
1305,F4,329.0,1979/1000,26,149.8
1306,G#3,329.5,0.25,46,149.8
1307,G#3,330.5,0.5,42,149.8
1308,G3,331.0,0.5,33,149.8
1309,B3,331.0,1.0,26,149.8
1310,F4,331.0,1.0,26,149.8
1311,G4,331.5,2.0,43,149.8
1312,C4,332.0,1.0,33,149.8
1313,E4,332.0,1.0,33,149.8
1314,C4,333.0,1.0,26,149.8
1315,G4,333.5,1979/1000,43,149.8
1316,C#4,334.0,1.0,26,149.8
1317,D4,335.0,1.0,33,149.8
1318,G4,335.5,1.0,43,149.8
1319,A3,336.0,1.0,26,149.8
1320,G4,336.5,1.0,43,149.8
1321,B-3,337.0,979/1000,26,149.8
1322,C5,337.5,1.0,48,149.8
1323,B3,338.0,1.0,32,149.8
1324,A4,338.5,1.0,43,149.8
1325,G3,339.0,1.0,26,149.8
1326,G4,339.5,1.0,47,149.8
1327,D4,340.0,1.0,26,149.8
1328,F4,340.5,979/1000,43,149.8
1329,C#4,341.0,1.0,31,149.8
1330,F4,341.5,1.0,45,149.8
1331,C4,342.0,0.938,26,149.8
1332,F4,342.5,1.0,45,149.8
1333,B-3,343.0,1.0,26,149.8
1334,C4,343.0,1.0,26,149.8
1335,D5,343.5,1.0,52,149.8
1336,A3,344.0,1.0,43,149.8
1337,C4,344.0,1.0,26,149.8
1338,F4,344.5,1.0,46,149.8
1339,F4,345.0,1.0,48,149.8
1340,F3,345.0,1.0,48,149.8
1341,F4,345.5,1.0,46,149.8
1342,D4,346.0,1.0,42,149.8
1343,F#3,346.0,1.0,42,149.8
1344,E4,346.5,0.938,43,149.8
1345,C4,347.0,1.0,47,149.8
1346,G3,347.0,1.0,47,149.8
1347,E4,347.5,0.25,36,149.8
1348,G4,347.75,0.25,31,149.8
1349,C5,348.0,0.25,32,149.8
1350,B-3,348.0,979/1000,47,149.8
1351,D3,348.0,979/1000,47,149.8
1352,E5,348.25,0.25,31,149.8
1353,F5,348.5,0.25,39,149.8
1354,C5,348.75,0.25,38,149.8
1355,A4,349.0,0.25,41,149.8
1356,F3,349.0,1.0,43,149.8
1357,B-3,349.0,1.0,43,149.8
1358,F4,349.25,0.25,47,149.8
1359,A4,349.5,0.25,52,149.8
1360,C5,349.75,0.25,41,149.8
1361,F5,350.0,0.25,37,149.8
1362,E3,350.0,1.0,41,149.8
1363,B-3,350.0,1.0,43,149.8
1364,A5,350.25,229/1000,35,149.8
1365,A5,350.5,0.25,38,149.8
1366,D5,350.75,0.25,32,149.8
1367,A5,351.0,0.25,35,149.8
1368,G4,351.0,1.0,51,149.8
1369,D6,351.25,0.25,35,149.8
1370,A5,351.5,0.25,39,149.8
1371,D5,351.75,0.25,34,149.8
1372,A5,352.0,0.25,41,149.8
1373,C3,352.0,1.0,44,149.8
1374,B-3,352.0,1.0,44,149.8
1375,B-5,352.25,0.25,48,149.8
1376,G5,352.5,0.25,52,149.8
1377,D5,352.75,0.25,41,149.8
1378,G5,353.0,0.25,37,149.8
1379,F3,353.0,1.0,49,149.8
1380,B-3,353.0,1.0,44,149.8
1381,B-5,353.25,0.25,34,149.8
1382,G5,353.5,0.25,38,149.8
1383,C#5,353.75,0.25,32,149.8
1384,G5,354.0,0.25,35,149.8
1385,F3,354.0,1.0,44,149.8
1386,A3,354.0,1.0,44,149.8
1387,B-5,354.25,0.25,35,149.8
1388,G5,354.5,0.25,39,149.8
1389,C5,354.75,0.25,38,149.8
1390,G5,355.0,0.25,40,149.8
1391,A2,355.0,1.0,50,149.8
1392,B-5,355.25,0.25,47,149.8
1393,E5,355.5,0.25,54,149.8
1394,C5,355.75,0.25,47,149.8
1395,E5,356.0,0.25,45,149.8
1396,A2,356.0,1.0,50,149.8
1397,G5,356.25,229/1000,39,149.8
1398,G5,356.5,0.25,38,149.8
1399,E5,356.75,0.25,32,149.8
1400,G5,357.0,0.25,35,149.8
1401,D3,357.0,1.0,56,149.8
1402,C6,357.25,0.25,35,149.8
1403,G5,357.5,0.25,39,149.8
1404,E5,357.75,0.25,35,149.8
1405,G5,358.0,0.25,36,149.8
1406,B-2,358.0,1.0,48,149.8
1407,C6,358.25,0.25,41,149.8
1408,A5,358.5,0.25,46,149.8
1409,F5,358.75,0.25,32,149.8
1410,A5,359.0,0.25,32,149.8
1411,A2,359.0,1.0,58,149.8
1412,C6,359.25,0.25,32,149.8
1413,A5,359.5,0.25,38,149.8
1414,F5,359.75,0.25,32,149.8
1415,A5,360.0,0.25,35,149.8
1416,G#2,360.0,979/1000,50,149.8
1417,C6,360.25,0.25,35,149.8
1418,A5,360.5,0.25,46,149.8
1419,F5,360.75,0.25,37,149.8
1420,A5,361.0,0.25,38,149.8
1421,G#2,361.0,1.0,58,149.8
1422,D6,361.25,0.25,37,149.8
1423,A5,361.5,0.25,45,149.8
1424,F5,361.75,0.25,38,149.8
1425,A5,362.0,0.25,38,149.8
1426,G#2,362.0,1.0,58,149.8
1427,D6,362.25,0.25,38,149.8
1428,B-5,362.5,0.25,45,149.8
1429,F5,362.75,0.25,39,149.8
1430,B-5,363.0,0.25,43,149.8
1431,E3,363.0,2.0,57,149.8
1432,D6,363.25,0.25,43,149.8
1433,B5,363.5,0.25,47,149.8
1434,F5,363.75,0.25,38,149.8
1435,B5,364.0,0.25,39,149.8
1436,G#2,364.0,1.0,50,149.8
1437,D6,364.25,0.25,38,149.8
1438,B5,364.5,0.25,47,149.8
1439,E5,364.75,0.25,39,149.8
1440,B5,365.0,0.25,40,149.8
1441,A2,365.0,1.0,55,149.8
1442,D6,365.25,0.25,40,149.8
1443,B5,365.5,0.25,47,149.8
1444,E5,365.75,0.25,40,149.8
1445,B5,366.0,0.25,45,149.8
1446,E3,366.0,2.0,59,149.8
1447,D6,366.25,0.25,45,149.8
1448,B5,366.5,0.25,50,149.8
1449,E5,366.75,0.25,40,149.8
1450,B5,367.0,0.25,42,149.8
1451,A2,367.0,1.0,51,149.8
1452,D6,367.25,0.25,41,149.8
1453,B5,367.5,0.25,50,149.8
1454,E5,367.75,0.25,42,149.8
1455,B5,368.0,0.25,42,149.8
1456,B2,368.0,1.0,56,149.8
1457,D6,368.25,0.25,42,149.8
1458,B5,368.5,0.25,50,149.8
1459,E5,368.75,0.25,43,149.8
1460,B5,369.0,0.25,47,149.8
1461,E3,369.0,2.0,62,149.8
1462,D6,369.25,0.25,48,149.8
1463,B5,369.5,0.25,53,149.8
1464,E5,369.75,0.25,44,149.8
1465,B5,370.0,0.25,51,149.8
1466,B2,370.0,1.0,57,149.8
1467,C6,370.25,0.25,55,149.8
1468,A5,370.5,0.25,52,149.8
1469,E5,370.75,0.25,50,149.8
1470,A5,371.0,0.25,48,149.8
1471,C3,371.0,1.0,61,149.8
1472,C6,371.25,0.25,47,149.8
1473,A5,371.5,0.25,54,149.8
1474,E5,371.75,0.25,45,149.8
1475,A5,372.0,0.25,50,149.8
1476,E3,372.0,2.0,68,149.8
1477,C6,372.25,0.25,48,149.8
1478,A5,372.5,0.25,56,149.8
1479,D5,372.75,0.25,48,149.8
1480,A5,373.0,0.25,55,149.8
1481,C3,373.0,1.0,59,149.8
1482,B5,373.25,0.25,56,149.8
1483,G#5,373.5,0.25,59,149.8
1484,D5,373.75,0.25,52,149.8
1485,G#5,374.0,0.25,51,149.8
1486,E-3,374.0,1.0,64,149.8
1487,B5,374.25,0.25,48,149.8
1488,G#5,374.5,0.25,56,149.8
1489,D5,374.75,0.25,48,149.8
1490,G#5,375.0,0.25,54,149.8
1491,B3,375.0,2.0,68,149.8
1492,B5,375.25,0.25,51,149.8
1493,G#5,375.5,0.25,59,149.8
1494,C5,375.75,0.25,56,149.8
1495,G#5,376.0,0.25,58,149.8
1496,E-3,376.0,1.0,63,149.8
1497,B5,376.25,0.25,60,149.8
1498,G#5,376.5,0.25,61,149.8
1499,A5,376.75,0.25,54,149.8
1500,C5,377.0,0.25,50,149.8
1501,E3,377.0,1.0,67,149.8
1502,A5,377.25,0.25,50,149.8
1503,G#5,377.5,0.25,59,149.8
1504,A5,377.75,0.25,50,149.8
1505,C5,378.0,0.25,56,149.8
1506,C4,378.0,2.0,73,149.8
1507,A5,378.25,229/1000,53,149.8
1508,A5,378.5,0.25,62,149.8
1509,B4,378.75,0.25,52,149.8
1510,A5,379.0,0.25,53,149.8
1511,E3,379.0,1.0,63,149.8
1512,B5,379.25,0.25,55,149.8
1513,A5,379.5,0.25,60,149.8
1514,B4,379.75,0.25,56,149.8
1515,A5,380.0,0.25,49,149.8
1516,F#3,380.0,1.0,68,149.8
1517,B5,380.25,0.25,49,149.8
1518,A5,380.5,0.25,63,149.8
1519,B4,380.75,0.25,53,149.8
1520,A5,381.0,0.25,58,149.8
1521,E-4,381.0,2.0,76,149.8
1522,B5,381.25,0.25,58,149.8
1523,A5,381.5,0.25,65,149.8
1524,B4,381.75,0.25,54,149.8
1525,A5,382.0,0.25,58,149.8
1526,F#3,382.0,1.0,70,149.8
1527,B5,382.25,0.25,60,149.8
1528,A5,382.5,0.25,62,149.8
1529,B4,382.75,0.25,60,149.8
1530,A5,383.0,0.25,56,149.8
1531,G3,383.0,1.0,74,149.8
1532,B5,383.25,0.25,54,149.8
1533,A5,383.5,0.25,64,149.8
1534,B4,383.75,0.25,56,149.8
1535,A5,384.0,0.25,62,149.8
1536,E4,384.0,2.0,78,149.8
1537,B5,384.25,0.25,58,149.8
1538,A5,384.5,0.25,68,149.8
1539,B4,384.75,0.25,59,149.8
1540,A5,385.0,0.25,62,149.8
1541,G3,385.0,1.0,75,149.8
1542,B5,385.25,0.25,64,149.8
1543,A5,385.5,0.25,67,149.8
1544,B4,385.75,0.25,64,149.8
1545,A5,386.0,0.25,62,149.8
1546,A3,386.0,1.0,77,149.8
1547,B5,386.25,0.25,62,149.8
1548,A5,386.5,0.25,69,149.8
1549,B4,386.75,0.25,58,149.8
1550,A5,387.0,0.25,64,149.8
1551,F#4,387.0,2.0,85,149.8
1552,B5,387.25,0.25,61,149.8
1553,G5,387.5,0.25,72,149.8
1554,B4,387.75,0.25,62,149.8
1555,G5,388.0,0.25,64,149.8
1556,A3,388.0,1.0,81,149.8
1557,B5,388.25,0.25,65,149.8
1558,G5,388.5,0.25,70,149.8
1559,B4,388.75,0.25,67,149.8
1560,G5,389.0,0.25,65,149.8
1561,B-3,389.0,1.0,83,149.8
1562,B5,389.25,229/1000,63,149.8
1563,B5,389.5,0.25,73,149.8
1564,E5,389.75,0.25,61,149.8
1565,B5,390.0,0.25,67,149.8
1566,G4,390.0,2.0,90,149.8
1567,E6,390.25,0.25,64,149.8
1568,C6,390.5,0.25,64,149.8
1569,E5,390.75,0.25,66,149.8
1570,C6,391.0,0.25,69,149.8
1571,B-3,391.0,1.0,88,149.8
1572,E6,391.25,0.25,72,149.8
1573,C6,391.5,0.25,78,149.8
1574,E5,391.75,0.25,74,149.8
1575,C6,392.0,0.25,67,149.8
1576,B3,392.0,3.0,99,149.8
1577,E6,392.25,0.25,67,149.8
1578,C6,392.5,0.25,74,149.8
1579,E5,392.75,0.25,63,149.8
1580,C6,393.0,0.25,70,149.8
1581,E4,393.0,1.0,85,149.8
1582,E6,393.25,0.25,67,149.8
1583,C#6,393.5,0.25,77,149.8
1584,G5,393.75,0.25,67,149.8
1585,C#6,394.0,0.25,71,149.8
1586,G4,394.0,1.0,85,149.8
1587,E6,394.25,0.25,75,149.8
1588,C#6,394.5,0.25,77,149.8
1589,G5,394.75,0.25,72,149.8
1590,C#6,395.0,0.25,72,149.8
1591,B4,395.0,1.0,96,149.8
1592,E6,395.25,0.25,67,149.8
1593,C#6,395.5,0.25,78,149.8
1594,G5,395.75,0.25,66,149.8
1595,C#6,396.0,0.25,73,149.8
1596,E5,396.0,1.0,85,149.8
1597,E6,396.25,0.25,66,149.8
1598,B5,396.5,0.25,87,149.8
1599,G5,396.75,0.25,74,149.8
1600,B5,397.0,0.25,79,149.8
1601,G5,397.0,1.0,85,149.8
1602,E6,397.25,0.25,74,149.8
1603,G6,397.5,0.25,85,149.8
1604,F#6,397.75,0.25,75,149.8
1605,E6,398.0,0.25,79,149.8
1606,E-6,398.25,0.25,75,149.8
1607,E6,398.5,0.25,86,149.8
1608,E-6,398.75,0.25,75,149.8
1609,E6,399.0,0.25,79,149.8
1610,G5,399.0,0.25,86,149.8
1611,F#6,399.25,0.25,76,149.8
1612,F#5,399.25,0.25,79,149.8
1613,G6,399.5,0.25,85,149.8
1614,E5,399.5,0.25,79,149.8
1615,F#6,399.75,0.25,79,149.8
1616,E-5,399.75,0.25,74,149.8
1617,E6,400.0,0.25,79,149.8
1618,E5,400.0,0.5,85,149.8
1619,E-6,400.25,0.25,75,149.8
1620,G6,400.5,0.25,85,149.8
1621,F#6,400.75,0.25,79,149.8
1622,E6,401.0,0.25,79,149.8
1623,E-6,401.25,0.25,75,149.8
1624,G6,401.5,0.25,85,149.8
1625,F#6,401.75,0.25,79,149.8
1626,E6,402.0,0.25,79,149.8
1627,G5,402.0,0.5,50,149.8
1628,E-6,402.25,0.25,76,149.8
1629,G6,402.5,0.25,85,149.8
1630,F#5,402.5,0.5,41,149.8
1631,F#6,402.75,0.25,79,149.8
1632,E6,403.0,0.25,79,149.8
1633,E5,403.0,0.5,45,149.8
1634,E-6,403.25,0.25,76,149.8
1635,E6,403.5,0.5,88,149.8
1636,E-5,403.5,0.5,42,149.8
1637,E5,404.0,1.0,50,149.8
1638,G6,405.5,0.5,50,149.8
1639,F#6,406.0,0.5,42,149.8
1640,G5,406.0,1.0,41,149.8
1641,E6,406.5,0.5,46,149.8
1642,E-6,407.0,0.5,46,149.8
1643,F#5,407.0,1.0,46,149.8
1644,E6,407.5,1.0,50,149.8
1645,E5,408.0,1.0,39,149.8
1646,G6,408.5,1.0,50,149.8
1647,E-5,409.0,1.0,39,149.8
1648,F#6,409.5,1.0,47,149.8
1649,E5,410.0,1.0,45,149.8
1650,E6,410.5,1.0,50,149.8
1651,E-6,411.5,1.0,54,149.8
1652,E6,412.5,1.0,49,149.8
1653,G5,413.0,2.0,40,149.8
1654,G6,414.5,2.0,50,149.8
1655,F#5,415.0,1.0,37,149.8
1656,F#5,416.0,1.0,37,149.8
1657,F#6,416.5,1.0,50,149.8
1658,E5,417.0,1.0,41,149.8
1659,F#6,417.5,1.0,50,149.8
1660,E6,418.5,1.0,50,149.8
1661,G4,419.0,2.0,51,149.8
1662,G4,420.5,2.0,50,149.8
1663,F#4,421.0,0.5,59,149.8
1664,E4,421.5,479/1000,42,149.8
1665,E4,422.0,1.0,50,149.8
1666,F#4,422.5,0.5,56,149.8
1667,E4,423.0,479/1000,40,149.8
1668,E4,423.5,1.0,50,149.8
1669,G4,424.0,1.0,39,149.8
1670,F#4,425.0,0.5,39,149.8
1671,E4,425.5,479/1000,39,149.8
1672,E4,426.0,0.5,39,149.8
1673,G4,427.5,979/1000,50,149.8
1674,G5,427.5,0.5,55,149.8
1675,F#5,428.0,0.5,61,149.8
1676,F#4,428.5,0.5,46,149.8
1677,E5,428.5,0.5,56,149.8
1678,E4,429.0,479/1000,46,149.8
1679,E4,429.5,479/1000,50,149.8
1680,G5,429.5,0.5,58,149.8
1681,F#5,430.0,0.5,65,149.8
1682,E5,430.5,0.5,61,149.8
1683,G4,431.0,0.5,53,149.8
1684,F#4,431.5,0.5,56,149.8
1685,G3,431.5,0.5,71,149.8
1686,E4,432.0,0.5,57,149.8
1687,F#3,432.0,0.5,77,149.8
1688,E3,432.5,0.25,74,149.8
1689,G6,433.0,0.5,61,149.8
1690,E2,433.0,0.25,70,149.8
1691,E3,433.0,0.25,70,149.8
1692,F#6,433.5,0.5,66,149.8
1693,E6,434.0,0.5,63,149.8
1694,E2,434.0,2.0,66,149.8
1695,E3,434.0,2.0,66,149.8
1696,G4,435.0,0.5,63,149.8
1697,F#4,435.5,0.5,74,149.8
1698,E4,436.0,0.5,64,149.8
1699,E3,436.0,0.25,58,149.8
1700,E2,436.0,0.25,58,149.8
1701,D2,437.0,0.5,66,149.8
1702,D3,437.0,0.5,66,149.8
1703,G4,437.5,0.25,69,149.8
1704,E4,437.5,0.25,69,149.8
1705,B3,437.5,0.25,69,149.8
1706,G3,437.5,0.25,69,149.8
1707,G4,438.5,1.5,84,149.8
1708,G3,438.5,2.0,70,149.8
1709,B3,438.5,2.0,70,149.8
1710,E4,438.5,2.0,70,149.8
1711,D4,439.0,1.0,29,149.8
1712,F#4,440.0,0.5,77,149.8
1713,C4,440.0,1.5,33,149.8
1714,D4,440.0,1.5,33,149.8
1715,E4,440.5,0.25,62,149.8
1716,G3,440.5,0.25,62,149.8
1717,A3,441.5,0.5,75,149.8
1718,F#4,441.5,0.5,75,149.8
1719,A4,441.5,0.5,75,149.8
1720,D4,441.5,0.5,28,149.8
1721,B3,441.5,0.5,28,149.8
1722,A3,442.0,0.75,26,149.8
1723,C4,442.0,0.75,26,149.8
1724,G3,443.0,0.75,33,149.8
1725,B3,443.0,0.75,33,149.8
1726,A4,443.5,1.0,34,149.8
1727,F#4,443.5,1.0,34,149.8
1728,F#4,444.5,1.5,41,149.8
1729,A4,444.5,1.5,41,149.8
1730,G3,445.0,0.25,58,149.8
1731,G2,445.0,0.25,58,149.8
1732,G4,446.0,0.5,40,149.8
1733,G2,446.0,2.0,66,149.8
1734,G3,446.0,2.0,66,149.8
1735,A4,446.5,0.75,38,149.8
1736,F#4,446.5,0.75,38,149.8
1737,B4,447.5,0.75,40,149.8
1738,G4,447.5,0.75,40,149.8
1739,G2,448.0,0.25,58,149.8
1740,G1,448.0,0.25,58,149.8
1741,F#1,449.0,0.5,66,149.8
1742,F#2,449.0,0.5,66,149.8
1743,B4,449.5,0.25,69,149.8
1744,G4,449.5,0.25,69,149.8
1745,D4,449.5,0.25,69,149.8
1746,B3,449.5,0.25,69,149.8
1747,B4,450.5,1.5,84,149.8
1748,D4,450.5,2.0,70,149.8
1749,B3,450.5,2.0,70,149.8
1750,G4,450.5,2.0,70,149.8
1751,F#4,451.0,1.0,29,149.8
1752,A4,452.0,0.5,77,149.8
1753,E4,452.0,1.5,33,149.8
1754,F#4,452.0,1.5,33,149.8
1755,G4,452.5,0.25,62,149.8
1756,B3,452.5,0.25,62,149.8
1757,C#4,453.5,0.5,75,149.8
1758,B-4,453.5,0.5,75,149.8
1759,C#5,453.5,0.5,75,149.8
1760,F#4,453.5,0.5,28,149.8
1761,D4,453.5,0.5,28,149.8
1762,C#4,454.0,0.75,26,149.8
1763,E4,454.0,0.75,26,149.8
1764,B3,455.0,0.75,33,149.8
1765,D4,455.0,0.75,33,149.8
1766,C#5,455.5,1.0,34,149.8
1767,B-4,455.5,1.0,34,149.8
1768,B-4,456.5,1.5,41,149.8
1769,C#5,456.5,1.5,41,149.8
1770,B4,458.0,0.5,40,149.8
1771,D4,458.0,2.0,38,149.8
1772,B3,458.0,3.0,38,149.8
1773,G4,458.0,3.0,45,149.8
1774,C#5,458.5,0.75,38,149.8
1775,B-4,458.5,0.75,38,149.8
1776,D5,459.5,0.75,40,149.8
1777,B4,459.5,0.75,40,149.8
1778,E4,460.0,1.0,50,149.8
1779,A3,461.0,2.0,39,149.8
1780,E4,461.0,2.0,50,149.8
1781,G4,461.0,2.0,45,149.8
1782,D5,461.5,1.0,70,149.8
1783,D5,462.5,1.0,70,149.8
1784,F#4,463.0,1.0,38,149.8
1785,E-4,463.0,1.0,32,149.8
1786,G5,463.5,1.0,70,149.8
1787,D4,464.0,2.0,34,149.8
1788,F#4,464.0,2.0,38,149.8
1789,E5,464.5,1.0,62,149.8
1790,D5,465.5,1.0,66,149.8
1791,F#4,466.0,1.0,46,149.8
1792,C5,466.5,19/20,56,149.8
1793,G4,467.0,2.0,46,149.8
1794,C5,467.5,1.0,61,149.8
1795,C5,468.5,1.0,61,149.8
1796,G3,469.0,1.0,45,149.8
1797,A5,469.5,1.0,61,149.8
1798,E3,470.0,2.0,49,149.8
1799,C5,470.5,1.0,52,149.8
1800,C5,471.5,1.0,52,149.8
1801,E4,472.0,1.0,41,149.8
1802,B4,472.5,19/20,61,149.8
1803,C4,473.0,2.0,40,149.8
1804,B4,473.5,1.0,55,149.8
1805,B4,474.5,1.0,55,149.8
1806,C3,475.0,1.0,28,149.8
1807,G4,475.5,19/20,50,149.8
1808,C2,476.0,3.0,28,149.8
1809,C3,476.0,3.0,28,149.8
1810,G4,476.5,1.0,44,149.8
1811,G4,477.5,1.0,44,149.8
1812,E4,478.5,19/20,43,149.8
1813,B2,479.0,9/5,26,149.8
1814,B1,479.0,9/5,26,149.8
1815,E4,479.5,1.0,40,149.8
1816,E4,480.5,1.0,40,149.8
1817,G3,481.5,1.0,36,149.8
1818,E3,482.0,3.0,28,149.8
1819,B3,482.0,3.0,31,149.8
1820,G2,482.0,3.0,31,149.8
1821,E3,482.5,1.0,24,149.8
1822,E-3,483.5,9/5,26,149.8
1823,B3,483.5,9/5,26,149.8
1824,A2,485.0,2.0,39,149.8
1825,E3,485.0,3.0,28,149.8
1826,E5,485.5,1.0,56,149.8
1827,E6,485.5,1.0,56,149.8
1828,E5,486.5,1.5,56,149.8
1829,E6,486.5,1.5,56,149.8
1830,B-2,487.0,1.0,43,149.8
1831,B2,488.0,3.0,49,149.8
1832,E-5,488.0,0.5,49,149.8
1833,E-6,488.0,0.5,49,149.8
1834,E5,488.5,1.0,52,149.8
1835,E6,488.5,1.0,52,149.8
1836,C4,489.5,2.0,54,149.8
1837,E4,489.5,2.0,54,149.8
1838,F#4,489.5,2.0,54,149.8
1839,G3,491.0,2.0,26,149.8
1840,C3,491.0,2.0,26,149.8
1841,F#4,491.5,1.0,59,149.8
1842,E4,491.5,1.0,59,149.8
1843,C#4,491.5,1.0,59,149.8
1844,F#4,492.5,1.5,71,149.8
1845,A3,492.5,3.0,60,149.8
1846,E-4,492.5,3.0,60,149.8
1847,B2,493.0,0.5,32,149.8
1848,A2,493.5,0.5,35,149.8
1849,G4,494.0,0.5,51,149.8
1850,E3,494.0,3.0,39,149.8
1851,G2,494.0,2.0,39,149.8
1852,B3,494.0,3.0,39,149.8
1853,A4,494.5,0.5,56,149.8
1854,G4,495.0,0.5,43,149.8
1855,F#4,495.5,1.0,47,149.8
1856,G#2,496.0,1.0,37,149.8
1857,E4,496.5,1.0,39,149.8
1858,A2,497.0,2.0,39,149.8
1859,E3,497.0,3.0,39,149.8
1860,E5,497.5,1.0,56,149.8
1861,E6,497.5,1.0,56,149.8
1862,B-2,499.0,1.0,34,149.8
1863,E5,500.0,1.5,56,149.8
1864,E6,500.0,1.5,56,149.8
1865,B1,500.0,3.0,34,149.8
1866,B2,500.0,3.0,34,149.8
1867,E-5,501.5,0.5,56,149.8
1868,E-6,501.5,0.5,56,149.8
1869,E5,502.0,1.0,61,149.8
1870,E6,502.0,1.0,61,149.8
1871,C4,503.0,2.0,54,149.8
1872,E4,503.0,2.0,54,149.8
1873,F#4,503.0,2.0,54,149.8
1874,E3,503.0,1.0,20,149.8
1875,E2,503.0,1.0,20,149.8
1876,F#4,505.0,1.0,47,149.8
1877,E4,505.0,1.0,47,149.8
1878,C#4,505.0,1.0,47,149.8
1879,G1,505.0,0.25,28,149.8
1880,G2,505.0,0.25,28,149.8
1881,F#4,506.0,1.5,55,149.8
1882,A3,506.0,3.0,46,149.8
1883,E-4,506.0,3.0,46,149.8
1884,G1,506.0,2.0,31,149.8
1885,G2,506.0,2.0,31,149.8
1886,A4,507.5,0.5,38,149.8
1887,G4,508.0,0.5,41,149.8
1888,C2,508.0,0.25,28,149.8
1889,C3,508.0,0.25,28,149.8
1890,F#4,508.5,0.5,32,149.8
1891,G3,509.0,1.0,33,149.8
1892,E4,509.0,1.0,33,149.8
1893,C2,509.0,2.0,31,149.8
1894,C3,509.0,2.0,31,149.8
1895,G3,511.0,0.25,33,149.8
1896,G4,511.0,0.25,33,149.8
1897,G2,511.0,0.25,28,149.8
1898,G3,511.0,0.25,28,149.8
1899,G4,512.0,2.0,38,149.8
1900,G3,512.0,2.0,38,149.8
1901,G2,512.0,2.0,31,149.8
1902,G3,512.0,2.0,31,149.8
1903,C4,514.0,0.25,33,149.8
1904,C5,514.0,0.25,33,149.8
1905,C3,514.0,0.25,28,149.8
1906,C4,514.0,0.25,28,149.8
1907,C5,515.0,2.0,38,149.8
1908,C4,515.0,2.0,38,149.8
1909,C3,515.0,2.0,31,149.8
1910,C4,515.0,2.0,31,149.8
1911,G4,517.0,0.25,33,149.8
1912,G5,517.0,0.25,33,149.8
1913,B3,517.0,0.25,57,149.8
1914,D4,517.0,0.25,57,149.8
1915,F4,517.0,0.25,57,149.8
1916,G4,517.0,0.25,57,149.8
1917,G5,518.0,2.0,37,149.8
1918,G4,518.0,2.0,37,149.8
1919,B3,518.0,1.5,62,149.8
1920,D4,518.0,1.5,62,149.8
1921,F4,518.0,1.5,62,149.8
1922,G4,518.0,1.5,62,149.8
1923,C6,520.0,0.25,33,149.8
1924,C5,520.0,0.25,33,149.8
1925,C5,521.0,2.0,38,149.8
1926,C6,521.0,2.0,38,149.8
1927,F5,523.0,0.25,74,149.8
1928,D6,523.0,0.25,74,149.8
1929,F6,523.0,0.25,74,149.8
1930,F5,524.0,1.5,81,149.8
1931,D6,524.0,1.5,81,149.8
1932,F6,524.0,1.5,81,149.8
1933,E6,525.5,11/40,70,149.8
1934,D6,525.75,11/40,69,149.8
1935,C6,526.0,11/40,68,149.8
1936,B2,526.0,0.25,26,149.8
1937,B1,526.0,0.25,26,149.8
1938,B5,526.25,11/40,68,149.8
1939,A5,526.5,11/40,68,149.8
1940,G5,526.75,0.25,66,149.8
1941,F5,527.0,11/40,64,149.8
1942,G5,527.0,1/40,66,149.8
1943,C2,527.0,0.5,32,149.8
1944,C3,527.0,0.5,32,149.8
1945,E5,527.25,11/40,64,149.8
1946,D5,527.5,11/40,64,149.8
1947,C5,527.75,11/40,64,149.8
1948,B4,528.0,183/1000,63,149.8
1949,A4,528.167,183/1000,63,149.8
1950,G4,528.333,183/1000,63,149.8
1951,F4,528.5,183/1000,63,149.8
1952,E4,528.667,183/1000,63,149.8
1953,D4,528.833,183/1000,63,149.8
1954,C4,529.0,221/1000,63,149.8
1955,E3,529.0,0.25,62,149.8
1956,G#3,529.0,0.25,62,149.8
1957,B3,529.0,0.25,62,149.8
1958,D4,529.0,0.25,62,149.8
1959,B3,529.2,221/1000,63,149.8
1960,A3,529.4,221/1000,63,149.8
1961,G3,529.6,221/1000,62,149.8
1962,F#3,529.8,1/5,62,149.8
1963,G3,530.0,0.5,89,149.8
1964,F#3,530.0,21/1000,62,149.8
1965,E3,530.0,1.5,68,149.8
1966,G#3,530.0,1.5,68,149.8
1967,B3,530.0,1.5,68,149.8
1968,D4,530.0,1.5,68,149.8
1969,F4,532.0,0.25,36,149.8
1970,D4,532.0,0.25,36,149.8
1971,G3,532.0,0.25,36,149.8
1972,E4,533.0,0.5,40,149.8
1973,C4,533.0,0.5,40,149.8
1974,G3,533.0,0.5,40,149.8
1975,D5,535.0,0.25,80,149.8
1976,G#5,535.0,0.25,80,149.8
1977,B5,535.0,0.25,80,149.8
1978,D6,535.0,0.25,80,149.8
1979,D5,536.0,1.5,88,149.8
1980,G#5,536.0,1.5,88,149.8
1981,B5,536.0,1.5,88,149.8
1982,D6,536.0,1.5,88,149.8
1983,C6,537.5,11/40,70,149.8
1984,B5,537.75,11/40,69,149.8
1985,A5,538.0,11/40,68,149.8
1986,G#2,538.0,0.25,26,149.8
1987,G#1,538.0,0.25,26,149.8
1988,G#5,538.25,11/40,68,149.8
1989,F#5,538.5,11/40,68,149.8
1990,E5,538.75,0.25,66,149.8
1991,D5,539.0,11/40,64,149.8
1992,E5,539.0,1/40,66,149.8
1993,A1,539.0,0.5,32,149.8
1994,A2,539.0,0.5,32,149.8
1995,C5,539.25,11/40,64,149.8
1996,B4,539.5,11/40,64,149.8
1997,A4,539.75,11/40,64,149.8
1998,G#4,540.0,183/1000,63,149.8
1999,F#4,540.167,183/1000,63,149.8
2000,E4,540.333,183/1000,63,149.8
2001,D4,540.5,183/1000,63,149.8
2002,C4,540.667,183/1000,63,149.8
2003,B3,540.833,183/1000,63,149.8
2004,A3,541.0,221/1000,63,149.8
2005,F2,541.0,0.5,33,149.8
2006,C3,541.0,0.5,33,149.8
2007,A3,541.0,0.5,33,149.8
2008,G#3,541.2,221/1000,63,149.8
2009,F#3,541.4,221/1000,63,149.8
2010,E3,541.6,221/1000,62,149.8
2011,E-3,541.8,1/5,62,149.8
2012,E3,542.0,1.0,89,149.8
2013,E-3,542.0,21/1000,62,149.8
2014,F2,542.0,3.0,33,149.8
2015,C3,542.0,3.0,33,149.8
2016,A3,542.0,3.0,33,149.8
2017,D4,544.0,0.25,36,149.8
2018,B3,544.0,0.25,36,149.8
2019,E3,544.0,0.25,36,149.8
2020,C4,545.0,0.5,40,149.8
2021,A3,545.0,0.5,40,149.8
2022,E3,545.0,0.5,40,149.8
2023,F2,546.979,1979/1000,33,149.8
2024,C3,546.979,1979/1000,33,149.8
2025,A3,546.979,1979/1000,33,149.8
2026,C6,547.0,0.5,43,149.8
2027,C6,548.0,1.5,45,149.8
2028,F2,548.979,1.0,34,149.8
2029,C3,548.979,1.0,34,149.8
2030,B-5,549.5,0.25,42,149.8
2031,A5,549.75,0.25,42,149.8
2032,F2,549.979,2.0,34,149.8
2033,C3,549.979,2.0,34,149.8
2034,G5,550.0,0.25,40,149.8
2035,F5,550.25,0.25,40,149.8
2036,E5,550.5,0.25,40,149.8
2037,D5,550.75,0.25,40,149.8
2038,C5,551.0,0.25,40,149.8
2039,B-4,551.25,0.25,40,149.8
2040,A4,551.5,0.25,39,149.8
2041,G4,551.75,0.25,39,149.8
2042,C3,551.979,9/10,37,149.8
2043,F2,551.979,9/10,37,149.8
2044,F#4,552.0,1/5,37,149.8
2045,E4,552.2,1/5,36,149.8
2046,D4,552.4,1/5,35,149.8
2047,C4,552.6,1/5,35,149.8
2048,B-3,552.8,1/5,40,149.8
2049,F2,552.979,2.0,42,149.8
2050,C3,552.979,2.0,42,149.8
2051,A3,553.0,979/1000,42,149.8
2052,A3,554.0,2.0,42,149.8
2053,F#2,554.979,9/10,48,149.8
2054,C3,554.979,9/10,48,149.8
2055,A3,554.979,9/10,48,149.8
2056,F#2,555.979,2.0,53,149.8
2057,A3,555.979,2.0,53,149.8
2058,C3,555.979,2.0,53,149.8
2059,A3,556.0,9/10,49,149.8
2060,E-4,556.0,9/10,49,149.8
2061,A3,557.0,2.0,49,149.8
2062,E-4,557.0,2.0,49,149.8
2063,F#2,557.979,9/10,48,149.8
2064,C3,557.979,9/10,48,149.8
2065,A3,557.979,9/10,48,149.8
2066,F#2,558.979,2.0,57,149.8
2067,A3,558.979,2.0,57,149.8
2068,C3,558.979,2.0,57,149.8
2069,E-4,559.0,9/10,53,149.8
2070,A4,559.0,9/10,53,149.8
2071,E-4,560.0,2.0,59,149.8
2072,A4,560.0,2.0,59,149.8
2073,F#2,560.979,9/10,52,149.8
2074,C3,560.979,9/10,52,149.8
2075,A3,560.979,9/10,52,149.8
2076,F#2,561.979,3.0,58,149.8
2077,B2,561.979,3.0,58,149.8
2078,A3,561.979,3.0,58,149.8
2079,E-4,562.0,9/10,56,149.8
2080,A4,562.0,9/10,56,149.8
2081,E-5,562.0,9/10,56,149.8
2082,E-4,563.0,2.0,61,149.8
2083,E-5,563.0,2.0,61,149.8
2084,A4,563.0,2.0,61,149.8
2085,E-5,565.0,9/10,61,149.8
2086,C5,565.0,9/10,61,149.8
2087,A5,565.0,9/10,61,149.8
2088,C6,565.0,9/10,61,149.8
2089,C5,566.0,2.0,69,149.8
2090,E-5,566.0,2.0,69,149.8
2091,A5,566.0,2.0,69,149.8
2092,C6,566.0,2.0,69,149.8
2093,F#2,566.979,2.0,58,149.8
2094,B2,566.979,2.0,58,149.8
2095,A3,566.979,2.0,58,149.8
2096,B4,568.0,1.0,71,149.8
2097,E-5,568.0,1.0,71,149.8
2098,A5,568.0,1.0,71,149.8
2099,B5,568.0,1.0,71,149.8
2100,A3,568.979,9/10,67,149.8
2101,B2,568.979,9/10,67,149.8
2102,F#2,568.979,9/10,67,149.8
2103,B-4,569.0,2.0,75,149.8
2104,E-5,569.0,2.0,75,149.8
2105,B-5,569.0,2.0,75,149.8
2106,G3,569.979,0.25,43,149.8
2107,B2,569.979,0.25,43,149.8
2108,G2,569.979,0.25,43,149.8
2109,G3,570.479,0.25,36,149.8
2110,B3,570.479,0.25,36,149.8
2111,G3,570.979,0.25,36,149.8
2112,B3,570.979,0.25,36,149.8
2113,B4,571.0,9/10,72,149.8
2114,B5,571.0,9/10,72,149.8
2115,A5,571.0,9/10,72,149.8
2116,E-5,571.0,9/10,72,149.8
2117,G3,571.479,0.25,36,149.8
2118,B3,571.479,0.25,36,149.8
2119,G3,571.979,0.25,36,149.8
2120,B3,571.979,0.25,36,149.8
2121,B4,572.0,3.0,85,149.8
2122,E5,572.0,3.0,85,149.8
2123,B5,572.0,3.0,85,149.8
2124,G3,572.479,0.25,36,149.8
2125,B3,572.479,0.25,36,149.8
2126,B3,572.979,0.25,44,149.8
2127,G#3,572.979,0.25,44,149.8
2128,G#3,573.479,0.25,38,149.8
2129,B3,573.479,0.25,38,149.8
2130,G#3,573.979,0.25,38,149.8
2131,B3,573.979,0.25,38,149.8
2132,G#3,574.479,0.25,38,149.8
2133,B3,574.479,0.25,38,149.8
2134,G#3,574.979,0.25,38,149.8
2135,B3,574.979,0.25,38,149.8
2136,E5,575.0,3.0,87,149.8
2137,E6,575.0,3.0,87,149.8
2138,G#3,575.479,0.25,38,149.8
2139,B3,575.479,0.25,38,149.8
2140,D4,575.979,0.25,39,149.8
2141,B3,575.979,0.25,39,149.8
2142,G#3,575.979,0.25,39,149.8
2143,D4,576.469,0.25,30,149.8
2144,G#3,576.469,0.25,30,149.8
2145,B3,576.469,0.25,30,149.8
2146,C4,576.979,0.25,40,149.8
2147,A3,576.979,0.25,40,149.8
2148,C4,577.479,0.25,34,149.8
2149,A3,577.479,0.25,34,149.8
2150,C4,577.979,0.25,34,149.8
2151,A3,577.979,0.25,34,149.8
2152,B4,578.0,0.25,44,149.8
2153,D5,578.0,0.25,44,149.8
2154,E5,578.0,0.25,44,149.8
2155,C4,578.479,0.25,34,149.8
2156,A3,578.479,0.25,34,149.8
2157,E4,578.979,0.25,40,149.8
2158,C4,578.979,0.25,40,149.8
2159,A3,578.979,0.25,40,149.8
2160,C5,579.0,0.25,52,149.8
2161,F5,579.0,0.25,52,149.8
2162,F4,579.0,0.25,52,149.8
2163,E4,579.479,0.25,32,149.8
2164,C4,579.479,0.25,32,149.8
2165,A3,579.479,0.25,32,149.8
2166,D4,579.979,0.25,40,149.8
2167,B3,579.979,0.25,40,149.8
2168,B3,580.479,0.25,34,149.8
2169,D4,580.479,0.25,34,149.8
2170,B3,580.979,0.25,34,149.8
2171,D4,580.979,0.25,34,149.8
2172,E5,581.0,0.25,50,149.8
2173,F5,581.0,0.25,50,149.8
2174,C5,581.0,0.25,50,149.8
2175,B3,581.479,0.25,34,149.8
2176,D4,581.479,0.25,34,149.8
2177,E4,581.979,0.25,39,149.8
2178,D4,581.979,0.25,39,149.8
2179,B3,581.979,0.25,39,149.8
2180,D5,582.0,0.25,52,149.8
2181,G#5,582.0,0.25,52,149.8
2182,G#4,582.0,0.25,52,149.8
2183,B3,582.479,0.25,32,149.8
2184,D4,582.479,0.25,32,149.8
2185,E4,582.479,0.25,32,149.8
2186,E4,582.979,0.25,40,149.8
2187,C4,582.979,0.25,40,149.8
2188,C4,583.479,0.25,36,149.8
2189,E4,583.479,0.25,36,149.8
2190,C4,583.979,0.25,36,149.8
2191,E4,583.979,0.25,36,149.8
2192,E5,584.0,0.25,50,149.8
2193,D5,584.0,0.25,50,149.8
2194,G#5,584.0,0.25,50,149.8
2195,G#4,584.0,0.25,50,149.8
2196,C4,584.479,0.25,36,149.8
2197,E4,584.479,0.25,36,149.8
2198,C4,584.979,0.25,45,149.8
2199,E4,584.979,0.25,45,149.8
2200,E5,585.0,0.25,56,149.8
2201,A5,585.0,0.25,56,149.8
2202,A4,585.0,0.25,56,149.8
2203,C#4,585.479,0.25,40,149.8
2204,E4,585.479,0.25,40,149.8
2205,C#4,585.979,0.25,43,149.8
2206,E4,585.979,0.25,43,149.8
2207,C#4,586.479,0.25,38,149.8
2208,E4,586.479,0.25,38,149.8
2209,C#4,586.979,0.25,39,149.8
2210,E4,586.979,0.25,39,149.8
2211,A5,587.0,0.25,55,149.8
2212,E5,587.0,0.25,55,149.8
2213,C#4,587.479,0.25,39,149.8
2214,E4,587.479,0.25,39,149.8
2215,F#4,587.979,0.25,34,149.8
2216,G5,588.0,0.25,57,149.8
2217,E5,588.0,0.25,57,149.8
2218,B-5,588.0,0.25,57,149.8
2219,B-4,588.0,0.25,57,149.8
2220,F#4,588.479,0.25,32,149.8
2221,F#4,588.979,0.25,32,149.8
2222,F#4,589.479,0.25,32,149.8
2223,F#4,589.979,0.25,32,149.8
2224,C#5,590.0,0.25,41,149.8
2225,E5,590.0,0.25,41,149.8
2226,A5,590.0,0.25,41,149.8
2227,F#4,590.479,0.25,32,149.8
2228,B-5,590.5,0.25,34,149.8
2229,E5,590.5,0.25,34,149.8
2230,C#5,590.5,0.25,34,149.8
2231,F#4,590.979,0.25,40,149.8
2232,B-5,591.0,0.25,34,149.8
2233,E5,591.0,0.25,34,149.8
2234,C#5,591.0,0.25,34,149.8
2235,F#4,591.479,0.25,45,149.8
2236,B-5,591.5,0.25,34,149.8
2237,E5,591.5,0.25,34,149.8
2238,C#5,591.5,0.25,34,149.8
2239,F#4,591.979,0.25,49,149.8
2240,B-5,592.0,0.25,34,149.8
2241,E5,592.0,0.25,34,149.8
2242,C#5,592.0,0.25,34,149.8
2243,F#4,592.479,0.25,52,149.8
2244,B-5,592.5,0.25,34,149.8
2245,E5,592.5,0.25,34,149.8
2246,C#5,592.5,0.25,34,149.8
2247,F#4,592.979,0.25,56,149.8
2248,C#5,593.0,0.25,41,149.8
2249,E5,593.0,0.25,41,149.8
2250,B-5,593.0,0.25,41,149.8
2251,F#4,593.479,0.25,58,149.8
2252,B-5,593.5,0.25,47,149.8
2253,E5,593.5,0.25,47,149.8
2254,C#5,593.5,0.25,47,149.8
2255,B3,593.979,0.25,63,149.8
2256,E-4,593.979,0.25,63,149.8
2257,F#4,593.979,0.25,63,149.8
2258,A4,593.979,0.25,63,149.8
2259,B-5,594.0,0.25,51,149.8
2260,E5,594.0,0.25,51,149.8
2261,C#5,594.0,0.25,51,149.8
2262,A4,594.479,0.25,52,149.8
2263,F#4,594.479,0.25,52,149.8
2264,E-4,594.479,0.25,52,149.8
2265,B3,594.479,0.25,52,149.8
2266,B-5,594.5,0.25,56,149.8
2267,E5,594.5,0.25,56,149.8
2268,C#5,594.5,0.25,56,149.8
2269,A4,594.979,0.25,52,149.8
2270,F#4,594.979,0.25,52,149.8
2271,E-4,594.979,0.25,52,149.8
2272,B3,594.979,0.25,52,149.8
2273,B-5,595.0,0.25,62,149.8
2274,E5,595.0,0.25,62,149.8
2275,C#5,595.0,0.25,62,149.8
2276,A4,595.479,0.25,52,149.8
2277,F#4,595.479,0.25,52,149.8
2278,E-4,595.479,0.25,52,149.8
2279,B3,595.479,0.25,52,149.8
2280,B-5,595.5,0.25,67,149.8
2281,E5,595.5,0.25,67,149.8
2282,C#5,595.5,0.25,67,149.8
2283,A4,595.979,0.25,52,149.8
2284,F#4,595.979,0.25,52,149.8
2285,E-4,595.979,0.25,52,149.8
2286,B3,595.979,0.25,52,149.8
2287,B5,596.0,0.25,91,149.8
2288,A4,596.479,0.25,52,149.8
2289,F#4,596.479,0.25,52,149.8
2290,E-4,596.479,0.25,52,149.8
2291,B3,596.479,0.25,52,149.8
2292,C6,596.5,0.25,76,149.8
2293,C7,596.5,0.25,76,149.8
2294,A4,596.979,0.25,56,149.8
2295,F#4,596.979,0.25,56,149.8
2296,E-4,596.979,0.25,56,149.8
2297,B3,596.979,0.25,56,149.8
2298,C6,597.0,0.25,76,149.8
2299,C7,597.0,0.25,76,149.8
2300,B3,597.479,0.25,53,149.8
2301,E-4,597.479,0.25,53,149.8
2302,F#4,597.479,0.25,53,149.8
2303,A4,597.479,0.25,53,149.8
2304,C6,597.5,0.25,76,149.8
2305,C7,597.5,0.25,76,149.8
2306,B3,597.979,0.25,50,149.8
2307,E-4,597.979,0.25,50,149.8
2308,F#4,597.979,0.25,50,149.8
2309,A4,597.979,0.25,50,149.8
2310,C6,598.0,0.25,76,149.8
2311,C7,598.0,0.25,76,149.8
2312,B3,598.479,0.25,46,149.8
2313,E-4,598.479,0.25,46,149.8
2314,F#4,598.479,0.25,46,149.8
2315,A4,598.479,0.25,46,149.8
2316,C6,598.5,0.25,76,149.8
2317,C7,598.5,0.25,76,149.8
2318,B3,598.979,0.25,41,149.8
2319,E-4,598.979,0.25,41,149.8
2320,F#4,598.979,0.25,41,149.8
2321,A4,598.979,0.25,41,149.8
2322,C6,599.0,0.25,78,149.8
2323,C7,599.0,0.25,78,149.8
2324,B3,599.479,0.25,41,149.8
2325,E-4,599.479,0.25,41,149.8
2326,F#4,599.479,0.25,41,149.8
2327,A4,599.479,0.25,41,149.8
2328,C6,599.5,0.25,71,149.8
2329,C7,599.5,0.25,71,149.8
2330,E3,599.979,0.25,40,149.8
2331,C6,600.0,0.25,68,149.8
2332,C7,600.0,0.25,68,149.8
2333,G4,600.229,0.25,34,149.8
2334,B3,600.479,0.25,37,149.8
2335,C6,600.5,0.25,62,149.8
2336,C7,600.5,0.25,62,149.8
2337,G4,600.729,0.25,34,149.8
2338,F#3,600.979,0.25,40,149.8
2339,C6,601.0,0.25,56,149.8
2340,C7,601.0,0.25,56,149.8
2341,A4,601.229,0.25,34,149.8
2342,B3,601.479,0.25,37,149.8
2343,C6,601.5,0.25,52,149.8
2344,C7,601.5,0.25,52,149.8
2345,A4,601.729,0.25,34,149.8
2346,G3,601.979,0.25,40,149.8
2347,C7,602.0,1.0,56,149.8
2348,C6,602.0,1.0,56,149.8
2349,B4,602.229,0.25,35,149.8
2350,B3,602.479,0.25,38,149.8
2351,B4,602.729,0.25,35,149.8
2352,E3,602.979,0.25,40,149.8
2353,B6,603.0,2.0,56,149.8
2354,B5,603.0,2.0,56,149.8
2355,G4,603.229,0.25,34,149.8
2356,B3,603.479,0.25,37,149.8
2357,G4,603.729,0.25,34,149.8
2358,F#3,603.979,0.25,40,149.8
2359,A4,604.229,0.25,34,149.8
2360,B3,604.479,0.25,37,149.8
2361,A4,604.729,0.25,34,149.8
2362,G3,604.979,0.25,40,149.8
2363,B4,605.229,0.25,35,149.8
2364,B3,605.479,0.25,38,149.8
2365,B4,605.729,0.25,35,149.8
2366,E3,605.979,0.25,40,149.8
2367,B6,606.0,1.0,56,149.8
2368,B5,606.0,1.0,56,149.8
2369,G4,606.229,0.25,34,149.8
2370,B3,606.479,0.25,37,149.8
2371,G4,606.729,0.25,34,149.8
2372,F#3,606.979,0.25,40,149.8
2373,E5,607.0,2.0,56,149.8
2374,E6,607.0,2.0,56,149.8
2375,A4,607.229,0.25,34,149.8
2376,B3,607.479,0.25,37,149.8
2377,A4,607.729,0.25,34,149.8
2378,G3,607.979,0.25,40,149.8
2379,B4,608.229,0.25,35,149.8
2380,B3,608.479,0.25,38,149.8
2381,B4,608.729,0.25,35,149.8
2382,E3,608.979,0.25,40,149.8
2383,G4,609.229,0.25,34,149.8
2384,B3,609.479,0.25,37,149.8
2385,G4,609.729,0.25,34,149.8
2386,F#3,609.979,0.25,40,149.8
2387,E5,610.0,1.0,56,149.8
2388,E6,610.0,1.0,56,149.8
2389,A4,610.229,0.25,34,149.8
2390,B3,610.479,0.25,37,149.8
2391,A4,610.729,0.25,34,149.8
2392,G3,610.979,0.25,40,149.8
2393,B4,611.0,2.0,56,149.8
2394,B5,611.0,2.0,56,149.8
2395,B4,611.229,0.25,35,149.8
2396,B3,611.479,0.25,38,149.8
2397,B4,611.729,0.25,35,149.8
2398,A3,611.979,0.25,40,149.8
2399,G4,612.229,0.25,34,149.8
2400,E4,612.479,0.25,37,149.8
2401,G4,612.729,0.25,34,149.8
2402,B-3,612.979,0.25,49,149.8
2403,G4,613.229,0.25,34,149.8
2404,E4,613.479,0.25,42,149.8
2405,G4,613.729,0.25,34,149.8
2406,B3,613.979,0.25,48,149.8
2407,B4,614.0,1.0,56,149.8
2408,B5,614.0,1.0,56,149.8
2409,G4,614.229,0.25,35,149.8
2410,E4,614.479,0.25,38,149.8
2411,G4,614.729,0.25,38,149.8
2412,B3,614.979,0.25,51,149.8
2413,E4,615.0,2.0,56,149.8
2414,E5,615.0,2.0,56,149.8
2415,G4,615.229,0.25,39,149.8
2416,E4,615.479,0.25,42,149.8
2417,G4,615.729,0.25,39,149.8
2418,B3,615.979,0.25,48,149.8
2419,G4,616.229,0.25,38,149.8
2420,E4,616.479,0.25,39,149.8
2421,G4,616.729,0.25,38,149.8
2422,B3,616.979,0.25,45,149.8
2423,E5,617.0,1.0,56,149.8
2424,A4,617.229,0.25,41,149.8
2425,F#4,617.479,0.25,45,149.8
2426,A4,617.729,0.25,36,149.8
2427,E2,617.979,0.25,36,149.8
2428,C5,618.0,1.0,63,149.8
2429,G3,618.229,0.25,31,149.8
2430,B2,618.479,0.25,36,149.8
2431,G3,618.729,0.25,35,149.8
2432,F#2,618.979,0.25,45,149.8
2433,B4,619.0,979/1000,57,149.8
2434,A3,619.229,0.25,36,149.8
2435,B2,619.479,0.25,39,149.8
2436,A3,619.729,0.25,34,149.8
2437,G2,619.979,0.25,40,149.8
2438,B4,620.0,2.0,65,149.8
2439,B3,620.229,0.25,34,149.8
2440,B2,620.479,0.25,36,149.8
2441,B3,620.729,0.25,32,149.8
2442,E2,620.979,0.25,36,149.8
2443,G3,621.229,0.25,31,149.8
2444,B2,621.479,0.25,36,149.8
2445,G3,621.729,0.25,35,149.8
2446,F#2,621.979,0.25,45,149.8
2447,E-5,622.0,1.0,58,149.8
2448,A3,622.229,0.25,36,149.8
2449,B2,622.479,0.25,39,149.8
2450,A3,622.729,0.25,34,149.8
2451,G2,622.979,0.25,40,149.8
2452,E5,623.0,0.5,56,149.8
2453,B3,623.229,0.25,34,149.8
2454,B2,623.479,0.25,36,149.8
2455,C5,623.5,0.5,69,149.8
2456,B3,623.729,0.25,32,149.8
2457,E2,623.979,0.25,36,149.8
2458,C6,624.0,1.5,73,149.8
2459,G3,624.229,0.25,31,149.8
2460,B2,624.479,0.25,36,149.8
2461,G3,624.729,0.25,35,149.8
2462,F#2,624.979,0.25,45,149.8
2463,A3,625.229,0.25,36,149.8
2464,B2,625.479,0.25,39,149.8
2465,B5,625.5,0.5,56,149.8
2466,A3,625.729,0.25,34,149.8
2467,G2,625.979,0.25,40,149.8
2468,B3,626.229,0.25,34,149.8
2469,B2,626.479,0.25,36,149.8
2470,B5,626.5,0.5,71,149.8
2471,B3,626.729,0.25,32,149.8
2472,E2,626.979,0.25,36,149.8
2473,F#5,627.0,1.5,68,149.8
2474,G3,627.229,0.25,30,149.8
2475,B2,627.479,0.25,33,149.8
2476,G3,627.729,0.25,30,149.8
2477,F#2,627.979,0.25,36,149.8
2478,A3,628.229,0.25,30,149.8
2479,B2,628.479,0.25,33,149.8
2480,E5,628.5,0.5,51,149.8
2481,A3,628.729,0.25,30,149.8
2482,G2,628.979,0.25,36,149.8
2483,B3,629.229,0.25,31,149.8
2484,B2,629.479,0.25,34,149.8
2485,E5,629.5,0.5,71,149.8
2486,B3,629.729,0.25,31,149.8
2487,A2,629.979,0.25,40,149.8
2488,C5,630.0,1.5,69,149.8
2489,G3,630.229,0.25,34,149.8
2490,E3,630.479,0.25,37,149.8
2491,G3,630.729,0.25,34,149.8
2492,B-2,630.979,0.25,49,149.8
2493,G3,631.229,0.25,34,149.8
2494,E3,631.479,0.25,42,149.8
2495,B4,631.5,0.5,53,149.8
2496,G3,631.729,0.25,34,149.8
2497,B2,631.979,0.25,48,149.8
2498,G3,632.229,0.25,35,149.8
2499,E3,632.479,0.25,38,149.8
2500,B4,632.5,0.5,69,149.8
2501,G3,632.729,0.25,38,149.8
2502,B2,632.979,1979/1000,53,149.8
2503,F#4,633.0,1.5,63,149.8
2504,E4,634.5,479/1000,56,149.8
2505,B1,634.979,1.0,57,149.8
2506,E4,635.0,1.0,63,149.8
2507,E2,635.979,0.25,79,149.8
2508,C4,636.0,1.0,63,149.8
2509,F#3,636.479,0.25,75,149.8
2510,F#2,636.479,0.25,75,149.8
2511,G3,636.979,0.25,75,149.8
2512,G2,636.979,0.25,75,149.8
2513,B3,637.0,979/1000,65,149.8
2514,A3,637.479,0.25,80,149.8
2515,A2,637.479,0.25,80,149.8
2516,B3,637.979,1.0,87,149.8
2517,B2,637.979,1.0,87,149.8
2518,B3,638.0,0.5,71,149.8
2519,G3,638.5,0.5,65,149.8
2520,B3,638.979,3.0,87,149.8
2521,B2,638.979,3.0,87,149.8
2522,E3,639.0,0.5,71,149.8
2523,C3,639.5,0.5,65,149.8
2524,B2,640.0,0.5,70,149.8
2525,E-3,640.5,0.5,76,149.8
2526,E3,641.0,1.0,80,149.8
2527,A2,641.979,3.0,40,149.8
2528,A3,641.979,3.0,40,149.8
2529,E4,644.0,3.0,73,149.8
2530,C4,644.0,3.0,73,149.8
2531,B3,644.979,3.0,40,149.8
2532,B2,644.979,3.0,40,149.8
2533,F4,647.0,2.0,34,149.8
2534,C4,647.0,3.0,28,149.8
2535,E2,647.979,0.25,86,149.8
2536,E1,647.979,0.25,86,149.8
2537,F#2,648.479,0.25,75,149.8
2538,F#1,648.479,0.25,75,149.8
2539,G2,648.979,0.25,75,149.8
2540,G1,648.979,0.25,75,149.8
2541,C5,649.0,1.0,39,149.8
2542,A2,649.479,0.25,80,149.8
2543,A1,649.479,0.25,80,149.8
2544,B2,649.979,1.0,87,149.8
2545,B1,649.979,1.0,87,149.8
2546,C5,650.0,2.0,39,149.8
2547,A4,650.0,3.0,27,149.8
2548,E-4,650.0,3.0,27,149.8
2549,F#4,650.0,3.0,27,149.8
2550,B2,650.979,3.0,87,149.8
2551,B1,650.979,3.0,87,149.8
2552,B4,652.0,979/1000,33,149.8
2553,B4,653.0,1.0,36,149.8
2554,G4,653.0,1.0,36,149.8
2555,E4,653.0,1.0,36,149.8
2556,A1,653.979,3.0,40,149.8
2557,A2,653.979,3.0,40,149.8
2558,E3,656.0,3.0,73,149.8
2559,C3,656.0,3.0,73,149.8
2560,B1,656.979,3.0,26,149.8
2561,B2,656.979,3.0,26,149.8
2562,F3,659.0,2.0,34,149.8
2563,C3,659.0,3.0,28,149.8
2564,C4,661.0,1.0,39,149.8
2565,C4,662.0,2.0,39,149.8
2566,A3,662.0,3.0,27,149.8
2567,E-3,662.0,3.0,27,149.8
2568,F#3,662.0,3.0,27,149.8
2569,B2,662.979,3.0,21,149.8
2570,E2,662.979,3.0,21,149.8
2571,B3,664.0,979/1000,33,149.8
2572,C4,667.056,118/125,39,149.8
2573,C4,668.0,257/125,39,149.8
2574,E3,668.0,3.0,24,149.8
2575,G3,668.0,3.0,24,149.8
2576,B2,668.979,3.0,21,149.8
2577,B1,668.979,3.0,21,149.8
2578,B3,670.056,118/125,33,149.8
2579,B3,671.0,7/125,33,149.8
2580,E2,671.979,1.0,23,149.8
2581,C4,673.056,118/125,39,149.8
2582,C4,674.0,257/125,39,149.8
2583,F#3,674.0,3.0,24,149.8
2584,A3,674.0,3.0,24,149.8
2585,B3,674.979,3.0,18,149.8
2586,B2,674.979,3.0,18,149.8
2587,E-4,676.0,1.0,33,149.8
2588,G3,677.0,1.0,30,149.8
2589,E4,677.0,1.0,30,149.8
2590,C5,679.056,118/125,35,149.8
2591,C5,680.0,257/125,35,149.8
2592,E-4,680.0,3.0,21,149.8
2593,F#4,680.0,3.0,21,149.8
2594,A4,680.0,3.0,21,149.8
2595,B3,680.979,3.0,18,149.8
2596,E3,680.979,3.0,18,149.8
2597,B4,682.056,118/125,29,149.8
2598,B4,683.0,7/125,29,149.8
2599,C5,685.0,1.0,35,149.8
2600,C5,686.0,2.0,35,149.8
2601,G4,686.0,3.0,21,149.8
2602,E4,686.0,3.0,21,149.8
2603,B3,686.979,3.0,18,149.8
2604,B2,686.979,3.0,18,149.8
2605,B4,688.0,1.0,29,149.8
2606,E3,689.979,1.0,20,149.8
2607,C5,691.056,118/125,35,149.8
2608,C5,692.0,257/125,35,149.8
2609,F#4,692.0,3.0,21,149.8
2610,A4,692.0,3.0,21,149.8
2611,B4,692.979,3.0,20,149.8
2612,E-5,694.0,1.0,29,149.8
2613,G4,695.0,1.0,27,149.8
2614,E5,695.0,1.0,27,149.8
2615,C6,697.056,118/125,35,149.8
2616,C5,697.979,1.0,29,149.8
2617,C6,698.0,257/125,35,149.8
2618,E-5,698.0,3.0,21,149.8
2619,F#5,698.0,3.0,21,149.8
2620,A5,698.0,3.0,21,149.8
2621,C5,698.979,1.0,29,149.8
2622,B4,699.979,1.0,38,149.8
2623,B5,700.056,118/125,29,149.8
2624,A4,700.979,1.0,22,149.8
2625,F#4,700.979,1.0,22,149.8
2626,B5,701.0,7/125,29,149.8
2627,E4,701.979,1.5,28,149.8
2628,G4,701.979,1.5,28,149.8
2629,A4,703.479,0.5,24,149.8
2630,F#4,703.479,0.5,24,149.8
2631,G4,703.979,0.75,23,149.8
2632,D4,704.979,0.75,27,149.8
2633,F#4,704.979,0.75,27,149.8
2634,A4,704.979,0.75,27,149.8
2635,F#5,706.0,1.0,28,149.8
2636,E-5,706.0,1.0,28,149.8
2637,D5,706.979,19/20,24,149.8
2638,E5,707.0,1.5,34,149.8
2639,G5,707.0,1.5,34,149.8
2640,C5,707.979,1.5,28,149.8
2641,D5,707.979,1.5,28,149.8
2642,E-5,708.5,0.5,30,149.8
2643,F#5,708.5,0.5,30,149.8
2644,E5,709.0,0.75,34,149.8
2645,D5,709.479,0.5,24,149.8
2646,B4,709.479,0.5,24,149.8
2647,A4,709.979,0.75,22,149.8
2648,C5,709.979,0.75,22,149.8
2649,A5,710.0,0.75,33,149.8
2650,F#5,710.0,0.75,33,149.8
2651,G4,710.979,0.75,28,149.8
2652,B4,710.979,0.75,28,149.8
2653,A5,712.0,19/20,28,149.8
2654,F#5,712.0,19/20,28,149.8
2655,G5,712.979,19/20,21,149.8
2656,F#5,713.0,1.5,34,149.8
2657,A5,713.0,1.5,34,149.8
2658,G5,713.979,1.5,27,149.8
2659,G5,714.5,0.5,34,149.8
2660,F#5,715.0,0.75,32,149.8
2661,A5,715.0,0.75,32,149.8
2662,F#5,715.479,0.5,23,149.8
2663,E5,715.979,0.75,20,149.8
2664,B5,716.0,0.75,33,149.8
2665,G5,716.0,0.75,33,149.8
2666,E-5,716.979,0.75,27,149.8
2667,B5,718.0,19/20,27,149.8
2668,B5,719.0,1.5,34,149.8
2669,B3,719.979,3.0,30,149.8
2670,G2,719.979,3.0,30,149.8
2671,E3,719.979,3.0,30,149.8
2672,A5,720.5,0.5,30,149.8
2673,G5,721.0,0.75,28,149.8
2674,B5,721.0,0.75,28,149.8
2675,C6,722.0,0.75,30,149.8
2676,A5,722.0,0.75,30,149.8
2677,A2,722.979,2.0,35,149.8
2678,E5,724.0,1.0,56,149.8
2679,E6,724.0,1.0,56,149.8
2680,B-2,724.979,1.0,43,149.8
2681,E5,725.0,1.5,56,149.8
2682,E6,725.0,1.5,56,149.8
2683,B2,725.979,3.0,49,149.8
2684,E-5,726.5,0.5,56,149.8
2685,E-6,726.5,0.5,56,149.8
2686,E5,727.0,1.0,60,149.8
2687,E6,727.0,1.0,60,149.8
2688,C4,728.0,2.0,48,149.8
2689,E4,728.0,2.0,48,149.8
2690,F#4,728.0,2.0,48,149.8
2691,G3,728.979,2.0,26,149.8
2692,C3,728.979,2.0,26,149.8
2693,F#4,730.0,1.0,59,149.8
2694,E4,730.0,1.0,59,149.8
2695,C#4,730.0,1.0,59,149.8
2696,B1,730.979,0.5,34,149.8
2697,B2,730.979,0.5,34,149.8
2698,F#4,731.0,1.5,71,149.8
2699,A3,731.0,3.0,60,149.8
2700,E-4,731.0,3.0,60,149.8
2701,A1,731.479,0.5,36,149.8
2702,A2,731.479,0.5,36,149.8
2703,G1,731.979,2.0,40,149.8
2704,G2,731.979,2.0,40,149.8
2705,G4,732.5,0.5,51,149.8
2706,A4,733.0,0.5,56,149.8
2707,G4,733.5,0.5,43,149.8
2708,G#1,733.979,1.0,34,149.8
2709,G#2,733.979,1.0,34,149.8
2710,F#4,734.0,1.0,47,149.8
2711,A1,734.979,2.0,28,149.8
2712,A2,734.979,2.0,28,149.8
2713,E4,735.0,1.0,39,149.8
2714,E5,736.0,1.0,58,149.8
2715,E6,736.0,1.0,58,149.8
2716,B-1,736.979,1.0,24,149.8
2717,B-2,736.979,1.0,24,149.8
2718,B1,737.979,3.0,25,149.8
2719,B2,737.979,3.0,25,149.8
2720,E5,738.5,1.5,58,149.8
2721,E6,738.5,1.5,58,149.8
2722,E-5,740.0,0.5,59,149.8
2723,E-6,740.0,0.5,59,149.8
2724,E5,740.5,1.0,61,149.8
2725,E6,740.5,1.0,61,149.8
2726,E2,740.979,1.0,14,149.8
2727,C4,741.5,2.0,43,149.8
2728,E4,741.5,2.0,43,149.8
2729,F#4,741.5,2.0,43,149.8
2730,F#4,743.5,1.0,36,149.8
2731,E4,743.5,1.0,36,149.8
2732,C#4,743.5,1.0,36,149.8
2733,F#4,744.5,1.5,41,149.8
2734,A3,744.5,3.0,34,149.8
2735,E-4,744.5,3.0,34,149.8
2736,A4,746.0,0.5,26,149.8
2737,G4,746.5,0.5,28,149.8
2738,F#4,747.0,0.5,21,149.8
2739,G3,747.5,1.0,22,149.8
2740,E4,747.5,1.0,22,149.8
