,note_name,start_time,duration,velocity,tempo
0,E4,1.5,0.25,43,70.6
1,F#4,1.75,0.25,39,70.6
2,E4,2.0,0.25,34,70.6
3,G#4,2.0,1.0,50,70.6
4,E2,2.0,0.5,28,70.6
5,E3,2.0,0.5,28,70.6
6,B3,2.25,0.25,26,70.6
7,E4,2.5,0.25,31,70.6
8,B3,2.75,0.25,26,70.6
9,G#4,3.0,0.25,30,70.6
10,B4,3.0,0.5,46,70.6
11,B3,3.25,0.25,27,70.6
12,F#4,3.5,0.25,28,70.6
13,A4,3.5,0.5,43,70.6
14,B3,3.75,0.25,27,70.6
15,E4,4.0,0.25,34,70.6
16,G#4,4.0,0.5,50,70.6
17,B1,4.0,0.5,28,70.6
18,B2,4.0,0.5,28,70.6
19,B3,4.25,0.25,26,70.6
20,E-4,4.5,0.25,27,70.6
21,F#4,4.5,0.438,41,70.6
22,B3,4.75,0.188,25,70.6
23,E-4,5.0,0.25,27,70.6
24,F#4,5.0,0.5,41,70.6
25,B3,5.25,0.25,26,70.6
26,E4,5.5,0.25,28,70.6
27,G#4,5.5,0.5,43,70.6
28,B3,5.75,0.25,28,70.6
29,E4,6.0,0.25,30,70.6
30,A4,6.0,0.5,46,70.6
31,C#2,6.0,0.5,28,70.6
32,C#3,6.0,0.5,28,70.6
33,B3,6.25,0.25,28,70.6
34,E4,6.5,0.25,36,70.6
35,C#5,6.5,0.5,54,70.6
36,B3,6.75,0.25,31,70.6
37,F#4,7.0,0.25,37,70.6
38,B4,7.0,0.5,47,70.6
39,E-3,7.0,0.5,26,70.6
40,E-2,7.0,0.5,26,70.6
41,B3,7.25,0.25,26,70.6
42,E-4,7.5,0.25,25,70.6
43,F#4,7.5,0.5,38,70.6
44,B2,7.5,0.5,24,70.6
45,B1,7.5,0.5,24,70.6
46,B3,7.75,0.25,27,70.6
47,B3,8.0,1.0,37,70.6
48,E4,8.0,1.0,37,70.6
49,G#4,8.0,1.0,37,70.6
50,E2,8.0,0.25,28,70.6
51,E3,8.0,0.25,28,70.6
52,G#3,8.25,0.25,25,70.6
53,B3,8.5,0.25,28,70.6
54,A3,8.75,0.25,26,70.6
55,G#3,9.0,0.25,28,70.6
56,A3,9.25,0.25,25,70.6
57,E5,9.5,0.25,54,70.6
58,G#3,9.5,0.25,34,70.6
59,F#5,9.75,0.25,48,70.6
60,F#3,9.75,0.25,31,70.6
61,E3,10.0,0.25,42,70.6
62,G#4,10.0,1.0,63,70.6
63,G#5,10.0,1.0,63,70.6
64,B3,10.25,0.25,32,70.6
65,B2,10.5,0.25,39,70.6
66,B3,10.75,0.25,32,70.6
67,E3,11.0,0.25,37,70.6
68,B4,11.0,0.5,57,70.6
69,B5,11.0,0.5,57,70.6
70,B3,11.25,0.25,33,70.6
71,B2,11.5,0.25,34,70.6
72,A4,11.5,0.5,54,70.6
73,A5,11.5,0.5,54,70.6
74,B3,11.75,0.25,33,70.6
75,E-3,12.0,0.25,42,70.6
76,G#4,12.0,0.5,63,70.6
77,G#5,12.0,0.5,63,70.6
78,B3,12.25,0.25,32,70.6
79,B2,12.5,0.25,33,70.6
80,F#4,12.5,0.438,51,70.6
81,F#5,12.5,0.438,51,70.6
82,B3,12.75,0.188,31,70.6
83,E-3,13.0,0.25,33,70.6
84,F#4,13.0,0.5,51,70.6
85,F#5,13.0,0.5,51,70.6
86,B3,13.25,0.25,33,70.6
87,F3,13.5,0.25,37,70.6
88,G#4,13.5,0.5,58,70.6
89,G#5,13.5,0.5,58,70.6
90,B3,13.75,0.25,39,70.6
91,F#3,14.0,0.25,43,70.6
92,A4,14.0,0.5,63,70.6
93,A5,14.0,0.5,63,70.6
94,B3,14.25,0.25,43,70.6
95,A3,14.5,0.25,49,70.6
96,C#5,14.5,0.5,69,70.6
97,C#6,14.5,0.5,69,70.6
98,B3,14.75,0.25,43,70.6
99,G#3,15.0,0.25,44,70.6
100,B4,15.0,0.5,62,70.6
101,B5,15.0,0.5,62,70.6
102,B3,15.25,0.25,37,70.6
103,E-6,15.5,0.5,40,70.6
104,E-5,15.5,0.5,40,70.6
105,B2,15.5,0.25,25,70.6
106,F#3,15.5,0.25,25,70.6
107,A3,15.75,0.25,27,70.6
108,E6,16.0,1.0,46,70.6
109,E5,16.0,1.0,46,70.6
110,E3,16.0,0.25,31,70.6
111,G#3,16.0,0.25,31,70.6
112,B3,16.25,0.25,23,70.6
113,G#3,16.5,0.25,31,70.6
114,E3,16.75,0.25,25,70.6
115,E-3,17.0,0.25,31,70.6
116,B3,17.25,0.25,27,70.6
117,B4,17.5,0.5,47,70.6
118,F#3,17.5,0.25,31,70.6
119,E-3,17.75,0.25,32,70.6
120,B-4,18.0,1.0,51,70.6
121,C#3,18.0,0.25,38,70.6
122,B-3,18.25,0.25,29,70.6
123,F#3,18.5,0.25,31,70.6
124,C#3,18.75,0.25,27,70.6
125,E5,19.0,1.0,56,70.6
126,F#2,19.0,0.25,31,70.6
127,B-3,19.25,0.25,26,70.6
128,F#3,19.5,0.25,29,70.6
129,C#3,19.75,0.25,27,70.6
130,E-5,20.0,1.5,51,70.6
131,B2,20.0,0.25,31,70.6
132,B3,20.25,0.25,25,70.6
133,F#3,20.5,0.25,30,70.6
134,E-3,20.75,0.25,27,70.6
135,B2,21.0,0.25,37,70.6
136,B3,21.25,0.25,30,70.6
137,A4,21.5,0.5,49,70.6
138,C#3,21.5,0.25,40,70.6
139,A3,21.75,0.25,36,70.6
140,G#4,22.0,1.0,60,70.6
141,B2,22.0,0.25,34,70.6
142,G#3,22.25,0.25,31,70.6
143,E3,22.5,0.25,41,70.6
144,B2,22.75,0.25,37,70.6
145,D5,23.0,1.0,64,70.6
146,E2,23.0,0.25,47,70.6
147,G#3,23.25,0.25,35,70.6
148,E3,23.5,0.25,39,70.6
149,B2,23.75,0.25,31,70.6
150,C#5,24.0,1.5,56,70.6
151,A2,24.0,0.25,38,70.6
152,A3,24.25,0.25,29,70.6
153,E3,24.5,0.25,34,70.6
154,C#3,24.75,0.25,29,70.6
155,A2,25.0,0.25,34,70.6
156,E3,25.25,0.25,29,70.6
157,C#5,25.5,0.5,56,70.6
158,A2,25.5,0.25,31,70.6
159,E3,25.75,0.25,35,70.6
160,C5,26.0,0.5,58,70.6
161,A2,26.0,0.25,40,70.6
162,E3,26.25,0.25,35,70.6
163,C#5,26.5,0.5,58,70.6
164,A2,26.5,0.25,39,70.6
165,E3,26.75,0.25,35,70.6
166,A2,27.0,0.25,43,70.6
167,A4,27.0,0.375,49,70.6
168,E4,27.0,0.375,49,70.6
169,C#4,27.0,0.375,49,70.6
170,E3,27.25,0.25,35,70.6
171,B2,27.5,0.25,43,70.6
172,G#4,27.5,0.375,47,70.6
173,E4,27.5,0.375,47,70.6
174,B3,27.5,0.375,47,70.6
175,E3,27.75,0.25,35,70.6
176,G#4,28.0,0.5,72,70.6
177,C#3,28.0,0.25,52,70.6
178,E4,28.0,1.0,60,70.6
179,B-3,28.0,1.0,60,70.6
180,E3,28.25,0.25,46,70.6
181,F#4,28.5,1.0,58,70.6
182,C#3,28.5,0.25,50,70.6
183,E3,28.75,0.25,40,70.6
184,C3,29.0,0.25,46,70.6
185,E4,29.0,1.0,58,70.6
186,A3,29.0,1.0,58,70.6
187,E3,29.25,0.25,35,70.6
188,F#4,29.5,0.5,60,70.6
189,C3,29.5,0.25,44,70.6
190,E3,29.75,0.25,35,70.6
191,B2,30.0,0.25,31,70.6
192,F#4,30.0,0.5,44,70.6
193,E-4,30.0,0.5,44,70.6
194,A3,30.0,0.5,44,70.6
195,F#3,30.25,0.25,27,70.6
196,B4,30.5,0.5,38,70.6
197,E-4,30.5,1.0,32,70.6
198,B2,30.5,0.25,31,70.6
199,F#3,30.75,0.25,29,70.6
200,A3,30.75,0.25,29,70.6
201,B-4,31.0,0.5,46,70.6
202,B2,31.0,0.25,31,70.6
203,F#3,31.25,0.25,27,70.6
204,A3,31.25,0.25,27,70.6
205,B2,31.5,0.25,31,70.6
206,B4,31.5,0.5,37,70.6
207,E-4,31.5,0.5,37,70.6
208,A3,31.75,0.25,28,70.6
209,F#3,31.75,0.25,28,70.6
210,E4,32.0,1.0,51,70.6
211,E3,32.0,0.25,31,70.6
212,G#3,32.0,0.25,31,70.6
213,B3,32.25,0.25,23,70.6
214,G#3,32.5,0.25,31,70.6
215,E3,32.75,0.25,25,70.6
216,E-3,33.0,0.25,31,70.6
217,B3,33.25,0.25,27,70.6
218,F#3,33.5,0.25,31,70.6
219,B5,33.5,0.5,47,70.6
220,B4,33.5,0.5,47,70.6
221,E-3,33.75,0.25,32,70.6
222,C#3,34.0,0.25,38,70.6
223,B-5,34.0,1.0,51,70.6
224,B-4,34.0,1.0,51,70.6
225,B-3,34.25,0.25,29,70.6
226,F#3,34.5,0.25,31,70.6
227,C#3,34.75,0.25,27,70.6
228,F#2,35.0,0.25,31,70.6
229,E6,35.0,1.0,56,70.6
230,E5,35.0,1.0,56,70.6
231,B-3,35.25,0.25,26,70.6
232,F#3,35.5,0.25,29,70.6
233,C#3,35.75,0.25,27,70.6
234,B2,36.0,0.25,31,70.6
235,E-6,36.0,1.5,51,70.6
236,E-5,36.0,1.5,51,70.6
237,B3,36.25,0.25,25,70.6
238,F#3,36.5,0.25,30,70.6
239,E-3,36.75,0.25,27,70.6
240,B2,37.0,0.25,37,70.6
241,B3,37.25,0.25,30,70.6
242,C#3,37.5,0.25,42,70.6
243,A5,37.5,0.5,51,70.6
244,A4,37.5,0.5,51,70.6
245,A3,37.75,0.25,38,70.6
246,B2,38.0,0.25,37,70.6
247,G#5,38.0,1.0,62,70.6
248,G#4,38.0,1.0,62,70.6
249,G#3,38.25,0.25,36,70.6
250,E3,38.5,0.25,44,70.6
251,B2,38.75,0.25,38,70.6
252,E2,39.0,0.25,42,70.6
253,D6,39.0,1.0,59,70.6
254,D5,39.0,1.0,59,70.6
255,G#3,39.25,0.25,35,70.6
256,E3,39.5,0.25,39,70.6
257,B2,39.75,0.25,31,70.6
258,A2,40.0,0.25,38,70.6
259,C#6,40.0,1.5,56,70.6
260,C#5,40.0,1.5,56,70.6
261,A3,40.25,0.25,29,70.6
262,E3,40.5,0.25,34,70.6
263,C#3,40.75,0.25,29,70.6
264,A2,41.0,0.25,34,70.6
265,E3,41.25,0.25,29,70.6
266,A2,41.5,0.25,35,70.6
267,C#6,41.5,0.5,50,70.6
268,C#5,41.5,0.5,50,70.6
269,E3,41.75,0.25,40,70.6
270,G#2,42.0,0.25,40,70.6
271,C6,42.0,0.5,59,70.6
272,C5,42.0,0.5,59,70.6
273,E3,42.25,0.25,36,70.6
274,A2,42.5,0.25,40,70.6
275,C#6,42.5,0.5,60,70.6
276,C#5,42.5,0.5,60,70.6
277,E3,42.75,0.25,36,70.6
278,A5,43.0,0.375,58,70.6
279,A4,43.0,0.375,58,70.6
280,C#3,43.0,0.25,42,70.6
281,A2,43.0,0.25,42,70.6
282,E3,43.25,0.25,37,70.6
283,G#5,43.5,0.375,57,70.6
284,G#4,43.5,0.375,57,70.6
285,E3,43.5,0.25,42,70.6
286,B2,43.5,0.25,42,70.6
287,G#3,43.75,0.25,37,70.6
288,G#5,44.0,0.5,70,70.6
289,G#4,44.0,0.5,70,70.6
290,E3,44.0,0.25,40,70.6
291,C#3,44.0,0.25,40,70.6
292,B-3,44.25,0.25,39,70.6
293,F#5,44.5,99/100,64,70.6
294,F#4,44.5,99/100,64,70.6
295,E3,44.5,0.25,40,70.6
296,C#3,44.5,0.25,40,70.6
297,B-3,44.75,0.25,35,70.6
298,E3,45.0,0.25,37,70.6
299,C3,45.0,0.25,37,70.6
300,A3,45.25,0.25,31,70.6
301,F#5,45.5,19/40,53,70.6
302,F#4,45.5,19/40,53,70.6
303,E3,45.5,0.25,46,70.6
304,C3,45.5,0.25,46,70.6
305,A3,45.75,0.25,39,70.6
306,F#5,46.0,0.5,49,70.6
307,F#4,46.0,0.5,49,70.6
308,E-3,46.0,0.25,28,70.6
309,B2,46.0,0.25,28,70.6
310,A3,46.25,0.25,27,70.6
311,B5,46.5,0.5,38,70.6
312,B4,46.5,0.5,38,70.6
313,E-3,46.5,0.25,28,70.6
314,B2,46.5,0.25,28,70.6
315,A3,46.75,0.25,29,70.6
316,B-5,47.0,0.5,46,70.6
317,B-4,47.0,0.5,46,70.6
318,E-3,47.0,0.25,28,70.6
319,B2,47.0,0.25,28,70.6
320,A3,47.25,0.25,27,70.6
321,B5,47.5,0.5,40,70.6
322,B4,47.5,0.5,40,70.6
323,E-3,47.5,0.25,28,70.6
324,B2,47.5,0.25,28,70.6
325,A3,47.75,0.25,28,70.6
326,E5,48.0,1.0,51,70.6
327,E4,48.0,1.0,51,70.6
328,E3,48.0,0.25,31,70.6
329,G#3,48.0,0.25,31,70.6
330,E3,48.25,0.25,31,70.6
331,E-3,48.5,0.25,31,70.6
332,C#3,48.75,0.25,31,70.6
333,B2,49.0,0.25,31,70.6
334,A2,49.25,0.25,30,70.6
335,E4,49.5,0.25,43,70.6
336,G#2,49.5,0.25,25,70.6
337,F#4,49.75,0.25,39,70.6
338,F#2,49.75,0.25,25,70.6
339,E4,50.0,0.25,34,70.6
340,G#4,50.0,1.0,50,70.6
341,E2,50.0,0.5,25,70.6
342,B3,50.25,0.25,26,70.6
343,E4,50.5,0.25,31,70.6
344,B3,50.75,0.25,26,70.6
345,G#4,51.0,0.25,30,70.6
346,B4,51.0,0.5,46,70.6
347,B3,51.25,0.25,27,70.6
348,F#4,51.5,0.25,28,70.6
349,A4,51.5,0.5,43,70.6
350,B3,51.75,0.25,27,70.6
351,E4,52.0,0.25,34,70.6
352,G#4,52.0,0.5,50,70.6
353,B1,52.0,0.5,25,70.6
354,B3,52.25,0.25,26,70.6
355,E-4,52.5,0.25,27,70.6
356,F#4,52.5,0.438,41,70.6
357,B3,52.75,0.188,25,70.6
358,E-4,53.0,0.25,27,70.6
359,F#4,53.0,0.5,41,70.6
360,B3,53.25,0.25,26,70.6
361,E4,53.5,0.25,28,70.6
362,G#4,53.5,0.5,43,70.6
363,B3,53.75,0.25,28,70.6
364,E4,54.0,0.25,30,70.6
365,A4,54.0,0.5,46,70.6
366,C#2,54.0,0.5,25,70.6
367,B3,54.25,0.25,28,70.6
368,E4,54.5,0.25,36,70.6
369,C#5,54.5,0.5,54,70.6
370,B3,54.75,0.25,31,70.6
371,F#4,55.0,0.25,37,70.6
372,B4,55.0,0.5,47,70.6
373,E-2,55.0,0.5,23,70.6
374,B3,55.25,0.25,26,70.6
375,E-4,55.5,0.25,25,70.6
376,F#4,55.5,0.5,38,70.6
377,B1,55.5,0.5,22,70.6
378,B3,55.75,0.25,27,70.6
379,E2,56.0,0.5,28,70.6
380,B3,56.0,0.5,37,70.6
381,E4,56.0,0.5,37,70.6
382,G#4,56.0,0.5,37,70.6
383,E4,56.5,0.25,32,70.6
384,B3,56.75,0.25,25,70.6
385,F#5,56.938,0.062,48,70.6
386,E5,57.0,0.25,54,70.6
387,E4,57.0,0.25,32,70.6
388,E-5,57.25,0.25,48,70.6
389,B3,57.25,0.25,27,70.6
390,E5,57.5,0.25,56,70.6
391,E4,57.5,0.25,32,70.6
392,F#5,57.75,0.188,50,70.6
393,B3,57.75,0.25,29,70.6
394,A5,57.938,0.062,50,70.6
395,G#5,58.0,0.25,60,70.6
396,E4,58.0,0.25,35,70.6
397,F#5,58.25,0.25,55,70.6
398,B3,58.25,0.25,34,70.6
399,G#5,58.5,0.25,49,70.6
400,E4,58.5,0.25,38,70.6
401,A5,58.75,0.25,55,70.6
402,B3,58.75,0.25,36,70.6
403,G#4,59.0,0.25,42,70.6
404,B4,59.0,0.5,58,70.6
405,B5,59.0,0.5,58,70.6
406,B3,59.25,0.25,38,70.6
407,F#4,59.5,0.25,47,70.6
408,A5,59.5,0.5,59,70.6
409,A4,59.5,0.5,59,70.6
410,B3,59.75,0.25,43,70.6
411,E4,60.0,0.25,54,70.6
412,G#5,60.0,0.5,64,70.6
413,G#4,60.0,0.5,64,70.6
414,B3,60.25,0.25,45,70.6
415,E-4,60.5,0.25,52,70.6
416,F#4,60.5,19/40,62,70.6
417,F#5,60.5,19/40,62,70.6
418,B3,60.75,0.25,45,70.6
419,E-4,61.0,0.25,49,70.6
420,F#4,61.0,0.5,69,70.6
421,F#5,61.0,0.5,69,70.6
422,B3,61.25,0.25,42,70.6
423,F4,61.5,0.25,52,70.6
424,G#5,61.5,0.5,62,70.6
425,G#4,61.5,0.5,62,70.6
426,B3,61.75,0.25,46,70.6
427,F#4,62.0,0.25,60,70.6
428,A4,62.0,0.5,70,70.6
429,A5,62.0,0.5,70,70.6
430,B3,62.25,0.25,50,70.6
431,A4,62.5,0.25,54,70.6
432,C#6,62.5,0.5,64,70.6
433,C#5,62.5,0.5,64,70.6
434,B3,62.75,0.25,48,70.6
435,G#4,63.0,0.25,57,70.6
436,B5,63.0,0.5,74,70.6
437,B4,63.0,0.5,74,70.6
438,B3,63.25,0.25,45,70.6
439,F#4,63.5,0.25,54,70.6
440,E-5,63.5,0.375,74,70.6
441,A5,63.5,0.375,74,70.6
442,E-6,63.5,0.375,74,70.6
443,B3,63.75,0.25,46,70.6
444,E4,64.0,0.25,59,70.6
445,E5,64.0,1.0,78,70.6
446,G#5,64.0,1.0,78,70.6
447,E6,64.0,1.0,78,70.6
448,B3,64.25,0.25,49,70.6
449,G#3,64.5,0.25,58,70.6
450,B3,64.75,0.25,50,70.6
451,E3,65.0,0.5,59,70.6
452,E4,65.5,0.25,80,70.6
453,G#4,65.5,0.25,80,70.6
454,C#4,66.0,0.25,67,70.6
455,E4,66.0,1.5,88,70.6
456,G#4,66.0,1.5,88,70.6
457,G#3,66.25,0.25,57,70.6
458,E3,66.5,0.25,62,70.6
459,G#3,66.75,0.25,57,70.6
460,C#3,67.0,0.5,70,70.6
461,C#4,67.5,0.25,26,70.6
462,E5,67.5,0.25,30,70.6
463,G#4,67.5,0.25,30,70.6
464,E4,67.5,0.25,30,70.6
465,C4,68.0,0.25,33,70.6
466,E-5,68.0,1.5,34,70.6
467,G#4,68.0,1.5,34,70.6
468,F#4,68.0,1.5,34,70.6
469,E-4,68.0,1.5,34,70.6
470,G#3,68.25,0.25,27,70.6
471,E-3,68.5,0.25,33,70.6
472,G#3,68.75,0.25,27,70.6
473,C3,69.0,0.5,36,70.6
474,C4,69.5,0.25,77,70.6
475,E-4,69.5,0.25,78,70.6
476,F#4,69.5,0.25,78,70.6
477,G#4,69.5,0.25,78,70.6
478,G#3,70.0,0.25,67,70.6
479,F#4,70.0,1.5,86,70.6
480,E-4,70.0,1.5,86,70.6
481,G#4,70.0,1.5,86,70.6
482,E-3,70.25,0.25,57,70.6
483,C3,70.5,0.25,62,70.6
484,E-3,70.75,0.25,57,70.6
485,G#2,71.0,0.5,70,70.6
486,C4,71.5,0.25,26,70.6
487,E-4,71.5,0.25,30,70.6
488,E-5,71.5,0.25,30,70.6
489,G#4,71.5,0.25,30,70.6
490,F#4,71.5,0.25,30,70.6
491,C#4,72.0,0.25,33,70.6
492,E5,72.0,1.5,35,70.6
493,G#4,72.0,1.5,35,70.6
494,E4,72.0,1.5,35,70.6
495,G#3,72.25,0.25,27,70.6
496,E3,72.5,0.25,33,70.6
497,G#3,72.75,0.25,27,70.6
498,C#3,73.0,0.5,36,70.6
499,C#4,73.5,0.25,83,70.6
500,E4,73.5,0.25,80,70.6
501,G#4,73.5,0.25,80,70.6
502,B3,74.0,0.25,67,70.6
503,E4,74.0,1.5,88,70.6
504,G#4,74.0,1.5,88,70.6
505,G#3,74.25,0.25,57,70.6
506,E3,74.5,0.25,62,70.6
507,G#3,74.75,0.25,57,70.6
508,B2,75.0,0.5,70,70.6
509,B3,75.5,0.25,26,70.6
510,E5,75.5,0.25,30,70.6
511,G#4,75.5,0.25,30,70.6
512,E4,75.5,0.25,30,70.6
513,B-3,76.0,0.25,33,70.6
514,E5,76.0,1.5,35,70.6
515,F#4,76.0,1.5,35,70.6
516,E4,76.0,1.5,35,70.6
517,F#3,76.25,0.25,27,70.6
518,C#3,76.5,0.25,33,70.6
519,F#3,76.75,0.25,27,70.6
520,B-2,77.0,0.5,36,70.6
521,B-2,77.5,0.25,77,70.6
522,C#4,77.5,0.25,80,70.6
523,E4,77.5,0.25,80,70.6
524,G#2,78.0,0.25,67,70.6
525,B3,78.0,1.5,88,70.6
526,E4,78.0,1.5,88,70.6
527,E2,78.25,0.25,57,70.6
528,B1,78.5,0.25,62,70.6
529,E2,78.75,0.25,57,70.6
530,G#1,79.0,0.5,70,70.6
531,E4,79.5,0.25,75,70.6
532,E5,79.5,0.25,75,70.6
533,B4,79.5,0.25,75,70.6
534,G#1,79.5,0.25,62,70.6
535,G#2,79.5,0.25,62,70.6
536,E4,80.0,1.5,69,70.6
537,E5,80.0,1.5,69,70.6
538,C#5,80.0,1.5,69,70.6
539,B-4,80.0,1.5,69,70.6
540,F#1,80.0,0.5,78,70.6
541,F#2,80.0,0.5,78,70.6
542,F#4,80.5,0.25,33,70.6
543,G#4,80.75,0.25,27,70.6
544,F#4,81.0,0.25,33,70.6
545,G#4,81.25,0.25,29,70.6
546,F#4,81.5,0.25,33,70.6
547,G#4,81.75,0.25,29,70.6
548,F#4,82.0,0.25,32,70.6
549,E5,82.0,1.5,53,70.6
550,C#6,82.0,1.5,53,70.6
551,C#4,82.0,1.5,38,70.6
552,B-3,82.0,1.5,38,70.6
553,G#4,82.25,0.25,27,70.6
554,F#4,82.5,0.25,31,70.6
555,G#4,82.75,0.25,26,70.6
556,F#4,83.0,0.25,32,70.6
557,G#4,83.25,0.25,32,70.6
558,F#4,83.5,0.25,33,70.6
559,E-5,83.5,9/20,57,70.6
560,B5,83.5,9/20,57,70.6
561,E-4,83.5,9/20,38,70.6
562,B3,83.5,9/20,38,70.6
563,G#4,83.75,0.25,36,70.6
564,F#4,84.0,0.25,37,70.6
565,B5,84.0,0.5,62,70.6
566,E-5,84.0,0.5,62,70.6
567,E-4,84.0,0.5,43,70.6
568,B3,84.0,0.5,43,70.6
569,G#4,84.25,0.25,29,70.6
570,F#4,84.5,0.25,32,70.6
571,C#5,84.5,9/20,48,70.6
572,B-5,84.5,9/20,48,70.6
573,E4,84.5,9/20,38,70.6
574,C#4,84.5,9/20,38,70.6
575,G#4,84.75,0.25,28,70.6
576,F#4,85.0,0.25,26,70.6
577,B-5,85.0,0.5,47,70.6
578,C#5,85.0,0.5,47,70.6
579,C#4,85.0,0.5,30,70.6
580,E4,85.0,0.5,30,70.6
581,G#4,85.25,0.25,24,70.6
582,F#4,85.5,0.25,26,70.6
583,E-5,85.5,0.5,39,70.6
584,B5,85.5,0.5,39,70.6
585,B3,85.5,0.5,30,70.6
586,E-4,85.5,0.5,30,70.6
587,G#4,85.75,0.25,24,70.6
588,F#4,86.0,0.25,32,70.6
589,E5,86.0,1.5,53,70.6
590,C#6,86.0,1.5,53,70.6
591,C#4,86.0,1.5,38,70.6
592,B-3,86.0,1.5,38,70.6
593,G#4,86.25,0.25,27,70.6
594,F#4,86.5,0.25,31,70.6
595,G#4,86.75,0.25,26,70.6
596,F#4,87.0,0.25,32,70.6
597,G#4,87.25,0.25,32,70.6
598,F#4,87.5,0.25,33,70.6
599,E-5,87.5,9/20,57,70.6
600,B5,87.5,9/20,57,70.6
601,E-4,87.5,9/20,38,70.6
602,B3,87.5,9/20,38,70.6
603,G#4,87.75,0.25,36,70.6
604,F#4,88.0,0.25,37,70.6
605,B-5,88.0,0.5,62,70.6
606,C#5,88.0,0.5,62,70.6
607,E4,88.0,0.5,43,70.6
608,C#4,88.0,0.5,43,70.6
609,G#4,88.25,0.25,29,70.6
610,F#4,88.5,0.25,32,70.6
611,C#6,88.5,0.5,48,70.6
612,E5,88.5,0.5,48,70.6
613,C#4,88.5,9/20,38,70.6
614,B-3,88.5,9/20,38,70.6
615,G#4,88.75,0.25,28,70.6
616,F#4,89.0,0.25,26,70.6
617,B5,89.0,0.5,47,70.6
618,E-5,89.0,0.5,47,70.6
619,B3,89.0,0.5,30,70.6
620,E-4,89.0,0.5,30,70.6
621,G#4,89.25,0.25,24,70.6
622,F#4,89.5,0.25,26,70.6
623,C#5,89.5,0.5,39,70.6
624,B-5,89.5,0.5,39,70.6
625,C#4,89.5,0.5,30,70.6
626,E4,89.5,0.5,30,70.6
627,G#4,89.75,0.25,24,70.6
628,E-4,90.0,0.5,28,70.6
629,F#4,90.0,0.25,33,70.6
630,B5,90.0,0.5,39,70.6
631,F#5,90.0,0.5,39,70.6
632,B4,90.25,0.25,27,70.6
633,B-5,90.5,0.5,34,70.6
634,F#4,90.5,0.25,31,70.6
635,B4,90.75,0.25,27,70.6
636,G#5,91.0,0.5,39,70.6
637,E4,91.0,0.25,33,70.6
638,B4,91.25,0.25,26,70.6
639,F#5,91.5,0.5,35,70.6
640,E-4,91.5,0.25,30,70.6
641,B4,91.75,0.25,27,70.6
642,G#5,92.0,0.5,39,70.6
643,E4,92.0,0.25,33,70.6
644,B4,92.25,0.25,26,70.6
645,F#5,92.5,0.5,37,70.6
646,F#4,92.5,0.25,31,70.6
647,B4,92.75,0.25,25,70.6
648,E5,93.0,0.5,39,70.6
649,G#4,93.0,0.25,33,70.6
650,B4,93.25,0.25,25,70.6
651,E-5,93.5,479/1000,34,70.6
652,F4,93.5,0.25,30,70.6
653,B4,93.75,0.25,27,70.6
654,E-5,94.0,1.5,39,70.6
655,F#4,94.0,2.0,33,70.6
656,G#4,94.25,0.25,27,70.6
657,B-4,94.5,0.25,32,70.6
658,B4,94.75,0.25,26,70.6
659,B-4,95.0,0.25,31,70.6
660,B4,95.25,0.25,27,70.6
661,E5,95.5,0.25,38,70.6
662,C#5,95.5,0.25,29,70.6
663,F#5,95.75,0.25,33,70.6
664,E-5,95.75,0.25,27,70.6
665,C#5,96.0,0.5,39,70.6
666,B-4,96.0,0.5,33,70.6
667,F#4,96.0,0.5,33,70.6
668,F#5,96.5,0.25,39,70.6
669,G#4,96.5,0.25,33,70.6
670,G#5,96.75,0.25,34,70.6
671,F#4,96.75,0.25,30,70.6
672,F#5,97.0,0.25,39,70.6
673,G#4,97.0,0.25,33,70.6
674,G#5,97.25,0.25,35,70.6
675,F#4,97.25,0.25,29,70.6
676,F#5,97.5,0.25,39,70.6
677,G#4,97.5,0.25,33,70.6
678,G#5,97.75,0.25,35,70.6
679,F#4,97.75,0.25,33,70.6
680,F#5,98.0,0.25,39,70.6
681,G#4,98.0,0.25,32,70.6
682,C#6,98.0,1.5,53,70.6
683,E6,98.0,1.5,53,70.6
684,C#4,98.0,1.5,38,70.6
685,B-3,98.0,1.5,38,70.6
686,G#5,98.25,0.25,35,70.6
687,F#4,98.25,0.25,27,70.6
688,F#5,98.5,0.25,39,70.6
689,G#4,98.5,0.25,31,70.6
690,G#5,98.75,0.25,35,70.6
691,F#4,98.75,0.25,26,70.6
692,F#5,99.0,0.25,39,70.6
693,G#4,99.0,0.25,32,70.6
694,G#5,99.25,0.25,37,70.6
695,F#4,99.25,0.25,32,70.6
696,F#5,99.5,0.25,43,70.6
697,G#4,99.5,0.25,33,70.6
698,E-6,99.5,9/20,57,70.6
699,B5,99.5,9/20,57,70.6
700,E-4,99.5,9/20,38,70.6
701,B3,99.5,9/20,38,70.6
702,G#5,99.75,0.25,41,70.6
703,F#4,99.75,0.25,36,70.6
704,F#5,100.0,0.25,48,70.6
705,G#4,100.0,0.25,37,70.6
706,E-6,100.0,0.5,62,70.6
707,B5,100.0,0.5,62,70.6
708,E-4,100.0,0.5,43,70.6
709,B3,100.0,0.5,43,70.6
710,G#5,100.25,0.25,42,70.6
711,F#4,100.25,0.25,29,70.6
712,F#5,100.5,0.25,46,70.6
713,G#4,100.5,0.25,32,70.6
714,B-5,100.5,9/20,48,70.6
715,C#6,100.5,9/20,48,70.6
716,E4,100.5,9/20,38,70.6
717,C#4,100.5,9/20,38,70.6
718,G#5,100.75,0.25,40,70.6
719,F#4,100.75,0.25,28,70.6
720,F#5,101.0,0.25,44,70.6
721,G#4,101.0,0.25,26,70.6
722,C#6,101.0,0.5,47,70.6
723,B-5,101.0,0.5,47,70.6
724,C#4,101.0,0.5,30,70.6
725,E4,101.0,0.5,30,70.6
726,G#5,101.25,0.25,38,70.6
727,F#4,101.25,0.25,24,70.6
728,F#5,101.5,0.25,41,70.6
729,G#4,101.5,0.25,26,70.6
730,E-6,101.5,0.5,39,70.6
731,B5,101.5,0.5,39,70.6
732,B3,101.5,0.5,30,70.6
733,E-4,101.5,0.5,30,70.6
734,G#5,101.75,0.25,36,70.6
735,F#4,101.75,0.25,24,70.6
736,F#5,102.0,0.25,39,70.6
737,G#4,102.0,0.25,32,70.6
738,E6,102.0,1.5,53,70.6
739,C#6,102.0,1.5,53,70.6
740,C#4,102.0,1.5,38,70.6
741,B-3,102.0,1.5,38,70.6
742,G#5,102.25,0.25,36,70.6
743,F#4,102.25,0.25,27,70.6
744,F#5,102.5,0.25,41,70.6
745,G#4,102.5,0.25,31,70.6
746,G#5,102.75,0.25,38,70.6
747,F#4,102.75,0.25,26,70.6
748,F#5,103.0,0.25,43,70.6
749,G#4,103.0,0.25,32,70.6
750,G#5,103.25,0.25,40,70.6
751,F#4,103.25,0.25,32,70.6
752,F#5,103.5,0.25,46,70.6
753,G#4,103.5,0.25,33,70.6
754,E-6,103.5,9/20,57,70.6
755,B5,103.5,9/20,57,70.6
756,E-4,103.5,9/20,38,70.6
757,B3,103.5,9/20,38,70.6
758,G#5,103.75,0.25,42,70.6
759,F#4,103.75,0.25,36,70.6
760,C#6,104.0,0.5,62,70.6
761,B-5,104.0,0.25,62,70.6
762,E4,104.0,0.25,32,70.6
763,C#4,104.0,0.5,39,70.6
764,F#5,104.25,0.25,36,70.6
765,F#4,104.25,0.25,29,70.6
766,G#6,104.5,0.5,48,70.6
767,E6,104.5,0.25,48,70.6
768,B-3,104.5,9/40,38,70.6
769,F#3,104.5,9/40,38,70.6
770,F#5,104.75,0.25,36,70.6
771,F#4,104.75,0.25,28,70.6
772,F#6,105.0,0.5,47,70.6
773,E-6,105.0,0.25,47,70.6
774,G#3,105.0,0.25,30,70.6
775,B3,105.0,0.25,30,70.6
776,F#5,105.25,0.25,36,70.6
777,F#4,105.25,0.25,24,70.6
778,C#6,105.5,0.25,39,70.6
779,E6,105.5,0.5,39,70.6
780,B-3,105.5,0.25,30,70.6
781,C#4,105.5,0.25,30,70.6
782,F#5,105.75,0.25,36,70.6
783,F#4,105.75,0.25,24,70.6
784,E-6,106.0,0.5,62,70.6
785,B5,106.0,0.25,62,70.6
786,E-4,106.0,0.25,36,70.6
787,B3,106.0,0.25,36,70.6
788,F#5,106.25,0.25,35,70.6
789,F#4,106.25,0.25,28,70.6
790,F#6,106.5,0.5,47,70.6
791,E-6,106.5,0.25,47,70.6
792,B3,106.5,9/40,36,70.6
793,G#3,106.5,9/40,36,70.6
794,F#5,106.75,0.25,34,70.6
795,F#4,106.75,0.25,27,70.6
796,E6,107.0,0.5,45,70.6
797,C#6,107.0,0.25,45,70.6
798,B-3,107.0,0.25,28,70.6
799,C#4,107.0,0.25,28,70.6
800,F#5,107.25,0.25,34,70.6
801,F#4,107.25,0.25,22,70.6
802,B5,107.5,0.25,36,70.6
803,E-6,107.5,0.5,36,70.6
804,B3,107.5,0.25,28,70.6
805,E-4,107.5,0.25,28,70.6
806,F#5,107.75,0.25,33,70.6
807,F#4,107.75,0.25,22,70.6
808,C#6,108.0,0.5,57,70.6
809,B-5,108.0,0.25,57,70.6
810,E4,108.0,0.25,32,70.6
811,C#4,108.0,0.25,32,70.6
812,F#5,108.25,0.25,32,70.6
813,F#4,108.25,0.25,26,70.6
814,E6,108.5,0.5,43,70.6
815,C#6,108.5,0.25,43,70.6
816,C#4,108.5,9/40,33,70.6
817,B-3,108.5,9/40,33,70.6
818,F#5,108.75,0.25,32,70.6
819,F#4,108.75,0.25,24,70.6
820,E-6,109.0,0.5,41,70.6
821,B5,109.0,0.25,41,70.6
822,B3,109.0,0.25,26,70.6
823,E-4,109.0,0.25,26,70.6
824,F#5,109.25,0.25,31,70.6
825,F#4,109.25,0.25,20,70.6
826,B-5,109.5,0.25,33,70.6
827,C#6,109.5,0.5,33,70.6
828,C#4,109.5,0.25,26,70.6
829,E4,109.5,0.25,26,70.6
830,F#5,109.75,0.25,30,70.6
831,F#4,109.75,0.25,20,70.6
832,B5,110.0,0.5,52,70.6
833,E-4,110.0,0.25,26,70.6
834,F#5,110.25,0.25,29,70.6
835,F#4,110.25,0.25,24,70.6
836,A5,110.5,0.5,39,70.6
837,E-4,110.5,9/40,33,70.6
838,C5,110.75,0.25,29,70.6
839,F#4,110.75,0.25,22,70.6
840,G#5,111.0,0.5,37,70.6
841,E-4,111.0,0.25,26,70.6
842,C5,111.25,0.25,28,70.6
843,F#4,111.25,0.25,18,70.6
844,G#5,111.5,0.5,30,70.6
845,E-4,111.5,0.25,25,70.6
846,C5,111.75,0.25,27,70.6
847,F#4,111.75,0.25,18,70.6
848,G#5,112.0,0.25,39,70.6
849,C5,112.0,0.25,39,70.6
850,E-4,112.0,0.5,24,70.6
851,F#4,112.0,0.5,24,70.6
852,G#4,112.25,0.25,33,70.6
853,B-4,112.5,0.25,34,70.6
854,C5,112.75,0.188,37,70.6
855,E-5,112.938,0.062,35,70.6
856,C#5,113.0,0.25,39,70.6
857,C5,113.25,0.25,32,70.6
858,G#3,113.25,0.25,27,70.6
859,C#5,113.5,0.25,35,70.6
860,B-3,113.5,0.25,29,70.6
861,E-5,113.75,0.25,32,70.6
862,C4,113.75,0.25,27,70.6
863,E5,114.0,0.25,39,70.6
864,C#4,114.0,0.25,33,70.6
865,C5,114.25,0.25,33,70.6
866,G#3,114.25,0.25,28,70.6
867,C#5,114.5,0.25,35,70.6
868,B-3,114.5,0.25,29,70.6
869,E-5,114.75,0.188,32,70.6
870,C4,114.75,0.188,27,70.6
871,F#5,114.938,0.062,32,70.6
872,E-4,114.938,0.062,27,70.6
873,E5,115.0,0.25,41,70.6
874,C#4,115.0,0.25,34,70.6
875,E-5,115.25,0.25,33,70.6
876,C4,115.25,0.25,28,70.6
877,E5,115.5,0.25,35,70.6
878,C#4,115.5,0.25,29,70.6
879,F#5,115.75,0.25,32,70.6
880,E-4,115.75,0.25,27,70.6
881,G#5,116.0,0.25,42,70.6
882,E4,116.0,0.25,35,70.6
883,F#5,116.25,0.25,35,70.6
884,E-4,116.25,0.25,29,70.6
885,E5,116.5,0.25,35,70.6
886,E4,116.5,0.25,29,70.6
887,E-5,116.75,0.25,34,70.6
888,F#4,116.75,0.25,28,70.6
889,E5,117.0,0.25,41,70.6
890,G#4,117.0,0.25,34,70.6
891,E-5,117.25,0.25,35,70.6
892,F#4,117.25,0.25,29,70.6
893,C#5,117.5,0.25,35,70.6
894,E4,117.5,0.25,29,70.6
895,G#5,117.75,0.25,34,70.6
896,F4,117.75,0.25,28,70.6
897,E-5,118.0,0.25,40,70.6
898,F#4,118.0,0.5,34,70.6
899,C#5,118.25,0.25,34,70.6
900,B4,118.5,0.25,35,70.6
901,F#5,118.75,0.25,35,70.6
902,C#5,119.0,0.25,40,70.6
903,F#3,119.0,0.5,34,70.6
904,B4,119.25,0.25,33,70.6
905,B-4,119.5,0.25,35,70.6
906,F#5,119.75,229/1000,33,70.6
907,B2,120.0,333/1000,32,70.6
908,F#5,120.0,2.0,41,70.6
909,E-5,120.0,2.0,41,70.6
910,F#4,120.0,2.0,41,70.6
911,F#3,120.333,333/1000,27,70.6
912,E-3,120.667,333/1000,27,70.6
913,B2,121.0,333/1000,32,70.6
914,B3,121.333,333/1000,27,70.6
915,F#3,121.667,333/1000,27,70.6
916,C#3,122.0,333/1000,32,70.6
917,E4,122.0,1.0,32,70.6
918,C#5,122.0,1.0,32,70.6
919,E5,122.0,1.0,32,70.6
920,B-3,122.333,333/1000,27,70.6
921,F#3,122.667,333/1000,27,70.6
922,E-3,123.0,333/1000,33,70.6
923,E-4,123.0,1.0,28,70.6
924,B4,123.0,1.0,28,70.6
925,E-5,123.0,1.0,28,70.6
926,B3,123.333,333/1000,27,70.6
927,F#3,123.667,333/1000,29,70.6
928,E3,124.0,333/1000,32,70.6
929,G#4,124.0,1.0,39,70.6
930,C#5,124.0,1.0,39,70.6
931,C#4,124.333,333/1000,29,70.6
932,G#3,124.667,333/1000,29,70.6
933,B4,125.0,1.0,35,70.6
934,G#4,125.0,1.0,29,70.6
935,F3,125.0,333/1000,34,70.6
936,E-4,125.333,333/1000,31,70.6
937,B3,125.667,333/1000,30,70.6
938,F#4,126.0,1.0,33,70.6
939,B4,126.0,1.0,35,70.6
940,F#3,126.0,333/1000,37,70.6
941,E-4,126.333,333/1000,32,70.6
942,B3,126.667,333/1000,32,70.6
943,B-4,127.0,0.5,44,70.6
944,F#4,127.0,1.0,37,70.6
945,E3,127.0,333/1000,42,70.6
946,C#4,127.333,333/1000,36,70.6
947,F#5,127.5,0.5,43,70.6
948,B-3,127.667,333/1000,36,70.6
949,E-3,128.0,0.25,43,70.6
950,F#4,128.0,2.0,60,70.6
951,A4,128.0,2.0,60,70.6
952,F#5,128.0,2.0,60,70.6
953,B3,128.25,0.25,36,70.6
954,F#3,128.5,0.25,36,70.6
955,E-3,128.75,0.25,34,70.6
956,B2,129.0,0.25,42,70.6
957,F#3,129.25,0.25,37,70.6
958,E-3,129.5,0.25,38,70.6
959,B2,129.75,0.25,35,70.6
960,C#3,130.0,0.25,50,70.6
961,E4,130.0,1.0,55,70.6
962,A4,130.0,1.0,55,70.6
963,E5,130.0,1.0,55,70.6
964,A3,130.25,0.25,40,70.6
965,E3,130.5,0.25,40,70.6
966,C#3,130.75,0.25,36,70.6
967,E-3,131.0,0.25,48,70.6
968,E-4,131.0,1.0,55,70.6
969,A4,131.0,1.0,55,70.6
970,E-5,131.0,1.0,55,70.6
971,F#4,131.0,1.0,55,70.6
972,B3,131.25,0.25,43,70.6
973,F#3,131.5,0.25,43,70.6
974,E-3,131.75,0.25,41,70.6
975,E3,132.0,0.25,61,70.6
976,A4,132.0,1.0,74,70.6
977,C#5,132.0,1.0,74,70.6
978,C#4,132.25,0.25,46,70.6
979,A3,132.5,0.25,45,70.6
980,E3,132.75,0.25,43,70.6
981,F#3,133.0,0.25,62,70.6
982,F#4,133.0,1.0,72,70.6
983,B4,133.0,1.0,72,70.6
984,E-4,133.0,1.0,72,70.6
985,B3,133.25,0.25,47,70.6
986,A3,133.5,0.25,48,70.6
987,F#3,133.75,229/1000,46,70.6
988,F#3,134.0,0.25,66,70.6
989,B3,134.25,0.25,50,70.6
990,A3,134.5,0.25,50,70.6
991,F#3,134.75,0.25,48,70.6
992,C3,135.0,0.25,60,70.6
993,F#4,135.0,1.0,72,70.6
994,B4,135.0,1.0,72,70.6
995,E-4,135.0,1.0,72,70.6
996,A3,135.25,0.25,51,70.6
997,F#3,135.5,0.25,51,70.6
998,E-3,135.75,0.25,47,70.6
999,C3,136.0,0.25,60,70.6
1000,F#4,136.0,1.0,71,70.6
1001,A4,136.0,1.0,71,70.6
1002,E-4,136.0,1.0,71,70.6
1003,A3,136.25,0.25,51,70.6
1004,F#3,136.5,0.25,51,70.6
1005,E-3,136.75,0.25,43,70.6
1006,A4,137.0,0.25,82,70.6
1007,C3,137.0,0.25,48,70.6
1008,E-5,137.25,0.25,75,70.6
1009,A3,137.25,0.25,37,70.6
1010,F#5,137.5,0.25,80,70.6
1011,F#3,137.5,0.25,35,70.6
1012,E-5,137.75,0.25,77,70.6
1013,E-3,137.75,0.25,33,70.6
1014,A5,138.0,0.25,68,70.6
1015,B2,138.0,0.25,37,70.6
1016,E-6,138.25,0.25,59,70.6
1017,A3,138.25,0.25,26,70.6
1018,F#6,138.5,0.25,50,70.6
1019,F#3,138.5,0.25,30,70.6
1020,E-6,138.75,0.25,41,70.6
1021,E-3,138.75,0.25,26,70.6
1022,A6,139.0,1.0,54,70.6
1023,B2,139.0,0.25,31,70.6
1024,A3,139.25,0.25,26,70.6
1025,G#3,139.5,0.25,26,70.6
1026,F#3,139.75,0.25,26,70.6
1027,E2,140.0,0.5,28,70.6
1028,E3,140.0,0.5,28,70.6
1029,E-4,140.25,0.25,39,70.6
1030,E4,140.5,0.25,39,70.6
1031,F#4,140.75,0.25,41,70.6
1032,E4,141.0,0.25,34,70.6
1033,G#4,141.0,1.0,50,70.6
1034,B3,141.25,0.25,26,70.6
1035,E4,141.5,0.25,31,70.6
1036,B3,141.75,0.25,26,70.6
1037,G#4,142.0,0.25,30,70.6
1038,B4,142.0,0.5,46,70.6
1039,B1,142.0,0.5,28,70.6
1040,B2,142.0,0.5,28,70.6
1041,B3,142.25,0.25,27,70.6
1042,F#4,142.5,0.25,28,70.6
1043,A4,142.5,0.5,43,70.6
1044,B3,142.75,0.25,27,70.6
1045,E4,143.0,0.25,34,70.6
1046,G#4,143.0,0.5,50,70.6
1047,B3,143.25,0.25,26,70.6
1048,E-4,143.5,0.25,27,70.6
1049,F#4,143.5,0.438,41,70.6
1050,B3,143.75,0.188,25,70.6
1051,E-4,144.0,0.25,27,70.6
1052,F#4,144.0,0.5,41,70.6
1053,C#2,144.0,0.5,28,70.6
1054,C#3,144.0,0.5,28,70.6
1055,B3,144.25,0.25,26,70.6
1056,E4,144.5,0.25,28,70.6
1057,G#4,144.5,0.5,43,70.6
1058,B3,144.75,0.25,28,70.6
1059,E4,145.0,0.25,30,70.6
1060,A4,145.0,0.5,46,70.6
1061,E-3,145.0,0.5,26,70.6
1062,E-2,145.0,0.5,26,70.6
1063,B3,145.25,0.25,28,70.6
1064,E4,145.5,0.25,36,70.6
1065,C#5,145.5,0.5,54,70.6
1066,B2,145.5,0.5,24,70.6
1067,B1,145.5,0.5,24,70.6
1068,B3,145.75,0.25,31,70.6
1069,F#4,146.0,0.25,37,70.6
1070,B4,146.0,0.5,47,70.6
1071,E2,146.0,0.25,28,70.6
1072,E3,146.0,0.25,28,70.6
1073,B3,146.25,0.25,26,70.6
1074,G#3,146.25,0.25,25,70.6
1075,E-4,146.5,0.25,25,70.6
1076,F#4,146.5,0.5,38,70.6
1077,B3,146.5,0.25,28,70.6
1078,B3,146.75,0.25,27,70.6
1079,A3,146.75,0.25,26,70.6
1080,G#3,147.0,0.25,28,70.6
1081,B3,147.0,1.0,37,70.6
1082,E4,147.0,1.0,37,70.6
1083,G#4,147.0,1.0,37,70.6
1084,A3,147.25,0.25,25,70.6
1085,G#3,147.5,0.25,30,70.6
1086,F#3,147.75,0.25,27,70.6
1087,E3,148.0,0.25,37,70.6
1088,B3,148.25,0.25,28,70.6
1089,E5,148.5,0.25,47,70.6
1090,B2,148.5,0.25,34,70.6
1091,F#5,148.75,0.25,42,70.6
1092,B3,148.75,0.25,28,70.6
1093,E3,149.0,0.25,33,70.6
1094,G#4,149.0,1.0,55,70.6
1095,G#5,149.0,1.0,55,70.6
1096,B3,149.25,0.25,29,70.6
1097,B2,149.5,0.25,30,70.6
1098,B3,149.75,0.25,29,70.6
1099,E-3,150.0,0.25,37,70.6
1100,B4,150.0,0.5,50,70.6
1101,B5,150.0,0.5,50,70.6
1102,B3,150.25,0.25,28,70.6
1103,B2,150.5,0.25,29,70.6
1104,A4,150.5,0.5,47,70.6
1105,A5,150.5,0.5,47,70.6
1106,B3,150.75,0.188,27,70.6
1107,E-3,151.0,0.25,29,70.6
1108,G#4,151.0,0.5,55,70.6
1109,G#5,151.0,0.5,55,70.6
1110,B3,151.25,0.25,28,70.6
1111,F3,151.5,0.25,31,70.6
1112,F#4,151.5,0.438,45,70.6
1113,F#5,151.5,0.438,45,70.6
1114,B3,151.75,0.25,33,70.6
1115,F#3,152.0,0.25,36,70.6
1116,F#4,152.0,0.5,45,70.6
1117,F#5,152.0,0.5,45,70.6
1118,B3,152.25,0.25,36,70.6
1119,A3,152.5,0.25,41,70.6
1120,G#4,152.5,0.5,49,70.6
1121,G#5,152.5,0.5,49,70.6
1122,B3,152.75,0.25,37,70.6
1123,G#3,153.0,0.25,38,70.6
1124,A4,153.0,0.5,52,70.6
1125,A5,153.0,0.5,52,70.6
1126,B3,153.25,0.25,32,70.6
1127,C#5,153.5,0.5,56,70.6
1128,C#6,153.5,0.5,56,70.6
1129,B2,153.5,0.25,25,70.6
1130,F#3,153.5,0.25,25,70.6
1131,A3,153.75,0.25,27,70.6
1132,B4,154.0,0.5,52,70.6
1133,B5,154.0,0.5,52,70.6
1134,E3,154.0,0.25,31,70.6
1135,G#3,154.0,0.25,31,70.6
1136,B3,154.25,0.25,23,70.6
1137,G#3,154.5,0.25,31,70.6
1138,E-6,154.5,0.5,40,70.6
1139,E-5,154.5,0.5,40,70.6
1140,E3,154.75,0.25,25,70.6
1141,E-3,155.0,0.25,31,70.6
1142,E6,155.0,1.0,46,70.6
1143,E5,155.0,1.0,46,70.6
1144,B3,155.25,0.25,27,70.6
1145,F#3,155.5,0.25,31,70.6
1146,E-3,155.75,0.25,32,70.6
1147,C#3,156.0,0.25,38,70.6
1148,B-3,156.25,0.25,29,70.6
1149,B4,156.5,0.5,47,70.6
1150,F#3,156.5,0.25,31,70.6
1151,C#3,156.75,0.25,27,70.6
1152,B-4,157.0,1.0,51,70.6
1153,F#2,157.0,0.25,31,70.6
1154,B-3,157.25,0.25,26,70.6
1155,F#3,157.5,0.25,29,70.6
1156,C#3,157.75,0.25,27,70.6
1157,E5,158.0,1.0,56,70.6
1158,B2,158.0,0.25,31,70.6
1159,B3,158.25,0.25,25,70.6
1160,F#3,158.5,0.25,30,70.6
1161,E-3,158.75,0.25,27,70.6
1162,E-5,159.0,1.5,51,70.6
1163,B2,159.0,0.25,37,70.6
1164,B3,159.25,0.25,30,70.6
1165,C#3,159.5,0.25,37,70.6
1166,A3,159.75,0.25,33,70.6
1167,B2,160.0,0.25,31,70.6
1168,G#3,160.25,0.25,32,70.6
1169,A4,160.5,0.5,45,70.6
1170,E3,160.5,0.25,38,70.6
1171,B2,160.75,0.25,33,70.6
1172,G#4,161.0,1.0,51,70.6
1173,E2,161.0,0.25,45,70.6
1174,G#3,161.25,0.25,32,70.6
1175,E3,161.5,0.25,36,70.6
1176,B2,161.75,0.25,29,70.6
1177,D5,162.0,1.0,54,70.6
1178,A2,162.0,0.25,35,70.6
1179,A3,162.25,0.25,27,70.6
1180,E3,162.5,0.25,31,70.6
1181,C#3,162.75,0.25,27,70.6
1182,C#5,163.0,1.5,51,70.6
1183,A2,163.0,0.25,31,70.6
1184,E3,163.25,0.25,29,70.6
1185,A2,163.5,0.25,34,70.6
1186,E3,163.75,0.25,38,70.6
1187,A2,164.0,0.25,39,70.6
1188,E3,164.25,0.25,35,70.6
1189,C#5,164.5,0.5,48,70.6
1190,A2,164.5,0.25,38,70.6
1191,E3,164.75,0.25,35,70.6
1192,C5,165.0,0.5,57,70.6
1193,A2,165.0,0.25,44,70.6
1194,E3,165.25,0.25,36,70.6
1195,C#5,165.5,0.5,58,70.6
1196,B2,165.5,0.25,44,70.6
1197,E3,165.75,0.25,37,70.6
1198,C#3,166.0,0.25,55,70.6
1199,A4,166.0,0.375,49,70.6
1200,E4,166.0,0.375,49,70.6
1201,C#4,166.0,0.375,49,70.6
1202,E3,166.25,0.25,48,70.6
1203,C#3,166.5,0.25,54,70.6
1204,G#4,166.5,0.375,49,70.6
1205,E4,166.5,0.375,49,70.6
1206,B3,166.5,0.375,49,70.6
1207,E3,166.75,0.25,43,70.6
1208,G#4,167.0,0.5,76,70.6
1209,C3,167.0,0.25,50,70.6
1210,E4,167.0,1.0,64,70.6
1211,B-3,167.0,1.0,64,70.6
1212,E3,167.25,0.25,39,70.6
1213,F#4,167.5,1.0,62,70.6
1214,C3,167.5,0.25,49,70.6
1215,E3,167.75,0.25,39,70.6
1216,B2,168.0,0.25,31,70.6
1217,E4,168.0,1.0,63,70.6
1218,A3,168.0,1.0,63,70.6
1219,F#3,168.25,0.25,27,70.6
1220,F#4,168.5,0.5,67,70.6
1221,B2,168.5,0.25,31,70.6
1222,F#3,168.75,0.25,29,70.6
1223,A3,168.75,0.25,29,70.6
1224,B2,169.0,0.25,31,70.6
1225,F#4,169.0,0.5,44,70.6
1226,E-4,169.0,0.5,44,70.6
1227,A3,169.0,0.5,44,70.6
1228,F#3,169.25,0.25,27,70.6
1229,A3,169.25,0.25,27,70.6
1230,B4,169.5,0.5,38,70.6
1231,E-4,169.5,1.0,32,70.6
1232,B2,169.5,0.25,31,70.6
1233,A3,169.75,0.25,28,70.6
1234,F#3,169.75,0.25,28,70.6
1235,B-4,170.0,0.5,46,70.6
1236,E3,170.0,0.25,31,70.6
1237,G#3,170.0,0.25,31,70.6
1238,B3,170.25,0.25,23,70.6
1239,G#3,170.5,0.25,31,70.6
1240,B4,170.5,0.5,37,70.6
1241,E-4,170.5,0.5,37,70.6
1242,E3,170.75,0.25,25,70.6
1243,E4,171.0,1.0,51,70.6
1244,E-3,171.0,0.25,31,70.6
1245,B3,171.25,0.25,27,70.6
1246,F#3,171.5,0.25,31,70.6
1247,E-3,171.75,0.25,32,70.6
1248,C#3,172.0,0.25,38,70.6
1249,B-3,172.25,0.25,29,70.6
1250,F#3,172.5,0.25,31,70.6
1251,B5,172.5,0.5,47,70.6
1252,B4,172.5,0.5,47,70.6
1253,C#3,172.75,0.25,27,70.6
1254,F#2,173.0,0.25,31,70.6
1255,B-5,173.0,1.0,51,70.6
1256,B-4,173.0,1.0,51,70.6
1257,B-3,173.25,0.25,26,70.6
1258,F#3,173.5,0.25,29,70.6
1259,C#3,173.75,0.25,27,70.6
1260,B2,174.0,0.25,31,70.6
1261,E6,174.0,1.0,56,70.6
1262,E5,174.0,1.0,56,70.6
1263,B3,174.25,0.25,25,70.6
1264,F#3,174.5,0.25,30,70.6
1265,E-3,174.75,0.25,27,70.6
1266,B2,175.0,0.25,37,70.6
1267,E-6,175.0,1.5,51,70.6
1268,E-5,175.0,1.5,51,70.6
1269,B3,175.25,0.25,30,70.6
1270,C#3,175.5,0.25,37,70.6
1271,A3,175.75,0.25,33,70.6
1272,B2,176.0,0.25,31,70.6
1273,G#3,176.25,0.25,33,70.6
1274,E3,176.5,0.25,37,70.6
1275,A5,176.5,0.5,45,70.6
1276,A4,176.5,0.5,45,70.6
1277,B2,176.75,0.25,37,70.6
1278,E2,177.0,0.25,42,70.6
1279,G#5,177.0,1.0,51,70.6
1280,G#4,177.0,1.0,51,70.6
1281,G#3,177.25,0.25,32,70.6
1282,E3,177.5,0.25,36,70.6
1283,B2,177.75,0.25,29,70.6
1284,A2,178.0,0.25,35,70.6
1285,D6,178.0,1.0,54,70.6
1286,D5,178.0,1.0,54,70.6
1287,A3,178.25,0.25,27,70.6
1288,E3,178.5,0.25,31,70.6
1289,C#3,178.75,0.25,27,70.6
1290,A2,179.0,0.25,31,70.6
1291,C#6,179.0,1.5,51,70.6
1292,C#5,179.0,1.5,51,70.6
1293,E3,179.25,0.25,29,70.6
1294,A2,179.5,0.25,35,70.6
1295,E3,179.75,0.25,40,70.6
1296,A2,180.0,0.25,40,70.6
1297,E3,180.25,0.25,36,70.6
1298,A2,180.5,0.25,40,70.6
1299,C#6,180.5,0.5,50,70.6
1300,C#5,180.5,0.5,50,70.6
1301,E3,180.75,0.25,37,70.6
1302,C6,181.0,0.5,59,70.6
1303,C5,181.0,0.5,59,70.6
1304,C#3,181.0,0.25,42,70.6
1305,A2,181.0,0.25,42,70.6
1306,E3,181.25,0.25,37,70.6
1307,C#6,181.5,0.5,60,70.6
1308,C#5,181.5,0.5,60,70.6
1309,E3,181.5,0.25,42,70.6
1310,B2,181.5,0.25,42,70.6
1311,G#3,181.75,0.25,38,70.6
1312,A5,182.0,0.375,58,70.6
1313,A4,182.0,0.375,58,70.6
1314,E3,182.0,0.25,53,70.6
1315,C#3,182.0,0.25,53,70.6
1316,B-3,182.25,0.25,50,70.6
1317,G#5,182.5,0.375,57,70.6
1318,G#4,182.5,0.375,57,70.6
1319,E3,182.5,0.25,52,70.6
1320,C#3,182.5,0.25,52,70.6
1321,B-3,182.75,0.25,45,70.6
1322,G#5,183.0,0.5,71,70.6
1323,G#4,183.0,0.5,71,70.6
1324,E3,183.0,0.25,48,70.6
1325,C3,183.0,0.25,48,70.6
1326,A3,183.25,0.25,40,70.6
1327,F#5,183.5,99/100,65,70.6
1328,F#4,183.5,99/100,65,70.6
1329,E3,183.5,0.25,47,70.6
1330,C3,183.5,0.25,47,70.6
1331,A3,183.75,0.25,41,70.6
1332,E-3,184.0,0.25,28,70.6
1333,B2,184.0,0.25,28,70.6
1334,A3,184.25,0.25,27,70.6
1335,F#5,184.5,19/40,69,70.6
1336,F#4,184.5,19/40,69,70.6
1337,E-3,184.5,0.25,28,70.6
1338,B2,184.5,0.25,28,70.6
1339,A3,184.75,0.25,29,70.6
1340,F#5,185.0,0.5,49,70.6
1341,F#4,185.0,0.5,49,70.6
1342,E-3,185.0,0.25,28,70.6
1343,B2,185.0,0.25,28,70.6
1344,A3,185.25,0.25,27,70.6
1345,B5,185.5,0.5,38,70.6
1346,B4,185.5,0.5,38,70.6
1347,E-3,185.5,0.25,28,70.6
1348,B2,185.5,0.25,28,70.6
1349,A3,185.75,0.25,28,70.6
1350,B-5,186.0,0.5,46,70.6
1351,B-4,186.0,0.5,46,70.6
1352,E3,186.0,0.25,31,70.6
1353,G#3,186.0,0.25,31,70.6
1354,E3,186.25,0.25,31,70.6
1355,E-3,186.5,0.25,31,70.6
1356,B5,186.5,0.5,40,70.6
1357,B4,186.5,0.5,40,70.6
1358,C#3,186.75,0.25,31,70.6
1359,B2,187.0,0.25,31,70.6
1360,E5,187.0,1.0,51,70.6
1361,E4,187.0,1.0,51,70.6
1362,A2,187.25,0.25,30,70.6
1363,G#2,187.5,0.25,25,70.6
1364,F#2,187.75,0.25,25,70.6
1365,E2,188.0,0.5,25,70.6
1366,E4,188.5,0.25,43,70.6
1367,F#4,188.75,0.25,39,70.6
1368,E4,189.0,0.25,34,70.6
1369,G#4,189.0,1.0,50,70.6
1370,B3,189.25,0.25,26,70.6
1371,E4,189.5,0.25,31,70.6
1372,B3,189.75,0.25,26,70.6
1373,G#4,190.0,0.25,30,70.6
1374,B4,190.0,0.5,46,70.6
1375,B1,190.0,0.5,25,70.6
1376,B3,190.25,0.25,27,70.6
1377,F#4,190.5,0.25,28,70.6
1378,A4,190.5,0.5,43,70.6
1379,B3,190.75,0.25,27,70.6
1380,E4,191.0,0.25,34,70.6
1381,G#4,191.0,0.5,50,70.6
1382,B3,191.25,0.25,26,70.6
1383,E-4,191.5,0.25,27,70.6
1384,F#4,191.5,0.438,41,70.6
1385,B3,191.75,0.188,25,70.6
1386,E-4,192.0,0.25,27,70.6
1387,F#4,192.0,0.5,41,70.6
1388,C#2,192.0,0.5,25,70.6
1389,B3,192.25,0.25,26,70.6
1390,E4,192.5,0.25,28,70.6
1391,G#4,192.5,0.5,43,70.6
1392,B3,192.75,0.25,28,70.6
1393,E4,193.0,0.25,30,70.6
1394,A4,193.0,0.5,46,70.6
1395,E-2,193.0,0.5,23,70.6
1396,B3,193.25,0.25,28,70.6
1397,E4,193.5,0.25,36,70.6
1398,C#5,193.5,0.5,54,70.6
1399,B1,193.5,0.5,22,70.6
1400,B3,193.75,0.25,31,70.6
1401,F#4,194.0,0.25,37,70.6
1402,B4,194.0,0.5,47,70.6
1403,E2,194.0,0.5,28,70.6
1404,B3,194.25,0.25,26,70.6
1405,E-4,194.5,0.25,25,70.6
1406,F#4,194.5,0.5,38,70.6
1407,E4,194.5,0.25,28,70.6
1408,B3,194.75,0.25,27,70.6
1409,B3,194.75,0.25,22,70.6
1410,E4,195.0,0.25,28,70.6
1411,B3,195.0,0.5,37,70.6
1412,E4,195.0,0.5,37,70.6
1413,G#4,195.0,0.5,37,70.6
1414,B3,195.25,0.25,24,70.6
1415,E4,195.5,0.25,28,70.6
1416,B3,195.75,0.25,25,70.6
1417,F#5,195.938,0.062,42,70.6
1418,E5,196.0,0.25,47,70.6
1419,E4,196.0,0.25,30,70.6
1420,E-5,196.25,0.25,42,70.6
1421,B3,196.25,0.25,29,70.6
1422,E5,196.5,0.25,48,70.6
1423,E4,196.5,0.25,32,70.6
1424,F#5,196.75,0.188,47,70.6
1425,B3,196.75,0.25,31,70.6
1426,A5,196.938,0.062,50,70.6
1427,G#5,197.0,0.25,52,70.6
1428,G#4,197.0,0.25,35,70.6
1429,F#5,197.25,0.25,47,70.6
1430,B3,197.25,0.25,32,70.6
1431,G#5,197.5,0.25,42,70.6
1432,F#4,197.5,0.25,39,70.6
1433,A5,197.75,0.25,47,70.6
1434,B3,197.75,0.25,36,70.6
1435,E4,198.0,0.25,45,70.6
1436,B4,198.0,0.5,49,70.6
1437,B5,198.0,0.5,49,70.6
1438,B3,198.25,0.25,37,70.6
1439,E-4,198.5,0.25,43,70.6
1440,A5,198.5,0.5,49,70.6
1441,A4,198.5,0.5,49,70.6
1442,B3,198.75,0.25,37,70.6
1443,E-4,199.0,0.25,46,70.6
1444,G#5,199.0,0.5,54,70.6
1445,G#4,199.0,0.5,54,70.6
1446,B3,199.25,0.25,39,70.6
1447,F4,199.5,0.25,49,70.6
1448,F#4,199.5,19/40,50,70.6
1449,F#5,199.5,19/40,50,70.6
1450,B3,199.75,0.25,44,70.6
1451,F#4,200.0,0.25,58,70.6
1452,F#4,200.0,0.5,64,70.6
1453,F#5,200.0,0.5,64,70.6
1454,B3,200.25,0.25,48,70.6
1455,A4,200.5,0.25,53,70.6
1456,G#5,200.5,0.5,59,70.6
1457,G#4,200.5,0.5,59,70.6
1458,B3,200.75,0.25,47,70.6
1459,G#4,201.0,0.25,57,70.6
1460,A4,201.0,0.5,71,70.6
1461,A5,201.0,0.5,71,70.6
1462,B3,201.25,0.25,44,70.6
1463,F#4,201.5,0.25,54,70.6
1464,C#6,201.5,0.5,62,70.6
1465,C#5,201.5,0.5,62,70.6
1466,B3,201.75,0.25,46,70.6
1467,E4,202.0,0.25,59,70.6
1468,B5,202.0,0.5,74,70.6
1469,B4,202.0,0.5,74,70.6
1470,B3,202.25,0.25,49,70.6
1471,G#3,202.5,0.25,58,70.6
1472,E-5,202.5,0.375,74,70.6
1473,A5,202.5,0.375,74,70.6
1474,E-6,202.5,0.375,74,70.6
1475,B3,202.75,0.25,50,70.6
1476,E3,203.0,0.25,45,70.6
1477,E5,203.0,1.0,81,70.6
1478,G#5,203.0,1.0,81,70.6
1479,E6,203.0,1.0,81,70.6
1480,B3,203.25,0.25,31,70.6
1481,B2,203.5,0.25,31,70.6
1482,B3,203.75,0.25,31,70.6
1483,F#3,204.0,0.25,40,70.6
1484,B3,204.25,0.25,33,70.6
1485,A3,204.5,0.25,33,70.6
1486,G#4,204.5,0.5,38,70.6
1487,E4,204.5,0.5,38,70.6
1488,B3,204.75,0.25,33,70.6
1489,A4,205.0,0.5,46,70.6
1490,E-4,205.0,1.0,39,70.6
1491,G#3,205.0,0.25,37,70.6
1492,B3,205.25,0.25,33,70.6
1493,C#5,205.5,0.5,39,70.6
1494,F#3,205.5,0.25,33,70.6
1495,B3,205.75,0.25,33,70.6
1496,E3,206.0,0.25,40,70.6
1497,B4,206.0,0.5,42,70.6
1498,E4,206.0,0.5,42,70.6
1499,B3,206.25,0.25,35,70.6
1500,E4,206.5,0.25,28,70.6
1501,E-5,206.5,0.375,44,70.6
1502,A4,206.5,0.375,44,70.6
1503,B3,206.75,0.25,28,70.6
1504,E4,207.0,0.25,31,70.6
1505,E5,207.0,0.5,42,70.6
1506,G#4,207.0,0.5,42,70.6
1507,B3,207.25,0.25,28,70.6
1508,G4,207.5,1.0,34,70.6
1509,E4,207.5,0.25,40,70.6
1510,B3,207.75,0.25,49,70.6
1511,F#4,208.0,0.25,47,70.6
1512,B3,208.25,0.25,48,70.6
1513,G5,208.5,0.5,57,70.6
1514,A4,208.5,0.25,45,70.6
1515,B3,208.75,0.25,49,70.6
1516,A5,209.0,0.5,67,70.6
1517,G4,209.0,0.25,55,70.6
1518,B3,209.25,0.25,52,70.6
1519,C6,209.5,0.5,65,70.6
1520,F#4,209.5,0.25,71,70.6
1521,B3,209.75,0.25,65,70.6
1522,B5,210.0,0.5,76,70.6
1523,E4,210.0,0.25,80,70.6
1524,B3,210.25,0.25,65,70.6
1525,G3,210.5,0.25,68,70.6
1526,E-6,210.5,0.375,84,70.6
1527,A5,210.5,0.375,84,70.6
1528,E-5,210.5,0.375,84,70.6
1529,B3,210.75,0.25,57,70.6
1530,E3,211.0,0.25,44,70.6
1531,E5,211.0,1.0,90,70.6
1532,G5,211.0,1.0,90,70.6
1533,E6,211.0,1.0,90,70.6
1534,B3,211.25,0.25,44,70.6
1535,B2,211.5,0.25,38,70.6
1536,B3,211.75,0.25,38,70.6
1537,F#3,212.0,0.25,35,70.6
1538,B3,212.25,0.25,36,70.6
1539,G4,212.5,0.5,47,70.6
1540,A3,212.5,0.25,36,70.6
1541,B3,212.75,0.25,37,70.6
1542,A4,213.0,0.5,53,70.6
1543,G3,213.0,0.25,39,70.6
1544,B3,213.25,0.25,39,70.6
1545,C5,213.5,0.5,48,70.6
1546,F#3,213.5,0.25,40,70.6
1547,B3,213.75,0.25,42,70.6
1548,B4,214.0,0.5,49,70.6
1549,E3,214.0,0.25,43,70.6
1550,E4,214.25,0.25,41,70.6
1551,D3,214.5,0.25,44,70.6
1552,A4,214.5,0.25,45,70.6
1553,E-5,214.5,0.25,45,70.6
1554,D4,214.75,0.25,42,70.6
1555,C3,215.0,0.25,49,70.6
1556,E5,215.0,0.25,52,70.6
1557,G4,215.0,0.25,52,70.6
1558,C4,215.25,0.25,45,70.6
1559,B2,215.5,0.25,51,70.6
1560,E5,215.5,0.25,67,70.6
1561,G5,215.5,0.25,67,70.6
1562,B3,215.75,0.25,47,70.6
1563,A2,216.0,0.25,52,70.6
1564,C6,216.0,0.25,73,70.6
1565,E5,216.0,0.25,73,70.6
1566,A3,216.25,0.25,51,70.6
1567,G2,216.5,0.25,57,70.6
1568,E5,216.5,0.25,73,70.6
1569,C6,216.5,0.25,73,70.6
1570,G3,216.75,0.25,53,70.6
1571,F2,217.0,0.25,57,70.6
1572,E5,217.0,0.25,84,70.6
1573,C6,217.0,0.25,84,70.6
1574,F3,217.25,0.25,55,70.6
1575,E2,217.5,0.25,63,70.6
1576,C6,217.5,0.25,83,70.6
1577,A5,217.5,0.25,83,70.6
1578,E3,217.75,0.25,59,70.6
1579,D2,218.0,0.25,69,70.6
1580,F6,218.0,0.25,87,70.6
1581,D6,218.0,0.25,87,70.6
1582,D3,218.25,0.25,67,70.6
1583,C2,218.5,0.25,74,70.6
1584,F6,218.5,0.25,85,70.6
1585,D6,218.5,0.25,85,70.6
1586,C3,218.75,0.25,77,70.6
1587,B1,219.0,0.25,81,70.6
1588,F6,219.0,0.25,90,70.6
1589,D6,219.0,0.25,90,70.6
1590,B2,219.25,0.25,76,70.6
1591,A1,219.5,0.25,83,70.6
1592,D6,219.5,0.25,86,70.6
1593,F6,219.5,0.25,86,70.6
1594,A2,219.75,0.25,80,70.6
1595,G1,220.0,0.25,86,70.6
1596,D6,220.0,0.25,88,70.6
1597,F6,220.0,0.25,88,70.6
1598,G2,220.25,0.25,80,70.6
1599,B1,220.5,0.25,86,70.6
1600,D6,220.5,0.25,94,70.6
1601,F6,220.5,0.25,94,70.6
1602,B2,220.75,0.25,80,70.6
1603,D2,221.0,0.25,86,70.6
1604,F6,221.0,2.0,102,70.6
1605,D6,221.0,2.0,102,70.6
1606,D3,221.25,0.25,81,70.6
1607,F#2,221.5,0.25,87,70.6
1608,F#3,221.75,0.25,81,70.6
1609,G2,222.0,0.25,86,70.6
1610,G3,222.25,0.25,76,70.6
1611,B2,222.5,0.25,81,70.6
1612,B3,222.75,0.25,73,70.6
1613,D3,223.0,0.25,77,70.6
1614,D4,223.25,0.25,76,70.6
1615,F#3,223.5,0.25,73,70.6
1616,F#4,223.75,0.25,73,70.6
1617,G3,224.0,0.25,81,70.6
1618,G4,224.25,0.25,53,70.6
1619,A3,224.5,0.25,50,70.6
1620,A4,224.75,0.25,49,70.6
1621,B3,225.0,0.25,49,70.6
1622,B4,225.25,0.25,48,70.6
1623,C4,225.5,0.25,46,70.6
1624,F6,225.5,2.0,102,70.6
1625,D6,225.5,2.0,102,70.6
1626,C5,225.75,0.25,42,70.6
1627,F4,226.0,0.25,42,70.6
1628,C5,226.25,0.25,35,70.6
1629,F#4,226.5,0.25,39,70.6
1630,C5,226.75,0.25,34,70.6
1631,G4,227.0,0.25,39,70.6
1632,C5,227.25,0.25,35,70.6
1633,G3,227.5,0.25,40,70.6
1634,C3,228.0,333/1000,32,70.6
1635,F6,228.0,0.5,102,70.6
1636,D6,228.0,0.5,102,70.6
1637,G3,228.333,333/1000,27,70.6
1638,D6,228.5,1.0,62,70.6
1639,F6,228.5,1.0,62,70.6
1640,E3,228.667,333/1000,27,70.6
1641,C3,229.0,333/1000,32,70.6
1642,C4,229.333,333/1000,27,70.6
1643,E6,229.5,0.25,54,70.6
1644,C6,229.5,0.25,54,70.6
1645,G3,229.667,333/1000,27,70.6
1646,D6,230.0,0.25,46,70.6
1647,D3,230.0,333/1000,32,70.6
1648,B3,230.333,333/1000,27,70.6
1649,D5,230.5,0.25,45,70.6
1650,A5,230.5,0.25,45,70.6
1651,G3,230.667,333/1000,27,70.6
1652,E3,231.0,333/1000,33,70.6
1653,G5,231.0,0.5,40,70.6
1654,E5,231.0,0.5,40,70.6
1655,C4,231.333,333/1000,27,70.6
1656,G5,231.5,0.25,38,70.6
1657,D5,231.5,0.25,38,70.6
1658,B4,231.5,0.25,38,70.6
1659,G3,231.667,333/1000,29,70.6
1660,G4,231.75,0.25,40,70.6
1661,F3,232.0,333/1000,32,70.6
1662,E5,232.0,2.0,41,70.6
1663,C5,232.0,2.0,41,70.6
1664,G4,232.0,2.0,41,70.6
1665,D4,232.333,333/1000,29,70.6
1666,A3,232.667,333/1000,29,70.6
1667,F#3,233.0,333/1000,34,70.6
1668,E-4,233.333,333/1000,31,70.6
1669,C4,233.667,333/1000,30,70.6
1670,G3,234.0,333/1000,37,70.6
1671,F4,234.0,1.0,32,70.6
1672,D5,234.0,1.0,32,70.6
1673,F5,234.0,1.0,32,70.6
1674,E4,234.333,333/1000,32,70.6
1675,C4,234.667,333/1000,32,70.6
1676,F3,235.0,333/1000,39,70.6
1677,G4,235.0,1.0,28,70.6
1678,C5,235.0,1.0,28,70.6
1679,E5,235.0,1.0,28,70.6
1680,F4,235.333,333/1000,33,70.6
1681,D4,235.667,333/1000,33,70.6
1682,B3,235.667,333/1000,33,70.6
1683,C4,236.0,0.25,39,70.6
1684,A4,236.0,1.0,39,70.6
1685,D5,236.0,1.0,39,70.6
1686,G3,236.25,0.25,32,70.6
1687,E-3,236.5,0.25,32,70.6
1688,G3,236.75,0.25,30,70.6
1689,C5,237.0,1.0,35,70.6
1690,A4,237.0,1.0,29,70.6
1691,C3,237.0,0.25,38,70.6
1692,C4,237.25,0.25,33,70.6
1693,G3,237.5,0.25,34,70.6
1694,C3,237.75,0.25,32,70.6
1695,G4,238.0,1.0,33,70.6
1696,C5,238.0,1.0,35,70.6
1697,D3,238.0,0.25,45,70.6
1698,B3,238.25,0.25,36,70.6
1699,G3,238.5,0.25,36,70.6
1700,D3,238.75,0.25,33,70.6
1701,B4,239.0,0.5,56,70.6
1702,G4,239.0,1.0,34,70.6
1703,E-3,239.0,0.25,43,70.6
1704,C4,239.25,0.25,39,70.6
1705,G5,239.5,0.5,60,70.6
1706,G3,239.5,0.25,39,70.6
1707,E-3,239.75,0.25,37,70.6
1708,F3,240.0,0.25,56,70.6
1709,G4,240.0,2.0,54,70.6
1710,E-5,240.0,2.0,54,70.6
1711,G5,240.0,2.0,54,70.6
1712,D4,240.25,0.25,42,70.6
1713,G#3,240.5,0.25,42,70.6
1714,F3,240.75,0.25,39,70.6
1715,F#3,241.0,0.25,57,70.6
1716,E-4,241.25,0.25,44,70.6
1717,C4,241.5,0.25,45,70.6
1718,F#3,241.75,229/1000,43,70.6
1719,G3,242.0,0.25,62,70.6
1720,F4,242.0,1.0,50,70.6
1721,D5,242.0,1.0,50,70.6
1722,F5,242.0,1.0,50,70.6
1723,E-4,242.25,0.25,47,70.6
1724,C4,242.5,0.25,48,70.6
1725,G3,242.75,0.25,47,70.6
1726,G#3,243.0,0.25,58,70.6
1727,E-4,243.0,1.0,50,70.6
1728,C5,243.0,1.0,50,70.6
1729,E-5,243.0,1.0,50,70.6
1730,G4,243.0,1.0,50,70.6
1731,E-4,243.25,0.25,52,70.6
1732,C4,243.5,0.25,57,70.6
1733,E-4,243.75,0.25,58,70.6
1734,G#4,244.0,1.0,68,70.6
1735,D5,244.0,1.0,68,70.6
1736,C#4,244.0,333/1000,32,70.6
1737,C#3,244.0,333/1000,32,70.6
1738,G#3,244.333,333/1000,27,70.6
1739,E3,244.667,333/1000,27,70.6
1740,A4,245.0,1.0,63,70.6
1741,C5,245.0,1.0,74,70.6
1742,C#3,245.0,333/1000,32,70.6
1743,C#4,245.333,333/1000,27,70.6
1744,G#3,245.667,333/1000,27,70.6
1745,G4,246.0,1.0,64,70.6
1746,C5,246.0,1.0,74,70.6
1747,E-3,246.0,333/1000,32,70.6
1748,C4,246.333,333/1000,27,70.6
1749,G#3,246.667,333/1000,27,70.6
1750,E3,247.0,333/1000,33,70.6
1751,F#4,247.0,0.5,76,70.6
1752,C5,247.0,0.5,76,70.6
1753,C#4,247.333,333/1000,27,70.6
1754,G#5,247.5,0.5,82,70.6
1755,G#3,247.667,333/1000,29,70.6
1756,F#3,248.0,333/1000,32,70.6
1757,G#5,248.0,2.0,41,70.6
1758,E5,248.0,2.0,41,70.6
1759,G#4,248.0,2.0,41,70.6
1760,E-4,248.333,333/1000,29,70.6
1761,A3,248.667,333/1000,29,70.6
1762,G3,249.0,333/1000,34,70.6
1763,E4,249.333,333/1000,31,70.6
1764,C#4,249.667,333/1000,30,70.6
1765,G#3,250.0,333/1000,37,70.6
1766,F#4,250.0,1.0,32,70.6
1767,E-5,250.0,1.0,32,70.6
1768,F#5,250.0,1.0,32,70.6
1769,E4,250.333,333/1000,32,70.6
1770,C#4,250.667,333/1000,32,70.6
1771,G#3,251.0,0.25,39,70.6
1772,G#4,251.0,1.0,28,70.6
1773,C#5,251.0,1.0,28,70.6
1774,E5,251.0,1.0,28,70.6
1775,E-4,251.25,0.25,32,70.6
1776,C4,251.5,0.25,34,70.6
1777,E-4,251.75,0.25,32,70.6
1778,A4,252.0,1.0,39,70.6
1779,E-5,252.0,1.0,39,70.6
1780,C#3,252.0,0.25,38,70.6
1781,C#4,252.0,0.25,38,70.6
1782,G#3,252.25,0.25,32,70.6
1783,F3,252.5,0.25,32,70.6
1784,G#3,252.75,0.25,30,70.6
1785,C#5,253.0,1.0,35,70.6
1786,B-4,253.0,1.0,29,70.6
1787,C#3,253.0,0.25,38,70.6
1788,C#4,253.25,0.25,33,70.6
1789,G#3,253.5,0.25,34,70.6
1790,C#3,253.75,0.25,32,70.6
1791,G#4,254.0,1.0,33,70.6
1792,C#5,254.0,1.0,35,70.6
1793,E-3,254.0,0.25,45,70.6
1794,C4,254.25,0.25,36,70.6
1795,G#3,254.5,0.25,36,70.6
1796,E-3,254.75,0.25,33,70.6
1797,C5,255.0,0.5,56,70.6
1798,G#4,255.0,1.0,34,70.6
1799,F3,255.0,0.25,43,70.6
1800,C#4,255.25,0.25,39,70.6
1801,G#5,255.5,0.5,60,70.6
1802,G#3,255.5,0.25,39,70.6
1803,F3,255.75,0.25,37,70.6
1804,F#3,256.0,0.25,56,70.6
1805,G#4,256.0,2.0,54,70.6
1806,F5,256.0,2.0,54,70.6
1807,G#5,256.0,2.0,54,70.6
1808,C#4,256.25,0.25,42,70.6
1809,A3,256.5,0.25,42,70.6
1810,F#3,256.75,229/1000,39,70.6
1811,F#3,257.0,0.25,57,70.6
1812,C#4,257.25,0.25,44,70.6
1813,A3,257.5,0.25,45,70.6
1814,F#3,257.75,229/1000,43,70.6
1815,F#3,258.0,0.25,62,70.6
1816,F#4,258.0,1.0,50,70.6
1817,E-5,258.0,1.0,50,70.6
1818,F#5,258.0,1.0,50,70.6
1819,C#4,258.25,0.25,47,70.6
1820,A3,258.5,0.25,48,70.6
1821,F#3,258.75,0.25,47,70.6
1822,E3,259.0,0.25,58,70.6
1823,F4,259.0,1.0,50,70.6
1824,C#5,259.0,1.0,50,70.6
1825,F5,259.0,1.0,50,70.6
1826,G#4,259.0,1.0,50,70.6
1827,C#4,259.25,0.25,52,70.6
1828,A3,259.5,0.25,57,70.6
1829,E3,259.75,0.25,57,70.6
1830,A4,260.0,1.0,68,70.6
1831,E-5,260.0,1.0,68,70.6
1832,E-3,260.0,0.5,77,70.6
1833,B3,260.0,0.5,77,70.6
1834,A3,260.5,0.25,69,70.6
1835,C4,260.75,0.25,57,70.6
1836,A4,261.0,1.0,63,70.6
1837,C#5,261.0,1.0,74,70.6
1838,B3,261.0,0.25,41,70.6
1839,B-3,261.25,0.25,37,70.6
1840,B3,261.5,0.25,41,70.6
1841,F#3,261.75,0.25,35,70.6
1842,C5,262.0,1.0,64,70.6
1843,A4,262.0,1.0,63,70.6
1844,E-3,262.0,0.25,41,70.6
1845,C#3,262.25,0.25,37,70.6
1846,E-3,262.5,0.25,41,70.6
1847,B2,262.75,0.25,40,70.6
1848,E-3,263.0,0.125,49,70.6
1849,C#5,263.0,0.5,82,70.6
1850,A4,263.0,0.5,82,70.6
1851,F#3,263.5,0.125,41,70.6
1852,F#5,263.5,0.5,87,70.6
1853,A5,263.5,0.5,87,70.6
1854,A4,264.0,2.0,92,70.6
1855,F#5,264.0,2.0,92,70.6
1856,A5,264.0,2.0,92,70.6
1857,A3,264.5,0.25,69,70.6
1858,C4,264.75,0.25,57,70.6
1859,B3,265.0,0.25,41,70.6
1860,B-3,265.25,0.25,37,70.6
1861,B3,265.5,0.25,41,70.6
1862,F#3,265.75,0.25,35,70.6
1863,E-3,266.0,0.25,41,70.6
1864,C#3,266.25,0.25,37,70.6
1865,E-3,266.5,0.25,41,70.6
1866,B2,266.75,0.25,40,70.6
1867,E-3,267.0,0.125,49,70.6
1868,F#3,267.5,0.125,41,70.6
1869,A4,268.0,2.0,92,70.6
1870,F#5,268.0,2.0,92,70.6
1871,A5,268.0,2.0,92,70.6
1872,A3,268.5,0.25,69,70.6
1873,C4,268.75,0.25,57,70.6
1874,B3,269.0,0.25,41,70.6
1875,B-3,269.25,0.25,37,70.6
1876,B3,269.5,0.25,41,70.6
1877,F#3,269.75,0.25,35,70.6
1878,E-3,270.0,0.25,41,70.6
1879,E-5,270.0,2.0,91,70.6
1880,F#5,270.0,2.0,91,70.6
1881,A5,270.0,2.0,91,70.6
1882,E-6,270.0,2.0,91,70.6
1883,C#3,270.25,0.25,37,70.6
1884,E-3,270.5,0.25,41,70.6
1885,B2,270.75,0.25,40,70.6
1886,E-3,271.0,0.25,49,70.6
1887,C#3,271.25,0.25,47,70.6
1888,E-3,271.5,0.25,49,70.6
1889,F#3,271.75,0.25,50,70.6
1890,A3,272.0,0.25,58,70.6
1891,E-3,272.5,0.5,26,70.6
1892,F#3,273.0,0.5,30,70.6
1893,B3,273.5,0.5,29,70.6
1894,A3,274.0,0.25,58,70.6
1895,E-5,274.0,2.0,91,70.6
1896,F#5,274.0,2.0,91,70.6
1897,A5,274.0,2.0,91,70.6
1898,E-6,274.0,2.0,91,70.6
1899,E-3,274.5,0.5,26,70.6
1900,F#3,275.0,0.5,30,70.6
1901,B3,275.5,0.5,29,70.6
1902,A3,276.0,0.25,58,70.6
1903,E-6,276.0,2.0,91,70.6
1904,F#5,276.0,2.0,91,70.6
1905,A5,276.0,2.0,91,70.6
1906,F#6,276.0,2.0,91,70.6
1907,E-3,276.5,0.5,26,70.6
1908,F#3,277.0,0.5,30,70.6
1909,B3,277.5,0.5,29,70.6
1910,B3,278.0,0.25,29,70.6
1911,A3,278.25,0.25,27,70.6
1912,B3,278.5,0.25,30,70.6
1913,A3,278.75,0.25,26,70.6
1914,G#3,279.0,0.25,30,70.6
1915,A3,279.25,0.25,25,70.6
1916,G#3,279.5,0.25,30,70.6
1917,F#3,279.75,0.25,26,70.6
1918,E-6,280.0,2.0,91,70.6
1919,F#5,280.0,2.0,91,70.6
1920,A5,280.0,2.0,91,70.6
1921,F#6,280.0,2.0,91,70.6
1922,E2,280.0,0.5,28,70.6
1923,E3,280.0,0.5,28,70.6
1924,F#5,282.0,0.25,68,70.6
1925,B1,282.0,0.5,28,70.6
1926,B2,282.0,0.5,28,70.6
1927,A4,282.5,0.25,39,70.6
1928,C5,282.75,0.25,32,70.6
1929,B4,283.0,0.25,40,70.6
1930,B-4,283.25,0.25,37,70.6
1931,B4,283.5,0.25,41,70.6
1932,G#4,283.75,0.25,35,70.6
1933,F#5,284.0,0.25,68,70.6
1934,C#2,284.0,0.5,28,70.6
1935,C#3,284.0,0.5,28,70.6
1936,A4,284.5,0.25,39,70.6
1937,C5,284.75,0.25,32,70.6
1938,B4,285.0,0.25,40,70.6
1939,E-3,285.0,0.5,26,70.6
1940,E-2,285.0,0.5,26,70.6
1941,B-4,285.25,0.25,37,70.6
1942,B4,285.5,0.25,41,70.6
1943,B2,285.5,0.5,24,70.6
1944,B1,285.5,0.5,24,70.6
1945,G#4,285.75,0.25,35,70.6
1946,F#5,286.0,0.25,68,70.6
1947,E2,286.0,0.25,28,70.6
1948,E3,286.0,0.25,28,70.6
1949,G#3,286.25,0.25,25,70.6
1950,A4,286.5,0.25,39,70.6
1951,B3,286.5,0.25,28,70.6
1952,C5,286.75,0.25,32,70.6
1953,A3,286.75,0.25,26,70.6
1954,B4,287.0,0.25,40,70.6
1955,G#3,287.0,0.25,28,70.6
1956,B-4,287.25,0.25,37,70.6
1957,A3,287.25,0.25,25,70.6
1958,B4,287.5,0.25,41,70.6
1959,G#3,287.5,0.25,30,70.6
1960,A4,287.75,0.25,35,70.6
1961,F#3,287.75,0.25,27,70.6
1962,G#4,288.0,0.25,40,70.6
1963,E3,288.0,0.25,37,70.6
1964,F#4,288.25,0.25,31,70.6
1965,B3,288.25,0.25,28,70.6
1966,G#4,288.5,0.25,35,70.6
1967,B2,288.5,0.25,34,70.6
1968,F#4,288.75,0.25,30,70.6
1969,B3,288.75,0.25,28,70.6
1970,E4,289.0,0.25,37,70.6
1971,E3,289.0,0.25,33,70.6
1972,E-4,289.25,0.25,29,70.6
1973,B3,289.25,0.25,29,70.6
1974,E4,289.5,0.25,29,70.6
1975,B2,289.5,0.25,30,70.6
1976,F#4,289.75,0.25,29,70.6
1977,B3,289.75,0.25,29,70.6
1978,G#4,290.0,1.0,42,70.6
1979,E4,290.0,0.25,31,70.6
1980,E-3,290.0,0.25,37,70.6
1981,B3,290.25,0.25,26,70.6
1982,B3,290.25,0.25,28,70.6
1983,E4,290.5,0.25,31,70.6
1984,B2,290.5,0.25,29,70.6
1985,B3,290.75,0.25,26,70.6
1986,B3,290.75,0.188,27,70.6
1987,B4,291.0,0.5,45,70.6
1988,G#4,291.0,0.25,45,70.6
1989,E-3,291.0,0.25,29,70.6
1990,B3,291.25,0.25,27,70.6
1991,B3,291.25,0.25,28,70.6
1992,A4,291.5,0.5,40,70.6
1993,F#4,291.5,0.25,40,70.6
1994,F3,291.5,0.25,31,70.6
1995,B3,291.75,0.25,27,70.6
1996,B3,291.75,0.25,33,70.6
1997,E4,292.0,0.25,34,70.6
1998,G#4,292.0,0.5,50,70.6
1999,F#3,292.0,0.25,36,70.6
2000,B3,292.25,0.25,26,70.6
2001,B3,292.25,0.25,35,70.6
2002,E-4,292.5,0.25,27,70.6
2003,F#4,292.5,0.438,41,70.6
2004,A3,292.5,0.25,41,70.6
2005,B3,292.75,0.188,25,70.6
2006,B3,292.75,0.25,36,70.6
2007,E-4,293.0,0.25,27,70.6
2008,F#4,293.0,0.5,41,70.6
2009,G#3,293.0,0.25,37,70.6
2010,B3,293.25,0.25,26,70.6
2011,B3,293.25,0.25,31,70.6
2012,E4,293.5,0.25,28,70.6
2013,G#4,293.5,0.5,43,70.6
2014,B2,293.5,0.25,25,70.6
2015,F#3,293.5,0.25,25,70.6
2016,B3,293.75,0.25,28,70.6
2017,A3,293.75,0.25,27,70.6
2018,E4,294.0,0.25,30,70.6
2019,A4,294.0,0.5,46,70.6
2020,E3,294.0,0.25,31,70.6
2021,G#3,294.0,0.25,31,70.6
2022,B3,294.25,0.25,28,70.6
2023,B3,294.25,0.25,23,70.6
2024,E4,294.5,0.25,36,70.6
2025,C#5,294.5,0.5,54,70.6
2026,G#3,294.5,0.25,31,70.6
2027,B3,294.75,0.25,31,70.6
2028,E3,294.75,0.25,25,70.6
2029,F#4,295.0,0.25,37,70.6
2030,B4,295.0,0.5,47,70.6
2031,E-3,295.0,0.25,31,70.6
2032,B3,295.25,0.25,26,70.6
2033,B3,295.25,0.25,27,70.6
2034,E-4,295.5,0.25,25,70.6
2035,F#4,295.5,0.5,38,70.6
2036,F#3,295.5,0.25,31,70.6
2037,B3,295.75,0.25,27,70.6
2038,E-3,295.75,0.25,32,70.6
2039,C#3,296.0,0.25,38,70.6
2040,B3,296.0,1.0,37,70.6
2041,E4,296.0,1.0,37,70.6
2042,G#4,296.0,1.0,37,70.6
2043,B-3,296.25,0.25,29,70.6
2044,F#3,296.5,0.25,31,70.6
2045,C#3,296.75,0.25,27,70.6
2046,F#2,297.0,0.25,31,70.6
2047,B-3,297.25,0.25,26,70.6
2048,E5,297.5,0.25,47,70.6
2049,F#3,297.5,0.25,29,70.6
2050,F#5,297.75,0.25,42,70.6
2051,C#3,297.75,0.25,27,70.6
2052,B2,298.0,0.25,31,70.6
2053,G#4,298.0,1.0,55,70.6
2054,G#5,298.0,1.0,55,70.6
2055,B3,298.25,0.25,25,70.6
2056,F#3,298.5,0.25,30,70.6
2057,E-3,298.75,0.25,27,70.6
2058,B2,299.0,0.25,37,70.6
2059,B4,299.0,0.5,50,70.6
2060,B5,299.0,0.5,50,70.6
2061,B3,299.25,0.25,30,70.6
2062,C#3,299.5,0.25,37,70.6
2063,A4,299.5,0.5,47,70.6
2064,A5,299.5,0.5,47,70.6
2065,A3,299.75,0.25,33,70.6
2066,B2,300.0,0.25,31,70.6
2067,G#4,300.0,0.5,55,70.6
2068,G#5,300.0,0.5,55,70.6
2069,G#3,300.25,0.25,36,70.6
2070,E3,300.5,0.25,39,70.6
2071,F#4,300.5,0.438,45,70.6
2072,F#5,300.5,0.438,45,70.6
2073,B2,300.75,0.25,45,70.6
2074,E2,301.0,0.25,47,70.6
2075,F#4,301.0,0.5,45,70.6
2076,F#5,301.0,0.5,45,70.6
2077,G#3,301.25,0.25,32,70.6
2078,E3,301.5,0.25,36,70.6
2079,G#4,301.5,0.5,49,70.6
2080,G#5,301.5,0.5,49,70.6
2081,B2,301.75,0.25,29,70.6
2082,A2,302.0,0.25,35,70.6
2083,A4,302.0,0.5,52,70.6
2084,A5,302.0,0.5,52,70.6
2085,A3,302.25,0.25,27,70.6
2086,E3,302.5,0.25,31,70.6
2087,C#5,302.5,0.5,55,70.6
2088,C#6,302.5,0.5,55,70.6
2089,C#3,302.75,0.25,27,70.6
2090,A2,303.0,0.25,31,70.6
2091,B4,303.0,0.5,51,70.6
2092,B5,303.0,0.5,51,70.6
2093,E3,303.25,0.25,29,70.6
2094,A2,303.5,0.25,34,70.6
2095,E-6,303.5,0.5,40,70.6
2096,E-5,303.5,0.5,40,70.6
2097,E3,303.75,0.25,38,70.6
2098,A2,304.0,0.25,39,70.6
2099,E6,304.0,1.0,46,70.6
2100,E5,304.0,1.0,46,70.6
2101,E3,304.25,0.25,35,70.6
2102,A2,304.5,0.25,38,70.6
2103,E3,304.75,0.25,35,70.6
2104,A2,305.0,0.25,44,70.6
2105,E3,305.25,0.25,36,70.6
2106,B4,305.5,0.5,47,70.6
2107,B2,305.5,0.25,44,70.6
2108,E3,305.75,0.25,37,70.6
2109,B-4,306.0,1.0,51,70.6
2110,C#3,306.0,0.25,55,70.6
2111,E3,306.25,0.25,48,70.6
2112,C#3,306.5,0.25,54,70.6
2113,E3,306.75,0.25,43,70.6
2114,E5,307.0,1.0,56,70.6
2115,C3,307.0,0.25,50,70.6
2116,E3,307.25,0.25,39,70.6
2117,C3,307.5,0.25,49,70.6
2118,E3,307.75,0.25,39,70.6
2119,E-5,308.0,1.5,51,70.6
2120,B2,308.0,0.25,31,70.6
2121,F#3,308.25,0.25,27,70.6
2122,B2,308.5,0.25,31,70.6
2123,F#3,308.75,0.25,29,70.6
2124,A3,308.75,0.25,29,70.6
2125,B2,309.0,0.25,31,70.6
2126,F#3,309.25,0.25,27,70.6
2127,A3,309.25,0.25,27,70.6
2128,A4,309.5,0.5,45,70.6
2129,B2,309.5,0.25,31,70.6
2130,A3,309.75,0.25,28,70.6
2131,F#3,309.75,0.25,28,70.6
2132,G#4,310.0,1.0,51,70.6
2133,E3,310.0,0.25,31,70.6
2134,G#3,310.0,0.25,31,70.6
2135,B3,310.25,0.25,23,70.6
2136,G#3,310.5,0.25,31,70.6
2137,E3,310.75,0.25,25,70.6
2138,D5,311.0,1.0,54,70.6
2139,E-3,311.0,0.25,31,70.6
2140,B3,311.25,0.25,27,70.6
2141,F#3,311.5,0.25,31,70.6
2142,E-3,311.75,0.25,32,70.6
2143,C#5,312.0,1.5,51,70.6
2144,C#3,312.0,0.25,38,70.6
2145,B-3,312.25,0.25,37,70.6
2146,F#3,312.5,0.25,40,70.6
2147,C#3,312.75,0.25,43,70.6
2148,F#2,313.0,0.25,44,70.6
2149,B-3,313.25,0.25,33,70.6
2150,C#5,313.5,0.5,48,70.6
2151,F#3,313.5,0.25,39,70.6
2152,C#3,313.75,0.25,27,70.6
2153,C5,314.0,0.5,57,70.6
2154,B2,314.0,0.25,31,70.6
2155,B3,314.25,0.25,25,70.6
2156,C#5,314.5,0.5,58,70.6
2157,F#3,314.5,0.25,30,70.6
2158,E-3,314.75,0.25,27,70.6
2159,B2,315.0,0.25,37,70.6
2160,A4,315.0,0.375,49,70.6
2161,E4,315.0,0.375,49,70.6
2162,C#4,315.0,0.375,49,70.6
2163,B3,315.25,0.25,30,70.6
2164,C#3,315.5,0.25,37,70.6
2165,G#4,315.5,0.375,49,70.6
2166,E4,315.5,0.375,49,70.6
2167,B3,315.5,0.375,49,70.6
2168,A3,315.75,0.25,33,70.6
2169,G#4,316.0,0.5,76,70.6
2170,B2,316.0,0.25,31,70.6
2171,E4,316.0,1.0,64,70.6
2172,B-3,316.0,1.0,64,70.6
2173,G#3,316.25,0.25,29,70.6
2174,F#4,316.5,979/1000,62,70.6
2175,E3,316.5,0.25,38,70.6
2176,B2,316.75,0.25,38,70.6
2177,E2,317.0,0.25,46,70.6
2178,E4,317.0,1.0,63,70.6
2179,A3,317.0,1.0,63,70.6
2180,G#3,317.25,0.25,32,70.6
2181,F#4,317.5,479/1000,67,70.6
2182,E3,317.5,0.25,36,70.6
2183,B2,317.75,0.25,29,70.6
2184,A2,318.0,0.25,35,70.6
2185,F#4,318.0,0.5,44,70.6
2186,E-4,318.0,0.5,44,70.6
2187,A3,318.0,0.5,44,70.6
2188,A3,318.25,0.25,27,70.6
2189,B4,318.5,0.5,38,70.6
2190,E-4,318.5,1.0,32,70.6
2191,E3,318.5,0.25,31,70.6
2192,C#3,318.75,0.25,27,70.6
2193,B-4,319.0,0.5,46,70.6
2194,A2,319.0,0.25,31,70.6
2195,E3,319.25,0.25,29,70.6
2196,A2,319.5,0.25,34,70.6
2197,B4,319.5,0.5,37,70.6
2198,E-4,319.5,0.5,37,70.6
2199,E3,319.75,0.25,38,70.6
2200,E4,320.0,1.0,51,70.6
2201,A2,320.0,0.25,39,70.6
2202,E3,320.25,0.25,35,70.6
2203,A2,320.5,0.25,38,70.6
2204,E3,320.75,0.25,35,70.6
2205,C#3,321.0,0.25,40,70.6
2206,A2,321.0,0.25,40,70.6
2207,E3,321.25,0.25,36,70.6
2208,B5,321.5,0.5,47,70.6
2209,B4,321.5,0.5,47,70.6
2210,E3,321.5,0.25,40,70.6
2211,B2,321.5,0.25,40,70.6
2212,G#3,321.75,0.25,37,70.6
2213,B-5,322.0,1.0,51,70.6
2214,B-4,322.0,1.0,51,70.6
2215,E3,322.0,0.25,51,70.6
2216,C#3,322.0,0.25,51,70.6
2217,B-3,322.25,0.25,48,70.6
2218,E3,322.5,0.25,50,70.6
2219,C#3,322.5,0.25,50,70.6
2220,B-3,322.75,0.25,43,70.6
2221,E6,323.0,1.0,61,70.6
2222,E5,323.0,1.0,61,70.6
2223,E3,323.0,0.25,46,70.6
2224,C3,323.0,0.25,46,70.6
2225,A3,323.25,0.25,39,70.6
2226,E3,323.5,0.25,45,70.6
2227,C3,323.5,0.25,45,70.6
2228,A3,323.75,0.25,39,70.6
2229,E-6,324.0,1.5,56,70.6
2230,E-5,324.0,1.5,56,70.6
2231,E-3,324.0,0.25,28,70.6
2232,B2,324.0,0.25,28,70.6
2233,A3,324.25,0.25,27,70.6
2234,E-3,324.5,0.25,28,70.6
2235,B2,324.5,0.25,28,70.6
2236,A3,324.75,0.25,29,70.6
2237,E-3,325.0,0.25,28,70.6
2238,B2,325.0,0.25,28,70.6
2239,A3,325.25,0.25,27,70.6
2240,A5,325.5,0.5,49,70.6
2241,A4,325.5,0.5,49,70.6
2242,E-3,325.5,0.25,28,70.6
2243,B2,325.5,0.25,28,70.6
2244,A3,325.75,0.25,28,70.6
2245,G#5,326.0,1.0,56,70.6
2246,G#4,326.0,1.0,56,70.6
2247,E3,326.0,0.25,31,70.6
2248,G#3,326.0,0.25,31,70.6
2249,E3,326.25,0.25,31,70.6
2250,E-3,326.5,0.25,31,70.6
2251,C#3,326.75,0.25,31,70.6
2252,B2,327.0,0.25,31,70.6
2253,D6,327.0,1.0,59,70.6
2254,D5,327.0,1.0,59,70.6
2255,A2,327.25,0.25,30,70.6
2256,G#2,327.5,0.25,25,70.6
2257,F#2,327.75,0.25,25,70.6
2258,E2,328.0,0.5,25,70.6
2259,C#6,328.0,1.5,56,70.6
2260,C#5,328.0,1.5,56,70.6
2261,C#6,329.5,0.5,48,70.6
2262,C#5,329.5,0.5,48,70.6
2263,B1,330.0,0.5,25,70.6
2264,C6,330.0,0.5,57,70.6
2265,C5,330.0,0.5,57,70.6
2266,C#6,330.5,0.5,58,70.6
2267,C#5,330.5,0.5,58,70.6
2268,A5,331.0,0.375,55,70.6
2269,A4,331.0,0.375,55,70.6
2270,G#5,331.5,0.375,55,70.6
2271,G#4,331.5,0.375,55,70.6
2272,C#2,332.0,0.5,25,70.6
2273,G#5,332.0,0.5,72,70.6
2274,G#4,332.0,0.5,72,70.6
2275,F#5,332.5,99/100,62,70.6
2276,F#4,332.5,99/100,62,70.6
2277,E-2,333.0,0.5,23,70.6
2278,B1,333.5,0.5,22,70.6
2279,F#5,333.5,19/40,67,70.6
2280,F#4,333.5,19/40,67,70.6
2281,E2,334.0,0.5,28,70.6
2282,F#5,334.0,0.5,49,70.6
2283,F#4,334.0,0.5,49,70.6
2284,E4,334.5,0.25,28,70.6
2285,B5,334.5,0.5,38,70.6
2286,B4,334.5,0.5,38,70.6
2287,B3,334.75,0.25,22,70.6
2288,E4,335.0,0.25,28,70.6
2289,B-5,335.0,0.5,46,70.6
2290,B-4,335.0,0.5,46,70.6
2291,B3,335.25,0.25,24,70.6
2292,E4,335.5,0.25,28,70.6
2293,B5,335.5,0.5,40,70.6
2294,B4,335.5,0.5,40,70.6
2295,B3,335.75,0.25,25,70.6
2296,E4,336.0,0.25,30,70.6
2297,E5,336.0,1.0,51,70.6
2298,E4,336.0,1.0,51,70.6
2299,B3,336.25,0.25,29,70.6
2300,E4,336.5,0.25,32,70.6
2301,B3,336.75,0.25,31,70.6
2302,G#4,337.0,0.25,35,70.6
2303,B3,337.25,0.25,32,70.6
2304,E4,337.5,0.25,43,70.6
2305,F#4,337.5,0.25,39,70.6
2306,F#4,337.75,0.25,39,70.6
2307,B3,337.75,0.25,36,70.6
2308,E4,338.0,0.25,34,70.6
2309,G#4,338.0,1.0,50,70.6
2310,E4,338.0,0.25,49,70.6
2311,B3,338.25,0.25,26,70.6
2312,B3,338.25,0.25,41,70.6
2313,E4,338.5,0.25,31,70.6
2314,E-4,338.5,0.25,48,70.6
2315,B3,338.75,0.25,26,70.6
2316,B3,338.75,0.25,42,70.6
2317,G#4,339.0,0.25,30,70.6
2318,B4,339.0,0.5,46,70.6
2319,E-4,339.0,0.25,46,70.6
2320,B3,339.25,0.25,27,70.6
2321,B3,339.25,0.25,39,70.6
2322,F#4,339.5,0.25,28,70.6
2323,A4,339.5,0.5,43,70.6
2324,F4,339.5,0.25,49,70.6
2325,B3,339.75,0.25,27,70.6
2326,B3,339.75,0.25,44,70.6
2327,E4,340.0,0.25,34,70.6
2328,G#4,340.0,0.5,50,70.6
2329,F#4,340.0,0.25,58,70.6
2330,B3,340.25,0.25,26,70.6
2331,B3,340.25,0.25,48,70.6
2332,E-4,340.5,0.25,27,70.6
2333,F#4,340.5,0.438,41,70.6
2334,A4,340.5,0.25,53,70.6
2335,B3,340.75,0.188,25,70.6
2336,B3,340.75,0.25,47,70.6
2337,E-4,341.0,0.25,27,70.6
2338,F#4,341.0,0.5,41,70.6
2339,G#4,341.0,0.25,57,70.6
2340,B3,341.25,0.25,26,70.6
2341,B3,341.25,0.25,44,70.6
2342,E4,341.5,0.25,28,70.6
2343,G#4,341.5,0.5,43,70.6
2344,F#4,341.5,0.25,54,70.6
2345,B3,341.75,0.25,28,70.6
2346,B3,341.75,0.25,46,70.6
2347,E4,342.0,0.25,30,70.6
2348,A4,342.0,0.5,46,70.6
2349,E4,342.0,0.25,59,70.6
2350,B3,342.25,0.25,28,70.6
2351,B3,342.25,0.25,49,70.6
2352,E4,342.5,0.25,36,70.6
2353,C#5,342.5,0.5,54,70.6
2354,G#3,342.5,0.25,58,70.6
2355,B3,342.75,0.25,31,70.6
2356,B3,342.75,0.25,50,70.6
2357,F#4,343.0,0.25,37,70.6
2358,B4,343.0,0.5,47,70.6
2359,E3,343.0,0.5,59,70.6
2360,B3,343.25,0.25,26,70.6
2361,E-4,343.5,0.25,25,70.6
2362,F#4,343.5,0.5,38,70.6
2363,B3,343.75,0.25,27,70.6
2364,C#4,344.0,0.25,67,70.6
2365,B3,344.0,0.5,37,70.6
2366,E4,344.0,0.5,37,70.6
2367,G#4,344.0,0.5,37,70.6
2368,G#3,344.25,0.25,57,70.6
2369,E3,344.5,0.25,62,70.6
2370,G#3,344.75,0.25,57,70.6
2371,F#5,344.938,0.062,42,70.6
2372,E5,345.0,0.25,47,70.6
2373,C#3,345.0,0.5,70,70.6
2374,E-5,345.25,0.25,42,70.6
2375,E5,345.5,0.25,48,70.6
2376,C#4,345.5,0.25,26,70.6
2377,F#5,345.75,0.188,43,70.6
2378,A5,345.938,0.062,50,70.6
2379,G#5,346.0,0.25,55,70.6
2380,C4,346.0,0.25,33,70.6
2381,F#5,346.25,0.25,50,70.6
2382,G#3,346.25,0.25,27,70.6
2383,G#5,346.5,0.25,52,70.6
2384,E-3,346.5,0.25,33,70.6
2385,A5,346.75,0.25,54,70.6
2386,G#3,346.75,0.25,27,70.6
2387,C3,347.0,0.5,36,70.6
2388,B4,347.0,0.5,49,70.6
2389,B5,347.0,0.5,49,70.6
2390,C4,347.5,0.25,77,70.6
2391,A5,347.5,0.5,49,70.6
2392,A4,347.5,0.5,49,70.6
2393,B3,348.0,0.25,67,70.6
2394,G#5,348.0,0.5,58,70.6
2395,G#4,348.0,0.5,58,70.6
2396,G#3,348.25,0.25,57,70.6
2397,E3,348.5,0.25,62,70.6
2398,F#4,348.5,19/40,56,70.6
2399,F#5,348.5,19/40,56,70.6
2400,G#3,348.75,0.25,57,70.6
2401,B2,349.0,0.5,70,70.6
2402,F#4,349.0,0.5,64,70.6
2403,F#5,349.0,0.5,64,70.6
2404,B3,349.5,0.25,26,70.6
2405,G#5,349.5,0.5,59,70.6
2406,G#4,349.5,0.5,59,70.6
2407,A3,350.0,0.25,33,70.6
2408,A4,350.0,0.5,71,70.6
2409,A5,350.0,0.5,71,70.6
2410,E3,350.25,0.25,27,70.6
2411,C#3,350.5,0.25,33,70.6
2412,C#6,350.5,0.5,62,70.6
2413,C#5,350.5,0.5,62,70.6
2414,E3,350.75,0.25,27,70.6
2415,A2,351.0,0.5,36,70.6
2416,B5,351.0,0.5,74,70.6
2417,B4,351.0,0.5,74,70.6
2418,A3,351.5,0.25,83,70.6
2419,E-5,351.5,0.375,74,70.6
2420,A5,351.5,0.375,74,70.6
2421,E-6,351.5,0.375,74,70.6
2422,G#3,352.0,0.25,67,70.6
2423,E5,352.0,1.0,78,70.6
2424,G#5,352.0,1.0,78,70.6
2425,E6,352.0,1.0,78,70.6
2426,F3,352.25,0.25,57,70.6
2427,C#3,352.5,0.25,62,70.6
2428,F3,352.75,0.25,57,70.6
2429,G#2,353.0,0.5,70,70.6
2430,G#3,353.5,0.25,26,70.6
2431,E4,353.5,0.25,80,70.6
2432,G#4,353.5,0.25,80,70.6
2433,F#3,354.0,0.25,33,70.6
2434,E4,354.0,1.5,88,70.6
2435,G#4,354.0,1.5,88,70.6
2436,C#3,354.25,0.25,27,70.6
2437,A2,354.5,0.25,33,70.6
2438,C#3,354.75,0.25,27,70.6
2439,F#2,355.0,0.5,36,70.6
2440,F#4,355.5,0.25,77,70.6
2441,E5,355.5,0.25,30,70.6
2442,G#4,355.5,0.25,30,70.6
2443,E4,355.5,0.25,30,70.6
2444,E-4,356.0,0.25,67,70.6
2445,E-5,356.0,1.5,34,70.6
2446,G#4,356.0,1.5,34,70.6
2447,F#4,356.0,1.5,34,70.6
2448,E-4,356.0,1.5,34,70.6
2449,B3,356.25,0.25,57,70.6
2450,F#3,356.5,0.25,62,70.6
2451,B3,356.75,0.25,57,70.6
2452,E-3,357.0,0.5,70,70.6
2453,E-3,357.5,0.25,77,70.6
2454,E-4,357.5,0.25,80,70.6
2455,G#4,357.5,0.25,80,70.6
2456,C3,358.0,0.25,67,70.6
2457,E4,358.0,1.5,86,70.6
2458,D4,358.0,1.5,86,70.6
2459,G#4,358.0,1.5,86,70.6
2460,A2,358.25,0.25,57,70.6
2461,E2,358.5,0.25,62,70.6
2462,A2,358.75,0.25,57,70.6
2463,C2,359.0,0.5,70,70.6
2464,D4,359.5,0.25,30,70.6
2465,D5,359.5,0.25,30,70.6
2466,E4,359.5,0.25,30,70.6
2467,C3,359.5,0.25,70,70.6
2468,C4,359.5,0.25,70,70.6
2469,C#5,360.0,1.5,35,70.6
2470,E4,360.0,1.5,35,70.6
2471,C#4,360.0,1.5,35,70.6
2472,B2,360.0,0.5,48,70.6
2473,B3,360.0,0.5,48,70.6
2474,B4,360.5,0.25,33,70.6
2475,C#5,360.75,0.25,27,70.6
2476,B4,361.0,0.25,33,70.6
2477,C#5,361.25,0.25,29,70.6
2478,C#4,361.5,0.25,87,70.6
2479,B4,361.5,0.25,33,70.6
2480,C#5,361.75,0.25,29,70.6
2481,B4,362.0,0.25,32,70.6
2482,B3,362.0,1.5,88,70.6
2483,C#4,362.0,1.5,88,70.6
2484,F#4,362.0,1.5,38,70.6
2485,E-4,362.0,1.5,38,70.6
2486,C#5,362.25,0.25,27,70.6
2487,B4,362.5,0.25,31,70.6
2488,C#5,362.75,0.25,26,70.6
2489,B4,363.0,0.25,38,70.6
2490,C#5,363.25,0.25,32,70.6
2491,B4,363.5,0.25,46,70.6
2492,B4,363.5,0.25,30,70.6
2493,C#4,363.5,0.25,30,70.6
2494,B3,363.5,0.25,30,70.6
2495,E4,363.5,9/20,46,70.6
2496,G#4,363.5,9/20,46,70.6
2497,C#5,363.75,0.25,36,70.6
2498,B4,364.0,0.25,52,70.6
2499,A4,364.0,1.5,35,70.6
2500,C#4,364.0,1.5,35,70.6
2501,A3,364.0,1.5,35,70.6
2502,E4,364.0,0.5,52,70.6
2503,G#4,364.0,0.5,52,70.6
2504,C#5,364.25,0.25,29,70.6
2505,B4,364.5,0.25,32,70.6
2506,A4,364.5,9/20,38,70.6
2507,F#4,364.5,9/20,38,70.6
2508,C#5,364.75,0.25,28,70.6
2509,B4,365.0,0.25,26,70.6
2510,F#4,365.0,0.5,30,70.6
2511,A4,365.0,0.5,30,70.6
2512,C#5,365.25,0.25,24,70.6
2513,B4,365.5,0.25,26,70.6
2514,C#5,365.5,0.25,78,70.6
2515,F#5,365.5,0.25,78,70.6
2516,A5,365.5,0.25,78,70.6
2517,E4,365.5,0.5,30,70.6
2518,G#4,365.5,0.5,30,70.6
2519,C#5,365.75,0.25,24,70.6
2520,B4,366.0,0.25,32,70.6
2521,F#5,366.0,1.5,86,70.6
2522,B4,366.0,1.5,86,70.6
2523,A5,366.0,1.5,86,70.6
2524,F#4,366.0,1.5,38,70.6
2525,E-4,366.0,1.5,38,70.6
2526,C#5,366.25,0.25,27,70.6
2527,B4,366.5,0.25,31,70.6
2528,C#5,366.75,0.25,26,70.6
2529,B4,367.0,0.25,32,70.6
2530,C#5,367.25,0.25,32,70.6
2531,B4,367.5,0.25,45,70.6
2532,F#4,367.5,0.25,80,70.6
2533,A4,367.5,0.25,80,70.6
2534,E4,367.5,9/20,45,70.6
2535,G#4,367.5,9/20,45,70.6
2536,C#5,367.75,0.25,41,70.6
2537,B4,368.0,0.25,37,70.6
2538,E4,368.0,1.5,88,70.6
2539,A4,368.0,1.5,88,70.6
2540,A4,368.0,0.5,43,70.6
2541,F#4,368.0,0.5,43,70.6
2542,C#5,368.25,0.25,29,70.6
2543,B4,368.5,0.25,32,70.6
2544,F#4,368.5,9/20,38,70.6
2545,E-4,368.5,9/20,38,70.6
2546,C#5,368.75,0.25,28,70.6
2547,B4,369.0,0.25,26,70.6
2548,E4,369.0,0.5,30,70.6
2549,G#4,369.0,0.5,30,70.6
2550,C#5,369.25,0.25,24,70.6
2551,B4,369.5,0.25,26,70.6
2552,A4,369.5,0.25,78,70.6
2553,E5,369.5,0.25,78,70.6
2554,A5,369.5,0.25,78,70.6
2555,F#4,369.5,0.5,30,70.6
2556,A4,369.5,0.5,30,70.6
2557,C#5,369.75,0.25,24,70.6
2558,G#4,370.0,0.5,28,70.6
2559,B4,370.0,0.25,33,70.6
2560,E-5,370.0,0.5,85,70.6
2561,F#5,370.0,0.5,85,70.6
2562,A4,370.0,0.5,85,70.6
2563,A5,370.0,0.5,85,70.6
2564,E5,370.25,0.25,27,70.6
2565,B4,370.5,0.25,31,70.6
2566,E5,370.75,0.25,27,70.6
2567,A4,371.0,0.25,33,70.6
2568,E5,371.25,0.25,26,70.6
2569,G#4,371.5,0.25,30,70.6
2570,E5,371.75,0.25,27,70.6
2571,A4,372.0,0.25,33,70.6
2572,A5,372.0,1.5,53,70.6
2573,F#6,372.0,1.5,53,70.6
2574,E5,372.25,0.25,26,70.6
2575,B4,372.5,0.25,31,70.6
2576,E5,372.75,0.25,25,70.6
2577,C#5,373.0,0.25,33,70.6
2578,E5,373.25,0.25,25,70.6
2579,B-4,373.5,0.25,30,70.6
2580,G#5,373.5,9/20,57,70.6
2581,E6,373.5,9/20,57,70.6
2582,E5,373.75,0.25,27,70.6
2583,B4,374.0,2.0,33,70.6
2584,E6,374.0,0.5,62,70.6
2585,G#5,374.0,0.5,62,70.6
2586,C#5,374.25,0.25,27,70.6
2587,E-5,374.5,0.25,32,70.6
2588,F#5,374.5,9/20,48,70.6
2589,E-6,374.5,9/20,48,70.6
2590,E5,374.75,0.25,26,70.6
2591,E-5,375.0,0.25,31,70.6
2592,E-6,375.0,0.5,47,70.6
2593,F#5,375.0,0.5,47,70.6
2594,E5,375.25,0.25,27,70.6
2595,F#5,375.5,0.25,29,70.6
2596,G#5,375.5,0.5,39,70.6
2597,E6,375.5,0.5,39,70.6
2598,G#5,375.75,0.25,27,70.6
2599,A5,376.0,1.5,53,70.6
2600,F#6,376.0,1.5,53,70.6
2601,E-5,376.0,0.5,33,70.6
2602,B4,376.0,0.5,33,70.6
2603,C#4,376.5,0.25,33,70.6
2604,B3,376.75,0.25,30,70.6
2605,C#4,377.0,0.25,33,70.6
2606,B3,377.25,0.25,29,70.6
2607,C#4,377.5,0.25,33,70.6
2608,G#5,377.5,9/20,57,70.6
2609,E6,377.5,9/20,57,70.6
2610,B3,377.75,0.25,33,70.6
2611,C#4,378.0,0.25,32,70.6
2612,E-6,378.0,0.5,62,70.6
2613,F#5,378.0,0.5,62,70.6
2614,F#3,378.0,1.5,38,70.6
2615,E-3,378.0,1.5,38,70.6
2616,B3,378.25,0.25,27,70.6
2617,C#4,378.5,0.25,31,70.6
2618,F#6,378.5,0.5,48,70.6
2619,A5,378.5,0.5,48,70.6
2620,B3,378.75,0.25,26,70.6
2621,C#4,379.0,0.25,32,70.6
2622,E6,379.0,0.5,47,70.6
2623,G#5,379.0,0.5,47,70.6
2624,B3,379.25,0.25,32,70.6
2625,C#4,379.5,0.25,33,70.6
2626,E-5,379.5,0.5,39,70.6
2627,F#5,379.5,0.5,39,70.6
2628,E-6,379.5,0.5,39,70.6
2629,G#3,379.5,9/20,38,70.6
2630,E3,379.5,9/20,38,70.6
2631,B3,379.75,0.25,36,70.6
2632,C#4,380.0,0.25,37,70.6
2633,E6,380.0,0.5,39,70.6
2634,E5,380.0,0.5,39,70.6
2635,G#3,380.0,0.5,43,70.6
2636,E3,380.0,0.5,43,70.6
2637,B3,380.25,0.25,29,70.6
2638,E-6,380.5,0.5,34,70.6
2639,C#4,380.5,0.25,32,70.6
2640,A3,380.5,9/20,38,70.6
2641,F#3,380.5,9/20,38,70.6
2642,B3,380.75,0.25,28,70.6
2643,C#6,381.0,0.5,39,70.6
2644,C#4,381.0,0.25,26,70.6
2645,F#3,381.0,0.5,30,70.6
2646,A3,381.0,0.5,30,70.6
2647,B3,381.25,0.25,24,70.6
2648,B5,381.5,0.5,35,70.6
2649,C#4,381.5,0.25,26,70.6
2650,E3,381.5,0.5,30,70.6
2651,G#3,381.5,0.5,30,70.6
2652,B3,381.75,0.25,24,70.6
2653,C#6,382.0,0.5,39,70.6
2654,C#4,382.0,0.25,32,70.6
2655,F#3,382.0,1.5,38,70.6
2656,E-3,382.0,1.5,38,70.6
2657,B3,382.25,0.25,27,70.6
2658,B5,382.5,0.5,37,70.6
2659,C#4,382.5,0.25,31,70.6
2660,B3,382.75,0.25,26,70.6
2661,A5,383.0,0.5,39,70.6
2662,C#4,383.0,0.25,32,70.6
2663,B3,383.25,0.25,32,70.6
2664,G#5,383.5,479/1000,34,70.6
2665,C#4,383.5,0.25,33,70.6
2666,G#3,383.5,9/20,38,70.6
2667,E3,383.5,9/20,38,70.6
2668,B3,383.75,0.25,36,70.6
2669,G#5,384.0,1.5,39,70.6
2670,A3,384.0,0.25,32,70.6
2671,F#3,384.0,0.5,39,70.6
2672,B3,384.25,0.25,29,70.6
2673,E-3,384.5,9/40,38,70.6
2674,B2,384.5,9/40,38,70.6
2675,B3,384.75,0.25,28,70.6
2676,C#3,385.0,0.25,30,70.6
2677,E3,385.0,0.25,30,70.6
2678,B3,385.25,0.25,24,70.6
2679,A5,385.5,0.25,38,70.6
2680,E-3,385.5,0.25,30,70.6
2681,F#3,385.5,0.25,30,70.6
2682,B5,385.75,0.25,33,70.6
2683,B3,385.75,0.25,24,70.6
2684,F#5,386.0,0.5,39,70.6
2685,G#3,386.0,0.25,36,70.6
2686,E3,386.0,0.25,36,70.6
2687,B3,386.25,0.25,28,70.6
2688,B4,386.5,0.25,39,70.6
2689,E3,386.5,9/40,36,70.6
2690,C#3,386.5,9/40,36,70.6
2691,C#5,386.75,0.25,34,70.6
2692,B3,386.75,0.25,27,70.6
2693,B4,387.0,0.25,39,70.6
2694,E-3,387.0,0.25,28,70.6
2695,F#3,387.0,0.25,28,70.6
2696,C#5,387.25,0.25,35,70.6
2697,B3,387.25,0.25,22,70.6
2698,B4,387.5,0.25,39,70.6
2699,E3,387.5,0.25,28,70.6
2700,G#3,387.5,0.25,28,70.6
2701,C#5,387.75,0.25,35,70.6
2702,B3,387.75,0.25,22,70.6
2703,B4,388.0,0.25,39,70.6
2704,F#5,388.0,1.5,53,70.6
2705,A5,388.0,1.5,53,70.6
2706,A3,388.0,0.25,32,70.6
2707,F#3,388.0,0.25,32,70.6
2708,C#5,388.25,0.25,35,70.6
2709,B3,388.25,0.25,26,70.6
2710,B4,388.5,0.25,39,70.6
2711,F#3,388.5,9/40,33,70.6
2712,E-3,388.5,9/40,33,70.6
2713,C#5,388.75,0.25,35,70.6
2714,B3,388.75,0.25,24,70.6
2715,B4,389.0,0.25,39,70.6
2716,E3,389.0,0.25,26,70.6
2717,G#3,389.0,0.25,26,70.6
2718,C#5,389.25,0.25,37,70.6
2719,B3,389.25,0.25,20,70.6
2720,B4,389.5,0.25,43,70.6
2721,G#5,389.5,9/20,57,70.6
2722,E5,389.5,9/20,57,70.6
2723,F#3,389.5,0.25,26,70.6
2724,A3,389.5,0.25,26,70.6
2725,C#5,389.75,0.25,41,70.6
2726,E-4,389.75,0.25,20,70.6
2727,B4,390.0,0.25,48,70.6
2728,G#3,390.0,0.25,26,70.6
2729,G#5,390.0,0.5,62,70.6
2730,E5,390.0,0.5,62,70.6
2731,C#5,390.25,0.25,42,70.6
2732,B3,390.25,0.25,24,70.6
2733,B4,390.5,0.25,46,70.6
2734,G#3,390.5,9/40,33,70.6
2735,E-5,390.5,9/20,48,70.6
2736,F#5,390.5,9/20,48,70.6
2737,C#5,390.75,0.25,40,70.6
2738,B3,390.75,0.25,22,70.6
2739,B4,391.0,0.25,44,70.6
2740,G#3,391.0,0.25,26,70.6
2741,F#5,391.0,0.5,47,70.6
2742,E-5,391.0,0.5,47,70.6
2743,C#5,391.25,0.25,38,70.6
2744,B3,391.25,0.25,18,70.6
2745,B4,391.5,0.25,41,70.6
2746,G#3,391.5,0.25,25,70.6
2747,G#5,391.5,0.5,39,70.6
2748,E5,391.5,0.5,39,70.6
2749,C#5,391.75,0.25,36,70.6
2750,B3,391.75,0.25,18,70.6
2751,B4,392.0,0.25,39,70.6
2752,A5,392.0,1.5,53,70.6
2753,F#5,392.0,1.5,53,70.6
2754,G#3,392.0,0.5,24,70.6
2755,B3,392.0,0.5,24,70.6
2756,C#5,392.25,0.25,36,70.6
2757,B4,392.5,0.25,41,70.6
2758,C#5,392.75,0.25,38,70.6
2759,B4,393.0,0.25,43,70.6
2760,C#5,393.25,0.25,40,70.6
2761,C#4,393.25,0.25,27,70.6
2762,B4,393.5,0.25,46,70.6
2763,E-4,393.5,0.25,29,70.6
2764,G#5,393.5,9/20,57,70.6
2765,E5,393.5,9/20,57,70.6
2766,C#5,393.75,0.25,42,70.6
2767,F4,393.75,0.25,27,70.6
2768,F#5,394.0,0.5,62,70.6
2769,E-5,394.0,0.25,62,70.6
2770,F#4,394.0,0.25,33,70.6
2771,B4,394.25,0.25,36,70.6
2772,C#4,394.25,0.25,28,70.6
2773,C#6,394.5,0.5,48,70.6
2774,A5,394.5,0.25,48,70.6
2775,E-4,394.5,0.25,29,70.6
2776,B4,394.75,0.25,36,70.6
2777,F4,394.75,0.188,27,70.6
2778,G#4,394.938,0.062,27,70.6
2779,B5,395.0,0.5,47,70.6
2780,G#5,395.0,0.25,47,70.6
2781,F#4,395.0,0.25,34,70.6
2782,B4,395.25,0.25,36,70.6
2783,F4,395.25,0.25,28,70.6
2784,F#5,395.5,0.25,39,70.6
2785,A5,395.5,0.5,39,70.6
2786,F#4,395.5,0.25,29,70.6
2787,B4,395.75,0.25,36,70.6
2788,G#4,395.75,0.25,27,70.6
2789,G#5,396.0,0.5,62,70.6
2790,E5,396.0,0.25,62,70.6
2791,A4,396.0,0.25,35,70.6
2792,B4,396.25,0.25,35,70.6
2793,G#4,396.25,0.25,29,70.6
2794,B5,396.5,0.5,47,70.6
2795,G#5,396.5,0.25,47,70.6
2796,A4,396.5,0.25,29,70.6
2797,B4,396.75,0.25,34,70.6
2798,B4,396.75,0.25,28,70.6
2799,A5,397.0,0.5,45,70.6
2800,F#5,397.0,0.25,45,70.6
2801,C#5,397.0,0.25,34,70.6
2802,B4,397.25,0.25,34,70.6
2803,B4,397.25,0.25,29,70.6
2804,E5,397.5,0.25,36,70.6
2805,G#5,397.5,0.5,36,70.6
2806,A4,397.5,0.25,29,70.6
2807,B4,397.75,0.25,33,70.6
2808,B-4,397.75,0.25,28,70.6
2809,F#5,398.0,0.5,57,70.6
2810,E-5,398.0,0.25,57,70.6
2811,B4,398.0,0.5,34,70.6
2812,B4,398.25,0.25,32,70.6
2813,A5,398.5,0.5,43,70.6
2814,F#5,398.5,0.25,43,70.6
2815,B4,398.75,0.25,32,70.6
2816,G#5,399.0,0.5,41,70.6
2817,E5,399.0,0.25,41,70.6
2818,B3,399.0,0.5,34,70.6
2819,B4,399.25,0.25,31,70.6
2820,E-5,399.5,0.25,33,70.6
2821,F#5,399.5,0.5,33,70.6
2822,A4,399.75,0.25,30,70.6
2823,B4,400.0,0.25,41,70.6
2824,E5,400.0,0.5,52,70.6
2825,E3,400.0,333/1000,32,70.6
2826,G#4,400.25,0.25,29,70.6
2827,B3,400.333,333/1000,27,70.6
2828,B4,400.5,0.25,29,70.6
2829,D5,400.5,0.5,39,70.6
2830,G#3,400.667,333/1000,27,70.6
2831,F4,400.75,0.25,29,70.6
2832,B4,401.0,0.25,29,70.6
2833,C#5,401.0,0.5,37,70.6
2834,E3,401.0,333/1000,32,70.6
2835,F4,401.25,0.25,28,70.6
2836,E4,401.333,333/1000,27,70.6
2837,B4,401.5,0.25,29,70.6
2838,C#5,401.5,0.5,30,70.6
2839,B3,401.667,333/1000,27,70.6
2840,F4,401.75,0.25,27,70.6
2841,F#3,402.0,333/1000,32,70.6
2842,C#5,402.0,0.25,39,70.6
2843,F4,402.0,0.25,39,70.6
2844,C#5,402.25,0.25,33,70.6
2845,E-4,402.333,333/1000,27,70.6
2846,E-5,402.5,0.25,34,70.6
2847,B3,402.667,333/1000,27,70.6
2848,F5,402.75,0.188,37,70.6
2849,G#5,402.938,0.062,35,70.6
2850,F#5,403.0,0.25,39,70.6
2851,G#3,403.0,333/1000,33,70.6
2852,F5,403.25,0.25,32,70.6
2853,E4,403.333,333/1000,27,70.6
2854,F#5,403.5,0.25,35,70.6
2855,B3,403.667,333/1000,29,70.6
2856,G#5,403.75,0.25,32,70.6
2857,A5,404.0,0.25,39,70.6
2858,A3,404.0,333/1000,32,70.6
2859,F5,404.25,0.25,33,70.6
2860,F#4,404.333,333/1000,29,70.6
2861,F#5,404.5,0.25,35,70.6
2862,C#4,404.667,333/1000,29,70.6
2863,G#5,404.75,0.188,32,70.6
2864,B5,404.938,0.062,32,70.6
2865,A5,405.0,0.25,41,70.6
2866,B-3,405.0,333/1000,34,70.6
2867,G#5,405.25,0.25,33,70.6
2868,G#4,405.333,333/1000,31,70.6
2869,A5,405.5,0.25,35,70.6
2870,E4,405.667,333/1000,30,70.6
2871,B5,405.75,0.25,32,70.6
2872,C#6,406.0,0.25,42,70.6
2873,B3,406.0,333/1000,37,70.6
2874,B5,406.25,0.25,35,70.6
2875,G#4,406.333,333/1000,32,70.6
2876,A5,406.5,0.25,35,70.6
2877,E4,406.667,333/1000,32,70.6
2878,G#5,406.75,0.25,34,70.6
2879,A5,407.0,0.25,41,70.6
2880,A3,407.0,333/1000,42,70.6
2881,G#5,407.25,0.25,35,70.6
2882,F#4,407.333,333/1000,36,70.6
2883,F#5,407.5,0.25,35,70.6
2884,E-4,407.667,333/1000,36,70.6
2885,C#6,407.75,0.25,34,70.6
2886,G#5,408.0,0.25,40,70.6
2887,G#3,408.0,0.25,43,70.6
2888,F#5,408.25,0.25,34,70.6
2889,E4,408.25,0.25,36,70.6
2890,E5,408.5,0.25,35,70.6
2891,B3,408.5,0.25,36,70.6
2892,B5,408.75,0.25,35,70.6
2893,G#3,408.75,0.25,34,70.6
2894,F#5,409.0,0.25,40,70.6
2895,E3,409.0,0.25,42,70.6
2896,E5,409.25,0.25,33,70.6
2897,B3,409.25,0.25,37,70.6
2898,E-5,409.5,0.25,35,70.6
2899,G#3,409.5,0.25,38,70.6
2900,B5,409.75,229/1000,33,70.6
2901,E3,409.75,0.25,35,70.6
2902,F#3,410.0,0.25,50,70.6
2903,B5,410.0,2.0,41,70.6
2904,G#5,410.0,2.0,41,70.6
2905,B4,410.0,2.0,41,70.6
2906,D4,410.25,0.25,40,70.6
2907,A3,410.5,0.25,40,70.6
2908,F#3,410.75,0.25,36,70.6
2909,G#3,411.0,0.25,48,70.6
2910,E4,411.25,0.25,43,70.6
2911,B3,411.5,0.25,43,70.6
2912,G#3,411.75,0.25,41,70.6
2913,A3,412.0,0.25,61,70.6
2914,A4,412.0,1.0,32,70.6
2915,F#5,412.0,1.0,32,70.6
2916,A5,412.0,1.0,32,70.6
2917,F#4,412.25,0.25,46,70.6
2918,D4,412.5,0.25,45,70.6
2919,A3,412.75,0.25,43,70.6
2920,B3,413.0,0.25,62,70.6
2921,B4,413.0,1.0,28,70.6
2922,E5,413.0,1.0,28,70.6
2923,G#5,413.0,1.0,28,70.6
2924,G#4,413.25,0.25,47,70.6
2925,D4,413.5,0.25,49,70.6
2926,B3,413.75,229/1000,46,70.6
2927,G#3,414.0,0.25,63,70.6
2928,C#5,414.0,1.0,39,70.6
2929,F#5,414.0,1.0,39,70.6
2930,D4,414.25,0.25,53,70.6
2931,B3,414.5,0.25,62,70.6
2932,G#3,414.75,0.25,68,70.6
2933,E5,415.0,1.0,35,70.6
2934,C#5,415.0,1.0,29,70.6
2935,F3,415.0,0.25,79,70.6
2936,D4,415.25,0.25,65,70.6
2937,B3,415.5,0.25,70,70.6
2938,G#3,415.75,229/1000,65,70.6
2939,B4,416.0,1.0,33,70.6
2940,E5,416.0,1.0,35,70.6
2941,F3,416.0,0.25,79,70.6
2942,D4,416.25,0.25,70,70.6
2943,B3,416.5,0.25,70,70.6
2944,G#3,416.75,0.25,65,70.6
2945,E-5,417.0,0.5,44,70.6
2946,B4,417.0,1.0,37,70.6
2947,F3,417.0,0.25,79,70.6
2948,D4,417.25,0.25,66,70.6
2949,B5,417.5,0.5,43,70.6
2950,B3,417.5,0.25,72,70.6
2951,G#3,417.75,0.25,66,70.6
2952,D3,418.0,0.25,79,70.6
2953,B4,418.0,2.0,60,70.6
2954,D5,418.0,2.0,60,70.6
2955,B5,418.0,2.0,60,70.6
2956,B3,418.25,0.25,59,70.6
2957,G#3,418.5,0.25,68,70.6
2958,F3,418.75,0.25,58,70.6
2959,D3,419.0,0.25,72,70.6
2960,B3,419.25,0.25,57,70.6
2961,G#3,419.5,0.25,63,70.6
2962,F3,419.75,0.25,56,70.6
2963,B2,420.0,0.25,73,70.6
2964,A4,420.0,1.0,55,70.6
2965,D5,420.0,1.0,55,70.6
2966,A5,420.0,1.0,55,70.6
2967,G#3,420.25,0.25,54,70.6
2968,F3,420.5,0.25,54,70.6
2969,D3,420.75,0.25,46,70.6
2970,B2,421.0,0.25,53,70.6
2971,G#4,421.0,1.0,55,70.6
2972,D5,421.0,1.0,55,70.6
2973,G#5,421.0,1.0,55,70.6
2974,B4,421.0,1.0,55,70.6
2975,G#3,421.25,0.25,39,70.6
2976,F3,421.5,0.25,42,70.6
2977,D3,421.75,0.25,35,70.6
2978,B2,422.0,0.25,42,70.6
2979,D5,422.0,1.0,74,70.6
2980,F#5,422.0,1.0,74,70.6
2981,G3,422.25,0.25,33,70.6
2982,F3,422.5,0.25,37,70.6
2983,D3,422.75,0.25,32,70.6
2984,B2,423.0,0.25,37,70.6
2985,D5,423.0,1.0,74,70.6
2986,E5,423.0,1.0,74,70.6
2987,G3,423.25,0.25,31,70.6
2988,B2,423.5,0.25,34,70.6
2989,G3,423.75,0.25,29,70.6
2990,E5,424.0,1.0,78,70.6
2991,D5,424.0,1.0,78,70.6
2992,B4,424.0,1.0,78,70.6
2993,G3,424.0,1.0,34,70.6
2994,B2,424.0,1.0,34,70.6
2995,D6,425.0,1.0,87,70.6
2996,D5,425.0,1.0,87,70.6
2997,G4,425.5,0.5,31,70.6
2998,G4,426.0,0.5,33,70.6
2999,D6,426.0,2.0,94,70.6
3000,D5,426.0,2.0,94,70.6
3001,G#4,426.5,0.5,28,70.6
3002,G4,427.0,0.5,33,70.6
3003,G3,427.5,0.5,24,70.6
3004,D4,427.5,0.5,24,70.6
3005,G3,428.0,0.5,33,70.6
3006,F5,428.0,2.0,94,70.6
3007,F6,428.0,2.0,94,70.6
3008,B-3,428.5,0.5,28,70.6
3009,A3,429.0,0.5,33,70.6
3010,E3,429.5,0.5,24,70.6
3011,G3,429.5,0.5,24,70.6
3012,F5,430.0,0.25,102,70.6
3013,F6,430.0,0.25,102,70.6
3014,F3,430.0,0.5,30,70.6
3015,A3,430.0,0.5,30,70.6
3016,F4,430.25,0.25,63,70.6
3017,B4,430.5,0.25,70,70.6
3018,G3,430.5,0.5,26,70.6
3019,B-3,430.5,0.5,26,70.6
3020,D5,430.75,0.25,56,70.6
3021,F5,431.0,0.25,53,70.6
3022,F3,431.0,0.5,30,70.6
3023,A3,431.0,0.5,30,70.6
3024,B5,431.25,0.25,49,70.6
3025,D6,431.5,0.25,46,70.6
3026,C#3,431.5,0.5,24,70.6
3027,E3,431.5,0.5,24,70.6
3028,B5,431.75,0.25,42,70.6
3029,D6,432.0,1.0,39,70.6
3030,D3,432.0,0.5,30,70.6
3031,F3,432.0,0.5,30,70.6
3032,F4,432.5,1.0,30,70.6
3033,D4,432.5,1.0,30,70.6
3034,E5,433.5,0.5,39,70.6
3035,E-4,433.5,0.5,28,70.6
3036,C4,433.5,0.5,28,70.6
3037,F5,434.0,0.5,42,70.6
3038,G#5,434.5,0.5,34,70.6
3039,E-4,434.5,0.5,28,70.6
3040,C4,434.5,0.5,28,70.6
3041,G5,435.0,0.5,39,70.6
3042,B-3,435.0,1.0,28,70.6
3043,C#4,435.0,1.0,28,70.6
3044,D5,435.5,0.5,37,70.6
3045,E5,436.0,0.5,39,70.6
3046,B3,436.0,0.5,28,70.6
3047,G#3,436.0,0.5,28,70.6
3048,F5,436.5,0.5,34,70.6
3049,E5,437.0,0.5,39,70.6
3050,B3,437.0,0.5,28,70.6
3051,G#3,437.0,0.5,28,70.6
3052,B4,437.5,0.5,37,70.6
3053,F#3,437.5,1.0,28,70.6
3054,B-3,437.5,1.0,28,70.6
3055,C5,438.0,1.0,39,70.6
3056,E4,438.0,2.0,39,70.6
3057,F#3,438.5,0.5,28,70.6
3058,B-3,438.5,0.5,28,70.6
3059,C#5,439.0,1.0,47,70.6
3060,F#3,439.5,0.5,28,70.6
3061,B-3,439.5,0.5,28,70.6
3062,D4,440.0,1.0,45,70.6
3063,D5,440.0,1.0,45,70.6
3064,F#3,440.0,1.0,28,70.6
3065,B-3,440.0,1.0,28,70.6
3066,A5,441.0,1.0,49,70.6
3067,F#3,441.0,0.5,39,70.6
3068,B-3,441.0,0.5,39,70.6
3069,A5,442.0,0.5,49,70.6
3070,F#3,442.0,0.5,39,70.6
3071,B-3,442.0,0.5,39,70.6
3072,B-5,442.5,0.5,39,70.6
3073,C4,442.5,1.0,39,70.6
3074,F#3,442.5,1.0,39,70.6
3075,A3,442.5,1.0,39,70.6
3076,A5,443.0,0.5,43,70.6
3077,F5,443.5,0.5,39,70.6
3078,E3,443.5,0.5,50,70.6
3079,C4,443.5,0.5,50,70.6
3080,F#3,443.5,0.5,50,70.6
3081,A3,443.5,0.5,50,70.6
3082,B-5,444.0,0.5,43,70.6
3083,F5,444.5,0.5,39,70.6
3084,E3,444.5,0.5,50,70.6
3085,C4,444.5,0.5,50,70.6
3086,F#3,444.5,0.5,50,70.6
3087,A3,444.5,0.5,50,70.6
3088,F5,445.0,0.5,39,70.6
3089,E-3,445.0,0.5,66,70.6
3090,B3,445.0,0.5,66,70.6
3091,F#3,445.0,0.5,66,70.6
3092,A3,445.0,0.5,66,70.6
3093,C#5,445.5,0.5,36,70.6
3094,E-3,445.5,0.25,63,70.6
3095,B3,445.75,0.25,57,70.6
3096,F#5,446.0,0.5,37,70.6
3097,E-3,446.0,0.25,57,70.6
3098,E3,446.25,0.25,58,70.6
3099,C#5,446.5,0.5,39,70.6
3100,F#3,446.5,0.25,45,70.6
3101,B3,446.75,0.25,41,70.6
3102,C#5,447.0,0.5,43,70.6
3103,F#3,447.0,0.25,41,70.6
3104,G#3,447.25,0.25,44,70.6
3105,B-4,447.5,0.5,39,70.6
3106,A3,447.5,0.25,49,70.6
3107,B3,447.75,0.25,40,70.6
3108,B-5,448.0,0.5,46,70.6
3109,A3,448.0,0.25,40,70.6
3110,G#3,448.25,0.25,44,70.6
3111,F#5,448.5,0.5,38,70.6
3112,F#3,448.5,0.25,49,70.6
3113,B3,448.75,0.25,37,70.6
3114,F#5,449.0,0.5,42,70.6
3115,F#3,449.0,0.25,39,70.6
3116,E3,449.25,0.25,42,70.6
3117,C#5,449.5,0.5,39,70.6
3118,E-3,449.5,0.25,49,70.6
3119,B3,449.75,0.25,40,70.6
3120,C#6,450.0,0.5,54,70.6
3121,E-3,450.0,0.25,39,70.6
3122,E3,450.25,0.25,43,70.6
3123,A5,450.5,0.5,49,70.6
3124,F#3,450.5,0.25,49,70.6
3125,B3,450.75,0.25,37,70.6
3126,A5,451.0,0.5,64,70.6
3127,F#3,451.0,0.25,39,70.6
3128,G#3,451.25,0.25,42,70.6
3129,F#5,451.5,0.5,64,70.6
3130,A3,451.5,0.25,44,70.6
3131,B3,451.75,0.25,35,70.6
3132,C6,452.0,0.5,79,70.6
3133,A3,452.0,0.25,33,70.6
3134,G#3,452.25,0.25,36,70.6
3135,F#5,452.5,0.5,73,70.6
3136,F#3,452.5,0.25,40,70.6
3137,B3,452.75,0.25,29,70.6
3138,B5,453.0,0.5,97,70.6
3139,F#3,453.0,0.25,30,70.6
3140,E3,453.25,0.25,32,70.6
3141,F#5,453.5,0.25,87,70.6
3142,E-3,453.5,0.25,36,70.6
3143,B3,453.75,0.25,29,70.6
3144,E-3,454.0,0.25,28,70.6
3145,E3,454.25,0.25,30,70.6
3146,F#3,454.5,0.25,33,70.6
3147,B3,454.75,0.25,24,70.6
3148,E-5,455.0,0.25,72,70.6
3149,F#3,455.0,0.25,24,70.6
3150,B5,455.25,0.25,59,70.6
3151,G#3,455.25,0.25,26,70.6
3152,E-5,455.5,0.25,61,70.6
3153,A3,455.5,0.25,29,70.6
3154,E5,455.75,0.25,64,70.6
3155,B3,455.75,0.25,24,70.6
3156,F#5,456.0,0.25,74,70.6
3157,A3,456.0,0.25,23,70.6
3158,B5,456.25,0.25,59,70.6
3159,G#3,456.25,0.25,25,70.6
3160,F#5,456.5,0.25,61,70.6
3161,F#3,456.5,0.25,29,70.6
3162,G#5,456.75,0.25,64,70.6
3163,B3,456.75,0.25,22,70.6
3164,A5,457.0,0.25,74,70.6
3165,F#3,457.0,0.25,23,70.6
3166,B5,457.25,0.25,59,70.6
3167,E3,457.25,0.25,25,70.6
3168,A5,457.5,0.25,62,70.6
3169,E-3,457.5,0.25,29,70.6
3170,G#5,457.75,0.25,69,70.6
3171,B3,457.75,0.25,24,70.6
3172,F#5,458.0,0.25,74,70.6
3173,E-3,458.0,0.25,23,70.6
3174,B5,458.25,0.25,59,70.6
3175,E3,458.25,0.25,25,70.6
3176,F#5,458.5,0.25,61,70.6
3177,F#3,458.5,0.25,29,70.6
3178,E5,458.75,0.25,64,70.6
3179,B3,458.75,0.25,22,70.6
3180,E-5,459.0,0.25,66,70.6
3181,F#3,459.0,0.25,23,70.6
3182,B5,459.25,0.25,52,70.6
3183,G#3,459.25,0.25,25,70.6
3184,E-5,459.5,0.25,53,70.6
3185,A3,459.5,0.25,29,70.6
3186,E5,459.75,0.25,58,70.6
3187,G#3,459.75,0.25,24,70.6
3188,F#5,460.0,0.25,61,70.6
3189,A3,460.0,0.25,23,70.6
3190,B5,460.25,0.25,47,70.6
3191,B-3,460.25,0.25,25,70.6
3192,F#5,460.5,0.25,48,70.6
3193,B3,460.5,0.25,29,70.6
3194,G#5,460.75,0.25,49,70.6
3195,B-3,460.75,0.25,24,70.6
3196,A5,461.0,0.25,55,70.6
3197,A3,461.0,0.25,24,70.6
3198,B5,461.25,0.25,43,70.6
3199,G#3,461.25,0.25,24,70.6
3200,A5,461.5,0.25,44,70.6
3201,F#3,461.5,0.25,27,70.6
3202,G#5,461.75,0.25,48,70.6
3203,E-3,461.75,0.25,24,70.6
3204,B2,461.75,0.25,24,70.6
3205,F#5,462.0,0.25,50,70.6
3206,E3,462.0,0.25,24,70.6
3207,C#3,462.0,0.25,24,70.6
3208,B5,462.25,0.25,38,70.6
3209,F#3,462.25,0.25,24,70.6
3210,E-3,462.25,0.25,24,70.6
3211,F#5,462.5,0.25,39,70.6
3212,G#3,462.5,1.0,40,70.6
3213,E3,462.5,0.5,24,70.6
3214,E5,462.75,0.25,39,70.6
3215,E-5,463.0,0.25,44,70.6
3216,B5,463.25,0.25,35,70.6
3217,E-5,463.5,0.25,37,70.6
3218,B3,463.5,0.5,36,70.6
3219,E5,463.75,0.25,41,70.6
3220,F#5,464.0,0.25,44,70.6
3221,A3,464.0,0.5,34,70.6
3222,B5,464.25,0.25,35,70.6
3223,F#5,464.5,0.25,36,70.6
3224,G#3,464.5,0.5,32,70.6
3225,B2,464.5,0.5,32,70.6
3226,G#5,464.75,0.25,38,70.6
3227,A5,465.0,0.25,44,70.6
3228,F#3,465.0,0.438,32,70.6
3229,B5,465.25,0.25,35,70.6
3230,A5,465.5,0.25,37,70.6
3231,F#3,465.5,0.5,32,70.6
3232,G#5,465.75,0.25,41,70.6
3233,F#5,466.0,0.25,44,70.6
3234,G#3,466.0,0.5,34,70.6
3235,B5,466.25,0.25,35,70.6
3236,F#5,466.5,0.25,36,70.6
3237,A3,466.5,0.5,30,70.6
3238,B2,466.5,0.5,30,70.6
3239,E5,466.75,0.25,38,70.6
3240,E-5,467.0,0.25,44,70.6
3241,C#4,467.0,0.5,43,70.6
3242,E5,467.25,0.25,35,70.6
3243,E-5,467.5,0.25,37,70.6
3244,B3,467.5,0.5,30,70.6
3245,B2,467.5,0.5,30,70.6
3246,C#5,467.75,0.25,41,70.6
3247,B4,468.0,0.25,44,70.6
3248,F#3,468.0,0.5,25,70.6
3249,A2,468.0,0.5,25,70.6
3250,C#5,468.25,0.25,35,70.6
3251,E-4,468.5,0.25,35,70.6
3252,G#2,468.5,0.5,22,70.6
3253,G#3,468.5,0.5,22,70.6
3254,E4,468.75,0.25,35,70.6
3255,F#4,469.0,0.25,35,70.6
3256,A4,469.25,0.25,32,70.6
3257,G#4,469.5,0.25,32,70.6
3258,F#4,469.75,0.25,32,70.6
3259,G#4,470.0,0.25,34,70.6
3260,B4,470.25,0.25,26,70.6
3261,B3,470.5,0.25,31,70.6
3262,E3,470.5,0.25,30,70.6
3263,B4,470.75,0.25,26,70.6
3264,E4,470.75,0.25,23,70.6
3265,G#4,471.0,0.25,30,70.6
3266,E3,471.0,0.25,27,70.6
3267,B4,471.25,0.25,27,70.6
3268,E4,471.25,0.25,23,70.6
3269,F#4,471.5,0.25,28,70.6
3270,C#3,471.5,0.25,27,70.6
3271,B4,471.75,0.25,27,70.6
3272,C#4,471.75,0.25,24,70.6
3273,E4,472.0,0.25,34,70.6
3274,A2,472.0,0.25,25,70.6
3275,B4,472.25,0.25,26,70.6
3276,A3,472.25,0.25,24,70.6
3277,E-4,472.5,0.25,27,70.6
3278,B2,472.5,0.25,30,70.6
3279,B4,472.75,0.188,25,70.6
3280,B3,472.75,0.25,23,70.6
3281,E-4,473.0,0.25,27,70.6
3282,B2,473.0,0.25,24,70.6
3283,B4,473.25,0.25,26,70.6
3284,B3,473.25,0.25,22,70.6
3285,F4,473.5,0.25,28,70.6
3286,A3,473.5,0.25,24,70.6
3287,B4,473.75,0.25,28,70.6
3288,A4,473.75,0.25,23,70.6
3289,F#4,474.0,0.25,30,70.6
3290,G#3,474.0,0.25,25,70.6
3291,B4,474.25,0.25,28,70.6
3292,G#4,474.25,0.25,25,70.6
3293,A4,474.5,0.25,36,70.6
3294,F#3,474.5,0.25,29,70.6
3295,B4,474.75,0.25,31,70.6
3296,F#4,474.75,0.25,28,70.6
3297,G#4,475.0,0.25,37,70.6
3298,E3,475.0,0.25,37,70.6
3299,B4,475.25,229/1000,26,70.6
3300,E4,475.25,0.25,31,70.6
3301,B4,475.5,0.25,25,70.6
3302,E-3,475.5,0.25,48,70.6
3303,E-5,475.75,0.25,27,70.6
3304,E-4,475.75,0.25,40,70.6
3305,B4,476.0,0.25,36,70.6
3306,B2,476.0,0.25,22,70.6
3307,E5,476.25,0.25,30,70.6
3308,B3,476.25,0.25,20,70.6
3309,B4,476.5,0.25,38,70.6
3310,E3,476.5,1.0,28,70.6
3311,E4,476.5,1.0,28,70.6
3312,F#5,476.75,0.25,30,70.6
3313,B4,477.0,0.25,45,70.6
3314,G5,477.25,0.25,33,70.6
3315,B4,477.5,0.25,49,70.6
3316,G#5,477.75,0.25,40,70.6
3317,B4,478.0,0.25,34,70.6
3318,G#5,478.0,1.0,57,70.6
3319,E-3,478.0,0.5,42,70.6
3320,B3,478.0,0.5,42,70.6
3321,E5,478.25,0.25,26,70.6
3322,B4,478.5,0.25,31,70.6
3323,C#3,478.5,1.0,42,70.6
3324,B-3,478.5,1.0,42,70.6
3325,E5,478.75,0.25,26,70.6
3326,E5,479.0,0.25,30,70.6
3327,B5,479.0,0.5,52,70.6
3328,A4,479.25,0.25,27,70.6
3329,C#5,479.5,0.25,28,70.6
3330,A5,479.5,0.5,49,70.6
3331,B-3,479.5,1.0,47,70.6
3332,E4,479.5,1.0,47,70.6
3333,E5,479.75,0.25,27,70.6
3334,E5,480.0,0.25,34,70.6
3335,G#5,480.0,0.5,57,70.6
3336,B4,480.25,0.25,26,70.6
3337,E-5,480.5,0.25,27,70.6
3338,F#5,480.5,0.438,47,70.6
3339,B3,480.5,1.0,42,70.6
3340,E-4,480.5,1.0,42,70.6
3341,B4,480.75,0.25,25,70.6
3342,E-5,481.0,0.25,27,70.6
3343,F#5,481.0,0.5,47,70.6
3344,B4,481.25,0.25,26,70.6
3345,E5,481.5,0.25,28,70.6
3346,G#5,481.5,0.5,49,70.6
3347,B2,481.5,0.5,38,70.6
3348,B3,481.5,0.5,38,70.6
3349,B4,481.75,0.25,28,70.6
3350,F#5,482.0,0.25,33,70.6
3351,A5,482.0,0.5,57,70.6
3352,C#3,482.0,0.5,38,70.6
3353,A3,482.0,0.5,38,70.6
3354,B4,482.25,0.25,42,70.6
3355,C#6,482.5,0.5,56,70.6
3356,G#5,482.5,0.25,56,70.6
3357,D3,482.5,1.0,42,70.6
3358,G#3,482.5,1.0,42,70.6
3359,B4,482.75,0.25,49,70.6
3360,F#5,483.0,0.25,66,70.6
3361,B5,483.0,0.5,66,70.6
3362,B4,483.25,0.25,55,70.6
3363,A5,483.5,0.25,29,70.6
3364,F#5,483.5,0.25,29,70.6
3365,E-6,483.5,0.25,29,70.6
3366,G#3,483.5,1.0,45,70.6
3367,D4,483.5,1.0,45,70.6
3368,E6,484.0,0.188,40,70.6
3369,G#5,484.0,0.188,40,70.6
3370,E5,484.0,0.188,40,70.6
3371,E5,484.25,0.25,36,70.6
3372,B4,484.5,0.25,40,70.6
3373,A3,484.5,1.5,42,70.6
3374,C#4,484.5,1.5,42,70.6
3375,G#4,484.75,0.25,36,70.6
3376,B4,485.0,0.25,41,70.6
3377,G#4,485.25,0.25,36,70.6
3378,F#4,485.5,0.25,40,70.6
3379,E-5,485.75,0.25,36,70.6
3380,F#4,486.0,0.25,47,70.6
3381,A3,486.0,0.5,40,70.6
3382,C#4,486.0,0.5,40,70.6
3383,E5,486.25,0.25,36,70.6
3384,C#5,486.5,0.25,38,70.6
3385,C4,486.5,0.5,54,70.6
3386,G#3,486.5,0.5,54,70.6
3387,F#4,486.75,0.188,34,70.6
3388,F#4,487.0,0.25,38,70.6
3389,C#4,487.0,0.5,51,70.6
3390,A3,487.0,0.5,51,70.6
3391,F#5,487.25,0.25,31,70.6
3392,C#5,487.5,0.25,36,70.6
3393,C#3,487.5,0.375,60,70.6
3394,A3,487.5,0.375,60,70.6
3395,F#4,487.75,0.188,34,70.6
3396,F#4,488.0,0.25,38,70.6
3397,B2,488.0,0.375,58,70.6
3398,G#3,488.0,0.375,58,70.6
3399,E-5,488.25,0.25,30,70.6
3400,B4,488.5,0.25,37,70.6
3401,G#3,488.5,0.5,68,70.6
3402,F#4,488.75,0.25,34,70.6
3403,E-4,489.0,0.25,46,70.6
3404,F#3,489.0,1.0,64,70.6
3405,B-2,489.0,1.0,64,70.6
3406,B4,489.25,0.25,37,70.6
3407,E4,489.5,0.25,46,70.6
3408,A4,489.75,0.25,40,70.6
3409,E4,490.0,0.25,38,70.6
3410,B-2,490.0,0.5,52,70.6
3411,F#3,490.0,0.5,52,70.6
3412,B4,490.25,0.25,36,70.6
3413,G#4,490.5,0.25,42,70.6
3414,F#3,490.5,0.5,41,70.6
3415,B2,490.5,2.0,34,70.6
3416,E4,490.75,0.188,36,70.6
3417,E4,491.0,0.25,48,70.6
3418,B3,491.0,0.5,32,70.6
3419,E5,491.25,0.25,39,70.6
3420,B4,491.5,0.25,45,70.6
3421,B-3,491.5,0.5,38,70.6
3422,E4,491.75,0.188,36,70.6
3423,E4,492.0,0.25,44,70.6
3424,B3,492.0,0.5,34,70.6
3425,E5,492.25,0.25,34,70.6
3426,C#5,492.5,0.25,38,70.6
3427,E3,492.5,0.25,31,70.6
3428,A4,492.75,0.25,34,70.6
3429,B3,492.75,0.25,23,70.6
3430,E4,493.0,0.25,38,70.6
3431,G#3,493.0,0.25,31,70.6
3432,E5,493.25,0.25,36,70.6
3433,E3,493.25,0.25,25,70.6
3434,E4,493.5,0.25,41,70.6
3435,E-3,493.5,0.25,31,70.6
3436,E5,493.75,0.25,48,70.6
3437,B3,493.75,0.25,27,70.6
3438,E4,494.0,0.25,48,70.6
3439,F#3,494.0,0.25,31,70.6
3440,E5,494.25,0.25,42,70.6
3441,E-3,494.25,0.25,32,70.6
3442,E4,494.5,0.25,53,70.6
3443,C#3,494.5,0.25,38,70.6
3444,E5,494.75,0.25,43,70.6
3445,B-3,494.75,0.25,29,70.6
3446,E4,495.0,0.25,54,70.6
3447,F#3,495.0,0.25,31,70.6
3448,E5,495.25,0.25,50,70.6
3449,C#3,495.25,0.25,27,70.6
3450,E4,495.5,0.25,60,70.6
3451,F#2,495.5,0.25,31,70.6
3452,E5,495.75,0.25,53,70.6
3453,B-3,495.75,0.25,26,70.6
3454,E4,496.0,0.25,67,70.6
3455,F#3,496.0,0.25,29,70.6
3456,E5,496.25,0.25,59,70.6
3457,C#3,496.25,0.25,27,70.6
3458,E4,496.5,0.25,66,70.6
3459,B2,496.5,0.25,31,70.6
3460,E5,496.75,0.25,52,70.6
3461,B3,496.75,0.25,25,70.6
3462,E4,497.0,0.25,60,70.6
3463,F#3,497.0,0.25,30,70.6
3464,E5,497.25,0.25,46,70.6
3465,E-3,497.25,0.25,27,70.6
3466,E4,497.5,0.25,59,70.6
3467,B2,497.5,0.25,37,70.6
3468,E5,497.75,0.25,47,70.6
3469,B3,497.75,0.25,30,70.6
3470,E-4,498.0,0.25,38,70.6
3471,C#3,498.0,0.25,37,70.6
3472,E-5,498.25,0.25,34,70.6
3473,A3,498.25,0.25,33,70.6
3474,B4,498.5,0.25,38,70.6
3475,B2,498.5,0.25,31,70.6
3476,F#4,498.75,0.188,36,70.6
3477,G#3,498.75,0.25,29,70.6
3478,F#4,499.0,0.25,38,70.6
3479,E3,499.0,0.25,34,70.6
3480,F#5,499.25,0.25,34,70.6
3481,B2,499.25,0.25,29,70.6
3482,E-5,499.5,0.25,38,70.6
3483,E2,499.5,0.25,39,70.6
3484,A4,499.75,0.25,35,70.6
3485,G#3,499.75,0.25,32,70.6
3486,G#4,500.0,1.0,51,70.6
3487,E3,500.0,0.25,36,70.6
3488,B2,500.25,0.25,29,70.6
3489,A2,500.5,0.25,35,70.6
3490,A3,500.75,0.25,27,70.6
3491,E3,501.0,0.25,31,70.6
3492,C#3,501.25,0.25,27,70.6
3493,A2,501.5,0.25,31,70.6
3494,B5,501.5,0.5,47,70.6
3495,B4,501.5,0.5,47,70.6
3496,E3,501.75,0.25,29,70.6
3497,A2,502.0,0.25,34,70.6
3498,B-5,502.0,1.0,51,70.6
3499,B-4,502.0,1.0,51,70.6
3500,E3,502.25,0.25,38,70.6
3501,G#2,502.5,0.25,38,70.6
3502,E3,502.75,0.25,34,70.6
3503,A2,503.0,0.25,38,70.6
3504,E6,503.0,1.0,56,70.6
3505,E5,503.0,1.0,56,70.6
3506,E3,503.25,0.25,35,70.6
3507,A2,503.5,0.25,40,70.6
3508,C#3,503.5,0.25,40,70.6
3509,E3,503.75,0.25,35,70.6
3510,E-6,504.0,1.5,51,70.6
3511,E-5,504.0,1.5,51,70.6
3512,B2,504.0,0.25,40,70.6
3513,E3,504.0,0.25,40,70.6
3514,G#3,504.25,0.25,36,70.6
3515,E3,504.5,0.25,50,70.6
3516,C#3,504.5,0.25,50,70.6
3517,B-3,504.75,0.25,47,70.6
3518,E3,505.0,0.25,48,70.6
3519,C#3,505.0,0.25,48,70.6
3520,B-3,505.25,0.25,42,70.6
3521,A5,505.5,0.5,45,70.6
3522,A4,505.5,0.5,45,70.6
3523,E3,505.5,0.25,44,70.6
3524,C3,505.5,0.25,44,70.6
3525,A3,505.75,0.25,37,70.6
3526,G#5,506.0,1.0,51,70.6
3527,G#4,506.0,1.0,51,70.6
3528,C3,506.0,0.25,44,70.6
3529,E3,506.0,0.25,44,70.6
3530,A3,506.25,0.25,38,70.6
3531,B2,506.5,0.25,31,70.6
3532,E-3,506.75,0.25,23,70.6
3533,F#3,506.75,0.25,23,70.6
3534,A3,506.75,0.25,23,70.6
3535,B2,507.0,0.25,31,70.6
3536,D6,507.0,1.0,54,70.6
3537,D5,507.0,1.0,54,70.6
3538,E-3,507.25,0.25,25,70.6
3539,F#3,507.25,0.25,25,70.6
3540,A3,507.25,0.25,25,70.6
3541,B2,507.5,0.25,31,70.6
3542,E-3,507.75,0.25,23,70.6
3543,F#3,507.75,0.25,23,70.6
3544,A3,507.75,0.25,23,70.6
3545,B2,508.0,0.25,31,70.6
3546,C#6,508.0,1.5,51,70.6
3547,C#5,508.0,1.5,51,70.6
3548,E-3,508.25,0.25,24,70.6
3549,F#3,508.25,0.25,24,70.6
3550,A3,508.25,0.25,24,70.6
3551,B2,508.5,0.25,31,70.6
3552,E3,508.75,0.25,24,70.6
3553,G#3,508.75,0.25,24,70.6
3554,B2,509.0,0.25,31,70.6
3555,E3,509.25,0.25,26,70.6
3556,G#3,509.25,0.25,26,70.6
3557,B2,509.5,0.25,31,70.6
3558,C#6,509.5,0.5,48,70.6
3559,C#5,509.5,0.5,48,70.6
3560,E3,509.75,0.25,24,70.6
3561,G#3,509.75,0.25,24,70.6
3562,B2,510.0,0.25,31,70.6
3563,C6,510.0,0.5,56,70.6
3564,C5,510.0,0.5,56,70.6
3565,E3,510.25,0.25,25,70.6
3566,G#3,510.25,0.25,25,70.6
3567,C#6,510.5,0.5,57,70.6
3568,C#5,510.5,0.5,57,70.6
3569,F#3,510.5,2.0,46,70.6
3570,B2,510.5,2.0,46,70.6
3571,B3,511.0,0.5,34,70.6
3572,A5,511.0,0.375,55,70.6
3573,A4,511.0,0.375,55,70.6
3574,B-3,511.5,0.5,43,70.6
3575,G#5,511.5,0.375,54,70.6
3576,G#4,511.5,0.375,54,70.6
3577,B3,512.0,0.5,35,70.6
3578,G#5,512.0,0.5,70,70.6
3579,G#4,512.0,0.5,70,70.6
3580,F#5,512.5,99/100,61,70.6
3581,F#4,512.5,99/100,61,70.6
3582,E3,512.5,2.0,46,70.6
3583,B2,512.5,2.0,46,70.6
3584,B3,513.0,0.5,34,70.6
3585,B-3,513.5,0.5,43,70.6
3586,F#5,513.5,19/40,65,70.6
3587,F#4,513.5,19/40,65,70.6
3588,B3,514.0,0.5,35,70.6
3589,F#5,514.0,0.5,49,70.6
3590,F#4,514.0,0.5,49,70.6
3591,B2,514.5,0.25,37,70.6
3592,B5,514.5,0.5,38,70.6
3593,B4,514.5,0.5,38,70.6
3594,E-3,514.75,0.25,27,70.6
3595,F#3,514.75,0.25,27,70.6
3596,A3,514.75,0.25,27,70.6
3597,B2,515.0,0.25,37,70.6
3598,B-5,515.0,0.5,46,70.6
3599,B-4,515.0,0.5,46,70.6
3600,E-3,515.25,0.25,30,70.6
3601,F#3,515.25,0.25,30,70.6
3602,A3,515.25,0.25,30,70.6
3603,B2,515.5,0.25,39,70.6
3604,B5,515.5,0.5,40,70.6
3605,B4,515.5,0.5,40,70.6
3606,E-3,515.75,0.25,30,70.6
3607,F#3,515.75,0.25,30,70.6
3608,A3,515.75,0.25,30,70.6
3609,B2,516.0,0.25,40,70.6
3610,E5,516.0,0.5,49,70.6
3611,E4,516.0,0.5,49,70.6
3612,E-3,516.25,0.25,31,70.6
3613,F#3,516.25,0.25,31,70.6
3614,A3,516.25,0.25,31,70.6
3615,B2,516.5,0.25,48,70.6
3616,B5,516.5,0.5,38,70.6
3617,B4,516.5,0.5,38,70.6
3618,D3,516.75,0.25,35,70.6
3619,F3,516.75,0.25,35,70.6
3620,G#3,516.75,0.25,35,70.6
3621,B2,517.0,0.25,48,70.6
3622,B-5,517.0,0.5,46,70.6
3623,B-4,517.0,0.5,46,70.6
3624,D3,517.25,0.25,40,70.6
3625,F3,517.25,0.25,40,70.6
3626,G#3,517.25,0.25,40,70.6
3627,B2,517.5,0.25,50,70.6
3628,B5,517.5,0.5,40,70.6
3629,B4,517.5,0.5,40,70.6
3630,D3,517.75,0.25,38,70.6
3631,F3,517.75,0.25,38,70.6
3632,G#3,517.75,0.25,38,70.6
3633,B2,518.0,0.25,51,70.6
3634,E-5,518.25,0.25,33,70.6
3635,D3,518.25,0.25,41,70.6
3636,F3,518.25,0.25,41,70.6
3637,G#3,518.25,0.25,41,70.6
3638,B5,518.5,0.25,38,70.6
3639,A2,518.5,0.25,51,70.6
3640,A5,518.75,0.25,34,70.6
3641,F#3,518.75,0.25,38,70.6
3642,C#3,518.75,0.25,38,70.6
3643,F#5,519.0,0.25,39,70.6
3644,A2,519.0,0.25,49,70.6
3645,E-5,519.25,0.25,32,70.6
3646,C#3,519.25,0.25,38,70.6
3647,F#3,519.25,0.25,38,70.6
3648,B4,519.5,0.25,37,70.6
3649,A2,519.5,0.25,52,70.6
3650,A4,519.75,0.25,32,70.6
3651,F#3,519.75,0.25,39,70.6
3652,C#3,519.75,0.25,39,70.6
3653,A2,520.0,0.25,49,70.6
3654,G#4,520.25,0.25,33,70.6
3655,C#3,520.25,0.25,42,70.6
3656,F#3,520.25,0.25,42,70.6
3657,B5,520.5,0.25,38,70.6
3658,B-2,520.5,0.25,43,70.6
3659,G#5,520.75,0.25,34,70.6
3660,F#3,520.75,0.25,31,70.6
3661,E3,520.75,0.25,31,70.6
3662,C#3,520.75,0.25,31,70.6
3663,E5,521.0,0.25,39,70.6
3664,B-2,521.0,0.25,40,70.6
3665,B4,521.25,0.25,32,70.6
3666,F#3,521.25,0.25,30,70.6
3667,E3,521.25,0.25,30,70.6
3668,C#3,521.25,0.25,30,70.6
3669,A4,521.5,0.25,37,70.6
3670,B-2,521.5,0.25,43,70.6
3671,G#4,521.75,0.25,32,70.6
3672,F#3,521.75,0.25,30,70.6
3673,E3,521.75,0.25,30,70.6
3674,C#3,521.75,0.25,30,70.6
3675,B-2,522.0,0.25,39,70.6
3676,F#5,522.0,0.5,58,70.6
3677,F#4,522.0,0.5,58,70.6
3678,F#3,522.25,0.25,30,70.6
3679,E3,522.25,0.25,30,70.6
3680,C#3,522.25,0.25,30,70.6
3681,B2,522.5,0.25,38,70.6
3682,B5,522.5,0.5,46,70.6
3683,B4,522.5,0.5,46,70.6
3684,E3,522.75,0.25,28,70.6
3685,G#3,522.75,0.25,28,70.6
3686,B2,523.0,0.25,35,70.6
3687,B-5,523.0,0.5,58,70.6
3688,B-4,523.0,0.5,58,70.6
3689,G#3,523.25,0.25,24,70.6
3690,E3,523.25,0.25,24,70.6
3691,B2,523.5,0.25,32,70.6
3692,B5,523.5,0.5,51,70.6
3693,B4,523.5,0.5,51,70.6
3694,E3,523.75,0.25,23,70.6
3695,G#3,523.75,0.25,23,70.6
3696,B2,524.0,0.25,32,70.6
3697,F4,524.0,0.5,70,70.6
3698,F5,524.0,0.5,70,70.6
3699,G#3,524.25,0.25,23,70.6
3700,E3,524.25,0.25,23,70.6
3701,B2,524.5,0.25,32,70.6
3702,D5,524.5,0.5,64,70.6
3703,D6,524.5,0.5,64,70.6
3704,F#3,524.75,0.25,25,70.6
3705,B2,525.0,0.25,32,70.6
3706,C#5,525.0,0.5,74,70.6
3707,C#6,525.0,0.5,74,70.6
3708,E-3,525.25,0.25,26,70.6
3709,B2,525.5,0.25,32,70.6
3710,D5,525.5,0.5,69,70.6
3711,D6,525.5,0.5,69,70.6
3712,B3,525.75,0.25,26,70.6
3713,C#6,526.0,0.5,79,70.6
3714,B2,526.0,0.25,32,70.6
3715,B3,526.25,229/1000,27,70.6
3716,F#5,526.5,0.5,67,70.6
3717,B3,526.5,1.0,50,70.6
3718,A5,527.0,0.5,77,70.6
3719,C#5,527.5,0.5,68,70.6
3720,A3,527.5,1.0,56,70.6
3721,F#5,528.0,0.5,59,70.6
3722,C#5,528.5,0.5,54,70.6
3723,G#3,528.5,1.0,64,70.6
3724,B3,528.5,1.0,64,70.6
3725,E5,529.0,0.5,59,70.6
3726,F#4,529.5,0.5,45,70.6
3727,F#3,529.5,1.0,70,70.6
3728,A3,529.5,1.0,70,70.6
3729,B4,530.0,0.5,51,70.6
3730,G#4,530.5,0.5,38,70.6
3731,G#3,530.5,0.5,80,70.6
3732,F3,530.5,0.5,80,70.6
3733,B4,531.0,0.5,47,70.6
3734,E4,531.5,0.5,30,70.6
3735,G#3,531.5,0.5,81,70.6
3736,F3,531.5,0.5,81,70.6
3737,E-4,532.0,0.5,42,70.6
3738,B4,532.5,0.5,34,70.6
3739,F#4,533.0,0.5,38,70.6
3740,E-4,533.0,0.5,38,70.6
3741,B4,533.5,0.5,31,70.6
3742,E-4,533.5,0.5,31,70.6
3743,D4,534.25,0.25,49,70.6
3744,G#4,534.5,0.25,57,70.6
3745,B-3,534.5,2.0,40,70.6
3746,F4,534.75,0.25,50,70.6
3747,C#4,535.25,0.25,53,70.6
3748,A4,535.5,0.25,60,70.6
3749,F#4,535.75,0.25,55,70.6
3750,B4,536.25,0.25,65,70.6
3751,B5,536.5,0.25,71,70.6
3752,B3,536.5,2.0,40,70.6
3753,G#5,536.75,0.25,67,70.6
3754,C#5,537.25,0.25,70,70.6
3755,C#6,537.5,0.25,81,70.6
3756,A5,537.75,0.25,76,70.6
3757,D5,538.25,0.25,91,70.6
3758,D6,538.5,0.25,97,70.6
3759,B3,538.5,2.0,40,70.6
3760,B5,538.75,0.25,89,70.6
3761,C#5,539.25,0.25,89,70.6
3762,C#6,539.5,0.25,98,70.6
3763,B5,539.75,0.25,91,70.6
3764,B3,540.5,2.0,40,70.6
3765,C#4,541.5,0.25,45,70.6
3766,E-4,541.75,0.25,41,70.6
3767,E4,542.0,0.5,47,70.6
3768,G4,542.5,0.5,50,70.6
3769,B3,542.5,1479/1000,40,70.6
3770,F#4,543.0,0.5,46,70.6
3771,C#4,543.5,0.5,46,70.6
3772,F#5,544.0,0.5,48,70.6
3773,E-4,544.0,2.0,48,70.6
3774,C#6,544.5,0.5,55,70.6
3775,B5,545.0,0.5,49,70.6
3776,B-3,545.0,0.5,32,70.6
3777,F#5,545.5,0.5,48,70.6
3778,B3,545.5,0.5,36,70.6
3779,A5,546.0,2.0,50,70.6
3780,E-4,546.0,0.5,48,70.6
3781,E-4,546.0,0.5,32,70.6
3782,F#4,546.5,0.5,40,70.6
3783,B3,546.5,19/40,38,70.6
3784,E4,547.0,0.5,43,70.6
3785,G#3,547.0,0.5,30,70.6
3786,C#4,547.5,0.5,40,70.6
3787,A3,547.5,0.5,34,70.6
3788,E4,548.0,2.0,42,70.6
3789,A5,548.0,0.5,50,70.6
3790,C#4,548.0,0.5,31,70.6
3791,A5,548.5,0.5,48,70.6
3792,A3,548.5,19/40,38,70.6
3793,G#5,549.0,0.5,47,70.6
3794,G3,549.0,0.5,31,70.6
3795,E5,549.5,0.5,43,70.6
3796,B2,549.5,0.5,35,70.6
3797,G#3,549.5,0.5,35,70.6
3798,G#5,550.0,2.0,50,70.6
3799,E4,550.0,0.5,42,70.6
3800,B3,550.0,0.5,32,70.6
3801,E4,550.5,0.5,38,70.6
3802,G#3,550.5,19/40,36,70.6
3803,E-4,551.0,0.5,41,70.6
3804,F3,551.0,0.5,30,70.6
3805,B3,551.5,0.5,39,70.6
3806,B2,551.5,0.5,33,70.6
3807,F#3,551.5,0.5,33,70.6
3808,E-4,552.0,0.5,41,70.6
3809,G#5,552.0,0.5,50,70.6
3810,A3,552.0,0.5,33,70.6
3811,B2,552.0,0.5,28,70.6
3812,G#3,552.5,0.5,49,70.6
3813,B2,552.5,0.5,28,70.6
3814,E5,552.5,0.5,37,70.6
3815,G#5,552.5,0.5,37,70.6
3816,B2,553.0,1.0,39,70.6
3817,E3,553.0,0.5,46,70.6
3818,F#5,553.0,0.5,38,70.6
3819,E-5,553.0,0.5,38,70.6
3820,F#3,553.5,0.25,52,70.6
3821,B4,553.5,0.5,37,70.6
3822,E-5,553.5,0.5,37,70.6
3823,A3,553.75,0.25,50,70.6
3824,G#3,554.0,0.25,45,70.6
3825,B2,554.0,0.5,37,70.6
3826,E-5,554.0,19/40,44,70.6
3827,F#5,554.0,19/40,44,70.6
3828,F#3,554.25,0.25,40,70.6
3829,C5,554.5,0.5,37,70.6
3830,F#5,554.5,0.5,37,70.6
3831,E2,554.5,0.5,28,70.6
3832,E3,554.5,0.5,28,70.6
3833,E5,555.0,0.5,38,70.6
3834,C#5,555.0,0.5,38,70.6
3835,A4,555.5,0.5,36,70.6
3836,C#5,555.5,0.5,36,70.6
3837,C#5,556.0,19/40,44,70.6
3838,E5,556.0,19/40,44,70.6
3839,B-4,556.5,0.5,37,70.6
3840,E5,556.5,0.5,37,70.6
3841,B1,556.5,0.5,28,70.6
3842,B2,556.5,0.5,28,70.6
3843,E-5,557.0,0.5,42,70.6
3844,B4,557.0,0.5,42,70.6
3845,G#4,557.5,0.5,38,70.6
3846,B4,557.5,0.5,38,70.6
3847,B4,558.0,19/40,44,70.6
3848,D5,558.0,19/40,44,70.6
3849,G#4,558.5,0.5,35,70.6
3850,D5,558.5,0.5,35,70.6
3851,C#2,558.5,0.5,28,70.6
3852,C#3,558.5,0.5,28,70.6
3853,C#5,559.0,0.5,40,70.6
3854,A4,559.0,0.5,40,70.6
3855,E-4,559.5,0.5,36,70.6
3856,C5,559.5,0.5,36,70.6
3857,E-3,559.5,0.5,26,70.6
3858,E-2,559.5,0.5,26,70.6
3859,B4,560.0,0.5,52,70.6
3860,E4,560.0,0.5,52,70.6
3861,B2,560.0,0.5,24,70.6
3862,B1,560.0,0.5,24,70.6
3863,C#4,560.5,0.5,49,70.6
3864,B4,560.5,0.5,49,70.6
3865,E2,560.5,1.0,28,70.6
3866,E3,560.5,1.0,28,70.6
3867,A4,561.0,0.25,55,70.6
3868,E-4,561.0,0.25,55,70.6
3869,F#4,561.25,0.25,53,70.6
3870,E4,561.5,0.25,42,70.6
3871,F#4,561.75,0.25,38,70.6
3872,G#4,562.0,1.0,45,70.6
3873,E4,562.0,0.25,45,70.6
3874,B2,562.0,0.5,26,70.6
3875,B3,562.25,0.25,26,70.6
3876,E4,562.5,0.25,31,70.6
3877,C#3,562.5,1.0,30,70.6
3878,B3,562.75,0.25,26,70.6
3879,G#4,563.0,0.25,30,70.6
3880,B4,563.0,0.5,46,70.6
3881,B3,563.25,0.25,27,70.6
3882,F#4,563.5,0.25,28,70.6
3883,A4,563.5,0.5,43,70.6
3884,E-3,563.5,0.5,28,70.6
3885,B3,563.75,0.25,27,70.6
3886,E4,564.0,0.25,34,70.6
3887,G#4,564.0,0.5,50,70.6
3888,A3,564.0,0.5,24,70.6
3889,B2,564.0,0.5,24,70.6
3890,B3,564.25,0.25,26,70.6
3891,E-4,564.5,0.25,27,70.6
3892,F#4,564.5,0.438,41,70.6
3893,E3,564.5,0.25,30,70.6
3894,G#3,564.5,0.25,30,70.6
3895,B3,564.75,0.188,25,70.6
3896,B2,564.75,0.25,27,70.6
3897,E-4,565.0,0.25,27,70.6
3898,F#4,565.0,0.5,41,70.6
3899,E3,565.0,0.25,30,70.6
3900,G#3,565.0,0.25,30,70.6
3901,B3,565.25,0.25,26,70.6
3902,B2,565.25,0.25,30,70.6
3903,E4,565.5,0.25,28,70.6
3904,G#4,565.5,0.5,43,70.6
3905,G#3,565.5,0.25,28,70.6
3906,E3,565.5,0.25,28,70.6
3907,B3,565.75,0.25,28,70.6
3908,B2,565.75,0.25,26,70.6
3909,E4,566.0,0.25,30,70.6
3910,A4,566.0,0.5,46,70.6
3911,G#3,566.0,0.25,28,70.6
3912,F3,566.0,0.25,28,70.6
3913,B3,566.25,0.25,28,70.6
3914,B2,566.25,0.25,26,70.6
3915,E4,566.5,0.25,36,70.6
3916,C#5,566.5,0.5,54,70.6
3917,F#3,566.5,0.25,30,70.6
3918,A3,566.5,0.25,30,70.6
3919,B3,566.75,0.25,31,70.6
3920,B2,566.75,0.25,26,70.6
3921,F#4,567.0,0.25,37,70.6
3922,B4,567.0,0.5,47,70.6
3923,A3,567.0,0.25,30,70.6
3924,C#4,567.0,0.25,30,70.6
3925,B3,567.25,0.25,26,70.6
3926,B2,567.25,0.25,27,70.6
3927,E-4,567.5,0.25,25,70.6
3928,F#4,567.5,0.5,38,70.6
3929,B3,567.5,0.25,28,70.6
3930,G#3,567.5,0.25,28,70.6
3931,B3,567.75,0.25,27,70.6
3932,B2,567.75,0.25,26,70.6
3933,B3,568.0,229/1000,30,70.6
3934,G#4,568.0,1.0,42,70.6
3935,A3,568.0,0.25,26,70.6
3936,F#3,568.0,0.25,26,70.6
3937,B3,568.25,0.25,28,70.6
3938,B2,568.25,0.25,27,70.6
3939,E4,568.5,0.25,36,70.6
3940,E3,568.5,0.5,28,70.6
3941,G#3,568.5,0.5,28,70.6
3942,B3,568.75,0.25,31,70.6
3943,E4,569.0,0.25,37,70.6
3944,F#2,569.0,0.5,31,70.6
3945,B3,569.25,0.25,31,70.6
3946,E4,569.5,0.25,28,70.6
3947,G#4,569.5,0.5,43,70.6
3948,E2,569.5,0.5,34,70.6
3949,B3,569.75,0.25,28,70.6
3950,E4,570.0,0.25,30,70.6
3951,A4,570.0,0.5,46,70.6
3952,C#3,570.0,0.5,37,70.6
3953,B3,570.25,0.25,28,70.6
3954,E4,570.5,0.25,36,70.6
3955,C#5,570.5,0.5,54,70.6
3956,B2,570.5,1.5,34,70.6
3957,B3,570.75,0.25,31,70.6
3958,F#4,571.0,0.25,37,70.6
3959,B4,571.0,0.5,47,70.6
3960,A3,571.0,0.5,40,70.6
3961,B3,571.25,0.25,26,70.6
3962,E-4,571.5,0.25,25,70.6
3963,F#4,571.5,0.5,38,70.6
3964,G#3,571.5,0.5,39,70.6
3965,B3,571.75,0.25,27,70.6
3966,E4,572.0,0.5,45,70.6
3967,C#3,572.0,0.25,45,70.6
3968,B3,572.0,1.0,37,70.6
3969,E4,572.0,1.0,37,70.6
3970,G#4,572.0,1.0,37,70.6
3971,B2,572.25,0.25,49,70.6
3972,E4,572.5,0.5,52,70.6
3973,B-2,572.5,1.0,52,70.6
3974,G#4,573.5,0.5,45,70.6
3975,G#5,573.5,0.5,45,70.6
3976,B-3,573.5,1.0,42,70.6
3977,E4,573.5,1.0,42,70.6
3978,F#4,573.5,1.0,42,70.6
3979,A4,574.0,0.5,47,70.6
3980,A5,574.0,0.5,47,70.6
3981,C#5,574.5,0.5,48,70.6
3982,C#6,574.5,0.5,48,70.6
3983,B3,574.5,0.5,24,70.6
3984,E4,574.5,0.5,24,70.6
3985,G#4,574.5,0.5,24,70.6
3986,B4,575.0,0.5,43,70.6
3987,B5,575.0,0.5,43,70.6
3988,E-6,575.5,0.5,40,70.6
3989,E-5,575.5,0.5,40,70.6
3990,F#4,575.5,0.5,25,70.6
3991,B3,575.5,0.5,25,70.6
3992,E6,576.0,1.0,46,70.6
3993,E5,576.0,1.0,46,70.6
3994,E4,576.5,0.5,26,70.6
3995,C#4,576.5,0.5,26,70.6
3996,C#4,577.5,0.5,28,70.6
3997,A3,577.5,0.5,28,70.6
3998,F#3,578.5,0.5,28,70.6
3999,A3,578.5,0.5,28,70.6
4000,G#4,579.5,0.5,31,70.6
4001,E-3,579.5,0.5,29,70.6
4002,F#3,579.5,0.5,29,70.6
4003,F#4,580.0,0.5,31,70.6
4004,F#5,580.5,0.5,37,70.6
4005,E5,580.5,0.5,37,70.6
4006,C#5,580.5,0.5,37,70.6
4007,E-4,580.5,0.5,30,70.6
4008,B3,580.5,0.5,30,70.6
4009,C#5,581.0,1.0,38,70.6
4010,E5,581.0,0.5,45,70.6
4011,C#6,581.5,0.5,50,70.6
4012,E4,581.5,0.5,28,70.6
4013,C#4,581.5,0.5,28,70.6
4014,C#6,582.0,0.25,45,70.6
4015,E4,582.0,0.5,28,70.6
4016,C#4,582.0,0.5,28,70.6
4017,B5,582.25,0.25,37,70.6
4018,G#5,582.5,0.25,38,70.6
4019,A3,582.5,0.5,28,70.6
4020,E5,582.75,0.25,38,70.6
4021,E-5,583.0,0.25,39,70.6
4022,B3,583.0,0.5,24,70.6
4023,C#5,583.25,0.25,39,70.6
4024,B4,583.5,0.25,39,70.6
4025,E3,583.5,0.5,27,70.6
4026,A4,583.75,0.25,40,70.6
4027,G#4,584.0,0.25,43,70.6
4028,F#4,584.25,0.25,40,70.6
4029,E4,584.5,0.188,36,70.6
4030,E5,584.75,0.25,49,70.6
4031,E-5,585.0,0.25,46,70.6
4032,C#5,585.25,0.188,45,70.6
4033,C#6,585.5,0.25,55,70.6
4034,B5,585.75,0.25,52,70.6
4035,A5,586.0,0.25,50,70.6
4036,G#5,586.25,0.188,49,70.6
4037,A6,586.5,0.25,59,70.6
4038,G#6,586.75,0.188,56,70.6
4039,G#6,587.0,0.25,57,70.6
4040,F#6,587.25,0.25,55,70.6
4041,A6,587.5,0.25,58,70.6
4042,F#6,587.75,0.25,56,70.6
4043,E6,588.0,0.25,55,70.6
4044,E-6,588.25,0.25,56,70.6
4045,F#6,588.5,0.25,63,70.6
4046,A5,588.75,0.188,54,70.6
4047,A5,589.0,0.25,50,70.6
4048,G#5,589.25,0.25,47,70.6
4049,E6,589.5,0.25,50,70.6
4050,G#5,589.75,0.25,46,70.6
4051,F#5,590.0,0.25,40,70.6
4052,C#6,590.25,0.25,37,70.6
4053,B5,590.5,0.25,40,70.6
4054,E-5,590.75,0.25,36,70.6
4055,E5,591.0,0.5,40,70.6
