,note_name,start_time,duration,velocity,tempo
0,B-3,3.0,0.25,42,141.2
1,D4,3.0,1.0,50,141.2
2,A3,3.25,0.25,40,141.2
3,B-3,3.5,0.25,45,141.2
4,F3,3.75,0.25,39,141.2
5,D4,4.0,0.188,38,141.2
6,F4,4.0,0.188,38,141.2
7,B-1,4.0,0.188,33,141.2
8,B-2,4.0,0.188,33,141.2
9,B-3,5.0,0.188,35,141.2
10,D4,5.0,0.188,35,141.2
11,B-1,5.0,0.188,30,141.2
12,B-2,5.0,0.188,30,141.2
13,B-3,7.0,0.25,42,141.2
14,D4,7.0,1.0,50,141.2
15,A3,7.25,0.25,40,141.2
16,B-3,7.5,0.25,45,141.2
17,F3,7.75,0.25,39,141.2
18,D4,8.0,0.188,38,141.2
19,F4,8.0,0.188,38,141.2
20,B-1,8.0,0.188,33,141.2
21,B-2,8.0,0.188,33,141.2
22,B-3,9.0,0.188,35,141.2
23,D4,9.0,0.188,35,141.2
24,B-1,9.0,0.188,30,141.2
25,B-2,9.0,0.188,30,141.2
26,D4,11.0,0.5,50,141.2
27,B-3,11.0,11/40,42,141.2
28,A3,11.25,11/40,40,141.2
29,B-3,11.5,11/40,46,141.2
30,F3,11.75,0.25,40,141.2
31,F4,12.0,0.5,53,141.2
32,D4,12.0,11/40,44,141.2
33,C#4,12.25,11/40,42,141.2
34,D4,12.5,11/40,49,141.2
35,B-3,12.75,0.25,42,141.2
36,F4,13.0,11/40,47,141.2
37,B-4,13.0,0.5,56,141.2
38,E4,13.25,11/40,45,141.2
39,F4,13.5,11/40,51,141.2
40,D4,13.75,0.25,45,141.2
41,B-4,14.0,11/40,49,141.2
42,D5,14.0,0.5,59,141.2
43,A4,14.25,11/40,47,141.2
44,B-4,14.5,11/40,54,141.2
45,F4,14.75,0.25,47,141.2
46,D5,15.0,11/40,52,141.2
47,F5,15.0,0.5,62,141.2
48,C#5,15.25,11/40,50,141.2
49,D5,15.5,11/40,57,141.2
50,B-4,15.75,0.25,49,141.2
51,B-5,16.0,3.0,72,141.2
52,B-2,16.0,0.25,44,141.2
53,D3,16.25,0.25,31,141.2
54,F3,16.5,0.25,31,141.2
55,B-3,16.75,0.25,31,141.2
56,B-2,17.0,0.25,44,141.2
57,D3,17.25,0.25,32,141.2
58,F3,17.5,0.25,32,141.2
59,B-3,17.75,0.25,32,141.2
60,B-2,18.0,0.25,44,141.2
61,D3,18.25,0.25,33,141.2
62,F3,18.5,0.25,33,141.2
63,B-3,18.75,0.25,33,141.2
64,A5,19.0,0.25,60,141.2
65,B-2,19.0,0.25,44,141.2
66,B-5,19.25,0.25,57,141.2
67,D3,19.25,0.25,33,141.2
68,C6,19.5,0.25,60,141.2
69,F3,19.5,0.25,33,141.2
70,B-5,19.75,0.25,54,141.2
71,B-3,19.75,0.25,33,141.2
72,A5,20.0,0.5,60,141.2
73,B-2,20.0,0.25,44,141.2
74,E-3,20.25,0.25,31,141.2
75,G5,20.5,0.5,51,141.2
76,G3,20.5,0.25,31,141.2
77,B-3,20.75,0.25,31,141.2
78,F5,21.0,0.5,54,141.2
79,B-2,21.0,0.25,42,141.2
80,E-3,21.25,0.25,28,141.2
81,E-5,21.5,0.5,50,141.2
82,G3,21.5,0.25,28,141.2
83,B-3,21.75,0.25,28,141.2
84,D5,22.0,0.5,59,141.2
85,B-2,22.0,0.25,41,141.2
86,E-3,22.25,0.25,29,141.2
87,C5,22.5,0.5,48,141.2
88,F3,22.5,0.25,29,141.2
89,A3,22.75,0.25,29,141.2
90,G5,23.0,0.5,56,141.2
91,B-2,23.0,0.25,41,141.2
92,E-3,23.25,0.25,31,141.2
93,F5,23.5,0.5,47,141.2
94,F3,23.5,0.25,31,141.2
95,A3,23.75,0.25,31,141.2
96,E-5,24.0,1.0,54,141.2
97,B-2,24.0,0.25,44,141.2
98,D3,24.25,0.25,31,141.2
99,F3,24.5,0.25,31,141.2
100,B-3,24.75,0.25,31,141.2
101,D5,25.0,1.0,47,141.2
102,B-2,25.0,0.25,44,141.2
103,D3,25.25,0.25,32,141.2
104,F3,25.5,0.25,32,141.2
105,B-3,25.75,0.25,32,141.2
106,B-2,26.0,0.25,44,141.2
107,D3,26.25,0.25,32,141.2
108,F3,26.5,0.25,32,141.2
109,G#3,26.75,0.25,32,141.2
110,A4,27.0,0.25,58,141.2
111,B-2,27.0,0.25,44,141.2
112,B-4,27.25,0.25,54,141.2
113,D3,27.25,0.25,32,141.2
114,C5,27.5,0.25,58,141.2
115,F3,27.5,0.25,32,141.2
116,B-4,27.75,0.25,54,141.2
117,G#3,27.75,0.25,32,141.2
118,G#4,28.0,0.5,60,141.2
119,B-2,28.0,0.25,44,141.2
120,E-3,28.25,0.25,32,141.2
121,G4,28.5,0.5,54,141.2
122,G3,28.5,0.25,32,141.2
123,E-3,28.75,0.25,32,141.2
124,F4,29.0,0.5,66,141.2
125,B-2,29.0,0.25,44,141.2
126,E-3,29.25,0.25,36,141.2
127,E-4,29.5,0.5,61,141.2
128,G3,29.5,0.25,36,141.2
129,E-3,29.75,0.25,36,141.2
130,D4,30.0,0.5,69,141.2
131,B-2,30.0,0.25,48,141.2
132,C3,30.25,0.25,37,141.2
133,C4,30.5,0.5,62,141.2
134,E-3,30.5,0.25,38,141.2
135,F3,30.75,0.25,40,141.2
136,E-4,31.0,0.5,73,141.2
137,B-2,31.0,0.25,50,141.2
138,C3,31.25,0.25,40,141.2
139,A3,31.5,0.5,63,141.2
140,E-3,31.5,0.25,39,141.2
141,F3,31.75,0.25,43,141.2
142,B-3,32.0,0.25,79,141.2
143,B-2,32.0,0.25,60,141.2
144,D4,32.5,0.25,68,141.2
145,C4,32.75,0.25,65,141.2
146,B-3,33.0,0.25,71,141.2
147,B-2,33.0,0.25,53,141.2
148,A3,33.25,0.25,65,141.2
149,A2,33.25,0.25,46,141.2
150,B-3,33.5,0.25,71,141.2
151,B-2,33.5,0.25,53,141.2
152,G3,33.75,0.25,65,141.2
153,G2,33.75,0.25,46,141.2
154,F3,34.0,0.25,79,141.2
155,F2,34.0,0.25,60,141.2
156,G4,34.5,0.25,68,141.2
157,F4,34.75,0.25,65,141.2
158,E-4,35.0,0.25,71,141.2
159,E-3,35.0,0.25,53,141.2
160,D4,35.25,0.25,65,141.2
161,D3,35.25,0.25,46,141.2
162,E-4,35.5,0.25,71,141.2
163,E-3,35.5,0.25,53,141.2
164,C4,35.75,0.25,65,141.2
165,C3,35.75,0.25,46,141.2
166,B-3,36.0,0.25,79,141.2
167,B-2,36.0,0.25,60,141.2
168,D5,36.5,0.25,68,141.2
169,C5,36.75,0.25,65,141.2
170,B-4,37.0,0.25,71,141.2
171,B-3,37.0,0.25,53,141.2
172,A4,37.25,0.25,65,141.2
173,A3,37.25,0.25,46,141.2
174,B-4,37.5,0.25,71,141.2
175,B-3,37.5,0.25,53,141.2
176,G4,37.75,0.25,65,141.2
177,G3,37.75,0.25,46,141.2
178,F4,38.0,0.25,79,141.2
179,F3,38.0,0.25,60,141.2
180,G5,38.5,0.25,78,141.2
181,F5,38.75,0.25,74,141.2
182,E-5,39.0,0.25,81,141.2
183,E-4,39.0,0.25,60,141.2
184,D5,39.25,0.25,74,141.2
185,D4,39.25,0.25,52,141.2
186,E-5,39.5,0.25,81,141.2
187,E-4,39.5,0.25,60,141.2
188,C5,39.75,0.25,74,141.2
189,C4,39.75,0.25,52,141.2
190,B-4,40.0,0.25,90,141.2
191,B-3,40.0,0.25,69,141.2
192,C5,40.5,0.25,68,141.2
193,C4,40.5,0.25,53,141.2
194,D5,40.75,0.25,68,141.2
195,D4,40.75,0.25,48,141.2
196,E-5,41.0,0.25,77,141.2
197,E-4,41.0,0.25,54,141.2
198,F5,41.25,0.25,70,141.2
199,F4,41.25,0.25,48,141.2
200,G5,41.5,0.25,70,141.2
201,G4,41.5,0.25,48,141.2
202,A5,41.75,0.25,71,141.2
203,A4,41.75,0.25,49,141.2
204,B-5,42.0,0.062,73,141.2
205,B-4,42.0,0.25,56,141.2
206,C6,42.062,0.062,65,141.2
207,B-5,42.125,0.125,81,141.2
208,A5,42.25,0.25,72,141.2
209,A4,42.25,0.25,50,141.2
210,B-5,42.5,0.25,73,141.2
211,B-4,42.5,0.25,50,141.2
212,C6,42.75,0.25,74,141.2
213,C5,42.75,0.25,51,141.2
214,D6,43.0,0.062,74,141.2
215,D5,43.0,0.25,58,141.2
216,E-6,43.062,0.062,66,141.2
217,D6,43.125,0.25,83,141.2
218,C6,43.25,0.25,75,141.2
219,C5,43.25,0.25,52,141.2
220,D6,43.5,0.25,76,141.2
221,D5,43.5,0.25,52,141.2
222,E6,43.75,0.25,76,141.2
223,E5,43.75,0.25,53,141.2
224,F6,44.0,0.25,92,141.2
225,F5,44.0,0.25,73,141.2
226,F4,45.0,0.25,79,141.2
227,F3,45.0,0.25,60,141.2
228,B-2,47.0,0.25,65,141.2
229,A2,47.25,0.25,57,141.2
230,B-2,47.5,0.25,62,141.2
231,F2,47.75,0.25,55,141.2
232,D3,48.0,0.25,65,141.2
233,C#3,48.25,0.25,58,141.2
234,D3,48.5,0.25,63,141.2
235,B-2,48.75,0.25,57,141.2
236,F3,49.0,0.25,65,141.2
237,E3,49.25,0.25,58,141.2
238,F3,49.5,0.25,63,141.2
239,D3,49.75,0.25,57,141.2
240,B-3,50.0,0.25,65,141.2
241,A3,50.25,0.25,58,141.2
242,B-3,50.5,0.25,63,141.2
243,F3,50.75,0.25,57,141.2
244,D4,51.0,0.25,63,141.2
245,C#4,51.25,0.25,58,141.2
246,D4,51.5,0.25,62,141.2
247,B-3,51.75,0.25,57,141.2
248,F4,52.0,1.75,72,141.2
249,E-4,53.75,0.25,63,141.2
250,F5,54.0,2.0,75,141.2
251,D4,54.0,0.75,71,141.2
252,C4,54.75,0.25,63,141.2
253,B-3,55.0,0.75,72,141.2
254,G#3,55.75,0.25,63,141.2
255,F5,56.0,2.0,75,141.2
256,G3,56.0,2.0,72,141.2
257,B4,57.0,1.0,56,141.2
258,G#3,58.0,1.0,48,141.2
259,C5,58.0,1.0,48,141.2
260,E-5,58.0,1.0,48,141.2
261,A4,59.0,1.0,41,141.2
262,D5,59.0,1.0,49,141.2
263,F#3,59.0,1.0,42,141.2
264,B-4,60.0,1.0,55,141.2
265,D5,60.0,1.0,49,141.2
266,G3,60.0,1.0,51,141.2
267,G4,61.0,1.0,41,141.2
268,C5,61.0,2.0,49,141.2
269,E3,61.0,1.0,44,141.2
270,A4,62.0,1.0,55,141.2
271,F3,62.0,1.0,52,141.2
272,D3,63.0,1.0,34,141.2
273,F4,63.0,1.0,46,141.2
274,B4,63.0,1.0,46,141.2
275,C5,64.0,0.25,68,141.2
276,C2,64.0,0.5,51,141.2
277,C3,64.0,0.5,51,141.2
278,E4,64.25,0.25,37,141.2
279,G4,64.25,0.25,37,141.2
280,C5,64.5,0.25,62,141.2
281,C4,64.5,57/200,42,141.2
282,E4,64.75,0.25,36,141.2
283,G4,64.75,0.25,36,141.2
284,C5,65.0,0.25,64,141.2
285,C4,65.0,57/200,42,141.2
286,E4,65.25,0.25,38,141.2
287,G4,65.25,0.25,38,141.2
288,D5,65.5,0.25,68,141.2
289,C4,65.5,57/200,42,141.2
290,E4,65.75,0.25,37,141.2
291,G4,65.75,0.25,37,141.2
292,E5,66.0,0.25,62,141.2
293,C4,66.0,57/200,51,141.2
294,G4,66.25,0.25,42,141.2
295,B-4,66.25,0.25,42,141.2
296,C5,66.5,0.25,68,141.2
297,C4,66.5,57/200,43,141.2
298,G4,66.75,0.25,42,141.2
299,B-4,66.75,0.25,42,141.2
300,D5,67.0,0.25,68,141.2
301,C4,67.0,57/200,43,141.2
302,G4,67.25,0.25,42,141.2
303,B-4,67.25,0.25,42,141.2
304,E5,67.5,0.25,70,141.2
305,C4,67.5,57/200,43,141.2
306,G4,67.75,0.25,42,141.2
307,B-4,67.75,0.25,42,141.2
308,F5,68.0,0.25,68,141.2
309,C4,68.0,57/200,51,141.2
310,F4,68.25,0.25,37,141.2
311,A4,68.25,0.25,37,141.2
312,F5,68.5,0.25,62,141.2
313,C4,68.5,57/200,42,141.2
314,F4,68.75,0.25,36,141.2
315,A4,68.75,0.25,36,141.2
316,F5,69.0,0.25,64,141.2
317,C4,69.0,57/200,42,141.2
318,F4,69.25,0.25,38,141.2
319,A4,69.25,0.25,38,141.2
320,E5,69.5,0.25,68,141.2
321,C4,69.5,57/200,42,141.2
322,F4,69.75,0.25,37,141.2
323,A4,69.75,0.25,37,141.2
324,D5,70.0,0.25,62,141.2
325,C4,70.0,57/200,51,141.2
326,F4,70.25,0.25,42,141.2
327,G#4,70.25,0.25,42,141.2
328,C5,70.5,0.25,68,141.2
329,C4,70.5,57/200,43,141.2
330,F4,70.75,0.25,42,141.2
331,G#4,70.75,0.25,42,141.2
332,B4,71.0,0.25,68,141.2
333,C4,71.0,57/200,43,141.2
334,F4,71.25,0.25,42,141.2
335,G#4,71.25,0.25,42,141.2
336,D5,71.5,0.25,70,141.2
337,C4,71.5,3/10,43,141.2
338,F4,71.75,0.25,42,141.2
339,G#4,71.75,0.25,42,141.2
340,C5,72.0,0.25,68,141.2
341,C2,72.0,0.5,51,141.2
342,C3,72.0,0.5,51,141.2
343,E4,72.25,0.25,37,141.2
344,G4,72.25,0.25,37,141.2
345,B4,72.5,0.25,62,141.2
346,C4,72.5,57/200,42,141.2
347,E4,72.75,0.25,36,141.2
348,G4,72.75,0.25,36,141.2
349,C5,73.0,0.25,64,141.2
350,C4,73.0,57/200,42,141.2
351,E4,73.25,0.25,38,141.2
352,G4,73.25,0.25,38,141.2
353,D5,73.5,0.25,68,141.2
354,C4,73.5,57/200,42,141.2
355,E4,73.75,0.25,37,141.2
356,G4,73.75,0.25,37,141.2
357,E5,74.0,0.25,62,141.2
358,C4,74.0,57/200,51,141.2
359,G4,74.25,0.25,42,141.2
360,B-4,74.25,0.25,42,141.2
361,C5,74.5,0.25,68,141.2
362,C4,74.5,57/200,43,141.2
363,G4,74.75,0.25,42,141.2
364,B-4,74.75,0.25,42,141.2
365,D5,75.0,0.25,68,141.2
366,C4,75.0,57/200,43,141.2
367,G4,75.25,0.25,42,141.2
368,B-4,75.25,0.25,42,141.2
369,E5,75.5,0.25,70,141.2
370,C4,75.5,57/200,43,141.2
371,G4,75.75,0.25,42,141.2
372,B-4,75.75,0.25,42,141.2
373,F5,76.0,0.25,68,141.2
374,C4,76.0,57/200,51,141.2
375,F4,76.25,0.25,37,141.2
376,A4,76.25,0.25,37,141.2
377,F5,76.5,0.25,62,141.2
378,C4,76.5,57/200,42,141.2
379,F4,76.75,0.25,36,141.2
380,A4,76.75,0.25,36,141.2
381,F5,77.0,0.25,64,141.2
382,C4,77.0,57/200,42,141.2
383,F4,77.25,0.25,38,141.2
384,A4,77.25,0.25,38,141.2
385,E5,77.5,0.25,68,141.2
386,C4,77.5,57/200,42,141.2
387,F4,77.75,0.25,37,141.2
388,A4,77.75,0.25,37,141.2
389,D5,78.0,0.25,62,141.2
390,C4,78.0,57/200,51,141.2
391,F4,78.25,0.25,42,141.2
392,G#4,78.25,0.25,42,141.2
393,C5,78.5,0.25,68,141.2
394,C4,78.5,57/200,43,141.2
395,F4,78.75,0.25,42,141.2
396,G#4,78.75,0.25,42,141.2
397,B4,79.0,0.25,68,141.2
398,C4,79.0,57/200,43,141.2
399,F4,79.25,0.25,42,141.2
400,G#4,79.25,0.25,42,141.2
401,D5,79.5,0.25,70,141.2
402,C4,79.5,3/10,43,141.2
403,F4,79.75,0.25,42,141.2
404,G#4,79.75,0.25,42,141.2
405,C5,80.0,0.25,78,141.2
406,C3,80.0,19/40,51,141.2
407,E4,80.25,0.25,42,141.2
408,G4,80.25,0.25,42,141.2
409,C5,80.5,0.25,68,141.2
410,C4,80.5,57/200,43,141.2
411,E4,80.75,0.25,42,141.2
412,G4,80.75,0.25,42,141.2
413,B4,81.0,0.25,68,141.2
414,C4,81.0,57/200,43,141.2
415,F4,81.25,0.25,42,141.2
416,G#4,81.25,0.25,42,141.2
417,D5,81.5,0.25,70,141.2
418,C4,81.5,3/10,43,141.2
419,F4,81.75,0.25,42,141.2
420,G#4,81.75,0.25,42,141.2
421,C5,82.0,0.25,76,141.2
422,C3,82.0,19/40,51,141.2
423,E4,82.25,0.25,42,141.2
424,G4,82.25,0.25,42,141.2
425,C5,82.5,0.25,68,141.2
426,C4,82.5,57/200,43,141.2
427,E4,82.75,0.25,42,141.2
428,G4,82.75,0.25,42,141.2
429,B4,83.0,0.25,68,141.2
430,C4,83.0,57/200,43,141.2
431,F4,83.25,0.25,42,141.2
432,G#4,83.25,0.25,42,141.2
433,D5,83.5,0.25,70,141.2
434,C4,83.5,3/10,43,141.2
435,F4,83.75,0.25,42,141.2
436,G#4,83.75,0.25,42,141.2
437,C3,84.0,1.0,51,141.2
438,E4,84.0,0.25,63,141.2
439,G4,84.0,0.25,63,141.2
440,C5,84.0,0.25,63,141.2
441,C4,84.25,11/40,35,141.2
442,D4,84.5,11/40,40,141.2
443,E4,84.75,11/40,35,141.2
444,F4,85.0,11/40,40,141.2
445,G4,85.25,11/40,35,141.2
446,A4,85.5,11/40,40,141.2
447,B4,85.75,11/40,33,141.2
448,C5,86.0,11/40,40,141.2
449,B4,86.25,11/40,33,141.2
450,C5,86.5,11/40,40,141.2
451,B4,86.75,11/40,33,141.2
452,C5,87.0,11/40,40,141.2
453,B4,87.25,11/40,34,141.2
454,C5,87.5,11/40,40,141.2
455,B4,87.75,0.25,33,141.2
456,A4,88.0,2.0,40,141.2
457,C5,88.0,2.0,40,141.2
458,F3,88.25,11/40,31,141.2
459,G3,88.5,11/40,36,141.2
460,A3,88.75,11/40,31,141.2
461,B-3,89.0,11/40,36,141.2
462,C4,89.25,11/40,31,141.2
463,D4,89.5,11/40,36,141.2
464,E4,89.75,11/40,29,141.2
465,A4,90.0,1.0,49,141.2
466,F4,90.0,11/40,36,141.2
467,E4,90.25,11/40,29,141.2
468,F4,90.5,11/40,36,141.2
469,E4,90.75,11/40,29,141.2
470,F5,91.0,1.0,47,141.2
471,F4,91.0,11/40,36,141.2
472,E4,91.25,11/40,27,141.2
473,F4,91.5,11/40,34,141.2
474,E4,91.75,0.25,26,141.2
475,F4,92.0,11/40,30,141.2
476,A4,92.0,1.0,45,141.2
477,C5,92.0,1.0,45,141.2
478,E4,92.25,11/40,25,141.2
479,F4,92.5,11/40,30,141.2
480,E4,92.75,11/40,25,141.2
481,F4,93.0,11/40,30,141.2
482,A5,93.0,1.0,40,141.2
483,F5,93.0,1.0,40,141.2
484,E4,93.25,11/40,25,141.2
485,F4,93.5,11/40,30,141.2
486,E4,93.75,11/40,25,141.2
487,F4,94.0,11/40,30,141.2
488,A4,94.0,1.0,46,141.2
489,C5,94.0,1.0,46,141.2
490,E4,94.25,11/40,25,141.2
491,F4,94.5,11/40,30,141.2
492,E4,94.75,11/40,25,141.2
493,F4,95.0,11/40,30,141.2
494,C6,95.0,1.0,40,141.2
495,A5,95.0,1.0,40,141.2
496,E4,95.25,11/40,25,141.2
497,F4,95.5,11/40,30,141.2
498,E4,95.75,0.25,25,141.2
499,F4,96.0,0.25,30,141.2
500,A4,96.0,2.0,40,141.2
501,C5,96.0,2.0,40,141.2
502,F3,96.25,11/40,31,141.2
503,G3,96.5,11/40,36,141.2
504,A3,96.75,11/40,31,141.2
505,B-3,97.0,11/40,36,141.2
506,C4,97.25,11/40,31,141.2
507,D4,97.5,11/40,36,141.2
508,E4,97.75,11/40,29,141.2
509,A4,98.0,1.0,49,141.2
510,F4,98.0,11/40,36,141.2
511,E4,98.25,11/40,29,141.2
512,F4,98.5,11/40,36,141.2
513,E4,98.75,11/40,29,141.2
514,F5,99.0,1.0,46,141.2
515,F4,99.0,11/40,36,141.2
516,E4,99.25,11/40,27,141.2
517,F4,99.5,11/40,34,141.2
518,E4,99.75,0.25,26,141.2
519,F4,100.0,11/40,30,141.2
520,A4,100.0,1.0,45,141.2
521,C5,100.0,1.0,45,141.2
522,E4,100.25,11/40,25,141.2
523,F4,100.5,11/40,30,141.2
524,E4,100.75,11/40,25,141.2
525,F4,101.0,11/40,30,141.2
526,A5,101.0,1.0,40,141.2
527,F5,101.0,1.0,40,141.2
528,E4,101.25,11/40,25,141.2
529,F4,101.5,11/40,30,141.2
530,E4,101.75,11/40,25,141.2
531,F4,102.0,11/40,30,141.2
532,A4,102.0,1.0,46,141.2
533,C5,102.0,1.0,46,141.2
534,E4,102.25,11/40,25,141.2
535,F4,102.5,11/40,30,141.2
536,E4,102.75,11/40,25,141.2
537,F4,103.0,11/40,30,141.2
538,C6,103.0,1.0,40,141.2
539,A5,103.0,1.0,40,141.2
540,E-4,103.25,11/40,25,141.2
541,F4,103.5,11/40,30,141.2
542,E-4,103.75,0.25,25,141.2
543,C#4,104.0,0.375,39,141.2
544,A4,104.0,2.0,45,141.2
545,C5,104.0,2.0,45,141.2
546,D5,104.0,2.0,45,141.2
547,F#5,104.0,2.0,45,141.2
548,D4,104.25,0.25,34,141.2
549,C#4,104.5,0.375,39,141.2
550,D4,104.75,0.25,35,141.2
551,B3,105.0,0.375,41,141.2
552,C4,105.25,0.25,35,141.2
553,B3,105.5,0.375,42,141.2
554,C4,105.75,0.25,36,141.2
555,G#3,106.0,0.375,44,141.2
556,A3,106.25,0.25,37,141.2
557,G#3,106.5,0.375,45,141.2
558,A3,106.75,0.25,37,141.2
559,F3,107.0,0.375,44,141.2
560,F#3,107.25,0.25,38,141.2
561,F3,107.5,0.375,44,141.2
562,F#3,107.75,0.25,39,141.2
563,C#3,108.0,0.375,45,141.2
564,D3,108.25,0.25,39,141.2
565,C#3,108.5,0.375,46,141.2
566,D3,108.75,0.25,40,141.2
567,F#5,109.0,1.0,70,141.2
568,B2,109.0,0.375,48,141.2
569,C3,109.25,0.25,41,141.2
570,B2,109.5,0.375,48,141.2
571,C3,109.75,0.25,41,141.2
572,A5,110.0,1.0,68,141.2
573,G#2,110.0,0.375,54,141.2
574,A2,110.25,0.25,42,141.2
575,G#2,110.5,0.375,52,141.2
576,A2,110.75,0.25,43,141.2
577,C6,111.0,1.0,66,141.2
578,F2,111.0,0.375,55,141.2
579,F#2,111.25,0.25,44,141.2
580,F2,111.5,0.375,51,141.2
581,F#2,111.75,0.25,44,141.2
582,F#5,112.0,2.0,72,141.2
583,C6,112.0,1.0,66,141.2
584,C#2,112.0,0.375,57,141.2
585,D2,112.25,0.25,44,141.2
586,C#2,112.5,0.375,51,141.2
587,D2,112.75,0.25,44,141.2
588,B-5,113.0,3.0,73,141.2
589,C#2,113.0,0.375,56,141.2
590,D2,113.25,0.25,50,141.2
591,C#2,113.5,0.375,57,141.2
592,D2,113.75,229/1000,44,141.2
593,G5,114.0,2.0,75,141.2
594,D2,114.0,0.375,61,141.2
595,E-2,114.25,0.25,52,141.2
596,D2,114.5,0.375,58,141.2
597,E-2,114.75,0.25,52,141.2
598,C#5,115.0,1.0,66,141.2
599,E-2,115.0,0.375,58,141.2
600,E2,115.25,0.25,44,141.2
601,E-2,115.5,0.375,54,141.2
602,E2,115.75,0.25,44,141.2
603,C5,116.0,2.0,74,141.2
604,G5,116.0,1.0,75,141.2
605,B-5,116.0,1.0,73,141.2
606,E2,116.0,0.375,56,141.2
607,F2,116.25,0.25,48,141.2
608,E2,116.5,0.375,51,141.2
609,F2,116.75,0.25,44,141.2
610,E2,117.0,0.375,51,141.2
611,A5,117.0,1.0,62,141.2
612,F5,117.0,1.0,62,141.2
613,F2,117.25,0.25,44,141.2
614,E2,117.5,0.375,51,141.2
615,F2,117.75,229/1000,44,141.2
616,A1,118.0,0.375,51,141.2
617,B-4,118.0,1.0,65,141.2
618,D5,118.0,1.0,65,141.2
619,G5,118.0,1.0,65,141.2
620,B-1,118.25,0.25,44,141.2
621,A1,118.5,0.375,51,141.2
622,B-1,118.75,229/1000,44,141.2
623,B1,119.0,0.375,51,141.2
624,G4,119.0,1.0,57,141.2
625,B-4,119.0,1.0,57,141.2
626,E5,119.0,1.0,57,141.2
627,C2,119.25,0.25,44,141.2
628,B1,119.5,0.375,51,141.2
629,C2,119.75,229/1000,44,141.2
630,F1,120.0,0.5,48,141.2
631,F4,120.0,0.5,68,141.2
632,A4,120.0,0.5,68,141.2
633,F5,120.0,0.5,68,141.2
634,F4,122.0,2.0,80,141.2
635,A4,122.0,2.0,80,141.2
636,F3,122.0,2.0,59,141.2
637,A3,122.0,2.0,59,141.2
638,D4,124.0,1.0,62,141.2
639,F4,124.0,1.0,62,141.2
640,D3,124.0,1.0,45,141.2
641,F3,124.0,1.0,45,141.2
642,B-3,125.0,0.5,64,141.2
643,D4,125.0,0.5,64,141.2
644,B-2,125.0,0.5,45,141.2
645,D3,125.0,0.5,45,141.2
646,G4,126.0,1.5,80,141.2
647,B-4,126.0,1.5,80,141.2
648,G3,126.0,1.5,59,141.2
649,B-3,126.0,1.5,59,141.2
650,F4,127.5,0.5,62,141.2
651,A4,127.5,0.5,62,141.2
652,F3,127.5,0.5,45,141.2
653,A3,127.5,0.5,45,141.2
654,G4,128.0,979/1000,70,141.2
655,E4,128.0,979/1000,70,141.2
656,E3,128.0,1.0,54,141.2
657,G3,128.0,1.0,54,141.2
658,C4,129.0,0.5,62,141.2
659,E4,129.0,0.5,62,141.2
660,C3,129.0,0.5,48,141.2
661,E3,129.0,0.5,48,141.2
662,A4,130.0,2.0,80,141.2
663,C5,130.0,2.0,80,141.2
664,A3,130.0,2.0,59,141.2
665,C4,130.0,2.0,59,141.2
666,F4,132.0,1.0,62,141.2
667,A4,132.0,1.0,62,141.2
668,F3,132.0,1.0,45,141.2
669,A3,132.0,1.0,45,141.2
670,D4,133.0,0.5,64,141.2
671,F4,133.0,0.5,64,141.2
672,D3,133.0,0.5,45,141.2
673,F3,133.0,0.5,45,141.2
674,B-4,134.0,1.5,80,141.2
675,D5,134.0,1.5,80,141.2
676,B-3,134.0,1.5,59,141.2
677,D4,134.0,1.5,59,141.2
678,A4,135.5,0.5,62,141.2
679,C5,135.5,0.5,62,141.2
680,A3,135.5,0.5,45,141.2
681,C4,135.5,0.5,45,141.2
682,B-4,136.0,979/1000,70,141.2
683,G4,136.0,979/1000,70,141.2
684,G3,136.0,1.0,54,141.2
685,B-3,136.0,1.0,54,141.2
686,E4,137.0,0.5,62,141.2
687,G4,137.0,0.5,62,141.2
688,E3,137.0,0.5,48,141.2
689,G3,137.0,0.5,48,141.2
690,B-4,138.0,1.5,80,141.2
691,G5,138.0,1.5,80,141.2
692,B-3,138.0,1.5,59,141.2
693,G4,138.0,1.5,59,141.2
694,A4,139.5,0.5,62,141.2
695,F5,139.5,0.5,62,141.2
696,A3,139.5,0.5,45,141.2
697,F4,139.5,0.5,45,141.2
698,G4,140.0,1.5,80,141.2
699,E5,140.0,1.5,80,141.2
700,G3,140.0,1.5,59,141.2
701,E4,140.0,1.5,59,141.2
702,F4,141.5,0.5,62,141.2
703,D5,141.5,0.5,62,141.2
704,F3,141.5,0.5,41,141.2
705,D4,141.5,0.5,41,141.2
706,E4,142.0,1.0,56,141.2
707,C5,142.0,1.0,56,141.2
708,E3,142.0,1.0,45,141.2
709,C4,142.0,1.0,45,141.2
710,B-3,143.0,1.0,48,141.2
711,B-4,143.0,1.0,48,141.2
712,D3,143.0,1.0,38,141.2
713,F3,143.0,1.0,38,141.2
714,A3,144.0,1.0,54,141.2
715,A4,144.0,1.0,54,141.2
716,C#3,144.0,1.0,40,141.2
717,E3,144.0,1.0,40,141.2
718,C#4,145.0,1.0,42,141.2
719,G4,145.0,1.0,42,141.2
720,A2,145.0,1.0,30,141.2
721,E3,145.0,1.0,30,141.2
722,D4,146.0,1.0,49,141.2
723,F4,146.0,1.0,49,141.2
724,B-2,146.0,1.0,36,141.2
725,D3,146.0,1.0,36,141.2
726,B2,147.0,1.0,31,141.2
727,F3,147.0,1.0,43,141.2
728,G3,147.0,1.0,43,141.2
729,D4,147.0,1.0,43,141.2
730,C3,148.0,2.0,38,141.2
731,F3,149.0,0.5,34,141.2
732,A3,149.0,0.5,34,141.2
733,C4,149.0,0.5,34,141.2
734,C2,150.0,2.0,32,141.2
735,C3,151.0,0.5,32,141.2
736,E3,151.0,0.5,32,141.2
737,G3,151.0,0.5,32,141.2
738,C4,151.0,0.5,32,141.2
739,F1,152.0,2.0,35,141.2
740,A3,153.0,0.938,31,141.2
741,F3,153.0,0.938,31,141.2
742,C3,153.0,0.938,31,141.2
743,A3,154.0,1.5,60,141.2
744,F3,154.0,1.5,60,141.2
745,F4,154.5,1.0,60,141.2
746,A4,154.5,1.0,60,141.2
747,F4,155.5,0.25,47,141.2
748,A4,155.5,0.25,47,141.2
749,F3,155.5,0.25,40,141.2
750,A3,155.5,0.25,40,141.2
751,D3,156.0,0.25,49,141.2
752,F3,156.0,0.25,49,141.2
753,D4,156.5,0.25,45,141.2
754,F4,156.5,0.25,45,141.2
755,B-2,157.0,0.25,43,141.2
756,D3,157.0,0.25,43,141.2
757,B-3,157.5,0.25,42,141.2
758,D4,157.5,0.25,42,141.2
759,B-3,158.0,1.5,60,141.2
760,G3,158.0,1.5,60,141.2
761,G4,158.5,1.0,66,141.2
762,B-4,158.5,1.0,66,141.2
763,F4,159.5,0.25,47,141.2
764,A4,159.5,0.25,47,141.2
765,F3,159.5,0.25,40,141.2
766,A3,159.5,0.25,40,141.2
767,E3,160.0,0.25,49,141.2
768,G3,160.0,0.25,49,141.2
769,E4,160.5,0.25,45,141.2
770,G4,160.5,0.25,45,141.2
771,C3,161.0,0.25,43,141.2
772,E3,161.0,0.25,43,141.2
773,C4,161.5,0.25,42,141.2
774,E4,161.5,0.25,42,141.2
775,C4,162.0,1.5,66,141.2
776,A3,162.0,1.5,66,141.2
777,A4,162.5,1.0,66,141.2
778,C5,162.5,1.0,66,141.2
779,A4,163.5,0.25,52,141.2
780,C5,163.5,0.25,52,141.2
781,A3,163.5,0.25,44,141.2
782,C4,163.5,0.25,44,141.2
783,F3,164.0,0.25,54,141.2
784,A3,164.0,0.25,54,141.2
785,F4,164.5,0.25,49,141.2
786,A4,164.5,0.25,49,141.2
787,D3,165.0,0.25,46,141.2
788,F3,165.0,0.25,46,141.2
789,D4,165.5,0.25,45,141.2
790,F4,165.5,0.25,45,141.2
791,D4,166.0,1.5,68,141.2
792,B-3,166.0,1.5,68,141.2
793,B-4,166.5,1.0,76,141.2
794,D5,166.5,1.0,76,141.2
795,A4,167.5,0.25,54,141.2
796,C5,167.5,0.25,54,141.2
797,A3,167.5,0.25,46,141.2
798,C4,167.5,0.25,46,141.2
799,G3,168.0,0.25,56,141.2
800,B-3,168.0,0.25,56,141.2
801,G4,168.5,0.25,51,141.2
802,B-4,168.5,0.25,51,141.2
803,E3,169.0,0.25,48,141.2
804,G3,169.0,0.25,48,141.2
805,E4,169.5,0.25,47,141.2
806,G4,169.5,0.25,47,141.2
807,G4,170.0,1.5,72,141.2
808,B-3,170.0,1.5,72,141.2
809,B-4,170.5,1.0,88,141.2
810,G5,170.5,1.0,88,141.2
811,A4,171.5,0.25,62,141.2
812,F5,171.5,0.25,62,141.2
813,A3,171.5,0.25,48,141.2
814,F4,171.5,0.25,48,141.2
815,E4,172.0,1.5,72,141.2
816,G3,172.0,1.5,72,141.2
817,G4,172.5,1.0,88,141.2
818,E5,172.5,1.0,88,141.2
819,F4,173.5,0.25,62,141.2
820,D5,173.5,0.25,62,141.2
821,F3,173.5,0.25,48,141.2
822,D4,173.5,0.25,48,141.2
823,E3,174.0,0.25,54,141.2
824,C4,174.0,0.25,54,141.2
825,E4,174.5,0.25,48,141.2
826,C5,174.5,0.25,48,141.2
827,D3,175.0,0.25,44,141.2
828,F3,175.0,0.25,44,141.2
829,B-3,175.5,0.25,42,141.2
830,B-4,175.5,0.25,42,141.2
831,A4,176.0,0.25,54,141.2
832,C#3,176.0,4.0,36,141.2
833,E3,176.0,4.0,36,141.2
834,G3,176.0,4.0,36,141.2
835,A3,176.25,0.25,46,141.2
836,C#4,176.5,0.25,43,141.2
837,E4,176.75,0.25,43,141.2
838,A4,177.0,0.25,53,141.2
839,C#5,177.25,0.25,42,141.2
840,E5,177.5,0.25,42,141.2
841,G#5,177.75,0.25,42,141.2
842,A5,178.0,0.25,49,141.2
843,G#5,178.25,0.25,39,141.2
844,A5,178.5,0.25,42,141.2
845,G#5,178.75,0.25,38,141.2
846,A5,179.0,0.25,48,141.2
847,E5,179.25,0.25,38,141.2
848,C#5,179.5,0.25,38,141.2
849,A4,179.75,0.25,38,141.2
850,D3,180.0,4.0,37,141.2
851,F3,180.0,4.0,37,141.2
852,A3,180.25,0.25,46,141.2
853,D4,180.5,0.25,43,141.2
854,F4,180.75,0.25,43,141.2
855,A4,181.0,0.25,53,141.2
856,D5,181.25,0.25,42,141.2
857,F5,181.5,0.25,42,141.2
858,G#5,181.75,0.25,42,141.2
859,A5,182.0,0.25,49,141.2
860,G#5,182.25,0.25,39,141.2
861,A5,182.5,0.25,42,141.2
862,G#5,182.75,0.25,38,141.2
863,A5,183.0,0.25,48,141.2
864,F5,183.25,0.25,38,141.2
865,D5,183.5,0.25,38,141.2
866,A4,183.75,0.25,38,141.2
867,B2,184.0,4.0,36,141.2
868,D3,184.0,4.0,36,141.2
869,F3,184.0,4.0,36,141.2
870,G#3,184.25,0.25,46,141.2
871,B3,184.5,0.25,43,141.2
872,D4,184.75,0.25,43,141.2
873,F4,185.0,0.25,50,141.2
874,G#4,185.25,0.25,42,141.2
875,B4,185.5,0.25,42,141.2
876,D5,185.75,0.25,42,141.2
877,F5,186.0,0.25,49,141.2
878,D5,186.25,0.25,41,141.2
879,G#5,186.5,0.25,48,141.2
880,F5,186.75,0.25,41,141.2
881,D5,187.0,0.25,48,141.2
882,B4,187.25,0.25,45,141.2
883,G#4,187.5,0.25,42,141.2
884,F4,187.75,0.25,39,141.2
885,B-2,188.0,2.5,60,141.2
886,C#3,188.0,2.5,60,141.2
887,E3,188.0,2.5,60,141.2
888,G3,188.0,2.5,60,141.2
889,E4,188.25,0.25,48,141.2
890,G4,188.5,0.25,50,141.2
891,B-4,188.75,0.25,51,141.2
892,C#5,189.0,0.25,53,141.2
893,E5,189.25,0.25,55,141.2
894,G5,189.5,0.25,57,141.2
895,B-5,189.75,0.25,59,141.2
896,C#6,190.0,0.25,65,141.2
897,E6,190.25,0.25,57,141.2
898,E5,190.5,0.25,64,141.2
899,B-2,190.5,0.25,53,141.2
900,C3,190.5,0.25,53,141.2
901,G3,190.5,0.25,53,141.2
902,E6,190.75,0.25,56,141.2
903,E5,191.0,0.25,64,141.2
904,B-2,191.0,0.25,65,141.2
905,C3,191.0,0.25,65,141.2
906,G3,191.0,0.25,65,141.2
907,E6,191.25,0.25,58,141.2
908,E5,191.5,0.25,64,141.2
909,B-2,191.5,0.25,54,141.2
910,C3,191.5,0.25,54,141.2
911,G3,191.5,0.25,54,141.2
912,E6,191.75,0.25,59,141.2
913,F5,192.0,0.25,74,141.2
914,A2,192.0,1.0,73,141.2
915,C3,192.0,1.0,73,141.2
916,F3,192.0,1.0,73,141.2
917,F6,192.25,0.25,59,141.2
918,E5,192.5,0.25,67,141.2
919,E6,192.75,0.25,54,141.2
920,F5,193.0,0.25,66,141.2
921,F6,193.25,0.25,57,141.2
922,B-4,193.5,0.25,59,141.2
923,E2,193.5,0.25,62,141.2
924,C3,193.5,0.25,62,141.2
925,B-5,193.75,0.25,50,141.2
926,A4,194.0,0.25,79,141.2
927,F2,194.0,0.25,69,141.2
928,C3,194.0,0.25,69,141.2
929,A5,194.25,0.25,54,141.2
930,E5,194.5,0.25,65,141.2
931,B-2,194.5,0.25,62,141.2
932,C3,194.5,0.25,62,141.2
933,E6,194.75,0.25,57,141.2
934,F5,195.0,0.25,68,141.2
935,A2,195.0,0.25,69,141.2
936,C3,195.0,0.25,69,141.2
937,F6,195.25,0.25,60,141.2
938,B-4,195.5,0.25,67,141.2
939,E2,195.5,0.25,62,141.2
940,C3,195.5,0.25,62,141.2
941,B-5,195.75,0.25,58,141.2
942,A4,196.0,0.25,81,141.2
943,F2,196.0,0.25,69,141.2
944,C3,196.0,0.25,69,141.2
945,A5,196.25,0.25,58,141.2
946,E5,196.5,0.25,64,141.2
947,B-2,196.5,0.25,62,141.2
948,C3,196.5,0.25,62,141.2
949,E6,196.75,0.25,59,141.2
950,F5,197.0,0.25,67,141.2
951,A2,197.0,0.25,69,141.2
952,C3,197.0,0.25,69,141.2
953,F6,197.25,0.25,55,141.2
954,B-4,197.5,0.25,62,141.2
955,E2,197.5,0.25,62,141.2
956,C3,197.5,0.25,62,141.2
957,B-5,197.75,0.25,51,141.2
958,A4,198.0,0.25,72,141.2
959,F2,198.0,0.25,69,141.2
960,C3,198.0,0.25,69,141.2
961,A5,198.25,0.25,52,141.2
962,E5,198.5,0.25,64,141.2
963,B-2,198.5,0.25,62,141.2
964,C3,198.5,0.25,62,141.2
965,E6,198.75,0.25,54,141.2
966,F5,199.0,0.25,64,141.2
967,A2,199.0,0.25,69,141.2
968,C3,199.0,0.25,69,141.2
969,F6,199.25,0.25,51,141.2
970,B-4,199.5,0.25,60,141.2
971,E2,199.5,0.25,62,141.2
972,C3,199.5,0.25,62,141.2
973,B-5,199.75,0.25,51,141.2
974,A4,200.0,0.25,83,141.2
975,F2,200.0,2.0,89,141.2
976,A5,200.25,0.25,53,141.2
977,G4,200.5,0.25,62,141.2
978,G5,200.75,0.25,54,141.2
979,F4,201.0,0.25,62,141.2
980,F5,201.25,0.25,54,141.2
981,E4,201.5,0.25,62,141.2
982,E5,201.75,0.25,53,141.2
983,D4,202.0,0.25,81,141.2
984,D2,202.0,2.0,80,141.2
985,D5,202.25,0.25,53,141.2
986,C4,202.5,0.25,60,141.2
987,C5,202.75,0.25,52,141.2
988,B-3,203.0,0.25,59,141.2
989,B-4,203.25,0.25,52,141.2
990,A3,203.5,0.25,59,141.2
991,A4,203.75,0.25,50,141.2
992,G3,204.0,0.25,79,141.2
993,B-1,204.0,2.0,88,141.2
994,G4,204.25,0.25,50,141.2
995,F3,204.5,0.25,59,141.2
996,F4,204.75,0.25,49,141.2
997,E3,205.0,0.25,59,141.2
998,E4,205.25,0.25,49,141.2
999,D3,205.5,0.25,59,141.2
1000,D4,205.75,0.25,51,141.2
1001,C3,206.0,0.25,79,141.2
1002,C2,206.0,2.0,84,141.2
1003,C4,206.25,0.25,49,141.2
1004,B-2,206.5,0.25,59,141.2
1005,B-3,206.75,0.25,50,141.2
1006,A2,207.0,0.25,59,141.2
1007,A3,207.25,0.25,48,141.2
1008,G2,207.5,0.25,58,141.2
1009,G3,207.75,0.25,49,141.2
1010,F1,208.0,0.25,81,141.2
1011,F3,208.0,0.25,70,141.2
1012,F2,208.0,0.25,70,141.2
1013,E3,208.5,0.25,49,141.2
1014,B-2,208.5,0.25,54,141.2
1015,C4,208.75,0.25,42,141.2
1016,F3,209.0,0.25,49,141.2
1017,A2,209.0,0.25,60,141.2
1018,C4,209.25,0.25,41,141.2
1019,B-3,209.5,0.25,49,141.2
1020,E2,209.5,0.25,54,141.2
1021,C4,209.75,0.25,42,141.2
1022,A3,210.0,0.25,49,141.2
1023,F2,210.0,0.25,60,141.2
1024,C4,210.25,0.25,41,141.2
1025,E3,210.5,0.25,49,141.2
1026,B-2,210.5,0.25,52,141.2
1027,C4,210.75,0.25,42,141.2
1028,F3,211.0,0.25,49,141.2
1029,A2,211.0,0.25,60,141.2
1030,C4,211.25,0.25,43,141.2
1031,B-3,211.5,0.25,49,141.2
1032,E2,211.5,0.25,58,141.2
1033,C4,211.75,0.25,40,141.2
1034,A3,212.0,0.25,49,141.2
1035,F2,212.0,0.25,60,141.2
1036,C4,212.25,0.25,41,141.2
1037,E3,212.5,0.25,49,141.2
1038,B-2,212.5,0.25,52,141.2
1039,C4,212.75,0.25,42,141.2
1040,F3,213.0,0.25,49,141.2
1041,A2,213.0,0.25,60,141.2
1042,C4,213.25,0.25,43,141.2
1043,B-3,213.5,0.25,49,141.2
1044,E2,213.5,0.25,58,141.2
1045,C4,213.75,0.25,40,141.2
1046,A3,214.0,0.25,56,141.2
1047,F2,214.0,0.25,67,141.2
1048,C4,214.25,0.25,45,141.2
1049,C#3,214.5,0.25,60,141.2
1050,G2,214.5,0.25,59,141.2
1051,C#4,214.75,0.25,52,141.2
1052,D3,215.0,0.25,61,141.2
1053,F2,215.0,0.25,72,141.2
1054,D4,215.25,0.25,49,141.2
1055,E3,215.5,0.25,67,141.2
1056,E2,215.5,0.25,67,141.2
1057,E4,215.75,0.25,60,141.2
1058,F3,216.0,0.25,71,141.2
1059,D2,216.0,0.25,75,141.2
1060,F4,216.25,0.25,62,141.2
1061,F#3,216.5,0.25,70,141.2
1062,C2,216.5,0.25,77,141.2
1063,F#4,216.75,0.25,64,141.2
1064,G3,217.0,0.25,70,141.2
1065,B-1,217.0,0.25,80,141.2
1066,G4,217.25,0.25,64,141.2
1067,A3,217.5,0.25,74,141.2
1068,A1,217.5,0.25,82,141.2
1069,A4,217.75,0.25,65,141.2
1070,B-3,218.0,0.25,82,141.2
1071,G1,218.0,2.0,94,141.2
1072,B-4,218.25,0.25,71,141.2
1073,C4,218.5,0.25,79,141.2
1074,C5,218.75,0.25,70,141.2
1075,D4,219.0,0.25,83,141.2
1076,D5,219.25,0.25,72,141.2
1077,C4,219.5,0.25,81,141.2
1078,C5,219.75,0.25,69,141.2
1079,B-3,220.0,0.25,84,141.2
1080,G1,220.0,2.0,94,141.2
1081,B-4,220.25,0.25,69,141.2
1082,A3,220.5,0.25,81,141.2
1083,A4,220.75,0.25,69,141.2
1084,G3,221.0,0.25,79,141.2
1085,G4,221.25,0.25,69,141.2
1086,F3,221.5,0.25,78,141.2
1087,F4,221.75,0.25,65,141.2
1088,E3,222.0,0.25,79,141.2
1089,C2,222.0,2.0,87,141.2
1090,E4,222.25,0.25,69,141.2
1091,D3,222.5,0.25,77,141.2
1092,D4,222.75,0.25,65,141.2
1093,C3,223.0,0.25,77,141.2
1094,C4,223.25,0.25,67,141.2
1095,E3,223.5,0.25,75,141.2
1096,E4,223.75,0.25,66,141.2
1097,F1,224.0,0.25,30,141.2
1098,F4,224.0,1.0,79,141.2
1099,F3,224.0,1.0,79,141.2
1100,F2,224.25,0.25,26,141.2
1101,F1,224.5,0.25,30,141.2
1102,F2,224.75,0.25,25,141.2
1103,F1,225.0,0.25,30,141.2
1104,F2,225.25,0.25,26,141.2
1105,F1,225.5,0.25,30,141.2
1106,F2,225.75,0.25,27,141.2
1107,F1,226.0,0.25,30,141.2
1108,C4,226.0,2.0,37,141.2
1109,A3,226.0,2.0,37,141.2
1110,F2,226.25,0.25,27,141.2
1111,F1,226.5,0.25,30,141.2
1112,F2,226.75,0.25,25,141.2
1113,F1,227.0,0.25,30,141.2
1114,F2,227.25,0.25,26,141.2
1115,F3,227.5,0.5,39,141.2
1116,F1,227.5,0.25,30,141.2
1117,F2,227.75,0.25,26,141.2
1118,F1,228.0,0.25,30,141.2
1119,C#4,228.0,2.0,42,141.2
1120,B-3,228.0,2.0,42,141.2
1121,F2,228.25,0.25,26,141.2
1122,F1,228.5,0.25,30,141.2
1123,F2,228.75,0.25,25,141.2
1124,F1,229.0,0.25,30,141.2
1125,F2,229.25,0.25,26,141.2
1126,G#3,229.5,0.5,40,141.2
1127,F1,229.5,0.25,30,141.2
1128,F2,229.75,0.25,27,141.2
1129,F#3,230.0,0.5,45,141.2
1130,F1,230.0,0.25,30,141.2
1131,C4,230.0,1.0,32,141.2
1132,B-3,230.0,1.0,32,141.2
1133,F2,230.25,0.25,27,141.2
1134,F3,230.5,0.5,40,141.2
1135,F1,230.5,0.25,30,141.2
1136,F2,230.75,0.25,25,141.2
1137,F#3,231.0,0.5,46,141.2
1138,F1,231.0,0.25,30,141.2
1139,C4,231.0,1.0,33,141.2
1140,B-3,231.0,1.0,33,141.2
1141,F2,231.25,0.25,26,141.2
1142,E3,231.5,0.5,40,141.2
1143,F1,231.5,0.25,30,141.2
1144,F2,231.75,0.25,26,141.2
1145,F1,232.0,0.25,30,141.2
1146,C4,232.0,1.5,41,141.2
1147,A3,232.0,1.5,41,141.2
1148,F3,232.0,1.5,41,141.2
1149,F2,232.25,0.25,26,141.2
1150,F1,232.5,0.25,30,141.2
1151,F2,232.75,0.25,25,141.2
1152,F1,233.0,0.25,30,141.2
1153,F2,233.25,0.25,26,141.2
1154,F1,233.5,0.25,30,141.2
1155,F2,233.75,0.25,27,141.2
1156,A4,234.0,1.5,52,141.2
1157,F1,234.0,0.25,30,141.2
1158,C4,234.0,2.0,48,141.2
1159,A3,234.0,2.0,48,141.2
1160,F2,234.25,0.25,27,141.2
1161,F1,234.5,0.25,35,141.2
1162,F2,234.75,0.25,29,141.2
1163,F1,235.0,0.25,34,141.2
1164,F2,235.25,0.25,26,141.2
1165,F4,235.5,0.5,50,141.2
1166,F1,235.5,0.25,35,141.2
1167,F2,235.75,0.25,31,141.2
1168,B-4,236.0,1.5,52,141.2
1169,F1,236.0,0.25,38,141.2
1170,C#4,236.0,2.0,54,141.2
1171,B-3,236.0,2.0,54,141.2
1172,F2,236.25,0.25,30,141.2
1173,F1,236.5,0.25,34,141.2
1174,F2,236.75,0.25,25,141.2
1175,F1,237.0,0.25,33,141.2
1176,F2,237.25,0.25,26,141.2
1177,G#4,237.5,0.5,52,141.2
1178,F1,237.5,0.25,30,141.2
1179,F2,237.75,0.25,27,141.2
1180,F#4,238.0,0.5,58,141.2
1181,F1,238.0,0.25,30,141.2
1182,C#4,238.0,1.0,41,141.2
1183,B-3,238.0,1.0,41,141.2
1184,F2,238.25,0.25,27,141.2
1185,F4,238.5,0.5,52,141.2
1186,F1,238.5,0.25,30,141.2
1187,F2,238.75,0.25,25,141.2
1188,F#4,239.0,0.5,59,141.2
1189,F1,239.0,0.25,30,141.2
1190,C#4,239.0,1.0,42,141.2
1191,B-3,239.0,1.0,42,141.2
1192,F2,239.25,0.25,26,141.2
1193,E4,239.5,0.5,52,141.2
1194,F1,239.5,0.25,30,141.2
1195,F2,239.75,0.25,26,141.2
1196,F1,240.0,0.25,30,141.2
1197,F4,240.0,1.5,53,141.2
1198,C4,240.0,1.5,53,141.2
1199,A3,240.0,1.5,53,141.2
1200,F2,240.25,0.25,25,141.2
1201,F1,240.5,0.25,29,141.2
1202,F2,240.75,0.25,24,141.2
1203,F1,241.0,0.25,28,141.2
1204,F2,241.25,0.25,24,141.2
1205,F1,241.5,0.25,28,141.2
1206,F2,241.75,0.25,25,141.2
1207,G4,242.0,0.5,53,141.2
1208,F1,242.0,0.25,27,141.2
1209,C#4,242.0,1.0,37,141.2
1210,B-3,242.0,1.0,37,141.2
1211,F2,242.25,0.25,24,141.2
1212,F4,242.5,0.5,46,141.2
1213,F1,242.5,0.25,27,141.2
1214,F2,242.75,0.25,22,141.2
1215,G4,243.0,0.5,51,141.2
1216,F1,243.0,0.25,26,141.2
1217,C#4,243.0,1.0,36,141.2
1218,B-3,243.0,1.0,36,141.2
1219,F2,243.25,0.25,22,141.2
1220,E4,243.5,0.5,44,141.2
1221,F1,243.5,0.25,25,141.2
1222,F2,243.75,0.25,22,141.2
1223,F1,244.0,0.25,25,141.2
1224,F4,244.0,1.5,44,141.2
1225,C4,244.0,1.5,44,141.2
1226,A3,244.0,1.5,44,141.2
1227,F2,244.25,0.25,21,141.2
1228,F1,244.5,0.25,24,141.2
1229,F2,244.75,0.25,20,141.2
1230,F1,245.0,0.25,24,141.2
1231,F2,245.25,0.25,20,141.2
1232,F1,245.5,0.25,23,141.2
1233,F2,245.75,0.25,20,141.2
1234,F#4,246.0,0.5,43,141.2
1235,F1,246.0,0.25,22,141.2
1236,C#4,246.0,1.0,30,141.2
1237,B-3,246.0,1.0,30,141.2
1238,F2,246.25,0.25,20,141.2
1239,F4,246.5,0.5,39,141.2
1240,F1,246.5,0.25,22,141.2
1241,F2,246.75,0.25,18,141.2
1242,F#4,247.0,0.5,44,141.2
1243,F1,247.0,0.25,22,141.2
1244,C#4,247.0,1.0,31,141.2
1245,B-3,247.0,1.0,31,141.2
1246,F2,247.25,0.25,19,141.2
1247,E4,247.5,0.5,39,141.2
1248,F1,247.5,0.25,22,141.2
1249,F2,247.75,0.25,19,141.2
1250,F3,248.0,1.5,81,141.2
1251,F4,248.0,1.5,81,141.2
1252,F1,248.0,1.5,61,141.2
1253,F2,248.0,1.5,61,141.2
1254,G3,249.5,0.25,73,141.2
1255,G4,249.5,0.25,73,141.2
1256,G1,249.5,0.25,54,141.2
1257,G2,249.5,0.25,54,141.2
1258,A3,250.0,1.5,82,141.2
1259,A4,250.0,1.5,82,141.2
1260,A1,250.0,1.5,61,141.2
1261,A2,250.0,1.5,61,141.2
1262,B-3,251.5,0.25,74,141.2
1263,B-4,251.5,0.25,74,141.2
1264,B-1,251.5,0.25,55,141.2
1265,B-2,251.5,0.25,55,141.2
1266,C4,252.0,1.5,84,141.2
1267,C5,252.0,1.5,84,141.2
1268,C2,252.0,1.5,62,141.2
1269,C3,252.0,1.5,62,141.2
1270,D4,253.5,0.25,68,141.2
1271,D5,253.5,0.25,68,141.2
1272,D2,253.5,0.25,52,141.2
1273,D3,253.5,0.25,52,141.2
1274,E4,254.0,0.25,78,141.2
1275,E5,254.0,0.25,78,141.2
1276,E2,254.0,0.25,58,141.2
1277,E3,254.0,0.25,58,141.2
1278,F4,254.5,0.25,74,141.2
1279,F5,254.5,0.25,74,141.2
1280,F2,254.5,0.25,55,141.2
1281,F3,254.5,0.25,55,141.2
1282,G4,255.0,0.25,80,141.2
1283,G5,255.0,0.25,80,141.2
1284,G2,255.0,0.25,60,141.2
1285,G3,255.0,0.25,60,141.2
1286,A4,255.5,0.25,76,141.2
1287,A5,255.5,0.25,76,141.2
1288,A2,255.5,0.25,56,141.2
1289,A3,255.5,0.25,56,141.2
1290,B-4,256.0,1.5,88,141.2
1291,B-5,256.0,1.5,88,141.2
1292,B-2,256.0,1.5,66,141.2
1293,B-3,256.0,1.5,66,141.2
1294,A4,257.5,0.25,78,141.2
1295,A5,257.5,0.25,78,141.2
1296,A2,257.5,0.25,58,141.2
1297,A3,257.5,0.25,58,141.2
1298,G4,258.0,1.5,86,141.2
1299,G5,258.0,1.5,86,141.2
1300,G2,258.0,1.5,64,141.2
1301,G3,258.0,1.5,64,141.2
1302,F4,259.5,0.25,76,141.2
1303,F5,259.5,0.25,76,141.2
1304,F2,259.5,0.25,56,141.2
1305,F3,259.5,0.25,56,141.2
1306,E4,260.0,1.5,85,141.2
1307,E5,260.0,1.5,85,141.2
1308,E2,260.0,1.5,64,141.2
1309,E3,260.0,1.5,64,141.2
1310,D4,261.5,0.25,68,141.2
1311,D5,261.5,0.25,68,141.2
1312,D2,261.5,0.25,52,141.2
1313,D3,261.5,0.25,52,141.2
1314,C4,262.0,0.25,76,141.2
1315,C5,262.0,0.25,76,141.2
1316,C2,262.0,0.25,57,141.2
1317,C3,262.0,0.25,57,141.2
1318,B-3,262.5,0.25,72,141.2
1319,B-4,262.5,0.25,72,141.2
1320,B-1,262.5,0.25,54,141.2
1321,B-2,262.5,0.25,54,141.2
1322,A3,263.0,0.25,76,141.2
1323,A4,263.0,0.25,76,141.2
1324,A1,263.0,0.25,57,141.2
1325,A2,263.0,0.25,57,141.2
1326,G3,263.5,0.25,70,141.2
1327,G4,263.5,0.25,70,141.2
1328,G1,263.5,0.25,52,141.2
1329,G2,263.5,0.25,52,141.2
1330,F3,264.0,0.25,84,141.2
1331,F4,264.0,0.25,84,141.2
1332,F1,264.0,0.25,64,141.2
1333,F2,264.0,0.25,64,141.2
1334,E4,265.0,0.25,53,141.2
1335,C3,265.0,0.25,36,141.2
1336,G3,265.0,0.25,36,141.2
1337,B-3,265.0,0.25,36,141.2
1338,E-4,265.25,0.25,45,141.2
1339,E4,265.5,0.25,53,141.2
1340,C4,265.75,0.25,43,141.2
1341,F4,266.0,0.25,57,141.2
1342,F3,266.0,0.25,45,141.2
1343,A3,266.0,0.25,45,141.2
1344,E5,267.0,0.25,53,141.2
1345,C4,267.0,0.25,36,141.2
1346,G4,267.0,0.25,36,141.2
1347,B-4,267.0,0.25,36,141.2
1348,E-5,267.25,0.25,45,141.2
1349,E5,267.5,0.25,53,141.2
1350,C5,267.75,0.25,43,141.2
1351,F5,268.0,0.25,57,141.2
1352,F4,268.0,0.25,45,141.2
1353,A4,268.0,0.25,45,141.2
1354,E6,270.0,1.0,80,141.2
1355,C6,270.0,1.0,80,141.2
1356,B-5,270.0,1.0,80,141.2
1357,G5,270.0,1.0,80,141.2
1358,E5,270.0,1.0,80,141.2
1359,C3,270.0,1.0,62,141.2
1360,C4,270.0,1.0,62,141.2
1361,F6,272.0,1.0,86,141.2
1362,C6,272.0,1.0,86,141.2
1363,A5,272.0,1.0,86,141.2
1364,F5,272.0,1.0,86,141.2
1365,F2,272.0,1.0,70,141.2
1366,F3,272.0,1.0,70,141.2
1367,B-3,275.0,0.25,42,141.2
1368,D4,275.0,1.0,50,141.2
1369,A3,275.25,0.25,40,141.2
1370,B-3,275.5,0.25,45,141.2
1371,F3,275.75,0.25,39,141.2
1372,D4,276.0,0.188,38,141.2
1373,F4,276.0,0.188,38,141.2
1374,B-1,276.0,0.188,33,141.2
1375,B-2,276.0,0.188,33,141.2
1376,B-3,277.0,0.188,35,141.2
1377,D4,277.0,0.188,35,141.2
1378,B-1,277.0,0.188,30,141.2
1379,B-2,277.0,0.188,30,141.2
1380,B-3,279.0,0.25,42,141.2
1381,D4,279.0,1.0,50,141.2
1382,A3,279.25,0.25,40,141.2
1383,B-3,279.5,0.25,45,141.2
1384,F3,279.75,0.25,39,141.2
1385,D4,280.0,0.188,38,141.2
1386,F4,280.0,0.188,38,141.2
1387,B-1,280.0,0.188,33,141.2
1388,B-2,280.0,0.188,33,141.2
1389,B-3,281.0,0.188,35,141.2
1390,D4,281.0,0.188,35,141.2
1391,B-1,281.0,0.188,30,141.2
1392,B-2,281.0,0.188,30,141.2
1393,D4,283.0,0.5,50,141.2
1394,B-3,283.0,11/40,42,141.2
1395,A3,283.25,11/40,40,141.2
1396,B-3,283.5,11/40,46,141.2
1397,F3,283.75,0.25,40,141.2
1398,F4,284.0,0.5,53,141.2
1399,D4,284.0,11/40,44,141.2
1400,C#4,284.25,11/40,42,141.2
1401,D4,284.5,11/40,49,141.2
1402,B-3,284.75,0.25,42,141.2
1403,F4,285.0,11/40,47,141.2
1404,B-4,285.0,0.5,56,141.2
1405,E4,285.25,11/40,45,141.2
1406,F4,285.5,11/40,51,141.2
1407,D4,285.75,0.25,45,141.2
1408,B-4,286.0,11/40,49,141.2
1409,D5,286.0,0.5,59,141.2
1410,A4,286.25,11/40,47,141.2
1411,B-4,286.5,11/40,54,141.2
1412,F4,286.75,0.25,47,141.2
1413,D5,287.0,11/40,52,141.2
1414,F5,287.0,0.5,62,141.2
1415,C#5,287.25,11/40,50,141.2
1416,D5,287.5,11/40,57,141.2
1417,B-4,287.75,0.25,49,141.2
1418,B-5,288.0,3.0,72,141.2
1419,B-2,288.0,0.25,44,141.2
1420,D3,288.25,0.25,31,141.2
1421,F3,288.5,0.25,31,141.2
1422,B-3,288.75,0.25,31,141.2
1423,B-2,289.0,0.25,44,141.2
1424,D3,289.25,0.25,32,141.2
1425,F3,289.5,0.25,32,141.2
1426,B-3,289.75,0.25,32,141.2
1427,B-2,290.0,0.25,44,141.2
1428,D3,290.25,0.25,33,141.2
1429,F3,290.5,0.25,33,141.2
1430,B-3,290.75,0.25,33,141.2
1431,A5,291.0,0.25,60,141.2
1432,B-2,291.0,0.25,44,141.2
1433,B-5,291.25,0.25,57,141.2
1434,D3,291.25,0.25,33,141.2
1435,C6,291.5,0.25,60,141.2
1436,F3,291.5,0.25,33,141.2
1437,B-5,291.75,0.25,54,141.2
1438,B-3,291.75,0.25,33,141.2
1439,A5,292.0,0.5,60,141.2
1440,B-2,292.0,0.25,44,141.2
1441,E-3,292.25,0.25,31,141.2
1442,G5,292.5,0.5,51,141.2
1443,G3,292.5,0.25,31,141.2
1444,B-3,292.75,0.25,31,141.2
1445,F5,293.0,0.5,54,141.2
1446,B-2,293.0,0.25,42,141.2
1447,E-3,293.25,0.25,28,141.2
1448,E-5,293.5,0.5,50,141.2
1449,G3,293.5,0.25,28,141.2
1450,B-3,293.75,0.25,28,141.2
1451,D5,294.0,0.5,59,141.2
1452,B-2,294.0,0.25,41,141.2
1453,E-3,294.25,0.25,29,141.2
1454,C5,294.5,0.5,48,141.2
1455,F3,294.5,0.25,29,141.2
1456,A3,294.75,0.25,29,141.2
1457,G5,295.0,0.5,56,141.2
1458,B-2,295.0,0.25,41,141.2
1459,E-3,295.25,0.25,31,141.2
1460,F5,295.5,0.5,47,141.2
1461,F3,295.5,0.25,31,141.2
1462,A3,295.75,0.25,31,141.2
1463,E-5,296.0,1.0,54,141.2
1464,B-2,296.0,0.25,44,141.2
1465,D3,296.25,0.25,31,141.2
1466,F3,296.5,0.25,31,141.2
1467,B-3,296.75,0.25,31,141.2
1468,D5,297.0,1.0,47,141.2
1469,B-2,297.0,0.25,44,141.2
1470,D3,297.25,0.25,32,141.2
1471,F3,297.5,0.25,32,141.2
1472,B-3,297.75,0.25,32,141.2
1473,B-2,298.0,0.25,44,141.2
1474,D3,298.25,0.25,32,141.2
1475,F3,298.5,0.25,32,141.2
1476,G#3,298.75,0.25,32,141.2
1477,A4,299.0,0.25,58,141.2
1478,B-2,299.0,0.25,44,141.2
1479,B-4,299.25,0.25,54,141.2
1480,D3,299.25,0.25,32,141.2
1481,C5,299.5,0.25,58,141.2
1482,F3,299.5,0.25,32,141.2
1483,B-4,299.75,0.25,54,141.2
1484,G#3,299.75,0.25,32,141.2
1485,G#4,300.0,0.5,60,141.2
1486,B-2,300.0,0.25,44,141.2
1487,E-3,300.25,0.25,32,141.2
1488,G4,300.5,0.5,54,141.2
1489,G3,300.5,0.25,32,141.2
1490,E-3,300.75,0.25,32,141.2
1491,F4,301.0,0.5,66,141.2
1492,B-2,301.0,0.25,44,141.2
1493,E-3,301.25,0.25,36,141.2
1494,E-4,301.5,0.5,61,141.2
1495,G3,301.5,0.25,36,141.2
1496,E-3,301.75,0.25,36,141.2
1497,D4,302.0,0.5,69,141.2
1498,B-2,302.0,0.25,48,141.2
1499,C3,302.25,0.25,37,141.2
1500,C4,302.5,0.5,62,141.2
1501,E-3,302.5,0.25,38,141.2
1502,F3,302.75,0.25,40,141.2
1503,E-4,303.0,0.5,73,141.2
1504,B-2,303.0,0.25,50,141.2
1505,C3,303.25,0.25,40,141.2
1506,A3,303.5,0.5,63,141.2
1507,E-3,303.5,0.25,39,141.2
1508,F3,303.75,0.25,43,141.2
1509,B-3,304.0,0.25,79,141.2
1510,B-2,304.0,0.25,60,141.2
1511,D4,304.5,0.25,68,141.2
1512,C4,304.75,0.25,65,141.2
1513,B-3,305.0,0.25,71,141.2
1514,B-2,305.0,0.25,53,141.2
1515,A3,305.25,0.25,65,141.2
1516,A2,305.25,0.25,46,141.2
1517,B-3,305.5,0.25,71,141.2
1518,B-2,305.5,0.25,53,141.2
1519,G3,305.75,0.25,65,141.2
1520,G2,305.75,0.25,46,141.2
1521,F3,306.0,0.25,79,141.2
1522,F2,306.0,0.25,60,141.2
1523,G4,306.5,0.25,68,141.2
1524,F4,306.75,0.25,65,141.2
1525,E-4,307.0,0.25,71,141.2
1526,E-3,307.0,0.25,53,141.2
1527,D4,307.25,0.25,65,141.2
1528,D3,307.25,0.25,46,141.2
1529,E-4,307.5,0.25,71,141.2
1530,E-3,307.5,0.25,53,141.2
1531,C4,307.75,0.25,65,141.2
1532,C3,307.75,0.25,46,141.2
1533,B-3,308.0,0.25,79,141.2
1534,B-2,308.0,0.25,60,141.2
1535,D5,308.5,0.25,68,141.2
1536,C5,308.75,0.25,65,141.2
1537,B-4,309.0,0.25,71,141.2
1538,B-3,309.0,0.25,53,141.2
1539,A4,309.25,0.25,65,141.2
1540,A3,309.25,0.25,46,141.2
1541,B-4,309.5,0.25,71,141.2
1542,B-3,309.5,0.25,53,141.2
1543,G4,309.75,0.25,65,141.2
1544,G3,309.75,0.25,46,141.2
1545,F4,310.0,0.25,79,141.2
1546,F3,310.0,0.25,60,141.2
1547,G5,310.5,0.25,78,141.2
1548,F5,310.75,0.25,74,141.2
1549,E-5,311.0,0.25,81,141.2
1550,E-4,311.0,0.25,60,141.2
1551,D5,311.25,0.25,74,141.2
1552,D4,311.25,0.25,52,141.2
1553,E-5,311.5,0.25,81,141.2
1554,E-4,311.5,0.25,60,141.2
1555,C5,311.75,0.25,74,141.2
1556,C4,311.75,0.25,52,141.2
1557,B-4,312.0,0.25,90,141.2
1558,B-3,312.0,0.25,69,141.2
1559,C5,312.5,0.25,68,141.2
1560,C4,312.5,0.25,53,141.2
1561,D5,312.75,0.25,68,141.2
1562,D4,312.75,0.25,48,141.2
1563,E-5,313.0,0.25,77,141.2
1564,E-4,313.0,0.25,54,141.2
1565,F5,313.25,0.25,70,141.2
1566,F4,313.25,0.25,48,141.2
1567,G5,313.5,0.25,70,141.2
1568,G4,313.5,0.25,48,141.2
1569,A5,313.75,0.25,71,141.2
1570,A4,313.75,0.25,49,141.2
1571,B-5,314.0,0.062,73,141.2
1572,B-4,314.0,0.25,56,141.2
1573,C6,314.062,0.062,65,141.2
1574,B-5,314.125,0.125,81,141.2
1575,A5,314.25,0.25,72,141.2
1576,A4,314.25,0.25,50,141.2
1577,B-5,314.5,0.25,73,141.2
1578,B-4,314.5,0.25,50,141.2
1579,C6,314.75,0.25,74,141.2
1580,C5,314.75,0.25,51,141.2
1581,D6,315.0,0.062,74,141.2
1582,D5,315.0,0.25,58,141.2
1583,E-6,315.062,0.062,66,141.2
1584,D6,315.125,0.25,83,141.2
1585,C6,315.25,0.25,75,141.2
1586,C5,315.25,0.25,52,141.2
1587,D6,315.5,0.25,76,141.2
1588,D5,315.5,0.25,52,141.2
1589,E6,315.75,0.25,76,141.2
1590,E5,315.75,0.25,53,141.2
1591,F6,316.0,0.25,97,141.2
1592,F5,316.0,0.25,73,141.2
1593,F4,317.0,0.25,79,141.2
1594,F3,317.0,0.25,60,141.2
1595,B-2,319.0,0.25,65,141.2
1596,A2,319.25,0.25,57,141.2
1597,B-2,319.5,0.25,62,141.2
1598,F2,319.75,0.25,55,141.2
1599,D3,320.0,0.25,65,141.2
1600,C#3,320.25,0.25,58,141.2
1601,D3,320.5,0.25,63,141.2
1602,B-2,320.75,0.25,57,141.2
1603,F3,321.0,0.25,65,141.2
1604,E3,321.25,0.25,58,141.2
1605,F3,321.5,0.25,63,141.2
1606,D3,321.75,0.25,57,141.2
1607,B-3,322.0,0.25,65,141.2
1608,A3,322.25,0.25,58,141.2
1609,B-3,322.5,0.25,63,141.2
1610,F3,322.75,0.25,57,141.2
1611,D4,323.0,0.25,63,141.2
1612,C#4,323.25,0.25,58,141.2
1613,D4,323.5,0.25,62,141.2
1614,B-3,323.75,0.25,57,141.2
1615,F4,324.0,1.75,72,141.2
1616,E-4,325.75,0.25,63,141.2
1617,F5,326.0,2.0,75,141.2
1618,D4,326.0,0.75,71,141.2
1619,C4,326.75,0.25,63,141.2
1620,B-3,327.0,0.75,72,141.2
1621,G#3,327.75,0.25,63,141.2
1622,F5,328.0,2.0,75,141.2
1623,G3,328.0,2.0,72,141.2
1624,B4,329.0,1.0,56,141.2
1625,G#3,330.0,1.0,48,141.2
1626,C5,330.0,1.0,48,141.2
1627,E-5,330.0,1.0,48,141.2
1628,A4,331.0,1.0,41,141.2
1629,D5,331.0,1.0,49,141.2
1630,F#3,331.0,1.0,42,141.2
1631,B-4,332.0,1.0,55,141.2
1632,D5,332.0,1.0,49,141.2
1633,G3,332.0,1.0,51,141.2
1634,G4,333.0,1.0,41,141.2
1635,C5,333.0,2.0,49,141.2
1636,E3,333.0,1.0,44,141.2
1637,A4,334.0,1.0,55,141.2
1638,F3,334.0,1.0,52,141.2
1639,D3,335.0,1.0,34,141.2
1640,F4,335.0,1.0,46,141.2
1641,B4,335.0,1.0,46,141.2
1642,C5,336.0,0.25,68,141.2
1643,C2,336.0,0.5,51,141.2
1644,C3,336.0,0.5,51,141.2
1645,E4,336.25,0.25,37,141.2
1646,G4,336.25,0.25,37,141.2
1647,C5,336.5,0.25,62,141.2
1648,C4,336.5,57/200,42,141.2
1649,E4,336.75,0.25,36,141.2
1650,G4,336.75,0.25,36,141.2
1651,C5,337.0,0.25,64,141.2
1652,C4,337.0,57/200,42,141.2
1653,E4,337.25,0.25,38,141.2
1654,G4,337.25,0.25,38,141.2
1655,D5,337.5,0.25,68,141.2
1656,C4,337.5,57/200,42,141.2
1657,E4,337.75,0.25,37,141.2
1658,G4,337.75,0.25,37,141.2
1659,E5,338.0,0.25,62,141.2
1660,C4,338.0,57/200,51,141.2
1661,G4,338.25,0.25,42,141.2
1662,B-4,338.25,0.25,42,141.2
1663,C5,338.5,0.25,68,141.2
1664,C4,338.5,57/200,43,141.2
1665,G4,338.75,0.25,42,141.2
1666,B-4,338.75,0.25,42,141.2
1667,D5,339.0,0.25,68,141.2
1668,C4,339.0,57/200,43,141.2
1669,G4,339.25,0.25,42,141.2
1670,B-4,339.25,0.25,42,141.2
1671,E5,339.5,0.25,70,141.2
1672,C4,339.5,57/200,43,141.2
1673,G4,339.75,0.25,42,141.2
1674,B-4,339.75,0.25,42,141.2
1675,F5,340.0,0.25,68,141.2
1676,C4,340.0,57/200,51,141.2
1677,F4,340.25,0.25,37,141.2
1678,A4,340.25,0.25,37,141.2
1679,F5,340.5,0.25,62,141.2
1680,C4,340.5,57/200,42,141.2
1681,F4,340.75,0.25,36,141.2
1682,A4,340.75,0.25,36,141.2
1683,F5,341.0,0.25,64,141.2
1684,C4,341.0,57/200,42,141.2
1685,F4,341.25,0.25,38,141.2
1686,A4,341.25,0.25,38,141.2
1687,E5,341.5,0.25,68,141.2
1688,C4,341.5,57/200,42,141.2
1689,F4,341.75,0.25,37,141.2
1690,A4,341.75,0.25,37,141.2
1691,D5,342.0,0.25,62,141.2
1692,C4,342.0,57/200,51,141.2
1693,F4,342.25,0.25,42,141.2
1694,G#4,342.25,0.25,42,141.2
1695,C5,342.5,0.25,68,141.2
1696,C4,342.5,57/200,43,141.2
1697,F4,342.75,0.25,42,141.2
1698,G#4,342.75,0.25,42,141.2
1699,B4,343.0,0.25,68,141.2
1700,C4,343.0,57/200,43,141.2
1701,F4,343.25,0.25,42,141.2
1702,G#4,343.25,0.25,42,141.2
1703,D5,343.5,0.25,70,141.2
1704,C4,343.5,3/10,43,141.2
1705,F4,343.75,0.25,42,141.2
1706,G#4,343.75,0.25,42,141.2
1707,C5,344.0,0.25,68,141.2
1708,C2,344.0,0.5,51,141.2
1709,C3,344.0,0.5,51,141.2
1710,E4,344.25,0.25,37,141.2
1711,G4,344.25,0.25,37,141.2
1712,B4,344.5,0.25,62,141.2
1713,C4,344.5,57/200,42,141.2
1714,E4,344.75,0.25,36,141.2
1715,G4,344.75,0.25,36,141.2
1716,C5,345.0,0.25,64,141.2
1717,C4,345.0,57/200,42,141.2
1718,E4,345.25,0.25,38,141.2
1719,G4,345.25,0.25,38,141.2
1720,D5,345.5,0.25,68,141.2
1721,C4,345.5,57/200,42,141.2
1722,E4,345.75,0.25,37,141.2
1723,G4,345.75,0.25,37,141.2
1724,E5,346.0,0.25,62,141.2
1725,C4,346.0,57/200,51,141.2
1726,G4,346.25,0.25,42,141.2
1727,B-4,346.25,0.25,42,141.2
1728,C5,346.5,0.25,68,141.2
1729,C4,346.5,57/200,43,141.2
1730,G4,346.75,0.25,42,141.2
1731,B-4,346.75,0.25,42,141.2
1732,D5,347.0,0.25,68,141.2
1733,C4,347.0,57/200,43,141.2
1734,G4,347.25,0.25,42,141.2
1735,B-4,347.25,0.25,42,141.2
1736,E5,347.5,0.25,70,141.2
1737,C4,347.5,57/200,43,141.2
1738,G4,347.75,0.25,42,141.2
1739,B-4,347.75,0.25,42,141.2
1740,F5,348.0,0.25,68,141.2
1741,C4,348.0,57/200,51,141.2
1742,F4,348.25,0.25,37,141.2
1743,A4,348.25,0.25,37,141.2
1744,F5,348.5,0.25,62,141.2
1745,C4,348.5,57/200,42,141.2
1746,F4,348.75,0.25,36,141.2
1747,A4,348.75,0.25,36,141.2
1748,F5,349.0,0.25,64,141.2
1749,C4,349.0,57/200,42,141.2
1750,F4,349.25,0.25,38,141.2
1751,A4,349.25,0.25,38,141.2
1752,E5,349.5,0.25,68,141.2
1753,C4,349.5,57/200,42,141.2
1754,F4,349.75,0.25,37,141.2
1755,A4,349.75,0.25,37,141.2
1756,D5,350.0,0.25,62,141.2
1757,C4,350.0,57/200,51,141.2
1758,F4,350.25,0.25,42,141.2
1759,G#4,350.25,0.25,42,141.2
1760,C5,350.5,0.25,68,141.2
1761,C4,350.5,57/200,43,141.2
1762,F4,350.75,0.25,42,141.2
1763,G#4,350.75,0.25,42,141.2
1764,B4,351.0,0.25,68,141.2
1765,C4,351.0,57/200,43,141.2
1766,F4,351.25,0.25,42,141.2
1767,G#4,351.25,0.25,42,141.2
1768,D5,351.5,0.25,70,141.2
1769,C4,351.5,3/10,43,141.2
1770,F4,351.75,0.25,42,141.2
1771,G#4,351.75,0.25,42,141.2
1772,C5,352.0,0.25,78,141.2
1773,C3,352.0,19/40,51,141.2
1774,E4,352.25,0.25,42,141.2
1775,G4,352.25,0.25,42,141.2
1776,C5,352.5,0.25,68,141.2
1777,C4,352.5,57/200,43,141.2
1778,E4,352.75,0.25,42,141.2
1779,G4,352.75,0.25,42,141.2
1780,B4,353.0,0.25,68,141.2
1781,C4,353.0,57/200,43,141.2
1782,F4,353.25,0.25,42,141.2
1783,G#4,353.25,0.25,42,141.2
1784,D5,353.5,0.25,70,141.2
1785,C4,353.5,3/10,43,141.2
1786,F4,353.75,0.25,42,141.2
1787,G#4,353.75,0.25,42,141.2
1788,C5,354.0,0.25,76,141.2
1789,C3,354.0,19/40,51,141.2
1790,E4,354.25,0.25,42,141.2
1791,G4,354.25,0.25,42,141.2
1792,C5,354.5,0.25,68,141.2
1793,C4,354.5,57/200,43,141.2
1794,E4,354.75,0.25,42,141.2
1795,G4,354.75,0.25,42,141.2
1796,B4,355.0,0.25,68,141.2
1797,C4,355.0,57/200,43,141.2
1798,F4,355.25,0.25,42,141.2
1799,G#4,355.25,0.25,42,141.2
1800,D5,355.5,0.25,70,141.2
1801,C4,355.5,3/10,43,141.2
1802,F4,355.75,0.25,42,141.2
1803,G#4,355.75,0.25,42,141.2
1804,C3,356.0,1.0,51,141.2
1805,E4,356.0,0.25,63,141.2
1806,G4,356.0,0.25,63,141.2
1807,C5,356.0,0.25,63,141.2
1808,C4,356.25,11/40,35,141.2
1809,D4,356.5,11/40,40,141.2
1810,E4,356.75,11/40,35,141.2
1811,F4,357.0,11/40,40,141.2
1812,G4,357.25,11/40,35,141.2
1813,A4,357.5,11/40,40,141.2
1814,B4,357.75,11/40,33,141.2
1815,C5,358.0,11/40,40,141.2
1816,B4,358.25,11/40,33,141.2
1817,C5,358.5,11/40,40,141.2
1818,B4,358.75,11/40,33,141.2
1819,C5,359.0,11/40,40,141.2
1820,B4,359.25,11/40,34,141.2
1821,C5,359.5,11/40,40,141.2
1822,B4,359.75,0.25,33,141.2
1823,A4,360.0,2.0,40,141.2
1824,C5,360.0,2.0,40,141.2
1825,F3,360.25,11/40,31,141.2
1826,G3,360.5,11/40,36,141.2
1827,A3,360.75,11/40,31,141.2
1828,B-3,361.0,11/40,36,141.2
1829,C4,361.25,11/40,31,141.2
1830,D4,361.5,11/40,36,141.2
1831,E4,361.75,11/40,29,141.2
1832,A4,362.0,1.0,49,141.2
1833,F4,362.0,11/40,36,141.2
1834,E4,362.25,11/40,29,141.2
1835,F4,362.5,11/40,36,141.2
1836,E4,362.75,11/40,29,141.2
1837,F5,363.0,1.0,47,141.2
1838,F4,363.0,11/40,36,141.2
1839,E4,363.25,11/40,27,141.2
1840,F4,363.5,11/40,34,141.2
1841,E4,363.75,0.25,26,141.2
1842,F4,364.0,11/40,30,141.2
1843,A4,364.0,1.0,45,141.2
1844,C5,364.0,1.0,45,141.2
1845,E4,364.25,11/40,25,141.2
1846,F4,364.5,11/40,30,141.2
1847,E4,364.75,11/40,25,141.2
1848,F4,365.0,11/40,30,141.2
1849,A5,365.0,1.0,40,141.2
1850,F5,365.0,1.0,40,141.2
1851,E4,365.25,11/40,25,141.2
1852,F4,365.5,11/40,30,141.2
1853,E4,365.75,11/40,25,141.2
1854,F4,366.0,11/40,30,141.2
1855,A4,366.0,1.0,46,141.2
1856,C5,366.0,1.0,46,141.2
1857,E4,366.25,11/40,25,141.2
1858,F4,366.5,11/40,30,141.2
1859,E4,366.75,11/40,25,141.2
1860,F4,367.0,11/40,30,141.2
1861,C6,367.0,1.0,40,141.2
1862,A5,367.0,1.0,40,141.2
1863,E4,367.25,11/40,25,141.2
1864,F4,367.5,11/40,30,141.2
1865,E4,367.75,0.25,25,141.2
1866,F4,368.0,0.25,30,141.2
1867,A4,368.0,2.0,40,141.2
1868,C5,368.0,2.0,40,141.2
1869,F3,368.25,11/40,31,141.2
1870,G3,368.5,11/40,36,141.2
1871,A3,368.75,11/40,31,141.2
1872,B-3,369.0,11/40,36,141.2
1873,C4,369.25,11/40,31,141.2
1874,D4,369.5,11/40,36,141.2
1875,E4,369.75,11/40,29,141.2
1876,A4,370.0,1.0,49,141.2
1877,F4,370.0,11/40,36,141.2
1878,E4,370.25,11/40,29,141.2
1879,F4,370.5,11/40,36,141.2
1880,E4,370.75,11/40,29,141.2
1881,F5,371.0,1.0,46,141.2
1882,F4,371.0,11/40,36,141.2
1883,E4,371.25,11/40,27,141.2
1884,F4,371.5,11/40,34,141.2
1885,E4,371.75,0.25,26,141.2
1886,F4,372.0,11/40,30,141.2
1887,A4,372.0,1.0,45,141.2
1888,C5,372.0,1.0,45,141.2
1889,E4,372.25,11/40,25,141.2
1890,F4,372.5,11/40,30,141.2
1891,E4,372.75,11/40,25,141.2
1892,F4,373.0,11/40,30,141.2
1893,A5,373.0,1.0,40,141.2
1894,F5,373.0,1.0,40,141.2
1895,E4,373.25,11/40,25,141.2
1896,F4,373.5,11/40,30,141.2
1897,E4,373.75,11/40,25,141.2
1898,F4,374.0,11/40,30,141.2
1899,A4,374.0,1.0,46,141.2
1900,C5,374.0,1.0,46,141.2
1901,E4,374.25,11/40,25,141.2
1902,F4,374.5,11/40,30,141.2
1903,E4,374.75,11/40,25,141.2
1904,F4,375.0,11/40,30,141.2
1905,C6,375.0,1.0,40,141.2
1906,A5,375.0,1.0,40,141.2
1907,E-4,375.25,11/40,25,141.2
1908,F4,375.5,11/40,30,141.2
1909,E-4,375.75,0.25,25,141.2
1910,C#4,376.0,0.375,39,141.2
1911,A4,376.0,2.0,45,141.2
1912,C5,376.0,2.0,45,141.2
1913,D5,376.0,2.0,45,141.2
1914,F#5,376.0,2.0,45,141.2
1915,D4,376.25,0.25,34,141.2
1916,C#4,376.5,0.375,39,141.2
1917,D4,376.75,0.25,35,141.2
1918,B3,377.0,0.375,41,141.2
1919,C4,377.25,0.25,35,141.2
1920,B3,377.5,0.375,42,141.2
1921,C4,377.75,0.25,36,141.2
1922,G#3,378.0,0.375,44,141.2
1923,A3,378.25,0.25,37,141.2
1924,G#3,378.5,0.375,45,141.2
1925,A3,378.75,0.25,37,141.2
1926,F3,379.0,0.375,44,141.2
1927,F#3,379.25,0.25,38,141.2
1928,F3,379.5,0.375,44,141.2
1929,F#3,379.75,0.25,39,141.2
1930,C#3,380.0,0.375,45,141.2
1931,D3,380.25,0.25,39,141.2
1932,C#3,380.5,0.375,46,141.2
1933,D3,380.75,0.25,40,141.2
1934,F#5,381.0,1.0,70,141.2
1935,B2,381.0,0.375,48,141.2
1936,C3,381.25,0.25,41,141.2
1937,B2,381.5,0.375,48,141.2
1938,C3,381.75,0.25,41,141.2
1939,A5,382.0,1.0,68,141.2
1940,G#2,382.0,0.375,54,141.2
1941,A2,382.25,0.25,42,141.2
1942,G#2,382.5,0.375,52,141.2
1943,A2,382.75,0.25,43,141.2
1944,C6,383.0,1.0,66,141.2
1945,F2,383.0,0.375,55,141.2
1946,F#2,383.25,0.25,44,141.2
1947,F2,383.5,0.375,51,141.2
1948,F#2,383.75,0.25,44,141.2
1949,F#5,384.0,2.0,72,141.2
1950,C6,384.0,1.0,66,141.2
1951,C#2,384.0,0.375,57,141.2
1952,D2,384.25,0.25,44,141.2
1953,C#2,384.5,0.375,51,141.2
1954,D2,384.75,0.25,44,141.2
1955,B-5,385.0,3.0,73,141.2
1956,C#2,385.0,0.375,56,141.2
1957,D2,385.25,0.25,50,141.2
1958,C#2,385.5,0.375,57,141.2
1959,D2,385.75,229/1000,44,141.2
1960,G5,386.0,2.0,75,141.2
1961,D2,386.0,0.375,61,141.2
1962,E-2,386.25,0.25,52,141.2
1963,D2,386.5,0.375,58,141.2
1964,E-2,386.75,0.25,52,141.2
1965,C#5,387.0,1.0,66,141.2
1966,E-2,387.0,0.375,58,141.2
1967,E2,387.25,0.25,44,141.2
1968,E-2,387.5,0.375,54,141.2
1969,E2,387.75,0.25,44,141.2
1970,C5,388.0,2.0,74,141.2
1971,G5,388.0,1.0,75,141.2
1972,B-5,388.0,1.0,73,141.2
1973,E2,388.0,0.375,56,141.2
1974,F2,388.25,0.25,48,141.2
1975,E2,388.5,0.375,51,141.2
1976,F2,388.75,0.25,44,141.2
1977,E2,389.0,0.375,51,141.2
1978,A5,389.0,1.0,62,141.2
1979,F5,389.0,1.0,62,141.2
1980,F2,389.25,0.25,44,141.2
1981,E2,389.5,0.375,51,141.2
1982,F2,389.75,229/1000,44,141.2
1983,A1,390.0,0.375,51,141.2
1984,B-4,390.0,1.0,65,141.2
1985,D5,390.0,1.0,65,141.2
1986,G5,390.0,1.0,65,141.2
1987,B-1,390.25,0.25,44,141.2
1988,A1,390.5,0.375,51,141.2
1989,B-1,390.75,229/1000,44,141.2
1990,B1,391.0,0.375,51,141.2
1991,G4,391.0,1.0,57,141.2
1992,B-4,391.0,1.0,57,141.2
1993,E5,391.0,1.0,57,141.2
1994,C2,391.25,0.25,44,141.2
1995,B1,391.5,0.375,51,141.2
1996,C2,391.75,229/1000,44,141.2
1997,F1,392.0,0.5,48,141.2
1998,F4,392.0,0.5,68,141.2
1999,A4,392.0,0.5,68,141.2
2000,F5,392.0,0.5,68,141.2
2001,F4,394.0,2.0,80,141.2
2002,A4,394.0,2.0,80,141.2
2003,F3,394.0,2.0,59,141.2
2004,A3,394.0,2.0,59,141.2
2005,D4,396.0,1.0,62,141.2
2006,F4,396.0,1.0,62,141.2
2007,D3,396.0,1.0,45,141.2
2008,F3,396.0,1.0,45,141.2
2009,B-3,397.0,0.5,64,141.2
2010,D4,397.0,0.5,64,141.2
2011,B-2,397.0,0.5,45,141.2
2012,D3,397.0,0.5,45,141.2
2013,G4,398.0,1.5,80,141.2
2014,B-4,398.0,1.5,80,141.2
2015,G3,398.0,1.5,59,141.2
2016,B-3,398.0,1.5,59,141.2
2017,F4,399.5,0.5,62,141.2
2018,A4,399.5,0.5,62,141.2
2019,F3,399.5,0.5,45,141.2
2020,A3,399.5,0.5,45,141.2
2021,G4,400.0,979/1000,70,141.2
2022,E4,400.0,979/1000,70,141.2
2023,E3,400.0,1.0,54,141.2
2024,G3,400.0,1.0,54,141.2
2025,C4,401.0,0.5,62,141.2
2026,E4,401.0,0.5,62,141.2
2027,C3,401.0,0.5,48,141.2
2028,E3,401.0,0.5,48,141.2
2029,A4,402.0,2.0,80,141.2
2030,C5,402.0,2.0,80,141.2
2031,A3,402.0,2.0,59,141.2
2032,C4,402.0,2.0,59,141.2
2033,F4,404.0,1.0,62,141.2
2034,A4,404.0,1.0,62,141.2
2035,F3,404.0,1.0,45,141.2
2036,A3,404.0,1.0,45,141.2
2037,D4,405.0,0.5,64,141.2
2038,F4,405.0,0.5,64,141.2
2039,D3,405.0,0.5,45,141.2
2040,F3,405.0,0.5,45,141.2
2041,B-4,406.0,1.5,80,141.2
2042,D5,406.0,1.5,80,141.2
2043,B-3,406.0,1.5,59,141.2
2044,D4,406.0,1.5,59,141.2
2045,A4,407.5,0.5,62,141.2
2046,C5,407.5,0.5,62,141.2
2047,A3,407.5,0.5,45,141.2
2048,C4,407.5,0.5,45,141.2
2049,B-4,408.0,979/1000,70,141.2
2050,G4,408.0,979/1000,70,141.2
2051,G3,408.0,1.0,54,141.2
2052,B-3,408.0,1.0,54,141.2
2053,E4,409.0,0.5,62,141.2
2054,G4,409.0,0.5,62,141.2
2055,E3,409.0,0.5,48,141.2
2056,G3,409.0,0.5,48,141.2
2057,B-4,410.0,1.5,80,141.2
2058,G5,410.0,1.5,80,141.2
2059,B-3,410.0,1.5,59,141.2
2060,G4,410.0,1.5,59,141.2
2061,A4,411.5,0.5,62,141.2
2062,F5,411.5,0.5,62,141.2
2063,A3,411.5,0.5,45,141.2
2064,F4,411.5,0.5,45,141.2
2065,G4,412.0,1.5,80,141.2
2066,E5,412.0,1.5,80,141.2
2067,G3,412.0,1.5,59,141.2
2068,E4,412.0,1.5,59,141.2
2069,F4,413.5,0.5,62,141.2
2070,D5,413.5,0.5,62,141.2
2071,F3,413.5,0.5,41,141.2
2072,D4,413.5,0.5,41,141.2
2073,E4,414.0,1.0,56,141.2
2074,C5,414.0,1.0,56,141.2
2075,E3,414.0,1.0,45,141.2
2076,C4,414.0,1.0,45,141.2
2077,B-3,415.0,1.0,48,141.2
2078,B-4,415.0,1.0,48,141.2
2079,D3,415.0,1.0,38,141.2
2080,F3,415.0,1.0,38,141.2
2081,A3,416.0,1.0,54,141.2
2082,A4,416.0,1.0,54,141.2
2083,C#3,416.0,1.0,40,141.2
2084,E3,416.0,1.0,40,141.2
2085,C#4,417.0,1.0,42,141.2
2086,G4,417.0,1.0,42,141.2
2087,A2,417.0,1.0,30,141.2
2088,E3,417.0,1.0,30,141.2
2089,D4,418.0,1.0,49,141.2
2090,F4,418.0,1.0,49,141.2
2091,B-2,418.0,1.0,36,141.2
2092,D3,418.0,1.0,36,141.2
2093,B2,419.0,1.0,31,141.2
2094,F3,419.0,1.0,43,141.2
2095,G3,419.0,1.0,43,141.2
2096,D4,419.0,1.0,43,141.2
2097,C3,420.0,2.0,38,141.2
2098,F3,421.0,0.5,34,141.2
2099,A3,421.0,0.5,34,141.2
2100,C4,421.0,0.5,34,141.2
2101,C2,422.0,2.0,32,141.2
2102,C3,423.0,0.5,32,141.2
2103,E3,423.0,0.5,32,141.2
2104,G3,423.0,0.5,32,141.2
2105,C4,423.0,0.5,32,141.2
2106,F1,424.0,2.0,35,141.2
2107,A3,425.0,0.938,31,141.2
2108,F3,425.0,0.938,31,141.2
2109,C3,425.0,0.938,31,141.2
2110,A3,426.0,1.5,60,141.2
2111,F3,426.0,1.5,60,141.2
2112,F4,426.5,1.0,60,141.2
2113,A4,426.5,1.0,60,141.2
2114,F4,427.5,0.25,47,141.2
2115,A4,427.5,0.25,47,141.2
2116,F3,427.5,0.25,40,141.2
2117,A3,427.5,0.25,40,141.2
2118,D3,428.0,0.25,49,141.2
2119,F3,428.0,0.25,49,141.2
2120,D4,428.5,0.25,45,141.2
2121,F4,428.5,0.25,45,141.2
2122,B-2,429.0,0.25,43,141.2
2123,D3,429.0,0.25,43,141.2
2124,B-3,429.5,0.25,42,141.2
2125,D4,429.5,0.25,42,141.2
2126,B-3,430.0,1.5,60,141.2
2127,G3,430.0,1.5,60,141.2
2128,G4,430.5,1.0,66,141.2
2129,B-4,430.5,1.0,66,141.2
2130,F4,431.5,0.25,47,141.2
2131,A4,431.5,0.25,47,141.2
2132,F3,431.5,0.25,40,141.2
2133,A3,431.5,0.25,40,141.2
2134,E3,432.0,0.25,49,141.2
2135,G3,432.0,0.25,49,141.2
2136,E4,432.5,0.25,45,141.2
2137,G4,432.5,0.25,45,141.2
2138,C3,433.0,0.25,43,141.2
2139,E3,433.0,0.25,43,141.2
2140,C4,433.5,0.25,42,141.2
2141,E4,433.5,0.25,42,141.2
2142,C4,434.0,1.5,66,141.2
2143,A3,434.0,1.5,66,141.2
2144,A4,434.5,1.0,66,141.2
2145,C5,434.5,1.0,66,141.2
2146,A4,435.5,0.25,52,141.2
2147,C5,435.5,0.25,52,141.2
2148,A3,435.5,0.25,44,141.2
2149,C4,435.5,0.25,44,141.2
2150,F3,436.0,0.25,54,141.2
2151,A3,436.0,0.25,54,141.2
2152,F4,436.5,0.25,49,141.2
2153,A4,436.5,0.25,49,141.2
2154,D3,437.0,0.25,46,141.2
2155,F3,437.0,0.25,46,141.2
2156,D4,437.5,0.25,45,141.2
2157,F4,437.5,0.25,45,141.2
2158,D4,438.0,1.5,68,141.2
2159,B-3,438.0,1.5,68,141.2
2160,B-4,438.5,1.0,76,141.2
2161,D5,438.5,1.0,76,141.2
2162,A4,439.5,0.25,54,141.2
2163,C5,439.5,0.25,54,141.2
2164,A3,439.5,0.25,46,141.2
2165,C4,439.5,0.25,46,141.2
2166,G3,440.0,0.25,56,141.2
2167,B-3,440.0,0.25,56,141.2
2168,G4,440.5,0.25,51,141.2
2169,B-4,440.5,0.25,51,141.2
2170,E3,441.0,0.25,48,141.2
2171,G3,441.0,0.25,48,141.2
2172,E4,441.5,0.25,47,141.2
2173,G4,441.5,0.25,47,141.2
2174,G4,442.0,1.5,72,141.2
2175,B-3,442.0,1.5,72,141.2
2176,B-4,442.5,1.0,88,141.2
2177,G5,442.5,1.0,88,141.2
2178,A4,443.5,0.25,62,141.2
2179,F5,443.5,0.25,62,141.2
2180,A3,443.5,0.25,48,141.2
2181,F4,443.5,0.25,48,141.2
2182,E4,444.0,1.5,72,141.2
2183,G3,444.0,1.5,72,141.2
2184,G4,444.5,1.0,88,141.2
2185,E5,444.5,1.0,88,141.2
2186,F4,445.5,0.25,62,141.2
2187,D5,445.5,0.25,62,141.2
2188,F3,445.5,0.25,48,141.2
2189,D4,445.5,0.25,48,141.2
2190,E3,446.0,0.25,54,141.2
2191,C4,446.0,0.25,54,141.2
2192,E4,446.5,0.25,48,141.2
2193,C5,446.5,0.25,48,141.2
2194,D3,447.0,0.25,44,141.2
2195,F3,447.0,0.25,44,141.2
2196,B-3,447.5,0.25,42,141.2
2197,B-4,447.5,0.25,42,141.2
2198,A4,448.0,0.25,54,141.2
2199,C#3,448.0,4.0,36,141.2
2200,E3,448.0,4.0,36,141.2
2201,G3,448.0,4.0,36,141.2
2202,A3,448.25,0.25,46,141.2
2203,C#4,448.5,0.25,43,141.2
2204,E4,448.75,0.25,43,141.2
2205,A4,449.0,0.25,53,141.2
2206,C#5,449.25,0.25,42,141.2
2207,E5,449.5,0.25,42,141.2
2208,G#5,449.75,0.25,42,141.2
2209,A5,450.0,0.25,49,141.2
2210,G#5,450.25,0.25,39,141.2
2211,A5,450.5,0.25,42,141.2
2212,G#5,450.75,0.25,38,141.2
2213,A5,451.0,0.25,48,141.2
2214,E5,451.25,0.25,38,141.2
2215,C#5,451.5,0.25,38,141.2
2216,A4,451.75,0.25,38,141.2
2217,D3,452.0,4.0,37,141.2
2218,F3,452.0,4.0,37,141.2
2219,A3,452.25,0.25,46,141.2
2220,D4,452.5,0.25,43,141.2
2221,F4,452.75,0.25,43,141.2
2222,A4,453.0,0.25,53,141.2
2223,D5,453.25,0.25,42,141.2
2224,F5,453.5,0.25,42,141.2
2225,G#5,453.75,0.25,42,141.2
2226,A5,454.0,0.25,49,141.2
2227,G#5,454.25,0.25,39,141.2
2228,A5,454.5,0.25,42,141.2
2229,G#5,454.75,0.25,38,141.2
2230,A5,455.0,0.25,48,141.2
2231,F5,455.25,0.25,38,141.2
2232,D5,455.5,0.25,38,141.2
2233,A4,455.75,0.25,38,141.2
2234,B2,456.0,4.0,36,141.2
2235,D3,456.0,4.0,36,141.2
2236,F3,456.0,4.0,36,141.2
2237,G#3,456.25,0.25,46,141.2
2238,B3,456.5,0.25,43,141.2
2239,D4,456.75,0.25,43,141.2
2240,F4,457.0,0.25,50,141.2
2241,G#4,457.25,0.25,42,141.2
2242,B4,457.5,0.25,42,141.2
2243,D5,457.75,0.25,42,141.2
2244,F5,458.0,0.25,49,141.2
2245,D5,458.25,0.25,41,141.2
2246,G#5,458.5,0.25,48,141.2
2247,F5,458.75,0.25,41,141.2
2248,D5,459.0,0.25,48,141.2
2249,B4,459.25,0.25,45,141.2
2250,G#4,459.5,0.25,42,141.2
2251,F4,459.75,0.25,39,141.2
2252,B-2,460.0,2.5,60,141.2
2253,C#3,460.0,2.5,60,141.2
2254,E3,460.0,2.5,60,141.2
2255,G3,460.0,2.5,60,141.2
2256,E4,460.25,0.25,48,141.2
2257,G4,460.5,0.25,50,141.2
2258,B-4,460.75,0.25,51,141.2
2259,C#5,461.0,0.25,53,141.2
2260,E5,461.25,0.25,55,141.2
2261,G5,461.5,0.25,57,141.2
2262,B-5,461.75,0.25,59,141.2
2263,C#6,462.0,0.25,65,141.2
2264,E6,462.25,0.25,57,141.2
2265,E5,462.5,0.25,64,141.2
2266,B-2,462.5,0.25,53,141.2
2267,C3,462.5,0.25,53,141.2
2268,G3,462.5,0.25,53,141.2
2269,E6,462.75,0.25,56,141.2
2270,E5,463.0,0.25,64,141.2
2271,B-2,463.0,0.25,65,141.2
2272,C3,463.0,0.25,65,141.2
2273,G3,463.0,0.25,65,141.2
2274,E6,463.25,0.25,58,141.2
2275,E5,463.5,0.25,64,141.2
2276,B-2,463.5,0.25,54,141.2
2277,C3,463.5,0.25,54,141.2
2278,G3,463.5,0.25,54,141.2
2279,E6,463.75,0.25,59,141.2
2280,F5,464.0,0.25,74,141.2
2281,A2,464.0,1.0,73,141.2
2282,C3,464.0,1.0,73,141.2
2283,F3,464.0,1.0,73,141.2
2284,F6,464.25,0.25,59,141.2
2285,E5,464.5,0.25,67,141.2
2286,E6,464.75,0.25,54,141.2
2287,F5,465.0,0.25,66,141.2
2288,F6,465.25,0.25,57,141.2
2289,B-4,465.5,0.25,59,141.2
2290,E2,465.5,0.25,62,141.2
2291,C3,465.5,0.25,62,141.2
2292,B-5,465.75,0.25,50,141.2
2293,A4,466.0,0.25,79,141.2
2294,F2,466.0,0.25,69,141.2
2295,C3,466.0,0.25,69,141.2
2296,A5,466.25,0.25,54,141.2
2297,E5,466.5,0.25,65,141.2
2298,B-2,466.5,0.25,62,141.2
2299,C3,466.5,0.25,62,141.2
2300,E6,466.75,0.25,57,141.2
2301,F5,467.0,0.25,68,141.2
2302,A2,467.0,0.25,69,141.2
2303,C3,467.0,0.25,69,141.2
2304,F6,467.25,0.25,60,141.2
2305,B-4,467.5,0.25,67,141.2
2306,E2,467.5,0.25,62,141.2
2307,C3,467.5,0.25,62,141.2
2308,B-5,467.75,0.25,58,141.2
2309,A4,468.0,0.25,81,141.2
2310,F2,468.0,0.25,69,141.2
2311,C3,468.0,0.25,69,141.2
2312,A5,468.25,0.25,58,141.2
2313,E5,468.5,0.25,64,141.2
2314,B-2,468.5,0.25,62,141.2
2315,C3,468.5,0.25,62,141.2
2316,E6,468.75,0.25,59,141.2
2317,F5,469.0,0.25,67,141.2
2318,A2,469.0,0.25,69,141.2
2319,C3,469.0,0.25,69,141.2
2320,F6,469.25,0.25,55,141.2
2321,B-4,469.5,0.25,62,141.2
2322,E2,469.5,0.25,62,141.2
2323,C3,469.5,0.25,62,141.2
2324,B-5,469.75,0.25,51,141.2
2325,A4,470.0,0.25,72,141.2
2326,F2,470.0,0.25,69,141.2
2327,C3,470.0,0.25,69,141.2
2328,A5,470.25,0.25,52,141.2
2329,E5,470.5,0.25,64,141.2
2330,B-2,470.5,0.25,62,141.2
2331,C3,470.5,0.25,62,141.2
2332,E6,470.75,0.25,54,141.2
2333,F5,471.0,0.25,64,141.2
2334,A2,471.0,0.25,69,141.2
2335,C3,471.0,0.25,69,141.2
2336,F6,471.25,0.25,51,141.2
2337,B-4,471.5,0.25,60,141.2
2338,E2,471.5,0.25,62,141.2
2339,C3,471.5,0.25,62,141.2
2340,B-5,471.75,0.25,51,141.2
2341,A4,472.0,0.25,83,141.2
2342,F2,472.0,2.0,89,141.2
2343,A5,472.25,0.25,53,141.2
2344,G4,472.5,0.25,62,141.2
2345,G5,472.75,0.25,54,141.2
2346,F4,473.0,0.25,62,141.2
2347,F5,473.25,0.25,54,141.2
2348,E4,473.5,0.25,62,141.2
2349,E5,473.75,0.25,53,141.2
2350,D4,474.0,0.25,81,141.2
2351,D2,474.0,2.0,80,141.2
2352,D5,474.25,0.25,53,141.2
2353,C4,474.5,0.25,60,141.2
2354,C5,474.75,0.25,52,141.2
2355,B-3,475.0,0.25,59,141.2
2356,B-4,475.25,0.25,52,141.2
2357,A3,475.5,0.25,59,141.2
2358,A4,475.75,0.25,50,141.2
2359,G3,476.0,0.25,79,141.2
2360,B-1,476.0,2.0,88,141.2
2361,G4,476.25,0.25,50,141.2
2362,F3,476.5,0.25,59,141.2
2363,F4,476.75,0.25,49,141.2
2364,E3,477.0,0.25,59,141.2
2365,E4,477.25,0.25,49,141.2
2366,D3,477.5,0.25,59,141.2
2367,D4,477.75,0.25,51,141.2
2368,C3,478.0,0.25,79,141.2
2369,C2,478.0,2.0,84,141.2
2370,C4,478.25,0.25,49,141.2
2371,B-2,478.5,0.25,59,141.2
2372,B-3,478.75,0.25,50,141.2
2373,A2,479.0,0.25,59,141.2
2374,A3,479.25,0.25,48,141.2
2375,G2,479.5,0.25,58,141.2
2376,G3,479.75,0.25,49,141.2
2377,F1,480.0,0.25,81,141.2
2378,F3,480.0,0.25,70,141.2
2379,F2,480.0,0.25,70,141.2
2380,E3,480.5,0.25,49,141.2
2381,B-2,480.5,0.25,54,141.2
2382,C4,480.75,0.25,42,141.2
2383,F3,481.0,0.25,49,141.2
2384,A2,481.0,0.25,60,141.2
2385,C4,481.25,0.25,41,141.2
2386,B-3,481.5,0.25,49,141.2
2387,E2,481.5,0.25,54,141.2
2388,C4,481.75,0.25,42,141.2
2389,A3,482.0,0.25,49,141.2
2390,F2,482.0,0.25,60,141.2
2391,C4,482.25,0.25,41,141.2
2392,E3,482.5,0.25,49,141.2
2393,B-2,482.5,0.25,52,141.2
2394,C4,482.75,0.25,42,141.2
2395,F3,483.0,0.25,49,141.2
2396,A2,483.0,0.25,60,141.2
2397,C4,483.25,0.25,43,141.2
2398,B-3,483.5,0.25,49,141.2
2399,E2,483.5,0.25,58,141.2
2400,C4,483.75,0.25,40,141.2
2401,A3,484.0,0.25,49,141.2
2402,F2,484.0,0.25,60,141.2
2403,C4,484.25,0.25,41,141.2
2404,E3,484.5,0.25,49,141.2
2405,B-2,484.5,0.25,52,141.2
2406,C4,484.75,0.25,42,141.2
2407,F3,485.0,0.25,49,141.2
2408,A2,485.0,0.25,60,141.2
2409,C4,485.25,0.25,43,141.2
2410,B-3,485.5,0.25,49,141.2
2411,E2,485.5,0.25,58,141.2
2412,C4,485.75,0.25,40,141.2
2413,A3,486.0,0.25,56,141.2
2414,F2,486.0,0.25,67,141.2
2415,C4,486.25,0.25,45,141.2
2416,C#3,486.5,0.25,60,141.2
2417,G2,486.5,0.25,59,141.2
2418,C#4,486.75,0.25,52,141.2
2419,D3,487.0,0.25,61,141.2
2420,F2,487.0,0.25,72,141.2
2421,D4,487.25,0.25,49,141.2
2422,E3,487.5,0.25,67,141.2
2423,E2,487.5,0.25,67,141.2
2424,E4,487.75,0.25,60,141.2
2425,F3,488.0,0.25,71,141.2
2426,D2,488.0,0.25,75,141.2
2427,F4,488.25,0.25,62,141.2
2428,F#3,488.5,0.25,70,141.2
2429,C2,488.5,0.25,77,141.2
2430,F#4,488.75,0.25,64,141.2
2431,G3,489.0,0.25,70,141.2
2432,B-1,489.0,0.25,80,141.2
2433,G4,489.25,0.25,64,141.2
2434,A3,489.5,0.25,74,141.2
2435,A1,489.5,0.25,82,141.2
2436,A4,489.75,0.25,65,141.2
2437,B-3,490.0,0.25,82,141.2
2438,G1,490.0,2.0,94,141.2
2439,B-4,490.25,0.25,71,141.2
2440,C4,490.5,0.25,79,141.2
2441,C5,490.75,0.25,70,141.2
2442,D4,491.0,0.25,83,141.2
2443,D5,491.25,0.25,72,141.2
2444,C4,491.5,0.25,81,141.2
2445,C5,491.75,0.25,69,141.2
2446,B-3,492.0,0.25,84,141.2
2447,G1,492.0,2.0,94,141.2
2448,B-4,492.25,0.25,69,141.2
2449,A3,492.5,0.25,81,141.2
2450,A4,492.75,0.25,69,141.2
2451,G3,493.0,0.25,79,141.2
2452,G4,493.25,0.25,69,141.2
2453,F3,493.5,0.25,78,141.2
2454,F4,493.75,0.25,65,141.2
2455,E3,494.0,0.25,79,141.2
2456,C2,494.0,2.0,87,141.2
2457,E4,494.25,0.25,69,141.2
2458,D3,494.5,0.25,77,141.2
2459,D4,494.75,0.25,65,141.2
2460,C3,495.0,0.25,77,141.2
2461,C4,495.25,0.25,67,141.2
2462,E3,495.5,0.25,75,141.2
2463,E4,495.75,0.25,66,141.2
2464,F1,496.0,0.25,30,141.2
2465,F4,496.0,1.0,79,141.2
2466,F3,496.0,1.0,79,141.2
2467,F2,496.25,0.25,26,141.2
2468,F1,496.5,0.25,30,141.2
2469,F2,496.75,0.25,25,141.2
2470,F1,497.0,0.25,30,141.2
2471,F2,497.25,0.25,26,141.2
2472,F1,497.5,0.25,30,141.2
2473,F2,497.75,0.25,27,141.2
2474,F1,498.0,0.25,30,141.2
2475,C4,498.0,2.0,37,141.2
2476,A3,498.0,2.0,37,141.2
2477,F2,498.25,0.25,27,141.2
2478,F1,498.5,0.25,30,141.2
2479,F2,498.75,0.25,25,141.2
2480,F1,499.0,0.25,30,141.2
2481,F2,499.25,0.25,26,141.2
2482,F3,499.5,0.5,39,141.2
2483,F1,499.5,0.25,30,141.2
2484,F2,499.75,0.25,26,141.2
2485,F1,500.0,0.25,30,141.2
2486,C#4,500.0,2.0,42,141.2
2487,B-3,500.0,2.0,42,141.2
2488,F2,500.25,0.25,26,141.2
2489,F1,500.5,0.25,30,141.2
2490,F2,500.75,0.25,25,141.2
2491,F1,501.0,0.25,30,141.2
2492,F2,501.25,0.25,26,141.2
2493,G#3,501.5,0.5,40,141.2
2494,F1,501.5,0.25,30,141.2
2495,F2,501.75,0.25,27,141.2
2496,F#3,502.0,0.5,45,141.2
2497,F1,502.0,0.25,30,141.2
2498,C4,502.0,1.0,32,141.2
2499,B-3,502.0,1.0,32,141.2
2500,F2,502.25,0.25,27,141.2
2501,F3,502.5,0.5,40,141.2
2502,F1,502.5,0.25,30,141.2
2503,F2,502.75,0.25,25,141.2
2504,F#3,503.0,0.5,46,141.2
2505,F1,503.0,0.25,30,141.2
2506,C4,503.0,1.0,33,141.2
2507,B-3,503.0,1.0,33,141.2
2508,F2,503.25,0.25,26,141.2
2509,E3,503.5,0.5,40,141.2
2510,F1,503.5,0.25,30,141.2
2511,F2,503.75,0.25,26,141.2
2512,F1,504.0,0.25,30,141.2
2513,C4,504.0,1.5,41,141.2
2514,A3,504.0,1.5,41,141.2
2515,F3,504.0,1.5,41,141.2
2516,F2,504.25,0.25,26,141.2
2517,F1,504.5,0.25,30,141.2
2518,F2,504.75,0.25,25,141.2
2519,F1,505.0,0.25,30,141.2
2520,F2,505.25,0.25,26,141.2
2521,F1,505.5,0.25,30,141.2
2522,F2,505.75,0.25,27,141.2
2523,A4,506.0,1.5,52,141.2
2524,F1,506.0,0.25,30,141.2
2525,C4,506.0,2.0,48,141.2
2526,A3,506.0,2.0,48,141.2
2527,F2,506.25,0.25,27,141.2
2528,F1,506.5,0.25,35,141.2
2529,F2,506.75,0.25,29,141.2
2530,F1,507.0,0.25,34,141.2
2531,F2,507.25,0.25,26,141.2
2532,F4,507.5,0.5,50,141.2
2533,F1,507.5,0.25,35,141.2
2534,F2,507.75,0.25,31,141.2
2535,B-4,508.0,1.5,52,141.2
2536,F1,508.0,0.25,38,141.2
2537,C#4,508.0,2.0,54,141.2
2538,B-3,508.0,2.0,54,141.2
2539,F2,508.25,0.25,30,141.2
2540,F1,508.5,0.25,34,141.2
2541,F2,508.75,0.25,25,141.2
2542,F1,509.0,0.25,33,141.2
2543,F2,509.25,0.25,26,141.2
2544,G#4,509.5,0.5,52,141.2
2545,F1,509.5,0.25,30,141.2
2546,F2,509.75,0.25,27,141.2
2547,F#4,510.0,0.5,58,141.2
2548,F1,510.0,0.25,30,141.2
2549,C#4,510.0,1.0,41,141.2
2550,B-3,510.0,1.0,41,141.2
2551,F2,510.25,0.25,27,141.2
2552,F4,510.5,0.5,52,141.2
2553,F1,510.5,0.25,30,141.2
2554,F2,510.75,0.25,25,141.2
2555,F#4,511.0,0.5,59,141.2
2556,F1,511.0,0.25,30,141.2
2557,C#4,511.0,1.0,42,141.2
2558,B-3,511.0,1.0,42,141.2
2559,F2,511.25,0.25,26,141.2
2560,E4,511.5,0.5,52,141.2
2561,F1,511.5,0.25,30,141.2
2562,F2,511.75,0.25,26,141.2
2563,F1,512.0,0.25,30,141.2
2564,F4,512.0,1.5,53,141.2
2565,C4,512.0,1.5,53,141.2
2566,A3,512.0,1.5,53,141.2
2567,F2,512.25,0.25,25,141.2
2568,F1,512.5,0.25,29,141.2
2569,F2,512.75,0.25,24,141.2
2570,F1,513.0,0.25,28,141.2
2571,F2,513.25,0.25,24,141.2
2572,F1,513.5,0.25,28,141.2
2573,F2,513.75,0.25,25,141.2
2574,G4,514.0,0.5,53,141.2
2575,F1,514.0,0.25,27,141.2
2576,C#4,514.0,1.0,37,141.2
2577,B-3,514.0,1.0,37,141.2
2578,F2,514.25,0.25,24,141.2
2579,F4,514.5,0.5,46,141.2
2580,F1,514.5,0.25,27,141.2
2581,F2,514.75,0.25,22,141.2
2582,G4,515.0,0.5,51,141.2
2583,F1,515.0,0.25,26,141.2
2584,C#4,515.0,1.0,36,141.2
2585,B-3,515.0,1.0,36,141.2
2586,F2,515.25,0.25,22,141.2
2587,E4,515.5,0.5,44,141.2
2588,F1,515.5,0.25,25,141.2
2589,F2,515.75,0.25,22,141.2
2590,F1,516.0,0.25,25,141.2
2591,F4,516.0,1.5,44,141.2
2592,C4,516.0,1.5,44,141.2
2593,A3,516.0,1.5,44,141.2
2594,F2,516.25,0.25,21,141.2
2595,F1,516.5,0.25,24,141.2
2596,F2,516.75,0.25,20,141.2
2597,F1,517.0,0.25,24,141.2
2598,F2,517.25,0.25,20,141.2
2599,F1,517.5,0.25,23,141.2
2600,F2,517.75,0.25,20,141.2
2601,F#4,518.0,0.5,43,141.2
2602,F1,518.0,0.25,22,141.2
2603,C#4,518.0,1.0,30,141.2
2604,B-3,518.0,1.0,30,141.2
2605,F2,518.25,0.25,20,141.2
2606,F4,518.5,0.5,39,141.2
2607,F1,518.5,0.25,22,141.2
2608,F2,518.75,0.25,18,141.2
2609,F#4,519.0,0.5,44,141.2
2610,F1,519.0,0.25,22,141.2
2611,C#4,519.0,1.0,31,141.2
2612,B-3,519.0,1.0,31,141.2
2613,F2,519.25,0.25,19,141.2
2614,E4,519.5,0.5,39,141.2
2615,F1,519.5,0.25,22,141.2
2616,F2,519.75,0.25,19,141.2
2617,F3,520.0,1.5,81,141.2
2618,F4,520.0,1.5,81,141.2
2619,F1,520.0,1.5,61,141.2
2620,F2,520.0,1.5,61,141.2
2621,G3,521.5,0.25,73,141.2
2622,G4,521.5,0.25,73,141.2
2623,G1,521.5,0.25,54,141.2
2624,G2,521.5,0.25,54,141.2
2625,A3,522.0,1.5,82,141.2
2626,A4,522.0,1.5,82,141.2
2627,A1,522.0,1.5,61,141.2
2628,A2,522.0,1.5,61,141.2
2629,B-3,523.5,0.25,74,141.2
2630,B-4,523.5,0.25,74,141.2
2631,B-1,523.5,0.25,55,141.2
2632,B-2,523.5,0.25,55,141.2
2633,C4,524.0,1.5,84,141.2
2634,C5,524.0,1.5,84,141.2
2635,C2,524.0,1.5,62,141.2
2636,C3,524.0,1.5,62,141.2
2637,D4,525.5,0.25,68,141.2
2638,D5,525.5,0.25,68,141.2
2639,D2,525.5,0.25,52,141.2
2640,D3,525.5,0.25,52,141.2
2641,E4,526.0,0.25,78,141.2
2642,E5,526.0,0.25,78,141.2
2643,E2,526.0,0.25,58,141.2
2644,E3,526.0,0.25,58,141.2
2645,F4,526.5,0.25,74,141.2
2646,F5,526.5,0.25,74,141.2
2647,F2,526.5,0.25,55,141.2
2648,F3,526.5,0.25,55,141.2
2649,G4,527.0,0.25,80,141.2
2650,G5,527.0,0.25,80,141.2
2651,G2,527.0,0.25,60,141.2
2652,G3,527.0,0.25,60,141.2
2653,A4,527.5,0.25,76,141.2
2654,A5,527.5,0.25,76,141.2
2655,A2,527.5,0.25,56,141.2
2656,A3,527.5,0.25,56,141.2
2657,B-4,528.0,1.5,88,141.2
2658,B-5,528.0,1.5,88,141.2
2659,B-2,528.0,1.5,66,141.2
2660,B-3,528.0,1.5,66,141.2
2661,A4,529.5,0.25,78,141.2
2662,A5,529.5,0.25,78,141.2
2663,A2,529.5,0.25,58,141.2
2664,A3,529.5,0.25,58,141.2
2665,G4,530.0,1.5,86,141.2
2666,G5,530.0,1.5,86,141.2
2667,G2,530.0,1.5,64,141.2
2668,G3,530.0,1.5,64,141.2
2669,F4,531.5,0.25,76,141.2
2670,F5,531.5,0.25,76,141.2
2671,F2,531.5,0.25,56,141.2
2672,F3,531.5,0.25,56,141.2
2673,E4,532.0,1.5,85,141.2
2674,E5,532.0,1.5,85,141.2
2675,E2,532.0,1.5,64,141.2
2676,E3,532.0,1.5,64,141.2
2677,D4,533.5,0.25,68,141.2
2678,D5,533.5,0.25,68,141.2
2679,D2,533.5,0.25,52,141.2
2680,D3,533.5,0.25,52,141.2
2681,C4,534.0,0.25,76,141.2
2682,C5,534.0,0.25,76,141.2
2683,C2,534.0,0.25,57,141.2
2684,C3,534.0,0.25,57,141.2
2685,B-3,534.5,0.25,72,141.2
2686,B-4,534.5,0.25,72,141.2
2687,B-1,534.5,0.25,54,141.2
2688,B-2,534.5,0.25,54,141.2
2689,A3,535.0,0.25,76,141.2
2690,A4,535.0,0.25,76,141.2
2691,A1,535.0,0.25,57,141.2
2692,A2,535.0,0.25,57,141.2
2693,G3,535.5,0.25,70,141.2
2694,G4,535.5,0.25,70,141.2
2695,G1,535.5,0.25,52,141.2
2696,G2,535.5,0.25,52,141.2
2697,F3,536.0,0.25,84,141.2
2698,F4,536.0,0.25,84,141.2
2699,F1,536.0,0.25,64,141.2
2700,F2,536.0,0.25,64,141.2
2701,E4,537.0,0.25,53,141.2
2702,C3,537.0,0.25,36,141.2
2703,G3,537.0,0.25,36,141.2
2704,B-3,537.0,0.25,36,141.2
2705,E-4,537.25,0.25,45,141.2
2706,E4,537.5,0.25,53,141.2
2707,C4,537.75,0.25,43,141.2
2708,F4,538.0,0.25,57,141.2
2709,F3,538.0,0.25,45,141.2
2710,A3,538.0,0.25,45,141.2
2711,E5,539.0,0.25,53,141.2
2712,C4,539.0,0.25,36,141.2
2713,G4,539.0,0.25,36,141.2
2714,B-4,539.0,0.25,36,141.2
2715,E-5,539.25,0.25,45,141.2
2716,E5,539.5,0.25,53,141.2
2717,C5,539.75,0.25,43,141.2
2718,F5,540.0,0.25,57,141.2
2719,F4,540.0,0.25,45,141.2
2720,A4,540.0,0.25,45,141.2
2721,E6,542.0,1.0,80,141.2
2722,C6,542.0,1.0,80,141.2
2723,B-5,542.0,1.0,80,141.2
2724,G5,542.0,1.0,80,141.2
2725,E5,542.0,1.0,80,141.2
2726,C3,542.0,1.0,62,141.2
2727,C4,542.0,1.0,62,141.2
2728,F6,544.0,1.0,86,141.2
2729,C6,544.0,1.0,86,141.2
2730,A5,544.0,1.0,86,141.2
2731,F5,544.0,1.0,86,141.2
2732,F2,544.0,1.0,70,141.2
2733,F3,544.0,1.0,70,141.2
2734,C4,547.0,0.25,42,141.2
2735,B3,547.25,0.25,40,141.2
2736,C4,547.5,0.25,45,141.2
2737,A3,547.75,0.25,39,141.2
2738,F4,548.0,0.25,50,141.2
2739,C3,549.0,0.25,42,141.2
2740,B2,549.25,0.25,40,141.2
2741,C3,549.5,0.25,45,141.2
2742,A2,549.75,0.25,39,141.2
2743,F3,550.0,0.25,50,141.2
2744,C4,551.0,0.25,42,141.2
2745,B3,551.25,0.25,40,141.2
2746,C4,551.5,0.25,45,141.2
2747,A3,551.75,0.25,39,141.2
2748,F4,552.0,0.25,50,141.2
2749,C3,553.0,0.25,42,141.2
2750,B2,553.25,0.25,40,141.2
2751,C3,553.5,0.25,45,141.2
2752,A2,553.75,0.25,39,141.2
2753,F3,554.0,0.25,50,141.2
2754,C4,555.0,0.25,70,141.2
2755,B3,555.25,0.25,66,141.2
2756,C4,555.5,0.25,77,141.2
2757,A3,555.75,0.25,71,141.2
2758,F4,556.0,1.5,92,141.2
2759,F2,556.0,1.5,61,141.2
2760,F3,556.0,1.5,61,141.2
2761,G4,557.5,0.25,82,141.2
2762,G2,557.5,0.25,54,141.2
2763,G3,557.5,0.25,54,141.2
2764,A4,558.0,1.5,93,141.2
2765,A2,558.0,1.5,61,141.2
2766,A3,558.0,1.5,61,141.2
2767,B-4,559.5,0.25,86,141.2
2768,B-2,559.5,0.25,55,141.2
2769,B-3,559.5,0.25,55,141.2
2770,C5,560.0,1.5,97,141.2
2771,C3,560.0,1.5,62,141.2
2772,C4,560.0,1.5,62,141.2
2773,D5,561.5,0.25,82,141.2
2774,D3,561.5,0.25,52,141.2
2775,D4,561.5,0.25,52,141.2
2776,E-5,562.0,0.25,90,141.2
2777,E-3,562.0,0.25,58,141.2
2778,E-4,562.0,0.25,58,141.2
2779,D5,562.5,0.25,85,141.2
2780,D3,562.5,0.25,55,141.2
2781,D4,562.5,0.25,55,141.2
2782,C5,563.0,0.25,93,141.2
2783,C3,563.0,0.25,60,141.2
2784,C4,563.0,0.25,60,141.2
2785,D5,563.5,0.25,86,141.2
2786,D3,563.5,0.25,56,141.2
2787,D4,563.5,0.25,56,141.2
2788,E-5,564.0,1.5,97,141.2
2789,E-3,564.0,1.5,62,141.2
2790,E-4,564.0,1.5,62,141.2
2791,D5,565.5,0.25,77,141.2
2792,D3,565.5,0.25,48,141.2
2793,D4,565.5,0.25,48,141.2
2794,C5,566.0,0.25,85,141.2
2795,C3,566.0,0.25,54,141.2
2796,C4,566.0,0.25,54,141.2
2797,B-4,566.5,0.25,80,141.2
2798,B-2,566.5,0.25,52,141.2
2799,B-3,566.5,0.25,52,141.2
2800,A4,567.0,0.25,88,141.2
2801,A2,567.0,0.25,56,141.2
2802,A3,567.0,0.25,56,141.2
2803,B-4,567.5,0.25,81,141.2
2804,B-2,567.5,0.25,52,141.2
2805,B-3,567.5,0.25,52,141.2
2806,C5,568.0,1.5,92,141.2
2807,C3,568.0,1.5,59,141.2
2808,C4,568.0,1.5,59,141.2
2809,B-4,569.5,0.25,76,141.2
2810,B-2,569.5,0.25,48,141.2
2811,B-3,569.5,0.25,48,141.2
2812,A4,570.0,0.25,81,141.2
2813,A2,570.0,0.25,52,141.2
2814,A3,570.0,0.25,52,141.2
2815,G4,570.5,0.25,74,141.2
2816,G2,570.5,0.25,48,141.2
2817,G3,570.5,0.25,48,141.2
2818,F#4,571.0,0.25,79,141.2
2819,F#2,571.0,0.25,50,141.2
2820,F#3,571.0,0.25,50,141.2
2821,E4,571.5,0.25,71,141.2
2822,E2,571.5,0.25,46,141.2
2823,E3,571.5,0.25,46,141.2
2824,D4,572.0,2.0,75,141.2
2825,D2,572.0,0.25,30,141.2
2826,D3,572.25,0.25,26,141.2
2827,D2,572.5,0.25,30,141.2
2828,D3,572.75,0.25,25,141.2
2829,D2,573.0,0.25,30,141.2
2830,D3,573.25,0.25,26,141.2
2831,D2,573.5,0.25,30,141.2
2832,D3,573.75,0.25,27,141.2
2833,F#4,574.0,1.5,34,141.2
2834,D2,574.0,0.25,30,141.2
2835,A3,574.0,2.0,40,141.2
2836,C4,574.0,2.0,40,141.2
2837,D3,574.25,0.25,27,141.2
2838,D2,574.5,0.25,30,141.2
2839,D3,574.75,0.25,25,141.2
2840,D2,575.0,0.25,30,141.2
2841,D3,575.25,0.25,26,141.2
2842,D4,575.5,0.5,39,141.2
2843,D2,575.5,0.25,30,141.2
2844,D3,575.75,0.25,26,141.2
2845,G4,576.0,1.5,46,141.2
2846,D2,576.0,0.25,30,141.2
2847,G3,576.0,2.0,39,141.2
2848,B-3,576.0,2.0,39,141.2
2849,D3,576.25,0.25,26,141.2
2850,D2,576.5,0.25,30,141.2
2851,D3,576.75,0.25,25,141.2
2852,D2,577.0,0.25,30,141.2
2853,D3,577.25,0.25,26,141.2
2854,F4,577.5,0.5,40,141.2
2855,D2,577.5,0.25,30,141.2
2856,D3,577.75,0.25,27,141.2
2857,E-4,578.0,0.5,45,141.2
2858,D2,578.0,0.25,30,141.2
2859,B-3,578.0,1.0,32,141.2
2860,G3,578.0,1.0,32,141.2
2861,D3,578.25,0.25,27,141.2
2862,D4,578.5,0.5,40,141.2
2863,D2,578.5,0.25,30,141.2
2864,D3,578.75,0.25,25,141.2
2865,E-4,579.0,0.5,46,141.2
2866,D2,579.0,0.25,30,141.2
2867,B-3,579.0,1.0,33,141.2
2868,G3,579.0,1.0,33,141.2
2869,D3,579.25,0.25,26,141.2
2870,C#4,579.5,0.5,40,141.2
2871,D2,579.5,0.25,30,141.2
2872,D3,579.75,0.25,26,141.2
2873,D2,580.0,0.25,30,141.2
2874,D4,580.0,1.5,41,141.2
2875,A3,580.0,1.5,41,141.2
2876,F#3,580.0,1.5,41,141.2
2877,D3,580.25,0.25,26,141.2
2878,D2,580.5,0.25,30,141.2
2879,D3,580.75,0.25,25,141.2
2880,D2,581.0,0.25,30,141.2
2881,D3,581.25,0.25,26,141.2
2882,D2,581.5,0.25,30,141.2
2883,D3,581.75,0.25,27,141.2
2884,F#5,582.0,1.5,41,141.2
2885,D2,582.0,0.25,30,141.2
2886,A4,582.0,2.0,40,141.2
2887,C5,582.0,2.0,40,141.2
2888,D3,582.25,0.25,27,141.2
2889,D2,582.5,0.25,30,141.2
2890,D3,582.75,0.25,25,141.2
2891,D2,583.0,0.25,30,141.2
2892,D3,583.25,0.25,26,141.2
2893,D5,583.5,0.5,42,141.2
2894,D2,583.5,0.25,30,141.2
2895,D3,583.75,0.25,26,141.2
2896,G5,584.0,1.5,53,141.2
2897,D2,584.0,0.25,30,141.2
2898,G4,584.0,2.0,39,141.2
2899,B-4,584.0,2.0,39,141.2
2900,D3,584.25,0.25,26,141.2
2901,D2,584.5,0.25,30,141.2
2902,D3,584.75,0.25,25,141.2
2903,D2,585.0,0.25,30,141.2
2904,D3,585.25,0.25,26,141.2
2905,F5,585.5,0.5,44,141.2
2906,D2,585.5,0.25,30,141.2
2907,D3,585.75,0.25,27,141.2
2908,E-5,586.0,0.5,49,141.2
2909,D2,586.0,0.25,30,141.2
2910,B-4,586.0,1.0,32,141.2
2911,G4,586.0,1.0,32,141.2
2912,D3,586.25,0.25,27,141.2
2913,D5,586.5,0.5,44,141.2
2914,D2,586.5,0.25,30,141.2
2915,D3,586.75,0.25,25,141.2
2916,E-5,587.0,0.5,50,141.2
2917,D2,587.0,0.25,30,141.2
2918,B-4,587.0,1.0,33,141.2
2919,G4,587.0,1.0,33,141.2
2920,D3,587.25,0.25,26,141.2
2921,C#5,587.5,0.5,44,141.2
2922,D2,587.5,0.25,30,141.2
2923,D3,587.75,0.25,26,141.2
2924,D2,588.0,0.25,30,141.2
2925,D5,588.0,1.5,43,141.2
2926,A4,588.0,1.5,43,141.2
2927,F#4,588.0,1.5,43,141.2
2928,D3,588.25,0.25,26,141.2
2929,D2,588.5,0.25,30,141.2
2930,D3,588.75,0.25,25,141.2
2931,D2,589.0,0.25,30,141.2
2932,D3,589.25,0.25,26,141.2
2933,D2,589.5,0.25,30,141.2
2934,D3,589.75,0.25,27,141.2
2935,E5,590.0,0.5,49,141.2
2936,D2,590.0,0.25,30,141.2
2937,B-4,590.0,1.0,32,141.2
2938,G4,590.0,1.0,32,141.2
2939,D3,590.25,0.25,27,141.2
2940,D5,590.5,0.5,44,141.2
2941,D2,590.5,0.25,30,141.2
2942,D3,590.75,0.25,25,141.2
2943,E5,591.0,0.5,50,141.2
2944,D2,591.0,0.25,30,141.2
2945,B-4,591.0,1.0,33,141.2
2946,G4,591.0,1.0,33,141.2
2947,D3,591.25,0.25,26,141.2
2948,C#5,591.5,0.5,44,141.2
2949,D2,591.5,0.25,30,141.2
2950,D3,591.75,0.25,26,141.2
2951,D2,592.0,0.25,30,141.2
2952,D5,592.0,1.5,43,141.2
2953,A4,592.0,1.5,43,141.2
2954,F#4,592.0,1.5,43,141.2
2955,D3,592.25,0.25,26,141.2
2956,D2,592.5,0.25,30,141.2
2957,D3,592.75,0.25,25,141.2
2958,D2,593.0,0.25,30,141.2
2959,D3,593.25,0.25,26,141.2
2960,D2,593.5,0.25,30,141.2
2961,D3,593.75,0.25,27,141.2
2962,E-5,594.0,0.5,39,141.2
2963,D2,594.0,0.25,24,141.2
2964,B-4,594.0,1.0,25,141.2
2965,G4,594.0,1.0,25,141.2
2966,D3,594.25,0.25,21,141.2
2967,D5,594.5,0.5,35,141.2
2968,D2,594.5,0.25,24,141.2
2969,D3,594.75,0.25,20,141.2
2970,E-5,595.0,0.5,40,141.2
2971,D2,595.0,0.25,24,141.2
2972,B-4,595.0,1.0,26,141.2
2973,G4,595.0,1.0,26,141.2
2974,D3,595.25,0.25,20,141.2
2975,C#5,595.5,0.5,35,141.2
2976,D2,595.5,0.25,24,141.2
2977,D3,595.75,0.25,20,141.2
2978,D2,596.0,1.5,97,141.2
2979,D5,596.0,1.5,43,141.2
2980,A4,596.0,1.5,43,141.2
2981,F#4,596.0,1.5,43,141.2
2982,E2,597.5,0.25,70,141.2
2983,F#2,598.0,1.5,74,141.2
2984,D3,598.0,1.5,74,141.2
2985,G2,599.5,0.25,62,141.2
2986,E3,599.5,0.25,62,141.2
2987,C3,600.0,1.5,68,141.2
2988,A2,600.0,1.5,68,141.2
2989,F#3,600.0,1.5,68,141.2
2990,E-5,601.0,0.25,86,141.2
2991,D5,601.5,0.25,75,141.2
2992,D3,601.5,0.25,57,141.2
2993,B-2,601.5,0.25,57,141.2
2994,G3,601.5,0.25,57,141.2
2995,C5,602.0,0.25,84,141.2
2996,F#3,602.0,0.25,66,141.2
2997,A3,602.0,0.25,66,141.2
2998,B-4,602.5,0.25,74,141.2
2999,G3,602.5,0.25,61,141.2
3000,B-3,602.5,0.25,61,141.2
3001,A4,603.0,0.25,84,141.2
3002,A3,603.0,0.25,68,141.2
3003,C4,603.0,0.25,68,141.2
3004,G4,603.5,0.25,75,141.2
3005,B-3,603.5,0.25,61,141.2
3006,D4,603.5,0.25,61,141.2
3007,F#4,604.0,0.25,84,141.2
3008,C4,604.0,0.25,70,141.2
3009,E-4,604.0,0.25,70,141.2
3010,A5,605.0,0.25,61,141.2
3011,G#5,605.25,0.25,50,141.2
3012,A5,605.5,0.25,54,141.2
3013,F#5,605.75,0.25,50,141.2
3014,C6,606.0,0.25,61,141.2
3015,B5,606.25,0.25,50,141.2
3016,C6,606.5,0.25,54,141.2
3017,A5,606.75,0.25,50,141.2
3018,E-6,607.0,0.25,63,141.2
3019,D6,607.25,0.25,50,141.2
3020,C6,607.5,0.25,57,141.2
3021,B-5,607.75,0.25,50,141.2
3022,A5,608.0,0.25,58,141.2
3023,B-5,608.25,0.25,50,141.2
3024,C6,608.5,0.25,59,141.2
3025,B-5,608.75,0.25,49,141.2
3026,A5,609.0,0.25,58,141.2
3027,G5,609.25,0.25,50,141.2
3028,F#5,609.5,0.25,55,141.2
3029,G5,609.75,0.25,50,141.2
3030,A5,610.0,0.25,60,141.2
3031,G5,610.25,0.25,47,141.2
3032,F#5,610.5,0.25,53,141.2
3033,E-5,610.75,0.25,46,141.2
3034,D5,611.0,0.25,64,141.2
3035,C5,611.25,0.25,51,141.2
3036,B4,611.5,0.25,57,141.2
3037,C5,611.75,0.25,52,141.2
3038,B4,612.0,1.0,72,141.2
3039,G2,612.0,1.5,97,141.2
3040,A2,613.5,0.25,70,141.2
3041,B2,614.0,1.5,74,141.2
3042,G3,614.0,1.5,74,141.2
3043,C3,615.5,0.25,62,141.2
3044,A3,615.5,0.25,62,141.2
3045,F3,616.0,1.5,68,141.2
3046,D3,616.0,1.5,68,141.2
3047,B3,616.0,1.5,68,141.2
3048,G#5,617.0,0.25,81,141.2
3049,G5,617.5,0.25,75,141.2
3050,G3,617.5,0.25,57,141.2
3051,E-3,617.5,0.25,57,141.2
3052,C4,617.5,0.25,57,141.2
3053,F5,618.0,0.25,84,141.2
3054,B3,618.0,0.25,66,141.2
3055,D4,618.0,0.25,66,141.2
3056,E-5,618.5,0.25,74,141.2
3057,C4,618.5,0.25,61,141.2
3058,E-4,618.5,0.25,61,141.2
3059,D5,619.0,0.25,84,141.2
3060,D4,619.0,0.25,68,141.2
3061,F4,619.0,0.25,68,141.2
3062,C5,619.5,0.25,75,141.2
3063,E-4,619.5,0.25,61,141.2
3064,G4,619.5,0.25,61,141.2
3065,B4,620.0,0.25,84,141.2
3066,F4,620.0,0.25,70,141.2
3067,G#4,620.0,0.25,70,141.2
3068,D5,621.0,0.25,61,141.2
3069,C#5,621.25,0.25,50,141.2
3070,D5,621.5,0.25,54,141.2
3071,B4,621.75,0.25,50,141.2
3072,F5,622.0,0.25,61,141.2
3073,E5,622.25,0.25,50,141.2
3074,F5,622.5,0.25,54,141.2
3075,D5,622.75,0.25,50,141.2
3076,G#5,623.0,0.25,63,141.2
3077,G5,623.25,0.25,50,141.2
3078,F5,623.5,0.25,57,141.2
3079,E-5,623.75,0.25,50,141.2
3080,D5,624.0,0.25,58,141.2
3081,E-5,624.25,0.25,50,141.2
3082,F5,624.5,0.25,59,141.2
3083,E-5,624.75,0.25,49,141.2
3084,D5,625.0,0.25,62,141.2
3085,C5,625.25,0.25,50,141.2
3086,B4,625.5,0.25,55,141.2
3087,C5,625.75,0.25,50,141.2
3088,D5,626.0,0.25,62,141.2
3089,C5,626.25,0.25,51,141.2
3090,B4,626.5,0.25,55,141.2
3091,G#4,626.75,0.25,46,141.2
3092,G4,627.0,0.25,65,141.2
3093,F4,627.25,0.25,47,141.2
3094,E4,627.5,0.25,55,141.2
3095,F4,627.75,0.25,50,141.2
3096,E4,628.0,1.0,71,141.2
3097,C2,628.0,1.5,97,141.2
3098,D2,629.5,0.25,70,141.2
3099,E2,630.0,1.5,74,141.2
3100,C3,630.0,1.5,74,141.2
3101,F2,631.5,0.25,62,141.2
3102,D3,631.5,0.25,62,141.2
3103,B-2,632.0,1.5,68,141.2
3104,G2,632.0,1.5,68,141.2
3105,E3,632.0,1.5,68,141.2
3106,C#5,633.0,0.25,86,141.2
3107,C5,633.5,0.25,75,141.2
3108,C3,633.5,0.25,57,141.2
3109,G#2,633.5,0.25,57,141.2
3110,F3,633.5,0.25,57,141.2
3111,B-4,634.0,0.25,84,141.2
3112,E3,634.0,0.25,66,141.2
3113,G3,634.0,0.25,66,141.2
3114,G#4,634.5,0.25,74,141.2
3115,F3,634.5,0.25,61,141.2
3116,G#3,634.5,0.25,61,141.2
3117,G4,635.0,0.25,84,141.2
3118,G3,635.0,0.25,68,141.2
3119,B-3,635.0,0.25,68,141.2
3120,F4,635.5,0.25,75,141.2
3121,G#3,635.5,0.25,61,141.2
3122,C4,635.5,0.25,61,141.2
3123,E4,636.0,0.25,84,141.2
3124,B-3,636.0,0.25,70,141.2
3125,C#4,636.0,0.25,70,141.2
3126,G5,637.0,0.25,67,141.2
3127,F#5,637.25,0.25,55,141.2
3128,G5,637.5,0.25,59,141.2
3129,E5,637.75,0.25,55,141.2
3130,B-5,638.0,0.25,67,141.2
3131,A5,638.25,0.25,55,141.2
3132,B-5,638.5,0.25,59,141.2
3133,G5,638.75,0.25,55,141.2
3134,C#6,639.0,0.25,69,141.2
3135,C6,639.25,0.25,55,141.2
3136,C#6,639.5,0.25,62,141.2
3137,C6,639.75,0.25,55,141.2
3138,C#6,640.0,0.25,73,141.2
3139,B-2,640.0,4.0,76,141.2
3140,B-5,640.25,0.25,55,141.2
3141,G5,640.5,0.25,64,141.2
3142,E5,640.75,0.25,53,141.2
3143,B-5,641.0,0.25,71,141.2
3144,C#3,641.0,3.0,67,141.2
3145,G5,641.25,0.25,55,141.2
3146,E5,641.5,0.25,64,141.2
3147,C#5,641.75,0.25,55,141.2
3148,G5,642.0,0.25,71,141.2
3149,E3,642.0,2.0,67,141.2
3150,E5,642.25,0.25,51,141.2
3151,C#5,642.5,0.25,63,141.2
3152,B-4,642.75,0.25,50,141.2
3153,E5,643.0,0.25,69,141.2
3154,G3,643.0,1.0,67,141.2
3155,C#5,643.25,0.25,51,141.2
3156,B-4,643.5,0.25,60,141.2
3157,G4,643.75,0.25,50,141.2
3158,G#2,644.0,4.0,76,141.2
3159,F5,645.0,0.25,67,141.2
3160,C3,645.0,3.0,67,141.2
3161,E5,645.25,0.25,55,141.2
3162,F5,645.5,0.25,59,141.2
3163,C5,645.75,0.25,55,141.2
3164,G#5,646.0,0.25,67,141.2
3165,F3,646.0,2.0,67,141.2
3166,G5,646.25,0.25,55,141.2
3167,G#5,646.5,0.25,59,141.2
3168,F5,646.75,0.25,55,141.2
3169,C6,647.0,0.25,69,141.2
3170,G#3,647.0,1.0,67,141.2
3171,B5,647.25,0.25,55,141.2
3172,C6,647.5,0.25,62,141.2
3173,G#5,647.75,0.25,55,141.2
3174,F6,648.0,0.25,73,141.2
3175,G#2,648.0,4.0,76,141.2
3176,C6,648.25,0.25,55,141.2
3177,G#5,648.5,0.25,64,141.2
3178,F5,648.75,0.25,53,141.2
3179,C6,649.0,0.25,71,141.2
3180,C3,649.0,3.0,67,141.2
3181,G#5,649.25,0.25,55,141.2
3182,F5,649.5,0.25,64,141.2
3183,C5,649.75,0.25,55,141.2
3184,G#5,650.0,0.25,71,141.2
3185,F3,650.0,2.0,67,141.2
3186,F5,650.25,0.25,51,141.2
3187,C5,650.5,0.25,63,141.2
3188,G#4,650.75,0.25,50,141.2
3189,F5,651.0,0.25,69,141.2
3190,G#3,651.0,1.0,67,141.2
3191,C5,651.25,0.25,51,141.2
3192,G#4,651.5,0.25,60,141.2
3193,F4,651.75,0.25,50,141.2
3194,G2,652.0,4.0,76,141.2
3195,F5,653.0,0.25,67,141.2
3196,D3,653.0,3.0,67,141.2
3197,E5,653.25,0.25,55,141.2
3198,F5,653.5,0.25,59,141.2
3199,D5,653.75,0.25,55,141.2
3200,B5,654.0,0.25,67,141.2
3201,F3,654.0,2.0,67,141.2
3202,B-5,654.25,0.25,55,141.2
3203,B5,654.5,0.25,59,141.2
3204,F5,654.75,0.25,55,141.2
3205,D6,655.0,0.25,69,141.2
3206,G3,655.0,1.0,67,141.2
3207,C#6,655.25,0.25,55,141.2
3208,D6,655.5,0.25,62,141.2
3209,B5,655.75,0.25,55,141.2
3210,F6,656.0,0.25,73,141.2
3211,G2,656.0,4.0,76,141.2
3212,D6,656.25,0.25,55,141.2
3213,B5,656.5,0.25,64,141.2
3214,F5,656.75,0.25,53,141.2
3215,D6,657.0,0.25,71,141.2
3216,B2,657.0,3.0,67,141.2
3217,B5,657.25,0.25,55,141.2
3218,F5,657.5,0.25,64,141.2
3219,D5,657.75,0.25,55,141.2
3220,B5,658.0,0.25,71,141.2
3221,D3,658.0,2.0,67,141.2
3222,F5,658.25,0.25,51,141.2
3223,D5,658.5,0.25,63,141.2
3224,B4,658.75,0.25,50,141.2
3225,F5,659.0,0.25,69,141.2
3226,G3,659.0,1.0,67,141.2
3227,D5,659.25,0.25,51,141.2
3228,B4,659.5,0.25,60,141.2
3229,F4,659.75,0.25,50,141.2
3230,G2,660.0,4.0,76,141.2
3231,E-5,661.0,0.25,67,141.2
3232,C3,661.0,3.0,67,141.2
3233,D5,661.25,0.25,54,141.2
3234,E-5,661.5,0.25,58,141.2
3235,C5,661.75,0.25,54,141.2
3236,G5,662.0,0.25,66,141.2
3237,E-3,662.0,2.0,66,141.2
3238,F#5,662.25,0.25,53,141.2
3239,G5,662.5,0.25,57,141.2
3240,E-5,662.75,0.25,53,141.2
3241,C6,663.0,0.25,67,141.2
3242,G3,663.0,1.0,65,141.2
3243,B5,663.25,0.25,53,141.2
3244,C6,663.5,0.25,60,141.2
3245,G5,663.75,0.25,53,141.2
3246,E-6,664.0,0.25,70,141.2
3247,F#2,664.0,4.0,73,141.2
3248,C6,664.25,0.25,53,141.2
3249,A5,664.5,0.25,61,141.2
3250,E-5,664.75,0.25,50,141.2
3251,C6,665.0,0.25,68,141.2
3252,C3,665.0,3.0,64,141.2
3253,A5,665.25,0.25,52,141.2
3254,E-5,665.5,0.25,60,141.2
3255,C5,665.75,0.25,52,141.2
3256,A5,666.0,0.25,67,141.2
3257,E-3,666.0,2.0,63,141.2
3258,E-5,666.25,0.25,48,141.2
3259,C5,666.5,0.25,59,141.2
3260,A4,666.75,0.25,47,141.2
3261,E-5,667.0,0.25,64,141.2
3262,F#3,667.0,1.0,62,141.2
3263,C5,667.25,0.25,47,141.2
3264,A4,667.5,0.25,55,141.2
3265,E-4,667.75,0.25,46,141.2
3266,F2,668.0,4.0,70,141.2
3267,E-5,669.0,0.25,61,141.2
3268,C3,669.0,3.0,61,141.2
3269,D5,669.25,0.25,50,141.2
3270,E-5,669.5,0.25,54,141.2
3271,C5,669.75,0.25,50,141.2
3272,A5,670.0,0.25,60,141.2
3273,E-3,670.0,2.0,60,141.2
3274,G#5,670.25,0.25,50,141.2
3275,A5,670.5,0.25,53,141.2
3276,E-5,670.75,0.25,49,141.2
3277,C6,671.0,0.25,62,141.2
3278,F3,671.0,1.0,60,141.2
3279,B5,671.25,0.25,49,141.2
3280,C6,671.5,0.25,55,141.2
3281,A5,671.75,0.25,48,141.2
3282,E-6,672.0,0.25,64,141.2
3283,F2,672.0,4.0,67,141.2
3284,C6,672.25,0.25,48,141.2
3285,A5,672.5,0.25,56,141.2
3286,E-5,672.75,0.25,47,141.2
3287,C6,673.0,0.25,62,141.2
3288,A2,673.0,3.0,58,141.2
3289,A5,673.25,0.25,48,141.2
3290,E-5,673.5,0.25,56,141.2
3291,C5,673.75,0.25,48,141.2
3292,A5,674.0,0.25,61,141.2
3293,C3,674.0,2.0,58,141.2
3294,E-5,674.25,0.25,44,141.2
3295,C5,674.5,0.25,54,141.2
3296,A4,674.75,0.25,43,141.2
3297,E-5,675.0,0.25,59,141.2
3298,F3,675.0,1.0,57,141.2
3299,C5,675.25,0.25,43,141.2
3300,A4,675.5,0.25,51,141.2
3301,E-4,675.75,0.25,43,141.2
3302,F2,676.0,4.0,64,141.2
3303,C#5,677.0,0.25,56,141.2
3304,B-2,677.0,3.0,56,141.2
3305,C5,677.25,0.25,46,141.2
3306,C#5,677.5,0.25,49,141.2
3307,B-4,677.75,0.25,46,141.2
3308,F5,678.0,0.25,56,141.2
3309,C#3,678.0,2.0,56,141.2
3310,E5,678.25,0.25,45,141.2
3311,F5,678.5,0.25,48,141.2
3312,C#5,678.75,0.25,45,141.2
3313,B-5,679.0,0.25,57,141.2
3314,F3,679.0,1.0,55,141.2
3315,A5,679.25,0.25,45,141.2
3316,B-5,679.5,0.25,50,141.2
3317,F5,679.75,0.25,45,141.2
3318,C#6,680.0,0.25,59,141.2
3319,E2,680.0,4.0,62,141.2
3320,B-5,680.25,0.25,44,141.2
3321,G5,680.5,0.25,51,141.2
3322,C#5,680.75,0.25,42,141.2
3323,B-5,681.0,0.25,57,141.2
3324,B-2,681.0,3.0,54,141.2
3325,G5,681.25,0.25,44,141.2
3326,C#5,681.5,0.25,51,141.2
3327,B-4,681.75,0.25,44,141.2
3328,G5,682.0,0.25,56,141.2
3329,C#3,682.0,2.0,53,141.2
3330,C#5,682.25,0.25,40,141.2
3331,B-4,682.5,0.25,49,141.2
3332,G4,682.75,0.25,39,141.2
3333,C#5,683.0,0.25,54,141.2
3334,E3,683.0,1.0,52,141.2
3335,B-4,683.25,0.25,40,141.2
3336,G4,683.5,0.25,46,141.2
3337,C#4,683.75,0.25,39,141.2
3338,E-2,684.0,4.0,59,141.2
3339,C#5,685.0,0.25,51,141.2
3340,B-2,685.0,3.0,51,141.2
3341,C5,685.25,0.25,42,141.2
3342,C#5,685.5,0.25,45,141.2
3343,B-4,685.75,0.25,41,141.2
3344,G5,686.0,0.25,50,141.2
3345,C#3,686.0,2.0,50,141.2
3346,F#5,686.25,0.25,41,141.2
3347,G5,686.5,0.25,44,141.2
3348,C#5,686.75,0.25,41,141.2
3349,B-5,687.0,0.25,51,141.2
3350,E-3,687.0,1.0,50,141.2
3351,A5,687.25,0.25,41,141.2
3352,B-5,687.5,0.25,46,141.2
3353,G5,687.75,0.25,40,141.2
3354,C#6,688.0,0.25,54,141.2
3355,E-2,688.0,4.0,56,141.2
3356,B-5,688.25,0.25,40,141.2
3357,G5,688.5,0.25,47,141.2
3358,C#5,688.75,0.25,38,141.2
3359,B-5,689.0,0.25,51,141.2
3360,B-2,689.0,3.0,48,141.2
3361,G5,689.25,0.25,40,141.2
3362,C#5,689.5,0.25,46,141.2
3363,B-4,689.75,0.25,40,141.2
3364,G5,690.0,0.25,51,141.2
3365,C#3,690.0,2.0,48,141.2
3366,C#5,690.25,0.25,36,141.2
3367,B-4,690.5,0.25,45,141.2
3368,G4,690.75,0.25,36,141.2
3369,C#5,691.0,0.25,48,141.2
3370,E-3,691.0,1.0,47,141.2
3371,B-4,691.25,0.25,36,141.2
3372,G4,691.5,0.25,42,141.2
3373,C#4,691.75,0.25,35,141.2
3374,B-4,692.0,0.25,37,141.2
3375,E-2,692.0,1.5,49,141.2
3376,G4,692.25,0.25,28,141.2
3377,C#4,692.5,0.25,28,141.2
3378,B-3,692.75,0.25,28,141.2
3379,G4,693.0,0.25,35,141.2
3380,C#4,693.25,0.25,28,141.2
3381,B-3,693.5,0.25,28,141.2
3382,F2,693.5,0.5,44,141.2
3383,G3,693.75,0.25,28,141.2
3384,E-4,694.0,0.25,34,141.2
3385,G2,694.0,1.5,49,141.2
3386,C#4,694.25,0.25,29,141.2
3387,B-3,694.5,0.25,29,141.2
3388,G3,694.75,0.25,28,141.2
3389,E-4,695.0,0.25,34,141.2
3390,C#4,695.25,0.25,28,141.2
3391,B-3,695.5,0.25,28,141.2
3392,G#2,695.5,0.5,44,141.2
3393,G3,695.75,0.25,28,141.2
3394,E-4,696.0,0.25,37,141.2
3395,B-2,696.0,1.5,47,141.2
3396,C#4,696.25,0.25,28,141.2
3397,B-3,696.5,0.25,28,141.2
3398,G3,696.75,0.25,28,141.2
3399,E-4,697.0,0.25,35,141.2
3400,C#4,697.25,0.25,28,141.2
3401,B-3,697.5,0.25,28,141.2
3402,C3,697.5,0.5,44,141.2
3403,G3,697.75,0.25,28,141.2
3404,E-4,698.0,0.25,34,141.2
3405,C#3,698.0,0.5,46,141.2
3406,C#4,698.25,0.25,29,141.2
3407,B-3,698.5,0.25,29,141.2
3408,C3,698.5,0.5,44,141.2
3409,G3,698.75,0.25,28,141.2
3410,E-4,699.0,0.25,34,141.2
3411,B-2,699.0,0.5,46,141.2
3412,C#4,699.25,0.25,28,141.2
3413,B-3,699.5,0.25,28,141.2
3414,G#2,699.5,0.5,38,141.2
3415,G3,699.75,0.25,28,141.2
3416,E-4,700.0,0.25,37,141.2
3417,G2,700.0,1.5,47,141.2
3418,C#4,700.25,0.25,28,141.2
3419,B-3,700.5,0.25,28,141.2
3420,G3,700.75,0.25,28,141.2
3421,E-4,701.0,0.25,35,141.2
3422,C#4,701.25,0.25,28,141.2
3423,B-3,701.5,0.25,28,141.2
3424,G#2,701.5,0.5,44,141.2
3425,G3,701.75,0.25,28,141.2
3426,E-4,702.0,0.25,34,141.2
3427,B-2,702.0,0.5,46,141.2
3428,C#4,702.25,0.25,29,141.2
3429,B-3,702.5,0.25,29,141.2
3430,G#2,702.5,0.5,44,141.2
3431,G3,702.75,0.25,28,141.2
3432,E-4,703.0,0.25,34,141.2
3433,G2,703.0,0.5,46,141.2
3434,C#4,703.25,0.25,28,141.2
3435,B-3,703.5,0.25,28,141.2
3436,F2,703.5,0.5,38,141.2
3437,G3,703.75,0.25,28,141.2
3438,E-4,704.0,0.25,37,141.2
3439,E-2,704.01,1.5,47,141.2
3440,C#4,704.25,0.25,27,141.2
3441,B-3,704.5,0.25,27,141.2
3442,G3,704.75,0.25,27,141.2
3443,E-4,705.0,0.25,32,141.2
3444,C#4,705.25,0.25,25,141.2
3445,B-3,705.5,0.25,24,141.2
3446,G3,705.75,0.25,24,141.2
3447,E-4,706.0,0.25,32,141.2
3448,C#4,706.25,0.25,23,141.2
3449,B-3,706.5,0.25,23,141.2
3450,G3,706.75,0.25,21,141.2
3451,E-4,707.0,0.25,27,141.2
3452,C#4,707.25,0.25,20,141.2
3453,B-3,707.5,0.25,20,141.2
3454,G3,707.75,0.25,19,141.2
3455,E4,708.0,0.25,29,141.2
3456,C2,708.0,1.5,39,141.2
3457,C#4,708.25,0.25,22,141.2
3458,B-3,708.5,0.25,22,141.2
3459,G3,708.75,0.25,22,141.2
3460,E4,709.0,0.25,27,141.2
3461,C#4,709.25,0.25,22,141.2
3462,B-3,709.5,0.25,22,141.2
3463,D2,709.5,0.5,35,141.2
3464,G3,709.75,0.25,22,141.2
3465,E4,710.0,0.25,27,141.2
3466,E2,710.0,1.5,39,141.2
3467,C#4,710.25,0.25,23,141.2
3468,B-3,710.5,0.25,23,141.2
3469,G3,710.75,0.25,22,141.2
3470,E4,711.0,0.25,27,141.2
3471,C#4,711.25,0.25,22,141.2
3472,B-3,711.5,0.25,22,141.2
3473,F2,711.5,0.5,35,141.2
3474,G3,711.75,0.25,22,141.2
3475,E4,712.0,0.25,29,141.2
3476,G2,712.0,1.5,37,141.2
3477,C#4,712.25,0.25,22,141.2
3478,B-3,712.5,0.25,22,141.2
3479,G3,712.75,0.25,22,141.2
3480,E4,713.0,0.25,27,141.2
3481,C#4,713.25,0.25,22,141.2
3482,B-3,713.5,0.25,22,141.2
3483,G#2,713.5,0.5,35,141.2
3484,G3,713.75,0.25,22,141.2
3485,E4,714.0,0.25,27,141.2
3486,B-2,714.0,0.5,36,141.2
3487,C#4,714.25,0.25,23,141.2
3488,B-3,714.5,0.25,23,141.2
3489,G#2,714.5,0.5,35,141.2
3490,G3,714.75,0.25,22,141.2
3491,E4,715.0,0.25,27,141.2
3492,G2,715.0,0.5,36,141.2
3493,C#4,715.25,0.25,22,141.2
3494,B-3,715.5,0.25,22,141.2
3495,F2,715.5,0.5,30,141.2
3496,G3,715.75,0.25,22,141.2
3497,E4,716.0,0.25,29,141.2
3498,E2,716.0,1.5,37,141.2
3499,C#4,716.25,0.25,22,141.2
3500,B-3,716.5,0.25,22,141.2
3501,G3,716.75,0.25,22,141.2
3502,E4,717.0,0.25,27,141.2
3503,C#4,717.25,0.25,22,141.2
3504,B-3,717.5,0.25,22,141.2
3505,F2,717.5,0.5,35,141.2
3506,G3,717.75,0.25,22,141.2
3507,E4,718.0,0.25,27,141.2
3508,G2,718.0,0.5,36,141.2
3509,C#4,718.25,0.25,23,141.2
3510,B-3,718.5,0.25,23,141.2
3511,F2,718.5,0.5,35,141.2
3512,G3,718.75,0.25,22,141.2
3513,E4,719.0,0.25,27,141.2
3514,E2,719.0,0.5,36,141.2
3515,C#4,719.25,0.25,22,141.2
3516,B-3,719.5,0.25,22,141.2
3517,D2,719.5,0.5,30,141.2
3518,G3,719.75,0.25,22,141.2
3519,E4,720.0,0.25,29,141.2
3520,C2,720.0,1.5,37,141.2
3521,C#4,720.25,0.25,22,141.2
3522,B-3,720.5,0.25,22,141.2
3523,G3,720.75,0.25,22,141.2
3524,E4,721.0,0.25,27,141.2
3525,C#4,721.25,0.25,22,141.2
3526,B-3,721.5,0.25,22,141.2
3527,G3,721.75,0.25,22,141.2
3528,E4,722.0,0.25,27,141.2
3529,C#4,722.25,0.25,23,141.2
3530,B-3,722.5,0.25,23,141.2
3531,G3,722.75,0.25,22,141.2
3532,E4,723.0,0.25,27,141.2
3533,C#4,723.25,0.25,22,141.2
3534,B-3,723.5,0.25,22,141.2
3535,G3,723.75,0.25,22,141.2
3536,E-4,724.0,0.25,29,141.2
3537,F1,724.0,1.5,39,141.2
3538,C4,724.25,0.25,22,141.2
3539,A3,724.5,0.25,22,141.2
3540,F#3,724.75,0.25,22,141.2
3541,E-4,725.0,0.25,27,141.2
3542,C4,725.25,0.25,22,141.2
3543,A3,725.5,0.25,22,141.2
3544,G1,725.5,0.5,35,141.2
3545,F#3,725.75,0.25,22,141.2
3546,E-4,726.0,0.25,27,141.2
3547,A1,726.0,1.5,39,141.2
3548,C4,726.25,0.25,23,141.2
3549,A3,726.5,0.25,23,141.2
3550,F#3,726.75,0.25,22,141.2
3551,E-4,727.0,0.25,27,141.2
3552,C4,727.25,0.25,22,141.2
3553,A3,727.5,0.25,22,141.2
3554,B-1,727.5,0.5,35,141.2
3555,F#3,727.75,0.25,22,141.2
3556,E-4,728.0,0.25,29,141.2
3557,C2,728.0,1.5,37,141.2
3558,C4,728.25,0.25,22,141.2
3559,A3,728.5,0.25,22,141.2
3560,F#3,728.75,0.25,22,141.2
3561,E-4,729.0,0.25,27,141.2
3562,C4,729.25,0.25,22,141.2
3563,A3,729.5,0.25,22,141.2
3564,C#2,729.5,0.5,35,141.2
3565,F#3,729.75,0.25,22,141.2
3566,E-4,730.0,0.25,27,141.2
3567,E-2,730.0,0.5,36,141.2
3568,C4,730.25,0.25,23,141.2
3569,A3,730.5,0.25,23,141.2
3570,C#2,730.5,0.5,35,141.2
3571,F#3,730.75,0.25,22,141.2
3572,E-4,731.0,0.25,27,141.2
3573,C2,731.0,0.5,36,141.2
3574,C4,731.25,0.25,22,141.2
3575,A3,731.5,0.25,22,141.2
3576,B-1,731.5,0.5,30,141.2
3577,F#3,731.75,0.25,22,141.2
3578,E-4,732.0,0.25,29,141.2
3579,A1,732.0,1.5,37,141.2
3580,C4,732.25,0.25,22,141.2
3581,A3,732.5,0.25,22,141.2
3582,F#3,732.75,0.25,22,141.2
3583,E-4,733.0,0.25,27,141.2
3584,C4,733.25,0.25,22,141.2
3585,A3,733.5,0.25,22,141.2
3586,B-1,733.5,0.5,35,141.2
3587,F#3,733.75,0.25,22,141.2
3588,E-4,734.0,0.25,27,141.2
3589,C2,734.0,0.5,36,141.2
3590,C4,734.25,0.25,23,141.2
3591,A3,734.5,0.25,23,141.2
3592,B-1,734.5,0.5,35,141.2
3593,F#3,734.75,0.25,22,141.2
3594,E-4,735.0,0.25,27,141.2
3595,A1,735.0,0.5,36,141.2
3596,C4,735.25,0.25,22,141.2
3597,A3,735.5,0.25,22,141.2
3598,G1,735.5,0.5,30,141.2
3599,F#3,735.75,0.25,22,141.2
3600,E-4,736.0,0.25,29,141.2
3601,F1,736.0,4.0,37,141.2
3602,C4,736.25,0.25,22,141.2
3603,A3,736.5,0.25,22,141.2
3604,F#3,736.75,0.25,22,141.2
3605,E-4,737.0,0.25,27,141.2
3606,C4,737.25,0.25,22,141.2
3607,A3,737.5,0.25,22,141.2
3608,F#3,737.75,0.25,22,141.2
3609,E-4,738.0,0.25,27,141.2
3610,C4,738.25,0.25,23,141.2
3611,A3,738.5,0.25,23,141.2
3612,F3,738.75,0.25,22,141.2
3613,E-4,739.0,0.25,27,141.2
3614,C4,739.25,0.25,22,141.2
3615,A3,739.5,0.25,22,141.2
3616,F3,739.75,0.25,22,141.2
3617,E-4,740.0,0.25,29,141.2
3618,F1,740.0,2.0,37,141.2
3619,C4,740.25,0.25,22,141.2
3620,A3,740.5,0.25,22,141.2
3621,F3,740.75,0.25,22,141.2
3622,E-4,741.0,0.25,27,141.2
3623,C4,741.25,0.25,22,141.2
3624,A3,741.5,0.25,22,141.2
3625,F3,741.75,0.25,22,141.2
3626,E-4,742.0,0.25,27,141.2
3627,C2,742.0,0.5,36,141.2
3628,C4,742.25,0.25,23,141.2
3629,A3,742.5,0.25,23,141.2
3630,B-1,742.5,0.5,35,141.2
3631,F3,742.75,0.25,22,141.2
3632,E-4,743.0,0.25,27,141.2
3633,A1,743.0,0.5,36,141.2
3634,C4,743.25,0.25,22,141.2
3635,A3,743.5,0.25,22,141.2
3636,G1,743.5,0.5,30,141.2
3637,F3,743.75,0.25,22,141.2
3638,E-4,744.0,0.25,29,141.2
3639,F1,744.0,4.0,37,141.2
3640,C4,744.25,0.25,22,141.2
3641,A3,744.5,0.25,22,141.2
3642,F3,744.75,0.25,22,141.2
3643,E-4,745.0,0.25,27,141.2
3644,C4,745.25,0.25,22,141.2
3645,A3,745.5,0.25,22,141.2
3646,F3,745.75,0.25,22,141.2
3647,E-4,746.0,0.25,27,141.2
3648,C4,746.25,0.25,23,141.2
3649,A3,746.5,0.25,23,141.2
3650,F3,746.75,0.25,22,141.2
3651,E-4,747.0,0.25,27,141.2
3652,C4,747.25,0.25,22,141.2
3653,A3,747.5,0.25,22,141.2
3654,F3,747.75,0.25,22,141.2
3655,E-4,748.0,0.25,29,141.2
3656,F1,748.0,2.0,37,141.2
3657,C4,748.25,0.25,22,141.2
3658,A3,748.5,0.25,22,141.2
3659,F3,748.75,0.25,22,141.2
3660,E-4,749.0,0.25,28,141.2
3661,C4,749.25,0.25,23,141.2
3662,A3,749.5,0.25,23,141.2
3663,F3,749.75,0.25,23,141.2
3664,E-4,750.0,0.25,28,141.2
3665,C2,750.0,0.5,41,141.2
3666,C4,750.25,0.25,24,141.2
3667,A3,750.5,0.25,24,141.2
3668,B-1,750.5,0.5,40,141.2
3669,F3,750.75,0.25,24,141.2
3670,E-4,751.0,0.25,29,141.2
3671,A1,751.0,0.5,41,141.2
3672,C4,751.25,0.25,24,141.2
3673,A3,751.5,0.25,24,141.2
3674,G1,751.5,0.5,34,141.2
3675,F3,751.75,0.25,24,141.2
3676,E-4,752.0,0.25,33,141.2
3677,F1,752.0,2.0,42,141.2
3678,C4,752.25,0.25,25,141.2
3679,A3,752.5,0.25,25,141.2
3680,F3,752.75,0.25,25,141.2
3681,E-4,753.0,0.25,32,141.2
3682,C4,753.25,0.25,26,141.2
3683,A3,753.5,0.25,26,141.2
3684,F3,753.75,0.25,26,141.2
3685,E-4,754.0,0.25,32,141.2
3686,C2,754.0,0.5,43,141.2
3687,C4,754.25,0.25,28,141.2
3688,A3,754.5,0.25,28,141.2
3689,B-1,754.5,0.5,43,141.2
3690,F3,754.75,0.25,27,141.2
3691,E-4,755.0,0.25,33,141.2
3692,A1,755.0,0.5,46,141.2
3693,C4,755.25,0.25,28,141.2
3694,A3,755.5,0.25,28,141.2
3695,G1,755.5,0.5,39,141.2
3696,F3,755.75,0.25,28,141.2
3697,E-4,756.0,0.25,38,141.2
3698,F1,756.0,2.0,48,141.2
3699,C4,756.25,0.25,29,141.2
3700,A3,756.5,0.25,29,141.2
3701,F3,756.75,0.25,29,141.2
3702,E-4,757.0,0.25,37,141.2
3703,C4,757.25,0.25,30,141.2
3704,A3,757.5,0.25,30,141.2
3705,F3,757.75,0.25,30,141.2
3706,E-4,758.0,0.25,37,141.2
3707,C2,758.0,0.5,51,141.2
3708,C4,758.25,0.25,32,141.2
3709,A3,758.5,0.25,33,141.2
3710,B-1,758.5,0.5,50,141.2
3711,F3,758.75,0.25,32,141.2
3712,E-4,759.0,0.25,38,141.2
3713,A1,759.0,0.5,52,141.2
3714,C4,759.25,0.25,32,141.2
3715,A3,759.5,0.25,33,141.2
3716,G1,759.5,0.5,44,141.2
3717,F3,759.75,0.25,33,141.2
3718,E-4,760.0,0.25,44,141.2
3719,F1,760.0,1.5,56,141.2
3720,C4,760.25,0.25,33,141.2
3721,A3,760.5,0.25,34,141.2
3722,F3,760.75,0.25,34,141.2
3723,E-4,761.0,0.25,43,141.2
3724,C4,761.25,0.25,36,141.2
3725,A3,761.5,0.25,39,141.2
3726,G1,761.5,0.5,54,141.2
3727,F3,761.75,0.25,41,141.2
3728,E-4,762.0,0.25,53,141.2
3729,A1,762.0,0.5,59,141.2
3730,C4,762.25,0.25,43,141.2
3731,A3,762.5,0.25,44,141.2
3732,B-1,762.5,0.5,54,141.2
3733,F3,762.75,0.25,44,141.2
3734,E-4,763.0,0.25,55,141.2
3735,C2,763.0,0.5,62,141.2
3736,C4,763.25,0.25,45,141.2
3737,A3,763.5,0.25,45,141.2
3738,D2,763.5,0.5,54,141.2
3739,F3,763.75,0.25,45,141.2
3740,E-4,764.0,0.25,56,141.2
3741,E-2,764.0,0.5,59,141.2
3742,C4,764.25,0.25,46,141.2
3743,A3,764.5,0.25,46,141.2
3744,E2,764.5,0.5,54,141.2
3745,F3,764.75,0.25,46,141.2
3746,E-4,765.0,0.25,57,141.2
3747,F2,765.0,0.5,64,141.2
3748,C4,765.25,0.25,47,141.2
3749,A3,765.5,0.25,47,141.2
3750,G2,765.5,0.5,57,141.2
3751,F3,765.75,0.25,47,141.2
3752,E-4,766.0,0.25,59,141.2
3753,A2,766.0,0.5,59,141.2
3754,C4,766.25,0.25,48,141.2
3755,A3,766.5,0.25,48,141.2
3756,B-2,766.5,0.5,55,141.2
3757,F3,766.75,0.25,49,141.2
3758,E-4,767.0,0.25,60,141.2
3759,C3,767.0,0.5,66,141.2
3760,C4,767.25,0.25,49,141.2
3761,A3,767.5,0.25,49,141.2
3762,D3,767.5,0.5,60,141.2
3763,F3,767.75,0.25,50,141.2
3764,E-3,768.0,4.0,63,141.2
3765,F2,768.0,4.0,63,141.2
3766,E3,768.5,21/40,54,141.2
3767,F3,769.0,21/40,44,141.2
3768,G3,769.5,21/40,44,141.2
3769,A3,770.0,21/40,53,141.2
3770,B-3,770.5,21/40,40,141.2
3771,C4,771.0,21/40,40,141.2
3772,D4,771.5,0.5,40,141.2
3773,E-4,772.0,21/40,52,141.2
3774,D4,772.0,1/40,40,141.2
3775,F2,772.0,2.0,50,141.2
3776,C3,772.0,2.0,50,141.2
3777,E4,772.5,21/40,45,141.2
3778,F4,773.0,21/40,43,141.2
3779,G4,773.5,21/40,41,141.2
3780,A4,774.0,21/40,45,141.2
3781,F2,774.0,2.0,42,141.2
3782,B-2,774.0,2.0,42,141.2
3783,B-4,774.5,21/40,41,141.2
3784,C5,775.0,21/40,38,141.2
3785,D5,775.5,0.5,38,141.2
3786,D5,776.0,1/40,38,141.2
3787,E-4,776.0,4.0,40,141.2
3788,C5,776.0,4.0,40,141.2
3789,E-5,776.0,4.0,40,141.2
3790,F2,776.0,4.0,22,141.2
3791,A2,776.0,4.0,22,141.2
3792,F3,776.0,4.0,22,141.2
3793,E-4,780.0,2.5,40,141.2
3794,C5,780.0,2.5,40,141.2
3795,E-5,780.0,2.5,40,141.2
3796,F2,782.5,2.5,22,141.2
3797,A2,782.5,2.5,22,141.2
3798,F3,782.5,2.5,22,141.2
3799,B-3,783.0,0.25,42,141.2
3800,D4,783.0,1.0,50,141.2
3801,A3,783.25,0.25,40,141.2
3802,B-3,783.5,0.25,45,141.2
3803,F3,783.75,0.25,39,141.2
3804,D4,784.0,0.188,38,141.2
3805,F4,784.0,0.188,38,141.2
3806,B-3,785.0,0.188,35,141.2
3807,D4,785.0,0.188,35,141.2
3808,B-1,786.5,0.188,33,141.2
3809,B-2,786.5,0.188,33,141.2
3810,B-3,787.0,0.25,42,141.2
3811,D4,787.0,1.0,50,141.2
3812,A3,787.25,0.25,40,141.2
3813,B-3,787.5,0.25,45,141.2
3814,B-1,787.5,0.188,30,141.2
3815,B-2,787.5,0.188,30,141.2
3816,F3,787.75,0.25,39,141.2
3817,D4,788.0,0.188,38,141.2
3818,F4,788.0,0.188,38,141.2
3819,B-3,789.0,0.188,35,141.2
3820,D4,789.0,0.188,35,141.2
3821,B-1,790.5,0.188,33,141.2
3822,B-2,790.5,0.188,33,141.2
3823,D4,791.0,0.5,50,141.2
3824,B-3,791.0,11/40,42,141.2
3825,A3,791.25,11/40,40,141.2
3826,B-3,791.5,11/40,46,141.2
3827,B-1,791.5,0.188,30,141.2
3828,B-2,791.5,0.188,30,141.2
3829,F3,791.75,0.25,40,141.2
3830,F4,792.0,0.5,53,141.2
3831,D4,792.0,11/40,44,141.2
3832,C#4,792.25,11/40,42,141.2
3833,D4,792.5,11/40,49,141.2
3834,B-3,792.75,0.25,42,141.2
3835,F4,793.0,11/40,47,141.2
3836,B-4,793.0,0.5,56,141.2
3837,E4,793.25,11/40,45,141.2
3838,F4,793.5,11/40,51,141.2
3839,D4,793.75,0.25,45,141.2
3840,B-4,794.0,11/40,49,141.2
3841,D5,794.0,0.5,59,141.2
3842,A4,794.25,11/40,47,141.2
3843,B-4,794.5,11/40,54,141.2
3844,F4,794.75,0.25,47,141.2
3845,D5,795.0,11/40,52,141.2
3846,F5,795.0,0.5,62,141.2
3847,C#5,795.25,11/40,50,141.2
3848,D5,795.5,11/40,57,141.2
3849,B-4,795.75,0.25,49,141.2
3850,B-5,796.0,3.0,72,141.2
3851,B-2,798.5,0.25,44,141.2
3852,D3,798.75,0.25,31,141.2
3853,A5,799.0,0.25,60,141.2
3854,F3,799.0,0.25,31,141.2
3855,B-5,799.25,0.25,57,141.2
3856,B-3,799.25,0.25,31,141.2
3857,C6,799.5,0.25,60,141.2
3858,B-2,799.5,0.25,44,141.2
3859,B-5,799.75,0.25,54,141.2
3860,D3,799.75,0.25,32,141.2
3861,A5,800.0,0.5,60,141.2
3862,F3,800.0,0.25,32,141.2
3863,B-3,800.25,0.25,32,141.2
3864,G5,800.5,0.5,51,141.2
3865,B-2,800.5,0.25,44,141.2
3866,D3,800.75,0.25,33,141.2
3867,F5,801.0,0.5,54,141.2
3868,F3,801.0,0.25,33,141.2
3869,B-3,801.25,0.25,33,141.2
3870,E-5,801.5,0.5,50,141.2
3871,B-2,801.5,0.25,44,141.2
3872,D3,801.75,0.25,33,141.2
3873,D5,802.0,0.5,59,141.2
3874,F3,802.0,0.25,33,141.2
3875,B-3,802.25,0.25,33,141.2
3876,C5,802.5,0.5,48,141.2
3877,B-2,802.5,0.25,44,141.2
3878,E-3,802.75,0.25,31,141.2
3879,G5,803.0,0.5,56,141.2
3880,G3,803.0,0.25,31,141.2
3881,B-3,803.25,0.25,31,141.2
3882,F5,803.5,0.5,47,141.2
3883,B-2,803.5,0.25,42,141.2
3884,E-3,803.75,0.25,28,141.2
3885,E-5,804.0,1.0,54,141.2
3886,G3,804.0,0.25,28,141.2
3887,B-3,804.25,0.25,28,141.2
3888,B-2,804.5,0.25,41,141.2
3889,E-3,804.75,0.25,29,141.2
3890,D5,805.0,1.0,47,141.2
3891,F3,805.0,0.25,29,141.2
3892,A3,805.25,0.25,29,141.2
3893,B-2,805.5,0.25,41,141.2
3894,E-3,805.75,0.25,31,141.2
3895,F3,806.0,0.25,31,141.2
3896,A3,806.25,0.25,31,141.2
3897,B-2,806.5,0.25,44,141.2
3898,D3,806.75,0.25,31,141.2
3899,A4,807.0,0.25,58,141.2
3900,F3,807.0,0.25,31,141.2
3901,B-4,807.25,0.25,54,141.2
3902,B-3,807.25,0.25,31,141.2
3903,C5,807.5,0.25,58,141.2
3904,B-2,807.5,0.25,44,141.2
3905,B-4,807.75,0.25,54,141.2
3906,D3,807.75,0.25,32,141.2
3907,G#4,808.0,0.5,60,141.2
3908,F3,808.0,0.25,32,141.2
3909,B-3,808.25,0.25,32,141.2
3910,G4,808.5,0.5,54,141.2
3911,B-2,808.5,0.25,44,141.2
3912,D3,808.75,0.25,32,141.2
3913,F4,809.0,0.5,66,141.2
3914,F3,809.0,0.25,32,141.2
3915,G#3,809.25,0.25,32,141.2
3916,E-4,809.5,0.5,61,141.2
3917,B-2,809.5,0.25,44,141.2
3918,D3,809.75,0.25,32,141.2
3919,D4,810.0,0.5,69,141.2
3920,F3,810.0,0.25,32,141.2
3921,G#3,810.25,0.25,32,141.2
3922,C4,810.5,0.5,62,141.2
3923,B-2,810.5,0.25,44,141.2
3924,E-3,810.75,0.25,32,141.2
3925,E-4,811.0,0.5,73,141.2
3926,G3,811.0,0.25,32,141.2
3927,E-3,811.25,0.25,32,141.2
3928,A3,811.5,0.5,63,141.2
3929,B-2,811.5,0.25,44,141.2
3930,E-3,811.75,0.25,36,141.2
3931,B-3,812.0,0.25,79,141.2
3932,G3,812.0,0.25,36,141.2
3933,E-3,812.25,0.25,36,141.2
3934,D4,812.5,0.25,68,141.2
3935,B-2,812.5,0.25,48,141.2
3936,C4,812.75,0.25,65,141.2
3937,C3,812.75,0.25,37,141.2
3938,B-3,813.0,0.25,71,141.2
3939,E-3,813.0,0.25,38,141.2
3940,A3,813.25,0.25,65,141.2
3941,F3,813.25,0.25,40,141.2
3942,B-3,813.5,0.25,71,141.2
3943,B-2,813.5,0.25,50,141.2
3944,G3,813.75,0.25,65,141.2
3945,C3,813.75,0.25,40,141.2
3946,F3,814.0,0.25,79,141.2
3947,E-3,814.0,0.25,39,141.2
3948,F3,814.25,0.25,43,141.2
3949,G4,814.5,0.25,68,141.2
3950,B-2,814.5,0.25,60,141.2
3951,F4,814.75,0.25,65,141.2
3952,E-4,815.0,0.25,71,141.2
3953,D4,815.25,0.25,65,141.2
3954,E-4,815.5,0.25,71,141.2
3955,B-2,815.5,0.25,53,141.2
3956,C4,815.75,0.25,65,141.2
3957,A2,815.75,0.25,46,141.2
3958,B-3,816.0,0.25,79,141.2
3959,B-2,816.0,0.25,53,141.2
3960,G2,816.25,0.25,46,141.2
3961,D5,816.5,0.25,68,141.2
3962,F2,816.5,0.25,60,141.2
3963,C5,816.75,0.25,65,141.2
3964,B-4,817.0,0.25,71,141.2
3965,A4,817.25,0.25,65,141.2
3966,B-4,817.5,0.25,71,141.2
3967,E-3,817.5,0.25,53,141.2
3968,G4,817.75,0.25,65,141.2
3969,D3,817.75,0.25,46,141.2
3970,F4,818.0,0.25,79,141.2
3971,E-3,818.0,0.25,53,141.2
3972,C3,818.25,0.25,46,141.2
3973,G5,818.5,0.25,78,141.2
3974,B-2,818.5,0.25,60,141.2
3975,F5,818.75,0.25,74,141.2
3976,E-5,819.0,0.25,81,141.2
3977,D5,819.25,0.25,74,141.2
3978,E-5,819.5,0.25,81,141.2
3979,B-3,819.5,0.25,53,141.2
3980,C5,819.75,0.25,74,141.2
3981,A3,819.75,0.25,46,141.2
3982,B-4,820.0,0.25,90,141.2
3983,B-3,820.0,0.25,53,141.2
3984,G3,820.25,0.25,46,141.2
3985,C5,820.5,0.25,68,141.2
3986,F3,820.5,0.25,60,141.2
3987,D5,820.75,0.25,68,141.2
3988,E-5,821.0,0.25,77,141.2
3989,F5,821.25,0.25,70,141.2
3990,G5,821.5,0.25,70,141.2
3991,E-4,821.5,0.25,60,141.2
3992,A5,821.75,0.25,71,141.2
3993,D4,821.75,0.25,52,141.2
3994,B-5,822.0,0.062,73,141.2
3995,E-4,822.0,0.25,60,141.2
3996,C6,822.062,0.062,65,141.2
3997,B-5,822.125,0.125,81,141.2
3998,A5,822.25,0.25,72,141.2
3999,C4,822.25,0.25,52,141.2
4000,B-5,822.5,0.25,73,141.2
4001,B-3,822.5,0.25,69,141.2
4002,C6,822.75,0.25,74,141.2
4003,D6,823.0,0.062,74,141.2
4004,C4,823.0,0.25,53,141.2
4005,E-6,823.062,0.062,66,141.2
4006,D6,823.125,0.25,83,141.2
4007,C6,823.25,0.25,75,141.2
4008,D4,823.25,0.25,48,141.2
4009,D6,823.5,0.25,76,141.2
4010,E-4,823.5,0.25,54,141.2
4011,E6,823.75,0.25,76,141.2
4012,F4,823.75,0.25,48,141.2
4013,F6,824.0,0.25,94,141.2
4014,G4,824.0,0.25,48,141.2
4015,A4,824.25,0.25,49,141.2
4016,B-4,824.5,0.25,56,141.2
4017,A4,824.75,0.25,50,141.2
4018,F4,825.0,0.25,79,141.2
4019,B-4,825.0,0.25,50,141.2
4020,C5,825.25,0.25,51,141.2
4021,D5,825.5,0.25,58,141.2
4022,C5,825.75,0.25,52,141.2
4023,D5,826.0,0.25,52,141.2
4024,E5,826.25,0.25,53,141.2
4025,F5,826.5,0.25,73,141.2
4026,F3,827.5,0.25,60,141.2
4027,D4,829.0,0.25,54,141.2
4028,F4,829.0,1.0,65,141.2
4029,C#4,829.25,0.25,52,141.2
4030,D4,829.5,0.25,58,141.2
4031,B-2,829.5,0.25,54,141.2
4032,D3,829.5,1.0,65,141.2
4033,B-3,829.75,0.25,50,141.2
4034,A2,829.75,0.25,52,141.2
4035,B-2,830.0,0.25,58,141.2
4036,F4,830.0,0.25,65,141.2
4037,D5,830.0,0.25,65,141.2
4038,F2,830.25,0.25,50,141.2
4039,D3,830.5,0.25,65,141.2
4040,F3,830.5,0.25,65,141.2
4041,D4,831.0,0.25,58,141.2
4042,B-4,831.0,0.25,58,141.2
4043,B-2,831.5,0.25,58,141.2
4044,D3,831.5,0.25,58,141.2
4045,D4,833.0,0.25,54,141.2
4046,F4,833.0,1.0,65,141.2
4047,C#4,833.25,0.25,52,141.2
4048,D4,833.5,0.25,58,141.2
4049,B-2,833.5,0.25,54,141.2
4050,D3,833.5,1.0,65,141.2
4051,B-3,833.75,0.25,50,141.2
4052,A2,833.75,0.25,52,141.2
4053,B-2,834.0,0.25,58,141.2
4054,F4,834.0,0.25,65,141.2
4055,D5,834.0,0.25,65,141.2
4056,F2,834.25,0.25,50,141.2
4057,D3,834.5,0.25,65,141.2
4058,F3,834.5,0.25,65,141.2
4059,D4,835.0,0.25,58,141.2
4060,B-4,835.0,0.25,58,141.2
4061,B-2,835.5,0.25,58,141.2
4062,D3,835.5,0.25,58,141.2
4063,D3,837.5,0.25,65,141.2
4064,C#3,837.75,0.25,57,141.2
4065,D3,838.0,0.25,62,141.2
4066,B-2,838.25,0.25,55,141.2
4067,F3,838.5,0.25,65,141.2
4068,E3,838.75,0.25,58,141.2
4069,F3,839.0,0.25,63,141.2
4070,D3,839.25,0.25,57,141.2
4071,B-3,839.5,0.25,65,141.2
4072,A3,839.75,0.25,58,141.2
4073,B-3,840.0,0.25,63,141.2
4074,F3,840.25,0.25,57,141.2
4075,D4,840.5,0.25,65,141.2
4076,C#4,840.75,0.25,58,141.2
4077,D4,841.0,0.25,63,141.2
4078,B-3,841.25,0.25,57,141.2
4079,F4,841.5,0.25,63,141.2
4080,E4,841.75,0.25,58,141.2
4081,G#5,842.0,2.0,75,141.2
4082,F4,842.0,0.25,62,141.2
4083,D4,842.25,0.25,57,141.2
4084,G#4,842.5,1.75,75,141.2
4085,D5,844.0,2.0,56,141.2
4086,G#5,844.0,2.0,75,141.2
4087,G4,844.25,0.25,63,141.2
4088,F4,844.5,0.75,71,141.2
4089,G5,845.0,2.0,53,141.2
4090,E-4,845.25,0.25,63,141.2
4091,D4,845.5,0.75,72,141.2
4092,E-5,846.0,1.0,44,141.2
4093,C4,846.25,0.25,63,141.2
4094,B3,846.5,2.0,72,141.2
4095,C5,847.0,1.0,41,141.2
4096,F5,847.0,1.0,49,141.2
4097,D5,848.0,1.0,55,141.2
4098,F5,848.0,1.0,49,141.2
4099,C4,848.5,1.0,48,141.2
4100,B4,849.0,1.0,41,141.2
4101,E-5,849.0,2.0,49,141.2
4102,A3,849.5,1.0,42,141.2
4103,C5,850.0,1.0,55,141.2
4104,B-3,850.5,1.0,51,141.2
4105,A4,851.0,1.0,42,141.2
4106,D5,851.0,1.0,50,141.2
4107,G3,851.5,1.0,44,141.2
4108,B-4,852.0,1.0,55,141.2
4109,D5,852.0,1.0,50,141.2
4110,G#3,852.5,1.0,52,141.2
4111,G4,853.0,1.0,41,141.2
4112,C5,853.0,2.0,49,141.2
4113,F#3,853.5,1.0,34,141.2
4114,G#4,854.0,1.0,55,141.2
4115,G3,854.5,1.0,51,141.2
4116,F4,855.0,1.0,42,141.2
4117,B-4,855.0,1.0,50,141.2
4118,E3,855.5,1.0,44,141.2
4119,G4,856.0,1.0,55,141.2
4120,B-4,856.0,1.0,50,141.2
4121,F3,856.5,1.0,52,141.2
4122,E-4,857.0,1.0,45,141.2
4123,A4,857.0,1.0,45,141.2
4124,D3,857.5,1.0,34,141.2
4125,B-4,858.0,979/1000,52,141.2
4126,D4,858.0,979/1000,52,141.2
4127,E-3,858.5,1.0,51,141.2
4128,B-3,859.0,1.0,42,141.2
4129,D4,859.0,1.0,42,141.2
4130,C3,859.5,1.0,44,141.2
4131,A3,860.0,0.5,64,141.2
4132,C4,860.0,0.5,64,141.2
4133,F4,860.5,0.25,62,141.2
4134,D3,860.5,1.0,52,141.2
4135,A3,860.75,0.25,36,141.2
4136,C4,860.75,0.25,36,141.2
4137,F4,861.0,0.25,64,141.2
4138,A3,861.25,0.25,38,141.2
4139,C4,861.25,0.25,38,141.2
4140,G4,861.5,0.25,68,141.2
4141,E3,861.5,1.0,34,141.2
4142,A3,861.75,0.25,37,141.2
4143,C4,861.75,0.25,37,141.2
4144,A4,862.0,0.25,62,141.2
4145,C4,862.25,0.25,42,141.2
4146,E-4,862.25,0.25,42,141.2
4147,F4,862.5,0.25,68,141.2
4148,F2,862.5,0.5,51,141.2
4149,C4,862.75,0.25,42,141.2
4150,E-4,862.75,0.25,42,141.2
4151,G4,863.0,0.25,68,141.2
4152,F3,863.0,57/200,42,141.2
4153,C4,863.25,0.25,42,141.2
4154,E-4,863.25,0.25,42,141.2
4155,A4,863.5,0.25,70,141.2
4156,F3,863.5,57/200,42,141.2
4157,C4,863.75,0.25,42,141.2
4158,E-4,863.75,0.25,42,141.2
4159,B-4,864.0,0.25,68,141.2
4160,F3,864.0,57/200,42,141.2
4161,B-3,864.25,0.25,37,141.2
4162,C#4,864.25,0.25,37,141.2
4163,B-4,864.5,0.25,62,141.2
4164,F3,864.5,57/200,51,141.2
4165,B-3,864.75,0.25,36,141.2
4166,C#4,864.75,0.25,36,141.2
4167,B-4,865.0,0.25,64,141.2
4168,F3,865.0,57/200,43,141.2
4169,B-3,865.25,0.25,38,141.2
4170,C#4,865.25,0.25,38,141.2
4171,G#4,865.5,0.25,68,141.2
4172,F3,865.5,57/200,43,141.2
4173,B-3,865.75,0.25,37,141.2
4174,C#4,865.75,0.25,37,141.2
4175,G4,866.0,0.25,62,141.2
4176,F3,866.0,57/200,43,141.2
4177,B-3,866.25,0.25,42,141.2
4178,C#4,866.25,0.25,42,141.2
4179,F4,866.5,0.25,68,141.2
4180,F3,866.5,57/200,51,141.2
4181,B-3,866.75,0.25,42,141.2
4182,C#4,866.75,0.25,42,141.2
4183,E4,867.0,0.25,68,141.2
4184,F3,867.0,57/200,42,141.2
4185,B-3,867.25,0.25,42,141.2
4186,C#4,867.25,0.25,42,141.2
4187,G4,867.5,0.25,70,141.2
4188,F3,867.5,57/200,42,141.2
4189,B-3,867.75,0.25,42,141.2
4190,C#4,867.75,0.25,42,141.2
4191,F3,868.0,57/200,42,141.2
4192,C4,868.0,0.5,63,141.2
4193,A3,868.0,0.5,63,141.2
4194,F4,868.0,0.5,63,141.2
4195,F5,868.5,0.25,62,141.2
4196,F3,868.5,57/200,51,141.2
4197,A4,868.75,0.25,36,141.2
4198,C5,868.75,0.25,36,141.2
4199,F5,869.0,0.25,64,141.2
4200,F3,869.0,57/200,43,141.2
4201,A4,869.25,0.25,38,141.2
4202,C5,869.25,0.25,38,141.2
4203,G5,869.5,0.25,68,141.2
4204,F3,869.5,57/200,43,141.2
4205,A4,869.75,0.25,37,141.2
4206,C5,869.75,0.25,37,141.2
4207,A5,870.0,0.25,62,141.2
4208,F3,870.0,3/10,43,141.2
4209,C5,870.25,0.25,42,141.2
4210,E-5,870.25,0.25,42,141.2
4211,F5,870.5,0.25,68,141.2
4212,F2,870.5,0.5,48,141.2
4213,F3,870.5,0.5,48,141.2
4214,C5,870.75,0.25,42,141.2
4215,E-5,870.75,0.25,42,141.2
4216,G5,871.0,0.25,68,141.2
4217,F4,871.0,57/200,42,141.2
4218,C5,871.25,0.25,42,141.2
4219,E-5,871.25,0.25,42,141.2
4220,A5,871.5,0.25,70,141.2
4221,F4,871.5,57/200,42,141.2
4222,C5,871.75,0.25,42,141.2
4223,E-5,871.75,0.25,42,141.2
4224,B-5,872.0,0.25,68,141.2
4225,F4,872.0,57/200,42,141.2
4226,B-4,872.25,0.25,37,141.2
4227,C#5,872.25,0.25,37,141.2
4228,B-5,872.5,0.25,62,141.2
4229,F4,872.5,57/200,51,141.2
4230,B-4,872.75,0.25,36,141.2
4231,C#5,872.75,0.25,36,141.2
4232,B-5,873.0,0.25,64,141.2
4233,F4,873.0,57/200,43,141.2
4234,B-4,873.25,0.25,38,141.2
4235,C#5,873.25,0.25,38,141.2
4236,G#5,873.5,0.25,68,141.2
4237,F4,873.5,57/200,43,141.2
4238,B-4,873.75,0.25,37,141.2
4239,C#5,873.75,0.25,37,141.2
4240,G5,874.0,0.25,62,141.2
4241,F4,874.0,57/200,43,141.2
4242,B-4,874.25,0.25,42,141.2
4243,C#5,874.25,0.25,42,141.2
4244,F5,874.5,0.25,68,141.2
4245,F4,874.5,57/200,51,141.2
4246,B-4,874.75,0.25,42,141.2
4247,C#5,874.75,0.25,42,141.2
4248,E5,875.0,0.25,68,141.2
4249,F4,875.0,57/200,42,141.2
4250,B-4,875.25,0.25,42,141.2
4251,C#5,875.25,0.25,42,141.2
4252,G5,875.5,0.25,70,141.2
4253,F4,875.5,57/200,42,141.2
4254,B-4,875.75,0.25,42,141.2
4255,C#5,875.75,0.25,42,141.2
4256,F5,876.0,0.25,78,141.2
4257,F4,876.0,57/200,42,141.2
4258,A4,876.25,0.25,42,141.2
4259,C5,876.25,0.25,42,141.2
4260,F5,876.5,0.25,68,141.2
4261,F4,876.5,57/200,51,141.2
4262,A4,876.75,0.25,42,141.2
4263,C5,876.75,0.25,42,141.2
4264,E5,877.0,0.25,68,141.2
4265,F4,877.0,57/200,43,141.2
4266,B-4,877.25,0.25,42,141.2
4267,C#5,877.25,0.25,42,141.2
4268,G5,877.5,0.25,70,141.2
4269,F4,877.5,57/200,43,141.2
4270,B-4,877.75,0.25,42,141.2
4271,C#5,877.75,0.25,42,141.2
4272,F5,878.0,0.25,76,141.2
4273,F4,878.0,3/10,43,141.2
4274,A4,878.25,0.25,42,141.2
4275,C5,878.25,0.25,42,141.2
4276,F5,878.5,0.25,68,141.2
4277,F3,878.5,19/40,51,141.2
4278,A4,878.75,0.25,42,141.2
4279,C5,878.75,0.25,42,141.2
4280,E5,879.0,0.25,68,141.2
4281,F4,879.0,57/200,43,141.2
4282,B-4,879.25,0.25,42,141.2
4283,C#5,879.25,0.25,42,141.2
4284,G5,879.5,0.25,70,141.2
4285,F4,879.5,57/200,43,141.2
4286,B-4,879.75,0.25,42,141.2
4287,C#5,879.75,0.25,42,141.2
4288,F4,880.0,3/10,43,141.2
4289,A4,880.0,0.25,63,141.2
4290,C5,880.0,0.25,63,141.2
4291,F5,880.0,0.25,63,141.2
4292,F4,880.25,11/40,35,141.2
4293,G4,880.5,11/40,40,141.2
4294,F3,880.5,19/40,51,141.2
4295,A4,880.75,11/40,35,141.2
4296,B-4,881.0,11/40,40,141.2
4297,F4,881.0,57/200,43,141.2
4298,C5,881.25,11/40,35,141.2
4299,D5,881.5,11/40,40,141.2
4300,F4,881.5,57/200,43,141.2
4301,E5,881.75,11/40,33,141.2
4302,F5,882.0,11/40,40,141.2
4303,F4,882.0,3/10,43,141.2
4304,E5,882.25,11/40,33,141.2
4305,F5,882.5,11/40,40,141.2
4306,F3,882.5,1.0,51,141.2
4307,E5,882.75,11/40,33,141.2
4308,F5,883.0,11/40,40,141.2
4309,E5,883.25,11/40,34,141.2
4310,F5,883.5,11/40,40,141.2
4311,E5,883.75,0.25,33,141.2
4312,D5,884.0,2.0,40,141.2
4313,F5,884.0,2.0,40,141.2
4314,D5,886.0,1.0,49,141.2
4315,B-3,886.75,11/40,31,141.2
4316,B-5,887.0,1.0,47,141.2
4317,C4,887.0,11/40,36,141.2
4318,D4,887.25,11/40,31,141.2
4319,E-4,887.5,11/40,36,141.2
4320,F4,887.75,11/40,31,141.2
4321,G4,888.0,11/40,36,141.2
4322,D5,888.0,1.0,45,141.2
4323,F5,888.0,1.0,45,141.2
4324,A4,888.25,11/40,29,141.2
4325,B-4,888.5,11/40,36,141.2
4326,A4,888.75,11/40,29,141.2
4327,B-4,889.0,11/40,36,141.2
4328,D6,889.0,1.0,40,141.2
4329,B-5,889.0,1.0,40,141.2
4330,A4,889.25,11/40,29,141.2
4331,B-4,889.5,11/40,36,141.2
4332,A4,889.75,11/40,27,141.2
4333,B-4,890.0,11/40,34,141.2
4334,D5,890.0,1.0,46,141.2
4335,F5,890.0,1.0,46,141.2
4336,A4,890.25,0.25,26,141.2
4337,B-4,890.5,11/40,30,141.2
4338,A4,890.75,11/40,25,141.2
4339,B-4,891.0,11/40,30,141.2
4340,F6,891.0,1.0,40,141.2
4341,D6,891.0,1.0,40,141.2
4342,A4,891.25,11/40,25,141.2
4343,B-4,891.5,11/40,30,141.2
4344,A4,891.75,11/40,25,141.2
4345,B-4,892.0,11/40,30,141.2
4346,D5,892.0,2.0,40,141.2
4347,F5,892.0,2.0,40,141.2
4348,A4,892.25,11/40,25,141.2
4349,B-4,892.5,11/40,30,141.2
4350,A4,892.75,11/40,25,141.2
4351,B-4,893.0,11/40,30,141.2
4352,A4,893.25,11/40,25,141.2
4353,B-4,893.5,11/40,30,141.2
4354,A4,893.75,11/40,25,141.2
4355,D5,894.0,1.0,49,141.2
4356,B-4,894.0,11/40,30,141.2
4357,A4,894.25,0.25,25,141.2
4358,B-4,894.5,0.25,30,141.2
4359,B-3,894.75,11/40,31,141.2
4360,B-5,895.0,1.0,46,141.2
4361,C4,895.0,11/40,36,141.2
4362,D4,895.25,11/40,31,141.2
4363,E-4,895.5,11/40,36,141.2
4364,F4,895.75,11/40,31,141.2
4365,G4,896.0,11/40,36,141.2
4366,D5,896.0,1.0,45,141.2
4367,F5,896.0,1.0,45,141.2
4368,A4,896.25,11/40,29,141.2
4369,B-4,896.5,11/40,36,141.2
4370,A4,896.75,11/40,29,141.2
4371,B-4,897.0,11/40,36,141.2
4372,D6,897.0,1.0,40,141.2
4373,B-5,897.0,1.0,40,141.2
4374,A4,897.25,11/40,29,141.2
4375,B-4,897.5,11/40,36,141.2
4376,A4,897.75,11/40,27,141.2
4377,B-4,898.0,11/40,34,141.2
4378,D5,898.0,1.0,46,141.2
4379,F5,898.0,1.0,46,141.2
4380,A4,898.25,0.25,26,141.2
4381,B-4,898.5,11/40,30,141.2
4382,A4,898.75,11/40,25,141.2
4383,B-4,899.0,11/40,30,141.2
4384,F6,899.0,1.0,40,141.2
4385,D6,899.0,1.0,40,141.2
4386,A4,899.25,11/40,25,141.2
4387,B-4,899.5,11/40,30,141.2
4388,A4,899.75,11/40,25,141.2
4389,B-4,900.0,11/40,30,141.2
4390,D5,900.0,2.0,49,141.2
4391,F5,900.0,2.0,49,141.2
4392,G5,900.0,2.0,49,141.2
4393,B5,900.0,2.0,49,141.2
4394,A4,900.25,11/40,25,141.2
4395,B-4,900.5,11/40,30,141.2
4396,A4,900.75,11/40,25,141.2
4397,B-4,901.0,11/40,30,141.2
4398,A4,901.25,11/40,25,141.2
4399,B-4,901.5,11/40,30,141.2
4400,G#4,901.75,11/40,25,141.2
4401,B-4,902.0,11/40,30,141.2
4402,G#4,902.25,0.25,25,141.2
4403,F#4,902.5,0.375,39,141.2
4404,G4,902.75,0.25,34,141.2
4405,F#4,903.0,0.375,39,141.2
4406,G4,903.25,0.25,35,141.2
4407,E4,903.5,0.375,41,141.2
4408,F4,903.75,0.25,35,141.2
4409,E4,904.0,0.375,42,141.2
4410,F4,904.25,0.25,36,141.2
4411,C#4,904.5,0.375,44,141.2
4412,D4,904.75,0.25,37,141.2
4413,B5,905.0,1.0,70,141.2
4414,C#4,905.0,0.375,45,141.2
4415,D4,905.25,0.25,37,141.2
4416,B-3,905.5,0.375,44,141.2
4417,B3,905.75,0.25,38,141.2
4418,D6,906.0,1.0,70,141.2
4419,B-3,906.0,0.375,44,141.2
4420,B3,906.25,0.25,39,141.2
4421,F#3,906.5,0.375,45,141.2
4422,G3,906.75,0.25,39,141.2
4423,F6,907.0,1.0,66,141.2
4424,F#3,907.0,0.375,46,141.2
4425,G3,907.25,0.25,40,141.2
4426,E3,907.5,0.375,48,141.2
4427,F3,907.75,0.25,41,141.2
4428,B5,908.0,2.0,72,141.2
4429,F6,908.0,1.0,66,141.2
4430,E3,908.0,0.375,48,141.2
4431,F3,908.25,0.25,41,141.2
4432,C#3,908.5,0.375,54,141.2
4433,D3,908.75,0.25,42,141.2
4434,E-6,909.0,3.0,75,141.2
4435,C#3,909.0,0.375,52,141.2
4436,D3,909.25,0.25,43,141.2
4437,B-2,909.5,0.375,55,141.2
4438,B2,909.75,0.25,44,141.2
4439,C6,910.0,2.0,75,141.2
4440,B-2,910.0,0.375,51,141.2
4441,B2,910.25,0.25,44,141.2
4442,F#2,910.5,0.375,57,141.2
4443,G2,910.75,0.25,44,141.2
4444,F#5,911.0,1.0,66,141.2
4445,F#2,911.0,0.375,51,141.2
4446,G2,911.25,0.25,44,141.2
4447,F#2,911.5,0.375,56,141.2
4448,G2,911.75,0.25,50,141.2
4449,F5,912.0,2.0,74,141.2
4450,C6,912.0,1.0,75,141.2
4451,E-6,912.0,1.0,75,141.2
4452,F#2,912.0,0.375,57,141.2
4453,G2,912.25,229/1000,44,141.2
4454,G2,912.5,0.375,61,141.2
4455,G#2,912.75,0.25,52,141.2
4456,G2,913.0,0.375,58,141.2
4457,D6,913.0,1.0,64,141.2
4458,B-5,913.0,1.0,64,141.2
4459,G#2,913.25,0.25,52,141.2
4460,G#2,913.5,0.375,58,141.2
4461,A2,913.75,0.25,44,141.2
4462,G#2,914.0,0.375,54,141.2
4463,E-5,914.0,1.0,64,141.2
4464,G5,914.0,1.0,64,141.2
4465,C6,914.0,1.0,64,141.2
4466,A2,914.25,0.25,44,141.2
4467,A2,914.5,0.375,56,141.2
4468,B-2,914.75,0.25,48,141.2
4469,A2,915.0,0.375,51,141.2
4470,C5,915.0,1.0,57,141.2
4471,E-5,915.0,1.0,57,141.2
4472,A5,915.0,1.0,57,141.2
4473,B-2,915.25,0.25,44,141.2
4474,A2,915.5,0.375,51,141.2
4475,B-2,915.75,0.25,44,141.2
4476,A2,916.0,0.375,51,141.2
4477,B-4,916.0,0.5,68,141.2
4478,D5,916.0,0.5,68,141.2
4479,B-5,916.0,0.5,68,141.2
4480,B-2,916.25,229/1000,44,141.2
4481,D2,916.5,0.375,51,141.2
4482,E-2,916.75,0.25,44,141.2
4483,D2,917.0,0.375,51,141.2
4484,E-2,917.25,229/1000,44,141.2
4485,E2,917.5,0.375,51,141.2
4486,F2,917.75,0.25,44,141.2
4487,E2,918.0,0.375,51,141.2
4488,B-4,918.0,2.0,80,141.2
4489,D5,918.0,2.0,80,141.2
4490,F2,918.25,229/1000,44,141.2
4491,B-1,918.5,0.5,48,141.2
4492,G4,920.0,1.0,62,141.2
4493,B-4,920.0,1.0,62,141.2
4494,B-3,920.5,2.0,59,141.2
4495,D4,920.5,2.0,59,141.2
4496,E-4,921.0,0.5,64,141.2
4497,G4,921.0,0.5,64,141.2
4498,C5,922.0,1.5,80,141.2
4499,E-5,922.0,1.5,80,141.2
4500,G3,922.5,1.0,45,141.2
4501,B-3,922.5,1.0,45,141.2
4502,B-4,923.5,0.5,62,141.2
4503,D5,923.5,0.5,62,141.2
4504,E-3,923.5,0.5,45,141.2
4505,G3,923.5,0.5,45,141.2
4506,C5,924.0,979/1000,70,141.2
4507,A4,924.0,979/1000,70,141.2
4508,C4,924.5,1.5,59,141.2
4509,E-4,924.5,1.5,59,141.2
4510,F4,925.0,0.5,62,141.2
4511,A4,925.0,0.5,62,141.2
4512,D5,926.0,2.0,80,141.2
4513,F5,926.0,2.0,80,141.2
4514,B-3,926.0,0.5,45,141.2
4515,D4,926.0,0.5,45,141.2
4516,A3,926.5,1.0,54,141.2
4517,C4,926.5,1.0,54,141.2
4518,F3,927.5,0.5,48,141.2
4519,A3,927.5,0.5,48,141.2
4520,B-4,928.0,1.0,62,141.2
4521,D5,928.0,1.0,62,141.2
4522,D4,928.5,2.0,59,141.2
4523,F4,928.5,2.0,59,141.2
4524,G4,929.0,0.5,64,141.2
4525,B-4,929.0,0.5,64,141.2
4526,E-5,930.0,1.5,80,141.2
4527,G5,930.0,1.5,80,141.2
4528,B-3,930.5,1.0,45,141.2
4529,D4,930.5,1.0,45,141.2
4530,D5,931.5,0.5,62,141.2
4531,F5,931.5,0.5,62,141.2
4532,G3,931.5,0.5,45,141.2
4533,B-3,931.5,0.5,45,141.2
4534,E-5,932.0,979/1000,70,141.2
4535,C5,932.0,979/1000,70,141.2
4536,E-4,932.5,1.5,59,141.2
4537,G4,932.5,1.5,59,141.2
4538,A4,933.0,0.5,62,141.2
4539,C5,933.0,0.5,62,141.2
4540,E-5,934.0,1.5,80,141.2
4541,C6,934.0,1.5,80,141.2
4542,D4,934.0,0.5,45,141.2
4543,F4,934.0,0.5,45,141.2
4544,C4,934.5,1.0,54,141.2
4545,E-4,934.5,1.0,54,141.2
4546,D5,935.5,0.5,62,141.2
4547,B-5,935.5,0.5,62,141.2
4548,A3,935.5,0.5,48,141.2
4549,C4,935.5,0.5,48,141.2
4550,C5,936.0,1.5,80,141.2
4551,A5,936.0,1.5,80,141.2
4552,E-4,936.5,1.5,59,141.2
4553,C5,936.5,1.5,59,141.2
4554,B-4,937.5,0.5,62,141.2
4555,G5,937.5,0.5,62,141.2
4556,A4,938.0,1.0,56,141.2
4557,F5,938.0,1.0,56,141.2
4558,D4,938.0,0.5,45,141.2
4559,B-4,938.0,0.5,45,141.2
4560,C4,938.5,1.5,59,141.2
4561,A4,938.5,1.5,59,141.2
4562,E-4,939.0,1.0,48,141.2
4563,E-5,939.0,1.0,48,141.2
4564,D4,940.0,1.0,54,141.2
4565,D5,940.0,1.0,54,141.2
4566,B-3,940.0,0.5,41,141.2
4567,G4,940.0,0.5,41,141.2
4568,A3,940.5,1.0,45,141.2
4569,F4,940.5,1.0,45,141.2
4570,F#4,941.0,1.0,42,141.2
4571,C5,941.0,1.0,42,141.2
4572,G3,941.5,1.0,38,141.2
4573,B-3,941.5,1.0,38,141.2
4574,G4,942.0,1.0,49,141.2
4575,B-4,942.0,1.0,49,141.2
4576,F#3,942.5,1.0,40,141.2
4577,A3,942.5,1.0,40,141.2
4578,C4,943.0,1.0,44,141.2
4579,G4,943.0,1.0,44,141.2
4580,D3,943.5,1.0,30,141.2
4581,A3,943.5,1.0,30,141.2
4582,E-3,944.5,1.0,36,141.2
4583,G3,944.5,1.0,36,141.2
4584,B-3,945.0,0.5,34,141.2
4585,D4,945.0,0.5,34,141.2
4586,F4,945.0,0.5,34,141.2
4587,B-3,945.5,1.0,36,141.2
4588,E3,945.5,1.0,36,141.2
4589,F3,946.5,2.0,38,141.2
4590,A3,947.0,0.5,33,141.2
4591,C4,947.0,0.5,33,141.2
4592,F4,947.0,0.5,33,141.2
4593,F2,948.5,2.0,32,141.2
4594,D4,949.0,0.938,31,141.2
4595,B-3,949.0,0.938,31,141.2
4596,F3,949.0,0.938,31,141.2
4597,B-1,950.5,2.0,35,141.2
4598,B-4,950.5,1.0,66,141.2
4599,D5,950.5,1.0,66,141.2
4600,B-4,951.5,0.25,52,141.2
4601,D5,951.5,0.25,52,141.2
4602,G4,952.5,0.25,45,141.2
4603,B-4,952.5,0.25,45,141.2
4604,D4,952.5,1.5,60,141.2
4605,B-3,952.5,1.5,60,141.2
4606,E-4,953.5,0.25,42,141.2
4607,G4,953.5,0.25,42,141.2
4608,B-3,954.0,0.25,40,141.2
4609,D4,954.0,0.25,40,141.2
4610,C5,954.5,1.0,66,141.2
4611,E-5,954.5,1.0,66,141.2
4612,G3,954.5,0.25,49,141.2
4613,B-3,954.5,0.25,49,141.2
4614,B-4,955.5,0.25,47,141.2
4615,D5,955.5,0.25,47,141.2
4616,E-3,955.5,0.25,43,141.2
4617,G3,955.5,0.25,43,141.2
4618,A4,956.5,0.25,45,141.2
4619,C5,956.5,0.25,45,141.2
4620,E-4,956.5,1.5,60,141.2
4621,C4,956.5,1.5,60,141.2
4622,F4,957.5,0.25,42,141.2
4623,A4,957.5,0.25,42,141.2
4624,B-3,958.0,0.25,40,141.2
4625,D4,958.0,0.25,40,141.2
4626,D5,958.5,1.0,66,141.2
4627,F5,958.5,1.0,66,141.2
4628,A3,958.5,0.25,49,141.2
4629,C4,958.5,0.25,49,141.2
4630,D5,959.5,0.25,52,141.2
4631,F5,959.5,0.25,52,141.2
4632,F3,959.5,0.25,43,141.2
4633,A3,959.5,0.25,43,141.2
4634,B-4,960.5,0.25,49,141.2
4635,D5,960.5,0.25,49,141.2
4636,F4,960.5,1.5,66,141.2
4637,D4,960.5,1.5,66,141.2
4638,G4,961.5,0.25,45,141.2
4639,B-4,961.5,0.25,45,141.2
4640,D4,962.0,0.25,44,141.2
4641,F4,962.0,0.25,44,141.2
4642,E-5,962.5,1.0,76,141.2
4643,G5,962.5,1.0,76,141.2
4644,B-3,962.5,0.25,54,141.2
4645,D4,962.5,0.25,54,141.2
4646,D5,963.5,0.25,54,141.2
4647,F5,963.5,0.25,54,141.2
4648,G3,963.5,0.25,46,141.2
4649,B-3,963.5,0.25,46,141.2
4650,C5,964.5,0.25,51,141.2
4651,E-5,964.5,0.25,51,141.2
4652,G4,964.5,1.5,68,141.2
4653,E-4,964.5,1.5,68,141.2
4654,A4,965.5,0.25,47,141.2
4655,C5,965.5,0.25,47,141.2
4656,D4,966.0,0.25,46,141.2
4657,F4,966.0,0.25,46,141.2
4658,E-5,966.5,1.0,84,141.2
4659,C6,966.5,1.0,84,141.2
4660,C4,966.5,0.25,56,141.2
4661,E-4,966.5,0.25,56,141.2
4662,D5,967.5,0.25,62,141.2
4663,B-5,967.5,0.25,62,141.2
4664,A3,967.5,0.25,48,141.2
4665,C4,967.5,0.25,48,141.2
4666,C5,968.5,1.0,76,141.2
4667,A5,968.5,1.0,76,141.2
4668,C5,968.5,1.5,72,141.2
4669,E-4,968.5,1.5,72,141.2
4670,B-4,969.5,0.25,62,141.2
4671,G5,969.5,0.25,62,141.2
4672,D4,970.0,0.25,48,141.2
4673,B-4,970.0,0.25,48,141.2
4674,A4,970.5,0.25,48,141.2
4675,F5,970.5,0.25,48,141.2
4676,A4,970.5,1.5,72,141.2
4677,C4,970.5,1.5,72,141.2
4678,E-4,971.5,0.25,42,141.2
4679,E-5,971.5,0.25,42,141.2
4680,D5,972.0,0.25,54,141.2
4681,B-3,972.0,0.25,48,141.2
4682,G4,972.0,0.25,48,141.2
4683,D4,972.25,0.25,46,141.2
4684,F#4,972.5,0.25,43,141.2
4685,A3,972.5,0.25,54,141.2
4686,F4,972.5,0.25,54,141.2
4687,A4,972.75,0.25,43,141.2
4688,D5,973.0,0.25,53,141.2
4689,F#5,973.25,0.25,42,141.2
4690,A5,973.5,0.25,42,141.2
4691,G3,973.5,0.25,44,141.2
4692,B-3,973.5,0.25,44,141.2
4693,C#6,973.75,0.25,42,141.2
4694,D6,974.0,0.25,49,141.2
4695,C#6,974.25,0.25,39,141.2
4696,D6,974.5,0.25,42,141.2
4697,F#3,974.5,4.0,36,141.2
4698,A3,974.5,4.0,36,141.2
4699,C4,974.5,4.0,36,141.2
4700,C#6,974.75,0.25,38,141.2
4701,D6,975.0,0.25,48,141.2
4702,A5,975.25,0.25,38,141.2
4703,F#5,975.5,0.25,38,141.2
4704,D5,975.75,0.25,38,141.2
4705,D4,976.25,0.25,46,141.2
4706,G4,976.5,0.25,43,141.2
4707,B-4,976.75,0.25,43,141.2
4708,D5,977.0,0.25,53,141.2
4709,G5,977.25,0.25,42,141.2
4710,B-5,977.5,0.25,42,141.2
4711,C#6,977.75,0.25,42,141.2
4712,D6,978.0,0.25,49,141.2
4713,C#6,978.25,0.25,39,141.2
4714,D6,978.5,0.25,42,141.2
4715,G3,978.5,4.0,37,141.2
4716,B-3,978.5,4.0,37,141.2
4717,C#6,978.75,0.25,38,141.2
4718,D6,979.0,0.25,48,141.2
4719,B-5,979.25,0.25,38,141.2
4720,G5,979.5,0.25,38,141.2
4721,D5,979.75,0.25,38,141.2
4722,C#4,980.25,0.25,46,141.2
4723,E4,980.5,0.25,43,141.2
4724,G4,980.75,0.25,43,141.2
4725,B-4,981.0,0.25,50,141.2
4726,C#5,981.25,0.25,42,141.2
4727,E5,981.5,0.25,42,141.2
4728,G5,981.75,0.25,42,141.2
4729,B-5,982.0,0.25,49,141.2
4730,G5,982.25,0.25,41,141.2
4731,C#6,982.5,0.25,48,141.2
4732,E3,982.5,4.0,37,141.2
4733,G3,982.5,4.0,37,141.2
4734,B-5,982.75,0.25,41,141.2
4735,G5,983.0,0.25,48,141.2
4736,E5,983.25,0.25,45,141.2
4737,C#5,983.5,0.25,42,141.2
4738,B-4,983.75,0.25,39,141.2
4739,A3,984.25,0.25,48,141.2
4740,C4,984.5,0.25,50,141.2
4741,E-4,984.75,0.25,51,141.2
4742,F#4,985.0,0.25,53,141.2
4743,A4,985.25,0.25,55,141.2
4744,C5,985.5,0.25,57,141.2
4745,E-5,985.75,0.25,59,141.2
4746,F#5,986.0,0.25,65,141.2
4747,A5,986.25,0.25,57,141.2
4748,A4,986.5,0.25,64,141.2
4749,E-3,986.5,2.5,62,141.2
4750,F#3,986.5,2.5,62,141.2
4751,A5,986.75,0.25,56,141.2
4752,A4,987.0,0.25,64,141.2
4753,A5,987.25,0.25,58,141.2
4754,A4,987.5,0.25,64,141.2
4755,A5,987.75,0.25,59,141.2
4756,B-4,988.0,0.25,74,141.2
4757,B-5,988.25,0.25,59,141.2
4758,A4,988.5,0.25,67,141.2
4759,A5,988.75,0.25,54,141.2
4760,B-4,989.0,0.25,66,141.2
4761,E-3,989.0,0.25,53,141.2
4762,F3,989.0,0.25,53,141.2
4763,C4,989.0,0.25,53,141.2
4764,B-5,989.25,0.25,57,141.2
4765,E-4,989.5,0.25,59,141.2
4766,E-3,989.5,0.25,65,141.2
4767,F3,989.5,0.25,65,141.2
4768,C4,989.5,0.25,65,141.2
4769,E-5,989.75,0.25,50,141.2
4770,D4,990.0,0.25,79,141.2
4771,E-3,990.0,0.25,54,141.2
4772,F3,990.0,0.25,54,141.2
4773,C4,990.0,0.25,54,141.2
4774,D5,990.25,0.25,54,141.2
4775,A4,990.5,0.25,65,141.2
4776,D3,990.5,1.0,73,141.2
4777,F3,990.5,1.0,73,141.2
4778,B-3,990.5,1.0,73,141.2
4779,A5,990.75,0.25,57,141.2
4780,B-4,991.0,0.25,68,141.2
4781,B-5,991.25,0.25,60,141.2
4782,E-4,991.5,0.25,67,141.2
4783,E-5,991.75,0.25,58,141.2
4784,D4,992.0,0.25,81,141.2
4785,A2,992.0,0.25,62,141.2
4786,F3,992.0,0.25,62,141.2
4787,D5,992.25,0.25,58,141.2
4788,A4,992.5,0.25,64,141.2
4789,B-2,992.5,0.25,69,141.2
4790,F3,992.5,0.25,69,141.2
4791,A5,992.75,0.25,59,141.2
4792,B-4,993.0,0.25,67,141.2
4793,E-3,993.0,0.25,62,141.2
4794,F3,993.0,0.25,62,141.2
4795,B-5,993.25,0.25,55,141.2
4796,E-4,993.5,0.25,62,141.2
4797,D3,993.5,0.25,69,141.2
4798,F3,993.5,0.25,69,141.2
4799,E-5,993.75,0.25,51,141.2
4800,D4,994.0,0.25,72,141.2
4801,A2,994.0,0.25,62,141.2
4802,F3,994.0,0.25,62,141.2
4803,D5,994.25,0.25,52,141.2
4804,A4,994.5,0.25,64,141.2
4805,B-2,994.5,0.25,69,141.2
4806,F3,994.5,0.25,69,141.2
4807,A5,994.75,0.25,54,141.2
4808,B-4,995.0,0.25,64,141.2
4809,E-3,995.0,0.25,62,141.2
4810,F3,995.0,0.25,62,141.2
4811,B-5,995.25,0.25,51,141.2
4812,E-4,995.5,0.25,60,141.2
4813,D3,995.5,0.25,69,141.2
4814,F3,995.5,0.25,69,141.2
4815,E-5,995.75,0.25,51,141.2
4816,D4,996.0,0.25,83,141.2
4817,A2,996.0,0.25,62,141.2
4818,F3,996.0,0.25,62,141.2
4819,D5,996.25,0.25,53,141.2
4820,A4,996.5,0.25,62,141.2
4821,B-2,996.5,0.25,69,141.2
4822,F3,996.5,0.25,69,141.2
4823,A5,996.75,0.25,54,141.2
4824,B-4,997.0,0.25,62,141.2
4825,E-3,997.0,0.25,62,141.2
4826,F3,997.0,0.25,62,141.2
4827,B-5,997.25,0.25,54,141.2
4828,A4,997.5,0.25,62,141.2
4829,D3,997.5,0.25,69,141.2
4830,F3,997.5,0.25,69,141.2
4831,A5,997.75,0.25,53,141.2
4832,G4,998.0,0.25,81,141.2
4833,A2,998.0,0.25,62,141.2
4834,F3,998.0,0.25,62,141.2
4835,G5,998.25,0.25,53,141.2
4836,F4,998.5,0.25,60,141.2
4837,B-2,998.5,2.0,89,141.2
4838,F5,998.75,0.25,52,141.2
4839,E-4,999.0,0.25,59,141.2
4840,E-5,999.25,0.25,52,141.2
4841,D4,999.5,0.25,59,141.2
4842,D5,999.75,0.25,50,141.2
4843,C4,1000.0,0.25,79,141.2
4844,C5,1000.25,0.25,50,141.2
4845,B-3,1000.5,0.25,59,141.2
4846,G2,1000.5,2.0,80,141.2
4847,B-4,1000.75,0.25,49,141.2
4848,A3,1001.0,0.25,59,141.2
4849,A4,1001.25,0.25,49,141.2
4850,G3,1001.5,0.25,59,141.2
4851,G4,1001.75,0.25,51,141.2
4852,F3,1002.0,0.25,79,141.2
4853,F4,1002.25,0.25,49,141.2
4854,E-3,1002.5,0.25,59,141.2
4855,E-2,1002.5,2.0,88,141.2
4856,E-4,1002.75,0.25,50,141.2
4857,D3,1003.0,0.25,59,141.2
4858,D4,1003.25,0.25,48,141.2
4859,C3,1003.5,0.25,58,141.2
4860,C4,1003.75,0.25,49,141.2
4861,B-3,1004.0,0.25,70,141.2
4862,B-2,1004.0,0.25,70,141.2
4863,A3,1004.5,0.25,49,141.2
4864,F2,1004.5,2.0,84,141.2
4865,F3,1004.75,0.25,42,141.2
4866,B-3,1005.0,0.25,49,141.2
4867,F3,1005.25,0.25,41,141.2
4868,E-4,1005.5,0.25,49,141.2
4869,F3,1005.75,0.25,42,141.2
4870,D4,1006.0,0.25,49,141.2
4871,F3,1006.25,0.25,41,141.2
4872,A3,1006.5,0.25,49,141.2
4873,B-1,1006.5,0.25,81,141.2
4874,F3,1006.75,0.25,42,141.2
4875,B-3,1007.0,0.25,49,141.2
4876,E-3,1007.0,0.25,54,141.2
4877,F3,1007.25,0.25,43,141.2
4878,E-4,1007.5,0.25,49,141.2
4879,D3,1007.5,0.25,60,141.2
4880,F3,1007.75,0.25,40,141.2
4881,D4,1008.0,0.25,49,141.2
4882,A2,1008.0,0.25,54,141.2
4883,F3,1008.25,0.25,41,141.2
4884,A3,1008.5,0.25,49,141.2
4885,B-2,1008.5,0.25,60,141.2
4886,F3,1008.75,0.25,42,141.2
4887,B-3,1009.0,0.25,49,141.2
4888,E-3,1009.0,0.25,52,141.2
4889,F3,1009.25,0.25,43,141.2
4890,E-4,1009.5,0.25,49,141.2
4891,D3,1009.5,0.25,60,141.2
4892,F3,1009.75,0.25,40,141.2
4893,D4,1010.0,0.5,56,141.2
4894,A2,1010.0,0.25,58,141.2
4895,F#3,1010.5,0.25,60,141.2
4896,B-2,1010.5,0.25,60,141.2
4897,F#4,1010.75,0.25,52,141.2
4898,G3,1011.0,0.25,61,141.2
4899,E-3,1011.0,0.25,52,141.2
4900,G4,1011.25,0.25,49,141.2
4901,A3,1011.5,0.25,67,141.2
4902,D3,1011.5,0.25,60,141.2
4903,A4,1011.75,0.25,60,141.2
4904,B-3,1012.0,0.25,71,141.2
4905,A2,1012.0,0.25,58,141.2
4906,B-4,1012.25,0.25,62,141.2
4907,B3,1012.5,0.25,70,141.2
4908,B-2,1012.5,0.25,67,141.2
4909,B4,1012.75,0.25,64,141.2
4910,C4,1013.0,0.25,70,141.2
4911,C3,1013.0,0.25,59,141.2
4912,C5,1013.25,0.25,64,141.2
4913,D4,1013.5,0.25,74,141.2
4914,B-2,1013.5,0.25,72,141.2
4915,D5,1013.75,0.25,65,141.2
4916,E-4,1014.0,0.25,82,141.2
4917,A2,1014.0,0.25,67,141.2
4918,E-5,1014.25,0.25,71,141.2
4919,F4,1014.5,0.25,79,141.2
4920,G2,1014.5,0.25,75,141.2
4921,F5,1014.75,0.25,70,141.2
4922,G4,1015.0,0.25,83,141.2
4923,F2,1015.0,0.25,77,141.2
4924,G5,1015.25,0.25,72,141.2
4925,F4,1015.5,0.25,81,141.2
4926,E-2,1015.5,0.25,80,141.2
4927,F5,1015.75,0.25,69,141.2
4928,E-4,1016.0,0.25,84,141.2
4929,D2,1016.0,0.25,82,141.2
4930,E-5,1016.25,0.25,69,141.2
4931,D4,1016.5,0.25,81,141.2
4932,C2,1016.5,2.0,94,141.2
4933,D5,1016.75,0.25,69,141.2
4934,C4,1017.0,0.25,79,141.2
4935,C5,1017.25,0.25,69,141.2
4936,B-3,1017.5,0.25,78,141.2
4937,B-4,1017.75,0.25,65,141.2
4938,A3,1018.0,0.25,79,141.2
4939,A4,1018.25,0.25,69,141.2
4940,G3,1018.5,0.25,77,141.2
4941,C2,1018.5,2.0,94,141.2
4942,G4,1018.75,0.25,65,141.2
4943,F3,1019.0,0.25,77,141.2
4944,F4,1019.25,0.25,67,141.2
4945,A3,1019.5,0.25,75,141.2
4946,A4,1019.75,0.25,66,141.2
4947,B-4,1020.0,1.0,79,141.2
4948,B-3,1020.0,1.0,79,141.2
4949,F1,1020.5,2.0,80,141.2
4950,F2,1020.5,2.0,80,141.2
4951,F4,1022.0,2.0,37,141.2
4952,D4,1022.0,2.0,37,141.2
4953,B-1,1022.5,0.25,30,141.2
4954,B-2,1022.75,0.25,26,141.2
4955,B-1,1023.0,0.25,30,141.2
4956,B-2,1023.25,0.25,25,141.2
4957,B-3,1023.5,0.5,39,141.2
4958,B-1,1023.5,0.25,30,141.2
4959,B-2,1023.75,0.25,26,141.2
4960,B-1,1024.0,0.25,30,141.2
4961,F#4,1024.0,2.0,42,141.2
4962,E-4,1024.0,2.0,42,141.2
4963,B-2,1024.25,0.25,27,141.2
4964,B-1,1024.5,0.25,30,141.2
4965,B-2,1024.75,0.25,27,141.2
4966,B-1,1025.0,0.25,30,141.2
4967,B-2,1025.25,0.25,25,141.2
4968,C#4,1025.5,0.5,40,141.2
4969,B-1,1025.5,0.25,30,141.2
4970,B-2,1025.75,0.25,26,141.2
4971,B3,1026.0,0.5,45,141.2
4972,B-1,1026.0,0.25,30,141.2
4973,F#4,1026.0,1.0,32,141.2
4974,E-4,1026.0,1.0,32,141.2
4975,B-2,1026.25,0.25,26,141.2
4976,B-3,1026.5,0.5,40,141.2
4977,B-1,1026.5,0.25,30,141.2
4978,B-2,1026.75,0.25,26,141.2
4979,B3,1027.0,0.5,46,141.2
4980,B-1,1027.0,0.25,30,141.2
4981,F#4,1027.0,1.0,33,141.2
4982,E-4,1027.0,1.0,33,141.2
4983,B-2,1027.25,0.25,25,141.2
4984,A3,1027.5,0.5,40,141.2
4985,B-1,1027.5,0.25,30,141.2
4986,B-2,1027.75,0.25,26,141.2
4987,B-1,1028.0,0.25,30,141.2
4988,F4,1028.0,1.5,41,141.2
4989,D4,1028.0,1.5,41,141.2
4990,B-3,1028.0,1.5,41,141.2
4991,B-2,1028.25,0.25,27,141.2
4992,B-1,1028.5,0.25,30,141.2
4993,B-2,1028.75,0.25,27,141.2
4994,B-1,1029.0,0.25,30,141.2
4995,B-2,1029.25,0.25,25,141.2
4996,B-1,1029.5,0.25,30,141.2
4997,B-2,1029.75,0.25,26,141.2
4998,D5,1030.0,1.5,52,141.2
4999,B-1,1030.0,0.25,30,141.2
5000,F4,1030.0,2.0,48,141.2
5001,D4,1030.0,2.0,48,141.2
5002,B-2,1030.25,0.25,26,141.2
5003,B-1,1030.5,0.25,30,141.2
5004,B-2,1030.75,0.25,26,141.2
5005,B-1,1031.0,0.25,30,141.2
5006,B-2,1031.25,0.25,25,141.2
5007,B-4,1031.5,0.5,50,141.2
5008,B-1,1031.5,0.25,30,141.2
5009,B-2,1031.75,0.25,26,141.2
5010,E-5,1032.0,1.5,52,141.2
5011,B-1,1032.0,0.25,30,141.2
5012,F#4,1032.0,2.0,54,141.2
5013,E-4,1032.0,2.0,54,141.2
5014,B-2,1032.25,0.25,27,141.2
5015,B-1,1032.5,0.25,30,141.2
5016,B-2,1032.75,0.25,27,141.2
5017,B-1,1033.0,0.25,35,141.2
5018,B-2,1033.25,0.25,29,141.2
5019,C#5,1033.5,0.5,52,141.2
5020,B-1,1033.5,0.25,34,141.2
5021,B-2,1033.75,0.25,26,141.2
5022,B4,1034.0,0.5,58,141.2
5023,B-1,1034.0,0.25,35,141.2
5024,F#4,1034.0,1.0,41,141.2
5025,E-4,1034.0,1.0,41,141.2
5026,B-2,1034.25,0.25,31,141.2
5027,B-4,1034.5,0.5,52,141.2
5028,B-1,1034.5,0.25,38,141.2
5029,B-2,1034.75,0.25,30,141.2
5030,B4,1035.0,0.5,59,141.2
5031,B-1,1035.0,0.25,34,141.2
5032,F#4,1035.0,1.0,42,141.2
5033,E-4,1035.0,1.0,42,141.2
5034,B-2,1035.25,0.25,25,141.2
5035,A4,1035.5,0.5,52,141.2
5036,B-1,1035.5,0.25,33,141.2
5037,B-2,1035.75,0.25,26,141.2
5038,B-1,1036.0,0.25,30,141.2
5039,B-4,1036.0,1.5,53,141.2
5040,F4,1036.0,1.5,53,141.2
5041,D4,1036.0,1.5,53,141.2
5042,B-2,1036.25,0.25,27,141.2
5043,B-1,1036.5,0.25,30,141.2
5044,B-2,1036.75,0.25,27,141.2
5045,B-1,1037.0,0.25,30,141.2
5046,B-2,1037.25,0.25,25,141.2
5047,B-1,1037.5,0.25,30,141.2
5048,B-2,1037.75,0.25,26,141.2
5049,C5,1038.0,0.5,53,141.2
5050,B-1,1038.0,0.25,30,141.2
5051,F#4,1038.0,1.0,37,141.2
5052,E-4,1038.0,1.0,37,141.2
5053,B-2,1038.25,0.25,26,141.2
5054,B-4,1038.5,0.5,46,141.2
5055,B-1,1038.5,0.25,30,141.2
5056,B-2,1038.75,0.25,25,141.2
5057,C5,1039.0,0.5,51,141.2
5058,B-1,1039.0,0.25,29,141.2
5059,F#4,1039.0,1.0,36,141.2
5060,E-4,1039.0,1.0,36,141.2
5061,B-2,1039.25,0.25,24,141.2
5062,A4,1039.5,0.5,44,141.2
5063,B-1,1039.5,0.25,28,141.2
5064,B-2,1039.75,0.25,24,141.2
5065,B-1,1040.0,0.25,28,141.2
5066,B-4,1040.0,1.5,44,141.2
5067,F4,1040.0,1.5,44,141.2
5068,D4,1040.0,1.5,44,141.2
5069,B-2,1040.25,0.25,25,141.2
5070,B-1,1040.5,0.25,27,141.2
5071,B-2,1040.75,0.25,24,141.2
5072,B-1,1041.0,0.25,27,141.2
5073,B-2,1041.25,0.25,22,141.2
5074,B-1,1041.5,0.25,26,141.2
5075,B-2,1041.75,0.25,22,141.2
5076,B4,1042.0,0.5,43,141.2
5077,B-1,1042.0,0.25,25,141.2
5078,F#4,1042.0,1.0,30,141.2
5079,E-4,1042.0,1.0,30,141.2
5080,B-2,1042.25,0.25,22,141.2
5081,B-4,1042.5,0.5,39,141.2
5082,B-1,1042.5,0.25,25,141.2
5083,B-2,1042.75,0.25,21,141.2
5084,B4,1043.0,0.5,44,141.2
5085,B-1,1043.0,0.25,24,141.2
5086,F#4,1043.0,1.0,31,141.2
5087,E-4,1043.0,1.0,31,141.2
5088,B-2,1043.25,0.25,20,141.2
5089,A4,1043.5,0.5,39,141.2
5090,B-1,1043.5,0.25,24,141.2
5091,B-2,1043.75,0.25,20,141.2
5092,B-1,1044.0,0.25,23,141.2
5093,B-3,1044.0,1.5,81,141.2
5094,B-4,1044.0,1.5,81,141.2
5095,B-2,1044.25,0.25,20,141.2
5096,B-1,1044.5,0.25,22,141.2
5097,B-2,1044.75,0.25,20,141.2
5098,B-1,1045.0,0.25,22,141.2
5099,B-2,1045.25,0.25,18,141.2
5100,B-1,1045.5,0.25,22,141.2
5101,C4,1045.5,0.25,73,141.2
5102,C5,1045.5,0.25,73,141.2
5103,B-2,1045.75,0.25,19,141.2
5104,B-1,1046.0,0.25,22,141.2
5105,D4,1046.0,1.5,82,141.2
5106,D5,1046.0,1.5,82,141.2
5107,B-2,1046.25,0.25,19,141.2
5108,B-1,1046.5,1.5,61,141.2
5109,B-2,1046.5,1.5,61,141.2
5110,E-4,1047.5,0.25,74,141.2
5111,E-5,1047.5,0.25,74,141.2
5112,F4,1048.0,1.5,84,141.2
5113,F5,1048.0,1.5,84,141.2
5114,C2,1048.0,0.25,54,141.2
5115,C3,1048.0,0.25,54,141.2
5116,D2,1048.5,1.5,61,141.2
5117,D3,1048.5,1.5,61,141.2
5118,G4,1049.5,0.25,68,141.2
5119,G5,1049.5,0.25,68,141.2
5120,A4,1050.0,0.25,78,141.2
5121,A5,1050.0,0.25,78,141.2
5122,E-2,1050.0,0.25,55,141.2
5123,E-3,1050.0,0.25,55,141.2
5124,B-4,1050.5,0.25,74,141.2
5125,B-5,1050.5,0.25,74,141.2
5126,F2,1050.5,1.5,62,141.2
5127,F3,1050.5,1.5,62,141.2
5128,C5,1051.0,0.25,80,141.2
5129,C6,1051.0,0.25,80,141.2
5130,D5,1051.5,0.25,76,141.2
5131,D6,1051.5,0.25,76,141.2
5132,E-5,1052.0,1.5,88,141.2
5133,E-6,1052.0,1.5,88,141.2
5134,G2,1052.0,0.25,52,141.2
5135,G3,1052.0,0.25,52,141.2
5136,A2,1052.5,0.25,58,141.2
5137,A3,1052.5,0.25,58,141.2
5138,B-2,1053.0,0.25,55,141.2
5139,B-3,1053.0,0.25,55,141.2
5140,D5,1053.5,0.25,78,141.2
5141,D6,1053.5,0.25,78,141.2
5142,C3,1053.5,0.25,60,141.2
5143,C4,1053.5,0.25,60,141.2
5144,C5,1054.0,1.5,86,141.2
5145,C6,1054.0,1.5,86,141.2
5146,D3,1054.0,0.25,56,141.2
5147,D4,1054.0,0.25,56,141.2
5148,E-3,1054.5,1.5,66,141.2
5149,E-4,1054.5,1.5,66,141.2
5150,B-4,1055.5,0.25,76,141.2
5151,B-5,1055.5,0.25,76,141.2
5152,A4,1056.0,1.5,85,141.2
5153,A5,1056.0,1.5,85,141.2
5154,D3,1056.0,0.25,58,141.2
5155,D4,1056.0,0.25,58,141.2
5156,C3,1056.5,1.5,64,141.2
5157,C4,1056.5,1.5,64,141.2
5158,G4,1057.5,0.25,68,141.2
5159,G5,1057.5,0.25,68,141.2
5160,F4,1058.0,0.25,76,141.2
5161,F5,1058.0,0.25,76,141.2
5162,B-2,1058.0,0.25,56,141.2
5163,B-3,1058.0,0.25,56,141.2
5164,E-4,1058.5,0.25,72,141.2
5165,E-5,1058.5,0.25,72,141.2
5166,A2,1058.5,1.5,64,141.2
5167,A3,1058.5,1.5,64,141.2
5168,D4,1059.0,0.25,76,141.2
5169,D5,1059.0,0.25,76,141.2
5170,C4,1059.5,0.25,70,141.2
5171,C5,1059.5,0.25,70,141.2
5172,B-3,1060.0,0.25,84,141.2
5173,B-4,1060.0,0.25,84,141.2
5174,G2,1060.0,0.25,52,141.2
5175,G3,1060.0,0.25,52,141.2
5176,F2,1060.5,0.25,57,141.2
5177,F3,1060.5,0.25,57,141.2
5178,A4,1061.0,0.25,53,141.2
5179,E-2,1061.0,0.25,54,141.2
5180,E-3,1061.0,0.25,54,141.2
5181,G#4,1061.25,0.25,45,141.2
5182,A4,1061.5,0.25,53,141.2
5183,D2,1061.5,0.25,57,141.2
5184,D3,1061.5,0.25,57,141.2
5185,F4,1061.75,0.25,43,141.2
5186,B-4,1062.0,0.25,57,141.2
5187,C2,1062.0,0.25,52,141.2
5188,C3,1062.0,0.25,52,141.2
5189,B-1,1062.5,0.25,64,141.2
5190,B-2,1062.5,0.25,64,141.2
5191,A5,1063.0,0.25,53,141.2
5192,G#5,1063.25,0.25,45,141.2
5193,A5,1063.5,0.25,53,141.2
5194,F3,1063.5,0.25,36,141.2
5195,C4,1063.5,0.25,36,141.2
5196,E-4,1063.5,0.25,36,141.2
5197,F5,1063.75,0.25,43,141.2
5198,B-5,1064.0,0.25,57,141.2
5199,B-3,1064.5,0.25,45,141.2
5200,D4,1064.5,0.25,45,141.2
5201,F4,1065.5,0.25,36,141.2
5202,C5,1065.5,0.25,36,141.2
5203,E-5,1065.5,0.25,36,141.2
5204,A5,1066.0,1.0,80,141.2
5205,F5,1066.0,1.0,80,141.2
5206,E-5,1066.0,1.0,80,141.2
5207,C5,1066.0,1.0,80,141.2
5208,A4,1066.0,1.0,80,141.2
5209,B-4,1066.5,0.25,45,141.2
5210,D5,1066.5,0.25,45,141.2
5211,B-5,1068.0,1.0,86,141.2
5212,F5,1068.0,1.0,86,141.2
5213,D5,1068.0,1.0,86,141.2
5214,B-4,1068.0,1.0,86,141.2
5215,F2,1068.5,1.0,62,141.2
5216,F3,1068.5,1.0,62,141.2
5217,B-1,1070.5,1.0,70,141.2
5218,B-2,1070.5,1.0,70,141.2
