,note_name,start_time,duration,velocity,tempo
0,B-1,1.75,0.25,96,138.0
1,D4,2.0,0.75,83,138.0
2,F3,2.0,0.75,83,138.0
3,B-3,2.0,0.75,83,138.0
4,D5,2.75,0.25,92,138.0
5,F5,2.75,0.25,92,138.0
6,B-5,2.75,0.25,92,138.0
7,D6,2.75,0.25,92,138.0
8,F3,2.75,0.25,74,138.0
9,D4,2.75,0.25,74,138.0
10,B-3,2.75,0.25,74,138.0
11,F5,3.0,0.375,83,138.0
12,B-5,3.0,0.375,83,138.0
13,D5,3.0,0.375,83,138.0
14,D6,3.0,0.375,83,138.0
15,D4,3.0,0.375,83,138.0
16,B-3,3.0,0.375,83,138.0
17,F3,3.0,0.375,83,138.0
18,D5,3.5,0.094,85,138.0
19,E-6,3.5,0.094,85,138.0
20,F5,3.5,0.094,85,138.0
21,B-5,3.5,0.094,85,138.0
22,D4,3.5,0.094,79,138.0
23,B-3,3.5,0.094,79,138.0
24,F3,3.5,0.094,79,138.0
25,D6,3.75,0.094,86,138.0
26,D5,3.75,0.094,86,138.0
27,B-5,3.75,0.094,86,138.0
28,F5,3.75,0.094,86,138.0
29,B-3,3.75,0.094,83,138.0
30,D4,3.75,0.094,83,138.0
31,F3,3.75,0.094,83,138.0
32,F5,4.0,0.25,92,138.0
33,D5,4.0,0.25,92,138.0
34,B-5,4.0,0.25,92,138.0
35,D6,4.0,0.25,92,138.0
36,D4,4.0,0.25,83,138.0
37,F3,4.0,0.25,83,138.0
38,B-3,4.0,0.25,83,138.0
39,D5,4.5,0.25,84,138.0
40,B-4,4.5,0.25,84,138.0
41,F5,4.5,0.25,84,138.0
42,B-5,4.5,0.25,84,138.0
43,F3,4.5,0.25,83,138.0
44,D3,4.5,0.25,83,138.0
45,B-3,4.5,0.25,83,138.0
46,B-1,5.75,0.25,96,138.0
47,B-3,6.0,0.75,82,138.0
48,F3,6.0,0.75,82,138.0
49,D4,6.0,0.75,82,138.0
50,F4,6.0,0.75,82,138.0
51,B-5,6.75,0.25,92,138.0
52,D6,6.75,0.25,92,138.0
53,F5,6.75,0.25,92,138.0
54,F6,6.75,0.25,92,138.0
55,B-3,6.75,0.25,73,138.0
56,F3,6.75,0.25,73,138.0
57,D4,6.75,0.25,73,138.0
58,F4,6.75,0.25,73,138.0
59,F5,7.0,0.375,83,138.0
60,B-5,7.0,0.375,83,138.0
61,D6,7.0,0.375,83,138.0
62,F6,7.0,0.375,83,138.0
63,B-3,7.0,0.375,82,138.0
64,F4,7.0,0.375,82,138.0
65,D4,7.0,0.375,82,138.0
66,F3,7.0,0.375,82,138.0
67,B-5,7.5,0.094,85,138.0
68,D6,7.5,0.094,85,138.0
69,G6,7.5,0.094,85,138.0
70,F5,7.5,0.094,85,138.0
71,D4,7.5,0.094,78,138.0
72,B-3,7.5,0.094,78,138.0
73,F4,7.5,0.094,78,138.0
74,F3,7.5,0.094,78,138.0
75,F5,7.75,0.094,86,138.0
76,B-5,7.75,0.094,86,138.0
77,F6,7.75,0.094,86,138.0
78,D6,7.75,0.094,86,138.0
79,D4,7.75,0.094,82,138.0
80,B-3,7.75,0.094,82,138.0
81,F4,7.75,0.094,82,138.0
82,F3,7.75,0.094,82,138.0
83,F6,8.0,0.25,92,138.0
84,F5,8.0,0.25,92,138.0
85,B-5,8.0,0.25,92,138.0
86,D6,8.0,0.25,92,138.0
87,B-3,8.0,0.25,82,138.0
88,F4,8.0,0.25,82,138.0
89,F3,8.0,0.25,82,138.0
90,D4,8.0,0.25,82,138.0
91,D5,8.5,0.25,84,138.0
92,F5,8.5,0.25,84,138.0
93,B-5,8.5,0.25,84,138.0
94,D6,8.5,0.25,84,138.0
95,B-3,8.5,0.25,83,138.0
96,D4,8.5,0.25,83,138.0
97,F3,8.5,0.25,83,138.0
98,B-4,9.5,0.25,50,138.0
99,C5,9.75,0.25,45,138.0
100,D5,10.0,1.0,50,138.0
101,G4,10.5,0.5,39,138.0
102,E4,10.5,0.5,29,138.0
103,F4,11.0,0.5,29,138.0
104,A4,11.0,0.5,36,138.0
105,C5,11.0,0.5,36,138.0
106,G#4,11.5,0.5,42,138.0
107,C5,11.5,0.25,50,138.0
108,B3,11.5,0.5,40,138.0
109,D5,11.75,0.25,46,138.0
110,E-5,12.0,1.0,55,138.0
111,G4,12.0,0.5,46,138.0
112,C4,12.0,0.5,40,138.0
113,A4,12.5,0.5,45,138.0
114,F#3,12.5,0.5,36,138.0
115,G3,13.0,0.5,36,138.0
116,B-4,13.0,0.5,42,138.0
117,D5,13.0,0.5,42,138.0
118,G4,13.5,0.5,39,138.0
119,D5,13.5,0.25,47,138.0
120,E-3,13.5,0.5,40,138.0
121,E-5,13.75,0.25,50,138.0
122,F4,14.0,0.5,45,138.0
123,F5,14.0,0.75,54,138.0
124,D3,14.0,0.5,40,138.0
125,B-4,14.5,0.5,45,138.0
126,C#3,14.5,0.5,35,138.0
127,G5,14.75,0.25,52,138.0
128,G4,15.0,0.5,42,138.0
129,F5,15.0,0.25,50,138.0
130,C3,15.0,0.5,35,138.0
131,E-5,15.25,0.5,43,138.0
132,A4,15.5,0.5,43,138.0
133,F2,15.5,0.5,40,138.0
134,F5,15.75,0.25,45,138.0
135,E-5,16.0,0.25,49,138.0
136,B-2,16.0,0.5,38,138.0
137,B-4,16.0,0.5,35,138.0
138,F4,16.0,0.5,35,138.0
139,D5,16.25,0.25,41,138.0
140,F5,16.5,0.25,43,138.0
141,E-2,16.5,0.5,30,138.0
142,C5,16.5,0.5,30,138.0
143,G4,16.5,0.5,30,138.0
144,E-5,16.75,0.25,37,138.0
145,F2,17.0,0.5,27,138.0
146,A4,17.0,0.5,32,138.0
147,C5,17.0,0.5,32,138.0
148,B-5,17.5,0.25,50,138.0
149,C6,17.75,0.25,45,138.0
150,D6,18.0,1.0,50,138.0
151,G5,18.5,0.5,39,138.0
152,E5,18.5,0.5,29,138.0
153,F5,19.0,0.5,29,138.0
154,A5,19.0,0.5,36,138.0
155,C6,19.0,0.5,36,138.0
156,C6,19.5,0.25,50,138.0
157,G#5,19.5,0.5,42,138.0
158,B4,19.5,0.5,40,138.0
159,D6,19.75,0.25,46,138.0
160,G5,20.0,0.5,46,138.0
161,E-6,20.0,1.0,55,138.0
162,C5,20.0,0.5,40,138.0
163,A5,20.5,0.5,45,138.0
164,F#4,20.5,0.5,36,138.0
165,G4,21.0,0.5,36,138.0
166,D6,21.0,0.5,42,138.0
167,B-5,21.0,0.5,42,138.0
168,G5,21.5,0.5,39,138.0
169,D6,21.5,0.25,51,138.0
170,E-4,21.5,0.5,40,138.0
171,E-6,21.75,0.25,55,138.0
172,F6,22.0,0.75,59,138.0
173,F5,22.0,0.5,45,138.0
174,D4,22.0,0.5,40,138.0
175,B-5,22.5,0.5,45,138.0
176,C#4,22.5,0.5,35,138.0
177,G6,22.75,0.25,57,138.0
178,F6,23.0,0.25,55,138.0
179,G5,23.0,0.5,42,138.0
180,C4,23.0,0.5,35,138.0
181,E-6,23.25,0.5,47,138.0
182,A5,23.5,0.5,43,138.0
183,F3,23.5,0.5,40,138.0
184,F6,23.75,0.25,50,138.0
185,E-6,24.0,0.25,57,138.0
186,F5,24.0,0.5,44,138.0
187,B-3,24.0,0.5,36,138.0
188,D6,24.25,0.5,49,138.0
189,B-5,24.5,1.0,46,138.0
190,F#3,24.5,0.5,43,138.0
191,E-6,24.75,0.25,53,138.0
192,D6,25.0,0.25,60,138.0
193,F3,25.0,0.5,44,138.0
194,C6,25.25,0.25,49,138.0
195,D6,25.5,0.25,55,138.0
196,E-3,25.5,0.5,45,138.0
197,A5,25.5,0.5,47,138.0
198,F5,25.5,0.5,47,138.0
199,E-6,25.75,0.25,51,138.0
200,G6,26.0,0.25,67,138.0
201,D3,26.0,0.5,46,138.0
202,F5,26.0,0.5,52,138.0
203,B-5,26.0,0.5,52,138.0
204,F6,26.25,0.25,53,138.0
205,G6,26.5,0.25,58,138.0
206,B-5,26.5,0.5,41,138.0
207,C#3,26.5,0.5,47,138.0
208,F6,26.75,0.25,59,138.0
209,F6,27.0,0.25,69,138.0
210,G5,27.0,0.5,53,138.0
211,C3,27.0,0.5,48,138.0
212,E-6,27.25,0.25,55,138.0
213,A5,27.5,0.5,43,138.0
214,F6,27.5,0.25,61,138.0
215,F2,27.5,0.5,50,138.0
216,E-6,27.75,0.25,56,138.0
217,E-6,28.0,0.25,74,138.0
218,F5,28.0,0.5,57,138.0
219,B-2,28.0,0.5,50,138.0
220,D6,28.25,0.25,57,138.0
221,E-6,28.5,0.25,63,138.0
222,B-5,28.5,1.0,45,138.0
223,F#2,28.5,0.5,52,138.0
224,D6,28.75,61/250,58,138.0
225,D6,29.0,0.25,75,138.0
226,F2,29.0,0.5,53,138.0
227,C6,29.25,0.25,61,138.0
228,D6,29.5,0.25,67,138.0
229,E-2,29.5,0.5,54,138.0
230,F5,29.5,0.5,47,138.0
231,A5,29.5,0.5,47,138.0
232,E-6,29.75,0.25,70,138.0
233,G6,30.0,0.25,69,138.0
234,D2,30.0,0.5,55,138.0
235,F5,30.0,0.5,58,138.0
236,B-5,30.0,0.5,58,138.0
237,F6,30.25,0.25,70,138.0
238,C#2,30.5,0.5,56,138.0
239,B-5,30.5,0.5,68,138.0
240,E6,30.5,0.5,68,138.0
241,G6,30.75,0.5,72,138.0
242,E-6,31.0,0.5,67,138.0
243,C2,31.0,0.5,57,138.0
244,G#6,31.25,0.5,74,138.0
245,F#1,31.5,0.5,58,138.0
246,C6,31.5,0.5,70,138.0
247,E-6,31.5,0.5,70,138.0
248,A6,31.75,0.25,77,138.0
249,C7,32.0,0.25,86,138.0
250,G1,32.0,0.5,67,138.0
251,B-5,32.0,0.5,73,138.0
252,D6,32.0,0.5,73,138.0
253,B-6,32.25,0.25,72,138.0
254,A6,32.5,0.25,84,138.0
255,E-2,32.5,0.5,61,138.0
256,B-5,32.5,0.5,71,138.0
257,E-6,32.5,0.5,71,138.0
258,G6,32.75,0.25,74,138.0
259,F2,33.0,0.25,70,138.0
260,F6,33.0,0.25,77,138.0
261,D6,33.0,0.25,77,138.0
262,B-5,33.0,0.25,77,138.0
263,F6,33.5,0.25,74,138.0
264,A6,33.5,0.25,74,138.0
265,C6,33.5,0.25,74,138.0
266,A5,33.5,0.25,74,138.0
267,F1,33.5,0.25,66,138.0
268,F2,33.5,0.25,66,138.0
269,B-5,34.0,1.0,89,138.0
270,F6,34.0,1.0,89,138.0
271,D6,34.0,1.0,89,138.0
272,B-6,34.0,1.0,89,138.0
273,B-2,34.0,0.25,62,138.0
274,B-1,34.0,0.25,62,138.0
275,F3,34.25,0.25,50,138.0
276,B-3,34.25,0.25,50,138.0
277,D4,34.25,0.25,50,138.0
278,D4,34.5,0.25,50,138.0
279,B-3,34.5,0.25,50,138.0
280,F3,34.5,0.25,50,138.0
281,F3,34.75,0.25,50,138.0
282,D4,34.75,0.25,50,138.0
283,B-3,34.75,0.25,50,138.0
284,B-4,35.0,1.0,67,138.0
285,B-5,35.0,1.0,67,138.0
286,D5,35.0,1.0,67,138.0
287,D4,35.25,0.25,48,138.0
288,F3,35.25,0.25,48,138.0
289,B-3,35.25,0.25,48,138.0
290,B-3,35.5,0.25,48,138.0
291,F3,35.5,0.25,48,138.0
292,D4,35.5,0.25,48,138.0
293,B-3,35.75,0.25,48,138.0
294,F3,35.75,0.25,48,138.0
295,D4,35.75,0.25,48,138.0
296,F5,36.0,0.125,53,138.0
297,D6,36.0,0.125,53,138.0
298,D5,36.0,0.125,53,138.0
299,F3,36.25,0.125,39,138.0
300,B-3,36.25,0.125,39,138.0
301,D4,36.25,0.125,39,138.0
302,B-5,36.5,0.125,54,138.0
303,D5,36.5,0.125,54,138.0
304,B-4,36.5,0.125,54,138.0
305,B-3,36.75,0.125,40,138.0
306,D3,36.75,0.125,40,138.0
307,D5,37.0,0.125,54,138.0
308,F5,37.0,0.125,54,138.0
309,D6,37.0,0.125,54,138.0
310,F3,37.25,0.125,39,138.0
311,B-3,37.25,0.125,39,138.0
312,D4,37.25,0.125,39,138.0
313,C5,37.5,0.125,54,138.0
314,E-5,37.5,0.125,54,138.0
315,C6,37.5,0.125,54,138.0
316,C4,37.75,0.125,39,138.0
317,E-3,37.75,0.125,39,138.0
318,B-3,37.75,0.125,39,138.0
319,E-6,38.0,1.0,103,138.0
320,G5,38.0,1.0,103,138.0
321,E-5,38.0,1.0,103,138.0
322,B-2,38.0,0.25,72,138.0
323,B-1,38.0,0.25,72,138.0
324,B-3,38.25,0.25,57,138.0
325,E-4,38.25,0.25,57,138.0
326,G3,38.25,0.25,57,138.0
327,E-4,38.5,0.25,57,138.0
328,G3,38.5,0.25,57,138.0
329,B-3,38.5,0.25,57,138.0
330,E-4,38.75,0.25,57,138.0
331,B-3,38.75,0.25,57,138.0
332,G3,38.75,0.25,57,138.0
333,C6,39.0,1.0,67,138.0
334,E-5,39.0,1.0,67,138.0
335,C5,39.0,1.0,67,138.0
336,B-3,39.25,0.25,48,138.0
337,C4,39.25,0.25,48,138.0
338,E-3,39.25,0.25,48,138.0
339,B-3,39.5,0.25,48,138.0
340,C4,39.5,0.25,48,138.0
341,E-3,39.5,0.25,48,138.0
342,C4,39.75,0.25,48,138.0
343,B-3,39.75,0.25,48,138.0
344,E-3,39.75,0.25,48,138.0
345,E-6,40.0,0.125,53,138.0
346,E-5,40.0,0.125,53,138.0
347,G5,40.0,0.125,53,138.0
348,B-3,40.25,0.125,39,138.0
349,E-4,40.25,0.125,39,138.0
350,G3,40.25,0.125,39,138.0
351,C#5,40.5,0.125,54,138.0
352,E5,40.5,0.125,54,138.0
353,C#6,40.5,0.125,54,138.0
354,E3,40.75,0.125,39,138.0
355,B-3,40.75,0.125,39,138.0
356,C#4,40.75,0.125,39,138.0
357,F#5,41.0,0.125,54,138.0
358,E-6,41.0,0.125,54,138.0
359,E-5,41.0,0.125,54,138.0
360,F#3,41.25,0.125,39,138.0
361,E-4,41.25,0.125,39,138.0
362,B-3,41.25,0.125,39,138.0
363,F5,41.5,0.125,54,138.0
364,D5,41.5,0.125,54,138.0
365,D6,41.5,0.125,54,138.0
366,D4,41.75,0.125,39,138.0
367,F3,41.75,0.125,39,138.0
368,B-3,41.75,0.125,39,138.0
369,F6,42.0,1.0,99,138.0
370,G#5,42.0,1.0,99,138.0
371,F5,42.0,1.0,99,138.0
372,B-2,42.0,0.25,68,138.0
373,B-1,42.0,0.25,68,138.0
374,B-3,42.25,0.25,54,138.0
375,G#3,42.25,0.25,54,138.0
376,F4,42.25,0.25,54,138.0
377,F4,42.5,0.25,54,138.0
378,G#3,42.5,0.25,54,138.0
379,B-3,42.5,0.25,54,138.0
380,F4,42.75,0.25,54,138.0
381,G#3,42.75,0.25,54,138.0
382,B-3,42.75,0.25,54,138.0
383,D6,43.0,1.0,67,138.0
384,D5,43.0,1.0,67,138.0
385,F5,43.0,1.0,67,138.0
386,B-3,43.25,0.25,48,138.0
387,F3,43.25,0.25,48,138.0
388,D4,43.25,0.25,48,138.0
389,D4,43.5,0.25,48,138.0
390,B-3,43.5,0.25,48,138.0
391,F3,43.5,0.25,48,138.0
392,B-3,43.75,0.25,48,138.0
393,D4,43.75,0.25,48,138.0
394,F3,43.75,0.25,48,138.0
395,G#5,44.0,0.125,53,138.0
396,F5,44.0,0.125,53,138.0
397,F6,44.0,0.125,53,138.0
398,B-3,44.25,0.125,39,138.0
399,F4,44.25,0.125,39,138.0
400,G#3,44.25,0.125,39,138.0
401,D5,44.5,0.125,54,138.0
402,F#5,44.5,0.125,54,138.0
403,D6,44.5,0.125,54,138.0
404,B-3,44.75,0.125,39,138.0
405,F#3,44.75,0.125,39,138.0
406,D4,44.75,0.125,39,138.0
407,G#5,45.0,0.125,54,138.0
408,F6,45.0,0.125,54,138.0
409,F5,45.0,0.125,54,138.0
410,B-3,45.25,0.125,39,138.0
411,F4,45.25,0.125,39,138.0
412,G#3,45.25,0.125,39,138.0
413,G5,45.5,0.125,54,138.0
414,E-5,45.5,0.125,54,138.0
415,E-6,45.5,0.125,54,138.0
416,B-3,45.75,0.125,39,138.0
417,E-4,45.75,0.125,39,138.0
418,G3,45.75,0.125,39,138.0
419,G6,46.0,1.0,99,138.0
420,G5,46.0,1.0,99,138.0
421,B-5,46.0,1.0,99,138.0
422,B-2,46.0,0.25,68,138.0
423,B-1,46.0,0.25,68,138.0
424,E-4,46.25,0.25,54,138.0
425,G4,46.25,0.25,54,138.0
426,B-3,46.25,0.25,54,138.0
427,G4,46.5,0.25,54,138.0
428,B-3,46.5,0.25,54,138.0
429,E-4,46.5,0.25,54,138.0
430,G4,46.75,0.25,54,138.0
431,B-3,46.75,0.25,54,138.0
432,E-4,46.75,0.25,54,138.0
433,E-6,47.0,1.0,66,138.0
434,G5,47.0,1.0,66,138.0
435,E-5,47.0,1.0,66,138.0
436,B-5,47.0,1.0,66,138.0
437,B-3,47.25,0.25,48,138.0
438,E-4,47.25,0.25,48,138.0
439,G3,47.25,0.25,48,138.0
440,E-4,47.5,0.25,48,138.0
441,B-3,47.5,0.25,48,138.0
442,G3,47.5,0.25,48,138.0
443,B-3,47.75,0.25,48,138.0
444,E-4,47.75,0.25,48,138.0
445,G3,47.75,0.25,48,138.0
446,G5,48.0,0.125,53,138.0
447,G6,48.0,0.125,53,138.0
448,B-5,48.0,0.125,53,138.0
449,B-3,48.25,0.125,35,138.0
450,G4,48.25,0.125,35,138.0
451,E-4,48.25,0.125,35,138.0
452,E5,48.5,0.125,54,138.0
453,B-5,48.5,0.125,54,138.0
454,E6,48.5,0.125,54,138.0
455,E4,48.75,0.125,35,138.0
456,B-3,48.75,0.125,35,138.0
457,C#4,48.75,0.125,35,138.0
458,B-5,49.0,0.125,60,138.0
459,F#5,49.0,0.125,60,138.0
460,F#6,49.0,0.125,60,138.0
461,E-4,49.25,0.125,39,138.0
462,B-3,49.25,0.125,39,138.0
463,F#4,49.25,0.125,39,138.0
464,F6,49.5,0.125,62,138.0
465,B-5,49.5,0.125,62,138.0
466,F5,49.5,0.125,62,138.0
467,D4,49.75,0.125,40,138.0
468,B-3,49.75,0.125,40,138.0
469,F4,49.75,0.125,40,138.0
470,G#6,50.0,0.125,62,138.0
471,B-5,50.0,0.125,62,138.0
472,G#5,50.0,0.125,62,138.0
473,B-3,50.25,0.125,41,138.0
474,F4,50.25,0.125,41,138.0
475,G#4,50.25,0.125,41,138.0
476,F#5,50.5,0.125,66,138.0
477,F#6,50.5,0.125,66,138.0
478,B-5,50.5,0.125,66,138.0
479,B-3,50.75,0.125,43,138.0
480,F#4,50.75,0.125,43,138.0
481,D4,50.75,0.125,43,138.0
482,G#6,51.0,0.125,68,138.0
483,B-5,51.0,0.125,68,138.0
484,G#5,51.0,0.125,68,138.0
485,G#4,51.25,0.125,45,138.0
486,F4,51.25,0.125,45,138.0
487,B-3,51.25,0.125,45,138.0
488,B-5,51.5,0.125,70,138.0
489,G6,51.5,0.125,70,138.0
490,G5,51.5,0.125,70,138.0
491,B-3,51.75,0.125,46,138.0
492,G4,51.75,0.125,46,138.0
493,E-4,51.75,0.125,46,138.0
494,B-5,52.0,0.125,70,138.0
495,E-6,52.0,0.125,70,138.0
496,B-6,52.0,0.125,70,138.0
497,G6,52.0,0.125,70,138.0
498,C4,52.25,0.125,47,138.0
499,G4,52.25,0.125,47,138.0
500,E-4,52.25,0.125,47,138.0
501,B-3,52.25,0.125,47,138.0
502,G#5,52.5,0.125,77,138.0
503,G#6,52.5,0.125,77,138.0
504,G#4,52.75,0.125,47,138.0
505,B-3,52.75,0.125,47,138.0
506,E-4,52.75,0.125,47,138.0
507,C4,52.75,0.125,47,138.0
508,B-5,53.0,0.125,79,138.0
509,B-6,53.0,0.125,79,138.0
510,B-4,53.25,0.125,49,138.0
511,B-3,53.25,0.125,49,138.0
512,C4,53.25,0.125,49,138.0
513,E-4,53.25,0.125,49,138.0
514,A6,53.5,0.125,82,138.0
515,A5,53.5,0.125,82,138.0
516,C4,53.75,0.125,50,138.0
517,E-4,53.75,0.125,50,138.0
518,B-3,53.75,0.125,50,138.0
519,A4,53.75,0.125,50,138.0
520,C6,54.0,0.25,92,138.0
521,C7,54.0,0.25,92,138.0
522,C5,54.25,0.125,61,138.0
523,C4,54.25,0.125,61,138.0
524,B-5,54.5,0.25,81,138.0
525,B-6,54.5,0.25,81,138.0
526,B-4,54.75,0.125,61,138.0
527,B-3,54.75,0.125,61,138.0
528,G5,55.0,0.25,90,138.0
529,G6,55.0,0.25,90,138.0
530,G3,55.25,0.125,61,138.0
531,G4,55.25,0.125,61,138.0
532,F6,55.5,0.25,83,138.0
533,F5,55.5,0.25,83,138.0
534,F4,55.75,0.125,61,138.0
535,F3,55.75,0.125,61,138.0
536,E-6,56.0,0.25,91,138.0
537,E-5,56.0,0.25,91,138.0
538,E-3,56.25,0.125,54,138.0
539,E-4,56.25,0.125,54,138.0
540,D6,56.5,0.25,76,138.0
541,D5,56.5,0.25,76,138.0
542,D4,56.75,0.125,54,138.0
543,D3,56.75,0.125,54,138.0
544,C6,57.0,0.25,80,138.0
545,C5,57.0,0.25,80,138.0
546,C3,57.25,0.125,54,138.0
547,C4,57.25,0.125,54,138.0
548,B-4,57.5,0.25,74,138.0
549,B-5,57.5,0.25,74,138.0
550,B-3,57.75,0.125,54,138.0
551,B-2,57.75,0.125,54,138.0
552,G4,58.0,0.25,82,138.0
553,G5,58.0,0.25,82,138.0
554,G3,58.25,0.125,54,138.0
555,G2,58.25,0.125,54,138.0
556,F4,58.5,0.25,72,138.0
557,F5,58.5,0.25,72,138.0
558,F2,58.75,0.125,54,138.0
559,F3,58.75,0.125,54,138.0
560,E-5,59.0,0.25,76,138.0
561,E-4,59.0,0.25,76,138.0
562,E-2,59.25,0.125,52,138.0
563,E-3,59.25,0.125,52,138.0
564,D4,59.5,0.25,70,138.0
565,D5,59.5,0.25,70,138.0
566,D3,59.75,0.125,52,138.0
567,D2,59.75,0.125,52,138.0
568,C5,60.0,0.25,74,138.0
569,C4,60.0,0.25,74,138.0
570,C3,60.25,0.125,49,138.0
571,C2,60.25,0.125,49,138.0
572,B-4,60.5,0.25,65,138.0
573,B-3,60.5,0.25,65,138.0
574,B-1,60.75,0.125,49,138.0
575,B-2,60.75,0.125,49,138.0
576,G4,61.0,0.25,72,138.0
577,G3,61.0,0.25,72,138.0
578,G1,61.25,0.125,49,138.0
579,G2,61.25,0.125,49,138.0
580,F4,61.5,0.25,66,138.0
581,F3,61.5,0.25,66,138.0
582,F1,61.75,0.125,49,138.0
583,F2,61.75,0.125,49,138.0
584,A4,62.0,0.5,77,138.0
585,A1,62.25,0.25,42,138.0
586,F4,62.5,0.5,67,138.0
587,F1,62.75,0.25,28,138.0
588,C5,63.0,0.5,73,138.0
589,C2,63.25,0.25,39,138.0
590,F4,63.5,0.5,67,138.0
591,F1,63.75,0.25,27,138.0
592,F5,64.0,0.5,71,138.0
593,F2,64.25,0.25,37,138.0
594,F4,64.5,0.5,59,138.0
595,F1,64.75,0.25,26,138.0
596,A5,65.0,0.5,68,138.0
597,A2,65.25,0.25,34,138.0
598,F4,65.5,0.5,56,138.0
599,F1,65.75,0.25,24,138.0
600,C6,66.0,0.5,62,138.0
601,C3,66.25,0.25,32,138.0
602,F4,66.5,0.5,49,138.0
603,F1,66.75,0.25,23,138.0
604,F6,67.0,0.5,54,138.0
605,F3,67.25,0.25,29,138.0
606,F4,67.5,0.5,45,138.0
607,F1,67.75,0.25,24,138.0
608,F6,68.0,0.5,52,138.0
609,F3,68.25,0.25,28,138.0
610,F4,68.5,0.5,41,138.0
611,F1,68.75,0.25,21,138.0
612,F6,69.0,0.5,48,138.0
613,F3,69.25,0.25,21,138.0
614,B-1,69.75,0.25,77,138.0
615,D4,70.0,0.75,72,138.0
616,F3,70.0,0.75,72,138.0
617,B-3,70.0,0.75,72,138.0
618,B-5,70.75,0.25,81,138.0
619,D6,70.75,0.25,81,138.0
620,D5,70.75,0.25,81,138.0
621,F5,70.75,0.25,81,138.0
622,D4,70.75,0.25,65,138.0
623,B-3,70.75,0.25,65,138.0
624,F3,70.75,0.25,65,138.0
625,D5,71.0,0.5,72,138.0
626,F5,71.0,0.5,72,138.0
627,D6,71.0,0.5,72,138.0
628,B-5,71.0,0.5,72,138.0
629,F3,71.0,0.5,72,138.0
630,B-3,71.0,0.5,72,138.0
631,D4,71.0,0.5,72,138.0
632,D5,71.5,0.094,75,138.0
633,B-5,71.5,0.094,75,138.0
634,F5,71.5,0.094,75,138.0
635,E-6,71.5,0.094,75,138.0
636,F3,71.5,0.094,70,138.0
637,D4,71.5,0.094,70,138.0
638,B-3,71.5,0.094,70,138.0
639,F5,71.75,0.094,75,138.0
640,D5,71.75,0.094,75,138.0
641,D6,71.75,0.094,75,138.0
642,B-5,71.75,0.094,75,138.0
643,F3,71.75,0.094,72,138.0
644,D4,71.75,0.094,72,138.0
645,B-3,71.75,0.094,72,138.0
646,D6,72.0,0.25,81,138.0
647,B-5,72.0,0.25,81,138.0
648,F5,72.0,0.25,81,138.0
649,D5,72.0,0.25,81,138.0
650,F3,72.0,0.25,72,138.0
651,D4,72.0,0.25,72,138.0
652,B-3,72.0,0.25,72,138.0
653,B-4,72.5,0.25,74,138.0
654,B-5,72.5,0.25,74,138.0
655,F5,72.5,0.25,74,138.0
656,D5,72.5,0.25,74,138.0
657,D3,72.5,0.25,72,138.0
658,B-3,72.5,0.25,72,138.0
659,F3,72.5,0.25,72,138.0
660,B-1,73.75,0.25,84,138.0
661,D4,74.0,0.75,71,138.0
662,D3,74.0,0.75,71,138.0
663,B-3,74.0,0.75,71,138.0
664,F3,74.0,0.75,71,138.0
665,B-5,74.75,0.25,81,138.0
666,F5,74.75,0.25,81,138.0
667,D6,74.75,0.25,81,138.0
668,D5,74.75,0.25,81,138.0
669,B-3,74.75,0.25,64,138.0
670,D3,74.75,0.25,64,138.0
671,F3,74.75,0.25,64,138.0
672,D4,74.75,0.25,64,138.0
673,D5,75.0,0.5,90,138.0
674,D6,75.0,0.5,90,138.0
675,D4,75.0,0.5,89,138.0
676,D3,75.0,0.5,89,138.0
677,F#5,75.5,0.094,74,138.0
678,D5,75.5,0.094,74,138.0
679,A5,75.5,0.094,74,138.0
680,D6,75.5,0.094,74,138.0
681,A3,75.5,0.094,69,138.0
682,D4,75.5,0.094,69,138.0
683,D3,75.5,0.094,69,138.0
684,F#3,75.5,0.094,69,138.0
685,D6,75.75,0.094,75,138.0
686,F#5,75.75,0.094,75,138.0
687,D5,75.75,0.094,75,138.0
688,A5,75.75,0.094,75,138.0
689,D4,75.75,0.094,71,138.0
690,F#3,75.75,0.094,71,138.0
691,A3,75.75,0.094,71,138.0
692,D3,75.75,0.094,71,138.0
693,A5,76.0,0.25,81,138.0
694,D5,76.0,0.25,81,138.0
695,D6,76.0,0.25,81,138.0
696,F#5,76.0,0.25,81,138.0
697,A3,76.0,0.25,71,138.0
698,F#3,76.0,0.25,71,138.0
699,D4,76.0,0.25,71,138.0
700,D3,76.0,0.25,71,138.0
701,A5,76.5,0.25,74,138.0
702,F#5,76.5,0.25,74,138.0
703,D5,76.5,0.25,74,138.0
704,D6,76.5,0.25,74,138.0
705,A3,76.5,0.25,71,138.0
706,D3,76.5,0.25,71,138.0
707,F#3,76.5,0.25,71,138.0
708,D4,76.5,0.25,71,138.0
709,D3,77.75,0.25,39,138.0
710,D4,78.0,0.75,45,138.0
711,F#4,78.5,0.25,35,138.0
712,D5,78.5,0.25,35,138.0
713,A4,78.5,0.25,35,138.0
714,D3,78.75,0.25,40,138.0
715,D4,79.0,0.75,47,138.0
716,D5,79.5,0.25,37,138.0
717,A4,79.5,0.25,37,138.0
718,F#4,79.5,0.25,37,138.0
719,D3,79.75,0.25,42,138.0
720,D4,80.0,0.75,49,138.0
721,A4,80.5,0.25,39,138.0
722,D5,80.5,0.25,39,138.0
723,F#4,80.5,0.25,39,138.0
724,D3,80.75,0.25,41,138.0
725,D4,81.0,0.75,52,138.0
726,F#4,81.5,0.25,41,138.0
727,A4,81.5,0.25,41,138.0
728,D5,81.5,0.25,41,138.0
729,D3,81.75,0.25,44,138.0
730,A3,82.0,0.75,55,138.0
731,C4,82.0,0.75,55,138.0
732,D5,82.5,0.25,43,138.0
733,C5,82.5,0.25,43,138.0
734,F#5,82.5,0.25,43,138.0
735,A4,82.5,0.25,43,138.0
736,D3,82.75,0.25,46,138.0
737,C4,83.0,0.75,58,138.0
738,A3,83.0,0.75,58,138.0
739,A4,83.5,0.25,45,138.0
740,D5,83.5,0.25,45,138.0
741,F#5,83.5,0.25,45,138.0
742,C5,83.5,0.25,45,138.0
743,D3,83.75,0.25,50,138.0
744,A3,84.0,0.75,60,138.0
745,F#3,84.0,0.75,60,138.0
746,A5,84.5,0.25,52,138.0
747,F#5,84.5,0.25,52,138.0
748,C5,84.5,0.25,52,138.0
749,A4,84.5,0.25,52,138.0
750,D3,84.75,0.25,52,138.0
751,A2,85.0,0.75,63,138.0
752,C6,85.5,0.25,60,138.0
753,F#5,85.5,0.25,60,138.0
754,C5,85.5,0.25,60,138.0
755,A5,85.5,0.25,60,138.0
756,D3,85.75,0.25,52,138.0
757,A2,86.0,0.75,65,138.0
758,F#5,86.5,0.25,67,138.0
759,C6,86.5,0.25,67,138.0
760,F#6,86.5,0.25,67,138.0
761,A5,86.5,0.25,67,138.0
762,D3,86.75,0.25,57,138.0
763,G2,87.0,0.75,68,138.0
764,A6,87.5,0.25,70,138.0
765,C6,87.5,0.25,70,138.0
766,A5,87.5,0.25,70,138.0
767,D3,87.75,0.25,57,138.0
768,F#2,88.0,0.75,71,138.0
769,C6,88.5,0.25,73,138.0
770,A6,88.5,0.25,73,138.0
771,C7,88.5,0.25,73,138.0
772,D3,88.75,0.25,59,138.0
773,E-2,89.0,0.75,73,138.0
774,C7,89.5,0.25,74,138.0
775,F#6,89.5,0.25,74,138.0
776,C6,89.5,0.25,74,138.0
777,A6,89.5,0.25,74,138.0
778,D3,89.75,0.25,67,138.0
779,A6,90.0,0.25,74,138.0
780,C7,90.0,0.25,74,138.0
781,C6,90.0,0.25,74,138.0
782,F#6,90.0,0.25,74,138.0
783,D2,90.0,0.5,70,138.0
784,D3,90.0,0.5,70,138.0
785,E-5,90.5,0.25,48,138.0
786,C6,90.5,0.25,57,138.0
787,A5,90.5,0.25,57,138.0
788,D5,90.75,0.25,48,138.0
789,B5,90.75,0.25,57,138.0
790,G#5,90.75,0.25,57,138.0
791,E-5,91.0,0.5,54,138.0
792,C6,91.0,0.5,63,138.0
793,A5,91.0,0.5,63,138.0
794,D5,91.5,0.25,44,138.0
795,F#4,91.5,0.25,52,138.0
796,A4,91.5,0.25,52,138.0
797,C#5,91.75,0.25,44,138.0
798,B-4,91.75,0.25,52,138.0
799,G4,91.75,0.25,52,138.0
800,D5,92.0,0.5,44,138.0
801,A4,92.0,0.5,58,138.0
802,F#4,92.0,0.5,58,138.0
803,E-4,92.5,0.25,43,138.0
804,A5,92.5,0.25,47,138.0
805,C6,92.5,0.25,47,138.0
806,D4,92.75,0.25,43,138.0
807,B5,92.75,0.25,47,138.0
808,G#5,92.75,0.25,47,138.0
809,E-4,93.0,0.5,51,138.0
810,C6,93.0,0.5,56,138.0
811,A5,93.0,0.5,56,138.0
812,F#6,93.5,0.25,47,138.0
813,D4,93.5,0.25,43,138.0
814,A6,93.75,0.25,47,138.0
815,C#4,93.75,0.25,43,138.0
816,C7,94.0,0.25,57,138.0
817,D4,94.0,0.5,51,138.0
818,D7,94.25,0.25,48,138.0
819,C7,94.5,0.25,49,138.0
820,B6,94.75,0.25,50,138.0
821,D3,94.75,0.25,42,138.0
822,C7,95.0,0.25,65,138.0
823,F#3,95.0,0.5,51,138.0
824,D7,95.25,0.25,57,138.0
825,E7,95.5,0.25,66,138.0
826,C7,95.75,0.25,58,138.0
827,A3,95.75,0.25,40,138.0
828,A6,96.0,0.25,69,138.0
829,C4,96.0,0.5,51,138.0
830,B6,96.25,0.25,56,138.0
831,C7,96.5,0.25,66,138.0
832,A6,96.75,0.25,54,138.0
833,F#4,96.75,0.25,43,138.0
834,F#6,97.0,0.25,66,138.0
835,A4,97.0,0.5,51,138.0
836,G6,97.25,0.25,53,138.0
837,A6,97.5,0.25,61,138.0
838,C5,97.5,0.25,45,138.0
839,F#6,97.75,0.25,53,138.0
840,A4,97.75,0.25,45,138.0
841,C6,98.0,0.25,47,138.0
842,A5,98.0,0.25,40,138.0
843,D6,98.25,0.25,47,138.0
844,B5,98.25,0.25,40,138.0
845,E6,98.5,0.25,58,138.0
846,C6,98.5,0.25,44,138.0
847,C6,98.75,0.25,47,138.0
848,A5,98.75,0.25,40,138.0
849,A5,99.0,0.25,47,138.0
850,C5,99.0,0.25,40,138.0
851,B5,99.25,0.25,47,138.0
852,D5,99.25,0.25,40,138.0
853,C6,99.5,0.25,53,138.0
854,E5,99.5,0.25,45,138.0
855,A5,99.75,0.25,47,138.0
856,C5,99.75,0.25,40,138.0
857,F#5,100.0,0.25,47,138.0
858,A4,100.0,0.25,40,138.0
859,G5,100.25,0.25,47,138.0
860,B4,100.25,0.25,40,138.0
861,A5,100.5,0.25,52,138.0
862,C5,100.5,0.25,45,138.0
863,F#5,100.75,0.25,47,138.0
864,A4,100.75,123/500,40,138.0
865,F#4,101.0,0.25,40,138.0
866,D5,101.0,0.5,47,138.0
867,C5,101.0,0.5,47,138.0
868,A4,101.0,0.5,47,138.0
869,G4,101.25,0.25,40,138.0
870,A4,101.5,0.25,45,138.0
871,F#4,101.75,0.25,40,138.0
872,B6,102.0,0.25,57,138.0
873,B4,102.0,0.5,49,138.0
874,D4,102.0,0.5,49,138.0
875,G4,102.0,0.5,49,138.0
876,C7,102.25,0.25,48,138.0
877,B6,102.5,0.25,49,138.0
878,A6,102.75,0.25,50,138.0
879,D3,102.75,0.25,42,138.0
880,B6,103.0,0.25,65,138.0
881,G3,103.0,0.5,51,138.0
882,C7,103.25,0.25,57,138.0
883,D7,103.5,0.25,66,138.0
884,B6,103.75,0.25,58,138.0
885,B3,103.75,0.25,40,138.0
886,G6,104.0,0.25,69,138.0
887,D4,104.0,0.5,51,138.0
888,A6,104.25,0.25,56,138.0
889,B6,104.5,0.25,66,138.0
890,G6,104.75,0.25,54,138.0
891,G4,104.75,0.25,43,138.0
892,D6,105.0,0.25,66,138.0
893,B4,105.0,0.5,51,138.0
894,F#6,105.25,0.25,53,138.0
895,G6,105.5,0.25,61,138.0
896,D6,105.75,0.25,53,138.0
897,D5,105.75,0.25,45,138.0
898,B5,106.0,0.25,47,138.0
899,G5,106.0,0.25,40,138.0
900,C6,106.25,0.25,47,138.0
901,A5,106.25,0.25,40,138.0
902,D6,106.5,0.25,58,138.0
903,B5,106.5,0.25,44,138.0
904,B5,106.75,0.25,47,138.0
905,G5,106.75,123/500,40,138.0
906,G5,107.0,0.25,47,138.0
907,B4,107.0,0.25,40,138.0
908,A5,107.25,0.25,47,138.0
909,C5,107.25,0.25,40,138.0
910,B5,107.5,0.25,53,138.0
911,D5,107.5,0.25,45,138.0
912,G5,107.75,0.25,47,138.0
913,B4,107.75,0.25,40,138.0
914,D5,108.0,0.25,47,138.0
915,G4,108.0,0.25,40,138.0
916,F#5,108.25,0.25,47,138.0
917,A4,108.25,0.25,40,138.0
918,G5,108.5,0.25,52,138.0
919,B4,108.5,123/500,45,138.0
920,B4,108.75,123/500,47,138.0
921,G4,108.75,123/500,40,138.0
922,G4,109.0,0.25,40,138.0
923,B4,109.0,0.25,40,138.0
924,A4,109.25,0.25,40,138.0
925,C5,109.25,0.25,40,138.0
926,B4,109.5,123/500,45,138.0
927,D5,109.5,0.25,45,138.0
928,G4,109.75,0.25,40,138.0
929,B4,109.75,0.25,40,138.0
930,C5,110.0,0.25,40,138.0
931,D4,110.0,0.5,42,138.0
932,A4,110.0,0.5,42,138.0
933,F#4,110.0,0.5,42,138.0
934,D5,110.25,0.25,40,138.0
935,E6,110.5,0.25,52,138.0
936,C5,110.5,0.25,45,138.0
937,D6,110.75,0.25,47,138.0
938,B4,110.75,0.25,40,138.0
939,E6,111.0,0.25,40,138.0
940,C5,111.0,0.25,40,138.0
941,D6,111.25,0.25,40,138.0
942,D5,111.25,0.25,40,138.0
943,C6,111.5,0.25,45,138.0
944,E5,111.5,0.25,45,138.0
945,E6,111.75,0.25,40,138.0
946,C5,111.75,0.25,40,138.0
947,C6,112.0,0.25,52,138.0
948,A4,112.0,0.25,46,138.0
949,B5,112.25,0.25,42,138.0
950,B4,112.25,0.25,38,138.0
951,A5,112.5,0.25,49,138.0
952,C5,112.5,0.25,45,138.0
953,C6,112.75,0.25,43,138.0
954,A4,112.75,0.25,40,138.0
955,A5,113.0,0.25,48,138.0
956,F#4,113.0,0.25,45,138.0
957,G5,113.25,0.25,40,138.0
958,G4,113.25,0.25,36,138.0
959,F#5,113.5,0.25,45,138.0
960,A4,113.5,0.25,41,138.0
961,A5,113.75,0.25,40,138.0
962,F#4,113.75,0.25,36,138.0
963,E5,114.0,0.25,52,138.0
964,C4,114.0,0.25,46,138.0
965,D5,114.25,0.25,42,138.0
966,D4,114.25,0.25,38,138.0
967,C5,114.5,0.25,49,138.0
968,E4,114.5,0.25,45,138.0
969,E5,114.75,0.25,43,138.0
970,C4,114.75,0.25,40,138.0
971,C5,115.0,0.25,48,138.0
972,A3,115.0,0.25,45,138.0
973,B4,115.25,0.25,40,138.0
974,B3,115.25,0.25,36,138.0
975,A4,115.5,0.25,45,138.0
976,C4,115.5,0.25,41,138.0
977,C5,115.75,0.25,40,138.0
978,A3,115.75,0.25,36,138.0
979,A4,116.0,0.25,52,138.0
980,F#3,116.0,0.25,46,138.0
981,G4,116.25,0.25,42,138.0
982,G3,116.25,0.25,38,138.0
983,F#4,116.5,0.25,49,138.0
984,A3,116.5,0.25,45,138.0
985,A4,116.75,0.25,43,138.0
986,F#3,116.75,0.25,40,138.0
987,C5,117.0,0.25,48,138.0
988,A4,117.0,0.25,45,138.0
989,B4,117.25,0.25,40,138.0
990,G4,117.25,0.25,36,138.0
991,A4,117.5,0.25,45,138.0
992,F#4,117.5,0.25,41,138.0
993,C5,117.75,0.25,40,138.0
994,A4,117.75,0.25,36,138.0
995,B4,118.0,0.25,40,138.0
996,D4,118.0,0.5,43,138.0
997,G4,118.0,0.5,43,138.0
998,C5,118.25,0.25,40,138.0
999,D7,118.5,0.25,52,138.0
1000,B4,118.5,0.25,45,138.0
1001,C7,118.75,0.25,47,138.0
1002,A4,118.75,0.25,40,138.0
1003,D7,119.0,0.25,40,138.0
1004,B4,119.0,0.25,40,138.0
1005,C7,119.25,0.25,40,138.0
1006,C5,119.25,0.25,40,138.0
1007,B6,119.5,0.25,45,138.0
1008,D5,119.5,0.25,45,138.0
1009,D7,119.75,0.25,40,138.0
1010,B4,119.75,0.25,40,138.0
1011,B6,120.0,0.25,52,138.0
1012,G4,120.0,0.25,46,138.0
1013,A6,120.25,0.25,42,138.0
1014,A4,120.25,0.25,38,138.0
1015,G6,120.5,0.25,49,138.0
1016,B4,120.5,0.25,45,138.0
1017,B6,120.75,0.25,43,138.0
1018,G4,120.75,0.25,40,138.0
1019,B5,121.0,0.25,48,138.0
1020,D4,121.0,0.25,45,138.0
1021,A5,121.25,0.25,40,138.0
1022,F#4,121.25,0.25,36,138.0
1023,G5,121.5,0.25,45,138.0
1024,G4,121.5,0.25,41,138.0
1025,B5,121.75,0.25,40,138.0
1026,D4,121.75,0.25,36,138.0
1027,D5,122.0,0.25,52,138.0
1028,B3,122.0,0.25,46,138.0
1029,C5,122.25,0.25,42,138.0
1030,C4,122.25,0.25,38,138.0
1031,B4,122.5,0.25,49,138.0
1032,D4,122.5,0.25,45,138.0
1033,D5,122.75,0.25,43,138.0
1034,B3,122.75,0.25,40,138.0
1035,B5,123.0,0.25,48,138.0
1036,G3,123.0,0.25,45,138.0
1037,A5,123.25,0.25,40,138.0
1038,A3,123.25,0.25,36,138.0
1039,G5,123.5,0.25,45,138.0
1040,B3,123.5,0.25,41,138.0
1041,B5,123.75,0.25,40,138.0
1042,G3,123.75,0.25,36,138.0
1043,D6,124.0,0.25,62,138.0
1044,D3,124.0,0.25,46,138.0
1045,C6,124.25,0.25,51,138.0
1046,F#3,124.25,0.25,38,138.0
1047,B5,124.5,0.25,61,138.0
1048,G3,124.5,0.25,45,138.0
1049,C6,124.75,0.25,52,138.0
1050,D3,124.75,0.25,40,138.0
1051,E6,125.0,0.5,62,138.0
1052,C3,125.0,0.25,45,138.0
1053,G3,125.25,0.25,36,138.0
1054,D3,125.5,0.25,41,138.0
1055,F#6,125.5,0.5,51,138.0
1056,A5,125.5,0.5,51,138.0
1057,D6,125.5,0.5,51,138.0
1058,C3,125.75,0.25,36,138.0
1059,B2,126.0,0.5,36,138.0
1060,G6,126.0,0.5,51,138.0
1061,G5,126.0,0.5,51,138.0
1062,D6,126.0,0.5,51,138.0
1063,G2,126.5,0.5,37,138.0
1064,G3,126.5,0.5,37,138.0
1065,E3,127.0,0.25,33,138.0
1066,C3,127.0,0.25,33,138.0
1067,C4,127.5,0.25,40,138.0
1068,A3,127.75,0.25,36,138.0
1069,F#3,128.0,0.5,36,138.0
1070,A4,128.5,0.5,37,138.0
1071,F#4,128.5,0.5,37,138.0
1072,D3,128.5,0.5,34,138.0
1073,D4,128.5,0.5,34,138.0
1074,G4,129.0,0.25,35,138.0
1075,B4,129.0,0.25,35,138.0
1076,B3,129.0,0.25,33,138.0
1077,G3,129.0,0.25,33,138.0
1078,G6,129.5,0.25,43,138.0
1079,B5,129.5,0.25,43,138.0
1080,E4,129.5,0.5,33,138.0
1081,G3,129.5,0.5,33,138.0
1082,F#6,129.75,0.25,40,138.0
1083,A5,129.75,0.25,40,138.0
1084,G6,130.0,0.5,43,138.0
1085,B5,130.0,0.5,43,138.0
1086,E4,130.0,0.5,33,138.0
1087,G3,130.0,0.5,33,138.0
1088,B5,130.5,0.5,35,138.0
1089,G5,130.5,0.5,35,138.0
1090,E6,130.5,0.5,35,138.0
1091,G3,130.5,0.5,33,138.0
1092,E4,130.5,0.5,33,138.0
1093,D6,131.0,0.5,37,138.0
1094,A5,131.0,0.5,37,138.0
1095,F#5,131.0,0.5,37,138.0
1096,F#4,131.0,0.5,37,138.0
1097,A3,131.0,0.5,37,138.0
1098,A3,131.5,0.5,25,138.0
1099,G4,131.5,0.25,30,138.0
1100,C#6,131.5,0.5,33,138.0
1101,G5,131.5,0.5,33,138.0
1102,E5,131.5,0.5,33,138.0
1103,A4,131.75,0.25,36,138.0
1104,A4,132.0,0.5,36,138.0
1105,D4,132.0,1.5,30,138.0
1106,G5,132.0,0.5,42,138.0
1107,E6,132.0,0.5,42,138.0
1108,B4,132.5,0.375,36,138.0
1109,F#5,132.5,62/125,33,138.0
1110,D6,132.5,62/125,33,138.0
1111,C#5,132.875,0.125,31,138.0
1112,D5,133.0,0.5,36,138.0
1113,D6,133.0,0.5,33,138.0
1114,F#5,133.0,0.5,33,138.0
1115,E5,133.5,0.25,37,138.0
1116,G5,133.5,0.25,42,138.0
1117,D6,133.5,0.25,42,138.0
1118,F#5,133.75,0.25,36,138.0
1119,C6,133.75,0.25,37,138.0
1120,A5,133.75,0.25,37,138.0
1121,B5,134.0,0.5,46,138.0
1122,G5,134.0,0.5,36,138.0
1123,G5,134.5,0.75,43,138.0
1124,G6,134.5,0.25,51,138.0
1125,D5,134.5,0.5,33,138.0
1126,B4,134.5,0.5,33,138.0
1127,E6,135.0,0.25,46,138.0
1128,C5,135.0,0.25,33,138.0
1129,E5,135.0,0.25,33,138.0
1130,A4,135.5,0.25,36,138.0
1131,C7,135.5,0.25,47,138.0
1132,C6,135.5,0.25,47,138.0
1133,C5,135.75,0.25,32,138.0
1134,A6,135.75,0.25,40,138.0
1135,E6,135.75,0.25,40,138.0
1136,F#6,136.0,0.5,51,138.0
1137,D5,136.0,0.5,36,138.0
1138,D6,136.5,0.75,47,138.0
1139,D7,136.5,0.5,56,138.0
1140,F#4,136.5,0.5,33,138.0
1141,A4,136.5,0.5,33,138.0
1142,B6,137.0,0.25,53,138.0
1143,G4,137.0,0.25,34,138.0
1144,B4,137.0,0.25,34,138.0
1145,G6,137.5,0.25,52,138.0
1146,F#6,137.75,0.25,45,138.0
1147,G6,138.0,0.5,52,138.0
1148,G4,138.0,0.5,32,138.0
1149,E4,138.0,0.5,32,138.0
1150,B4,138.0,0.5,32,138.0
1151,E6,138.5,0.5,47,138.0
1152,C5,138.5,0.5,32,138.0
1153,G4,138.5,0.5,32,138.0
1154,E4,138.5,0.5,32,138.0
1155,C6,139.0,0.5,51,138.0
1156,G4,139.0,0.25,36,138.0
1157,E4,139.0,0.5,33,138.0
1158,C5,139.0,0.5,33,138.0
1159,A4,139.25,0.25,30,138.0
1160,F#5,139.5,0.5,40,138.0
1161,B5,139.5,0.5,40,138.0
1162,F#4,139.5,0.5,32,138.0
1163,E-4,139.5,0.5,32,138.0
1164,B4,139.5,0.5,32,138.0
1165,B5,140.0,1.5,44,138.0
1166,F#5,140.0,0.5,44,138.0
1167,B4,140.0,0.5,32,138.0
1168,F#4,140.0,0.5,32,138.0
1169,E-4,140.0,0.5,32,138.0
1170,A5,140.5,0.25,50,138.0
1171,E-4,140.5,0.5,28,138.0
1172,B3,140.5,0.5,28,138.0
1173,G5,140.75,123/500,44,138.0
1174,G5,141.0,0.5,49,138.0
1175,E4,141.0,0.5,33,138.0
1176,G4,141.0,0.5,33,138.0
1177,G5,141.5,0.5,46,138.0
1178,E6,141.5,0.5,50,138.0
1179,B-5,141.5,0.5,50,138.0
1180,D4,141.5,0.25,37,138.0
1181,F4,141.5,0.25,37,138.0
1182,E4,141.75,0.25,33,138.0
1183,C#4,141.75,0.25,33,138.0
1184,A5,142.0,1.5,44,138.0
1185,G5,142.0,0.5,46,138.0
1186,C#4,142.0,0.5,33,138.0
1187,E4,142.0,0.5,33,138.0
1188,G5,142.5,0.25,50,138.0
1189,A3,142.5,0.5,28,138.0
1190,C#4,142.5,0.5,28,138.0
1191,F5,142.75,0.25,44,138.0
1192,F5,143.0,0.5,49,138.0
1193,D4,143.0,0.5,33,138.0
1194,F4,143.0,0.5,33,138.0
1195,F5,143.5,0.5,55,138.0
1196,G#5,143.5,0.5,55,138.0
1197,D6,143.5,0.5,55,138.0
1198,E-4,143.5,0.25,37,138.0
1199,C4,143.5,0.25,37,138.0
1200,D4,143.75,31/125,33,138.0
1201,B3,143.75,31/125,33,138.0
1202,G5,144.0,1.5,44,138.0
1203,F5,144.0,0.5,55,138.0
1204,B3,144.0,0.5,33,138.0
1205,D4,144.0,0.5,33,138.0
1206,F5,144.5,0.25,50,138.0
1207,B3,144.5,0.5,28,138.0
1208,G3,144.5,0.5,28,138.0
1209,E5,144.75,123/500,44,138.0
1210,E5,145.0,0.5,49,138.0
1211,C4,145.0,0.5,33,138.0
1212,E4,145.0,0.5,33,138.0
1213,E5,145.5,0.5,46,138.0
1214,C#6,145.5,0.5,50,138.0
1215,G5,145.5,0.5,50,138.0
1216,E-4,145.5,0.25,37,138.0
1217,B3,145.5,0.25,37,138.0
1218,B-3,145.75,31/125,33,138.0
1219,C#4,145.75,31/125,33,138.0
1220,F#5,146.0,1.5,44,138.0
1221,E5,146.0,0.5,46,138.0
1222,B-3,146.0,0.5,33,138.0
1223,C#4,146.0,0.5,33,138.0
1224,E5,146.5,0.25,50,138.0
1225,B-3,146.5,0.5,28,138.0
1226,F#3,146.5,0.5,28,138.0
1227,E-5,146.75,0.25,44,138.0
1228,D5,147.0,0.5,49,138.0
1229,D4,147.0,0.5,33,138.0
1230,B3,147.0,0.5,33,138.0
1231,F5,147.5,0.5,49,138.0
1232,D5,147.5,0.5,49,138.0
1233,B5,147.5,0.5,49,138.0
1234,C#4,147.5,0.25,37,138.0
1235,A3,147.5,0.25,37,138.0
1236,B3,147.75,0.25,33,138.0
1237,G#3,147.75,0.25,33,138.0
1238,D5,148.0,0.5,46,138.0
1239,F5,148.0,0.25,55,138.0
1240,B3,148.0,0.5,33,138.0
1241,G#3,148.0,0.5,33,138.0
1242,E5,148.25,0.5,46,138.0
1243,C#5,148.5,0.5,46,138.0
1244,A3,148.5,0.25,36,138.0
1245,E4,148.5,0.5,30,138.0
1246,A5,148.75,0.25,48,138.0
1247,G3,148.75,0.25,30,138.0
1248,C5,149.0,0.5,46,138.0
1249,E-5,149.0,0.25,55,138.0
1250,F#3,149.0,0.5,33,138.0
1251,A3,149.0,0.5,33,138.0
1252,D5,149.25,0.5,47,138.0
1253,B4,149.5,0.5,46,138.0
1254,G3,149.5,0.25,36,138.0
1255,B3,149.5,0.5,30,138.0
1256,G5,149.75,0.25,49,138.0
1257,B2,149.75,0.25,32,138.0
1258,D5,150.0,0.25,56,138.0
1259,D3,150.0,2.0,27,138.0
1260,C4,150.0,2.0,27,138.0
1261,A2,150.0,2.0,27,138.0
1262,D6,150.25,0.25,44,138.0
1263,C#6,150.5,0.25,45,138.0
1264,C6,150.75,0.25,46,138.0
1265,A5,151.0,0.25,47,138.0
1266,F#5,151.25,0.25,47,138.0
1267,E-5,151.5,0.25,48,138.0
1268,D5,151.75,0.25,49,138.0
1269,C#5,152.0,0.25,50,138.0
1270,C5,152.25,0.25,51,138.0
1271,A4,152.5,0.25,52,138.0
1272,F#4,152.75,0.25,53,138.0
1273,E-4,153.0,0.25,61,138.0
1274,G4,153.0,0.5,51,138.0
1275,D3,153.0,1.0,27,138.0
1276,C4,153.0,1.0,27,138.0
1277,A2,153.0,1.0,27,138.0
1278,D4,153.25,0.25,47,138.0
1279,E5,153.5,0.25,58,138.0
1280,G4,153.5,0.5,49,138.0
1281,D5,153.75,0.25,47,138.0
1282,D5,154.0,0.25,56,138.0
1283,B3,154.0,1.0,27,138.0
1284,B2,154.0,1.0,27,138.0
1285,D3,154.0,1.0,27,138.0
1286,D6,154.25,0.25,44,138.0
1287,C#6,154.5,0.25,45,138.0
1288,C6,154.75,0.25,46,138.0
1289,A5,155.0,0.25,47,138.0
1290,A2,155.0,2.0,27,138.0
1291,C4,155.0,2.0,27,138.0
1292,D3,155.0,2.0,27,138.0
1293,F#5,155.25,0.25,47,138.0
1294,E-5,155.5,0.25,48,138.0
1295,D5,155.75,0.25,49,138.0
1296,C#5,156.0,0.25,50,138.0
1297,C5,156.25,0.25,51,138.0
1298,A4,156.5,0.25,52,138.0
1299,F#4,156.75,0.25,53,138.0
1300,G4,157.0,0.5,51,138.0
1301,E-4,157.0,0.25,61,138.0
1302,D4,157.25,0.25,47,138.0
1303,E5,157.5,0.25,58,138.0
1304,G4,157.5,0.5,49,138.0
1305,D5,157.75,0.25,47,138.0
1306,D5,158.0,0.25,52,138.0
1307,A2,158.0,1.0,27,138.0
1308,C4,158.0,1.0,27,138.0
1309,D3,158.0,1.0,27,138.0
1310,B4,158.25,0.25,50,138.0
1311,G5,158.25,0.25,50,138.0
1312,B5,158.5,0.25,54,138.0
1313,D5,158.5,0.25,54,138.0
1314,C5,158.75,0.25,48,138.0
1315,A5,158.75,0.25,48,138.0
1316,B4,159.0,0.25,58,138.0
1317,G5,159.0,1.0,58,138.0
1318,B2,159.0,1.0,27,138.0
1319,D3,159.0,1.0,27,138.0
1320,B3,159.0,1.0,27,138.0
1321,E-5,159.25,0.25,50,138.0
1322,E5,159.5,0.25,55,138.0
1323,B4,159.75,0.25,50,138.0
1324,B-4,160.0,0.25,54,138.0
1325,G5,160.0,1.0,58,138.0
1326,B2,160.0,1.0,28,138.0
1327,B1,160.0,1.0,28,138.0
1328,E-5,160.25,0.25,58,138.0
1329,E5,160.5,0.25,58,138.0
1330,B-4,160.75,0.25,53,138.0
1331,A4,161.0,0.25,56,138.0
1332,E2,161.0,1.0,26,138.0
1333,E3,161.0,1.0,26,138.0
1334,C#5,161.25,0.25,50,138.0
1335,D5,161.5,0.25,60,138.0
1336,D6,161.75,0.25,54,138.0
1337,D6,162.0,0.25,61,138.0
1338,C#3,162.0,1.0,28,138.0
1339,C#2,162.0,1.0,28,138.0
1340,D7,162.25,0.25,48,138.0
1341,C#7,162.5,0.25,49,138.0
1342,C7,162.75,0.25,50,138.0
1343,A6,163.0,0.25,51,138.0
1344,D3,163.0,0.5,26,138.0
1345,D2,163.0,0.5,26,138.0
1346,F#6,163.25,0.25,51,138.0
1347,E-6,163.5,0.25,52,138.0
1348,D6,163.75,0.25,53,138.0
1349,C#6,164.0,0.25,55,138.0
1350,A3,164.0,2.0,27,138.0
1351,C5,164.0,2.0,27,138.0
1352,D4,164.0,2.0,27,138.0
1353,C6,164.25,0.25,60,138.0
1354,A5,164.5,0.25,64,138.0
1355,F#5,164.75,0.25,67,138.0
1356,E-5,165.0,0.25,72,138.0
1357,G5,165.0,0.5,60,138.0
1358,D5,165.25,0.25,51,138.0
1359,G5,165.5,0.5,53,138.0
1360,E6,165.5,0.25,63,138.0
1361,D6,165.75,0.25,51,138.0
1362,D6,166.0,0.25,61,138.0
1363,D7,166.25,0.25,48,138.0
1364,C#7,166.5,0.25,49,138.0
1365,C7,166.75,0.25,50,138.0
1366,A6,167.0,0.25,51,138.0
1367,A3,167.0,1.0,27,138.0
1368,C5,167.0,1.0,27,138.0
1369,D4,167.0,1.0,27,138.0
1370,F#6,167.25,0.25,51,138.0
1371,E-6,167.5,0.25,52,138.0
1372,D6,167.75,0.25,53,138.0
1373,C#6,168.0,0.25,57,138.0
1374,B4,168.0,1.0,27,138.0
1375,B3,168.0,1.0,27,138.0
1376,D4,168.0,1.0,27,138.0
1377,C6,168.25,0.25,59,138.0
1378,A5,168.5,0.25,61,138.0
1379,F#5,168.75,0.25,63,138.0
1380,G5,169.0,0.5,54,138.0
1381,E-5,169.0,0.25,67,138.0
1382,C4,169.0,2.0,27,138.0
1383,A2,169.0,2.0,27,138.0
1384,D3,169.0,2.0,27,138.0
1385,D5,169.25,0.25,51,138.0
1386,G5,169.5,0.5,53,138.0
1387,E6,169.5,0.25,63,138.0
1388,D6,169.75,0.25,51,138.0
1389,D6,170.0,0.25,56,138.0
1390,G5,170.25,0.25,50,138.0
1391,B4,170.25,0.25,50,138.0
1392,D5,170.5,0.25,54,138.0
1393,B5,170.5,0.25,54,138.0
1394,A5,170.75,0.25,48,138.0
1395,C5,170.75,0.25,48,138.0
1396,B4,171.0,0.25,58,138.0
1397,G5,171.0,1.0,58,138.0
1398,E-5,171.25,0.25,50,138.0
1399,E5,171.5,0.25,55,138.0
1400,B4,171.75,0.25,50,138.0
1401,B-4,172.0,0.25,54,138.0
1402,G5,172.0,1.0,58,138.0
1403,C4,172.0,1.0,27,138.0
1404,A2,172.0,1.0,27,138.0
1405,D3,172.0,1.0,27,138.0
1406,E-5,172.25,0.25,58,138.0
1407,E5,172.5,0.25,58,138.0
1408,B-4,172.75,0.25,53,138.0
1409,A4,173.0,0.25,56,138.0
1410,F#5,173.0,0.5,54,138.0
1411,B2,173.0,0.5,27,138.0
1412,B3,173.0,0.5,27,138.0
1413,D3,173.0,0.5,27,138.0
1414,D5,173.25,0.25,50,138.0
1415,G5,173.5,0.5,54,138.0
1416,G4,173.5,0.25,60,138.0
1417,B3,173.5,0.5,30,138.0
1418,C5,173.75,0.25,50,138.0
1419,G5,174.0,0.25,54,138.0
1420,B3,174.0,1.0,30,138.0
1421,E5,174.25,0.25,52,138.0
1422,C6,174.25,0.25,52,138.0
1423,E6,174.5,0.25,57,138.0
1424,G5,174.5,0.25,57,138.0
1425,F5,174.75,0.25,52,138.0
1426,D6,174.75,0.25,52,138.0
1427,E5,175.0,0.25,63,138.0
1428,C6,175.0,1.0,63,138.0
1429,E4,175.0,1.0,28,138.0
1430,G#5,175.25,0.25,55,138.0
1431,A5,175.5,0.25,61,138.0
1432,E-5,175.75,0.25,56,138.0
1433,E-5,176.0,0.25,61,138.0
1434,C6,176.0,1.0,63,138.0
1435,C#4,176.0,1.0,30,138.0
1436,G#5,176.25,0.25,66,138.0
1437,A5,176.5,0.25,66,138.0
1438,E-5,176.75,0.25,62,138.0
1439,D5,177.0,0.25,66,138.0
1440,B5,177.0,0.5,63,138.0
1441,D4,177.0,0.5,29,138.0
1442,G5,177.25,0.25,59,138.0
1443,C6,177.5,0.5,64,138.0
1444,C5,177.5,0.25,72,138.0
1445,E-4,177.5,0.5,29,138.0
1446,F5,177.75,0.25,60,138.0
1447,C6,178.0,0.25,63,138.0
1448,E4,178.0,1.0,31,138.0
1449,A5,178.25,0.25,60,138.0
1450,F6,178.25,0.25,60,138.0
1451,C6,178.5,0.25,66,138.0
1452,A6,178.5,0.25,66,138.0
1453,B-5,178.75,0.25,60,138.0
1454,G6,178.75,0.25,60,138.0
1455,F6,179.0,1.0,73,138.0
1456,G#5,179.0,0.25,73,138.0
1457,A4,179.0,1.0,30,138.0
1458,F5,179.25,0.25,63,138.0
1459,G#5,179.5,0.25,70,138.0
1460,G5,179.75,0.25,65,138.0
1461,G#5,180.0,0.25,70,138.0
1462,F6,180.0,1.0,73,138.0
1463,F#4,180.0,1.0,33,138.0
1464,C#6,180.25,0.25,71,138.0
1465,D6,180.5,0.25,77,138.0
1466,G#5,180.75,0.25,71,138.0
1467,G5,181.0,0.25,75,138.0
1468,E6,181.0,1.0,78,138.0
1469,G4,181.0,0.5,34,138.0
1470,B5,181.25,0.25,68,138.0
1471,C6,181.5,0.25,82,138.0
1472,G#4,181.5,0.5,34,138.0
1473,G5,181.75,0.25,69,138.0
1474,C6,182.0,0.5,74,138.0
1475,E6,182.0,0.5,78,138.0
1476,A4,182.0,1.0,36,138.0
1477,E5,182.5,0.5,82,138.0
1478,E6,182.5,0.5,82,138.0
1479,C6,182.5,0.5,82,138.0
1480,G5,182.5,0.5,82,138.0
1481,C#5,183.0,1.0,35,138.0
1482,B5,183.0,0.5,81,138.0
1483,D6,183.0,0.5,81,138.0
1484,C6,183.5,0.25,80,138.0
1485,E6,183.5,0.25,80,138.0
1486,F6,183.75,0.25,85,138.0
1487,D6,183.75,0.25,85,138.0
1488,B4,184.0,1.0,39,138.0
1489,E6,184.0,0.25,88,138.0
1490,G6,184.0,0.25,88,138.0
1491,C6,184.5,0.25,84,138.0
1492,E6,184.5,0.25,84,138.0
1493,C4,185.0,1.0,39,138.0
1494,C5,185.0,1.0,39,138.0
1495,G5,186.5,0.5,82,138.0
1496,E5,186.5,0.5,82,138.0
1497,E6,186.5,0.5,82,138.0
1498,C6,186.5,0.5,82,138.0
1499,C4,186.5,0.5,39,138.0
1500,C5,186.5,0.5,39,138.0
1501,D6,187.0,0.5,81,138.0
1502,B5,187.0,0.5,81,138.0
1503,C2,187.0,0.5,61,138.0
1504,C3,187.0,0.5,61,138.0
1505,E6,187.5,0.25,80,138.0
1506,C6,187.5,0.25,80,138.0
1507,D6,187.75,0.25,85,138.0
1508,F6,187.75,0.25,85,138.0
1509,E6,188.0,0.25,88,138.0
1510,G6,188.0,0.25,88,138.0
1511,E6,188.5,0.5,90,138.0
1512,G5,188.5,0.5,90,138.0
1513,A5,188.5,0.5,90,138.0
1514,G6,188.5,0.5,90,138.0
1515,E4,189.0,0.25,76,138.0
1516,C4,189.0,0.25,76,138.0
1517,E6,189.5,0.5,90,138.0
1518,C#6,189.5,0.5,90,138.0
1519,G6,189.5,0.5,90,138.0
1520,G5,189.5,0.5,90,138.0
1521,B3,189.5,0.5,73,138.0
1522,D4,189.5,0.5,73,138.0
1523,C4,190.0,0.25,74,138.0
1524,E4,190.0,0.25,74,138.0
1525,F4,190.25,0.25,78,138.0
1526,D4,190.25,0.25,78,138.0
1527,G6,190.5,0.5,90,138.0
1528,D6,190.5,0.5,90,138.0
1529,B5,190.5,0.5,90,138.0
1530,G5,190.5,0.5,90,138.0
1531,G4,190.5,0.25,81,138.0
1532,E4,190.5,0.25,81,138.0
1533,C3,191.0,0.5,61,138.0
1534,C2,191.0,0.5,61,138.0
1535,G5,191.5,0.5,90,138.0
1536,G6,191.5,0.5,90,138.0
1537,C#6,191.5,0.5,90,138.0
1538,A5,191.5,0.5,90,138.0
1539,G6,192.0,1.0,68,138.0
1540,B5,192.0,1.0,68,138.0
1541,D6,192.0,1.0,68,138.0
1542,G5,192.0,1.0,68,138.0
1543,G5,193.0,1.0,57,138.0
1544,D6,193.0,1.0,57,138.0
1545,B5,193.0,1.0,57,138.0
1546,C#2,193.0,0.5,68,138.0
1547,C#3,193.0,0.5,68,138.0
1548,A2,194.0,0.5,73,138.0
1549,A1,194.0,0.5,73,138.0
1550,G5,194.5,0.5,57,138.0
1551,D6,194.5,0.5,57,138.0
1552,B5,194.5,0.5,57,138.0
1553,D5,195.0,0.5,56,138.0
1554,B5,195.0,0.5,56,138.0
1555,G5,195.0,0.5,56,138.0
1556,D3,195.0,0.5,68,138.0
1557,D2,195.0,0.5,68,138.0
1558,D5,195.5,0.25,56,138.0
1559,F#5,195.75,0.25,57,138.0
1560,G5,196.0,0.25,58,138.0
1561,E3,196.0,0.5,73,138.0
1562,E2,196.0,0.5,73,138.0
1563,B5,196.25,0.25,59,138.0
1564,C#6,196.5,0.25,60,138.0
1565,D2,196.5,0.25,50,138.0
1566,D6,196.75,0.25,61,138.0
1567,F#2,196.75,0.25,50,138.0
1568,E6,197.0,0.25,62,138.0
1569,G2,197.0,0.25,50,138.0
1570,D6,197.25,0.25,62,138.0
1571,B2,197.25,0.25,50,138.0
1572,F#6,197.5,0.25,63,138.0
1573,D3,197.5,0.25,50,138.0
1574,G6,197.75,0.25,64,138.0
1575,F#3,197.75,0.25,50,138.0
1576,A6,198.0,0.25,65,138.0
1577,G3,198.0,0.25,50,138.0
1578,G6,198.25,0.25,66,138.0
1579,B3,198.25,0.25,50,138.0
1580,B-6,198.5,0.25,67,138.0
1581,D4,198.5,0.25,50,138.0
1582,B6,198.75,0.25,68,138.0
1583,F#4,198.75,0.25,50,138.0
1584,C7,199.0,0.25,69,138.0
1585,G4,199.0,0.25,50,138.0
1586,B6,199.25,0.25,70,138.0
1587,B4,199.25,0.25,50,138.0
1588,D7,199.5,0.5,71,138.0
1589,G4,200.0,0.25,43,138.0
1590,C6,200.0,0.5,63,138.0
1591,A5,200.0,0.5,63,138.0
1592,D5,200.0,0.5,63,138.0
1593,B4,200.25,0.25,44,138.0
1594,C#5,200.5,0.25,45,138.0
1595,D5,200.5,2.0,52,138.0
1596,B5,200.5,2.0,52,138.0
1597,G5,200.5,2.0,52,138.0
1598,D5,200.75,0.25,46,138.0
1599,E5,201.0,0.25,47,138.0
1600,D5,201.25,0.25,48,138.0
1601,F#5,201.5,0.25,50,138.0
1602,G5,201.75,0.25,51,138.0
1603,A5,202.0,0.25,52,138.0
1604,G5,202.25,0.25,53,138.0
1605,B-5,202.5,0.25,54,138.0
1606,C6,202.5,1.0,52,138.0
1607,G5,202.5,1.0,52,138.0
1608,B5,202.75,0.25,55,138.0
1609,C6,203.0,0.25,56,138.0
1610,B5,203.25,0.25,58,138.0
1611,D6,203.5,0.5,59,138.0
1612,C6,203.5,1.0,54,138.0
1613,E-6,203.5,1.0,54,138.0
1614,G5,203.5,1.0,54,138.0
1615,D4,204.0,167/1000,60,138.0
1616,E4,204.167,167/1000,63,138.0
1617,F#4,204.333,167/1000,66,138.0
1618,D6,204.5,1.0,67,138.0
1619,G3,204.5,333/1000,40,138.0
1620,G6,204.5,2.0,56,138.0
1621,G5,204.5,2.0,56,138.0
1622,B4,204.833,333/1000,32,138.0
1623,G4,205.167,333/1000,32,138.0
1624,B5,205.5,1.0,61,138.0
1625,F#4,205.5,333/1000,40,138.0
1626,B4,205.833,333/1000,33,138.0
1627,G4,206.167,333/1000,33,138.0
1628,E-4,206.5,333/1000,40,138.0
1629,C6,206.5,1.0,54,138.0
1630,G5,206.5,1.0,54,138.0
1631,E-6,206.5,1.0,54,138.0
1632,C5,206.833,333/1000,31,138.0
1633,G4,207.167,333/1000,31,138.0
1634,C4,207.5,333/1000,40,138.0
1635,C6,207.5,1.0,58,138.0
1636,G5,207.5,1.0,58,138.0
1637,C5,207.833,333/1000,33,138.0
1638,G4,208.167,333/1000,33,138.0
1639,G5,208.5,2.0,56,138.0
1640,B-5,208.5,1.0,66,138.0
1641,B3,208.5,333/1000,40,138.0
1642,B4,208.833,333/1000,31,138.0
1643,G4,209.167,333/1000,31,138.0
1644,B5,209.5,1.0,59,138.0
1645,G3,209.5,333/1000,40,138.0
1646,B4,209.833,333/1000,32,138.0
1647,G4,210.167,333/1000,32,138.0
1648,C4,210.5,333/1000,40,138.0
1649,D6,210.5,1.0,59,138.0
1650,F#5,210.5,1.0,59,138.0
1651,C5,210.833,333/1000,33,138.0
1652,G4,211.167,333/1000,33,138.0
1653,E-4,211.5,333/1000,40,138.0
1654,A5,211.5,0.75,58,138.0
1655,C6,211.5,0.75,58,138.0
1656,C5,211.833,333/1000,32,138.0
1657,D5,212.0,0.5,52,138.0
1658,G4,212.167,333/1000,32,138.0
1659,A5,212.25,0.25,52,138.0
1660,F#5,212.25,0.25,52,138.0
1661,B5,212.5,2.0,58,138.0
1662,D5,212.5,0.5,49,138.0
1663,G5,212.5,169/1000,49,138.0
1664,D4,212.5,333/1000,40,138.0
1665,A5,212.669,167/1000,42,138.0
1666,B-4,212.833,333/1000,32,138.0
1667,G5,212.835,169/1000,49,138.0
1668,A5,213.002,169/1000,44,138.0
1669,G4,213.167,333/1000,32,138.0
1670,G5,213.171,167/1000,49,138.0
1671,A5,213.338,169/1000,44,138.0
1672,G5,213.5,169/1000,50,138.0
1673,D4,213.5,333/1000,40,138.0
1674,A5,213.669,167/1000,44,138.0
1675,B4,213.833,333/1000,36,138.0
1676,G5,213.835,169/1000,50,138.0
1677,A5,214.002,169/1000,46,138.0
1678,G4,214.167,333/1000,36,138.0
1679,G5,214.171,167/1000,51,138.0
1680,A5,214.338,81/500,45,138.0
1681,C6,214.5,1.0,67,138.0
1682,G5,214.5,169/1000,51,138.0
1683,A5,214.5,3/500,45,138.0
1684,D4,214.5,333/1000,40,138.0
1685,A5,214.669,167/1000,44,138.0
1686,C5,214.833,333/1000,33,138.0
1687,G5,214.835,169/1000,52,138.0
1688,A5,215.002,169/1000,47,138.0
1689,A4,215.167,333/1000,33,138.0
1690,G5,215.171,167/1000,52,138.0
1691,A5,215.338,169/1000,47,138.0
1692,G5,215.5,169/1000,53,138.0
1693,E6,215.5,1.0,73,138.0
1694,D3,215.5,333/1000,40,138.0
1695,A5,215.669,167/1000,47,138.0
1696,D4,215.833,333/1000,34,138.0
1697,G5,215.835,169/1000,54,138.0
1698,A5,216.002,169/1000,48,138.0
1699,C4,216.167,333/1000,34,138.0
1700,G5,216.171,167/1000,54,138.0
1701,A5,216.338,81/500,48,138.0
1702,G5,216.5,169/1000,55,138.0
1703,G6,216.5,2.0,67,138.0
1704,A5,216.5,3/500,48,138.0
1705,G2,216.5,0.25,40,138.0
1706,A5,216.669,167/1000,47,138.0
1707,G3,216.75,0.25,33,138.0
1708,G5,216.835,169/1000,55,138.0
1709,B3,217.0,0.25,33,138.0
1710,A5,217.002,169/1000,50,138.0
1711,G5,217.171,167/1000,56,138.0
1712,G3,217.25,0.25,33,138.0
1713,A5,217.338,169/1000,51,138.0
1714,G5,217.5,169/1000,56,138.0
1715,F#3,217.5,0.25,41,138.0
1716,A5,217.669,167/1000,50,138.0
1717,G3,217.75,0.25,35,138.0
1718,G5,217.835,169/1000,57,138.0
1719,G4,218.0,0.25,35,138.0
1720,A5,218.002,169/1000,51,138.0
1721,G5,218.171,167/1000,57,138.0
1722,G3,218.25,0.25,35,138.0
1723,A5,218.338,81/500,51,138.0
1724,E6,218.5,1.0,72,138.0
1725,G5,218.5,169/1000,58,138.0
1726,A5,218.5,3/500,51,138.0
1727,E3,218.5,0.25,42,138.0
1728,A5,218.669,167/1000,50,138.0
1729,G3,218.75,0.25,36,138.0
1730,G5,218.835,169/1000,59,138.0
1731,G4,219.0,0.25,36,138.0
1732,A5,219.002,169/1000,53,138.0
1733,G5,219.171,167/1000,59,138.0
1734,G3,219.25,0.25,37,138.0
1735,A5,219.338,169/1000,53,138.0
1736,C6,219.5,1.0,77,138.0
1737,G5,219.5,169/1000,60,138.0
1738,C3,219.5,0.25,44,138.0
1739,A5,219.669,167/1000,52,138.0
1740,G3,219.75,0.25,37,138.0
1741,G5,219.835,169/1000,60,138.0
1742,E4,220.0,0.25,37,138.0
1743,A5,220.002,169/1000,55,138.0
1744,G5,220.171,167/1000,61,138.0
1745,G3,220.25,0.25,38,138.0
1746,A5,220.338,81/500,54,138.0
1747,G5,220.5,169/1000,61,138.0
1748,B-5,220.5,0.5,83,138.0
1749,A5,220.5,3/500,54,138.0
1750,B2,220.5,0.25,45,138.0
1751,A5,220.669,167/1000,53,138.0
1752,G3,220.75,0.25,37,138.0
1753,G5,220.835,169/1000,62,138.0
1754,B5,221.0,1.0,75,138.0
1755,D4,221.0,0.25,37,138.0
1756,A5,221.002,169/1000,56,138.0
1757,G5,221.171,167/1000,62,138.0
1758,G3,221.25,0.25,37,138.0
1759,A5,221.338,169/1000,56,138.0
1760,G5,221.5,169/1000,63,138.0
1761,G2,221.5,0.25,46,138.0
1762,A5,221.669,167/1000,55,138.0
1763,G3,221.75,0.25,39,138.0
1764,G5,221.835,169/1000,64,138.0
1765,D6,222.0,0.5,86,138.0
1766,B3,222.0,0.25,40,138.0
1767,A5,222.002,169/1000,57,138.0
1768,G5,222.171,167/1000,64,138.0
1769,G3,222.25,0.25,40,138.0
1770,A5,222.338,81/500,56,138.0
1771,D6,222.5,169/1000,75,138.0
1772,A5,222.5,3/500,56,138.0
1773,C3,222.5,0.25,48,138.0
1774,E6,222.669,167/1000,66,138.0
1775,G3,222.75,0.25,42,138.0
1776,D6,222.835,169/1000,75,138.0
1777,D5,223.0,0.5,60,138.0
1778,E4,223.0,0.25,42,138.0
1779,E6,223.002,169/1000,64,138.0
1780,D6,223.171,167/1000,75,138.0
1781,G3,223.25,0.25,42,138.0
1782,E6,223.338,169/1000,68,138.0
1783,D6,223.5,169/1000,78,138.0
1784,E3,223.5,0.25,51,138.0
1785,E6,223.669,167/1000,69,138.0
1786,G3,223.75,0.25,43,138.0
1787,D6,223.835,169/1000,75,138.0
1788,C#6,224.0,0.25,75,138.0
1789,G4,224.0,0.25,43,138.0
1790,D6,224.25,0.25,79,138.0
1791,G3,224.25,0.25,43,138.0
1792,D3,224.5,0.25,50,138.0
1793,F6,224.5,0.25,76,138.0
1794,D6,224.5,0.25,76,138.0
1795,B6,224.5,0.25,76,138.0
1796,D7,224.5,0.25,76,138.0
1797,E3,224.75,0.25,44,138.0
1798,F#3,225.0,0.25,48,138.0
1799,D6,225.0,1.0,69,138.0
1800,F6,225.0,1.0,69,138.0
1801,B6,225.0,1.0,69,138.0
1802,D7,225.0,1.0,69,138.0
1803,G3,225.25,0.25,51,138.0
1804,A3,225.5,0.25,54,138.0
1805,B3,225.75,0.25,55,138.0
1806,A3,226.0,0.25,55,138.0
1807,D6,226.0,0.25,69,138.0
1808,C6,226.0,0.25,69,138.0
1809,F6,226.0,0.25,69,138.0
1810,C7,226.0,0.25,69,138.0
1811,G3,226.25,0.25,54,138.0
1812,F#3,226.5,0.25,54,138.0
1813,F6,226.5,0.25,70,138.0
1814,B6,226.5,0.25,70,138.0
1815,B5,226.5,0.25,70,138.0
1816,D6,226.5,0.25,70,138.0
1817,G3,226.75,0.25,49,138.0
1818,F#3,227.0,0.25,49,138.0
1819,D6,227.0,0.25,73,138.0
1820,C7,227.0,0.25,73,138.0
1821,F6,227.0,0.25,73,138.0
1822,C6,227.0,0.25,73,138.0
1823,E3,227.25,0.25,49,138.0
1824,D3,227.5,0.25,54,138.0
1825,D7,227.5,0.25,73,138.0
1826,D6,227.5,0.25,73,138.0
1827,F6,227.5,0.25,73,138.0
1828,C3,227.75,0.25,50,138.0
1829,B2,228.0,0.25,59,138.0
1830,B6,228.0,0.25,61,138.0
1831,B5,228.0,0.25,61,138.0
1832,D6,228.0,0.25,61,138.0
1833,E6,228.0,0.25,61,138.0
1834,A2,228.25,0.25,66,138.0
1835,G1,228.5,0.25,66,138.0
1836,E6,228.5,0.25,53,138.0
1837,C7,228.5,0.25,53,138.0
1838,C6,228.5,0.25,53,138.0
1839,G2,228.75,0.25,56,138.0
1840,G1,229.0,0.25,66,138.0
1841,B5,229.0,0.25,47,138.0
1842,D6,229.0,0.25,47,138.0
1843,E6,229.0,0.25,47,138.0
1844,B6,229.0,0.25,47,138.0
1845,G2,229.25,0.25,56,138.0
1846,G1,229.5,0.25,66,138.0
1847,C7,229.5,0.25,53,138.0
1848,E6,229.5,0.25,53,138.0
1849,C6,229.5,0.25,53,138.0
1850,G2,229.75,0.25,57,138.0
1851,G1,230.0,0.25,66,138.0
1852,C6,230.0,0.25,47,138.0
1853,A6,230.0,0.25,47,138.0
1854,E6,230.0,0.25,47,138.0
1855,A5,230.0,0.25,47,138.0
1856,G2,230.25,0.25,57,138.0
1857,G1,230.5,0.25,66,138.0
1858,A5,230.5,0.25,53,138.0
1859,E6,230.5,0.25,53,138.0
1860,G6,230.5,0.25,53,138.0
1861,G2,230.75,0.25,57,138.0
1862,G1,231.0,0.25,66,138.0
1863,G6,231.0,0.25,48,138.0
1864,A5,231.0,0.25,48,138.0
1865,C#6,231.0,0.25,48,138.0
1866,G2,231.25,0.25,58,138.0
1867,G1,231.5,0.25,66,138.0
1868,F#6,231.5,0.25,53,138.0
1869,A5,231.5,0.25,53,138.0
1870,C6,231.5,0.25,53,138.0
1871,G2,231.75,0.25,59,138.0
1872,G#1,232.0,0.25,45,138.0
1873,C6,232.0,0.25,48,138.0
1874,A6,232.0,0.25,48,138.0
1875,A5,232.0,0.25,48,138.0
1876,G#2,232.25,0.25,34,138.0
1877,A1,232.5,0.25,43,138.0
1878,G6,232.5,0.25,58,138.0
1879,B5,232.5,0.25,58,138.0
1880,G5,232.5,0.25,58,138.0
1881,A2,232.75,0.25,33,138.0
1882,G#1,233.0,0.25,43,138.0
1883,B5,233.0,0.25,53,138.0
1884,D6,233.0,0.25,53,138.0
1885,D5,233.0,0.25,53,138.0
1886,G#2,233.25,0.25,33,138.0
1887,A1,233.5,0.25,43,138.0
1888,C6,233.5,0.25,62,138.0
1889,F#5,233.5,0.25,62,138.0
1890,F#6,233.5,0.25,62,138.0
1891,A2,233.75,0.25,34,138.0
1892,C2,234.0,0.25,43,138.0
1893,F#6,234.0,0.25,58,138.0
1894,C6,234.0,0.25,58,138.0
1895,A6,234.0,0.25,58,138.0
1896,A5,234.0,0.25,58,138.0
1897,C3,234.25,0.25,35,138.0
1898,C#2,234.5,0.25,43,138.0
1899,B5,234.5,0.25,67,138.0
1900,G5,234.5,0.25,67,138.0
1901,G6,234.5,0.25,67,138.0
1902,C#3,234.75,0.25,33,138.0
1903,E2,235.0,0.25,43,138.0
1904,B5,235.0,0.25,62,138.0
1905,D5,235.0,0.25,62,138.0
1906,D6,235.0,0.25,62,138.0
1907,E3,235.25,0.25,33,138.0
1908,D2,235.5,0.25,43,138.0
1909,C6,235.5,0.25,73,138.0
1910,F#6,235.5,0.25,73,138.0
1911,F#5,235.5,0.25,73,138.0
1912,D3,235.75,0.25,34,138.0
1913,D2,236.0,0.25,43,138.0
1914,F#6,236.0,0.25,67,138.0
1915,C6,236.0,0.25,67,138.0
1916,A5,236.0,0.25,67,138.0
1917,A6,236.0,0.25,67,138.0
1918,D3,236.25,0.25,35,138.0
1919,G5,236.5,0.25,77,138.0
1920,D2,236.5,0.25,47,138.0
1921,G6,236.75,0.25,70,138.0
1922,D3,236.75,0.25,36,138.0
1923,D5,237.0,0.25,79,138.0
1924,G2,237.0,0.25,48,138.0
1925,D6,237.25,0.25,73,138.0
1926,G3,237.25,0.25,37,138.0
1927,F#5,237.5,0.25,82,138.0
1928,D2,237.5,0.25,50,138.0
1929,F#6,237.75,0.25,76,138.0
1930,D3,237.75,123/500,40,138.0
1931,A5,238.0,0.25,85,138.0
1932,D3,238.0,0.25,53,138.0
1933,A6,238.25,0.25,79,138.0
1934,D4,238.25,0.25,44,138.0
1935,G5,238.5,0.25,88,138.0
1936,D2,238.5,0.25,54,138.0
1937,G6,238.75,0.25,82,138.0
1938,D3,238.75,0.25,42,138.0
1939,D5,239.0,0.25,91,138.0
1940,G2,239.0,0.25,57,138.0
1941,D6,239.25,0.25,86,138.0
1942,G3,239.25,0.25,44,138.0
1943,F#5,239.5,0.25,94,138.0
1944,D2,239.5,0.25,58,138.0
1945,F#6,239.75,0.25,90,138.0
1946,D3,239.75,123/500,47,138.0
1947,A5,240.0,0.25,99,138.0
1948,D3,240.0,0.25,61,138.0
1949,A6,240.25,0.25,92,138.0
1950,D4,240.25,0.25,51,138.0
1951,G2,240.5,0.25,59,138.0
1952,G6,240.5,0.375,100,138.0
1953,G5,240.5,0.375,100,138.0
1954,G3,240.75,0.25,50,138.0
1955,D2,241.0,0.25,61,138.0
1956,D3,241.25,0.25,51,138.0
1957,F#2,241.5,0.25,64,138.0
1958,A6,241.5,0.375,103,138.0
1959,A5,241.5,0.375,103,138.0
1960,F#3,241.75,0.25,55,138.0
1961,A2,242.0,0.25,67,138.0
1962,A3,242.25,0.25,58,138.0
1963,G2,242.5,0.25,68,138.0
1964,B-5,242.5,1.75,108,138.0
1965,B-6,242.5,1.75,108,138.0
1966,G3,242.75,0.25,63,138.0
1967,D2,243.0,0.25,71,138.0
1968,D3,243.25,0.25,63,138.0
1969,F#1,243.5,0.25,74,138.0
1970,F#2,243.75,0.25,64,138.0
1971,A1,244.0,0.25,76,138.0
1972,A2,244.25,0.25,67,138.0
1973,G1,244.5,0.375,75,138.0
1974,G2,244.5,0.375,75,138.0
1975,A1,245.5,0.375,75,138.0
1976,A2,245.5,0.375,75,138.0
1977,B-1,246.5,1.75,79,138.0
1978,B-2,246.5,1.75,79,138.0
1979,B-3,248.25,0.25,57,138.0
1980,B-2,248.25,0.25,50,138.0
1981,B-4,248.5,0.75,81,138.0
1982,B-3,248.5,0.75,71,138.0
1983,B-4,249.25,0.25,71,138.0
1984,B-3,249.25,0.25,58,138.0
1985,B-4,249.5,0.5,78,138.0
1986,B-3,249.5,0.5,65,138.0
1987,D3,252.25,0.25,50,138.0
1988,D4,252.5,0.75,71,138.0
1989,D4,253.25,0.25,58,138.0
1990,F5,253.25,0.25,92,138.0
1991,D6,253.25,0.25,92,138.0
1992,B-5,253.25,0.25,92,138.0
1993,D5,253.25,0.25,92,138.0
1994,D4,253.5,0.5,64,138.0
1995,D6,253.5,0.375,83,138.0
1996,D5,253.5,0.375,83,138.0
1997,B-5,253.5,0.375,83,138.0
1998,F5,253.5,0.375,83,138.0
1999,D5,254.0,0.094,85,138.0
2000,F5,254.0,0.094,85,138.0
2001,E-6,254.0,0.094,85,138.0
2002,B-5,254.0,0.094,85,138.0
2003,D5,254.25,0.094,86,138.0
2004,F5,254.25,0.094,86,138.0
2005,B-5,254.25,0.094,86,138.0
2006,D6,254.25,0.094,86,138.0
2007,F5,254.5,0.25,92,138.0
2008,D6,254.5,0.25,92,138.0
2009,B-5,254.5,0.25,92,138.0
2010,D5,254.5,0.25,92,138.0
2011,B-4,255.0,0.25,84,138.0
2012,B-5,255.0,0.25,84,138.0
2013,F5,255.0,0.25,84,138.0
2014,D5,255.0,0.25,84,138.0
2015,B-1,256.25,0.25,96,138.0
2016,F3,256.5,0.75,83,138.0
2017,D4,256.5,0.75,83,138.0
2018,B-3,256.5,0.75,83,138.0
2019,F5,257.25,0.25,92,138.0
2020,B-5,257.25,0.25,92,138.0
2021,D6,257.25,0.25,92,138.0
2022,F6,257.25,0.25,92,138.0
2023,B-3,257.25,0.25,74,138.0
2024,D4,257.25,0.25,74,138.0
2025,F3,257.25,0.25,74,138.0
2026,F6,257.5,0.375,83,138.0
2027,D6,257.5,0.375,83,138.0
2028,B-5,257.5,0.375,83,138.0
2029,F5,257.5,0.375,83,138.0
2030,B-3,257.5,0.375,83,138.0
2031,F3,257.5,0.375,83,138.0
2032,D4,257.5,0.375,83,138.0
2033,B-5,258.0,0.094,85,138.0
2034,G6,258.0,0.094,85,138.0
2035,F5,258.0,0.094,85,138.0
2036,D6,258.0,0.094,85,138.0
2037,B-3,258.0,0.094,79,138.0
2038,D4,258.0,0.094,79,138.0
2039,F3,258.0,0.094,79,138.0
2040,B-5,258.25,0.094,86,138.0
2041,D6,258.25,0.094,86,138.0
2042,F6,258.25,0.094,86,138.0
2043,F5,258.25,0.094,86,138.0
2044,B-3,258.25,0.094,83,138.0
2045,F3,258.25,0.094,83,138.0
2046,D4,258.25,0.094,83,138.0
2047,F6,258.5,0.25,92,138.0
2048,F5,258.5,0.25,92,138.0
2049,B-5,258.5,0.25,92,138.0
2050,D6,258.5,0.25,92,138.0
2051,D4,258.5,0.25,83,138.0
2052,F3,258.5,0.25,83,138.0
2053,B-3,258.5,0.25,83,138.0
2054,D6,259.0,0.25,84,138.0
2055,B-5,259.0,0.25,84,138.0
2056,D5,259.0,0.25,84,138.0
2057,F5,259.0,0.25,84,138.0
2058,D3,259.0,0.25,83,138.0
2059,B-3,259.0,0.25,83,138.0
2060,F3,259.0,0.25,83,138.0
2061,B-4,260.0,0.25,50,138.0
2062,C5,260.25,0.25,45,138.0
2063,B-1,260.25,0.25,96,138.0
2064,D5,260.5,1.0,50,138.0
2065,D4,260.5,0.75,82,138.0
2066,B-3,260.5,0.75,82,138.0
2067,F4,260.5,0.75,82,138.0
2068,F3,260.5,0.75,82,138.0
2069,G4,261.0,0.5,39,138.0
2070,F3,261.25,0.25,73,138.0
2071,F4,261.25,0.25,73,138.0
2072,D4,261.25,0.25,73,138.0
2073,B-3,261.25,0.25,73,138.0
2074,C5,261.5,0.5,36,138.0
2075,A4,261.5,0.5,36,138.0
2076,B-3,261.5,0.375,82,138.0
2077,F4,261.5,0.375,82,138.0
2078,D4,261.5,0.375,82,138.0
2079,F3,261.5,0.375,82,138.0
2080,C5,262.0,0.25,50,138.0
2081,G#4,262.0,0.5,42,138.0
2082,F3,262.0,0.094,78,138.0
2083,B-3,262.0,0.094,78,138.0
2084,F4,262.0,0.094,78,138.0
2085,D4,262.0,0.094,78,138.0
2086,D5,262.25,0.25,46,138.0
2087,B-3,262.25,0.094,82,138.0
2088,F4,262.25,0.094,82,138.0
2089,F3,262.25,0.094,82,138.0
2090,D4,262.25,0.094,82,138.0
2091,G4,262.5,0.5,46,138.0
2092,E-5,262.5,1.0,55,138.0
2093,F3,262.5,0.25,82,138.0
2094,D4,262.5,0.25,82,138.0
2095,F4,262.5,0.25,82,138.0
2096,B-3,262.5,0.25,82,138.0
2097,A4,263.0,0.5,45,138.0
2098,B-3,263.0,0.25,83,138.0
2099,D4,263.0,0.25,83,138.0
2100,F3,263.0,0.25,83,138.0
2101,B-4,263.5,0.5,42,138.0
2102,D5,263.5,0.5,42,138.0
2103,G4,264.0,0.5,39,138.0
2104,D5,264.0,0.25,47,138.0
2105,E-5,264.25,0.25,50,138.0
2106,F5,264.5,0.75,54,138.0
2107,F4,264.5,0.5,45,138.0
2108,B-4,265.0,0.5,45,138.0
2109,E4,265.0,0.5,29,138.0
2110,G5,265.25,0.25,52,138.0
2111,G4,265.5,0.5,42,138.0
2112,F5,265.5,0.25,50,138.0
2113,F4,265.5,0.5,29,138.0
2114,E-5,265.75,0.5,43,138.0
2115,A4,266.0,0.5,43,138.0
2116,B3,266.0,0.5,40,138.0
2117,F5,266.25,0.25,45,138.0
2118,E-5,266.5,0.25,49,138.0
2119,C4,266.5,0.5,40,138.0
2120,F4,266.5,0.5,35,138.0
2121,B-4,266.5,0.5,35,138.0
2122,D5,266.75,0.25,41,138.0
2123,F5,267.0,0.25,43,138.0
2124,F#3,267.0,0.5,36,138.0
2125,C5,267.0,0.5,30,138.0
2126,G4,267.0,0.5,30,138.0
2127,E-5,267.25,0.25,37,138.0
2128,G3,267.5,0.5,36,138.0
2129,A4,267.5,0.5,32,138.0
2130,C5,267.5,0.5,32,138.0
2131,B-5,268.0,0.25,50,138.0
2132,E-3,268.0,0.5,40,138.0
2133,C6,268.25,0.25,45,138.0
2134,D6,268.5,1.0,50,138.0
2135,D3,268.5,0.5,40,138.0
2136,G5,269.0,0.5,39,138.0
2137,C#3,269.0,0.5,35,138.0
2138,C3,269.5,0.5,35,138.0
2139,A5,269.5,0.5,36,138.0
2140,C6,269.5,0.5,36,138.0
2141,G#5,270.0,0.5,42,138.0
2142,C6,270.0,0.25,50,138.0
2143,F2,270.0,0.5,40,138.0
2144,D6,270.25,0.25,46,138.0
2145,G5,270.5,0.5,46,138.0
2146,E-6,270.5,1.0,55,138.0
2147,B-2,270.5,0.5,38,138.0
2148,A5,271.0,0.5,45,138.0
2149,E-2,271.0,0.5,30,138.0
2150,F2,271.5,0.5,27,138.0
2151,B-5,271.5,0.5,42,138.0
2152,D6,271.5,0.5,42,138.0
2153,D6,272.0,0.25,51,138.0
2154,G5,272.0,0.5,39,138.0
2155,E-6,272.25,0.25,55,138.0
2156,F5,272.5,0.5,45,138.0
2157,F6,272.5,0.75,59,138.0
2158,B-5,273.0,0.5,45,138.0
2159,E5,273.0,0.5,29,138.0
2160,G6,273.25,0.25,57,138.0
2161,G5,273.5,0.5,42,138.0
2162,F6,273.5,0.25,55,138.0
2163,F5,273.5,0.5,29,138.0
2164,E-6,273.75,0.5,47,138.0
2165,A5,274.0,0.5,43,138.0
2166,B4,274.0,0.5,40,138.0
2167,F6,274.25,0.25,50,138.0
2168,E-6,274.5,0.25,57,138.0
2169,F5,274.5,0.5,44,138.0
2170,C5,274.5,0.5,40,138.0
2171,D6,274.75,0.5,49,138.0
2172,B-5,275.0,1.0,46,138.0
2173,F#4,275.0,0.5,36,138.0
2174,E-6,275.25,0.25,53,138.0
2175,D6,275.5,0.25,60,138.0
2176,G4,275.5,0.5,36,138.0
2177,C6,275.75,0.25,49,138.0
2178,D6,276.0,0.25,55,138.0
2179,E-4,276.0,0.5,40,138.0
2180,F5,276.0,0.5,47,138.0
2181,A5,276.0,0.5,47,138.0
2182,E-6,276.25,0.25,51,138.0
2183,G6,276.5,0.25,67,138.0
2184,D4,276.5,0.5,40,138.0
2185,F5,276.5,0.5,52,138.0
2186,B-5,276.5,0.5,52,138.0
2187,F6,276.75,0.25,53,138.0
2188,B-5,277.0,0.5,41,138.0
2189,G6,277.0,0.25,58,138.0
2190,C#4,277.0,0.5,35,138.0
2191,F6,277.25,123/500,59,138.0
2192,G5,277.5,0.5,53,138.0
2193,F6,277.5,0.25,69,138.0
2194,C4,277.5,0.5,35,138.0
2195,E-6,277.75,0.25,55,138.0
2196,F6,278.0,0.25,61,138.0
2197,A5,278.0,0.5,43,138.0
2198,F3,278.0,0.5,40,138.0
2199,E-6,278.25,0.25,56,138.0
2200,F5,278.5,0.5,57,138.0
2201,E-6,278.5,0.25,74,138.0
2202,B-3,278.5,0.5,36,138.0
2203,D6,278.75,0.25,57,138.0
2204,B-5,279.0,1.0,45,138.0
2205,E-6,279.0,0.25,63,138.0
2206,F#3,279.0,0.5,43,138.0
2207,D6,279.25,123/500,58,138.0
2208,D6,279.5,0.25,75,138.0
2209,F3,279.5,0.5,44,138.0
2210,C6,279.75,0.25,61,138.0
2211,D6,280.0,0.25,67,138.0
2212,E-3,280.0,0.5,45,138.0
2213,A5,280.0,0.5,47,138.0
2214,F5,280.0,0.5,47,138.0
2215,E-6,280.25,0.25,70,138.0
2216,G6,280.5,0.25,69,138.0
2217,D3,280.5,0.5,46,138.0
2218,B-5,280.5,0.5,58,138.0
2219,F5,280.5,0.5,58,138.0
2220,F6,280.75,0.25,70,138.0
2221,C#3,281.0,0.5,47,138.0
2222,B-5,281.0,0.5,68,138.0
2223,E6,281.0,0.5,68,138.0
2224,G6,281.25,0.5,72,138.0
2225,E-6,281.5,0.5,67,138.0
2226,C3,281.5,0.5,48,138.0
2227,G#6,281.75,0.5,74,138.0
2228,F2,282.0,0.5,50,138.0
2229,E-6,282.0,0.5,70,138.0
2230,C6,282.0,0.5,70,138.0
2231,A6,282.25,0.25,77,138.0
2232,C7,282.5,0.25,86,138.0
2233,B-2,282.5,0.5,50,138.0
2234,D6,282.5,0.5,73,138.0
2235,B-5,282.5,0.5,73,138.0
2236,B-6,282.75,0.25,72,138.0
2237,A6,283.0,0.25,84,138.0
2238,F#2,283.0,0.5,52,138.0
2239,B-5,283.0,0.5,71,138.0
2240,E-6,283.0,0.5,71,138.0
2241,G6,283.25,0.25,74,138.0
2242,F2,283.5,0.5,53,138.0
2243,F6,283.5,0.25,77,138.0
2244,D6,283.5,0.25,77,138.0
2245,B-5,283.5,0.25,77,138.0
2246,E-2,284.0,0.5,54,138.0
2247,A6,284.0,0.25,74,138.0
2248,C6,284.0,0.25,74,138.0
2249,F6,284.0,0.25,74,138.0
2250,A5,284.0,0.25,74,138.0
2251,D2,284.5,0.5,55,138.0
2252,B-6,284.5,1.0,89,138.0
2253,D6,284.5,1.0,89,138.0
2254,F6,284.5,1.0,89,138.0
2255,B-5,284.5,1.0,89,138.0
2256,C#2,285.0,0.5,56,138.0
2257,C2,285.5,0.5,57,138.0
2258,D5,285.5,1.0,67,138.0
2259,B-4,285.5,1.0,67,138.0
2260,B-5,285.5,1.0,67,138.0
2261,F#1,286.0,0.5,58,138.0
2262,G1,286.5,0.5,67,138.0
2263,D5,286.5,0.125,53,138.0
2264,F5,286.5,0.125,53,138.0
2265,D6,286.5,0.125,53,138.0
2266,E-2,287.0,0.5,61,138.0
2267,B-5,287.0,0.125,54,138.0
2268,D5,287.0,0.125,54,138.0
2269,B-4,287.0,0.125,54,138.0
2270,F2,287.5,0.25,70,138.0
2271,F5,287.5,0.125,54,138.0
2272,D5,287.5,0.125,54,138.0
2273,D6,287.5,0.125,54,138.0
2274,C5,288.0,0.125,54,138.0
2275,C6,288.0,0.125,54,138.0
2276,E-5,288.0,0.125,54,138.0
2277,F1,288.0,0.25,66,138.0
2278,F2,288.0,0.25,66,138.0
2279,E-5,288.5,1.0,103,138.0
2280,G5,288.5,1.0,103,138.0
2281,E-6,288.5,1.0,103,138.0
2282,B-1,288.5,0.25,62,138.0
2283,B-2,288.5,0.25,62,138.0
2284,D4,288.75,0.25,50,138.0
2285,F3,288.75,0.25,50,138.0
2286,B-3,288.75,0.25,50,138.0
2287,F3,289.0,0.25,50,138.0
2288,D4,289.0,0.25,50,138.0
2289,B-3,289.0,0.25,50,138.0
2290,D4,289.25,0.25,50,138.0
2291,F3,289.25,0.25,50,138.0
2292,B-3,289.25,0.25,50,138.0
2293,C6,289.5,1.0,67,138.0
2294,E-5,289.5,1.0,67,138.0
2295,C5,289.5,1.0,67,138.0
2296,F3,289.75,0.25,48,138.0
2297,B-3,289.75,0.25,48,138.0
2298,D4,289.75,0.25,48,138.0
2299,B-3,290.0,0.25,48,138.0
2300,F3,290.0,0.25,48,138.0
2301,D4,290.0,0.25,48,138.0
2302,D4,290.25,0.25,48,138.0
2303,F3,290.25,0.25,48,138.0
2304,B-3,290.25,0.25,48,138.0
2305,E-6,290.5,0.125,53,138.0
2306,E-5,290.5,0.125,53,138.0
2307,G5,290.5,0.125,53,138.0
2308,F3,290.75,0.125,39,138.0
2309,D4,290.75,0.125,39,138.0
2310,B-3,290.75,0.125,39,138.0
2311,C#5,291.0,0.125,54,138.0
2312,E5,291.0,0.125,54,138.0
2313,C#6,291.0,0.125,54,138.0
2314,B-3,291.25,0.125,40,138.0
2315,D3,291.25,0.125,40,138.0
2316,E-6,291.5,0.125,54,138.0
2317,E-5,291.5,0.125,54,138.0
2318,F#5,291.5,0.125,54,138.0
2319,D4,291.75,0.125,39,138.0
2320,B-3,291.75,0.125,39,138.0
2321,F3,291.75,0.125,39,138.0
2322,D6,292.0,0.125,54,138.0
2323,F5,292.0,0.125,54,138.0
2324,D5,292.0,0.125,54,138.0
2325,B-3,292.25,0.125,39,138.0
2326,C4,292.25,0.125,39,138.0
2327,E-3,292.25,0.125,39,138.0
2328,F6,292.5,1.0,99,138.0
2329,G#5,292.5,1.0,99,138.0
2330,F5,292.5,1.0,99,138.0
2331,B-1,292.5,0.25,72,138.0
2332,B-2,292.5,0.25,72,138.0
2333,G3,292.75,0.25,57,138.0
2334,E-4,292.75,0.25,57,138.0
2335,B-3,292.75,0.25,57,138.0
2336,G3,293.0,0.25,57,138.0
2337,B-3,293.0,0.25,57,138.0
2338,E-4,293.0,0.25,57,138.0
2339,B-3,293.25,0.25,57,138.0
2340,E-4,293.25,0.25,57,138.0
2341,G3,293.25,0.25,57,138.0
2342,D5,293.5,1.0,67,138.0
2343,D6,293.5,1.0,67,138.0
2344,F5,293.5,1.0,67,138.0
2345,C4,293.75,0.25,48,138.0
2346,E-3,293.75,0.25,48,138.0
2347,B-3,293.75,0.25,48,138.0
2348,E-3,294.0,0.25,48,138.0
2349,B-3,294.0,0.25,48,138.0
2350,C4,294.0,0.25,48,138.0
2351,C4,294.25,0.25,48,138.0
2352,E-3,294.25,0.25,48,138.0
2353,B-3,294.25,0.25,48,138.0
2354,G#5,294.5,0.125,53,138.0
2355,F5,294.5,0.125,53,138.0
2356,F6,294.5,0.125,53,138.0
2357,G3,294.75,0.125,39,138.0
2358,E-4,294.75,0.125,39,138.0
2359,B-3,294.75,0.125,39,138.0
2360,D6,295.0,0.125,54,138.0
2361,D5,295.0,0.125,54,138.0
2362,F#5,295.0,0.125,54,138.0
2363,B-3,295.25,0.125,39,138.0
2364,C#4,295.25,0.125,39,138.0
2365,E3,295.25,0.125,39,138.0
2366,F6,295.5,0.125,54,138.0
2367,G#5,295.5,0.125,54,138.0
2368,F5,295.5,0.125,54,138.0
2369,B-3,295.75,0.125,39,138.0
2370,E-4,295.75,0.125,39,138.0
2371,F#3,295.75,0.125,39,138.0
2372,E-6,296.0,0.125,54,138.0
2373,E-5,296.0,0.125,54,138.0
2374,G5,296.0,0.125,54,138.0
2375,B-3,296.25,0.125,39,138.0
2376,F3,296.25,0.125,39,138.0
2377,D4,296.25,0.125,39,138.0
2378,G5,296.5,1.0,99,138.0
2379,B-5,296.5,1.0,99,138.0
2380,G6,296.5,1.0,99,138.0
2381,B-1,296.5,0.25,68,138.0
2382,B-2,296.5,0.25,68,138.0
2383,B-3,296.75,0.25,54,138.0
2384,G#3,296.75,0.25,54,138.0
2385,F4,296.75,0.25,54,138.0
2386,G#3,297.0,0.25,54,138.0
2387,B-3,297.0,0.25,54,138.0
2388,F4,297.0,0.25,54,138.0
2389,F4,297.25,0.25,54,138.0
2390,B-3,297.25,0.25,54,138.0
2391,G#3,297.25,0.25,54,138.0
2392,E-5,297.5,1.0,66,138.0
2393,G5,297.5,1.0,66,138.0
2394,B-5,297.5,1.0,66,138.0
2395,E-6,297.5,1.0,66,138.0
2396,B-3,297.75,0.25,48,138.0
2397,D4,297.75,0.25,48,138.0
2398,F3,297.75,0.25,48,138.0
2399,B-3,298.0,0.25,48,138.0
2400,D4,298.0,0.25,48,138.0
2401,F3,298.0,0.25,48,138.0
2402,F3,298.25,0.25,48,138.0
2403,D4,298.25,0.25,48,138.0
2404,B-3,298.25,0.25,48,138.0
2405,B-5,298.5,0.125,53,138.0
2406,G5,298.5,0.125,53,138.0
2407,G6,298.5,0.125,53,138.0
2408,B-3,298.75,0.125,39,138.0
2409,F4,298.75,0.125,39,138.0
2410,G#3,298.75,0.125,39,138.0
2411,B-5,299.0,0.125,54,138.0
2412,E6,299.0,0.125,54,138.0
2413,E5,299.0,0.125,54,138.0
2414,D4,299.25,0.125,39,138.0
2415,F#3,299.25,0.125,39,138.0
2416,B-3,299.25,0.125,39,138.0
2417,F#5,299.5,0.125,60,138.0
2418,B-5,299.5,0.125,60,138.0
2419,F#6,299.5,0.125,60,138.0
2420,G#3,299.75,0.125,39,138.0
2421,B-3,299.75,0.125,39,138.0
2422,F4,299.75,0.125,39,138.0
2423,B-5,300.0,0.125,62,138.0
2424,F6,300.0,0.125,62,138.0
2425,F5,300.0,0.125,62,138.0
2426,E-4,300.25,0.125,39,138.0
2427,B-3,300.25,0.125,39,138.0
2428,G3,300.25,0.125,39,138.0
2429,G#5,300.5,0.125,62,138.0
2430,B-5,300.5,0.125,62,138.0
2431,G#6,300.5,0.125,62,138.0
2432,B-2,300.5,0.25,68,138.0
2433,B-1,300.5,0.25,68,138.0
2434,G4,300.75,0.25,54,138.0
2435,B-3,300.75,0.25,54,138.0
2436,E-4,300.75,0.25,54,138.0
2437,F#5,301.0,0.125,66,138.0
2438,B-5,301.0,0.125,66,138.0
2439,F#6,301.0,0.125,66,138.0
2440,B-3,301.0,0.25,54,138.0
2441,G4,301.0,0.25,54,138.0
2442,E-4,301.0,0.25,54,138.0
2443,G4,301.25,0.25,54,138.0
2444,E-4,301.25,0.25,54,138.0
2445,B-3,301.25,0.25,54,138.0
2446,G#5,301.5,0.125,68,138.0
2447,B-5,301.5,0.125,68,138.0
2448,G#6,301.5,0.125,68,138.0
2449,G3,301.75,0.25,48,138.0
2450,B-3,301.75,0.25,48,138.0
2451,E-4,301.75,0.25,48,138.0
2452,G6,302.0,0.125,70,138.0
2453,B-5,302.0,0.125,70,138.0
2454,G5,302.0,0.125,70,138.0
2455,G3,302.0,0.25,48,138.0
2456,B-3,302.0,0.25,48,138.0
2457,E-4,302.0,0.25,48,138.0
2458,G3,302.25,0.25,48,138.0
2459,E-4,302.25,0.25,48,138.0
2460,B-3,302.25,0.25,48,138.0
2461,G6,302.5,0.125,70,138.0
2462,B-5,302.5,0.125,70,138.0
2463,B-6,302.5,0.125,70,138.0
2464,E-6,302.5,0.125,70,138.0
2465,E-4,302.75,0.125,35,138.0
2466,G4,302.75,0.125,35,138.0
2467,B-3,302.75,0.125,35,138.0
2468,G#6,303.0,0.125,77,138.0
2469,G#5,303.0,0.125,77,138.0
2470,E4,303.25,0.125,35,138.0
2471,C#4,303.25,0.125,35,138.0
2472,B-3,303.25,0.125,35,138.0
2473,B-5,303.5,0.125,79,138.0
2474,B-6,303.5,0.125,79,138.0
2475,E-4,303.75,0.125,39,138.0
2476,F#4,303.75,0.125,39,138.0
2477,B-3,303.75,0.125,39,138.0
2478,A6,304.0,0.125,82,138.0
2479,A5,304.0,0.125,82,138.0
2480,B-3,304.25,0.125,40,138.0
2481,F4,304.25,0.125,40,138.0
2482,D4,304.25,0.125,40,138.0
2483,C6,304.5,0.25,92,138.0
2484,C7,304.5,0.25,92,138.0
2485,B-3,304.75,0.125,41,138.0
2486,G#4,304.75,0.125,41,138.0
2487,F4,304.75,0.125,41,138.0
2488,B-6,305.0,0.25,81,138.0
2489,B-5,305.0,0.25,81,138.0
2490,B-3,305.25,0.125,43,138.0
2491,D4,305.25,0.125,43,138.0
2492,F#4,305.25,0.125,43,138.0
2493,G6,305.5,0.25,90,138.0
2494,G5,305.5,0.25,90,138.0
2495,F4,305.75,0.125,45,138.0
2496,B-3,305.75,0.125,45,138.0
2497,G#4,305.75,0.125,45,138.0
2498,F5,306.0,0.25,83,138.0
2499,F6,306.0,0.25,83,138.0
2500,B-3,306.25,0.125,46,138.0
2501,E-4,306.25,0.125,46,138.0
2502,G4,306.25,0.125,46,138.0
2503,E-5,306.5,0.25,91,138.0
2504,E-6,306.5,0.25,91,138.0
2505,G4,306.75,0.125,47,138.0
2506,B-3,306.75,0.125,47,138.0
2507,E-4,306.75,0.125,47,138.0
2508,C4,306.75,0.125,47,138.0
2509,D6,307.0,0.25,76,138.0
2510,D5,307.0,0.25,76,138.0
2511,E-4,307.25,0.125,47,138.0
2512,C4,307.25,0.125,47,138.0
2513,G#4,307.25,0.125,47,138.0
2514,B-3,307.25,0.125,47,138.0
2515,C5,307.5,0.25,80,138.0
2516,C6,307.5,0.25,80,138.0
2517,B-3,307.75,0.125,49,138.0
2518,C4,307.75,0.125,49,138.0
2519,E-4,307.75,0.125,49,138.0
2520,B-4,307.75,0.125,49,138.0
2521,B-5,308.0,0.25,74,138.0
2522,B-4,308.0,0.25,74,138.0
2523,C4,308.25,0.125,50,138.0
2524,B-3,308.25,0.125,50,138.0
2525,A4,308.25,0.125,50,138.0
2526,E-4,308.25,0.125,50,138.0
2527,G5,308.5,0.25,82,138.0
2528,G4,308.5,0.25,82,138.0
2529,C4,308.75,0.125,61,138.0
2530,C5,308.75,0.125,61,138.0
2531,F5,309.0,0.25,72,138.0
2532,F4,309.0,0.25,72,138.0
2533,B-3,309.25,0.125,61,138.0
2534,B-4,309.25,0.125,61,138.0
2535,E-4,309.5,0.25,76,138.0
2536,E-5,309.5,0.25,76,138.0
2537,G4,309.75,0.125,61,138.0
2538,G3,309.75,0.125,61,138.0
2539,D4,310.0,0.25,70,138.0
2540,D5,310.0,0.25,70,138.0
2541,F3,310.25,0.125,61,138.0
2542,F4,310.25,0.125,61,138.0
2543,C4,310.5,0.25,74,138.0
2544,C5,310.5,0.25,74,138.0
2545,E-4,310.75,0.125,54,138.0
2546,E-3,310.75,0.125,54,138.0
2547,B-4,311.0,0.25,65,138.0
2548,B-3,311.0,0.25,65,138.0
2549,D4,311.25,0.125,54,138.0
2550,D3,311.25,0.125,54,138.0
2551,G4,311.5,0.25,72,138.0
2552,G3,311.5,0.25,72,138.0
2553,C4,311.75,0.125,54,138.0
2554,C3,311.75,0.125,54,138.0
2555,F4,312.0,0.25,66,138.0
2556,F3,312.0,0.25,66,138.0
2557,B-2,312.25,0.125,54,138.0
2558,B-3,312.25,0.125,54,138.0
2559,A4,312.5,0.5,77,138.0
2560,G2,312.75,0.125,54,138.0
2561,G3,312.75,0.125,54,138.0
2562,F4,313.0,0.5,67,138.0
2563,F3,313.25,0.125,54,138.0
2564,F2,313.25,0.125,54,138.0
2565,C5,313.5,0.5,73,138.0
2566,E-3,313.75,0.125,52,138.0
2567,E-2,313.75,0.125,52,138.0
2568,F4,314.0,0.5,67,138.0
2569,D2,314.25,0.125,52,138.0
2570,D3,314.25,0.125,52,138.0
2571,F5,314.5,0.5,71,138.0
2572,C2,314.75,0.125,49,138.0
2573,C3,314.75,0.125,49,138.0
2574,F4,315.0,0.5,59,138.0
2575,B-2,315.25,0.125,49,138.0
2576,B-1,315.25,0.125,49,138.0
2577,A5,315.5,0.5,68,138.0
2578,G1,315.75,0.125,49,138.0
2579,G2,315.75,0.125,49,138.0
2580,F4,316.0,0.5,56,138.0
2581,F2,316.25,0.125,49,138.0
2582,F1,316.25,0.125,49,138.0
2583,C6,316.5,0.5,62,138.0
2584,A1,316.75,0.25,42,138.0
2585,F4,317.0,0.5,49,138.0
2586,F1,317.25,0.25,28,138.0
2587,F6,317.5,0.5,54,138.0
2588,C2,317.75,0.25,39,138.0
2589,F4,318.0,0.5,45,138.0
2590,F1,318.25,0.25,27,138.0
2591,F6,318.5,0.5,52,138.0
2592,F2,318.75,0.25,37,138.0
2593,F4,319.0,0.5,41,138.0
2594,F1,319.25,0.25,26,138.0
2595,F6,319.5,0.5,48,138.0
2596,A2,319.75,0.25,34,138.0
2597,F1,320.25,0.25,24,138.0
2598,C3,320.75,0.25,32,138.0
2599,F1,321.25,0.25,23,138.0
2600,B-5,321.25,0.25,81,138.0
2601,D6,321.25,0.25,81,138.0
2602,F5,321.25,0.25,81,138.0
2603,D5,321.25,0.25,81,138.0
2604,B-5,321.5,0.5,72,138.0
2605,F5,321.5,0.5,72,138.0
2606,D6,321.5,0.5,72,138.0
2607,D5,321.5,0.5,72,138.0
2608,F3,321.75,0.25,29,138.0
2609,B-5,322.0,0.094,75,138.0
2610,F5,322.0,0.094,75,138.0
2611,E-6,322.0,0.094,75,138.0
2612,D5,322.0,0.094,75,138.0
2613,F1,322.25,0.25,24,138.0
2614,B-5,322.25,0.094,75,138.0
2615,D5,322.25,0.094,75,138.0
2616,F5,322.25,0.094,75,138.0
2617,D6,322.25,0.094,75,138.0
2618,B-5,322.5,0.25,81,138.0
2619,D5,322.5,0.25,81,138.0
2620,F5,322.5,0.25,81,138.0
2621,D6,322.5,0.25,81,138.0
2622,F3,322.75,0.25,28,138.0
2623,B-5,323.0,0.25,74,138.0
2624,D5,323.0,0.25,74,138.0
2625,F5,323.0,0.25,74,138.0
2626,B-4,323.0,0.25,74,138.0
2627,F1,323.25,0.25,21,138.0
2628,F3,323.75,0.25,21,138.0
2629,B-1,324.25,0.25,84,138.0
2630,F3,324.5,0.75,72,138.0
2631,B-3,324.5,0.75,72,138.0
2632,D4,324.5,0.75,72,138.0
2633,F5,325.25,0.25,81,138.0
2634,D6,325.25,0.25,81,138.0
2635,B-5,325.25,0.25,81,138.0
2636,D5,325.25,0.25,81,138.0
2637,F3,325.25,0.25,65,138.0
2638,B-3,325.25,0.25,65,138.0
2639,D4,325.25,0.25,65,138.0
2640,D6,325.5,0.5,90,138.0
2641,D5,325.5,0.5,90,138.0
2642,D4,325.5,0.5,72,138.0
2643,B-3,325.5,0.5,72,138.0
2644,F3,325.5,0.5,72,138.0
2645,A5,326.0,0.094,74,138.0
2646,D5,326.0,0.094,74,138.0
2647,F#5,326.0,0.094,74,138.0
2648,D6,326.0,0.094,74,138.0
2649,D4,326.0,0.094,70,138.0
2650,B-3,326.0,0.094,70,138.0
2651,F3,326.0,0.094,70,138.0
2652,D6,326.25,0.094,75,138.0
2653,F#5,326.25,0.094,75,138.0
2654,D5,326.25,0.094,75,138.0
2655,A5,326.25,0.094,75,138.0
2656,F3,326.25,0.094,72,138.0
2657,D4,326.25,0.094,72,138.0
2658,B-3,326.25,0.094,72,138.0
2659,A5,326.5,0.25,81,138.0
2660,D6,326.5,0.25,81,138.0
2661,D5,326.5,0.25,81,138.0
2662,F#5,326.5,0.25,81,138.0
2663,B-3,326.5,0.25,72,138.0
2664,D4,326.5,0.25,72,138.0
2665,F3,326.5,0.25,72,138.0
2666,D6,327.0,0.25,74,138.0
2667,A5,327.0,0.25,74,138.0
2668,D5,327.0,0.25,74,138.0
2669,F#5,327.0,0.25,74,138.0
2670,D3,327.0,0.25,72,138.0
2671,F3,327.0,0.25,72,138.0
2672,B-3,327.0,0.25,72,138.0
2673,B-1,328.25,0.25,84,138.0
2674,F3,328.5,0.75,71,138.0
2675,D3,328.5,0.75,71,138.0
2676,B-3,328.5,0.75,71,138.0
2677,D4,328.5,0.75,71,138.0
2678,F#4,329.0,0.25,35,138.0
2679,D5,329.0,0.25,35,138.0
2680,A4,329.0,0.25,35,138.0
2681,F3,329.25,0.25,64,138.0
2682,D4,329.25,0.25,64,138.0
2683,D3,329.25,0.25,64,138.0
2684,B-3,329.25,0.25,64,138.0
2685,D3,329.5,0.5,89,138.0
2686,D4,329.5,0.5,89,138.0
2687,F#4,330.0,0.25,37,138.0
2688,A4,330.0,0.25,37,138.0
2689,D5,330.0,0.25,37,138.0
2690,D3,330.0,0.094,69,138.0
2691,D4,330.0,0.094,69,138.0
2692,F#3,330.0,0.094,69,138.0
2693,A3,330.0,0.094,69,138.0
2694,D3,330.25,0.094,71,138.0
2695,A3,330.25,0.094,71,138.0
2696,F#3,330.25,0.094,71,138.0
2697,D4,330.25,0.094,71,138.0
2698,F#3,330.5,0.25,71,138.0
2699,A3,330.5,0.25,71,138.0
2700,D3,330.5,0.25,71,138.0
2701,D4,330.5,0.25,71,138.0
2702,A4,331.0,0.25,39,138.0
2703,F#4,331.0,0.25,39,138.0
2704,D5,331.0,0.25,39,138.0
2705,D3,331.0,0.25,71,138.0
2706,D4,331.0,0.25,71,138.0
2707,F#3,331.0,0.25,71,138.0
2708,A3,331.0,0.25,71,138.0
2709,F#4,332.0,0.25,41,138.0
2710,A4,332.0,0.25,41,138.0
2711,D5,332.0,0.25,41,138.0
2712,D3,332.25,0.25,39,138.0
2713,D4,332.5,0.75,45,138.0
2714,D5,333.0,0.25,43,138.0
2715,C5,333.0,0.25,43,138.0
2716,F#5,333.0,0.25,43,138.0
2717,A4,333.0,0.25,43,138.0
2718,D3,333.25,0.25,40,138.0
2719,D4,333.5,0.75,47,138.0
2720,A4,334.0,0.25,45,138.0
2721,F#5,334.0,0.25,45,138.0
2722,C5,334.0,0.25,45,138.0
2723,D5,334.0,0.25,45,138.0
2724,D3,334.25,0.25,42,138.0
2725,D4,334.5,0.75,49,138.0
2726,A4,335.0,0.25,52,138.0
2727,C5,335.0,0.25,52,138.0
2728,A5,335.0,0.25,52,138.0
2729,F#5,335.0,0.25,52,138.0
2730,D3,335.25,0.25,41,138.0
2731,D4,335.5,0.75,52,138.0
2732,F#5,336.0,0.25,60,138.0
2733,C6,336.0,0.25,60,138.0
2734,C5,336.0,0.25,60,138.0
2735,A5,336.0,0.25,60,138.0
2736,D3,336.25,0.25,44,138.0
2737,C4,336.5,0.75,55,138.0
2738,A3,336.5,0.75,55,138.0
2739,C6,337.0,0.25,67,138.0
2740,F#5,337.0,0.25,67,138.0
2741,F#6,337.0,0.25,67,138.0
2742,A5,337.0,0.25,67,138.0
2743,D3,337.25,0.25,46,138.0
2744,C4,337.5,0.75,58,138.0
2745,A3,337.5,0.75,58,138.0
2746,C6,338.0,0.25,70,138.0
2747,A5,338.0,0.25,70,138.0
2748,A6,338.0,0.25,70,138.0
2749,D3,338.25,0.25,50,138.0
2750,A3,338.5,0.75,60,138.0
2751,F#3,338.5,0.75,60,138.0
2752,A6,339.0,0.25,73,138.0
2753,C6,339.0,0.25,73,138.0
2754,C7,339.0,0.25,73,138.0
2755,D3,339.25,0.25,52,138.0
2756,A2,339.5,0.75,63,138.0
2757,C6,340.0,0.25,74,138.0
2758,C7,340.0,0.25,74,138.0
2759,F#6,340.0,0.25,74,138.0
2760,A6,340.0,0.25,74,138.0
2761,D3,340.25,0.25,52,138.0
2762,A2,340.5,0.75,65,138.0
2763,A6,340.5,0.25,74,138.0
2764,C7,340.5,0.25,74,138.0
2765,C6,340.5,0.25,74,138.0
2766,F#6,340.5,0.25,74,138.0
2767,C6,341.0,0.25,57,138.0
2768,A5,341.0,0.25,57,138.0
2769,D3,341.25,0.25,57,138.0
2770,G#5,341.25,0.25,57,138.0
2771,B5,341.25,0.25,57,138.0
2772,G2,341.5,0.75,68,138.0
2773,A5,341.5,0.5,63,138.0
2774,C6,341.5,0.5,63,138.0
2775,F#4,342.0,0.25,52,138.0
2776,A4,342.0,0.25,52,138.0
2777,D3,342.25,0.25,57,138.0
2778,B-4,342.25,0.25,52,138.0
2779,G4,342.25,0.25,52,138.0
2780,F#2,342.5,0.75,71,138.0
2781,A4,342.5,0.5,58,138.0
2782,F#4,342.5,0.5,58,138.0
2783,C6,343.0,0.25,47,138.0
2784,A5,343.0,0.25,47,138.0
2785,D3,343.25,0.25,59,138.0
2786,G#5,343.25,0.25,47,138.0
2787,B5,343.25,0.25,47,138.0
2788,E-2,343.5,0.75,73,138.0
2789,A5,343.5,0.5,56,138.0
2790,C6,343.5,0.5,56,138.0
2791,F#6,344.0,0.25,47,138.0
2792,A6,344.25,0.25,47,138.0
2793,D3,344.25,0.25,67,138.0
2794,C7,344.5,0.25,57,138.0
2795,D3,344.5,0.5,70,138.0
2796,D2,344.5,0.5,70,138.0
2797,D7,344.75,0.25,48,138.0
2798,C7,345.0,0.25,49,138.0
2799,E-5,345.0,0.25,48,138.0
2800,B6,345.25,0.25,50,138.0
2801,D5,345.25,0.25,48,138.0
2802,C7,345.5,0.25,65,138.0
2803,E-5,345.5,0.5,54,138.0
2804,D7,345.75,0.25,57,138.0
2805,E7,346.0,0.25,66,138.0
2806,D5,346.0,0.25,44,138.0
2807,C7,346.25,0.25,58,138.0
2808,C#5,346.25,0.25,44,138.0
2809,A6,346.5,0.25,69,138.0
2810,D5,346.5,0.5,44,138.0
2811,B6,346.75,0.25,56,138.0
2812,C7,347.0,0.25,66,138.0
2813,E-4,347.0,0.25,43,138.0
2814,A6,347.25,0.25,54,138.0
2815,D4,347.25,0.25,43,138.0
2816,F#6,347.5,0.25,66,138.0
2817,E-4,347.5,0.5,51,138.0
2818,G6,347.75,0.25,53,138.0
2819,A6,348.0,0.25,61,138.0
2820,D4,348.0,0.25,43,138.0
2821,F#6,348.25,0.25,53,138.0
2822,C#4,348.25,0.25,43,138.0
2823,C6,348.5,0.25,47,138.0
2824,D4,348.5,0.5,51,138.0
2825,D6,348.75,0.25,47,138.0
2826,E6,349.0,0.25,58,138.0
2827,C6,349.25,0.25,47,138.0
2828,D3,349.25,0.25,42,138.0
2829,A5,349.5,0.25,47,138.0
2830,F#3,349.5,0.5,51,138.0
2831,B5,349.75,0.25,47,138.0
2832,C6,350.0,0.25,53,138.0
2833,A5,350.25,0.25,47,138.0
2834,A3,350.25,0.25,40,138.0
2835,F#5,350.5,0.25,47,138.0
2836,C4,350.5,0.5,51,138.0
2837,G5,350.75,0.25,47,138.0
2838,A5,351.0,0.25,52,138.0
2839,F#5,351.25,0.25,47,138.0
2840,F#4,351.25,0.25,43,138.0
2841,A4,351.5,0.5,51,138.0
2842,C5,351.5,0.5,47,138.0
2843,A4,351.5,0.5,47,138.0
2844,D5,351.5,0.5,47,138.0
2845,C5,352.0,0.25,45,138.0
2846,A4,352.25,0.25,45,138.0
2847,B6,352.5,0.25,57,138.0
2848,A5,352.5,0.25,40,138.0
2849,C7,352.75,0.25,48,138.0
2850,B5,352.75,0.25,40,138.0
2851,B6,353.0,0.25,49,138.0
2852,C6,353.0,0.25,44,138.0
2853,A6,353.25,0.25,50,138.0
2854,A5,353.25,0.25,40,138.0
2855,B6,353.5,0.25,65,138.0
2856,C5,353.5,0.25,40,138.0
2857,C7,353.75,0.25,57,138.0
2858,D5,353.75,0.25,40,138.0
2859,D7,354.0,0.25,66,138.0
2860,E5,354.0,0.25,45,138.0
2861,B6,354.25,0.25,58,138.0
2862,C5,354.25,0.25,40,138.0
2863,G6,354.5,0.25,69,138.0
2864,A4,354.5,0.25,40,138.0
2865,A6,354.75,0.25,56,138.0
2866,B4,354.75,0.25,40,138.0
2867,B6,355.0,0.25,66,138.0
2868,C5,355.0,0.25,45,138.0
2869,G6,355.25,0.25,54,138.0
2870,A4,355.25,123/500,40,138.0
2871,D6,355.5,0.25,66,138.0
2872,F#4,355.5,0.25,40,138.0
2873,F#6,355.75,0.25,53,138.0
2874,G4,355.75,0.25,40,138.0
2875,G6,356.0,0.25,61,138.0
2876,A4,356.0,0.25,45,138.0
2877,D6,356.25,0.25,53,138.0
2878,F#4,356.25,0.25,40,138.0
2879,B5,356.5,0.25,47,138.0
2880,G4,356.5,0.5,49,138.0
2881,B4,356.5,0.5,49,138.0
2882,D4,356.5,0.5,49,138.0
2883,C6,356.75,0.25,47,138.0
2884,D6,357.0,0.25,58,138.0
2885,B5,357.25,0.25,47,138.0
2886,D3,357.25,0.25,42,138.0
2887,G5,357.5,0.25,47,138.0
2888,G3,357.5,0.5,51,138.0
2889,A5,357.75,0.25,47,138.0
2890,B5,358.0,0.25,53,138.0
2891,G5,358.25,0.25,47,138.0
2892,B3,358.25,0.25,40,138.0
2893,D5,358.5,0.25,47,138.0
2894,D4,358.5,0.5,51,138.0
2895,F#5,358.75,0.25,47,138.0
2896,G5,359.0,0.25,52,138.0
2897,B4,359.25,0.25,47,138.0
2898,G4,359.25,0.25,43,138.0
2899,G4,359.5,0.25,40,138.0
2900,B4,359.5,0.5,51,138.0
2901,A4,359.75,0.25,40,138.0
2902,B4,360.0,123/500,45,138.0
2903,G4,360.25,0.25,40,138.0
2904,D5,360.25,0.25,45,138.0
2905,G5,360.5,0.25,40,138.0
2906,F#4,360.5,0.5,42,138.0
2907,A4,360.5,0.5,42,138.0
2908,D4,360.5,0.5,42,138.0
2909,A5,360.75,0.25,40,138.0
2910,E6,361.0,0.25,52,138.0
2911,B5,361.0,0.25,44,138.0
2912,D6,361.25,0.25,47,138.0
2913,G5,361.25,123/500,40,138.0
2914,E6,361.5,0.25,40,138.0
2915,B4,361.5,0.25,40,138.0
2916,D6,361.75,0.25,40,138.0
2917,C5,361.75,0.25,40,138.0
2918,C6,362.0,0.25,45,138.0
2919,D5,362.0,0.25,45,138.0
2920,E6,362.25,0.25,40,138.0
2921,B4,362.25,0.25,40,138.0
2922,C6,362.5,0.25,52,138.0
2923,G4,362.5,0.25,40,138.0
2924,B5,362.75,0.25,42,138.0
2925,A4,362.75,0.25,40,138.0
2926,A5,363.0,0.25,49,138.0
2927,B4,363.0,123/500,45,138.0
2928,C6,363.25,0.25,43,138.0
2929,G4,363.25,123/500,40,138.0
2930,A5,363.5,0.25,48,138.0
2931,B4,363.5,0.25,40,138.0
2932,G5,363.75,0.25,40,138.0
2933,C5,363.75,0.25,40,138.0
2934,F#5,364.0,0.25,45,138.0
2935,D5,364.0,0.25,45,138.0
2936,A5,364.25,0.25,40,138.0
2937,B4,364.25,0.25,40,138.0
2938,E5,364.5,0.25,52,138.0
2939,C5,364.5,0.25,40,138.0
2940,D5,364.75,0.25,42,138.0
2941,D5,364.75,0.25,40,138.0
2942,C5,365.0,0.25,49,138.0
2943,C5,365.0,0.25,45,138.0
2944,E5,365.25,0.25,43,138.0
2945,B4,365.25,0.25,40,138.0
2946,C5,365.5,0.25,48,138.0
2947,C5,365.5,0.25,40,138.0
2948,B4,365.75,0.25,40,138.0
2949,D5,365.75,0.25,40,138.0
2950,A4,366.0,0.25,45,138.0
2951,E5,366.0,0.25,45,138.0
2952,C5,366.25,0.25,40,138.0
2953,C5,366.25,0.25,40,138.0
2954,A4,366.5,0.25,52,138.0
2955,A4,366.5,0.25,46,138.0
2956,G4,366.75,0.25,42,138.0
2957,B4,366.75,0.25,38,138.0
2958,F#4,367.0,0.25,49,138.0
2959,C5,367.0,0.25,45,138.0
2960,A4,367.25,0.25,43,138.0
2961,A4,367.25,0.25,40,138.0
2962,C5,367.5,0.25,48,138.0
2963,F#4,367.5,0.25,45,138.0
2964,B4,367.75,0.25,40,138.0
2965,G4,367.75,0.25,36,138.0
2966,A4,368.0,0.25,45,138.0
2967,A4,368.0,0.25,41,138.0
2968,C5,368.25,0.25,40,138.0
2969,F#4,368.25,0.25,36,138.0
2970,C4,368.5,0.25,46,138.0
2971,D4,368.5,0.5,43,138.0
2972,G4,368.5,0.5,43,138.0
2973,D4,368.75,0.25,38,138.0
2974,D7,369.0,0.25,52,138.0
2975,E4,369.0,0.25,45,138.0
2976,C7,369.25,0.25,47,138.0
2977,C4,369.25,0.25,40,138.0
2978,D7,369.5,0.25,40,138.0
2979,A3,369.5,0.25,45,138.0
2980,C7,369.75,0.25,40,138.0
2981,B3,369.75,0.25,36,138.0
2982,B6,370.0,0.25,45,138.0
2983,C4,370.0,0.25,41,138.0
2984,D7,370.25,0.25,40,138.0
2985,A3,370.25,0.25,36,138.0
2986,B6,370.5,0.25,52,138.0
2987,F#3,370.5,0.25,46,138.0
2988,A6,370.75,0.25,42,138.0
2989,G3,370.75,0.25,38,138.0
2990,G6,371.0,0.25,49,138.0
2991,A3,371.0,0.25,45,138.0
2992,B6,371.25,0.25,43,138.0
2993,F#3,371.25,0.25,40,138.0
2994,B5,371.5,0.25,48,138.0
2995,A4,371.5,0.25,45,138.0
2996,A5,371.75,0.25,40,138.0
2997,G4,371.75,0.25,36,138.0
2998,G5,372.0,0.25,45,138.0
2999,F#4,372.0,0.25,41,138.0
3000,B5,372.25,0.25,40,138.0
3001,A4,372.25,0.25,36,138.0
3002,D5,372.5,0.25,52,138.0
3003,B4,372.5,0.25,40,138.0
3004,C5,372.75,0.25,42,138.0
3005,C5,372.75,0.25,40,138.0
3006,B4,373.0,0.25,49,138.0
3007,B4,373.0,0.25,45,138.0
3008,D5,373.25,0.25,43,138.0
3009,A4,373.25,0.25,40,138.0
3010,B5,373.5,0.25,48,138.0
3011,B4,373.5,0.25,40,138.0
3012,A5,373.75,0.25,40,138.0
3013,C5,373.75,0.25,40,138.0
3014,G5,374.0,0.25,45,138.0
3015,D5,374.0,0.25,45,138.0
3016,B5,374.25,0.25,40,138.0
3017,B4,374.25,0.25,40,138.0
3018,D6,374.5,0.25,62,138.0
3019,G4,374.5,0.25,46,138.0
3020,C6,374.75,0.25,51,138.0
3021,A4,374.75,0.25,38,138.0
3022,B5,375.0,0.25,61,138.0
3023,B4,375.0,0.25,45,138.0
3024,C6,375.25,0.25,52,138.0
3025,G4,375.25,0.25,40,138.0
3026,E6,375.5,0.5,62,138.0
3027,D4,375.5,0.25,45,138.0
3028,F#4,375.75,0.25,36,138.0
3029,G4,376.0,0.25,41,138.0
3030,D6,376.0,0.5,51,138.0
3031,A5,376.0,0.5,51,138.0
3032,F#6,376.0,0.5,51,138.0
3033,D4,376.25,0.25,36,138.0
3034,B3,376.5,0.25,46,138.0
3035,G5,376.5,0.5,51,138.0
3036,G6,376.5,0.5,51,138.0
3037,D6,376.5,0.5,51,138.0
3038,C4,376.75,0.25,38,138.0
3039,D4,377.0,0.25,45,138.0
3040,B3,377.25,0.25,40,138.0
3041,G3,377.5,0.25,45,138.0
3042,A3,377.75,0.25,36,138.0
3043,B3,378.0,0.25,41,138.0
3044,G3,378.25,0.25,36,138.0
3045,D3,378.5,0.25,46,138.0
3046,F#3,378.75,0.25,38,138.0
3047,G3,379.0,0.25,45,138.0
3048,A4,379.0,0.5,37,138.0
3049,F#4,379.0,0.5,37,138.0
3050,D3,379.25,0.25,40,138.0
3051,C3,379.5,0.25,45,138.0
3052,G4,379.5,0.25,35,138.0
3053,B4,379.5,0.25,35,138.0
3054,G3,379.75,0.25,36,138.0
3055,D3,380.0,0.25,41,138.0
3056,G6,380.0,0.25,43,138.0
3057,B5,380.0,0.25,43,138.0
3058,C3,380.25,0.25,36,138.0
3059,F#6,380.25,0.25,40,138.0
3060,A5,380.25,0.25,40,138.0
3061,B2,380.5,0.5,36,138.0
3062,B5,380.5,0.5,43,138.0
3063,G6,380.5,0.5,43,138.0
3064,G5,381.0,0.5,35,138.0
3065,B5,381.0,0.5,35,138.0
3066,E6,381.0,0.5,35,138.0
3067,G2,381.0,0.5,37,138.0
3068,G3,381.0,0.5,37,138.0
3069,A5,381.5,0.5,37,138.0
3070,D6,381.5,0.5,37,138.0
3071,F#5,381.5,0.5,37,138.0
3072,E3,381.5,0.25,33,138.0
3073,C3,381.5,0.25,33,138.0
3074,C4,382.0,0.25,40,138.0
3075,G5,382.0,0.5,33,138.0
3076,E5,382.0,0.5,33,138.0
3077,C#6,382.0,0.5,33,138.0
3078,A3,382.25,0.25,36,138.0
3079,F#3,382.5,0.5,36,138.0
3080,E6,382.5,0.5,42,138.0
3081,G5,382.5,0.5,42,138.0
3082,D6,383.0,62/125,33,138.0
3083,F#5,383.0,62/125,33,138.0
3084,D3,383.0,0.5,34,138.0
3085,D4,383.0,0.5,34,138.0
3086,F#5,383.5,0.5,33,138.0
3087,D6,383.5,0.5,33,138.0
3088,G3,383.5,0.25,33,138.0
3089,B3,383.5,0.25,33,138.0
3090,G5,384.0,0.25,42,138.0
3091,D6,384.0,0.25,42,138.0
3092,E4,384.0,0.5,33,138.0
3093,G3,384.0,0.5,33,138.0
3094,A5,384.25,0.25,37,138.0
3095,C6,384.25,0.25,37,138.0
3096,B5,384.5,0.5,46,138.0
3097,E4,384.5,0.5,33,138.0
3098,G3,384.5,0.5,33,138.0
3099,G6,385.0,0.25,51,138.0
3100,G5,385.0,0.75,43,138.0
3101,G3,385.0,0.5,33,138.0
3102,E4,385.0,0.5,33,138.0
3103,E6,385.5,0.25,46,138.0
3104,F#4,385.5,0.5,37,138.0
3105,A3,385.5,0.5,37,138.0
3106,G4,386.0,0.25,30,138.0
3107,A3,386.0,0.5,25,138.0
3108,C7,386.0,0.25,47,138.0
3109,C6,386.0,0.25,47,138.0
3110,A4,386.25,0.25,36,138.0
3111,E6,386.25,0.25,40,138.0
3112,A6,386.25,0.25,40,138.0
3113,F#6,386.5,0.5,51,138.0
3114,D4,386.5,1.5,30,138.0
3115,A4,386.5,0.5,36,138.0
3116,D6,387.0,0.75,47,138.0
3117,D7,387.0,0.5,56,138.0
3118,B4,387.0,0.375,36,138.0
3119,C#5,387.375,0.125,31,138.0
3120,B6,387.5,0.25,53,138.0
3121,D5,387.5,0.5,36,138.0
3122,G6,388.0,0.25,52,138.0
3123,E5,388.0,0.25,37,138.0
3124,F#6,388.25,0.25,45,138.0
3125,F#5,388.25,0.25,36,138.0
3126,G6,388.5,0.5,52,138.0
3127,G5,388.5,0.5,36,138.0
3128,E6,389.0,0.5,47,138.0
3129,B4,389.0,0.5,33,138.0
3130,D5,389.0,0.5,33,138.0
3131,C6,389.5,0.5,51,138.0
3132,E5,389.5,0.25,33,138.0
3133,C5,389.5,0.25,33,138.0
3134,A4,390.0,0.25,36,138.0
3135,F#5,390.0,0.5,40,138.0
3136,B5,390.0,0.5,40,138.0
3137,C5,390.25,0.25,32,138.0
3138,F#5,390.5,0.5,44,138.0
3139,B5,390.5,1.5,44,138.0
3140,D5,390.5,0.5,36,138.0
3141,A5,391.0,0.25,50,138.0
3142,A4,391.0,0.5,33,138.0
3143,F#4,391.0,0.5,33,138.0
3144,G5,391.25,123/500,44,138.0
3145,G5,391.5,0.5,49,138.0
3146,G4,391.5,0.25,34,138.0
3147,B4,391.5,0.25,34,138.0
3148,G5,392.0,0.5,46,138.0
3149,B-5,392.0,0.5,50,138.0
3150,E6,392.0,0.5,50,138.0
3151,A5,392.5,1.5,44,138.0
3152,G5,392.5,0.5,46,138.0
3153,E4,392.5,0.5,32,138.0
3154,G4,392.5,0.5,32,138.0
3155,B4,392.5,0.5,32,138.0
3156,G5,393.0,0.25,50,138.0
3157,E4,393.0,0.5,32,138.0
3158,C5,393.0,0.5,32,138.0
3159,G4,393.0,0.5,32,138.0
3160,F5,393.25,0.25,44,138.0
3161,F5,393.5,0.5,49,138.0
3162,G4,393.5,0.25,36,138.0
3163,E4,393.5,0.5,33,138.0
3164,C5,393.5,0.5,33,138.0
3165,A4,393.75,0.25,30,138.0
3166,F5,394.0,0.5,55,138.0
3167,D6,394.0,0.5,55,138.0
3168,G#5,394.0,0.5,55,138.0
3169,E-4,394.0,0.5,32,138.0
3170,F#4,394.0,0.5,32,138.0
3171,B4,394.0,0.5,32,138.0
3172,G5,394.5,1.5,44,138.0
3173,F5,394.5,0.5,55,138.0
3174,F#4,394.5,0.5,32,138.0
3175,B4,394.5,0.5,32,138.0
3176,E-4,394.5,0.5,32,138.0
3177,F5,395.0,0.25,50,138.0
3178,E-4,395.0,0.5,28,138.0
3179,B3,395.0,0.5,28,138.0
3180,E5,395.25,123/500,44,138.0
3181,E5,395.5,0.5,49,138.0
3182,G4,395.5,0.5,33,138.0
3183,E4,395.5,0.5,33,138.0
3184,E5,396.0,0.5,46,138.0
3185,G5,396.0,0.5,50,138.0
3186,C#6,396.0,0.5,50,138.0
3187,F4,396.0,0.25,37,138.0
3188,D4,396.0,0.25,37,138.0
3189,E4,396.25,31/125,33,138.0
3190,C#4,396.25,31/125,33,138.0
3191,F#5,396.5,1.5,44,138.0
3192,E5,396.5,0.5,46,138.0
3193,E4,396.5,0.5,33,138.0
3194,C#4,396.5,0.5,33,138.0
3195,E5,397.0,0.25,50,138.0
3196,C#4,397.0,0.5,28,138.0
3197,A3,397.0,0.5,28,138.0
3198,E-5,397.25,0.25,44,138.0
3199,D5,397.5,0.5,49,138.0
3200,F4,397.5,0.5,33,138.0
3201,D4,397.5,0.5,33,138.0
3202,F5,398.0,0.5,49,138.0
3203,B5,398.0,0.5,49,138.0
3204,D5,398.0,0.5,49,138.0
3205,E-4,398.0,0.25,37,138.0
3206,C4,398.0,0.25,37,138.0
3207,D4,398.25,0.25,33,138.0
3208,B3,398.25,0.25,33,138.0
3209,F5,398.5,0.25,55,138.0
3210,D5,398.5,0.5,46,138.0
3211,B3,398.5,0.5,33,138.0
3212,D4,398.5,0.5,33,138.0
3213,E5,398.75,0.5,46,138.0
3214,C#5,399.0,0.5,46,138.0
3215,G3,399.0,0.5,28,138.0
3216,B3,399.0,0.5,28,138.0
3217,A5,399.25,0.25,48,138.0
3218,E-5,399.5,0.25,55,138.0
3219,C5,399.5,0.5,46,138.0
3220,C4,399.5,0.5,33,138.0
3221,E4,399.5,0.5,33,138.0
3222,D5,399.75,0.5,47,138.0
3223,B4,400.0,0.5,46,138.0
3224,B3,400.0,0.25,37,138.0
3225,E-4,400.0,0.25,37,138.0
3226,G5,400.25,0.25,49,138.0
3227,B-3,400.25,31/125,33,138.0
3228,C#4,400.25,31/125,33,138.0
3229,D5,400.5,0.25,56,138.0
3230,B-3,400.5,0.5,33,138.0
3231,C#4,400.5,0.5,33,138.0
3232,D6,400.75,0.25,44,138.0
3233,C#6,401.0,0.25,45,138.0
3234,F#3,401.0,0.5,28,138.0
3235,B-3,401.0,0.5,28,138.0
3236,C6,401.25,0.25,46,138.0
3237,A5,401.5,0.25,47,138.0
3238,B3,401.5,0.5,33,138.0
3239,D4,401.5,0.5,33,138.0
3240,F#5,401.75,0.25,47,138.0
3241,E-5,402.0,0.25,48,138.0
3242,A3,402.0,0.25,37,138.0
3243,C#4,402.0,0.25,37,138.0
3244,D5,402.25,0.25,49,138.0
3245,B3,402.25,31/125,33,138.0
3246,G#3,402.25,31/125,33,138.0
3247,C#5,402.5,0.25,50,138.0
3248,B3,402.5,0.5,33,138.0
3249,G#3,402.5,0.5,33,138.0
3250,C5,402.75,0.25,51,138.0
3251,A4,403.0,0.25,52,138.0
3252,A3,403.0,0.25,36,138.0
3253,E4,403.0,0.5,30,138.0
3254,F#4,403.25,0.25,53,138.0
3255,G3,403.25,0.25,30,138.0
3256,G4,403.5,0.5,51,138.0
3257,E-4,403.5,0.25,61,138.0
3258,A3,403.5,0.5,33,138.0
3259,F#3,403.5,0.5,33,138.0
3260,D4,403.75,0.25,47,138.0
3261,G4,404.0,0.5,49,138.0
3262,E5,404.0,0.25,58,138.0
3263,G3,404.0,0.25,36,138.0
3264,B3,404.0,0.5,30,138.0
3265,D5,404.25,0.25,47,138.0
3266,B2,404.25,0.25,32,138.0
3267,D5,404.5,0.25,56,138.0
3268,A2,404.5,2.0,27,138.0
3269,D3,404.5,2.0,27,138.0
3270,C4,404.5,2.0,27,138.0
3271,D6,404.75,0.25,44,138.0
3272,C#6,405.0,0.25,45,138.0
3273,C6,405.25,0.25,46,138.0
3274,A5,405.5,0.25,47,138.0
3275,F#5,405.75,0.25,47,138.0
3276,E-5,406.0,0.25,48,138.0
3277,D5,406.25,0.25,49,138.0
3278,C#5,406.5,0.25,50,138.0
3279,C5,406.75,0.25,51,138.0
3280,A4,407.0,0.25,52,138.0
3281,F#4,407.25,0.25,53,138.0
3282,G4,407.5,0.5,51,138.0
3283,E-4,407.5,0.25,61,138.0
3284,A2,407.5,1.0,27,138.0
3285,D3,407.5,1.0,27,138.0
3286,C4,407.5,1.0,27,138.0
3287,D4,407.75,0.25,47,138.0
3288,G4,408.0,0.5,49,138.0
3289,E5,408.0,0.25,58,138.0
3290,D5,408.25,0.25,47,138.0
3291,D5,408.5,0.25,52,138.0
3292,B3,408.5,1.0,27,138.0
3293,B2,408.5,1.0,27,138.0
3294,D3,408.5,1.0,27,138.0
3295,B4,408.75,0.25,50,138.0
3296,G5,408.75,0.25,50,138.0
3297,B5,409.0,0.25,54,138.0
3298,D5,409.0,0.25,54,138.0
3299,C5,409.25,0.25,48,138.0
3300,A5,409.25,0.25,48,138.0
3301,B4,409.5,0.25,58,138.0
3302,G5,409.5,1.0,58,138.0
3303,A2,409.5,2.0,27,138.0
3304,C4,409.5,2.0,27,138.0
3305,D3,409.5,2.0,27,138.0
3306,E-5,409.75,0.25,50,138.0
3307,E5,410.0,0.25,55,138.0
3308,B4,410.25,0.25,50,138.0
3309,B-4,410.5,0.25,54,138.0
3310,G5,410.5,1.0,58,138.0
3311,E-5,410.75,0.25,58,138.0
3312,E5,411.0,0.25,58,138.0
3313,B-4,411.25,0.25,53,138.0
3314,A4,411.5,0.25,56,138.0
3315,C#5,411.75,0.25,50,138.0
3316,D5,412.0,0.25,60,138.0
3317,D6,412.25,0.25,54,138.0
3318,D6,412.5,0.25,61,138.0
3319,A2,412.5,1.0,27,138.0
3320,C4,412.5,1.0,27,138.0
3321,D3,412.5,1.0,27,138.0
3322,D7,412.75,0.25,48,138.0
3323,C#7,413.0,0.25,49,138.0
3324,C7,413.25,0.25,50,138.0
3325,A6,413.5,0.25,51,138.0
3326,B2,413.5,1.0,27,138.0
3327,B3,413.5,1.0,27,138.0
3328,D3,413.5,1.0,27,138.0
3329,F#6,413.75,0.25,51,138.0
3330,E-6,414.0,0.25,52,138.0
3331,D6,414.25,0.25,53,138.0
3332,C#6,414.5,0.25,55,138.0
3333,B1,414.5,1.0,28,138.0
3334,B2,414.5,1.0,28,138.0
3335,C6,414.75,0.25,56,138.0
3336,A5,415.0,0.25,64,138.0
3337,F#5,415.25,0.25,67,138.0
3338,E-5,415.5,0.25,72,138.0
3339,G5,415.5,0.5,60,138.0
3340,E3,415.5,1.0,26,138.0
3341,E2,415.5,1.0,26,138.0
3342,D5,415.75,0.25,51,138.0
3343,G5,416.0,0.5,53,138.0
3344,E6,416.0,0.25,63,138.0
3345,D6,416.25,0.25,51,138.0
3346,D6,416.5,0.25,61,138.0
3347,C#2,416.5,1.0,28,138.0
3348,C#3,416.5,1.0,28,138.0
3349,D7,416.75,0.25,48,138.0
3350,C#7,417.0,0.25,49,138.0
3351,C7,417.25,0.25,50,138.0
3352,A6,417.5,0.25,51,138.0
3353,D3,417.5,0.5,26,138.0
3354,D2,417.5,0.5,26,138.0
3355,F#6,417.75,0.25,51,138.0
3356,E-6,418.0,0.25,52,138.0
3357,D6,418.25,0.25,53,138.0
3358,C#6,418.5,0.25,57,138.0
3359,D4,418.5,2.0,27,138.0
3360,C5,418.5,2.0,27,138.0
3361,A3,418.5,2.0,27,138.0
3362,C6,418.75,0.25,53,138.0
3363,A5,419.0,0.25,61,138.0
3364,F#5,419.25,0.25,63,138.0
3365,E-5,419.5,0.25,67,138.0
3366,G5,419.5,0.5,54,138.0
3367,D5,419.75,0.25,51,138.0
3368,E6,420.0,0.25,63,138.0
3369,G5,420.0,0.5,53,138.0
3370,D6,420.25,0.25,51,138.0
3371,D6,420.5,0.25,56,138.0
3372,G5,420.75,0.25,50,138.0
3373,B4,420.75,0.25,50,138.0
3374,D5,421.0,0.25,54,138.0
3375,B5,421.0,0.25,54,138.0
3376,C5,421.25,0.25,48,138.0
3377,A5,421.25,0.25,48,138.0
3378,G5,421.5,1.0,58,138.0
3379,B4,421.5,0.25,58,138.0
3380,D4,421.5,1.0,27,138.0
3381,C5,421.5,1.0,27,138.0
3382,A3,421.5,1.0,27,138.0
3383,E-5,421.75,0.25,50,138.0
3384,E5,422.0,0.25,55,138.0
3385,B4,422.25,0.25,50,138.0
3386,B-4,422.5,0.25,54,138.0
3387,G5,422.5,1.0,58,138.0
3388,B4,422.5,1.0,27,138.0
3389,B3,422.5,1.0,27,138.0
3390,D4,422.5,1.0,27,138.0
3391,E-5,422.75,0.25,58,138.0
3392,E5,423.0,0.25,58,138.0
3393,B-4,423.25,0.25,53,138.0
3394,F#5,423.5,0.5,54,138.0
3395,A4,423.5,0.25,56,138.0
3396,A2,423.5,2.0,27,138.0
3397,D3,423.5,2.0,27,138.0
3398,C4,423.5,2.0,27,138.0
3399,D5,423.75,0.25,50,138.0
3400,G5,424.0,0.5,54,138.0
3401,G4,424.0,0.25,60,138.0
3402,C5,424.25,0.25,50,138.0
3403,G5,424.5,0.25,54,138.0
3404,E5,424.75,0.25,52,138.0
3405,C6,424.75,0.25,52,138.0
3406,G5,425.0,0.25,57,138.0
3407,E6,425.0,0.25,57,138.0
3408,D6,425.25,0.25,52,138.0
3409,F5,425.25,0.25,52,138.0
3410,C6,425.5,1.0,63,138.0
3411,E5,425.5,0.25,63,138.0
3412,G#5,425.75,0.25,55,138.0
3413,A5,426.0,0.25,61,138.0
3414,E-5,426.25,0.25,56,138.0
3415,E-5,426.5,0.25,61,138.0
3416,C6,426.5,1.0,63,138.0
3417,A2,426.5,1.0,27,138.0
3418,D3,426.5,1.0,27,138.0
3419,C4,426.5,1.0,27,138.0
3420,G#5,426.75,0.25,66,138.0
3421,A5,427.0,0.25,66,138.0
3422,E-5,427.25,0.25,62,138.0
3423,B5,427.5,0.5,63,138.0
3424,D5,427.5,0.25,66,138.0
3425,D3,427.5,0.5,27,138.0
3426,B2,427.5,0.5,27,138.0
3427,B3,427.5,0.5,27,138.0
3428,G5,427.75,0.25,59,138.0
3429,C5,428.0,0.25,72,138.0
3430,C6,428.0,0.5,64,138.0
3431,B3,428.0,62/125,30,138.0
3432,F5,428.25,0.25,60,138.0
3433,C6,428.5,0.25,63,138.0
3434,B3,428.5,1.0,30,138.0
3435,A5,428.75,0.25,60,138.0
3436,F6,428.75,0.25,60,138.0
3437,A6,429.0,0.25,66,138.0
3438,C6,429.0,0.25,66,138.0
3439,G6,429.25,0.25,60,138.0
3440,B-5,429.25,0.25,60,138.0
3441,F6,429.5,1.0,73,138.0
3442,G#5,429.5,0.25,73,138.0
3443,E4,429.5,1.0,28,138.0
3444,F5,429.75,0.25,63,138.0
3445,G#5,430.0,0.25,70,138.0
3446,G5,430.25,0.25,65,138.0
3447,G#5,430.5,0.25,70,138.0
3448,F6,430.5,1.0,73,138.0
3449,C#4,430.5,1.0,30,138.0
3450,C#6,430.75,0.25,73,138.0
3451,D6,431.0,0.25,77,138.0
3452,G#5,431.25,0.25,71,138.0
3453,G5,431.5,0.25,75,138.0
3454,E6,431.5,1.0,78,138.0
3455,D4,431.5,0.5,29,138.0
3456,B5,431.75,0.25,68,138.0
3457,C6,432.0,0.25,82,138.0
3458,E-4,432.0,0.5,29,138.0
3459,G5,432.25,0.25,69,138.0
3460,C6,432.5,0.5,74,138.0
3461,E6,432.5,0.5,78,138.0
3462,E4,432.5,1.0,31,138.0
3463,E5,433.0,0.5,82,138.0
3464,C6,433.0,0.5,82,138.0
3465,G5,433.0,0.5,82,138.0
3466,E6,433.0,0.5,82,138.0
3467,A4,433.5,1.0,30,138.0
3468,B5,433.5,0.5,81,138.0
3469,D6,433.5,0.5,81,138.0
3470,C6,434.0,0.25,80,138.0
3471,E6,434.0,0.25,80,138.0
3472,F6,434.25,0.25,85,138.0
3473,D6,434.25,0.25,85,138.0
3474,F#4,434.5,1.0,33,138.0
3475,G6,434.5,0.25,88,138.0
3476,E6,434.5,0.25,88,138.0
3477,C6,435.0,0.25,84,138.0
3478,E6,435.0,0.25,84,138.0
3479,G4,435.5,0.5,34,138.0
3480,G#4,436.0,0.5,34,138.0
3481,A4,436.5,1.0,36,138.0
3482,E6,437.0,0.5,82,138.0
3483,G5,437.0,0.5,82,138.0
3484,C6,437.0,0.5,82,138.0
3485,E5,437.0,0.5,82,138.0
3486,C#5,437.5,1.0,35,138.0
3487,B5,437.5,0.5,81,138.0
3488,D6,437.5,0.5,81,138.0
3489,E6,438.0,0.25,80,138.0
3490,C6,438.0,0.25,80,138.0
3491,D6,438.25,0.25,85,138.0
3492,F6,438.25,0.25,85,138.0
3493,B4,438.5,1.0,39,138.0
3494,G6,438.5,0.25,88,138.0
3495,E6,438.5,0.25,88,138.0
3496,G6,439.0,0.5,90,138.0
3497,E6,439.0,0.5,90,138.0
3498,A5,439.0,0.5,90,138.0
3499,G5,439.0,0.5,90,138.0
3500,C4,439.5,1.0,39,138.0
3501,C5,439.5,1.0,39,138.0
3502,C#6,440.0,0.5,90,138.0
3503,E6,440.0,0.5,90,138.0
3504,G6,440.0,0.5,90,138.0
3505,G5,440.0,0.5,90,138.0
3506,G6,441.0,0.5,90,138.0
3507,B5,441.0,0.5,90,138.0
3508,D6,441.0,0.5,90,138.0
3509,G5,441.0,0.5,90,138.0
3510,C4,441.0,0.5,39,138.0
3511,C5,441.0,0.5,39,138.0
3512,C3,441.5,0.5,61,138.0
3513,C2,441.5,0.5,61,138.0
3514,G5,442.0,0.5,90,138.0
3515,C#6,442.0,0.5,90,138.0
3516,A5,442.0,0.5,90,138.0
3517,G6,442.0,0.5,90,138.0
3518,G6,442.5,1.0,68,138.0
3519,G5,442.5,1.0,68,138.0
3520,B5,442.5,1.0,68,138.0
3521,D6,442.5,1.0,68,138.0
3522,D6,443.5,1.0,57,138.0
3523,G5,443.5,1.0,57,138.0
3524,B5,443.5,1.0,57,138.0
3525,C4,443.5,0.25,76,138.0
3526,E4,443.5,0.25,76,138.0
3527,B3,444.0,0.5,73,138.0
3528,D4,444.0,0.5,73,138.0
3529,C4,444.5,0.25,74,138.0
3530,E4,444.5,0.25,74,138.0
3531,D4,444.75,0.25,78,138.0
3532,F4,444.75,0.25,78,138.0
3533,D6,445.0,0.5,57,138.0
3534,G5,445.0,0.5,57,138.0
3535,B5,445.0,0.5,57,138.0
3536,E4,445.0,0.25,81,138.0
3537,G4,445.0,0.25,81,138.0
3538,D5,445.5,0.5,56,138.0
3539,G5,445.5,0.5,56,138.0
3540,B5,445.5,0.5,56,138.0
3541,C2,445.5,0.5,61,138.0
3542,C3,445.5,0.5,61,138.0
3543,D5,446.0,0.25,56,138.0
3544,F#5,446.25,0.25,57,138.0
3545,G5,446.5,0.25,58,138.0
3546,B5,446.75,0.25,59,138.0
3547,C#6,447.0,0.25,60,138.0
3548,D6,447.25,0.25,61,138.0
3549,E6,447.5,0.25,62,138.0
3550,C#2,447.5,0.5,68,138.0
3551,C#3,447.5,0.5,68,138.0
3552,D6,447.75,0.25,62,138.0
3553,F#6,448.0,0.25,63,138.0
3554,G6,448.25,0.25,64,138.0
3555,A6,448.5,0.25,65,138.0
3556,A2,448.5,0.5,73,138.0
3557,A1,448.5,0.5,73,138.0
3558,G6,448.75,0.25,66,138.0
3559,B-6,449.0,0.25,67,138.0
3560,B6,449.25,0.25,68,138.0
3561,C7,449.5,0.25,69,138.0
3562,D2,449.5,0.5,68,138.0
3563,D3,449.5,0.5,68,138.0
3564,B6,449.75,0.25,70,138.0
3565,D7,450.0,0.5,71,138.0
3566,A5,450.5,0.5,63,138.0
3567,D5,450.5,0.5,63,138.0
3568,C6,450.5,0.5,63,138.0
3569,E2,450.5,0.5,73,138.0
3570,E3,450.5,0.5,73,138.0
3571,D2,451.0,0.25,50,138.0
3572,B5,451.0,2.0,52,138.0
3573,G5,451.0,2.0,52,138.0
3574,D5,451.0,2.0,52,138.0
3575,F#2,451.25,0.25,50,138.0
3576,G2,451.5,0.25,50,138.0
3577,B2,451.75,0.25,50,138.0
3578,D3,452.0,0.25,50,138.0
3579,F#3,452.25,0.25,50,138.0
3580,G3,452.5,0.25,50,138.0
3581,B3,452.75,0.25,50,138.0
3582,D4,453.0,0.25,50,138.0
3583,C6,453.0,1.0,52,138.0
3584,G5,453.0,1.0,52,138.0
3585,F#4,453.25,0.25,50,138.0
3586,G4,453.5,0.25,50,138.0
3587,B4,453.75,0.25,50,138.0
3588,C6,454.0,1.0,54,138.0
3589,G5,454.0,1.0,54,138.0
3590,E-6,454.0,1.0,54,138.0
3591,G4,454.5,0.25,43,138.0
3592,B4,454.75,0.25,44,138.0
3593,D6,455.0,1.0,67,138.0
3594,C#5,455.0,0.25,45,138.0
3595,G6,455.0,2.0,56,138.0
3596,G5,455.0,2.0,56,138.0
3597,D5,455.25,0.25,46,138.0
3598,E5,455.5,0.25,47,138.0
3599,D5,455.75,0.25,48,138.0
3600,B5,456.0,1.0,61,138.0
3601,F#5,456.0,0.25,50,138.0
3602,G5,456.25,0.25,51,138.0
3603,A5,456.5,0.25,52,138.0
3604,G5,456.75,0.25,53,138.0
3605,B-5,457.0,0.25,54,138.0
3606,C6,457.0,1.0,54,138.0
3607,G5,457.0,1.0,54,138.0
3608,E-6,457.0,1.0,54,138.0
3609,B5,457.25,0.25,55,138.0
3610,C6,457.5,0.25,56,138.0
3611,B5,457.75,0.25,58,138.0
3612,D6,458.0,0.5,59,138.0
3613,G5,458.0,1.0,58,138.0
3614,C6,458.0,1.0,58,138.0
3615,D4,458.5,167/1000,60,138.0
3616,E4,458.667,167/1000,63,138.0
3617,F#4,458.833,167/1000,66,138.0
3618,B-5,459.0,1.0,66,138.0
3619,G5,459.0,2.0,56,138.0
3620,G3,459.0,333/1000,40,138.0
3621,B4,459.333,333/1000,32,138.0
3622,G4,459.667,333/1000,32,138.0
3623,B5,460.0,1.0,59,138.0
3624,F#4,460.0,333/1000,40,138.0
3625,B4,460.333,333/1000,33,138.0
3626,G4,460.667,333/1000,33,138.0
3627,E-4,461.0,333/1000,40,138.0
3628,F#5,461.0,1.0,59,138.0
3629,D6,461.0,1.0,59,138.0
3630,C5,461.333,333/1000,31,138.0
3631,G4,461.667,333/1000,31,138.0
3632,C4,462.0,333/1000,40,138.0
3633,C6,462.0,0.75,58,138.0
3634,A5,462.0,0.75,58,138.0
3635,C5,462.333,333/1000,33,138.0
3636,D5,462.5,0.5,52,138.0
3637,G4,462.667,333/1000,33,138.0
3638,F#5,462.75,0.25,52,138.0
3639,A5,462.75,0.25,52,138.0
3640,G5,463.0,169/1000,49,138.0
3641,D5,463.0,0.5,49,138.0
3642,B5,463.0,2.0,58,138.0
3643,B3,463.0,333/1000,40,138.0
3644,A5,463.169,167/1000,42,138.0
3645,B4,463.333,333/1000,31,138.0
3646,G5,463.335,169/1000,49,138.0
3647,A5,463.502,169/1000,44,138.0
3648,G4,463.667,333/1000,31,138.0
3649,G5,463.671,167/1000,49,138.0
3650,A5,463.837,169/1000,44,138.0
3651,G5,464.0,169/1000,50,138.0
3652,G3,464.0,333/1000,40,138.0
3653,A5,464.169,167/1000,44,138.0
3654,B4,464.333,333/1000,32,138.0
3655,G5,464.335,169/1000,50,138.0
3656,A5,464.502,169/1000,46,138.0
3657,G4,464.667,333/1000,32,138.0
3658,G5,464.671,167/1000,51,138.0
3659,A5,464.837,81/500,45,138.0
3660,C6,465.0,1.0,67,138.0
3661,G5,465.0,169/1000,51,138.0
3662,A5,465.0,3/500,45,138.0
3663,C4,465.0,333/1000,40,138.0
3664,A5,465.169,167/1000,44,138.0
3665,C5,465.333,333/1000,33,138.0
3666,G5,465.335,169/1000,52,138.0
3667,A5,465.502,169/1000,47,138.0
3668,G4,465.667,333/1000,33,138.0
3669,G5,465.671,167/1000,52,138.0
3670,A5,465.837,169/1000,47,138.0
3671,G5,466.0,169/1000,53,138.0
3672,E6,466.0,1.0,73,138.0
3673,E-4,466.0,333/1000,40,138.0
3674,A5,466.169,167/1000,47,138.0
3675,C5,466.333,333/1000,32,138.0
3676,G5,466.335,169/1000,54,138.0
3677,A5,466.502,169/1000,48,138.0
3678,G4,466.667,333/1000,32,138.0
3679,G5,466.671,167/1000,54,138.0
3680,A5,466.837,81/500,48,138.0
3681,G6,467.0,2.0,67,138.0
3682,G5,467.0,169/1000,55,138.0
3683,A5,467.0,3/500,48,138.0
3684,D4,467.0,333/1000,40,138.0
3685,A5,467.169,167/1000,47,138.0
3686,B-4,467.333,333/1000,32,138.0
3687,G5,467.335,169/1000,55,138.0
3688,A5,467.502,169/1000,50,138.0
3689,G4,467.667,333/1000,32,138.0
3690,G5,467.671,167/1000,56,138.0
3691,A5,467.837,169/1000,51,138.0
3692,G5,468.0,169/1000,56,138.0
3693,D4,468.0,333/1000,40,138.0
3694,A5,468.169,167/1000,50,138.0
3695,B4,468.333,333/1000,36,138.0
3696,G5,468.335,169/1000,57,138.0
3697,A5,468.502,169/1000,51,138.0
3698,G4,468.667,333/1000,36,138.0
3699,G5,468.671,167/1000,57,138.0
3700,A5,468.837,81/500,51,138.0
3701,E6,469.0,1.0,72,138.0
3702,G5,469.0,169/1000,58,138.0
3703,A5,469.0,3/500,51,138.0
3704,D4,469.0,333/1000,40,138.0
3705,A5,469.169,167/1000,50,138.0
3706,C5,469.333,333/1000,33,138.0
3707,G5,469.335,169/1000,59,138.0
3708,A5,469.502,169/1000,53,138.0
3709,A4,469.667,333/1000,33,138.0
3710,G5,469.671,167/1000,59,138.0
3711,A5,469.837,169/1000,53,138.0
3712,G5,470.0,169/1000,60,138.0
3713,C6,470.0,1.0,77,138.0
3714,D3,470.0,333/1000,40,138.0
3715,A5,470.169,167/1000,52,138.0
3716,D4,470.333,333/1000,34,138.0
3717,G5,470.335,169/1000,60,138.0
3718,A5,470.502,169/1000,55,138.0
3719,C4,470.667,333/1000,34,138.0
3720,G5,470.671,167/1000,61,138.0
3721,A5,470.837,81/500,54,138.0
3722,B-5,471.0,0.5,83,138.0
3723,G5,471.0,169/1000,61,138.0
3724,A5,471.0,3/500,54,138.0
3725,G2,471.0,0.25,40,138.0
3726,A5,471.169,167/1000,53,138.0
3727,G3,471.25,0.25,33,138.0
3728,G5,471.335,169/1000,62,138.0
3729,B5,471.5,1.0,75,138.0
3730,B3,471.5,0.25,33,138.0
3731,A5,471.502,169/1000,56,138.0
3732,G5,471.671,167/1000,62,138.0
3733,G3,471.75,0.25,33,138.0
3734,A5,471.837,169/1000,56,138.0
3735,G5,472.0,169/1000,63,138.0
3736,F#3,472.0,0.25,41,138.0
3737,A5,472.169,167/1000,55,138.0
3738,G3,472.25,0.25,35,138.0
3739,G5,472.335,169/1000,64,138.0
3740,D6,472.5,0.5,86,138.0
3741,G4,472.5,0.25,35,138.0
3742,A5,472.502,169/1000,57,138.0
3743,G5,472.671,167/1000,64,138.0
3744,G3,472.75,0.25,35,138.0
3745,A5,472.837,81/500,56,138.0
3746,D6,473.0,169/1000,75,138.0
3747,A5,473.0,3/500,56,138.0
3748,E3,473.0,0.25,42,138.0
3749,E6,473.169,167/1000,66,138.0
3750,G3,473.25,0.25,36,138.0
3751,D6,473.335,169/1000,75,138.0
3752,D5,473.5,0.5,60,138.0
3753,G4,473.5,0.25,36,138.0
3754,E6,473.502,169/1000,64,138.0
3755,D6,473.671,167/1000,75,138.0
3756,G3,473.75,0.25,37,138.0
3757,E6,473.837,169/1000,68,138.0
3758,D6,474.0,169/1000,78,138.0
3759,C3,474.0,0.25,44,138.0
3760,E6,474.169,167/1000,69,138.0
3761,G3,474.25,0.25,37,138.0
3762,D6,474.335,169/1000,75,138.0
3763,C#6,474.5,0.25,75,138.0
3764,E4,474.5,0.25,37,138.0
3765,D6,474.75,0.25,79,138.0
3766,G3,474.75,0.25,38,138.0
3767,B2,475.0,0.25,45,138.0
3768,D6,475.0,0.25,76,138.0
3769,B6,475.0,0.25,76,138.0
3770,D7,475.0,0.25,76,138.0
3771,F6,475.0,0.25,76,138.0
3772,G3,475.25,0.25,37,138.0
3773,D4,475.5,0.25,37,138.0
3774,F6,475.5,1.0,69,138.0
3775,B6,475.5,1.0,69,138.0
3776,D6,475.5,1.0,69,138.0
3777,D7,475.5,1.0,69,138.0
3778,G3,475.75,0.25,37,138.0
3779,G2,476.0,0.25,46,138.0
3780,G3,476.25,0.25,39,138.0
3781,B3,476.5,0.25,40,138.0
3782,D6,476.5,0.25,69,138.0
3783,C6,476.5,0.25,69,138.0
3784,C7,476.5,0.25,69,138.0
3785,F6,476.5,0.25,69,138.0
3786,G3,476.75,0.25,40,138.0
3787,C3,477.0,0.25,48,138.0
3788,D6,477.0,0.25,70,138.0
3789,B6,477.0,0.25,70,138.0
3790,B5,477.0,0.25,70,138.0
3791,F6,477.0,0.25,70,138.0
3792,G3,477.25,0.25,42,138.0
3793,E4,477.5,0.25,42,138.0
3794,C7,477.5,0.25,73,138.0
3795,F6,477.5,0.25,73,138.0
3796,C6,477.5,0.25,73,138.0
3797,D6,477.5,0.25,73,138.0
3798,G3,477.75,0.25,42,138.0
3799,E3,478.0,0.25,51,138.0
3800,F6,478.0,0.25,73,138.0
3801,D6,478.0,0.25,73,138.0
3802,D7,478.0,0.25,73,138.0
3803,G3,478.25,0.25,43,138.0
3804,G4,478.5,0.25,43,138.0
3805,E6,478.5,0.25,61,138.0
3806,B6,478.5,0.25,61,138.0
3807,B5,478.5,0.25,61,138.0
3808,D6,478.5,0.25,61,138.0
3809,G3,478.75,0.25,43,138.0
3810,D3,479.0,0.25,50,138.0
3811,C6,479.0,0.25,53,138.0
3812,E6,479.0,0.25,53,138.0
3813,C7,479.0,0.25,53,138.0
3814,E3,479.25,0.25,44,138.0
3815,F#3,479.5,0.25,48,138.0
3816,E6,479.5,0.25,47,138.0
3817,D6,479.5,0.25,47,138.0
3818,B5,479.5,0.25,47,138.0
3819,B6,479.5,0.25,47,138.0
3820,G3,479.75,0.25,51,138.0
3821,A3,480.0,0.25,54,138.0
3822,C6,480.0,0.25,53,138.0
3823,E6,480.0,0.25,53,138.0
3824,C7,480.0,0.25,53,138.0
3825,B3,480.25,0.25,55,138.0
3826,A3,480.5,0.25,55,138.0
3827,C6,480.5,0.25,47,138.0
3828,A5,480.5,0.25,47,138.0
3829,A6,480.5,0.25,47,138.0
3830,E6,480.5,0.25,47,138.0
3831,G3,480.75,0.25,54,138.0
3832,F#3,481.0,0.25,54,138.0
3833,G6,481.0,0.25,53,138.0
3834,E6,481.0,0.25,53,138.0
3835,A5,481.0,0.25,53,138.0
3836,G3,481.25,0.25,49,138.0
3837,F#3,481.5,0.25,49,138.0
3838,C#6,481.5,0.25,48,138.0
3839,G6,481.5,0.25,48,138.0
3840,A5,481.5,0.25,48,138.0
3841,E3,481.75,0.25,49,138.0
3842,D3,482.0,0.25,54,138.0
3843,A5,482.0,0.25,53,138.0
3844,C6,482.0,0.25,53,138.0
3845,F#6,482.0,0.25,53,138.0
3846,C3,482.25,0.25,50,138.0
3847,B2,482.5,0.25,59,138.0
3848,A5,482.5,0.25,48,138.0
3849,A6,482.5,0.25,48,138.0
3850,C6,482.5,0.25,48,138.0
3851,A2,482.75,0.25,66,138.0
3852,G1,483.0,0.25,66,138.0
3853,G5,483.0,0.25,58,138.0
3854,B5,483.0,0.25,58,138.0
3855,G6,483.0,0.25,58,138.0
3856,G2,483.25,0.25,56,138.0
3857,G1,483.5,0.25,66,138.0
3858,D6,483.5,0.25,53,138.0
3859,D5,483.5,0.25,53,138.0
3860,B5,483.5,0.25,53,138.0
3861,G2,483.75,0.25,56,138.0
3862,G1,484.0,0.25,66,138.0
3863,F#6,484.0,0.25,62,138.0
3864,C6,484.0,0.25,62,138.0
3865,F#5,484.0,0.25,62,138.0
3866,G2,484.25,0.25,57,138.0
3867,G1,484.5,0.25,66,138.0
3868,C6,484.5,0.25,58,138.0
3869,A6,484.5,0.25,58,138.0
3870,F#6,484.5,0.25,58,138.0
3871,A5,484.5,0.25,58,138.0
3872,G2,484.75,0.25,57,138.0
3873,G1,485.0,0.25,66,138.0
3874,G5,485.0,0.25,67,138.0
3875,G6,485.0,0.25,67,138.0
3876,B5,485.0,0.25,67,138.0
3877,G2,485.25,0.25,57,138.0
3878,G1,485.5,0.25,66,138.0
3879,D5,485.5,0.25,62,138.0
3880,B5,485.5,0.25,62,138.0
3881,D6,485.5,0.25,62,138.0
3882,G2,485.75,0.25,58,138.0
3883,G1,486.0,0.25,66,138.0
3884,C6,486.0,0.25,73,138.0
3885,F#5,486.0,0.25,73,138.0
3886,F#6,486.0,0.25,73,138.0
3887,G2,486.25,0.25,59,138.0
3888,G#1,486.5,0.25,45,138.0
3889,F#6,486.5,0.25,67,138.0
3890,A6,486.5,0.25,67,138.0
3891,C6,486.5,0.25,67,138.0
3892,A5,486.5,0.25,67,138.0
3893,G#2,486.75,0.25,34,138.0
3894,G5,487.0,0.25,77,138.0
3895,A1,487.0,0.25,43,138.0
3896,G6,487.25,0.25,70,138.0
3897,A2,487.25,0.25,33,138.0
3898,D5,487.5,0.25,79,138.0
3899,G#1,487.5,0.25,43,138.0
3900,D6,487.75,0.25,73,138.0
3901,G#2,487.75,0.25,33,138.0
3902,F#5,488.0,0.25,82,138.0
3903,A1,488.0,0.25,43,138.0
3904,F#6,488.25,0.25,76,138.0
3905,A2,488.25,0.25,34,138.0
3906,A5,488.5,0.25,85,138.0
3907,C2,488.5,0.25,43,138.0
3908,A6,488.75,0.25,79,138.0
3909,C3,488.75,0.25,35,138.0
3910,G5,489.0,0.25,88,138.0
3911,C#2,489.0,0.25,43,138.0
3912,G6,489.25,0.25,82,138.0
3913,C#3,489.25,0.25,33,138.0
3914,D5,489.5,0.25,91,138.0
3915,E2,489.5,0.25,43,138.0
3916,D6,489.75,0.25,86,138.0
3917,E3,489.75,0.25,33,138.0
3918,F#5,490.0,0.25,94,138.0
3919,D2,490.0,0.25,43,138.0
3920,F#6,490.25,0.25,90,138.0
3921,D3,490.25,0.25,34,138.0
3922,A5,490.5,0.25,99,138.0
3923,D2,490.5,0.25,43,138.0
3924,A6,490.75,0.25,92,138.0
3925,D3,490.75,0.25,35,138.0
3926,D2,491.0,0.25,47,138.0
3927,G5,491.0,0.375,100,138.0
3928,G6,491.0,0.375,100,138.0
3929,D3,491.25,0.25,36,138.0
3930,G2,491.5,0.25,48,138.0
3931,G3,491.75,0.25,37,138.0
3932,D2,492.0,0.25,50,138.0
3933,A5,492.0,0.375,103,138.0
3934,A6,492.0,0.375,103,138.0
3935,D3,492.25,0.25,40,138.0
3936,D3,492.5,0.25,53,138.0
3937,D4,492.75,0.25,44,138.0
3938,D2,493.0,0.25,54,138.0
3939,B5,493.0,2.0,108,138.0
3940,B6,493.0,2.0,108,138.0
3941,D3,493.25,0.25,42,138.0
3942,G2,493.5,0.25,57,138.0
3943,G3,493.75,0.25,44,138.0
3944,D2,494.0,0.25,58,138.0
3945,D3,494.25,0.25,47,138.0
3946,D3,494.5,0.25,61,138.0
3947,D4,494.75,0.25,51,138.0
3948,G2,495.0,0.25,59,138.0
3949,B5,495.0,0.375,100,138.0
3950,B6,495.0,0.375,100,138.0
3951,G3,495.25,0.25,50,138.0
3952,D2,495.5,0.25,61,138.0
3953,D3,495.75,0.25,51,138.0
3954,F#2,496.0,0.25,64,138.0
3955,C6,496.0,0.375,103,138.0
3956,C7,496.0,0.375,103,138.0
3957,F#3,496.25,0.25,55,138.0
3958,A2,496.5,0.25,67,138.0
3959,A3,496.75,0.25,58,138.0
3960,G2,497.0,0.25,68,138.0
3961,D6,497.0,2.0,108,138.0
3962,D7,497.0,2.0,108,138.0
3963,G3,497.25,0.25,63,138.0
3964,D2,497.5,0.25,71,138.0
3965,D3,497.75,0.25,63,138.0
3966,F#1,498.0,0.25,74,138.0
3967,F#2,498.25,0.25,64,138.0
3968,A1,498.5,0.25,76,138.0
3969,A2,498.75,0.25,67,138.0
3970,D5,499.0,0.125,46,138.0
3971,G5,499.0,0.125,46,138.0
3972,D6,499.0,0.125,46,138.0
3973,G2,499.0,0.375,75,138.0
3974,G1,499.0,0.375,75,138.0
3975,D6,499.5,1.0,41,138.0
3976,G5,499.5,1.0,41,138.0
3977,D5,499.5,1.0,41,138.0
3978,A1,500.0,0.375,75,138.0
3979,A2,500.0,0.375,75,138.0
3980,G5,500.5,0.25,41,138.0
3981,E-5,500.5,0.25,41,138.0
3982,C6,500.5,0.25,41,138.0
3983,B5,501.0,0.25,42,138.0
3984,F5,501.0,0.25,42,138.0
3985,G5,501.0,0.25,42,138.0
3986,B1,501.0,2.0,79,138.0
3987,B2,501.0,2.0,79,138.0
3988,C6,501.5,0.25,44,138.0
3989,G5,501.5,0.25,44,138.0
3990,E-5,501.5,0.25,44,138.0
3991,D5,502.0,0.25,44,138.0
3992,D6,502.0,0.25,44,138.0
3993,G5,502.0,0.25,44,138.0
3994,G5,502.5,0.25,36,138.0
3995,F5,502.5,0.25,36,138.0
3996,B5,502.5,0.25,36,138.0
3997,G5,503.0,0.125,46,138.0
3998,E-5,503.0,0.125,46,138.0
3999,E-6,503.0,0.125,46,138.0
4000,B2,503.0,0.375,75,138.0
4001,B1,503.0,0.375,75,138.0
4002,G5,503.5,1.0,41,138.0
4003,E-5,503.5,1.0,41,138.0
4004,E-6,503.5,1.0,41,138.0
4005,C3,504.0,0.375,75,138.0
4006,C2,504.0,0.375,75,138.0
4007,F5,504.5,0.25,41,138.0
4008,G5,504.5,0.25,41,138.0
4009,D6,504.5,0.25,41,138.0
4010,D5,504.5,0.25,41,138.0
4011,E-5,505.0,0.25,42,138.0
4012,G5,505.0,0.25,42,138.0
4013,C6,505.0,0.25,42,138.0
4014,D3,505.0,2.0,79,138.0
4015,D2,505.0,2.0,79,138.0
4016,F5,505.5,0.25,44,138.0
4017,D5,505.5,0.25,44,138.0
4018,G5,505.5,0.25,44,138.0
4019,D6,505.5,0.25,44,138.0
4020,E-6,506.0,0.25,44,138.0
4021,E-5,506.0,0.25,44,138.0
4022,G5,506.0,0.25,44,138.0
4023,C6,506.5,0.25,36,138.0
4024,G5,506.5,0.25,36,138.0
4025,E-5,506.5,0.25,36,138.0
4026,B4,507.0,0.25,39,138.0
4027,G#5,507.0,0.125,50,138.0
4028,F6,507.0,0.125,50,138.0
4029,F5,507.0,0.125,50,138.0
4030,G4,507.25,0.25,33,138.0
4031,B4,507.5,0.25,39,138.0
4032,G#5,507.5,1.0,47,138.0
4033,F5,507.5,1.0,47,138.0
4034,F6,507.5,1.0,47,138.0
4035,G4,507.75,0.25,33,138.0
4036,B4,508.0,0.25,39,138.0
4037,G4,508.25,0.25,34,138.0
4038,C5,508.5,0.25,39,138.0
4039,G5,508.5,0.25,51,138.0
4040,E-5,508.5,0.25,51,138.0
4041,E-6,508.5,0.25,51,138.0
4042,G4,508.75,0.25,34,138.0
4043,D5,509.0,0.25,39,138.0
4044,D6,509.0,0.25,55,138.0
4045,F5,509.0,0.25,55,138.0
4046,D5,509.0,0.25,55,138.0
4047,G4,509.25,0.25,34,138.0
4048,C5,509.5,0.25,39,138.0
4049,E-6,509.5,0.25,59,138.0
4050,G5,509.5,0.25,59,138.0
4051,E-5,509.5,0.25,59,138.0
4052,G4,509.75,0.25,34,138.0
4053,B4,510.0,0.25,39,138.0
4054,G#5,510.0,0.25,61,138.0
4055,F5,510.0,0.25,61,138.0
4056,F6,510.0,0.25,61,138.0
4057,G4,510.25,0.25,35,138.0
4058,D5,510.5,0.25,27,138.0
4059,D6,510.5,0.25,59,138.0
4060,B-5,510.5,0.25,59,138.0
4061,D5,510.5,0.25,59,138.0
4062,F5,510.5,0.25,59,138.0
4063,G4,510.75,0.25,20,138.0
4064,C5,511.0,0.25,39,138.0
4065,G6,511.0,0.375,93,138.0
4066,G5,511.0,0.375,93,138.0
4067,E-6,511.0,0.375,93,138.0
4068,G4,511.25,0.25,33,138.0
4069,C5,511.5,0.25,39,138.0
4070,G4,511.75,0.25,33,138.0
4071,C5,512.0,0.25,39,138.0
4072,G#6,512.0,0.375,96,138.0
4073,G#5,512.0,0.375,96,138.0
4074,F6,512.0,0.375,96,138.0
4075,G4,512.25,0.25,34,138.0
4076,B4,512.5,0.25,39,138.0
4077,G4,512.75,0.25,34,138.0
4078,C5,513.0,0.25,39,138.0
4079,B-6,513.0,2.0,100,138.0
4080,B-5,513.0,2.0,100,138.0
4081,G6,513.0,2.0,100,138.0
4082,G4,513.25,0.25,34,138.0
4083,B4,513.5,0.25,39,138.0
4084,G4,513.75,0.25,34,138.0
4085,C5,514.0,0.25,39,138.0
4086,G4,514.25,0.25,35,138.0
4087,C5,514.5,0.25,27,138.0
4088,C4,514.75,0.25,20,138.0
4089,B-4,515.0,0.25,42,138.0
4090,G4,515.0,0.375,46,138.0
4091,E-4,515.0,0.375,46,138.0
4092,B-3,515.25,0.25,36,138.0
4093,D4,515.5,0.25,44,138.0
4094,B-4,515.5,0.25,44,138.0
4095,B-3,515.75,0.25,38,138.0
4096,G#4,516.0,0.375,48,138.0
4097,F4,516.0,0.375,48,138.0
4098,B-4,516.0,0.25,46,138.0
4099,D4,516.0,0.25,46,138.0
4100,B-3,516.25,0.25,41,138.0
4101,B-4,516.5,0.25,48,138.0
4102,E-4,516.5,0.25,48,138.0
4103,B-3,516.75,0.25,43,138.0
4104,B-4,517.0,1.75,49,138.0
4105,G4,517.0,1.75,49,138.0
4106,F4,517.0,0.25,50,138.0
4107,B-4,517.0,0.25,50,138.0
4108,B-3,517.25,0.25,44,138.0
4109,B-4,517.5,0.25,52,138.0
4110,E-4,517.5,0.25,52,138.0
4111,B-3,517.75,0.25,46,138.0
4112,B-4,518.0,0.25,54,138.0
4113,D4,518.0,0.25,54,138.0
4114,B-3,518.25,0.25,49,138.0
4115,G#2,518.5,0.25,44,138.0
4116,G#3,518.75,0.25,33,138.0
4117,G2,519.0,0.25,77,138.0
4118,G3,519.25,119/500,70,138.0
4119,G3,519.5,0.25,70,138.0
4120,G4,519.75,0.25,70,138.0
4121,F2,520.0,0.25,77,138.0
4122,F3,520.25,119/500,69,138.0
4123,F3,520.5,0.25,69,138.0
4124,F4,520.75,0.25,69,138.0
4125,E-2,521.0,0.25,85,138.0
4126,E-3,521.25,119/500,67,138.0
4127,E-4,521.5,1.5,76,138.0
4128,E-3,521.5,1.5,76,138.0
4129,E-3,522.75,0.25,57,138.0
4130,E-4,523.0,93/125,77,138.0
4131,G3,523.5,0.25,40,138.0
4132,E-4,523.75,123/500,56,138.0
4133,B-3,523.75,0.25,35,138.0
4134,E-4,524.0,0.5,63,138.0
4135,F3,524.5,0.25,40,138.0
4136,G#3,524.75,0.25,34,138.0
4137,G3,525.5,1.25,40,138.0
4138,B-2,526.75,0.25,40,138.0
4139,E-3,526.75,0.25,93,138.0
4140,E-3,527.0,373/500,44,138.0
4141,E-4,527.0,93/125,90,138.0
4142,E-3,527.75,123/500,40,138.0
4143,E-4,527.75,61/250,61,138.0
4144,E-3,528.0,0.5,43,138.0
4145,E-4,528.0,0.5,66,138.0
4146,F3,528.5,0.188,44,138.0
4147,E-3,528.75,0.188,40,138.0
4148,E-3,529.0,0.188,44,138.0
4149,C3,529.5,0.188,39,138.0
4150,C3,530.0,1.0,39,138.0
4151,G3,530.75,0.25,91,138.0
4152,G#3,531.0,0.188,47,138.0
4153,G4,531.0,93/125,80,138.0
4154,G#3,531.5,0.188,42,138.0
4155,G3,531.75,0.188,42,138.0
4156,G4,531.75,61/250,63,138.0
4157,F3,532.0,0.25,47,138.0
4158,G4,532.0,0.5,69,138.0
4159,F3,532.5,0.188,44,138.0
4160,E-3,532.75,0.188,44,138.0
4161,D3,533.0,0.5,47,138.0
4162,D3,534.0,1.0,39,138.0
4163,B-3,535.0,0.188,50,138.0
4164,B-3,535.5,0.188,44,138.0
4165,G#3,535.75,0.188,44,138.0
4166,G3,536.0,0.25,48,138.0
4167,G3,536.5,0.188,44,138.0
4168,F3,536.75,0.188,44,138.0
4169,E-2,536.75,0.25,40,138.0
4170,E3,537.0,0.5,48,138.0
4171,G#2,537.0,373/500,44,138.0
4172,G#2,537.75,123/500,40,138.0
4173,E3,538.0,1.0,39,138.0
4174,G#2,538.0,0.5,43,138.0
4175,B-2,538.5,0.188,44,138.0
4176,G#2,538.75,0.188,40,138.0
4177,C4,539.0,0.188,48,138.0
4178,G#2,539.0,71/500,44,138.0
4179,C4,539.5,0.188,44,138.0
4180,F2,539.5,0.188,39,138.0
4181,B-3,539.75,0.188,44,138.0
4182,G#3,540.0,0.25,49,138.0
4183,F2,540.0,1.0,39,138.0
4184,G#3,540.5,0.188,45,138.0
4185,G3,540.75,0.188,46,138.0
4186,F3,541.0,0.188,50,138.0
4187,B-2,541.0,0.188,44,138.0
4188,F3,541.5,0.188,47,138.0
4189,B-2,541.5,0.188,44,138.0
4190,G3,541.75,0.188,47,138.0
4191,G#2,541.75,0.188,44,138.0
4192,G#3,542.0,0.25,51,138.0
4193,G2,542.0,0.25,44,138.0
4194,G#3,542.5,0.188,48,138.0
4195,G2,542.5,0.188,44,138.0
4196,B-3,542.75,0.188,48,138.0
4197,F2,542.75,0.188,44,138.0
4198,G3,543.0,0.25,51,138.0
4199,E2,543.0,0.5,44,138.0
4200,G3,543.5,0.188,49,138.0
4201,F3,543.75,0.188,49,138.0
4202,E-3,544.0,0.5,55,138.0
4203,E2,544.0,1.0,39,138.0
4204,F4,544.75,0.25,46,138.0
4205,B-4,545.0,373/500,56,138.0
4206,C3,545.0,0.188,44,138.0
4207,C3,545.5,0.188,44,138.0
4208,B-4,545.75,123/500,47,138.0
4209,B-2,545.75,0.188,44,138.0
4210,B-4,546.0,0.5,55,138.0
4211,G#2,546.0,0.25,44,138.0
4212,C5,546.5,0.188,53,138.0
4213,G#2,546.5,0.188,44,138.0
4214,B-4,546.75,0.188,48,138.0
4215,G2,546.75,0.188,44,138.0
4216,B-4,547.0,0.188,57,138.0
4217,F2,547.0,0.5,44,138.0
4218,G4,547.5,0.188,48,138.0
4219,C3,547.75,0.188,37,138.0
4220,G4,548.0,1.0,49,138.0
4221,F3,548.0,0.25,37,138.0
4222,F3,548.5,0.188,38,138.0
4223,E-3,548.75,0.188,38,138.0
4224,E-5,549.0,0.188,61,138.0
4225,D3,549.0,0.188,46,138.0
4226,E-5,549.5,0.188,57,138.0
4227,D3,549.5,0.188,39,138.0
4228,D5,549.75,0.188,57,138.0
4229,C3,549.75,0.188,39,138.0
4230,C5,550.0,0.25,62,138.0
4231,B-2,550.0,0.25,39,138.0
4232,C5,550.5,0.188,58,138.0
4233,C3,550.5,0.188,40,138.0
4234,B-4,550.75,0.188,58,138.0
4235,D3,550.75,0.188,40,138.0
4236,A4,551.0,0.5,64,138.0
4237,E-3,551.0,0.25,48,138.0
4238,G2,551.5,0.5,41,138.0
4239,A4,552.0,1.0,53,138.0
4240,A2,552.0,0.5,42,138.0
4241,C3,552.5,0.5,42,138.0
4242,F3,552.5,0.25,47,138.0
4243,E-3,552.75,0.25,47,138.0
4244,F5,553.0,0.188,65,138.0
4245,B-2,553.0,0.188,51,138.0
4246,D3,553.0,0.5,43,138.0
4247,F5,553.5,0.188,62,138.0
4248,B-2,553.5,0.188,43,138.0
4249,E-5,553.75,0.188,62,138.0
4250,C3,553.75,0.188,44,138.0
4251,D5,554.0,0.25,66,138.0
4252,D3,554.0,0.25,44,138.0
4253,D5,554.5,0.188,63,138.0
4254,E-3,554.5,0.188,44,138.0
4255,C5,554.75,0.188,63,138.0
4256,B-3,554.75,0.188,46,138.0
4257,F3,554.75,0.188,46,138.0
4258,B4,555.0,0.5,67,138.0
4259,E-3,555.0,0.25,54,138.0
4260,E-4,555.0,373/500,54,138.0
4261,E-4,555.75,123/500,50,138.0
4262,B4,556.0,1.0,53,138.0
4263,E-4,556.0,0.5,54,138.0
4264,F4,556.5,0.188,55,138.0
4265,E-4,556.75,0.188,51,138.0
4266,G5,557.0,0.188,71,138.0
4267,C3,557.0,71/500,56,138.0
4268,E-4,557.0,71/500,56,138.0
4269,G5,557.5,0.188,67,138.0
4270,C4,557.5,0.188,49,138.0
4271,C3,557.5,0.188,49,138.0
4272,F5,557.75,0.188,67,138.0
4273,D3,557.75,0.188,48,138.0
4274,E-5,558.0,0.25,68,138.0
4275,E3,558.0,0.25,48,138.0
4276,C4,558.0,1.0,51,138.0
4277,E-5,558.5,0.188,68,138.0
4278,F3,558.5,0.188,49,138.0
4279,D5,558.75,0.188,69,138.0
4280,G3,558.75,0.188,49,138.0
4281,C5,559.0,0.188,71,138.0
4282,F4,559.0,0.25,59,138.0
4283,F3,559.0,0.25,59,138.0
4284,C5,559.5,0.188,69,138.0
4285,F4,559.5,0.188,59,138.0
4286,B-4,559.75,0.188,70,138.0
4287,E-4,559.75,0.188,60,138.0
4288,G#4,560.0,0.25,74,138.0
4289,F3,560.0,0.25,55,138.0
4290,D4,560.0,0.25,55,138.0
4291,G#4,560.5,0.188,71,138.0
4292,F3,560.5,0.188,56,138.0
4293,D4,560.5,0.188,56,138.0
4294,G4,560.75,0.188,71,138.0
4295,E-3,560.75,0.188,56,138.0
4296,C4,560.75,0.188,56,138.0
4297,F4,561.0,0.25,76,138.0
4298,D3,561.0,0.188,61,138.0
4299,B3,561.0,0.5,61,138.0
4300,F4,561.5,0.188,72,138.0
4301,D3,561.5,0.188,52,138.0
4302,G4,561.75,0.188,73,138.0
4303,E-3,561.75,0.188,52,138.0
4304,G#4,562.0,0.5,76,138.0
4305,B3,562.0,1.0,55,138.0
4306,F3,562.0,0.25,52,138.0
4307,B-4,562.5,0.5,73,138.0
4308,G3,562.5,0.188,53,138.0
4309,G#3,562.75,0.188,53,138.0
4310,G4,563.0,373/500,74,138.0
4311,E-4,563.0,0.5,62,138.0
4312,B-4,563.0,0.5,62,138.0
4313,G4,563.0,0.25,64,138.0
4314,G3,563.0,0.25,64,138.0
4315,G4,563.5,0.188,65,138.0
4316,G4,563.75,123/500,64,138.0
4317,F4,563.75,0.188,65,138.0
4318,G4,564.0,0.5,76,138.0
4319,E-4,564.0,0.25,60,138.0
4320,G3,564.0,0.25,60,138.0
4321,G#4,564.5,0.188,74,138.0
4322,E-4,564.5,0.188,60,138.0
4323,G3,564.5,0.188,60,138.0
4324,B-4,564.75,0.188,70,138.0
4325,G4,564.75,0.188,70,138.0
4326,D4,564.75,0.188,60,138.0
4327,F3,564.75,0.188,60,138.0
4328,E-5,565.0,373/500,74,138.0
4329,G4,565.0,0.5,62,138.0
4330,E-3,565.0,0.188,66,138.0
4331,C4,565.0,0.188,66,138.0
4332,E-4,565.5,0.5,53,138.0
4333,E-3,565.5,0.188,56,138.0
4334,C4,565.5,1.0,59,138.0
4335,E-5,565.75,0.25,64,138.0
4336,F3,565.75,0.188,56,138.0
4337,E-4,566.0,1.0,64,138.0
4338,E-5,566.0,0.5,76,138.0
4339,G3,566.0,0.25,57,138.0
4340,F5,566.5,0.188,74,138.0
4341,A3,566.5,0.188,57,138.0
4342,G4,566.5,0.188,57,138.0
4343,E-5,566.75,0.188,70,138.0
4344,F4,566.75,0.188,58,138.0
4345,B3,566.75,0.188,58,138.0
4346,E-4,567.0,0.188,68,138.0
4347,E-5,567.0,0.188,68,138.0
4348,C4,567.0,0.188,69,138.0
4349,E-4,567.0,0.188,69,138.0
4350,C5,567.5,0.438,68,138.0
4351,F4,567.5,0.188,58,138.0
4352,D3,567.5,0.188,58,138.0
4353,B-4,567.75,0.188,57,138.0
4354,G4,567.75,0.188,59,138.0
4355,E3,567.75,0.188,59,138.0
4356,G#4,568.0,0.188,62,138.0
4357,C5,568.0,1.0,74,138.0
4358,F3,568.0,0.25,59,138.0
4359,C4,568.0,0.25,59,138.0
4360,G#4,568.5,0.188,73,138.0
4361,C4,568.5,0.188,59,138.0
4362,F2,568.5,0.188,59,138.0
4363,G4,568.75,0.188,64,138.0
4364,G2,568.75,0.188,58,138.0
4365,B-3,568.75,0.188,58,138.0
4366,F4,569.0,0.5,62,138.0
4367,G#5,569.0,0.188,81,138.0
4368,C4,569.0,0.25,72,138.0
4369,G#2,569.0,0.25,72,138.0
4370,G#5,569.5,0.188,71,138.0
4371,B-2,569.5,0.5,56,138.0
4372,D4,569.5,0.5,56,138.0
4373,G5,569.75,0.188,67,138.0
4374,F5,570.0,0.25,78,138.0
4375,F4,570.0,1.0,64,138.0
4376,B2,570.0,0.5,56,138.0
4377,E-4,570.0,0.5,56,138.0
4378,F5,570.5,0.188,74,138.0
4379,D4,570.5,0.188,62,138.0
4380,B-2,570.5,0.188,62,138.0
4381,E-5,570.75,0.188,68,138.0
4382,D4,570.75,0.188,62,138.0
4383,B-1,570.75,0.188,62,138.0
4384,F4,570.75,0.188,62,138.0
4385,D5,571.0,0.188,74,138.0
4386,E-2,571.0,373/500,61,138.0
4387,D5,571.5,0.188,68,138.0
4388,C5,571.75,0.188,57,138.0
4389,E-2,571.75,0.188,54,138.0
4390,B-4,572.0,0.188,62,138.0
4391,D5,572.0,1.0,74,138.0
4392,E-2,572.0,0.5,54,138.0
4393,B-4,572.5,0.188,73,138.0
4394,F2,572.5,0.188,61,138.0
4395,G#4,572.75,0.188,64,138.0
4396,E-2,572.75,0.188,54,138.0
4397,B-5,573.0,0.188,79,138.0
4398,G4,573.0,0.5,62,138.0
4399,C3,573.0,373/500,61,138.0
4400,E-2,573.0,0.5,51,138.0
4401,B-5,573.5,0.188,71,138.0
4402,C2,573.5,0.5,43,138.0
4403,G#5,573.75,0.188,67,138.0
4404,C3,573.75,0.188,54,138.0
4405,G5,574.0,0.25,78,138.0
4406,G4,574.0,1.0,64,138.0
4407,C3,574.0,0.5,62,138.0
4408,C2,574.0,1.0,52,138.0
4409,G5,574.5,0.188,74,138.0
4410,D3,574.5,0.188,61,138.0
4411,F5,574.75,0.188,68,138.0
4412,C3,574.75,0.188,54,138.0
4413,E5,575.0,0.5,74,138.0
4414,G4,575.0,0.5,64,138.0
4415,C3,575.0,0.188,56,138.0
4416,G#2,575.0,0.188,56,138.0
4417,E4,575.5,0.5,56,138.0
4418,G#2,575.5,0.438,62,138.0
4419,G2,575.75,0.188,57,138.0
4420,F4,576.0,0.5,59,138.0
4421,F2,576.0,0.188,53,138.0
4422,G#2,576.0,1.0,63,138.0
4423,G4,576.5,0.5,62,138.0
4424,C4,576.5,0.188,51,138.0
4425,F2,576.5,0.188,54,138.0
4426,B-3,576.75,0.188,49,138.0
4427,E-2,576.75,0.188,54,138.0
4428,G#3,577.0,0.25,58,138.0
4429,G#4,577.0,1.5,58,138.0
4430,D2,577.0,0.5,51,138.0
4431,F3,577.0,0.188,56,138.0
4432,F4,577.5,0.25,51,138.0
4433,F3,577.5,0.188,56,138.0
4434,E-4,577.75,0.25,44,138.0
4435,E-3,577.75,0.188,59,138.0
4436,D4,578.0,0.25,51,138.0
4437,D3,578.0,0.25,59,138.0
4438,D2,578.0,1.0,52,138.0
4439,D4,578.5,0.25,52,138.0
4440,A4,578.5,0.5,52,138.0
4441,D3,578.5,0.188,56,138.0
4442,C4,578.75,0.25,45,138.0
4443,C3,578.75,0.188,52,138.0
4444,B-4,579.0,0.188,63,138.0
4445,B-3,579.0,0.5,63,138.0
4446,B-2,579.0,0.25,61,138.0
4447,G5,579.5,0.188,62,138.0
4448,B-2,579.5,0.188,62,138.0
4449,F5,579.75,0.188,57,138.0
4450,G#2,579.75,0.188,57,138.0
4451,E-5,580.0,0.25,67,138.0
4452,B-2,580.0,1.0,63,138.0
4453,G2,580.0,0.188,53,138.0
4454,E-5,580.5,0.188,63,138.0
4455,G2,580.5,0.188,54,138.0
4456,D5,580.75,0.188,57,138.0
4457,F2,580.75,0.188,54,138.0
4458,C5,581.0,1.5,68,138.0
4459,E2,581.0,0.5,51,138.0
4460,G3,581.0,0.188,56,138.0
4461,C4,581.5,0.5,47,138.0
4462,G3,581.5,0.188,56,138.0
4463,F3,581.75,0.188,59,138.0
4464,F4,582.0,1.0,60,138.0
4465,E2,582.0,1.0,52,138.0
4466,E3,582.0,0.25,59,138.0
4467,C#5,582.5,0.5,61,138.0
4468,E3,582.5,0.188,56,138.0
4469,D3,582.75,0.188,52,138.0
4470,C3,583.0,0.25,61,138.0
4471,F4,583.0,0.188,72,138.0
4472,D5,583.0,0.188,72,138.0
4473,G4,583.5,0.188,66,138.0
4474,E-5,583.5,0.188,66,138.0
4475,G3,583.5,0.188,47,138.0
4476,C3,583.5,0.188,47,138.0
4477,D5,583.75,0.188,59,138.0
4478,F4,583.75,0.188,59,138.0
4479,C#4,583.75,0.188,38,138.0
4480,B-2,583.75,0.188,38,138.0
4481,C5,584.0,0.25,76,138.0
4482,E-4,584.0,0.25,76,138.0
4483,C3,584.0,0.188,48,138.0
4484,C4,584.0,0.188,48,138.0
4485,G#2,584.0,0.188,48,138.0
4486,B4,584.5,0.25,74,138.0
4487,D4,584.5,0.25,74,138.0
4488,G2,584.5,0.188,50,138.0
4489,E3,584.5,0.188,50,138.0
4490,G4,584.75,0.188,66,138.0
4491,F2,585.0,1.5,50,138.0
4492,F3,585.0,0.5,50,138.0
4493,C5,585.0,93/125,73,138.0
4494,E-5,585.0,93/125,73,138.0
4495,C3,585.5,0.5,42,138.0
4496,E-5,585.75,31/125,66,138.0
4497,C5,585.75,31/125,66,138.0
4498,F3,586.0,0.5,52,138.0
4499,C5,586.0,0.5,70,138.0
4500,E-5,586.0,0.5,70,138.0
4501,D5,586.5,0.188,73,138.0
4502,F5,586.5,0.188,73,138.0
4503,E-3,586.5,0.5,42,138.0
4504,F#2,586.5,0.5,42,138.0
4505,E-5,586.75,0.188,62,138.0
4506,C5,586.75,0.188,62,138.0
4507,D3,587.0,0.188,56,138.0
4508,G2,587.0,1.5,51,138.0
4509,C5,587.0,0.188,73,138.0
4510,E-5,587.0,0.188,73,138.0
4511,D3,587.5,0.5,54,138.0
4512,C5,587.5,0.188,64,138.0
4513,G#4,587.5,0.188,64,138.0
4514,G3,588.0,0.5,59,138.0
4515,G#4,588.0,1.0,64,138.0
4516,C5,588.0,1.0,64,138.0
4517,G2,588.5,0.5,52,138.0
4518,F3,588.5,0.5,52,138.0
4519,G#2,589.0,1.5,46,138.0
4520,E-3,589.0,0.5,55,138.0
4521,G#5,589.0,0.188,73,138.0
4522,F5,589.0,0.188,73,138.0
4523,G#3,589.5,0.25,58,138.0
4524,G#5,589.5,0.188,73,138.0
4525,F5,589.5,0.188,73,138.0
4526,G3,589.75,0.25,50,138.0
4527,G5,589.75,0.188,69,138.0
4528,E-5,589.75,0.188,69,138.0
4529,F3,590.0,0.25,59,138.0
4530,F5,590.0,0.25,73,138.0
4531,C#5,590.0,0.25,73,138.0
4532,F3,590.5,0.25,61,138.0
4533,A2,590.5,0.5,41,138.0
4534,C#5,590.5,0.188,73,138.0
4535,F5,590.5,0.188,73,138.0
4536,E-3,590.75,0.25,53,138.0
4537,E-5,590.75,0.188,69,138.0
4538,C5,590.75,0.188,69,138.0
4539,C#5,591.0,0.5,73,138.0
4540,B-4,591.0,0.5,73,138.0
4541,D3,591.0,0.188,59,138.0
4542,B-2,591.0,0.188,59,138.0
4543,B2,591.5,0.5,53,138.0
4544,B-3,591.5,0.188,52,138.0
4545,G#3,591.75,0.188,47,138.0
4546,B-4,592.0,1.0,64,138.0
4547,C#5,592.0,1.0,64,138.0
4548,G3,592.0,0.25,60,138.0
4549,C3,592.0,0.25,60,138.0
4550,F3,592.5,0.5,61,138.0
4551,D3,592.5,0.5,61,138.0
4552,G5,593.0,0.188,73,138.0
4553,B-5,593.0,0.188,73,138.0
4554,E-3,593.0,0.5,56,138.0
4555,C3,593.0,0.5,56,138.0
4556,G5,593.5,0.188,73,138.0
4557,B-5,593.5,0.188,73,138.0
4558,F5,593.75,0.188,69,138.0
4559,G#5,593.75,0.188,69,138.0
4560,E5,594.0,0.25,73,138.0
4561,G5,594.0,0.25,73,138.0
4562,G5,594.5,0.188,73,138.0
4563,E5,594.5,0.188,73,138.0
4564,D5,594.75,0.188,69,138.0
4565,F5,594.75,0.188,69,138.0
4566,E-3,594.75,0.188,56,138.0
4567,C3,594.75,0.188,56,138.0
4568,E5,595.0,0.5,73,138.0
4569,C5,595.0,0.5,73,138.0
4570,G#3,595.0,93/125,62,138.0
4571,F3,595.0,93/125,62,138.0
4572,F3,595.75,31/125,56,138.0
4573,G#3,595.75,31/125,56,138.0
4574,C5,596.0,1.0,64,138.0
4575,F5,596.0,1.0,64,138.0
4576,F3,596.0,0.5,59,138.0
4577,G#3,596.0,0.5,59,138.0
4578,G3,596.5,0.188,62,138.0
4579,B-3,596.5,0.188,62,138.0
4580,F3,596.75,0.188,52,138.0
4581,G#3,596.75,0.188,52,138.0
4582,C6,597.0,0.188,73,138.0
4583,G#5,597.0,0.188,73,138.0
4584,G#3,597.0,0.188,62,138.0
4585,F3,597.0,0.188,62,138.0
4586,G#5,597.5,0.188,73,138.0
4587,C6,597.5,0.188,73,138.0
4588,F3,597.5,0.188,54,138.0
4589,C#3,597.5,0.188,54,138.0
4590,G5,597.75,0.188,69,138.0
4591,B-5,597.75,0.188,69,138.0
4592,G#5,598.0,0.25,73,138.0
4593,F5,598.0,0.25,73,138.0
4594,C#3,598.0,1.0,54,138.0
4595,F3,598.0,1.0,54,138.0
4596,G5,598.5,0.188,74,138.0
4597,B-5,598.5,0.188,74,138.0
4598,F5,598.75,0.188,71,138.0
4599,G#5,598.75,0.188,71,138.0
4600,G5,599.0,0.188,73,138.0
4601,E-5,599.0,0.188,73,138.0
4602,C#4,599.0,0.188,62,138.0
4603,B-3,599.0,0.188,62,138.0
4604,G#5,599.5,0.188,79,138.0
4605,F6,599.5,0.188,79,138.0
4606,C#4,599.5,0.188,62,138.0
4607,B-3,599.5,0.188,62,138.0
4608,E-6,599.75,0.188,69,138.0
4609,G5,599.75,0.188,69,138.0
4610,C4,599.75,0.188,58,138.0
4611,G#3,599.75,0.188,58,138.0
4612,F5,600.0,0.25,73,138.0
4613,D6,600.0,0.25,73,138.0
4614,G3,600.0,0.25,62,138.0
4615,B-3,600.0,0.25,62,138.0
4616,E-6,600.5,0.188,74,138.0
4617,G5,600.5,0.188,74,138.0
4618,B-3,600.5,0.188,62,138.0
4619,G3,600.5,0.188,62,138.0
4620,F5,600.75,0.188,71,138.0
4621,D6,600.75,0.188,71,138.0
4622,G#3,600.75,0.188,58,138.0
4623,F3,600.75,0.188,58,138.0
4624,E-5,601.0,0.188,73,138.0
4625,C6,601.0,0.188,73,138.0
4626,G3,601.0,0.5,62,138.0
4627,E3,601.0,0.5,62,138.0
4628,G5,601.5,0.188,73,138.0
4629,B-5,601.5,0.188,73,138.0
4630,G#5,601.75,0.188,69,138.0
4631,C6,601.75,0.188,69,138.0
4632,C#6,602.0,0.25,74,138.0
4633,B-5,602.0,0.25,74,138.0
4634,G3,602.0,1.0,54,138.0
4635,E3,602.0,1.0,54,138.0
4636,F5,602.5,0.188,76,138.0
4637,G#5,602.5,0.188,76,138.0
4638,G5,602.75,0.188,74,138.0
4639,B-5,602.75,0.188,74,138.0
4640,G#5,603.0,0.188,76,138.0
4641,C6,603.0,0.188,76,138.0
4642,C4,603.0,0.188,62,138.0
4643,E4,603.0,0.188,62,138.0
4644,C5,603.5,0.5,71,138.0
4645,E-5,603.5,0.188,83,138.0
4646,C4,603.5,0.188,62,138.0
4647,E-4,603.5,0.188,62,138.0
4648,F5,603.75,0.188,80,138.0
4649,C#4,603.75,0.188,58,138.0
4650,B-3,603.75,0.188,58,138.0
4651,G5,604.0,0.5,78,138.0
4652,B4,604.0,0.5,78,138.0
4653,C4,604.0,0.25,62,138.0
4654,G#3,604.0,0.25,62,138.0
4655,G#3,604.5,0.188,62,138.0
4656,C4,604.5,0.188,62,138.0
4657,B4,604.75,0.25,86,138.0
4658,D5,604.75,0.25,86,138.0
4659,G3,604.75,0.188,58,138.0
4660,B-3,604.75,0.188,58,138.0
4661,G5,605.0,1.75,94,138.0
4662,B5,605.0,1.75,94,138.0
4663,G#3,605.0,0.188,62,138.0
4664,F3,605.0,0.188,62,138.0
4665,D3,605.5,0.188,62,138.0
4666,F3,605.5,0.188,62,138.0
4667,E-3,605.75,0.188,58,138.0
4668,G3,605.75,0.188,58,138.0
4669,G#3,606.0,0.25,62,138.0
4670,F3,606.0,0.25,62,138.0
4671,C3,606.5,0.188,62,138.0
4672,E-3,606.5,0.188,62,138.0
4673,B4,606.75,0.25,80,138.0
4674,D5,606.75,0.25,80,138.0
4675,D3,606.75,0.188,58,138.0
4676,F3,606.75,0.188,58,138.0
4677,G5,607.0,1.5,94,138.0
4678,B5,607.0,1.5,94,138.0
4679,G3,607.0,0.188,62,138.0
4680,E-3,607.0,0.188,62,138.0
4681,B2,607.5,0.188,62,138.0
4682,D3,607.5,0.188,62,138.0
4683,E-3,607.75,0.188,58,138.0
4684,C3,607.75,0.188,58,138.0
4685,D3,608.0,0.25,62,138.0
4686,F3,608.0,0.25,62,138.0
4687,E-6,608.5,0.25,53,138.0
4688,B5,608.5,0.5,49,138.0
4689,G5,608.5,0.5,49,138.0
4690,C3,608.5,0.188,62,138.0
4691,A2,608.5,0.188,62,138.0
4692,D6,608.75,0.25,45,138.0
4693,B2,608.75,0.188,58,138.0
4694,D3,608.75,0.188,58,138.0
4695,G6,609.0,0.25,53,138.0
4696,D6,609.0,0.5,45,138.0
4697,B5,609.0,0.5,45,138.0
4698,E-3,609.0,0.188,62,138.0
4699,C3,609.0,0.188,62,138.0
4700,F6,609.25,0.25,45,138.0
4701,C#4,609.5,0.188,62,138.0
4702,F4,609.5,0.188,62,138.0
4703,E-4,609.75,0.188,58,138.0
4704,C4,609.75,0.188,58,138.0
4705,G5,610.0,0.25,53,138.0
4706,B4,610.0,0.5,45,138.0
4707,D5,610.0,0.5,45,138.0
4708,C#4,610.0,0.25,62,138.0
4709,B-3,610.0,0.25,62,138.0
4710,F5,610.25,0.25,45,138.0
4711,C4,610.5,0.188,63,138.0
4712,E-4,610.5,0.188,63,138.0
4713,C#4,610.75,0.188,60,138.0
4714,B-3,610.75,0.188,60,138.0
4715,G4,611.0,0.25,53,138.0
4716,B3,611.0,0.5,45,138.0
4717,D4,611.0,0.5,45,138.0
4718,C4,611.0,0.188,64,138.0
4719,G#3,611.0,0.188,64,138.0
4720,F4,611.25,0.25,45,138.0
4721,G#3,611.5,0.188,65,138.0
4722,C4,611.5,0.188,65,138.0
4723,G5,612.0,0.25,53,138.0
4724,D5,612.0,0.5,45,138.0
4725,B4,612.0,0.5,45,138.0
4726,G3,612.0,0.5,65,138.0
4727,D4,612.0,0.5,65,138.0
4728,F5,612.25,0.25,45,138.0
4729,G5,613.0,1.75,91,138.0
4730,E-6,613.0,1.75,91,138.0
4731,C6,613.0,1.75,91,138.0
4732,G4,613.75,31/125,70,138.0
4733,B4,613.75,31/125,70,138.0
4734,G4,614.0,0.75,78,138.0
4735,B4,614.0,0.75,78,138.0
4736,G5,614.75,0.25,80,138.0
4737,E-5,614.75,0.25,80,138.0
4738,B3,614.75,31/125,62,138.0
4739,G3,614.75,31/125,62,138.0
4740,G3,615.0,0.75,69,138.0
4741,B3,615.0,0.75,69,138.0
4742,G2,615.75,31/125,56,138.0
4743,B2,615.75,31/125,56,138.0
4744,G2,616.0,0.5,62,138.0
4745,B2,616.0,0.5,62,138.0
4746,C6,616.5,1.5,94,138.0
4747,E-6,616.5,1.5,94,138.0
4748,G5,616.5,1.5,80,138.0
4749,E-5,616.5,1.5,80,138.0
4750,E-6,617.5,0.25,53,138.0
4751,D6,617.75,0.25,47,138.0
4752,F6,618.0,0.25,53,138.0
4753,C6,618.0,0.5,49,138.0
4754,G5,618.0,0.5,49,138.0
4755,E-6,618.25,0.25,45,138.0
4756,G#6,618.5,0.25,53,138.0
4757,E-5,618.5,0.25,53,138.0
4758,E-6,618.5,0.5,45,138.0
4759,C6,618.5,0.5,45,138.0
4760,G6,618.75,0.25,45,138.0
4761,D5,618.75,0.25,47,138.0
4762,G#5,619.5,0.25,53,138.0
4763,E-4,619.5,0.25,53,138.0
4764,C5,619.5,0.5,45,138.0
4765,E-5,619.5,0.5,45,138.0
4766,G5,619.735,0.25,45,138.0
4767,D4,619.75,0.25,47,138.0
4768,G#4,620.5,0.25,53,138.0
4769,E-5,620.5,0.25,53,138.0
4770,E-4,620.5,0.5,45,138.0
4771,C4,620.5,0.5,45,138.0
4772,G4,620.75,0.25,45,138.0
4773,D5,620.75,0.25,47,138.0
4774,C4,621.0,0.75,75,138.0
4775,G#5,621.5,0.25,53,138.0
4776,E-5,621.5,0.5,45,138.0
4777,C5,621.5,0.5,45,138.0
4778,G5,621.75,0.25,45,138.0
4779,E-5,621.75,31/125,70,138.0
4780,C5,621.75,31/125,70,138.0
4781,C5,622.0,0.75,78,138.0
4782,E-5,622.0,0.75,78,138.0
4783,F5,622.5,1.75,91,138.0
4784,D6,622.5,1.75,91,138.0
4785,F6,622.5,1.75,91,138.0
4786,C4,622.75,31/125,62,138.0
4787,E-4,622.75,31/125,62,138.0
4788,C4,623.0,0.75,69,138.0
4789,E-4,623.0,0.75,69,138.0
4790,C3,623.75,31/125,56,138.0
4791,E-3,623.75,31/125,56,138.0
4792,E-3,624.0,0.5,62,138.0
4793,C3,624.0,0.5,62,138.0
4794,D5,624.25,0.25,80,138.0
4795,F5,624.25,0.25,80,138.0
4796,F6,624.5,1.5,94,138.0
4797,D6,624.5,1.5,94,138.0
4798,F5,625.25,0.25,73,138.0
4799,B-5,625.5,0.5,67,138.0
4800,F6,625.5,0.25,53,138.0
4801,E-6,625.75,0.25,47,138.0
4802,G6,626.0,0.25,53,138.0
4803,D6,626.0,0.5,49,138.0
4804,B-5,626.0,0.5,49,138.0
4805,F6,626.25,0.25,45,138.0
4806,B-6,626.5,0.25,58,138.0
4807,F5,626.5,0.25,53,138.0
4808,D6,626.5,0.5,49,138.0
4809,F6,626.5,0.5,49,138.0
4810,G#6,626.75,0.25,50,138.0
4811,E-5,626.75,0.25,47,138.0
4812,B-5,627.5,0.25,63,138.0
4813,F4,627.5,0.25,53,138.0
4814,F5,627.5,0.5,54,138.0
4815,D5,627.5,0.5,54,138.0
4816,G#5,627.735,0.25,54,138.0
4817,E-4,627.75,0.25,47,138.0
4818,B-4,628.5,0.25,68,138.0
4819,F5,628.5,0.25,53,138.0
4820,F4,628.5,0.5,58,138.0
4821,D4,628.5,0.5,58,138.0
4822,G#4,628.75,0.25,59,138.0
4823,E-5,628.75,0.25,47,138.0
4824,B-3,629.0,0.75,75,138.0
4825,B-5,629.5,0.25,74,138.0
4826,F5,629.5,0.5,63,138.0
4827,D5,629.5,0.5,63,138.0
4828,G#5,629.75,0.25,63,138.0
4829,D5,629.75,31/125,70,138.0
4830,B-4,629.75,31/125,70,138.0
4831,D5,630.0,0.75,78,138.0
4832,B-4,630.0,0.75,78,138.0
4833,E-6,630.5,1.75,94,138.0
4834,G6,630.5,1.75,94,138.0
4835,D4,630.75,31/125,62,138.0
4836,B-3,630.75,31/125,62,138.0
4837,B-3,631.0,0.75,69,138.0
4838,D4,631.0,0.75,69,138.0
4839,B-2,631.75,31/125,56,138.0
4840,D3,631.75,31/125,56,138.0
4841,B-2,632.0,0.5,62,138.0
4842,D3,632.0,0.5,62,138.0
4843,G5,632.25,0.25,73,138.0
4844,B-5,632.25,0.25,73,138.0
4845,G6,632.5,1.5,94,138.0
4846,E-6,632.5,1.5,94,138.0
4847,G5,633.25,0.25,87,138.0
4848,C6,633.5,0.5,80,138.0
4849,G6,633.5,0.25,60,138.0
4850,F6,633.75,0.25,54,138.0
4851,F#5,634.25,0.25,80,138.0
4852,A5,634.25,0.25,80,138.0
4853,G5,634.5,0.25,66,138.0
4854,A6,634.5,1.75,98,138.0
4855,F#6,634.5,1.75,98,138.0
4856,F5,634.75,0.25,59,138.0
4857,G4,635.5,0.25,71,138.0
4858,F4,635.75,0.25,64,138.0
4859,A5,636.25,0.25,76,138.0
4860,F#5,636.25,0.25,76,138.0
4861,G5,636.5,0.25,76,138.0
4862,A6,636.5,1.5,98,138.0
4863,F#6,636.5,1.5,98,138.0
4864,F5,636.75,0.25,69,138.0
4865,E-4,637.0,0.75,75,138.0
4866,E-5,637.0,0.75,75,138.0
4867,A5,637.25,0.25,91,138.0
4868,D6,637.5,0.5,87,138.0
4869,F#6,637.5,0.5,87,138.0
4870,G5,637.75,31/125,70,138.0
4871,E-5,637.75,31/125,70,138.0
4872,E-5,638.0,0.75,78,138.0
4873,G5,638.0,0.75,78,138.0
4874,G#5,638.25,0.25,84,138.0
4875,B5,638.25,0.25,84,138.0
4876,B6,638.5,1.75,85,138.0
4877,D6,638.5,1.75,85,138.0
4878,F6,638.5,1.75,85,138.0
4879,G#6,638.5,1.75,85,138.0
4880,B5,638.5,1.75,85,138.0
4881,G4,638.75,31/125,62,138.0
4882,E-4,638.75,31/125,62,138.0
4883,E-4,639.0,0.75,69,138.0
4884,G4,639.0,0.75,69,138.0
4885,E-3,639.75,31/125,64,138.0
4886,E-4,639.75,31/125,64,138.0
4887,E-4,640.0,0.5,70,138.0
4888,E-3,640.0,0.5,70,138.0
4889,G#5,640.25,0.25,76,138.0
4890,B5,640.25,0.25,76,138.0
4891,F6,640.5,1.75,85,138.0
4892,B5,640.5,1.75,85,138.0
4893,D6,640.5,1.75,85,138.0
4894,G#6,640.5,1.75,85,138.0
4895,B6,640.5,1.75,85,138.0
4896,D5,641.75,31/125,73,138.0
4897,D4,641.75,31/125,73,138.0
4898,D5,642.0,0.75,81,138.0
4899,D4,642.0,0.75,81,138.0
4900,B-5,642.25,0.25,76,138.0
4901,E5,642.25,0.25,76,138.0
4902,G5,642.25,0.25,76,138.0
4903,C#6,642.25,0.25,76,138.0
4904,B-6,642.5,1.75,86,138.0
4905,G6,642.5,1.75,86,138.0
4906,C#7,642.5,1.75,86,138.0
4907,E6,642.5,1.75,86,138.0
4908,D3,642.75,31/125,65,138.0
4909,D4,642.75,31/125,65,138.0
4910,D4,643.0,0.75,72,138.0
4911,D3,643.0,0.75,72,138.0
4912,D3,643.75,31/125,66,138.0
4913,D2,643.75,31/125,66,138.0
4914,D3,644.0,0.5,74,138.0
4915,D2,644.0,0.5,74,138.0
4916,B-5,644.25,0.25,76,138.0
4917,C#6,644.25,0.25,76,138.0
4918,G5,644.25,0.25,76,138.0
4919,E5,644.25,0.25,76,138.0
4920,G6,644.5,1.75,86,138.0
4921,E6,644.5,1.75,86,138.0
4922,B-6,644.5,1.75,86,138.0
4923,C#7,644.5,1.75,86,138.0
4924,D4,645.75,31/125,61,138.0
4925,F4,645.75,31/125,61,138.0
4926,G#4,645.75,31/125,61,138.0
4927,D5,645.75,31/125,61,138.0
4928,B4,645.75,31/125,61,138.0
4929,G#4,646.0,0.75,68,138.0
4930,B4,646.0,0.75,68,138.0
4931,D4,646.0,0.75,68,138.0
4932,D5,646.0,0.75,68,138.0
4933,F4,646.0,0.75,68,138.0
4934,D6,646.25,0.25,83,138.0
4935,A5,646.25,0.25,83,138.0
4936,F#5,646.25,0.25,83,138.0
4937,D6,646.5,0.75,94,138.0
4938,F#6,646.5,0.75,94,138.0
4939,A6,646.5,0.75,94,138.0
4940,D7,646.5,0.75,94,138.0
4941,G#3,646.75,31/125,55,138.0
4942,F3,646.75,31/125,55,138.0
4943,D3,646.75,31/125,55,138.0
4944,B3,646.75,31/125,55,138.0
4945,D4,646.75,31/125,55,138.0
4946,D4,647.0,0.75,68,138.0
4947,D3,647.0,0.75,68,138.0
4948,B3,647.0,0.75,68,138.0
4949,G#3,647.0,0.75,68,138.0
4950,F3,647.0,0.75,68,138.0
4951,D6,647.25,0.25,80,138.0
4952,D7,647.5,0.75,100,138.0
4953,G#2,647.75,31/125,55,138.0
4954,D2,647.75,31/125,55,138.0
4955,F2,647.75,31/125,55,138.0
4956,B2,647.75,31/125,55,138.0
4957,D3,647.75,31/125,55,138.0
4958,B2,648.0,0.75,68,138.0
4959,D3,648.0,0.75,68,138.0
4960,D2,648.0,0.75,68,138.0
4961,F2,648.0,0.75,68,138.0
4962,G#2,648.0,0.75,68,138.0
4963,D5,648.25,0.25,74,138.0
4964,D6,648.5,0.75,93,138.0
4965,D5,649.25,0.25,68,138.0
4966,D6,649.5,0.75,85,138.0
4967,G4,649.75,31/125,62,138.0
4968,D4,649.75,31/125,62,138.0
4969,B-4,649.75,31/125,62,138.0
4970,E5,649.75,31/125,62,138.0
4971,E5,650.0,0.75,69,138.0
4972,D4,650.0,0.75,69,138.0
4973,B-4,650.0,0.75,69,138.0
4974,G4,650.0,0.75,69,138.0
4975,D5,650.25,0.25,62,138.0
4976,D6,650.5,0.75,78,138.0
4977,B-3,650.75,31/125,56,138.0
4978,D3,650.75,31/125,56,138.0
4979,E4,650.75,31/125,56,138.0
4980,G3,650.75,31/125,56,138.0
4981,B-3,651.0,0.75,69,138.0
4982,D3,651.0,0.75,69,138.0
4983,E4,651.0,0.75,69,138.0
4984,G3,651.0,0.75,69,138.0
4985,D5,651.25,0.25,56,138.0
4986,D6,651.5,0.75,70,138.0
4987,B-2,651.75,31/125,56,138.0
4988,G2,651.75,31/125,56,138.0
4989,E3,651.75,31/125,56,138.0
4990,D2,651.75,31/125,56,138.0
4991,G2,652.0,0.75,69,138.0
4992,D2,652.0,0.75,69,138.0
4993,E3,652.0,0.75,69,138.0
4994,B-2,652.0,0.75,69,138.0
4995,D5,652.25,0.25,51,138.0
4996,D6,652.5,0.75,63,138.0
4997,D5,653.25,0.25,45,138.0
4998,D6,653.5,0.75,55,138.0
4999,D5,653.75,31/125,59,138.0
5000,D4,653.75,31/125,59,138.0
5001,F#4,653.75,31/125,59,138.0
5002,A4,653.75,31/125,59,138.0
5003,D5,654.0,93/125,71,138.0
5004,A4,654.0,93/125,71,138.0
5005,F#4,654.0,93/125,71,138.0
5006,D4,654.0,93/125,71,138.0
5007,E-5,654.25,0.25,39,138.0
5008,E-6,654.5,2.0,58,138.0
5009,D3,654.75,31/125,57,138.0
5010,D4,654.75,31/125,57,138.0
5011,D4,655.0,0.75,64,138.0
5012,D3,655.0,0.75,64,138.0
5013,E-5,655.5,1.0,49,138.0
5014,D3,655.75,31/125,52,138.0
5015,D2,655.75,31/125,52,138.0
5016,D2,656.0,0.75,59,138.0
5017,D3,656.0,0.75,59,138.0
5018,E6,656.5,1.0,57,138.0
5019,E5,656.5,2.0,48,138.0
5020,D3,656.75,0.25,52,138.0
5021,D2,657.0,0.75,59,138.0
5022,G5,657.5,1.0,61,138.0
5023,D4,657.75,0.25,47,138.0
5024,D3,658.0,0.75,53,138.0
5025,F#5,658.5,1.0,67,138.0
5026,B5,658.5,2.0,56,138.0
5027,D4,658.75,0.25,42,138.0
5028,D3,659.0,0.75,46,138.0
5029,E-5,659.5,1.0,61,138.0
5030,D4,659.75,0.25,37,138.0
5031,D3,660.0,0.75,42,138.0
5032,E5,660.5,1.0,54,138.0
5033,B4,660.5,1.0,54,138.0
5034,G5,660.5,1.0,54,138.0
5035,B4,660.75,0.25,32,138.0
5036,B3,661.0,333/1000,40,138.0
5037,B4,661.333,333/1000,32,138.0
5038,B4,661.5,1.0,58,138.0
5039,E5,661.5,1.0,58,138.0
5040,B-4,661.667,333/1000,32,138.0
5041,B4,662.0,333/1000,40,138.0
5042,F#4,662.333,333/1000,33,138.0
5043,D5,662.5,1.0,66,138.0
5044,B4,662.667,333/1000,33,138.0
5045,G4,663.0,333/1000,40,138.0
5046,B4,663.333,333/1000,31,138.0
5047,E-5,663.5,1.0,59,138.0
5048,G4,663.667,333/1000,31,138.0
5049,B4,664.0,333/1000,40,138.0
5050,E4,664.333,333/1000,33,138.0
5051,F#5,664.5,1.0,64,138.0
5052,B4,664.667,333/1000,33,138.0
5053,E-4,665.0,333/1000,40,138.0
5054,B4,665.333,333/1000,31,138.0
5055,E5,665.5,0.5,63,138.0
5056,E-4,665.667,333/1000,31,138.0
5057,C#5,666.0,0.5,57,138.0
5058,B4,666.0,333/1000,40,138.0
5059,B3,666.333,333/1000,32,138.0
5060,E-5,666.5,0.5,66,138.0
5061,B4,666.667,333/1000,32,138.0
5062,D4,667.0,0.5,48,138.0
5063,B3,667.0,333/1000,40,138.0
5064,E4,667.333,333/1000,33,138.0
5065,E-4,667.5,1.0,56,138.0
5066,B3,667.667,333/1000,33,138.0
5067,G4,668.0,333/1000,40,138.0
5068,E4,668.333,333/1000,32,138.0
5069,F#4,668.5,1.0,64,138.0
5070,G4,668.667,333/1000,32,138.0
5071,F#4,669.0,333/1000,40,138.0
5072,B4,669.333,333/1000,32,138.0
5073,E4,669.5,0.5,52,138.0
5074,F#4,669.667,333/1000,32,138.0
5075,C#4,670.0,0.5,48,138.0
5076,B4,670.0,333/1000,40,138.0
5077,F#4,670.333,333/1000,36,138.0
5078,B4,670.5,0.25,59,138.0
5079,E-5,670.5,0.25,59,138.0
5080,B4,670.667,333/1000,36,138.0
5081,E5,670.75,0.25,48,138.0
5082,E-5,671.0,0.25,48,138.0
5083,F#4,671.0,333/1000,40,138.0
5084,D5,671.25,0.25,48,138.0
5085,B-4,671.333,333/1000,33,138.0
5086,E-5,671.5,0.25,55,138.0
5087,F#4,671.667,333/1000,33,138.0
5088,E5,671.75,0.25,48,138.0
5089,F#5,672.0,0.25,48,138.0
5090,B-4,672.0,333/1000,40,138.0
5091,F5,672.25,0.25,48,138.0
5092,F#4,672.333,333/1000,34,138.0
5093,G#5,672.5,0.25,57,138.0
5094,B-4,672.667,333/1000,34,138.0
5095,F#5,672.75,0.25,54,138.0
5096,F5,673.0,0.25,54,138.0
5097,F#4,673.0,333/1000,40,138.0
5098,F#5,673.25,0.25,54,138.0
5099,B4,673.333,333/1000,32,138.0
5100,E5,673.5,0.25,56,138.0
5101,F#4,673.667,333/1000,32,138.0
5102,E-5,673.75,0.25,53,138.0
5103,E5,674.0,0.25,51,138.0
5104,B4,674.0,333/1000,40,138.0
5105,C#5,674.25,0.25,45,138.0
5106,F#4,674.333,333/1000,36,138.0
5107,E-4,674.5,0.25,59,138.0
5108,E-5,674.5,0.5,59,138.0
5109,B4,674.667,333/1000,36,138.0
5110,E4,674.75,0.25,48,138.0
5111,E-4,675.0,0.25,48,138.0
5112,B-4,675.0,333/1000,40,138.0
5113,D4,675.25,0.25,48,138.0
5114,C#5,675.333,333/1000,33,138.0
5115,E-4,675.5,0.25,55,138.0
5116,B-4,675.667,333/1000,33,138.0
5117,E4,675.75,0.25,48,138.0
5118,F#4,676.0,0.25,48,138.0
5119,C#5,676.0,333/1000,40,138.0
5120,F4,676.25,0.25,48,138.0
5121,B-4,676.333,333/1000,34,138.0
5122,G#4,676.5,0.25,57,138.0
5123,C#5,676.667,333/1000,34,138.0
5124,F#4,676.75,0.25,54,138.0
5125,F4,677.0,0.25,54,138.0
5126,F#4,677.0,333/1000,40,138.0
5127,F#4,677.25,0.25,54,138.0
5128,B4,677.333,333/1000,32,138.0
5129,E4,677.5,0.25,56,138.0
5130,F#4,677.667,333/1000,32,138.0
5131,E-4,677.75,0.25,53,138.0
5132,E4,678.0,0.25,51,138.0
5133,B4,678.0,333/1000,40,138.0
5134,F#4,678.25,0.25,45,138.0
5135,F#4,678.333,333/1000,36,138.0
5136,C#4,678.5,0.5,54,138.0
5137,F#3,678.5,0.5,54,138.0
5138,E4,678.5,0.5,54,138.0
5139,B4,678.667,333/1000,36,138.0
5140,F#4,679.0,333/1000,40,138.0
5141,B-4,679.333,333/1000,33,138.0
5142,F#4,679.667,333/1000,33,138.0
5143,B-4,680.0,333/1000,40,138.0
5144,F#4,680.333,333/1000,34,138.0
5145,B-4,680.667,333/1000,34,138.0
5146,F#4,681.0,333/1000,40,138.0
5147,B4,681.333,333/1000,32,138.0
5148,F#4,681.667,333/1000,32,138.0
5149,B4,682.0,333/1000,40,138.0
5150,F#4,682.25,0.188,63,138.0
5151,F#4,682.333,333/1000,36,138.0
5152,C#5,682.5,373/500,61,138.0
5153,B4,682.667,333/1000,36,138.0
5154,B-4,683.0,333/1000,40,138.0
5155,C#5,683.25,123/500,54,138.0
5156,C#5,683.333,333/1000,33,138.0
5157,C#5,683.5,0.375,61,138.0
5158,B-4,683.667,333/1000,33,138.0
5159,E-5,684.0,0.188,48,138.0
5160,C#5,684.0,333/1000,40,138.0
5161,C#4,684.25,0.188,57,138.0
5162,C#5,684.25,0.188,57,138.0
5163,C#5,684.5,0.25,51,138.0
5164,E4,684.5,373/500,61,138.0
5165,F#1,684.75,0.25,70,138.0
5166,B-4,685.0,0.25,51,138.0
5167,B-1,685.0,373/500,68,138.0
5168,E4,685.25,123/500,54,138.0
5169,E4,685.5,0.375,61,138.0
5170,B-1,685.75,123/500,61,138.0
5171,F#4,686.0,0.188,48,138.0
5172,B-1,686.0,0.375,68,138.0
5173,E4,686.25,0.188,51,138.0
5174,E4,686.5,0.25,51,138.0
5175,B1,686.5,0.188,64,138.0
5176,F#3,686.75,0.188,62,138.0
5177,B-1,686.75,0.188,62,138.0
5178,C#4,687.0,0.25,51,138.0
5179,B-1,687.0,0.375,61,138.0
5180,B-3,687.0,373/500,61,138.0
5181,F#1,687.5,0.375,61,138.0
5182,B-3,687.75,123/500,54,138.0
5183,B-3,688.0,0.375,61,138.0
5184,F#4,688.25,0.188,63,138.0
5185,E5,688.5,373/500,67,138.0
5186,B3,688.5,0.094,48,138.0
5187,B-3,688.75,0.188,51,138.0
5188,B-3,689.0,0.25,51,138.0
5189,E4,689.25,123/500,58,138.0
5190,E5,689.25,123/500,58,138.0
5191,C#5,689.5,0.75,61,138.0
5192,E5,689.5,0.375,61,138.0
5193,F#3,689.5,0.25,51,138.0
5194,C#5,690.25,0.25,54,138.0
5195,C#5,690.5,0.375,61,138.0
5196,C#5,692.25,0.188,63,138.0
5197,B-5,692.5,373/500,67,138.0
5198,F#1,692.75,0.25,63,138.0
5199,E2,693.0,373/500,61,138.0
5200,C#4,693.25,123/500,58,138.0
5201,B-5,693.25,123/500,58,138.0
5202,B-4,693.5,0.75,61,138.0
5203,B-5,693.5,0.375,61,138.0
5204,F#2,693.75,123/500,58,138.0
5205,E2,693.75,123/500,58,138.0
5206,E3,694.0,0.75,61,138.0
5207,E2,694.0,0.375,61,138.0
5208,B-4,694.25,123/500,54,138.0
5209,B-4,694.5,0.375,61,138.0
5210,E3,694.75,0.25,54,138.0
5211,E3,695.0,0.375,61,138.0
5212,E3,695.25,0.188,64,138.0
5213,C#4,695.5,1.0,62,138.0
5214,C#4,696.5,0.75,62,138.0
5215,C#2,696.75,0.25,63,138.0
5216,B-2,697.0,373/500,61,138.0
5217,G3,697.25,0.188,68,138.0
5218,E4,697.5,1.0,71,138.0
5219,C#3,697.75,123/500,58,138.0
5220,B-2,697.75,123/500,58,138.0
5221,B-3,698.0,0.75,61,138.0
5222,B-2,698.0,0.375,61,138.0
5223,E4,698.5,0.25,71,138.0
5224,G3,698.75,0.188,70,138.0
5225,B-3,698.75,123/500,54,138.0
5226,E4,699.0,0.75,76,138.0
5227,B-3,699.0,0.375,61,138.0
5228,G5,699.75,0.188,72,138.0
5229,E6,700.0,0.5,78,138.0
5230,E6,700.5,0.25,78,138.0
5231,G#3,700.75,0.188,74,138.0
5232,E2,700.75,0.188,63,138.0
5233,E4,701.0,0.75,79,138.0
5234,C#3,701.0,1.75,72,138.0
5235,G#5,701.75,0.188,76,138.0
5236,E6,702.0,0.5,83,138.0
5237,E6,702.5,0.25,83,138.0
5238,A3,702.75,0.188,78,138.0
5239,G2,702.75,0.188,66,138.0
5240,E4,703.0,0.75,84,138.0
5241,E3,703.0,1.75,75,138.0
5242,A5,703.75,0.188,81,138.0
5243,E6,704.0,0.5,88,138.0
5244,E6,704.5,0.25,88,138.0
5245,A3,704.75,0.188,85,138.0
5246,G2,704.75,0.188,69,138.0
5247,F4,705.0,0.75,93,138.0
5248,E3,705.0,0.75,77,138.0
5249,A5,705.75,0.188,89,138.0
5250,G4,705.75,0.188,71,138.0
5251,F6,706.0,0.5,101,138.0
5252,E5,706.0,0.75,77,138.0
5253,D5,706.5,0.375,86,138.0
5254,B-5,706.5,0.375,86,138.0
5255,F5,706.5,0.375,86,138.0
5256,D6,706.5,0.375,86,138.0
5257,G#2,706.75,0.188,73,138.0
5258,E3,707.0,0.75,71,138.0
5259,D5,707.25,0.25,96,138.0
5260,B-5,707.25,0.25,96,138.0
5261,D6,707.25,0.25,96,138.0
5262,F5,707.25,0.25,96,138.0
5263,F5,707.5,0.375,86,138.0
5264,D6,707.5,0.375,86,138.0
5265,B-5,707.5,0.375,86,138.0
5266,D5,707.5,0.375,86,138.0
5267,G#4,707.75,0.188,74,138.0
5268,E5,708.0,0.75,79,138.0
5269,D5,708.0,0.094,89,138.0
5270,E-6,708.0,0.094,89,138.0
5271,B-5,708.0,0.094,89,138.0
5272,F5,708.0,0.094,89,138.0
5273,D5,708.25,0.094,90,138.0
5274,D6,708.25,0.094,90,138.0
5275,F5,708.25,0.094,90,138.0
5276,B-5,708.25,0.094,90,138.0
5277,F5,708.5,0.25,96,138.0
5278,D5,708.5,0.25,96,138.0
5279,B-5,708.5,0.25,96,138.0
5280,D6,708.5,0.25,96,138.0
5281,A2,708.75,0.188,76,138.0
5282,E3,709.0,0.75,75,138.0
5283,D5,709.0,0.25,88,138.0
5284,B-4,709.0,0.25,88,138.0
5285,F5,709.0,0.25,88,138.0
5286,B-5,709.0,0.25,88,138.0
5287,A4,709.75,0.188,78,138.0
5288,E5,710.0,0.75,86,138.0
5289,F5,710.25,0.25,97,138.0
5290,D5,710.25,0.25,97,138.0
5291,B-5,710.5,0.375,88,138.0
5292,F5,710.5,0.375,88,138.0
5293,F6,710.5,0.375,88,138.0
5294,A2,710.75,0.188,83,138.0
5295,F3,711.0,0.75,93,138.0
5296,B-5,711.25,0.25,96,138.0
5297,F5,711.25,0.25,96,138.0
5298,F6,711.25,0.25,96,138.0
5299,D6,711.25,0.25,96,138.0
5300,D6,711.5,0.375,86,138.0
5301,B-5,711.5,0.375,86,138.0
5302,F5,711.5,0.375,86,138.0
5303,F6,711.5,0.375,86,138.0
5304,A4,711.75,0.188,86,138.0
5305,F5,712.0,0.75,97,138.0
5306,G6,712.0,0.094,89,138.0
5307,D6,712.0,0.094,89,138.0
5308,B-5,712.0,0.094,89,138.0
5309,F5,712.0,0.094,89,138.0
5310,F6,712.25,0.094,90,138.0
5311,D6,712.25,0.094,90,138.0
5312,F5,712.25,0.094,90,138.0
5313,B-5,712.25,0.094,90,138.0
5314,F6,712.5,0.25,96,138.0
5315,D6,712.5,0.25,96,138.0
5316,B-5,712.5,0.25,96,138.0
5317,F5,712.5,0.25,96,138.0
5318,B-2,712.75,0.25,94,138.0
5319,B-1,712.75,0.25,94,138.0
5320,D6,713.0,0.25,88,138.0
5321,D5,713.0,0.25,88,138.0
5322,F5,713.0,0.25,88,138.0
5323,B-5,713.0,0.25,88,138.0
5324,B-2,713.0,0.5,110,138.0
5325,B-3,713.0,0.5,110,138.0
5326,C4,713.5,0.25,97,138.0
5327,B-3,713.75,0.25,88,138.0
5328,F3,714.0,0.5,97,138.0
5329,G5,714.0,0.25,50,138.0
5330,B-5,714.0,0.25,50,138.0
5331,A5,714.25,0.25,47,138.0
5332,C6,714.25,0.25,47,138.0
5333,G3,714.5,0.25,97,138.0
5334,F5,714.5,1.0,54,138.0
5335,D6,714.5,1.0,54,138.0
5336,B-5,714.5,1.0,54,138.0
5337,F3,714.75,0.25,90,138.0
5338,D3,715.0,0.5,97,138.0
5339,E-3,715.5,0.25,97,138.0
5340,F5,715.5,0.5,50,138.0
5341,C6,715.5,0.5,50,138.0
5342,A5,715.5,0.5,50,138.0
5343,D3,715.75,0.25,91,138.0
5344,F4,716.0,0.5,41,138.0
5345,B-2,716.0,0.5,97,138.0
5346,A4,716.0,0.25,52,138.0
5347,C5,716.0,0.25,52,138.0
5348,B4,716.25,0.25,40,138.0
5349,D5,716.25,0.25,40,138.0
5350,C3,716.5,0.25,97,138.0
5351,G4,716.5,1.0,52,138.0
5352,C5,716.5,1.0,52,138.0
5353,E-5,716.5,1.0,52,138.0
5354,B-2,716.75,0.125,97,138.0
5355,D2,716.875,0.062,88,138.0
5356,D3,716.938,0.062,89,138.0
5357,D4,717.0,0.5,110,138.0
5358,E-4,717.5,0.25,97,138.0
5359,G4,717.5,0.5,46,138.0
5360,D5,717.5,0.5,46,138.0
5361,B-4,717.5,0.5,46,138.0
5362,D4,717.75,0.25,88,138.0
5363,D5,718.0,0.25,58,138.0
5364,B-4,718.0,0.5,49,138.0
5365,B-3,718.0,0.5,97,138.0
5366,E-5,718.25,0.25,60,138.0
5367,F5,718.5,0.75,63,138.0
5368,B-4,718.5,0.5,49,138.0
5369,D4,718.5,0.25,97,138.0
5370,B-3,718.75,0.25,90,138.0
5371,F3,719.0,0.5,97,138.0
5372,G4,719.0,0.5,50,138.0
5373,B-4,719.0,0.5,50,138.0
5374,G5,719.25,0.25,60,138.0
5375,G4,719.5,0.5,62,138.0
5376,F5,719.5,0.25,62,138.0
5377,B-3,719.5,0.25,93,138.0
5378,E-5,719.75,0.5,51,138.0
5379,F3,719.75,0.25,88,138.0
5380,A4,720.0,0.5,57,138.0
5381,D3,720.0,0.25,78,138.0
5382,F5,720.25,0.25,50,138.0
5383,B-2,720.25,0.25,73,138.0
5384,B-4,720.5,0.5,51,138.0
5385,E-5,720.5,0.25,60,138.0
5386,E-3,720.5,0.25,40,138.0
5387,D5,720.75,0.25,46,138.0
5388,C3,720.75,0.25,35,138.0
5389,B-2,721.0,0.5,29,138.0
5390,F4,721.0,0.25,45,138.0
5391,G#4,721.0,0.25,45,138.0
5392,D5,721.0,0.25,45,138.0
5393,F5,721.0,0.25,45,138.0
5394,G4,721.25,0.25,40,138.0
5395,C5,721.25,0.25,40,138.0
5396,E-5,721.25,0.25,40,138.0
5397,E-4,721.25,0.25,40,138.0
5398,C3,721.5,0.25,34,138.0
5399,C4,721.5,0.5,38,138.0
5400,C5,721.5,0.5,38,138.0
5401,A4,721.5,0.5,38,138.0
5402,B-2,721.75,0.25,31,138.0
5403,D5,722.0,0.25,58,138.0
5404,F2,722.0,0.5,33,138.0
5405,F3,722.0,0.5,33,138.0
5406,E-5,722.25,0.25,60,138.0
5407,F5,722.5,0.75,63,138.0
5408,E-3,722.5,0.25,33,138.0
5409,A4,722.75,0.25,45,138.0
5410,D3,722.75,0.25,30,138.0
5411,B-4,723.0,0.75,54,138.0
5412,C3,723.0,0.5,35,138.0
5413,G5,723.25,0.25,60,138.0
5414,E-5,723.5,0.75,64,138.0
5415,D3,723.5,0.25,33,138.0
5416,F#4,723.75,0.25,47,138.0
5417,C3,723.75,0.25,29,138.0
5418,A4,724.0,0.5,53,138.0
5419,G2,724.0,0.5,31,138.0
5420,G3,724.0,0.5,31,138.0
5421,F5,724.25,0.25,50,138.0
5422,E-5,724.5,0.25,60,138.0
5423,A4,724.5,0.25,53,138.0
5424,F3,724.5,0.25,30,138.0
5425,G#3,724.5,0.25,30,138.0
5426,B-4,724.75,0.25,50,138.0
5427,D5,724.75,0.25,50,138.0
5428,E-3,724.75,0.25,30,138.0
5429,G3,724.75,0.25,30,138.0
5430,F5,725.0,0.25,57,138.0
5431,F4,725.0,1.0,35,138.0
5432,D3,725.0,0.5,34,138.0
5433,F3,725.0,0.5,34,138.0
5434,E-5,725.25,0.25,55,138.0
5435,C5,725.5,0.5,50,138.0
5436,C#3,725.5,0.5,30,138.0
5437,E3,725.5,0.5,30,138.0
5438,E-5,726.0,0.25,54,138.0
5439,E-4,726.0,0.25,54,138.0
5440,C3,726.0,0.5,35,138.0
5441,E-3,726.0,0.5,35,138.0
5442,F5,726.25,0.25,56,138.0
5443,F4,726.25,0.25,56,138.0
5444,G5,726.5,0.75,63,138.0
5445,G4,726.5,0.25,45,138.0
5446,F2,726.5,0.5,28,138.0
5447,C3,726.5,0.5,28,138.0
5448,A4,726.75,0.25,45,138.0
5449,B-4,727.0,0.75,54,138.0
5450,G2,727.0,0.5,30,138.0
5451,B-2,727.0,0.5,30,138.0
5452,G#5,727.25,0.25,60,138.0
5453,F5,727.5,0.75,64,138.0
5454,D2,727.5,0.25,30,138.0
5455,B2,727.5,0.25,30,138.0
5456,A4,727.75,0.25,47,138.0
5457,E-2,727.75,0.25,26,138.0
5458,C3,727.75,0.25,26,138.0
5459,B-4,728.0,0.5,53,138.0
5460,F2,728.0,0.5,26,138.0
5461,C3,728.0,0.5,26,138.0
5462,G5,728.25,0.25,50,138.0
5463,F5,728.5,0.25,60,138.0
5464,B-4,728.5,0.5,53,138.0
5465,F3,728.5,0.5,28,138.0
5466,B-3,728.5,0.25,33,138.0
5467,E-5,728.75,0.25,50,138.0
5468,C4,728.75,0.25,33,138.0
5469,B-4,729.0,1.0,35,138.0
5470,G5,729.0,0.25,57,138.0
5471,F3,729.0,2.0,31,138.0
5472,D4,729.0,0.75,37,138.0
5473,F5,729.25,0.25,55,138.0
5474,D5,729.5,0.5,50,138.0
5475,E-4,729.75,0.25,32,138.0
5476,F5,730.0,0.25,58,138.0
5477,C4,730.0,0.75,38,138.0
5478,F#5,730.25,0.25,60,138.0
5479,G#5,730.5,0.75,63,138.0
5480,A4,730.75,0.25,45,138.0
5481,D4,730.75,0.25,30,138.0
5482,B-4,731.0,1.0,54,138.0
5483,C4,731.0,0.25,36,138.0
5484,F3,731.0,1.5,31,138.0
5485,B-5,731.25,0.25,60,138.0
5486,B-3,731.25,0.25,30,138.0
5487,F#5,731.5,0.5,64,138.0
5488,D4,731.5,0.25,35,138.0
5489,C4,731.75,0.25,30,138.0
5490,A3,732.0,0.5,36,138.0
5491,F#4,732.0,0.25,54,138.0
5492,F#5,732.0,0.25,54,138.0
5493,G#4,732.25,0.25,56,138.0
5494,G#5,732.25,0.25,56,138.0
5495,B-5,732.5,0.75,63,138.0
5496,B-4,732.5,0.25,38,138.0
5497,B-3,732.5,0.5,28,138.0
5498,C4,732.5,0.25,33,138.0
5499,C5,732.75,0.25,45,138.0
5500,D4,732.75,0.25,33,138.0
5501,C#5,733.0,0.75,54,138.0
5502,B-3,733.0,2.0,31,138.0
5503,E-4,733.0,0.75,37,138.0
5504,B5,733.25,0.25,60,138.0
5505,G#5,733.5,0.5,64,138.0
5506,F5,733.75,0.25,45,138.0
5507,F4,733.75,0.25,32,138.0
5508,D4,734.0,0.75,38,138.0
5509,F#5,734.0,0.25,52,138.0
5510,B-5,734.0,0.25,52,138.0
5511,B5,734.25,0.25,56,138.0
5512,G#5,734.25,0.25,56,138.0
5513,B-5,734.5,0.5,65,138.0
5514,C#6,734.5,0.75,65,138.0
5515,E-4,734.75,0.25,30,138.0
5516,F#5,735.0,1.0,54,138.0
5517,D4,735.0,0.25,36,138.0
5518,B-3,735.0,0.5,31,138.0
5519,E-6,735.25,0.25,64,138.0
5520,C4,735.25,0.25,30,138.0
5521,C#6,735.5,0.25,60,138.0
5522,B-3,735.5,1.0,31,138.0
5523,E-4,735.5,0.25,35,138.0
5524,B5,735.75,0.5,43,138.0
5525,D4,735.75,0.25,30,138.0
5526,F5,736.0,0.5,53,138.0
5527,C#6,736.25,0.25,63,138.0
5528,B5,736.5,0.25,60,138.0
5529,F5,736.5,0.5,53,138.0
5530,B-3,736.5,0.5,28,138.0
5531,D4,736.5,0.25,33,138.0
5532,B-5,736.75,0.5,46,138.0
5533,E-4,736.75,0.25,33,138.0
5534,F#5,737.0,0.75,53,138.0
5535,B-3,737.0,1.0,31,138.0
5536,F4,737.0,0.75,37,138.0
5537,B5,737.25,0.25,62,138.0
5538,B-5,737.5,0.25,58,138.0
5539,F#4,737.75,0.25,32,138.0
5540,F5,737.75,0.25,44,138.0
5541,G#5,737.75,0.25,44,138.0
5542,E-4,738.0,0.5,38,138.0
5543,F#5,738.0,0.25,52,138.0
5544,B-5,738.0,0.25,52,138.0
5545,B5,738.25,0.25,55,138.0
5546,G#5,738.25,0.25,55,138.0
5547,C#4,738.5,0.5,28,138.0
5548,E-4,738.5,0.25,33,138.0
5549,E-6,738.5,0.25,58,138.0
5550,G#5,738.5,0.25,58,138.0
5551,F4,738.75,0.25,33,138.0
5552,C#6,738.75,0.25,52,138.0
5553,F5,738.75,0.25,52,138.0
5554,E-6,739.0,0.25,65,138.0
5555,F#5,739.0,0.75,52,138.0
5556,C#4,739.0,2.0,31,138.0
5557,F#4,739.0,0.75,37,138.0
5558,C#6,739.25,0.25,58,138.0
5559,C#6,739.5,0.25,66,138.0
5560,G#4,739.75,0.25,32,138.0
5561,B5,739.75,0.25,52,138.0
5562,E5,739.75,0.25,52,138.0
5563,C#6,740.0,0.25,67,138.0
5564,F5,740.0,0.5,53,138.0
5565,F4,740.0,0.25,38,138.0
5566,B5,740.25,0.25,60,138.0
5567,B4,740.25,0.25,38,138.0
5568,B5,740.5,0.25,67,138.0
5569,F5,740.5,0.25,53,138.0
5570,B-4,740.5,0.25,40,138.0
5571,G#4,740.75,0.25,40,138.0
5572,B-5,740.75,0.25,54,138.0
5573,C#5,740.75,0.25,54,138.0
5574,B5,741.0,0.25,68,138.0
5575,F#5,741.0,0.75,54,138.0
5576,C#4,741.0,2.0,31,138.0
5577,F#4,741.0,0.5,40,138.0
5578,B-5,741.25,0.25,61,138.0
5579,B-5,741.5,0.25,69,138.0
5580,B-4,741.5,1.0,35,138.0
5581,G#5,741.75,0.25,56,138.0
5582,F5,741.75,0.25,56,138.0
5583,B-5,742.0,0.25,62,138.0
5584,F#5,742.0,0.25,62,138.0
5585,G#5,742.25,0.25,57,138.0
5586,B5,742.25,0.25,57,138.0
5587,G#4,742.5,0.5,41,138.0
5588,F5,742.5,0.25,63,138.0
5589,E-6,742.5,0.25,63,138.0
5590,F#5,742.75,0.25,54,138.0
5591,C#6,742.75,0.25,54,138.0
5592,F#5,743.0,0.5,48,138.0
5593,C#5,743.0,0.25,61,138.0
5594,C#4,743.0,2.0,45,138.0
5595,G#4,743.0,0.5,41,138.0
5596,C#6,743.25,123/500,63,138.0
5597,F#4,743.5,0.5,39,138.0
5598,C#6,743.5,0.25,64,138.0
5599,E5,743.5,0.25,64,138.0
5600,B5,743.75,0.25,56,138.0
5601,F5,743.75,0.25,56,138.0
5602,B4,744.0,0.25,62,138.0
5603,F5,744.0,0.5,49,138.0
5604,C#5,744.0,0.5,46,138.0
5605,B5,744.25,0.25,62,138.0
5606,B4,744.5,0.5,43,138.0
5607,B5,744.5,0.25,65,138.0
5608,F5,744.5,0.25,65,138.0
5609,B-5,744.75,0.25,58,138.0
5610,F#5,744.75,0.25,58,138.0
5611,F#5,745.0,0.5,52,138.0
5612,B-4,745.0,0.25,65,138.0
5613,C#4,745.0,2.0,47,138.0
5614,B4,745.0,0.25,55,138.0
5615,B-5,745.25,123/500,67,138.0
5616,B-4,745.25,0.25,49,138.0
5617,B-5,745.5,0.25,75,138.0
5618,B4,745.5,0.25,54,138.0
5619,G#5,745.75,0.25,69,138.0
5620,B-4,745.75,0.25,50,138.0
5621,B-5,746.0,0.25,70,138.0
5622,C#5,746.0,0.5,53,138.0
5623,B-4,746.0,0.25,55,138.0
5624,B5,746.25,0.25,70,138.0
5625,G#4,746.25,0.25,47,138.0
5626,B-4,746.5,0.25,56,138.0
5627,C#5,746.5,0.25,73,138.0
5628,E-6,746.5,0.25,73,138.0
5629,F#5,746.75,0.25,60,138.0
5630,C#6,746.75,0.5,75,138.0
5631,G#4,746.75,0.25,49,138.0
5632,C#4,747.0,2.0,49,138.0
5633,G#4,747.0,0.25,56,138.0
5634,B5,747.0,0.5,68,138.0
5635,F5,747.0,0.5,68,138.0
5636,D6,747.25,0.5,81,138.0
5637,G4,747.25,0.25,49,138.0
5638,E-5,747.5,0.25,57,138.0
5639,B-5,747.5,0.5,61,138.0
5640,F#5,747.5,0.5,61,138.0
5641,E-6,747.75,0.25,80,138.0
5642,C#5,747.75,0.25,50,138.0
5643,E6,748.0,0.25,83,138.0
5644,C#5,748.0,0.5,57,138.0
5645,B-5,748.0,0.5,61,138.0
5646,F5,748.0,0.5,61,138.0
5647,F6,748.25,0.25,87,138.0
5648,G#6,748.5,0.25,89,138.0
5649,B4,748.5,0.5,51,138.0
5650,F#5,748.5,0.5,71,138.0
5651,B-5,748.5,0.5,71,138.0
5652,F#6,748.75,0.25,85,138.0
5653,F6,749.0,0.25,91,138.0
5654,C#4,749.0,1.0,51,138.0
5655,A4,749.0,0.25,58,138.0
5656,F#5,749.0,0.5,74,138.0
5657,B-5,749.0,0.5,74,138.0
5658,E-6,749.25,0.25,82,138.0
5659,B-4,749.25,0.25,54,138.0
5660,B4,749.5,0.25,54,138.0
5661,C#6,749.5,0.25,84,138.0
5662,G#5,749.5,0.25,84,138.0
5663,F5,749.5,0.25,84,138.0
5664,B-4,749.75,0.25,54,138.0
5665,C#4,750.0,1.0,52,138.0
5666,G4,750.0,0.25,59,138.0
5667,F5,750.0,0.25,86,138.0
5668,C#6,750.0,0.25,86,138.0
5669,G#5,750.0,0.25,86,138.0
5670,F6,750.0,0.25,86,138.0
5671,G#4,750.25,0.25,52,138.0
5672,B-4,750.5,0.25,52,138.0
5673,F#5,750.5,1.0,102,138.0
5674,C#6,750.5,1.0,102,138.0
5675,B-5,750.5,1.0,102,138.0
5676,F#6,750.5,1.0,102,138.0
5677,G#4,750.75,0.25,53,138.0
5678,C#4,751.0,1.0,53,138.0
5679,F4,751.0,0.25,60,138.0
5680,F#4,751.25,0.25,57,138.0
5681,G#4,751.5,0.25,56,138.0
5682,B-3,751.5,1.0,67,138.0
5683,F#4,751.5,1.0,67,138.0
5684,C#4,751.5,1.0,67,138.0
5685,F#4,751.75,0.25,56,138.0
5686,C#4,752.0,0.5,54,138.0
5687,F#4,752.0,0.25,62,138.0
5688,F4,752.25,0.25,57,138.0
5689,B3,752.5,0.5,55,138.0
5690,F#4,752.5,0.25,57,138.0
5691,F#4,752.5,0.125,53,138.0
5692,B-4,752.5,0.125,53,138.0
5693,C#4,752.5,0.125,53,138.0
5694,G#4,752.75,0.25,57,138.0
5695,F#4,753.0,0.125,54,138.0
5696,C#4,753.0,0.125,54,138.0
5697,B-3,753.0,0.125,54,138.0
5698,B-3,753.0,0.5,52,138.0
5699,B-4,753.0,0.5,52,138.0
5700,C#4,753.5,0.125,54,138.0
5701,F#4,753.5,0.125,54,138.0
5702,B-4,753.5,0.125,54,138.0
5703,G#3,753.5,0.5,50,138.0
5704,G#4,753.5,0.5,50,138.0
5705,F4,754.0,0.125,54,138.0
5706,B3,754.0,0.125,54,138.0
5707,D4,754.0,0.125,54,138.0
5708,G#4,754.0,0.125,54,138.0
5709,E-4,754.0,0.5,54,138.0
5710,E-3,754.0,0.5,54,138.0
5711,B5,754.5,1.0,92,138.0
5712,G#6,754.5,1.0,92,138.0
5713,D6,754.5,1.0,92,138.0
5714,F6,754.5,1.0,92,138.0
5715,G#5,754.5,1.0,92,138.0
5716,D4,754.5,0.5,50,138.0
5717,D3,754.5,0.5,50,138.0
5718,C#3,755.0,0.5,56,138.0
5719,C#4,755.0,0.5,56,138.0
5720,C#2,755.5,1.0,48,138.0
5721,C#3,755.5,0.75,61,138.0
5722,D4,755.5,1.0,66,138.0
5723,G#4,755.5,1.0,66,138.0
5724,F4,755.5,1.0,66,138.0
5725,B3,755.5,1.0,66,138.0
5726,B2,756.25,0.25,71,138.0
5727,B-2,756.5,0.25,73,138.0
5728,C#2,756.5,0.5,58,138.0
5729,F4,756.5,0.125,52,138.0
5730,G#4,756.5,0.125,52,138.0
5731,D4,756.5,0.125,52,138.0
5732,B4,756.5,0.125,52,138.0
5733,G#2,756.75,0.25,78,138.0
5734,D4,757.0,0.125,54,138.0
5735,G#4,757.0,0.125,54,138.0
5736,F4,757.0,0.125,54,138.0
5737,B3,757.0,0.125,54,138.0
5738,F#2,757.0,0.25,71,138.0
5739,F#1,757.0,0.25,71,138.0
5740,C#3,757.25,31/125,54,138.0
5741,F#3,757.25,31/125,54,138.0
5742,B-3,757.25,31/125,54,138.0
5743,G#4,757.5,0.125,54,138.0
5744,D4,757.5,0.125,54,138.0
5745,F4,757.5,0.125,54,138.0
5746,B4,757.5,0.125,54,138.0
5747,B-3,757.5,31/125,54,138.0
5748,F#3,757.5,31/125,54,138.0
5749,C#3,757.5,31/125,54,138.0
5750,C#3,757.75,0.25,54,138.0
5751,B-3,757.75,0.25,54,138.0
5752,F#3,757.75,0.25,54,138.0
5753,G4,758.0,0.125,54,138.0
5754,C#4,758.0,0.125,54,138.0
5755,E4,758.0,0.125,54,138.0
5756,B-4,758.0,0.125,54,138.0
5757,F#3,758.25,31/125,48,138.0
5758,B-2,758.25,31/125,48,138.0
5759,C#3,758.25,31/125,48,138.0
5760,B-5,758.5,1.0,93,138.0
5761,C#6,758.5,1.0,93,138.0
5762,E6,758.5,1.0,93,138.0
5763,B-6,758.5,1.0,93,138.0
5764,C#3,758.5,31/125,48,138.0
5765,B-2,758.5,31/125,48,138.0
5766,F#3,758.5,31/125,48,138.0
5767,C#3,758.75,0.25,48,138.0
5768,B-2,758.75,0.25,48,138.0
5769,F#3,758.75,0.25,48,138.0
5770,C#3,759.25,0.125,39,138.0
5771,F#3,759.25,0.125,39,138.0
5772,B-3,759.25,0.125,39,138.0
5773,C#4,759.5,1.0,66,138.0
5774,G4,759.5,1.0,66,138.0
5775,E4,759.5,1.0,66,138.0
5776,B-4,759.5,1.0,66,138.0
5777,C#3,759.75,0.125,39,138.0
5778,F#3,759.75,0.125,39,138.0
5779,B-2,759.75,0.125,39,138.0
5780,C#3,760.25,0.125,39,138.0
5781,F#3,760.25,0.125,39,138.0
5782,B-3,760.25,0.125,39,138.0
5783,B-4,760.5,0.125,52,138.0
5784,G4,760.5,0.125,52,138.0
5785,C#5,760.5,0.125,52,138.0
5786,E4,760.5,0.125,52,138.0
5787,D3,760.75,0.125,39,138.0
5788,G#3,760.75,0.125,39,138.0
5789,B2,760.75,0.125,39,138.0
5790,F3,760.75,0.125,39,138.0
5791,G4,761.0,0.125,54,138.0
5792,E4,761.0,0.125,54,138.0
5793,B-4,761.0,0.125,54,138.0
5794,C#4,761.0,0.125,54,138.0
5795,F#2,761.0,0.25,65,138.0
5796,F#1,761.0,0.25,65,138.0
5797,G#3,761.25,31/125,54,138.0
5798,F3,761.25,31/125,54,138.0
5799,B3,761.25,31/125,54,138.0
5800,D3,761.25,31/125,54,138.0
5801,G4,761.5,0.125,54,138.0
5802,B-4,761.5,0.125,54,138.0
5803,E4,761.5,0.125,54,138.0
5804,C#5,761.5,0.125,54,138.0
5805,G#3,761.5,31/125,54,138.0
5806,B3,761.5,31/125,54,138.0
5807,D3,761.5,31/125,54,138.0
5808,F3,761.5,31/125,54,138.0
5809,G#3,761.75,0.25,54,138.0
5810,B3,761.75,0.25,54,138.0
5811,F3,761.75,0.25,54,138.0
5812,D3,761.75,0.25,54,138.0
5813,D4,762.0,0.125,54,138.0
5814,B4,762.0,0.125,54,138.0
5815,F#4,762.0,0.125,54,138.0
5816,D3,762.25,31/125,47,138.0
5817,F3,762.25,31/125,47,138.0
5818,G#3,762.25,31/125,47,138.0
5819,B2,762.25,31/125,47,138.0
5820,B5,762.5,1.0,93,138.0
5821,D6,762.5,1.0,93,138.0
5822,B6,762.5,1.0,93,138.0
5823,F#6,762.5,1.0,93,138.0
5824,D3,762.5,31/125,47,138.0
5825,F3,762.5,31/125,47,138.0
5826,G#3,762.5,31/125,47,138.0
5827,B2,762.5,31/125,47,138.0
5828,D3,762.75,0.25,47,138.0
5829,G#3,762.75,0.25,47,138.0
5830,F3,762.75,0.25,47,138.0
5831,B2,762.75,0.25,47,138.0
5832,G#3,763.25,0.125,39,138.0
5833,F3,763.25,0.125,39,138.0
5834,B3,763.25,0.125,39,138.0
5835,D3,763.25,0.125,39,138.0
5836,B4,763.5,1.0,67,138.0
5837,F#4,763.5,1.0,67,138.0
5838,D4,763.5,1.0,67,138.0
5839,D3,763.75,0.125,39,138.0
5840,B2,763.75,0.125,39,138.0
5841,F3,763.75,0.125,39,138.0
5842,G#3,763.75,0.125,39,138.0
5843,G#3,764.25,0.125,39,138.0
5844,D3,764.25,0.125,39,138.0
5845,B3,764.25,0.125,39,138.0
5846,F3,764.25,0.125,39,138.0
5847,G#4,764.5,0.125,52,138.0
5848,F4,764.5,0.125,52,138.0
5849,B4,764.5,0.125,52,138.0
5850,D5,764.5,0.125,52,138.0
5851,G3,764.75,0.125,39,138.0
5852,B-3,764.75,0.125,39,138.0
5853,C#3,764.75,0.125,39,138.0
5854,E3,764.75,0.125,39,138.0
5855,G#4,765.0,0.125,54,138.0
5856,B4,765.0,0.125,54,138.0
5857,F4,765.0,0.125,54,138.0
5858,D4,765.0,0.125,54,138.0
5859,F#2,765.0,0.25,65,138.0
5860,F#1,765.0,0.25,65,138.0
5861,B-3,765.25,31/125,54,138.0
5862,E3,765.25,31/125,54,138.0
5863,C#4,765.25,31/125,54,138.0
5864,B4,765.5,0.125,59,138.0
5865,D5,765.5,0.125,59,138.0
5866,G#4,765.5,0.125,59,138.0
5867,F4,765.5,0.125,59,138.0
5868,C#4,765.5,31/125,54,138.0
5869,E3,765.5,31/125,54,138.0
5870,B-3,765.5,31/125,54,138.0
5871,C#4,765.75,0.25,54,138.0
5872,E3,765.75,0.25,54,138.0
5873,B-3,765.75,0.25,54,138.0
5874,B-4,766.0,0.125,61,138.0
5875,C#5,766.0,0.125,61,138.0
5876,G4,766.0,0.125,61,138.0
5877,E4,766.0,0.125,61,138.0
5878,G3,766.25,31/125,47,138.0
5879,E3,766.25,31/125,47,138.0
5880,C#3,766.25,31/125,47,138.0
5881,B-3,766.25,31/125,47,138.0
5882,B-4,766.5,0.125,62,138.0
5883,E5,766.5,0.125,62,138.0
5884,G4,766.5,0.125,62,138.0
5885,C#5,766.5,0.125,62,138.0
5886,G3,766.5,31/125,47,138.0
5887,B-3,766.5,31/125,47,138.0
5888,E3,766.5,31/125,47,138.0
5889,C#3,766.5,31/125,47,138.0
5890,G3,766.75,0.25,47,138.0
5891,E3,766.75,0.25,47,138.0
5892,B-3,766.75,0.25,47,138.0
5893,C#3,766.75,0.25,47,138.0
5894,G4,767.0,0.125,65,138.0
5895,B-4,767.0,0.125,65,138.0
5896,E4,767.0,0.125,65,138.0
5897,C#5,767.0,0.125,65,138.0
5898,B-3,767.25,0.125,39,138.0
5899,G3,767.25,0.125,39,138.0
5900,C#4,767.25,0.125,39,138.0
5901,E3,767.25,0.125,39,138.0
5902,G4,767.5,0.125,68,138.0
5903,C#5,767.5,0.125,68,138.0
5904,B-4,767.5,0.125,68,138.0
5905,E5,767.5,0.125,68,138.0
5906,G3,767.75,0.125,39,138.0
5907,E3,767.75,0.125,39,138.0
5908,C#3,767.75,0.125,39,138.0
5909,B-3,767.75,0.125,39,138.0
5910,F#4,768.0,0.125,72,138.0
5911,D5,768.0,0.125,72,138.0
5912,B4,768.0,0.125,72,138.0
5913,B-3,768.25,0.125,39,138.0
5914,E3,768.25,0.125,39,138.0
5915,C#4,768.25,0.125,39,138.0
5916,G3,768.25,0.125,39,138.0
5917,F#5,768.5,0.125,73,138.0
5918,D5,768.5,0.125,73,138.0
5919,F#4,768.5,0.125,73,138.0
5920,B4,768.5,0.125,73,138.0
5921,F#3,768.75,0.125,39,138.0
5922,B3,768.75,0.125,39,138.0
5923,D3,768.75,0.125,39,138.0
5924,B4,769.0,0.125,79,138.0
5925,D5,769.0,0.125,79,138.0
5926,F#4,769.0,0.125,79,138.0
5927,F#2,769.0,0.25,65,138.0
5928,F#1,769.0,0.25,65,138.0
5929,B3,769.25,31/125,54,138.0
5930,D4,769.25,31/125,54,138.0
5931,F#3,769.25,31/125,54,138.0
5932,D5,769.5,0.125,81,138.0
5933,B4,769.5,0.125,81,138.0
5934,F#5,769.5,0.125,81,138.0
5935,F#4,769.5,0.125,81,138.0
5936,D4,769.5,31/125,54,138.0
5937,F#3,769.5,31/125,54,138.0
5938,B3,769.5,31/125,54,138.0
5939,D4,769.75,0.25,54,138.0
5940,F#3,769.75,0.25,54,138.0
5941,B3,769.75,0.25,54,138.0
5942,B4,770.0,0.125,84,138.0
5943,G#4,770.0,0.125,84,138.0
5944,F5,770.0,0.125,84,138.0
5945,C#5,770.0,0.125,84,138.0
5946,F#3,770.25,31/125,48,138.0
5947,B3,770.25,31/125,48,138.0
5948,D3,770.25,31/125,48,138.0
5949,G#5,770.5,0.5,100,138.0
5950,G#6,770.5,0.5,100,138.0
5951,B3,770.5,31/125,48,138.0
5952,F#3,770.5,31/125,48,138.0
5953,D3,770.5,31/125,48,138.0
5954,F#3,770.75,0.25,48,138.0
5955,B3,770.75,0.25,48,138.0
5956,D3,770.75,0.25,48,138.0
5957,F#5,771.0,0.5,88,138.0
5958,F#6,771.0,0.5,88,138.0
5959,G#3,771.25,0.125,39,138.0
5960,F3,771.25,0.125,39,138.0
5961,D4,771.25,0.125,39,138.0
5962,B3,771.25,0.125,39,138.0
5963,E-6,771.5,0.5,98,138.0
5964,E-5,771.5,0.5,98,138.0
5965,G#3,771.75,0.125,39,138.0
5966,B3,771.75,0.125,39,138.0
5967,D3,771.75,0.125,39,138.0
5968,F3,771.75,0.125,39,138.0
5969,C#5,772.0,0.5,91,138.0
5970,C#6,772.0,0.5,91,138.0
5971,F3,772.25,0.125,43,138.0
5972,B3,772.25,0.125,43,138.0
5973,G#3,772.25,0.125,43,138.0
5974,D4,772.25,0.125,43,138.0
5975,B4,772.5,0.5,100,138.0
5976,B5,772.5,0.5,100,138.0
5977,G3,772.75,0.125,44,138.0
5978,B-3,772.75,0.125,44,138.0
5979,E3,772.75,0.125,44,138.0
5980,C#4,772.75,0.125,44,138.0
5981,B-4,773.0,0.5,82,138.0
5982,B-5,773.0,0.5,82,138.0
5983,B-3,773.25,0.125,46,138.0
5984,G3,773.25,0.125,46,138.0
5985,C#4,773.25,0.125,46,138.0
5986,E4,773.25,0.125,46,138.0
5987,G#4,773.5,0.5,88,138.0
5988,G#5,773.5,0.5,88,138.0
5989,G3,773.75,0.125,47,138.0
5990,E3,773.75,0.125,47,138.0
5991,C#4,773.75,0.125,47,138.0
5992,B-3,773.75,0.125,47,138.0
5993,F#4,774.0,0.5,82,138.0
5994,F#5,774.0,0.5,82,138.0
5995,B-3,774.25,0.125,50,138.0
5996,E4,774.25,0.125,50,138.0
5997,C#4,774.25,0.125,50,138.0
5998,F#3,774.25,0.125,50,138.0
5999,E-5,774.5,0.5,90,138.0
6000,E-4,774.5,0.5,90,138.0
6001,F#3,774.75,0.125,53,138.0
6002,D4,774.75,0.125,53,138.0
6003,B3,774.75,0.125,53,138.0
6004,C#4,775.0,0.5,79,138.0
6005,C#5,775.0,0.5,79,138.0
6006,F#3,775.25,0.125,55,138.0
6007,D4,775.25,0.125,55,138.0
6008,B3,775.25,0.125,55,138.0
6009,B3,775.5,0.5,82,138.0
6010,B4,775.5,0.5,82,138.0
6011,D4,775.75,0.125,58,138.0
6012,F#3,775.75,0.125,58,138.0
6013,B3,775.75,0.125,58,138.0
6014,B-3,776.0,0.5,76,138.0
6015,B-4,776.0,0.5,76,138.0
6016,D4,776.25,0.125,61,138.0
6017,F#3,776.25,0.125,61,138.0
6018,B3,776.25,0.125,61,138.0
6019,G#4,776.5,0.5,80,138.0
6020,G#3,776.5,0.5,80,138.0
6021,B3,776.75,0.125,61,138.0
6022,C#4,776.75,0.125,61,138.0
6023,G#3,776.75,0.125,61,138.0
6024,F4,776.75,0.125,61,138.0
6025,F#4,777.0,0.5,70,138.0
6026,F#3,777.0,0.5,70,138.0
6027,G#4,777.25,0.125,66,138.0
6028,G#3,777.25,0.125,66,138.0
6029,E-4,777.5,0.5,74,138.0
6030,E-3,777.5,0.5,74,138.0
6031,F#4,777.75,0.125,66,138.0
6032,F#3,777.75,0.125,66,138.0
6033,C#4,778.0,0.5,68,138.0
6034,C#3,778.0,0.5,68,138.0
6035,E-3,778.25,0.125,66,138.0
6036,E-4,778.25,0.125,66,138.0
6037,F4,778.5,0.5,77,138.0
6038,C#4,778.75,0.125,66,138.0
6039,C#3,778.75,0.125,66,138.0
6040,C#4,779.0,0.5,67,138.0
6041,B2,779.25,0.125,60,138.0
6042,B3,779.25,0.125,60,138.0
6043,G#4,779.5,0.5,73,138.0
6044,B-3,779.75,0.125,60,138.0
6045,B-2,779.75,0.125,60,138.0
6046,C#4,780.0,0.5,67,138.0
6047,G#2,780.25,0.125,60,138.0
6048,G#3,780.25,0.125,60,138.0
6049,C#5,780.5,0.5,71,138.0
6050,F#3,780.75,0.125,60,138.0
6051,F#2,780.75,0.125,60,138.0
6052,C#4,781.0,0.5,59,138.0
6053,E-3,781.25,0.125,60,138.0
6054,E-2,781.25,0.125,60,138.0
6055,F5,781.5,0.5,68,138.0
6056,C#2,781.75,0.125,60,138.0
6057,C#3,781.75,0.125,60,138.0
6058,C#4,782.0,0.5,56,138.0
6059,B1,782.25,0.125,56,138.0
6060,B2,782.25,0.125,56,138.0
6061,G#5,782.5,0.5,62,138.0
6062,B-2,782.75,0.125,56,138.0
6063,B-1,782.75,0.125,56,138.0
6064,C#4,783.0,0.5,49,138.0
6065,G#2,783.25,0.125,53,138.0
6066,G#1,783.25,0.125,53,138.0
6067,C#6,783.5,0.5,54,138.0
6068,F#1,783.75,0.125,52,138.0
6069,F#2,783.75,0.125,52,138.0
6070,C#4,784.0,0.5,45,138.0
6071,E-2,784.25,0.125,55,138.0
6072,C#6,784.5,0.5,52,138.0
6073,C#2,784.75,0.125,54,138.0
6074,C#4,785.0,0.5,41,138.0
6075,F2,785.25,0.25,42,138.0
6076,C#6,785.5,0.5,48,138.0
6077,C#2,785.75,0.25,28,138.0
6078,G#2,786.25,0.25,39,138.0
6079,C#2,786.75,0.25,27,138.0
6080,C#3,787.25,0.25,37,138.0
6081,B5,787.25,31/125,96,138.0
6082,F#5,787.25,31/125,96,138.0
6083,D6,787.25,31/125,96,138.0
6084,D5,787.25,31/125,96,138.0
6085,F#5,787.5,0.5,86,138.0
6086,D6,787.5,0.5,86,138.0
6087,D5,787.5,0.5,86,138.0
6088,B5,787.5,0.5,86,138.0
6089,C#2,787.75,0.25,26,138.0
6090,B5,788.0,0.094,89,138.0
6091,E6,788.0,0.094,89,138.0
6092,D5,788.0,0.094,89,138.0
6093,F#5,788.0,0.094,89,138.0
6094,F3,788.25,0.25,34,138.0
6095,F#5,788.25,0.094,90,138.0
6096,D5,788.25,0.094,90,138.0
6097,B5,788.25,0.094,90,138.0
6098,D6,788.25,0.094,90,138.0
6099,D6,788.5,0.25,96,138.0
6100,F#5,788.5,0.25,96,138.0
6101,B5,788.5,0.25,96,138.0
6102,D5,788.5,0.25,96,138.0
6103,C#2,788.75,0.25,24,138.0
6104,B5,789.0,0.25,88,138.0
6105,D5,789.0,0.25,88,138.0
6106,F#5,789.0,0.25,88,138.0
6107,B4,789.0,0.25,88,138.0
6108,G#3,789.25,0.25,32,138.0
6109,C#2,789.75,0.25,23,138.0
6110,C#4,790.25,123/500,29,138.0
6111,C#2,790.75,0.25,24,138.0
6112,F#5,791.0,0.25,34,138.0
6113,B5,791.0,0.25,34,138.0
6114,D5,791.0,0.25,34,138.0
6115,D6,791.0,0.25,34,138.0
6116,C#4,791.25,123/500,28,138.0
6117,C#2,791.75,0.25,21,138.0
6118,D6,792.0,0.25,39,138.0
6119,F#5,792.0,0.25,39,138.0
6120,B5,792.0,0.25,39,138.0
6121,D5,792.0,0.25,39,138.0
6122,F#3,792.25,0.25,21,138.0
6123,C#4,792.25,0.25,21,138.0
6124,B1,792.75,0.25,101,138.0
6125,B5,793.0,0.25,44,138.0
6126,D6,793.0,0.25,44,138.0
6127,G5,793.0,0.25,44,138.0
6128,D5,793.0,0.25,44,138.0
6129,D4,793.0,93/125,86,138.0
6130,F#3,793.0,93/125,86,138.0
6131,B3,793.0,93/125,86,138.0
6132,D4,793.75,31/125,78,138.0
6133,B3,793.75,31/125,78,138.0
6134,F#3,793.75,31/125,78,138.0
6135,D6,794.0,0.25,48,138.0
6136,B5,794.0,0.25,48,138.0
6137,G5,794.0,0.25,48,138.0
6138,D5,794.0,0.25,48,138.0
6139,F#3,794.0,0.5,86,138.0
6140,B3,794.0,0.5,86,138.0
6141,D4,794.0,0.5,86,138.0
6142,F#3,794.5,0.094,83,138.0
6143,D4,794.5,0.094,83,138.0
6144,B3,794.5,0.094,83,138.0
6145,F#3,794.75,0.094,86,138.0
6146,D4,794.75,0.094,86,138.0
6147,B3,794.75,0.094,86,138.0
6148,B5,795.0,0.25,48,138.0
6149,D5,795.0,0.25,48,138.0
6150,G5,795.0,0.25,48,138.0
6151,D6,795.0,0.25,48,138.0
6152,F#3,795.0,0.25,86,138.0
6153,D4,795.0,0.25,86,138.0
6154,B3,795.0,0.25,86,138.0
6155,D3,795.5,0.25,86,138.0
6156,B3,795.5,0.25,86,138.0
6157,F#3,795.5,0.25,86,138.0
6158,G5,796.0,0.25,53,138.0
6159,D5,796.0,0.25,53,138.0
6160,D6,796.0,0.25,53,138.0
6161,B5,796.0,0.25,53,138.0
6162,B2,796.75,0.25,39,138.0
6163,D4,797.0,0.75,45,138.0
6164,C6,797.0,0.25,52,138.0
6165,E-5,797.0,0.25,52,138.0
6166,G5,797.0,0.25,52,138.0
6167,E-6,797.0,0.25,52,138.0
6168,B2,797.75,0.25,42,138.0
6169,D4,798.0,0.75,49,138.0
6170,G5,798.0,0.25,58,138.0
6171,E-5,798.0,0.25,58,138.0
6172,E-6,798.0,0.25,58,138.0
6173,C6,798.0,0.25,58,138.0
6174,B2,798.75,0.25,45,138.0
6175,D4,799.0,0.75,53,138.0
6176,E-6,799.0,0.25,58,138.0
6177,C6,799.0,0.25,58,138.0
6178,E-5,799.0,0.25,58,138.0
6179,G5,799.0,0.25,58,138.0
6180,G2,799.75,0.25,45,138.0
6181,B3,800.0,0.75,58,138.0
6182,C6,800.0,0.25,63,138.0
6183,G5,800.0,0.25,63,138.0
6184,E-5,800.0,0.25,63,138.0
6185,E-6,800.0,0.25,63,138.0
6186,G2,800.75,0.25,51,138.0
6187,B3,801.0,0.75,57,138.0
6188,E-5,801.0,0.25,62,138.0
6189,E-6,801.0,0.25,62,138.0
6190,C6,801.0,0.25,62,138.0
6191,A5,801.0,0.25,62,138.0
6192,G2,801.75,0.25,49,138.0
6193,B3,802.0,0.75,62,138.0
6194,E-5,802.0,0.25,68,138.0
6195,C6,802.0,0.25,68,138.0
6196,A5,802.0,0.25,68,138.0
6197,E-6,802.0,0.25,68,138.0
6198,G2,802.75,0.25,54,138.0
6199,B3,803.0,0.75,61,138.0
6200,E-6,803.0,0.25,66,138.0
6201,E-5,803.0,0.25,66,138.0
6202,A5,803.0,0.25,66,138.0
6203,C6,803.0,0.25,66,138.0
6204,C2,803.75,0.25,52,138.0
6205,E-3,804.0,0.75,67,138.0
6206,A5,804.0,0.25,72,138.0
6207,E-6,804.0,0.25,72,138.0
6208,C6,804.0,0.25,72,138.0
6209,A6,804.0,0.25,72,138.0
6210,C2,804.75,0.25,58,138.0
6211,E-3,805.0,0.75,65,138.0
6212,C6,805.0,0.25,71,138.0
6213,C7,805.0,0.25,71,138.0
6214,E-6,805.0,0.25,71,138.0
6215,A6,805.0,0.25,71,138.0
6216,C2,805.75,0.25,55,138.0
6217,E-3,806.0,0.75,71,138.0
6218,E-6,806.0,0.25,77,138.0
6219,C7,806.0,0.25,77,138.0
6220,E-7,806.0,0.25,77,138.0
6221,A6,806.0,0.25,77,138.0
6222,E-6,806.5,0.5,78,138.0
6223,E-7,806.5,0.5,78,138.0
6224,A6,806.5,0.5,78,138.0
6225,C7,806.5,0.5,78,138.0
6226,C2,806.75,0.25,61,138.0
6227,E-3,807.0,0.75,69,138.0
6228,C6,807.0,0.25,57,138.0
6229,E-6,807.0,0.25,57,138.0
6230,B5,807.25,0.25,57,138.0
6231,D6,807.25,0.25,57,138.0
6232,C6,807.5,0.5,63,138.0
6233,E-6,807.5,0.5,63,138.0
6234,F1,807.75,0.25,58,138.0
6235,A2,808.0,0.75,74,138.0
6236,A4,808.0,0.25,52,138.0
6237,C5,808.0,0.25,52,138.0
6238,C#5,808.25,0.25,52,138.0
6239,B-4,808.25,0.25,52,138.0
6240,C5,808.5,0.5,58,138.0
6241,A4,808.5,0.5,58,138.0
6242,F1,808.75,0.25,64,138.0
6243,A2,809.0,0.75,72,138.0
6244,C5,809.0,0.25,47,138.0
6245,E-5,809.0,0.25,47,138.0
6246,D5,809.25,0.25,47,138.0
6247,B4,809.25,0.25,47,138.0
6248,E-5,809.5,0.5,56,138.0
6249,C5,809.5,0.5,56,138.0
6250,F2,809.75,0.25,61,138.0
6251,A5,810.0,0.25,47,138.0
6252,C2,810.0,0.75,79,138.0
6253,C6,810.25,0.25,47,138.0
6254,E-6,810.5,0.25,57,138.0
6255,F6,810.75,0.25,48,138.0
6256,F2,810.75,0.25,68,138.0
6257,E-6,811.0,0.25,49,138.0
6258,A1,811.0,0.75,76,138.0
6259,D6,811.25,0.25,50,138.0
6260,E-6,811.5,0.25,65,138.0
6261,F6,811.75,0.25,57,138.0
6262,F2,811.75,0.25,65,138.0
6263,G6,812.0,0.25,66,138.0
6264,F#1,812.0,0.75,83,138.0
6265,E-6,812.25,0.25,58,138.0
6266,C6,812.5,0.25,69,138.0
6267,D6,812.75,0.25,56,138.0
6268,F2,812.75,0.25,71,138.0
6269,E-6,813.0,0.25,66,138.0
6270,F1,813.0,0.5,82,138.0
6271,F2,813.0,0.5,82,138.0
6272,C6,813.25,0.25,54,138.0
6273,A5,813.5,0.25,66,138.0
6274,F#5,813.5,0.25,48,138.0
6275,B-5,813.75,0.25,53,138.0
6276,F5,813.75,0.25,48,138.0
6277,C6,814.0,0.25,61,138.0
6278,F#5,814.0,0.5,54,138.0
6279,A5,814.25,0.25,53,138.0
6280,E-5,814.5,0.25,47,138.0
6281,F5,814.5,0.25,44,138.0
6282,F5,814.75,0.25,47,138.0
6283,E5,814.75,0.25,44,138.0
6284,G5,815.0,0.25,58,138.0
6285,F5,815.0,0.5,44,138.0
6286,E-5,815.25,0.25,47,138.0
6287,C5,815.5,0.25,47,138.0
6288,F#4,815.5,0.25,43,138.0
6289,D5,815.75,0.25,47,138.0
6290,F4,815.75,0.25,43,138.0
6291,E-5,816.0,0.25,53,138.0
6292,F#4,816.0,0.5,51,138.0
6293,C5,816.25,0.25,47,138.0
6294,A4,816.5,0.25,47,138.0
6295,F4,816.5,0.25,43,138.0
6296,B-4,816.75,0.25,47,138.0
6297,E4,816.75,0.25,43,138.0
6298,C5,817.0,0.25,52,138.0
6299,F3,817.0,0.5,43,138.0
6300,A3,817.0,0.5,43,138.0
6301,C4,817.0,0.5,43,138.0
6302,E-4,817.0,0.5,43,138.0
6303,A4,817.25,0.25,47,138.0
6304,F4,817.5,0.5,47,138.0
6305,E-4,817.5,0.5,47,138.0
6306,C4,817.5,0.5,47,138.0
6307,F3,817.75,0.25,42,138.0
6308,A3,818.0,0.5,51,138.0
6309,D6,818.5,0.25,57,138.0
6310,E-6,818.75,0.25,48,138.0
6311,C4,818.75,0.25,40,138.0
6312,D6,819.0,0.25,49,138.0
6313,F4,819.0,0.5,51,138.0
6314,C6,819.25,0.25,50,138.0
6315,D6,819.5,0.25,65,138.0
6316,E-6,819.75,0.25,57,138.0
6317,A4,819.75,0.25,43,138.0
6318,F6,820.0,0.25,66,138.0
6319,C5,820.0,0.5,51,138.0
6320,D6,820.25,0.25,58,138.0
6321,B-5,820.5,0.25,69,138.0
6322,E-5,820.5,0.25,45,138.0
6323,C6,820.75,0.25,56,138.0
6324,C5,820.75,0.25,45,138.0
6325,D6,821.0,0.25,66,138.0
6326,G4,821.0,0.25,40,138.0
6327,B-5,821.25,0.25,54,138.0
6328,A4,821.25,0.25,40,138.0
6329,F5,821.5,0.25,66,138.0
6330,B-4,821.5,0.25,44,138.0
6331,A5,821.75,0.25,53,138.0
6332,G4,821.75,0.25,40,138.0
6333,B-5,822.0,0.25,61,138.0
6334,E-4,822.0,0.25,40,138.0
6335,F5,822.25,0.25,53,138.0
6336,F4,822.25,0.25,40,138.0
6337,D5,822.5,0.25,47,138.0
6338,G4,822.5,0.25,45,138.0
6339,E-5,822.75,0.25,47,138.0
6340,E-4,822.75,0.25,40,138.0
6341,F5,823.0,0.25,58,138.0
6342,C4,823.0,0.25,40,138.0
6343,D5,823.25,0.25,47,138.0
6344,D4,823.25,0.25,40,138.0
6345,B-4,823.5,0.25,47,138.0
6346,E-4,823.5,0.25,45,138.0
6347,C5,823.75,0.25,47,138.0
6348,C4,823.75,0.25,40,138.0
6349,D5,824.0,0.25,53,138.0
6350,A3,824.0,0.25,40,138.0
6351,B-4,824.25,0.25,47,138.0
6352,B-3,824.25,0.25,40,138.0
6353,F4,824.5,0.25,47,138.0
6354,C4,824.5,0.25,45,138.0
6355,A4,824.75,0.25,47,138.0
6356,A3,824.75,0.25,40,138.0
6357,B-4,825.0,0.25,52,138.0
6358,D4,825.0,0.5,49,138.0
6359,F3,825.0,0.5,49,138.0
6360,B-3,825.0,0.5,49,138.0
6361,D4,825.25,0.25,47,138.0
6362,B-4,825.5,0.25,40,138.0
6363,C5,825.75,0.25,40,138.0
6364,F3,825.75,0.25,42,138.0
6365,D5,826.0,123/500,45,138.0
6366,B-3,826.0,0.5,51,138.0
6367,B-4,826.25,0.25,40,138.0
6368,F4,826.5,0.5,42,138.0
6369,C5,826.5,0.5,42,138.0
6370,A4,826.5,0.5,42,138.0
6371,D4,826.75,0.25,40,138.0
6372,G6,827.0,0.25,52,138.0
6373,F4,827.0,0.5,51,138.0
6374,F6,827.25,0.25,47,138.0
6375,G6,827.5,0.25,40,138.0
6376,F6,827.75,0.25,40,138.0
6377,B-4,827.75,0.25,43,138.0
6378,E-6,828.0,0.25,45,138.0
6379,D5,828.0,0.5,51,138.0
6380,G6,828.25,0.25,40,138.0
6381,E-6,828.5,0.25,52,138.0
6382,D4,828.5,0.25,45,138.0
6383,D6,828.75,0.25,42,138.0
6384,B-3,828.75,0.25,45,138.0
6385,C6,829.0,0.25,49,138.0
6386,B-4,829.0,0.25,40,138.0
6387,E-6,829.25,0.25,43,138.0
6388,C5,829.25,0.25,40,138.0
6389,C6,829.5,0.25,48,138.0
6390,D5,829.5,0.25,44,138.0
6391,B-5,829.75,0.25,40,138.0
6392,B-4,829.75,0.25,40,138.0
6393,A5,830.0,0.25,45,138.0
6394,D4,830.0,0.25,40,138.0
6395,C6,830.25,0.25,40,138.0
6396,E-4,830.25,0.25,40,138.0
6397,F#5,830.5,0.25,52,138.0
6398,F4,830.5,0.25,45,138.0
6399,F5,830.75,0.25,42,138.0
6400,D4,830.75,0.25,40,138.0
6401,E-5,831.0,0.25,49,138.0
6402,B-3,831.0,0.25,40,138.0
6403,F#5,831.25,0.25,43,138.0
6404,C4,831.25,0.25,40,138.0
6405,E-5,831.5,0.25,48,138.0
6406,D4,831.5,0.25,45,138.0
6407,D5,831.75,0.25,40,138.0
6408,B-3,831.75,123/500,40,138.0
6409,C5,832.0,0.25,45,138.0
6410,D5,832.0,0.25,40,138.0
6411,E-5,832.25,0.25,40,138.0
6412,E-5,832.25,0.25,40,138.0
6413,C5,832.5,0.25,52,138.0
6414,F5,832.5,0.25,45,138.0
6415,B-4,832.75,0.25,42,138.0
6416,D5,832.75,0.25,40,138.0
6417,A4,833.0,0.25,49,138.0
6418,E-5,833.0,0.25,40,138.0
6419,C5,833.25,0.25,43,138.0
6420,F5,833.25,0.25,40,138.0
6421,E-4,833.5,0.25,48,138.0
6422,E-5,833.5,0.25,45,138.0
6423,D4,833.75,0.25,40,138.0
6424,D5,833.75,0.25,40,138.0
6425,C4,834.0,0.25,45,138.0
6426,E-5,834.0,0.25,40,138.0
6427,E-4,834.25,0.25,40,138.0
6428,F5,834.25,0.25,40,138.0
6429,G5,834.5,0.25,45,138.0
6430,F4,834.5,0.5,43,138.0
6431,B-4,834.5,0.5,43,138.0
6432,E-5,834.75,0.25,40,138.0
6433,F6,835.0,0.25,52,138.0
6434,C5,835.0,0.25,46,138.0
6435,E-6,835.25,0.25,47,138.0
6436,D5,835.25,0.25,38,138.0
6437,F6,835.5,0.25,40,138.0
6438,E-5,835.5,0.25,45,138.0
6439,E-6,835.75,0.25,40,138.0
6440,C5,835.75,0.25,40,138.0
6441,D6,836.0,0.25,45,138.0
6442,A4,836.0,0.25,45,138.0
6443,F6,836.25,0.25,40,138.0
6444,B-4,836.25,0.25,36,138.0
6445,D6,836.5,0.25,52,138.0
6446,C5,836.5,0.25,41,138.0
6447,C6,836.75,0.25,42,138.0
6448,A4,836.75,0.25,36,138.0
6449,B-5,837.0,0.25,49,138.0
6450,E-4,837.0,0.25,46,138.0
6451,D6,837.25,0.25,43,138.0
6452,F4,837.25,0.25,38,138.0
6453,F5,837.5,0.25,48,138.0
6454,F#4,837.5,0.25,45,138.0
6455,E-5,837.75,0.25,40,138.0
6456,E-4,837.75,0.25,40,138.0
6457,D5,838.0,0.25,45,138.0
6458,C4,838.0,0.25,45,138.0
6459,F5,838.25,0.25,40,138.0
6460,D4,838.25,0.25,36,138.0
6461,B-5,838.5,0.25,52,138.0
6462,E-4,838.5,0.25,41,138.0
6463,G5,838.75,0.25,42,138.0
6464,C4,838.75,0.25,36,138.0
6465,F5,839.0,0.25,49,138.0
6466,A3,839.0,0.25,46,138.0
6467,B-5,839.25,0.25,43,138.0
6468,B-3,839.25,0.25,38,138.0
6469,D5,839.5,0.25,48,138.0
6470,C4,839.5,0.25,45,138.0
6471,C5,839.75,0.25,40,138.0
6472,A3,839.75,0.25,40,138.0
6473,B-4,840.0,0.25,45,138.0
6474,C5,840.0,0.25,45,138.0
6475,D5,840.25,0.25,40,138.0
6476,B-4,840.25,0.25,36,138.0
6477,D6,840.5,0.25,62,138.0
6478,D5,840.5,1.0,62,138.0
6479,A4,840.5,0.25,41,138.0
6480,C6,840.75,0.25,51,138.0
6481,C5,840.75,0.25,36,138.0
6482,B-5,841.0,0.25,61,138.0
6483,D5,841.0,0.25,40,138.0
6484,D6,841.25,0.25,52,138.0
6485,E-5,841.25,0.25,40,138.0
6486,E-6,841.5,0.25,52,138.0
6487,F#5,841.5,1.0,62,138.0
6488,D5,841.5,0.25,45,138.0
6489,D6,841.75,0.25,59,138.0
6490,C5,841.75,0.25,40,138.0
6491,E-6,842.0,0.25,62,138.0
6492,D5,842.0,0.25,40,138.0
6493,F6,842.25,0.25,65,138.0
6494,E-5,842.25,0.25,40,138.0
6495,F5,842.5,0.25,45,138.0
6496,F5,842.5,0.5,51,138.0
6497,F6,842.5,0.5,51,138.0
6498,D5,842.75,0.25,40,138.0
6499,B-4,843.0,0.25,46,138.0
6500,C5,843.25,0.25,38,138.0
6501,D5,843.5,0.25,45,138.0
6502,B-4,843.75,0.25,40,138.0
6503,F4,844.0,0.25,45,138.0
6504,A4,844.25,0.25,36,138.0
6505,B-4,844.5,0.25,41,138.0
6506,F4,844.75,0.25,36,138.0
6507,D4,845.0,0.25,46,138.0
6508,C5,845.0,0.5,37,138.0
6509,A4,845.0,0.5,37,138.0
6510,E-4,845.25,0.25,38,138.0
6511,F4,845.5,0.25,45,138.0
6512,D5,845.5,0.25,35,138.0
6513,B-4,845.5,0.25,35,138.0
6514,D4,845.75,0.25,40,138.0
6515,B-6,846.0,0.25,47,138.0
6516,B-3,846.0,0.25,45,138.0
6517,A6,846.25,0.25,44,138.0
6518,C4,846.25,0.25,36,138.0
6519,B-6,846.5,0.5,47,138.0
6520,D4,846.5,0.25,41,138.0
6521,B-3,846.75,0.25,36,138.0
6522,F3,847.0,0.25,46,138.0
6523,G6,847.0,0.5,35,138.0
6524,B-5,847.0,0.5,35,138.0
6525,G5,847.0,0.5,35,138.0
6526,A3,847.25,0.25,38,138.0
6527,B-3,847.5,0.25,45,138.0
6528,A5,847.5,0.5,37,138.0
6529,F6,847.5,0.5,37,138.0
6530,F5,847.5,0.5,37,138.0
6531,F3,847.75,0.25,40,138.0
6532,E-3,848.0,0.25,45,138.0
6533,E6,848.0,0.5,33,138.0
6534,G5,848.0,0.5,33,138.0
6535,E5,848.0,0.5,33,138.0
6536,B-3,848.25,0.25,36,138.0
6537,F3,848.5,0.25,41,138.0
6538,G5,848.5,0.5,40,138.0
6539,G6,848.5,0.5,40,138.0
6540,B-5,848.5,0.5,40,138.0
6541,E-3,848.75,0.25,36,138.0
6542,D3,849.0,0.5,36,138.0
6543,A5,849.0,0.5,32,138.0
6544,F5,849.0,0.5,32,138.0
6545,F6,849.0,0.5,32,138.0
6546,A5,849.5,0.5,33,138.0
6547,F6,849.5,0.5,33,138.0
6548,B-2,849.5,0.5,37,138.0
6549,B-3,849.5,0.5,37,138.0
6550,B-4,850.0,0.25,42,138.0
6551,F5,850.0,0.25,42,138.0
6552,G3,850.0,0.25,33,138.0
6553,E-3,850.0,0.25,33,138.0
6554,E-5,850.25,0.25,37,138.0
6555,C5,850.25,0.25,37,138.0
6556,D5,850.5,0.5,46,138.0
6557,E-4,850.5,0.25,40,138.0
6558,C4,850.75,0.25,36,138.0
6559,B-5,851.0,0.5,51,138.0
6560,B-4,851.0,0.75,43,138.0
6561,A3,851.0,0.5,36,138.0
6562,G5,851.5,0.25,46,138.0
6563,F3,851.5,0.5,35,138.0
6564,F4,851.5,0.5,35,138.0
6565,E-5,852.0,0.25,47,138.0
6566,E-6,852.0,0.25,47,138.0
6567,D4,852.0,0.25,33,138.0
6568,B-3,852.0,0.25,33,138.0
6569,G5,852.25,0.25,40,138.0
6570,C6,852.25,0.25,40,138.0
6571,A5,852.5,0.5,51,138.0
6572,F5,853.0,0.75,47,138.0
6573,F6,853.0,0.5,56,138.0
6574,D6,853.5,0.25,53,138.0
6575,E4,853.5,0.5,30,138.0
6576,C#4,853.5,0.5,30,138.0
6577,B-3,853.5,0.5,30,138.0
6578,G4,853.5,0.5,30,138.0
6579,B-5,854.0,0.25,52,138.0
6580,F4,854.0,0.5,36,138.0
6581,A4,854.0,0.5,36,138.0
6582,C4,854.0,0.5,36,138.0
6583,A5,854.25,0.25,45,138.0
6584,B-5,854.5,0.5,52,138.0
6585,C4,854.5,0.5,25,138.0
6586,G4,854.5,0.25,28,138.0
6587,B-4,854.5,0.25,28,138.0
6588,C5,854.75,0.25,36,138.0
6589,G5,855.0,0.5,42,138.0
6590,G6,855.0,0.5,42,138.0
6591,C5,855.0,0.5,33,138.0
6592,F4,855.0,0.5,33,138.0
6593,F4,855.5,0.5,30,138.0
6594,D5,855.5,0.375,36,138.0
6595,E-6,855.5,0.5,42,138.0
6596,E-5,855.5,0.5,42,138.0
6597,G5,855.5,0.5,42,138.0
6598,E5,855.875,0.125,31,138.0
6599,D6,856.0,62/125,39,138.0
6600,A5,856.0,62/125,39,138.0
6601,D5,856.0,62/125,39,138.0
6602,F4,856.0,0.5,33,138.0
6603,F5,856.0,0.5,33,138.0
6604,D6,856.5,1.5,44,138.0
6605,G4,856.5,0.25,37,138.0
6606,D5,856.5,0.5,40,138.0
6607,A5,856.5,0.5,40,138.0
6608,A4,856.75,0.25,36,138.0
6609,C6,857.0,0.25,50,138.0
6610,B-4,857.0,62/125,36,138.0
6611,B-5,857.25,123/500,44,138.0
6612,B-5,857.5,0.5,49,138.0
6613,F4,857.5,0.5,33,138.0
6614,D4,857.5,0.5,33,138.0
6615,B-5,858.0,0.5,46,138.0
6616,G6,858.0,0.5,50,138.0
6617,C#6,858.0,0.5,50,138.0
6618,E-4,858.0,0.25,33,138.0
6619,G4,858.0,0.25,33,138.0
6620,C6,858.5,1.5,44,138.0
6621,B-5,858.5,0.5,46,138.0
6622,C5,858.5,0.25,36,138.0
6623,E-5,858.75,0.25,32,138.0
6624,B-5,859.0,0.25,50,138.0
6625,F5,859.0,62/125,36,138.0
6626,G#5,859.25,123/500,44,138.0
6627,G#5,859.5,0.5,49,138.0
6628,A4,859.5,0.5,33,138.0
6629,C5,859.5,0.5,33,138.0
6630,G#5,860.0,0.5,55,138.0
6631,F6,860.0,0.5,55,138.0
6632,B5,860.0,0.5,55,138.0
6633,B-4,860.0,0.25,33,138.0
6634,D5,860.0,0.25,33,138.0
6635,B-5,860.5,1.5,44,138.0
6636,G#5,860.5,0.5,55,138.0
6637,G4,860.5,0.25,41,138.0
6638,F#4,860.75,0.25,36,138.0
6639,G#5,861.0,0.25,50,138.0
6640,G4,861.0,0.5,36,138.0
6641,G5,861.25,123/500,44,138.0
6642,G5,861.5,0.5,49,138.0
6643,E-5,861.5,0.5,32,138.0
6644,B-4,861.5,0.5,32,138.0
6645,G4,861.5,0.5,32,138.0
6646,G5,862.0,0.5,46,138.0
6647,E6,862.0,0.5,50,138.0
6648,B-5,862.0,0.5,50,138.0
6649,G4,862.0,0.5,33,138.0
6650,C5,862.0,0.5,33,138.0
6651,A5,862.5,1.5,44,138.0
6652,G5,862.5,0.5,46,138.0
6653,A4,862.5,62/125,30,138.0
6654,F#4,862.5,62/125,30,138.0
6655,G5,863.0,0.25,50,138.0
6656,A4,863.0,0.5,30,138.0
6657,F#4,863.0,0.5,30,138.0
6658,F5,863.25,123/500,44,138.0
6659,F5,863.5,0.5,49,138.0
6660,F#4,863.5,0.5,28,138.0
6661,D4,863.5,0.5,28,138.0
6662,G#5,864.0,0.5,49,138.0
6663,D6,864.0,0.5,49,138.0
6664,F5,864.0,0.5,49,138.0
6665,G4,864.0,0.5,33,138.0
6666,B-4,864.0,0.5,33,138.0
6667,G#5,864.5,0.25,55,138.0
6668,F5,864.5,0.5,46,138.0
6669,F4,864.5,0.25,37,138.0
6670,G#4,864.5,0.25,37,138.0
6671,G5,864.75,0.5,46,138.0
6672,G4,864.75,31/125,33,138.0
6673,E4,864.75,31/125,33,138.0
6674,E-5,865.0,0.5,46,138.0
6675,E4,865.0,0.5,33,138.0
6676,G4,865.0,0.5,33,138.0
6677,C6,865.25,0.25,48,138.0
6678,F#5,865.5,0.25,55,138.0
6679,E-5,865.5,0.5,46,138.0
6680,C4,865.5,0.5,28,138.0
6681,E4,865.5,0.5,28,138.0
6682,F5,865.75,0.5,47,138.0
6683,D5,866.0,0.5,46,138.0
6684,F4,866.0,0.5,33,138.0
6685,G#4,866.0,0.5,33,138.0
6686,B-5,866.25,0.25,49,138.0
6687,F5,866.5,0.25,56,138.0
6688,F#4,866.5,0.25,37,138.0
6689,E-4,866.5,0.25,37,138.0
6690,F6,866.75,0.25,49,138.0
6691,F4,866.75,31/125,33,138.0
6692,D4,866.75,31/125,33,138.0
6693,E6,867.0,0.25,50,138.0
6694,D4,867.0,0.5,33,138.0
6695,F4,867.0,0.5,33,138.0
6696,E-6,867.25,0.25,50,138.0
6697,C6,867.5,0.25,51,138.0
6698,D4,867.5,0.5,28,138.0
6699,B-3,867.5,0.5,28,138.0
6700,A5,867.75,0.25,52,138.0
6701,F#5,868.0,0.25,53,138.0
6702,E-4,868.0,0.5,33,138.0
6703,G4,868.0,0.5,33,138.0
6704,F5,868.25,0.25,54,138.0
6705,E5,868.5,0.25,55,138.0
6706,F4,868.5,0.25,37,138.0
6707,D4,868.5,0.25,37,138.0
6708,E-5,868.75,0.25,56,138.0
6709,C#4,868.75,31/125,33,138.0
6710,E4,868.75,31/125,33,138.0
6711,C5,869.0,0.25,56,138.0
6712,C#4,869.0,0.5,33,138.0
6713,E4,869.0,0.5,33,138.0
6714,A4,869.25,0.25,57,138.0
6715,F#4,869.5,0.25,61,138.0
6716,B-4,869.5,0.5,51,138.0
6717,C#4,869.5,0.5,28,138.0
6718,A3,869.5,0.5,28,138.0
6719,F4,869.75,0.25,47,138.0
6720,G5,870.0,0.25,58,138.0
6721,B-4,870.0,0.5,49,138.0
6722,F4,870.0,0.5,33,138.0
6723,D4,870.0,0.5,33,138.0
6724,F5,870.25,0.25,47,138.0
6725,F5,870.5,0.25,56,138.0
6726,E-4,870.5,0.25,37,138.0
6727,C4,870.5,0.25,37,138.0
6728,F6,870.75,0.25,50,138.0
6729,D4,870.75,31/125,33,138.0
6730,B3,870.75,31/125,33,138.0
6731,E6,871.0,0.25,51,138.0
6732,D4,871.0,0.5,33,138.0
6733,B3,871.0,0.5,33,138.0
6734,E-6,871.25,0.25,52,138.0
6735,C6,871.5,0.25,53,138.0
6736,C4,871.5,0.25,36,138.0
6737,E-4,871.5,0.5,30,138.0
6738,A5,871.75,0.25,54,138.0
6739,B-3,871.75,0.25,30,138.0
6740,F#5,872.0,0.25,55,138.0
6741,A3,872.0,0.5,33,138.0
6742,C4,872.0,0.5,33,138.0
6743,F5,872.25,0.25,57,138.0
6744,E5,872.5,0.25,58,138.0
6745,B-3,872.5,0.25,36,138.0
6746,D4,872.5,0.5,30,138.0
6747,E-5,872.75,0.25,59,138.0
6748,D3,872.75,0.25,32,138.0
6749,C5,873.0,0.25,60,138.0
6750,F3,873.0,2.0,27,138.0
6751,E-4,873.0,2.0,27,138.0
6752,C3,873.0,2.0,27,138.0
6753,A4,873.25,0.25,61,138.0
6754,F#4,873.5,0.25,64,138.0
6755,B-4,873.5,0.5,64,138.0
6756,F4,873.75,0.25,47,138.0
6757,B-4,874.0,0.5,49,138.0
6758,G5,874.0,0.25,58,138.0
6759,F5,874.25,0.25,47,138.0
6760,F5,874.5,0.25,52,138.0
6761,D5,874.75,0.25,50,138.0
6762,B-5,874.75,0.25,50,138.0
6763,F5,875.0,0.25,54,138.0
6764,D6,875.0,0.25,54,138.0
6765,C6,875.25,0.25,48,138.0
6766,E-5,875.25,0.25,48,138.0
6767,B-5,875.5,1.0,58,138.0
6768,D5,875.5,0.25,58,138.0
6769,F#5,875.75,0.25,50,138.0
6770,G5,876.0,0.25,55,138.0
6771,F3,876.0,1.0,27,138.0
6772,E-4,876.0,1.0,27,138.0
6773,C3,876.0,1.0,27,138.0
6774,D5,876.25,0.25,50,138.0
6775,C#5,876.5,0.25,54,138.0
6776,B-5,876.5,1.0,58,138.0
6777,F#5,876.75,0.25,58,138.0
6778,G5,877.0,0.25,58,138.0
6779,D4,877.0,1.0,27,138.0
6780,D3,877.0,1.0,27,138.0
6781,F3,877.0,1.0,27,138.0
6782,C#5,877.25,0.25,53,138.0
6783,C5,877.5,0.25,56,138.0
6784,E5,877.75,0.25,50,138.0
6785,F5,878.0,0.25,60,138.0
6786,C2,878.0,2.0,27,138.0
6787,E-3,878.0,2.0,27,138.0
6788,F2,878.0,2.0,27,138.0
6789,F6,878.25,0.25,54,138.0
6790,F6,878.5,0.25,61,138.0
6791,F7,878.75,0.25,48,138.0
6792,E7,879.0,0.25,49,138.0
6793,E-7,879.25,0.25,50,138.0
6794,C7,879.5,0.25,51,138.0
6795,A6,879.75,0.25,51,138.0
6796,F#6,880.0,0.25,52,138.0
6797,F6,880.25,0.25,53,138.0
6798,E6,880.5,0.25,55,138.0
6799,E-6,880.75,0.25,60,138.0
6800,C6,881.0,0.25,64,138.0
6801,C2,881.0,1.0,27,138.0
6802,E-3,881.0,1.0,27,138.0
6803,F2,881.0,1.0,27,138.0
6804,A5,881.25,0.25,67,138.0
6805,B-5,881.5,0.5,60,138.0
6806,F#5,881.5,0.25,72,138.0
6807,F5,881.75,0.25,51,138.0
6808,G6,882.0,0.25,63,138.0
6809,B-5,882.0,0.5,53,138.0
6810,D2,882.0,1.0,27,138.0
6811,F2,882.0,1.0,27,138.0
6812,D3,882.0,1.0,27,138.0
6813,F6,882.25,0.25,51,138.0
6814,F6,882.75,0.25,48,138.0
6815,E6,883.0,0.25,49,138.0
6816,D3,883.0,1.0,28,138.0
6817,D2,883.0,1.0,28,138.0
6818,E-6,883.25,0.25,50,138.0
6819,C6,883.5,0.25,51,138.0
6820,A5,883.75,0.25,51,138.0
6821,F#5,884.0,0.25,52,138.0
6822,G2,884.0,1.0,26,138.0
6823,G3,884.0,1.0,26,138.0
6824,F5,884.25,0.25,53,138.0
6825,E5,884.5,0.25,57,138.0
6826,E-5,884.75,0.25,59,138.0
6827,C5,885.0,0.25,61,138.0
6828,E3,885.0,1.0,28,138.0
6829,E2,885.0,1.0,28,138.0
6830,A4,885.25,0.25,63,138.0
6831,B-4,885.5,0.5,54,138.0
6832,F#4,885.5,0.25,67,138.0
6833,F4,885.75,0.25,51,138.0
6834,G5,886.0,0.25,63,138.0
6835,B-4,886.0,0.5,53,138.0
6836,F3,886.0,0.5,26,138.0
6837,F2,886.0,0.5,26,138.0
6838,F5,886.25,0.25,51,138.0
6839,F5,886.5,0.25,56,138.0
6840,B-5,886.75,0.25,50,138.0
6841,D5,886.75,0.25,50,138.0
6842,F5,887.0,0.25,54,138.0
6843,D6,887.0,0.25,54,138.0
6844,C4,887.0,2.0,27,138.0
6845,E-5,887.0,2.0,27,138.0
6846,F4,887.0,2.0,27,138.0
6847,C6,887.25,0.25,48,138.0
6848,E-5,887.25,0.25,48,138.0
6849,D5,887.5,0.25,58,138.0
6850,B-5,887.5,1.0,58,138.0
6851,F#5,887.75,0.25,50,138.0
6852,G5,888.0,0.25,55,138.0
6853,D5,888.25,0.25,50,138.0
6854,C#5,888.5,0.25,54,138.0
6855,B-5,888.5,1.0,58,138.0
6856,F#5,888.75,0.25,58,138.0
6857,G5,889.0,0.25,58,138.0
6858,C#5,889.25,0.25,53,138.0
6859,C5,889.5,0.25,56,138.0
6860,A5,889.5,0.5,54,138.0
6861,F5,889.75,0.25,50,138.0
6862,B-5,890.0,0.5,54,138.0
6863,B-4,890.0,0.25,60,138.0
6864,C4,890.0,1.0,27,138.0
6865,E-5,890.0,1.0,27,138.0
6866,F4,890.0,1.0,27,138.0
6867,E-5,890.25,0.25,50,138.0
6868,B-5,890.5,0.25,54,138.0
6869,E-6,890.75,0.25,52,138.0
6870,G5,890.75,0.25,52,138.0
6871,B-5,891.0,0.25,57,138.0
6872,G6,891.0,0.25,57,138.0
6873,D5,891.0,1.0,27,138.0
6874,D4,891.0,1.0,27,138.0
6875,F4,891.0,1.0,27,138.0
6876,F6,891.25,0.25,52,138.0
6877,G#5,891.25,0.25,52,138.0
6878,E-6,891.5,1.0,63,138.0
6879,G5,891.5,0.25,63,138.0
6880,B5,891.75,0.25,55,138.0
6881,C6,892.0,0.25,61,138.0
6882,E-4,892.0,2.0,27,138.0
6883,C3,892.0,2.0,27,138.0
6884,F3,892.0,2.0,27,138.0
6885,G5,892.25,0.25,56,138.0
6886,F#5,892.5,0.25,61,138.0
6887,E-6,892.5,1.0,63,138.0
6888,B5,892.75,0.25,64,138.0
6889,C6,893.0,0.25,66,138.0
6890,F#5,893.25,0.25,62,138.0
6891,F5,893.5,0.25,66,138.0
6892,D6,893.5,0.5,63,138.0
6893,B-5,893.75,0.25,59,138.0
6894,E-5,894.0,0.25,66,138.0
6895,E-6,894.0,0.5,64,138.0
6896,G#5,894.25,0.25,60,138.0
6897,E-6,894.5,0.5,63,138.0
6898,C6,894.75,0.25,55,138.0
6899,E-6,895.0,0.25,60,138.0
6900,G#6,895.0,0.5,71,138.0
6901,E-4,895.0,1.0,27,138.0
6902,C3,895.0,1.0,27,138.0
6903,F3,895.0,1.0,27,138.0
6904,C#6,895.25,0.25,55,138.0
6905,C#6,895.5,0.25,68,138.0
6906,G#6,895.5,1.0,73,138.0
6907,B5,895.75,0.25,63,138.0
6908,B-5,896.0,0.25,70,138.0
6909,D3,896.0,1.0,27,138.0
6910,D4,896.0,1.0,27,138.0
6911,F3,896.0,1.0,27,138.0
6912,B5,896.25,0.25,65,138.0
6913,B5,896.5,0.25,70,138.0
6914,G#6,896.5,1.0,73,138.0
6915,E6,896.75,0.25,73,138.0
6916,F6,897.0,0.25,77,138.0
6917,D3,897.0,1.0,28,138.0
6918,D4,897.0,1.0,28,138.0
6919,B5,897.25,0.25,71,138.0
6920,G6,897.5,1.0,78,138.0
6921,B-5,897.5,0.25,75,138.0
6922,D6,897.75,0.25,68,138.0
6923,E-6,898.0,0.25,82,138.0
6924,G3,898.0,1.0,26,138.0
6925,G4,898.0,1.0,26,138.0
6926,B-5,898.25,0.25,69,138.0
6927,G5,898.5,0.5,83,138.0
6928,G6,898.5,0.5,78,138.0
6929,G6,899.0,0.5,82,138.0
6930,E-6,899.0,0.5,82,138.0
6931,G5,899.0,0.5,82,138.0
6932,B-5,899.0,0.5,82,138.0
6933,E3,899.0,1.0,28,138.0
6934,E4,899.0,1.0,28,138.0
6935,D6,899.5,0.5,81,138.0
6936,F6,899.5,0.5,81,138.0
6937,G6,900.0,0.25,80,138.0
6938,E-6,900.0,0.25,80,138.0
6939,F3,900.0,0.5,26,138.0
6940,F4,900.0,0.5,26,138.0
6941,F6,900.25,0.25,85,138.0
6942,G#6,900.25,0.25,85,138.0
6943,B-6,900.5,0.25,88,138.0
6944,G6,900.5,0.25,88,138.0
6945,F#3,900.5,0.5,26,138.0
6946,F#4,900.5,0.5,26,138.0
6947,G6,901.0,0.25,84,138.0
6948,E-6,901.0,0.25,84,138.0
6949,G3,901.0,1.0,28,138.0
6950,G4,901.0,1.0,28,138.0
6951,C4,902.0,1.0,28,138.0
6952,C5,902.0,1.0,28,138.0
6953,G6,903.0,0.5,82,138.0
6954,G5,903.0,0.5,82,138.0
6955,B-5,903.0,0.5,82,138.0
6956,E-6,903.0,0.5,82,138.0
6957,A3,903.0,1.0,30,138.0
6958,A4,903.0,1.0,30,138.0
6959,F6,903.5,0.5,81,138.0
6960,D6,903.5,0.5,81,138.0
6961,E-6,904.0,0.25,80,138.0
6962,G6,904.0,0.25,80,138.0
6963,B-3,904.0,0.5,31,138.0
6964,B-4,904.0,0.5,31,138.0
6965,F6,904.25,0.25,85,138.0
6966,G#6,904.25,0.25,85,138.0
6967,G6,904.5,0.25,88,138.0
6968,B-6,904.5,0.25,88,138.0
6969,B3,904.5,0.5,31,138.0
6970,B4,904.5,0.5,31,138.0
6971,G5,905.0,0.5,90,138.0
6972,B-4,905.0,0.5,90,138.0
6973,C5,905.0,0.5,90,138.0
6974,B-5,905.0,0.5,90,138.0
6975,C4,905.0,1.0,33,138.0
6976,C5,905.0,1.0,33,138.0
6977,E5,906.0,0.5,90,138.0
6978,B-4,906.0,0.5,90,138.0
6979,G5,906.0,0.5,90,138.0
6980,B-5,906.0,0.5,90,138.0
6981,E4,906.0,1.0,32,138.0
6982,E5,906.0,1.0,32,138.0
6983,B-5,907.0,0.5,90,138.0
6984,D5,907.0,0.5,90,138.0
6985,F5,907.0,0.5,90,138.0
6986,B-4,907.0,0.5,90,138.0
6987,D4,907.0,1.0,36,138.0
6988,D5,907.0,1.0,36,138.0
6989,C5,908.0,0.5,83,138.0
6990,B-5,908.0,0.5,83,138.0
6991,B-4,908.0,0.5,83,138.0
6992,E5,908.0,0.5,83,138.0
6993,E-4,908.0,1.0,39,138.0
6994,E-5,908.0,1.0,39,138.0
6995,D5,908.5,1.0,68,138.0
6996,B-5,908.5,1.0,68,138.0
6997,B-4,908.5,1.0,68,138.0
6998,F5,908.5,1.0,68,138.0
6999,F5,909.5,1.0,59,138.0
7000,D5,909.5,1.0,59,138.0
7001,E-4,909.5,0.5,39,138.0
7002,E-5,909.5,0.5,39,138.0
7003,E-2,910.0,0.5,61,138.0
7004,E-3,910.0,0.5,61,138.0
7005,F5,911.0,0.5,59,138.0
7006,D5,911.0,0.5,59,138.0
7007,D5,911.5,123/500,63,138.0
7008,F5,912.0,0.25,56,138.0
7009,G4,912.0,0.25,76,138.0
7010,E-4,912.0,0.25,76,138.0
7011,A5,912.25,0.25,57,138.0
7012,B-5,912.5,0.25,58,138.0
7013,D4,912.5,0.5,73,138.0
7014,F4,912.5,0.5,73,138.0
7015,D6,912.75,0.25,59,138.0
7016,E6,913.0,0.25,60,138.0
7017,E-4,913.0,0.25,74,138.0
7018,G4,913.0,0.25,74,138.0
7019,F6,913.25,0.25,61,138.0
7020,G#4,913.25,0.25,78,138.0
7021,F4,913.25,0.25,78,138.0
7022,G6,913.5,0.25,62,138.0
7023,B-4,913.5,0.25,81,138.0
7024,G4,913.5,0.25,81,138.0
7025,F6,913.75,0.25,62,138.0
7026,A6,914.0,0.25,63,138.0
7027,E-3,914.0,0.5,61,138.0
7028,E-2,914.0,0.5,61,138.0
7029,B-6,914.25,0.25,64,138.0
7030,C7,914.5,0.25,65,138.0
7031,B-6,914.75,0.25,66,138.0
7032,C#7,915.0,0.25,67,138.0
7033,D7,915.25,0.25,68,138.0
7034,E-7,915.5,0.25,69,138.0
7035,D7,915.75,0.25,70,138.0
7036,F7,916.0,0.5,71,138.0
7037,E2,916.0,0.5,68,138.0
7038,E3,916.0,0.5,68,138.0
7039,E-5,916.5,0.5,64,138.0
7040,C5,916.5,0.5,64,138.0
7041,D5,917.0,2.0,58,138.0
7042,C3,917.0,0.5,73,138.0
7043,C2,917.0,0.5,73,138.0
7044,D6,918.0,1.0,59,138.0
7045,F3,918.0,0.5,68,138.0
7046,F2,918.0,0.5,68,138.0
7047,E-6,919.0,1.0,52,138.0
7048,E-5,919.0,1.0,52,138.0
7049,G3,919.0,0.5,66,138.0
7050,G2,919.0,0.5,66,138.0
7051,F2,919.5,0.25,50,138.0
7052,A2,919.75,0.25,50,138.0
7053,B-2,920.0,0.25,50,138.0
7054,F#6,920.0,1.0,56,138.0
7055,F#5,920.0,1.0,56,138.0
7056,D3,920.25,0.25,50,138.0
7057,F3,920.5,0.25,50,138.0
7058,A3,920.75,0.25,50,138.0
7059,B-5,921.0,2.0,62,138.0
7060,B-3,921.0,0.25,50,138.0
7061,D4,921.25,0.25,50,138.0
7062,F4,921.5,0.25,50,138.0
7063,A4,921.75,0.25,50,138.0
7064,B-4,922.0,0.25,50,138.0
7065,F5,922.0,1.0,54,138.0
7066,D5,922.0,1.0,54,138.0
7067,D5,922.25,0.25,50,138.0
7068,F#5,923.0,1.0,59,138.0
7069,B-4,923.0,0.25,43,138.0
7070,D5,923.25,0.25,44,138.0
7071,F#6,923.5,0.5,60,138.0
7072,E5,923.5,0.25,45,138.0
7073,F5,923.75,0.25,46,138.0
7074,G5,924.0,0.25,47,138.0
7075,E-6,924.0,1.0,58,138.0
7076,E-5,924.0,1.0,58,138.0
7077,F5,924.25,0.25,48,138.0
7078,A5,924.5,0.25,50,138.0
7079,B-5,924.75,0.25,51,138.0
7080,C6,925.0,0.25,52,138.0
7081,C#5,925.0,1.0,61,138.0
7082,C#6,925.0,1.0,61,138.0
7083,B-5,925.25,0.25,53,138.0
7084,C#6,925.5,0.25,54,138.0
7085,D6,925.75,0.25,55,138.0
7086,E-6,926.0,0.25,56,138.0
7087,D6,926.0,1.0,58,138.0
7088,D5,926.0,1.0,58,138.0
7089,D6,926.25,0.25,58,138.0
7090,F6,926.5,0.5,59,138.0
7091,F4,927.0,167/1000,60,138.0
7092,F5,927.0,1.0,59,138.0
7093,F6,927.0,1.0,59,138.0
7094,G4,927.167,167/1000,63,138.0
7095,A4,927.333,167/1000,66,138.0
7096,B-3,927.5,333/1000,40,138.0
7097,B-4,927.833,333/1000,32,138.0
7098,E-6,928.0,0.75,58,138.0
7099,E-5,928.0,0.75,58,138.0
7100,A4,928.167,333/1000,32,138.0
7101,B-4,928.5,333/1000,40,138.0
7102,C5,928.75,0.25,52,138.0
7103,C6,928.75,0.25,52,138.0
7104,A4,928.833,333/1000,33,138.0
7105,B-5,929.0,169/1000,49,138.0
7106,D6,929.0,2.0,54,138.0
7107,F5,929.0,2.0,54,138.0
7108,B-4,929.167,333/1000,33,138.0
7109,C6,929.169,167/1000,42,138.0
7110,B-5,929.335,169/1000,49,138.0
7111,F#4,929.5,333/1000,40,138.0
7112,C6,929.502,169/1000,44,138.0
7113,B-5,929.671,167/1000,49,138.0
7114,B-4,929.833,333/1000,31,138.0
7115,C6,929.837,169/1000,44,138.0
7116,B-5,930.0,169/1000,50,138.0
7117,F#4,930.167,333/1000,31,138.0
7118,C6,930.169,167/1000,44,138.0
7119,B-5,930.335,169/1000,50,138.0
7120,B-4,930.5,333/1000,40,138.0
7121,C6,930.502,169/1000,46,138.0
7122,B-5,930.671,167/1000,51,138.0
7123,E-4,930.833,333/1000,33,138.0
7124,C6,930.837,81/500,45,138.0
7125,B-5,931.0,169/1000,51,138.0
7126,C6,931.0,3/500,45,138.0
7127,E-5,931.0,1.0,62,138.0
7128,E-6,931.0,1.0,62,138.0
7129,B-4,931.167,333/1000,33,138.0
7130,C6,931.169,167/1000,44,138.0
7131,B-5,931.335,169/1000,52,138.0
7132,D4,931.5,333/1000,40,138.0
7133,C6,931.502,169/1000,47,138.0
7134,B-5,931.671,167/1000,52,138.0
7135,B-4,931.833,333/1000,31,138.0
7136,C6,931.837,169/1000,47,138.0
7137,B-5,932.0,169/1000,53,138.0
7138,G5,932.0,1.0,68,138.0
7139,G6,932.0,1.0,68,138.0
7140,F4,932.167,333/1000,31,138.0
7141,C6,932.169,167/1000,47,138.0
7142,B-5,932.335,169/1000,54,138.0
7143,B-3,932.5,333/1000,40,138.0
7144,C6,932.502,169/1000,48,138.0
7145,B-5,932.671,167/1000,54,138.0
7146,B-4,932.833,333/1000,32,138.0
7147,C6,932.837,81/500,48,138.0
7148,B-5,933.0,169/1000,55,138.0
7149,B-6,933.0,2.0,85,138.0
7150,C6,933.0,3/500,48,138.0
7151,F4,933.167,333/1000,32,138.0
7152,C6,933.169,167/1000,47,138.0
7153,B-5,933.335,169/1000,55,138.0
7154,E-4,933.5,333/1000,40,138.0
7155,C6,933.502,169/1000,50,138.0
7156,B-5,933.671,167/1000,56,138.0
7157,B-4,933.833,333/1000,33,138.0
7158,C6,933.837,169/1000,51,138.0
7159,B-5,934.0,169/1000,56,138.0
7160,E-4,934.167,333/1000,33,138.0
7161,C6,934.169,167/1000,50,138.0
7162,B-5,934.335,169/1000,57,138.0
7163,F#4,934.5,333/1000,40,138.0
7164,C6,934.502,169/1000,51,138.0
7165,B-5,934.671,167/1000,57,138.0
7166,B-4,934.833,333/1000,32,138.0
7167,C6,934.837,81/500,51,138.0
7168,B-5,935.0,169/1000,58,138.0
7169,C6,935.0,3/500,51,138.0
7170,G5,935.0,1.0,66,138.0
7171,G6,935.0,1.0,66,138.0
7172,F#4,935.167,333/1000,32,138.0
7173,C6,935.169,167/1000,50,138.0
7174,B-5,935.335,169/1000,59,138.0
7175,F4,935.5,333/1000,40,138.0
7176,C6,935.502,169/1000,53,138.0
7177,B-5,935.671,167/1000,59,138.0
7178,B-4,935.833,333/1000,32,138.0
7179,C6,935.837,169/1000,53,138.0
7180,B-5,936.0,169/1000,60,138.0
7181,E-5,936.0,1.0,71,138.0
7182,E-6,936.0,1.0,71,138.0
7183,F4,936.167,333/1000,32,138.0
7184,C6,936.169,167/1000,52,138.0
7185,B-5,936.335,169/1000,60,138.0
7186,B4,936.5,333/1000,40,138.0
7187,C6,936.502,169/1000,55,138.0
7188,B-5,936.671,167/1000,61,138.0
7189,F4,936.833,333/1000,36,138.0
7190,C6,936.837,81/500,54,138.0
7191,B-5,937.0,169/1000,61,138.0
7192,C6,937.0,3/500,54,138.0
7193,C#5,937.0,0.5,74,138.0
7194,C#6,937.0,0.5,74,138.0
7195,B4,937.167,333/1000,36,138.0
7196,C6,937.169,167/1000,53,138.0
7197,B-5,937.335,169/1000,62,138.0
7198,F4,937.5,333/1000,40,138.0
7199,D6,937.5,1.0,70,138.0
7200,D5,937.5,1.0,70,138.0
7201,C6,937.502,169/1000,56,138.0
7202,B-5,937.671,167/1000,62,138.0
7203,C5,937.833,333/1000,33,138.0
7204,C6,937.837,169/1000,56,138.0
7205,B-5,938.0,169/1000,63,138.0
7206,A4,938.167,333/1000,33,138.0
7207,C6,938.169,167/1000,55,138.0
7208,B-5,938.335,169/1000,64,138.0
7209,F3,938.5,333/1000,40,138.0
7210,F5,938.5,0.5,80,138.0
7211,F6,938.5,0.5,80,138.0
7212,C6,938.502,169/1000,57,138.0
7213,B-5,938.671,167/1000,64,138.0
7214,C4,938.833,333/1000,34,138.0
7215,C6,938.837,81/500,56,138.0
7216,F6,939.0,1.25,86,138.0
7217,A5,939.0,169/1000,75,138.0
7218,C6,939.0,3/500,56,138.0
7219,A3,939.167,333/1000,34,138.0
7220,B-5,939.169,167/1000,66,138.0
7221,A5,939.335,169/1000,75,138.0
7222,B-2,939.5,0.25,40,138.0
7223,B-5,939.502,169/1000,64,138.0
7224,A5,939.671,167/1000,75,138.0
7225,B-3,939.75,0.25,33,138.0
7226,B-5,939.837,169/1000,68,138.0
7227,A5,940.0,169/1000,78,138.0
7228,D4,940.0,0.25,33,138.0
7229,B-5,940.169,167/1000,69,138.0
7230,E-6,940.25,0.25,86,138.0
7231,B-3,940.25,0.25,33,138.0
7232,A5,940.335,169/1000,75,138.0
7233,F3,940.5,0.25,41,138.0
7234,G5,940.5,0.25,79,138.0
7235,C6,940.5,0.25,79,138.0
7236,B-3,940.75,0.25,35,138.0
7237,A5,940.75,0.25,79,138.0
7238,F6,940.75,0.25,79,138.0
7239,G#4,941.0,0.25,35,138.0
7240,G#5,941.0,0.25,91,138.0
7241,F5,941.0,0.25,91,138.0
7242,D6,941.0,0.25,91,138.0
7243,F6,941.0,0.25,91,138.0
7244,B-3,941.25,0.25,35,138.0
7245,G3,941.5,0.25,42,138.0
7246,F6,941.5,1.0,82,138.0
7247,G#6,941.5,1.0,82,138.0
7248,F7,941.5,1.0,82,138.0
7249,D7,941.5,1.0,82,138.0
7250,B-3,941.75,0.25,36,138.0
7251,B-4,942.0,0.25,36,138.0
7252,B-3,942.25,0.25,37,138.0
7253,E-3,942.5,0.25,44,138.0
7254,E-7,942.5,0.25,69,138.0
7255,G#6,942.5,0.25,69,138.0
7256,E-6,942.5,0.25,69,138.0
7257,F6,942.5,0.25,69,138.0
7258,B-3,942.75,0.25,37,138.0
7259,G4,943.0,0.25,37,138.0
7260,D6,943.0,0.25,70,138.0
7261,D7,943.0,0.25,70,138.0
7262,F6,943.0,0.25,70,138.0
7263,G#6,943.0,0.25,70,138.0
7264,B-3,943.25,0.25,38,138.0
7265,D3,943.5,0.25,45,138.0
7266,E-6,943.5,0.25,73,138.0
7267,F6,943.5,0.25,73,138.0
7268,E-7,943.5,0.25,73,138.0
7269,G#6,943.5,0.25,73,138.0
7270,B-3,943.75,0.25,37,138.0
7271,F4,944.0,0.25,37,138.0
7272,G#6,944.0,0.25,73,138.0
7273,F7,944.0,0.25,73,138.0
7274,F6,944.0,0.25,73,138.0
7275,B-3,944.25,0.25,37,138.0
7276,B-2,944.5,0.25,46,138.0
7277,D7,944.5,0.25,61,138.0
7278,G6,944.5,0.25,61,138.0
7279,F6,944.5,0.25,61,138.0
7280,D6,944.5,0.25,61,138.0
7281,B-3,944.75,0.25,39,138.0
7282,D4,945.0,0.25,40,138.0
7283,E-6,945.0,0.25,53,138.0
7284,E-7,945.0,0.25,53,138.0
7285,G6,945.0,0.25,53,138.0
7286,B-3,945.25,0.25,40,138.0
7287,E-3,945.5,0.25,48,138.0
7288,D6,945.5,0.25,47,138.0
7289,D7,945.5,0.25,47,138.0
7290,G6,945.5,0.25,47,138.0
7291,F6,945.5,0.25,47,138.0
7292,B-3,945.75,0.25,42,138.0
7293,G4,946.0,0.25,42,138.0
7294,E-7,946.0,0.25,53,138.0
7295,E-6,946.0,0.25,53,138.0
7296,G6,946.0,0.25,53,138.0
7297,B-3,946.25,0.25,42,138.0
7298,G3,946.5,0.25,51,138.0
7299,G6,946.5,0.25,48,138.0
7300,C6,946.5,0.25,48,138.0
7301,C7,946.5,0.25,48,138.0
7302,B-3,946.75,0.25,43,138.0
7303,B-4,947.0,0.25,43,138.0
7304,C6,947.0,0.25,53,138.0
7305,B-6,947.0,0.25,53,138.0
7306,G6,947.0,0.25,53,138.0
7307,B-3,947.25,0.25,43,138.0
7308,F3,947.5,0.25,50,138.0
7309,E6,947.5,0.25,48,138.0
7310,C6,947.5,0.25,48,138.0
7311,B-6,947.5,0.25,48,138.0
7312,B-3,947.75,0.25,44,138.0
7313,A3,948.0,0.25,48,138.0
7314,E-6,948.0,0.25,53,138.0
7315,C6,948.0,0.25,53,138.0
7316,A6,948.0,0.25,53,138.0
7317,B-3,948.25,0.25,51,138.0
7318,F3,948.5,0.25,54,138.0
7319,C6,948.5,0.25,48,138.0
7320,C7,948.5,0.25,48,138.0
7321,E-6,948.5,0.25,48,138.0
7322,D3,948.75,0.25,55,138.0
7323,C3,949.0,0.25,55,138.0
7324,D6,949.0,0.25,58,138.0
7325,B-5,949.0,0.25,58,138.0
7326,B-6,949.0,0.25,58,138.0
7327,B-2,949.25,0.25,54,138.0
7328,F2,949.5,0.25,54,138.0
7329,F5,949.5,0.25,53,138.0
7330,D6,949.5,0.25,53,138.0
7331,F6,949.5,0.25,53,138.0
7332,G2,949.75,0.25,49,138.0
7333,A2,950.0,0.25,49,138.0
7334,F6,950.0,0.25,61,138.0
7335,A5,950.0,0.25,61,138.0
7336,A6,950.0,0.25,61,138.0
7337,E-6,950.0,0.25,61,138.0
7338,B-2,950.25,0.25,49,138.0
7339,C3,950.5,0.25,54,138.0
7340,C7,950.5,0.25,58,138.0
7341,F6,950.5,0.25,58,138.0
7342,E-6,950.5,0.25,58,138.0
7343,C6,950.5,0.25,58,138.0
7344,D3,950.75,0.25,50,138.0
7345,E-3,951.0,0.25,59,138.0
7346,D6,951.0,0.25,67,138.0
7347,B-6,951.0,0.25,67,138.0
7348,B-5,951.0,0.25,67,138.0
7349,F3,951.25,0.25,66,138.0
7350,B-1,951.5,0.25,66,138.0
7351,F6,951.5,0.25,62,138.0
7352,D6,951.5,0.25,62,138.0
7353,F5,951.5,0.25,62,138.0
7354,B-2,951.75,0.25,56,138.0
7355,B-1,952.0,0.25,66,138.0
7356,A5,952.0,0.25,72,138.0
7357,E-6,952.0,0.25,72,138.0
7358,F6,952.0,0.25,72,138.0
7359,A6,952.0,0.25,72,138.0
7360,B-2,952.25,0.25,56,138.0
7361,B-1,952.5,0.25,66,138.0
7362,E-6,952.5,0.25,67,138.0
7363,F6,952.5,0.25,67,138.0
7364,C7,952.5,0.25,67,138.0
7365,C6,952.5,0.25,67,138.0
7366,B-2,952.75,0.25,57,138.0
7367,B-5,953.0,0.25,77,138.0
7368,B-1,953.0,0.25,66,138.0
7369,B-6,953.25,0.25,70,138.0
7370,B-2,953.25,0.25,57,138.0
7371,F5,953.5,0.25,79,138.0
7372,B-1,953.5,0.25,66,138.0
7373,F6,953.75,0.25,73,138.0
7374,B-2,953.75,0.25,57,138.0
7375,A5,954.0,0.25,82,138.0
7376,B-1,954.0,0.25,66,138.0
7377,A6,954.25,0.25,76,138.0
7378,B-2,954.25,0.25,58,138.0
7379,C6,954.5,0.25,85,138.0
7380,B-1,954.5,0.25,66,138.0
7381,C7,954.75,0.25,79,138.0
7382,B-2,954.75,0.25,59,138.0
7383,B-5,955.0,0.25,88,138.0
7384,B1,955.0,0.25,45,138.0
7385,B-6,955.25,0.25,82,138.0
7386,B2,955.25,0.25,34,138.0
7387,F5,955.5,0.25,91,138.0
7388,C2,955.5,0.25,43,138.0
7389,F6,955.75,0.25,81,138.0
7390,C3,955.75,0.25,33,138.0
7391,A4,956.0,0.25,89,138.0
7392,B1,956.0,0.25,43,138.0
7393,A5,956.25,0.25,81,138.0
7394,B2,956.25,0.25,33,138.0
7395,C5,956.5,0.25,90,138.0
7396,C2,956.5,0.25,43,138.0
7397,C6,956.75,0.25,80,138.0
7398,C3,956.75,0.25,34,138.0
7399,B-4,957.0,0.25,88,138.0
7400,E-2,957.0,0.25,43,138.0
7401,B-5,957.25,0.25,82,138.0
7402,E-3,957.25,0.25,35,138.0
7403,F4,957.5,0.25,91,138.0
7404,E2,957.5,0.25,43,138.0
7405,F5,957.75,0.25,81,138.0
7406,E3,957.75,0.25,33,138.0
7407,B4,958.0,0.25,89,138.0
7408,G2,958.0,0.25,43,138.0
7409,B5,958.25,0.25,81,138.0
7410,G3,958.25,0.25,33,138.0
7411,D5,958.5,0.25,90,138.0
7412,F2,958.5,0.25,43,138.0
7413,D6,958.75,0.25,80,138.0
7414,F3,958.75,0.25,34,138.0
7415,C5,959.0,0.25,88,138.0
7416,F2,959.0,0.25,43,138.0
7417,C6,959.25,0.25,82,138.0
7418,F3,959.25,0.25,35,138.0
7419,G4,959.5,0.25,91,138.0
7420,F2,959.5,0.25,47,138.0
7421,G5,959.75,0.25,81,138.0
7422,F3,959.75,0.25,36,138.0
7423,B4,960.0,0.25,89,138.0
7424,B-2,960.0,0.25,48,138.0
7425,B5,960.25,0.25,81,138.0
7426,B-3,960.25,0.25,37,138.0
7427,D5,960.5,0.25,90,138.0
7428,F2,960.5,0.25,50,138.0
7429,D6,960.75,0.25,80,138.0
7430,F3,960.75,123/500,40,138.0
7431,C5,961.0,0.25,88,138.0
7432,F3,961.0,0.25,53,138.0
7433,C6,961.25,0.25,82,138.0
7434,F4,961.25,0.25,44,138.0
7435,G4,961.5,0.25,91,138.0
7436,F2,961.5,0.25,54,138.0
7437,G5,961.75,0.25,81,138.0
7438,F3,961.75,0.25,42,138.0
7439,C5,962.0,0.25,89,138.0
7440,B-2,962.0,0.25,57,138.0
7441,C6,962.25,0.25,81,138.0
7442,B-3,962.25,0.25,44,138.0
7443,E-5,962.5,0.25,90,138.0
7444,F2,962.5,0.25,58,138.0
7445,E-6,962.75,0.25,80,138.0
7446,F3,962.75,123/500,47,138.0
7447,D5,963.0,0.25,88,138.0
7448,F3,963.0,0.25,61,138.0
7449,D6,963.25,0.25,82,138.0
7450,F4,963.25,0.25,51,138.0
7451,A4,963.5,0.25,91,138.0
7452,B-2,963.5,0.25,59,138.0
7453,A5,963.75,0.25,80,138.0
7454,B-3,963.75,0.25,50,138.0
7455,C#5,964.0,0.25,88,138.0
7456,F2,964.0,0.25,61,138.0
7457,C#6,964.25,0.25,80,138.0
7458,F3,964.25,0.25,51,138.0
7459,E5,964.5,0.25,88,138.0
7460,A2,964.5,0.25,64,138.0
7461,E6,964.75,0.25,78,138.0
7462,A3,964.75,0.25,55,138.0
7463,D5,965.0,0.25,86,138.0
7464,C3,965.0,0.25,67,138.0
7465,D6,965.25,0.25,79,138.0
7466,C4,965.25,0.25,58,138.0
7467,A4,965.5,0.25,88,138.0
7468,B-2,965.5,0.25,68,138.0
7469,A5,965.75,0.25,78,138.0
7470,B-3,965.75,0.25,63,138.0
7471,D5,966.0,0.25,85,138.0
7472,F2,966.0,0.25,71,138.0
7473,D6,966.25,0.25,77,138.0
7474,F3,966.25,0.25,63,138.0
7475,F5,966.5,0.25,85,138.0
7476,A1,966.5,0.25,71,138.0
7477,F6,966.75,0.25,76,138.0
7478,A2,966.75,0.25,60,138.0
7479,E-5,967.0,0.25,83,138.0
7480,C2,967.0,0.25,71,138.0
7481,E-6,967.25,0.25,77,138.0
7482,C3,967.25,0.25,63,138.0
7483,B-4,967.5,0.25,85,138.0
7484,B-1,967.5,0.25,68,138.0
7485,B-5,967.75,0.25,76,138.0
7486,B-2,967.75,0.25,63,138.0
7487,D5,968.0,0.25,82,138.0
7488,F1,968.0,0.25,71,138.0
7489,D6,968.25,0.25,75,138.0
7490,F2,968.25,0.25,63,138.0
7491,F5,968.5,0.25,83,138.0
7492,B1,968.5,0.25,71,138.0
7493,F6,968.75,0.25,73,138.0
7494,B2,968.75,0.25,60,138.0
7495,E-5,969.0,0.25,80,138.0
7496,D2,969.0,0.25,71,138.0
7497,E-6,969.25,0.25,75,138.0
7498,D3,969.25,0.25,63,138.0
7499,B-4,969.5,0.25,82,138.0
7500,C2,969.5,0.25,68,138.0
7501,B-5,969.75,0.25,73,138.0
7502,C3,969.75,0.25,63,138.0
7503,E-5,970.0,0.25,80,138.0
7504,G1,970.0,0.25,71,138.0
7505,E-6,970.25,0.25,72,138.0
7506,G2,970.25,0.25,63,138.0
7507,F#5,970.5,0.25,81,138.0
7508,B1,970.5,0.25,71,138.0
7509,F#6,970.75,0.25,71,138.0
7510,B2,970.75,0.25,60,138.0
7511,F5,971.0,0.25,78,138.0
7512,D2,971.0,0.25,71,138.0
7513,F6,971.25,0.25,72,138.0
7514,D3,971.25,0.25,63,138.0
7515,C5,971.5,0.25,80,138.0
7516,C2,971.5,0.25,68,138.0
7517,C6,971.75,0.25,71,138.0
7518,C3,971.75,0.25,63,138.0
7519,E-5,972.0,0.25,78,138.0
7520,G1,972.0,0.25,71,138.0
7521,E-6,972.25,0.25,70,138.0
7522,G2,972.25,0.25,63,138.0
7523,F#5,972.5,0.25,78,138.0
7524,C2,972.5,0.25,71,138.0
7525,F#6,972.75,0.25,69,138.0
7526,C3,972.75,0.25,60,138.0
7527,C#5,973.0,0.25,75,138.0
7528,E-2,973.0,0.25,71,138.0
7529,C#6,973.25,0.25,70,138.0
7530,E-3,973.25,0.25,63,138.0
7531,A4,973.5,0.25,77,138.0
7532,D2,973.5,0.25,68,138.0
7533,A5,973.75,0.25,68,138.0
7534,D3,973.75,0.25,63,138.0
7535,C5,974.0,0.25,75,138.0
7536,A1,974.0,0.25,71,138.0
7537,C6,974.25,0.25,68,138.0
7538,A2,974.25,0.25,62,138.0
7539,E-5,974.5,0.25,75,138.0
7540,C#2,974.5,0.25,70,138.0
7541,E-6,974.75,0.25,67,138.0
7542,C#3,974.75,0.25,59,138.0
7543,F#4,975.0,0.25,73,138.0
7544,E2,975.0,0.25,69,138.0
7545,F#5,975.25,0.25,68,138.0
7546,E3,975.25,0.25,61,138.0
7547,F4,975.5,0.25,75,138.0
7548,D2,975.5,0.25,66,138.0
7549,F5,975.75,0.25,66,138.0
7550,D3,975.75,0.25,61,138.0
7551,A4,976.0,0.25,72,138.0
7552,A1,976.0,0.25,68,138.0
7553,A5,976.25,0.25,66,138.0
7554,A2,976.25,0.25,61,138.0
7555,E-5,976.5,0.25,72,138.0
7556,D2,976.5,0.25,68,138.0
7557,E-6,976.75,0.25,64,138.0
7558,D3,976.75,0.25,57,138.0
7559,B4,977.0,0.25,40,138.0
7560,D5,977.0,2.0,58,138.0
7561,F2,977.0,0.25,67,138.0
7562,B-4,977.25,0.25,34,138.0
7563,F3,977.25,0.25,59,138.0
7564,B4,977.5,0.25,40,138.0
7565,E-2,977.5,0.25,64,138.0
7566,B-4,977.75,0.25,35,138.0
7567,E-3,977.75,0.25,59,138.0
7568,B4,978.0,0.25,40,138.0
7569,B-1,978.0,0.25,66,138.0
7570,B-4,978.25,0.25,35,138.0
7571,B-2,978.25,0.25,59,138.0
7572,B4,978.5,0.25,40,138.0
7573,D2,978.5,0.25,66,138.0
7574,B-4,978.75,0.25,36,138.0
7575,D3,978.75,0.25,55,138.0
7576,B4,979.0,0.25,40,138.0
7577,E-5,979.0,1.0,48,138.0
7578,F2,979.0,0.25,66,138.0
7579,B-4,979.25,0.25,34,138.0
7580,F3,979.25,0.25,57,138.0
7581,B4,979.5,0.25,40,138.0
7582,E-2,979.5,0.25,62,138.0
7583,B-4,979.75,0.25,35,138.0
7584,E-3,979.75,0.25,57,138.0
7585,F#5,980.0,1.0,51,138.0
7586,B4,980.0,0.25,40,138.0
7587,B-1,980.0,0.25,64,138.0
7588,B-4,980.25,0.25,35,138.0
7589,B-2,980.25,0.25,57,138.0
7590,B4,980.5,0.25,40,138.0
7591,E-2,980.5,0.25,63,138.0
7592,B-4,980.75,0.25,36,138.0
7593,E-3,980.75,0.25,54,138.0
7594,B-5,981.0,2.0,60,138.0
7595,B4,981.0,0.25,40,138.0
7596,F#2,981.0,0.25,63,138.0
7597,B-4,981.25,0.25,34,138.0
7598,F#3,981.25,0.25,56,138.0
7599,B4,981.5,0.25,40,138.0
7600,F2,981.5,0.25,60,138.0
7601,B-4,981.75,0.25,35,138.0
7602,F3,981.75,0.25,56,138.0
7603,B4,982.0,0.25,40,138.0
7604,C2,982.0,0.25,62,138.0
7605,B-4,982.25,0.25,35,138.0
7606,C3,982.25,0.25,55,138.0
7607,B4,982.5,0.25,40,138.0
7608,E-2,982.5,0.25,62,138.0
7609,B-4,982.75,0.25,36,138.0
7610,E-3,982.75,0.25,52,138.0
7611,B4,983.0,0.25,40,138.0
7612,F#5,983.0,1.0,62,138.0
7613,F#2,983.0,0.25,61,138.0
7614,B-4,983.25,0.25,34,138.0
7615,F#3,983.25,0.25,54,138.0
7616,B4,983.5,0.25,40,138.0
7617,C#2,983.5,0.25,58,138.0
7618,B-4,983.75,0.25,35,138.0
7619,C#3,983.75,0.25,54,138.0
7620,B4,984.0,0.25,40,138.0
7621,E-5,984.0,1.0,51,138.0
7622,A1,984.0,0.25,60,138.0
7623,B-4,984.25,0.25,35,138.0
7624,A2,984.25,0.25,53,138.0
7625,B-4,984.5,0.25,40,138.0
7626,C2,984.5,0.25,60,138.0
7627,C5,984.75,0.25,36,138.0
7628,C3,984.75,0.25,50,138.0
7629,D5,985.0,2.0,52,138.0
7630,B-4,985.0,169/1000,39,138.0
7631,E-2,985.0,0.25,59,138.0
7632,C5,985.169,167/1000,33,138.0
7633,E-3,985.25,0.25,52,138.0
7634,B-4,985.335,169/1000,39,138.0
7635,F#1,985.5,0.25,56,138.0
7636,C5,985.502,169/1000,35,138.0
7637,B-4,985.671,167/1000,39,138.0
7638,F#2,985.75,0.25,52,138.0
7639,C5,985.837,169/1000,35,138.0
7640,B-4,986.0,169/1000,40,138.0
7641,F1,986.0,0.25,58,138.0
7642,C5,986.169,167/1000,35,138.0
7643,F2,986.25,0.25,51,138.0
7644,B-4,986.335,169/1000,40,138.0
7645,A1,986.5,0.25,58,138.0
7646,C5,986.502,169/1000,36,138.0
7647,B-4,986.671,167/1000,40,138.0
7648,A2,986.75,0.25,49,138.0
7649,C5,986.837,81/500,36,138.0
7650,E-5,987.0,1.5,60,138.0
7651,B-4,987.0,169/1000,40,138.0
7652,C5,987.0,3/500,36,138.0
7653,E-2,987.0,0.25,57,138.0
7654,C5,987.169,167/1000,35,138.0
7655,E-3,987.25,0.25,51,138.0
7656,B-4,987.335,169/1000,41,138.0
7657,B-1,987.5,1.0,40,138.0
7658,B-2,987.5,1.0,40,138.0
7659,C5,987.502,169/1000,37,138.0
7660,B-4,987.671,167/1000,41,138.0
7661,C5,987.837,169/1000,37,138.0
7662,B-4,988.0,169/1000,42,138.0
7663,C5,988.169,167/1000,37,138.0
7664,B-4,988.335,169/1000,43,138.0
7665,G5,988.5,0.5,65,138.0
7666,G#2,988.5,1.0,35,138.0
7667,G#3,988.5,1.0,35,138.0
7668,C5,988.502,169/1000,38,138.0
7669,B-4,988.671,167/1000,43,138.0
7670,C5,988.837,81/500,38,138.0
7671,B-5,989.0,1.5,74,138.0
7672,B-4,989.0,169/1000,44,138.0
7673,C5,989.0,3/500,38,138.0
7674,C5,989.169,167/1000,37,138.0
7675,B-4,989.335,169/1000,44,138.0
7676,F#2,989.5,1.0,36,138.0
7677,F#3,989.5,1.0,36,138.0
7678,C5,989.502,169/1000,40,138.0
7679,B-4,989.671,167/1000,45,138.0
7680,C5,989.837,169/1000,40,138.0
7681,B-4,990.0,169/1000,45,138.0
7682,C5,990.169,167/1000,40,138.0
7683,B-4,990.335,169/1000,45,138.0
7684,G#5,990.5,0.5,65,138.0
7685,E-2,990.5,1.0,26,138.0
7686,E-3,990.5,1.0,26,138.0
7687,C5,990.502,169/1000,40,138.0
7688,B-4,990.671,167/1000,45,138.0
7689,C5,990.837,81/500,40,138.0
7690,B-4,991.0,169/1000,46,138.0
7691,G5,991.0,0.5,64,138.0
7692,C5,991.0,3/500,40,138.0
7693,C5,991.169,167/1000,40,138.0
7694,B-4,991.335,169/1000,47,138.0
7695,F5,991.5,0.5,64,138.0
7696,D2,991.5,1.0,37,138.0
7697,D3,991.5,1.0,37,138.0
7698,C5,991.502,169/1000,42,138.0
7699,B-4,991.671,167/1000,47,138.0
7700,C5,991.837,169/1000,42,138.0
7701,B-4,992.0,169/1000,48,138.0
7702,E-5,992.0,0.5,69,138.0
7703,C5,992.169,167/1000,41,138.0
7704,B-4,992.335,169/1000,48,138.0
7705,D5,992.5,0.5,69,138.0
7706,B-1,992.5,1.0,28,138.0
7707,B-2,992.5,1.0,28,138.0
7708,C5,992.502,169/1000,44,138.0
7709,B-4,992.671,167/1000,48,138.0
7710,C5,992.837,81/500,43,138.0
7711,E-5,993.0,1.5,66,138.0
7712,B-4,993.0,169/1000,43,138.0
7713,C5,993.0,3/500,43,138.0
7714,C5,993.169,167/1000,37,138.0
7715,B-4,993.335,169/1000,44,138.0
7716,E-2,993.5,1.0,37,138.0
7717,E-3,993.5,1.0,37,138.0
7718,C5,993.502,169/1000,39,138.0
7719,B-4,993.671,167/1000,42,138.0
7720,C5,993.837,169/1000,38,138.0
7721,B-4,994.0,169/1000,43,138.0
7722,C5,994.169,167/1000,36,138.0
7723,B-4,994.335,169/1000,42,138.0
7724,D5,994.5,0.5,63,138.0
7725,F#3,994.5,0.5,34,138.0
7726,B-3,994.5,0.5,34,138.0
7727,C5,994.502,169/1000,37,138.0
7728,B-4,994.671,167/1000,41,138.0
7729,C5,994.837,81/500,36,138.0
7730,F5,995.0,0.5,60,138.0
7731,B-4,995.0,169/1000,39,138.0
7732,C5,995.0,3/500,36,138.0
7733,G3,995.0,0.5,30,138.0
7734,B-3,995.0,0.25,39,138.0
7735,C5,995.169,167/1000,33,138.0
7736,C4,995.25,0.25,39,138.0
7737,B-4,995.335,169/1000,38,138.0
7738,E-5,995.5,1.0,57,138.0
7739,F3,995.5,0.5,46,138.0
7740,B-3,995.5,169/1000,31,138.0
7741,C5,995.502,169/1000,34,138.0
7742,C4,995.669,167/1000,26,138.0
7743,B-4,995.671,167/1000,37,138.0
7744,B-3,995.835,169/1000,31,138.0
7745,C5,995.837,169/1000,33,138.0
7746,B-4,996.0,169/1000,37,138.0
7747,G3,996.0,0.5,40,138.0
7748,C4,996.002,169/1000,27,138.0
7749,C5,996.169,167/1000,32,138.0
7750,B-3,996.171,167/1000,31,138.0
7751,B-4,996.335,169/1000,37,138.0
7752,C4,996.337,169/1000,27,138.0
7753,D5,996.5,0.5,55,138.0
7754,G#3,996.5,0.5,46,138.0
7755,B-3,996.5,169/1000,32,138.0
7756,C5,996.502,169/1000,32,138.0
7757,C4,996.669,167/1000,27,138.0
7758,B-4,996.671,167/1000,36,138.0
7759,B-3,996.835,169/1000,32,138.0
7760,C5,996.837,81/500,31,138.0
7761,B-4,997.0,2.0,50,138.0
7762,D5,997.0,127/1000,39,138.0
7763,C5,997.0,3/500,31,138.0
7764,F3,997.0,0.5,40,138.0
7765,C4,997.002,169/1000,28,138.0
7766,E-5,997.127,0.125,33,138.0
7767,B-3,997.171,167/1000,32,138.0
7768,D5,997.252,0.125,38,138.0
7769,C4,997.337,81/500,28,138.0
7770,E-5,997.377,127/1000,34,138.0
7771,B-3,997.5,169/1000,32,138.0
7772,G3,997.5,0.5,46,138.0
7773,C4,997.5,3/500,28,138.0
7774,D5,997.502,127/1000,37,138.0
7775,E-5,997.629,0.125,33,138.0
7776,C4,997.669,167/1000,27,138.0
7777,D5,997.75,127/1000,37,138.0
7778,B-3,997.835,169/1000,32,138.0
7779,E-5,997.877,0.125,32,138.0
7780,G#3,998.0,0.5,40,138.0
7781,D5,998.002,0.125,37,138.0
7782,C4,998.002,169/1000,29,138.0
7783,E-5,998.127,127/1000,32,138.0
7784,B-3,998.171,167/1000,32,138.0
7785,D5,998.252,127/1000,36,138.0
7786,C4,998.337,169/1000,29,138.0
7787,E-5,998.379,0.125,31,138.0
7788,D5,998.5,0.125,37,138.0
7789,G3,998.5,0.5,46,138.0
7790,B-3,998.5,169/1000,33,138.0
7791,E-5,998.64,0.125,32,138.0
7792,C4,998.669,167/1000,29,138.0
7793,D5,998.75,0.125,36,138.0
7794,B-3,998.835,169/1000,34,138.0
7795,C5,998.854,0.125,32,138.0
7796,D5,999.0,11/40,41,138.0
7797,E-3,999.0,0.5,40,138.0
7798,C4,999.002,169/1000,30,138.0
7799,B-3,999.171,167/1000,34,138.0
7800,E-5,999.25,11/40,37,138.0
7801,C4,999.337,81/500,30,138.0
7802,D5,999.5,11/40,41,138.0
7803,B-3,999.5,169/1000,35,138.0
7804,D3,999.5,0.5,46,138.0
7805,C4,999.5,3/500,30,138.0
7806,C4,999.669,167/1000,29,138.0
7807,C5,999.75,11/40,37,138.0
7808,B-3,999.835,169/1000,35,138.0
7809,B-4,1000.0,11/40,42,138.0
7810,E-3,1000.0,0.5,40,138.0
7811,C4,1000.002,169/1000,32,138.0
7812,B-3,1000.171,167/1000,35,138.0
7813,A4,1000.25,11/40,37,138.0
7814,C4,1000.337,169/1000,32,138.0
7815,B-4,1000.5,11/40,40,138.0
7816,F3,1000.5,0.5,46,138.0
7817,B-3,1000.5,169/1000,35,138.0
7818,C4,1000.669,167/1000,32,138.0
7819,C5,1000.75,0.25,37,138.0
7820,B-3,1000.835,169/1000,36,138.0
7821,D5,1001.0,11/40,41,138.0
7822,C5,1001.0,1/40,37,138.0
7823,D3,1001.0,0.5,40,138.0
7824,C4,1001.002,169/1000,32,138.0
7825,B-3,1001.171,167/1000,36,138.0
7826,E-5,1001.25,11/40,42,138.0
7827,C4,1001.337,81/500,32,138.0
7828,F5,1001.5,11/40,43,138.0
7829,E-3,1001.5,0.5,46,138.0
7830,B-3,1001.5,169/1000,36,138.0
7831,C4,1001.5,3/500,32,138.0
7832,C4,1001.669,167/1000,32,138.0
7833,G5,1001.75,11/40,44,138.0
7834,B-3,1001.835,169/1000,37,138.0
7835,A5,1002.0,11/40,45,138.0
7836,F3,1002.0,0.5,40,138.0
7837,C4,1002.002,169/1000,33,138.0
7838,B-3,1002.171,167/1000,37,138.0
7839,B-5,1002.25,11/40,46,138.0
7840,C4,1002.337,169/1000,33,138.0
7841,C6,1002.5,11/40,47,138.0
7842,G3,1002.5,0.5,46,138.0
7843,B-3,1002.5,169/1000,38,138.0
7844,C4,1002.669,167/1000,32,138.0
7845,D6,1002.75,0.25,48,138.0
7846,B-3,1002.835,169/1000,38,138.0
7847,E-6,1003.0,11/40,49,138.0
7848,D6,1003.0,1/40,48,138.0
7849,G#3,1003.0,0.5,40,138.0
7850,C4,1003.002,169/1000,35,138.0
7851,B-3,1003.171,167/1000,38,138.0
7852,F6,1003.25,11/40,46,138.0
7853,C4,1003.337,81/500,34,138.0
7854,E-6,1003.5,11/40,48,138.0
7855,G3,1003.5,1.5,40,138.0
7856,B-3,1003.5,169/1000,34,138.0
7857,C4,1003.5,3/500,34,138.0
7858,C4,1003.669,167/1000,29,138.0
7859,D6,1003.75,11/40,47,138.0
7860,B-3,1003.835,169/1000,34,138.0
7861,C6,1004.0,11/40,46,138.0
7862,C4,1004.002,169/1000,30,138.0
7863,B-3,1004.171,167/1000,33,138.0
7864,B-5,1004.25,11/40,45,138.0
7865,C4,1004.337,169/1000,29,138.0
7866,A5,1004.5,11/40,44,138.0
7867,B-3,1004.5,169/1000,34,138.0
7868,C4,1004.669,167/1000,29,138.0
7869,G5,1004.75,0.25,43,138.0
7870,B-3,1004.835,169/1000,33,138.0
7871,F5,1005.0,11/40,42,138.0
7872,G5,1005.0,1/40,43,138.0
7873,G#3,1005.0,0.5,31,138.0
7874,C4,1005.002,169/1000,29,138.0
7875,B-3,1005.171,167/1000,32,138.0
7876,E-5,1005.25,11/40,41,138.0
7877,C4,1005.337,81/500,27,138.0
7878,D5,1005.5,11/40,40,138.0
7879,G3,1005.5,1.5,37,138.0
7880,B-3,1005.5,169/1000,30,138.0
7881,C4,1005.5,3/500,27,138.0
7882,C4,1005.669,167/1000,26,138.0
7883,C5,1005.75,11/40,39,138.0
7884,B-3,1005.835,169/1000,30,138.0
7885,B-4,1006.0,11/40,38,138.0
7886,C4,1006.002,169/1000,27,138.0
7887,B-3,1006.171,167/1000,29,138.0
7888,A4,1006.25,11/40,37,138.0
7889,C4,1006.337,169/1000,26,138.0
7890,G4,1006.5,11/40,35,138.0
7891,B-3,1006.5,169/1000,30,138.0
7892,C4,1006.669,167/1000,26,138.0
7893,F4,1006.75,0.25,34,138.0
7894,B-3,1006.835,169/1000,29,138.0
7895,F3,1007.0,0.5,27,138.0
7896,D5,1007.0,93/125,34,138.0
7897,F4,1007.0,93/125,34,138.0
7898,C4,1007.002,169/1000,25,138.0
7899,B-3,1007.171,167/1000,28,138.0
7900,C4,1007.337,81/500,24,138.0
7901,C4,1007.5,3/500,24,138.0
7902,F3,1007.5,2.0,32,138.0
7903,D4,1007.5,2.0,32,138.0
7904,B-3,1007.5,2.0,32,138.0
7905,F4,1007.75,31/125,28,138.0
7906,D5,1007.75,31/125,28,138.0
7907,D5,1008.0,0.5,36,138.0
7908,F4,1008.0,0.5,36,138.0
7909,D4,1008.75,0.25,76,138.0
7910,F4,1008.75,0.25,76,138.0
7911,G4,1008.75,0.25,76,138.0
7912,E-4,1009.0,93/125,94,138.0
7913,E-5,1009.0,93/125,94,138.0
7914,G4,1009.0,93/125,94,138.0
7915,E-4,1009.75,31/125,63,138.0
7916,G4,1009.75,31/125,63,138.0
7917,E-5,1009.75,31/125,63,138.0
7918,B-4,1010.0,11/40,36,138.0
7919,E-5,1010.0,0.5,84,138.0
7920,G4,1010.0,0.5,84,138.0
7921,E-4,1010.0,0.5,84,138.0
7922,A4,1010.25,11/40,33,138.0
7923,G4,1010.5,11/40,37,138.0
7924,F4,1010.75,11/40,33,138.0
7925,G4,1010.75,0.25,28,138.0
7926,F4,1010.75,0.25,28,138.0
7927,G4,1011.0,11/40,36,138.0
7928,G4,1011.0,93/125,34,138.0
7929,E-5,1011.0,93/125,34,138.0
7930,A4,1011.25,0.25,33,138.0
7931,B-4,1011.5,11/40,36,138.0
7932,A4,1011.5,1/40,33,138.0
7933,C5,1011.75,11/40,37,138.0
7934,E-5,1011.75,31/125,28,138.0
7935,G4,1011.75,31/125,28,138.0
7936,D5,1012.0,11/40,38,138.0
7937,E-5,1012.0,0.5,36,138.0
7938,G4,1012.0,0.5,36,138.0
7939,E-5,1012.25,11/40,39,138.0
7940,F5,1012.5,11/40,40,138.0
7941,G5,1012.75,11/40,41,138.0
7942,E4,1012.75,0.25,76,138.0
7943,G4,1012.75,0.25,76,138.0
7944,A4,1012.75,0.25,76,138.0
7945,A5,1013.0,11/40,42,138.0
7946,F4,1013.0,93/125,94,138.0
7947,F5,1013.0,93/125,94,138.0
7948,A4,1013.0,93/125,94,138.0
7949,B-5,1013.25,0.25,43,138.0
7950,B-5,1013.5,1/40,43,138.0
7951,F2,1013.75,11/40,33,138.0
7952,F5,1013.75,31/125,63,138.0
7953,A4,1013.75,31/125,63,138.0
7954,F4,1013.75,31/125,63,138.0
7955,G2,1014.0,11/40,33,138.0
7956,A4,1014.0,0.5,84,138.0
7957,F5,1014.0,0.5,84,138.0
7958,F4,1014.0,0.5,84,138.0
7959,A2,1014.25,11/40,32,138.0
7960,B-2,1014.5,11/40,32,138.0
7961,C3,1014.75,11/40,31,138.0
7962,G4,1014.75,0.25,28,138.0
7963,A4,1014.75,0.25,28,138.0
7964,D3,1015.0,11/40,31,138.0
7965,F5,1015.0,93/125,34,138.0
7966,A4,1015.0,93/125,34,138.0
7967,E-3,1015.25,0.25,30,138.0
7968,F3,1015.5,11/40,30,138.0
7969,E-3,1015.5,1/40,30,138.0
7970,G3,1015.75,11/40,30,138.0
7971,A4,1015.75,31/125,28,138.0
7972,F5,1015.75,31/125,28,138.0
7973,A3,1016.0,11/40,29,138.0
7974,F5,1016.0,0.5,36,138.0
7975,A4,1016.0,0.5,36,138.0
7976,B-3,1016.25,11/40,29,138.0
7977,C4,1016.5,11/40,28,138.0
7978,D4,1016.75,11/40,28,138.0
7979,F4,1016.75,0.25,69,138.0
7980,G#4,1016.75,0.25,69,138.0
7981,B-4,1016.75,0.25,69,138.0
7982,E-4,1017.0,11/40,27,138.0
7983,G4,1017.0,93/125,85,138.0
7984,B-4,1017.0,93/125,85,138.0
7985,G5,1017.0,93/125,85,138.0
7986,D4,1017.25,0.25,27,138.0
7987,D4,1017.5,93/125,30,138.0
7988,B-3,1017.5,93/125,30,138.0
7989,G4,1017.75,31/125,58,138.0
7990,G5,1017.75,31/125,58,138.0
7991,B-4,1017.75,31/125,58,138.0
7992,G5,1018.0,0.5,77,138.0
7993,B-4,1018.0,0.5,77,138.0
7994,G4,1018.0,0.5,77,138.0
7995,D4,1018.25,31/125,24,138.0
7996,B-3,1018.25,31/125,24,138.0
7997,D4,1018.5,0.5,30,138.0
7998,B-3,1018.5,0.5,30,138.0
7999,B1,1019.25,0.25,68,138.0
8000,B2,1019.25,0.25,68,138.0
8001,C3,1019.5,93/125,84,138.0
8002,C2,1019.5,93/125,84,138.0
8003,C3,1020.25,31/125,57,138.0
8004,C2,1020.25,31/125,57,138.0
8005,C3,1020.5,0.5,70,138.0
8006,C2,1020.5,0.5,70,138.0
8007,G4,1020.75,0.25,82,138.0
8008,E-5,1020.75,0.25,82,138.0
8009,A4,1021.0,93/125,96,138.0
8010,C5,1021.0,93/125,96,138.0
8011,A5,1021.0,93/125,96,138.0
8012,E-5,1021.0,93/125,96,138.0
8013,B3,1021.25,0.25,24,138.0
8014,D4,1021.25,0.25,24,138.0
8015,E-4,1021.5,93/125,30,138.0
8016,C4,1021.5,93/125,30,138.0
8017,A4,1021.75,31/125,71,138.0
8018,C5,1021.75,31/125,71,138.0
8019,E-5,1021.75,31/125,71,138.0
8020,A5,1021.75,31/125,71,138.0
8021,A5,1022.0,0.5,94,138.0
8022,C5,1022.0,0.5,94,138.0
8023,A4,1022.0,0.5,94,138.0
8024,E-5,1022.0,0.5,94,138.0
8025,E-4,1022.25,31/125,24,138.0
8026,C4,1022.25,31/125,24,138.0
8027,E-4,1022.5,0.5,30,138.0
8028,C4,1022.5,0.5,30,138.0
8029,C#2,1023.25,0.25,68,138.0
8030,C#3,1023.25,0.25,68,138.0
8031,D3,1023.5,93/125,84,138.0
8032,D2,1023.5,93/125,84,138.0
8033,D3,1024.25,31/125,57,138.0
8034,D2,1024.25,31/125,57,138.0
8035,D3,1024.5,0.5,70,138.0
8036,D2,1024.5,0.5,70,138.0
8037,C#4,1025.25,0.25,24,138.0
8038,E4,1025.25,0.25,24,138.0
8039,F4,1025.5,93/125,30,138.0
8040,D4,1025.5,93/125,30,138.0
8041,D6,1025.75,0.25,50,138.0
8042,B-5,1025.75,0.25,50,138.0
8043,F5,1025.75,0.25,50,138.0
8044,D5,1025.75,0.25,50,138.0
8045,B-5,1026.0,0.375,44,138.0
8046,D5,1026.0,0.375,44,138.0
8047,D6,1026.0,0.375,44,138.0
8048,F5,1026.0,0.375,44,138.0
8049,F4,1026.25,31/125,24,138.0
8050,D4,1026.25,31/125,24,138.0
8051,F5,1026.5,0.125,48,138.0
8052,B-5,1026.5,0.125,48,138.0
8053,D5,1026.5,0.125,48,138.0
8054,E-6,1026.5,0.125,48,138.0
8055,F4,1026.5,0.5,30,138.0
8056,D4,1026.5,0.5,30,138.0
8057,B-5,1026.75,0.125,49,138.0
8058,D6,1026.75,0.125,49,138.0
8059,F5,1026.75,0.125,49,138.0
8060,D5,1026.75,0.125,49,138.0
8061,D6,1027.0,0.125,54,138.0
8062,F5,1027.0,0.125,54,138.0
8063,D5,1027.0,0.125,54,138.0
8064,B-5,1027.0,0.125,54,138.0
8065,D2,1027.25,0.25,62,138.0
8066,D3,1027.25,0.25,62,138.0
8067,D5,1027.5,0.125,52,138.0
8068,B-4,1027.5,0.125,52,138.0
8069,F5,1027.5,0.125,52,138.0
8070,B-5,1027.5,0.125,52,138.0
8071,E-3,1027.5,93/125,77,138.0
8072,E-2,1027.5,93/125,77,138.0
8073,F4,1028.0,0.125,80,138.0
8074,B-4,1028.0,0.125,80,138.0
8075,D4,1028.0,0.125,80,138.0
8076,D5,1028.0,0.125,80,138.0
8077,E-3,1028.25,31/125,52,138.0
8078,E-2,1028.25,31/125,52,138.0
8079,D4,1028.5,0.125,74,138.0
8080,F4,1028.5,0.125,74,138.0
8081,B-3,1028.5,0.125,74,138.0
8082,B-4,1028.5,0.125,74,138.0
8083,E-3,1028.5,0.5,64,138.0
8084,E-2,1028.5,0.5,64,138.0
8085,F5,1029.0,93/125,44,138.0
8086,D6,1029.0,93/125,44,138.0
8087,B-5,1029.0,93/125,44,138.0
8088,F6,1029.0,93/125,44,138.0
8089,D6,1029.75,0.25,50,138.0
8090,F5,1029.75,0.25,50,138.0
8091,F6,1029.75,0.25,50,138.0
8092,B-5,1029.75,0.25,50,138.0
8093,B-5,1030.0,0.375,44,138.0
8094,F5,1030.0,0.375,44,138.0
8095,D6,1030.0,0.375,44,138.0
8096,F6,1030.0,0.375,44,138.0
8097,G6,1030.5,0.125,48,138.0
8098,D6,1030.5,0.125,48,138.0
8099,F5,1030.5,0.125,48,138.0
8100,B-5,1030.5,0.125,48,138.0
8101,F5,1030.75,0.125,49,138.0
8102,F6,1030.75,0.125,49,138.0
8103,B-5,1030.75,0.125,49,138.0
8104,D6,1030.75,0.125,49,138.0
8105,F6,1031.0,0.125,54,138.0
8106,B-5,1031.0,0.125,54,138.0
8107,F5,1031.0,0.125,54,138.0
8108,D6,1031.0,0.125,54,138.0
8109,E-2,1031.25,0.25,72,138.0
8110,E-3,1031.25,0.25,72,138.0
8111,F5,1031.5,0.125,52,138.0
8112,D5,1031.5,0.125,52,138.0
8113,B-5,1031.5,0.125,52,138.0
8114,D6,1031.5,0.125,52,138.0
8115,F2,1031.5,93/125,88,138.0
8116,F1,1031.5,93/125,88,138.0
8117,F5,1032.0,0.125,80,138.0
8118,B-4,1032.0,0.125,80,138.0
8119,F4,1032.0,0.125,80,138.0
8120,D5,1032.0,0.125,80,138.0
8121,F2,1032.25,31/125,66,138.0
8122,F1,1032.25,31/125,66,138.0
8123,D5,1032.5,0.125,74,138.0
8124,F4,1032.5,0.125,74,138.0
8125,D4,1032.5,0.125,74,138.0
8126,B-4,1032.5,0.125,74,138.0
8127,F2,1032.5,0.5,81,138.0
8128,F1,1032.5,0.5,81,138.0
8129,F6,1033.0,0.125,50,138.0
8130,D6,1033.0,0.125,50,138.0
8131,D6,1033.5,0.125,48,138.0
8132,B-5,1033.5,0.125,48,138.0
8133,F5,1034.0,0.125,82,138.0
8134,D5,1034.0,0.125,82,138.0
8135,D5,1034.5,0.125,69,138.0
8136,B-4,1034.5,0.125,69,138.0
8137,F#1,1035.0,11/40,33,138.0
8138,D6,1035.0,0.125,50,138.0
8139,B-5,1035.0,0.125,50,138.0
8140,F1,1035.25,0.25,29,138.0
8141,F#1,1035.5,11/40,33,138.0
8142,F1,1035.5,1/40,29,138.0
8143,B-5,1035.5,0.125,48,138.0
8144,F5,1035.5,0.125,48,138.0
8145,F1,1035.75,11/40,29,138.0
8146,F#1,1036.0,11/40,33,138.0
8147,D5,1036.0,0.125,82,138.0
8148,B-4,1036.0,0.125,82,138.0
8149,F1,1036.25,11/40,29,138.0
8150,A1,1036.5,11/40,33,138.0
8151,B-4,1036.5,0.125,69,138.0
8152,F4,1036.5,0.125,69,138.0
8153,B-1,1036.75,11/40,28,138.0
8154,A1,1037.0,11/40,35,138.0
8155,B-5,1037.0,0.125,50,138.0
8156,F5,1037.0,0.125,50,138.0
8157,B-1,1037.25,0.25,30,138.0
8158,F#1,1037.5,11/40,36,138.0
8159,B-1,1037.5,1/40,30,138.0
8160,F5,1037.5,0.125,48,138.0
8161,D5,1037.5,0.125,48,138.0
8162,F1,1037.75,11/40,32,138.0
8163,F#1,1038.0,11/40,38,138.0
8164,B-4,1038.0,0.125,82,138.0
8165,F4,1038.0,0.125,82,138.0
8166,F1,1038.25,11/40,43,138.0
8167,B-1,1038.5,1.0,63,138.0
8168,F#2,1038.5,0.25,63,138.0
8169,D4,1038.5,0.125,69,138.0
8170,F4,1038.5,0.125,69,138.0
8171,F2,1038.75,0.25,53,138.0
8172,F#2,1039.0,0.25,61,138.0
8173,A4,1039.0,2.0,47,138.0
8174,E-5,1039.0,2.0,47,138.0
8175,F2,1039.25,0.25,55,138.0
8176,F#1,1039.5,11/40,42,138.0
8177,F1,1039.75,11/40,29,138.0
8178,F#1,1040.0,11/40,33,138.0
8179,F1,1040.25,11/40,29,138.0
8180,A1,1040.5,11/40,33,138.0
8181,B-1,1040.75,11/40,28,138.0
8182,A1,1041.0,11/40,35,138.0
8183,D5,1041.0,0.125,50,138.0
8184,F5,1041.0,0.125,50,138.0
8185,B-1,1041.25,0.25,30,138.0
8186,F#1,1041.5,11/40,36,138.0
8187,B-1,1041.5,1/40,30,138.0
8188,B-4,1041.5,0.125,48,138.0
8189,D5,1041.5,0.125,48,138.0
8190,F1,1041.75,11/40,32,138.0
8191,F#1,1042.0,11/40,38,138.0
8192,D4,1042.0,0.125,68,138.0
8193,F4,1042.0,0.125,68,138.0
8194,F1,1042.25,11/40,34,138.0
8195,B-1,1042.5,1.0,63,138.0
8196,F#2,1042.5,0.25,63,138.0
8197,B-3,1042.5,0.125,62,138.0
8198,D4,1042.5,0.125,62,138.0
8199,F2,1042.75,0.25,53,138.0
8200,F#2,1043.0,0.25,61,138.0
8201,B-4,1043.0,0.125,56,138.0
8202,D5,1043.0,0.125,56,138.0
8203,F2,1043.25,0.25,55,138.0
8204,F#1,1043.5,11/40,36,138.0
8205,F4,1043.5,0.125,54,138.0
8206,B-4,1043.5,0.125,54,138.0
8207,F1,1043.75,11/40,32,138.0
8208,F#1,1044.0,11/40,38,138.0
8209,D4,1044.0,0.125,72,138.0
8210,B-3,1044.0,0.125,72,138.0
8211,F1,1044.25,11/40,34,138.0
8212,B-1,1044.5,1.0,50,138.0
8213,F#2,1044.5,0.25,50,138.0
8214,B-3,1044.5,0.125,66,138.0
8215,F3,1044.5,0.125,66,138.0
8216,F2,1044.75,0.25,53,138.0
8217,F#2,1045.0,0.25,61,138.0
8218,F4,1045.0,0.125,56,138.0
8219,B-4,1045.0,0.125,56,138.0
8220,F2,1045.25,0.25,55,138.0
8221,F#1,1045.5,11/40,36,138.0
8222,D4,1045.5,0.125,54,138.0
8223,F4,1045.5,0.125,54,138.0
8224,F1,1045.75,11/40,32,138.0
8225,F#1,1046.0,11/40,38,138.0
8226,F3,1046.0,0.125,72,138.0
8227,B-3,1046.0,0.125,72,138.0
8228,F1,1046.25,11/40,34,138.0
8229,B-1,1046.5,1.0,63,138.0
8230,F#2,1046.5,0.25,63,138.0
8231,D3,1046.5,0.125,66,138.0
8232,F3,1046.5,0.125,66,138.0
8233,F2,1046.75,0.25,53,138.0
8234,F#2,1047.0,0.25,61,138.0
8235,A3,1047.0,2.0,47,138.0
8236,E-4,1047.0,2.0,47,138.0
8237,F2,1047.25,0.25,55,138.0
8238,F#1,1047.5,11/40,46,138.0
8239,F1,1047.75,11/40,32,138.0
8240,F#1,1048.0,11/40,38,138.0
8241,F1,1048.25,11/40,34,138.0
8242,B-1,1048.5,1.0,63,138.0
8243,F#2,1048.5,0.25,63,138.0
8244,F2,1048.75,0.25,53,138.0
8245,F#2,1049.0,0.25,61,138.0
8246,F2,1049.25,0.25,55,138.0
8247,B-2,1049.5,1.0,35,138.0
8248,F#3,1049.5,11/40,39,138.0
8249,F3,1049.75,11/40,34,138.0
8250,A3,1049.75,0.125,45,138.0
8251,F#4,1049.75,0.125,45,138.0
8252,E-4,1049.75,0.125,45,138.0
8253,F#3,1050.0,11/40,40,138.0
8254,F#4,1050.0,0.125,40,138.0
8255,E-4,1050.0,0.125,40,138.0
8256,A3,1050.0,0.125,40,138.0
8257,F3,1050.25,11/40,36,138.0
8258,F#3,1050.5,11/40,39,138.0
8259,B-3,1050.5,0.125,43,138.0
8260,F4,1050.5,0.125,43,138.0
8261,D4,1050.5,0.125,43,138.0
8262,F3,1050.75,11/40,34,138.0
8263,F#3,1051.0,11/40,40,138.0
8264,F3,1051.25,0.25,36,138.0
8265,F3,1051.5,1/40,36,138.0
8266,F#3,1051.75,0.125,43,138.0
8267,C4,1051.75,0.125,43,138.0
8268,A3,1051.75,0.125,43,138.0
8269,E-4,1051.75,0.125,43,138.0
8270,F#1,1052.0,0.25,48,138.0
8271,F#3,1052.0,0.125,37,138.0
8272,A3,1052.0,0.125,37,138.0
8273,C4,1052.0,0.125,37,138.0
8274,E-4,1052.0,0.125,37,138.0
8275,F1,1052.25,0.25,43,138.0
8276,B-1,1052.5,1.0,60,138.0
8277,F#2,1052.5,0.25,60,138.0
8278,F3,1052.5,0.125,41,138.0
8279,B-3,1052.5,0.125,41,138.0
8280,D4,1052.5,0.125,41,138.0
8281,F2,1052.75,0.25,51,138.0
8282,F#2,1053.0,0.25,59,138.0
8283,F2,1053.25,0.25,53,138.0
8284,F#1,1053.5,11/40,46,138.0
8285,F1,1053.75,11/40,41,138.0
8286,E-4,1053.75,0.125,40,138.0
8287,F#3,1053.75,0.125,40,138.0
8288,A3,1053.75,0.125,40,138.0
8289,C4,1053.75,0.125,40,138.0
8290,F#1,1054.0,11/40,48,138.0
8291,C4,1054.0,0.125,35,138.0
8292,A3,1054.0,0.125,35,138.0
8293,E-4,1054.0,0.125,35,138.0
8294,F#3,1054.0,0.125,35,138.0
8295,F1,1054.25,11/40,43,138.0
8296,B-1,1054.5,1.0,60,138.0
8297,F#2,1054.5,0.25,60,138.0
8298,D4,1054.5,0.125,38,138.0
8299,F3,1054.5,0.125,38,138.0
8300,B-3,1054.5,0.125,38,138.0
8301,F2,1054.75,0.25,51,138.0
8302,F#2,1055.0,0.25,59,138.0
8303,F2,1055.25,0.25,53,138.0
8304,F#1,1055.5,11/40,46,138.0
8305,F1,1055.75,11/40,41,138.0
8306,E-3,1055.75,0.125,37,138.0
8307,B-3,1055.75,0.125,37,138.0
8308,F#3,1055.75,0.125,37,138.0
8309,C4,1055.75,0.125,37,138.0
8310,F#1,1056.0,11/40,48,138.0
8311,E-3,1056.0,0.125,32,138.0
8312,F#3,1056.0,0.125,32,138.0
8313,B-3,1056.0,0.125,32,138.0
8314,C4,1056.0,0.125,32,138.0
8315,F1,1056.25,11/40,43,138.0
8316,B-1,1056.5,1.0,60,138.0
8317,F#2,1056.5,0.25,60,138.0
8318,B-3,1056.5,0.125,35,138.0
8319,D3,1056.5,0.125,35,138.0
8320,F3,1056.5,0.125,35,138.0
8321,F2,1056.75,0.25,51,138.0
8322,F#2,1057.0,0.25,59,138.0
8323,F2,1057.25,0.25,53,138.0
8324,B-1,1057.5,2.0,35,138.0
8325,F#2,1057.5,11/40,39,138.0
8326,F2,1057.75,11/40,34,138.0
8327,D3,1057.75,0.125,35,138.0
8328,F3,1057.75,0.125,35,138.0
8329,B-3,1057.75,0.125,35,138.0
8330,D4,1057.75,0.125,35,138.0
8331,F#2,1058.0,11/40,40,138.0
8332,F3,1058.0,0.125,31,138.0
8333,D3,1058.0,0.125,31,138.0
8334,B-3,1058.0,0.125,31,138.0
8335,D4,1058.0,0.125,31,138.0
8336,F2,1058.25,11/40,36,138.0
8337,F#2,1058.5,11/40,39,138.0
8338,F3,1058.5,0.125,34,138.0
8339,D3,1058.5,0.125,34,138.0
8340,B-3,1058.5,0.125,34,138.0
8341,F2,1058.75,11/40,34,138.0
8342,F#2,1059.0,11/40,40,138.0
8343,F2,1059.25,0.25,36,138.0
8344,A2,1059.5,11/40,39,138.0
8345,F3,1059.5,0.5,28,138.0
8346,D4,1059.5,0.5,28,138.0
8347,B-3,1059.5,0.5,28,138.0
8348,D3,1059.5,0.5,28,138.0
8349,B-2,1059.75,11/40,34,138.0
8350,A2,1060.0,11/40,40,138.0
8351,B-2,1060.25,11/40,36,138.0
8352,A2,1060.5,11/40,39,138.0
8353,B-2,1060.75,11/40,34,138.0
8354,A2,1061.0,11/40,40,138.0
8355,B-2,1061.25,0.25,36,138.0
8356,B-1,1061.5,2.0,35,138.0
8357,F#2,1061.5,11/40,39,138.0
8358,F2,1061.75,11/40,34,138.0
8359,F#2,1062.0,11/40,39,138.0
8360,F6,1062.0,0.5,105,138.0
8361,D6,1062.0,0.5,105,138.0
8362,B-5,1062.0,0.5,105,138.0
8363,B-6,1062.0,0.5,105,138.0
8364,F2,1062.25,11/40,35,138.0
8365,F#2,1062.5,11/40,37,138.0
8366,F2,1062.75,11/40,32,138.0
8367,F#2,1063.0,11/40,38,138.0
8368,B-4,1063.0,2.0,110,138.0
8369,B-3,1063.0,2.0,110,138.0
8370,F2,1063.25,0.25,34,138.0
8371,A1,1063.5,11/40,36,138.0
8372,B-1,1063.75,11/40,31,138.0
8373,A1,1064.0,11/40,36,138.0
8374,B-1,1064.25,11/40,32,138.0
8375,A1,1064.5,11/40,35,138.0
8376,B-1,1064.75,11/40,30,138.0
8377,A1,1065.0,11/40,35,138.0
8378,B-1,1065.25,0.25,31,138.0
8379,F#1,1065.5,11/40,33,138.0
8380,F1,1065.75,11/40,29,138.0
8381,F#1,1066.0,11/40,34,138.0
8382,F1,1066.25,11/40,30,138.0
8383,F#1,1066.5,11/40,32,138.0
8384,F1,1066.75,11/40,28,138.0
8385,F2,1067.0,11/40,32,138.0
8386,B-1,1067.0,11/40,32,138.0
8387,F1,1067.25,0.25,29,138.0
8388,F2,1067.5,11/40,32,138.0
8389,B-1,1067.5,11/40,32,138.0
8390,F1,1067.75,11/40,27,138.0
8391,F2,1068.0,11/40,32,138.0
8392,B-1,1068.0,11/40,32,138.0
8393,F1,1068.25,11/40,28,138.0
8394,F2,1068.5,11/40,32,138.0
8395,B-1,1068.5,11/40,32,138.0
8396,F1,1068.75,11/40,27,138.0
8397,F2,1069.0,11/40,32,138.0
8398,B-1,1069.0,11/40,32,138.0
8399,F1,1069.25,0.25,28,138.0
8400,F2,1069.5,0.25,27,138.0
8401,B-1,1069.75,0.25,23,138.0
8402,F2,1070.0,0.25,27,138.0
8403,B-1,1070.25,0.25,24,138.0
8404,F2,1070.5,0.25,44,138.0
8405,B-1,1070.75,0.25,49,138.0
8406,B-2,1071.0,0.25,55,138.0
8407,F2,1071.0,0.25,55,138.0
8408,B-1,1071.25,0.25,60,138.0
8409,F2,1071.5,0.25,66,138.0
8410,B-2,1071.5,0.25,66,138.0
8411,B-1,1071.75,0.25,70,138.0
8412,F2,1072.0,0.25,75,138.0
8413,B-2,1072.0,0.25,75,138.0
8414,B-1,1072.25,0.25,81,138.0
8415,B-2,1072.5,0.5,85,138.0
8416,D3,1072.5,0.5,85,138.0
8417,F3,1072.5,0.5,85,138.0
8418,B-3,1072.5,0.5,85,138.0
8419,B-1,1073.5,2.0,84,138.0
8420,B-2,1073.5,2.0,84,138.0
