,note_name,start_time,duration,velocity,tempo
0,G4,0.0,1.0,37,35.77
1,E-4,0.0,1.0,37,35.77
2,F4,1.0,1.0,36,35.77
3,B-3,1.0,1.0,36,35.77
4,G3,2.0,1.5,36,35.77
5,E-4,2.0,1.5,36,35.77
6,C2,2.0,1.5,30,35.77
7,C3,2.0,1.5,30,35.77
8,E-4,3.5,0.375,44,35.77
9,C3,3.5,0.5,30,35.77
10,E-3,3.5,0.5,30,35.77
11,G#4,3.875,0.125,37,35.77
12,G4,4.0,0.5,44,35.77
13,B-2,4.0,62/125,30,35.77
14,E3,4.0,62/125,30,35.77
15,G4,4.5,0.375,46,35.77
16,B-2,4.5,62/125,31,35.77
17,E3,4.5,62/125,31,35.77
18,C#5,4.875,0.125,44,35.77
19,C5,5.0,0.5,50,35.77
20,A2,5.0,0.5,33,35.77
21,F3,5.0,0.5,33,35.77
22,C5,5.5,0.125,55,35.77
23,F#3,5.5,0.5,35,35.77
24,G#2,5.5,0.5,35,35.77
25,D5,5.625,21/500,48,35.77
26,C5,5.625,21/500,48,35.77
27,B4,5.708,21/500,48,35.77
28,C5,5.75,0.125,55,35.77
29,D5,5.875,0.125,48,35.77
30,E-5,6.0,0.75,58,35.77
31,E-4,6.0,0.5,44,35.77
32,G3,6.0,0.5,40,35.77
33,G2,6.0,1.5,34,35.77
34,A3,6.5,0.5,26,35.77
35,F#4,6.5,0.5,36,35.77
36,E-4,6.5,0.5,36,35.77
37,C5,6.75,0.25,44,35.77
38,B3,7.0,0.5,29,35.77
39,B4,7.0,0.5,38,35.77
40,D4,7.0,0.5,38,35.77
41,G4,7.0,0.5,38,35.77
42,G5,7.5,0.25,62,35.77
43,E-6,7.75,0.25,58,35.77
44,E-6,8.0,0.75,63,35.77
45,E-5,8.0,0.5,48,35.77
46,G4,8.0,0.5,44,35.77
47,G3,8.0,1.5,44,35.77
48,A4,8.5,0.5,37,35.77
49,F#5,8.5,0.5,44,35.77
50,E-5,8.5,0.5,44,35.77
51,C6,8.75,0.25,53,35.77
52,B4,9.0,0.5,33,35.77
53,D5,9.0,62/125,43,35.77
54,G5,9.0,62/125,43,35.77
55,B5,9.0,62/125,43,35.77
56,B-5,9.5,0.5,51,35.77
57,D5,9.5,0.5,51,35.77
58,G5,9.5,0.5,51,35.77
59,B-4,9.5,0.5,28,35.77
60,G4,9.5,0.5,28,35.77
61,B-5,10.0,1167/1000,68,35.77
62,D5,10.0,0.5,55,35.77
63,B-4,10.0,1.5,53,35.77
64,G#4,10.0,0.5,45,35.77
65,F4,10.0,0.5,45,35.77
66,E-5,10.5,0.5,55,35.77
67,E-4,10.5,0.5,42,35.77
68,G4,10.5,0.5,42,35.77
69,F5,11.0,167/1000,46,35.77
70,D4,11.0,0.5,47,35.77
71,F4,11.0,0.5,47,35.77
72,B-4,11.167,167/1000,51,35.77
73,C5,11.333,167/1000,46,35.77
74,A4,11.5,167/1000,55,35.77
75,D4,11.5,0.5,42,35.77
76,B-3,11.5,0.5,42,35.77
77,B-4,11.667,167/1000,46,35.77
78,G#4,11.833,83/1000,46,35.77
79,B-3,12.0,1.0,37,35.77
80,E4,12.0,1.0,37,35.77
81,G4,12.0,1.0,37,35.77
82,C#4,12.0,1.0,37,35.77
83,D4,13.0,1.0,35,35.77
84,F4,13.0,1.0,35,35.77
85,G#3,13.0,1.0,35,35.77
86,B-2,13.0,1.0,30,35.77
87,B-1,13.0,1.0,30,35.77
88,F#3,14.0,1.5,36,35.77
89,E-4,14.0,1.5,36,35.77
90,B1,14.0,1.5,30,35.77
91,B2,14.0,1.5,30,35.77
92,F#4,15.5,0.375,44,35.77
93,E-4,15.5,0.5,34,35.77
94,B2,15.5,0.5,30,35.77
95,F#3,15.5,0.5,30,35.77
96,B4,15.875,0.125,37,35.77
97,B4,16.0,0.5,39,35.77
98,E4,16.0,0.5,39,35.77
99,F#3,16.0,62/125,30,35.77
100,C#3,16.0,62/125,30,35.77
101,E4,16.5,0.5,34,35.77
102,B-4,16.5,0.375,46,35.77
103,F#3,16.5,62/125,31,35.77
104,C#3,16.5,62/125,31,35.77
105,E5,16.875,0.125,44,35.77
106,E-5,17.0,0.5,42,35.77
107,E-4,17.0,0.5,42,35.77
108,B2,17.0,62/125,33,35.77
109,F#3,17.0,62/125,33,35.77
110,E-5,17.5,0.125,55,35.77
111,B-2,17.5,0.5,32,35.77
112,F#3,17.5,0.5,38,35.77
113,F5,17.625,21/500,48,35.77
114,E-5,17.625,21/500,48,35.77
115,D5,17.708,21/500,48,35.77
116,E-5,17.75,0.125,55,35.77
117,F5,17.875,0.125,48,35.77
118,F#5,18.0,0.75,58,35.77
119,C5,18.0,0.5,37,35.77
120,A2,18.0,1.0,40,35.77
121,F#3,18.0,0.5,38,35.77
122,C5,18.5,0.5,44,35.77
123,F3,18.5,0.5,34,35.77
124,E-5,18.75,0.25,49,35.77
125,D5,19.0,0.5,42,35.77
126,B-4,19.0,0.5,42,35.77
127,F3,19.0,0.5,28,35.77
128,B-2,19.0,0.5,28,35.77
129,B-4,19.5,0.5,37,35.77
130,C#5,19.5,0.125,55,35.77
131,G#2,19.5,0.5,32,35.77
132,E3,19.5,0.5,38,35.77
133,E-5,19.625,21/500,48,35.77
134,C#5,19.625,21/500,48,35.77
135,C5,19.708,21/500,48,35.77
136,C#5,19.75,0.125,55,35.77
137,E-5,19.875,0.125,48,35.77
138,E5,20.0,0.75,58,35.77
139,B-4,20.0,0.5,37,35.77
140,G2,20.0,1.0,40,35.77
141,E3,20.0,0.5,38,35.77
142,B-4,20.5,0.5,44,35.77
143,E-3,20.5,0.5,34,35.77
144,E-5,20.75,0.125,49,35.77
145,C#5,20.875,0.125,44,35.77
146,B4,21.0,0.5,42,35.77
147,G#4,21.0,0.5,42,35.77
148,E-3,21.0,0.5,28,35.77
149,G#2,21.0,0.5,28,35.77
150,E-4,21.5,0.5,46,35.77
151,E-5,21.5,0.5,46,35.77
152,B-4,21.5,0.5,46,35.77
153,F#3,21.5,0.5,28,35.77
154,F#2,21.5,0.5,28,35.77
155,B-2,21.5,0.5,28,35.77
156,D5,22.0,0.5,42,35.77
157,G#4,22.0,0.5,42,35.77
158,D4,22.0,0.5,42,35.77
159,B-4,22.0,0.5,42,35.77
160,F2,22.0,0.5,29,35.77
161,B-2,22.0,0.5,29,35.77
162,F3,22.0,0.5,29,35.77
163,D4,23.25,31/125,37,35.77
164,B-4,23.25,31/125,37,35.77
165,D5,23.25,31/125,37,35.77
166,G#4,23.25,31/125,37,35.77
167,B-2,23.25,31/125,34,35.77
168,F3,23.25,31/125,34,35.77
169,F2,23.25,31/125,34,35.77
170,B-4,23.5,31/125,38,35.77
171,E-4,23.5,31/125,38,35.77
172,F#4,23.5,31/125,38,35.77
173,E-5,23.5,31/125,38,35.77
174,E-2,23.5,31/125,34,35.77
175,B-2,23.5,31/125,34,35.77
176,E-3,23.5,31/125,34,35.77
177,F#4,23.75,31/125,35,35.77
178,E-5,23.75,31/125,35,35.77
179,B-4,23.75,31/125,35,35.77
180,E-4,23.75,31/125,35,35.77
181,B-2,23.75,31/125,28,35.77
182,E-2,23.75,31/125,28,35.77
183,E-3,23.75,31/125,28,35.77
184,F5,24.0,0.5,47,35.77
185,F4,24.0,0.5,47,35.77
186,B-4,24.0,0.5,47,35.77
187,B-2,24.0,0.5,40,35.77
188,D3,24.0,0.5,40,35.77
189,D2,24.0,0.5,40,35.77
190,D5,25.25,31/125,42,35.77
191,B-4,25.25,31/125,42,35.77
192,F4,25.25,31/125,37,35.77
193,G#4,25.25,31/125,37,35.77
194,B-4,25.5,31/125,43,35.77
195,E-5,25.5,31/125,43,35.77
196,F#4,25.5,31/125,37,35.77
197,E-4,25.5,31/125,37,35.77
198,E-5,25.75,31/125,40,35.77
199,B-4,25.75,31/125,40,35.77
200,F#4,25.75,31/125,31,35.77
201,E-4,25.75,31/125,31,35.77
202,F5,26.0,0.5,50,35.77
203,B-4,26.0,0.5,50,35.77
204,D4,26.0,0.5,43,35.77
205,F4,26.0,0.5,43,35.77
206,B-4,27.25,31/125,45,35.77
207,F5,27.25,31/125,45,35.77
208,F4,27.25,31/125,40,35.77
209,D4,27.25,31/125,40,35.77
210,G5,27.5,31/125,49,35.77
211,B-4,27.5,31/125,49,35.77
212,E-4,27.5,31/125,42,35.77
213,C#4,27.5,31/125,42,35.77
214,G#4,27.75,31/125,46,35.77
215,G#5,27.75,31/125,46,35.77
216,B3,27.75,31/125,36,35.77
217,E-4,27.75,31/125,36,35.77
218,G#4,28.0,0.5,50,35.77
219,G#5,28.0,0.5,50,35.77
220,B3,28.0,0.5,43,35.77
221,E-4,28.0,0.5,43,35.77
222,F5,29.25,31/125,45,35.77
223,B-4,29.25,31/125,45,35.77
224,D4,29.25,31/125,40,35.77
225,F4,29.25,31/125,40,35.77
226,G5,29.5,31/125,49,35.77
227,B-4,29.5,31/125,49,35.77
228,C#4,29.5,31/125,42,35.77
229,E-4,29.5,31/125,42,35.77
230,G#5,29.75,31/125,46,35.77
231,G#4,29.75,31/125,46,35.77
232,C4,29.75,31/125,36,35.77
233,E-4,29.75,31/125,36,35.77
234,G#5,30.5,0.5,40,35.77
235,G#4,30.5,0.5,40,35.77
236,C4,30.5,0.5,34,35.77
237,E-4,30.5,0.5,34,35.77
238,G#4,31.5,0.5,40,35.77
239,G#5,31.5,0.5,40,35.77
240,E-4,31.5,0.5,34,35.77
241,C4,31.5,0.5,34,35.77
242,G#5,32.0,1.5,70,35.77
243,G#4,32.0,1.5,70,35.77
244,E-4,32.0,1.5,70,35.77
245,C4,32.0,1.5,70,35.77
246,G4,33.5,0.5,59,35.77
247,D5,33.5,0.25,70,35.77
248,D4,33.5,0.25,56,35.77
249,B3,33.5,0.25,56,35.77
250,G5,33.75,0.125,67,35.77
251,C#4,33.75,0.125,54,35.77
252,B-3,33.75,0.125,54,35.77
253,G4,34.0,0.5,64,35.77
254,G5,34.0,0.5,64,35.77
255,B-3,34.0,0.5,62,35.77
256,C#4,34.0,0.5,62,35.77
257,C5,34.5,0.25,70,35.77
258,F4,34.5,0.5,59,35.77
259,A3,34.5,0.25,56,35.77
260,C4,34.5,0.25,56,35.77
261,F5,34.75,0.125,67,35.77
262,G#3,34.75,0.125,54,35.77
263,B3,34.75,0.125,54,35.77
264,F4,35.0,0.5,64,35.77
265,F5,35.0,0.5,64,35.77
266,G#3,35.0,0.5,62,35.77
267,B3,35.0,0.5,62,35.77
268,B-4,35.5,0.25,70,35.77
269,E-4,35.5,0.5,59,35.77
270,B-3,35.5,0.25,56,35.77
271,G3,35.5,0.25,56,35.77
272,E-5,35.75,0.125,67,35.77
273,F#3,35.75,0.125,54,35.77
274,A3,35.75,0.125,54,35.77
275,G#4,36.0,1.5,59,35.77
276,B-4,36.0,1.5,59,35.77
277,E-4,36.0,1.0,64,35.77
278,E-5,36.0,1.0,64,35.77
279,G#3,36.0,1.5,62,35.77
280,F3,36.0,1.5,62,35.77
281,D5,37.0,0.5,54,35.77
282,D4,37.0,0.5,54,35.77
283,E-5,37.5,0.5,53,35.77
284,B-4,37.5,0.5,53,35.77
285,E-4,37.5,0.5,53,35.77
286,G3,37.5,0.5,42,35.77
287,E-3,37.5,0.5,42,35.77
288,F4,38.0,0.5,51,35.77
289,B-4,38.0,0.5,51,35.77
290,F5,38.0,0.5,51,35.77
291,D3,38.0,0.5,44,35.77
292,F3,38.0,0.5,44,35.77
293,G4,38.5,0.5,54,35.77
294,B-4,38.5,0.5,54,35.77
295,G5,38.5,0.5,54,35.77
296,C3,38.5,0.5,46,35.77
297,E-3,38.5,0.5,46,35.77
298,B-4,39.0,0.5,57,35.77
299,G#5,39.0,0.5,57,35.77
300,G#4,39.0,0.5,57,35.77
301,B-2,39.0,0.5,49,35.77
302,D3,39.0,0.5,49,35.77
303,B-4,39.5,0.5,62,35.77
304,B-5,39.5,0.5,62,35.77
305,F3,39.5,0.5,50,35.77
306,B-2,39.5,0.5,50,35.77
307,D3,39.5,0.5,50,35.77
308,E-2,40.0,0.25,56,35.77
309,G4,40.0,0.5,70,35.77
310,B-4,40.0,0.5,70,35.77
311,B-5,40.0,0.5,70,35.77
312,B-2,40.25,0.25,40,35.77
313,G3,40.5,0.25,40,35.77
314,B-2,40.75,0.25,40,35.77
315,E-2,41.0,0.25,54,35.77
316,B-5,41.0,0.5,75,35.77
317,B-4,41.0,0.5,75,35.77
318,B-2,41.25,0.25,44,35.77
319,G3,41.5,0.25,43,35.77
320,B-2,41.75,0.25,43,35.77
321,F2,42.0,0.25,58,35.77
322,B-5,42.0,1.5,86,35.77
323,B-6,42.0,1.5,86,35.77
324,B-2,42.25,0.25,49,35.77
325,G#3,42.5,0.25,49,35.77
326,B-2,42.75,0.25,47,35.77
327,F2,43.0,0.25,53,35.77
328,B-2,43.25,0.25,44,35.77
329,G#3,43.5,0.25,44,35.77
330,B-5,43.5,0.5,60,35.77
331,B-4,43.5,0.5,60,35.77
332,B-2,43.75,0.25,44,35.77
333,G2,44.0,0.25,53,35.77
334,B-2,44.25,0.25,43,35.77
335,B-3,44.5,0.25,43,35.77
336,B-2,44.75,0.25,43,35.77
337,G2,45.0,0.25,53,35.77
338,B-2,45.25,0.25,43,35.77
339,B-3,45.5,0.25,43,35.77
340,B-5,45.5,1.5,60,35.77
341,B-4,45.5,1.5,60,35.77
342,B-2,45.75,0.25,43,35.77
343,G#2,46.0,0.25,53,35.77
344,B-2,46.25,0.25,44,35.77
345,G#3,46.5,0.25,44,35.77
346,B-2,46.75,0.25,44,35.77
347,B-1,47.0,0.25,53,35.77
348,G4,47.0,0.5,62,35.77
349,G5,47.0,0.5,62,35.77
350,B-2,47.25,0.25,46,35.77
351,F3,47.5,0.25,46,35.77
352,F5,47.5,0.5,60,35.77
353,F4,47.5,0.5,60,35.77
354,B-2,47.75,0.25,46,35.77
355,E-2,48.0,0.25,56,35.77
356,D5,48.0,0.5,52,35.77
357,D4,48.0,0.5,52,35.77
358,B-2,48.25,0.25,40,35.77
359,G3,48.5,0.25,40,35.77
360,B4,48.5,0.5,52,35.77
361,B3,48.5,0.5,52,35.77
362,B-2,48.75,0.25,40,35.77
363,E-2,49.0,0.25,54,35.77
364,B-4,49.0,62/125,52,35.77
365,B-3,49.0,62/125,52,35.77
366,B-2,49.25,0.25,44,35.77
367,G3,49.5,0.25,43,35.77
368,B-4,49.5,0.5,72,35.77
369,B-3,49.5,0.5,72,35.77
370,B-2,49.75,0.25,43,35.77
371,F2,50.0,0.25,58,35.77
372,B-2,50.25,0.25,49,35.77
373,G#3,50.5,0.25,49,35.77
374,B-5,50.5,0.5,75,35.77
375,B-4,50.5,0.5,75,35.77
376,B-2,50.75,0.25,47,35.77
377,F2,51.0,0.25,53,35.77
378,B-2,51.25,0.25,44,35.77
379,G#3,51.5,0.25,44,35.77
380,B-5,51.5,1.5,86,35.77
381,B-6,51.5,1.5,86,35.77
382,B-2,51.75,0.25,44,35.77
383,G2,52.0,0.25,53,35.77
384,E-3,52.25,0.25,43,35.77
385,B-3,52.5,0.25,43,35.77
386,E-3,52.75,0.25,43,35.77
387,G2,53.0,0.25,53,35.77
388,B-4,53.0,0.5,60,35.77
389,B-5,53.0,0.5,60,35.77
390,E-3,53.25,0.25,43,35.77
391,B-3,53.5,0.25,43,35.77
392,E-3,53.75,0.25,43,35.77
393,G#2,54.0,0.25,53,35.77
394,E-3,54.25,0.25,44,35.77
395,C4,54.5,0.25,44,35.77
396,E-3,54.75,0.25,44,35.77
397,A2,55.0,0.25,53,35.77
398,B-4,55.0,1.5,60,35.77
399,B-5,55.0,1.5,60,35.77
400,F3,55.25,0.25,46,35.77
401,C4,55.5,0.25,46,35.77
402,F3,55.75,0.25,46,35.77
403,B-2,56.0,0.5,52,35.77
404,B-3,56.0,0.5,52,35.77
405,E-4,56.5,0.25,46,35.77
406,G4,56.5,0.5,62,35.77
407,G5,56.5,0.5,62,35.77
408,D4,56.75,0.25,49,35.77
409,C4,57.0,0.25,48,35.77
410,E4,57.0,0.5,60,35.77
411,E5,57.0,0.5,60,35.77
412,B-3,57.25,0.25,47,35.77
413,A3,57.5,0.25,46,35.77
414,F5,57.5,0.5,52,35.77
415,F4,57.5,0.5,52,35.77
416,G#3,57.75,0.25,45,35.77
417,G3,58.0,0.25,44,35.77
418,C5,58.0,0.5,52,35.77
419,C4,58.0,0.5,52,35.77
420,F3,58.25,0.25,43,35.77
421,E-3,58.5,0.25,42,35.77
422,E-4,58.5,0.5,52,35.77
423,E-5,58.5,0.5,52,35.77
424,D3,58.75,0.25,41,35.77
425,E-3,59.0,0.25,40,35.77
426,D5,59.0,0.25,56,35.77
427,D4,59.0,0.25,56,35.77
428,B-4,59.25,0.25,49,35.77
429,F3,59.25,0.25,42,35.77
430,A4,59.5,0.25,51,35.77
431,G3,59.5,0.25,44,35.77
432,B-4,59.75,0.25,53,35.77
433,G#3,59.75,0.25,46,35.77
434,B-3,60.0,0.5,48,35.77
435,C5,60.0,0.25,50,35.77
436,A4,60.0,0.25,50,35.77
437,B-4,60.25,0.25,52,35.77
438,D5,60.25,0.25,52,35.77
439,C4,60.5,0.25,42,35.77
440,C5,60.5,0.25,54,35.77
441,E-5,60.5,0.25,54,35.77
442,D4,60.75,0.25,46,35.77
443,D5,60.75,0.25,56,35.77
444,F5,60.75,0.25,56,35.77
445,E-4,61.0,0.25,44,35.77
446,E-5,61.0,1.0,58,35.77
447,G5,61.0,1.0,58,35.77
448,F4,61.25,0.25,46,35.77
449,G4,61.5,0.25,48,35.77
450,G#4,61.75,0.25,50,35.77
451,B-4,62.0,0.5,57,35.77
452,C6,62.0,0.25,57,35.77
453,G#5,62.0,0.25,57,35.77
454,B-5,62.25,0.25,54,35.77
455,G5,62.25,0.25,54,35.77
456,G#4,62.5,0.25,46,35.77
457,F5,62.5,0.25,52,35.77
458,G#5,62.5,0.25,52,35.77
459,G4,62.75,0.25,53,35.77
460,G5,62.75,0.25,49,35.77
461,E-5,62.75,0.25,49,35.77
462,F4,63.0,0.25,52,35.77
463,F5,63.0,0.5,56,35.77
464,D5,63.0,0.5,56,35.77
465,E-4,63.25,0.25,51,35.77
466,D4,63.5,0.188,50,35.77
467,C4,63.75,0.188,49,35.77
468,B3,64.0,0.188,47,35.77
469,C7,64.0,0.25,62,35.77
470,G#6,64.0,0.25,62,35.77
471,A3,64.25,0.188,48,35.77
472,B-6,64.25,0.25,60,35.77
473,G6,64.25,0.25,60,35.77
474,G3,64.5,0.188,51,35.77
475,F6,64.5,0.25,56,35.77
476,G#6,64.5,0.25,56,35.77
477,F3,64.75,0.188,55,35.77
478,G6,64.75,0.25,54,35.77
479,E-6,64.75,0.25,54,35.77
480,E-3,65.0,0.188,59,35.77
481,F6,65.0,0.5,62,35.77
482,D6,65.0,0.5,62,35.77
483,D3,65.25,0.188,62,35.77
484,C3,65.5,0.188,66,35.77
485,C6,65.5,0.25,62,35.77
486,D5,65.5,0.25,62,35.77
487,B-5,65.75,0.25,62,35.77
488,E-5,65.75,0.25,62,35.77
489,B-2,65.75,0.188,64,35.77
490,C3,65.75,0.188,64,35.77
491,B4,66.0,0.25,62,35.77
492,G#5,66.0,0.25,62,35.77
493,C3,66.0,0.25,66,35.77
494,B-2,66.0,0.25,66,35.77
495,G5,66.25,0.25,61,35.77
496,C5,66.25,0.25,61,35.77
497,G4,66.5,0.188,60,35.77
498,F5,66.5,0.188,60,35.77
499,E-5,66.75,0.188,58,35.77
500,F#5,66.75,0.188,58,35.77
501,G5,67.0,0.188,56,35.77
502,D5,67.0,0.188,56,35.77
503,C3,67.0,0.25,69,35.77
504,A2,67.0,0.25,69,35.77
505,D5,67.25,0.188,58,35.77
506,F#5,67.25,0.188,58,35.77
507,A5,67.25,0.188,58,35.77
508,D5,67.5,0.188,61,35.77
509,G5,67.5,0.188,61,35.77
510,B5,67.5,0.188,61,35.77
511,D5,67.75,0.188,64,35.77
512,B5,67.75,0.188,64,35.77
513,G5,67.75,0.188,64,35.77
514,F#2,68.0,1.5,71,35.77
515,C3,68.0,2.0,65,35.77
516,E-5,68.0,0.188,67,35.77
517,G5,68.0,0.188,67,35.77
518,C6,68.0,0.188,67,35.77
519,F5,68.25,0.188,71,35.77
520,B5,68.25,0.188,71,35.77
521,D6,68.25,0.188,71,35.77
522,G5,68.5,0.188,73,35.77
523,C6,68.5,0.188,73,35.77
524,E-6,68.5,0.188,73,35.77
525,E6,68.75,0.188,76,35.77
526,C6,68.75,0.188,76,35.77
527,G5,68.75,0.188,76,35.77
528,E6,69.0,0.25,79,35.77
529,C6,69.0,0.25,79,35.77
530,G5,69.0,0.25,79,35.77
531,F2,69.5,0.25,71,35.77
532,E-2,70.0,2.0,80,35.77
533,C3,70.0,2.0,65,35.77
534,F6,70.0,0.25,92,35.77
535,F5,70.0,0.25,92,35.77
536,C6,70.0,0.25,92,35.77
537,B-4,71.0,2.0,65,35.77
538,E-5,71.0,1.5,84,35.77
539,F#2,72.0,1.5,71,35.77
540,C3,72.0,2.0,65,35.77
541,F5,72.5,0.25,85,35.77
542,F#5,73.0,2.0,93,35.77
543,B-4,73.0,0.5,65,35.77
544,B-4,73.5,0.25,61,35.77
545,F2,73.5,0.25,71,35.77
546,A4,73.75,0.25,52,35.77
547,B-4,74.0,0.25,61,35.77
548,E2,74.0,2.0,80,35.77
549,C3,74.0,2.0,65,35.77
550,A4,74.25,0.25,54,35.77
551,B-4,74.5,0.25,61,35.77
552,A4,74.75,0.25,54,35.77
553,B-4,75.0,2.0,65,35.77
554,E-5,75.0,1.5,84,35.77
555,C3,76.0,0.5,44,35.77
556,F2,76.0,0.5,44,35.77
557,F5,76.5,0.25,85,35.77
558,G5,77.0,2.0,93,35.77
559,B-4,77.0,0.5,65,35.77
560,B-4,77.5,0.25,61,35.77
561,A4,77.75,0.25,52,35.77
562,B-4,78.0,0.25,61,35.77
563,D3,78.0,0.5,44,35.77
564,F2,78.0,0.5,44,35.77
565,A4,78.25,0.25,54,35.77
566,B-4,78.5,0.25,61,35.77
567,A4,78.75,0.25,54,35.77
568,F#5,79.0,0.5,70,35.77
569,B-4,79.5,0.25,51,35.77
570,A4,79.75,0.25,44,35.77
571,B-4,80.0,0.25,51,35.77
572,F2,80.0,0.5,44,35.77
573,E-3,80.0,0.5,44,35.77
574,A4,80.25,0.25,43,35.77
575,B-4,80.5,0.25,51,35.77
576,A4,80.75,0.25,45,35.77
577,F5,81.0,0.5,70,35.77
578,F2,81.0,0.5,44,35.77
579,D3,81.0,0.5,44,35.77
580,C5,81.5,0.25,51,35.77
581,B4,81.75,0.25,44,35.77
582,C5,82.0,0.25,51,35.77
583,F2,82.0,0.5,44,35.77
584,C3,82.0,0.5,44,35.77
585,B4,82.25,0.25,43,35.77
586,C5,82.5,0.25,51,35.77
587,B4,82.75,0.25,45,35.77
588,F5,83.0,0.25,70,35.77
589,F2,83.0,0.5,44,35.77
590,D3,83.0,0.5,44,35.77
591,D5,83.5,0.25,51,35.77
592,C5,83.75,0.25,44,35.77
593,F5,84.0,0.25,70,35.77
594,C3,84.0,0.5,44,35.77
595,F2,84.0,0.5,44,35.77
596,C5,84.5,0.25,51,35.77
597,B-4,84.75,0.25,44,35.77
598,F5,85.0,0.25,70,35.77
599,B-4,85.5,0.25,51,35.77
600,A4,85.75,0.25,44,35.77
601,F5,86.0,0.25,70,35.77
602,D3,86.0,0.5,44,35.77
603,F2,86.0,0.5,44,35.77
604,C5,86.5,0.25,51,35.77
605,B-4,86.75,0.25,44,35.77
606,F#5,87.0,0.5,70,35.77
607,B-4,87.5,0.25,51,35.77
608,A4,87.75,0.25,44,35.77
609,B-4,88.0,0.25,51,35.77
610,F2,88.0,0.5,44,35.77
611,E-3,88.0,0.5,44,35.77
612,A4,88.25,0.25,43,35.77
613,B-4,88.5,0.25,51,35.77
614,A4,88.75,0.25,45,35.77
615,F5,89.0,0.5,70,35.77
616,F2,89.0,0.5,44,35.77
617,D3,89.0,0.5,44,35.77
618,C5,89.5,0.25,51,35.77
619,B4,89.75,0.25,44,35.77
620,C5,90.0,0.25,51,35.77
621,E-3,90.0,0.5,44,35.77
622,F2,90.0,0.5,44,35.77
623,B4,90.25,0.25,43,35.77
624,C5,90.5,0.25,51,35.77
625,B4,90.75,0.25,45,35.77
626,F5,91.0,0.25,70,35.77
627,F3,91.0,0.5,48,35.77
628,D5,91.5,0.25,51,35.77
629,G3,91.5,0.25,38,35.77
630,C5,91.75,0.25,44,35.77
631,A3,91.75,0.25,40,35.77
632,F5,92.0,0.25,70,35.77
633,B-3,92.0,0.25,42,35.77
634,C4,92.25,0.25,44,35.77
635,C5,92.5,0.25,51,35.77
636,D4,92.5,0.25,46,35.77
637,B4,92.75,0.25,44,35.77
638,E-4,92.75,0.25,48,35.77
639,F5,93.0,0.25,70,35.77
640,F4,93.0,0.5,50,35.77
641,D5,93.5,0.25,51,35.77
642,G4,93.5,0.25,38,35.77
643,C5,93.75,0.25,44,35.77
644,A4,93.75,0.25,40,35.77
645,F5,94.0,0.5,64,35.77
646,B-4,94.0,0.25,42,35.77
647,C5,94.25,0.25,44,35.77
648,D5,94.5,0.25,46,35.77
649,C5,94.5,0.5,64,35.77
650,E-5,94.5,0.5,64,35.77
651,E-5,94.75,0.25,48,35.77
652,F4,95.0,1.0,45,35.77
653,F5,95.0,0.5,50,35.77
654,C5,95.0,0.5,64,35.77
655,E-5,95.0,0.5,64,35.77
656,E-5,95.5,0.5,47,35.77
657,D5,95.5,0.5,60,35.77
658,B-4,95.5,0.5,60,35.77
659,D5,96.0,0.5,56,35.77
660,C5,96.0,0.5,60,35.77
661,A4,96.0,0.5,60,35.77
662,C#5,96.5,0.5,46,35.77
663,C6,96.5,0.5,64,35.77
664,E-6,96.5,0.5,64,35.77
665,F5,97.0,1.0,45,35.77
666,C5,97.0,0.5,55,35.77
667,C6,97.0,0.5,64,35.77
668,E-6,97.0,0.5,64,35.77
669,F4,97.5,0.5,47,35.77
670,B-5,97.5,0.5,60,35.77
671,D6,97.5,0.5,60,35.77
672,B-3,98.0,2.0,39,35.77
673,C6,98.0,0.5,60,35.77
674,A5,98.0,0.5,60,35.77
675,G6,98.5,0.5,77,35.77
676,C6,98.5,0.5,64,35.77
677,A5,98.5,0.5,64,35.77
678,C#4,98.5,1.0,39,35.77
679,E4,98.5,1.0,39,35.77
680,G6,99.0,0.5,77,35.77
681,F5,99.0,0.5,65,35.77
682,B-5,99.0,0.5,65,35.77
683,F5,99.5,0.5,67,35.77
684,F6,99.5,0.5,67,35.77
685,B-5,99.5,0.5,67,35.77
686,D4,99.5,0.5,39,35.77
687,F4,99.5,0.5,39,35.77
688,B-3,100.0,2.0,39,35.77
689,G5,100.0,0.5,69,35.77
690,B-5,100.0,0.5,69,35.77
691,E-6,100.5,0.5,71,35.77
692,C6,100.5,0.5,71,35.77
693,A5,100.5,0.5,71,35.77
694,F#4,100.5,1.0,39,35.77
695,A4,100.5,1.0,39,35.77
696,D6,101.0,2.0,88,35.77
697,F5,101.25,0.25,49,35.77
698,G5,101.5,0.25,55,35.77
699,F4,101.5,0.5,39,35.77
700,F5,101.75,0.25,50,35.77
701,G5,102.0,0.25,55,35.77
702,B-3,102.0,2.0,39,35.77
703,F5,102.25,0.25,47,35.77
704,G5,102.5,0.25,55,35.77
705,D4,102.5,0.5,36,35.77
706,F4,102.5,0.5,36,35.77
707,F5,102.75,0.25,48,35.77
708,C6,103.0,2.0,80,35.77
709,E-4,103.0,0.5,36,35.77
710,G4,103.0,0.5,36,35.77
711,E-5,103.25,0.25,46,35.77
712,F5,103.5,0.25,54,35.77
713,D4,103.5,0.5,34,35.77
714,F4,103.5,0.5,34,35.77
715,E-5,103.75,0.25,50,35.77
716,F5,104.0,0.25,53,35.77
717,D4,104.0,0.5,39,35.77
718,F3,104.0,2.0,39,35.77
719,E-5,104.25,0.25,47,35.77
720,F5,104.5,0.25,53,35.77
721,E-4,104.5,0.5,36,35.77
722,C4,104.5,0.5,36,35.77
723,E-5,104.75,0.25,48,35.77
724,B-5,105.0,1.0,70,35.77
725,D5,105.0,0.25,53,35.77
726,B-3,105.0,0.5,36,35.77
727,D4,105.0,0.5,36,35.77
728,B-4,105.25,0.25,48,35.77
729,C5,105.5,0.25,53,35.77
730,C4,105.5,0.5,34,35.77
731,A3,105.5,0.5,34,35.77
732,B-4,105.75,0.25,48,35.77
733,G5,106.0,0.5,68,35.77
734,B-2,106.0,2.0,35,35.77
735,B-4,106.25,0.25,48,35.77
736,F5,106.5,0.5,60,35.77
737,C#3,106.5,1.0,35,35.77
738,E3,106.5,1.0,35,35.77
739,B-4,106.75,0.25,48,35.77
740,F5,107.0,0.5,68,35.77
741,B-4,107.0,0.25,53,35.77
742,F4,107.25,0.25,48,35.77
743,A4,107.5,0.25,53,35.77
744,E-5,107.5,0.5,58,35.77
745,F3,107.5,0.5,35,35.77
746,D3,107.5,0.5,35,35.77
747,F4,107.75,0.25,48,35.77
748,B-4,108.0,0.25,53,35.77
749,D5,108.0,0.5,66,35.77
750,B-2,108.0,2.0,35,35.77
751,F4,108.25,0.25,48,35.77
752,C5,108.5,0.5,57,35.77
753,F#3,108.5,1.0,35,35.77
754,A3,108.5,1.0,35,35.77
755,F4,108.75,0.25,48,35.77
756,D5,109.0,2.0,79,35.77
757,F4,109.25,0.25,44,35.77
758,G4,109.5,0.25,49,35.77
759,F3,109.5,0.5,35,35.77
760,F4,109.75,0.25,45,35.77
761,G4,110.0,0.25,49,35.77
762,B-2,110.0,2.0,35,35.77
763,F4,110.25,0.25,42,35.77
764,G4,110.5,0.25,49,35.77
765,D3,110.5,0.5,32,35.77
766,F3,110.5,0.5,32,35.77
767,F4,110.75,0.25,43,35.77
768,C5,111.0,2.0,72,35.77
769,G3,111.0,0.5,32,35.77
770,E-3,111.0,0.5,32,35.77
771,E-4,111.25,0.25,41,35.77
772,F4,111.5,0.25,48,35.77
773,D3,111.5,0.5,31,35.77
774,F3,111.5,0.5,31,35.77
775,E-4,111.75,0.25,45,35.77
776,F4,112.0,0.25,47,35.77
777,F2,112.0,2.0,35,35.77
778,D3,112.0,0.5,35,35.77
779,E-4,112.25,0.25,42,35.77
780,F4,112.5,0.25,47,35.77
781,C3,112.5,0.5,32,35.77
782,E-3,112.5,0.5,32,35.77
783,E-4,112.75,0.25,43,35.77
784,B-4,113.0,1.0,63,35.77
785,D4,113.0,0.25,47,35.77
786,B-2,113.0,0.5,32,35.77
787,D3,113.0,0.5,32,35.77
788,B-3,113.25,0.25,43,35.77
789,C4,113.5,0.25,47,35.77
790,A2,113.5,0.5,31,35.77
791,C3,113.5,0.5,31,35.77
792,B-3,113.75,0.25,43,35.77
793,G4,114.0,0.5,61,35.77
794,B-2,114.0,0.75,43,35.77
795,B-1,114.0,0.75,43,35.77
796,B-3,114.25,0.25,43,35.77
797,F4,114.5,0.5,54,35.77
798,B-3,114.75,0.25,43,35.77
799,F#2,114.75,0.25,39,35.77
800,B-3,115.0,0.25,47,35.77
801,F4,115.0,0.5,61,35.77
802,F2,115.0,0.5,45,35.77
803,F3,115.25,0.25,43,35.77
804,E-4,115.5,0.5,52,35.77
805,A3,115.5,0.25,47,35.77
806,B-1,115.5,0.5,38,35.77
807,F3,115.75,0.25,43,35.77
808,B-3,116.0,0.25,47,35.77
809,D4,116.0,0.5,59,35.77
810,F1,116.0,0.5,55,35.77
811,F3,116.0,1.0,47,35.77
812,F3,116.25,0.25,43,35.77
813,C4,116.5,0.5,51,35.77
814,E-3,116.5,0.25,44,35.77
815,F3,116.75,0.25,43,35.77
816,D3,116.75,0.25,36,35.77
817,B-3,117.0,1.25,57,35.77
818,C3,117.0,0.25,43,35.77
819,F#3,117.25,0.75,46,35.77
820,B-2,117.25,0.25,39,35.77
821,D3,117.5,0.5,55,35.77
822,A2,117.5,0.25,39,35.77
823,F2,117.5,0.25,39,35.77
824,F3,117.75,0.25,39,35.77
825,B-2,118.0,0.75,43,35.77
826,F3,118.271,0.25,47,35.77
827,D3,118.5,0.25,47,35.77
828,B-3,118.75,0.25,47,35.77
829,F#3,118.75,0.25,39,35.77
830,B-3,119.0,0.25,47,35.77
831,F3,119.0,0.5,45,35.77
832,B-3,119.25,0.25,47,35.77
833,A3,119.5,0.25,51,35.77
834,B-2,119.5,0.5,38,35.77
835,B-3,119.75,0.25,49,35.77
836,C4,120.0,0.25,52,35.77
837,F2,120.0,0.5,55,35.77
838,D4,120.25,0.25,44,35.77
839,E-4,120.5,0.25,51,35.77
840,E-4,120.5,0.25,44,35.77
841,C4,120.75,0.25,47,35.77
842,D4,120.75,0.25,36,35.77
843,B-4,121.0,1.25,57,35.77
844,C4,121.0,0.25,43,35.77
845,F#4,121.25,0.75,46,35.77
846,B-3,121.25,0.25,39,35.77
847,D4,121.5,0.5,55,35.77
848,A3,121.5,0.25,39,35.77
849,F3,121.5,0.25,39,35.77
850,C4,121.75,0.25,39,35.77
851,B-3,122.0,0.75,39,35.77
852,D4,122.0,0.75,39,35.77
853,F4,122.271,0.25,47,35.77
854,D4,122.5,0.25,47,35.77
855,B-4,122.75,0.25,47,35.77
856,C4,122.75,0.25,33,35.77
857,F4,123.0,1.0,47,35.77
858,B-4,123.0,0.25,47,35.77
859,B-3,123.0,0.75,39,35.77
860,B-4,123.25,0.25,47,35.77
861,A4,123.5,0.25,51,35.77
862,B-4,123.75,0.25,49,35.77
863,G3,123.75,0.25,34,35.77
864,C5,124.0,0.25,52,35.77
865,F3,124.0,0.75,39,35.77
866,D5,124.25,0.25,44,35.77
867,E-5,124.5,0.25,51,35.77
868,C5,124.75,0.25,47,35.77
869,E-3,124.75,0.25,35,35.77
870,D5,125.0,0.25,51,35.77
871,D3,125.0,0.75,39,35.77
872,C5,125.25,0.25,42,35.77
873,B-4,125.5,0.75,49,35.77
874,C3,125.75,0.25,33,35.77
875,B-2,126.0,0.75,39,35.77
876,G4,126.25,0.25,41,35.77
877,F4,126.5,0.5,48,35.77
878,G2,126.75,0.25,31,35.77
879,F4,127.0,0.25,48,35.77
880,F2,127.0,0.75,39,35.77
881,E-4,127.25,0.25,42,35.77
882,D4,127.5,0.75,48,35.77
883,E-2,127.75,0.25,34,35.77
884,D2,128.0,0.75,39,35.77
885,C4,128.25,0.25,42,35.77
886,B-3,128.5,0.5,47,35.77
887,C2,128.75,0.25,35,35.77
888,B-3,129.0,0.25,47,35.77
889,B-1,129.0,0.75,39,35.77
890,G3,129.25,0.25,41,35.77
891,F3,129.5,0.75,47,35.77
892,G#4,129.75,0.25,34,35.77
893,F4,129.75,0.25,34,35.77
894,F4,130.0,2.0,39,35.77
895,G#4,130.0,2.0,39,35.77
896,E-3,130.25,0.25,38,35.77
897,D3,130.5,0.5,43,35.77
898,D3,131.0,0.25,43,35.77
899,C3,131.25,0.25,37,35.77
900,B-2,131.5,0.75,44,35.77
901,E-4,132.0,2.0,39,35.77
902,G4,132.0,2.0,39,35.77
903,C3,132.25,0.25,36,35.77
904,B-2,132.5,0.5,41,35.77
905,B-2,133.0,0.5,41,35.77
906,D4,134.0,2.0,39,35.77
907,F4,134.0,2.0,39,35.77
908,E-4,136.0,2.0,39,35.77
909,C#4,136.0,2.0,39,35.77
910,B-4,137.0,2.0,49,35.77
911,F5,137.0,2.0,49,35.77
912,E-4,138.0,1.5,70,35.77
913,C4,138.0,1.5,70,35.77
914,B-4,139.0,2.0,47,35.77
915,G5,139.0,2.0,47,35.77
916,B3,139.5,0.25,56,35.77
917,D4,139.5,0.25,56,35.77
918,B-3,139.75,0.125,54,35.77
919,C#4,139.75,0.125,54,35.77
920,B-3,140.0,0.5,62,35.77
921,C#4,140.0,0.5,62,35.77
922,A3,140.5,0.25,56,35.77
923,C4,140.5,0.25,56,35.77
924,B3,140.75,0.125,54,35.77
925,G#3,140.75,0.125,54,35.77
926,G#5,141.0,1.5,70,35.77
927,G#4,141.0,1.5,70,35.77
928,G#3,141.0,0.5,62,35.77
929,B3,141.0,0.5,62,35.77
930,G3,141.5,0.25,56,35.77
931,B-3,141.5,0.25,56,35.77
932,F#3,141.75,0.125,54,35.77
933,A3,141.75,0.125,54,35.77
934,G#3,142.0,1.5,62,35.77
935,F3,142.0,1.5,62,35.77
936,G4,142.5,0.5,59,35.77
937,D5,142.5,0.25,70,35.77
938,G5,142.75,0.125,67,35.77
939,G5,143.0,0.5,64,35.77
940,G4,143.0,0.5,64,35.77
941,C5,143.5,0.25,70,35.77
942,F4,143.5,0.5,59,35.77
943,E-3,143.5,0.5,42,35.77
944,G3,143.5,0.5,42,35.77
945,F5,143.75,0.125,67,35.77
946,F5,144.0,0.5,64,35.77
947,F4,144.0,0.5,64,35.77
948,F3,144.0,0.5,44,35.77
949,D3,144.0,0.5,44,35.77
950,E-4,144.5,0.5,59,35.77
951,B-4,144.5,0.25,70,35.77
952,C3,144.5,0.5,46,35.77
953,E-3,144.5,0.5,46,35.77
954,E-5,144.75,0.125,67,35.77
955,E-4,145.0,1.0,64,35.77
956,E-5,145.0,1.0,64,35.77
957,B-4,145.0,1.5,59,35.77
958,G#4,145.0,1.5,59,35.77
959,B-2,145.0,0.5,49,35.77
960,D3,145.0,0.5,49,35.77
961,F3,145.5,0.5,50,35.77
962,D3,145.5,0.5,50,35.77
963,B-2,145.5,0.5,50,35.77
964,E-2,146.0,0.25,56,35.77
965,D5,146.0,0.5,54,35.77
966,D4,146.0,0.5,54,35.77
967,B-2,146.25,0.25,40,35.77
968,G3,146.5,0.25,40,35.77
969,E-5,146.5,0.5,53,35.77
970,B-4,146.5,0.5,53,35.77
971,E-4,146.5,0.5,53,35.77
972,B-2,146.75,0.25,40,35.77
973,E-2,147.0,0.25,54,35.77
974,B-4,147.0,0.5,51,35.77
975,F4,147.0,0.5,51,35.77
976,F5,147.0,0.5,51,35.77
977,B-2,147.25,0.25,44,35.77
978,G3,147.5,0.25,43,35.77
979,B-4,147.5,0.5,54,35.77
980,G5,147.5,0.5,54,35.77
981,G4,147.5,0.5,54,35.77
982,B-2,147.75,0.25,43,35.77
983,F2,148.0,0.25,58,35.77
984,G#4,148.0,0.5,57,35.77
985,B-4,148.0,0.5,57,35.77
986,G#5,148.0,0.5,57,35.77
987,B-2,148.25,0.25,49,35.77
988,G#3,148.5,0.25,49,35.77
989,B-4,148.5,0.5,62,35.77
990,B-5,148.5,0.5,62,35.77
991,B-2,148.75,0.25,47,35.77
992,F2,149.0,0.25,53,35.77
993,B-4,149.0,0.5,70,35.77
994,B-5,149.0,0.5,70,35.77
995,G4,149.0,0.5,70,35.77
996,B-2,149.25,0.25,44,35.77
997,G#3,149.5,0.25,44,35.77
998,B-2,149.75,0.25,44,35.77
999,G2,150.0,0.25,53,35.77
1000,B-5,150.0,0.5,75,35.77
1001,B-4,150.0,0.5,75,35.77
1002,B-2,150.25,0.25,43,35.77
1003,B-3,150.5,0.25,43,35.77
1004,B-2,150.75,0.25,43,35.77
1005,G2,151.0,0.25,53,35.77
1006,B-5,151.0,1.5,86,35.77
1007,B-6,151.0,1.5,86,35.77
1008,B-2,151.25,0.25,43,35.77
1009,B-3,151.5,0.25,43,35.77
1010,B-2,151.75,0.25,43,35.77
1011,G#2,152.0,0.25,53,35.77
1012,B-2,152.25,0.25,44,35.77
1013,G#3,152.5,0.25,44,35.77
1014,B-5,152.5,0.5,60,35.77
1015,B-4,152.5,0.5,60,35.77
1016,B-2,152.75,0.25,44,35.77
1017,B-1,153.0,0.25,53,35.77
1018,B-2,153.25,0.25,46,35.77
1019,F3,153.5,0.25,46,35.77
1020,B-2,153.75,0.25,46,35.77
1021,E-2,154.0,0.25,56,35.77
1022,B-2,154.25,0.25,40,35.77
1023,G3,154.5,0.25,40,35.77
1024,B-5,154.5,1.5,60,35.77
1025,B-4,154.5,1.5,60,35.77
1026,B-2,154.75,0.25,40,35.77
1027,E-2,155.0,0.25,54,35.77
1028,B-2,155.25,0.25,44,35.77
1029,G3,155.5,0.25,43,35.77
1030,B-2,155.75,0.25,43,35.77
1031,F2,156.0,0.25,58,35.77
1032,G4,156.0,0.5,62,35.77
1033,G5,156.0,0.5,62,35.77
1034,B-2,156.25,0.25,49,35.77
1035,G#3,156.5,0.25,49,35.77
1036,F5,156.5,0.5,60,35.77
1037,F4,156.5,0.5,60,35.77
1038,B-2,156.75,0.25,47,35.77
1039,F2,157.0,0.25,53,35.77
1040,D5,157.0,0.5,52,35.77
1041,D4,157.0,0.5,52,35.77
1042,B-2,157.25,0.25,44,35.77
1043,G#3,157.5,0.25,44,35.77
1044,B4,157.5,0.5,52,35.77
1045,B3,157.5,0.5,52,35.77
1046,B-2,157.75,0.25,44,35.77
1047,G2,158.0,0.25,53,35.77
1048,B-3,158.0,0.5,52,35.77
1049,B-4,158.0,0.5,52,35.77
1050,E-3,158.25,0.25,43,35.77
1051,B-3,158.5,0.25,43,35.77
1052,B-3,158.5,0.5,72,35.77
1053,B-4,158.5,0.5,72,35.77
1054,E-3,158.75,0.25,43,35.77
1055,G2,159.0,0.25,53,35.77
1056,E-3,159.25,0.25,43,35.77
1057,B-3,159.5,0.25,43,35.77
1058,B-5,159.5,0.5,75,35.77
1059,B-4,159.5,0.5,75,35.77
1060,E-3,159.75,0.25,43,35.77
1061,G#2,160.0,0.25,53,35.77
1062,E-3,160.25,0.25,44,35.77
1063,C4,160.5,0.25,44,35.77
1064,B-5,160.5,1.5,86,35.77
1065,B-6,160.5,1.5,86,35.77
1066,E-3,160.75,0.25,44,35.77
1067,A2,161.0,0.25,53,35.77
1068,F3,161.25,0.25,46,35.77
1069,C4,161.5,0.25,46,35.77
1070,F3,161.75,0.25,46,35.77
1071,B-5,162.0,0.5,60,35.77
1072,B-4,162.0,0.5,60,35.77
1073,B-2,162.0,0.5,52,35.77
1074,B-3,162.0,0.5,52,35.77
1075,E-4,162.5,0.25,46,35.77
1076,D4,162.75,0.25,49,35.77
1077,C4,163.0,0.25,48,35.77
1078,B-3,163.25,0.25,47,35.77
1079,A3,163.5,0.25,46,35.77
1080,G#3,163.75,0.25,45,35.77
1081,G3,164.0,0.25,44,35.77
1082,B-5,164.0,1.5,60,35.77
1083,B-4,164.0,1.5,60,35.77
1084,F3,164.25,0.25,43,35.77
1085,E-3,164.5,0.25,42,35.77
1086,D3,164.75,0.25,41,35.77
1087,E-3,165.0,0.25,40,35.77
1088,F3,165.25,0.25,42,35.77
1089,G3,165.5,0.25,44,35.77
1090,G5,165.5,0.5,62,35.77
1091,G4,165.5,0.5,62,35.77
1092,G#3,165.75,0.25,46,35.77
1093,B-3,166.0,0.5,48,35.77
1094,E4,166.0,0.5,60,35.77
1095,E5,166.0,0.5,60,35.77
1096,C4,166.5,0.25,42,35.77
1097,F4,166.5,0.5,52,35.77
1098,F5,166.5,0.5,52,35.77
1099,D4,166.75,0.25,46,35.77
1100,E-4,167.0,0.25,44,35.77
1101,C5,167.0,0.5,52,35.77
1102,C4,167.0,0.5,52,35.77
1103,F4,167.25,0.25,46,35.77
1104,G4,167.5,0.25,48,35.77
1105,E-4,167.5,0.5,52,35.77
1106,E-5,167.5,0.5,52,35.77
1107,G#4,167.75,0.25,50,35.77
1108,B-4,168.0,0.5,57,35.77
1109,D4,168.0,0.25,56,35.77
1110,D5,168.0,0.25,56,35.77
1111,B-4,168.25,0.25,49,35.77
1112,A4,168.5,0.25,51,35.77
1113,G#4,168.5,0.25,46,35.77
1114,B-4,168.75,0.25,53,35.77
1115,G4,168.75,0.25,53,35.77
1116,F4,169.0,0.25,52,35.77
1117,C5,169.0,0.25,50,35.77
1118,A4,169.0,0.25,50,35.77
1119,E-4,169.25,0.25,51,35.77
1120,D5,169.25,0.25,52,35.77
1121,B-4,169.25,0.25,52,35.77
1122,D4,169.5,0.188,50,35.77
1123,C5,169.5,0.25,54,35.77
1124,E-5,169.5,0.25,54,35.77
1125,C4,169.75,0.188,49,35.77
1126,F5,169.75,0.25,56,35.77
1127,D5,169.75,0.25,56,35.77
1128,B3,170.0,0.188,47,35.77
1129,G5,170.0,1.0,58,35.77
1130,E-5,170.0,1.0,58,35.77
1131,A3,170.25,0.188,48,35.77
1132,G3,170.5,0.188,51,35.77
1133,F3,170.75,0.188,55,35.77
1134,E-3,171.0,0.188,59,35.77
1135,C6,171.0,0.25,57,35.77
1136,G#5,171.0,0.25,57,35.77
1137,D3,171.25,0.188,62,35.77
1138,G5,171.25,0.25,54,35.77
1139,B-5,171.25,0.25,54,35.77
1140,C3,171.5,0.188,66,35.77
1141,F5,171.5,0.25,52,35.77
1142,G#5,171.5,0.25,52,35.77
1143,E-5,171.75,0.25,49,35.77
1144,G5,171.75,0.25,49,35.77
1145,B-2,171.75,0.188,64,35.77
1146,C3,171.75,0.188,64,35.77
1147,F5,172.0,0.5,56,35.77
1148,D5,172.0,0.5,56,35.77
1149,B-2,172.0,0.25,66,35.77
1150,C3,172.0,0.25,66,35.77
1151,C7,173.0,0.25,62,35.77
1152,G#6,173.0,0.25,62,35.77
1153,C3,173.0,0.25,69,35.77
1154,A2,173.0,0.25,69,35.77
1155,B-6,173.25,0.25,60,35.77
1156,G6,173.25,0.25,60,35.77
1157,F6,173.5,0.25,56,35.77
1158,G#6,173.5,0.25,56,35.77
1159,E-6,173.75,0.25,54,35.77
1160,G6,173.75,0.25,54,35.77
1161,C3,174.0,2.0,65,35.77
1162,F#2,174.0,1.5,71,35.77
1163,F6,174.0,0.5,62,35.77
1164,D6,174.0,0.5,62,35.77
1165,C6,174.5,0.25,62,35.77
1166,D5,174.5,0.25,62,35.77
1167,E-5,174.75,0.25,62,35.77
1168,B-5,174.75,0.25,62,35.77
1169,G#5,175.0,0.25,62,35.77
1170,B4,175.0,0.25,62,35.77
1171,G5,175.25,0.25,61,35.77
1172,C5,175.25,0.25,61,35.77
1173,F2,175.5,0.25,71,35.77
1174,G4,175.5,0.188,60,35.77
1175,F5,175.5,0.188,60,35.77
1176,E-5,175.75,0.188,58,35.77
1177,F#5,175.75,0.188,58,35.77
1178,E-2,176.0,2.0,80,35.77
1179,C3,176.0,2.0,65,35.77
1180,G5,176.0,0.188,56,35.77
1181,D5,176.0,0.188,56,35.77
1182,A5,176.25,0.188,58,35.77
1183,D5,176.25,0.188,58,35.77
1184,F#5,176.25,0.188,58,35.77
1185,D5,176.5,0.188,61,35.77
1186,G5,176.5,0.188,61,35.77
1187,B5,176.5,0.188,61,35.77
1188,B5,176.75,0.188,64,35.77
1189,D5,176.75,0.188,64,35.77
1190,G5,176.75,0.188,64,35.77
1191,C6,177.0,0.188,67,35.77
1192,G5,177.0,0.188,67,35.77
1193,E-5,177.0,0.188,67,35.77
1194,F5,177.25,0.188,71,35.77
1195,D6,177.25,0.188,71,35.77
1196,B5,177.25,0.188,71,35.77
1197,C6,177.5,0.188,73,35.77
1198,E-6,177.5,0.188,73,35.77
1199,G5,177.5,0.188,73,35.77
1200,G5,177.75,0.188,76,35.77
1201,C6,177.75,0.188,76,35.77
1202,E6,177.75,0.188,76,35.77
1203,C3,178.0,2.0,65,35.77
1204,F#2,178.0,1.5,71,35.77
1205,E6,178.0,0.25,79,35.77
1206,G5,178.0,0.25,79,35.77
1207,C6,178.0,0.25,79,35.77
1208,C6,179.0,0.25,92,35.77
1209,F5,179.0,0.25,92,35.77
1210,F6,179.0,0.25,92,35.77
1211,F2,179.5,0.25,71,35.77
1212,E-5,180.0,1.5,84,35.77
1213,B-4,180.0,2.0,65,35.77
1214,E2,180.0,2.0,80,35.77
1215,C3,180.0,2.0,65,35.77
1216,F5,181.5,0.25,85,35.77
1217,F#5,182.0,2.0,93,35.77
1218,B-4,182.0,0.5,65,35.77
1219,F2,182.0,0.5,44,35.77
1220,C3,182.0,0.5,44,35.77
1221,B-4,182.5,0.25,61,35.77
1222,A4,182.75,0.25,52,35.77
1223,B-4,183.0,0.25,61,35.77
1224,A4,183.25,0.25,54,35.77
1225,B-4,183.5,0.25,61,35.77
1226,A4,183.75,0.25,54,35.77
1227,E-5,184.0,1.5,84,35.77
1228,B-4,184.0,2.0,65,35.77
1229,F2,184.0,0.5,44,35.77
1230,D3,184.0,0.5,44,35.77
1231,F5,185.5,0.25,85,35.77
1232,G5,186.0,2.0,93,35.77
1233,B-4,186.0,0.5,65,35.77
1234,E-3,186.0,0.5,44,35.77
1235,F2,186.0,0.5,44,35.77
1236,B-4,186.5,0.25,61,35.77
1237,A4,186.75,0.25,52,35.77
1238,B-4,187.0,0.25,61,35.77
1239,F2,187.0,0.5,44,35.77
1240,D3,187.0,0.5,44,35.77
1241,A4,187.25,0.25,54,35.77
1242,B-4,187.5,0.25,61,35.77
1243,A4,187.75,0.25,54,35.77
1244,F#5,188.0,0.5,70,35.77
1245,F2,188.0,0.5,44,35.77
1246,C3,188.0,0.5,44,35.77
1247,B-4,188.5,0.25,51,35.77
1248,A4,188.75,0.25,44,35.77
1249,B-4,189.0,0.25,51,35.77
1250,F2,189.0,0.5,44,35.77
1251,D3,189.0,0.5,44,35.77
1252,A4,189.25,0.25,43,35.77
1253,B-4,189.5,0.25,51,35.77
1254,A4,189.75,0.25,45,35.77
1255,F5,190.0,0.5,70,35.77
1256,F2,190.0,0.5,44,35.77
1257,C3,190.0,0.5,44,35.77
1258,C5,190.5,0.25,51,35.77
1259,B4,190.75,0.25,44,35.77
1260,C5,191.0,0.25,51,35.77
1261,B4,191.25,0.25,43,35.77
1262,C5,191.5,0.25,51,35.77
1263,B4,191.75,0.25,45,35.77
1264,F5,192.0,0.25,70,35.77
1265,F2,192.0,0.5,44,35.77
1266,D3,192.0,0.5,44,35.77
1267,D5,192.5,0.25,51,35.77
1268,C5,192.75,0.25,44,35.77
1269,F5,193.0,0.25,70,35.77
1270,C5,193.5,0.25,51,35.77
1271,B-4,193.75,0.25,44,35.77
1272,F5,194.0,0.25,70,35.77
1273,F2,194.0,0.5,44,35.77
1274,E-3,194.0,0.5,44,35.77
1275,B-4,194.5,0.25,51,35.77
1276,A4,194.75,0.25,44,35.77
1277,F5,195.0,0.25,70,35.77
1278,F2,195.0,0.5,44,35.77
1279,D3,195.0,0.5,44,35.77
1280,C5,195.5,0.25,51,35.77
1281,B-4,195.75,0.25,44,35.77
1282,F#5,196.0,0.5,70,35.77
1283,E-3,196.0,0.5,44,35.77
1284,F2,196.0,0.5,44,35.77
1285,B-4,196.5,0.25,51,35.77
1286,A4,196.75,0.25,44,35.77
1287,B-4,197.0,0.25,51,35.77
1288,F3,197.015,0.5,48,35.77
1289,A4,197.25,0.25,43,35.77
1290,B-4,197.5,0.25,51,35.77
1291,G3,197.5,0.25,38,35.77
1292,A4,197.75,0.25,45,35.77
1293,A3,197.75,0.25,40,35.77
1294,F5,198.0,0.5,70,35.77
1295,B-3,198.0,0.25,42,35.77
1296,C4,198.25,0.25,44,35.77
1297,C5,198.5,0.25,51,35.77
1298,D4,198.5,0.25,46,35.77
1299,B4,198.75,0.25,44,35.77
1300,E-4,198.75,0.25,48,35.77
1301,C5,199.0,0.25,51,35.77
1302,F4,199.0,0.5,50,35.77
1303,B4,199.25,0.25,43,35.77
1304,C5,199.5,0.25,51,35.77
1305,G4,199.5,0.25,38,35.77
1306,B4,199.75,0.25,45,35.77
1307,A4,199.75,0.25,40,35.77
1308,F5,200.0,0.25,70,35.77
1309,B-4,200.0,0.25,42,35.77
1310,C5,200.25,0.25,44,35.77
1311,D5,200.5,0.25,51,35.77
1312,D5,200.5,0.25,46,35.77
1313,C5,200.75,0.25,44,35.77
1314,E-5,200.75,0.25,48,35.77
1315,F5,201.0,0.25,70,35.77
1316,F5,201.0,0.5,50,35.77
1317,C5,201.5,0.25,51,35.77
1318,E-5,201.5,0.5,47,35.77
1319,B4,201.75,0.25,44,35.77
1320,F5,202.0,0.25,70,35.77
1321,D5,202.0,0.5,56,35.77
1322,D5,202.5,0.25,51,35.77
1323,C#5,202.5,0.5,46,35.77
1324,C5,202.75,0.25,44,35.77
1325,F5,203.0,0.5,64,35.77
1326,C5,203.0,0.5,55,35.77
1327,F4,203.5,0.5,47,35.77
1328,C5,203.5,0.5,64,35.77
1329,E-5,203.5,0.5,64,35.77
1330,F4,204.0,1.0,45,35.77
1331,B-3,204.0,2.0,39,35.77
1332,C5,204.0,0.5,64,35.77
1333,E-5,204.0,0.5,64,35.77
1334,D5,204.5,0.5,60,35.77
1335,B-4,204.5,0.5,60,35.77
1336,E4,204.5,1.0,39,35.77
1337,C#4,204.5,1.0,39,35.77
1338,C5,205.0,0.5,60,35.77
1339,A4,205.0,0.5,60,35.77
1340,C6,205.5,0.5,64,35.77
1341,E-6,205.5,0.5,64,35.77
1342,D4,205.5,0.5,39,35.77
1343,F4,205.5,0.5,39,35.77
1344,F5,206.0,1.0,45,35.77
1345,B-3,206.0,2.0,39,35.77
1346,C6,206.0,0.5,64,35.77
1347,E-6,206.0,0.5,64,35.77
1348,D6,206.5,0.5,60,35.77
1349,B-5,206.5,0.5,60,35.77
1350,F#4,206.5,1.0,39,35.77
1351,A4,206.5,1.0,39,35.77
1352,A5,207.0,0.5,60,35.77
1353,C6,207.0,0.5,60,35.77
1354,G6,207.5,0.5,77,35.77
1355,F4,207.5,0.5,39,35.77
1356,A5,207.5,0.5,64,35.77
1357,C6,207.5,0.5,64,35.77
1358,G6,208.0,0.5,77,35.77
1359,B-3,208.0,2.0,39,35.77
1360,B-5,208.0,0.5,65,35.77
1361,F5,208.0,0.5,65,35.77
1362,B-5,208.5,0.5,67,35.77
1363,F5,208.5,0.5,67,35.77
1364,F6,208.5,0.5,67,35.77
1365,D4,208.5,0.5,36,35.77
1366,F4,208.5,0.5,36,35.77
1367,B-5,209.0,0.5,69,35.77
1368,G5,209.0,0.5,69,35.77
1369,G4,209.0,0.5,36,35.77
1370,E-4,209.0,0.5,36,35.77
1371,E-6,209.5,0.5,71,35.77
1372,A5,209.5,0.5,71,35.77
1373,C6,209.5,0.5,71,35.77
1374,F4,209.5,0.5,34,35.77
1375,D4,209.5,0.5,34,35.77
1376,D6,210.0,2.0,88,35.77
1377,D4,210.0,0.5,39,35.77
1378,F3,210.0,2.0,39,35.77
1379,F5,210.25,0.25,49,35.77
1380,G5,210.5,0.25,55,35.77
1381,E-4,210.5,0.5,36,35.77
1382,C4,210.5,0.5,36,35.77
1383,F5,210.75,0.25,50,35.77
1384,G5,211.0,0.25,55,35.77
1385,B-3,211.0,0.5,36,35.77
1386,D4,211.0,0.5,36,35.77
1387,F5,211.25,0.25,47,35.77
1388,G5,211.5,0.25,55,35.77
1389,C4,211.5,0.5,34,35.77
1390,A3,211.5,0.5,34,35.77
1391,F5,211.75,0.25,48,35.77
1392,C6,212.0,2.0,80,35.77
1393,B-2,212.0,2.0,35,35.77
1394,E-5,212.25,0.25,46,35.77
1395,F5,212.5,0.25,54,35.77
1396,C#3,212.5,1.0,35,35.77
1397,E3,212.5,1.0,35,35.77
1398,E-5,212.75,0.25,50,35.77
1399,F5,213.0,0.25,53,35.77
1400,E-5,213.25,0.25,47,35.77
1401,F5,213.5,0.25,53,35.77
1402,D3,213.5,0.5,35,35.77
1403,F3,213.5,0.5,35,35.77
1404,E-5,213.75,0.25,48,35.77
1405,D5,214.0,0.25,53,35.77
1406,B-5,214.0,1.0,70,35.77
1407,B-2,214.0,2.0,35,35.77
1408,B-4,214.25,0.25,48,35.77
1409,C5,214.5,0.25,53,35.77
1410,F#3,214.5,1.0,35,35.77
1411,A3,214.5,1.0,35,35.77
1412,B-4,214.75,0.25,48,35.77
1413,G5,215.0,0.5,68,35.77
1414,B-4,215.25,0.25,48,35.77
1415,F5,215.5,0.5,60,35.77
1416,F3,215.5,0.5,35,35.77
1417,B-4,215.75,0.25,48,35.77
1418,B-4,216.0,0.25,53,35.77
1419,F5,216.0,0.5,68,35.77
1420,B-2,216.0,2.0,35,35.77
1421,F4,216.25,0.25,48,35.77
1422,A4,216.5,0.25,53,35.77
1423,E-5,216.5,0.5,58,35.77
1424,F3,216.5,0.5,32,35.77
1425,D3,216.5,0.5,32,35.77
1426,F4,216.75,0.25,48,35.77
1427,D5,217.0,0.5,66,35.77
1428,B-4,217.0,0.25,53,35.77
1429,G3,217.0,0.5,32,35.77
1430,E-3,217.0,0.5,32,35.77
1431,F4,217.25,0.25,48,35.77
1432,C5,217.5,0.5,57,35.77
1433,D3,217.5,0.5,31,35.77
1434,F3,217.5,0.5,31,35.77
1435,F4,217.75,0.25,48,35.77
1436,D5,218.0,2.0,79,35.77
1437,D3,218.0,0.5,35,35.77
1438,F2,218.0,2.0,35,35.77
1439,F4,218.25,0.25,44,35.77
1440,G4,218.5,0.25,49,35.77
1441,E-3,218.5,0.5,32,35.77
1442,C3,218.5,0.5,32,35.77
1443,F4,218.75,0.25,45,35.77
1444,G4,219.0,0.25,49,35.77
1445,B-2,219.0,0.5,32,35.77
1446,D3,219.0,0.5,32,35.77
1447,F4,219.25,0.25,42,35.77
1448,G4,219.5,0.25,49,35.77
1449,A2,219.5,0.5,31,35.77
1450,C3,219.5,0.5,31,35.77
1451,F4,219.75,0.25,43,35.77
1452,C5,220.0,2.0,72,35.77
1453,B-1,220.0,0.75,43,35.77
1454,B-2,220.0,0.75,43,35.77
1455,E-4,220.25,0.25,41,35.77
1456,F4,220.5,0.25,48,35.77
1457,E-4,220.75,0.25,45,35.77
1458,F#2,220.75,0.25,39,35.77
1459,F4,221.0,0.25,47,35.77
1460,F2,221.0,0.5,45,35.77
1461,E-4,221.25,0.25,42,35.77
1462,F4,221.5,0.25,47,35.77
1463,B-1,221.5,0.5,38,35.77
1464,E-4,221.75,0.25,43,35.77
1465,B-4,222.0,1.0,63,35.77
1466,D4,222.0,0.25,47,35.77
1467,F1,222.0,0.5,55,35.77
1468,F3,222.0,1.0,47,35.77
1469,B-3,222.25,0.25,43,35.77
1470,C4,222.5,0.25,47,35.77
1471,E-3,222.5,0.25,44,35.77
1472,B-3,222.75,0.25,43,35.77
1473,D3,222.75,0.25,36,35.77
1474,G4,223.0,0.5,61,35.77
1475,C3,223.0,0.25,43,35.77
1476,B-3,223.25,0.25,43,35.77
1477,B-2,223.25,0.25,39,35.77
1478,F4,223.5,0.5,54,35.77
1479,F2,223.5,0.25,39,35.77
1480,A2,223.5,0.25,39,35.77
1481,B-3,223.75,0.25,43,35.77
1482,F3,223.75,0.25,39,35.77
1483,B-3,224.0,0.25,47,35.77
1484,F4,224.0,0.5,61,35.77
1485,B-2,224.0,0.75,43,35.77
1486,F3,224.25,0.25,43,35.77
1487,A3,224.5,0.25,47,35.77
1488,E-4,224.5,0.5,52,35.77
1489,F3,224.75,0.25,43,35.77
1490,F#3,224.75,0.25,39,35.77
1491,D4,225.0,0.5,59,35.77
1492,B-3,225.0,0.25,47,35.77
1493,F3,225.0,0.5,45,35.77
1494,F3,225.25,0.25,43,35.77
1495,C4,225.5,0.5,51,35.77
1496,B-2,225.5,0.5,38,35.77
1497,F3,225.75,0.25,43,35.77
1498,B-3,226.0,1.25,57,35.77
1499,F2,226.0,0.5,55,35.77
1500,F#3,226.25,0.75,46,35.77
1501,D3,226.5,0.5,55,35.77
1502,E-4,226.5,0.25,44,35.77
1503,D4,226.75,0.25,36,35.77
1504,C4,227.0,0.25,43,35.77
1505,B-3,227.25,0.25,39,35.77
1506,F3,227.271,0.25,47,35.77
1507,D3,227.5,0.25,47,35.77
1508,F3,227.5,0.25,39,35.77
1509,A3,227.5,0.25,39,35.77
1510,B-3,227.75,0.25,47,35.77
1511,C4,227.75,0.25,39,35.77
1512,B-3,228.0,0.25,47,35.77
1513,D4,228.0,0.75,39,35.77
1514,B-3,228.0,0.75,39,35.77
1515,B-3,228.25,0.25,47,35.77
1516,A3,228.5,0.25,51,35.77
1517,B-3,228.75,0.25,49,35.77
1518,C4,228.75,0.25,33,35.77
1519,C4,229.0,0.25,52,35.77
1520,B-3,229.0,0.75,39,35.77
1521,D4,229.25,0.25,44,35.77
1522,E-4,229.5,0.25,51,35.77
1523,C4,229.75,0.25,47,35.77
1524,G3,229.75,0.25,34,35.77
1525,B-4,230.0,1.25,57,35.77
1526,F3,230.0,0.75,39,35.77
1527,F#4,230.25,0.75,46,35.77
1528,D4,230.5,0.5,55,35.77
1529,E-3,230.75,0.25,35,35.77
1530,D3,231.0,0.75,39,35.77
1531,F4,231.271,0.25,47,35.77
1532,D4,231.5,0.25,47,35.77
1533,B-4,231.75,0.25,47,35.77
1534,C3,231.75,0.25,33,35.77
1535,F4,232.0,1.0,47,35.77
1536,B-4,232.0,0.25,47,35.77
1537,B-2,232.0,0.75,39,35.77
1538,B-4,232.25,0.25,47,35.77
1539,A4,232.5,0.25,51,35.77
1540,B-4,232.75,0.25,49,35.77
1541,G2,232.75,0.25,31,35.77
1542,C5,233.0,0.25,52,35.77
1543,F2,233.0,0.75,39,35.77
1544,D5,233.25,0.25,44,35.77
1545,E-5,233.5,0.25,51,35.77
1546,C5,233.75,0.25,47,35.77
1547,E-2,233.75,0.25,34,35.77
1548,D5,234.0,0.25,51,35.77
1549,D2,234.0,0.75,39,35.77
1550,C5,234.25,0.25,42,35.77
1551,B-4,234.5,0.75,49,35.77
1552,C2,234.75,0.25,35,35.77
1553,B-1,235.0,0.75,39,35.77
1554,G4,235.25,0.25,41,35.77
1555,F4,235.5,0.5,48,35.77
1556,F4,235.75,0.25,34,35.77
1557,G#4,235.75,0.25,34,35.77
1558,F4,236.0,0.25,48,35.77
1559,G#4,236.0,2.0,39,35.77
1560,F4,236.0,2.0,39,35.77
1561,E-4,236.25,0.25,42,35.77
1562,D4,236.5,0.75,48,35.77
1563,C4,237.25,0.25,42,35.77
1564,B-3,237.5,0.5,47,35.77
1565,B-3,238.0,0.25,47,35.77
1566,E-4,238.0,2.0,39,35.77
1567,G4,238.0,2.0,39,35.77
1568,G3,238.25,0.25,41,35.77
1569,F3,238.5,0.75,47,35.77
1570,E-3,239.25,0.25,38,35.77
1571,D3,239.5,0.5,43,35.77
1572,D3,240.0,0.25,43,35.77
1573,D4,240.0,2.0,39,35.77
1574,F4,240.0,2.0,39,35.77
1575,C3,240.25,0.25,37,35.77
1576,B-2,240.5,0.75,44,35.77
1577,C3,241.25,0.25,36,35.77
1578,B-2,241.5,0.5,41,35.77
1579,B-2,242.0,0.5,41,35.77
1580,E-4,242.0,2.0,39,35.77
1581,C4,242.0,2.0,39,35.77
1582,D4,244.0,1.5,70,35.77
1583,B3,244.0,1.5,70,35.77
1584,B-3,245.5,0.5,56,35.77
1585,D4,245.5,0.5,56,35.77
1586,B-4,246.0,2.0,49,35.77
1587,F5,246.0,2.0,49,35.77
1588,G#3,246.0,0.5,62,35.77
1589,C4,246.0,0.5,62,35.77
1590,B3,247.0,0.5,62,35.77
1591,G#3,247.0,0.5,62,35.77
1592,G#5,248.0,2.0,47,35.77
1593,G#4,248.0,2.0,47,35.77
1594,C4,248.0,0.5,57,35.77
1595,G3,248.0,0.5,57,35.77
1596,C4,248.5,0.5,45,35.77
1597,F#3,248.5,0.5,45,35.77
1598,B3,249.0,0.5,54,35.77
1599,F3,249.0,0.5,54,35.77
1600,G3,249.0,0.5,54,35.77
1601,G3,249.5,0.5,36,35.77
1602,C4,249.5,0.5,36,35.77
1603,E-3,249.5,0.5,36,35.77
1604,G4,250.0,1.5,80,35.77
1605,G5,250.0,1.5,80,35.77
1606,D5,251.5,0.25,79,35.77
1607,G5,251.75,0.125,76,35.77
1608,G5,252.0,0.5,72,35.77
1609,G4,252.0,0.5,72,35.77
1610,C5,252.5,0.25,78,35.77
1611,F5,252.75,0.125,74,35.77
1612,F4,253.0,0.5,71,35.77
1613,F5,253.0,0.5,71,35.77
1614,C5,253.5,0.25,77,35.77
1615,E-5,253.75,0.125,73,35.77
1616,E-4,254.0,0.5,69,35.77
1617,E-5,254.0,0.5,69,35.77
1618,A4,254.5,0.25,74,35.77
1619,C3,254.5,0.25,50,35.77
1620,D5,254.75,0.125,71,35.77
1621,F#3,254.75,0.125,41,35.77
1622,F#3,255.0,0.25,48,35.77
1623,D4,255.0,0.5,66,35.77
1624,D5,255.0,0.5,66,35.77
1625,G4,255.0,0.5,66,35.77
1626,C5,255.5,0.5,64,35.77
1627,G5,255.5,0.25,64,35.77
1628,A2,255.5,0.25,47,35.77
1629,C6,255.75,0.125,57,35.77
1630,E-3,255.75,0.125,37,35.77
1631,F4,256.0,2.0,45,35.77
1632,E-3,256.0,0.25,48,35.77
1633,F2,256.5,0.25,48,35.77
1634,C3,256.75,0.125,39,35.77
1635,C3,257.0,0.25,48,35.77
1636,C#3,257.5,0.25,45,35.77
1637,E-4,258.0,2.0,45,35.77
1638,F#4,260.0,2.0,40,35.77
1639,A4,260.0,2.0,40,35.77
1640,E-5,260.0,2.0,40,35.77
1641,D4,262.5,0.25,50,35.77
1642,A4,262.75,0.125,41,35.77
1643,A4,263.0,0.25,48,35.77
1644,F#3,263.5,0.25,47,35.77
1645,F#4,263.5,1.5,40,35.77
1646,A4,263.5,1.5,40,35.77
1647,E-5,263.5,1.5,40,35.77
1648,C4,263.75,0.125,37,35.77
1649,C4,264.0,0.25,48,35.77
1650,D3,264.5,0.25,48,35.77
1651,A3,264.75,0.125,39,35.77
1652,A3,265.0,0.25,48,35.77
1653,B-4,265.0,0.25,45,35.77
1654,C#5,265.0,0.25,45,35.77
1655,F4,265.0,0.25,45,35.77
1656,C#5,265.5,2.0,55,35.77
1657,D2,265.5,0.25,48,35.77
1658,D3,265.75,0.125,39,35.77
1659,C5,267.5,2.0,50,35.77
1660,D5,269.5,2.0,45,35.77
1661,C5,269.5,2.0,45,35.77
1662,A5,269.5,2.0,45,35.77
1663,F#5,269.5,2.0,45,35.77
1664,F#3,270.5,0.25,50,35.77
1665,E-4,270.75,0.125,41,35.77
1666,E-4,271.0,0.25,48,35.77
1667,E-3,271.5,0.25,47,35.77
1668,B3,271.75,0.125,37,35.77
1669,B3,272.0,0.25,48,35.77
1670,B2,272.5,0.25,48,35.77
1671,F#3,272.75,0.125,39,35.77
1672,F#3,273.0,0.25,48,35.77
1673,F#2,273.5,0.25,48,35.77
1674,D5,273.5,2.0,45,35.77
1675,C5,273.5,2.0,45,35.77
1676,A5,273.5,2.0,45,35.77
1677,F#5,273.5,2.0,45,35.77
1678,E-3,273.75,0.125,39,35.77
1679,C5,275.5,2.0,55,35.77
1680,B4,277.5,2.0,50,35.77
1681,G#3,278.5,0.25,50,35.77
1682,F4,278.75,0.125,41,35.77
1683,F4,279.0,0.25,48,35.77
1684,F3,279.5,0.25,47,35.77
1685,B4,279.5,2.0,45,35.77
1686,E-5,279.5,2.0,45,35.77
1687,A5,279.5,2.0,45,35.77
1688,F#5,279.5,2.0,45,35.77
1689,D4,279.75,0.125,37,35.77
1690,D4,280.0,0.25,48,35.77
1691,D3,280.5,0.25,44,35.77
1692,F3,280.5,0.25,44,35.77
1693,F3,280.75,0.125,36,35.77
1694,G#3,280.75,0.125,36,35.77
1695,F3,281.0,0.25,44,35.77
1696,G#3,281.0,0.25,44,35.77
1697,F3,281.5,0.25,44,35.77
1698,D3,281.5,0.25,44,35.77
1699,F3,281.75,0.125,36,35.77
1700,G#3,281.75,0.125,36,35.77
1701,G#3,282.5,0.25,50,35.77
1702,F4,282.75,0.125,41,35.77
1703,F4,283.0,0.25,48,35.77
1704,F3,283.5,0.25,47,35.77
1705,B4,283.5,2.0,45,35.77
1706,E-5,283.5,2.0,45,35.77
1707,A5,283.5,2.0,45,35.77
1708,F#5,283.5,2.0,45,35.77
1709,D4,283.75,0.125,37,35.77
1710,D4,284.0,0.25,48,35.77
1711,D5,284.5,0.5,52,35.77
1712,E-5,285.0,0.5,58,35.77
1713,B4,285.5,2.0,55,35.77
1714,D5,285.5,0.5,52,35.77
1715,B-4,286.0,1.5,68,35.77
1716,G4,286.0,1.5,68,35.77
1717,C#4,286.0,1.5,68,35.77
1718,B-4,287.5,2.0,50,35.77
1719,G#4,287.5,0.5,43,35.77
1720,B3,287.5,0.5,43,35.77
1721,F4,287.5,0.5,43,35.77
1722,F#4,288.0,0.5,43,35.77
1723,B-3,288.0,0.5,43,35.77
1724,C#4,288.0,0.5,43,35.77
1725,G#3,288.5,0.5,42,35.77
1726,C#4,288.5,0.5,42,35.77
1727,F3,289.0,0.5,42,35.77
1728,C#4,289.0,0.5,42,35.77
1729,D5,289.5,2.0,45,35.77
1730,F5,289.5,2.0,45,35.77
1731,B-4,289.5,2.0,45,35.77
1732,G#5,289.5,2.0,45,35.77
1733,C#4,289.5,0.5,42,35.77
1734,F#3,289.5,0.5,42,35.77
1735,E-4,290.0,0.5,44,35.77
1736,B3,290.0,0.5,44,35.77
1737,B-3,290.5,0.5,37,35.77
1738,C#4,290.5,0.5,37,35.77
1739,B3,291.0,0.5,37,35.77
1740,G#3,291.0,0.5,37,35.77
1741,F#3,291.5,0.5,37,35.77
1742,B-3,291.5,0.5,37,35.77
1743,D5,292.0,0.5,45,35.77
1744,F5,292.0,0.5,45,35.77
1745,B-4,292.0,0.5,45,35.77
1746,G#5,292.0,0.5,45,35.77
1747,B-5,292.5,0.5,62,35.77
1748,F2,292.5,0.25,50,35.77
1749,C#3,292.75,0.125,41,35.77
1750,B5,293.0,0.5,69,35.77
1751,C#3,293.0,0.25,48,35.77
1752,B-5,293.5,0.5,62,35.77
1753,F3,293.5,0.25,47,35.77
1754,C#4,293.75,0.125,37,35.77
1755,D5,294.0,2.0,45,35.77
1756,B-4,294.0,2.0,45,35.77
1757,F5,294.0,2.0,45,35.77
1758,G#5,294.0,2.0,45,35.77
1759,F2,294.5,0.25,50,35.77
1760,D3,294.75,0.125,41,35.77
1761,D3,295.0,0.25,48,35.77
1762,F3,295.5,0.25,47,35.77
1763,D4,295.75,0.125,37,35.77
1764,E-2,296.5,0.25,50,35.77
1765,D5,296.5,0.5,45,35.77
1766,B-4,296.5,0.5,45,35.77
1767,F5,296.5,0.5,45,35.77
1768,G#5,296.5,0.5,45,35.77
1769,C3,296.75,0.125,41,35.77
1770,C3,297.0,0.25,47,35.77
1771,B-5,297.0,0.5,57,35.77
1772,F5,297.0,0.5,57,35.77
1773,E-3,297.5,0.25,46,35.77
1774,F#5,297.5,0.5,64,35.77
1775,B5,297.5,0.5,64,35.77
1776,C4,297.75,0.125,36,35.77
1777,B-5,298.0,0.5,57,35.77
1778,F5,298.0,0.5,57,35.77
1779,D2,298.5,0.25,48,35.77
1780,G5,298.5,1.5,67,35.77
1781,B-5,298.5,1.5,67,35.77
1782,E-5,298.5,1.5,67,35.77
1783,E-6,298.5,1.5,67,35.77
1784,B2,298.75,0.125,39,35.77
1785,B2,299.0,0.25,46,35.77
1786,D3,299.5,0.25,45,35.77
1787,B3,299.75,0.125,35,35.77
1788,F5,300.0,0.5,45,35.77
1789,G#5,300.0,0.25,62,35.77
1790,C#6,300.25,0.125,52,35.77
1791,C2,300.5,0.25,47,35.77
1792,F#5,300.5,0.5,56,35.77
1793,C#6,300.5,0.5,56,35.77
1794,C3,300.75,0.125,38,35.77
1795,F5,301.0,0.25,51,35.77
1796,B4,301.0,0.5,51,35.77
1797,C3,301.0,0.25,45,35.77
1798,B5,301.25,0.125,51,35.77
1799,C3,301.5,0.25,44,35.77
1800,B5,301.5,0.5,49,35.77
1801,G#5,301.5,0.5,49,35.77
1802,B4,301.5,0.5,49,35.77
1803,C4,301.75,0.125,34,35.77
1804,F#4,302.0,0.5,47,35.77
1805,B-5,302.0,0.5,47,35.77
1806,F#5,302.0,0.5,47,35.77
1807,C2,302.5,0.25,46,35.77
1808,G#5,302.5,0.5,46,35.77
1809,G#4,302.5,0.5,46,35.77
1810,C3,302.75,0.125,37,35.77
1811,C3,303.0,0.25,44,35.77
1812,F#4,303.0,0.5,42,35.77
1813,F#5,303.0,0.5,42,35.77
1814,C3,303.5,0.25,42,35.77
1815,F5,303.5,0.5,46,35.77
1816,F4,303.5,0.5,46,35.77
1817,C4,303.75,0.125,33,35.77
1818,F#4,304.0,0.5,43,35.77
1819,F#5,304.0,0.5,43,35.77
1820,C2,304.5,0.25,45,35.77
1821,B4,304.5,2.0,40,35.77
1822,G#4,304.5,2.0,40,35.77
1823,G#5,304.5,2.0,40,35.77
1824,C3,304.75,0.125,36,35.77
1825,C3,305.0,0.25,42,35.77
1826,C3,305.5,0.25,41,35.77
1827,C4,305.75,0.125,32,35.77
1828,C2,306.5,0.25,43,35.77
1829,G#5,306.5,2.0,40,35.77
1830,B4,306.5,2.0,40,35.77
1831,G#4,306.5,2.0,40,35.77
1832,C3,306.75,0.125,35,35.77
1833,C3,307.0,0.25,41,35.77
1834,C3,307.5,0.25,40,35.77
1835,C4,307.75,0.125,31,35.77
1836,C2,308.5,0.25,42,35.77
1837,G4,308.5,2.0,40,35.77
1838,C5,308.5,2.0,40,35.77
1839,G5,308.5,2.0,40,35.77
1840,C3,308.75,0.125,34,35.77
1841,C3,309.0,0.25,40,35.77
1842,C3,309.5,0.25,39,35.77
1843,C4,309.75,0.125,30,35.77
1844,C2,310.5,0.25,41,35.77
1845,F5,310.5,2.0,39,35.77
1846,F4,310.5,2.0,39,35.77
1847,G4,310.5,2.0,39,35.77
1848,B4,310.5,2.0,39,35.77
1849,C3,310.75,0.125,33,35.77
1850,C3,311.0,0.25,39,35.77
1851,C3,311.5,0.25,38,35.77
1852,C4,311.75,0.125,29,35.77
1853,C3,312.5,0.25,40,35.77
1854,E-4,312.5,2.0,38,35.77
1855,E-5,312.5,2.0,38,35.77
1856,G4,312.5,2.0,38,35.77
1857,C5,312.5,2.0,38,35.77
1858,C4,312.75,0.125,32,35.77
1859,C3,313.0,0.25,37,35.77
1860,C4,313.25,0.125,29,35.77
1861,B2,314.5,0.25,40,35.77
1862,D5,314.5,249/125,36,35.77
1863,B4,314.5,249/125,36,35.77
1864,F4,314.5,249/125,36,35.77
1865,G#4,314.5,249/125,36,35.77
1866,B3,314.75,0.125,32,35.77
1867,B2,315.0,0.25,37,35.77
1868,B3,315.25,0.125,29,35.77
1869,C3,316.5,0.25,40,35.77
1870,G4,316.5,2.0,36,35.77
1871,E-4,316.5,2.0,36,35.77
1872,C5,316.5,2.0,36,35.77
1873,C4,316.75,0.125,32,35.77
1874,C3,317.0,0.25,37,35.77
1875,C4,317.25,0.125,29,35.77
1876,C3,318.5,0.25,40,35.77
1877,F4,318.5,2.0,34,35.77
1878,D4,318.5,2.0,34,35.77
1879,B3,318.5,2.0,34,35.77
1880,G#4,318.5,2.0,34,35.77
1881,C4,318.75,0.125,32,35.77
1882,C3,319.0,0.25,37,35.77
1883,C4,319.25,0.125,29,35.77
1884,C4,320.5,1871/1000,32,35.77
1885,C3,320.5,0.25,40,35.77
1886,E-4,320.5,2.0,35,35.77
1887,G4,320.5,2.0,35,35.77
1888,C4,320.75,0.125,32,35.77
1889,C3,321.0,0.25,37,35.77
1890,C4,321.25,0.125,29,35.77
1891,C3,321.5,0.25,40,35.77
1892,C4,321.75,0.25,40,35.77
1893,C3,322.0,0.25,45,35.77
1894,C4,322.25,9/40,48,35.77
1895,C4,322.5,1871/1000,31,35.77
1896,C4,322.5,0.25,52,35.77
1897,G#4,322.5,2.0,34,35.77
1898,E-4,322.5,2.0,34,35.77
1899,E-4,322.75,0.25,56,35.77
1900,C4,323.0,0.25,59,35.77
1901,E-4,323.25,0.25,63,35.77
1902,C4,323.5,0.25,67,35.77
1903,E-4,323.75,9/40,70,35.77
1904,E-4,324.0,1.5,70,35.77
1905,C4,324.0,1.5,70,35.77
1906,E-4,324.5,2.0,33,35.77
1907,G#4,324.5,2.0,33,35.77
1908,B3,325.5,0.25,56,35.77
1909,D4,325.5,0.25,56,35.77
1910,C#4,325.75,0.125,54,35.77
1911,B-3,325.75,0.125,54,35.77
1912,C#4,326.0,0.5,62,35.77
1913,B-3,326.0,0.5,62,35.77
1914,D4,326.5,2.0,33,35.77
1915,G#4,326.5,2.0,33,35.77
1916,A3,326.5,0.25,56,35.77
1917,C4,326.5,0.25,56,35.77
1918,G#3,326.75,0.125,54,35.77
1919,B3,326.75,0.125,54,35.77
1920,B3,327.0,0.5,62,35.77
1921,G#3,327.0,0.5,62,35.77
1922,G3,327.5,0.25,56,35.77
1923,B-3,327.5,0.25,56,35.77
1924,A3,327.75,0.125,54,35.77
1925,F#3,327.75,0.125,54,35.77
1926,G#3,328.0,1.5,62,35.77
1927,F3,328.0,1.5,62,35.77
1928,G#4,328.5,2.0,33,35.77
1929,E-4,328.5,2.0,33,35.77
1930,E-3,329.5,0.5,42,35.77
1931,G3,329.5,0.5,42,35.77
1932,D3,330.0,0.5,44,35.77
1933,F3,330.0,0.5,44,35.77
1934,E-4,330.5,2.0,33,35.77
1935,G#4,330.5,2.0,33,35.77
1936,C3,330.5,0.5,46,35.77
1937,E-3,330.5,0.5,46,35.77
1938,B-2,331.0,0.5,49,35.77
1939,D3,331.0,0.5,49,35.77
1940,F3,331.5,0.5,50,35.77
1941,B-2,331.5,0.5,50,35.77
1942,D3,331.5,0.5,50,35.77
1943,E-2,332.0,0.25,56,35.77
1944,B-2,332.25,0.25,40,35.77
1945,G3,332.5,0.25,40,35.77
1946,E-4,332.5,1.5,33,35.77
1947,G#4,332.5,1.5,33,35.77
1948,B-2,332.75,0.25,40,35.77
1949,E-2,333.0,0.25,54,35.77
1950,B-2,333.25,0.25,44,35.77
1951,G3,333.5,0.25,43,35.77
1952,B-2,333.75,0.25,43,35.77
1953,G#3,334.0,0.25,50,35.77
1954,F2,334.0,0.25,58,35.77
1955,G#4,334.25,0.25,52,35.77
1956,B-2,334.25,0.25,49,35.77
1957,G#3,334.5,0.25,55,35.77
1958,G#3,334.5,0.25,49,35.77
1959,G#4,334.75,9/40,56,35.77
1960,B-2,334.75,0.25,47,35.77
1961,G#4,335.0,0.25,59,35.77
1962,F2,335.0,0.25,53,35.77
1963,G#5,335.25,0.25,61,35.77
1964,B-2,335.25,0.25,44,35.77
1965,G#4,335.5,0.25,64,35.77
1966,G#3,335.5,0.25,44,35.77
1967,G#5,335.75,0.25,66,35.77
1968,B-2,335.75,0.25,44,35.77
1969,G#4,336.0,0.25,69,35.77
1970,G2,336.0,0.25,53,35.77
1971,G#5,336.25,9/40,71,35.77
1972,B-2,336.25,0.25,43,35.77
1973,B-3,336.5,0.25,43,35.77
1974,G#5,336.5,1.5,76,35.77
1975,G#4,336.5,1.5,76,35.77
1976,B-2,336.75,0.25,43,35.77
1977,G2,337.0,0.25,53,35.77
1978,B-2,337.25,0.25,43,35.77
1979,B-3,337.5,0.25,43,35.77
1980,B-2,337.75,0.25,43,35.77
1981,G4,338.0,0.5,59,35.77
1982,D5,338.0,0.25,70,35.77
1983,G#2,338.0,0.25,53,35.77
1984,G5,338.25,0.125,67,35.77
1985,B-2,338.25,0.25,44,35.77
1986,G#3,338.5,0.25,44,35.77
1987,G5,338.5,0.5,64,35.77
1988,G4,338.5,0.5,64,35.77
1989,B-2,338.75,0.25,44,35.77
1990,C5,339.0,0.25,70,35.77
1991,F4,339.0,0.5,59,35.77
1992,B-1,339.0,0.25,53,35.77
1993,F5,339.25,0.125,67,35.77
1994,B-2,339.25,0.25,46,35.77
1995,F3,339.5,0.25,46,35.77
1996,F5,339.5,0.5,64,35.77
1997,F4,339.5,0.5,64,35.77
1998,B-2,339.75,0.25,46,35.77
1999,E-4,340.0,0.5,59,35.77
2000,B-4,340.0,0.25,70,35.77
2001,E-2,340.0,0.25,56,35.77
2002,E-5,340.25,0.125,67,35.77
2003,B-2,340.25,0.25,40,35.77
2004,G3,340.5,0.25,40,35.77
2005,B-4,340.5,1.5,59,35.77
2006,G#4,340.5,1.5,59,35.77
2007,E-4,340.5,1.0,64,35.77
2008,E-5,340.5,1.0,64,35.77
2009,B-2,340.75,0.25,40,35.77
2010,E-2,341.0,0.25,54,35.77
2011,B-2,341.25,0.25,44,35.77
2012,G#3,341.5,0.25,43,35.77
2013,D5,341.5,0.5,54,35.77
2014,D4,341.5,0.5,54,35.77
2015,B-2,341.75,0.25,43,35.77
2016,G2,342.0,0.25,58,35.77
2017,E-5,342.0,0.5,53,35.77
2018,B-4,342.0,0.5,53,35.77
2019,E-4,342.0,0.5,53,35.77
2020,E-3,342.25,0.25,49,35.77
2021,B-3,342.5,0.25,49,35.77
2022,F4,342.5,0.5,51,35.77
2023,B-4,342.5,0.5,51,35.77
2024,F5,342.5,0.5,51,35.77
2025,E-3,342.75,0.25,47,35.77
2026,G2,343.0,0.25,53,35.77
2027,B-4,343.0,0.5,54,35.77
2028,G4,343.0,0.5,54,35.77
2029,G5,343.0,0.5,54,35.77
2030,E-3,343.25,0.25,44,35.77
2031,B-3,343.5,0.25,44,35.77
2032,G#4,343.5,0.5,57,35.77
2033,G#5,343.5,0.5,57,35.77
2034,B-4,343.5,0.5,57,35.77
2035,E-3,343.75,0.25,44,35.77
2036,G2,344.0,0.25,53,35.77
2037,B-5,344.0,0.5,62,35.77
2038,B-4,344.0,0.5,62,35.77
2039,E-3,344.25,0.25,43,35.77
2040,B-3,344.5,0.25,43,35.77
2041,G4,344.5,0.5,70,35.77
2042,B-5,344.5,0.5,70,35.77
2043,B-4,344.5,0.5,70,35.77
2044,E-3,344.75,0.25,43,35.77
2045,G2,345.0,0.25,53,35.77
2046,E-3,345.25,0.25,43,35.77
2047,B-3,345.5,0.25,43,35.77
2048,B-5,345.5,0.5,75,35.77
2049,B-4,345.5,0.5,75,35.77
2050,E-3,345.75,0.25,43,35.77
2051,G#2,346.0,0.25,53,35.77
2052,E-3,346.25,0.25,44,35.77
2053,C4,346.5,0.25,44,35.77
2054,B-6,346.5,1.5,86,35.77
2055,B-5,346.5,1.5,86,35.77
2056,E-3,346.75,0.25,44,35.77
2057,A2,347.0,0.25,53,35.77
2058,F3,347.25,0.25,46,35.77
2059,C4,347.5,0.25,46,35.77
2060,F3,347.75,0.25,46,35.77
2061,B-2,348.0,0.5,52,35.77
2062,B-5,348.0,0.5,60,35.77
2063,B-4,348.0,0.5,60,35.77
2064,E-4,348.5,0.25,46,35.77
2065,D4,348.75,0.25,49,35.77
2066,C4,349.0,0.25,48,35.77
2067,B-3,349.25,0.25,47,35.77
2068,A3,349.5,0.25,46,35.77
2069,G#3,349.75,0.25,45,35.77
2070,G3,350.0,0.25,44,35.77
2071,B-5,350.0,1.5,60,35.77
2072,B-4,350.0,1.5,60,35.77
2073,F3,350.25,0.25,43,35.77
2074,E-3,350.5,0.25,42,35.77
2075,D3,350.75,0.25,41,35.77
2076,E-3,351.0,0.25,40,35.77
2077,F3,351.25,0.25,42,35.77
2078,G3,351.5,0.25,44,35.77
2079,G5,351.5,0.5,62,35.77
2080,G4,351.5,0.5,62,35.77
2081,G#3,351.75,0.25,46,35.77
2082,B-3,352.0,0.5,57,35.77
2083,F4,352.0,0.5,60,35.77
2084,F5,352.0,0.5,60,35.77
2085,F4,352.5,0.25,46,35.77
2086,D4,352.5,0.5,52,35.77
2087,D5,352.5,0.5,52,35.77
2088,E-4,352.75,0.25,53,35.77
2089,D4,353.0,0.25,52,35.77
2090,B4,353.0,0.5,52,35.77
2091,B3,353.0,0.5,52,35.77
2092,C4,353.25,0.25,51,35.77
2093,B3,353.5,0.188,50,35.77
2094,B-3,353.5,0.5,52,35.77
2095,B-4,353.5,0.5,52,35.77
2096,A3,353.75,0.188,49,35.77
2097,G3,354.0,0.188,47,35.77
2098,B-4,354.0,0.5,72,35.77
2099,B-3,354.0,0.5,72,35.77
2100,F3,354.25,0.188,48,35.77
2101,E-3,354.5,0.188,51,35.77
2102,D3,354.75,0.188,55,35.77
2103,C3,355.0,0.188,59,35.77
2104,B-5,355.0,0.5,75,35.77
2105,B-4,355.0,0.5,75,35.77
2106,B-2,355.25,0.188,62,35.77
2107,C3,355.5,0.188,66,35.77
2108,A2,355.5,0.188,66,35.77
2109,A2,355.75,0.188,64,35.77
2110,C3,355.75,0.188,64,35.77
2111,B-6,356.0,1.5,86,35.77
2112,B-5,356.0,1.5,86,35.77
2113,B-2,356.0,0.25,66,35.77
2114,G#2,356.0,0.25,66,35.77
2115,G2,357.0,0.25,69,35.77
2116,B-2,357.0,0.25,69,35.77
2117,B-5,357.5,0.5,60,35.77
2118,B-4,357.5,0.5,60,35.77
2119,F3,358.0,2.0,65,35.77
2120,B2,358.0,1.5,71,35.77
2121,B-2,359.5,0.25,71,35.77
2122,B-5,359.5,1.5,60,35.77
2123,B-4,359.5,1.5,60,35.77
2124,G#2,360.0,2.0,80,35.77
2125,F3,360.0,2.0,65,35.77
2126,G5,361.0,0.5,62,35.77
2127,G4,361.0,0.5,62,35.77
2128,E4,361.5,0.5,60,35.77
2129,E5,361.5,0.5,60,35.77
2130,F3,362.0,2.0,65,35.77
2131,B2,362.0,1.5,71,35.77
2132,F5,362.0,0.5,52,35.77
2133,F4,362.0,0.5,52,35.77
2134,C4,362.5,0.5,52,35.77
2135,C5,362.5,0.5,52,35.77
2136,E-4,363.0,0.5,52,35.77
2137,E-5,363.0,0.5,52,35.77
2138,B-2,363.5,0.25,71,35.77
2139,D5,363.5,0.25,56,35.77
2140,D4,363.5,0.25,56,35.77
2141,B-4,363.75,0.25,49,35.77
2142,A4,364.0,0.25,51,35.77
2143,A2,364.0,2.0,80,35.77
2144,F3,364.0,2.0,65,35.77
2145,B-4,364.25,0.25,53,35.77
2146,C5,364.5,0.25,50,35.77
2147,A4,364.5,0.25,50,35.77
2148,D5,364.75,0.25,52,35.77
2149,B-4,364.75,0.25,52,35.77
2150,E-5,365.0,0.25,54,35.77
2151,C5,365.0,0.25,54,35.77
2152,D5,365.25,0.25,56,35.77
2153,F5,365.25,0.25,56,35.77
2154,G5,365.5,1.0,58,35.77
2155,E-5,365.5,1.0,58,35.77
2156,F3,366.0,0.5,44,35.77
2157,B-2,366.0,0.5,44,35.77
2158,G#5,366.5,0.25,57,35.77
2159,C6,366.5,0.25,57,35.77
2160,B-5,366.75,0.25,54,35.77
2161,G5,366.75,0.25,54,35.77
2162,F5,367.0,0.25,52,35.77
2163,G#5,367.0,0.25,52,35.77
2164,E-5,367.25,0.25,49,35.77
2165,G5,367.25,0.25,49,35.77
2166,F5,367.5,0.5,62,35.77
2167,D5,367.5,0.5,62,35.77
2168,G#5,368.0,0.25,62,35.77
2169,B4,368.0,0.25,62,35.77
2170,B-2,368.0,0.5,44,35.77
2171,G3,368.0,0.5,44,35.77
2172,C5,368.25,0.25,62,35.77
2173,G5,368.25,0.25,62,35.77
2174,G4,368.5,0.25,62,35.77
2175,F5,368.5,0.25,62,35.77
2176,F#5,368.75,0.25,61,35.77
2177,E-5,368.75,0.25,61,35.77
2178,D5,369.0,0.188,60,35.77
2179,G5,369.0,0.188,60,35.77
2180,F5,369.25,0.188,56,35.77
2181,D5,369.25,0.188,56,35.77
2182,A5,369.25,0.188,56,35.77
2183,G5,369.5,0.188,54,35.77
2184,D5,369.5,0.188,54,35.77
2185,B5,369.5,0.188,54,35.77
2186,G5,369.75,0.188,58,35.77
2187,D5,369.75,0.188,58,35.77
2188,B5,369.75,0.188,58,35.77
2189,E-5,370.0,0.188,61,35.77
2190,G5,370.0,0.188,61,35.77
2191,C6,370.0,0.188,61,35.77
2192,G#3,370.0,0.5,44,35.77
2193,B-2,370.0,0.5,44,35.77
2194,F5,370.25,0.188,64,35.77
2195,D6,370.25,0.188,64,35.77
2196,B5,370.25,0.188,64,35.77
2197,E-6,370.5,0.188,67,35.77
2198,C6,370.5,0.188,67,35.77
2199,G5,370.5,0.188,67,35.77
2200,G5,370.75,0.188,71,35.77
2201,E6,370.75,0.188,71,35.77
2202,C6,370.75,0.188,71,35.77
2203,F6,371.0,0.188,73,35.77
2204,C6,371.0,0.188,73,35.77
2205,F5,371.0,0.188,73,35.77
2206,G3,371.0,0.5,44,35.77
2207,B-2,371.0,0.5,44,35.77
2208,F6,371.25,0.188,76,35.77
2209,C6,371.25,0.188,76,35.77
2210,F5,371.25,0.188,76,35.77
2211,B-5,371.5,0.25,84,35.77
2212,D6,371.5,0.25,84,35.77
2213,F5,371.5,0.25,84,35.77
2214,F3,372.0,0.5,44,35.77
2215,B-2,372.0,0.5,44,35.77
2216,E-6,372.5,0.25,92,35.77
2217,B-5,372.5,0.25,92,35.77
2218,E-5,372.5,0.25,92,35.77
2219,B-2,373.0,0.5,44,35.77
2220,G3,373.0,0.5,44,35.77
2221,G#4,373.5,1.5,84,35.77
2222,E-4,373.5,2.0,65,35.77
2223,B-3,374.0,0.5,44,35.77
2224,F4,374.0,0.5,44,35.77
2225,B-4,375.0,0.25,85,35.77
2226,B4,375.5,2.0,93,35.77
2227,E-4,375.5,0.5,65,35.77
2228,E-4,376.0,0.25,61,35.77
2229,B-3,376.0,0.5,44,35.77
2230,G4,376.0,0.5,44,35.77
2231,D4,376.25,0.25,52,35.77
2232,E-4,376.5,0.25,61,35.77
2233,D4,376.75,0.25,54,35.77
2234,E-4,377.0,0.25,61,35.77
2235,D4,377.25,0.25,54,35.77
2236,G#4,377.5,1.5,84,35.77
2237,E-4,377.5,2.0,65,35.77
2238,B-3,378.0,0.5,44,35.77
2239,G#4,378.0,0.5,44,35.77
2240,B-4,379.0,0.25,85,35.77
2241,B-3,379.0,0.5,44,35.77
2242,G4,379.0,0.5,44,35.77
2243,C5,379.5,2.0,93,35.77
2244,E-4,379.5,0.5,65,35.77
2245,E-4,380.0,0.25,61,35.77
2246,B-3,380.0,0.5,44,35.77
2247,G#4,380.0,0.5,44,35.77
2248,D4,380.25,0.25,52,35.77
2249,E-4,380.5,0.25,61,35.77
2250,D4,380.75,0.25,54,35.77
2251,E-4,381.0,0.25,61,35.77
2252,B-3,381.0,0.5,48,35.77
2253,D4,381.25,0.25,54,35.77
2254,B4,381.5,0.5,70,35.77
2255,C4,381.5,0.25,38,35.77
2256,D4,381.75,0.25,40,35.77
2257,E-4,382.0,0.25,51,35.77
2258,E-4,382.0,0.25,42,35.77
2259,D4,382.25,0.25,44,35.77
2260,F4,382.25,0.25,44,35.77
2261,E-4,382.5,0.25,51,35.77
2262,G4,382.5,0.25,46,35.77
2263,D4,382.75,0.25,43,35.77
2264,G#4,382.75,0.25,48,35.77
2265,E-4,383.0,0.25,51,35.77
2266,B-4,383.0,0.5,50,35.77
2267,D4,383.25,0.25,45,35.77
2268,B-4,383.5,0.5,70,35.77
2269,C5,383.5,0.25,38,35.77
2270,D5,383.75,0.25,40,35.77
2271,F4,384.0,0.25,51,35.77
2272,E-5,384.0,0.25,42,35.77
2273,E4,384.25,0.25,44,35.77
2274,F5,384.25,0.25,44,35.77
2275,F4,384.5,0.25,51,35.77
2276,G5,384.5,0.25,46,35.77
2277,E4,384.75,0.25,43,35.77
2278,G#5,384.75,0.25,48,35.77
2279,F4,385.0,0.25,51,35.77
2280,B-5,385.0,0.5,50,35.77
2281,E4,385.25,0.25,45,35.77
2282,B-4,385.5,0.25,70,35.77
2283,G#5,385.5,0.5,47,35.77
2284,G4,386.0,0.25,51,35.77
2285,G5,386.0,0.5,56,35.77
2286,F4,386.25,0.25,44,35.77
2287,B-4,386.5,0.25,70,35.77
2288,F#5,386.5,0.5,46,35.77
2289,F4,387.0,0.25,51,35.77
2290,F5,387.0,0.5,55,35.77
2291,E-4,387.25,0.25,44,35.77
2292,B-4,387.5,0.25,70,35.77
2293,B-4,387.5,0.5,47,35.77
2294,E-4,388.0,0.25,51,35.77
2295,E-4,388.0,2.0,39,35.77
2296,D4,388.25,0.25,44,35.77
2297,B-4,388.5,0.25,70,35.77
2298,F#4,388.5,1.0,39,35.77
2299,A4,388.5,1.0,39,35.77
2300,F4,389.0,0.25,51,35.77
2301,E-4,389.25,0.25,44,35.77
2302,B5,389.5,0.5,70,35.77
2303,G4,389.5,0.5,39,35.77
2304,B-4,389.5,0.5,39,35.77
2305,E-5,390.0,0.25,51,35.77
2306,E-4,390.0,2.0,39,35.77
2307,D5,390.25,0.25,44,35.77
2308,E-5,390.5,0.25,51,35.77
2309,D5,390.5,1.0,39,35.77
2310,B4,390.5,1.0,39,35.77
2311,D5,390.75,0.25,43,35.77
2312,E-5,391.0,0.25,51,35.77
2313,D5,391.25,0.25,45,35.77
2314,B-5,391.5,0.5,70,35.77
2315,B-4,391.5,0.5,39,35.77
2316,F5,392.0,0.25,51,35.77
2317,E-4,392.0,2.0,39,35.77
2318,E5,392.25,0.25,44,35.77
2319,F5,392.5,0.25,51,35.77
2320,G4,392.5,0.5,36,35.77
2321,B-4,392.5,0.5,36,35.77
2322,E5,392.75,0.25,43,35.77
2323,F5,393.0,0.25,51,35.77
2324,C5,393.0,0.5,36,35.77
2325,G#4,393.0,0.5,36,35.77
2326,E5,393.25,0.25,45,35.77
2327,B-5,393.5,0.25,70,35.77
2328,G4,393.5,0.5,34,35.77
2329,B-4,393.5,0.5,34,35.77
2330,G5,394.0,0.25,51,35.77
2331,G4,394.0,0.5,39,35.77
2332,B-3,394.0,2.0,39,35.77
2333,F5,394.25,0.25,44,35.77
2334,B-5,394.5,0.25,70,35.77
2335,F4,394.5,0.5,36,35.77
2336,G#4,394.5,0.5,36,35.77
2337,F5,395.0,0.25,51,35.77
2338,G4,395.0,0.5,36,35.77
2339,E-4,395.0,0.5,36,35.77
2340,E5,395.25,0.25,44,35.77
2341,B-5,395.5,0.25,70,35.77
2342,D4,395.5,0.5,34,35.77
2343,F4,395.5,0.5,34,35.77
2344,G5,396.0,0.25,51,35.77
2345,E-3,396.0,2.0,35,35.77
2346,F5,396.25,0.25,44,35.77
2347,B-5,396.5,0.5,64,35.77
2348,F#3,396.5,1.0,46,35.77
2349,A3,396.5,1.0,46,35.77
2350,G#5,397.0,0.5,64,35.77
2351,F5,397.0,0.5,64,35.77
2352,B-4,397.5,1.0,45,35.77
2353,G#5,397.5,0.5,64,35.77
2354,F5,397.5,0.5,64,35.77
2355,B-3,397.5,0.5,35,35.77
2356,G3,397.5,0.5,35,35.77
2357,E-3,398.0,2.0,35,35.77
2358,G5,398.0,0.5,60,35.77
2359,E-5,398.0,0.5,60,35.77
2360,F5,398.5,0.5,60,35.77
2361,D5,398.5,0.5,60,35.77
2362,B3,398.5,1.0,44,35.77
2363,D4,398.5,1.0,44,35.77
2364,F6,399.0,0.5,64,35.77
2365,G#6,399.0,0.5,64,35.77
2366,B-5,399.5,1.0,45,35.77
2367,B-3,399.5,0.5,35,35.77
2368,F6,399.5,0.5,64,35.77
2369,G#6,399.5,0.5,64,35.77
2370,E-6,400.0,0.5,60,35.77
2371,G6,400.0,0.5,60,35.77
2372,E-3,400.0,1.0,31,35.77
2373,G3,400.0,1.0,31,35.77
2374,B-3,400.0,1.0,31,35.77
2375,F6,400.5,0.5,60,35.77
2376,D6,400.5,0.5,60,35.77
2377,C7,401.0,0.5,77,35.77
2378,D6,401.0,0.5,64,35.77
2379,F6,401.0,0.5,64,35.77
2380,G#3,401.0,0.5,31,35.77
2381,G#2,401.0,0.5,31,35.77
2382,E-3,401.0,0.5,31,35.77
2383,C7,401.5,0.5,77,35.77
2384,E-6,401.5,0.5,65,35.77
2385,B-5,401.5,0.5,65,35.77
2386,E-2,401.5,0.5,31,35.77
2387,E-3,401.5,0.5,31,35.77
2388,B-1,402.0,0.5,35,35.77
2389,B-6,402.0,0.5,67,35.77
2390,E-6,402.0,0.5,67,35.77
2391,B-5,402.0,0.5,67,35.77
2392,B-2,402.5,0.5,35,35.77
2393,E-6,402.5,0.5,69,35.77
2394,C6,402.5,0.5,69,35.77
2395,B-1,403.0,0.5,35,35.77
2396,G#6,403.0,0.5,71,35.77
2397,F6,403.0,0.5,71,35.77
2398,D6,403.0,0.5,71,35.77
2399,B-2,403.5,0.5,35,35.77
2400,G5,403.5,2.0,79,35.77
2401,G6,403.5,2.0,79,35.77
2402,B-5,403.75,0.25,49,35.77
2403,C6,404.0,0.25,55,35.77
2404,E-3,404.0,0.75,43,35.77
2405,E-2,404.0,0.75,43,35.77
2406,B-5,404.25,0.25,50,35.77
2407,C6,404.5,0.25,55,35.77
2408,B-5,404.75,0.25,47,35.77
2409,B2,404.75,0.25,39,35.77
2410,C6,405.0,0.25,55,35.77
2411,B-2,405.0,0.5,45,35.77
2412,B-5,405.25,0.25,48,35.77
2413,E-2,405.5,0.5,38,35.77
2414,F5,405.5,2.0,75,35.77
2415,F6,405.5,2.0,75,35.77
2416,G#5,405.75,0.25,46,35.77
2417,B-5,406.0,0.25,54,35.77
2418,B-1,406.0,0.5,55,35.77
2419,G#5,406.25,0.25,50,35.77
2420,B-5,406.5,0.25,53,35.77
2421,G#3,406.5,0.25,44,35.77
2422,G#5,406.75,0.25,47,35.77
2423,G3,406.75,0.25,36,35.77
2424,B-5,407.0,0.25,53,35.77
2425,F3,407.0,0.25,43,35.77
2426,G#5,407.25,0.25,48,35.77
2427,E-3,407.25,0.25,39,35.77
2428,E-6,407.5,1.0,70,35.77
2429,G5,407.5,0.25,53,35.77
2430,D3,407.5,0.25,39,35.77
2431,B-2,407.5,0.5,39,35.77
2432,E-5,407.75,0.25,48,35.77
2433,B-3,407.75,0.25,39,35.77
2434,F5,408.0,0.25,53,35.77
2435,E-3,408.0,0.75,43,35.77
2436,E-5,408.25,0.25,48,35.77
2437,C6,408.5,0.5,68,35.77
2438,E-5,408.75,0.25,48,35.77
2439,B3,408.75,0.25,39,35.77
2440,B-5,409.0,0.5,60,35.77
2441,B-3,409.0,0.5,45,35.77
2442,E-5,409.25,0.25,48,35.77
2443,B-5,409.5,0.5,68,35.77
2444,E-5,409.5,0.25,53,35.77
2445,E-3,409.5,0.5,38,35.77
2446,B-4,409.75,0.25,48,35.77
2447,D5,410.0,0.25,53,35.77
2448,G#5,410.0,0.5,58,35.77
2449,B-2,410.0,0.5,55,35.77
2450,B-4,410.25,0.25,48,35.77
2451,E-5,410.5,0.25,53,35.77
2452,G5,410.5,0.5,66,35.77
2453,G#4,410.5,0.25,44,35.77
2454,B-4,410.75,0.25,48,35.77
2455,G4,410.75,0.25,36,35.77
2456,G#4,411.0,0.25,53,35.77
2457,F5,411.0,0.5,57,35.77
2458,F4,411.0,0.25,43,35.77
2459,B-4,411.25,0.25,48,35.77
2460,E-4,411.25,0.25,39,35.77
2461,G4,411.5,2.0,72,35.77
2462,G5,411.5,2.0,72,35.77
2463,B-3,411.5,0.25,39,35.77
2464,D4,411.5,0.25,39,35.77
2465,B-4,411.75,0.25,44,35.77
2466,F4,411.75,0.25,39,35.77
2467,C5,412.0,0.25,49,35.77
2468,E-4,412.0,0.75,39,35.77
2469,G4,412.0,0.75,39,35.77
2470,B-4,412.25,0.25,45,35.77
2471,C5,412.5,0.25,49,35.77
2472,B-4,412.75,0.25,42,35.77
2473,F4,412.75,0.25,33,35.77
2474,C5,413.0,0.25,49,35.77
2475,E-4,413.0,0.75,39,35.77
2476,B-4,413.25,0.25,43,35.77
2477,F4,413.5,2.0,68,35.77
2478,F5,413.5,2.0,68,35.77
2479,G#4,413.75,0.25,41,35.77
2480,C4,413.75,0.25,34,35.77
2481,B-4,414.0,0.25,48,35.77
2482,B-3,414.0,0.75,39,35.77
2483,G#4,414.25,0.25,45,35.77
2484,B-4,414.5,0.25,47,35.77
2485,G#4,414.75,0.25,42,35.77
2486,G#3,414.75,0.25,35,35.77
2487,B-4,415.0,0.25,47,35.77
2488,G3,415.0,0.75,39,35.77
2489,G#4,415.25,0.25,43,35.77
2490,G4,415.5,0.25,47,35.77
2491,E-5,415.5,1.0,63,35.77
2492,E-4,415.75,0.25,43,35.77
2493,F3,415.75,0.25,33,35.77
2494,F4,416.0,0.25,47,35.77
2495,E-3,416.0,0.75,39,35.77
2496,E-4,416.25,0.25,43,35.77
2497,C4,416.5,0.25,47,35.77
2498,C5,416.5,0.5,56,35.77
2499,G#4,416.5,0.5,56,35.77
2500,E-4,416.75,0.25,43,35.77
2501,C3,416.75,0.25,31,35.77
2502,B-3,417.0,0.25,47,35.77
2503,B-2,417.0,0.75,39,35.77
2504,G4,417.0,0.5,50,35.77
2505,B-4,417.0,0.5,50,35.77
2506,E-4,417.25,0.25,43,35.77
2507,G4,417.5,0.25,47,35.77
2508,B-4,417.5,0.5,61,35.77
2509,B-3,417.75,0.25,43,35.77
2510,G#2,417.75,0.25,34,35.77
2511,G#4,418.0,0.5,52,35.77
2512,F4,418.0,0.25,47,35.77
2513,G2,418.0,0.75,39,35.77
2514,G#3,418.25,0.25,43,35.77
2515,G4,418.5,0.5,59,35.77
2516,E-4,418.5,0.25,47,35.77
2517,G3,418.75,0.25,43,35.77
2518,F2,418.75,0.25,35,35.77
2519,E-2,419.0,0.75,39,35.77
2520,F4,419.0,0.5,51,35.77
2521,D4,419.0,0.5,51,35.77
2522,F3,419.25,0.25,43,35.77
2523,E-4,419.5,1.25,57,35.77
2524,B3,419.75,0.75,46,35.77
2525,C#5,419.75,0.25,34,35.77
2526,B-4,419.75,0.25,34,35.77
2527,G3,420.0,0.5,55,35.77
2528,B-4,420.0,2.0,39,35.77
2529,C#5,420.0,2.0,39,35.77
2530,B-3,420.771,0.25,47,35.77
2531,G3,421.0,0.25,47,35.77
2532,E-4,421.25,0.25,47,35.77
2533,B-3,421.5,1.0,47,35.77
2534,E-4,421.5,0.25,47,35.77
2535,E-4,421.75,0.25,47,35.77
2536,D4,422.0,0.25,51,35.77
2537,G#4,422.0,2.0,39,35.77
2538,C5,422.0,2.0,39,35.77
2539,E-4,422.25,0.25,49,35.77
2540,F4,422.5,0.25,52,35.77
2541,G4,422.75,0.25,44,35.77
2542,G#4,423.0,0.25,51,35.77
2543,F4,423.25,0.25,47,35.77
2544,E-5,423.5,1.25,57,35.77
2545,B4,423.75,0.75,46,35.77
2546,G4,424.0,0.5,55,35.77
2547,B-4,424.0,2.0,39,35.77
2548,G4,424.0,2.0,39,35.77
2549,B-4,424.771,0.25,47,35.77
2550,G4,425.0,0.25,47,35.77
2551,E-5,425.25,0.25,47,35.77
2552,B-4,425.5,1.0,47,35.77
2553,E-5,425.5,0.25,47,35.77
2554,E-5,425.75,0.25,47,35.77
2555,D5,426.0,0.25,51,35.77
2556,F4,426.0,2.0,39,35.77
2557,G#4,426.0,2.0,39,35.77
2558,E-5,426.25,0.25,49,35.77
2559,F5,426.5,0.25,52,35.77
2560,G5,426.75,0.25,44,35.77
2561,G#5,427.0,0.25,51,35.77
2562,F5,427.25,0.25,47,35.77
2563,G5,427.5,0.25,51,35.77
2564,F5,427.75,0.25,42,35.77
2565,E-5,428.0,0.75,49,35.77
2566,G4,428.0,1.5,77,35.77
2567,E-4,428.0,1.5,77,35.77
2568,C5,428.75,0.25,41,35.77
2569,B-4,429.0,0.5,48,35.77
2570,B-4,429.5,0.25,48,35.77
2571,E-4,429.5,0.25,56,35.77
2572,A4,429.5,0.25,56,35.77
2573,G#4,429.75,0.25,42,35.77
2574,F4,429.75,0.125,54,35.77
2575,C#4,429.75,0.125,54,35.77
2576,G4,430.0,0.75,48,35.77
2577,F4,430.0,0.5,62,35.77
2578,C#4,430.0,0.5,62,35.77
2579,C#4,430.5,0.25,56,35.77
2580,G4,430.5,0.25,56,35.77
2581,F4,430.75,0.25,42,35.77
2582,E-4,430.75,0.125,54,35.77
2583,C4,430.75,0.125,54,35.77
2584,E-4,431.0,0.5,47,35.77
2585,E-4,431.0,0.5,62,35.77
2586,C4,431.0,0.5,62,35.77
2587,E-4,431.5,0.25,47,35.77
2588,F4,431.5,0.25,52,35.77
2589,C4,431.5,0.25,52,35.77
2590,C4,431.75,0.25,41,35.77
2591,B-3,431.75,0.125,54,35.77
2592,C#4,431.75,0.125,54,35.77
2593,B-3,432.0,0.75,47,35.77
2594,C#4,432.0,0.5,62,35.77
2595,B-3,432.0,0.5,62,35.77
2596,E4,432.5,0.25,56,35.77
2597,B-3,432.5,0.25,56,35.77
2598,G#3,432.75,0.25,38,35.77
2599,C4,432.75,0.125,54,35.77
2600,G#3,432.75,0.125,54,35.77
2601,G3,433.0,0.5,43,35.77
2602,G#3,433.0,62/125,62,35.77
2603,C4,433.0,62/125,62,35.77
2604,G3,433.5,0.25,43,35.77
2605,G#3,433.5,62/125,62,35.77
2606,B3,433.5,62/125,62,35.77
2607,F3,433.75,0.25,37,35.77
2608,E-3,434.0,0.75,44,35.77
2609,B-3,434.0,1.5,62,35.77
2610,G3,434.0,1.5,62,35.77
2611,F3,434.75,0.25,36,35.77
2612,E-3,435.0,0.5,41,35.77
2613,E-3,435.5,0.5,41,35.77
2614,F3,435.5,0.5,42,35.77
2615,G#3,435.5,0.5,42,35.77
2616,G3,436.0,0.5,44,35.77
2617,E3,436.0,0.5,44,35.77
2618,D3,436.5,0.5,46,35.77
2619,F3,436.5,0.5,46,35.77
2620,E3,437.0,0.5,49,35.77
2621,C3,437.0,0.5,49,35.77
2622,C3,437.5,0.5,49,35.77
2623,G3,437.5,0.5,49,35.77
2624,B-3,437.5,0.5,49,35.77
2625,E3,437.5,0.5,49,35.77
2626,F2,438.0,0.25,56,35.77
2627,C3,438.25,0.25,40,35.77
2628,G#3,438.5,0.25,40,35.77
2629,C3,438.75,0.25,40,35.77
2630,F2,439.0,0.25,54,35.77
2631,C3,439.25,0.25,44,35.77
2632,G#3,439.5,0.25,43,35.77
2633,E-5,439.5,2.0,49,35.77
2634,B-5,439.5,2.0,49,35.77
2635,C3,439.75,0.25,43,35.77
2636,G2,440.0,0.25,58,35.77
2637,C3,440.25,0.25,49,35.77
2638,B-3,440.5,0.25,49,35.77
2639,C3,440.75,0.25,47,35.77
2640,G2,441.0,0.25,53,35.77
2641,C3,441.25,0.25,44,35.77
2642,B-3,441.5,0.25,44,35.77
2643,C#6,441.5,2.0,50,35.77
2644,C#5,441.5,2.0,50,35.77
2645,C3,441.75,0.25,44,35.77
2646,G#2,442.0,0.25,53,35.77
2647,C3,442.25,0.25,43,35.77
2648,C4,442.5,0.25,43,35.77
2649,C3,442.75,0.25,43,35.77
2650,G#2,443.0,0.25,53,35.77
2651,C3,443.25,0.25,43,35.77
2652,C4,443.5,0.25,43,35.77
2653,C6,443.5,1.5,77,35.77
2654,C5,443.5,1.5,77,35.77
2655,C3,443.75,0.25,43,35.77
2656,B-2,444.0,0.25,53,35.77
2657,C3,444.25,0.25,44,35.77
2658,B-3,444.5,0.25,44,35.77
2659,C3,444.75,0.25,44,35.77
2660,C2,445.0,0.25,53,35.77
2661,C5,445.0,0.25,64,35.77
2662,F5,445.0,0.25,64,35.77
2663,C3,445.25,0.25,46,35.77
2664,C#5,445.25,0.125,62,35.77
2665,B-5,445.25,0.125,62,35.77
2666,G3,445.5,0.25,46,35.77
2667,B-5,445.5,0.5,64,35.77
2668,C#5,445.5,0.5,64,35.77
2669,C3,445.75,0.25,46,35.77
2670,F2,446.0,0.25,56,35.77
2671,B-4,446.0,0.25,64,35.77
2672,E-5,446.0,0.25,64,35.77
2673,C3,446.25,0.25,40,35.77
2674,C5,446.25,0.125,62,35.77
2675,G#5,446.25,0.125,62,35.77
2676,G#3,446.5,0.25,40,35.77
2677,G#5,446.5,0.5,64,35.77
2678,C5,446.5,0.5,64,35.77
2679,C3,446.75,0.25,40,35.77
2680,F2,447.0,0.25,54,35.77
2681,G#4,447.0,0.25,64,35.77
2682,C#5,447.0,0.25,64,35.77
2683,C3,447.25,0.25,44,35.77
2684,G5,447.25,0.125,62,35.77
2685,B-4,447.25,0.125,62,35.77
2686,G#3,447.5,0.25,43,35.77
2687,G5,447.5,0.5,64,35.77
2688,B-4,447.5,0.5,64,35.77
2689,C3,447.75,0.25,43,35.77
2690,G2,448.0,0.25,58,35.77
2691,C5,448.0,0.25,64,35.77
2692,G4,448.0,0.25,64,35.77
2693,C3,448.25,0.25,49,35.77
2694,G#4,448.25,0.125,62,35.77
2695,F5,448.25,0.125,62,35.77
2696,B-3,448.5,0.25,49,35.77
2697,G#4,448.5,62/125,64,35.77
2698,F5,448.5,62/125,64,35.77
2699,C3,448.75,0.25,47,35.77
2700,G2,449.0,0.25,53,35.77
2701,F5,449.0,62/125,64,35.77
2702,F4,449.0,62/125,64,35.77
2703,C3,449.25,0.25,44,35.77
2704,B-3,449.5,0.25,44,35.77
2705,F5,449.5,1.0,64,35.77
2706,F4,449.5,1.0,64,35.77
2707,C3,449.75,0.25,44,35.77
2708,G#2,450.0,0.25,53,35.77
2709,C3,450.25,0.25,43,35.77
2710,C4,450.5,0.25,43,35.77
2711,E4,450.5,0.5,54,35.77
2712,E5,450.5,0.5,54,35.77
2713,C3,450.75,0.25,43,35.77
2714,F2,451.0,0.25,53,35.77
2715,C5,451.0,0.5,53,35.77
2716,F4,451.0,0.5,53,35.77
2717,F5,451.0,0.5,53,35.77
2718,C3,451.25,0.25,43,35.77
2719,G#3,451.5,0.25,43,35.77
2720,C5,451.5,0.5,51,35.77
2721,G4,451.5,0.5,51,35.77
2722,G5,451.5,0.5,51,35.77
2723,C3,451.75,0.25,43,35.77
2724,D2,452.0,0.25,53,35.77
2725,G#5,452.0,0.5,54,35.77
2726,C5,452.0,0.5,54,35.77
2727,G#4,452.0,0.5,54,35.77
2728,B-2,452.25,0.25,44,35.77
2729,F3,452.5,0.25,44,35.77
2730,B-4,452.5,0.5,57,35.77
2731,C5,452.5,0.5,57,35.77
2732,B-5,452.5,0.5,57,35.77
2733,B-2,452.75,0.25,44,35.77
2734,D2,453.0,0.25,53,35.77
2735,G4,453.0,0.5,60,35.77
2736,C5,453.0,0.5,60,35.77
2737,E5,453.0,0.5,60,35.77
2738,G5,453.0,0.5,60,35.77
2739,B-2,453.25,0.25,46,35.77
2740,F3,453.5,0.25,46,35.77
2741,F5,453.5,0.5,69,35.77
2742,G#4,453.5,0.5,69,35.77
2743,G#5,453.5,0.5,69,35.77
2744,C5,453.5,0.5,69,35.77
2745,B-2,453.75,0.25,46,35.77
2746,E-2,454.0,0.25,56,35.77
2747,B-2,454.25,0.25,40,35.77
2748,F#3,454.5,0.25,40,35.77
2749,C5,454.5,0.5,82,35.77
2750,C6,454.5,0.5,82,35.77
2751,B-2,454.75,0.25,40,35.77
2752,E-2,455.0,0.25,54,35.77
2753,B-2,455.25,0.25,44,35.77
2754,F#3,455.5,0.25,43,35.77
2755,C7,455.5,1.5,94,35.77
2756,C6,455.5,1.5,94,35.77
2757,B-2,455.75,0.25,43,35.77
2758,F2,456.0,0.25,58,35.77
2759,B-2,456.25,0.25,49,35.77
2760,G#3,456.5,0.25,49,35.77
2761,B-2,456.75,0.25,47,35.77
2762,F2,457.0,0.25,53,35.77
2763,C6,457.0,0.5,60,35.77
2764,C5,457.0,0.5,60,35.77
2765,B-2,457.25,0.25,44,35.77
2766,G#3,457.5,0.25,44,35.77
2767,B-2,457.75,0.25,44,35.77
2768,F#2,458.0,0.25,53,35.77
2769,B-2,458.25,0.25,43,35.77
2770,B-3,458.5,0.25,43,35.77
2771,B-2,458.75,0.25,43,35.77
2772,F#2,459.0,0.25,53,35.77
2773,C6,459.0,1.5,60,35.77
2774,C5,459.0,1.5,60,35.77
2775,B-2,459.25,0.25,43,35.77
2776,B-3,459.5,0.25,43,35.77
2777,B-2,459.75,0.25,43,35.77
2778,G#2,460.0,0.25,53,35.77
2779,B-2,460.25,0.25,44,35.77
2780,G#3,460.5,0.25,44,35.77
2781,G#5,460.5,0.5,62,35.77
2782,G#4,460.5,0.5,62,35.77
2783,B-2,460.75,0.25,44,35.77
2784,B-1,461.0,0.25,53,35.77
2785,G4,461.0,0.5,60,35.77
2786,G5,461.0,0.5,60,35.77
2787,B-2,461.25,0.25,46,35.77
2788,F3,461.5,0.25,46,35.77
2789,E5,461.5,0.5,52,35.77
2790,E4,461.5,0.5,52,35.77
2791,B-2,461.75,0.25,46,35.77
2792,E-2,462.0,0.25,56,35.77
2793,C#4,462.0,0.5,52,35.77
2794,C#5,462.0,0.5,52,35.77
2795,B-2,462.25,0.25,40,35.77
2796,F#3,462.5,0.25,40,35.77
2797,C5,462.5,62/125,52,35.77
2798,C4,462.5,62/125,52,35.77
2799,B-2,462.75,0.25,40,35.77
2800,F2,463.0,0.25,54,35.77
2801,C4,463.0,0.5,72,35.77
2802,C5,463.0,0.5,72,35.77
2803,B-2,463.25,0.25,44,35.77
2804,G#3,463.5,0.25,43,35.77
2805,B-2,463.75,0.25,43,35.77
2806,G2,464.0,0.25,56,35.77
2807,C5,464.0,0.5,82,35.77
2808,C6,464.0,0.5,82,35.77
2809,E-3,464.25,0.25,40,35.77
2810,B-3,464.5,0.25,40,35.77
2811,E-3,464.75,0.25,40,35.77
2812,G#2,465.0,0.25,54,35.77
2813,C6,465.0,1.5,94,35.77
2814,C7,465.0,1.5,94,35.77
2815,E-3,465.25,0.25,44,35.77
2816,B3,465.5,0.25,43,35.77
2817,E-3,465.75,0.25,43,35.77
2818,C6,466.5,0.5,60,35.77
2819,C5,466.5,0.5,60,35.77
2820,C6,468.5,1.5,60,35.77
2821,C5,468.5,1.5,60,35.77
2822,B3,470.0,2.0,43,35.77
2823,G#4,470.0,0.5,62,35.77
2824,G#5,470.0,0.5,62,35.77
2825,F5,470.5,0.5,60,35.77
2826,F4,470.5,0.5,60,35.77
2827,D5,471.0,0.5,52,35.77
2828,D4,471.0,0.5,52,35.77
2829,B4,471.5,0.5,52,35.77
2830,B3,471.5,0.5,52,35.77
2831,B-3,472.0,2.0,44,35.77
2832,B-4,472.0,0.5,52,35.77
2833,B-3,472.0,0.5,52,35.77
2834,B-4,472.5,0.5,72,35.77
2835,B-3,472.5,0.5,72,35.77
2836,B-4,473.5,0.5,82,35.77
2837,B-5,473.5,0.5,82,35.77
2838,A3,474.0,0.5,46,35.77
2839,B-6,474.5,1.5,94,35.77
2840,B-5,474.5,1.5,94,35.77
2841,B-5,476.0,0.5,60,35.77
2842,B-4,476.0,0.5,60,35.77
2843,C4,478.0,2.0,43,35.77
2844,B-5,478.0,1.5,60,35.77
2845,B-4,478.0,1.5,60,35.77
2846,F#4,479.5,0.5,62,35.77
2847,F#5,479.5,0.5,62,35.77
2848,B-3,480.0,2.0,44,35.77
2849,F4,480.0,0.5,60,35.77
2850,F5,480.0,0.5,60,35.77
2851,D5,480.5,0.5,52,35.77
2852,D4,480.5,0.5,52,35.77
2853,B3,481.0,0.5,52,35.77
2854,B4,481.0,0.5,52,35.77
2855,B-4,481.5,62/125,52,35.77
2856,B-3,481.5,62/125,52,35.77
2857,G#3,482.0,0.5,46,35.77
2858,B-4,482.0,0.5,72,35.77
2859,B-3,482.0,0.5,72,35.77
2860,B-5,483.0,0.5,82,35.77
2861,B-4,483.0,0.5,82,35.77
2862,B-5,484.0,0.5,84,35.77
2863,B-6,484.0,0.5,84,35.77
2864,B5,485.0,0.5,94,35.77
2865,B6,485.0,0.5,94,35.77
2866,B4,486.0,2.0,55,35.77
2867,F4,486.0,2.0,40,35.77
2868,G#4,486.0,2.0,40,35.77
2869,B-4,488.0,2.0,50,35.77
2870,E-4,488.0,2.0,43,35.77
2871,G4,488.0,2.0,43,35.77
2872,G#4,490.0,0.5,48,35.77
2873,D4,490.0,2.0,44,35.77
2874,F4,490.0,2.0,44,35.77
2875,C4,492.0,2.0,47,35.77
2876,E-4,492.0,2.0,47,35.77
2877,C5,494.0,2.0,55,35.77
2878,B3,494.0,2.0,60,35.77
2879,D4,494.0,2.0,60,35.77
2880,B-4,496.0,2.0,50,35.77
2881,E-4,496.0,1.0,41,35.77
2882,B-3,496.0,2.0,34,35.77
2883,F4,497.0,0.5,36,35.77
2884,D4,497.5,0.5,36,35.77
2885,A4,498.0,0.5,48,35.77
2886,B-3,498.25,0.25,36,35.77
2887,C4,498.5,0.25,36,35.77
2888,B-3,498.75,0.25,36,35.77
2889,A3,499.0,0.25,42,35.77
2890,B-3,499.25,0.25,36,35.77
2891,G3,499.5,0.25,36,35.77
2892,E-3,499.75,0.25,36,35.77
2893,G#3,500.0,0.25,42,35.77
2894,F3,500.25,0.25,36,35.77
2895,D3,500.5,0.25,36,35.77
2896,B-2,500.75,0.25,36,35.77
2897,G#2,501.0,0.25,43,35.77
2898,F2,501.25,0.25,36,35.77
2899,D2,501.5,0.25,36,35.77
2900,B-1,501.75,0.25,36,35.77
2901,F5,502.0,2.0,55,35.77
2902,E-2,502.0,0.25,45,35.77
2903,F2,502.25,0.25,36,35.77
2904,G2,502.5,0.25,36,35.77
2905,G#2,502.75,0.25,36,35.77
2906,B-2,503.0,0.25,43,35.77
2907,C3,503.25,0.25,36,35.77
2908,D3,503.5,0.25,36,35.77
2909,E-3,503.75,0.25,36,35.77
2910,E-5,504.0,2.0,50,35.77
2911,B-2,504.0,2.0,33,35.77
2912,F3,504.0,0.25,42,35.77
2913,G3,504.25,0.25,30,35.77
2914,G#3,504.5,0.25,30,35.77
2915,A3,504.75,0.25,30,35.77
2916,B-3,505.0,0.5,39,35.77
2917,G#3,505.5,0.5,33,35.77
2918,D5,506.0,0.5,48,35.77
2919,G3,506.0,2.0,36,35.77
2920,E-3,506.0,2.0,36,35.77
2921,B-2,508.0,2.0,36,35.77
2922,F3,508.0,2.0,36,35.77
2923,B-4,510.0,2.0,56,35.77
2924,B-5,510.0,2.0,56,35.77
2925,E-4,510.0,2.0,36,35.77
2926,G4,510.0,2.0,36,35.77
2927,G#4,512.0,2.0,56,35.77
2928,G#5,512.0,2.0,56,35.77
2929,B-3,512.0,2.0,36,35.77
2930,F4,512.0,2.0,36,35.77
2931,G4,514.0,2.0,64,35.77
2932,G5,514.0,2.0,64,35.77
2933,E-5,514.0,2.0,36,35.77
2934,G5,514.0,2.0,36,35.77
2935,B-4,516.0,1.0,38,35.77
2936,D5,516.0,1.0,38,35.77
2937,F5,516.0,1.0,38,35.77
2938,G4,517.0,1.0,64,35.77
2939,G5,517.0,1.0,64,35.77
2940,G#4,517.0,1.0,41,35.77
2941,B-4,517.0,1.0,41,35.77
2942,D5,517.0,1.0,41,35.77
2943,F5,517.0,1.0,41,35.77
2944,G#4,518.0,0.5,42,35.77
2945,G#5,518.0,0.5,42,35.77
2946,G4,518.0,1.0,44,35.77
2947,B-4,518.0,1.0,44,35.77
2948,F4,518.5,0.5,37,35.77
2949,F5,518.5,0.5,37,35.77
2950,E-5,519.0,2.0,43,35.77
2951,G5,519.0,2.0,43,35.77
2952,E-4,519.0,1.0,42,35.77
2953,G4,519.0,1.0,42,35.77
2954,B-3,520.0,1.0,39,35.77
2955,F4,520.0,1.0,39,35.77
2956,G#4,520.0,1.0,39,35.77
2957,B-4,521.0,2.0,44,35.77
2958,F5,521.0,2.0,44,35.77
2959,B-3,521.0,1.0,36,35.77
2960,F4,521.0,1.0,36,35.77
2961,G#4,521.0,1.0,36,35.77
2962,B-3,522.25,0.25,36,35.77
2963,C4,522.5,0.25,36,35.77
2964,B-3,522.75,0.25,36,35.77
2965,A3,523.0,0.25,42,35.77
2966,G4,523.0,1.0,44,35.77
2967,E-5,523.0,1.0,44,35.77
2968,B-3,523.25,0.25,36,35.77
2969,G3,523.5,0.25,36,35.77
2970,E-3,523.75,0.25,36,35.77
2971,G#3,524.0,0.25,42,35.77
2972,G#4,524.0,0.5,38,35.77
2973,C5,524.0,0.5,38,35.77
2974,F3,524.25,0.25,36,35.77
2975,D3,524.5,0.25,36,35.77
2976,B-4,524.5,62/125,38,35.77
2977,G4,524.5,62/125,38,35.77
2978,B-2,524.75,0.25,36,35.77
2979,G#2,525.0,0.25,43,35.77
2980,G4,525.0,0.5,42,35.77
2981,B-4,525.0,0.5,42,35.77
2982,F2,525.25,0.25,36,35.77
2983,D2,525.5,0.25,36,35.77
2984,F4,525.5,0.5,37,35.77
2985,G#4,525.5,0.5,37,35.77
2986,B-1,525.75,0.25,36,35.77
2987,E-2,526.0,0.25,45,35.77
2988,E-4,526.0,0.5,37,35.77
2989,G4,526.0,0.5,37,35.77
2990,F2,526.25,0.25,36,35.77
2991,G2,526.5,0.25,36,35.77
2992,B-3,526.5,0.5,37,35.77
2993,F4,526.5,0.5,37,35.77
2994,G#2,526.75,0.25,36,35.77
2995,E-4,527.0,0.25,42,35.77
2996,B-2,527.0,0.25,43,35.77
2997,B-3,527.25,0.25,36,35.77
2998,C3,527.25,0.25,36,35.77
2999,C4,527.5,0.25,36,35.77
3000,D3,527.5,0.25,36,35.77
3001,B-3,527.75,0.25,36,35.77
3002,E-3,527.75,0.25,36,35.77
3003,A3,528.0,0.25,42,35.77
3004,B-2,528.0,2.0,33,35.77
3005,F3,528.0,0.25,42,35.77
3006,B-3,528.25,0.25,36,35.77
3007,G3,528.25,0.25,30,35.77
3008,G4,528.5,0.25,36,35.77
3009,G#3,528.5,0.25,30,35.77
3010,E-4,528.75,0.25,36,35.77
3011,A3,528.75,0.25,30,35.77
3012,D4,529.0,0.25,42,35.77
3013,B-3,529.0,0.5,39,35.77
3014,E-4,529.25,0.25,36,35.77
3015,F4,529.5,0.25,36,35.77
3016,G#3,529.5,0.5,33,35.77
3017,G4,529.75,0.25,36,35.77
3018,G#4,530.0,0.25,42,35.77
3019,G3,530.0,2.0,36,35.77
3020,E-3,530.0,2.0,36,35.77
3021,A4,530.25,0.25,37,35.77
3022,C5,530.5,0.25,37,35.77
3023,B-4,530.75,0.25,37,35.77
3024,A4,531.0,0.25,42,35.77
3025,B-4,531.25,0.25,35,35.77
3026,C5,531.5,0.25,35,35.77
3027,B-4,531.75,0.25,35,35.77
3028,A4,532.0,0.25,42,35.77
3029,B-2,532.0,2.0,36,35.77
3030,F3,532.0,2.0,36,35.77
3031,B-4,532.25,0.25,35,35.77
3032,G5,532.5,0.25,35,35.77
3033,E-5,532.75,0.25,35,35.77
3034,D5,533.0,0.25,47,35.77
3035,E-5,533.25,0.25,40,35.77
3036,F5,533.5,0.25,40,35.77
3037,G5,533.75,0.25,40,35.77
3038,G#5,534.0,0.25,48,35.77
3039,E-4,534.0,2.0,36,35.77
3040,G4,534.0,2.0,36,35.77
3041,A5,534.25,0.25,39,35.77
3042,C6,534.5,0.25,39,35.77
3043,B-5,534.75,0.25,39,35.77
3044,A5,535.0,0.25,46,35.77
3045,B-5,535.25,0.25,38,35.77
3046,C6,535.5,0.25,39,35.77
3047,B-5,535.75,0.25,39,35.77
3048,A5,536.0,0.25,48,35.77
3049,B-3,536.0,2.0,36,35.77
3050,F4,536.0,2.0,36,35.77
3051,B-5,536.25,0.25,40,35.77
3052,G6,536.5,0.25,41,35.77
3053,E-6,536.75,0.25,41,35.77
3054,D6,537.0,0.25,57,35.77
3055,E-6,537.25,0.25,50,35.77
3056,F6,537.5,0.25,50,35.77
3057,G6,537.75,0.25,51,35.77
3058,G#6,538.0,0.25,61,35.77
3059,E-5,538.0,2.0,36,35.77
3060,G5,538.0,2.0,36,35.77
3061,A6,538.25,0.25,50,35.77
3062,C7,538.5,0.25,50,35.77
3063,B-6,538.75,0.25,51,35.77
3064,A6,539.0,0.25,63,35.77
3065,B-6,539.25,0.25,54,35.77
3066,G#6,539.5,0.25,53,35.77
3067,G6,539.75,0.25,53,35.77
3068,F6,540.0,0.25,60,35.77
3069,B-4,540.0,1.0,40,35.77
3070,F5,540.0,1.0,40,35.77
3071,E-6,540.25,0.25,51,35.77
3072,D6,540.5,0.25,51,35.77
3073,C6,540.75,0.25,50,35.77
3074,B-5,541.0,0.25,59,35.77
3075,G#4,541.0,1.0,41,35.77
3076,B-4,541.0,1.0,41,35.77
3077,F5,541.0,1.0,41,35.77
3078,G#5,541.25,0.25,45,35.77
3079,G5,541.5,0.25,45,35.77
3080,F5,541.75,0.25,45,35.77
3081,E-5,542.0,0.25,52,35.77
3082,G4,542.0,0.5,40,35.77
3083,B-4,542.0,123/500,48,35.77
3084,D5,542.25,0.25,47,35.77
3085,F5,542.5,0.25,43,35.77
3086,E-4,542.5,1.0,42,35.77
3087,G4,542.5,1.0,42,35.77
3088,G#5,542.75,0.25,41,35.77
3089,E-5,543.0,2.0,43,35.77
3090,G5,543.0,2.0,43,35.77
3091,E-4,543.5,0.5,44,35.77
3092,G4,543.5,0.5,44,35.77
3093,B-3,544.0,1.0,40,35.77
3094,F4,544.0,1.0,40,35.77
3095,B-4,545.0,2.0,44,35.77
3096,F5,545.0,2.0,44,35.77
3097,G#3,545.0,1.0,36,35.77
3098,B-3,545.0,1.0,36,35.77
3099,F4,545.0,1.0,36,35.77
3100,G3,546.0,0.5,40,35.77
3101,B-3,546.0,123/500,48,35.77
3102,E-3,546.5,1.0,36,35.77
3103,G3,546.5,1.0,36,35.77
3104,G4,547.0,1.0,44,35.77
3105,E-5,547.0,1.0,44,35.77
3106,E-3,547.5,0.5,37,35.77
3107,G3,547.5,0.5,37,35.77
3108,G#4,548.0,0.5,38,35.77
3109,C5,548.0,0.5,38,35.77
3110,F3,548.0,1.0,33,35.77
3111,B-2,548.0,1.0,33,35.77
3112,G#3,548.0,1.0,33,35.77
3113,B-4,548.5,62/125,38,35.77
3114,G4,548.5,62/125,38,35.77
3115,G4,549.0,0.5,42,35.77
3116,B-4,549.0,0.5,42,35.77
3117,B-2,549.0,1.0,30,35.77
3118,F3,549.0,1.0,30,35.77
3119,G#3,549.0,1.0,30,35.77
3120,F4,549.5,0.5,37,35.77
3121,G#4,549.5,0.5,37,35.77
3122,E-4,550.0,0.5,37,35.77
3123,G4,550.0,0.5,37,35.77
3124,B-3,550.5,0.5,37,35.77
3125,F4,550.5,0.5,37,35.77
3126,E-4,551.0,0.25,42,35.77
3127,B-3,551.25,0.25,36,35.77
3128,C4,551.5,0.25,36,35.77
3129,B-3,551.75,0.25,36,35.77
3130,A3,552.0,0.25,42,35.77
3131,B-3,552.25,0.25,36,35.77
3132,G4,552.5,0.25,36,35.77
3133,E-4,552.75,0.25,36,35.77
3134,D4,553.0,0.25,42,35.77
3135,E-4,553.25,0.25,36,35.77
3136,F4,553.5,0.25,36,35.77
3137,G4,553.75,0.25,36,35.77
3138,G#4,554.0,0.25,42,35.77
3139,E-3,554.0,2.0,43,35.77
3140,A4,554.25,0.25,37,35.77
3141,C5,554.5,0.25,37,35.77
3142,B-4,554.75,0.25,37,35.77
3143,A4,555.0,0.25,42,35.77
3144,B-4,555.25,0.25,35,35.77
3145,C5,555.5,0.25,35,35.77
3146,B-4,555.75,0.25,35,35.77
3147,A4,556.0,0.25,42,35.77
3148,B-2,556.0,2.0,44,35.77
3149,B-4,556.25,0.25,37,35.77
3150,G5,556.5,0.25,37,35.77
3151,E-5,556.75,0.25,37,35.77
3152,D5,557.0,0.25,51,35.77
3153,E-5,557.25,0.25,42,35.77
3154,F5,557.5,0.25,42,35.77
3155,G5,557.75,0.25,42,35.77
3156,G#5,558.0,0.25,51,35.77
3157,G2,558.0,0.5,37,35.77
3158,A5,558.25,0.25,43,35.77
3159,C6,558.5,0.25,42,35.77
3160,B-5,558.75,0.25,42,35.77
3161,A5,559.0,0.25,53,35.77
3162,B-5,559.25,0.25,44,35.77
3163,C6,559.5,0.25,45,35.77
3164,B-5,559.75,0.25,46,35.77
3165,A5,560.0,0.25,54,35.77
3166,B-5,560.25,0.25,45,35.77
3167,G6,560.5,0.25,47,35.77
3168,E-6,560.75,0.25,47,35.77
3169,D6,561.0,0.25,57,35.77
3170,E-6,561.25,0.25,50,35.77
3171,F6,561.5,0.25,50,35.77
3172,G6,561.75,0.25,51,35.77
3173,G#6,562.0,0.25,65,35.77
3174,G3,562.0,2.0,40,35.77
3175,E-3,562.0,2.0,40,35.77
3176,A6,562.25,0.25,52,35.77
3177,C7,562.5,0.25,54,35.77
3178,B-6,562.75,123/500,51,35.77
3179,B-6,563.0,0.25,73,35.77
3180,B-4,563.25,0.25,47,35.77
3181,C5,563.5,0.25,47,35.77
3182,B-4,563.75,0.25,47,35.77
3183,A4,564.0,0.25,56,35.77
3184,F3,564.0,2.0,40,35.77
3185,B-2,564.0,2.0,40,35.77
3186,B-4,564.25,0.25,41,35.77
3187,G5,564.5,0.25,42,35.77
3188,E-5,564.75,0.25,44,35.77
3189,D5,565.0,0.25,59,35.77
3190,E-5,565.25,0.25,48,35.77
3191,F5,565.5,0.25,45,35.77
3192,G5,565.75,0.25,42,35.77
3193,G#5,566.0,0.25,54,35.77
3194,G2,566.0,0.5,30,35.77
3195,E-3,566.0,0.5,30,35.77
3196,A5,566.25,0.25,41,35.77
3197,C6,566.5,0.25,41,35.77
3198,B-5,566.75,0.25,41,35.77
3199,B-5,567.0,0.25,60,35.77
3200,B-3,567.25,0.25,39,35.77
3201,C4,567.5,0.25,36,35.77
3202,E-3,567.5,62/125,28,35.77
3203,G3,567.5,62/125,28,35.77
3204,B-3,567.75,0.25,36,35.77
3205,A3,568.0,0.25,45,35.77
3206,B-2,568.0,2.0,34,35.77
3207,F3,568.0,2.0,34,35.77
3208,B-3,568.25,0.25,34,35.77
3209,G4,568.5,0.25,34,35.77
3210,E-4,568.75,0.25,37,35.77
3211,A3,569.0,0.25,50,35.77
3212,B-3,569.25,0.25,37,35.77
3213,G#4,569.5,0.25,35,35.77
3214,F4,569.75,0.25,35,35.77
3215,D4,570.0,0.25,45,35.77
3216,G2,570.0,0.5,30,35.77
3217,E-3,570.0,0.5,30,35.77
3218,C5,570.25,0.25,39,35.77
3219,B-4,570.5,0.25,39,35.77
3220,D4,570.75,0.25,39,35.77
3221,E-4,571.0,2.0,55,35.77
3222,E-4,571.5,62/125,28,35.77
3223,G4,571.5,62/125,28,35.77
3224,B-3,572.0,2.0,34,35.77
3225,F4,572.0,2.0,34,35.77
3226,B-3,573.0,2.0,50,35.77
3227,G3,574.0,0.5,34,35.77
3228,E-4,574.0,0.5,34,35.77
3229,G3,575.0,0.5,48,35.77
3230,E-5,576.5,0.5,42,35.77
3231,G5,576.5,0.5,42,35.77
3232,B-4,577.0,0.5,45,35.77
3233,F5,577.0,0.5,45,35.77
3234,E-5,577.5,62/125,42,35.77
3235,G4,577.5,62/125,42,35.77
3236,G4,578.0,0.5,42,35.77
3237,E-5,578.0,0.5,42,35.77
3238,E-4,579.0,2.0,50,35.77
3239,G4,579.0,2.0,50,35.77
3240,E-3,580.5,0.5,42,35.77
3241,G3,580.5,0.5,42,35.77
3242,F4,581.0,2.0,46,35.77
3243,B-3,581.0,2.0,46,35.77
3244,B-2,581.0,0.5,45,35.77
3245,F3,581.0,0.5,45,35.77
3246,E-3,581.5,0.5,42,35.77
3247,G2,581.5,0.5,42,35.77
3248,D3,582.5,0.25,52,35.77
3249,F3,582.5,0.25,52,35.77
3250,E-2,583.0,0.25,59,35.77
3251,E-4,583.0,0.5,44,35.77
3252,G3,583.0,0.5,44,35.77
3253,D3,584.5,0.25,58,35.77
3254,F3,584.5,0.25,58,35.77
3255,E-2,585.0,0.25,65,35.77
3256,E-4,586.5,0.5,35,35.77
3257,G4,586.5,0.5,35,35.77
3258,D3,586.5,0.25,64,35.77
3259,F3,586.5,0.25,64,35.77
3260,E-2,587.0,0.25,73,35.77
3261,B-3,587.0,2.0,47,35.77
3262,F4,587.0,2.0,47,35.77
3263,B-2,588.5,0.25,77,35.77
3264,B-1,589.0,0.25,80,35.77
3265,G3,589.0,0.5,42,35.77
3266,E-4,589.0,0.5,42,35.77
3267,B-2,589.5,0.25,82,35.77
3268,E-2,590.0,1981/1000,30,35.77
3269,E-5,590.5,0.5,35,35.77
3270,G5,590.5,0.5,35,35.77
3271,B-4,591.0,2.0,45,35.77
3272,F5,591.0,2.0,45,35.77
3273,E-2,592.0,1981/1000,27,35.77
3274,D2,592.0,1981/1000,27,35.77
3275,G4,593.0,0.5,36,35.77
3276,E-5,593.0,0.5,36,35.77
3277,C2,594.0,1981/1000,27,35.77
3278,E-2,594.0,1981/1000,27,35.77
3279,E-6,594.5,0.5,41,35.77
3280,G6,594.5,0.5,41,35.77
3281,E-6,595.5,0.5,45,35.77
3282,G6,595.5,0.5,45,35.77
3283,B-5,596.0,0.5,49,35.77
3284,F6,596.0,0.5,49,35.77
3285,B-1,596.0,1981/1000,27,35.77
3286,E-2,596.0,1981/1000,27,35.77
3287,E-6,596.5,62/125,46,35.77
3288,G5,596.5,62/125,46,35.77
3289,G5,597.0,0.5,45,35.77
3290,E-6,597.0,0.5,45,35.77
3291,G#1,598.0,1981/1000,27,35.77
3292,E-2,598.0,1981/1000,27,35.77
3293,E-4,599.5,0.5,42,35.77
3294,G4,599.5,0.5,42,35.77
3295,B-3,600.0,0.5,45,35.77
3296,F4,600.0,0.5,45,35.77
3297,G1,600.0,1981/1000,27,35.77
3298,E-2,600.0,1981/1000,27,35.77
3299,E-4,600.5,62/125,42,35.77
3300,G3,600.5,62/125,42,35.77
3301,G3,601.0,0.5,42,35.77
3302,E-4,601.0,0.5,42,35.77
3303,G#1,602.0,1981/1000,27,35.77
3304,E-2,602.0,1981/1000,27,35.77
3305,F3,603.0,249/250,43,35.77
3306,B-3,603.0,1.5,51,35.77
3307,G1,604.0,1981/1000,27,35.77
3308,E-2,604.0,1981/1000,27,35.77
3309,E-3,604.5,0.25,50,35.77
3310,G3,604.5,0.25,50,35.77
3311,F3,605.0,249/250,48,35.77
3312,B-3,605.0,1.5,57,35.77
3313,G#1,606.0,1981/1000,27,35.77
3314,E-2,606.0,1981/1000,27,35.77
3315,E-3,606.5,0.25,57,35.77
3316,G3,606.5,0.25,57,35.77
3317,F3,607.0,249/250,53,35.77
3318,B-3,607.0,1.5,63,35.77
3319,G1,608.0,0.5,30,35.77
3320,E-2,608.0,0.5,30,35.77
3321,E-3,608.5,0.25,62,35.77
3322,G3,608.5,0.25,62,35.77
3323,D3,609.0,1.5,63,35.77
3324,F3,609.0,1.5,63,35.77
3325,B-3,609.0,1.5,63,35.77
3326,D4,610.5,0.25,67,35.77
3327,F3,610.5,0.25,67,35.77
3328,G#3,610.5,0.25,67,35.77
3329,G3,611.0,0.5,41,35.77
3330,E-4,611.0,0.5,41,35.77
3331,B-1,612.0,0.5,56,35.77
3332,D2,612.0,0.5,56,35.77
3333,F2,612.0,0.5,56,35.77
3334,B-2,612.0,0.5,56,35.77
3335,E-2,614.0,0.5,56,35.77
3336,G2,614.0,0.5,56,35.77
3337,B-2,614.0,0.5,56,35.77
3338,E-3,614.0,0.5,56,35.77
3339,E-4,615.0,0.25,41,35.77
3340,F4,615.25,0.25,35,35.77
3341,E-4,615.5,0.25,35,35.77
3342,D4,615.75,0.25,35,35.77
3343,E-4,616.0,0.25,41,35.77
3344,F4,616.25,0.25,37,35.77
3345,G4,616.5,0.25,37,35.77
3346,G#4,616.75,0.25,37,35.77
3347,B-4,617.0,0.25,46,35.77
3348,C5,617.25,0.25,40,35.77
3349,D5,617.5,0.25,41,35.77
3350,E-5,617.75,0.25,43,35.77
3351,F5,618.0,0.25,44,35.77
3352,G5,618.25,0.25,45,35.77
3353,G#5,618.5,0.25,47,35.77
3354,B-5,618.75,0.25,48,35.77
3355,C6,619.0,333/1000,55,35.77
3356,D6,619.333,333/1000,48,35.77
3357,E-6,619.667,333/1000,49,35.77
3358,F6,620.0,0.25,51,35.77
3359,G6,620.25,0.25,54,35.77
3360,G#6,620.5,0.25,58,35.77
3361,B-6,620.75,0.25,61,35.77
3362,C7,621.0,1.0,64,35.77
3363,B-6,622.0,0.5,52,35.77
3364,E-6,623.0,0.25,57,35.77
3365,F6,623.25,0.25,42,35.77
3366,E-6,623.5,0.25,43,35.77
3367,D6,623.75,0.25,45,35.77
3368,E-6,624.0,1/5,47,35.77
3369,F6,624.2,1/5,48,35.77
3370,G6,624.4,1/5,49,35.77
3371,G#6,624.6,1/5,51,35.77
3372,B-6,624.8,1/5,52,35.77
3373,C7,625.0,1.0,62,35.77
3374,B-6,626.0,0.5,48,35.77
3375,E-6,627.0,0.25,65,35.77
3376,F6,627.25,0.25,50,35.77
3377,E-6,627.5,0.25,54,35.77
3378,D6,627.75,0.25,58,35.77
3379,E-6,628.0,1/5,62,35.77
3380,F6,628.2,1/5,64,35.77
3381,G6,628.4,1/5,67,35.77
3382,G#6,628.6,1/5,71,35.77
3383,B-6,628.8,1/5,74,35.77
3384,C6,629.0,2.0,77,35.77
3385,C7,629.0,2.0,77,35.77
3386,B-5,631.0,0.5,68,35.77
3387,B-6,631.0,0.5,68,35.77
3388,F3,633.0,0.25,82,35.77
3389,G#3,633.0,0.25,82,35.77
3390,B-3,633.0,0.25,82,35.77
3391,D4,633.0,0.25,82,35.77
3392,G3,635.0,0.25,84,35.77
3393,B-3,635.0,0.25,84,35.77
3394,E-4,635.0,0.25,84,35.77
