,note_name,start_time,duration,velocity,tempo
0,E-4,0.0,1.5,73,183.32
1,G4,0.0,1.5,73,183.32
2,C5,0.0,1.5,73,183.32
3,C4,0.0,1.5,62,183.32
4,G3,0.0,1.5,62,183.32
5,E-3,0.0,1.5,62,183.32
6,C3,0.0,1.5,62,183.32
7,G4,1.75,0.25,70,183.32
8,E-5,2.0,0.75,78,183.32
9,C5,2.75,0.25,70,183.32
10,G5,3.0,0.75,79,183.32
11,E-5,3.75,0.25,70,183.32
12,C6,4.0,0.75,79,183.32
13,G5,4.75,0.25,70,183.32
14,E-6,5.0,0.25,84,183.32
15,E-6,6.0,0.25,84,183.32
16,G4,8.0,0.5,42,183.32
17,C5,8.0,0.5,42,183.32
18,C4,8.0,0.5,38,183.32
19,E-4,8.0,0.5,38,183.32
20,G4,9.0,2.0,46,183.32
21,C5,9.0,2.0,46,183.32
22,E-4,9.0,2.0,38,183.32
23,C4,9.0,2.0,38,183.32
24,G4,11.0,979/1000,42,183.32
25,B4,11.0,979/1000,42,183.32
26,D4,11.0,979/1000,35,183.32
27,F4,11.0,979/1000,35,183.32
28,G#4,12.0,1.5,73,183.32
29,F4,12.0,1.5,73,183.32
30,B4,12.0,1.5,73,183.32
31,F3,12.0,1.5,61,183.32
32,B3,12.0,1.5,61,183.32
33,G#3,12.0,1.5,61,183.32
34,D4,12.0,1.5,61,183.32
35,D3,12.0,1.5,61,183.32
36,B4,13.75,0.25,70,183.32
37,F5,14.0,0.75,78,183.32
38,D5,14.75,0.25,70,183.32
39,B5,15.0,0.75,79,183.32
40,F5,15.75,0.25,70,183.32
41,D6,16.0,0.75,79,183.32
42,B5,16.75,0.25,70,183.32
43,F6,17.0,0.25,84,183.32
44,F6,18.0,0.25,84,183.32
45,B4,20.0,0.5,42,183.32
46,D5,20.0,0.5,42,183.32
47,D4,20.0,0.5,36,183.32
48,G#4,20.0,0.5,36,183.32
49,F4,20.0,0.5,36,183.32
50,B4,21.0,2.0,46,183.32
51,D5,21.0,2.0,46,183.32
52,G#4,21.0,2.0,36,183.32
53,F4,21.0,2.0,36,183.32
54,D4,21.0,2.0,36,183.32
55,C5,23.0,0.75,46,183.32
56,G4,23.0,1.0,35,183.32
57,E-4,23.0,1.0,35,183.32
58,C5,23.75,0.125,45,183.32
59,E-5,23.875,0.125,48,183.32
60,G5,24.0,1.5,53,183.32
61,F5,25.5,0.5,41,183.32
62,E-5,26.0,1.0,51,183.32
63,C4,26.0,1.0,31,183.32
64,G3,26.0,1.0,31,183.32
65,E-3,26.0,1.0,31,183.32
66,D5,27.0,2.0,47,183.32
67,F3,27.0,2.0,35,183.32
68,G#3,27.0,2.0,35,183.32
69,B3,27.0,2.0,35,183.32
70,C5,29.0,0.75,39,183.32
71,C4,29.0,1.0,30,183.32
72,G3,29.0,1.0,30,183.32
73,E-3,29.0,1.0,30,183.32
74,G4,29.75,83/1000,27,183.32
75,C5,29.833,83/1000,45,183.32
76,E-5,29.917,83/1000,48,183.32
77,G5,30.0,1.5,53,183.32
78,F5,31.5,0.5,41,183.32
79,C5,32.0,1.0,47,183.32
80,E-5,32.0,1.0,47,183.32
81,E-4,32.0,1.0,32,183.32
82,G4,32.0,1.0,32,183.32
83,B4,33.0,2.0,43,183.32
84,D5,33.0,2.0,43,183.32
85,G#4,33.0,2.0,36,183.32
86,F4,33.0,2.0,36,183.32
87,C5,35.0,0.75,39,183.32
88,E-4,35.0,1.0,31,183.32
89,G4,35.0,1.0,31,183.32
90,G4,35.75,83/1000,60,183.32
91,C5,35.833,83/1000,63,183.32
92,E-5,35.917,83/1000,69,183.32
93,G4,36.0,1.5,75,183.32
94,G5,36.0,1.5,75,183.32
95,F5,37.5,0.5,56,183.32
96,F4,37.5,0.5,56,183.32
97,E-5,38.0,1.0,68,183.32
98,E-4,38.0,1.0,68,183.32
99,G3,38.0,1.0,42,183.32
100,C4,38.0,1.0,42,183.32
101,E-3,38.0,1.0,42,183.32
102,B3,39.0,2.0,48,183.32
103,F3,39.0,2.0,48,183.32
104,G#3,39.0,2.0,48,183.32
105,E-5,40.0,1.0,68,183.32
106,E-4,40.0,1.0,68,183.32
107,D5,41.0,0.25,66,183.32
108,D4,41.0,0.25,66,183.32
109,G3,41.0,1.0,42,183.32
110,E-3,41.0,1.0,42,183.32
111,C5,42.0,1.0,69,183.32
112,C4,42.0,1.0,69,183.32
113,D3,42.0,2.0,51,183.32
114,F3,42.0,2.0,51,183.32
115,C5,43.0,1.0,69,183.32
116,C4,43.0,1.0,69,183.32
117,B3,44.0,0.25,69,183.32
118,B4,44.0,0.25,69,183.32
119,E-3,44.0,1.0,45,183.32
120,C3,44.0,1.0,45,183.32
121,G#3,45.0,1.0,68,183.32
122,G#4,45.0,1.0,68,183.32
123,D3,45.0,1.0,51,183.32
124,B2,45.0,1.0,51,183.32
125,G#3,46.0,1.0,68,183.32
126,G#4,46.0,1.0,68,183.32
127,G3,47.0,0.5,62,183.32
128,G4,47.0,0.5,62,183.32
129,B3,50.0,333/1000,42,183.32
130,G#3,50.0,1.0,30,183.32
131,F3,50.0,1.0,30,183.32
132,D3,50.0,1.0,30,183.32
133,B2,50.0,1.0,30,183.32
134,D4,50.333,333/1000,35,183.32
135,F4,50.667,333/1000,35,183.32
136,G#4,51.0,333/1000,43,183.32
137,G3,51.0,0.25,30,183.32
138,E-3,51.0,0.25,30,183.32
139,C3,51.0,0.25,30,183.32
140,G4,51.333,333/1000,36,183.32
141,F4,51.667,333/1000,36,183.32
142,E-4,52.0,0.25,43,183.32
143,F3,56.0,333/1000,42,183.32
144,D3,56.0,1.0,30,183.32
145,G#2,56.0,1.0,30,183.32
146,F2,56.0,1.0,30,183.32
147,G#3,56.333,333/1000,35,183.32
148,D4,56.667,333/1000,35,183.32
149,F4,57.0,333/1000,43,183.32
150,C3,57.0,0.25,30,183.32
151,G2,57.0,0.25,30,183.32
152,E-3,57.0,0.25,30,183.32
153,E-4,57.333,333/1000,36,183.32
154,D4,57.667,333/1000,36,183.32
155,C4,58.0,0.25,43,183.32
156,G3,62.0,333/1000,66,183.32
157,G2,62.0,0.5,73,183.32
158,G1,62.0,0.5,73,183.32
159,B3,62.333,333/1000,69,183.32
160,D4,62.667,333/1000,72,183.32
161,F4,63.0,333/1000,75,183.32
162,G2,63.0,1.5,70,183.32
163,C2,63.0,1.5,70,183.32
164,C3,63.0,1.5,70,183.32
165,E-2,63.0,1.5,70,183.32
166,D4,63.333,333/1000,67,183.32
167,B3,63.667,333/1000,67,183.32
168,G3,64.0,1.5,84,183.32
169,E-3,64.0,1.5,84,183.32
170,C4,64.0,1.5,84,183.32
171,C4,65.75,0.25,70,183.32
172,G4,66.0,0.75,78,183.32
173,E-4,66.75,0.25,70,183.32
174,C5,67.0,0.75,85,183.32
175,G4,67.75,0.25,72,183.32
176,E-5,68.0,0.75,80,183.32
177,C3,68.0,0.25,62,183.32
178,G3,68.0,0.25,62,183.32
179,E-3,68.0,0.25,62,183.32
180,C5,68.75,0.25,83,183.32
181,G5,69.0,0.25,88,183.32
182,G4,69.0,0.25,88,183.32
183,B2,69.0,0.25,62,183.32
184,D3,69.0,0.25,62,183.32
185,G3,69.0,0.25,62,183.32
186,G5,70.0,0.25,88,183.32
187,G4,70.0,0.25,88,183.32
188,B3,71.75,0.25,70,183.32
189,G4,72.0,0.75,78,183.32
190,D4,72.75,0.25,70,183.32
191,B4,73.0,0.75,85,183.32
192,G4,73.75,0.25,74,183.32
193,D5,74.0,0.75,86,183.32
194,G3,74.0,0.25,62,183.32
195,B2,74.0,0.25,62,183.32
196,D3,74.0,0.25,62,183.32
197,B4,74.75,0.25,83,183.32
198,G5,75.0,0.25,88,183.32
199,G4,75.0,0.25,88,183.32
200,G3,75.0,0.25,62,183.32
201,C3,75.0,0.25,62,183.32
202,E-3,75.0,0.25,62,183.32
203,G5,76.0,0.25,88,183.32
204,G4,76.0,0.25,88,183.32
205,E-4,77.75,0.25,70,183.32
206,G4,78.0,0.75,78,183.32
207,E-4,78.75,0.25,70,183.32
208,C5,79.0,0.75,85,183.32
209,G4,79.75,0.25,74,183.32
210,E-5,80.0,0.75,86,183.32
211,E-3,80.0,0.25,62,183.32
212,C4,80.0,0.25,62,183.32
213,G3,80.0,0.25,62,183.32
214,C5,80.75,0.25,83,183.32
215,G5,81.0,0.75,90,183.32
216,G#3,81.0,0.25,62,183.32
217,D4,81.0,0.25,62,183.32
218,F3,81.0,0.25,62,183.32
219,E-5,81.75,0.25,83,183.32
220,D5,82.0,0.25,96,183.32
221,F6,83.0,0.25,96,183.32
222,D4,84.0,0.25,62,183.32
223,B3,84.0,0.25,62,183.32
224,G3,84.0,0.25,62,183.32
225,B4,85.0,0.25,96,183.32
226,D6,86.0,0.25,96,183.32
227,G3,87.0,0.25,61,183.32
228,C3,87.0,0.25,61,183.32
229,C4,87.0,0.25,61,183.32
230,E-3,87.0,0.25,61,183.32
231,C5,88.0,0.25,96,183.32
232,C6,89.0,0.25,96,183.32
233,E-4,93.0,3.0,69,183.32
234,C#4,96.0,3.0,50,183.32
235,E-4,96.0,3.0,69,183.32
236,G4,98.0,2.0,50,183.32
237,E-5,99.0,1.0,45,183.32
238,C4,99.0,3.0,49,183.32
239,E-4,99.0,3.0,69,183.32
240,G#4,100.0,3.0,42,183.32
241,E-5,100.0,2.0,50,183.32
242,E-5,102.0,1.0,45,183.32
243,C#4,102.0,3.0,31,183.32
244,B-3,102.0,3.0,31,183.32
245,G4,103.0,3.0,42,183.32
246,E-5,103.0,1.0,45,183.32
247,F5,104.0,1.0,45,183.32
248,C#5,105.0,1.0,44,183.32
249,G#3,105.0,3.0,30,183.32
250,E-4,105.0,3.0,30,183.32
251,G#4,106.0,3.0,42,183.32
252,C#5,106.0,1.0,44,183.32
253,B4,107.0,1.0,45,183.32
254,C5,108.0,1.0,45,183.32
255,B-4,108.0,3.0,50,183.32
256,C5,108.0,3.0,60,183.32
257,E5,110.0,2.0,50,183.32
258,C6,111.0,1.0,45,183.32
259,G#4,111.0,3.0,49,183.32
260,C5,111.0,3.0,60,183.32
261,F5,112.0,3.0,42,183.32
262,C6,112.0,2.0,50,183.32
263,C6,114.0,1.0,45,183.32
264,G4,114.0,3.0,31,183.32
265,B-4,114.0,3.0,31,183.32
266,E5,115.0,3.0,42,183.32
267,C6,115.0,1.0,45,183.32
268,C#6,116.0,1.0,45,183.32
269,B-5,117.0,1.0,44,183.32
270,F4,117.0,3.0,30,183.32
271,G#4,117.0,3.0,30,183.32
272,C5,118.0,3.0,42,183.32
273,B-5,118.0,1.0,44,183.32
274,G5,119.0,1.0,45,183.32
275,G#5,120.0,1.0,45,183.32
276,F#4,120.0,3.0,50,183.32
277,G#4,120.0,3.0,60,183.32
278,C5,122.0,2.0,50,183.32
279,G#5,123.0,1.0,45,183.32
280,F4,123.0,3.0,49,183.32
281,G#4,123.0,3.0,60,183.32
282,C#5,124.0,3.0,42,183.32
283,G#5,124.0,2.0,50,183.32
284,G#5,126.0,1.0,45,183.32
285,E-4,126.0,3.0,44,183.32
286,F#4,126.0,3.0,44,183.32
287,C5,127.0,3.0,42,183.32
288,G#5,127.0,1.0,45,183.32
289,B-5,128.0,1.0,45,183.32
290,F#5,129.0,1.0,44,183.32
291,C#4,129.0,3.0,30,183.32
292,F4,129.0,3.0,30,183.32
293,G#4,130.0,3.0,49,183.32
294,F#5,130.0,1.0,44,183.32
295,E5,131.0,1.0,52,183.32
296,F5,132.0,1.0,52,183.32
297,B3,132.0,3.0,45,183.32
298,E-4,132.0,3.0,45,183.32
299,A4,133.0,3.0,50,183.32
300,F5,133.0,1.0,52,183.32
301,F#5,134.0,1.0,55,183.32
302,E-5,135.0,1.0,50,183.32
303,B-3,135.0,3.0,33,183.32
304,F4,136.0,3.0,42,183.32
305,E-5,136.0,1.0,50,183.32
306,E-5,137.0,1.0,45,183.32
307,D5,138.0,1.0,45,183.32
308,A3,138.0,3.0,33,183.32
309,F#4,139.0,2.0,42,183.32
310,D5,139.0,1.0,45,183.32
311,E-5,140.0,1.0,45,183.32
312,B-2,141.0,3.0,33,183.32
313,E-4,141.0,1.0,30,183.32
314,F#4,141.0,1.0,30,183.32
315,F3,142.0,1.0,33,183.32
316,D4,142.0,1.0,35,183.32
317,F4,142.0,1.0,35,183.32
318,G3,143.0,1.0,37,183.32
319,G#3,144.0,1.0,41,183.32
320,B-2,144.0,3.0,33,183.32
321,E3,145.0,1.0,33,183.32
322,C5,146.0,0.5,38,183.32
323,F3,146.0,1.0,35,183.32
324,C5,147.0,0.5,38,183.32
325,B-2,147.0,3.0,42,183.32
326,G3,147.0,1.0,42,183.32
327,C5,148.0,1.0,46,183.32
328,D3,148.0,1.0,33,183.32
329,B-4,149.0,1.0,38,183.32
330,E-3,149.0,1.0,33,183.32
331,F3,150.0,1.0,40,183.32
332,B-2,150.0,3.0,42,183.32
333,C3,151.0,1.0,33,183.32
334,G#4,152.0,0.5,38,183.32
335,D3,152.0,1.0,33,183.32
336,G#4,153.0,0.5,38,183.32
337,B-2,153.0,3.0,39,183.32
338,E-3,153.0,1.0,39,183.32
339,G#4,154.0,1.0,43,183.32
340,F3,154.0,1.0,33,183.32
341,G4,155.0,1.0,38,183.32
342,G3,155.0,1.0,36,183.32
343,G#3,156.0,1.0,40,183.32
344,B-2,156.0,3.0,39,183.32
345,E3,157.0,1.0,33,183.32
346,C5,157.5,0.5,37,183.32
347,B4,158.0,0.5,38,183.32
348,F3,158.0,1.0,33,183.32
349,C5,158.5,0.5,34,183.32
350,D5,159.0,0.5,43,183.32
351,G3,159.0,1.0,42,183.32
352,B-2,159.0,3.0,42,183.32
353,C5,159.5,0.5,38,183.32
354,D3,160.0,1.0,33,183.32
355,B-4,160.5,0.5,36,183.32
356,A4,161.0,0.5,38,183.32
357,E-3,161.0,1.0,33,183.32
358,B-4,161.5,0.5,36,183.32
359,C5,162.0,0.5,44,183.32
360,F3,162.0,1.0,40,183.32
361,B-2,162.0,3.0,42,183.32
362,B-4,162.5,0.5,38,183.32
363,C3,163.0,1.0,33,183.32
364,G#4,163.5,0.5,36,183.32
365,G4,164.0,0.5,38,183.32
366,D3,164.0,1.0,33,183.32
367,G#4,164.5,0.5,35,183.32
368,B-4,165.0,0.5,44,183.32
369,E-3,165.0,0.5,40,183.32
370,G#4,165.5,0.5,37,183.32
371,B-3,165.5,0.5,28,183.32
372,G4,166.0,3.0,46,183.32
373,G3,166.0,0.5,33,183.32
374,B-3,166.5,0.5,27,183.32
375,F3,167.029,0.5,33,183.32
376,B-3,167.5,0.5,30,183.32
377,E-3,168.0,0.5,38,183.32
378,B-3,168.5,0.5,28,183.32
379,G4,169.0,1.5,46,183.32
380,F3,169.0,0.5,42,183.32
381,B-3,169.5,0.5,35,183.32
382,G3,170.0,0.5,46,183.32
383,B-4,170.5,0.5,56,183.32
384,B-3,170.5,0.5,40,183.32
385,E-5,171.0,979/1000,62,183.32
386,F3,171.0,0.5,51,183.32
387,B-3,171.5,0.5,44,183.32
388,E-5,172.0,3.0,63,183.32
389,G3,172.0,0.5,52,183.32
390,B-3,172.5,0.5,43,183.32
391,G#3,173.0,0.5,55,183.32
392,B-3,173.5,0.5,47,183.32
393,F3,174.0,0.5,60,183.32
394,B-3,174.5,0.5,39,183.32
395,D5,175.0,1.0,57,183.32
396,G3,175.0,0.5,46,183.32
397,B-3,175.5,0.5,33,183.32
398,G#3,176.0,0.5,41,183.32
399,B-3,176.5,0.5,33,183.32
400,D3,177.0,0.5,40,183.32
401,B-3,177.5,0.5,28,183.32
402,B-4,178.0,3.0,51,183.32
403,F3,178.0,0.5,33,183.32
404,B-3,178.5,0.5,27,183.32
405,E-3,179.0,0.5,33,183.32
406,B-3,179.5,0.5,30,183.32
407,D3,180.0,0.5,38,183.32
408,B-3,180.5,0.5,31,183.32
409,B-4,181.0,0.5,61,183.32
410,E-3,181.0,0.5,46,183.32
411,C5,181.5,167/1000,57,183.32
412,B-3,181.5,0.5,38,183.32
413,B-4,181.667,167/1000,52,183.32
414,A4,181.833,167/1000,52,183.32
415,B-4,182.0,0.5,61,183.32
416,F3,182.0,0.5,50,183.32
417,F5,182.5,0.5,65,183.32
418,B-3,182.5,0.5,43,183.32
419,G#5,183.0,1.0,73,183.32
420,E-3,183.0,0.5,56,183.32
421,B-3,183.5,0.5,42,183.32
422,G#5,184.0,3.0,74,183.32
423,F3,184.0,0.5,54,183.32
424,B-3,184.5,0.5,44,183.32
425,G3,185.0,0.5,46,183.32
426,B-3,185.5,0.5,33,183.32
427,E-3,186.0,0.5,48,183.32
428,B-3,186.5,0.5,39,183.32
429,G5,187.0,1.0,69,183.32
430,F3,187.0,0.5,41,183.32
431,B-3,187.5,0.5,33,183.32
432,G3,188.0,0.5,41,183.32
433,B-3,188.5,0.5,33,183.32
434,E-3,189.0,0.5,40,183.32
435,B-3,189.5,0.5,28,183.32
436,G4,190.0,0.25,56,183.32
437,G3,190.0,0.5,33,183.32
438,G#4,190.5,0.25,58,183.32
439,B-3,190.5,0.5,27,183.32
440,B-4,191.0,0.25,60,183.32
441,E-3,191.0,0.5,35,183.32
442,C5,191.5,0.25,62,183.32
443,B-3,191.5,0.5,32,183.32
444,D5,192.0,0.25,64,183.32
445,E-3,192.0,0.5,41,183.32
446,E-5,192.5,0.25,65,183.32
447,B-3,192.5,0.5,38,183.32
448,F5,193.0,0.25,70,183.32
449,G3,193.0,0.5,48,183.32
450,G5,193.5,0.25,73,183.32
451,B-3,193.5,0.5,41,183.32
452,G#5,194.0,0.25,76,183.32
453,E-3,194.0,0.5,54,183.32
454,B-5,194.5,0.25,78,183.32
455,B-3,194.5,0.5,51,183.32
456,C6,195.0,0.25,81,183.32
457,F3,195.0,0.5,52,183.32
458,D6,195.5,0.25,84,183.32
459,B-3,195.5,0.5,48,183.32
460,E-6,196.0,3.0,91,183.32
461,G#3,196.0,0.5,52,183.32
462,B-3,196.5,0.5,44,183.32
463,F3,197.0,0.5,46,183.32
464,B-3,197.5,0.5,43,183.32
465,F3,198.0,0.5,43,183.32
466,B-3,198.5,0.5,31,183.32
467,D6,199.0,1.0,71,183.32
468,G#3,199.0,0.5,39,183.32
469,B-3,199.5,0.5,31,183.32
470,F3,200.0,0.5,39,183.32
471,B-3,200.5,62/125,31,183.32
472,D3,201.0,0.5,40,183.32
473,B-3,201.5,0.5,32,183.32
474,B-3,202.0,0.25,56,183.32
475,F3,202.0,0.5,39,183.32
476,C4,202.5,0.25,58,183.32
477,B-3,202.5,0.5,29,183.32
478,D4,203.0,0.25,60,183.32
479,D3,203.0,0.5,46,183.32
480,E-4,203.5,0.25,62,183.32
481,B-3,203.5,0.5,37,183.32
482,F4,204.0,0.25,64,183.32
483,D3,204.0,0.5,52,183.32
484,G4,204.5,0.25,65,183.32
485,B-3,204.5,0.5,43,183.32
486,G#4,205.0,0.25,67,183.32
487,F3,205.0,0.5,57,183.32
488,B-4,205.5,0.25,72,183.32
489,B-3,205.5,0.5,49,183.32
490,C5,206.0,0.25,74,183.32
491,D3,206.0,0.5,62,183.32
492,D5,206.5,0.25,76,183.32
493,B-3,206.5,0.5,51,183.32
494,E-5,207.0,0.25,78,183.32
495,F5,207.5,0.25,80,183.32
496,E-3,207.5,0.5,43,183.32
497,G5,208.0,3.0,94,183.32
498,D3,208.0,0.5,50,183.32
499,E-3,208.5,0.5,44,183.32
500,D3,209.0,0.5,53,183.32
501,E-3,209.5,0.5,44,183.32
502,G2,210.0,0.5,67,183.32
503,E-3,210.5,0.5,45,183.32
504,E-6,211.0,2.0,100,183.32
505,G#2,211.0,0.5,59,183.32
506,E-3,211.5,0.5,47,183.32
507,B-2,212.0,0.5,61,183.32
508,E-3,212.5,0.5,44,183.32
509,G3,213.0,1.0,77,183.32
510,G#2,213.0,0.5,65,183.32
511,E-3,213.5,0.5,45,183.32
512,G#3,214.0,3.0,82,183.32
513,B-2,214.0,0.5,57,183.32
514,E-3,214.5,0.5,42,183.32
515,C3,215.0,0.5,55,183.32
516,E-3,215.5,0.5,45,183.32
517,A2,216.0,0.5,67,183.32
518,E-3,216.5,0.5,45,183.32
519,A3,217.0,3.0,84,183.32
520,B-2,217.0,0.5,56,183.32
521,E-3,217.5,0.5,47,183.32
522,C3,218.0,0.5,55,183.32
523,E-3,218.5,0.5,44,183.32
524,B-2,219.0,0.5,64,183.32
525,G3,219.5,0.5,46,183.32
526,B-3,220.0,3.0,84,183.32
527,E-3,220.0,0.5,56,183.32
528,G3,220.5,0.5,45,183.32
529,B-2,221.0,0.5,57,183.32
530,G3,221.5,0.5,46,183.32
531,B-2,222.0,0.5,64,183.32
532,F3,222.5,0.5,46,183.32
533,G#3,223.0,0.25,84,183.32
534,D3,223.0,0.5,55,183.32
535,B-3,223.25,0.25,57,183.32
536,G#3,223.5,167/1000,61,183.32
537,F3,223.5,0.5,45,183.32
538,B-3,223.667,167/1000,57,183.32
539,G#3,223.833,167/1000,64,183.32
540,B-3,224.0,167/1000,56,183.32
541,B-2,224.0,0.5,55,183.32
542,G#3,224.167,167/1000,64,183.32
543,B-3,224.333,167/1000,56,183.32
544,G#3,224.5,167/1000,64,183.32
545,F3,224.5,0.5,46,183.32
546,B-3,224.667,167/1000,55,183.32
547,G#3,224.833,167/1000,64,183.32
548,B-3,225.0,0.25,54,183.32
549,E-2,225.0,1.0,64,183.32
550,E-3,225.0,1.0,64,183.32
551,G#3,225.25,0.25,59,183.32
552,G3,225.5,0.25,55,183.32
553,G#3,225.75,0.25,57,183.32
554,G3,226.0,0.5,74,183.32
555,B-3,226.5,0.5,60,183.32
556,E-4,227.0,0.5,68,183.32
557,B-3,227.5,0.5,61,183.32
558,E-4,228.0,0.5,69,183.32
559,G4,228.5,0.5,63,183.32
560,B-4,229.0,0.5,69,183.32
561,G4,229.5,0.5,60,183.32
562,B-4,230.0,0.5,69,183.32
563,E-5,230.5,0.5,62,183.32
564,G5,231.0,0.5,73,183.32
565,G2,231.0,0.5,67,183.32
566,B-5,231.5,0.5,65,183.32
567,E-3,231.5,0.5,45,183.32
568,E-6,232.0,0.5,89,183.32
569,G#2,232.0,0.5,59,183.32
570,E-3,232.5,0.5,47,183.32
571,B-2,233.0,0.5,61,183.32
572,E-3,233.5,0.5,44,183.32
573,E-4,234.0,1.0,84,183.32
574,G2,234.0,0.5,67,183.32
575,E-3,234.5,0.5,45,183.32
576,E-4,235.0,2.0,84,183.32
577,G#2,235.0,0.5,57,183.32
578,E-3,235.5,0.5,52,183.32
579,B-2,236.0,0.5,61,183.32
580,E-3,236.5,0.5,44,183.32
581,G3,237.0,1.0,81,183.32
582,G#2,237.0,0.5,65,183.32
583,E-3,237.5,0.5,45,183.32
584,G#3,238.0,2.0,84,183.32
585,B-2,238.0,0.5,58,183.32
586,E-3,238.5,0.5,42,183.32
587,C3,239.0,0.5,57,183.32
588,E-3,239.5,0.5,45,183.32
589,E-4,240.0,1.0,84,183.32
590,A2,240.0,0.5,67,183.32
591,E-3,240.5,0.5,45,183.32
592,A3,241.0,2.0,92,183.32
593,B-2,241.0,0.5,56,183.32
594,E-3,241.5,0.5,47,183.32
595,C3,242.0,0.5,58,183.32
596,E-3,242.5,0.5,44,183.32
597,E-4,243.0,1.0,84,183.32
598,B-2,243.0,0.5,67,183.32
599,E-3,243.5,0.5,52,183.32
600,B-3,244.0,0.5,77,183.32
601,D3,244.0,0.5,61,183.32
602,E-4,244.5,0.5,59,183.32
603,E-3,244.5,0.5,48,183.32
604,D4,245.0,0.5,68,183.32
605,B2,245.0,0.5,62,183.32
606,E-4,245.5,0.5,55,183.32
607,E-3,245.5,0.5,53,183.32
608,B3,246.0,0.5,65,183.32
609,C3,246.0,0.5,71,183.32
610,E-4,246.5,0.5,59,183.32
611,E-3,246.5,0.5,54,183.32
612,C4,247.0,0.5,82,183.32
613,D3,247.0,0.5,65,183.32
614,E-4,247.5,0.5,62,183.32
615,E-3,247.5,0.5,52,183.32
616,D4,248.0,0.5,71,183.32
617,A2,248.0,0.5,64,183.32
618,E-4,248.5,0.5,59,183.32
619,E-3,248.5,0.5,49,183.32
620,A3,249.0,0.5,66,183.32
621,B-2,249.0,0.5,77,183.32
622,E-4,249.5,0.5,56,183.32
623,E-3,249.5,0.5,58,183.32
624,B-3,250.0,0.5,88,183.32
625,C#3,250.0,0.5,65,183.32
626,E-4,250.5,0.5,58,183.32
627,E-3,250.5,0.5,56,183.32
628,C#4,251.0,0.5,72,183.32
629,B2,251.0,0.5,70,183.32
630,E-4,251.5,0.5,62,183.32
631,E-3,251.5,0.5,54,183.32
632,B3,252.0,0.5,72,183.32
633,C3,252.0,0.5,77,183.32
634,E-4,252.5,0.5,64,183.32
635,E-3,252.5,0.5,57,183.32
636,C4,253.0,0.5,88,183.32
637,D3,253.0,0.5,63,183.32
638,E-4,253.5,0.5,65,183.32
639,E-3,253.5,0.5,58,183.32
640,D4,254.0,0.5,75,183.32
641,A2,254.0,0.5,71,183.32
642,E-4,254.5,0.5,65,183.32
643,E-3,254.5,0.5,65,183.32
644,A3,255.0,0.5,80,183.32
645,B-2,255.0,1.0,82,183.32
646,E-4,255.5,0.5,72,183.32
647,B-3,256.0,1.0,93,183.32
648,B-2,256.0,0.25,80,183.32
649,E-3,256.0,0.25,80,183.32
650,G3,256.0,0.25,80,183.32
651,E-4,257.75,0.25,81,183.32
652,B-4,258.0,0.75,87,183.32
653,G4,258.75,0.25,84,183.32
654,E-5,259.0,0.25,93,183.32
655,E-3,259.0,0.25,80,183.32
656,C3,259.0,0.25,80,183.32
657,F#3,259.0,0.25,80,183.32
658,E-4,260.75,0.25,81,183.32
659,A4,261.0,0.75,87,183.32
660,F#4,261.75,0.25,84,183.32
661,E-5,262.0,0.25,93,183.32
662,G3,262.0,0.25,80,183.32
663,B-2,262.0,0.25,80,183.32
664,E-3,262.0,0.25,80,183.32
665,E-4,263.75,0.25,81,183.32
666,B-4,264.0,0.75,87,183.32
667,G4,264.75,0.25,84,183.32
668,E-5,265.0,0.25,93,183.32
669,A3,265.0,0.25,80,183.32
670,E-3,265.0,0.25,80,183.32
671,F#3,265.0,0.25,80,183.32
672,A2,265.0,0.25,80,183.32
673,C5,266.75,0.25,81,183.32
674,F#5,267.0,0.75,87,183.32
675,E-5,267.75,0.25,84,183.32
676,G5,268.0,1.5,95,183.32
677,B-2,268.0,0.25,80,183.32
678,B-3,268.0,0.25,80,183.32
679,G3,268.0,0.25,80,183.32
680,E-3,268.0,0.25,80,183.32
681,E-5,269.5,0.5,85,183.32
682,E-5,270.0,0.5,93,183.32
683,B-4,270.5,0.375,79,183.32
684,B-4,271.0,0.5,88,183.32
685,G4,271.5,0.375,78,183.32
686,G4,272.0,0.5,85,183.32
687,E-4,272.5,0.375,77,183.32
688,E-4,273.0,0.5,81,183.32
689,B-3,273.0,0.5,81,183.32
690,B-3,273.5,0.375,77,183.32
691,G3,273.5,0.375,77,183.32
692,G3,274.0,0.5,82,183.32
693,E-3,274.5,0.375,77,183.32
694,E-3,275.0,0.5,83,183.32
695,B-2,275.5,0.375,77,183.32
696,B-2,276.0,3.0,85,183.32
697,B-1,276.0,3.0,85,183.32
698,G#3,278.0,1.0,64,183.32
699,F3,278.0,1.0,64,183.32
700,B-3,279.0,1.0,72,183.32
701,D4,279.0,1.0,72,183.32
702,G3,279.0,1.0,73,183.32
703,E-2,279.0,1.0,73,183.32
704,B-2,280.0,2.0,51,183.32
705,B-3,280.0,1.0,76,183.32
706,E-4,280.0,1.0,76,183.32
707,A2,281.0,1.0,51,183.32
708,G#2,282.0,1.0,51,183.32
709,B-2,282.0,3.0,51,183.32
710,G2,283.0,1.0,49,183.32
711,F2,284.0,1.0,49,183.32
712,B-4,284.0,1.0,45,183.32
713,F4,284.0,1.0,45,183.32
714,G#4,284.0,1.0,45,183.32
715,D4,284.0,1.0,45,183.32
716,E-2,285.0,1.0,51,183.32
717,D4,285.0,1.0,40,183.32
718,F4,285.0,1.0,40,183.32
719,G#4,285.0,1.0,40,183.32
720,B-4,285.0,1.0,40,183.32
721,C5,286.0,1.0,53,183.32
722,G2,286.0,1.0,47,183.32
723,E-4,286.0,2.0,42,183.32
724,G4,286.0,2.0,42,183.32
725,B-4,287.0,1.0,49,183.32
726,B-2,287.0,1.0,47,183.32
727,B-1,288.0,1.0,51,183.32
728,F2,289.0,1.0,48,183.32
729,B-2,290.0,1.0,48,183.32
730,F4,290.0,1.0,46,183.32
731,G#4,290.0,1.0,46,183.32
732,D5,290.0,1.0,46,183.32
733,E-2,291.0,1.0,67,183.32
734,F4,291.0,1.0,41,183.32
735,G#4,291.0,1.0,41,183.32
736,D5,291.0,1.0,41,183.32
737,F5,292.0,1.0,53,183.32
738,B-2,292.0,2.0,51,183.32
739,G4,292.0,2.0,42,183.32
740,B-4,292.0,2.0,42,183.32
741,E-5,293.0,1.0,49,183.32
742,A2,293.0,1.0,51,183.32
743,G#2,294.0,1.0,51,183.32
744,B-2,294.0,3.0,51,183.32
745,G2,295.0,1.0,49,183.32
746,F2,296.0,1.0,49,183.32
747,D4,296.0,1.0,45,183.32
748,F4,296.0,1.0,45,183.32
749,G#4,296.0,1.0,45,183.32
750,B-4,296.0,1.0,45,183.32
751,E-2,297.0,1.0,51,183.32
752,B-4,297.0,1.0,40,183.32
753,F4,297.0,1.0,40,183.32
754,G#4,297.0,1.0,40,183.32
755,D4,297.0,1.0,40,183.32
756,C5,298.0,1.0,53,183.32
757,G2,298.0,1.0,47,183.32
758,E-4,298.0,2.0,42,183.32
759,G4,298.0,2.0,42,183.32
760,B-4,299.0,1.0,49,183.32
761,B-2,299.0,1.0,47,183.32
762,B-1,300.0,1.0,51,183.32
763,F2,301.0,1.0,48,183.32
764,B-2,302.0,1.0,48,183.32
765,F3,302.0,1.0,46,183.32
766,G#3,302.0,1.0,46,183.32
767,D4,302.0,1.0,46,183.32
768,E-2,303.0,1.0,51,183.32
769,F3,303.0,1.0,41,183.32
770,G#3,303.0,1.0,41,183.32
771,D4,303.0,1.0,41,183.32
772,F4,304.0,1.0,53,183.32
773,G2,304.0,1.0,47,183.32
774,G3,304.0,2.0,42,183.32
775,B-3,304.0,2.0,42,183.32
776,E-4,305.0,1.0,49,183.32
777,B-2,305.0,1.0,47,183.32
778,B-1,306.0,1.0,51,183.32
779,F2,307.0,1.0,48,183.32
780,B-2,308.0,1.0,48,183.32
781,F3,308.0,1.0,46,183.32
782,G#3,308.0,1.0,46,183.32
783,D4,308.0,1.0,46,183.32
784,E-2,309.0,1.0,51,183.32
785,F3,309.0,1.0,41,183.32
786,G#3,309.0,1.0,41,183.32
787,D4,309.0,1.0,41,183.32
788,G2,310.0,1.0,47,183.32
789,G#3,310.0,3.0,46,183.32
790,D4,310.0,3.0,46,183.32
791,F4,310.0,3.0,46,183.32
792,B-2,311.0,1.0,47,183.32
793,E-3,312.0,1.0,42,183.32
794,G3,312.0,1.0,42,183.32
795,B-3,313.0,1.0,46,183.32
796,E-4,313.0,1.0,46,183.32
797,C4,315.0,1.5,62,183.32
798,G3,315.0,1.5,62,183.32
799,E-3,315.0,1.5,62,183.32
800,C3,315.0,1.5,62,183.32
801,E-4,316.0,1.5,73,183.32
802,G4,316.0,1.5,73,183.32
803,C5,316.0,1.5,73,183.32
804,G4,317.75,0.25,70,183.32
805,E-5,318.0,0.75,78,183.32
806,C5,318.75,0.25,70,183.32
807,G5,319.0,0.75,79,183.32
808,E-5,319.75,0.25,70,183.32
809,C6,320.0,0.75,79,183.32
810,G5,320.75,0.25,70,183.32
811,E-6,321.0,0.25,84,183.32
812,E-6,322.0,0.25,84,183.32
813,C4,323.0,0.5,38,183.32
814,E-4,323.0,0.5,38,183.32
815,G4,324.0,0.5,42,183.32
816,C5,324.0,0.5,42,183.32
817,E-4,324.0,2.0,38,183.32
818,C4,324.0,2.0,38,183.32
819,G4,325.0,2.0,46,183.32
820,C5,325.0,2.0,46,183.32
821,D4,326.0,979/1000,35,183.32
822,F4,326.0,979/1000,35,183.32
823,G4,327.0,979/1000,42,183.32
824,B4,327.0,979/1000,42,183.32
825,F3,327.0,1.5,61,183.32
826,B3,327.0,1.5,61,183.32
827,G#3,327.0,1.5,61,183.32
828,D4,327.0,1.5,61,183.32
829,D3,327.0,1.5,61,183.32
830,G#4,328.0,1.5,73,183.32
831,F4,328.0,1.5,73,183.32
832,B4,328.0,1.5,73,183.32
833,B4,329.75,0.25,70,183.32
834,F5,330.0,0.75,78,183.32
835,D5,330.75,0.25,70,183.32
836,B5,331.0,0.75,79,183.32
837,F5,331.75,0.25,70,183.32
838,D6,332.0,0.75,79,183.32
839,B5,332.75,0.25,70,183.32
840,F6,333.0,0.25,84,183.32
841,F6,334.0,0.25,84,183.32
842,D4,335.0,0.5,36,183.32
843,G#4,335.0,0.5,36,183.32
844,F4,335.0,0.5,36,183.32
845,B4,336.0,0.5,42,183.32
846,D5,336.0,0.5,42,183.32
847,G#4,336.0,2.0,36,183.32
848,F4,336.0,2.0,36,183.32
849,D4,336.0,2.0,36,183.32
850,B4,337.0,2.0,46,183.32
851,D5,337.0,2.0,46,183.32
852,G4,338.0,1.0,35,183.32
853,E-4,338.0,1.0,35,183.32
854,C5,339.0,0.75,46,183.32
855,C5,339.75,0.125,45,183.32
856,E-5,339.875,0.125,48,183.32
857,G5,340.0,1.5,53,183.32
858,C4,341.0,1.0,31,183.32
859,G3,341.0,1.0,31,183.32
860,E-3,341.0,1.0,31,183.32
861,F5,341.5,0.5,41,183.32
862,E-5,342.0,1.0,51,183.32
863,F3,342.0,2.0,35,183.32
864,G#3,342.0,2.0,35,183.32
865,B3,342.0,2.0,35,183.32
866,D5,343.0,2.0,47,183.32
867,C4,344.0,1.0,30,183.32
868,G3,344.0,1.0,30,183.32
869,E-3,344.0,1.0,30,183.32
870,C5,345.0,0.75,39,183.32
871,G4,345.75,83/1000,27,183.32
872,C5,345.833,83/1000,45,183.32
873,E-5,345.917,83/1000,48,183.32
874,G5,346.0,1.5,53,183.32
875,E-4,347.0,1.0,32,183.32
876,G4,347.0,1.0,32,183.32
877,F5,347.5,0.5,41,183.32
878,C5,348.0,1.0,47,183.32
879,E-5,348.0,1.0,47,183.32
880,G#4,348.0,2.0,36,183.32
881,F4,348.0,2.0,36,183.32
882,B4,349.0,2.0,43,183.32
883,D5,349.0,2.0,43,183.32
884,E-4,350.0,1.0,31,183.32
885,G4,350.0,1.0,31,183.32
886,C5,351.0,0.75,39,183.32
887,G4,351.75,83/1000,60,183.32
888,C5,351.833,83/1000,63,183.32
889,E-5,351.917,83/1000,69,183.32
890,G4,352.0,1.5,75,183.32
891,G5,352.0,1.5,75,183.32
892,G3,353.0,1.0,42,183.32
893,C4,353.0,1.0,42,183.32
894,E-3,353.0,1.0,42,183.32
895,F5,353.5,0.5,56,183.32
896,F4,353.5,0.5,56,183.32
897,E-5,354.0,1.0,68,183.32
898,E-4,354.0,1.0,68,183.32
899,B3,354.0,2.0,48,183.32
900,F3,354.0,2.0,48,183.32
901,G#3,354.0,2.0,48,183.32
902,E-5,356.0,1.0,68,183.32
903,E-4,356.0,1.0,68,183.32
904,G3,356.0,1.0,42,183.32
905,E-3,356.0,1.0,42,183.32
906,D5,357.0,0.25,66,183.32
907,D4,357.0,0.25,66,183.32
908,D3,357.0,2.0,51,183.32
909,F3,357.0,2.0,51,183.32
910,C5,358.0,1.0,69,183.32
911,C4,358.0,1.0,69,183.32
912,C5,359.0,1.0,69,183.32
913,C4,359.0,1.0,69,183.32
914,E-3,359.0,1.0,45,183.32
915,C3,359.0,1.0,45,183.32
916,B3,360.0,0.25,69,183.32
917,B4,360.0,0.25,69,183.32
918,D3,360.0,1.0,52,183.32
919,B2,360.0,1.0,52,183.32
920,G#3,361.0,1.0,68,183.32
921,G#4,361.0,1.0,68,183.32
922,G#3,362.0,1.0,68,183.32
923,G#4,362.0,1.0,68,183.32
924,G3,363.0,0.5,63,183.32
925,G4,363.0,0.5,63,183.32
926,G#3,365.0,1.0,30,183.32
927,F3,365.0,1.0,30,183.32
928,D3,365.0,1.0,30,183.32
929,B2,365.0,1.0,30,183.32
930,B3,366.0,333/1000,42,183.32
931,G3,366.0,0.25,30,183.32
932,E-3,366.0,0.25,30,183.32
933,C3,366.0,0.25,30,183.32
934,D4,366.333,333/1000,35,183.32
935,F4,366.667,333/1000,35,183.32
936,G#4,367.0,333/1000,43,183.32
937,G4,367.333,333/1000,36,183.32
938,F4,367.667,333/1000,36,183.32
939,E-4,368.0,0.25,43,183.32
940,D3,371.0,1.0,30,183.32
941,G#2,371.0,1.0,30,183.32
942,F2,371.0,1.0,30,183.32
943,F3,372.0,333/1000,42,183.32
944,C3,372.0,0.25,30,183.32
945,G2,372.0,0.25,30,183.32
946,E-3,372.0,0.25,30,183.32
947,G#3,372.333,333/1000,35,183.32
948,D4,372.667,333/1000,35,183.32
949,F4,373.0,333/1000,43,183.32
950,E-4,373.333,333/1000,36,183.32
951,D4,373.667,333/1000,36,183.32
952,C4,374.0,0.25,43,183.32
953,G2,377.0,0.5,73,183.32
954,G1,377.0,0.5,73,183.32
955,G3,378.0,333/1000,66,183.32
956,G2,378.0,1.5,70,183.32
957,C2,378.0,1.5,70,183.32
958,C3,378.0,1.5,70,183.32
959,E-2,378.0,1.5,70,183.32
960,B3,378.333,333/1000,69,183.32
961,D4,378.667,333/1000,72,183.32
962,F4,379.0,333/1000,75,183.32
963,D4,379.333,333/1000,67,183.32
964,B3,379.667,333/1000,67,183.32
965,G3,380.0,1.5,84,183.32
966,E-3,380.0,1.5,84,183.32
967,C4,380.0,1.5,84,183.32
968,C4,381.75,0.25,70,183.32
969,G4,382.0,0.75,78,183.32
970,E-4,382.75,0.25,70,183.32
971,C5,383.0,0.75,85,183.32
972,C3,383.0,0.25,62,183.32
973,G3,383.0,0.25,62,183.32
974,E-3,383.0,0.25,62,183.32
975,G4,383.75,0.25,72,183.32
976,E-5,384.0,0.75,80,183.32
977,B2,384.0,0.25,62,183.32
978,D3,384.0,0.25,62,183.32
979,G3,384.0,0.25,62,183.32
980,C5,384.75,0.25,83,183.32
981,G5,385.0,0.25,88,183.32
982,G4,385.0,0.25,88,183.32
983,G5,386.0,0.25,88,183.32
984,G4,386.0,0.25,88,183.32
985,B3,387.75,0.25,70,183.32
986,G4,388.0,0.75,78,183.32
987,D4,388.75,0.25,70,183.32
988,B4,389.0,0.75,85,183.32
989,G3,389.0,0.25,62,183.32
990,B2,389.0,0.25,62,183.32
991,D3,389.0,0.25,62,183.32
992,G4,389.75,0.25,74,183.32
993,D5,390.0,0.75,86,183.32
994,G3,390.0,0.25,62,183.32
995,C3,390.0,0.25,62,183.32
996,E-3,390.0,0.25,62,183.32
997,B4,390.75,0.25,83,183.32
998,G5,391.0,0.25,88,183.32
999,G4,391.0,0.25,88,183.32
1000,G5,392.0,0.25,88,183.32
1001,G4,392.0,0.25,88,183.32
1002,E-4,393.75,0.25,70,183.32
1003,G4,394.0,0.75,78,183.32
1004,E-4,394.75,0.25,70,183.32
1005,C5,395.0,0.75,85,183.32
1006,E-3,395.0,0.25,62,183.32
1007,C4,395.0,0.25,62,183.32
1008,G3,395.0,0.25,62,183.32
1009,G4,395.75,0.25,74,183.32
1010,E-5,396.0,0.75,86,183.32
1011,G#3,396.0,0.25,62,183.32
1012,D4,396.0,0.25,62,183.32
1013,F3,396.0,0.25,62,183.32
1014,C5,396.75,0.25,83,183.32
1015,G5,397.0,0.75,90,183.32
1016,E-5,397.75,0.25,83,183.32
1017,D5,398.0,0.25,96,183.32
1018,F6,399.0,0.25,96,183.32
1019,D4,399.0,0.25,62,183.32
1020,B3,399.0,0.25,62,183.32
1021,G3,399.0,0.25,62,183.32
1022,B4,401.0,0.25,96,183.32
1023,D6,402.0,0.25,96,183.32
1024,G3,402.0,0.25,61,183.32
1025,C3,402.0,0.25,61,183.32
1026,C4,402.0,0.25,61,183.32
1027,E-3,402.0,0.25,61,183.32
1028,C5,404.0,0.25,96,183.32
1029,C6,405.0,0.25,96,183.32
1030,E-4,408.0,3.0,69,183.32
1031,C#4,411.0,3.0,50,183.32
1032,E-4,411.0,3.0,69,183.32
1033,G4,414.0,2.0,50,183.32
1034,C4,414.0,3.0,49,183.32
1035,E-4,414.0,3.0,69,183.32
1036,E-5,415.0,1.0,45,183.32
1037,G#4,416.0,3.0,42,183.32
1038,E-5,416.0,2.0,50,183.32
1039,C#4,417.0,3.0,31,183.32
1040,B-3,417.0,3.0,31,183.32
1041,E-5,418.0,1.0,45,183.32
1042,G4,419.0,3.0,42,183.32
1043,E-5,419.0,1.0,45,183.32
1044,F5,420.0,1.0,45,183.32
1045,G#3,420.0,3.0,30,183.32
1046,E-4,420.0,3.0,30,183.32
1047,C#5,421.0,1.0,44,183.32
1048,G#4,422.0,3.0,42,183.32
1049,C#5,422.0,1.0,44,183.32
1050,B4,423.0,1.0,45,183.32
1051,B-4,423.0,3.0,50,183.32
1052,C5,423.0,3.0,60,183.32
1053,C5,424.0,1.0,45,183.32
1054,E5,426.0,2.0,50,183.32
1055,G#4,426.0,3.0,49,183.32
1056,C5,426.0,3.0,60,183.32
1057,C6,427.0,1.0,45,183.32
1058,F5,428.0,3.0,42,183.32
1059,C6,428.0,2.0,50,183.32
1060,G4,429.0,3.0,31,183.32
1061,B-4,429.0,3.0,31,183.32
1062,C6,430.0,1.0,45,183.32
1063,E5,431.0,3.0,42,183.32
1064,C6,431.0,1.0,45,183.32
1065,C#6,432.0,1.0,45,183.32
1066,F4,432.0,3.0,30,183.32
1067,G#4,432.0,3.0,30,183.32
1068,B-5,433.0,1.0,44,183.32
1069,C5,434.0,3.0,42,183.32
1070,B-5,434.0,1.0,44,183.32
1071,G5,435.0,1.0,45,183.32
1072,F#4,435.0,3.0,50,183.32
1073,G#4,435.0,3.0,60,183.32
1074,G#5,436.0,1.0,45,183.32
1075,C5,438.0,2.0,50,183.32
1076,F4,438.0,3.0,49,183.32
1077,G#4,438.0,3.0,60,183.32
1078,G#5,439.0,1.0,45,183.32
1079,C#5,440.0,3.0,42,183.32
1080,G#5,440.0,2.0,50,183.32
1081,E-4,441.0,3.0,44,183.32
1082,F#4,441.0,3.0,44,183.32
1083,G#5,442.0,1.0,45,183.32
1084,C5,443.0,3.0,42,183.32
1085,G#5,443.0,1.0,45,183.32
1086,B-5,444.0,1.0,45,183.32
1087,C#4,444.0,3.0,30,183.32
1088,F4,444.0,3.0,30,183.32
1089,F#5,445.0,1.0,44,183.32
1090,G#4,446.0,3.0,49,183.32
1091,F#5,446.0,1.0,44,183.32
1092,E5,447.0,1.0,52,183.32
1093,B3,447.0,3.0,45,183.32
1094,E-4,447.0,3.0,45,183.32
1095,F5,448.0,1.0,52,183.32
1096,A4,449.0,3.0,50,183.32
1097,F5,449.0,1.0,52,183.32
1098,F#5,450.0,1.0,55,183.32
1099,B-3,450.0,3.0,33,183.32
1100,E-5,451.0,1.0,50,183.32
1101,F4,452.0,3.0,42,183.32
1102,E-5,452.0,1.0,50,183.32
1103,E-5,453.0,1.0,45,183.32
1104,A3,453.0,3.0,33,183.32
1105,D5,454.0,1.0,45,183.32
1106,F#4,455.0,2.0,42,183.32
1107,D5,455.0,1.0,45,183.32
1108,E-5,456.0,1.0,45,183.32
1109,B-2,456.0,3.0,33,183.32
1110,F3,457.0,1.0,33,183.32
1111,E-4,457.0,1.0,30,183.32
1112,F#4,457.0,1.0,30,183.32
1113,G3,458.0,1.0,37,183.32
1114,D4,458.0,1.0,35,183.32
1115,F4,458.0,1.0,35,183.32
1116,G#3,459.0,1.0,41,183.32
1117,B-2,459.0,3.0,33,183.32
1118,E3,460.0,1.0,33,183.32
1119,F3,461.0,1.0,35,183.32
1120,C5,462.0,0.5,38,183.32
1121,B-2,462.0,3.0,42,183.32
1122,G3,462.0,1.0,42,183.32
1123,C5,463.0,0.5,38,183.32
1124,D3,463.0,1.0,33,183.32
1125,C5,464.0,1.0,46,183.32
1126,E-3,464.0,1.0,33,183.32
1127,B-4,465.0,1.0,38,183.32
1128,F3,465.0,1.0,40,183.32
1129,B-2,465.0,3.0,42,183.32
1130,C3,466.0,1.0,33,183.32
1131,D3,467.0,1.0,33,183.32
1132,G#4,468.0,0.5,38,183.32
1133,B-2,468.0,3.0,39,183.32
1134,E-3,468.0,1.0,39,183.32
1135,G#4,469.0,0.5,38,183.32
1136,F3,469.0,1.0,33,183.32
1137,G#4,470.0,1.0,43,183.32
1138,G3,470.0,1.0,36,183.32
1139,G4,471.0,1.0,38,183.32
1140,G#3,471.0,1.0,40,183.32
1141,B-2,471.0,3.0,39,183.32
1142,E3,472.0,1.0,33,183.32
1143,F3,473.0,1.0,33,183.32
1144,C5,473.5,0.5,37,183.32
1145,B4,474.0,0.5,38,183.32
1146,G3,474.0,1.0,42,183.32
1147,B-2,474.0,3.0,42,183.32
1148,C5,474.5,0.5,34,183.32
1149,D5,475.0,0.5,43,183.32
1150,D3,475.0,1.0,33,183.32
1151,C5,475.5,0.5,38,183.32
1152,E-3,476.0,1.0,33,183.32
1153,B-4,476.5,0.5,36,183.32
1154,A4,477.0,0.5,38,183.32
1155,F3,477.0,1.0,40,183.32
1156,B-2,477.0,3.0,42,183.32
1157,B-4,477.5,0.5,36,183.32
1158,C5,478.0,0.5,44,183.32
1159,C3,478.0,1.0,33,183.32
1160,B-4,478.5,0.5,38,183.32
1161,D3,479.0,1.0,33,183.32
1162,G#4,479.5,0.5,36,183.32
1163,G4,480.0,0.5,38,183.32
1164,E-3,480.0,0.5,40,183.32
1165,G#4,480.5,0.5,35,183.32
1166,B-3,480.5,0.5,28,183.32
1167,B-4,481.0,0.5,44,183.32
1168,G3,481.0,0.5,33,183.32
1169,G#4,481.5,0.5,37,183.32
1170,B-3,481.5,0.5,27,183.32
1171,G4,482.0,3.0,46,183.32
1172,F3,482.029,0.5,33,183.32
1173,B-3,482.5,0.5,30,183.32
1174,E-3,483.0,0.5,38,183.32
1175,B-3,483.5,0.5,33,183.32
1176,F3,484.0,0.5,45,183.32
1177,B-3,484.5,0.5,37,183.32
1178,G4,485.0,1.5,46,183.32
1179,G3,485.0,0.5,48,183.32
1180,B-3,485.5,0.5,43,183.32
1181,F3,486.0,0.5,55,183.32
1182,B-4,486.5,0.5,56,183.32
1183,B-3,486.5,0.5,40,183.32
1184,E-5,487.0,979/1000,62,183.32
1185,G3,487.0,0.5,48,183.32
1186,B-3,487.5,0.5,30,183.32
1187,E-5,488.0,3.0,63,183.32
1188,G#3,488.0,0.5,40,183.32
1189,B-3,488.5,0.5,33,183.32
1190,F3,489.0,0.5,39,183.32
1191,B-3,489.5,0.5,33,183.32
1192,G3,490.0,0.5,41,183.32
1193,B-3,490.5,0.5,33,183.32
1194,D5,491.0,1.0,57,183.32
1195,G#3,491.0,0.5,41,183.32
1196,B-3,491.5,0.5,33,183.32
1197,D3,492.0,0.5,40,183.32
1198,B-3,492.5,0.5,28,183.32
1199,F3,493.0,0.5,33,183.32
1200,B-3,493.5,0.5,27,183.32
1201,B-4,494.0,3.0,51,183.32
1202,E-3,494.0,0.5,38,183.32
1203,B-3,494.5,0.5,34,183.32
1204,D3,495.0,0.5,38,183.32
1205,B-3,495.5,0.5,34,183.32
1206,E-3,496.0,0.5,46,183.32
1207,B-3,496.5,0.5,39,183.32
1208,B-4,497.0,0.5,61,183.32
1209,F3,497.0,0.5,48,183.32
1210,C5,497.5,167/1000,57,183.32
1211,B-3,497.5,0.5,44,183.32
1212,B-4,497.667,167/1000,52,183.32
1213,A4,497.833,167/1000,52,183.32
1214,B-4,498.0,0.5,61,183.32
1215,E-3,498.0,0.5,55,183.32
1216,F5,498.5,0.5,65,183.32
1217,B-3,498.5,0.5,43,183.32
1218,G#5,499.0,1.0,75,183.32
1219,F3,499.0,0.5,52,183.32
1220,B-3,499.5,0.5,37,183.32
1221,G#5,500.0,3.0,78,183.32
1222,G3,500.0,0.5,46,183.32
1223,B-3,500.5,0.5,33,183.32
1224,E-3,501.0,0.5,44,183.32
1225,B-3,501.5,0.5,39,183.32
1226,F3,502.0,0.5,41,183.32
1227,B-3,502.5,0.5,33,183.32
1228,G5,503.0,1.0,69,183.32
1229,G3,503.0,0.5,41,183.32
1230,B-3,503.5,0.5,33,183.32
1231,E-3,504.0,0.5,40,183.32
1232,B-3,504.5,0.5,28,183.32
1233,G3,505.0,0.5,33,183.32
1234,B-3,505.5,0.5,27,183.32
1235,G4,506.0,0.25,56,183.32
1236,E-3,506.0,0.5,40,183.32
1237,G#4,506.5,0.25,58,183.32
1238,B-3,506.5,0.5,31,183.32
1239,B-4,507.0,0.25,60,183.32
1240,E-3,507.0,0.5,43,183.32
1241,C5,507.5,0.25,62,183.32
1242,B-3,507.5,0.5,38,183.32
1243,D5,508.0,0.25,64,183.32
1244,G3,508.0,0.5,52,183.32
1245,E-5,508.5,0.25,65,183.32
1246,B-3,508.5,0.5,45,183.32
1247,F5,509.0,0.25,68,183.32
1248,E-3,509.0,0.5,54,183.32
1249,G5,509.5,0.25,70,183.32
1250,B-3,509.5,0.5,47,183.32
1251,G#5,510.0,0.25,73,183.32
1252,F3,510.0,0.5,52,183.32
1253,B-5,510.5,0.25,76,183.32
1254,B-3,510.5,0.5,43,183.32
1255,C6,511.0,0.25,79,183.32
1256,G#3,511.0,0.5,51,183.32
1257,D6,511.5,0.25,81,183.32
1258,B-3,511.5,0.5,40,183.32
1259,E-6,512.0,3.0,88,183.32
1260,F3,512.0,0.5,46,183.32
1261,B-3,512.5,0.5,37,183.32
1262,F3,513.0,0.5,37,183.32
1263,B-3,513.5,0.5,31,183.32
1264,G#3,514.0,0.5,39,183.32
1265,B-3,514.5,0.5,31,183.32
1266,D6,515.0,1.0,81,183.32
1267,F3,515.0,0.5,39,183.32
1268,B-3,515.5,62/125,31,183.32
1269,D3,516.0,0.5,40,183.32
1270,B-3,516.5,0.5,32,183.32
1271,F3,517.0,0.5,39,183.32
1272,B-3,517.5,0.5,29,183.32
1273,B-3,518.0,0.25,56,183.32
1274,D3,518.0,0.5,45,183.32
1275,C4,518.5,0.25,58,183.32
1276,B-3,518.5,0.5,36,183.32
1277,D4,519.0,0.25,60,183.32
1278,D3,519.0,0.5,48,183.32
1279,E-4,519.5,0.25,62,183.32
1280,B-3,519.5,0.5,40,183.32
1281,F4,520.0,0.25,64,183.32
1282,F3,520.0,0.5,53,183.32
1283,G4,520.5,0.25,65,183.32
1284,B-3,520.5,0.5,45,183.32
1285,G#4,521.0,0.25,67,183.32
1286,D3,521.0,0.5,60,183.32
1287,B-4,521.5,0.25,70,183.32
1288,B-3,521.5,0.5,50,183.32
1289,C5,522.0,0.25,73,183.32
1290,D5,522.5,0.25,76,183.32
1291,E-3,522.5,0.5,43,183.32
1292,E-5,523.0,0.25,79,183.32
1293,D3,523.0,0.5,61,183.32
1294,F5,523.5,0.25,82,183.32
1295,E-3,523.5,0.5,48,183.32
1296,G5,524.0,3.0,89,183.32
1297,D3,524.0,0.5,60,183.32
1298,E-3,524.5,0.5,50,183.32
1299,G2,525.0,0.5,67,183.32
1300,E-3,525.5,0.5,45,183.32
1301,G#2,526.0,0.5,59,183.32
1302,E-3,526.5,0.5,51,183.32
1303,E-6,527.0,2.0,100,183.32
1304,B-2,527.0,0.5,60,183.32
1305,E-3,527.5,0.5,44,183.32
1306,G#2,528.0,0.5,65,183.32
1307,E-3,528.5,0.5,49,183.32
1308,G3,529.0,1.0,77,183.32
1309,B-2,529.0,0.5,60,183.32
1310,E-3,529.5,0.5,47,183.32
1311,G#3,530.0,3.0,82,183.32
1312,C3,530.0,0.5,59,183.32
1313,E-3,530.5,0.5,48,183.32
1314,A2,531.0,0.5,67,183.32
1315,E-3,531.5,0.5,49,183.32
1316,B-2,532.0,0.5,59,183.32
1317,E-3,532.5,0.5,47,183.32
1318,A3,533.0,3.0,84,183.32
1319,C3,533.0,0.5,57,183.32
1320,E-3,533.5,0.5,44,183.32
1321,B-2,534.0,0.5,64,183.32
1322,G3,534.5,0.5,46,183.32
1323,E-3,535.0,0.5,57,183.32
1324,G3,535.5,0.5,45,183.32
1325,B-3,536.0,3.0,84,183.32
1326,B-2,536.0,0.5,56,183.32
1327,G3,536.5,0.5,56,183.32
1328,B-2,537.0,0.5,64,183.32
1329,F3,537.5,0.5,46,183.32
1330,D3,538.0,0.5,56,183.32
1331,F3,538.5,0.5,45,183.32
1332,G#3,539.0,0.25,84,183.32
1333,B-2,539.0,0.5,58,183.32
1334,B-3,539.25,0.25,57,183.32
1335,G#3,539.5,167/1000,61,183.32
1336,F3,539.5,0.5,53,183.32
1337,B-3,539.667,167/1000,57,183.32
1338,G#3,539.833,167/1000,64,183.32
1339,B-3,540.0,167/1000,56,183.32
1340,E-2,540.0,1.0,64,183.32
1341,E-3,540.0,1.0,64,183.32
1342,G#3,540.167,167/1000,64,183.32
1343,B-3,540.333,167/1000,56,183.32
1344,G#3,540.5,167/1000,64,183.32
1345,B-3,540.667,167/1000,55,183.32
1346,G#3,540.833,167/1000,64,183.32
1347,B-3,541.0,0.25,54,183.32
1348,G#3,541.25,0.25,59,183.32
1349,G3,541.5,0.25,55,183.32
1350,G#3,541.75,0.25,57,183.32
1351,G3,542.0,0.5,74,183.32
1352,B-3,542.5,0.5,60,183.32
1353,E-4,543.0,0.5,68,183.32
1354,B-3,543.5,0.5,61,183.32
1355,E-4,544.0,0.5,69,183.32
1356,G4,544.5,0.5,63,183.32
1357,B-4,545.0,0.5,69,183.32
1358,G4,545.5,0.5,60,183.32
1359,B-4,546.0,0.5,69,183.32
1360,G2,546.0,0.5,67,183.32
1361,E-5,546.5,0.5,62,183.32
1362,E-3,546.5,0.5,45,183.32
1363,G5,547.0,0.5,78,183.32
1364,G#2,547.0,0.5,50,183.32
1365,B-5,547.5,0.5,73,183.32
1366,E-3,547.5,0.5,47,183.32
1367,E-6,548.0,0.5,89,183.32
1368,B-2,548.0,0.5,54,183.32
1369,E-3,548.5,0.5,44,183.32
1370,G2,549.0,0.5,67,183.32
1371,E-3,549.5,0.5,45,183.32
1372,E-4,550.0,1.0,84,183.32
1373,G#2,550.0,0.5,50,183.32
1374,E-3,550.5,0.5,47,183.32
1375,E-4,551.0,2.0,84,183.32
1376,B-2,551.0,0.5,54,183.32
1377,E-3,551.5,0.5,44,183.32
1378,G#2,552.0,0.5,65,183.32
1379,E-3,552.5,0.5,45,183.32
1380,G3,553.0,1.0,81,183.32
1381,B-2,553.0,0.5,59,183.32
1382,E-3,553.5,0.5,42,183.32
1383,G#3,554.0,2.0,84,183.32
1384,C3,554.0,0.5,58,183.32
1385,E-3,554.5,0.5,45,183.32
1386,A2,555.0,0.5,67,183.32
1387,E-3,555.5,0.5,45,183.32
1388,E-4,556.0,1.0,84,183.32
1389,B-2,556.0,0.5,60,183.32
1390,E-3,556.5,0.5,47,183.32
1391,A3,557.0,2.0,92,183.32
1392,C3,557.0,0.5,58,183.32
1393,E-3,557.5,0.5,44,183.32
1394,B-2,558.0,0.5,67,183.32
1395,E-3,558.5,0.5,53,183.32
1396,E-4,559.0,1.0,84,183.32
1397,D3,559.0,0.5,61,183.32
1398,E-3,559.5,0.5,48,183.32
1399,B-3,560.0,0.5,77,183.32
1400,B2,560.0,0.5,61,183.32
1401,E-4,560.5,0.5,60,183.32
1402,E-3,560.5,0.5,49,183.32
1403,D4,561.0,0.5,69,183.32
1404,C3,561.0,0.5,71,183.32
1405,E-4,561.5,0.5,55,183.32
1406,E-3,561.5,0.5,52,183.32
1407,B3,562.0,0.5,68,183.32
1408,D3,562.0,0.5,63,183.32
1409,E-4,562.5,0.5,61,183.32
1410,E-3,562.5,0.5,55,183.32
1411,C4,563.0,0.5,82,183.32
1412,A2,563.0,0.5,66,183.32
1413,E-4,563.5,0.5,63,183.32
1414,E-3,563.5,0.5,49,183.32
1415,D4,564.0,0.5,70,183.32
1416,B-2,564.0,0.5,77,183.32
1417,E-4,564.5,0.5,62,183.32
1418,E-3,564.5,0.5,56,183.32
1419,A3,565.0,0.5,70,183.32
1420,C#3,565.0,0.5,66,183.32
1421,E-4,565.5,0.5,61,183.32
1422,E-3,565.5,0.5,54,183.32
1423,B-3,566.0,0.5,88,183.32
1424,B2,566.0,0.5,67,183.32
1425,E-4,566.5,0.5,66,183.32
1426,E-3,566.5,0.5,56,183.32
1427,C#4,567.0,0.5,75,183.32
1428,C3,567.0,0.5,77,183.32
1429,E-4,567.5,0.5,62,183.32
1430,E-3,567.5,0.5,58,183.32
1431,B3,568.0,0.5,74,183.32
1432,D3,568.0,0.5,63,183.32
1433,E-4,568.5,0.5,65,183.32
1434,E-3,568.5,0.5,58,183.32
1435,C4,569.0,0.5,88,183.32
1436,A2,569.0,0.5,71,183.32
1437,E-4,569.5,0.5,65,183.32
1438,E-3,569.5,0.5,65,183.32
1439,D4,570.0,0.5,71,183.32
1440,B-2,570.0,1.0,82,183.32
1441,E-4,570.5,0.5,65,183.32
1442,A3,571.0,0.5,80,183.32
1443,B-2,571.0,0.25,80,183.32
1444,E-3,571.0,0.25,80,183.32
1445,G3,571.0,0.25,80,183.32
1446,E-4,571.5,0.5,72,183.32
1447,B-3,572.0,1.0,93,183.32
1448,E-4,573.75,0.25,81,183.32
1449,B-4,574.0,0.75,87,183.32
1450,E-3,574.0,0.25,80,183.32
1451,C3,574.0,0.25,80,183.32
1452,F#3,574.0,0.25,80,183.32
1453,G4,574.75,0.25,84,183.32
1454,E-5,575.0,0.25,93,183.32
1455,E-4,576.75,0.25,81,183.32
1456,A4,577.0,0.75,87,183.32
1457,G3,577.0,0.25,80,183.32
1458,B-2,577.0,0.25,80,183.32
1459,E-3,577.0,0.25,80,183.32
1460,F#4,577.75,0.25,84,183.32
1461,E-5,578.0,0.25,93,183.32
1462,E-4,579.75,0.25,81,183.32
1463,B-4,580.0,0.75,87,183.32
1464,A3,580.0,0.25,80,183.32
1465,E-3,580.0,0.25,80,183.32
1466,F#3,580.0,0.25,80,183.32
1467,A2,580.0,0.25,80,183.32
1468,G4,580.75,0.25,84,183.32
1469,E-5,581.0,0.25,93,183.32
1470,C5,582.75,0.25,81,183.32
1471,F#5,583.0,0.75,87,183.32
1472,B-2,583.0,0.25,80,183.32
1473,B-3,583.0,0.25,80,183.32
1474,G3,583.0,0.25,80,183.32
1475,E-3,583.0,0.25,80,183.32
1476,E-5,583.75,0.25,84,183.32
1477,G5,584.0,1.5,95,183.32
1478,E-5,585.5,0.5,85,183.32
1479,E-5,586.0,0.5,93,183.32
1480,B-4,586.5,0.375,79,183.32
1481,B-4,587.0,0.5,88,183.32
1482,G4,587.5,0.375,78,183.32
1483,G4,588.0,0.5,85,183.32
1484,B-3,588.0,0.5,81,183.32
1485,E-4,588.5,0.375,77,183.32
1486,G3,588.5,0.375,77,183.32
1487,E-4,589.0,0.5,81,183.32
1488,G3,589.0,0.5,82,183.32
1489,B-3,589.5,0.375,77,183.32
1490,E-3,589.5,0.375,77,183.32
1491,E-3,590.0,0.5,83,183.32
1492,B-2,590.5,0.375,77,183.32
1493,B-2,591.0,3.0,85,183.32
1494,B-1,591.0,3.0,85,183.32
1495,G#3,593.0,1.0,64,183.32
1496,F3,593.0,1.0,64,183.32
1497,G3,594.0,1.0,73,183.32
1498,E-2,594.0,1.0,73,183.32
1499,B-2,595.0,2.0,51,183.32
1500,B-3,595.0,1.0,72,183.32
1501,D4,595.0,1.0,72,183.32
1502,A2,596.0,1.0,51,183.32
1503,B-3,596.0,1.0,76,183.32
1504,E-4,596.0,1.0,76,183.32
1505,G#2,597.0,1.0,51,183.32
1506,B-2,597.0,3.0,51,183.32
1507,G2,598.0,1.0,49,183.32
1508,F2,599.0,1.0,49,183.32
1509,E-2,600.0,1.0,51,183.32
1510,B-4,600.0,1.0,45,183.32
1511,F4,600.0,1.0,45,183.32
1512,G#4,600.0,1.0,45,183.32
1513,D4,600.0,1.0,45,183.32
1514,G2,601.0,1.0,47,183.32
1515,D4,601.0,1.0,40,183.32
1516,F4,601.0,1.0,40,183.32
1517,G#4,601.0,1.0,40,183.32
1518,B-4,601.0,1.0,40,183.32
1519,C5,602.0,1.0,53,183.32
1520,B-2,602.0,1.0,47,183.32
1521,E-4,602.0,2.0,42,183.32
1522,G4,602.0,2.0,42,183.32
1523,B-4,603.0,1.0,49,183.32
1524,B-1,603.0,1.0,51,183.32
1525,F2,604.0,1.0,48,183.32
1526,B-2,605.0,1.0,48,183.32
1527,E-2,606.0,1.0,67,183.32
1528,F4,606.0,1.0,46,183.32
1529,G#4,606.0,1.0,46,183.32
1530,D5,606.0,1.0,46,183.32
1531,B-2,607.0,2.0,51,183.32
1532,F4,607.0,1.0,41,183.32
1533,G#4,607.0,1.0,41,183.32
1534,D5,607.0,1.0,41,183.32
1535,F5,608.0,1.0,53,183.32
1536,A2,608.0,1.0,51,183.32
1537,G4,608.0,2.0,42,183.32
1538,B-4,608.0,2.0,42,183.32
1539,E-5,609.0,1.0,49,183.32
1540,G#2,609.0,1.0,51,183.32
1541,B-2,609.0,3.0,51,183.32
1542,G2,610.0,1.0,49,183.32
1543,F2,611.0,1.0,49,183.32
1544,E-2,612.0,1.0,51,183.32
1545,D4,612.0,1.0,45,183.32
1546,F4,612.0,1.0,45,183.32
1547,G#4,612.0,1.0,45,183.32
1548,B-4,612.0,1.0,45,183.32
1549,G2,613.0,1.0,47,183.32
1550,B-4,613.0,1.0,40,183.32
1551,F4,613.0,1.0,40,183.32
1552,G#4,613.0,1.0,40,183.32
1553,D4,613.0,1.0,40,183.32
1554,C5,614.0,1.0,53,183.32
1555,B-2,614.0,1.0,47,183.32
1556,E-4,614.0,2.0,42,183.32
1557,G4,614.0,2.0,42,183.32
1558,B-4,615.0,1.0,49,183.32
1559,B-1,615.0,1.0,51,183.32
1560,F2,616.0,1.0,48,183.32
1561,B-2,617.0,1.0,48,183.32
1562,E-2,618.0,1.0,51,183.32
1563,F3,618.0,1.0,46,183.32
1564,G#3,618.0,1.0,46,183.32
1565,D4,618.0,1.0,46,183.32
1566,G2,619.0,1.0,47,183.32
1567,F3,619.0,1.0,41,183.32
1568,G#3,619.0,1.0,41,183.32
1569,D4,619.0,1.0,41,183.32
1570,F4,620.0,1.0,53,183.32
1571,B-2,620.0,1.0,47,183.32
1572,G3,620.0,2.0,42,183.32
1573,B-3,620.0,2.0,42,183.32
1574,E-4,621.0,1.0,49,183.32
1575,B-1,621.0,1.0,51,183.32
1576,F2,622.0,1.0,48,183.32
1577,B-2,623.0,1.0,48,183.32
1578,E-2,624.0,1.0,51,183.32
1579,F3,624.0,1.0,46,183.32
1580,G#3,624.0,1.0,46,183.32
1581,D4,624.0,1.0,46,183.32
1582,G2,625.0,1.0,47,183.32
1583,F3,625.0,1.0,41,183.32
1584,G#3,625.0,1.0,41,183.32
1585,D4,625.0,1.0,41,183.32
1586,B-2,626.0,1.0,47,183.32
1587,G#3,626.0,3.0,46,183.32
1588,D4,626.0,3.0,46,183.32
1589,F4,626.0,3.0,46,183.32
1590,E-3,627.0,1.0,42,183.32
1591,G3,627.0,1.0,42,183.32
1592,B-3,629.0,1.0,46,183.32
1593,E-4,629.0,1.0,46,183.32
1594,C4,630.0,1.5,62,183.32
1595,G3,630.0,1.5,62,183.32
1596,E3,630.0,1.5,62,183.32
1597,C3,630.0,1.5,62,183.32
1598,E4,632.0,1.5,73,183.32
1599,G4,632.0,1.5,73,183.32
1600,C5,632.0,1.5,73,183.32
1601,G4,633.75,0.25,70,183.32
1602,E5,634.0,0.75,78,183.32
1603,C5,634.75,0.25,70,183.32
1604,G5,635.0,0.75,79,183.32
1605,E5,635.75,0.25,70,183.32
1606,C6,636.0,0.75,79,183.32
1607,G5,636.75,0.25,70,183.32
1608,E6,637.0,0.25,84,183.32
1609,E6,638.0,0.25,84,183.32
1610,E4,638.0,0.5,38,183.32
1611,G4,638.0,0.5,38,183.32
1612,G4,639.0,2.0,38,183.32
1613,E4,639.0,2.0,38,183.32
1614,C5,640.0,0.5,42,183.32
1615,E5,640.0,0.5,42,183.32
1616,C5,641.0,2.0,46,183.32
1617,E5,641.0,2.0,46,183.32
1618,F4,641.0,979/1000,35,183.32
1619,G#4,641.0,979/1000,35,183.32
1620,F4,642.0,1.5,38,183.32
1621,G#4,642.0,1.5,38,183.32
1622,D5,643.0,979/1000,42,183.32
1623,B4,643.0,979/1000,42,183.32
1624,B4,644.0,1.5,46,183.32
1625,D5,644.0,1.5,46,183.32
1626,B4,645.75,0.25,70,183.32
1627,F5,646.0,0.75,78,183.32
1628,D5,646.75,0.25,70,183.32
1629,B5,647.0,0.75,79,183.32
1630,F5,647.75,0.25,70,183.32
1631,D6,648.0,0.75,79,183.32
1632,B5,648.75,0.25,70,183.32
1633,F6,649.0,0.25,84,183.32
1634,F6,650.0,0.25,84,183.32
1635,F4,650.0,0.5,38,183.32
1636,G#4,650.0,0.5,38,183.32
1637,G#4,651.0,2.0,38,183.32
1638,F4,651.0,2.0,38,183.32
1639,D5,652.0,0.5,42,183.32
1640,F5,652.0,0.5,42,183.32
1641,D5,653.0,2.0,46,183.32
1642,F5,653.0,2.0,46,183.32
1643,G4,653.0,979/1000,35,183.32
1644,B-4,653.0,979/1000,35,183.32
1645,G4,654.0,1.5,38,183.32
1646,B-4,654.0,1.5,38,183.32
1647,E5,655.0,979/1000,42,183.32
1648,C#5,655.0,979/1000,42,183.32
1649,C#5,656.0,1.5,46,183.32
1650,E5,656.0,1.5,46,183.32
1651,B-4,657.75,0.25,70,183.32
1652,E5,658.0,0.75,78,183.32
1653,C#5,658.75,0.25,70,183.32
1654,G5,659.0,0.75,84,183.32
1655,E5,659.75,0.25,70,183.32
1656,B-5,660.0,0.75,85,183.32
1657,G5,660.75,0.25,70,183.32
1658,C#6,661.0,0.25,89,183.32
1659,G4,662.0,0.25,87,183.32
1660,B-5,663.0,0.25,86,183.32
1661,E4,665.0,0.25,85,183.32
1662,G5,666.0,0.25,79,183.32
1663,F3,666.0,0.5,40,183.32
1664,C4,666.5,0.5,32,183.32
1665,G#3,667.0,0.5,34,183.32
1666,C4,667.5,0.5,32,183.32
1667,F3,668.0,0.5,34,183.32
1668,F4,668.0,3.0,46,183.32
1669,F5,668.0,3.0,46,183.32
1670,C4,668.5,0.5,32,183.32
1671,F3,669.0,0.5,40,183.32
1672,C4,669.5,0.5,33,183.32
1673,G#3,670.0,0.5,34,183.32
1674,C4,670.5,0.5,32,183.32
1675,F3,671.0,0.5,35,183.32
1676,C6,671.0,1979/1000,49,183.32
1677,C5,671.0,1979/1000,49,183.32
1678,C4,671.5,0.5,32,183.32
1679,G3,672.0,0.5,40,183.32
1680,C4,672.5,0.5,32,183.32
1681,B-3,673.0,0.5,34,183.32
1682,C6,673.0,979/1000,46,183.32
1683,C5,673.0,979/1000,46,183.32
1684,C4,673.5,0.5,32,183.32
1685,G3,674.0,0.5,37,183.32
1686,C6,674.0,1.0,50,183.32
1687,C5,674.0,1.0,50,183.32
1688,C4,674.5,0.5,32,183.32
1689,E3,675.0,0.5,32,183.32
1690,B5,675.0,1.0,46,183.32
1691,B4,675.0,1.0,46,183.32
1692,C4,675.5,0.5,32,183.32
1693,G3,676.0,0.5,35,183.32
1694,C#6,676.0,1.0,46,183.32
1695,C#5,676.0,1.0,46,183.32
1696,C4,676.5,0.5,32,183.32
1697,E3,677.0,0.5,37,183.32
1698,C5,677.0,1.0,46,183.32
1699,C6,677.0,1.0,46,183.32
1700,C4,677.5,0.5,32,183.32
1701,C3,678.0,0.5,40,183.32
1702,B-5,678.0,1.0,46,183.32
1703,B-4,678.0,1.0,46,183.32
1704,C4,678.5,0.5,31,183.32
1705,E3,679.0,0.5,36,183.32
1706,G5,679.0,1.0,46,183.32
1707,G4,679.0,1.0,46,183.32
1708,C4,679.5,0.5,32,183.32
1709,G3,680.0,0.5,38,183.32
1710,E5,680.0,2.0,52,183.32
1711,E4,680.0,2.0,52,183.32
1712,C4,680.5,0.5,33,183.32
1713,E3,681.0,0.5,45,183.32
1714,C4,681.5,0.5,35,183.32
1715,G3,682.0,0.5,38,183.32
1716,G4,682.0,1.0,54,183.32
1717,G5,682.0,1.0,54,183.32
1718,C4,682.5,0.5,31,183.32
1719,B-3,683.0,0.5,37,183.32
1720,C6,683.0,2.0,60,183.32
1721,C5,683.0,2.0,60,183.32
1722,C4,683.5,0.5,31,183.32
1723,F3,684.0,0.5,45,183.32
1724,C4,684.5,0.5,31,183.32
1725,G#3,685.0,0.5,36,183.32
1726,G5,685.0,1.0,54,183.32
1727,G4,685.0,1.0,54,183.32
1728,C4,685.5,0.5,31,183.32
1729,F3,686.0,0.5,36,183.32
1730,B-4,686.0,3.0,59,183.32
1731,B-5,686.0,3.0,59,183.32
1732,C4,686.5,0.5,31,183.32
1733,F3,687.0,0.5,40,183.32
1734,C4,687.5,0.5,30,183.32
1735,E3,688.0,0.5,42,183.32
1736,F3,688.5,0.5,40,183.32
1737,E-3,689.0,0.5,49,183.32
1738,G#5,689.0,1.0,54,183.32
1739,G#4,689.0,1.0,54,183.32
1740,F3,689.5,0.5,43,183.32
1741,C#3,690.0,0.5,52,183.32
1742,F3,690.5,0.5,38,183.32
1743,C3,691.0,0.5,43,183.32
1744,A4,691.0,1.0,52,183.32
1745,A5,691.0,1.0,52,183.32
1746,F3,691.5,0.5,32,183.32
1747,C#3,692.0,0.5,38,183.32
1748,B-4,692.0,3.0,57,183.32
1749,B-5,692.0,3.0,57,183.32
1750,F3,692.5,0.5,32,183.32
1751,B-2,693.0,0.5,45,183.32
1752,F3,693.5,0.5,33,183.32
1753,C3,694.0,0.5,34,183.32
1754,F3,694.5,0.5,32,183.32
1755,C#3,695.0,0.5,35,183.32
1756,F6,695.0,1979/1000,61,183.32
1757,F5,695.0,1979/1000,61,183.32
1758,F3,695.5,0.5,32,183.32
1759,C3,696.0,0.5,46,183.32
1760,F3,696.5,0.5,32,183.32
1761,E-3,697.0,0.5,34,183.32
1762,F6,697.0,979/1000,57,183.32
1763,F5,697.0,979/1000,57,183.32
1764,F3,697.5,0.5,32,183.32
1765,C3,698.0,0.5,37,183.32
1766,F6,698.0,1.0,62,183.32
1767,F5,698.0,1.0,62,183.32
1768,F3,698.5,0.5,32,183.32
1769,A2,699.0,0.5,40,183.32
1770,E6,699.0,1.0,57,183.32
1771,E5,699.0,1.0,57,183.32
1772,F3,699.5,0.5,32,183.32
1773,C3,700.0,0.5,35,183.32
1774,F#6,700.0,1.0,57,183.32
1775,F#5,700.0,1.0,57,183.32
1776,F3,700.5,0.5,32,183.32
1777,A2,701.0,0.5,37,183.32
1778,F5,701.0,1.0,57,183.32
1779,F6,701.0,1.0,57,183.32
1780,F3,701.5,0.5,32,183.32
1781,F2,702.0,0.5,40,183.32
1782,E-6,702.0,1.0,57,183.32
1783,E-5,702.0,1.0,57,183.32
1784,F3,702.5,0.5,31,183.32
1785,A2,703.0,0.5,45,183.32
1786,C6,703.0,1.0,57,183.32
1787,C5,703.0,1.0,57,183.32
1788,F3,703.5,0.5,37,183.32
1789,C3,704.0,0.5,46,183.32
1790,A5,704.0,2.0,64,183.32
1791,A4,704.0,2.0,64,183.32
1792,F3,704.5,0.5,39,183.32
1793,A2,705.0,0.5,51,183.32
1794,F3,705.5,0.5,44,183.32
1795,C3,706.0,0.5,38,183.32
1796,C5,706.0,1.0,67,183.32
1797,C6,706.0,1.0,67,183.32
1798,F3,706.5,0.5,31,183.32
1799,E-3,707.0,0.5,37,183.32
1800,F6,707.0,2.0,74,183.32
1801,F5,707.0,2.0,74,183.32
1802,F3,707.5,0.5,31,183.32
1803,B-2,708.0,0.5,45,183.32
1804,F3,708.5,0.5,31,183.32
1805,C#3,709.0,0.5,36,183.32
1806,C6,709.0,1.0,67,183.32
1807,C5,709.0,1.0,67,183.32
1808,F3,709.5,0.5,31,183.32
1809,B-2,710.0,0.5,36,183.32
1810,E-5,710.0,3.0,74,183.32
1811,E-6,710.0,3.0,74,183.32
1812,F3,710.5,0.5,31,183.32
1813,B-2,711.0,0.5,40,183.32
1814,F3,711.5,0.5,30,183.32
1815,C#3,712.0,0.5,33,183.32
1816,F3,712.5,0.5,30,183.32
1817,B-2,713.0,0.5,33,183.32
1818,C#6,713.0,1.0,66,183.32
1819,C#5,713.0,1.0,66,183.32
1820,F3,713.5,0.5,30,183.32
1821,G#2,714.0,0.5,40,183.32
1822,F#3,714.5,0.5,32,183.32
1823,C#5,715.0,1.0,61,183.32
1824,E-3,715.0,0.5,48,183.32
1825,F#3,715.5,0.5,40,183.32
1826,C5,716.0,2.0,67,183.32
1827,G#2,716.0,0.5,51,183.32
1828,F#3,716.5,0.5,46,183.32
1829,G#2,717.0,0.5,52,183.32
1830,F#3,717.5,0.5,40,183.32
1831,E-5,718.0,0.25,61,183.32
1832,C3,718.0,0.5,40,183.32
1833,F5,718.25,167/1000,57,183.32
1834,E-5,718.417,167/1000,61,183.32
1835,F#3,718.5,0.5,35,183.32
1836,D5,718.583,167/1000,65,183.32
1837,E-5,718.75,0.25,69,183.32
1838,G#5,719.0,2.0,74,183.32
1839,G#2,719.0,0.5,40,183.32
1840,F#3,719.5,0.5,34,183.32
1841,C#3,720.0,1.0,40,183.32
1842,F3,720.0,1.0,40,183.32
1843,E-5,721.0,1.0,66,183.32
1844,F5,722.0,1.0,70,183.32
1845,E5,723.0,1.0,61,183.32
1846,G#4,723.0,1.0,45,183.32
1847,F#5,724.0,1.0,61,183.32
1848,F#4,724.0,1.0,38,183.32
1849,F5,725.0,1.0,70,183.32
1850,E-4,725.0,1.0,38,183.32
1851,E-5,726.0,1.0,61,183.32
1852,F4,726.0,1.0,45,183.32
1853,C5,727.0,1.0,61,183.32
1854,E4,727.0,1.0,38,183.32
1855,G#5,728.0,1.0,70,183.32
1856,F#4,728.0,1.0,38,183.32
1857,G5,729.0,1.0,61,183.32
1858,F4,729.0,1.0,45,183.32
1859,B-5,730.0,1.0,61,183.32
1860,E-4,730.0,1.0,38,183.32
1861,G#5,731.0,1.0,70,183.32
1862,C4,731.0,1.0,38,183.32
1863,F#5,732.0,1.0,61,183.32
1864,C#4,732.0,1.0,45,183.32
1865,E-5,733.0,1.0,61,183.32
1866,C4,733.0,1.0,38,183.32
1867,F5,734.0,1.0,70,183.32
1868,E-4,734.0,1.0,38,183.32
1869,E5,735.0,1.0,61,183.32
1870,C#4,735.0,1.0,45,183.32
1871,F#5,736.0,1.0,61,183.32
1872,C4,736.0,1.0,38,183.32
1873,F5,737.0,1.0,70,183.32
1874,A3,737.0,1.0,38,183.32
1875,E-5,738.0,1.0,61,183.32
1876,B-3,738.0,1.0,45,183.32
1877,C5,739.0,1.0,61,183.32
1878,C#4,739.0,1.0,37,183.32
1879,C#5,740.0,3.0,66,183.32
1880,G#3,740.0,1.0,37,183.32
1881,G3,741.0,1.0,45,183.32
1882,B-3,742.0,1.0,43,183.32
1883,F3,743.0,1.0,48,183.32
1884,B-5,743.0,1979/1000,64,183.32
1885,C#5,743.0,1979/1000,64,183.32
1886,E3,744.0,1.0,53,183.32
1887,G3,745.0,1.0,44,183.32
1888,B-5,745.0,979/1000,67,183.32
1889,C#5,745.0,979/1000,67,183.32
1890,D3,746.0,1.0,44,183.32
1891,B-5,746.0,3.0,70,183.32
1892,C5,746.0,3.0,70,183.32
1893,C3,747.0,1.0,52,183.32
1894,D3,748.0,1.0,44,183.32
1895,E3,749.0,1.0,44,183.32
1896,F3,750.0,1.0,53,183.32
1897,G#3,751.0,1.0,45,183.32
1898,B-5,751.0,2.0,70,183.32
1899,C5,751.0,2.0,70,183.32
1900,E-3,752.0,1.0,45,183.32
1901,D3,753.0,1.0,45,183.32
1902,G4,753.0,1.0,66,183.32
1903,B-4,753.0,1.0,66,183.32
1904,F3,754.0,1.0,43,183.32
1905,F4,754.0,3.0,64,183.32
1906,G#4,754.0,3.0,64,183.32
1907,C3,755.0,1.0,48,183.32
1908,B2,756.0,1.0,56,183.32
1909,D3,757.0,1.0,46,183.32
1910,G#5,757.0,1979/1000,70,183.32
1911,F5,757.0,1979/1000,70,183.32
1912,A2,758.0,1.0,46,183.32
1913,G2,759.0,1.0,55,183.32
1914,F5,759.0,1.0,74,183.32
1915,G#5,759.0,1.0,74,183.32
1916,A2,760.0,1.0,48,183.32
1917,G5,760.0,3.0,77,183.32
1918,F5,760.0,3.0,77,183.32
1919,B2,761.0,1.0,48,183.32
1920,C3,762.0,1.0,62,183.32
1921,E-3,763.0,1.0,52,183.32
1922,B-2,764.0,1.0,52,183.32
1923,G#2,765.0,1.0,61,183.32
1924,G5,765.0,2.0,77,183.32
1925,F5,765.0,2.0,77,183.32
1926,C3,766.0,1.0,53,183.32
1927,G2,767.0,1.0,53,183.32
1928,D4,767.0,1.0,66,183.32
1929,F4,767.0,1.0,66,183.32
1930,F2,768.0,1.0,61,183.32
1931,C4,768.0,1.0,64,183.32
1932,E-4,768.0,1.0,64,183.32
1933,G#2,769.0,1.0,53,183.32
1934,E-2,770.0,1.0,53,183.32
1935,D2,771.0,1.0,70,183.32
1936,C5,771.0,1979/1000,76,183.32
1937,C6,771.0,1979/1000,76,183.32
1938,E-5,771.0,1979/1000,76,183.32
1939,F2,772.0,1.0,60,183.32
1940,C2,773.0,1.0,60,183.32
1941,C5,773.0,979/1000,75,183.32
1942,E-5,773.0,979/1000,75,183.32
1943,C6,773.0,979/1000,75,183.32
1944,B1,774.0,1.0,70,183.32
1945,C5,774.0,3.0,81,183.32
1946,C6,774.0,3.0,81,183.32
1947,G#5,774.0,3.0,81,183.32
1948,D2,775.0,1.0,60,183.32
1949,A1,776.0,1.0,60,183.32
1950,G1,777.0,1.0,66,183.32
1951,F5,777.0,1979/1000,87,183.32
1952,F6,777.0,1979/1000,87,183.32
1953,G#5,777.0,1979/1000,87,183.32
1954,A1,778.0,1.0,57,183.32
1955,B1,779.0,1.0,57,183.32
1956,F5,779.0,979/1000,86,183.32
1957,G#5,779.0,979/1000,86,183.32
1958,F6,779.0,979/1000,86,183.32
1959,C2,780.0,1.0,62,183.32
1960,G5,780.0,3.0,91,183.32
1961,F5,780.0,3.0,91,183.32
1962,F6,780.0,3.0,91,183.32
1963,D6,780.0,3.0,91,183.32
1964,D2,781.0,1.0,57,183.32
1965,E-2,782.0,1.0,62,183.32
1966,F2,783.0,2.0,57,183.32
1967,F#2,785.0,1.0,50,183.32
1968,G5,785.0,2.0,91,183.32
1969,F5,785.0,2.0,91,183.32
1970,F6,785.0,2.0,91,183.32
1971,D6,785.0,2.0,91,183.32
1972,G2,786.0,0.5,57,183.32
1973,G3,787.0,1.0,54,183.32
1974,D5,787.0,1.0,73,183.32
1975,F5,787.0,1.0,73,183.32
1976,C5,788.0,2.0,78,183.32
1977,E-5,788.0,2.0,78,183.32
1978,G3,790.0,1.0,45,183.32
1979,G4,790.0,1.0,70,183.32
1980,E-5,790.0,1.0,70,183.32
1981,G#4,792.0,2.0,80,183.32
1982,G4,792.0,1.0,70,183.32
1983,E-5,792.0,1.0,70,183.32
1984,G3,793.0,1.0,46,183.32
1985,F4,793.0,1.0,68,183.32
1986,D5,793.0,1.0,68,183.32
1987,E-4,794.0,1.0,64,183.32
1988,A4,794.0,1.0,64,183.32
1989,C5,794.0,1.0,64,183.32
1990,D4,795.0,1.0,68,183.32
1991,G4,795.0,1.0,68,183.32
1992,B4,795.0,1.0,68,183.32
1993,G3,796.0,1.0,47,183.32
1994,B4,797.0,1.0,51,183.32
1995,D5,797.0,1.0,51,183.32
1996,G5,797.0,1.0,51,183.32
1997,G#4,798.0,1.0,54,183.32
1998,C5,798.0,1.0,54,183.32
1999,F5,798.0,1.0,54,183.32
2000,G2,799.0,1.0,47,183.32
2001,G4,800.0,1.0,50,183.32
2002,B-4,800.0,1.0,50,183.32
2003,E-5,800.0,1.0,50,183.32
2004,F4,801.0,1.0,54,183.32
2005,G#4,801.0,1.0,54,183.32
2006,D5,801.0,1.0,54,183.32
2007,G2,802.0,1.0,39,183.32
2008,E-4,803.0,1.0,51,183.32
2009,G4,803.0,1.0,51,183.32
2010,C5,803.0,1.0,51,183.32
2011,D4,804.0,1.0,54,183.32
2012,F4,804.0,1.0,54,183.32
2013,B4,804.0,1.0,54,183.32
2014,G2,805.0,1.0,38,183.32
2015,C4,806.0,1.0,48,183.32
2016,E-4,806.0,1.0,48,183.32
2017,G#4,806.0,1.0,48,183.32
2018,B3,807.0,1.0,54,183.32
2019,D4,807.0,1.0,54,183.32
2020,G4,807.0,1.0,54,183.32
2021,G2,808.0,1.0,37,183.32
2022,B4,809.0,1.0,46,183.32
2023,D5,809.0,1.0,46,183.32
2024,G5,809.0,1.0,46,183.32
2025,G#4,810.0,1.0,48,183.32
2026,C5,810.0,1.0,48,183.32
2027,F5,810.0,1.0,48,183.32
2028,G1,811.0,1.0,36,183.32
2029,G2,811.0,1.0,36,183.32
2030,G4,812.0,1.0,43,183.32
2031,B-4,812.0,1.0,43,183.32
2032,E-5,812.0,1.0,43,183.32
2033,F4,813.0,1.0,46,183.32
2034,G#4,813.0,1.0,46,183.32
2035,D5,813.0,1.0,46,183.32
2036,G1,814.0,1.0,30,183.32
2037,G2,814.0,1.0,30,183.32
2038,E-4,815.0,1.0,42,183.32
2039,G4,815.0,1.0,42,183.32
2040,C5,815.0,1.0,42,183.32
2041,D4,816.0,1.0,44,183.32
2042,F4,816.0,1.0,44,183.32
2043,B4,816.0,1.0,44,183.32
2044,C3,816.0,1.5,62,183.32
2045,G2,816.0,1.5,62,183.32
2046,E-2,816.0,1.5,62,183.32
2047,C2,816.0,1.5,62,183.32
2048,C4,818.0,1.0,37,183.32
2049,E-4,818.0,1.0,37,183.32
2050,G#4,818.0,1.0,37,183.32
2051,B3,819.0,1.0,41,183.32
2052,D4,819.0,1.0,41,183.32
2053,G4,819.0,1.0,41,183.32
2054,C4,821.0,1.0,36,183.32
2055,G#3,821.0,1.0,36,183.32
2056,F4,821.0,1.0,36,183.32
2057,G3,822.0,1.0,38,183.32
2058,C4,822.0,1.0,38,183.32
2059,E-4,822.0,1.0,38,183.32
2060,F3,824.0,1.0,34,183.32
2061,B3,824.0,1.0,34,183.32
2062,D4,824.0,1.0,34,183.32
2063,C4,824.0,0.5,38,183.32
2064,E-4,824.0,0.5,38,183.32
2065,E-3,825.0,1.5,73,183.32
2066,G3,825.0,1.5,73,183.32
2067,C4,825.0,1.5,73,183.32
2068,E-4,825.0,2.0,38,183.32
2069,C4,825.0,2.0,38,183.32
2070,G4,826.75,0.25,70,183.32
2071,E-5,827.0,0.75,78,183.32
2072,D4,827.0,979/1000,35,183.32
2073,F4,827.0,979/1000,35,183.32
2074,C5,827.75,0.25,70,183.32
2075,G5,828.0,0.75,79,183.32
2076,F3,828.0,1.5,61,183.32
2077,B3,828.0,1.5,61,183.32
2078,G#3,828.0,1.5,61,183.32
2079,D4,828.0,1.5,61,183.32
2080,D3,828.0,1.5,61,183.32
2081,E-5,828.75,0.25,70,183.32
2082,C6,829.0,0.75,79,183.32
2083,G5,829.75,0.25,70,183.32
2084,E-6,830.0,0.25,84,183.32
2085,E-6,831.0,0.25,84,183.32
2086,G4,833.0,0.5,42,183.32
2087,C5,833.0,0.5,42,183.32
2088,G4,834.0,2.0,46,183.32
2089,C5,834.0,2.0,46,183.32
2090,G4,836.0,979/1000,42,183.32
2091,B4,836.0,979/1000,42,183.32
2092,D4,836.0,0.5,36,183.32
2093,G#4,836.0,0.5,36,183.32
2094,F4,836.0,0.5,36,183.32
2095,G#4,837.0,1.5,73,183.32
2096,F4,837.0,1.5,73,183.32
2097,B4,837.0,1.5,73,183.32
2098,G#4,837.0,2.0,36,183.32
2099,F4,837.0,2.0,36,183.32
2100,D4,837.0,2.0,36,183.32
2101,B4,838.75,0.25,70,183.32
2102,F5,839.0,0.75,78,183.32
2103,G4,839.0,1.0,35,183.32
2104,E-4,839.0,1.0,35,183.32
2105,D5,839.75,0.25,70,183.32
2106,B5,840.0,0.75,79,183.32
2107,F5,840.75,0.25,70,183.32
2108,D6,841.0,0.75,79,183.32
2109,B5,841.75,0.25,70,183.32
2110,F6,842.0,0.25,84,183.32
2111,C4,842.0,1.0,31,183.32
2112,G3,842.0,1.0,31,183.32
2113,E-3,842.0,1.0,31,183.32
2114,F6,843.0,0.25,84,183.32
2115,F3,843.0,2.0,35,183.32
2116,G#3,843.0,2.0,35,183.32
2117,B3,843.0,2.0,35,183.32
2118,B4,845.0,0.5,42,183.32
2119,D5,845.0,0.5,42,183.32
2120,C4,845.0,1.0,30,183.32
2121,G3,845.0,1.0,30,183.32
2122,E-3,845.0,1.0,30,183.32
2123,B4,846.0,2.0,46,183.32
2124,D5,846.0,2.0,46,183.32
2125,C5,848.0,0.75,46,183.32
2126,E-4,848.0,1.0,32,183.32
2127,G4,848.0,1.0,32,183.32
2128,C5,848.75,0.125,45,183.32
2129,E-5,848.875,0.125,48,183.32
2130,G5,849.0,1.5,53,183.32
2131,G#4,849.0,2.0,36,183.32
2132,F4,849.0,2.0,36,183.32
2133,F5,850.5,0.5,41,183.32
2134,E-5,851.0,1.0,51,183.32
2135,E-4,851.0,1.0,31,183.32
2136,G4,851.0,1.0,31,183.32
2137,D5,852.0,2.0,47,183.32
2138,C5,854.0,0.75,39,183.32
2139,G3,854.0,1.0,42,183.32
2140,C4,854.0,1.0,42,183.32
2141,E-3,854.0,1.0,42,183.32
2142,G4,854.75,83/1000,27,183.32
2143,C5,854.833,83/1000,45,183.32
2144,E-5,854.917,83/1000,48,183.32
2145,G5,855.0,1.5,53,183.32
2146,B3,855.0,2.0,48,183.32
2147,F3,855.0,2.0,48,183.32
2148,G#3,855.0,2.0,48,183.32
2149,F5,856.5,0.5,41,183.32
2150,C5,857.0,1.0,47,183.32
2151,E-5,857.0,1.0,47,183.32
2152,G3,857.0,1.0,42,183.32
2153,E-3,857.0,1.0,42,183.32
2154,B4,858.0,2.0,43,183.32
2155,D5,858.0,2.0,43,183.32
2156,D3,858.0,2.0,51,183.32
2157,F3,858.0,2.0,51,183.32
2158,C5,860.0,0.75,39,183.32
2159,E-3,860.0,1.0,45,183.32
2160,C3,860.0,1.0,45,183.32
2161,G4,860.75,83/1000,60,183.32
2162,C5,860.833,83/1000,63,183.32
2163,E-5,860.917,83/1000,69,183.32
2164,G4,861.0,1.5,75,183.32
2165,G5,861.0,1.5,75,183.32
2166,D3,861.0,1.0,52,183.32
2167,B2,861.0,1.0,52,183.32
2168,F5,862.5,0.5,56,183.32
2169,F4,862.5,0.5,56,183.32
2170,E-5,863.0,1.0,68,183.32
2171,E-4,863.0,1.0,68,183.32
2172,E-5,865.0,1.0,68,183.32
2173,E-4,865.0,1.0,68,183.32
2174,D5,866.0,0.25,66,183.32
2175,D4,866.0,0.25,66,183.32
2176,G#3,866.0,1.0,30,183.32
2177,F3,866.0,1.0,30,183.32
2178,D3,866.0,1.0,30,183.32
2179,B2,866.0,1.0,30,183.32
2180,C5,867.0,1.0,69,183.32
2181,C4,867.0,1.0,69,183.32
2182,G3,867.0,0.25,30,183.32
2183,E-3,867.0,0.25,30,183.32
2184,C3,867.0,0.25,30,183.32
2185,C5,868.0,1.0,69,183.32
2186,C4,868.0,1.0,69,183.32
2187,B3,869.0,0.25,69,183.32
2188,B4,869.0,0.25,69,183.32
2189,G#3,870.0,1.0,68,183.32
2190,G#4,870.0,1.0,68,183.32
2191,G#3,871.0,1.0,68,183.32
2192,G#4,871.0,1.0,68,183.32
2193,G3,872.0,0.5,62,183.32
2194,G4,872.0,0.5,62,183.32
2195,D3,872.0,1.0,30,183.32
2196,G#2,872.0,1.0,30,183.32
2197,F2,872.0,1.0,30,183.32
2198,C3,873.0,0.25,30,183.32
2199,G2,873.0,0.25,30,183.32
2200,E-3,873.0,0.25,30,183.32
2201,B3,875.0,333/1000,42,183.32
2202,D4,875.333,333/1000,35,183.32
2203,F4,875.667,333/1000,35,183.32
2204,G#4,876.0,333/1000,43,183.32
2205,G4,876.333,333/1000,36,183.32
2206,F4,876.667,333/1000,36,183.32
2207,E-4,877.0,0.25,43,183.32
2208,G2,878.0,0.5,73,183.32
2209,G1,878.0,0.5,73,183.32
2210,C2,879.0,0.5,74,183.32
2211,C3,879.0,0.5,74,183.32
2212,F3,881.0,333/1000,42,183.32
2213,G#3,881.333,333/1000,35,183.32
2214,D4,881.667,333/1000,35,183.32
2215,F4,882.0,333/1000,43,183.32
2216,E-4,882.333,333/1000,36,183.32
2217,D4,882.667,333/1000,36,183.32
2218,C4,883.0,0.25,43,183.32
2219,C#4,885.0,3.0,69,183.32
2220,G3,887.0,333/1000,66,183.32
2221,B3,887.333,333/1000,69,183.32
2222,D4,887.667,333/1000,72,183.32
2223,F4,888.0,333/1000,75,183.32
2224,B3,888.0,3.0,50,183.32
2225,C#4,888.0,3.0,69,183.32
2226,D4,888.333,333/1000,67,183.32
2227,B3,888.667,333/1000,71,183.32
2228,C4,889.0,0.5,94,183.32
2229,B-3,891.0,3.0,49,183.32
2230,C#4,891.0,3.0,69,183.32
2231,B3,894.0,3.0,31,183.32
2232,G#3,894.0,3.0,31,183.32
2233,F#3,897.0,3.0,30,183.32
2234,C#4,897.0,3.0,30,183.32
2235,F4,899.0,2.0,50,183.32
2236,C#5,900.0,1.0,45,183.32
2237,B4,900.0,3.0,50,183.32
2238,C#5,900.0,3.0,60,183.32
2239,F#4,901.0,3.0,42,183.32
2240,C#5,901.0,2.0,50,183.32
2241,C#5,903.0,1.0,45,183.32
2242,B-4,903.0,3.0,49,183.32
2243,C#5,903.0,3.0,60,183.32
2244,F4,904.0,3.0,42,183.32
2245,C#5,904.0,1.0,45,183.32
2246,E-5,905.0,1.0,45,183.32
2247,B4,906.0,1.0,44,183.32
2248,G#4,906.0,3.0,31,183.32
2249,B4,906.0,3.0,31,183.32
2250,F#4,907.0,3.0,42,183.32
2251,B4,907.0,1.0,44,183.32
2252,A4,908.0,1.0,45,183.32
2253,B-4,909.0,1.0,45,183.32
2254,F#4,909.0,3.0,30,183.32
2255,C#5,909.0,3.0,30,183.32
2256,F5,911.0,2.0,50,183.32
2257,C#6,912.0,1.0,45,183.32
2258,G#4,912.0,3.0,50,183.32
2259,B-4,912.0,3.0,60,183.32
2260,F#5,913.0,3.0,42,183.32
2261,C#6,913.0,2.0,50,183.32
2262,C#6,915.0,1.0,45,183.32
2263,F#4,915.0,3.0,49,183.32
2264,B-4,915.0,3.0,60,183.32
2265,F5,916.0,3.0,42,183.32
2266,C#6,916.0,1.0,45,183.32
2267,E-6,917.0,1.0,45,183.32
2268,B5,918.0,1.0,44,183.32
2269,F4,918.0,3.0,44,183.32
2270,G#4,918.0,3.0,44,183.32
2271,F#5,919.0,3.0,42,183.32
2272,B5,919.0,1.0,44,183.32
2273,A5,920.0,1.0,45,183.32
2274,B-5,921.0,1.0,45,183.32
2275,E-4,921.0,3.0,30,183.32
2276,F#4,921.0,3.0,30,183.32
2277,D5,923.0,2.0,50,183.32
2278,B-5,924.0,1.0,45,183.32
2279,C#4,924.0,3.0,45,183.32
2280,F4,924.0,3.0,45,183.32
2281,E-5,925.0,3.0,42,183.32
2282,B-5,925.0,2.0,50,183.32
2283,B-5,927.0,1.0,45,183.32
2284,G4,927.0,3.0,30,183.32
2285,C4,927.0,3.0,30,183.32
2286,D5,928.0,3.0,42,183.32
2287,B-5,928.0,1.0,45,183.32
2288,B5,929.0,1.0,45,183.32
2289,G#5,930.0,1.0,44,183.32
2290,B3,930.0,3.0,33,183.32
2291,B-4,931.0,3.0,49,183.32
2292,G#5,931.0,1.0,44,183.32
2293,F5,932.0,1.0,52,183.32
2294,F#5,933.0,1.0,52,183.32
2295,C4,933.0,1.0,42,183.32
2296,C3,933.0,3.0,33,183.32
2297,B4,934.0,3.0,50,183.32
2298,F#5,934.0,1.0,52,183.32
2299,G3,934.0,1.0,33,183.32
2300,G#5,935.0,1.0,55,183.32
2301,G#3,935.0,1.0,37,183.32
2302,F5,936.0,1.0,50,183.32
2303,B-3,936.0,1.0,41,183.32
2304,C3,936.0,3.0,33,183.32
2305,C5,937.0,3.0,42,183.32
2306,F5,937.0,1.0,50,183.32
2307,F3,937.0,1.0,33,183.32
2308,F5,938.0,1.0,45,183.32
2309,G3,938.0,1.0,35,183.32
2310,E5,939.0,1.0,45,183.32
2311,C3,939.0,3.0,42,183.32
2312,G#3,939.0,1.0,42,183.32
2313,G#4,940.0,2.0,42,183.32
2314,E5,940.0,1.0,45,183.32
2315,E3,940.0,1.0,33,183.32
2316,F5,941.0,1.0,45,183.32
2317,F3,941.0,1.0,33,183.32
2318,G3,942.0,1.0,40,183.32
2319,C3,942.0,3.0,42,183.32
2320,F4,942.0,1.0,30,183.32
2321,G#4,942.0,1.0,30,183.32
2322,D3,943.0,1.0,33,183.32
2323,E4,943.0,1.0,35,183.32
2324,G4,943.0,1.0,35,183.32
2325,E3,944.0,1.0,33,183.32
2326,C3,945.0,3.0,39,183.32
2327,F3,945.0,1.0,39,183.32
2328,G3,946.0,1.0,33,183.32
2329,C#5,947.0,0.5,38,183.32
2330,A3,947.0,1.0,36,183.32
2331,C#5,948.0,0.5,38,183.32
2332,B-3,948.0,1.0,40,183.32
2333,C3,948.0,3.0,39,183.32
2334,C#5,949.0,1.0,46,183.32
2335,F#3,949.0,1.0,33,183.32
2336,C5,950.0,1.0,38,183.32
2337,G3,950.0,1.0,33,183.32
2338,A3,951.0,1.0,42,183.32
2339,C3,951.0,3.0,42,183.32
2340,E3,952.0,1.0,33,183.32
2341,B-4,953.0,0.5,38,183.32
2342,F3,953.0,1.0,33,183.32
2343,B-4,954.0,0.5,38,183.32
2344,G3,954.0,1.0,40,183.32
2345,C3,954.0,3.0,42,183.32
2346,B-4,955.0,1.0,43,183.32
2347,D3,955.0,1.0,33,183.32
2348,A4,956.0,1.0,38,183.32
2349,E3,956.0,1.0,33,183.32
2350,F3,957.0,0.5,40,183.32
2351,C4,957.5,0.5,28,183.32
2352,A3,958.0,0.5,33,183.32
2353,D5,958.5,0.5,37,183.32
2354,C4,958.5,0.5,27,183.32
2355,C#5,959.0,0.5,38,183.32
2356,G3,959.029,0.5,33,183.32
2357,D5,959.5,0.5,34,183.32
2358,C4,959.5,0.5,30,183.32
2359,E5,960.0,0.5,43,183.32
2360,F3,960.0,0.5,38,183.32
2361,D5,960.5,0.5,38,183.32
2362,C4,960.5,0.5,28,183.32
2363,G3,961.0,0.5,43,183.32
2364,C5,961.5,0.5,36,183.32
2365,C4,961.5,0.5,38,183.32
2366,B4,962.0,0.5,38,183.32
2367,A3,962.0,0.5,51,183.32
2368,C5,962.5,0.5,36,183.32
2369,C4,962.5,0.5,41,183.32
2370,D5,963.0,0.5,44,183.32
2371,G3,963.0,0.5,53,183.32
2372,C5,963.5,0.5,38,183.32
2373,C4,963.5,0.5,40,183.32
2374,A3,964.0,0.5,45,183.32
2375,B-4,964.5,0.5,36,183.32
2376,C4,964.5,0.5,35,183.32
2377,A4,965.0,0.5,38,183.32
2378,B-3,965.0,0.5,40,183.32
2379,B-4,965.5,0.5,35,183.32
2380,C4,965.5,0.5,33,183.32
2381,C5,966.0,0.5,44,183.32
2382,G3,966.0,0.5,39,183.32
2383,B-4,966.5,0.5,37,183.32
2384,C4,966.5,0.5,33,183.32
2385,A4,967.0,3.0,46,183.32
2386,A3,967.0,0.5,41,183.32
2387,C4,967.5,0.5,33,183.32
2388,B-3,968.0,0.5,41,183.32
2389,C4,968.5,0.5,33,183.32
2390,E3,969.0,0.5,40,183.32
2391,C4,969.5,0.5,28,183.32
2392,A4,970.0,1.5,46,183.32
2393,G3,970.0,0.5,33,183.32
2394,C4,970.5,0.5,27,183.32
2395,F3,971.0,0.5,33,183.32
2396,C5,971.5,0.5,56,183.32
2397,C4,971.5,0.5,30,183.32
2398,F5,972.0,1.0,62,183.32
2399,E3,972.0,0.5,38,183.32
2400,C4,972.5,0.5,28,183.32
2401,F5,973.0,3.0,63,183.32
2402,F3,973.0,0.5,47,183.32
2403,C4,973.5,0.5,41,183.32
2404,G3,974.0,0.5,49,183.32
2405,C4,974.5,0.5,40,183.32
2406,F3,975.0,0.5,54,183.32
2407,C4,975.5,0.5,43,183.32
2408,E5,976.0,1.0,57,183.32
2409,G3,976.0,0.5,45,183.32
2410,C4,976.5,0.5,37,183.32
2411,A3,977.0,0.5,46,183.32
2412,C4,977.5,0.5,33,183.32
2413,F3,978.0,0.5,44,183.32
2414,C4,978.5,0.5,39,183.32
2415,C5,979.0,3.0,51,183.32
2416,G3,979.029,0.5,41,183.32
2417,C4,979.5,0.5,33,183.32
2418,A3,980.0,0.5,41,183.32
2419,C4,980.5,0.5,33,183.32
2420,F3,981.0,0.5,40,183.32
2421,C4,981.5,0.5,28,183.32
2422,C5,982.0,0.5,61,183.32
2423,A3,982.0,0.5,33,183.32
2424,D5,982.5,167/1000,57,183.32
2425,C4,982.5,0.5,27,183.32
2426,C5,982.667,167/1000,52,183.32
2427,B4,982.833,167/1000,52,183.32
2428,C5,983.0,0.5,61,183.32
2429,F3,983.0,0.5,34,183.32
2430,G5,983.5,0.5,71,183.32
2431,C4,983.5,0.5,31,183.32
2432,B-5,984.0,1.0,76,183.32
2433,F3,984.0,0.5,40,183.32
2434,C4,984.5,0.5,36,183.32
2435,B-5,985.0,3.0,78,183.32
2436,A3,985.0,0.5,48,183.32
2437,C4,985.5,0.5,40,183.32
2438,F3,986.0,0.5,51,183.32
2439,C4,986.5,0.5,42,183.32
2440,G3,987.0,0.5,59,183.32
2441,C4,987.5,0.5,47,183.32
2442,A5,988.0,1.0,69,183.32
2443,B-3,988.0,0.5,46,183.32
2444,C4,988.5,0.5,38,183.32
2445,G3,989.0,0.5,46,183.32
2446,C4,989.5,0.5,37,183.32
2447,G3,990.0,0.5,44,183.32
2448,C4,990.5,0.5,37,183.32
2449,A4,991.0,0.25,56,183.32
2450,B-3,991.0,0.5,47,183.32
2451,B-4,991.5,0.25,58,183.32
2452,C4,991.5,0.5,37,183.32
2453,C5,992.0,0.25,60,183.32
2454,G3,992.0,0.5,47,183.32
2455,D5,992.5,0.25,62,183.32
2456,C4,992.5,62/125,37,183.32
2457,E5,993.0,0.25,64,183.32
2458,E3,993.0,0.5,40,183.32
2459,F5,993.5,0.25,65,183.32
2460,C4,993.5,0.5,32,183.32
2461,G5,994.0,0.25,67,183.32
2462,G3,994.0,0.5,39,183.32
2463,A5,994.5,0.25,71,183.32
2464,C4,994.5,0.5,29,183.32
2465,B-5,995.0,0.25,74,183.32
2466,E3,995.0,0.5,40,183.32
2467,C6,995.5,0.25,77,183.32
2468,C4,995.5,0.5,31,183.32
2469,D6,996.0,0.25,80,183.32
2470,E3,996.0,0.5,46,183.32
2471,E6,996.5,0.25,83,183.32
2472,C4,996.5,0.5,41,183.32
2473,F6,997.0,3.0,90,183.32
2474,G3,997.0,0.5,52,183.32
2475,C4,997.5,0.5,40,183.32
2476,E3,998.0,0.5,57,183.32
2477,C4,998.5,0.5,44,183.32
2478,F3,999.0,0.5,45,183.32
2479,C4,999.5,0.5,36,183.32
2480,E6,1000.0,1.0,71,183.32
2481,G3,1000.0,0.5,49,183.32
2482,C4,1000.5,0.5,42,183.32
2483,G#3,1001.0,0.5,51,183.32
2484,C4,1001.5,0.5,44,183.32
2485,F3,1002.0,0.5,47,183.32
2486,C4,1002.5,0.5,37,183.32
2487,C4,1003.0,0.25,56,183.32
2488,G3,1003.0,0.5,41,183.32
2489,D4,1003.5,0.25,58,183.32
2490,C4,1003.5,0.5,37,183.32
2491,E4,1004.0,0.25,60,183.32
2492,G#3,1004.0,0.5,41,183.32
2493,F4,1004.5,0.25,62,183.32
2494,C4,1004.5,0.5,37,183.32
2495,G4,1005.0,0.25,64,183.32
2496,G3,1005.0,0.5,51,183.32
2497,A4,1005.5,0.25,65,183.32
2498,E-4,1005.5,0.5,36,183.32
2499,B-4,1006.0,0.25,71,183.32
2500,C4,1006.0,0.5,41,183.32
2501,C5,1006.5,0.25,71,183.32
2502,E-4,1006.5,0.5,36,183.32
2503,D5,1007.0,0.25,73,183.32
2504,G3,1007.0,0.5,41,183.32
2505,E5,1007.5,0.25,75,183.32
2506,E-4,1007.5,0.5,36,183.32
2507,F5,1008.0,0.25,82,183.32
2508,G3,1008.0,0.5,47,183.32
2509,G5,1008.5,0.25,84,183.32
2510,D4,1008.5,0.5,36,183.32
2511,G#5,1009.0,3.0,92,183.32
2512,B3,1009.0,0.5,42,183.32
2513,D4,1009.5,0.5,34,183.32
2514,G3,1010.0,0.5,40,183.32
2515,D4,1010.5,0.5,35,183.32
2516,C3,1011.0,0.5,60,183.32
2517,G3,1011.5,0.5,37,183.32
2518,G#5,1012.0,1.0,92,183.32
2519,E-3,1012.0,0.5,52,183.32
2520,G3,1012.5,0.5,36,183.32
2521,G5,1013.0,1.0,77,183.32
2522,D3,1013.029,0.5,52,183.32
2523,G3,1013.5,0.5,46,183.32
2524,F5,1014.0,1.0,77,183.32
2525,C3,1014.0,0.5,57,183.32
2526,G3,1014.5,0.5,46,183.32
2527,E-5,1015.0,2.25,84,183.32
2528,D3,1015.0,0.5,57,183.32
2529,G3,1015.5,0.5,50,183.32
2530,E-3,1016.0,0.5,61,183.32
2531,G3,1016.5,0.5,56,183.32
2532,D3,1017.0,0.5,66,183.32
2533,F5,1017.25,167/1000,57,183.32
2534,E-5,1017.417,167/1000,61,183.32
2535,G3,1017.5,0.5,43,183.32
2536,D5,1017.583,167/1000,65,183.32
2537,E-5,1017.75,0.25,69,183.32
2538,G5,1018.0,1.0,84,183.32
2539,E-3,1018.0,0.5,59,183.32
2540,G3,1018.5,0.5,51,183.32
2541,F5,1019.0,1.0,78,183.32
2542,F3,1019.0,0.5,60,183.32
2543,G3,1019.5,0.5,53,183.32
2544,D5,1020.0,1.0,78,183.32
2545,D3,1020.0,0.5,63,183.32
2546,G3,1020.5,0.5,44,183.32
2547,E-3,1021.0,0.5,54,183.32
2548,E-4,1021.0,3.0,78,183.32
2549,E-5,1021.0,3.0,78,183.32
2550,G3,1021.5,0.5,44,183.32
2551,F3,1022.0,0.5,54,183.32
2552,G3,1022.5,0.5,44,183.32
2553,B2,1023.0,0.5,54,183.32
2554,G3,1023.5,0.5,37,183.32
2555,D3,1024.0,0.5,44,183.32
2556,G3,1024.5,0.5,36,183.32
2557,C3,1025.0,0.5,44,183.32
2558,G3,1025.5,0.5,40,183.32
2559,E-4,1025.5,1.5,78,183.32
2560,E-5,1025.5,1.5,78,183.32
2561,B2,1026.0,0.5,51,183.32
2562,G3,1026.5,0.5,44,183.32
2563,C3,1027.0,0.5,57,183.32
2564,G4,1027.0,0.5,74,183.32
2565,G5,1027.0,0.5,74,183.32
2566,G3,1027.5,0.5,52,183.32
2567,C5,1027.5,1.0,84,183.32
2568,C6,1027.5,1.0,84,183.32
2569,D3,1028.0,0.5,61,183.32
2570,G3,1028.5,0.5,46,183.32
2571,C5,1028.5,3.0,86,183.32
2572,C6,1028.5,3.0,86,183.32
2573,C3,1029.0,0.5,69,183.32
2574,G3,1029.5,0.5,53,183.32
2575,D3,1030.0,0.5,60,183.32
2576,G3,1030.5,0.5,44,183.32
2577,E-3,1031.0,0.5,54,183.32
2578,G3,1031.5,0.5,44,183.32
2579,B4,1031.5,1.0,74,183.32
2580,B5,1031.5,1.0,74,183.32
2581,C3,1032.0,0.5,52,183.32
2582,G3,1032.5,0.5,44,183.32
2583,D3,1033.0,0.5,54,183.32
2584,G3,1033.5,0.5,44,183.32
2585,E-3,1034.0,0.5,54,183.32
2586,G3,1034.5,0.5,44,183.32
2587,G4,1034.5,3.0,78,183.32
2588,G5,1034.5,3.0,78,183.32
2589,C3,1035.0,0.5,54,183.32
2590,G3,1035.5,0.5,37,183.32
2591,E-3,1036.0,0.5,44,183.32
2592,G3,1036.5,0.5,36,183.32
2593,C3,1037.0,0.5,44,183.32
2594,G3,1037.5,0.5,40,183.32
2595,C3,1038.0,0.5,51,183.32
2596,G3,1038.5,0.5,42,183.32
2597,E-3,1039.0,0.5,51,183.32
2598,G4,1039.0,1.5,78,183.32
2599,G5,1039.0,1.5,78,183.32
2600,G3,1039.5,0.5,42,183.32
2601,C3,1040.0,0.5,60,183.32
2602,G3,1040.5,0.5,53,183.32
2603,D5,1040.5,0.5,74,183.32
2604,D6,1040.5,0.5,74,183.32
2605,D3,1041.0,0.5,66,183.32
2606,F5,1041.0,979/1000,84,183.32
2607,F6,1041.0,979/1000,84,183.32
2608,G3,1041.5,0.5,43,183.32
2609,F3,1042.0,0.5,54,183.32
2610,F5,1042.0,3.0,86,183.32
2611,F6,1042.0,3.0,86,183.32
2612,G3,1042.5,0.5,45,183.32
2613,D3,1043.0,0.5,54,183.32
2614,G3,1043.5,0.5,44,183.32
2615,D3,1044.0,0.5,52,183.32
2616,G3,1044.5,0.5,44,183.32
2617,F3,1045.0,0.5,54,183.32
2618,E-5,1045.0,1.0,77,183.32
2619,E-6,1045.0,1.0,77,183.32
2620,G3,1045.5,0.5,44,183.32
2621,D3,1046.0,0.5,54,183.32
2622,G3,1046.5,62/125,44,183.32
2623,B2,1047.0,0.5,54,183.32
2624,G3,1047.5,0.5,37,183.32
2625,E-4,1048.0,0.5,89,183.32
2626,D3,1048.0,0.5,49,183.32
2627,G4,1048.5,0.5,75,183.32
2628,G3,1048.5,0.5,36,183.32
2629,C5,1049.0,0.5,79,183.32
2630,B2,1049.0,0.5,50,183.32
2631,G4,1049.5,0.5,79,183.32
2632,G3,1049.5,0.5,40,183.32
2633,C5,1050.0,0.5,83,183.32
2634,B2,1050.0,0.5,58,183.32
2635,E-5,1050.5,0.5,89,183.32
2636,G3,1050.5,0.5,45,183.32
2637,C5,1051.0,0.5,89,183.32
2638,D3,1051.0,0.5,51,183.32
2639,E-5,1051.5,0.5,77,183.32
2640,G3,1051.5,0.5,45,183.32
2641,G5,1052.0,0.5,83,183.32
2642,B2,1052.0,0.5,56,183.32
2643,E-5,1052.5,0.5,89,183.32
2644,G3,1052.5,0.5,37,183.32
2645,G5,1053.0,0.5,83,183.32
2646,C6,1053.5,479/1000,89,183.32
2647,C3,1053.5,0.5,43,183.32
2648,C6,1054.0,3.0,98,183.32
2649,B2,1054.0,0.5,61,183.32
2650,C3,1054.5,0.5,44,183.32
2651,B2,1055.0,0.5,63,183.32
2652,C3,1055.5,0.5,50,183.32
2653,E2,1056.0,0.5,67,183.32
2654,C3,1056.5,0.5,52,183.32
2655,B5,1057.0,1.0,92,183.32
2656,F2,1057.0,0.5,57,183.32
2657,C3,1057.5,0.5,47,183.32
2658,G2,1058.0,0.5,61,183.32
2659,C3,1058.5,0.5,44,183.32
2660,F2,1059.0,0.5,65,183.32
2661,C3,1059.5,0.5,45,183.32
2662,G3,1060.0,0.5,80,183.32
2663,G2,1060.0,0.5,57,183.32
2664,B3,1060.5,0.5,67,183.32
2665,C3,1060.5,0.5,48,183.32
2666,D4,1061.0,0.5,71,183.32
2667,G#2,1061.0,0.5,56,183.32
2668,B3,1061.5,0.5,71,183.32
2669,C3,1061.5,0.5,50,183.32
2670,D4,1062.0,0.5,74,183.32
2671,F#2,1062.0,0.5,67,183.32
2672,G4,1062.5,0.5,80,183.32
2673,C3,1062.5,0.5,51,183.32
2674,D4,1063.0,0.5,80,183.32
2675,G2,1063.0,0.5,58,183.32
2676,G4,1063.5,0.5,69,183.32
2677,C3,1063.5,0.5,49,183.32
2678,B4,1064.0,0.5,74,183.32
2679,A2,1064.0,0.5,60,183.32
2680,G4,1064.5,0.5,80,183.32
2681,C3,1064.5,0.5,44,183.32
2682,B4,1065.0,0.5,74,183.32
2683,G2,1065.0,0.5,64,183.32
2684,D5,1065.5,0.5,80,183.32
2685,E-3,1065.5,0.5,51,183.32
2686,E-5,1066.0,1.0,86,183.32
2687,C3,1066.0,0.5,59,183.32
2688,E-3,1066.5,0.5,50,183.32
2689,G2,1067.0,0.5,57,183.32
2690,E-3,1067.5,0.5,46,183.32
2691,C6,1068.0,1.0,100,183.32
2692,G2,1068.0,0.5,64,183.32
2693,D3,1068.5,0.5,46,183.32
2694,C6,1069.0,2.0,100,183.32
2695,B2,1069.0,0.5,58,183.32
2696,D3,1069.5,0.5,47,183.32
2697,G2,1070.0,0.5,56,183.32
2698,D3,1070.5,0.5,46,183.32
2699,E3,1071.0,1.0,77,183.32
2700,C2,1071.0,1.0,64,183.32
2701,C3,1071.0,1.0,64,183.32
2702,F3,1072.0,3.0,82,183.32
2703,F#3,1075.0,3.0,84,183.32
2704,E-2,1077.0,0.5,67,183.32
2705,C3,1077.5,0.5,45,183.32
2706,G3,1078.0,3.0,84,183.32
2707,F2,1078.0,0.5,50,183.32
2708,C3,1078.5,0.5,47,183.32
2709,G2,1079.0,0.5,56,183.32
2710,C3,1079.5,0.5,50,183.32
2711,E2,1080.0,0.5,67,183.32
2712,C3,1080.5,0.5,45,183.32
2713,F3,1081.0,0.25,84,183.32
2714,F2,1081.0,0.5,61,183.32
2715,G3,1081.25,0.25,57,183.32
2716,F3,1081.5,167/1000,61,183.32
2717,C3,1081.5,0.5,47,183.32
2718,G3,1081.667,167/1000,57,183.32
2719,F3,1081.833,167/1000,64,183.32
2720,G3,1082.0,167/1000,56,183.32
2721,G2,1082.0,0.5,60,183.32
2722,F3,1082.167,167/1000,64,183.32
2723,G3,1082.333,167/1000,56,183.32
2724,F3,1082.5,167/1000,64,183.32
2725,C3,1082.5,0.5,44,183.32
2726,G3,1082.667,167/1000,55,183.32
2727,F3,1082.833,167/1000,64,183.32
2728,G3,1083.0,0.25,54,183.32
2729,F2,1083.0,0.5,65,183.32
2730,F3,1083.25,0.25,59,183.32
2731,E3,1083.5,0.25,55,183.32
2732,C3,1083.5,0.5,45,183.32
2733,F3,1083.75,0.25,57,183.32
2734,E-3,1084.0,0.5,74,183.32
2735,G2,1084.0,0.5,57,183.32
2736,G3,1084.5,0.5,60,183.32
2737,C3,1084.5,0.5,42,183.32
2738,C4,1085.0,0.5,68,183.32
2739,G#2,1085.0,0.5,58,183.32
2740,G3,1085.5,0.5,61,183.32
2741,C3,1085.5,0.5,45,183.32
2742,C4,1086.0,0.5,69,183.32
2743,F#2,1086.0,0.5,67,183.32
2744,E-4,1086.5,0.5,63,183.32
2745,C3,1086.5,0.5,51,183.32
2746,G4,1087.0,0.5,69,183.32
2747,G2,1087.0,0.5,58,183.32
2748,E-4,1087.5,0.5,60,183.32
2749,C3,1087.5,0.5,47,183.32
2750,G4,1088.0,0.5,73,183.32
2751,A2,1088.0,0.5,58,183.32
2752,C5,1088.5,0.5,68,183.32
2753,C3,1088.5,0.5,44,183.32
2754,E-5,1089.0,0.5,80,183.32
2755,G2,1089.0,0.5,67,183.32
2756,G5,1089.5,0.5,73,183.32
2757,C3,1089.5,0.5,51,183.32
2758,C6,1090.0,0.5,89,183.32
2759,B2,1090.0,0.5,57,183.32
2760,C3,1090.5,0.5,48,183.32
2761,G2,1091.0,0.5,61,183.32
2762,C3,1091.5,0.5,50,183.32
2763,C4,1092.0,1.0,84,183.32
2764,G#2,1092.0,0.5,71,183.32
2765,C3,1092.5,0.5,56,183.32
2766,C4,1093.0,2.0,84,183.32
2767,B2,1093.0,0.5,64,183.32
2768,C3,1093.5,0.5,55,183.32
2769,F#2,1094.0,0.5,65,183.32
2770,C3,1094.5,0.5,54,183.32
2771,E3,1095.0,1.0,81,183.32
2772,G2,1095.0,0.5,77,183.32
2773,C3,1095.5,0.5,58,183.32
2774,F3,1096.0,2.0,84,183.32
2775,B2,1096.0,0.5,68,183.32
2776,C3,1096.5,0.5,54,183.32
2777,E2,1097.0,0.5,65,183.32
2778,C3,1097.5,0.5,50,183.32
2779,C4,1098.0,1.0,84,183.32
2780,F2,1098.0,0.5,77,183.32
2781,C3,1098.5,0.5,51,183.32
2782,F#3,1099.0,2.0,92,183.32
2783,G#2,1099.0,0.5,63,183.32
2784,C3,1099.5,0.5,58,183.32
2785,F#2,1100.0,0.5,71,183.32
2786,C3,1100.5,0.5,65,183.32
2787,C4,1101.0,1.0,84,183.32
2788,G2,1101.0,1.0,82,183.32
2789,G3,1102.0,0.5,88,183.32
2790,G3,1102.0,0.25,80,183.32
2791,C4,1102.0,0.25,80,183.32
2792,E-4,1102.0,0.25,80,183.32
2793,C4,1102.5,0.5,62,183.32
2794,B3,1103.0,0.5,74,183.32
2795,C4,1103.5,0.5,62,183.32
2796,G3,1104.0,0.5,72,183.32
2797,C4,1104.5,0.5,62,183.32
2798,G#3,1105.0,0.5,82,183.32
2799,C4,1105.0,0.25,80,183.32
2800,G#3,1105.0,0.25,80,183.32
2801,E-4,1105.0,0.25,80,183.32
2802,C4,1105.5,0.5,62,183.32
2803,B3,1106.0,0.5,73,183.32
2804,C4,1106.5,0.5,64,183.32
2805,F#3,1107.0,0.5,73,183.32
2806,C4,1107.5,0.5,62,183.32
2807,G3,1108.0,0.5,88,183.32
2808,E-4,1108.0,0.25,80,183.32
2809,G3,1108.0,0.25,80,183.32
2810,C4,1108.0,0.25,80,183.32
2811,C4,1108.5,0.5,63,183.32
2812,B3,1109.0,0.5,73,183.32
2813,C4,1109.5,0.5,62,183.32
2814,E3,1110.0,0.5,74,183.32
2815,C4,1110.5,0.5,65,183.32
2816,F3,1111.0,0.5,88,183.32
2817,E-4,1111.0,0.25,80,183.32
2818,C4,1111.0,0.25,80,183.32
2819,F#3,1111.0,0.25,80,183.32
2820,C4,1111.5,0.5,64,183.32
2821,G#3,1112.0,0.5,71,183.32
2822,C4,1112.5,0.5,65,183.32
2823,F#3,1113.0,0.5,80,183.32
2824,C4,1113.5,0.5,72,183.32
2825,G3,1114.0,1.0,93,183.32
2826,G3,1114.0,0.25,80,183.32
2827,E-4,1114.0,0.25,80,183.32
2828,C4,1114.0,0.25,80,183.32
2829,G4,1115.75,0.25,81,183.32
2830,E-5,1116.0,0.75,87,183.32
2831,C5,1116.75,0.25,84,183.32
2832,F#5,1117.0,0.25,93,183.32
2833,F#4,1118.75,0.25,81,183.32
2834,E-5,1119.0,0.75,87,183.32
2835,C4,1119.0,0.5,81,183.32
2836,G3,1119.5,0.375,77,183.32
2837,C5,1119.75,0.25,84,183.32
2838,G5,1120.0,0.25,93,183.32
2839,G3,1120.0,0.5,82,183.32
2840,E-3,1120.5,0.375,77,183.32
2841,E-3,1121.0,0.5,83,183.32
2842,C3,1121.5,0.375,77,183.32
2843,G4,1121.75,0.25,81,183.32
2844,E-5,1122.0,0.75,87,183.32
2845,G2,1122.0,3.0,85,183.32
2846,G1,1122.0,3.0,85,183.32
2847,C5,1122.75,0.25,84,183.32
2848,A5,1123.0,0.25,93,183.32
2849,F3,1124.0,1.0,64,183.32
2850,D3,1124.0,1.0,64,183.32
2851,A4,1124.75,0.25,81,183.32
2852,E-5,1125.0,0.75,87,183.32
2853,E-3,1125.0,1.0,73,183.32
2854,C2,1125.0,1.0,73,183.32
2855,C5,1125.75,0.25,84,183.32
2856,G5,1126.0,1.5,95,183.32
2857,G2,1126.0,2.0,51,183.32
2858,F#2,1127.0,1.0,51,183.32
2859,E-5,1127.5,0.5,85,183.32
2860,E-5,1128.0,0.5,93,183.32
2861,F2,1128.0,1.0,51,183.32
2862,G2,1128.0,3.0,51,183.32
2863,C5,1128.5,0.375,79,183.32
2864,C5,1129.0,0.5,88,183.32
2865,E-2,1129.0,1.0,49,183.32
2866,G4,1129.5,0.375,78,183.32
2867,G4,1130.0,0.5,85,183.32
2868,D2,1130.0,1.0,49,183.32
2869,E-4,1130.5,0.375,77,183.32
2870,E-4,1131.0,0.5,81,183.32
2871,C2,1131.0,1.0,51,183.32
2872,C4,1131.5,0.375,77,183.32
2873,E-2,1132.0,1.0,47,183.32
2874,G2,1133.0,1.0,47,183.32
2875,G1,1134.0,1.0,51,183.32
2876,D2,1135.0,1.0,48,183.32
2877,G2,1136.0,1.0,48,183.32
2878,C2,1137.0,1.0,67,183.32
2879,G3,1137.0,1.0,72,183.32
2880,B3,1137.0,1.0,72,183.32
2881,G2,1138.0,2.0,51,183.32
2882,G3,1138.0,1.0,76,183.32
2883,C4,1138.0,1.0,76,183.32
2884,F#2,1139.0,1.0,51,183.32
2885,F2,1140.0,1.0,51,183.32
2886,G2,1140.0,3.0,51,183.32
2887,E-2,1141.0,1.0,49,183.32
2888,D2,1142.0,1.0,49,183.32
2889,G4,1142.0,1.0,45,183.32
2890,D4,1142.0,1.0,45,183.32
2891,F4,1142.0,1.0,45,183.32
2892,B3,1142.0,1.0,45,183.32
2893,C2,1143.0,1.0,51,183.32
2894,B3,1143.0,1.0,40,183.32
2895,D4,1143.0,1.0,40,183.32
2896,F4,1143.0,1.0,40,183.32
2897,G4,1143.0,1.0,40,183.32
2898,G#4,1144.0,1.0,53,183.32
2899,E-2,1144.0,1.0,47,183.32
2900,C4,1144.0,2.0,42,183.32
2901,E-4,1144.0,2.0,42,183.32
2902,G4,1145.0,1.0,49,183.32
2903,G2,1145.0,1.0,47,183.32
2904,G1,1146.0,1.0,51,183.32
2905,D2,1147.0,1.0,48,183.32
2906,G2,1148.0,1.0,48,183.32
2907,D4,1148.0,1.0,46,183.32
2908,F4,1148.0,1.0,46,183.32
2909,B4,1148.0,1.0,46,183.32
2910,C2,1149.0,1.0,51,183.32
2911,D4,1149.0,1.0,41,183.32
2912,F4,1149.0,1.0,41,183.32
2913,B4,1149.0,1.0,41,183.32
2914,D5,1150.0,1.0,53,183.32
2915,E-2,1150.0,1.0,47,183.32
2916,E-4,1150.0,2.0,42,183.32
2917,G4,1150.0,2.0,42,183.32
2918,C5,1151.0,1.0,49,183.32
2919,G2,1151.0,1.0,47,183.32
2920,G1,1152.0,1.0,51,183.32
2921,D2,1153.0,1.0,48,183.32
2922,G2,1154.0,1.0,48,183.32
2923,B3,1154.0,1.0,45,183.32
2924,D4,1154.0,1.0,45,183.32
2925,F4,1154.0,1.0,45,183.32
2926,G4,1154.0,1.0,45,183.32
2927,C2,1155.0,1.0,51,183.32
2928,G4,1155.0,1.0,40,183.32
2929,D4,1155.0,1.0,40,183.32
2930,F4,1155.0,1.0,40,183.32
2931,B3,1155.0,1.0,40,183.32
2932,G#4,1156.0,1.0,53,183.32
2933,C4,1156.0,2.0,42,183.32
2934,E-4,1156.0,2.0,42,183.32
2935,G4,1157.0,1.0,49,183.32
2936,G1,1158.0,1.0,63,183.32
2937,B1,1158.0,1.0,63,183.32
2938,D2,1158.0,1.0,63,183.32
2939,G2,1158.0,1.0,63,183.32
2940,D3,1160.0,1.0,46,183.32
2941,F3,1160.0,1.0,46,183.32
2942,B3,1160.0,1.0,46,183.32
2943,D3,1161.0,1.0,41,183.32
2944,F3,1161.0,1.0,41,183.32
2945,B3,1161.0,1.0,41,183.32
2946,C2,1161.0,1.0,63,183.32
2947,E-2,1161.0,1.0,63,183.32
2948,G2,1161.0,1.0,63,183.32
2949,C3,1161.0,1.0,63,183.32
2950,D4,1162.0,1.0,53,183.32
2951,E-3,1162.0,2.0,42,183.32
2952,G3,1162.0,2.0,42,183.32
2953,C4,1163.0,1.0,49,183.32
2954,D3,1166.0,1.0,46,183.32
2955,F3,1166.0,1.0,46,183.32
2956,B3,1166.0,1.0,46,183.32
2957,D3,1167.0,1.0,41,183.32
2958,F3,1167.0,1.0,41,183.32
2959,B3,1167.0,1.0,41,183.32
2960,E-3,1168.0,1.0,46,183.32
2961,G3,1168.0,1.0,46,183.32
2962,C4,1168.0,1.0,46,183.32
2963,G4,1171.0,1.0,86,183.32
2964,B4,1171.0,1.0,86,183.32
2965,D5,1171.0,1.0,86,183.32
2966,G5,1171.0,1.0,86,183.32
2967,C4,1174.0,1.0,86,183.32
2968,E-4,1174.0,1.0,86,183.32
2969,G4,1174.0,1.0,86,183.32
2970,C5,1174.0,1.0,86,183.32
