,note_name,start_time,duration,velocity,tempo
0,F5,1.25,0.25,45,85.5
1,G5,1.5,0.25,50,85.5
2,F5,1.75,0.25,46,85.5
3,E-5,2.0,0.25,50,85.5
4,B-3,2.0,0.5,42,85.5
5,D5,2.25,0.25,46,85.5
6,F4,2.25,0.25,34,85.5
7,C5,2.5,0.25,46,85.5
8,D4,2.5,0.5,38,85.5
9,B-4,2.75,0.25,46,85.5
10,F4,2.75,0.25,34,85.5
11,A4,3.0,0.5,50,85.5
12,E-4,3.0,0.25,38,85.5
13,C4,3.0,0.5,38,85.5
14,F4,3.25,0.25,34,85.5
15,B-4,3.5,0.5,47,85.5
16,D4,3.5,0.25,37,85.5
17,B-3,3.5,0.5,37,85.5
18,F4,3.75,0.25,34,85.5
19,B4,4.0,0.5,53,85.5
20,A3,4.0,2.0,43,85.5
21,E-4,4.0,2.0,43,85.5
22,F4,4.25,0.125,34,85.5
23,C5,4.5,0.75,49,85.5
24,F4,4.5,0.125,34,85.5
25,F4,4.75,0.125,34,85.5
26,F4,5.0,0.125,37,85.5
27,F#5,5.25,0.25,45,85.5
28,F4,5.25,0.125,34,85.5
29,A5,5.5,0.25,50,85.5
30,F4,5.5,0.125,34,85.5
31,G5,5.75,0.25,46,85.5
32,F4,5.75,0.125,34,85.5
33,F5,6.0,0.25,50,85.5
34,A3,6.0,0.5,42,85.5
35,E-5,6.25,0.25,46,85.5
36,F4,6.25,0.25,34,85.5
37,D5,6.5,0.25,46,85.5
38,E-4,6.5,0.5,38,85.5
39,C5,6.75,0.25,46,85.5
40,F4,6.75,0.25,34,85.5
41,B-4,7.0,0.5,50,85.5
42,D4,7.0,0.5,38,85.5
43,F4,7.25,0.25,34,85.5
44,C5,7.5,0.5,47,85.5
45,A3,7.5,0.5,37,85.5
46,F4,7.75,0.25,34,85.5
47,C#5,8.0,0.5,53,85.5
48,B-3,8.0,1.5,43,85.5
49,F4,8.25,0.125,34,85.5
50,D5,8.5,0.75,49,85.5
51,F4,8.5,0.125,34,85.5
52,F4,8.75,0.125,34,85.5
53,F4,9.0,0.125,37,85.5
54,F5,9.25,0.25,51,85.5
55,F4,9.25,0.125,34,85.5
56,G5,9.5,0.25,58,85.5
57,B3,9.5,0.5,34,85.5
58,D5,9.75,0.25,52,85.5
59,F4,9.75,0.125,34,85.5
60,F5,10.0,0.25,56,85.5
61,C4,10.0,0.5,42,85.5
62,E-5,10.25,0.25,52,85.5
63,F4,10.25,0.25,34,85.5
64,F5,10.5,0.25,57,85.5
65,A3,10.5,0.5,38,85.5
66,C5,10.75,0.25,52,85.5
67,F4,10.75,0.25,34,85.5
68,E-5,11.0,0.25,57,85.5
69,B-3,11.0,0.5,42,85.5
70,D5,11.25,0.25,52,85.5
71,F4,11.25,0.25,34,85.5
72,G5,11.5,0.25,59,85.5
73,B3,11.5,0.5,38,85.5
74,D5,11.75,0.25,52,85.5
75,F4,11.75,0.25,34,85.5
76,F5,12.0,0.25,62,85.5
77,C4,12.0,0.5,47,85.5
78,E-5,12.25,0.25,56,85.5
79,F4,12.25,0.25,34,85.5
80,F5,12.5,0.25,62,85.5
81,A3,12.5,0.5,42,85.5
82,C5,12.75,0.25,54,85.5
83,F4,12.75,0.25,34,85.5
84,D5,13.0,0.25,67,85.5
85,B-3,13.0,0.5,52,85.5
86,E-5,13.25,0.25,57,85.5
87,D4,13.25,0.25,38,85.5
88,E5,13.5,0.25,59,85.5
89,A3,13.5,0.5,47,85.5
90,F5,13.75,0.25,61,85.5
91,C4,13.75,0.25,42,85.5
92,F#5,14.0,0.25,67,85.5
93,G3,14.0,479/1000,58,85.5
94,G5,14.25,0.25,64,85.5
95,B-3,14.25,0.25,42,85.5
96,A5,14.5,0.25,67,85.5
97,G3,14.5,0.5,49,85.5
98,B-5,14.75,0.25,69,85.5
99,B-3,14.75,0.25,41,85.5
100,C6,15.0,0.25,70,85.5
101,C3,15.0,479/1000,63,85.5
102,C#6,15.25,0.25,74,85.5
103,B-3,15.25,0.25,39,85.5
104,D6,15.5,0.25,81,85.5
105,C3,15.5,0.5,43,85.5
106,E5,15.75,0.25,54,85.5
107,B-3,15.75,0.25,34,85.5
108,G5,16.0,0.5,58,85.5
109,F3,16.0,1.5,43,85.5
110,B-3,16.25,0.25,29,85.5
111,F5,16.5,0.5,53,85.5
112,A3,16.5,0.25,35,85.5
113,G3,16.75,0.25,29,85.5
114,A3,17.0,0.5,34,85.5
115,F4,17.25,0.25,42,85.5
116,F5,17.25,0.25,42,85.5
117,G4,17.5,0.25,46,85.5
118,G5,17.5,0.25,46,85.5
119,F4,17.75,0.25,42,85.5
120,F5,17.75,0.25,42,85.5
121,B-2,18.0,0.5,42,85.5
122,E-4,18.0,0.25,46,85.5
123,E-5,18.0,0.25,46,85.5
124,F3,18.25,0.25,34,85.5
125,D4,18.25,0.25,42,85.5
126,D5,18.25,0.25,42,85.5
127,D3,18.5,0.5,38,85.5
128,C4,18.5,0.25,42,85.5
129,C5,18.5,0.25,42,85.5
130,F3,18.75,0.25,34,85.5
131,B-3,18.75,0.25,42,85.5
132,B-4,18.75,0.25,42,85.5
133,E-3,19.0,0.25,38,85.5
134,C3,19.0,0.5,38,85.5
135,A3,19.0,0.5,42,85.5
136,A4,19.0,0.5,42,85.5
137,F3,19.25,0.25,34,85.5
138,D3,19.5,0.25,37,85.5
139,B-2,19.5,0.5,37,85.5
140,B-3,19.5,0.5,43,85.5
141,B-4,19.5,0.5,43,85.5
142,F3,19.75,0.25,34,85.5
143,B3,20.0,0.5,49,85.5
144,B4,20.0,0.5,49,85.5
145,A2,20.0,2.0,43,85.5
146,E-3,20.0,2.0,43,85.5
147,F3,20.25,0.125,34,85.5
148,F3,20.5,0.125,34,85.5
149,C4,20.5,0.75,45,85.5
150,C5,20.5,0.75,45,85.5
151,F3,20.75,0.125,34,85.5
152,F3,21.0,0.125,37,85.5
153,F3,21.25,0.125,34,85.5
154,F#4,21.25,0.25,42,85.5
155,F#5,21.25,0.25,42,85.5
156,F3,21.5,0.125,34,85.5
157,A4,21.5,0.25,46,85.5
158,A5,21.5,0.25,46,85.5
159,F3,21.75,0.125,34,85.5
160,G4,21.75,0.25,42,85.5
161,G5,21.75,0.25,42,85.5
162,A2,22.0,0.5,42,85.5
163,F4,22.0,0.25,46,85.5
164,F5,22.0,0.25,46,85.5
165,F3,22.25,0.25,34,85.5
166,E-4,22.25,0.25,42,85.5
167,E-5,22.25,0.25,42,85.5
168,E-3,22.5,0.5,38,85.5
169,D4,22.5,0.25,42,85.5
170,D5,22.5,0.25,42,85.5
171,F3,22.75,0.25,34,85.5
172,C4,22.75,0.25,42,85.5
173,C5,22.75,0.25,42,85.5
174,D3,23.0,0.5,38,85.5
175,B-3,23.0,0.5,46,85.5
176,B-4,23.0,0.5,46,85.5
177,F3,23.25,0.25,34,85.5
178,A2,23.5,0.5,37,85.5
179,C4,23.5,0.5,43,85.5
180,C5,23.5,0.5,43,85.5
181,F3,23.75,0.25,34,85.5
182,B-2,24.0,1.5,43,85.5
183,C#4,24.0,0.5,49,85.5
184,C#5,24.0,0.5,49,85.5
185,F3,24.25,0.125,34,85.5
186,F3,24.5,0.125,34,85.5
187,D4,24.5,0.75,45,85.5
188,D5,24.5,0.75,45,85.5
189,F3,24.75,0.125,34,85.5
190,F3,25.0,0.125,37,85.5
191,F5,25.25,0.25,56,85.5
192,F3,25.25,0.125,37,85.5
193,G#4,25.5,0.5,45,85.5
194,G5,25.5,0.25,63,85.5
195,B2,25.5,0.5,37,85.5
196,D5,25.75,0.25,57,85.5
197,F3,25.75,0.125,37,85.5
198,F5,26.0,0.25,62,85.5
199,G#4,26.0,0.5,45,85.5
200,C3,26.0,0.5,46,85.5
201,E-5,26.25,0.25,58,85.5
202,F3,26.25,0.25,38,85.5
203,A4,26.5,0.5,45,85.5
204,F5,26.5,0.25,63,85.5
205,F2,26.5,0.5,42,85.5
206,C5,26.75,0.25,58,85.5
207,F3,26.75,0.25,38,85.5
208,B-4,27.0,0.5,46,85.5
209,E-5,27.0,0.25,64,85.5
210,B-2,27.0,0.5,47,85.5
211,D5,27.25,0.25,59,85.5
212,F3,27.25,0.25,38,85.5
213,G#4,27.5,0.5,46,85.5
214,G5,27.5,0.25,67,85.5
215,B2,27.5,0.5,43,85.5
216,D5,27.75,0.25,59,85.5
217,F3,27.75,0.25,39,85.5
218,F5,28.0,0.25,71,85.5
219,G#4,28.0,0.5,46,85.5
220,C3,28.0,0.5,54,85.5
221,E-5,28.25,0.25,64,85.5
222,F3,28.25,0.25,39,85.5
223,A4,28.5,0.5,47,85.5
224,F5,28.5,0.25,71,85.5
225,F2,28.5,0.5,48,85.5
226,C5,28.75,0.25,63,85.5
227,F3,28.75,0.25,39,85.5
228,B-2,29.0,0.5,56,85.5
229,B-4,29.0,0.25,65,85.5
230,E-5,29.0,0.25,65,85.5
231,F3,29.25,0.25,41,85.5
232,D4,29.25,0.25,58,85.5
233,D5,29.25,0.25,58,85.5
234,G#2,29.5,0.5,50,85.5
235,E-4,29.5,0.25,62,85.5
236,E-5,29.5,0.25,62,85.5
237,B-2,29.75,0.25,45,85.5
238,F4,29.75,0.25,66,85.5
239,F5,29.75,0.25,66,85.5
240,G2,30.0,479/1000,65,85.5
241,F#4,30.0,0.25,74,85.5
242,F#5,30.0,0.25,74,85.5
243,B-2,30.25,0.25,53,85.5
244,G4,30.25,0.25,69,85.5
245,G5,30.25,0.25,69,85.5
246,E-2,30.5,0.5,61,85.5
247,A4,30.5,0.125,74,85.5
248,A5,30.5,0.125,74,85.5
249,E-3,30.75,0.25,53,85.5
250,B-4,30.75,0.125,76,85.5
251,B-5,30.75,0.125,76,85.5
252,F2,31.0,479/1000,56,85.5
253,B-3,31.0,0.5,70,85.5
254,B-4,31.0,0.5,70,85.5
255,D3,31.25,0.25,42,85.5
256,F2,31.5,0.5,49,85.5
257,C4,31.5,0.5,64,85.5
258,C5,31.5,0.5,64,85.5
259,A2,31.75,0.25,43,85.5
260,B-1,32.0,0.25,43,85.5
261,C#4,32.0,0.5,45,85.5
262,C#5,32.0,0.5,45,85.5
263,B-2,32.25,1.25,29,85.5
264,B-3,32.5,0.125,35,85.5
265,D4,32.5,0.625,42,85.5
266,D5,32.5,0.625,42,85.5
267,B-3,32.75,0.125,29,85.5
268,B-3,33.0,0.125,37,85.5
269,B-4,33.125,0.125,59,85.5
270,A4,33.25,0.125,61,85.5
271,B-3,33.25,0.125,35,85.5
272,B-4,33.375,0.125,62,85.5
273,B4,33.5,0.125,62,85.5
274,G#3,33.5,0.5,43,85.5
275,C5,33.625,0.125,64,85.5
276,C#5,33.75,0.125,65,85.5
277,B-3,33.75,0.25,39,85.5
278,D5,33.875,0.125,67,85.5
279,E-5,34.0,0.125,69,85.5
280,G3,34.0,0.5,52,85.5
281,E5,34.125,0.125,70,85.5
282,F5,34.25,0.125,71,85.5
283,B-3,34.25,0.25,46,85.5
284,F#5,34.375,0.125,73,85.5
285,G5,34.5,0.125,74,85.5
286,E-3,34.5,0.5,56,85.5
287,G#5,34.625,0.125,76,85.5
288,A5,34.75,0.125,77,85.5
289,E-4,34.75,0.25,50,85.5
290,B-5,34.875,0.125,78,85.5
291,B-4,35.0,1/10,53,85.5
292,F3,35.0,479/1000,35,85.5
293,C5,35.1,1/10,48,85.5
294,B-4,35.2,1/10,45,85.5
295,D4,35.25,0.25,29,85.5
296,A4,35.3,1/10,45,85.5
297,B-4,35.4,1/10,45,85.5
298,E-4,35.5,0.5,42,85.5
299,D5,35.5,0.375,52,85.5
300,F3,35.5,0.5,35,85.5
301,A3,35.75,0.25,29,85.5
302,C5,35.875,0.125,41,85.5
303,D4,36.0,0.5,46,85.5
304,B-4,36.0,0.5,46,85.5
305,B-2,36.0,0.5,36,85.5
306,B-3,36.0,0.5,36,85.5
307,F4,37.0,1.0,74,85.5
308,D5,37.0,1.0,74,85.5
309,B-3,37.0,1.0,55,85.5
310,D4,37.0,1.0,55,85.5
311,G4,38.0,1.0,45,85.5
312,C5,38.0,27/250,53,85.5
313,E-3,38.0,1.5,42,85.5
314,C4,38.0,1.5,42,85.5
315,D5,38.108,53/500,50,85.5
316,C5,38.215,27/250,53,85.5
317,D5,38.323,27/250,50,85.5
318,C5,38.431,53/500,53,85.5
319,B4,38.538,27/250,49,85.5
320,C5,38.646,53/500,49,85.5
321,D5,38.75,0.125,49,85.5
322,E-5,38.875,0.125,50,85.5
323,G4,39.0,0.5,57,85.5
324,E-4,39.5,0.5,50,85.5
325,A4,39.5,0.5,50,85.5
326,F3,39.5,0.5,38,85.5
327,C4,39.5,0.5,38,85.5
328,D4,40.0,1.0,47,85.5
329,B-4,40.0,0.5,56,85.5
330,B-2,40.0,0.5,46,85.5
331,B-3,40.0,0.5,46,85.5
332,F4,40.5,0.25,46,85.5
333,F4,41.0,1.0,74,85.5
334,D5,41.0,1.0,74,85.5
335,B-3,41.0,1.0,55,85.5
336,D4,41.0,1.0,55,85.5
337,G4,42.0,1.0,45,85.5
338,C5,42.0,0.25,63,85.5
339,E3,42.0,1.0,41,85.5
340,G3,42.0,1.0,41,85.5
341,D5,42.25,83/1000,56,85.5
342,C5,42.333,83/1000,56,85.5
343,B4,42.417,83/1000,56,85.5
344,C5,42.5,0.375,63,85.5
345,D5,42.875,0.125,58,85.5
346,E4,43.0,1.0,45,85.5
347,B-4,43.0,0.25,63,85.5
348,C3,43.0,1.0,41,85.5
349,C4,43.0,1.0,41,85.5
350,C5,43.25,83/1000,56,85.5
351,B-4,43.333,83/1000,56,85.5
352,A4,43.417,83/1000,56,85.5
353,B-4,43.5,0.375,63,85.5
354,C5,43.875,0.125,58,85.5
355,F4,44.0,1.0,47,85.5
356,B-4,44.0,0.5,56,85.5
357,F3,44.0,1.0,46,85.5
358,C4,44.0,1.0,46,85.5
359,A4,44.5,0.25,46,85.5
360,A2,45.0,1.0,62,85.5
361,F3,45.125,0.875,52,85.5
362,A3,45.25,0.75,54,85.5
363,A4,45.5,0.5,55,85.5
364,F5,45.625,0.375,64,85.5
365,A5,45.75,0.25,69,85.5
366,A4,46.0,0.5,55,85.5
367,F5,46.0,0.5,64,85.5
368,A5,46.0,0.5,69,85.5
369,B-2,46.0,1.0,65,85.5
370,F3,46.125,0.875,54,85.5
371,A3,46.25,0.75,57,85.5
372,A4,46.5,1.0,57,85.5
373,F5,46.625,0.875,68,85.5
374,A5,46.75,0.75,73,85.5
375,C3,47.0,1.0,68,85.5
376,F3,47.125,0.875,57,85.5
377,A3,47.25,0.75,59,85.5
378,A4,47.5,0.5,60,85.5
379,F5,47.625,0.375,71,85.5
380,A5,47.75,0.25,76,85.5
381,A4,48.0,0.5,60,85.5
382,F5,48.0,0.5,71,85.5
383,A5,48.0,0.5,76,85.5
384,D3,48.0,1.0,71,85.5
385,F3,48.125,0.875,59,85.5
386,A3,48.25,0.75,62,85.5
387,A4,48.5,0.5,63,85.5
388,F5,48.625,0.375,74,85.5
389,A5,48.75,0.25,79,85.5
390,A4,49.0,0.5,63,85.5
391,D4,49.0,1.0,53,85.5
392,F4,49.0,1.0,53,85.5
393,B4,49.5,0.5,59,85.5
394,F6,49.5,0.5,76,85.5
395,F5,49.5,0.5,76,85.5
396,B4,50.0,0.5,59,85.5
397,F6,50.0,0.5,76,85.5
398,F5,50.0,0.5,76,85.5
399,C4,50.0,1.0,59,85.5
400,G4,50.0,1.0,59,85.5
401,C5,50.5,0.25,58,85.5
402,E6,50.5,0.25,57,85.5
403,E5,50.5,0.25,57,85.5
404,F4,51.0,0.5,63,85.5
405,B-3,51.0,1.0,53,85.5
406,D4,51.0,1.0,53,85.5
407,D6,51.5,0.5,76,85.5
408,D5,51.5,0.5,76,85.5
409,E4,51.5,0.5,54,85.5
410,G4,51.5,0.5,54,85.5
411,A3,52.0,1.0,54,85.5
412,D6,52.0,0.5,76,85.5
413,D5,52.0,0.5,76,85.5
414,E4,52.0,0.5,54,85.5
415,G4,52.0,0.5,54,85.5
416,C6,52.5,0.25,57,85.5
417,C5,52.5,0.25,57,85.5
418,F4,52.5,0.25,54,85.5
419,A4,52.5,0.25,54,85.5
420,D4,53.0,0.5,63,85.5
421,G3,53.0,1.0,53,85.5
422,B-3,53.0,1.0,53,85.5
423,E4,53.5,0.5,59,85.5
424,B-5,53.5,0.5,76,85.5
425,B-4,53.5,0.5,76,85.5
426,B-5,54.0,0.25,76,85.5
427,B-4,54.0,0.25,76,85.5
428,C4,54.0,0.5,58,85.5
429,F4,54.0,0.5,58,85.5
430,F3,54.0,0.5,58,85.5
431,A4,54.25,0.5,57,85.5
432,A5,54.25,0.5,57,85.5
433,B-2,54.5,0.25,49,85.5
434,B-3,54.5,0.25,49,85.5
435,G4,54.75,0.5,60,85.5
436,G5,54.75,0.5,60,85.5
437,C3,55.0,0.25,56,85.5
438,A3,55.0,0.25,56,85.5
439,F4,55.25,0.5,57,85.5
440,F5,55.25,0.5,57,85.5
441,C3,55.5,0.25,50,85.5
442,E3,55.5,0.25,50,85.5
443,G4,55.75,0.25,56,85.5
444,G5,55.75,0.25,56,85.5
445,G#4,56.0,0.5,61,85.5
446,G#5,56.0,0.5,61,85.5
447,F2,56.0,0.5,56,85.5
448,F3,56.0,0.5,56,85.5
449,A4,56.5,0.5,56,85.5
450,A5,56.5,0.5,56,85.5
451,F4,57.0,1.0,57,85.5
452,A4,57.0,0.5,57,85.5
453,D3,57.0,1.0,58,85.5
454,F3,57.0,0.5,58,85.5
455,B4,57.5,0.5,49,85.5
456,G#3,57.5,0.5,52,85.5
457,F4,58.0,0.5,57,85.5
458,B4,58.0,0.5,49,85.5
459,C3,58.0,1.0,62,85.5
460,G#3,58.0,0.5,52,85.5
461,A3,58.5,0.25,58,85.5
462,C5,58.5,0.25,57,85.5
463,E4,58.5,0.25,57,85.5
464,D4,59.0,1.0,57,85.5
465,F4,59.0,0.5,57,85.5
466,B-2,59.0,1.0,58,85.5
467,D3,59.0,0.5,58,85.5
468,G4,59.5,0.5,49,85.5
469,E3,59.5,0.5,52,85.5
470,G#4,60.0,0.5,53,85.5
471,D4,60.0,0.5,57,85.5
472,A2,60.0,1.0,62,85.5
473,E3,60.0,0.5,52,85.5
474,F3,60.5,0.25,58,85.5
475,A4,60.5,0.25,57,85.5
476,C4,60.5,0.25,57,85.5
477,B-3,61.0,1.0,57,85.5
478,D4,61.0,0.5,57,85.5
479,G2,61.0,1.0,62,85.5
480,D3,61.0,0.5,58,85.5
481,E4,61.5,0.5,49,85.5
482,C#3,61.5,0.5,52,85.5
483,F4,62.0,0.25,53,85.5
484,B-3,62.0,0.25,57,85.5
485,F2,62.0,0.5,62,85.5
486,C#3,62.0,0.25,52,85.5
487,A3,62.25,0.5,57,85.5
488,C3,62.25,0.5,51,85.5
489,B-1,62.5,0.5,57,85.5
490,G3,62.75,0.5,62,85.5
491,B-2,62.75,0.5,54,85.5
492,C2,63.0,0.5,59,85.5
493,F3,63.25,0.5,67,85.5
494,A2,63.25,0.5,55,85.5
495,C2,63.5,0.5,62,85.5
496,E3,63.75,0.25,72,85.5
497,G2,63.75,0.25,57,85.5
498,F3,64.0,0.125,70,85.5
499,F1,64.0,0.5,64,85.5
500,A2,64.125,0.125,50,85.5
501,C3,64.25,0.125,50,85.5
502,F3,64.375,0.125,50,85.5
503,A3,64.5,0.125,53,85.5
504,F2,64.5,1.5,46,85.5
505,C4,64.625,0.125,50,85.5
506,F4,64.75,0.125,50,85.5
507,A4,64.875,0.125,50,85.5
508,C4,65.0,0.125,55,85.5
509,A2,65.0,1.0,46,85.5
510,F4,65.125,0.125,50,85.5
511,A4,65.25,0.125,50,85.5
512,C5,65.375,0.125,50,85.5
513,F4,65.5,0.125,55,85.5
514,C3,65.5,0.5,46,85.5
515,A4,65.625,0.125,50,85.5
516,C5,65.75,0.125,50,85.5
517,F5,65.875,0.125,50,85.5
518,E5,66.0,0.125,74,85.5
519,F2,66.0,2.0,54,85.5
520,G2,66.0,2.0,54,85.5
521,B-5,66.125,0.125,50,85.5
522,G5,66.25,0.125,50,85.5
523,E5,66.375,0.125,50,85.5
524,C5,66.5,0.125,54,85.5
525,B-2,66.5,1.5,47,85.5
526,G5,66.625,0.125,50,85.5
527,E5,66.75,0.125,50,85.5
528,C5,66.875,0.125,50,85.5
529,B-4,67.0,0.125,56,85.5
530,C3,67.0,1.0,47,85.5
531,E5,67.125,0.125,50,85.5
532,C5,67.25,0.125,50,85.5
533,B-4,67.375,0.125,50,85.5
534,G4,67.5,0.125,54,85.5
535,E3,67.5,0.5,47,85.5
536,C5,67.625,0.125,50,85.5
537,B-4,67.75,0.125,50,85.5
538,G4,67.875,0.125,50,85.5
539,F4,68.0,0.125,70,85.5
540,F2,68.0,0.5,64,85.5
541,A3,68.125,0.125,50,85.5
542,C4,68.25,0.125,50,85.5
543,F4,68.375,0.125,50,85.5
544,A4,68.5,0.125,53,85.5
545,F3,68.5,1.5,46,85.5
546,C5,68.625,0.125,50,85.5
547,F5,68.75,0.125,50,85.5
548,A5,68.875,0.125,50,85.5
549,C5,69.0,0.125,55,85.5
550,A3,69.0,1.0,46,85.5
551,F5,69.125,0.125,50,85.5
552,A5,69.25,0.125,50,85.5
553,C6,69.375,0.125,50,85.5
554,F5,69.5,0.125,55,85.5
555,C4,69.5,0.5,46,85.5
556,A5,69.625,0.125,50,85.5
557,C6,69.75,0.125,50,85.5
558,F6,69.875,0.125,50,85.5
559,B-5,70.0,0.125,74,85.5
560,F3,70.0,2.0,54,85.5
561,G3,70.0,2.0,54,85.5
562,E6,70.125,0.125,50,85.5
563,C6,70.25,0.125,50,85.5
564,B-5,70.375,0.125,50,85.5
565,G5,70.5,0.125,54,85.5
566,B-3,70.5,1.5,47,85.5
567,C6,70.625,0.125,50,85.5
568,B-5,70.75,0.125,50,85.5
569,G5,70.875,0.125,50,85.5
570,E5,71.0,0.125,56,85.5
571,C4,71.0,1.0,47,85.5
572,B-5,71.125,0.125,50,85.5
573,G5,71.25,0.125,50,85.5
574,E5,71.375,0.125,50,85.5
575,B-4,71.5,0.125,54,85.5
576,E4,71.5,0.5,47,85.5
577,G5,71.625,0.125,50,85.5
578,E5,71.75,0.125,50,85.5
579,B-4,71.875,0.125,50,85.5
580,F4,72.0,0.125,77,85.5
581,F2,72.0,0.5,75,85.5
582,A3,72.125,0.125,55,85.5
583,C4,72.25,0.125,55,85.5
584,F4,72.375,0.125,55,85.5
585,A4,72.5,0.125,58,85.5
586,F3,72.5,1.5,57,85.5
587,C5,72.625,0.125,55,85.5
588,F5,72.75,0.125,55,85.5
589,A5,72.875,0.125,55,85.5
590,C5,73.0,0.125,61,85.5
591,A3,73.0,1.0,57,85.5
592,F5,73.125,0.125,55,85.5
593,A5,73.25,0.125,56,85.5
594,C6,73.375,0.125,56,85.5
595,F5,73.5,0.125,61,85.5
596,C4,73.5,0.5,58,85.5
597,A5,73.625,0.125,56,85.5
598,C6,73.75,0.125,56,85.5
599,F6,73.875,0.125,56,85.5
600,E-2,74.0,0.5,82,85.5
601,A3,74.125,0.125,62,85.5
602,C4,74.25,0.125,62,85.5
603,F4,74.375,0.125,62,85.5
604,A4,74.5,0.125,66,85.5
605,E-3,74.5,1.5,63,85.5
606,C5,74.625,0.125,62,85.5
607,F5,74.75,0.125,62,85.5
608,A5,74.875,0.125,62,85.5
609,C5,75.0,0.125,69,85.5
610,A3,75.0,1.0,64,85.5
611,F5,75.125,0.125,63,85.5
612,A5,75.25,0.125,63,85.5
613,C6,75.375,0.125,63,85.5
614,F5,75.5,0.125,69,85.5
615,C4,75.5,0.5,64,85.5
616,A5,75.625,0.125,63,85.5
617,C6,75.75,0.125,63,85.5
618,F6,75.875,0.125,63,85.5
619,C#2,76.0,0.5,91,85.5
620,B-3,76.125,0.125,63,85.5
621,C#4,76.25,0.125,70,85.5
622,F4,76.375,0.125,70,85.5
623,B-4,76.5,0.125,73,85.5
624,C#3,76.5,1.5,66,85.5
625,C#5,76.625,0.125,70,85.5
626,F5,76.75,0.125,70,85.5
627,B-5,76.875,0.125,70,85.5
628,C#5,77.0,0.125,77,85.5
629,F3,77.0,1.0,67,85.5
630,F5,77.125,0.125,70,85.5
631,B-5,77.25,0.125,70,85.5
632,C#6,77.375,0.125,70,85.5
633,F5,77.5,0.125,78,85.5
634,B-3,77.5,0.5,67,85.5
635,B-5,77.625,0.125,71,85.5
636,C#6,77.75,0.125,71,85.5
637,F6,77.875,0.125,71,85.5
638,E5,78.0,0.125,79,85.5
639,F#2,78.0,2.0,94,85.5
640,E6,78.125,0.125,70,85.5
641,C#6,78.25,0.125,70,85.5
642,B-5,78.375,0.125,70,85.5
643,E5,78.5,0.125,80,85.5
644,B-2,78.5,0.5,68,85.5
645,C#5,78.625,0.125,68,85.5
646,B-4,78.75,0.125,70,85.5
647,E4,78.875,0.125,70,85.5
648,C#4,79.0,0.125,79,85.5
649,C#3,79.0,0.5,72,85.5
650,E-4,79.125,0.125,68,85.5
651,C#4,79.25,0.125,69,85.5
652,C4,79.375,0.125,69,85.5
653,B-3,79.5,0.125,78,85.5
654,E3,79.5,0.5,75,85.5
655,C#4,79.625,0.125,72,85.5
656,C4,79.75,0.125,76,85.5
657,B-3,79.875,0.125,81,85.5
658,A3,80.0,0.5,86,85.5
659,F2,80.0,1.25,78,85.5
660,F3,80.0,1.25,78,85.5
661,C3,81.25,0.25,40,85.5
662,D3,81.5,0.25,45,85.5
663,C3,81.75,0.25,41,85.5
664,B-2,82.0,0.25,45,85.5
665,A2,82.25,0.25,40,85.5
666,G2,82.5,0.25,43,85.5
667,F2,82.75,0.188,40,85.5
668,F2,83.0,0.5,45,85.5
669,C4,83.25,0.25,40,85.5
670,D4,83.5,0.25,45,85.5
671,C4,83.75,0.25,41,85.5
672,B-3,84.0,0.25,45,85.5
673,A3,84.25,0.25,40,85.5
674,G3,84.5,0.25,43,85.5
675,F3,84.75,0.188,40,85.5
676,F3,85.0,0.5,45,85.5
677,E-3,85.25,83/1000,38,85.5
678,F3,85.333,83/1000,40,85.5
679,E-3,85.417,83/1000,38,85.5
680,F3,85.5,0.25,45,85.5
681,E-3,85.75,0.25,41,85.5
682,D3,86.0,0.25,45,85.5
683,C3,86.25,0.25,40,85.5
684,B-2,86.5,0.25,43,85.5
685,A2,86.75,0.188,40,85.5
686,A2,87.0,0.5,45,85.5
687,E-4,87.25,83/1000,38,85.5
688,F4,87.333,83/1000,40,85.5
689,E-4,87.417,83/1000,38,85.5
690,F4,87.5,0.25,45,85.5
691,E-4,87.75,0.25,41,85.5
692,D4,88.0,0.25,45,85.5
693,C4,88.25,0.25,40,85.5
694,B-3,88.5,0.25,43,85.5
695,A3,88.75,0.188,40,85.5
696,A3,89.0,0.5,45,85.5
697,C4,89.25,0.25,40,85.5
698,D4,89.5,0.25,45,85.5
699,C5,89.75,0.25,44,85.5
700,C4,89.75,0.25,41,85.5
701,D5,90.0,0.25,49,85.5
702,B-3,90.0,0.25,45,85.5
703,C5,90.25,0.25,45,85.5
704,A3,90.25,0.25,40,85.5
705,B-4,90.5,0.25,49,85.5
706,G3,90.5,0.25,43,85.5
707,A4,90.75,0.25,44,85.5
708,F3,90.75,0.188,40,85.5
709,G4,91.0,0.25,47,85.5
710,F4,91.25,0.188,44,85.5
711,E-4,91.25,0.25,40,85.5
712,F4,91.5,0.25,45,85.5
713,E-5,91.75,0.25,44,85.5
714,E-4,91.75,0.25,41,85.5
715,F5,92.0,0.25,49,85.5
716,D4,92.0,0.25,45,85.5
717,E-5,92.25,0.25,45,85.5
718,C4,92.25,0.25,40,85.5
719,D5,92.5,0.25,49,85.5
720,B-3,92.5,0.25,43,85.5
721,C5,92.75,0.25,44,85.5
722,A3,92.75,0.188,40,85.5
723,B-4,93.0,0.25,47,85.5
724,A4,93.25,0.25,44,85.5
725,F5,93.5,0.25,49,85.5
726,E-5,93.75,0.25,47,85.5
727,D5,94.0,0.25,47,85.5
728,C5,94.25,0.25,47,85.5
729,B-4,94.5,0.25,44,85.5
730,A4,94.75,0.25,44,85.5
731,F5,95.0,0.25,53,85.5
732,E-5,95.25,0.25,49,85.5
733,D5,95.5,0.25,46,85.5
734,C5,95.75,0.25,46,85.5
735,B-4,96.0,167/1000,49,85.5
736,A4,96.167,167/1000,49,85.5
737,F5,96.333,167/1000,54,85.5
738,E-5,96.5,167/1000,49,85.5
739,D5,96.667,167/1000,49,85.5
740,C5,96.833,167/1000,49,85.5
741,B-4,97.0,0.125,49,85.5
742,A4,97.125,0.125,49,85.5
743,F5,97.25,0.125,58,85.5
744,E-5,97.375,0.125,50,85.5
745,D5,97.5,0.125,50,85.5
746,C5,97.625,0.125,50,85.5
747,B-4,97.75,0.125,50,85.5
748,A4,97.875,0.125,50,85.5
749,F5,98.0,0.125,59,85.5
750,E-5,98.125,0.125,52,85.5
751,D5,98.25,0.125,52,85.5
752,C5,98.375,0.125,52,85.5
753,B-4,98.5,0.125,52,85.5
754,A4,98.625,0.125,52,85.5
755,F#5,98.75,0.125,61,85.5
756,F5,98.875,0.125,55,85.5
757,E-5,99.0,1/10,56,85.5
758,D5,99.1,1/10,57,85.5
759,C5,99.2,1/10,58,85.5
760,B-4,99.3,1/10,58,85.5
761,A4,99.4,1/10,59,85.5
762,G5,99.5,0.25,50,85.5
763,F5,99.75,0.25,46,85.5
764,E-5,100.0,0.25,50,85.5
765,B-3,100.0,0.5,42,85.5
766,D5,100.25,0.25,46,85.5
767,F4,100.25,0.25,34,85.5
768,C5,100.5,0.25,46,85.5
769,D4,100.5,0.5,38,85.5
770,B-4,100.75,0.25,46,85.5
771,F4,100.75,0.25,34,85.5
772,A4,101.0,0.5,50,85.5
773,E-4,101.0,0.25,38,85.5
774,C4,101.0,0.5,38,85.5
775,F4,101.25,0.25,34,85.5
776,B-4,101.5,0.5,47,85.5
777,D4,101.5,0.25,37,85.5
778,B-3,101.5,0.5,37,85.5
779,F4,101.75,0.25,34,85.5
780,B4,102.0,0.5,53,85.5
781,A3,102.0,2.0,43,85.5
782,E-4,102.0,2.0,43,85.5
783,F4,102.25,0.125,34,85.5
784,C5,102.5,0.5,49,85.5
785,F4,102.5,0.125,34,85.5
786,F4,102.75,0.125,34,85.5
787,F4,103.0,0.125,37,85.5
788,F#5,103.25,0.25,45,85.5
789,F4,103.25,0.125,34,85.5
790,A5,103.5,0.25,50,85.5
791,F4,103.5,0.125,34,85.5
792,G5,103.75,0.25,46,85.5
793,F4,103.75,0.125,34,85.5
794,F5,104.0,0.25,50,85.5
795,A3,104.0,0.5,42,85.5
796,E-5,104.25,0.25,44,85.5
797,F4,104.25,0.25,34,85.5
798,D5,104.5,0.25,46,85.5
799,E-4,104.5,0.5,38,85.5
800,C5,104.75,0.25,44,85.5
801,F4,104.75,0.25,34,85.5
802,A4,105.0,0.25,50,85.5
803,D4,105.0,0.5,38,85.5
804,B-4,105.25,0.25,41,85.5
805,F4,105.25,0.25,34,85.5
806,B4,105.5,0.25,47,85.5
807,A3,105.5,0.5,37,85.5
808,C5,105.75,0.25,44,85.5
809,F4,105.75,0.25,34,85.5
810,C#5,106.0,0.5,58,85.5
811,B-3,106.0,1.5,47,85.5
812,F4,106.25,0.125,37,85.5
813,D5,106.5,0.75,53,85.5
814,F4,106.5,0.125,37,85.5
815,F4,106.75,0.125,37,85.5
816,F4,107.0,0.125,41,85.5
817,F5,107.25,0.25,56,85.5
818,F4,107.25,0.125,37,85.5
819,G5,107.5,0.25,64,85.5
820,B3,107.5,0.5,37,85.5
821,D5,107.75,0.25,58,85.5
822,F4,107.75,0.125,38,85.5
823,F5,108.0,0.25,62,85.5
824,C4,108.0,0.5,47,85.5
825,E-5,108.25,0.25,58,85.5
826,F4,108.25,0.25,38,85.5
827,F5,108.5,0.25,64,85.5
828,A3,108.5,0.5,42,85.5
829,C5,108.75,0.25,58,85.5
830,F4,108.75,0.25,38,85.5
831,E-5,109.0,0.25,64,85.5
832,B-3,109.0,0.5,47,85.5
833,D5,109.25,0.25,59,85.5
834,F4,109.25,0.25,38,85.5
835,G5,109.5,0.25,67,85.5
836,B3,109.5,0.5,43,85.5
837,D5,109.75,0.25,59,85.5
838,F4,109.75,0.25,38,85.5
839,F5,110.0,0.25,71,85.5
840,C4,110.0,0.5,54,85.5
841,E-5,110.25,0.25,64,85.5
842,F4,110.25,0.25,39,85.5
843,F5,110.5,0.25,71,85.5
844,A3,110.5,0.5,48,85.5
845,C5,110.75,0.25,62,85.5
846,F4,110.75,0.25,39,85.5
847,D5,111.0,0.25,70,85.5
848,B-3,111.0,0.5,55,85.5
849,E-5,111.25,0.25,60,85.5
850,D4,111.25,0.25,40,85.5
851,E5,111.5,0.25,62,85.5
852,A3,111.5,0.5,49,85.5
853,F5,111.75,0.25,64,85.5
854,C4,111.75,0.25,44,85.5
855,F#5,112.0,0.25,70,85.5
856,G3,112.0,479/1000,60,85.5
857,G5,112.25,0.25,66,85.5
858,B-3,112.25,0.25,43,85.5
859,A5,112.5,0.25,69,85.5
860,G3,112.5,0.5,50,85.5
861,B-5,112.75,0.25,70,85.5
862,B-3,112.75,0.25,42,85.5
863,C6,113.0,0.25,71,85.5
864,C3,113.0,479/1000,57,85.5
865,C#6,113.25,0.25,76,85.5
866,B-3,113.25,0.25,40,85.5
867,D6,113.5,0.25,81,85.5
868,C3,113.5,0.5,44,85.5
869,E5,113.75,0.25,64,85.5
870,B-3,113.75,0.25,40,85.5
871,G5,114.0,0.5,58,85.5
872,F3,114.0,1.5,43,85.5
873,B-3,114.25,0.25,29,85.5
874,F5,114.5,0.5,53,85.5
875,A3,114.5,0.25,35,85.5
876,G3,114.75,0.25,29,85.5
877,A3,115.0,0.5,34,85.5
878,F4,115.25,0.25,42,85.5
879,F5,115.25,0.25,42,85.5
880,G4,115.5,0.25,46,85.5
881,G5,115.5,0.25,46,85.5
882,F4,115.75,0.25,42,85.5
883,F5,115.75,0.25,42,85.5
884,B-2,116.0,0.5,42,85.5
885,E-4,116.0,0.25,46,85.5
886,E-5,116.0,0.25,46,85.5
887,F3,116.25,0.25,34,85.5
888,D4,116.25,0.25,42,85.5
889,D5,116.25,0.25,42,85.5
890,D3,116.5,0.5,38,85.5
891,C4,116.5,0.25,42,85.5
892,C5,116.5,0.25,42,85.5
893,F3,116.75,0.25,34,85.5
894,B-3,116.75,0.25,42,85.5
895,B-4,116.75,0.25,42,85.5
896,E-3,117.0,0.25,38,85.5
897,C3,117.0,0.5,38,85.5
898,A3,117.0,0.5,42,85.5
899,A4,117.0,0.5,42,85.5
900,F3,117.25,0.25,34,85.5
901,D3,117.5,0.25,37,85.5
902,B-2,117.5,0.5,37,85.5
903,B-3,117.5,0.5,43,85.5
904,B-4,117.5,0.5,43,85.5
905,F3,117.75,0.25,34,85.5
906,B3,118.0,0.5,49,85.5
907,B4,118.0,0.5,49,85.5
908,A2,118.0,2.0,43,85.5
909,E-3,118.0,2.0,43,85.5
910,F3,118.25,0.125,34,85.5
911,F3,118.5,0.125,34,85.5
912,C4,118.5,0.75,45,85.5
913,C5,118.5,0.75,45,85.5
914,F3,118.75,0.125,34,85.5
915,F3,119.0,0.125,37,85.5
916,F3,119.25,0.125,34,85.5
917,F#4,119.25,0.25,42,85.5
918,F#5,119.25,0.25,42,85.5
919,F3,119.5,0.125,34,85.5
920,A4,119.5,0.25,46,85.5
921,A5,119.5,0.25,46,85.5
922,F3,119.75,0.125,34,85.5
923,G4,119.75,0.25,42,85.5
924,G5,119.75,0.25,42,85.5
925,A2,120.0,0.5,42,85.5
926,F4,120.0,0.25,46,85.5
927,F5,120.0,0.25,46,85.5
928,F3,120.25,0.25,34,85.5
929,E-4,120.25,0.25,43,85.5
930,E-5,120.25,0.25,43,85.5
931,E-3,120.5,0.5,38,85.5
932,D4,120.5,0.25,42,85.5
933,D5,120.5,0.25,42,85.5
934,F3,120.75,0.25,34,85.5
935,C4,120.75,0.25,43,85.5
936,C5,120.75,0.25,43,85.5
937,D3,121.0,0.5,38,85.5
938,A3,121.0,0.25,46,85.5
939,A4,121.0,0.25,46,85.5
940,F3,121.25,0.25,34,85.5
941,B-3,121.25,0.25,44,85.5
942,B-4,121.25,0.25,44,85.5
943,A2,121.5,0.5,37,85.5
944,B3,121.5,0.25,43,85.5
945,B4,121.5,0.25,43,85.5
946,F3,121.75,0.25,34,85.5
947,C4,121.75,0.25,45,85.5
948,C5,121.75,0.25,45,85.5
949,B-2,122.0,1.5,43,85.5
950,C#4,122.0,0.5,49,85.5
951,C#5,122.0,0.5,49,85.5
952,F3,122.25,0.125,34,85.5
953,F3,122.5,0.125,34,85.5
954,D4,122.5,0.75,45,85.5
955,D5,122.5,0.75,45,85.5
956,F3,122.75,0.125,34,85.5
957,F3,123.0,0.125,37,85.5
958,F5,123.25,0.25,56,85.5
959,F3,123.25,0.125,37,85.5
960,G#4,123.5,0.5,45,85.5
961,G5,123.5,0.25,63,85.5
962,B2,123.5,0.5,37,85.5
963,D5,123.75,0.25,57,85.5
964,F3,123.75,0.125,37,85.5
965,F5,124.0,0.25,62,85.5
966,G#4,124.0,0.5,45,85.5
967,C3,124.0,0.5,46,85.5
968,E-5,124.25,0.25,58,85.5
969,F3,124.25,0.25,38,85.5
970,A4,124.5,0.5,45,85.5
971,F5,124.5,0.25,63,85.5
972,F2,124.5,0.5,42,85.5
973,C5,124.75,0.25,58,85.5
974,F3,124.75,0.25,38,85.5
975,B-4,125.0,0.5,46,85.5
976,E-5,125.0,0.25,64,85.5
977,B-2,125.0,0.5,47,85.5
978,D5,125.25,0.25,59,85.5
979,F3,125.25,0.25,38,85.5
980,G#4,125.5,0.5,46,85.5
981,G5,125.5,0.25,67,85.5
982,B2,125.5,0.5,43,85.5
983,D5,125.75,0.25,59,85.5
984,F3,125.75,0.25,39,85.5
985,F5,126.0,0.25,71,85.5
986,G#4,126.0,0.5,46,85.5
987,C3,126.0,0.5,54,85.5
988,E-5,126.25,0.25,64,85.5
989,F3,126.25,0.25,39,85.5
990,A4,126.5,0.5,47,85.5
991,F5,126.5,0.25,71,85.5
992,F2,126.5,0.5,48,85.5
993,C5,126.75,0.25,63,85.5
994,F3,126.75,0.25,39,85.5
995,B-2,127.0,0.5,56,85.5
996,B-4,127.0,0.25,65,85.5
997,E-5,127.0,0.25,65,85.5
998,F3,127.25,0.25,41,85.5
999,D4,127.25,0.25,58,85.5
1000,D5,127.25,0.25,58,85.5
1001,G#2,127.5,0.5,50,85.5
1002,E-4,127.5,0.25,62,85.5
1003,E-5,127.5,0.25,62,85.5
1004,B-2,127.75,0.25,45,85.5
1005,F4,127.75,0.25,66,85.5
1006,F5,127.75,0.25,66,85.5
1007,G2,128.0,479/1000,62,85.5
1008,F#4,128.0,0.25,70,85.5
1009,F#5,128.0,0.25,70,85.5
1010,B-2,128.25,0.25,51,85.5
1011,G4,128.25,0.25,66,85.5
1012,G5,128.25,0.25,66,85.5
1013,E-2,128.5,0.5,58,85.5
1014,A4,128.5,0.125,70,85.5
1015,A5,128.5,0.125,70,85.5
1016,E-3,128.75,0.25,51,85.5
1017,B-4,128.75,0.125,74,85.5
1018,B-5,128.75,0.125,74,85.5
1019,F2,129.0,479/1000,56,85.5
1020,B-3,129.0,0.5,71,85.5
1021,B-4,129.0,0.5,71,85.5
1022,D3,129.25,0.25,42,85.5
1023,F2,129.5,0.5,49,85.5
1024,C4,129.5,0.5,64,85.5
1025,C5,129.5,0.5,64,85.5
1026,A2,129.75,0.25,43,85.5
1027,B-1,130.0,0.25,43,85.5
1028,C#4,130.0,0.5,45,85.5
1029,C#5,130.0,0.5,45,85.5
1030,B-2,130.25,1.25,29,85.5
1031,B-3,130.5,0.125,35,85.5
1032,D4,130.5,0.625,42,85.5
1033,D5,130.5,0.625,42,85.5
1034,B-3,130.75,0.125,29,85.5
1035,B-3,131.0,0.125,40,85.5
1036,B-4,131.125,0.125,59,85.5
1037,A4,131.25,0.125,61,85.5
1038,B-3,131.25,0.125,35,85.5
1039,B-4,131.375,0.125,62,85.5
1040,B4,131.5,0.125,62,85.5
1041,G#3,131.5,0.5,43,85.5
1042,C5,131.625,0.125,64,85.5
1043,C#5,131.75,0.125,65,85.5
1044,B-3,131.75,0.25,39,85.5
1045,D5,131.875,0.125,67,85.5
1046,E-5,132.0,0.125,69,85.5
1047,G3,132.0,0.5,52,85.5
1048,E5,132.125,0.125,70,85.5
1049,F5,132.25,0.125,71,85.5
1050,B-3,132.25,0.25,46,85.5
1051,F#5,132.375,0.125,73,85.5
1052,G5,132.5,0.125,74,85.5
1053,E-3,132.5,0.5,56,85.5
1054,G#5,132.625,0.125,76,85.5
1055,A5,132.75,0.125,78,85.5
1056,E-4,132.75,0.25,51,85.5
1057,B-5,132.875,0.125,78,85.5
1058,B-4,133.0,1/10,53,85.5
1059,F3,133.0,479/1000,35,85.5
1060,C5,133.1,1/10,48,85.5
1061,B-4,133.2,1/10,45,85.5
1062,D4,133.25,0.25,29,85.5
1063,A4,133.3,1/10,45,85.5
1064,B-4,133.4,1/10,45,85.5
1065,E-4,133.5,0.5,42,85.5
1066,D5,133.5,0.375,52,85.5
1067,F3,133.5,0.5,35,85.5
1068,A3,133.75,0.25,29,85.5
1069,C5,133.875,0.125,41,85.5
1070,D4,134.0,0.5,46,85.5
1071,B-4,134.0,0.5,46,85.5
1072,B-2,134.0,0.5,36,85.5
1073,B-3,134.0,0.5,36,85.5
1074,F3,135.0,1.0,88,85.5
1075,C#4,135.0,1.0,88,85.5
1076,B-2,135.0,1.0,65,85.5
1077,C#3,135.0,1.0,65,85.5
1078,F#3,136.0,1.0,85,85.5
1079,B3,136.0,0.75,96,85.5
1080,E-2,136.0,1.5,53,85.5
1081,B2,136.0,0.75,64,85.5
1082,C#4,136.75,0.125,70,85.5
1083,C#3,136.75,0.125,64,85.5
1084,E-4,136.875,0.125,71,85.5
1085,E-3,136.875,0.125,64,85.5
1086,F#3,137.0,0.5,81,85.5
1087,F#2,137.0,0.5,58,85.5
1088,E-3,137.5,0.5,70,85.5
1089,A3,137.5,0.5,70,85.5
1090,F2,137.5,0.5,53,85.5
1091,A2,137.5,0.5,53,85.5
1092,C#3,138.0,1.0,67,85.5
1093,B-3,138.0,0.5,79,85.5
1094,B-1,138.0,0.75,65,85.5
1095,B-2,138.0,0.75,65,85.5
1096,F3,138.5,0.25,65,85.5
1097,F3,139.0,1.0,88,85.5
1098,C#4,139.0,1.0,88,85.5
1099,B-2,139.0,1.0,65,85.5
1100,C#3,139.0,1.0,65,85.5
1101,G3,140.0,1.0,96,85.5
1102,C4,140.0,1.0,96,85.5
1103,E2,140.0,1.0,71,85.5
1104,C3,140.0,1.0,71,85.5
1105,C4,141.0,1.0,96,85.5
1106,B-4,141.0,1.0,96,85.5
1107,E3,141.0,1.0,71,85.5
1108,G3,141.0,1.0,71,85.5
1109,C4,142.0,0.25,88,85.5
1110,G#4,142.0,0.25,88,85.5
1111,F3,142.0,0.25,65,85.5
1112,G#3,142.0,0.25,65,85.5
1113,F4,142.5,1.0,91,85.5
1114,G#4,142.5,1.0,91,85.5
1115,F5,142.5,1.0,91,85.5
1116,B2,142.5,0.25,70,85.5
1117,B3,142.5,0.25,70,85.5
1118,C3,143.0,0.25,65,85.5
1119,C4,143.0,0.25,65,85.5
1120,E4,143.5,0.25,86,85.5
1121,G4,143.5,0.25,86,85.5
1122,E5,143.5,0.25,86,85.5
1123,C2,143.5,0.25,65,85.5
1124,C3,143.5,0.25,65,85.5
1125,F4,144.0,0.25,91,85.5
1126,G#4,144.0,0.25,91,85.5
1127,F5,144.0,0.25,91,85.5
1128,F2,144.0,0.25,76,85.5
1129,F3,144.0,0.25,76,85.5
1130,C4,144.25,69/500,36,85.5
1131,E2,144.25,0.125,33,85.5
1132,G2,144.25,0.125,33,85.5
1133,B-3,144.375,0.125,31,85.5
1134,C4,144.5,69/500,36,85.5
1135,F2,144.5,0.125,33,85.5
1136,G#2,144.5,0.125,33,85.5
1137,G#3,144.625,0.125,32,85.5
1138,C4,144.75,69/500,36,85.5
1139,G2,144.75,0.125,33,85.5
1140,B-2,144.75,0.125,33,85.5
1141,G3,144.875,0.125,31,85.5
1142,C4,145.0,69/500,42,85.5
1143,G#2,145.0,0.125,37,85.5
1144,C3,145.0,0.125,37,85.5
1145,F3,145.125,0.125,31,85.5
1146,C4,145.25,69/500,36,85.5
1147,B-2,145.25,0.125,32,85.5
1148,C#3,145.25,0.125,32,85.5
1149,E3,145.375,0.125,31,85.5
1150,C4,145.5,69/500,36,85.5
1151,G#2,145.5,0.125,32,85.5
1152,C3,145.5,0.125,32,85.5
1153,F3,145.625,0.125,30,85.5
1154,C4,145.75,69/500,36,85.5
1155,G2,145.75,0.125,32,85.5
1156,B-2,145.75,0.125,32,85.5
1157,G3,145.875,0.125,31,85.5
1158,C4,146.0,69/500,45,85.5
1159,F2,146.0,0.125,37,85.5
1160,G#2,146.0,0.125,37,85.5
1161,G#3,146.125,0.125,31,85.5
1162,F4,146.25,69/500,36,85.5
1163,A2,146.25,0.125,33,85.5
1164,C3,146.25,0.125,33,85.5
1165,E-4,146.375,0.125,31,85.5
1166,F4,146.5,69/500,36,85.5
1167,B-2,146.5,0.125,33,85.5
1168,C#3,146.5,0.125,33,85.5
1169,C#4,146.625,0.125,32,85.5
1170,F4,146.75,69/500,36,85.5
1171,E-3,146.75,0.125,33,85.5
1172,C3,146.75,0.125,33,85.5
1173,C4,146.875,0.125,31,85.5
1174,F4,147.0,69/500,42,85.5
1175,F3,147.0,0.125,37,85.5
1176,C#3,147.0,0.125,37,85.5
1177,B-3,147.125,0.125,31,85.5
1178,F4,147.25,69/500,36,85.5
1179,E-3,147.25,0.125,33,85.5
1180,F#3,147.25,0.125,33,85.5
1181,A3,147.375,0.125,31,85.5
1182,F4,147.5,69/500,36,85.5
1183,C#3,147.5,0.125,33,85.5
1184,F3,147.5,0.125,33,85.5
1185,B-3,147.625,0.125,30,85.5
1186,F4,147.75,69/500,36,85.5
1187,C3,147.75,0.125,33,85.5
1188,E-3,147.75,0.125,33,85.5
1189,C4,147.875,0.125,31,85.5
1190,F4,148.0,69/500,49,85.5
1191,B-2,148.0,0.125,42,85.5
1192,C#3,148.0,0.125,42,85.5
1193,C#4,148.125,0.125,34,85.5
1194,F4,148.25,69/500,39,85.5
1195,B-2,148.25,0.125,33,85.5
1196,C#3,148.25,0.125,33,85.5
1197,C#4,148.375,0.125,34,85.5
1198,G4,148.5,69/500,39,85.5
1199,B2,148.5,0.125,33,85.5
1200,D3,148.5,0.125,33,85.5
1201,F4,148.625,0.125,35,85.5
1202,G4,148.75,69/500,39,85.5
1203,B2,148.75,0.125,33,85.5
1204,D3,148.75,0.125,33,85.5
1205,F4,148.875,0.125,34,85.5
1206,G#4,149.0,69/500,46,85.5
1207,C3,149.0,0.125,43,85.5
1208,F3,149.0,0.125,43,85.5
1209,F4,149.125,0.125,34,85.5
1210,G#4,149.25,69/500,39,85.5
1211,C3,149.25,0.125,35,85.5
1212,F3,149.25,0.125,35,85.5
1213,F4,149.375,0.125,34,85.5
1214,B-4,149.5,69/500,39,85.5
1215,C3,149.5,0.125,35,85.5
1216,G3,149.5,0.125,35,85.5
1217,E4,149.625,0.125,33,85.5
1218,B-4,149.75,69/500,39,85.5
1219,C3,149.75,0.125,35,85.5
1220,G3,149.75,0.125,35,85.5
1221,E4,149.875,0.125,34,85.5
1222,F4,150.0,0.25,78,85.5
1223,F3,150.0,0.25,66,85.5
1224,G#3,150.0,0.25,66,85.5
1225,C4,150.25,69/500,39,85.5
1226,C5,150.25,69/500,39,85.5
1227,E2,150.25,0.125,39,85.5
1228,E3,150.25,0.125,39,85.5
1229,B-4,150.375,0.125,37,85.5
1230,C4,150.5,69/500,40,85.5
1231,C5,150.5,69/500,40,85.5
1232,F2,150.5,0.125,40,85.5
1233,F3,150.5,0.125,40,85.5
1234,G#4,150.625,0.125,39,85.5
1235,C4,150.75,69/500,40,85.5
1236,C5,150.75,69/500,40,85.5
1237,G2,150.75,0.125,40,85.5
1238,G3,150.75,0.125,40,85.5
1239,G4,150.875,0.125,39,85.5
1240,C4,151.0,69/500,48,85.5
1241,C5,151.0,69/500,48,85.5
1242,G#2,151.0,0.125,46,85.5
1243,G#3,151.0,0.125,46,85.5
1244,F4,151.125,0.125,39,85.5
1245,C4,151.25,69/500,42,85.5
1246,C5,151.25,69/500,42,85.5
1247,B-2,151.25,0.125,41,85.5
1248,B-3,151.25,0.125,41,85.5
1249,E4,151.375,0.125,39,85.5
1250,C4,151.5,69/500,43,85.5
1251,C5,151.5,69/500,43,85.5
1252,G#2,151.5,0.125,42,85.5
1253,G#3,151.5,0.125,42,85.5
1254,F4,151.625,0.125,40,85.5
1255,C4,151.75,69/500,44,85.5
1256,C5,151.75,69/500,44,85.5
1257,G2,151.75,0.125,42,85.5
1258,G3,151.75,0.125,42,85.5
1259,G4,151.875,0.125,41,85.5
1260,C4,152.0,69/500,56,85.5
1261,C5,152.0,69/500,56,85.5
1262,F2,152.0,0.125,50,85.5
1263,F3,152.0,0.125,50,85.5
1264,G#4,152.125,0.125,42,85.5
1265,F4,152.25,69/500,46,85.5
1266,F5,152.25,69/500,46,85.5
1267,A2,152.25,0.125,46,85.5
1268,A3,152.25,0.125,46,85.5
1269,E-5,152.375,0.125,43,85.5
1270,F4,152.5,69/500,46,85.5
1271,F5,152.5,69/500,46,85.5
1272,B-2,152.5,0.125,46,85.5
1273,B-3,152.5,0.125,46,85.5
1274,C#5,152.625,0.125,46,85.5
1275,F4,152.75,69/500,47,85.5
1276,F5,152.75,69/500,47,85.5
1277,C4,152.75,0.125,47,85.5
1278,C3,152.75,0.125,47,85.5
1279,C5,152.875,0.125,45,85.5
1280,F4,153.0,69/500,56,85.5
1281,F5,153.0,69/500,56,85.5
1282,C#4,153.0,0.125,54,85.5
1283,C#3,153.0,0.125,54,85.5
1284,B-4,153.125,0.125,45,85.5
1285,F4,153.25,69/500,49,85.5
1286,F5,153.25,69/500,49,85.5
1287,E-3,153.25,0.125,49,85.5
1288,E-4,153.25,0.125,49,85.5
1289,A4,153.375,0.125,47,85.5
1290,F4,153.5,69/500,49,85.5
1291,F5,153.5,69/500,49,85.5
1292,C#3,153.5,0.125,49,85.5
1293,C#4,153.5,0.125,49,85.5
1294,B-4,153.625,0.125,46,85.5
1295,F4,153.75,69/500,51,85.5
1296,F5,153.75,69/500,51,85.5
1297,C3,153.75,0.125,51,85.5
1298,C4,153.75,0.125,51,85.5
1299,C5,153.875,0.125,47,85.5
1300,F4,154.0,69/500,70,85.5
1301,F5,154.0,69/500,70,85.5
1302,B-2,154.0,0.125,66,85.5
1303,B-3,154.0,0.125,66,85.5
1304,C#5,154.125,0.125,54,85.5
1305,F4,154.25,69/500,57,85.5
1306,F5,154.25,69/500,57,85.5
1307,B-3,154.25,0.125,52,85.5
1308,C#4,154.25,0.125,52,85.5
1309,C#5,154.375,0.125,54,85.5
1310,G4,154.5,69/500,58,85.5
1311,G5,154.5,69/500,58,85.5
1312,B3,154.5,0.125,53,85.5
1313,D4,154.5,0.125,53,85.5
1314,F5,154.625,0.125,57,85.5
1315,G4,154.75,69/500,58,85.5
1316,G5,154.75,69/500,58,85.5
1317,B3,154.75,0.125,53,85.5
1318,D4,154.75,0.125,53,85.5
1319,F5,154.875,0.125,56,85.5
1320,G#4,155.0,69/500,70,85.5
1321,G#5,155.0,69/500,70,85.5
1322,C4,155.0,0.125,72,85.5
1323,F4,155.0,0.125,72,85.5
1324,F5,155.125,0.125,57,85.5
1325,G#4,155.25,69/500,61,85.5
1326,G#5,155.25,69/500,61,85.5
1327,C4,155.25,0.125,59,85.5
1328,F4,155.25,0.125,59,85.5
1329,F5,155.375,0.125,58,85.5
1330,B-4,155.5,69/500,62,85.5
1331,B-5,155.5,69/500,62,85.5
1332,C4,155.5,0.125,60,85.5
1333,G4,155.5,0.125,60,85.5
1334,E5,155.625,0.125,57,85.5
1335,B-4,155.75,69/500,63,85.5
1336,B-5,155.75,69/500,63,85.5
1337,C4,155.75,0.125,62,85.5
1338,G4,155.75,0.125,62,85.5
1339,E5,155.875,0.125,60,85.5
1340,F5,156.0,0.25,94,85.5
1341,F3,156.0,0.125,56,85.5
1342,G#3,156.0,0.125,56,85.5
1343,C4,156.0,0.125,56,85.5
1344,F4,156.0,0.125,56,85.5
1345,F6,156.25,0.5,93,85.5
1346,F3,156.25,0.125,56,85.5
1347,G#3,156.25,0.125,56,85.5
1348,C4,156.25,0.125,56,85.5
1349,F4,156.25,0.125,56,85.5
1350,F3,156.5,0.125,49,85.5
1351,G#3,156.5,0.125,49,85.5
1352,C4,156.5,0.125,49,85.5
1353,F4,156.5,0.125,49,85.5
1354,F6,156.75,0.25,89,85.5
1355,F3,156.75,0.125,49,85.5
1356,G#3,156.75,0.125,49,85.5
1357,C4,156.75,0.125,49,85.5
1358,F4,156.75,0.125,49,85.5
1359,E6,157.0,0.125,90,85.5
1360,F3,157.0,0.125,51,85.5
1361,G3,157.0,0.125,51,85.5
1362,B-3,157.0,0.125,51,85.5
1363,C4,157.0,0.125,51,85.5
1364,E4,157.0,0.125,51,85.5
1365,C#6,157.125,0.125,73,85.5
1366,B-5,157.25,0.125,78,85.5
1367,F3,157.25,0.125,44,85.5
1368,G3,157.25,0.125,44,85.5
1369,B-3,157.25,0.125,44,85.5
1370,C4,157.25,0.125,44,85.5
1371,E4,157.25,0.125,44,85.5
1372,G5,157.375,0.125,74,85.5
1373,E5,157.5,0.25,67,85.5
1374,C#5,157.5,0.125,56,85.5
1375,F3,157.5,0.125,44,85.5
1376,G3,157.5,0.125,44,85.5
1377,B-3,157.5,0.125,44,85.5
1378,C4,157.5,0.125,44,85.5
1379,E4,157.5,0.125,44,85.5
1380,C5,157.625,0.125,61,85.5
1381,E5,157.75,0.25,61,85.5
1382,C#5,157.75,0.125,51,85.5
1383,F3,157.75,0.125,44,85.5
1384,G3,157.75,0.125,44,85.5
1385,B-3,157.75,0.125,44,85.5
1386,C4,157.75,0.125,44,85.5
1387,E4,157.75,0.125,44,85.5
1388,B-4,157.875,0.125,60,85.5
1389,F5,158.0,0.25,80,85.5
1390,G#4,158.0,0.25,80,85.5
1391,F2,158.0,0.125,56,85.5
1392,G#2,158.0,0.125,56,85.5
1393,C3,158.0,0.125,56,85.5
1394,F3,158.0,0.125,56,85.5
1395,F5,158.25,0.5,93,85.5
1396,F2,158.25,0.125,56,85.5
1397,G#2,158.25,0.125,56,85.5
1398,C3,158.25,0.125,56,85.5
1399,F3,158.25,0.125,56,85.5
1400,F2,158.5,0.125,49,85.5
1401,G#2,158.5,0.125,49,85.5
1402,C3,158.5,0.125,49,85.5
1403,F3,158.5,0.125,49,85.5
1404,F5,158.75,0.25,89,85.5
1405,F2,158.75,0.125,49,85.5
1406,G#2,158.75,0.125,49,85.5
1407,C3,158.75,0.125,49,85.5
1408,F3,158.75,0.125,49,85.5
1409,E5,159.0,0.125,90,85.5
1410,F2,159.0,0.125,51,85.5
1411,G2,159.0,0.125,51,85.5
1412,B-2,159.0,0.125,51,85.5
1413,C3,159.0,0.125,51,85.5
1414,E3,159.0,0.125,51,85.5
1415,C#5,159.125,0.125,75,85.5
1416,B-4,159.25,0.125,78,85.5
1417,F2,159.25,0.125,44,85.5
1418,G2,159.25,0.125,44,85.5
1419,B-2,159.25,0.125,44,85.5
1420,C3,159.25,0.125,44,85.5
1421,E3,159.25,0.125,44,85.5
1422,G4,159.375,0.125,74,85.5
1423,E4,159.5,0.25,67,85.5
1424,C#4,159.5,0.125,56,85.5
1425,F2,159.5,0.125,44,85.5
1426,G2,159.5,0.125,44,85.5
1427,B-2,159.5,0.125,44,85.5
1428,C3,159.5,0.125,44,85.5
1429,E3,159.5,0.125,44,85.5
1430,C4,159.625,0.125,61,85.5
1431,E4,159.75,0.25,61,85.5
1432,C#4,159.75,0.125,51,85.5
1433,F2,159.75,0.125,44,85.5
1434,G2,159.75,0.125,44,85.5
1435,B-2,159.75,0.125,44,85.5
1436,C3,159.75,0.125,44,85.5
1437,E3,159.75,0.125,44,85.5
1438,B-3,159.875,0.125,60,85.5
1439,G#3,160.0,0.5,76,85.5
1440,F4,160.0,0.5,76,85.5
1441,F2,160.0,1.0,56,85.5
1442,F3,160.0,1.0,56,85.5
1443,G#2,161.0,1.0,79,85.5
1444,G2,162.0,0.75,83,85.5
1445,B-3,162.5,1.125,88,85.5
1446,G#2,162.75,0.125,70,85.5
1447,B-2,162.875,0.125,70,85.5
1448,D2,163.0,0.25,85,85.5
1449,E2,163.5,0.25,80,85.5
1450,C#4,163.625,0.125,71,85.5
1451,C4,163.75,0.125,71,85.5
1452,B-3,163.875,0.125,64,85.5
1453,G#3,164.0,0.5,81,85.5
1454,F2,164.0,0.25,90,85.5
1455,F3,164.5,0.5,73,85.5
1456,C#3,165.0,1.0,79,85.5
1457,C3,166.0,0.75,83,85.5
1458,E-4,166.5,1.125,88,85.5
1459,C#3,166.75,0.125,70,85.5
1460,E-3,166.875,0.125,70,85.5
1461,G2,167.0,0.25,85,85.5
1462,A2,167.5,0.25,80,85.5
1463,F#4,167.625,0.125,71,85.5
1464,F4,167.75,0.125,71,85.5
1465,E-4,167.875,0.125,64,85.5
1466,C#4,168.0,0.5,81,85.5
1467,B-2,168.0,0.25,90,85.5
1468,B-3,168.5,0.5,73,85.5
1469,C#5,169.0,1.0,79,85.5
1470,E-4,170.0,1.625,72,85.5
1471,C5,170.0,0.75,83,85.5
1472,C#5,170.75,0.125,70,85.5
1473,E-5,170.875,0.125,70,85.5
1474,G4,171.0,0.25,85,85.5
1475,F3,171.0,1.0,80,85.5
1476,A4,171.5,0.25,80,85.5
1477,F#4,171.625,0.125,71,85.5
1478,F4,171.75,0.125,71,85.5
1479,E-4,171.875,0.125,64,85.5
1480,C#4,172.0,0.5,81,85.5
1481,B-4,172.0,1.0,81,85.5
1482,B-2,172.0,0.5,90,85.5
1483,B-3,172.5,0.5,73,85.5
1484,F#5,173.0,1.0,79,85.5
1485,G#4,174.0,1.625,72,85.5
1486,F5,174.0,0.75,83,85.5
1487,F#5,174.75,0.125,70,85.5
1488,G#5,174.875,0.125,70,85.5
1489,C5,175.0,0.25,85,85.5
1490,B-3,175.0,1.0,80,85.5
1491,D5,175.5,0.25,80,85.5
1492,B4,175.625,0.125,71,85.5
1493,B-4,175.75,0.125,71,85.5
1494,G#4,175.875,0.125,64,85.5
1495,F#4,176.0,0.5,81,85.5
1496,E-5,176.0,1.0,81,85.5
1497,E-3,176.0,0.5,90,85.5
1498,E-4,176.5,0.5,73,85.5
1499,B-3,177.0,1.0,73,85.5
1500,F#3,177.0,1.0,73,85.5
1501,G#3,178.0,0.75,76,85.5
1502,F3,178.0,0.75,76,85.5
1503,B5,178.5,1.25,86,85.5
1504,G#5,178.5,1.25,86,85.5
1505,F#3,178.75,69/500,64,85.5
1506,B-3,178.75,69/500,64,85.5
1507,G#3,178.875,69/500,64,85.5
1508,B3,178.875,69/500,64,85.5
1509,C3,179.0,0.25,78,85.5
1510,E-3,179.0,0.25,78,85.5
1511,D3,179.5,0.25,74,85.5
1512,F3,179.5,0.25,74,85.5
1513,F#5,179.75,69/500,74,85.5
1514,B-5,179.75,69/500,74,85.5
1515,F5,179.875,0.125,68,85.5
1516,G#5,179.875,0.125,68,85.5
1517,E-5,180.0,0.25,90,85.5
1518,F#5,180.0,0.25,90,85.5
1519,F5,180.0,3/250,68,85.5
1520,G#5,180.0,3/250,68,85.5
1521,F#3,180.0,0.75,76,85.5
1522,E-3,180.0,0.75,76,85.5
1523,B-5,180.5,1.25,86,85.5
1524,F#5,180.5,1.25,86,85.5
1525,F3,180.75,69/500,64,85.5
1526,G#3,180.75,69/500,64,85.5
1527,F#3,180.875,69/500,64,85.5
1528,B-3,180.875,69/500,64,85.5
1529,B-2,181.0,0.25,78,85.5
1530,C#3,181.0,0.25,78,85.5
1531,C3,181.5,0.25,74,85.5
1532,E-3,181.5,0.25,74,85.5
1533,F5,181.75,69/500,74,85.5
1534,G#5,181.75,69/500,74,85.5
1535,E-5,181.875,0.125,68,85.5
1536,F#5,181.875,0.125,68,85.5
1537,F5,182.0,0.75,84,85.5
1538,C#5,182.0,0.75,84,85.5
1539,E-5,182.0,3/250,68,85.5
1540,F#5,182.0,3/250,68,85.5
1541,C#3,182.0,0.25,80,85.5
1542,F3,182.0,0.25,80,85.5
1543,G#3,182.5,1.25,76,85.5
1544,F3,182.5,1.25,76,85.5
1545,E-5,182.75,69/500,70,85.5
1546,F#5,182.75,69/500,70,85.5
1547,F5,182.875,69/500,70,85.5
1548,G#5,182.875,69/500,70,85.5
1549,G#4,183.0,0.25,86,85.5
1550,C5,183.0,0.25,86,85.5
1551,B-4,183.5,0.25,81,85.5
1552,C#5,183.5,0.25,81,85.5
1553,E-3,183.75,69/500,66,85.5
1554,F#3,183.75,69/500,66,85.5
1555,C#3,183.875,0.125,62,85.5
1556,F3,183.875,0.125,62,85.5
1557,E-5,184.0,0.75,84,85.5
1558,C5,184.0,0.75,84,85.5
1559,C3,184.0,0.25,80,85.5
1560,E-3,184.0,0.25,80,85.5
1561,C#3,184.0,3/250,62,85.5
1562,F3,184.0,3/250,62,85.5
1563,F#4,184.5,1.25,76,85.5
1564,E-4,184.5,1.25,76,85.5
1565,C#5,184.75,69/500,70,85.5
1566,F5,184.75,69/500,70,85.5
1567,E-5,184.875,69/500,70,85.5
1568,F#5,184.875,69/500,70,85.5
1569,G4,185.0,0.25,86,85.5
1570,B-4,185.0,0.25,86,85.5
1571,A4,185.5,0.25,81,85.5
1572,C5,185.5,0.25,81,85.5
1573,C#4,185.75,69/500,66,85.5
1574,F4,185.75,69/500,66,85.5
1575,C4,185.875,0.125,62,85.5
1576,E-4,185.875,0.125,62,85.5
1577,C#5,186.0,0.75,91,85.5
1578,B-4,186.0,1.0,77,85.5
1579,C#4,186.0,0.75,76,85.5
1580,B-3,186.0,0.75,76,85.5
1581,C4,186.0,3/250,62,85.5
1582,E-4,186.0,3/250,62,85.5
1583,E-5,186.75,0.125,77,85.5
1584,G#3,186.75,0.25,64,85.5
1585,C4,186.75,0.25,64,85.5
1586,F5,186.875,0.125,77,85.5
1587,F#5,187.0,0.75,91,85.5
1588,B-4,187.0,1.0,77,85.5
1589,B-3,187.0,0.75,76,85.5
1590,F#3,187.0,0.75,76,85.5
1591,G#5,187.75,0.125,77,85.5
1592,F3,187.75,0.25,64,85.5
1593,G#3,187.75,0.25,64,85.5
1594,B-5,187.875,0.125,77,85.5
1595,B5,188.0,0.75,91,85.5
1596,F#5,188.0,1.0,77,85.5
1597,F#3,188.0,0.5,83,85.5
1598,E-3,188.0,1.0,70,85.5
1599,E-4,188.5,0.5,70,85.5
1600,C#6,188.75,0.125,77,85.5
1601,E-6,188.875,0.125,77,85.5
1602,F4,189.0,0.25,84,85.5
1603,B-4,189.0,0.25,84,85.5
1604,F3,189.0,0.25,76,85.5
1605,C#4,189.0,0.25,76,85.5
1606,E-4,189.5,0.25,81,85.5
1607,A4,189.5,0.25,81,85.5
1608,C4,189.5,0.25,73,85.5
1609,F3,189.5,0.25,73,85.5
1610,C#4,190.0,0.25,82,85.5
1611,B-4,190.0,0.25,82,85.5
1612,B-2,190.0,0.25,66,85.5
1613,B-3,190.0,0.25,66,85.5
1614,F4,190.25,69/500,36,85.5
1615,A2,190.25,0.125,33,85.5
1616,C3,190.25,0.125,33,85.5
1617,E-4,190.375,0.125,31,85.5
1618,F4,190.5,69/500,36,85.5
1619,B-2,190.5,0.125,33,85.5
1620,C#3,190.5,0.125,33,85.5
1621,C#4,190.625,0.125,32,85.5
1622,F4,190.75,69/500,36,85.5
1623,C3,190.75,0.125,33,85.5
1624,E-3,190.75,0.125,33,85.5
1625,C4,190.875,0.125,31,85.5
1626,F4,191.0,69/500,42,85.5
1627,C#3,191.0,0.125,37,85.5
1628,F3,191.0,0.125,37,85.5
1629,B-3,191.125,0.125,31,85.5
1630,F4,191.25,69/500,36,85.5
1631,E-3,191.25,0.125,32,85.5
1632,F#3,191.25,0.125,32,85.5
1633,A3,191.375,0.125,31,85.5
1634,F4,191.5,69/500,36,85.5
1635,C#3,191.5,0.125,32,85.5
1636,F3,191.5,0.125,32,85.5
1637,B-3,191.625,0.125,30,85.5
1638,F4,191.75,69/500,36,85.5
1639,C3,191.75,0.125,32,85.5
1640,E-3,191.75,0.125,32,85.5
1641,C4,191.875,0.125,31,85.5
1642,F4,192.0,69/500,45,85.5
1643,B-2,192.0,0.125,37,85.5
1644,C#3,192.0,0.125,37,85.5
1645,C#4,192.125,0.125,31,85.5
1646,B-4,192.25,69/500,36,85.5
1647,D3,192.25,0.125,33,85.5
1648,F3,192.25,0.125,33,85.5
1649,G#4,192.375,0.125,31,85.5
1650,B-4,192.5,69/500,36,85.5
1651,E-3,192.5,0.125,33,85.5
1652,F#3,192.5,0.125,33,85.5
1653,F#4,192.625,0.125,32,85.5
1654,B-4,192.75,69/500,36,85.5
1655,G#3,192.75,0.125,33,85.5
1656,F3,192.75,0.125,33,85.5
1657,F4,192.875,0.125,31,85.5
1658,B-4,193.0,69/500,42,85.5
1659,B-3,193.0,0.125,37,85.5
1660,F#3,193.0,0.125,37,85.5
1661,E-4,193.125,0.125,31,85.5
1662,B-4,193.25,69/500,36,85.5
1663,G#3,193.25,0.125,33,85.5
1664,B3,193.25,0.125,33,85.5
1665,D4,193.375,0.125,31,85.5
1666,B-4,193.5,69/500,36,85.5
1667,F#3,193.5,0.125,33,85.5
1668,B-3,193.5,0.125,33,85.5
1669,E-4,193.625,0.125,30,85.5
1670,B-4,193.75,69/500,36,85.5
1671,F3,193.75,0.125,33,85.5
1672,G#3,193.75,0.125,33,85.5
1673,F4,193.875,0.125,31,85.5
1674,B-4,194.0,69/500,49,85.5
1675,E-3,194.0,0.125,42,85.5
1676,F#3,194.0,0.125,42,85.5
1677,F#4,194.125,0.125,34,85.5
1678,B-4,194.25,69/500,39,85.5
1679,E-3,194.25,0.125,33,85.5
1680,F#3,194.25,0.125,33,85.5
1681,F#4,194.375,0.125,34,85.5
1682,C5,194.5,69/500,39,85.5
1683,E3,194.5,0.125,33,85.5
1684,G3,194.5,0.125,33,85.5
1685,B-4,194.625,0.125,35,85.5
1686,C5,194.75,69/500,39,85.5
1687,E3,194.75,0.125,33,85.5
1688,G3,194.75,0.125,33,85.5
1689,B-4,194.875,0.125,34,85.5
1690,C#5,195.0,69/500,46,85.5
1691,F3,195.0,0.125,43,85.5
1692,B-3,195.0,0.125,43,85.5
1693,B-4,195.125,0.125,34,85.5
1694,C#5,195.25,69/500,39,85.5
1695,F3,195.25,0.125,35,85.5
1696,B-3,195.25,0.125,35,85.5
1697,B-4,195.375,0.125,34,85.5
1698,E-5,195.5,69/500,39,85.5
1699,F3,195.5,0.125,35,85.5
1700,C4,195.5,0.125,35,85.5
1701,A4,195.625,0.125,33,85.5
1702,E-5,195.75,69/500,39,85.5
1703,F3,195.75,0.125,35,85.5
1704,C4,195.75,0.125,35,85.5
1705,A4,195.875,0.125,34,85.5
1706,B-4,196.0,0.25,74,85.5
1707,B-2,196.0,0.25,64,85.5
1708,B-3,196.0,0.25,64,85.5
1709,F5,196.25,0.125,44,85.5
1710,F4,196.25,0.125,44,85.5
1711,A2,196.25,0.125,44,85.5
1712,A3,196.25,0.125,44,85.5
1713,E-5,196.375,0.125,42,85.5
1714,F4,196.5,69/500,44,85.5
1715,F5,196.5,69/500,44,85.5
1716,B-2,196.5,0.125,44,85.5
1717,B-3,196.5,0.125,44,85.5
1718,C#5,196.625,0.125,43,85.5
1719,F4,196.75,69/500,45,85.5
1720,F5,196.75,69/500,45,85.5
1721,C3,196.75,0.125,45,85.5
1722,C4,196.75,0.125,45,85.5
1723,C5,196.875,0.125,45,85.5
1724,F5,197.0,0.125,54,85.5
1725,F4,197.0,0.125,54,85.5
1726,C#3,197.0,0.125,52,85.5
1727,C#4,197.0,0.125,52,85.5
1728,B-4,197.125,0.125,45,85.5
1729,F4,197.25,69/500,49,85.5
1730,F5,197.25,69/500,49,85.5
1731,E-3,197.25,0.125,47,85.5
1732,E-4,197.25,0.125,47,85.5
1733,A4,197.375,0.125,45,85.5
1734,F4,197.5,69/500,49,85.5
1735,F5,197.5,69/500,49,85.5
1736,C#3,197.5,0.125,48,85.5
1737,C#4,197.5,0.125,48,85.5
1738,B-4,197.625,0.125,45,85.5
1739,F5,197.75,0.125,51,85.5
1740,F4,197.75,0.125,51,85.5
1741,C3,197.75,0.125,48,85.5
1742,C4,197.75,0.125,48,85.5
1743,C5,197.875,0.125,47,85.5
1744,F4,198.0,69/500,66,85.5
1745,F5,198.0,69/500,66,85.5
1746,B-2,198.0,0.125,59,85.5
1747,B-3,198.0,0.125,59,85.5
1748,C#5,198.125,0.125,48,85.5
1749,B-4,198.25,69/500,53,85.5
1750,B-5,198.25,69/500,53,85.5
1751,D3,198.25,0.125,53,85.5
1752,D4,198.25,0.125,53,85.5
1753,G#5,198.375,0.125,50,85.5
1754,B-4,198.5,69/500,54,85.5
1755,B-5,198.5,69/500,54,85.5
1756,E-3,198.5,0.125,54,85.5
1757,E-4,198.5,0.125,54,85.5
1758,F#5,198.625,0.125,55,85.5
1759,B-5,198.75,0.125,56,85.5
1760,B-4,198.75,0.125,56,85.5
1761,F4,198.75,0.125,56,85.5
1762,F3,198.75,0.125,56,85.5
1763,F5,198.875,0.125,54,85.5
1764,B-4,199.0,69/500,68,85.5
1765,B-5,199.0,69/500,68,85.5
1766,F#4,199.0,0.125,64,85.5
1767,F#3,199.0,0.125,64,85.5
1768,E-5,199.125,0.125,54,85.5
1769,B-5,199.25,0.125,60,85.5
1770,B-4,199.25,0.125,60,85.5
1771,G#3,199.25,0.125,60,85.5
1772,G#4,199.25,0.125,60,85.5
1773,D5,199.375,0.125,55,85.5
1774,B-4,199.5,69/500,60,85.5
1775,B-5,199.5,69/500,60,85.5
1776,F#3,199.5,0.125,60,85.5
1777,F#4,199.5,0.125,60,85.5
1778,E-5,199.625,0.125,55,85.5
1779,B-4,199.75,69/500,63,85.5
1780,B-5,199.75,69/500,63,85.5
1781,F3,199.75,0.125,63,85.5
1782,F4,199.75,0.125,63,85.5
1783,F5,199.875,0.125,58,85.5
1784,B-5,200.0,0.125,78,85.5
1785,B-4,200.0,0.125,78,85.5
1786,E-3,200.0,0.125,81,85.5
1787,E-4,200.0,0.125,81,85.5
1788,F#5,200.125,0.125,66,85.5
1789,B-4,200.25,69/500,69,85.5
1790,B-5,200.25,69/500,69,85.5
1791,E-4,200.25,0.125,64,85.5
1792,F#4,200.25,0.125,64,85.5
1793,F#5,200.375,0.125,68,85.5
1794,C5,200.5,69/500,72,85.5
1795,C6,200.5,69/500,72,85.5
1796,E4,200.5,0.125,66,85.5
1797,G4,200.5,0.125,66,85.5
1798,B-5,200.625,0.125,71,85.5
1799,C6,200.75,0.125,72,85.5
1800,C5,200.75,0.125,72,85.5
1801,E4,200.75,0.125,66,85.5
1802,G4,200.75,0.125,66,85.5
1803,B-5,200.875,0.125,71,85.5
1804,C#6,201.0,0.125,90,85.5
1805,C#5,201.0,0.125,90,85.5
1806,F4,201.0,0.125,82,85.5
1807,B-4,201.0,0.125,82,85.5
1808,B-5,201.125,0.125,71,85.5
1809,C#5,201.25,69/500,78,85.5
1810,C#6,201.25,69/500,78,85.5
1811,F4,201.25,0.125,74,85.5
1812,B-4,201.25,0.125,74,85.5
1813,B-5,201.375,0.125,74,85.5
1814,E-5,201.5,69/500,80,85.5
1815,E-6,201.5,69/500,80,85.5
1816,F4,201.5,0.125,78,85.5
1817,C5,201.5,0.125,78,85.5
1818,A5,201.625,0.125,73,85.5
1819,E-6,201.75,0.125,81,85.5
1820,E-5,201.75,0.125,81,85.5
1821,F4,201.75,0.125,78,85.5
1822,C5,201.75,0.125,78,85.5
1823,A5,201.875,0.125,77,85.5
1824,B-5,202.0,0.25,100,85.5
1825,B-3,202.0,0.125,69,85.5
1826,C#4,202.0,0.125,69,85.5
1827,F4,202.0,0.125,69,85.5
1828,B-4,202.0,0.125,69,85.5
1829,F6,202.25,0.5,97,85.5
1830,B-3,202.25,0.125,58,85.5
1831,C#4,202.25,0.125,58,85.5
1832,F4,202.25,0.125,58,85.5
1833,B-4,202.25,0.125,58,85.5
1834,B-3,202.5,0.125,51,85.5
1835,C#4,202.5,0.125,51,85.5
1836,F4,202.5,0.125,51,85.5
1837,B-4,202.5,0.125,51,85.5
1838,F6,202.75,0.25,93,85.5
1839,B-3,202.75,0.125,51,85.5
1840,C#4,202.75,0.125,51,85.5
1841,F4,202.75,0.125,51,85.5
1842,B-4,202.75,0.125,51,85.5
1843,E-6,203.0,0.125,94,85.5
1844,B-3,203.0,0.125,53,85.5
1845,C4,203.0,0.125,53,85.5
1846,E-4,203.0,0.125,53,85.5
1847,F4,203.0,0.125,53,85.5
1848,A4,203.0,0.125,53,85.5
1849,C6,203.125,0.125,74,85.5
1850,A5,203.25,0.125,81,85.5
1851,B-3,203.25,0.125,46,85.5
1852,C4,203.25,0.125,46,85.5
1853,E-4,203.25,0.125,46,85.5
1854,F4,203.25,0.125,46,85.5
1855,A4,203.25,0.125,46,85.5
1856,F5,203.375,0.125,77,85.5
1857,E-5,203.5,0.125,58,85.5
1858,B-3,203.5,0.125,46,85.5
1859,C4,203.5,0.125,46,85.5
1860,E-4,203.5,0.125,46,85.5
1861,F4,203.5,0.125,46,85.5
1862,A4,203.5,0.125,46,85.5
1863,D5,203.625,0.125,64,85.5
1864,E-5,203.75,0.125,53,85.5
1865,B-3,203.75,0.125,46,85.5
1866,C4,203.75,0.125,46,85.5
1867,E-4,203.75,0.125,46,85.5
1868,F4,203.75,0.125,46,85.5
1869,A4,203.75,0.125,46,85.5
1870,C5,203.875,0.125,63,85.5
1871,B-4,204.0,229/1000,87,85.5
1872,B-2,204.0,0.125,58,85.5
1873,C#3,204.0,0.125,58,85.5
1874,F3,204.0,0.125,58,85.5
1875,B-3,204.0,0.125,58,85.5
1876,F5,204.25,0.5,97,85.5
1877,B-2,204.25,0.125,58,85.5
1878,C#3,204.25,0.125,58,85.5
1879,F3,204.25,0.125,58,85.5
1880,B-3,204.25,0.125,58,85.5
1881,B-2,204.5,0.125,51,85.5
1882,C#3,204.5,0.125,51,85.5
1883,F3,204.5,0.125,51,85.5
1884,B-3,204.5,0.125,51,85.5
1885,F5,204.75,0.25,93,85.5
1886,B-2,204.75,0.125,51,85.5
1887,C#3,204.75,0.125,51,85.5
1888,F3,204.75,0.125,51,85.5
1889,B-3,204.75,0.125,51,85.5
1890,E-5,205.0,0.125,94,85.5
1891,B-2,205.0,0.125,53,85.5
1892,C3,205.0,0.125,53,85.5
1893,E-3,205.0,0.125,53,85.5
1894,F3,205.0,0.125,53,85.5
1895,A3,205.0,0.125,53,85.5
1896,C5,205.125,0.125,73,85.5
1897,A4,205.25,0.125,81,85.5
1898,B-2,205.25,0.125,46,85.5
1899,C3,205.25,0.125,46,85.5
1900,E-3,205.25,0.125,46,85.5
1901,F3,205.25,0.125,46,85.5
1902,A3,205.25,0.125,46,85.5
1903,F4,205.375,0.125,74,85.5
1904,E-4,205.5,0.125,58,85.5
1905,B-2,205.5,0.125,46,85.5
1906,C3,205.5,0.125,46,85.5
1907,E-3,205.5,0.125,46,85.5
1908,F3,205.5,0.125,46,85.5
1909,A3,205.5,0.125,46,85.5
1910,D4,205.625,0.125,64,85.5
1911,E-4,205.75,0.125,53,85.5
1912,B-2,205.75,0.125,46,85.5
1913,C3,205.75,0.125,46,85.5
1914,E-3,205.75,0.125,46,85.5
1915,F3,205.75,0.125,46,85.5
1916,A3,205.75,0.125,46,85.5
1917,C4,205.875,0.125,63,85.5
1918,B-3,206.0,0.5,87,85.5
1919,B-2,206.0,1.25,64,85.5
1920,C#3,207.25,11/40,45,85.5
1921,E-3,207.5,11/40,50,85.5
1922,C#3,207.75,0.25,46,85.5
1923,B2,208.0,11/40,50,85.5
1924,C#3,208.0,1/40,46,85.5
1925,B-2,208.25,11/40,46,85.5
1926,G#2,208.5,11/40,46,85.5
1927,F#2,208.75,11/40,46,85.5
1928,F2,209.0,0.5,50,85.5
1929,F#2,209.5,0.5,47,85.5
1930,E-4,210.0,1.0,36,85.5
1931,G2,210.0,0.5,53,85.5
1932,B-3,210.0,0.5,40,85.5
1933,C#4,210.0,0.5,40,85.5
1934,G#2,210.5,0.75,49,85.5
1935,G#3,210.5,0.5,37,85.5
1936,B3,210.5,0.5,37,85.5
1937,E-3,211.25,11/40,45,85.5
1938,E3,211.5,11/40,50,85.5
1939,E-3,211.75,0.25,46,85.5
1940,C#3,212.0,11/40,50,85.5
1941,E-3,212.0,1/40,46,85.5
1942,B2,212.25,11/40,41,85.5
1943,B-2,212.5,11/40,46,85.5
1944,G#2,212.75,11/40,40,85.5
1945,G2,213.0,0.5,48,85.5
1946,G#2,213.5,0.5,40,85.5
1947,F#4,214.0,0.5,36,85.5
1948,A2,214.0,2.0,45,85.5
1949,E-4,214.0,2.0,30,85.5
1950,C4,214.0,2.0,30,85.5
1951,F4,214.5,729/1000,34,85.5
1952,F4,215.25,11/40,34,85.5
1953,F#4,215.5,11/40,34,85.5
1954,F4,215.75,0.25,34,85.5
1955,F#4,216.0,0.5,36,85.5
1956,B-2,216.0,2.0,45,85.5
1957,E-4,216.0,2.0,30,85.5
1958,C4,216.0,2.0,30,85.5
1959,F4,216.5,729/1000,34,85.5
1960,F4,217.25,11/40,34,85.5
1961,F#4,217.5,11/40,34,85.5
1962,F4,217.75,0.25,34,85.5
1963,F#4,218.0,0.75,36,85.5
1964,A2,218.0,0.5,45,85.5
1965,E-4,218.0,0.5,30,85.5
1966,C4,218.0,0.5,30,85.5
1967,F4,218.75,0.25,34,85.5
1968,F#4,219.0,0.75,36,85.5
1969,F4,219.75,0.25,29,85.5
1970,F#4,220.0,0.125,34,85.5
1971,F4,220.125,0.125,29,85.5
1972,F#4,220.25,0.125,34,85.5
1973,F4,220.375,0.125,29,85.5
1974,F#4,220.5,0.125,34,85.5
1975,F4,220.625,0.125,29,85.5
1976,F#4,220.75,0.125,34,85.5
1977,F4,220.875,0.125,30,85.5
1978,F#4,221.0,0.125,34,85.5
1979,F4,221.125,0.125,30,85.5
1980,F#4,221.25,0.125,34,85.5
1981,F4,221.375,0.125,29,85.5
1982,F#4,221.5,0.125,34,85.5
1983,F4,221.625,0.125,29,85.5
1984,F#4,221.75,0.125,34,85.5
1985,F4,221.875,0.125,31,85.5
1986,G4,222.0,0.125,34,85.5
1987,F4,222.125,0.125,29,85.5
1988,G4,222.25,0.125,35,85.5
1989,F4,222.375,0.125,30,85.5
1990,G4,222.5,0.125,36,85.5
1991,F4,222.625,0.125,31,85.5
1992,G4,222.75,0.125,37,85.5
1993,F4,222.875,0.125,33,85.5
1994,G4,223.0,0.125,39,85.5
1995,F4,223.125,0.125,34,85.5
1996,G4,223.25,0.125,40,85.5
1997,F4,223.375,0.125,34,85.5
1998,G4,223.5,0.125,41,85.5
1999,F4,223.625,0.125,35,85.5
2000,G4,223.75,0.125,42,85.5
2001,F4,223.875,0.125,39,85.5
2002,G3,224.0,0.25,38,85.5
2003,E-4,224.0,0.25,38,85.5
2004,F4,224.25,0.25,42,85.5
2005,F3,224.25,0.25,36,85.5
2006,D4,224.25,0.25,36,85.5
2007,F5,224.5,0.25,48,85.5
2008,E-3,224.5,0.25,36,85.5
2009,C4,224.5,0.25,36,85.5
2010,F4,224.75,0.25,42,85.5
2011,D3,224.75,0.25,36,85.5
2012,B-3,224.75,0.25,36,85.5
2013,C3,225.0,0.5,35,85.5
2014,A3,225.0,0.5,35,85.5
2015,F4,225.25,0.25,42,85.5
2016,F5,225.5,0.25,47,85.5
2017,D3,225.5,0.5,36,85.5
2018,B-3,225.5,0.5,36,85.5
2019,F4,225.75,0.25,42,85.5
2020,G#3,226.0,0.5,42,85.5
2021,B3,226.0,0.5,42,85.5
2022,F4,226.25,0.25,42,85.5
2023,F5,226.5,0.25,48,85.5
2024,A3,226.5,0.75,38,85.5
2025,C4,226.5,0.75,38,85.5
2026,F4,226.75,0.25,42,85.5
2027,F5,227.0,0.25,48,85.5
2028,F#4,227.25,0.25,38,85.5
2029,A4,227.5,0.25,42,85.5
2030,G4,227.75,0.25,39,85.5
2031,F4,228.0,229/1000,42,85.5
2032,F4,228.25,0.25,42,85.5
2033,G3,228.25,0.25,36,85.5
2034,E-4,228.25,0.25,36,85.5
2035,F5,228.5,0.25,48,85.5
2036,F3,228.5,0.25,36,85.5
2037,D4,228.5,0.25,36,85.5
2038,F4,228.75,0.25,42,85.5
2039,E-3,228.75,0.25,36,85.5
2040,C4,228.75,0.25,36,85.5
2041,D3,229.0,0.5,38,85.5
2042,B-3,229.0,0.5,38,85.5
2043,F4,229.25,0.25,42,85.5
2044,F5,229.5,0.25,47,85.5
2045,A3,229.5,0.5,36,85.5
2046,C4,229.5,0.5,36,85.5
2047,F4,229.75,0.25,42,85.5
2048,A3,230.0,0.5,42,85.5
2049,C#4,230.0,0.5,42,85.5
2050,F4,230.25,0.25,42,85.5
2051,F5,230.5,0.25,48,85.5
2052,B-3,230.5,0.75,38,85.5
2053,D4,230.5,0.75,38,85.5
2054,F4,230.75,0.25,42,85.5
2055,F5,231.0,0.5,48,85.5
2056,F4,231.25,0.25,43,85.5
2057,B3,231.5,0.5,34,85.5
2058,G4,231.5,0.25,49,85.5
2059,D4,231.75,0.25,44,85.5
2060,C4,232.0,0.5,37,85.5
2061,F4,232.0,0.25,51,85.5
2062,F5,232.25,0.25,56,85.5
2063,E-4,232.25,0.25,48,85.5
2064,F6,232.5,0.5,67,85.5
2065,A3,232.5,0.5,37,85.5
2066,F4,232.5,0.25,53,85.5
2067,C4,232.75,0.25,48,85.5
2068,B-3,233.0,0.5,38,85.5
2069,E-4,233.0,0.25,53,85.5
2070,F4,233.25,0.25,47,85.5
2071,D4,233.25,0.25,49,85.5
2072,F5,233.5,0.5,54,85.5
2073,B3,233.5,0.5,38,85.5
2074,G4,233.5,0.25,56,85.5
2075,D4,233.75,0.25,50,85.5
2076,C4,234.0,0.5,39,85.5
2077,F4,234.0,0.25,59,85.5
2078,F5,234.25,0.25,66,85.5
2079,E-4,234.25,0.25,54,85.5
2080,F6,234.5,0.75,78,85.5
2081,A3,234.5,0.5,39,85.5
2082,F4,234.5,0.25,60,85.5
2083,C4,234.75,0.25,52,85.5
2084,B-3,235.0,0.5,50,85.5
2085,E-4,235.0,0.25,59,85.5
2086,F5,235.25,0.5,71,85.5
2087,D4,235.25,0.5,53,85.5
2088,A3,235.5,0.5,47,85.5
2089,G5,235.75,0.125,67,85.5
2090,C4,235.75,0.25,60,85.5
2091,A5,235.875,0.125,70,85.5
2092,B-5,236.0,0.125,72,85.5
2093,G3,236.0,1.0,66,85.5
2094,C4,236.0,0.5,60,85.5
2095,C6,236.125,0.125,73,85.5
2096,D6,236.25,0.125,75,85.5
2097,C6,236.375,0.125,73,85.5
2098,B-5,236.5,0.125,74,85.5
2099,B-3,236.5,1.0,60,85.5
2100,A5,236.625,0.125,70,85.5
2101,G5,236.75,0.125,71,85.5
2102,F5,236.875,0.125,69,85.5
2103,E5,237.0,0.125,68,85.5
2104,C3,237.0,1.0,62,85.5
2105,D5,237.125,0.125,66,85.5
2106,C5,237.25,0.125,63,85.5
2107,B-4,237.375,0.125,62,85.5
2108,A4,237.5,0.125,60,85.5
2109,B-3,237.5,0.5,58,85.5
2110,G4,237.625,0.125,58,85.5
2111,F4,237.75,0.125,57,85.5
2112,E4,237.875,0.125,55,85.5
2113,G4,238.0,0.125,54,85.5
2114,F3,238.0,1.0,58,85.5
2115,B-3,238.0,0.5,58,85.5
2116,F4,238.125,0.125,49,85.5
2117,A4,238.25,0.125,54,85.5
2118,G4,238.375,0.125,48,85.5
2119,B-4,238.5,0.125,54,85.5
2120,A3,238.5,0.5,47,85.5
2121,A4,238.625,0.125,50,85.5
2122,C5,238.75,0.125,54,85.5
2123,B-4,238.875,0.125,49,85.5
2124,D5,239.0,0.125,54,85.5
2125,C5,239.125,0.125,48,85.5
2126,E-5,239.25,0.125,54,85.5
2127,D5,239.375,0.125,49,85.5
2128,F5,239.5,0.125,54,85.5
2129,E5,239.625,0.125,48,85.5
2130,G5,239.75,0.125,53,85.5
2131,F5,239.875,0.125,49,85.5
2132,B-2,240.0,0.5,42,85.5
2133,E-4,240.0,0.25,46,85.5
2134,E-5,240.0,0.25,46,85.5
2135,F3,240.25,0.25,34,85.5
2136,D4,240.25,0.25,42,85.5
2137,D5,240.25,0.25,42,85.5
2138,D3,240.5,0.5,38,85.5
2139,C4,240.5,0.25,42,85.5
2140,C5,240.5,0.25,42,85.5
2141,F3,240.75,0.25,34,85.5
2142,B-3,240.75,0.25,42,85.5
2143,B-4,240.75,0.25,42,85.5
2144,E-3,241.0,0.25,38,85.5
2145,C3,241.0,0.5,38,85.5
2146,A3,241.0,0.5,42,85.5
2147,A4,241.0,0.5,42,85.5
2148,F3,241.25,0.25,34,85.5
2149,D3,241.5,0.25,37,85.5
2150,B-2,241.5,0.5,37,85.5
2151,B-3,241.5,0.5,43,85.5
2152,B-4,241.5,0.5,43,85.5
2153,F3,241.75,0.25,34,85.5
2154,B3,242.0,0.5,49,85.5
2155,B4,242.0,0.5,49,85.5
2156,A2,242.0,2.0,43,85.5
2157,E-3,242.0,2.0,43,85.5
2158,F3,242.25,0.125,34,85.5
2159,F3,242.5,0.125,34,85.5
2160,C4,242.5,0.75,45,85.5
2161,C5,242.5,0.75,45,85.5
2162,F3,242.75,0.125,34,85.5
2163,F3,243.0,0.125,37,85.5
2164,F#4,243.25,0.125,48,85.5
2165,F3,243.25,0.125,34,85.5
2166,F#5,243.375,0.125,45,85.5
2167,A4,243.5,0.125,43,85.5
2168,F3,243.5,0.125,34,85.5
2169,A5,243.625,0.125,46,85.5
2170,G4,243.75,0.125,53,85.5
2171,F3,243.75,0.125,34,85.5
2172,G5,243.875,0.125,46,85.5
2173,F4,244.0,0.125,52,85.5
2174,A2,244.0,0.5,42,85.5
2175,F5,244.125,0.125,47,85.5
2176,E-4,244.25,0.125,51,85.5
2177,F3,244.25,0.25,34,85.5
2178,E-5,244.375,0.125,46,85.5
2179,D4,244.5,0.125,51,85.5
2180,E-3,244.5,0.5,38,85.5
2181,D5,244.625,0.125,46,85.5
2182,C4,244.75,0.125,51,85.5
2183,F3,244.75,0.25,34,85.5
2184,C5,244.875,0.125,46,85.5
2185,A3,245.0,0.125,50,85.5
2186,D3,245.0,0.5,38,85.5
2187,A4,245.125,0.125,42,85.5
2188,B-3,245.25,0.125,47,85.5
2189,F3,245.25,0.25,34,85.5
2190,B-4,245.375,0.125,42,85.5
2191,B3,245.5,0.125,49,85.5
2192,A2,245.5,0.5,37,85.5
2193,B4,245.625,0.125,42,85.5
2194,C4,245.75,0.125,49,85.5
2195,F3,245.75,0.25,34,85.5
2196,C5,245.875,0.125,42,85.5
2197,B-2,246.0,1.5,43,85.5
2198,C#4,246.0,0.5,49,85.5
2199,C#5,246.0,0.5,49,85.5
2200,F3,246.25,0.125,34,85.5
2201,F3,246.5,0.125,34,85.5
2202,D4,246.5,0.75,45,85.5
2203,D5,246.5,0.75,45,85.5
2204,F3,246.75,0.125,34,85.5
2205,F3,247.0,0.125,40,85.5
2206,F4,247.25,0.125,56,85.5
2207,F3,247.25,0.125,37,85.5
2208,F5,247.375,0.125,52,85.5
2209,G4,247.5,0.125,64,85.5
2210,F3,247.5,0.125,37,85.5
2211,B2,247.5,0.5,37,85.5
2212,G5,247.625,0.125,58,85.5
2213,D4,247.75,0.125,57,85.5
2214,F3,247.75,0.125,37,85.5
2215,D5,247.875,0.125,52,85.5
2216,F4,248.0,0.125,62,85.5
2217,C3,248.0,0.5,47,85.5
2218,F5,248.125,0.125,59,85.5
2219,E-4,248.25,0.125,58,85.5
2220,F3,248.25,0.25,38,85.5
2221,E-5,248.375,0.125,53,85.5
2222,F4,248.5,0.125,64,85.5
2223,A2,248.5,0.5,42,85.5
2224,F5,248.625,0.125,58,85.5
2225,C4,248.75,0.125,58,85.5
2226,F3,248.75,0.25,38,85.5
2227,C5,248.875,0.125,51,85.5
2228,E-4,249.0,0.125,64,85.5
2229,B-2,249.0,0.5,47,85.5
2230,E-5,249.125,0.125,59,85.5
2231,D4,249.25,0.125,59,85.5
2232,F3,249.25,0.25,38,85.5
2233,D5,249.375,0.125,53,85.5
2234,G4,249.5,0.125,67,85.5
2235,B2,249.5,0.5,43,85.5
2236,G5,249.625,0.125,60,85.5
2237,D4,249.75,0.125,59,85.5
2238,F3,249.75,0.25,39,85.5
2239,D5,249.875,0.125,55,85.5
2240,F4,250.0,0.125,71,85.5
2241,C3,250.0,0.5,54,85.5
2242,F5,250.125,0.125,67,85.5
2243,E-4,250.25,0.125,64,85.5
2244,F3,250.25,0.25,39,85.5
2245,E-5,250.375,0.125,59,85.5
2246,F4,250.5,0.125,72,85.5
2247,A2,250.5,0.5,49,85.5
2248,F5,250.625,0.125,67,85.5
2249,C4,250.75,0.125,63,85.5
2250,F3,250.75,0.25,39,85.5
2251,C5,250.875,0.125,60,85.5
2252,E-4,251.0,0.125,71,85.5
2253,B-2,251.0,0.5,56,85.5
2254,E-5,251.125,0.125,64,85.5
2255,D4,251.25,0.125,64,85.5
2256,F3,251.25,0.25,41,85.5
2257,D5,251.375,0.125,57,85.5
2258,E-4,251.5,0.125,67,85.5
2259,G#2,251.5,0.5,51,85.5
2260,E-5,251.625,0.125,58,85.5
2261,F4,251.75,0.125,71,85.5
2262,B-2,251.75,0.25,45,85.5
2263,F5,251.875,0.125,64,85.5
2264,F#4,252.0,0.125,76,85.5
2265,G2,252.0,479/1000,62,85.5
2266,F#5,252.125,0.125,69,85.5
2267,G4,252.25,0.125,76,85.5
2268,B-2,252.25,0.25,51,85.5
2269,G5,252.375,0.125,69,85.5
2270,A4,252.5,0.125,76,85.5
2271,E-2,252.5,0.5,58,85.5
2272,A5,252.625,0.125,66,85.5
2273,B-4,252.75,0.125,78,85.5
2274,E-3,252.75,0.25,51,85.5
2275,B-5,252.875,0.125,70,85.5
2276,F2,253.0,479/1000,56,85.5
2277,B-3,253.0,0.5,71,85.5
2278,B-4,253.0,0.5,71,85.5
2279,D3,253.25,0.25,42,85.5
2280,F2,253.5,0.5,49,85.5
2281,C4,253.5,0.5,64,85.5
2282,C5,253.5,0.5,64,85.5
2283,A2,253.75,0.25,43,85.5
2284,B-1,254.0,0.25,43,85.5
2285,C#4,254.0,0.5,45,85.5
2286,C#5,254.0,0.5,45,85.5
2287,B-2,254.25,1.25,29,85.5
2288,B-3,254.5,0.125,35,85.5
2289,D4,254.5,0.625,42,85.5
2290,D5,254.5,0.625,42,85.5
2291,B-3,254.75,0.125,29,85.5
2292,B-3,255.0,0.125,37,85.5
2293,B-4,255.125,0.125,59,85.5
2294,A4,255.25,0.125,61,85.5
2295,B-3,255.25,0.125,35,85.5
2296,B-4,255.375,0.125,62,85.5
2297,B4,255.5,0.125,62,85.5
2298,G#3,255.5,0.5,43,85.5
2299,C5,255.625,0.125,64,85.5
2300,C#5,255.75,0.125,65,85.5
2301,B-3,255.75,0.25,39,85.5
2302,D5,255.875,0.125,67,85.5
2303,E-5,256.0,0.125,69,85.5
2304,G3,256.0,0.5,52,85.5
2305,E5,256.125,0.125,70,85.5
2306,F5,256.25,0.125,71,85.5
2307,B-3,256.25,0.25,46,85.5
2308,F#5,256.375,0.125,73,85.5
2309,G5,256.5,0.125,74,85.5
2310,E-3,256.5,0.5,56,85.5
2311,G#5,256.625,0.125,76,85.5
2312,A5,256.75,0.125,77,85.5
2313,E-4,256.75,0.25,50,85.5
2314,B-5,256.875,0.125,78,85.5
2315,B-4,257.0,1/10,53,85.5
2316,F3,257.0,479/1000,35,85.5
2317,C5,257.1,1/10,48,85.5
2318,B-4,257.2,1/10,45,85.5
2319,D4,257.25,0.25,29,85.5
2320,A4,257.3,1/10,45,85.5
2321,B-4,257.4,1/10,45,85.5
2322,E-4,257.5,0.5,42,85.5
2323,D5,257.5,0.375,52,85.5
2324,F3,257.5,0.5,35,85.5
2325,A3,257.75,0.25,29,85.5
2326,C5,257.875,0.125,41,85.5
2327,D4,258.0,0.5,46,85.5
2328,B-4,258.0,0.5,46,85.5
2329,B-2,258.0,0.5,36,85.5
2330,B-3,258.0,0.5,36,85.5
2331,F4,259.0,1.0,74,85.5
2332,D5,259.0,1.0,74,85.5
2333,B-3,259.0,1.0,55,85.5
2334,D4,259.0,1.0,55,85.5
2335,G4,260.0,1.0,45,85.5
2336,C5,260.0,27/250,53,85.5
2337,E-3,260.0,1.5,42,85.5
2338,C4,260.0,1.5,42,85.5
2339,D5,260.108,53/500,50,85.5
2340,C5,260.215,27/250,53,85.5
2341,D5,260.323,27/250,50,85.5
2342,C5,260.431,53/500,53,85.5
2343,B4,260.538,27/250,49,85.5
2344,C5,260.646,53/500,49,85.5
2345,D5,260.75,0.125,49,85.5
2346,E-5,260.875,0.125,50,85.5
2347,G4,261.0,0.5,57,85.5
2348,E-4,261.5,0.5,50,85.5
2349,A4,261.5,0.5,50,85.5
2350,F3,261.5,0.5,38,85.5
2351,C4,261.5,0.5,38,85.5
2352,D4,262.0,979/1000,47,85.5
2353,B-4,262.0,0.5,56,85.5
2354,B-2,262.0,979/1000,46,85.5
2355,B-3,262.0,979/1000,46,85.5
2356,F4,262.5,0.25,46,85.5
2357,F4,263.0,1.0,74,85.5
2358,D5,263.0,1.0,74,85.5
2359,B-3,263.0,1.0,55,85.5
2360,D4,263.0,1.0,55,85.5
2361,G4,264.0,1.0,45,85.5
2362,C5,264.0,0.25,63,85.5
2363,E3,264.0,1.0,41,85.5
2364,G3,264.0,1.0,41,85.5
2365,D5,264.25,83/1000,56,85.5
2366,C5,264.333,83/1000,56,85.5
2367,B4,264.417,83/1000,56,85.5
2368,C5,264.5,0.375,63,85.5
2369,D5,264.875,0.125,58,85.5
2370,E4,265.0,1.0,45,85.5
2371,B-4,265.0,0.25,63,85.5
2372,C3,265.0,1.0,41,85.5
2373,C4,265.0,1.0,41,85.5
2374,C5,265.25,83/1000,56,85.5
2375,B-4,265.333,83/1000,56,85.5
2376,A4,265.417,83/1000,56,85.5
2377,B-4,265.5,0.375,63,85.5
2378,C5,265.875,0.125,58,85.5
2379,F4,266.0,1.0,47,85.5
2380,B-4,266.0,0.5,56,85.5
2381,F3,266.0,1.0,46,85.5
2382,C4,266.0,1.0,46,85.5
2383,A4,266.5,0.25,46,85.5
2384,G4,267.0,1.0,74,85.5
2385,G5,267.0,1.0,74,85.5
2386,B-3,267.0,1.0,55,85.5
2387,D4,267.0,1.0,55,85.5
2388,C5,268.0,1.0,45,85.5
2389,F5,268.0,0.25,63,85.5
2390,A3,268.0,1.0,41,85.5
2391,C4,268.0,1.0,41,85.5
2392,G5,268.25,83/1000,56,85.5
2393,F5,268.333,83/1000,56,85.5
2394,E5,268.417,83/1000,56,85.5
2395,F5,268.5,0.375,63,85.5
2396,G5,268.875,0.125,58,85.5
2397,A4,269.0,1.0,45,85.5
2398,E-5,269.0,0.25,63,85.5
2399,F3,269.0,1.0,41,85.5
2400,F4,269.0,1.0,41,85.5
2401,F5,269.25,83/1000,56,85.5
2402,E-5,269.333,83/1000,56,85.5
2403,D5,269.417,83/1000,56,85.5
2404,E-5,269.5,0.375,63,85.5
2405,F5,269.875,0.125,58,85.5
2406,B-4,270.0,979/1000,47,85.5
2407,E-5,270.0,0.5,56,85.5
2408,B-3,270.0,979/1000,46,85.5
2409,F4,270.0,979/1000,46,85.5
2410,D5,270.5,0.25,46,85.5
2411,D3,271.0,1.0,62,85.5
2412,B-3,271.125,0.875,52,85.5
2413,D4,271.25,0.75,54,85.5
2414,D5,271.5,0.5,54,85.5
2415,B-5,271.625,0.375,69,85.5
2416,D6,271.75,0.25,73,85.5
2417,D5,272.0,0.5,54,85.5
2418,B-5,272.0,0.5,69,85.5
2419,D6,272.0,0.5,73,85.5
2420,E-3,272.0,1.0,69,85.5
2421,B-3,272.125,0.875,58,85.5
2422,D4,272.25,0.75,60,85.5
2423,D5,272.5,1.0,61,85.5
2424,B-5,272.625,0.875,73,85.5
2425,D6,272.75,0.75,78,85.5
2426,F3,273.0,1.0,73,85.5
2427,B-3,273.125,0.875,61,85.5
2428,D4,273.25,0.75,64,85.5
2429,D5,273.5,0.5,65,85.5
2430,B-5,273.625,0.375,76,85.5
2431,D6,273.75,0.25,81,85.5
2432,D5,274.0,0.5,65,85.5
2433,B-5,274.0,0.5,76,85.5
2434,D6,274.0,0.5,81,85.5
2435,G3,274.0,1.0,77,85.5
2436,B-3,274.125,0.875,64,85.5
2437,D4,274.25,0.75,68,85.5
2438,D5,274.5,0.5,68,85.5
2439,B-5,274.625,0.375,80,85.5
2440,D6,274.75,0.25,86,85.5
2441,D4,275.0,479/1000,62,85.5
2442,F4,275.0,479/1000,62,85.5
2443,B-4,275.0,479/1000,62,85.5
2444,B-4,275.5,0.5,64,85.5
2445,D6,275.5,0.5,82,85.5
2446,D5,275.5,0.5,82,85.5
2447,E4,275.5,0.5,58,85.5
2448,G4,275.5,0.5,58,85.5
2449,F4,276.0,1.0,59,85.5
2450,B-4,276.0,0.5,64,85.5
2451,D6,276.0,0.5,82,85.5
2452,D5,276.0,0.5,82,85.5
2453,A4,276.5,0.25,63,85.5
2454,C6,276.5,0.25,62,85.5
2455,C5,276.5,0.25,62,85.5
2456,B-3,277.0,479/1000,62,85.5
2457,D4,277.0,479/1000,62,85.5
2458,G4,277.0,479/1000,62,85.5
2459,C#4,277.5,0.5,55,85.5
2460,B-5,277.5,0.5,82,85.5
2461,B-4,277.5,0.5,82,85.5
2462,E4,277.5,0.5,60,85.5
2463,G4,277.5,0.5,60,85.5
2464,D4,278.0,0.75,59,85.5
2465,B-5,278.0,0.5,82,85.5
2466,B-4,278.0,0.5,82,85.5
2467,E4,278.0,0.5,60,85.5
2468,G4,278.0,0.5,60,85.5
2469,F4,278.5,0.25,63,85.5
2470,A5,278.5,0.25,62,85.5
2471,A4,278.5,0.25,62,85.5
2472,G3,279.0,0.5,62,85.5
2473,B-3,279.0,0.5,62,85.5
2474,E-4,279.0,0.5,62,85.5
2475,E-4,279.5,0.5,64,85.5
2476,G5,279.5,0.5,82,85.5
2477,G4,279.5,0.5,82,85.5
2478,A3,279.5,0.5,58,85.5
2479,C4,279.5,0.5,58,85.5
2480,B-3,280.0,0.5,68,85.5
2481,E-4,280.0,0.5,64,85.5
2482,G5,280.0,0.25,82,85.5
2483,G4,280.0,0.25,82,85.5
2484,D4,280.25,0.5,58,85.5
2485,F4,280.25,0.5,62,85.5
2486,F5,280.25,0.5,62,85.5
2487,E-3,280.5,0.5,49,85.5
2488,C4,280.75,0.5,66,85.5
2489,E-4,280.75,0.5,66,85.5
2490,E-5,280.75,0.5,66,85.5
2491,F3,281.0,479/1000,56,85.5
2492,B-3,281.25,0.5,59,85.5
2493,D4,281.25,0.5,62,85.5
2494,D5,281.25,0.5,62,85.5
2495,F3,281.5,0.5,49,85.5
2496,A3,281.75,0.25,59,85.5
2497,C4,281.75,0.25,61,85.5
2498,C5,281.75,0.25,61,85.5
2499,B-2,282.0,0.75,56,85.5
2500,A3,282.0,0.5,59,85.5
2501,C#4,282.0,0.5,66,85.5
2502,C#5,282.0,0.5,66,85.5
2503,B-3,282.5,0.25,66,85.5
2504,D4,282.5,0.25,61,85.5
2505,D5,282.5,0.25,61,85.5
2506,D4,283.0,0.5,62,85.5
2507,B-2,283.0,1.0,63,85.5
2508,F3,283.0,0.5,63,85.5
2509,G3,283.5,0.5,57,85.5
2510,D5,283.5,0.5,55,85.5
2511,E4,283.5,0.5,55,85.5
2512,A2,284.0,1.0,68,85.5
2513,G3,284.0,0.5,57,85.5
2514,D5,284.0,0.5,55,85.5
2515,E4,284.0,0.5,55,85.5
2516,A3,284.5,0.25,63,85.5
2517,F4,284.5,0.25,62,85.5
2518,C5,284.5,0.25,62,85.5
2519,B-3,285.0,0.5,62,85.5
2520,G2,285.0,1.0,63,85.5
2521,D3,285.0,0.5,63,85.5
2522,E3,285.5,0.5,57,85.5
2523,B-4,285.5,0.5,55,85.5
2524,C#4,285.5,0.5,55,85.5
2525,F2,286.0,1.0,68,85.5
2526,E3,286.0,0.5,57,85.5
2527,B-4,286.0,0.5,55,85.5
2528,C#4,286.0,0.5,55,85.5
2529,F3,286.5,0.25,63,85.5
2530,D4,286.5,0.25,62,85.5
2531,A4,286.5,0.25,62,85.5
2532,E-2,287.0,1.0,68,85.5
2533,B-2,287.0,0.5,63,85.5
2534,G3,287.0,0.5,62,85.5
2535,G4,287.0,0.5,62,85.5
2536,A3,287.5,0.5,59,85.5
2537,F#4,287.5,0.5,53,85.5
2538,C3,287.5,0.5,57,85.5
2539,B-3,288.0,0.5,59,85.5
2540,F#4,288.0,0.5,53,85.5
2541,F3,288.0,0.5,62,85.5
2542,D2,288.0,0.5,62,85.5
2543,F4,288.25,0.5,69,85.5
2544,E-2,288.5,0.5,69,85.5
2545,G3,288.5,0.5,69,85.5
2546,C4,288.5,0.5,69,85.5
2547,E-4,288.75,0.5,77,85.5
2548,B-3,289.0,0.5,70,85.5
2549,F3,289.0,0.5,70,85.5
2550,F2,289.0,0.5,70,85.5
2551,D4,289.25,0.5,84,85.5
2552,A3,289.5,0.5,74,85.5
2553,E-3,289.5,0.5,74,85.5
2554,F1,289.5,0.5,74,85.5
2555,C4,289.75,0.25,92,85.5
2556,B-3,290.0,0.125,92,85.5
2557,B-1,290.0,0.5,83,85.5
2558,D3,290.125,0.125,50,85.5
2559,F3,290.25,0.125,50,85.5
2560,B-3,290.375,0.125,50,85.5
2561,D4,290.5,0.125,53,85.5
2562,B-2,290.5,1.5,46,85.5
2563,F4,290.625,0.125,50,85.5
2564,B-4,290.75,0.125,50,85.5
2565,D5,290.875,0.125,50,85.5
2566,F4,291.0,0.125,55,85.5
2567,D3,291.0,1.0,46,85.5
2568,B-4,291.125,0.125,50,85.5
2569,D5,291.25,0.125,50,85.5
2570,F5,291.375,0.125,50,85.5
2571,B-4,291.5,0.125,55,85.5
2572,F3,291.5,0.5,46,85.5
2573,D5,291.625,0.125,50,85.5
2574,F5,291.75,0.125,50,85.5
2575,B-5,291.875,0.125,50,85.5
2576,A5,292.0,0.125,69,85.5
2577,B-2,292.0,2.0,54,85.5
2578,C3,292.0,2.0,54,85.5
2579,E-6,292.125,0.125,50,85.5
2580,C6,292.25,0.125,50,85.5
2581,A5,292.375,0.125,50,85.5
2582,F5,292.5,0.125,54,85.5
2583,E-3,292.5,1.5,47,85.5
2584,C6,292.625,0.125,50,85.5
2585,A5,292.75,0.125,50,85.5
2586,F5,292.875,0.125,50,85.5
2587,E-5,293.0,0.125,56,85.5
2588,F3,293.0,1.0,47,85.5
2589,A5,293.125,0.125,50,85.5
2590,F5,293.25,0.125,50,85.5
2591,E-5,293.375,0.125,50,85.5
2592,C5,293.5,0.125,54,85.5
2593,A3,293.5,0.5,47,85.5
2594,F5,293.625,0.125,50,85.5
2595,E-5,293.75,0.125,50,85.5
2596,C5,293.875,0.125,50,85.5
2597,B-4,294.0,0.125,69,85.5
2598,B-1,294.0,0.5,64,85.5
2599,D3,294.125,0.125,50,85.5
2600,F3,294.25,0.125,50,85.5
2601,B-3,294.375,0.125,50,85.5
2602,D4,294.5,0.125,53,85.5
2603,B-2,294.5,1.5,46,85.5
2604,F4,294.625,0.125,50,85.5
2605,B-4,294.75,0.125,50,85.5
2606,D5,294.875,0.125,50,85.5
2607,F4,295.0,0.125,55,85.5
2608,D3,295.0,1.0,46,85.5
2609,B-4,295.125,0.125,50,85.5
2610,D5,295.25,0.125,50,85.5
2611,F5,295.375,0.125,50,85.5
2612,B-4,295.5,0.125,55,85.5
2613,F3,295.5,0.5,46,85.5
2614,D5,295.625,0.125,50,85.5
2615,F5,295.75,0.125,50,85.5
2616,B-5,295.875,0.125,50,85.5
2617,A5,296.0,0.125,72,85.5
2618,B-2,296.0,2.0,54,85.5
2619,C3,296.0,2.0,54,85.5
2620,E-6,296.125,0.125,50,85.5
2621,C6,296.25,0.125,50,85.5
2622,A5,296.375,0.125,50,85.5
2623,F5,296.5,0.125,54,85.5
2624,E-3,296.5,1.5,47,85.5
2625,C6,296.625,0.125,50,85.5
2626,A5,296.75,0.125,50,85.5
2627,F5,296.875,0.125,50,85.5
2628,E-5,297.0,0.125,56,85.5
2629,F3,297.0,1.0,47,85.5
2630,A5,297.125,0.125,50,85.5
2631,F5,297.25,0.125,50,85.5
2632,E-5,297.375,0.125,50,85.5
2633,C5,297.5,0.125,54,85.5
2634,A3,297.5,0.5,47,85.5
2635,F5,297.625,0.125,50,85.5
2636,E-5,297.75,0.125,50,85.5
2637,C5,297.875,0.125,50,85.5
2638,B-4,298.0,0.125,74,85.5
2639,B-1,298.0,0.5,69,85.5
2640,D3,298.125,0.125,50,85.5
2641,F3,298.25,0.125,50,85.5
2642,B-3,298.375,0.125,50,85.5
2643,D4,298.5,0.125,53,85.5
2644,B-2,298.5,1.5,52,85.5
2645,F4,298.625,0.125,50,85.5
2646,B-4,298.75,0.125,50,85.5
2647,D5,298.875,0.125,50,85.5
2648,F4,299.0,0.125,55,85.5
2649,D3,299.0,1.0,52,85.5
2650,B-4,299.125,0.125,50,85.5
2651,D5,299.25,0.125,50,85.5
2652,F5,299.375,0.125,50,85.5
2653,B-4,299.5,0.125,55,85.5
2654,F3,299.5,0.5,52,85.5
2655,D5,299.625,0.125,50,85.5
2656,F5,299.75,0.125,50,85.5
2657,B-5,299.875,0.125,50,85.5
2658,G#1,300.0,0.5,77,85.5
2659,D3,300.125,0.125,55,85.5
2660,F3,300.25,0.125,55,85.5
2661,B-3,300.375,0.125,55,85.5
2662,D4,300.5,0.125,58,85.5
2663,G#2,300.5,1.5,56,85.5
2664,F4,300.625,0.125,55,85.5
2665,B-4,300.75,0.125,55,85.5
2666,D5,300.875,0.125,55,85.5
2667,F4,301.0,0.125,60,85.5
2668,D3,301.0,1.0,56,85.5
2669,B-4,301.125,0.125,55,85.5
2670,D5,301.25,0.125,55,85.5
2671,F5,301.375,0.125,55,85.5
2672,B-4,301.5,0.125,60,85.5
2673,F3,301.5,0.5,56,85.5
2674,D5,301.625,0.125,55,85.5
2675,F5,301.75,0.125,55,85.5
2676,B-5,301.875,0.125,55,85.5
2677,G1,302.0,0.5,83,85.5
2678,E-3,302.125,0.125,55,85.5
2679,G3,302.25,0.125,60,85.5
2680,B-3,302.375,0.125,60,85.5
2681,E-4,302.5,0.125,63,85.5
2682,G2,302.5,1.5,57,85.5
2683,G4,302.625,0.125,60,85.5
2684,B-4,302.75,0.125,60,85.5
2685,E-5,302.875,0.125,60,85.5
2686,G4,303.0,0.125,66,85.5
2687,B-2,303.0,1.0,57,85.5
2688,B-4,303.125,0.125,60,85.5
2689,E-5,303.25,0.125,60,85.5
2690,G5,303.375,0.125,60,85.5
2691,B-4,303.5,0.125,66,85.5
2692,E-3,303.5,0.5,57,85.5
2693,E-5,303.625,0.125,60,85.5
2694,G5,303.75,0.125,60,85.5
2695,B-5,303.875,0.125,60,85.5
2696,D2,304.0,0.125,59,85.5
2697,F2,304.125,0.125,60,85.5
2698,G#2,304.25,0.125,61,85.5
2699,B-2,304.375,0.125,61,85.5
2700,D3,304.5,0.125,62,85.5
2701,F3,304.625,0.125,64,85.5
2702,G#3,304.75,0.125,65,85.5
2703,B-3,304.875,0.125,66,85.5
2704,D4,305.0,0.125,66,85.5
2705,F4,305.125,0.125,59,85.5
2706,G#4,305.25,0.125,61,85.5
2707,B-4,305.375,0.125,64,85.5
2708,D5,305.5,1/10,67,85.5
2709,F5,305.6,1/10,68,85.5
2710,G#5,305.7,1/10,70,85.5
2711,C6,305.8,1/10,68,85.5
2712,B-5,305.9,1/10,65,85.5
2713,G#5,306.0,0.25,50,85.5
2714,E-4,306.0,0.5,42,85.5
2715,G5,306.25,0.25,46,85.5
2716,B-4,306.25,0.25,34,85.5
2717,F5,306.5,0.25,46,85.5
2718,G4,306.5,0.5,38,85.5
2719,E-5,306.75,0.25,46,85.5
2720,B-4,306.75,0.25,34,85.5
2721,D5,307.0,0.5,50,85.5
2722,G#4,307.0,0.25,38,85.5
2723,F4,307.0,0.5,38,85.5
2724,B-4,307.25,0.25,34,85.5
2725,E-5,307.5,0.5,47,85.5
2726,G4,307.5,0.25,37,85.5
2727,E-4,307.5,0.5,37,85.5
2728,B-4,307.75,0.25,34,85.5
2729,E5,308.0,0.5,53,85.5
2730,D4,308.0,2.0,43,85.5
2731,G#4,308.0,2.0,43,85.5
2732,B-4,308.25,0.125,34,85.5
2733,F5,308.5,0.5,49,85.5
2734,B-4,308.5,0.125,34,85.5
2735,B-4,308.75,0.125,34,85.5
2736,B-4,309.0,0.125,37,85.5
2737,B-4,309.25,0.125,34,85.5
2738,B5,309.25,1/20,44,85.5
2739,C6,309.25,1/20,44,85.5
2740,B5,309.35,1/20,44,85.5
2741,A5,309.35,1/20,44,85.5
2742,B5,309.45,1/20,42,85.5
2743,D6,309.5,0.25,50,85.5
2744,B-4,309.5,0.125,34,85.5
2745,C6,309.75,0.25,46,85.5
2746,B-4,309.75,0.125,34,85.5
2747,B-5,310.0,0.25,50,85.5
2748,D4,310.0,0.5,42,85.5
2749,G#5,310.25,0.25,44,85.5
2750,B-4,310.25,0.25,34,85.5
2751,G5,310.5,0.25,46,85.5
2752,G#4,310.5,0.5,38,85.5
2753,F5,310.75,0.25,43,85.5
2754,B-4,310.75,0.25,34,85.5
2755,D5,311.0,0.25,50,85.5
2756,G4,311.0,0.5,38,85.5
2757,E-5,311.25,0.25,44,85.5
2758,B-4,311.25,0.25,34,85.5
2759,E5,311.5,0.25,47,85.5
2760,D4,311.5,0.5,37,85.5
2761,F5,311.75,0.25,43,85.5
2762,B-4,311.75,0.25,34,85.5
2763,F#5,312.0,0.5,53,85.5
2764,E-4,312.0,0.5,43,85.5
2765,B-4,312.25,0.125,34,85.5
2766,G5,312.5,0.75,49,85.5
2767,E-4,312.5,0.5,43,85.5
2768,B4,312.75,0.125,34,85.5
2769,E-4,313.0,0.5,43,85.5
2770,G5,313.25,0.25,51,85.5
2771,C5,313.25,0.125,34,85.5
2772,G#5,313.5,0.25,58,85.5
2773,G5,313.75,0.25,52,85.5
2774,F5,314.0,0.25,50,85.5
2775,E-5,314.25,0.25,44,85.5
2776,G4,314.25,0.25,34,85.5
2777,D5,314.5,0.25,46,85.5
2778,E-4,314.5,0.5,38,85.5
2779,C5,314.75,0.25,43,85.5
2780,G4,314.75,0.25,34,85.5
2781,B4,315.0,0.5,50,85.5
2782,F4,315.0,0.25,38,85.5
2783,D4,315.0,0.5,38,85.5
2784,G4,315.25,0.25,34,85.5
2785,C5,315.5,0.5,47,85.5
2786,E-4,315.5,0.25,37,85.5
2787,C4,315.5,0.5,37,85.5
2788,G4,315.75,0.25,34,85.5
2789,C#5,316.0,0.5,53,85.5
2790,B3,316.0,1.25,43,85.5
2791,F4,316.0,1.25,43,85.5
2792,G4,316.25,0.125,34,85.5
2793,D5,316.5,0.5,49,85.5
2794,G4,316.5,0.125,34,85.5
2795,G4,316.75,0.125,34,85.5
2796,G4,317.0,0.25,34,85.5
2797,G5,317.25,0.25,34,85.5
2798,G#5,317.5,0.25,40,85.5
2799,G5,317.75,0.25,36,85.5
2800,F5,318.0,0.25,40,85.5
2801,E-5,318.25,0.25,36,85.5
2802,D5,318.5,0.25,38,85.5
2803,C5,318.75,0.25,36,85.5
2804,E-5,319.25,0.25,34,85.5
2805,G4,319.25,0.25,28,85.5
2806,F5,319.5,0.25,40,85.5
2807,G#4,319.5,0.25,34,85.5
2808,E-5,319.75,0.25,36,85.5
2809,G4,319.75,0.25,30,85.5
2810,D5,320.0,0.25,40,85.5
2811,F4,320.0,0.25,34,85.5
2812,C5,320.25,0.25,36,85.5
2813,E-4,320.25,0.25,30,85.5
2814,B-4,320.5,0.25,38,85.5
2815,D4,320.5,0.25,32,85.5
2816,A4,320.75,0.25,36,85.5
2817,C4,320.75,0.25,30,85.5
2818,E-4,321.25,0.25,40,85.5
2819,F4,321.5,0.25,45,85.5
2820,E-4,321.75,0.25,41,85.5
2821,D4,322.0,0.25,45,85.5
2822,C4,322.25,0.25,40,85.5
2823,B-3,322.5,0.25,43,85.5
2824,A3,322.75,0.25,40,85.5
2825,G3,323.0,0.25,46,85.5
2826,F3,323.25,0.25,40,85.5
2827,E-3,323.5,0.25,40,85.5
2828,D3,323.75,0.25,40,85.5
2829,C3,324.0,0.25,51,85.5
2830,A3,324.125,0.125,36,85.5
2831,B-3,324.25,0.125,36,85.5
2832,B-2,324.25,0.25,41,85.5
2833,C4,324.375,0.125,37,85.5
2834,D4,324.5,0.125,37,85.5
2835,A2,324.5,0.25,45,85.5
2836,E-4,324.625,0.125,38,85.5
2837,F4,324.75,0.125,39,85.5
2838,G2,324.75,0.25,47,85.5
2839,G4,324.875,0.125,39,85.5
2840,A4,325.0,167/1000,40,85.5
2841,F2,325.0,1.0,51,85.5
2842,B-4,325.167,167/1000,42,85.5
2843,B4,325.333,167/1000,43,85.5
2844,C5,325.5,167/1000,44,85.5
2845,C#5,325.667,167/1000,44,85.5
2846,D5,325.833,167/1000,45,85.5
2847,E-5,326.0,167/1000,49,85.5
2848,F2,326.0,2.0,51,85.5
2849,A4,326.167,167/1000,42,85.5
2850,B-4,326.333,167/1000,42,85.5
2851,B4,326.5,167/1000,45,85.5
2852,C5,326.667,167/1000,48,85.5
2853,D5,326.833,167/1000,50,85.5
2854,E-5,327.0,167/1000,52,85.5
2855,A4,327.167,167/1000,47,85.5
2856,B-4,327.333,167/1000,49,85.5
2857,B4,327.5,167/1000,50,85.5
2858,C5,327.667,167/1000,52,85.5
2859,D5,327.833,167/1000,53,85.5
2860,E-5,328.0,0.125,62,85.5
2861,F2,328.0,2.0,51,85.5
2862,A4,328.125,0.125,54,85.5
2863,G#4,328.25,0.125,51,85.5
2864,A4,328.375,0.125,52,85.5
2865,B-4,328.5,0.125,53,85.5
2866,B4,328.625,0.125,54,85.5
2867,C5,328.75,0.125,56,85.5
2868,C#5,328.875,0.125,57,85.5
2869,D5,329.0,167/1000,59,85.5
2870,E-5,329.167,167/1000,61,85.5
2871,E5,329.333,167/1000,59,85.5
2872,G5,329.5,0.25,50,85.5
2873,F5,329.75,229/1000,46,85.5
2874,F5,330.0,83/1000,50,85.5
2875,G4,330.0,0.125,42,85.5
2876,E-5,330.167,83/1000,46,85.5
2877,F4,330.25,0.25,34,85.5
2878,D5,330.333,83/1000,46,85.5
2879,D5,330.5,83/1000,46,85.5
2880,D4,330.5,0.5,38,85.5
2881,C5,330.667,83/1000,46,85.5
2882,F4,330.75,0.25,34,85.5
2883,B-4,330.833,83/1000,46,85.5
2884,B-4,331.0,83/1000,50,85.5
2885,E-4,331.0,0.25,38,85.5
2886,C4,331.0,0.5,38,85.5
2887,G#4,331.167,83/1000,44,85.5
2888,F4,331.25,0.25,34,85.5
2889,A4,331.333,83/1000,44,85.5
2890,C5,331.5,83/1000,47,85.5
2891,D4,331.5,0.25,37,85.5
2892,B-3,331.5,0.5,37,85.5
2893,A4,331.667,83/1000,44,85.5
2894,F4,331.75,0.25,34,85.5
2895,B-4,331.833,83/1000,44,85.5
2896,B4,332.0,0.5,53,85.5
2897,A3,332.0,2.0,43,85.5
2898,E-4,332.0,2.0,43,85.5
2899,F4,332.25,0.125,34,85.5
2900,C5,332.5,0.5,49,85.5
2901,F4,332.5,0.125,34,85.5
2902,F4,332.75,0.125,34,85.5
2903,F4,333.0,0.125,37,85.5
2904,F#5,333.25,0.25,45,85.5
2905,F4,333.25,0.125,34,85.5
2906,A5,333.5,0.25,50,85.5
2907,F4,333.5,0.125,34,85.5
2908,G5,333.75,0.25,46,85.5
2909,F4,333.75,0.125,34,85.5
2910,G5,334.0,83/1000,50,85.5
2911,A3,334.0,0.5,42,85.5
2912,F5,334.167,83/1000,46,85.5
2913,F4,334.25,0.25,34,85.5
2914,E-5,334.333,83/1000,46,85.5
2915,E-5,334.5,83/1000,46,85.5
2916,E-4,334.5,0.5,38,85.5
2917,D5,334.667,83/1000,42,85.5
2918,F4,334.75,0.25,34,85.5
2919,C5,334.833,83/1000,42,85.5
2920,C5,335.0,83/1000,50,85.5
2921,D4,335.0,0.5,38,85.5
2922,A4,335.167,83/1000,44,85.5
2923,F4,335.25,0.25,34,85.5
2924,B-4,335.333,83/1000,44,85.5
2925,D5,335.5,83/1000,47,85.5
2926,A3,335.5,0.5,37,85.5
2927,B4,335.667,83/1000,44,85.5
2928,F4,335.75,0.25,34,85.5
2929,C5,335.833,83/1000,44,85.5
2930,C#5,336.0,0.5,53,85.5
2931,B-3,336.0,1.5,43,85.5
2932,F4,336.25,0.125,34,85.5
2933,D5,336.5,667/1000,49,85.5
2934,F4,336.5,0.125,34,85.5
2935,F4,336.75,0.125,34,85.5
2936,F4,337.0,0.125,37,85.5
2937,F5,337.167,167/1000,51,85.5
2938,F4,337.25,0.125,34,85.5
2939,E5,337.333,167/1000,48,85.5
2940,F5,337.5,167/1000,58,85.5
2941,B3,337.5,0.5,34,85.5
2942,G5,337.667,167/1000,52,85.5
2943,F4,337.75,0.125,34,85.5
2944,D5,337.833,167/1000,49,85.5
2945,F5,338.0,167/1000,56,85.5
2946,C4,338.0,0.5,42,85.5
2947,E-5,338.167,167/1000,52,85.5
2948,F4,338.25,0.25,34,85.5
2949,D5,338.333,167/1000,51,85.5
2950,E-5,338.5,167/1000,57,85.5
2951,A3,338.5,0.5,38,85.5
2952,F5,338.667,167/1000,52,85.5
2953,F4,338.75,0.25,34,85.5
2954,C5,338.833,167/1000,52,85.5
2955,E-5,339.0,167/1000,57,85.5
2956,B-3,339.0,0.5,42,85.5
2957,D5,339.167,167/1000,52,85.5
2958,F4,339.25,0.25,34,85.5
2959,C#5,339.333,167/1000,51,85.5
2960,D5,339.5,167/1000,59,85.5
2961,B3,339.5,0.5,38,85.5
2962,G5,339.667,167/1000,52,85.5
2963,F4,339.75,0.25,34,85.5
2964,D5,339.833,167/1000,55,85.5
2965,F5,340.0,167/1000,62,85.5
2966,C4,340.0,0.5,47,85.5
2967,E-5,340.167,167/1000,56,85.5
2968,F4,340.25,0.25,34,85.5
2969,D5,340.333,167/1000,56,85.5
2970,E-5,340.5,167/1000,62,85.5
2971,A3,340.5,0.5,42,85.5
2972,F5,340.667,167/1000,54,85.5
2973,F4,340.75,0.25,34,85.5
2974,C5,340.833,167/1000,54,85.5
2975,E-5,341.0,0.125,61,85.5
2976,B-3,341.0,0.5,48,85.5
2977,D5,341.125,0.125,55,85.5
2978,C#5,341.25,0.125,52,85.5
2979,D4,341.25,0.25,35,85.5
2980,D5,341.375,0.125,53,85.5
2981,E-5,341.5,0.125,55,85.5
2982,A3,341.5,0.5,44,85.5
2983,E5,341.625,0.125,56,85.5
2984,F5,341.75,0.125,57,85.5
2985,C4,341.75,0.25,39,85.5
2986,F#5,341.875,0.125,58,85.5
2987,G5,342.0,0.125,64,85.5
2988,G3,342.0,479/1000,55,85.5
2989,G#5,342.125,0.125,60,85.5
2990,A5,342.25,0.125,61,85.5
2991,B-3,342.25,0.25,47,85.5
2992,B-5,342.375,0.125,62,85.5
2993,B5,342.5,0.125,63,85.5
2994,G3,342.5,0.5,57,85.5
2995,C6,342.625,0.125,65,85.5
2996,C#6,342.75,0.125,67,85.5
2997,B-3,342.75,0.25,50,85.5
2998,D6,342.875,0.125,68,85.5
2999,E6,343.0,0.125,79,85.5
3000,C3,343.0,479/1000,63,85.5
3001,D6,343.125,0.125,62,85.5
3002,C6,343.25,0.125,65,85.5
3003,B-3,343.25,0.25,46,85.5
3004,B-5,343.375,0.125,59,85.5
3005,A5,343.5,0.125,64,85.5
3006,C3,343.5,0.5,53,85.5
3007,G5,343.625,0.125,59,85.5
3008,F5,343.75,0.125,58,85.5
3009,B-3,343.75,0.25,34,85.5
3010,E5,343.875,0.125,54,85.5
3011,G5,344.0,0.5,58,85.5
3012,F3,344.0,1.5,43,85.5
3013,B-3,344.0,229/1000,34,85.5
3014,B-3,344.25,0.25,29,85.5
3015,F5,344.5,0.5,53,85.5
3016,A3,344.5,0.25,35,85.5
3017,G3,344.75,0.25,29,85.5
3018,A3,345.0,0.5,34,85.5
3019,F4,345.25,0.25,42,85.5
3020,F5,345.25,0.25,42,85.5
3021,G4,345.5,0.25,46,85.5
3022,G5,345.5,0.25,46,85.5
3023,F4,345.75,0.25,42,85.5
3024,F5,345.75,0.25,42,85.5
3025,B-2,346.0,0.5,42,85.5
3026,E-4,346.167,83/1000,46,85.5
3027,E-5,346.167,83/1000,46,85.5
3028,F3,346.25,0.25,34,85.5
3029,D4,346.333,83/1000,38,85.5
3030,D5,346.333,83/1000,38,85.5
3031,D3,346.5,0.5,38,85.5
3032,C4,346.667,83/1000,42,85.5
3033,C5,346.667,83/1000,42,85.5
3034,F3,346.75,0.25,34,85.5
3035,B-3,346.833,83/1000,38,85.5
3036,B-4,346.833,83/1000,38,85.5
3037,E-3,347.0,0.25,38,85.5
3038,C3,347.0,0.5,38,85.5
3039,G#3,347.167,83/1000,46,85.5
3040,G#4,347.167,83/1000,46,85.5
3041,F3,347.25,0.25,34,85.5
3042,A3,347.333,83/1000,38,85.5
3043,A4,347.333,83/1000,38,85.5
3044,D3,347.5,0.25,37,85.5
3045,B-2,347.5,0.5,37,85.5
3046,A3,347.667,83/1000,42,85.5
3047,A4,347.667,83/1000,42,85.5
3048,F3,347.75,0.25,34,85.5
3049,B-4,347.833,83/1000,38,85.5
3050,B-3,347.833,83/1000,38,85.5
3051,B3,348.0,0.5,49,85.5
3052,B4,348.0,0.5,49,85.5
3053,A2,348.0,2.0,43,85.5
3054,E-3,348.0,2.0,43,85.5
3055,F3,348.25,0.125,34,85.5
3056,F3,348.5,0.125,34,85.5
3057,C5,348.5,0.75,45,85.5
3058,C4,348.5,0.75,45,85.5
3059,F3,348.75,0.125,34,85.5
3060,F3,349.0,0.125,37,85.5
3061,F3,349.25,0.125,34,85.5
3062,F#5,349.25,0.25,42,85.5
3063,F#4,349.25,0.25,42,85.5
3064,F3,349.5,0.125,34,85.5
3065,A4,349.5,0.25,46,85.5
3066,A5,349.5,0.25,46,85.5
3067,F3,349.75,0.125,34,85.5
3068,G4,349.75,0.25,42,85.5
3069,G5,349.75,0.25,42,85.5
3070,A2,350.0,0.5,42,85.5
3071,F4,350.167,83/1000,46,85.5
3072,F5,350.167,83/1000,46,85.5
3073,F3,350.25,0.25,34,85.5
3074,E-4,350.333,83/1000,38,85.5
3075,E-5,350.333,83/1000,38,85.5
3076,E-3,350.5,0.5,38,85.5
3077,D4,350.667,83/1000,42,85.5
3078,D5,350.667,83/1000,42,85.5
3079,F3,350.75,0.25,34,85.5
3080,C5,350.833,83/1000,38,85.5
3081,C4,350.833,83/1000,38,85.5
3082,D3,351.0,0.5,38,85.5
3083,A3,351.167,83/1000,46,85.5
3084,A4,351.167,83/1000,46,85.5
3085,F3,351.25,0.25,34,85.5
3086,B-3,351.333,83/1000,38,85.5
3087,B-4,351.333,83/1000,38,85.5
3088,A2,351.5,0.5,37,85.5
3089,B3,351.667,83/1000,42,85.5
3090,B4,351.667,83/1000,42,85.5
3091,F3,351.75,0.25,34,85.5
3092,C5,351.833,83/1000,38,85.5
3093,C4,351.833,83/1000,38,85.5
3094,B-2,352.0,1.5,43,85.5
3095,C#4,352.0,0.5,49,85.5
3096,C#5,352.0,0.5,49,85.5
3097,F3,352.25,0.125,34,85.5
3098,D5,352.5,667/1000,49,85.5
3099,D4,352.5,1.0,41,85.5
3100,F3,352.5,0.125,34,85.5
3101,F3,352.75,0.125,34,85.5
3102,F3,353.0,0.125,40,85.5
3103,F5,353.167,167/1000,56,85.5
3104,F3,353.25,0.125,37,85.5
3105,E5,353.333,167/1000,56,85.5
3106,G#4,353.5,0.5,54,85.5
3107,F5,353.5,167/1000,62,85.5
3108,B2,353.5,0.5,37,85.5
3109,G5,353.667,167/1000,57,85.5
3110,F3,353.75,0.125,37,85.5
3111,D5,353.833,167/1000,51,85.5
3112,F5,354.0,167/1000,62,85.5
3113,G#4,354.0,0.5,54,85.5
3114,C3,354.0,0.5,47,85.5
3115,E-5,354.167,167/1000,58,85.5
3116,F3,354.25,0.25,38,85.5
3117,D5,354.333,167/1000,54,85.5
3118,E-5,354.5,167/1000,63,85.5
3119,A4,354.5,0.5,46,85.5
3120,F2,354.5,0.5,42,85.5
3121,F5,354.667,167/1000,58,85.5
3122,F3,354.75,0.25,38,85.5
3123,C5,354.833,167/1000,53,85.5
3124,E-5,355.0,167/1000,64,85.5
3125,B-4,355.0,0.5,46,85.5
3126,B-2,355.0,0.5,47,85.5
3127,D5,355.167,167/1000,59,85.5
3128,F3,355.25,0.25,38,85.5
3129,C#5,355.333,167/1000,59,85.5
3130,D5,355.5,167/1000,67,85.5
3131,G#4,355.5,0.5,47,85.5
3132,B2,355.5,0.5,43,85.5
3133,G5,355.667,167/1000,62,85.5
3134,F3,355.75,0.25,39,85.5
3135,D5,355.833,167/1000,59,85.5
3136,F5,356.0,167/1000,71,85.5
3137,G#4,356.0,0.5,47,85.5
3138,C3,356.0,0.5,54,85.5
3139,E-5,356.167,167/1000,64,85.5
3140,F3,356.25,0.25,47,85.5
3141,D5,356.333,167/1000,61,85.5
3142,E-5,356.5,167/1000,72,85.5
3143,A4,356.5,0.5,47,85.5
3144,F2,356.5,0.5,53,85.5
3145,F5,356.667,167/1000,66,85.5
3146,F3,356.75,0.25,44,85.5
3147,C5,356.833,0.125,63,85.5
3148,B-2,357.0,0.5,64,85.5
3149,B-4,357.0,167/1000,66,85.5
3150,E-5,357.0,167/1000,66,85.5
3151,D4,357.167,167/1000,58,85.5
3152,D5,357.167,167/1000,58,85.5
3153,F3,357.25,0.25,49,85.5
3154,C#4,357.333,167/1000,58,85.5
3155,C#5,357.333,167/1000,58,85.5
3156,G#2,357.5,0.5,60,85.5
3157,D4,357.5,167/1000,62,85.5
3158,D5,357.5,167/1000,62,85.5
3159,E-4,357.667,83/1000,66,85.5
3160,E-5,357.667,83/1000,66,85.5
3161,B-2,357.75,0.25,45,85.5
3162,E4,357.833,83/1000,66,85.5
3163,E5,357.833,83/1000,66,85.5
3164,G2,358.0,479/1000,73,85.5
3165,F4,358.0,83/1000,70,85.5
3166,F5,358.0,83/1000,70,85.5
3167,F#4,358.167,83/1000,66,85.5
3168,F#5,358.167,83/1000,66,85.5
3169,B-2,358.25,0.25,60,85.5
3170,G4,358.333,83/1000,66,85.5
3171,G5,358.333,83/1000,66,85.5
3172,E-2,358.5,0.5,69,85.5
3173,G#4,358.5,83/1000,70,85.5
3174,G#5,358.5,83/1000,70,85.5
3175,A4,358.667,83/1000,74,85.5
3176,A5,358.667,83/1000,74,85.5
3177,E-3,358.75,0.25,60,85.5
3178,B-4,358.833,83/1000,74,85.5
3179,B-5,358.833,83/1000,74,85.5
3180,F2,359.0,479/1000,56,85.5
3181,B-4,359.0,0.5,71,85.5
3182,B-3,359.0,0.5,71,85.5
3183,D3,359.25,0.25,42,85.5
3184,F2,359.5,0.5,49,85.5
3185,C5,359.5,0.5,64,85.5
3186,C4,359.5,0.5,64,85.5
3187,A2,359.75,0.25,43,85.5
3188,B-1,360.0,0.25,43,85.5
3189,C#4,360.0,0.5,45,85.5
3190,C#5,360.0,0.5,45,85.5
3191,B-2,360.25,1.25,29,85.5
3192,B-3,360.5,0.125,35,85.5
3193,D4,360.5,0.625,42,85.5
3194,D5,360.5,0.625,42,85.5
3195,B-3,360.75,0.125,29,85.5
3196,B-3,361.0,0.125,49,85.5
3197,B-4,361.125,0.125,59,85.5
3198,A4,361.25,0.125,61,85.5
3199,B-3,361.25,0.125,39,85.5
3200,B-4,361.375,0.125,62,85.5
3201,B4,361.5,0.125,62,85.5
3202,G#3,361.5,0.5,50,85.5
3203,C5,361.625,0.125,64,85.5
3204,C#5,361.75,0.125,65,85.5
3205,B-3,361.75,0.25,39,85.5
3206,D5,361.875,0.125,67,85.5
3207,E-5,362.0,0.125,69,85.5
3208,G3,362.0,0.5,63,85.5
3209,E5,362.125,0.125,70,85.5
3210,F5,362.25,0.125,71,85.5
3211,B-3,362.25,0.25,52,85.5
3212,F#5,362.375,0.125,73,85.5
3213,G5,362.5,0.125,74,85.5
3214,E-3,362.5,0.5,56,85.5
3215,G#5,362.625,0.125,76,85.5
3216,A5,362.75,0.125,77,85.5
3217,E-4,362.75,0.25,50,85.5
3218,B-5,362.875,0.125,78,85.5
3219,B-4,363.0,1/10,53,85.5
3220,F3,363.0,479/1000,35,85.5
3221,C5,363.1,1/10,48,85.5
3222,B-4,363.2,1/10,45,85.5
3223,D4,363.25,0.25,29,85.5
3224,A4,363.3,1/10,45,85.5
3225,B-4,363.4,1/10,45,85.5
3226,E-4,363.5,0.5,44,85.5
3227,D5,363.5,0.375,52,85.5
3228,F3,363.5,0.5,35,85.5
3229,A3,363.75,0.25,29,85.5
3230,C5,363.875,0.125,41,85.5
3231,B-4,364.0,0.125,53,85.5
3232,D4,364.0,0.5,53,85.5
3233,B-2,364.0,0.5,36,85.5
3234,B-3,364.0,0.5,36,85.5
3235,F4,364.125,0.125,59,85.5
3236,G4,364.25,0.125,62,85.5
3237,A4,364.375,0.125,64,85.5
3238,B-4,364.5,0.125,67,85.5
3239,C5,364.625,0.125,71,85.5
3240,D5,364.75,0.125,78,85.5
3241,E-5,364.875,0.125,84,85.5
3242,B-4,365.0,1.0,93,85.5
3243,F5,365.0,1.0,93,85.5
3244,D4,365.0,1.0,74,85.5
3245,F4,365.0,1.0,74,85.5
3246,A4,366.0,1.0,93,85.5
3247,F5,366.0,1.0,93,85.5
3248,C4,366.0,1.0,72,85.5
3249,E-4,366.0,1.0,72,85.5
3250,F4,366.0,1.0,72,85.5
3251,B-4,367.0,0.75,85,85.5
3252,F5,367.0,1.0,101,85.5
3253,B-3,367.0,1.0,72,85.5
3254,D4,367.0,1.0,72,85.5
3255,F4,367.0,1.0,72,85.5
3256,C5,367.75,0.125,85,85.5
3257,D5,367.875,0.125,85,85.5
3258,E-5,368.0,1.0,93,85.5
3259,F5,368.0,1.0,93,85.5
3260,F4,368.0,1.0,72,85.5
3261,C4,368.0,1.0,72,85.5
3262,A3,368.0,1.0,72,85.5
3263,D5,369.0,0.75,85,85.5
3264,B-5,369.0,1.0,101,85.5
3265,F4,369.0,1.0,77,85.5
3266,G#3,369.0,1.0,77,85.5
3267,B-3,369.0,1.0,77,85.5
3268,E-5,369.75,0.125,56,85.5
3269,F5,369.875,0.125,57,85.5
3270,B-5,370.0,0.125,74,85.5
3271,G5,370.0,0.125,74,85.5
3272,E-4,370.0,0.125,58,85.5
3273,B-3,370.0,0.125,58,85.5
3274,G3,370.0,0.125,58,85.5
3275,C5,370.5,0.125,48,85.5
3276,C6,370.5,0.125,48,85.5
3277,G5,370.5,0.125,48,85.5
3278,C4,370.5,0.125,31,85.5
3279,B-3,370.5,0.125,31,85.5
3280,E3,370.5,0.125,31,85.5
3281,D6,371.0,0.125,56,85.5
3282,F5,371.0,0.125,56,85.5
3283,D5,371.0,0.125,56,85.5
3284,D4,371.0,0.125,35,85.5
3285,B-3,371.0,0.125,35,85.5
3286,F3,371.0,0.125,35,85.5
3287,E-6,371.5,0.125,50,85.5
3288,E-5,371.5,0.125,50,85.5
3289,C4,371.5,0.125,31,85.5
3290,A3,371.5,0.125,31,85.5
3291,F3,371.5,0.125,31,85.5
3292,D5,372.0,1.0,51,85.5
3293,D6,372.0,0.5,61,85.5
3294,B-2,372.0,0.5,36,85.5
3295,B-3,372.0,0.5,36,85.5
3296,B-5,372.5,0.25,53,85.5
3297,D4,373.0,69/500,70,85.5
3298,B-4,373.0,1.0,89,85.5
3299,F5,373.0,1.0,89,85.5
3300,C#4,373.125,69/500,56,85.5
3301,D4,373.25,69/500,60,85.5
3302,C#4,373.375,69/500,55,85.5
3303,D4,373.5,69/500,60,85.5
3304,F4,373.625,69/500,55,85.5
3305,E-4,373.75,69/500,55,85.5
3306,D4,373.875,0.125,55,85.5
3307,C4,374.0,69/500,70,85.5
3308,A4,374.0,1.0,89,85.5
3309,F5,374.0,1.0,89,85.5
3310,B3,374.125,69/500,56,85.5
3311,C4,374.25,69/500,60,85.5
3312,B3,374.375,69/500,55,85.5
3313,C4,374.5,69/500,60,85.5
3314,E-4,374.625,69/500,55,85.5
3315,D4,374.75,69/500,55,85.5
3316,C4,374.875,0.125,55,85.5
3317,B-4,375.0,0.75,81,85.5
3318,F5,375.0,1.0,97,85.5
3319,B-3,375.0,69/500,70,85.5
3320,A3,375.125,69/500,56,85.5
3321,B-3,375.25,69/500,60,85.5
3322,A3,375.375,69/500,55,85.5
3323,B-3,375.5,69/500,60,85.5
3324,D4,375.625,69/500,55,85.5
3325,C5,375.75,0.125,81,85.5
3326,C4,375.75,69/500,55,85.5
3327,D5,375.875,0.125,81,85.5
3328,B-3,375.875,0.125,55,85.5
3329,A3,376.0,69/500,70,85.5
3330,E-5,376.0,1.0,89,85.5
3331,F5,376.0,1.0,89,85.5
3332,G#3,376.125,69/500,56,85.5
3333,A3,376.25,69/500,60,85.5
3334,G#3,376.375,69/500,55,85.5
3335,A3,376.5,69/500,60,85.5
3336,C4,376.625,69/500,55,85.5
3337,B-3,376.75,69/500,55,85.5
3338,A3,376.875,0.125,55,85.5
3339,D5,377.0,0.75,81,85.5
3340,B-5,377.0,1.0,97,85.5
3341,G#3,377.0,69/500,70,85.5
3342,G3,377.125,69/500,56,85.5
3343,G#3,377.25,69/500,60,85.5
3344,G3,377.375,69/500,55,85.5
3345,G#3,377.5,69/500,60,85.5
3346,C4,377.625,69/500,55,85.5
3347,E-5,377.75,0.125,67,85.5
3348,B-3,377.75,69/500,55,85.5
3349,F5,377.875,0.125,68,85.5
3350,G#3,377.875,0.125,55,85.5
3351,B-5,378.0,0.125,97,85.5
3352,G3,378.0,69/500,70,85.5
3353,G5,378.0,0.125,89,85.5
3354,E-5,378.0,0.125,89,85.5
3355,B-3,378.125,69/500,48,85.5
3356,A3,378.25,69/500,43,85.5
3357,B-3,378.375,0.125,43,85.5
3358,E3,378.5,69/500,49,85.5
3359,C5,378.5,0.125,71,85.5
3360,C6,378.5,0.125,71,85.5
3361,G5,378.5,0.125,71,85.5
3362,B-3,378.625,69/500,43,85.5
3363,A3,378.75,69/500,42,85.5
3364,B-3,378.875,0.125,43,85.5
3365,F3,379.0,69/500,57,85.5
3366,D6,379.0,0.125,87,85.5
3367,F5,379.0,0.125,87,85.5
3368,D5,379.0,0.125,87,85.5
3369,B-3,379.125,69/500,46,85.5
3370,A3,379.25,69/500,50,85.5
3371,B-3,379.375,0.125,50,85.5
3372,F3,379.5,69/500,60,85.5
3373,E-6,379.5,0.125,80,85.5
3374,E-5,379.5,0.125,80,85.5
3375,A3,379.625,69/500,50,85.5
3376,G#3,379.75,69/500,50,85.5
3377,A3,379.875,0.125,51,85.5
3378,D5,380.0,1.0,75,85.5
3379,D6,380.0,0.5,104,85.5
3380,B-3,380.0,0.125,61,85.5
3381,C4,380.125,0.125,56,85.5
3382,D4,380.25,0.125,58,85.5
3383,E-4,380.375,0.125,61,85.5
3384,B-5,380.5,0.25,81,85.5
3385,F4,380.5,0.125,63,85.5
3386,G4,380.625,0.125,66,85.5
3387,A4,380.75,0.125,68,85.5
3388,B-4,380.875,0.125,72,85.5
3389,B-5,381.0,1.0,106,85.5
3390,G#4,381.0,69/500,76,85.5
3391,B-4,381.0,0.75,81,85.5
3392,D5,381.0,0.75,81,85.5
3393,G4,381.125,69/500,61,85.5
3394,F4,381.25,69/500,66,85.5
3395,E-4,381.375,69/500,60,85.5
3396,D4,381.5,69/500,66,85.5
3397,C4,381.625,69/500,60,85.5
3398,B-3,381.75,69/500,60,85.5
3399,C5,381.75,0.125,67,85.5
3400,E-5,381.75,0.125,67,85.5
3401,G#3,381.875,0.125,60,85.5
3402,D5,381.875,0.125,68,85.5
3403,F5,381.875,0.125,68,85.5
3404,B-5,382.0,0.125,106,85.5
3405,G3,382.0,69/500,76,85.5
3406,G5,382.0,0.125,97,85.5
3407,E-5,382.0,0.125,97,85.5
3408,B-3,382.125,69/500,52,85.5
3409,A3,382.25,69/500,46,85.5
3410,B-3,382.375,0.125,46,85.5
3411,E3,382.5,69/500,44,85.5
3412,C5,382.5,0.125,77,85.5
3413,C6,382.5,0.125,77,85.5
3414,G5,382.5,0.125,77,85.5
3415,B-3,382.625,69/500,52,85.5
3416,A3,382.75,69/500,46,85.5
3417,B-3,382.875,0.125,48,85.5
3418,F3,383.0,69/500,62,85.5
3419,D6,383.0,0.125,96,85.5
3420,F5,383.0,0.125,96,85.5
3421,D5,383.0,0.125,96,85.5
3422,B-3,383.125,69/500,50,85.5
3423,A3,383.25,69/500,55,85.5
3424,B-3,383.375,0.125,55,85.5
3425,F3,383.5,69/500,66,85.5
3426,E-6,383.5,0.125,90,85.5
3427,E-5,383.5,0.125,90,85.5
3428,A3,383.625,69/500,55,85.5
3429,G#3,383.75,69/500,55,85.5
3430,A3,383.875,0.125,56,85.5
3431,D5,384.0,979/1000,82,85.5
3432,D6,384.0,0.5,114,85.5
3433,B-3,384.0,0.125,67,85.5
3434,A3,384.125,0.125,61,85.5
3435,G3,384.25,0.125,63,85.5
3436,F3,384.375,0.125,67,85.5
3437,B-5,384.5,0.25,88,85.5
3438,E-3,384.5,0.125,69,85.5
3439,D3,384.625,0.125,72,85.5
3440,C3,384.75,0.125,74,85.5
3441,B-2,384.875,0.125,79,85.5
3442,B-5,385.0,1.0,111,85.5
3443,G#2,385.0,69/500,76,85.5
3444,B-4,385.0,0.75,94,85.5
3445,D5,385.0,0.75,94,85.5
3446,G2,385.125,69/500,61,85.5
3447,F2,385.25,69/500,66,85.5
3448,E-2,385.375,69/500,60,85.5
3449,D2,385.5,69/500,66,85.5
3450,C2,385.625,69/500,60,85.5
3451,B-1,385.75,69/500,60,85.5
3452,C5,385.75,0.125,80,85.5
3453,E-5,385.75,0.125,80,85.5
3454,G#1,385.875,0.125,60,85.5
3455,D5,385.875,0.125,82,85.5
3456,F5,385.875,0.125,82,85.5
3457,B-5,386.0,0.125,111,85.5
3458,G1,386.0,69/500,87,85.5
3459,G5,386.0,0.125,90,85.5
3460,E-5,386.0,0.125,90,85.5
3461,G2,386.125,69/500,56,85.5
3462,F#2,386.25,69/500,58,85.5
3463,G2,386.375,0.125,58,85.5
3464,F#1,386.5,69/500,84,85.5
3465,E5,386.5,0.125,89,85.5
3466,C5,386.5,0.125,89,85.5
3467,C6,386.5,0.125,89,85.5
3468,B-5,386.5,0.125,89,85.5
3469,F#2,386.625,69/500,63,85.5
3470,F2,386.75,69/500,62,85.5
3471,F#2,386.875,0.125,62,85.5
3472,F1,387.0,69/500,93,85.5
3473,B-5,387.0,0.125,95,85.5
3474,D6,387.0,0.125,95,85.5
3475,F5,387.0,0.125,95,85.5
3476,D5,387.0,0.125,95,85.5
3477,F2,387.125,69/500,66,85.5
3478,E2,387.25,69/500,66,85.5
3479,F2,387.375,0.125,66,85.5
3480,F1,387.5,69/500,90,85.5
3481,E-5,387.5,0.125,87,85.5
3482,A5,387.5,0.125,87,85.5
3483,A4,387.5,0.125,87,85.5
3484,F2,387.625,69/500,68,85.5
3485,E2,387.75,69/500,68,85.5
3486,F2,387.875,0.125,68,85.5
3487,B-1,388.0,0.5,96,85.5
3488,D5,388.0,0.125,92,85.5
3489,B-4,388.0,0.125,92,85.5
3490,B-5,388.0,0.125,92,85.5
3491,F5,388.25,0.25,45,85.5
3492,G5,388.5,0.25,50,85.5
3493,F5,388.75,0.25,46,85.5
3494,F4,388.75,0.25,39,85.5
3495,E-5,389.0,0.25,50,85.5
3496,G4,389.0,0.25,42,85.5
3497,D5,389.25,0.25,43,85.5
3498,F4,389.25,0.25,36,85.5
3499,C5,389.5,0.25,46,85.5
3500,E-4,389.5,0.25,39,85.5
3501,B-4,389.75,0.25,43,85.5
3502,D4,389.75,0.25,36,85.5
3503,E-4,390.0,1479/1000,40,85.5
3504,A4,390.0,0.25,50,85.5
3505,F3,390.0,1.0,35,85.5
3506,C4,390.0,0.25,42,85.5
3507,G4,390.25,0.25,46,85.5
3508,B-3,390.25,0.25,37,85.5
3509,F4,390.5,1.0,47,85.5
3510,A3,390.5,0.25,39,85.5
3511,G3,390.75,0.25,36,85.5
3512,F2,391.0,1.0,35,85.5
3513,F3,391.0,0.25,39,85.5
3514,E-3,391.25,0.25,37,85.5
3515,E-4,391.5,0.5,37,85.5
3516,G4,391.5,0.25,44,85.5
3517,D3,391.5,0.25,36,85.5
3518,A4,391.75,0.25,42,85.5
3519,C3,391.75,0.25,34,85.5
3520,B-2,392.0,0.5,53,85.5
3521,D4,392.0,0.125,38,85.5
3522,B-4,392.0,0.125,38,85.5
3523,F4,392.25,0.25,38,85.5
3524,G4,392.5,0.25,42,85.5
3525,F4,392.75,0.25,39,85.5
3526,F3,392.75,0.25,33,85.5
3527,E-4,393.0,0.25,42,85.5
3528,G3,393.0,0.25,35,85.5
3529,D4,393.25,0.25,37,85.5
3530,F3,393.25,0.25,32,85.5
3531,C4,393.5,0.25,39,85.5
3532,E-3,393.5,0.25,33,85.5
3533,B-3,393.75,0.25,37,85.5
3534,D3,393.75,0.25,32,85.5
3535,E-3,394.0,1479/1000,34,85.5
3536,A3,394.0,0.25,42,85.5
3537,F2,394.0,1.0,30,85.5
3538,C3,394.0,0.25,35,85.5
3539,G3,394.25,0.25,39,85.5
3540,B-2,394.25,0.25,32,85.5
3541,F3,394.5,1.0,39,85.5
3542,A2,394.5,0.25,33,85.5
3543,G2,394.75,0.25,29,85.5
3544,F1,395.0,1.0,30,85.5
3545,F2,395.0,0.25,33,85.5
3546,E-2,395.25,0.25,31,85.5
3547,E-3,395.5,0.5,31,85.5
3548,G3,395.5,0.25,37,85.5
3549,D2,395.5,0.25,30,85.5
3550,A3,395.75,0.25,35,85.5
3551,C2,395.75,0.25,28,85.5
3552,B-1,396.0,0.125,31,85.5
3553,D3,396.0,0.125,34,85.5
3554,B-3,396.0,0.125,34,85.5
3555,E-4,396.5,0.125,42,85.5
3556,A4,396.5,0.125,42,85.5
3557,F3,396.5,0.125,35,85.5
3558,C4,396.5,0.125,35,85.5
3559,B-3,397.0,0.125,35,85.5
3560,D4,397.0,0.125,42,85.5
3561,B-4,397.0,0.125,42,85.5
3562,C5,397.5,0.125,94,85.5
3563,E-5,397.5,0.125,94,85.5
3564,A5,397.5,0.125,94,85.5
3565,F2,397.5,0.125,77,85.5
3566,F3,397.5,0.125,77,85.5
3567,B-4,398.0,0.125,104,85.5
3568,D5,398.0,0.125,104,85.5
3569,B-5,398.0,0.125,104,85.5
3570,B-1,398.0,0.125,86,85.5
3571,B-2,398.0,0.125,86,85.5
