,note_name,start_time,duration,velocity,tempo
0,F2,0.0,167/1000,50,54.88
1,F3,0.167,0.125,46,54.88
2,F3,0.333,167/1000,54,54.88
3,F4,0.5,0.125,46,54.88
4,F4,0.667,167/1000,50,54.88
5,F5,0.833,0.125,46,54.88
6,F5,1.0,167/1000,59,54.88
7,F6,1.167,1083/1000,66,54.88
8,F1,1.333,917/1000,33,54.88
9,F2,1.333,917/1000,33,54.88
10,F5,1.5,0.75,51,54.88
11,F6,2.25,0.75,46,54.88
12,F5,2.25,0.75,46,54.88
13,F2,3.0,0.5,30,54.88
14,F3,3.0,0.5,30,54.88
15,C#6,4.25,0.75,41,54.88
16,F6,4.25,0.75,41,54.88
17,G#5,4.25,0.75,41,54.88
18,F5,4.25,0.75,41,54.88
19,C#2,5.0,0.5,31,54.88
20,C#3,5.0,0.5,31,54.88
21,F6,6.25,0.75,36,54.88
22,B-5,6.25,0.75,36,54.88
23,F5,6.25,0.75,36,54.88
24,C#6,6.25,0.75,36,54.88
25,B-1,7.0,0.5,28,54.88
26,B-2,7.0,0.5,28,54.88
27,B-5,8.25,1.25,34,54.88
28,F#5,8.25,1.25,34,54.88
29,F#6,8.25,1.25,34,54.88
30,C#6,8.25,1.25,34,54.88
31,F#1,9.0,0.5,22,54.88
32,F#2,9.0,0.5,22,54.88
33,C#5,10.25,0.25,37,54.88
34,F#5,10.5,0.25,41,54.88
35,C#5,10.75,0.25,36,54.88
36,F#5,11.0,0.25,42,54.88
37,C#5,11.25,0.25,35,54.88
38,F#5,11.5,0.25,42,54.88
39,B-4,11.75,0.25,38,54.88
40,E-5,12.0,2.0,48,54.88
41,F#4,12.25,0.25,35,54.88
42,B4,12.5,0.25,41,54.88
43,F#4,12.75,0.25,35,54.88
44,B4,13.0,0.25,43,54.88
45,F#4,13.25,0.25,37,54.88
46,B4,13.5,0.25,42,54.88
47,E-4,13.75,0.25,39,54.88
48,E-5,14.0,0.5,47,54.88
49,F4,14.0,0.25,33,54.88
50,G#4,14.25,0.25,32,54.88
51,F3,14.25,0.25,29,54.88
52,C#5,14.5,1.0,43,54.88
53,F4,14.5,0.25,30,54.88
54,G#3,14.5,0.25,32,54.88
55,G#4,14.75,0.25,37,54.88
56,F3,14.75,0.25,27,54.88
57,F4,15.0,0.25,35,54.88
58,G#3,15.0,0.25,32,54.88
59,G#4,15.25,0.25,38,54.88
60,F3,15.25,0.25,26,54.88
61,F4,15.5,0.25,28,54.88
62,B4,15.5,0.5,39,54.88
63,G#3,15.5,0.25,31,54.88
64,G#4,15.75,0.25,27,54.88
65,C#3,15.75,0.25,25,54.88
66,F#3,16.0,0.5,38,54.88
67,F#4,16.0,0.5,42,54.88
68,B-4,16.0,0.5,42,54.88
69,C3,16.5,0.5,30,54.88
70,A4,16.5,0.5,40,54.88
71,F#4,16.5,0.5,40,54.88
72,E-5,16.5,0.5,40,54.88
73,C#3,17.0,0.5,28,54.88
74,F4,17.0,0.875,37,54.88
75,G#4,17.0,0.875,37,54.88
76,F#2,17.5,0.5,28,54.88
77,F#4,17.875,0.125,32,54.88
78,B-4,17.875,0.125,32,54.88
79,F#5,18.0,0.5,41,54.88
80,B-5,18.0,0.5,41,54.88
81,B-4,18.0,0.5,41,54.88
82,C#5,18.0,0.5,41,54.88
83,F#3,18.5,0.5,28,54.88
84,F#2,18.5,0.5,28,54.88
85,F#5,19.25,0.75,36,54.88
86,B-4,19.25,0.75,36,54.88
87,E-5,19.25,0.75,36,54.88
88,B-5,19.25,0.75,36,54.88
89,E-3,20.0,0.5,30,54.88
90,E-2,20.0,0.5,30,54.88
91,F#5,20.75,0.25,34,54.88
92,E-6,20.75,0.25,34,54.88
93,E-5,20.75,0.25,34,54.88
94,F#5,21.0,0.25,34,54.88
95,E-6,21.0,0.25,34,54.88
96,E-5,21.0,0.25,34,54.88
97,B1,21.0,0.25,30,54.88
98,B2,21.0,0.25,30,54.88
99,F#3,21.25,0.25,30,54.88
100,G#3,21.5,0.25,31,54.88
101,B-3,21.75,0.25,31,54.88
102,B3,22.0,0.25,32,54.88
103,C#4,22.25,0.25,33,54.88
104,E-4,22.5,0.25,34,54.88
105,E4,22.75,0.25,35,54.88
106,E-4,23.0,0.25,36,54.88
107,F#4,23.25,123/500,35,54.88
108,B3,23.25,11/40,33,54.88
109,G#4,23.5,11/40,38,54.88
110,F#4,23.5,11/40,39,54.88
111,B-4,23.75,11/40,41,54.88
112,E4,23.75,11/40,39,54.88
113,B4,24.0,11/40,45,54.88
114,E-4,24.0,11/40,40,54.88
115,C#5,24.25,11/40,48,54.88
116,C#4,24.25,11/40,41,54.88
117,E-5,24.5,11/40,52,54.88
118,B3,24.5,11/40,42,54.88
119,E5,24.75,11/40,52,54.88
120,B-3,24.75,11/40,43,54.88
121,E-5,25.0,11/40,55,54.88
122,B3,25.0,11/40,43,54.88
123,B4,25.25,0.25,52,54.88
124,F#3,25.25,0.25,38,54.88
125,F#5,25.5,11/40,57,54.88
126,G#3,25.5,11/40,44,54.88
127,E5,25.75,11/40,55,54.88
128,B-3,25.75,11/40,44,54.88
129,E-5,26.0,11/40,53,54.88
130,B3,26.0,11/40,43,54.88
131,C#5,26.25,11/40,51,54.88
132,C#4,26.25,11/40,43,54.88
133,B4,26.5,11/40,49,54.88
134,E-4,26.5,11/40,42,54.88
135,B-4,26.75,0.25,47,54.88
136,E4,26.75,0.25,42,54.88
137,B4,27.0,0.25,47,54.88
138,B-4,27.0,1/40,47,54.88
139,E-4,27.0,0.25,42,54.88
140,E4,27.0,1/40,42,54.88
141,F#5,27.25,123/500,47,54.88
142,E-5,27.25,11/40,42,54.88
143,G#5,27.5,11/40,47,54.88
144,F#5,27.5,11/40,39,54.88
145,B-5,27.75,11/40,49,54.88
146,E5,27.75,11/40,40,54.88
147,B5,28.0,11/40,50,54.88
148,E-5,28.0,11/40,42,54.88
149,C#6,28.25,11/40,52,54.88
150,C#5,28.25,11/40,44,54.88
151,E-6,28.5,11/40,53,54.88
152,B4,28.5,11/40,45,54.88
153,E6,28.75,11/40,52,54.88
154,B-4,28.75,11/40,47,54.88
155,E-6,29.0,11/40,59,54.88
156,B4,29.0,11/40,50,54.88
157,C#6,29.25,11/40,47,54.88
158,B-4,29.25,11/40,42,54.88
159,B5,29.5,11/40,47,54.88
160,E-5,29.5,11/40,42,54.88
161,B-5,29.75,11/40,47,54.88
162,C#5,29.75,11/40,42,54.88
163,G#5,30.0,11/40,54,54.88
164,B4,30.0,11/40,49,54.88
165,F#5,30.25,11/40,47,54.88
166,B-4,30.25,11/40,37,54.88
167,E5,30.5,11/40,47,54.88
168,G#4,30.5,11/40,37,54.88
169,E-5,30.75,11/40,47,54.88
170,F#4,30.75,11/40,37,54.88
171,C#5,31.0,11/40,51,54.88
172,E4,31.0,11/40,46,54.88
173,B4,31.25,11/40,47,54.88
174,E-4,31.25,11/40,42,54.88
175,B-4,31.5,11/40,47,54.88
176,C#4,31.5,11/40,42,54.88
177,G#4,31.75,11/40,47,54.88
178,B3,31.75,11/40,42,54.88
179,F#4,32.0,0.25,51,54.88
180,B-3,32.0,0.25,42,54.88
181,E5,32.25,0.25,54,54.88
182,C#4,32.25,0.25,45,54.88
183,E-5,32.5,0.25,57,54.88
184,B3,32.5,0.25,47,54.88
185,G#5,32.75,0.25,60,54.88
186,E4,32.75,0.25,50,54.88
187,F#5,33.0,0.25,60,54.88
188,E-4,33.0,0.25,50,54.88
189,B5,33.25,0.25,45,54.88
190,D4,33.25,0.25,39,54.88
191,B-5,33.5,0.25,52,54.88
192,C#4,33.5,0.25,47,54.88
193,E6,33.75,0.25,49,54.88
194,F#3,33.75,0.25,40,54.88
195,E5,34.0,0.75,44,54.88
196,B-5,34.0,0.75,44,54.88
197,E6,34.0,0.75,44,54.88
198,C#4,34.0,0.75,36,54.88
199,F#4,34.0,0.75,36,54.88
200,F#3,34.0,0.75,36,54.88
201,B5,34.75,0.75,43,54.88
202,E-6,34.75,0.75,43,54.88
203,F#5,34.75,0.75,43,54.88
204,E-5,34.75,0.75,43,54.88
205,B2,35.5,0.5,32,54.88
206,B1,35.5,0.5,32,54.88
207,E-5,36.75,0.25,49,54.88
208,B5,36.75,0.25,49,54.88
209,E-6,36.75,0.25,49,54.88
210,G#5,36.75,0.25,49,54.88
211,E-5,37.0,0.25,49,54.88
212,B5,37.0,0.25,49,54.88
213,E-6,37.0,0.25,49,54.88
214,G#5,37.0,0.25,49,54.88
215,G#1,37.0,0.5,82,54.88
216,G#2,37.0,0.5,82,54.88
217,E-5,37.25,0.25,37,54.88
218,G#4,37.5,0.25,37,54.88
219,E-5,37.75,0.25,37,54.88
220,E5,38.0,0.25,46,54.88
221,E-5,38.25,0.25,40,54.88
222,G#4,38.5,0.25,42,54.88
223,E-5,38.75,0.25,45,54.88
224,E5,39.0,2.0,49,54.88
225,G#4,39.25,0.25,39,54.88
226,C#4,39.5,0.25,41,54.88
227,G#4,39.75,0.25,37,54.88
228,B-4,40.0,0.25,42,54.88
229,G#4,40.25,0.25,34,54.88
230,C#4,40.5,0.25,41,54.88
231,G#4,40.75,0.25,34,54.88
232,E5,41.0,0.25,49,54.88
233,G4,41.0,1.5,45,54.88
234,B-4,41.25,0.25,41,54.88
235,E-5,41.5,0.25,46,54.88
236,D5,41.75,0.25,42,54.88
237,E-5,42.0,0.25,44,54.88
238,B-4,42.25,0.25,37,54.88
239,E-5,42.5,0.25,43,54.88
240,G4,42.5,1.0,52,54.88
241,C#5,42.75,0.25,37,54.88
242,C5,43.0,0.25,52,54.88
243,E-5,43.25,0.25,46,54.88
244,C5,43.5,0.25,55,54.88
245,G4,43.5,0.5,49,54.88
246,G#5,43.75,0.25,47,54.88
247,C#5,44.0,0.25,60,54.88
248,E4,44.0,0.5,57,54.88
249,G#5,44.25,0.25,54,54.88
250,E-5,44.5,0.25,63,54.88
251,E-4,44.5,0.5,52,54.88
252,G#5,44.75,0.25,58,54.88
253,E5,45.0,1.0,70,54.88
254,C#4,45.0,0.25,60,54.88
255,G#3,45.25,0.25,37,54.88
256,C#3,45.5,0.25,42,54.88
257,G#3,45.75,0.25,37,54.88
258,E4,46.0,1.25,53,54.88
259,A3,46.0,0.25,44,54.88
260,G#3,46.25,0.25,37,54.88
261,C#3,46.5,0.25,37,54.88
262,G#3,46.75,0.25,37,54.88
263,A3,47.0,1.5,46,54.88
264,C#4,47.25,0.25,42,54.88
265,F#4,47.5,0.25,50,54.88
266,F4,47.75,0.25,37,54.88
267,F#4,48.0,0.25,51,54.88
268,C#4,48.25,0.25,43,54.88
269,F#4,48.5,0.25,51,54.88
270,G#3,48.5,0.5,40,54.88
271,E4,48.75,0.25,44,54.88
272,E-4,49.0,0.5,54,54.88
273,B-3,49.0,0.25,57,54.88
274,G3,49.0,2.0,57,54.88
275,C#4,49.25,0.25,44,54.88
276,E-5,49.5,1.0,60,54.88
277,B-3,49.5,0.25,52,54.88
278,E-4,49.75,0.25,44,54.88
279,E4,50.0,0.25,54,54.88
280,E-4,50.25,0.25,42,54.88
281,C#5,50.5,0.5,52,54.88
282,B-3,50.5,0.25,46,54.88
283,E-4,50.75,0.25,39,54.88
284,B4,51.0,0.25,63,54.88
285,G#3,51.0,0.5,55,54.88
286,E-5,51.25,0.25,53,54.88
287,B3,51.25,0.25,41,54.88
288,B4,51.5,0.25,62,54.88
289,G#3,51.5,0.25,42,54.88
290,E-5,51.75,0.25,53,54.88
291,B3,51.75,0.25,42,54.88
292,E5,52.0,0.25,63,54.88
293,B5,52.0,1.0,63,54.88
294,C#4,52.0,0.25,53,54.88
295,E-5,52.25,0.25,60,54.88
296,B3,52.25,0.25,37,54.88
297,G#4,52.5,0.25,65,54.88
298,G#3,52.5,0.25,45,54.88
299,B2,52.5,0.5,38,54.88
300,B4,52.75,0.25,60,54.88
301,B3,52.75,0.25,37,54.88
302,E5,53.0,1.0,58,54.88
303,B5,53.0,0.25,63,54.88
304,E3,53.0,0.5,49,54.88
305,C#3,53.0,1.5,41,54.88
306,G#5,53.25,0.25,59,54.88
307,A5,53.5,0.25,65,54.88
308,C#4,53.5,1.0,57,54.88
309,C#6,53.75,0.25,59,54.88
310,A4,54.0,0.5,58,54.88
311,E5,54.0,0.25,70,54.88
312,A5,54.25,0.25,59,54.88
313,B4,54.5,0.5,62,54.88
314,E-5,54.5,0.25,73,54.88
315,B3,54.5,0.5,42,54.88
316,E-3,54.5,0.5,42,54.88
317,G#5,54.75,0.25,71,54.88
318,E-5,55.0,0.25,81,54.88
319,B4,55.0,0.5,69,54.88
320,B3,55.0,0.5,57,54.88
321,E-3,55.0,1.5,48,54.88
322,G#5,55.25,0.25,73,54.88
323,E-5,55.5,0.25,81,54.88
324,C#5,55.5,0.5,69,54.88
325,B-3,55.5,0.5,48,54.88
326,G5,55.75,0.25,77,54.88
327,E-5,56.0,0.25,81,54.88
328,B4,56.0,0.5,69,54.88
329,G#3,56.0,0.5,55,54.88
330,G#5,56.25,0.25,74,54.88
331,B-4,56.5,0.5,69,54.88
332,E-5,56.5,0.25,81,54.88
333,E-3,56.5,0.5,45,54.88
334,G3,56.5,0.5,45,54.88
335,B-5,56.75,0.25,72,54.88
336,G#5,57.25,1.25,34,54.88
337,E-5,57.25,1.25,34,54.88
338,B5,57.25,1.25,34,54.88
339,B4,57.25,1.25,34,54.88
340,G#2,58.5,0.5,22,54.88
341,G#3,58.5,0.5,22,54.88
342,G#5,59.25,1.25,34,54.88
343,B5,59.25,1.25,34,54.88
344,E5,59.25,1.25,34,54.88
345,B4,59.25,1.25,34,54.88
346,E2,60.5,0.5,22,54.88
347,E3,60.5,0.5,22,54.88
348,C#6,61.25,1.25,34,54.88
349,E5,61.25,1.25,34,54.88
350,C#5,61.25,1.25,34,54.88
351,G#5,61.25,1.25,34,54.88
352,C#3,62.5,0.5,22,54.88
353,C#2,62.5,0.5,22,54.88
354,E5,63.25,0.75,34,54.88
355,C#5,63.25,0.75,34,54.88
356,C#6,63.25,0.75,34,54.88
357,A5,63.25,0.75,34,54.88
358,E5,64.0,0.5,34,54.88
359,C#5,64.0,0.5,34,54.88
360,C#6,64.0,0.5,34,54.88
361,A5,64.0,0.5,34,54.88
362,A1,64.167,167/1000,38,54.88
363,A2,64.333,0.125,32,54.88
364,A2,64.5,167/1000,41,54.88
365,A3,64.667,0.125,32,54.88
366,A3,64.833,167/1000,32,54.88
367,A4,65.0,0.125,37,54.88
368,A4,65.167,167/1000,32,54.88
369,A5,65.333,167/1000,41,54.88
370,A5,65.5,1167/1000,46,54.88
371,A6,65.667,1.0,45,54.88
372,A2,65.833,167/1000,30,54.88
373,A1,65.833,167/1000,30,54.88
374,B2,66.0,4.0,34,54.88
375,A1,66.0,4.0,34,54.88
376,D2,66.0,4.0,34,54.88
377,E2,66.0,4.0,34,54.88
378,G#6,66.667,667/1000,56,54.88
379,G#5,66.667,667/1000,56,54.88
380,E6,67.333,667/1000,54,54.88
381,E5,67.333,667/1000,54,54.88
382,E-5,68.0,667/1000,50,54.88
383,E-6,68.0,667/1000,50,54.88
384,D5,68.667,667/1000,49,54.88
385,D6,68.667,667/1000,49,54.88
386,B5,69.333,667/1000,46,54.88
387,B4,69.333,667/1000,46,54.88
388,G#5,70.0,333/1000,51,54.88
389,B2,70.0,6.0,34,54.88
390,A1,70.0,6.0,34,54.88
391,D2,70.0,6.0,34,54.88
392,E2,70.0,6.0,34,54.88
393,E5,70.333,333/1000,45,54.88
394,E-5,70.667,333/1000,45,54.88
395,D5,71.0,333/1000,45,54.88
396,B4,71.333,333/1000,45,54.88
397,G#4,71.667,333/1000,45,54.88
398,E4,72.0,333/1000,48,54.88
399,E-4,72.333,333/1000,42,54.88
400,D4,72.667,333/1000,42,54.88
401,B3,73.0,0.25,42,54.88
402,G#3,73.25,0.25,36,54.88
403,E3,73.5,0.25,37,54.88
404,E-3,73.75,0.25,37,54.88
405,D3,74.0,3/20,48,54.88
406,E3,74.125,3/20,39,54.88
407,D3,74.25,3/20,48,54.88
408,E3,74.375,3/20,41,54.88
409,D3,74.5,3/20,40,54.88
410,E3,74.625,3/20,34,54.88
411,D3,74.75,3/20,40,54.88
412,E3,74.875,3/20,35,54.88
413,D3,75.0,3/20,40,54.88
414,E3,75.125,3/20,34,54.88
415,D3,75.25,3/20,40,54.88
416,E3,75.375,3/20,35,54.88
417,D3,75.5,3/20,40,54.88
418,E3,75.625,3/20,34,54.88
419,D3,75.75,3/20,40,54.88
420,E3,75.875,0.125,35,54.88
421,D3,76.0,3/20,40,54.88
422,E3,76.0,1/40,35,54.88
423,B2,76.0,6.0,34,54.88
424,A1,76.0,6.0,34,54.88
425,D2,76.0,6.0,34,54.88
426,E2,76.0,6.0,34,54.88
427,E3,76.125,3/20,34,54.88
428,D3,76.25,3/20,40,54.88
429,E3,76.375,3/20,34,54.88
430,D3,76.5,3/20,40,54.88
431,E3,76.625,3/20,34,54.88
432,D3,76.75,3/20,40,54.88
433,E3,76.875,0.125,34,54.88
434,E-3,77.0,3/20,45,54.88
435,E3,77.125,3/20,38,54.88
436,E-3,77.25,3/20,45,54.88
437,E3,77.375,3/20,41,54.88
438,E-3,77.5,3/20,40,54.88
439,E3,77.625,3/20,34,54.88
440,E-3,77.75,3/20,40,54.88
441,E3,77.875,3/20,35,54.88
442,E-3,78.0,3/20,40,54.88
443,E3,78.125,3/20,35,54.88
444,E-3,78.25,3/20,40,54.88
445,E3,78.375,3/20,35,54.88
446,E-3,78.5,3/20,40,54.88
447,E3,78.667,1/5,35,54.88
448,E-3,78.833,1/5,40,54.88
449,E3,79.0,0.125,42,54.88
450,F#3,79.125,3/20,35,54.88
451,E3,79.25,3/20,44,54.88
452,F#3,79.375,3/20,38,54.88
453,E3,79.5,3/20,40,54.88
454,F#3,79.625,3/20,35,54.88
455,E3,79.75,3/20,40,54.88
456,F#3,79.875,3/20,35,54.88
457,E3,80.0,3/20,40,54.88
458,F#3,80.125,3/20,35,54.88
459,E3,80.25,3/20,40,54.88
460,F#3,80.375,3/20,35,54.88
461,E3,80.5,3/20,40,54.88
462,F#3,80.625,3/20,35,54.88
463,E3,80.75,3/20,40,54.88
464,F#3,80.875,3/20,36,54.88
465,E3,81.0,3/20,40,54.88
466,F#3,81.125,3/20,35,54.88
467,E3,81.25,3/20,40,54.88
468,F#3,81.375,3/20,36,54.88
469,E3,81.5,1/5,40,54.88
470,E-3,81.667,1/5,37,54.88
471,E3,81.833,167/1000,37,54.88
472,E3,82.0,1.0,38,54.88
473,C#3,82.0,1.0,38,54.88
474,A2,82.5,0.5,24,54.88
475,A1,82.5,0.5,24,54.88
476,E3,83.0,0.062,38,54.88
477,C#3,83.0,0.062,38,54.88
478,A2,83.25,0.125,26,54.88
479,A1,83.25,0.125,26,54.88
480,C#3,83.5,0.5,38,54.88
481,E3,83.5,0.5,38,54.88
482,E3,84.0,1.0,38,54.88
483,C#3,84.0,1.0,38,54.88
484,A1,84.5,0.5,24,54.88
485,A2,84.5,0.5,24,54.88
486,C#3,85.0,0.062,38,54.88
487,A3,85.0,0.062,38,54.88
488,F#2,85.25,0.125,26,54.88
489,F#1,85.25,0.125,26,54.88
490,F#3,85.5,0.5,36,54.88
491,C#3,85.5,0.5,36,54.88
492,A3,85.5,0.5,36,54.88
493,A3,86.0,1.0,38,54.88
494,F#3,86.0,1.0,38,54.88
495,D2,86.5,0.5,24,54.88
496,D3,86.5,0.5,24,54.88
497,A3,87.0,0.062,38,54.88
498,F#3,87.0,0.062,38,54.88
499,D2,87.25,0.125,26,54.88
500,D3,87.25,0.125,26,54.88
501,A3,87.5,0.5,38,54.88
502,F#3,87.5,0.5,38,54.88
503,A3,88.0,1.0,38,54.88
504,F#3,88.0,1.0,38,54.88
505,D3,88.5,0.5,24,54.88
506,D2,88.5,0.5,24,54.88
507,F#3,89.0,0.062,38,54.88
508,D4,89.0,0.062,38,54.88
509,B1,89.25,0.125,26,54.88
510,B2,89.25,0.125,26,54.88
511,F#3,89.5,62/125,36,54.88
512,B3,89.5,62/125,36,54.88
513,D4,89.5,62/125,36,54.88
514,D4,90.0,1.0,38,54.88
515,B3,90.0,1.0,38,54.88
516,G2,90.5,0.5,24,54.88
517,G3,90.5,0.5,24,54.88
518,B3,91.0,0.094,38,54.88
519,D4,91.0,0.094,38,54.88
520,G2,91.25,0.125,26,54.88
521,G3,91.25,0.125,26,54.88
522,B3,91.5,0.5,38,54.88
523,D4,91.5,0.5,38,54.88
524,D4,92.0,1.0,40,54.88
525,B3,92.0,1.0,40,54.88
526,G2,92.5,0.5,25,54.88
527,G3,92.5,0.5,25,54.88
528,G4,93.0,0.094,42,54.88
529,B3,93.0,0.094,42,54.88
530,E2,93.25,0.125,28,54.88
531,E3,93.25,0.125,28,54.88
532,B3,93.5,0.5,42,54.88
533,G4,93.5,0.5,42,54.88
534,G4,94.0,1.0,44,54.88
535,E4,94.0,1.0,44,54.88
536,C4,94.5,0.5,29,54.88
537,C3,94.5,0.5,29,54.88
538,E4,95.0,0.094,46,54.88
539,G4,95.0,0.094,46,54.88
540,C3,95.25,0.125,31,54.88
541,C4,95.25,0.125,31,54.88
542,G4,95.5,0.5,46,54.88
543,E4,95.5,0.5,46,54.88
544,E4,96.0,1.0,48,54.88
545,C5,96.0,1.0,48,54.88
546,A3,96.5,0.5,32,54.88
547,A2,96.5,0.5,32,54.88
548,E4,97.0,0.094,50,54.88
549,C5,97.0,0.094,50,54.88
550,A2,97.25,0.125,34,54.88
551,A3,97.25,0.125,34,54.88
552,E4,97.5,0.5,52,54.88
553,C5,97.5,0.5,52,54.88
554,C5,98.0,1.0,53,54.88
555,A4,98.0,1.0,53,54.88
556,F2,98.5,0.5,35,54.88
557,F3,98.5,0.5,35,54.88
558,C5,99.0,0.125,60,54.88
559,A4,99.0,0.125,60,54.88
560,F3,99.25,0.125,41,54.88
561,F2,99.25,0.125,41,54.88
562,A4,99.5,0.5,63,54.88
563,C5,99.5,0.5,63,54.88
564,A4,100.0,1.0,66,54.88
565,F5,100.0,1.0,66,54.88
566,D2,100.5,0.5,44,54.88
567,D3,100.5,0.5,44,54.88
568,A4,101.0,0.125,72,54.88
569,D5,101.0,0.125,72,54.88
570,F5,101.0,0.125,72,54.88
571,D3,101.25,0.125,52,54.88
572,D2,101.25,0.125,52,54.88
573,D5,101.5,0.5,76,54.88
574,A4,101.5,0.5,76,54.88
575,F5,101.5,0.5,76,54.88
576,E5,102.0,1.0,80,54.88
577,A4,102.0,1.0,80,54.88
578,C#5,102.0,1.0,80,54.88
579,A5,102.0,1.0,80,54.88
580,A1,102.5,0.5,50,54.88
581,C#2,102.5,0.5,50,54.88
582,E2,102.5,0.5,50,54.88
583,A2,102.5,0.5,50,54.88
584,E5,103.0,0.125,78,54.88
585,C#5,103.0,0.125,78,54.88
586,A4,103.0,0.125,78,54.88
587,A5,103.0,0.125,78,54.88
588,C#2,103.25,0.125,53,54.88
589,A1,103.25,0.125,53,54.88
590,A2,103.25,0.125,53,54.88
591,E2,103.25,0.125,53,54.88
592,C#5,103.5,0.5,78,54.88
593,A4,103.5,0.5,78,54.88
594,A5,103.5,0.5,78,54.88
595,E5,103.5,0.5,78,54.88
596,A4,104.0,1.0,76,54.88
597,A5,104.0,1.0,76,54.88
598,C#5,104.0,1.0,76,54.88
599,E5,104.0,1.0,76,54.88
600,C#2,104.5,0.5,48,54.88
601,E2,104.5,0.5,48,54.88
602,A2,104.5,0.5,48,54.88
603,A1,104.5,0.5,48,54.88
604,A4,105.0,0.125,75,54.88
605,C#5,105.0,0.125,75,54.88
606,E5,105.0,0.125,75,54.88
607,A5,105.0,0.125,75,54.88
608,A1,105.25,0.125,50,54.88
609,E2,105.25,0.125,50,54.88
610,A2,105.25,0.125,50,54.88
611,C#2,105.25,0.125,50,54.88
612,E5,105.5,0.5,74,54.88
613,C#5,105.5,0.5,74,54.88
614,A5,105.5,0.5,74,54.88
615,A4,105.5,0.5,74,54.88
616,C#5,106.0,1.0,73,54.88
617,A5,106.0,1.0,73,54.88
618,E5,106.0,1.0,73,54.88
619,A4,106.0,1.0,73,54.88
620,C#2,106.5,0.5,46,54.88
621,A1,106.5,0.5,46,54.88
622,A2,106.5,0.5,46,54.88
623,E2,106.5,0.5,46,54.88
624,A4,107.0,0.125,75,54.88
625,A5,107.0,0.125,75,54.88
626,A1,107.25,0.125,50,54.88
627,A2,107.25,0.125,50,54.88
628,A5,107.5,0.5,74,54.88
629,A4,107.5,0.5,74,54.88
630,A4,108.0,1.0,67,54.88
631,A5,108.0,1.0,67,54.88
632,A2,108.5,0.5,40,54.88
633,A1,108.5,0.5,40,54.88
634,A4,109.0,0.125,60,54.88
635,A5,109.0,0.125,60,54.88
636,A1,109.25,0.125,39,54.88
637,A2,109.25,0.125,39,54.88
638,A4,109.5,0.5,56,54.88
639,A5,109.5,0.5,56,54.88
640,A5,110.0,1.0,52,54.88
641,A4,110.0,1.0,52,54.88
642,A1,110.5,0.5,30,54.88
643,A2,110.5,0.5,30,54.88
644,A5,111.0,0.125,44,54.88
645,A4,111.0,0.125,44,54.88
646,A2,111.25,0.125,29,54.88
647,A1,111.25,0.125,29,54.88
648,A4,111.5,0.5,41,54.88
649,A5,111.5,0.5,41,54.88
650,A4,112.0,1.0,30,54.88
651,A5,112.0,1.0,30,54.88
652,F1,112.5,0.5,18,54.88
653,F2,112.5,0.5,18,54.88
654,A5,113.0,0.125,30,54.88
655,A4,113.0,0.125,30,54.88
656,F2,113.25,0.125,20,54.88
657,F1,113.25,0.125,20,54.88
658,A5,113.5,0.5,30,54.88
659,A4,113.5,0.5,30,54.88
660,A5,114.0,167/1000,40,54.88
661,F1,114.0,0.5,28,54.88
662,F2,114.0,0.5,28,54.88
663,B-5,114.167,167/1000,36,54.88
664,A5,114.333,167/1000,40,54.88
665,B-5,114.5,167/1000,35,54.88
666,A5,114.667,167/1000,40,54.88
667,B-5,114.833,167/1000,36,54.88
668,A5,115.0,167/1000,40,54.88
669,F3,115.0,0.5,28,54.88
670,A3,115.0,0.5,28,54.88
671,B-5,115.167,167/1000,36,54.88
672,A5,115.333,167/1000,40,54.88
673,B-5,115.5,167/1000,36,54.88
674,A5,115.667,167/1000,40,54.88
675,B-5,115.833,167/1000,35,54.88
676,A5,116.0,167/1000,40,54.88
677,B-5,116.167,167/1000,36,54.88
678,A5,116.333,167/1000,40,54.88
679,B-5,116.5,167/1000,35,54.88
680,A5,116.667,167/1000,40,54.88
681,B-5,116.833,167/1000,34,54.88
682,A5,117.0,167/1000,48,54.88
683,F2,117.0,0.5,42,54.88
684,F1,117.0,0.5,42,54.88
685,B-5,117.167,167/1000,43,54.88
686,A5,117.333,167/1000,49,54.88
687,B-5,117.5,167/1000,43,54.88
688,A5,117.667,167/1000,50,54.88
689,B-5,117.833,167/1000,43,54.88
690,C6,118.0,167/1000,52,54.88
691,A3,118.0,0.5,36,54.88
692,C4,118.0,0.5,36,54.88
693,D6,118.167,167/1000,47,54.88
694,C6,118.333,167/1000,53,54.88
695,D6,118.5,167/1000,47,54.88
696,C6,118.667,167/1000,54,54.88
697,D6,118.833,167/1000,49,54.88
698,C6,119.0,167/1000,56,54.88
699,D6,119.167,167/1000,50,54.88
700,C6,119.333,167/1000,57,54.88
701,D6,119.5,167/1000,52,54.88
702,C6,119.667,167/1000,58,54.88
703,D6,119.833,167/1000,51,54.88
704,C6,120.0,167/1000,60,54.88
705,F2,120.0,0.5,50,54.88
706,F1,120.0,0.5,50,54.88
707,D6,120.167,167/1000,54,54.88
708,C6,120.333,167/1000,61,54.88
709,D6,120.5,167/1000,54,54.88
710,C6,120.667,167/1000,62,54.88
711,D6,120.833,167/1000,53,54.88
712,F6,121.0,167/1000,64,54.88
713,F4,121.0,0.5,47,54.88
714,C4,121.0,0.5,47,54.88
715,A3,121.0,0.5,47,54.88
716,F3,121.0,0.5,47,54.88
717,G6,121.167,167/1000,57,54.88
718,F6,121.333,167/1000,65,54.88
719,G6,121.5,167/1000,57,54.88
720,F6,121.667,167/1000,66,54.88
721,G6,121.833,167/1000,60,54.88
722,F6,122.0,167/1000,68,54.88
723,F1,122.0,0.5,52,54.88
724,F2,122.0,0.5,52,54.88
725,G6,122.167,167/1000,61,54.88
726,F6,122.333,167/1000,69,54.88
727,G6,122.5,167/1000,63,54.88
728,F6,122.667,167/1000,70,54.88
729,G6,122.833,167/1000,62,54.88
730,F6,123.0,0.25,78,54.88
731,F4,123.0,0.5,58,54.88
732,C4,123.0,0.5,58,54.88
733,A3,123.0,0.5,58,54.88
734,F3,123.0,0.5,58,54.88
735,E-6,123.25,0.25,77,54.88
736,D6,123.5,0.25,76,54.88
737,C6,123.75,0.25,75,54.88
738,B-5,124.0,0.25,73,54.88
739,F1,124.0,1.5,69,54.88
740,F2,124.0,1.5,69,54.88
741,A5,124.25,0.25,72,54.88
742,G5,124.5,0.25,71,54.88
743,F5,124.75,0.25,73,54.88
744,E-5,125.0,0.25,75,54.88
745,D5,125.25,0.25,76,54.88
746,C5,125.5,0.25,78,54.88
747,G2,125.5,0.25,54,54.88
748,F5,125.75,0.25,79,54.88
749,A2,125.75,0.25,55,54.88
750,F4,126.0,0.5,78,54.88
751,B-4,126.0,0.5,78,54.88
752,B-3,126.0,0.5,78,54.88
753,D4,126.0,0.5,78,54.88
754,B-1,126.0,0.5,58,54.88
755,D2,126.0,0.5,58,54.88
756,B-2,126.0,0.5,58,54.88
757,F2,126.0,0.5,58,54.88
758,G4,127.5,3/10,50,54.88
759,F4,127.75,3/10,43,54.88
760,E-4,128.0,3/10,50,54.88
761,D4,128.25,3/10,47,54.88
762,C4,128.5,3/10,47,54.88
763,B-3,128.75,0.25,47,54.88
764,A3,129.0,3/10,50,54.88
765,B-3,129.0,1/20,47,54.88
766,F3,129.0,0.5,40,54.88
767,B-3,129.25,3/10,44,54.88
768,A3,129.5,3/10,44,54.88
769,G3,129.75,3/10,44,54.88
770,F3,130.0,0.25,50,54.88
771,A4,130.0,167/1000,46,54.88
772,B-4,130.167,167/1000,40,54.88
773,G3,130.25,0.25,44,54.88
774,A4,130.333,167/1000,46,54.88
775,F3,130.5,0.25,44,54.88
776,B-4,130.5,167/1000,40,54.88
777,A4,130.667,167/1000,44,54.88
778,E-3,130.75,0.25,44,54.88
779,B-4,130.833,167/1000,40,54.88
780,D3,131.0,0.25,50,54.88
781,A4,131.0,167/1000,45,54.88
782,B-4,131.167,167/1000,40,54.88
783,E-3,131.25,0.25,44,54.88
784,A4,131.333,167/1000,44,54.88
785,D3,131.5,0.25,44,54.88
786,B-4,131.5,0.125,40,54.88
787,A4,131.625,0.125,44,54.88
788,C3,131.75,0.25,44,54.88
789,G4,131.75,0.125,40,54.88
790,A4,131.875,0.125,40,54.88
791,B-2,132.0,1.0,50,54.88
792,B-4,132.0,1.0,52,54.88
793,B-4,133.5,3/10,52,54.88
794,A4,133.75,3/10,46,54.88
795,G4,134.0,3/10,46,54.88
796,F4,134.25,3/10,46,54.88
797,E-4,134.5,3/10,48,54.88
798,D4,134.75,0.25,43,54.88
799,G4,135.0,0.5,52,54.88
800,D4,135.0,1/20,43,54.88
801,G4,136.5,3/10,52,54.88
802,F4,136.75,3/10,46,54.88
803,E-4,137.0,3/10,46,54.88
804,D4,137.25,3/10,46,54.88
805,C4,137.5,3/10,49,54.88
806,B-3,137.75,0.25,45,54.88
807,E-4,138.0,0.5,52,54.88
808,B-3,138.0,1/20,45,54.88
809,E-4,139.5,3/10,52,54.88
810,D4,139.75,3/10,46,54.88
811,C4,140.0,3/10,52,54.88
812,D4,140.25,3/10,46,54.88
813,C4,140.5,3/10,46,54.88
814,B-3,140.75,0.25,46,54.88
815,A3,141.0,3/10,53,54.88
816,B-3,141.25,3/10,47,54.88
817,A3,141.5,3/10,47,54.88
818,G3,141.75,3/10,47,54.88
819,F3,142.0,3/10,52,54.88
820,G3,142.25,3/10,47,54.88
821,A3,142.5,3/10,48,54.88
822,B-3,142.75,3/10,48,54.88
823,B3,143.0,3/10,52,54.88
824,C4,143.25,3/10,49,54.88
825,D4,143.5,3/10,49,54.88
826,C4,143.75,0.25,49,54.88
827,B-3,144.0,3/10,52,54.88
828,C4,144.25,3/10,47,54.88
829,D4,144.5,3/10,47,54.88
830,E-4,144.75,3/10,47,54.88
831,E4,145.0,3/10,52,54.88
832,F4,145.25,3/10,45,54.88
833,G4,145.5,3/10,45,54.88
834,F4,145.75,3/10,45,54.88
835,E-4,146.0,3/10,52,54.88
836,D4,146.25,3/10,48,54.88
837,C4,146.5,3/10,48,54.88
838,B-3,146.75,0.25,48,54.88
839,A3,147.0,3/10,52,54.88
840,B-3,147.25,3/10,47,54.88
841,A3,147.5,3/10,47,54.88
842,G3,147.75,3/10,47,54.88
843,F3,148.0,3/10,53,54.88
844,G3,148.25,3/10,47,54.88
845,A3,148.5,3/10,48,54.88
846,B-3,148.75,0.25,48,54.88
847,B3,149.0,3/10,54,54.88
848,C4,149.25,3/10,47,54.88
849,D4,149.5,3/10,48,54.88
850,C4,149.75,0.25,48,54.88
851,B-3,150.0,3/10,55,54.88
852,C4,150.25,3/10,48,54.88
853,D4,150.5,3/10,49,54.88
854,E-4,150.75,3/10,49,54.88
855,E4,151.0,3/10,56,54.88
856,F4,151.25,3/10,51,54.88
857,G4,151.5,3/10,52,54.88
858,F4,151.75,0.25,52,54.88
859,B-3,152.0,0.25,57,54.88
860,F#4,152.25,3/10,52,54.88
861,G4,152.5,3/10,53,54.88
862,F#4,152.75,0.25,53,54.88
863,B-3,153.0,0.25,61,54.88
864,G4,153.25,3/10,53,54.88
865,A4,153.5,3/10,53,54.88
866,G4,153.75,0.25,53,54.88
867,F#4,154.0,0.25,59,54.88
868,G4,154.25,3/10,55,54.88
869,A4,154.5,3/10,55,54.88
870,G4,154.75,0.25,55,54.88
871,E4,155.0,0.25,60,54.88
872,F4,155.25,3/10,54,54.88
873,G4,155.5,3/10,54,54.88
874,F4,155.75,0.25,55,54.88
875,E4,156.0,0.25,61,54.88
876,F4,156.25,3/10,57,54.88
877,G4,156.5,3/10,57,54.88
878,F4,156.75,0.25,57,54.88
879,D4,157.0,0.25,62,54.88
880,E-4,157.25,3/10,58,54.88
881,F4,157.5,3/10,59,54.88
882,E-4,157.75,0.25,59,54.88
883,C#4,158.0,0.25,63,54.88
884,D4,158.25,3/10,59,54.88
885,E-4,158.5,3/10,59,54.88
886,D4,158.75,0.25,59,54.88
887,B-3,159.0,0.25,65,54.88
888,C#4,159.0,0.25,65,54.88
889,D4,159.25,3/10,58,54.88
890,E-4,159.5,3/10,58,54.88
891,D4,159.75,0.25,58,54.88
892,E5,160.0,167/1000,65,54.88
893,B3,160.0,0.25,65,54.88
894,F5,160.167,167/1000,59,54.88
895,C4,160.25,0.25,60,54.88
896,E5,160.333,167/1000,65,54.88
897,F5,160.5,167/1000,60,54.88
898,D4,160.5,0.25,60,54.88
899,E5,160.667,167/1000,65,54.88
900,C4,160.75,0.25,60,54.88
901,F5,160.833,167/1000,61,54.88
902,E5,161.0,167/1000,65,54.88
903,A3,161.0,0.25,65,54.88
904,F5,161.167,167/1000,65,54.88
905,B-3,161.25,0.25,58,54.88
906,E5,161.333,167/1000,65,54.88
907,F5,161.5,0.125,61,54.88
908,C4,161.5,0.25,58,54.88
909,E5,161.625,0.125,65,54.88
910,D5,161.75,0.125,61,54.88
911,B-3,161.75,0.25,58,54.88
912,E5,161.875,0.125,61,54.88
913,F5,162.0,1.0,69,54.88
914,A3,162.5,0.25,65,54.88
915,A4,163.0,1.5,76,54.88
916,F5,163.5,3/10,62,54.88
917,E5,163.75,3/10,52,54.88
918,D5,164.0,3/10,52,54.88
919,C5,164.25,3/10,52,54.88
920,B-4,164.5,3/10,58,54.88
921,A4,164.75,0.25,51,54.88
922,D5,165.0,1.0,69,54.88
923,A4,165.0,1/20,51,54.88
924,F3,165.5,0.25,65,54.88
925,F4,166.0,1.5,76,54.88
926,D5,166.5,3/10,62,54.88
927,C5,166.75,3/10,52,54.88
928,B-4,167.0,3/10,52,54.88
929,A4,167.25,3/10,52,54.88
930,G4,167.5,3/10,58,54.88
931,F4,167.75,0.25,51,54.88
932,B-4,168.0,1.0,69,54.88
933,F4,168.0,1/20,51,54.88
934,D3,168.5,0.25,61,54.88
935,D4,169.0,11/20,68,54.88
936,B-4,169.5,3/10,66,54.88
937,C4,169.5,11/20,61,54.88
938,A4,169.75,3/10,65,54.88
939,G4,170.0,3/10,64,54.88
940,B-3,170.0,11/20,60,54.88
941,A4,170.25,3/10,63,54.88
942,G4,170.5,3/10,61,54.88
943,B3,170.5,0.5,60,54.88
944,F4,170.75,0.25,62,54.88
945,E4,171.0,3/10,66,54.88
946,F4,171.0,1/20,62,54.88
947,C4,171.0,0.25,70,54.88
948,B3,171.0,1/20,60,54.88
949,F4,171.25,3/10,59,54.88
950,E4,171.5,3/10,59,54.88
951,D4,171.75,0.25,59,54.88
952,C4,172.0,0.25,59,54.88
953,B-3,172.0,1.5,71,54.88
954,D4,172.25,3/10,62,54.88
955,E4,172.5,3/10,57,54.88
956,F4,172.75,3/10,57,54.88
957,F#4,173.0,3/10,57,54.88
958,G4,173.25,3/10,57,54.88
959,A4,173.5,3/10,57,54.88
960,B-3,173.5,0.5,59,54.88
961,G4,173.75,0.25,57,54.88
962,F4,174.0,3/10,60,54.88
963,B-3,174.0,11/20,65,54.88
964,G4,174.25,3/10,61,54.88
965,A4,174.5,3/10,61,54.88
966,A3,174.5,11/20,59,54.88
967,B-4,174.75,3/10,62,54.88
968,B4,175.0,3/10,63,54.88
969,G3,175.0,11/20,59,54.88
970,C5,175.25,3/10,63,54.88
971,D5,175.5,3/10,64,54.88
972,F3,175.5,11/20,59,54.88
973,C5,175.75,3/10,60,54.88
974,B-4,176.0,3/10,64,54.88
975,E3,176.0,11/20,59,54.88
976,A4,176.25,3/10,63,54.88
977,G4,176.5,3/10,62,54.88
978,F3,176.5,0.5,59,54.88
979,F4,176.75,0.25,60,54.88
980,E4,177.0,3/10,65,54.88
981,F4,177.0,1/20,60,54.88
982,C4,177.0,0.25,69,54.88
983,F4,177.25,3/10,56,54.88
984,E4,177.5,3/10,58,54.88
985,D4,177.75,0.25,58,54.88
986,C4,178.0,3/10,62,54.88
987,B-3,178.0,1.5,68,54.88
988,D4,178.25,3/10,62,54.88
989,E4,178.5,3/10,58,54.88
990,F4,178.75,3/10,58,54.88
991,F#4,179.0,3/10,58,54.88
992,G4,179.25,3/10,58,54.88
993,A4,179.5,3/10,58,54.88
994,A3,179.5,0.5,65,54.88
995,F4,179.75,0.25,58,54.88
996,E4,180.0,3/10,66,54.88
997,D4,180.0,0.25,71,54.88
998,F4,180.25,3/10,62,54.88
999,C5,180.5,3/10,59,54.88
1000,B-4,180.75,0.25,59,54.88
1001,A4,181.0,3/10,62,54.88
1002,C#4,181.0,1.5,70,54.88
1003,B-4,181.25,3/10,56,54.88
1004,C5,181.5,3/10,56,54.88
1005,B-4,181.75,0.25,56,54.88
1006,G#4,182.0,3/10,58,54.88
1007,A4,182.25,3/10,57,54.88
1008,B-4,182.5,3/10,57,54.88
1009,C4,182.5,0.5,62,54.88
1010,A4,182.75,0.25,57,54.88
1011,G4,183.0,3/10,68,54.88
1012,F4,183.0,0.25,71,54.88
1013,G#4,183.25,3/10,62,54.88
1014,E-5,183.5,3/10,68,54.88
1015,D5,183.75,0.25,62,54.88
1016,C5,184.0,3/10,64,54.88
1017,E4,184.0,1.5,70,54.88
1018,C#5,184.25,3/10,59,54.88
1019,D5,184.5,3/10,59,54.88
1020,C#5,184.75,0.25,59,54.88
1021,B4,185.0,3/10,62,54.88
1022,C5,185.25,3/10,58,54.88
1023,D5,185.5,3/10,58,54.88
1024,E-4,185.5,0.5,61,54.88
1025,C5,185.75,0.25,58,54.88
1026,E-4,186.0,2.0,79,54.88
1027,G#4,186.0,3/10,79,54.88
1028,F2,186.0,0.5,73,54.88
1029,A4,186.25,3/10,68,54.88
1030,B-4,186.5,3/10,68,54.88
1031,A4,186.75,0.25,68,54.88
1032,E4,187.0,0.25,68,54.88
1033,A3,187.0,167/1000,70,54.88
1034,B-3,187.167,167/1000,62,54.88
1035,F4,187.25,0.25,64,54.88
1036,A3,187.333,167/1000,70,54.88
1037,G4,187.5,0.25,64,54.88
1038,B-3,187.5,167/1000,63,54.88
1039,A3,187.667,167/1000,70,54.88
1040,F4,187.75,0.25,64,54.88
1041,B-3,187.833,167/1000,63,54.88
1042,F4,188.0,1.0,71,54.88
1043,B4,188.0,0.25,68,54.88
1044,A3,188.0,167/1000,70,54.88
1045,B-3,188.167,167/1000,64,54.88
1046,C5,188.25,0.25,63,54.88
1047,A3,188.333,167/1000,70,54.88
1048,D5,188.5,0.25,63,54.88
1049,B-3,188.5,0.125,63,54.88
1050,A3,188.625,0.125,70,54.88
1051,C5,188.75,0.25,63,54.88
1052,G3,188.75,0.125,65,54.88
1053,A3,188.875,0.125,65,54.88
1054,F4,189.0,0.5,71,54.88
1055,B-3,189.0,1.0,72,54.88
1056,D4,189.5,0.25,65,54.88
1057,D5,190.0,1.5,76,54.88
1058,A4,190.5,0.5,45,54.88
1059,B-3,190.5,3/10,62,54.88
1060,A3,190.75,3/10,52,54.88
1061,B-4,191.0,1.0,50,54.88
1062,G3,191.0,3/10,52,54.88
1063,F3,191.25,3/10,52,54.88
1064,E-3,191.5,3/10,58,54.88
1065,D3,191.75,0.25,51,54.88
1066,G3,192.0,1.0,69,54.88
1067,D3,192.0,1/20,51,54.88
1068,B-3,192.5,0.25,65,54.88
1069,B-4,193.0,1.5,76,54.88
1070,F#4,193.5,0.5,45,54.88
1071,G3,193.5,3/10,62,54.88
1072,F3,193.75,3/10,52,54.88
1073,G4,194.0,1.0,50,54.88
1074,E-3,194.0,3/10,52,54.88
1075,D3,194.25,3/10,52,54.88
1076,C3,194.5,3/10,58,54.88
1077,B-2,194.75,0.25,51,54.88
1078,E-3,195.0,1.0,69,54.88
1079,B-2,195.0,1/20,51,54.88
1080,G4,195.5,0.25,61,54.88
1081,G5,196.0,11/20,68,54.88
1082,E-3,196.5,3/10,56,54.88
1083,B4,196.5,11/20,56,54.88
1084,F5,196.5,11/20,56,54.88
1085,D3,196.75,3/10,55,54.88
1086,C3,197.0,3/10,54,54.88
1087,C5,197.0,11/20,56,54.88
1088,E-5,197.0,11/20,56,54.88
1089,D3,197.25,3/10,53,54.88
1090,C3,197.5,3/10,51,54.88
1091,G4,197.5,0.5,56,54.88
1092,E5,197.5,0.5,56,54.88
1093,B-2,197.75,0.25,52,54.88
1094,A2,198.0,3/10,56,54.88
1095,B-2,198.0,1/20,52,54.88
1096,C5,198.0,0.25,64,54.88
1097,F5,198.0,0.25,64,54.88
1098,G4,198.0,1/20,56,54.88
1099,E5,198.0,1/20,56,54.88
1100,B-2,198.25,3/10,50,54.88
1101,F4,198.5,0.5,59,54.88
1102,A2,198.5,3/10,50,54.88
1103,G2,198.75,0.25,50,54.88
1104,C5,199.0,0.5,59,54.88
1105,E-5,199.0,1.5,78,54.88
1106,F2,199.0,0.25,50,54.88
1107,G2,199.25,3/10,52,54.88
1108,F#4,199.5,0.5,59,54.88
1109,A2,199.5,3/10,48,54.88
1110,B-2,199.75,3/10,48,54.88
1111,F4,200.0,1.0,59,54.88
1112,B2,200.0,3/10,48,54.88
1113,C3,200.25,3/10,48,54.88
1114,E-5,200.5,0.5,59,54.88
1115,D3,200.5,3/10,48,54.88
1116,C3,200.75,0.25,48,54.88
1117,E-5,201.0,11/20,65,54.88
1118,F4,201.0,0.5,59,54.88
1119,B-2,201.0,3/10,51,54.88
1120,C3,201.25,3/10,51,54.88
1121,D3,201.5,3/10,51,54.88
1122,F4,201.5,11/20,54,54.88
1123,D5,201.5,11/20,54,54.88
1124,E-3,201.75,3/10,52,54.88
1125,E3,202.0,3/10,53,54.88
1126,E-4,202.0,11/20,54,54.88
1127,C5,202.0,11/20,54,54.88
1128,F3,202.25,3/10,53,54.88
1129,G3,202.5,3/10,54,54.88
1130,D4,202.5,11/20,54,54.88
1131,B-4,202.5,11/20,54,54.88
1132,F3,202.75,3/10,51,54.88
1133,E-3,203.0,3/10,54,54.88
1134,C4,203.0,11/20,54,54.88
1135,A4,203.0,11/20,54,54.88
1136,D3,203.25,3/10,53,54.88
1137,C3,203.5,3/10,52,54.88
1138,D4,203.5,0.5,54,54.88
1139,B-4,203.5,0.5,54,54.88
1140,B-2,203.75,0.25,51,54.88
1141,F4,204.0,0.25,70,54.88
1142,A2,204.0,3/10,56,54.88
1143,B-2,204.0,1/20,51,54.88
1144,B-2,204.25,3/10,50,54.88
1145,B4,204.5,0.5,59,54.88
1146,A2,204.5,3/10,50,54.88
1147,G2,204.75,0.25,50,54.88
1148,C5,205.0,0.5,59,54.88
1149,E-4,205.0,1.5,78,54.88
1150,F2,205.0,0.25,50,54.88
1151,G2,205.25,3/10,52,54.88
1152,F#4,205.5,0.5,59,54.88
1153,A2,205.5,3/10,48,54.88
1154,B-2,205.75,3/10,48,54.88
1155,F4,206.0,1.0,59,54.88
1156,A2,206.0,3/10,48,54.88
1157,B-2,206.25,3/10,48,54.88
1158,D4,206.5,0.5,59,54.88
1159,C3,206.5,3/10,48,54.88
1160,D3,206.75,0.25,48,54.88
1161,G#5,207.0,0.25,77,54.88
1162,E-3,207.0,3/10,51,54.88
1163,F3,207.25,3/10,51,54.88
1164,B-4,207.5,0.5,59,54.88
1165,G3,207.5,3/10,51,54.88
1166,E-3,207.75,3/10,52,54.88
1167,E5,208.0,0.5,59,54.88
1168,G5,208.0,1.5,85,54.88
1169,C#3,208.0,3/10,53,54.88
1170,D3,208.25,3/10,53,54.88
1171,B-4,208.5,1.5,59,54.88
1172,E3,208.5,3/10,54,54.88
1173,C#3,208.75,3/10,51,54.88
1174,D3,209.0,0.25,54,54.88
1175,F3,209.25,0.25,53,54.88
1176,F5,209.5,0.5,59,54.88
1177,B-3,209.5,0.25,52,54.88
1178,D4,209.75,0.25,51,54.88
1179,C5,210.0,0.25,77,54.88
1180,F#3,210.0,3/10,56,54.88
1181,G3,210.25,3/10,50,54.88
1182,E-5,210.5,0.5,59,54.88
1183,A3,210.5,3/10,50,54.88
1184,G3,210.75,0.25,50,54.88
1185,G5,211.0,0.5,59,54.88
1186,B-4,211.0,1.5,85,54.88
1187,E-3,211.0,0.25,50,54.88
1188,E3,211.25,3/10,52,54.88
1189,C#5,211.5,0.5,59,54.88
1190,F3,211.5,3/10,48,54.88
1191,E3,211.75,3/10,48,54.88
1192,C5,212.0,1.0,59,54.88
1193,F3,212.0,0.25,48,54.88
1194,A3,212.25,0.25,48,54.88
1195,A4,212.5,0.5,59,54.88
1196,C4,212.5,0.25,48,54.88
1197,F4,212.75,0.25,48,54.88
1198,F6,213.0,0.25,83,54.88
1199,B3,213.0,3/10,51,54.88
1200,C4,213.25,3/10,51,54.88
1201,A5,213.5,0.5,67,54.88
1202,D4,213.5,3/10,51,54.88
1203,C4,213.75,3/10,52,54.88
1204,C6,214.0,0.5,67,54.88
1205,E-6,214.0,1.5,89,54.88
1206,G#3,214.0,3/10,53,54.88
1207,A3,214.25,3/10,53,54.88
1208,F#5,214.5,0.5,67,54.88
1209,B-3,214.5,3/10,54,54.88
1210,A3,214.75,3/10,51,54.88
1211,F5,215.0,1.0,67,54.88
1212,B-3,215.0,3/10,54,54.88
1213,A3,215.25,3/10,53,54.88
1214,D6,215.5,0.5,71,54.88
1215,G3,215.5,3/10,52,54.88
1216,F3,215.75,0.25,51,54.88
1217,G#6,216.0,0.25,92,54.88
1218,E-3,216.0,3/10,51,54.88
1219,F3,216.0,1/20,51,54.88
1220,F3,216.25,3/10,51,54.88
1221,B-5,216.5,0.5,67,54.88
1222,G3,216.5,3/10,51,54.88
1223,E-3,216.75,3/10,52,54.88
1224,E6,217.0,0.5,67,54.88
1225,G6,217.0,1.5,102,54.88
1226,D3,217.0,3/10,53,54.88
1227,C#3,217.25,3/10,53,54.88
1228,B-5,217.5,1.0,67,54.88
1229,C3,217.5,3/10,54,54.88
1230,C#3,217.75,3/10,51,54.88
1231,D3,218.0,3/10,54,54.88
1232,E3,218.25,3/10,53,54.88
1233,D6,218.5,0.5,67,54.88
1234,F6,218.5,0.5,77,54.88
1235,F3,218.5,3/10,52,54.88
1236,F#3,218.75,0.25,51,54.88
1237,B5,219.0,0.5,67,54.88
1238,F6,219.0,0.5,77,54.88
1239,G3,219.0,3/10,51,54.88
1240,F#3,219.0,1/20,51,54.88
1241,A3,219.25,3/10,51,54.88
1242,G5,219.5,0.5,67,54.88
1243,F6,219.5,1.0,77,54.88
1244,B-3,219.5,3/10,51,54.88
1245,B3,219.75,3/10,52,54.88
1246,C6,220.0,0.5,67,54.88
1247,C3,220.0,0.25,53,54.88
1248,E3,220.25,0.25,53,54.88
1249,G3,220.5,0.25,54,54.88
1250,G5,220.5,0.5,70,54.88
1251,E6,220.5,0.5,70,54.88
1252,C4,220.75,0.25,51,54.88
1253,C6,221.0,0.5,67,54.88
1254,E-6,221.0,1.0,77,54.88
1255,F3,221.0,3/10,54,54.88
1256,G3,221.25,3/10,53,54.88
1257,F5,221.5,0.5,67,54.88
1258,G#3,221.5,3/10,52,54.88
1259,A3,221.75,0.25,51,54.88
1260,F5,222.0,0.5,67,54.88
1261,E-6,222.0,0.5,77,54.88
1262,B-2,222.0,0.25,51,54.88
1263,A3,222.0,1/20,51,54.88
1264,D3,222.25,0.25,51,54.88
1265,F3,222.5,0.25,51,54.88
1266,B-5,222.5,0.5,72,54.88
1267,D6,222.5,0.5,72,54.88
1268,B-3,222.75,0.25,52,54.88
1269,E3,223.0,0.25,53,54.88
1270,B-5,223.0,0.5,72,54.88
1271,C#6,223.0,0.5,72,54.88
1272,G3,223.25,0.25,53,54.88
1273,B-4,223.5,0.5,67,54.88
1274,C#5,223.5,0.75,77,54.88
1275,B-3,223.5,0.25,54,54.88
1276,E4,223.75,0.25,51,54.88
1277,B-3,224.0,0.5,67,54.88
1278,G3,224.0,0.25,54,54.88
1279,G5,224.25,0.25,68,54.88
1280,E3,224.25,0.25,53,54.88
1281,B-5,224.5,0.25,71,54.88
1282,G3,224.5,0.25,52,54.88
1283,C#6,224.75,0.25,73,54.88
1284,E3,224.75,0.25,51,54.88
1285,E5,225.0,167/1000,76,54.88
1286,C#6,225.0,0.5,76,54.88
1287,F5,225.167,167/1000,64,54.88
1288,E5,225.333,167/1000,76,54.88
1289,F5,225.5,167/1000,64,54.88
1290,C6,225.5,0.25,69,54.88
1291,E5,225.667,167/1000,76,54.88
1292,B-5,225.75,0.25,69,54.88
1293,F5,225.833,167/1000,64,54.88
1294,E5,226.0,167/1000,76,54.88
1295,A5,226.0,0.25,72,54.88
1296,F5,226.167,167/1000,64,54.88
1297,B-5,226.25,0.25,67,54.88
1298,E5,226.333,167/1000,76,54.88
1299,F5,226.5,0.125,64,54.88
1300,C6,226.5,0.25,67,54.88
1301,E5,226.625,0.125,57,54.88
1302,D5,226.75,0.125,57,54.88
1303,B-5,226.75,0.25,67,54.88
1304,E5,226.875,0.125,57,54.88
1305,F5,227.0,1.0,73,54.88
1306,A5,227.0,0.25,73,54.88
1307,F2,227.0,0.5,67,54.88
1308,G5,227.25,0.25,67,54.88
1309,A5,227.5,0.25,67,54.88
1310,B-5,227.75,0.25,67,54.88
1311,C6,228.0,0.25,77,54.88
1312,A3,228.0,167/1000,70,54.88
1313,B-3,228.167,167/1000,64,54.88
1314,B-5,228.25,0.25,71,54.88
1315,A3,228.333,167/1000,70,54.88
1316,A5,228.5,0.25,70,54.88
1317,B-3,228.5,167/1000,62,54.88
1318,A3,228.667,167/1000,70,54.88
1319,G5,228.75,0.25,69,54.88
1320,B-3,228.833,167/1000,62,54.88
1321,F5,229.0,0.25,68,54.88
1322,A3,229.0,167/1000,68,54.88
1323,B-3,229.167,167/1000,59,54.88
1324,G5,229.25,0.25,69,54.88
1325,A3,229.333,167/1000,68,54.88
1326,F5,229.5,0.25,69,54.88
1327,B-3,229.5,0.125,61,54.88
1328,A3,229.625,0.125,68,54.88
1329,E-5,229.75,0.25,69,54.88
1330,G3,229.75,0.125,63,54.88
1331,A3,229.875,0.125,63,54.88
1332,D4,230.0,0.5,67,54.88
1333,D5,230.0,0.25,73,54.88
1334,B-3,230.0,1.0,63,54.88
1335,C#6,230.25,0.25,82,54.88
1336,D6,230.5,0.25,85,54.88
1337,C#6,230.75,0.25,81,54.88
1338,F#5,231.0,167/1000,76,54.88
1339,E-6,231.0,0.5,76,54.88
1340,G5,231.167,167/1000,64,54.88
1341,F#5,231.333,167/1000,76,54.88
1342,G5,231.5,167/1000,64,54.88
1343,D6,231.5,0.25,69,54.88
1344,F#5,231.667,167/1000,76,54.88
1345,C6,231.75,0.25,69,54.88
1346,G5,231.833,167/1000,64,54.88
1347,F#5,232.0,167/1000,76,54.88
1348,B5,232.0,0.25,72,54.88
1349,G5,232.167,167/1000,64,54.88
1350,C6,232.25,0.25,67,54.88
1351,F#5,232.333,167/1000,76,54.88
1352,G5,232.5,0.125,64,54.88
1353,D6,232.5,0.25,67,54.88
1354,F#5,232.625,0.125,57,54.88
1355,E-5,232.75,0.125,57,54.88
1356,C6,232.75,0.25,67,54.88
1357,F#5,232.875,0.125,57,54.88
1358,G5,233.0,1.0,73,54.88
1359,B5,233.0,0.25,73,54.88
1360,G2,233.0,0.5,67,54.88
1361,A5,233.25,0.25,67,54.88
1362,B5,233.5,0.25,67,54.88
1363,C6,233.75,0.25,67,54.88
1364,D6,234.0,0.25,77,54.88
1365,B3,234.0,167/1000,70,54.88
1366,C4,234.167,167/1000,64,54.88
1367,C6,234.25,0.25,71,54.88
1368,B3,234.333,167/1000,70,54.88
1369,B5,234.5,0.25,70,54.88
1370,C4,234.5,167/1000,62,54.88
1371,B3,234.667,167/1000,70,54.88
1372,G#5,234.75,0.25,69,54.88
1373,C4,234.833,167/1000,62,54.88
1374,G5,235.0,0.25,68,54.88
1375,B3,235.0,167/1000,68,54.88
1376,C4,235.167,167/1000,59,54.88
1377,G#5,235.25,0.25,69,54.88
1378,B3,235.333,167/1000,68,54.88
1379,G5,235.5,0.25,69,54.88
1380,C4,235.5,0.125,61,54.88
1381,B3,235.625,0.125,68,54.88
1382,F5,235.75,0.25,69,54.88
1383,A3,235.75,0.125,63,54.88
1384,B3,235.875,0.125,63,54.88
1385,E-5,236.0,0.5,65,54.88
1386,G4,236.0,0.25,65,54.88
1387,C4,236.0,0.5,63,54.88
1388,B4,236.25,0.25,66,54.88
1389,C5,236.5,0.25,68,54.88
1390,G#2,236.5,0.5,63,54.88
1391,C#5,236.75,0.25,71,54.88
1392,E-5,237.0,0.25,74,54.88
1393,C4,237.0,167/1000,70,54.88
1394,C#4,237.167,167/1000,64,54.88
1395,C#5,237.25,0.25,74,54.88
1396,C4,237.333,167/1000,70,54.88
1397,C5,237.5,0.25,72,54.88
1398,C#4,237.5,167/1000,62,54.88
1399,C4,237.667,167/1000,70,54.88
1400,B-4,237.75,0.25,70,54.88
1401,C#4,237.833,167/1000,62,54.88
1402,G#4,238.0,0.25,78,54.88
1403,C4,238.0,167/1000,68,54.88
1404,C#4,238.167,167/1000,59,54.88
1405,B-4,238.25,0.25,75,54.88
1406,C4,238.333,167/1000,68,54.88
1407,G#4,238.5,0.25,73,54.88
1408,C#4,238.5,0.125,61,54.88
1409,C4,238.625,0.125,68,54.88
1410,F#4,238.75,0.25,70,54.88
1411,B-3,238.75,0.125,63,54.88
1412,C4,238.875,0.125,63,54.88
1413,F4,239.0,1.0,76,54.88
1414,C#4,239.0,1.0,63,54.88
1415,C#5,239.5,0.25,70,54.88
1416,E-5,239.75,0.25,70,54.88
1417,F5,240.0,0.25,76,54.88
1418,F#5,240.25,0.25,74,54.88
1419,F5,240.5,0.25,71,54.88
1420,C#4,240.5,0.25,61,54.88
1421,E-5,240.75,0.25,71,54.88
1422,C4,240.75,0.25,61,54.88
1423,C#5,241.0,0.25,72,54.88
1424,B-3,241.0,0.25,67,54.88
1425,C5,241.25,0.25,71,54.88
1426,G#3,241.25,0.25,61,54.88
1427,B-4,241.5,0.25,69,54.88
1428,F#3,241.5,0.25,61,54.88
1429,G#4,241.75,0.25,68,54.88
1430,F3,241.75,0.25,61,54.88
1431,C#5,242.0,1.0,79,54.88
1432,C#4,242.0,0.25,79,54.88
1433,B-3,242.0,1.0,69,54.88
1434,E-4,242.25,0.25,69,54.88
1435,E4,242.5,0.25,69,54.88
1436,F4,242.75,0.25,69,54.88
1437,F#4,243.0,1.0,74,54.88
1438,C#5,243.0,0.25,79,54.88
1439,E-5,243.25,0.25,74,54.88
1440,C#5,243.5,0.25,69,54.88
1441,B-3,243.5,0.25,63,54.88
1442,C5,243.75,0.25,69,54.88
1443,G#3,243.75,0.25,61,54.88
1444,B-4,244.0,0.25,68,54.88
1445,F#3,244.0,0.25,57,54.88
1446,G#4,244.25,0.25,67,54.88
1447,F3,244.25,0.25,58,54.88
1448,F#4,244.5,0.25,66,54.88
1449,E-3,244.5,0.25,58,54.88
1450,F4,244.75,0.25,66,54.88
1451,C#3,244.75,0.25,58,54.88
1452,B-4,245.0,1.0,74,54.88
1453,B-3,245.0,0.25,74,54.88
1454,F#3,245.0,1.0,64,54.88
1455,C4,245.25,0.25,68,54.88
1456,C#4,245.5,0.25,69,54.88
1457,D4,245.75,0.25,70,54.88
1458,E-4,246.0,0.25,71,54.88
1459,B-4,246.0,0.75,74,54.88
1460,D4,246.25,0.25,67,54.88
1461,E-4,246.5,0.25,67,54.88
1462,F#3,246.5,0.25,61,54.88
1463,F4,246.75,0.25,67,54.88
1464,F3,246.75,0.25,56,54.88
1465,F#4,247.0,0.5,74,54.88
1466,E-3,247.0,0.25,61,54.88
1467,F3,247.25,0.25,57,54.88
1468,E-3,247.5,0.25,57,54.88
1469,G4,247.5,0.5,75,54.88
1470,B-4,247.5,0.5,75,54.88
1471,C#3,247.75,0.25,57,54.88
1472,C3,248.0,0.25,61,54.88
1473,G#4,248.0,0.5,77,54.88
1474,C5,248.0,0.5,77,54.88
1475,C#3,248.25,0.25,55,54.88
1476,C#5,248.5,0.5,83,54.88
1477,C3,248.5,0.25,55,54.88
1478,B-2,248.75,0.25,55,54.88
1479,G#2,249.0,0.25,61,54.88
1480,F#4,249.0,1.5,84,54.88
1481,E-5,249.0,1.5,84,54.88
1482,B-2,249.25,0.25,55,54.88
1483,C3,249.5,0.25,56,54.88
1484,C#3,249.75,0.25,57,54.88
1485,D3,250.0,0.25,62,54.88
1486,E-3,250.25,0.25,57,54.88
1487,F3,250.5,0.25,57,54.88
1488,F#4,250.5,0.5,75,54.88
1489,E-5,250.5,0.5,75,54.88
1490,E-3,250.75,0.25,57,54.88
1491,C#3,251.0,0.25,57,54.88
1492,F#4,251.0,0.5,80,54.88
1493,E-5,251.0,0.5,80,54.88
1494,E-3,251.25,0.25,57,54.88
1495,F3,251.5,0.25,59,54.88
1496,F4,251.5,0.5,75,54.88
1497,C#5,251.5,0.5,75,54.88
1498,F#3,251.75,0.25,59,54.88
1499,G3,252.0,0.25,61,54.88
1500,E-4,252.0,0.5,78,54.88
1501,C5,252.0,0.5,78,54.88
1502,G#3,252.25,0.25,62,54.88
1503,B-3,252.5,0.25,66,54.88
1504,C#4,252.5,0.5,75,54.88
1505,C#5,252.5,0.5,75,54.88
1506,G#3,252.75,0.25,62,54.88
1507,F#3,253.0,0.25,61,54.88
1508,C4,253.0,0.5,70,54.88
1509,E-4,253.0,0.5,70,54.88
1510,F3,253.25,0.25,62,54.88
1511,F4,253.5,0.25,67,54.88
1512,C#4,253.5,0.5,67,54.88
1513,E-3,253.5,0.25,60,54.88
1514,F#4,253.75,0.25,68,54.88
1515,C#3,253.75,0.25,58,54.88
1516,G#4,254.0,0.25,70,54.88
1517,C4,254.0,0.5,70,54.88
1518,G#2,254.0,0.5,70,54.88
1519,B-4,254.25,0.25,71,54.88
1520,C5,254.5,0.25,72,54.88
1521,E-4,254.5,0.5,72,54.88
1522,C#5,254.75,0.25,74,54.88
1523,D5,255.0,0.25,75,54.88
1524,E-3,255.0,1.5,80,54.88
1525,F#2,255.0,1.5,80,54.88
1526,E-5,255.25,0.25,77,54.88
1527,F5,255.5,0.25,79,54.88
1528,E-5,255.75,0.25,76,54.88
1529,C#5,256.0,0.25,74,54.88
1530,C5,256.25,0.25,73,54.88
1531,B-4,256.5,0.25,72,54.88
1532,F#2,256.5,0.5,70,54.88
1533,E-3,256.5,0.5,70,54.88
1534,G#4,256.75,0.25,71,54.88
1535,C#5,257.0,0.25,72,54.88
1536,E-3,257.0,0.5,75,54.88
1537,F#2,257.0,0.5,75,54.88
1538,E-5,257.25,0.25,73,54.88
1539,F5,257.5,0.25,75,54.88
1540,F2,257.5,0.5,70,54.88
1541,C#3,257.5,0.5,70,54.88
1542,F#5,257.75,0.25,77,54.88
1543,G5,258.0,0.25,78,54.88
1544,E-2,258.0,0.5,75,54.88
1545,C3,258.0,0.5,75,54.88
1546,G#5,258.25,0.25,76,54.88
1547,B-5,258.5,0.25,81,54.88
1548,C#3,258.5,0.5,72,54.88
1549,C#2,258.5,0.5,72,54.88
1550,G#5,258.75,0.25,73,54.88
1551,F#5,259.0,0.25,79,54.88
1552,C3,259.0,0.5,75,54.88
1553,E-3,259.0,0.5,75,54.88
1554,F5,259.25,0.25,78,54.88
1555,E-5,259.5,0.25,76,54.88
1556,F3,259.5,0.5,68,54.88
1557,C#3,259.5,0.5,68,54.88
1558,C#5,259.75,0.25,75,54.88
1559,C4,260.0,0.25,70,54.88
1560,G#4,260.0,0.5,80,54.88
1561,C#4,260.25,0.25,63,54.88
1562,C4,260.5,0.25,63,54.88
1563,B-3,260.75,0.25,65,54.88
1564,F#4,261.0,1.5,80,54.88
1565,G#3,261.0,0.25,68,54.88
1566,B-3,261.25,0.25,58,54.88
1567,C4,261.5,0.25,58,54.88
1568,C#4,261.75,0.25,58,54.88
1569,D4,262.0,0.25,64,54.88
1570,E-4,262.25,0.25,58,54.88
1571,F4,262.5,0.5,80,54.88
1572,C4,262.5,0.25,58,54.88
1573,C#4,262.75,0.25,58,54.88
1574,B-4,263.0,1.0,80,54.88
1575,E4,263.0,0.25,64,54.88
1576,C#2,263.0,0.5,68,54.88
1577,C#3,263.0,0.5,68,54.88
1578,F4,263.25,0.25,58,54.88
1579,F#4,263.5,0.25,58,54.88
1580,F4,263.75,0.25,58,54.88
1581,D4,264.0,0.25,68,54.88
1582,C2,264.0,1.5,75,54.88
1583,C3,264.0,1.5,75,54.88
1584,E-4,264.25,0.25,57,54.88
1585,G4,264.5,0.25,57,54.88
1586,G#4,264.75,0.25,57,54.88
1587,F#4,265.0,0.25,65,54.88
1588,G4,265.25,0.25,58,54.88
1589,G#4,265.5,0.25,58,54.88
1590,B-2,265.5,0.5,68,54.88
1591,B-1,265.5,0.5,68,54.88
1592,G4,265.75,0.25,58,54.88
1593,C#5,266.0,0.5,70,54.88
1594,A4,266.0,0.25,66,54.88
1595,E-3,266.0,1.0,76,54.88
1596,E-2,266.0,1.0,76,54.88
1597,B-4,266.25,0.25,61,54.88
1598,C5,266.5,0.25,70,54.88
1599,B-4,266.75,0.25,61,54.88
1600,C5,267.0,1.5,80,54.88
1601,G4,267.0,0.25,68,54.88
1602,G#4,267.25,0.25,60,54.88
1603,B-4,267.5,0.25,60,54.88
1604,G#4,267.75,0.25,60,54.88
1605,F#4,268.0,0.25,66,54.88
1606,G4,268.25,0.25,61,54.88
1607,B-4,268.5,0.5,80,54.88
1608,G#4,268.5,0.25,61,54.88
1609,G4,268.75,0.25,61,54.88
1610,E-5,269.0,1.0,80,54.88
1611,A4,269.0,0.25,68,54.88
1612,G2,269.0,0.5,68,54.88
1613,G3,269.0,0.5,68,54.88
1614,B-4,269.25,0.25,62,54.88
1615,C5,269.5,0.25,62,54.88
1616,B-4,269.75,0.25,62,54.88
1617,G#4,270.0,0.25,68,54.88
1618,F2,270.0,1.5,75,54.88
1619,F3,270.0,1.5,75,54.88
1620,B-4,270.25,0.25,61,54.88
1621,C5,270.5,0.25,61,54.88
1622,C#5,270.75,0.25,61,54.88
1623,C5,271.0,0.25,68,54.88
1624,C#5,271.25,0.25,63,54.88
1625,B4,271.5,0.25,63,54.88
1626,E-3,271.5,0.5,68,54.88
1627,E-2,271.5,0.5,68,54.88
1628,C5,271.75,0.25,63,54.88
1629,F5,272.0,0.5,80,54.88
1630,B4,272.0,0.25,68,54.88
1631,G#3,272.0,1.0,75,54.88
1632,G#2,272.0,1.0,75,54.88
1633,C5,272.25,0.25,62,54.88
1634,C#5,272.5,0.25,62,54.88
1635,C5,272.75,0.25,62,54.88
1636,F5,273.0,0.25,74,54.88
1637,A4,273.0,0.25,74,54.88
1638,B-4,273.25,0.25,63,54.88
1639,E-5,273.5,0.25,72,54.88
1640,C5,273.5,0.25,72,54.88
1641,B-4,273.75,0.25,63,54.88
1642,D4,274.0,0.25,68,54.88
1643,G3,274.0,0.5,68,54.88
1644,G2,274.0,0.5,68,54.88
1645,E-4,274.25,0.25,63,54.88
1646,F4,274.5,0.25,63,54.88
1647,E-4,274.75,0.25,63,54.88
1648,C#5,275.0,0.5,80,54.88
1649,G4,275.0,0.25,68,54.88
1650,G2,275.0,0.5,74,54.88
1651,G3,275.0,0.5,74,54.88
1652,G#4,275.25,0.25,61,54.88
1653,B-4,275.5,0.25,61,54.88
1654,F2,275.5,0.5,72,54.88
1655,F3,275.5,0.5,72,54.88
1656,G#4,275.75,0.25,61,54.88
1657,C#5,276.0,0.5,80,54.88
1658,G4,276.0,0.25,68,54.88
1659,G#4,276.25,0.25,63,54.88
1660,C5,276.5,0.5,80,54.88
1661,B-4,276.5,0.25,63,54.88
1662,G#4,276.75,0.25,63,54.88
1663,G4,277.0,0.25,68,54.88
1664,E-4,277.0,0.5,68,54.88
1665,E-3,277.0,0.5,68,54.88
1666,G#4,277.25,0.25,62,54.88
1667,C#5,277.5,0.25,71,54.88
1668,B-4,277.5,0.25,71,54.88
1669,B4,277.75,0.25,62,54.88
1670,G6,278.0,167/1000,75,54.88
1671,C5,278.0,0.25,68,54.88
1672,E-4,278.0,0.5,68,54.88
1673,G#6,278.167,167/1000,60,54.88
1674,B-4,278.25,0.25,68,54.88
1675,G6,278.333,0.156,68,54.88
1676,G#6,278.5,167/1000,60,54.88
1677,A4,278.5,0.25,61,54.88
1678,C#4,278.5,479/1000,60,54.88
1679,G6,278.667,167/1000,75,54.88
1680,B-4,278.75,229/1000,61,54.88
1681,G#6,278.833,167/1000,60,54.88
1682,G6,279.0,167/1000,75,54.88
1683,B-4,279.0,0.25,68,54.88
1684,C#4,279.0,0.5,68,54.88
1685,G#6,279.167,167/1000,60,54.88
1686,G#4,279.25,0.25,58,54.88
1687,G6,279.333,167/1000,75,54.88
1688,G#6,279.5,0.125,60,54.88
1689,E-4,279.5,0.25,65,54.88
1690,C4,279.5,0.5,59,54.88
1691,G6,279.625,0.125,75,54.88
1692,F6,279.75,0.125,60,54.88
1693,G#4,279.75,0.25,60,54.88
1694,G6,279.875,0.125,60,54.88
1695,G#6,280.0,1.0,75,54.88
1696,C3,280.5,0.25,66,54.88
1697,C4,281.0,1.0,74,54.88
1698,G4,281.5,0.25,66,54.88
1699,G#6,281.5,0.25,66,54.88
1700,G6,281.75,0.25,62,54.88
1701,G#4,282.0,1.0,74,54.88
1702,F6,282.0,0.25,69,54.88
1703,E-6,282.25,0.25,60,54.88
1704,C#6,282.5,0.25,60,54.88
1705,C6,282.75,0.25,60,54.88
1706,F6,283.0,1.0,68,54.88
1707,G#2,283.5,0.25,66,54.88
1708,G#3,284.0,1.0,74,54.88
1709,E4,284.5,0.25,66,54.88
1710,F6,284.5,0.25,66,54.88
1711,E-6,284.75,0.25,62,54.88
1712,F4,285.0,1.0,74,54.88
1713,C#6,285.0,0.25,69,54.88
1714,C6,285.25,0.25,60,54.88
1715,B-5,285.5,0.25,60,54.88
1716,G#5,285.75,0.25,60,54.88
1717,C#6,286.0,1.0,68,54.88
1718,F2,286.5,0.25,59,54.88
1719,F3,287.0,0.25,66,54.88
1720,E-5,287.5,0.5,72,54.88
1721,C#6,287.5,0.25,67,54.88
1722,A3,287.5,0.25,58,54.88
1723,C6,287.75,0.25,60,54.88
1724,C#5,288.0,0.5,80,54.88
1725,B-5,288.0,0.25,67,54.88
1726,B-3,288.0,0.5,68,54.88
1727,C6,288.25,0.25,61,54.88
1728,B-4,288.5,0.5,68,54.88
1729,B-5,288.5,0.25,61,54.88
1730,D4,288.5,0.5,57,54.88
1731,G#5,288.75,0.25,61,54.88
1732,B-4,289.0,0.5,68,54.88
1733,G5,289.0,0.25,67,54.88
1734,E-4,289.0,0.5,62,54.88
1735,G#5,289.25,0.25,62,54.88
1736,G5,289.5,0.25,62,54.88
1737,F5,289.75,0.25,62,54.88
1738,E-5,290.0,0.25,62,54.88
1739,B-3,290.0,1.0,70,54.88
1740,C#4,290.0,1.0,70,54.88
1741,F5,290.25,0.25,61,54.88
1742,G5,290.5,0.25,63,54.88
1743,G#5,290.75,0.25,64,54.88
1744,A5,291.0,0.25,66,54.88
1745,B-3,291.0,62/125,70,54.88
1746,C#4,291.0,62/125,70,54.88
1747,B-5,291.25,0.25,68,54.88
1748,C6,291.5,0.25,69,54.88
1749,C#4,291.5,62/125,66,54.88
1750,B-3,291.5,62/125,66,54.88
1751,B-5,291.75,0.25,67,54.88
1752,G#5,292.0,0.25,69,54.88
1753,B-3,292.0,0.5,68,54.88
1754,C#4,292.0,0.5,68,54.88
1755,B-5,292.25,0.25,64,54.88
1756,C6,292.5,0.25,68,54.88
1757,C4,292.5,0.5,65,54.88
1758,G#3,292.5,0.5,65,54.88
1759,C#6,292.75,0.25,69,54.88
1760,D6,293.0,0.25,72,54.88
1761,C#3,293.0,0.5,67,54.88
1762,B-3,293.0,0.5,67,54.88
1763,E-6,293.25,0.25,73,54.88
1764,F6,293.5,0.25,75,54.88
1765,G#3,293.5,0.5,60,54.88
1766,C3,293.5,0.5,60,54.88
1767,E-6,293.75,0.25,71,54.88
1768,C#6,294.0,0.25,74,54.88
1769,G3,294.0,0.5,69,54.88
1770,B-2,294.0,0.5,69,54.88
1771,C6,294.25,0.25,73,54.88
1772,B-5,294.5,0.25,71,54.88
1773,G#3,294.5,0.5,65,54.88
1774,C3,294.5,0.5,65,54.88
1775,G#5,294.75,0.25,70,54.88
1776,G2,295.0,3/10,60,54.88
1777,C#5,295.0,0.5,78,54.88
1778,B-5,295.0,0.5,78,54.88
1779,G#2,295.25,3/10,55,54.88
1780,G2,295.5,3/10,55,54.88
1781,F2,295.75,3/10,55,54.88
1782,E-2,296.0,3/10,55,54.88
1783,C#5,296.0,1.0,76,54.88
1784,B-4,296.0,1.0,76,54.88
1785,F2,296.25,3/10,54,54.88
1786,G2,296.5,3/10,56,54.88
1787,G#2,296.75,0.25,57,54.88
1788,A2,297.0,0.25,59,54.88
1789,C#5,297.0,0.5,76,54.88
1790,B-4,297.0,0.5,76,54.88
1791,B-2,297.25,3/10,61,54.88
1792,C3,297.5,3/10,62,54.88
1793,C#5,297.5,62/125,72,54.88
1794,F4,297.5,62/125,72,54.88
1795,B-2,297.75,3/10,60,54.88
1796,G2,298.0,3/10,62,54.88
1797,C#5,298.0,11/20,74,54.88
1798,F4,298.0,11/20,74,54.88
1799,G#2,298.25,3/10,57,54.88
1800,B-2,298.5,3/10,61,54.88
1801,C5,298.5,11/20,71,54.88
1802,E-4,298.5,11/20,71,54.88
1803,C3,298.75,3/10,62,54.88
1804,C#3,299.0,3/10,64,54.88
1805,C#4,299.0,11/20,74,54.88
1806,B-4,299.0,11/20,74,54.88
1807,E-3,299.25,3/10,65,54.88
1808,F3,299.5,3/10,67,54.88
1809,C4,299.5,0.5,65,54.88
1810,G#4,299.5,0.5,65,54.88
1811,E-3,299.75,0.25,63,54.88
1812,C#3,300.0,0.25,72,54.88
1813,B-3,300.0,11/20,76,54.88
1814,G4,300.0,11/20,76,54.88
1815,C3,300.25,0.25,71,54.88
1816,B-2,300.5,0.25,69,54.88
1817,C4,300.5,0.5,71,54.88
1818,G#4,300.5,0.5,71,54.88
1819,G#2,300.75,0.25,63,54.88
1820,A4,301.0,0.25,62,54.88
1821,E-4,301.0,0.5,68,54.88
1822,F#3,301.0,0.5,68,54.88
1823,B-4,301.25,0.25,57,54.88
1824,C5,301.5,0.25,61,54.88
1825,C#4,301.5,0.5,65,54.88
1826,F3,301.5,0.5,65,54.88
1827,C#5,301.75,0.25,62,54.88
1828,E-5,302.0,0.25,64,54.88
1829,E-3,302.0,0.5,67,54.88
1830,C4,302.0,0.5,67,54.88
1831,F5,302.25,0.25,65,54.88
1832,F#5,302.5,0.25,67,54.88
1833,C#3,302.5,0.5,60,54.88
1834,B-3,302.5,0.5,60,54.88
1835,F5,302.75,0.25,63,54.88
1836,E-5,303.0,0.25,66,54.88
1837,A3,303.0,0.5,69,54.88
1838,C3,303.0,0.5,69,54.88
1839,C#5,303.25,0.25,65,54.88
1840,C5,303.5,0.25,63,54.88
1841,C#3,303.5,0.5,65,54.88
1842,B-3,303.5,0.5,65,54.88
1843,B-4,303.75,0.25,63,54.88
1844,A2,304.0,3/10,62,54.88
1845,E-5,304.0,11/20,74,54.88
1846,F#4,304.0,11/20,74,54.88
1847,B-2,304.25,3/10,57,54.88
1848,C3,304.5,3/10,61,54.88
1849,C#5,304.5,11/20,71,54.88
1850,F4,304.5,11/20,71,54.88
1851,C#3,304.75,3/10,62,54.88
1852,E-3,305.0,3/10,64,54.88
1853,E-4,305.0,11/20,74,54.88
1854,C5,305.0,11/20,74,54.88
1855,F3,305.25,3/10,65,54.88
1856,F#3,305.5,3/10,67,54.88
1857,C#4,305.5,0.5,65,54.88
1858,B-4,305.5,0.5,65,54.88
1859,F3,305.75,0.25,63,54.88
1860,E-3,306.0,0.25,72,54.88
1861,C4,306.0,11/20,76,54.88
1862,A4,306.0,11/20,76,54.88
1863,C#3,306.25,0.25,71,54.88
1864,C3,306.5,0.25,69,54.88
1865,C#4,306.5,0.5,71,54.88
1866,B-4,306.5,0.5,71,54.88
1867,B-2,306.75,0.25,63,54.88
1868,D3,307.0,3/10,62,54.88
1869,G#2,307.0,11/20,71,54.88
1870,E-3,307.25,3/10,57,54.88
1871,F3,307.5,3/10,61,54.88
1872,G2,307.5,11/20,68,54.88
1873,G3,307.75,3/10,62,54.88
1874,G#3,308.0,3/10,64,54.88
1875,F2,308.0,11/20,70,54.88
1876,B-3,308.25,3/10,65,54.88
1877,B3,308.5,3/10,67,54.88
1878,E-2,308.5,0.5,62,54.88
1879,B-3,308.75,0.25,63,54.88
1880,G#3,309.0,3/10,66,54.88
1881,B-3,309.0,1/20,63,54.88
1882,D2,309.0,11/20,72,54.88
1883,E-2,309.0,1/20,62,54.88
1884,G3,309.25,3/10,65,54.88
1885,F3,309.5,3/10,63,54.88
1886,E-2,309.5,0.5,68,54.88
1887,E-3,309.75,0.25,63,54.88
1888,E3,310.0,3/10,62,54.88
1889,B-2,310.0,11/20,71,54.88
1890,F3,310.25,3/10,57,54.88
1891,G3,310.5,3/10,61,54.88
1892,G#2,310.5,11/20,68,54.88
1893,G#3,310.75,3/10,62,54.88
1894,B-3,311.0,3/10,64,54.88
1895,G2,311.0,11/20,70,54.88
1896,C4,311.25,3/10,65,54.88
1897,C#4,311.5,3/10,67,54.88
1898,F2,311.5,0.5,62,54.88
1899,C4,311.75,0.25,63,54.88
1900,B-3,312.0,3/10,66,54.88
1901,C4,312.0,1/20,63,54.88
1902,E2,312.0,11/20,72,54.88
1903,F2,312.0,1/20,62,54.88
1904,G#3,312.25,3/10,65,54.88
1905,G3,312.5,3/10,63,54.88
1906,F2,312.5,0.5,68,54.88
1907,F3,312.75,0.25,63,54.88
1908,F3,313.0,3/10,62,54.88
1909,E-5,313.0,11/20,74,54.88
1910,B4,313.0,11/20,74,54.88
1911,F#3,313.25,3/10,57,54.88
1912,G#3,313.5,3/10,61,54.88
1913,C#5,313.5,11/20,71,54.88
1914,B-4,313.5,11/20,71,54.88
1915,B-3,313.75,3/10,62,54.88
1916,B3,314.0,3/10,64,54.88
1917,G#4,314.0,11/20,74,54.88
1918,B4,314.0,11/20,74,54.88
1919,C#4,314.25,3/10,65,54.88
1920,E-4,314.5,3/10,67,54.88
1921,F#4,314.5,0.5,65,54.88
1922,B-4,314.5,0.5,65,54.88
1923,C#4,314.75,0.25,63,54.88
1924,B3,315.0,3/10,72,54.88
1925,C#4,315.0,1/20,63,54.88
1926,F4,315.0,11/20,76,54.88
1927,G#4,315.0,11/20,76,54.88
1928,B-3,315.25,3/10,71,54.88
1929,G#3,315.5,3/10,69,54.88
1930,F#4,315.5,0.5,71,54.88
1931,B-4,315.5,0.5,71,54.88
1932,F#3,315.75,0.25,63,54.88
1933,G2,316.0,3/10,62,54.88
1934,C#6,316.0,11/20,74,54.88
1935,E5,316.0,11/20,74,54.88
1936,G#2,316.25,3/10,57,54.88
1937,B-2,316.5,3/10,61,54.88
1938,B5,316.5,11/20,71,54.88
1939,E-5,316.5,11/20,71,54.88
1940,B2,316.75,3/10,62,54.88
1941,C#3,317.0,3/10,64,54.88
1942,C#5,317.0,11/20,74,54.88
1943,B-5,317.0,11/20,74,54.88
1944,E-3,317.25,3/10,65,54.88
1945,E3,317.5,3/10,67,54.88
1946,B4,317.5,0.5,65,54.88
1947,G#5,317.5,0.5,65,54.88
1948,E-3,317.75,0.25,63,54.88
1949,C#3,318.0,3/10,72,54.88
1950,E-3,318.0,1/20,63,54.88
1951,B-4,318.0,11/20,76,54.88
1952,G5,318.0,11/20,76,54.88
1953,B2,318.25,3/10,71,54.88
1954,B-2,318.5,3/10,69,54.88
1955,B4,318.5,1.0,71,54.88
1956,G#5,318.5,1.0,71,54.88
1957,G#2,318.75,3/10,63,54.88
1958,F#2,319.0,3/10,63,54.88
1959,E2,319.25,3/10,63,54.88
1960,E-2,319.5,3/10,63,54.88
1961,G#5,319.5,1.0,82,54.88
1962,B5,319.5,1.0,82,54.88
1963,D2,319.75,0.25,63,54.88
1964,E-2,320.0,0.25,63,54.88
1965,G2,320.25,0.25,63,54.88
1966,B-2,320.5,0.25,63,54.88
1967,G5,320.5,0.5,86,54.88
1968,B-5,320.5,0.5,86,54.88
1969,E-3,320.75,0.25,63,54.88
1970,G2,321.0,2.0,60,54.88
1971,G3,321.0,167/1000,84,54.88
1972,C#5,321.0,1.5,72,54.88
1973,E5,321.0,1.5,72,54.88
1974,G#3,321.167,167/1000,70,54.88
1975,G3,321.333,167/1000,74,54.88
1976,G#3,321.5,167/1000,67,54.88
1977,G3,321.667,167/1000,73,54.88
1978,G#3,321.833,167/1000,64,54.88
1979,G3,322.0,167/1000,72,54.88
1980,G#3,322.167,167/1000,64,54.88
1981,G3,322.333,167/1000,70,54.88
1982,G#3,322.5,0.125,64,54.88
1983,C#5,322.5,1.0,70,54.88
1984,E5,322.5,1.0,70,54.88
1985,G3,322.625,0.125,75,54.88
1986,F3,322.75,0.125,65,54.88
1987,G3,322.875,0.125,70,54.88
1988,G#2,323.0,1.0,79,54.88
1989,G#3,323.0,1.0,79,54.88
1990,B4,323.5,0.5,57,54.88
1991,E-5,323.5,0.5,57,54.88
1992,B-4,324.0,0.5,62,54.88
1993,C#5,324.0,0.5,62,54.88
1994,G#4,324.5,0.5,61,54.88
1995,B4,324.5,0.5,61,54.88
1996,G4,325.0,0.5,64,54.88
1997,B-4,325.0,0.5,64,54.88
1998,G#2,325.0,1.0,79,54.88
1999,G#3,325.0,1.0,79,54.88
2000,G#4,325.5,0.5,61,54.88
2001,B4,325.5,0.5,61,54.88
2002,B-4,326.0,0.5,62,54.88
2003,C#5,326.0,0.5,62,54.88
2004,E-3,326.0,1.0,64,54.88
2005,E-2,326.0,1.0,64,54.88
2006,B4,326.5,0.5,66,54.88
2007,E-5,326.5,0.5,66,54.88
2008,C#2,327.0,1.0,64,54.88
2009,C#3,327.0,1.0,64,54.88
2010,B4,327.496,62/125,66,54.88
2011,E-5,327.496,62/125,66,54.88
2012,B4,327.996,62/125,64,54.88
2013,E-5,327.996,62/125,64,54.88
2014,F2,328.0,2.0,60,54.88
2015,F3,328.0,167/1000,84,54.88
2016,F#3,328.167,167/1000,70,54.88
2017,F3,328.333,167/1000,74,54.88
2018,E-5,328.496,1.5,78,54.88
2019,B4,328.496,1.5,78,54.88
2020,F#3,328.5,167/1000,67,54.88
2021,F3,328.667,167/1000,73,54.88
2022,F#3,328.833,167/1000,64,54.88
2023,F3,329.0,167/1000,72,54.88
2024,F#3,329.167,167/1000,64,54.88
2025,F3,329.333,167/1000,70,54.88
2026,F#3,329.5,0.125,64,54.88
2027,F3,329.625,0.125,75,54.88
2028,E-3,329.75,0.125,65,54.88
2029,F3,329.875,0.125,70,54.88
2030,C#5,329.996,0.5,64,54.88
2031,B-4,329.996,0.5,64,54.88
2032,F#3,330.0,1.0,79,54.88
2033,F#2,330.0,1.0,79,54.88
2034,C#5,330.496,0.5,64,54.88
2035,B-4,330.496,0.5,64,54.88
2036,G#4,330.996,0.5,61,54.88
2037,B4,330.996,0.5,61,54.88
2038,C#2,331.0,1.0,64,54.88
2039,C#3,331.0,1.0,64,54.88
2040,F#4,331.496,0.5,52,54.88
2041,B-4,331.496,0.5,52,54.88
2042,G#4,331.996,0.5,48,54.88
2043,F4,331.996,0.5,48,54.88
2044,E-2,332.0,1.0,52,54.88
2045,E-3,332.0,1.0,52,54.88
2046,B-4,332.496,0.5,50,54.88
2047,F#4,332.496,0.5,50,54.88
2048,G#4,332.996,0.5,52,54.88
2049,B4,332.996,0.5,52,54.88
2050,B2,333.0,1.0,52,54.88
2051,B1,333.0,1.0,52,54.88
2052,F#4,333.496,0.5,56,54.88
2053,C#5,333.496,0.5,56,54.88
2054,F#4,333.996,0.5,51,54.88
2055,E-5,333.996,1.0,60,54.88
2056,F4,334.496,0.5,54,54.88
2057,B2,334.5,0.5,52,54.88
2058,B1,334.5,0.5,52,54.88
2059,F#4,334.996,0.5,45,54.88
2060,C#5,334.996,1.0,54,54.88
2061,B-2,335.0,0.5,42,54.88
2062,B-1,335.0,0.5,42,54.88
2063,G#4,335.496,0.25,40,54.88
2064,G#2,335.5,0.5,42,54.88
2065,G#1,335.5,0.5,42,54.88
2066,F#4,335.746,0.25,53,54.88
2067,F4,335.996,0.25,40,54.88
2068,C#5,335.996,0.5,48,54.88
2069,B-2,336.0,0.5,42,54.88
2070,B-1,336.0,0.5,42,54.88
2071,G#4,336.246,0.25,48,54.88
2072,F#4,336.496,0.5,46,54.88
2073,B-4,336.496,0.25,39,54.88
2074,B1,336.5,0.5,42,54.88
2075,B2,336.5,0.5,42,54.88
2076,B-3,336.746,0.25,46,54.88
2077,C#4,336.996,0.25,40,54.88
2078,C#3,337.0,0.5,42,54.88
2079,C#2,337.0,0.5,42,54.88
2080,F#4,337.246,0.25,40,54.88
2081,B-4,337.496,0.25,52,54.88
2082,F#1,337.5,1.0,39,54.88
2083,F#2,337.5,1.0,39,54.88
2084,F#4,337.746,0.25,40,54.88
2085,F4,337.996,0.25,47,54.88
2086,B4,337.996,0.25,47,54.88
2087,E-4,338.246,0.25,40,54.88
2088,F4,338.496,0.5,49,54.88
2089,C#5,338.496,0.5,49,54.88
2090,F#4,338.996,0.25,40,54.88
2091,G#4,339.246,0.25,40,54.88
2092,B-4,339.496,1.0,50,54.88
2093,C#3,339.75,0.25,35,54.88
2094,E-3,340.0,0.25,35,54.88
2095,F3,340.25,0.25,35,54.88
2096,F#3,340.5,0.25,40,54.88
2097,F#5,340.746,0.25,58,54.88
2098,B-2,340.75,0.25,35,54.88
2099,F5,340.996,0.25,54,54.88
2100,C#3,341.0,0.25,35,54.88
2101,E-5,341.246,0.25,58,54.88
2102,F#3,341.25,0.25,35,54.88
2103,F5,341.496,0.5,65,54.88
2104,B-3,341.5,0.25,51,54.88
2105,F#5,341.996,0.25,62,54.88
2106,B3,342.0,0.25,54,54.88
2107,G#5,342.246,0.25,68,54.88
2108,F5,342.496,0.25,67,54.88
2109,G#5,342.496,1.25,68,54.88
2110,C#4,342.5,1.0,56,54.88
2111,F4,342.746,0.25,56,54.88
2112,G#4,342.996,0.25,60,54.88
2113,C#5,343.246,0.25,64,54.88
2114,F5,343.496,0.5,70,54.88
2115,F6,343.746,0.25,72,54.88
2116,F#5,343.996,0.5,75,54.88
2117,E-6,343.996,0.25,75,54.88
2118,C#6,344.246,0.25,71,54.88
2119,G#5,344.496,1.0,59,54.88
2120,C6,344.496,0.5,75,54.88
2121,C#6,344.996,0.25,70,54.88
2122,E-6,345.246,0.25,70,54.88
2123,G#5,345.496,1.0,66,54.88
2124,F5,345.496,1.25,57,54.88
2125,G#3,345.75,0.25,44,54.88
2126,B-3,346.0,0.25,46,54.88
2127,C4,346.25,0.25,48,54.88
2128,C#4,346.5,0.25,50,54.88
2129,F5,346.746,0.25,66,54.88
2130,F3,346.75,0.25,43,54.88
2131,E-5,346.996,0.25,65,54.88
2132,G#3,347.0,0.25,45,54.88
2133,C#5,347.246,0.25,63,54.88
2134,C#4,347.25,0.25,45,54.88
2135,C5,347.496,0.25,62,54.88
2136,F3,347.5,0.25,73,54.88
2137,B-4,347.746,0.25,61,54.88
2138,G#4,347.996,0.25,59,54.88
2139,F#3,348.0,0.25,75,54.88
2140,F#4,348.246,0.25,58,54.88
2141,F4,348.496,0.25,72,54.88
2142,F5,348.496,0.25,72,54.88
2143,G#3,348.5,1.0,78,54.88
2144,F#5,348.996,0.25,80,54.88
2145,G#5,349.496,1.25,83,54.88
2146,G#3,349.5,0.25,78,54.88
2147,G#4,349.746,0.25,62,54.88
2148,F4,349.75,0.25,56,54.88
2149,B-4,349.996,0.25,62,54.88
2150,E-4,350.0,0.25,56,54.88
2151,C5,350.246,0.25,62,54.88
2152,C#4,350.25,0.25,56,54.88
2153,D5,350.496,0.5,62,54.88
2154,C4,350.5,0.25,56,54.88
2155,F5,350.746,0.25,62,54.88
2156,B-3,350.75,0.25,56,54.88
2157,E-5,350.996,0.25,62,54.88
2158,B-4,350.996,0.5,62,54.88
2159,G#3,351.0,0.25,56,54.88
2160,D5,351.246,0.25,62,54.88
2161,F#3,351.25,0.25,56,54.88
2162,B-4,351.496,0.25,56,54.88
2163,E-5,351.496,1.0,62,54.88
2164,F3,351.5,0.5,56,54.88
2165,G#3,352.0,0.5,56,54.88
2166,F#4,352.496,0.25,66,54.88
2167,F#3,352.5,6/25,56,54.88
2168,F#6,352.746,0.25,78,54.88
2169,F#3,352.75,0.25,56,54.88
2170,F6,352.996,0.25,78,54.88
2171,G#4,352.996,0.25,78,54.88
2172,B-3,353.0,0.25,56,54.88
2173,E-6,353.246,0.25,76,54.88
2174,E-4,353.25,0.25,56,54.88
2175,D6,353.496,0.25,74,54.88
2176,B-4,353.496,1.0,74,54.88
2177,B5,353.746,0.25,72,54.88
2178,B-5,353.996,0.25,70,54.88
2179,G#5,354.246,0.25,68,54.88
2180,B-4,354.496,0.5,66,54.88
2181,F#5,354.496,1.0,74,54.88
2182,D4,354.75,0.25,56,54.88
2183,F#4,354.996,0.75,66,54.88
2184,E-4,355.0,0.25,56,54.88
2185,F4,355.25,0.25,56,54.88
2186,E-4,355.5,0.25,56,54.88
2187,F#5,355.746,0.25,74,54.88
2188,F#3,355.75,0.25,56,54.88
2189,F5,355.996,0.25,72,54.88
2190,B-3,356.0,0.25,56,54.88
2191,E-5,356.246,0.25,71,54.88
2192,E-3,356.25,0.25,56,54.88
2193,D5,356.496,0.25,70,54.88
2194,F#3,356.5,0.25,64,54.88
2195,B4,356.746,0.25,68,54.88
2196,B-4,356.996,0.25,67,54.88
2197,G#3,357.0,0.25,64,54.88
2198,G#4,357.246,0.25,65,54.88
2199,F#4,357.496,0.25,74,54.88
2200,F#5,357.496,0.25,74,54.88
2201,B-3,357.5,1.0,64,54.88
2202,G#5,357.996,0.25,83,54.88
2203,B-5,358.496,1.25,88,54.88
2204,B-3,358.5,0.25,64,54.88
2205,F#3,358.75,0.25,56,54.88
2206,F3,359.0,0.25,56,54.88
2207,E-3,359.25,0.25,56,54.88
2208,D3,359.5,0.25,56,54.88
2209,G5,359.746,0.25,66,54.88
2210,B2,359.75,0.25,56,54.88
2211,F5,359.996,0.25,65,54.88
2212,B-2,360.0,0.25,56,54.88
2213,E-5,360.246,0.25,65,54.88
2214,G#2,360.25,0.25,56,54.88
2215,E-6,360.496,0.25,76,54.88
2216,G2,360.5,0.25,64,54.88
2217,B5,360.746,0.25,65,54.88
2218,B-5,360.996,0.25,65,54.88
2219,G#2,361.0,0.25,64,54.88
2220,G#5,361.246,0.25,65,54.88
2221,G#6,361.496,0.25,80,54.88
2222,B-2,361.5,0.25,69,54.88
2223,F6,361.746,0.25,67,54.88
2224,E-6,361.996,0.25,68,54.88
2225,B2,362.0,0.25,74,54.88
2226,D6,362.246,0.25,68,54.88
2227,G#6,362.496,1.0,87,54.88
2228,B3,362.5,1.25,77,54.88
2229,G#6,363.496,0.25,87,54.88
2230,G#5,363.746,0.25,70,54.88
2231,G#3,363.75,0.25,56,54.88
2232,F#5,363.996,0.25,70,54.88
2233,F#3,364.0,0.25,56,54.88
2234,F5,364.246,0.25,70,54.88
2235,F3,364.25,0.25,56,54.88
2236,G#5,364.496,0.25,82,54.88
2237,E-3,364.5,1.0,56,54.88
2238,B-3,364.5,2.0,56,54.88
2239,F5,364.746,0.25,69,54.88
2240,E-5,364.996,0.25,69,54.88
2241,D5,365.246,0.25,69,54.88
2242,F5,365.496,0.25,81,54.88
2243,D3,365.5,1.0,56,54.88
2244,B-4,365.746,0.25,70,54.88
2245,A4,365.996,0.25,70,54.88
2246,B-4,366.246,0.25,70,54.88
2247,B-5,366.496,0.25,85,54.88
2248,C#5,366.5,167/1000,50,54.88
2249,E-5,366.667,167/1000,44,54.88
2250,F5,366.746,0.25,72,54.88
2251,C#5,366.833,167/1000,50,54.88
2252,E5,366.996,0.25,72,54.88
2253,E-5,367.0,167/1000,46,54.88
2254,C#5,367.167,167/1000,52,54.88
2255,F5,367.246,0.25,72,54.88
2256,E-5,367.333,167/1000,47,54.88
2257,F6,367.496,0.25,85,54.88
2258,C#5,367.5,167/1000,53,54.88
2259,E-5,367.667,167/1000,45,54.88
2260,B-5,367.746,0.25,73,54.88
2261,C#5,367.833,167/1000,53,54.88
2262,A5,367.996,0.25,73,54.88
2263,E-5,368.0,167/1000,47,54.88
2264,C#5,368.167,167/1000,54,54.88
2265,B-5,368.246,0.25,73,54.88
2266,E-5,368.333,167/1000,49,54.88
2267,B-6,368.496,0.25,87,54.88
2268,C#5,368.5,167/1000,56,54.88
2269,E-5,368.667,167/1000,49,54.88
2270,G#6,368.746,0.25,76,54.88
2271,C#5,368.833,167/1000,56,54.88
2272,F#6,368.996,0.25,76,54.88
2273,E-5,369.0,167/1000,51,54.88
2274,C#5,369.167,167/1000,56,54.88
2275,F6,369.246,0.25,76,54.88
2276,E-5,369.333,167/1000,50,54.88
2277,F#6,369.496,1.0,87,54.88
2278,C#5,369.5,167/1000,56,54.88
2279,E-5,369.667,167/1000,50,54.88
2280,C#5,369.833,167/1000,56,54.88
2281,E-5,370.0,0.125,51,54.88
2282,C#5,370.125,0.125,56,54.88
2283,B4,370.25,0.125,48,54.88
2284,C#5,370.375,0.125,48,54.88
2285,E-5,370.5,2.0,61,54.88
2286,B2,371.5,0.25,87,54.88
2287,E-5,372.496,0.25,87,54.88
2288,B3,372.5,1.0,96,54.88
2289,F4,372.996,0.25,74,54.88
2290,C#5,372.996,0.25,74,54.88
2291,E-4,373.496,0.25,78,54.88
2292,B4,373.496,0.25,78,54.88
2293,D6,373.496,0.25,78,54.88
2294,B3,373.5,1.0,96,54.88
2295,C#4,373.996,0.25,68,54.88
2296,B-4,373.996,0.25,68,54.88
2297,E-6,374.496,1.0,96,54.88
2298,B3,374.496,0.25,66,54.88
2299,G#4,374.496,0.25,66,54.88
2300,B-3,374.996,0.25,62,54.88
2301,F#4,374.996,0.25,62,54.88
2302,E-6,375.496,1.0,96,54.88
2303,E-4,375.496,2.0,78,54.88
2304,B4,375.496,2.0,78,54.88
2305,G#2,377.5,0.25,87,54.88
2306,E-4,378.496,0.25,78,54.88
2307,B4,378.496,0.25,78,54.88
2308,G#3,378.5,1.0,96,54.88
2309,C#4,378.996,0.25,74,54.88
2310,B-4,378.996,0.25,74,54.88
2311,B3,379.496,0.25,78,54.88
2312,G#4,379.496,0.25,78,54.88
2313,B-5,379.496,0.25,78,54.88
2314,G#3,379.5,1.0,96,54.88
2315,B-3,379.996,0.25,68,54.88
2316,F#4,379.996,0.25,68,54.88
2317,B5,380.496,1.0,96,54.88
2318,G#3,380.496,0.25,66,54.88
2319,F4,380.496,0.25,66,54.88
2320,F#3,380.996,0.25,62,54.88
2321,E-4,380.996,0.25,62,54.88
2322,B5,381.496,1.0,96,54.88
2323,B3,381.496,2.0,78,54.88
2324,G#4,381.496,2.0,78,54.88
2325,F2,383.5,0.25,87,54.88
2326,B3,384.496,0.25,78,54.88
2327,G#4,384.496,0.25,78,54.88
2328,F3,384.5,1.0,96,54.88
2329,B-3,384.996,0.25,74,54.88
2330,F#4,384.996,0.25,74,54.88
2331,G#3,385.496,0.25,78,54.88
2332,F4,385.496,0.25,78,54.88
2333,B-5,385.496,0.25,78,54.88
2334,F3,385.5,1.0,96,54.88
2335,B-3,385.996,0.25,68,54.88
2336,F#4,385.996,0.25,68,54.88
2337,B5,386.496,1.0,96,54.88
2338,G#3,386.496,0.25,66,54.88
2339,F4,386.496,0.25,66,54.88
2340,F#3,386.996,0.25,62,54.88
2341,E-4,386.996,0.25,62,54.88
2342,B5,387.496,1.0,96,54.88
2343,B-5,388.496,1.0,96,54.88
2344,F3,388.5,0.25,73,54.88
2345,D4,388.5,0.25,73,54.88
2346,E-4,389.0,0.25,66,54.88
2347,F#3,389.0,0.25,66,54.88
2348,G#5,389.496,1.0,96,54.88
2349,F3,389.5,0.25,72,54.88
2350,D4,389.5,0.25,72,54.88
2351,E-3,390.0,0.25,66,54.88
2352,C4,390.0,0.25,66,54.88
2353,G#5,390.496,2.0,96,54.88
2354,D3,390.5,0.25,73,54.88
2355,B-3,390.5,0.25,73,54.88
2356,E-3,391.0,0.25,66,54.88
2357,C4,391.0,0.25,66,54.88
2358,F3,391.5,0.25,73,54.88
2359,D4,391.5,0.25,73,54.88
2360,E-4,392.0,0.25,66,54.88
2361,F#3,392.0,0.25,66,54.88
2362,G#6,392.496,1.0,109,54.88
2363,G3,392.5,0.25,73,54.88
2364,E4,392.5,0.25,73,54.88
2365,F4,393.0,0.25,66,54.88
2366,G#3,393.0,0.25,66,54.88
2367,G#6,393.496,0.5,109,54.88
2368,B-3,393.5,0.25,71,54.88
2369,F#4,393.5,0.25,71,54.88
2370,G#3,394.0,0.25,66,54.88
2371,F4,394.0,0.25,66,54.88
2372,F#6,394.496,0.25,99,54.88
2373,F#3,394.5,0.25,71,54.88
2374,E-4,394.5,0.25,71,54.88
2375,F4,395.0,0.25,66,54.88
2376,G#3,395.0,0.25,66,54.88
2377,F6,395.496,0.25,99,54.88
2378,B-3,395.5,0.25,72,54.88
2379,F#4,395.5,0.25,72,54.88
2380,B3,396.0,0.25,66,54.88
2381,G#4,396.0,0.25,66,54.88
2382,E-6,396.496,0.25,107,54.88
2383,A4,396.5,0.25,72,54.88
2384,F4,396.5,0.25,72,54.88
2385,F#4,397.0,0.25,66,54.88
2386,B-4,397.0,0.25,66,54.88
2387,D6,397.496,0.25,99,54.88
2388,B4,397.5,0.25,73,54.88
2389,G#4,397.5,0.25,73,54.88
2390,F#4,398.0,0.25,66,54.88
2391,B-4,398.0,0.25,66,54.88
2392,F4,398.496,0.25,76,54.88
2393,G#4,398.496,0.25,76,54.88
2394,B3,398.5,0.25,73,54.88
2395,G#4,398.5,0.25,73,54.88
2396,E-4,398.996,0.25,66,54.88
2397,F#4,398.996,0.25,66,54.88
2398,F#4,399.0,0.25,66,54.88
2399,B-3,399.0,0.25,66,54.88
2400,G#3,399.496,0.25,74,54.88
2401,F4,399.496,0.25,74,54.88
2402,B-1,399.5,1.0,92,54.88
2403,B-2,399.5,1.0,92,54.88
2404,B-3,399.996,0.25,66,54.88
2405,F#4,399.996,0.25,66,54.88
2406,G#3,400.496,0.25,74,54.88
2407,F4,400.496,0.25,74,54.88
2408,B-1,400.5,2.0,92,54.88
2409,B-2,400.5,2.0,92,54.88
2410,F#3,400.996,0.25,66,54.88
2411,E-4,400.996,0.25,66,54.88
2412,F3,401.496,0.25,72,54.88
2413,D4,401.496,0.25,72,54.88
2414,F#3,401.996,0.25,66,54.88
2415,E-4,401.996,0.25,66,54.88
2416,D4,402.496,0.25,74,54.88
2417,F4,402.496,0.25,74,54.88
2418,G#2,402.5,1.0,92,54.88
2419,G#1,402.5,1.0,92,54.88
2420,E-4,402.996,0.25,66,54.88
2421,F#4,402.996,0.25,66,54.88
2422,F4,403.496,0.25,74,54.88
2423,G#4,403.496,0.25,74,54.88
2424,F#4,403.996,0.25,66,54.88
2425,B-4,403.996,0.25,66,54.88
2426,E-4,404.496,0.25,73,54.88
2427,C5,404.496,0.25,73,54.88
2428,F4,404.996,0.25,66,54.88
2429,D5,404.996,0.25,66,54.88
2430,F#4,405.496,0.25,73,54.88
2431,E-5,405.496,0.25,73,54.88
2432,G#2,405.5,2.0,92,54.88
2433,G#1,405.5,2.0,92,54.88
2434,G#4,405.996,0.25,66,54.88
2435,F5,405.996,0.25,66,54.88
2436,B-4,406.496,0.25,72,54.88
2437,F#5,406.496,0.25,72,54.88
2438,B4,406.996,0.25,66,54.88
2439,G5,406.996,0.25,66,54.88
2440,F5,407.496,0.25,72,54.88
2441,G#5,407.496,0.25,72,54.88
2442,G#1,407.5,1.0,92,54.88
2443,G#2,407.5,1.0,92,54.88
2444,B-5,407.996,0.25,66,54.88
2445,F#5,407.996,0.25,66,54.88
2446,B5,408.496,0.25,74,54.88
2447,G#5,408.496,0.25,74,54.88
2448,B-5,408.996,0.25,66,54.88
2449,F#5,408.996,0.25,66,54.88
2450,G#1,409.0,0.5,92,54.88
2451,G#2,409.0,0.5,92,54.88
2452,B4,409.496,0.25,74,54.88
2453,G#5,409.496,0.25,74,54.88
2454,B-4,409.996,0.25,66,54.88
2455,F#5,409.996,0.25,66,54.88
2456,F#2,410.0,0.25,92,54.88
2457,F#1,410.0,0.25,92,54.88
2458,G#4,410.496,0.25,74,54.88
2459,E-5,410.496,0.25,74,54.88
2460,F#4,410.996,0.25,71,54.88
2461,F2,411.0,0.25,92,54.88
2462,F1,411.0,0.25,92,54.88
2463,C#5,411.496,0.25,72,54.88
2464,F4,411.496,0.25,72,54.88
2465,E-4,411.996,0.25,71,54.88
2466,E-2,412.0,0.25,92,54.88
2467,E-1,412.0,0.25,92,54.88
2468,C5,412.496,0.25,72,54.88
2469,C#4,412.496,0.25,72,54.88
2470,C4,412.996,0.25,71,54.88
2471,D1,413.0,0.25,92,54.88
2472,D2,413.0,0.25,92,54.88
2473,E-4,413.496,1.0,78,54.88
2474,E-1,414.0,0.25,92,54.88
2475,E-2,414.0,0.25,92,54.88
2476,E-4,414.496,2.0,78,54.88
2477,B-3,414.5,0.25,60,54.88
2478,G#3,415.0,0.25,68,54.88
2479,F#3,415.5,0.25,60,54.88
2480,F3,416.0,0.25,68,54.88
2481,A5,416.496,167/1000,71,54.88
2482,C#5,416.496,0.25,71,54.88
2483,E-3,416.5,0.25,60,54.88
2484,B-5,416.663,167/1000,65,54.88
2485,A5,416.829,167/1000,71,54.88
2486,B-5,416.996,167/1000,66,54.88
2487,C5,416.996,0.25,66,54.88
2488,C#3,417.0,0.25,72,54.88
2489,B-3,417.0,0.25,72,54.88
2490,A5,417.163,167/1000,71,54.88
2491,B-5,417.329,167/1000,66,54.88
2492,A5,417.496,167/1000,71,54.88
2493,F5,417.496,0.25,71,54.88
2494,A3,417.5,0.25,66,54.88
2495,C3,417.5,0.25,66,54.88
2496,B-5,417.663,167/1000,66,54.88
2497,A5,417.829,167/1000,71,54.88
2498,B-5,417.996,167/1000,65,54.88
2499,E-5,417.996,0.25,65,54.88
2500,B-2,418.0,0.25,66,54.88
2501,F#3,418.0,0.25,66,54.88
2502,A5,418.163,167/1000,71,54.88
2503,B-5,418.329,167/1000,65,54.88
2504,A5,418.496,167/1000,71,54.88
2505,C#5,418.496,0.25,71,54.88
2506,G#2,418.5,0.25,66,54.88
2507,F3,418.5,0.25,66,54.88
2508,B-5,418.663,167/1000,64,54.88
2509,A5,418.829,167/1000,71,54.88
2510,B-5,418.996,167/1000,67,54.88
2511,C5,418.996,0.25,67,54.88
2512,F#2,419.0,0.25,66,54.88
2513,E-3,419.0,0.25,66,54.88
2514,A5,419.163,167/1000,71,54.88
2515,B-5,419.329,167/1000,67,54.88
2516,A5,419.496,167/1000,71,54.88
2517,F#5,419.496,0.25,71,54.88
2518,F2,419.5,0.25,66,54.88
2519,C#3,419.5,0.25,66,54.88
2520,B-5,419.663,167/1000,66,54.88
2521,A5,419.829,167/1000,71,54.88
2522,G5,419.996,0.25,67,54.88
2523,C5,419.996,0.25,67,54.88
2524,E-3,420.0,1.0,66,54.88
2525,E-2,420.0,1.0,66,54.88
2526,A5,420.246,0.25,67,54.88
2527,E-5,420.496,167/1000,74,54.88
2528,B-5,420.496,3.0,74,54.88
2529,F5,420.663,167/1000,69,54.88
2530,E-5,420.829,167/1000,74,54.88
2531,F5,420.996,167/1000,69,54.88
2532,E-3,421.0,2.0,66,54.88
2533,E-2,421.0,2.0,66,54.88
2534,E-5,421.163,167/1000,74,54.88
2535,F5,421.329,167/1000,70,54.88
2536,E-5,421.496,167/1000,74,54.88
2537,F5,421.663,167/1000,70,54.88
2538,E-5,421.829,167/1000,74,54.88
2539,F5,421.996,167/1000,67,54.88
2540,E-5,422.163,167/1000,74,54.88
2541,F5,422.329,167/1000,69,54.88
2542,E-5,422.496,167/1000,74,54.88
2543,F5,422.663,167/1000,69,54.88
2544,E-5,422.829,167/1000,74,54.88
2545,C#5,422.996,0.25,70,54.88
2546,C1,423.0,1.0,64,54.88
2547,C2,423.0,167/1000,71,54.88
2548,C#2,423.167,167/1000,65,54.88
2549,E-5,423.246,0.25,68,54.88
2550,C2,423.333,167/1000,71,54.88
2551,C#5,423.496,0.25,76,54.88
2552,B-5,423.496,0.25,76,54.88
2553,C#2,423.5,167/1000,66,54.88
2554,C2,423.667,167/1000,71,54.88
2555,C#2,423.833,167/1000,66,54.88
2556,C5,423.996,0.25,68,54.88
2557,G#5,423.996,0.25,68,54.88
2558,C2,424.0,167/1000,71,54.88
2559,C1,424.0,2.0,64,54.88
2560,C#2,424.167,167/1000,66,54.88
2561,C2,424.333,167/1000,71,54.88
2562,B-4,424.496,0.25,68,54.88
2563,F#5,424.496,0.25,68,54.88
2564,C#2,424.5,167/1000,67,54.88
2565,C2,424.667,167/1000,71,54.88
2566,C#2,424.833,167/1000,66,54.88
2567,G#4,424.996,0.25,68,54.88
2568,F5,424.996,0.25,68,54.88
2569,C2,425.0,167/1000,71,54.88
2570,C#2,425.167,167/1000,67,54.88
2571,C2,425.333,167/1000,71,54.88
2572,F#4,425.496,0.25,68,54.88
2573,E-5,425.496,0.25,68,54.88
2574,C#2,425.5,167/1000,66,54.88
2575,C2,425.667,167/1000,71,54.88
2576,C#2,425.833,167/1000,66,54.88
2577,F4,425.996,0.25,68,54.88
2578,C#5,425.996,0.25,68,54.88
2579,C2,426.0,167/1000,71,54.88
2580,C#2,426.167,167/1000,68,54.88
2581,C2,426.333,167/1000,71,54.88
2582,E-5,426.496,0.25,73,54.88
2583,F#5,426.496,2.0,87,54.88
2584,B-1,426.5,0.25,68,54.88
2585,C2,426.75,0.25,68,54.88
2586,E-4,426.996,0.25,71,54.88
2587,B-1,427.0,2.0,86,54.88
2588,F4,427.496,0.25,74,54.88
2589,F#4,427.996,0.25,77,54.88
2590,G#4,428.496,0.25,79,54.88
2591,B-4,428.996,0.5,82,54.88
2592,F#5,429.496,0.25,85,54.88
2593,B-4,429.496,0.25,82,54.88
2594,G#4,429.996,0.25,72,54.88
2595,F5,429.996,0.25,72,54.88
2596,B-1,430.0,0.25,84,54.88
2597,F#4,430.496,0.25,70,54.88
2598,E-5,430.496,0.25,70,54.88
2599,C1,430.5,0.25,60,54.88
2600,C2,430.5,0.25,60,54.88
2601,F4,430.996,0.25,68,54.88
2602,C#5,430.996,0.25,68,54.88
2603,C#2,431.0,0.25,61,54.88
2604,C#1,431.0,0.25,61,54.88
2605,E5,431.496,1.0,80,54.88
2606,G5,431.496,0.25,80,54.88
2607,E-1,431.5,0.25,62,54.88
2608,E-2,431.5,0.25,62,54.88
2609,C#6,431.746,0.25,70,54.88
2610,B-5,431.996,0.25,71,54.88
2611,F2,432.0,0.25,62,54.88
2612,F1,432.0,0.25,62,54.88
2613,G5,432.246,0.25,71,54.88
2614,E5,432.496,0.25,74,54.88
2615,F#1,432.5,0.25,64,54.88
2616,F#2,432.5,0.25,64,54.88
2617,B-5,432.746,0.25,69,54.88
2618,G5,432.996,0.25,70,54.88
2619,C#1,433.0,2.0,64,54.88
2620,C#2,433.0,2.0,64,54.88
2621,E5,433.246,0.25,70,54.88
2622,C#5,433.496,0.25,76,54.88
2623,G5,433.746,0.25,69,54.88
2624,E5,433.996,0.25,69,54.88
2625,C#5,434.246,0.25,69,54.88
2626,B-4,434.496,1.0,66,54.88
2627,C5,434.496,0.25,78,54.88
2628,G5,434.746,0.25,69,54.88
2629,E5,434.996,0.25,69,54.88
2630,C2,435.0,1.0,70,54.88
2631,C1,435.0,1.0,70,54.88
2632,C5,435.246,0.25,69,54.88
2633,C#5,435.496,0.25,77,54.88
2634,B-4,435.496,2.0,66,54.88
2635,B-5,435.746,0.25,69,54.88
2636,G5,435.996,0.25,69,54.88
2637,E5,436.246,0.25,69,54.88
2638,C5,436.496,1.0,85,54.88
2639,C2,437.0,1.0,70,54.88
2640,C1,437.0,1.0,70,54.88
2641,B-5,438.496,2.0,87,54.88
2642,E3,439.0,167/1000,71,54.88
2643,E2,439.0,1.0,71,54.88
2644,F3,439.167,167/1000,65,54.88
2645,E3,439.333,167/1000,63,54.88
2646,F3,439.5,167/1000,59,54.88
2647,E3,439.667,167/1000,63,54.88
2648,F3,439.833,167/1000,59,54.88
2649,E3,440.0,167/1000,63,54.88
2650,E2,440.0,2.0,71,54.88
2651,F3,440.167,167/1000,59,54.88
2652,E3,440.333,167/1000,63,54.88
2653,B-3,440.496,1.0,70,54.88
2654,G4,440.496,167/1000,71,54.88
2655,F3,440.5,167/1000,60,54.88
2656,G#4,440.663,167/1000,66,54.88
2657,E3,440.667,167/1000,63,54.88
2658,G4,440.829,167/1000,63,54.88
2659,F3,440.833,167/1000,59,54.88
2660,G#4,440.996,167/1000,60,54.88
2661,E3,441.0,167/1000,63,54.88
2662,G4,441.163,167/1000,63,54.88
2663,F3,441.167,167/1000,60,54.88
2664,G#4,441.329,167/1000,59,54.88
2665,E3,441.333,167/1000,63,54.88
2666,G4,441.496,167/1000,63,54.88
2667,B-3,441.496,2.0,70,54.88
2668,F3,441.5,167/1000,59,54.88
2669,G#4,441.663,167/1000,60,54.88
2670,E3,441.667,167/1000,63,54.88
2671,G4,441.829,167/1000,63,54.88
2672,F3,441.833,167/1000,59,54.88
2673,G#4,441.996,167/1000,59,54.88
2674,G3,442.0,167/1000,71,54.88
2675,G4,442.163,167/1000,63,54.88
2676,G#3,442.167,167/1000,66,54.88
2677,G#4,442.329,167/1000,59,54.88
2678,G3,442.333,167/1000,63,54.88
2679,G4,442.496,167/1000,63,54.88
2680,G#3,442.5,167/1000,60,54.88
2681,G#4,442.663,167/1000,60,54.88
2682,G3,442.667,167/1000,63,54.88
2683,G4,442.829,167/1000,63,54.88
2684,G#3,442.833,167/1000,59,54.88
2685,G#4,442.996,167/1000,59,54.88
2686,G3,443.0,167/1000,63,54.88
2687,G4,443.163,167/1000,63,54.88
2688,G#3,443.167,167/1000,60,54.88
2689,G#4,443.329,167/1000,59,54.88
2690,G3,443.333,167/1000,63,54.88
2691,C4,443.496,0.5,70,54.88
2692,F4,443.496,1.0,70,54.88
2693,G#3,443.5,167/1000,59,54.88
2694,G3,443.667,167/1000,63,54.88
2695,G#3,443.833,167/1000,59,54.88
2696,E-5,443.996,0.5,70,54.88
2697,G3,444.0,167/1000,63,54.88
2698,G#3,444.167,167/1000,60,54.88
2699,G3,444.333,167/1000,63,54.88
2700,E-5,444.496,2.0,70,54.88
2701,G#3,444.5,167/1000,59,54.88
2702,G3,444.667,167/1000,63,54.88
2703,G#3,444.833,167/1000,59,54.88
2704,F1,445.0,1.0,89,54.88
2705,F1,446.0,1.0,89,54.88
2706,C4,446.496,167/1000,60,54.88
2707,C#4,446.663,167/1000,56,54.88
2708,C4,446.829,167/1000,60,54.88
2709,C#4,446.996,167/1000,56,54.88
2710,C4,447.163,167/1000,60,54.88
2711,C#4,447.329,167/1000,56,54.88
2712,E-6,447.496,2.0,116,54.88
2713,C4,447.496,167/1000,60,54.88
2714,C#4,447.663,167/1000,56,54.88
2715,C4,447.829,167/1000,60,54.88
2716,C#4,447.996,167/1000,56,54.88
2717,A2,448.0,167/1000,60,54.88
2718,C4,448.163,167/1000,60,54.88
2719,B-2,448.167,167/1000,56,54.88
2720,C#4,448.329,167/1000,56,54.88
2721,A2,448.333,167/1000,60,54.88
2722,C4,448.496,167/1000,60,54.88
2723,B-2,448.5,167/1000,56,54.88
2724,C#4,448.663,167/1000,56,54.88
2725,A2,448.667,167/1000,60,54.88
2726,C4,448.829,167/1000,60,54.88
2727,B-2,448.833,167/1000,56,54.88
2728,C#4,448.996,167/1000,56,54.88
2729,A2,449.0,167/1000,60,54.88
2730,C4,449.163,167/1000,60,54.88
2731,B-2,449.167,167/1000,56,54.88
2732,C#4,449.329,167/1000,56,54.88
2733,A2,449.333,167/1000,60,54.88
2734,E-4,449.496,1.0,79,54.88
2735,C5,449.496,167/1000,60,54.88
2736,B-2,449.5,167/1000,56,54.88
2737,C#5,449.663,167/1000,56,54.88
2738,A2,449.667,167/1000,60,54.88
2739,C5,449.829,167/1000,60,54.88
2740,B-2,449.833,167/1000,56,54.88
2741,C#5,449.996,167/1000,56,54.88
2742,A2,450.0,167/1000,60,54.88
2743,C5,450.163,167/1000,60,54.88
2744,B-2,450.167,167/1000,56,54.88
2745,C#5,450.329,167/1000,56,54.88
2746,A2,450.333,167/1000,60,54.88
2747,C5,450.496,167/1000,60,54.88
2748,E-4,450.496,1.0,79,54.88
2749,B-2,450.5,167/1000,56,54.88
2750,C#5,450.663,167/1000,56,54.88
2751,A2,450.667,167/1000,60,54.88
2752,C5,450.829,167/1000,60,54.88
2753,B-2,450.833,167/1000,56,54.88
2754,C#5,450.996,167/1000,56,54.88
2755,C5,451.163,167/1000,60,54.88
2756,C#5,451.329,167/1000,56,54.88
2757,E4,451.496,1.0,79,54.88
2758,C5,451.496,167/1000,60,54.88
2759,C#5,451.663,167/1000,56,54.88
2760,C5,451.829,167/1000,60,54.88
2761,C#5,451.996,167/1000,56,54.88
2762,C5,452.163,167/1000,60,54.88
2763,C#5,452.329,167/1000,56,54.88
2764,B-4,452.496,1.0,59,54.88
2765,F4,452.496,0.5,59,54.88
2766,C#5,452.996,0.5,59,54.88
2767,C#5,453.496,2.0,59,54.88
2768,B-1,454.0,1.0,71,54.88
2769,B-1,455.0,2.0,71,54.88
2770,C#6,455.496,1.0,110,54.88
2771,B-3,455.496,167/1000,51,54.88
2772,C4,455.663,167/1000,47,54.88
2773,B-3,455.829,167/1000,51,54.88
2774,C4,455.996,167/1000,47,54.88
2775,B-3,456.163,167/1000,51,54.88
2776,C4,456.329,167/1000,47,54.88
2777,B-3,456.496,167/1000,60,54.88
2778,C#6,456.496,2.0,110,54.88
2779,C4,456.663,167/1000,56,54.88
2780,B-3,456.829,167/1000,60,54.88
2781,C4,456.996,167/1000,56,54.88
2782,C#3,457.0,167/1000,51,54.88
2783,B-3,457.163,167/1000,60,54.88
2784,E-3,457.167,167/1000,47,54.88
2785,C4,457.329,167/1000,56,54.88
2786,C#3,457.333,167/1000,51,54.88
2787,B-3,457.496,167/1000,60,54.88
2788,E-3,457.5,167/1000,47,54.88
2789,C4,457.663,167/1000,56,54.88
2790,C#3,457.667,167/1000,51,54.88
2791,B-3,457.829,167/1000,60,54.88
2792,E-3,457.833,167/1000,47,54.88
2793,C4,457.996,0.125,60,54.88
2794,C#3,458.0,167/1000,51,54.88
2795,B-3,458.121,0.125,56,54.88
2796,E-3,458.167,167/1000,47,54.88
2797,A3,458.246,0.125,56,54.88
2798,C#3,458.333,167/1000,51,54.88
2799,B-3,458.371,0.125,56,54.88
2800,C#4,458.496,1.0,79,54.88
2801,B-4,458.496,167/1000,60,54.88
2802,E-3,458.5,167/1000,47,54.88
2803,C5,458.663,167/1000,56,54.88
2804,C#3,458.667,167/1000,51,54.88
2805,B-4,458.829,167/1000,60,54.88
2806,E-3,458.833,167/1000,47,54.88
2807,C5,458.996,167/1000,56,54.88
2808,C#3,459.0,167/1000,51,54.88
2809,B-4,459.163,167/1000,60,54.88
2810,E-3,459.167,167/1000,47,54.88
2811,C5,459.329,167/1000,56,54.88
2812,C#3,459.333,167/1000,51,54.88
2813,B-4,459.496,167/1000,60,54.88
2814,C#4,459.496,2.0,79,54.88
2815,E-3,459.5,0.125,51,54.88
2816,C#3,459.625,0.125,45,54.88
2817,C5,459.663,167/1000,56,54.88
2818,C3,459.75,0.125,45,54.88
2819,B-4,459.829,167/1000,60,54.88
2820,C#3,459.875,0.125,45,54.88
2821,C5,459.996,167/1000,56,54.88
2822,E-3,460.0,1.0,50,54.88
2823,B-4,460.163,167/1000,60,54.88
2824,C5,460.329,167/1000,56,54.88
2825,B-4,460.496,167/1000,60,54.88
2826,C5,460.663,167/1000,56,54.88
2827,B-4,460.829,167/1000,60,54.88
2828,C5,460.996,167/1000,56,54.88
2829,E-3,461.0,2.0,50,54.88
2830,B-4,461.163,167/1000,60,54.88
2831,C5,461.329,167/1000,56,54.88
2832,G4,461.496,1.0,69,54.88
2833,B-4,461.496,167/1000,60,54.88
2834,C5,461.663,167/1000,56,54.88
2835,B-4,461.829,167/1000,60,54.88
2836,C5,461.996,167/1000,56,54.88
2837,B-4,462.163,167/1000,60,54.88
2838,C5,462.329,167/1000,56,54.88
2839,B-4,462.496,167/1000,60,54.88
2840,G4,462.496,0.5,69,54.88
2841,C5,462.663,167/1000,56,54.88
2842,B-4,462.829,167/1000,60,54.88
2843,F4,462.996,0.5,59,54.88
2844,C5,462.996,167/1000,56,54.88
2845,G#3,463.0,1.0,66,54.88
2846,B-4,463.163,167/1000,60,54.88
2847,C5,463.329,167/1000,56,54.88
2848,E-4,463.496,0.5,59,54.88
2849,B-4,463.496,167/1000,60,54.88
2850,C5,463.663,167/1000,56,54.88
2851,B-4,463.829,167/1000,60,54.88
2852,C5,463.996,0.125,56,54.88
2853,C#4,463.996,0.5,59,54.88
2854,G#3,464.0,0.5,66,54.88
2855,B-4,464.121,0.125,56,54.88
2856,A4,464.246,0.125,53,54.88
2857,B-4,464.371,0.125,54,54.88
2858,F5,464.496,1.0,69,54.88
2859,G3,464.5,0.5,60,54.88
2860,F3,465.0,0.5,66,54.88
2861,F5,465.496,0.5,69,54.88
2862,E-3,465.5,0.5,53,54.88
2863,E-5,465.996,0.5,47,54.88
2864,D3,466.0,0.5,66,54.88
2865,C#5,466.496,0.5,51,54.88
2866,E-3,466.5,0.5,55,54.88
2867,C5,466.996,0.5,48,54.88
2868,E-3,467.0,3.0,66,54.88
2869,G4,467.496,0.5,51,54.88
2870,B4,467.496,0.5,51,54.88
2871,G#4,467.996,0.5,46,54.88
2872,C5,467.996,0.5,46,54.88
2873,A4,468.496,0.5,51,54.88
2874,E-5,468.496,0.5,51,54.88
2875,B-4,468.996,0.5,48,54.88
2876,C#5,468.996,0.5,48,54.88
2877,C4,469.0,0.5,55,54.88
2878,E-4,469.496,0.5,51,54.88
2879,C5,469.496,0.5,51,54.88
2880,C#4,469.5,0.5,59,54.88
2881,C#4,469.996,1.0,49,54.88
2882,B-4,469.996,0.5,49,54.88
2883,E-3,470.0,2.0,57,54.88
2884,B3,470.0,0.5,59,54.88
2885,A4,470.496,0.5,51,54.88
2886,C4,470.5,0.5,53,54.88
2887,C#4,470.996,0.5,45,54.88
2888,B-4,470.996,0.5,45,54.88
2889,B-3,471.0,0.5,59,54.88
2890,E-4,471.496,1.0,51,54.88
2891,C#4,471.496,0.5,45,54.88
2892,G#3,471.5,0.5,53,54.88
2893,C4,471.996,49/100,45,54.88
2894,E-3,472.0,167/1000,45,54.88
2895,F3,472.167,167/1000,42,54.88
2896,E-3,472.333,167/1000,45,54.88
2897,F3,472.5,167/1000,42,54.88
2898,E-3,472.667,167/1000,45,54.88
2899,G#5,472.746,3/10,52,54.88
2900,F3,472.833,167/1000,42,54.88
2901,G5,472.996,3/10,51,54.88
2902,E-3,473.0,167/1000,45,54.88
2903,F3,473.167,167/1000,42,54.88
2904,F5,473.246,3/10,50,54.88
2905,E-3,473.333,167/1000,45,54.88
2906,E-5,473.496,0.25,60,54.88
2907,F3,473.5,167/1000,42,54.88
2908,E-3,473.667,167/1000,45,54.88
2909,B-4,473.746,0.25,48,54.88
2910,F3,473.833,167/1000,42,54.88
2911,C5,473.996,0.25,52,54.88
2912,G5,473.996,0.25,52,54.88
2913,E-3,474.0,167/1000,45,54.88
2914,F3,474.167,167/1000,42,54.88
2915,C#5,474.246,0.25,53,54.88
2916,E-3,474.333,167/1000,45,54.88
2917,C5,474.496,0.25,48,54.88
2918,G#5,474.496,0.5,68,54.88
2919,F3,474.5,0.25,45,54.88
2920,C4,474.746,0.25,48,54.88
2921,E-3,474.75,0.25,40,54.88
2922,E-4,474.996,0.25,48,54.88
2923,F3,475.0,0.5,52,54.88
2924,G#4,475.246,0.25,48,54.88
2925,C5,475.496,0.25,59,54.88
2926,G3,475.5,0.5,47,54.88
2927,C6,475.746,0.25,52,54.88
2928,B-5,475.996,0.25,56,54.88
2929,C#5,475.996,0.25,56,54.88
2930,G#3,476.0,0.25,40,54.88
2931,G#5,476.246,0.25,50,54.88
2932,C3,476.25,0.25,40,54.88
2933,G5,476.496,1.0,50,54.88
2934,E-5,476.496,1.0,65,54.88
2935,E-3,476.5,0.25,40,54.88
2936,G#3,476.75,0.25,40,54.88
2937,C4,477.0,0.25,52,54.88
2938,G#5,477.496,0.25,51,54.88
2939,E-5,477.496,0.5,65,54.88
2940,C#4,477.5,0.25,54,54.88
2941,C5,477.746,0.25,50,54.88
2942,E-5,477.996,0.25,48,54.88
2943,E-4,478.0,1.0,61,54.88
2944,G#5,478.246,0.25,57,54.88
2945,C6,478.496,0.25,74,54.88
2946,C#6,478.996,0.25,77,54.88
2947,E-6,479.496,1.0,80,54.88
2948,C4,480.496,0.25,63,54.88
2949,C5,480.746,0.25,52,54.88
2950,B-4,480.996,0.25,58,54.88
2951,C#4,480.996,0.25,58,54.88
2952,G#4,481.246,0.25,49,54.88
2953,B-3,481.25,0.25,40,54.88
2954,G4,481.496,1.0,50,54.88
2955,E-4,481.496,1.25,68,54.88
2956,C4,481.5,0.25,43,54.88
2957,C#4,481.75,0.25,45,54.88
2958,C4,482.0,1.0,49,54.88
2959,G#4,482.496,1.0,50,54.88
2960,C4,482.746,0.25,62,54.88
2961,B-3,482.996,0.25,65,54.88
2962,G#3,483.246,0.25,68,54.88
2963,G#3,483.25,3/10,40,54.88
2964,C4,483.496,0.5,71,54.88
2965,G#4,483.496,0.25,50,54.88
2966,G3,483.5,3/10,44,54.88
2967,G#4,483.746,0.25,62,54.88
2968,F3,483.75,3/10,40,54.88
2969,C5,483.996,0.25,65,54.88
2970,E-3,484.0,1.0,49,54.88
2971,F5,484.246,0.25,67,54.88
2972,G3,484.25,0.25,42,54.88
2973,G#5,484.496,0.25,72,54.88
2974,G#3,484.5,0.25,44,54.88
2975,F5,484.746,0.25,65,54.88
2976,B-3,484.75,0.25,47,54.88
2977,E-5,484.996,0.25,70,54.88
2978,B-5,484.996,0.25,70,54.88
2979,C#5,485.246,0.25,62,54.88
2980,C5,485.496,1.0,66,54.88
2981,C6,485.496,1.0,79,54.88
2982,F3,486.25,0.25,44,54.88
2983,C5,486.496,0.25,66,54.88
2984,C6,486.496,1.0,79,54.88
2985,E-3,486.5,0.25,52,54.88
2986,G#4,486.746,3/10,65,54.88
2987,C#3,486.75,0.25,46,54.88
2988,G4,486.996,3/10,63,54.88
2989,C3,487.0,0.5,53,54.88
2990,F4,487.246,3/10,61,54.88
2991,G#4,487.496,1.25,71,54.88
2992,D3,487.5,0.25,55,54.88
2993,G#5,487.746,0.25,65,54.88
2994,E3,487.75,0.25,58,54.88
2995,G5,487.996,0.25,69,54.88
2996,F3,488.0,1.0,61,54.88
2997,F5,488.246,0.25,63,54.88
2998,E5,488.496,0.25,71,54.88
2999,C5,488.746,0.25,61,54.88
3000,B-4,488.996,0.25,65,54.88
3001,F5,488.996,0.25,65,54.88
3002,G#4,489.246,0.25,60,54.88
3003,G#5,489.496,0.25,66,54.88
3004,B-5,489.996,0.25,68,54.88
3005,E3,490.25,0.25,55,54.88
3006,C6,490.496,1.25,69,54.88
3007,F3,490.5,0.25,56,54.88
3008,C5,490.746,0.25,62,54.88
3009,G3,490.75,0.25,58,54.88
3010,D5,490.996,0.25,64,54.88
3011,G#3,491.0,0.25,64,54.88
3012,E5,491.246,0.25,66,54.88
3013,F5,491.496,1.0,68,54.88
3014,B-3,491.5,0.25,68,54.88
3015,G#5,491.746,0.25,62,54.88
3016,G5,491.996,0.25,65,54.88
3017,C4,492.0,1.25,73,54.88
3018,F5,492.246,0.25,60,54.88
3019,A5,492.496,0.25,66,54.88
3020,B-5,492.996,0.25,69,54.88
3021,G#3,493.25,0.25,59,54.88
3022,C6,493.496,1.25,72,54.88
3023,G3,493.5,0.25,59,54.88
3024,C5,493.746,0.25,58,54.88
3025,F3,493.75,0.25,59,54.88
3026,D5,493.996,0.25,61,54.88
3027,C4,494.0,0.25,64,54.88
3028,E5,494.246,0.25,64,54.88
3029,F4,494.25,3/10,69,54.88
3030,F5,494.496,373/500,68,54.88
3031,E4,494.5,3/10,67,54.88
3032,A5,494.746,0.25,63,54.88
3033,D4,494.75,3/10,65,54.88
3034,G5,494.996,0.25,65,54.88
3035,C4,495.0,0.25,62,54.88
3036,F5,495.246,0.25,62,54.88
3037,B-3,495.25,0.25,60,54.88
3038,B-5,495.496,0.25,68,54.88
3039,G#3,495.5,0.25,57,54.88
3040,G3,495.75,0.25,55,54.88
3041,C6,495.996,0.25,71,54.88
3042,F3,496.0,0.5,68,54.88
3043,C#6,496.496,1.25,74,54.88
3044,F5,496.746,0.25,59,54.88
3045,G5,496.996,0.25,61,54.88
3046,C4,497.0,0.25,64,54.88
3047,A5,497.246,0.25,63,54.88
3048,E-4,497.25,3/10,69,54.88
3049,B-5,497.496,229/1000,65,54.88
3050,C#4,497.5,3/10,67,54.88
3051,B-5,497.746,0.75,58,54.88
3052,C4,497.75,3/10,65,54.88
3053,F#5,497.996,0.25,58,54.88
3054,B-3,498.0,0.25,62,54.88
3055,F5,498.246,0.25,56,54.88
3056,A3,498.25,0.25,60,54.88
3057,A5,498.496,1.0,63,54.88
3058,E-5,498.496,0.25,63,54.88
3059,G3,498.5,0.25,57,54.88
3060,F3,498.75,0.25,55,54.88
3061,F5,498.996,0.25,65,54.88
3062,E-3,499.0,1.0,68,54.88
3063,F#5,499.496,1.25,70,54.88
3064,A5,499.746,0.25,60,54.88
3065,C6,499.996,0.25,62,54.88
3066,C#3,500.0,0.25,64,54.88
3067,C#6,500.246,0.25,65,54.88
3068,C#4,500.25,3/10,69,54.88
3069,E-6,500.496,1.0,67,54.88
3070,C4,500.5,3/10,67,54.88
3071,E-5,500.746,0.25,60,54.88
3072,B-3,500.75,3/10,65,54.88
3073,C#5,500.996,0.25,63,54.88
3074,A3,501.0,0.25,62,54.88
3075,C5,501.246,0.25,55,54.88
3076,G3,501.25,0.25,60,54.88
3077,F5,501.496,3/10,65,54.88
3078,F3,501.5,0.25,57,54.88
3079,B-5,501.746,3/10,69,54.88
3080,E-3,501.75,0.25,55,54.88
3081,A5,501.996,3/10,65,54.88
3082,C#3,502.0,1.0,68,54.88
3083,G5,502.246,3/10,64,54.88
3084,F5,502.496,0.25,60,54.88
3085,E-5,502.746,0.25,60,54.88
3086,D5,502.996,0.25,60,54.88
3087,C3,503.0,0.25,64,54.88
3088,C5,503.246,0.25,60,54.88
3089,C4,503.25,3/10,69,54.88
3090,B-4,503.496,1.0,67,54.88
3091,D5,503.496,0.25,67,54.88
3092,B-3,503.5,3/10,67,54.88
3093,F5,503.746,0.25,60,54.88
3094,A3,503.75,3/10,65,54.88
3095,F#5,503.996,0.25,60,54.88
3096,F#3,504.0,0.25,62,54.88
3097,G#5,504.246,0.25,60,54.88
3098,F3,504.25,0.25,60,54.88
3099,G5,504.496,3/10,66,54.88
3100,B-4,504.496,0.5,67,54.88
3101,E-3,504.5,0.25,57,54.88
3102,B-5,504.746,3/10,67,54.88
3103,C#3,504.75,0.25,55,54.88
3104,G#5,504.996,3/10,70,54.88
3105,C3,505.0,1.0,68,54.88
3106,G5,505.246,3/10,69,54.88
3107,F5,505.496,0.25,68,54.88
3108,E-5,505.746,0.25,66,54.88
3109,E-4,505.996,0.75,65,54.88
3110,D5,505.996,0.25,65,54.88
3111,D3,506.0,0.25,62,54.88
3112,D2,506.0,0.25,62,54.88
3113,C5,506.246,0.25,64,54.88
3114,B-4,506.496,1.0,69,54.88
3115,E-3,506.5,0.25,66,54.88
3116,E-2,506.5,0.25,66,54.88
3117,G4,506.746,0.25,60,54.88
3118,G#4,506.996,0.25,60,54.88
3119,F2,507.0,1.25,70,54.88
3120,F3,507.0,1.25,70,54.88
3121,B-4,507.246,0.25,60,54.88
3122,E-4,507.496,0.25,65,54.88
3123,E-5,507.746,3/10,69,54.88
3124,C#5,507.996,3/10,68,54.88
3125,C5,508.246,3/10,67,54.88
3126,D3,508.25,0.25,63,54.88
3127,B-4,508.496,0.25,65,54.88
3128,C3,508.5,0.25,63,54.88
3129,G#4,508.746,0.25,64,54.88
3130,B-2,508.75,0.25,63,54.88
3131,G4,508.996,0.25,60,54.88
3132,E-2,509.0,0.25,62,54.88
3133,E-3,509.0,0.25,62,54.88
3134,F4,509.246,0.25,60,54.88
3135,G4,509.496,0.25,66,54.88
3136,E-4,509.496,1.0,66,54.88
3137,F2,509.5,0.25,62,54.88
3138,F3,509.5,0.25,62,54.88
3139,B-4,509.746,0.25,61,54.88
3140,C5,509.996,0.25,62,54.88
3141,G2,510.0,1.25,64,54.88
3142,G3,510.0,1.25,64,54.88
3143,C#5,510.246,0.25,63,54.88
3144,C5,510.496,3/10,64,54.88
3145,E-4,510.496,0.5,66,54.88
3146,C6,510.746,3/10,70,54.88
3147,B-5,510.996,3/10,69,54.88
3148,G#5,511.246,3/10,68,54.88
3149,E-3,511.25,0.25,64,54.88
3150,G5,511.496,0.25,66,54.88
3151,B2,511.5,0.25,64,54.88
3152,F5,511.746,0.25,66,54.88
3153,B-2,511.75,0.25,64,54.88
3154,E-5,511.996,0.25,63,54.88
3155,G2,512.0,0.25,62,54.88
3156,G3,512.0,0.25,62,54.88
3157,C#5,512.246,0.25,61,54.88
3158,E-4,512.496,0.25,72,54.88
3159,C5,512.496,1.0,65,54.88
3160,G#2,512.5,0.25,66,54.88
3161,G#3,512.5,0.25,66,54.88
3162,G4,512.996,0.25,74,54.88
3163,B-2,513.0,1.25,66,54.88
3164,B-3,513.0,1.25,66,54.88
3165,G#4,513.496,0.5,79,54.88
3166,C5,513.496,0.5,65,54.88
3167,G5,513.996,0.5,72,54.88
3168,B-4,513.996,0.5,72,54.88
3169,G3,514.25,0.25,64,54.88
3170,G#5,514.496,1.5,65,54.88
3171,C5,514.496,0.5,79,54.88
3172,F3,514.5,0.25,64,54.88
3173,E-3,514.75,0.25,64,54.88
3174,C#5,514.996,0.5,80,54.88
3175,G#2,515.0,0.25,66,54.88
3176,G#3,515.0,0.25,66,54.88
3177,E-5,515.496,1.0,82,54.88
3178,B-2,515.5,0.25,66,54.88
3179,B-3,515.5,0.25,66,54.88
3180,C6,515.996,0.5,87,54.88
3181,C3,516.0,1.25,69,54.88
3182,C4,516.0,1.25,69,54.88
3183,C#5,516.496,3/10,66,54.88
3184,C#6,516.496,1.0,92,54.88
3185,F5,516.746,3/10,73,54.88
3186,E-5,516.996,3/10,71,54.88
3187,C#5,517.246,3/10,69,54.88
3188,G#3,517.25,3/10,60,54.88
3189,C5,517.496,0.25,71,54.88
3190,E-3,517.5,3/10,59,54.88
3191,B-4,517.746,0.25,66,54.88
3192,C3,517.75,0.25,59,54.88
3193,G#4,517.996,0.25,66,54.88
3194,G#3,518.0,0.25,69,54.88
3195,F#4,518.246,0.25,66,54.88
3196,E-3,518.25,0.25,60,54.88
3197,F4,518.496,1.0,66,54.88
3198,G#4,518.496,0.25,79,54.88
3199,C3,518.5,0.25,60,54.88
3200,G#2,518.75,0.25,60,54.88
3201,C5,518.996,0.25,81,54.88
3202,E-3,519.0,0.25,63,54.88
3203,C3,519.25,0.25,58,54.88
3204,C#5,519.496,1.5,85,54.88
3205,F4,519.496,0.5,66,54.88
3206,G#2,519.5,0.25,58,54.88
3207,E-2,519.75,0.25,58,54.88
3208,F#4,519.996,0.25,72,54.88
3209,F#2,520.0,0.25,63,54.88
3210,E-3,520.25,0.25,58,54.88
3211,G#4,520.496,1.5,79,54.88
3212,C3,520.5,0.25,58,54.88
3213,F#2,520.75,0.25,58,54.88
3214,E5,520.996,0.5,79,54.88
3215,F3,521.0,0.25,66,54.88
3216,F2,521.0,0.25,66,54.88
3217,F5,521.496,0.5,84,54.88
3218,F#2,521.5,0.25,66,54.88
3219,F#3,521.5,0.25,66,54.88
3220,B-4,521.996,0.5,74,54.88
3221,F#5,521.996,0.5,86,54.88
3222,G#2,522.0,1.25,69,54.88
3223,G#3,522.0,1.25,69,54.88
3224,B-4,522.496,1.0,74,54.88
3225,F#5,522.496,0.25,86,54.88
3226,B-5,522.746,3/10,83,54.88
3227,G#5,522.996,3/10,80,54.88
3228,F#5,523.246,3/10,77,54.88
3229,F3,523.25,3/10,60,54.88
3230,F5,523.496,0.25,81,54.88
3231,C#3,523.5,3/10,59,54.88
3232,E-5,523.746,0.25,72,54.88
3233,G#2,523.75,0.25,59,54.88
3234,C#5,523.996,0.25,72,54.88
3235,F3,524.0,0.25,69,54.88
3236,B4,524.246,0.25,72,54.88
3237,C3,524.25,0.25,60,54.88
3238,C#4,524.496,0.25,72,54.88
3239,B-4,524.496,1.0,72,54.88
3240,G#2,524.5,0.25,60,54.88
3241,F2,524.75,0.25,60,54.88
3242,F4,524.996,0.25,75,54.88
3243,C#3,525.0,0.25,63,54.88
3244,G#2,525.25,0.25,58,54.88
3245,F#4,525.496,1.5,78,54.88
3246,B-4,525.496,0.5,72,54.88
3247,F2,525.5,0.25,58,54.88
3248,C#2,525.75,0.25,58,54.88
3249,B4,525.996,0.5,72,54.88
3250,G#2,526.0,0.25,63,54.88
3251,F2,526.25,0.25,58,54.88
3252,C#5,526.496,1.5,76,54.88
3253,E-2,526.5,0.25,58,54.88
3254,C#2,526.75,0.25,58,54.88
3255,G#4,526.996,0.5,66,54.88
3256,B-3,527.0,0.25,66,54.88
3257,B-2,527.0,0.25,66,54.88
3258,B-4,527.496,0.5,73,54.88
3259,B3,527.5,0.25,66,54.88
3260,B2,527.5,0.25,66,54.88
3261,B-5,527.996,0.5,66,54.88
3262,F#5,527.996,0.5,66,54.88
3263,C#4,528.0,1.25,69,54.88
3264,C#3,528.0,1.25,69,54.88
3265,B5,528.496,0.5,72,54.88
3266,F#5,528.496,0.25,66,54.88
3267,D5,528.746,3/10,66,54.88
3268,C#5,528.996,3/10,66,54.88
3269,B4,529.246,3/10,66,54.88
3270,B-3,529.25,3/10,60,54.88
3271,B-4,529.496,0.25,70,54.88
3272,F#3,529.5,3/10,59,54.88
3273,G4,529.746,0.25,68,54.88
3274,C#3,529.75,0.25,59,54.88
3275,F#4,529.996,0.25,67,54.88
3276,B-3,530.0,0.25,69,54.88
3277,E4,530.246,0.25,66,54.88
3278,F#3,530.25,0.25,60,54.88
3279,D4,530.496,1.0,71,54.88
3280,F#4,530.496,0.25,71,54.88
3281,C#3,530.5,0.25,60,54.88
3282,B-2,530.75,0.25,60,54.88
3283,B-4,530.996,0.25,74,54.88
3284,F#3,531.0,0.25,63,54.88
3285,C#3,531.25,0.25,58,54.88
3286,B4,531.496,1.5,79,54.88
3287,D4,531.496,0.5,71,54.88
3288,B-2,531.5,0.25,58,54.88
3289,F#2,531.75,0.25,58,54.88
3290,E4,531.996,0.5,73,54.88
3291,C#3,532.0,0.25,63,54.88
3292,B-2,532.25,0.25,58,54.88
3293,F#4,532.496,1.5,76,54.88
3294,G#2,532.5,0.25,58,54.88
3295,F#2,532.75,0.25,58,54.88
3296,C#5,532.996,0.5,71,54.88
3297,D3,533.0,0.25,66,54.88
3298,D2,533.0,0.25,66,54.88
3299,D5,533.496,0.5,75,54.88
3300,E3,533.5,0.25,66,54.88
3301,E2,533.5,0.25,66,54.88
3302,C#5,533.996,0.5,78,54.88
3303,E5,533.996,0.5,78,54.88
3304,F#3,534.0,1.25,69,54.88
3305,F#2,534.0,1.25,69,54.88
3306,F#5,534.496,0.25,86,54.88
3307,B-5,534.996,0.25,90,54.88
3308,D3,535.25,3/10,60,54.88
3309,B5,535.496,1.5,90,54.88
3310,B2,535.5,3/10,59,54.88
3311,F#2,535.75,0.25,59,54.88
3312,D3,536.0,0.25,69,54.88
3313,B2,536.25,0.25,60,54.88
3314,F#2,536.5,0.25,60,54.88
3315,D2,536.75,0.25,60,54.88
3316,C#6,536.996,0.25,90,54.88
3317,B2,537.0,0.25,63,54.88
3318,F#2,537.25,0.25,58,54.88
3319,D6,537.496,0.25,94,54.88
3320,D2,537.5,0.25,58,54.88
3321,B1,537.75,0.25,58,54.88
3322,E6,537.996,0.25,97,54.88
3323,F#2,538.0,0.25,65,54.88
3324,D2,538.25,0.25,58,54.88
3325,F#6,538.496,0.5,99,54.88
3326,C#2,538.5,0.25,63,54.88
3327,B1,538.75,0.25,66,54.88
3328,D5,539.0,0.5,70,54.88
3329,F#1,539.0,0.5,70,54.88
3330,F#5,539.496,0.5,71,54.88
3331,C#5,539.5,3/10,65,54.88
3332,B4,539.75,0.25,65,54.88
3333,D5,540.0,3/10,65,54.88
3334,B4,540.25,3/10,60,54.88
3335,G4,540.5,3/10,61,54.88
3336,F#4,540.75,0.25,61,54.88
3337,B4,541.0,3/10,65,54.88
3338,F#4,541.25,3/10,58,54.88
3339,E4,541.5,3/10,58,54.88
3340,D4,541.75,0.25,58,54.88
3341,F#4,542.0,3/10,63,54.88
3342,D4,542.25,3/10,54,54.88
3343,F#5,542.496,1.0,57,54.88
3344,C#4,542.5,3/10,54,54.88
3345,B3,542.75,0.25,54,54.88
3346,D4,543.0,3/10,59,54.88
3347,B3,543.25,3/10,49,54.88
3348,E5,543.496,2.0,56,54.88
3349,G3,543.5,3/10,50,54.88
3350,F#3,543.75,0.25,50,54.88
3351,G3,544.0,0.25,59,54.88
3352,F#3,544.25,3/10,41,54.88
3353,G#3,544.5,3/10,41,54.88
3354,B-3,544.75,0.25,41,54.88
3355,B3,545.0,3/10,40,54.88
3356,C#4,545.25,3/10,36,54.88
3357,C#5,545.496,1.0,50,54.88
3358,D4,545.5,3/10,37,54.88
3359,E4,545.75,3/10,39,54.88
3360,F#4,546.0,3/10,40,54.88
3361,G4,546.25,3/10,41,54.88
3362,D5,546.496,2.0,56,54.88
3363,F#4,546.5,3/10,41,54.88
3364,F4,546.75,3/10,40,54.88
3365,E4,547.0,3/10,38,54.88
3366,D4,547.25,3/10,37,54.88
3367,C#4,547.5,3/10,36,54.88
3368,B3,547.75,0.25,35,54.88
3369,C#4,548.0,3/10,35,54.88
3370,D4,548.25,3/10,37,54.88
3371,C#5,548.496,1.0,50,54.88
3372,C#4,548.5,3/10,36,54.88
3373,C4,548.75,3/10,36,54.88
3374,B3,549.0,3/10,35,54.88
3375,B-3,549.25,3/10,34,54.88
3376,C#5,549.496,1.0,50,54.88
3377,G#3,549.5,3/10,33,54.88
3378,F#3,549.75,3/10,32,54.88
3379,G#3,550.0,3/10,36,54.88
3380,B-3,550.25,3/10,35,54.88
3381,B4,550.496,1.0,50,54.88
3382,B3,550.5,3/10,39,54.88
3383,B-3,550.75,0.25,34,54.88
3384,B3,551.0,3/10,36,54.88
3385,B-3,551.0,1/20,34,54.88
3386,C#4,551.25,3/10,34,54.88
3387,B4,551.496,1.0,50,54.88
3388,D4,551.5,3/10,41,54.88
3389,C#4,551.75,3/10,35,54.88
3390,D4,552.0,3/10,39,54.88
3391,E4,552.25,0.25,36,54.88
3392,B4,552.496,1.0,56,54.88
3393,E4,553.0,1.0,36,54.88
3394,F#4,553.496,1.0,50,54.88
3395,B3,554.0,3/10,39,54.88
3396,C#4,554.25,3/10,39,54.88
3397,D5,554.496,1.0,56,54.88
3398,D4,554.5,3/10,34,54.88
3399,E4,554.75,3/10,34,54.88
3400,F#4,555.0,3/10,39,54.88
3401,G4,555.25,0.25,34,54.88
3402,C#5,555.496,1.0,56,54.88
3403,G4,556.0,1.0,36,54.88
3404,F#4,556.496,0.5,56,54.88
3405,D4,557.0,3/10,39,54.88
3406,E4,557.25,3/10,36,54.88
3407,B-5,557.496,167/1000,46,54.88
3408,F#4,557.5,3/10,36,54.88
3409,B5,557.663,167/1000,37,54.88
3410,G#4,557.75,3/10,36,54.88
3411,B-5,557.829,167/1000,45,54.88
3412,B5,557.996,167/1000,40,54.88
3413,B-4,558.0,3/10,39,54.88
3414,B-5,558.163,167/1000,45,54.88
3415,B4,558.25,0.25,35,54.88
3416,B5,558.329,167/1000,45,54.88
3417,B-5,558.496,167/1000,46,54.88
3418,B5,558.663,167/1000,46,54.88
3419,B-5,558.829,167/1000,40,54.88
3420,B5,558.996,0.125,46,54.88
3421,B4,559.0,1.0,36,54.88
3422,B-5,559.121,0.125,41,54.88
3423,G#5,559.246,0.125,41,54.88
3424,B-5,559.371,0.125,42,54.88
3425,B5,559.496,1.0,54,54.88
3426,B-4,560.0,167/1000,33,54.88
3427,B4,560.167,167/1000,27,54.88
3428,B-4,560.333,167/1000,32,54.88
3429,B4,560.5,167/1000,28,54.88
3430,B-4,560.667,167/1000,32,54.88
3431,B4,560.833,167/1000,32,54.88
3432,B5,560.996,0.25,46,54.88
3433,B-4,561.0,167/1000,33,54.88
3434,B4,561.167,167/1000,33,54.88
3435,A5,561.246,0.25,40,54.88
3436,B-4,561.333,167/1000,28,54.88
3437,G5,561.496,0.25,47,54.88
3438,B4,561.5,0.125,33,54.88
3439,B-4,561.625,0.125,29,54.88
3440,F#5,561.746,0.25,40,54.88
3441,G#4,561.75,0.125,29,54.88
3442,B-4,561.875,0.125,30,54.88
3443,E5,561.996,0.25,43,54.88
3444,F#3,562.0,0.5,50,54.88
3445,F#5,562.246,0.25,40,54.88
3446,G5,562.496,0.25,45,54.88
3447,A5,562.746,0.25,40,54.88
3448,G5,562.996,0.25,44,54.88
3449,F#5,563.246,0.25,40,54.88
3450,E5,563.496,0.25,42,54.88
3451,D5,563.746,0.25,40,54.88
3452,C#5,563.996,0.25,37,54.88
3453,B3,564.0,0.5,50,54.88
3454,D5,564.246,0.25,40,54.88
3455,E5,564.496,0.25,44,54.88
3456,D5,564.746,0.25,40,54.88
3457,C#5,564.996,0.25,40,54.88
3458,D5,565.0,167/1000,36,54.88
3459,E5,565.167,167/1000,34,54.88
3460,B4,565.246,0.25,40,54.88
3461,D5,565.333,167/1000,37,54.88
3462,A4,565.496,0.25,44,54.88
3463,E5,565.5,167/1000,35,54.88
3464,D5,565.667,167/1000,39,54.88
3465,G#4,565.746,0.25,36,54.88
3466,E5,565.833,167/1000,36,54.88
3467,A4,565.996,0.25,40,54.88
3468,D5,566.0,167/1000,40,54.88
3469,E5,566.167,167/1000,37,54.88
3470,G4,566.246,0.25,38,54.88
3471,D5,566.333,167/1000,41,54.88
3472,F#4,566.496,0.25,38,54.88
3473,D5,566.625,0.125,42,54.88
3474,A4,566.746,123/500,39,54.88
3475,C#5,566.75,0.125,43,54.88
3476,D5,566.875,0.125,48,54.88
3477,B4,566.996,0.25,40,54.88
3478,E5,567.0,1.0,54,54.88
3479,C#5,567.246,0.25,41,54.88
3480,D5,567.496,0.25,41,54.88
3481,E5,567.746,0.25,44,54.88
3482,F#5,567.996,0.25,46,54.88
3483,A2,568.0,0.5,50,54.88
3484,G4,568.0,1.0,41,54.88
3485,G5,568.246,0.25,48,54.88
3486,A5,568.496,0.25,50,54.88
3487,B5,568.746,0.25,47,54.88
3488,A5,568.996,0.25,49,54.88
3489,C#4,569.0,167/1000,36,54.88
3490,D4,569.167,167/1000,34,54.88
3491,G#5,569.246,0.25,49,54.88
3492,C#4,569.333,167/1000,37,54.88
3493,G5,569.496,0.25,48,54.88
3494,D4,569.5,167/1000,35,54.88
3495,C#4,569.667,167/1000,39,54.88
3496,F#5,569.746,0.25,42,54.88
3497,D4,569.833,167/1000,36,54.88
3498,E5,569.996,0.25,42,54.88
3499,C#4,570.0,167/1000,40,54.88
3500,D4,570.167,167/1000,37,54.88
3501,E-5,570.246,0.25,44,54.88
3502,C#4,570.333,167/1000,41,54.88
3503,E5,570.496,0.25,50,54.88
3504,D4,570.5,0.125,37,54.88
3505,C#4,570.625,0.125,43,54.88
3506,F#5,570.746,0.25,40,54.88
3507,B3,570.75,0.125,43,54.88
3508,C#4,570.875,0.125,48,54.88
3509,E5,570.996,0.25,40,54.88
3510,D4,571.0,1.0,54,54.88
3511,E-5,571.246,0.25,40,54.88
3512,D5,571.496,0.25,47,54.88
3513,A4,571.5,0.5,44,54.88
3514,C#5,571.746,0.25,40,54.88
3515,B4,571.996,0.25,40,54.88
3516,B4,572.0,0.5,50,54.88
3517,A4,572.246,0.25,40,54.88
3518,B4,572.496,0.25,44,54.88
3519,G4,572.5,0.5,49,54.88
3520,C#5,572.746,0.25,37,54.88
3521,D5,572.996,0.25,40,54.88
3522,F#4,573.0,0.5,47,54.88
3523,C#5,573.246,0.25,36,54.88
3524,D5,573.496,0.25,41,54.88
3525,F4,573.5,0.5,45,54.88
3526,E5,573.746,0.25,42,54.88
3527,F#5,573.996,0.25,44,54.88
3528,F#4,574.0,1.0,47,54.88
3529,A3,574.0,1.0,47,54.88
3530,E5,574.246,0.25,45,54.88
3531,F#5,574.496,0.25,51,54.88
3532,G5,574.746,0.25,46,54.88
3533,G3,575.0,2.0,47,54.88
3534,F#4,575.0,1.0,47,54.88
3535,G5,575.496,1.0,44,54.88
3536,E4,576.0,1.0,51,54.88
3537,D5,576.496,0.25,46,54.88
3538,E5,576.746,0.25,47,54.88
3539,F#5,576.996,0.25,48,54.88
3540,G3,577.0,1.0,47,54.88
3541,E3,577.0,1.0,47,54.88
3542,G5,577.246,0.25,49,54.88
3543,A5,577.496,0.25,55,54.88
3544,B5,577.746,0.25,50,54.88
3545,B3,578.0,1.0,47,54.88
3546,F#3,578.0,2.0,47,54.88
3547,B5,578.496,1.0,55,54.88
3548,A3,579.0,1.0,45,54.88
3549,F#5,579.496,0.25,59,54.88
3550,G5,579.746,0.25,60,54.88
3551,A5,579.996,0.25,61,54.88
3552,E3,580.0,1.0,44,54.88
3553,G3,580.0,1.0,44,54.88
3554,B5,580.246,0.25,62,54.88
3555,C#6,580.496,0.25,63,54.88
3556,D6,580.746,0.25,59,54.88
3557,D6,581.496,1.0,67,54.88
3558,E3,582.0,1.0,44,54.88
3559,G3,582.0,1.0,44,54.88
3560,C#6,582.496,167/1000,61,54.88
3561,D6,582.663,167/1000,51,54.88
3562,C#6,582.829,167/1000,63,54.88
3563,D6,582.996,167/1000,52,54.88
3564,D3,583.0,1.0,47,54.88
3565,F#3,583.0,1.0,47,54.88
3566,C#6,583.163,167/1000,65,54.88
3567,D6,583.329,167/1000,54,54.88
3568,C#6,583.496,167/1000,68,54.88
3569,D6,583.663,167/1000,56,54.88
3570,C#6,583.829,167/1000,68,54.88
3571,D6,583.996,167/1000,53,54.88
3572,D3,584.0,1.0,45,54.88
3573,G3,584.0,1.0,45,54.88
3574,C#6,584.163,167/1000,63,54.88
3575,D6,584.329,167/1000,51,54.88
3576,B-4,584.496,0.5,48,54.88
3577,D3,585.0,1.0,47,54.88
3578,G3,585.0,0.5,47,54.88
3579,B-4,585.496,167/1000,48,54.88
3580,F#5,585.496,1.0,60,54.88
3581,F#3,585.5,0.5,43,54.88
3582,B4,585.663,167/1000,43,54.88
3583,B-4,585.829,167/1000,48,54.88
3584,B4,585.996,167/1000,44,54.88
3585,E3,586.0,0.5,47,54.88
3586,A2,586.0,1.0,47,54.88
3587,B-4,586.163,167/1000,48,54.88
3588,B4,586.329,167/1000,44,54.88
3589,B-4,586.496,167/1000,48,54.88
3590,E5,586.496,1.0,56,54.88
3591,F#3,586.5,0.5,42,54.88
3592,B4,586.663,167/1000,45,54.88
3593,B-4,586.829,167/1000,48,54.88
3594,B4,586.996,167/1000,45,54.88
3595,F#3,587.0,1.0,47,54.88
3596,G#3,587.0,0.5,47,54.88
3597,B-4,587.163,167/1000,48,54.88
3598,B4,587.329,167/1000,44,54.88
3599,B-4,587.496,167/1000,48,54.88
3600,C#5,587.496,1.0,56,54.88
3601,A3,587.5,0.5,42,54.88
3602,B4,587.663,167/1000,48,54.88
3603,B-4,587.829,167/1000,44,54.88
3604,B4,587.996,0.25,48,54.88
3605,G3,588.0,2.0,52,54.88
3606,E3,588.0,1.0,52,54.88
3607,B-4,588.246,0.25,48,54.88
3608,B4,588.496,2.0,54,54.88
3609,E5,588.496,1.0,64,54.88
3610,B-2,589.0,1.0,46,54.88
3611,D5,589.496,2.0,57,54.88
3612,F#3,590.0,0.5,46,54.88
3613,F#4,590.496,1.0,57,54.88
3614,E4,591.496,2.0,59,54.88
3615,D5,591.496,1.0,57,54.88
3616,C#5,592.496,2.0,63,54.88
3617,F#3,593.0,0.25,41,54.88
3618,E3,593.25,0.25,39,54.88
3619,C#4,593.496,1.0,56,54.88
3620,D3,593.5,0.25,39,54.88
3621,C#3,593.75,0.25,39,54.88
3622,B2,594.0,3/10,39,54.88
3623,C#3,594.25,3/10,38,54.88
3624,E4,594.496,1.0,57,54.88
3625,C#5,594.496,1.0,63,54.88
3626,D3,594.5,3/10,38,54.88
3627,E3,594.75,3/10,38,54.88
3628,F#3,595.0,3/10,41,54.88
3629,G3,595.25,3/10,38,54.88
3630,B4,595.496,2.0,63,54.88
3631,D4,595.496,1.0,48,54.88
3632,F#3,595.5,3/10,38,54.88
3633,F3,595.75,3/10,38,54.88
3634,E3,596.0,3/10,41,54.88
3635,D3,596.25,3/10,37,54.88
3636,C#4,596.496,1.0,48,54.88
3637,C#3,596.5,3/10,37,54.88
3638,B2,596.75,0.25,37,54.88
3639,C#3,597.0,3/10,37,54.88
3640,B2,597.0,1/20,37,54.88
3641,D3,597.25,3/10,36,54.88
3642,B4,597.496,2.0,63,54.88
3643,C#4,597.496,1.0,48,54.88
3644,C#3,597.5,3/10,36,54.88
3645,C3,597.75,3/10,36,54.88
3646,B2,598.0,3/10,41,54.88
3647,B-2,598.25,3/10,34,54.88
3648,B3,598.496,1.0,48,54.88
3649,G#2,598.5,3/10,34,54.88
3650,F#2,598.75,3/10,34,54.88
3651,G#2,599.0,3/10,40,54.88
3652,B-2,599.25,3/10,36,54.88
3653,E4,599.496,0.5,48,54.88
3654,B3,599.496,1.0,40,54.88
3655,B2,599.5,3/10,36,54.88
3656,B-2,599.75,0.25,36,54.88
3657,D4,599.996,0.5,43,54.88
3658,B2,600.0,3/10,36,54.88
3659,B-2,600.0,1/20,36,54.88
3660,C#3,600.25,3/10,38,54.88
3661,C#4,600.496,0.5,48,54.88
3662,B3,600.496,1.0,40,54.88
3663,D3,600.5,3/10,41,54.88
3664,C#3,600.75,3/10,43,54.88
3665,D4,600.996,0.5,42,54.88
3666,D3,601.0,3/10,45,54.88
3667,E3,601.25,0.25,41,54.88
3668,C#4,601.496,0.5,48,54.88
3669,F#3,601.496,1.0,40,54.88
3670,D4,601.996,0.5,43,54.88
3671,E3,602.0,1.0,44,54.88
3672,E4,602.496,0.5,48,54.88
3673,D4,602.496,1.0,40,54.88
3674,F4,602.996,0.5,43,54.88
3675,B2,603.0,3/10,36,54.88
3676,C#3,603.25,3/10,38,54.88
3677,C#4,603.496,1.0,48,54.88
3678,F#4,603.496,2.0,51,54.88
3679,D3,603.5,3/10,41,54.88
3680,E3,603.75,3/10,43,54.88
3681,F#3,604.0,3/10,45,54.88
3682,G3,604.25,0.25,41,54.88
3683,F#3,604.496,1.0,48,54.88
3684,G3,605.0,1.0,44,54.88
3685,F#5,605.496,1.0,55,54.88
3686,D3,606.0,3/10,36,54.88
3687,E3,606.25,3/10,38,54.88
3688,D5,606.496,167/1000,50,54.88
3689,F#3,606.5,3/10,41,54.88
3690,E5,606.663,167/1000,47,54.88
3691,G#3,606.75,3/10,43,54.88
3692,D5,606.829,167/1000,52,54.88
3693,E5,606.996,167/1000,50,54.88
3694,B-3,607.0,3/10,45,54.88
3695,D5,607.163,167/1000,55,54.88
3696,B3,607.25,0.25,41,54.88
3697,E5,607.329,167/1000,52,54.88
3698,D5,607.496,167/1000,56,54.88
3699,E5,607.663,167/1000,50,54.88
3700,D5,607.829,167/1000,53,54.88
3701,E5,607.996,167/1000,45,54.88
3702,B3,608.0,1.0,44,54.88
3703,D5,608.163,167/1000,50,54.88
3704,E5,608.329,167/1000,44,54.88
3705,D4,608.496,1.0,55,54.88
3706,B4,608.496,0.5,55,54.88
3707,F4,608.996,0.5,47,54.88
3708,B-3,609.0,167/1000,40,54.88
3709,B3,609.167,167/1000,37,54.88
3710,B-3,609.333,167/1000,40,54.88
3711,C#4,609.496,1.0,51,54.88
3712,F#4,609.496,2.0,51,54.88
3713,B3,609.5,167/1000,36,54.88
3714,B-3,609.667,167/1000,40,54.88
3715,B3,609.833,167/1000,34,54.88
3716,B-3,610.0,167/1000,40,54.88
3717,B3,610.167,167/1000,37,54.88
3718,B-3,610.333,167/1000,40,54.88
3719,F#3,610.496,1.0,43,54.88
3720,B3,610.5,167/1000,36,54.88
3721,B-3,610.667,167/1000,40,54.88
3722,B3,610.833,167/1000,36,54.88
3723,F#2,611.0,0.5,36,54.88
3724,F#4,611.496,0.5,51,54.88
3725,G#2,611.5,0.25,39,54.88
3726,B-2,611.75,0.25,42,54.88
3727,G#4,611.996,0.25,51,54.88
3728,B2,612.0,0.25,45,54.88
3729,B-4,612.246,0.25,56,54.88
3730,C#3,612.25,0.25,45,54.88
3731,B4,612.496,0.25,58,54.88
3732,D3,612.5,0.25,44,54.88
3733,C#5,612.746,0.25,60,54.88
3734,E3,612.75,0.25,42,54.88
3735,D5,612.996,0.25,62,54.88
3736,F#3,613.0,0.5,50,54.88
3737,E5,613.246,0.25,64,54.88
3738,F#5,613.496,0.25,66,54.88
3739,G5,613.746,0.25,69,54.88
3740,B3,614.0,1.0,44,54.88
3741,G5,614.496,1.0,60,54.88
3742,B-3,615.0,167/1000,40,54.88
3743,B3,615.167,167/1000,37,54.88
3744,B-3,615.333,167/1000,40,54.88
3745,F#5,615.496,167/1000,50,54.88
3746,B3,615.5,167/1000,36,54.88
3747,G5,615.663,167/1000,47,54.88
3748,B-3,615.667,167/1000,40,54.88
3749,F#5,615.829,167/1000,52,54.88
3750,B3,615.833,167/1000,34,54.88
3751,G5,615.996,167/1000,50,54.88
3752,B-3,616.0,167/1000,40,54.88
3753,F#5,616.163,167/1000,55,54.88
3754,B3,616.167,167/1000,37,54.88
3755,G5,616.329,167/1000,52,54.88
3756,B-3,616.333,167/1000,40,54.88
3757,F#5,616.496,167/1000,56,54.88
3758,B3,616.5,167/1000,36,54.88
3759,G5,616.663,167/1000,50,54.88
3760,B-3,616.667,167/1000,40,54.88
3761,F#5,616.829,167/1000,53,54.88
3762,B3,616.833,167/1000,36,54.88
3763,G5,616.996,167/1000,45,54.88
3764,F#2,617.0,1.0,44,54.88
3765,F#3,617.0,1.0,44,54.88
3766,F#5,617.163,167/1000,50,54.88
3767,G5,617.329,167/1000,44,54.88
3768,D5,617.496,1.0,60,54.88
3769,D3,618.0,167/1000,40,54.88
3770,E3,618.167,167/1000,37,54.88
3771,D3,618.333,167/1000,40,54.88
3772,B4,618.496,2.0,60,54.88
3773,D4,618.496,167/1000,45,54.88
3774,E3,618.5,167/1000,36,54.88
3775,E4,618.663,167/1000,42,54.88
3776,D3,618.667,167/1000,40,54.88
3777,D4,618.829,167/1000,46,54.88
3778,E3,618.833,167/1000,34,54.88
3779,E4,618.996,167/1000,45,54.88
3780,D3,619.0,167/1000,40,54.88
3781,D4,619.163,167/1000,49,54.88
3782,E3,619.167,167/1000,37,54.88
3783,E4,619.329,167/1000,46,54.88
3784,D3,619.333,167/1000,40,54.88
3785,D4,619.496,167/1000,50,54.88
3786,E3,619.5,167/1000,36,54.88
3787,E4,619.663,167/1000,45,54.88
3788,D3,619.667,167/1000,40,54.88
3789,D4,619.829,167/1000,47,54.88
3790,E3,619.833,167/1000,36,54.88
3791,E4,619.996,167/1000,40,54.88
3792,B2,620.0,0.5,33,54.88
3793,D4,620.163,167/1000,45,54.88
3794,E4,620.329,167/1000,39,54.88
3795,C#4,620.496,1.0,55,54.88
3796,G4,620.496,1.0,55,54.88
3797,C#2,620.5,0.5,31,54.88
3798,B-2,620.5,0.5,31,54.88
3799,D2,621.0,0.25,32,54.88
3800,A2,621.0,1.0,32,54.88
3801,E2,621.25,0.25,33,54.88
3802,E4,621.496,0.25,62,54.88
3803,F#2,621.5,0.25,35,54.88
3804,F#4,621.746,0.25,63,54.88
3805,G2,621.75,0.25,36,54.88
3806,G4,621.996,0.25,64,54.88
3807,A2,622.0,0.25,38,54.88
3808,A4,622.246,0.25,65,54.88
3809,B2,622.25,0.25,37,54.88
3810,B4,622.496,0.25,67,54.88
3811,C#5,622.746,0.25,66,54.88
3812,C#4,622.996,0.25,55,54.88
3813,F#3,623.0,1.0,36,54.88
3814,B2,623.0,1.0,36,54.88
3815,D4,623.246,0.25,57,54.88
3816,C#5,623.496,1.0,69,54.88
3817,E4,623.496,0.25,57,54.88
3818,F#4,623.746,0.25,55,54.88
3819,G4,623.996,0.25,57,54.88
3820,G2,624.0,0.25,32,54.88
3821,A4,624.246,0.25,60,54.88
3822,A2,624.25,0.25,33,54.88
3823,G4,624.496,0.25,62,54.88
3824,B2,624.5,0.25,35,54.88
3825,A4,624.746,0.25,63,54.88
3826,C#3,624.75,0.25,36,54.88
3827,B4,624.996,0.25,64,54.88
3828,D3,625.0,0.25,38,54.88
3829,C#5,625.246,0.25,65,54.88
3830,E3,625.25,0.25,37,54.88
3831,D5,625.496,0.25,67,54.88
3832,E5,625.746,0.25,66,54.88
3833,E4,625.996,0.25,55,54.88
3834,E3,626.0,1.0,38,54.88
3835,F#4,626.246,0.25,57,54.88
3836,E5,626.496,1.0,69,54.88
3837,G4,626.496,0.25,57,54.88
3838,A4,626.746,0.25,55,54.88
3839,B4,626.996,0.25,57,54.88
3840,C#3,627.0,0.25,45,54.88
3841,C#5,627.246,0.25,60,54.88
3842,D3,627.25,0.25,48,54.88
3843,G5,627.496,0.25,74,54.88
3844,E3,627.5,0.25,50,54.88
3845,F#5,627.746,0.25,72,54.88
3846,F#3,627.75,0.25,53,54.88
3847,E5,627.996,0.25,71,54.88
3848,G3,628.0,0.25,55,54.88
3849,D5,628.246,0.25,69,54.88
3850,A3,628.25,0.25,48,54.88
3851,C#5,628.496,0.25,67,54.88
3852,B4,628.746,0.25,68,54.88
3853,G4,628.996,0.25,64,54.88
3854,A3,629.0,1.0,59,54.88
3855,F#4,629.246,0.25,61,54.88
3856,B4,629.496,1.0,75,54.88
3857,E4,629.496,0.25,62,54.88
3858,D4,629.746,0.25,60,54.88
3859,C#4,629.996,0.25,57,54.88
3860,E3,630.0,0.25,45,54.88
3861,B3,630.246,0.25,55,54.88
3862,F#3,630.25,0.25,48,54.88
3863,E5,630.496,0.25,74,54.88
3864,G3,630.5,0.25,50,54.88
3865,D5,630.746,0.25,72,54.88
3866,A3,630.75,0.25,53,54.88
3867,C#5,630.996,0.25,71,54.88
3868,B3,631.0,0.25,55,54.88
3869,B4,631.246,0.25,69,54.88
3870,C#4,631.25,0.25,48,54.88
3871,A4,631.496,0.25,67,54.88
3872,G4,631.746,0.25,72,54.88
3873,E4,631.996,0.25,64,54.88
3874,C#4,632.0,1.0,59,54.88
3875,D4,632.246,0.25,61,54.88
3876,G4,632.496,1.0,75,54.88
3877,C#4,632.496,0.25,62,54.88
3878,B3,632.746,0.25,60,54.88
3879,A3,632.996,0.25,57,54.88
3880,E4,633.0,0.25,58,54.88
3881,G3,633.246,0.25,55,54.88
3882,D4,633.25,0.25,56,54.88
3883,D4,633.496,0.25,73,54.88
3884,F#4,633.496,1.0,73,54.88
3885,C#4,633.5,0.25,53,54.88
3886,C#4,633.746,0.25,68,54.88
3887,B3,633.75,0.25,51,54.88
3888,B3,633.996,0.25,63,54.88
3889,A3,634.0,0.25,49,54.88
3890,A3,634.246,0.25,62,54.88
3891,G3,634.25,0.25,44,54.88
3892,G3,634.496,0.25,62,54.88
3893,F#3,634.746,0.25,61,54.88
3894,F#4,634.996,0.25,63,54.88
3895,G3,635.0,1.0,64,54.88
3896,G4,635.246,0.25,65,54.88
3897,A4,635.496,0.25,67,54.88
3898,B4,635.746,0.25,69,54.88
3899,C#5,635.996,0.25,72,54.88
3900,C#4,636.0,0.25,58,54.88
3901,D5,636.246,0.25,74,54.88
3902,B3,636.25,0.25,56,54.88
3903,F#4,636.496,0.25,73,54.88
3904,A4,636.496,1.0,73,54.88
3905,A3,636.5,0.25,53,54.88
3906,E4,636.746,0.25,68,54.88
3907,G3,636.75,0.25,51,54.88
3908,D4,636.996,0.25,63,54.88
3909,F#3,637.0,0.25,49,54.88
3910,C#4,637.246,0.25,62,54.88
3911,E3,637.25,0.25,44,54.88
3912,B3,637.496,0.25,62,54.88
3913,A3,637.746,0.25,61,54.88
3914,A4,637.996,0.25,63,54.88
3915,E3,638.0,1.0,64,54.88
3916,B4,638.246,0.25,65,54.88
3917,C#5,638.496,0.25,67,54.88
3918,D5,638.746,0.25,69,54.88
3919,E5,638.996,0.25,72,54.88
3920,D2,639.0,0.25,57,54.88
3921,F#5,639.246,0.25,74,54.88
3922,E2,639.25,0.25,47,54.88
3923,G4,639.496,0.25,73,54.88
3924,B4,639.496,1.0,73,54.88
3925,F#2,639.5,0.25,50,54.88
3926,F#4,639.746,0.25,68,54.88
3927,G2,639.75,0.25,53,54.88
3928,E4,639.996,0.25,63,54.88
3929,G#2,640.0,0.25,56,54.88
3930,D4,640.246,0.25,62,54.88
3931,A2,640.25,0.25,50,54.88
3932,C#4,640.496,0.25,62,54.88
3933,B3,640.746,0.25,61,54.88
3934,B4,640.996,0.25,63,54.88
3935,F#3,641.0,1.0,65,54.88
3936,A2,641.0,1.0,65,54.88
3937,C#5,641.246,0.25,65,54.88
3938,G4,641.496,1.0,65,54.88
3939,D5,641.496,0.25,67,54.88
3940,E5,641.746,0.25,69,54.88
3941,F#5,641.996,0.25,72,54.88
3942,F#2,642.0,0.25,57,54.88
3943,G5,642.246,0.25,74,54.88
3944,G2,642.25,0.25,47,54.88
3945,E5,642.496,0.25,80,54.88
3946,G5,642.496,1.0,80,54.88
3947,A2,642.5,0.25,50,54.88
3948,D5,642.746,0.25,74,54.88
3949,B2,642.75,0.25,53,54.88
3950,C#5,642.996,0.25,69,54.88
3951,C#3,643.0,0.25,56,54.88
3952,B4,643.246,0.25,68,54.88
3953,D3,643.25,0.25,50,54.88
3954,A4,643.496,0.25,68,54.88
3955,G4,643.746,0.25,67,54.88
3956,G5,643.996,0.25,69,54.88
3957,D3,644.0,1.0,65,54.88
3958,A3,644.0,1.0,65,54.88
3959,A5,644.246,0.25,68,54.88
3960,G5,644.496,1.0,71,54.88
3961,B5,644.496,0.25,73,54.88
3962,C#6,644.746,0.25,75,54.88
3963,D6,644.996,0.25,79,54.88
3964,G2,645.0,0.25,57,54.88
3965,E6,645.246,0.25,81,54.88
3966,A2,645.25,0.25,47,54.88
3967,F#5,645.496,1.0,71,54.88
3968,F#6,645.496,0.25,85,54.88
3969,B2,645.5,0.25,50,54.88
3970,E6,645.746,0.25,83,54.88
3971,C#3,645.75,0.25,53,54.88
3972,D6,645.996,0.25,80,54.88
3973,D3,646.0,0.25,56,54.88
3974,C#6,646.246,0.25,78,54.88
3975,E3,646.25,0.25,50,54.88
3976,B5,646.496,0.25,76,54.88
3977,A5,646.746,0.25,73,54.88
3978,E3,647.0,1.0,65,54.88
3979,A5,647.496,1.0,71,54.88
3980,C#3,648.0,0.25,62,54.88
3981,D3,648.25,0.25,51,54.88
3982,D5,648.496,1.0,71,54.88
3983,D6,648.496,0.25,85,54.88
3984,E3,648.5,0.25,55,54.88
3985,C#6,648.746,0.25,83,54.88
3986,F#3,648.75,0.25,58,54.88
3987,B5,648.996,0.25,80,54.88
3988,G3,649.0,0.25,61,54.88
3989,A5,649.246,0.25,78,54.88
3990,A3,649.25,0.25,55,54.88
3991,G5,649.496,0.25,76,54.88
3992,F#5,649.746,0.25,73,54.88
3993,A3,650.0,1.0,71,54.88
3994,F#5,650.496,1.0,71,54.88
3995,D3,651.0,0.25,67,54.88
3996,C#3,651.25,0.25,64,54.88
3997,B2,651.5,0.25,62,54.88
3998,A2,651.75,0.25,60,54.88
3999,G2,652.0,0.25,57,54.88
4000,F#2,652.25,0.25,55,54.88
4001,F#3,652.5,0.25,55,54.88
4002,G3,652.75,0.25,58,54.88
4003,D5,652.996,0.25,69,54.88
4004,A3,653.0,0.25,62,54.88
4005,E5,653.246,0.25,70,54.88
4006,B3,653.25,0.25,65,54.88
4007,F#5,653.496,0.25,72,54.88
4008,C#4,653.5,0.25,69,54.88
4009,G5,653.746,0.25,73,54.88
4010,D4,653.75,0.25,72,54.88
4011,A5,653.996,0.25,74,54.88
4012,B2,654.0,0.25,67,54.88
4013,B-5,654.246,0.25,75,54.88
4014,A2,654.25,0.25,64,54.88
4015,B5,654.496,0.25,76,54.88
4016,G2,654.5,0.25,62,54.88
4017,A5,654.746,0.25,71,54.88
4018,F#2,654.75,0.25,60,54.88
4019,G5,654.996,0.25,71,54.88
4020,E2,655.0,0.25,57,54.88
4021,F#5,655.246,0.25,70,54.88
4022,D2,655.25,0.25,55,54.88
4023,E5,655.496,0.25,69,54.88
4024,D3,655.5,0.25,55,54.88
4025,D5,655.746,0.25,68,54.88
4026,E3,655.75,0.25,58,54.88
4027,G5,655.996,0.25,77,54.88
4028,F#3,656.0,0.25,62,54.88
4029,F#5,656.246,0.25,71,54.88
4030,G3,656.25,0.25,65,54.88
4031,E5,656.496,0.25,70,54.88
4032,A3,656.5,0.25,69,54.88
4033,D5,656.746,0.25,69,54.88
4034,B3,656.75,123/500,72,54.88
4035,C5,656.996,0.25,68,54.88
4036,G3,657.0,0.25,66,54.88
4037,B3,657.0,0.25,66,54.88
4038,B4,657.246,0.25,66,54.88
4039,A3,657.25,0.25,64,54.88
4040,F#3,657.25,0.25,64,54.88
4041,E5,657.496,0.25,78,54.88
4042,E3,657.5,0.25,62,54.88
4043,G3,657.5,0.25,62,54.88
4044,D5,657.746,0.25,69,54.88
4045,D3,657.75,0.25,59,54.88
4046,F#3,657.75,0.25,59,54.88
4047,C#5,657.996,0.25,67,54.88
4048,C#3,658.0,0.25,57,54.88
4049,E3,658.0,0.25,57,54.88
4050,B4,658.246,0.25,66,54.88
4051,B2,658.25,0.25,56,54.88
4052,D3,658.25,0.25,56,54.88
4053,A4,658.496,0.25,67,54.88
4054,G#4,658.746,0.25,63,54.88
4055,G4,658.996,1.5,63,54.88
4056,E4,658.996,0.25,63,54.88
4057,B2,659.0,1.0,56,54.88
4058,D3,659.0,1.0,56,54.88
4059,D4,659.246,0.25,59,54.88
4060,C#4,659.496,0.25,63,54.88
4061,B3,659.746,0.25,59,54.88
4062,A3,659.996,0.25,58,54.88
4063,G2,660.0,0.25,65,54.88
4064,G#3,660.246,0.25,57,54.88
4065,A2,660.25,0.25,59,54.88
4066,E4,660.496,0.25,62,54.88
4067,G4,660.496,1.0,63,54.88
4068,B2,660.5,0.25,59,54.88
4069,D4,660.746,0.25,57,54.88
4070,C3,660.75,0.25,58,54.88
4071,C#4,660.996,0.25,57,54.88
4072,D3,661.0,0.25,57,54.88
4073,D4,661.246,0.25,57,54.88
4074,E3,661.25,0.25,56,54.88
4075,F#4,661.496,2.0,70,54.88
4076,E4,661.496,1.25,70,54.88
4077,B2,661.5,0.25,64,54.88
4078,C3,661.75,0.25,59,54.88
4079,D3,662.0,0.25,58,54.88
4080,E3,662.25,0.25,57,54.88
4081,F#3,662.5,0.25,55,54.88
4082,C#4,662.746,0.25,58,54.88
4083,G3,662.75,0.25,54,54.88
4084,D4,662.996,0.25,58,54.88
4085,A2,663.0,0.25,64,54.88
4086,E4,663.246,0.25,58,54.88
4087,B2,663.25,0.25,58,54.88
4088,D4,663.496,2.0,65,54.88
4089,F#4,663.496,1.0,65,54.88
4090,C#3,663.5,0.25,57,54.88
4091,D3,663.75,0.25,55,54.88
4092,E3,664.0,0.25,54,54.88
4093,F3,664.25,0.25,58,54.88
4094,B4,664.496,2.0,68,54.88
4095,A2,664.5,0.25,54,54.88
4096,B2,664.75,0.25,51,54.88
4097,C#3,665.0,0.25,54,54.88
4098,D3,665.25,0.25,52,54.88
4099,C#3,665.5,0.25,52,54.88
4100,D4,665.746,0.25,52,54.88
4101,B2,665.75,0.25,52,54.88
4102,B3,665.996,0.25,57,54.88
4103,B-2,666.0,1.25,60,54.88
4104,F4,666.246,0.25,52,54.88
4105,F#4,666.496,1.0,57,54.88
4106,B4,666.496,0.5,68,54.88
4107,G#2,667.25,0.25,50,54.88
4108,D4,667.496,0.25,57,54.88
4109,F#2,667.5,0.25,50,54.88
4110,F#4,667.746,0.25,52,54.88
4111,G#2,667.75,0.25,50,54.88
4112,G#4,667.996,0.5,57,54.88
4113,F4,667.996,0.25,48,54.88
4114,B-2,668.0,1.0,60,54.88
4115,E4,668.246,0.25,52,54.88
4116,G4,668.496,0.5,63,54.88
4117,B-3,668.496,0.25,57,54.88
4118,E4,668.746,0.25,50,54.88
4119,F#4,668.996,0.5,58,54.88
4120,D4,668.996,0.25,48,54.88
4121,B2,669.0,0.25,50,54.88
4122,A3,669.246,0.25,51,54.88
4123,C#3,669.25,0.25,46,54.88
4124,B-3,669.496,1.0,68,54.88
4125,F#4,669.496,0.5,58,54.88
4126,B2,669.5,0.25,46,54.88
4127,A2,669.75,0.25,46,54.88
4128,E4,669.996,0.5,57,54.88
4129,G#2,670.0,0.25,50,54.88
4130,D3,670.25,0.25,48,54.88
4131,B-3,670.496,1.5,65,54.88
4132,B2,670.5,0.25,48,54.88
4133,F3,670.75,0.25,48,54.88
4134,G3,670.996,0.5,65,54.88
4135,G#3,671.0,0.25,56,54.88
4136,E3,671.496,1.0,65,54.88
4137,B-3,671.996,0.5,65,54.88
4138,A2,672.0,0.25,57,54.88
4139,F#3,672.25,0.25,52,54.88
4140,F#3,672.496,0.75,65,54.88
4141,B-3,672.496,0.25,65,54.88
4142,D3,672.5,0.25,57,54.88
4143,G#3,672.746,0.25,57,54.88
4144,A3,672.75,0.25,52,54.88
4145,A3,672.996,0.75,65,54.88
4146,F#3,673.0,0.25,57,54.88
4147,F3,673.246,0.25,60,54.88
4148,D4,673.25,0.25,49,54.88
4149,F#3,673.496,0.75,65,54.88
4150,B2,673.5,0.5,57,54.88
4151,C#4,673.746,0.25,58,54.88
4152,D4,673.996,0.75,65,54.88
4153,C#3,674.0,0.5,59,54.88
4154,G3,674.246,0.25,60,54.88
4155,A3,674.496,0.75,65,54.88
4156,D3,674.5,0.5,65,54.88
4157,C#4,674.746,0.25,58,54.88
4158,D4,674.996,0.5,65,54.88
4159,G1,675.0,0.5,80,54.88
4160,B-3,675.246,0.25,60,54.88
4161,B3,675.496,0.75,65,54.88
4162,D4,675.496,0.25,65,54.88
4163,F3,675.746,0.25,58,54.88
4164,F#3,675.996,0.75,65,54.88
4165,C#3,676.0,167/1000,71,54.88
4166,D3,676.167,167/1000,63,54.88
4167,C#3,676.246,0.25,60,54.88
4168,C#3,676.333,167/1000,71,54.88
4169,D3,676.496,0.75,65,54.88
4170,D3,676.5,167/1000,62,54.88
4171,C#3,676.667,167/1000,71,54.88
4172,F#3,676.746,0.25,59,54.88
4173,D3,676.833,167/1000,63,54.88
4174,G3,676.996,0.75,65,54.88
4175,C#3,677.0,167/1000,71,54.88
4176,D3,677.167,167/1000,65,54.88
4177,E-3,677.246,0.25,60,54.88
4178,C#3,677.333,167/1000,71,54.88
4179,E3,677.496,0.75,65,54.88
4180,D3,677.5,0.125,65,54.88
4181,C#3,677.625,0.125,65,54.88
4182,A3,677.746,0.25,57,54.88
4183,B2,677.75,0.125,65,54.88
4184,C#3,677.875,0.125,65,54.88
4185,B3,677.996,0.5,65,54.88
4186,D3,678.0,1.0,73,54.88
4187,F#3,678.246,0.25,60,54.88
4188,G3,678.496,0.75,65,54.88
4189,B3,678.496,0.25,65,54.88
4190,B-3,678.746,0.25,59,54.88
4191,B3,678.996,0.75,65,54.88
4192,F#3,679.246,0.25,60,54.88
4193,G3,679.496,0.75,65,54.88
4194,D3,679.5,3/10,69,54.88
4195,E-4,679.746,0.25,56,54.88
4196,C#3,679.75,3/10,68,54.88
4197,E4,679.996,0.75,65,54.88
4198,B2,680.0,3/10,66,54.88
4199,A3,680.246,0.25,60,54.88
4200,A2,680.25,3/10,65,54.88
4201,B3,680.496,0.75,65,54.88
4202,G2,680.5,3/10,64,54.88
4203,F#4,680.746,0.25,59,54.88
4204,F#2,680.75,0.25,62,54.88
4205,G4,680.996,0.5,65,54.88
4206,B2,681.0,1.0,73,54.88
4207,B-3,681.246,0.25,60,54.88
4208,A3,681.496,1.0,60,54.88
4209,G4,681.496,0.5,65,54.88
4210,G#4,681.996,0.5,72,54.88
4211,A4,682.496,1.5,78,54.88
4212,B2,682.5,3/10,69,54.88
4213,A2,682.75,3/10,68,54.88
4214,E4,682.996,0.5,67,54.88
4215,G2,683.0,3/10,66,54.88
4216,F#2,683.25,3/10,65,54.88
4217,C#4,683.496,0.5,73,54.88
4218,E2,683.5,3/10,64,54.88
4219,D2,683.75,0.25,62,54.88
4220,A3,683.996,0.5,65,54.88
4221,G4,683.996,0.5,65,54.88
4222,G2,684.0,1.0,73,54.88
4223,F#4,684.496,1.0,73,54.88
4224,A3,684.496,0.5,65,54.88
4225,B-3,684.996,0.5,65,54.88
4226,B3,685.496,1.5,65,54.88
4227,G2,685.5,3/10,66,54.88
4228,F#2,685.75,3/10,60,54.88
4229,F#4,685.996,0.5,66,54.88
4230,E2,686.0,3/10,66,54.88
4231,E-2,686.25,3/10,57,54.88
4232,E-4,686.496,0.5,71,54.88
4233,E2,686.5,3/10,57,54.88
4234,D2,686.75,0.25,57,54.88
4235,A3,686.996,0.5,65,54.88
4236,B3,686.996,0.5,67,54.88
4237,C#2,687.0,3/10,66,54.88
4238,D2,687.0,1/20,57,54.88
4239,D2,687.25,3/10,58,54.88
4240,G3,687.496,0.5,65,54.88
4241,B3,687.496,0.5,67,54.88
4242,C#2,687.5,3/10,58,54.88
4243,B1,687.75,3/10,58,54.88
4244,B4,687.996,0.5,82,54.88
4245,A1,688.0,3/10,66,54.88
4246,B1,688.25,3/10,61,54.88
4247,C5,688.496,1.5,86,54.88
4248,C#2,688.5,3/10,61,54.88
4249,D2,688.75,3/10,61,54.88
4250,G4,688.996,0.5,69,54.88
4251,E-2,689.0,3/10,66,54.88
4252,E2,689.25,3/10,58,54.88
4253,E4,689.496,0.5,75,54.88
4254,F#2,689.5,3/10,58,54.88
4255,E2,689.75,0.25,58,54.88
4256,C4,689.996,0.5,65,54.88
4257,B4,689.996,0.5,70,54.88
4258,D2,690.0,3/10,66,54.88
4259,E2,690.0,1/20,58,54.88
4260,E2,690.25,3/10,58,54.88
4261,A4,690.496,0.5,76,54.88
4262,C4,690.496,0.5,65,54.88
4263,D2,690.5,3/10,58,54.88
4264,C#2,690.75,3/10,58,54.88
4265,C#4,690.996,0.5,75,54.88
4266,B1,691.0,3/10,66,54.88
4267,C#2,691.25,3/10,61,54.88
4268,D4,691.496,1.5,75,54.88
4269,D2,691.5,3/10,61,54.88
4270,E2,691.75,3/10,61,54.88
4271,A4,691.996,0.5,69,54.88
4272,F2,692.0,3/10,66,54.88
4273,F#2,692.25,3/10,58,54.88
4274,F#4,692.496,0.5,74,54.88
4275,G2,692.5,3/10,58,54.88
4276,F#2,692.75,0.25,58,54.88
4277,C4,692.996,0.5,69,54.88
4278,D4,692.996,0.5,69,54.88
4279,E2,693.0,3/10,66,54.88
4280,F#2,693.0,1/20,58,54.88
4281,F2,693.25,3/10,58,54.88
4282,B3,693.496,0.25,63,54.88
4283,D4,693.496,0.5,69,54.88
4284,E2,693.5,3/10,58,54.88
4285,C4,693.746,3/10,62,54.88
4286,D2,693.75,3/10,58,54.88
4287,D5,693.996,3/10,72,54.88
4288,C2,694.0,3/10,66,54.88
4289,C5,694.246,3/10,69,54.88
4290,D2,694.25,3/10,61,54.88
4291,B4,694.496,1.5,72,54.88
4292,E2,694.5,3/10,61,54.88
4293,F2,694.75,3/10,61,54.88
4294,F#2,695.0,3/10,66,54.88
4295,G2,695.25,3/10,58,54.88
4296,A2,695.5,3/10,58,54.88
4297,G2,695.75,0.25,58,54.88
4298,E5,695.996,0.5,69,54.88
4299,F#2,696.0,3/10,66,54.88
4300,G2,696.0,1/20,58,54.88
4301,G2,696.25,3/10,58,54.88
4302,E5,696.496,0.5,69,54.88
4303,F#2,696.5,3/10,58,54.88
4304,E2,696.75,3/10,58,54.88
4305,E5,696.996,0.25,69,54.88
4306,D2,697.0,3/10,66,54.88
4307,D5,697.246,0.25,65,54.88
4308,E2,697.25,3/10,61,54.88
4309,C5,697.496,1.0,74,54.88
4310,F#2,697.5,3/10,61,54.88
4311,G2,697.75,3/10,61,54.88
4312,G#2,698.0,3/10,66,54.88
4313,A2,698.25,3/10,58,54.88
4314,C#5,698.496,0.5,69,54.88
4315,B2,698.5,3/10,58,54.88
4316,A2,698.75,0.25,58,54.88
4317,F#5,698.996,0.5,75,54.88
4318,G2,699.0,0.5,58,54.88
4319,F#5,699.496,0.5,75,54.88
4320,B3,699.5,3/10,54,54.88
4321,A3,699.75,3/10,54,54.88
4322,F#5,699.996,0.25,70,54.88
4323,G3,700.0,0.5,64,54.88
4324,E5,700.246,0.25,65,54.88
4325,A3,700.25,3/10,57,54.88
4326,D5,700.496,1.5,76,54.88
4327,F3,700.5,0.5,57,54.88
4328,B3,700.5,3/10,57,54.88
4329,C4,700.75,3/10,57,54.88
4330,C#4,701.0,3/10,64,54.88
4331,E3,701.0,0.5,64,54.88
4332,D4,701.25,3/10,57,54.88
4333,G#3,701.5,3/10,57,54.88
4334,D4,701.75,0.25,57,54.88
4335,B4,701.996,0.25,69,54.88
4336,G#3,702.0,1.0,53,54.88
4337,C4,702.0,0.25,49,54.88
4338,G5,702.246,0.25,75,54.88
4339,D4,702.25,0.25,44,54.88
4340,G5,702.496,0.5,75,54.88
4341,C4,702.5,0.25,49,54.88
4342,B3,702.75,0.25,44,54.88
4343,G5,702.996,0.25,69,54.88
4344,A3,703.0,0.5,48,54.88
4345,F5,703.246,0.25,69,54.88
4346,B3,703.25,0.25,44,54.88
4347,E5,703.496,0.5,76,54.88
4348,C4,703.5,0.25,49,54.88
4349,G3,703.5,0.5,48,54.88
4350,D4,703.75,0.25,44,54.88
4351,G5,703.996,0.5,78,54.88
4352,E-4,704.0,0.25,49,54.88
4353,F#3,704.0,0.5,55,54.88
4354,E4,704.25,0.25,45,54.88
4355,F#5,704.496,0.5,81,54.88
4356,B-3,704.5,0.25,49,54.88
4357,E4,704.75,0.25,46,54.88
4358,G5,704.996,0.5,84,54.88
4359,D4,705.0,0.25,49,54.88
4360,B-3,705.0,1.0,51,54.88
4361,E4,705.25,0.25,45,54.88
4362,C6,705.496,0.5,86,54.88
4363,D4,705.5,0.25,49,54.88
4364,C#4,705.75,0.25,43,54.88
4365,B3,706.0,0.5,48,54.88
4366,C#4,706.25,0.25,42,54.88
4367,A4,706.496,167/1000,69,54.88
4368,A3,706.5,0.5,48,54.88
4369,D4,706.5,0.25,49,54.88
4370,B4,706.663,167/1000,63,54.88
4371,E4,706.75,0.25,45,54.88
4372,A4,706.829,167/1000,69,54.88
4373,B4,706.996,167/1000,64,54.88
4374,F4,707.0,0.25,49,54.88
4375,G3,707.0,0.5,55,54.88
4376,A4,707.163,167/1000,69,54.88
4377,F#4,707.25,0.25,45,54.88
4378,B4,707.329,167/1000,63,54.88
4379,A4,707.496,167/1000,69,54.88
4380,F#4,707.496,1.0,69,54.88
4381,G4,707.5,0.25,49,54.88
4382,B4,707.663,167/1000,64,54.88
4383,F4,707.75,0.25,45,54.88
4384,A4,707.829,167/1000,69,54.88
4385,B4,707.996,167/1000,64,54.88
4386,E4,708.0,0.25,49,54.88
4387,B3,708.0,1.0,53,54.88
4388,A4,708.163,167/1000,69,54.88
4389,F4,708.25,0.25,45,54.88
4390,B4,708.329,167/1000,63,54.88
4391,G4,708.496,1.0,69,54.88
4392,E4,708.5,0.25,49,54.88
4393,D4,708.75,0.25,45,54.88
4394,C4,709.0,0.5,48,54.88
4395,D4,709.25,0.25,49,54.88
4396,E4,709.5,0.25,49,54.88
4397,B3,709.5,0.5,50,54.88
4398,D4,709.75,0.25,47,54.88
4399,G4,709.996,0.25,69,54.88
4400,A3,710.0,0.5,51,54.88
4401,C4,710.0,0.25,49,54.88
4402,A4,710.246,0.25,62,54.88
4403,D4,710.25,0.25,47,54.88
4404,B4,710.496,0.25,69,54.88
4405,C4,710.5,0.25,49,54.88
4406,G3,710.5,0.5,52,54.88
4407,C5,710.746,0.25,65,54.88
4408,B3,710.75,0.25,48,54.88
4409,D5,710.996,0.25,65,54.88
4410,A3,711.0,0.25,49,54.88
4411,F#3,711.0,0.5,54,54.88
4412,E5,711.246,0.25,65,54.88
4413,B3,711.25,0.25,49,54.88
4414,B4,711.496,1.0,75,54.88
4415,E3,711.5,0.5,56,54.88
4416,A3,711.5,0.25,49,54.88
4417,G3,711.75,0.25,50,54.88
4418,F#3,712.0,1.0,57,54.88
4419,E-3,712.0,0.25,49,54.88
4420,D3,712.25,0.25,49,54.88
4421,C3,712.5,0.25,54,54.88
4422,D3,712.75,0.25,49,54.88
4423,B4,712.996,0.25,69,54.88
4424,E-3,713.0,0.25,53,54.88
4425,C5,713.246,0.25,63,54.88
4426,D3,713.25,0.25,49,54.88
4427,D5,713.496,0.25,69,54.88
4428,E-3,713.5,0.25,53,54.88
4429,E5,713.746,0.25,69,54.88
4430,C3,713.75,0.25,49,54.88
4431,F#5,713.996,0.25,63,54.88
4432,G5,714.246,0.25,63,54.88
4433,D5,714.496,1.0,75,54.88
4434,B3,714.5,0.25,65,54.88
4435,B2,715.0,1.5,73,54.88
4436,A3,715.5,0.5,57,54.88
4437,D5,715.996,0.25,69,54.88
4438,G3,716.0,1.0,63,54.88
4439,E5,716.246,0.25,63,54.88
4440,F#5,716.496,0.25,69,54.88
4441,E5,716.746,0.25,65,54.88
4442,F#5,716.996,0.25,65,54.88
4443,G5,717.246,0.25,65,54.88
4444,A5,717.496,0.25,69,54.88
4445,G3,717.5,0.25,64,54.88
4446,G#5,717.746,0.25,65,54.88
4447,A5,717.996,0.25,69,54.88
4448,G2,718.0,1.5,69,54.88
4449,B5,718.246,0.25,69,54.88
4450,C6,718.496,0.25,79,54.88
4451,F#3,718.5,0.5,53,54.88
4452,B5,718.746,0.25,71,54.88
4453,A5,718.996,0.25,70,54.88
4454,E3,719.0,0.5,61,54.88
4455,G5,719.246,0.25,67,54.88
4456,F#5,719.496,0.25,70,54.88
4457,D3,719.5,0.5,53,54.88
4458,B2,719.5,0.5,53,54.88
4459,E-5,719.746,0.25,67,54.88
4460,D5,719.996,0.25,67,54.88
4461,A2,720.0,0.5,53,54.88
4462,C3,720.0,0.5,53,54.88
4463,E5,720.246,0.25,67,54.88
4464,F#5,720.496,0.25,75,54.88
4465,C4,720.5,0.5,65,54.88
4466,E5,720.746,0.25,73,54.88
4467,D5,720.996,0.25,71,54.88
4468,C3,721.0,0.5,53,54.88
4469,E3,721.0,0.5,53,54.88
4470,C5,721.246,0.25,69,54.88
4471,B4,721.496,0.25,69,54.88
4472,D3,721.5,0.5,50,54.88
4473,B2,721.5,0.5,50,54.88
4474,A4,721.746,0.25,64,54.88
4475,G4,721.996,0.25,64,54.88
4476,A2,722.0,0.5,53,54.88
4477,C3,722.0,0.5,53,54.88
4478,A4,722.246,0.25,64,54.88
4479,B4,722.496,0.25,64,54.88
4480,G2,722.5,0.5,50,54.88
4481,B2,722.5,0.5,50,54.88
4482,C5,722.746,0.25,66,54.88
4483,D5,722.996,0.25,68,54.88
4484,F#2,723.0,0.5,59,54.88
4485,A2,723.0,1.0,59,54.88
4486,E-5,723.246,0.25,70,54.88
4487,E5,723.496,0.25,72,54.88
4488,E-3,723.5,0.5,53,54.88
4489,G5,723.746,0.25,66,54.88
4490,F#5,723.996,0.25,69,54.88
4491,D3,724.0,2.0,63,54.88
4492,E5,724.246,0.25,66,54.88
4493,D5,724.496,0.25,69,54.88
4494,E3,724.5,0.5,53,54.88
4495,G5,724.746,0.25,64,54.88
4496,F#5,724.996,0.25,67,54.88
4497,F#3,725.0,0.5,53,54.88
4498,G5,725.246,0.25,63,54.88
4499,C#5,725.496,1.0,69,54.88
4500,G3,725.5,0.5,53,54.88
4501,A3,726.0,0.5,53,54.88
4502,D3,726.0,1.5,63,54.88
4503,A4,726.496,0.5,63,54.88
4504,C5,726.496,2.0,75,54.88
4505,B3,726.5,0.5,56,54.88
4506,E-4,726.996,0.5,68,54.88
4507,C4,727.0,0.5,60,54.88
4508,F#4,727.496,0.5,68,54.88
4509,D3,727.5,0.5,53,54.88
4510,B3,727.5,0.5,53,54.88
4511,A4,727.996,1.0,68,54.88
4512,A3,728.0,0.5,53,54.88
4513,C3,728.0,0.5,53,54.88
4514,B4,728.496,1.0,75,54.88
4515,G3,728.5,0.5,49,54.88
4516,B2,728.5,0.5,49,54.88
4517,G4,728.996,0.5,69,54.88
4518,C3,729.0,1.0,53,54.88
4519,G3,729.0,0.5,49,54.88
4520,C#5,729.496,0.5,73,54.88
4521,C4,729.5,1.0,53,54.88
4522,D5,729.996,0.5,76,54.88
4523,D3,730.0,1.0,58,54.88
4524,G4,730.496,0.5,72,54.88
4525,E5,730.496,0.5,72,54.88
4526,B3,730.5,0.5,53,54.88
4527,F#5,730.996,0.5,81,54.88
4528,B-3,731.0,0.25,64,54.88
4529,E3,731.0,1.0,64,54.88
4530,G4,731.25,0.25,55,54.88
4531,G5,731.496,1.0,90,54.88
4532,F#4,731.5,0.25,56,54.88
4533,G4,731.75,0.25,56,54.88
4534,F#3,732.0,3/10,61,54.88
4535,A3,732.25,3/10,56,54.88
4536,G5,732.496,0.5,90,54.88
4537,G3,732.5,3/10,56,54.88
4538,F#3,732.75,3/10,56,54.88
4539,F#5,732.996,0.5,80,54.88
4540,E3,733.0,3/10,60,54.88
4541,D3,733.25,3/10,55,54.88
4542,E5,733.496,0.5,85,54.88
4543,E3,733.5,3/10,55,54.88
4544,F#3,733.75,3/10,55,54.88
4545,G5,733.996,0.25,80,54.88
4546,G3,734.0,3/10,61,54.88
4547,F#5,734.246,0.25,69,54.88
4548,D3,734.25,3/10,55,54.88
4549,F#4,734.496,1.0,79,54.88
4550,G3,734.5,3/10,55,54.88
4551,F#3,734.75,0.25,55,54.88
4552,E3,735.0,3/10,60,54.88
4553,F#3,735.0,1/20,55,54.88
4554,F#3,735.25,3/10,53,54.88
4555,E3,735.5,3/10,53,54.88
4556,D3,735.75,3/10,53,54.88
4557,C#3,736.0,3/10,60,54.88
4558,D3,736.25,3/10,54,54.88
4559,C#3,736.5,3/10,55,54.88
4560,B2,736.75,0.25,55,54.88
4561,E5,736.996,0.25,80,54.88
4562,D3,737.0,167/1000,60,54.88
4563,A2,737.0,0.5,60,54.88
4564,E3,737.167,167/1000,55,54.88
4565,D5,737.246,0.25,69,54.88
4566,D3,737.333,167/1000,60,54.88
4567,D4,737.496,1.0,79,54.88
4568,E3,737.5,167/1000,55,54.88
4569,G#2,737.5,0.5,55,54.88
4570,D3,737.667,167/1000,60,54.88
4571,E3,737.833,167/1000,54,54.88
4572,D3,738.0,167/1000,60,54.88
4573,A2,738.0,2.0,63,54.88
4574,E3,738.167,167/1000,56,54.88
4575,D3,738.333,167/1000,60,54.88
4576,E3,738.5,0.125,60,54.88
4577,D3,738.625,0.125,55,54.88
4578,C#3,738.75,0.125,55,54.88
4579,D3,738.875,0.125,55,54.88
4580,C#3,739.0,1.0,60,54.88
4581,B5,739.996,0.25,80,54.88
4582,A5,740.246,0.25,69,54.88
4583,F#5,740.496,0.25,70,54.88
4584,D3,740.5,0.25,61,54.88
4585,B2,740.5,0.5,61,54.88
4586,D5,740.746,0.25,64,54.88
4587,E3,740.75,0.25,56,54.88
4588,C#5,740.996,0.25,64,54.88
4589,A2,741.0,1.0,60,54.88
4590,F#3,741.0,0.25,60,54.88
4591,B4,741.246,0.25,64,54.88
4592,G3,741.25,0.25,62,54.88
4593,B-4,741.496,1.0,73,54.88
4594,C#4,741.496,0.25,62,54.88
4595,A3,741.5,0.25,64,54.88
4596,C4,741.746,0.25,62,54.88
4597,B3,741.75,0.25,66,54.88
4598,C#4,741.996,0.25,62,54.88
4599,F#3,742.0,1.0,66,54.88
4600,E-4,742.246,0.25,62,54.88
4601,A4,742.496,1.5,69,54.88
4602,E4,742.496,0.25,58,54.88
4603,E-4,742.746,0.25,60,54.88
4604,E4,742.996,0.25,60,54.88
4605,F#4,743.246,0.25,60,54.88
4606,G4,743.496,0.25,68,54.88
4607,G2,743.5,0.5,61,54.88
4608,F#3,743.5,0.25,61,54.88
4609,F#4,743.746,0.25,61,54.88
4610,G3,743.75,0.25,56,54.88
4611,B4,743.996,0.25,64,54.88
4612,E4,743.996,0.25,64,54.88
4613,F#3,744.0,1.0,60,54.88
4614,A3,744.0,0.25,60,54.88
4615,D4,744.246,0.25,62,54.88
4616,B3,744.25,0.25,62,54.88
4617,C#5,744.496,0.25,74,54.88
4618,C#4,744.5,0.25,64,54.88
4619,C5,744.746,0.25,63,54.88
4620,D4,744.75,0.25,66,54.88
4621,C#5,744.996,0.25,63,54.88
4622,A3,745.0,1.0,66,54.88
4623,D5,745.246,0.25,63,54.88
4624,E5,745.496,0.25,68,54.88
4625,E-5,745.746,0.25,67,54.88
4626,E5,745.996,0.25,68,54.88
4627,F#5,746.246,0.25,70,54.88
4628,G5,746.496,0.25,71,54.88
4629,D3,746.5,0.5,53,54.88
4630,A3,746.5,0.25,53,54.88
4631,F#5,746.746,0.25,68,54.88
4632,B3,746.75,0.25,47,54.88
4633,E5,746.996,0.25,64,54.88
4634,E3,747.0,0.25,53,54.88
4635,D5,747.246,0.25,64,54.88
4636,E-3,747.25,0.25,47,54.88
4637,C#5,747.496,0.25,68,54.88
4638,E3,747.5,0.25,47,54.88
4639,B-4,747.746,0.25,60,54.88
4640,F#3,747.75,0.25,47,54.88
4641,A4,747.996,0.25,60,54.88
4642,G3,748.0,0.25,53,54.88
4643,B4,748.246,0.25,60,54.88
4644,F#3,748.25,0.25,47,54.88
4645,C5,748.496,0.25,68,54.88
4646,G3,748.5,0.25,47,54.88
4647,B4,748.746,0.25,62,54.88
4648,A3,748.75,0.25,47,54.88
4649,A4,748.996,0.25,62,54.88
4650,B3,749.0,0.25,53,54.88
4651,G4,749.246,0.25,62,54.88
4652,A3,749.25,0.25,47,54.88
4653,F#4,749.496,0.25,68,54.88
4654,G3,749.5,0.25,47,54.88
4655,G4,749.746,0.25,64,54.88
4656,G#3,749.75,0.25,47,54.88
4657,A4,749.996,0.25,64,54.88
4658,A2,750.0,0.5,47,54.88
4659,A3,750.0,0.25,47,54.88
4660,B4,750.246,0.25,64,54.88
4661,G#3,750.25,0.25,42,54.88
4662,C5,750.496,167/1000,77,54.88
4663,A3,750.5,0.25,46,54.88
4664,D5,750.663,167/1000,69,54.88
4665,B3,750.75,0.25,49,54.88
4666,C5,750.829,167/1000,74,54.88
4667,D5,750.996,167/1000,68,54.88
4668,C#4,751.0,0.5,53,54.88
4669,C5,751.163,167/1000,71,54.88
4670,D5,751.329,167/1000,66,54.88
4671,C5,751.496,167/1000,70,54.88
4672,C#3,751.5,0.25,47,54.88
4673,A2,751.5,1.0,47,54.88
4674,D5,751.663,167/1000,62,54.88
4675,D3,751.75,0.25,41,54.88
4676,C5,751.829,167/1000,69,54.88
4677,D5,751.996,167/1000,63,54.88
4678,E4,751.996,0.25,57,54.88
4679,E3,752.0,1.0,52,54.88
4680,C5,752.163,167/1000,68,54.88
4681,F#4,752.246,0.25,43,54.88
4682,D5,752.329,167/1000,67,54.88
4683,G4,752.496,1.0,64,54.88
4684,B4,752.496,1.0,64,54.88
4685,B2,752.5,0.5,40,54.88
4686,C#3,753.0,0.5,53,54.88
4687,E3,753.0,0.5,52,54.88
4688,A4,753.496,167/1000,77,54.88
4689,F#3,753.5,0.25,47,54.88
4690,D3,753.5,1.5,47,54.88
4691,B4,753.663,167/1000,69,54.88
4692,G3,753.75,0.25,42,54.88
4693,A4,753.829,167/1000,74,54.88
4694,B4,753.996,167/1000,68,54.88
4695,A3,754.0,0.25,47,54.88
4696,A4,754.163,167/1000,71,54.88
4697,G3,754.25,0.25,41,54.88
4698,B4,754.329,167/1000,66,54.88
4699,A4,754.496,167/1000,70,54.88
4700,F#3,754.5,0.25,41,54.88
4701,B4,754.663,167/1000,62,54.88
4702,E3,754.75,0.25,41,54.88
4703,A4,754.829,167/1000,69,54.88
4704,B4,754.996,167/1000,63,54.88
4705,C#4,754.996,0.25,57,54.88
4706,D3,755.0,0.25,47,54.88
4707,A4,755.163,167/1000,68,54.88
4708,E-4,755.246,0.25,43,54.88
4709,E3,755.25,0.25,43,54.88
4710,B4,755.329,167/1000,67,54.88
4711,G#4,755.496,0.25,46,54.88
4712,E4,755.496,1.0,64,54.88
4713,F#3,755.5,0.25,43,54.88
4714,B4,755.746,0.25,40,54.88
4715,G3,755.75,0.25,43,54.88
4716,G#4,755.996,0.25,46,54.88
4717,A3,756.0,0.25,43,54.88
4718,E4,756.246,0.25,43,54.88
4719,B3,756.25,0.25,39,54.88
4720,G4,756.496,167/1000,73,54.88
4721,C4,756.5,0.25,43,54.88
4722,A4,756.663,167/1000,66,54.88
4723,D4,756.75,0.25,39,54.88
4724,G4,756.829,167/1000,70,54.88
4725,A4,756.996,167/1000,65,54.88
4726,E4,757.0,0.25,49,54.88
4727,G4,757.163,167/1000,68,54.88
4728,D4,757.25,0.25,43,54.88
4729,A4,757.329,167/1000,63,54.88
4730,G4,757.496,167/1000,67,54.88
4731,D3,757.5,0.5,43,54.88
4732,A4,757.663,167/1000,59,54.88
4733,G4,757.829,167/1000,66,54.88
4734,A4,757.996,167/1000,60,54.88
4735,B3,757.996,0.25,57,54.88
4736,G3,758.0,0.25,46,54.88
4737,G4,758.163,167/1000,65,54.88
4738,C#4,758.246,0.25,43,54.88
4739,B3,758.25,0.25,40,54.88
4740,A4,758.329,167/1000,64,54.88
4741,F#4,758.496,0.25,52,54.88
4742,D4,758.496,1.0,64,54.88
4743,G3,758.5,0.25,46,54.88
4744,A4,758.746,0.25,46,54.88
4745,E3,758.75,0.25,43,54.88
4746,F#4,758.996,0.25,52,54.88
4747,F#3,759.0,0.25,43,54.88
4748,D4,759.246,0.25,49,54.88
4749,E3,759.25,0.25,39,54.88
4750,F#4,759.496,0.25,50,54.88
4751,F#3,759.5,0.25,43,54.88
4752,E4,759.746,0.25,46,54.88
4753,G3,759.75,0.25,39,54.88
4754,F#4,759.996,0.25,48,54.88
4755,A3,760.0,0.25,49,54.88
4756,G4,760.246,0.25,40,54.88
4757,B3,760.25,0.25,43,54.88
4758,A4,760.496,0.25,48,54.88
4759,B2,760.5,0.5,43,54.88
4760,B4,760.746,0.25,50,54.88
4761,B5,760.996,0.5,73,54.88
4762,C#5,760.996,0.25,60,54.88
4763,E3,761.0,1.0,52,54.88
4764,E-5,761.246,0.25,55,54.88
4765,E5,761.496,0.5,83,54.88
4766,E6,761.996,0.5,84,54.88
4767,E3,762.0,0.25,43,54.88
4768,D3,762.25,0.25,39,54.88
4769,E4,762.496,0.25,50,54.88
4770,E3,762.5,0.25,43,54.88
4771,D4,762.746,0.25,46,54.88
4772,F#3,762.75,0.25,39,54.88
4773,E4,762.996,0.25,48,54.88
4774,G3,763.0,0.25,49,54.88
4775,F#4,763.246,0.25,40,54.88
4776,A3,763.25,0.25,43,54.88
4777,G4,763.496,0.25,48,54.88
4778,A2,763.5,0.5,43,54.88
4779,A4,763.746,0.25,50,54.88
4780,A5,763.996,0.5,73,54.88
4781,B4,763.996,0.25,61,54.88
4782,D3,764.0,1.0,52,54.88
4783,C#5,764.246,0.25,55,54.88
4784,D5,764.496,0.5,83,54.88
4785,D6,764.996,0.5,84,54.88
4786,A3,765.0,167/1000,66,54.88
4787,B3,765.167,167/1000,59,54.88
4788,A3,765.333,167/1000,63,54.88
4789,D4,765.496,0.25,50,54.88
4790,B3,765.5,167/1000,58,54.88
4791,A3,765.667,167/1000,60,54.88
4792,C4,765.746,0.25,46,54.88
4793,B3,765.833,167/1000,57,54.88
4794,D4,765.996,0.25,48,54.88
4795,A3,766.0,167/1000,59,54.88
4796,B3,766.167,167/1000,53,54.88
4797,E-4,766.246,0.25,40,54.88
4798,A3,766.333,167/1000,59,54.88
4799,F4,766.496,0.25,48,54.88
4800,B3,766.5,167/1000,54,54.88
4801,A3,766.667,167/1000,58,54.88
4802,G4,766.746,0.25,50,54.88
4803,B3,766.833,167/1000,57,54.88
4804,G5,766.996,0.5,73,54.88
4805,A4,766.996,0.25,61,54.88
4806,G#3,767.0,0.25,54,54.88
4807,B4,767.246,0.25,55,54.88
4808,B3,767.25,0.25,42,54.88
4809,C5,767.496,0.5,83,54.88
4810,G#3,767.5,0.25,50,54.88
4811,E3,767.75,0.25,40,54.88
4812,C6,767.996,0.5,84,54.88
4813,G3,768.0,167/1000,66,54.88
4814,A3,768.167,167/1000,59,54.88
4815,G3,768.333,167/1000,63,54.88
4816,C6,768.496,0.25,84,54.88
4817,A3,768.5,167/1000,58,54.88
4818,G3,768.667,167/1000,60,54.88
4819,E5,768.746,0.25,78,54.88
4820,A3,768.833,167/1000,57,54.88
4821,F5,768.996,0.25,84,54.88
4822,G3,769.0,167/1000,59,54.88
4823,A3,769.167,167/1000,53,54.88
4824,G5,769.246,0.25,89,54.88
4825,G3,769.333,167/1000,59,54.88
4826,G#5,769.496,0.5,94,54.88
4827,A3,769.5,167/1000,54,54.88
4828,G3,769.667,167/1000,58,54.88
4829,E4,769.746,0.25,55,54.88
4830,A3,769.833,167/1000,57,54.88
4831,F4,769.996,0.25,57,54.88
4832,F#3,770.0,0.25,54,54.88
4833,G4,770.246,0.25,58,54.88
4834,A3,770.25,0.25,42,54.88
4835,G#4,770.496,1.0,59,54.88
4836,F#3,770.5,0.25,50,54.88
4837,B-4,770.746,0.25,61,54.88
4838,D3,770.75,0.25,40,54.88
4839,C5,770.996,0.25,62,54.88
4840,F3,771.0,167/1000,66,54.88
4841,G3,771.167,167/1000,59,54.88
4842,D5,771.246,0.25,65,54.88
4843,F3,771.333,167/1000,63,54.88
4844,E-5,771.496,1.0,70,54.88
4845,G#4,771.496,0.25,59,54.88
4846,G3,771.5,167/1000,58,54.88
4847,F3,771.667,167/1000,60,54.88
4848,G4,771.746,0.25,58,54.88
4849,G3,771.833,167/1000,57,54.88
4850,B-4,771.996,3/10,62,54.88
4851,F3,772.0,167/1000,59,54.88
4852,G3,772.167,167/1000,53,54.88
4853,G#4,772.246,3/10,58,54.88
4854,F3,772.333,167/1000,59,54.88
4855,G4,772.496,3/10,62,54.88
4856,G3,772.5,167/1000,54,54.88
4857,F3,772.667,167/1000,58,54.88
4858,F4,772.746,3/10,55,54.88
4859,G3,772.833,167/1000,57,54.88
4860,E-4,772.996,3/10,55,54.88
4861,E-3,773.0,0.25,54,54.88
4862,D4,773.246,3/10,55,54.88
4863,G3,773.25,0.25,49,54.88
4864,E-5,773.496,3/10,62,54.88
4865,E-4,773.496,1.0,62,54.88
4866,E-3,773.5,0.25,59,54.88
4867,D5,773.746,3/10,58,54.88
4868,C3,773.75,0.25,54,54.88
4869,C5,773.996,3/10,58,54.88
4870,G#3,774.0,0.5,73,54.88
4871,B-4,774.246,0.25,58,54.88
4872,E-5,774.496,0.25,62,54.88
4873,E-4,774.496,1.0,62,54.88
4874,B-4,774.746,3/10,55,54.88
4875,E-5,774.996,3/10,62,54.88
4876,F2,775.0,167/1000,66,54.88
4877,G2,775.167,167/1000,59,54.88
4878,D5,775.246,3/10,55,54.88
4879,F2,775.333,167/1000,63,54.88
4880,C5,775.496,3/10,62,54.88
4881,G2,775.5,167/1000,58,54.88
4882,F2,775.667,167/1000,60,54.88
4883,B-4,775.746,3/10,61,54.88
4884,G2,775.833,167/1000,57,54.88
4885,G#4,775.996,3/10,60,54.88
4886,F2,776.0,167/1000,59,54.88
4887,G2,776.167,167/1000,53,54.88
4888,G4,776.246,0.25,59,54.88
4889,F2,776.333,167/1000,59,54.88
4890,G5,776.496,1.0,73,54.88
4891,E-5,776.496,3/10,73,54.88
4892,G2,776.5,167/1000,54,54.88
4893,F2,776.667,167/1000,58,54.88
4894,D5,776.746,3/10,60,54.88
4895,G2,776.833,167/1000,57,54.88
4896,C5,776.996,3/10,66,54.88
4897,E-2,777.0,1.0,63,54.88
4898,B-4,777.246,0.25,60,54.88
4899,D5,777.496,1.0,73,54.88
4900,G5,777.496,0.25,73,54.88
4901,B-4,777.496,1/20,60,54.88
4902,F5,777.746,3/10,66,54.88
4903,G#5,777.996,3/10,69,54.88
4904,G5,778.246,3/10,62,54.88
4905,F5,778.496,3/10,69,54.88
4906,E-2,778.5,3/10,53,54.88
4907,E-5,778.746,3/10,68,54.88
4908,F2,778.75,3/10,54,54.88
4909,D5,778.996,3/10,66,54.88
4910,G2,779.0,3/10,56,54.88
4911,C5,779.246,0.25,64,54.88
4912,G#2,779.25,3/10,57,54.88
4913,B-4,779.496,1.0,69,54.88
4914,F4,779.496,3/10,69,54.88
4915,B-2,779.5,3/10,59,54.88
4916,G4,779.746,3/10,55,54.88
4917,C3,779.75,0.25,60,54.88
4918,F4,779.996,3/10,62,54.88
4919,G2,780.0,0.5,67,54.88
4920,E-4,780.246,0.25,58,54.88
4921,D4,780.496,3/10,68,54.88
4922,B-4,780.496,1.25,69,54.88
4923,E-4,780.496,1/20,58,54.88
4924,C4,780.746,3/10,59,54.88
4925,D4,780.996,3/10,59,54.88
4926,E-4,781.246,3/10,59,54.88
4927,F4,781.496,1.25,62,54.88
4928,G2,781.5,3/10,53,54.88
4929,C5,781.746,3/10,59,54.88
4930,G#2,781.75,3/10,54,54.88
4931,D5,781.996,3/10,61,54.88
4932,B-2,782.0,3/10,56,54.88
4933,E-5,782.246,3/10,64,54.88
4934,C3,782.25,3/10,57,54.88
4935,F5,782.496,1.0,70,54.88
4936,D3,782.5,3/10,59,54.88
4937,G4,782.746,3/10,60,54.88
4938,E-3,782.75,0.25,60,54.88
4939,G#4,782.996,3/10,63,54.88
4940,B-2,783.0,0.5,67,54.88
4941,A4,783.246,0.25,65,54.88
4942,B-4,783.496,1.25,68,54.88
4943,A4,783.496,1/20,65,54.88
4944,F5,783.496,0.25,70,54.88
4945,G5,783.746,3/10,62,54.88
4946,G#5,783.996,3/10,67,54.88
4947,A5,784.246,3/10,70,54.88
4948,B-5,784.496,1.0,72,54.88
4949,B-2,784.5,3/10,53,54.88
4950,C5,784.746,3/10,62,54.88
4951,C3,784.75,3/10,54,54.88
4952,D5,784.996,3/10,65,54.88
4953,D3,785.0,3/10,56,54.88
4954,E-5,785.246,3/10,69,54.88
4955,C3,785.25,3/10,57,54.88
4956,F5,785.496,3/10,66,54.88
4957,G#5,785.496,3/10,66,54.88
4958,D3,785.5,3/10,59,54.88
4959,E-5,785.746,3/10,62,54.88
4960,G5,785.746,3/10,62,54.88
4961,E-3,785.75,0.25,60,54.88
4962,D5,785.996,3/10,64,54.88
4963,F5,785.996,3/10,64,54.88
4964,F3,786.0,3/10,62,54.88
4965,E-3,786.0,1/20,60,54.88
4966,E-5,786.246,0.25,70,54.88
4967,E3,786.25,3/10,56,54.88
4968,C6,786.496,0.5,87,54.88
4969,F3,786.5,3/10,56,54.88
4970,G3,786.75,3/10,56,54.88
4971,G#3,787.0,3/10,63,54.88
4972,G3,787.25,3/10,54,54.88
4973,G#4,787.496,167/1000,75,54.88
4974,F3,787.5,3/10,54,54.88
4975,B-4,787.663,167/1000,67,54.88
4976,E-3,787.75,3/10,54,54.88
4977,G#4,787.829,167/1000,72,54.88
4978,B-4,787.996,167/1000,62,54.88
4979,D3,788.0,3/10,61,54.88
4980,G#4,788.163,167/1000,67,54.88
4981,E-3,788.25,3/10,54,54.88
4982,B-4,788.329,167/1000,61,54.88
4983,G#4,788.496,167/1000,67,54.88
4984,D3,788.5,3/10,54,54.88
4985,B-4,788.663,167/1000,62,54.88
4986,C3,788.75,0.25,54,54.88
4987,G#4,788.829,167/1000,67,54.88
4988,B-4,788.996,167/1000,61,54.88
4989,B-2,789.0,3/10,56,54.88
4990,C3,789.0,1/20,54,54.88
4991,G#4,789.163,167/1000,67,54.88
4992,C3,789.25,3/10,51,54.88
4993,B-4,789.329,167/1000,62,54.88
4994,F5,789.496,3/10,70,54.88
4995,B-2,789.5,3/10,51,54.88
4996,G5,789.746,3/10,72,54.88
4997,G#2,789.75,3/10,51,54.88
4998,G#5,789.996,3/10,73,54.88
4999,G2,790.0,3/10,56,54.88
5000,B-5,790.246,3/10,75,54.88
5001,G#2,790.25,3/10,50,54.88
5002,C6,790.496,0.25,76,54.88
5003,B-2,790.5,3/10,50,54.88
5004,D6,790.746,0.25,78,54.88
5005,C3,790.75,3/10,50,54.88
5006,E-6,790.996,0.25,80,54.88
5007,D3,791.0,3/10,59,54.88
5008,E6,791.246,0.25,81,54.88
5009,E-3,791.25,3/10,52,54.88
5010,F6,791.496,0.25,83,54.88
5011,F3,791.5,3/10,57,54.88
5012,G6,791.746,0.25,84,54.88
5013,G3,791.75,0.25,62,54.88
5014,G#6,791.996,0.5,86,54.88
5015,G#2,792.0,3/10,60,54.88
5016,B-2,792.25,3/10,61,54.88
5017,B-6,792.496,0.5,100,54.88
5018,C3,792.5,3/10,62,54.88
5019,C#3,792.75,3/10,63,54.88
5020,E-3,793.0,0.25,64,54.88
5021,F3,793.25,0.25,65,54.88
5022,G5,793.496,167/1000,75,54.88
5023,G3,793.5,0.25,66,54.88
5024,G#5,793.663,167/1000,67,54.88
5025,G#3,793.75,0.25,67,54.88
5026,G5,793.829,167/1000,72,54.88
5027,G#5,793.996,167/1000,62,54.88
5028,B-3,794.0,0.25,69,54.88
5029,G5,794.163,167/1000,67,54.88
5030,B3,794.25,0.25,70,54.88
5031,G#5,794.329,167/1000,61,54.88
5032,G5,794.496,167/1000,67,54.88
5033,C4,794.5,0.5,71,54.88
5034,G#5,794.663,167/1000,62,54.88
5035,G5,794.829,167/1000,67,54.88
5036,G#5,794.996,167/1000,61,54.88
5037,G#5,795.0,62/125,82,54.88
5038,G5,795.163,167/1000,67,54.88
5039,G#5,795.329,167/1000,62,54.88
5040,E-5,795.496,3/10,70,54.88
5041,F5,795.746,3/10,72,54.88
5042,G5,795.996,3/10,73,54.88
5043,F4,796.0,167/1000,75,54.88
5044,G4,796.167,167/1000,67,54.88
5045,G#5,796.246,3/10,75,54.88
5046,F4,796.333,167/1000,72,54.88
5047,B-5,796.496,0.25,76,54.88
5048,G4,796.5,167/1000,62,54.88
5049,F4,796.667,167/1000,67,54.88
5050,C6,796.746,0.25,78,54.88
5051,G4,796.833,167/1000,61,54.88
5052,C#6,796.996,0.25,80,54.88
5053,F4,797.0,167/1000,67,54.88
5054,G4,797.167,167/1000,62,54.88
5055,D6,797.246,0.25,81,54.88
5056,F4,797.333,167/1000,67,54.88
5057,E-6,797.496,0.25,83,54.88
5058,G4,797.5,167/1000,61,54.88
5059,F4,797.667,167/1000,67,54.88
5060,F6,797.746,0.25,84,54.88
5061,G4,797.833,167/1000,62,54.88
5062,F#6,797.996,0.25,86,54.88
5063,G3,798.0,3/10,60,54.88
5064,G6,798.246,0.25,88,54.88
5065,G#3,798.25,3/10,61,54.88
5066,G#6,798.496,3/10,80,54.88
5067,B-5,798.496,3/10,80,54.88
5068,B-3,798.5,3/10,62,54.88
5069,G#5,798.746,3/10,76,54.88
5070,C4,798.75,3/10,63,54.88
5071,G5,798.996,3/10,73,54.88
5072,D4,799.0,0.25,64,54.88
5073,F5,799.246,123/500,73,54.88
5074,E-4,799.25,0.25,65,54.88
5075,F5,799.496,2.0,72,54.88
5076,E-5,799.496,0.25,72,54.88
5077,F4,799.5,0.25,66,54.88
5078,D5,799.746,0.25,72,54.88
5079,G4,799.75,0.25,67,54.88
5080,C5,799.996,0.25,71,54.88
5081,G#4,800.0,0.25,69,54.88
5082,B-4,800.246,0.25,70,54.88
5083,A4,800.25,0.25,70,54.88
5084,A4,800.496,0.25,70,54.88
5085,B-4,800.5,0.5,71,54.88
5086,B-4,800.746,0.25,65,54.88
5087,F4,800.996,0.25,68,54.88
5088,G3,801.0,0.5,93,54.88
5089,G#4,801.246,0.25,63,54.88
5090,G4,801.496,0.25,90,54.88
5091,B-5,801.746,3/10,73,54.88
5092,C6,801.996,3/10,74,54.88
5093,E-2,802.0,167/1000,75,54.88
5094,F2,802.167,167/1000,67,54.88
5095,D6,802.246,3/10,75,54.88
5096,E-2,802.333,167/1000,72,54.88
5097,B-5,802.496,2.0,77,54.88
5098,E-6,802.496,0.25,77,54.88
5099,F2,802.5,167/1000,62,54.88
5100,E-2,802.667,167/1000,67,54.88
5101,D6,802.746,0.25,78,54.88
5102,F2,802.833,167/1000,61,54.88
5103,E-6,802.996,0.25,79,54.88
5104,E-2,803.0,167/1000,67,54.88
5105,F2,803.167,167/1000,62,54.88
5106,F6,803.246,0.25,81,54.88
5107,E-2,803.333,167/1000,67,54.88
5108,G6,803.496,0.25,82,54.88
5109,F2,803.5,167/1000,61,54.88
5110,E-2,803.667,167/1000,67,54.88
5111,F6,803.746,0.25,83,54.88
5112,F2,803.833,167/1000,62,54.88
5113,G6,803.996,0.25,85,54.88
5114,B-1,804.0,0.5,97,54.88
5115,G#6,804.246,0.25,86,54.88
5116,B-6,804.496,0.25,90,54.88
5117,G#5,804.996,3/10,73,54.88
5118,D3,805.0,167/1000,75,54.88
5119,E-3,805.167,167/1000,67,54.88
5120,G5,805.246,123/500,73,54.88
5121,D3,805.333,167/1000,72,54.88
5122,G5,805.496,2.0,72,54.88
5123,F5,805.496,0.25,72,54.88
5124,E-3,805.5,167/1000,62,54.88
5125,D3,805.667,167/1000,67,54.88
5126,E5,805.746,0.25,72,54.88
5127,E-3,805.833,167/1000,61,54.88
5128,C#5,805.996,0.25,71,54.88
5129,D3,806.0,167/1000,67,54.88
5130,E-3,806.167,167/1000,62,54.88
5131,C5,806.246,0.25,70,54.88
5132,D3,806.333,167/1000,67,54.88
5133,B4,806.496,0.25,70,54.88
5134,E-3,806.5,167/1000,61,54.88
5135,D3,806.667,167/1000,67,54.88
5136,C5,806.746,0.25,65,54.88
5137,E-3,806.833,167/1000,62,54.88
5138,G4,806.996,0.25,68,54.88
5139,E-2,807.0,0.5,94,54.88
5140,B-4,807.246,0.25,63,54.88
5141,G#4,807.496,0.25,90,54.88
5142,C6,807.996,3/10,74,54.88
5143,G3,808.0,167/1000,75,54.88
5144,G#3,808.167,167/1000,67,54.88
5145,E6,808.246,3/10,75,54.88
5146,G3,808.333,167/1000,72,54.88
5147,C6,808.496,1.5,77,54.88
5148,F6,808.496,0.25,77,54.88
5149,G#3,808.5,167/1000,62,54.88
5150,G3,808.667,167/1000,67,54.88
5151,G6,808.746,0.25,78,54.88
5152,G#3,808.833,167/1000,61,54.88
5153,G#6,808.996,0.25,79,54.88
5154,G3,809.0,167/1000,67,54.88
5155,G#3,809.167,167/1000,62,54.88
5156,G6,809.246,0.25,81,54.88
5157,G3,809.333,167/1000,67,54.88
5158,F6,809.496,0.25,79,54.88
5159,G#3,809.5,167/1000,61,54.88
5160,G3,809.667,167/1000,67,54.88
5161,E-6,809.746,0.25,77,54.88
5162,G#3,809.833,167/1000,62,54.88
5163,F#5,809.996,0.5,75,54.88
5164,D6,809.996,0.25,75,54.88
5165,C2,810.0,0.5,98,54.88
5166,C6,810.246,0.25,73,54.88
5167,B5,810.496,0.5,76,54.88
5168,G5,810.496,0.5,76,54.88
5169,D5,810.996,0.25,73,54.88
5170,E3,811.0,167/1000,75,54.88
5171,F3,811.167,167/1000,67,54.88
5172,E3,811.333,167/1000,72,54.88
5173,B3,811.496,0.125,73,54.88
5174,F3,811.5,167/1000,62,54.88
5175,C4,811.621,0.125,68,54.88
5176,E3,811.667,167/1000,67,54.88
5177,B3,811.746,0.125,73,54.88
5178,F3,811.833,167/1000,61,54.88
5179,C4,811.871,0.125,66,54.88
5180,G3,811.996,0.25,73,54.88
5181,E3,812.0,167/1000,67,54.88
5182,F3,812.167,167/1000,62,54.88
5183,E3,812.333,167/1000,67,54.88
5184,B4,812.496,0.125,73,54.88
5185,F3,812.5,167/1000,61,54.88
5186,C5,812.621,0.125,68,54.88
5187,E3,812.667,167/1000,67,54.88
5188,B4,812.746,0.125,73,54.88
5189,F3,812.833,167/1000,62,54.88
5190,C5,812.871,0.125,66,54.88
5191,G5,812.996,0.25,73,54.88
5192,F2,813.0,0.5,95,54.88
5193,E-4,813.496,0.125,73,54.88
5194,F4,813.621,0.125,68,54.88
5195,E-4,813.746,0.125,73,54.88
5196,F4,813.871,0.125,66,54.88
5197,C4,813.996,0.25,73,54.88
5198,G#3,814.0,167/1000,75,54.88
5199,B-3,814.167,167/1000,67,54.88
5200,G#3,814.333,167/1000,72,54.88
5201,E-5,814.496,0.125,75,54.88
5202,B-3,814.5,167/1000,62,54.88
5203,F5,814.621,0.125,70,54.88
5204,G#3,814.667,167/1000,67,54.88
5205,E-5,814.746,0.125,75,54.88
5206,B-3,814.833,167/1000,61,54.88
5207,F5,814.871,0.125,68,54.88
5208,C6,814.996,0.25,75,54.88
5209,G#3,815.0,167/1000,67,54.88
5210,B-3,815.167,167/1000,62,54.88
5211,G#3,815.333,167/1000,67,54.88
5212,A4,815.496,0.125,77,54.88
5213,B-3,815.5,167/1000,61,54.88
5214,B-4,815.621,0.125,72,54.88
5215,G#3,815.667,167/1000,67,54.88
5216,A4,815.746,0.125,78,54.88
5217,B-3,815.833,167/1000,62,54.88
5218,B-4,815.871,0.125,70,54.88
5219,D4,815.996,0.25,78,54.88
5220,G3,816.0,0.5,73,54.88
5221,F#5,816.496,0.125,79,54.88
5222,B3,816.5,0.25,65,54.88
5223,G5,816.621,0.125,74,54.88
5224,F#5,816.746,0.125,80,54.88
5225,G5,816.871,0.125,72,54.88
5226,D6,816.996,0.25,81,54.88
5227,G2,817.0,0.125,62,54.88
5228,G#2,817.125,0.125,54,54.88
5229,G2,817.25,0.125,61,54.88
5230,G#2,817.375,0.125,54,54.88
5231,B-4,817.496,0.5,81,54.88
5232,G4,817.996,0.25,83,54.88
5233,B-5,818.496,0.125,83,54.88
5234,E-4,818.5,0.25,64,54.88
5235,C6,818.621,0.125,78,54.88
5236,B-5,818.746,0.125,84,54.88
5237,C6,818.871,0.125,77,54.88
5238,G6,818.996,0.25,86,54.88
5239,C3,819.0,0.125,62,54.88
5240,D3,819.125,0.125,54,54.88
5241,C3,819.25,0.125,61,54.88
5242,D3,819.375,0.125,54,54.88
5243,E5,819.496,0.125,88,54.88
5244,F5,819.621,0.125,82,54.88
5245,E5,819.746,0.125,89,54.88
5246,F5,819.871,0.125,81,54.88
5247,C#5,819.996,0.25,90,54.88
5248,E6,820.496,0.125,92,54.88
5249,A3,820.5,0.25,66,54.88
5250,F6,820.621,0.125,86,54.88
5251,E6,820.746,0.125,93,54.88
5252,F6,820.871,0.125,85,54.88
5253,A5,820.996,0.25,93,54.88
5254,A6,820.996,0.25,93,54.88
5255,F#2,821.0,0.125,65,54.88
5256,G2,821.125,0.125,57,54.88
5257,F#2,821.25,0.125,65,54.88
5258,G2,821.375,0.125,57,54.88
5259,F6,821.496,0.25,86,54.88
5260,F5,821.496,0.25,86,54.88
5261,D6,821.996,0.25,88,54.88
5262,D5,821.996,0.25,88,54.88
5263,A5,822.496,0.25,90,54.88
5264,A4,822.496,0.25,90,54.88
5265,B-3,822.5,0.25,68,54.88
5266,F5,822.996,0.25,90,54.88
5267,F4,822.996,0.25,90,54.88
5268,G2,823.0,0.125,69,54.88
5269,G#2,823.125,0.125,61,54.88
5270,G2,823.25,0.125,68,54.88
5271,G#2,823.375,0.125,61,54.88
5272,D5,823.496,0.25,93,54.88
5273,D4,823.496,0.25,93,54.88
5274,A4,823.996,0.25,86,54.88
5275,A3,823.996,0.25,86,54.88
5276,G#3,824.496,0.25,85,54.88
5277,D4,824.496,0.25,85,54.88
5278,G#4,824.496,0.25,85,54.88
5279,E4,824.5,0.25,75,54.88
5280,G#5,824.996,0.25,86,54.88
5281,D5,824.996,0.25,86,54.88
5282,G#4,824.996,0.25,86,54.88
5283,C#3,825.0,0.125,75,54.88
5284,D3,825.125,0.125,65,54.88
5285,C#3,825.25,0.125,74,54.88
5286,D3,825.375,0.125,66,54.88
5287,A5,825.496,0.25,87,54.88
5288,C#5,825.496,0.25,87,54.88
5289,A4,825.496,0.25,87,54.88
5290,A6,826.496,0.25,97,54.88
5291,E6,826.496,0.25,97,54.88
5292,C#6,826.496,0.25,97,54.88
5293,A5,826.496,0.25,97,54.88
5294,A3,826.5,0.25,82,54.88
5295,F3,827.0,0.25,67,54.88
5296,D3,827.5,0.25,69,54.88
5297,A2,828.0,0.25,70,54.88
5298,F2,828.5,0.25,72,54.88
5299,D2,829.0,0.25,73,54.88
5300,A1,829.5,0.25,62,54.88
5301,A2,829.5,0.25,62,54.88
5302,B-2,830.0,0.25,64,54.88
5303,B-1,830.0,0.25,64,54.88
5304,B-1,830.5,0.25,65,54.88
5305,B-2,830.5,0.25,65,54.88
5306,A1,831.0,0.25,63,54.88
5307,C#2,831.0,0.25,63,54.88
5308,A2,831.0,0.25,63,54.88
5309,E2,831.0,0.25,63,54.88
5310,A1,832.0,0.25,68,54.88
5311,A2,832.0,0.25,68,54.88
5312,C#2,832.0,0.25,68,54.88
5313,E2,832.0,0.25,68,54.88
5314,A4,832.496,21/20,50,54.88
5315,G4,833.496,1.0,45,54.88
5316,F#4,834.496,21/20,50,54.88
5317,G4,834.496,1/20,45,54.88
5318,G4,835.496,21/20,46,54.88
5319,A4,836.496,1.0,46,54.88
5320,D4,837.496,1.0,50,54.88
5321,D4,838.496,21/20,44,54.88
5322,E4,838.496,21/20,44,54.88
5323,C4,839.496,1.0,44,54.88
5324,F#4,839.496,1.0,44,54.88
5325,G4,840.496,2.0,50,54.88
5326,B3,840.496,21/20,50,54.88
5327,C#4,841.496,21/20,41,54.88
5328,F#4,842.496,1.0,44,54.88
5329,D4,842.496,1.0,44,54.88
5330,E4,843.496,2.0,50,54.88
5331,D4,843.496,1.0,44,54.88
5332,C#4,844.496,2.0,42,54.88
5333,A4,845.496,1.0,47,54.88
5334,E-4,846.496,21/20,48,54.88
5335,A4,846.496,3.0,47,54.88
5336,E4,847.496,21/20,47,54.88
5337,F#4,848.496,1.0,48,54.88
5338,B4,849.496,21/20,52,54.88
5339,F#4,849.496,1.0,48,54.88
5340,A3,850.0,21/20,44,54.88
5341,C#5,850.496,1.0,50,54.88
5342,E4,850.496,1.0,50,54.88
5343,G3,851.0,1.0,42,54.88
5344,D5,851.496,1.0,54,54.88
5345,D4,851.496,1.0,45,54.88
5346,F#3,852.0,21/20,42,54.88
5347,G3,852.0,1/20,42,54.88
5348,A4,852.496,1.0,50,54.88
5349,D4,852.496,1.0,45,54.88
5350,G3,853.0,21/20,44,54.88
5351,G4,853.496,1.0,47,54.88
5352,E4,853.496,1.0,47,54.88
5353,A3,854.0,1.0,44,54.88
5354,F#4,854.496,1.0,47,54.88
5355,A3,854.496,1.0,39,54.88
5356,A3,855.0,1.0,44,54.88
5357,B-3,855.496,1.0,50,54.88
5358,F#4,855.496,1.0,47,54.88
5359,G3,856.0,21/20,44,54.88
5360,E4,856.496,2.0,46,54.88
5361,B3,856.496,1.0,46,54.88
5362,F#3,857.0,1.0,40,54.88
5363,C#4,857.496,1.0,46,54.88
5364,B3,858.0,1.0,47,54.88
5365,D4,858.496,1.0,50,54.88
5366,E4,858.496,1.0,46,54.88
5367,C#3,859.0,1.0,40,54.88
5368,A4,859.496,21/20,56,54.88
5369,E5,859.496,21/20,56,54.88
5370,D3,860.0,1.0,40,54.88
5371,B4,860.496,1.0,45,54.88
5372,D5,860.496,1.0,54,54.88
5373,G2,861.0,1.0,43,54.88
5374,C#5,861.496,21/20,58,54.88
5375,B4,861.496,1.0,45,54.88
5376,D5,861.496,1/20,54,54.88
5377,G#2,862.0,1.0,41,54.88
5378,A4,862.496,21/20,48,54.88
5379,D5,862.496,21/20,48,54.88
5380,A2,863.0,1.0,41,54.88
5381,G4,863.496,1.0,48,54.88
5382,E5,863.496,1.0,48,54.88
5383,B2,864.0,1.0,37,54.88
5384,F#4,864.496,21/20,46,54.88
5385,A4,864.496,21/20,46,54.88
5386,F#2,865.0,21/20,47,54.88
5387,G4,865.496,21/20,42,54.88
5388,B4,865.496,21/20,42,54.88
5389,G#2,866.0,1.0,47,54.88
5390,A4,866.496,1.0,42,54.88
5391,C5,866.496,1.0,42,54.88
5392,A2,867.0,21/20,47,54.88
5393,G#2,867.0,1/20,47,54.88
5394,D5,867.496,2.0,52,54.88
5395,D4,867.496,21/20,42,54.88
5396,A4,867.496,1/20,42,54.88
5397,C5,867.496,1/20,42,54.88
5398,B2,868.0,21/20,46,54.88
5399,E4,868.496,21/20,44,54.88
5400,C#3,869.0,1.0,47,54.88
5401,C#5,869.496,1.0,52,54.88
5402,F#4,869.496,1.0,44,54.88
5403,D3,870.0,21/20,47,54.88
5404,G4,870.496,2.0,50,54.88
5405,C#5,870.496,1.0,52,54.88
5406,D4,871.0,21/20,44,54.88
5407,B4,871.496,1.0,46,54.88
5408,C4,872.0,1.0,44,54.88
5409,F#4,872.496,1.0,42,54.88
5410,A4,872.496,1.0,42,54.88
5411,B3,873.0,21/20,47,54.88
5412,C4,873.0,1/20,44,54.88
5413,C#4,874.0,21/20,39,54.88
5414,F#4,874.546,21/20,42,54.88
5415,A4,874.546,21/20,42,54.88
5416,D4,875.0,1.0,40,54.88
5417,E4,875.546,21/20,42,54.88
5418,G4,875.546,21/20,42,54.88
5419,G3,876.0,21/20,42,54.88
5420,D4,876.546,1.0,39,54.88
5421,F#4,876.546,1.0,46,54.88
5422,A3,877.0,21/20,44,54.88
5423,E4,877.546,2.0,50,54.88
5424,D4,877.546,1.0,39,54.88
5425,F#4,877.546,1/20,46,54.88
5426,B3,878.0,1.0,47,54.88
5427,C#4,878.546,2.0,44,54.88
5428,E3,879.0,21/20,47,54.88
5429,A4,879.546,1.0,54,54.88
5430,F#3,880.0,21/20,41,54.88
5431,E-4,880.546,3.0,48,54.88
5432,A4,880.546,1.0,54,54.88
5433,G3,881.0,1.0,41,54.88
5434,F#4,881.546,1.0,48,54.88
5435,G#3,882.0,21/20,47,54.88
5436,G3,882.0,1/20,41,54.88
5437,B4,882.546,1.0,54,54.88
5438,A3,883.0,21/20,45,54.88
5439,E4,883.546,1.0,54,54.88
5440,B4,883.546,1.0,54,54.88
5441,G3,884.0,1.0,45,54.88
5442,E5,884.546,21/20,67,54.88
5443,F#3,885.0,1.0,44,54.88
5444,D5,885.546,1.0,63,54.88
5445,B3,886.0,1.0,45,54.88
5446,C#5,886.546,1.0,59,54.88
5447,D5,886.546,1/20,63,54.88
5448,A3,887.0,1.0,45,54.88
5449,F#5,887.546,21/20,64,54.88
5450,G3,888.0,2.0,44,54.88
5451,E5,888.546,1.0,57,54.88
5452,C#4,889.0,21/20,51,54.88
5453,D5,889.546,1.0,57,54.88
5454,E5,889.546,1/20,57,54.88
5455,B3,890.0,1.0,43,54.88
5456,F3,890.0,1.0,43,54.88
5457,A5,890.546,21/20,71,54.88
5458,F#3,891.05,2.0,44,54.88
5459,B-3,891.05,1.0,51,54.88
5460,B3,891.05,1/20,43,54.88
5461,F3,891.05,1/20,43,54.88
5462,G5,891.546,1.0,68,54.88
5463,D4,892.05,21/20,54,54.88
5464,F#5,892.546,1.0,67,54.88
5465,G5,892.546,1/20,68,54.88
5466,C#4,893.05,1.0,54,54.88
5467,G#3,893.05,11/20,54,54.88
5468,B4,893.546,1.0,58,54.88
5469,E-5,893.546,1.0,58,54.88
5470,B-3,893.55,0.5,48,54.88
5471,C#4,894.05,1/20,54,54.88
5472,B-3,894.05,1/20,48,54.88
5473,B3,894.05,1.0,49,54.88
5474,D4,894.05,1.0,49,54.88
5475,A4,894.546,1.0,51,54.88
5476,F#5,894.546,1.0,51,54.88
5477,A3,895.05,1.0,50,54.88
5478,C#4,895.05,1.0,50,54.88
5479,G4,895.546,1.0,56,54.88
5480,B4,895.546,1.0,56,54.88
5481,C#4,896.05,1.0,50,54.88
5482,E4,896.05,1.0,50,54.88
5483,F#4,896.546,21/20,46,54.88
5484,A4,896.546,21/20,46,54.88
5485,D4,897.05,1.0,52,54.88
5486,F#4,897.05,1.0,52,54.88
5487,C#4,897.05,1/20,50,54.88
5488,E4,897.05,1/20,50,54.88
5489,G#4,897.546,1.0,46,54.88
5490,B4,897.546,1.0,46,54.88
5491,F#3,898.05,1.0,52,54.88
5492,A4,898.546,1.0,54,54.88
5493,C#5,898.546,1.0,54,54.88
5494,G#4,898.546,1/20,46,54.88
5495,B4,898.546,1/20,46,54.88
5496,E-3,899.05,1.0,51,54.88
5497,B4,899.546,21/20,52,54.88
5498,D5,899.546,21/20,52,54.88
5499,E3,900.05,1.0,54,54.88
5500,E5,900.546,1.0,62,54.88
5501,C#5,900.546,1.0,44,54.88
5502,E4,901.05,21/20,53,54.88
5503,A4,901.546,1.0,55,54.88
5504,E5,901.546,1.0,62,54.88
5505,C#5,901.546,1/20,44,54.88
5506,D4,902.05,1.0,52,54.88
5507,F4,902.546,21/20,54,54.88
5508,D5,902.546,21/20,54,54.88
5509,C#4,903.05,1.0,59,54.88
5510,D4,903.05,1/20,52,54.88
5511,E4,903.546,1.0,50,54.88
5512,C#5,903.546,1.0,50,54.88
5513,A2,904.05,21/20,50,54.88
5514,D4,904.546,3.0,48,54.88
5515,B4,904.546,3.0,48,54.88
5516,E4,904.546,1/20,50,54.88
5517,C#5,904.546,1/20,50,54.88
5518,G2,905.05,1.0,47,54.88
5519,F#2,906.05,1.0,48,54.88
5520,G2,906.05,1/20,47,54.88
5521,G#2,907.05,21/20,47,54.88
5522,D4,907.546,1.0,48,54.88
5523,B4,907.546,1.0,48,54.88
5524,A2,908.05,1.0,47,54.88
5525,C#4,908.546,1.0,49,54.88
5526,A4,908.546,1.0,49,54.88
5527,A2,909.05,1.0,47,54.88
5528,E-4,909.546,1.0,50,54.88
5529,C5,909.546,1.0,50,54.88
5530,G#2,910.05,1.0,43,54.88
5531,E-4,910.546,1.0,50,54.88
5532,C5,910.546,1.0,50,54.88
5533,E2,911.05,1.0,43,54.88
5534,E4,911.546,1.0,50,54.88
5535,B4,911.546,1.0,50,54.88
5536,A2,912.05,1.0,47,54.88
5537,G4,912.546,1.0,48,54.88
5538,C#5,912.546,1.0,48,54.88
5539,A3,913.05,1.0,43,54.88
5540,G4,913.546,1.0,48,54.88
5541,C#5,913.546,1.0,48,54.88
5542,F#3,914.05,1.0,43,54.88
5543,F#4,914.546,1.0,51,54.88
5544,D5,914.546,1.0,51,54.88
5545,G3,915.05,2.0,47,54.88
5546,E-5,915.546,1.0,54,54.88
5547,G4,915.546,1.0,45,54.88
5548,E-5,916.546,1.0,54,54.88
5549,E3,917.05,1.0,47,54.88
5550,D5,917.546,1.0,58,54.88
5551,E-3,918.05,1.0,42,54.88
5552,C#5,918.546,1.0,55,54.88
5553,D3,919.05,1.0,46,54.88
5554,C5,919.546,0.5,55,54.88
5555,C3,920.05,1.0,46,54.88
5556,A4,920.546,167/1000,50,54.88
5557,F5,920.546,1.0,50,54.88
5558,B-4,920.712,167/1000,44,54.88
5559,A4,920.879,167/1000,50,54.88
5560,B-4,921.046,167/1000,44,54.88
5561,A3,921.05,1.0,37,54.88
5562,F3,921.05,1.0,37,54.88
5563,A4,921.212,167/1000,50,54.88
5564,B-4,921.379,167/1000,44,54.88
5565,A4,921.546,167/1000,50,54.88
5566,E-5,921.546,1.0,45,54.88
5567,B-4,921.712,167/1000,45,54.88
5568,A4,921.879,167/1000,50,54.88
5569,B-4,922.046,0.125,49,54.88
5570,B-3,922.05,1.0,42,54.88
5571,B-2,922.05,1.0,42,54.88
5572,A4,922.171,0.125,46,54.88
5573,G4,922.296,0.125,46,54.88
5574,A4,922.421,0.125,46,54.88
5575,D5,922.546,21/20,50,54.88
5576,B-2,923.05,1.0,42,54.88
5577,E3,923.05,1.0,42,54.88
5578,E-5,923.546,21/20,46,54.88
5579,B-4,924.046,3/10,43,54.88
5580,F3,924.05,1.0,46,54.88
5581,A2,924.05,1.0,46,54.88
5582,A4,924.296,3/10,39,54.88
5583,G4,924.546,3/10,42,54.88
5584,F5,924.546,1.0,46,54.88
5585,F4,924.796,3/10,41,54.88
5586,E-4,925.046,3/10,39,54.88
5587,C3,925.05,1.0,46,54.88
5588,D4,925.296,0.25,37,54.88
5589,G4,925.546,1.0,50,54.88
5590,B4,925.546,1.0,50,54.88
5591,F2,926.05,1.0,46,54.88
5592,C5,926.546,21/20,44,54.88
5593,G4,927.046,3/10,40,54.88
5594,B-2,927.05,1.0,46,54.88
5595,F4,927.296,3/10,38,54.88
5596,E-4,927.546,3/10,40,54.88
5597,D5,927.546,1.0,44,54.88
5598,D4,927.796,3/10,40,54.88
5599,C4,928.046,3/10,39,54.88
5600,B3,928.296,0.25,38,54.88
5601,D4,928.546,1.0,46,54.88
5602,B4,928.546,0.5,55,54.88
5603,G4,929.546,1.0,50,54.88
5604,F4,930.546,1.0,46,54.88
5605,E4,931.546,21/20,53,54.88
5606,F4,932.546,21/20,50,54.88
5607,G2,933.05,1.0,46,54.88
5608,G4,933.546,1.0,51,54.88
5609,B3,934.05,167/1000,50,54.88
5610,C4,934.217,167/1000,44,54.88
5611,B3,934.383,167/1000,50,54.88
5612,C4,934.546,1.0,58,54.88
5613,C4,934.55,167/1000,44,54.88
5614,B3,934.717,167/1000,51,54.88
5615,C4,934.883,167/1000,44,54.88
5616,B3,935.05,167/1000,51,54.88
5617,C4,935.217,167/1000,46,54.88
5618,B3,935.383,167/1000,52,54.88
5619,D4,935.546,21/20,52,54.88
5620,C5,935.546,21/20,52,54.88
5621,C4,935.55,0.125,51,54.88
5622,B3,935.675,0.125,48,54.88
5623,A3,935.8,0.125,48,54.88
5624,B3,935.925,0.125,48,54.88
5625,C4,936.05,1.0,48,54.88
5626,E4,936.546,1.0,54,54.88
5627,B-4,936.546,1.0,54,54.88
5628,F4,937.546,1.0,60,54.88
5629,A4,937.546,1.0,60,54.88
5630,C4,937.55,3/10,47,54.88
5631,B-3,937.8,3/10,43,54.88
5632,A3,938.05,3/10,47,54.88
5633,G3,938.3,3/10,46,54.88
5634,G4,938.546,21/20,57,54.88
5635,B-4,938.546,21/20,57,54.88
5636,F3,938.55,3/10,44,54.88
5637,E3,938.8,0.25,42,54.88
5638,A3,939.05,1.0,53,54.88
5639,A4,939.546,1.0,58,54.88
5640,C5,939.546,1.0,58,54.88
5641,E-4,940.546,0.5,70,54.88
5642,F4,940.546,0.5,70,54.88
5643,A3,940.55,3/10,52,54.88
5644,G3,940.8,3/10,47,54.88
5645,C5,941.046,1.0,64,54.88
5646,F3,941.05,3/10,51,54.88
5647,E3,941.3,3/10,50,54.88
5648,A5,941.546,167/1000,72,54.88
5649,D3,941.55,3/10,48,54.88
5650,B-5,941.712,167/1000,57,54.88
5651,C3,941.8,0.25,46,54.88
5652,A5,941.879,167/1000,72,54.88
5653,B-5,942.046,167/1000,57,54.88
5654,F5,942.046,1.0,72,54.88
5655,F3,942.05,1.0,57,54.88
5656,A5,942.212,167/1000,72,54.88
5657,B-5,942.379,167/1000,57,54.88
5658,A5,942.546,167/1000,72,54.88
5659,B-5,942.712,167/1000,57,54.88
5660,A5,942.879,167/1000,72,54.88
5661,B-5,943.046,167/1000,57,54.88
5662,F#5,943.046,0.5,81,54.88
5663,A5,943.212,167/1000,72,54.88
5664,B-5,943.379,167/1000,57,54.88
5665,F3,943.55,3/10,56,54.88
5666,E3,943.8,3/10,51,54.88
5667,B-5,944.046,0.25,90,54.88
5668,D3,944.05,3/10,55,54.88
5669,A5,944.296,0.25,82,54.88
5670,C3,944.3,3/10,54,54.88
5671,G5,944.546,0.25,81,54.88
5672,B-2,944.55,3/10,52,54.88
5673,F5,944.796,0.25,80,54.88
5674,A2,944.8,0.25,49,54.88
5675,E-5,945.046,0.25,79,54.88
5676,C3,945.05,3/10,57,54.88
5677,D5,945.296,0.25,78,54.88
5678,B-2,945.3,3/10,57,54.88
5679,A2,945.55,3/10,57,54.88
5680,G2,945.8,0.25,58,54.88
5681,B-3,946.046,0.25,82,54.88
5682,F2,946.05,1.0,76,54.88
5683,F1,946.05,1.0,76,54.88
5684,G#3,946.296,0.25,73,54.88
5685,G3,946.546,0.25,72,54.88
5686,F3,946.796,0.25,72,54.88
5687,E-3,947.046,0.25,71,54.88
5688,E-2,947.05,1.0,68,54.88
5689,E-1,947.05,1.0,68,54.88
5690,D3,947.296,0.25,70,54.88
5691,G5,948.046,0.25,95,54.88
5692,D1,948.05,1.0,76,54.88
5693,D2,948.05,1.0,76,54.88
5694,F5,948.296,0.25,82,54.88
5695,E-5,948.546,0.25,81,54.88
5696,D5,948.796,0.25,80,54.88
5697,C5,949.046,0.25,79,54.88
5698,E-2,949.05,1.0,68,54.88
5699,E-1,949.05,1.0,68,54.88
5700,B-4,949.296,0.25,78,54.88
5701,C4,950.046,0.25,82,54.88
5702,F1,950.05,1.0,68,54.88
5703,F2,950.05,1.0,68,54.88
5704,B-3,950.296,0.25,73,54.88
5705,G#3,950.546,0.25,72,54.88
5706,G3,950.796,0.25,72,54.88
5707,F3,951.046,0.25,71,54.88
5708,E-2,951.05,1.0,76,54.88
5709,E-1,951.05,1.0,76,54.88
5710,E3,951.296,0.25,70,54.88
5711,F5,952.046,0.25,92,54.88
5712,F2,952.05,1.0,66,54.88
5713,F1,952.05,1.0,66,54.88
5714,E5,952.296,0.25,82,54.88
5715,C#5,952.546,0.25,81,54.88
5716,C5,952.796,0.25,80,54.88
5717,B-4,953.046,0.25,79,54.88
5718,G1,953.05,1.0,66,54.88
5719,G2,953.05,1.0,66,54.88
5720,A4,953.296,0.25,78,54.88
5721,A3,954.046,0.25,82,54.88
5722,E2,954.05,1.0,75,54.88
5723,E1,954.05,1.0,75,54.88
5724,G3,954.296,0.25,73,54.88
5725,F#3,954.546,0.25,72,54.88
5726,E-3,954.796,0.25,72,54.88
5727,D3,955.046,0.25,71,54.88
5728,F1,955.05,1.0,64,54.88
5729,F2,955.05,1.0,64,54.88
5730,C3,955.296,0.25,70,54.88
5731,D6,956.046,0.25,90,54.88
5732,G1,956.05,1.0,64,54.88
5733,G2,956.05,1.0,64,54.88
5734,C6,956.296,0.25,82,54.88
5735,B-5,956.546,0.25,81,54.88
5736,A5,956.796,0.25,80,54.88
5737,G5,957.046,0.25,79,54.88
5738,F1,957.05,1.0,72,54.88
5739,F2,957.05,1.0,72,54.88
5740,F#5,957.296,0.25,78,54.88
5741,D4,958.046,0.25,82,54.88
5742,G1,958.05,1.0,63,54.88
5743,G2,958.05,1.0,63,54.88
5744,C#4,958.296,0.25,73,54.88
5745,C4,958.546,0.25,72,54.88
5746,B-3,958.796,0.25,72,54.88
5747,A3,959.046,0.25,71,54.88
5748,A2,959.05,1.0,63,54.88
5749,A1,959.05,1.0,63,54.88
5750,G3,959.296,0.25,70,54.88
5751,E-5,960.046,0.25,92,54.88
5752,F#1,960.05,1.0,68,54.88
5753,F#2,960.05,1.0,68,54.88
5754,D5,960.296,0.25,82,54.88
5755,C5,960.546,0.25,81,54.88
5756,B-4,960.796,0.25,80,54.88
5757,A4,961.046,0.25,79,54.88
5758,G2,961.05,1.0,61,54.88
5759,G1,961.05,1.0,61,54.88
5760,G4,961.296,0.25,78,54.88
5761,F4,961.546,0.25,78,54.88
5762,E4,961.796,0.25,78,54.88
5763,B-4,962.046,0.5,88,54.88
5764,D4,962.046,0.25,88,54.88
5765,A2,962.05,1.0,61,54.88
5766,A1,962.05,1.0,61,54.88
5767,C4,962.296,0.25,81,54.88
5768,B-3,962.546,0.25,80,54.88
5769,A3,962.796,0.25,80,54.88
5770,G3,963.046,0.25,79,54.88
5771,G2,963.05,1.0,68,54.88
5772,G1,963.05,1.0,68,54.88
5773,F3,963.296,0.25,78,54.88
5774,E3,963.546,0.25,77,54.88
5775,D3,963.796,0.25,75,54.88
5776,C4,964.046,0.25,78,54.88
5777,A1,964.05,1.0,61,54.88
5778,A2,964.05,1.0,61,54.88
5779,B-3,964.296,0.25,74,54.88
5780,A3,964.546,0.25,80,54.88
5781,G3,964.796,0.25,82,54.88
5782,F3,965.046,0.25,86,54.88
5783,B-1,965.05,0.25,69,54.88
5784,E3,965.296,0.25,89,54.88
5785,B-2,965.3,0.25,65,54.88
5786,B-3,965.546,0.5,95,54.88
5787,D3,965.546,0.25,95,54.88
5788,C3,965.55,0.25,65,54.88
5789,C3,965.796,0.25,87,54.88
5790,B-2,965.8,0.25,61,54.88
5791,E3,966.046,0.25,81,54.88
5792,A2,966.05,0.25,65,54.88
5793,G3,966.296,0.25,85,54.88
5794,G2,966.3,0.25,69,54.88
5795,B-2,966.546,0.5,80,54.88
5796,F2,966.55,0.25,69,54.88
5797,E2,966.8,0.25,69,54.88
5798,G2,967.05,0.25,69,54.88
5799,F2,967.3,0.25,65,54.88
5800,E4,967.546,167/1000,80,54.88
5801,E3,967.55,0.25,65,54.88
5802,F4,967.712,167/1000,74,54.88
5803,D3,967.8,0.25,65,54.88
5804,E4,967.879,167/1000,80,54.88
5805,F4,968.046,167/1000,74,54.88
5806,C3,968.05,0.25,65,54.88
5807,E4,968.212,167/1000,80,54.88
5808,B-2,968.3,0.25,63,54.88
5809,F4,968.379,167/1000,75,54.88
5810,E4,968.546,167/1000,80,54.88
5811,A2,968.55,0.25,65,54.88
5812,F4,968.712,167/1000,73,54.88
5813,G2,968.8,0.25,60,54.88
5814,E4,968.879,167/1000,82,54.88
5815,F4,969.046,0.125,74,54.88
5816,F2,969.05,0.25,69,54.88
5817,E4,969.171,0.125,80,54.88
5818,D4,969.296,0.125,73,54.88
5819,E2,969.3,0.25,71,54.88
5820,E4,969.421,0.125,73,54.88
5821,F4,969.546,1.0,86,54.88
5822,D2,969.55,0.25,73,54.88
5823,C2,969.8,0.25,75,54.88
5824,F4,971.046,0.25,78,54.88
5825,G2,971.05,167/1000,71,54.88
5826,A2,971.217,167/1000,65,54.88
5827,E4,971.296,0.25,74,54.88
5828,G2,971.383,167/1000,71,54.88
5829,D4,971.546,0.25,80,54.88
5830,A2,971.55,167/1000,65,54.88
5831,G2,971.717,167/1000,71,54.88
5832,C4,971.796,0.25,74,54.88
5833,A2,971.883,167/1000,66,54.88
5834,B-3,972.046,0.25,74,54.88
5835,G2,972.05,167/1000,71,54.88
5836,A2,972.217,167/1000,65,54.88
5837,A3,972.296,0.25,74,54.88
5838,G2,972.383,167/1000,71,54.88
5839,D4,972.546,1.0,88,54.88
5840,A2,972.55,167/1000,66,54.88
5841,G2,972.717,167/1000,71,54.88
5842,A2,972.883,167/1000,66,54.88
5843,F2,973.05,1.0,88,54.88
5844,D4,974.046,0.25,78,54.88
5845,C4,974.296,0.25,74,54.88
5846,B-3,974.546,0.25,80,54.88
5847,F2,974.55,0.25,75,54.88
5848,A3,974.796,0.25,74,54.88
5849,G2,974.8,0.25,68,54.88
5850,G3,975.046,0.25,74,54.88
5851,A2,975.05,0.25,75,54.88
5852,F3,975.296,0.25,74,54.88
5853,B-2,975.3,0.25,74,54.88
5854,B-3,975.546,1.0,88,54.88
5855,C3,975.55,0.25,74,54.88
5856,D3,975.8,0.25,74,54.88
5857,A2,976.05,1.0,87,54.88
5858,B-4,977.046,0.25,78,54.88
5859,A4,977.296,0.25,72,54.88
5860,G4,977.546,0.25,90,54.88
5861,A2,977.55,0.25,75,54.88
5862,A4,977.796,0.25,73,54.88
5863,B-2,977.8,0.25,68,54.88
5864,G4,978.046,0.25,73,54.88
5865,C3,978.05,0.25,75,54.88
5866,F4,978.296,0.25,73,54.88
5867,D3,978.3,0.25,74,54.88
5868,E4,978.546,0.25,89,54.88
5869,E3,978.55,0.25,74,54.88
5870,F4,978.796,0.25,74,54.88
5871,F3,978.8,0.25,74,54.88
5872,E4,979.046,0.25,74,54.88
5873,C3,979.05,1.0,87,54.88
5874,D4,979.296,0.25,74,54.88
5875,C4,979.546,0.25,90,54.88
5876,D4,979.796,0.25,73,54.88
5877,E4,980.046,0.25,73,54.88
5878,F4,980.296,0.25,73,54.88
5879,F#4,980.546,0.25,88,54.88
5880,C3,980.55,0.25,67,54.88
5881,G4,980.796,0.25,73,54.88
5882,D3,980.8,0.25,63,54.88
5883,A4,981.046,0.25,73,54.88
5884,E3,981.05,0.25,73,54.88
5885,G4,981.296,0.25,73,54.88
5886,D3,981.3,0.25,63,54.88
5887,F4,981.546,0.25,87,54.88
5888,E3,981.55,0.25,63,54.88
5889,G4,981.796,0.25,75,54.88
5890,F3,981.8,0.25,63,54.88
5891,A4,982.046,0.25,75,54.88
5892,G3,982.05,0.25,74,54.88
5893,B-4,982.296,0.25,75,54.88
5894,F3,982.3,0.25,63,54.88
5895,B4,982.546,0.25,89,54.88
5896,G3,982.55,0.25,63,54.88
5897,C5,982.796,0.25,73,54.88
5898,A3,982.8,0.25,63,54.88
5899,D5,983.046,0.25,73,54.88
5900,B-3,983.05,0.25,74,54.88
5901,C5,983.296,0.25,73,54.88
5902,A3,983.3,0.25,62,54.88
5903,D5,983.546,0.25,94,54.88
5904,E-5,983.546,0.5,94,54.88
5905,G3,983.55,0.25,62,54.88
5906,C5,983.796,0.25,73,54.88
5907,A3,983.8,0.25,62,54.88
5908,B-4,984.046,0.25,73,54.88
5909,B-3,984.05,0.25,73,54.88
5910,A4,984.296,0.25,73,54.88
5911,A3,984.3,0.25,61,54.88
5912,C4,984.546,167/1000,85,54.88
5913,G3,984.55,0.25,62,54.88
5914,D4,984.712,167/1000,78,54.88
5915,F3,984.8,0.25,62,54.88
5916,C4,984.879,167/1000,85,54.88
5917,D4,985.046,167/1000,80,54.88
5918,E3,985.05,0.25,74,54.88
5919,C4,985.212,167/1000,85,54.88
5920,D3,985.3,0.25,62,54.88
5921,D4,985.379,167/1000,78,54.88
5922,C4,985.546,167/1000,85,54.88
5923,C3,985.55,0.25,62,54.88
5924,D4,985.712,167/1000,80,54.88
5925,D3,985.8,0.25,62,54.88
5926,C4,985.879,167/1000,85,54.88
5927,D4,986.046,167/1000,73,54.88
5928,E-3,986.05,0.25,73,54.88
5929,C4,986.212,167/1000,82,54.88
5930,D3,986.3,0.25,62,54.88
5931,D4,986.379,167/1000,73,54.88
5932,B-3,986.546,1.0,78,54.88
5933,C3,986.55,0.25,62,54.88
5934,B-2,986.8,0.25,62,54.88
5935,D3,987.05,0.25,76,54.88
5936,C3,987.3,0.25,62,54.88
5937,B-2,987.55,0.25,62,54.88
5938,A2,987.8,0.25,62,54.88
5939,B-3,988.046,0.25,65,54.88
5940,B-2,988.05,0.25,73,54.88
5941,C4,988.296,0.25,60,54.88
5942,A2,988.3,0.25,63,54.88
5943,D4,988.546,0.25,68,54.88
5944,G2,988.55,0.25,63,54.88
5945,E-4,988.796,0.25,60,54.88
5946,F2,988.8,0.25,63,54.88
5947,D4,989.046,0.25,60,54.88
5948,F4,989.046,0.25,60,54.88
5949,E-3,989.05,1.0,78,54.88
5950,C4,989.296,0.25,60,54.88
5951,G4,989.296,0.25,60,54.88
5952,B-3,989.546,0.25,60,54.88
5953,E-4,989.546,1.0,72,54.88
5954,F1,989.55,0.5,98,54.88
5955,A3,989.796,0.25,60,54.88
5956,G3,990.046,0.25,60,54.88
5957,A2,990.05,167/1000,72,54.88
5958,E-3,990.05,1.0,78,54.88
5959,B-2,990.217,167/1000,65,54.88
5960,F3,990.296,0.25,60,54.88
5961,A2,990.383,167/1000,72,54.88
5962,B-3,990.546,1.0,72,54.88
5963,B-2,990.55,167/1000,64,54.88
5964,A2,990.717,167/1000,72,54.88
5965,B-2,990.883,167/1000,64,54.88
5966,D4,991.046,0.25,65,54.88
5967,A2,991.05,167/1000,72,54.88
5968,D3,991.05,1.0,72,54.88
5969,B-2,991.217,167/1000,65,54.88
5970,E-4,991.296,0.25,56,54.88
5971,A2,991.383,167/1000,72,54.88
5972,F4,991.546,0.25,66,54.88
5973,B-2,991.55,0.125,70,54.88
5974,A2,991.675,0.125,63,54.88
5975,G4,991.796,0.25,60,54.88
5976,G2,991.8,0.125,63,54.88
5977,A2,991.925,0.125,63,54.88
5978,B-3,992.046,0.75,60,54.88
5979,A4,992.046,0.25,60,54.88
5980,B-2,992.05,1.0,84,54.88
5981,B-4,992.296,0.25,60,54.88
5982,G4,992.546,1.0,74,54.88
5983,B3,992.796,0.25,60,54.88
5984,C4,993.046,0.25,60,54.88
5985,D4,993.296,0.25,60,54.88
5986,E-4,993.546,1.0,72,54.88
5987,B-2,993.55,0.25,60,54.88
5988,A2,993.8,0.25,54,54.88
5989,F4,994.046,0.25,66,54.88
5990,G2,994.05,0.25,60,54.88
5991,G4,994.296,0.25,60,54.88
5992,F2,994.3,0.25,53,54.88
5993,A4,994.546,0.25,71,54.88
5994,E-2,994.55,0.25,53,54.88
5995,G4,994.796,0.25,62,54.88
5996,D2,994.8,0.25,53,54.88
5997,E-4,995.046,1.0,55,54.88
5998,A4,995.046,0.25,62,54.88
5999,G2,995.05,1.0,65,54.88
6000,B-4,995.296,0.25,62,54.88
6001,C5,995.546,0.25,72,54.88
6002,B-4,995.796,0.25,65,54.88
6003,E4,996.046,1.0,59,54.88
6004,C5,996.046,0.25,65,54.88
6005,D5,996.296,0.25,65,54.88
6006,E-5,996.546,0.25,78,54.88
6007,G2,996.55,0.25,60,54.88
6008,D5,996.796,0.25,69,54.88
6009,F2,996.8,0.25,54,54.88
6010,F4,997.046,0.5,60,54.88
6011,C5,997.046,0.25,72,54.88
6012,E-2,997.05,0.25,60,54.88
6013,D5,997.296,0.25,75,54.88
6014,D2,997.3,0.25,53,54.88
6015,E-5,997.546,0.25,86,54.88
6016,F4,997.546,1.5,60,54.88
6017,C2,997.55,0.25,53,54.88
6018,D5,997.796,0.25,76,54.88
6019,B1,997.8,0.25,53,54.88
6020,C#5,998.046,0.25,73,54.88
6021,C2,998.05,1.0,65,54.88
6022,C5,998.296,0.25,72,54.88
6023,B-4,998.546,0.25,77,54.88
6024,A4,998.796,0.25,64,54.88
6025,E-4,999.046,0.5,54,54.88
6026,G4,999.046,0.25,63,54.88
6027,A4,999.296,0.25,64,54.88
6028,D4,999.546,1.0,63,54.88
6029,B-4,999.546,0.25,74,54.88
6030,E-3,999.55,0.25,60,54.88
6031,A4,999.796,0.25,63,54.88
6032,D3,999.8,0.25,53,54.88
6033,G4,1000.046,0.25,62,54.88
6034,C3,1000.05,0.25,60,54.88
6035,F4,1000.296,0.25,62,54.88
6036,D3,1000.3,0.25,53,54.88
6037,C4,1000.546,0.5,65,54.88
6038,F4,1000.546,0.25,62,54.88
6039,C3,1000.55,0.25,53,54.88
6040,F#5,1000.796,0.25,68,54.88
6041,B-2,1000.8,0.25,53,54.88
6042,G5,1001.046,0.25,74,54.88
6043,A2,1001.05,0.25,64,54.88
6044,F5,1001.296,0.25,69,54.88
6045,B-2,1001.3,0.25,58,54.88
6046,E-5,1001.546,0.25,71,54.88
6047,A2,1001.55,0.25,61,54.88
6048,D5,1001.796,0.25,64,54.88
6049,G2,1001.8,0.25,64,54.88
6050,C5,1002.046,0.25,67,54.88
6051,F2,1002.05,0.25,72,54.88
6052,B-4,1002.296,0.25,69,54.88
6053,G2,1002.3,0.25,60,54.88
6054,A4,1002.546,0.25,74,54.88
6055,A2,1002.55,0.25,60,54.88
6056,B-4,1002.796,0.25,65,54.88
6057,B-2,1002.8,0.25,60,54.88
6058,A4,1003.046,0.25,67,54.88
6059,C3,1003.05,0.25,68,54.88
6060,G4,1003.296,0.25,68,54.88
6061,C#3,1003.3,0.25,56,54.88
6062,F4,1003.546,0.25,81,54.88
6063,D3,1003.55,0.25,56,54.88
6064,G4,1003.796,0.25,71,54.88
6065,C3,1003.8,0.25,56,54.88
6066,A4,1004.046,0.25,71,54.88
6067,B-2,1004.05,0.25,66,54.88
6068,B-4,1004.296,0.25,71,54.88
6069,C3,1004.3,0.25,57,54.88
6070,C5,1004.546,0.25,80,54.88
6071,D3,1004.55,0.25,57,54.88
6072,C#5,1004.796,0.25,70,54.88
6073,E-3,1004.8,0.25,57,54.88
6074,D5,1005.046,0.25,70,54.88
6075,E3,1005.05,0.25,60,54.88
6076,C5,1005.296,0.25,70,54.88
6077,E-3,1005.3,0.25,55,54.88
6078,B-4,1005.546,0.5,65,54.88
6079,D5,1005.546,0.25,81,54.88
6080,D3,1005.55,0.25,60,54.88
6081,E5,1005.796,0.25,70,54.88
6082,E-3,1005.8,0.25,54,54.88
6083,F5,1006.046,0.25,70,54.88
6084,F3,1006.05,0.25,59,54.88
6085,G5,1006.296,0.25,81,54.88
6086,G3,1006.3,0.25,56,54.88
6087,G5,1006.546,0.25,81,54.88
6088,A3,1006.55,0.25,61,54.88
6089,C5,1006.796,0.25,70,54.88
6090,B-3,1006.8,0.25,57,54.88
6091,D5,1007.046,0.25,71,54.88
6092,C4,1007.05,0.25,63,54.88
6093,E5,1007.296,0.25,72,54.88
6094,B-3,1007.3,0.25,60,54.88
6095,F5,1007.546,0.25,73,54.88
6096,C4,1007.55,0.25,66,54.88
6097,G5,1007.796,0.25,74,54.88
6098,D4,1007.8,0.25,62,54.88
6099,A5,1008.046,0.25,75,54.88
6100,E-4,1008.05,0.25,68,54.88
6101,B-5,1008.296,0.25,76,54.88
6102,D4,1008.3,0.25,63,54.88
6103,C6,1008.546,0.25,77,54.88
6104,C#4,1008.55,0.25,62,54.88
6105,A5,1008.796,0.25,68,54.88
6106,C4,1008.8,0.25,60,54.88
6107,G5,1009.046,0.25,73,54.88
6108,B-3,1009.05,0.25,65,54.88
6109,F5,1009.296,0.25,72,54.88
6110,A3,1009.3,0.25,60,54.88
6111,E-5,1009.546,0.25,81,54.88
6112,G3,1009.55,0.25,57,54.88
6113,D5,1009.796,0.25,71,54.88
6114,A3,1009.8,0.25,55,54.88
6115,E5,1010.046,0.25,71,54.88
6116,B-3,1010.05,0.25,63,54.88
6117,F#5,1010.296,0.25,71,54.88
6118,A3,1010.3,0.25,57,54.88
6119,G5,1010.546,0.25,79,54.88
6120,G3,1010.55,0.25,58,54.88
6121,A5,1010.796,0.25,72,54.88
6122,F3,1010.8,0.25,58,54.88
6123,B-5,1011.046,0.25,81,54.88
6124,G3,1011.05,167/1000,58,54.88
6125,E3,1011.05,1.0,50,54.88
6126,A3,1011.217,167/1000,52,54.88
6127,C6,1011.296,0.25,71,54.88
6128,G3,1011.383,167/1000,58,54.88
6129,D6,1011.546,0.25,85,54.88
6130,A3,1011.55,167/1000,52,54.88
6131,G3,1011.717,167/1000,58,54.88
6132,B-5,1011.796,0.25,76,54.88
6133,A3,1011.883,167/1000,53,54.88
6134,A5,1012.046,0.25,76,54.88
6135,G3,1012.05,167/1000,58,54.88
6136,B-2,1012.05,1.0,58,54.88
6137,A3,1012.217,167/1000,53,54.88
6138,G5,1012.296,0.25,76,54.88
6139,G3,1012.383,167/1000,58,54.88
6140,F5,1012.546,0.25,82,54.88
6141,A3,1012.55,167/1000,54,54.88
6142,G3,1012.717,167/1000,58,54.88
6143,E-5,1012.796,0.25,73,54.88
6144,A3,1012.883,167/1000,54,54.88
6145,F5,1013.046,0.25,76,54.88
6146,F3,1013.05,1.0,54,54.88
6147,A2,1013.05,1.0,54,54.88
6148,G5,1013.296,0.25,79,54.88
6149,A5,1013.546,0.25,82,54.88
6150,B-5,1013.796,0.25,84,54.88
6151,C6,1014.046,0.25,87,54.88
6152,A3,1014.05,167/1000,58,54.88
6153,F#3,1014.05,1.0,50,54.88
6154,B-3,1014.217,167/1000,52,54.88
6155,D6,1014.296,0.25,90,54.88
6156,A3,1014.383,167/1000,58,54.88
6157,E-6,1014.546,0.5,93,54.88
6158,B-3,1014.55,167/1000,52,54.88
6159,A3,1014.717,167/1000,58,54.88
6160,B-3,1014.883,167/1000,53,54.88
6161,C3,1015.05,1.0,58,54.88
6162,A3,1015.05,167/1000,58,54.88
6163,B-3,1015.217,167/1000,53,54.88
6164,A3,1015.383,167/1000,58,54.88
6165,A4,1015.546,1.0,69,54.88
6166,C5,1015.546,167/1000,74,54.88
6167,B-3,1015.55,167/1000,54,54.88
6168,D5,1015.712,167/1000,70,54.88
6169,A3,1015.717,167/1000,58,54.88
6170,C5,1015.879,167/1000,74,54.88
6171,B-3,1015.883,167/1000,54,54.88
6172,D5,1016.046,167/1000,70,54.88
6173,G3,1016.05,1.0,54,54.88
6174,B-2,1016.05,1.0,54,54.88
6175,C5,1016.212,167/1000,74,54.88
6176,D5,1016.379,167/1000,70,54.88
6177,E-4,1016.546,1.0,69,54.88
6178,C5,1016.546,167/1000,74,54.88
6179,D5,1016.712,167/1000,69,54.88
6180,C5,1016.879,167/1000,74,54.88
6181,D5,1017.046,0.125,70,54.88
6182,G3,1017.05,1.0,50,54.88
6183,B-3,1017.05,167/1000,58,54.88
6184,C5,1017.171,0.125,74,54.88
6185,C4,1017.217,167/1000,52,54.88
6186,B-4,1017.296,0.125,68,54.88
6187,B-3,1017.383,167/1000,58,54.88
6188,C5,1017.421,0.125,68,54.88
6189,D4,1017.546,0.5,69,54.88
6190,B-4,1017.546,1.0,81,54.88
6191,C4,1017.55,167/1000,52,54.88
6192,B-3,1017.717,167/1000,58,54.88
6193,C4,1017.883,167/1000,53,54.88
6194,C#4,1018.046,0.5,69,54.88
6195,B-3,1018.05,167/1000,58,54.88
6196,D3,1018.05,1.0,58,54.88
6197,C4,1018.217,167/1000,53,54.88
6198,B-3,1018.383,167/1000,58,54.88
6199,G4,1018.546,1.0,69,54.88
6200,B-4,1018.546,167/1000,74,54.88
6201,C4,1018.55,167/1000,54,54.88
6202,C5,1018.712,167/1000,70,54.88
6203,B-3,1018.717,167/1000,58,54.88
6204,B-4,1018.879,167/1000,74,54.88
6205,C4,1018.883,167/1000,54,54.88
6206,C5,1019.046,167/1000,70,54.88
6207,A3,1019.05,1.0,58,54.88
6208,C3,1019.05,0.5,51,54.88
6209,B-4,1019.212,167/1000,74,54.88
6210,C5,1019.379,167/1000,70,54.88
6211,C#4,1019.546,1.0,69,54.88
6212,B-4,1019.546,167/1000,74,54.88
6213,F#2,1019.55,0.5,52,54.88
6214,C5,1019.712,167/1000,69,54.88
6215,B-4,1019.879,167/1000,74,54.88
6216,C5,1020.046,0.125,70,54.88
6217,F#2,1020.05,0.25,52,54.88
6218,B-4,1020.171,0.125,74,54.88
6219,A4,1020.296,0.125,68,54.88
6220,G2,1020.3,0.25,48,54.88
6221,B-4,1020.421,0.125,68,54.88
6222,C4,1020.546,0.5,75,54.88
6223,A4,1020.546,0.5,75,54.88
6224,A2,1020.55,0.25,50,54.88
6225,B-2,1020.8,0.25,53,54.88
6226,G#4,1021.046,0.5,64,54.88
6227,B3,1021.046,0.5,64,54.88
6228,C3,1021.05,0.25,55,54.88
6229,D3,1021.3,0.25,58,54.88
6230,F4,1021.546,1.0,69,54.88
6231,G#4,1021.546,167/1000,74,54.88
6232,E3,1021.55,0.25,60,54.88
6233,B-4,1021.712,167/1000,70,54.88
6234,F#3,1021.8,0.25,63,54.88
6235,G#4,1021.879,167/1000,74,54.88
6236,B-4,1022.046,167/1000,70,54.88
6237,G2,1022.05,0.25,65,54.88
6238,G#4,1022.212,167/1000,74,54.88
6239,G3,1022.3,0.25,55,54.88
6240,B-4,1022.379,167/1000,70,54.88
6241,B3,1022.546,1.0,69,54.88
6242,G#4,1022.546,167/1000,74,54.88
6243,F2,1022.55,0.25,62,54.88
6244,B-4,1022.712,167/1000,69,54.88
6245,F3,1022.8,0.25,51,54.88
6246,G#4,1022.879,167/1000,74,54.88
6247,B-4,1023.046,0.125,70,54.88
6248,E2,1023.05,0.25,53,54.88
6249,G#4,1023.171,0.125,74,54.88
6250,G4,1023.296,0.125,68,54.88
6251,F2,1023.3,0.25,48,54.88
6252,G#4,1023.421,0.125,68,54.88
6253,B-3,1023.546,0.5,69,54.88
6254,G4,1023.546,1.0,81,54.88
6255,G2,1023.55,0.25,50,54.88
6256,A2,1023.8,0.25,53,54.88
6257,E4,1024.046,0.5,62,54.88
6258,B-2,1024.05,0.25,55,54.88
6259,C3,1024.3,0.25,58,54.88
6260,D3,1024.55,0.25,60,54.88
6261,E3,1024.8,0.25,63,54.88
6262,F2,1025.05,0.25,65,54.88
6263,F3,1025.3,0.25,55,54.88
6264,E-2,1025.55,0.25,62,54.88
6265,E-3,1025.8,0.25,51,54.88
6266,G4,1026.046,0.5,62,54.88
6267,D2,1026.05,0.25,53,54.88
6268,E-2,1026.3,0.25,48,54.88
6269,E4,1026.546,0.5,69,54.88
6270,F2,1026.55,0.25,50,54.88
6271,G2,1026.8,0.25,53,54.88
6272,F4,1027.046,0.5,61,54.88
6273,G#2,1027.05,0.25,55,54.88
6274,B-2,1027.3,0.25,58,54.88
6275,C3,1027.55,0.25,60,54.88
6276,D3,1027.8,0.25,63,54.88
6277,E-2,1028.05,0.25,74,54.88
6278,E-3,1028.3,0.25,63,54.88
6279,C#3,1028.55,0.5,64,54.88
6280,C#2,1028.55,0.5,64,54.88
6281,A4,1029.046,0.5,62,54.88
6282,B-1,1029.05,167/1000,66,54.88
6283,C#3,1029.05,0.25,66,54.88
6284,C2,1029.217,167/1000,52,54.88
6285,C3,1029.3,0.25,53,54.88
6286,B-1,1029.383,167/1000,66,54.88
6287,F#4,1029.546,0.5,69,54.88
6288,D3,1029.55,0.25,53,54.88
6289,C2,1029.55,167/1000,52,54.88
6290,B-1,1029.717,167/1000,66,54.88
6291,E3,1029.8,0.25,53,54.88
6292,C2,1029.883,167/1000,52,54.88
6293,G4,1030.046,0.5,61,54.88
6294,B-1,1030.05,167/1000,66,54.88
6295,F3,1030.05,0.25,57,54.88
6296,C2,1030.217,167/1000,52,54.88
6297,G3,1030.3,0.25,59,54.88
6298,B-1,1030.383,167/1000,66,54.88
6299,C2,1030.55,167/1000,52,54.88
6300,A3,1030.55,0.25,61,54.88
6301,B-1,1030.717,167/1000,66,54.88
6302,B-3,1030.8,0.25,63,54.88
6303,C2,1030.883,167/1000,52,54.88
6304,A1,1031.05,1.0,66,54.88
6305,C4,1031.05,0.25,65,54.88
6306,A3,1031.3,0.25,64,54.88
6307,G3,1031.55,0.25,62,54.88
6308,F3,1031.8,0.25,60,54.88
6309,B-4,1032.046,0.5,62,54.88
6310,E-3,1032.05,0.25,66,54.88
6311,C2,1032.05,167/1000,66,54.88
6312,D2,1032.217,167/1000,52,54.88
6313,D3,1032.3,0.25,53,54.88
6314,C2,1032.383,167/1000,66,54.88
6315,G4,1032.546,0.5,69,54.88
6316,D2,1032.55,167/1000,52,54.88
6317,E3,1032.55,0.25,53,54.88
6318,C2,1032.717,167/1000,66,54.88
6319,F#3,1032.8,0.25,53,54.88
6320,D2,1032.883,167/1000,52,54.88
6321,A4,1033.046,0.5,61,54.88
6322,C2,1033.05,167/1000,66,54.88
6323,G3,1033.05,0.25,57,54.88
6324,D2,1033.217,167/1000,52,54.88
6325,A3,1033.3,0.25,59,54.88
6326,C2,1033.381,167/1000,66,54.88
6327,A4,1033.546,0.25,55,54.88
6328,C5,1033.546,0.5,61,54.88
6329,D2,1033.55,167/1000,52,54.88
6330,B-3,1033.55,0.25,61,54.88
6331,C2,1033.717,167/1000,66,54.88
6332,F4,1033.796,0.25,49,54.88
6333,C4,1033.8,0.25,63,54.88
6334,D2,1033.883,167/1000,52,54.88
6335,G4,1034.046,0.25,55,54.88
6336,F5,1034.046,1.0,66,54.88
6337,B-1,1034.05,1.0,66,54.88
6338,D4,1034.05,0.25,65,54.88
6339,A4,1034.296,0.25,50,54.88
6340,B-3,1034.3,0.25,64,54.88
6341,B-4,1034.546,0.25,55,54.88
6342,A3,1034.55,0.25,62,54.88
6343,A4,1034.796,0.25,48,54.88
6344,G3,1034.8,0.25,60,54.88
6345,B-4,1035.046,0.25,55,54.88
6346,D5,1035.046,0.5,61,54.88
6347,F3,1035.05,0.25,66,54.88
6348,D2,1035.05,167/1000,66,54.88
6349,E-2,1035.217,167/1000,52,54.88
6350,F4,1035.296,0.25,43,54.88
6351,E-3,1035.3,0.25,53,54.88
6352,D2,1035.383,167/1000,66,54.88
6353,G4,1035.546,0.25,55,54.88
6354,C5,1035.546,0.5,61,54.88
6355,F3,1035.55,0.25,53,54.88
6356,E-2,1035.55,167/1000,52,54.88
6357,D2,1035.717,167/1000,66,54.88
6358,F#4,1035.796,0.25,48,54.88
6359,G3,1035.8,0.25,53,54.88
6360,E-2,1035.883,167/1000,52,54.88
6361,G4,1036.046,0.25,55,54.88
6362,B-4,1036.046,0.5,57,54.88
6363,A3,1036.05,0.25,57,54.88
6364,D2,1036.05,167/1000,66,54.88
6365,E-2,1036.217,167/1000,52,54.88
6366,C4,1036.296,0.25,49,54.88
6367,B-3,1036.3,0.25,59,54.88
6368,D2,1036.383,167/1000,66,54.88
6369,A4,1036.546,0.5,61,54.88
6370,C4,1036.546,0.25,49,54.88
6371,C4,1036.55,0.25,61,54.88
6372,E-2,1036.55,167/1000,52,54.88
6373,D2,1036.717,167/1000,66,54.88
6374,D4,1036.8,0.25,63,54.88
6375,E-2,1036.883,167/1000,52,54.88
6376,G#4,1037.046,0.5,58,54.88
6377,C2,1037.05,1.0,66,54.88
6378,E-4,1037.05,0.25,65,54.88
6379,C4,1037.3,0.25,64,54.88
6380,G4,1037.546,0.25,49,54.88
6381,G5,1037.546,1.5,73,54.88
6382,B-3,1037.55,0.25,62,54.88
6383,A4,1037.796,0.25,59,54.88
6384,A3,1037.8,0.25,60,54.88
6385,B4,1038.046,0.25,57,54.88
6386,E-2,1038.05,167/1000,66,54.88
6387,F2,1038.217,167/1000,60,54.88
6388,C5,1038.296,0.25,55,54.88
6389,E-2,1038.383,167/1000,66,54.88
6390,C#5,1038.546,0.25,53,54.88
6391,F2,1038.55,0.125,62,54.88
6392,E-2,1038.675,0.125,55,54.88
6393,D5,1038.796,0.25,51,54.88
6394,D2,1038.8,0.125,55,54.88
6395,E-2,1038.925,0.125,55,54.88
6396,E-5,1039.046,0.25,59,54.88
6397,F5,1039.046,0.5,59,54.88
6398,D2,1039.05,1.0,63,54.88
6399,D5,1039.296,0.25,41,54.88
6400,F5,1039.546,0.5,52,54.88
6401,E-5,1040.046,0.5,47,54.88
6402,E2,1040.05,0.5,63,54.88
6403,F#4,1040.546,0.25,45,54.88
6404,D5,1040.546,0.5,52,54.88
6405,E3,1040.55,0.5,57,54.88
6406,G4,1040.796,0.25,41,54.88
6407,G#4,1041.046,0.25,45,54.88
6408,C5,1041.046,0.5,47,54.88
6409,F3,1041.05,3.0,37,54.88
6410,G4,1041.296,0.25,41,54.88
6411,E-4,1041.3,0.25,49,54.88
6412,B4,1041.546,0.5,52,54.88
6413,D4,1041.55,0.25,48,54.88
6414,C4,1041.8,0.25,48,54.88
6415,C5,1042.046,0.5,46,54.88
6416,B3,1042.05,0.25,48,54.88
6417,C4,1042.3,0.25,52,54.88
6418,A4,1042.546,0.25,57,54.88
6419,F5,1042.546,0.5,57,54.88
6420,D4,1042.55,0.25,49,54.88
6421,B-4,1042.796,0.25,50,54.88
6422,E-4,1042.8,0.25,46,54.88
6423,A4,1043.046,0.25,55,54.88
6424,E4,1043.05,0.25,53,54.88
6425,G4,1043.296,0.25,49,54.88
6426,F4,1043.3,0.25,43,54.88
6427,F4,1043.546,0.25,58,54.88
6428,E-5,1043.546,1.5,68,54.88
6429,G4,1043.55,0.25,49,54.88
6430,G4,1043.796,0.25,55,54.88
6431,F4,1043.8,0.25,40,54.88
6432,A4,1044.046,0.25,54,54.88
6433,C4,1044.05,0.25,45,54.88
6434,F3,1044.05,3.0,37,54.88
6435,B-4,1044.296,0.25,52,54.88
6436,D4,1044.3,0.25,41,54.88
6437,B4,1044.546,0.25,50,54.88
6438,E-4,1044.55,0.25,45,54.88
6439,C5,1044.796,0.25,49,54.88
6440,D4,1044.8,0.25,39,54.88
6441,D5,1045.046,0.25,59,54.88
6442,E-5,1045.046,0.5,59,54.88
6443,C5,1045.296,0.25,41,54.88
6444,E-5,1045.546,0.5,52,54.88
6445,D5,1046.046,0.5,47,54.88
6446,F4,1046.05,0.25,45,54.88
6447,E-4,1046.3,0.25,41,54.88
6448,E4,1046.546,0.25,45,54.88
6449,C5,1046.546,0.5,52,54.88
6450,D4,1046.55,0.25,45,54.88
6451,F4,1046.796,0.25,41,54.88
6452,E-4,1046.8,0.25,41,54.88
6453,G4,1047.046,0.25,45,54.88
6454,B-4,1047.046,0.5,47,54.88
6455,C4,1047.05,0.25,48,54.88
6456,F3,1047.05,3.0,37,54.88
6457,F4,1047.296,0.25,41,54.88
6458,D4,1047.3,0.25,41,54.88
6459,A4,1047.546,0.5,52,54.88
6460,C4,1047.55,0.25,48,54.88
6461,B-3,1047.8,0.25,41,54.88
6462,B-4,1048.046,0.5,46,54.88
6463,A3,1048.05,0.25,48,54.88
6464,B-3,1048.3,0.25,52,54.88
6465,B3,1048.546,0.25,64,54.88
6466,C4,1048.55,0.25,49,54.88
6467,C4,1048.796,0.25,57,54.88
6468,D4,1048.8,0.25,46,54.88
6469,B3,1049.046,0.25,57,54.88
6470,E-4,1049.05,0.25,53,54.88
6471,A3,1049.296,0.25,57,54.88
6472,E4,1049.3,0.25,43,54.88
6473,G3,1049.546,0.25,65,54.88
6474,F4,1049.55,0.25,49,54.88
6475,A3,1049.796,0.25,58,54.88
6476,E-4,1049.8,0.25,40,54.88
6477,B3,1050.046,0.25,59,54.88
6478,F3,1050.05,2.5,37,54.88
6479,B-3,1050.05,0.25,45,54.88
6480,C4,1050.296,0.25,59,54.88
6481,C4,1050.3,0.25,41,54.88
6482,C#4,1050.546,0.25,65,54.88
6483,D4,1050.55,0.25,45,54.88
6484,D4,1050.796,0.25,58,54.88
6485,E-4,1050.8,0.25,39,54.88
6486,E-4,1051.046,0.25,58,54.88
6487,D4,1051.296,0.25,58,54.88
6488,C5,1051.546,0.5,57,54.88
6489,C4,1051.546,0.25,64,54.88
6490,D4,1051.796,0.25,57,54.88
6491,E4,1052.046,0.25,57,54.88
6492,E-4,1052.05,0.25,45,54.88
6493,F4,1052.296,0.25,57,54.88
6494,D4,1052.3,0.25,41,54.88
6495,B-4,1052.546,1.5,68,54.88
6496,F#4,1052.546,0.25,64,54.88
6497,C4,1052.55,0.25,45,54.88
6498,F#3,1052.55,0.5,37,54.88
6499,G4,1052.796,0.25,57,54.88
6500,B-3,1052.8,0.25,41,54.88
6501,G#4,1053.046,0.25,57,54.88
6502,G3,1053.05,0.25,71,54.88
6503,G2,1053.05,0.25,71,54.88
6504,G4,1053.296,0.25,57,54.88
6505,F4,1053.546,0.25,63,54.88
6506,E4,1053.796,0.25,56,54.88
6507,B-4,1054.046,0.5,59,54.88
6508,C#4,1054.046,0.25,56,54.88
6509,F2,1054.05,1.5,78,54.88
6510,F3,1054.05,1.5,78,54.88
6511,C4,1054.296,0.25,56,54.88
6512,A4,1054.546,0.25,64,54.88
6513,B-4,1054.796,0.25,57,54.88
6514,A4,1055.046,0.25,57,54.88
6515,G4,1055.296,0.25,57,54.88
6516,F4,1055.546,0.25,65,54.88
6517,F3,1055.55,0.5,66,54.88
6518,F2,1055.55,0.5,66,54.88
6519,G4,1055.796,0.25,58,54.88
6520,A4,1056.046,0.25,59,54.88
6521,F3,1056.05,0.5,68,54.88
6522,F2,1056.05,0.5,68,54.88
6523,B-4,1056.296,0.25,59,54.88
6524,B4,1056.546,0.25,65,54.88
6525,E2,1056.55,0.375,59,54.88
6526,E3,1056.55,0.375,59,54.88
6527,C5,1056.796,0.25,58,54.88
6528,D5,1057.046,0.25,58,54.88
6529,C#3,1057.05,0.5,61,54.88
6530,C#2,1057.05,0.5,61,54.88
6531,C5,1057.296,0.25,58,54.88
6532,B-4,1057.546,0.25,64,54.88
6533,C2,1057.55,0.375,54,54.88
6534,C3,1057.55,0.375,54,54.88
6535,C5,1057.796,0.25,57,54.88
6536,D5,1058.046,0.25,57,54.88
6537,B1,1058.05,0.5,61,54.88
6538,B2,1058.05,0.5,61,54.88
6539,E-5,1058.296,0.25,57,54.88
6540,E5,1058.546,0.25,64,54.88
6541,C2,1058.55,0.375,52,54.88
6542,C3,1058.55,0.375,52,54.88
6543,F5,1058.796,0.25,57,54.88
6544,G5,1059.046,0.25,57,54.88
6545,F3,1059.05,0.25,71,54.88
6546,F2,1059.05,0.25,71,54.88
6547,F5,1059.296,0.25,57,54.88
6548,G4,1059.546,0.5,66,54.88
6549,B4,1059.546,0.25,63,54.88
6550,D5,1059.796,0.25,56,54.88
6551,F4,1060.046,0.375,56,54.88
6552,E-5,1060.046,0.25,56,54.88
6553,E-2,1060.05,1.5,78,54.88
6554,E-3,1060.05,1.5,78,54.88
6555,F5,1060.296,0.25,56,54.88
6556,F4,1060.546,0.5,68,54.88
6557,B4,1060.546,0.25,64,54.88
6558,C5,1060.796,0.25,57,54.88
6559,E-4,1061.046,0.375,62,54.88
6560,D5,1061.046,0.25,57,54.88
6561,C5,1061.296,0.25,57,54.88
6562,D4,1061.546,0.5,66,54.88
6563,D5,1061.546,0.25,64,54.88
6564,E-3,1061.55,0.5,66,54.88
6565,E-2,1061.55,0.5,66,54.88
6566,E-5,1061.796,0.25,57,54.88
6567,C4,1062.046,0.375,61,54.88
6568,F5,1062.046,0.25,57,54.88
6569,E-3,1062.05,0.5,68,54.88
6570,E-2,1062.05,0.5,68,54.88
6571,E-5,1062.296,0.25,57,54.88
6572,A4,1062.546,0.25,63,54.88
6573,D3,1062.55,0.375,59,54.88
6574,D2,1062.55,0.375,59,54.88
6575,C5,1062.796,0.25,56,54.88
6576,D5,1063.046,0.25,56,54.88
6577,C3,1063.05,0.5,61,54.88
6578,C2,1063.05,0.5,61,54.88
6579,E-5,1063.296,0.25,56,54.88
6580,E5,1063.546,0.25,64,54.88
6581,B2,1063.55,0.375,54,54.88
6582,B1,1063.55,0.375,54,54.88
6583,F5,1063.796,0.25,57,54.88
6584,G5,1064.046,0.25,57,54.88
6585,F5,1064.296,0.25,57,54.88
6586,A5,1064.546,0.25,64,54.88
6587,B-5,1064.796,0.25,57,54.88
6588,C6,1065.046,0.25,57,54.88
6589,B-5,1065.296,0.25,57,54.88
6590,E-5,1065.546,0.5,66,54.88
6591,F#5,1065.546,0.25,63,54.88
6592,G5,1065.796,0.25,56,54.88
6593,D5,1066.046,0.375,56,54.88
6594,A5,1066.046,0.25,56,54.88
6595,G5,1066.296,0.25,56,54.88
6596,D5,1066.546,0.5,68,54.88
6597,G#5,1066.546,0.25,64,54.88
6598,A5,1066.796,0.25,57,54.88
6599,C5,1067.046,0.375,62,54.88
6600,B-5,1067.046,0.25,57,54.88
6601,F3,1067.05,0.5,61,54.88
6602,F2,1067.05,0.5,61,54.88
6603,A5,1067.296,0.25,57,54.88
6604,B-4,1067.546,0.5,66,54.88
6605,B5,1067.546,0.25,64,54.88
6606,E-2,1067.55,0.375,56,54.88
6607,E-3,1067.55,0.375,56,54.88
6608,C6,1067.796,0.25,57,54.88
6609,A4,1068.046,0.375,61,54.88
6610,D6,1068.046,0.25,57,54.88
6611,E-3,1068.05,0.5,61,54.88
6612,E-2,1068.05,0.5,61,54.88
6613,C6,1068.296,0.25,57,54.88
6614,D5,1068.546,0.5,66,54.88
6615,E5,1068.546,0.25,63,54.88
6616,D2,1068.55,0.375,56,54.88
6617,D3,1068.55,0.375,56,54.88
6618,F#5,1068.796,0.25,56,54.88
6619,C5,1069.046,0.375,56,54.88
6620,G5,1069.046,0.25,56,54.88
6621,C2,1069.05,0.5,61,54.88
6622,C3,1069.05,0.5,61,54.88
6623,F#5,1069.296,0.25,56,54.88
6624,C5,1069.546,0.5,68,54.88
6625,G5,1069.546,0.25,64,54.88
6626,B-1,1069.55,0.375,56,54.88
6627,B-2,1069.55,0.375,56,54.88
6628,G#5,1069.796,0.25,57,54.88
6629,B-4,1070.046,0.375,62,54.88
6630,A5,1070.046,0.25,57,54.88
6631,G5,1070.296,0.25,57,54.88
6632,D5,1070.546,0.5,66,54.88
6633,B-5,1070.546,0.25,64,54.88
6634,B5,1070.796,0.25,57,54.88
6635,E-5,1071.046,0.375,61,54.88
6636,C6,1071.046,0.25,57,54.88
6637,B-5,1071.296,0.25,57,54.88
6638,D5,1071.546,0.5,66,54.88
6639,G#5,1071.546,0.25,63,54.88
6640,A5,1071.796,0.25,56,54.88
6641,C5,1072.046,0.375,56,54.88
6642,B-5,1072.046,0.25,56,54.88
6643,A5,1072.296,0.25,56,54.88
6644,E5,1072.546,0.5,68,54.88
6645,C#6,1072.546,0.25,64,54.88
6646,D6,1072.796,0.25,57,54.88
6647,F5,1073.046,0.375,62,54.88
6648,E-6,1073.046,0.25,57,54.88
6649,D6,1073.296,0.25,57,54.88
6650,E-5,1073.546,0.5,66,54.88
6651,B5,1073.546,0.25,64,54.88
6652,C6,1073.796,0.25,57,54.88
6653,D5,1074.046,0.375,61,54.88
6654,D6,1074.046,0.25,57,54.88
6655,B-5,1074.296,0.25,57,54.88
6656,C#5,1074.546,0.25,70,54.88
6657,D5,1074.796,0.25,65,54.88
6658,C5,1075.046,3/10,71,54.88
6659,B-4,1075.296,0.25,67,54.88
6660,G#4,1075.546,0.25,64,54.88
6661,B4,1075.546,0.5,83,54.88
6662,D4,1075.796,0.25,61,54.88
6663,G4,1076.046,3/10,70,54.88
6664,C5,1076.046,3/10,70,54.88
6665,E4,1076.296,0.25,61,54.88
6666,D4,1076.546,0.25,64,54.88
6667,B-4,1076.546,0.5,82,54.88
6668,E4,1076.796,0.25,62,54.88
6669,C#4,1077.046,3/10,70,54.88
6670,A4,1077.046,3/10,70,54.88
6671,E4,1077.296,0.25,61,54.88
6672,B-4,1077.546,0.25,64,54.88
6673,C#5,1077.546,0.5,83,54.88
6674,E4,1077.796,0.25,61,54.88
6675,A4,1078.046,3/10,70,54.88
6676,D5,1078.046,3/10,70,54.88
6677,F#4,1078.296,0.25,64,54.88
6678,E-4,1078.546,0.25,64,54.88
6679,C5,1078.546,0.5,83,54.88
6680,F#4,1078.796,0.25,61,54.88
6681,D4,1079.046,3/10,70,54.88
6682,B-4,1079.046,3/10,70,54.88
6683,F#2,1079.05,0.5,70,54.88
6684,F#3,1079.05,0.5,70,54.88
6685,G4,1079.296,0.25,62,54.88
6686,B-4,1079.546,0.25,64,54.88
6687,E-5,1079.546,0.5,83,54.88
6688,G3,1079.55,0.25,61,54.88
6689,G2,1079.55,0.25,61,54.88
6690,A4,1079.796,0.25,63,54.88
6691,B-4,1080.046,3/10,70,54.88
6692,E5,1080.046,3/10,70,54.88
6693,F2,1080.05,0.5,66,54.88
6694,F3,1080.05,0.5,66,54.88
6695,G4,1080.296,0.25,62,54.88
6696,C#5,1080.546,0.25,64,54.88
6697,F#5,1080.546,0.5,82,54.88
6698,E3,1080.55,0.25,61,54.88
6699,E2,1080.55,0.25,61,54.88
6700,C5,1080.796,0.25,63,54.88
6701,C#5,1081.046,3/10,70,54.88
6702,G5,1081.046,3/10,70,54.88
6703,G3,1081.05,0.5,66,54.88
6704,G2,1081.05,0.5,66,54.88
6705,B-4,1081.296,0.25,62,54.88
6706,E4,1081.546,0.5,83,54.88
6707,G4,1081.546,0.5,83,54.88
6708,B-4,1081.546,0.5,83,54.88
6709,A3,1081.55,0.25,61,54.88
6710,A2,1081.55,0.25,61,54.88
6711,G2,1082.05,0.5,68,54.88
6712,G3,1082.05,0.5,68,54.88
6713,E6,1082.546,167/1000,88,54.88
6714,C#6,1082.546,2.0,74,54.88
6715,B-5,1082.546,2.0,74,54.88
6716,F#2,1082.55,0.25,61,54.88
6717,F#3,1082.55,0.25,61,54.88
6718,F6,1082.713,167/1000,80,54.88
6719,E6,1082.879,167/1000,88,54.88
6720,F6,1083.046,167/1000,79,54.88
6721,A2,1083.05,0.5,70,54.88
6722,A3,1083.05,0.5,70,54.88
6723,E6,1083.213,167/1000,89,54.88
6724,F6,1083.379,167/1000,82,54.88
6725,E6,1083.546,167/1000,90,54.88
6726,B-3,1083.55,0.25,61,54.88
6727,B-2,1083.55,0.25,61,54.88
6728,F6,1083.713,167/1000,82,54.88
6729,E6,1083.879,167/1000,91,54.88
6730,F6,1084.046,0.125,81,54.88
6731,F#2,1084.05,0.5,68,54.88
6732,F#3,1084.05,0.5,68,54.88
6733,E6,1084.171,0.125,88,54.88
6734,D6,1084.296,0.125,84,54.88
6735,E6,1084.421,0.125,89,54.88
6736,G6,1084.546,1.0,98,54.88
6737,G2,1084.55,0.25,61,54.88
6738,G3,1084.55,0.25,61,54.88
6739,B-3,1085.046,0.125,92,54.88
6740,E-2,1085.05,0.5,71,54.88
6741,E-3,1085.05,0.5,71,54.88
6742,E5,1085.546,167/1000,88,54.88
6743,E2,1085.55,0.25,61,54.88
6744,E3,1085.55,0.25,61,54.88
6745,F5,1085.713,167/1000,80,54.88
6746,E5,1085.879,167/1000,88,54.88
6747,F5,1086.046,167/1000,79,54.88
6748,G6,1086.046,0.25,88,54.88
6749,B-3,1086.05,0.5,61,54.88
6750,C#4,1086.05,0.5,61,54.88
6751,E5,1086.213,167/1000,89,54.88
6752,F6,1086.296,0.25,79,54.88
6753,F5,1086.379,167/1000,82,54.88
6754,E5,1086.546,167/1000,90,54.88
6755,E6,1086.546,0.25,88,54.88
6756,F5,1086.713,167/1000,82,54.88
6757,C#6,1086.796,0.25,79,54.88
6758,E5,1086.879,167/1000,91,54.88
6759,C6,1087.046,0.25,88,54.88
6760,F5,1087.046,0.125,81,54.88
6761,B-2,1087.05,2.0,69,54.88
6762,G2,1087.05,167/1000,65,54.88
6763,E5,1087.171,0.125,88,54.88
6764,A2,1087.217,167/1000,57,54.88
6765,B-5,1087.296,0.25,79,54.88
6766,D5,1087.296,0.125,84,54.88
6767,G2,1087.383,167/1000,65,54.88
6768,E5,1087.421,0.125,89,54.88
6769,F5,1087.546,1.0,98,54.88
6770,A2,1087.55,167/1000,58,54.88
6771,G2,1087.717,167/1000,66,54.88
6772,A2,1087.883,167/1000,58,54.88
6773,A5,1088.046,0.125,92,54.88
6774,G2,1088.05,167/1000,66,54.88
6775,A2,1088.217,167/1000,61,54.88
6776,G2,1088.383,167/1000,67,54.88
6777,A6,1088.546,0.5,98,54.88
6778,A2,1088.55,0.125,58,54.88
6779,G2,1088.675,0.125,69,54.88
6780,F2,1088.8,0.125,62,54.88
6781,G2,1088.925,0.125,66,54.88
6782,F5,1089.046,0.25,86,54.88
6783,E5,1089.296,0.25,85,54.88
6784,D5,1089.546,0.25,83,54.88
6785,C5,1089.796,0.25,82,54.88
6786,B-4,1090.046,0.25,81,54.88
6787,A4,1090.296,0.25,80,54.88
6788,D5,1090.546,1.0,98,54.88
6789,F5,1091.046,0.125,92,54.88
6790,F6,1091.546,0.5,98,54.88
6791,D5,1092.046,0.25,86,54.88
6792,C5,1092.296,0.25,85,54.88
6793,B-4,1092.546,0.25,83,54.88
6794,A4,1092.796,0.25,82,54.88
6795,G4,1093.046,0.25,81,54.88
6796,F4,1093.296,0.25,80,54.88
6797,B-4,1093.546,1.0,98,54.88
6798,E4,1093.55,0.5,62,54.88
6799,D5,1094.046,0.5,85,54.88
6800,F4,1094.05,0.5,73,54.88
6801,D6,1094.546,0.5,97,54.88
6802,C6,1095.046,0.5,95,54.88
6803,B-5,1095.546,0.5,92,54.88
6804,B5,1096.046,0.5,90,54.88
6805,C6,1096.546,0.5,90,54.88
6806,C#4,1096.55,0.5,62,54.88
6807,D4,1097.05,0.5,73,54.88
6808,B-5,1097.546,1.5,94,54.88
6809,B-5,1099.046,0.5,87,54.88
6810,F5,1099.546,3/10,74,54.88
6811,B-4,1099.55,3/10,70,54.88
6812,G5,1099.796,3/10,68,54.88
6813,A4,1099.8,3/10,65,54.88
6814,A5,1100.046,3/10,68,54.88
6815,G4,1100.05,3/10,70,54.88
6816,B-5,1100.296,3/10,68,54.88
6817,A4,1100.3,3/10,61,54.88
6818,B5,1100.546,3/10,72,54.88
6819,G4,1100.55,3/10,67,54.88
6820,C6,1100.796,3/10,64,54.88
6821,F4,1100.8,0.25,61,54.88
6822,D6,1101.046,3/10,69,54.88
6823,E4,1101.05,3/10,68,54.88
6824,F4,1101.05,1/20,61,54.88
6825,C6,1101.296,3/10,64,54.88
6826,F4,1101.3,3/10,62,54.88
6827,B-5,1101.546,3/10,72,54.88
6828,E4,1101.55,3/10,62,54.88
6829,A5,1101.796,3/10,64,54.88
6830,D4,1101.8,3/10,62,54.88
6831,G5,1102.046,3/10,71,54.88
6832,C4,1102.05,3/10,66,54.88
6833,F5,1102.296,0.25,66,54.88
6834,D4,1102.3,3/10,59,54.88
6835,D6,1102.546,0.5,90,54.88
6836,E4,1102.55,3/10,63,54.88
6837,F4,1102.8,3/10,59,54.88
6838,F#4,1103.05,3/10,66,54.88
6839,G4,1103.3,3/10,59,54.88
6840,C6,1103.546,1.5,94,54.88
6841,A4,1103.55,3/10,65,54.88
6842,G4,1103.8,0.25,60,54.88
6843,B-4,1104.05,0.5,85,54.88
6844,C6,1105.046,0.5,87,54.88
6845,A4,1105.05,1.5,89,54.88
6846,G5,1105.546,3/10,74,54.88
6847,A5,1105.796,3/10,68,54.88
6848,B-5,1106.046,3/10,68,54.88
6849,C6,1106.296,3/10,68,54.88
6850,C#6,1106.546,3/10,72,54.88
6851,A4,1106.55,0.5,82,54.88
6852,D6,1106.796,3/10,64,54.88
6853,E-6,1107.046,3/10,69,54.88
6854,F#4,1107.05,3/10,68,54.88
6855,D6,1107.296,3/10,64,54.88
6856,G4,1107.3,3/10,62,54.88
6857,C6,1107.546,3/10,72,54.88
6858,F#4,1107.55,3/10,62,54.88
6859,B-5,1107.796,3/10,64,54.88
6860,E4,1107.8,3/10,62,54.88
6861,A5,1108.046,3/10,71,54.88
6862,D4,1108.05,3/10,66,54.88
6863,G5,1108.296,0.25,66,54.88
6864,E4,1108.3,3/10,59,54.88
6865,F6,1108.546,0.5,90,54.88
6866,F#4,1108.55,3/10,63,54.88
6867,G4,1108.8,3/10,59,54.88
6868,G#4,1109.05,3/10,66,54.88
6869,A4,1109.3,3/10,59,54.88
6870,E-6,1109.546,1.5,94,54.88
6871,B-4,1109.55,3/10,65,54.88
6872,A4,1109.8,0.25,60,54.88
6873,C5,1110.05,0.5,85,54.88
6874,E-6,1111.046,0.5,87,54.88
6875,B-4,1111.05,1.5,89,54.88
6876,B-5,1111.546,3/10,74,54.88
6877,C6,1111.796,3/10,68,54.88
6878,D6,1112.046,3/10,68,54.88
6879,E-6,1112.296,3/10,68,54.88
6880,E6,1112.546,3/10,72,54.88
6881,B-4,1112.55,0.5,82,54.88
6882,F6,1112.796,3/10,65,54.88
6883,G6,1113.046,3/10,70,54.88
6884,A4,1113.05,3/10,68,54.88
6885,F6,1113.296,3/10,65,54.88
6886,B-4,1113.3,3/10,62,54.88
6887,E6,1113.546,3/10,74,54.88
6888,A4,1113.55,3/10,62,54.88
6889,F6,1113.796,3/10,65,54.88
6890,G4,1113.8,3/10,62,54.88
6891,F#6,1114.046,3/10,73,54.88
6892,F4,1114.05,3/10,66,54.88
6893,F6,1114.296,0.25,68,54.88
6894,G4,1114.3,3/10,59,54.88
6895,D6,1114.546,3/10,75,54.88
6896,A4,1114.55,3/10,63,54.88
6897,E-6,1114.796,3/10,70,54.88
6898,B-4,1114.8,3/10,59,54.88
6899,F6,1115.046,3/10,70,54.88
6900,B4,1115.05,3/10,66,54.88
6901,E-6,1115.296,0.25,71,54.88
6902,C5,1115.3,3/10,59,54.88
6903,C6,1115.546,3/10,76,54.88
6904,D5,1115.55,3/10,65,54.88
6905,C#6,1115.796,3/10,71,54.88
6906,C5,1115.8,0.25,60,54.88
6907,E-6,1116.046,3/10,71,54.88
6908,E-5,1116.05,0.5,85,54.88
6909,C#6,1116.296,0.25,71,54.88
6910,B5,1116.546,3/10,77,54.88
6911,C6,1116.796,3/10,72,54.88
6912,C#6,1117.046,3/10,73,54.88
6913,D5,1117.05,1.5,89,54.88
6914,C6,1117.296,0.25,73,54.88
6915,E-5,1117.546,0.25,89,54.88
6916,F#6,1118.046,0.5,95,54.88
6917,F#4,1118.546,2.0,66,54.88
6918,C5,1118.546,2.0,66,54.88
6919,F5,1118.546,0.25,72,54.88
6920,E-5,1118.55,0.25,85,54.88
6921,E-5,1118.796,0.25,65,54.88
6922,C#5,1118.8,0.25,76,54.88
6923,F5,1119.046,0.25,72,54.88
6924,B4,1119.05,3/10,86,54.88
6925,E-5,1119.296,0.25,67,54.88
6926,C5,1119.3,3/10,79,54.88
6927,F5,1119.546,0.25,72,54.88
6928,C#5,1119.55,3/10,79,54.88
6929,E-5,1119.796,0.25,67,54.88
6930,C5,1119.8,0.25,80,54.88
6931,D5,1120.046,0.25,72,54.88
6932,A4,1120.05,3/10,86,54.88
6933,E-5,1120.296,0.25,66,54.88
6934,B-4,1120.3,3/10,83,54.88
6935,D5,1120.546,1.0,74,54.88
6936,F#4,1120.546,0.5,66,54.88
6937,C5,1120.55,3/10,83,54.88
6938,B-4,1120.8,0.25,83,54.88
6939,B-3,1121.046,0.5,73,54.88
6940,F4,1121.046,0.5,73,54.88
6941,G#4,1121.05,3/10,88,54.88
6942,A4,1121.3,3/10,84,54.88
6943,B-4,1121.546,0.5,75,54.88
6944,B-4,1121.55,3/10,85,54.88
6945,A4,1121.8,0.25,85,54.88
6946,D5,1122.046,0.25,69,54.88
6947,F1,1122.05,0.25,84,54.88
6948,E-5,1122.296,0.25,61,54.88
6949,F5,1122.546,0.25,66,54.88
6950,G5,1122.796,0.25,67,54.88
6951,A5,1123.046,0.25,68,54.88
6952,A2,1123.05,167/1000,66,54.88
6953,B-2,1123.217,167/1000,58,54.88
6954,B-5,1123.296,0.25,69,54.88
6955,A2,1123.383,167/1000,66,54.88
6956,F5,1123.546,1.0,78,54.88
6957,B-2,1123.55,167/1000,59,54.88
6958,A2,1123.717,167/1000,66,54.88
6959,B-2,1123.883,167/1000,60,54.88
6960,D4,1124.046,0.5,73,54.88
6961,A2,1124.05,167/1000,66,54.88
6962,B-2,1124.217,167/1000,66,54.88
6963,A2,1124.383,167/1000,66,54.88
6964,D5,1124.546,0.5,75,54.88
6965,B-2,1124.55,0.125,60,54.88
6966,A2,1124.675,0.125,66,54.88
6967,G2,1124.8,0.125,60,54.88
6968,A2,1124.925,0.125,60,54.88
6969,F5,1125.046,0.25,69,54.88
6970,B-2,1125.05,1.0,71,54.88
6971,G5,1125.296,0.25,61,54.88
6972,A5,1125.546,0.25,66,54.88
6973,B-5,1125.796,0.25,67,54.88
6974,C6,1126.046,0.25,68,54.88
6975,D6,1126.296,0.25,69,54.88
6976,G5,1126.546,1.0,78,54.88
6977,B-2,1126.55,0.25,60,54.88
6978,A2,1126.8,0.25,52,54.88
6979,E-4,1127.046,0.5,73,54.88
6980,G2,1127.05,0.25,59,54.88
6981,F2,1127.3,0.25,59,54.88
6982,E-5,1127.546,0.5,75,54.88
6983,E-2,1127.55,0.25,63,54.88
6984,D2,1127.8,0.25,64,54.88
6985,G5,1128.046,0.25,69,54.88
6986,F2,1128.05,1.0,69,54.88
6987,A5,1128.296,0.25,61,54.88
6988,B-5,1128.546,0.25,66,54.88
6989,B5,1128.796,0.25,67,54.88
6990,C6,1129.046,0.25,68,54.88
6991,D6,1129.296,0.25,69,54.88
6992,E-6,1129.546,0.5,78,54.88
6993,G2,1129.55,0.25,60,54.88
6994,F2,1129.8,0.25,52,54.88
6995,E6,1130.046,0.75,83,54.88
6996,E-2,1130.05,0.25,59,54.88
6997,D2,1130.3,0.25,59,54.88
6998,C2,1130.55,0.25,63,54.88
6999,F6,1130.796,0.25,73,54.88
7000,B-1,1130.8,0.25,64,54.88
7001,E-6,1131.046,0.25,81,54.88
7002,E-2,1131.05,1.0,69,54.88
7003,D6,1131.296,0.25,78,54.88
7004,C6,1131.546,0.25,79,54.88
7005,B-5,1131.796,0.25,75,54.88
7006,A5,1132.046,0.25,75,54.88
7007,G5,1132.296,0.25,75,54.88
7008,F5,1132.546,0.25,80,54.88
7009,E-2,1132.55,0.25,60,54.88
7010,G5,1132.796,0.25,70,54.88
7011,D2,1132.8,0.25,52,54.88
7012,F5,1133.046,0.25,76,54.88
7013,C2,1133.05,0.25,59,54.88
7014,E-5,1133.296,0.25,68,54.88
7015,D2,1133.3,0.25,59,54.88
7016,D5,1133.546,0.25,74,54.88
7017,C2,1133.55,0.25,63,54.88
7018,E-5,1133.796,0.25,68,54.88
7019,B-1,1133.8,0.25,64,54.88
7020,F5,1134.046,0.25,73,54.88
7021,A1,1134.05,0.5,59,54.88
7022,E5,1134.296,0.25,66,54.88
7023,F5,1134.546,0.5,78,54.88
7024,A2,1134.55,0.25,60,54.88
7025,G2,1134.8,0.25,52,54.88
7026,F3,1135.05,0.5,59,54.88
7027,F2,1135.05,0.5,59,54.88
7028,A4,1136.05,167/1000,59,54.88
7029,B-4,1136.217,167/1000,54,54.88
7030,A4,1136.383,167/1000,59,54.88
7031,B3,1136.546,0.5,78,54.88
7032,B-4,1136.55,167/1000,54,54.88
7033,A4,1136.717,167/1000,59,54.88
7034,B-4,1136.883,167/1000,53,54.88
7035,A4,1137.05,167/1000,59,54.88
7036,B-4,1137.217,167/1000,54,54.88
7037,A4,1137.383,167/1000,59,54.88
7038,E-5,1137.546,167/1000,64,54.88
7039,B-4,1137.55,0.125,53,54.88
7040,A4,1137.675,0.125,56,54.88
7041,F5,1137.713,167/1000,59,54.88
7042,G4,1137.8,0.125,53,54.88
7043,E-5,1137.879,167/1000,64,54.88
7044,A4,1137.925,0.125,53,54.88
7045,F5,1138.046,167/1000,59,54.88
7046,B-4,1138.05,1.0,59,54.88
7047,E-5,1138.213,167/1000,64,54.88
7048,F5,1138.379,167/1000,58,54.88
7049,E-5,1138.546,167/1000,64,54.88
7050,B-2,1138.55,0.25,73,54.88
7051,F5,1138.713,167/1000,59,54.88
7052,E-5,1138.879,167/1000,64,54.88
7053,F5,1139.046,0.125,58,54.88
7054,D4,1139.05,0.125,73,54.88
7055,E-5,1139.171,0.125,61,54.88
7056,E-4,1139.175,0.125,68,54.88
7057,D5,1139.296,0.125,58,54.88
7058,D4,1139.3,0.125,73,54.88
7059,E-5,1139.421,0.125,58,54.88
7060,E-4,1139.425,0.125,68,54.88
7061,G5,1139.546,1.0,64,54.88
7062,B-4,1139.55,0.25,73,54.88
7063,A4,1139.8,0.25,74,54.88
7064,G4,1140.05,0.25,72,54.88
7065,F4,1140.3,0.25,69,54.88
7066,E-4,1140.55,0.25,67,54.88
7067,D4,1140.8,0.25,64,54.88
7068,G5,1141.046,0.25,73,54.88
7069,G4,1141.05,1.0,73,54.88
7070,F5,1141.296,0.25,74,54.88
7071,E-5,1141.546,0.25,72,54.88
7072,D5,1141.796,0.25,69,54.88
7073,C5,1142.046,0.25,67,54.88
7074,B4,1142.296,0.25,64,54.88
7075,C5,1142.546,1.0,73,54.88
7076,G4,1142.55,0.25,73,54.88
7077,F4,1142.8,0.25,74,54.88
7078,E-4,1143.05,0.25,72,54.88
7079,D4,1143.3,0.25,69,54.88
7080,G4,1143.546,1.0,73,54.88
7081,C4,1143.55,0.25,67,54.88
7082,B3,1143.8,0.25,64,54.88
7083,C5,1144.046,0.25,73,54.88
7084,E-4,1144.05,1.0,73,54.88
7085,B-4,1144.296,0.25,70,54.88
7086,C4,1144.546,1.0,73,54.88
7087,A4,1144.546,0.25,72,54.88
7088,E-3,1144.55,0.25,73,54.88
7089,G4,1144.796,0.25,69,54.88
7090,F4,1145.046,0.25,67,54.88
7091,C4,1145.05,0.125,73,54.88
7092,D4,1145.175,0.125,68,54.88
7093,E4,1145.296,0.25,64,54.88
7094,C4,1145.3,0.125,73,54.88
7095,D4,1145.425,0.125,68,54.88
7096,D4,1145.546,0.25,64,54.88
7097,E-4,1145.55,0.25,62,54.88
7098,C4,1145.796,0.25,61,54.88
7099,D4,1145.8,0.25,62,54.88
7100,B-3,1146.046,0.25,59,54.88
7101,C4,1146.05,0.25,61,54.88
7102,A3,1146.296,0.25,58,54.88
7103,B3,1146.3,0.25,58,54.88
7104,A4,1146.546,0.5,73,54.88
7105,A3,1146.55,0.25,56,54.88
7106,G3,1146.8,0.25,54,54.88
7107,D4,1147.046,0.25,68,54.88
7108,C2,1147.05,0.5,73,54.88
7109,E-4,1147.05,1.0,62,54.88
7110,C4,1147.296,0.25,64,54.88
7111,B-3,1147.546,0.25,68,54.88
7112,A3,1147.796,0.25,65,54.88
7113,G3,1148.046,0.25,63,54.88
7114,E3,1148.05,167/1000,59,54.88
7115,F3,1148.217,167/1000,54,54.88
7116,F3,1148.296,0.25,60,54.88
7117,E3,1148.383,167/1000,59,54.88
7118,E3,1148.546,0.25,64,54.88
7119,F3,1148.55,167/1000,54,54.88
7120,E3,1148.717,167/1000,59,54.88
7121,D3,1148.796,0.25,64,54.88
7122,F3,1148.883,167/1000,53,54.88
7123,C3,1149.046,0.25,62,54.88
7124,E3,1149.05,167/1000,59,54.88
7125,F3,1149.217,167/1000,54,54.88
7126,B-2,1149.296,0.25,61,54.88
7127,E3,1149.383,167/1000,59,54.88
7128,F3,1149.55,0.125,53,54.88
7129,E3,1149.675,0.125,56,54.88
7130,D3,1149.8,0.125,53,54.88
7131,E3,1149.925,0.125,53,54.88
7132,E-5,1150.046,0.25,76,54.88
7133,F3,1150.05,1.0,59,54.88
7134,D5,1150.296,0.25,71,54.88
7135,C5,1150.546,0.25,77,54.88
7136,B-4,1150.796,0.25,74,54.88
7137,A4,1151.046,0.25,71,54.88
7138,G4,1151.296,0.25,68,54.88
7139,F4,1151.546,0.25,74,54.88
7140,F3,1151.55,0.25,64,54.88
7141,E-4,1151.796,0.25,73,54.88
7142,E3,1151.8,0.25,59,54.88
7143,D4,1152.046,0.25,71,54.88
7144,D3,1152.05,0.25,65,54.88
7145,C4,1152.296,0.25,69,54.88
7146,C3,1152.3,0.25,62,54.88
7147,C5,1152.546,0.5,77,54.88
7148,B-2,1152.55,0.25,59,54.88
7149,A2,1152.8,0.25,56,54.88
7150,C4,1153.046,0.25,74,54.88
7151,G3,1153.05,1.0,86,54.88
7152,B-3,1153.296,0.25,70,54.88
7153,A3,1153.546,0.25,76,54.88
7154,G3,1153.796,0.25,72,54.88
7155,F3,1154.046,0.25,70,54.88
7156,B-3,1154.05,0.5,76,54.88
7157,E-3,1154.296,0.25,68,54.88
7158,D3,1154.546,0.25,72,54.88
7159,G3,1154.55,0.25,64,54.88
7160,C4,1154.796,0.25,79,54.88
7161,F3,1154.8,0.25,60,54.88
7162,B-3,1155.046,0.25,69,54.88
7163,E-3,1155.05,0.25,64,54.88
7164,A3,1155.296,0.25,66,54.88
7165,D3,1155.3,0.25,61,54.88
7166,D4,1155.546,0.5,61,54.88
7167,D5,1155.546,0.25,76,54.88
7168,C3,1155.55,0.25,60,54.88
7169,C5,1155.796,0.25,72,54.88
7170,B-2,1155.8,0.25,59,54.88
7171,F5,1156.046,0.25,76,54.88
7172,A3,1156.05,1.0,64,54.88
7173,E-5,1156.296,0.25,71,54.88
7174,D5,1156.546,0.25,79,54.88
7175,C5,1156.796,0.25,76,54.88
7176,B-4,1157.046,0.25,74,54.88
7177,A4,1157.296,0.25,71,54.88
7178,G5,1157.546,0.25,78,54.88
7179,A3,1157.55,0.25,62,54.88
7180,F5,1157.796,0.25,76,54.88
7181,G3,1157.8,0.25,59,54.88
7182,E-5,1158.046,0.25,73,54.88
7183,F3,1158.05,0.25,64,54.88
7184,D5,1158.296,0.25,71,54.88
7185,E-3,1158.3,0.25,61,54.88
7186,D5,1158.546,1.0,61,54.88
7187,B-5,1158.546,0.25,81,54.88
7188,D3,1158.55,0.25,59,54.88
7189,A5,1158.796,0.25,78,54.88
7190,C3,1158.8,0.25,57,54.88
7191,G5,1159.046,0.25,75,54.88
7192,B-2,1159.05,0.25,61,54.88
7193,F5,1159.296,0.25,72,54.88
7194,A3,1159.3,0.25,67,54.88
7195,G4,1159.546,0.5,86,54.88
7196,E-5,1159.546,0.5,86,54.88
7197,G3,1159.55,0.25,58,54.88
7198,F3,1159.8,0.25,56,54.88
7199,C5,1160.046,0.5,86,54.88
7200,B-3,1160.05,0.25,64,54.88
7201,A3,1160.3,0.25,61,54.88
7202,A6,1160.546,167/1000,86,54.88
7203,D4,1160.55,0.25,64,54.88
7204,B-6,1160.713,167/1000,82,54.88
7205,C4,1160.8,0.25,60,54.88
7206,A6,1160.879,167/1000,86,54.88
7207,C6,1161.046,0.5,86,54.88
7208,B-6,1161.046,167/1000,81,54.88
7209,B-3,1161.05,0.25,67,54.88
7210,A6,1161.213,167/1000,86,54.88
7211,A3,1161.3,0.25,64,54.88
7212,B-6,1161.379,167/1000,81,54.88
7213,A6,1161.546,167/1000,86,54.88
7214,G3,1161.55,0.25,62,54.88
7215,B-6,1161.713,167/1000,80,54.88
7216,F3,1161.8,0.25,60,54.88
7217,A6,1161.879,167/1000,86,54.88
7218,B-6,1162.046,0.125,86,54.88
7219,F6,1162.046,0.5,82,54.88
7220,E-3,1162.05,0.25,66,54.88
7221,A6,1162.171,0.125,81,54.88
7222,G6,1162.296,0.125,80,54.88
7223,D3,1162.3,0.25,64,54.88
7224,A6,1162.421,0.125,80,54.88
7225,B-6,1162.546,1.0,90,54.88
7226,C3,1162.55,0.25,62,54.88
7227,B-2,1162.8,0.25,60,54.88
7228,D6,1163.046,0.5,88,54.88
7229,G2,1163.05,0.25,68,54.88
7230,A2,1163.3,0.25,66,54.88
7231,B-2,1163.55,0.25,63,54.88
7232,B2,1163.8,0.25,61,54.88
7233,B-6,1164.046,0.25,88,54.88
7234,C3,1164.05,0.25,61,54.88
7235,A6,1164.296,0.25,86,54.88
7236,D3,1164.3,0.25,62,54.88
7237,G6,1164.546,0.25,83,54.88
7238,E-3,1164.55,0.25,64,54.88
7239,F6,1164.796,0.25,81,54.88
7240,D3,1164.8,0.25,62,54.88
7241,E-6,1165.046,0.25,78,54.88
7242,C3,1165.05,0.25,61,54.88
7243,D6,1165.296,0.25,76,54.88
7244,B-2,1165.3,0.25,58,54.88
7245,E-4,1165.546,0.5,82,54.88
7246,G6,1165.546,0.5,82,54.88
7247,A2,1165.55,0.25,58,54.88
7248,G2,1165.8,0.25,57,54.88
7249,G5,1166.046,0.5,81,54.88
7250,F2,1166.05,0.25,61,54.88
7251,E-2,1166.3,0.25,61,54.88
7252,G5,1166.546,167/1000,69,54.88
7253,D2,1166.55,0.25,64,54.88
7254,A5,1166.713,167/1000,64,54.88
7255,C2,1166.8,0.25,66,54.88
7256,G5,1166.879,167/1000,68,54.88
7257,A5,1167.046,167/1000,66,54.88
7258,G6,1167.046,0.25,88,54.88
7259,B-1,1167.05,0.5,76,54.88
7260,G5,1167.213,167/1000,69,54.88
7261,F6,1167.296,0.25,86,54.88
7262,A5,1167.379,167/1000,66,54.88
7263,G5,1167.546,167/1000,71,54.88
7264,E-6,1167.546,0.25,83,54.88
7265,A5,1167.713,167/1000,65,54.88
7266,D6,1167.796,0.25,81,54.88
7267,G5,1167.879,167/1000,71,54.88
7268,A5,1168.046,167/1000,69,54.88
7269,C6,1168.046,0.25,78,54.88
7270,D3,1168.05,167/1000,64,54.88
7271,G5,1168.213,167/1000,73,54.88
7272,E-3,1168.217,167/1000,59,54.88
7273,B-5,1168.296,0.25,76,54.88
7274,A5,1168.379,167/1000,67,54.88
7275,D3,1168.383,167/1000,65,54.88
7276,E-6,1168.546,1.0,88,54.88
7277,G5,1168.546,167/1000,75,54.88
7278,E-3,1168.55,167/1000,60,54.88
7279,A5,1168.713,167/1000,70,54.88
7280,D3,1168.717,167/1000,66,54.88
7281,G5,1168.879,167/1000,74,54.88
7282,E-3,1168.883,167/1000,61,54.88
7283,G#5,1169.046,0.5,72,54.88
7284,D3,1169.05,167/1000,67,54.88
7285,E-3,1169.217,167/1000,62,54.88
7286,D3,1169.383,167/1000,68,54.88
7287,A5,1169.546,0.5,78,54.88
7288,E-3,1169.55,0.125,65,54.88
7289,D3,1169.675,0.125,69,54.88
7290,C3,1169.8,0.125,65,54.88
7291,D3,1169.925,0.125,65,54.88
7292,E-6,1170.046,0.25,88,54.88
7293,E-3,1170.05,0.5,72,54.88
7294,D6,1170.296,0.25,82,54.88
7295,C6,1170.546,0.25,88,54.88
7296,D6,1170.796,0.25,82,54.88
7297,E4,1171.046,0.5,67,54.88
7298,C6,1171.046,0.25,83,54.88
7299,B-5,1171.296,0.25,83,54.88
7300,F4,1171.546,0.5,72,54.88
7301,A5,1171.546,0.25,88,54.88
7302,B-5,1171.796,0.25,83,54.88
7303,A5,1172.046,0.25,83,54.88
7304,G5,1172.296,0.25,83,54.88
7305,F5,1172.546,0.25,88,54.88
7306,G5,1172.796,0.25,82,54.88
7307,A5,1173.046,0.25,82,54.88
7308,B-5,1173.296,0.25,82,54.88
7309,B5,1173.546,0.25,84,54.88
7310,C6,1173.796,0.25,85,54.88
7311,D6,1174.046,0.25,86,54.88
7312,C6,1174.296,0.25,84,54.88
7313,B-5,1174.546,0.25,89,54.88
7314,E3,1174.55,0.5,67,54.88
7315,C6,1174.796,0.25,90,54.88
7316,D6,1175.046,0.25,92,54.88
7317,F3,1175.05,1.0,72,54.88
7318,E-6,1175.296,0.25,94,54.88
7319,F6,1175.546,0.25,96,54.88
7320,G#5,1175.796,0.25,82,54.88
7321,A5,1176.046,0.25,83,54.88
7322,B-5,1176.296,0.25,87,54.88
7323,C6,1176.546,0.5,95,54.88
7324,F3,1176.55,0.5,72,54.88
7325,B-5,1177.046,0.5,88,54.88
7326,E-4,1177.05,1.5,66,54.88
7327,F#4,1177.05,1.5,66,54.88
7328,G5,1177.546,0.5,88,54.88
7329,B-5,1177.546,0.5,88,54.88
7330,F5,1178.046,0.5,82,54.88
7331,G#5,1178.046,0.5,82,54.88
7332,B-4,1178.546,0.5,82,54.88
7333,G5,1178.546,0.5,82,54.88
7334,F#4,1178.55,0.5,61,54.88
7335,E-4,1178.55,0.5,61,54.88
7336,G#4,1179.046,0.5,78,54.88
7337,F5,1179.046,0.5,78,54.88
7338,E-4,1179.05,0.5,64,54.88
7339,F#4,1179.05,0.5,64,54.88
7340,G#6,1179.546,0.5,92,54.88
7341,F6,1179.546,0.5,92,54.88
7342,F4,1179.55,0.5,62,54.88
7343,D4,1179.55,0.5,62,54.88
7344,E-6,1180.046,0.375,88,54.88
7345,G6,1180.046,0.375,88,54.88
7346,C4,1180.05,0.5,60,54.88
7347,E-4,1180.05,0.5,60,54.88
7348,G6,1180.546,0.5,93,54.88
7349,E-6,1180.546,0.5,93,54.88
7350,D4,1180.55,0.5,58,54.88
7351,B-3,1180.55,0.5,58,54.88
7352,C6,1181.046,0.5,88,54.88
7353,E-6,1181.046,0.5,88,54.88
7354,D3,1181.05,0.25,63,54.88
7355,E-3,1181.3,0.25,56,54.88
7356,D6,1181.546,0.5,92,54.88
7357,B-5,1181.546,0.5,92,54.88
7358,D3,1181.55,0.25,57,54.88
7359,C3,1181.8,0.25,57,54.88
7360,F6,1182.046,0.375,83,54.88
7361,D6,1182.046,0.375,83,54.88
7362,B-2,1182.05,0.25,63,54.88
7363,C3,1182.3,0.25,58,54.88
7364,C5,1182.546,0.5,88,54.88
7365,E-5,1182.546,0.5,88,54.88
7366,A5,1182.546,0.5,88,54.88
7367,D3,1182.55,0.25,58,54.88
7368,E-3,1182.8,0.25,58,54.88
7369,B-4,1183.046,0.5,89,54.88
7370,D5,1183.046,0.5,89,54.88
7371,B-5,1183.046,0.5,89,54.88
7372,E3,1183.05,0.25,61,54.88
7373,F3,1183.3,0.25,62,54.88
7374,G3,1183.55,0.25,64,54.88
7375,F3,1183.8,0.25,62,54.88
7376,D3,1184.05,0.25,61,54.88
7377,E-3,1184.3,0.25,63,54.88
7378,G#5,1184.546,0.5,62,54.88
7379,F3,1184.55,0.25,65,54.88
7380,E-3,1184.8,0.25,63,54.88
7381,B2,1185.05,0.25,63,54.88
7382,C3,1185.3,0.25,63,54.88
7383,F#4,1185.546,167/1000,45,54.88
7384,D3,1185.55,0.25,65,54.88
7385,G4,1185.713,167/1000,42,54.88
7386,E-3,1185.8,0.25,66,54.88
7387,F#4,1185.879,167/1000,48,54.88
7388,G4,1186.046,167/1000,46,54.88
7389,E3,1186.05,0.25,68,54.88
7390,F#4,1186.213,167/1000,52,54.88
7391,F3,1186.3,0.25,70,54.88
7392,G4,1186.379,167/1000,48,54.88
7393,F#4,1186.546,167/1000,56,54.88
7394,G3,1186.55,0.25,73,54.88
7395,G4,1186.713,167/1000,51,54.88
7396,F3,1186.8,0.25,69,54.88
7397,F#4,1186.879,167/1000,58,54.88
7398,G4,1187.046,0.125,55,54.88
7399,F3,1187.05,0.5,66,54.88
7400,F2,1187.05,0.5,66,54.88
7401,F#4,1187.171,0.125,63,54.88
7402,G4,1187.296,0.125,58,54.88
7403,F#4,1187.421,0.125,60,54.88
7404,F#5,1187.546,0.5,93,54.88
7405,B-1,1187.55,0.5,62,54.88
7406,B-2,1187.55,0.5,62,54.88
7407,E-4,1188.546,167/1000,63,54.88
7408,F4,1188.713,167/1000,57,54.88
7409,E-4,1188.879,167/1000,66,54.88
7410,F4,1189.046,167/1000,60,54.88
7411,E-4,1189.213,167/1000,69,54.88
7412,F4,1189.379,167/1000,64,54.88
7413,E-4,1189.546,167/1000,73,54.88
7414,F4,1189.713,167/1000,67,54.88
7415,E-4,1189.879,167/1000,76,54.88
7416,F4,1190.046,0.125,71,54.88
7417,B-1,1190.05,0.5,45,54.88
7418,E-4,1190.171,0.125,80,54.88
7419,D4,1190.296,0.125,74,54.88
7420,E-4,1190.421,0.125,75,54.88
7421,F#4,1190.546,0.25,83,54.88
7422,A2,1190.796,0.25,63,54.88
7423,C3,1191.046,0.25,65,54.88
7424,D3,1191.05,167/1000,56,54.88
7425,E-3,1191.217,167/1000,51,54.88
7426,E-3,1191.296,0.25,66,54.88
7427,D3,1191.383,167/1000,59,54.88
7428,F#3,1191.546,0.25,68,54.88
7429,E-3,1191.55,0.125,55,54.88
7430,D3,1191.675,0.125,63,54.88
7431,A3,1191.796,0.25,70,54.88
7432,E-3,1191.8,0.125,56,54.88
7433,D3,1191.925,0.125,58,54.88
7434,C4,1192.046,0.25,71,54.88
7435,E-3,1192.05,0.5,67,54.88
7436,E-4,1192.05,0.5,67,54.88
7437,E-4,1192.296,0.25,73,54.88
7438,F#4,1192.546,0.25,78,54.88
7439,A3,1192.796,0.25,64,54.88
7440,C4,1193.046,0.25,66,54.88
7441,F#5,1193.05,1.0,57,54.88
7442,E-4,1193.296,0.25,68,54.88
7443,F#4,1193.546,0.25,69,54.88
7444,A4,1193.796,0.25,71,54.88
7445,C5,1194.046,0.25,73,54.88
7446,F#2,1194.05,0.5,80,54.88
7447,F#3,1194.05,0.5,80,54.88
7448,E-5,1194.296,0.25,75,54.88
7449,F#5,1194.546,0.25,81,54.88
7450,A4,1194.796,0.25,66,54.88
7451,C5,1195.046,0.25,67,54.88
7452,E-1,1195.05,167/1000,100,54.88
7453,F1,1195.217,167/1000,56,54.88
7454,E-5,1195.296,0.25,69,54.88
7455,E-1,1195.383,167/1000,66,54.88
7456,F#5,1195.546,0.25,71,54.88
7457,F1,1195.55,167/1000,55,54.88
7458,E-1,1195.717,167/1000,66,54.88
7459,A5,1195.796,0.25,72,54.88
7460,F1,1195.883,167/1000,54,54.88
7461,C6,1196.046,0.25,74,54.88
7462,E-1,1196.05,167/1000,64,54.88
7463,F1,1196.217,167/1000,57,54.88
7464,E-6,1196.296,0.25,76,54.88
7465,E-1,1196.383,167/1000,63,54.88
7466,F#6,1196.546,0.25,86,54.88
7467,F1,1196.55,167/1000,53,54.88
7468,E-1,1196.717,167/1000,62,54.88
7469,A4,1196.796,0.25,67,54.88
7470,F1,1196.883,167/1000,55,54.88
7471,C5,1197.046,0.25,70,54.88
7472,E-1,1197.05,167/1000,62,54.88
7473,F1,1197.217,167/1000,52,54.88
7474,E-5,1197.296,0.25,74,54.88
7475,E-1,1197.383,167/1000,61,54.88
7476,F#5,1197.546,0.25,77,54.88
7477,F1,1197.55,167/1000,51,54.88
7478,E-1,1197.717,167/1000,59,54.88
7479,A3,1197.796,0.25,63,54.88
7480,F1,1197.883,167/1000,50,54.88
7481,C4,1198.046,0.25,68,54.88
7482,E-1,1198.05,167/1000,58,54.88
7483,F1,1198.217,167/1000,50,54.88
7484,E-4,1198.296,0.25,72,54.88
7485,E-1,1198.383,167/1000,57,54.88
7486,F#4,1198.546,0.25,76,54.88
7487,F1,1198.55,167/1000,51,54.88
7488,E-1,1198.717,167/1000,57,54.88
7489,A2,1198.796,0.25,64,54.88
7490,F1,1198.883,167/1000,49,54.88
7491,C3,1199.046,0.25,69,54.88
7492,E-1,1199.05,167/1000,56,54.88
7493,F1,1199.217,167/1000,49,54.88
7494,E-3,1199.296,0.25,74,54.88
7495,E-1,1199.383,167/1000,56,54.88
7496,F#3,1199.546,1.0,79,54.88
7497,F1,1199.55,167/1000,49,54.88
7498,E-1,1199.717,167/1000,56,54.88
7499,F1,1199.883,167/1000,48,54.88
7500,E-1,1200.05,167/1000,56,54.88
7501,F1,1200.217,167/1000,48,54.88
7502,E-1,1200.383,167/1000,56,54.88
7503,A2,1200.546,1.0,79,54.88
7504,F#2,1200.546,1.0,79,54.88
7505,E-3,1200.546,1.0,79,54.88
7506,F1,1200.55,167/1000,48,54.88
7507,E-1,1200.717,167/1000,56,54.88
7508,F1,1200.883,167/1000,48,54.88
7509,E-1,1201.05,167/1000,56,54.88
7510,F1,1201.217,167/1000,49,54.88
7511,E-1,1201.383,167/1000,56,54.88
7512,F1,1201.55,167/1000,50,54.88
7513,E-1,1201.717,167/1000,56,54.88
7514,F1,1201.883,167/1000,49,54.88
7515,A2,1202.046,0.5,79,54.88
7516,F#2,1202.046,0.5,79,54.88
7517,E-3,1202.046,0.5,79,54.88
7518,E-1,1202.05,167/1000,56,54.88
7519,F1,1202.217,167/1000,49,54.88
7520,E-1,1202.383,167/1000,56,54.88
7521,F2,1202.546,0.5,70,54.88
7522,G#2,1202.546,0.5,70,54.88
7523,D3,1202.546,0.5,70,54.88
7524,F1,1202.55,167/1000,49,54.88
7525,E-1,1202.717,167/1000,56,54.88
7526,F1,1202.883,167/1000,48,54.88
7527,B-4,1203.046,0.25,50,54.88
7528,E-1,1203.05,167/1000,56,54.88
7529,F1,1203.217,167/1000,48,54.88
7530,G#4,1203.296,0.25,45,54.88
7531,E-1,1203.383,167/1000,56,54.88
7532,B-4,1203.546,0.25,50,54.88
7533,F1,1203.55,167/1000,48,54.88
7534,E-1,1203.717,167/1000,56,54.88
7535,G#4,1203.796,0.25,45,54.88
7536,F1,1203.883,167/1000,48,54.88
7537,B-4,1204.046,0.25,50,54.88
7538,E-1,1204.05,167/1000,56,54.88
7539,F1,1204.217,167/1000,49,54.88
7540,G#4,1204.296,0.25,45,54.88
7541,E-1,1204.383,167/1000,56,54.88
7542,G4,1204.546,0.25,50,54.88
7543,F1,1204.55,167/1000,50,54.88
7544,E-1,1204.717,167/1000,56,54.88
7545,G#4,1204.796,0.25,45,54.88
7546,F1,1204.883,167/1000,41,54.88
7547,B4,1205.046,1.0,58,54.88
7548,F1,1205.05,1.0,30,54.88
7549,B-1,1205.05,167/1000,54,54.88
7550,C2,1205.217,167/1000,44,54.88
7551,B-1,1205.383,167/1000,52,54.88
7552,G#3,1205.546,0.5,53,54.88
7553,C2,1205.55,167/1000,39,54.88
7554,B-1,1205.717,167/1000,49,54.88
7555,C2,1205.883,167/1000,38,54.88
7556,G#4,1206.046,0.5,50,54.88
7557,F1,1206.05,3.0,30,54.88
7558,B-1,1206.05,167/1000,46,54.88
7559,C2,1206.217,167/1000,36,54.88
7560,B-1,1206.383,167/1000,44,54.88
7561,B4,1206.546,0.25,46,54.88
7562,G5,1206.546,0.5,55,54.88
7563,C2,1206.55,167/1000,33,54.88
7564,B-1,1206.717,167/1000,41,54.88
7565,B-4,1206.796,0.25,50,54.88
7566,C2,1206.883,167/1000,30,54.88
7567,G#4,1207.046,0.25,47,54.88
7568,G#5,1207.046,0.5,56,54.88
7569,B-1,1207.05,167/1000,37,54.88
7570,C2,1207.217,167/1000,31,54.88
7571,F#4,1207.296,0.25,48,54.88
7572,B-1,1207.383,167/1000,37,54.88
7573,F4,1207.546,0.25,52,54.88
7574,C2,1207.55,167/1000,32,54.88
7575,B-1,1207.717,167/1000,37,54.88
7576,E-4,1207.796,0.25,48,54.88
7577,C2,1207.883,167/1000,32,54.88
7578,G#4,1208.046,1.0,58,54.88
7579,B-1,1208.05,167/1000,37,54.88
7580,C2,1208.217,167/1000,31,54.88
7581,B-1,1208.383,167/1000,37,54.88
7582,F3,1208.546,0.5,53,54.88
7583,C2,1208.55,167/1000,30,54.88
7584,B-1,1208.717,167/1000,37,54.88
7585,C2,1208.883,167/1000,31,54.88
7586,F4,1209.046,0.5,50,54.88
7587,B-1,1209.05,167/1000,37,54.88
7588,F1,1209.05,3.0,30,54.88
7589,C2,1209.217,167/1000,31,54.88
7590,B-1,1209.383,167/1000,37,54.88
7591,G#4,1209.546,0.25,46,54.88
7592,E5,1209.546,0.5,55,54.88
7593,C2,1209.55,167/1000,30,54.88
7594,B-1,1209.717,167/1000,37,54.88
7595,F#4,1209.796,0.25,50,54.88
7596,C2,1209.883,167/1000,31,54.88
7597,F4,1210.046,0.25,47,54.88
7598,F5,1210.046,0.5,56,54.88
7599,B-1,1210.05,167/1000,37,54.88
7600,C2,1210.217,167/1000,31,54.88
7601,E-4,1210.296,0.25,48,54.88
7602,B-1,1210.383,167/1000,37,54.88
7603,D4,1210.546,0.25,52,54.88
7604,C2,1210.55,167/1000,30,54.88
7605,B-1,1210.717,167/1000,37,54.88
7606,B3,1210.796,0.25,48,54.88
7607,C2,1210.883,167/1000,31,54.88
7608,F#4,1211.046,1.0,58,54.88
7609,B-1,1211.05,167/1000,37,54.88
7610,C2,1211.217,167/1000,31,54.88
7611,B-1,1211.383,167/1000,37,54.88
7612,E-3,1211.546,0.5,53,54.88
7613,C2,1211.55,167/1000,30,54.88
7614,B-1,1211.717,167/1000,37,54.88
7615,C2,1211.883,167/1000,31,54.88
7616,E-4,1212.046,0.5,50,54.88
7617,B-1,1212.05,167/1000,37,54.88
7618,F1,1212.05,3.0,30,54.88
7619,C2,1212.217,167/1000,31,54.88
7620,B-1,1212.383,167/1000,37,54.88
7621,F#4,1212.546,0.25,46,54.88
7622,D5,1212.546,0.5,55,54.88
7623,C2,1212.55,167/1000,30,54.88
7624,B-1,1212.717,167/1000,37,54.88
7625,F4,1212.796,0.25,50,54.88
7626,C2,1212.883,167/1000,31,54.88
7627,E-4,1213.046,0.25,47,54.88
7628,E-5,1213.046,0.5,56,54.88
7629,B-1,1213.05,167/1000,37,54.88
7630,C2,1213.217,167/1000,31,54.88
7631,C#4,1213.296,0.25,48,54.88
7632,B-1,1213.383,167/1000,37,54.88
7633,E-4,1213.546,0.5,56,54.88
7634,B3,1213.546,0.25,52,54.88
7635,C2,1213.55,167/1000,30,54.88
7636,B-1,1213.717,167/1000,37,54.88
7637,B-3,1213.796,0.25,48,54.88
7638,C2,1213.883,167/1000,31,54.88
7639,A3,1214.046,0.5,50,54.88
7640,E-4,1214.046,0.25,56,54.88
7641,B-1,1214.05,167/1000,37,54.88
7642,C2,1214.217,167/1000,31,54.88
7643,F4,1214.296,0.25,46,54.88
7644,B-1,1214.383,167/1000,37,54.88
7645,E-4,1214.546,0.25,46,54.88
7646,C2,1214.55,167/1000,30,54.88
7647,B-1,1214.717,167/1000,37,54.88
7648,D4,1214.796,0.25,46,54.88
7649,C2,1214.883,167/1000,31,54.88
7650,F#3,1215.046,1.5,52,54.88
7651,E-4,1215.046,0.25,52,54.88
7652,F1,1215.05,3.0,30,54.88
7653,B-1,1215.05,167/1000,37,54.88
7654,C2,1215.217,167/1000,31,54.88
7655,C#4,1215.296,0.25,48,54.88
7656,B-1,1215.383,167/1000,37,54.88
7657,C4,1215.546,0.25,48,54.88
7658,C2,1215.55,167/1000,30,54.88
7659,B-1,1215.717,167/1000,37,54.88
7660,B3,1215.796,0.25,48,54.88
7661,C2,1215.883,167/1000,31,54.88
7662,C4,1216.046,0.25,54,54.88
7663,B-1,1216.05,167/1000,37,54.88
7664,C2,1216.217,167/1000,31,54.88
7665,B3,1216.296,0.25,48,54.88
7666,B-1,1216.383,167/1000,37,54.88
7667,F#3,1216.546,0.5,48,54.88
7668,C4,1216.546,0.25,48,54.88
7669,C2,1216.55,167/1000,30,54.88
7670,B-1,1216.717,167/1000,37,54.88
7671,C#4,1216.796,0.25,48,54.88
7672,C2,1216.883,167/1000,31,54.88
7673,F#3,1217.046,0.5,52,54.88
7674,E-4,1217.046,0.5,52,54.88
7675,B-1,1217.05,167/1000,37,54.88
7676,C2,1217.217,167/1000,31,54.88
7677,B-1,1217.383,167/1000,37,54.88
7678,F3,1217.546,0.5,48,54.88
7679,C2,1217.55,167/1000,30,54.88
7680,B-1,1217.717,167/1000,37,54.88
7681,C2,1217.883,167/1000,31,54.88
7682,C4,1218.046,1.5,56,54.88
7683,F3,1218.046,0.5,48,54.88
7684,F1,1218.05,3.0,30,54.88
7685,B-1,1218.05,167/1000,37,54.88
7686,C2,1218.217,167/1000,31,54.88
7687,B-1,1218.383,167/1000,37,54.88
7688,E-3,1218.546,0.5,45,54.88
7689,C2,1218.55,167/1000,30,54.88
7690,B-1,1218.717,167/1000,37,54.88
7691,C2,1218.883,167/1000,31,54.88
7692,D3,1219.046,0.5,55,54.88
7693,B-1,1219.05,167/1000,37,54.88
7694,C2,1219.217,167/1000,31,54.88
7695,B-1,1219.383,167/1000,37,54.88
7696,C4,1219.546,0.5,45,54.88
7697,E-3,1219.546,0.5,45,54.88
7698,C2,1219.55,167/1000,30,54.88
7699,B-1,1219.717,167/1000,37,54.88
7700,C2,1219.883,167/1000,31,54.88
7701,E-3,1220.046,0.5,52,54.88
7702,C4,1220.046,0.5,52,54.88
7703,B-1,1220.05,167/1000,37,54.88
7704,C2,1220.217,167/1000,31,54.88
7705,B-1,1220.383,167/1000,37,54.88
7706,D3,1220.546,0.5,42,54.88
7707,B-3,1220.546,0.5,42,54.88
7708,C2,1220.55,167/1000,30,54.88
7709,B-1,1220.717,167/1000,37,54.88
7710,C2,1220.883,167/1000,31,54.88
7711,E-3,1221.046,0.5,47,54.88
7712,A3,1221.046,0.5,47,54.88
7713,B-1,1221.05,167/1000,37,54.88
7714,F1,1221.05,3.0,30,54.88
7715,C2,1221.217,167/1000,31,54.88
7716,B-1,1221.383,167/1000,37,54.88
7717,D3,1221.546,0.5,40,54.88
7718,B-3,1221.546,0.5,40,54.88
7719,C2,1221.55,167/1000,30,54.88
7720,B-1,1221.717,167/1000,37,54.88
7721,C2,1221.883,167/1000,31,54.88
7722,A2,1222.046,0.5,44,54.88
7723,E-3,1222.046,0.5,44,54.88
7724,F#3,1222.046,0.5,44,54.88
7725,B-1,1222.05,167/1000,37,54.88
7726,C2,1222.217,167/1000,31,54.88
7727,B-1,1222.383,167/1000,37,54.88
7728,B-2,1222.546,0.5,35,54.88
7729,D3,1222.546,0.5,35,54.88
7730,F3,1222.546,0.5,35,54.88
7731,C2,1222.55,167/1000,30,54.88
7732,B-1,1222.717,167/1000,37,54.88
7733,C2,1222.883,167/1000,31,54.88
7734,F#3,1223.046,0.5,48,54.88
7735,A3,1223.046,0.5,48,54.88
7736,E-4,1223.046,0.5,48,54.88
7737,B-1,1223.05,167/1000,37,54.88
7738,C2,1223.217,167/1000,31,54.88
7739,B-1,1223.383,167/1000,37,54.88
7740,F3,1223.546,0.5,37,54.88
7741,B-3,1223.546,0.5,37,54.88
7742,D4,1223.546,0.5,37,54.88
7743,C2,1223.55,167/1000,30,54.88
7744,B-1,1223.717,167/1000,37,54.88
7745,C2,1223.883,167/1000,31,54.88
7746,E-4,1224.046,0.5,46,54.88
7747,F#4,1224.046,0.5,46,54.88
7748,A4,1224.046,0.5,46,54.88
7749,F1,1224.05,1.0,30,54.88
7750,B-1,1224.05,0.125,37,54.88
7751,C2,1224.175,0.125,31,54.88
7752,B-1,1224.3,0.125,37,54.88
7753,C2,1224.425,0.125,30,54.88
7754,D4,1224.546,0.5,37,54.88
7755,F4,1224.546,0.5,37,54.88
7756,B-4,1224.546,0.5,37,54.88
7757,B-1,1224.55,0.125,37,54.88
7758,C2,1224.675,0.125,31,54.88
7759,B-1,1224.8,0.125,37,54.88
7760,C2,1224.925,0.125,31,54.88
7761,A4,1225.046,0.5,47,54.88
7762,E-5,1225.046,0.5,47,54.88
7763,F#5,1225.046,0.5,47,54.88
7764,F1,1225.05,1.0,30,54.88
7765,B-1,1225.05,0.125,37,54.88
7766,C2,1225.175,0.125,30,54.88
7767,B-1,1225.3,0.125,37,54.88
7768,C2,1225.425,0.125,31,54.88
7769,B-4,1225.546,0.5,40,54.88
7770,D5,1225.546,0.5,40,54.88
7771,F5,1225.546,0.5,40,54.88
7772,B-1,1225.55,0.125,37,54.88
7773,C2,1225.675,0.125,31,54.88
7774,B-1,1225.8,0.125,37,54.88
7775,C2,1225.925,0.125,30,54.88
7776,A5,1226.046,0.125,52,54.88
7777,C5,1226.046,2.0,44,54.88
7778,E-5,1226.046,2.0,44,54.88
7779,F1,1226.05,1.0,30,54.88
7780,B-1,1226.05,0.125,37,54.88
7781,B-5,1226.171,0.125,47,54.88
7782,C2,1226.175,0.125,31,54.88
7783,A5,1226.296,0.125,52,54.88
7784,B-1,1226.3,0.125,37,54.88
7785,B-5,1226.421,0.125,47,54.88
7786,C2,1226.425,0.125,31,54.88
7787,A5,1226.546,0.125,52,54.88
7788,B-1,1226.55,0.125,37,54.88
7789,B-5,1226.671,0.125,46,54.88
7790,C2,1226.675,0.125,30,54.88
7791,A5,1226.796,0.125,52,54.88
7792,B-1,1226.8,0.125,37,54.88
7793,B-5,1226.921,0.125,47,54.88
7794,C2,1226.925,0.125,31,54.88
7795,A5,1227.046,0.125,52,54.88
7796,F1,1227.05,1.0,30,54.88
7797,B-1,1227.05,0.125,37,54.88
7798,B-5,1227.171,0.125,47,54.88
7799,C2,1227.175,0.125,31,54.88
7800,A5,1227.296,0.125,52,54.88
7801,B-1,1227.3,0.125,37,54.88
7802,B-5,1227.421,0.125,48,54.88
7803,C2,1227.425,0.125,31,54.88
7804,A5,1227.546,167/1000,52,54.88
7805,B-1,1227.55,0.125,37,54.88
7806,C2,1227.675,0.125,30,54.88
7807,G5,1227.713,167/1000,47,54.88
7808,B-1,1227.8,0.125,37,54.88
7809,A5,1227.879,167/1000,47,54.88
7810,C2,1227.925,0.125,31,54.88
7811,B-4,1228.046,1.0,42,54.88
7812,C#5,1228.046,1.0,42,54.88
7813,B-5,1228.046,1.0,42,54.88
7814,F1,1228.05,1.0,30,54.88
7815,B-1,1228.05,0.125,37,54.88
7816,C2,1228.175,0.125,31,54.88
7817,B-1,1228.3,0.125,37,54.88
7818,C2,1228.425,0.125,31,54.88
7819,B-1,1228.55,0.125,37,54.88
7820,C2,1228.675,0.125,30,54.88
7821,B-1,1228.8,0.125,37,54.88
7822,C2,1228.925,0.125,31,54.88
7823,E4,1229.046,0.125,44,54.88
7824,F1,1229.05,1.0,30,54.88
7825,B-1,1229.05,0.125,37,54.88
7826,F4,1229.171,0.125,39,54.88
7827,C2,1229.175,0.125,31,54.88
7828,E4,1229.296,0.125,44,54.88
7829,B-1,1229.3,0.125,37,54.88
7830,F4,1229.421,0.125,39,54.88
7831,C2,1229.425,167/1000,37,54.88
7832,E4,1229.546,0.125,44,54.88
7833,B-1,1229.55,167/1000,37,54.88
7834,F4,1229.671,0.125,39,54.88
7835,A1,1229.717,167/1000,35,54.88
7836,E4,1229.796,0.125,44,54.88
7837,B-1,1229.883,167/1000,35,54.88
7838,F4,1229.921,0.125,39,54.88
7839,E4,1230.046,0.125,44,54.88
7840,B-4,1230.046,1.0,44,54.88
7841,C#5,1230.046,1.0,44,54.88
7842,F#1,1230.05,1.0,37,54.88
7843,B-1,1230.05,1.0,37,54.88
7844,F#2,1230.05,1.0,37,54.88
7845,F4,1230.171,0.125,39,54.88
7846,E4,1230.296,0.125,44,54.88
7847,F4,1230.421,0.125,40,54.88
7848,E4,1230.546,167/1000,44,54.88
7849,D4,1230.713,167/1000,39,54.88
7850,E4,1230.879,167/1000,39,54.88
7851,F4,1231.046,1.0,46,54.88
7852,C5,1231.046,1.0,46,54.88
7853,G1,1231.05,2.0,37,54.88
7854,B-1,1231.05,2.0,37,54.88
7855,G2,1231.05,2.0,37,54.88
7856,A4,1232.046,0.125,46,54.88
7857,B-4,1232.171,0.125,42,54.88
7858,A4,1232.296,0.125,46,54.88
7859,B-4,1232.421,0.125,42,54.88
7860,A4,1232.546,0.125,46,54.88
7861,B-4,1232.671,0.125,41,54.88
7862,A4,1232.796,0.125,46,54.88
7863,B-4,1232.921,0.125,42,54.88
7864,A4,1233.046,0.125,46,54.88
7865,E-5,1233.046,1.0,52,54.88
7866,G3,1233.05,0.125,37,54.88
7867,B-4,1233.171,0.125,42,54.88
7868,A3,1233.175,0.125,33,54.88
7869,A4,1233.296,0.125,46,54.88
7870,G3,1233.3,0.125,37,54.88
7871,B-4,1233.421,0.125,43,54.88
7872,A3,1233.425,0.125,33,54.88
7873,A4,1233.546,167/1000,46,54.88
7874,G3,1233.55,0.125,37,54.88
7875,A3,1233.675,0.125,33,54.88
7876,G4,1233.713,167/1000,42,54.88
7877,G3,1233.8,0.125,37,54.88
7878,A4,1233.879,167/1000,42,54.88
7879,A3,1233.925,0.125,33,54.88
7880,F4,1234.046,1.0,39,54.88
7881,C5,1234.046,1.0,39,54.88
7882,E-5,1234.046,1.0,39,54.88
7883,G3,1234.05,0.125,37,54.88
7884,A3,1234.175,0.125,33,54.88
7885,G3,1234.3,0.125,37,54.88
7886,A3,1234.425,0.125,34,54.88
7887,G3,1234.55,167/1000,37,54.88
7888,F3,1234.717,167/1000,33,54.88
7889,G3,1234.883,167/1000,33,54.88
7890,F4,1235.046,1.5,39,54.88
7891,C5,1235.046,1.5,39,54.88
7892,E-5,1235.046,1.5,39,54.88
7893,A3,1235.05,1.0,42,54.88
7894,C4,1236.05,0.125,39,54.88
7895,D4,1236.175,0.125,35,54.88
7896,C4,1236.3,0.125,39,54.88
7897,D4,1236.425,0.125,35,54.88
7898,G5,1236.546,3/10,44,54.88
7899,C4,1236.55,0.125,39,54.88
7900,D4,1236.675,0.125,35,54.88
7901,F5,1236.796,3/10,39,54.88
7902,C4,1236.8,0.125,39,54.88
7903,D4,1236.925,0.125,35,54.88
7904,E-5,1237.046,3/10,44,54.88
7905,C4,1237.05,0.125,39,54.88
7906,F3,1237.05,1.0,52,54.88
7907,D4,1237.175,0.125,35,54.88
7908,D5,1237.296,3/10,39,54.88
7909,C4,1237.3,0.125,39,54.88
7910,D4,1237.425,0.125,36,54.88
7911,C5,1237.546,3/10,39,54.88
7912,C4,1237.55,167/1000,39,54.88
7913,B-3,1237.717,167/1000,35,54.88
7914,B4,1237.796,0.25,39,54.88
7915,C4,1237.883,167/1000,35,54.88
7916,E-5,1238.046,1.0,46,54.88
7917,F3,1238.05,1.0,36,54.88
7918,A3,1238.05,1.0,36,54.88
7919,C4,1238.05,1.0,36,54.88
7920,F3,1239.05,1.5,42,54.88
7921,C4,1239.05,1.5,42,54.88
7922,A3,1239.05,1.5,42,54.88
7923,G4,1239.546,3/10,44,54.88
7924,F4,1239.796,3/10,39,54.88
7925,E-4,1240.046,3/10,44,54.88
7926,D4,1240.296,3/10,39,54.88
7927,C4,1240.546,3/10,39,54.88
7928,B3,1240.796,0.25,39,54.88
7929,E-4,1241.046,1.0,46,54.88
7930,G5,1242.546,3/10,44,54.88
7931,F5,1242.796,3/10,39,54.88
7932,E-5,1243.046,3/10,44,54.88
7933,D5,1243.296,3/10,39,54.88
7934,C5,1243.546,3/10,39,54.88
7935,G3,1243.55,3/10,37,54.88
7936,B4,1243.796,0.25,39,54.88
7937,F3,1243.8,3/10,33,54.88
7938,G5,1244.046,3/10,46,54.88
7939,B4,1244.046,1/20,39,54.88
7940,E-3,1244.05,3/10,37,54.88
7941,F5,1244.296,3/10,47,54.88
7942,D3,1244.3,3/10,33,54.88
7943,E-5,1244.546,3/10,48,54.88
7944,C3,1244.55,3/10,33,54.88
7945,D5,1244.796,3/10,48,54.88
7946,B2,1244.8,0.25,33,54.88
7947,C5,1245.046,3/10,49,54.88
7948,E-3,1245.05,1.0,39,54.88
7949,B-4,1245.296,3/10,51,54.88
7950,A4,1245.546,3/10,52,54.88
7951,G4,1245.796,3/10,53,54.88
7952,F4,1246.046,3/10,55,54.88
7953,E-4,1246.296,3/10,56,54.88
7954,D4,1246.546,3/10,57,54.88
7955,G4,1246.55,3/10,37,54.88
7956,C4,1246.796,0.25,59,54.88
7957,F4,1246.8,3/10,33,54.88
7958,B-3,1247.046,0.25,60,54.88
7959,C4,1247.046,1/20,59,54.88
7960,E-4,1247.05,3/10,37,54.88
7961,A3,1247.296,0.25,62,54.88
7962,D4,1247.3,3/10,33,54.88
7963,G3,1247.546,0.25,63,54.88
7964,C4,1247.55,3/10,33,54.88
7965,F3,1247.796,0.25,64,54.88
7966,B3,1247.8,0.25,33,54.88
7967,E-3,1248.046,0.25,67,54.88
7968,G4,1248.05,3/10,39,54.88
7969,B3,1248.05,1/20,33,54.88
7970,D3,1248.296,0.25,68,54.88
7971,F4,1248.3,3/10,39,54.88
7972,C3,1248.546,0.25,71,54.88
7973,E-4,1248.55,3/10,40,54.88
7974,B-2,1248.796,0.25,72,54.88
7975,D4,1248.8,3/10,40,54.88
7976,A2,1249.046,0.25,76,54.88
7977,C4,1249.05,3/10,41,54.88
7978,G2,1249.296,0.25,79,54.88
7979,B-3,1249.3,3/10,42,54.88
7980,F2,1249.546,0.25,85,54.88
7981,A3,1249.55,3/10,44,54.88
7982,E2,1249.796,0.25,89,54.88
7983,G3,1249.8,3/10,45,54.88
7984,F2,1250.046,0.5,99,54.88
7985,F3,1250.046,0.5,99,54.88
7986,F3,1250.05,3/10,46,54.88
7987,E-3,1250.3,3/10,47,54.88
7988,D3,1250.55,3/10,48,54.88
7989,C3,1250.8,0.25,49,54.88
7990,A4,1251.046,2.0,95,54.88
7991,A5,1251.046,167/1000,95,54.88
7992,B-2,1251.05,0.25,50,54.88
7993,C3,1251.05,1/20,49,54.88
7994,B-5,1251.213,167/1000,75,54.88
7995,A2,1251.3,0.25,52,54.88
7996,A5,1251.379,167/1000,82,54.88
7997,B-5,1251.546,167/1000,72,54.88
7998,G2,1251.55,0.25,53,54.88
7999,A5,1251.713,167/1000,79,54.88
8000,F2,1251.8,0.25,55,54.88
8001,B-5,1251.879,167/1000,71,54.88
8002,A5,1252.046,167/1000,76,54.88
8003,E-2,1252.05,0.25,56,54.88
8004,B-5,1252.213,167/1000,69,54.88
8005,D2,1252.3,0.25,57,54.88
8006,A5,1252.379,167/1000,73,54.88
8007,B-5,1252.546,0.125,67,54.88
8008,C2,1252.55,0.25,60,54.88
8009,A5,1252.671,0.125,76,54.88
8010,G5,1252.796,0.125,73,54.88
8011,B-1,1252.8,0.25,61,54.88
8012,A5,1252.921,0.125,80,54.88
8013,B-4,1253.046,0.5,85,54.88
8014,B-5,1253.046,0.5,85,54.88
8015,A1,1253.05,0.25,64,54.88
8016,G1,1253.3,0.25,67,54.88
8017,F1,1253.55,0.25,71,54.88
8018,E1,1253.8,0.25,75,54.88
8019,G3,1254.046,0.5,82,54.88
8020,G4,1254.046,0.5,82,54.88
8021,F1,1254.05,0.5,83,54.88
8022,B4,1255.046,1.0,95,54.88
8023,B5,1255.046,167/1000,95,54.88
8024,A2,1255.05,167/1000,79,54.88
8025,C6,1255.213,167/1000,75,54.88
8026,B-2,1255.217,167/1000,56,54.88
8027,B5,1255.379,167/1000,82,54.88
8028,A2,1255.383,167/1000,61,54.88
8029,C6,1255.546,167/1000,72,54.88
8030,B-2,1255.55,167/1000,53,54.88
8031,B5,1255.713,167/1000,79,54.88
8032,A2,1255.717,167/1000,59,54.88
8033,C6,1255.879,167/1000,71,54.88
8034,B-2,1255.883,167/1000,52,54.88
8035,B5,1256.046,167/1000,76,54.88
8036,B4,1256.046,1.0,95,54.88
8037,A2,1256.05,167/1000,57,54.88
8038,C6,1256.213,167/1000,69,54.88
8039,B-2,1256.217,167/1000,52,54.88
8040,B5,1256.379,167/1000,73,54.88
8041,A2,1256.383,167/1000,55,54.88
8042,C6,1256.546,0.125,67,54.88
8043,B-2,1256.55,0.125,50,54.88
8044,B5,1256.671,0.125,74,54.88
8045,A2,1256.675,0.125,58,54.88
8046,A5,1256.796,0.125,70,54.88
8047,G2,1256.8,0.125,56,54.88
8048,B5,1256.921,0.125,79,54.88
8049,A2,1256.925,0.125,63,54.88
8050,C5,1257.046,0.5,85,54.88
8051,C6,1257.046,0.5,85,54.88
8052,B-2,1257.05,0.5,68,54.88
8053,A3,1258.046,0.5,82,54.88
8054,A4,1258.046,0.5,82,54.88
8055,G1,1258.05,0.5,69,54.88
8056,C#5,1259.046,2.0,95,54.88
8057,C#6,1259.046,167/1000,95,54.88
8058,B2,1259.05,167/1000,79,54.88
8059,D6,1259.213,167/1000,75,54.88
8060,C3,1259.217,167/1000,56,54.88
8061,C#6,1259.379,167/1000,82,54.88
8062,B2,1259.383,167/1000,61,54.88
8063,D6,1259.546,167/1000,72,54.88
8064,C3,1259.55,167/1000,53,54.88
8065,C#6,1259.713,167/1000,79,54.88
8066,B2,1259.717,167/1000,59,54.88
8067,D6,1259.879,167/1000,71,54.88
8068,C3,1259.883,167/1000,52,54.88
8069,C#6,1260.046,167/1000,76,54.88
8070,B2,1260.05,167/1000,57,54.88
8071,D6,1260.213,167/1000,69,54.88
8072,C3,1260.217,167/1000,52,54.88
8073,C#6,1260.379,167/1000,73,54.88
8074,B2,1260.383,167/1000,55,54.88
8075,D6,1260.546,0.125,67,54.88
8076,C3,1260.55,0.125,50,54.88
8077,C#6,1260.671,0.125,74,54.88
8078,B2,1260.675,0.125,58,54.88
8079,B5,1260.796,0.125,66,54.88
8080,A2,1260.8,0.125,52,54.88
8081,C#6,1260.921,0.125,79,54.88
8082,B2,1260.925,0.125,61,54.88
8083,D5,1261.046,0.5,85,54.88
8084,D6,1261.046,0.5,85,54.88
8085,C3,1261.05,0.5,68,54.88
8086,B-3,1262.046,0.5,82,54.88
8087,B-4,1262.046,0.5,82,54.88
8088,A1,1262.05,0.5,69,54.88
8089,D5,1263.046,2.0,95,54.88
8090,D6,1263.046,167/1000,95,54.88
8091,C#3,1263.05,167/1000,79,54.88
8092,E-6,1263.213,167/1000,75,54.88
8093,D3,1263.217,167/1000,56,54.88
8094,D6,1263.379,167/1000,82,54.88
8095,C#3,1263.383,167/1000,61,54.88
8096,E-6,1263.546,167/1000,72,54.88
8097,D3,1263.55,167/1000,53,54.88
8098,D6,1263.713,167/1000,79,54.88
8099,C#3,1263.717,167/1000,59,54.88
8100,E-6,1263.879,167/1000,71,54.88
8101,D3,1263.883,167/1000,52,54.88
8102,D6,1264.046,167/1000,76,54.88
8103,C#3,1264.05,167/1000,57,54.88
8104,E-6,1264.213,167/1000,69,54.88
8105,D3,1264.217,167/1000,52,54.88
8106,D6,1264.379,167/1000,73,54.88
8107,C#3,1264.383,167/1000,55,54.88
8108,E-6,1264.546,0.125,70,54.88
8109,D3,1264.55,0.125,50,54.88
8110,D6,1264.671,0.125,78,54.88
8111,C#3,1264.675,0.125,58,54.88
8112,C6,1264.796,0.125,73,54.88
8113,B2,1264.8,0.125,54,54.88
8114,D6,1264.921,0.125,81,54.88
8115,C#3,1264.925,0.125,61,54.88
8116,E-5,1265.046,0.5,85,54.88
8117,E-6,1265.046,0.5,85,54.88
8118,D3,1265.05,0.5,68,54.88
8119,C4,1266.046,0.5,82,54.88
8120,C5,1266.046,0.5,82,54.88
8121,B-1,1266.05,0.5,69,54.88
8122,E5,1267.046,1.0,95,54.88
8123,E6,1267.046,167/1000,95,54.88
8124,D3,1267.05,167/1000,79,54.88
8125,F6,1267.213,167/1000,75,54.88
8126,E-3,1267.217,167/1000,56,54.88
8127,E6,1267.379,167/1000,82,54.88
8128,D3,1267.383,167/1000,61,54.88
8129,F6,1267.546,167/1000,72,54.88
8130,E-3,1267.55,167/1000,53,54.88
8131,E6,1267.713,167/1000,79,54.88
8132,D3,1267.717,167/1000,59,54.88
8133,F6,1267.879,167/1000,71,54.88
8134,E-3,1267.883,167/1000,52,54.88
8135,E6,1268.046,167/1000,76,54.88
8136,E5,1268.046,1.0,95,54.88
8137,D3,1268.05,167/1000,57,54.88
8138,F6,1268.213,167/1000,69,54.88
8139,E-3,1268.217,167/1000,52,54.88
8140,E6,1268.379,167/1000,73,54.88
8141,D3,1268.383,167/1000,55,54.88
8142,F6,1268.546,0.125,67,54.88
8143,E-3,1268.55,0.125,50,54.88
8144,E6,1268.671,0.125,76,54.88
8145,D3,1268.675,0.125,58,54.88
8146,D6,1268.796,0.125,70,54.88
8147,C3,1268.8,0.125,53,54.88
8148,E6,1268.921,0.125,79,54.88
8149,D3,1268.925,0.125,54,54.88
8150,F5,1269.046,0.5,85,54.88
8151,F6,1269.046,0.5,85,54.88
8152,E-3,1269.05,0.5,68,54.88
8153,D4,1270.046,0.5,82,54.88
8154,D5,1270.046,0.5,82,54.88
8155,C2,1270.05,0.5,69,54.88
8156,F#5,1271.046,2.0,95,54.88
8157,F#6,1271.046,167/1000,95,54.88
8158,E3,1271.05,167/1000,79,54.88
8159,G6,1271.213,167/1000,75,54.88
8160,F3,1271.217,167/1000,56,54.88
8161,F#6,1271.379,167/1000,82,54.88
8162,E3,1271.383,167/1000,61,54.88
8163,G6,1271.546,167/1000,72,54.88
8164,F3,1271.55,167/1000,53,54.88
8165,F#6,1271.713,167/1000,79,54.88
8166,E3,1271.717,167/1000,59,54.88
8167,G6,1271.879,167/1000,71,54.88
8168,F3,1271.883,167/1000,52,54.88
8169,F#6,1272.046,167/1000,76,54.88
8170,E3,1272.05,167/1000,57,54.88
8171,G6,1272.213,167/1000,69,54.88
8172,F3,1272.217,167/1000,52,54.88
8173,F#6,1272.379,167/1000,73,54.88
8174,E3,1272.383,167/1000,55,54.88
8175,G6,1272.546,0.125,67,54.88
8176,F3,1272.55,0.125,50,54.88
8177,F#6,1272.671,0.125,77,54.88
8178,E3,1272.675,0.125,56,54.88
8179,E6,1272.796,0.125,74,54.88
8180,D3,1272.8,0.125,54,54.88
8181,F#6,1272.921,0.125,83,54.88
8182,E3,1272.925,0.125,59,54.88
8183,G5,1273.046,0.5,85,54.88
8184,G6,1273.046,0.5,85,54.88
8185,F3,1273.05,0.5,68,54.88
8186,E-4,1274.046,0.5,82,54.88
8187,E-5,1274.046,0.5,82,54.88
8188,D2,1274.05,0.5,69,54.88
8189,A6,1275.046,1.5,78,54.88
8190,F6,1275.046,1.5,78,54.88
8191,E-6,1275.046,1.5,78,54.88
8192,C6,1275.046,1.5,78,54.88
8193,A5,1275.046,1.5,78,54.88
8194,F#3,1275.05,167/1000,79,54.88
8195,G3,1275.217,167/1000,56,54.88
8196,F#3,1275.383,167/1000,61,54.88
8197,G3,1275.55,167/1000,53,54.88
8198,F#3,1275.717,167/1000,59,54.88
8199,G3,1275.883,167/1000,52,54.88
8200,F#3,1276.05,167/1000,57,54.88
8201,G3,1276.217,167/1000,52,54.88
8202,F#3,1276.383,167/1000,55,54.88
8203,G3,1276.55,0.125,50,54.88
8204,F#3,1276.675,0.125,54,54.88
8205,E3,1276.8,0.125,49,54.88
8206,F#3,1276.925,0.125,54,54.88
8207,B-6,1277.046,1.5,82,54.88
8208,F6,1277.046,1.5,82,54.88
8209,D6,1277.046,1.5,82,54.88
8210,B-5,1277.046,1.5,82,54.88
8211,G3,1277.05,0.5,68,54.88
8212,E-2,1278.05,0.5,69,54.88
8213,A5,1279.046,1.0,78,54.88
8214,F5,1279.046,1.0,78,54.88
8215,E-5,1279.046,1.0,78,54.88
8216,C5,1279.046,1.0,78,54.88
8217,A4,1279.046,1.0,78,54.88
8218,F4,1279.05,1.5,74,54.88
8219,E-4,1279.05,1.5,74,54.88
8220,C4,1279.05,1.5,74,54.88
8221,F3,1279.05,1.5,74,54.88
8222,A5,1280.046,0.5,78,54.88
8223,F5,1280.046,0.5,78,54.88
8224,E-5,1280.046,0.5,78,54.88
8225,C5,1280.046,0.5,78,54.88
8226,A4,1280.046,0.5,78,54.88
8227,B-2,1281.05,1.5,76,54.88
8228,D3,1281.05,1.5,76,54.88
8229,F3,1281.05,1.5,76,54.88
8230,B-3,1281.05,1.5,76,54.88
8231,B-5,1282.046,1.0,83,54.88
8232,F5,1282.046,1.0,83,54.88
8233,D5,1282.046,1.0,83,54.88
8234,B-4,1282.046,1.0,83,54.88
8235,B-5,1283.046,3.0,83,54.88
8236,F5,1283.046,3.0,83,54.88
8237,D5,1283.046,3.0,83,54.88
8238,B-4,1283.046,3.0,83,54.88
8239,F3,1283.05,1.0,70,54.88
8240,E-3,1283.05,1.0,70,54.88
8241,C3,1283.05,1.0,70,54.88
8242,F2,1283.05,1.0,70,54.88
8243,F3,1284.05,0.5,70,54.88
8244,E-3,1284.05,0.5,70,54.88
8245,C3,1284.05,0.5,70,54.88
8246,F2,1284.05,0.5,70,54.88
8247,B-1,1286.05,1.0,76,54.88
8248,D2,1286.05,1.0,76,54.88
8249,F2,1286.05,1.0,76,54.88
8250,B-2,1286.05,1.0,76,54.88
8251,B-1,1287.05,3.0,76,54.88
8252,D2,1287.05,3.0,76,54.88
8253,F2,1287.05,3.0,76,54.88
8254,B-2,1287.05,3.0,76,54.88
