,note_name,start_time,duration,velocity,tempo
0,C4,0.0,2.0,42,68.5
1,G#4,0.0,1.5,50,68.5
2,G#2,0.0,2.0,29,68.5
3,E-3,0.0,2.0,29,68.5
4,G#3,0.0,2.0,29,68.5
5,B-4,1.5,0.125,50,68.5
6,G#4,1.625,0.125,46,68.5
7,G4,1.75,0.125,46,68.5
8,G#4,1.875,0.125,46,68.5
9,C5,2.0,1.5,54,68.5
10,C#4,2.0,2.0,45,68.5
11,G2,2.0,2.0,26,68.5
12,E-3,2.0,2.0,26,68.5
13,G3,2.0,2.0,26,68.5
14,B-4,3.5,0.5,45,68.5
15,C4,4.0,3.0,46,68.5
16,G#4,4.0,3.0,46,68.5
17,G#2,4.0,3.0,32,68.5
18,E-3,4.0,3.0,32,68.5
19,G#3,4.0,3.0,32,68.5
20,A4,7.0,1.0,50,68.5
21,E-4,8.0,2.0,42,68.5
22,B-4,8.0,1.0,50,68.5
23,G3,8.0,2.0,27,68.5
24,C#4,8.0,1.0,32,68.5
25,B-3,9.0,1.0,32,68.5
26,C5,9.5,0.125,50,68.5
27,B-4,9.625,0.125,46,68.5
28,A4,9.75,0.125,46,68.5
29,B-4,9.875,0.125,46,68.5
30,C#5,10.0,1.5,54,68.5
31,E-4,10.0,1.0,45,68.5
32,G#3,10.0,2.0,29,68.5
33,G#4,11.0,1.0,42,68.5
34,C4,11.0,1.0,32,68.5
35,C5,11.5,0.5,45,68.5
36,G4,12.0,3.0,46,68.5
37,B-4,12.0,3.0,46,68.5
38,E-3,12.0,3.0,33,68.5
39,E-4,12.0,3.0,33,68.5
40,B4,15.0,1.0,50,68.5
41,C5,16.0,1.75,63,68.5
42,E-4,16.0,2.0,63,68.5
43,G#3,16.0,2.0,32,68.5
44,G#4,17.75,0.25,52,68.5
45,E-5,18.0,1.75,64,68.5
46,G#4,18.0,2.0,60,68.5
47,E-4,18.0,2.0,60,68.5
48,C3,18.0,2.0,37,68.5
49,C4,18.0,2.0,37,68.5
50,G#3,18.0,2.0,37,68.5
51,C5,19.75,0.25,60,68.5
52,F5,20.0,1.75,70,68.5
53,F4,20.0,2.0,60,68.5
54,G#4,20.0,2.0,60,68.5
55,C#3,20.0,2.0,45,68.5
56,G#3,20.0,2.0,45,68.5
57,C#4,20.0,2.0,45,68.5
58,C#5,21.75,0.25,67,68.5
59,F3,22.0,2.0,41,68.5
60,G#3,22.062,1.938,45,68.5
61,C#4,22.125,1.875,49,68.5
62,F4,22.188,1.812,53,68.5
63,G#4,22.25,1.75,70,68.5
64,C#5,22.312,1.688,75,68.5
65,F5,22.375,1.625,78,68.5
66,G#5,22.438,1.562,82,68.5
67,G#4,24.0,2.0,70,68.5
68,C#5,24.0,2.0,75,68.5
69,G#5,24.0,0.5,82,68.5
70,F3,24.0,2.0,41,68.5
71,G#3,24.0,2.0,45,68.5
72,C#4,24.0,2.0,49,68.5
73,F4,24.0,2.0,53,68.5
74,G5,24.5,229/500,63,68.5
75,F5,25.0,229/500,59,68.5
76,E-5,25.5,229/500,56,68.5
77,B-4,26.0,1.0,56,68.5
78,C#5,26.0,1.0,56,68.5
79,G3,26.0,1.0,34,68.5
80,E-4,26.0,1.0,34,68.5
81,G#4,27.0,1.0,48,68.5
82,C5,27.0,1.0,48,68.5
83,E-4,27.0,1.0,31,68.5
84,G#3,27.0,1.0,31,68.5
85,E-4,28.0,1.0,46,68.5
86,E-5,28.0,1.5,55,68.5
87,C4,28.0,1.5,37,68.5
88,E-3,28.0,2.0,31,68.5
89,E-4,29.0,1.0,39,68.5
90,C5,29.5,0.5,51,68.5
91,G#3,29.5,0.5,31,68.5
92,E-4,30.0,1.0,45,68.5
93,B-4,30.0,0.062,53,68.5
94,B-4,30.0,0.188,51,68.5
95,E-3,30.0,1.0,28,68.5
96,G3,30.0,1.0,28,68.5
97,C5,30.062,0.062,46,68.5
98,B-4,30.125,26/125,51,68.5
99,C5,30.188,0.062,45,68.5
100,B-4,30.25,0.25,51,68.5
101,A4,30.333,83/1000,46,68.5
102,B-4,30.417,583/1000,46,68.5
103,C#5,30.5,0.25,57,68.5
104,C5,30.75,0.25,48,68.5
105,E-5,31.0,0.25,55,68.5
106,C#5,31.25,0.25,47,68.5
107,C5,31.5,167/1000,51,68.5
108,C#5,31.667,167/1000,47,68.5
109,B-4,31.833,167/1000,47,68.5
110,C4,32.0,2.0,34,68.5
111,G#4,32.0,1.5,50,68.5
112,G#2,32.0,2.0,36,68.5
113,E-3,32.5,19/40,28,68.5
114,E-3,33.0,19/40,29,68.5
115,B-4,33.5,0.125,50,68.5
116,E-3,33.5,0.5,29,68.5
117,G#4,33.625,0.125,46,68.5
118,G4,33.75,0.125,46,68.5
119,G#4,33.875,0.125,46,68.5
120,C5,34.0,1.5,54,68.5
121,C#4,34.0,2.0,45,68.5
122,G2,34.0,2.0,36,68.5
123,E-3,34.5,19/40,28,68.5
124,E-3,35.0,19/40,28,68.5
125,B-4,35.5,0.5,45,68.5
126,E-3,35.5,0.5,28,68.5
127,G#2,36.0,0.5,36,68.5
128,C4,36.0,2.0,46,68.5
129,G#4,36.0,2.0,46,68.5
130,E-3,36.5,0.5,32,68.5
131,C3,37.0,0.5,36,68.5
132,G#3,37.5,0.5,32,68.5
133,E-3,38.0,0.5,40,68.5
134,C4,38.5,0.5,36,68.5
135,G#3,39.0,0.5,47,68.5
136,E-4,39.5,0.5,36,68.5
137,B-4,40.0,1.0,59,68.5
138,G3,40.0,2.0,45,68.5
139,E-4,40.5,19/40,29,68.5
140,E-4,41.0,19/40,29,68.5
141,C5,41.5,0.125,54,68.5
142,E-4,41.5,0.5,29,68.5
143,B-4,41.625,0.125,46,68.5
144,A4,41.75,0.125,49,68.5
145,B-4,41.875,0.125,50,68.5
146,C#5,42.0,1.5,62,68.5
147,G#4,42.0,2.0,62,68.5
148,G#3,42.0,2.0,36,68.5
149,E-4,42.5,19/40,29,68.5
150,E-4,43.0,19/40,29,68.5
151,C5,43.5,0.5,50,68.5
152,E-4,43.5,0.5,29,68.5
153,E-3,44.0,0.5,41,68.5
154,G4,44.0,2.0,57,68.5
155,B-4,44.0,2.0,57,68.5
156,E-4,44.5,0.5,32,68.5
157,D4,45.0,0.5,33,68.5
158,E-4,45.5,0.5,33,68.5
159,D4,46.0,0.5,36,68.5
160,E-4,46.5,0.5,31,68.5
161,F4,47.0,0.5,36,68.5
162,C#4,47.5,0.5,33,68.5
163,E-4,47.938,0.062,36,68.5
164,C5,48.0,1.75,63,68.5
165,E-4,48.0,0.125,36,68.5
166,G#3,48.5,0.5,32,68.5
167,C4,49.0,0.5,32,68.5
168,E-4,49.5,417/1000,29,68.5
169,G#4,49.75,0.25,52,68.5
170,E-4,49.938,0.25,43,68.5
171,E-5,50.0,1.75,64,68.5
172,C3,50.5,0.5,32,68.5
173,E-3,51.0,0.5,32,68.5
174,G#3,51.5,0.5,30,68.5
175,C5,51.75,0.125,60,68.5
176,F4,51.938,0.062,44,68.5
177,F5,52.0,3.0,73,68.5
178,F4,52.0,0.125,44,68.5
179,C#3,52.5,3.5,38,68.5
180,F3,52.5,21/40,38,68.5
181,G3,53.0,21/40,42,68.5
182,G#3,53.5,21/40,45,68.5
183,A3,54.0,21/40,49,68.5
184,B-3,54.5,21/40,52,68.5
185,C4,55.0,21/40,48,68.5
186,A4,55.0,0.5,64,68.5
187,E-5,55.0,0.5,64,68.5
188,C#4,55.5,0.5,51,68.5
189,B-4,55.5,0.5,57,68.5
190,C#5,55.5,0.5,57,68.5
191,G#4,56.0,2.0,59,68.5
192,C5,56.0,1.0,70,68.5
193,E-3,56.0,2.0,32,68.5
194,E-4,56.0,0.5,51,68.5
195,C#4,56.0,1/40,51,68.5
196,D4,56.5,0.5,45,68.5
197,E-5,57.0,1.0,63,68.5
198,C#4,57.0,0.5,46,68.5
199,C4,57.5,0.5,46,68.5
200,G4,58.0,2.0,59,68.5
201,C#5,58.0,1.0,70,68.5
202,E-3,58.0,2.0,32,68.5
203,B-3,58.0,0.5,51,68.5
204,C4,58.5,0.5,44,68.5
205,B-4,59.0,1.0,60,68.5
206,C#4,59.0,0.5,44,68.5
207,G3,59.5,479/1000,44,68.5
208,C#4,60.0,1.0,59,68.5
209,B-4,60.0,2.0,70,68.5
210,G#2,60.0,3.0,32,68.5
211,G3,60.0,2.0,51,68.5
212,C4,61.0,0.25,34,68.5
213,C#4,61.25,0.25,32,68.5
214,E-4,61.5,0.25,36,68.5
215,C#4,61.75,0.25,31,68.5
216,G#3,62.0,1.0,31,68.5
217,C4,62.0,1.0,41,68.5
218,G#4,62.0,1.0,41,68.5
219,F5,63.938,0.062,78,68.5
220,F6,64.0,1.5,91,68.5
221,F5,64.0,0.125,78,68.5
222,E-4,64.0,2.0,76,68.5
223,F4,64.0,2.0,76,68.5
224,C4,64.0,2.0,76,68.5
225,A3,64.0,2.0,76,68.5
226,E-6,65.5,73/1000,65,68.5
227,C6,65.571,73/1000,63,68.5
228,A5,65.644,71/1000,62,68.5
229,F5,65.715,71/1000,61,68.5
230,E-5,65.785,73/1000,59,68.5
231,C5,65.856,73/1000,57,68.5
232,A4,65.927,73/1000,56,68.5
233,F4,66.0,0.5,78,68.5
234,C4,67.75,229/1000,50,68.5
235,E-4,67.75,229/1000,50,68.5
236,A2,67.75,229/1000,33,68.5
237,F3,67.75,229/1000,33,68.5
238,C4,68.0,2.0,52,68.5
239,E-4,68.0,2.0,52,68.5
240,B-2,68.0,3.0,38,68.5
241,F3,68.0,3.0,38,68.5
242,B-3,70.0,1.0,42,68.5
243,C#4,70.0,1.0,42,68.5
244,E-5,71.938,0.062,78,68.5
245,E-6,72.0,1.5,91,68.5
246,E-5,72.0,0.125,78,68.5
247,C#4,72.0,2.0,76,68.5
248,E-4,72.0,2.0,76,68.5
249,B-3,72.0,2.0,76,68.5
250,G3,72.0,2.0,76,68.5
251,C#6,73.5,73/1000,65,68.5
252,B-5,73.571,73/1000,63,68.5
253,G5,73.644,71/1000,62,68.5
254,E-5,73.715,71/1000,61,68.5
255,C#5,73.785,73/1000,59,68.5
256,B-4,73.856,73/1000,57,68.5
257,G4,73.927,73/1000,56,68.5
258,E-4,74.0,0.5,78,68.5
259,B-3,75.75,229/1000,50,68.5
260,C#4,75.75,229/1000,50,68.5
261,G2,75.75,229/1000,33,68.5
262,E-3,75.75,229/1000,33,68.5
263,B-3,76.0,2.0,52,68.5
264,C#4,76.0,2.0,52,68.5
265,G#2,76.0,3.0,38,68.5
266,E-3,76.0,3.0,38,68.5
267,G#3,78.0,1.0,42,68.5
268,C4,78.0,1.0,42,68.5
269,B2,79.938,0.062,89,68.5
270,B3,80.0,1.5,92,68.5
271,B2,80.0,0.125,89,68.5
272,B3,81.5,83/1000,59,68.5
273,G#3,81.583,83/1000,57,68.5
274,E-3,81.669,83/1000,56,68.5
275,B2,81.75,83/1000,56,68.5
276,G#2,81.835,83/1000,55,68.5
277,E-2,81.919,83/1000,53,68.5
278,B1,82.0,0.5,91,68.5
279,E-3,83.75,229/1000,69,68.5
280,G#3,83.75,229/1000,69,68.5
281,E-4,83.75,229/1000,69,68.5
282,B1,83.75,229/1000,46,68.5
283,B2,83.75,229/1000,46,68.5
284,E-4,84.0,2.0,83,68.5
285,G#3,84.0,3.0,59,68.5
286,F3,84.0,3.0,59,68.5
287,B-1,84.0,3.0,59,68.5
288,B-2,84.0,3.0,59,68.5
289,D4,86.0,0.5,46,68.5
290,E4,86.5,21/40,46,68.5
291,F4,87.0,0.5,54,68.5
292,A4,87.5,0.5,46,68.5
293,B-4,88.0,0.5,54,68.5
294,A4,88.0,1/40,46,68.5
295,C#5,88.5,21/40,46,68.5
296,D5,89.0,0.5,55,68.5
297,E5,89.5,21/40,46,68.5
298,F5,90.0,0.5,55,68.5
299,G5,90.5,21/40,46,68.5
300,G#5,91.0,0.5,55,68.5
301,F5,91.5,0.5,46,68.5
302,D5,92.0,2.5,55,68.5
303,B-3,92.0,19/20,32,68.5
304,G#3,92.0,19/20,32,68.5
305,B-3,93.0,19/20,28,68.5
306,G#3,93.0,19/20,28,68.5
307,B-3,94.0,19/20,28,68.5
308,G#3,94.0,19/20,28,68.5
309,E-5,94.5,0.125,50,68.5
310,D5,94.625,0.125,50,68.5
311,C5,94.75,0.125,50,68.5
312,D5,94.875,0.125,50,68.5
313,E-5,95.0,0.75,55,68.5
314,B-3,95.0,19/20,28,68.5
315,G#3,95.0,19/20,28,68.5
316,F5,95.75,229/1000,55,68.5
317,F5,96.0,1.0,55,68.5
318,B-3,96.0,19/20,32,68.5
319,G3,96.0,19/20,32,68.5
320,E-5,97.0,2.0,55,68.5
321,B-3,97.0,19/20,26,68.5
322,G3,97.0,19/20,26,68.5
323,B-3,98.0,19/20,26,68.5
324,G3,98.0,19/20,26,68.5
325,E5,99.0,1.0,55,68.5
326,B-3,99.0,19/20,26,68.5
327,G3,99.0,19/20,26,68.5
328,F5,100.0,2.5,55,68.5
329,D3,100.0,19/20,31,68.5
330,B-3,100.0,19/20,31,68.5
331,G#3,100.0,19/20,31,68.5
332,D3,101.0,19/20,29,68.5
333,B-3,101.0,19/20,29,68.5
334,G#3,101.0,19/20,29,68.5
335,D3,102.0,19/20,29,68.5
336,B-3,102.0,19/20,29,68.5
337,G#3,102.0,19/20,29,68.5
338,G5,102.5,0.125,50,68.5
339,F5,102.625,0.125,47,68.5
340,E-5,102.75,0.125,49,68.5
341,F5,102.875,0.125,51,68.5
342,G5,103.0,0.75,53,68.5
343,G3,103.0,0.75,46,68.5
344,D3,103.0,1.0,28,68.5
345,B-3,103.0,1.0,28,68.5
346,G#5,103.75,229/1000,60,68.5
347,F3,103.75,229/1000,46,68.5
348,G#5,104.0,1.0,58,68.5
349,E-3,104.0,19/20,31,68.5
350,B-3,104.0,19/20,31,68.5
351,F#3,104.0,19/20,31,68.5
352,G5,105.0,1.0,55,68.5
353,E-3,105.0,19/20,25,68.5
354,B-3,105.0,19/20,25,68.5
355,G3,105.0,19/20,25,68.5
356,E-3,106.0,19/20,25,68.5
357,B-3,106.0,19/20,25,68.5
358,G3,106.0,19/20,25,68.5
359,E-3,107.0,19/20,26,68.5
360,B-3,107.0,19/20,26,68.5
361,G3,107.0,19/20,26,68.5
362,G#3,108.0,19/20,28,68.5
363,B-3,108.0,19/20,28,68.5
364,D4,108.083,83/1000,30,68.5
365,E-4,108.169,83/1000,30,68.5
366,F4,108.252,83/1000,41,68.5
367,E-4,108.335,83/1000,33,68.5
368,D4,108.419,83/1000,33,68.5
369,G#4,108.502,83/1000,42,68.5
370,G4,108.585,83/1000,34,68.5
371,F4,108.669,83/1000,34,68.5
372,D5,108.754,83/1000,51,68.5
373,C5,108.838,83/1000,37,68.5
374,B-4,108.921,83/1000,36,68.5
375,F5,109.0,83/1000,57,68.5
376,G#3,109.0,19/20,28,68.5
377,B-3,109.0,19/20,28,68.5
378,E-5,109.083,83/1000,41,68.5
379,D5,109.167,83/1000,44,68.5
380,G#5,109.25,83/1000,59,68.5
381,G5,109.333,83/1000,46,68.5
382,F5,109.417,83/1000,48,68.5
383,C6,109.5,2.0,70,68.5
384,G#3,110.0,19/20,28,68.5
385,B-3,110.0,19/20,28,68.5
386,G#3,111.0,19/20,28,68.5
387,B-3,111.0,19/20,28,68.5
388,C6,111.5,71/1000,54,68.5
389,B-5,111.571,71/1000,53,68.5
390,G#5,111.644,71/1000,52,68.5
391,G5,111.715,71/1000,52,68.5
392,F5,111.785,71/1000,51,68.5
393,E-5,111.856,71/1000,50,68.5
394,D5,111.927,71/1000,49,68.5
395,F5,112.0,0.75,56,68.5
396,E-5,112.75,0.25,40,68.5
397,D5,113.0,0.375,43,68.5
398,G3,113.0,19/20,28,68.5
399,B-3,113.0,19/20,28,68.5
400,E-5,113.375,0.125,40,68.5
401,F5,113.5,0.375,47,68.5
402,E-5,113.875,0.125,41,68.5
403,E-4,114.0,1.0,52,68.5
404,G3,114.0,19/20,28,68.5
405,B-3,114.0,19/20,28,68.5
406,G3,115.0,19/20,28,68.5
407,B-3,115.0,19/20,28,68.5
408,D3,116.0,19/20,27,68.5
409,G#3,116.0,19/20,27,68.5
410,B-3,116.0,19/20,27,68.5
411,F4,116.083,83/1000,30,68.5
412,G4,116.169,83/1000,30,68.5
413,G#4,116.252,83/1000,41,68.5
414,G4,116.335,83/1000,33,68.5
415,F4,116.419,83/1000,33,68.5
416,D5,116.502,83/1000,42,68.5
417,C5,116.585,83/1000,34,68.5
418,B-4,116.669,83/1000,34,68.5
419,F5,116.754,83/1000,51,68.5
420,E-5,116.838,83/1000,37,68.5
421,D5,116.921,83/1000,36,68.5
422,G#5,117.0,83/1000,57,68.5
423,D3,117.0,19/20,26,68.5
424,F3,117.0,19/20,26,68.5
425,G#3,117.0,19/20,26,68.5
426,B-3,117.0,19/20,26,68.5
427,G5,117.083,83/1000,41,68.5
428,F5,117.167,83/1000,44,68.5
429,D6,117.25,83/1000,59,68.5
430,C6,117.333,83/1000,46,68.5
431,B-5,117.417,83/1000,48,68.5
432,F6,117.5,2.0,69,68.5
433,D3,118.0,19/20,26,68.5
434,F3,118.0,19/20,26,68.5
435,G#3,118.0,19/20,26,68.5
436,B-3,118.0,19/20,26,68.5
437,D3,119.0,19/20,26,68.5
438,F3,119.0,19/20,26,68.5
439,G#3,119.0,19/20,26,68.5
440,B-3,119.0,19/20,26,68.5
441,F6,119.5,81/1000,54,68.5
442,E-6,119.581,81/1000,53,68.5
443,D6,119.662,81/1000,52,68.5
444,C6,119.744,81/1000,52,68.5
445,B-5,119.825,81/1000,51,68.5
446,G#5,119.906,81/1000,50,68.5
447,G5,120.0,1.5,62,68.5
448,E-3,121.0,1.0,30,68.5
449,G3,121.0,1.0,30,68.5
450,B-3,121.0,1.0,30,68.5
451,G5,121.75,0.25,64,68.5
452,G#5,122.0,1.5,71,68.5
453,F3,123.0,1.0,32,68.5
454,G#3,123.0,1.0,32,68.5
455,B-3,123.0,1.0,32,68.5
456,D4,123.0,1.0,32,68.5
457,G#5,123.75,0.25,71,68.5
458,B-5,124.0,1.5,81,68.5
459,G3,125.0,1.0,37,68.5
460,B-3,125.0,1.0,37,68.5
461,E-4,125.0,1.0,37,68.5
462,B-5,125.75,0.25,78,68.5
463,B5,126.0,1.5,89,68.5
464,G3,127.0,1.0,43,68.5
465,B3,127.0,1.0,43,68.5
466,E-4,127.0,1.0,43,68.5
467,B5,127.75,0.25,84,68.5
468,C6,128.0,1.5,92,68.5
469,G#3,129.0,1.0,51,68.5
470,C4,129.0,1.0,51,68.5
471,E-4,129.0,1.0,51,68.5
472,C6,129.75,0.25,90,68.5
473,D6,130.0,1.5,96,68.5
474,B3,131.0,1.0,60,68.5
475,G#3,131.0,1.0,60,68.5
476,D4,131.0,1.0,60,68.5
477,F4,131.0,1.0,60,68.5
478,D6,131.75,0.25,99,68.5
479,E-6,132.0,1.5,103,68.5
480,A3,133.0,1.0,60,68.5
481,C4,133.0,1.0,60,68.5
482,E-4,133.0,1.0,60,68.5
483,F#4,133.0,1.0,60,68.5
484,F6,133.75,0.062,94,68.5
485,E-6,133.812,0.062,94,68.5
486,D6,133.875,0.062,94,68.5
487,E-6,133.938,0.062,94,68.5
488,F6,134.0,0.5,107,68.5
489,E-6,134.5,0.5,90,68.5
490,D6,135.0,0.375,74,68.5
491,C6,135.5,0.375,67,68.5
492,B-5,136.0,0.5,60,68.5
493,A5,136.5,0.5,55,68.5
494,C6,137.0,0.5,60,68.5
495,G4,137.0,1.0,31,68.5
496,E-4,137.0,1.0,31,68.5
497,B-3,137.0,1.0,31,68.5
498,B-5,137.5,0.5,55,68.5
499,G#5,138.0,0.5,60,68.5
500,G5,138.5,0.5,56,68.5
501,F5,139.0,0.5,60,68.5
502,G#4,139.0,1.0,31,68.5
503,D4,139.0,1.0,31,68.5
504,B-3,139.0,1.0,31,68.5
505,B-5,139.5,0.5,57,68.5
506,F#5,140.0,333/1000,60,68.5
507,G5,140.333,333/1000,51,68.5
508,G4,140.667,333/1000,43,68.5
509,E-4,140.667,333/1000,32,68.5
510,B-3,141.0,333/1000,39,68.5
511,G5,141.333,333/1000,60,68.5
512,G3,141.333,333/1000,32,68.5
513,G4,141.667,333/1000,52,68.5
514,E-3,141.667,333/1000,32,68.5
515,G5,142.0,333/1000,60,68.5
516,G#5,142.333,333/1000,51,68.5
517,G#4,142.667,333/1000,43,68.5
518,F4,142.667,333/1000,34,68.5
519,D4,143.0,333/1000,39,68.5
520,G#5,143.333,333/1000,60,68.5
521,B-3,143.333,333/1000,33,68.5
522,G#4,143.667,333/1000,54,68.5
523,F3,143.667,333/1000,33,68.5
524,A5,144.0,333/1000,60,68.5
525,B-5,144.333,333/1000,51,68.5
526,B-4,144.667,333/1000,44,68.5
527,G4,144.667,333/1000,33,68.5
528,E-4,145.0,333/1000,40,68.5
529,B-5,145.333,333/1000,64,68.5
530,B-3,145.333,333/1000,34,68.5
531,B-4,145.667,333/1000,56,68.5
532,G3,145.667,333/1000,34,68.5
533,B-5,146.0,333/1000,66,68.5
534,B5,146.333,333/1000,63,68.5
535,B4,146.667,333/1000,58,68.5
536,G4,146.667,333/1000,46,68.5
537,E-4,147.0,333/1000,53,68.5
538,B5,147.333,333/1000,70,68.5
539,B3,147.333,333/1000,46,68.5
540,B4,147.667,333/1000,64,68.5
541,G3,147.667,333/1000,46,68.5
542,B5,148.0,333/1000,73,68.5
543,C6,148.333,333/1000,70,68.5
544,C5,148.667,333/1000,63,68.5
545,G#4,148.667,333/1000,47,68.5
546,E-4,149.0,333/1000,58,68.5
547,C6,149.333,333/1000,77,68.5
548,C4,149.333,333/1000,49,68.5
549,C5,149.667,333/1000,68,68.5
550,G#3,149.667,333/1000,49,68.5
551,C#6,150.0,333/1000,79,68.5
552,D6,150.333,333/1000,77,68.5
553,D5,150.667,333/1000,69,68.5
554,G#4,150.667,333/1000,56,68.5
555,F4,151.0,333/1000,63,68.5
556,D6,151.333,333/1000,84,68.5
557,D4,151.333,333/1000,54,68.5
558,D5,151.667,333/1000,76,68.5
559,B-3,151.667,333/1000,55,68.5
560,D6,152.0,333/1000,86,68.5
561,E-6,152.333,333/1000,81,68.5
562,E-5,152.667,333/1000,75,68.5
563,A4,152.667,3333/1000,78,68.5
564,F#4,153.0,3.0,57,68.5
565,E-6,153.333,333/1000,87,68.5
566,E-4,153.333,2667/1000,61,68.5
567,E-5,153.667,333/1000,81,68.5
568,B3,153.667,2333/1000,65,68.5
569,E-6,154.0,333/1000,87,68.5
570,F#5,154.333,333/1000,79,68.5
571,E-6,154.667,333/1000,87,68.5
572,A5,155.0,333/1000,79,68.5
573,E-6,155.333,333/1000,86,68.5
574,A5,155.667,333/1000,79,68.5
575,B-5,156.0,2333/1000,88,68.5
576,B-2,156.333,167/1000,64,68.5
577,E-3,156.667,167/1000,64,68.5
578,G3,157.0,167/1000,64,68.5
579,B-3,157.333,167/1000,58,68.5
580,E-4,157.667,167/1000,58,68.5
581,G4,158.0,333/1000,64,68.5
582,A5,158.333,333/1000,79,68.5
583,F#4,158.333,333/1000,58,68.5
584,C6,158.667,333/1000,79,68.5
585,G#4,158.667,333/1000,58,68.5
586,B-5,159.0,0.25,85,68.5
587,G4,159.0,0.25,64,68.5
588,G#5,159.333,0.25,79,68.5
589,F4,159.333,0.25,59,68.5
590,G5,159.667,0.25,79,68.5
591,E-4,159.667,0.25,59,68.5
592,E-5,160.0,2.0,79,68.5
593,F5,160.0,1.75,79,68.5
594,G#4,160.0,4.0,57,68.5
595,B-3,160.0,4.0,57,68.5
596,F5,161.75,1/20,71,68.5
597,G5,161.75,1/20,71,68.5
598,F5,161.85,1/20,70,68.5
599,E5,161.85,1/20,70,68.5
600,F5,161.95,1/20,67,68.5
601,D5,162.0,2.0,79,68.5
602,B-5,162.0,1.75,79,68.5
603,B-5,163.75,0.25,79,68.5
604,G4,164.0,1.0,80,68.5
605,E-5,164.0,1.0,80,68.5
606,B-1,164.333,167/1000,64,68.5
607,E-2,164.667,167/1000,64,68.5
608,G2,165.0,167/1000,64,68.5
609,B-2,165.333,167/1000,58,68.5
610,E-3,165.667,167/1000,58,68.5
611,G3,166.0,333/1000,64,68.5
612,A4,166.333,333/1000,79,68.5
613,F#3,166.333,333/1000,58,68.5
614,C5,166.667,333/1000,79,68.5
615,G#3,166.667,333/1000,58,68.5
616,B-4,167.0,0.25,85,68.5
617,G3,167.0,0.25,64,68.5
618,G#4,167.333,0.25,79,68.5
619,F3,167.333,0.25,59,68.5
620,G4,167.667,0.25,79,68.5
621,E-3,167.667,0.25,59,68.5
622,E-4,168.0,2.0,79,68.5
623,F4,168.0,1.75,79,68.5
624,G#3,168.0,4.0,57,68.5
625,B-2,168.0,4.0,57,68.5
626,F4,169.75,1/20,71,68.5
627,G4,169.75,1/20,71,68.5
628,F4,169.85,1/20,70,68.5
629,E4,169.85,1/20,70,68.5
630,F4,169.95,1/20,67,68.5
631,D4,170.0,2.0,79,68.5
632,B-4,170.0,1.75,79,68.5
633,B-4,171.75,0.25,47,68.5
634,E-4,172.0,1.0,51,68.5
635,E-3,172.0,1.0,40,68.5
636,G3,172.0,1.0,40,68.5
637,E-2,175.75,0.25,66,68.5
638,B-2,175.75,0.25,66,68.5
639,C#3,175.812,0.188,68,68.5
640,E-3,175.812,0.188,68,68.5
641,G3,175.875,0.125,76,68.5
642,B-3,175.875,0.125,76,68.5
643,C#4,175.938,0.062,84,68.5
644,E-4,175.938,0.062,84,68.5
645,G4,176.0,1.0,90,68.5
646,G3,176.0,0.969,76,68.5
647,B-3,176.0,0.969,76,68.5
648,C#4,176.0,0.969,84,68.5
649,E-4,176.0,0.969,84,68.5
650,E-2,176.0,0.969,66,68.5
651,B-2,176.0,0.969,66,68.5
652,C#3,176.0,0.969,68,68.5
653,E-3,176.0,0.969,68,68.5
654,C4,180.0,2.0,42,68.5
655,G#4,180.0,1.5,50,68.5
656,G#2,180.0,1.0,39,68.5
657,E-3,181.0,1.0,32,68.5
658,B-4,181.5,0.125,50,68.5
659,G#4,181.625,0.125,46,68.5
660,G4,181.75,0.125,46,68.5
661,G#4,181.875,0.125,46,68.5
662,C5,182.0,1.5,54,68.5
663,C#4,182.0,2.0,45,68.5
664,G2,182.0,1.0,39,68.5
665,E-3,183.0,1.0,29,68.5
666,B-4,183.5,0.5,45,68.5
667,C4,184.0,2.0,42,68.5
668,G#4,184.0,2.5,50,68.5
669,G#2,184.0,1.0,42,68.5
670,E-3,185.0,1.0,36,68.5
671,G#3,186.0,1.0,38,68.5
672,G4,186.5,0.5,46,68.5
673,G#4,187.0,0.5,44,68.5
674,C4,187.0,1.0,40,68.5
675,A4,187.5,0.5,48,68.5
676,E-4,188.0,2.0,52,68.5
677,B-4,188.0,1.0,52,68.5
678,G3,188.0,2.0,46,68.5
679,C#4,188.0,1.0,46,68.5
680,B-3,189.0,1.0,32,68.5
681,C5,189.5,0.125,50,68.5
682,B-4,189.625,0.125,46,68.5
683,A4,189.75,0.125,46,68.5
684,B-4,189.875,0.125,46,68.5
685,C#5,190.0,1.5,54,68.5
686,E-4,190.0,1.0,45,68.5
687,G#3,190.0,2.0,29,68.5
688,G#4,191.0,1.0,45,68.5
689,C4,191.0,1.0,32,68.5
690,C5,191.5,0.5,45,68.5
691,G4,192.0,2.0,42,68.5
692,B-4,192.0,2333/1000,50,68.5
693,E-3,192.0,4.0,33,68.5
694,E-4,192.0,4.0,33,68.5
695,C#4,193.0,1.0,32,68.5
696,B-3,194.0,1.0,32,68.5
697,F5,194.333,333/1000,61,68.5
698,E-5,194.667,333/1000,55,68.5
699,C#5,195.0,0.25,62,68.5
700,G3,195.0,1.0,32,68.5
701,C5,195.333,0.25,60,68.5
702,B4,195.667,0.25,57,68.5
703,C5,196.0,1.75,63,68.5
704,G#3,196.75,0.25,37,68.5
705,E-4,197.0,1.0,46,68.5
706,G#4,197.75,0.25,52,68.5
707,E-5,198.0,1.75,64,68.5
708,C3,198.75,0.25,39,68.5
709,G#3,199.0,1.0,48,68.5
710,C5,199.75,0.25,60,68.5
711,F5,200.0,1.75,70,68.5
712,C#3,200.75,0.25,51,68.5
713,C#4,201.0,0.75,56,68.5
714,C#5,201.75,0.25,67,68.5
715,F3,201.75,2.25,56,68.5
716,G#5,202.0,2.0,87,68.5
717,C#4,202.0,0.75,62,68.5
718,G#3,202.75,0.25,56,68.5
719,F4,203.0,0.75,65,68.5
720,C#4,203.75,0.25,65,68.5
721,G#4,204.0,2.0,84,68.5
722,G#5,204.0,0.5,87,68.5
723,G#3,204.0,1.0,72,68.5
724,F3,204.0,1.0,56,68.5
725,G5,204.5,0.5,63,68.5
726,F5,205.0,0.5,59,68.5
727,F3,205.0,1.0,44,68.5
728,G#3,205.0,1.0,44,68.5
729,E-5,205.5,229/500,56,68.5
730,E-4,206.0,1.0,37,68.5
731,E-5,206.0,0.5,59,68.5
732,G3,206.0,1.0,52,68.5
733,B-3,206.0,1.0,52,68.5
734,C#5,206.5,229/500,56,68.5
735,E-4,207.0,1.0,37,68.5
736,C#5,207.0,0.5,59,68.5
737,C4,207.0,1.0,44,68.5
738,G#3,207.0,1.0,44,68.5
739,C5,207.5,229/500,56,68.5
740,E-4,208.0,1.0,46,68.5
741,E-5,208.0,1.5,55,68.5
742,C4,208.0,1.5,43,68.5
743,E-3,208.0,2.0,43,68.5
744,E-4,209.0,1.0,39,68.5
745,C5,209.5,0.5,51,68.5
746,G#3,209.5,0.5,31,68.5
747,E-4,210.0,1.0,45,68.5
748,B-4,210.0,0.062,53,68.5
749,B-4,210.0,0.188,51,68.5
750,E-3,210.0,1.0,28,68.5
751,G3,210.0,1.0,28,68.5
752,C5,210.062,0.062,46,68.5
753,B-4,210.125,26/125,51,68.5
754,C5,210.188,0.062,45,68.5
755,B-4,210.25,0.25,51,68.5
756,A4,210.333,83/1000,46,68.5
757,B-4,210.417,583/1000,46,68.5
758,C#5,210.5,0.25,57,68.5
759,C5,210.75,0.25,48,68.5
760,E-5,211.0,0.25,55,68.5
761,C#5,211.25,0.25,47,68.5
762,C5,211.5,0.125,51,68.5
763,E-5,211.625,0.125,47,68.5
764,C#5,211.75,0.125,47,68.5
765,B-4,211.875,0.125,47,68.5
766,C4,212.0,2.0,42,68.5
767,G#4,212.0,1.5,50,68.5
768,G#2,212.0,2.0,36,68.5
769,E-3,212.5,19/40,28,68.5
770,E-3,213.0,19/40,29,68.5
771,B-4,213.5,0.125,50,68.5
772,E-3,213.5,19/40,29,68.5
773,G#4,213.625,0.125,46,68.5
774,G4,213.75,0.125,46,68.5
775,G#4,213.875,0.125,46,68.5
776,C5,214.0,1.5,54,68.5
777,C#4,214.0,2.0,45,68.5
778,G2,214.0,2.0,36,68.5
779,E-3,214.5,19/40,28,68.5
780,E-3,215.0,19/40,28,68.5
781,B-4,215.5,0.5,45,68.5
782,E-3,215.5,19/40,28,68.5
783,G#2,216.0,0.25,43,68.5
784,C4,216.0,2.0,46,68.5
785,G#4,216.0,2.0,46,68.5
786,E-3,216.333,0.25,36,68.5
787,C3,216.667,0.25,36,68.5
788,G#3,217.0,0.25,40,68.5
789,E-3,217.333,0.25,36,68.5
790,C4,217.667,0.25,36,68.5
791,G#3,218.0,0.25,43,68.5
792,E-4,218.333,0.25,36,68.5
793,C#4,218.667,0.25,36,68.5
794,C4,219.0,0.25,47,68.5
795,B-3,219.333,0.25,36,68.5
796,G#3,219.667,0.25,36,68.5
797,E-4,220.0,2.0,42,68.5
798,B-4,220.0,1.0,50,68.5
799,G3,220.0,2.0,45,68.5
800,E-3,220.5,19/40,29,68.5
801,E-3,221.0,19/40,29,68.5
802,C5,221.5,0.125,50,68.5
803,E-3,221.5,19/40,29,68.5
804,B-4,221.625,0.125,46,68.5
805,A4,221.75,0.125,46,68.5
806,B-4,221.875,0.125,46,68.5
807,C#5,222.0,1.5,54,68.5
808,G#3,222.0,2.0,36,68.5
809,E-4,222.0,2.0,45,68.5
810,G#4,222.0,2.0,45,68.5
811,E-3,222.5,19/40,29,68.5
812,E-3,223.0,19/40,29,68.5
813,C5,223.5,0.5,45,68.5
814,E-3,223.5,19/40,29,68.5
815,E-2,224.0,0.25,41,68.5
816,G4,224.0,2.0,46,68.5
817,B-4,224.0,2.0,46,68.5
818,G2,224.333,0.25,38,68.5
819,B-2,224.667,0.25,38,68.5
820,E-3,225.0,0.25,48,68.5
821,G3,225.333,0.25,48,68.5
822,B-3,225.667,0.25,51,68.5
823,C#4,226.0,0.25,55,68.5
824,F4,226.333,0.25,49,68.5
825,E-4,226.667,0.25,49,68.5
826,C#4,227.0,0.25,53,68.5
827,C4,227.333,0.25,44,68.5
828,B-3,227.667,0.25,44,68.5
829,E-4,227.938,0.062,36,68.5
830,C5,228.0,1.75,63,68.5
831,E-4,228.0,0.125,36,68.5
832,G#3,228.0,0.25,39,68.5
833,E-4,228.333,0.25,42,68.5
834,C4,228.667,0.25,37,68.5
835,G#3,229.0,0.25,42,68.5
836,E-3,229.333,0.25,32,68.5
837,C3,229.667,0.25,32,68.5
838,G#4,229.75,0.25,52,68.5
839,E-4,229.938,0.188,43,68.5
840,E-5,230.0,1.75,64,68.5
841,C4,230.333,0.25,36,68.5
842,G#3,230.667,0.25,36,68.5
843,E-3,231.0,0.25,47,68.5
844,C3,231.333,0.25,38,68.5
845,G#2,231.667,0.25,40,68.5
846,C5,231.75,0.188,60,68.5
847,F4,231.938,0.062,44,68.5
848,F5,232.0,3333/1000,70,68.5
849,F4,232.0,3333/1000,44,68.5
850,C#3,232.333,3667/1000,32,68.5
851,E-3,232.667,7/20,36,68.5
852,F3,233.0,7/20,36,68.5
853,F#3,233.333,7/20,41,68.5
854,G3,233.667,7/20,43,68.5
855,G#3,234.0,7/20,46,68.5
856,A3,234.333,7/20,48,68.5
857,B-3,234.667,7/20,49,68.5
858,B3,235.0,7/20,52,68.5
859,C4,235.333,7/20,54,68.5
860,A4,235.333,333/1000,64,68.5
861,E-5,235.333,333/1000,64,68.5
862,C#4,235.667,333/1000,57,68.5
863,B-4,235.667,333/1000,57,68.5
864,C#5,235.667,333/1000,57,68.5
865,G#4,236.0,2.0,59,68.5
866,C5,236.0,1.0,70,68.5
867,E-3,236.0,2.0,56,68.5
868,E-4,236.333,333/1000,56,68.5
869,D4,236.667,333/1000,45,68.5
870,E-5,237.0,1.0,63,68.5
871,C#4,237.333,333/1000,46,68.5
872,C4,237.667,333/1000,46,68.5
873,G4,238.0,2.0,59,68.5
874,C#5,238.0,1.0,70,68.5
875,E-3,238.0,2.0,32,68.5
876,B-3,238.333,333/1000,51,68.5
877,C4,238.667,333/1000,44,68.5
878,B-4,239.0,1.0,60,68.5
879,C#4,239.333,333/1000,44,68.5
880,G3,239.667,333/1000,44,68.5
881,C#4,240.0,1.25,59,68.5
882,B-4,240.0,2.0,70,68.5
883,G#2,240.0,3.0,32,68.5
884,G3,240.0,2.0,51,68.5
885,C4,241.25,0.125,37,68.5
886,C#4,241.375,0.125,34,68.5
887,E-4,241.5,0.125,38,68.5
888,C#4,241.625,0.125,34,68.5
889,C4,241.75,0.125,34,68.5
890,C#4,241.875,0.125,34,68.5
891,G#3,242.0,1.0,35,68.5
892,C4,242.0,1.0,46,68.5
893,G#4,242.0,1.0,46,68.5
894,F5,243.938,0.062,78,68.5
895,F6,244.0,1.5,91,68.5
896,F5,244.0,0.125,78,68.5
897,E-4,244.0,2.0,76,68.5
898,F4,244.0,2.0,76,68.5
899,C4,244.0,2.0,76,68.5
900,A3,244.0,2.0,76,68.5
901,E-6,245.5,73/1000,65,68.5
902,C6,245.571,73/1000,63,68.5
903,A5,245.644,71/1000,62,68.5
904,F5,245.715,71/1000,61,68.5
905,E-5,245.785,73/1000,59,68.5
906,C5,245.856,73/1000,57,68.5
907,A4,245.927,73/1000,56,68.5
908,F4,246.0,0.5,78,68.5
909,C4,247.75,229/1000,50,68.5
910,E-4,247.75,229/1000,50,68.5
911,A2,247.75,229/1000,33,68.5
912,F3,247.75,229/1000,33,68.5
913,C4,248.0,2.0,52,68.5
914,E-4,248.0,2.0,52,68.5
915,B-2,248.0,3.0,38,68.5
916,F3,248.0,3.0,38,68.5
917,B-3,250.0,1.0,42,68.5
918,C#4,250.0,1.0,42,68.5
919,E-5,251.938,0.062,78,68.5
920,E-6,252.0,1.5,91,68.5
921,E-5,252.0,0.125,78,68.5
922,C#4,252.0,2.0,76,68.5
923,E-4,252.0,2.0,76,68.5
924,B-3,252.0,2.0,76,68.5
925,G3,252.0,2.0,76,68.5
926,C#6,253.5,73/1000,65,68.5
927,B-5,253.571,73/1000,63,68.5
928,G5,253.644,71/1000,62,68.5
929,E-5,253.715,71/1000,61,68.5
930,C#5,253.785,73/1000,59,68.5
931,B-4,253.856,73/1000,57,68.5
932,G4,253.927,73/1000,56,68.5
933,E-4,254.0,0.5,78,68.5
934,B-3,255.75,229/1000,50,68.5
935,C#4,255.75,229/1000,50,68.5
936,G2,255.75,229/1000,33,68.5
937,E-3,255.75,229/1000,33,68.5
938,B-3,256.0,2.0,52,68.5
939,C#4,256.0,2.0,52,68.5
940,G#2,256.0,3.0,38,68.5
941,E-3,256.0,3.0,38,68.5
942,G#3,258.0,1.0,42,68.5
943,B3,258.0,1.0,42,68.5
944,B2,259.938,0.062,89,68.5
945,B3,260.0,1.5,92,68.5
946,B2,260.0,0.125,89,68.5
947,B3,261.5,83/1000,59,68.5
948,G#3,261.583,83/1000,57,68.5
949,E3,261.667,83/1000,56,68.5
950,B2,261.75,83/1000,56,68.5
951,G#2,261.835,83/1000,55,68.5
952,E2,261.917,83/1000,53,68.5
953,B1,262.0,0.5,91,68.5
954,G#3,263.75,229/1000,69,68.5
955,E3,263.75,229/1000,69,68.5
956,E4,263.75,229/1000,69,68.5
957,B1,263.75,229/1000,46,68.5
958,B2,263.75,229/1000,46,68.5
959,E4,264.0,2.0,73,68.5
960,F#3,264.0,3.0,73,68.5
961,A3,264.0,3.0,73,68.5
962,B1,264.0,3.0,61,68.5
963,B2,264.0,3.0,61,68.5
964,E-4,266.0,1.0,61,68.5
965,G#3,267.75,229/1000,69,68.5
966,F3,267.75,229/1000,69,68.5
967,E-4,267.75,229/1000,69,68.5
968,B1,267.75,229/1000,46,68.5
969,B2,267.75,229/1000,46,68.5
970,E-4,268.0,2.0,73,68.5
971,F3,268.0,3.0,73,68.5
972,G#3,268.0,3.0,73,68.5
973,B1,268.0,2.0,61,68.5
974,B2,268.0,2.0,61,68.5
975,D4,270.0,1.0,61,68.5
976,B-1,270.0,1.0,44,68.5
977,B-2,270.0,1.0,44,68.5
978,G#3,271.75,229/1000,69,68.5
979,F3,271.75,229/1000,69,68.5
980,D4,271.75,229/1000,69,68.5
981,B-1,271.75,229/1000,46,68.5
982,B-2,271.75,229/1000,46,68.5
983,F3,272.0,3.0,73,68.5
984,G#3,272.0,2.0,73,68.5
985,D4,272.0,2.0,73,68.5
986,B-1,272.0,2.0,61,68.5
987,B-2,272.0,2.0,61,68.5
988,B-3,274.0,0.5,58,68.5
989,C#4,274.0,0.5,58,68.5
990,E-2,274.0,0.5,44,68.5
991,E-3,274.0,0.5,44,68.5
992,A4,274.5,21/40,46,68.5
993,B-4,275.0,9/20,54,68.5
994,C5,275.5,0.5,46,68.5
995,C#5,276.0,9/20,54,68.5
996,C5,276.0,1/40,46,68.5
997,F#5,276.5,0.5,50,68.5
998,G5,277.0,9/20,60,68.5
999,A5,277.5,21/40,50,68.5
1000,B-5,278.0,9/20,60,68.5
1001,C6,278.5,21/40,50,68.5
1002,C#6,279.0,0.5,60,68.5
1003,B-5,279.5,0.5,50,68.5
1004,G5,280.0,2.5,60,68.5
1005,E-4,280.0,19/20,32,68.5
1006,C#4,280.0,19/20,32,68.5
1007,E-4,281.0,19/20,28,68.5
1008,C#4,281.0,19/20,28,68.5
1009,E-4,282.0,19/20,28,68.5
1010,C#4,282.0,19/20,28,68.5
1011,G#5,282.5,0.125,55,68.5
1012,G5,282.625,0.125,55,68.5
1013,F5,282.75,0.125,55,68.5
1014,G5,282.875,0.125,55,68.5
1015,G#5,283.0,0.75,60,68.5
1016,E-4,283.0,19/20,28,68.5
1017,C#4,283.0,19/20,28,68.5
1018,B-5,283.75,0.25,60,68.5
1019,B-5,284.0,1.0,60,68.5
1020,E-4,284.0,19/20,32,68.5
1021,C4,284.0,19/20,32,68.5
1022,G#5,285.0,2.0,60,68.5
1023,E-4,285.0,19/20,26,68.5
1024,C4,285.0,19/20,26,68.5
1025,E-4,286.0,19/20,26,68.5
1026,C4,286.0,19/20,26,68.5
1027,A5,287.0,1.0,60,68.5
1028,E-4,287.0,19/20,26,68.5
1029,C4,287.0,19/20,26,68.5
1030,B-5,288.0,2.5,60,68.5
1031,G3,288.0,19/20,31,68.5
1032,E-4,288.0,19/20,31,68.5
1033,C#4,288.0,19/20,31,68.5
1034,G3,289.0,19/20,27,68.5
1035,E-4,289.0,19/20,27,68.5
1036,C#4,289.0,19/20,27,68.5
1037,G3,290.0,19/20,27,68.5
1038,E-4,290.0,19/20,27,68.5
1039,C#4,290.0,19/20,27,68.5
1040,C6,290.5,0.125,55,68.5
1041,B-5,290.625,0.125,55,68.5
1042,A5,290.75,0.125,55,68.5
1043,B-5,290.875,0.125,55,68.5
1044,C6,291.0,0.75,60,68.5
1045,C4,291.0,0.75,25,68.5
1046,G3,291.0,1.0,28,68.5
1047,E-4,291.0,1.0,28,68.5
1048,C#6,291.75,0.25,60,68.5
1049,B-3,291.75,0.25,25,68.5
1050,C#6,292.0,1.0,60,68.5
1051,G#3,292.0,19/20,31,68.5
1052,E-4,292.0,19/20,31,68.5
1053,B3,292.0,19/20,31,68.5
1054,C6,293.0,1.0,60,68.5
1055,G#3,293.0,19/20,25,68.5
1056,E-4,293.0,19/20,25,68.5
1057,C4,293.0,19/20,25,68.5
1058,G#3,294.0,19/20,25,68.5
1059,E-4,294.0,19/20,25,68.5
1060,C4,294.0,19/20,25,68.5
1061,G#3,295.0,19/20,26,68.5
1062,E-4,295.0,19/20,26,68.5
1063,C4,295.0,19/20,26,68.5
1064,C#4,296.0,19/20,28,68.5
1065,E-4,296.0,19/20,28,68.5
1066,G4,296.083,83/1000,30,68.5
1067,G#4,296.169,83/1000,30,68.5
1068,B-4,296.252,83/1000,41,68.5
1069,G#4,296.335,83/1000,33,68.5
1070,G4,296.419,83/1000,33,68.5
1071,C#5,296.502,83/1000,42,68.5
1072,C5,296.585,83/1000,36,68.5
1073,B-4,296.669,83/1000,39,68.5
1074,G5,296.754,83/1000,51,68.5
1075,F5,296.837,83/1000,39,68.5
1076,E-5,296.921,83/1000,42,68.5
1077,B-5,297.0,83/1000,57,68.5
1078,C#4,297.0,19/20,28,68.5
1079,E-4,297.0,19/20,28,68.5
1080,G#5,297.083,83/1000,46,68.5
1081,G5,297.167,83/1000,49,68.5
1082,C#6,297.25,83/1000,59,68.5
1083,C6,297.333,83/1000,50,68.5
1084,B-5,297.417,83/1000,55,68.5
1085,F6,297.5,2.0,69,68.5
1086,C#4,298.0,19/20,28,68.5
1087,E-4,298.0,19/20,28,68.5
1088,C#4,299.0,19/20,28,68.5
1089,E-4,299.0,19/20,28,68.5
1090,F6,299.5,71/1000,54,68.5
1091,E-6,299.571,71/1000,53,68.5
1092,C#6,299.644,71/1000,52,68.5
1093,C6,299.715,71/1000,52,68.5
1094,B-5,299.785,71/1000,51,68.5
1095,G#5,299.856,71/1000,50,68.5
1096,G5,299.927,71/1000,49,68.5
1097,B-5,300.0,0.75,56,68.5
1098,G#5,300.75,0.25,44,68.5
1099,G5,301.0,0.375,47,68.5
1100,C4,301.0,19/20,28,68.5
1101,E-4,301.0,19/20,28,68.5
1102,G#5,301.375,0.125,44,68.5
1103,B-5,301.5,0.375,51,68.5
1104,G#5,301.875,0.125,45,68.5
1105,G#4,302.0,1.0,57,68.5
1106,C4,302.0,19/20,28,68.5
1107,E-4,302.0,19/20,28,68.5
1108,C4,303.0,19/20,28,68.5
1109,E-4,303.0,19/20,28,68.5
1110,G3,304.0,19/20,27,68.5
1111,C#4,304.0,19/20,27,68.5
1112,E-4,304.0,19/20,27,68.5
1113,B-4,304.083,83/1000,30,68.5
1114,C5,304.169,83/1000,30,68.5
1115,C#5,304.252,83/1000,41,68.5
1116,C5,304.335,83/1000,33,68.5
1117,B-4,304.419,83/1000,33,68.5
1118,G5,304.502,83/1000,47,68.5
1119,F5,304.585,83/1000,38,68.5
1120,E-5,304.669,83/1000,39,68.5
1121,B-5,304.754,83/1000,51,68.5
1122,G#5,304.837,83/1000,46,68.5
1123,G5,304.921,83/1000,48,68.5
1124,C#6,305.0,2.5,69,68.5
1125,G3,305.0,19/20,26,68.5
1126,B-3,305.0,19/20,26,68.5
1127,C#4,305.0,19/20,26,68.5
1128,E-4,305.0,19/20,26,68.5
1129,G3,306.0,19/20,26,68.5
1130,B-3,306.0,19/20,26,68.5
1131,C#4,306.0,19/20,26,68.5
1132,E-4,306.0,19/20,26,68.5
1133,G3,307.0,19/20,26,68.5
1134,B-3,307.0,19/20,26,68.5
1135,C#4,307.0,19/20,26,68.5
1136,E-4,307.0,19/20,26,68.5
1137,C6,307.5,23/500,51,68.5
1138,C#6,307.5,23/500,51,68.5
1139,E-6,307.592,23/500,56,68.5
1140,C#6,307.592,23/500,56,68.5
1141,C6,307.683,23/500,58,68.5
1142,B-5,307.683,23/500,58,68.5
1143,G#5,307.775,23/500,56,68.5
1144,G5,307.775,23/500,56,68.5
1145,F5,307.865,23/500,54,68.5
1146,E-5,307.865,23/500,54,68.5
1147,C#5,307.956,11/250,52,68.5
1148,C5,308.0,1.5,62,68.5
1149,C#5,308.0,1/500,52,68.5
1150,G#3,309.0,1.0,30,68.5
1151,C4,309.0,1.0,30,68.5
1152,E-4,309.0,1.0,30,68.5
1153,C5,309.75,0.25,64,68.5
1154,C#5,310.0,1.5,71,68.5
1155,B-3,311.0,1.0,32,68.5
1156,C#4,311.0,1.0,32,68.5
1157,E-4,311.0,1.0,32,68.5
1158,G4,311.0,1.0,32,68.5
1159,C#5,311.75,0.25,71,68.5
1160,E-5,312.0,1.5,81,68.5
1161,C4,313.0,1.0,37,68.5
1162,E-4,313.0,1.0,37,68.5
1163,G#4,313.0,1.0,37,68.5
1164,E-5,313.75,0.25,78,68.5
1165,E5,314.0,1.5,89,68.5
1166,C4,315.0,1.0,43,68.5
1167,E4,315.0,1.0,43,68.5
1168,G#4,315.0,1.0,43,68.5
1169,E5,315.75,0.25,84,68.5
1170,F5,316.0,1.5,92,68.5
1171,C#4,317.0,1.0,51,68.5
1172,F4,317.0,1.0,51,68.5
1173,G#4,317.0,1.0,51,68.5
1174,F5,317.75,0.25,88,68.5
1175,G5,318.0,1.5,94,68.5
1176,E4,319.0,1.0,60,68.5
1177,C#4,319.0,1.0,60,68.5
1178,G4,319.0,1.0,60,68.5
1179,B-4,319.0,1.0,60,68.5
1180,G5,319.75,0.25,93,68.5
1181,G#5,320.0,1.5,100,68.5
1182,D4,321.0,1.0,60,68.5
1183,F4,321.0,1.0,60,68.5
1184,G#4,321.0,1.0,60,68.5
1185,B4,321.0,1.0,60,68.5
1186,B-5,321.75,0.062,86,68.5
1187,G#5,321.812,0.062,89,68.5
1188,G5,321.875,0.062,91,68.5
1189,G#5,321.938,0.062,93,68.5
1190,B-5,322.0,0.5,95,68.5
1191,G#5,322.5,0.5,87,68.5
1192,G5,323.0,0.375,77,68.5
1193,F5,323.5,0.375,67,68.5
1194,E-5,324.0,21/40,60,68.5
1195,D5,324.5,21/40,55,68.5
1196,F5,325.0,21/40,60,68.5
1197,C4,325.0,1.0,36,68.5
1198,G#3,325.0,1.0,36,68.5
1199,E-3,325.0,1.0,36,68.5
1200,E-5,325.5,21/40,55,68.5
1201,C#5,326.0,21/40,60,68.5
1202,C5,326.5,21/40,56,68.5
1203,B-4,327.0,21/40,60,68.5
1204,C#4,327.0,1.0,36,68.5
1205,G3,327.0,1.0,36,68.5
1206,E-3,327.0,1.0,36,68.5
1207,E-5,327.5,0.5,57,68.5
1208,B4,328.0,333/1000,60,68.5
1209,C5,328.333,333/1000,51,68.5
1210,C4,328.667,333/1000,43,68.5
1211,G#3,328.667,333/1000,32,68.5
1212,E-3,329.0,333/1000,39,68.5
1213,C5,329.333,333/1000,60,68.5
1214,C3,329.333,333/1000,32,68.5
1215,C4,329.667,333/1000,52,68.5
1216,G#2,329.667,333/1000,32,68.5
1217,C5,330.0,333/1000,60,68.5
1218,C#5,330.333,333/1000,51,68.5
1219,C#4,330.667,333/1000,43,68.5
1220,B-3,330.667,333/1000,34,68.5
1221,G3,331.0,333/1000,39,68.5
1222,C#5,331.333,333/1000,60,68.5
1223,E-3,331.333,333/1000,33,68.5
1224,C#4,331.667,333/1000,54,68.5
1225,B-2,331.667,333/1000,33,68.5
1226,D5,332.0,333/1000,60,68.5
1227,E-5,332.333,333/1000,51,68.5
1228,E-4,332.667,333/1000,44,68.5
1229,C4,332.667,333/1000,33,68.5
1230,G#3,333.0,333/1000,40,68.5
1231,E-5,333.333,333/1000,64,68.5
1232,E-3,333.333,333/1000,34,68.5
1233,E-4,333.667,333/1000,56,68.5
1234,C3,333.667,333/1000,34,68.5
1235,E-5,334.0,333/1000,66,68.5
1236,E5,334.333,333/1000,63,68.5
1237,E4,334.667,333/1000,58,68.5
1238,C4,334.667,333/1000,46,68.5
1239,G#3,335.0,333/1000,53,68.5
1240,E5,335.333,333/1000,70,68.5
1241,E3,335.333,333/1000,46,68.5
1242,E4,335.667,333/1000,64,68.5
1243,C3,335.667,333/1000,46,68.5
1244,E5,336.0,333/1000,73,68.5
1245,F5,336.333,333/1000,70,68.5
1246,F4,336.667,333/1000,63,68.5
1247,C#4,336.667,333/1000,47,68.5
1248,G#3,337.0,333/1000,58,68.5
1249,F5,337.333,333/1000,77,68.5
1250,F3,337.333,333/1000,49,68.5
1251,F4,337.667,333/1000,68,68.5
1252,C#3,337.667,333/1000,49,68.5
1253,F#5,338.0,333/1000,79,68.5
1254,G5,338.333,333/1000,77,68.5
1255,G4,338.667,333/1000,69,68.5
1256,C#4,338.667,333/1000,56,68.5
1257,B-3,339.0,333/1000,63,68.5
1258,G5,339.333,333/1000,84,68.5
1259,G3,339.333,333/1000,54,68.5
1260,G4,339.667,333/1000,76,68.5
1261,E-3,339.667,333/1000,55,68.5
1262,G5,340.0,333/1000,86,68.5
1263,G#5,340.333,333/1000,81,68.5
1264,G#4,340.667,333/1000,75,68.5
1265,D4,340.667,3333/1000,78,68.5
1266,B3,341.0,3.0,57,68.5
1267,G#5,341.333,333/1000,87,68.5
1268,G#3,341.333,2667/1000,61,68.5
1269,G#4,341.667,333/1000,81,68.5
1270,E3,341.667,2333/1000,65,68.5
1271,B5,342.0,333/1000,87,68.5
1272,B4,342.333,333/1000,79,68.5
1273,B5,342.667,333/1000,87,68.5
1274,G#4,343.0,333/1000,79,68.5
1275,G#5,343.333,333/1000,86,68.5
1276,G#4,343.667,333/1000,79,68.5
1277,E-5,344.0,2333/1000,88,68.5
1278,E-3,344.333,167/1000,64,68.5
1279,G#3,344.667,167/1000,64,68.5
1280,C4,345.0,167/1000,64,68.5
1281,E-4,345.333,167/1000,58,68.5
1282,G#4,345.667,167/1000,58,68.5
1283,C5,346.0,333/1000,64,68.5
1284,D6,346.333,333/1000,79,68.5
1285,B4,346.333,333/1000,58,68.5
1286,F6,346.667,333/1000,79,68.5
1287,C#5,346.667,333/1000,58,68.5
1288,E-6,347.0,0.25,85,68.5
1289,C5,347.0,0.25,64,68.5
1290,C#6,347.333,0.25,79,68.5
1291,B-4,347.333,0.25,59,68.5
1292,C6,347.667,0.25,79,68.5
1293,G#4,347.667,0.25,59,68.5
1294,G#5,348.0,2.0,79,68.5
1295,B-5,348.0,1.75,79,68.5
1296,C#5,348.0,4.0,57,68.5
1297,E-4,348.0,4.0,57,68.5
1298,B-5,349.75,1/20,71,68.5
1299,C6,349.75,1/20,71,68.5
1300,B-5,349.85,1/20,70,68.5
1301,A5,349.85,1/20,70,68.5
1302,B-5,349.95,1/20,67,68.5
1303,G5,350.0,2.0,79,68.5
1304,E-6,350.0,1.75,79,68.5
1305,E-6,351.75,0.25,79,68.5
1306,C5,352.0,1.0,80,68.5
1307,G#5,352.0,1.0,80,68.5
1308,E-2,352.333,167/1000,64,68.5
1309,G#2,352.667,167/1000,64,68.5
1310,C3,353.0,167/1000,64,68.5
1311,E-3,353.333,167/1000,58,68.5
1312,G#3,353.667,167/1000,58,68.5
1313,C4,354.0,333/1000,64,68.5
1314,D5,354.333,333/1000,79,68.5
1315,B3,354.333,333/1000,58,68.5
1316,F5,354.667,333/1000,79,68.5
1317,C#4,354.667,333/1000,58,68.5
1318,E-5,355.0,0.25,85,68.5
1319,C4,355.0,0.25,64,68.5
1320,C#5,355.333,0.25,79,68.5
1321,B-3,355.333,0.25,59,68.5
1322,C5,355.667,0.25,79,68.5
1323,G#3,355.667,0.25,59,68.5
1324,G#4,356.0,2.0,79,68.5
1325,B-4,356.0,1.75,79,68.5
1326,C#4,356.0,4.0,57,68.5
1327,E-3,356.0,4.0,57,68.5
1328,B-4,357.75,1/20,71,68.5
1329,C5,357.75,1/20,71,68.5
1330,B-4,357.85,1/20,70,68.5
1331,A4,357.85,1/20,70,68.5
1332,B-4,357.95,1/20,67,68.5
1333,G4,358.0,2.0,79,68.5
1334,E-5,358.0,1.75,79,68.5
1335,E-5,359.75,0.25,61,68.5
1336,G#4,360.0,2.0,50,68.5
1337,G#3,360.0,1.0,39,68.5
1338,C4,360.0,19/40,30,68.5
1339,E-4,360.0,19/40,30,68.5
1340,C4,360.5,19/20,30,68.5
1341,E-4,360.5,19/20,30,68.5
1342,E-3,361.0,1.0,32,68.5
1343,C4,361.5,19/40,30,68.5
1344,E-4,361.5,19/40,30,68.5
1345,C5,362.0,1.5,54,68.5
1346,G3,362.0,1.0,39,68.5
1347,C#4,362.0,19/40,30,68.5
1348,E-4,362.0,19/40,30,68.5
1349,C#4,362.5,19/20,30,68.5
1350,E-4,362.5,19/20,30,68.5
1351,E-3,363.0,1.0,29,68.5
1352,E-4,363.5,0.5,35,68.5
1353,C#4,363.5,0.5,35,68.5
1354,B-4,363.5,0.5,35,68.5
1355,G#4,364.0,3.5,50,68.5
1356,G#3,364.0,1.0,42,68.5
1357,C4,364.0,19/40,30,68.5
1358,E-4,364.0,19/40,30,68.5
1359,C4,364.5,19/20,30,68.5
1360,E-4,364.5,19/20,30,68.5
1361,E-3,365.0,1.0,36,68.5
1362,E-4,365.5,19/20,30,68.5
1363,C4,365.5,19/20,30,68.5
1364,C3,366.0,1.0,38,68.5
1365,C4,366.5,19/20,30,68.5
1366,E-4,366.5,19/20,30,68.5
1367,G#2,367.0,1.0,40,68.5
1368,A4,367.5,19/40,35,68.5
1369,C4,367.5,19/40,35,68.5
1370,E-4,367.5,19/40,35,68.5
1371,B-4,368.0,1.5,52,68.5
1372,G2,368.0,1.0,46,68.5
1373,C#4,368.0,19/40,30,68.5
1374,E-4,368.0,19/40,30,68.5
1375,E-4,368.5,19/20,35,68.5
1376,E-2,369.0,1.0,32,68.5
1377,E-4,369.5,19/20,30,68.5
1378,C5,369.5,0.125,50,68.5
1379,B-4,369.625,0.125,46,68.5
1380,A4,369.75,0.125,46,68.5
1381,B-4,369.875,0.125,46,68.5
1382,G#2,370.0,1.0,29,68.5
1383,C#5,370.0,1.5,50,68.5
1384,G#4,370.0,1.5,50,68.5
1385,E-4,370.5,19/20,30,68.5
1386,C3,371.0,1.0,32,68.5
1387,E-4,371.5,0.5,30,68.5
1388,G#4,371.5,0.5,45,68.5
1389,C5,371.5,0.5,45,68.5
1390,E-4,372.0,9/20,30,68.5
1391,E-3,372.0,1.0,36,68.5
1392,G4,372.0,4.0,46,68.5
1393,B-4,372.0,4.0,46,68.5
1394,E-4,372.5,19/20,37,68.5
1395,F3,373.0,1.0,42,68.5
1396,E-4,373.5,19/20,41,68.5
1397,E-3,374.0,2.0,36,68.5
1398,E-4,374.5,19/20,39,68.5
1399,C#3,375.0,1.0,33,68.5
1400,E-4,375.5,0.5,34,68.5
1401,E-5,376.0,2.0,66,68.5
1402,E-4,376.0,9/20,34,68.5
1403,C3,376.0,2.0,43,68.5
1404,E-3,376.0,1.0,36,68.5
1405,E-4,376.5,19/20,53,68.5
1406,G#3,377.0,2.0,43,68.5
1407,E-4,377.5,19/20,52,68.5
1408,C#5,378.0,2.0,63,68.5
1409,B-2,378.0,2.0,36,68.5
1410,E-4,378.5,19/20,51,68.5
1411,G3,379.0,1.0,43,68.5
1412,E-4,379.5,0.5,52,68.5
1413,C5,380.0,2.0,66,68.5
1414,E-4,380.0,9/20,52,68.5
1415,G#2,380.0,2.0,46,68.5
1416,G3,380.0,1.0,43,68.5
1417,E-4,380.5,19/20,49,68.5
1418,G#3,381.0,2.0,43,68.5
1419,E4,381.5,19/20,46,68.5
1420,B-4,382.0,1.0,58,68.5
1421,C#3,382.0,2.0,45,68.5
1422,F4,382.5,19/20,54,68.5
1423,C#5,383.0,0.75,64,68.5
1424,B-3,383.0,0.5,43,68.5
1425,F4,383.5,0.5,50,68.5
1426,C#4,383.5,0.5,41,68.5
1427,B-4,383.75,0.25,55,68.5
1428,G#4,384.0,2.0,66,68.5
1429,F4,384.0,0.5,50,68.5
1430,E-3,384.0,2.0,53,68.5
1431,E-4,384.5,19/20,47,68.5
1432,C4,385.0,2.0,53,68.5
1433,E-4,385.5,19/20,43,68.5
1434,A4,386.0,1.0,58,68.5
1435,E-3,386.0,2.0,36,68.5
1436,E-4,386.5,19/20,45,68.5
1437,B-4,387.0,1.0,59,68.5
1438,G3,387.0,1.0,53,68.5
1439,E-4,387.5,0.5,49,68.5
1440,B4,388.0,1.0,64,68.5
1441,E-4,388.0,9/20,49,68.5
1442,G3,388.0,1.0,53,68.5
1443,G#2,388.0,2.0,49,68.5
1444,E-3,388.0,2.0,49,68.5
1445,E-4,388.5,19/20,55,68.5
1446,G#3,389.0,1.0,53,68.5
1447,C4,389.0,1.0,62,68.5
1448,C5,389.0,1.0,62,68.5
1449,E-4,389.5,19/20,55,68.5
1450,C#4,390.0,1.0,64,68.5
1451,C#5,390.0,1.0,64,68.5
1452,B-2,390.0,1.0,49,68.5
1453,E-3,390.0,1.0,49,68.5
1454,B-3,390.0,1.0,49,68.5
1455,E-4,390.5,19/20,58,68.5
1456,D4,391.0,1.0,68,68.5
1457,D5,391.0,1.0,68,68.5
1458,B2,391.0,1.0,53,68.5
1459,E-3,391.0,1.0,53,68.5
1460,B3,391.0,1.0,53,68.5
1461,E-4,391.5,19/40,62,68.5
1462,E-4,392.0,19/20,30,68.5
1463,E-5,392.0,2.0,77,68.5
1464,C4,392.0,1.0,53,68.5
1465,C3,392.0,2.0,64,68.5
1466,E-3,392.0,2.0,64,68.5
1467,G#3,392.5,1.0,53,68.5
1468,E-4,393.0,19/20,58,68.5
1469,G#3,393.5,1.0,53,68.5
1470,C#5,394.0,2.0,69,68.5
1471,C#4,394.0,19/20,30,68.5
1472,E-4,394.0,19/20,30,68.5
1473,B-2,394.0,2.0,52,68.5
1474,E-3,394.0,2.0,52,68.5
1475,G3,394.5,1.0,53,68.5
1476,C#4,395.0,19/20,58,68.5
1477,E-4,395.0,19/20,58,68.5
1478,G3,395.5,0.5,53,68.5
1479,C5,396.0,2.0,65,68.5
1480,G#2,396.0,2.0,55,68.5
1481,G3,396.0,0.5,53,68.5
1482,C4,396.0,19/20,30,68.5
1483,E-4,396.0,19/20,30,68.5
1484,G#3,396.5,1.0,53,68.5
1485,C4,397.0,19/20,52,68.5
1486,E4,397.0,19/20,52,68.5
1487,G#3,397.5,1.5,53,68.5
1488,F4,398.0,1.5,30,68.5
1489,B-4,398.0,0.5,62,68.5
1490,C#3,398.0,2.0,48,68.5
1491,C5,398.5,0.5,64,68.5
1492,A3,398.5,0.5,53,68.5
1493,C#5,399.0,0.75,67,68.5
1494,B-3,399.0,0.5,53,68.5
1495,F4,399.5,0.5,49,68.5
1496,C#4,399.5,0.5,53,68.5
1497,B-4,399.75,0.25,69,68.5
1498,E-4,400.0,3.0,30,68.5
1499,G#4,400.0,1.0,70,68.5
1500,E-3,400.0,2.0,58,68.5
1501,C#4,400.0,1.0,53,68.5
1502,E-5,400.5,19/20,58,68.5
1503,A4,401.0,1.0,71,68.5
1504,C4,401.0,1.0,53,68.5
1505,E-5,401.5,19/20,58,68.5
1506,B-4,402.0,1.0,73,68.5
1507,C#4,402.0,1.0,53,68.5
1508,E-3,402.0,2.0,52,68.5
1509,E-5,402.5,19/20,43,68.5
1510,G4,403.0,1.0,51,68.5
1511,B-3,403.0,1.0,46,68.5
1512,C#4,403.0,1.0,46,68.5
1513,E-5,403.5,0.5,43,68.5
1514,G#4,404.0,1.0,57,68.5
1515,C4,404.0,19/40,30,68.5
1516,E-4,404.0,19/40,30,68.5
1517,G#2,404.0,1.0,40,68.5
1518,G#3,404.0,1.0,40,68.5
1519,E-4,404.5,19/20,30,68.5
1520,C3,405.0,1.0,36,68.5
1521,E-4,405.5,19/20,30,68.5
1522,E-3,406.0,1.0,36,68.5
1523,E-4,406.5,19/20,30,68.5
1524,G#3,407.0,1.0,36,68.5
1525,E-4,407.5,0.5,30,68.5
1526,E-4,408.0,9/20,30,68.5
1527,G3,408.0,1.0,40,68.5
1528,B-4,408.0,2.0,57,68.5
1529,C#5,408.0,2.0,57,68.5
1530,E-4,408.5,19/20,30,68.5
1531,F3,409.0,1.0,36,68.5
1532,E-4,409.5,19/20,30,68.5
1533,E-3,410.0,1.0,36,68.5
1534,B-4,410.0,2.0,57,68.5
1535,C#5,410.0,2.0,57,68.5
1536,E-4,410.5,19/20,30,68.5
1537,G3,411.0,1.0,39,68.5
1538,E-4,411.5,0.5,30,68.5
1539,E-4,412.0,9/20,30,68.5
1540,G#3,412.0,1.0,40,68.5
1541,G#4,412.0,1.0,61,68.5
1542,C5,412.0,1.0,61,68.5
1543,E-4,412.5,19/20,30,68.5
1544,E-3,413.0,1.0,36,68.5
1545,E-4,413.5,19/20,30,68.5
1546,C3,414.0,1.0,36,68.5
1547,E-4,414.5,19/20,30,68.5
1548,G#2,415.0,1.0,33,68.5
1549,E-4,415.5,0.5,30,68.5
1550,E-4,416.0,9/20,30,68.5
1551,G2,416.0,1.0,40,68.5
1552,C#4,416.0,2.0,57,68.5
1553,B-4,416.0,2.0,57,68.5
1554,E-4,416.5,19/20,30,68.5
1555,F2,417.0,1.0,37,68.5
1556,E-4,417.5,19/20,30,68.5
1557,E-2,418.0,1.0,40,68.5
1558,C#4,418.0,2.0,57,68.5
1559,B-4,418.0,2.0,57,68.5
1560,E-4,418.5,19/20,30,68.5
1561,G2,419.0,1.0,38,68.5
1562,E-4,419.5,0.5,30,68.5
1563,G#2,420.0,1.0,40,68.5
1564,C4,420.0,0.5,41,68.5
1565,G#4,420.0,0.5,41,68.5
1566,E-4,420.5,19/20,28,68.5
1567,E-3,420.5,19/20,28,68.5
1568,E-2,421.0,1.0,36,68.5
1569,E-4,421.5,19/20,28,68.5
1570,E-3,421.5,19/20,28,68.5
1571,C2,422.0,1.0,36,68.5
1572,E-4,422.5,19/20,28,68.5
1573,E-3,422.5,19/20,28,68.5
1574,G#3,423.0,1.0,46,68.5
1575,C4,423.0,1.0,46,68.5
1576,G#1,423.0,1.0,33,68.5
1577,G#2,423.0,1.0,33,68.5
1578,E-4,423.5,0.5,28,68.5
1579,E-3,423.5,0.5,28,68.5
1580,B-3,424.0,1.0,52,68.5
1581,C#4,424.0,1.0,52,68.5
1582,E-4,424.0,9/20,28,68.5
1583,E-3,424.0,9/20,28,68.5
1584,G1,424.0,1.0,37,68.5
1585,G2,424.0,1.0,37,68.5
1586,E-4,424.5,1.0,28,68.5
1587,E-3,424.5,1.0,28,68.5
1588,F1,425.0,1.0,33,68.5
1589,F2,425.0,1.0,33,68.5
1590,E-4,425.5,19/20,28,68.5
1591,E-3,425.5,19/20,28,68.5
1592,B-3,426.0,1.0,48,68.5
1593,C#4,426.0,1.0,48,68.5
1594,G1,426.0,1.0,33,68.5
1595,G2,426.0,1.0,33,68.5
1596,E-4,426.5,1.0,28,68.5
1597,E-3,426.5,1.0,28,68.5
1598,E-2,427.0,1.0,39,68.5
1599,E-4,427.5,0.5,28,68.5
1600,E-3,427.5,0.5,28,68.5
1601,G#1,428.0,1.0,40,68.5
1602,G#3,428.0,19/40,51,68.5
1603,C4,428.0,19/40,51,68.5
1604,E-4,428.0,9/20,28,68.5
1605,E-3,428.0,9/20,28,68.5
1606,E-4,428.5,19/20,26,68.5
1607,C4,428.5,19/20,26,68.5
1608,G#3,428.5,19/20,26,68.5
1609,E-3,428.5,19/20,26,68.5
1610,G#2,429.0,3.0,35,68.5
1611,E-4,429.5,19/20,25,68.5
1612,C4,429.5,19/20,25,68.5
1613,G#3,429.5,19/20,25,68.5
1614,E-3,429.5,19/20,25,68.5
1615,E-2,430.0,1.0,34,68.5
1616,E-4,430.5,19/20,25,68.5
1617,C4,430.5,19/20,25,68.5
1618,G#3,430.5,19/20,25,68.5
1619,E-3,430.5,19/20,25,68.5
1620,C2,431.0,1.0,31,68.5
1621,E-4,431.5,0.5,24,68.5
1622,G#3,431.5,0.5,24,68.5
1623,E-3,431.5,0.5,24,68.5
1624,C4,431.5,0.5,24,68.5
1625,G#1,432.0,1.0,31,68.5
1626,G#2,432.0,1.0,35,68.5
1627,E-4,432.0,9/20,24,68.5
1628,G#3,432.0,9/20,24,68.5
1629,E-3,432.0,9/20,24,68.5
1630,C4,432.0,9/20,24,68.5
1631,C4,432.5,19/20,24,68.5
1632,G#3,432.5,19/20,24,68.5
1633,E-3,432.5,19/20,24,68.5
1634,G#2,433.0,3.0,33,68.5
1635,C4,433.5,19/20,24,68.5
1636,G#3,433.5,19/20,24,68.5
1637,E-3,433.5,19/20,24,68.5
1638,E-2,434.0,1.0,35,68.5
1639,C4,434.5,19/20,23,68.5
1640,G#3,434.5,19/20,23,68.5
1641,E-3,434.5,19/20,23,68.5
1642,C2,435.0,1.0,33,68.5
1643,C4,435.5,0.5,23,68.5
1644,G#3,435.5,0.5,23,68.5
1645,E-3,435.5,0.5,23,68.5
1646,G#1,436.0,1.0,29,68.5
1647,G#2,436.0,1.0,33,68.5
1648,C4,436.0,9/20,23,68.5
1649,G#3,436.0,9/20,23,68.5
1650,E-3,436.0,9/20,23,68.5
1651,G#3,436.5,19/20,22,68.5
1652,E-3,436.5,19/20,22,68.5
1653,C3,436.5,19/20,22,68.5
1654,G#2,437.0,3.0,31,68.5
1655,G#3,437.5,19/20,21,68.5
1656,E-3,437.5,19/20,21,68.5
1657,C3,437.5,19/20,21,68.5
1658,E-2,438.0,1.0,32,68.5
1659,G#3,438.5,19/20,21,68.5
1660,E-3,438.5,19/20,21,68.5
1661,C3,438.5,19/20,21,68.5
1662,C2,439.0,1.0,30,68.5
1663,G#3,439.5,0.5,20,68.5
1664,E-3,439.5,0.5,20,68.5
1665,C3,439.5,0.5,20,68.5
1666,G#1,440.0,1.0,26,68.5
1667,G#2,440.0,1.0,31,68.5
1668,G#3,440.0,0.5,20,68.5
1669,E-3,440.0,0.5,20,68.5
1670,C3,440.0,0.5,20,68.5
1671,G#1,442.0,1.0,24,68.5
1672,C3,442.0,1.0,24,68.5
1673,E-3,442.0,1.0,24,68.5
1674,G#1,444.0,4.0,25,68.5
1675,G#2,444.0,4.0,21,68.5
1676,C3,444.0,4.0,21,68.5
