,note_name,start_time,duration,velocity,tempo
0,C4,1.5,0.5,40,203.5
1,C3,1.5,0.5,36,203.5
2,B3,2.0,0.5,45,203.5
3,B2,2.0,0.5,38,203.5
4,C4,2.5,0.5,40,203.5
5,C3,2.5,0.5,35,203.5
6,F4,3.0,0.25,45,203.5
7,F3,3.0,0.25,38,203.5
8,F4,3.5,0.25,38,203.5
9,F3,3.5,0.25,34,203.5
10,E-4,4.0,1.0,45,203.5
11,E-3,4.0,1.0,38,203.5
12,C4,5.5,0.5,40,203.5
13,C3,5.5,0.5,36,203.5
14,B3,6.0,0.5,45,203.5
15,B2,6.0,0.5,38,203.5
16,C4,6.5,0.5,40,203.5
17,C3,6.5,0.5,35,203.5
18,G#4,7.0,0.25,45,203.5
19,G#3,7.0,0.25,38,203.5
20,G#4,7.5,0.25,38,203.5
21,G#3,7.5,0.25,34,203.5
22,G4,8.0,1.0,45,203.5
23,G3,8.0,1.0,38,203.5
24,C4,9.5,0.5,40,203.5
25,B3,10.0,0.5,45,203.5
26,C4,10.5,0.5,40,203.5
27,C5,11.0,0.25,45,203.5
28,C5,11.5,0.25,38,203.5
29,C5,12.0,0.5,45,203.5
30,G#3,12.0,4.0,38,203.5
31,C4,12.0,4.0,38,203.5
32,F#4,12.0,4.0,38,203.5
33,D5,12.5,0.125,45,203.5
34,C5,12.625,0.125,45,203.5
35,B4,12.75,0.125,40,203.5
36,C5,12.875,0.125,45,203.5
37,E-5,13.0,0.5,50,203.5
38,D5,13.5,0.5,45,203.5
39,F5,14.0,0.5,56,203.5
40,E-5,14.5,0.5,53,203.5
41,D5,15.0,0.5,50,203.5
42,C5,15.5,0.5,47,203.5
43,B4,16.0,1.0,51,203.5
44,G4,16.0,1.0,34,203.5
45,D4,16.0,1.0,34,203.5
46,G3,16.0,1.0,34,203.5
47,G3,17.5,0.5,40,203.5
48,G2,17.5,0.5,36,203.5
49,F#3,18.0,0.5,45,203.5
50,F#2,18.0,0.5,38,203.5
51,G3,18.5,0.5,40,203.5
52,G2,18.5,0.5,35,203.5
53,C4,19.0,0.25,45,203.5
54,C3,19.0,0.25,38,203.5
55,C4,19.5,0.25,38,203.5
56,C3,19.5,0.25,34,203.5
57,B3,20.0,1.0,45,203.5
58,B2,20.0,1.0,38,203.5
59,G3,21.5,0.5,40,203.5
60,G2,21.5,0.5,36,203.5
61,F#3,22.0,0.5,45,203.5
62,F#2,22.0,0.5,38,203.5
63,G3,22.5,0.5,40,203.5
64,G2,22.5,0.5,35,203.5
65,E-4,23.0,0.25,45,203.5
66,E-3,23.0,0.25,38,203.5
67,E-4,23.5,0.25,38,203.5
68,E-3,23.5,0.25,34,203.5
69,D4,24.0,1.0,45,203.5
70,D3,24.0,1.0,38,203.5
71,G3,25.5,0.25,45,203.5
72,G2,25.5,0.25,37,203.5
73,B3,26.0,0.25,51,203.5
74,B2,26.0,0.25,43,203.5
75,D4,26.5,0.25,45,203.5
76,D3,26.5,0.25,37,203.5
77,F4,27.0,0.25,45,203.5
78,F3,27.0,0.25,37,203.5
79,G#4,27.5,0.25,45,203.5
80,G#3,27.5,0.25,37,203.5
81,B4,28.0,0.25,55,203.5
82,B3,28.0,0.25,46,203.5
83,D5,28.5,0.25,53,203.5
84,D4,28.5,0.25,45,203.5
85,F5,29.0,0.25,56,203.5
86,F4,29.0,0.25,47,203.5
87,G#5,29.5,0.25,60,203.5
88,G#4,29.5,0.25,50,203.5
89,G5,30.0,0.25,63,203.5
90,G4,30.0,0.25,53,203.5
91,F5,30.5,0.25,59,203.5
92,F4,30.5,0.25,50,203.5
93,E-5,31.0,0.25,55,203.5
94,E-4,31.0,0.25,46,203.5
95,D5,31.5,0.25,54,203.5
96,D4,31.5,0.25,45,203.5
97,C5,32.0,1.0,62,203.5
98,C4,32.0,0.25,42,203.5
99,E-4,32.5,0.25,35,203.5
100,G4,32.5,0.25,35,203.5
101,E-4,33.0,0.25,35,203.5
102,G4,33.0,0.25,35,203.5
103,C5,33.5,0.5,50,203.5
104,E-4,33.5,0.25,35,203.5
105,G4,33.5,0.25,35,203.5
106,B4,34.0,0.5,57,203.5
107,C4,34.0,0.25,42,203.5
108,C5,34.5,0.5,53,203.5
109,E4,34.5,0.25,33,203.5
110,G4,34.5,0.25,33,203.5
111,B-4,34.5,0.25,33,203.5
112,C6,35.0,0.25,60,203.5
113,E4,35.0,0.25,33,203.5
114,G4,35.0,0.25,33,203.5
115,B-4,35.0,0.25,33,203.5
116,C6,35.5,0.25,52,203.5
117,E4,35.5,0.25,33,203.5
118,G4,35.5,0.25,33,203.5
119,B-4,35.5,0.25,33,203.5
120,C6,36.0,1.0,60,203.5
121,C4,36.0,0.25,42,203.5
122,F4,36.5,0.25,35,203.5
123,G#4,36.5,0.25,35,203.5
124,F4,37.0,0.25,35,203.5
125,G#4,37.0,0.25,35,203.5
126,F6,37.5,0.5,59,203.5
127,F4,37.5,0.25,35,203.5
128,G#4,37.5,0.25,35,203.5
129,E-6,38.0,0.5,65,203.5
130,C4,38.0,0.25,42,203.5
131,D6,38.5,0.5,60,203.5
132,F4,38.5,0.25,33,203.5
133,G#4,38.5,0.25,33,203.5
134,B4,38.5,0.25,33,203.5
135,C6,39.0,0.5,66,203.5
136,F4,39.0,0.25,33,203.5
137,G#4,39.0,0.25,33,203.5
138,B4,39.0,0.25,33,203.5
139,B5,39.5,0.5,60,203.5
140,F4,39.5,0.25,33,203.5
141,G#4,39.5,0.25,33,203.5
142,B4,39.5,0.25,33,203.5
143,D6,40.0,0.5,69,203.5
144,C4,40.0,0.25,42,203.5
145,C6,40.5,0.5,60,203.5
146,E-4,40.5,0.25,35,203.5
147,G4,40.5,0.25,35,203.5
148,E-4,41.0,0.25,35,203.5
149,G4,41.0,0.25,35,203.5
150,C5,41.5,0.5,50,203.5
151,E-4,41.5,0.25,35,203.5
152,G4,41.5,0.25,35,203.5
153,B4,42.0,0.5,57,203.5
154,C4,42.0,0.25,42,203.5
155,C5,42.5,0.5,53,203.5
156,E4,42.5,0.25,33,203.5
157,G4,42.5,0.25,33,203.5
158,B-4,42.5,0.25,33,203.5
159,C6,43.0,0.25,60,203.5
160,E4,43.0,0.25,33,203.5
161,G4,43.0,0.25,33,203.5
162,B-4,43.0,0.25,33,203.5
163,C6,43.5,0.25,52,203.5
164,E4,43.5,0.25,33,203.5
165,G4,43.5,0.25,33,203.5
166,B-4,43.5,0.25,33,203.5
167,C6,44.0,1.0,60,203.5
168,C4,44.0,0.25,42,203.5
169,F4,44.5,0.25,35,203.5
170,G#4,44.5,0.25,35,203.5
171,D6,45.0,0.125,60,203.5
172,F4,45.0,0.25,35,203.5
173,G#4,45.0,0.25,35,203.5
174,C6,45.125,0.125,60,203.5
175,B5,45.25,0.125,60,203.5
176,C6,45.375,0.125,60,203.5
177,F6,45.5,0.5,59,203.5
178,F4,45.5,0.25,35,203.5
179,G#4,45.5,0.25,35,203.5
180,E-6,46.0,0.5,65,203.5
181,C4,46.0,0.25,42,203.5
182,D6,46.5,0.5,60,203.5
183,F4,46.5,0.25,33,203.5
184,G#4,46.5,0.25,33,203.5
185,B4,46.5,0.25,33,203.5
186,C6,47.0,0.5,66,203.5
187,F4,47.0,0.25,33,203.5
188,G#4,47.0,0.25,33,203.5
189,B4,47.0,0.25,33,203.5
190,B5,47.5,0.5,60,203.5
191,F4,47.5,0.25,33,203.5
192,G#4,47.5,0.25,33,203.5
193,B4,47.5,0.25,33,203.5
194,C6,48.0,0.25,69,203.5
195,C4,48.0,1.0,38,203.5
196,E-4,48.0,1.0,38,203.5
197,G4,48.0,1.0,38,203.5
198,C5,48.0,1.0,38,203.5
199,D6,48.25,0.25,63,203.5
200,C6,48.5,0.25,63,203.5
201,B5,48.75,0.25,63,203.5
202,C6,49.0,0.25,69,203.5
203,E-6,49.25,0.25,73,203.5
204,D6,49.5,0.25,72,203.5
205,F#4,49.5,0.5,42,203.5
206,C6,49.75,0.25,71,203.5
207,B5,50.0,0.25,72,203.5
208,G4,50.0,1.0,52,203.5
209,C6,50.25,0.25,65,203.5
210,B5,50.5,0.25,65,203.5
211,G#5,50.75,0.25,65,203.5
212,G5,51.0,0.25,69,203.5
213,F5,51.25,0.25,63,203.5
214,E-5,51.5,0.25,63,203.5
215,B3,51.5,0.5,48,203.5
216,D5,51.75,0.25,63,203.5
217,C5,52.0,0.25,69,203.5
218,C4,52.0,1.0,57,203.5
219,D5,52.25,0.25,63,203.5
220,C5,52.5,0.25,63,203.5
221,B4,52.75,0.25,61,203.5
222,C5,53.0,0.25,66,203.5
223,E-5,53.25,0.25,72,203.5
224,D5,53.5,0.25,70,203.5
225,F#3,53.5,0.5,54,203.5
226,C5,53.75,0.25,67,203.5
227,B4,54.0,0.25,69,203.5
228,G3,54.0,1.0,63,203.5
229,C5,54.25,0.25,63,203.5
230,B4,54.5,0.25,63,203.5
231,G#4,54.75,0.25,63,203.5
232,G4,55.0,0.25,69,203.5
233,F4,55.25,0.25,63,203.5
234,E-4,55.5,0.25,63,203.5
235,B2,55.5,0.5,57,203.5
236,D4,55.75,0.25,63,203.5
237,C4,56.0,0.25,77,203.5
238,C3,56.0,1.0,66,203.5
239,D4,56.25,0.25,69,203.5
240,C4,56.5,0.25,69,203.5
241,B3,56.75,0.25,69,203.5
242,C4,57.0,0.25,77,203.5
243,E-4,57.25,0.25,69,203.5
244,D4,57.5,0.25,69,203.5
245,F#2,57.5,0.5,58,203.5
246,C4,57.75,0.25,69,203.5
247,B3,58.0,0.25,77,203.5
248,G2,58.0,1.0,67,203.5
249,G4,58.25,0.25,69,203.5
250,D4,58.5,0.25,69,203.5
251,B3,58.75,0.25,69,203.5
252,G3,59.0,0.25,79,203.5
253,C2,59.0,0.5,89,203.5
254,C3,59.0,0.5,89,203.5
255,G4,59.25,0.25,69,203.5
256,E-4,59.5,0.25,69,203.5
257,C4,59.75,0.25,69,203.5
258,G3,60.0,0.25,81,203.5
259,G1,60.0,0.5,60,203.5
260,G2,60.0,0.5,60,203.5
261,G4,60.25,0.25,69,203.5
262,D4,60.5,0.25,69,203.5
263,B3,60.75,0.25,69,203.5
264,G3,61.0,0.25,80,203.5
265,C2,61.0,0.5,90,203.5
266,C3,61.0,0.5,90,203.5
267,G4,61.25,0.25,69,203.5
268,E-4,61.5,0.25,69,203.5
269,C4,61.75,0.25,69,203.5
270,G3,62.0,0.25,80,203.5
271,G1,62.0,0.5,62,203.5
272,G2,62.0,0.5,62,203.5
273,G4,62.25,0.25,69,203.5
274,D4,62.5,0.25,69,203.5
275,B3,62.75,0.25,69,203.5
276,G3,63.0,0.25,80,203.5
277,C2,63.0,0.5,90,203.5
278,C3,63.0,0.5,90,203.5
279,G4,63.25,0.25,69,203.5
280,E-4,63.5,0.25,69,203.5
281,C4,63.75,0.25,69,203.5
282,G3,64.0,2.0,78,203.5
283,B3,64.0,2.0,78,203.5
284,D4,64.0,2.0,78,203.5
285,G4,64.0,2.0,78,203.5
286,G1,64.0,2.0,69,203.5
287,B1,64.0,2.0,69,203.5
288,D2,64.0,2.0,69,203.5
289,G2,64.0,2.0,69,203.5
290,B-3,66.5,0.25,40,203.5
291,C4,67.0,0.25,37,203.5
292,D4,67.5,0.25,37,203.5
293,E-4,68.0,0.25,46,203.5
294,G3,68.0,2.0,39,203.5
295,B-3,68.0,2.0,39,203.5
296,E-2,68.0,2.0,28,203.5
297,E-3,68.0,2.0,28,203.5
298,F4,68.5,0.25,40,203.5
299,G4,69.0,0.25,40,203.5
300,B-3,70.0,0.25,40,203.5
301,D4,70.0,0.25,40,203.5
302,F4,70.0,0.25,40,203.5
303,G#2,70.0,0.25,28,203.5
304,G#3,70.0,0.25,28,203.5
305,B-3,71.0,0.25,36,203.5
306,E-4,71.0,0.25,36,203.5
307,G2,71.0,0.25,25,203.5
308,G3,71.0,0.25,25,203.5
309,G#3,72.0,2.0,39,203.5
310,B-3,72.0,2.0,39,203.5
311,D4,72.0,2.0,39,203.5
312,G#4,72.0,2.0,39,203.5
313,B-2,72.0,2.0,29,203.5
314,F2,72.0,2.0,29,203.5
315,F3,72.0,2.0,29,203.5
316,B-3,74.5,0.25,40,203.5
317,C4,75.0,0.25,37,203.5
318,D4,75.5,0.25,37,203.5
319,E-4,76.0,0.25,46,203.5
320,G3,76.0,2.0,39,203.5
321,B-3,76.0,2.0,39,203.5
322,E-2,76.0,2.0,28,203.5
323,E-3,76.0,2.0,28,203.5
324,F4,76.5,0.25,40,203.5
325,G4,77.0,0.25,40,203.5
326,F3,78.0,0.25,40,203.5
327,C4,78.0,0.25,40,203.5
328,F4,78.0,0.25,40,203.5
329,G#1,78.0,0.25,28,203.5
330,G#2,78.0,0.25,28,203.5
331,C4,79.0,0.25,35,203.5
332,F3,79.0,0.25,35,203.5
333,E-4,79.0,0.25,35,203.5
334,A1,79.0,0.25,25,203.5
335,A2,79.0,0.25,25,203.5
336,D3,80.0,2.0,33,203.5
337,F3,80.0,2.0,33,203.5
338,B-3,80.0,2.0,33,203.5
339,B-1,80.0,2.0,24,203.5
340,B-2,80.0,2.0,24,203.5
341,B-3,82.5,0.25,40,203.5
342,C4,83.0,0.25,37,203.5
343,D4,83.5,0.25,37,203.5
344,E-4,84.0,0.25,46,203.5
345,G3,84.0,2.0,39,203.5
346,B-3,84.0,2.0,39,203.5
347,E-2,84.0,2.0,28,203.5
348,E-3,84.0,2.0,28,203.5
349,F4,84.5,0.25,40,203.5
350,G4,85.0,0.25,40,203.5
351,B-3,86.0,0.25,40,203.5
352,D4,86.0,0.25,40,203.5
353,F4,86.0,0.25,40,203.5
354,G#2,86.0,0.25,28,203.5
355,G#3,86.0,0.25,28,203.5
356,B-3,87.0,0.25,36,203.5
357,E-4,87.0,0.25,36,203.5
358,G2,87.0,0.25,25,203.5
359,G3,87.0,0.25,25,203.5
360,G#2,87.781,0.219,30,203.5
361,C3,87.781,0.219,30,203.5
362,E-3,87.844,0.156,38,203.5
363,G#3,87.844,0.156,38,203.5
364,C4,87.906,0.094,48,203.5
365,E-4,87.906,0.094,48,203.5
366,G#4,87.969,0.031,63,203.5
367,C5,88.0,2.5,72,203.5
368,G#4,88.0,2.0,63,203.5
369,C4,88.0,1.969,48,203.5
370,E-4,88.0,1.969,48,203.5
371,G#2,88.0,0.969,30,203.5
372,C3,88.0,0.969,30,203.5
373,E-3,88.0,0.969,38,203.5
374,G#3,88.0,0.969,38,203.5
375,C5,90.5,0.25,48,203.5
376,B-4,91.0,0.25,53,203.5
377,G#4,91.5,0.25,50,203.5
378,G4,92.0,0.5,53,203.5
379,B-2,92.0,4.0,80,203.5
380,F4,92.5,0.5,48,203.5
381,E-4,93.0,0.25,48,203.5
382,D4,93.5,0.25,48,203.5
383,C4,94.0,1.0,53,203.5
384,F3,94.0,2.0,45,203.5
385,G#3,94.0,2.0,45,203.5
386,B-1,94.5,0.25,49,203.5
387,B-3,95.0,1.0,49,203.5
388,C2,95.0,0.25,53,203.5
389,D2,95.5,0.25,45,203.5
390,E-2,96.0,0.25,53,203.5
391,B-2,96.0,4.0,80,203.5
392,E-3,96.0,2.0,44,203.5
393,G3,96.0,2.0,44,203.5
394,B-3,96.0,2.0,44,203.5
395,F2,96.5,0.25,49,203.5
396,G2,97.0,0.25,51,203.5
397,F2,98.0,1.0,53,203.5
398,B-4,98.5,0.25,48,203.5
399,G#4,99.0,0.25,53,203.5
400,E-2,99.0,1.0,50,203.5
401,G4,99.5,0.25,50,203.5
402,G4,100.0,0.5,53,203.5
403,B-2,100.0,4.0,80,203.5
404,F4,100.5,0.5,48,203.5
405,E-4,101.0,0.25,48,203.5
406,D4,101.5,0.25,48,203.5
407,C4,102.0,1.0,53,203.5
408,F3,102.0,2.0,45,203.5
409,G#3,102.0,2.0,45,203.5
410,B-1,102.5,0.25,49,203.5
411,B-3,103.0,1.0,49,203.5
412,C2,103.0,0.25,53,203.5
413,D2,103.5,0.25,45,203.5
414,E-2,104.0,0.25,53,203.5
415,B-2,104.0,4.0,80,203.5
416,E-3,104.0,2.0,54,203.5
417,G3,104.0,2.0,54,203.5
418,B-3,104.0,2.0,54,203.5
419,F2,104.5,0.25,49,203.5
420,G2,105.0,0.25,51,203.5
421,F2,106.0,1.0,53,203.5
422,B-5,106.5,0.25,48,203.5
423,B-4,106.5,0.25,48,203.5
424,E-2,107.0,1.0,50,203.5
425,G#5,107.0,0.25,53,203.5
426,G#4,107.0,0.25,53,203.5
427,G5,107.5,0.25,50,203.5
428,G4,107.5,0.25,50,203.5
429,G5,108.0,0.5,55,203.5
430,G4,108.0,0.5,55,203.5
431,G#2,108.0,1.0,48,203.5
432,C3,108.0,1.0,48,203.5
433,F3,108.0,1.0,48,203.5
434,F5,108.5,0.5,48,203.5
435,F4,108.5,0.5,48,203.5
436,E-5,109.0,0.25,48,203.5
437,E-4,109.0,0.25,48,203.5
438,D5,109.5,0.25,48,203.5
439,D4,109.5,0.25,48,203.5
440,C4,110.0,0.25,55,203.5
441,C5,110.0,0.25,55,203.5
442,B-2,110.0,1.0,45,203.5
443,F3,110.0,1.0,45,203.5
444,G#3,110.0,1.0,45,203.5
445,B-3,110.5,0.25,48,203.5
446,B-4,110.5,0.25,48,203.5
447,C4,111.0,0.25,48,203.5
448,C5,111.0,0.25,48,203.5
449,D4,111.5,0.25,48,203.5
450,D5,111.5,0.25,48,203.5
451,E-4,112.0,0.25,48,203.5
452,G3,112.0,1.0,54,203.5
453,E-3,112.0,1.0,54,203.5
454,E-5,112.25,0.25,43,203.5
455,E-4,112.5,0.25,48,203.5
456,E-5,112.75,0.25,42,203.5
457,E-4,113.0,0.25,49,203.5
458,E-5,113.25,0.25,43,203.5
459,E-4,113.5,0.25,50,203.5
460,E-3,113.5,0.5,54,203.5
461,E-5,113.75,0.25,45,203.5
462,E-4,114.0,0.25,51,203.5
463,D3,114.0,0.5,60,203.5
464,E-5,114.25,0.25,44,203.5
465,E-4,114.5,0.25,52,203.5
466,E-3,114.5,0.5,55,203.5
467,E-5,114.75,0.25,47,203.5
468,E-4,115.0,0.25,53,203.5
469,C3,115.0,0.25,57,203.5
470,G#3,115.0,0.25,57,203.5
471,E-5,115.25,0.25,47,203.5
472,E-4,115.5,0.25,53,203.5
473,C3,115.5,0.25,52,203.5
474,G#3,115.5,0.25,52,203.5
475,E-5,115.75,0.25,47,203.5
476,E-4,116.0,0.25,54,203.5
477,G3,116.0,1.0,60,203.5
478,B-2,116.0,1.0,60,203.5
479,E-5,116.25,0.25,48,203.5
480,E-4,116.5,0.25,55,203.5
481,E-5,116.75,0.25,48,203.5
482,E-4,117.0,0.25,55,203.5
483,E-5,117.25,0.25,48,203.5
484,E-4,117.5,0.25,56,203.5
485,E-3,117.5,0.5,61,203.5
486,E-5,117.75,0.25,51,203.5
487,E-4,118.0,0.25,57,203.5
488,D3,118.0,0.5,68,203.5
489,E-5,118.25,0.25,49,203.5
490,E-4,118.5,0.25,58,203.5
491,E-3,118.5,0.5,63,203.5
492,E-5,118.75,0.25,53,203.5
493,E-4,119.0,0.25,59,203.5
494,G#3,119.0,0.25,64,203.5
495,C4,119.0,0.25,64,203.5
496,E-5,119.25,0.25,54,203.5
497,E-4,119.5,0.25,60,203.5
498,G#3,119.5,0.25,59,203.5
499,C4,119.5,0.25,59,203.5
500,E-5,119.75,0.25,54,203.5
501,E-4,120.0,1.0,70,203.5
502,E-5,120.0,1.0,70,203.5
503,B-3,120.0,0.5,71,203.5
504,G3,120.0,0.5,71,203.5
505,E-3,120.5,0.25,62,203.5
506,E-4,120.75,0.25,54,203.5
507,E-3,121.0,0.25,63,203.5
508,E-4,121.25,0.25,56,203.5
509,E-5,121.5,0.5,74,203.5
510,E-3,121.5,0.25,63,203.5
511,E-4,121.75,0.25,57,203.5
512,D5,122.0,0.5,84,203.5
513,E-3,122.0,0.25,63,203.5
514,E-4,122.25,0.25,55,203.5
515,E-5,122.5,0.5,77,203.5
516,E-3,122.5,0.25,64,203.5
517,E-4,122.75,0.25,59,203.5
518,E-3,123.0,0.25,65,203.5
519,C6,123.0,0.25,86,203.5
520,G#5,123.0,0.25,86,203.5
521,E-4,123.25,0.25,58,203.5
522,E-3,123.5,0.25,66,203.5
523,G#5,123.5,0.25,79,203.5
524,C6,123.5,0.25,79,203.5
525,E-4,123.75,0.25,61,203.5
526,G#5,124.0,1.0,92,203.5
527,C6,124.0,1.25,92,203.5
528,D3,124.0,4.0,52,203.5
529,F3,124.0,4.0,52,203.5
530,G#3,124.0,4.0,52,203.5
531,B-3,124.0,4.0,52,203.5
532,D4,124.0,4.0,52,203.5
533,B-5,125.25,0.25,74,203.5
534,G#5,125.5,0.25,73,203.5
535,G5,125.75,0.25,72,203.5
536,F5,126.0,0.25,72,203.5
537,E-5,126.25,0.25,72,203.5
538,D5,126.5,0.25,71,203.5
539,C5,126.75,0.25,70,203.5
540,B4,127.0,0.25,69,203.5
541,B-4,127.25,0.25,68,203.5
542,A4,127.5,0.25,67,203.5
543,G#4,127.75,0.25,66,203.5
544,G4,128.0,333/1000,66,203.5
545,E-3,128.0,1.0,53,203.5
546,G3,128.0,1.0,53,203.5
547,B-3,128.0,1.0,53,203.5
548,E-4,128.0,1.0,53,203.5
549,G#4,128.333,333/1000,62,203.5
550,B-4,128.667,333/1000,62,203.5
551,G#4,129.0,333/1000,66,203.5
552,G4,129.333,333/1000,62,203.5
553,F4,129.667,333/1000,62,203.5
554,E-4,130.0,333/1000,66,203.5
555,D4,130.333,333/1000,62,203.5
556,C4,130.667,333/1000,62,203.5
557,B-3,131.0,333/1000,66,203.5
558,G#3,131.333,333/1000,60,203.5
559,G3,131.667,333/1000,63,203.5
560,G#1,132.0,0.5,73,203.5
561,G#2,132.0,0.5,73,203.5
562,F3,132.25,0.25,59,203.5
563,G#3,132.5,0.25,63,203.5
564,C4,132.75,0.25,67,203.5
565,F4,133.0,0.5,72,203.5
566,G#1,133.5,0.25,63,203.5
567,G#2,133.5,0.25,63,203.5
568,B-1,134.0,0.5,70,203.5
569,B-2,134.0,0.5,70,203.5
570,F3,134.25,0.25,63,203.5
571,G#3,134.5,0.25,66,203.5
572,B-3,134.75,0.25,69,203.5
573,D4,135.0,0.5,72,203.5
574,B-1,135.5,0.25,63,203.5
575,B-2,135.5,0.25,63,203.5
576,D5,136.0,0.25,67,203.5
577,D6,136.25,0.25,60,203.5
578,D5,136.5,0.25,67,203.5
579,G#4,136.5,0.25,63,203.5
580,D6,136.75,0.25,60,203.5
581,B-4,136.75,0.25,65,203.5
582,D5,137.0,0.25,67,203.5
583,C5,137.0,0.25,69,203.5
584,D6,137.25,0.25,59,203.5
585,B-4,137.25,0.25,67,203.5
586,D5,137.5,0.25,67,203.5
587,G#4,137.5,0.25,65,203.5
588,D6,137.75,0.25,61,203.5
589,G4,137.75,0.25,64,203.5
590,D5,138.0,0.25,67,203.5
591,F4,138.0,333/1000,67,203.5
592,D6,138.25,0.25,59,203.5
593,E-4,138.333,333/1000,61,203.5
594,D5,138.5,0.25,67,203.5
595,D4,138.667,333/1000,61,203.5
596,D6,138.75,0.25,59,203.5
597,D5,139.0,0.25,67,203.5
598,C4,139.0,333/1000,67,203.5
599,D6,139.25,0.25,59,203.5
600,B-3,139.333,333/1000,62,203.5
601,D5,139.5,0.25,67,203.5
602,G#3,139.667,333/1000,62,203.5
603,D6,139.75,0.25,60,203.5
604,E-5,140.0,0.25,67,203.5
605,G3,140.0,333/1000,67,203.5
606,E-6,140.25,0.25,60,203.5
607,G#3,140.333,333/1000,63,203.5
608,E-5,140.5,0.25,69,203.5
609,B-3,140.667,333/1000,63,203.5
610,E-6,140.75,0.25,62,203.5
611,E-5,141.0,0.25,71,203.5
612,G#3,141.0,333/1000,67,203.5
613,E-6,141.25,0.25,63,203.5
614,G3,141.333,333/1000,60,203.5
615,E-5,141.5,0.25,72,203.5
616,F3,141.667,333/1000,60,203.5
617,E-6,141.75,0.25,67,203.5
618,E-5,142.0,0.25,75,203.5
619,E-3,142.0,333/1000,70,203.5
620,E-6,142.25,0.25,67,203.5
621,D3,142.333,333/1000,63,203.5
622,E-5,142.5,0.25,77,203.5
623,C3,142.667,333/1000,66,203.5
624,E-6,142.75,0.25,69,203.5
625,E5,143.0,0.25,80,203.5
626,B-2,143.0,333/1000,74,203.5
627,E6,143.25,0.25,71,203.5
628,G#2,143.333,333/1000,67,203.5
629,E5,143.5,0.25,81,203.5
630,G2,143.667,333/1000,67,203.5
631,E6,143.75,0.25,73,203.5
632,G#1,144.0,0.5,73,203.5
633,G#2,144.0,0.5,73,203.5
634,F5,144.25,0.25,71,203.5
635,G#5,144.5,0.25,76,203.5
636,C6,144.75,0.25,81,203.5
637,F6,145.0,0.5,86,203.5
638,G#1,145.5,0.25,63,203.5
639,G#2,145.5,0.25,63,203.5
640,B-1,146.0,0.5,70,203.5
641,B-2,146.0,0.5,70,203.5
642,D5,146.25,0.25,75,203.5
643,F5,146.5,0.25,79,203.5
644,G#5,146.75,0.25,82,203.5
645,D6,147.0,0.5,86,203.5
646,B-1,147.5,0.25,63,203.5
647,B-2,147.5,0.25,63,203.5
648,E-5,148.0,1.0,84,203.5
649,B-5,148.0,1.0,84,203.5
650,G5,148.0,1.0,84,203.5
651,E-6,148.0,1.0,84,203.5
652,E-2,148.0,1.0,62,203.5
653,G2,148.0,1.0,62,203.5
654,B-2,148.0,1.0,62,203.5
655,E-3,148.0,1.0,62,203.5
656,B-5,149.0,0.25,63,203.5
657,E4,149.0,0.25,58,203.5
658,G4,149.0,0.25,58,203.5
659,B-5,149.5,0.25,63,203.5
660,E4,149.5,0.25,58,203.5
661,G4,149.5,0.25,58,203.5
662,B-5,150.0,0.5,70,203.5
663,F4,150.0,0.5,64,203.5
664,G#4,150.0,0.5,64,203.5
665,B-5,151.0,0.25,63,203.5
666,E4,151.0,0.25,58,203.5
667,G4,151.0,0.25,58,203.5
668,B-5,151.5,0.25,63,203.5
669,E4,151.5,0.25,58,203.5
670,G4,151.5,0.25,58,203.5
671,B-5,152.0,0.5,69,203.5
672,F4,152.0,0.5,64,203.5
673,G#4,152.0,0.5,64,203.5
674,F3,153.0,0.5,64,203.5
675,G#3,153.0,0.5,64,203.5
676,D4,153.0,0.5,64,203.5
677,B-1,153.0,0.5,68,203.5
678,B-2,153.0,0.5,68,203.5
679,F3,155.0,0.25,35,203.5
680,G#3,155.0,0.25,35,203.5
681,D4,155.0,0.25,35,203.5
682,B1,155.0,0.25,33,203.5
683,B2,155.0,0.25,33,203.5
684,G3,156.0,0.25,41,203.5
685,E-4,156.0,0.25,41,203.5
686,C2,156.0,0.25,35,203.5
687,C3,156.0,0.25,35,203.5
688,C4,157.0,0.25,37,203.5
689,E-4,157.0,0.25,37,203.5
690,F4,157.0,0.25,37,203.5
691,A1,157.0,0.25,33,203.5
692,A2,157.0,0.25,33,203.5
693,B-3,158.0,0.25,40,203.5
694,E-4,158.0,0.25,40,203.5
695,G4,158.0,0.25,40,203.5
696,B-1,158.0,0.25,35,203.5
697,B-2,158.0,0.25,35,203.5
698,G#3,159.0,0.25,35,203.5
699,D4,159.0,0.25,35,203.5
700,F4,159.0,0.25,35,203.5
701,B-1,159.0,0.25,30,203.5
702,B-2,159.0,0.25,30,203.5
703,G3,160.0,0.25,41,203.5
704,E-4,160.0,0.25,41,203.5
705,E-2,160.0,0.25,35,203.5
706,E-3,160.0,0.25,35,203.5
707,B-5,161.0,0.25,63,203.5
708,E4,161.0,0.25,58,203.5
709,G4,161.0,0.25,58,203.5
710,C6,161.25,0.25,59,203.5
711,B-5,161.5,0.25,63,203.5
712,E4,161.5,0.25,58,203.5
713,G4,161.5,0.25,58,203.5
714,A5,161.75,0.25,59,203.5
715,B-5,162.0,0.5,70,203.5
716,F4,162.0,0.5,64,203.5
717,G#4,162.0,0.5,64,203.5
718,B-5,163.0,0.25,63,203.5
719,E4,163.0,0.25,58,203.5
720,G4,163.0,0.25,58,203.5
721,C6,163.25,0.25,58,203.5
722,B-5,163.5,0.25,63,203.5
723,E4,163.5,0.25,58,203.5
724,G4,163.5,0.25,58,203.5
725,A5,163.75,0.25,57,203.5
726,B-5,164.0,0.5,69,203.5
727,F4,164.0,0.5,64,203.5
728,G#4,164.0,0.5,64,203.5
729,F3,165.0,0.5,64,203.5
730,G#3,165.0,0.5,64,203.5
731,D4,165.0,0.5,64,203.5
732,B-1,165.0,0.5,68,203.5
733,B-2,165.0,0.5,68,203.5
734,E-3,167.0,1.0,58,203.5
735,F#3,167.0,1.0,58,203.5
736,A3,167.0,1.0,58,203.5
737,E-4,167.0,1.0,58,203.5
738,B1,167.0,1.0,58,203.5
739,E-2,167.0,1.0,58,203.5
740,F#2,167.0,1.0,58,203.5
741,B2,167.0,1.0,58,203.5
742,E-3,168.0,1.0,58,203.5
743,F#3,168.0,1.0,58,203.5
744,A3,168.0,1.0,58,203.5
745,E-4,168.0,1.0,58,203.5
746,B1,168.0,1.0,58,203.5
747,E-2,168.0,1.0,58,203.5
748,F#2,168.0,1.0,58,203.5
749,B2,168.0,1.0,58,203.5
750,C4,169.0,0.25,37,203.5
751,E-4,169.0,0.25,37,203.5
752,F4,169.0,0.25,37,203.5
753,A1,169.0,0.25,33,203.5
754,A2,169.0,0.25,33,203.5
755,B-3,170.0,0.25,40,203.5
756,E-4,170.0,0.25,40,203.5
757,G4,170.0,0.25,40,203.5
758,B-1,170.0,0.25,35,203.5
759,B-2,170.0,0.25,35,203.5
760,G#3,171.0,0.25,35,203.5
761,D4,171.0,0.25,35,203.5
762,F4,171.0,0.25,35,203.5
763,B-1,171.0,0.25,30,203.5
764,B-2,171.0,0.25,30,203.5
765,E-2,172.0,0.5,32,203.5
766,G3,172.0,0.5,41,203.5
767,E-4,172.0,0.5,41,203.5
768,E-3,172.5,0.5,27,203.5
769,D4,173.0,0.5,33,203.5
770,G#4,173.0,0.5,33,203.5
771,E-4,173.5,0.5,30,203.5
772,G4,173.5,0.5,30,203.5
773,E-2,174.0,0.5,32,203.5
774,E-3,174.5,0.5,28,203.5
775,G#4,175.0,0.5,34,203.5
776,D5,175.0,0.5,34,203.5
777,G4,175.5,0.5,30,203.5
778,E-5,175.5,0.5,30,203.5
779,E-2,176.0,0.5,32,203.5
780,E-3,176.5,0.5,28,203.5
781,G#5,177.0,0.5,34,203.5
782,D5,177.0,0.5,34,203.5
783,E-5,177.5,0.5,30,203.5
784,G5,177.5,0.5,30,203.5
785,E-2,178.0,0.5,32,203.5
786,E-3,178.5,0.5,27,203.5
787,D6,179.0,0.5,40,203.5
788,G#5,179.0,0.5,40,203.5
789,G5,179.5,0.5,33,203.5
790,E-6,179.5,0.5,33,203.5
791,E-2,180.0,1.0,32,203.5
792,G3,181.0,1.0,51,203.5
793,B-3,181.0,1.0,51,203.5
794,E-4,181.0,1.0,51,203.5
795,C4,185.5,0.5,40,203.5
796,C3,185.5,0.5,36,203.5
797,B3,186.0,0.5,45,203.5
798,B2,186.0,0.5,38,203.5
799,C4,186.5,0.5,40,203.5
800,C3,186.5,0.5,35,203.5
801,F4,187.0,0.25,45,203.5
802,F3,187.0,0.25,38,203.5
803,F4,187.5,0.25,38,203.5
804,F3,187.5,0.25,34,203.5
805,E-4,188.0,1.0,45,203.5
806,E-3,188.0,1.0,38,203.5
807,C4,189.5,0.5,40,203.5
808,C3,189.5,0.5,36,203.5
809,B3,190.0,0.5,45,203.5
810,B2,190.0,0.5,38,203.5
811,C4,190.5,0.5,40,203.5
812,C3,190.5,0.5,35,203.5
813,G#4,191.0,0.25,45,203.5
814,G#3,191.0,0.25,38,203.5
815,G#4,191.5,0.25,38,203.5
816,G#3,191.5,0.25,34,203.5
817,G4,192.0,1.0,45,203.5
818,G3,192.0,1.0,38,203.5
819,C4,193.5,0.5,40,203.5
820,B3,194.0,0.5,45,203.5
821,C4,194.5,0.5,40,203.5
822,C5,195.0,0.25,45,203.5
823,C5,195.5,0.25,38,203.5
824,C5,196.0,0.5,45,203.5
825,G#3,196.0,4.0,38,203.5
826,C4,196.0,4.0,38,203.5
827,F#4,196.0,4.0,38,203.5
828,D5,196.5,0.125,45,203.5
829,C5,196.625,0.125,45,203.5
830,B4,196.75,0.125,40,203.5
831,C5,196.875,0.125,45,203.5
832,E-5,197.0,0.5,50,203.5
833,D5,197.5,0.5,45,203.5
834,F5,198.0,0.5,56,203.5
835,E-5,198.5,0.5,53,203.5
836,D5,199.0,0.5,50,203.5
837,C5,199.5,0.5,47,203.5
838,B4,200.0,1.0,51,203.5
839,G4,200.0,1.0,34,203.5
840,D4,200.0,1.0,34,203.5
841,G3,200.0,1.0,34,203.5
842,G3,201.5,0.5,40,203.5
843,G2,201.5,0.5,36,203.5
844,F#3,202.0,0.5,45,203.5
845,F#2,202.0,0.5,38,203.5
846,G3,202.5,0.5,40,203.5
847,G2,202.5,0.5,35,203.5
848,C4,203.0,0.25,45,203.5
849,C3,203.0,0.25,38,203.5
850,C4,203.5,0.25,38,203.5
851,C3,203.5,0.25,34,203.5
852,B3,204.0,1.0,45,203.5
853,B2,204.0,1.0,38,203.5
854,G3,205.5,0.5,40,203.5
855,G2,205.5,0.5,36,203.5
856,F#3,206.0,0.5,45,203.5
857,F#2,206.0,0.5,38,203.5
858,G3,206.5,0.5,40,203.5
859,G2,206.5,0.5,35,203.5
860,E-4,207.0,0.25,45,203.5
861,E-3,207.0,0.25,38,203.5
862,E-4,207.5,0.25,38,203.5
863,E-3,207.5,0.25,34,203.5
864,D4,208.0,1.0,45,203.5
865,D3,208.0,1.0,38,203.5
866,G3,209.5,0.25,45,203.5
867,G2,209.5,0.25,37,203.5
868,B3,210.0,0.25,51,203.5
869,B2,210.0,0.25,43,203.5
870,D4,210.5,0.25,45,203.5
871,D3,210.5,0.25,37,203.5
872,F4,211.0,0.25,45,203.5
873,F3,211.0,0.25,37,203.5
874,G#4,211.5,0.25,45,203.5
875,G#3,211.5,0.25,37,203.5
876,B4,212.0,0.25,55,203.5
877,B3,212.0,0.25,46,203.5
878,D5,212.5,0.25,53,203.5
879,D4,212.5,0.25,45,203.5
880,F5,213.0,0.25,56,203.5
881,F4,213.0,0.25,47,203.5
882,G#5,213.5,0.25,60,203.5
883,G#4,213.5,0.25,50,203.5
884,G5,214.0,0.25,63,203.5
885,G4,214.0,0.25,53,203.5
886,F5,214.5,0.25,59,203.5
887,F4,214.5,0.25,50,203.5
888,E-5,215.0,0.25,55,203.5
889,E-4,215.0,0.25,46,203.5
890,D5,215.5,0.25,54,203.5
891,D4,215.5,0.25,45,203.5
892,C5,216.0,1.0,62,203.5
893,C4,216.0,0.25,42,203.5
894,E-4,216.5,0.25,35,203.5
895,G4,216.5,0.25,35,203.5
896,E-4,217.0,0.25,35,203.5
897,G4,217.0,0.25,35,203.5
898,C5,217.5,0.5,50,203.5
899,E-4,217.5,0.25,35,203.5
900,G4,217.5,0.25,35,203.5
901,B4,218.0,0.5,57,203.5
902,C4,218.0,0.25,42,203.5
903,C5,218.5,0.5,53,203.5
904,E4,218.5,0.25,33,203.5
905,G4,218.5,0.25,33,203.5
906,B-4,218.5,0.25,33,203.5
907,C6,219.0,0.25,60,203.5
908,E4,219.0,0.25,33,203.5
909,G4,219.0,0.25,33,203.5
910,B-4,219.0,0.25,33,203.5
911,C6,219.5,0.25,52,203.5
912,E4,219.5,0.25,33,203.5
913,G4,219.5,0.25,33,203.5
914,B-4,219.5,0.25,33,203.5
915,C6,220.0,1.0,60,203.5
916,C4,220.0,0.25,42,203.5
917,F4,220.5,0.25,35,203.5
918,G#4,220.5,0.25,35,203.5
919,F4,221.0,0.25,35,203.5
920,G#4,221.0,0.25,35,203.5
921,F6,221.5,0.5,59,203.5
922,F4,221.5,0.25,35,203.5
923,G#4,221.5,0.25,35,203.5
924,E-6,222.0,0.5,65,203.5
925,C4,222.0,0.25,42,203.5
926,D6,222.5,0.5,60,203.5
927,F4,222.5,0.25,33,203.5
928,G#4,222.5,0.25,33,203.5
929,B4,222.5,0.25,33,203.5
930,C6,223.0,0.5,66,203.5
931,F4,223.0,0.25,33,203.5
932,G#4,223.0,0.25,33,203.5
933,B4,223.0,0.25,33,203.5
934,B5,223.5,0.5,60,203.5
935,F4,223.5,0.25,33,203.5
936,G#4,223.5,0.25,33,203.5
937,B4,223.5,0.25,33,203.5
938,D6,224.0,0.5,69,203.5
939,C4,224.0,0.25,42,203.5
940,C6,224.5,0.5,60,203.5
941,E-4,224.5,0.25,35,203.5
942,G4,224.5,0.25,35,203.5
943,E-4,225.0,0.25,35,203.5
944,G4,225.0,0.25,35,203.5
945,C5,225.5,0.5,50,203.5
946,E-4,225.5,0.25,35,203.5
947,G4,225.5,0.25,35,203.5
948,B4,226.0,0.5,57,203.5
949,C4,226.0,0.25,42,203.5
950,C5,226.5,0.5,53,203.5
951,E4,226.5,0.25,33,203.5
952,G4,226.5,0.25,33,203.5
953,B-4,226.5,0.25,33,203.5
954,C6,227.0,0.25,60,203.5
955,E4,227.0,0.25,33,203.5
956,G4,227.0,0.25,33,203.5
957,B-4,227.0,0.25,33,203.5
958,C6,227.5,0.25,52,203.5
959,E4,227.5,0.25,33,203.5
960,G4,227.5,0.25,33,203.5
961,B-4,227.5,0.25,33,203.5
962,C6,228.0,1.0,60,203.5
963,C4,228.0,0.25,42,203.5
964,F4,228.5,0.25,35,203.5
965,G#4,228.5,0.25,35,203.5
966,D6,229.0,0.125,60,203.5
967,F4,229.0,0.25,35,203.5
968,G#4,229.0,0.25,35,203.5
969,C6,229.125,0.125,60,203.5
970,B5,229.25,0.125,60,203.5
971,C6,229.375,0.125,60,203.5
972,F6,229.5,0.5,59,203.5
973,F4,229.5,0.25,35,203.5
974,G#4,229.5,0.25,35,203.5
975,E-6,230.0,0.5,65,203.5
976,C4,230.0,0.25,42,203.5
977,D6,230.5,0.5,60,203.5
978,F4,230.5,0.25,33,203.5
979,G#4,230.5,0.25,33,203.5
980,B4,230.5,0.25,33,203.5
981,C6,231.0,0.5,66,203.5
982,F4,231.0,0.25,33,203.5
983,G#4,231.0,0.25,33,203.5
984,B4,231.0,0.25,33,203.5
985,B5,231.5,0.5,60,203.5
986,F4,231.5,0.25,33,203.5
987,G#4,231.5,0.25,33,203.5
988,B4,231.5,0.25,33,203.5
989,C6,232.0,0.25,69,203.5
990,C4,232.0,1.0,38,203.5
991,E-4,232.0,1.0,38,203.5
992,G4,232.0,1.0,38,203.5
993,C5,232.0,1.0,38,203.5
994,D6,232.25,0.25,63,203.5
995,C6,232.5,0.25,63,203.5
996,B5,232.75,0.25,63,203.5
997,C6,233.0,0.25,69,203.5
998,E-6,233.25,0.25,73,203.5
999,D6,233.5,0.25,72,203.5
1000,F#4,233.5,0.5,42,203.5
1001,C6,233.75,0.25,71,203.5
1002,B5,234.0,0.25,72,203.5
1003,G4,234.0,1.0,52,203.5
1004,C6,234.25,0.25,65,203.5
1005,B5,234.5,0.25,65,203.5
1006,G#5,234.75,0.25,65,203.5
1007,G5,235.0,0.25,69,203.5
1008,F5,235.25,0.25,63,203.5
1009,E-5,235.5,0.25,63,203.5
1010,B3,235.5,0.5,48,203.5
1011,D5,235.75,0.25,63,203.5
1012,C5,236.0,0.25,69,203.5
1013,C4,236.0,1.0,57,203.5
1014,D5,236.25,0.25,63,203.5
1015,C5,236.5,0.25,63,203.5
1016,B4,236.75,0.25,61,203.5
1017,C5,237.0,0.25,66,203.5
1018,E-5,237.25,0.25,72,203.5
1019,D5,237.5,0.25,70,203.5
1020,F#3,237.5,0.5,54,203.5
1021,C5,237.75,0.25,67,203.5
1022,B4,238.0,0.25,69,203.5
1023,G3,238.0,1.0,63,203.5
1024,C5,238.25,0.25,63,203.5
1025,B4,238.5,0.25,63,203.5
1026,G#4,238.75,0.25,63,203.5
1027,G4,239.0,0.25,69,203.5
1028,F4,239.25,0.25,63,203.5
1029,E-4,239.5,0.25,63,203.5
1030,B2,239.5,0.5,57,203.5
1031,D4,239.75,0.25,63,203.5
1032,C4,240.0,0.25,77,203.5
1033,C3,240.0,1.0,66,203.5
1034,D4,240.25,0.25,69,203.5
1035,C4,240.5,0.25,69,203.5
1036,B3,240.75,0.25,69,203.5
1037,C4,241.0,0.25,77,203.5
1038,E-4,241.25,0.25,69,203.5
1039,D4,241.5,0.25,69,203.5
1040,F#2,241.5,0.5,58,203.5
1041,C4,241.75,0.25,69,203.5
1042,B3,242.0,0.25,77,203.5
1043,G2,242.0,1.0,67,203.5
1044,G4,242.25,0.25,69,203.5
1045,D4,242.5,0.25,69,203.5
1046,B3,242.75,0.25,69,203.5
1047,G3,243.0,0.25,79,203.5
1048,C2,243.0,0.5,89,203.5
1049,C3,243.0,0.5,89,203.5
1050,G4,243.25,0.25,69,203.5
1051,E-4,243.5,0.25,69,203.5
1052,C4,243.75,0.25,69,203.5
1053,G3,244.0,0.25,81,203.5
1054,G1,244.0,0.5,60,203.5
1055,G2,244.0,0.5,60,203.5
1056,G4,244.25,0.25,69,203.5
1057,D4,244.5,0.25,69,203.5
1058,B3,244.75,0.25,69,203.5
1059,G3,245.0,0.25,80,203.5
1060,C2,245.0,0.5,90,203.5
1061,C3,245.0,0.5,90,203.5
1062,G4,245.25,0.25,69,203.5
1063,E-4,245.5,0.25,69,203.5
1064,C4,245.75,0.25,69,203.5
1065,G3,246.0,0.25,80,203.5
1066,G1,246.0,0.5,62,203.5
1067,G2,246.0,0.5,62,203.5
1068,G4,246.25,0.25,69,203.5
1069,D4,246.5,0.25,69,203.5
1070,B3,246.75,0.25,69,203.5
1071,G3,247.0,0.25,80,203.5
1072,C2,247.0,0.5,90,203.5
1073,C3,247.0,0.5,90,203.5
1074,G4,247.25,0.25,69,203.5
1075,E-4,247.5,0.25,69,203.5
1076,C4,247.75,0.25,69,203.5
1077,G3,248.0,2.0,78,203.5
1078,B3,248.0,2.0,78,203.5
1079,D4,248.0,2.0,78,203.5
1080,G4,248.0,2.0,78,203.5
1081,G1,248.0,2.0,69,203.5
1082,B1,248.0,2.0,69,203.5
1083,D2,248.0,2.0,69,203.5
1084,G2,248.0,2.0,69,203.5
1085,B-3,250.5,0.25,40,203.5
1086,C4,251.0,0.25,37,203.5
1087,D4,251.5,0.25,37,203.5
1088,E-4,252.0,0.25,46,203.5
1089,G3,252.0,2.0,39,203.5
1090,B-3,252.0,2.0,39,203.5
1091,E-2,252.0,2.0,28,203.5
1092,E-3,252.0,2.0,28,203.5
1093,F4,252.5,0.25,40,203.5
1094,G4,253.0,0.25,40,203.5
1095,B-3,254.0,0.25,40,203.5
1096,D4,254.0,0.25,40,203.5
1097,F4,254.0,0.25,40,203.5
1098,G#2,254.0,0.25,28,203.5
1099,G#3,254.0,0.25,28,203.5
1100,B-3,255.0,0.25,36,203.5
1101,E-4,255.0,0.25,36,203.5
1102,G2,255.0,0.25,25,203.5
1103,G3,255.0,0.25,25,203.5
1104,G#3,256.0,2.0,39,203.5
1105,B-3,256.0,2.0,39,203.5
1106,D4,256.0,2.0,39,203.5
1107,G#4,256.0,2.0,39,203.5
1108,B-2,256.0,2.0,29,203.5
1109,F2,256.0,2.0,29,203.5
1110,F3,256.0,2.0,29,203.5
1111,B-3,258.5,0.25,40,203.5
1112,C4,259.0,0.25,37,203.5
1113,D4,259.5,0.25,37,203.5
1114,E-4,260.0,0.25,46,203.5
1115,G3,260.0,2.0,39,203.5
1116,B-3,260.0,2.0,39,203.5
1117,E-2,260.0,2.0,28,203.5
1118,E-3,260.0,2.0,28,203.5
1119,F4,260.5,0.25,40,203.5
1120,G4,261.0,0.25,40,203.5
1121,F3,262.0,0.25,40,203.5
1122,C4,262.0,0.25,40,203.5
1123,F4,262.0,0.25,40,203.5
1124,G#1,262.0,0.25,28,203.5
1125,G#2,262.0,0.25,28,203.5
1126,C4,263.0,0.25,35,203.5
1127,F3,263.0,0.25,35,203.5
1128,E-4,263.0,0.25,35,203.5
1129,A1,263.0,0.25,25,203.5
1130,A2,263.0,0.25,25,203.5
1131,D3,264.0,2.0,33,203.5
1132,F3,264.0,2.0,33,203.5
1133,B-3,264.0,2.0,33,203.5
1134,B-1,264.0,2.0,24,203.5
1135,B-2,264.0,2.0,24,203.5
1136,B-3,266.5,0.25,40,203.5
1137,C4,267.0,0.25,37,203.5
1138,D4,267.5,0.25,37,203.5
1139,E-4,268.0,0.25,46,203.5
1140,G3,268.0,2.0,39,203.5
1141,B-3,268.0,2.0,39,203.5
1142,E-2,268.0,2.0,28,203.5
1143,E-3,268.0,2.0,28,203.5
1144,F4,268.5,0.25,40,203.5
1145,G4,269.0,0.25,40,203.5
1146,B-3,270.0,0.25,40,203.5
1147,D4,270.0,0.25,40,203.5
1148,F4,270.0,0.25,40,203.5
1149,G#2,270.0,0.25,28,203.5
1150,G#3,270.0,0.25,28,203.5
1151,B-3,271.0,0.25,36,203.5
1152,E-4,271.0,0.25,36,203.5
1153,G2,271.0,0.25,25,203.5
1154,G3,271.0,0.25,25,203.5
1155,G#2,271.781,0.219,30,203.5
1156,C3,271.781,0.219,30,203.5
1157,E-3,271.844,0.156,38,203.5
1158,G#3,271.844,0.156,38,203.5
1159,C4,271.906,0.094,48,203.5
1160,E-4,271.906,0.094,48,203.5
1161,G#4,271.969,0.031,63,203.5
1162,C5,272.0,2.5,72,203.5
1163,G#4,272.0,2.0,63,203.5
1164,C4,272.0,1.969,48,203.5
1165,E-4,272.0,1.969,48,203.5
1166,G#2,272.0,0.969,30,203.5
1167,C3,272.0,0.969,30,203.5
1168,E-3,272.0,0.969,38,203.5
1169,G#3,272.0,0.969,38,203.5
1170,C5,274.5,0.25,48,203.5
1171,B-4,275.0,0.25,53,203.5
1172,G#4,275.5,0.25,50,203.5
1173,G4,276.0,0.5,53,203.5
1174,B-2,276.0,4.0,80,203.5
1175,F4,276.5,0.5,48,203.5
1176,E-4,277.0,0.25,48,203.5
1177,D4,277.5,0.25,48,203.5
1178,C4,278.0,1.0,53,203.5
1179,F3,278.0,2.0,45,203.5
1180,G#3,278.0,2.0,45,203.5
1181,B-1,278.5,0.25,49,203.5
1182,B-3,279.0,1.0,49,203.5
1183,C2,279.0,0.25,53,203.5
1184,D2,279.5,0.25,45,203.5
1185,E-2,280.0,0.25,53,203.5
1186,B-2,280.0,4.0,80,203.5
1187,E-3,280.0,2.0,44,203.5
1188,G3,280.0,2.0,44,203.5
1189,B-3,280.0,2.0,44,203.5
1190,F2,280.5,0.25,49,203.5
1191,G2,281.0,0.25,51,203.5
1192,F2,282.0,1.0,53,203.5
1193,B-4,282.5,0.25,48,203.5
1194,G#4,283.0,0.25,53,203.5
1195,E-2,283.0,1.0,50,203.5
1196,G4,283.5,0.25,50,203.5
1197,G4,284.0,0.5,53,203.5
1198,B-2,284.0,4.0,80,203.5
1199,F4,284.5,0.5,48,203.5
1200,E-4,285.0,0.25,48,203.5
1201,D4,285.5,0.25,48,203.5
1202,C4,286.0,1.0,53,203.5
1203,F3,286.0,2.0,45,203.5
1204,G#3,286.0,2.0,45,203.5
1205,B-1,286.5,0.25,49,203.5
1206,B-3,287.0,1.0,49,203.5
1207,C2,287.0,0.25,53,203.5
1208,D2,287.5,0.25,45,203.5
1209,E-2,288.0,0.25,53,203.5
1210,B-2,288.0,4.0,80,203.5
1211,E-3,288.0,2.0,54,203.5
1212,G3,288.0,2.0,54,203.5
1213,B-3,288.0,2.0,54,203.5
1214,F2,288.5,0.25,49,203.5
1215,G2,289.0,0.25,51,203.5
1216,F2,290.0,1.0,53,203.5
1217,B-5,290.5,0.25,48,203.5
1218,B-4,290.5,0.25,48,203.5
1219,E-2,291.0,1.0,50,203.5
1220,G#5,291.0,0.25,53,203.5
1221,G#4,291.0,0.25,53,203.5
1222,G5,291.5,0.25,50,203.5
1223,G4,291.5,0.25,50,203.5
1224,G5,292.0,0.5,55,203.5
1225,G4,292.0,0.5,55,203.5
1226,G#2,292.0,1.0,48,203.5
1227,C3,292.0,1.0,48,203.5
1228,F3,292.0,1.0,48,203.5
1229,F5,292.5,0.5,48,203.5
1230,F4,292.5,0.5,48,203.5
1231,E-5,293.0,0.25,48,203.5
1232,E-4,293.0,0.25,48,203.5
1233,D5,293.5,0.25,48,203.5
1234,D4,293.5,0.25,48,203.5
1235,C4,294.0,0.25,55,203.5
1236,C5,294.0,0.25,55,203.5
1237,F3,294.0,1.0,45,203.5
1238,B-2,294.0,1.0,45,203.5
1239,G#3,294.0,1.0,45,203.5
1240,B-3,294.5,0.25,48,203.5
1241,B-4,294.5,0.25,48,203.5
1242,C4,295.0,0.25,48,203.5
1243,C5,295.0,0.25,48,203.5
1244,D4,295.5,0.25,48,203.5
1245,D5,295.5,0.25,48,203.5
1246,E-4,296.0,0.25,48,203.5
1247,E-3,296.0,1.0,54,203.5
1248,G3,296.0,1.0,54,203.5
1249,E-5,296.25,0.25,43,203.5
1250,E-4,296.5,0.25,48,203.5
1251,E-5,296.75,0.25,42,203.5
1252,E-4,297.0,0.25,49,203.5
1253,E-5,297.25,0.25,43,203.5
1254,E-4,297.5,0.25,50,203.5
1255,E-3,297.5,0.5,54,203.5
1256,E-5,297.75,0.25,45,203.5
1257,E-4,298.0,0.25,51,203.5
1258,D3,298.0,0.5,60,203.5
1259,E-5,298.25,0.25,44,203.5
1260,E-4,298.5,0.25,52,203.5
1261,E-3,298.5,0.5,55,203.5
1262,E-5,298.75,0.25,47,203.5
1263,E-4,299.0,0.25,53,203.5
1264,C3,299.0,0.25,57,203.5
1265,G#3,299.0,0.25,57,203.5
1266,E-5,299.25,0.25,47,203.5
1267,E-4,299.5,0.25,53,203.5
1268,G#3,299.5,0.25,52,203.5
1269,C3,299.5,0.25,52,203.5
1270,E-5,299.75,0.25,47,203.5
1271,E-4,300.0,0.25,54,203.5
1272,G3,300.0,1.0,60,203.5
1273,B-2,300.0,1.0,60,203.5
1274,E-5,300.25,0.25,48,203.5
1275,E-4,300.5,0.25,55,203.5
1276,E-5,300.75,0.25,48,203.5
1277,E-4,301.0,0.25,55,203.5
1278,E-5,301.25,0.25,48,203.5
1279,E-4,301.5,0.25,56,203.5
1280,E-3,301.5,0.5,61,203.5
1281,E-5,301.75,0.25,51,203.5
1282,E-4,302.0,0.25,57,203.5
1283,D3,302.0,0.5,68,203.5
1284,E-5,302.25,0.25,49,203.5
1285,E-4,302.5,0.25,58,203.5
1286,E-3,302.5,0.5,63,203.5
1287,E-5,302.75,0.25,53,203.5
1288,E-4,303.0,0.25,59,203.5
1289,G#3,303.0,0.25,64,203.5
1290,C4,303.0,0.25,64,203.5
1291,E-5,303.25,0.25,54,203.5
1292,E-4,303.5,0.25,60,203.5
1293,G#3,303.5,0.25,59,203.5
1294,C4,303.5,0.25,59,203.5
1295,E-5,303.75,0.25,54,203.5
1296,E-4,304.0,1.0,70,203.5
1297,E-5,304.0,1.0,70,203.5
1298,G3,304.0,0.5,71,203.5
1299,B-3,304.0,0.5,71,203.5
1300,E-3,304.5,0.25,62,203.5
1301,E-4,304.75,0.25,54,203.5
1302,E-3,305.0,0.25,63,203.5
1303,E-4,305.25,0.25,56,203.5
1304,E-5,305.5,0.5,74,203.5
1305,E-3,305.5,0.25,63,203.5
1306,E-4,305.75,0.25,57,203.5
1307,D5,306.0,0.5,84,203.5
1308,E-3,306.0,0.25,63,203.5
1309,E-4,306.25,0.25,55,203.5
1310,E-5,306.5,0.5,77,203.5
1311,E-3,306.5,0.25,64,203.5
1312,E-4,306.75,0.25,59,203.5
1313,E-3,307.0,0.25,65,203.5
1314,C6,307.0,0.25,86,203.5
1315,G#5,307.0,0.25,86,203.5
1316,E-4,307.25,0.25,58,203.5
1317,E-3,307.5,0.25,66,203.5
1318,G#5,307.5,0.25,79,203.5
1319,C6,307.5,0.25,79,203.5
1320,E-4,307.75,0.25,61,203.5
1321,G#5,308.0,1.0,92,203.5
1322,C6,308.0,1.25,92,203.5
1323,F3,308.0,4.0,52,203.5
1324,D3,308.0,4.0,52,203.5
1325,G#3,308.0,4.0,52,203.5
1326,B-3,308.0,4.0,52,203.5
1327,D4,308.0,4.0,52,203.5
1328,B-5,309.25,0.25,74,203.5
1329,G#5,309.5,0.25,73,203.5
1330,G5,309.75,0.25,72,203.5
1331,F5,310.0,0.25,72,203.5
1332,E-5,310.25,0.25,72,203.5
1333,D5,310.5,0.25,71,203.5
1334,C5,310.75,0.25,70,203.5
1335,B4,311.0,0.25,69,203.5
1336,B-4,311.25,0.25,68,203.5
1337,A4,311.5,0.25,67,203.5
1338,G#4,311.75,0.25,66,203.5
1339,G4,312.0,333/1000,66,203.5
1340,G3,312.0,1.0,53,203.5
1341,E-3,312.0,1.0,53,203.5
1342,E-4,312.0,1.0,53,203.5
1343,B-3,312.0,1.0,53,203.5
1344,G#4,312.333,333/1000,62,203.5
1345,B-4,312.667,333/1000,62,203.5
1346,G#4,313.0,333/1000,66,203.5
1347,G4,313.333,333/1000,62,203.5
1348,F4,313.667,333/1000,62,203.5
1349,E-4,314.0,333/1000,66,203.5
1350,D4,314.333,333/1000,62,203.5
1351,C4,314.667,333/1000,62,203.5
1352,B-3,315.0,333/1000,66,203.5
1353,G#3,315.333,333/1000,60,203.5
1354,G3,315.667,333/1000,63,203.5
1355,G#2,316.0,0.5,73,203.5
1356,G#1,316.0,0.5,73,203.5
1357,F3,316.25,0.25,59,203.5
1358,G#3,316.5,0.25,63,203.5
1359,C4,316.75,0.25,67,203.5
1360,F4,317.0,0.5,72,203.5
1361,G#2,317.5,0.25,63,203.5
1362,G#1,317.5,0.25,63,203.5
1363,B-1,318.0,0.5,70,203.5
1364,B-2,318.0,0.5,70,203.5
1365,F3,318.25,0.25,63,203.5
1366,G#3,318.5,0.25,66,203.5
1367,B-3,318.75,0.25,69,203.5
1368,D4,319.0,0.5,72,203.5
1369,B-2,319.5,0.25,63,203.5
1370,B-1,319.5,0.25,63,203.5
1371,D5,320.0,0.25,67,203.5
1372,D6,320.25,0.25,60,203.5
1373,D5,320.5,0.25,67,203.5
1374,G#4,320.5,0.25,63,203.5
1375,D6,320.75,0.25,60,203.5
1376,B-4,320.75,0.25,65,203.5
1377,D5,321.0,0.25,67,203.5
1378,C5,321.0,0.25,69,203.5
1379,D6,321.25,0.25,59,203.5
1380,B-4,321.25,0.25,67,203.5
1381,D5,321.5,0.25,67,203.5
1382,G#4,321.5,0.25,65,203.5
1383,D6,321.75,0.25,61,203.5
1384,G4,321.75,0.25,64,203.5
1385,D5,322.0,0.25,67,203.5
1386,F4,322.0,333/1000,67,203.5
1387,D6,322.25,0.25,59,203.5
1388,E-4,322.333,333/1000,61,203.5
1389,D5,322.5,0.25,67,203.5
1390,D4,322.667,333/1000,61,203.5
1391,D6,322.75,0.25,59,203.5
1392,D5,323.0,0.25,67,203.5
1393,C4,323.0,333/1000,67,203.5
1394,D6,323.25,0.25,59,203.5
1395,B-3,323.333,333/1000,62,203.5
1396,D5,323.5,0.25,67,203.5
1397,G#3,323.667,333/1000,62,203.5
1398,D6,323.75,0.25,60,203.5
1399,E-5,324.0,0.25,67,203.5
1400,G3,324.0,333/1000,67,203.5
1401,E-6,324.25,0.25,60,203.5
1402,G#3,324.333,333/1000,63,203.5
1403,E-5,324.5,0.25,69,203.5
1404,B-3,324.667,333/1000,63,203.5
1405,E-6,324.75,0.25,62,203.5
1406,E-5,325.0,0.25,71,203.5
1407,G#3,325.0,333/1000,67,203.5
1408,E-6,325.25,0.25,63,203.5
1409,G3,325.333,333/1000,60,203.5
1410,E-5,325.5,0.25,72,203.5
1411,F3,325.667,333/1000,60,203.5
1412,E-6,325.75,0.25,67,203.5
1413,E-5,326.0,0.25,75,203.5
1414,E-3,326.0,333/1000,70,203.5
1415,E-6,326.25,0.25,67,203.5
1416,D3,326.333,333/1000,63,203.5
1417,E-5,326.5,0.25,77,203.5
1418,C3,326.667,333/1000,66,203.5
1419,E-6,326.75,0.25,69,203.5
1420,E5,327.0,0.25,80,203.5
1421,B-2,327.0,333/1000,74,203.5
1422,E6,327.25,0.25,71,203.5
1423,G#2,327.333,333/1000,67,203.5
1424,E5,327.5,0.25,81,203.5
1425,G2,327.667,333/1000,67,203.5
1426,E6,327.75,0.25,73,203.5
1427,G#2,328.0,0.5,73,203.5
1428,G#1,328.0,0.5,73,203.5
1429,F5,328.25,0.25,71,203.5
1430,G#5,328.5,0.25,76,203.5
1431,C6,328.75,0.25,81,203.5
1432,F6,329.0,0.5,86,203.5
1433,G#1,329.5,0.25,63,203.5
1434,G#2,329.5,0.25,63,203.5
1435,B-1,330.0,0.5,70,203.5
1436,B-2,330.0,0.5,70,203.5
1437,D5,330.25,0.25,75,203.5
1438,F5,330.5,0.25,79,203.5
1439,G#5,330.75,0.25,82,203.5
1440,D6,331.0,0.5,86,203.5
1441,B-2,331.5,0.25,63,203.5
1442,B-1,331.5,0.25,63,203.5
1443,E-5,332.0,1.0,84,203.5
1444,B-5,332.0,1.0,84,203.5
1445,G5,332.0,1.0,84,203.5
1446,E-6,332.0,1.0,84,203.5
1447,E-3,332.0,1.0,62,203.5
1448,E-2,332.0,1.0,62,203.5
1449,G2,332.0,1.0,62,203.5
1450,B-2,332.0,1.0,62,203.5
1451,B-5,333.0,0.25,63,203.5
1452,G4,333.0,0.25,58,203.5
1453,E4,333.0,0.25,58,203.5
1454,B-5,333.5,0.25,63,203.5
1455,E4,333.5,0.25,58,203.5
1456,G4,333.5,0.25,58,203.5
1457,B-5,334.0,0.5,70,203.5
1458,G#4,334.0,0.5,64,203.5
1459,F4,334.0,0.5,64,203.5
1460,B-5,335.0,0.25,63,203.5
1461,E4,335.0,0.25,58,203.5
1462,G4,335.0,0.25,58,203.5
1463,B-5,335.5,0.25,63,203.5
1464,E4,335.5,0.25,58,203.5
1465,G4,335.5,0.25,58,203.5
1466,B-5,336.0,0.5,69,203.5
1467,G#4,336.0,0.5,64,203.5
1468,F4,336.0,0.5,64,203.5
1469,F3,337.0,0.5,64,203.5
1470,G#3,337.0,0.5,64,203.5
1471,D4,337.0,0.5,64,203.5
1472,B-1,337.0,0.5,68,203.5
1473,B-2,337.0,0.5,68,203.5
1474,F3,339.0,0.25,35,203.5
1475,G#3,339.0,0.25,35,203.5
1476,D4,339.0,0.25,35,203.5
1477,B2,339.0,0.25,33,203.5
1478,B1,339.0,0.25,33,203.5
1479,G3,340.0,0.25,41,203.5
1480,E-4,340.0,0.25,41,203.5
1481,C2,340.0,0.25,35,203.5
1482,C3,340.0,0.25,35,203.5
1483,C4,341.0,0.25,37,203.5
1484,E-4,341.0,0.25,37,203.5
1485,F4,341.0,0.25,37,203.5
1486,A2,341.0,0.25,33,203.5
1487,A1,341.0,0.25,33,203.5
1488,B-3,342.0,0.25,40,203.5
1489,E-4,342.0,0.25,40,203.5
1490,G4,342.0,0.25,40,203.5
1491,B-2,342.0,0.25,35,203.5
1492,B-1,342.0,0.25,35,203.5
1493,G#3,343.0,0.25,35,203.5
1494,D4,343.0,0.25,35,203.5
1495,F4,343.0,0.25,35,203.5
1496,B-1,343.0,0.25,30,203.5
1497,B-2,343.0,0.25,30,203.5
1498,G3,344.0,0.25,41,203.5
1499,E-4,344.0,0.25,41,203.5
1500,E-2,344.0,0.25,35,203.5
1501,E-3,344.0,0.25,35,203.5
1502,B-5,345.0,0.25,63,203.5
1503,G4,345.0,0.25,58,203.5
1504,E4,345.0,0.25,58,203.5
1505,C6,345.25,0.25,59,203.5
1506,B-5,345.5,0.25,63,203.5
1507,E4,345.5,0.25,58,203.5
1508,G4,345.5,0.25,58,203.5
1509,A5,345.75,0.25,59,203.5
1510,B-5,346.0,0.5,70,203.5
1511,G#4,346.0,0.5,64,203.5
1512,F4,346.0,0.5,64,203.5
1513,B-5,347.0,0.25,63,203.5
1514,E4,347.0,0.25,58,203.5
1515,G4,347.0,0.25,58,203.5
1516,C6,347.25,0.25,58,203.5
1517,B-5,347.5,0.25,63,203.5
1518,E4,347.5,0.25,58,203.5
1519,G4,347.5,0.25,58,203.5
1520,A5,347.75,0.25,57,203.5
1521,B-5,348.0,0.5,69,203.5
1522,G#4,348.0,0.5,64,203.5
1523,F4,348.0,0.5,64,203.5
1524,F3,349.0,0.5,64,203.5
1525,G#3,349.0,0.5,64,203.5
1526,D4,349.0,0.5,64,203.5
1527,B-2,349.0,0.5,68,203.5
1528,B-1,349.0,0.5,68,203.5
1529,E-3,351.0,1.0,58,203.5
1530,F#3,351.0,1.0,58,203.5
1531,A3,351.0,1.0,58,203.5
1532,E-4,351.0,1.0,58,203.5
1533,E-2,351.0,1.0,58,203.5
1534,F#2,351.0,1.0,58,203.5
1535,B2,351.0,1.0,58,203.5
1536,B1,351.0,1.0,58,203.5
1537,E-3,352.0,1.0,58,203.5
1538,F#3,352.0,1.0,58,203.5
1539,A3,352.0,1.0,58,203.5
1540,E-4,352.0,1.0,58,203.5
1541,E-2,352.0,1.0,58,203.5
1542,F#2,352.0,1.0,58,203.5
1543,B2,352.0,1.0,58,203.5
1544,B1,352.0,1.0,58,203.5
1545,C4,353.0,0.25,37,203.5
1546,E-4,353.0,0.25,37,203.5
1547,F4,353.0,0.25,37,203.5
1548,A1,353.0,0.25,33,203.5
1549,A2,353.0,0.25,33,203.5
1550,B-3,354.0,0.25,40,203.5
1551,E-4,354.0,0.25,40,203.5
1552,G4,354.0,0.25,40,203.5
1553,B-2,354.0,0.25,35,203.5
1554,B-1,354.0,0.25,35,203.5
1555,G#3,355.0,0.25,35,203.5
1556,D4,355.0,0.25,35,203.5
1557,F4,355.0,0.25,35,203.5
1558,B-1,355.0,0.25,30,203.5
1559,B-2,355.0,0.25,30,203.5
1560,E-2,356.0,0.5,32,203.5
1561,G3,356.0,0.5,41,203.5
1562,E-4,356.0,0.5,41,203.5
1563,E-3,356.5,0.5,27,203.5
1564,D4,357.0,0.5,33,203.5
1565,G#4,357.0,0.5,33,203.5
1566,E-4,357.5,0.5,30,203.5
1567,G4,357.5,0.5,30,203.5
1568,E-2,358.0,0.5,32,203.5
1569,E-3,358.5,0.5,28,203.5
1570,G#4,359.0,0.5,34,203.5
1571,D5,359.0,0.5,34,203.5
1572,G4,359.5,0.5,30,203.5
1573,E-5,359.5,0.5,30,203.5
1574,E-2,360.0,0.5,32,203.5
1575,E-3,360.5,0.5,28,203.5
1576,G#5,361.0,0.5,34,203.5
1577,D5,361.0,0.5,34,203.5
1578,E-5,361.5,0.5,30,203.5
1579,G5,361.5,0.5,30,203.5
1580,E-2,362.0,0.5,32,203.5
1581,E-3,362.5,0.5,27,203.5
1582,D6,363.0,0.5,40,203.5
1583,G#5,363.0,0.5,40,203.5
1584,G5,363.5,0.5,33,203.5
1585,E-6,363.5,0.5,33,203.5
1586,E-2,364.0,1.0,32,203.5
1587,G3,365.0,1.0,51,203.5
1588,B-3,365.0,1.0,51,203.5
1589,E-4,365.0,1.0,51,203.5
1590,C3,369.5,0.5,36,203.5
1591,B2,370.0,0.5,42,203.5
1592,C3,370.5,0.5,35,203.5
1593,B-3,371.0,0.25,41,203.5
1594,G3,371.0,0.25,41,203.5
1595,B-3,371.5,0.25,38,203.5
1596,G3,371.5,0.25,38,203.5
1597,B-3,372.0,4.0,70,203.5
1598,G3,372.0,4.0,70,203.5
1599,E-4,373.5,0.5,40,203.5
1600,D4,374.0,0.5,45,203.5
1601,E-4,374.5,0.5,40,203.5
1602,B-4,375.0,0.25,45,203.5
1603,B-4,375.5,0.25,38,203.5
1604,C#4,376.0,0.5,45,203.5
1605,B-3,376.0,1.0,35,203.5
1606,G#3,376.0,1.0,35,203.5
1607,D4,376.5,0.5,40,203.5
1608,B-4,377.0,0.25,45,203.5
1609,B-4,377.5,0.25,38,203.5
1610,B-2,377.5,0.5,36,203.5
1611,A2,378.0,0.5,42,203.5
1612,B-2,378.5,0.5,35,203.5
1613,B-3,379.0,0.25,41,203.5
1614,G#3,379.0,0.25,41,203.5
1615,B-3,379.5,0.25,38,203.5
1616,G#3,379.5,0.25,38,203.5
1617,B-3,380.0,4.0,70,203.5
1618,G#3,380.0,4.0,70,203.5
1619,F4,381.5,0.5,40,203.5
1620,E4,382.0,0.5,45,203.5
1621,F4,382.5,0.5,40,203.5
1622,B-4,383.0,0.25,45,203.5
1623,B-4,383.5,0.25,38,203.5
1624,E-4,384.0,0.5,45,203.5
1625,B-3,384.0,1.0,35,203.5
1626,G3,384.0,1.0,35,203.5
1627,E4,384.5,0.5,40,203.5
1628,B-4,385.0,0.25,45,203.5
1629,B-4,385.5,0.25,38,203.5
1630,E4,386.0,0.5,45,203.5
1631,B-3,386.0,1.0,35,203.5
1632,C#4,386.0,1.0,35,203.5
1633,F3,386.0,1.0,35,203.5
1634,F4,386.5,0.5,41,203.5
1635,C#5,387.0,0.25,46,203.5
1636,C#5,387.5,0.25,40,203.5
1637,F#4,388.0,0.5,47,203.5
1638,G3,388.0,1.0,36,203.5
1639,B-3,388.0,1.0,36,203.5
1640,C4,388.0,1.0,36,203.5
1641,E3,388.0,1.0,36,203.5
1642,G4,388.5,0.5,43,203.5
1643,C#5,389.0,0.25,48,203.5
1644,C#5,389.5,0.25,41,203.5
1645,C5,390.0,0.5,49,203.5
1646,B-4,390.5,0.5,42,203.5
1647,A4,391.0,0.5,47,203.5
1648,B-4,391.5,0.5,42,203.5
1649,G4,392.0,0.5,49,203.5
1650,F3,392.0,1.0,46,203.5
1651,G#3,392.0,1.0,46,203.5
1652,C4,392.0,1.0,46,203.5
1653,G#4,392.5,0.5,44,203.5
1654,F5,393.0,0.25,50,203.5
1655,F5,393.5,0.25,44,203.5
1656,B4,394.0,0.5,52,203.5
1657,E-3,394.0,1.0,48,203.5
1658,F3,394.0,1.0,48,203.5
1659,G#3,394.0,1.0,48,203.5
1660,C4,394.0,1.0,48,203.5
1661,C5,394.5,0.5,47,203.5
1662,G#5,395.0,0.25,54,203.5
1663,G#5,395.5,0.25,47,203.5
1664,E5,396.0,0.5,56,203.5
1665,D3,396.0,1.0,51,203.5
1666,F3,396.0,1.0,51,203.5
1667,G#3,396.0,1.0,51,203.5
1668,B3,396.0,1.0,51,203.5
1669,F5,396.5,0.5,50,203.5
1670,B5,397.0,0.25,57,203.5
1671,B5,397.5,0.25,50,203.5
1672,G5,398.0,0.5,63,203.5
1673,C3,398.0,1.0,55,203.5
1674,D3,398.0,1.0,55,203.5
1675,F3,398.0,1.0,55,203.5
1676,G#3,398.0,1.0,55,203.5
1677,G#5,398.5,0.5,56,203.5
1678,D6,399.0,0.25,66,203.5
1679,D6,399.5,0.25,60,203.5
1680,C#6,400.0,0.5,79,203.5
1681,B2,400.0,1.0,61,203.5
1682,D3,400.0,1.0,61,203.5
1683,F3,400.0,1.0,61,203.5
1684,G#3,400.0,1.0,61,203.5
1685,D6,400.5,0.5,72,203.5
1686,F6,401.0,0.25,69,203.5
1687,F6,401.5,0.25,64,203.5
1688,F6,402.0,2.0,76,203.5
1689,G#5,402.5,9/20,65,203.5
1690,G#5,403.0,9/20,65,203.5
1691,G#5,403.5,9/20,65,203.5
1692,B4,404.0,2.0,69,203.5
1693,G#4,404.5,9/20,65,203.5
1694,G#4,405.0,9/20,65,203.5
1695,G#4,405.5,9/20,65,203.5
1696,B3,406.0,2.0,74,203.5
1697,G#3,406.5,9/20,65,203.5
1698,G#3,407.0,9/20,65,203.5
1699,G#3,407.5,9/20,65,203.5
1700,B2,408.0,0.5,69,203.5
1701,G#2,408.5,9/20,64,203.5
1702,G#3,408.5,9/20,64,203.5
1703,G#2,409.0,9/20,64,203.5
1704,G#3,409.0,9/20,64,203.5
1705,G#2,409.5,9/20,64,203.5
1706,G#3,409.5,0.5,64,203.5
1707,B1,410.0,0.5,78,203.5
1708,B2,410.0,0.5,75,203.5
1709,G#2,410.5,9/20,70,203.5
1710,G#3,410.5,9/20,69,203.5
1711,G#2,411.0,9/20,70,203.5
1712,G#3,411.0,9/20,69,203.5
1713,G#2,411.5,9/20,70,203.5
1714,G#3,411.5,9/20,69,203.5
1715,B1,412.0,729/500,86,203.5
1716,B2,412.0,729/500,88,203.5
1717,C4,413.5,0.5,40,203.5
1718,C3,413.5,0.5,36,203.5
1719,B3,414.0,0.5,45,203.5
1720,B2,414.0,0.5,38,203.5
1721,C4,414.5,0.5,40,203.5
1722,C3,414.5,0.5,35,203.5
1723,F4,415.0,0.25,45,203.5
1724,F3,415.0,0.25,38,203.5
1725,F4,415.5,0.25,38,203.5
1726,F3,415.5,0.25,34,203.5
1727,E-4,416.0,1.0,45,203.5
1728,E-3,416.0,1.0,38,203.5
1729,C4,417.5,0.5,40,203.5
1730,C3,417.5,0.5,36,203.5
1731,B3,418.0,0.5,45,203.5
1732,B2,418.0,0.5,38,203.5
1733,C4,418.5,0.5,40,203.5
1734,C3,418.5,0.5,35,203.5
1735,G#4,419.0,0.25,45,203.5
1736,G#3,419.0,0.25,38,203.5
1737,G#4,419.5,0.25,38,203.5
1738,G#3,419.5,0.25,34,203.5
1739,G4,420.0,1.0,45,203.5
1740,G3,420.0,1.0,38,203.5
1741,C4,421.5,0.5,40,203.5
1742,B3,422.0,0.5,45,203.5
1743,C4,422.5,0.5,40,203.5
1744,C5,423.0,0.25,45,203.5
1745,C5,423.5,0.25,38,203.5
1746,C5,424.0,0.5,45,203.5
1747,G#3,424.0,4.0,38,203.5
1748,C4,424.0,4.0,38,203.5
1749,F#4,424.0,4.0,38,203.5
1750,D5,424.5,0.125,45,203.5
1751,C5,424.625,0.125,45,203.5
1752,B4,424.75,0.125,40,203.5
1753,C5,424.875,0.125,45,203.5
1754,E-5,425.0,0.5,50,203.5
1755,D5,425.5,0.5,45,203.5
1756,F5,426.0,0.5,56,203.5
1757,E-5,426.5,0.5,53,203.5
1758,D5,427.0,0.5,50,203.5
1759,C5,427.5,0.5,47,203.5
1760,B4,428.0,1.0,51,203.5
1761,G4,428.0,1.0,34,203.5
1762,D4,428.0,1.0,34,203.5
1763,G3,428.0,1.0,34,203.5
1764,G3,429.5,0.5,40,203.5
1765,G2,429.5,0.5,36,203.5
1766,F#3,430.0,0.5,45,203.5
1767,F#2,430.0,0.5,38,203.5
1768,G3,430.5,0.5,40,203.5
1769,G2,430.5,0.5,35,203.5
1770,C4,431.0,0.25,45,203.5
1771,C3,431.0,0.25,38,203.5
1772,C4,431.5,0.25,38,203.5
1773,C3,431.5,0.25,34,203.5
1774,B3,432.0,1.0,45,203.5
1775,B2,432.0,1.0,38,203.5
1776,G3,433.5,0.5,40,203.5
1777,G2,433.5,0.5,36,203.5
1778,F#3,434.0,0.5,45,203.5
1779,F#2,434.0,0.5,38,203.5
1780,G3,434.5,0.5,40,203.5
1781,G2,434.5,0.5,35,203.5
1782,E-4,435.0,0.25,45,203.5
1783,E-3,435.0,0.25,38,203.5
1784,E-4,435.5,0.25,38,203.5
1785,E-3,435.5,0.25,34,203.5
1786,D4,436.0,1.0,45,203.5
1787,D3,436.0,1.0,38,203.5
1788,G3,437.5,0.25,45,203.5
1789,G2,437.5,0.25,37,203.5
1790,B3,438.0,0.25,51,203.5
1791,B2,438.0,0.25,43,203.5
1792,D4,438.5,0.25,45,203.5
1793,D3,438.5,0.25,37,203.5
1794,F4,439.0,0.25,45,203.5
1795,F3,439.0,0.25,37,203.5
1796,G#4,439.5,0.25,45,203.5
1797,G#3,439.5,0.25,37,203.5
1798,B4,440.0,0.25,55,203.5
1799,B3,440.0,0.25,46,203.5
1800,D5,440.5,0.25,53,203.5
1801,D4,440.5,0.25,45,203.5
1802,F5,441.0,0.25,56,203.5
1803,F4,441.0,0.25,47,203.5
1804,G#5,441.5,0.25,60,203.5
1805,G#4,441.5,0.25,50,203.5
1806,G5,442.0,0.25,63,203.5
1807,G4,442.0,0.25,53,203.5
1808,F5,442.5,0.25,59,203.5
1809,F4,442.5,0.25,50,203.5
1810,E-5,443.0,0.25,55,203.5
1811,E-4,443.0,0.25,46,203.5
1812,D5,443.5,0.25,54,203.5
1813,D4,443.5,0.25,45,203.5
1814,C5,444.0,1.0,62,203.5
1815,C4,444.0,0.25,42,203.5
1816,E-4,444.5,0.25,35,203.5
1817,G4,444.5,0.25,35,203.5
1818,E-4,445.0,0.25,35,203.5
1819,G4,445.0,0.25,35,203.5
1820,C5,445.5,0.5,50,203.5
1821,E-4,445.5,0.25,35,203.5
1822,G4,445.5,0.25,35,203.5
1823,B4,446.0,0.5,57,203.5
1824,C4,446.0,0.25,42,203.5
1825,C5,446.5,0.5,53,203.5
1826,E4,446.5,0.25,33,203.5
1827,G4,446.5,0.25,33,203.5
1828,B-4,446.5,0.25,33,203.5
1829,C6,447.0,0.25,60,203.5
1830,E4,447.0,0.25,33,203.5
1831,G4,447.0,0.25,33,203.5
1832,B-4,447.0,0.25,33,203.5
1833,C6,447.5,0.25,52,203.5
1834,E4,447.5,0.25,33,203.5
1835,G4,447.5,0.25,33,203.5
1836,B-4,447.5,0.25,33,203.5
1837,C6,448.0,1.0,60,203.5
1838,C4,448.0,0.25,42,203.5
1839,F4,448.5,0.25,35,203.5
1840,G#4,448.5,0.25,35,203.5
1841,F4,449.0,0.25,35,203.5
1842,G#4,449.0,0.25,35,203.5
1843,F6,449.5,0.5,59,203.5
1844,F4,449.5,0.25,35,203.5
1845,G#4,449.5,0.25,35,203.5
1846,E-6,450.0,0.5,65,203.5
1847,C4,450.0,0.25,42,203.5
1848,D6,450.5,0.5,60,203.5
1849,F4,450.5,0.25,33,203.5
1850,G#4,450.5,0.25,33,203.5
1851,B4,450.5,0.25,33,203.5
1852,C6,451.0,0.5,66,203.5
1853,F4,451.0,0.25,33,203.5
1854,G#4,451.0,0.25,33,203.5
1855,B4,451.0,0.25,33,203.5
1856,B5,451.5,0.5,60,203.5
1857,F4,451.5,0.25,33,203.5
1858,G#4,451.5,0.25,33,203.5
1859,B4,451.5,0.25,33,203.5
1860,D6,452.0,0.5,69,203.5
1861,C4,452.0,0.25,42,203.5
1862,C6,452.5,0.5,60,203.5
1863,E-4,452.5,0.25,35,203.5
1864,G4,452.5,0.25,35,203.5
1865,E-4,453.0,0.25,35,203.5
1866,G4,453.0,0.25,35,203.5
1867,C5,453.5,0.5,50,203.5
1868,E-4,453.5,0.25,35,203.5
1869,G4,453.5,0.25,35,203.5
1870,B4,454.0,1/5,54,203.5
1871,C4,454.0,0.25,42,203.5
1872,C5,454.2,1/5,54,203.5
1873,C#5,454.4,1/5,55,203.5
1874,E4,454.5,0.25,33,203.5
1875,G4,454.5,0.25,33,203.5
1876,B-4,454.5,0.25,33,203.5
1877,D5,454.6,1/5,56,203.5
1878,E-5,454.8,1/5,56,203.5
1879,E5,455.0,0.25,57,203.5
1880,E4,455.0,0.25,33,203.5
1881,G4,455.0,0.25,33,203.5
1882,B-4,455.0,0.25,33,203.5
1883,F5,455.25,0.25,58,203.5
1884,F#5,455.5,0.25,59,203.5
1885,E4,455.5,0.25,33,203.5
1886,G4,455.5,0.25,33,203.5
1887,B-4,455.5,0.25,33,203.5
1888,G5,455.75,0.25,59,203.5
1889,G#5,456.0,0.25,60,203.5
1890,C4,456.0,0.25,42,203.5
1891,A5,456.25,0.25,61,203.5
1892,B-5,456.5,0.25,62,203.5
1893,F4,456.5,0.25,35,203.5
1894,G#4,456.5,0.25,35,203.5
1895,B5,456.75,0.25,62,203.5
1896,C6,457.0,0.5,68,203.5
1897,F4,457.0,0.25,35,203.5
1898,G#4,457.0,0.25,35,203.5
1899,F6,457.5,0.5,63,203.5
1900,F4,457.5,0.25,35,203.5
1901,G#4,457.5,0.25,35,203.5
1902,E-6,458.0,0.5,65,203.5
1903,C4,458.0,0.25,42,203.5
1904,D6,458.5,0.5,60,203.5
1905,F4,458.5,0.25,33,203.5
1906,G#4,458.5,0.25,33,203.5
1907,B4,458.5,0.25,33,203.5
1908,C6,459.0,0.5,66,203.5
1909,F4,459.0,0.25,33,203.5
1910,G#4,459.0,0.25,33,203.5
1911,B4,459.0,0.25,33,203.5
1912,B5,459.5,0.5,60,203.5
1913,F4,459.5,0.25,33,203.5
1914,G#4,459.5,0.25,33,203.5
1915,B4,459.5,0.25,33,203.5
1916,C6,460.0,0.25,69,203.5
1917,C4,460.0,1.0,38,203.5
1918,E-4,460.0,1.0,38,203.5
1919,G4,460.0,1.0,38,203.5
1920,C5,460.0,1.0,38,203.5
1921,D6,460.25,0.25,63,203.5
1922,C6,460.5,0.25,63,203.5
1923,B5,460.75,0.25,63,203.5
1924,C6,461.0,0.25,69,203.5
1925,E-6,461.25,0.25,73,203.5
1926,D6,461.5,0.25,72,203.5
1927,F#4,461.5,0.5,42,203.5
1928,C6,461.75,0.25,71,203.5
1929,B5,462.0,0.25,72,203.5
1930,G4,462.0,1.0,52,203.5
1931,C6,462.25,0.25,65,203.5
1932,B5,462.5,0.25,65,203.5
1933,G#5,462.75,0.25,65,203.5
1934,G5,463.0,0.25,69,203.5
1935,F5,463.25,0.25,63,203.5
1936,E-5,463.5,0.25,63,203.5
1937,B3,463.5,0.5,48,203.5
1938,D5,463.75,0.25,63,203.5
1939,C5,464.0,0.25,69,203.5
1940,C4,464.0,1.0,57,203.5
1941,D5,464.25,0.25,63,203.5
1942,C5,464.5,0.25,63,203.5
1943,B4,464.75,0.25,61,203.5
1944,C5,465.0,0.25,66,203.5
1945,E-5,465.25,0.25,72,203.5
1946,D5,465.5,0.25,70,203.5
1947,F#3,465.5,0.5,54,203.5
1948,C5,465.75,0.25,67,203.5
1949,B4,466.0,0.25,69,203.5
1950,G3,466.0,1.0,63,203.5
1951,C5,466.25,0.25,63,203.5
1952,B4,466.5,0.25,63,203.5
1953,G#4,466.75,0.25,63,203.5
1954,G4,467.0,0.25,69,203.5
1955,F4,467.25,0.25,63,203.5
1956,E-4,467.5,0.25,63,203.5
1957,B2,467.5,0.5,57,203.5
1958,D4,467.75,0.25,63,203.5
1959,C4,468.0,0.25,77,203.5
1960,C3,468.0,1.0,66,203.5
1961,D4,468.25,0.25,69,203.5
1962,C4,468.5,0.25,69,203.5
1963,B3,468.75,0.25,69,203.5
1964,C4,469.0,0.25,77,203.5
1965,E-4,469.25,0.25,69,203.5
1966,D4,469.5,0.25,69,203.5
1967,F#2,469.5,0.5,58,203.5
1968,C4,469.75,0.25,69,203.5
1969,B3,470.0,0.25,77,203.5
1970,G2,470.0,1.0,67,203.5
1971,G4,470.25,0.25,69,203.5
1972,D4,470.5,0.25,69,203.5
1973,B3,470.75,0.25,69,203.5
1974,G3,471.0,0.25,79,203.5
1975,C2,471.0,0.5,89,203.5
1976,C3,471.0,0.5,89,203.5
1977,G4,471.25,0.25,69,203.5
1978,E-4,471.5,0.25,69,203.5
1979,C4,471.75,0.25,69,203.5
1980,G3,472.0,0.25,81,203.5
1981,G1,472.0,0.5,60,203.5
1982,G2,472.0,0.5,60,203.5
1983,G4,472.25,0.25,69,203.5
1984,D4,472.5,0.25,69,203.5
1985,B3,472.75,0.25,69,203.5
1986,G3,473.0,0.25,80,203.5
1987,C2,473.0,0.5,90,203.5
1988,C3,473.0,0.5,90,203.5
1989,G4,473.25,0.25,69,203.5
1990,E-4,473.5,0.25,69,203.5
1991,C4,473.75,0.25,69,203.5
1992,G3,474.0,0.25,80,203.5
1993,G1,474.0,0.5,62,203.5
1994,G2,474.0,0.5,62,203.5
1995,G4,474.25,0.25,69,203.5
1996,D4,474.5,0.25,69,203.5
1997,B3,474.75,0.25,69,203.5
1998,G3,475.0,0.25,80,203.5
1999,C2,475.0,0.5,90,203.5
2000,C3,475.0,0.5,90,203.5
2001,G4,475.25,0.25,69,203.5
2002,E-4,475.5,0.25,69,203.5
2003,C4,475.75,0.25,69,203.5
2004,G3,476.0,2.0,78,203.5
2005,B3,476.0,2.0,78,203.5
2006,D4,476.0,2.0,78,203.5
2007,G4,476.0,2.0,78,203.5
2008,G1,476.0,2.0,69,203.5
2009,B1,476.0,2.0,69,203.5
2010,D2,476.0,2.0,69,203.5
2011,G2,476.0,2.0,69,203.5
2012,G4,478.5,0.25,40,203.5
2013,A4,479.0,0.25,37,203.5
2014,B4,479.5,0.25,37,203.5
2015,C5,480.0,0.25,46,203.5
2016,E4,480.0,2.0,39,203.5
2017,G4,480.0,2.0,39,203.5
2018,G3,480.0,2.0,28,203.5
2019,C3,480.0,2.0,28,203.5
2020,C4,480.0,2.0,28,203.5
2021,D5,480.5,0.25,40,203.5
2022,E5,481.0,0.25,40,203.5
2023,D4,482.0,0.25,40,203.5
2024,G4,482.0,0.25,40,203.5
2025,D5,482.0,0.25,40,203.5
2026,G3,482.0,0.25,27,203.5
2027,F3,482.0,0.25,27,203.5
2028,B3,482.0,0.25,27,203.5
2029,E4,483.0,0.25,35,203.5
2030,G4,483.0,0.25,35,203.5
2031,C5,483.0,0.25,35,203.5
2032,E3,483.0,0.25,24,203.5
2033,G3,483.0,0.25,24,203.5
2034,C4,483.0,0.25,24,203.5
2035,F4,484.0,2.0,39,203.5
2036,G4,484.0,2.0,39,203.5
2037,B4,484.0,2.0,39,203.5
2038,F5,484.0,2.0,39,203.5
2039,G3,484.0,2.0,29,203.5
2040,D3,484.0,2.0,29,203.5
2041,D4,484.0,2.0,29,203.5
2042,G4,486.5,0.25,40,203.5
2043,A4,487.0,0.25,37,203.5
2044,B4,487.5,0.25,37,203.5
2045,C5,488.0,0.25,46,203.5
2046,E4,488.0,2.0,39,203.5
2047,G4,488.0,2.0,39,203.5
2048,G3,488.0,2.0,28,203.5
2049,C3,488.0,2.0,28,203.5
2050,C4,488.0,2.0,28,203.5
2051,D5,488.5,0.25,40,203.5
2052,E5,489.0,0.25,40,203.5
2053,D4,490.0,0.25,40,203.5
2054,A4,490.0,0.25,40,203.5
2055,D5,490.0,0.25,40,203.5
2056,F3,490.0,0.25,28,203.5
2057,A3,490.0,0.25,28,203.5
2058,A4,491.0,0.25,35,203.5
2059,D4,491.0,0.25,35,203.5
2060,C5,491.0,0.25,35,203.5
2061,F#3,491.0,0.25,25,203.5
2062,A3,491.0,0.25,25,203.5
2063,B3,492.0,2.0,33,203.5
2064,D4,492.0,2.0,33,203.5
2065,G4,492.0,2.0,33,203.5
2066,G2,492.0,2.0,24,203.5
2067,G3,492.0,2.0,24,203.5
2068,G4,494.5,0.25,40,203.5
2069,A4,495.0,0.25,37,203.5
2070,B4,495.5,0.25,37,203.5
2071,C5,496.0,0.25,46,203.5
2072,E4,496.0,2.0,39,203.5
2073,G4,496.0,2.0,39,203.5
2074,G3,496.0,2.0,28,203.5
2075,C3,496.0,2.0,28,203.5
2076,C4,496.0,2.0,28,203.5
2077,D5,496.5,0.25,40,203.5
2078,E5,497.0,0.25,40,203.5
2079,D4,498.0,0.25,40,203.5
2080,G4,498.0,0.25,40,203.5
2081,D5,498.0,0.25,40,203.5
2082,G3,498.0,0.25,27,203.5
2083,F3,498.0,0.25,27,203.5
2084,B3,498.0,0.25,27,203.5
2085,E4,499.0,0.25,35,203.5
2086,G4,499.0,0.25,35,203.5
2087,C5,499.0,0.25,35,203.5
2088,G3,499.0,0.25,24,203.5
2089,E3,499.0,0.25,24,203.5
2090,C4,499.0,0.25,24,203.5
2091,F3,499.781,0.219,30,203.5
2092,A3,499.781,0.219,30,203.5
2093,C4,499.844,0.156,38,203.5
2094,F4,499.844,0.156,38,203.5
2095,A4,499.906,0.094,48,203.5
2096,C5,499.906,0.094,48,203.5
2097,F5,499.969,0.031,71,203.5
2098,A5,500.0,2.5,80,203.5
2099,F5,500.0,2.0,71,203.5
2100,A4,500.0,1.969,48,203.5
2101,C5,500.0,1.969,48,203.5
2102,F3,500.0,0.969,30,203.5
2103,A3,500.0,0.969,30,203.5
2104,C4,500.0,0.969,38,203.5
2105,F4,500.0,0.969,38,203.5
2106,A5,502.5,0.25,48,203.5
2107,G5,503.0,0.25,53,203.5
2108,F5,503.5,0.25,50,203.5
2109,E5,504.0,0.5,53,203.5
2110,G3,504.0,4.0,80,203.5
2111,D5,504.5,0.5,48,203.5
2112,C5,505.0,0.25,48,203.5
2113,B4,505.5,0.25,48,203.5
2114,A4,506.0,1.0,53,203.5
2115,D4,506.0,2.0,45,203.5
2116,F4,506.0,2.0,45,203.5
2117,G2,506.5,0.25,49,203.5
2118,G4,507.0,1.0,49,203.5
2119,A2,507.0,0.25,53,203.5
2120,B2,507.5,0.25,45,203.5
2121,C3,508.0,0.25,53,203.5
2122,G3,508.0,4.0,80,203.5
2123,C4,508.0,2.0,44,203.5
2124,E4,508.0,2.0,44,203.5
2125,G4,508.0,2.0,44,203.5
2126,D3,508.5,0.25,49,203.5
2127,E3,509.0,0.25,51,203.5
2128,D3,510.0,1.0,53,203.5
2129,G5,510.5,0.25,48,203.5
2130,F5,511.0,0.25,53,203.5
2131,C3,511.0,1.0,50,203.5
2132,E5,511.5,0.25,50,203.5
2133,E5,512.0,0.5,53,203.5
2134,G3,512.0,4.0,80,203.5
2135,D5,512.5,0.5,48,203.5
2136,C5,513.0,0.25,48,203.5
2137,B4,513.5,0.25,48,203.5
2138,G#4,514.0,1.0,53,203.5
2139,D4,514.0,2.0,45,203.5
2140,F4,514.0,2.0,45,203.5
2141,G2,514.5,0.25,49,203.5
2142,G4,515.0,1.0,49,203.5
2143,A2,515.0,0.25,53,203.5
2144,B2,515.5,0.25,45,203.5
2145,C3,516.0,0.25,53,203.5
2146,G3,516.0,4.0,80,203.5
2147,C4,516.0,2.0,54,203.5
2148,E-4,516.0,2.0,54,203.5
2149,G4,516.0,2.0,54,203.5
2150,D3,516.5,0.25,49,203.5
2151,E-3,517.0,0.25,51,203.5
2152,D3,518.0,1.0,53,203.5
2153,G5,518.5,0.25,48,203.5
2154,G4,518.5,0.25,48,203.5
2155,C3,519.0,1.0,50,203.5
2156,F5,519.0,0.25,53,203.5
2157,F4,519.0,0.25,53,203.5
2158,E-5,519.5,0.25,50,203.5
2159,E-4,519.5,0.25,50,203.5
2160,E-5,520.0,0.5,55,203.5
2161,E-4,520.0,0.5,55,203.5
2162,D3,520.0,1.0,47,203.5
2163,F3,520.0,1.0,47,203.5
2164,F2,520.0,1.0,47,203.5
2165,G#2,520.0,1.0,47,203.5
2166,D5,520.5,0.5,48,203.5
2167,D4,520.5,0.5,48,203.5
2168,C5,521.0,0.25,48,203.5
2169,C4,521.0,0.25,48,203.5
2170,B4,521.5,0.25,48,203.5
2171,B3,521.5,0.25,48,203.5
2172,G#3,522.0,0.25,55,203.5
2173,G#4,522.0,0.25,55,203.5
2174,B2,522.0,1.0,44,203.5
2175,G2,522.0,1.0,44,203.5
2176,D3,522.0,1.0,44,203.5
2177,F3,522.0,1.0,44,203.5
2178,G3,522.5,0.25,48,203.5
2179,G4,522.5,0.25,48,203.5
2180,A3,523.0,0.25,48,203.5
2181,A4,523.0,0.25,48,203.5
2182,B3,523.5,0.25,48,203.5
2183,B4,523.5,0.25,48,203.5
2184,C4,524.0,1.0,54,203.5
2185,C5,524.0,1.0,54,203.5
2186,E-3,524.0,0.5,54,203.5
2187,C3,524.0,0.5,54,203.5
2188,G3,524.5,0.25,48,203.5
2189,G3,525.0,0.25,48,203.5
2190,C5,525.5,0.5,54,203.5
2191,G3,525.5,0.25,48,203.5
2192,B4,526.0,0.5,60,203.5
2193,G3,526.0,0.5,54,203.5
2194,C5,526.5,0.5,55,203.5
2195,G3,526.5,0.25,47,203.5
2196,B2,527.0,0.25,47,203.5
2197,D5,527.0,0.25,57,203.5
2198,F5,527.0,0.25,57,203.5
2199,G3,527.5,0.25,47,203.5
2200,D5,527.5,0.25,52,203.5
2201,F5,527.5,0.25,52,203.5
2202,C3,528.0,0.5,63,203.5
2203,C5,528.0,1.0,60,203.5
2204,E-5,528.0,1.0,60,203.5
2205,G3,528.5,0.25,52,203.5
2206,G3,529.0,0.25,52,203.5
2207,C5,529.5,0.5,61,203.5
2208,G3,529.5,0.25,52,203.5
2209,B4,530.0,0.5,68,203.5
2210,G3,530.0,0.5,59,203.5
2211,C5,530.5,0.5,63,203.5
2212,G3,530.5,0.25,52,203.5
2213,B2,531.0,0.25,52,203.5
2214,F5,531.0,0.25,64,203.5
2215,G#5,531.0,0.25,64,203.5
2216,G3,531.5,0.25,52,203.5
2217,F5,531.5,0.25,59,203.5
2218,G#5,531.5,0.25,59,203.5
2219,C3,532.0,0.5,69,203.5
2220,E-5,532.0,1.0,70,203.5
2221,G5,532.0,1.0,70,203.5
2222,G3,532.5,0.25,55,203.5
2223,G3,533.0,0.25,55,203.5
2224,C6,533.5,0.5,74,203.5
2225,G3,533.5,0.25,55,203.5
2226,B5,534.0,0.5,84,203.5
2227,G3,534.0,0.5,71,203.5
2228,C6,534.5,0.5,77,203.5
2229,G3,534.5,0.25,62,203.5
2230,F6,535.0,0.25,94,203.5
2231,D6,535.0,0.25,94,203.5
2232,B2,535.0,0.25,60,203.5
2233,D3,535.0,0.25,60,203.5
2234,F3,535.0,0.25,60,203.5
2235,G3,535.0,0.25,60,203.5
2236,D6,535.5,0.25,86,203.5
2237,F6,535.5,0.25,86,203.5
2238,B2,535.5,0.25,61,203.5
2239,D3,535.5,0.25,61,203.5
2240,F3,535.5,0.25,61,203.5
2241,G3,535.5,0.25,61,203.5
2242,D6,536.0,1.0,101,203.5
2243,F6,536.0,1.25,101,203.5
2244,G3,536.0,4.0,58,203.5
2245,B2,536.0,4.0,58,203.5
2246,D3,536.0,4.0,58,203.5
2247,F3,536.0,4.0,58,203.5
2248,E-6,537.25,0.25,74,203.5
2249,D6,537.5,0.25,73,203.5
2250,C6,537.75,0.25,72,203.5
2251,B5,538.0,0.25,72,203.5
2252,C6,538.25,0.25,72,203.5
2253,D6,538.5,0.25,71,203.5
2254,C6,538.75,0.25,70,203.5
2255,B5,539.0,0.25,69,203.5
2256,G#5,539.25,0.25,68,203.5
2257,G5,539.5,0.25,67,203.5
2258,F5,539.75,0.25,66,203.5
2259,E-5,540.0,333/1000,66,203.5
2260,C3,540.0,1.0,55,203.5
2261,E-3,540.0,1.0,55,203.5
2262,G3,540.0,1.0,55,203.5
2263,F5,540.333,333/1000,62,203.5
2264,G5,540.667,333/1000,62,203.5
2265,F5,541.0,333/1000,66,203.5
2266,E-5,541.333,333/1000,62,203.5
2267,D5,541.667,333/1000,62,203.5
2268,C5,542.0,333/1000,66,203.5
2269,B-4,542.333,333/1000,62,203.5
2270,G#4,542.667,333/1000,62,203.5
2271,G4,543.0,333/1000,66,203.5
2272,F4,543.333,333/1000,60,203.5
2273,E-4,543.667,333/1000,63,203.5
2274,F2,544.0,0.5,73,203.5
2275,D4,544.25,0.25,59,203.5
2276,F4,544.5,0.25,63,203.5
2277,G#4,544.75,0.25,67,203.5
2278,D5,545.0,0.5,72,203.5
2279,F3,545.5,0.25,63,203.5
2280,G2,546.0,0.5,70,203.5
2281,B3,546.25,0.25,63,203.5
2282,D4,546.5,0.25,66,203.5
2283,F4,546.75,0.25,69,203.5
2284,B4,547.0,0.5,72,203.5
2285,G3,547.5,0.25,63,203.5
2286,B4,548.0,0.25,67,203.5
2287,B5,548.25,0.25,60,203.5
2288,B4,548.5,0.25,67,203.5
2289,F4,548.5,0.25,63,203.5
2290,B5,548.75,0.25,60,203.5
2291,G4,548.75,0.25,65,203.5
2292,B4,549.0,0.25,67,203.5
2293,G#4,549.0,0.25,69,203.5
2294,B5,549.25,0.25,59,203.5
2295,G4,549.25,0.25,67,203.5
2296,B4,549.5,0.25,67,203.5
2297,F4,549.5,0.25,65,203.5
2298,B5,549.75,0.25,61,203.5
2299,E-4,549.75,0.25,64,203.5
2300,B4,550.0,0.25,67,203.5
2301,D4,550.0,333/1000,67,203.5
2302,B5,550.25,0.25,59,203.5
2303,C4,550.333,333/1000,61,203.5
2304,B4,550.5,0.25,67,203.5
2305,B3,550.667,333/1000,61,203.5
2306,B5,550.75,0.25,59,203.5
2307,B4,551.0,0.25,67,203.5
2308,G#3,551.0,333/1000,67,203.5
2309,B5,551.25,0.25,59,203.5
2310,G3,551.333,333/1000,62,203.5
2311,B4,551.5,0.25,67,203.5
2312,F3,551.667,333/1000,62,203.5
2313,B5,551.75,0.25,60,203.5
2314,C5,552.0,0.25,67,203.5
2315,E-3,552.0,333/1000,67,203.5
2316,C6,552.25,0.25,60,203.5
2317,F3,552.333,333/1000,63,203.5
2318,C5,552.5,0.25,69,203.5
2319,G3,552.667,333/1000,63,203.5
2320,C6,552.75,0.25,62,203.5
2321,C5,553.0,0.25,71,203.5
2322,F3,553.0,333/1000,67,203.5
2323,C6,553.25,0.25,63,203.5
2324,E-3,553.333,333/1000,60,203.5
2325,C5,553.5,0.25,72,203.5
2326,D3,553.667,333/1000,60,203.5
2327,C6,553.75,0.25,67,203.5
2328,C5,554.0,0.25,75,203.5
2329,C3,554.0,333/1000,70,203.5
2330,C6,554.25,0.25,67,203.5
2331,B-2,554.333,333/1000,63,203.5
2332,C5,554.5,0.25,77,203.5
2333,G#2,554.667,333/1000,66,203.5
2334,C6,554.75,0.25,69,203.5
2335,C5,555.0,0.25,80,203.5
2336,G2,555.0,333/1000,74,203.5
2337,C6,555.25,0.25,71,203.5
2338,F2,555.333,333/1000,67,203.5
2339,C5,555.5,0.25,81,203.5
2340,E-2,555.667,333/1000,67,203.5
2341,C6,555.75,0.25,73,203.5
2342,F1,556.0,0.5,73,203.5
2343,F2,556.0,0.5,73,203.5
2344,F5,556.25,0.25,71,203.5
2345,G#5,556.5,0.25,76,203.5
2346,D6,556.75,0.25,81,203.5
2347,F6,557.0,0.5,86,203.5
2348,F1,557.5,0.25,63,203.5
2349,F2,557.5,0.25,63,203.5
2350,G1,558.0,0.5,70,203.5
2351,G2,558.0,0.5,70,203.5
2352,D5,558.25,0.25,75,203.5
2353,F5,558.5,0.25,79,203.5
2354,B5,558.75,0.25,82,203.5
2355,D6,559.0,0.5,86,203.5
2356,G1,559.5,0.25,63,203.5
2357,G2,559.5,0.25,63,203.5
2358,C5,560.0,1.0,84,203.5
2359,G5,560.0,1.0,84,203.5
2360,E-5,560.0,1.0,84,203.5
2361,C6,560.0,1.0,84,203.5
2362,C2,560.0,1.0,62,203.5
2363,E-2,560.0,1.0,62,203.5
2364,G2,560.0,1.0,62,203.5
2365,C3,560.0,1.0,62,203.5
2366,G5,561.0,0.25,63,203.5
2367,C#4,561.0,0.25,58,203.5
2368,E4,561.0,0.25,58,203.5
2369,G5,561.5,0.25,63,203.5
2370,C#4,561.5,0.25,58,203.5
2371,E4,561.5,0.25,58,203.5
2372,G5,562.0,0.5,70,203.5
2373,D4,562.0,0.5,64,203.5
2374,F4,562.0,0.5,64,203.5
2375,G5,563.0,0.25,63,203.5
2376,C#4,563.0,0.25,58,203.5
2377,E4,563.0,0.25,58,203.5
2378,G5,563.5,0.25,63,203.5
2379,C#4,563.5,0.25,58,203.5
2380,E4,563.5,0.25,58,203.5
2381,G5,564.0,0.5,69,203.5
2382,D4,564.0,0.5,64,203.5
2383,F4,564.0,0.5,64,203.5
2384,D3,565.0,0.5,64,203.5
2385,F3,565.0,0.5,64,203.5
2386,B3,565.0,0.5,64,203.5
2387,G1,565.0,0.5,68,203.5
2388,G2,565.0,0.5,68,203.5
2389,D3,567.0,0.25,35,203.5
2390,F3,567.0,0.25,35,203.5
2391,B3,567.0,0.25,35,203.5
2392,G1,567.0,0.25,33,203.5
2393,G2,567.0,0.25,33,203.5
2394,C3,568.0,0.25,40,203.5
2395,E-3,568.0,0.25,40,203.5
2396,C4,568.0,0.25,40,203.5
2397,G#1,568.0,0.25,35,203.5
2398,G#2,568.0,0.25,35,203.5
2399,A3,569.0,0.25,37,203.5
2400,C4,569.0,0.25,37,203.5
2401,D4,569.0,0.25,37,203.5
2402,F#1,569.0,0.25,33,203.5
2403,F#2,569.0,0.25,33,203.5
2404,G3,570.0,0.25,40,203.5
2405,C4,570.0,0.25,40,203.5
2406,E-4,570.0,0.25,40,203.5
2407,G1,570.0,0.25,35,203.5
2408,G2,570.0,0.25,35,203.5
2409,F3,571.0,0.25,35,203.5
2410,B3,571.0,0.25,35,203.5
2411,D4,571.0,0.25,35,203.5
2412,G1,571.0,0.25,30,203.5
2413,G2,571.0,0.25,30,203.5
2414,E-3,572.0,0.25,40,203.5
2415,G3,572.0,0.25,40,203.5
2416,C4,572.0,0.25,40,203.5
2417,C2,572.0,0.25,35,203.5
2418,C3,572.0,0.25,35,203.5
2419,G5,573.0,0.25,63,203.5
2420,C#4,573.0,0.25,58,203.5
2421,E4,573.0,0.25,58,203.5
2422,G#5,573.25,0.25,59,203.5
2423,G5,573.5,0.25,63,203.5
2424,C#4,573.5,0.25,58,203.5
2425,E4,573.5,0.25,58,203.5
2426,F#5,573.75,0.25,59,203.5
2427,G5,574.0,0.5,70,203.5
2428,D4,574.0,0.5,64,203.5
2429,F4,574.0,0.5,64,203.5
2430,G5,575.0,0.25,63,203.5
2431,C#4,575.0,0.25,58,203.5
2432,E4,575.0,0.25,58,203.5
2433,G#5,575.25,0.25,58,203.5
2434,G5,575.5,0.25,63,203.5
2435,E4,575.5,0.25,58,203.5
2436,C#4,575.5,0.25,58,203.5
2437,F#5,575.75,0.25,57,203.5
2438,G5,576.0,0.5,69,203.5
2439,D4,576.0,0.5,64,203.5
2440,F4,576.0,0.5,64,203.5
2441,D3,577.0,0.5,64,203.5
2442,F3,577.0,0.5,64,203.5
2443,B3,577.0,0.5,64,203.5
2444,G1,577.0,0.5,68,203.5
2445,G2,577.0,0.5,68,203.5
2446,C3,579.0,1.0,58,203.5
2447,E-3,579.0,1.0,58,203.5
2448,F#3,579.0,1.0,58,203.5
2449,C4,579.0,1.0,58,203.5
2450,G#1,579.0,1.0,58,203.5
2451,C2,579.0,1.0,58,203.5
2452,E-2,579.0,1.0,58,203.5
2453,G#2,579.0,1.0,58,203.5
2454,C3,580.0,1.0,58,203.5
2455,E-3,580.0,1.0,58,203.5
2456,F#3,580.0,1.0,58,203.5
2457,C4,580.0,1.0,58,203.5
2458,G#1,580.0,1.0,58,203.5
2459,C2,580.0,1.0,58,203.5
2460,E-2,580.0,1.0,58,203.5
2461,G#2,580.0,1.0,58,203.5
2462,A3,581.0,0.25,37,203.5
2463,C4,581.0,0.25,37,203.5
2464,D4,581.0,0.25,37,203.5
2465,F#1,581.0,0.25,33,203.5
2466,F#2,581.0,0.25,33,203.5
2467,G3,582.0,0.25,40,203.5
2468,C4,582.0,0.25,40,203.5
2469,E-4,582.0,0.25,40,203.5
2470,G1,582.0,0.25,35,203.5
2471,G2,582.0,0.25,35,203.5
2472,F3,583.0,0.25,35,203.5
2473,B3,583.0,0.25,35,203.5
2474,D4,583.0,0.25,35,203.5
2475,G1,583.0,0.25,30,203.5
2476,G2,583.0,0.25,30,203.5
2477,C2,584.0,0.5,32,203.5
2478,E-3,584.0,0.5,40,203.5
2479,G3,584.0,0.5,40,203.5
2480,C4,584.0,0.5,40,203.5
2481,C3,584.5,0.5,27,203.5
2482,B3,585.0,0.5,33,203.5
2483,F4,585.0,0.5,33,203.5
2484,C4,585.5,0.5,30,203.5
2485,E-4,585.5,0.5,30,203.5
2486,C2,586.0,0.5,32,203.5
2487,C3,586.5,0.5,28,203.5
2488,F4,587.0,0.5,34,203.5
2489,B4,587.0,0.5,34,203.5
2490,E-4,587.5,0.5,30,203.5
2491,C5,587.5,0.5,30,203.5
2492,C2,588.0,0.5,32,203.5
2493,C3,588.5,0.5,28,203.5
2494,F5,589.0,0.5,34,203.5
2495,B4,589.0,0.5,34,203.5
2496,C5,589.5,0.5,30,203.5
2497,E-5,589.5,0.5,30,203.5
2498,C2,590.0,0.5,32,203.5
2499,C3,590.5,0.5,27,203.5
2500,B5,591.0,0.5,40,203.5
2501,F5,591.0,0.5,40,203.5
2502,E-5,591.5,0.5,33,203.5
2503,C6,591.5,0.5,33,203.5
2504,G#1,592.0,0.5,36,203.5
2505,G#2,592.5,0.5,32,203.5
2506,C4,593.0,0.5,40,203.5
2507,F#4,593.0,0.5,40,203.5
2508,C#4,593.5,0.5,36,203.5
2509,F4,593.5,0.5,36,203.5
2510,G#1,594.0,0.5,42,203.5
2511,G#2,594.5,0.5,38,203.5
2512,F4,595.0,0.5,48,203.5
2513,C#5,595.0,0.5,48,203.5
2514,F#4,595.5,0.5,42,203.5
2515,C5,595.5,0.5,42,203.5
2516,G#1,596.0,0.5,55,203.5
2517,G#2,596.5,0.5,51,203.5
2518,F5,597.0,0.5,60,203.5
2519,C#5,597.0,0.5,60,203.5
2520,C5,597.5,0.5,52,203.5
2521,F#5,597.5,0.5,52,203.5
2522,G#1,598.0,0.5,64,203.5
2523,G#2,598.5,0.5,56,203.5
2524,C#6,599.0,0.5,70,203.5
2525,F5,599.0,0.5,70,203.5
2526,F#5,599.5,0.5,60,203.5
2527,C6,599.5,0.5,60,203.5
2528,E-6,600.0,4.0,81,203.5
2529,F#5,600.0,4.0,81,203.5
2530,G#1,600.0,4.0,68,203.5
2531,G#2,600.0,4.0,68,203.5
2532,C#6,604.0,1.0,59,203.5
2533,E-5,604.0,2.0,40,203.5
2534,C6,605.0,1.0,54,203.5
2535,B-5,606.0,1.0,57,203.5
2536,C5,606.0,2.0,40,203.5
2537,G#5,607.0,0.5,50,203.5
2538,F5,607.5,167/1000,41,203.5
2539,F#5,607.667,167/1000,36,203.5
2540,G#5,607.833,167/1000,36,203.5
2541,F#5,608.0,2.0,50,203.5
2542,C5,608.0,2.0,40,203.5
2543,G#1,610.0,4.0,68,203.5
2544,G#2,610.0,4.0,68,203.5
2545,G#3,610.5,0.25,34,203.5
2546,B-3,611.0,0.25,31,203.5
2547,C4,611.5,0.25,31,203.5
2548,C#4,612.0,0.25,39,203.5
2549,F3,612.0,2.0,33,203.5
2550,G#3,612.0,2.0,33,203.5
2551,E-4,612.5,0.25,34,203.5
2552,F4,613.0,0.25,34,203.5
2553,G#3,614.0,0.25,35,203.5
2554,E-4,614.0,0.25,35,203.5
2555,G#3,615.0,0.25,30,203.5
2556,C#4,615.0,0.25,30,203.5
2557,F#3,616.0,2.5,32,203.5
2558,G#3,616.0,2.5,32,203.5
2559,C4,616.0,2.5,32,203.5
2560,F#4,616.0,2.5,32,203.5
2561,G#1,616.0,2.0,68,203.5
2562,G#2,616.0,2.0,68,203.5
2563,G#3,618.5,0.25,34,203.5
2564,B-3,619.0,0.25,31,203.5
2565,C4,619.5,0.25,31,203.5
2566,C#4,620.0,0.25,39,203.5
2567,F3,620.0,2.0,33,203.5
2568,G#3,620.0,2.0,33,203.5
2569,C#2,620.0,2.0,24,203.5
2570,C#3,620.0,2.0,24,203.5
2571,E-4,620.5,0.25,34,203.5
2572,F4,621.0,0.25,34,203.5
2573,E-3,622.0,0.25,34,203.5
2574,B-3,622.0,0.25,34,203.5
2575,E-4,622.0,0.25,34,203.5
2576,F#2,622.0,0.25,22,203.5
2577,C3,622.0,0.25,22,203.5
2578,B-3,623.0,0.25,29,203.5
2579,E-3,623.0,0.25,29,203.5
2580,C#4,623.0,0.25,29,203.5
2581,F2,623.0,0.25,21,203.5
2582,C#3,623.0,0.25,21,203.5
2583,C3,624.0,2.0,28,203.5
2584,E-3,624.0,2.0,28,203.5
2585,G#3,624.0,2.0,28,203.5
2586,G#2,624.0,2.5,24,203.5
2587,E-3,624.0,2.5,24,203.5
2588,G#3,626.5,0.25,34,203.5
2589,B-3,627.0,0.25,31,203.5
2590,C4,627.5,0.25,31,203.5
2591,C#4,628.0,0.25,39,203.5
2592,F3,628.0,2.0,33,203.5
2593,G#3,628.0,2.0,33,203.5
2594,C#2,628.0,2.0,24,203.5
2595,C#3,628.0,2.0,24,203.5
2596,E-4,628.5,0.25,34,203.5
2597,F4,629.0,0.25,34,203.5
2598,G#3,630.0,0.25,35,203.5
2599,E-4,630.0,0.25,35,203.5
2600,F#1,630.0,0.25,22,203.5
2601,F#2,630.0,0.25,22,203.5
2602,G#3,631.0,0.25,30,203.5
2603,C#4,631.0,0.25,30,203.5
2604,G1,631.0,0.25,21,203.5
2605,G2,631.0,0.25,21,203.5
2606,C4,632.0,499/250,28,203.5
2607,F#4,632.0,1.5,35,203.5
2608,F#3,632.0,4.0,28,203.5
2609,G#3,632.0,4.0,28,203.5
2610,G#1,632.0,2.0,20,203.5
2611,G#2,632.0,2.0,20,203.5
2612,E-4,633.5,0.5,30,203.5
2613,C4,634.0,2.0,34,203.5
2614,C#2,636.0,2.0,24,203.5
2615,C#3,636.0,2.0,24,203.5
2616,F#3,637.329,4671/1000,40,203.5
2617,A3,637.552,556/125,43,203.5
2618,C4,637.773,2221/1000,46,203.5
2619,F#4,638.0,1.5,49,203.5
2620,F#2,638.0,0.25,22,203.5
2621,C3,638.0,0.25,22,203.5
2622,F2,639.0,0.25,21,203.5
2623,C#3,639.0,0.25,21,203.5
2624,E-4,639.5,0.5,30,203.5
2625,C4,640.0,2.0,34,203.5
2626,G#2,640.0,4.0,25,203.5
2627,C3,640.0,4.0,25,203.5
2628,E-3,640.0,4.0,25,203.5
2629,G3,643.331,221/1000,63,203.5
2630,C4,643.552,223/1000,65,203.5
2631,E-4,643.773,227/1000,67,203.5
2632,G4,644.0,0.25,70,203.5
2633,A1,644.0,167/1000,30,203.5
2634,C2,644.167,167/1000,32,203.5
2635,E-2,644.333,167/1000,33,203.5
2636,E-4,644.5,0.25,63,203.5
2637,F#2,644.5,167/1000,34,203.5
2638,A2,644.665,5323/1000,36,203.5
2639,C3,644.885,1023/200,37,203.5
2640,C4,645.0,0.25,67,203.5
2641,E-3,645.108,1223/250,39,203.5
2642,G3,645.5,0.25,63,203.5
2643,G1,650.0,223/1000,60,203.5
2644,C2,650.223,221/1000,61,203.5
2645,E-2,650.444,223/1000,62,203.5
2646,C4,650.5,0.25,44,203.5
2647,G2,650.665,223/1000,63,203.5
2648,C3,650.888,221/1000,63,203.5
2649,D4,651.0,0.25,47,203.5
2650,E-3,651.108,223/1000,64,203.5
2651,E4,651.5,0.25,51,203.5
2652,F4,652.0,0.25,54,203.5
2653,G4,652.5,0.25,46,203.5
2654,G#4,653.0,0.25,47,203.5
2655,C6,653.5,0.5,56,203.5
2656,B5,654.0,0.5,65,203.5
2657,E-3,654.0,0.25,70,203.5
2658,C6,654.5,0.5,55,203.5
2659,C3,654.5,0.25,57,203.5
2660,F6,655.0,0.25,66,203.5
2661,B2,655.0,0.25,63,203.5
2662,G1,655.0,1.0,42,203.5
2663,G2,655.0,1.0,42,203.5
2664,F6,655.5,0.25,54,203.5
2665,D3,655.5,0.25,53,203.5
2666,E6,656.0,1.0,66,203.5
2667,C3,656.0,0.5,43,203.5
2668,C2,656.0,0.25,64,203.5
2669,C3,656.5,0.25,38,203.5
2670,C3,657.0,0.25,38,203.5
2671,C3,657.5,0.25,38,203.5
2672,C3,658.0,0.25,41,203.5
2673,C4,658.5,0.25,44,203.5
2674,B-3,658.5,0.25,34,203.5
2675,G3,658.5,0.25,34,203.5
2676,D4,659.0,0.25,47,203.5
2677,B-3,659.0,0.25,34,203.5
2678,G3,659.0,0.25,34,203.5
2679,E4,659.5,0.25,51,203.5
2680,B-3,659.5,0.25,34,203.5
2681,G3,659.5,0.25,34,203.5
2682,F4,660.0,0.25,54,203.5
2683,C3,660.0,0.25,43,203.5
2684,G4,660.5,0.25,46,203.5
2685,F3,660.5,0.25,34,203.5
2686,G#3,660.5,0.25,34,203.5
2687,G#4,661.0,0.25,47,203.5
2688,F3,661.0,0.25,34,203.5
2689,G#3,661.0,0.25,34,203.5
2690,C6,661.5,0.5,56,203.5
2691,F3,661.5,0.25,34,203.5
2692,G#3,661.5,0.25,34,203.5
2693,B5,662.0,0.5,65,203.5
2694,C3,662.0,0.25,41,203.5
2695,C6,662.5,0.5,55,203.5
2696,B3,662.5,0.25,33,203.5
2697,G#3,662.5,0.25,33,203.5
2698,F3,662.5,0.25,33,203.5
2699,F6,663.0,0.25,66,203.5
2700,B3,663.0,0.25,33,203.5
2701,G#3,663.0,0.25,33,203.5
2702,F3,663.0,0.25,33,203.5
2703,F6,663.5,0.25,54,203.5
2704,B3,663.5,0.25,33,203.5
2705,G#3,663.5,0.25,33,203.5
2706,F3,663.5,0.25,33,203.5
2707,E6,664.0,1.0,66,203.5
2708,C3,664.0,0.5,43,203.5
2709,E3,664.5,0.25,34,203.5
2710,G3,664.5,0.25,34,203.5
2711,C4,664.5,0.25,34,203.5
2712,E3,665.0,0.25,34,203.5
2713,G3,665.0,0.25,34,203.5
2714,C4,665.0,0.25,34,203.5
2715,C5,665.5,0.5,50,203.5
2716,E3,665.5,0.25,34,203.5
2717,G3,665.5,0.25,34,203.5
2718,C4,665.5,0.25,34,203.5
2719,B4,666.0,0.5,57,203.5
2720,C3,666.0,0.25,41,203.5
2721,C5,666.5,0.5,47,203.5
2722,B-3,666.5,0.25,34,203.5
2723,G3,666.5,0.25,34,203.5
2724,F5,667.0,0.25,57,203.5
2725,B-3,667.0,0.25,34,203.5
2726,G3,667.0,0.25,34,203.5
2727,F5,667.5,0.25,45,203.5
2728,B-3,667.5,0.25,34,203.5
2729,G3,667.5,0.25,34,203.5
2730,E5,668.0,1.0,55,203.5
2731,C3,668.0,0.25,43,203.5
2732,F3,668.5,0.25,34,203.5
2733,G#3,668.5,0.25,34,203.5
2734,F3,669.0,0.25,34,203.5
2735,G#3,669.0,0.25,34,203.5
2736,C4,669.5,0.5,45,203.5
2737,F3,669.5,0.25,34,203.5
2738,G#3,669.5,0.25,34,203.5
2739,B3,670.0,62/125,51,203.5
2740,C3,670.0,0.25,41,203.5
2741,C4,670.5,0.5,43,203.5
2742,B3,670.5,0.25,33,203.5
2743,G#3,670.5,0.25,33,203.5
2744,F3,670.5,0.25,33,203.5
2745,F4,671.0,0.25,51,203.5
2746,B3,671.0,0.25,33,203.5
2747,G#3,671.0,0.25,33,203.5
2748,F3,671.0,0.25,33,203.5
2749,F4,671.5,0.25,40,203.5
2750,B3,671.5,0.25,33,203.5
2751,G#3,671.5,0.25,33,203.5
2752,F3,671.5,0.25,33,203.5
2753,E4,672.0,1.0,49,203.5
2754,C3,672.0,0.5,43,203.5
2755,E3,672.5,0.25,34,203.5
2756,G3,672.5,0.25,34,203.5
2757,C4,672.5,0.25,34,203.5
2758,E3,673.0,0.25,34,203.5
2759,G3,673.0,0.25,34,203.5
2760,C4,673.0,0.25,34,203.5
2761,C2,673.5,62/125,30,203.5
2762,E3,673.5,0.25,34,203.5
2763,G3,673.5,0.25,34,203.5
2764,C4,673.5,0.25,34,203.5
2765,C2,674.0,1.0,40,203.5
2766,C3,674.0,0.25,40,203.5
2767,B3,674.5,0.25,32,203.5
2768,G#3,674.5,0.25,32,203.5
2769,F3,674.5,0.25,32,203.5
2770,B3,675.0,0.25,31,203.5
2771,G#3,675.0,0.25,31,203.5
2772,F3,675.0,0.25,31,203.5
2773,C2,675.5,0.5,26,203.5
2774,B3,675.5,0.25,31,203.5
2775,G#3,675.5,0.25,31,203.5
2776,F3,675.5,0.25,31,203.5
2777,C2,676.0,1.0,33,203.5
2778,C3,676.0,0.5,40,203.5
2779,E3,676.5,0.25,31,203.5
2780,G3,676.5,0.25,31,203.5
2781,C4,676.5,0.25,31,203.5
2782,E3,677.0,0.25,31,203.5
2783,G3,677.0,0.25,31,203.5
2784,C4,677.0,0.25,31,203.5
2785,E3,677.5,0.25,30,203.5
2786,G3,677.5,0.25,30,203.5
2787,C4,677.5,0.25,30,203.5
2788,C3,678.0,0.25,36,203.5
2789,B3,678.5,0.25,29,203.5
2790,G#3,678.5,0.25,29,203.5
2791,F3,678.5,0.25,29,203.5
2792,B3,679.0,0.25,28,203.5
2793,G#3,679.0,0.25,28,203.5
2794,F3,679.0,0.25,28,203.5
2795,B3,679.5,0.25,27,203.5
2796,G#3,679.5,0.25,27,203.5
2797,F3,679.5,0.25,27,203.5
2798,C3,680.0,0.5,32,203.5
2799,E3,680.5,0.25,24,203.5
2800,G3,680.5,0.25,24,203.5
2801,C4,680.5,0.25,24,203.5
2802,E3,681.0,0.25,24,203.5
2803,G3,681.0,0.25,24,203.5
2804,C4,681.0,0.25,24,203.5
2805,E3,681.5,0.25,24,203.5
2806,G3,681.5,0.25,24,203.5
2807,C4,681.5,0.25,24,203.5
2808,C3,682.0,0.5,32,203.5
2809,E3,682.5,0.25,23,203.5
2810,G3,682.5,0.25,23,203.5
2811,C4,682.5,0.25,23,203.5
2812,E3,683.0,0.25,23,203.5
2813,G3,683.0,0.25,23,203.5
2814,C4,683.0,0.25,23,203.5
2815,E3,683.5,0.25,22,203.5
2816,G3,683.5,0.25,22,203.5
2817,C4,683.5,0.25,22,203.5
2818,C3,684.0,1.0,21,203.5
2819,E3,684.0,1.0,21,203.5
2820,G3,684.0,1.0,21,203.5
