,note_name,start_time,duration,velocity,tempo
0,F6,0.0,0.25,80,120.0
1,D6,0.0,0.25,80,120.0
2,G#5,0.0,0.25,80,120.0
3,G#6,0.0,0.25,80,120.0
4,F4,0.0,0.25,68,120.0
5,G#4,0.0,0.25,68,120.0
6,D4,0.0,0.25,68,120.0
7,B-3,0.0,0.25,68,120.0
8,B-3,0.5,0.25,66,120.0
9,B-2,0.5,0.25,60,120.0
10,A3,0.75,0.25,57,120.0
11,D3,0.75,0.25,50,120.0
12,B-3,1.0,0.25,57,120.0
13,B-2,1.0,0.25,60,120.0
14,D4,1.25,0.25,56,120.0
15,D3,1.25,0.25,51,120.0
16,F4,1.5,0.25,67,120.0
17,D3,1.5,0.25,59,120.0
18,D4,1.75,0.25,56,120.0
19,F3,1.75,0.25,52,120.0
20,F4,2.0,0.25,54,120.0
21,D3,2.0,0.25,59,120.0
22,G#4,2.25,0.25,55,120.0
23,F3,2.25,0.25,52,120.0
24,F4,2.5,0.25,55,120.0
25,D3,2.5,0.25,59,120.0
26,D4,2.75,0.25,55,120.0
27,F3,2.75,0.25,51,120.0
28,G#4,3.0,0.25,65,120.0
29,F3,3.0,0.25,59,120.0
30,F4,3.25,0.25,56,120.0
31,G#3,3.25,0.25,51,120.0
32,G#4,3.5,0.25,57,120.0
33,F3,3.5,0.25,59,120.0
34,B-4,3.75,0.25,56,120.0
35,G#3,3.75,0.25,50,120.0
36,G#4,4.0,0.25,55,120.0
37,F3,4.0,0.25,58,120.0
38,F4,4.25,0.25,55,120.0
39,G#3,4.25,0.25,50,120.0
40,B-4,4.5,0.25,67,120.0
41,B-3,4.5,0.25,58,120.0
42,G#4,4.75,0.25,55,120.0
43,D4,4.75,0.25,50,120.0
44,B-4,5.0,0.25,55,120.0
45,B-3,5.0,0.25,58,120.0
46,D5,5.25,0.25,55,120.0
47,D4,5.25,0.25,50,120.0
48,B-4,5.5,0.25,55,120.0
49,B-3,5.5,0.25,58,120.0
50,G#4,5.75,0.25,55,120.0
51,D4,5.75,0.25,51,120.0
52,F5,6.0,0.25,64,120.0
53,D4,6.0,0.25,57,120.0
54,D5,6.25,0.25,54,120.0
55,F4,6.25,0.25,50,120.0
56,F5,6.5,0.25,55,120.0
57,D4,6.5,0.25,57,120.0
58,G#5,6.75,0.25,55,120.0
59,F4,6.75,0.25,49,120.0
60,F5,7.0,0.25,54,120.0
61,D4,7.0,0.25,57,120.0
62,D5,7.25,0.25,54,120.0
63,F4,7.25,0.25,48,120.0
64,G#5,7.5,0.25,65,120.0
65,F4,7.5,0.25,57,120.0
66,F5,7.75,0.25,54,120.0
67,G#4,7.75,0.25,48,120.0
68,G#5,8.0,0.25,54,120.0
69,F4,8.0,0.25,57,120.0
70,B-5,8.25,0.25,54,120.0
71,G#4,8.25,0.25,49,120.0
72,G#5,8.5,0.25,53,120.0
73,F4,8.5,0.25,56,120.0
74,F5,8.75,0.25,53,120.0
75,G#4,8.75,0.25,50,120.0
76,B-5,9.0,0.25,62,120.0
77,D5,9.0,0.25,56,120.0
78,G#5,9.25,0.25,53,120.0
79,F5,9.25,0.25,49,120.0
80,B-5,9.5,0.25,54,120.0
81,D5,9.5,0.25,56,120.0
82,D6,9.75,0.25,54,120.0
83,F5,9.75,0.25,47,120.0
84,B-5,10.0,0.25,53,120.0
85,D5,10.0,0.25,56,120.0
86,G#5,10.25,0.25,53,120.0
87,F5,10.25,0.25,47,120.0
88,D6,10.5,0.25,64,120.0
89,F5,10.5,0.25,56,120.0
90,B-5,10.75,0.25,53,120.0
91,G#5,10.75,0.25,47,120.0
92,D6,11.0,0.25,52,120.0
93,F5,11.0,0.25,55,120.0
94,F6,11.25,0.25,52,120.0
95,G#5,11.25,0.25,48,120.0
96,D6,11.5,0.25,52,120.0
97,F5,11.5,0.25,55,120.0
98,B-5,11.75,0.25,52,120.0
99,G#5,11.75,0.25,49,120.0
100,F6,12.0,0.25,57,120.0
101,D6,12.25,0.25,49,120.0
102,F6,12.5,0.25,50,120.0
103,G#6,12.75,0.25,49,120.0
104,F6,13.0,0.25,48,120.0
105,F5,13.0,1.5,33,120.0
106,G#5,13.0,0.5,33,120.0
107,D6,13.25,0.25,48,120.0
108,B-5,13.5,0.25,58,120.0
109,D5,13.5,1.0,38,120.0
110,A5,13.75,0.25,48,120.0
111,B-5,14.0,0.25,47,120.0
112,D6,14.25,0.25,47,120.0
113,F6,14.5,0.25,47,120.0
114,D6,14.75,0.25,47,120.0
115,F6,15.0,0.25,54,120.0
116,D6,15.25,0.25,46,120.0
117,F6,15.5,0.25,47,120.0
118,G#6,15.75,0.25,47,120.0
119,F6,16.0,0.25,46,120.0
120,G#5,16.0,0.5,32,120.0
121,F5,16.0,1.5,32,120.0
122,D6,16.25,0.25,45,120.0
123,B-5,16.5,0.25,55,120.0
124,D5,16.5,1.0,36,120.0
125,A5,16.75,0.25,45,120.0
126,B-5,17.0,0.25,45,120.0
127,D6,17.25,0.25,45,120.0
128,F6,17.5,0.25,44,120.0
129,D6,17.75,0.25,44,120.0
130,F5,18.0,0.25,51,120.0
131,D5,18.25,0.25,44,120.0
132,F5,18.5,0.25,45,120.0
133,G#5,18.75,0.25,44,120.0
134,F5,19.0,0.25,43,120.0
135,G#4,19.0,0.5,30,120.0
136,F4,19.0,1.5,30,120.0
137,D5,19.25,0.25,43,120.0
138,B-4,19.5,0.25,52,120.0
139,D4,19.5,1.0,34,120.0
140,A4,19.75,0.25,43,120.0
141,B-4,20.0,0.25,42,120.0
142,D5,20.25,0.25,42,120.0
143,F5,20.5,0.25,42,120.0
144,D5,20.75,0.25,42,120.0
145,F5,21.0,0.25,48,120.0
146,D5,21.25,0.25,41,120.0
147,F5,21.5,0.25,42,120.0
148,G#5,21.75,0.25,41,120.0
149,F5,22.0,0.25,41,120.0
150,F4,22.0,1.5,28,120.0
151,G#4,22.0,0.5,28,120.0
152,D5,22.25,0.25,40,120.0
153,B-4,22.5,0.25,49,120.0
154,D4,22.5,1.0,31,120.0
155,A4,22.75,0.25,40,120.0
156,B-4,23.0,0.25,40,120.0
157,D5,23.25,0.25,40,120.0
158,F5,23.5,0.25,39,120.0
159,D5,23.75,0.25,39,120.0
160,G#5,24.0,0.25,80,120.0
161,D5,24.0,0.25,80,120.0
162,F5,24.0,0.25,80,120.0
163,G#4,24.0,0.25,80,120.0
164,B-3,24.0,0.25,68,120.0
165,D3,24.0,0.25,68,120.0
166,B-2,24.0,0.25,68,120.0
167,F3,24.0,0.25,68,120.0
168,B-3,24.5,0.25,66,120.0
169,B-2,24.5,0.25,60,120.0
170,A3,24.75,0.25,57,120.0
171,B-3,25.0,0.25,56,120.0
172,B-2,25.0,0.25,59,120.0
173,A3,25.25,0.25,54,120.0
174,C4,25.5,0.25,64,120.0
175,D3,25.5,0.25,57,120.0
176,B-3,25.75,0.25,53,120.0
177,E-4,26.0,0.25,51,120.0
178,F3,26.0,0.25,56,120.0
179,D4,26.25,0.25,51,120.0
180,G4,26.5,0.25,51,120.0
181,B-3,26.5,0.25,54,120.0
182,F4,26.75,0.25,50,120.0
183,B-4,27.0,0.25,60,120.0
184,D4,27.0,0.25,54,120.0
185,A4,27.25,0.25,51,120.0
186,C5,27.5,0.25,59,120.0
187,F4,27.5,0.25,54,120.0
188,B-4,27.75,0.25,50,120.0
189,E-5,28.0,0.25,50,120.0
190,G#4,28.0,0.25,52,120.0
191,B-4,28.0,0.25,52,120.0
192,D5,28.25,0.25,48,120.0
193,G5,28.5,0.25,57,120.0
194,B-4,28.5,0.25,50,120.0
195,G#4,28.5,0.25,50,120.0
196,F5,28.75,0.25,47,120.0
197,B-5,29.0,0.25,45,120.0
198,G#4,29.0,0.25,49,120.0
199,B-4,29.0,0.25,49,120.0
200,A5,29.25,0.25,45,120.0
201,C6,29.5,0.25,45,120.0
202,B-4,29.5,0.25,48,120.0
203,G#4,29.5,0.25,48,120.0
204,B-5,29.75,0.25,44,120.0
205,B-5,30.0,0.5,45,120.0
206,E-4,30.0,1.0,36,120.0
207,G4,30.0,1.0,36,120.0
208,B-4,30.0,1.0,36,120.0
209,G5,30.5,0.5,45,120.0
210,E-5,31.0,0.5,39,120.0
211,D5,31.5,0.5,45,120.0
212,F4,31.5,1.0,30,120.0
213,G#4,31.5,1.0,30,120.0
214,B-3,31.5,1.0,30,120.0
215,B-4,31.5,1.0,30,120.0
216,F5,32.0,0.5,40,120.0
217,B-5,32.5,0.375,40,120.0
218,B-5,33.0,0.5,45,120.0
219,E-4,33.0,1.0,36,120.0
220,B-4,33.0,1.0,36,120.0
221,G4,33.0,1.0,36,120.0
222,G5,33.5,0.5,41,120.0
223,E-5,34.0,0.375,41,120.0
224,E-5,34.5,0.5,45,120.0
225,G5,35.0,0.5,39,120.0
226,C6,35.5,0.375,51,120.0
227,E4,35.5,0.375,30,120.0
228,G4,35.5,0.375,30,120.0
229,B-4,35.5,0.375,30,120.0
230,C5,35.5,0.375,30,120.0
231,C6,36.0,0.5,57,120.0
232,G#4,36.0,1.0,36,120.0
233,F4,36.0,1.0,36,120.0
234,C5,36.0,1.0,36,120.0
235,G#5,36.5,0.5,45,120.0
236,F5,37.0,0.5,45,120.0
237,E5,37.5,0.5,49,120.0
238,C5,37.5,1.0,30,120.0
239,B-4,37.5,1.0,30,120.0
240,C4,37.5,1.0,30,120.0
241,G4,37.5,1.0,30,120.0
242,G5,38.0,0.5,44,120.0
243,C6,38.5,0.375,51,120.0
244,C6,39.0,0.5,60,120.0
245,F4,39.0,1.0,36,120.0
246,G#4,39.0,1.0,36,120.0
247,C5,39.0,1.0,36,120.0
248,G#5,39.5,0.5,45,120.0
249,F5,40.0,0.5,45,120.0
250,D5,40.5,0.5,51,120.0
251,F5,41.0,0.5,45,120.0
252,B-5,41.5,0.375,45,120.0
253,F4,41.5,0.375,32,120.0
254,D4,41.5,0.375,32,120.0
255,G#4,41.5,0.375,32,120.0
256,B-4,41.5,0.375,32,120.0
257,B-5,42.0,0.5,50,120.0
258,G4,42.0,1.0,35,120.0
259,B-4,42.0,1.0,35,120.0
260,E-4,42.0,1.0,35,120.0
261,G5,42.5,0.5,43,120.0
262,E-5,43.0,0.5,43,120.0
263,C5,43.5,0.5,45,120.0
264,G#3,43.5,1.0,31,120.0
265,C4,43.5,1.0,31,120.0
266,F4,43.5,1.0,31,120.0
267,F5,44.0,0.5,41,120.0
268,G#5,44.5,0.375,41,120.0
269,B-4,45.0,0.5,47,120.0
270,E-4,45.0,1.0,37,120.0
271,B-3,45.0,1.0,37,120.0
272,G4,45.0,1.0,37,120.0
273,E-5,45.5,0.5,43,120.0
274,G5,46.0,0.375,43,120.0
275,G#4,46.5,0.5,48,120.0
276,B-3,46.5,1.0,35,120.0
277,F4,46.5,1.0,35,120.0
278,D4,46.5,1.0,35,120.0
279,D5,47.0,0.5,43,120.0
280,B-3,47.5,0.375,39,120.0
281,F5,47.5,0.375,43,120.0
282,G#4,47.5,0.375,43,120.0
283,B-3,48.0,0.5,49,120.0
284,E-5,48.0,0.5,49,120.0
285,G4,48.0,0.5,49,120.0
286,G3,48.5,0.5,49,120.0
287,G5,49.0,0.5,49,120.0
288,E-3,49.0,0.5,42,120.0
289,G#5,49.5,0.25,49,120.0
290,D3,49.5,0.5,49,120.0
291,G5,49.75,0.25,45,120.0
292,G#5,50.0,0.25,49,120.0
293,F3,50.0,0.5,45,120.0
294,F5,50.25,0.25,44,120.0
295,B-5,50.5,0.25,49,120.0
296,B-3,50.5,0.375,45,120.0
297,G#5,50.75,0.25,44,120.0
298,G5,51.0,0.5,67,120.0
299,B-3,51.0,0.5,51,120.0
300,B-6,51.5,0.5,62,120.0
301,G3,51.5,0.5,47,120.0
302,E-3,52.0,0.375,47,120.0
303,E-3,52.5,0.5,52,120.0
304,G3,53.0,0.5,46,120.0
305,G4,53.5,0.375,49,120.0
306,E3,53.5,0.375,54,120.0
307,C4,53.5,0.375,54,120.0
308,C4,54.0,0.5,60,120.0
309,F3,54.0,0.5,60,120.0
310,G#3,54.5,0.5,53,120.0
311,G#4,55.0,0.5,49,120.0
312,F3,55.0,0.5,53,120.0
313,B-4,55.5,0.25,51,120.0
314,E3,55.5,0.5,59,120.0
315,G#4,55.75,0.25,41,120.0
316,B-4,56.0,0.25,49,120.0
317,G3,56.0,0.5,53,120.0
318,G4,56.25,0.25,42,120.0
319,C5,56.5,0.25,49,120.0
320,C4,56.5,0.375,58,120.0
321,B-4,56.75,0.25,47,120.0
322,G#4,57.0,0.5,69,120.0
323,C4,57.0,0.5,70,120.0
324,C6,57.5,0.5,61,120.0
325,G#3,57.5,0.5,56,120.0
326,F3,58.0,0.5,57,120.0
327,D3,58.5,0.5,64,120.0
328,F3,59.0,0.5,58,120.0
329,F5,59.5,0.375,55,120.0
330,D3,59.5,0.375,58,120.0
331,B-3,59.5,0.375,58,120.0
332,B-3,60.0,0.5,66,120.0
333,E-3,60.0,0.5,66,120.0
334,G3,60.5,0.5,56,120.0
335,G5,61.0,0.5,53,120.0
336,E-3,61.0,0.5,57,120.0
337,G#5,61.5,0.25,53,120.0
338,G#2,61.5,0.5,54,120.0
339,C3,61.5,0.5,54,120.0
340,G5,61.75,0.25,49,120.0
341,G#5,62.0,0.25,55,120.0
342,F3,62.0,0.5,55,120.0
343,F5,62.25,0.25,49,120.0
344,G#6,62.5,0.375,74,120.0
345,G#3,62.5,0.375,55,120.0
346,B-2,63.0,0.5,61,120.0
347,E-3,63.5,0.5,56,120.0
348,E-5,64.0,0.375,49,120.0
349,G3,64.0,0.375,56,120.0
350,F5,64.5,0.25,57,120.0
351,B-2,64.5,0.5,62,120.0
352,E-5,64.75,0.25,49,120.0
353,F5,65.0,0.25,56,120.0
354,D3,65.0,0.5,56,120.0
355,D5,65.25,0.25,49,120.0
356,F6,65.5,0.375,72,120.0
357,B-3,65.5,0.375,56,120.0
358,B-2,65.5,0.375,56,120.0
359,G4,66.0,0.25,81,120.0
360,B-2,66.0,0.5,63,120.0
361,G5,66.25,0.25,60,120.0
362,G4,66.5,0.25,69,120.0
363,G2,66.5,0.5,63,120.0
364,G5,66.75,0.25,59,120.0
365,B-4,67.0,0.25,67,120.0
366,E-2,67.0,0.5,55,120.0
367,B-5,67.25,0.25,59,120.0
368,B-4,67.5,0.25,77,120.0
369,D2,67.5,0.5,63,120.0
370,B-5,67.75,0.25,57,120.0
371,B-4,68.0,0.25,63,120.0
372,F2,68.0,0.5,57,120.0
373,B-5,68.25,0.25,56,120.0
374,G#4,68.5,0.25,63,120.0
375,B-2,68.5,0.375,57,120.0
376,G#5,68.75,0.25,56,120.0
377,G4,69.0,0.25,73,120.0
378,B-2,69.0,0.5,63,120.0
379,G5,69.25,0.25,60,120.0
380,G4,69.5,0.25,66,120.0
381,G2,69.5,0.5,58,120.0
382,G5,69.75,0.25,60,120.0
383,B-4,70.0,0.25,66,120.0
384,E-2,70.0,0.375,58,120.0
385,B-5,70.25,0.25,59,120.0
386,B-4,70.5,0.25,73,120.0
387,E-2,70.5,0.5,63,120.0
388,B-5,70.75,0.25,60,120.0
389,B-4,71.0,0.25,63,120.0
390,G2,71.0,0.5,55,120.0
391,B-5,71.25,0.25,55,120.0
392,G4,71.5,0.25,66,120.0
393,E2,71.5,0.375,64,120.0
394,C3,71.5,0.375,64,120.0
395,G5,71.75,0.25,60,120.0
396,G#4,72.0,0.25,73,120.0
397,C3,72.0,0.5,70,120.0
398,F2,72.0,0.5,70,120.0
399,G#5,72.25,0.25,53,120.0
400,G#4,72.5,0.25,61,120.0
401,G#2,72.5,0.5,63,120.0
402,G#5,72.75,0.25,53,120.0
403,C5,73.0,0.25,61,120.0
404,F2,73.0,0.5,63,120.0
405,C6,73.25,0.25,56,120.0
406,C5,73.5,0.25,73,120.0
407,E2,73.5,0.5,69,120.0
408,C6,73.75,0.25,53,120.0
409,C5,74.0,0.25,61,120.0
410,G2,74.0,0.5,62,120.0
411,C6,74.25,0.25,55,120.0
412,B-4,74.5,0.25,61,120.0
413,C3,74.5,0.375,73,120.0
414,B-5,74.75,0.25,53,120.0
415,G#4,75.0,0.25,73,120.0
416,C3,75.0,0.5,86,120.0
417,G#5,75.25,0.25,55,120.0
418,G#4,75.5,0.25,61,120.0
419,G#2,75.5,0.5,63,120.0
420,G#5,75.75,0.25,55,120.0
421,C5,76.0,0.25,61,120.0
422,F2,76.0,0.5,63,120.0
423,C6,76.25,0.25,55,120.0
424,C5,76.5,0.25,73,120.0
425,D2,76.5,0.5,72,120.0
426,C6,76.75,0.25,52,120.0
427,B-4,77.0,0.25,59,120.0
428,F2,77.0,0.5,63,120.0
429,B-5,77.25,0.25,52,120.0
430,G#4,77.5,0.25,59,120.0
431,D2,77.5,0.375,64,120.0
432,B-2,77.5,0.375,64,120.0
433,G#5,77.75,0.25,53,120.0
434,G4,78.0,0.25,73,120.0
435,E-2,78.0,0.5,72,120.0
436,B-2,78.0,0.5,72,120.0
437,G5,78.25,0.25,53,120.0
438,B-4,78.5,0.25,61,120.0
439,G2,78.5,0.5,60,120.0
440,B-5,78.75,0.25,55,120.0
441,E-5,79.0,0.25,61,120.0
442,E-2,79.0,0.5,60,120.0
443,E-6,79.25,0.25,55,120.0
444,E-5,79.5,0.25,73,120.0
445,G#1,79.5,1.0,53,120.0
446,C2,79.5,0.5,63,120.0
447,E-6,79.75,0.25,53,120.0
448,C5,80.0,0.25,60,120.0
449,F2,80.0,0.5,58,120.0
450,C6,80.25,0.25,53,120.0
451,G#4,80.5,0.25,60,120.0
452,G#2,80.5,0.375,63,120.0
453,G#5,80.75,0.25,53,120.0
454,E-5,81.0,0.25,73,120.0
455,B-1,81.0,0.5,69,120.0
456,E-6,81.25,0.25,56,120.0
457,B-4,81.5,0.25,62,120.0
458,E-2,81.5,0.5,58,120.0
459,B-5,81.75,0.25,55,120.0
460,G4,82.0,0.25,62,120.0
461,G2,82.0,0.375,58,120.0
462,G5,82.25,0.25,55,120.0
463,B-4,82.5,0.25,73,120.0
464,B-1,82.5,0.5,63,120.0
465,B-5,82.75,0.25,56,120.0
466,G#4,83.0,0.25,64,120.0
467,F2,83.0,0.5,57,120.0
468,G#5,83.25,0.25,57,120.0
469,F4,83.5,0.25,64,120.0
470,B-2,83.5,0.375,57,120.0
471,F5,83.75,0.25,58,120.0
472,G3,84.0,0.25,78,120.0
473,E-2,84.0,0.25,73,120.0
474,E-4,84.25,0.25,64,120.0
475,B-3,84.5,0.25,72,120.0
476,G3,84.5,0.25,56,120.0
477,E-3,84.5,0.25,56,120.0
478,G4,84.75,0.25,64,120.0
479,E-4,85.0,0.25,74,120.0
480,B-3,85.0,0.25,53,120.0
481,E-3,85.0,0.25,53,120.0
482,G3,85.0,0.25,53,120.0
483,B-4,85.25,0.25,64,120.0
484,G4,85.5,0.25,79,120.0
485,G3,85.5,0.25,52,120.0
486,E-4,85.5,0.25,52,120.0
487,B-3,85.5,0.25,52,120.0
488,E-3,85.5,0.25,52,120.0
489,E-5,85.75,0.25,64,120.0
490,B-4,86.0,0.25,70,120.0
491,E-3,86.0,0.25,52,120.0
492,E-4,86.0,0.25,52,120.0
493,B-3,86.0,0.25,52,120.0
494,G3,86.0,0.25,52,120.0
495,G5,86.25,0.25,64,120.0
496,E-5,86.5,0.25,71,120.0
497,B-3,86.5,0.25,52,120.0
498,E-4,86.5,0.25,52,120.0
499,E-3,86.5,0.25,52,120.0
500,G3,86.5,0.25,52,120.0
501,B-5,86.75,0.25,64,120.0
502,G5,87.0,0.25,79,120.0
503,E-4,87.0,0.25,60,120.0
504,G3,87.0,0.25,60,120.0
505,B-3,87.0,0.25,60,120.0
506,E-3,87.0,0.25,60,120.0
507,E-6,87.25,0.25,64,120.0
508,B-5,87.5,0.25,70,120.0
509,B-3,87.5,0.25,52,120.0
510,E-4,87.5,0.25,52,120.0
511,E-3,87.5,0.25,52,120.0
512,G3,87.5,0.25,52,120.0
513,G6,87.75,0.25,61,120.0
514,E-6,88.0,0.25,69,120.0
515,G3,88.0,0.25,52,120.0
516,E-4,88.0,0.25,52,120.0
517,B-3,88.0,0.25,52,120.0
518,E-3,88.0,0.25,52,120.0
519,B-6,88.25,0.25,62,120.0
520,A6,88.5,0.25,73,120.0
521,F3,88.5,0.25,52,120.0
522,D4,88.5,0.25,52,120.0
523,G#3,88.5,0.25,52,120.0
524,B-3,88.5,0.25,52,120.0
525,E-3,88.5,0.25,52,120.0
526,B-6,88.75,0.25,66,120.0
527,A6,89.0,0.25,70,120.0
528,F3,89.0,0.25,52,120.0
529,D4,89.0,0.25,52,120.0
530,B-3,89.0,0.25,52,120.0
531,G#3,89.0,0.25,52,120.0
532,E-3,89.0,0.25,52,120.0
533,B-6,89.25,0.25,64,120.0
534,A6,89.5,0.25,69,120.0
535,F3,89.5,0.25,52,120.0
536,D4,89.5,0.25,52,120.0
537,B-3,89.5,0.25,52,120.0
538,G#3,89.5,0.25,52,120.0
539,E-3,89.5,0.25,52,120.0
540,B-6,89.75,0.25,64,120.0
541,C7,90.0,0.25,77,120.0
542,E-3,90.0,0.25,61,120.0
543,E-4,90.0,0.25,61,120.0
544,B-3,90.0,0.25,61,120.0
545,G3,90.0,0.25,61,120.0
546,B-6,90.25,0.25,77,120.0
547,G#6,90.5,0.25,76,120.0
548,B-3,90.5,0.25,52,120.0
549,E-4,90.5,0.25,52,120.0
550,E-3,90.5,0.25,52,120.0
551,G3,90.5,0.25,52,120.0
552,G6,90.75,0.25,75,120.0
553,F6,91.0,0.25,74,120.0
554,E-4,91.0,0.25,52,120.0
555,G3,91.0,0.25,52,120.0
556,B-3,91.0,0.25,52,120.0
557,E-3,91.0,0.25,52,120.0
558,E-6,91.25,0.25,74,120.0
559,D6,91.5,0.25,72,120.0
560,B-3,91.5,0.25,52,120.0
561,E-4,91.5,0.25,52,120.0
562,E-3,91.5,0.25,52,120.0
563,G3,91.5,0.25,52,120.0
564,C6,91.75,0.25,65,120.0
565,B-5,92.0,0.25,65,120.0
566,G3,92.0,0.25,52,120.0
567,E-4,92.0,0.25,52,120.0
568,B-3,92.0,0.25,52,120.0
569,E-3,92.0,0.25,52,120.0
570,G#5,92.25,0.25,65,120.0
571,G5,92.5,0.25,65,120.0
572,E-3,92.5,0.25,52,120.0
573,E-4,92.5,0.25,52,120.0
574,B-3,92.5,0.25,52,120.0
575,G3,92.5,0.25,52,120.0
576,F5,92.75,0.25,65,120.0
577,E-5,93.0,0.25,70,120.0
578,B-3,93.0,0.25,58,120.0
579,E-4,93.0,0.25,58,120.0
580,E-3,93.0,0.25,58,120.0
581,G3,93.0,0.25,58,120.0
582,D5,93.25,0.25,69,120.0
583,C5,93.5,0.25,68,120.0
584,E-4,93.5,0.25,51,120.0
585,G3,93.5,0.25,51,120.0
586,B-3,93.5,0.25,51,120.0
587,E-3,93.5,0.25,51,120.0
588,B-4,93.75,0.25,68,120.0
589,G#4,94.0,0.25,67,120.0
590,B-3,94.0,0.25,51,120.0
591,E-4,94.0,0.25,51,120.0
592,E-3,94.0,0.25,51,120.0
593,G3,94.0,0.25,51,120.0
594,G4,94.25,0.25,66,120.0
595,F4,94.5,0.25,64,120.0
596,F3,94.5,0.25,51,120.0
597,B-3,94.5,0.25,51,120.0
598,G#3,94.5,0.25,51,120.0
599,E-3,94.5,0.25,51,120.0
600,E-4,94.75,0.25,59,120.0
601,D4,95.0,0.25,64,120.0
602,E-3,95.0,0.25,51,120.0
603,B-3,95.0,0.25,51,120.0
604,G#3,95.0,0.25,51,120.0
605,F3,95.0,0.25,51,120.0
606,F4,95.25,0.25,60,120.0
607,G#4,95.5,0.25,69,120.0
608,G#3,95.5,0.25,51,120.0
609,B-3,95.5,0.25,51,120.0
610,E-3,95.5,0.25,51,120.0
611,F3,95.5,0.25,51,120.0
612,D4,95.75,0.25,63,120.0
613,G3,96.0,0.25,78,120.0
614,E-2,96.0,0.25,73,120.0
615,E-4,96.25,0.25,64,120.0
616,B-3,96.5,0.25,72,120.0
617,E-3,96.5,0.25,56,120.0
618,G3,96.5,0.25,56,120.0
619,G4,96.75,0.25,64,120.0
620,E-4,97.0,0.25,74,120.0
621,E-3,97.0,0.25,53,120.0
622,B-3,97.0,0.25,53,120.0
623,G3,97.0,0.25,53,120.0
624,B-4,97.25,0.25,64,120.0
625,G4,97.5,0.25,79,120.0
626,B-3,97.5,0.25,52,120.0
627,E-4,97.5,0.25,52,120.0
628,E-3,97.5,0.25,52,120.0
629,G3,97.5,0.25,52,120.0
630,E-5,97.75,0.25,64,120.0
631,B-4,98.0,0.25,70,120.0
632,E-4,98.0,0.25,52,120.0
633,G3,98.0,0.25,52,120.0
634,B-3,98.0,0.25,52,120.0
635,E-3,98.0,0.25,52,120.0
636,G5,98.25,0.25,64,120.0
637,E-5,98.5,0.25,71,120.0
638,B-3,98.5,0.25,52,120.0
639,E-4,98.5,0.25,52,120.0
640,E-3,98.5,0.25,52,120.0
641,G3,98.5,0.25,52,120.0
642,B-5,98.75,0.25,64,120.0
643,G5,99.0,0.25,79,120.0
644,G3,99.0,0.25,60,120.0
645,E-4,99.0,0.25,60,120.0
646,B-3,99.0,0.25,60,120.0
647,E-3,99.0,0.25,60,120.0
648,E-6,99.25,0.25,64,120.0
649,B-5,99.5,0.25,70,120.0
650,B-3,99.5,0.25,52,120.0
651,E-3,99.5,0.25,52,120.0
652,G3,99.5,0.25,52,120.0
653,E-4,99.5,0.25,52,120.0
654,G6,99.75,0.25,61,120.0
655,E-6,100.0,0.25,69,120.0
656,G3,100.0,0.25,52,120.0
657,E-3,100.0,0.25,52,120.0
658,B-3,100.0,0.25,52,120.0
659,E-4,100.0,0.25,52,120.0
660,B-6,100.25,0.25,62,120.0
661,A6,100.5,0.25,73,120.0
662,D4,100.5,0.25,52,120.0
663,F3,100.5,0.25,52,120.0
664,E-3,100.5,0.25,52,120.0
665,B-3,100.5,0.25,52,120.0
666,G#3,100.5,0.25,52,120.0
667,B-6,100.75,0.25,66,120.0
668,A6,101.0,0.25,70,120.0
669,D4,101.0,0.25,52,120.0
670,F3,101.0,0.25,52,120.0
671,E-3,101.0,0.25,52,120.0
672,G#3,101.0,0.25,52,120.0
673,B-3,101.0,0.25,52,120.0
674,B-6,101.25,0.25,64,120.0
675,A6,101.5,0.25,69,120.0
676,D4,101.5,0.25,52,120.0
677,F3,101.5,0.25,52,120.0
678,E-3,101.5,0.25,52,120.0
679,G#3,101.5,0.25,52,120.0
680,B-3,101.5,0.25,52,120.0
681,B-6,101.75,0.25,64,120.0
682,C7,102.0,0.25,77,120.0
683,E-4,102.0,0.25,61,120.0
684,E-3,102.0,0.25,61,120.0
685,B-3,102.0,0.25,61,120.0
686,G3,102.0,0.25,61,120.0
687,B-6,102.25,0.25,77,120.0
688,G#6,102.5,0.25,76,120.0
689,E-4,102.5,0.25,52,120.0
690,B-3,102.5,0.25,52,120.0
691,E-3,102.5,0.25,52,120.0
692,G3,102.5,0.25,52,120.0
693,G6,102.75,0.25,75,120.0
694,F6,103.0,0.25,74,120.0
695,E-4,103.0,0.25,52,120.0
696,B-3,103.0,0.25,52,120.0
697,G3,103.0,0.25,52,120.0
698,E-3,103.0,0.25,52,120.0
699,E-6,103.25,0.25,74,120.0
700,D6,103.5,0.25,72,120.0
701,B-3,103.5,0.25,52,120.0
702,E-3,103.5,0.25,52,120.0
703,G3,103.5,0.25,52,120.0
704,E-4,103.5,0.25,52,120.0
705,C6,103.75,0.25,65,120.0
706,B-5,104.0,0.25,65,120.0
707,G3,104.0,0.25,52,120.0
708,E-3,104.0,0.25,52,120.0
709,B-3,104.0,0.25,52,120.0
710,E-4,104.0,0.25,52,120.0
711,G#5,104.25,0.25,65,120.0
712,G5,104.5,0.25,65,120.0
713,E-4,104.5,0.25,52,120.0
714,E-3,104.5,0.25,52,120.0
715,B-3,104.5,0.25,52,120.0
716,G3,104.5,0.25,52,120.0
717,F5,104.75,0.25,65,120.0
718,E-5,105.0,169/1000,70,120.0
719,G3,105.0,0.25,60,120.0
720,E-3,105.0,0.25,60,120.0
721,B-3,105.0,0.25,60,120.0
722,D5,105.169,167/1000,69,120.0
723,C5,105.333,167/1000,68,120.0
724,B-4,105.5,167/1000,68,120.0
725,B-3,105.5,0.25,52,120.0
726,G3,105.5,0.25,52,120.0
727,E-3,105.5,0.25,52,120.0
728,G#4,105.667,167/1000,67,120.0
729,G4,105.833,167/1000,66,120.0
730,F4,106.0,167/1000,64,120.0
731,G3,106.0,0.25,52,120.0
732,B-3,106.0,0.25,52,120.0
733,E-3,106.0,0.25,52,120.0
734,E-4,106.167,167/1000,59,120.0
735,D4,106.333,167/1000,55,120.0
736,C4,106.5,0.25,62,120.0
737,F3,106.5,0.25,54,120.0
738,E-3,106.5,0.25,54,120.0
739,B-3,106.75,0.25,54,120.0
740,A3,107.0,0.25,60,120.0
741,E-3,107.0,0.25,52,120.0
742,F3,107.0,0.25,52,120.0
743,F2,107.0,0.25,52,120.0
744,C4,107.25,0.25,54,120.0
745,E-4,107.5,0.25,64,120.0
746,F3,107.5,0.25,52,120.0
747,F2,107.5,0.25,52,120.0
748,E-3,107.5,0.25,52,120.0
749,A3,107.75,0.25,54,120.0
750,B-3,108.0,0.5,95,120.0
751,B-1,108.0,0.5,80,120.0
752,B-2,108.0,0.5,80,120.0
753,B-4,109.5,0.5,89,120.0
754,B-3,109.5,0.5,75,120.0
755,C#5,111.0,0.5,96,120.0
756,C#4,111.0,0.5,81,120.0
757,F#5,112.5,0.5,88,120.0
758,F#4,112.5,0.5,74,120.0
759,C#5,114.0,0.5,94,120.0
760,C#4,114.0,0.5,79,120.0
761,B-4,115.5,0.5,88,120.0
762,B-3,115.5,0.5,74,120.0
763,F#4,117.0,0.5,93,120.0
764,F#3,117.0,0.5,78,120.0
765,C#4,118.5,0.5,82,120.0
766,C#3,118.5,0.5,70,120.0
767,A3,120.0,0.5,95,120.0
768,A2,120.0,0.5,80,120.0
769,A1,120.0,0.5,80,120.0
770,A4,121.5,0.5,89,120.0
771,A3,121.5,0.5,75,120.0
772,C5,123.0,0.5,96,120.0
773,C4,123.0,0.5,81,120.0
774,F5,124.5,0.5,88,120.0
775,F4,124.5,0.5,74,120.0
776,C5,126.0,0.5,94,120.0
777,C4,126.0,0.5,79,120.0
778,A4,127.5,0.5,88,120.0
779,A3,127.5,0.5,74,120.0
780,F4,129.0,0.5,93,120.0
781,F3,129.0,0.5,78,120.0
782,C4,130.5,0.5,82,120.0
783,C3,130.5,0.5,70,120.0
784,C#5,132.0,0.25,55,120.0
785,C#4,132.0,0.25,36,120.0
786,F#4,132.0,0.25,36,120.0
787,B-3,132.0,0.25,36,120.0
788,B-3,132.5,0.25,31,120.0
789,C#4,132.5,0.25,31,120.0
790,F#4,132.5,0.25,31,120.0
791,C6,132.875,0.125,51,120.0
792,B-5,133.0,0.25,57,120.0
793,C#4,133.0,0.25,31,120.0
794,B-3,133.0,0.25,31,120.0
795,F#4,133.0,0.25,31,120.0
796,A5,133.25,0.25,52,120.0
797,B-5,133.5,0.25,57,120.0
798,B-3,133.5,0.25,31,120.0
799,F#4,133.5,0.25,31,120.0
800,C#4,133.5,0.25,31,120.0
801,B-3,134.0,0.25,32,120.0
802,C#4,134.0,0.25,32,120.0
803,F#4,134.0,0.25,32,120.0
804,E-6,134.375,0.125,53,120.0
805,C#6,134.5,0.25,59,120.0
806,C#4,134.5,0.25,32,120.0
807,F#4,134.5,0.25,32,120.0
808,B-3,134.5,0.25,32,120.0
809,C6,134.75,0.25,52,120.0
810,C#6,135.0,0.25,63,120.0
811,B-3,135.0,0.25,38,120.0
812,C#4,135.0,0.25,38,120.0
813,F#4,135.0,0.25,38,120.0
814,C#4,135.5,0.25,33,120.0
815,B-3,135.5,0.25,33,120.0
816,F#4,135.5,0.25,33,120.0
817,G#6,135.875,0.125,54,120.0
818,F#6,136.0,0.25,60,120.0
819,B-3,136.0,0.25,33,120.0
820,F#4,136.0,0.25,33,120.0
821,C#4,136.0,0.25,33,120.0
822,F6,136.25,0.25,55,120.0
823,F#6,136.5,0.25,61,120.0
824,B-3,136.5,0.25,33,120.0
825,C#4,136.5,0.25,33,120.0
826,F#4,136.5,0.25,33,120.0
827,C#4,137.0,0.25,31,120.0
828,F#4,137.0,0.25,31,120.0
829,B-3,137.0,0.25,31,120.0
830,E-6,137.375,0.125,51,120.0
831,C#6,137.5,0.25,57,120.0
832,B-3,137.5,0.25,31,120.0
833,C#4,137.5,0.25,31,120.0
834,F#4,137.5,0.25,31,120.0
835,C6,137.75,0.25,50,120.0
836,C#6,138.0,0.25,60,120.0
837,C#4,138.0,0.25,36,120.0
838,B-3,138.0,0.25,36,120.0
839,F#4,138.0,0.25,36,120.0
840,B-3,138.5,0.25,31,120.0
841,F#4,138.5,0.25,31,120.0
842,C#4,138.5,0.25,31,120.0
843,C6,138.875,0.125,51,120.0
844,B-5,139.0,0.25,56,120.0
845,B-3,139.0,0.25,31,120.0
846,C#4,139.0,0.25,31,120.0
847,F#4,139.0,0.25,31,120.0
848,A5,139.25,0.25,51,120.0
849,B-5,139.5,0.25,56,120.0
850,C#4,139.5,0.25,31,120.0
851,F#4,139.5,0.25,31,120.0
852,B-3,139.5,0.25,31,120.0
853,B-3,140.0,0.25,31,120.0
854,C#4,140.0,0.25,31,120.0
855,F#4,140.0,0.25,31,120.0
856,G#5,140.375,0.125,51,120.0
857,F#5,140.5,0.25,57,120.0
858,C#4,140.5,0.25,31,120.0
859,B-3,140.5,0.25,31,120.0
860,F#4,140.5,0.25,31,120.0
861,F5,140.75,0.25,50,120.0
862,F#5,141.0,0.25,60,120.0
863,B-3,141.0,0.25,36,120.0
864,F#4,141.0,0.25,36,120.0
865,C#4,141.0,0.25,36,120.0
866,B-3,141.5,0.25,31,120.0
867,C#4,141.5,0.25,31,120.0
868,F#4,141.5,0.25,31,120.0
869,E-5,141.875,0.125,51,120.0
870,C#5,142.0,0.25,56,120.0
871,C#4,142.0,0.25,31,120.0
872,F#4,142.0,0.25,31,120.0
873,B-3,142.0,0.25,31,120.0
874,C5,142.25,0.25,51,120.0
875,C#5,142.5,1.0,56,120.0
876,B-3,142.5,0.25,31,120.0
877,C#4,142.5,0.25,31,120.0
878,F#4,142.5,0.25,31,120.0
879,C#4,143.0,0.25,31,120.0
880,B-3,143.0,0.25,31,120.0
881,F#4,143.0,0.25,31,120.0
882,B-3,143.5,0.25,31,120.0
883,E4,143.5,0.25,31,120.0
884,C#4,143.5,0.25,31,120.0
885,C5,144.0,0.25,55,120.0
886,A3,144.0,0.25,36,120.0
887,C4,144.0,0.25,36,120.0
888,F4,144.0,0.25,36,120.0
889,C4,144.5,0.25,31,120.0
890,F4,144.5,0.25,31,120.0
891,A3,144.5,0.25,31,120.0
892,B-5,144.875,0.125,51,120.0
893,A5,145.0,0.25,57,120.0
894,F4,145.0,0.25,31,120.0
895,A3,145.0,0.25,31,120.0
896,C4,145.0,0.25,31,120.0
897,G5,145.25,0.25,52,120.0
898,A5,145.5,0.25,57,120.0
899,A3,145.5,0.25,31,120.0
900,C4,145.5,0.25,31,120.0
901,F4,145.5,0.25,31,120.0
902,C4,146.0,0.25,32,120.0
903,A3,146.0,0.25,32,120.0
904,F4,146.0,0.25,32,120.0
905,D6,146.375,0.125,53,120.0
906,C6,146.5,0.25,59,120.0
907,A3,146.5,0.25,32,120.0
908,F4,146.5,0.25,32,120.0
909,C4,146.5,0.25,32,120.0
910,B5,146.75,0.25,52,120.0
911,C6,147.0,0.25,63,120.0
912,A3,147.0,0.25,38,120.0
913,C4,147.0,0.25,38,120.0
914,F4,147.0,0.25,38,120.0
915,F4,147.5,0.25,33,120.0
916,A3,147.5,0.25,33,120.0
917,C4,147.5,0.25,33,120.0
918,F#6,147.875,0.125,55,120.0
919,F6,148.0,0.25,60,120.0
920,A3,148.0,0.25,33,120.0
921,C4,148.0,0.25,33,120.0
922,F4,148.0,0.25,33,120.0
923,E6,148.25,0.25,55,120.0
924,F6,148.5,0.25,61,120.0
925,C4,148.5,0.25,33,120.0
926,A3,148.5,0.25,33,120.0
927,F4,148.5,0.25,33,120.0
928,A3,149.0,0.25,31,120.0
929,F4,149.0,0.25,31,120.0
930,C4,149.0,0.25,31,120.0
931,C#6,149.375,0.125,51,120.0
932,C6,149.5,0.25,57,120.0
933,A3,149.5,0.25,31,120.0
934,C4,149.5,0.25,31,120.0
935,F4,149.5,0.25,31,120.0
936,B5,149.75,0.25,50,120.0
937,C6,150.0,0.25,60,120.0
938,F4,150.0,0.25,36,120.0
939,A3,150.0,0.25,36,120.0
940,C4,150.0,0.25,36,120.0
941,A3,150.5,0.25,31,120.0
942,C4,150.5,0.25,31,120.0
943,F4,150.5,0.25,31,120.0
944,B-5,150.875,0.125,51,120.0
945,A5,151.0,0.25,56,120.0
946,C4,151.0,0.25,31,120.0
947,A3,151.0,0.25,31,120.0
948,F4,151.0,0.25,31,120.0
949,G5,151.25,0.25,51,120.0
950,A5,151.5,0.25,56,120.0
951,A3,151.5,0.25,31,120.0
952,F4,151.5,0.25,31,120.0
953,C4,151.5,0.25,31,120.0
954,A3,152.0,0.25,31,120.0
955,C4,152.0,0.25,31,120.0
956,F4,152.0,0.25,31,120.0
957,F#5,152.375,0.125,51,120.0
958,F5,152.5,0.25,57,120.0
959,F4,152.5,0.25,31,120.0
960,A3,152.5,0.25,31,120.0
961,C4,152.5,0.25,31,120.0
962,E5,152.75,0.25,50,120.0
963,F5,153.0,0.25,60,120.0
964,C4,153.0,0.25,36,120.0
965,A3,153.0,0.25,36,120.0
966,F4,153.0,0.25,36,120.0
967,C4,153.5,0.25,31,120.0
968,A3,153.5,0.25,31,120.0
969,F4,153.5,0.25,31,120.0
970,C#5,153.875,0.125,51,120.0
971,C5,154.0,0.25,56,120.0
972,A3,154.0,0.25,31,120.0
973,C4,154.0,0.25,31,120.0
974,F4,154.0,0.25,31,120.0
975,B4,154.25,0.25,51,120.0
976,C5,154.5,0.5,56,120.0
977,A3,154.5,0.5,31,120.0
978,C4,154.5,0.5,31,120.0
979,F4,154.5,0.5,31,120.0
980,F3,155.0,0.5,35,120.0
981,C#5,155.5,0.5,61,120.0
982,E-3,155.5,0.5,35,120.0
983,D5,156.0,1.5,56,120.0
984,F4,156.0,0.25,35,120.0
985,B-2,156.0,3.0,40,120.0
986,D3,156.0,1.0,40,120.0
987,G4,156.25,0.25,31,120.0
988,F4,156.5,0.25,35,120.0
989,G4,156.75,0.25,31,120.0
990,F4,157.0,0.25,34,120.0
991,G3,157.0,0.5,33,120.0
992,G4,157.25,0.25,31,120.0
993,F4,157.5,0.25,36,120.0
994,B-4,157.5,1.5,55,120.0
995,F3,157.5,1.0,42,120.0
996,G4,157.75,0.25,32,120.0
997,F4,158.0,0.25,36,120.0
998,G4,158.25,0.25,31,120.0
999,F4,158.5,0.25,37,120.0
1000,D3,158.5,0.5,39,120.0
1001,G4,158.75,0.25,31,120.0
1002,F4,159.0,0.25,37,120.0
1003,A4,159.0,1.5,59,120.0
1004,F2,159.0,3.0,42,120.0
1005,C3,159.0,1.0,42,120.0
1006,G4,159.25,0.25,33,120.0
1007,F4,159.5,0.25,37,120.0
1008,G4,159.75,0.25,33,120.0
1009,F4,160.0,0.25,37,120.0
1010,G3,160.0,0.5,36,120.0
1011,G4,160.25,0.25,34,120.0
1012,F4,160.5,0.25,38,120.0
1013,E-5,160.5,1.5,59,120.0
1014,F3,160.5,1.0,45,120.0
1015,G4,160.75,0.25,34,120.0
1016,F4,161.0,0.25,39,120.0
1017,G4,161.25,0.25,33,120.0
1018,F4,161.5,0.25,39,120.0
1019,C3,161.5,0.5,41,120.0
1020,G4,161.75,0.25,34,120.0
1021,F4,162.0,0.25,40,120.0
1022,D5,162.0,1.5,64,120.0
1023,B-2,162.0,3.0,46,120.0
1024,D3,162.0,1.0,46,120.0
1025,G4,162.25,0.25,35,120.0
1026,F4,162.5,0.25,39,120.0
1027,G4,162.75,0.25,35,120.0
1028,F4,163.0,0.25,38,120.0
1029,G3,163.0,0.5,37,120.0
1030,G4,163.25,0.25,34,120.0
1031,F4,163.5,0.25,39,120.0
1032,B-4,163.5,1.5,60,120.0
1033,F3,163.5,1.0,45,120.0
1034,G4,163.75,0.25,34,120.0
1035,F4,164.0,0.25,38,120.0
1036,G4,164.25,0.25,33,120.0
1037,F4,164.5,0.25,38,120.0
1038,D3,164.5,0.5,40,120.0
1039,G4,164.75,0.25,32,120.0
1040,F4,165.0,0.25,37,120.0
1041,A4,165.0,1.5,60,120.0
1042,F2,165.0,3.0,43,120.0
1043,C3,165.0,1.0,43,120.0
1044,G4,165.25,0.25,33,120.0
1045,F4,165.5,0.25,37,120.0
1046,G4,165.75,0.25,32,120.0
1047,F4,166.0,0.25,35,120.0
1048,G3,166.0,0.5,34,120.0
1049,G4,166.25,0.25,32,120.0
1050,F4,166.5,0.25,36,120.0
1051,E-5,166.5,1.5,56,120.0
1052,F3,166.5,1.0,42,120.0
1053,G4,166.75,0.25,32,120.0
1054,F4,167.0,0.25,36,120.0
1055,G4,167.25,0.25,30,120.0
1056,F4,167.5,0.25,35,120.0
1057,C3,167.5,0.5,37,120.0
1058,G4,167.75,0.25,30,120.0
1059,D5,168.0,0.25,51,120.0
1060,D3,168.0,0.25,37,120.0
1061,B-2,168.0,0.25,37,120.0
1062,F5,168.25,0.25,45,120.0
1063,G5,168.5,167/1000,48,120.0
1064,D3,168.5,0.25,31,120.0
1065,F3,168.5,0.25,31,120.0
1066,B-3,168.5,0.25,31,120.0
1067,A5,168.667,167/1000,50,120.0
1068,B-5,168.833,167/1000,52,120.0
1069,C6,169.0,167/1000,54,120.0
1070,D3,169.0,0.25,31,120.0
1071,F3,169.0,0.25,31,120.0
1072,B-3,169.0,0.25,31,120.0
1073,D6,169.167,167/1000,56,120.0
1074,E-6,169.333,167/1000,59,120.0
1075,F6,169.5,0.25,61,120.0
1076,D3,169.5,0.25,31,120.0
1077,F3,169.5,0.25,31,120.0
1078,B-3,169.5,0.25,31,120.0
1079,E-6,169.75,0.25,60,120.0
1080,D6,170.0,0.25,58,120.0
1081,D3,170.0,0.25,31,120.0
1082,F3,170.0,0.25,31,120.0
1083,B-3,170.0,0.25,31,120.0
1084,C6,170.25,0.25,57,120.0
1085,B-5,170.5,0.25,55,120.0
1086,D3,170.5,0.25,31,120.0
1087,F3,170.5,0.25,31,120.0
1088,B-3,170.5,0.25,31,120.0
1089,A5,170.75,0.25,54,120.0
1090,G5,171.0,0.25,51,120.0
1091,A5,171.25,0.25,45,120.0
1092,B-5,171.5,0.25,48,120.0
1093,E-3,171.5,0.25,31,120.0
1094,G3,171.5,0.25,31,120.0
1095,B-3,171.5,0.25,31,120.0
1096,C6,171.75,0.25,50,120.0
1097,D6,172.0,167/1000,54,120.0
1098,E-3,172.0,0.25,31,120.0
1099,G3,172.0,0.25,31,120.0
1100,B-3,172.0,0.25,31,120.0
1101,E-6,172.167,167/1000,56,120.0
1102,F6,172.333,167/1000,59,120.0
1103,G6,172.5,0.25,61,120.0
1104,E-3,172.5,0.25,31,120.0
1105,G3,172.5,0.25,31,120.0
1106,B-3,172.5,0.25,31,120.0
1107,F6,172.75,0.25,60,120.0
1108,E-6,173.0,167/1000,58,120.0
1109,E-3,173.0,0.25,31,120.0
1110,G3,173.0,0.25,31,120.0
1111,B-3,173.0,0.25,31,120.0
1112,D6,173.167,167/1000,57,120.0
1113,C6,173.333,167/1000,56,120.0
1114,B-5,173.5,167/1000,55,120.0
1115,E-3,173.5,0.25,31,120.0
1116,G3,173.5,0.25,31,120.0
1117,C4,173.5,0.25,31,120.0
1118,A5,173.667,167/1000,54,120.0
1119,G5,173.833,167/1000,53,120.0
1120,F5,174.0,0.25,57,120.0
1121,D6,174.25,0.25,49,120.0
1122,B-5,174.5,0.25,59,120.0
1123,F3,174.5,0.25,31,120.0
1124,B-3,174.5,0.25,31,120.0
1125,D4,174.5,0.25,31,120.0
1126,F6,174.75,0.25,55,120.0
1127,D6,175.0,0.25,62,120.0
1128,F3,175.0,0.25,31,120.0
1129,B-3,175.0,0.25,31,120.0
1130,D4,175.0,0.25,31,120.0
1131,B-6,175.25,0.25,57,120.0
1132,F6,175.5,167/1000,62,120.0
1133,F3,175.5,0.25,31,120.0
1134,B-3,175.5,0.25,31,120.0
1135,D4,175.5,0.25,31,120.0
1136,D7,175.667,167/1000,57,120.0
1137,B-6,175.833,167/1000,55,120.0
1138,F7,176.0,167/1000,61,120.0
1139,F3,176.0,0.25,31,120.0
1140,B-3,176.0,0.25,31,120.0
1141,D4,176.0,0.25,31,120.0
1142,D7,176.167,167/1000,53,120.0
1143,B-6,176.333,167/1000,54,120.0
1144,F6,176.5,167/1000,59,120.0
1145,F3,176.5,0.25,31,120.0
1146,B-3,176.5,0.25,31,120.0
1147,D4,176.5,0.25,31,120.0
1148,D6,176.667,167/1000,53,120.0
1149,B-5,176.833,167/1000,53,120.0
1150,F5,177.0,1.0,59,120.0
1151,D4,177.0,0.25,31,120.0
1152,F3,177.0,0.25,31,120.0
1153,B-3,177.0,0.25,31,120.0
1154,F3,177.5,0.25,31,120.0
1155,B-3,177.5,0.25,31,120.0
1156,D4,177.5,0.25,31,120.0
1157,D4,178.0,0.25,31,120.0
1158,B-3,178.0,0.25,31,120.0
1159,F3,178.0,0.25,31,120.0
1160,C6,178.5,167/1000,59,120.0
1161,F3,178.5,0.25,31,120.0
1162,A3,178.5,0.25,31,120.0
1163,E-4,178.5,0.25,31,120.0
1164,D6,178.667,167/1000,52,120.0
1165,C6,178.833,167/1000,59,120.0
1166,D6,179.0,167/1000,54,120.0
1167,F3,179.0,0.25,31,120.0
1168,A3,179.0,0.25,31,120.0
1169,E-4,179.0,0.25,31,120.0
1170,C6,179.167,167/1000,59,120.0
1171,D6,179.333,167/1000,53,120.0
1172,C6,179.5,167/1000,59,120.0
1173,F3,179.5,0.25,31,120.0
1174,A3,179.5,0.25,31,120.0
1175,E-4,179.5,0.25,31,120.0
1176,D6,179.667,167/1000,53,120.0
1177,C6,179.833,167/1000,56,120.0
1178,D6,180.0,1.5,61,120.0
1179,F5,180.0,0.25,41,120.0
1180,B-3,180.0,3.0,40,120.0
1181,D4,180.0,1.0,40,120.0
1182,G5,180.25,0.25,31,120.0
1183,F5,180.5,0.25,35,120.0
1184,G5,180.75,0.25,31,120.0
1185,F5,181.0,0.25,34,120.0
1186,G4,181.0,0.5,33,120.0
1187,G5,181.25,0.25,31,120.0
1188,F5,181.5,0.25,36,120.0
1189,B-5,181.5,1.5,55,120.0
1190,F4,181.5,1.0,42,120.0
1191,G5,181.75,0.25,32,120.0
1192,F5,182.0,0.25,36,120.0
1193,G5,182.25,0.25,31,120.0
1194,F5,182.5,0.25,37,120.0
1195,D4,182.5,0.5,39,120.0
1196,G5,182.75,0.25,31,120.0
1197,F5,183.0,0.25,37,120.0
1198,A5,183.0,1.5,59,120.0
1199,F3,183.0,3.0,42,120.0
1200,C4,183.0,1.0,42,120.0
1201,G5,183.25,0.25,33,120.0
1202,F5,183.5,0.25,37,120.0
1203,G5,183.75,0.25,33,120.0
1204,F5,184.0,0.25,37,120.0
1205,G4,184.0,0.5,36,120.0
1206,G5,184.25,0.25,34,120.0
1207,F5,184.5,0.25,38,120.0
1208,E-6,184.5,1.5,59,120.0
1209,F4,184.5,1.0,45,120.0
1210,G5,184.75,0.25,34,120.0
1211,F5,185.0,0.25,39,120.0
1212,G5,185.25,0.25,33,120.0
1213,F5,185.5,0.25,39,120.0
1214,C4,185.5,0.5,41,120.0
1215,G5,185.75,0.25,34,120.0
1216,F5,186.0,0.25,40,120.0
1217,D6,186.0,1.5,64,120.0
1218,B-3,186.0,3.0,46,120.0
1219,D4,186.0,1.0,46,120.0
1220,G5,186.25,0.25,35,120.0
1221,F5,186.5,0.25,39,120.0
1222,G5,186.75,0.25,35,120.0
1223,F5,187.0,0.25,38,120.0
1224,G4,187.0,0.5,37,120.0
1225,G5,187.25,0.25,34,120.0
1226,B-5,187.5,1.5,60,120.0
1227,F5,187.5,0.25,39,120.0
1228,F4,187.5,1.0,45,120.0
1229,G5,187.75,0.25,34,120.0
1230,F5,188.0,0.25,38,120.0
1231,G5,188.25,0.25,33,120.0
1232,F5,188.5,0.25,38,120.0
1233,D4,188.5,0.5,40,120.0
1234,G5,188.75,0.25,32,120.0
1235,F5,189.0,0.25,37,120.0
1236,A5,189.0,1.5,60,120.0
1237,F3,189.0,3.0,43,120.0
1238,C4,189.0,1.0,43,120.0
1239,G5,189.25,0.25,33,120.0
1240,F5,189.5,0.25,37,120.0
1241,G5,189.75,0.25,32,120.0
1242,F5,190.0,0.25,35,120.0
1243,G4,190.0,0.5,34,120.0
1244,G5,190.25,0.25,32,120.0
1245,E-6,190.5,1.5,56,120.0
1246,F5,190.5,0.25,36,120.0
1247,F4,190.5,1.0,42,120.0
1248,G5,190.75,0.25,32,120.0
1249,F5,191.0,0.25,36,120.0
1250,G5,191.25,0.25,30,120.0
1251,F5,191.5,0.25,35,120.0
1252,C4,191.5,0.5,37,120.0
1253,G5,191.75,0.25,30,120.0
1254,D4,192.0,0.25,51,120.0
1255,F4,192.0,0.25,51,120.0
1256,G4,192.25,0.25,45,120.0
1257,A4,192.5,0.25,50,120.0
1258,D6,192.5,0.25,45,120.0
1259,B-5,192.5,0.25,45,120.0
1260,B-4,192.75,0.25,52,120.0
1261,C5,193.0,167/1000,54,120.0
1262,D6,193.0,0.25,45,120.0
1263,B-5,193.0,0.25,45,120.0
1264,D5,193.167,167/1000,56,120.0
1265,E-5,193.333,167/1000,59,120.0
1266,F5,193.5,0.25,61,120.0
1267,D6,193.5,0.25,48,120.0
1268,B-5,193.5,0.25,48,120.0
1269,E-5,193.75,0.25,60,120.0
1270,D5,194.0,0.25,58,120.0
1271,D6,194.0,0.25,42,120.0
1272,B-5,194.0,0.25,42,120.0
1273,C5,194.25,0.25,57,120.0
1274,B-4,194.5,0.25,55,120.0
1275,D6,194.5,0.25,42,120.0
1276,B-5,194.5,0.25,42,120.0
1277,A4,194.75,0.25,54,120.0
1278,E-4,195.0,0.25,51,120.0
1279,G4,195.0,0.25,51,120.0
1280,A4,195.25,0.25,45,120.0
1281,B-4,195.5,0.25,48,120.0
1282,C6,195.5,0.25,45,120.0
1283,B-5,195.5,0.25,45,120.0
1284,C5,195.75,0.25,50,120.0
1285,D5,196.0,167/1000,55,120.0
1286,B-5,196.0,0.25,45,120.0
1287,C6,196.0,0.25,45,120.0
1288,E-5,196.167,167/1000,57,120.0
1289,F5,196.333,167/1000,60,120.0
1290,G5,196.5,0.25,62,120.0
1291,B-5,196.5,0.25,49,120.0
1292,C6,196.5,0.25,49,120.0
1293,F5,196.75,0.25,62,120.0
1294,E-5,197.0,167/1000,60,120.0
1295,C6,197.0,0.25,44,120.0
1296,B-5,197.0,0.25,44,120.0
1297,D5,197.167,167/1000,59,120.0
1298,C5,197.333,167/1000,58,120.0
1299,B-4,197.5,167/1000,58,120.0
1300,C6,197.5,0.25,46,120.0
1301,B-5,197.5,0.25,46,120.0
1302,A4,197.667,167/1000,57,120.0
1303,G4,197.833,167/1000,56,120.0
1304,F4,198.0,0.25,60,120.0
1305,F3,198.25,0.25,52,120.0
1306,B-3,198.5,0.25,63,120.0
1307,D6,198.5,0.25,48,120.0
1308,B-5,198.5,0.25,48,120.0
1309,D4,198.75,0.25,59,120.0
1310,F4,199.0,0.25,68,120.0
1311,D6,199.0,0.25,49,120.0
1312,B-5,199.0,0.25,49,120.0
1313,B-4,199.25,0.25,62,120.0
1314,D5,199.5,0.25,63,120.0
1315,D6,199.5,0.25,52,120.0
1316,B-5,199.5,0.25,52,120.0
1317,B-4,199.75,0.25,54,120.0
1318,F5,200.0,0.25,66,120.0
1319,D6,200.0,0.25,47,120.0
1320,B-5,200.0,0.25,47,120.0
1321,D5,200.25,0.25,62,120.0
1322,B-4,200.5,0.25,70,120.0
1323,F6,200.5,0.25,48,120.0
1324,B-5,200.5,0.25,48,120.0
1325,D6,200.5,0.25,48,120.0
1326,D5,200.75,0.25,64,120.0
1327,C5,201.0,167/1000,67,120.0
1328,F4,201.0,0.5,60,120.0
1329,E-6,201.0,0.25,59,120.0
1330,A5,201.0,0.25,59,120.0
1331,F6,201.0,0.25,59,120.0
1332,D5,201.167,167/1000,59,120.0
1333,C5,201.333,167/1000,67,120.0
1334,D5,201.5,167/1000,61,120.0
1335,F6,201.5,0.25,46,120.0
1336,A5,201.5,0.25,46,120.0
1337,E-6,201.5,0.25,46,120.0
1338,C5,201.667,167/1000,66,120.0
1339,D5,201.833,167/1000,59,120.0
1340,C5,202.0,167/1000,66,120.0
1341,E-6,202.0,0.25,45,120.0
1342,F6,202.0,0.25,45,120.0
1343,A5,202.0,0.25,45,120.0
1344,D5,202.167,167/1000,59,120.0
1345,C5,202.333,167/1000,62,120.0
1346,D5,202.5,167/1000,56,120.0
1347,F6,202.5,0.25,53,120.0
1348,A5,202.5,0.25,53,120.0
1349,E-6,202.5,0.25,53,120.0
1350,C5,202.667,167/1000,63,120.0
1351,D5,202.833,167/1000,55,120.0
1352,C5,203.0,167/1000,63,120.0
1353,E-6,203.0,0.25,45,120.0
1354,F6,203.0,0.25,45,120.0
1355,A5,203.0,0.25,45,120.0
1356,D5,203.167,167/1000,55,120.0
1357,C5,203.333,167/1000,63,120.0
1358,D5,203.5,167/1000,55,120.0
1359,F6,203.5,0.25,44,120.0
1360,A5,203.5,0.25,44,120.0
1361,E-6,203.5,0.25,44,120.0
1362,C5,203.667,167/1000,63,120.0
1363,D5,203.833,167/1000,59,120.0
1364,F4,204.0,0.25,62,120.0
1365,B4,204.25,0.25,55,120.0
1366,C5,204.5,0.25,58,120.0
1367,D5,204.75,0.25,60,120.0
1368,C5,205.0,0.25,58,120.0
1369,G#5,205.0,1.5,76,120.0
1370,G#6,205.0,1.5,76,120.0
1371,B4,205.25,0.25,58,120.0
1372,E-4,205.5,0.25,61,120.0
1373,C5,205.75,0.25,56,120.0
1374,D5,206.0,0.25,59,120.0
1375,E-5,206.25,0.25,61,120.0
1376,D5,206.5,0.25,57,120.0
1377,G5,206.5,0.5,72,120.0
1378,G6,206.5,0.5,72,120.0
1379,C5,206.75,0.25,57,120.0
1380,E-4,207.012,0.25,62,120.0
1381,A4,207.25,0.25,55,120.0
1382,B-4,207.5,0.25,58,120.0
1383,C5,207.74,0.25,60,120.0
1384,B-4,208.0,0.25,59,120.0
1385,F#5,208.0,1.5,75,120.0
1386,F#6,208.0,1.5,75,120.0
1387,A4,208.25,0.25,59,120.0
1388,D4,208.5,0.25,62,120.0
1389,B-4,208.75,0.25,57,120.0
1390,C5,209.0,0.25,61,120.0
1391,D5,209.25,0.25,64,120.0
1392,C5,209.5,0.25,59,120.0
1393,F5,209.5,0.5,74,120.0
1394,F6,209.5,0.5,74,120.0
1395,B-4,209.75,0.25,60,120.0
1396,F3,210.012,0.25,65,120.0
1397,B3,210.25,0.25,58,120.0
1398,C4,210.5,0.25,62,120.0
1399,D4,210.74,0.25,64,120.0
1400,C4,211.0,0.25,62,120.0
1401,G#4,211.0,1.5,80,120.0
1402,G#5,211.0,1.5,80,120.0
1403,B3,211.25,0.25,63,120.0
1404,E-3,211.5,0.25,67,120.0
1405,C4,211.75,0.25,61,120.0
1406,D4,212.0,0.25,65,120.0
1407,E-4,212.25,0.25,67,120.0
1408,D4,212.5,0.25,63,120.0
1409,G4,212.5,0.5,78,120.0
1410,G5,212.5,0.5,78,120.0
1411,C4,212.75,0.25,63,120.0
1412,E-3,213.012,0.25,70,120.0
1413,A3,213.25,0.25,62,120.0
1414,B-3,213.5,0.25,66,120.0
1415,C4,213.74,0.25,68,120.0
1416,B-3,214.0,0.25,66,120.0
1417,F#4,214.0,1.5,85,120.0
1418,F#5,214.0,1.5,85,120.0
1419,A3,214.25,0.25,67,120.0
1420,D3,214.5,0.25,70,120.0
1421,B-3,214.75,0.25,65,120.0
1422,C4,215.0,0.25,69,120.0
1423,D4,215.25,0.25,71,120.0
1424,C4,215.5,0.25,67,120.0
1425,F4,215.5,0.5,82,120.0
1426,F5,215.5,0.5,82,120.0
1427,B-3,215.75,0.25,67,120.0
1428,D3,216.0,0.25,70,120.0
1429,F3,216.25,0.25,62,120.0
1430,B-3,216.5,0.25,66,120.0
1431,B-4,216.5,0.25,64,120.0
1432,F5,216.5,0.25,64,120.0
1433,F4,216.5,0.25,64,120.0
1434,D4,216.75,0.25,68,120.0
1435,B-3,217.0,0.25,66,120.0
1436,F4,217.0,0.25,61,120.0
1437,F5,217.0,0.25,61,120.0
1438,B-4,217.0,0.25,61,120.0
1439,F3,217.25,0.25,63,120.0
1440,G2,217.5,0.25,70,120.0
1441,B-2,217.75,0.25,65,120.0
1442,D3,218.0,0.25,69,120.0
1443,B-4,218.0,0.25,62,120.0
1444,E-5,218.0,0.25,62,120.0
1445,G4,218.0,0.25,62,120.0
1446,G3,218.25,0.25,71,120.0
1447,D3,218.5,0.25,67,120.0
1448,D5,218.5,0.25,58,120.0
1449,G4,218.5,0.25,58,120.0
1450,B-4,218.5,0.25,58,120.0
1451,B-2,218.75,0.25,64,120.0
1452,E-2,219.0,0.25,70,120.0
1453,G2,219.25,0.25,62,120.0
1454,C3,219.5,0.25,66,120.0
1455,E-4,219.5,0.25,64,120.0
1456,D5,219.5,0.25,64,120.0
1457,G4,219.5,0.25,64,120.0
1458,E-3,219.75,0.25,68,120.0
1459,C3,220.0,0.25,66,120.0
1460,C5,220.0,0.25,61,120.0
1461,G4,220.0,0.25,61,120.0
1462,E-4,220.0,0.25,61,120.0
1463,G2,220.25,0.25,63,120.0
1464,F2,220.5,0.25,70,120.0
1465,C3,220.75,0.25,65,120.0
1466,E-3,221.0,0.25,69,120.0
1467,B-4,221.0,0.25,62,120.0
1468,E-4,221.0,0.25,62,120.0
1469,C4,221.0,0.25,62,120.0
1470,F3,221.25,0.25,71,120.0
1471,E-3,221.5,0.25,67,120.0
1472,A4,221.5,0.25,58,120.0
1473,E-4,221.5,0.25,58,120.0
1474,C4,221.5,0.25,58,120.0
1475,C3,221.75,0.25,64,120.0
1476,D2,222.0,0.25,70,120.0
1477,F2,222.25,0.25,62,120.0
1478,B-2,222.5,0.25,66,120.0
1479,B-4,222.5,0.25,64,120.0
1480,F4,222.5,0.25,64,120.0
1481,B-3,222.5,0.25,64,120.0
1482,D3,222.75,0.25,68,120.0
1483,B-2,223.0,0.25,67,120.0
1484,F4,223.0,0.25,62,120.0
1485,D4,223.0,0.25,62,120.0
1486,B-3,223.0,0.25,62,120.0
1487,F2,223.25,0.25,64,120.0
1488,G1,223.5,0.25,72,120.0
1489,B-1,223.75,0.25,67,120.0
1490,D2,224.0,0.25,72,120.0
1491,G3,224.0,0.25,69,120.0
1492,E-4,224.0,0.25,69,120.0
1493,B-3,224.0,0.25,69,120.0
1494,G2,224.25,0.25,74,120.0
1495,D2,224.5,0.25,71,120.0
1496,D4,224.5,0.25,61,120.0
1497,B-3,224.5,0.25,61,120.0
1498,G3,224.5,0.25,61,120.0
1499,B-1,224.75,0.25,67,120.0
1500,E-2,225.0,0.25,74,120.0
1501,G2,225.25,0.25,66,120.0
1502,C3,225.5,0.25,71,120.0
1503,D4,225.5,0.25,68,120.0
1504,G3,225.5,0.25,68,120.0
1505,E-3,225.5,0.25,68,120.0
1506,G2,225.75,0.25,74,120.0
1507,E-2,226.0,0.5,72,120.0
1508,C4,226.0,0.25,66,120.0
1509,G3,226.0,0.25,66,120.0
1510,E-3,226.0,0.25,66,120.0
1511,F1,226.5,0.25,77,120.0
1512,C2,226.75,0.25,72,120.0
1513,E-2,227.0,0.25,77,120.0
1514,C3,227.0,0.25,73,120.0
1515,E-3,227.0,0.25,73,120.0
1516,B-3,227.0,0.25,73,120.0
1517,F2,227.25,0.25,80,120.0
1518,F1,227.5,0.25,75,120.0
1519,E-3,227.5,0.25,66,120.0
1520,A3,227.5,0.25,66,120.0
1521,C3,227.5,0.25,66,120.0
1522,F2,227.75,0.25,72,120.0
1523,B-2,228.0,0.25,62,120.0
1524,B-1,228.0,0.25,75,120.0
1525,C3,228.25,0.25,63,120.0
1526,D3,228.5,0.25,65,120.0
1527,B-2,228.5,0.25,75,120.0
1528,E-3,228.75,0.25,66,120.0
1529,F3,229.0,167/1000,67,120.0
1530,B-2,229.0,0.25,70,120.0
1531,D3,229.0,0.25,70,120.0
1532,G3,229.167,167/1000,68,120.0
1533,A3,229.333,167/1000,68,120.0
1534,B-3,229.5,167/1000,69,120.0
1535,B-2,229.5,1.0,74,120.0
1536,D3,229.5,1.0,74,120.0
1537,F3,229.5,1.0,74,120.0
1538,C4,229.667,167/1000,70,120.0
1539,D4,229.833,167/1000,71,120.0
1540,E-4,230.0,167/1000,72,120.0
1541,F4,230.167,167/1000,72,120.0
1542,G4,230.333,167/1000,73,120.0
1543,A4,230.5,0.25,85,120.0
1544,C3,230.5,0.25,64,120.0
1545,F2,230.5,0.25,64,120.0
1546,F3,230.5,0.25,64,120.0
1547,A3,230.75,0.25,67,120.0
1548,B-3,231.0,0.25,62,120.0
1549,B-2,231.0,0.25,71,120.0
1550,F3,231.0,0.25,71,120.0
1551,D3,231.0,0.25,71,120.0
1552,C4,231.25,0.25,63,120.0
1553,D4,231.5,0.25,65,120.0
1554,B-2,231.5,0.25,67,120.0
1555,D3,231.5,0.25,67,120.0
1556,F3,231.5,0.25,67,120.0
1557,E-4,231.75,0.25,66,120.0
1558,F4,232.0,167/1000,67,120.0
1559,F3,232.0,0.25,66,120.0
1560,B-2,232.0,0.25,66,120.0
1561,D3,232.0,0.25,66,120.0
1562,G4,232.167,167/1000,68,120.0
1563,A4,232.333,167/1000,68,120.0
1564,B-4,232.5,167/1000,69,120.0
1565,B-2,232.5,1.0,73,120.0
1566,D3,232.5,1.0,73,120.0
1567,F3,232.5,1.0,73,120.0
1568,C5,232.667,167/1000,70,120.0
1569,D5,232.833,167/1000,71,120.0
1570,E-5,233.0,167/1000,72,120.0
1571,F5,233.167,167/1000,72,120.0
1572,G5,233.333,167/1000,73,120.0
1573,A5,233.5,0.25,85,120.0
1574,C3,233.5,0.25,67,120.0
1575,F2,233.5,0.25,67,120.0
1576,F3,233.5,0.25,67,120.0
1577,A4,233.75,0.25,67,120.0
1578,B-4,234.0,0.25,62,120.0
1579,B-2,234.0,0.25,68,120.0
1580,F3,234.0,0.25,68,120.0
1581,D3,234.0,0.25,68,120.0
1582,C5,234.25,0.25,63,120.0
1583,D5,234.5,0.25,65,120.0
1584,B-2,234.5,0.25,67,120.0
1585,D3,234.5,0.25,67,120.0
1586,F3,234.5,0.25,67,120.0
1587,E-5,234.75,0.25,66,120.0
1588,F5,235.0,167/1000,68,120.0
1589,F3,235.0,0.25,65,120.0
1590,B-2,235.0,0.25,65,120.0
1591,D3,235.0,0.25,65,120.0
1592,G5,235.167,167/1000,70,120.0
1593,A5,235.333,167/1000,72,120.0
1594,B-5,235.5,0.25,74,120.0
1595,B-2,235.5,1.0,74,120.0
1596,D3,235.5,1.0,74,120.0
1597,F3,235.5,1.0,74,120.0
1598,C6,235.75,0.25,75,120.0
1599,D6,236.0,167/1000,77,120.0
1600,E-6,236.167,167/1000,79,120.0
1601,F6,236.333,167/1000,81,120.0
1602,G6,236.5,167/1000,83,120.0
1603,C3,236.5,0.25,67,120.0
1604,F2,236.5,0.25,67,120.0
1605,F3,236.5,0.25,67,120.0
1606,A6,236.667,167/1000,92,120.0
1607,A5,236.833,167/1000,85,120.0
1608,B-6,237.0,1.0,97,120.0
1609,B-5,237.0,1.0,97,120.0
1610,B-2,237.0,1.0,72,120.0
1611,B-3,237.0,1.0,72,120.0
1612,D3,237.0,1.0,72,120.0
1613,F3,237.0,1.0,72,120.0
1614,F5,238.5,1.0,80,120.0
1615,D5,238.5,1.0,80,120.0
1616,B-5,238.5,1.0,80,120.0
1617,B-2,238.5,1.0,72,120.0
1618,D3,238.5,1.0,72,120.0
1619,B-3,238.5,1.0,72,120.0
1620,F3,238.5,1.0,72,120.0
1621,D4,240.0,1.0,79,120.0
1622,B-4,240.0,1.0,79,120.0
1623,F4,240.0,1.0,79,120.0
1624,F3,240.0,1.0,72,120.0
1625,B-3,240.0,1.0,72,120.0
1626,D3,240.0,1.0,72,120.0
1627,B-2,240.0,1.0,72,120.0
1628,B-5,242.5,0.5,45,120.0
1629,B-5,243.0,0.5,45,120.0
1630,E-4,243.0,1.0,36,120.0
1631,G4,243.0,1.0,36,120.0
1632,B-4,243.0,1.0,36,120.0
1633,G5,243.5,0.5,45,120.0
1634,E-5,244.0,0.5,39,120.0
1635,D5,244.5,0.5,45,120.0
1636,F4,244.5,1.0,30,120.0
1637,G#4,244.5,1.0,30,120.0
1638,B-3,244.5,1.0,30,120.0
1639,B-4,244.5,1.0,30,120.0
1640,F5,245.0,0.5,40,120.0
1641,B-5,245.5,0.375,40,120.0
1642,B-5,246.0,0.5,45,120.0
1643,E-4,246.0,1.0,36,120.0
1644,B-4,246.0,1.0,36,120.0
1645,G4,246.0,1.0,36,120.0
1646,G5,246.5,0.5,41,120.0
1647,E-5,247.0,0.375,41,120.0
1648,E-5,247.5,0.5,45,120.0
1649,G5,248.0,0.5,39,120.0
1650,C6,248.5,0.375,51,120.0
1651,E4,248.5,0.375,30,120.0
1652,G4,248.5,0.375,30,120.0
1653,B-4,248.5,0.375,30,120.0
1654,C5,248.5,0.375,30,120.0
1655,C6,249.0,0.5,57,120.0
1656,G#4,249.0,1.0,36,120.0
1657,F4,249.0,1.0,36,120.0
1658,C5,249.0,1.0,36,120.0
1659,G#5,249.5,0.5,45,120.0
1660,F5,250.0,0.5,45,120.0
1661,E5,250.5,0.5,49,120.0
1662,C5,250.5,1.0,30,120.0
1663,B-4,250.5,1.0,30,120.0
1664,C4,250.5,1.0,30,120.0
1665,G4,250.5,1.0,30,120.0
1666,G5,251.0,0.5,44,120.0
1667,C6,251.5,0.375,51,120.0
1668,C6,252.0,0.5,60,120.0
1669,F4,252.0,1.0,36,120.0
1670,G#4,252.0,1.0,36,120.0
1671,C5,252.0,1.0,36,120.0
1672,G#5,252.5,0.5,45,120.0
1673,F5,253.0,0.5,45,120.0
1674,D5,253.5,0.5,51,120.0
1675,F5,254.0,0.5,45,120.0
1676,B-5,254.5,0.375,45,120.0
1677,F4,254.5,0.375,32,120.0
1678,D4,254.5,0.375,32,120.0
1679,G#4,254.5,0.375,32,120.0
1680,B-4,254.5,0.375,32,120.0
1681,B-5,255.0,0.5,50,120.0
1682,G4,255.0,1.0,35,120.0
1683,B-4,255.0,1.0,35,120.0
1684,E-4,255.0,1.0,35,120.0
1685,G5,255.5,0.5,43,120.0
1686,E-5,256.0,0.5,43,120.0
1687,C5,256.5,0.5,45,120.0
1688,G#3,256.5,1.0,31,120.0
1689,C4,256.5,1.0,31,120.0
1690,F4,256.5,1.0,31,120.0
1691,F5,257.0,0.5,41,120.0
1692,G#5,257.5,0.375,41,120.0
1693,B-4,258.0,0.5,47,120.0
1694,E-4,258.0,1.0,37,120.0
1695,B-3,258.0,1.0,37,120.0
1696,G4,258.0,1.0,37,120.0
1697,E-5,258.5,0.5,43,120.0
1698,G5,259.0,0.375,43,120.0
1699,G#4,259.5,0.5,48,120.0
1700,B-3,259.5,1.0,35,120.0
1701,F4,259.5,1.0,35,120.0
1702,D4,259.5,1.0,35,120.0
1703,D5,260.0,0.5,43,120.0
1704,B-3,260.5,0.375,39,120.0
1705,F5,260.5,0.375,43,120.0
1706,G#4,260.5,0.375,43,120.0
1707,B-3,261.0,0.5,49,120.0
1708,E-5,261.0,0.5,49,120.0
1709,G4,261.0,0.5,49,120.0
1710,G3,261.5,0.5,49,120.0
1711,G5,262.0,0.5,49,120.0
1712,E-3,262.0,0.5,42,120.0
1713,G#5,262.5,0.25,49,120.0
1714,D3,262.5,0.5,49,120.0
1715,G5,262.75,0.25,45,120.0
1716,G#5,263.0,0.25,49,120.0
1717,F3,263.0,0.5,45,120.0
1718,F5,263.25,0.25,44,120.0
1719,B-5,263.5,0.25,49,120.0
1720,B-3,263.5,0.375,45,120.0
1721,G#5,263.75,0.25,44,120.0
1722,G5,264.0,0.5,67,120.0
1723,B-3,264.0,0.5,51,120.0
1724,B-6,264.5,0.5,62,120.0
1725,G3,264.5,0.5,47,120.0
1726,E-3,265.0,0.375,47,120.0
1727,E-3,265.5,0.5,52,120.0
1728,G3,266.0,0.5,46,120.0
1729,G4,266.5,0.375,49,120.0
1730,E3,266.5,0.375,54,120.0
1731,C4,266.5,0.375,54,120.0
1732,C4,267.0,0.5,60,120.0
1733,F3,267.0,0.5,60,120.0
1734,G#3,267.5,0.5,53,120.0
1735,G#4,268.0,0.5,49,120.0
1736,F3,268.0,0.5,53,120.0
1737,B-4,268.5,0.25,51,120.0
1738,E3,268.5,0.5,59,120.0
1739,G#4,268.75,0.25,41,120.0
1740,B-4,269.0,0.25,49,120.0
1741,G3,269.0,0.5,53,120.0
1742,G4,269.25,0.25,42,120.0
1743,C5,269.5,0.25,49,120.0
1744,C4,269.5,0.375,58,120.0
1745,B-4,269.75,0.25,47,120.0
1746,G#4,270.0,0.5,69,120.0
1747,C4,270.0,0.5,70,120.0
1748,C6,270.5,0.5,61,120.0
1749,G#3,270.5,0.5,56,120.0
1750,F3,271.0,0.5,57,120.0
1751,D3,271.5,0.5,64,120.0
1752,F3,272.0,0.5,58,120.0
1753,F5,272.5,0.375,55,120.0
1754,D3,272.5,0.375,58,120.0
1755,B-3,272.5,0.375,58,120.0
1756,B-3,273.0,0.5,66,120.0
1757,E-3,273.0,0.5,66,120.0
1758,G3,273.5,0.5,56,120.0
1759,G5,274.0,0.5,53,120.0
1760,E-3,274.0,0.5,57,120.0
1761,G#5,274.5,0.25,53,120.0
1762,G#2,274.5,0.5,54,120.0
1763,C3,274.5,0.5,54,120.0
1764,G5,274.75,0.25,49,120.0
1765,G#5,275.0,0.25,55,120.0
1766,F3,275.0,0.5,55,120.0
1767,F5,275.25,0.25,49,120.0
1768,G#6,275.5,0.375,74,120.0
1769,G#3,275.5,0.375,55,120.0
1770,B-2,276.0,0.5,61,120.0
1771,E-3,276.5,0.5,56,120.0
1772,E-5,277.0,0.375,49,120.0
1773,G3,277.0,0.375,56,120.0
1774,F5,277.5,0.25,57,120.0
1775,B-2,277.5,0.5,62,120.0
1776,E-5,277.75,0.25,49,120.0
1777,F5,278.0,0.25,56,120.0
1778,D3,278.0,0.5,56,120.0
1779,D5,278.25,0.25,49,120.0
1780,F6,278.5,0.375,72,120.0
1781,B-3,278.5,0.375,56,120.0
1782,B-2,278.5,0.375,56,120.0
1783,G4,279.0,0.25,81,120.0
1784,B-2,279.0,0.5,63,120.0
1785,G5,279.25,0.25,60,120.0
1786,G4,279.5,0.25,69,120.0
1787,G2,279.5,0.5,63,120.0
1788,G5,279.75,0.25,59,120.0
1789,B-4,280.0,0.25,67,120.0
1790,E-2,280.0,0.5,55,120.0
1791,B-5,280.25,0.25,59,120.0
1792,B-4,280.5,0.25,77,120.0
1793,D2,280.5,0.5,63,120.0
1794,B-5,280.75,0.25,57,120.0
1795,B-4,281.0,0.25,63,120.0
1796,F2,281.0,0.5,57,120.0
1797,B-5,281.25,0.25,56,120.0
1798,G#4,281.5,0.25,63,120.0
1799,B-2,281.5,0.375,57,120.0
1800,G#5,281.75,0.25,56,120.0
1801,G4,282.0,0.25,73,120.0
1802,B-2,282.0,0.5,63,120.0
1803,G5,282.25,0.25,60,120.0
1804,G4,282.5,0.25,66,120.0
1805,G2,282.5,0.5,58,120.0
1806,G5,282.75,0.25,60,120.0
1807,B-4,283.0,0.25,66,120.0
1808,E-2,283.0,0.375,58,120.0
1809,B-5,283.25,0.25,59,120.0
1810,B-4,283.5,0.25,73,120.0
1811,E-2,283.5,0.5,63,120.0
1812,B-5,283.75,0.25,60,120.0
1813,B-4,284.0,0.25,63,120.0
1814,G2,284.0,0.5,55,120.0
1815,B-5,284.25,0.25,55,120.0
1816,G4,284.5,0.25,66,120.0
1817,E2,284.5,0.375,64,120.0
1818,C3,284.5,0.375,64,120.0
1819,G5,284.75,0.25,60,120.0
1820,G#4,285.0,0.25,73,120.0
1821,C3,285.0,0.5,70,120.0
1822,F2,285.0,0.5,70,120.0
1823,G#5,285.25,0.25,53,120.0
1824,G#4,285.5,0.25,61,120.0
1825,G#2,285.5,0.5,63,120.0
1826,G#5,285.75,0.25,53,120.0
1827,C5,286.0,0.25,61,120.0
1828,F2,286.0,0.5,63,120.0
1829,C6,286.25,0.25,56,120.0
1830,C5,286.5,0.25,73,120.0
1831,E2,286.5,0.5,69,120.0
1832,C6,286.75,0.25,53,120.0
1833,C5,287.0,0.25,61,120.0
1834,G2,287.0,0.5,62,120.0
1835,C6,287.25,0.25,55,120.0
1836,B-4,287.5,0.25,61,120.0
1837,C3,287.5,0.375,73,120.0
1838,B-5,287.75,0.25,53,120.0
1839,G#4,288.0,0.25,73,120.0
1840,C3,288.0,0.5,86,120.0
1841,G#5,288.25,0.25,55,120.0
1842,G#4,288.5,0.25,61,120.0
1843,G#2,288.5,0.5,63,120.0
1844,G#5,288.75,0.25,55,120.0
1845,C5,289.0,0.25,61,120.0
1846,F2,289.0,0.5,63,120.0
1847,C6,289.25,0.25,55,120.0
1848,C5,289.5,0.25,73,120.0
1849,D2,289.5,0.5,72,120.0
1850,C6,289.75,0.25,52,120.0
1851,B-4,290.0,0.25,59,120.0
1852,F2,290.0,0.5,63,120.0
1853,B-5,290.25,0.25,52,120.0
1854,G#4,290.5,0.25,59,120.0
1855,D2,290.5,0.375,64,120.0
1856,B-2,290.5,0.375,64,120.0
1857,G#5,290.75,0.25,53,120.0
1858,G4,291.0,0.25,73,120.0
1859,E-2,291.0,0.5,72,120.0
1860,B-2,291.0,0.5,72,120.0
1861,G5,291.25,0.25,53,120.0
1862,B-4,291.5,0.25,61,120.0
1863,G2,291.5,0.5,60,120.0
1864,B-5,291.75,0.25,55,120.0
1865,E-5,292.0,0.25,61,120.0
1866,E-2,292.0,0.5,60,120.0
1867,E-6,292.25,0.25,55,120.0
1868,E-5,292.5,0.25,73,120.0
1869,G#1,292.5,1.0,53,120.0
1870,C2,292.5,0.5,63,120.0
1871,E-6,292.75,0.25,53,120.0
1872,C5,293.0,0.25,60,120.0
1873,F2,293.0,0.5,58,120.0
1874,C6,293.25,0.25,53,120.0
1875,G#4,293.5,0.25,60,120.0
1876,G#2,293.5,0.375,63,120.0
1877,G#5,293.75,0.25,53,120.0
1878,E-5,294.0,0.25,73,120.0
1879,B-1,294.0,0.5,69,120.0
1880,E-6,294.25,0.25,56,120.0
1881,B-4,294.5,0.25,62,120.0
1882,E-2,294.5,0.5,58,120.0
1883,B-5,294.75,0.25,55,120.0
1884,G4,295.0,0.25,62,120.0
1885,G2,295.0,0.375,58,120.0
1886,G5,295.25,0.25,55,120.0
1887,B-4,295.5,0.25,73,120.0
1888,B-1,295.5,0.5,63,120.0
1889,B-5,295.75,0.25,56,120.0
1890,G#4,296.0,0.25,64,120.0
1891,F2,296.0,0.5,57,120.0
1892,G#5,296.25,0.25,57,120.0
1893,F4,296.5,0.25,64,120.0
1894,B-2,296.5,0.375,57,120.0
1895,F5,296.75,0.25,58,120.0
1896,G3,297.0,0.25,78,120.0
1897,E-2,297.0,0.25,73,120.0
1898,E-4,297.25,0.25,64,120.0
1899,B-3,297.5,0.25,72,120.0
1900,G3,297.5,0.25,56,120.0
1901,E-3,297.5,0.25,56,120.0
1902,G4,297.75,0.25,64,120.0
1903,E-4,298.0,0.25,74,120.0
1904,B-3,298.0,0.25,53,120.0
1905,E-3,298.0,0.25,53,120.0
1906,G3,298.0,0.25,53,120.0
1907,B-4,298.25,0.25,64,120.0
1908,G4,298.5,0.25,79,120.0
1909,G3,298.5,0.25,52,120.0
1910,E-4,298.5,0.25,52,120.0
1911,B-3,298.5,0.25,52,120.0
1912,E-3,298.5,0.25,52,120.0
1913,E-5,298.75,0.25,64,120.0
1914,B-4,299.0,0.25,70,120.0
1915,E-3,299.0,0.25,52,120.0
1916,E-4,299.0,0.25,52,120.0
1917,B-3,299.0,0.25,52,120.0
1918,G3,299.0,0.25,52,120.0
1919,G5,299.25,0.25,64,120.0
1920,E-5,299.5,0.25,71,120.0
1921,B-3,299.5,0.25,52,120.0
1922,E-4,299.5,0.25,52,120.0
1923,E-3,299.5,0.25,52,120.0
1924,G3,299.5,0.25,52,120.0
1925,B-5,299.75,0.25,64,120.0
1926,G5,300.0,0.25,79,120.0
1927,E-4,300.0,0.25,60,120.0
1928,G3,300.0,0.25,60,120.0
1929,B-3,300.0,0.25,60,120.0
1930,E-3,300.0,0.25,60,120.0
1931,E-6,300.25,0.25,64,120.0
1932,B-5,300.5,0.25,70,120.0
1933,B-3,300.5,0.25,52,120.0
1934,E-4,300.5,0.25,52,120.0
1935,E-3,300.5,0.25,52,120.0
1936,G3,300.5,0.25,52,120.0
1937,G6,300.75,0.25,61,120.0
1938,E-6,301.0,0.25,69,120.0
1939,G3,301.0,0.25,52,120.0
1940,E-4,301.0,0.25,52,120.0
1941,B-3,301.0,0.25,52,120.0
1942,E-3,301.0,0.25,52,120.0
1943,B-6,301.25,0.25,62,120.0
1944,A6,301.5,0.25,73,120.0
1945,F3,301.5,0.25,52,120.0
1946,D4,301.5,0.25,52,120.0
1947,G#3,301.5,0.25,52,120.0
1948,B-3,301.5,0.25,52,120.0
1949,E-3,301.5,0.25,52,120.0
1950,B-6,301.75,0.25,66,120.0
1951,A6,302.0,0.25,70,120.0
1952,F3,302.0,0.25,52,120.0
1953,D4,302.0,0.25,52,120.0
1954,B-3,302.0,0.25,52,120.0
1955,G#3,302.0,0.25,52,120.0
1956,E-3,302.0,0.25,52,120.0
1957,B-6,302.25,0.25,64,120.0
1958,A6,302.5,0.25,69,120.0
1959,F3,302.5,0.25,52,120.0
1960,D4,302.5,0.25,52,120.0
1961,B-3,302.5,0.25,52,120.0
1962,G#3,302.5,0.25,52,120.0
1963,E-3,302.5,0.25,52,120.0
1964,B-6,302.75,0.25,64,120.0
1965,C7,303.0,0.25,77,120.0
1966,E-3,303.0,0.25,61,120.0
1967,E-4,303.0,0.25,61,120.0
1968,B-3,303.0,0.25,61,120.0
1969,G3,303.0,0.25,61,120.0
1970,B-6,303.25,0.25,77,120.0
1971,G#6,303.5,0.25,76,120.0
1972,B-3,303.5,0.25,52,120.0
1973,E-4,303.5,0.25,52,120.0
1974,E-3,303.5,0.25,52,120.0
1975,G3,303.5,0.25,52,120.0
1976,G6,303.75,0.25,75,120.0
1977,F6,304.0,0.25,74,120.0
1978,E-4,304.0,0.25,52,120.0
1979,G3,304.0,0.25,52,120.0
1980,B-3,304.0,0.25,52,120.0
1981,E-3,304.0,0.25,52,120.0
1982,E-6,304.25,0.25,74,120.0
1983,D6,304.5,0.25,72,120.0
1984,B-3,304.5,0.25,52,120.0
1985,E-4,304.5,0.25,52,120.0
1986,E-3,304.5,0.25,52,120.0
1987,G3,304.5,0.25,52,120.0
1988,C6,304.75,0.25,65,120.0
1989,B-5,305.0,0.25,65,120.0
1990,G3,305.0,0.25,52,120.0
1991,E-4,305.0,0.25,52,120.0
1992,B-3,305.0,0.25,52,120.0
1993,E-3,305.0,0.25,52,120.0
1994,G#5,305.25,0.25,65,120.0
1995,G5,305.5,0.25,65,120.0
1996,E-3,305.5,0.25,52,120.0
1997,E-4,305.5,0.25,52,120.0
1998,B-3,305.5,0.25,52,120.0
1999,G3,305.5,0.25,52,120.0
2000,F5,305.75,0.25,65,120.0
2001,E-5,306.0,0.25,70,120.0
2002,B-3,306.0,0.25,58,120.0
2003,E-4,306.0,0.25,58,120.0
2004,E-3,306.0,0.25,58,120.0
2005,G3,306.0,0.25,58,120.0
2006,D5,306.25,0.25,69,120.0
2007,C5,306.5,0.25,68,120.0
2008,E-4,306.5,0.25,51,120.0
2009,G3,306.5,0.25,51,120.0
2010,B-3,306.5,0.25,51,120.0
2011,E-3,306.5,0.25,51,120.0
2012,B-4,306.75,0.25,68,120.0
2013,G#4,307.0,0.25,67,120.0
2014,B-3,307.0,0.25,51,120.0
2015,E-4,307.0,0.25,51,120.0
2016,E-3,307.0,0.25,51,120.0
2017,G3,307.0,0.25,51,120.0
2018,G4,307.25,0.25,66,120.0
2019,F4,307.5,0.25,64,120.0
2020,F3,307.5,0.25,51,120.0
2021,B-3,307.5,0.25,51,120.0
2022,G#3,307.5,0.25,51,120.0
2023,E-3,307.5,0.25,51,120.0
2024,E-4,307.75,0.25,59,120.0
2025,D4,308.0,0.25,64,120.0
2026,E-3,308.0,0.25,51,120.0
2027,B-3,308.0,0.25,51,120.0
2028,G#3,308.0,0.25,51,120.0
2029,F3,308.0,0.25,51,120.0
2030,F4,308.25,0.25,60,120.0
2031,G#4,308.5,0.25,69,120.0
2032,G#3,308.5,0.25,51,120.0
2033,B-3,308.5,0.25,51,120.0
2034,E-3,308.5,0.25,51,120.0
2035,F3,308.5,0.25,51,120.0
2036,D4,308.75,0.25,63,120.0
2037,G3,309.0,0.25,78,120.0
2038,E-2,309.0,0.25,73,120.0
2039,E-4,309.25,0.25,64,120.0
2040,B-3,309.5,0.25,72,120.0
2041,E-3,309.5,0.25,56,120.0
2042,G3,309.5,0.25,56,120.0
2043,G4,309.75,0.25,64,120.0
2044,E-4,310.0,0.25,74,120.0
2045,E-3,310.0,0.25,53,120.0
2046,B-3,310.0,0.25,53,120.0
2047,G3,310.0,0.25,53,120.0
2048,B-4,310.25,0.25,64,120.0
2049,G4,310.5,0.25,79,120.0
2050,B-3,310.5,0.25,52,120.0
2051,E-4,310.5,0.25,52,120.0
2052,E-3,310.5,0.25,52,120.0
2053,G3,310.5,0.25,52,120.0
2054,E-5,310.75,0.25,64,120.0
2055,B-4,311.0,0.25,70,120.0
2056,E-4,311.0,0.25,52,120.0
2057,G3,311.0,0.25,52,120.0
2058,B-3,311.0,0.25,52,120.0
2059,E-3,311.0,0.25,52,120.0
2060,G5,311.25,0.25,64,120.0
2061,E-5,311.5,0.25,71,120.0
2062,B-3,311.5,0.25,52,120.0
2063,E-4,311.5,0.25,52,120.0
2064,E-3,311.5,0.25,52,120.0
2065,G3,311.5,0.25,52,120.0
2066,B-5,311.75,0.25,64,120.0
2067,G5,312.0,0.25,79,120.0
2068,G3,312.0,0.25,60,120.0
2069,E-4,312.0,0.25,60,120.0
2070,B-3,312.0,0.25,60,120.0
2071,E-3,312.0,0.25,60,120.0
2072,E-6,312.25,0.25,64,120.0
2073,B-5,312.5,0.25,70,120.0
2074,B-3,312.5,0.25,52,120.0
2075,E-3,312.5,0.25,52,120.0
2076,G3,312.5,0.25,52,120.0
2077,E-4,312.5,0.25,52,120.0
2078,G6,312.75,0.25,61,120.0
2079,E-6,313.0,0.25,69,120.0
2080,G3,313.0,0.25,52,120.0
2081,E-3,313.0,0.25,52,120.0
2082,B-3,313.0,0.25,52,120.0
2083,E-4,313.0,0.25,52,120.0
2084,B-6,313.25,0.25,62,120.0
2085,A6,313.5,0.25,73,120.0
2086,D4,313.5,0.25,52,120.0
2087,F3,313.5,0.25,52,120.0
2088,E-3,313.5,0.25,52,120.0
2089,B-3,313.5,0.25,52,120.0
2090,G#3,313.5,0.25,52,120.0
2091,B-6,313.75,0.25,66,120.0
2092,A6,314.0,0.25,70,120.0
2093,D4,314.0,0.25,52,120.0
2094,F3,314.0,0.25,52,120.0
2095,E-3,314.0,0.25,52,120.0
2096,G#3,314.0,0.25,52,120.0
2097,B-3,314.0,0.25,52,120.0
2098,B-6,314.25,0.25,64,120.0
2099,A6,314.5,0.25,69,120.0
2100,D4,314.5,0.25,52,120.0
2101,F3,314.5,0.25,52,120.0
2102,E-3,314.5,0.25,52,120.0
2103,G#3,314.5,0.25,52,120.0
2104,B-3,314.5,0.25,52,120.0
2105,B-6,314.75,0.25,64,120.0
2106,C7,315.0,0.25,77,120.0
2107,E-4,315.0,0.25,61,120.0
2108,E-3,315.0,0.25,61,120.0
2109,B-3,315.0,0.25,61,120.0
2110,G3,315.0,0.25,61,120.0
2111,B-6,315.25,0.25,77,120.0
2112,G#6,315.5,0.25,76,120.0
2113,E-4,315.5,0.25,52,120.0
2114,B-3,315.5,0.25,52,120.0
2115,E-3,315.5,0.25,52,120.0
2116,G3,315.5,0.25,52,120.0
2117,G6,315.75,0.25,75,120.0
2118,F6,316.0,0.25,74,120.0
2119,E-4,316.0,0.25,52,120.0
2120,B-3,316.0,0.25,52,120.0
2121,G3,316.0,0.25,52,120.0
2122,E-3,316.0,0.25,52,120.0
2123,E-6,316.25,0.25,74,120.0
2124,D6,316.5,0.25,72,120.0
2125,B-3,316.5,0.25,52,120.0
2126,E-3,316.5,0.25,52,120.0
2127,G3,316.5,0.25,52,120.0
2128,E-4,316.5,0.25,52,120.0
2129,C6,316.75,0.25,65,120.0
2130,B-5,317.0,0.25,65,120.0
2131,G3,317.0,0.25,52,120.0
2132,E-3,317.0,0.25,52,120.0
2133,B-3,317.0,0.25,52,120.0
2134,E-4,317.0,0.25,52,120.0
2135,G#5,317.25,0.25,65,120.0
2136,G5,317.5,0.25,65,120.0
2137,E-4,317.5,0.25,52,120.0
2138,E-3,317.5,0.25,52,120.0
2139,B-3,317.5,0.25,52,120.0
2140,G3,317.5,0.25,52,120.0
2141,F5,317.75,0.25,65,120.0
2142,E-5,318.0,169/1000,70,120.0
2143,G3,318.0,0.25,60,120.0
2144,E-3,318.0,0.25,60,120.0
2145,B-3,318.0,0.25,60,120.0
2146,D5,318.169,167/1000,69,120.0
2147,C5,318.333,167/1000,68,120.0
2148,B-4,318.5,167/1000,68,120.0
2149,B-3,318.5,0.25,52,120.0
2150,G3,318.5,0.25,52,120.0
2151,E-3,318.5,0.25,52,120.0
2152,G#4,318.667,167/1000,67,120.0
2153,G4,318.833,167/1000,66,120.0
2154,F4,319.0,167/1000,64,120.0
2155,G3,319.0,0.25,52,120.0
2156,B-3,319.0,0.25,52,120.0
2157,E-3,319.0,0.25,52,120.0
2158,E-4,319.167,167/1000,59,120.0
2159,D4,319.333,167/1000,55,120.0
2160,C4,319.5,0.25,62,120.0
2161,F3,319.5,0.25,54,120.0
2162,E-3,319.5,0.25,54,120.0
2163,B-3,319.75,0.25,54,120.0
2164,A3,320.0,0.25,60,120.0
2165,E-3,320.0,0.25,52,120.0
2166,F3,320.0,0.25,52,120.0
2167,F2,320.0,0.25,52,120.0
2168,C4,320.25,0.25,54,120.0
2169,E-4,320.5,0.25,64,120.0
2170,F3,320.5,0.25,52,120.0
2171,F2,320.5,0.25,52,120.0
2172,E-3,320.5,0.25,52,120.0
2173,A3,320.75,0.25,54,120.0
2174,B-3,321.0,0.5,95,120.0
2175,B-1,321.0,0.5,80,120.0
2176,B-2,321.0,0.5,80,120.0
2177,B-4,322.5,0.5,89,120.0
2178,B-3,322.5,0.5,75,120.0
2179,C#5,324.0,0.5,96,120.0
2180,C#4,324.0,0.5,81,120.0
2181,F#5,325.5,0.5,88,120.0
2182,F#4,325.5,0.5,74,120.0
2183,C#5,327.0,0.5,94,120.0
2184,C#4,327.0,0.5,79,120.0
2185,B-4,328.5,0.5,88,120.0
2186,B-3,328.5,0.5,74,120.0
2187,F#4,330.0,0.5,93,120.0
2188,F#3,330.0,0.5,78,120.0
2189,C#4,331.5,0.5,82,120.0
2190,C#3,331.5,0.5,70,120.0
2191,A3,333.0,0.5,95,120.0
2192,A2,333.0,0.5,80,120.0
2193,A1,333.0,0.5,80,120.0
2194,A4,334.5,0.5,89,120.0
2195,A3,334.5,0.5,75,120.0
2196,C5,336.0,0.5,96,120.0
2197,C4,336.0,0.5,81,120.0
2198,F5,337.5,0.5,88,120.0
2199,F4,337.5,0.5,74,120.0
2200,C5,339.0,0.5,94,120.0
2201,C4,339.0,0.5,79,120.0
2202,A4,340.5,0.5,88,120.0
2203,A3,340.5,0.5,74,120.0
2204,F4,342.0,0.5,93,120.0
2205,F3,342.0,0.5,78,120.0
2206,C4,343.5,0.5,82,120.0
2207,C3,343.5,0.5,70,120.0
2208,C#5,345.0,0.25,55,120.0
2209,C#4,345.0,0.25,36,120.0
2210,F#4,345.0,0.25,36,120.0
2211,B-3,345.0,0.25,36,120.0
2212,B-3,345.5,0.25,31,120.0
2213,C#4,345.5,0.25,31,120.0
2214,F#4,345.5,0.25,31,120.0
2215,C6,345.875,0.125,51,120.0
2216,B-5,346.0,0.25,57,120.0
2217,C#4,346.0,0.25,31,120.0
2218,B-3,346.0,0.25,31,120.0
2219,F#4,346.0,0.25,31,120.0
2220,A5,346.25,0.25,52,120.0
2221,B-5,346.5,0.25,57,120.0
2222,B-3,346.5,0.25,31,120.0
2223,F#4,346.5,0.25,31,120.0
2224,C#4,346.5,0.25,31,120.0
2225,B-3,347.0,0.25,32,120.0
2226,C#4,347.0,0.25,32,120.0
2227,F#4,347.0,0.25,32,120.0
2228,E-6,347.375,0.125,53,120.0
2229,C#6,347.5,0.25,59,120.0
2230,C#4,347.5,0.25,32,120.0
2231,F#4,347.5,0.25,32,120.0
2232,B-3,347.5,0.25,32,120.0
2233,C6,347.75,0.25,52,120.0
2234,C#6,348.0,0.25,63,120.0
2235,B-3,348.0,0.25,38,120.0
2236,C#4,348.0,0.25,38,120.0
2237,F#4,348.0,0.25,38,120.0
2238,C#4,348.5,0.25,33,120.0
2239,B-3,348.5,0.25,33,120.0
2240,F#4,348.5,0.25,33,120.0
2241,G#6,348.875,0.125,54,120.0
2242,F#6,349.0,0.25,60,120.0
2243,B-3,349.0,0.25,33,120.0
2244,F#4,349.0,0.25,33,120.0
2245,C#4,349.0,0.25,33,120.0
2246,F6,349.25,0.25,55,120.0
2247,F#6,349.5,0.25,61,120.0
2248,B-3,349.5,0.25,33,120.0
2249,C#4,349.5,0.25,33,120.0
2250,F#4,349.5,0.25,33,120.0
2251,C#4,350.0,0.25,31,120.0
2252,F#4,350.0,0.25,31,120.0
2253,B-3,350.0,0.25,31,120.0
2254,E-6,350.375,0.125,51,120.0
2255,C#6,350.5,0.25,57,120.0
2256,B-3,350.5,0.25,31,120.0
2257,C#4,350.5,0.25,31,120.0
2258,F#4,350.5,0.25,31,120.0
2259,C6,350.75,0.25,50,120.0
2260,C#6,351.0,0.25,60,120.0
2261,C#4,351.0,0.25,36,120.0
2262,B-3,351.0,0.25,36,120.0
2263,F#4,351.0,0.25,36,120.0
2264,B-3,351.5,0.25,31,120.0
2265,F#4,351.5,0.25,31,120.0
2266,C#4,351.5,0.25,31,120.0
2267,C6,351.875,0.125,51,120.0
2268,B-5,352.0,0.25,56,120.0
2269,B-3,352.0,0.25,31,120.0
2270,C#4,352.0,0.25,31,120.0
2271,F#4,352.0,0.25,31,120.0
2272,A5,352.25,0.25,51,120.0
2273,B-5,352.5,0.25,56,120.0
2274,C#4,352.5,0.25,31,120.0
2275,F#4,352.5,0.25,31,120.0
2276,B-3,352.5,0.25,31,120.0
2277,B-3,353.0,0.25,31,120.0
2278,C#4,353.0,0.25,31,120.0
2279,F#4,353.0,0.25,31,120.0
2280,G#5,353.375,0.125,51,120.0
2281,F#5,353.5,0.25,57,120.0
2282,C#4,353.5,0.25,31,120.0
2283,B-3,353.5,0.25,31,120.0
2284,F#4,353.5,0.25,31,120.0
2285,F5,353.75,0.25,50,120.0
2286,F#5,354.0,0.25,60,120.0
2287,B-3,354.0,0.25,36,120.0
2288,F#4,354.0,0.25,36,120.0
2289,C#4,354.0,0.25,36,120.0
2290,B-3,354.5,0.25,31,120.0
2291,C#4,354.5,0.25,31,120.0
2292,F#4,354.5,0.25,31,120.0
2293,E-5,354.875,0.125,51,120.0
2294,C#5,355.0,0.25,56,120.0
2295,C#4,355.0,0.25,31,120.0
2296,F#4,355.0,0.25,31,120.0
2297,B-3,355.0,0.25,31,120.0
2298,C5,355.25,0.25,51,120.0
2299,C#5,355.5,1.0,56,120.0
2300,B-3,355.5,0.25,31,120.0
2301,C#4,355.5,0.25,31,120.0
2302,F#4,355.5,0.25,31,120.0
2303,C#4,356.0,0.25,31,120.0
2304,B-3,356.0,0.25,31,120.0
2305,F#4,356.0,0.25,31,120.0
2306,B-3,356.5,0.25,31,120.0
2307,E4,356.5,0.25,31,120.0
2308,C#4,356.5,0.25,31,120.0
2309,C5,357.0,0.25,55,120.0
2310,A3,357.0,0.25,36,120.0
2311,C4,357.0,0.25,36,120.0
2312,F4,357.0,0.25,36,120.0
2313,C4,357.5,0.25,31,120.0
2314,F4,357.5,0.25,31,120.0
2315,A3,357.5,0.25,31,120.0
2316,B-5,357.875,0.125,51,120.0
2317,A5,358.0,0.25,57,120.0
2318,F4,358.0,0.25,31,120.0
2319,A3,358.0,0.25,31,120.0
2320,C4,358.0,0.25,31,120.0
2321,G5,358.25,0.25,52,120.0
2322,A5,358.5,0.25,57,120.0
2323,A3,358.5,0.25,31,120.0
2324,C4,358.5,0.25,31,120.0
2325,F4,358.5,0.25,31,120.0
2326,C4,359.0,0.25,32,120.0
2327,A3,359.0,0.25,32,120.0
2328,F4,359.0,0.25,32,120.0
2329,D6,359.375,0.125,53,120.0
2330,C6,359.5,0.25,59,120.0
2331,A3,359.5,0.25,32,120.0
2332,F4,359.5,0.25,32,120.0
2333,C4,359.5,0.25,32,120.0
2334,B5,359.75,0.25,52,120.0
2335,C6,360.0,0.25,63,120.0
2336,A3,360.0,0.25,38,120.0
2337,C4,360.0,0.25,38,120.0
2338,F4,360.0,0.25,38,120.0
2339,F4,360.5,0.25,33,120.0
2340,A3,360.5,0.25,33,120.0
2341,C4,360.5,0.25,33,120.0
2342,F#6,360.875,0.125,55,120.0
2343,F6,361.0,0.25,60,120.0
2344,A3,361.0,0.25,33,120.0
2345,C4,361.0,0.25,33,120.0
2346,F4,361.0,0.25,33,120.0
2347,E6,361.25,0.25,55,120.0
2348,F6,361.5,0.25,61,120.0
2349,C4,361.5,0.25,33,120.0
2350,A3,361.5,0.25,33,120.0
2351,F4,361.5,0.25,33,120.0
2352,A3,362.0,0.25,31,120.0
2353,F4,362.0,0.25,31,120.0
2354,C4,362.0,0.25,31,120.0
2355,C#6,362.375,0.125,51,120.0
2356,C6,362.5,0.25,57,120.0
2357,A3,362.5,0.25,31,120.0
2358,C4,362.5,0.25,31,120.0
2359,F4,362.5,0.25,31,120.0
2360,B5,362.75,0.25,50,120.0
2361,C6,363.0,0.25,60,120.0
2362,F4,363.0,0.25,36,120.0
2363,A3,363.0,0.25,36,120.0
2364,C4,363.0,0.25,36,120.0
2365,A3,363.5,0.25,31,120.0
2366,C4,363.5,0.25,31,120.0
2367,F4,363.5,0.25,31,120.0
2368,B-5,363.875,0.125,51,120.0
2369,A5,364.0,0.25,56,120.0
2370,C4,364.0,0.25,31,120.0
2371,A3,364.0,0.25,31,120.0
2372,F4,364.0,0.25,31,120.0
2373,G5,364.25,0.25,51,120.0
2374,A5,364.5,0.25,56,120.0
2375,A3,364.5,0.25,31,120.0
2376,F4,364.5,0.25,31,120.0
2377,C4,364.5,0.25,31,120.0
2378,A3,365.0,0.25,31,120.0
2379,C4,365.0,0.25,31,120.0
2380,F4,365.0,0.25,31,120.0
2381,F#5,365.375,0.125,51,120.0
2382,F5,365.5,0.25,57,120.0
2383,F4,365.5,0.25,31,120.0
2384,A3,365.5,0.25,31,120.0
2385,C4,365.5,0.25,31,120.0
2386,E5,365.75,0.25,50,120.0
2387,F5,366.0,0.25,60,120.0
2388,C4,366.0,0.25,36,120.0
2389,A3,366.0,0.25,36,120.0
2390,F4,366.0,0.25,36,120.0
2391,C4,366.5,0.25,31,120.0
2392,A3,366.5,0.25,31,120.0
2393,F4,366.5,0.25,31,120.0
2394,C#5,366.875,0.125,51,120.0
2395,C5,367.0,0.25,56,120.0
2396,A3,367.0,0.25,31,120.0
2397,C4,367.0,0.25,31,120.0
2398,F4,367.0,0.25,31,120.0
2399,B4,367.25,0.25,51,120.0
2400,C5,367.5,0.5,56,120.0
2401,A3,367.5,0.5,31,120.0
2402,C4,367.5,0.5,31,120.0
2403,F4,367.5,0.5,31,120.0
2404,F3,368.0,0.5,35,120.0
2405,C#5,368.5,0.5,61,120.0
2406,E-3,368.5,0.5,35,120.0
2407,D5,369.0,1.5,56,120.0
2408,F4,369.0,0.25,35,120.0
2409,B-2,369.0,3.0,40,120.0
2410,D3,369.0,1.0,40,120.0
2411,G4,369.25,0.25,31,120.0
2412,F4,369.5,0.25,35,120.0
2413,G4,369.75,0.25,31,120.0
2414,F4,370.0,0.25,34,120.0
2415,G3,370.0,0.5,33,120.0
2416,G4,370.25,0.25,31,120.0
2417,F4,370.5,0.25,36,120.0
2418,B-4,370.5,1.5,55,120.0
2419,F3,370.5,1.0,42,120.0
2420,G4,370.75,0.25,32,120.0
2421,F4,371.0,0.25,36,120.0
2422,G4,371.25,0.25,31,120.0
2423,F4,371.5,0.25,37,120.0
2424,D3,371.5,0.5,39,120.0
2425,G4,371.75,0.25,31,120.0
2426,F4,372.0,0.25,37,120.0
2427,A4,372.0,1.5,59,120.0
2428,F2,372.0,3.0,42,120.0
2429,C3,372.0,1.0,42,120.0
2430,G4,372.25,0.25,33,120.0
2431,F4,372.5,0.25,37,120.0
2432,G4,372.75,0.25,33,120.0
2433,F4,373.0,0.25,37,120.0
2434,G3,373.0,0.5,36,120.0
2435,G4,373.25,0.25,34,120.0
2436,F4,373.5,0.25,38,120.0
2437,E-5,373.5,1.5,59,120.0
2438,F3,373.5,1.0,45,120.0
2439,G4,373.75,0.25,34,120.0
2440,F4,374.0,0.25,39,120.0
2441,G4,374.25,0.25,33,120.0
2442,F4,374.5,0.25,39,120.0
2443,C3,374.5,0.5,41,120.0
2444,G4,374.75,0.25,34,120.0
2445,F4,375.0,0.25,40,120.0
2446,D5,375.0,1.5,64,120.0
2447,B-2,375.0,3.0,46,120.0
2448,D3,375.0,1.0,46,120.0
2449,G4,375.25,0.25,35,120.0
2450,F4,375.5,0.25,39,120.0
2451,G4,375.75,0.25,35,120.0
2452,F4,376.0,0.25,38,120.0
2453,G3,376.0,0.5,37,120.0
2454,G4,376.25,0.25,34,120.0
2455,F4,376.5,0.25,39,120.0
2456,B-4,376.5,1.5,60,120.0
2457,F3,376.5,1.0,45,120.0
2458,G4,376.75,0.25,34,120.0
2459,F4,377.0,0.25,38,120.0
2460,G4,377.25,0.25,33,120.0
2461,F4,377.5,0.25,38,120.0
2462,D3,377.5,0.5,40,120.0
2463,G4,377.75,0.25,32,120.0
2464,F4,378.0,0.25,37,120.0
2465,A4,378.0,1.5,60,120.0
2466,F2,378.0,3.0,43,120.0
2467,C3,378.0,1.0,43,120.0
2468,G4,378.25,0.25,33,120.0
2469,F4,378.5,0.25,37,120.0
2470,G4,378.75,0.25,32,120.0
2471,F4,379.0,0.25,35,120.0
2472,G3,379.0,0.5,34,120.0
2473,G4,379.25,0.25,32,120.0
2474,F4,379.5,0.25,36,120.0
2475,E-5,379.5,1.5,56,120.0
2476,F3,379.5,1.0,42,120.0
2477,G4,379.75,0.25,32,120.0
2478,F4,380.0,0.25,36,120.0
2479,G4,380.25,0.25,30,120.0
2480,F4,380.5,0.25,35,120.0
2481,C3,380.5,0.5,37,120.0
2482,G4,380.75,0.25,30,120.0
2483,D5,381.0,0.25,51,120.0
2484,D3,381.0,0.25,37,120.0
2485,B-2,381.0,0.25,37,120.0
2486,F5,381.25,0.25,45,120.0
2487,G5,381.5,167/1000,48,120.0
2488,D3,381.5,0.25,31,120.0
2489,F3,381.5,0.25,31,120.0
2490,B-3,381.5,0.25,31,120.0
2491,A5,381.667,167/1000,50,120.0
2492,B-5,381.833,167/1000,52,120.0
2493,C6,382.0,167/1000,54,120.0
2494,D3,382.0,0.25,31,120.0
2495,F3,382.0,0.25,31,120.0
2496,B-3,382.0,0.25,31,120.0
2497,D6,382.167,167/1000,56,120.0
2498,E-6,382.333,167/1000,59,120.0
2499,F6,382.5,0.25,61,120.0
2500,D3,382.5,0.25,31,120.0
2501,F3,382.5,0.25,31,120.0
2502,B-3,382.5,0.25,31,120.0
2503,E-6,382.75,0.25,60,120.0
2504,D6,383.0,0.25,58,120.0
2505,D3,383.0,0.25,31,120.0
2506,F3,383.0,0.25,31,120.0
2507,B-3,383.0,0.25,31,120.0
2508,C6,383.25,0.25,57,120.0
2509,B-5,383.5,0.25,55,120.0
2510,D3,383.5,0.25,31,120.0
2511,F3,383.5,0.25,31,120.0
2512,B-3,383.5,0.25,31,120.0
2513,A5,383.75,0.25,54,120.0
2514,G5,384.0,0.25,51,120.0
2515,A5,384.25,0.25,45,120.0
2516,B-5,384.5,0.25,48,120.0
2517,E-3,384.5,0.25,31,120.0
2518,G3,384.5,0.25,31,120.0
2519,B-3,384.5,0.25,31,120.0
2520,C6,384.75,0.25,50,120.0
2521,D6,385.0,167/1000,54,120.0
2522,E-3,385.0,0.25,31,120.0
2523,G3,385.0,0.25,31,120.0
2524,B-3,385.0,0.25,31,120.0
2525,E-6,385.167,167/1000,56,120.0
2526,F6,385.333,167/1000,59,120.0
2527,G6,385.5,0.25,61,120.0
2528,E-3,385.5,0.25,31,120.0
2529,G3,385.5,0.25,31,120.0
2530,B-3,385.5,0.25,31,120.0
2531,F6,385.75,0.25,60,120.0
2532,E-6,386.0,167/1000,58,120.0
2533,E-3,386.0,0.25,31,120.0
2534,G3,386.0,0.25,31,120.0
2535,B-3,386.0,0.25,31,120.0
2536,D6,386.167,167/1000,57,120.0
2537,C6,386.333,167/1000,56,120.0
2538,B-5,386.5,167/1000,55,120.0
2539,E-3,386.5,0.25,31,120.0
2540,G3,386.5,0.25,31,120.0
2541,C4,386.5,0.25,31,120.0
2542,A5,386.667,167/1000,54,120.0
2543,G5,386.833,167/1000,53,120.0
2544,F5,387.0,0.25,57,120.0
2545,D6,387.25,0.25,49,120.0
2546,B-5,387.5,0.25,59,120.0
2547,F3,387.5,0.25,31,120.0
2548,B-3,387.5,0.25,31,120.0
2549,D4,387.5,0.25,31,120.0
2550,F6,387.75,0.25,55,120.0
2551,D6,388.0,0.25,62,120.0
2552,F3,388.0,0.25,31,120.0
2553,B-3,388.0,0.25,31,120.0
2554,D4,388.0,0.25,31,120.0
2555,B-6,388.25,0.25,57,120.0
2556,F6,388.5,167/1000,62,120.0
2557,F3,388.5,0.25,31,120.0
2558,B-3,388.5,0.25,31,120.0
2559,D4,388.5,0.25,31,120.0
2560,D7,388.667,167/1000,57,120.0
2561,B-6,388.833,167/1000,55,120.0
2562,F7,389.0,167/1000,61,120.0
2563,F3,389.0,0.25,31,120.0
2564,B-3,389.0,0.25,31,120.0
2565,D4,389.0,0.25,31,120.0
2566,D7,389.167,167/1000,53,120.0
2567,B-6,389.333,167/1000,54,120.0
2568,F6,389.5,167/1000,59,120.0
2569,F3,389.5,0.25,31,120.0
2570,B-3,389.5,0.25,31,120.0
2571,D4,389.5,0.25,31,120.0
2572,D6,389.667,167/1000,53,120.0
2573,B-5,389.833,167/1000,53,120.0
2574,F5,390.0,1.0,59,120.0
2575,D4,390.0,0.25,31,120.0
2576,F3,390.0,0.25,31,120.0
2577,B-3,390.0,0.25,31,120.0
2578,F3,390.5,0.25,31,120.0
2579,B-3,390.5,0.25,31,120.0
2580,D4,390.5,0.25,31,120.0
2581,D4,391.0,0.25,31,120.0
2582,B-3,391.0,0.25,31,120.0
2583,F3,391.0,0.25,31,120.0
2584,C6,391.5,167/1000,59,120.0
2585,F3,391.5,0.25,31,120.0
2586,A3,391.5,0.25,31,120.0
2587,E-4,391.5,0.25,31,120.0
2588,D6,391.667,167/1000,52,120.0
2589,C6,391.833,167/1000,59,120.0
2590,D6,392.0,167/1000,54,120.0
2591,F3,392.0,0.25,31,120.0
2592,A3,392.0,0.25,31,120.0
2593,E-4,392.0,0.25,31,120.0
2594,C6,392.167,167/1000,59,120.0
2595,D6,392.333,167/1000,53,120.0
2596,C6,392.5,167/1000,59,120.0
2597,F3,392.5,0.25,31,120.0
2598,A3,392.5,0.25,31,120.0
2599,E-4,392.5,0.25,31,120.0
2600,D6,392.667,167/1000,53,120.0
2601,C6,392.833,167/1000,56,120.0
2602,D6,393.0,1.5,61,120.0
2603,F5,393.0,0.25,41,120.0
2604,B-3,393.0,3.0,40,120.0
2605,D4,393.0,1.0,40,120.0
2606,G5,393.25,0.25,31,120.0
2607,F5,393.5,0.25,35,120.0
2608,G5,393.75,0.25,31,120.0
2609,F5,394.0,0.25,34,120.0
2610,G4,394.0,0.5,33,120.0
2611,G5,394.25,0.25,31,120.0
2612,F5,394.5,0.25,36,120.0
2613,B-5,394.5,1.5,55,120.0
2614,F4,394.5,1.0,42,120.0
2615,G5,394.75,0.25,32,120.0
2616,F5,395.0,0.25,36,120.0
2617,G5,395.25,0.25,31,120.0
2618,F5,395.5,0.25,37,120.0
2619,D4,395.5,0.5,39,120.0
2620,G5,395.75,0.25,31,120.0
2621,F5,396.0,0.25,37,120.0
2622,A5,396.0,1.5,59,120.0
2623,F3,396.0,3.0,42,120.0
2624,C4,396.0,1.0,42,120.0
2625,G5,396.25,0.25,33,120.0
2626,F5,396.5,0.25,37,120.0
2627,G5,396.75,0.25,33,120.0
2628,F5,397.0,0.25,37,120.0
2629,G4,397.0,0.5,36,120.0
2630,G5,397.25,0.25,34,120.0
2631,F5,397.5,0.25,38,120.0
2632,E-6,397.5,1.5,59,120.0
2633,F4,397.5,1.0,45,120.0
2634,G5,397.75,0.25,34,120.0
2635,F5,398.0,0.25,39,120.0
2636,G5,398.25,0.25,33,120.0
2637,F5,398.5,0.25,39,120.0
2638,C4,398.5,0.5,41,120.0
2639,G5,398.75,0.25,34,120.0
2640,F5,399.0,0.25,40,120.0
2641,D6,399.0,1.5,64,120.0
2642,B-3,399.0,3.0,46,120.0
2643,D4,399.0,1.0,46,120.0
2644,G5,399.25,0.25,35,120.0
2645,F5,399.5,0.25,39,120.0
2646,G5,399.75,0.25,35,120.0
2647,F5,400.0,0.25,38,120.0
2648,G4,400.0,0.5,37,120.0
2649,G5,400.25,0.25,34,120.0
2650,B-5,400.5,1.5,60,120.0
2651,F5,400.5,0.25,39,120.0
2652,F4,400.5,1.0,45,120.0
2653,G5,400.75,0.25,34,120.0
2654,F5,401.0,0.25,38,120.0
2655,G5,401.25,0.25,33,120.0
2656,F5,401.5,0.25,38,120.0
2657,D4,401.5,0.5,40,120.0
2658,G5,401.75,0.25,32,120.0
2659,F5,402.0,0.25,37,120.0
2660,A5,402.0,1.5,60,120.0
2661,F3,402.0,3.0,43,120.0
2662,C4,402.0,1.0,43,120.0
2663,G5,402.25,0.25,33,120.0
2664,F5,402.5,0.25,37,120.0
2665,G5,402.75,0.25,32,120.0
2666,F5,403.0,0.25,35,120.0
2667,G4,403.0,0.5,34,120.0
2668,G5,403.25,0.25,32,120.0
2669,E-6,403.5,1.5,56,120.0
2670,F5,403.5,0.25,36,120.0
2671,F4,403.5,1.0,42,120.0
2672,G5,403.75,0.25,32,120.0
2673,F5,404.0,0.25,36,120.0
2674,G5,404.25,0.25,30,120.0
2675,F5,404.5,0.25,35,120.0
2676,C4,404.5,0.5,37,120.0
2677,G5,404.75,0.25,30,120.0
2678,D4,405.0,0.25,51,120.0
2679,F4,405.0,0.25,51,120.0
2680,G4,405.25,0.25,45,120.0
2681,A4,405.5,0.25,50,120.0
2682,D6,405.5,0.25,45,120.0
2683,B-5,405.5,0.25,45,120.0
2684,B-4,405.75,0.25,52,120.0
2685,C5,406.0,167/1000,54,120.0
2686,D6,406.0,0.25,45,120.0
2687,B-5,406.0,0.25,45,120.0
2688,D5,406.167,167/1000,56,120.0
2689,E-5,406.333,167/1000,59,120.0
2690,F5,406.5,0.25,61,120.0
2691,D6,406.5,0.25,48,120.0
2692,B-5,406.5,0.25,48,120.0
2693,E-5,406.75,0.25,60,120.0
2694,D5,407.0,0.25,58,120.0
2695,D6,407.0,0.25,42,120.0
2696,B-5,407.0,0.25,42,120.0
2697,C5,407.25,0.25,57,120.0
2698,B-4,407.5,0.25,55,120.0
2699,D6,407.5,0.25,42,120.0
2700,B-5,407.5,0.25,42,120.0
2701,A4,407.75,0.25,54,120.0
2702,E-4,408.0,0.25,51,120.0
2703,G4,408.0,0.25,51,120.0
2704,A4,408.25,0.25,45,120.0
2705,B-4,408.5,0.25,48,120.0
2706,C6,408.5,0.25,45,120.0
2707,B-5,408.5,0.25,45,120.0
2708,C5,408.75,0.25,50,120.0
2709,D5,409.0,167/1000,55,120.0
2710,B-5,409.0,0.25,45,120.0
2711,C6,409.0,0.25,45,120.0
2712,E-5,409.167,167/1000,57,120.0
2713,F5,409.333,167/1000,60,120.0
2714,G5,409.5,0.25,62,120.0
2715,B-5,409.5,0.25,49,120.0
2716,C6,409.5,0.25,49,120.0
2717,F5,409.75,0.25,62,120.0
2718,E-5,410.0,167/1000,60,120.0
2719,C6,410.0,0.25,44,120.0
2720,B-5,410.0,0.25,44,120.0
2721,D5,410.167,167/1000,59,120.0
2722,C5,410.333,167/1000,58,120.0
2723,B-4,410.5,167/1000,58,120.0
2724,C6,410.5,0.25,46,120.0
2725,B-5,410.5,0.25,46,120.0
2726,A4,410.667,167/1000,57,120.0
2727,G4,410.833,167/1000,56,120.0
2728,F4,411.0,0.25,60,120.0
2729,F3,411.25,0.25,52,120.0
2730,B-3,411.5,0.25,63,120.0
2731,D6,411.5,0.25,48,120.0
2732,B-5,411.5,0.25,48,120.0
2733,D4,411.75,0.25,59,120.0
2734,F4,412.0,0.25,68,120.0
2735,D6,412.0,0.25,49,120.0
2736,B-5,412.0,0.25,49,120.0
2737,B-4,412.25,0.25,62,120.0
2738,D5,412.5,0.25,63,120.0
2739,D6,412.5,0.25,52,120.0
2740,B-5,412.5,0.25,52,120.0
2741,B-4,412.75,0.25,54,120.0
2742,F5,413.0,0.25,66,120.0
2743,D6,413.0,0.25,47,120.0
2744,B-5,413.0,0.25,47,120.0
2745,D5,413.25,0.25,62,120.0
2746,B-4,413.5,0.25,70,120.0
2747,F6,413.5,0.25,48,120.0
2748,B-5,413.5,0.25,48,120.0
2749,D6,413.5,0.25,48,120.0
2750,D5,413.75,0.25,64,120.0
2751,C5,414.0,167/1000,67,120.0
2752,F4,414.0,0.5,60,120.0
2753,E-6,414.0,0.25,59,120.0
2754,A5,414.0,0.25,59,120.0
2755,F6,414.0,0.25,59,120.0
2756,D5,414.167,167/1000,59,120.0
2757,C5,414.333,167/1000,67,120.0
2758,D5,414.5,167/1000,61,120.0
2759,F6,414.5,0.25,46,120.0
2760,A5,414.5,0.25,46,120.0
2761,E-6,414.5,0.25,46,120.0
2762,C5,414.667,167/1000,66,120.0
2763,D5,414.833,167/1000,59,120.0
2764,C5,415.0,167/1000,66,120.0
2765,E-6,415.0,0.25,45,120.0
2766,F6,415.0,0.25,45,120.0
2767,A5,415.0,0.25,45,120.0
2768,D5,415.167,167/1000,59,120.0
2769,C5,415.333,167/1000,62,120.0
2770,D5,415.5,167/1000,56,120.0
2771,F6,415.5,0.25,53,120.0
2772,A5,415.5,0.25,53,120.0
2773,E-6,415.5,0.25,53,120.0
2774,C5,415.667,167/1000,63,120.0
2775,D5,415.833,167/1000,55,120.0
2776,C5,416.0,167/1000,63,120.0
2777,E-6,416.0,0.25,45,120.0
2778,F6,416.0,0.25,45,120.0
2779,A5,416.0,0.25,45,120.0
2780,D5,416.167,167/1000,55,120.0
2781,C5,416.333,167/1000,63,120.0
2782,D5,416.5,167/1000,55,120.0
2783,F6,416.5,0.25,44,120.0
2784,A5,416.5,0.25,44,120.0
2785,E-6,416.5,0.25,44,120.0
2786,C5,416.667,167/1000,63,120.0
2787,D5,416.833,167/1000,59,120.0
2788,F4,417.0,0.25,62,120.0
2789,B4,417.25,0.25,55,120.0
2790,C5,417.5,0.25,58,120.0
2791,D5,417.75,0.25,60,120.0
2792,C5,418.0,0.25,58,120.0
2793,G#5,418.0,1.5,76,120.0
2794,G#6,418.0,1.5,76,120.0
2795,B4,418.25,0.25,58,120.0
2796,E-4,418.5,0.25,61,120.0
2797,C5,418.75,0.25,56,120.0
2798,D5,419.0,0.25,59,120.0
2799,E-5,419.25,0.25,61,120.0
2800,D5,419.5,0.25,57,120.0
2801,G5,419.5,0.5,72,120.0
2802,G6,419.5,0.5,72,120.0
2803,C5,419.75,0.25,57,120.0
2804,E-4,420.012,0.25,62,120.0
2805,A4,420.25,0.25,55,120.0
2806,B-4,420.5,0.25,58,120.0
2807,C5,420.74,0.25,60,120.0
2808,B-4,421.0,0.25,59,120.0
2809,F#5,421.0,1.5,75,120.0
2810,F#6,421.0,1.5,75,120.0
2811,A4,421.25,0.25,59,120.0
2812,D4,421.5,0.25,62,120.0
2813,B-4,421.75,0.25,57,120.0
2814,C5,422.0,0.25,61,120.0
2815,D5,422.25,0.25,64,120.0
2816,C5,422.5,0.25,59,120.0
2817,F5,422.5,0.5,74,120.0
2818,F6,422.5,0.5,74,120.0
2819,B-4,422.75,0.25,60,120.0
2820,F3,423.012,0.25,65,120.0
2821,B3,423.25,0.25,58,120.0
2822,C4,423.5,0.25,62,120.0
2823,D4,423.74,0.25,64,120.0
2824,C4,424.0,0.25,62,120.0
2825,G#4,424.0,1.5,80,120.0
2826,G#5,424.0,1.5,80,120.0
2827,B3,424.25,0.25,63,120.0
2828,E-3,424.5,0.25,67,120.0
2829,C4,424.75,0.25,61,120.0
2830,D4,425.0,0.25,65,120.0
2831,E-4,425.25,0.25,67,120.0
2832,D4,425.5,0.25,63,120.0
2833,G4,425.5,0.5,78,120.0
2834,G5,425.5,0.5,78,120.0
2835,C4,425.75,0.25,63,120.0
2836,E-3,426.012,0.25,70,120.0
2837,A3,426.25,0.25,62,120.0
2838,B-3,426.5,0.25,66,120.0
2839,C4,426.74,0.25,68,120.0
2840,B-3,427.0,0.25,66,120.0
2841,F#4,427.0,1.5,85,120.0
2842,F#5,427.0,1.5,85,120.0
2843,A3,427.25,0.25,67,120.0
2844,D3,427.5,0.25,70,120.0
2845,B-3,427.75,0.25,65,120.0
2846,C4,428.0,0.25,69,120.0
2847,D4,428.25,0.25,71,120.0
2848,C4,428.5,0.25,67,120.0
2849,F4,428.5,0.5,82,120.0
2850,F5,428.5,0.5,82,120.0
2851,B-3,428.75,0.25,67,120.0
2852,D3,429.0,0.25,70,120.0
2853,F3,429.25,0.25,62,120.0
2854,B-3,429.5,0.25,66,120.0
2855,B-4,429.5,0.25,64,120.0
2856,F5,429.5,0.25,64,120.0
2857,F4,429.5,0.25,64,120.0
2858,D4,429.75,0.25,68,120.0
2859,B-3,430.0,0.25,66,120.0
2860,F4,430.0,0.25,61,120.0
2861,F5,430.0,0.25,61,120.0
2862,B-4,430.0,0.25,61,120.0
2863,F3,430.25,0.25,63,120.0
2864,G2,430.5,0.25,70,120.0
2865,B-2,430.75,0.25,65,120.0
2866,D3,431.0,0.25,69,120.0
2867,B-4,431.0,0.25,62,120.0
2868,E-5,431.0,0.25,62,120.0
2869,G4,431.0,0.25,62,120.0
2870,G3,431.25,0.25,71,120.0
2871,D3,431.5,0.25,67,120.0
2872,D5,431.5,0.25,58,120.0
2873,G4,431.5,0.25,58,120.0
2874,B-4,431.5,0.25,58,120.0
2875,B-2,431.75,0.25,64,120.0
2876,E-2,432.0,0.25,70,120.0
2877,G2,432.25,0.25,62,120.0
2878,C3,432.5,0.25,66,120.0
2879,E-4,432.5,0.25,64,120.0
2880,D5,432.5,0.25,64,120.0
2881,G4,432.5,0.25,64,120.0
2882,E-3,432.75,0.25,68,120.0
2883,C3,433.0,0.25,66,120.0
2884,C5,433.0,0.25,61,120.0
2885,G4,433.0,0.25,61,120.0
2886,E-4,433.0,0.25,61,120.0
2887,G2,433.25,0.25,63,120.0
2888,F2,433.5,0.25,70,120.0
2889,C3,433.75,0.25,65,120.0
2890,E-3,434.0,0.25,69,120.0
2891,B-4,434.0,0.25,62,120.0
2892,E-4,434.0,0.25,62,120.0
2893,C4,434.0,0.25,62,120.0
2894,F3,434.25,0.25,71,120.0
2895,E-3,434.5,0.25,67,120.0
2896,A4,434.5,0.25,58,120.0
2897,E-4,434.5,0.25,58,120.0
2898,C4,434.5,0.25,58,120.0
2899,C3,434.75,0.25,64,120.0
2900,D2,435.0,0.25,70,120.0
2901,F2,435.25,0.25,62,120.0
2902,B-2,435.5,0.25,66,120.0
2903,B-4,435.5,0.25,64,120.0
2904,F4,435.5,0.25,64,120.0
2905,B-3,435.5,0.25,64,120.0
2906,D3,435.75,0.25,68,120.0
2907,B-2,436.0,0.25,67,120.0
2908,F4,436.0,0.25,62,120.0
2909,D4,436.0,0.25,62,120.0
2910,B-3,436.0,0.25,62,120.0
2911,F2,436.25,0.25,64,120.0
2912,G1,436.5,0.25,72,120.0
2913,B-1,436.75,0.25,67,120.0
2914,D2,437.0,0.25,72,120.0
2915,G3,437.0,0.25,69,120.0
2916,E-4,437.0,0.25,69,120.0
2917,B-3,437.0,0.25,69,120.0
2918,G2,437.25,0.25,74,120.0
2919,D2,437.5,0.25,71,120.0
2920,D4,437.5,0.25,61,120.0
2921,B-3,437.5,0.25,61,120.0
2922,G3,437.5,0.25,61,120.0
2923,B-1,437.75,0.25,67,120.0
2924,E-2,438.0,0.25,74,120.0
2925,G2,438.25,0.25,66,120.0
2926,C3,438.5,0.25,71,120.0
2927,D4,438.5,0.25,68,120.0
2928,G3,438.5,0.25,68,120.0
2929,E-3,438.5,0.25,68,120.0
2930,G2,438.75,0.25,74,120.0
2931,E-2,439.0,0.5,72,120.0
2932,C4,439.0,0.25,66,120.0
2933,G3,439.0,0.25,66,120.0
2934,E-3,439.0,0.25,66,120.0
2935,F1,439.5,0.25,77,120.0
2936,C2,439.75,0.25,72,120.0
2937,E-2,440.0,0.25,77,120.0
2938,C3,440.0,0.25,73,120.0
2939,E-3,440.0,0.25,73,120.0
2940,B-3,440.0,0.25,73,120.0
2941,F2,440.25,0.25,80,120.0
2942,F1,440.5,0.25,75,120.0
2943,E-3,440.5,0.25,66,120.0
2944,A3,440.5,0.25,66,120.0
2945,C3,440.5,0.25,66,120.0
2946,F2,440.75,0.25,72,120.0
2947,B-2,441.0,0.25,62,120.0
2948,B-1,441.0,0.25,75,120.0
2949,C3,441.25,0.25,63,120.0
2950,D3,441.5,0.25,65,120.0
2951,B-2,441.5,0.25,75,120.0
2952,E-3,441.75,0.25,66,120.0
2953,F3,442.0,167/1000,67,120.0
2954,B-2,442.0,0.25,70,120.0
2955,D3,442.0,0.25,70,120.0
2956,G3,442.167,167/1000,68,120.0
2957,A3,442.333,167/1000,68,120.0
2958,B-3,442.5,167/1000,69,120.0
2959,B-2,442.5,1.0,74,120.0
2960,D3,442.5,1.0,74,120.0
2961,F3,442.5,1.0,74,120.0
2962,C4,442.667,167/1000,70,120.0
2963,D4,442.833,167/1000,71,120.0
2964,E-4,443.0,167/1000,72,120.0
2965,F4,443.167,167/1000,72,120.0
2966,G4,443.333,167/1000,73,120.0
2967,A4,443.5,0.25,85,120.0
2968,C3,443.5,0.25,64,120.0
2969,F2,443.5,0.25,64,120.0
2970,F3,443.5,0.25,64,120.0
2971,A3,443.75,0.25,67,120.0
2972,B-3,444.0,0.25,62,120.0
2973,B-2,444.0,0.25,71,120.0
2974,F3,444.0,0.25,71,120.0
2975,D3,444.0,0.25,71,120.0
2976,C4,444.25,0.25,63,120.0
2977,D4,444.5,0.25,65,120.0
2978,B-2,444.5,0.25,67,120.0
2979,D3,444.5,0.25,67,120.0
2980,F3,444.5,0.25,67,120.0
2981,E-4,444.75,0.25,66,120.0
2982,F4,445.0,167/1000,67,120.0
2983,F3,445.0,0.25,66,120.0
2984,B-2,445.0,0.25,66,120.0
2985,D3,445.0,0.25,66,120.0
2986,G4,445.167,167/1000,68,120.0
2987,A4,445.333,167/1000,68,120.0
2988,B-4,445.5,167/1000,69,120.0
2989,B-2,445.5,1.0,73,120.0
2990,D3,445.5,1.0,73,120.0
2991,F3,445.5,1.0,73,120.0
2992,C5,445.667,167/1000,70,120.0
2993,D5,445.833,167/1000,71,120.0
2994,E-5,446.0,167/1000,72,120.0
2995,F5,446.167,167/1000,72,120.0
2996,G5,446.333,167/1000,73,120.0
2997,A5,446.5,0.25,85,120.0
2998,C3,446.5,0.25,67,120.0
2999,F2,446.5,0.25,67,120.0
3000,F3,446.5,0.25,67,120.0
3001,A4,446.75,0.25,67,120.0
3002,B-4,447.0,0.25,62,120.0
3003,B-2,447.0,0.25,68,120.0
3004,F3,447.0,0.25,68,120.0
3005,D3,447.0,0.25,68,120.0
3006,C5,447.25,0.25,63,120.0
3007,D5,447.5,0.25,65,120.0
3008,B-2,447.5,0.25,67,120.0
3009,D3,447.5,0.25,67,120.0
3010,F3,447.5,0.25,67,120.0
3011,E-5,447.75,0.25,66,120.0
3012,F5,448.0,167/1000,68,120.0
3013,F3,448.0,0.25,65,120.0
3014,B-2,448.0,0.25,65,120.0
3015,D3,448.0,0.25,65,120.0
3016,G5,448.167,167/1000,70,120.0
3017,A5,448.333,167/1000,72,120.0
3018,B-5,448.5,0.25,74,120.0
3019,B-2,448.5,1.0,74,120.0
3020,D3,448.5,1.0,74,120.0
3021,F3,448.5,1.0,74,120.0
3022,C6,448.75,0.25,75,120.0
3023,D6,449.0,167/1000,77,120.0
3024,E-6,449.167,167/1000,79,120.0
3025,F6,449.333,167/1000,81,120.0
3026,G6,449.5,167/1000,83,120.0
3027,C3,449.5,0.25,67,120.0
3028,F2,449.5,0.25,67,120.0
3029,F3,449.5,0.25,67,120.0
3030,A6,449.667,167/1000,92,120.0
3031,A5,449.833,167/1000,85,120.0
3032,B-5,450.0,1.0,97,120.0
3033,B-6,450.0,1.0,97,120.0
3034,B-2,450.0,1.0,72,120.0
3035,B-3,450.0,1.0,72,120.0
3036,D3,450.0,1.0,72,120.0
3037,F3,450.0,1.0,72,120.0
3038,B-5,451.5,1.0,80,120.0
3039,F5,451.5,1.0,80,120.0
3040,D5,451.5,1.0,80,120.0
3041,B-2,451.5,1.0,72,120.0
3042,D3,451.5,1.0,72,120.0
3043,B-3,451.5,1.0,72,120.0
3044,F3,451.5,1.0,72,120.0
3045,D4,453.0,1.0,79,120.0
3046,F4,453.0,1.0,79,120.0
3047,B-4,453.0,1.0,79,120.0
3048,B-2,453.0,1.0,72,120.0
3049,D3,453.0,1.0,72,120.0
3050,F3,453.0,1.0,72,120.0
3051,B-3,453.0,1.0,72,120.0
3052,B-4,455.5,0.25,45,120.0
3053,B-4,456.0,0.375,57,120.0
3054,F#4,456.5,0.25,45,120.0
3055,E-4,457.0,0.25,45,120.0
3056,B-3,457.5,0.375,56,120.0
3057,F#3,458.0,0.25,45,120.0
3058,E-3,458.5,0.25,45,120.0
3059,B-2,459.0,0.375,51,120.0
3060,F#2,459.5,0.25,45,120.0
3061,E-2,460.0,0.25,45,120.0
3062,B-5,461.5,0.5,54,120.0
3063,B-4,461.5,0.5,54,120.0
3064,B-5,462.0,1.5,54,120.0
3065,B-4,462.0,1.5,54,120.0
3066,F#4,462.5,0.25,47,120.0
3067,E-4,462.5,0.25,47,120.0
3068,F#4,463.0,0.25,47,120.0
3069,E-4,463.0,0.25,47,120.0
3070,B4,463.5,1.5,57,120.0
3071,B5,463.5,1.5,57,120.0
3072,E-4,463.5,0.25,50,120.0
3073,F#4,463.5,0.25,50,120.0
3074,E-4,464.0,0.25,47,120.0
3075,F#4,464.0,0.25,47,120.0
3076,F#4,464.5,0.25,47,120.0
3077,E-4,464.5,0.25,47,120.0
3078,C5,465.0,1.5,64,120.0
3079,C6,465.0,1.5,64,120.0
3080,F#4,465.0,0.25,53,120.0
3081,E-4,465.0,0.25,53,120.0
3082,G#4,465.0,0.25,53,120.0
3083,F#4,465.5,0.25,46,120.0
3084,E-4,465.5,0.25,46,120.0
3085,G#4,465.5,0.25,46,120.0
3086,E-4,466.0,0.25,46,120.0
3087,G#4,466.0,0.25,46,120.0
3088,F#4,466.0,0.25,46,120.0
3089,C#6,466.5,1.0,55,120.0
3090,C#5,466.5,1.0,55,120.0
3091,C#4,466.5,0.25,50,120.0
3092,G#4,466.5,0.25,50,120.0
3093,F4,466.5,0.25,50,120.0
3094,F4,467.0,0.25,47,120.0
3095,G#4,467.0,0.25,47,120.0
3096,C#4,467.0,0.25,47,120.0
3097,C#5,467.5,0.25,45,120.0
3098,F4,467.5,0.25,29,120.0
3099,C#4,467.5,0.25,29,120.0
3100,G#4,467.5,0.25,29,120.0
3101,C#5,468.0,0.375,59,120.0
3102,B-4,468.5,0.25,45,120.0
3103,F#4,469.0,0.25,45,120.0
3104,C#4,469.5,0.375,56,120.0
3105,B-3,470.0,0.25,45,120.0
3106,F#3,470.5,0.25,45,120.0
3107,C#3,471.0,0.375,51,120.0
3108,B-2,471.5,0.25,45,120.0
3109,F#2,472.0,0.25,45,120.0
3110,C#5,473.5,62/125,54,120.0
3111,C#6,473.5,62/125,54,120.0
3112,C#6,474.0,1.5,54,120.0
3113,C#5,474.0,1.5,54,120.0
3114,F#4,474.5,0.25,47,120.0
3115,B-4,474.5,0.25,47,120.0
3116,F#4,475.0,0.25,47,120.0
3117,B-4,475.0,0.25,47,120.0
3118,E-5,475.5,1.5,57,120.0
3119,E-6,475.5,1.5,57,120.0
3120,B4,475.5,0.25,50,120.0
3121,F#4,475.5,0.25,50,120.0
3122,B4,476.0,0.25,47,120.0
3123,F#4,476.0,0.25,47,120.0
3124,B4,476.5,0.25,47,120.0
3125,F#4,476.5,0.25,47,120.0
3126,F#4,477.0,0.25,51,120.0
3127,C5,477.0,0.25,51,120.0
3128,F#4,477.5,0.25,47,120.0
3129,C5,477.5,0.25,47,120.0
3130,C5,478.0,0.25,48,120.0
3131,F#4,478.0,0.25,48,120.0
3132,E-5,478.5,1.5,57,120.0
3133,E-6,478.5,1.5,57,120.0
3134,C#5,478.5,0.25,52,120.0
3135,F#4,478.5,0.25,52,120.0
3136,C#5,479.0,0.25,48,120.0
3137,F#4,479.0,0.25,48,120.0
3138,F#4,479.5,0.25,48,120.0
3139,C#5,479.5,0.25,48,120.0
3140,E5,480.0,1.5,55,120.0
3141,E6,480.0,1.5,55,120.0
3142,F#4,480.0,0.25,53,120.0
3143,C#5,480.0,0.25,53,120.0
3144,C#5,480.5,0.25,48,120.0
3145,F#4,480.5,0.25,48,120.0
3146,C#5,481.0,0.25,50,120.0
3147,F#4,481.0,0.25,50,120.0
3148,E-5,481.5,0.25,55,120.0
3149,F#4,481.5,0.25,55,120.0
3150,F#4,482.0,0.25,48,120.0
3151,E-5,482.0,0.25,48,120.0
3152,F#4,482.5,0.25,49,120.0
3153,E-5,482.5,0.25,49,120.0
3154,E5,483.0,1.5,55,120.0
3155,E6,483.0,1.5,55,120.0
3156,E5,483.0,0.25,57,120.0
3157,F#4,483.0,0.25,57,120.0
3158,E5,483.5,0.25,52,120.0
3159,F#4,483.5,0.25,52,120.0
3160,E5,484.0,0.25,52,120.0
3161,F#4,484.0,0.25,52,120.0
3162,F#6,484.5,1.5,60,120.0
3163,F#5,484.5,1.5,60,120.0
3164,F#4,484.5,0.25,59,120.0
3165,E5,484.5,0.25,59,120.0
3166,F#4,485.0,0.25,54,120.0
3167,E5,485.0,0.25,54,120.0
3168,E5,485.5,0.25,54,120.0
3169,F#4,485.5,0.25,54,120.0
3170,G6,486.0,1.5,62,120.0
3171,G5,486.0,1.5,62,120.0
3172,E5,486.0,0.25,62,120.0
3173,F#4,486.0,0.25,62,120.0
3174,E5,486.5,0.25,52,120.0
3175,F#4,486.5,0.25,52,120.0
3176,F#4,487.0,0.25,50,120.0
3177,E5,487.0,0.25,50,120.0
3178,G#6,487.5,1.5,64,120.0
3179,G#5,487.5,1.5,64,120.0
3180,F#4,487.5,0.25,58,120.0
3181,E-5,487.5,0.25,58,120.0
3182,E-5,488.0,0.25,52,120.0
3183,F#4,488.0,0.25,52,120.0
3184,E-5,488.5,0.25,52,120.0
3185,F#4,488.5,0.25,52,120.0
3186,C#5,489.0,0.25,54,120.0
3187,F#4,489.0,0.25,54,120.0
3188,F#4,489.5,0.25,47,120.0
3189,C#5,489.5,0.25,47,120.0
3190,F#4,490.0,0.25,46,120.0
3191,C#5,490.0,0.25,46,120.0
3192,G#6,490.5,1.5,64,120.0
3193,G#5,490.5,1.5,64,120.0
3194,F#4,490.5,0.25,43,120.0
3195,E4,490.5,0.25,43,120.0
3196,B-4,490.5,0.25,43,120.0
3197,E4,491.0,0.25,38,120.0
3198,B-4,491.0,0.25,38,120.0
3199,F#4,491.0,0.25,38,120.0
3200,E4,491.5,0.25,37,120.0
3201,B-4,491.5,0.25,37,120.0
3202,F#4,491.5,0.25,37,120.0
3203,F#4,492.0,0.25,46,120.0
3204,E-4,492.0,1.5,38,120.0
3205,F#6,492.0,1.5,62,120.0
3206,F#5,492.0,1.5,62,120.0
3207,G#4,492.25,0.25,31,120.0
3208,F#4,492.5,0.25,36,120.0
3209,G#4,492.75,0.25,32,120.0
3210,F#4,493.0,0.25,36,120.0
3211,G#4,493.25,0.25,33,120.0
3212,F#4,493.5,0.25,48,120.0
3213,B3,493.5,1.5,41,120.0
3214,E5,493.5,1.5,63,120.0
3215,E6,493.5,1.5,63,120.0
3216,G#4,493.75,0.25,35,120.0
3217,F#4,494.0,0.25,40,120.0
3218,G#4,494.25,0.25,35,120.0
3219,F#4,494.5,0.25,42,120.0
3220,G#4,494.75,0.25,36,120.0
3221,F#4,495.0,0.25,52,120.0
3222,B-3,495.0,1.5,43,120.0
3223,C#5,495.0,1.5,54,120.0
3224,C#6,495.0,1.5,54,120.0
3225,G#4,495.25,0.25,35,120.0
3226,F#4,495.5,0.25,39,120.0
3227,G#4,495.75,0.25,34,120.0
3228,F#4,496.0,0.25,37,120.0
3229,G#4,496.25,0.25,33,120.0
3230,E-5,496.5,1.0,54,120.0
3231,E-6,496.5,3.0,54,120.0
3232,F#4,496.5,0.25,47,120.0
3233,E4,496.5,1.5,41,120.0
3234,G#4,496.75,0.25,34,120.0
3235,F#4,497.0,0.25,37,120.0
3236,G#4,497.25,0.25,32,120.0
3237,G#5,497.5,0.5,52,120.0
3238,F#4,497.5,0.25,38,120.0
3239,G#4,497.75,0.25,31,120.0
3240,F#5,498.0,1.0,62,120.0
3241,B3,498.0,3.0,48,120.0
3242,E-4,498.0,1.0,48,120.0
3243,E-5,499.0,0.5,55,120.0
3244,G#4,499.0,0.5,45,120.0
3245,C#6,499.5,3.0,62,120.0
3246,C#5,499.5,1.0,62,120.0
3247,F#4,499.5,1.0,54,120.0
3248,G#5,500.5,0.5,54,120.0
3249,E-4,500.5,0.5,49,120.0
3250,F#5,501.0,1.0,61,120.0
3251,F#3,501.0,1.5,46,120.0
3252,C#4,501.0,1.0,55,120.0
3253,C#5,502.0,0.5,49,120.0
3254,G#4,502.0,0.5,46,120.0
3255,E-6,502.5,1.5,41,120.0
3256,F#5,502.5,0.25,50,120.0
3257,E3,502.5,1.5,45,120.0
3258,F#4,502.5,1.0,53,120.0
3259,G#5,502.75,0.25,34,120.0
3260,F#5,503.0,0.25,39,120.0
3261,G#5,503.25,0.25,35,120.0
3262,F#5,503.5,0.25,39,120.0
3263,C#4,503.5,0.5,44,120.0
3264,G#5,503.75,0.25,36,120.0
3265,F#5,504.0,0.25,52,120.0
3266,B5,504.0,1.5,45,120.0
3267,E-3,504.0,0.25,35,120.0
3268,G#5,504.25,0.25,38,120.0
3269,B3,504.25,0.25,27,120.0
3270,F#5,504.5,0.25,44,120.0
3271,E-3,504.5,0.25,31,120.0
3272,G#5,504.75,0.25,38,120.0
3273,B3,504.75,0.25,26,120.0
3274,F#5,505.0,0.25,46,120.0
3275,E-3,505.0,0.25,31,120.0
3276,G#5,505.25,0.25,39,120.0
3277,B3,505.25,0.25,27,120.0
3278,B-5,505.5,1.5,47,120.0
3279,F#5,505.5,0.25,57,120.0
3280,D3,505.5,0.25,37,120.0
3281,G#5,505.75,0.25,38,120.0
3282,C4,505.75,0.25,27,120.0
3283,F#5,506.0,0.25,42,120.0
3284,D3,506.0,0.25,31,120.0
3285,G#5,506.25,0.25,37,120.0
3286,C4,506.25,0.25,27,120.0
3287,F#5,506.5,0.25,40,120.0
3288,D3,506.5,0.25,31,120.0
3289,G#5,506.75,0.25,36,120.0
3290,C4,506.75,0.25,27,120.0
3291,F#6,507.0,1.5,45,120.0
3292,F#5,507.0,0.25,51,120.0
3293,C3,507.0,0.25,35,120.0
3294,G#5,507.25,0.25,37,120.0
3295,A3,507.25,0.25,27,120.0
3296,F#5,507.5,0.25,40,120.0
3297,C3,507.5,0.25,31,120.0
3298,G#5,507.75,0.25,35,120.0
3299,A3,507.75,0.25,26,120.0
3300,F#5,508.0,0.25,41,120.0
3301,C3,508.0,0.25,31,120.0
3302,G#5,508.25,0.25,34,120.0
3303,A3,508.25,0.25,27,120.0
3304,B2,508.5,0.25,37,120.0
3305,F#6,508.5,1.5,48,120.0
3306,F#5,508.5,1.5,48,120.0
3307,G3,508.75,0.25,27,120.0
3308,B2,509.0,0.25,31,120.0
3309,G3,509.25,0.25,27,120.0
3310,A2,509.5,0.25,31,120.0
3311,F#3,509.75,0.25,27,120.0
3312,F#5,510.0,1.5,44,120.0
3313,F#4,510.0,1.5,44,120.0
3314,G2,510.0,0.5,36,120.0
3315,G3,510.0,0.5,36,120.0
3316,B3,510.5,0.25,35,120.0
3317,G3,510.5,0.25,35,120.0
3318,D4,510.75,0.25,39,120.0
3319,B3,511.0,0.25,37,120.0
3320,G3,511.0,0.25,37,120.0
3321,D4,511.25,0.25,36,120.0
3322,F#4,511.5,1.5,43,120.0
3323,D5,511.5,1.5,43,120.0
3324,F#5,511.5,1.5,43,120.0
3325,B3,511.5,0.25,38,120.0
3326,G3,511.5,0.25,38,120.0
3327,D4,511.75,0.25,40,120.0
3328,B3,512.0,0.25,40,120.0
3329,G3,512.0,0.25,40,120.0
3330,D4,512.25,0.25,42,120.0
3331,B3,512.5,0.25,42,120.0
3332,G3,512.5,0.25,42,120.0
3333,D4,512.75,0.25,44,120.0
3334,G5,513.0,1.0,45,120.0
3335,G4,513.0,1.0,45,120.0
3336,D5,513.0,1.0,45,120.0
3337,F#3,513.0,0.25,44,120.0
3338,C4,513.0,0.25,44,120.0
3339,D4,513.25,0.25,42,120.0
3340,F#3,513.5,0.25,38,120.0
3341,C4,513.5,0.25,38,120.0
3342,D4,513.75,0.25,42,120.0
3343,A5,514.0,0.5,43,120.0
3344,A4,514.0,0.5,43,120.0
3345,D5,514.0,0.5,43,120.0
3346,F#3,514.0,0.25,44,120.0
3347,C4,514.0,0.25,44,120.0
3348,D4,514.25,0.25,44,120.0
3349,D5,514.5,1.0,54,120.0
3350,B4,514.5,1.0,54,120.0
3351,B5,514.5,1.0,54,120.0
3352,F#3,514.5,0.25,42,120.0
3353,C4,514.5,0.25,42,120.0
3354,D4,514.75,0.25,41,120.0
3355,F#3,515.0,0.25,40,120.0
3356,C4,515.0,0.25,40,120.0
3357,D4,515.25,0.25,39,120.0
3358,E5,515.5,0.5,51,120.0
3359,E6,515.5,0.5,51,120.0
3360,F#3,515.5,0.25,38,120.0
3361,C4,515.5,0.25,38,120.0
3362,D4,515.75,0.25,36,120.0
3363,G3,516.0,3.0,48,120.0
3364,B3,516.0,1.0,48,120.0
3365,D5,516.0,1.0,58,120.0
3366,D6,516.0,1.0,58,120.0
3367,E4,517.0,0.5,45,120.0
3368,B5,517.0,0.5,50,120.0
3369,B4,517.0,0.5,50,120.0
3370,D4,517.5,1.0,54,120.0
3371,A4,517.5,1.0,62,120.0
3372,A5,517.5,1.0,62,120.0
3373,B3,518.5,0.5,49,120.0
3374,E6,518.5,0.5,50,120.0
3375,E5,518.5,0.5,50,120.0
3376,D3,519.0,3.0,46,120.0
3377,A3,519.0,1.0,55,120.0
3378,D6,519.0,1.0,58,120.0
3379,D5,519.0,1.0,58,120.0
3380,E4,520.0,0.5,46,120.0
3381,A5,520.0,0.5,53,120.0
3382,A4,520.0,0.5,53,120.0
3383,B5,520.5,1.5,38,120.0
3384,D5,520.5,0.25,46,120.0
3385,D4,520.5,1.0,53,120.0
3386,E5,520.75,0.25,31,120.0
3387,D5,521.0,0.25,36,120.0
3388,E5,521.25,0.25,32,120.0
3389,D5,521.5,0.25,36,120.0
3390,A3,521.5,0.5,44,120.0
3391,E5,521.75,0.25,33,120.0
3392,D5,522.0,0.25,48,120.0
3393,G5,522.0,1.5,41,120.0
3394,D4,522.0,1.0,39,120.0
3395,B3,522.0,1.0,39,120.0
3396,G3,522.0,1.0,39,120.0
3397,E5,522.25,0.25,35,120.0
3398,D5,522.5,0.25,40,120.0
3399,E5,522.75,0.25,35,120.0
3400,D5,523.0,0.25,42,120.0
3401,E5,523.25,0.25,36,120.0
3402,F#5,523.5,1.5,43,120.0
3403,D5,523.5,0.25,52,120.0
3404,E5,523.75,0.25,35,120.0
3405,D5,524.0,0.25,39,120.0
3406,E5,524.25,0.25,34,120.0
3407,D5,524.5,0.25,37,120.0
3408,D4,524.5,0.25,44,120.0
3409,E5,524.75,0.25,33,120.0
3410,C6,525.0,1.5,41,120.0
3411,D5,525.0,0.25,47,120.0
3412,D4,525.0,0.5,44,120.0
3413,E5,525.25,0.25,34,120.0
3414,D5,525.5,0.25,37,120.0
3415,B3,525.5,0.5,38,120.0
3416,E5,525.75,0.25,32,120.0
3417,D5,526.0,0.5,38,120.0
3418,G3,526.0,0.5,38,120.0
3419,F3,526.5,0.5,44,120.0
3420,D5,526.5,0.5,46,120.0
3421,B5,526.5,0.5,46,120.0
3422,B4,527.0,0.5,44,120.0
3423,D3,527.0,0.5,44,120.0
3424,B2,527.5,0.25,44,120.0
3425,D6,527.5,0.25,46,120.0
3426,G4,527.5,0.25,46,120.0
3427,C3,528.0,1.0,44,120.0
3428,D6,528.0,0.5,50,120.0
3429,F#4,528.0,0.5,50,120.0
3430,B5,528.5,0.5,42,120.0
3431,G4,528.5,0.5,42,120.0
3432,G4,529.0,247/500,40,120.0
3433,B4,529.0,0.25,42,120.0
3434,G5,529.0,0.25,42,120.0
3435,G4,529.5,0.5,44,120.0
3436,B4,530.0,0.5,46,120.0
3437,E4,530.0,0.5,40,120.0
3438,D5,530.5,0.5,46,120.0
3439,G3,530.5,62/125,37,120.0
3440,C4,530.5,62/125,37,120.0
3441,G5,531.0,0.5,50,120.0
3442,G3,531.0,0.5,44,120.0
3443,B5,531.5,0.5,50,120.0
3444,E3,531.5,0.5,40,120.0
3445,C3,532.0,0.5,40,120.0
3446,G5,532.0,0.25,48,120.0
3447,D6,532.0,0.25,48,120.0
3448,E6,532.5,1.0,57,120.0
3449,G5,532.5,0.5,45,120.0
3450,G2,532.5,0.5,44,120.0
3451,E5,533.0,0.5,46,120.0
3452,C2,533.0,0.5,39,120.0
3453,C5,533.5,0.5,46,120.0
3454,C3,533.5,62/125,39,120.0
3455,B4,534.0,0.5,53,120.0
3456,C3,534.0,0.25,39,120.0
3457,E-3,534.25,0.25,31,120.0
3458,C5,534.5,0.5,46,120.0
3459,G#3,534.5,0.25,31,120.0
3460,E-3,534.75,0.25,31,120.0
3461,E5,535.0,0.5,46,120.0
3462,G#3,535.0,0.25,30,120.0
3463,E-3,535.25,0.25,32,120.0
3464,C#3,535.5,0.25,41,120.0
3465,E-3,535.75,0.25,32,120.0
3466,G5,536.0,0.5,50,120.0
3467,G3,536.0,0.25,33,120.0
3468,B-3,536.25,0.25,33,120.0
3469,C6,536.5,0.5,54,120.0
3470,C#4,536.5,0.25,33,120.0
3471,G3,536.75,0.25,33,120.0
3472,G#3,537.0,0.25,40,120.0
3473,E5,537.0,1.0,56,120.0
3474,E6,537.0,1.0,56,120.0
3475,C4,537.25,0.25,32,120.0
3476,E-4,537.5,0.25,33,120.0
3477,C4,537.75,0.25,33,120.0
3478,E-4,538.0,0.25,34,120.0
3479,E-5,538.0,0.5,57,120.0
3480,E-6,538.0,0.5,57,120.0
3481,C4,538.25,0.25,34,120.0
3482,E-6,538.5,0.5,60,120.0
3483,G3,538.5,0.25,42,120.0
3484,B-3,538.75,0.25,33,120.0
3485,C6,539.0,0.5,55,120.0
3486,E-4,539.0,0.25,33,120.0
3487,B-3,539.25,0.25,33,120.0
3488,G#5,539.5,0.375,55,120.0
3489,G3,539.5,0.25,33,120.0
3490,B-3,539.75,0.25,33,120.0
3491,G5,540.0,0.5,60,120.0
3492,E-3,540.0,0.25,41,120.0
3493,G3,540.25,0.25,33,120.0
3494,B-5,540.5,0.5,57,120.0
3495,B-3,540.5,0.25,34,120.0
3496,G3,540.75,0.25,35,120.0
3497,B-3,541.0,0.25,35,120.0
3498,E-5,541.0,0.375,54,120.0
3499,E-6,541.0,0.375,54,120.0
3500,G3,541.25,0.25,35,120.0
3501,E-5,541.5,0.5,58,120.0
3502,B-2,541.5,0.25,43,120.0
3503,G#3,541.75,0.25,34,120.0
3504,C5,542.0,0.5,50,120.0
3505,B-3,542.0,0.25,34,120.0
3506,G#3,542.25,0.25,34,120.0
3507,G#4,542.5,0.375,50,120.0
3508,B-3,542.5,0.25,34,120.0
3509,G#3,542.75,0.25,34,120.0
3510,E-5,543.0,0.5,58,120.0
3511,E-3,543.0,0.25,42,120.0
3512,G3,543.25,0.25,34,120.0
3513,B-4,543.5,0.5,51,120.0
3514,B-3,543.5,0.25,36,120.0
3515,G3,543.75,0.25,36,120.0
3516,B-3,544.0,0.25,36,120.0
3517,B-5,544.0,0.375,51,120.0
3518,B-4,544.0,0.375,51,120.0
3519,G3,544.25,0.25,36,120.0
3520,B-3,544.5,0.25,45,120.0
3521,B-4,544.5,0.5,54,120.0
3522,B-5,544.5,0.5,54,120.0
3523,G3,544.75,0.25,35,120.0
3524,B-3,545.0,0.25,35,120.0
3525,G4,545.0,0.5,47,120.0
3526,G5,545.0,0.5,47,120.0
3527,G3,545.25,0.25,35,120.0
3528,E3,545.5,0.25,35,120.0
3529,E-4,545.5,0.5,43,120.0
3530,E-5,545.5,0.5,43,120.0
3531,G3,545.75,0.25,35,120.0
3532,F3,546.0,0.25,43,120.0
3533,D4,546.0,0.5,50,120.0
3534,D5,546.0,0.5,50,120.0
3535,G#3,546.25,0.25,36,120.0
3536,C4,546.5,0.25,37,120.0
3537,F5,546.5,0.5,45,120.0
3538,F4,546.5,0.5,45,120.0
3539,G#3,546.75,0.25,37,120.0
3540,C4,547.0,0.25,37,120.0
3541,B-5,547.0,0.375,46,120.0
3542,B-4,547.0,0.375,46,120.0
3543,G#3,547.25,0.25,37,120.0
3544,C3,547.5,0.25,46,120.0
3545,B-4,547.5,0.5,50,120.0
3546,B-5,547.5,0.5,50,120.0
3547,B-3,547.75,0.25,36,120.0
3548,C4,548.0,0.25,36,120.0
3549,G4,548.0,0.5,47,120.0
3550,G5,548.0,0.5,47,120.0
3551,B-3,548.25,0.25,36,120.0
3552,C4,548.5,0.25,36,120.0
3553,E-4,548.5,0.375,47,120.0
3554,E-5,548.5,0.375,47,120.0
3555,B-3,548.75,0.25,36,120.0
3556,F3,549.0,0.25,44,120.0
3557,E-4,549.0,0.5,52,120.0
3558,E-5,549.0,0.5,52,120.0
3559,G#3,549.25,0.25,37,120.0
3560,C4,549.5,0.25,38,120.0
3561,G5,549.5,0.5,44,120.0
3562,G4,549.5,0.5,44,120.0
3563,G#3,549.75,0.25,38,120.0
3564,C4,550.0,0.25,38,120.0
3565,C6,550.0,0.375,54,120.0
3566,C5,550.0,0.375,54,120.0
3567,G#3,550.25,0.25,38,120.0
3568,B-3,550.5,0.25,47,120.0
3569,C5,550.5,0.5,58,120.0
3570,C6,550.5,0.5,58,120.0
3571,G#3,550.75,0.25,37,120.0
3572,B-3,551.0,0.25,37,120.0
3573,G#4,551.0,0.5,52,120.0
3574,G#5,551.0,0.5,52,120.0
3575,G#3,551.25,0.25,37,120.0
3576,D3,551.5,0.25,37,120.0
3577,F4,551.5,0.5,52,120.0
3578,F5,551.5,0.5,52,120.0
3579,G#3,551.75,0.25,37,120.0
3580,E-3,552.0,0.25,46,120.0
3581,E4,552.0,0.5,58,120.0
3582,E5,552.0,0.5,58,120.0
3583,G3,552.25,0.25,38,120.0
3584,B-3,552.5,0.25,39,120.0
3585,G4,552.5,0.5,52,120.0
3586,G5,552.5,0.5,52,120.0
3587,G3,552.75,0.25,39,120.0
3588,B-3,553.0,0.25,39,120.0
3589,C5,553.0,0.375,57,120.0
3590,C6,553.0,0.375,57,120.0
3591,G3,553.25,0.25,39,120.0
3592,G#2,553.5,0.25,49,120.0
3593,C6,553.5,0.5,68,120.0
3594,C5,553.5,0.5,68,120.0
3595,F3,553.75,0.25,38,120.0
3596,G#3,554.0,0.25,38,120.0
3597,G#4,554.0,0.5,54,120.0
3598,G#5,554.0,0.5,54,120.0
3599,F3,554.25,0.25,38,120.0
3600,G#3,554.5,0.25,38,120.0
3601,F5,554.5,0.5,54,120.0
3602,F4,554.5,0.5,54,120.0
3603,F3,554.75,0.25,39,120.0
3604,B-2,555.0,0.25,47,120.0
3605,D5,555.0,0.5,62,120.0
3606,D4,555.0,0.5,62,120.0
3607,E-3,555.25,0.25,39,120.0
3608,G3,555.5,0.25,40,120.0
3609,F4,555.5,0.5,56,120.0
3610,F5,555.5,0.5,56,120.0
3611,E-3,555.75,0.25,40,120.0
3612,G3,556.0,0.25,40,120.0
3613,B-4,556.0,0.375,56,120.0
3614,B-5,556.0,0.375,56,120.0
3615,E-3,556.25,0.25,40,120.0
3616,B-2,556.5,0.25,50,120.0
3617,B-4,556.5,0.5,62,120.0
3618,B-5,556.5,0.5,62,120.0
3619,D3,556.75,0.25,39,120.0
3620,F3,557.0,0.25,39,120.0
3621,G4,557.0,0.5,54,120.0
3622,G5,557.0,0.5,54,120.0
3623,D3,557.25,0.25,39,120.0
3624,E-4,557.5,0.5,54,120.0
3625,E-5,557.5,0.5,54,120.0
3626,B-2,557.5,0.5,39,120.0
3627,B-3,557.5,0.5,39,120.0
3628,C4,558.0,0.5,56,120.0
3629,C5,558.0,0.5,56,120.0
3630,B-2,558.0,0.25,62,120.0
3631,B-3,558.0,0.25,62,120.0
3632,F5,558.5,0.5,52,120.0
3633,F4,558.5,0.5,52,120.0
3634,G2,558.5,0.25,54,120.0
3635,G3,558.5,0.25,54,120.0
3636,G#5,559.0,0.375,52,120.0
3637,G#4,559.0,0.375,52,120.0
3638,E-2,559.0,0.25,49,120.0
3639,E-3,559.0,0.25,49,120.0
3640,B-4,559.5,0.5,60,120.0
3641,B-3,559.5,0.5,60,120.0
3642,D2,559.5,0.25,56,120.0
3643,D3,559.5,0.25,56,120.0
3644,E-5,560.0,0.5,54,120.0
3645,E-4,560.0,0.5,54,120.0
3646,F2,560.0,0.25,52,120.0
3647,F3,560.0,0.25,52,120.0
3648,G5,560.5,0.375,56,120.0
3649,G4,560.5,0.375,56,120.0
3650,B-2,560.5,63/250,52,120.0
3651,B-3,560.5,63/250,52,120.0
3652,B-4,561.0,0.5,62,120.0
3653,B-3,561.0,0.5,62,120.0
3654,B-2,561.0,0.25,58,120.0
3655,B-3,561.0,0.25,58,120.0
3656,D5,561.5,0.5,56,120.0
3657,D4,561.5,0.5,56,120.0
3658,G2,561.5,0.25,54,120.0
3659,G3,561.5,0.25,54,120.0
3660,G#4,562.0,0.25,60,120.0
3661,E-2,562.0,63/250,54,120.0
3662,E-3,562.0,63/250,54,120.0
3663,F5,562.25,0.25,60,120.0
3664,E-2,562.5,0.25,59,120.0
3665,E-3,562.5,0.25,59,120.0
3666,G5,562.75,0.25,55,120.0
3667,B-5,563.0,0.25,59,120.0
3668,G2,563.0,0.25,50,120.0
3669,G3,563.0,0.25,50,120.0
3670,E-6,563.25,0.25,55,120.0
3671,G6,563.5,0.25,61,120.0
3672,C3,563.5,63/250,61,120.0
3673,C4,563.5,63/250,61,120.0
3674,G5,563.75,0.25,55,120.0
3675,C3,564.0,0.25,66,120.0
3676,C4,564.0,0.25,66,120.0
3677,G#5,564.25,0.25,55,120.0
3678,B-5,564.5,0.25,59,120.0
3679,G#2,564.5,0.25,60,120.0
3680,G#3,564.5,0.25,60,120.0
3681,F6,564.75,0.25,55,120.0
3682,G#6,565.0,0.25,61,120.0
3683,F2,565.0,0.25,60,120.0
3684,F3,565.0,0.25,60,120.0
3685,G#5,565.25,0.25,56,120.0
3686,E2,565.5,0.25,66,120.0
3687,E3,565.5,0.25,66,120.0
3688,G5,565.75,0.25,56,120.0
3689,B-5,566.0,0.25,60,120.0
3690,G2,566.0,0.25,60,120.0
3691,G3,566.0,0.25,60,120.0
3692,E-6,566.25,0.25,56,120.0
3693,G6,566.5,0.25,62,120.0
3694,C3,566.5,63/250,65,120.0
3695,C4,566.5,63/250,65,120.0
3696,G5,566.75,0.25,56,120.0
3697,C3,567.0,0.25,77,120.0
3698,C4,567.0,0.25,77,120.0
3699,G5,567.25,0.25,56,120.0
3700,B-5,567.5,0.25,61,120.0
3701,G#2,567.5,0.25,62,120.0
3702,G#3,567.5,0.25,62,120.0
3703,E-6,567.75,0.25,57,120.0
3704,G6,568.0,0.25,63,120.0
3705,F2,568.0,0.25,62,120.0
3706,F3,568.0,0.25,62,120.0
3707,E6,568.25,0.25,57,120.0
3708,D2,568.5,0.25,70,120.0
3709,D3,568.5,0.25,70,120.0
3710,G#5,568.75,0.25,57,120.0
3711,C6,569.0,0.25,61,120.0
3712,F2,569.0,0.25,64,120.0
3713,F3,569.0,0.25,64,120.0
3714,F6,569.25,0.25,57,120.0
3715,G#6,569.5,0.25,63,120.0
3716,B-2,569.5,63/250,64,120.0
3717,B-3,569.5,63/250,64,120.0
3718,G#5,569.75,0.25,57,120.0
3719,B-2,570.0,0.25,70,120.0
3720,B-3,570.0,0.25,70,120.0
3721,B-5,570.25,0.25,58,120.0
3722,C6,570.5,0.25,62,120.0
3723,G2,570.5,0.25,61,120.0
3724,G3,570.5,0.25,61,120.0
3725,G6,570.75,0.25,58,120.0
3726,B-6,571.0,0.25,64,120.0
3727,E-2,571.0,0.25,61,120.0
3728,E-3,571.0,0.25,61,120.0
3729,B-5,571.25,0.25,58,120.0
3730,C2,571.5,0.25,64,120.0
3731,C3,571.5,0.25,64,120.0
3732,G#5,571.75,0.25,58,120.0
3733,C6,572.0,0.25,62,120.0
3734,F2,572.0,0.25,59,120.0
3735,F3,572.0,0.25,59,120.0
3736,F6,572.25,0.25,59,120.0
3737,G#6,572.5,0.25,66,120.0
3738,G#2,572.5,63/250,59,120.0
3739,G#3,572.5,63/250,59,120.0
3740,G#5,572.75,0.25,59,120.0
3741,B-1,573.0,0.25,68,120.0
3742,B-2,573.0,0.25,68,120.0
3743,G#5,573.25,0.25,59,120.0
3744,B-5,573.5,0.25,63,120.0
3745,E-2,573.5,0.25,62,120.0
3746,E-3,573.5,0.25,62,120.0
3747,F6,573.75,0.25,59,120.0
3748,G#6,574.0,0.25,67,120.0
3749,G2,574.0,63/250,64,120.0
3750,G3,574.0,63/250,64,120.0
3751,G#5,574.25,0.25,59,120.0
3752,B-1,574.5,0.25,70,120.0
3753,B-2,574.5,0.25,70,120.0
3754,G5,574.75,0.25,60,120.0
3755,B-5,575.0,0.25,64,120.0
3756,D2,575.0,0.25,64,120.0
3757,D3,575.0,0.25,64,120.0
3758,E-6,575.25,0.25,60,120.0
3759,G6,575.5,0.25,68,120.0
3760,B-2,575.5,0.25,64,120.0
3761,B-3,575.5,0.25,64,120.0
3762,G5,575.75,0.25,61,120.0
3763,E-2,576.0,0.25,73,120.0
3764,G#6,576.25,0.25,62,120.0
3765,F6,576.5,0.25,68,120.0
3766,G3,576.5,0.25,56,120.0
3767,E-3,576.5,0.25,56,120.0
3768,E-6,576.75,0.25,63,120.0
3769,G#5,577.0,0.25,72,120.0
3770,B-3,577.0,0.25,53,120.0
3771,G3,577.0,0.25,53,120.0
3772,E-3,577.0,0.25,53,120.0
3773,G#6,577.25,0.25,66,120.0
3774,E-4,577.5,0.25,52,120.0
3775,B-3,577.5,0.25,52,120.0
3776,G3,577.5,0.25,52,120.0
3777,E-3,577.5,0.25,52,120.0
3778,B-6,577.75,0.25,67,120.0
3779,G6,578.0,0.25,72,120.0
3780,E-4,578.0,0.25,52,120.0
3781,B-3,578.0,0.25,52,120.0
3782,G3,578.0,0.25,52,120.0
3783,E-3,578.0,0.25,52,120.0
3784,E-6,578.25,0.25,68,120.0
3785,B-5,578.5,0.25,78,120.0
3786,E-4,578.5,0.25,52,120.0
3787,B-3,578.5,0.25,52,120.0
3788,G3,578.5,0.25,52,120.0
3789,E-3,578.5,0.25,52,120.0
3790,B-6,578.75,0.25,69,120.0
3791,E-4,579.0,0.25,60,120.0
3792,B-3,579.0,0.25,60,120.0
3793,G3,579.0,0.25,60,120.0
3794,E-3,579.0,0.25,60,120.0
3795,B-6,579.25,0.25,70,120.0
3796,F6,579.5,0.25,77,120.0
3797,E-4,579.5,0.25,52,120.0
3798,B-3,579.5,0.25,52,120.0
3799,G3,579.5,0.25,52,120.0
3800,E-3,579.5,0.25,52,120.0
3801,D6,579.75,0.25,72,120.0
3802,B-5,580.0,0.25,81,120.0
3803,E-4,580.0,0.25,52,120.0
3804,B-3,580.0,0.25,52,120.0
3805,G3,580.0,0.25,52,120.0
3806,E-3,580.0,0.25,52,120.0
3807,B-6,580.25,0.25,73,120.0
3808,G3,580.5,0.25,85,120.0
3809,D4,580.5,0.25,52,120.0
3810,G#3,580.5,0.25,52,120.0
3811,B-3,580.5,0.25,52,120.0
3812,F3,580.5,0.25,52,120.0
3813,E-3,580.5,0.25,52,120.0
3814,E-4,580.75,0.25,70,120.0
3815,B-3,581.0,0.25,79,120.0
3816,D4,581.0,0.25,52,120.0
3817,B-3,581.0,0.25,52,120.0
3818,G#3,581.0,0.25,52,120.0
3819,F3,581.0,0.25,52,120.0
3820,E-3,581.0,0.25,52,120.0
3821,G4,581.25,0.25,70,120.0
3822,E-4,581.5,0.25,81,120.0
3823,D4,581.5,0.25,52,120.0
3824,B-3,581.5,0.25,52,120.0
3825,G#3,581.5,0.25,52,120.0
3826,F3,581.5,0.25,52,120.0
3827,E-3,581.5,0.25,52,120.0
3828,B-4,581.75,0.25,70,120.0
3829,G4,582.0,0.25,86,120.0
3830,E-4,582.0,0.25,61,120.0
3831,B-3,582.0,0.25,61,120.0
3832,G3,582.0,0.25,61,120.0
3833,E-3,582.0,0.25,61,120.0
3834,E-5,582.25,0.25,70,120.0
3835,B-4,582.5,0.25,77,120.0
3836,E-4,582.5,0.25,52,120.0
3837,B-3,582.5,0.25,52,120.0
3838,G3,582.5,0.25,52,120.0
3839,E-3,582.5,0.25,52,120.0
3840,G5,582.75,0.25,70,120.0
3841,E-5,583.0,0.25,78,120.0
3842,E-4,583.0,0.25,52,120.0
3843,B-3,583.0,0.25,52,120.0
3844,G3,583.0,0.25,52,120.0
3845,E-3,583.0,0.25,52,120.0
3846,B-5,583.25,0.25,70,120.0
3847,G5,583.5,0.25,86,120.0
3848,E-4,583.5,0.25,52,120.0
3849,B-3,583.5,0.25,52,120.0
3850,G3,583.5,0.25,52,120.0
3851,E-3,583.5,0.25,52,120.0
3852,E-6,583.75,0.25,70,120.0
3853,B-5,584.0,0.25,77,120.0
3854,E-4,584.0,0.25,52,120.0
3855,B-3,584.0,0.25,52,120.0
3856,G3,584.0,0.25,52,120.0
3857,E-3,584.0,0.25,52,120.0
3858,G6,584.25,0.25,67,120.0
3859,E-6,584.5,0.25,75,120.0
3860,E-4,584.5,0.25,52,120.0
3861,B-3,584.5,0.25,52,120.0
3862,G3,584.5,0.25,52,120.0
3863,E-3,584.5,0.25,52,120.0
3864,B-6,584.75,0.25,68,120.0
3865,A6,585.0,0.25,80,120.0
3866,E-4,585.0,0.25,58,120.0
3867,B-3,585.0,0.25,58,120.0
3868,G3,585.0,0.25,58,120.0
3869,E-3,585.0,0.25,58,120.0
3870,B-6,585.25,0.25,72,120.0
3871,A6,585.5,0.25,77,120.0
3872,E-4,585.5,0.25,51,120.0
3873,B-3,585.5,0.25,51,120.0
3874,G3,585.5,0.25,51,120.0
3875,E-3,585.5,0.25,51,120.0
3876,B-6,585.75,0.25,70,120.0
3877,A6,586.0,0.25,75,120.0
3878,E-4,586.0,0.25,51,120.0
3879,B-3,586.0,0.25,51,120.0
3880,G3,586.0,0.25,51,120.0
3881,E-3,586.0,0.25,51,120.0
3882,B-6,586.25,0.25,70,120.0
3883,C7,586.5,0.25,84,120.0
3884,B-3,586.5,0.25,51,120.0
3885,G#3,586.5,0.25,51,120.0
3886,F3,586.5,0.25,51,120.0
3887,E-3,586.5,0.25,51,120.0
3888,B-6,586.75,0.25,84,120.0
3889,G#6,587.0,0.25,83,120.0
3890,B-3,587.0,0.25,51,120.0
3891,G#3,587.0,0.25,51,120.0
3892,F3,587.0,0.25,51,120.0
3893,E-3,587.0,0.25,51,120.0
3894,G6,587.25,0.25,82,120.0
3895,F6,587.5,0.25,81,120.0
3896,B-3,587.5,0.25,51,120.0
3897,G#3,587.5,0.25,51,120.0
3898,F3,587.5,0.25,51,120.0
3899,E-3,587.5,0.25,51,120.0
3900,E-6,587.75,0.25,81,120.0
3901,D6,588.0,0.25,79,120.0
3902,E-2,588.0,0.25,73,120.0
3903,C6,588.25,0.25,71,120.0
3904,B-5,588.5,0.25,71,120.0
3905,G3,588.5,0.25,56,120.0
3906,E-3,588.5,0.25,56,120.0
3907,G#5,588.75,0.25,71,120.0
3908,G5,589.0,0.25,71,120.0
3909,B-3,589.0,0.25,53,120.0
3910,G3,589.0,0.25,53,120.0
3911,E-3,589.0,0.25,53,120.0
3912,F5,589.25,0.25,71,120.0
3913,E-5,589.5,0.25,77,120.0
3914,E-4,589.5,0.25,52,120.0
3915,B-3,589.5,0.25,52,120.0
3916,G3,589.5,0.25,52,120.0
3917,E-3,589.5,0.25,52,120.0
3918,D5,589.75,0.25,75,120.0
3919,C5,590.0,0.25,74,120.0
3920,E-4,590.0,0.25,52,120.0
3921,B-3,590.0,0.25,52,120.0
3922,G3,590.0,0.25,52,120.0
3923,E-3,590.0,0.25,52,120.0
3924,B-4,590.25,0.25,74,120.0
3925,G#4,590.5,0.25,73,120.0
3926,E-4,590.5,0.25,52,120.0
3927,B-3,590.5,0.25,52,120.0
3928,G3,590.5,0.25,52,120.0
3929,E-3,590.5,0.25,52,120.0
3930,G4,590.75,0.25,72,120.0
3931,F4,591.0,0.25,70,120.0
3932,E-4,591.0,0.25,60,120.0
3933,B-3,591.0,0.25,60,120.0
3934,G3,591.0,0.25,60,120.0
3935,E-3,591.0,0.25,60,120.0
3936,E-4,591.25,0.25,64,120.0
3937,D4,591.5,0.25,70,120.0
3938,E-4,591.5,0.25,52,120.0
3939,B-3,591.5,0.25,52,120.0
3940,G3,591.5,0.25,52,120.0
3941,E-3,591.5,0.25,52,120.0
3942,F4,591.75,0.25,66,120.0
3943,G#4,592.0,0.25,75,120.0
3944,E-4,592.0,0.25,52,120.0
3945,B-3,592.0,0.25,52,120.0
3946,G3,592.0,0.25,52,120.0
3947,E-3,592.0,0.25,52,120.0
3948,D4,592.25,0.25,69,120.0
3949,G3,592.5,0.25,85,120.0
3950,C#4,592.5,0.25,52,120.0
3951,B-3,592.5,0.25,52,120.0
3952,G3,592.5,0.25,52,120.0
3953,E-3,592.5,0.25,52,120.0
3954,E-4,592.75,0.25,70,120.0
3955,B-3,593.0,0.25,79,120.0
3956,C#4,593.0,0.25,52,120.0
3957,B-3,593.0,0.25,52,120.0
3958,G3,593.0,0.25,52,120.0
3959,E-3,593.0,0.25,52,120.0
3960,G4,593.25,0.25,70,120.0
3961,E-4,593.5,0.25,81,120.0
3962,C#4,593.5,0.25,52,120.0
3963,B-3,593.5,0.25,52,120.0
3964,G3,593.5,0.25,52,120.0
3965,E-3,593.5,0.25,52,120.0
3966,B-4,593.75,0.25,70,120.0
3967,G4,594.0,0.25,86,120.0
3968,C#4,594.0,0.25,61,120.0
3969,B-3,594.0,0.25,61,120.0
3970,G3,594.0,0.25,61,120.0
3971,E-3,594.0,0.25,61,120.0
3972,E-5,594.25,0.25,70,120.0
3973,B-4,594.5,0.25,77,120.0
3974,C#4,594.5,0.25,52,120.0
3975,B-3,594.5,0.25,52,120.0
3976,G3,594.5,0.25,52,120.0
3977,E-3,594.5,0.25,52,120.0
3978,G5,594.75,0.25,70,120.0
3979,E-5,595.0,0.25,78,120.0
3980,C#4,595.0,0.25,52,120.0
3981,B-3,595.0,0.25,52,120.0
3982,G3,595.0,0.25,52,120.0
3983,E-3,595.0,0.25,52,120.0
3984,B-5,595.25,0.25,70,120.0
3985,G5,595.5,0.25,86,120.0
3986,C#4,595.5,0.25,52,120.0
3987,B-3,595.5,0.25,52,120.0
3988,G3,595.5,0.25,52,120.0
3989,E-3,595.5,0.25,52,120.0
3990,E-6,595.75,0.25,70,120.0
3991,B-5,596.0,0.25,77,120.0
3992,C#4,596.0,0.25,52,120.0
3993,B-3,596.0,0.25,52,120.0
3994,G3,596.0,0.25,52,120.0
3995,E-3,596.0,0.25,52,120.0
3996,G6,596.25,0.25,67,120.0
3997,E-6,596.5,0.25,75,120.0
3998,C#4,596.5,0.25,52,120.0
3999,B-3,596.5,0.25,52,120.0
4000,G3,596.5,0.25,52,120.0
4001,E-3,596.5,0.25,52,120.0
4002,B-6,596.75,0.25,68,120.0
4003,A6,597.0,0.25,80,120.0
4004,B-3,597.0,0.25,58,120.0
4005,C#4,597.0,0.25,58,120.0
4006,G3,597.0,0.25,58,120.0
4007,E-3,597.0,0.25,58,120.0
4008,B-6,597.25,0.25,72,120.0
4009,A6,597.5,0.25,77,120.0
4010,B-3,597.5,0.25,51,120.0
4011,C#4,597.5,0.25,51,120.0
4012,G3,597.5,0.25,51,120.0
4013,E-3,597.5,0.25,51,120.0
4014,B-6,597.75,0.25,70,120.0
4015,A6,598.0,0.25,75,120.0
4016,G#3,598.0,0.25,52,120.0
4017,C4,598.0,0.25,52,120.0
4018,E-3,598.0,0.25,52,120.0
4019,B-6,598.25,0.25,70,120.0
4020,C7,598.5,0.25,84,120.0
4021,E-3,598.5,0.25,51,120.0
4022,F3,598.5,0.25,51,120.0
4023,B3,598.5,0.25,51,120.0
4024,G#3,598.5,0.25,51,120.0
4025,B-6,598.75,0.25,84,120.0
4026,G#6,599.0,0.25,83,120.0
4027,E-3,599.0,0.25,51,120.0
4028,B3,599.0,0.25,51,120.0
4029,G#3,599.0,0.25,51,120.0
4030,F3,599.0,0.25,51,120.0
4031,G6,599.25,0.25,82,120.0
4032,F6,599.5,0.25,81,120.0
4033,E-3,599.5,0.25,51,120.0
4034,B-3,599.5,0.25,51,120.0
4035,G#3,599.5,0.25,51,120.0
4036,F3,599.5,0.25,51,120.0
4037,E-6,599.75,0.25,81,120.0
4038,C#6,600.0,0.25,79,120.0
4039,E-2,600.0,0.5,80,120.0
4040,E-3,600.0,0.5,80,120.0
4041,C6,600.25,0.25,71,120.0
4042,B-5,600.5,0.25,71,120.0
4043,G#5,600.75,0.25,71,120.0
4044,G5,601.0,0.25,71,120.0
4045,F5,601.25,0.25,71,120.0
4046,E-5,601.5,63/250,77,120.0
4047,E-4,601.5,0.5,75,120.0
4048,C#5,601.75,63/250,75,120.0
4049,C5,602.0,0.25,74,120.0
4050,B-4,602.25,0.25,74,120.0
4051,G#4,602.5,0.25,73,120.0
4052,G4,602.75,0.25,72,120.0
4053,F4,603.0,0.25,68,120.0
4054,F#4,603.0,0.5,81,120.0
4055,E-4,603.25,0.25,59,120.0
4056,D4,603.5,0.25,66,120.0
4057,F4,603.75,0.25,59,120.0
4058,G#4,604.0,0.25,64,120.0
4059,D4,604.25,0.25,59,120.0
4060,E-4,604.5,0.5,95,120.0
4061,B4,604.5,0.5,74,120.0
4062,E-5,606.0,0.5,89,120.0
4063,F#4,606.0,0.5,79,120.0
4064,F#5,607.5,0.5,96,120.0
4065,E-4,607.5,0.5,74,120.0
4066,B5,609.0,0.5,88,120.0
4067,B3,609.0,0.5,78,120.0
4068,F#5,610.5,0.5,94,120.0
4069,F#3,610.5,0.5,70,120.0
4070,E-5,612.0,0.5,88,120.0
4071,D2,612.0,0.5,80,120.0
4072,D3,612.0,0.5,80,120.0
4073,B4,613.5,0.5,93,120.0
4074,D4,613.5,0.5,75,120.0
4075,F#4,615.0,0.5,82,120.0
4076,F4,615.0,0.5,81,120.0
4077,D4,616.5,0.5,95,120.0
4078,B-4,616.5,0.5,74,120.0
4079,D5,618.0,0.5,89,120.0
4080,F4,618.0,0.5,79,120.0
4081,F5,619.5,0.5,96,120.0
4082,D4,619.5,0.5,74,120.0
4083,B-5,621.0,0.5,88,120.0
4084,B-3,621.0,0.5,78,120.0
4085,F5,622.5,0.5,94,120.0
4086,F3,622.5,0.5,70,120.0
4087,D5,624.0,0.5,88,120.0
4088,E-4,624.0,0.25,36,120.0
4089,F#4,624.0,0.25,36,120.0
4090,B4,624.0,0.25,36,120.0
4091,E-4,624.5,0.25,31,120.0
4092,F#4,624.5,0.25,31,120.0
4093,B4,624.5,0.25,31,120.0
4094,E-4,625.0,0.25,31,120.0
4095,F#4,625.0,0.25,31,120.0
4096,B4,625.0,0.25,31,120.0
4097,B-4,625.5,0.5,93,120.0
4098,E-4,625.5,0.25,31,120.0
4099,F#4,625.5,0.25,31,120.0
4100,B4,625.5,0.25,31,120.0
4101,E-4,626.0,0.25,31,120.0
4102,F#4,626.0,0.25,31,120.0
4103,B4,626.0,0.25,31,120.0
4104,E-4,626.5,0.25,31,120.0
4105,F#4,626.5,0.25,31,120.0
4106,B4,626.5,0.25,31,120.0
4107,F4,627.0,0.5,82,120.0
4108,E-4,627.0,0.25,36,120.0
4109,F#4,627.0,0.25,36,120.0
4110,B4,627.0,0.25,36,120.0
4111,E-4,627.5,0.25,31,120.0
4112,F#4,627.5,0.25,31,120.0
4113,B4,627.5,0.25,31,120.0
4114,E-4,628.0,0.25,31,120.0
4115,F#4,628.0,0.25,31,120.0
4116,B4,628.0,0.25,31,120.0
4117,F#5,628.5,0.25,55,120.0
4118,E-4,628.5,0.25,31,120.0
4119,F#4,628.5,0.25,31,120.0
4120,B4,628.5,0.25,31,120.0
4121,E-4,629.0,0.25,31,120.0
4122,F#4,629.0,0.25,31,120.0
4123,B4,629.0,0.25,31,120.0
4124,F6,629.375,0.125,51,120.0
4125,E-6,629.5,0.25,56,120.0
4126,E-4,629.5,0.25,31,120.0
4127,F#4,629.5,0.25,31,120.0
4128,B4,629.5,0.25,31,120.0
4129,D6,629.75,0.25,51,120.0
4130,E-6,630.0,0.5,56,120.0
4131,E-4,630.0,0.25,36,120.0
4132,F#4,630.0,0.25,36,120.0
4133,B4,630.0,0.25,36,120.0
4134,E-4,630.5,0.25,31,120.0
4135,F#4,630.5,0.25,31,120.0
4136,B4,630.5,0.25,31,120.0
4137,G#6,630.875,0.125,51,120.0
4138,F#6,631.0,0.25,57,120.0
4139,E-4,631.0,0.25,31,120.0
4140,F#4,631.0,0.25,31,120.0
4141,B4,631.0,0.25,31,120.0
4142,F6,631.25,0.25,50,120.0
4143,F#6,631.5,0.25,60,120.0
4144,E-4,631.5,0.25,31,120.0
4145,F#4,631.5,0.25,31,120.0
4146,B4,631.5,0.25,31,120.0
4147,E-4,632.0,0.25,31,120.0
4148,F#4,632.0,0.25,31,120.0
4149,B4,632.0,0.25,31,120.0
4150,C#7,632.375,0.125,51,120.0
4151,B6,632.5,0.25,56,120.0
4152,E-4,632.5,0.25,31,120.0
4153,F#4,632.5,0.25,31,120.0
4154,B4,632.5,0.25,31,120.0
4155,B-6,632.75,0.25,51,120.0
4156,B6,633.0,0.5,56,120.0
4157,E-4,633.0,0.25,36,120.0
4158,F#4,633.0,0.25,36,120.0
4159,B4,633.0,0.25,36,120.0
4160,E-4,633.5,0.25,31,120.0
4161,F#4,633.5,0.25,31,120.0
4162,B4,633.5,0.25,31,120.0
4163,G#6,633.875,0.125,51,120.0
4164,F#6,634.0,0.25,57,120.0
4165,E-4,634.0,0.25,31,120.0
4166,F#4,634.0,0.25,31,120.0
4167,B4,634.0,0.25,31,120.0
4168,F6,634.25,0.25,50,120.0
4169,F#6,634.5,0.25,60,120.0
4170,E-4,634.5,0.25,31,120.0
4171,F#4,634.5,0.25,31,120.0
4172,B4,634.5,0.25,31,120.0
4173,E-4,635.0,0.25,31,120.0
4174,F#4,635.0,0.25,31,120.0
4175,B4,635.0,0.25,31,120.0
4176,F6,635.375,0.125,51,120.0
4177,E-6,635.5,0.25,56,120.0
4178,E-4,635.5,0.25,31,120.0
4179,F#4,635.5,0.25,31,120.0
4180,A4,635.5,0.25,31,120.0
4181,D6,635.75,0.25,51,120.0
4182,E-6,636.0,0.5,56,120.0
4183,D4,636.0,0.25,36,120.0
4184,F4,636.0,0.25,36,120.0
4185,B-4,636.0,0.25,36,120.0
4186,D4,636.5,0.25,31,120.0
4187,F4,636.5,0.25,31,120.0
4188,B-4,636.5,0.25,31,120.0
4189,C#6,636.875,0.125,51,120.0
4190,B5,637.0,0.25,57,120.0
4191,D4,637.0,0.25,31,120.0
4192,F4,637.0,0.25,31,120.0
4193,B-4,637.0,0.25,31,120.0
4194,B-5,637.25,0.25,50,120.0
4195,B5,637.5,0.25,60,120.0
4196,D4,637.5,0.25,31,120.0
4197,F4,637.5,0.25,31,120.0
4198,B-4,637.5,0.25,31,120.0
4199,D4,638.0,0.25,31,120.0
4200,F4,638.0,0.25,31,120.0
4201,B-4,638.0,0.25,31,120.0
4202,G#5,638.375,0.125,51,120.0
4203,F#5,638.5,0.25,56,120.0
4204,D4,638.5,0.25,31,120.0
4205,F4,638.5,0.25,31,120.0
4206,B-4,638.5,0.25,31,120.0
4207,F5,638.75,0.25,51,120.0
4208,F#5,639.0,1.0,56,120.0
4209,D4,639.0,0.25,36,120.0
4210,F4,639.0,0.25,36,120.0
4211,B-4,639.0,0.25,36,120.0
4212,D4,639.5,0.25,31,120.0
4213,F4,639.5,0.25,31,120.0
4214,B-4,639.5,0.25,31,120.0
4215,D4,640.0,0.25,31,120.0
4216,F4,640.0,0.25,31,120.0
4217,B-4,640.0,0.25,31,120.0
4218,F5,640.5,0.25,55,120.0
4219,D4,640.5,0.25,31,120.0
4220,F4,640.5,0.25,31,120.0
4221,B-4,640.5,0.25,31,120.0
4222,D4,641.0,0.25,31,120.0
4223,F4,641.0,0.25,31,120.0
4224,B-4,641.0,0.25,31,120.0
4225,E-6,641.375,0.125,51,120.0
4226,D6,641.5,0.25,56,120.0
4227,D4,641.5,0.25,31,120.0
4228,F4,641.5,0.25,31,120.0
4229,B-4,641.5,0.25,31,120.0
4230,C6,641.75,0.25,51,120.0
4231,D6,642.0,0.5,56,120.0
4232,D4,642.0,0.25,36,120.0
4233,F4,642.0,0.25,36,120.0
4234,B-4,642.0,0.25,36,120.0
4235,D4,642.5,0.25,31,120.0
4236,F4,642.5,0.25,31,120.0
4237,B-4,642.5,0.25,31,120.0
4238,F#6,642.875,0.125,51,120.0
4239,F6,643.0,0.25,57,120.0
4240,D4,643.0,0.25,31,120.0
4241,F4,643.0,0.25,31,120.0
4242,B-4,643.0,0.25,31,120.0
4243,E6,643.25,0.25,50,120.0
4244,F6,643.5,0.25,60,120.0
4245,D4,643.5,0.25,31,120.0
4246,F4,643.5,0.25,31,120.0
4247,B-4,643.5,0.25,31,120.0
4248,D4,644.0,0.25,31,120.0
4249,F4,644.0,0.25,31,120.0
4250,B-4,644.0,0.25,31,120.0
4251,B6,644.375,0.125,51,120.0
4252,B-6,644.5,0.25,56,120.0
4253,D4,644.5,0.25,31,120.0
4254,F4,644.5,0.25,31,120.0
4255,B-4,644.5,0.25,31,120.0
4256,A6,644.75,0.25,51,120.0
4257,B-6,645.0,0.5,56,120.0
4258,D4,645.0,0.25,36,120.0
4259,F4,645.0,0.25,36,120.0
4260,B-4,645.0,0.25,36,120.0
4261,D4,645.5,0.25,31,120.0
4262,F4,645.5,0.25,31,120.0
4263,B-4,645.5,0.25,31,120.0
4264,F#6,645.875,0.125,51,120.0
4265,F6,646.0,0.25,57,120.0
4266,D4,646.0,0.25,31,120.0
4267,F4,646.0,0.25,31,120.0
4268,B-4,646.0,0.25,31,120.0
4269,E6,646.25,0.25,50,120.0
4270,F6,646.5,0.25,60,120.0
4271,D4,646.5,0.5,31,120.0
4272,F4,646.5,0.5,31,120.0
4273,B-4,646.5,0.5,31,120.0
4274,B-3,647.0,0.5,35,120.0
4275,E-6,647.375,0.125,51,120.0
4276,D6,647.5,0.25,56,120.0
4277,G#3,647.5,0.5,35,120.0
4278,C6,647.75,0.25,51,120.0
4279,D6,648.0,0.5,56,120.0
4280,E-3,648.0,3.0,40,120.0
4281,G3,648.0,1.0,40,120.0
4282,B5,648.875,0.125,51,120.0
4283,B-5,649.0,0.25,57,120.0
4284,C4,649.0,0.5,33,120.0
4285,A5,649.25,0.25,50,120.0
4286,B-5,649.5,0.25,60,120.0
4287,B-3,649.5,1.0,42,120.0
4288,F#5,650.375,0.125,51,120.0
4289,F5,650.5,0.25,56,120.0
4290,G3,650.5,0.5,39,120.0
4291,E5,650.75,0.25,51,120.0
4292,F5,651.0,0.5,56,120.0
4293,B-2,651.0,3.0,42,120.0
4294,F3,651.0,1.0,42,120.0
4295,F#5,652.0,0.5,52,120.0
4296,C4,652.0,0.5,36,120.0
4297,G5,652.5,1.5,56,120.0
4298,B-4,652.5,0.25,35,120.0
4299,B-3,652.5,1.0,45,120.0
4300,C5,652.75,0.25,31,120.0
4301,B-4,653.0,0.25,35,120.0
4302,C5,653.25,0.25,31,120.0
4303,B-4,653.5,0.25,34,120.0
4304,F3,653.5,0.5,41,120.0
4305,C5,653.75,0.25,31,120.0
4306,B-4,654.0,0.25,36,120.0
4307,E-5,654.0,1.5,55,120.0
4308,E-3,654.0,3.0,46,120.0
4309,G3,654.0,1.0,46,120.0
4310,C5,654.25,0.25,32,120.0
4311,B-4,654.5,0.25,36,120.0
4312,C5,654.75,0.25,31,120.0
4313,B-4,655.0,0.25,37,120.0
4314,C4,655.0,0.5,37,120.0
4315,C5,655.25,0.25,31,120.0
4316,D5,655.5,1.5,59,120.0
4317,B-4,655.5,0.25,37,120.0
4318,B-3,655.5,1.0,45,120.0
4319,C5,655.75,0.25,33,120.0
4320,B-4,656.0,0.25,37,120.0
4321,C5,656.25,0.25,33,120.0
4322,B-4,656.5,0.25,37,120.0
4323,G3,656.5,0.5,40,120.0
4324,C5,656.75,0.25,34,120.0
4325,B-4,657.0,0.25,38,120.0
4326,G#5,657.0,1.5,59,120.0
4327,B-2,657.0,3.0,43,120.0
4328,F3,657.0,1.0,43,120.0
4329,C5,657.25,0.25,34,120.0
4330,B-4,657.5,0.25,39,120.0
4331,C5,657.75,0.25,33,120.0
4332,B-4,658.0,0.25,39,120.0
4333,C4,658.0,0.5,34,120.0
4334,C5,658.25,0.25,34,120.0
4335,B-4,658.5,0.25,40,120.0
4336,G5,658.5,1.5,64,120.0
4337,B-3,658.5,1.0,42,120.0
4338,C5,658.75,0.25,35,120.0
4339,B-4,659.0,0.25,39,120.0
4340,C5,659.25,0.25,35,120.0
4341,B-4,659.5,0.25,38,120.0
4342,F3,659.5,0.5,37,120.0
4343,C5,659.75,0.25,34,120.0
4344,E-5,660.0,1.5,60,120.0
4345,B-4,660.0,0.25,39,120.0
4346,B-3,660.0,0.25,37,120.0
4347,E-3,660.0,0.25,37,120.0
4348,C5,660.25,0.25,34,120.0
4349,B-4,660.5,0.25,38,120.0
4350,G3,660.5,0.25,31,120.0
4351,B-3,660.5,0.25,31,120.0
4352,E-4,660.5,0.25,31,120.0
4353,C5,660.75,0.25,33,120.0
4354,B-4,661.0,0.25,38,120.0
4355,G3,661.0,0.25,31,120.0
4356,B-3,661.0,0.25,31,120.0
4357,E-4,661.0,0.25,31,120.0
4358,C5,661.25,0.25,32,120.0
4359,B-4,661.5,0.25,37,120.0
4360,D5,661.5,1.5,60,120.0
4361,G3,661.5,0.25,31,120.0
4362,B-3,661.5,0.25,31,120.0
4363,E-4,661.5,0.25,31,120.0
4364,C5,661.75,0.25,33,120.0
4365,B-4,662.0,0.25,37,120.0
4366,G3,662.0,0.25,31,120.0
4367,B-3,662.0,0.25,31,120.0
4368,E-4,662.0,0.25,31,120.0
4369,C5,662.25,0.25,32,120.0
4370,B-4,662.5,0.25,35,120.0
4371,G3,662.5,0.25,31,120.0
4372,B3,662.5,0.25,31,120.0
4373,E-4,662.5,0.25,31,120.0
4374,C5,662.75,0.25,32,120.0
4375,G#5,663.0,1.5,56,120.0
4376,B-4,663.0,0.25,36,120.0
4377,C5,663.25,0.25,32,120.0
4378,B-4,663.5,0.25,36,120.0
4379,G#3,663.5,0.25,31,120.0
4380,C4,663.5,0.25,31,120.0
4381,E-4,663.5,0.25,31,120.0
4382,C5,663.75,0.25,30,120.0
4383,B-4,664.0,0.25,35,120.0
4384,G#3,664.0,0.25,31,120.0
4385,C4,664.0,0.25,31,120.0
4386,E-4,664.0,0.25,31,120.0
4387,C5,664.25,0.25,30,120.0
4388,B-4,664.5,0.25,50,120.0
4389,G5,664.5,0.25,50,120.0
4390,G#3,664.5,0.25,31,120.0
4391,C4,664.5,0.25,31,120.0
4392,E-4,664.5,0.25,31,120.0
4393,C5,664.75,0.25,45,120.0
4394,D5,665.0,0.25,50,120.0
4395,G#3,665.0,0.25,31,120.0
4396,C4,665.0,0.25,31,120.0
4397,E-4,665.0,0.25,31,120.0
4398,E-5,665.25,0.25,52,120.0
4399,F5,665.5,167/1000,54,120.0
4400,A3,665.5,0.25,31,120.0
4401,E-4,665.5,0.25,31,120.0
4402,F4,665.5,0.25,31,120.0
4403,G5,665.667,167/1000,56,120.0
4404,G#5,665.833,167/1000,59,120.0
4405,B-5,666.0,0.25,61,120.0
4406,G#5,666.25,0.25,60,120.0
4407,G5,666.5,167/1000,58,120.0
4408,B-3,666.5,0.25,31,120.0
4409,E-4,666.5,0.25,31,120.0
4410,G4,666.5,0.25,31,120.0
4411,F5,666.667,167/1000,56,120.0
4412,E-5,666.833,167/1000,54,120.0
4413,D5,667.0,167/1000,53,120.0
4414,B-3,667.0,0.25,31,120.0
4415,E-4,667.0,0.25,31,120.0
4416,G4,667.0,0.25,31,120.0
4417,C5,667.167,167/1000,51,120.0
4418,B4,667.333,167/1000,49,120.0
4419,C5,667.5,0.25,54,120.0
4420,B-3,667.5,0.25,31,120.0
4421,E-4,667.5,0.25,31,120.0
4422,G4,667.5,0.25,31,120.0
4423,E-5,667.75,0.25,45,120.0
4424,F5,668.0,0.25,48,120.0
4425,B-3,668.0,0.25,31,120.0
4426,E-4,668.0,0.25,31,120.0
4427,G4,668.0,0.25,31,120.0
4428,G5,668.25,0.25,50,120.0
4429,G#5,668.5,0.25,56,120.0
4430,B-3,668.5,0.25,31,120.0
4431,E-4,668.5,0.25,31,120.0
4432,G4,668.5,0.25,31,120.0
4433,B-5,668.75,0.25,59,120.0
4434,C6,669.0,0.25,61,120.0
4435,G4,669.0,0.25,31,120.0
4436,B-3,669.0,0.25,31,120.0
4437,E-4,669.0,0.25,31,120.0
4438,B-5,669.25,0.25,60,120.0
4439,G#5,669.5,167/1000,58,120.0
4440,B-3,669.5,0.25,31,120.0
4441,E-4,669.5,0.25,31,120.0
4442,G4,669.5,0.25,31,120.0
4443,G5,669.667,167/1000,57,120.0
4444,F5,669.833,167/1000,56,120.0
4445,E-5,670.0,167/1000,55,120.0
4446,B-3,670.0,0.25,31,120.0
4447,E-4,670.0,0.25,31,120.0
4448,G4,670.0,0.25,31,120.0
4449,D5,670.167,167/1000,54,120.0
4450,C5,670.333,167/1000,53,120.0
4451,B-4,670.5,0.25,57,120.0
4452,B-3,670.5,0.25,31,120.0
4453,D4,670.5,0.25,31,120.0
4454,G#4,670.5,0.25,31,120.0
4455,G5,670.75,0.25,49,120.0
4456,E-5,671.0,0.25,59,120.0
4457,B-3,671.0,0.25,31,120.0
4458,D4,671.0,0.25,31,120.0
4459,G#4,671.0,0.25,31,120.0
4460,B-5,671.25,0.25,55,120.0
4461,G5,671.5,0.25,62,120.0
4462,B-3,671.5,0.25,31,120.0
4463,D4,671.5,0.25,31,120.0
4464,G#4,671.5,0.25,31,120.0
4465,E-6,671.75,0.25,57,120.0
4466,B-5,672.0,0.25,62,120.0
4467,E-4,672.0,3.0,40,120.0
4468,G4,672.0,1.0,40,120.0
4469,G6,672.25,0.25,57,120.0
4470,E-6,672.5,0.25,55,120.0
4471,B-6,672.735,0.25,61,120.0
4472,G6,673.0,0.25,53,120.0
4473,C5,673.0,0.5,33,120.0
4474,E-6,673.25,0.25,54,120.0
4475,B-5,673.5,1.0,59,120.0
4476,B-4,673.5,1.0,42,120.0
4477,G4,674.5,0.5,39,120.0
4478,F6,675.0,167/1000,59,120.0
4479,B-3,675.0,3.0,42,120.0
4480,F4,675.0,1.0,42,120.0
4481,G6,675.167,167/1000,52,120.0
4482,F6,675.333,167/1000,59,120.0
4483,G6,675.5,167/1000,54,120.0
4484,F6,675.667,167/1000,59,120.0
4485,G6,675.833,167/1000,53,120.0
4486,F6,676.0,167/1000,59,120.0
4487,C5,676.0,0.5,36,120.0
4488,G6,676.167,167/1000,53,120.0
4489,F6,676.333,167/1000,56,120.0
4490,G6,676.5,1.5,67,120.0
4491,B-5,676.5,0.25,45,120.0
4492,B-4,676.5,1.0,45,120.0
4493,C6,676.75,0.25,34,120.0
4494,B-5,677.0,0.25,38,120.0
4495,C6,677.25,0.25,34,120.0
4496,B-5,677.5,0.25,37,120.0
4497,F4,677.5,0.5,41,120.0
4498,C6,677.75,0.25,34,120.0
4499,E-6,678.0,1.5,60,120.0
4500,B-5,678.0,0.25,39,120.0
4501,E-4,678.0,3.0,46,120.0
4502,G4,678.0,1.0,46,120.0
4503,C6,678.25,0.25,35,120.0
4504,B-5,678.5,0.25,39,120.0
4505,C6,678.75,0.25,34,120.0
4506,B-5,679.0,0.25,40,120.0
4507,C5,679.0,0.5,37,120.0
4508,C6,679.25,0.25,34,120.0
4509,B-5,679.5,0.25,40,120.0
4510,D6,679.5,1.5,64,120.0
4511,B-4,679.5,1.0,45,120.0
4512,C6,679.75,0.25,36,120.0
4513,B-5,680.0,0.25,40,120.0
4514,C6,680.25,0.25,36,120.0
4515,B-5,680.5,0.25,40,120.0
4516,G4,680.5,0.5,40,120.0
4517,C6,680.75,0.25,37,120.0
4518,G#6,681.0,1.5,64,120.0
4519,B-5,681.0,0.25,41,120.0
4520,B-3,681.0,3.0,43,120.0
4521,F4,681.0,1.0,43,120.0
4522,C6,681.25,0.25,37,120.0
4523,B-5,681.5,0.25,42,120.0
4524,C6,681.75,0.25,36,120.0
4525,B-5,682.0,0.25,42,120.0
4526,C5,682.0,0.5,34,120.0
4527,C6,682.25,0.25,37,120.0
4528,G6,682.5,1.5,70,120.0
4529,B-5,682.5,0.25,44,120.0
4530,B-4,682.5,1.0,42,120.0
4531,C6,682.75,0.25,38,120.0
4532,B-5,683.0,0.25,42,120.0
4533,C6,683.25,0.25,38,120.0
4534,B-5,683.5,0.25,41,120.0
4535,F4,683.5,0.5,37,120.0
4536,C6,683.75,0.25,37,120.0
4537,B-5,684.0,0.25,42,120.0
4538,E-6,684.0,1.5,66,120.0
4539,E-4,684.0,0.25,51,120.0
4540,C6,684.25,0.25,37,120.0
4541,G4,684.25,0.25,45,120.0
4542,B-5,684.5,0.25,41,120.0
4543,G#4,684.5,0.25,50,120.0
4544,C6,684.75,0.25,36,120.0
4545,B-4,684.75,0.25,52,120.0
4546,B-5,685.0,0.25,41,120.0
4547,C5,685.0,0.25,54,120.0
4548,C6,685.25,0.25,35,120.0
4549,D5,685.25,0.25,56,120.0
4550,D6,685.5,1.5,66,120.0
4551,B-5,685.5,0.25,40,120.0
4552,E-5,685.5,0.25,61,120.0
4553,C6,685.75,0.25,36,120.0
4554,D5,685.75,0.25,60,120.0
4555,B-5,686.0,0.25,40,120.0
4556,C5,686.0,0.25,58,120.0
4557,C6,686.25,0.25,35,120.0
4558,B-4,686.25,0.25,57,120.0
4559,B-5,686.5,0.25,38,120.0
4560,G#4,686.5,0.25,55,120.0
4561,C6,686.75,0.25,35,120.0
4562,G4,686.75,0.25,54,120.0
4563,B-5,687.0,0.25,39,120.0
4564,G#6,687.0,1.5,61,120.0
4565,G#4,687.0,0.25,51,120.0
4566,C6,687.25,0.25,35,120.0
4567,C5,687.25,0.25,45,120.0
4568,B-5,687.5,0.25,39,120.0
4569,D5,687.5,0.25,48,120.0
4570,C6,687.75,0.25,33,120.0
4571,E-5,687.75,0.25,50,120.0
4572,B-5,688.0,0.25,38,120.0
4573,F5,688.0,0.25,55,120.0
4574,C6,688.25,0.25,33,120.0
4575,G5,688.25,0.25,57,120.0
4576,G#5,688.5,0.25,62,120.0
4577,G5,688.75,0.25,60,120.0
4578,F5,689.0,0.25,59,120.0
4579,E-6,689.0,0.25,49,120.0
4580,G6,689.0,0.25,49,120.0
4581,E-5,689.25,0.25,58,120.0
4582,D5,689.5,0.25,57,120.0
4583,G6,689.5,0.25,49,120.0
4584,E-6,689.5,0.25,49,120.0
4585,C5,689.75,0.25,55,120.0
4586,B-4,690.0,0.25,60,120.0
4587,E-6,690.0,0.25,52,120.0
4588,G6,690.0,0.25,52,120.0
4589,B-3,690.25,0.25,52,120.0
4590,E-4,690.5,0.25,63,120.0
4591,E-6,690.5,0.25,46,120.0
4592,G6,690.5,0.25,46,120.0
4593,G4,690.75,0.25,59,120.0
4594,B-4,691.0,0.25,68,120.0
4595,E-6,691.0,0.25,46,120.0
4596,G6,691.0,0.25,46,120.0
4597,E-5,691.25,0.25,62,120.0
4598,G5,691.5,0.25,63,120.0
4599,E-5,691.75,0.25,54,120.0
4600,B-5,692.0,0.25,66,120.0
4601,E-6,692.0,0.25,49,120.0
4602,F6,692.0,0.25,49,120.0
4603,G5,692.25,0.25,62,120.0
4604,E-5,692.5,0.25,70,120.0
4605,F6,692.5,0.25,49,120.0
4606,E-6,692.5,0.25,49,120.0
4607,B-4,692.75,0.25,64,120.0
4608,B-4,693.0,0.5,60,120.0
4609,F5,693.0,167/1000,67,120.0
4610,F6,693.0,0.25,53,120.0
4611,E-6,693.0,0.25,53,120.0
4612,G5,693.167,167/1000,59,120.0
4613,F5,693.333,167/1000,67,120.0
4614,G5,693.5,167/1000,61,120.0
4615,F6,693.5,0.25,48,120.0
4616,E-6,693.5,0.25,48,120.0
4617,F5,693.667,167/1000,66,120.0
4618,G5,693.833,167/1000,59,120.0
4619,F5,694.0,167/1000,66,120.0
4620,F6,694.0,0.25,50,120.0
4621,E-6,694.0,0.25,50,120.0
4622,G5,694.167,167/1000,59,120.0
4623,F5,694.333,167/1000,62,120.0
4624,G5,694.5,167/1000,56,120.0
4625,F5,694.667,167/1000,63,120.0
4626,G5,694.833,167/1000,55,120.0
4627,F5,695.0,167/1000,63,120.0
4628,G6,695.0,0.25,52,120.0
4629,E-6,695.0,0.25,52,120.0
4630,G5,695.167,167/1000,55,120.0
4631,F5,695.333,167/1000,63,120.0
4632,G5,695.5,167/1000,55,120.0
4633,G6,695.5,0.25,53,120.0
4634,E-6,695.5,0.25,53,120.0
4635,F5,695.667,167/1000,63,120.0
4636,G5,695.833,167/1000,59,120.0
4637,B-4,696.0,0.25,62,120.0
4638,G6,696.0,0.25,57,120.0
4639,E-6,696.0,0.25,57,120.0
4640,E5,696.25,0.25,55,120.0
4641,F5,696.5,0.25,58,120.0
4642,G6,696.5,0.25,51,120.0
4643,E-6,696.5,0.25,51,120.0
4644,G5,696.75,0.25,60,120.0
4645,F5,697.0,0.25,58,120.0
4646,G6,697.0,0.25,52,120.0
4647,E-6,697.0,0.25,52,120.0
4648,E5,697.25,0.25,58,120.0
4649,G#4,697.5,0.25,61,120.0
4650,F6,697.5,0.25,64,120.0
4651,D6,697.5,0.25,64,120.0
4652,F5,697.75,0.25,56,120.0
4653,G5,698.0,0.25,59,120.0
4654,F6,698.0,0.25,50,120.0
4655,D6,698.0,0.25,50,120.0
4656,G#5,698.25,0.25,61,120.0
4657,G5,698.5,0.25,57,120.0
4658,F6,698.5,0.25,49,120.0
4659,D6,698.5,0.25,49,120.0
4660,F5,698.75,0.25,57,120.0
4661,D6,699.0,0.25,58,120.0
4662,F6,699.0,0.25,58,120.0
4663,G#3,699.013,0.25,62,120.0
4664,D4,699.25,0.25,55,120.0
4665,E-4,699.5,0.25,58,120.0
4666,D6,699.5,0.25,49,120.0
4667,F6,699.5,0.25,49,120.0
4668,F4,699.74,0.25,60,120.0
4669,E-4,700.0,0.25,59,120.0
4670,D6,700.0,0.25,48,120.0
4671,F6,700.0,0.25,48,120.0
4672,D4,700.25,0.25,59,120.0
4673,G3,700.5,0.25,62,120.0
4674,E-4,700.75,0.25,57,120.0
4675,F4,701.0,0.25,61,120.0
4676,G4,701.25,0.25,64,120.0
4677,F4,701.5,0.25,59,120.0
4678,C#6,701.5,1.5,74,120.0
4679,C#7,701.5,1.5,74,120.0
4680,E-4,701.75,0.25,60,120.0
4681,B-2,702.013,0.25,65,120.0
4682,E3,702.25,0.25,58,120.0
4683,F3,702.5,0.25,62,120.0
4684,G3,702.74,0.25,64,120.0
4685,F3,703.0,0.25,62,120.0
4686,C7,703.0,0.5,70,120.0
4687,C6,703.0,0.5,70,120.0
4688,E3,703.25,0.25,63,120.0
4689,G#2,703.5,0.25,67,120.0
4690,F3,703.75,0.25,61,120.0
4691,G3,704.0,0.25,65,120.0
4692,G#3,704.25,0.25,67,120.0
4693,G3,704.5,0.25,63,120.0
4694,B4,704.5,1.5,75,120.0
4695,B5,704.5,1.5,75,120.0
4696,F3,704.75,0.25,63,120.0
4697,G#1,705.013,0.25,70,120.0
4698,D2,705.25,0.25,62,120.0
4699,E-2,705.5,0.25,66,120.0
4700,F2,705.74,0.25,68,120.0
4701,E-2,706.0,0.25,66,120.0
4702,B-4,706.0,0.5,74,120.0
4703,B-5,706.0,0.5,74,120.0
4704,D2,706.25,0.25,67,120.0
4705,G1,706.5,0.25,70,120.0
4706,E-2,706.75,0.25,65,120.0
4707,F2,707.0,0.25,69,120.0
4708,G2,707.25,0.25,71,120.0
4709,F2,707.5,0.25,67,120.0
4710,C#4,707.5,1.5,80,120.0
4711,C#5,707.5,1.5,80,120.0
4712,E-2,707.75,0.25,67,120.0
4713,G1,708.0,0.25,70,120.0
4714,B-1,708.25,0.25,62,120.0
4715,E-2,708.5,0.25,66,120.0
4716,G2,708.75,0.25,68,120.0
4717,E-2,709.0,0.25,66,120.0
4718,C4,709.0,0.5,70,120.0
4719,C5,709.0,0.5,70,120.0
4720,B-1,709.25,0.25,63,120.0
4721,C2,709.5,0.25,70,120.0
4722,E-2,709.75,0.25,65,120.0
4723,G2,710.0,0.25,69,120.0
4724,C3,710.25,0.25,71,120.0
4725,G2,710.5,0.25,67,120.0
4726,B2,710.5,1.5,85,120.0
4727,B3,710.5,1.5,85,120.0
4728,E-2,710.75,0.25,64,120.0
4729,G#1,711.0,0.25,70,120.0
4730,C2,711.25,0.25,62,120.0
4731,F2,711.5,0.25,66,120.0
4732,G#2,711.75,0.25,68,120.0
4733,F2,712.0,0.25,66,120.0
4734,B-2,712.0,0.5,82,120.0
4735,B-3,712.0,0.5,82,120.0
4736,C2,712.25,0.25,63,120.0
4737,B-1,712.5,0.25,70,120.0
4738,F2,712.75,0.25,65,120.0
4739,G#2,713.0,0.25,69,120.0
4740,B-4,713.0,0.25,66,120.0
4741,B-3,713.0,0.25,66,120.0
4742,B-2,713.25,0.25,71,120.0
4743,G#2,713.5,0.25,67,120.0
4744,B-4,713.5,0.25,62,120.0
4745,B-3,713.5,0.25,62,120.0
4746,F2,713.75,0.25,64,120.0
4747,G2,714.0,0.25,70,120.0
4748,B-2,714.25,0.25,62,120.0
4749,E-3,714.5,0.25,66,120.0
4750,G#4,714.5,0.25,64,120.0
4751,G#3,714.5,0.25,64,120.0
4752,G3,714.75,0.25,68,120.0
4753,E-3,715.0,0.25,66,120.0
4754,G4,715.0,0.25,60,120.0
4755,G3,715.0,0.25,60,120.0
4756,B-2,715.25,0.25,63,120.0
4757,C3,715.5,0.25,70,120.0
4758,E-3,715.75,0.25,65,120.0
4759,G3,716.0,0.25,69,120.0
4760,G4,716.0,0.25,66,120.0
4761,G3,716.0,0.25,66,120.0
4762,C4,716.25,0.25,71,120.0
4763,G3,716.5,0.25,67,120.0
4764,F4,716.5,0.25,62,120.0
4765,F3,716.5,0.25,62,120.0
4766,E-3,716.75,0.25,64,120.0
4767,G#2,717.0,0.25,70,120.0
4768,C3,717.25,0.25,62,120.0
4769,F3,717.5,0.25,66,120.0
4770,E-4,717.5,0.25,64,120.0
4771,E-3,717.5,0.25,64,120.0
4772,G#3,717.75,0.25,68,120.0
4773,F3,718.0,0.25,66,120.0
4774,D4,718.0,0.25,60,120.0
4775,D3,718.0,0.25,60,120.0
4776,C3,718.25,0.25,63,120.0
4777,B-1,718.5,0.25,70,120.0
4778,F2,718.75,0.25,65,120.0
4779,G#2,719.0,0.25,69,120.0
4780,B-5,719.0,0.25,66,120.0
4781,B-4,719.0,0.25,66,120.0
4782,B-2,719.25,0.25,71,120.0
4783,G#2,719.5,0.25,67,120.0
4784,B-5,719.5,0.25,62,120.0
4785,B-4,719.5,0.25,62,120.0
4786,F2,719.75,0.25,64,120.0
4787,G1,720.0,0.25,70,120.0
4788,B-1,720.25,0.25,62,120.0
4789,E-2,720.5,0.25,66,120.0
4790,G#5,720.5,0.25,64,120.0
4791,G#4,720.5,0.25,64,120.0
4792,G2,720.75,0.25,68,120.0
4793,E-2,721.0,0.25,67,120.0
4794,G5,721.0,0.25,60,120.0
4795,G4,721.0,0.25,60,120.0
4796,B-1,721.25,0.25,64,120.0
4797,C2,721.5,0.25,72,120.0
4798,E-2,721.75,0.25,67,120.0
4799,G2,722.0,0.25,72,120.0
4800,G5,722.0,0.25,66,120.0
4801,G4,722.0,0.25,66,120.0
4802,C3,722.25,0.25,74,120.0
4803,G2,722.5,0.25,71,120.0
4804,F5,722.5,0.25,62,120.0
4805,F4,722.5,0.25,62,120.0
4806,E-2,722.75,0.25,67,120.0
4807,G#1,723.0,0.25,74,120.0
4808,C2,723.25,0.25,66,120.0
4809,F2,723.5,0.25,71,120.0
4810,E-5,723.5,0.25,64,120.0
4811,E-4,723.5,0.25,64,120.0
4812,G#2,723.75,0.25,74,120.0
4813,F2,724.0,0.25,72,120.0
4814,D5,724.0,0.25,60,120.0
4815,D4,724.0,0.25,60,120.0
4816,C2,724.25,0.25,67,120.0
4817,B-1,724.5,0.25,77,120.0
4818,F2,724.75,0.25,72,120.0
4819,G#2,725.0,0.25,77,120.0
4820,E-5,725.0,0.25,64,120.0
4821,G4,725.0,0.25,64,120.0
4822,E-4,725.0,0.25,64,120.0
4823,B-2,725.25,0.25,80,120.0
4824,B-1,725.5,0.25,75,120.0
4825,B-4,725.5,0.25,62,120.0
4826,G4,725.5,0.25,62,120.0
4827,E-4,725.5,0.25,62,120.0
4828,B-2,725.75,0.25,72,120.0
4829,E-2,726.0,0.25,75,120.0
4830,E-3,726.5,0.25,75,120.0
4831,C4,726.5,0.25,69,120.0
4832,G#4,726.5,0.25,69,120.0
4833,E-4,726.5,0.25,69,120.0
4834,G4,727.0,0.25,61,120.0
4835,E-4,727.0,0.25,61,120.0
4836,C4,727.0,0.25,61,120.0
4837,G3,727.0,0.25,70,120.0
4838,E-3,727.0,0.25,70,120.0
4839,E-3,727.5,1.0,74,120.0
4840,G3,727.5,1.0,74,120.0
4841,B-3,727.5,1.0,74,120.0
4842,G4,728.0,0.25,68,120.0
4843,C4,728.0,0.25,68,120.0
4844,G#3,728.0,0.25,68,120.0
4845,F4,728.5,0.25,66,120.0
4846,C4,728.5,0.25,66,120.0
4847,G#3,728.5,0.25,66,120.0
4848,B-2,728.5,0.25,64,120.0
4849,F3,728.5,0.25,64,120.0
4850,B-3,728.5,0.25,64,120.0
4851,E-3,729.0,0.25,71,120.0
4852,G3,729.0,0.25,71,120.0
4853,B-3,729.0,0.25,71,120.0
4854,F3,729.5,0.25,73,120.0
4855,E-4,729.5,0.25,73,120.0
4856,G#3,729.5,0.25,73,120.0
4857,E-3,729.5,0.25,67,120.0
4858,G3,729.5,0.25,67,120.0
4859,B-3,729.5,0.25,67,120.0
4860,D4,730.0,0.25,66,120.0
4861,G#3,730.0,0.25,66,120.0
4862,F3,730.0,0.25,66,120.0
4863,E-3,730.0,0.25,66,120.0
4864,G3,730.0,0.25,66,120.0
4865,B-3,730.0,0.25,66,120.0
4866,E-3,730.5,0.25,62,120.0
4867,E-3,730.5,1.0,73,120.0
4868,G3,730.5,1.0,73,120.0
4869,B-3,730.5,1.0,73,120.0
4870,F3,730.75,0.25,63,120.0
4871,G3,731.0,0.25,65,120.0
4872,G#3,731.25,0.25,66,120.0
4873,B-3,731.5,167/1000,67,120.0
4874,B-2,731.5,0.25,67,120.0
4875,F3,731.5,0.25,67,120.0
4876,B-3,731.5,0.25,67,120.0
4877,C4,731.667,167/1000,68,120.0
4878,D4,731.833,167/1000,68,120.0
4879,E-4,732.0,167/1000,69,120.0
4880,E-3,732.0,0.25,68,120.0
4881,G3,732.0,0.25,68,120.0
4882,B-3,732.0,0.25,68,120.0
4883,F4,732.167,167/1000,70,120.0
4884,G4,732.333,167/1000,71,120.0
4885,G#4,732.5,167/1000,72,120.0
4886,E-3,732.5,0.25,67,120.0
4887,G3,732.5,0.25,67,120.0
4888,B-3,732.5,0.25,67,120.0
4889,B-4,732.667,167/1000,72,120.0
4890,C5,732.833,167/1000,73,120.0
4891,D5,733.0,0.25,85,120.0
4892,E-3,733.0,0.25,65,120.0
4893,G3,733.0,0.25,65,120.0
4894,B-3,733.0,0.25,65,120.0
4895,D4,733.25,0.25,67,120.0
4896,E-4,733.5,0.25,62,120.0
4897,E-3,733.5,1.0,74,120.0
4898,G3,733.5,1.0,74,120.0
4899,B-3,733.5,1.0,74,120.0
4900,F4,733.75,0.25,63,120.0
4901,G4,734.0,0.25,65,120.0
4902,G#4,734.25,0.25,66,120.0
4903,B-4,734.5,167/1000,67,120.0
4904,B-2,734.5,0.25,67,120.0
4905,F3,734.5,0.25,67,120.0
4906,B-3,734.5,0.25,67,120.0
4907,C5,734.667,167/1000,68,120.0
4908,D5,734.833,167/1000,68,120.0
4909,E-5,735.0,167/1000,69,120.0
4910,E-3,735.0,1.0,73,120.0
4911,G3,735.0,1.0,73,120.0
4912,B-3,735.0,1.0,73,120.0
4913,F5,735.167,167/1000,70,120.0
4914,G5,735.333,167/1000,71,120.0
4915,G#5,735.5,167/1000,72,120.0
4916,B-5,735.667,167/1000,72,120.0
4917,C6,735.833,167/1000,73,120.0
4918,D6,736.0,0.25,85,120.0
4919,D5,736.25,0.25,67,120.0
4920,E-5,736.5,0.25,62,120.0
4921,E-2,736.5,1.0,76,120.0
4922,E-3,736.5,1.0,76,120.0
4923,F5,736.75,0.25,63,120.0
4924,G5,737.0,0.25,65,120.0
4925,G#5,737.25,0.25,66,120.0
4926,B-5,737.5,167/1000,68,120.0
4927,C6,737.667,167/1000,70,120.0
4928,D6,737.833,167/1000,72,120.0
4929,E-6,738.0,0.25,74,120.0
4930,E-2,738.0,1.0,76,120.0
4931,E-3,738.0,1.0,76,120.0
4932,F6,738.25,0.25,78,120.0
4933,G6,738.5,0.25,82,120.0
4934,G#6,738.75,0.25,86,120.0
4935,B-6,739.0,167/1000,90,120.0
4936,C7,739.167,167/1000,92,120.0
4937,D7,739.333,167/1000,95,120.0
4938,E-7,739.5,1.0,103,120.0
4939,G4,741.0,1.0,80,120.0
4940,B-4,741.0,1.0,80,120.0
4941,E-5,741.0,1.0,80,120.0
4942,E-3,741.0,1.0,36,120.0
4943,G3,741.0,1.0,36,120.0
4944,B-3,741.0,1.0,36,120.0
4945,G3,742.5,1.0,79,120.0
4946,B-3,742.5,1.0,79,120.0
4947,E-4,742.5,1.0,79,120.0
4948,F3,742.5,1.0,30,120.0
4949,G#3,742.5,1.0,30,120.0
4950,B-2,742.5,1.0,30,120.0
4951,B-3,742.5,1.0,30,120.0
4952,B-4,744.0,1.0,70,120.0
4953,E-3,744.0,1.0,36,120.0
4954,B-3,744.0,1.0,36,120.0
4955,G3,744.0,1.0,36,120.0
4956,B-4,745.0,0.5,60,120.0
4957,B-4,745.5,0.5,45,120.0
4958,C3,745.5,0.5,30,120.0
4959,G3,745.5,0.5,30,120.0
4960,C4,745.5,0.5,30,120.0
4961,G4,746.0,0.5,45,120.0
4962,E-4,746.5,0.5,39,120.0
4963,E3,746.5,0.375,30,120.0
4964,G3,746.5,0.375,30,120.0
4965,B-3,746.5,0.375,30,120.0
4966,C4,746.5,0.375,30,120.0
4967,D4,747.0,0.5,45,120.0
4968,G#3,747.0,1.0,36,120.0
4969,F3,747.0,1.0,36,120.0
4970,C4,747.0,1.0,36,120.0
4971,F4,747.5,0.5,40,120.0
4972,B-4,748.0,0.375,40,120.0
4973,B-4,748.5,0.5,45,120.0
4974,D4,748.5,0.5,30,120.0
4975,D3,748.5,0.5,30,120.0
4976,A3,748.5,0.5,30,120.0
4977,G4,749.0,0.5,41,120.0
4978,E-4,749.5,0.5,41,120.0
4979,F#3,749.5,0.375,30,120.0
4980,A3,749.5,0.375,30,120.0
4981,D4,749.5,0.375,30,120.0
4982,E4,750.0,0.5,45,120.0
4983,G3,750.0,1.0,36,120.0
4984,B-3,750.0,1.0,36,120.0
4985,D4,750.0,1.0,36,120.0
4986,G4,750.5,0.5,39,120.0
4987,C5,751.0,0.375,46,120.0
4988,C5,751.5,0.5,50,120.0
4989,F3,751.5,1.0,36,120.0
4990,G#3,751.5,1.0,36,120.0
4991,B-3,751.5,1.0,36,120.0
4992,D4,751.5,1.0,36,120.0
4993,G#4,752.0,0.5,45,120.0
4994,F4,752.5,0.5,45,120.0
4995,F#4,753.0,0.5,49,120.0
4996,B-3,753.0,1.0,34,120.0
4997,G3,753.0,1.0,34,120.0
4998,E-4,753.0,1.0,34,120.0
4999,E-3,753.0,1.0,34,120.0
5000,A4,753.5,0.5,44,120.0
5001,D5,754.0,0.375,47,120.0
5002,D5,754.5,0.5,56,120.0
5003,B-4,755.0,0.5,45,120.0
5004,G4,755.5,0.5,45,120.0
5005,G#4,756.0,0.5,51,120.0
5006,E-4,756.0,0.5,42,120.0
5007,B-4,756.5,0.5,45,120.0
5008,B-3,756.5,0.5,36,120.0
5009,D5,757.0,0.375,45,120.0
5010,G3,757.0,0.375,37,120.0
5011,E-5,757.5,0.5,50,120.0
5012,G3,757.5,0.5,39,120.0
5013,B-4,758.0,0.5,43,120.0
5014,B-3,758.0,0.5,36,120.0
5015,G4,758.5,0.375,43,120.0
5016,E-4,758.5,0.375,36,120.0
5017,G4,759.0,0.5,45,120.0
5018,E-2,759.0,0.5,42,120.0
5019,G2,759.0,0.5,42,120.0
5020,B-4,759.5,0.5,41,120.0
5021,B-2,759.5,0.5,36,120.0
5022,G2,759.5,0.5,36,120.0
5023,E-5,760.0,0.375,41,120.0
5024,B-2,760.0,0.5,36,120.0
5025,E-3,760.0,0.5,36,120.0
5026,G5,760.5,0.5,50,120.0
5027,B-2,760.5,0.5,40,120.0
5028,G2,760.5,0.5,40,120.0
5029,E-5,761.0,0.5,43,120.0
5030,B-2,761.0,0.5,36,120.0
5031,E-3,761.0,0.5,36,120.0
5032,B-4,761.5,0.375,44,120.0
5033,E-3,761.5,0.375,36,120.0
5034,G3,761.5,0.375,36,120.0
5035,B-4,762.0,0.5,47,120.0
5036,B-2,762.0,0.5,46,120.0
5037,E-3,762.0,0.5,46,120.0
5038,E-5,762.5,0.5,43,120.0
5039,G3,762.5,0.5,40,120.0
5040,E-3,762.5,0.5,40,120.0
5041,G5,763.0,0.375,44,120.0
5042,G3,763.0,0.5,40,120.0
5043,B-3,763.0,0.5,40,120.0
5044,G5,763.5,0.5,50,120.0
5045,B-5,763.5,0.5,50,120.0
5046,E-5,764.0,0.5,43,120.0
5047,G5,764.0,0.5,43,120.0
5048,B-2,764.0,0.5,34,120.0
5049,F3,764.0,0.5,34,120.0
5050,E-5,764.5,0.5,44,120.0
5051,B-4,764.5,0.5,44,120.0
5052,B-2,764.5,0.375,32,120.0
5053,B-3,764.5,0.375,32,120.0
5054,G5,765.0,0.5,47,120.0
5055,E-5,765.0,0.5,47,120.0
5056,E-3,765.0,1.0,32,120.0
5057,G3,765.0,1.0,32,120.0
5058,B-3,765.0,1.0,32,120.0
5059,B-4,765.5,0.5,43,120.0
5060,E-5,765.5,0.5,43,120.0
5061,G4,766.0,0.375,44,120.0
5062,B-4,766.0,0.375,44,120.0
5063,B-4,766.5,0.5,55,120.0
5064,E-5,766.5,0.5,55,120.0
5065,G4,767.0,0.5,48,120.0
5066,B-4,767.0,0.5,48,120.0
5067,G4,767.5,0.5,48,120.0
5068,E-4,767.5,0.5,48,120.0
5069,B-4,768.0,0.5,54,120.0
5070,E-3,768.0,1.5,40,120.0
5071,E-4,768.0,0.25,45,120.0
5072,D4,768.25,0.25,39,120.0
5073,E-4,768.5,0.25,39,120.0
5074,C4,768.5,0.5,42,120.0
5075,G#4,768.5,0.5,42,120.0
5076,B-3,768.75,0.25,35,120.0
5077,G3,769.0,0.25,45,120.0
5078,D4,769.0,0.375,40,120.0
5079,F4,769.0,0.375,40,120.0
5080,G#3,769.375,0.125,39,120.0
5081,G3,769.5,0.25,45,120.0
5082,G4,769.5,0.25,54,120.0
5083,E-5,769.5,0.25,54,120.0
5084,D5,769.75,0.25,46,120.0
5085,F#3,769.75,0.25,36,120.0
5086,E-5,770.0,0.25,46,120.0
5087,G3,770.0,0.25,40,120.0
5088,B-4,770.25,0.25,42,120.0
5089,B-3,770.25,0.25,36,120.0
5090,G4,770.5,0.25,54,120.0
5091,E-4,770.5,0.25,47,120.0
5092,G#4,770.875,0.125,47,120.0
5093,G4,771.0,0.25,54,120.0
5094,E-2,771.0,0.25,45,120.0
5095,F#4,771.25,0.25,43,120.0
5096,D2,771.25,0.25,36,120.0
5097,G4,771.5,0.25,48,120.0
5098,E-2,771.5,0.25,41,120.0
5099,B-4,771.75,0.25,43,120.0
5100,G2,771.75,0.25,37,120.0
5101,E-5,772.0,0.25,56,120.0
5102,B-2,772.0,0.5,47,120.0
5103,G4,772.5,1.5,48,120.0
5104,G5,772.5,0.25,54,120.0
5105,G2,772.5,0.25,48,120.0
5106,F#5,772.75,0.25,46,120.0
5107,F2,772.75,0.25,38,120.0
5108,G5,773.0,0.25,46,120.0
5109,G2,773.0,0.25,45,120.0
5110,E-5,773.25,0.25,42,120.0
5111,B-2,773.25,0.25,39,120.0
5112,B-4,773.5,0.25,54,120.0
5113,E-3,773.5,0.5,50,120.0
5114,C5,773.875,0.125,47,120.0
5115,B-4,774.0,0.25,54,120.0
5116,B-2,774.0,0.25,51,120.0
5117,A4,774.25,0.25,43,120.0
5118,A2,774.25,0.25,40,120.0
5119,B-4,774.5,0.25,48,120.0
5120,B-2,774.5,0.25,45,120.0
5121,E-5,774.75,0.25,43,120.0
5122,E-3,774.75,0.25,38,120.0
5123,G5,775.0,0.25,56,120.0
5124,G3,775.0,0.5,47,120.0
5125,B-5,775.5,0.25,50,120.0
5126,G5,775.5,0.25,50,120.0
5127,C6,775.75,0.25,46,120.0
5128,G#5,775.75,0.25,46,120.0
5129,B-5,776.0,0.25,50,120.0
5130,G5,776.0,0.25,50,120.0
5131,B-2,776.0,0.5,34,120.0
5132,F3,776.0,0.5,34,120.0
5133,G5,776.25,0.25,45,120.0
5134,E-5,776.25,0.25,45,120.0
5135,G4,776.5,0.5,52,120.0
5136,E-5,776.5,0.5,52,120.0
5137,B-2,776.5,0.375,32,120.0
5138,B-3,776.5,0.375,32,120.0
5139,G5,777.0,0.25,52,120.0
5140,E-5,777.0,0.25,52,120.0
5141,E-2,777.0,0.5,42,120.0
5142,G2,777.0,0.5,42,120.0
5143,G#5,777.25,0.25,54,120.0
5144,G5,777.5,0.25,54,120.0
5145,E-5,777.5,0.25,54,120.0
5146,B-2,777.5,0.5,36,120.0
5147,G2,777.5,0.5,36,120.0
5148,E-5,777.75,0.25,48,120.0
5149,B-4,777.75,0.25,48,120.0
5150,G4,778.0,0.5,55,120.0
5151,B-4,778.0,0.5,55,120.0
5152,B-2,778.0,0.5,36,120.0
5153,E-3,778.0,0.5,36,120.0
5154,E-5,778.5,0.25,56,120.0
5155,G4,778.5,0.25,56,120.0
5156,B-2,778.5,0.5,40,120.0
5157,G2,778.5,0.5,40,120.0
5158,F5,778.75,0.25,56,120.0
5159,E-5,779.0,0.25,54,120.0
5160,G4,779.0,0.25,54,120.0
5161,B-2,779.0,0.5,36,120.0
5162,E-3,779.0,0.5,36,120.0
5163,B-4,779.25,0.25,47,120.0
5164,G4,779.25,0.25,47,120.0
5165,E-4,779.5,0.5,52,120.0
5166,G4,779.5,0.5,52,120.0
5167,E-3,779.5,479/1000,36,120.0
5168,G3,779.5,479/1000,36,120.0
5169,B-4,780.0,0.5,54,120.0
5170,B-2,780.0,0.5,46,120.0
5171,E-3,780.0,0.5,46,120.0
5172,C4,780.5,0.5,42,120.0
5173,G#4,780.5,0.5,42,120.0
5174,G3,780.5,0.5,40,120.0
5175,E-3,780.5,0.5,40,120.0
5176,D4,781.0,0.375,40,120.0
5177,F4,781.0,0.375,40,120.0
5178,B-2,781.0,62/125,39,120.0
5179,E-3,781.0,62/125,39,120.0
5180,B-3,781.0,62/125,39,120.0
5181,B-2,781.5,62/125,45,120.0
5182,F3,781.5,62/125,45,120.0
5183,B-3,781.5,62/125,45,120.0
5184,G5,781.75,0.5,50,120.0
5185,B-5,781.75,0.5,50,120.0
5186,F3,782.0,62/125,33,120.0
5187,B-2,782.0,62/125,33,120.0
5188,B-3,782.0,62/125,33,120.0
5189,E-5,782.25,62/125,43,120.0
5190,G5,782.25,62/125,43,120.0
5191,G#3,782.5,0.5,34,120.0
5192,B-2,782.5,0.5,34,120.0
5193,B-3,782.5,0.5,34,120.0
5194,E-5,782.75,62/125,44,120.0
5195,B-4,782.75,62/125,44,120.0
5196,B-4,783.0,0.25,80,120.0
5197,G5,783.25,62/125,47,120.0
5198,E-5,783.25,62/125,47,120.0
5199,G4,783.5,0.25,67,120.0
5200,B-4,783.75,62/125,43,120.0
5201,E-5,783.75,62/125,43,120.0
5202,E-4,784.0,0.25,67,120.0
5203,G4,784.25,0.25,44,120.0
5204,B-4,784.25,0.25,44,120.0
5205,G4,784.5,0.25,80,120.0
5206,G4,784.5,123/500,44,120.0
5207,B-4,784.5,123/500,44,120.0
5208,B-4,784.75,62/125,55,120.0
5209,E-5,784.75,62/125,55,120.0
5210,E-4,785.0,0.25,70,120.0
5211,G4,785.25,62/125,48,120.0
5212,B-4,785.25,62/125,48,120.0
5213,B-3,785.5,0.25,70,120.0
5214,G4,785.75,62/125,52,120.0
5215,E-4,786.0,0.25,80,120.0
5216,D4,786.25,62/125,50,120.0
5217,B-4,786.25,62/125,50,120.0
5218,B-3,786.5,0.25,71,120.0
5219,D4,786.75,62/125,42,120.0
5220,G#4,786.75,62/125,42,120.0
5221,G3,787.0,0.25,71,120.0
5222,D4,787.25,0.25,40,120.0
5223,F4,787.25,0.25,40,120.0
5224,B-5,787.5,0.25,80,120.0
5225,B-3,787.5,0.25,80,120.0
5226,B-6,787.75,0.25,63,120.0
5227,G5,788.0,0.25,69,120.0
5228,G#3,788.0,0.25,69,120.0
5229,G6,788.25,0.25,64,120.0
5230,E-5,788.5,0.25,69,120.0
5231,B-2,788.5,0.25,62,120.0
5232,F3,788.5,0.25,62,120.0
5233,E-6,788.75,0.25,64,120.0
5234,G5,789.0,0.25,80,120.0
5235,E-2,789.0,0.25,74,120.0
5236,E-3,789.0,0.25,74,120.0
5237,G6,789.25,0.25,64,120.0
5238,E-5,789.5,0.25,69,120.0
5239,E-3,789.5,0.25,54,120.0
5240,G3,789.5,0.25,54,120.0
5241,B-3,789.5,0.25,54,120.0
5242,E-4,789.5,0.25,54,120.0
5243,E-6,789.75,0.25,64,120.0
5244,B-4,790.0,0.25,69,120.0
5245,E-3,790.0,0.25,54,120.0
5246,G3,790.0,0.25,54,120.0
5247,B-3,790.0,0.25,54,120.0
5248,E-4,790.0,0.25,54,120.0
5249,B-5,790.25,0.25,65,120.0
5250,E-5,790.5,0.25,80,120.0
5251,E-3,790.5,0.25,54,120.0
5252,G3,790.5,0.25,54,120.0
5253,B-3,790.5,0.25,54,120.0
5254,E-4,790.5,0.25,54,120.0
5255,E-6,790.75,0.25,65,120.0
5256,B-4,791.0,0.25,70,120.0
5257,E-3,791.0,0.25,54,120.0
5258,G3,791.0,0.25,54,120.0
5259,B-3,791.0,0.25,54,120.0
5260,E-4,791.0,0.25,54,120.0
5261,B-5,791.25,0.25,65,120.0
5262,G4,791.5,0.25,70,120.0
5263,E-3,791.5,0.25,54,120.0
5264,G3,791.5,0.25,54,120.0
5265,B-3,791.5,0.25,54,120.0
5266,E-4,791.5,0.25,54,120.0
5267,G5,791.75,0.25,66,120.0
5268,B-4,792.0,0.25,80,120.0
5269,E-3,792.0,0.25,63,120.0
5270,G3,792.0,0.25,63,120.0
5271,B-3,792.0,0.25,63,120.0
5272,E-4,792.0,0.25,63,120.0
5273,B-5,792.25,0.25,64,120.0
5274,G#4,792.5,0.25,69,120.0
5275,E-3,792.5,0.25,51,120.0
5276,G3,792.5,0.25,51,120.0
5277,B-3,792.5,0.25,51,120.0
5278,E-4,792.5,0.25,51,120.0
5279,G#5,792.75,0.25,65,120.0
5280,F4,793.0,0.25,69,120.0
5281,E-3,793.0,0.25,52,120.0
5282,G3,793.0,0.25,52,120.0
5283,B-3,793.0,0.25,52,120.0
5284,E-4,793.0,0.25,52,120.0
5285,F5,793.25,0.25,66,120.0
5286,E-4,793.5,0.25,80,120.0
5287,E-3,793.5,0.25,53,120.0
5288,G3,793.5,0.25,53,120.0
5289,B-3,793.5,0.25,53,120.0
5290,E-4,793.5,0.25,53,120.0
5291,E-5,793.75,0.25,65,120.0
5292,G4,794.0,0.25,70,120.0
5293,E-3,794.0,0.25,54,120.0
5294,G3,794.0,0.25,54,120.0
5295,B-3,794.0,0.25,54,120.0
5296,E-4,794.0,0.25,54,120.0
5297,G5,794.25,0.25,66,120.0
5298,G4,794.5,0.25,71,120.0
5299,E-3,794.5,0.25,54,120.0
5300,G3,794.5,0.25,54,120.0
5301,B-3,794.5,0.25,54,120.0
5302,E-4,794.5,0.25,54,120.0
5303,G5,794.75,0.25,67,120.0
5304,G4,795.0,0.25,82,120.0
5305,E-3,795.0,1.0,63,120.0
5306,G3,795.0,1.0,63,120.0
5307,B-3,795.0,1.0,63,120.0
5308,E-4,795.0,1.0,63,120.0
5309,G5,795.25,0.25,66,120.0
5310,B-4,795.5,0.25,72,120.0
5311,B-5,795.75,0.25,68,120.0
5312,B-4,796.0,0.25,73,120.0
5313,B-5,796.25,0.25,69,120.0
5314,B-4,796.5,0.25,85,120.0
5315,B-2,796.5,1.0,62,120.0
5316,B-3,796.5,1.0,62,120.0
5317,B-5,796.75,0.25,70,120.0
5318,E-5,797.0,0.25,75,120.0
5319,E-6,797.25,0.25,70,120.0
5320,E-5,797.5,0.25,76,120.0
5321,E-6,797.75,0.25,72,120.0
5322,E-5,798.0,0.25,88,120.0
5323,E-2,798.0,1.0,68,120.0
5324,E-3,798.0,1.0,68,120.0
5325,E-6,798.25,0.25,77,120.0
5326,G5,798.5,0.25,88,120.0
5327,G6,798.75,0.25,81,120.0
5328,B-5,799.0,0.25,92,120.0
5329,B-6,799.25,0.25,84,120.0
5330,E-6,799.5,1.0,105,120.0
5331,E-7,799.5,1.0,105,120.0
5332,D5,801.0,1.0,78,120.0
5333,G#4,801.0,1.0,78,120.0
5334,F4,801.0,1.0,78,120.0
5335,B-4,801.0,1.0,78,120.0
5336,G4,802.5,1.0,84,120.0
5337,B-4,802.5,1.0,84,120.0
5338,E-5,802.5,1.0,84,120.0
