,note_name,start_time,duration,velocity,tempo
0,D4,2.0,0.75,50,110.97
1,E-4,2.75,0.25,46,110.97
2,F4,3.0,1.938,50,110.97
3,B-2,3.0,0.25,40,110.97
4,B-3,3.5,0.5,29,110.97
5,D4,4.0,0.5,34,110.97
6,B-3,4.5,0.5,29,110.97
7,A4,4.938,0.062,46,110.97
8,G4,5.0,0.25,50,110.97
9,E-4,5.0,0.5,34,110.97
10,F4,5.25,0.25,45,110.97
11,G4,5.5,0.25,50,110.97
12,C4,5.5,0.5,31,110.97
13,A4,5.75,0.25,43,110.97
14,B-4,6.0,1.0,50,110.97
15,D4,6.0,0.5,40,110.97
16,C#4,6.5,0.5,30,110.97
17,F4,7.0,0.875,41,110.97
18,D4,7.0,0.5,34,110.97
19,B-3,7.5,0.5,30,110.97
20,A4,7.938,0.062,43,110.97
21,G4,8.0,0.25,50,110.97
22,E-4,8.0,0.5,34,110.97
23,F4,8.25,0.25,46,110.97
24,G4,8.5,0.25,50,110.97
25,C4,8.5,0.5,29,110.97
26,A4,8.75,0.25,50,110.97
27,B-4,9.0,0.125,50,110.97
28,D4,9.0,0.5,40,110.97
29,C#4,9.5,0.5,30,110.97
30,A4,9.75,0.125,46,110.97
31,B-4,10.0,0.125,56,110.97
32,D4,10.0,0.5,34,110.97
33,A3,10.5,0.5,30,110.97
34,C5,10.75,0.125,48,110.97
35,D5,11.0,0.125,55,110.97
36,B-3,11.0,0.5,34,110.97
37,G3,11.5,479/1000,30,110.97
38,E5,11.75,0.125,59,110.97
39,F3,12.0,1.5,40,110.97
40,B-4,12.0,1.0,58,110.97
41,E5,12.0,1.0,58,110.97
42,F4,13.0,0.5,35,110.97
43,A4,13.0,0.5,52,110.97
44,F5,13.0,0.5,52,110.97
45,F5,13.938,0.062,43,110.97
46,E-5,14.0,0.25,50,110.97
47,D5,14.25,0.25,46,110.97
48,E-5,14.5,0.25,54,110.97
49,F5,14.75,0.25,51,110.97
50,G5,15.0,1.0,59,110.97
51,F3,15.5,2.5,36,110.97
52,C5,16.0,0.875,50,110.97
53,A3,16.0,0.5,40,110.97
54,C4,16.5,0.5,37,110.97
55,D5,16.938,0.062,43,110.97
56,C5,17.0,0.25,50,110.97
57,E-4,17.0,1.0,40,110.97
58,B4,17.25,0.25,46,110.97
59,C5,17.5,0.25,54,110.97
60,D5,17.75,0.25,51,110.97
61,E-5,18.0,1.0,59,110.97
62,F3,18.0,0.5,36,110.97
63,E-4,18.0,0.5,40,110.97
64,F3,18.5,2.5,42,110.97
65,A4,19.0,0.875,50,110.97
66,C4,19.0,0.5,48,110.97
67,E-4,19.5,0.5,41,110.97
68,B-4,19.938,0.062,43,110.97
69,A4,20.0,0.25,50,110.97
70,F#4,20.0,1.0,55,110.97
71,G4,20.25,0.25,46,110.97
72,A4,20.5,0.25,52,110.97
73,B-4,20.75,167/1000,48,110.97
74,D5,20.938,0.062,43,110.97
75,C5,21.0,0.25,53,110.97
76,F3,21.0,1.0,42,110.97
77,F#4,21.0,1.0,55,110.97
78,B4,21.25,0.25,50,110.97
79,C5,21.5,0.25,54,110.97
80,D5,21.75,167/1000,51,110.97
81,F5,21.938,0.062,43,110.97
82,E-5,22.0,0.25,57,110.97
83,F4,22.0,1.0,38,110.97
84,F3,22.0,1.0,38,110.97
85,D5,22.25,0.25,52,110.97
86,E-5,22.5,0.25,58,110.97
87,F5,22.75,0.25,55,110.97
88,G5,23.0,0.125,64,110.97
89,F3,23.0,1.0,32,110.97
90,E-4,23.0,1.0,32,110.97
91,A4,23.75,0.25,42,110.97
92,C5,24.0,1.0,50,110.97
93,B-3,24.0,1.5,30,110.97
94,E-4,24.0,1.0,36,110.97
95,B-4,25.0,0.5,44,110.97
96,D4,25.0,0.5,32,110.97
97,D4,26.0,0.75,50,110.97
98,E-4,26.75,0.25,46,110.97
99,F4,27.0,1.938,50,110.97
100,B-2,27.0,0.25,40,110.97
101,B-3,27.5,0.5,29,110.97
102,D4,28.0,0.5,34,110.97
103,B-3,28.5,0.5,29,110.97
104,A4,28.938,0.062,46,110.97
105,G4,29.0,0.25,50,110.97
106,E-4,29.0,0.5,34,110.97
107,F4,29.25,0.25,45,110.97
108,G4,29.5,0.25,50,110.97
109,C4,29.5,0.5,31,110.97
110,A4,29.75,0.25,43,110.97
111,B-4,30.0,1.0,50,110.97
112,D4,30.0,0.5,40,110.97
113,C#4,30.5,0.5,30,110.97
114,F4,31.0,0.875,41,110.97
115,D4,31.0,0.5,34,110.97
116,B-3,31.5,0.5,30,110.97
117,A4,31.938,0.062,43,110.97
118,G4,32.0,0.25,50,110.97
119,E-4,32.0,0.5,34,110.97
120,F4,32.25,0.25,46,110.97
121,G4,32.5,0.25,50,110.97
122,C4,32.5,0.5,29,110.97
123,A4,32.75,0.25,50,110.97
124,B-4,33.0,0.125,50,110.97
125,D4,33.0,0.5,40,110.97
126,C#4,33.5,0.5,30,110.97
127,A4,33.75,0.125,46,110.97
128,B-4,34.0,0.125,56,110.97
129,D4,34.0,0.5,34,110.97
130,A3,34.5,0.5,30,110.97
131,C5,34.75,0.125,48,110.97
132,D5,35.0,0.125,55,110.97
133,B-3,35.0,0.5,34,110.97
134,G3,35.5,479/1000,30,110.97
135,E5,35.75,0.125,59,110.97
136,F3,36.0,1.5,40,110.97
137,B-4,36.0,1.0,58,110.97
138,E5,36.0,1.0,58,110.97
139,F4,37.0,0.5,35,110.97
140,A4,37.0,0.5,52,110.97
141,F5,37.0,0.5,52,110.97
142,F5,37.938,0.062,43,110.97
143,E-5,38.0,0.25,50,110.97
144,D5,38.25,0.25,46,110.97
145,E-5,38.5,0.25,54,110.97
146,F5,38.75,0.25,51,110.97
147,G5,39.0,1.0,59,110.97
148,F3,39.5,2.5,36,110.97
149,C5,40.0,0.875,50,110.97
150,A3,40.0,0.5,40,110.97
151,C4,40.5,0.5,37,110.97
152,D5,40.938,0.062,43,110.97
153,C5,41.0,0.25,50,110.97
154,E-4,41.0,1.0,40,110.97
155,B4,41.25,0.25,46,110.97
156,C5,41.5,0.25,54,110.97
157,D5,41.75,0.25,51,110.97
158,E-5,42.0,1.0,59,110.97
159,F3,42.0,0.5,36,110.97
160,E-4,42.0,0.5,40,110.97
161,F3,42.5,2.5,42,110.97
162,A4,43.0,0.875,50,110.97
163,C4,43.0,0.5,48,110.97
164,E-4,43.5,0.5,41,110.97
165,B-4,43.938,0.062,43,110.97
166,A4,44.0,0.25,50,110.97
167,F#4,44.0,1.0,55,110.97
168,G4,44.25,0.25,46,110.97
169,A4,44.5,0.25,52,110.97
170,B-4,44.75,167/1000,48,110.97
171,D5,44.938,0.062,43,110.97
172,C5,45.0,0.25,53,110.97
173,F3,45.0,1.0,42,110.97
174,F#4,45.0,1.0,55,110.97
175,B4,45.25,0.25,50,110.97
176,C5,45.5,0.25,54,110.97
177,D5,45.75,167/1000,51,110.97
178,F5,45.938,0.062,43,110.97
179,E-5,46.0,0.25,57,110.97
180,F4,46.0,1.0,38,110.97
181,F3,46.0,1.0,38,110.97
182,D5,46.25,0.25,52,110.97
183,E-5,46.5,0.25,58,110.97
184,F5,46.75,0.25,55,110.97
185,G5,47.0,0.125,64,110.97
186,F3,47.0,1.0,32,110.97
187,E-4,47.0,1.0,32,110.97
188,A4,47.75,0.25,42,110.97
189,C5,48.0,1.0,50,110.97
190,B-3,48.0,1.5,30,110.97
191,E-4,48.0,1.0,36,110.97
192,B-4,49.0,0.5,44,110.97
193,D4,49.0,0.5,32,110.97
194,F#4,50.0,0.25,38,110.97
195,A4,50.0,0.25,42,110.97
196,D5,50.0,0.25,42,110.97
197,G4,50.25,0.25,33,110.97
198,B-4,50.25,0.25,38,110.97
199,C#5,50.25,0.25,38,110.97
200,F#4,50.5,0.25,42,110.97
201,A4,50.5,0.25,46,110.97
202,D5,50.5,0.25,46,110.97
203,G4,50.75,0.25,38,110.97
204,B-4,50.75,0.25,37,110.97
205,C#5,50.75,0.25,37,110.97
206,F#4,51.0,0.25,45,110.97
207,A4,51.0,0.25,50,110.97
208,D5,51.0,0.25,50,110.97
209,G4,51.25,0.25,39,110.97
210,B-4,51.25,0.25,44,110.97
211,C#5,51.25,0.25,44,110.97
212,F#4,51.5,0.25,49,110.97
213,A4,51.5,0.25,53,110.97
214,D5,51.5,0.25,53,110.97
215,G4,51.75,0.25,45,110.97
216,B-4,51.75,0.25,43,110.97
217,C#5,51.75,0.25,43,110.97
218,F#4,52.0,0.25,52,110.97
219,A4,52.0,0.25,57,110.97
220,D5,52.0,0.25,57,110.97
221,G4,52.25,0.25,45,110.97
222,B-4,52.25,0.25,52,110.97
223,C#5,52.25,0.25,52,110.97
224,F#4,52.5,0.25,55,110.97
225,A4,52.5,0.25,60,110.97
226,D5,52.5,0.25,60,110.97
227,G4,52.75,0.25,52,110.97
228,B-4,52.75,0.25,50,110.97
229,C#5,52.75,0.25,50,110.97
230,F#4,53.0,0.25,59,110.97
231,A4,53.0,0.25,65,110.97
232,D5,53.0,0.25,65,110.97
233,G4,53.25,0.25,52,110.97
234,B-4,53.25,0.25,58,110.97
235,C#5,53.25,0.25,58,110.97
236,F#4,53.5,0.25,63,110.97
237,A4,53.5,0.25,69,110.97
238,D5,53.5,0.25,69,110.97
239,G4,53.75,0.25,58,110.97
240,B-4,53.75,0.25,57,110.97
241,C#5,53.75,0.25,57,110.97
242,F#4,54.0,0.5,70,110.97
243,A4,54.0,0.5,83,110.97
244,D5,54.0,0.5,83,110.97
245,D6,55.0,1.5,92,110.97
246,F#5,55.0,1.5,92,110.97
247,D3,55.0,1.5,68,110.97
248,D4,55.0,1.5,68,110.97
249,C6,56.5,0.25,69,110.97
250,F#5,56.5,0.25,69,110.97
251,D3,56.5,0.25,51,110.97
252,D4,56.5,0.25,51,110.97
253,B-5,57.0,0.5,84,110.97
254,G5,57.0,0.5,84,110.97
255,E-3,57.0,0.5,62,110.97
256,E-4,57.0,0.5,62,110.97
257,A5,57.75,0.125,67,110.97
258,E-5,57.75,0.125,67,110.97
259,C3,57.75,0.125,49,110.97
260,C4,57.75,0.125,49,110.97
261,B-4,58.0,0.5,78,110.97
262,G5,58.0,0.5,78,110.97
263,D3,58.0,0.5,58,110.97
264,D4,58.0,0.5,58,110.97
265,C5,59.0,0.5,75,110.97
266,F#5,59.0,0.5,75,110.97
267,D2,59.0,0.5,56,110.97
268,D3,59.0,0.5,56,110.97
269,C5,60.0,1.0,76,110.97
270,A5,60.0,1.0,76,110.97
271,G2,60.0,1.5,56,110.97
272,G3,60.0,1.5,56,110.97
273,B-4,61.0,0.5,66,110.97
274,G5,61.0,0.5,66,110.97
275,D3,62.0,63/250,25,110.97
276,G#3,62.0,63/250,28,110.97
277,B-3,62.0,63/250,28,110.97
278,B3,62.25,63/250,27,110.97
279,E-3,62.25,63/250,22,110.97
280,D3,62.5,63/250,27,110.97
281,G#3,62.5,63/250,30,110.97
282,B-3,62.5,63/250,30,110.97
283,B3,62.75,0.25,26,110.97
284,E-3,62.75,0.25,24,110.97
285,B3,63.0,1/500,26,110.97
286,D3,63.0,63/250,28,110.97
287,E-3,63.0,1/500,24,110.97
288,G#3,63.0,63/250,31,110.97
289,B-3,63.0,63/250,31,110.97
290,B3,63.25,63/250,30,110.97
291,E-3,63.25,63/250,24,110.97
292,D3,63.5,63/250,30,110.97
293,G#3,63.5,63/250,33,110.97
294,B-3,63.5,63/250,33,110.97
295,B3,63.75,63/250,29,110.97
296,E-3,63.75,63/250,28,110.97
297,D3,64.0,63/250,33,110.97
298,G#3,64.0,63/250,36,110.97
299,B-3,64.0,63/250,36,110.97
300,B3,64.25,63/250,36,110.97
301,E-3,64.25,63/250,29,110.97
302,D3,64.5,63/250,36,110.97
303,G#3,64.5,63/250,39,110.97
304,B-3,64.5,63/250,39,110.97
305,B3,64.75,63/250,34,110.97
306,E-3,64.75,63/250,33,110.97
307,D3,65.0,63/250,38,110.97
308,G#3,65.0,63/250,42,110.97
309,B-3,65.0,63/250,42,110.97
310,B3,65.25,63/250,41,110.97
311,E-3,65.25,63/250,33,110.97
312,D3,65.5,63/250,40,110.97
313,G#3,65.5,63/250,44,110.97
314,B-3,65.5,63/250,44,110.97
315,B3,65.75,0.25,40,110.97
316,E-3,65.75,0.25,38,110.97
317,B3,66.0,1/500,40,110.97
318,D3,66.0,0.5,54,110.97
319,E-3,66.0,1/500,38,110.97
320,G#3,66.0,0.5,65,110.97
321,B-3,66.0,0.5,65,110.97
322,G#5,67.0,1.5,78,110.97
323,B4,67.0,1.5,78,110.97
324,D3,67.0,1.5,58,110.97
325,F3,67.0,1.5,58,110.97
326,G5,68.5,0.5,54,110.97
327,C5,68.5,0.5,54,110.97
328,E-3,68.5,0.5,40,110.97
329,G3,68.5,0.5,40,110.97
330,F5,69.0,0.75,64,110.97
331,G#4,69.0,0.75,64,110.97
332,B2,69.0,0.75,47,110.97
333,D3,69.0,0.75,47,110.97
334,E-5,69.75,0.25,49,110.97
335,G4,69.75,0.25,49,110.97
336,C3,69.75,0.25,36,110.97
337,E-3,69.75,0.25,36,110.97
338,F4,70.0,1.0,56,110.97
339,D5,70.0,1.0,56,110.97
340,D3,70.0,1.0,42,110.97
341,F3,70.0,1.0,42,110.97
342,E-4,71.0,1.0,50,110.97
343,C5,71.0,1.0,50,110.97
344,E-3,71.0,1.0,38,110.97
345,G3,71.0,1.0,38,110.97
346,F3,72.0,1.0,36,110.97
347,D4,72.0,1.0,44,110.97
348,B-4,72.0,1.0,44,110.97
349,F2,73.0,0.5,30,110.97
350,C4,73.0,0.5,39,110.97
351,A4,73.0,0.5,39,110.97
352,D4,74.0,0.75,50,110.97
353,E-4,74.75,0.25,46,110.97
354,F4,75.0,1.938,50,110.97
355,B-2,75.0,0.25,40,110.97
356,B-3,75.5,0.5,29,110.97
357,D4,76.0,0.5,34,110.97
358,B-3,76.5,0.5,29,110.97
359,A4,76.938,0.062,46,110.97
360,G4,77.0,0.25,50,110.97
361,E-4,77.0,0.5,34,110.97
362,F4,77.25,0.25,45,110.97
363,G4,77.5,0.25,50,110.97
364,C4,77.5,0.5,31,110.97
365,A4,77.75,0.25,43,110.97
366,B-4,78.0,1.0,50,110.97
367,D4,78.0,0.5,40,110.97
368,C#4,78.5,0.5,30,110.97
369,F4,79.0,0.875,41,110.97
370,D4,79.0,0.5,34,110.97
371,B-3,79.5,0.5,30,110.97
372,A4,79.938,0.062,43,110.97
373,G4,80.0,0.25,50,110.97
374,E-4,80.0,0.5,34,110.97
375,F4,80.25,0.25,46,110.97
376,G4,80.5,0.25,50,110.97
377,C4,80.5,0.5,29,110.97
378,A4,80.75,0.25,50,110.97
379,B-4,81.0,0.125,50,110.97
380,D4,81.0,0.5,40,110.97
381,C#4,81.5,0.5,30,110.97
382,A4,81.75,0.125,46,110.97
383,B-4,82.0,0.125,56,110.97
384,D4,82.0,0.5,34,110.97
385,A3,82.5,0.5,30,110.97
386,C5,82.75,0.125,48,110.97
387,D5,83.0,0.125,55,110.97
388,B-3,83.0,0.5,34,110.97
389,G3,83.5,479/1000,30,110.97
390,E5,83.75,0.125,59,110.97
391,F3,84.0,1.5,40,110.97
392,B-4,84.0,1.0,58,110.97
393,E5,84.0,1.0,58,110.97
394,F4,85.0,0.5,35,110.97
395,A4,85.0,0.5,52,110.97
396,F5,85.0,0.5,52,110.97
397,F5,85.938,0.062,43,110.97
398,E-5,86.0,0.25,50,110.97
399,D5,86.25,0.25,46,110.97
400,E-5,86.5,0.25,54,110.97
401,F5,86.75,0.25,51,110.97
402,G5,87.0,1.0,59,110.97
403,F2,87.25,0.25,37,110.97
404,A2,87.5,0.25,38,110.97
405,C3,87.75,0.25,39,110.97
406,C5,88.0,0.875,50,110.97
407,F3,88.0,0.25,40,110.97
408,A3,88.25,0.25,41,110.97
409,C4,88.5,0.25,42,110.97
410,D4,88.75,0.25,43,110.97
411,D5,88.938,0.062,43,110.97
412,C5,89.0,0.25,50,110.97
413,E-4,89.0,1.0,48,110.97
414,B4,89.25,0.25,46,110.97
415,C5,89.5,0.25,54,110.97
416,D5,89.75,0.25,51,110.97
417,E-5,90.0,1.0,59,110.97
418,E-4,90.0,0.25,48,110.97
419,F2,90.25,0.25,37,110.97
420,A2,90.5,0.25,41,110.97
421,C3,90.75,0.25,43,110.97
422,A4,91.0,0.875,50,110.97
423,F3,91.0,0.25,44,110.97
424,A3,91.25,0.25,46,110.97
425,C4,91.5,0.25,48,110.97
426,E-4,91.75,0.25,49,110.97
427,B-4,91.938,0.062,43,110.97
428,A4,92.0,0.25,50,110.97
429,F#4,92.0,1.0,55,110.97
430,G4,92.25,0.25,46,110.97
431,A4,92.5,0.25,52,110.97
432,B-4,92.75,167/1000,48,110.97
433,D5,92.938,0.062,43,110.97
434,C5,93.0,0.25,53,110.97
435,F#4,93.0,1.0,55,110.97
436,B4,93.25,0.25,50,110.97
437,C5,93.5,0.25,54,110.97
438,D5,93.75,167/1000,51,110.97
439,F5,93.938,0.062,43,110.97
440,E-5,94.0,0.25,57,110.97
441,F4,94.0,1.0,38,110.97
442,F3,94.0,1.0,38,110.97
443,D5,94.25,0.25,52,110.97
444,E-5,94.5,0.25,58,110.97
445,F5,94.75,0.25,55,110.97
446,G5,95.0,0.25,61,110.97
447,F3,95.0,1.0,32,110.97
448,E-4,95.0,1.0,32,110.97
449,E-5,95.25,0.25,59,110.97
450,C5,95.5,0.25,52,110.97
451,A4,95.75,0.25,42,110.97
452,B-4,96.0,1.0,50,110.97
453,B-2,96.0,0.25,40,110.97
454,B-3,96.5,0.5,29,110.97
455,D4,97.0,0.5,34,110.97
456,B-3,97.5,0.5,29,110.97
457,A5,97.938,0.062,46,110.97
458,G5,98.0,0.25,50,110.97
459,E-4,98.0,0.5,34,110.97
460,F#5,98.25,0.25,45,110.97
461,G5,98.5,0.25,50,110.97
462,B-3,98.5,0.5,31,110.97
463,A5,98.75,0.25,43,110.97
464,B-5,99.0,1.0,50,110.97
465,D4,99.0,0.5,40,110.97
466,C#4,99.5,0.5,30,110.97
467,F5,100.0,0.875,41,110.97
468,D4,100.0,0.5,34,110.97
469,B-3,100.5,0.5,30,110.97
470,A4,100.938,0.062,43,110.97
471,E-5,101.0,1.0,41,110.97
472,G4,101.0,0.25,50,110.97
473,C4,101.0,0.5,34,110.97
474,F4,101.25,0.25,46,110.97
475,G4,101.5,0.25,50,110.97
476,F3,101.5,0.5,29,110.97
477,A4,101.75,0.25,46,110.97
478,B-3,102.0,0.5,40,110.97
479,D5,102.0,1.0,47,110.97
480,B-4,102.0,1.0,47,110.97
481,B-2,102.5,0.5,30,110.97
482,F4,103.0,0.5,41,110.97
483,D3,103.0,0.5,34,110.97
484,B-2,103.5,0.5,30,110.97
485,A4,103.938,0.062,43,110.97
486,G4,104.0,0.25,50,110.97
487,E-3,104.0,0.5,34,110.97
488,F#4,104.25,0.25,46,110.97
489,G4,104.5,0.25,50,110.97
490,B-2,104.5,0.5,29,110.97
491,A4,104.75,0.25,46,110.97
492,B-4,105.0,1.0,50,110.97
493,D3,105.0,0.5,40,110.97
494,C#3,105.5,0.5,30,110.97
495,F4,106.0,0.875,41,110.97
496,D3,106.0,0.5,34,110.97
497,B-2,106.5,0.5,30,110.97
498,A3,106.938,0.062,36,110.97
499,E-4,107.0,1.0,34,110.97
500,G3,107.0,0.25,42,110.97
501,C3,107.0,0.5,34,110.97
502,F3,107.25,0.25,39,110.97
503,G3,107.5,0.25,42,110.97
504,F2,107.5,0.5,29,110.97
505,A3,107.75,0.25,39,110.97
506,D4,108.0,1.0,34,110.97
507,B-3,108.0,0.5,42,110.97
508,B-2,108.0,0.5,40,110.97
509,F3,108.5,417/1000,33,110.97
510,D3,108.5,0.5,30,110.97
511,A3,108.938,0.062,37,110.97
512,E-4,109.0,1.0,39,110.97
513,G3,109.0,0.25,43,110.97
514,C3,109.0,0.5,35,110.97
515,F3,109.25,0.25,40,110.97
516,G3,109.5,0.25,44,110.97
517,F2,109.5,0.5,31,110.97
518,A3,109.75,0.25,40,110.97
519,D4,110.0,1.0,36,110.97
520,B-3,110.0,0.5,44,110.97
521,B-2,110.0,0.5,36,110.97
522,F3,110.5,0.375,34,110.97
523,D3,110.5,0.5,31,110.97
524,A3,110.938,0.062,39,110.97
525,E-4,111.0,1.0,44,110.97
526,G3,111.0,0.25,46,110.97
527,C3,111.0,0.5,44,110.97
528,F3,111.25,0.25,43,110.97
529,G3,111.5,0.25,47,110.97
530,F2,111.5,0.5,33,110.97
531,A3,111.75,0.25,44,110.97
532,D4,112.0,0.5,42,110.97
533,B-3,112.0,0.25,48,110.97
534,B-2,112.0,0.25,45,110.97
535,F3,112.25,0.25,41,110.97
536,D3,112.25,0.25,37,110.97
537,E-4,112.5,0.5,40,110.97
538,A3,112.5,0.25,50,110.97
539,F2,112.5,0.25,46,110.97
540,F3,112.75,0.25,43,110.97
541,C3,112.75,0.25,39,110.97
542,D4,113.0,0.5,49,110.97
543,B-3,113.0,0.25,51,110.97
544,B-2,113.0,0.25,47,110.97
545,F3,113.25,0.25,46,110.97
546,D3,113.25,0.25,41,110.97
547,E-4,113.5,0.5,42,110.97
548,A3,113.5,0.25,52,110.97
549,F2,113.5,0.25,49,110.97
550,F3,113.75,0.25,47,110.97
551,C3,113.75,0.25,43,110.97
552,B-3,114.0,0.25,37,110.97
553,D4,114.0,0.25,37,110.97
554,B-2,114.0,0.25,27,110.97
555,D3,114.0,0.25,27,110.97
556,D4,115.0,0.25,37,110.97
557,B-4,115.0,0.25,37,110.97
558,B-1,115.0,0.25,27,110.97
559,B-2,115.0,0.25,27,110.97
560,F#4,116.0,0.25,38,110.97
561,A4,116.0,0.25,42,110.97
562,D5,116.0,0.25,42,110.97
563,G4,116.25,0.25,33,110.97
564,B-4,116.25,0.25,38,110.97
565,C#5,116.25,0.25,38,110.97
566,F#4,116.5,0.25,42,110.97
567,A4,116.5,0.25,46,110.97
568,D5,116.5,0.25,46,110.97
569,G4,116.75,0.25,38,110.97
570,B-4,116.75,0.25,37,110.97
571,C#5,116.75,0.25,37,110.97
572,F#4,117.0,0.25,45,110.97
573,A4,117.0,0.25,49,110.97
574,D5,117.0,0.25,49,110.97
575,G4,117.25,0.25,39,110.97
576,B-4,117.25,0.25,44,110.97
577,C#5,117.25,0.25,44,110.97
578,F#4,117.5,0.25,48,110.97
579,A4,117.5,0.25,52,110.97
580,D5,117.5,0.25,52,110.97
581,G4,117.75,0.25,45,110.97
582,B-4,117.75,0.25,43,110.97
583,C#5,117.75,0.25,43,110.97
584,F#4,118.0,0.25,52,110.97
585,A4,118.0,0.25,57,110.97
586,D5,118.0,0.25,57,110.97
587,G4,118.25,0.25,45,110.97
588,B-4,118.25,0.25,52,110.97
589,C#5,118.25,0.25,52,110.97
590,F#4,118.5,0.25,55,110.97
591,A4,118.5,0.25,60,110.97
592,D5,118.5,0.25,60,110.97
593,G4,118.75,0.25,52,110.97
594,B-4,118.75,0.25,50,110.97
595,C#5,118.75,0.25,50,110.97
596,F#4,119.0,0.25,59,110.97
597,A4,119.0,0.25,65,110.97
598,D5,119.0,0.25,65,110.97
599,G4,119.25,0.25,51,110.97
600,B-4,119.25,0.25,58,110.97
601,C#5,119.25,0.25,58,110.97
602,F#4,119.5,0.25,63,110.97
603,A4,119.5,0.25,69,110.97
604,D5,119.5,0.25,69,110.97
605,G4,119.75,0.25,58,110.97
606,B-4,119.75,0.25,56,110.97
607,C#5,119.75,0.25,56,110.97
608,F#4,120.0,0.5,70,110.97
609,A4,120.0,0.5,83,110.97
610,D5,120.0,0.5,83,110.97
611,D6,121.0,1.5,92,110.97
612,F#5,121.0,1.5,92,110.97
613,D3,121.0,1.5,68,110.97
614,D4,121.0,1.5,68,110.97
615,C6,122.5,0.25,69,110.97
616,F#5,122.5,0.25,69,110.97
617,D3,122.5,0.25,51,110.97
618,D4,122.5,0.25,51,110.97
619,B-5,123.0,0.5,84,110.97
620,G5,123.0,0.5,84,110.97
621,E-3,123.0,0.5,62,110.97
622,E-4,123.0,0.5,62,110.97
623,A5,123.75,0.125,67,110.97
624,E-5,123.75,0.125,67,110.97
625,C3,123.75,0.125,49,110.97
626,C4,123.75,0.125,49,110.97
627,B-4,124.0,0.5,78,110.97
628,G5,124.0,0.5,78,110.97
629,D3,124.0,0.5,58,110.97
630,D4,124.0,0.5,58,110.97
631,C5,125.0,0.5,75,110.97
632,F#5,125.0,0.5,75,110.97
633,D2,125.0,0.5,56,110.97
634,D3,125.0,0.5,56,110.97
635,C5,126.0,1.0,76,110.97
636,A5,126.0,1.0,76,110.97
637,G2,126.0,1.5,56,110.97
638,G3,126.0,1.5,56,110.97
639,B-4,127.0,0.5,66,110.97
640,G5,127.0,0.5,66,110.97
641,D3,128.0,63/250,25,110.97
642,G#3,128.0,63/250,28,110.97
643,B-3,128.0,63/250,28,110.97
644,B3,128.25,63/250,27,110.97
645,E-3,128.25,63/250,22,110.97
646,D3,128.5,63/250,27,110.97
647,G#3,128.5,63/250,30,110.97
648,B-3,128.5,63/250,30,110.97
649,B3,128.75,0.25,27,110.97
650,E-3,128.75,0.25,24,110.97
651,B3,129.0,1/500,27,110.97
652,D3,129.0,63/250,29,110.97
653,E-3,129.0,1/500,24,110.97
654,G#3,129.0,63/250,32,110.97
655,B-3,129.0,63/250,32,110.97
656,B3,129.25,63/250,32,110.97
657,E-3,129.25,63/250,25,110.97
658,D3,129.5,63/250,32,110.97
659,G#3,129.5,63/250,34,110.97
660,B-3,129.5,63/250,34,110.97
661,B3,129.75,63/250,30,110.97
662,E-3,129.75,63/250,29,110.97
663,D3,130.0,63/250,34,110.97
664,G#3,130.0,63/250,38,110.97
665,B-3,130.0,63/250,38,110.97
666,B3,130.25,63/250,38,110.97
667,E-3,130.25,63/250,30,110.97
668,D3,130.5,63/250,37,110.97
669,G#3,130.5,63/250,40,110.97
670,B-3,130.5,63/250,40,110.97
671,B3,130.75,63/250,35,110.97
672,E-3,130.75,63/250,34,110.97
673,D3,131.0,63/250,39,110.97
674,G#3,131.0,63/250,42,110.97
675,B-3,131.0,63/250,42,110.97
676,B3,131.25,63/250,42,110.97
677,E-3,131.25,63/250,34,110.97
678,D3,131.5,63/250,42,110.97
679,G#3,131.5,63/250,46,110.97
680,B-3,131.5,63/250,46,110.97
681,B3,131.75,0.25,41,110.97
682,E-3,131.75,0.25,38,110.97
683,B3,132.0,1/500,41,110.97
684,D3,132.0,0.5,54,110.97
685,E-3,132.0,1/500,38,110.97
686,G#3,132.0,0.5,65,110.97
687,B-3,132.0,0.5,65,110.97
688,G#5,133.0,1.5,78,110.97
689,B4,133.0,1.5,78,110.97
690,D3,133.0,1.5,58,110.97
691,F3,133.0,1.5,58,110.97
692,G5,134.5,0.5,54,110.97
693,C5,134.5,0.5,54,110.97
694,E-3,134.5,0.5,40,110.97
695,G3,134.5,0.5,40,110.97
696,F5,135.0,0.75,64,110.97
697,G#4,135.0,0.75,64,110.97
698,B2,135.0,0.75,47,110.97
699,D3,135.0,0.75,47,110.97
700,E-5,135.75,0.25,49,110.97
701,G4,135.75,0.25,49,110.97
702,C3,135.75,0.25,36,110.97
703,E-3,135.75,0.25,36,110.97
704,F4,136.0,1.0,56,110.97
705,D5,136.0,1.0,56,110.97
706,D3,136.0,1.0,42,110.97
707,F3,136.0,1.0,42,110.97
708,E-4,137.0,1.0,50,110.97
709,C5,137.0,1.0,50,110.97
710,E-3,137.0,1.0,38,110.97
711,G3,137.0,1.0,38,110.97
712,F3,138.0,1.0,36,110.97
713,D4,138.0,1.0,44,110.97
714,B-4,138.0,1.0,44,110.97
715,F2,139.0,0.5,30,110.97
716,C4,139.0,0.5,39,110.97
717,A4,139.0,0.5,39,110.97
718,D4,140.0,0.75,50,110.97
719,E-4,140.75,0.25,46,110.97
720,F4,141.0,1.938,50,110.97
721,B-2,141.0,0.25,40,110.97
722,B-3,141.5,0.5,29,110.97
723,D4,142.0,0.5,34,110.97
724,B-3,142.5,0.5,29,110.97
725,A4,142.938,0.062,46,110.97
726,G4,143.0,0.25,50,110.97
727,E-4,143.0,0.5,34,110.97
728,F4,143.25,0.25,45,110.97
729,G4,143.5,0.25,50,110.97
730,C4,143.5,0.5,31,110.97
731,A4,143.75,0.25,43,110.97
732,B-4,144.0,1.0,50,110.97
733,D4,144.0,0.5,40,110.97
734,C#4,144.5,0.5,30,110.97
735,F4,145.0,0.875,41,110.97
736,D4,145.0,0.5,34,110.97
737,B-3,145.5,0.5,30,110.97
738,A4,145.938,0.062,43,110.97
739,G4,146.0,0.25,50,110.97
740,E-4,146.0,0.5,34,110.97
741,F4,146.25,0.25,46,110.97
742,G4,146.5,0.25,50,110.97
743,C4,146.5,0.5,29,110.97
744,A4,146.75,0.25,50,110.97
745,B-4,147.0,0.125,50,110.97
746,D4,147.0,0.5,40,110.97
747,C#4,147.5,0.5,30,110.97
748,A4,147.75,0.125,46,110.97
749,B-4,148.0,0.125,56,110.97
750,D4,148.0,0.5,34,110.97
751,A3,148.5,0.5,30,110.97
752,C5,148.75,0.125,48,110.97
753,D5,149.0,0.125,55,110.97
754,B-3,149.0,0.5,34,110.97
755,G3,149.5,479/1000,30,110.97
756,E5,149.75,0.125,59,110.97
757,F3,150.0,1.5,40,110.97
758,B-4,150.0,1.0,58,110.97
759,E5,150.0,1.0,58,110.97
760,F4,151.0,0.5,35,110.97
761,A4,151.0,0.5,52,110.97
762,F5,151.0,0.5,52,110.97
763,F5,151.938,0.062,43,110.97
764,E-5,152.0,0.25,50,110.97
765,D5,152.25,0.25,46,110.97
766,E-5,152.5,0.25,54,110.97
767,F5,152.75,0.25,51,110.97
768,G5,153.0,1.0,59,110.97
769,F2,153.25,0.25,37,110.97
770,A2,153.5,0.25,38,110.97
771,C3,153.75,0.25,39,110.97
772,C5,154.0,0.875,50,110.97
773,F3,154.0,0.25,40,110.97
774,A3,154.25,0.25,41,110.97
775,C4,154.5,0.25,42,110.97
776,D4,154.75,0.25,43,110.97
777,D5,154.938,0.062,43,110.97
778,C5,155.0,0.25,50,110.97
779,E-4,155.0,1.0,48,110.97
780,B4,155.25,0.25,46,110.97
781,C5,155.5,0.25,54,110.97
782,D5,155.75,0.25,51,110.97
783,E-5,156.0,1.0,59,110.97
784,E-4,156.0,0.25,48,110.97
785,F2,156.25,0.25,37,110.97
786,A2,156.5,0.25,41,110.97
787,C3,156.75,0.25,43,110.97
788,A4,157.0,0.875,50,110.97
789,F3,157.0,0.25,44,110.97
790,A3,157.25,0.25,46,110.97
791,C4,157.5,0.25,48,110.97
792,E-4,157.75,0.25,49,110.97
793,B-4,157.938,0.062,43,110.97
794,A4,158.0,0.25,50,110.97
795,F#4,158.0,1.0,55,110.97
796,G4,158.25,0.25,46,110.97
797,A4,158.5,0.25,52,110.97
798,B-4,158.75,167/1000,48,110.97
799,D5,158.938,0.062,43,110.97
800,C5,159.0,0.25,53,110.97
801,F#4,159.0,1.0,55,110.97
802,B4,159.25,0.25,50,110.97
803,C5,159.5,0.25,54,110.97
804,D5,159.75,167/1000,51,110.97
805,F5,159.938,0.062,43,110.97
806,E-5,160.0,0.25,57,110.97
807,F4,160.0,1.0,38,110.97
808,F3,160.0,1.0,38,110.97
809,D5,160.25,0.25,52,110.97
810,E-5,160.5,0.25,58,110.97
811,F5,160.75,0.25,55,110.97
812,G5,161.0,0.25,61,110.97
813,F3,161.0,1.0,32,110.97
814,E-4,161.0,1.0,32,110.97
815,E-5,161.25,0.25,59,110.97
816,C5,161.5,0.25,52,110.97
817,A4,161.75,0.25,42,110.97
818,B-4,162.0,1.0,50,110.97
819,B-2,162.0,0.25,40,110.97
820,B-3,162.5,0.5,29,110.97
821,D4,163.0,0.5,34,110.97
822,B-3,163.5,0.5,29,110.97
823,A5,163.938,0.062,46,110.97
824,G5,164.0,0.25,50,110.97
825,E-4,164.0,0.5,34,110.97
826,F#5,164.25,0.25,45,110.97
827,G5,164.5,0.25,50,110.97
828,B-3,164.5,0.5,31,110.97
829,A5,164.75,0.25,43,110.97
830,B-5,165.0,1.0,50,110.97
831,D4,165.0,0.5,40,110.97
832,C#4,165.5,0.5,30,110.97
833,F5,166.0,0.875,41,110.97
834,D4,166.0,0.5,34,110.97
835,B-3,166.5,0.5,30,110.97
836,A4,166.938,0.062,43,110.97
837,E-5,167.0,1.0,41,110.97
838,G4,167.0,0.25,50,110.97
839,C4,167.0,0.5,34,110.97
840,F4,167.25,0.25,46,110.97
841,G4,167.5,0.25,50,110.97
842,F3,167.5,0.5,29,110.97
843,A4,167.75,0.25,46,110.97
844,B-3,168.0,0.5,40,110.97
845,D5,168.0,1.0,47,110.97
846,B-4,168.0,1.0,47,110.97
847,B-2,168.5,0.5,30,110.97
848,F4,169.0,0.5,41,110.97
849,D3,169.0,0.5,34,110.97
850,B-2,169.5,0.5,30,110.97
851,A4,169.938,0.062,43,110.97
852,G4,170.0,0.25,50,110.97
853,E-3,170.0,0.5,34,110.97
854,F#4,170.25,0.25,46,110.97
855,G4,170.5,0.25,50,110.97
856,B-2,170.5,0.5,29,110.97
857,A4,170.75,0.25,46,110.97
858,B-4,171.0,1.0,50,110.97
859,D3,171.0,0.5,40,110.97
860,C#3,171.5,0.5,30,110.97
861,F4,172.0,0.875,41,110.97
862,D3,172.0,0.5,34,110.97
863,B-2,172.5,0.5,30,110.97
864,A3,172.938,0.062,36,110.97
865,E-4,173.0,1.0,34,110.97
866,G3,173.0,0.25,42,110.97
867,C3,173.0,0.5,34,110.97
868,F3,173.25,0.25,39,110.97
869,G3,173.5,0.25,42,110.97
870,F2,173.5,0.5,29,110.97
871,A3,173.75,0.25,39,110.97
872,D4,174.0,1.0,34,110.97
873,B-3,174.0,0.5,42,110.97
874,B-2,174.0,0.5,40,110.97
875,F3,174.5,417/1000,33,110.97
876,D3,174.5,0.5,30,110.97
877,A3,174.938,0.062,37,110.97
878,E-4,175.0,1.0,39,110.97
879,G3,175.0,0.25,43,110.97
880,C3,175.0,0.5,35,110.97
881,F3,175.25,0.25,40,110.97
882,G3,175.5,0.25,44,110.97
883,F2,175.5,0.5,31,110.97
884,A3,175.75,0.25,40,110.97
885,D4,176.0,1.0,36,110.97
886,B-3,176.0,0.5,44,110.97
887,B-2,176.0,0.5,36,110.97
888,F3,176.5,0.375,34,110.97
889,D3,176.5,0.5,31,110.97
890,A3,176.938,0.062,39,110.97
891,E-4,177.0,1.0,44,110.97
892,G3,177.0,0.25,46,110.97
893,C3,177.0,0.5,44,110.97
894,F3,177.25,0.25,43,110.97
895,G3,177.5,0.25,47,110.97
896,F2,177.5,0.5,33,110.97
897,A3,177.75,0.25,44,110.97
898,D4,178.0,0.5,42,110.97
899,B-3,178.0,0.25,48,110.97
900,B-2,178.0,0.25,45,110.97
901,F3,178.25,0.25,41,110.97
902,D3,178.25,0.25,37,110.97
903,E-4,178.5,0.5,40,110.97
904,A3,178.5,0.25,50,110.97
905,F2,178.5,0.25,46,110.97
906,F3,178.75,0.25,43,110.97
907,C3,178.75,0.25,39,110.97
908,D4,179.0,0.5,49,110.97
909,B-3,179.0,0.25,51,110.97
910,B-2,179.0,0.25,47,110.97
911,F3,179.25,0.25,46,110.97
912,D3,179.25,0.25,41,110.97
913,E-4,179.5,0.5,42,110.97
914,A3,179.5,0.25,52,110.97
915,F2,179.5,0.25,49,110.97
916,F3,179.75,0.25,47,110.97
917,C3,179.75,0.25,43,110.97
918,B-3,180.0,0.25,37,110.97
919,D4,180.0,0.25,37,110.97
920,B-2,180.0,0.25,27,110.97
921,D3,180.0,0.25,27,110.97
922,D4,181.0,0.25,37,110.97
923,B-4,181.0,0.25,37,110.97
924,B-1,181.0,0.25,27,110.97
925,B-2,181.0,0.25,27,110.97
926,D4,182.0,0.25,62,110.97
927,E-4,182.25,0.25,48,110.97
928,D4,182.5,0.25,48,110.97
929,C4,182.75,0.25,48,110.97
930,B-3,183.0,0.25,62,110.97
931,C4,183.25,0.25,48,110.97
932,B-3,183.5,0.25,47,110.97
933,A3,183.75,0.25,47,110.97
934,G3,184.0,0.25,63,110.97
935,D4,184.0,2.0,70,110.97
936,D5,184.0,2.0,70,110.97
937,G4,184.0,1979/1000,61,110.97
938,B-4,184.0,1979/1000,61,110.97
939,A3,184.25,0.25,46,110.97
940,B-3,184.5,0.25,46,110.97
941,A3,184.75,0.25,46,110.97
942,G3,185.0,0.25,58,110.97
943,B-3,185.25,0.25,46,110.97
944,A3,185.5,0.25,46,110.97
945,G3,185.75,0.25,45,110.97
946,F#3,186.0,0.25,59,110.97
947,A4,186.0,0.25,62,110.97
948,C5,186.0,0.25,62,110.97
949,D4,186.0,979/1000,70,110.97
950,D5,186.0,979/1000,70,110.97
951,G3,186.25,0.25,45,110.97
952,F#3,186.5,0.25,45,110.97
953,E-3,186.75,0.25,44,110.97
954,D3,187.0,0.25,57,110.97
955,D4,187.0,2.0,70,110.97
956,D5,187.0,2.0,70,110.97
957,A4,187.0,1979/1000,59,110.97
958,F#4,187.0,1979/1000,59,110.97
959,E-3,187.25,0.25,44,110.97
960,D3,187.5,0.25,42,110.97
961,C3,187.75,0.25,42,110.97
962,B-2,188.0,0.25,55,110.97
963,C3,188.25,0.25,41,110.97
964,B-2,188.5,0.25,41,110.97
965,A2,188.75,0.25,41,110.97
966,G2,189.0,0.25,56,110.97
967,B-4,189.0,0.25,62,110.97
968,G4,189.0,0.25,62,110.97
969,D4,189.0,979/1000,70,110.97
970,D5,189.0,979/1000,70,110.97
971,F#2,189.25,0.25,42,110.97
972,G2,189.5,0.25,42,110.97
973,A2,189.75,0.25,42,110.97
974,B-2,190.0,0.25,55,110.97
975,G4,190.0,2.0,75,110.97
976,B-4,190.0,2.0,75,110.97
977,G5,190.0,2.0,75,110.97
978,A2,190.25,0.25,42,110.97
979,B-2,190.5,0.25,41,110.97
980,B2,190.75,0.25,41,110.97
981,C3,191.0,0.25,59,110.97
982,B2,191.25,0.25,47,110.97
983,C3,191.5,0.25,48,110.97
984,C#3,191.738,0.25,48,110.97
985,D3,192.0,0.25,60,110.97
986,F#4,192.0,1.0,67,110.97
987,A4,192.0,1.0,67,110.97
988,F#5,192.0,1.0,67,110.97
989,D2,192.25,0.25,46,110.97
990,F#2,192.5,0.25,46,110.97
991,A2,192.75,0.25,42,110.97
992,D3,193.0,0.25,57,110.97
993,F#3,193.25,0.25,53,110.97
994,A3,193.512,0.25,56,110.97
995,C#4,193.75,0.25,58,110.97
996,D4,194.0,0.25,66,110.97
997,E-4,194.25,0.25,59,110.97
998,D4,194.5,0.25,57,110.97
999,C4,194.75,0.25,56,110.97
1000,B-3,195.0,0.25,62,110.97
1001,C4,195.25,0.25,48,110.97
1002,B-3,195.5,0.25,47,110.97
1003,A3,195.75,0.25,47,110.97
1004,D5,196.0,1.0,61,110.97
1005,G3,196.0,0.25,63,110.97
1006,G4,196.0,2.0,67,110.97
1007,B-4,196.0,2.0,67,110.97
1008,G5,196.0,2.0,67,110.97
1009,A3,196.25,0.25,46,110.97
1010,G3,196.5,0.25,46,110.97
1011,F3,196.75,0.25,46,110.97
1012,C#5,197.0,1.0,74,110.97
1013,E3,197.0,0.25,58,110.97
1014,F3,197.25,0.25,46,110.97
1015,E3,197.5,0.25,46,110.97
1016,D3,197.75,0.25,45,110.97
1017,E5,198.0,0.25,80,110.97
1018,C#3,198.0,0.25,59,110.97
1019,G4,198.0,979/1000,67,110.97
1020,B-4,198.0,979/1000,67,110.97
1021,G5,198.0,979/1000,67,110.97
1022,D3,198.25,0.25,45,110.97
1023,C#3,198.5,0.25,45,110.97
1024,B-2,198.75,0.25,44,110.97
1025,E5,199.0,1.0,59,110.97
1026,A2,199.0,0.25,57,110.97
1027,C#6,199.0,2.0,76,110.97
1028,C#5,199.0,2.0,76,110.97
1029,B-2,199.25,0.25,44,110.97
1030,A2,199.5,0.25,42,110.97
1031,G2,199.75,0.25,42,110.97
1032,G5,200.0,1.0,80,110.97
1033,F2,200.0,0.25,55,110.97
1034,G2,200.25,0.25,41,110.97
1035,F2,200.5,0.25,41,110.97
1036,E2,200.75,0.25,41,110.97
1037,D2,201.0,0.25,56,110.97
1038,D5,201.0,0.25,79,110.97
1039,D6,201.0,0.25,79,110.97
1040,F5,201.0,0.25,79,110.97
1041,E2,201.25,0.25,42,110.97
1042,F2,201.5,0.25,42,110.97
1043,D2,201.75,0.25,42,110.97
1044,G2,202.0,0.25,55,110.97
1045,D5,202.0,0.5,79,110.97
1046,E5,202.0,0.5,79,110.97
1047,D6,202.0,0.5,79,110.97
1048,A2,202.25,0.25,42,110.97
1049,B-2,202.5,0.25,41,110.97
1050,G2,202.75,0.25,41,110.97
1051,A2,203.0,0.25,57,110.97
1052,C#5,203.0,0.5,74,110.97
1053,E5,203.0,0.5,74,110.97
1054,C#6,203.0,0.5,74,110.97
1055,G#2,203.25,0.25,45,110.97
1056,A2,203.5,0.25,45,110.97
1057,A1,203.75,0.25,45,110.97
1058,D2,204.0,0.25,60,110.97
1059,D5,204.0,1.0,79,110.97
1060,F5,204.0,1.0,79,110.97
1061,D6,204.0,1.0,79,110.97
1062,F2,204.25,0.25,46,110.97
1063,A2,204.5,0.25,46,110.97
1064,D3,204.75,0.25,42,110.97
1065,D2,205.0,0.938,57,110.97
1066,D4,206.0,0.25,62,110.97
1067,E-4,206.25,0.25,48,110.97
1068,D4,206.5,0.25,48,110.97
1069,C4,206.75,0.25,48,110.97
1070,B-3,207.0,0.25,62,110.97
1071,C4,207.25,0.25,48,110.97
1072,B-3,207.5,0.25,47,110.97
1073,A3,207.75,0.25,47,110.97
1074,G3,208.0,0.25,63,110.97
1075,D4,208.0,2.0,70,110.97
1076,D5,208.0,2.0,70,110.97
1077,G4,208.0,1979/1000,61,110.97
1078,B-4,208.0,1979/1000,61,110.97
1079,A3,208.25,0.25,46,110.97
1080,B-3,208.5,0.25,46,110.97
1081,A3,208.75,0.25,46,110.97
1082,G3,209.0,0.25,58,110.97
1083,B-3,209.25,0.25,46,110.97
1084,A3,209.5,0.25,46,110.97
1085,G3,209.75,0.25,45,110.97
1086,F#3,210.0,0.25,59,110.97
1087,A4,210.0,0.25,62,110.97
1088,C5,210.0,0.25,62,110.97
1089,D4,210.0,979/1000,70,110.97
1090,D5,210.0,979/1000,70,110.97
1091,G3,210.25,0.25,45,110.97
1092,F#3,210.5,0.25,45,110.97
1093,E-3,210.75,0.25,44,110.97
1094,D3,211.0,0.25,57,110.97
1095,D4,211.0,2.0,70,110.97
1096,D5,211.0,2.0,70,110.97
1097,A4,211.0,1979/1000,59,110.97
1098,F#4,211.0,1979/1000,59,110.97
1099,E-3,211.25,0.25,44,110.97
1100,D3,211.5,0.25,42,110.97
1101,C3,211.75,0.25,42,110.97
1102,B-2,212.0,0.25,55,110.97
1103,C3,212.25,0.25,41,110.97
1104,B-2,212.5,0.25,41,110.97
1105,A2,212.75,0.25,41,110.97
1106,G2,213.0,0.25,56,110.97
1107,B-4,213.0,0.25,62,110.97
1108,G4,213.0,0.25,62,110.97
1109,D4,213.0,979/1000,70,110.97
1110,D5,213.0,979/1000,70,110.97
1111,F#2,213.25,0.25,42,110.97
1112,G2,213.5,0.25,42,110.97
1113,A2,213.75,0.25,42,110.97
1114,B-2,214.0,0.25,55,110.97
1115,G4,214.0,2.0,75,110.97
1116,B-4,214.0,2.0,75,110.97
1117,G5,214.0,2.0,75,110.97
1118,A2,214.25,0.25,42,110.97
1119,B-2,214.5,0.25,41,110.97
1120,B2,214.75,0.25,41,110.97
1121,C3,215.0,0.25,59,110.97
1122,B2,215.25,0.25,47,110.97
1123,C3,215.5,0.25,48,110.97
1124,C#3,215.75,0.25,48,110.97
1125,D3,216.0,0.25,60,110.97
1126,F#4,216.0,1.0,67,110.97
1127,A4,216.0,1.0,67,110.97
1128,F#5,216.0,1.0,67,110.97
1129,D2,216.25,0.25,46,110.97
1130,F#2,216.5,0.25,47,110.97
1131,A2,216.75,0.25,48,110.97
1132,D3,217.0,0.25,57,110.97
1133,F#3,217.25,0.25,49,110.97
1134,A3,217.512,0.25,53,110.97
1135,C#4,217.75,0.25,57,110.97
1136,D4,218.0,0.25,62,110.97
1137,E-4,218.25,0.25,57,110.97
1138,D4,218.5,0.25,52,110.97
1139,C4,218.75,0.25,49,110.97
1140,B-3,219.0,0.25,62,110.97
1141,C4,219.25,0.25,48,110.97
1142,B-3,219.5,0.25,47,110.97
1143,A3,219.75,0.25,47,110.97
1144,D5,220.0,1.0,61,110.97
1145,G3,220.0,0.25,63,110.97
1146,G4,220.0,2.0,67,110.97
1147,B-4,220.0,2.0,67,110.97
1148,G5,220.0,2.0,67,110.97
1149,A3,220.25,0.25,46,110.97
1150,G3,220.5,0.25,46,110.97
1151,F3,220.75,0.25,46,110.97
1152,C#5,221.0,1.0,74,110.97
1153,E3,221.0,0.25,58,110.97
1154,F3,221.25,0.25,46,110.97
1155,E3,221.5,0.25,46,110.97
1156,D3,221.75,0.25,45,110.97
1157,E5,222.0,0.25,80,110.97
1158,C#3,222.0,0.25,59,110.97
1159,G4,222.0,979/1000,67,110.97
1160,B-4,222.0,979/1000,67,110.97
1161,G5,222.0,979/1000,67,110.97
1162,D3,222.25,0.25,45,110.97
1163,C#3,222.5,0.25,45,110.97
1164,B-2,222.75,0.25,44,110.97
1165,E5,223.0,1.0,59,110.97
1166,A2,223.0,0.25,57,110.97
1167,C#6,223.0,2.0,76,110.97
1168,C#5,223.0,2.0,76,110.97
1169,B-2,223.25,0.25,44,110.97
1170,A2,223.5,0.25,42,110.97
1171,G2,223.75,0.25,42,110.97
1172,G5,224.0,1.0,80,110.97
1173,F2,224.0,0.25,55,110.97
1174,G2,224.25,0.25,41,110.97
1175,F2,224.5,0.25,41,110.97
1176,E2,224.75,0.25,41,110.97
1177,D2,225.0,0.25,56,110.97
1178,D5,225.0,0.25,79,110.97
1179,D6,225.0,0.25,79,110.97
1180,F5,225.0,0.25,79,110.97
1181,E2,225.25,0.25,42,110.97
1182,F2,225.5,0.25,42,110.97
1183,D2,225.75,0.25,42,110.97
1184,G2,226.0,0.25,55,110.97
1185,D5,226.0,0.5,79,110.97
1186,E5,226.0,0.5,79,110.97
1187,D6,226.0,0.5,79,110.97
1188,A2,226.25,0.25,42,110.97
1189,B-2,226.5,0.25,41,110.97
1190,G2,226.75,0.25,41,110.97
1191,A2,227.0,0.25,57,110.97
1192,C#5,227.0,0.5,74,110.97
1193,E5,227.0,0.5,74,110.97
1194,C#6,227.0,0.5,74,110.97
1195,G#2,227.25,0.25,45,110.97
1196,A2,227.5,0.25,45,110.97
1197,A1,227.75,0.25,45,110.97
1198,D2,228.0,0.25,60,110.97
1199,D5,228.0,1.0,79,110.97
1200,F5,228.0,1.0,79,110.97
1201,D6,228.0,1.0,79,110.97
1202,F2,228.25,0.25,46,110.97
1203,A2,228.5,0.25,46,110.97
1204,D3,228.75,0.25,42,110.97
1205,D2,229.0,0.938,57,110.97
1206,G#5,230.0,0.25,74,110.97
1207,B-5,230.25,0.25,48,110.97
1208,G#5,230.5,0.25,48,110.97
1209,G5,230.75,0.25,48,110.97
1210,F5,231.0,0.25,68,110.97
1211,G#4,231.0,0.25,67,110.97
1212,G5,231.25,0.25,48,110.97
1213,B-4,231.25,0.25,46,110.97
1214,F5,231.5,0.25,47,110.97
1215,G#4,231.5,0.25,46,110.97
1216,E-5,231.75,0.25,47,110.97
1217,G4,231.75,0.25,46,110.97
1218,D5,232.0,0.25,63,110.97
1219,F4,232.0,0.25,59,110.97
1220,E-5,232.25,0.25,46,110.97
1221,G4,232.25,0.25,46,110.97
1222,D5,232.5,0.25,46,110.97
1223,F4,232.5,0.25,46,110.97
1224,C5,232.75,0.25,46,110.97
1225,E-4,232.75,0.25,46,110.97
1226,G5,233.0,0.25,74,110.97
1227,B4,233.0,1.0,84,110.97
1228,G3,233.0,1.0,62,110.97
1229,D4,233.0,1.0,62,110.97
1230,G#5,233.25,0.25,48,110.97
1231,G5,233.5,0.25,48,110.97
1232,F5,233.75,0.25,48,110.97
1233,C5,234.0,0.5,66,110.97
1234,E-5,234.0,0.25,68,110.97
1235,C4,234.0,0.5,62,110.97
1236,E-4,234.0,0.5,62,110.97
1237,F5,234.25,0.25,48,110.97
1238,E-5,234.5,0.25,47,110.97
1239,D5,234.75,0.25,47,110.97
1240,C5,235.0,0.5,63,110.97
1241,B4,235.25,0.25,46,110.97
1242,C5,235.5,0.25,46,110.97
1243,D5,235.75,0.25,46,110.97
1244,E-5,236.0,0.25,74,110.97
1245,F5,236.25,0.25,48,110.97
1246,E-5,236.5,0.25,48,110.97
1247,D5,236.75,0.25,48,110.97
1248,C5,237.0,0.25,68,110.97
1249,E-4,237.0,0.25,67,110.97
1250,D5,237.25,0.25,48,110.97
1251,F4,237.25,0.25,46,110.97
1252,C5,237.5,0.25,47,110.97
1253,E-4,237.5,0.25,46,110.97
1254,B-4,237.75,0.25,47,110.97
1255,D4,237.75,0.25,46,110.97
1256,A4,238.0,0.25,63,110.97
1257,C4,238.0,0.25,59,110.97
1258,B-4,238.25,0.25,46,110.97
1259,D4,238.25,0.25,46,110.97
1260,A4,238.5,0.25,46,110.97
1261,C4,238.5,0.25,46,110.97
1262,G4,238.75,0.25,46,110.97
1263,B-3,238.75,0.25,46,110.97
1264,D5,239.0,0.25,74,110.97
1265,F#4,239.0,1.0,79,110.97
1266,D3,239.0,1.0,62,110.97
1267,A3,239.0,1.0,62,110.97
1268,E-5,239.25,0.25,48,110.97
1269,D5,239.5,0.25,48,110.97
1270,C5,239.75,0.25,48,110.97
1271,G4,240.0,0.5,66,110.97
1272,B-4,240.0,0.25,68,110.97
1273,G3,240.0,0.5,62,110.97
1274,B-3,240.0,0.5,62,110.97
1275,C5,240.25,0.25,48,110.97
1276,B-4,240.5,0.25,47,110.97
1277,A4,240.75,0.25,47,110.97
1278,G4,241.0,0.25,63,110.97
1279,F#4,241.25,0.25,46,110.97
1280,G4,241.5,0.25,46,110.97
1281,A4,241.75,0.25,46,110.97
1282,D4,242.0,0.25,62,110.97
1283,G4,242.0,1.0,65,110.97
1284,B-4,242.0,1.0,65,110.97
1285,D5,242.0,1.0,65,110.97
1286,E-4,242.25,0.25,48,110.97
1287,D4,242.5,0.25,48,110.97
1288,C4,242.75,0.25,48,110.97
1289,B-3,243.0,0.25,62,110.97
1290,C4,243.25,0.25,48,110.97
1291,B-3,243.5,0.25,47,110.97
1292,A3,243.75,0.25,47,110.97
1293,G3,244.0,0.25,63,110.97
1294,G4,244.0,1.0,65,110.97
1295,B-4,244.0,1.0,65,110.97
1296,D5,244.0,1.0,65,110.97
1297,A3,244.25,0.25,46,110.97
1298,G3,244.5,0.25,46,110.97
1299,F3,244.75,0.25,46,110.97
1300,D5,245.0,2.0,61,110.97
1301,E-3,245.0,0.25,58,110.97
1302,G4,245.0,2.0,69,110.97
1303,B-4,245.0,2.0,69,110.97
1304,G5,245.0,2.0,69,110.97
1305,F3,245.25,0.25,46,110.97
1306,E-3,245.5,0.25,46,110.97
1307,D3,245.75,0.25,45,110.97
1308,C3,246.0,0.25,59,110.97
1309,D3,246.25,0.25,45,110.97
1310,C3,246.5,0.25,45,110.97
1311,B-2,246.75,0.25,44,110.97
1312,G#2,247.0,0.25,57,110.97
1313,C5,247.0,0.25,76,110.97
1314,E-5,247.0,0.25,76,110.97
1315,G4,247.0,979/1000,69,110.97
1316,B-4,247.0,979/1000,69,110.97
1317,G5,247.0,979/1000,69,110.97
1318,B-2,247.25,0.25,44,110.97
1319,G#2,247.5,0.25,42,110.97
1320,G2,247.75,0.25,42,110.97
1321,E-5,248.0,1.0,59,110.97
1322,F#2,248.0,0.25,55,110.97
1323,C6,248.0,2.0,76,110.97
1324,C5,248.0,2.0,76,110.97
1325,G2,248.25,0.25,41,110.97
1326,F#2,248.5,0.25,41,110.97
1327,E2,248.75,0.25,41,110.97
1328,A5,249.0,979/1000,69,110.97
1329,D2,249.0,0.25,56,110.97
1330,E2,249.25,0.25,42,110.97
1331,F#2,249.5,0.25,42,110.97
1332,D2,249.75,0.25,42,110.97
1333,G2,250.0,0.25,55,110.97
1334,F#5,250.0,0.25,70,110.97
1335,A5,250.0,0.25,70,110.97
1336,C6,250.0,0.25,76,110.97
1337,C5,250.0,0.25,76,110.97
1338,A2,250.25,0.25,42,110.97
1339,B-2,250.5,0.25,41,110.97
1340,G2,250.75,0.25,41,110.97
1341,D3,251.0,0.25,57,110.97
1342,G5,251.0,0.5,74,110.97
1343,B-4,251.0,0.5,74,110.97
1344,D5,251.0,0.5,74,110.97
1345,B-5,251.0,0.5,74,110.97
1346,C3,251.25,0.25,45,110.97
1347,B-2,251.5,0.25,45,110.97
1348,A2,251.75,0.25,45,110.97
1349,G2,252.0,0.25,60,110.97
1350,A4,252.0,0.5,69,110.97
1351,F#4,252.0,0.5,69,110.97
1352,D5,252.0,0.5,69,110.97
1353,F#5,252.0,0.5,69,110.97
1354,B-2,252.25,0.25,46,110.97
1355,D3,252.5,0.25,46,110.97
1356,G3,252.75,0.25,42,110.97
1357,G2,253.0,0.938,57,110.97
1358,B-4,253.0,1.0,74,110.97
1359,G4,253.0,1.0,74,110.97
1360,D5,253.0,1.0,74,110.97
1361,G5,253.0,1.0,74,110.97
1362,G#5,255.0,0.25,74,110.97
1363,G#4,255.0,0.25,67,110.97
1364,B-5,255.25,0.25,48,110.97
1365,B-4,255.25,0.25,46,110.97
1366,G#5,255.5,0.25,48,110.97
1367,G#4,255.5,0.25,46,110.97
1368,G5,255.75,0.25,48,110.97
1369,G4,255.75,0.25,46,110.97
1370,F5,256.0,0.25,68,110.97
1371,F4,256.0,0.25,59,110.97
1372,G5,256.25,0.25,48,110.97
1373,G4,256.25,0.25,46,110.97
1374,F5,256.5,0.25,47,110.97
1375,F4,256.5,0.25,46,110.97
1376,E-5,256.75,0.25,47,110.97
1377,E-4,256.75,0.25,46,110.97
1378,D5,257.0,0.25,63,110.97
1379,G3,257.0,1.0,62,110.97
1380,D4,257.0,1.0,62,110.97
1381,E-5,257.25,0.25,46,110.97
1382,D5,257.5,0.25,46,110.97
1383,C5,257.75,0.25,46,110.97
1384,G5,258.0,0.25,74,110.97
1385,B4,258.0,1.0,84,110.97
1386,C4,258.0,0.5,62,110.97
1387,E-4,258.0,0.5,62,110.97
1388,G#5,258.25,0.25,48,110.97
1389,G5,258.5,0.25,48,110.97
1390,F5,258.75,0.25,48,110.97
1391,C5,259.0,0.5,66,110.97
1392,E-5,259.0,0.25,68,110.97
1393,F5,259.25,0.25,48,110.97
1394,E-5,259.5,0.25,47,110.97
1395,D5,259.75,0.25,47,110.97
1396,C5,260.0,0.5,63,110.97
1397,B4,260.25,0.25,46,110.97
1398,C5,260.5,0.25,46,110.97
1399,D5,260.75,0.25,46,110.97
1400,E-5,261.0,0.25,74,110.97
1401,E-4,261.0,0.25,67,110.97
1402,F5,261.25,0.25,48,110.97
1403,F4,261.25,0.25,46,110.97
1404,E-5,261.5,0.25,48,110.97
1405,E-4,261.5,0.25,46,110.97
1406,D5,261.75,0.25,48,110.97
1407,D4,261.75,0.25,46,110.97
1408,C5,262.0,0.25,68,110.97
1409,C4,262.0,0.25,59,110.97
1410,D5,262.25,0.25,48,110.97
1411,D4,262.25,0.25,46,110.97
1412,C5,262.5,0.25,47,110.97
1413,C4,262.5,0.25,46,110.97
1414,B-4,262.75,0.25,47,110.97
1415,B-3,262.75,0.25,46,110.97
1416,A4,263.0,0.25,63,110.97
1417,D3,263.0,1.0,62,110.97
1418,A3,263.0,1.0,62,110.97
1419,B-4,263.25,0.25,46,110.97
1420,A4,263.5,0.25,46,110.97
1421,G4,263.75,0.25,46,110.97
1422,D5,264.0,0.25,74,110.97
1423,F#4,264.0,1.0,79,110.97
1424,G3,264.0,0.5,62,110.97
1425,B-3,264.0,0.5,62,110.97
1426,E-5,264.25,0.25,48,110.97
1427,D5,264.5,0.25,48,110.97
1428,C5,264.75,0.25,48,110.97
1429,G4,265.0,0.5,66,110.97
1430,B-4,265.0,0.25,68,110.97
1431,C5,265.25,0.25,48,110.97
1432,B-4,265.5,0.25,47,110.97
1433,A4,265.75,0.25,47,110.97
1434,G4,266.0,0.25,63,110.97
1435,D4,266.0,0.25,62,110.97
1436,F#4,266.25,0.25,46,110.97
1437,E-4,266.25,0.25,48,110.97
1438,G4,266.5,0.25,46,110.97
1439,D4,266.5,0.25,48,110.97
1440,A4,266.75,0.25,46,110.97
1441,C4,266.75,0.25,48,110.97
1442,B-3,267.0,0.25,62,110.97
1443,G4,267.0,1.0,65,110.97
1444,B-4,267.0,1.0,65,110.97
1445,D5,267.0,1.0,65,110.97
1446,C4,267.25,0.25,48,110.97
1447,B-3,267.5,0.25,47,110.97
1448,A3,267.75,0.25,47,110.97
1449,G3,268.0,0.25,63,110.97
1450,A3,268.25,0.25,46,110.97
1451,G3,268.5,0.25,46,110.97
1452,F3,268.75,0.25,46,110.97
1453,E-3,269.0,0.25,58,110.97
1454,G4,269.0,1.0,65,110.97
1455,B-4,269.0,1.0,65,110.97
1456,D5,269.0,1.0,65,110.97
1457,F3,269.25,0.25,46,110.97
1458,E-3,269.5,0.25,46,110.97
1459,D3,269.75,0.25,45,110.97
1460,D5,270.0,2.0,61,110.97
1461,C3,270.0,0.25,59,110.97
1462,G4,270.0,2.0,69,110.97
1463,B-4,270.0,2.0,69,110.97
1464,G5,270.0,2.0,69,110.97
1465,D3,270.25,0.25,45,110.97
1466,C3,270.5,0.25,45,110.97
1467,B-2,270.75,0.25,44,110.97
1468,G#2,271.0,0.25,57,110.97
1469,B-2,271.25,0.25,44,110.97
1470,G#2,271.5,0.25,42,110.97
1471,G2,271.75,0.25,42,110.97
1472,F#2,272.0,0.25,55,110.97
1473,C5,272.0,0.25,76,110.97
1474,E-5,272.0,0.25,76,110.97
1475,G4,272.0,979/1000,69,110.97
1476,B-4,272.0,979/1000,69,110.97
1477,G5,272.0,979/1000,69,110.97
1478,G2,272.25,0.25,41,110.97
1479,F#2,272.5,0.25,41,110.97
1480,E2,272.75,0.25,41,110.97
1481,E-5,273.0,1.0,59,110.97
1482,D2,273.0,0.25,56,110.97
1483,C6,273.0,2.0,76,110.97
1484,C5,273.0,2.0,76,110.97
1485,E2,273.25,0.25,42,110.97
1486,F#2,273.5,0.25,42,110.97
1487,D2,273.75,0.25,42,110.97
1488,A5,274.0,979/1000,69,110.97
1489,G2,274.0,0.25,55,110.97
1490,A2,274.25,0.25,42,110.97
1491,B-2,274.5,0.25,41,110.97
1492,G2,274.75,0.25,41,110.97
1493,D3,275.0,0.25,57,110.97
1494,F#5,275.0,0.25,70,110.97
1495,A5,275.0,0.25,70,110.97
1496,C6,275.0,0.25,76,110.97
1497,C5,275.0,0.25,76,110.97
1498,C3,275.25,0.25,45,110.97
1499,B-2,275.5,0.25,45,110.97
1500,A2,275.75,0.25,45,110.97
1501,G2,276.0,0.25,60,110.97
1502,G5,276.0,0.5,74,110.97
1503,B-4,276.0,0.5,74,110.97
1504,D5,276.0,0.5,74,110.97
1505,B-5,276.0,0.5,74,110.97
1506,B-2,276.25,0.25,46,110.97
1507,D3,276.5,0.25,46,110.97
1508,G3,276.75,0.25,42,110.97
1509,G2,277.0,0.938,57,110.97
1510,A4,277.0,0.5,69,110.97
1511,F#4,277.0,0.5,69,110.97
1512,D5,277.0,0.5,69,110.97
1513,F#5,277.0,0.5,69,110.97
1514,B-4,278.0,1.0,74,110.97
1515,G4,278.0,1.0,74,110.97
1516,D5,278.0,1.0,74,110.97
1517,G5,278.0,1.0,74,110.97
1518,B-2,279.0,0.25,40,110.97
1519,B-3,279.5,0.5,29,110.97
1520,D4,280.0,0.75,50,110.97
1521,D4,280.0,0.5,34,110.97
1522,B-3,280.5,0.5,29,110.97
1523,E-4,280.75,0.25,46,110.97
1524,F4,281.0,1.938,50,110.97
1525,E-4,281.0,0.5,34,110.97
1526,C4,281.5,0.5,31,110.97
1527,D4,282.0,0.5,40,110.97
1528,C#4,282.5,0.5,30,110.97
1529,A4,282.938,0.062,46,110.97
1530,G4,283.0,0.25,50,110.97
1531,D4,283.0,0.5,34,110.97
1532,F4,283.25,0.25,45,110.97
1533,G4,283.5,0.25,50,110.97
1534,B-3,283.5,0.5,30,110.97
1535,A4,283.75,0.25,43,110.97
1536,B-4,284.0,1.0,50,110.97
1537,E-4,284.0,0.5,34,110.97
1538,C4,284.5,0.5,29,110.97
1539,F4,285.0,0.875,41,110.97
1540,D4,285.0,0.5,40,110.97
1541,C#4,285.5,0.5,30,110.97
1542,A4,285.938,0.062,43,110.97
1543,G4,286.0,0.25,50,110.97
1544,D4,286.0,0.5,34,110.97
1545,F4,286.25,0.25,46,110.97
1546,G4,286.5,0.25,50,110.97
1547,A3,286.5,0.5,30,110.97
1548,A4,286.75,0.25,50,110.97
1549,B-4,287.0,0.125,50,110.97
1550,B-3,287.0,0.5,34,110.97
1551,G3,287.5,479/1000,30,110.97
1552,A4,287.75,0.125,46,110.97
1553,B-4,288.0,0.125,56,110.97
1554,F3,288.0,1.5,40,110.97
1555,C5,288.75,0.125,48,110.97
1556,D5,289.0,0.125,55,110.97
1557,F4,289.0,0.5,35,110.97
1558,E5,289.75,0.125,59,110.97
1559,B-4,290.0,1.0,58,110.97
1560,E5,290.0,1.0,58,110.97
1561,A4,291.0,0.5,52,110.97
1562,F5,291.0,0.5,52,110.97
1563,F3,291.5,2.5,36,110.97
1564,F5,291.938,0.062,43,110.97
1565,E-5,292.0,0.25,50,110.97
1566,A3,292.0,0.5,40,110.97
1567,D5,292.25,0.25,46,110.97
1568,E-5,292.5,0.25,54,110.97
1569,C4,292.5,0.5,37,110.97
1570,F5,292.75,0.25,51,110.97
1571,G5,293.0,1.0,59,110.97
1572,E-4,293.0,1.0,40,110.97
1573,C5,294.0,0.875,50,110.97
1574,F3,294.0,0.5,36,110.97
1575,E-4,294.0,0.5,40,110.97
1576,F3,294.5,2.5,42,110.97
1577,D5,294.938,0.062,43,110.97
1578,C5,295.0,0.25,50,110.97
1579,C4,295.0,0.5,48,110.97
1580,B4,295.25,0.25,46,110.97
1581,C5,295.5,0.25,54,110.97
1582,E-4,295.5,0.5,41,110.97
1583,D5,295.75,0.25,51,110.97
1584,E-5,296.0,1.0,59,110.97
1585,F#4,296.0,1.0,55,110.97
1586,A4,297.0,0.875,50,110.97
1587,F3,297.0,1.0,42,110.97
1588,F#4,297.0,1.0,55,110.97
1589,B-4,297.938,0.062,43,110.97
1590,A4,298.0,0.25,50,110.97
1591,F4,298.0,1.0,38,110.97
1592,F3,298.0,1.0,38,110.97
1593,G4,298.25,0.25,46,110.97
1594,A4,298.5,0.25,52,110.97
1595,B-4,298.75,167/1000,48,110.97
1596,D5,298.938,0.062,43,110.97
1597,C5,299.0,0.25,53,110.97
1598,F3,299.0,1.0,32,110.97
1599,E-4,299.0,1.0,32,110.97
1600,B4,299.25,0.25,50,110.97
1601,C5,299.5,0.25,54,110.97
1602,D5,299.75,167/1000,51,110.97
1603,F5,299.938,0.062,43,110.97
1604,E-5,300.0,0.25,57,110.97
1605,B-3,300.0,1.5,30,110.97
1606,E-4,300.0,1.0,36,110.97
1607,D5,300.25,0.25,52,110.97
1608,E-5,300.5,0.25,58,110.97
1609,F5,300.75,0.25,55,110.97
1610,G5,301.0,0.125,64,110.97
1611,D4,301.0,0.5,32,110.97
1612,A4,301.75,0.25,42,110.97
1613,C5,302.0,1.0,50,110.97
1614,F#4,302.0,0.25,38,110.97
1615,G4,302.25,0.25,33,110.97
1616,F#4,302.5,0.25,41,110.97
1617,G4,302.75,0.25,38,110.97
1618,B-4,303.0,0.5,44,110.97
1619,F#4,303.0,0.25,45,110.97
1620,G4,303.25,0.25,39,110.97
1621,F#4,303.5,0.25,48,110.97
1622,G4,303.75,0.25,44,110.97
1623,F#4,304.0,0.25,52,110.97
1624,A4,304.0,0.25,42,110.97
1625,D5,304.0,0.25,42,110.97
1626,G4,304.25,0.25,44,110.97
1627,B-4,304.25,0.25,38,110.97
1628,C#5,304.25,0.25,38,110.97
1629,F#4,304.5,0.25,55,110.97
1630,A4,304.5,0.25,45,110.97
1631,D5,304.5,0.25,45,110.97
1632,G4,304.75,0.25,51,110.97
1633,B-4,304.75,0.25,37,110.97
1634,C#5,304.75,0.25,37,110.97
1635,F#4,305.0,0.25,59,110.97
1636,A4,305.0,0.25,49,110.97
1637,D5,305.0,0.25,49,110.97
1638,G4,305.25,0.25,51,110.97
1639,B-4,305.25,0.25,44,110.97
1640,C#5,305.25,0.25,44,110.97
1641,F#4,305.5,0.25,63,110.97
1642,A4,305.5,0.25,52,110.97
1643,D5,305.5,0.25,52,110.97
1644,G4,305.75,0.25,58,110.97
1645,B-4,305.75,0.25,42,110.97
1646,C#5,305.75,0.25,42,110.97
1647,F#4,306.0,0.5,69,110.97
1648,A4,306.0,0.25,57,110.97
1649,D5,306.0,0.25,57,110.97
1650,B-4,306.25,0.25,52,110.97
1651,C#5,306.25,0.25,52,110.97
1652,A4,306.5,0.25,60,110.97
1653,D5,306.5,0.25,60,110.97
1654,B-4,306.75,0.25,50,110.97
1655,C#5,306.75,0.25,50,110.97
1656,A4,307.0,0.25,64,110.97
1657,D5,307.0,0.25,64,110.97
1658,D3,307.0,1.5,68,110.97
1659,D4,307.0,1.5,68,110.97
1660,B-4,307.25,0.25,58,110.97
1661,C#5,307.25,0.25,58,110.97
1662,A4,307.5,0.25,68,110.97
1663,D5,307.5,0.25,68,110.97
1664,B-4,307.75,0.25,56,110.97
1665,C#5,307.75,0.25,56,110.97
1666,A4,308.0,0.5,82,110.97
1667,D5,308.0,0.5,82,110.97
1668,D3,308.5,0.25,51,110.97
1669,D4,308.5,0.25,51,110.97
1670,D6,309.0,1.5,92,110.97
1671,F#5,309.0,1.5,92,110.97
1672,E-3,309.0,0.5,62,110.97
1673,E-4,309.0,0.5,62,110.97
1674,C3,309.75,0.125,49,110.97
1675,C4,309.75,0.125,49,110.97
1676,D3,310.0,0.5,58,110.97
1677,D4,310.0,0.5,58,110.97
1678,C6,310.5,0.25,69,110.97
1679,F#5,310.5,0.25,69,110.97
1680,B-5,311.0,0.5,84,110.97
1681,G5,311.0,0.5,84,110.97
1682,D2,311.0,0.5,56,110.97
1683,D3,311.0,0.5,56,110.97
1684,A5,311.75,0.125,67,110.97
1685,E-5,311.75,0.125,67,110.97
1686,B-4,312.0,0.5,78,110.97
1687,G5,312.0,0.5,78,110.97
1688,G2,312.0,1.5,56,110.97
1689,G3,312.0,1.5,56,110.97
1690,C5,313.0,0.5,75,110.97
1691,F#5,313.0,0.5,75,110.97
1692,D3,314.0,63/250,25,110.97
1693,C5,314.0,1.0,76,110.97
1694,A5,314.0,1.0,76,110.97
1695,E-3,314.25,63/250,22,110.97
1696,D3,314.5,63/250,27,110.97
1697,E-3,314.75,0.25,24,110.97
1698,D3,315.0,63/250,29,110.97
1699,E-3,315.0,1/500,24,110.97
1700,B-4,315.0,0.5,66,110.97
1701,G5,315.0,0.5,66,110.97
1702,E-3,315.25,63/250,25,110.97
1703,D3,315.5,63/250,32,110.97
1704,E-3,315.75,63/250,29,110.97
1705,D3,316.0,63/250,34,110.97
1706,G#3,316.0,63/250,28,110.97
1707,B-3,316.0,63/250,28,110.97
1708,B3,316.25,63/250,27,110.97
1709,E-3,316.25,63/250,30,110.97
1710,D3,316.5,63/250,37,110.97
1711,G#3,316.5,63/250,30,110.97
1712,B-3,316.5,63/250,30,110.97
1713,B3,316.75,0.25,27,110.97
1714,E-3,316.75,63/250,34,110.97
1715,B3,317.0,1/500,27,110.97
1716,D3,317.0,63/250,39,110.97
1717,G#3,317.0,63/250,32,110.97
1718,B-3,317.0,63/250,32,110.97
1719,B3,317.25,63/250,32,110.97
1720,E-3,317.25,63/250,34,110.97
1721,D3,317.5,63/250,41,110.97
1722,G#3,317.5,63/250,34,110.97
1723,B-3,317.5,63/250,34,110.97
1724,B3,317.75,63/250,30,110.97
1725,E-3,317.75,0.25,38,110.97
1726,D3,318.0,0.5,54,110.97
1727,E-3,318.0,1/500,38,110.97
1728,G#3,318.0,63/250,38,110.97
1729,B-3,318.0,63/250,38,110.97
1730,B3,318.25,63/250,38,110.97
1731,G#3,318.5,63/250,40,110.97
1732,B-3,318.5,63/250,40,110.97
1733,B3,318.75,63/250,35,110.97
1734,G#3,319.0,63/250,42,110.97
1735,B-3,319.0,63/250,42,110.97
1736,D3,319.0,1.5,58,110.97
1737,F3,319.0,1.5,58,110.97
1738,B3,319.25,63/250,42,110.97
1739,G#3,319.5,63/250,45,110.97
1740,B-3,319.5,63/250,45,110.97
1741,B3,319.75,0.25,41,110.97
1742,B3,320.0,1/500,41,110.97
1743,G#3,320.0,0.5,65,110.97
1744,B-3,320.0,0.5,65,110.97
1745,E-3,320.5,0.5,40,110.97
1746,G3,320.5,0.5,40,110.97
1747,G#5,321.0,1.5,78,110.97
1748,B4,321.0,1.5,78,110.97
1749,B2,321.0,0.75,47,110.97
1750,D3,321.0,0.75,47,110.97
1751,C3,321.75,0.25,36,110.97
1752,E-3,321.75,0.25,36,110.97
1753,D3,322.0,1.0,42,110.97
1754,F3,322.0,1.0,42,110.97
1755,G5,322.5,0.5,54,110.97
1756,C5,322.5,0.5,54,110.97
1757,F5,323.0,0.75,64,110.97
1758,G#4,323.0,0.75,64,110.97
1759,E-3,323.0,1.0,38,110.97
1760,G3,323.0,1.0,38,110.97
1761,E-5,323.75,0.25,49,110.97
1762,G4,323.75,0.25,49,110.97
1763,F3,324.0,1.0,36,110.97
1764,F4,324.0,1.0,56,110.97
1765,D5,324.0,1.0,56,110.97
1766,F2,325.0,0.5,30,110.97
1767,E-4,325.0,1.0,50,110.97
1768,C5,325.0,1.0,50,110.97
1769,D4,326.0,1.0,44,110.97
1770,B-4,326.0,1.0,44,110.97
1771,B-2,327.0,0.25,40,110.97
1772,C4,327.0,0.5,39,110.97
1773,A4,327.0,0.5,39,110.97
1774,B-3,327.5,0.5,29,110.97
1775,D4,328.0,0.75,50,110.97
1776,D4,328.0,0.5,34,110.97
1777,B-3,328.5,0.5,29,110.97
1778,E-4,328.75,0.25,46,110.97
1779,F4,329.0,1.938,50,110.97
1780,E-4,329.0,0.5,34,110.97
1781,C4,329.5,0.5,31,110.97
1782,D4,330.0,0.5,40,110.97
1783,C#4,330.5,0.5,30,110.97
1784,A4,330.938,0.062,46,110.97
1785,G4,331.0,0.25,50,110.97
1786,D4,331.0,0.5,34,110.97
1787,F4,331.25,0.25,45,110.97
1788,G4,331.5,0.25,50,110.97
1789,B-3,331.5,0.5,30,110.97
1790,A4,331.75,0.25,43,110.97
1791,B-4,332.0,1.0,50,110.97
1792,E-4,332.0,0.5,34,110.97
1793,C4,332.5,0.5,29,110.97
1794,F4,333.0,0.875,41,110.97
1795,D4,333.0,0.5,40,110.97
1796,C#4,333.5,0.5,30,110.97
1797,A4,333.938,0.062,43,110.97
1798,G4,334.0,0.25,50,110.97
1799,D4,334.0,0.5,34,110.97
1800,F4,334.25,0.25,46,110.97
1801,G4,334.5,0.25,50,110.97
1802,A3,334.5,0.5,30,110.97
1803,A4,334.75,0.25,50,110.97
1804,B-4,335.0,0.125,50,110.97
1805,B-3,335.0,0.5,34,110.97
1806,G3,335.5,479/1000,30,110.97
1807,A4,335.75,0.125,46,110.97
1808,B-4,336.0,0.125,56,110.97
1809,F3,336.0,1.5,40,110.97
1810,C5,336.75,0.125,48,110.97
1811,D5,337.0,0.125,55,110.97
1812,F4,337.0,0.5,35,110.97
1813,E5,337.75,0.125,59,110.97
1814,B-4,338.0,1.0,58,110.97
1815,E5,338.0,1.0,58,110.97
1816,A4,339.0,0.5,52,110.97
1817,F5,339.0,0.5,52,110.97
1818,F2,339.25,0.25,37,110.97
1819,A2,339.5,0.25,38,110.97
1820,C3,339.75,0.25,39,110.97
1821,F5,339.938,0.062,43,110.97
1822,E-5,340.0,0.25,50,110.97
1823,F3,340.0,0.25,40,110.97
1824,D5,340.25,0.25,46,110.97
1825,A3,340.25,0.25,41,110.97
1826,E-5,340.5,0.25,54,110.97
1827,C4,340.5,0.25,42,110.97
1828,F5,340.75,0.25,51,110.97
1829,D4,340.75,0.25,43,110.97
1830,G5,341.0,1.0,59,110.97
1831,E-4,341.0,1.0,48,110.97
1832,C5,342.0,0.875,50,110.97
1833,E-4,342.0,0.25,48,110.97
1834,F2,342.25,0.25,37,110.97
1835,A2,342.5,0.25,41,110.97
1836,C3,342.75,0.25,43,110.97
1837,D5,342.938,0.062,43,110.97
1838,C5,343.0,0.25,50,110.97
1839,F3,343.0,0.25,44,110.97
1840,B4,343.25,0.25,46,110.97
1841,A3,343.25,0.25,46,110.97
1842,C5,343.5,0.25,54,110.97
1843,C4,343.5,0.25,48,110.97
1844,D5,343.75,0.25,51,110.97
1845,E-4,343.75,0.25,49,110.97
1846,E-5,344.0,1.0,59,110.97
1847,F#4,344.0,1.0,55,110.97
1848,A4,345.0,0.875,50,110.97
1849,F#4,345.0,1.0,55,110.97
1850,B-4,345.938,0.062,43,110.97
1851,A4,346.0,0.25,50,110.97
1852,F4,346.0,1.0,38,110.97
1853,F3,346.0,1.0,38,110.97
1854,G4,346.25,0.25,46,110.97
1855,A4,346.5,0.25,52,110.97
1856,B-4,346.75,167/1000,48,110.97
1857,D5,346.938,0.062,43,110.97
1858,C5,347.0,0.25,53,110.97
1859,F3,347.0,1.0,32,110.97
1860,E-4,347.0,1.0,32,110.97
1861,B4,347.25,0.25,50,110.97
1862,C5,347.5,0.25,54,110.97
1863,D5,347.75,167/1000,51,110.97
1864,F5,347.938,0.062,43,110.97
1865,E-5,348.0,0.25,57,110.97
1866,B-2,348.0,0.25,40,110.97
1867,D5,348.25,0.25,52,110.97
1868,E-5,348.5,0.25,58,110.97
1869,B-3,348.5,0.5,29,110.97
1870,F5,348.75,0.25,55,110.97
1871,G5,349.0,0.25,61,110.97
1872,D4,349.0,0.5,34,110.97
1873,E-5,349.25,0.25,59,110.97
1874,C5,349.5,0.25,52,110.97
1875,B-3,349.5,0.5,29,110.97
1876,A4,349.75,0.25,42,110.97
1877,B-4,350.0,1.0,50,110.97
1878,E-4,350.0,0.5,34,110.97
1879,B-3,350.5,0.5,31,110.97
1880,D4,351.0,0.5,40,110.97
1881,C#4,351.5,0.5,30,110.97
1882,A5,351.938,0.062,46,110.97
1883,G5,352.0,0.25,50,110.97
1884,D4,352.0,0.5,34,110.97
1885,F#5,352.25,0.25,45,110.97
1886,G5,352.5,0.25,50,110.97
1887,B-3,352.5,0.5,30,110.97
1888,A5,352.75,0.25,43,110.97
1889,B-5,353.0,1.0,50,110.97
1890,C4,353.0,0.5,34,110.97
1891,F3,353.5,0.5,29,110.97
1892,F5,354.0,0.875,41,110.97
1893,B-3,354.0,0.5,40,110.97
1894,B-2,354.5,0.5,30,110.97
1895,A4,354.938,0.062,43,110.97
1896,E-5,355.0,1.0,41,110.97
1897,G4,355.0,0.25,50,110.97
1898,D3,355.0,0.5,34,110.97
1899,F4,355.25,0.25,46,110.97
1900,G4,355.5,0.25,50,110.97
1901,B-2,355.5,0.5,30,110.97
1902,A4,355.75,0.25,46,110.97
1903,E-3,356.0,0.5,34,110.97
1904,D5,356.0,1.0,47,110.97
1905,B-4,356.0,1.0,47,110.97
1906,B-2,356.5,0.5,29,110.97
1907,F4,357.0,0.5,41,110.97
1908,D3,357.0,0.5,40,110.97
1909,C#3,357.5,0.5,30,110.97
1910,A4,357.938,0.062,43,110.97
1911,G4,358.0,0.25,50,110.97
1912,D3,358.0,0.5,34,110.97
1913,F#4,358.25,0.25,46,110.97
1914,G4,358.5,0.25,50,110.97
1915,B-2,358.5,0.5,30,110.97
1916,A4,358.75,0.25,46,110.97
1917,B-4,359.0,1.0,50,110.97
1918,C3,359.0,0.5,34,110.97
1919,F2,359.5,0.5,29,110.97
1920,F4,360.0,0.875,41,110.97
1921,B-2,360.0,0.5,40,110.97
1922,D3,360.5,0.5,30,110.97
1923,A3,360.938,0.062,36,110.97
1924,E-4,361.0,1.0,34,110.97
1925,G3,361.0,0.25,42,110.97
1926,C3,361.0,0.5,35,110.97
1927,F3,361.25,0.25,39,110.97
1928,G3,361.5,0.25,42,110.97
1929,F2,361.5,0.5,31,110.97
1930,A3,361.75,0.25,39,110.97
1931,D4,362.0,1.0,34,110.97
1932,B-3,362.0,0.5,42,110.97
1933,B-2,362.0,0.5,36,110.97
1934,F3,362.5,417/1000,33,110.97
1935,D3,362.5,0.5,31,110.97
1936,A3,362.938,0.062,37,110.97
1937,E-4,363.0,1.0,39,110.97
1938,G3,363.0,0.25,43,110.97
1939,C3,363.0,0.5,44,110.97
1940,F3,363.25,0.25,40,110.97
1941,G3,363.5,0.25,44,110.97
1942,F2,363.5,0.5,33,110.97
1943,A3,363.75,0.25,40,110.97
1944,D4,364.0,1.0,36,110.97
1945,B-3,364.0,0.5,44,110.97
1946,B-2,364.0,0.25,45,110.97
1947,D3,364.25,0.25,37,110.97
1948,F3,364.5,0.375,34,110.97
1949,F2,364.5,0.25,46,110.97
1950,C3,364.75,0.25,39,110.97
1951,A3,364.938,0.062,39,110.97
1952,E-4,365.0,1.0,44,110.97
1953,G3,365.0,0.25,46,110.97
1954,B-2,365.0,0.25,47,110.97
1955,F3,365.25,0.25,43,110.97
1956,D3,365.25,0.25,41,110.97
1957,G3,365.5,0.25,47,110.97
1958,F2,365.5,0.25,49,110.97
1959,A3,365.75,0.25,44,110.97
1960,C3,365.75,0.25,43,110.97
1961,D4,366.0,0.5,42,110.97
1962,B-3,366.0,0.25,48,110.97
1963,B-2,366.0,0.25,27,110.97
1964,D3,366.0,0.25,27,110.97
1965,F3,366.25,0.25,41,110.97
1966,E-4,366.5,0.5,40,110.97
1967,A3,366.5,0.25,50,110.97
1968,F3,366.75,0.25,43,110.97
1969,D4,367.0,0.5,49,110.97
1970,B-3,367.0,0.25,51,110.97
1971,B-1,367.0,0.25,27,110.97
1972,B-2,367.0,0.25,27,110.97
1973,F3,367.25,0.25,46,110.97
1974,E-4,367.5,0.5,42,110.97
1975,A3,367.5,0.25,52,110.97
1976,F3,367.75,0.25,47,110.97
1977,B-3,368.0,0.25,37,110.97
1978,D4,368.0,0.25,37,110.97
1979,D4,369.0,0.25,37,110.97
1980,B-4,369.0,0.25,37,110.97
