,note_name,start_time,duration,velocity,tempo
0,E-3,0.0,9/20,19,65.1
1,G3,0.0,9/20,19,65.1
2,B-3,0.0,9/20,19,65.1
3,E-3,0.5,9/20,16,65.1
4,G3,0.5,9/20,16,65.1
5,B-3,0.5,9/20,16,65.1
6,E-3,1.0,9/20,16,65.1
7,G3,1.0,9/20,16,65.1
8,B-3,1.0,9/20,16,65.1
9,E-3,1.5,9/20,18,65.1
10,G3,1.5,9/20,18,65.1
11,B-3,1.5,9/20,18,65.1
12,E-3,2.0,9/20,16,65.1
13,G3,2.0,9/20,16,65.1
14,B-3,2.0,9/20,16,65.1
15,E-3,2.5,9/20,16,65.1
16,G3,2.5,9/20,16,65.1
17,B-3,2.5,9/20,16,65.1
18,G4,3.0,0.375,38,65.1
19,E-3,3.0,9/20,19,65.1
20,G3,3.0,9/20,19,65.1
21,B-3,3.0,9/20,19,65.1
22,G#4,3.375,0.125,36,65.1
23,G4,3.5,0.25,39,65.1
24,E-3,3.5,9/20,16,65.1
25,G3,3.5,9/20,16,65.1
26,B-3,3.5,9/20,16,65.1
27,F4,3.75,0.25,36,65.1
28,G4,4.0,0.25,40,65.1
29,E-3,4.0,9/20,16,65.1
30,G3,4.0,9/20,16,65.1
31,B-3,4.0,9/20,16,65.1
32,G#4,4.25,0.25,36,65.1
33,A4,4.5,1.5,44,65.1
34,E-3,4.5,9/20,19,65.1
35,G3,4.5,9/20,19,65.1
36,B-3,4.5,9/20,19,65.1
37,E-3,5.0,9/20,16,65.1
38,G3,5.0,9/20,16,65.1
39,B-3,5.0,9/20,16,65.1
40,E-3,5.5,9/20,16,65.1
41,G3,5.5,9/20,16,65.1
42,B-3,5.5,9/20,16,65.1
43,B-4,6.0,1.875,51,65.1
44,E-3,6.0,9/20,18,65.1
45,G3,6.0,9/20,18,65.1
46,B-3,6.0,9/20,18,65.1
47,E-3,6.5,9/20,16,65.1
48,G3,6.5,9/20,16,65.1
49,B-3,6.5,9/20,16,65.1
50,E-3,7.0,9/20,16,65.1
51,G3,7.0,9/20,16,65.1
52,B-3,7.0,9/20,16,65.1
53,E-3,7.5,9/20,19,65.1
54,G3,7.5,9/20,19,65.1
55,B-3,7.5,9/20,19,65.1
56,C5,7.875,0.125,39,65.1
57,B-4,8.0,0.25,49,65.1
58,E-3,8.0,9/20,16,65.1
59,G3,8.0,9/20,16,65.1
60,B-3,8.0,9/20,16,65.1
61,A4,8.25,0.25,42,65.1
62,B-4,8.5,0.25,51,65.1
63,E-3,8.5,9/20,16,65.1
64,G3,8.5,9/20,16,65.1
65,B-3,8.5,9/20,16,65.1
66,B4,8.75,0.25,46,65.1
67,B4,9.0,0.875,50,65.1
68,D3,9.0,9/20,19,65.1
69,G#3,9.0,9/20,19,65.1
70,B-3,9.0,9/20,19,65.1
71,D3,9.5,9/20,16,65.1
72,G#3,9.5,9/20,16,65.1
73,B-3,9.5,9/20,16,65.1
74,C5,9.75,0.062,39,65.1
75,B4,9.812,0.062,33,65.1
76,A4,9.875,0.062,41,65.1
77,B4,9.938,0.062,37,65.1
78,D5,10.0,0.375,53,65.1
79,D3,10.0,9/20,16,65.1
80,G#3,10.0,9/20,16,65.1
81,B-3,10.0,9/20,16,65.1
82,C5,10.375,0.125,44,65.1
83,F4,10.5,1.875,55,65.1
84,D3,10.5,9/20,18,65.1
85,G#3,10.5,9/20,18,65.1
86,B-3,10.5,9/20,18,65.1
87,D3,11.0,9/20,16,65.1
88,G#3,11.0,9/20,16,65.1
89,B-3,11.0,9/20,16,65.1
90,D3,11.5,9/20,16,65.1
91,G#3,11.5,9/20,16,65.1
92,B-3,11.5,9/20,16,65.1
93,D3,12.0,9/20,19,65.1
94,G#3,12.0,9/20,19,65.1
95,B-3,12.0,9/20,19,65.1
96,G4,12.375,0.125,39,65.1
97,F4,12.5,0.25,46,65.1
98,D3,12.5,9/20,16,65.1
99,G#3,12.5,9/20,16,65.1
100,B-3,12.5,9/20,16,65.1
101,E4,12.75,0.25,42,65.1
102,F4,13.0,0.25,49,65.1
103,D3,13.0,9/20,16,65.1
104,G#3,13.0,9/20,16,65.1
105,B-3,13.0,9/20,16,65.1
106,G4,13.25,0.25,46,65.1
107,G#4,13.5,1.75,55,65.1
108,F3,13.5,9/20,19,65.1
109,D3,13.5,9/20,19,65.1
110,G#3,13.5,9/20,19,65.1
111,B-3,13.5,9/20,19,65.1
112,F3,14.0,9/20,16,65.1
113,D3,14.0,9/20,16,65.1
114,G#3,14.0,9/20,16,65.1
115,B-3,14.0,9/20,16,65.1
116,F3,14.5,9/20,16,65.1
117,D3,14.5,9/20,16,65.1
118,G#3,14.5,9/20,16,65.1
119,B-3,14.5,9/20,16,65.1
120,F3,15.0,9/20,18,65.1
121,D3,15.0,9/20,18,65.1
122,G#3,15.0,9/20,18,65.1
123,B-3,15.0,9/20,18,65.1
124,G4,15.25,0.25,47,65.1
125,F4,15.5,0.25,48,65.1
126,F3,15.5,9/20,16,65.1
127,D3,15.5,9/20,16,65.1
128,G#3,15.5,9/20,16,65.1
129,B-3,15.5,9/20,16,65.1
130,E4,15.75,0.25,44,65.1
131,F4,16.0,0.25,49,65.1
132,F3,16.0,9/20,16,65.1
133,D3,16.0,9/20,16,65.1
134,G#3,16.0,9/20,16,65.1
135,B-3,16.0,9/20,16,65.1
136,G4,16.25,0.25,44,65.1
137,G#4,16.5,0.25,50,65.1
138,F3,16.5,9/20,19,65.1
139,D3,16.5,9/20,19,65.1
140,G#3,16.5,9/20,19,65.1
141,B-3,16.5,9/20,19,65.1
142,B-4,16.75,0.25,45,65.1
143,C5,17.0,0.25,54,65.1
144,F3,17.0,9/20,16,65.1
145,D3,17.0,9/20,16,65.1
146,G#3,17.0,9/20,16,65.1
147,B-3,17.0,9/20,16,65.1
148,B4,17.25,0.25,45,65.1
149,C5,17.5,0.25,48,65.1
150,F3,17.5,9/20,16,65.1
151,D3,17.5,9/20,16,65.1
152,G#3,17.5,9/20,16,65.1
153,B-3,17.5,9/20,16,65.1
154,G#4,17.75,0.25,39,65.1
155,F#4,18.0,1.5,58,65.1
156,E-3,18.0,9/20,19,65.1
157,G#3,18.0,9/20,19,65.1
158,B-3,18.0,9/20,19,65.1
159,E-3,18.5,9/20,16,65.1
160,G#3,18.5,9/20,16,65.1
161,B-3,18.5,9/20,16,65.1
162,E-3,19.0,9/20,16,65.1
163,G#3,19.0,9/20,16,65.1
164,B-3,19.0,9/20,16,65.1
165,G4,19.5,1.75,55,65.1
166,E-3,19.5,9/20,18,65.1
167,G3,19.5,9/20,18,65.1
168,B-3,19.5,9/20,18,65.1
169,E-3,20.0,9/20,16,65.1
170,G3,20.0,9/20,16,65.1
171,B-3,20.0,9/20,16,65.1
172,E-3,20.5,9/20,16,65.1
173,G3,20.5,9/20,16,65.1
174,B-3,20.5,9/20,16,65.1
175,E-3,21.0,0.5,36,65.1
176,E-4,21.25,0.25,55,65.1
177,G4,21.5,0.25,59,65.1
178,B-2,21.5,0.5,40,65.1
179,B-4,21.75,0.25,62,65.1
180,E-5,22.0,0.25,66,65.1
181,G#2,22.0,0.5,43,65.1
182,G5,22.25,0.25,69,65.1
183,B-5,22.5,2.0,72,65.1
184,G2,22.5,0.5,48,65.1
185,G2,23.0,9/20,31,65.1
186,B-2,23.0,9/20,31,65.1
187,E-3,23.0,9/20,31,65.1
188,G2,23.5,9/20,31,65.1
189,B-2,23.5,9/20,31,65.1
190,E-3,23.5,9/20,31,65.1
191,G2,24.0,9/20,31,65.1
192,B-2,24.0,9/20,31,65.1
193,E-3,24.0,9/20,31,65.1
194,G5,24.5,0.5,69,65.1
195,G2,24.5,9/20,29,65.1
196,B-2,24.5,9/20,29,65.1
197,E-3,24.5,9/20,29,65.1
198,E-5,25.0,0.5,65,65.1
199,G2,25.0,9/20,29,65.1
200,B-2,25.0,9/20,29,65.1
201,E-3,25.0,9/20,29,65.1
202,B-4,25.5,0.5,65,65.1
203,G2,25.5,9/20,31,65.1
204,B-2,25.5,9/20,31,65.1
205,E-3,25.5,9/20,31,65.1
206,G4,26.0,0.5,68,65.1
207,G2,26.0,9/20,27,65.1
208,B-2,26.0,9/20,27,65.1
209,E-3,26.0,9/20,27,65.1
210,E-4,26.5,0.5,66,65.1
211,G2,26.5,9/20,27,65.1
212,B-2,26.5,9/20,27,65.1
213,E-3,26.5,9/20,27,65.1
214,C4,27.0,1.5,72,65.1
215,G#2,27.0,9/20,33,65.1
216,C3,27.0,9/20,33,65.1
217,E-3,27.0,9/20,33,65.1
218,G#2,27.5,9/20,29,65.1
219,C3,27.5,9/20,29,65.1
220,E-3,27.5,9/20,29,65.1
221,G#2,28.0,9/20,29,65.1
222,C3,28.0,9/20,29,65.1
223,E-3,28.0,9/20,29,65.1
224,C6,28.5,2.0,72,65.1
225,G#2,28.5,9/20,33,65.1
226,C3,28.5,9/20,33,65.1
227,E3,28.5,9/20,33,65.1
228,G#2,29.0,9/20,29,65.1
229,C3,29.0,9/20,29,65.1
230,E3,29.0,9/20,29,65.1
231,G#2,29.5,9/20,29,65.1
232,C3,29.5,9/20,29,65.1
233,E3,29.5,9/20,29,65.1
234,G#2,30.0,9/20,33,65.1
235,C3,30.0,9/20,33,65.1
236,F3,30.0,9/20,33,65.1
237,B-5,30.5,0.25,67,65.1
238,G#2,30.5,9/20,27,65.1
239,C3,30.5,9/20,27,65.1
240,F3,30.5,9/20,27,65.1
241,G#5,30.75,0.25,61,65.1
242,G5,31.0,0.25,67,65.1
243,G#2,31.0,9/20,27,65.1
244,C3,31.0,9/20,27,65.1
245,F3,31.0,9/20,27,65.1
246,F5,31.25,229/1000,60,65.1
247,F5,31.5,0.5,67,65.1
248,B-2,31.5,9/20,31,65.1
249,E-3,31.5,9/20,31,65.1
250,G3,31.5,9/20,31,65.1
251,E-5,32.0,1.5,60,65.1
252,B-2,32.0,9/20,25,65.1
253,E-3,32.0,9/20,25,65.1
254,G3,32.0,9/20,25,65.1
255,B-2,32.5,9/20,25,65.1
256,E-3,32.5,9/20,25,65.1
257,G3,32.5,9/20,25,65.1
258,B-2,33.0,9/20,22,65.1
259,E-3,33.0,9/20,22,65.1
260,G3,33.0,9/20,22,65.1
261,E-5,33.5,0.5,56,65.1
262,B-2,33.5,9/20,19,65.1
263,E-3,33.5,9/20,19,65.1
264,G3,33.5,9/20,19,65.1
265,E-5,34.0,0.5,54,65.1
266,B-2,34.0,9/20,18,65.1
267,E-3,34.0,9/20,18,65.1
268,G3,34.0,9/20,18,65.1
269,E-5,34.5,0.062,53,65.1
270,B-2,34.5,9/20,21,65.1
271,F3,34.5,9/20,21,65.1
272,G#3,34.5,9/20,21,65.1
273,F5,34.562,0.062,43,65.1
274,E-5,34.625,0.062,54,65.1
275,F5,34.688,0.062,46,65.1
276,E-5,34.75,0.062,52,65.1
277,F5,34.812,0.062,44,65.1
278,E-5,34.875,21/500,47,65.1
279,D5,34.875,21/500,47,65.1
280,E-5,34.958,21/500,43,65.1
281,F5,35.0,0.5,54,65.1
282,B-2,35.0,9/20,18,65.1
283,F3,35.0,9/20,18,65.1
284,G#3,35.0,9/20,18,65.1
285,D5,35.5,0.5,47,65.1
286,B-2,35.5,9/20,17,65.1
287,F3,35.5,9/20,17,65.1
288,G#3,35.5,9/20,17,65.1
289,E-5,36.0,0.5,47,65.1
290,E-3,36.0,1.0,28,65.1
291,G3,36.0,1.0,28,65.1
292,B-4,36.5,9/20,43,65.1
293,B-4,37.0,9/20,43,65.1
294,B-4,37.5,0.5,49,65.1
295,C5,38.0,0.5,41,65.1
296,G#4,38.5,0.5,32,65.1
297,E-4,39.0,1.0,36,65.1
298,G4,39.0,0.5,43,65.1
299,B-2,39.0,1.5,26,65.1
300,B-3,39.0,1.0,31,65.1
301,G#4,39.5,0.5,37,65.1
302,G#3,40.0,0.5,29,65.1
303,D4,40.0,0.5,30,65.1
304,F4,40.0,0.5,30,65.1
305,E-4,40.5,0.5,47,65.1
306,E-3,40.5,1.0,28,65.1
307,G3,40.5,1.0,28,65.1
308,B-3,41.0,9/20,38,65.1
309,B-3,41.5,9/20,38,65.1
310,B-3,42.0,0.062,34,65.1
311,C4,42.062,0.062,27,65.1
312,B-3,42.125,0.062,34,65.1
313,C4,42.188,0.062,29,65.1
314,B-3,42.25,0.062,33,65.1
315,C4,42.312,0.062,27,65.1
316,B-3,42.375,21/500,30,65.1
317,A3,42.375,21/500,30,65.1
318,B-3,42.458,21/500,27,65.1
319,C4,42.5,0.5,34,65.1
320,G#3,43.0,0.5,28,65.1
321,E-3,43.5,1.0,28,65.1
322,G3,43.5,0.062,34,65.1
323,B-2,43.5,1.0,31,65.1
324,B-1,43.5,1.5,26,65.1
325,G#3,43.562,0.062,27,65.1
326,G3,43.625,0.062,34,65.1
327,G#3,43.688,0.062,29,65.1
328,G3,43.75,0.062,33,65.1
329,G#3,43.812,0.062,27,65.1
330,G3,43.875,21/500,30,65.1
331,F3,43.875,21/500,30,65.1
332,G3,43.958,21/500,27,65.1
333,G#3,44.0,0.5,34,65.1
334,F3,44.49,0.5,28,65.1
335,G#2,44.5,0.5,24,65.1
336,F3,44.5,0.5,24,65.1
337,E-3,45.0,1.0,28,65.1
338,E-2,45.0,1.0,22,65.1
339,G2,45.0,1.0,22,65.1
340,D3,46.0,0.5,36,65.1
341,F3,46.0,0.5,36,65.1
342,B-1,46.0,0.5,30,65.1
343,G#2,46.0,0.5,30,65.1
344,E-3,46.5,1.0,28,65.1
345,E-2,46.5,1.0,24,65.1
346,G2,46.5,1.0,24,65.1
347,D3,47.5,0.5,37,65.1
348,F3,47.5,0.5,37,65.1
349,B-1,47.5,0.5,31,65.1
350,G#2,47.5,0.5,31,65.1
351,E-3,48.0,1.0,28,65.1
352,E-2,48.0,1.0,23,65.1
353,G2,48.0,1.0,23,65.1
354,D3,49.0,229/500,38,65.1
355,F3,49.0,229/500,38,65.1
356,B-3,49.0,229/500,38,65.1
357,B-1,49.0,229/500,32,65.1
358,G#2,49.0,229/500,32,65.1
359,D3,49.5,1.5,25,65.1
360,F3,49.5,1.5,25,65.1
361,B-3,49.5,1.5,25,65.1
362,E-2,49.5,1.5,23,65.1
363,G#2,49.5,1.5,23,65.1
364,E-3,51.0,1.0,25,65.1
365,E-2,51.0,1.0,21,65.1
366,G2,51.0,1.0,21,65.1
367,G3,52.5,0.5,32,65.1
368,B-3,53.0,0.5,37,65.1
369,E-4,53.5,479/1000,42,65.1
370,E-2,54.0,0.5,32,65.1
371,G3,54.0,1979/1000,40,65.1
372,B-3,54.0,1979/1000,40,65.1
373,E-4,54.0,1979/1000,40,65.1
374,G4,54.0,1979/1000,40,65.1
375,G2,54.5,0.5,32,65.1
376,B-2,55.0,0.5,32,65.1
377,E-3,55.5,0.5,36,65.1
378,G3,56.0,0.5,38,65.1
379,B-3,56.0,479/1000,38,65.1
380,E-4,56.0,479/1000,38,65.1
381,G4,56.0,479/1000,38,65.1
382,B-3,56.5,479/1000,40,65.1
383,E-4,56.5,479/1000,38,65.1
384,G4,56.5,479/1000,38,65.1
385,E-4,57.0,1.0,23,65.1
386,G4,57.0,0.062,34,65.1
387,B-2,57.0,1.0,40,65.1
388,B-3,57.0,1.0,40,65.1
389,G#4,57.062,0.062,27,65.1
390,G4,57.125,0.062,34,65.1
391,G#4,57.188,0.062,29,65.1
392,G4,57.25,0.062,33,65.1
393,G#4,57.312,0.062,27,65.1
394,G4,57.375,21/500,30,65.1
395,F4,57.375,21/500,30,65.1
396,G4,57.458,21/500,27,65.1
397,F4,57.5,0.5,42,65.1
398,G#4,57.5,0.5,42,65.1
399,B-3,58.0,479/1000,34,65.1
400,D4,58.0,479/1000,34,65.1
401,F4,58.0,479/1000,34,65.1
402,B-2,58.0,479/1000,36,65.1
403,G#3,58.0,479/1000,36,65.1
404,B-3,58.5,2.0,28,65.1
405,E-3,58.5,2.0,32,65.1
406,G#3,58.5,1.5,38,65.1
407,D4,58.5,1.5,31,65.1
408,F4,58.5,1.5,31,65.1
409,E-4,60.0,0.5,32,65.1
410,G3,60.0,0.5,30,65.1
411,G3,61.5,0.5,40,65.1
412,B-3,61.5,0.5,40,65.1
413,B-3,62.0,0.5,44,65.1
414,E-4,62.0,0.5,44,65.1
415,E-4,62.5,479/1000,50,65.1
416,G4,62.5,479/1000,50,65.1
417,E-2,63.0,0.5,37,65.1
418,G4,63.0,3.5,56,65.1
419,B-4,63.0,3.5,56,65.1
420,G2,63.5,0.5,40,65.1
421,B-2,64.0,0.5,44,65.1
422,E-3,64.5,0.5,49,65.1
423,E-5,65.0,57/125,70,65.1
424,G3,65.0,0.5,53,65.1
425,E-5,65.5,57/125,64,65.1
426,B-3,65.5,479/1000,57,65.1
427,E-5,66.0,19/40,67,65.1
428,E-4,66.0,0.5,62,65.1
429,C4,66.5,0.5,58,65.1
430,F#4,66.5,19/40,48,65.1
431,A4,66.5,19/40,48,65.1
432,E-5,66.5,19/40,48,65.1
433,B-3,67.0,479/1000,54,65.1
434,E-5,67.0,479/1000,55,65.1
435,F#4,67.0,479/1000,55,65.1
436,B-4,67.0,479/1000,55,65.1
437,F#4,67.5,1.0,45,65.1
438,A3,67.5,1.5,53,65.1
439,C5,67.5,1.5,56,65.1
440,E-5,67.5,1.5,56,65.1
441,F4,68.5,0.5,38,65.1
442,G#3,69.0,1.5,43,65.1
443,F#4,69.5,0.5,34,65.1
444,C5,69.5,1.0,37,65.1
445,E-5,69.5,1.0,37,65.1
446,F4,70.0,0.5,29,65.1
447,B-3,70.5,1.5,40,65.1
448,F#4,71.0,0.5,34,65.1
449,B-4,71.0,1.0,37,65.1
450,C#5,71.0,1.0,37,65.1
451,F4,71.5,0.5,27,65.1
452,E-3,72.0,1.5,35,65.1
453,C#5,72.5,0.5,34,65.1
454,E-4,72.5,1.0,37,65.1
455,F#4,72.5,1.0,37,65.1
456,B4,73.0,0.5,34,65.1
457,E3,73.5,1.5,35,65.1
458,B4,74.0,0.5,34,65.1
459,C#4,74.0,1.0,37,65.1
460,G4,74.0,1.0,37,65.1
461,B-4,74.5,0.5,34,65.1
462,F3,75.0,1.5,35,65.1
463,B-4,75.5,0.5,34,65.1
464,C4,75.5,1.0,37,65.1
465,E-4,75.5,1.0,37,65.1
466,A4,76.0,0.5,34,65.1
467,B-1,76.5,4.5,35,65.1
468,D4,76.5,1.0,34,65.1
469,B-4,76.5,1.0,34,65.1
470,B-2,77.0,9/20,29,65.1
471,B-2,77.5,9/20,29,65.1
472,B-2,78.0,9/20,32,65.1
473,B-2,78.5,9/20,29,65.1
474,B-2,79.0,9/20,29,65.1
475,D5,79.5,1.0,57,65.1
476,B-2,79.5,9/20,32,65.1
477,B-2,80.0,9/20,27,65.1
478,C5,80.5,0.25,48,65.1
479,B-2,80.5,9/20,27,65.1
480,B-4,80.75,0.25,47,65.1
481,B-4,81.0,0.5,54,65.1
482,B-2,81.0,9/20,32,65.1
483,C4,81.0,979/1000,32,65.1
484,E-4,81.0,979/1000,32,65.1
485,A4,81.5,0.5,47,65.1
486,B-2,81.5,9/20,28,65.1
487,E-4,82.0,479/1000,37,65.1
488,B-2,82.0,9/20,28,65.1
489,B-3,82.0,0.25,47,65.1
490,G4,82.0,0.25,47,65.1
491,A3,82.25,229/1000,40,65.1
492,F4,82.25,229/1000,40,65.1
493,A3,82.5,1.0,48,65.1
494,E-4,82.5,3.0,35,65.1
495,F4,82.5,2.0,50,65.1
496,B-2,82.5,9/20,32,65.1
497,B-2,83.0,9/20,28,65.1
498,G3,83.5,0.25,45,65.1
499,B-2,83.5,9/20,28,65.1
500,F3,83.75,229/1000,38,65.1
501,F3,84.0,0.75,51,65.1
502,B-2,84.0,9/20,32,65.1
503,G4,84.5,0.5,44,65.1
504,B-2,84.5,9/20,28,65.1
505,E-3,84.75,0.25,38,65.1
506,D3,85.0,0.25,38,65.1
507,A4,85.0,0.5,46,65.1
508,B-2,85.0,9/20,28,65.1
509,E-3,85.25,0.25,38,65.1
510,B-4,85.5,0.25,51,65.1
511,D3,85.5,1.0,51,65.1
512,B-2,85.5,9/20,32,65.1
513,C5,85.75,83/1000,44,65.1
514,B-4,85.833,83/1000,38,65.1
515,A4,85.917,83/1000,38,65.1
516,B-4,86.0,0.25,51,65.1
517,B-2,86.0,9/20,28,65.1
518,C5,86.25,0.25,47,65.1
519,D5,86.5,0.25,49,65.1
520,B-2,86.5,9/20,28,65.1
521,E-5,86.75,0.188,50,65.1
522,D5,86.938,0.062,48,65.1
523,F5,87.0,1.5,57,65.1
524,B-2,87.0,9/20,32,65.1
525,B-2,87.5,9/20,28,65.1
526,B-2,88.0,9/20,28,65.1
527,E5,88.5,0.25,47,65.1
528,B-2,88.5,9/20,32,65.1
529,F5,88.75,0.25,52,65.1
530,G5,89.0,0.25,53,65.1
531,B-2,89.0,9/20,28,65.1
532,F5,89.25,0.25,51,65.1
533,E-5,89.5,0.25,53,65.1
534,B-2,89.5,9/20,28,65.1
535,D5,89.75,229/1000,51,65.1
536,D5,90.0,0.5,57,65.1
537,B-2,90.0,9/20,32,65.1
538,E-4,90.0,979/1000,32,65.1
539,G4,90.0,979/1000,32,65.1
540,C5,90.5,0.5,47,65.1
541,B-2,90.5,9/20,28,65.1
542,B-2,91.0,9/20,28,65.1
543,D4,91.0,0.25,43,65.1
544,B-4,91.0,0.25,43,65.1
545,F4,91.0,0.25,43,65.1
546,C4,91.25,229/1000,36,65.1
547,A4,91.25,229/1000,36,65.1
548,E-4,91.25,229/1000,36,65.1
549,B-2,91.5,9/20,32,65.1
550,C4,91.5,979/1000,42,65.1
551,A4,91.5,979/1000,42,65.1
552,E-4,91.5,979/1000,42,65.1
553,B-2,92.0,9/20,28,65.1
554,E-4,92.5,479/1000,35,65.1
555,B-2,92.5,9/20,28,65.1
556,B-3,92.5,0.25,48,65.1
557,G4,92.5,0.25,48,65.1
558,F4,92.75,229/1000,40,65.1
559,A3,92.75,229/1000,40,65.1
560,E-4,93.0,1.5,35,65.1
561,F4,93.0,0.5,54,65.1
562,A3,93.0,0.25,51,65.1
563,B-2,93.0,9/20,32,65.1
564,G3,93.25,0.25,38,65.1
565,F3,93.5,0.25,38,65.1
566,G4,93.5,0.5,44,65.1
567,B-2,93.5,9/20,28,65.1
568,E-3,93.75,0.25,38,65.1
569,D3,94.0,0.25,38,65.1
570,A4,94.0,0.5,46,65.1
571,B-2,94.0,9/20,28,65.1
572,C3,94.25,0.25,38,65.1
573,B-2,94.5,1.0,32,65.1
574,D4,94.5,0.5,54,65.1
575,B-4,94.5,0.5,54,65.1
576,C#5,95.0,0.5,40,65.1
577,D5,95.5,0.5,44,65.1
578,B-3,96.0,1.0,25,65.1
579,F3,96.0,1.0,25,65.1
580,D3,96.0,1.0,25,65.1
581,E5,96.5,0.5,41,65.1
582,F5,97.0,0.5,44,65.1
583,D4,97.5,1.0,25,65.1
584,F4,97.5,1.0,25,65.1
585,B-4,97.5,1.0,25,65.1
586,A5,98.0,0.5,40,65.1
587,B-5,98.5,0.5,44,65.1
588,E-4,99.0,1.0,25,65.1
589,G4,99.0,1.0,25,65.1
590,B-4,99.0,1.0,25,65.1
591,F#5,99.5,0.5,41,65.1
592,G5,100.0,0.5,44,65.1
593,E-4,100.5,1.0,25,65.1
594,B-3,100.5,1.0,25,65.1
595,G3,100.5,1.0,25,65.1
596,D5,101.0,0.5,40,65.1
597,E-5,101.5,0.5,42,65.1
598,E3,102.0,1.0,25,65.1
599,C4,102.0,1.0,25,65.1
600,B-3,102.0,1.0,25,65.1
601,B4,102.5,0.5,38,65.1
602,C5,103.0,0.5,42,65.1
603,F3,103.5,2979/1000,35,65.1
604,F5,104.0,1.25,59,65.1
605,D4,104.0,0.5,26,65.1
606,B-3,104.0,0.5,26,65.1
607,D4,104.5,0.5,28,65.1
608,B-3,104.5,0.5,28,65.1
609,B-3,105.0,0.5,36,65.1
610,D4,105.0,0.5,36,65.1
611,G5,105.25,0.125,60,65.1
612,A5,105.375,0.125,62,65.1
613,B-5,105.5,0.125,64,65.1
614,B-3,105.5,0.5,38,65.1
615,D4,105.5,0.5,38,65.1
616,C6,105.625,0.125,66,65.1
617,D6,105.75,0.125,68,65.1
618,E-6,105.875,0.125,70,65.1
619,F6,106.0,1.0,72,65.1
620,B-3,106.0,0.5,42,65.1
621,D4,106.0,0.5,42,65.1
622,F3,106.5,1.5,37,65.1
623,E-4,106.5,0.5,40,65.1
624,A3,106.5,0.5,40,65.1
625,E-6,107.0,0.5,70,65.1
626,A3,107.0,0.5,36,65.1
627,E-4,107.0,0.5,36,65.1
628,C6,107.5,0.5,66,65.1
629,A3,107.5,0.5,35,65.1
630,E-4,107.5,0.5,35,65.1
631,B-5,108.0,0.625,58,65.1
632,D4,108.0,1.0,39,65.1
633,B-3,108.0,1.0,39,65.1
634,A5,108.625,0.125,50,65.1
635,D6,108.75,69/500,57,65.1
636,C6,108.875,69/500,54,65.1
637,B-5,109.0,69/500,53,65.1
638,A5,109.125,69/500,51,65.1
639,G5,109.25,69/500,49,65.1
640,F5,109.375,69/500,47,65.1
641,E5,109.5,69/500,53,65.1
642,F5,109.625,69/500,51,65.1
643,B-5,109.75,69/500,59,65.1
644,A5,109.875,69/500,54,65.1
645,G5,110.0,69/500,54,65.1
646,F5,110.125,69/500,52,65.1
647,E-5,110.25,69/500,50,65.1
648,D5,110.375,69/500,50,65.1
649,C#5,110.5,69/500,52,65.1
650,D5,110.625,69/500,46,65.1
651,G5,110.75,69/500,56,65.1
652,F5,110.875,69/500,55,65.1
653,E-5,111.0,69/500,54,65.1
654,D5,111.125,69/500,52,65.1
655,C5,111.25,69/500,50,65.1
656,B-4,111.375,69/500,48,65.1
657,A4,111.5,69/500,46,65.1
658,B-4,111.625,69/500,45,65.1
659,E-5,111.75,69/500,52,65.1
660,D5,111.875,69/500,51,65.1
661,C5,112.0,69/500,49,65.1
662,B-4,112.125,69/500,47,65.1
663,A4,112.25,69/500,44,65.1
664,G4,112.375,0.125,42,65.1
665,E4,112.5,0.125,39,65.1
666,G4,112.5,3/250,42,65.1
667,F2,112.5,2979/1000,35,65.1
668,F4,112.625,0.125,39,65.1
669,F#4,112.75,0.125,40,65.1
670,G4,112.875,0.125,41,65.1
671,G#4,113.0,0.125,42,65.1
672,D3,113.0,0.5,26,65.1
673,B-2,113.0,0.5,26,65.1
674,A4,113.125,0.125,42,65.1
675,B-4,113.25,0.125,43,65.1
676,B4,113.375,0.125,44,65.1
677,C5,113.5,0.125,45,65.1
678,D3,113.5,0.5,28,65.1
679,B-2,113.5,0.5,28,65.1
680,C#5,113.625,0.125,45,65.1
681,D5,113.75,0.125,46,65.1
682,E-5,113.875,0.125,47,65.1
683,E5,114.0,0.125,49,65.1
684,B-2,114.0,0.5,34,65.1
685,D3,114.0,0.5,34,65.1
686,F5,114.125,0.125,50,65.1
687,F#5,114.25,0.125,52,65.1
688,G5,114.375,0.125,54,65.1
689,G#5,114.5,0.125,56,65.1
690,B-2,114.5,0.5,38,65.1
691,D3,114.5,0.5,38,65.1
692,A5,114.625,0.125,58,65.1
693,B-5,114.75,0.125,60,65.1
694,B5,114.875,0.125,61,65.1
695,C6,115.0,1/10,64,65.1
696,B-2,115.0,0.5,42,65.1
697,D3,115.0,0.5,42,65.1
698,C#6,115.1,1/10,65,65.1
699,D6,115.2,1/10,67,65.1
700,E-6,115.3,1/10,69,65.1
701,E6,115.4,1/10,70,65.1
702,F6,115.5,0.625,80,65.1
703,F2,115.5,1.5,45,65.1
704,E-3,115.5,0.5,50,65.1
705,A2,115.5,0.5,50,65.1
706,C3,116.0,0.5,36,65.1
707,E-3,116.0,0.5,36,65.1
708,E-6,116.125,0.125,69,65.1
709,C6,116.25,0.125,66,65.1
710,A5,116.375,0.125,63,65.1
711,F5,116.5,0.125,60,65.1
712,C3,116.5,0.5,35,65.1
713,E-3,116.5,0.5,35,65.1
714,E-5,116.625,0.125,57,65.1
715,C5,116.75,0.125,54,65.1
716,A4,116.875,0.125,51,65.1
717,B-4,117.0,1.0,56,65.1
718,B-2,117.0,0.5,44,65.1
719,D3,117.5,0.5,39,65.1
720,F3,118.0,0.5,39,65.1
721,B-3,118.5,0.5,44,65.1
722,D4,119.0,0.5,38,65.1
723,B-4,119.5,1.5,56,65.1
724,C#5,119.5,1.0,67,65.1
725,E4,119.5,0.5,38,65.1
726,F4,120.0,1.0,44,65.1
727,D5,120.5,0.5,54,65.1
728,A4,121.0,0.5,50,65.1
729,E-5,121.0,0.375,59,65.1
730,C4,121.0,0.375,44,65.1
731,F3,121.0,0.5,37,65.1
732,C5,121.375,0.125,53,65.1
733,E-4,121.375,0.125,40,65.1
734,B-1,121.5,0.5,44,65.1
735,D4,121.5,1.0,51,65.1
736,B-4,121.5,1.0,51,65.1
737,D2,122.0,0.5,39,65.1
738,F2,122.5,0.5,39,65.1
739,B-2,123.0,0.5,44,65.1
740,D3,123.5,0.5,38,65.1
741,C#4,124.0,1.0,60,65.1
742,B-3,124.0,1.5,50,65.1
743,E3,124.0,0.5,34,65.1
744,F3,124.5,1.0,39,65.1
745,D4,125.0,0.5,48,65.1
746,E-4,125.5,0.375,53,65.1
747,A3,125.5,0.5,45,65.1
748,C3,125.5,0.375,39,65.1
749,F2,125.5,0.5,33,65.1
750,C4,125.875,0.125,43,65.1
751,E-3,125.875,0.125,36,65.1
752,B-3,126.0,0.5,48,65.1
753,B-2,126.0,0.5,37,65.1
754,D3,126.0,0.5,37,65.1
755,A3,126.5,1.0,43,65.1
756,E-4,126.5,0.75,51,65.1
757,F2,126.5,1.0,33,65.1
758,C3,126.5,0.75,39,65.1
759,C4,127.25,0.25,44,65.1
760,E-3,127.25,0.25,34,65.1
761,B-3,127.5,0.5,48,65.1
762,B-2,127.5,0.5,37,65.1
763,D3,127.5,0.5,37,65.1
764,A3,128.0,1.0,43,65.1
765,E-4,128.0,0.75,51,65.1
766,F2,128.0,1.0,33,65.1
767,C3,128.0,0.75,39,65.1
768,C4,128.75,0.25,44,65.1
769,E-3,128.75,0.25,34,65.1
770,B-3,129.0,0.5,48,65.1
771,B-2,129.0,0.5,37,65.1
772,D3,129.0,0.5,37,65.1
773,E-4,129.5,0.25,59,65.1
774,A3,129.5,0.5,50,65.1
775,F2,129.5,0.5,38,65.1
776,C3,129.5,0.25,45,65.1
777,D4,129.75,0.25,55,65.1
778,B2,129.75,0.25,42,65.1
779,E-4,130.0,0.25,69,65.1
780,A3,130.0,0.5,51,65.1
781,F2,130.0,0.5,39,65.1
782,C3,130.0,0.25,52,65.1
783,C4,130.25,0.25,62,65.1
784,E-3,130.25,0.25,48,65.1
785,B3,130.5,83/1000,39,65.1
786,C4,130.583,83/1000,38,65.1
787,D4,130.667,83/1000,32,65.1
788,B-2,130.75,2.25,29,65.1
789,E-3,130.75,1.25,35,65.1
790,C4,130.75,1.25,38,65.1
791,A3,130.75,1.25,38,65.1
792,B-3,132.0,1.0,39,65.1
793,D3,132.0,1.0,35,65.1
794,G2,135.0,9/20,23,65.1
795,G1,135.0,9/20,23,65.1
796,G1,135.5,9/20,19,65.1
797,G2,135.5,9/20,19,65.1
798,G1,136.0,9/20,19,65.1
799,G2,136.0,9/20,19,65.1
800,G1,136.5,9/20,19,65.1
801,G2,136.5,9/20,19,65.1
802,G1,137.0,9/20,19,65.1
803,G2,137.0,9/20,19,65.1
804,G1,137.5,9/20,19,65.1
805,G2,137.5,9/20,19,65.1
806,B3,138.0,0.375,33,65.1
807,G1,138.0,9/20,19,65.1
808,G2,138.0,9/20,19,65.1
809,C4,138.375,0.125,28,65.1
810,B3,138.5,0.25,34,65.1
811,G1,138.5,9/20,19,65.1
812,G2,138.5,9/20,19,65.1
813,A3,138.75,0.25,29,65.1
814,B3,139.0,0.25,38,65.1
815,G1,139.0,9/20,19,65.1
816,G2,139.0,9/20,19,65.1
817,C4,139.25,0.25,37,65.1
818,C#4,139.5,1.5,34,65.1
819,F3,139.5,2.5,25,65.1
820,G#3,139.5,2.5,25,65.1
821,B3,139.5,2.5,25,65.1
822,G2,139.5,9/20,23,65.1
823,G1,139.5,9/20,23,65.1
824,G1,140.0,9/20,19,65.1
825,G2,140.0,9/20,19,65.1
826,G1,140.5,9/20,19,65.1
827,G2,140.5,9/20,19,65.1
828,D4,141.0,1.0,34,65.1
829,G1,141.0,9/20,19,65.1
830,G2,141.0,9/20,19,65.1
831,G1,141.5,9/20,19,65.1
832,G2,141.5,9/20,19,65.1
833,G1,142.0,9/20,19,65.1
834,G2,142.0,9/20,19,65.1
835,G1,142.5,9/20,19,65.1
836,G2,142.5,9/20,19,65.1
837,E-4,142.875,0.125,28,65.1
838,D4,143.0,0.25,38,65.1
839,G1,143.0,9/20,19,65.1
840,G2,143.0,9/20,19,65.1
841,C#4,143.25,0.25,33,65.1
842,D4,143.5,0.25,39,65.1
843,G1,143.5,9/20,19,65.1
844,G2,143.5,9/20,19,65.1
845,E-4,143.75,0.25,41,65.1
846,E4,144.0,1.5,34,65.1
847,D4,144.0,2.5,25,65.1
848,G#3,144.0,2.5,25,65.1
849,B3,144.0,2.5,25,65.1
850,G2,144.0,9/20,23,65.1
851,G1,144.0,9/20,23,65.1
852,G1,144.5,9/20,19,65.1
853,G2,144.5,9/20,19,65.1
854,G1,145.0,9/20,19,65.1
855,G2,145.0,9/20,19,65.1
856,F4,145.5,1.0,34,65.1
857,G1,145.5,9/20,19,65.1
858,G2,145.5,9/20,19,65.1
859,G1,146.0,9/20,19,65.1
860,G2,146.0,9/20,19,65.1
861,G1,146.5,9/20,19,65.1
862,G2,146.5,9/20,19,65.1
863,G1,147.0,9/20,19,65.1
864,G2,147.0,9/20,19,65.1
865,C5,147.375,0.125,42,65.1
866,C4,147.375,0.125,42,65.1
867,B3,147.5,0.25,48,65.1
868,B4,147.5,0.25,48,65.1
869,G1,147.5,9/20,19,65.1
870,G2,147.5,9/20,19,65.1
871,A3,147.75,0.25,47,65.1
872,A4,147.75,0.25,47,65.1
873,B3,148.0,0.25,54,65.1
874,B4,148.0,0.25,54,65.1
875,G1,148.0,9/20,19,65.1
876,G2,148.0,9/20,19,65.1
877,C5,148.25,0.25,56,65.1
878,C4,148.25,0.25,56,65.1
879,C#5,148.5,1.5,64,65.1
880,C#4,148.5,1.5,64,65.1
881,G1,148.5,0.5,54,65.1
882,G2,148.5,0.5,54,65.1
883,G2,149.0,9/20,22,65.1
884,B2,149.0,9/20,22,65.1
885,D3,149.0,9/20,22,65.1
886,F3,149.0,9/20,22,65.1
887,G2,149.5,9/20,22,65.1
888,B2,149.5,9/20,22,65.1
889,D3,149.5,9/20,22,65.1
890,F3,149.5,9/20,22,65.1
891,D4,150.0,0.375,45,65.1
892,D5,150.0,0.375,45,65.1
893,G2,150.0,9/20,24,65.1
894,B2,150.0,9/20,24,65.1
895,D3,150.0,9/20,24,65.1
896,F3,150.0,9/20,24,65.1
897,E-5,150.375,0.125,52,65.1
898,D5,150.5,0.25,57,65.1
899,G2,150.5,9/20,22,65.1
900,B2,150.5,9/20,22,65.1
901,D3,150.5,9/20,22,65.1
902,F3,150.5,9/20,22,65.1
903,C#5,150.75,0.25,52,65.1
904,D5,151.0,0.25,52,65.1
905,G2,151.0,9/20,22,65.1
906,B2,151.0,9/20,22,65.1
907,D3,151.0,9/20,22,65.1
908,F3,151.0,9/20,22,65.1
909,E-5,151.25,0.25,52,65.1
910,F5,151.5,0.25,58,65.1
911,G2,151.5,9/20,26,65.1
912,B2,151.5,9/20,26,65.1
913,D3,151.5,9/20,26,65.1
914,F3,151.5,9/20,26,65.1
915,G5,151.75,0.25,55,65.1
916,G#5,152.0,0.25,62,65.1
917,G2,152.0,9/20,25,65.1
918,B2,152.0,9/20,25,65.1
919,D3,152.0,9/20,25,65.1
920,F3,152.0,9/20,25,65.1
921,G5,152.25,0.25,55,65.1
922,G#5,152.5,0.25,66,65.1
923,G2,152.5,9/20,26,65.1
924,B2,152.5,9/20,26,65.1
925,D3,152.5,9/20,26,65.1
926,F3,152.5,9/20,26,65.1
927,F5,152.75,0.25,60,65.1
928,F5,153.0,1.5,70,65.1
929,C2,153.0,0.5,54,65.1
930,C3,153.0,0.5,54,65.1
931,C3,153.5,9/20,22,65.1
932,G3,153.5,9/20,22,65.1
933,B-3,153.5,9/20,22,65.1
934,C3,154.0,9/20,22,65.1
935,G3,154.0,9/20,22,65.1
936,B-3,154.0,9/20,22,65.1
937,G4,154.5,0.375,45,65.1
938,E5,154.5,0.375,45,65.1
939,C3,154.5,9/20,25,65.1
940,G3,154.5,9/20,25,65.1
941,B-3,154.5,9/20,25,65.1
942,G#4,154.875,0.125,48,65.1
943,G4,155.0,0.25,52,65.1
944,C3,155.0,9/20,22,65.1
945,G3,155.0,9/20,22,65.1
946,B-3,155.0,9/20,22,65.1
947,F#4,155.25,0.25,48,65.1
948,G4,155.5,0.25,48,65.1
949,C3,155.5,9/20,22,65.1
950,G3,155.5,9/20,22,65.1
951,B-3,155.5,9/20,22,65.1
952,A4,155.75,0.25,48,65.1
953,B-4,156.0,0.25,55,65.1
954,C3,156.0,9/20,26,65.1
955,G3,156.0,9/20,26,65.1
956,B-3,156.0,9/20,26,65.1
957,C5,156.25,0.25,50,65.1
958,C#5,156.5,0.25,64,65.1
959,C3,156.5,9/20,25,65.1
960,G3,156.5,9/20,25,65.1
961,B-3,156.5,9/20,25,65.1
962,C5,156.75,0.25,60,65.1
963,C#5,157.0,0.25,68,65.1
964,C3,157.0,9/20,26,65.1
965,G3,157.0,9/20,26,65.1
966,B-3,157.0,9/20,26,65.1
967,B-4,157.25,0.25,64,65.1
968,B-4,157.5,1.5,70,65.1
969,F2,157.5,0.5,54,65.1
970,F3,157.5,0.5,54,65.1
971,F3,158.0,9/20,22,65.1
972,C4,158.0,9/20,22,65.1
973,E-4,158.0,9/20,22,65.1
974,F3,158.5,9/20,22,65.1
975,C4,158.5,9/20,22,65.1
976,E-4,158.5,9/20,22,65.1
977,C5,159.0,0.375,45,65.1
978,A4,159.0,0.375,45,65.1
979,F3,159.0,9/20,25,65.1
980,C4,159.0,9/20,25,65.1
981,E-4,159.0,9/20,25,65.1
982,C#5,159.375,0.125,48,65.1
983,C5,159.5,0.25,52,65.1
984,F3,159.5,9/20,22,65.1
985,C4,159.5,9/20,22,65.1
986,E-4,159.5,9/20,22,65.1
987,B4,159.75,0.25,48,65.1
988,C5,160.0,0.25,48,65.1
989,F3,160.0,9/20,22,65.1
990,C4,160.0,9/20,22,65.1
991,E-4,160.0,9/20,22,65.1
992,D5,160.25,0.25,48,65.1
993,E-5,160.5,0.25,60,65.1
994,F3,160.5,9/20,26,65.1
995,C4,160.5,9/20,26,65.1
996,E-4,160.5,9/20,26,65.1
997,F5,160.75,0.25,56,65.1
998,F#5,161.0,0.25,64,65.1
999,F3,161.0,9/20,26,65.1
1000,C4,161.0,9/20,26,65.1
1001,E-4,161.0,9/20,26,65.1
1002,F5,161.25,0.25,58,65.1
1003,F#5,161.5,0.25,67,65.1
1004,F3,161.5,9/20,28,65.1
1005,C4,161.5,9/20,28,65.1
1006,E-4,161.5,9/20,28,65.1
1007,E-5,161.75,0.25,64,65.1
1008,E-5,162.0,1.5,70,65.1
1009,B-1,162.0,0.5,54,65.1
1010,B-2,162.0,0.5,54,65.1
1011,B-2,162.5,9/20,22,65.1
1012,F3,162.5,9/20,22,65.1
1013,G#3,162.5,9/20,22,65.1
1014,B-2,163.0,9/20,22,65.1
1015,F3,163.0,9/20,22,65.1
1016,G#3,163.0,9/20,22,65.1
1017,F4,163.5,0.375,45,65.1
1018,D5,163.5,0.375,45,65.1
1019,B-2,163.5,9/20,25,65.1
1020,F3,163.5,9/20,25,65.1
1021,G#3,163.5,9/20,25,65.1
1022,F#4,163.875,0.125,48,65.1
1023,F4,164.0,0.25,52,65.1
1024,B-2,164.0,9/20,22,65.1
1025,F3,164.0,9/20,22,65.1
1026,G#3,164.0,9/20,22,65.1
1027,E4,164.25,0.25,48,65.1
1028,F4,164.5,0.25,48,65.1
1029,B-2,164.5,9/20,22,65.1
1030,F3,164.5,9/20,22,65.1
1031,G#3,164.5,9/20,22,65.1
1032,G4,164.75,0.25,48,65.1
1033,G#4,165.0,0.25,60,65.1
1034,B-2,165.0,9/20,26,65.1
1035,F3,165.0,9/20,26,65.1
1036,G#3,165.0,9/20,26,65.1
1037,B-4,165.25,0.25,54,65.1
1038,B4,165.5,0.25,64,65.1
1039,B-2,165.5,9/20,25,65.1
1040,F3,165.5,9/20,25,65.1
1041,G#3,165.5,9/20,25,65.1
1042,B-4,165.75,0.25,56,65.1
1043,B4,166.0,0.25,67,65.1
1044,B-2,166.0,9/20,26,65.1
1045,F3,166.0,9/20,26,65.1
1046,G#3,166.0,9/20,26,65.1
1047,G#4,166.25,0.25,59,65.1
1048,G#4,166.5,1.5,70,65.1
1049,E-2,166.5,0.5,54,65.1
1050,E-3,166.5,0.5,54,65.1
1051,E-3,167.0,9/20,22,65.1
1052,B-3,167.0,9/20,22,65.1
1053,C#4,167.0,9/20,22,65.1
1054,E-3,167.5,9/20,22,65.1
1055,B-3,167.5,9/20,22,65.1
1056,C#4,167.5,9/20,22,65.1
1057,G4,168.0,1979/1000,41,65.1
1058,B-4,168.0,0.375,49,65.1
1059,E-3,168.0,9/20,25,65.1
1060,B-3,168.0,9/20,25,65.1
1061,C#4,168.0,9/20,25,65.1
1062,B4,168.375,0.125,48,65.1
1063,B-4,168.5,0.25,53,65.1
1064,E-3,168.5,9/20,22,65.1
1065,B-3,168.5,9/20,22,65.1
1066,C#4,168.5,9/20,22,65.1
1067,A4,168.75,0.25,49,65.1
1068,B-4,169.0,0.25,50,65.1
1069,E-3,169.0,9/20,23,65.1
1070,B-3,169.0,9/20,23,65.1
1071,C#4,169.0,9/20,23,65.1
1072,B4,169.25,0.25,50,65.1
1073,C#5,169.5,0.25,64,65.1
1074,E-3,169.5,9/20,28,65.1
1075,B-3,169.5,9/20,28,65.1
1076,C#4,169.5,9/20,28,65.1
1077,E-5,169.75,0.25,60,65.1
1078,E5,170.0,0.25,70,65.1
1079,G4,170.0,9/20,45,65.1
1080,E-3,170.0,9/20,30,65.1
1081,B-3,170.0,9/20,30,65.1
1082,C#4,170.0,9/20,30,65.1
1083,E-5,170.25,0.25,64,65.1
1084,G4,170.5,0.5,45,65.1
1085,E5,170.5,0.25,75,65.1
1086,E-3,170.5,9/20,32,65.1
1087,B-3,170.5,9/20,32,65.1
1088,C#4,170.5,9/20,32,65.1
1089,C#5,170.75,0.25,69,65.1
1090,G#4,171.0,1.0,49,65.1
1091,B4,171.0,0.25,49,65.1
1092,E-3,171.0,1.0,26,65.1
1093,B3,171.0,1.0,26,65.1
1094,E-4,171.0,1.0,26,65.1
1095,C#5,171.25,0.25,46,65.1
1096,E-5,171.5,0.25,52,65.1
1097,C#5,171.75,0.25,45,65.1
1098,E-5,172.0,0.25,51,65.1
1099,B4,172.25,0.25,48,65.1
1100,B-4,172.5,0.25,49,65.1
1101,C#4,172.5,0.25,41,65.1
1102,B4,172.75,0.25,44,65.1
1103,E-4,172.75,0.25,34,65.1
1104,C#5,173.0,0.25,52,65.1
1105,E4,173.0,0.25,41,65.1
1106,B4,173.25,0.25,46,65.1
1107,E-4,173.25,0.25,36,65.1
1108,C#5,173.5,0.25,49,65.1
1109,E4,173.5,0.25,41,65.1
1110,B-4,173.75,0.25,42,65.1
1111,C#4,173.75,0.25,37,65.1
1112,G#4,174.0,0.25,49,65.1
1113,B3,174.0,0.25,41,65.1
1114,B-4,174.25,0.25,45,65.1
1115,C#4,174.25,0.25,38,65.1
1116,B4,174.5,0.25,49,65.1
1117,E-5,174.5,479/1000,60,65.1
1118,E-4,174.5,0.25,41,65.1
1119,B-4,174.75,0.25,45,65.1
1120,C#4,174.75,0.25,35,65.1
1121,B4,175.0,0.25,49,65.1
1122,E-5,175.0,0.5,60,65.1
1123,E-4,175.0,0.25,41,65.1
1124,G#4,175.25,0.25,45,65.1
1125,B3,175.25,0.25,35,65.1
1126,E5,175.5,1.0,65,65.1
1127,G4,175.5,0.25,44,65.1
1128,B-3,175.5,0.25,41,65.1
1129,G#4,175.75,0.25,41,65.1
1130,B3,175.75,0.25,34,65.1
1131,B-4,176.0,0.25,46,65.1
1132,C#4,176.0,0.25,41,65.1
1133,G#4,176.25,0.25,40,65.1
1134,B3,176.25,0.25,36,65.1
1135,B-4,176.5,0.25,45,65.1
1136,E-5,176.5,0.5,60,65.1
1137,C#4,176.5,0.25,41,65.1
1138,G4,176.75,0.25,43,65.1
1139,B-3,176.75,0.25,37,65.1
1140,G#4,177.0,0.25,44,65.1
1141,B3,177.0,0.25,41,65.1
1142,B-4,177.25,0.25,39,65.1
1143,C#4,177.25,0.25,34,65.1
1144,B4,177.5,0.25,46,65.1
1145,E-4,177.5,0.25,41,65.1
1146,B-4,177.75,0.25,41,65.1
1147,C#4,177.75,0.25,36,65.1
1148,B4,178.0,0.25,44,65.1
1149,E-4,178.0,0.25,41,65.1
1150,G#4,178.25,0.25,37,65.1
1151,B3,178.25,0.25,37,65.1
1152,F4,178.5,0.25,44,65.1
1153,G#3,178.5,0.25,41,65.1
1154,F#4,178.75,0.25,40,65.1
1155,B-3,178.75,0.25,38,65.1
1156,D5,179.0,479/1000,60,65.1
1157,G#4,179.0,0.25,44,65.1
1158,B3,179.0,0.25,41,65.1
1159,F#4,179.25,0.25,40,65.1
1160,B-3,179.25,0.25,35,65.1
1161,D5,179.5,0.5,60,65.1
1162,G#4,179.5,0.25,44,65.1
1163,B3,179.5,0.25,41,65.1
1164,F4,179.75,0.25,40,65.1
1165,G#3,179.75,0.25,35,65.1
1166,E-5,180.0,1.0,65,65.1
1167,E-4,180.0,0.25,44,65.1
1168,F#3,180.0,0.25,41,65.1
1169,F4,180.25,0.25,41,65.1
1170,G#3,180.25,0.25,34,65.1
1171,F#4,180.5,0.25,46,65.1
1172,B-3,180.5,0.25,41,65.1
1173,F4,180.75,0.25,40,65.1
1174,G#3,180.75,0.25,36,65.1
1175,B-4,181.0,0.5,60,65.1
1176,F#4,181.0,0.25,45,65.1
1177,B-3,181.0,0.25,41,65.1
1178,E-4,181.25,0.25,43,65.1
1179,F#3,181.25,0.25,37,65.1
1180,D4,181.5,0.25,44,65.1
1181,F3,181.5,0.25,41,65.1
1182,E-4,181.75,0.25,39,65.1
1183,F#3,181.75,0.25,34,65.1
1184,F4,182.0,0.25,46,65.1
1185,G#3,182.0,0.25,41,65.1
1186,E-4,182.25,0.25,41,65.1
1187,F#3,182.25,0.25,36,65.1
1188,F4,182.5,0.25,44,65.1
1189,G#3,182.5,0.25,41,65.1
1190,D4,182.75,0.25,37,65.1
1191,F3,182.75,0.25,37,65.1
1192,E-4,183.0,0.25,44,65.1
1193,F#3,183.0,0.25,41,65.1
1194,F4,183.25,0.25,40,65.1
1195,G#3,183.25,0.25,38,65.1
1196,F#4,183.5,0.25,44,65.1
1197,B-4,183.5,479/1000,60,65.1
1198,B-3,183.5,0.25,41,65.1
1199,F4,183.75,0.25,40,65.1
1200,G#3,183.75,0.25,35,65.1
1201,B-4,184.0,0.5,60,65.1
1202,F#4,184.0,0.25,44,65.1
1203,B-3,184.0,0.25,41,65.1
1204,E-4,184.25,0.25,40,65.1
1205,F#3,184.25,0.25,35,65.1
1206,B4,184.5,1.0,65,65.1
1207,F4,184.5,0.25,44,65.1
1208,D3,184.5,0.25,41,65.1
1209,F#4,184.75,0.25,41,65.1
1210,E-3,184.75,0.25,34,65.1
1211,G#4,185.0,0.25,46,65.1
1212,F3,185.0,0.25,41,65.1
1213,F#4,185.25,0.25,40,65.1
1214,E-3,185.25,0.25,36,65.1
1215,B-4,185.5,0.5,60,65.1
1216,G#4,185.5,0.25,45,65.1
1217,F3,185.5,0.25,41,65.1
1218,F4,185.75,0.25,43,65.1
1219,D3,185.75,0.25,37,65.1
1220,F#4,186.0,0.25,44,65.1
1221,E-3,186.0,0.25,41,65.1
1222,G#4,186.25,0.25,39,65.1
1223,F3,186.25,0.25,34,65.1
1224,B-4,186.5,0.25,46,65.1
1225,F#3,186.5,0.25,41,65.1
1226,G#4,186.75,0.25,41,65.1
1227,F3,186.75,0.25,36,65.1
1228,B-4,187.0,0.25,44,65.1
1229,F#3,187.0,0.25,41,65.1
1230,F#4,187.25,0.25,37,65.1
1231,E-3,187.25,0.25,37,65.1
1232,E-4,187.5,0.25,44,65.1
1233,C3,187.5,0.25,41,65.1
1234,F4,187.75,0.25,40,65.1
1235,D3,187.75,0.25,38,65.1
1236,F#4,188.0,0.25,44,65.1
1237,A4,188.0,479/1000,60,65.1
1238,E-3,188.0,0.25,41,65.1
1239,F4,188.25,0.25,40,65.1
1240,D3,188.25,0.25,35,65.1
1241,F#4,188.5,0.25,44,65.1
1242,A4,188.5,0.5,60,65.1
1243,E-3,188.5,0.25,41,65.1
1244,E-4,188.75,0.25,40,65.1
1245,B2,188.75,0.25,35,65.1
1246,B-4,189.0,3.5,65,65.1
1247,D4,189.0,0.25,44,65.1
1248,B-2,189.0,1.25,41,65.1
1249,E-4,189.25,0.25,41,65.1
1250,C3,189.25,0.25,34,65.1
1251,F4,189.5,0.25,46,65.1
1252,D3,189.5,0.25,41,65.1
1253,E-4,189.75,0.25,40,65.1
1254,C3,189.75,0.25,36,65.1
1255,D4,190.0,0.25,45,65.1
1256,B-2,190.0,2479/1000,41,65.1
1257,E-4,190.25,0.25,43,65.1
1258,C3,190.25,0.25,37,65.1
1259,F4,190.5,0.25,44,65.1
1260,D3,190.5,0.25,41,65.1
1261,F#4,190.75,0.25,39,65.1
1262,E-3,190.75,0.25,34,65.1
1263,G#4,191.0,0.25,46,65.1
1264,F3,191.0,0.25,41,65.1
1265,F#4,191.25,0.25,41,65.1
1266,E-3,191.25,0.25,36,65.1
1267,F4,191.5,0.25,44,65.1
1268,D3,191.5,0.25,41,65.1
1269,G#4,191.75,0.25,37,65.1
1270,F3,191.75,0.25,37,65.1
1271,F#4,192.0,0.25,44,65.1
1272,E-3,192.0,0.25,41,65.1
1273,F4,192.25,0.25,40,65.1
1274,D3,192.25,0.25,38,65.1
1275,A4,192.5,479/1000,60,65.1
1276,E-4,192.5,0.25,44,65.1
1277,B-2,192.5,479/1000,39,65.1
1278,C3,192.5,0.25,41,65.1
1279,F4,192.75,0.25,40,65.1
1280,D3,192.75,0.25,35,65.1
1281,A4,193.0,0.5,60,65.1
1282,F#4,193.0,0.25,44,65.1
1283,B-2,193.0,479/1000,39,65.1
1284,E-3,193.0,0.25,41,65.1
1285,E-4,193.25,0.25,40,65.1
1286,C3,193.25,0.25,35,65.1
1287,B-3,193.5,0.25,44,65.1
1288,B-4,193.5,3.5,65,65.1
1289,D3,193.5,0.25,41,65.1
1290,B-2,193.5,3479/1000,41,65.1
1291,C4,193.75,0.25,41,65.1
1292,E-3,193.75,0.25,34,65.1
1293,D4,194.0,0.25,46,65.1
1294,F3,194.0,0.25,41,65.1
1295,C4,194.25,0.25,40,65.1
1296,E-3,194.25,0.25,36,65.1
1297,B-3,194.5,0.25,45,65.1
1298,D3,194.5,0.25,41,65.1
1299,C4,194.75,0.25,43,65.1
1300,E-3,194.75,0.25,37,65.1
1301,D4,195.0,0.25,44,65.1
1302,F3,195.0,0.25,41,65.1
1303,E-4,195.25,0.25,39,65.1
1304,F#3,195.25,0.25,34,65.1
1305,F4,195.5,0.25,46,65.1
1306,G#3,195.5,0.25,41,65.1
1307,E-4,195.75,0.25,41,65.1
1308,F#3,195.75,0.25,36,65.1
1309,D4,196.0,0.25,44,65.1
1310,F3,196.0,0.25,41,65.1
1311,F4,196.25,0.25,37,65.1
1312,G#3,196.25,0.25,37,65.1
1313,E-4,196.5,0.25,44,65.1
1314,F#3,196.5,0.25,41,65.1
1315,D4,196.75,0.25,40,65.1
1316,F3,196.75,0.25,38,65.1
1317,A4,197.0,479/1000,60,65.1
1318,C4,197.0,0.25,44,65.1
1319,B-2,197.0,479/1000,39,65.1
1320,E-3,197.0,0.25,41,65.1
1321,D4,197.25,0.25,40,65.1
1322,F3,197.25,0.25,35,65.1
1323,E-4,197.5,0.25,44,65.1
1324,A4,197.5,0.5,60,65.1
1325,B-2,197.5,479/1000,39,65.1
1326,F#3,197.5,0.25,41,65.1
1327,C4,197.75,0.25,40,65.1
1328,E-3,197.75,0.25,35,65.1
1329,B-3,198.0,0.25,44,65.1
1330,B-2,198.0,1.0,39,65.1
1331,D3,198.0,1.0,39,65.1
1332,F3,198.0,1.0,39,65.1
1333,C4,198.25,0.25,37,65.1
1334,D4,198.5,0.25,44,65.1
1335,C#4,198.75,0.25,38,65.1
1336,D4,199.0,0.25,41,65.1
1337,B-3,199.25,0.25,34,65.1
1338,D4,199.5,11/40,44,65.1
1339,E4,199.75,11/40,39,65.1
1340,F4,200.0,11/40,40,65.1
1341,E4,200.25,11/40,33,65.1
1342,F4,200.5,11/40,39,65.1
1343,D4,200.75,11/40,34,65.1
1344,F4,201.0,11/40,47,65.1
1345,G4,201.25,11/40,43,65.1
1346,G#4,201.5,11/40,50,65.1
1347,G4,201.75,11/40,42,65.1
1348,G#4,202.0,11/40,53,65.1
1349,F4,202.25,0.25,37,65.1
1350,G#4,202.5,11/40,41,65.1
1351,F4,202.5,1/40,37,65.1
1352,B4,202.75,11/40,36,65.1
1353,C5,203.0,11/40,41,65.1
1354,B4,203.25,11/40,37,65.1
1355,D5,203.5,11/40,41,65.1
1356,C5,203.75,11/40,36,65.1
1357,B-4,204.0,11/40,41,65.1
1358,G#4,204.25,11/40,36,65.1
1359,G4,204.5,11/40,41,65.1
1360,F4,204.75,11/40,35,65.1
1361,E4,205.0,11/40,35,65.1
1362,F4,205.25,11/40,29,65.1
1363,G4,205.5,11/40,41,65.1
1364,F4,205.75,11/40,36,65.1
1365,G#4,206.0,11/40,41,65.1
1366,F4,206.25,11/40,32,65.1
1367,C4,206.5,11/40,38,65.1
1368,D4,206.75,0.25,32,65.1
1369,E-4,207.0,1.0,38,65.1
1370,E-2,207.0,9/20,25,65.1
1371,B-3,207.5,9/20,18,65.1
1372,G3,207.5,9/20,18,65.1
1373,E-3,207.5,9/20,18,65.1
1374,E-3,208.0,9/20,18,65.1
1375,G3,208.0,9/20,18,65.1
1376,B-3,208.0,9/20,18,65.1
1377,E-3,208.5,9/20,20,65.1
1378,G3,208.5,9/20,20,65.1
1379,B-3,208.5,9/20,20,65.1
1380,G3,209.0,9/20,18,65.1
1381,E-3,209.0,9/20,18,65.1
1382,B-3,209.0,9/20,18,65.1
1383,E-3,209.5,9/20,18,65.1
1384,G3,209.5,9/20,18,65.1
1385,B-3,209.5,9/20,18,65.1
1386,G4,210.0,0.375,38,65.1
1387,B-3,210.0,9/20,21,65.1
1388,G3,210.0,9/20,21,65.1
1389,E-3,210.0,9/20,21,65.1
1390,G#4,210.375,0.125,36,65.1
1391,G4,210.5,0.25,39,65.1
1392,E-3,210.5,9/20,18,65.1
1393,G3,210.5,9/20,18,65.1
1394,B-3,210.5,9/20,18,65.1
1395,F4,210.75,0.25,36,65.1
1396,G4,211.0,0.25,40,65.1
1397,E-3,211.0,9/20,18,65.1
1398,G3,211.0,9/20,18,65.1
1399,B-3,211.0,9/20,18,65.1
1400,G#4,211.25,0.25,36,65.1
1401,A4,211.5,1.5,44,65.1
1402,G3,211.5,9/20,22,65.1
1403,E-3,211.5,9/20,22,65.1
1404,B-3,211.5,9/20,22,65.1
1405,E-3,212.0,9/20,18,65.1
1406,G3,212.0,9/20,18,65.1
1407,B-3,212.0,9/20,18,65.1
1408,B-3,212.5,9/20,18,65.1
1409,G3,212.5,9/20,18,65.1
1410,E-3,212.5,9/20,18,65.1
1411,B-4,213.0,1.875,51,65.1
1412,E-3,213.0,9/20,20,65.1
1413,G3,213.0,9/20,20,65.1
1414,B-3,213.0,9/20,20,65.1
1415,E-3,213.5,9/20,18,65.1
1416,G3,213.5,9/20,18,65.1
1417,B-3,213.5,9/20,18,65.1
1418,G3,214.0,9/20,18,65.1
1419,E-3,214.0,9/20,18,65.1
1420,B-3,214.0,9/20,18,65.1
1421,E-3,214.5,9/20,21,65.1
1422,G3,214.5,9/20,21,65.1
1423,B-3,214.5,9/20,21,65.1
1424,C5,214.875,0.125,39,65.1
1425,B-4,215.0,0.25,49,65.1
1426,B-3,215.0,9/20,18,65.1
1427,G3,215.0,9/20,18,65.1
1428,E-3,215.0,9/20,18,65.1
1429,A4,215.25,0.25,42,65.1
1430,B-4,215.5,0.25,51,65.1
1431,E-3,215.5,9/20,18,65.1
1432,G3,215.5,9/20,18,65.1
1433,B-3,215.5,9/20,18,65.1
1434,B4,215.75,0.25,46,65.1
1435,B4,216.0,0.875,50,65.1
1436,D3,216.0,9/20,22,65.1
1437,G#3,216.0,9/20,22,65.1
1438,B-3,216.0,9/20,22,65.1
1439,G#3,216.5,9/20,18,65.1
1440,D3,216.5,9/20,18,65.1
1441,B-3,216.5,9/20,18,65.1
1442,C5,216.75,0.062,39,65.1
1443,B4,216.812,0.062,33,65.1
1444,A4,216.875,0.062,41,65.1
1445,B4,216.938,0.062,37,65.1
1446,D5,217.0,0.375,53,65.1
1447,D3,217.0,9/20,18,65.1
1448,G#3,217.0,9/20,18,65.1
1449,B-3,217.0,9/20,18,65.1
1450,C5,217.375,0.125,44,65.1
1451,F4,217.5,1.875,55,65.1
1452,B-3,217.5,9/20,20,65.1
1453,G#3,217.5,9/20,20,65.1
1454,D3,217.5,9/20,20,65.1
1455,D3,218.0,9/20,18,65.1
1456,G#3,218.0,9/20,18,65.1
1457,B-3,218.0,9/20,18,65.1
1458,D3,218.5,9/20,18,65.1
1459,G#3,218.5,9/20,18,65.1
1460,B-3,218.5,9/20,18,65.1
1461,G#3,219.0,9/20,21,65.1
1462,D3,219.0,9/20,21,65.1
1463,B-3,219.0,9/20,21,65.1
1464,G4,219.375,0.125,39,65.1
1465,F4,219.5,0.25,46,65.1
1466,D3,219.5,9/20,18,65.1
1467,G#3,219.5,9/20,18,65.1
1468,B-3,219.5,9/20,18,65.1
1469,E4,219.75,0.25,42,65.1
1470,F4,220.0,0.25,49,65.1
1471,B-3,220.0,9/20,18,65.1
1472,G#3,220.0,9/20,18,65.1
1473,D3,220.0,9/20,18,65.1
1474,G4,220.25,0.25,46,65.1
1475,G#4,220.5,1.625,55,65.1
1476,F3,220.5,9/20,22,65.1
1477,D3,220.5,9/20,22,65.1
1478,G#3,220.5,9/20,22,65.1
1479,B-3,220.5,9/20,22,65.1
1480,B-3,221.0,9/20,18,65.1
1481,F3,221.0,9/20,18,65.1
1482,D3,221.0,9/20,18,65.1
1483,G#3,221.0,9/20,18,65.1
1484,F3,221.5,9/20,18,65.1
1485,D3,221.5,9/20,18,65.1
1486,G#3,221.5,9/20,18,65.1
1487,B-3,221.5,9/20,18,65.1
1488,G#3,222.0,9/20,21,65.1
1489,B-3,222.0,9/20,21,65.1
1490,F3,222.0,9/20,21,65.1
1491,D3,222.0,9/20,21,65.1
1492,G4,222.125,0.125,47,65.1
1493,F4,222.25,0.125,48,65.1
1494,E4,222.375,0.125,48,65.1
1495,F4,222.5,0.125,49,65.1
1496,F3,222.5,9/20,20,65.1
1497,D3,222.5,9/20,20,65.1
1498,G#3,222.5,9/20,20,65.1
1499,B-3,222.5,9/20,20,65.1
1500,G4,222.625,0.125,50,65.1
1501,G#4,222.75,0.125,50,65.1
1502,B-4,222.875,0.125,51,65.1
1503,C5,223.0,0.125,52,65.1
1504,G#3,223.0,9/20,21,65.1
1505,F3,223.0,9/20,21,65.1
1506,D3,223.0,9/20,21,65.1
1507,B-3,223.0,9/20,21,65.1
1508,D5,223.125,0.125,51,65.1
1509,E-5,223.25,0.125,53,65.1
1510,E5,223.375,0.125,54,65.1
1511,F5,223.5,0.125,56,65.1
1512,F3,223.5,9/20,26,65.1
1513,D3,223.5,9/20,26,65.1
1514,B-3,223.5,9/20,26,65.1
1515,G#3,223.5,9/20,26,65.1
1516,G5,223.625,0.125,57,65.1
1517,G#5,223.75,0.125,59,65.1
1518,B-5,223.875,0.125,60,65.1
1519,C6,224.0,0.125,63,65.1
1520,G#3,224.0,9/20,23,65.1
1521,D3,224.0,9/20,23,65.1
1522,F3,224.0,9/20,23,65.1
1523,B-3,224.0,9/20,23,65.1
1524,B5,224.125,0.125,59,65.1
1525,D6,224.25,0.125,63,65.1
1526,C6,224.375,0.125,61,65.1
1527,B-5,224.5,0.125,60,65.1
1528,F3,224.5,9/20,24,65.1
1529,D3,224.5,9/20,24,65.1
1530,G#3,224.5,9/20,24,65.1
1531,B-3,224.5,9/20,24,65.1
1532,G#5,224.625,0.125,58,65.1
1533,G5,224.75,0.125,56,65.1
1534,F5,224.875,0.125,53,65.1
1535,F#5,225.0,1.5,58,65.1
1536,G#3,225.0,9/20,22,65.1
1537,E-3,225.0,9/20,22,65.1
1538,B-3,225.0,9/20,22,65.1
1539,E-3,225.5,9/20,18,65.1
1540,G#3,225.5,9/20,18,65.1
1541,B-3,225.5,9/20,18,65.1
1542,B-3,226.0,9/20,18,65.1
1543,G#3,226.0,9/20,18,65.1
1544,E-3,226.0,9/20,18,65.1
1545,G5,226.5,1.75,55,65.1
1546,E-3,226.5,9/20,20,65.1
1547,G3,226.5,9/20,20,65.1
1548,B-3,226.5,9/20,20,65.1
1549,E-3,227.0,9/20,18,65.1
1550,G3,227.0,9/20,18,65.1
1551,B-3,227.0,9/20,18,65.1
1552,G3,227.5,9/20,18,65.1
1553,E-3,227.5,9/20,18,65.1
1554,B-3,227.5,9/20,18,65.1
1555,E-3,228.0,0.5,36,65.1
1556,E-4,228.25,0.25,55,65.1
1557,G4,228.5,0.25,59,65.1
1558,B-2,228.5,0.5,40,65.1
1559,B-4,228.75,0.25,62,65.1
1560,E-5,229.0,0.25,66,65.1
1561,G#2,229.0,0.5,43,65.1
1562,G5,229.25,0.25,69,65.1
1563,B-5,229.5,1.75,72,65.1
1564,G2,229.5,0.5,48,65.1
1565,E-3,230.0,9/20,31,65.1
1566,B-2,230.0,9/20,31,65.1
1567,G2,230.0,9/20,31,65.1
1568,G2,230.5,9/20,31,65.1
1569,B-2,230.5,9/20,31,65.1
1570,E-3,230.5,9/20,31,65.1
1571,E-3,231.0,9/20,31,65.1
1572,G2,231.0,9/20,31,65.1
1573,B-2,231.0,9/20,31,65.1
1574,F#5,231.25,0.25,55,65.1
1575,G5,231.5,0.25,62,65.1
1576,G2,231.5,9/20,29,65.1
1577,B-2,231.5,9/20,29,65.1
1578,E-3,231.5,9/20,29,65.1
1579,D5,231.75,0.25,57,65.1
1580,E-5,232.0,0.25,64,65.1
1581,G2,232.0,9/20,29,65.1
1582,E-3,232.0,9/20,29,65.1
1583,B-2,232.0,9/20,29,65.1
1584,A4,232.25,0.25,57,65.1
1585,B-4,232.5,0.25,66,65.1
1586,E-3,232.5,9/20,31,65.1
1587,B-2,232.5,9/20,31,65.1
1588,G2,232.5,9/20,31,65.1
1589,F#4,232.75,0.25,57,65.1
1590,G4,233.0,0.25,68,65.1
1591,G2,233.0,9/20,27,65.1
1592,B-2,233.0,9/20,27,65.1
1593,E-3,233.0,9/20,27,65.1
1594,D4,233.25,0.25,59,65.1
1595,E-4,233.5,0.25,69,65.1
1596,E-3,233.5,9/20,27,65.1
1597,G2,233.5,9/20,27,65.1
1598,B-2,233.5,9/20,27,65.1
1599,G4,233.75,0.25,57,65.1
1600,G4,234.0,0.5,69,65.1
1601,G#2,234.0,0.5,38,65.1
1602,C3,234.0,0.5,38,65.1
1603,E-3,234.0,0.5,38,65.1
1604,C4,234.5,1.5,63,65.1
1605,G#2,234.5,9/20,31,65.1
1606,E-3,234.5,9/20,31,65.1
1607,C3,234.5,9/20,31,65.1
1608,E-3,235.0,9/20,31,65.1
1609,C3,235.0,9/20,31,65.1
1610,G#2,235.0,9/20,31,65.1
1611,G#2,235.5,9/20,36,65.1
1612,C3,235.5,9/20,36,65.1
1613,E3,235.5,9/20,36,65.1
1614,C5,236.0,1.5,69,65.1
1615,E3,236.0,9/20,31,65.1
1616,G#2,236.0,9/20,31,65.1
1617,C3,236.0,9/20,31,65.1
1618,G#2,236.5,9/20,35,65.1
1619,C3,236.5,9/20,35,65.1
1620,E3,236.5,9/20,35,65.1
1621,G#2,237.0,9/20,39,65.1
1622,F3,237.0,9/20,39,65.1
1623,C3,237.0,9/20,39,65.1
1624,C6,237.5,0.125,69,65.1
1625,F3,237.5,9/20,32,65.1
1626,C3,237.5,9/20,32,65.1
1627,G#2,237.5,9/20,32,65.1
1628,B5,237.625,0.125,62,65.1
1629,D6,237.75,0.125,69,65.1
1630,C6,237.875,0.125,68,65.1
1631,B-5,238.0,0.125,67,65.1
1632,G#2,238.0,9/20,32,65.1
1633,C3,238.0,9/20,32,65.1
1634,F3,238.0,9/20,32,65.1
1635,G#5,238.125,0.125,65,65.1
1636,G5,238.25,0.125,64,65.1
1637,F5,238.375,13/125,62,65.1
1638,F5,238.5,0.5,67,65.1
1639,G3,238.5,9/20,31,65.1
1640,B-2,238.5,9/20,31,65.1
1641,E-3,238.5,9/20,31,65.1
1642,E-5,239.0,1.5,60,65.1
1643,B-2,239.0,9/20,25,65.1
1644,E-3,239.0,9/20,25,65.1
1645,G3,239.0,9/20,25,65.1
1646,B-2,239.5,9/20,25,65.1
1647,G3,239.5,9/20,25,65.1
1648,E-3,239.5,9/20,25,65.1
1649,G3,240.0,9/20,28,65.1
1650,E-3,240.0,9/20,28,65.1
1651,B-2,240.0,9/20,28,65.1
1652,E-5,240.5,0.5,56,65.1
1653,B-2,240.5,9/20,24,65.1
1654,E-3,240.5,9/20,24,65.1
1655,G3,240.5,9/20,24,65.1
1656,E-5,241.0,0.5,54,65.1
1657,G3,241.0,9/20,24,65.1
1658,B-2,241.0,9/20,24,65.1
1659,E-3,241.0,9/20,24,65.1
1660,E-5,241.5,0.062,53,65.1
1661,B-2,241.5,9/20,27,65.1
1662,F3,241.5,9/20,27,65.1
1663,G#3,241.5,9/20,27,65.1
1664,F5,241.562,0.062,43,65.1
1665,E-5,241.625,0.062,54,65.1
1666,F5,241.688,0.062,46,65.1
1667,E-5,241.75,0.062,52,65.1
1668,F5,241.812,0.062,44,65.1
1669,E-5,241.875,21/500,47,65.1
1670,D5,241.875,21/500,47,65.1
1671,E-5,241.958,21/500,43,65.1
1672,F5,242.0,0.5,54,65.1
1673,B-2,242.0,9/20,23,65.1
1674,G#3,242.0,9/20,23,65.1
1675,F3,242.0,9/20,23,65.1
1676,D5,242.5,0.5,47,65.1
1677,G#3,242.5,9/20,23,65.1
1678,F3,242.5,9/20,23,65.1
1679,B-2,242.5,9/20,23,65.1
1680,E-5,243.0,0.5,47,65.1
1681,E-3,243.0,1.0,28,65.1
1682,G3,243.0,1.0,28,65.1
1683,B-4,243.5,9/20,43,65.1
1684,B-4,244.0,9/20,43,65.1
1685,B-4,244.5,0.5,49,65.1
1686,C5,245.0,0.5,41,65.1
1687,G#4,245.5,0.5,32,65.1
1688,G4,246.0,0.5,43,65.1
1689,E-4,246.0,1.0,36,65.1
1690,B-2,246.0,1.5,26,65.1
1691,B-3,246.0,1.0,31,65.1
1692,G#4,246.5,0.5,37,65.1
1693,G#3,247.0,0.5,29,65.1
1694,F4,247.0,0.5,30,65.1
1695,D4,247.0,0.5,30,65.1
1696,E-4,247.5,0.5,47,65.1
1697,G3,247.5,1.0,28,65.1
1698,E-3,247.5,1.0,28,65.1
1699,B-3,248.0,9/20,38,65.1
1700,B-3,248.5,9/20,38,65.1
1701,B-3,249.0,0.062,34,65.1
1702,C4,249.062,0.062,27,65.1
1703,B-3,249.125,0.062,34,65.1
1704,C4,249.188,0.062,29,65.1
1705,B-3,249.25,0.062,33,65.1
1706,C4,249.312,0.062,27,65.1
1707,B-3,249.375,21/500,30,65.1
1708,A3,249.375,21/500,30,65.1
1709,B-3,249.458,21/500,27,65.1
1710,C4,249.5,0.5,34,65.1
1711,G#3,250.0,0.5,28,65.1
1712,E-3,250.5,1.0,28,65.1
1713,G3,250.5,0.062,34,65.1
1714,B-2,250.5,1.0,31,65.1
1715,B-1,250.5,1.5,26,65.1
1716,G#3,250.562,0.062,27,65.1
1717,G3,250.625,0.062,34,65.1
1718,G#3,250.688,0.062,29,65.1
1719,G3,250.75,0.062,33,65.1
1720,G#3,250.812,0.062,27,65.1
1721,G3,250.875,21/500,30,65.1
1722,F3,250.875,21/500,30,65.1
1723,G3,250.958,21/500,27,65.1
1724,G#3,251.0,0.5,34,65.1
1725,F3,251.49,0.5,28,65.1
1726,G#2,251.5,0.5,24,65.1
1727,F3,251.5,0.5,24,65.1
1728,E-3,252.0,0.5,30,65.1
1729,E-2,252.0,1.0,27,65.1
1730,G2,252.0,1.0,27,65.1
1731,G3,252.5,0.5,28,65.1
1732,B-3,253.0,0.5,29,65.1
1733,G3,253.5,0.5,34,65.1
1734,B-3,254.0,0.5,31,65.1
1735,E-4,254.5,0.5,31,65.1
1736,B-3,255.0,0.5,32,65.1
1737,E-4,255.5,0.5,37,65.1
1738,G4,256.0,479/1000,42,65.1
1739,E-2,256.5,0.5,32,65.1
1740,G4,256.5,1979/1000,40,65.1
1741,B-3,256.5,1979/1000,40,65.1
1742,E-4,256.5,1979/1000,40,65.1
1743,G3,256.5,1979/1000,40,65.1
1744,G2,257.0,0.5,32,65.1
1745,B-2,257.5,0.5,32,65.1
1746,E-3,258.0,0.5,36,65.1
1747,G3,258.5,0.5,38,65.1
1748,G4,258.5,479/1000,38,65.1
1749,E-4,258.5,479/1000,38,65.1
1750,B-3,258.5,479/1000,38,65.1
1751,B-3,259.0,479/1000,40,65.1
1752,E-4,259.0,479/1000,38,65.1
1753,G4,259.0,479/1000,38,65.1
1754,E-4,259.5,1.0,23,65.1
1755,G4,259.5,0.062,34,65.1
1756,B-2,259.5,1.0,40,65.1
1757,B-3,259.5,1.0,40,65.1
1758,G#4,259.562,0.062,27,65.1
1759,G4,259.625,0.062,34,65.1
1760,G#4,259.688,0.062,29,65.1
1761,G4,259.75,0.062,33,65.1
1762,G#4,259.812,0.062,27,65.1
1763,G4,259.875,21/500,30,65.1
1764,F4,259.875,21/500,30,65.1
1765,G4,259.958,21/500,27,65.1
1766,F4,260.0,0.5,42,65.1
1767,G#4,260.0,0.5,42,65.1
1768,D4,260.5,479/1000,34,65.1
1769,F4,260.5,479/1000,34,65.1
1770,B-3,260.5,479/1000,34,65.1
1771,B-2,260.5,479/1000,36,65.1
1772,G#3,260.5,479/1000,36,65.1
1773,B-3,261.0,2.0,28,65.1
1774,G#3,261.0,1.5,38,65.1
1775,E-3,261.0,2.0,32,65.1
1776,D4,261.0,1.5,31,65.1
1777,F4,261.0,1.5,31,65.1
1778,E-4,262.5,0.5,32,65.1
1779,G3,262.5,0.5,30,65.1
1780,B-3,264.0,0.5,40,65.1
1781,F#3,264.0,0.5,40,65.1
1782,B-3,264.5,0.5,44,65.1
1783,E-4,264.5,0.5,44,65.1
1784,F#4,265.0,0.5,50,65.1
1785,E-4,265.0,0.5,50,65.1
1786,E-2,265.5,0.5,37,65.1
1787,F#4,265.5,3.5,56,65.1
1788,B-4,265.5,3.5,56,65.1
1789,F#2,266.0,0.5,40,65.1
1790,B-2,266.5,0.5,44,65.1
1791,E-3,267.0,0.5,49,65.1
1792,E-5,267.5,57/125,70,65.1
1793,F#3,267.5,0.5,53,65.1
1794,E-5,268.0,57/125,64,65.1
1795,B-3,268.0,479/1000,57,65.1
1796,E-5,268.5,19/40,67,65.1
1797,E-4,268.5,0.5,62,65.1
1798,B3,269.0,0.5,58,65.1
1799,G#4,269.0,19/40,50,65.1
1800,E-5,269.0,19/40,50,65.1
1801,B-3,269.5,479/1000,54,65.1
1802,B-4,269.5,19/40,55,65.1
1803,F#4,269.5,19/40,55,65.1
1804,E-5,269.5,19/40,55,65.1
1805,E-5,270.0,1.0,68,65.1
1806,G#3,270.0,1.5,53,65.1
1807,B4,270.0,1.5,45,65.1
1808,F4,270.0,1.5,45,65.1
1809,C#5,271.0,0.5,38,65.1
1810,F3,271.5,1.5,43,65.1
1811,E-5,272.0,0.5,40,65.1
1812,G#4,272.0,1.0,34,65.1
1813,B4,272.0,1.0,34,65.1
1814,C#5,272.5,0.5,29,65.1
1815,F#3,273.0,1.5,40,65.1
1816,E-5,273.5,0.5,40,65.1
1817,F#4,273.5,1.0,34,65.1
1818,B-4,273.5,1.0,34,65.1
1819,C#5,274.0,0.5,27,65.1
1820,B2,274.5,1.5,32,65.1
1821,C#5,275.0,0.5,40,65.1
1822,G#4,275.0,1.0,34,65.1
1823,E-4,275.0,1.0,34,65.1
1824,B4,275.5,0.5,27,65.1
1825,C#3,276.0,1.5,32,65.1
1826,B4,276.5,0.5,40,65.1
1827,C#4,276.5,1.0,34,65.1
1828,F#4,276.5,1.0,34,65.1
1829,B-4,277.0,0.5,27,65.1
1830,C#2,277.5,1.5,32,65.1
1831,B-4,278.0,0.5,40,65.1
1832,F4,278.0,1.0,34,65.1
1833,B3,278.0,1.0,34,65.1
1834,G#4,278.5,0.5,27,65.1
1835,B3,279.0,1.0,68,65.1
1836,D2,279.0,1.5,53,65.1
1837,G#4,279.0,1.5,45,65.1
1838,F4,279.0,1.5,45,65.1
1839,B-3,280.0,0.5,38,65.1
1840,D3,280.5,1.5,43,65.1
1841,B3,281.0,0.5,40,65.1
1842,G#4,281.0,1.0,34,65.1
1843,F4,281.0,1.0,34,65.1
1844,B-3,281.5,0.5,29,65.1
1845,E-3,282.0,1.5,40,65.1
1846,B3,282.5,0.5,40,65.1
1847,F#4,282.5,1.0,34,65.1
1848,E-4,282.5,1.0,34,65.1
1849,B-3,283.0,0.5,27,65.1
1850,G#2,283.5,1.5,32,65.1
1851,F#4,284.0,0.5,40,65.1
1852,G#3,284.0,1.0,34,65.1
1853,B3,284.0,1.0,34,65.1
1854,E4,284.5,0.5,27,65.1
1855,A2,285.0,1.5,32,65.1
1856,E4,285.5,0.5,40,65.1
1857,F#3,285.5,1.0,34,65.1
1858,C4,285.5,1.0,34,65.1
1859,E-4,286.0,0.5,27,65.1
1860,B-2,286.5,1.5,32,65.1
1861,E-4,287.0,0.5,40,65.1
1862,F3,287.0,1.0,34,65.1
1863,G#3,287.0,1.0,34,65.1
1864,D4,287.5,0.5,27,65.1
1865,E-2,288.0,4.5,35,65.1
1866,E-4,288.0,1.0,34,65.1
1867,G3,288.0,1.0,34,65.1
1868,E-3,288.5,9/20,29,65.1
1869,E-3,289.0,9/20,29,65.1
1870,E-3,289.5,9/20,32,65.1
1871,E-3,290.0,9/20,29,65.1
1872,E-3,290.5,9/20,29,65.1
1873,G5,291.0,1.0,57,65.1
1874,E-3,291.0,9/20,32,65.1
1875,E-3,291.5,9/20,27,65.1
1876,F5,292.0,0.25,48,65.1
1877,E-3,292.0,9/20,27,65.1
1878,E-5,292.25,0.25,47,65.1
1879,E-5,292.5,0.5,54,65.1
1880,E-3,292.5,9/20,32,65.1
1881,F4,292.5,979/1000,32,65.1
1882,G#4,292.5,979/1000,32,65.1
1883,D5,293.0,0.5,47,65.1
1884,E-3,293.0,9/20,28,65.1
1885,G#4,293.5,479/1000,37,65.1
1886,E-3,293.5,9/20,28,65.1
1887,C5,293.5,0.25,47,65.1
1888,E-4,293.5,0.25,47,65.1
1889,B-4,293.75,229/1000,40,65.1
1890,D4,293.75,229/1000,40,65.1
1891,G#4,294.0,3.0,35,65.1
1892,B-4,294.0,2.0,50,65.1
1893,D4,294.0,1.0,48,65.1
1894,E-3,294.0,9/20,32,65.1
1895,E-3,294.5,9/20,28,65.1
1896,C4,295.0,0.25,45,65.1
1897,E-3,295.0,9/20,28,65.1
1898,B-3,295.25,229/1000,38,65.1
1899,B-3,295.5,0.75,51,65.1
1900,E-3,295.5,9/20,32,65.1
1901,C5,296.0,0.5,44,65.1
1902,E-3,296.0,9/20,28,65.1
1903,G#3,296.25,0.25,38,65.1
1904,G3,296.5,0.25,38,65.1
1905,D5,296.5,0.5,46,65.1
1906,E-3,296.5,9/20,28,65.1
1907,G#3,296.75,0.25,38,65.1
1908,G3,297.0,1.0,51,65.1
1909,E-5,297.0,0.25,51,65.1
1910,E-3,297.0,9/20,32,65.1
1911,F5,297.25,83/1000,44,65.1
1912,E-5,297.333,83/1000,38,65.1
1913,D5,297.417,83/1000,38,65.1
1914,E-5,297.5,0.25,51,65.1
1915,E-3,297.5,9/20,28,65.1
1916,F5,297.75,0.25,47,65.1
1917,G5,298.0,0.25,49,65.1
1918,E-3,298.0,9/20,28,65.1
1919,G#5,298.25,0.188,50,65.1
1920,G5,298.438,0.062,48,65.1
1921,B-5,298.5,1.5,57,65.1
1922,E-3,298.5,9/20,32,65.1
1923,E-3,299.0,9/20,28,65.1
1924,E-3,299.5,9/20,28,65.1
1925,A5,300.0,0.25,47,65.1
1926,E-3,300.0,9/20,32,65.1
1927,B-5,300.25,0.25,52,65.1
1928,C6,300.5,0.25,53,65.1
1929,E-3,300.5,9/20,28,65.1
1930,B-5,300.75,0.25,51,65.1
1931,G#5,301.0,0.25,53,65.1
1932,E-3,301.0,9/20,28,65.1
1933,G5,301.25,229/1000,51,65.1
1934,G5,301.5,0.5,57,65.1
1935,E-3,301.5,9/20,32,65.1
1936,G#4,301.5,979/1000,32,65.1
1937,C5,301.5,979/1000,32,65.1
1938,F5,302.0,0.5,47,65.1
1939,E-3,302.0,9/20,28,65.1
1940,E-3,302.5,9/20,28,65.1
1941,B-4,302.5,0.25,43,65.1
1942,E-5,302.5,0.25,43,65.1
1943,G4,302.5,0.25,43,65.1
1944,D5,302.75,229/1000,36,65.1
1945,F4,302.75,229/1000,36,65.1
1946,G#4,302.75,229/1000,36,65.1
1947,E-3,303.0,9/20,32,65.1
1948,F4,303.0,979/1000,42,65.1
1949,D5,303.0,979/1000,42,65.1
1950,G#4,303.0,979/1000,42,65.1
1951,E-3,303.5,9/20,28,65.1
1952,G#4,304.0,479/1000,35,65.1
1953,E-3,304.0,9/20,28,65.1
1954,E-4,304.0,0.25,48,65.1
1955,C5,304.0,0.25,48,65.1
1956,B-4,304.25,229/1000,40,65.1
1957,D4,304.25,229/1000,40,65.1
1958,G#4,304.5,1.5,35,65.1
1959,D4,304.5,0.25,51,65.1
1960,B-4,304.5,0.5,54,65.1
1961,E-3,304.5,9/20,32,65.1
1962,C4,304.75,0.25,38,65.1
1963,B-3,305.0,0.25,38,65.1
1964,C5,305.0,0.5,44,65.1
1965,E-3,305.0,9/20,28,65.1
1966,G#3,305.25,0.25,38,65.1
1967,D5,305.5,0.5,46,65.1
1968,G3,305.5,0.25,38,65.1
1969,E-3,305.5,9/20,28,65.1
1970,F3,305.75,0.25,38,65.1
1971,E-3,306.0,1.0,32,65.1
1972,E-5,306.0,0.5,54,65.1
1973,G4,306.0,0.5,54,65.1
1974,F#5,306.5,0.5,40,65.1
1975,G5,307.0,0.5,44,65.1
1976,E-4,307.5,1.0,25,65.1
1977,B-3,307.5,1.0,25,65.1
1978,G3,307.5,1.0,25,65.1
1979,A5,308.0,0.5,41,65.1
1980,B-5,308.5,0.5,44,65.1
1981,G4,309.0,1.0,25,65.1
1982,B-4,309.0,1.0,25,65.1
1983,E-5,309.0,1.0,25,65.1
1984,D6,309.5,0.5,40,65.1
1985,E-6,310.0,0.5,44,65.1
1986,G#4,310.5,1.0,25,65.1
1987,C5,310.5,1.0,25,65.1
1988,E-5,310.5,1.0,25,65.1
1989,B5,311.0,0.5,41,65.1
1990,C6,311.5,0.5,44,65.1
1991,E-4,312.0,1.0,25,65.1
1992,C4,312.0,1.0,25,65.1
1993,G#3,312.0,1.0,25,65.1
1994,B4,312.5,0.5,40,65.1
1995,C5,313.0,0.5,42,65.1
1996,A3,313.5,1.0,25,65.1
1997,E-4,313.5,1.0,25,65.1
1998,C4,313.5,1.0,25,65.1
1999,E4,314.0,0.5,38,65.1
2000,F4,314.5,0.5,42,65.1
2001,B-3,315.0,2979/1000,35,65.1
2002,B-4,315.5,1.25,59,65.1
2003,G4,315.5,0.5,26,65.1
2004,E-4,315.5,0.5,26,65.1
2005,G4,316.0,0.5,28,65.1
2006,E-4,316.0,0.5,28,65.1
2007,E-4,316.5,0.5,34,65.1
2008,G4,316.5,0.5,34,65.1
2009,C5,316.75,0.125,60,65.1
2010,D5,316.875,0.125,62,65.1
2011,E-5,317.0,0.125,64,65.1
2012,E-4,317.0,0.5,38,65.1
2013,G4,317.0,0.5,38,65.1
2014,F5,317.125,0.125,66,65.1
2015,G5,317.25,0.125,68,65.1
2016,G#5,317.375,0.125,70,65.1
2017,B-5,317.5,1.0,72,65.1
2018,E-4,317.5,0.5,42,65.1
2019,G4,317.5,0.5,42,65.1
2020,B-3,318.0,1.5,37,65.1
2021,G#4,318.0,0.5,40,65.1
2022,D4,318.0,0.5,40,65.1
2023,G#5,318.5,0.5,70,65.1
2024,D4,318.5,0.5,36,65.1
2025,G#4,318.5,0.5,36,65.1
2026,F5,319.0,0.5,66,65.1
2027,D4,319.0,0.5,35,65.1
2028,G#4,319.0,0.5,35,65.1
2029,E-5,319.5,0.625,58,65.1
2030,G4,319.5,1.0,39,65.1
2031,E-4,319.5,1.0,39,65.1
2032,D5,320.125,0.125,50,65.1
2033,G5,320.25,69/500,57,65.1
2034,F5,320.375,69/500,54,65.1
2035,E-5,320.5,69/500,53,65.1
2036,D5,320.625,69/500,51,65.1
2037,C5,320.75,69/500,49,65.1
2038,B-4,320.875,69/500,47,65.1
2039,A4,321.0,69/500,53,65.1
2040,B-4,321.125,69/500,51,65.1
2041,E-5,321.25,69/500,59,65.1
2042,D5,321.375,69/500,54,65.1
2043,C5,321.5,69/500,54,65.1
2044,B-4,321.625,69/500,52,65.1
2045,G#4,321.75,69/500,50,65.1
2046,G4,321.875,69/500,50,65.1
2047,F#4,322.0,69/500,52,65.1
2048,G4,322.125,69/500,46,65.1
2049,C5,322.25,69/500,56,65.1
2050,B-4,322.375,69/500,55,65.1
2051,G#4,322.5,69/500,54,65.1
2052,G4,322.625,69/500,52,65.1
2053,F4,322.75,69/500,50,65.1
2054,E-4,322.875,69/500,48,65.1
2055,D4,323.0,69/500,46,65.1
2056,E-4,323.125,69/500,45,65.1
2057,G#4,323.25,69/500,52,65.1
2058,G4,323.375,69/500,51,65.1
2059,F4,323.5,69/500,49,65.1
2060,E-4,323.625,69/500,47,65.1
2061,D4,323.75,69/500,44,65.1
2062,C4,323.875,0.125,42,65.1
2063,A3,324.0,0.125,39,65.1
2064,C4,324.0,3/250,42,65.1
2065,B-2,324.0,2979/1000,35,65.1
2066,B-3,324.125,0.125,39,65.1
2067,B3,324.25,0.125,40,65.1
2068,C4,324.375,0.125,41,65.1
2069,C#4,324.5,0.125,42,65.1
2070,G3,324.5,0.5,26,65.1
2071,E-3,324.5,0.5,26,65.1
2072,D4,324.625,0.125,42,65.1
2073,E-4,324.75,0.125,43,65.1
2074,E4,324.875,0.125,44,65.1
2075,F4,325.0,0.125,45,65.1
2076,G3,325.0,0.5,30,65.1
2077,E-3,325.0,0.5,30,65.1
2078,F#4,325.125,0.125,45,65.1
2079,G4,325.25,0.125,46,65.1
2080,G#4,325.375,0.125,47,65.1
2081,A4,325.5,0.125,49,65.1
2082,E-3,325.5,0.5,39,65.1
2083,G3,325.5,0.5,39,65.1
2084,B-4,325.625,0.125,50,65.1
2085,B4,325.75,0.125,52,65.1
2086,C5,325.875,0.125,54,65.1
2087,C#5,326.0,0.125,56,65.1
2088,E-3,326.0,0.5,45,65.1
2089,G3,326.0,0.5,45,65.1
2090,D5,326.125,0.125,58,65.1
2091,E-5,326.25,0.125,60,65.1
2092,E5,326.375,0.125,61,65.1
2093,F5,326.5,1/10,64,65.1
2094,E-3,326.5,0.5,51,65.1
2095,G3,326.5,0.5,51,65.1
2096,F#5,326.6,1/10,65,65.1
2097,G5,326.7,1/10,67,65.1
2098,G#5,326.8,1/10,69,65.1
2099,A5,326.9,1/10,70,65.1
2100,B-5,327.0,0.625,80,65.1
2101,B-2,327.0,1.5,45,65.1
2102,G#3,327.0,0.5,57,65.1
2103,D3,327.0,0.5,57,65.1
2104,D3,327.5,0.5,36,65.1
2105,G#3,327.5,0.5,36,65.1
2106,G#5,327.625,0.125,69,65.1
2107,F5,327.75,0.125,66,65.1
2108,D5,327.875,0.125,63,65.1
2109,B-4,328.0,0.125,60,65.1
2110,D3,328.0,0.5,35,65.1
2111,G#3,328.0,0.5,35,65.1
2112,G#4,328.125,0.125,57,65.1
2113,F4,328.25,0.125,54,65.1
2114,D4,328.375,0.125,51,65.1
2115,E-4,328.5,1.0,56,65.1
2116,E-3,328.5,0.5,44,65.1
2117,G3,329.0,0.5,39,65.1
2118,B-3,329.5,0.5,39,65.1
2119,E-4,330.0,0.5,44,65.1
2120,G4,330.5,0.5,38,65.1
2121,E-5,331.0,1.5,56,65.1
2122,F#5,331.0,1.0,67,65.1
2123,A4,331.0,0.5,38,65.1
2124,B-4,331.5,1.0,44,65.1
2125,G5,332.0,0.5,54,65.1
2126,G#5,332.5,0.375,59,65.1
2127,D5,332.5,0.5,50,65.1
2128,F4,332.5,0.375,44,65.1
2129,B-3,332.5,0.5,37,65.1
2130,F5,332.875,0.125,53,65.1
2131,G#4,332.875,0.125,40,65.1
2132,E-2,333.0,0.5,44,65.1
2133,G4,333.0,1.0,52,65.1
2134,E-5,333.0,1.0,52,65.1
2135,G2,333.5,0.5,39,65.1
2136,B-2,334.0,0.5,39,65.1
2137,E-3,334.5,0.5,44,65.1
2138,G3,335.0,0.5,38,65.1
2139,F#4,335.5,1.0,60,65.1
2140,E-4,335.5,1.5,50,65.1
2141,A3,335.5,0.5,34,65.1
2142,B-3,336.0,1.0,39,65.1
2143,G4,336.5,0.5,48,65.1
2144,G#4,337.0,0.375,53,65.1
2145,D4,337.0,0.5,45,65.1
2146,F3,337.0,0.375,39,65.1
2147,B-2,337.0,0.5,33,65.1
2148,F4,337.375,0.125,43,65.1
2149,G#3,337.375,0.125,36,65.1
2150,E-4,337.5,0.5,48,65.1
2151,E-3,337.5,0.5,37,65.1
2152,G3,337.5,0.5,37,65.1
2153,G#4,338.0,0.75,51,65.1
2154,D4,338.0,1.0,43,65.1
2155,B-2,338.0,1.0,33,65.1
2156,F3,338.0,0.75,39,65.1
2157,F4,338.75,0.25,44,65.1
2158,G#3,338.75,0.25,34,65.1
2159,E-4,339.0,0.5,48,65.1
2160,E-3,339.0,0.5,37,65.1
2161,G3,339.0,0.5,37,65.1
2162,G#4,339.5,0.75,51,65.1
2163,D4,339.5,1.0,43,65.1
2164,B-2,339.5,1.0,33,65.1
2165,F3,339.5,0.75,39,65.1
2166,F4,340.25,0.25,44,65.1
2167,G#3,340.25,0.25,34,65.1
2168,E-4,340.5,0.5,48,65.1
2169,E-3,340.5,0.5,37,65.1
2170,G3,340.5,0.5,37,65.1
2171,G#4,341.0,0.25,60,65.1
2172,G#3,341.0,479/1000,50,65.1
2173,B-2,341.0,0.5,38,65.1
2174,F3,341.0,0.25,46,65.1
2175,G4,341.25,0.25,56,65.1
2176,E3,341.25,0.25,43,65.1
2177,G#3,341.5,479/1000,49,65.1
2178,G#4,341.5,0.25,66,65.1
2179,B-2,341.5,0.5,38,65.1
2180,F3,341.5,0.25,51,65.1
2181,F4,341.75,0.25,61,65.1
2182,D3,341.75,0.25,47,65.1
2183,E4,342.0,83/1000,35,65.1
2184,F4,342.083,83/1000,34,65.1
2185,G4,342.167,83/1000,28,65.1
2186,D3,342.25,1.25,31,65.1
2187,G#3,342.25,1.25,34,65.1
2188,F4,342.25,1.25,34,65.1
2189,E-2,342.25,2.25,26,65.1
2190,B-2,342.25,2.25,26,65.1
2191,E-3,343.5,1.0,25,65.1
2192,G3,343.5,1.0,27,65.1
2193,E-4,343.5,1.0,27,65.1
