,note_name,start_time,duration,velocity,tempo
0,D5,1.0,0.375,50,120.0
1,D4,1.0,0.375,37,120.0
2,B-3,1.0,0.375,37,120.0
3,A4,1.375,14/125,46,120.0
4,F5,1.375,14/125,46,120.0
5,F3,1.375,14/125,37,120.0
6,C4,1.375,14/125,37,120.0
7,C5,1.5,0.5,58,120.0
8,F5,1.5,0.5,58,120.0
9,C4,1.5,0.5,46,120.0
10,A3,1.5,0.5,46,120.0
11,F4,2.0,0.25,50,120.0
12,D5,2.0,0.25,50,120.0
13,D4,2.0,0.25,40,120.0
14,B-3,2.0,0.25,40,120.0
15,B-4,2.5,0.375,50,120.0
16,B-3,2.5,0.375,37,120.0
17,G3,2.5,0.375,37,120.0
18,F#4,2.875,14/125,46,120.0
19,D5,2.875,14/125,46,120.0
20,D3,2.875,14/125,37,120.0
21,A3,2.875,14/125,37,120.0
22,A4,3.0,0.5,58,120.0
23,D5,3.0,0.5,58,120.0
24,A3,3.0,0.5,46,120.0
25,F#3,3.0,0.5,46,120.0
26,D4,3.5,0.25,50,120.0
27,B-4,3.5,0.25,50,120.0
28,B-3,3.5,0.25,40,120.0
29,G3,3.5,0.25,40,120.0
30,G4,4.0,0.375,52,120.0
31,G3,4.0,0.375,38,120.0
32,E-3,4.0,0.375,38,120.0
33,D4,4.375,14/125,48,120.0
34,B-4,4.375,14/125,48,120.0
35,B-2,4.375,14/125,39,120.0
36,F3,4.375,14/125,39,120.0
37,F4,4.5,0.5,62,120.0
38,B-4,4.5,0.5,62,120.0
39,F3,4.5,0.5,50,120.0
40,D3,4.5,0.5,50,120.0
41,B-3,5.0,0.25,56,120.0
42,G4,5.0,0.25,56,120.0
43,G3,5.0,0.25,44,120.0
44,E-3,5.0,0.25,44,120.0
45,B-3,5.5,0.375,52,120.0
46,G4,5.5,0.375,52,120.0
47,G3,5.5,0.375,42,120.0
48,E-3,5.5,0.375,42,120.0
49,E-4,5.875,14/125,53,120.0
50,A4,5.875,14/125,53,120.0
51,C3,5.875,14/125,42,120.0
52,F3,5.875,14/125,42,120.0
53,F3,6.0,0.75,58,120.0
54,C3,6.0,0.5,49,120.0
55,E-4,6.0,0.5,67,120.0
56,A4,6.0,0.5,67,120.0
57,D3,6.5,0.25,44,120.0
58,B-3,6.5,0.25,60,120.0
59,B-4,6.5,0.25,60,120.0
60,F4,7.0,0.5,51,120.0
61,B-4,7.0,0.375,61,120.0
62,F3,7.0,0.5,41,120.0
63,D3,7.0,0.375,49,120.0
64,C5,7.375,14/125,63,120.0
65,A2,7.375,14/125,42,120.0
66,F3,7.5,0.75,64,120.0
67,A2,7.5,0.5,53,120.0
68,F4,7.5,0.5,73,120.0
69,C5,7.5,0.5,73,120.0
70,G#2,8.0,0.25,48,120.0
71,B-4,8.0,0.25,64,120.0
72,F4,8.0,0.25,64,120.0
73,D5,8.0,0.25,64,120.0
74,B-4,8.5,0.5,56,120.0
75,D5,8.5,0.375,67,120.0
76,G#2,8.5,0.375,49,120.0
77,F3,8.5,0.375,49,120.0
78,E-5,8.875,14/125,70,120.0
79,G2,8.875,14/125,46,120.0
80,E-3,8.875,14/125,46,120.0
81,B-4,9.0,0.5,82,120.0
82,E-5,9.0,0.5,82,120.0
83,E-3,9.0,0.5,65,120.0
84,G2,9.0,0.5,65,120.0
85,C#5,9.5,0.125,72,120.0
86,B-4,9.5,0.125,72,120.0
87,F4,9.5,0.125,72,120.0
88,F5,9.5,0.125,72,120.0
89,C#3,9.5,0.125,52,120.0
90,F2,9.5,0.125,52,120.0
91,G4,10.0,0.125,83,120.0
92,B-4,10.0,0.125,83,120.0
93,C5,10.0,0.125,83,120.0
94,G5,10.0,0.125,83,120.0
95,E2,10.0,0.125,60,120.0
96,C3,10.0,0.125,60,120.0
97,C4,10.5,0.25,84,120.0
98,A4,10.5,0.25,84,120.0
99,C5,10.5,0.25,84,120.0
100,F2,10.5,0.25,60,120.0
101,F3,10.5,0.25,60,120.0
102,D6,11.5,0.375,50,120.0
103,D5,11.5,0.375,37,120.0
104,B-4,11.5,0.375,37,120.0
105,A5,11.875,14/125,46,120.0
106,F6,11.875,14/125,46,120.0
107,F4,11.875,14/125,37,120.0
108,C5,11.875,14/125,37,120.0
109,C6,12.0,0.5,58,120.0
110,F6,12.0,0.5,58,120.0
111,C5,12.0,0.5,46,120.0
112,A4,12.0,0.5,46,120.0
113,F5,12.5,0.25,50,120.0
114,D6,12.5,0.25,50,120.0
115,D5,12.5,0.25,40,120.0
116,B-4,12.5,0.25,40,120.0
117,B-5,13.0,0.375,50,120.0
118,B-4,13.0,0.375,37,120.0
119,G4,13.0,0.375,37,120.0
120,F#5,13.375,14/125,46,120.0
121,D6,13.375,14/125,46,120.0
122,D4,13.375,14/125,37,120.0
123,A4,13.375,14/125,37,120.0
124,A5,13.5,0.5,58,120.0
125,D6,13.5,0.5,58,120.0
126,A4,13.5,0.5,46,120.0
127,F#4,13.5,0.5,46,120.0
128,D5,14.0,0.25,50,120.0
129,B-5,14.0,0.25,50,120.0
130,B-4,14.0,0.25,40,120.0
131,G4,14.0,0.25,40,120.0
132,G5,14.5,0.375,52,120.0
133,G4,14.5,0.375,38,120.0
134,E-4,14.5,0.375,38,120.0
135,D5,14.875,14/125,48,120.0
136,B-5,14.875,14/125,48,120.0
137,B-3,14.875,14/125,39,120.0
138,F4,14.875,14/125,39,120.0
139,F5,15.0,0.5,62,120.0
140,B-5,15.0,0.5,62,120.0
141,F4,15.0,0.5,50,120.0
142,D4,15.0,0.5,50,120.0
143,B-4,15.5,0.25,56,120.0
144,G5,15.5,0.25,56,120.0
145,G4,15.5,0.25,44,120.0
146,E-4,15.5,0.25,44,120.0
147,B-4,16.0,0.375,52,120.0
148,G5,16.0,0.375,52,120.0
149,G4,16.0,0.375,42,120.0
150,E-4,16.0,0.375,42,120.0
151,E-5,16.375,14/125,53,120.0
152,A5,16.375,14/125,53,120.0
153,C4,16.375,14/125,42,120.0
154,F4,16.375,14/125,42,120.0
155,F4,16.5,0.75,58,120.0
156,C4,16.5,0.5,49,120.0
157,E-5,16.5,0.5,67,120.0
158,A5,16.5,0.5,67,120.0
159,D4,17.0,0.25,44,120.0
160,B-4,17.0,0.25,60,120.0
161,B-5,17.0,0.25,60,120.0
162,F5,17.5,0.5,51,120.0
163,B-5,17.5,0.375,61,120.0
164,D5,17.5,0.375,49,120.0
165,C6,17.875,14/125,63,120.0
166,C5,17.875,14/125,42,120.0
167,A4,17.875,14/125,42,120.0
168,F5,18.0,0.5,73,120.0
169,C6,18.0,0.5,73,120.0
170,C5,18.0,0.5,58,120.0
171,A4,18.0,0.5,58,120.0
172,F5,18.5,0.25,66,120.0
173,D6,18.5,0.25,66,120.0
174,B-4,18.5,0.25,50,120.0
175,G#4,18.5,0.25,50,120.0
176,B-5,19.0,0.5,56,120.0
177,E-6,19.0,0.375,67,120.0
178,G4,19.0,0.375,45,120.0
179,B-4,19.0,0.5,53,120.0
180,E6,19.375,14/125,70,120.0
181,F#4,19.375,14/125,46,120.0
182,B-5,19.5,0.5,82,120.0
183,E6,19.5,0.5,82,120.0
184,B-4,19.5,0.5,65,120.0
185,F#4,19.5,0.5,65,120.0
186,A5,20.0,0.125,73,120.0
187,F5,20.0,0.125,73,120.0
188,F6,20.0,0.125,73,120.0
189,C5,20.0,0.125,52,120.0
190,F4,20.0,0.125,52,120.0
191,G5,20.5,0.125,83,120.0
192,B-5,20.5,0.125,83,120.0
193,E6,20.5,0.125,83,120.0
194,G6,20.5,0.125,83,120.0
195,C3,20.5,0.125,60,120.0
196,C4,20.5,0.125,60,120.0
197,F5,21.0,0.25,84,120.0
198,A5,21.0,0.25,84,120.0
199,F6,21.0,0.25,84,120.0
200,F3,21.0,0.25,60,120.0
201,F4,21.0,0.25,60,120.0
202,B4,22.0,0.375,46,120.0
203,D5,22.0,0.375,46,120.0
204,F4,22.0,0.5,37,120.0
205,F3,22.0,0.5,37,120.0
206,D5,22.375,0.094,46,120.0
207,F5,22.375,0.094,46,120.0
208,D5,22.5,0.5,58,120.0
209,F5,22.5,0.5,58,120.0
210,F4,22.5,1.0,37,120.0
211,F3,22.5,1.0,37,120.0
212,B4,23.0,0.25,50,120.0
213,D5,23.0,0.25,50,120.0
214,B4,23.5,0.375,46,120.0
215,D5,23.5,0.375,46,120.0
216,F3,23.5,0.5,37,120.0
217,F2,23.5,0.5,37,120.0
218,E-5,23.875,0.094,46,120.0
219,G5,23.875,0.094,46,120.0
220,E-5,24.0,0.5,58,120.0
221,G5,24.0,0.5,58,120.0
222,C5,24.5,0.25,50,120.0
223,E-5,24.5,0.25,50,120.0
224,A4,25.0,0.375,46,120.0
225,C5,25.0,0.375,46,120.0
226,F3,25.0,1.0,37,120.0
227,F2,25.0,1.0,37,120.0
228,C5,25.375,0.094,46,120.0
229,E-5,25.375,0.094,46,120.0
230,C5,25.5,0.5,58,120.0
231,E-5,25.5,0.5,58,120.0
232,A4,26.0,0.25,50,120.0
233,C5,26.0,0.25,50,120.0
234,F3,26.0,0.5,37,120.0
235,F2,26.0,0.5,37,120.0
236,A4,26.5,0.375,46,120.0
237,C5,26.5,0.375,46,120.0
238,C#5,26.875,0.094,46,120.0
239,F5,26.875,0.094,46,120.0
240,D5,27.0,0.5,58,120.0
241,F5,27.0,0.5,58,120.0
242,B-4,27.5,0.25,50,120.0
243,D5,27.5,0.25,50,120.0
244,F3,27.5,1.0,37,120.0
245,F2,27.5,1.0,37,120.0
246,A3,28.0,0.375,42,120.0
247,C4,28.0,0.375,42,120.0
248,C4,28.375,0.094,41,120.0
249,E-4,28.375,0.094,41,120.0
250,C4,28.5,1.0,51,120.0
251,E-4,28.5,1.0,51,120.0
252,F2,28.5,0.5,33,120.0
253,F1,28.5,0.5,33,120.0
254,B-3,29.5,0.5,44,120.0
255,D4,29.5,0.5,44,120.0
256,A3,30.0,0.5,42,120.0
257,C4,30.0,0.5,42,120.0
258,F2,30.0,1.0,33,120.0
259,F1,30.0,1.0,33,120.0
260,G3,30.5,0.5,42,120.0
261,B-3,30.5,0.5,42,120.0
262,F3,31.0,0.5,40,120.0
263,A3,31.0,0.5,40,120.0
264,F#2,31.0,0.5,33,120.0
265,F#1,31.0,0.5,33,120.0
266,F3,32.0,0.5,40,120.0
267,A3,32.0,0.5,40,120.0
268,F#2,32.0,0.5,33,120.0
269,F#1,32.0,0.5,33,120.0
270,E3,32.5,0.5,36,120.0
271,G3,32.5,0.5,36,120.0
272,G1,32.5,1.0,31,120.0
273,G2,32.5,1.0,31,120.0
274,G3,33.0,0.5,32,120.0
275,E-3,33.0,0.5,35,120.0
276,C4,33.0,0.5,35,120.0
277,G3,33.5,1.0,32,120.0
278,E-3,33.5,0.5,35,120.0
279,C4,33.5,0.5,35,120.0
280,A1,33.5,0.5,31,120.0
281,A2,33.5,0.5,31,120.0
282,D3,34.0,0.5,35,120.0
283,B3,34.0,0.5,35,120.0
284,B-1,34.0,0.5,30,120.0
285,B-2,34.0,0.5,30,120.0
286,B1,34.5,0.5,30,120.0
287,B2,34.5,0.5,30,120.0
288,C2,35.0,1.0,30,120.0
289,C3,35.0,1.0,30,120.0
290,B3,36.0,0.375,40,120.0
291,C2,36.0,0.5,32,120.0
292,D4,36.375,14/125,40,120.0
293,D4,36.5,0.5,49,120.0
294,G2,36.5,1.0,32,120.0
295,B3,37.0,0.25,44,120.0
296,D4,37.5,0.5,33,120.0
297,B4,37.5,0.375,40,120.0
298,D5,37.875,14/125,40,120.0
299,D5,38.0,0.5,49,120.0
300,D4,38.0,0.75,33,120.0
301,B4,38.5,0.25,44,120.0
302,C6,39.0,0.375,46,120.0
303,E-6,39.375,14/125,46,120.0
304,E-6,39.5,0.5,56,120.0
305,C6,40.0,0.25,50,120.0
306,G2,40.5,0.375,32,120.0
307,G3,40.5,0.5,27,120.0
308,D4,40.5,0.375,46,120.0
309,B4,40.5,0.375,46,120.0
310,B2,40.875,14/125,32,120.0
311,F4,40.875,0.094,46,120.0
312,D5,40.875,0.094,46,120.0
313,B2,41.0,0.5,40,120.0
314,G3,41.0,0.75,27,120.0
315,F4,41.0,0.5,58,120.0
316,D5,41.0,0.5,58,120.0
317,G2,41.5,0.25,35,120.0
318,D4,41.5,0.25,52,120.0
319,B4,41.5,0.25,52,120.0
320,C5,42.0,0.375,36,120.0
321,D4,42.0,0.375,55,120.0
322,B4,42.0,0.375,55,120.0
323,E-5,42.375,14/125,36,120.0
324,G4,42.375,0.094,55,120.0
325,E-5,42.375,0.094,55,120.0
326,E-5,42.5,0.5,46,120.0
327,G4,42.5,0.5,69,120.0
328,E-5,42.5,0.5,69,120.0
329,C5,43.0,0.25,40,120.0
330,E-4,43.0,0.25,62,120.0
331,C5,43.0,0.25,62,120.0
332,A4,43.5,0.375,67,120.0
333,C5,43.5,0.375,67,120.0
334,G3,43.5,0.5,37,120.0
335,G2,43.5,0.5,37,120.0
336,C5,43.875,14/125,70,120.0
337,A5,43.875,14/125,70,120.0
338,C5,44.0,0.5,87,120.0
339,A5,44.0,0.5,87,120.0
340,G3,44.0,1.0,37,120.0
341,G2,44.0,1.0,37,120.0
342,A4,44.5,0.125,78,120.0
343,F5,44.5,0.125,78,120.0
344,B-4,45.0,0.125,94,120.0
345,B-5,45.0,0.125,94,120.0
346,C3,45.0,0.5,44,120.0
347,C2,45.0,0.5,44,120.0
348,B-4,45.5,0.25,94,120.0
349,B-5,45.5,0.25,94,120.0
350,B5,46.5,0.375,46,120.0
351,D6,46.5,0.375,46,120.0
352,C3,46.5,1.0,44,120.0
353,C2,46.5,1.0,44,120.0
354,D6,46.875,0.094,46,120.0
355,F6,46.875,0.094,46,120.0
356,D6,47.0,0.5,58,120.0
357,F6,47.0,0.5,58,120.0
358,B5,47.5,0.25,50,120.0
359,D6,47.5,0.25,50,120.0
360,F1,47.5,0.5,64,120.0
361,F2,47.5,0.5,64,120.0
362,B5,48.0,0.375,46,120.0
363,D6,48.0,0.375,46,120.0
364,E-6,48.375,0.094,46,120.0
365,G6,48.375,0.094,46,120.0
366,E-6,48.5,0.5,58,120.0
367,G6,48.5,0.5,58,120.0
368,F1,48.5,0.5,64,120.0
369,F2,48.5,0.5,64,120.0
370,C6,49.0,0.25,50,120.0
371,E-6,49.0,0.25,50,120.0
372,F2,49.0,0.125,58,120.0
373,F3,49.0,0.125,58,120.0
374,A5,49.5,0.375,46,120.0
375,C6,49.5,0.375,46,120.0
376,B-1,49.5,0.125,66,120.0
377,B-2,49.5,0.125,66,120.0
378,C6,49.875,0.094,46,120.0
379,E-6,49.875,0.094,46,120.0
380,C6,50.0,0.5,58,120.0
381,E-6,50.0,0.5,58,120.0
382,B-1,50.0,0.25,66,120.0
383,B-2,50.0,0.25,66,120.0
384,A5,50.5,0.25,50,120.0
385,C6,50.5,0.25,50,120.0
386,A5,51.0,0.375,46,120.0
387,C6,51.0,0.375,46,120.0
388,F5,51.0,0.5,37,120.0
389,F4,51.0,0.5,37,120.0
390,C#6,51.375,0.094,46,120.0
391,F6,51.375,0.094,46,120.0
392,D6,51.5,0.5,58,120.0
393,F6,51.5,0.5,58,120.0
394,F5,51.5,1.0,37,120.0
395,F4,51.5,1.0,37,120.0
396,B-5,52.0,0.25,50,120.0
397,D6,52.0,0.25,50,120.0
398,A4,52.5,0.375,42,120.0
399,C5,52.5,0.375,42,120.0
400,F4,52.5,0.5,37,120.0
401,F3,52.5,0.5,37,120.0
402,C5,52.875,0.094,41,120.0
403,E-5,52.875,0.094,41,120.0
404,C5,53.0,1.0,51,120.0
405,E-5,53.0,1.0,51,120.0
406,B-4,54.0,0.5,44,120.0
407,D5,54.0,0.5,44,120.0
408,F4,54.0,1.0,37,120.0
409,F3,54.0,1.0,37,120.0
410,A4,54.5,0.5,42,120.0
411,C5,54.5,0.5,42,120.0
412,G4,55.0,0.5,42,120.0
413,B-4,55.0,0.5,42,120.0
414,F4,55.0,0.5,37,120.0
415,F3,55.0,0.5,37,120.0
416,F4,55.5,0.5,40,120.0
417,A4,55.5,0.5,40,120.0
418,F4,56.5,0.5,40,120.0
419,A4,56.5,0.5,40,120.0
420,F4,56.5,1.0,37,120.0
421,F3,56.5,1.0,37,120.0
422,E4,57.0,0.5,36,120.0
423,G4,57.0,0.5,36,120.0
424,G4,57.5,0.5,32,120.0
425,E-4,57.5,0.5,35,120.0
426,C5,57.5,0.5,35,120.0
427,F3,57.5,0.5,33,120.0
428,F2,57.5,0.5,33,120.0
429,G4,58.0,1.0,32,120.0
430,E-4,58.0,0.5,35,120.0
431,C5,58.0,0.5,35,120.0
432,D4,58.5,0.5,35,120.0
433,B4,58.5,0.5,35,120.0
434,F3,59.0,1.0,33,120.0
435,F2,59.0,1.0,33,120.0
436,F#3,60.0,0.5,33,120.0
437,F#2,60.0,0.5,33,120.0
438,B4,60.5,0.375,40,120.0
439,D5,60.875,14/125,40,120.0
440,D5,61.0,0.5,49,120.0
441,F#3,61.0,0.5,33,120.0
442,F#2,61.0,0.5,33,120.0
443,B4,61.5,0.25,44,120.0
444,F#3,61.5,0.5,30,120.0
445,C4,61.5,0.5,30,120.0
446,E-4,61.5,0.5,30,120.0
447,D5,62.0,0.5,33,120.0
448,B5,62.0,0.375,40,120.0
449,G3,62.0,0.5,30,120.0
450,B-3,62.0,0.5,30,120.0
451,D4,62.0,0.5,30,120.0
452,D6,62.375,14/125,40,120.0
453,D6,62.5,0.5,49,120.0
454,D5,62.5,0.75,33,120.0
455,A3,62.5,0.5,31,120.0
456,C4,62.5,0.5,31,120.0
457,B5,63.0,0.25,44,120.0
458,B-2,63.0,0.5,30,120.0
459,G3,63.0,0.5,30,120.0
460,B-3,63.0,0.5,30,120.0
461,C5,63.5,0.375,46,120.0
462,B2,63.5,0.5,28,120.0
463,F3,63.5,0.5,30,120.0
464,A3,63.5,0.5,30,120.0
465,E-5,63.875,14/125,46,120.0
466,E-5,64.0,0.5,56,120.0
467,C5,64.5,0.25,50,120.0
468,C3,64.5,1.0,28,120.0
469,F3,64.5,0.5,30,120.0
470,A3,64.5,0.5,30,120.0
471,D5,65.0,0.375,46,120.0
472,B5,65.0,0.375,46,120.0
473,E3,65.0,0.5,30,120.0
474,G3,65.0,0.5,30,120.0
475,F5,65.375,0.094,46,120.0
476,D6,65.375,0.094,46,120.0
477,C4,65.5,0.5,32,120.0
478,F5,65.5,0.5,58,120.0
479,D6,65.5,0.5,58,120.0
480,E-3,65.5,0.5,30,120.0
481,G3,65.5,0.5,30,120.0
482,G3,66.0,1.0,32,120.0
483,C4,66.0,0.5,32,120.0
484,D5,66.0,0.25,52,120.0
485,B5,66.0,0.25,52,120.0
486,B3,66.5,0.5,30,120.0
487,D5,66.5,0.375,56,120.0
488,B5,66.5,0.375,56,120.0
489,G5,66.875,0.094,57,120.0
490,E-6,66.875,0.094,57,120.0
491,G5,67.0,0.5,72,120.0
492,E-6,67.0,0.5,72,120.0
493,E-5,67.5,0.25,64,120.0
494,C6,67.5,0.25,64,120.0
495,A5,68.0,0.375,70,120.0
496,C6,68.0,0.375,70,120.0
497,C6,68.375,14/125,74,120.0
498,A6,68.375,14/125,74,120.0
499,C6,68.5,0.5,90,120.0
500,A6,68.5,0.5,90,120.0
501,A5,69.0,0.125,82,120.0
502,F6,69.0,0.125,82,120.0
503,B-5,69.5,0.125,103,120.0
504,B-6,69.5,0.125,103,120.0
505,G3,70.0,0.375,32,120.0
506,G4,70.0,0.5,27,120.0
507,B-5,70.0,0.25,103,120.0
508,B-6,70.0,0.25,103,120.0
509,B3,70.375,14/125,32,120.0
510,B3,70.5,0.5,40,120.0
511,G4,70.5,0.75,27,120.0
512,G3,71.0,0.25,35,120.0
513,C#5,71.0,0.5,57,120.0
514,C#6,71.0,0.5,57,120.0
515,C4,71.5,0.375,36,120.0
516,C#5,71.5,0.5,57,120.0
517,C#6,71.5,0.5,57,120.0
518,E-4,71.875,14/125,36,120.0
519,E-4,72.0,0.5,46,120.0
520,F6,72.0,0.5,58,120.0
521,F5,72.0,0.5,58,120.0
522,C4,72.5,0.25,40,120.0
523,C#5,72.5,0.5,57,120.0
524,C#6,72.5,0.5,57,120.0
525,G4,73.0,0.5,37,120.0
526,G3,73.0,0.5,37,120.0
527,C#5,73.5,0.5,57,120.0
528,C#6,73.5,0.5,57,120.0
529,G4,73.5,1.0,37,120.0
530,G3,73.5,1.0,37,120.0
531,B-4,74.0,0.5,57,120.0
532,B-5,74.0,0.5,57,120.0
533,F4,74.5,0.5,52,120.0
534,F5,74.5,0.5,52,120.0
535,C4,74.5,0.5,45,120.0
536,C3,74.5,0.5,45,120.0
537,B-4,75.0,1.0,58,120.0
538,B-5,75.0,1.0,58,120.0
539,C#6,76.0,0.5,60,120.0
540,C#5,76.0,0.5,60,120.0
541,C4,76.0,1.0,45,120.0
542,C3,76.0,1.0,45,120.0
543,F5,76.5,1.0,64,120.0
544,F6,76.5,1.0,64,120.0
545,F2,77.0,0.5,66,120.0
546,F3,77.0,0.5,66,120.0
547,C#6,77.5,0.5,73,120.0
548,C#5,77.5,0.5,73,120.0
549,B-5,78.0,1.0,74,120.0
550,B-4,78.0,1.0,74,120.0
551,F2,78.5,1.0,66,120.0
552,F3,78.5,1.0,66,120.0
553,F5,79.0,0.5,75,120.0
554,F4,79.0,0.5,75,120.0
555,B-4,79.5,1.0,79,120.0
556,B-5,79.5,1.0,79,120.0
557,B-1,79.5,0.125,72,120.0
558,B-2,79.5,0.125,72,120.0
559,B-1,80.0,0.25,72,120.0
560,B-2,80.0,0.25,72,120.0
561,C#6,80.5,0.5,72,120.0
562,C#5,80.5,0.5,72,120.0
563,F5,81.0,1.0,66,120.0
564,F6,81.0,1.0,66,120.0
565,B-1,81.0,0.25,34,120.0
566,B-2,81.0,0.25,34,120.0
567,B-1,81.5,0.25,34,120.0
568,B-2,81.5,0.25,34,120.0
569,G#6,82.0,0.5,46,120.0
570,G#5,82.0,0.5,46,120.0
571,B-1,82.5,167/1000,37,120.0
572,C#6,82.5,0.5,44,120.0
573,C#5,82.5,0.5,44,120.0
574,F2,82.667,167/1000,30,120.0
575,C#3,82.833,167/1000,30,120.0
576,B-1,83.0,167/1000,37,120.0
577,F2,83.167,167/1000,31,120.0
578,C#3,83.333,167/1000,31,120.0
579,B-1,83.5,167/1000,37,120.0
580,B-4,83.5,0.125,37,120.0
581,B-5,83.5,0.125,37,120.0
582,F2,83.667,167/1000,31,120.0
583,C#3,83.833,167/1000,30,120.0
584,B-1,84.0,167/1000,37,120.0
585,B-4,84.0,0.125,37,120.0
586,B-5,84.0,0.125,37,120.0
587,F2,84.167,167/1000,31,120.0
588,C#3,84.333,167/1000,31,120.0
589,B-1,84.5,167/1000,37,120.0
590,F2,84.667,167/1000,31,120.0
591,C#3,84.833,167/1000,31,120.0
592,C#5,85.0,167/1000,37,120.0
593,B-1,85.0,167/1000,38,120.0
594,B-4,85.167,167/1000,30,120.0
595,F2,85.167,167/1000,32,120.0
596,F4,85.333,167/1000,30,120.0
597,C#3,85.333,167/1000,31,120.0
598,C#5,85.5,167/1000,37,120.0
599,B-1,85.5,167/1000,39,120.0
600,B-4,85.667,167/1000,31,120.0
601,F2,85.667,167/1000,33,120.0
602,F4,85.833,167/1000,31,120.0
603,C#3,85.833,167/1000,34,120.0
604,F5,86.0,167/1000,37,120.0
605,B-1,86.0,167/1000,41,120.0
606,C#5,86.167,167/1000,31,120.0
607,F2,86.167,167/1000,35,120.0
608,B-4,86.333,167/1000,30,120.0
609,C#3,86.333,167/1000,35,120.0
610,C#5,86.5,167/1000,37,120.0
611,B-1,86.5,167/1000,42,120.0
612,B-4,86.667,167/1000,31,120.0
613,F2,86.667,167/1000,36,120.0
614,F4,86.833,167/1000,31,120.0
615,C#3,86.833,167/1000,35,120.0
616,C#5,87.0,167/1000,37,120.0
617,B-1,87.0,167/1000,44,120.0
618,B-4,87.167,167/1000,31,120.0
619,F2,87.167,167/1000,37,120.0
620,F4,87.333,167/1000,31,120.0
621,C#3,87.333,167/1000,38,120.0
622,B-4,87.5,167/1000,39,120.0
623,B-1,87.5,167/1000,49,120.0
624,F4,87.667,167/1000,32,120.0
625,F2,87.667,167/1000,42,120.0
626,C#4,87.833,167/1000,32,120.0
627,C#3,87.833,167/1000,42,120.0
628,F4,88.0,167/1000,40,120.0
629,B-1,88.0,167/1000,54,120.0
630,C#4,88.167,167/1000,34,120.0
631,F2,88.167,167/1000,49,120.0
632,B-3,88.333,167/1000,36,120.0
633,C#3,88.333,167/1000,49,120.0
634,B-1,88.5,167/1000,61,120.0
635,C#4,88.5,167/1000,49,120.0
636,B-4,88.5,167/1000,49,120.0
637,B-3,88.667,167/1000,42,120.0
638,F2,88.667,167/1000,56,120.0
639,C#4,88.833,167/1000,42,120.0
640,C#3,88.833,167/1000,58,120.0
641,B-4,89.0,167/1000,50,120.0
642,B-1,89.0,167/1000,69,120.0
643,C#4,89.167,167/1000,43,120.0
644,F2,89.167,167/1000,57,120.0
645,B-3,89.333,167/1000,43,120.0
646,C#3,89.333,167/1000,52,120.0
647,B-1,89.5,167/1000,61,120.0
648,F4,89.5,167/1000,54,120.0
649,C#5,89.5,167/1000,54,120.0
650,C#4,89.667,167/1000,46,120.0
651,F2,89.667,167/1000,51,120.0
652,F4,89.833,167/1000,51,120.0
653,C#3,89.833,167/1000,51,120.0
654,F5,90.0,167/1000,63,120.0
655,G#1,90.0,167/1000,60,120.0
656,C#5,90.167,167/1000,55,120.0
657,F2,90.167,167/1000,50,120.0
658,B-4,90.333,167/1000,59,120.0
659,C#3,90.333,167/1000,46,120.0
660,F5,90.5,167/1000,71,120.0
661,G#1,90.5,167/1000,44,120.0
662,C#5,90.667,167/1000,60,120.0
663,F2,90.667,167/1000,36,120.0
664,B-4,90.833,167/1000,64,120.0
665,C#3,90.833,167/1000,35,120.0
666,C#5,91.0,167/1000,77,120.0
667,G#1,91.0,167/1000,41,120.0
668,B-4,91.167,167/1000,67,120.0
669,F2,91.167,167/1000,34,120.0
670,F4,91.333,167/1000,61,120.0
671,C#3,91.333,167/1000,32,120.0
672,B-4,91.5,167/1000,83,120.0
673,C#2,91.5,167/1000,39,120.0
674,F4,91.667,167/1000,68,120.0
675,F2,91.667,167/1000,32,120.0
676,C#4,91.833,167/1000,58,120.0
677,C#3,91.833,167/1000,31,120.0
678,B-4,92.0,167/1000,64,120.0
679,C#2,92.0,167/1000,37,120.0
680,F4,92.167,167/1000,54,120.0
681,F2,92.167,167/1000,26,120.0
682,C#4,92.333,167/1000,46,120.0
683,C#3,92.333,167/1000,26,120.0
684,F4,92.5,167/1000,60,120.0
685,C#2,92.5,167/1000,30,120.0
686,C#4,92.667,167/1000,45,120.0
687,F2,92.667,167/1000,25,120.0
688,B-3,92.833,167/1000,44,120.0
689,C#3,92.833,167/1000,25,120.0
690,C#4,93.0,167/1000,38,120.0
691,G#4,93.0,167/1000,38,120.0
692,C#2,93.0,0.5,44,120.0
693,C#3,93.0,0.5,44,120.0
694,G#3,93.167,167/1000,36,120.0
695,C#4,93.333,167/1000,35,120.0
696,G#4,93.5,167/1000,41,120.0
697,F4,93.667,167/1000,34,120.0
698,C#4,93.833,167/1000,32,120.0
699,F4,94.0,167/1000,33,120.0
700,C#5,94.0,167/1000,33,120.0
701,C#2,94.0,0.5,44,120.0
702,C#3,94.0,0.5,44,120.0
703,C#4,94.167,167/1000,32,120.0
704,F4,94.333,167/1000,31,120.0
705,F5,94.5,167/1000,37,120.0
706,F3,94.5,0.5,50,120.0
707,F2,94.5,0.5,50,120.0
708,C#5,94.667,167/1000,26,120.0
709,G#4,94.833,167/1000,26,120.0
710,F5,95.0,167/1000,30,120.0
711,C#2,95.0,0.5,48,120.0
712,C#3,95.0,0.5,48,120.0
713,C#5,95.167,167/1000,25,120.0
714,G#4,95.333,167/1000,25,120.0
715,G#5,95.5,167/1000,30,120.0
716,F5,95.667,167/1000,25,120.0
717,C#5,95.833,81/500,25,120.0
718,F4,96.0,0.5,36,120.0
719,C#5,96.0,0.5,36,120.0
720,C#2,96.0,0.5,48,120.0
721,C#3,96.0,0.5,48,120.0
722,B-1,96.5,0.5,48,120.0
723,B-2,96.5,0.5,48,120.0
724,F5,97.0,0.5,52,120.0
725,F6,97.0,0.5,52,120.0
726,F1,97.0,0.5,44,120.0
727,F2,97.0,0.5,44,120.0
728,F5,97.5,0.5,52,120.0
729,F6,97.5,0.5,52,120.0
730,B-1,97.5,1.0,50,120.0
731,B-2,97.5,1.0,50,120.0
732,G#6,98.0,0.5,53,120.0
733,G#5,98.0,0.5,53,120.0
734,F5,98.5,0.5,52,120.0
735,F6,98.5,0.5,52,120.0
736,C#3,98.5,0.5,56,120.0
737,C#2,98.5,0.5,56,120.0
738,F2,99.0,1.0,56,120.0
739,F3,99.0,1.0,56,120.0
740,F5,99.5,0.5,52,120.0
741,F6,99.5,0.5,52,120.0
742,C#5,100.0,0.5,52,120.0
743,C#6,100.0,0.5,52,120.0
744,C#3,100.0,0.5,64,120.0
745,C#2,100.0,0.5,64,120.0
746,G#4,100.5,0.5,48,120.0
747,G#5,100.5,0.5,48,120.0
748,B-2,100.5,1.0,73,120.0
749,B-1,100.5,1.0,73,120.0
750,C#5,101.0,1.0,54,120.0
751,C#6,101.0,1.0,54,120.0
752,F2,101.5,0.5,67,120.0
753,F1,101.5,0.5,67,120.0
754,F6,102.0,0.5,55,120.0
755,F5,102.0,0.5,55,120.0
756,B-1,102.0,1.0,70,120.0
757,B-2,102.0,1.0,70,120.0
758,G#5,102.5,1.0,58,120.0
759,G#6,102.5,1.0,58,120.0
760,C#3,103.0,0.5,64,120.0
761,C#2,103.0,0.5,64,120.0
762,F6,103.5,0.5,66,120.0
763,F5,103.5,0.5,66,120.0
764,F2,103.5,1.0,59,120.0
765,F3,103.5,1.0,59,120.0
766,C#6,104.0,1.0,74,120.0
767,C#5,104.0,1.0,74,120.0
768,G#3,104.5,0.5,41,120.0
769,G#2,104.5,0.5,41,120.0
770,B-5,105.0,0.5,75,120.0
771,B-4,105.0,0.5,75,120.0
772,C#3,105.0,0.5,40,120.0
773,C#2,105.0,0.5,40,120.0
774,F4,105.5,1.0,79,120.0
775,F5,105.5,1.0,79,120.0
776,C#2,106.0,0.25,37,120.0
777,C#3,106.0,0.25,37,120.0
778,B-5,106.5,0.5,72,120.0
779,B-4,106.5,0.5,72,120.0
780,C#2,106.5,0.25,34,120.0
781,C#3,106.5,0.25,34,120.0
782,C#2,107.0,167/1000,37,120.0
783,C#5,107.0,1.0,66,120.0
784,C#6,107.0,1.0,66,120.0
785,F2,107.167,167/1000,31,120.0
786,C#3,107.333,167/1000,30,120.0
787,C#2,107.5,167/1000,37,120.0
788,F2,107.667,167/1000,30,120.0
789,C#3,107.833,167/1000,30,120.0
790,C#2,108.0,167/1000,37,120.0
791,F6,108.0,0.5,46,120.0
792,F5,108.0,0.5,46,120.0
793,F2,108.167,167/1000,31,120.0
794,C#3,108.333,167/1000,31,120.0
795,C#2,108.5,167/1000,37,120.0
796,B-5,108.5,0.5,44,120.0
797,B-4,108.5,0.5,44,120.0
798,F2,108.667,167/1000,31,120.0
799,C#3,108.833,167/1000,30,120.0
800,C#2,109.0,167/1000,37,120.0
801,F2,109.167,167/1000,30,120.0
802,C#3,109.333,167/1000,30,120.0
803,C#2,109.5,167/1000,37,120.0
804,C#4,109.5,0.125,37,120.0
805,C#5,109.5,0.125,37,120.0
806,F2,109.667,167/1000,31,120.0
807,C#3,109.833,167/1000,31,120.0
808,C#2,110.0,167/1000,37,120.0
809,C#4,110.0,0.125,37,120.0
810,C#5,110.0,0.125,37,120.0
811,F2,110.167,167/1000,31,120.0
812,C#3,110.333,167/1000,30,120.0
813,C#4,110.5,167/1000,37,120.0
814,C#2,110.5,167/1000,37,120.0
815,F4,110.667,167/1000,32,120.0
816,F2,110.667,167/1000,31,120.0
817,C#5,110.833,167/1000,32,120.0
818,C#3,110.833,167/1000,31,120.0
819,F5,111.0,0.5,37,120.0
820,C#2,111.0,167/1000,37,120.0
821,C#5,111.167,167/1000,30,120.0
822,F2,111.167,167/1000,31,120.0
823,G#4,111.333,167/1000,30,120.0
824,C#3,111.333,167/1000,31,120.0
825,F5,111.5,0.5,37,120.0
826,C#2,111.5,167/1000,38,120.0
827,C#5,111.667,167/1000,31,120.0
828,F2,111.667,167/1000,32,120.0
829,G#4,111.833,167/1000,31,120.0
830,C#3,111.833,167/1000,31,120.0
831,F5,112.0,167/1000,37,120.0
832,G#5,112.0,0.5,37,120.0
833,G#1,112.0,167/1000,39,120.0
834,C#5,112.167,167/1000,31,120.0
835,F2,112.167,167/1000,33,120.0
836,G#4,112.333,167/1000,30,120.0
837,C#3,112.333,167/1000,34,120.0
838,F5,112.5,167/1000,37,120.0
839,G#1,112.5,167/1000,41,120.0
840,C#5,112.667,167/1000,31,120.0
841,F2,112.667,167/1000,35,120.0
842,G#4,112.833,167/1000,31,120.0
843,C#3,112.833,167/1000,35,120.0
844,F5,113.0,167/1000,37,120.0
845,G#1,113.0,167/1000,42,120.0
846,C#5,113.167,167/1000,31,120.0
847,F2,113.167,167/1000,36,120.0
848,G#4,113.333,167/1000,31,120.0
849,C#3,113.333,167/1000,35,120.0
850,C#5,113.5,167/1000,38,120.0
851,G#1,113.5,167/1000,46,120.0
852,G#4,113.667,167/1000,32,120.0
853,F2,113.667,167/1000,37,120.0
854,F4,113.833,167/1000,31,120.0
855,C#3,113.833,167/1000,40,120.0
856,B-1,114.0,167/1000,51,120.0
857,C#4,114.0,167/1000,36,120.0
858,G#4,114.0,167/1000,36,120.0
859,G#3,114.167,167/1000,33,120.0
860,F2,114.167,167/1000,43,120.0
861,C#4,114.333,167/1000,34,120.0
862,C#3,114.333,167/1000,43,120.0
863,B-1,114.5,167/1000,55,120.0
864,F4,114.5,167/1000,36,120.0
865,C#5,114.5,167/1000,36,120.0
866,C#4,114.667,167/1000,35,120.0
867,F2,114.667,167/1000,48,120.0
868,F4,114.833,167/1000,35,120.0
869,C#3,114.833,167/1000,51,120.0
870,C#5,115.0,167/1000,50,120.0
871,B-1,115.0,167/1000,61,120.0
872,G#4,115.167,167/1000,40,120.0
873,F2,115.167,167/1000,53,120.0
874,F4,115.333,167/1000,43,120.0
875,C#3,115.333,167/1000,55,120.0
876,F5,115.5,167/1000,54,120.0
877,B-1,115.5,167/1000,66,120.0
878,C#5,115.667,167/1000,47,120.0
879,F2,115.667,167/1000,57,120.0
880,G#4,115.833,167/1000,50,120.0
881,C#3,115.833,167/1000,52,120.0
882,G#5,116.0,167/1000,62,120.0
883,B-1,116.0,167/1000,55,120.0
884,F5,116.167,167/1000,53,120.0
885,F2,116.167,167/1000,45,120.0
886,C#5,116.333,167/1000,55,120.0
887,C#3,116.333,167/1000,42,120.0
888,F5,116.5,167/1000,67,120.0
889,B-1,116.5,167/1000,50,120.0
890,C#5,116.667,167/1000,60,120.0
891,F2,116.667,167/1000,45,120.0
892,F5,116.833,81/500,62,120.0
893,C#3,116.833,167/1000,44,120.0
894,F5,117.0,167/1000,72,120.0
895,F1,117.0,167/1000,44,120.0
896,C#5,117.167,167/1000,63,120.0
897,F2,117.167,167/1000,36,120.0
898,F4,117.333,167/1000,60,120.0
899,C#3,117.333,167/1000,35,120.0
900,C#5,117.5,167/1000,75,120.0
901,F1,117.5,167/1000,41,120.0
902,B-4,117.667,167/1000,66,120.0
903,F2,117.667,167/1000,27,120.0
904,F4,117.833,167/1000,52,120.0
905,C#3,117.833,167/1000,27,120.0
906,C#5,118.0,167/1000,55,120.0
907,F1,118.0,167/1000,33,120.0
908,B-4,118.167,167/1000,45,120.0
909,F2,118.167,167/1000,32,120.0
910,F4,118.333,167/1000,42,120.0
911,C#3,118.333,167/1000,28,120.0
912,B-4,118.5,167/1000,60,120.0
913,B-1,118.5,167/1000,37,120.0
914,F4,118.667,167/1000,45,120.0
915,F2,118.667,167/1000,26,120.0
916,C#4,118.833,167/1000,44,120.0
917,C#3,118.833,167/1000,26,120.0
918,F4,119.0,167/1000,44,120.0
919,B-1,119.0,0.5,30,120.0
920,C#4,119.167,167/1000,36,120.0
921,B-3,119.333,167/1000,35,120.0
922,F4,119.5,167/1000,41,120.0
923,F2,119.5,0.5,42,120.0
924,F3,119.5,0.5,42,120.0
925,C#4,119.667,167/1000,34,120.0
926,B-3,119.833,167/1000,32,120.0
927,C#4,120.0,167/1000,33,120.0
928,B-4,120.0,167/1000,33,120.0
929,B-3,120.167,167/1000,32,120.0
930,C#4,120.333,167/1000,31,120.0
931,C#5,120.5,167/1000,37,120.0
932,F2,120.5,0.5,42,120.0
933,F3,120.5,0.5,42,120.0
934,B-4,120.667,167/1000,26,120.0
935,F4,120.833,167/1000,26,120.0
936,C#5,121.0,167/1000,30,120.0
937,G#3,121.0,0.5,48,120.0
938,G#2,121.0,0.5,48,120.0
939,B-4,121.167,167/1000,25,120.0
940,F4,121.333,167/1000,25,120.0
941,F5,121.5,167/1000,30,120.0
942,F2,121.5,0.5,46,120.0
943,F3,121.5,0.5,46,120.0
944,C#5,121.667,167/1000,25,120.0
945,F4,121.833,167/1000,25,120.0
946,B-4,122.0,0.5,40,120.0
947,F2,122.5,0.5,46,120.0
948,F3,122.5,0.5,46,120.0
949,C#2,123.0,0.5,46,120.0
950,C#3,123.0,0.5,46,120.0
951,B-4,123.5,0.125,50,120.0
952,G#1,123.5,0.5,43,120.0
953,G#2,123.5,0.5,43,120.0
954,C#5,124.0,0.125,44,120.0
955,C#2,124.0,1.0,48,120.0
956,C#3,124.0,1.0,48,120.0
957,C5,124.5,0.125,50,120.0
958,F4,125.0,0.125,43,120.0
959,F3,125.0,0.5,54,120.0
960,F2,125.0,0.5,54,120.0
961,F5,125.5,0.125,50,120.0
962,G#2,125.5,1.0,56,120.0
963,G#3,125.5,1.0,56,120.0
964,E-5,126.0,0.125,45,120.0
965,C#5,126.5,0.125,45,120.0
966,F3,126.5,0.5,64,120.0
967,F2,126.5,0.5,64,120.0
968,C5,127.0,0.125,45,120.0
969,C#3,127.0,1.0,73,120.0
970,C#2,127.0,1.0,73,120.0
971,B-4,127.5,0.125,50,120.0
972,C#5,128.0,0.125,43,120.0
973,B-1,128.0,0.5,67,120.0
974,B-2,128.0,0.5,67,120.0
975,C5,128.5,0.125,50,120.0
976,F1,128.5,1.0,70,120.0
977,F2,128.5,1.0,70,120.0
978,G#4,129.0,0.125,42,120.0
979,C5,129.5,0.125,50,120.0
980,B-1,129.5,0.5,64,120.0
981,B-2,129.5,0.5,64,120.0
982,G4,130.0,0.125,42,120.0
983,C#2,130.0,1.0,59,120.0
984,C#3,130.0,1.0,59,120.0
985,F4,130.5,1.0,46,120.0
986,F2,131.0,0.5,41,120.0
987,F3,131.0,0.5,41,120.0
988,B-1,131.5,0.5,40,120.0
989,B-2,131.5,0.5,40,120.0
990,F4,131.75,0.25,45,120.0
991,G#4,131.75,0.25,45,120.0
992,C5,131.75,0.25,45,120.0
993,F4,132.25,0.25,43,120.0
994,G#4,132.25,0.25,43,120.0
995,C5,132.25,0.25,43,120.0
996,E4,132.75,0.25,44,120.0
997,B-4,132.75,0.25,44,120.0
998,C5,132.75,0.25,44,120.0
999,C#4,133.0,167/1000,29,120.0
1000,B-3,133.167,167/1000,20,120.0
1001,E4,133.25,0.25,44,120.0
1002,G4,133.25,0.25,44,120.0
1003,B-4,133.25,0.25,44,120.0
1004,C5,133.25,0.25,44,120.0
1005,F3,133.333,167/1000,20,120.0
1006,C#4,133.5,167/1000,24,120.0
1007,B-3,133.667,167/1000,20,120.0
1008,E4,133.75,0.25,50,120.0
1009,G4,133.75,0.25,50,120.0
1010,C5,133.75,0.25,50,120.0
1011,F3,133.833,167/1000,20,120.0
1012,F4,134.0,167/1000,24,120.0
1013,C#4,134.167,167/1000,20,120.0
1014,E4,134.25,0.25,50,120.0
1015,G4,134.25,0.25,50,120.0
1016,C5,134.25,0.25,50,120.0
1017,F3,134.333,167/1000,20,120.0
1018,B-3,134.5,0.125,42,120.0
1019,F4,134.75,0.25,51,120.0
1020,G#4,134.75,0.25,51,120.0
1021,C5,134.75,0.25,51,120.0
1022,C#4,135.0,0.125,37,120.0
1023,E4,135.25,0.25,52,120.0
1024,B-4,135.25,0.25,52,120.0
1025,C5,135.25,0.25,52,120.0
1026,C4,135.5,0.125,42,120.0
1027,F4,135.75,0.25,62,120.0
1028,G#4,135.75,0.25,62,120.0
1029,C5,135.75,0.25,62,120.0
1030,F3,136.0,0.125,36,120.0
1031,F4,136.25,0.25,57,120.0
1032,G#4,136.25,0.25,57,120.0
1033,C5,136.25,0.25,57,120.0
1034,F5,136.25,0.25,57,120.0
1035,F4,136.5,0.125,42,120.0
1036,F4,136.75,0.25,58,120.0
1037,B-4,136.75,0.25,58,120.0
1038,C5,136.75,0.25,58,120.0
1039,F5,136.75,0.25,58,120.0
1040,E-4,137.0,0.125,38,120.0
1041,E4,137.25,0.25,60,120.0
1042,B-4,137.25,0.25,60,120.0
1043,C5,137.25,0.25,60,120.0
1044,E5,137.25,0.25,60,120.0
1045,C#4,137.5,0.125,38,120.0
1046,F4,137.75,0.25,73,120.0
1047,C5,137.75,0.25,73,120.0
1048,F5,137.75,0.25,73,120.0
1049,C4,138.0,0.125,38,120.0
1050,F4,138.25,0.25,64,120.0
1051,C5,138.25,0.25,64,120.0
1052,E-5,138.25,0.25,64,120.0
1053,B-3,138.5,0.125,42,120.0
1054,F4,138.75,0.25,66,120.0
1055,B-4,138.75,0.25,66,120.0
1056,C#5,138.75,0.25,66,120.0
1057,C#4,139.0,0.125,36,120.0
1058,E-4,139.25,0.25,67,120.0
1059,A4,139.25,0.25,67,120.0
1060,C5,139.25,0.25,67,120.0
1061,C4,139.5,0.125,42,120.0
1062,B-4,139.5,0.25,81,120.0
1063,F5,139.5,0.25,81,120.0
1064,B-5,139.5,0.25,81,120.0
1065,G#3,140.0,0.125,35,120.0
1066,C#6,140.0,0.25,75,120.0
1067,B-5,140.0,0.25,75,120.0
1068,F5,140.0,0.25,75,120.0
1069,C#5,140.0,0.25,75,120.0
1070,C4,140.5,0.125,42,120.0
1071,C6,140.5,0.25,78,120.0
1072,A5,140.5,0.25,78,120.0
1073,F5,140.5,0.25,78,120.0
1074,C5,140.5,0.25,78,120.0
1075,G3,141.0,0.125,35,120.0
1076,F5,141.0,0.25,75,120.0
1077,C5,141.0,0.25,75,120.0
1078,A4,141.0,0.25,75,120.0
1079,F4,141.0,0.25,75,120.0
1080,F3,141.5,1.0,39,120.0
1081,F6,141.5,0.25,88,120.0
1082,B-5,141.5,0.25,88,120.0
1083,F5,141.5,0.25,88,120.0
1084,E-6,142.0,0.25,74,120.0
1085,A5,142.0,0.25,74,120.0
1086,F5,142.0,0.25,74,120.0
1087,E-5,142.0,0.25,74,120.0
1088,C#6,142.5,0.25,74,120.0
1089,B-5,142.5,0.25,74,120.0
1090,F5,142.5,0.25,74,120.0
1091,C#5,142.5,0.25,74,120.0
1092,F2,142.5,0.375,50,120.0
1093,F3,142.5,0.375,50,120.0
1094,C6,143.0,0.25,75,120.0
1095,F5,143.0,0.25,75,120.0
1096,C5,143.0,0.25,75,120.0
1097,G#2,143.0,0.375,45,120.0
1098,G#3,143.0,0.375,45,120.0
1099,B-5,143.5,0.25,80,120.0
1100,F5,143.5,0.25,80,120.0
1101,C#5,143.5,0.25,80,120.0
1102,B-4,143.5,0.25,80,120.0
1103,G2,143.5,0.375,52,120.0
1104,G3,143.5,0.375,52,120.0
1105,C#6,144.0,0.25,72,120.0
1106,B-5,144.0,0.25,72,120.0
1107,F5,144.0,0.25,72,120.0
1108,C#5,144.0,0.25,72,120.0
1109,C2,144.0,0.375,46,120.0
1110,C3,144.0,0.375,46,120.0
1111,C6,144.5,0.25,81,120.0
1112,F5,144.5,0.25,81,120.0
1113,C5,144.5,0.25,81,120.0
1114,C3,144.5,0.375,56,120.0
1115,C4,144.5,0.375,56,120.0
1116,F5,145.0,0.25,71,120.0
1117,C5,145.0,0.25,71,120.0
1118,A4,145.0,0.25,71,120.0
1119,F4,145.0,0.25,71,120.0
1120,B-2,145.0,0.375,52,120.0
1121,B-3,145.0,0.375,52,120.0
1122,F6,145.5,0.25,100,120.0
1123,F5,145.5,0.25,100,120.0
1124,G#2,145.5,0.375,54,120.0
1125,G#3,145.5,0.375,54,120.0
1126,C#6,146.0,0.25,83,120.0
1127,B-5,146.0,0.25,83,120.0
1128,C#5,146.0,0.25,83,120.0
1129,G2,146.0,0.375,55,120.0
1130,G3,146.0,0.375,55,120.0
1131,C6,146.5,1.0,90,120.0
1132,A5,146.5,1.0,90,120.0
1133,C5,146.5,1.0,90,120.0
1134,F2,146.5,0.375,63,120.0
1135,F3,146.5,0.375,63,120.0
1136,G#2,147.0,0.375,55,120.0
1137,G#3,147.0,0.375,55,120.0
1138,F6,147.5,0.25,100,120.0
1139,F5,147.5,0.25,100,120.0
1140,G2,147.5,0.375,66,120.0
1141,G3,147.5,0.375,66,120.0
1142,C#6,148.0,0.25,85,120.0
1143,B-5,148.0,0.25,85,120.0
1144,C3,148.0,0.375,56,120.0
1145,C4,148.0,0.375,56,120.0
1146,C6,148.5,1.0,93,120.0
1147,A5,148.5,1.0,93,120.0
1148,A2,148.5,0.375,69,120.0
1149,A3,148.5,0.375,69,120.0
1150,F2,149.0,0.375,60,120.0
1151,F3,149.0,0.375,60,120.0
1152,C5,149.5,1.0,89,120.0
1153,A4,149.5,1.0,89,120.0
1154,B-2,149.5,0.375,72,120.0
1155,B-3,149.5,0.375,72,120.0
1156,C3,150.0,0.375,62,120.0
1157,C4,150.0,0.375,62,120.0
1158,C#3,150.5,0.25,78,120.0
1159,C4,150.5,1.0,89,120.0
1160,A3,150.5,1.0,89,120.0
1161,C#4,150.75,0.25,69,120.0
1162,B-2,151.0,0.25,78,120.0
1163,B-3,151.25,0.25,68,120.0
1164,F2,151.5,0.25,78,120.0
1165,C3,151.5,1.0,93,120.0
1166,A2,151.5,1.0,93,120.0
1167,F3,151.75,0.25,67,120.0
1168,E-2,152.0,0.25,78,120.0
1169,E-3,152.25,0.25,66,120.0
1170,C#2,152.5,0.25,78,120.0
1171,C2,152.5,1.0,93,120.0
1172,A1,152.5,1.0,93,120.0
1173,C#3,152.75,0.25,67,120.0
1174,C2,153.0,0.25,78,120.0
1175,C3,153.25,0.25,67,120.0
1176,B-1,153.5,0.25,73,120.0
1177,B-2,153.75,0.25,62,120.0
1178,A1,154.0,0.25,73,120.0
1179,A2,154.25,0.25,61,120.0
1180,B-1,154.5,0.25,75,120.0
1181,B-2,154.75,0.25,63,120.0
1182,B-1,155.0,0.25,73,120.0
1183,C2,155.0,1.0,93,120.0
1184,A1,155.0,1.0,93,120.0
1185,B-2,155.25,0.25,65,120.0
1186,A1,155.5,0.25,74,120.0
1187,A2,155.75,0.25,62,120.0
1188,E-2,156.0,0.25,73,120.0
1189,E-3,156.25,0.25,60,120.0
1190,C#2,156.5,0.25,71,120.0
1191,C2,156.5,0.5,93,120.0
1192,A1,156.5,0.5,93,120.0
1193,C#3,156.75,0.25,61,120.0
1194,B-1,157.0,0.25,70,120.0
1195,B-2,157.25,0.25,63,120.0
1196,F2,157.5,1.0,75,120.0
1197,F3,157.5,1.0,75,120.0
1198,C#4,158.5,0.25,71,120.0
1199,C#5,158.75,0.25,61,120.0
1200,B-3,159.0,0.25,70,120.0
1201,B-4,159.25,0.25,63,120.0
1202,F5,160.0,0.5,80,120.0
1203,F4,161.0,0.5,80,120.0
1204,F4,161.5,167/1000,81,120.0
1205,G4,161.667,167/1000,81,120.0
1206,A4,161.833,167/1000,81,120.0
1207,B-4,162.0,0.25,81,120.0
1208,F3,162.0,0.5,80,120.0
1209,C5,162.25,0.25,82,120.0
1210,D5,162.5,0.25,82,120.0
1211,E5,162.75,0.25,83,120.0
1212,F5,163.0,167/1000,83,120.0
1213,F2,163.0,0.5,80,120.0
1214,G5,163.167,167/1000,83,120.0
1215,A5,163.333,167/1000,84,120.0
1216,B-5,163.5,0.25,84,120.0
1217,C6,163.75,0.25,84,120.0
1218,D6,164.0,0.25,85,120.0
1219,F1,164.0,0.5,89,120.0
1220,E6,164.25,0.25,85,120.0
1221,F6,164.5,167/1000,86,120.0
1222,F1,164.5,1.0,89,120.0
1223,G6,164.667,167/1000,88,120.0
1224,A6,164.833,167/1000,89,120.0
1225,B-6,165.0,0.25,90,120.0
1226,C7,165.25,0.25,92,120.0
1227,D7,165.5,0.25,94,120.0
1228,F1,165.5,0.5,89,120.0
1229,E7,165.75,0.25,96,120.0
1230,F7,166.0,0.25,98,120.0
1231,F1,166.0,167/1000,65,120.0
1232,G1,166.167,167/1000,65,120.0
1233,A1,166.333,167/1000,66,120.0
1234,B-1,166.5,0.25,66,120.0
1235,E-5,166.5,0.125,74,120.0
1236,F#5,166.5,0.125,74,120.0
1237,A4,166.625,0.125,70,120.0
1238,C2,166.75,0.25,67,120.0
1239,E-5,166.75,0.125,73,120.0
1240,F#5,166.75,0.125,73,120.0
1241,A4,166.875,0.125,70,120.0
1242,D2,167.0,0.25,68,120.0
1243,E-5,167.0,0.125,73,120.0
1244,F#5,167.0,0.125,73,120.0
1245,A4,167.125,0.125,70,120.0
1246,E2,167.25,0.25,69,120.0
1247,E-5,167.25,0.125,73,120.0
1248,F#5,167.25,0.125,73,120.0
1249,A4,167.375,0.125,70,120.0
1250,F2,167.5,167/1000,69,120.0
1251,E-5,167.5,0.125,74,120.0
1252,F#5,167.5,0.125,74,120.0
1253,A4,167.625,0.125,70,120.0
1254,G2,167.667,167/1000,70,120.0
1255,E-5,167.75,0.125,71,120.0
1256,F#5,167.75,0.125,71,120.0
1257,A2,167.833,167/1000,70,120.0
1258,A4,167.875,0.125,70,120.0
1259,B-2,168.0,0.25,71,120.0
1260,C3,168.25,0.25,72,120.0
1261,D3,168.5,0.25,73,120.0
1262,E3,168.75,0.25,73,120.0
1263,F3,169.0,167/1000,74,120.0
1264,G3,169.167,167/1000,75,120.0
1265,A3,169.333,167/1000,75,120.0
1266,D5,169.5,0.375,50,120.0
1267,B-3,169.5,0.25,76,120.0
1268,C4,169.75,0.25,77,120.0
1269,A4,169.875,14/125,46,120.0
1270,F5,169.875,14/125,46,120.0
1271,D4,170.0,0.25,77,120.0
1272,C5,170.0,0.5,58,120.0
1273,F5,170.0,0.5,58,120.0
1274,E4,170.25,0.25,78,120.0
1275,F4,170.5,0.25,50,120.0
1276,D5,170.5,0.25,50,120.0
1277,B-4,171.0,0.375,50,120.0
1278,F#4,171.375,14/125,46,120.0
1279,D5,171.375,14/125,46,120.0
1280,A4,171.5,0.5,58,120.0
1281,D5,171.5,0.5,58,120.0
1282,D4,172.0,0.25,50,120.0
1283,B-4,172.0,0.25,50,120.0
1284,G4,172.5,0.375,52,120.0
1285,D4,172.875,14/125,48,120.0
1286,B-4,172.875,14/125,48,120.0
1287,F4,173.0,0.5,62,120.0
1288,B-4,173.0,0.5,62,120.0
1289,F4,173.5,167/1000,60,120.0
1290,B-3,173.5,0.25,56,120.0
1291,G4,173.5,0.25,56,120.0
1292,G4,173.667,167/1000,61,120.0
1293,A4,173.833,167/1000,62,120.0
1294,B-4,174.0,0.25,63,120.0
1295,B-3,174.0,0.375,52,120.0
1296,G4,174.0,0.375,52,120.0
1297,C5,174.25,0.25,64,120.0
1298,E-4,174.375,14/125,53,120.0
1299,A4,174.375,14/125,53,120.0
1300,D5,174.5,0.25,65,120.0
1301,E-4,174.5,0.5,67,120.0
1302,A4,174.5,0.5,67,120.0
1303,E5,174.75,0.25,67,120.0
1304,F5,175.0,0.25,68,120.0
1305,B-3,175.0,0.25,60,120.0
1306,B-4,175.0,0.25,60,120.0
1307,F4,175.5,0.5,51,120.0
1308,B-4,175.5,0.375,61,120.0
1309,F3,175.5,0.125,66,120.0
1310,E-4,175.625,0.125,58,120.0
1311,F3,175.75,0.125,66,120.0
1312,C5,175.875,14/125,63,120.0
1313,E-4,175.875,0.125,58,120.0
1314,F3,176.0,0.125,66,120.0
1315,F4,176.0,0.5,73,120.0
1316,C5,176.0,0.5,73,120.0
1317,E-4,176.125,0.125,58,120.0
1318,F3,176.25,0.125,66,120.0
1319,E-4,176.375,0.125,58,120.0
1320,F3,176.5,0.125,66,120.0
1321,B-4,176.5,0.25,64,120.0
1322,F4,176.5,0.25,64,120.0
1323,D5,176.5,0.25,64,120.0
1324,E-4,176.625,0.125,57,120.0
1325,F3,176.75,0.125,65,120.0
1326,E-4,176.875,0.125,58,120.0
1327,B-4,177.0,0.5,56,120.0
1328,D5,177.0,0.375,67,120.0
1329,E-5,177.375,14/125,70,120.0
1330,B-4,177.5,0.5,82,120.0
1331,E-5,177.5,0.5,82,120.0
1332,C#5,178.0,0.125,72,120.0
1333,B-4,178.0,0.125,72,120.0
1334,F4,178.0,0.125,72,120.0
1335,F5,178.0,0.125,72,120.0
1336,G4,178.5,0.125,83,120.0
1337,B-4,178.5,0.125,83,120.0
1338,C5,178.5,0.125,83,120.0
1339,G5,178.5,0.125,83,120.0
1340,D4,178.5,0.375,37,120.0
1341,B-3,178.5,0.375,37,120.0
1342,F3,178.875,14/125,37,120.0
1343,C4,178.875,14/125,37,120.0
1344,C4,179.0,0.25,84,120.0
1345,A4,179.0,0.25,84,120.0
1346,C5,179.0,0.25,84,120.0
1347,C4,179.0,0.5,46,120.0
1348,A3,179.0,0.5,46,120.0
1349,D4,179.5,0.25,40,120.0
1350,B-3,179.5,0.25,40,120.0
1351,D6,180.0,0.375,50,120.0
1352,B-3,180.0,0.375,37,120.0
1353,G3,180.0,0.375,37,120.0
1354,A5,180.375,14/125,46,120.0
1355,F6,180.375,14/125,46,120.0
1356,D3,180.375,14/125,37,120.0
1357,A3,180.375,14/125,37,120.0
1358,A5,180.5,0.5,58,120.0
1359,F6,180.5,0.5,58,120.0
1360,A3,180.5,0.5,46,120.0
1361,F#3,180.5,0.5,46,120.0
1362,F5,180.75,0.5,46,120.0
1363,D6,181.0,0.25,55,120.0
1364,B-3,181.0,0.25,40,120.0
1365,G3,181.0,0.25,40,120.0
1366,B-5,181.5,0.375,50,120.0
1367,G3,181.5,0.375,38,120.0
1368,E-3,181.5,0.375,38,120.0
1369,F#5,181.875,14/125,46,120.0
1370,D6,181.875,14/125,46,120.0
1371,B-2,181.875,14/125,39,120.0
1372,F3,181.875,14/125,39,120.0
1373,D6,182.0,0.5,62,120.0
1374,F3,182.0,0.5,50,120.0
1375,D3,182.0,0.5,50,120.0
1376,D5,182.25,0.5,46,120.0
1377,B-5,182.5,0.25,55,120.0
1378,G3,182.5,0.25,44,120.0
1379,E-3,182.5,0.25,44,120.0
1380,G5,183.0,0.375,52,120.0
1381,G3,183.0,0.375,42,120.0
1382,E-3,183.0,0.375,42,120.0
1383,D5,183.375,14/125,48,120.0
1384,B-5,183.375,14/125,48,120.0
1385,C3,183.375,14/125,42,120.0
1386,F3,183.375,14/125,42,120.0
1387,B-5,183.5,0.5,66,120.0
1388,F3,183.5,0.75,58,120.0
1389,C3,183.5,0.5,49,120.0
1390,B-4,183.75,0.5,51,120.0
1391,G5,184.0,0.25,61,120.0
1392,D3,184.0,0.25,44,120.0
1393,F3,184.5,0.5,41,120.0
1394,D3,184.5,0.375,49,120.0
1395,B-4,184.5,0.375,52,120.0
1396,G5,184.5,0.375,52,120.0
1397,A2,184.875,14/125,42,120.0
1398,E-5,184.875,14/125,53,120.0
1399,A5,184.875,14/125,53,120.0
1400,A5,185.0,0.5,72,120.0
1401,F3,185.0,0.75,64,120.0
1402,A2,185.0,0.5,53,120.0
1403,E-5,185.269,0.25,62,120.0
1404,G#2,185.5,0.25,48,120.0
1405,B-4,185.5,0.25,60,120.0
1406,B-5,185.5,0.25,60,120.0
1407,F5,186.0,0.5,51,120.0
1408,B-5,186.0,0.375,61,120.0
1409,G#2,186.0,0.375,49,120.0
1410,F3,186.0,0.375,49,120.0
1411,C6,186.375,14/125,63,120.0
1412,G2,186.375,14/125,46,120.0
1413,E-3,186.375,14/125,46,120.0
1414,C6,186.5,0.5,79,120.0
1415,E-3,186.5,0.5,65,120.0
1416,G2,186.5,0.5,65,120.0
1417,F5,186.75,0.5,67,120.0
1418,D6,187.0,0.25,72,120.0
1419,C#3,187.0,0.125,52,120.0
1420,F2,187.0,0.125,52,120.0
1421,B-5,187.5,0.5,56,120.0
1422,E-6,187.5,0.375,67,120.0
1423,E2,187.5,0.125,60,120.0
1424,C3,187.5,0.125,60,120.0
1425,E6,187.875,14/125,70,120.0
1426,E6,188.0,0.5,88,120.0
1427,F2,188.0,0.25,60,120.0
1428,F3,188.0,0.25,60,120.0
1429,B-5,188.25,0.25,76,120.0
1430,A5,188.5,0.125,75,120.0
1431,F6,188.5,0.125,75,120.0
1432,G5,189.0,0.125,83,120.0
1433,B-5,189.0,0.125,83,120.0
1434,E6,189.0,0.125,83,120.0
1435,G6,189.0,0.125,83,120.0
1436,D5,189.0,0.375,37,120.0
1437,B-4,189.0,0.375,37,120.0
1438,F4,189.375,14/125,37,120.0
1439,C5,189.375,14/125,37,120.0
1440,F5,189.5,0.25,84,120.0
1441,A5,189.5,0.25,84,120.0
1442,F6,189.5,0.25,84,120.0
1443,C5,189.5,0.5,46,120.0
1444,A4,189.5,0.5,46,120.0
1445,D5,190.0,0.25,40,120.0
1446,B-4,190.0,0.25,40,120.0
1447,B4,190.5,0.375,46,120.0
1448,D5,190.5,0.375,46,120.0
1449,B-4,190.5,0.375,37,120.0
1450,G4,190.5,0.375,37,120.0
1451,D5,190.875,0.094,46,120.0
1452,F5,190.875,0.094,46,120.0
1453,D4,190.875,14/125,37,120.0
1454,A4,190.875,14/125,37,120.0
1455,D5,191.0,0.5,58,120.0
1456,F5,191.0,0.5,58,120.0
1457,A4,191.0,0.5,46,120.0
1458,F#4,191.0,0.5,46,120.0
1459,B4,191.5,0.25,50,120.0
1460,D5,191.5,0.25,50,120.0
1461,B-4,191.5,0.25,40,120.0
1462,G4,191.5,0.25,40,120.0
1463,B4,192.0,0.375,46,120.0
1464,D5,192.0,0.375,46,120.0
1465,G4,192.0,0.375,38,120.0
1466,E-4,192.0,0.375,38,120.0
1467,E-5,192.375,0.094,46,120.0
1468,G5,192.375,0.094,46,120.0
1469,B-3,192.375,14/125,39,120.0
1470,F4,192.375,14/125,39,120.0
1471,E-5,192.5,0.5,58,120.0
1472,G5,192.5,0.5,58,120.0
1473,F4,192.5,0.5,50,120.0
1474,D4,192.5,0.5,50,120.0
1475,C5,193.0,0.25,50,120.0
1476,E-5,193.0,0.25,50,120.0
1477,G4,193.0,0.25,44,120.0
1478,E-4,193.0,0.25,44,120.0
1479,A4,193.5,0.375,46,120.0
1480,C5,193.5,0.375,46,120.0
1481,G4,193.5,0.375,42,120.0
1482,E-4,193.5,0.375,42,120.0
1483,C5,193.875,0.094,46,120.0
1484,E-5,193.875,0.094,46,120.0
1485,C4,193.875,14/125,42,120.0
1486,F4,193.875,14/125,42,120.0
1487,F4,194.0,0.75,58,120.0
1488,C4,194.0,0.5,49,120.0
1489,C5,194.0,0.5,58,120.0
1490,E-5,194.0,0.5,58,120.0
1491,E-4,194.25,0.5,34,120.0
1492,D4,194.5,0.25,44,120.0
1493,A4,194.5,0.25,50,120.0
1494,C5,194.5,0.25,50,120.0
1495,D5,195.0,0.375,49,120.0
1496,A4,195.0,0.375,46,120.0
1497,C5,195.0,0.375,46,120.0
1498,C#5,195.375,0.094,46,120.0
1499,F5,195.375,0.094,46,120.0
1500,C5,195.375,14/125,42,120.0
1501,A4,195.375,14/125,42,120.0
1502,D5,195.5,0.5,58,120.0
1503,F5,195.5,0.5,58,120.0
1504,C5,195.5,0.5,58,120.0
1505,A4,195.5,0.5,58,120.0
1506,F4,195.75,0.5,34,120.0
1507,B-4,196.0,0.25,50,120.0
1508,D5,196.0,0.25,50,120.0
1509,B-4,196.0,0.25,50,120.0
1510,G#4,196.0,0.25,50,120.0
1511,G4,196.5,0.375,45,120.0
1512,B-4,196.5,0.5,53,120.0
1513,A3,196.5,0.375,42,120.0
1514,C4,196.5,0.375,42,120.0
1515,F#4,196.875,14/125,46,120.0
1516,C4,196.875,0.094,41,120.0
1517,E-4,196.875,0.094,41,120.0
1518,C4,197.0,1.0,51,120.0
1519,E-4,197.0,1.0,51,120.0
1520,B-4,197.0,0.5,65,120.0
1521,F#4,197.0,0.5,65,120.0
1522,C5,197.5,0.125,52,120.0
1523,F4,197.5,0.125,52,120.0
1524,B-3,198.0,0.5,44,120.0
1525,D4,198.0,0.5,44,120.0
1526,C3,198.0,0.125,60,120.0
1527,C4,198.0,0.125,60,120.0
1528,A3,198.5,0.5,42,120.0
1529,C4,198.5,0.5,42,120.0
1530,F3,198.5,0.25,60,120.0
1531,F4,198.5,0.25,60,120.0
1532,G3,199.0,0.5,42,120.0
1533,B-3,199.0,0.5,42,120.0
1534,F3,199.5,0.5,40,120.0
1535,A3,199.5,0.5,40,120.0
1536,F4,199.5,0.5,37,120.0
1537,F3,199.5,0.5,37,120.0
1538,F4,200.0,0.25,37,120.0
1539,F3,200.0,0.25,37,120.0
1540,F3,200.25,0.25,34,120.0
1541,F4,200.5,0.25,39,120.0
1542,F3,200.5,0.5,40,120.0
1543,A3,200.5,0.5,40,120.0
1544,E3,201.0,0.5,36,120.0
1545,G3,201.0,0.5,36,120.0
1546,F3,201.0,0.5,37,120.0
1547,F2,201.0,0.5,37,120.0
1548,G3,201.5,0.5,32,120.0
1549,E-3,201.5,0.5,35,120.0
1550,C4,201.5,0.5,35,120.0
1551,F3,201.5,0.25,37,120.0
1552,F2,201.5,0.25,37,120.0
1553,F2,201.75,0.25,34,120.0
1554,G3,202.0,1.0,32,120.0
1555,F3,202.0,0.25,39,120.0
1556,E-3,202.0,0.5,35,120.0
1557,C4,202.0,0.5,35,120.0
1558,D3,202.5,0.5,35,120.0
1559,B3,202.5,0.5,35,120.0
1560,F3,202.5,0.5,37,120.0
1561,F2,202.5,0.5,37,120.0
1562,F3,203.0,0.25,37,120.0
1563,F2,203.0,0.25,37,120.0
1564,F2,203.25,0.25,34,120.0
1565,F3,203.5,0.25,39,120.0
1566,F2,204.0,0.5,33,120.0
1567,F1,204.0,0.5,33,120.0
1568,B3,204.5,0.375,40,120.0
1569,F2,204.5,0.25,33,120.0
1570,F1,204.5,0.25,33,120.0
1571,F1,204.75,0.25,34,120.0
1572,D4,204.875,14/125,40,120.0
1573,D4,205.0,0.5,49,120.0
1574,F2,205.0,0.25,39,120.0
1575,B3,205.5,0.25,44,120.0
1576,F#2,205.5,0.5,33,120.0
1577,F#1,205.5,0.5,33,120.0
1578,D4,206.0,0.5,33,120.0
1579,B4,206.0,0.375,40,120.0
1580,F#2,206.0,0.5,33,120.0
1581,F#1,206.0,0.5,33,120.0
1582,D5,206.375,14/125,40,120.0
1583,D5,206.5,0.5,49,120.0
1584,D4,206.5,123/500,33,120.0
1585,G1,206.5,1.0,31,120.0
1586,G2,206.5,1.0,31,120.0
1587,D4,206.75,0.5,33,120.0
1588,B4,207.0,0.25,44,120.0
1589,C6,207.5,0.375,46,120.0
1590,E-6,207.875,14/125,46,120.0
1591,E-6,208.0,0.5,56,120.0
1592,G1,208.0,0.5,31,120.0
1593,G2,208.0,0.5,31,120.0
1594,C6,208.5,0.25,50,120.0
1595,A1,208.5,0.5,30,120.0
1596,A2,208.5,0.5,30,120.0
1597,D4,209.0,0.375,46,120.0
1598,B4,209.0,0.375,46,120.0
1599,B-1,209.0,0.5,30,120.0
1600,B-2,209.0,0.5,30,120.0
1601,F4,209.375,0.094,46,120.0
1602,D5,209.375,0.094,46,120.0
1603,F4,209.5,0.5,58,120.0
1604,D5,209.5,0.5,58,120.0
1605,B1,209.5,0.5,30,120.0
1606,B2,209.5,0.5,30,120.0
1607,D4,210.0,0.25,50,120.0
1608,B4,210.0,0.25,50,120.0
1609,C2,210.0,0.5,30,120.0
1610,C3,210.0,0.5,30,120.0
1611,C2,210.5,0.5,32,120.0
1612,D4,210.5,0.375,53,120.0
1613,B4,210.5,0.375,53,120.0
1614,G4,210.875,0.094,52,120.0
1615,E-5,210.875,0.094,52,120.0
1616,G2,211.0,1.0,32,120.0
1617,G4,211.0,0.5,66,120.0
1618,E-5,211.0,0.5,66,120.0
1619,E-4,211.5,0.25,60,120.0
1620,C5,211.5,0.25,60,120.0
1621,A4,212.0,0.375,65,120.0
1622,C5,212.0,0.375,65,120.0
1623,C5,212.375,14/125,70,120.0
1624,A5,212.375,14/125,70,120.0
1625,C5,212.5,0.5,87,120.0
1626,A5,212.5,0.5,87,120.0
1627,A4,213.0,0.125,80,120.0
1628,F5,213.0,0.125,80,120.0
1629,B-4,213.5,0.125,99,120.0
1630,B-5,213.5,0.125,99,120.0
1631,B-4,214.0,0.25,99,120.0
1632,B-5,214.0,0.25,99,120.0
1633,G2,215.0,0.375,32,120.0
1634,G3,215.0,0.5,27,120.0
1635,B5,215.0,0.375,46,120.0
1636,D6,215.0,0.375,46,120.0
1637,B2,215.375,14/125,32,120.0
1638,D6,215.375,0.094,46,120.0
1639,F6,215.375,0.094,46,120.0
1640,B2,215.5,0.5,40,120.0
1641,G3,215.5,1.0,27,120.0
1642,D6,215.5,0.5,58,120.0
1643,F6,215.5,0.5,58,120.0
1644,G2,216.0,0.25,35,120.0
1645,B5,216.0,0.25,50,120.0
1646,D6,216.0,0.25,50,120.0
1647,C5,216.5,0.375,36,120.0
1648,B5,216.5,0.375,46,120.0
1649,D6,216.5,0.375,46,120.0
1650,E-5,216.875,14/125,36,120.0
1651,E-6,216.875,0.094,46,120.0
1652,G6,216.875,0.094,46,120.0
1653,E-5,217.0,0.5,46,120.0
1654,E-6,217.0,0.5,58,120.0
1655,G6,217.0,0.5,58,120.0
1656,C5,217.5,0.25,40,120.0
1657,C6,217.5,0.25,50,120.0
1658,E-6,217.5,0.25,50,120.0
1659,A5,218.0,0.375,46,120.0
1660,C6,218.0,0.375,46,120.0
1661,G3,218.0,0.5,37,120.0
1662,G2,218.0,0.5,37,120.0
1663,C6,218.375,0.094,46,120.0
1664,E-6,218.375,0.094,46,120.0
1665,C6,218.5,0.5,58,120.0
1666,E-6,218.5,0.5,58,120.0
1667,G3,218.5,123/500,37,120.0
1668,G2,218.5,123/500,37,120.0
1669,E-5,218.75,0.5,39,120.0
1670,G2,218.75,0.25,34,120.0
1671,G3,219.0,0.25,39,120.0
1672,A5,219.0,0.25,50,120.0
1673,C6,219.0,0.25,50,120.0
1674,A5,219.5,0.375,46,120.0
1675,C6,219.5,0.375,46,120.0
1676,C3,219.5,0.5,42,120.0
1677,C2,219.5,0.5,42,120.0
1678,C#6,219.875,0.094,46,120.0
1679,F6,219.875,0.094,46,120.0
1680,D6,220.0,0.5,58,120.0
1681,F6,220.0,0.5,58,120.0
1682,C3,220.0,0.25,42,120.0
1683,C2,220.0,0.25,42,120.0
1684,F5,220.25,0.5,39,120.0
1685,C2,220.25,0.25,54,120.0
1686,C3,220.5,0.25,64,120.0
1687,B-5,220.5,0.25,50,120.0
1688,D6,220.5,0.25,50,120.0
1689,A4,221.0,0.375,42,120.0
1690,C5,221.0,0.375,42,120.0
1691,F1,221.0,0.5,62,120.0
1692,F2,221.0,0.5,62,120.0
1693,C5,221.375,0.094,41,120.0
1694,E-5,221.375,0.094,41,120.0
1695,C5,221.5,1.0,51,120.0
1696,E-5,221.5,1.0,51,120.0
1697,F1,221.5,123/500,62,120.0
1698,F2,221.5,123/500,62,120.0
1699,F2,221.75,0.25,75,120.0
1700,F3,222.0,0.125,86,120.0
1701,B-4,222.5,0.5,44,120.0
1702,D5,222.5,0.5,44,120.0
1703,B-1,222.5,0.125,68,120.0
1704,B-2,222.5,0.125,68,120.0
1705,A4,223.0,0.5,42,120.0
1706,C5,223.0,0.5,42,120.0
1707,B-1,223.0,0.25,68,120.0
1708,B-2,223.0,0.25,68,120.0
1709,G4,223.5,0.5,42,120.0
1710,B-4,223.5,0.5,42,120.0
1711,F4,224.0,0.5,40,120.0
1712,A4,224.0,0.5,40,120.0
1713,F5,224.0,0.5,37,120.0
1714,F4,224.0,0.5,37,120.0
1715,F5,224.5,123/500,37,120.0
1716,F4,224.5,123/500,37,120.0
1717,F4,224.75,0.25,34,120.0
1718,F5,225.0,0.25,39,120.0
1719,F4,225.0,0.5,40,120.0
1720,A4,225.0,0.5,40,120.0
1721,E4,225.5,0.5,36,120.0
1722,G4,225.5,0.5,36,120.0
1723,F3,225.5,0.5,37,120.0
1724,F4,225.5,0.5,37,120.0
1725,G4,226.0,0.5,32,120.0
1726,E-4,226.0,0.5,35,120.0
1727,C5,226.0,0.5,35,120.0
1728,F3,226.0,123/500,37,120.0
1729,F4,226.0,123/500,37,120.0
1730,F3,226.25,0.25,34,120.0
1731,G4,226.5,1.0,32,120.0
1732,F4,226.5,0.25,39,120.0
1733,E-4,226.5,0.5,35,120.0
1734,C5,226.5,0.5,35,120.0
1735,D4,227.0,0.5,35,120.0
1736,B4,227.0,0.5,35,120.0
1737,F4,227.0,0.5,37,120.0
1738,F3,227.0,0.5,37,120.0
1739,F4,227.5,123/500,37,120.0
1740,F3,227.5,123/500,37,120.0
1741,F3,227.75,0.25,34,120.0
1742,F4,228.0,0.25,39,120.0
1743,F2,228.5,0.5,33,120.0
1744,F3,228.5,0.5,33,120.0
1745,B4,229.0,0.375,40,120.0
1746,F2,229.0,123/500,33,120.0
1747,F3,229.0,123/500,33,120.0
1748,F2,229.25,0.25,34,120.0
1749,D5,229.375,14/125,40,120.0
1750,D5,229.5,0.5,49,120.0
1751,F3,229.5,0.25,39,120.0
1752,B4,230.0,0.25,44,120.0
1753,C4,230.0,0.5,32,120.0
1754,E-4,230.0,0.5,32,120.0
1755,F#3,230.0,0.5,32,120.0
1756,D3,230.5,0.5,33,120.0
1757,B3,230.5,0.375,40,120.0
1758,C4,230.5,49/100,32,120.0
1759,E-4,230.5,49/100,32,120.0
1760,F#3,230.5,49/100,32,120.0
1761,D4,230.875,14/125,40,120.0
1762,D4,231.0,0.5,49,120.0
1763,D3,231.0,0.25,33,120.0
1764,F#3,231.0,0.5,30,120.0
1765,C4,231.0,0.5,30,120.0
1766,E-4,231.0,0.5,30,120.0
1767,D3,231.25,0.5,33,120.0
1768,B3,231.5,0.25,44,120.0
1769,D4,231.5,0.5,30,120.0
1770,G3,231.5,0.5,30,120.0
1771,B-3,231.5,0.5,30,120.0
1772,C6,232.0,0.375,46,120.0
1773,A3,232.0,0.25,31,120.0
1774,C4,232.0,0.25,31,120.0
1775,A2,232.25,0.25,28,120.0
1776,E-6,232.375,14/125,46,120.0
1777,E-6,232.5,0.5,56,120.0
1778,B-3,232.5,0.5,30,120.0
1779,G3,232.5,0.5,30,120.0
1780,B-2,232.5,0.5,30,120.0
1781,C6,233.0,0.25,50,120.0
1782,B2,233.0,0.5,28,120.0
1783,F3,233.0,0.5,30,120.0
1784,A3,233.0,0.5,30,120.0
1785,D5,233.5,0.375,46,120.0
1786,B5,233.5,0.375,46,120.0
1787,F5,233.875,0.094,46,120.0
1788,D6,233.875,0.094,46,120.0
1789,C3,234.0,1.0,28,120.0
1790,F5,234.0,0.5,58,120.0
1791,D6,234.0,0.5,58,120.0
1792,F3,234.0,0.5,30,120.0
1793,A3,234.0,0.5,30,120.0
1794,D5,234.5,0.25,52,120.0
1795,B5,234.5,0.25,52,120.0
1796,G3,234.5,0.5,30,120.0
1797,E3,234.5,0.5,30,120.0
1798,C4,235.0,0.5,32,120.0
1799,D5,235.0,0.375,55,120.0
1800,B5,235.0,0.375,55,120.0
1801,E-3,235.0,0.5,30,120.0
1802,G3,235.0,0.5,30,120.0
1803,G5,235.375,0.094,55,120.0
1804,E-6,235.375,0.094,55,120.0
1805,G3,235.5,1.0,32,120.0
1806,C4,235.5,0.5,32,120.0
1807,G5,235.5,0.5,69,120.0
1808,E-6,235.5,0.5,69,120.0
1809,B3,236.0,0.5,30,120.0
1810,E-5,236.0,0.25,62,120.0
1811,C6,236.0,0.25,62,120.0
1812,A5,236.5,0.375,70,120.0
1813,C6,236.5,0.375,70,120.0
1814,C6,236.875,14/125,74,120.0
1815,A6,236.875,14/125,74,120.0
1816,C6,237.0,0.5,93,120.0
1817,A6,237.0,0.5,93,120.0
1818,A5,237.5,0.125,85,120.0
1819,F6,237.5,0.125,85,120.0
1820,B-5,238.0,0.125,108,120.0
1821,B-6,238.0,0.125,108,120.0
1822,B-5,238.5,0.25,108,120.0
1823,B-6,238.5,0.25,108,120.0
1824,G1,239.5,0.375,32,120.0
1825,G2,239.5,0.5,27,120.0
1826,B3,239.5,0.125,32,120.0
1827,B4,239.5,0.125,32,120.0
1828,B1,239.875,14/125,32,120.0
1829,B1,240.0,0.5,40,120.0
1830,G2,240.0,1.0,27,120.0
1831,B3,240.0,0.25,32,120.0
1832,B4,240.0,0.25,32,120.0
1833,G1,240.5,0.25,35,120.0
1834,C5,241.0,0.375,36,120.0
1835,B-5,241.0,0.125,108,120.0
1836,B-6,241.0,0.125,108,120.0
1837,E-5,241.375,14/125,36,120.0
1838,E-5,241.5,0.5,46,120.0
1839,B-5,241.5,0.25,108,120.0
1840,B-6,241.5,0.25,108,120.0
1841,C5,242.0,0.25,40,120.0
1842,B3,242.5,0.125,28,120.0
1843,B4,242.5,0.125,28,120.0
1844,G4,242.5,0.5,37,120.0
1845,G3,242.5,0.5,37,120.0
1846,B3,243.0,0.25,28,120.0
1847,B4,243.0,0.25,28,120.0
1848,G4,243.0,0.25,37,120.0
1849,G3,243.0,0.25,37,120.0
1850,G3,243.25,0.25,34,120.0
1851,G4,243.5,0.25,40,120.0
1852,B-3,244.0,0.125,26,120.0
1853,B-4,244.0,0.125,26,120.0
1854,C4,244.0,0.5,44,120.0
1855,C3,244.0,0.5,44,120.0
1856,B-3,244.5,0.25,24,120.0
1857,B-4,244.5,0.25,24,120.0
1858,C4,244.5,0.25,44,120.0
1859,C3,244.5,0.25,44,120.0
1860,C3,244.75,0.25,55,120.0
1861,C4,245.0,0.25,64,120.0
1862,D4,245.5,0.375,31,120.0
1863,F2,245.5,0.5,66,120.0
1864,F3,245.5,0.5,66,120.0
1865,F#4,245.875,119/1000,28,120.0
1866,F#4,246.0,0.5,33,120.0
1867,F2,246.0,0.25,66,120.0
1868,F3,246.0,0.25,66,120.0
1869,F2,246.25,0.25,70,120.0
1870,D4,246.5,0.25,28,120.0
1871,F3,246.5,0.125,78,120.0
1872,B3,247.0,0.125,25,120.0
1873,B4,247.0,0.125,25,120.0
1874,B-1,247.0,0.125,75,120.0
1875,B-2,247.0,0.125,75,120.0
1876,B3,247.5,0.25,24,120.0
1877,B4,247.5,0.25,24,120.0
1878,B-1,247.5,0.25,75,120.0
1879,B-2,247.5,0.25,75,120.0
1880,B3,248.5,0.125,25,120.0
1881,B4,248.5,0.125,25,120.0
1882,B1,248.5,0.125,22,120.0
1883,B2,248.5,0.125,22,120.0
1884,B3,249.0,0.25,24,120.0
1885,B4,249.0,0.25,24,120.0
1886,B1,249.0,0.25,22,120.0
1887,B2,249.0,0.25,22,120.0
1888,B3,250.0,31/125,42,120.0
1889,B4,250.0,31/125,42,120.0
1890,B-1,250.0,0.125,75,120.0
1891,B-2,250.0,0.125,75,120.0
1892,B3,250.5,62/125,43,120.0
1893,B4,250.5,62/125,43,120.0
1894,B-1,250.5,0.25,75,120.0
1895,B-2,250.5,0.25,75,120.0
1896,B3,251.0,62/125,47,120.0
1897,B4,251.0,62/125,47,120.0
1898,B3,251.5,62/125,50,120.0
1899,B4,251.5,62/125,50,120.0
1900,B1,251.5,0.125,19,120.0
1901,B2,251.5,0.125,19,120.0
1902,B3,252.0,62/125,54,120.0
1903,B4,252.0,62/125,54,120.0
1904,B1,252.0,0.25,18,120.0
1905,B2,252.0,0.25,18,120.0
1906,B3,252.5,62/125,60,120.0
1907,B4,252.5,62/125,60,120.0
1908,B4,253.0,62/125,66,120.0
1909,B5,253.0,62/125,66,120.0
1910,B-1,253.0,0.125,18,120.0
1911,B-2,253.0,0.125,18,120.0
1912,B4,253.5,62/125,72,120.0
1913,B5,253.5,62/125,72,120.0
1914,B-1,253.5,0.25,18,120.0
1915,B-2,253.5,0.25,18,120.0
1916,B4,254.0,62/125,80,120.0
1917,B5,254.0,62/125,80,120.0
1918,B4,254.5,62/125,88,120.0
1919,B5,254.5,62/125,88,120.0
1920,B5,255.0,62/125,89,120.0
1921,B6,255.0,62/125,89,120.0
1922,B5,255.5,62/125,90,120.0
1923,B6,255.5,62/125,90,120.0
1924,B5,256.0,62/125,90,120.0
1925,B6,256.0,62/125,90,120.0
1926,B1,256.0,0.125,17,120.0
1927,B2,256.0,0.125,17,120.0
1928,B6,256.5,62/125,96,120.0
1929,B5,256.5,62/125,96,120.0
1930,B1,256.5,0.25,16,120.0
1931,B2,256.5,0.25,16,120.0
1932,B6,257.0,62/125,91,120.0
1933,B5,257.0,62/125,91,120.0
1934,B6,257.5,0.5,92,120.0
1935,B5,257.5,0.5,92,120.0
1936,B1,257.5,0.125,17,120.0
1937,B2,257.5,0.125,17,120.0
1938,B-5,258.0,0.25,100,120.0
1939,B-6,258.0,0.25,100,120.0
1940,B1,258.0,0.25,16,120.0
1941,B2,258.0,0.25,16,120.0
1942,B-5,258.5,0.25,100,120.0
1943,B-6,258.5,0.25,100,120.0
1944,B1,259.0,31/125,28,120.0
1945,B2,259.0,31/125,28,120.0
1946,D4,259.5,0.375,40,120.0
1947,B1,259.5,62/125,38,120.0
1948,B2,259.5,62/125,38,120.0
1949,F4,259.875,14/125,40,120.0
1950,F4,260.0,0.5,49,120.0
1951,B1,260.0,62/125,42,120.0
1952,B2,260.0,62/125,42,120.0
1953,C4,260.25,0.5,46,120.0
1954,F3,260.5,0.25,38,120.0
1955,D4,260.5,0.25,38,120.0
1956,B1,260.5,62/125,46,120.0
1957,B2,260.5,62/125,46,120.0
1958,D5,260.979,0.375,40,120.0
1959,B1,261.0,62/125,50,120.0
1960,B2,261.0,62/125,50,120.0
1961,F5,261.354,14/125,40,120.0
1962,F5,261.479,21/1000,49,120.0
1963,F5,261.5,479/1000,49,120.0
1964,B1,261.5,62/125,56,120.0
1965,B2,261.5,62/125,56,120.0
1966,C5,261.729,0.5,33,120.0
1967,F4,261.979,0.25,38,120.0
1968,D5,261.979,0.25,38,120.0
1969,B1,262.0,62/125,60,120.0
1970,B2,262.0,62/125,60,120.0
1971,D6,262.494,0.375,34,120.0
1972,B1,262.5,62/125,66,120.0
1973,B2,262.5,62/125,66,120.0
1974,F6,262.869,14/125,34,120.0
1975,F6,262.994,3/500,41,120.0
1976,F6,263.0,247/500,41,120.0
1977,B1,263.0,62/125,71,120.0
1978,B2,263.0,62/125,71,120.0
1979,C6,263.244,0.5,35,120.0
1980,F5,263.494,0.25,32,120.0
1981,D6,263.494,0.25,32,120.0
1982,B1,263.5,62/125,76,120.0
1983,B2,263.5,62/125,76,120.0
1984,B1,264.0,62/125,74,120.0
1985,B2,264.0,62/125,74,120.0
1986,B1,264.5,62/125,76,120.0
1987,B2,264.5,62/125,76,120.0
1988,B1,265.0,62/125,78,120.0
1989,B2,265.0,62/125,78,120.0
1990,B1,265.5,62/125,79,120.0
1991,B2,265.5,62/125,79,120.0
1992,B1,266.0,62/125,76,120.0
1993,B2,266.0,62/125,76,120.0
1994,B1,266.5,0.5,76,120.0
1995,B2,266.5,0.5,76,120.0
1996,B-1,267.0,0.25,92,120.0
1997,B-2,267.0,0.25,92,120.0
1998,B-1,267.5,0.25,92,120.0
1999,B-2,267.5,0.25,92,120.0
2000,B-3,268.5,0.375,32,120.0
2001,F3,268.875,14/125,32,120.0
2002,A3,269.0,0.5,40,120.0
2003,B-3,269.5,0.25,35,120.0
2004,B-4,269.979,0.375,32,120.0
2005,F4,270.354,14/125,32,120.0
2006,A4,270.479,21/1000,40,120.0
2007,A4,270.5,479/1000,40,120.0
2008,B-4,270.979,0.25,35,120.0
2009,B-5,271.494,0.375,27,120.0
2010,F5,271.869,14/125,27,120.0
2011,A5,271.994,3/500,34,120.0
2012,A5,272.0,247/500,34,120.0
2013,B-5,272.494,0.25,29,120.0
