,note_name,start_time,duration,velocity,tempo
0,C3,0.0,0.5,44,125.5
1,F3,1.0,1.5,49,125.5
2,G#3,1.0,0.5,31,125.5
3,F#3,1.0,0.5,31,125.5
4,F#3,2.0,0.5,31,125.5
5,G#3,2.0,0.5,31,125.5
6,E-3,2.5,0.5,44,125.5
7,F3,3.0,0.75,49,125.5
8,F#3,3.75,0.25,45,125.5
9,G#3,4.0,1.0,48,125.5
10,C#4,4.0,0.5,36,125.5
11,F4,4.0,0.5,36,125.5
12,B-3,5.0,0.5,47,125.5
13,C#4,5.0,0.5,38,125.5
14,F4,5.0,0.5,38,125.5
15,C#4,5.5,0.5,49,125.5
16,C#4,6.0,0.75,53,125.5
17,C4,6.75,0.125,47,125.5
18,C#4,6.875,0.125,50,125.5
19,C4,7.0,0.5,55,125.5
20,G#4,7.0,0.5,36,125.5
21,E-4,7.0,0.5,36,125.5
22,F#4,7.0,0.5,36,125.5
23,B-3,7.5,0.5,50,125.5
24,C4,8.0,0.5,54,125.5
25,F#4,8.0,0.5,36,125.5
26,G#4,8.0,0.5,36,125.5
27,E-4,8.0,0.5,36,125.5
28,G#3,8.5,0.5,49,125.5
29,B-3,9.0,0.75,52,125.5
30,G#3,9.75,0.125,44,125.5
31,B-3,9.875,0.125,44,125.5
32,G#3,10.0,0.5,52,125.5
33,F4,10.0,0.5,32,125.5
34,G#4,10.0,0.5,32,125.5
35,C#4,10.0,0.5,32,125.5
36,F3,10.5,0.5,46,125.5
37,C#3,11.0,0.5,49,125.5
38,G#4,11.0,0.5,31,125.5
39,F4,11.0,0.5,31,125.5
40,C#4,11.0,0.5,31,125.5
41,F3,11.5,0.5,45,125.5
42,C3,12.0,0.5,48,125.5
43,F3,13.0,1.5,52,125.5
44,F#3,13.0,0.5,31,125.5
45,G#3,13.0,0.5,31,125.5
46,F#3,14.0,0.5,31,125.5
47,G#3,14.0,0.5,31,125.5
48,E-3,14.5,0.5,46,125.5
49,F3,15.0,0.75,50,125.5
50,F#3,15.75,0.25,47,125.5
51,G#3,16.0,1.0,52,125.5
52,F4,16.0,0.5,36,125.5
53,C#4,16.0,0.5,36,125.5
54,B-3,17.0,0.5,46,125.5
55,F4,17.0,0.5,38,125.5
56,C#4,17.0,0.5,38,125.5
57,C#4,17.5,0.5,49,125.5
58,C#4,18.0,1.0,53,125.5
59,C4,19.0,0.5,54,125.5
60,E4,19.0,0.5,37,125.5
61,G4,19.0,0.5,37,125.5
62,C#4,19.5,0.5,50,125.5
63,C4,20.0,0.5,54,125.5
64,E4,20.0,0.5,37,125.5
65,G4,20.0,0.5,37,125.5
66,B-3,20.5,0.5,49,125.5
67,A3,21.0,0.75,52,125.5
68,B-3,21.75,0.25,44,125.5
69,C4,22.0,1.0,52,125.5
70,F4,22.0,0.5,33,125.5
71,A4,22.0,0.5,33,125.5
72,C3,23.0,0.5,49,125.5
73,A4,23.0,0.5,32,125.5
74,F4,23.0,0.5,32,125.5
75,D4,24.0,0.5,55,125.5
76,B3,24.0,2.0,41,125.5
77,A4,25.0,1.5,62,125.5
78,E4,25.0,2.0,41,125.5
79,C4,25.0,2.0,43,125.5
80,B-3,26.0,1.0,41,125.5
81,G4,26.5,0.5,55,125.5
82,A4,27.0,0.75,63,125.5
83,F4,27.0,2.0,41,125.5
84,A3,27.0,2.0,41,125.5
85,B-4,27.75,0.25,62,125.5
86,C5,28.0,1.0,60,125.5
87,C4,28.0,2.0,45,125.5
88,D5,29.0,0.5,60,125.5
89,F4,29.0,1.0,41,125.5
90,G#3,29.0,1.0,44,125.5
91,F5,29.5,0.5,56,125.5
92,B-4,30.0,1.0,43,125.5
93,F5,30.0,0.75,59,125.5
94,F#3,30.0,2.0,46,125.5
95,E5,30.75,0.125,56,125.5
96,F5,30.875,0.125,56,125.5
97,B-4,31.0,1.0,42,125.5
98,E5,31.0,0.5,65,125.5
99,C4,31.0,2.0,51,125.5
100,D5,31.5,0.5,60,125.5
101,E5,32.0,0.5,65,125.5
102,B-4,32.0,1.0,43,125.5
103,C3,32.0,1.0,47,125.5
104,C5,32.5,0.5,59,125.5
105,D5,33.0,0.75,60,125.5
106,F4,33.0,1.0,41,125.5
107,G#3,33.0,1.0,44,125.5
108,C4,33.0,3.0,51,125.5
109,C5,33.75,0.125,49,125.5
110,D5,33.875,0.125,44,125.5
111,C5,34.0,0.5,58,125.5
112,F4,34.0,1.0,41,125.5
113,A3,34.0,1.0,44,125.5
114,A4,34.5,0.5,52,125.5
115,F4,35.0,1.0,56,125.5
116,C3,35.0,1.0,36,125.5
117,A4,35.5,0.5,50,125.5
118,D4,36.0,0.5,55,125.5
119,B3,36.0,2.0,41,125.5
120,A4,37.0,1.5,62,125.5
121,E4,37.0,2.0,41,125.5
122,C4,37.0,2.0,46,125.5
123,B-3,38.0,1.0,41,125.5
124,G4,38.5,0.5,58,125.5
125,F4,39.0,2.0,41,125.5
126,A4,39.0,0.75,63,125.5
127,A3,39.0,2.0,41,125.5
128,B-4,39.75,0.25,61,125.5
129,C5,40.0,1.0,62,125.5
130,C4,40.0,1.625,50,125.5
131,G#3,41.0,0.625,44,125.5
132,D5,41.0,0.625,54,125.5
133,F4,41.0,0.625,54,125.5
134,G3,41.625,0.375,46,125.5
135,E4,41.75,0.25,55,125.5
136,B-4,41.875,0.125,60,125.5
137,D5,42.0,0.75,69,125.5
138,E4,42.0,0.75,55,125.5
139,B-4,42.0,0.75,60,125.5
140,G3,42.0,1.0,46,125.5
141,C5,42.75,0.125,53,125.5
142,D5,42.875,0.125,55,125.5
143,C5,43.0,0.5,59,125.5
144,C4,43.0,2.0,51,125.5
145,B-4,43.5,0.5,51,125.5
146,A4,44.0,0.5,55,125.5
147,G4,44.5,0.5,48,125.5
148,B-3,45.0,1.0,44,125.5
149,C5,45.0,0.75,50,125.5
150,A4,45.0,0.75,50,125.5
151,E4,45.0,0.75,50,125.5
152,G4,45.75,0.125,52,125.5
153,A4,45.875,0.125,47,125.5
154,G4,46.0,0.5,59,125.5
155,C4,46.0,1.625,40,125.5
156,F4,46.5,0.5,55,125.5
157,E4,47.0,0.625,57,125.5
158,F3,47.625,0.375,46,125.5
159,B-3,47.75,0.25,46,125.5
160,D4,47.875,0.125,50,125.5
161,A4,48.0,0.75,57,125.5
162,B-3,48.0,0.75,46,125.5
163,D4,48.0,0.75,50,125.5
164,F3,48.0,1.0,46,125.5
165,G4,48.75,0.125,41,125.5
166,A4,48.875,0.125,40,125.5
167,G4,49.0,0.5,47,125.5
168,B-3,49.0,2.0,38,125.5
169,F4,49.5,0.5,40,125.5
170,E4,50.0,0.5,46,125.5
171,D4,50.5,0.5,40,125.5
172,F3,51.0,0.75,45,125.5
173,B-3,51.0,3.0,38,125.5
174,C4,51.0,3.0,38,125.5
175,E3,51.75,0.125,38,125.5
176,F3,51.875,0.125,34,125.5
177,E3,52.0,0.5,42,125.5
178,D3,52.5,0.5,39,125.5
179,C3,53.0,1.0,37,125.5
180,C3,54.0,0.5,41,125.5
181,F3,55.0,1.5,51,125.5
182,G#3,55.0,0.5,31,125.5
183,F#3,55.0,0.5,31,125.5
184,F#3,56.0,0.5,31,125.5
185,G#3,56.0,0.5,31,125.5
186,E-3,56.5,0.5,46,125.5
187,F3,57.0,0.75,51,125.5
188,F#3,57.75,0.25,46,125.5
189,G#3,58.0,1.0,51,125.5
190,F4,58.0,0.5,36,125.5
191,C#4,58.0,0.5,36,125.5
192,B-3,59.0,0.5,47,125.5
193,C#4,59.0,0.5,38,125.5
194,F4,59.0,0.5,38,125.5
195,C#4,59.5,0.5,50,125.5
196,C#4,60.0,0.75,53,125.5
197,C4,60.75,0.125,47,125.5
198,C#4,60.875,0.125,52,125.5
199,C4,61.0,0.5,54,125.5
200,E-4,61.0,0.5,36,125.5
201,G#4,61.0,0.5,36,125.5
202,F#4,61.0,0.5,36,125.5
203,B-3,61.5,0.5,50,125.5
204,C4,62.0,0.5,54,125.5
205,F#4,62.0,0.5,36,125.5
206,G#4,62.0,0.5,36,125.5
207,E-4,62.0,0.5,36,125.5
208,G#3,62.5,0.5,49,125.5
209,B-3,63.0,0.75,52,125.5
210,G#3,63.75,0.125,44,125.5
211,B-3,63.875,0.125,44,125.5
212,G#3,64.0,0.5,52,125.5
213,G#4,64.0,0.5,32,125.5
214,F4,64.0,0.5,32,125.5
215,C#4,64.0,0.5,32,125.5
216,F3,64.5,0.5,46,125.5
217,C#3,65.0,0.5,49,125.5
218,F4,65.0,0.5,31,125.5
219,C#4,65.0,0.5,31,125.5
220,G#4,65.0,0.5,31,125.5
221,F3,65.5,0.5,45,125.5
222,C3,66.0,0.5,47,125.5
223,F3,67.0,1.5,52,125.5
224,G#3,67.0,0.5,31,125.5
225,F#3,67.0,0.5,31,125.5
226,F#3,68.0,0.5,31,125.5
227,G#3,68.0,0.5,31,125.5
228,E-3,68.5,0.5,48,125.5
229,F3,69.0,0.75,52,125.5
230,F#3,69.75,0.25,47,125.5
231,G#3,70.0,1.0,52,125.5
232,F4,70.0,0.5,36,125.5
233,C#4,70.0,0.5,36,125.5
234,B-3,71.0,0.5,47,125.5
235,F4,71.0,0.5,38,125.5
236,C#4,71.0,0.5,38,125.5
237,C#4,71.5,0.5,50,125.5
238,C#4,72.0,1.0,53,125.5
239,C4,73.0,0.5,54,125.5
240,E4,73.0,0.5,37,125.5
241,G4,73.0,0.5,37,125.5
242,C#4,73.5,0.5,50,125.5
243,C4,74.0,0.5,54,125.5
244,E4,74.0,0.5,37,125.5
245,G4,74.0,0.5,37,125.5
246,B-3,74.5,0.5,49,125.5
247,G#3,75.0,0.75,52,125.5
248,B-3,75.75,0.25,44,125.5
249,C4,76.0,1.0,52,125.5
250,F4,76.0,0.5,33,125.5
251,G#4,76.0,0.5,33,125.5
252,C3,77.0,0.5,49,125.5
253,G#4,77.0,0.5,32,125.5
254,F4,77.0,0.5,32,125.5
255,B-4,78.0,0.5,60,125.5
256,G2,78.0,2.0,42,125.5
257,G3,78.0,2.0,42,125.5
258,C5,79.0,2.0,46,125.5
259,F5,79.0,1.5,70,125.5
260,G#3,79.0,2.0,51,125.5
261,F#2,80.0,1.0,42,125.5
262,F#3,80.0,1.0,42,125.5
263,E-5,80.5,0.5,60,125.5
264,F5,81.0,0.75,70,125.5
265,C#5,81.0,2.0,46,125.5
266,F2,81.0,2.0,42,125.5
267,F3,81.0,2.0,42,125.5
268,F#5,81.75,0.25,68,125.5
269,G#5,82.0,1.0,65,125.5
270,G#3,82.0,2.0,56,125.5
271,B-5,83.0,0.5,66,125.5
272,C#5,83.0,1.0,40,125.5
273,G#5,83.0,1.0,40,125.5
274,E2,83.0,1.0,45,125.5
275,E3,83.0,1.0,45,125.5
276,C#6,83.5,0.5,62,125.5
277,C#6,84.0,0.75,66,125.5
278,F#5,84.0,1.0,49,125.5
279,C#5,84.0,1.0,49,125.5
280,E-2,84.0,2.0,48,125.5
281,E-3,84.0,2.0,48,125.5
282,C6,84.75,0.125,59,125.5
283,C#6,84.875,0.125,57,125.5
284,C6,85.0,0.5,67,125.5
285,G#3,85.0,2.0,57,125.5
286,C5,85.0,1.0,41,125.5
287,F#5,85.0,1.0,41,125.5
288,B-5,85.5,0.5,64,125.5
289,C6,86.0,0.5,67,125.5
290,C5,86.0,1.0,43,125.5
291,F#5,86.0,1.0,43,125.5
292,G#1,86.0,1.0,48,125.5
293,G#2,86.0,1.0,48,125.5
294,G#5,86.5,0.5,63,125.5
295,B-5,87.0,0.75,66,125.5
296,C#5,87.0,1.0,46,125.5
297,E2,87.0,1.0,45,125.5
298,E3,87.0,1.0,45,125.5
299,G#5,87.75,0.125,55,125.5
300,B-5,87.875,0.125,50,125.5
301,G#5,88.0,0.5,66,125.5
302,C#5,88.0,1.0,44,125.5
303,F2,88.0,1.0,45,125.5
304,F3,88.0,1.0,45,125.5
305,F5,88.5,0.5,57,125.5
306,C#5,89.0,1.0,63,125.5
307,G#1,89.0,1.0,36,125.5
308,G#2,89.0,1.0,36,125.5
309,F5,89.5,0.5,56,125.5
310,B-4,90.0,0.5,60,125.5
311,G2,90.0,2.0,42,125.5
312,G3,90.0,2.0,42,125.5
313,F5,91.0,1.5,70,125.5
314,C5,91.0,2.0,46,125.5
315,G#3,91.0,2.0,51,125.5
316,F#2,92.0,1.0,42,125.5
317,F#3,92.0,1.0,42,125.5
318,E-5,92.5,0.5,65,125.5
319,F5,93.0,0.75,70,125.5
320,C#5,93.0,2.0,46,125.5
321,F2,93.0,2.0,42,125.5
322,F3,93.0,2.0,42,125.5
323,F#5,93.75,0.25,68,125.5
324,G#5,94.0,1.0,66,125.5
325,G#3,94.0,1.75,56,125.5
326,G#5,95.0,0.75,56,125.5
327,B-5,95.0,0.75,56,125.5
328,C#5,95.0,0.75,56,125.5
329,E2,95.0,0.75,45,125.5
330,E3,95.0,0.75,45,125.5
331,C5,95.75,0.25,60,125.5
332,F#5,95.875,0.125,68,125.5
333,B-5,96.0,0.75,74,125.5
334,C5,96.0,0.75,60,125.5
335,F#5,96.0,0.75,68,125.5
336,E-2,96.0,1.0,48,125.5
337,E-3,96.0,1.0,48,125.5
338,G#5,96.75,0.125,56,125.5
339,B-5,96.875,0.125,58,125.5
340,G#5,97.0,0.5,67,125.5
341,G#3,97.0,2.0,57,125.5
342,F#5,97.5,0.5,57,125.5
343,F5,98.0,0.5,58,125.5
344,E-5,98.5,0.25,55,125.5
345,F#4,98.75,0.25,43,125.5
346,B-4,98.875,0.125,56,125.5
347,F5,99.0,0.75,68,125.5
348,F#4,99.0,0.75,43,125.5
349,B-4,99.0,0.75,56,125.5
350,C#2,99.0,1.0,48,125.5
351,C#3,99.0,1.0,48,125.5
352,E-5,99.75,0.125,52,125.5
353,F5,99.875,0.125,55,125.5
354,E-5,100.0,0.5,58,125.5
355,F#3,100.0,2.0,55,125.5
356,C#5,100.5,0.5,52,125.5
357,C5,101.0,0.5,57,125.5
358,B-4,101.5,0.5,52,125.5
359,E-4,102.0,0.75,56,125.5
360,B-4,102.0,0.75,56,125.5
361,F#4,102.0,0.75,56,125.5
362,C2,102.0,1.0,48,125.5
363,C3,102.0,1.0,48,125.5
364,G#4,102.75,0.125,54,125.5
365,B-4,102.875,0.125,54,125.5
366,G#4,103.0,0.5,59,125.5
367,E-3,103.0,1.0,57,125.5
368,F#4,103.5,0.5,53,125.5
369,F4,104.0,1.0,52,125.5
370,E-4,104.0,1.0,52,125.5
371,B1,104.0,1.0,44,125.5
372,B2,104.0,1.0,44,125.5
373,G#4,105.0,0.75,56,125.5
374,C#4,105.0,0.75,56,125.5
375,B-1,105.0,1.0,48,125.5
376,B-2,105.0,1.0,48,125.5
377,F#4,105.75,0.125,46,125.5
378,G#4,105.875,0.125,52,125.5
379,F#4,106.0,0.5,58,125.5
380,C#3,106.0,1.0,57,125.5
381,F4,106.5,0.5,49,125.5
382,C#4,107.0,1.0,54,125.5
383,E-4,107.0,0.5,59,125.5
384,A1,107.0,1.0,48,125.5
385,A2,107.0,1.0,48,125.5
386,E4,107.5,0.375,62,125.5
387,C#4,107.875,0.125,57,125.5
388,F4,108.0,0.75,70,125.5
389,C#4,108.0,0.75,57,125.5
390,G#1,108.0,1.0,53,125.5
391,G#2,108.0,1.0,53,125.5
392,E-4,108.75,0.125,58,125.5
393,F4,108.875,0.125,59,125.5
394,E-4,109.0,0.5,64,125.5
395,G#3,109.0,2.0,63,125.5
396,C#4,109.5,0.5,48,125.5
397,C4,110.0,0.5,61,125.5
398,B-3,110.5,0.5,55,125.5
399,F3,111.0,0.75,57,125.5
400,G#3,111.0,3.0,48,125.5
401,F#3,111.0,3.0,48,125.5
402,E-3,111.75,0.125,48,125.5
403,F3,111.875,0.125,41,125.5
404,E-3,112.0,0.5,52,125.5
405,C#3,112.5,0.5,49,125.5
406,C3,113.0,1.0,46,125.5
407,C#3,114.0,3.0,49,125.5
408,G#2,115.0,1.0,41,125.5
409,F3,115.0,2.0,49,125.5
410,C#4,115.0,2.0,49,125.5
411,C#2,116.0,1.0,38,125.5
412,E-3,117.0,2.0,49,125.5
413,B-3,117.0,0.375,49,125.5
414,F#3,117.0,0.375,49,125.5
415,F4,118.0,2.0,55,125.5
416,C#2,119.0,1.0,34,125.5
417,E-3,120.0,2.0,49,125.5
418,B3,120.0,0.375,49,125.5
419,F#3,120.0,0.375,49,125.5
420,F4,121.0,2.0,55,125.5
421,C#2,122.0,1.0,35,125.5
422,E-3,123.0,2.0,49,125.5
423,F#3,123.0,0.375,49,125.5
424,C4,123.0,0.375,49,125.5
425,F4,124.0,1.875,55,125.5
426,C#2,125.0,1.0,38,125.5
427,G#3,125.875,0.125,46,125.5
428,F3,126.0,2.0,49,125.5
429,C#4,126.0,0.5,48,125.5
430,F4,126.0,0.5,48,125.5
431,C4,126.5,0.5,50,125.5
432,B3,127.0,0.5,49,125.5
433,B-3,127.5,0.375,48,125.5
434,A3,127.75,0.125,41,125.5
435,B-3,127.875,0.125,37,125.5
436,A3,128.0,0.5,47,125.5
437,C#2,128.0,1.0,37,125.5
438,G#3,128.5,0.5,46,125.5
439,E-4,129.0,2.0,49,125.5
440,B-4,129.0,0.375,49,125.5
441,F#4,129.0,0.375,49,125.5
442,F5,130.0,2.0,57,125.5
443,C#3,131.0,1.0,36,125.5
444,E-4,132.0,2.0,49,125.5
445,F#4,132.0,0.375,49,125.5
446,B4,132.0,0.375,49,125.5
447,F5,133.0,2.0,57,125.5
448,C#3,134.0,1.0,34,125.5
449,E-4,135.0,2.0,49,125.5
450,C5,135.0,0.375,49,125.5
451,F#4,135.0,0.375,49,125.5
452,F5,136.0,1.875,56,125.5
453,C#3,137.0,1.0,36,125.5
454,G#4,137.875,0.125,47,125.5
455,F4,138.0,2.0,49,125.5
456,F5,138.0,0.5,51,125.5
457,C#5,138.0,0.5,51,125.5
458,C5,138.5,0.5,50,125.5
459,B4,139.0,0.5,49,125.5
460,B-4,139.5,0.375,48,125.5
461,A4,139.75,0.125,41,125.5
462,B-4,139.875,0.125,37,125.5
463,A4,140.0,0.5,47,125.5
464,C#3,140.0,1.0,34,125.5
465,G#4,140.5,0.5,46,125.5
466,A4,141.0,0.75,42,125.5
467,C#5,141.0,3.0,41,125.5
468,F4,141.0,3.0,39,125.5
469,G#4,141.75,0.125,37,125.5
470,A4,141.875,0.125,34,125.5
471,G#4,142.0,0.5,42,125.5
472,G4,142.5,0.5,35,125.5
473,G#4,143.0,0.375,38,125.5
474,G#4,143.5,333/1000,34,125.5
475,G#4,143.75,0.25,36,125.5
476,C#5,143.875,0.125,38,125.5
477,G#5,144.0,3.0,40,125.5
478,C#5,144.0,3.0,38,125.5
479,G#4,144.0,3.0,36,125.5
480,F4,144.0,1.0,39,125.5
481,C#4,145.0,2.0,31,125.5
482,C#4,147.0,1.0,31,125.5
483,C#4,148.0,2.0,29,125.5
484,A3,150.0,3.0,34,125.5
485,C#4,150.0,0.75,46,125.5
486,E3,150.0,3.0,35,125.5
487,C#4,150.75,0.125,44,125.5
488,E4,150.875,0.125,37,125.5
489,D4,151.0,1.5,49,125.5
490,A2,151.0,1.0,29,125.5
491,A2,152.0,1.0,29,125.5
492,C#4,152.5,0.5,46,125.5
493,A3,153.0,3.0,36,125.5
494,B3,153.0,0.75,49,125.5
495,F3,153.0,3.0,36,125.5
496,C#4,153.75,0.25,45,125.5
497,D4,154.0,1.5,49,125.5
498,A2,154.0,1.0,29,125.5
499,A2,155.0,1.0,29,125.5
500,C#4,155.5,0.5,46,125.5
501,A3,156.0,1.0,36,125.5
502,B3,156.0,0.5,49,125.5
503,F3,156.0,3.0,36,125.5
504,C#4,156.5,0.375,45,125.5
505,D4,156.75,0.125,39,125.5
506,E4,156.875,0.125,35,125.5
507,D4,157.0,0.5,49,125.5
508,A2,157.0,1.0,30,125.5
509,A3,157.0,1.0,36,125.5
510,B3,157.0,1.0,36,125.5
511,C#4,157.5,0.5,45,125.5
512,A2,158.0,1.0,30,125.5
513,A3,158.0,1.0,39,125.5
514,B3,158.0,1.0,39,125.5
515,D4,158.0,1.0,39,125.5
516,E-4,159.0,1.0,56,125.5
517,F#3,159.0,3.0,36,125.5
518,A3,159.0,3.0,41,125.5
519,C4,159.0,3.0,41,125.5
520,A4,160.0,2.0,56,125.5
521,A2,160.0,1.0,30,125.5
522,A2,161.0,1.0,30,125.5
523,B3,162.0,1.5,41,125.5
524,E4,162.0,1.0,56,125.5
525,G#2,162.0,2.0,38,125.5
526,B3,163.0,1.0,51,125.5
527,E3,163.0,2.0,36,125.5
528,C#4,163.5,0.5,49,125.5
529,F#4,164.0,0.5,55,125.5
530,G2,164.0,1.0,33,125.5
531,B-3,164.0,1.0,40,125.5
532,C#4,164.0,1.0,40,125.5
533,E4,164.5,0.5,51,125.5
534,A3,165.0,1.0,41,125.5
535,E4,165.0,0.75,56,125.5
536,F#2,165.0,2.0,39,125.5
537,D4,165.75,0.125,49,125.5
538,E4,165.875,0.125,45,125.5
539,A3,166.0,1.0,35,125.5
540,D4,166.0,0.5,51,125.5
541,D3,166.0,2.0,36,125.5
542,C#4,166.5,0.5,49,125.5
543,F#2,167.0,1.0,31,125.5
544,A3,167.0,1.0,46,125.5
545,D4,167.0,1.0,46,125.5
546,F#3,168.0,1.0,42,125.5
547,C#4,168.0,0.75,50,125.5
548,D2,168.0,2.0,39,125.5
549,C#4,168.75,0.25,50,125.5
550,B2,169.0,2.0,39,125.5
551,F#3,169.0,2.0,46,125.5
552,B3,169.0,2.0,46,125.5
553,F#4,170.0,1.0,63,125.5
554,D2,170.0,1.0,46,125.5
555,F#3,171.0,1.0,44,125.5
556,B3,171.0,3.0,44,125.5
557,G#4,171.0,2.0,68,125.5
558,C#2,171.0,2.0,45,125.5
559,F3,172.0,2.0,39,125.5
560,C#4,173.0,1.0,60,125.5
561,C#3,173.0,1.0,33,125.5
562,A4,174.0,2.0,72,125.5
563,C2,174.0,2.0,39,125.5
564,C3,174.0,2.0,39,125.5
565,E-3,175.0,1.0,42,125.5
566,A3,175.0,1.0,46,125.5
567,E-4,175.0,1.0,46,125.5
568,G#4,176.0,0.5,69,125.5
569,A3,176.0,1.0,46,125.5
570,E-4,176.0,1.0,46,125.5
571,C2,176.0,1.0,36,125.5
572,C3,176.0,1.0,36,125.5
573,F#4,176.5,0.5,61,125.5
574,F#4,177.0,0.875,64,125.5
575,C#2,177.0,2.0,39,125.5
576,C#3,177.0,2.0,39,125.5
577,E4,177.75,0.125,52,125.5
578,F#4,177.875,0.125,51,125.5
579,A3,178.0,1.0,40,125.5
580,E4,178.0,0.5,62,125.5
581,E3,178.0,1.0,42,125.5
582,E-4,178.5,0.5,58,125.5
583,A3,179.0,1.0,56,125.5
584,E4,179.0,1.0,56,125.5
585,C#2,179.0,1.0,36,125.5
586,C#3,179.0,1.0,36,125.5
587,A4,180.0,2.0,70,125.5
588,C#2,180.0,2.0,39,125.5
589,C#3,180.0,2.0,39,125.5
590,E3,181.0,1.0,42,125.5
591,A3,181.0,1.0,47,125.5
592,E4,181.0,1.0,47,125.5
593,G#4,182.0,0.5,69,125.5
594,A3,182.0,1.0,46,125.5
595,E4,182.0,1.0,46,125.5
596,C#2,182.0,1.0,35,125.5
597,C#3,182.0,1.0,35,125.5
598,G4,182.5,0.5,61,125.5
599,G4,183.0,0.875,66,125.5
600,D2,183.0,2.0,39,125.5
601,D3,183.0,2.0,39,125.5
602,F#4,183.75,0.125,58,125.5
603,G4,183.875,0.125,53,125.5
604,F#4,184.0,0.5,63,125.5
605,F#3,184.0,1.0,42,125.5
606,A3,184.0,1.0,41,125.5
607,D4,184.0,1.0,41,125.5
608,F4,184.5,0.5,60,125.5
609,A3,185.0,1.0,49,125.5
610,D4,185.0,1.0,49,125.5
611,F#4,185.0,1.0,49,125.5
612,D2,185.0,1.0,36,125.5
613,D3,185.0,1.0,36,125.5
614,C#5,186.0,2.0,74,125.5
615,F2,186.0,3.0,46,125.5
616,C#4,187.0,1.0,42,125.5
617,G#4,187.0,1.0,42,125.5
618,C#3,187.0,1.0,37,125.5
619,G#3,187.0,1.0,37,125.5
620,C5,188.0,0.5,64,125.5
621,C#4,188.0,1.0,42,125.5
622,G#4,188.0,1.0,42,125.5
623,C#3,188.0,1.0,45,125.5
624,G#3,188.0,1.0,45,125.5
625,B4,188.5,0.5,60,125.5
626,A4,189.0,2.0,70,125.5
627,F#2,189.0,3.0,44,125.5
628,A3,190.0,1.0,41,125.5
629,C#4,190.0,1.0,41,125.5
630,C#3,190.0,1.0,38,125.5
631,F#3,190.0,1.0,38,125.5
632,G#4,191.0,0.5,68,125.5
633,A3,191.0,1.0,41,125.5
634,C#4,191.0,1.0,41,125.5
635,C#3,191.0,1.0,37,125.5
636,F#3,191.0,1.0,37,125.5
637,F#4,191.5,0.5,62,125.5
638,F#4,192.0,1.5,69,125.5
639,B1,192.0,2.0,44,125.5
640,B2,192.0,2.0,44,125.5
641,E-3,193.0,1.0,39,125.5
642,A3,193.0,1.0,48,125.5
643,E-4,193.0,1.0,48,125.5
644,F#4,193.5,0.5,62,125.5
645,G#4,194.0,0.5,64,125.5
646,A3,194.0,1.0,40,125.5
647,E-4,194.0,1.0,40,125.5
648,B1,194.0,1.0,44,125.5
649,B2,194.0,1.0,44,125.5
650,F#4,194.5,0.5,62,125.5
651,F#4,195.0,1.5,68,125.5
652,E2,195.0,3.0,42,125.5
653,E3,196.0,1.0,38,125.5
654,G#3,196.0,1.0,44,125.5
655,D4,196.0,1.0,44,125.5
656,E4,196.5,0.5,52,125.5
657,F#3,197.0,0.5,37,125.5
658,A3,197.0,0.5,43,125.5
659,E-4,197.0,0.5,43,125.5
660,G#3,197.5,0.5,30,125.5
661,B3,197.5,0.5,34,125.5
662,D4,197.5,0.5,34,125.5
663,C#4,198.0,0.75,54,125.5
664,A4,198.0,0.75,54,125.5
665,C#5,198.0,0.75,54,125.5
666,A2,198.0,2.0,44,125.5
667,E3,198.0,2.0,44,125.5
668,A3,198.0,2.0,44,125.5
669,C#5,198.75,0.125,62,125.5
670,E5,198.875,0.125,52,125.5
671,A4,199.0,2.0,49,125.5
672,D5,199.0,1.5,72,125.5
673,E3,199.0,2.0,42,125.5
674,E4,199.0,2.0,42,125.5
675,A2,200.0,1.0,37,125.5
676,E3,200.0,1.0,37,125.5
677,A3,200.0,1.0,37,125.5
678,C#5,200.5,0.5,64,125.5
679,B4,201.0,0.75,72,125.5
680,F3,201.0,1.0,32,125.5
681,D4,201.0,1.0,42,125.5
682,A4,201.0,1.0,42,125.5
683,A2,201.0,2.0,34,125.5
684,A3,201.0,2.0,34,125.5
685,C#5,201.75,0.25,63,125.5
686,D5,202.0,1.5,72,125.5
687,B4,202.0,2.0,50,125.5
688,A4,202.0,2.0,50,125.5
689,F3,202.0,2.0,37,125.5
690,F4,202.0,2.0,37,125.5
691,A2,203.0,1.0,37,125.5
692,F3,203.0,1.0,37,125.5
693,A3,203.0,1.0,37,125.5
694,C#5,203.5,0.5,64,125.5
695,B4,204.0,0.5,72,125.5
696,D4,204.0,1.0,36,125.5
697,A4,204.0,1.0,36,125.5
698,A2,204.0,2.0,39,125.5
699,F3,204.0,2.0,39,125.5
700,A3,204.0,2.0,39,125.5
701,C#5,204.5,0.375,63,125.5
702,D5,204.75,0.125,51,125.5
703,E5,204.875,0.125,49,125.5
704,D5,205.0,0.5,72,125.5
705,A4,205.0,1.0,51,125.5
706,B4,205.0,1.0,51,125.5
707,F3,205.0,1.0,46,125.5
708,F4,205.0,1.0,46,125.5
709,C#5,205.5,0.5,63,125.5
710,A4,206.0,1.0,57,125.5
711,B4,206.0,1.0,57,125.5
712,D5,206.0,1.0,57,125.5
713,A2,206.0,1.0,38,125.5
714,F3,206.0,1.0,38,125.5
715,A3,206.0,1.0,38,125.5
716,E-5,207.0,1.0,81,125.5
717,F#3,207.0,1.0,41,125.5
718,A4,207.0,3.0,61,125.5
719,C5,207.0,3.0,61,125.5
720,A2,207.0,2.0,46,125.5
721,A3,207.0,2.0,46,125.5
722,A5,208.0,2.0,79,125.5
723,F#3,208.0,2.0,39,125.5
724,F#4,208.0,2.0,39,125.5
725,A2,209.0,1.0,38,125.5
726,F#3,209.0,1.0,38,125.5
727,A3,209.0,1.0,38,125.5
728,E5,210.0,1.0,81,125.5
729,G#2,210.0,2.0,55,125.5
730,E4,211.0,1.0,53,125.5
731,B4,211.0,0.5,73,125.5
732,E3,211.0,1.0,46,125.5
733,B3,211.0,1.0,46,125.5
734,C#5,211.5,0.5,72,125.5
735,F#5,212.0,0.5,77,125.5
736,B-4,212.0,1.0,58,125.5
737,C#5,212.0,1.0,58,125.5
738,G2,212.0,1.0,42,125.5
739,C#4,212.0,1.0,42,125.5
740,E5,212.5,0.5,73,125.5
741,E5,213.0,0.75,81,125.5
742,F#2,213.0,2.0,57,125.5
743,D5,213.75,0.125,72,125.5
744,E5,213.875,0.125,63,125.5
745,A4,214.0,1.0,56,125.5
746,D5,214.0,0.5,75,125.5
747,D3,214.0,1.0,46,125.5
748,A3,214.0,1.0,46,125.5
749,C#5,214.5,0.5,72,125.5
750,D4,215.0,1.0,64,125.5
751,A4,215.0,1.0,64,125.5
752,D5,215.0,1.0,64,125.5
753,D3,215.0,1.0,42,125.5
754,A3,215.0,1.0,42,125.5
755,C#5,216.0,1.0,74,125.5
756,F2,216.0,2.0,51,125.5
757,C#4,217.0,1.0,50,125.5
758,G#4,217.0,0.5,67,125.5
759,C#3,217.0,1.0,44,125.5
760,G#3,217.0,1.0,44,125.5
761,B-4,217.5,0.5,66,125.5
762,D5,218.0,0.5,73,125.5
763,G4,218.0,1.0,52,125.5
764,B-4,218.0,1.0,52,125.5
765,E2,218.0,1.0,37,125.5
766,B-3,218.0,1.0,37,125.5
767,C#5,218.5,0.5,67,125.5
768,C#5,219.0,0.75,74,125.5
769,E-2,219.0,3.0,51,125.5
770,B4,219.75,0.125,59,125.5
771,C#5,219.875,0.125,51,125.5
772,F#4,220.0,1.0,46,125.5
773,B4,220.0,0.5,62,125.5
774,B2,220.0,1.0,44,125.5
775,F#3,220.0,1.0,44,125.5
776,B-4,220.5,0.5,59,125.5
777,B3,221.0,1.0,51,125.5
778,F#4,221.0,1.0,51,125.5
779,B4,221.0,1.0,51,125.5
780,B2,221.0,1.0,36,125.5
781,F#3,221.0,1.0,36,125.5
782,B4,222.0,0.75,68,125.5
783,D2,222.0,3.0,49,125.5
784,B4,222.75,0.25,61,125.5
785,B3,223.0,2.0,52,125.5
786,F#4,223.0,1.0,70,125.5
787,G#3,223.0,1.0,50,125.5
788,G#4,224.0,1.0,61,125.5
789,D3,224.0,1.0,47,125.5
790,C#2,225.0,3.0,46,125.5
791,F#4,225.0,1.0,58,125.5
792,G#4,225.0,1.0,58,125.5
793,B3,226.0,1.0,50,125.5
794,F4,226.0,2.0,52,125.5
795,C#5,226.0,2.0,52,125.5
796,C#3,227.0,1.0,34,125.5
797,B4,228.0,0.75,63,125.5
798,D2,228.0,3.0,44,125.5
799,B4,228.75,0.25,58,125.5
800,B3,229.0,2.0,47,125.5
801,F#4,229.0,1.0,62,125.5
802,G#3,229.0,1.0,45,125.5
803,G#4,230.0,1.0,55,125.5
804,D3,230.0,1.0,41,125.5
805,C#2,231.0,3.0,40,125.5
806,F#4,231.0,1.0,52,125.5
807,G#4,231.0,1.0,52,125.5
808,B3,232.0,1.0,45,125.5
809,F4,232.0,2.0,46,125.5
810,C#5,232.0,2.0,46,125.5
811,C#3,233.0,1.0,29,125.5
812,C#3,234.0,1.0,29,125.5
813,F#4,234.0,1.0,52,125.5
814,G#4,234.0,1.0,52,125.5
815,B3,235.0,1.0,45,125.5
816,F4,235.0,2.0,46,125.5
817,C#5,235.0,2.0,46,125.5
818,C#3,236.0,1.0,29,125.5
819,C#3,237.0,1.0,29,125.5
820,F#4,237.0,1.0,52,125.5
821,G#4,237.0,1.0,52,125.5
822,B3,238.0,1.0,45,125.5
823,F4,238.0,2.0,46,125.5
824,C#5,238.0,2.0,46,125.5
825,C#3,239.0,1.0,29,125.5
826,C4,240.0,2.0,42,125.5
827,G#4,241.0,2.0,37,125.5
828,F#4,241.0,2.0,37,125.5
829,C#3,242.0,1.0,27,125.5
830,C4,243.0,2.0,42,125.5
831,G#4,244.0,2.0,37,125.5
832,F#4,244.0,2.0,37,125.5
833,C#3,245.0,1.0,28,125.5
834,C4,246.0,2.0,45,125.5
835,G#4,247.0,2.0,36,125.5
836,F#4,247.0,2.0,36,125.5
837,C#3,248.0,1.0,27,125.5
838,C4,249.0,2.0,45,125.5
839,G#3,250.0,0.5,31,125.5
840,F#3,250.0,0.5,31,125.5
841,C#3,251.0,1.0,26,125.5
842,G#3,251.0,0.5,31,125.5
843,F#3,251.0,0.5,31,125.5
844,C3,252.0,0.5,39,125.5
845,F3,253.0,1.5,47,125.5
846,G#3,253.0,0.5,31,125.5
847,F#3,253.0,0.5,31,125.5
848,G#3,254.0,0.5,31,125.5
849,F#3,254.0,0.5,31,125.5
850,E-3,254.5,0.5,44,125.5
851,F3,255.0,0.75,50,125.5
852,F#3,255.75,0.25,47,125.5
853,G#3,256.0,1.0,50,125.5
854,C#4,256.0,0.5,36,125.5
855,F4,256.0,0.5,36,125.5
856,B-3,257.0,0.5,47,125.5
857,C#4,257.0,0.5,38,125.5
858,F4,257.0,0.5,38,125.5
859,C#4,257.5,0.5,52,125.5
860,C#4,258.0,0.75,55,125.5
861,C4,258.75,0.125,47,125.5
862,C#4,258.875,0.125,52,125.5
863,C4,259.0,0.5,54,125.5
864,G#4,259.0,0.5,36,125.5
865,F#4,259.0,0.5,36,125.5
866,E-4,259.0,0.5,36,125.5
867,B-3,259.5,0.5,50,125.5
868,C4,260.0,0.5,54,125.5
869,G#4,260.0,0.5,36,125.5
870,F#4,260.0,0.5,36,125.5
871,E-4,260.0,0.5,36,125.5
872,G#3,260.5,0.5,49,125.5
873,B-3,261.0,0.75,52,125.5
874,G#3,261.75,0.125,44,125.5
875,B-3,261.875,0.125,44,125.5
876,G#3,262.0,0.5,52,125.5
877,G#4,262.0,0.5,32,125.5
878,C#4,262.0,0.5,32,125.5
879,F4,262.0,0.5,32,125.5
880,F3,262.5,0.5,46,125.5
881,C#3,263.0,0.5,49,125.5
882,C#4,263.0,0.5,31,125.5
883,F4,263.0,0.5,31,125.5
884,G#4,263.0,0.5,31,125.5
885,F3,263.5,0.5,45,125.5
886,C3,264.0,0.5,49,125.5
887,F3,265.0,1.5,52,125.5
888,G#3,265.0,0.5,31,125.5
889,F#3,265.0,0.5,31,125.5
890,G#3,266.0,0.5,31,125.5
891,F#3,266.0,0.5,31,125.5
892,E-3,266.5,0.5,48,125.5
893,F3,267.0,0.75,55,125.5
894,F#3,267.75,0.25,50,125.5
895,G#3,268.0,1.0,53,125.5
896,C#4,268.0,0.5,36,125.5
897,F4,268.0,0.5,36,125.5
898,B-3,269.0,0.5,47,125.5
899,C#4,269.0,0.5,38,125.5
900,F4,269.0,0.5,38,125.5
901,C#4,269.5,0.5,49,125.5
902,C#4,270.0,1.0,54,125.5
903,C4,271.0,0.5,54,125.5
904,G4,271.0,0.5,37,125.5
905,E4,271.0,0.5,37,125.5
906,C#4,271.5,0.5,50,125.5
907,C4,272.0,0.5,54,125.5
908,G4,272.0,0.5,37,125.5
909,E4,272.0,0.5,37,125.5
910,B-3,272.5,0.5,49,125.5
911,A3,273.0,0.75,52,125.5
912,B-3,273.75,0.25,44,125.5
913,C4,274.0,1.0,52,125.5
914,A4,274.0,0.5,33,125.5
915,F4,274.0,0.5,33,125.5
916,C3,275.0,0.5,49,125.5
917,F4,275.0,0.5,32,125.5
918,A4,275.0,0.5,32,125.5
919,D4,276.0,0.5,55,125.5
920,B3,276.0,2.0,41,125.5
921,E4,277.0,2.0,41,125.5
922,A4,277.0,1.5,62,125.5
923,C4,277.0,2.0,48,125.5
924,B-3,278.0,1.0,41,125.5
925,G4,278.5,0.5,55,125.5
926,F4,279.0,2.0,41,125.5
927,A4,279.0,0.75,63,125.5
928,A3,279.0,2.0,41,125.5
929,B-4,279.75,0.25,59,125.5
930,C5,280.0,1.0,61,125.5
931,C4,280.0,2.0,50,125.5
932,F4,281.0,1.0,41,125.5
933,D5,281.0,0.5,60,125.5
934,G#3,281.0,1.0,44,125.5
935,F5,281.5,0.5,57,125.5
936,B-4,282.0,1.0,43,125.5
937,F5,282.0,0.75,61,125.5
938,F#3,282.0,2.0,46,125.5
939,E5,282.75,0.125,56,125.5
940,F5,282.875,0.125,56,125.5
941,B-4,283.0,1.0,42,125.5
942,E5,283.0,0.5,65,125.5
943,C4,283.0,2.0,51,125.5
944,D5,283.5,0.5,60,125.5
945,B-4,284.0,1.0,43,125.5
946,E5,284.0,0.5,65,125.5
947,C3,284.0,1.0,47,125.5
948,C5,284.5,0.5,59,125.5
949,F4,285.0,1.0,41,125.5
950,D5,285.0,0.75,60,125.5
951,G#3,285.0,1.0,44,125.5
952,C4,285.0,3.0,51,125.5
953,C5,285.75,0.125,49,125.5
954,D5,285.875,0.125,44,125.5
955,F4,286.0,1.0,41,125.5
956,C5,286.0,0.5,58,125.5
957,A3,286.0,1.0,44,125.5
958,A4,286.5,0.5,52,125.5
959,F4,287.0,1.0,56,125.5
960,C3,287.0,1.0,36,125.5
961,A4,287.5,0.5,50,125.5
962,D4,288.0,0.5,55,125.5
963,B3,288.0,2.0,41,125.5
964,E4,289.0,2.0,41,125.5
965,A4,289.0,1.5,62,125.5
966,C4,289.0,2.0,48,125.5
967,B-3,290.0,1.0,41,125.5
968,G4,290.5,0.5,58,125.5
969,F4,291.0,2.0,41,125.5
970,A4,291.0,0.75,63,125.5
971,A3,291.0,2.0,41,125.5
972,B-4,291.75,0.25,61,125.5
973,C5,292.0,1.0,64,125.5
974,C4,292.0,1.625,50,125.5
975,G#3,293.0,0.625,44,125.5
976,F4,293.0,0.625,54,125.5
977,D5,293.0,0.625,54,125.5
978,G3,293.625,0.375,46,125.5
979,E4,293.75,0.25,55,125.5
980,B-4,293.875,0.125,60,125.5
981,D5,294.0,0.75,69,125.5
982,E4,294.0,0.75,55,125.5
983,B-4,294.0,0.75,60,125.5
984,G3,294.0,1.0,46,125.5
985,C5,294.75,0.125,53,125.5
986,D5,294.875,0.125,55,125.5
987,C5,295.0,0.5,59,125.5
988,C4,295.0,2.0,51,125.5
989,B-4,295.5,0.5,51,125.5
990,A4,296.0,0.5,55,125.5
991,G4,296.5,0.5,51,125.5
992,B-3,297.0,1.0,44,125.5
993,A4,297.0,0.75,50,125.5
994,E4,297.0,0.75,50,125.5
995,C5,297.0,0.75,50,125.5
996,G4,297.75,0.125,51,125.5
997,A4,297.875,0.125,47,125.5
998,G4,298.0,0.5,59,125.5
999,C4,298.0,1.625,40,125.5
1000,F4,298.5,0.5,55,125.5
1001,E4,299.0,0.625,59,125.5
1002,F3,299.625,0.375,46,125.5
1003,B-3,299.75,0.25,46,125.5
1004,D4,299.875,0.125,50,125.5
1005,A4,300.0,0.75,57,125.5
1006,B-3,300.0,0.75,46,125.5
1007,D4,300.0,0.75,50,125.5
1008,F3,300.0,1.0,46,125.5
1009,G4,300.75,0.125,41,125.5
1010,A4,300.875,0.125,40,125.5
1011,G4,301.0,0.5,47,125.5
1012,B-3,301.0,2.0,38,125.5
1013,F4,301.5,0.5,40,125.5
1014,E4,302.0,0.5,46,125.5
1015,D4,302.5,0.5,40,125.5
1016,F3,303.0,0.75,45,125.5
1017,B-3,303.0,3.0,38,125.5
1018,C4,303.0,3.0,38,125.5
1019,E3,303.75,0.125,38,125.5
1020,F3,303.875,0.125,34,125.5
1021,E3,304.0,0.5,42,125.5
1022,D3,304.5,0.5,39,125.5
1023,C3,305.0,1.0,37,125.5
1024,C3,306.0,0.5,41,125.5
1025,F3,307.0,1.5,52,125.5
1026,G#3,307.0,0.5,31,125.5
1027,F#3,307.0,0.5,31,125.5
1028,G#3,308.0,0.5,31,125.5
1029,F#3,308.0,0.5,31,125.5
1030,E-3,308.5,0.5,47,125.5
1031,F3,309.0,0.75,52,125.5
1032,F#3,309.75,0.25,50,125.5
1033,G#3,310.0,1.0,53,125.5
1034,C#4,310.0,0.5,36,125.5
1035,F4,310.0,0.5,36,125.5
1036,B-3,311.0,0.5,46,125.5
1037,C#4,311.0,0.5,38,125.5
1038,F4,311.0,0.5,38,125.5
1039,C#4,311.5,0.5,49,125.5
1040,C#4,312.0,0.75,53,125.5
1041,C4,312.75,0.125,47,125.5
1042,C#4,312.875,0.125,52,125.5
1043,C4,313.0,0.5,54,125.5
1044,G#4,313.0,0.5,36,125.5
1045,F#4,313.0,0.5,36,125.5
1046,E-4,313.0,0.5,36,125.5
1047,B-3,313.5,0.5,50,125.5
1048,C4,314.0,0.5,54,125.5
1049,G#4,314.0,0.5,36,125.5
1050,F#4,314.0,0.5,36,125.5
1051,E-4,314.0,0.5,36,125.5
1052,G#3,314.5,0.5,49,125.5
1053,B-3,315.0,0.75,52,125.5
1054,G#3,315.75,0.125,44,125.5
1055,B-3,315.875,0.125,44,125.5
1056,G#3,316.0,0.5,52,125.5
1057,G#4,316.0,0.5,32,125.5
1058,C#4,316.0,0.5,32,125.5
1059,F4,316.0,0.5,32,125.5
1060,F3,316.5,0.5,46,125.5
1061,C#3,317.0,0.5,49,125.5
1062,C#4,317.0,0.5,31,125.5
1063,F4,317.0,0.5,31,125.5
1064,G#4,317.0,0.5,31,125.5
1065,F3,317.5,0.5,45,125.5
1066,C3,318.0,0.5,49,125.5
1067,F3,319.0,1.5,53,125.5
1068,G#3,319.0,0.5,31,125.5
1069,F#3,319.0,0.5,31,125.5
1070,G#3,320.0,0.5,31,125.5
1071,F#3,320.0,0.5,31,125.5
1072,E-3,320.5,0.5,47,125.5
1073,F3,321.0,0.75,52,125.5
1074,F#3,321.75,0.25,47,125.5
1075,G#3,322.0,1.0,53,125.5
1076,C#4,322.0,0.5,36,125.5
1077,F4,322.0,0.5,36,125.5
1078,B-3,323.0,0.5,46,125.5
1079,C#4,323.0,0.5,38,125.5
1080,F4,323.0,0.5,38,125.5
1081,C#4,323.5,0.5,52,125.5
1082,C#4,324.0,1.0,55,125.5
1083,C4,325.0,0.5,54,125.5
1084,G4,325.0,0.5,37,125.5
1085,E4,325.0,0.5,37,125.5
1086,C#4,325.5,0.5,50,125.5
1087,C4,326.0,0.5,54,125.5
1088,G4,326.0,0.5,37,125.5
1089,E4,326.0,0.5,37,125.5
1090,B-3,326.5,0.5,49,125.5
1091,G#3,327.0,0.75,52,125.5
1092,B-3,327.75,0.25,44,125.5
1093,C4,328.0,1.0,52,125.5
1094,G#4,328.0,0.5,33,125.5
1095,F4,328.0,0.5,33,125.5
1096,C3,329.0,0.5,49,125.5
1097,F4,329.0,0.5,32,125.5
1098,G#4,329.0,0.5,32,125.5
1099,B-4,330.0,0.5,60,125.5
1100,G2,330.0,2.0,42,125.5
1101,G3,330.0,2.0,42,125.5
1102,C5,331.0,2.0,46,125.5
1103,F5,331.0,1.5,70,125.5
1104,G#3,331.0,2.0,50,125.5
1105,F#2,332.0,1.0,42,125.5
1106,F#3,332.0,1.0,42,125.5
1107,E-5,332.5,0.5,60,125.5
1108,C#5,333.0,2.0,46,125.5
1109,F5,333.0,0.75,70,125.5
1110,F2,333.0,2.0,42,125.5
1111,F3,333.0,2.0,42,125.5
1112,F#5,333.75,0.25,63,125.5
1113,G#5,334.0,1.0,67,125.5
1114,G#3,334.0,2.0,56,125.5
1115,B-5,335.0,0.5,63,125.5
1116,G#5,335.0,1.0,40,125.5
1117,C#5,335.0,1.0,40,125.5
1118,E2,335.0,1.0,45,125.5
1119,E3,335.0,1.0,45,125.5
1120,C#6,335.5,0.5,62,125.5
1121,C#6,336.0,0.75,66,125.5
1122,C#5,336.0,1.0,49,125.5
1123,F#5,336.0,1.0,49,125.5
1124,E-2,336.0,2.0,48,125.5
1125,E-3,336.0,2.0,48,125.5
1126,C6,336.75,0.125,59,125.5
1127,C#6,336.875,0.125,57,125.5
1128,C6,337.0,0.5,67,125.5
1129,G#3,337.0,2.0,57,125.5
1130,C5,337.0,1.0,41,125.5
1131,F#5,337.0,1.0,41,125.5
1132,B-5,337.5,0.5,64,125.5
1133,C6,338.0,0.5,67,125.5
1134,C5,338.0,1.0,43,125.5
1135,F#5,338.0,1.0,43,125.5
1136,G#1,338.0,1.0,48,125.5
1137,G#2,338.0,1.0,48,125.5
1138,G#5,338.5,0.5,63,125.5
1139,C#5,339.0,1.0,46,125.5
1140,B-5,339.0,0.75,66,125.5
1141,E2,339.0,1.0,45,125.5
1142,E3,339.0,1.0,45,125.5
1143,G#5,339.75,0.125,55,125.5
1144,B-5,339.875,0.125,50,125.5
1145,C#5,340.0,1.0,46,125.5
1146,G#5,340.0,0.5,66,125.5
1147,F2,340.0,1.0,45,125.5
1148,F3,340.0,1.0,45,125.5
1149,F5,340.5,0.5,57,125.5
1150,C#5,341.0,1.0,63,125.5
1151,G#1,341.0,1.0,36,125.5
1152,G#2,341.0,1.0,36,125.5
1153,F5,341.5,0.5,56,125.5
1154,B-4,342.0,0.5,60,125.5
1155,G2,342.0,2.0,42,125.5
1156,G3,342.0,2.0,42,125.5
1157,C5,343.0,2.0,46,125.5
1158,F5,343.0,1.5,70,125.5
1159,G#3,343.0,2.0,54,125.5
1160,F#2,344.0,1.0,42,125.5
1161,F#3,344.0,1.0,42,125.5
1162,E-5,344.5,0.5,65,125.5
1163,C#5,345.0,2.0,46,125.5
1164,F5,345.0,0.75,70,125.5
1165,F2,345.0,2.0,42,125.5
1166,F3,345.0,2.0,42,125.5
1167,F#5,345.75,0.25,66,125.5
1168,G#5,346.0,1.0,69,125.5
1169,G#3,346.0,1.75,56,125.5
1170,G#5,347.0,0.75,56,125.5
1171,C#5,347.0,0.75,56,125.5
1172,B-5,347.0,0.75,56,125.5
1173,E2,347.0,0.75,45,125.5
1174,E3,347.0,0.75,45,125.5
1175,C5,347.75,0.25,60,125.5
1176,F#5,347.875,0.125,68,125.5
1177,B-5,348.0,0.75,75,125.5
1178,C5,348.0,0.75,60,125.5
1179,F#5,348.0,0.75,68,125.5
1180,E-2,348.0,1.0,48,125.5
1181,E-3,348.0,1.0,48,125.5
1182,G#5,348.75,0.125,57,125.5
1183,B-5,348.875,0.125,55,125.5
1184,G#5,349.0,0.5,67,125.5
1185,G#3,349.0,2.0,57,125.5
1186,F#5,349.5,0.5,57,125.5
1187,F5,350.0,0.5,60,125.5
1188,E-5,350.5,0.25,55,125.5
1189,F#4,350.75,0.25,43,125.5
1190,B-4,350.875,0.125,56,125.5
1191,F5,351.0,0.75,68,125.5
1192,F#4,351.0,0.75,43,125.5
1193,B-4,351.0,0.75,56,125.5
1194,C#2,351.0,1.0,48,125.5
1195,C#3,351.0,1.0,48,125.5
1196,E-5,351.75,0.125,52,125.5
1197,F5,351.875,0.125,56,125.5
1198,E-5,352.0,0.5,60,125.5
1199,F#3,352.0,2.0,55,125.5
1200,C#5,352.5,0.5,52,125.5
1201,C5,353.0,0.5,57,125.5
1202,B-4,353.5,0.5,52,125.5
1203,E-4,354.0,0.75,56,125.5
1204,F#4,354.0,0.75,56,125.5
1205,B-4,354.0,0.75,56,125.5
1206,C2,354.0,1.0,48,125.5
1207,C3,354.0,1.0,48,125.5
1208,G#4,354.75,0.125,54,125.5
1209,B-4,354.875,0.125,54,125.5
1210,G#4,355.0,0.5,59,125.5
1211,E-3,355.0,1.0,57,125.5
1212,F#4,355.5,0.5,53,125.5
1213,E-4,356.0,1.0,52,125.5
1214,F4,356.0,1.0,52,125.5
1215,B1,356.0,1.0,44,125.5
1216,B2,356.0,1.0,44,125.5
1217,C#4,357.0,0.75,56,125.5
1218,G#4,357.0,0.75,56,125.5
1219,B-1,357.0,1.0,48,125.5
1220,B-2,357.0,1.0,48,125.5
1221,F#4,357.75,0.125,46,125.5
1222,G#4,357.875,0.125,52,125.5
1223,F#4,358.0,0.5,58,125.5
1224,C#3,358.0,1.0,57,125.5
1225,F4,358.5,0.5,49,125.5
1226,C#4,359.0,1.0,54,125.5
1227,E-4,359.0,0.5,59,125.5
1228,A1,359.0,1.0,48,125.5
1229,A2,359.0,1.0,48,125.5
1230,E4,359.5,0.375,62,125.5
1231,C#4,359.875,0.125,57,125.5
1232,F4,360.0,0.75,70,125.5
1233,C#4,360.0,0.75,57,125.5
1234,G#1,360.0,1.0,53,125.5
1235,G#2,360.0,1.0,53,125.5
1236,E-4,360.75,0.125,58,125.5
1237,F4,360.875,0.125,59,125.5
1238,E-4,361.0,0.5,64,125.5
1239,G#3,361.0,2.0,63,125.5
1240,C#4,361.5,0.5,48,125.5
1241,C4,362.0,0.5,61,125.5
1242,B-3,362.5,0.5,55,125.5
1243,F3,363.0,0.75,60,125.5
1244,F#3,363.0,3.0,48,125.5
1245,G#3,363.0,3.0,48,125.5
1246,E-3,363.75,0.125,48,125.5
1247,F3,363.875,0.125,41,125.5
1248,E-3,364.0,0.5,52,125.5
1249,C#3,364.5,0.5,49,125.5
1250,C3,365.0,1.0,46,125.5
1251,C#3,366.0,3.0,49,125.5
1252,G#2,367.0,1.0,41,125.5
1253,F3,367.0,2.0,49,125.5
1254,C#4,367.0,2.0,49,125.5
1255,C#2,368.0,1.0,33,125.5
1256,E-3,369.0,2.0,49,125.5
1257,F#3,369.0,0.375,49,125.5
1258,B-3,369.0,0.375,49,125.5
1259,F4,370.0,2.0,55,125.5
1260,C#2,371.0,1.0,33,125.5
1261,E-3,372.0,2.0,49,125.5
1262,F#3,372.0,0.375,49,125.5
1263,B3,372.0,0.375,49,125.5
1264,F4,373.0,2.0,55,125.5
1265,C#2,374.0,1.0,34,125.5
1266,E-3,375.0,2.0,49,125.5
1267,F#3,375.0,0.375,49,125.5
1268,C4,375.0,0.375,49,125.5
1269,F4,376.0,1.875,55,125.5
1270,C#2,377.0,1.0,31,125.5
1271,G#3,377.875,0.125,46,125.5
1272,F3,378.0,2.0,49,125.5
1273,C#4,378.0,0.5,48,125.5
1274,F4,378.0,0.5,48,125.5
1275,C4,378.5,0.5,50,125.5
1276,B3,379.0,0.5,49,125.5
1277,B-3,379.5,0.375,48,125.5
1278,A3,379.75,0.125,41,125.5
1279,B-3,379.875,0.125,37,125.5
1280,A3,380.0,0.5,47,125.5
1281,C#2,380.0,1.0,37,125.5
1282,G#3,380.5,0.5,46,125.5
1283,E-4,381.0,2.0,49,125.5
1284,F#4,381.0,0.375,49,125.5
1285,B-4,381.0,0.375,49,125.5
1286,F5,382.0,2.0,57,125.5
1287,C#3,383.0,1.0,31,125.5
1288,E-4,384.0,2.0,49,125.5
1289,F#4,384.0,0.375,49,125.5
1290,B4,384.0,0.375,49,125.5
1291,F5,385.0,2.0,57,125.5
1292,C#3,386.0,1.0,33,125.5
1293,E-4,387.0,2.0,49,125.5
1294,F#4,387.0,0.375,49,125.5
1295,C5,387.0,0.375,49,125.5
1296,F5,388.0,1.875,56,125.5
1297,C#3,389.0,1.0,34,125.5
1298,G#4,389.875,0.125,47,125.5
1299,F4,390.0,2.0,49,125.5
1300,C#5,390.0,0.5,51,125.5
1301,F5,390.0,0.5,51,125.5
1302,C5,390.5,0.5,50,125.5
1303,B4,391.0,0.5,49,125.5
1304,B-4,391.5,0.375,48,125.5
1305,A4,391.75,0.125,41,125.5
1306,B-4,391.875,0.125,37,125.5
1307,A4,392.0,0.5,47,125.5
1308,C#3,392.0,1.0,34,125.5
1309,G#4,392.5,0.5,46,125.5
1310,C#5,393.0,3.0,41,125.5
1311,A4,393.0,0.75,42,125.5
1312,F4,393.0,3.0,39,125.5
1313,G#4,393.75,0.125,37,125.5
1314,A4,393.875,0.125,34,125.5
1315,G#4,394.0,0.5,42,125.5
1316,G4,394.5,0.5,35,125.5
1317,G#4,395.0,0.375,38,125.5
1318,G#4,395.5,333/1000,34,125.5
1319,G#4,395.75,0.25,36,125.5
1320,C#5,395.875,0.125,38,125.5
1321,G#5,396.0,3.0,40,125.5
1322,C#5,396.0,3.0,38,125.5
1323,G#4,396.0,3.0,36,125.5
1324,F4,396.0,1.0,39,125.5
1325,C#4,397.0,2.0,31,125.5
