,note_name,start_time,duration,velocity,tempo
0,A1,0.0,333/1000,43,72.97
1,C5,0.0,0.5,53,72.97
2,A4,0.0,0.5,53,72.97
3,A2,0.333,333/1000,45,72.97
4,C5,0.5,0.5,57,72.97
5,A4,0.5,0.5,57,72.97
6,E3,0.667,333/1000,48,72.97
7,D5,1.0,2.0,34,72.97
8,F4,1.0,2.0,34,72.97
9,A4,1.0,2.0,34,72.97
10,A2,1.0,2.0,33,72.97
11,D3,1.0,2.0,33,72.97
12,A1,3.0,333/1000,40,72.97
13,A4,3.0,0.5,54,72.97
14,C5,3.0,0.5,54,72.97
15,A2,3.333,333/1000,46,72.97
16,C5,3.5,0.5,56,72.97
17,A4,3.5,0.5,56,72.97
18,E3,3.667,333/1000,49,72.97
19,D4,4.0,2.0,34,72.97
20,B4,4.0,2.0,34,72.97
21,G#4,4.0,2.0,34,72.97
22,A2,4.0,2.0,31,72.97
23,F3,4.0,2.0,31,72.97
24,A1,6.0,333/1000,42,72.97
25,A4,6.0,0.5,53,72.97
26,F#4,6.0,0.5,53,72.97
27,A2,6.333,333/1000,42,72.97
28,F#4,6.5,0.5,51,72.97
29,A4,6.5,0.5,51,72.97
30,C3,6.667,333/1000,42,72.97
31,C5,7.0,1.0,50,72.97
32,C4,7.0,1.0,50,72.97
33,A2,7.0,2.0,34,72.97
34,E-3,7.0,2.0,34,72.97
35,F#4,8.0,1.0,46,72.97
36,A4,8.0,1.0,46,72.97
37,E2,9.0,333/1000,33,72.97
38,E4,9.0,1.0,42,72.97
39,G#4,9.0,1.0,42,72.97
40,B2,9.333,333/1000,30,72.97
41,E3,9.667,2333/1000,29,72.97
42,E2,10.0,2.0,28,72.97
43,B3,10.0,2.0,34,72.97
44,G#4,10.0,2.0,34,72.97
45,B4,10.0,2.0,34,72.97
46,A1,12.0,333/1000,42,72.97
47,C5,12.0,0.5,52,72.97
48,A4,12.0,0.5,52,72.97
49,A2,12.333,333/1000,46,72.97
50,A4,12.5,0.5,55,72.97
51,C5,12.5,0.5,55,72.97
52,E3,12.667,333/1000,50,72.97
53,E5,13.0,2.0,49,72.97
54,E4,13.0,2.0,49,72.97
55,C#5,13.0,2.0,49,72.97
56,A2,13.0,2.0,43,72.97
57,A3,13.0,2.0,43,72.97
58,D2,15.0,333/1000,48,72.97
59,D5,15.0,0.5,60,72.97
60,F5,15.0,0.5,60,72.97
61,D3,15.333,333/1000,51,72.97
62,F5,15.5,0.5,64,72.97
63,D5,15.5,0.5,64,72.97
64,A3,15.667,333/1000,54,72.97
65,A4,16.0,2.0,62,72.97
66,A5,16.0,2.0,62,72.97
67,F#5,16.0,2.0,62,72.97
68,E-3,16.0,2.0,48,72.97
69,C4,16.0,2.0,48,72.97
70,C5,18.0,2.0,61,72.97
71,E2,18.0,333/1000,49,72.97
72,G4,18.0,0.5,65,72.97
73,G5,18.0,0.5,65,72.97
74,E3,18.333,333/1000,49,72.97
75,G4,18.5,0.5,65,72.97
76,G5,18.5,0.5,65,72.97
77,G3,18.667,333/1000,49,72.97
78,C4,19.0,1.5,46,72.97
79,E3,19.0,1.0,40,72.97
80,E5,19.0,1.0,65,72.97
81,G#4,19.0,1.0,65,72.97
82,F3,20.0,1.0,39,72.97
83,C5,20.0,1.0,56,72.97
84,A4,20.0,1.0,56,72.97
85,A3,20.5,0.5,26,72.97
86,E3,21.0,0.5,48,72.97
87,B4,21.0,1.0,52,72.97
88,G#4,21.0,1.0,52,72.97
89,E4,21.0,3.0,52,72.97
90,E5,21.0,3.0,52,72.97
91,E3,21.5,2.5,45,72.97
92,A4,22.0,2.0,52,72.97
93,C3,22.0,1.0,40,72.97
94,A2,23.0,1.0,36,72.97
95,E2,24.0,0.5,39,72.97
96,B3,24.0,1.0,35,72.97
97,G#3,24.0,1.0,35,72.97
98,E4,24.0,3.0,40,72.97
99,E3,24.0,3.0,40,72.97
100,E2,24.5,0.5,39,72.97
101,A3,25.0,2.0,34,72.97
102,C2,25.0,1.0,42,72.97
103,A1,26.0,1.0,32,72.97
104,A1,27.0,333/1000,32,72.97
105,A4,27.0,0.5,41,72.97
106,C5,27.0,0.5,41,72.97
107,A2,27.333,333/1000,29,72.97
108,A4,27.5,0.5,41,72.97
109,C5,27.5,0.5,41,72.97
110,E3,27.667,333/1000,28,72.97
111,A2,28.0,333/1000,28,72.97
112,B4,28.0,0.5,44,72.97
113,F4,28.0,0.5,44,72.97
114,D5,28.0,0.5,44,72.97
115,D3,28.333,333/1000,28,72.97
116,A4,28.5,0.5,41,72.97
117,C5,28.5,0.5,41,72.97
118,F3,28.667,333/1000,28,72.97
119,A2,29.0,1.0,28,72.97
120,F4,29.0,1.0,38,72.97
121,B4,29.0,1.0,38,72.97
122,D5,29.0,1.0,38,72.97
123,A1,30.0,333/1000,28,72.97
124,C5,30.0,0.5,44,72.97
125,A4,30.0,0.5,44,72.97
126,A2,30.333,333/1000,29,72.97
127,A4,30.5,0.5,44,72.97
128,C5,30.5,0.5,44,72.97
129,E3,30.667,333/1000,30,72.97
130,A2,31.0,333/1000,29,72.97
131,B4,31.0,0.5,41,72.97
132,D4,31.0,0.5,41,72.97
133,G#4,31.0,0.5,41,72.97
134,F3,31.333,333/1000,28,72.97
135,F4,31.5,0.5,38,72.97
136,A4,31.5,0.5,38,72.97
137,D3,31.667,333/1000,28,72.97
138,A2,32.0,1.0,28,72.97
139,G#4,32.0,1.0,37,72.97
140,B4,32.0,1.0,37,72.97
141,D4,32.0,1.0,37,72.97
142,A1,33.0,333/1000,29,72.97
143,A4,33.0,0.5,42,72.97
144,F#4,33.0,0.5,42,72.97
145,A2,33.333,333/1000,32,72.97
146,A4,33.5,1.0,46,72.97
147,F#4,33.5,0.5,40,72.97
148,C3,33.667,333/1000,34,72.97
149,A2,34.0,333/1000,37,72.97
150,C4,34.0,0.5,48,72.97
151,C5,34.0,0.5,48,72.97
152,F#3,34.333,333/1000,35,72.97
153,B4,34.5,0.5,46,72.97
154,G#4,34.5,0.5,46,72.97
155,E-3,34.667,333/1000,35,72.97
156,A2,35.0,333/1000,33,72.97
157,C4,35.0,0.5,45,72.97
158,C5,35.0,0.5,45,72.97
159,A4,35.0,0.5,45,72.97
160,F#3,35.333,333/1000,33,72.97
161,A4,35.5,0.5,43,72.97
162,F#4,35.5,0.5,43,72.97
163,E-3,35.667,333/1000,33,72.97
164,E2,36.0,3.0,30,72.97
165,E4,36.0,1.0,42,72.97
166,G#4,36.0,1.0,42,72.97
167,B2,36.333,333/1000,32,72.97
168,E3,36.667,2333/1000,32,72.97
169,G#4,37.0,2.0,35,72.97
170,B4,37.0,2.0,35,72.97
171,B3,37.0,2.0,35,72.97
172,A1,39.0,333/1000,43,72.97
173,C5,39.0,0.5,55,72.97
174,A4,39.0,0.5,55,72.97
175,A2,39.333,333/1000,43,72.97
176,C5,39.5,0.5,55,72.97
177,A4,39.5,0.5,55,72.97
178,E3,39.667,333/1000,43,72.97
179,A2,40.0,333/1000,43,72.97
180,E5,40.0,0.5,54,72.97
181,C#5,40.0,0.5,54,72.97
182,E4,40.0,0.5,54,72.97
183,A3,40.333,333/1000,43,72.97
184,B4,40.5,0.5,54,72.97
185,F4,40.5,0.5,54,72.97
186,D5,40.5,0.5,54,72.97
187,D3,40.667,333/1000,43,72.97
188,E4,41.0,0.5,52,72.97
189,A2,41.0,333/1000,45,72.97
190,E5,41.0,1.0,58,72.97
191,C#5,41.0,1.0,58,72.97
192,A3,41.333,333/1000,45,72.97
193,G5,41.5,0.5,58,72.97
194,A4,41.5,0.5,58,72.97
195,E3,41.667,333/1000,46,72.97
196,D2,42.0,333/1000,42,72.97
197,D5,42.0,0.5,54,72.97
198,F5,42.0,0.5,54,72.97
199,A4,42.0,0.5,54,72.97
200,D3,42.333,333/1000,44,72.97
201,D5,42.5,0.5,54,72.97
202,A4,42.5,0.5,54,72.97
203,F5,42.5,0.5,54,72.97
204,A3,42.667,333/1000,44,72.97
205,E-3,43.0,333/1000,47,72.97
206,A5,43.0,0.5,58,72.97
207,F#5,43.0,0.5,58,72.97
208,C5,43.0,0.5,58,72.97
209,C4,43.333,333/1000,46,72.97
210,F5,43.5,0.5,58,72.97
211,G#5,43.5,0.5,58,72.97
212,B4,43.5,0.5,58,72.97
213,A3,43.667,333/1000,46,72.97
214,C5,44.0,0.5,58,72.97
215,E-3,44.0,333/1000,48,72.97
216,A5,44.0,1.0,62,72.97
217,F#5,44.0,1.0,62,72.97
218,C4,44.333,333/1000,49,72.97
219,C6,44.5,0.5,67,72.97
220,A3,44.667,333/1000,49,72.97
221,E2,45.0,333/1000,50,72.97
222,G5,45.0,0.5,63,72.97
223,C5,45.0,0.5,63,72.97
224,G4,45.0,0.5,63,72.97
225,E3,45.333,333/1000,46,72.97
226,C5,45.5,1.5,61,72.97
227,G4,45.5,0.5,61,72.97
228,G5,45.5,0.5,61,72.97
229,G3,45.667,333/1000,47,72.97
230,G#4,46.0,1.0,60,72.97
231,F5,46.0,0.5,68,72.97
232,E3,46.0,1.0,51,72.97
233,C4,46.333,667/1000,47,72.97
234,E5,46.5,0.5,64,72.97
235,D5,47.0,0.5,63,72.97
236,A4,47.0,1.0,56,72.97
237,F3,47.0,1.0,50,72.97
238,A3,47.333,667/1000,47,72.97
239,C5,47.5,0.5,57,72.97
240,E3,48.0,0.5,49,72.97
241,B4,48.0,1.0,53,72.97
242,G#4,48.0,1.0,53,72.97
243,E4,48.0,3.0,53,72.97
244,E5,48.0,3.0,53,72.97
245,E3,48.5,2.5,49,72.97
246,A4,49.0,2.0,55,72.97
247,D3,49.0,0.5,48,72.97
248,C3,49.5,521/1000,46,72.97
249,B2,50.0,521/1000,43,72.97
250,A2,50.5,0.5,40,72.97
251,B3,51.0,1.0,38,72.97
252,G#3,51.0,1.0,38,72.97
253,E4,51.0,3.0,38,72.97
254,E3,51.0,3.0,38,72.97
255,E2,51.5,0.5,39,72.97
256,A3,52.0,2.0,40,72.97
257,D2,52.0,521/1000,37,72.97
258,C2,52.5,521/1000,35,72.97
259,B1,53.0,521/1000,33,72.97
260,A1,53.5,0.5,31,72.97
261,E5,54.0,0.25,45,72.97
262,G#4,54.0,0.5,32,72.97
263,E4,54.0,0.5,32,72.97
264,E6,54.25,0.25,50,72.97
265,D6,54.5,0.25,51,72.97
266,A4,54.5,1.0,28,72.97
267,F4,54.5,0.5,23,72.97
268,D5,54.75,0.25,47,72.97
269,F5,55.0,0.25,48,72.97
270,D4,55.0,0.5,28,72.97
271,F6,55.25,0.25,50,72.97
272,E6,55.5,0.25,52,72.97
273,G#4,55.5,0.5,30,72.97
274,E4,55.5,0.5,30,72.97
275,E5,55.75,0.25,48,72.97
276,D5,56.0,0.25,49,72.97
277,A4,56.0,1.0,30,72.97
278,F4,56.0,0.5,25,72.97
279,D6,56.25,0.25,54,72.97
280,C6,56.5,0.25,51,72.97
281,D4,56.5,0.5,29,72.97
282,C5,56.75,0.25,51,72.97
283,B4,57.0,0.25,55,72.97
284,E4,57.0,0.5,32,72.97
285,G#4,57.0,0.5,32,72.97
286,B5,57.25,0.25,56,72.97
287,D6,57.5,0.25,52,72.97
288,F4,57.5,0.5,28,72.97
289,A4,57.5,1.0,33,72.97
290,D5,57.75,0.25,54,72.97
291,C5,58.0,0.25,51,72.97
292,D4,58.0,0.5,29,72.97
293,C6,58.25,0.25,51,72.97
294,B5,58.5,0.25,56,72.97
295,G#4,58.5,0.5,32,72.97
296,E4,58.5,0.5,32,72.97
297,D5,58.75,0.25,49,72.97
298,A4,59.0,0.25,52,72.97
299,A4,59.0,1.0,27,72.97
300,F4,59.0,0.5,32,72.97
301,A5,59.25,0.75,48,72.97
302,D4,59.5,0.5,29,72.97
303,A5,60.0,0.5,48,72.97
304,B3,60.0,0.5,32,72.97
305,E-4,60.0,0.5,32,72.97
306,A4,60.5,1.0,49,72.97
307,C4,60.5,0.5,24,72.97
308,E4,60.5,1.0,29,72.97
309,A5,60.75,0.75,44,72.97
310,A3,61.0,0.5,26,72.97
311,A4,61.5,0.5,49,72.97
312,A5,61.5,0.5,44,72.97
313,B3,61.5,0.5,26,72.97
314,E-4,61.5,0.5,26,72.97
315,G4,62.0,0.25,53,72.97
316,E4,62.0,1.0,27,72.97
317,C4,62.0,0.5,23,72.97
318,G5,62.25,0.25,51,72.97
319,F#5,62.5,0.25,54,72.97
320,A3,62.5,0.5,25,72.97
321,F#4,62.75,0.25,50,72.97
322,B4,63.0,0.25,51,72.97
323,B3,63.0,0.5,28,72.97
324,E-4,63.0,0.5,28,72.97
325,B5,63.25,0.25,54,72.97
326,A5,63.5,0.25,57,72.97
327,E4,63.5,1.0,28,72.97
328,C4,63.5,0.5,23,72.97
329,A4,63.75,0.25,52,72.97
330,G4,64.0,0.25,52,72.97
331,A3,64.0,0.5,26,72.97
332,G5,64.25,0.25,55,72.97
333,F#5,64.5,0.25,59,72.97
334,B3,64.5,0.5,30,72.97
335,E-4,64.5,0.5,30,72.97
336,F#4,64.75,0.25,53,72.97
337,A4,65.0,0.25,54,72.97
338,C4,65.0,0.5,26,72.97
339,E4,65.0,0.5,26,72.97
340,A5,65.25,0.25,56,72.97
341,C6,65.5,0.25,59,72.97
342,A3,65.5,0.5,30,72.97
343,F#4,65.5,0.5,30,72.97
344,C5,65.75,0.25,55,72.97
345,B4,66.0,0.25,56,72.97
346,E4,66.0,0.5,32,72.97
347,G#4,66.0,0.5,32,72.97
348,B5,66.25,0.25,60,72.97
349,D6,66.5,0.25,61,72.97
350,A4,66.5,1.0,30,72.97
351,F4,66.5,0.5,25,72.97
352,D5,66.75,0.25,56,72.97
353,F5,67.0,0.25,57,72.97
354,D4,67.0,0.5,29,72.97
355,F6,67.25,0.25,64,72.97
356,E6,67.5,0.25,65,72.97
357,E4,67.5,0.5,32,72.97
358,G#4,67.5,0.5,32,72.97
359,E5,67.75,0.25,58,72.97
360,D5,68.0,0.25,58,72.97
361,A4,68.0,1.0,32,72.97
362,F4,68.0,0.5,27,72.97
363,D6,68.25,0.25,61,72.97
364,F6,68.5,0.25,68,72.97
365,D4,68.5,0.5,29,72.97
366,F5,68.75,0.25,60,72.97
367,E5,69.0,0.25,60,72.97
368,E4,69.0,0.5,33,72.97
369,G#4,69.0,0.5,33,72.97
370,E6,69.25,0.25,65,72.97
371,D6,69.5,0.25,69,72.97
372,A4,69.5,1.0,35,72.97
373,F4,69.5,0.5,29,72.97
374,D5,69.75,0.25,61,72.97
375,F5,70.0,0.25,63,72.97
376,D4,70.0,0.5,31,72.97
377,F6,70.25,0.25,66,72.97
378,E6,70.5,0.25,67,72.97
379,E4,70.5,0.5,34,72.97
380,G#4,70.5,0.5,34,72.97
381,E5,70.75,0.25,59,72.97
382,D5,71.0,0.25,59,72.97
383,A4,71.0,1.0,35,72.97
384,F4,71.0,0.5,29,72.97
385,D6,71.25,0.25,60,72.97
386,C6,71.5,0.25,59,72.97
387,D4,71.5,0.5,29,72.97
388,C5,71.75,0.25,54,72.97
389,B4,72.0,0.25,54,72.97
390,E4,72.0,0.5,32,72.97
391,G#4,72.0,0.5,32,72.97
392,B5,72.25,0.25,59,72.97
393,D6,72.5,0.25,60,72.97
394,A4,72.5,1.0,29,72.97
395,F4,72.5,0.5,24,72.97
396,D5,72.75,0.25,54,72.97
397,C5,73.0,0.25,50,72.97
398,D4,73.0,0.5,25,72.97
399,C6,73.25,0.25,51,72.97
400,B5,73.5,0.25,54,72.97
401,G#4,73.5,0.5,32,72.97
402,E4,73.5,0.5,32,72.97
403,D5,73.75,0.25,46,72.97
404,A4,74.0,0.25,50,72.97
405,A4,74.0,1.0,32,72.97
406,F4,74.0,0.5,27,72.97
407,A5,74.25,0.75,46,72.97
408,D4,74.5,0.5,29,72.97
409,A5,75.0,0.5,46,72.97
410,B3,75.0,0.5,32,72.97
411,E-4,75.0,0.5,32,72.97
412,A4,75.5,1.0,49,72.97
413,C4,75.5,0.5,24,72.97
414,E4,75.5,1.0,29,72.97
415,A5,75.75,0.75,42,72.97
416,A3,76.0,0.5,26,72.97
417,A4,76.5,0.5,49,72.97
418,A5,76.5,0.5,42,72.97
419,B3,76.5,0.5,26,72.97
420,E-4,76.5,0.5,26,72.97
421,G4,77.0,0.25,49,72.97
422,E4,77.0,1.0,27,72.97
423,C4,77.0,0.5,23,72.97
424,G5,77.25,0.25,57,72.97
425,F#5,77.5,0.25,57,72.97
426,A3,77.5,0.5,28,72.97
427,F#4,77.75,0.25,53,72.97
428,B4,78.0,0.25,53,72.97
429,B3,78.0,0.5,30,72.97
430,E-4,78.0,0.5,30,72.97
431,B5,78.25,0.25,58,72.97
432,A5,78.5,0.25,63,72.97
433,E4,78.5,1.0,31,72.97
434,C4,78.5,0.5,26,72.97
435,A4,78.75,0.25,57,72.97
436,G4,79.0,0.25,57,72.97
437,A3,79.0,0.5,31,72.97
438,G5,79.25,0.25,67,72.97
439,F#5,79.5,0.25,67,72.97
440,B3,79.5,0.5,34,72.97
441,E-4,79.5,0.5,34,72.97
442,F#4,79.75,0.25,58,72.97
443,A4,80.0,0.25,58,72.97
444,C4,80.0,0.5,30,72.97
445,E4,80.0,0.5,30,72.97
446,A5,80.25,0.25,65,72.97
447,C6,80.5,0.25,71,72.97
448,A3,80.5,0.5,37,72.97
449,F#4,80.5,0.5,37,72.97
450,C5,80.75,0.25,68,72.97
451,B4,81.0,0.25,68,72.97
452,E4,81.0,0.5,37,72.97
453,G#4,81.0,0.5,37,72.97
454,B5,81.25,0.25,70,72.97
455,D6,81.5,0.25,75,72.97
456,A4,81.5,0.5,36,72.97
457,F4,81.5,0.5,36,72.97
458,D5,81.75,0.25,72,72.97
459,F5,82.0,0.25,72,72.97
460,B4,82.0,0.5,38,72.97
461,D4,82.0,0.5,38,72.97
462,F6,82.25,0.25,75,72.97
463,E6,82.5,0.25,79,72.97
464,A4,82.5,0.5,41,72.97
465,C#5,82.5,0.5,41,72.97
466,E5,82.75,0.25,74,72.97
467,G5,83.0,0.25,74,72.97
468,D5,83.0,1.0,43,72.97
469,B-4,83.0,0.5,35,72.97
470,G6,83.25,0.25,76,72.97
471,F6,83.5,0.25,79,72.97
472,G4,83.5,0.5,40,72.97
473,F5,83.75,0.25,74,72.97
474,E5,84.0,0.25,74,72.97
475,A4,84.0,0.5,44,72.97
476,C#5,84.0,0.5,44,72.97
477,E6,84.25,0.25,74,72.97
478,G6,84.5,0.25,79,72.97
479,D5,84.5,1.0,47,72.97
480,B-4,84.5,0.5,39,72.97
481,G5,84.75,0.25,74,72.97
482,F5,85.0,0.25,74,72.97
483,G4,85.0,0.5,40,72.97
484,F6,85.25,0.25,75,72.97
485,E6,85.5,0.25,80,72.97
486,C#5,85.5,0.5,44,72.97
487,A4,85.5,0.5,44,72.97
488,E5,85.75,0.25,76,72.97
489,A5,86.0,0.25,75,72.97
490,D5,86.0,1.0,47,72.97
491,F4,86.0,0.5,39,72.97
492,A6,86.25,0.25,73,72.97
493,F6,86.5,0.25,80,72.97
494,B-4,86.5,0.5,40,72.97
495,F5,86.75,0.25,74,72.97
496,G5,87.0,0.25,74,72.97
497,E4,87.0,0.5,40,72.97
498,D5,87.0,0.5,47,72.97
499,G6,87.25,0.25,72,72.97
500,E6,87.5,0.25,78,72.97
501,C5,87.5,1.0,45,72.97
502,A4,87.5,0.5,37,72.97
503,E5,87.75,0.25,69,72.97
504,F5,88.0,0.25,69,72.97
505,D4,88.0,0.5,38,72.97
506,F6,88.25,0.25,72,72.97
507,D6,88.5,0.25,71,72.97
508,B-4,88.5,1.0,45,72.97
509,G4,88.5,0.5,37,72.97
510,D5,88.75,0.25,66,72.97
511,E5,89.0,0.25,64,72.97
512,C#4,89.0,0.5,34,72.97
513,E6,89.25,0.25,60,72.97
514,C#6,89.5,0.25,58,72.97
515,A4,89.5,0.5,44,72.97
516,F4,89.5,0.5,36,72.97
517,C#5,89.75,0.25,56,72.97
518,E5,90.0,0.25,55,72.97
519,B3,90.0,1.0,36,72.97
520,A4,90.0,1.5,44,72.97
521,E6,90.25,0.25,57,72.97
522,D6,90.5,0.25,60,72.97
523,D5,90.75,0.25,52,72.97
524,C5,91.0,0.25,51,72.97
525,D4,91.0,0.5,34,72.97
526,C6,91.25,0.25,56,72.97
527,B5,91.5,0.25,55,72.97
528,G#4,91.5,0.5,36,72.97
529,E4,91.5,0.5,36,72.97
530,B4,91.75,0.25,48,72.97
531,D5,92.0,0.25,49,72.97
532,A4,92.0,1.0,35,72.97
533,F4,92.0,0.5,29,72.97
534,D6,92.25,0.25,53,72.97
535,C6,92.5,0.25,53,72.97
536,D4,92.5,0.5,33,72.97
537,C5,92.75,0.25,48,72.97
538,B4,93.0,0.25,48,72.97
539,E4,93.0,0.5,36,72.97
540,G#4,93.0,0.5,36,72.97
541,B5,93.25,0.25,48,72.97
542,D6,93.5,1.0,48,72.97
543,A4,93.5,1.0,31,72.97
544,F4,93.5,0.5,26,72.97
545,D5,93.75,0.75,48,72.97
546,D4,94.0,0.5,29,72.97
547,C5,94.5,0.25,42,72.97
548,G#4,94.5,0.5,32,72.97
549,E4,94.5,0.5,32,72.97
550,C6,94.75,0.75,40,72.97
551,A4,95.0,1.0,29,72.97
552,F4,95.0,0.5,24,72.97
553,B5,95.5,0.5,43,72.97
554,D4,95.5,0.5,28,72.97
555,B4,95.75,0.25,37,72.97
556,B5,96.0,0.5,43,72.97
557,B4,96.0,0.5,37,72.97
558,E4,96.0,0.5,30,72.97
559,G#4,96.0,0.5,30,72.97
560,A4,96.5,1.0,38,72.97
561,C#4,96.5,0.5,26,72.97
562,A4,96.5,0.5,26,72.97
563,A5,96.75,0.75,35,72.97
564,D4,97.0,0.5,25,72.97
565,F4,97.0,0.5,25,72.97
566,A4,97.5,1.5,38,72.97
567,A5,97.5,1.5,35,72.97
568,B3,97.5,0.5,24,72.97
569,G4,97.5,0.5,24,72.97
570,C#4,98.0,0.5,24,72.97
571,E4,98.0,0.5,24,72.97
572,A3,98.5,0.5,23,72.97
573,F4,98.5,0.5,23,72.97
574,A4,99.0,1.5,35,72.97
575,B3,99.0,0.5,23,72.97
576,D4,99.0,0.5,23,72.97
577,A5,99.25,1.25,33,72.97
578,G3,99.5,0.5,22,72.97
579,E4,99.5,0.5,22,72.97
580,A3,100.0,0.5,20,72.97
581,C#4,100.0,0.5,20,72.97
582,A4,100.5,1.5,35,72.97
583,A5,100.5,1.5,33,72.97
584,F#3,100.5,0.5,20,72.97
585,E4,100.5,0.5,20,72.97
586,F3,101.0,0.5,20,72.97
587,A3,101.0,0.5,20,72.97
588,D3,101.5,0.5,20,72.97
589,D4,101.5,0.5,20,72.97
590,A3,102.0,3.0,54,72.97
591,A1,102.0,333/1000,51,72.97
592,C#4,102.0,1.0,57,72.97
593,A4,102.0,1.0,57,72.97
594,A2,102.333,2667/1000,48,72.97
595,E3,102.667,333/1000,43,72.97
596,D4,102.833,2167/1000,37,72.97
597,G#4,103.0,0.25,55,72.97
598,D3,103.0,2.0,37,72.97
599,F#4,103.25,1.75,52,72.97
600,A1,105.0,333/1000,44,72.97
601,A3,105.0,1.0,54,72.97
602,C#4,105.0,1.0,54,72.97
603,A4,105.0,1.0,54,72.97
604,A2,105.333,2667/1000,42,72.97
605,E3,105.667,333/1000,37,72.97
606,B3,105.833,2167/1000,30,72.97
607,E4,106.0,0.25,53,72.97
608,F#3,106.0,2.0,32,72.97
609,D4,106.25,1.75,48,72.97
610,A3,108.0,3.0,47,72.97
611,F#4,108.0,1.0,52,72.97
612,A1,108.0,333/1000,47,72.97
613,A2,108.333,2667/1000,42,72.97
614,C#3,108.667,333/1000,42,72.97
615,C#4,109.0,1.0,50,72.97
616,E-3,109.0,2.0,42,72.97
617,F#4,110.0,1.0,44,72.97
618,G#3,111.0,3.0,35,72.97
619,E4,111.0,1.0,39,72.97
620,E2,111.0,2.0,39,72.97
621,B2,111.5,0.5,34,72.97
622,B3,112.0,2.0,38,72.97
623,E3,112.0,2.0,32,72.97
624,A5,114.0,0.5,48,72.97
625,A2,114.0,333/1000,39,72.97
626,A4,114.0,1.0,35,72.97
627,C#5,114.0,1.0,35,72.97
628,A3,114.333,333/1000,39,72.97
629,A5,114.5,0.5,48,72.97
630,E4,114.667,333/1000,39,72.97
631,G#5,114.75,0.25,43,72.97
632,F#5,115.0,2.0,29,72.97
633,D5,115.0,2.0,29,72.97
634,A4,115.0,2.0,29,72.97
635,A3,115.0,2.0,26,72.97
636,D4,115.0,2.0,26,72.97
637,A5,117.0,0.5,44,72.97
638,A2,117.0,333/1000,36,72.97
639,C#5,117.0,1.0,32,72.97
640,A4,117.0,1.0,32,72.97
641,A3,117.333,333/1000,36,72.97
642,A5,117.5,0.5,44,72.97
643,E4,117.667,333/1000,36,72.97
644,E5,117.75,0.25,40,72.97
645,B4,118.0,2.0,30,72.97
646,D5,118.0,2.0,30,72.97
647,A3,118.0,2.0,26,72.97
648,F#4,118.0,2.0,26,72.97
649,A4,120.0,3.0,42,72.97
650,F#5,120.0,0.5,47,72.97
651,A2,120.0,333/1000,42,72.97
652,A3,120.333,333/1000,42,72.97
653,F#5,120.5,0.5,47,72.97
654,C#4,120.667,333/1000,39,72.97
655,C#5,121.0,1.0,39,72.97
656,A3,121.0,2.0,34,72.97
657,E-4,121.0,2.0,34,72.97
658,F#5,122.0,1.0,39,72.97
659,G#4,123.0,3.0,33,72.97
660,E5,123.0,1.0,37,72.97
661,E3,123.0,3.0,38,72.97
662,B3,123.5,0.5,30,72.97
663,B4,124.0,2.0,32,72.97
664,E4,124.0,2.0,32,72.97
665,A1,126.0,333/1000,54,72.97
666,A2,126.333,1667/1000,46,72.97
667,A3,126.5,2.5,46,72.97
668,F#4,126.5,0.5,49,72.97
669,C#3,126.667,333/1000,51,72.97
670,C#4,127.0,0.5,59,72.97
671,E-3,127.0,2.0,58,72.97
672,G#4,127.5,0.5,51,72.97
673,C#4,128.0,0.5,50,72.97
674,A2,128.0,1.0,46,72.97
675,F#4,128.5,0.5,46,72.97
676,E2,129.0,0.5,52,72.97
677,B2,129.0,0.5,52,72.97
678,G#3,129.5,0.375,58,72.97
679,E4,129.5,0.375,58,72.97
680,E3,130.0,0.375,58,72.97
681,B3,130.0,0.375,58,72.97
682,G#4,130.5,0.375,64,72.97
683,E5,130.5,0.375,64,72.97
684,E4,131.0,0.375,63,72.97
685,B4,131.0,0.375,63,72.97
686,E6,131.5,0.5,70,72.97
687,E5,131.5,0.5,70,72.97
688,G#5,131.5,0.5,70,72.97
689,E4,132.0,3.0,66,72.97
690,D5,132.0,0.5,66,72.97
691,F5,132.0,0.5,74,72.97
692,B5,132.0,0.5,74,72.97
693,B4,132.5,0.5,57,72.97
694,D6,132.5,0.5,67,72.97
695,D5,132.5,0.5,67,72.97
696,C5,133.0,0.5,61,72.97
697,F5,133.0,0.5,66,72.97
698,A5,133.0,0.5,66,72.97
699,A4,133.5,0.5,57,72.97
700,C6,133.5,0.5,64,72.97
701,C5,133.5,0.5,64,72.97
702,B4,134.0,0.5,61,72.97
703,G5,134.0,0.5,71,72.97
704,D5,134.0,0.5,71,72.97
705,G4,134.5,0.5,55,72.97
706,B5,134.5,0.5,60,72.97
707,B4,134.5,0.5,60,72.97
708,F5,135.0,0.5,76,72.97
709,C5,135.0,1.0,65,72.97
710,E4,135.0,3.0,38,72.97
711,A4,135.0,1.0,58,72.97
712,A5,135.5,0.5,63,72.97
713,B4,136.0,0.5,56,72.97
714,D5,136.0,0.5,63,72.97
715,G5,136.0,0.5,63,72.97
716,A4,136.5,0.5,53,72.97
717,F5,136.5,0.5,58,72.97
718,C5,136.5,0.5,58,72.97
719,G4,137.0,0.5,52,72.97
720,E5,137.0,0.5,56,72.97
721,B4,137.0,0.5,56,72.97
722,F4,137.5,0.5,47,72.97
723,E-5,137.5,0.5,52,72.97
724,A4,137.5,0.5,52,72.97
725,E4,138.0,0.5,44,72.97
726,G#4,138.0,0.5,50,72.97
727,E5,138.0,0.5,50,72.97
728,A3,138.5,0.5,48,72.97
729,G5,138.5,0.5,57,72.97
730,C#5,138.5,0.5,57,72.97
731,D3,139.0,0.5,46,72.97
732,C5,139.0,0.5,52,72.97
733,F#5,139.0,0.5,52,72.97
734,G2,139.5,0.5,38,72.97
735,B4,139.5,0.5,50,72.97
736,F5,139.5,0.5,50,72.97
737,C2,140.0,0.5,37,72.97
738,B-4,140.0,0.5,46,72.97
739,E5,140.0,0.5,46,72.97
740,F2,140.5,0.5,34,72.97
741,A4,140.5,0.5,46,72.97
742,E-5,140.5,0.5,46,72.97
743,E2,141.0,0.5,32,72.97
744,D5,141.0,0.5,41,72.97
745,G#4,141.0,0.5,41,72.97
746,A2,141.5,0.5,32,72.97
747,C#5,141.5,0.5,40,72.97
748,G4,141.5,0.5,40,72.97
749,D2,142.0,0.5,32,72.97
750,D5,142.0,0.5,41,72.97
751,F#4,142.0,0.5,41,72.97
752,G1,142.5,0.5,32,72.97
753,F4,142.5,0.5,40,72.97
754,B4,142.5,0.5,40,72.97
755,C2,143.0,0.5,32,72.97
756,C5,143.0,0.5,41,72.97
757,E4,143.0,0.5,41,72.97
758,A2,143.5,0.5,32,72.97
759,G4,143.5,0.5,46,72.97
760,C#5,143.5,0.5,46,72.97
761,D2,144.0,0.5,35,72.97
762,F#4,144.0,0.5,50,72.97
763,D5,144.0,0.5,50,72.97
764,G1,144.5,0.5,35,72.97
765,F4,144.5,0.5,43,72.97
766,B4,144.5,0.5,43,72.97
767,C2,145.0,0.5,31,72.97
768,E4,145.0,0.5,38,72.97
769,C5,145.0,0.5,38,72.97
770,A2,145.5,0.5,31,72.97
771,C#5,145.5,0.5,32,72.97
772,G4,145.5,0.5,32,72.97
773,D2,146.0,0.5,28,72.97
774,D5,146.0,0.5,32,72.97
775,F#4,146.0,0.5,32,72.97
776,D1,146.5,0.5,28,72.97
777,B4,146.5,0.5,30,72.97
778,F4,146.5,0.5,30,72.97
779,A1,147.0,333/1000,37,72.97
780,C5,147.0,0.5,43,72.97
781,E4,147.0,0.5,43,72.97
782,A4,147.0,0.5,43,72.97
783,A2,147.333,333/1000,35,72.97
784,C5,147.5,0.5,46,72.97
785,A4,147.5,0.5,46,72.97
786,E3,147.667,333/1000,37,72.97
787,D5,148.0,2.0,30,72.97
788,F4,148.0,2.0,30,72.97
789,A4,148.0,2.0,30,72.97
790,A2,148.0,2.0,30,72.97
791,D3,148.0,2.0,30,72.97
792,A1,150.0,333/1000,32,72.97
793,C5,150.0,0.5,43,72.97
794,A4,150.0,0.5,43,72.97
795,A2,150.333,333/1000,36,72.97
796,C5,150.5,0.5,44,72.97
797,A4,150.5,0.5,44,72.97
798,E3,150.667,333/1000,38,72.97
799,G#4,151.0,2.0,32,72.97
800,D4,151.0,2.0,32,72.97
801,B4,151.0,2.0,32,72.97
802,A2,151.0,2.0,28,72.97
803,F3,151.0,2.0,28,72.97
804,A1,153.0,333/1000,33,72.97
805,F#4,153.0,0.5,42,72.97
806,A4,153.0,0.5,42,72.97
807,A2,153.333,333/1000,33,72.97
808,F#4,153.5,0.5,40,72.97
809,A4,153.5,0.5,40,72.97
810,C3,153.667,333/1000,33,72.97
811,C4,154.0,1.0,40,72.97
812,C5,154.0,1.0,40,72.97
813,A2,154.0,2.0,26,72.97
814,E-3,154.0,2.0,26,72.97
815,A4,155.0,1.0,35,72.97
816,F#4,155.0,1.0,35,72.97
817,E2,156.0,3.0,26,72.97
818,G#4,156.0,1.0,33,72.97
819,E4,156.0,1.0,33,72.97
820,B2,156.333,333/1000,27,72.97
821,E3,156.667,2333/1000,27,72.97
822,G#4,157.0,2.0,27,72.97
823,B3,157.0,2.0,27,72.97
824,B4,157.0,2.0,27,72.97
825,A1,159.0,333/1000,37,72.97
826,A4,159.0,0.5,46,72.97
827,C5,159.0,0.5,46,72.97
828,A2,159.333,333/1000,40,72.97
829,C5,159.5,0.5,50,72.97
830,A4,159.5,0.5,50,72.97
831,E3,159.667,333/1000,45,72.97
832,C#5,160.0,2.0,44,72.97
833,E4,160.0,2.0,44,72.97
834,E5,160.0,2.0,44,72.97
835,A2,160.0,2.0,38,72.97
836,A3,160.0,2.0,38,72.97
837,D2,162.0,333/1000,43,72.97
838,D5,162.0,0.5,53,72.97
839,F5,162.0,0.5,53,72.97
840,D3,162.333,333/1000,46,72.97
841,D5,162.5,0.5,57,72.97
842,F5,162.5,0.5,57,72.97
843,A3,162.667,333/1000,48,72.97
844,F#5,163.0,2.0,55,72.97
845,A4,163.0,2.0,55,72.97
846,A5,163.0,2.0,55,72.97
847,E-3,163.0,2.0,43,72.97
848,C4,163.0,2.0,43,72.97
849,C5,165.0,2.0,55,72.97
850,E2,165.0,333/1000,44,72.97
851,G5,165.0,0.5,58,72.97
852,G4,165.0,0.5,58,72.97
853,E3,165.333,333/1000,44,72.97
854,G4,165.5,0.5,58,72.97
855,G5,165.5,0.5,58,72.97
856,G3,165.667,333/1000,44,72.97
857,C4,166.0,1.5,40,72.97
858,E3,166.0,1.0,36,72.97
859,E5,166.0,1.0,58,72.97
860,G#4,166.0,1.0,58,72.97
861,F3,167.0,1.0,37,72.97
862,A4,167.0,1.0,50,72.97
863,C5,167.0,1.0,50,72.97
864,A3,167.5,0.5,32,72.97
865,E3,168.0,0.5,47,72.97
866,E4,168.0,3.0,46,72.97
867,E5,168.0,3.0,46,72.97
868,G#4,168.0,1.0,46,72.97
869,B4,168.0,1.0,46,72.97
870,E3,168.5,2.5,46,72.97
871,A4,169.0,2.0,52,72.97
872,C3,169.0,1.0,44,72.97
873,A2,170.0,1.0,46,72.97
874,B3,171.0,1.0,33,72.97
875,G#3,171.0,1.0,33,72.97
876,E3,171.0,3.0,33,72.97
877,E4,171.0,3.0,33,72.97
878,E2,171.5,0.5,35,72.97
879,A3,172.0,2.0,30,72.97
880,C2,172.0,1.0,37,72.97
881,A1,173.0,1.0,28,72.97
882,A1,174.0,333/1000,28,72.97
883,C5,174.0,0.5,36,72.97
884,A4,174.0,0.5,36,72.97
885,A2,174.333,333/1000,26,72.97
886,A4,174.5,0.5,36,72.97
887,C5,174.5,0.5,36,72.97
888,E3,174.667,333/1000,25,72.97
889,A2,175.0,333/1000,25,72.97
890,B4,175.0,0.5,39,72.97
891,D5,175.0,0.5,39,72.97
892,F4,175.0,0.5,39,72.97
893,D3,175.333,333/1000,25,72.97
894,C5,175.5,0.5,36,72.97
895,A4,175.5,0.5,36,72.97
896,F3,175.667,333/1000,25,72.97
897,A2,176.0,1.0,25,72.97
898,B4,176.0,1.0,37,72.97
899,F4,176.0,1.0,37,72.97
900,D5,176.0,1.0,37,72.97
901,A1,177.0,333/1000,25,72.97
902,A4,177.0,0.5,40,72.97
903,C5,177.0,0.5,40,72.97
904,A2,177.333,333/1000,26,72.97
905,C5,177.5,0.5,35,72.97
906,A4,177.5,0.5,35,72.97
907,E3,177.667,333/1000,27,72.97
908,A2,178.0,333/1000,28,72.97
909,G#4,178.0,0.5,40,72.97
910,D4,178.0,0.5,40,72.97
911,B4,178.0,0.5,40,72.97
912,F3,178.333,333/1000,27,72.97
913,F4,178.5,0.5,37,72.97
914,A4,178.5,0.5,37,72.97
915,D3,178.667,333/1000,27,72.97
916,A2,179.0,1.0,27,72.97
917,D4,179.0,1.0,36,72.97
918,B4,179.0,1.0,36,72.97
919,G#4,179.0,1.0,36,72.97
920,A1,180.0,333/1000,26,72.97
921,F#4,180.0,0.5,37,72.97
922,A4,180.0,0.5,37,72.97
923,A2,180.333,333/1000,28,72.97
924,F#4,180.5,0.5,36,72.97
925,A4,180.5,1.0,40,72.97
926,C3,180.667,333/1000,30,72.97
927,A2,181.0,333/1000,33,72.97
928,C4,181.0,0.5,43,72.97
929,C5,181.0,0.5,43,72.97
930,F#3,181.333,333/1000,31,72.97
931,G#4,181.5,0.5,40,72.97
932,B4,181.5,0.5,40,72.97
933,E-3,181.667,333/1000,31,72.97
934,A2,182.0,333/1000,29,72.97
935,A4,182.0,0.5,39,72.97
936,C4,182.0,0.5,39,72.97
937,C5,182.0,0.5,39,72.97
938,F#3,182.333,333/1000,29,72.97
939,F#4,182.5,0.5,38,72.97
940,A4,182.5,0.5,38,72.97
941,E-3,182.667,333/1000,29,72.97
942,E2,183.0,3.0,27,72.97
943,E4,183.0,1.0,37,72.97
944,G#4,183.0,1.0,37,72.97
945,B2,183.333,333/1000,28,72.97
946,E3,183.667,2333/1000,28,72.97
947,B3,184.0,2.0,31,72.97
948,B4,184.0,2.0,31,72.97
949,G#4,184.0,2.0,31,72.97
950,A1,186.0,333/1000,35,72.97
951,A4,186.0,0.5,43,72.97
952,C5,186.0,0.5,43,72.97
953,A2,186.333,333/1000,37,72.97
954,A4,186.5,0.5,43,72.97
955,C5,186.5,0.5,43,72.97
956,E3,186.667,333/1000,39,72.97
957,A2,187.0,333/1000,42,72.97
958,G4,187.0,1.0,49,72.97
959,C#5,187.0,1.0,49,72.97
960,E5,187.0,1.0,49,72.97
961,A3,187.333,333/1000,44,72.97
962,D3,187.667,333/1000,47,72.97
963,D4,188.0,333/1000,46,72.97
964,B4,188.0,1.0,55,72.97
965,F5,188.0,1.0,55,72.97
966,F4,188.0,1.0,55,72.97
967,A3,188.333,667/1000,48,72.97
968,A4,188.667,333/1000,50,72.97
969,E4,189.0,3.0,53,72.97
970,A3,189.0,3.0,48,72.97
971,A4,189.0,3.0,50,72.97
972,G5,189.0,3.0,68,72.97
973,C#5,189.0,3.0,68,72.97
974,D2,192.0,333/1000,42,72.97
975,F5,192.0,0.5,53,72.97
976,D5,192.0,0.5,53,72.97
977,D3,192.333,333/1000,45,72.97
978,D5,192.5,0.5,58,72.97
979,F5,192.5,0.5,58,72.97
980,A3,192.667,333/1000,49,72.97
981,D3,193.0,333/1000,52,72.97
982,F#5,193.0,0.5,68,72.97
983,A5,193.0,0.5,68,72.97
984,C5,193.0,0.5,68,72.97
985,D4,193.333,333/1000,55,72.97
986,G5,193.5,0.5,64,72.97
987,B-4,193.5,0.5,64,72.97
988,G3,193.667,333/1000,54,72.97
989,G4,194.0,333/1000,58,72.97
990,E5,194.0,0.5,67,72.97
991,C#5,194.0,0.5,67,72.97
992,B-5,194.0,0.5,67,72.97
993,D4,194.333,667/1000,58,72.97
994,A4,194.5,0.5,66,72.97
995,A5,194.5,0.5,66,72.97
996,F#5,194.5,0.5,66,72.97
997,D5,194.667,333/1000,63,72.97
998,A4,195.0,3.0,66,72.97
999,D4,195.0,1.0,58,72.97
1000,C5,195.0,3.0,76,72.97
1001,C6,195.0,3.0,76,72.97
1002,F#5,195.0,3.0,76,72.97
1003,E-4,196.0,2.0,60,72.97
1004,C5,198.0,2.0,54,72.97
1005,G4,198.0,1.0,54,72.97
1006,G5,198.0,0.5,60,72.97
1007,E2,198.0,333/1000,45,72.97
1008,E3,198.333,333/1000,45,72.97
1009,G5,198.5,0.5,60,72.97
1010,G3,198.667,333/1000,42,72.97
1011,F5,199.0,0.5,56,72.97
1012,G#4,199.0,1.0,56,72.97
1013,E3,199.0,1.0,40,72.97
1014,C4,199.333,667/1000,37,72.97
1015,E5,199.5,0.5,54,72.97
1016,D5,200.0,0.5,54,72.97
1017,A4,200.0,1.0,54,72.97
1018,F3,200.0,1.0,37,72.97
1019,A3,200.333,667/1000,37,72.97
1020,C5,200.5,0.5,50,72.97
1021,E3,201.0,0.5,37,72.97
1022,G#4,201.0,1.0,48,72.97
1023,B4,201.0,1.0,48,72.97
1024,E5,201.0,3.0,48,72.97
1025,E4,201.0,3.0,48,72.97
1026,E3,201.5,2.5,34,72.97
1027,A4,202.0,2.0,49,72.97
1028,D3,202.0,521/1000,37,72.97
1029,C3,202.5,521/1000,35,72.97
1030,B2,203.0,521/1000,38,72.97
1031,A2,203.5,0.5,34,72.97
1032,E3,204.0,3.0,32,72.97
1033,G#3,204.0,2.0,35,72.97
1034,E4,204.0,2.0,35,72.97
1035,B3,204.0,2.0,35,72.97
1036,E2,204.5,0.5,31,72.97
1037,D2,205.0,1.0,29,72.97
1038,A3,206.0,1.0,29,72.97
1039,C2,206.0,1.0,27,72.97
1040,A3,207.0,1.0,29,72.97
1041,E3,207.0,1.0,32,72.97
1042,B1,207.0,1.0,25,72.97
1043,A1,208.0,1.0,26,72.97
