,note_name,start_time,duration,velocity,tempo
0,G4,0.0,1.0,81,110.5
1,B-4,0.0,1.0,81,110.5
2,E-5,0.0,1.0,81,110.5
3,G5,0.0,1.0,81,110.5
4,E-2,0.0,1.0,65,110.5
5,B-2,0.0,1.0,65,110.5
6,E-3,0.0,1.0,65,110.5
7,F4,1.0,0.25,64,110.5
8,B-4,1.0,0.25,64,110.5
9,D5,1.0,0.25,64,110.5
10,F5,1.0,0.25,64,110.5
11,B-1,1.0,0.25,54,110.5
12,B-2,1.0,0.25,54,110.5
13,E-5,1.5,0.25,64,110.5
14,G4,1.5,0.25,64,110.5
15,B-4,1.5,0.25,64,110.5
16,G5,1.5,0.25,64,110.5
17,E-2,1.5,0.25,54,110.5
18,E-3,1.5,0.25,54,110.5
19,G#4,2.0,1.0,81,110.5
20,C5,2.0,1.0,81,110.5
21,G#5,2.0,1.0,81,110.5
22,E-5,2.0,1.0,81,110.5
23,G#1,2.0,1.0,66,110.5
24,G#2,2.0,1.0,66,110.5
25,E-5,3.0,0.25,64,110.5
26,B-4,3.0,0.25,64,110.5
27,G4,3.0,0.25,64,110.5
28,G5,3.0,0.25,64,110.5
29,E-2,3.0,0.25,52,110.5
30,E-3,3.0,0.25,52,110.5
31,F4,3.5,0.25,65,110.5
32,C5,3.5,0.25,65,110.5
33,F5,3.5,0.25,65,110.5
34,E-5,3.5,0.25,65,110.5
35,G#1,3.5,0.25,52,110.5
36,G#2,3.5,0.25,52,110.5
37,B-4,4.0,1.0,77,110.5
38,G4,4.0,1.0,77,110.5
39,E-5,4.0,1.0,77,110.5
40,G5,4.0,1.0,77,110.5
41,E-2,4.0,1.0,65,110.5
42,B-2,4.0,1.0,65,110.5
43,E-3,4.0,1.0,65,110.5
44,F4,5.0,0.25,62,110.5
45,F5,5.0,0.25,62,110.5
46,G#4,5.0,0.25,62,110.5
47,D5,5.0,0.25,62,110.5
48,B-1,5.0,0.25,50,110.5
49,B-2,5.0,0.25,50,110.5
50,G4,5.5,0.25,58,110.5
51,E-4,5.5,0.25,58,110.5
52,B-4,5.5,0.25,58,110.5
53,E-5,5.5,0.25,58,110.5
54,E-1,5.5,0.25,50,110.5
55,E-2,5.5,0.25,50,110.5
56,F4,6.0,0.25,63,110.5
57,D5,6.0,0.25,63,110.5
58,F5,6.0,0.25,63,110.5
59,B-1,6.0,0.25,50,110.5
60,B-2,6.0,0.25,50,110.5
61,B-4,6.5,0.25,63,110.5
62,B-3,6.5,0.25,50,110.5
63,B-2,6.5,0.25,50,110.5
64,E-4,7.0,1.0,73,110.5
65,C5,7.0,1.0,73,110.5
66,E-5,7.0,1.0,73,110.5
67,E-2,7.0,1.0,61,110.5
68,E-3,7.0,1.0,61,110.5
69,E-4,8.0,1.0,70,110.5
70,E-5,8.0,1.0,70,110.5
71,B-4,8.0,1.0,70,110.5
72,D5,8.0,1.0,70,110.5
73,D4,8.0,1.0,58,110.5
74,B-3,8.0,1.0,58,110.5
75,E-3,8.0,1.0,58,110.5
76,G#4,9.0,0.875,69,110.5
77,E-4,9.0,0.875,69,110.5
78,C5,9.0,0.875,69,110.5
79,E-5,9.0,0.875,69,110.5
80,E-3,9.0,0.875,59,110.5
81,G#3,9.0,0.875,59,110.5
82,C4,9.0,0.875,59,110.5
83,E-4,10.0,1.0,69,110.5
84,E-5,10.0,1.0,69,110.5
85,G4,10.0,1.0,69,110.5
86,B-4,10.0,1.0,69,110.5
87,E-2,10.0,1.0,55,110.5
88,B-2,10.0,1.0,55,110.5
89,E-3,10.0,1.0,55,110.5
90,D4,11.0,0.25,64,110.5
91,F4,11.0,0.25,64,110.5
92,B-4,11.0,0.25,64,110.5
93,D5,11.0,0.25,64,110.5
94,B-1,11.0,0.25,52,110.5
95,B-2,11.0,0.25,52,110.5
96,E-5,11.5,0.25,64,110.5
97,B-4,11.5,0.25,64,110.5
98,E-4,11.5,0.25,64,110.5
99,G4,11.5,0.25,64,110.5
100,E-2,11.5,0.25,52,110.5
101,E-3,11.5,0.25,52,110.5
102,C5,12.0,1.0,74,110.5
103,E-5,12.0,1.0,74,110.5
104,G5,12.0,1.0,74,110.5
105,G4,12.0,1.0,74,110.5
106,C2,12.0,1.0,63,110.5
107,C3,12.0,1.0,63,110.5
108,F5,13.0,0.25,63,110.5
109,F4,13.0,0.25,63,110.5
110,G#4,13.0,0.25,63,110.5
111,C5,13.0,0.25,63,110.5
112,F2,13.0,0.25,50,110.5
113,F3,13.0,0.25,50,110.5
114,E-4,13.5,0.25,63,110.5
115,G4,13.5,0.25,63,110.5
116,C5,13.5,0.25,63,110.5
117,E-5,13.5,0.25,63,110.5
118,C2,13.5,0.25,50,110.5
119,C3,13.5,0.25,50,110.5
120,B-4,14.0,1.0,71,110.5
121,D5,14.0,1.0,71,110.5
122,D4,14.0,1.0,71,110.5
123,G4,14.0,1.0,71,110.5
124,G2,14.0,1.0,54,110.5
125,B-2,14.0,1.0,54,110.5
126,D3,14.0,1.0,54,110.5
127,G3,14.0,1.0,54,110.5
128,C4,15.0,0.25,66,110.5
129,E-4,15.0,0.25,66,110.5
130,G4,15.0,0.25,66,110.5
131,C5,15.0,0.25,66,110.5
132,C2,15.0,0.25,54,110.5
133,C3,15.0,0.25,54,110.5
134,B-4,15.5,0.25,64,110.5
135,B-3,15.5,0.25,64,110.5
136,D4,15.5,0.25,64,110.5
137,G4,15.5,0.25,64,110.5
138,G1,15.5,0.25,52,110.5
139,G2,15.5,0.25,52,110.5
140,A3,16.0,0.25,64,110.5
141,F#4,16.0,0.25,64,110.5
142,A4,16.0,0.25,64,110.5
143,D1,16.0,0.25,52,110.5
144,D2,16.0,0.25,52,110.5
145,D4,16.5,0.25,66,110.5
146,D3,16.5,0.25,50,110.5
147,D2,16.5,0.25,50,110.5
148,G3,17.0,1.0,72,110.5
149,G4,17.0,1.0,72,110.5
150,G1,17.0,1.0,58,110.5
151,G2,17.0,1.0,58,110.5
152,G3,18.0,1.0,70,110.5
153,F#4,18.0,1.0,70,110.5
154,G4,18.0,1.0,70,110.5
155,F#3,18.0,1.0,58,110.5
156,G2,18.0,1.0,58,110.5
157,G3,19.0,0.875,69,110.5
158,F4,19.0,0.875,69,110.5
159,G4,19.0,0.875,69,110.5
160,G2,19.0,0.875,56,110.5
161,F3,19.0,0.875,56,110.5
162,G4,20.0,1.0,81,110.5
163,G5,20.0,1.0,81,110.5
164,B-4,20.0,1.0,81,110.5
165,E-5,20.0,1.0,81,110.5
166,E-2,20.0,1.0,70,110.5
167,B-2,20.0,1.0,70,110.5
168,E-3,20.0,1.0,70,110.5
169,F5,21.0,0.25,66,110.5
170,D5,21.0,0.25,66,110.5
171,F4,21.0,0.25,66,110.5
172,B-4,21.0,0.25,66,110.5
173,B-1,21.0,0.25,52,110.5
174,B-2,21.0,0.25,52,110.5
175,G4,21.5,0.25,66,110.5
176,B-4,21.5,0.25,66,110.5
177,E-5,21.5,0.25,66,110.5
178,G5,21.5,0.25,66,110.5
179,E-2,21.5,0.25,52,110.5
180,E-3,21.5,0.25,52,110.5
181,G#5,22.0,1.0,81,110.5
182,G#4,22.0,1.0,81,110.5
183,C5,22.0,1.0,81,110.5
184,E-5,22.0,1.0,81,110.5
185,G#1,22.0,1.0,66,110.5
186,G#2,22.0,1.0,66,110.5
187,G4,23.0,0.25,66,110.5
188,B-4,23.0,0.25,66,110.5
189,E-5,23.0,0.25,66,110.5
190,G5,23.0,0.25,66,110.5
191,E-2,23.0,0.25,52,110.5
192,E-3,23.0,0.25,52,110.5
193,E-5,23.5,0.25,66,110.5
194,C5,23.5,0.25,66,110.5
195,F5,23.5,0.25,66,110.5
196,F4,23.5,0.25,66,110.5
197,G#1,23.5,0.25,52,110.5
198,G#2,23.5,0.25,52,110.5
199,G4,24.0,1.0,79,110.5
200,B-4,24.0,1.0,79,110.5
201,E-5,24.0,1.0,79,110.5
202,G5,24.0,1.0,79,110.5
203,E-2,24.0,1.0,65,110.5
204,B-2,24.0,1.0,65,110.5
205,E-3,24.0,1.0,65,110.5
206,F5,25.0,0.25,66,110.5
207,F4,25.0,0.25,66,110.5
208,G#4,25.0,0.25,66,110.5
209,D5,25.0,0.25,66,110.5
210,B-1,25.0,0.25,52,110.5
211,B-2,25.0,0.25,52,110.5
212,E-4,25.5,0.25,64,110.5
213,G4,25.5,0.25,64,110.5
214,B-4,25.5,0.25,64,110.5
215,E-5,25.5,0.25,64,110.5
216,E-1,25.5,0.25,50,110.5
217,E-2,25.5,0.25,50,110.5
218,F5,26.0,0.25,63,110.5
219,D5,26.0,0.25,63,110.5
220,F4,26.0,0.25,63,110.5
221,B-1,26.0,0.25,50,110.5
222,B-2,26.0,0.25,50,110.5
223,B-4,26.5,0.25,66,110.5
224,B-3,26.5,0.25,50,110.5
225,B-2,26.5,0.25,50,110.5
226,E-4,27.0,1.0,78,110.5
227,E-5,27.0,1.0,78,110.5
228,E-2,27.0,1.0,62,110.5
229,E-3,27.0,1.0,62,110.5
230,C#5,28.0,1.0,81,110.5
231,E-4,28.0,1.0,81,110.5
232,E-5,28.0,1.0,81,110.5
233,E-2,28.0,1.0,68,110.5
234,C#2,28.0,1.0,68,110.5
235,C#3,28.0,1.0,68,110.5
236,B4,29.0,0.938,86,110.5
237,E-4,29.0,0.938,86,110.5
238,E-5,29.0,0.938,86,110.5
239,B1,29.0,0.938,70,110.5
240,E-2,29.0,0.938,70,110.5
241,B2,29.0,0.938,70,110.5
242,E-6,30.0,1.0,93,110.5
243,B-5,30.0,1.0,93,110.5
244,E-5,30.0,1.0,93,110.5
245,F#5,30.0,1.0,93,110.5
246,B-1,30.0,1.0,74,110.5
247,E-2,30.0,1.0,74,110.5
248,F#2,30.0,1.0,74,110.5
249,B-2,30.0,1.0,74,110.5
250,F#5,31.0,0.5,86,110.5
251,B-5,31.0,0.5,86,110.5
252,D6,31.0,0.5,86,110.5
253,D5,31.0,0.5,86,110.5
254,F#2,31.0,0.5,70,110.5
255,F#3,31.0,0.5,70,110.5
256,E-6,31.5,0.5,82,110.5
257,B-5,31.5,0.5,82,110.5
258,F#5,31.5,0.5,82,110.5
259,E-5,31.5,0.5,82,110.5
260,E-2,31.5,0.5,68,110.5
261,E-3,31.5,0.5,68,110.5
262,F#5,32.0,1.0,88,110.5
263,B5,32.0,1.0,88,110.5
264,E-5,32.0,1.0,88,110.5
265,B4,32.0,1.0,88,110.5
266,B2,32.0,1.0,71,110.5
267,E-3,32.0,1.0,71,110.5
268,F#3,32.0,1.0,71,110.5
269,B3,32.0,1.0,71,110.5
270,B-5,33.0,0.5,80,110.5
271,B-4,33.0,0.5,80,110.5
272,F#5,33.0,0.5,80,110.5
273,E-5,33.0,0.5,80,110.5
274,E-2,33.0,0.5,66,110.5
275,E-3,33.0,0.5,66,110.5
276,F#5,33.5,0.5,79,110.5
277,B5,33.5,0.5,79,110.5
278,E-5,33.5,0.5,79,110.5
279,B4,33.5,0.5,79,110.5
280,B1,33.5,0.5,66,110.5
281,B2,33.5,0.5,66,110.5
282,G#5,34.0,1.0,84,110.5
283,G#4,34.0,1.0,84,110.5
284,E-5,34.0,1.0,84,110.5
285,B4,34.0,1.0,84,110.5
286,G#3,34.0,1.0,68,110.5
287,E-3,34.0,1.0,68,110.5
288,B2,34.0,1.0,68,110.5
289,G#2,34.0,1.0,68,110.5
290,G5,35.0,0.5,76,110.5
291,E-5,35.0,0.5,76,110.5
292,B4,35.0,0.5,76,110.5
293,G4,35.0,0.5,76,110.5
294,B1,35.0,0.5,62,110.5
295,B2,35.0,0.5,62,110.5
296,G#4,35.5,0.5,76,110.5
297,B4,35.5,0.5,76,110.5
298,G#5,35.5,0.5,76,110.5
299,E-5,35.5,0.5,76,110.5
300,G#1,35.5,0.5,62,110.5
301,G#2,35.5,0.5,62,110.5
302,F#4,36.0,1.0,81,110.5
303,A4,36.0,1.0,81,110.5
304,C5,36.0,1.0,81,110.5
305,F#5,36.0,1.0,81,110.5
306,E-2,36.0,1.0,64,110.5
307,A2,36.0,1.0,64,110.5
308,C3,36.0,1.0,64,110.5
309,E-3,36.0,1.0,64,110.5
310,F5,37.0,0.25,73,110.5
311,B-0,37.0,1.0,52,110.5
312,B-1,37.0,1.0,52,110.5
313,D5,37.25,0.25,61,110.5
314,B-4,37.5,0.25,63,110.5
315,A4,37.75,0.25,60,110.5
316,D5,38.0,0.25,71,110.5
317,B-0,38.0,1.0,52,110.5
318,B-1,38.0,1.0,52,110.5
319,B-4,38.25,0.25,61,110.5
320,F4,38.5,0.25,63,110.5
321,E4,38.75,0.25,61,110.5
322,B-4,39.0,0.25,70,110.5
323,B-0,39.0,1.0,51,110.5
324,B-1,39.0,1.0,51,110.5
325,F4,39.25,0.25,61,110.5
326,D4,39.5,0.25,63,110.5
327,C4,39.75,0.25,61,110.5
328,B-2,40.0,1.0,62,110.5
329,B-3,40.0,1.0,62,110.5
330,A2,41.0,1.0,44,110.5
331,B-2,41.0,1.0,44,110.5
332,B-3,41.0,1.0,44,110.5
333,G2,42.0,1.0,44,110.5
334,B-2,42.0,1.0,44,110.5
335,B-3,42.0,1.0,44,110.5
336,F2,43.0,1.0,45,110.5
337,B-2,43.0,1.0,45,110.5
338,A3,43.0,1.0,45,110.5
339,B-3,43.0,1.0,45,110.5
340,E-2,44.0,1.0,48,110.5
341,B-2,44.0,1.0,48,110.5
342,G3,44.0,1.0,48,110.5
343,B-3,44.0,1.0,48,110.5
344,C2,45.0,1.0,42,110.5
345,B-2,45.0,1.0,42,110.5
346,E-3,45.0,1.0,42,110.5
347,A3,45.0,1.0,42,110.5
348,C4,45.0,1.0,42,110.5
349,B-1,46.0,2.0,40,110.5
350,B-2,46.0,2.0,46,110.5
351,F3,46.0,2.0,46,110.5
352,B-3,46.0,2.0,46,110.5
353,D4,46.0,2.0,46,110.5
354,F6,47.0,0.25,64,110.5
355,B-0,47.0,1.0,39,110.5
356,B-1,47.0,1.0,44,110.5
357,D6,47.25,0.25,59,110.5
358,B-5,47.5,0.25,61,110.5
359,A5,47.75,0.25,60,110.5
360,D6,48.0,0.25,64,110.5
361,B-5,48.25,0.25,58,110.5
362,F5,48.5,0.25,58,110.5
363,E5,48.75,0.25,58,110.5
364,B-5,49.0,0.25,60,110.5
365,F5,49.25,0.25,56,110.5
366,D5,49.5,0.25,56,110.5
367,C5,49.75,0.25,56,110.5
368,B-4,50.0,1.0,66,110.5
369,B-1,50.0,2.0,44,110.5
370,B-0,50.0,1.0,39,110.5
371,B-1,50.0,1.0,44,110.5
372,B-2,50.0,2.0,46,110.5
373,F3,50.0,2.0,46,110.5
374,B-3,50.0,2.0,46,110.5
375,D4,50.0,2.0,46,110.5
376,B-4,51.0,1.0,64,110.5
377,G4,51.0,1.0,64,110.5
378,B-0,51.0,1.0,42,110.5
379,B-1,51.0,1.0,42,110.5
380,B-3,52.0,1.0,51,110.5
381,E-4,52.0,1.0,68,110.5
382,G4,52.0,1.0,68,110.5
383,B-4,52.0,1.0,68,110.5
384,C5,53.0,1.0,70,110.5
385,C4,53.0,1.0,70,110.5
386,E-4,53.0,1.0,70,110.5
387,G4,53.0,1.0,70,110.5
388,G3,53.0,1.0,50,110.5
389,B-3,53.0,1.0,50,110.5
390,C4,54.0,1.0,72,110.5
391,E-4,54.0,1.0,72,110.5
392,G#4,54.0,1.0,72,110.5
393,C5,54.0,1.0,72,110.5
394,E-3,54.0,1.0,52,110.5
395,G3,54.0,1.0,52,110.5
396,C5,55.0,1.0,74,110.5
397,F5,55.0,1.0,74,110.5
398,F4,55.0,1.0,74,110.5
399,G#4,55.0,1.0,74,110.5
400,C3,55.0,1.0,54,110.5
401,E-3,55.0,1.0,54,110.5
402,G3,55.0,1.0,54,110.5
403,B4,56.0,2.0,88,110.5
404,D5,56.0,2.0,88,110.5
405,D4,56.0,2.0,79,110.5
406,G4,56.0,2.0,79,110.5
407,G#2,56.0,1.0,56,110.5
408,C3,56.0,1.0,56,110.5
409,E-3,56.0,1.0,56,110.5
410,G#3,56.0,1.0,56,110.5
411,D6,57.0,0.25,57,110.5
412,F2,57.0,1.0,58,110.5
413,G#2,57.0,1.0,58,110.5
414,C3,57.0,1.0,58,110.5
415,F3,57.0,1.0,58,110.5
416,B5,57.25,0.25,53,110.5
417,G5,57.5,0.25,54,110.5
418,F#5,57.75,0.25,54,110.5
419,G2,58.0,2.0,64,110.5
420,B2,58.0,2.0,64,110.5
421,D3,58.0,2.0,64,110.5
422,G3,58.0,2.0,64,110.5
423,G1,59.0,1.0,43,110.5
424,B5,60.0,0.25,57,110.5
425,B4,60.0,1.75,88,110.5
426,D5,60.0,0.75,88,110.5
427,D4,60.0,2.0,79,110.5
428,G4,60.0,2.0,79,110.5
429,G5,60.25,0.25,54,110.5
430,D5,60.5,1.0,54,110.5
431,C#5,60.75,0.25,54,110.5
432,G5,61.0,0.25,57,110.5
433,D5,61.25,0.75,54,110.5
434,B4,61.5,0.5,55,110.5
435,A4,61.75,0.25,54,110.5
436,G4,62.0,1.0,64,110.5
437,G1,62.0,1.0,43,110.5
438,G2,62.0,2.0,64,110.5
439,B2,62.0,2.0,64,110.5
440,D3,62.0,2.0,64,110.5
441,G3,62.0,2.0,64,110.5
442,G1,63.0,1.0,43,110.5
443,F4,63.0,1.0,61,110.5
444,G4,63.0,1.0,61,110.5
445,G3,64.0,1.0,51,110.5
446,E-4,64.0,1.0,64,110.5
447,G4,64.0,1.0,64,110.5
448,F4,65.0,1.0,65,110.5
449,D4,65.0,1.0,65,110.5
450,G4,65.0,1.0,65,110.5
451,F3,65.0,1.0,51,110.5
452,G3,65.0,1.0,51,110.5
453,C4,66.0,1.0,69,110.5
454,E-4,66.0,1.0,69,110.5
455,G4,66.0,1.0,69,110.5
456,E-3,66.0,1.0,50,110.5
457,G3,66.0,1.0,50,110.5
458,A4,67.0,1.0,72,110.5
459,E-4,67.0,1.0,72,110.5
460,C4,67.0,1.0,72,110.5
461,D3,67.0,1.0,54,110.5
462,F3,67.0,1.0,54,110.5
463,G3,67.0,1.0,54,110.5
464,B-3,68.0,2.0,77,110.5
465,D4,68.0,2.0,77,110.5
466,B-4,68.0,2.0,77,110.5
467,C3,68.0,1.0,57,110.5
468,E-3,68.0,1.0,57,110.5
469,G3,68.0,1.0,57,110.5
470,F6,69.0,0.25,64,110.5
471,F2,69.0,1.0,58,110.5
472,C3,69.0,1.0,58,110.5
473,F3,69.0,1.0,58,110.5
474,D6,69.25,0.25,61,110.5
475,B-5,69.5,0.25,64,110.5
476,A5,69.75,0.25,62,110.5
477,B-2,70.0,2.0,64,110.5
478,D3,70.0,2.0,64,110.5
479,F3,70.0,2.0,64,110.5
480,B-0,71.0,1.0,42,110.5
481,B-1,71.0,1.0,42,110.5
482,D6,72.0,0.25,60,110.5
483,B-3,72.0,2.0,77,110.5
484,D4,72.0,2.0,77,110.5
485,B-4,72.0,2.0,77,110.5
486,B-5,72.25,0.25,55,110.5
487,F5,72.5,0.25,58,110.5
488,E5,72.75,0.25,54,110.5
489,B-5,73.0,0.25,58,110.5
490,F5,73.25,0.25,53,110.5
491,D5,73.5,0.25,56,110.5
492,C5,73.75,0.25,53,110.5
493,B-4,74.0,1.0,64,110.5
494,B-0,74.0,1.0,41,110.5
495,B-1,74.0,1.0,41,110.5
496,B-2,74.0,2.0,64,110.5
497,D3,74.0,2.0,64,110.5
498,F3,74.0,2.0,64,110.5
499,F#4,75.0,1.0,65,110.5
500,B-4,75.0,1.0,65,110.5
501,B-0,75.0,1.0,38,110.5
502,B-1,75.0,1.0,38,110.5
503,B-3,76.0,1.0,51,110.5
504,F#4,76.0,1.0,64,110.5
505,E-4,76.0,1.0,64,110.5
506,B-4,76.0,1.0,64,110.5
507,F#4,77.0,1.0,70,110.5
508,E-4,77.0,1.0,70,110.5
509,B4,77.0,1.0,70,110.5
510,E-5,77.0,1.0,70,110.5
511,F#3,77.0,1.0,48,110.5
512,B-3,77.0,1.0,48,110.5
513,E-4,78.0,1.0,73,110.5
514,E-5,78.0,1.0,73,110.5
515,G#4,78.0,1.0,73,110.5
516,B4,78.0,1.0,73,110.5
517,E-3,78.0,1.0,52,110.5
518,F#3,78.0,1.0,52,110.5
519,B-3,78.0,1.0,52,110.5
520,B4,79.0,1.0,84,110.5
521,G#4,79.0,1.0,84,110.5
522,E5,79.0,1.0,84,110.5
523,G#5,79.0,1.0,84,110.5
524,B2,79.0,1.0,57,110.5
525,E-3,79.0,1.0,57,110.5
526,F#3,79.0,1.0,57,110.5
527,B3,79.0,1.0,57,110.5
528,F#4,80.0,2.0,92,110.5
529,F#5,80.0,2.0,92,110.5
530,B4,80.0,2.0,92,110.5
531,E-5,80.0,2.0,92,110.5
532,G#2,80.0,1.0,60,110.5
533,B2,80.0,1.0,60,110.5
534,E-3,80.0,1.0,60,110.5
535,G#3,80.0,1.0,60,110.5
536,B5,81.0,1.0,92,110.5
537,E-6,81.0,1.0,92,110.5
538,E-5,81.0,1.0,92,110.5
539,E2,81.0,1.0,65,110.5
540,G#2,81.0,1.0,65,110.5
541,B2,81.0,1.0,65,110.5
542,E3,81.0,1.0,65,110.5
543,B-5,82.0,1.0,92,110.5
544,E-5,82.0,1.0,92,110.5
545,E-6,82.0,1.0,92,110.5
546,B2,82.0,2.0,71,110.5
547,E-3,82.0,2.0,71,110.5
548,F#3,82.0,2.0,71,110.5
549,B3,82.0,2.0,71,110.5
550,E-1,83.0,1.0,70,110.5
551,E-5,83.0,1.0,92,110.5
552,E-6,83.0,1.0,92,110.5
553,A5,83.0,1.0,92,110.5
554,F#1,83.25,0.25,67,110.5
555,B1,83.5,0.25,70,110.5
556,E-2,83.75,0.25,67,110.5
557,F#2,84.0,1.0,70,110.5
558,E-6,84.0,0.75,94,110.5
559,B-5,84.0,0.75,94,110.5
560,G5,84.0,0.75,94,110.5
561,E-5,84.0,0.75,94,110.5
562,B2,84.25,0.25,67,110.5
563,E-3,84.5,0.25,70,110.5
564,F#3,84.75,0.25,67,110.5
565,B3,85.0,1.0,70,110.5
566,B-4,85.0,0.25,68,110.5
567,F4,85.0,0.25,68,110.5
568,D5,85.0,0.25,68,110.5
569,F5,85.0,0.25,68,110.5
570,E-4,85.25,0.25,67,110.5
571,F#4,85.5,0.25,70,110.5
572,G4,85.5,0.25,68,110.5
573,G5,85.5,0.25,68,110.5
574,B-4,85.5,0.25,68,110.5
575,E-5,85.5,0.25,68,110.5
576,B4,85.75,0.25,67,110.5
577,C5,86.0,1.0,79,110.5
578,G#4,86.0,1.0,79,110.5
579,E-5,86.0,1.0,79,110.5
580,G#5,86.0,1.0,79,110.5
581,B-3,86.0,0.75,69,110.5
582,E-4,86.0,0.75,69,110.5
583,G4,86.0,0.75,69,110.5
584,B-4,86.0,0.75,69,110.5
585,G4,87.0,0.25,68,110.5
586,G5,87.0,0.25,68,110.5
587,B-4,87.0,0.25,68,110.5
588,E-5,87.0,0.25,68,110.5
589,B-3,87.0,0.25,54,110.5
590,B-2,87.0,0.25,54,110.5
591,F4,87.5,0.25,66,110.5
592,C5,87.5,0.25,66,110.5
593,F5,87.5,0.25,66,110.5
594,E-5,87.5,0.25,66,110.5
595,E-2,87.5,0.25,54,110.5
596,E-3,87.5,0.25,54,110.5
597,G5,88.0,1.0,80,110.5
598,E-5,88.0,1.0,80,110.5
599,G4,88.0,1.0,80,110.5
600,B-4,88.0,1.0,80,110.5
601,E-4,88.0,1.0,64,110.5
602,C4,88.0,1.0,64,110.5
603,G#3,88.0,1.0,64,110.5
604,E-3,88.0,1.0,64,110.5
605,F4,89.0,0.25,66,110.5
606,G#4,89.0,0.25,66,110.5
607,D5,89.0,0.25,66,110.5
608,F5,89.0,0.25,66,110.5
609,E-2,89.0,0.25,54,110.5
610,E-3,89.0,0.25,54,110.5
611,E-5,89.5,0.25,65,110.5
612,E-4,89.5,0.25,65,110.5
613,G4,89.5,0.25,65,110.5
614,B-4,89.5,0.25,65,110.5
615,G#1,89.5,0.25,54,110.5
616,G#2,89.5,0.25,54,110.5
617,F4,90.0,0.25,65,110.5
618,D5,90.0,0.25,65,110.5
619,F5,90.0,0.25,65,110.5
620,E-2,90.0,1.0,65,110.5
621,B-2,90.0,1.0,65,110.5
622,E-3,90.0,1.0,65,110.5
623,B-4,90.5,0.25,69,110.5
624,E-5,91.0,1.0,73,110.5
625,C5,91.0,1.0,73,110.5
626,E-4,91.0,1.0,73,110.5
627,B-1,91.0,0.25,54,110.5
628,B-2,91.0,0.25,54,110.5
629,E-1,91.5,0.25,52,110.5
630,E-2,91.5,0.25,52,110.5
631,E-4,92.0,1.0,74,110.5
632,B-4,92.0,1.0,74,110.5
633,D5,92.0,1.0,74,110.5
634,E-5,92.0,1.0,74,110.5
635,B-1,92.0,0.25,52,110.5
636,B-2,92.0,0.25,52,110.5
637,B-3,92.5,0.25,50,110.5
638,B-2,92.5,0.25,50,110.5
639,E-5,93.0,1.0,71,110.5
640,E-4,93.0,1.0,71,110.5
641,G#4,93.0,1.0,71,110.5
642,C5,93.0,1.0,71,110.5
643,E-2,93.0,1.0,60,110.5
644,E-3,93.0,1.0,60,110.5
645,E-4,94.0,1.0,69,110.5
646,G4,94.0,1.0,69,110.5
647,B-4,94.0,1.0,69,110.5
648,E-5,94.0,1.0,69,110.5
649,D4,94.0,1.0,58,110.5
650,B-3,94.0,1.0,58,110.5
651,E-3,94.0,1.0,58,110.5
652,D5,95.0,0.25,71,110.5
653,F4,95.0,0.25,71,110.5
654,B-4,95.0,0.25,71,110.5
655,D4,95.0,0.25,71,110.5
656,E-3,95.0,1.0,57,110.5
657,G#3,95.0,1.0,57,110.5
658,C4,95.0,1.0,57,110.5
659,E-4,95.5,0.25,71,110.5
660,G4,95.5,0.25,71,110.5
661,B-4,95.5,0.25,71,110.5
662,E-5,95.5,0.25,71,110.5
663,G4,96.0,1.0,75,110.5
664,C5,96.0,1.0,75,110.5
665,E-5,96.0,1.0,75,110.5
666,G5,96.0,1.0,75,110.5
667,E-2,96.0,1.0,55,110.5
668,B-2,96.0,1.0,55,110.5
669,E-3,96.0,1.0,55,110.5
670,F4,97.0,0.25,70,110.5
671,G#4,97.0,0.25,70,110.5
672,C5,97.0,0.25,70,110.5
673,F5,97.0,0.25,70,110.5
674,B-1,97.0,0.25,56,110.5
675,B-2,97.0,0.25,56,110.5
676,C5,97.5,0.25,70,110.5
677,E-5,97.5,0.25,70,110.5
678,E-4,97.5,0.25,70,110.5
679,G4,97.5,0.25,70,110.5
680,E-2,97.5,0.25,56,110.5
681,E-3,97.5,0.25,56,110.5
682,D4,98.0,1.0,73,110.5
683,G4,98.0,1.0,73,110.5
684,B-4,98.0,1.0,73,110.5
685,D5,98.0,1.0,73,110.5
686,C2,98.0,1.0,61,110.5
687,C3,98.0,1.0,61,110.5
688,G4,99.0,0.25,66,110.5
689,C4,99.0,0.25,66,110.5
690,E-4,99.0,0.25,66,110.5
691,C5,99.0,0.25,66,110.5
692,F2,99.0,0.25,54,110.5
693,F3,99.0,0.25,54,110.5
694,B-3,99.5,0.25,64,110.5
695,D4,99.5,0.25,64,110.5
696,B-4,99.5,0.25,64,110.5
697,G4,99.5,0.25,64,110.5
698,C2,99.5,0.25,54,110.5
699,C3,99.5,0.25,54,110.5
700,A4,100.0,0.25,65,110.5
701,F#4,100.0,0.25,65,110.5
702,A3,100.0,0.25,65,110.5
703,G2,100.0,1.0,58,110.5
704,D3,100.0,1.0,58,110.5
705,G3,100.0,1.0,58,110.5
706,D4,100.5,0.25,68,110.5
707,G3,101.0,1.0,62,110.5
708,G4,101.0,1.0,62,110.5
709,C2,101.0,0.25,54,110.5
710,C3,101.0,0.25,54,110.5
711,G1,101.5,0.25,54,110.5
712,G2,101.5,0.25,54,110.5
713,G4,102.0,1.0,73,110.5
714,G3,102.0,1.0,73,110.5
715,F#4,102.0,1.0,73,110.5
716,D1,102.0,0.25,52,110.5
717,D2,102.0,0.25,52,110.5
718,D3,102.5,0.25,50,110.5
719,D2,102.5,0.25,50,110.5
720,G3,103.0,0.75,72,110.5
721,F4,103.0,0.75,72,110.5
722,G4,103.0,0.75,72,110.5
723,G1,103.0,1.0,50,110.5
724,G2,103.0,1.0,50,110.5
725,G5,104.0,1.0,68,110.5
726,E-5,104.0,1.0,68,110.5
727,G4,104.0,1.0,68,110.5
728,B-4,104.0,1.0,68,110.5
729,F#3,104.0,1.0,58,110.5
730,G2,104.0,1.0,58,110.5
731,F4,105.0,0.25,64,110.5
732,B-4,105.0,0.25,64,110.5
733,D5,105.0,0.25,64,110.5
734,F5,105.0,0.25,64,110.5
735,G2,105.0,0.75,56,110.5
736,F3,105.0,0.75,56,110.5
737,G5,105.5,0.25,65,110.5
738,G4,105.5,0.25,65,110.5
739,B-4,105.5,0.25,65,110.5
740,E-5,105.5,0.25,65,110.5
741,G#4,106.0,1.0,68,110.5
742,C5,106.0,1.0,68,110.5
743,E-5,106.0,1.0,68,110.5
744,G#5,106.0,1.0,68,110.5
745,E-2,106.0,1.0,53,110.5
746,B-2,106.0,1.0,53,110.5
747,E-3,106.0,1.0,53,110.5
748,E-5,107.0,0.25,65,110.5
749,G5,107.0,0.25,65,110.5
750,G4,107.0,0.25,65,110.5
751,B-4,107.0,0.25,65,110.5
752,B-1,107.0,0.25,50,110.5
753,B-2,107.0,0.25,50,110.5
754,F4,107.5,0.25,58,110.5
755,C5,107.5,0.25,58,110.5
756,F5,107.5,0.25,58,110.5
757,E-5,107.5,0.25,58,110.5
758,E-2,107.5,0.25,54,110.5
759,E-3,107.5,0.25,54,110.5
760,E-5,108.0,1.0,62,110.5
761,G4,108.0,1.0,62,110.5
762,B-4,108.0,1.0,62,110.5
763,G5,108.0,1.0,62,110.5
764,G#1,108.0,1.0,56,110.5
765,G#2,108.0,1.0,56,110.5
766,F4,109.0,0.25,69,110.5
767,G#4,109.0,0.25,69,110.5
768,F5,109.0,0.25,69,110.5
769,D5,109.0,0.25,69,110.5
770,E-2,109.0,0.25,52,110.5
771,E-3,109.0,0.25,52,110.5
772,B-4,109.5,0.25,65,110.5
773,G4,109.5,0.25,65,110.5
774,E-4,109.5,0.25,65,110.5
775,E-5,109.5,0.25,65,110.5
776,G#1,109.5,0.25,50,110.5
777,G#2,109.5,0.25,50,110.5
778,F4,110.0,0.25,70,110.5
779,D5,110.0,0.25,70,110.5
780,F5,110.0,0.25,70,110.5
781,E-2,110.0,1.0,50,110.5
782,B-2,110.0,1.0,50,110.5
783,E-3,110.0,1.0,50,110.5
784,B-4,110.5,0.25,71,110.5
785,E-5,111.0,1.0,65,110.5
786,E-4,111.0,1.0,65,110.5
787,B-1,111.0,0.25,54,110.5
788,B-2,111.0,0.25,54,110.5
789,E-3,111.5,0.25,52,110.5
790,E-2,111.5,0.25,52,110.5
791,D5,112.0,1.0,70,110.5
792,E-4,112.0,1.0,70,110.5
793,E-5,112.0,1.0,70,110.5
794,B-1,112.0,0.25,52,110.5
795,B-2,112.0,0.25,52,110.5
796,B-3,112.5,0.25,54,110.5
797,B-2,112.5,0.25,54,110.5
798,E-5,113.0,1.0,75,110.5
799,E-4,113.0,1.0,75,110.5
800,C5,113.0,1.0,75,110.5
801,E-2,113.0,1.0,52,110.5
802,E-3,113.0,1.0,52,110.5
803,E-6,114.0,1.0,93,110.5
804,G6,114.0,1.0,93,110.5
805,C6,114.0,1.0,93,110.5
806,G5,114.0,1.0,93,110.5
807,E-2,114.0,1.0,57,110.5
808,D2,114.0,1.0,57,110.5
809,D3,114.0,1.0,57,110.5
810,D6,115.0,0.25,90,110.5
811,B5,115.0,0.25,90,110.5
812,D5,115.0,0.25,90,110.5
813,C2,115.0,1.0,60,110.5
814,E-2,115.0,1.0,60,110.5
815,C3,115.0,1.0,60,110.5
816,C6,115.5,0.25,82,110.5
817,E-6,115.5,0.25,82,110.5
818,E-5,115.5,0.25,82,110.5
819,B5,116.0,1.0,84,110.5
820,G#5,116.0,1.0,84,110.5
821,B4,116.0,1.0,84,110.5
822,E-5,116.0,1.0,84,110.5
823,G1,116.0,1.0,74,110.5
824,C2,116.0,1.0,74,110.5
825,E-2,116.0,1.0,74,110.5
826,G2,116.0,1.0,74,110.5
827,E-5,117.0,0.25,81,110.5
828,G#5,117.0,0.25,81,110.5
829,C6,117.0,0.25,81,110.5
830,C5,117.0,0.25,81,110.5
831,E-2,117.0,0.25,70,110.5
832,E-3,117.0,0.25,70,110.5
833,G5,117.5,0.25,81,110.5
834,E5,117.5,0.25,81,110.5
835,G4,117.5,0.25,81,110.5
836,C3,117.5,0.25,70,110.5
837,C2,117.5,0.25,70,110.5
838,C5,118.0,1.0,82,110.5
839,G#5,118.0,1.0,82,110.5
840,F5,118.0,1.0,82,110.5
841,G#4,118.0,1.0,82,110.5
842,G#2,118.0,1.0,72,110.5
843,E-3,118.0,1.0,72,110.5
844,G#3,118.0,1.0,72,110.5
845,E5,119.0,0.5,80,110.5
846,C#5,119.0,0.5,80,110.5
847,E-4,119.0,0.5,80,110.5
848,C2,119.0,0.25,66,110.5
849,C3,119.0,0.25,66,110.5
850,D5,119.5,0.5,77,110.5
851,F5,119.5,0.5,77,110.5
852,F4,119.5,0.5,77,110.5
853,G#1,119.5,0.25,66,110.5
854,G#2,119.5,0.25,66,110.5
855,E-5,120.0,1271/1000,88,110.5
856,A4,120.0,2.0,82,110.5
857,F#4,120.0,2.0,82,110.5
858,E-4,120.0,2.0,82,110.5
859,F3,120.0,1.0,69,110.5
860,C3,120.0,1.0,69,110.5
861,G#2,120.0,1.0,69,110.5
862,F2,120.0,1.0,69,110.5
863,G#1,121.0,0.5,62,110.5
864,G#2,121.0,0.5,62,110.5
865,D5,121.25,271/1000,78,110.5
866,C5,121.5,271/1000,76,110.5
867,F1,121.5,0.5,62,110.5
868,F2,121.5,0.5,62,110.5
869,B4,121.75,0.25,78,110.5
870,F#4,122.0,0.375,67,110.5
871,C4,122.0,0.375,67,110.5
872,E-4,122.0,0.375,67,110.5
873,C5,122.0,0.375,67,110.5
874,C3,122.0,1.0,65,110.5
875,E-3,122.0,1.0,65,110.5
876,F#3,122.0,1.0,65,110.5
877,A3,122.0,1.0,65,110.5
878,C4,122.0,1.0,65,110.5
879,B3,123.0,0.375,64,110.5
880,D4,123.0,0.375,64,110.5
881,G4,123.0,0.375,64,110.5
882,G1,123.0,0.5,66,110.5
883,G2,123.0,0.5,66,110.5
884,C4,124.0,2.0,64,110.5
885,C3,124.0,2.0,58,110.5
886,G1,124.0,0.375,56,110.5
887,G2,124.0,0.375,56,110.5
888,G1,125.0,0.375,52,110.5
889,G2,125.0,0.375,52,110.5
890,C4,126.0,2.0,64,110.5
891,D3,126.0,2.0,50,110.5
892,D4,126.0,2.0,50,110.5
893,G#1,126.0,2.0,48,110.5
894,C2,126.0,2.0,48,110.5
895,G#2,126.0,2.0,48,110.5
896,E-4,128.0,2.0,42,110.5
897,C5,128.0,2.0,42,110.5
898,E-5,128.0,2.0,42,110.5
899,G#1,130.0,2.0,48,110.5
900,C2,130.0,2.0,48,110.5
901,G#2,130.0,2.0,48,110.5
902,E-4,132.0,2.0,42,110.5
903,C5,132.0,2.0,42,110.5
904,E-5,132.0,2.0,42,110.5
905,C4,132.0,2.0,33,110.5
906,G#3,132.0,2.0,33,110.5
907,E-3,132.0,2.0,33,110.5
908,C4,134.0,333/1000,41,110.5
909,E-3,134.0,333/1000,41,110.5
910,G3,134.333,333/1000,41,110.5
911,E-3,134.667,333/1000,38,110.5
912,C4,134.667,333/1000,38,110.5
913,D3,135.0,1.0,35,110.5
914,D4,135.0,1.0,35,110.5
915,G3,135.0,1.0,35,110.5
916,C4,135.979,1979/1000,33,110.5
917,G#3,135.979,1979/1000,33,110.5
918,E-3,135.979,1979/1000,33,110.5
919,E-3,136.0,333/1000,41,110.5
920,E-4,136.0,333/1000,41,110.5
921,G3,136.333,333/1000,41,110.5
922,E-3,136.667,333/1000,38,110.5
923,E-4,136.667,333/1000,38,110.5
924,D3,137.0,1.0,36,110.5
925,G3,137.0,1.0,36,110.5
926,D4,137.0,1.0,36,110.5
927,C2,137.979,1.0,27,110.5
928,C3,137.979,333/1000,33,110.5
929,G3,138.0,333/1000,44,110.5
930,G4,138.0,333/1000,44,110.5
931,G2,138.312,333/1000,33,110.5
932,E-4,138.333,333/1000,44,110.5
933,C3,138.646,333/1000,33,110.5
934,F3,138.667,333/1000,40,110.5
935,F4,138.667,333/1000,40,110.5
936,C2,138.979,1.0,28,110.5
937,G2,138.979,1.0,28,110.5
938,D4,139.0,1.0,46,110.5
939,C2,139.979,1.0,27,110.5
940,C3,139.979,333/1000,33,110.5
941,C4,140.0,333/1000,40,110.5
942,E-3,140.0,333/1000,40,110.5
943,G2,140.312,333/1000,33,110.5
944,G3,140.333,333/1000,41,110.5
945,C3,140.646,333/1000,33,110.5
946,C#3,140.667,333/1000,38,110.5
947,C#4,140.667,333/1000,38,110.5
948,C2,140.979,1.0,28,110.5
949,G2,140.979,1.0,28,110.5
950,B-3,141.0,1.0,45,110.5
951,C2,141.979,1.0,29,110.5
952,E-3,141.979,333/1000,35,110.5
953,C4,142.0,333/1000,43,110.5
954,C5,142.0,333/1000,43,110.5
955,G2,142.312,333/1000,35,110.5
956,G#4,142.333,333/1000,45,110.5
957,D3,142.646,333/1000,35,110.5
958,B-3,142.667,333/1000,40,110.5
959,B-4,142.667,333/1000,40,110.5
960,C2,142.979,1.0,32,110.5
961,G2,142.979,1.0,32,110.5
962,G4,142.992,1.0,41,110.5
963,C2,143.979,1.0,27,110.5
964,C3,143.979,333/1000,33,110.5
965,C4,144.0,333/1000,43,110.5
966,C5,144.0,333/1000,43,110.5
967,G2,144.312,333/1000,33,110.5
968,G#4,144.333,333/1000,44,110.5
969,B-2,144.646,333/1000,33,110.5
970,B-3,144.667,333/1000,42,110.5
971,B-4,144.667,333/1000,42,110.5
972,G2,144.979,1.0,30,110.5
973,C2,144.979,1.0,30,110.5
974,G4,145.0,333/1000,44,110.5
975,G#3,145.333,333/1000,41,110.5
976,G#4,145.333,333/1000,41,110.5
977,F4,145.667,333/1000,41,110.5
978,C2,145.979,667/1000,35,110.5
979,G#2,145.996,333/1000,35,110.5
980,F#3,146.0,333/1000,40,110.5
981,F#4,146.0,333/1000,40,110.5
982,C3,146.312,333/1000,35,110.5
983,E-4,146.333,333/1000,41,110.5
984,G2,146.646,333/1000,33,110.5
985,C2,146.646,1333/1000,33,110.5
986,F#4,146.667,333/1000,38,110.5
987,F#3,146.667,333/1000,38,110.5
988,B-2,146.971,1.0,31,110.5
989,G3,147.0,1.0,39,110.5
990,D4,147.0,1.0,39,110.5
991,G4,147.0,1.0,39,110.5
992,C2,147.979,667/1000,31,110.5
993,G#2,147.979,333/1000,38,110.5
994,A4,148.0,333/1000,40,110.5
995,A3,148.0,333/1000,40,110.5
996,C3,148.312,333/1000,35,110.5
997,E-4,148.333,333/1000,42,110.5
998,C2,148.646,667/1000,29,110.5
999,G2,148.646,333/1000,35,110.5
1000,A4,148.667,333/1000,39,110.5
1001,A3,148.667,333/1000,39,110.5
1002,B-2,148.979,333/1000,34,110.5
1003,G3,149.0,1.0,39,110.5
1004,D4,149.0,1.0,39,110.5
1005,G4,149.0,1.0,39,110.5
1006,C2,149.312,667/1000,26,110.5
1007,F2,149.312,333/1000,35,110.5
1008,G#2,149.646,333/1000,31,110.5
1009,C2,149.979,1.0,29,110.5
1010,E-2,149.988,333/1000,35,110.5
1011,C4,150.0,333/1000,52,110.5
1012,C5,150.0,333/1000,52,110.5
1013,G#2,150.312,333/1000,33,110.5
1014,G4,150.333,333/1000,48,110.5
1015,E-2,150.654,333/1000,33,110.5
1016,C4,150.667,333/1000,48,110.5
1017,C5,150.667,333/1000,48,110.5
1018,G1,150.979,1.0,32,110.5
1019,G2,150.979,1.0,32,110.5
1020,D4,151.0,1.0,48,110.5
1021,G4,151.0,1.0,48,110.5
1022,D5,151.0,1.0,48,110.5
1023,C2,151.979,1.0,29,110.5
1024,E-2,151.979,333/1000,35,110.5
1025,E5,152.0,333/1000,61,110.5
1026,E4,152.0,333/1000,61,110.5
1027,A2,152.312,333/1000,34,110.5
1028,G4,152.333,333/1000,57,110.5
1029,E-2,152.646,333/1000,34,110.5
1030,E4,152.667,333/1000,56,110.5
1031,E5,152.667,333/1000,56,110.5
1032,G1,152.979,1.0,32,110.5
1033,G2,152.979,1.0,32,110.5
1034,D5,153.0,1.0,61,110.5
1035,G4,153.0,1.0,61,110.5
1036,D4,153.0,1.0,61,110.5
1037,E3,153.979,333/1000,41,110.5
1038,C2,153.979,1.0,41,110.5
1039,G5,154.0,333/1000,66,110.5
1040,G4,154.0,333/1000,66,110.5
1041,G2,154.312,333/1000,38,110.5
1042,E5,154.333,333/1000,61,110.5
1043,E3,154.646,333/1000,38,110.5
1044,F4,154.667,333/1000,61,110.5
1045,F5,154.667,333/1000,61,110.5
1046,D3,154.979,1.0,37,110.5
1047,G3,154.979,1.0,37,110.5
1048,G2,154.979,1.0,37,110.5
1049,C3,154.979,1.0,37,110.5
1050,D4,155.0,1.0,60,110.5
1051,D5,155.0,1.0,60,110.5
1052,G4,155.0,1.0,60,110.5
1053,C2,155.979,1.0,48,110.5
1054,C3,155.979,333/1000,48,110.5
1055,E4,156.0,333/1000,78,110.5
1056,E5,156.0,333/1000,78,110.5
1057,G2,156.312,333/1000,44,110.5
1058,C5,156.333,333/1000,71,110.5
1059,C3,156.646,333/1000,44,110.5
1060,D4,156.667,333/1000,71,110.5
1061,D5,156.667,333/1000,71,110.5
1062,G3,156.979,1.0,39,110.5
1063,D3,156.979,1.0,39,110.5
1064,C3,156.979,1.0,39,110.5
1065,G2,156.979,1.0,39,110.5
1066,B-4,157.0,1.0,71,110.5
1067,E4,157.0,1.0,71,110.5
1068,B-3,157.0,1.0,71,110.5
1069,C2,157.979,1.0,52,110.5
1070,E3,157.979,333/1000,52,110.5
1071,C6,158.0,333/1000,83,110.5
1072,C5,158.0,333/1000,83,110.5
1073,G2,158.312,333/1000,48,110.5
1074,F5,158.333,167/1000,73,110.5
1075,A5,158.333,167/1000,73,110.5
1076,D3,158.646,333/1000,48,110.5
1077,C5,158.667,0.25,73,110.5
1078,C6,158.667,0.25,73,110.5
1079,G2,158.979,1.0,46,110.5
1080,C3,158.979,1.0,46,110.5
1081,D3,158.979,1.0,46,110.5
1082,G3,158.979,1.0,46,110.5
1083,E5,159.0,1.0,74,110.5
1084,G5,159.0,1.0,74,110.5
1085,C2,159.979,1.0,54,110.5
1086,C3,159.979,333/1000,60,110.5
1087,A4,160.0,333/1000,81,110.5
1088,A5,160.0,333/1000,81,110.5
1089,G2,160.312,333/1000,53,110.5
1090,D5,160.333,167/1000,73,110.5
1091,F5,160.333,167/1000,73,110.5
1092,B-2,160.646,333/1000,53,110.5
1093,A4,160.667,167/1000,73,110.5
1094,A5,160.667,167/1000,73,110.5
1095,G3,160.979,1.0,53,110.5
1096,C3,160.979,1.0,53,110.5
1097,G2,160.979,1.0,53,110.5
1098,C5,161.0,1.0,74,110.5
1099,E5,161.0,1.0,74,110.5
1100,C2,161.979,333/1000,59,110.5
1101,F2,161.979,333/1000,59,110.5
1102,A2,161.979,333/1000,59,110.5
1103,G5,162.0,333/1000,80,110.5
1104,G4,162.0,333/1000,80,110.5
1105,C3,162.312,167/1000,52,110.5
1106,C5,162.333,333/1000,64,110.5
1107,E5,162.333,333/1000,64,110.5
1108,G3,162.646,1333/1000,50,110.5
1109,C3,162.646,1333/1000,50,110.5
1110,E3,162.646,1333/1000,50,110.5
1111,G4,162.667,333/1000,78,110.5
1112,G5,162.667,333/1000,78,110.5
1113,C4,162.979,1.0,64,110.5
1114,F5,163.0,333/1000,61,110.5
1115,D5,163.0,333/1000,61,110.5
1116,G5,163.333,333/1000,73,110.5
1117,G4,163.333,333/1000,73,110.5
1118,C5,163.667,333/1000,56,110.5
1119,E5,163.667,333/1000,56,110.5
1120,D2,163.979,333/1000,59,110.5
1121,F2,163.979,333/1000,59,110.5
1122,A2,163.979,333/1000,59,110.5
1123,G4,164.0,333/1000,78,110.5
1124,G5,164.0,333/1000,78,110.5
1125,D3,164.312,167/1000,62,110.5
1126,A4,164.333,333/1000,62,110.5
1127,C5,164.333,333/1000,62,110.5
1128,A2,164.646,1333/1000,50,110.5
1129,C3,164.646,1333/1000,50,110.5
1130,E3,164.646,1333/1000,50,110.5
1131,G4,164.667,333/1000,73,110.5
1132,G5,164.667,333/1000,73,110.5
1133,A3,164.979,1.0,63,110.5
1134,G4,165.0,1.0,65,110.5
1135,B4,165.0,1.0,65,110.5
1136,G5,165.0,1.0,65,110.5
1137,D5,165.0,1.0,65,110.5
1138,G1,165.979,333/1000,67,110.5
1139,C5,166.0,333/1000,82,110.5
1140,C6,166.0,333/1000,82,110.5
1141,G2,166.312,333/1000,52,110.5
1142,G5,166.333,333/1000,64,110.5
1143,B5,166.333,333/1000,64,110.5
1144,E3,166.646,333/1000,59,110.5
1145,C3,166.646,333/1000,59,110.5
1146,C5,166.667,333/1000,73,110.5
1147,C6,166.667,333/1000,73,110.5
1148,G2,166.979,333/1000,46,110.5
1149,G3,166.979,333/1000,46,110.5
1150,F5,167.0,333/1000,57,110.5
1151,A5,167.0,333/1000,57,110.5
1152,D3,167.312,333/1000,57,110.5
1153,F3,167.312,333/1000,57,110.5
1154,C6,167.333,333/1000,72,110.5
1155,C5,167.333,333/1000,72,110.5
1156,G2,167.646,333/1000,44,110.5
1157,G3,167.646,333/1000,44,110.5
1158,E5,167.667,333/1000,57,110.5
1159,G5,167.667,333/1000,57,110.5
1160,C3,167.979,333/1000,62,110.5
1161,E3,167.979,333/1000,62,110.5
1162,A4,168.0,333/1000,78,110.5
1163,A5,168.0,333/1000,78,110.5
1164,G2,168.312,333/1000,48,110.5
1165,G3,168.312,333/1000,48,110.5
1166,G5,168.333,333/1000,64,110.5
1167,E5,168.333,333/1000,64,110.5
1168,A2,168.646,333/1000,57,110.5
1169,C3,168.646,333/1000,57,110.5
1170,A5,168.667,333/1000,73,110.5
1171,A4,168.667,333/1000,73,110.5
1172,G2,168.979,1.0,54,110.5
1173,B2,168.979,1.0,54,110.5
1174,D3,168.979,1.0,54,110.5
1175,G3,168.979,1.0,54,110.5
1176,D5,169.0,333/1000,58,110.5
1177,F5,169.0,333/1000,58,110.5
1178,A4,169.333,333/1000,74,110.5
1179,A5,169.333,333/1000,74,110.5
1180,E5,169.667,333/1000,56,110.5
1181,C5,169.667,333/1000,56,110.5
1182,C2,169.979,333/1000,62,110.5
1183,G4,170.0,333/1000,81,110.5
1184,G5,170.0,333/1000,81,110.5
1185,C3,170.312,333/1000,58,110.5
1186,D5,170.333,333/1000,64,110.5
1187,F5,170.333,333/1000,64,110.5
1188,A3,170.646,1.0,52,110.5
1189,F3,170.646,1.0,52,110.5
1190,G5,170.667,333/1000,78,110.5
1191,G4,170.667,333/1000,78,110.5
1192,C3,170.979,1.0,48,110.5
1193,C4,170.979,1.0,48,110.5
1194,C5,171.0,333/1000,61,110.5
1195,E5,171.0,333/1000,61,110.5
1196,G4,171.333,333/1000,76,110.5
1197,G5,171.333,333/1000,76,110.5
1198,E3,171.646,333/1000,51,110.5
1199,G3,171.646,333/1000,51,110.5
1200,A4,171.667,333/1000,61,110.5
1201,C5,171.667,333/1000,61,110.5
1202,A1,171.979,333/1000,58,110.5
1203,G5,172.0,1.0,72,110.5
1204,G4,172.0,1.0,72,110.5
1205,B4,172.0,1.0,72,110.5
1206,D5,172.0,1.0,72,110.5
1207,A2,172.312,333/1000,58,110.5
1208,F3,172.646,1.0,54,110.5
1209,D3,172.646,1.0,54,110.5
1210,A2,172.979,1.0,48,110.5
1211,A3,172.979,1.0,48,110.5
1212,C4,173.0,0.5,78,110.5
1213,C5,173.0,0.5,78,110.5
1214,C3,173.646,333/1000,49,110.5
1215,E3,173.646,333/1000,49,110.5
1216,G1,173.979,333/1000,58,110.5
1217,C3,174.0,2.0,70,110.5
1218,C4,174.0,2.0,79,110.5
1219,G2,174.312,333/1000,52,110.5
1220,E3,174.646,333/1000,54,110.5
1221,C3,174.646,333/1000,54,110.5
1222,G2,174.979,333/1000,52,110.5
1223,G3,174.979,333/1000,52,110.5
1224,A2,175.312,333/1000,59,110.5
1225,C3,175.312,333/1000,59,110.5
1226,G2,175.646,333/1000,51,110.5
1227,G3,175.646,333/1000,51,110.5
1228,G1,175.979,1.0,40,110.5
1229,B1,175.979,1.0,40,110.5
1230,D2,175.979,1.0,40,110.5
1231,G2,175.979,1.0,40,110.5
1232,C4,176.0,2.0,79,110.5
1233,D4,176.0,2.0,58,110.5
1234,D3,176.0,2.0,58,110.5
1235,C2,176.979,0.375,54,110.5
1236,C3,176.979,0.375,54,110.5
1237,B-1,177.479,0.375,54,110.5
1238,B-2,177.479,0.375,54,110.5
1239,G#1,177.979,2.0,55,110.5
1240,C2,177.979,2.0,55,110.5
1241,G#2,177.979,2.0,55,110.5
1242,C5,178.0,2.0,46,110.5
1243,E-4,178.0,2.0,46,110.5
1244,E-5,178.0,2.0,46,110.5
1245,G#1,181.979,2.0,55,110.5
1246,C2,181.979,2.0,55,110.5
1247,G#2,181.979,2.0,55,110.5
1248,C5,182.0,2.0,46,110.5
1249,E-4,182.0,2.0,46,110.5
1250,E-5,182.0,2.0,46,110.5
1251,E-3,183.979,2.0,37,110.5
1252,G#3,183.979,2.0,37,110.5
1253,C4,183.979,2.0,37,110.5
1254,C3,184.0,1.0,41,110.5
1255,C4,184.0,2.0,47,110.5
1256,D4,185.0,1.0,46,110.5
1257,D3,185.0,1.0,46,110.5
1258,C5,186.0,2.0,52,110.5
1259,F5,186.0,1.0,50,110.5
1260,F4,186.0,1.0,50,110.5
1261,E4,187.0,1.0,48,110.5
1262,E5,187.0,1.0,48,110.5
1263,E-3,187.958,1979/1000,37,110.5
1264,G#3,187.958,1979/1000,37,110.5
1265,C4,187.958,1979/1000,37,110.5
1266,E-5,188.0,2.0,40,110.5
1267,E-6,188.0,2.0,40,110.5
1268,C6,188.0,2.0,40,110.5
1269,G#1,189.958,2.0,30,110.5
1270,C2,189.958,2.0,30,110.5
1271,G#2,189.958,2.0,30,110.5
1272,F3,191.958,1.0,37,110.5
1273,C3,191.958,2.0,37,110.5
1274,G#2,191.958,2.0,37,110.5
1275,E-5,192.0,2.0,40,110.5
1276,E-6,192.0,2.0,40,110.5
1277,C6,192.0,2.0,40,110.5
1278,E3,192.958,1.0,35,110.5
1279,C4,193.75,0.25,27,110.5
1280,E-4,193.833,167/1000,27,110.5
1281,G#4,193.917,83/1000,27,110.5
1282,E-4,193.958,2.0,26,110.5
1283,C4,193.958,2.0,26,110.5
1284,G#3,193.958,2.0,26,110.5
1285,E-3,193.958,2.0,26,110.5
1286,C5,194.0,0.5,39,110.5
1287,C4,194.0,0.5,27,110.5
1288,E-4,194.0,0.5,27,110.5
1289,G#4,194.0,0.5,27,110.5
1290,C#5,194.5,0.25,39,110.5
1291,C4,194.75,0.75,26,110.5
1292,E-4,194.817,683/1000,26,110.5
1293,G#4,194.883,617/1000,26,110.5
1294,C5,194.95,11/20,39,110.5
1295,D5,195.017,483/1000,39,110.5
1296,E-5,195.5,0.25,41,110.5
1297,G#4,195.75,0.25,28,110.5
1298,G#5,195.875,0.125,29,110.5
1299,C6,196.0,0.25,44,110.5
1300,G#4,196.0,0.25,28,110.5
1301,G#5,196.0,0.5,29,110.5
1302,G5,196.5,0.25,42,110.5
1303,G#4,196.75,0.5,28,110.5
1304,G#5,196.833,417/1000,28,110.5
1305,F5,196.917,583/1000,27,110.5
1306,C6,197.0,0.25,40,110.5
1307,E5,197.5,0.25,39,110.5
1308,G#4,197.75,0.25,26,110.5
1309,G#5,197.875,0.125,26,110.5
1310,E-4,197.958,2.0,26,110.5
1311,C4,197.958,2.0,26,110.5
1312,G#3,197.958,2.0,26,110.5
1313,E-3,197.958,2.0,26,110.5
1314,C6,198.0,0.25,26,110.5
1315,E-5,198.0,2.0,39,110.5
1316,G#4,198.0,0.25,26,110.5
1317,G#5,198.0,0.25,26,110.5
1318,G#4,198.75,0.5,24,110.5
1319,G#5,198.875,0.375,25,110.5
1320,C6,199.0,0.25,40,110.5
1321,G#1,199.708,0.25,22,110.5
1322,B-5,199.75,0.25,26,110.5
1323,G5,199.875,0.125,26,110.5
1324,G#2,199.958,0.25,27,110.5
1325,G#1,199.958,0.25,22,110.5
1326,C#5,200.0,0.5,41,110.5
1327,B-5,200.0,0.5,26,110.5
1328,G5,200.0,0.5,26,110.5
1329,C3,200.458,0.25,22,110.5
1330,C5,200.5,0.25,40,110.5
1331,G5,200.75,0.75,26,110.5
1332,G#2,200.833,0.375,17,110.5
1333,E-5,200.875,0.625,26,110.5
1334,G#3,200.958,0.25,26,110.5
1335,B-4,201.0,0.5,39,110.5
1336,C4,201.458,0.25,22,110.5
1337,C5,201.5,0.25,40,110.5
1338,G#5,201.75,0.25,25,110.5
1339,G#3,201.833,0.125,17,110.5
1340,F5,201.875,0.125,25,110.5
1341,G#4,201.958,0.25,27,110.5
1342,G#3,201.958,0.25,17,110.5
1343,C#5,202.0,0.5,42,110.5
1344,G#5,202.0,0.5,25,110.5
1345,F5,202.0,0.5,25,110.5
1346,C4,202.458,0.25,23,110.5
1347,C5,202.5,0.25,42,110.5
1348,F5,202.75,0.75,26,110.5
1349,G#2,202.833,0.375,17,110.5
1350,C#5,202.875,0.625,26,110.5
1351,G#3,202.958,0.25,27,110.5
1352,B-4,203.0,0.5,41,110.5
1353,C3,203.458,0.25,24,110.5
1354,G#4,203.5,0.25,40,110.5
1355,E-5,203.75,0.25,25,110.5
1356,G#1,203.833,0.125,16,110.5
1357,B-4,203.875,0.125,25,110.5
1358,G#2,203.958,0.25,27,110.5
1359,G#1,203.958,0.25,16,110.5
1360,G4,204.0,0.5,42,110.5
1361,E-5,204.0,0.5,25,110.5
1362,B-4,204.0,0.5,25,110.5
1363,C3,204.458,0.25,22,110.5
1364,F4,204.5,0.25,41,110.5
1365,C#5,204.75,0.75,24,110.5
1366,G#2,204.833,0.375,17,110.5
1367,B-4,204.875,0.625,24,110.5
1368,G#3,204.958,0.25,26,110.5
1369,E-4,205.0,0.5,40,110.5
1370,C4,205.458,0.25,22,110.5
1371,F4,205.5,0.25,41,110.5
1372,E-5,205.75,0.25,28,110.5
1373,G#3,205.833,0.125,16,110.5
1374,C#5,205.875,0.125,28,110.5
1375,E-4,205.958,0.25,27,110.5
1376,G#3,205.958,0.25,16,110.5
1377,G4,206.0,0.5,44,110.5
1378,E-5,206.0,0.5,28,110.5
1379,C#5,206.0,0.5,28,110.5
1380,G4,206.458,0.25,24,110.5
1381,B-4,206.5,0.25,40,110.5
1382,E-5,206.75,0.75,26,110.5
1383,G#3,206.833,0.375,15,110.5
1384,C#5,206.875,0.625,26,110.5
1385,C#4,206.958,0.25,27,110.5
1386,F4,207.0,0.5,42,110.5
1387,E-4,207.458,0.25,24,110.5
1388,G#4,207.5,0.25,38,110.5
1389,E-5,207.75,0.25,26,110.5
1390,G#3,207.833,0.125,15,110.5
1391,C5,207.875,0.125,26,110.5
1392,F4,207.958,0.25,26,110.5
1393,G#3,207.958,0.25,15,110.5
1394,E-4,208.0,0.5,40,110.5
1395,E-5,208.0,0.5,26,110.5
1396,C5,208.0,0.5,26,110.5
1397,G#4,208.458,0.25,24,110.5
1398,G4,208.5,0.25,35,110.5
1399,E-5,208.75,0.75,25,110.5
1400,G#3,208.833,0.375,16,110.5
1401,B-4,208.875,0.625,25,110.5
1402,C#4,208.958,0.25,27,110.5
1403,C#4,209.0,0.5,39,110.5
1404,F4,209.458,0.25,24,110.5
1405,F4,209.5,0.25,33,110.5
1406,G#2,209.833,0.125,16,110.5
1407,C#3,209.958,0.25,26,110.5
1408,G#2,209.958,0.25,16,110.5
1409,C4,210.0,0.5,39,110.5
1410,G#4,210.125,0.25,30,110.5
1411,C5,210.25,0.25,30,110.5
1412,E-3,210.458,0.25,24,110.5
1413,C#4,210.5,0.5,39,110.5
1414,G#2,210.708,0.5,17,110.5
1415,E-3,210.833,0.375,17,110.5
1416,G3,210.958,0.25,26,110.5
1417,D4,211.0,0.5,39,110.5
1418,G#4,211.125,0.25,30,110.5
1419,C5,211.25,0.25,30,110.5
1420,G#3,211.458,0.25,24,110.5
1421,E-4,211.5,0.5,41,110.5
1422,G#2,211.708,0.25,17,110.5
1423,E-3,211.833,0.125,17,110.5
1424,C4,211.875,0.125,31,110.5
1425,B-3,211.958,0.25,24,110.5
1426,G#2,211.958,0.25,17,110.5
1427,E-3,211.958,0.25,17,110.5
1428,C5,212.0,0.5,44,110.5
1429,C4,212.0,0.125,31,110.5
1430,E-5,212.125,0.25,33,110.5
1431,C#4,212.458,0.25,24,110.5
1432,G#4,212.5,0.5,42,110.5
1433,G#2,212.708,0.5,17,110.5
1434,E-3,212.833,0.375,17,110.5
1435,G#3,212.958,0.25,24,110.5
1436,F4,213.0,0.5,40,110.5
1437,C5,213.125,0.25,33,110.5
1438,E-5,213.25,0.25,33,110.5
1439,C4,213.458,0.25,24,110.5
1440,F#4,213.5,0.375,39,110.5
1441,G#2,213.708,0.25,17,110.5
1442,E-3,213.833,0.125,17,110.5
1443,G3,213.958,0.25,22,110.5
1444,G#2,213.958,0.25,17,110.5
1445,E-3,213.958,0.25,17,110.5
1446,G4,214.0,2.0,39,110.5
1447,C5,214.125,0.25,31,110.5
1448,E-5,214.25,0.25,31,110.5
1449,B-3,214.458,0.25,24,110.5
1450,G#2,214.708,0.5,16,110.5
1451,E-3,214.833,0.375,16,110.5
1452,G#3,214.958,0.25,22,110.5
1453,C5,215.0,0.25,31,110.5
1454,E-5,215.125,0.25,31,110.5
1455,G5,215.25,0.25,31,110.5
1456,G3,215.458,0.25,19,110.5
1457,B5,215.75,0.25,26,110.5
1458,G#2,215.833,0.125,22,110.5
1459,G5,215.875,0.125,26,110.5
1460,G#3,215.958,0.25,27,110.5
1461,G#2,215.958,0.25,22,110.5
1462,E-5,216.0,0.5,41,110.5
1463,B5,216.0,0.5,26,110.5
1464,G5,216.0,0.5,26,110.5
1465,C3,216.458,0.25,22,110.5
1466,D5,216.5,0.25,40,110.5
1467,G5,216.75,0.75,26,110.5
1468,G#1,216.833,0.375,17,110.5
1469,E-5,216.875,0.625,26,110.5
1470,G#2,216.958,0.25,26,110.5
1471,C5,217.0,0.5,39,110.5
1472,C3,217.458,0.25,22,110.5
1473,G4,217.5,0.25,40,110.5
1474,F5,217.75,0.25,25,110.5
1475,G#2,217.833,0.125,17,110.5
1476,D5,217.875,0.125,25,110.5
1477,G#3,217.958,0.25,27,110.5
1478,G#2,217.958,0.25,17,110.5
1479,B-4,218.0,0.5,42,110.5
1480,F5,218.0,0.5,25,110.5
1481,D5,218.0,0.5,25,110.5
1482,C3,218.458,0.25,23,110.5
1483,G#4,218.5,0.25,42,110.5
1484,D5,218.75,0.75,26,110.5
1485,G#1,218.833,0.375,17,110.5
1486,B4,218.875,0.625,26,110.5
1487,G#2,218.958,0.25,27,110.5
1488,G4,219.0,0.5,41,110.5
1489,C3,219.458,0.25,24,110.5
1490,F4,219.5,0.25,40,110.5
1491,B4,219.75,0.25,25,110.5
1492,G1,219.833,0.125,16,110.5
1493,G4,219.875,0.125,25,110.5
1494,G2,219.958,0.25,27,110.5
1495,G1,219.958,0.25,16,110.5
1496,E-4,220.0,0.5,42,110.5
1497,B4,220.0,0.5,25,110.5
1498,G4,220.0,0.5,25,110.5
1499,C3,220.458,0.25,22,110.5
1500,D4,220.5,0.25,41,110.5
1501,G4,220.75,0.75,24,110.5
1502,G2,220.833,0.375,17,110.5
1503,E-4,220.875,0.625,24,110.5
1504,G3,220.958,0.25,26,110.5
1505,C4,221.0,0.5,40,110.5
1506,C4,221.458,0.25,22,110.5
1507,G3,221.5,0.25,41,110.5
1508,G4,221.75,0.25,28,110.5
1509,F3,221.833,0.125,16,110.5
1510,E-4,221.875,0.125,28,110.5
1511,G3,221.958,0.25,27,110.5
1512,F3,221.958,0.25,16,110.5
1513,C4,222.0,0.5,44,110.5
1514,G4,222.0,0.5,28,110.5
1515,E-4,222.0,0.5,28,110.5
1516,B3,222.458,0.25,24,110.5
1517,B-3,222.5,0.25,40,110.5
1518,E-4,222.75,0.75,26,110.5
1519,E-3,222.833,0.375,15,110.5
1520,C4,222.875,1.125,26,110.5
1521,C4,222.958,0.25,27,110.5
1522,G#3,223.0,0.5,42,110.5
1523,E-4,223.458,0.25,24,110.5
1524,F3,223.833,0.125,15,110.5
1525,D4,223.958,0.25,26,110.5
1526,F3,223.958,0.25,15,110.5
1527,G3,224.0,1.0,39,110.5
1528,D4,224.0,2.0,39,110.5
1529,B3,224.0,2.0,39,110.5
1530,F4,224.458,0.25,24,110.5
1531,G3,224.833,0.375,16,110.5
1532,B3,224.958,0.25,27,110.5
1533,F3,225.0,1.0,38,110.5
1534,D4,225.458,0.25,24,110.5
1535,G2,225.833,0.125,16,110.5
1536,G3,225.958,0.25,26,110.5
1537,G2,225.958,0.25,16,110.5
1538,G4,226.0,1.0,30,110.5
1539,G3,226.0,1.0,30,110.5
1540,E-4,226.0,1.0,30,110.5
1541,B3,226.458,0.25,24,110.5
1542,E-2,226.833,0.375,17,110.5
1543,C3,226.958,0.25,26,110.5
1544,A3,227.0,1.0,36,110.5
1545,F#4,227.0,1.0,36,110.5
1546,A4,227.0,1.0,36,110.5
1547,E-3,227.458,0.25,24,110.5
1548,E-2,227.833,0.125,17,110.5
1549,C#3,227.958,0.25,24,110.5
1550,E-2,227.958,0.25,17,110.5
1551,B-3,228.0,2.0,39,110.5
1552,B-4,228.0,2.0,39,110.5
1553,G4,228.0,2.0,39,110.5
1554,E-3,228.458,0.25,24,110.5
1555,G#2,228.833,0.375,17,110.5
1556,C3,228.958,0.25,24,110.5
1557,E-3,229.458,0.25,24,110.5
1558,G#1,229.833,0.125,28,110.5
1559,E-2,229.958,0.25,35,110.5
1560,G#1,229.958,0.25,28,110.5
1561,G5,230.0,1.0,30,110.5
1562,E-5,230.0,1.0,30,110.5
1563,G4,230.0,1.0,30,110.5
1564,G#2,230.458,0.25,30,110.5
1565,A4,231.0,1.0,34,110.5
1566,F#5,231.0,1.0,34,110.5
1567,A5,231.0,1.0,34,110.5
1568,E-3,231.958,0.25,38,110.5
1569,B-5,232.0,2.0,30,110.5
1570,B-4,232.0,2.0,30,110.5
1571,G5,232.0,2.0,30,110.5
1572,E-2,232.458,0.25,33,110.5
1573,E-1,232.958,0.25,40,110.5
1574,E-2,233.458,0.25,33,110.5
1575,C#4,233.958,2.0,27,110.5
1576,E-3,233.958,2.0,27,110.5
1577,G3,234.0,1.0,30,110.5
1578,E4,234.0,1.0,30,110.5
1579,G4,234.0,1.0,30,110.5
1580,A3,235.0,1.0,33,110.5
1581,A4,235.0,1.0,33,110.5
1582,F#4,235.0,1.0,33,110.5
1583,C#3,235.958,0.25,36,110.5
1584,B-4,236.0,1.0,36,110.5
1585,B-3,236.0,1.0,36,110.5
1586,G4,236.0,1.0,36,110.5
1587,C#2,236.458,0.25,30,110.5
1588,C#1,236.958,0.25,36,110.5
1589,C4,237.0,1.0,39,110.5
1590,A4,237.0,1.0,39,110.5
1591,C5,237.0,1.0,39,110.5
1592,C#2,237.458,0.25,29,110.5
1593,E4,237.958,2.0,23,110.5
1594,C#4,237.958,2.0,23,110.5
1595,E3,237.958,2.0,23,110.5
1596,C#4,238.0,1.0,44,110.5
1597,B-4,238.0,1.0,44,110.5
1598,C#5,238.0,1.0,44,110.5
1599,C5,239.0,1.0,48,110.5
1600,E4,239.0,1.0,48,110.5
1601,E5,239.0,1.0,48,110.5
1602,C3,239.958,0.25,28,110.5
1603,C#5,240.0,2.0,51,110.5
1604,F4,240.0,1.0,51,110.5
1605,F5,240.0,1.0,51,110.5
1606,C2,240.458,0.25,29,110.5
1607,C1,240.958,0.25,30,110.5
1608,G5,241.0,1.0,55,110.5
1609,G4,241.0,1.0,55,110.5
1610,C2,241.458,0.25,31,110.5
1611,C3,241.833,0.125,22,110.5
1612,E3,241.958,0.125,34,110.5
1613,C3,241.958,0.125,22,110.5
1614,C5,242.0,0.5,45,110.5
1615,G#5,242.125,0.25,30,110.5
1616,C6,242.25,0.25,34,110.5
1617,C3,242.458,0.25,35,110.5
1618,C#5,242.5,0.5,46,110.5
1619,C2,242.958,0.25,35,110.5
1620,D5,243.0,0.5,48,110.5
1621,G#5,243.125,0.375,35,110.5
1622,C6,243.25,0.25,35,110.5
1623,C3,243.458,0.25,37,110.5
1624,E-5,243.5,0.5,49,110.5
1625,B-2,243.833,0.125,26,110.5
1626,C5,243.875,0.125,35,110.5
1627,F3,243.958,0.125,38,110.5
1628,B-2,243.958,0.125,26,110.5
1629,G#5,244.0,0.5,53,110.5
1630,C5,244.0,0.125,35,110.5
1631,C6,244.125,0.25,38,110.5
1632,B-2,244.458,0.25,39,110.5
1633,G5,244.5,0.5,49,110.5
1634,B-1,244.958,0.25,40,110.5
1635,F5,245.0,0.5,49,110.5
1636,G#5,245.125,0.25,35,110.5
1637,C6,245.25,0.25,35,110.5
1638,F3,245.458,0.25,42,110.5
1639,E5,245.5,0.5,48,110.5
1640,E-3,245.833,0.125,27,110.5
1641,B-3,245.958,0.125,44,110.5
1642,E-3,245.958,0.125,27,110.5
1643,C5,246.0,0.25,31,110.5
1644,E-5,246.0,2.0,47,110.5
1645,G#5,246.125,0.25,31,110.5
1646,C6,246.25,0.25,31,110.5
1647,E-2,246.458,0.25,44,110.5
1648,E-1,246.958,0.25,46,110.5
1649,C5,247.0,0.25,31,110.5
1650,G#5,247.125,0.25,31,110.5
1651,C6,247.25,0.25,31,110.5
1652,E-3,247.458,0.25,47,110.5
1653,B-5,247.75,0.25,26,110.5
1654,G#1,247.833,0.125,22,110.5
1655,G5,247.875,0.125,26,110.5
1656,G#2,247.958,0.25,27,110.5
1657,G#1,247.958,0.25,22,110.5
1658,C#5,248.0,0.5,41,110.5
1659,B-5,248.0,0.5,26,110.5
1660,G5,248.0,0.5,26,110.5
1661,C3,248.458,0.25,22,110.5
1662,C5,248.5,0.25,40,110.5
1663,G5,248.75,0.75,26,110.5
1664,G#2,248.833,0.375,17,110.5
1665,E-5,248.875,0.625,26,110.5
1666,G#3,248.958,0.25,26,110.5
1667,B-4,249.0,0.5,39,110.5
1668,C4,249.458,0.25,22,110.5
1669,C5,249.5,0.25,40,110.5
1670,G#5,249.75,0.25,25,110.5
1671,G#3,249.833,0.125,17,110.5
1672,F5,249.875,0.125,25,110.5
1673,G#4,249.958,0.25,27,110.5
1674,G#3,249.958,0.25,17,110.5
1675,C#5,250.0,0.5,42,110.5
1676,G#5,250.0,0.5,25,110.5
1677,F5,250.0,0.5,25,110.5
1678,C4,250.458,0.25,23,110.5
1679,C5,250.5,0.25,42,110.5
1680,F5,250.75,0.75,26,110.5
1681,G#2,250.833,0.375,17,110.5
1682,C#5,250.875,0.625,26,110.5
1683,G#3,250.958,0.25,27,110.5
1684,B-4,251.0,0.5,41,110.5
1685,C3,251.458,0.25,24,110.5
1686,G#4,251.5,0.25,40,110.5
1687,E-5,251.75,0.25,25,110.5
1688,G#1,251.833,0.125,16,110.5
1689,B-4,251.875,0.125,25,110.5
1690,G#2,251.958,0.25,27,110.5
1691,G#1,251.958,0.25,16,110.5
1692,G4,252.0,0.5,42,110.5
1693,E-5,252.0,0.5,25,110.5
1694,B-4,252.0,0.5,25,110.5
1695,C3,252.458,0.25,22,110.5
1696,F4,252.5,0.25,41,110.5
1697,C#5,252.75,0.75,24,110.5
1698,G#2,252.833,0.375,17,110.5
1699,B-4,252.875,0.625,24,110.5
1700,G#3,252.958,0.25,26,110.5
1701,E-4,253.0,0.5,40,110.5
1702,C4,253.458,0.25,22,110.5
1703,F4,253.5,0.25,41,110.5
1704,E-5,253.75,0.25,28,110.5
1705,G#3,253.833,0.125,16,110.5
1706,C#5,253.875,0.125,28,110.5
1707,E-4,253.958,0.25,27,110.5
1708,G#3,253.958,0.25,16,110.5
1709,G4,254.0,0.5,44,110.5
1710,E-5,254.0,0.5,28,110.5
1711,C#5,254.0,0.5,28,110.5
1712,G4,254.458,0.25,24,110.5
1713,B-4,254.5,0.25,40,110.5
1714,E-5,254.75,0.75,26,110.5
1715,G#3,254.833,0.375,15,110.5
1716,C#5,254.875,0.625,26,110.5
1717,C#4,254.958,0.25,27,110.5
1718,F4,255.0,0.5,42,110.5
1719,E-4,255.458,0.25,24,110.5
1720,G#4,255.5,0.25,38,110.5
1721,E-5,255.75,0.25,26,110.5
1722,G#3,255.833,0.125,15,110.5
1723,C5,255.875,0.125,26,110.5
1724,F4,255.958,0.25,26,110.5
1725,G#3,255.958,0.25,15,110.5
1726,E-4,256.0,0.5,40,110.5
1727,E-5,256.0,0.5,26,110.5
1728,C5,256.0,0.5,26,110.5
1729,G#4,256.458,0.25,24,110.5
1730,G4,256.5,0.25,35,110.5
1731,E-5,256.75,0.75,25,110.5
1732,G#3,256.833,0.375,16,110.5
1733,B-4,256.875,0.625,25,110.5
1734,C#4,256.958,0.25,27,110.5
1735,C#4,257.0,0.5,39,110.5
1736,F4,257.458,0.25,24,110.5
1737,F4,257.5,0.25,33,110.5
1738,G#2,257.833,0.125,16,110.5
1739,C#3,257.958,0.25,26,110.5
1740,G#2,257.958,0.25,16,110.5
1741,C4,258.0,0.5,39,110.5
1742,G#4,258.125,0.25,30,110.5
1743,C5,258.25,0.25,30,110.5
1744,E-3,258.458,0.25,24,110.5
1745,C#4,258.5,0.5,39,110.5
1746,G#2,258.708,0.5,17,110.5
1747,E-3,258.833,0.375,17,110.5
1748,G3,258.958,0.25,26,110.5
1749,D4,259.0,0.5,39,110.5
1750,G#4,259.125,0.25,30,110.5
1751,C5,259.25,0.25,30,110.5
1752,G#3,259.458,0.25,24,110.5
1753,E-4,259.5,0.5,41,110.5
1754,G#2,259.708,0.25,17,110.5
1755,E-3,259.833,0.125,17,110.5
1756,B-3,259.958,0.25,24,110.5
1757,G#2,259.958,0.25,17,110.5
1758,E-3,259.958,0.25,17,110.5
1759,C4,260.0,0.5,39,110.5
1760,C5,260.125,0.25,44,110.5
1761,E-5,260.25,0.25,33,110.5
1762,C#4,260.458,0.25,24,110.5
1763,G#4,260.5,0.5,42,110.5
1764,G#2,260.708,0.5,17,110.5
1765,E-3,260.833,0.375,17,110.5
1766,G#3,260.958,0.25,24,110.5
1767,F4,261.0,0.5,40,110.5
1768,C5,261.125,0.25,33,110.5
1769,E-5,261.25,0.25,33,110.5
1770,C4,261.458,0.25,24,110.5
1771,E4,261.5,0.5,39,110.5
1772,G#2,261.708,0.25,17,110.5
1773,E-3,261.833,0.125,17,110.5
1774,G3,261.958,0.25,22,110.5
1775,G#2,261.958,0.25,17,110.5
1776,E-3,261.958,0.25,17,110.5
1777,C4,262.0,0.5,42,110.5
1778,E-4,262.125,0.375,35,110.5
1779,G4,262.25,0.25,35,110.5
1780,C5,262.375,0.125,35,110.5
1781,B-3,262.458,0.25,24,110.5
1782,C#5,262.5,0.5,42,110.5
1783,B-4,262.5,0.5,42,110.5
1784,C#4,262.5,0.5,42,110.5
1785,G#2,262.708,0.5,16,110.5
1786,E-3,262.833,0.375,16,110.5
1787,G#3,262.958,0.25,22,110.5
1788,D4,263.0,0.5,49,110.5
1789,D5,263.0,0.5,49,110.5
1790,B4,263.0,0.5,49,110.5
1791,G3,263.458,0.25,19,110.5
1792,E-5,263.5,0.5,53,110.5
1793,C5,263.5,0.5,53,110.5
1794,E-4,263.5,0.5,53,110.5
1795,G#2,263.833,0.125,22,110.5
1796,G#3,263.958,0.25,27,110.5
1797,G#2,263.958,0.25,22,110.5
1798,E-6,264.0,0.5,63,110.5
1799,F#5,264.0,0.5,63,110.5
1800,E-5,264.0,0.5,63,110.5
1801,C3,264.458,0.25,22,110.5
1802,C6,264.5,0.5,50,110.5
1803,C5,264.5,0.5,50,110.5
1804,G#5,264.5,0.5,50,110.5
1805,G#1,264.833,0.375,17,110.5
1806,G#2,264.958,0.25,26,110.5
1807,G#5,265.0,0.5,46,110.5
1808,F5,265.0,0.5,46,110.5
1809,G#4,265.0,0.5,46,110.5
1810,C3,265.458,0.25,22,110.5
1811,F#5,265.5,0.5,42,110.5
1812,E-5,265.5,0.5,42,110.5
1813,F#4,265.5,0.5,42,110.5
1814,G#2,265.833,0.125,22,110.5
1815,G#3,265.958,0.25,27,110.5
1816,G#2,265.958,0.25,22,110.5
1817,F5,266.0,1.0,41,110.5
1818,F4,266.0,1.0,41,110.5
1819,C#5,266.0,1.0,41,110.5
1820,C3,266.458,0.25,23,110.5
1821,G#1,266.833,0.375,17,110.5
1822,G#2,266.958,0.25,27,110.5
1823,C#5,267.0,1.0,39,110.5
1824,E5,267.0,1.0,39,110.5
1825,E4,267.0,1.0,39,110.5
1826,C3,267.458,0.25,29,110.5
1827,G#2,267.833,0.125,26,110.5
1828,G#3,267.958,0.25,34,110.5
1829,G#2,267.958,0.25,26,110.5
1830,E-4,268.0,2.0,35,110.5
1831,C5,268.0,2.0,35,110.5
1832,E-5,268.0,2.0,35,110.5
1833,E-3,268.458,0.25,30,110.5
1834,G#1,268.708,0.5,26,110.5
1835,G#2,268.958,0.25,35,110.5
1836,C3,269.458,0.25,40,110.5
1837,G#3,269.708,0.25,37,110.5
1838,G#4,269.958,0.25,46,110.5
1839,G#3,269.958,0.25,37,110.5
1840,G#4,270.0,1.0,31,110.5
1841,G#3,270.0,1.0,31,110.5
1842,E-4,270.0,1.0,31,110.5
1843,C4,270.458,0.25,37,110.5
1844,G#2,270.708,0.5,32,110.5
1845,G#3,270.958,0.25,40,110.5
1846,G3,271.0,1.0,30,110.5
1847,E-4,271.0,1.0,30,110.5
1848,G4,271.0,1.0,30,110.5
1849,C3,271.458,0.25,28,110.5
1850,C#1,271.708,0.25,28,110.5
1851,C#2,271.958,0.25,35,110.5
1852,C#1,271.958,0.25,28,110.5
1853,E-4,272.0,2.0,25,110.5
1854,F#3,272.0,2.0,25,110.5
1855,F#4,272.0,2.0,25,110.5
1856,G#2,272.458,0.25,35,110.5
1857,C#2,272.833,0.375,26,110.5
1858,C#3,272.958,0.25,33,110.5
1859,G#3,273.458,0.25,29,110.5
1860,G#4,273.958,1.875,35,110.5
1861,G#3,273.958,1.875,35,110.5
1862,C4,273.958,1.875,35,110.5
1863,G5,274.0,1.0,35,110.5
1864,C5,274.0,1.0,35,110.5
1865,G4,274.0,1.0,35,110.5
1866,G5,275.0,1.0,31,110.5
1867,D5,275.0,1.0,31,110.5
1868,G4,275.0,1.0,31,110.5
1869,C1,275.708,0.25,27,110.5
1870,C2,275.958,0.25,34,110.5
1871,C1,275.958,0.25,27,110.5
1872,E-5,276.0,1.0,35,110.5
1873,G5,276.0,1.0,35,110.5
1874,G4,276.0,1.0,35,110.5
1875,G#2,276.458,0.25,28,110.5
1876,C2,276.833,0.375,23,110.5
1877,C3,276.958,0.25,30,110.5
1878,G5,277.0,1.0,33,110.5
1879,D5,277.0,1.0,33,110.5
1880,G4,277.0,1.0,33,110.5
1881,G#3,277.458,0.25,23,110.5
1882,C4,277.958,2.0,26,110.5
1883,G#3,277.958,2.0,26,110.5
1884,C3,277.958,2.0,26,110.5
1885,G5,278.0,1.0,39,110.5
1886,G4,278.0,1.0,39,110.5
1887,E-5,278.333,333/1000,35,110.5
1888,F5,278.667,333/1000,35,110.5
1889,D5,279.0,1.0,36,110.5
1890,G4,279.0,1.0,36,110.5
1891,G5,279.0,1.0,36,110.5
1892,C3,279.958,333/1000,30,110.5
1893,C2,279.958,1.0,25,110.5
1894,E-5,280.0,333/1000,37,110.5
1895,G5,280.0,1.0,37,110.5
1896,G4,280.0,1.0,37,110.5
1897,G2,280.292,333/1000,28,110.5
1898,C5,280.333,333/1000,34,110.5
1899,C3,280.625,333/1000,28,110.5
1900,C#5,280.667,333/1000,34,110.5
1901,D4,280.958,1.0,18,110.5
1902,G3,280.958,1.0,18,110.5
1903,D3,280.958,1.0,18,110.5
1904,B-4,281.0,1.0,36,110.5
1905,G4,281.0,1.0,36,110.5
1906,G5,281.0,1.0,36,110.5
1907,E-3,281.958,333/1000,30,110.5
1908,C2,281.958,1.0,25,110.5
1909,C6,282.0,333/1000,52,110.5
1910,C5,282.0,333/1000,52,110.5
1911,G2,282.292,333/1000,27,110.5
1912,G#5,282.333,333/1000,48,110.5
1913,E-3,282.625,333/1000,27,110.5
1914,B-4,282.667,333/1000,48,110.5
1915,B-5,282.667,333/1000,48,110.5
1916,D4,282.958,1.0,19,110.5
1917,D3,282.958,1.0,19,110.5
1918,G3,282.958,1.0,19,110.5
1919,G5,283.0,1.0,53,110.5
1920,E-3,283.958,333/1000,27,110.5
1921,C2,283.958,1.0,23,110.5
1922,C5,284.0,333/1000,50,110.5
1923,C6,284.0,333/1000,50,110.5
1924,G2,284.292,333/1000,24,110.5
1925,G#5,284.333,333/1000,44,110.5
1926,D3,284.625,333/1000,24,110.5
1927,B-5,284.667,333/1000,48,110.5
1928,B-4,284.667,333/1000,48,110.5
1929,G2,284.958,1.0,20,110.5
1930,C3,284.958,1.0,20,110.5
1931,G3,284.958,1.0,20,110.5
1932,G5,285.0,333/1000,40,110.5
1933,G#4,285.333,333/1000,44,110.5
1934,G#5,285.333,333/1000,44,110.5
1935,F5,285.667,333/1000,42,110.5
1936,C3,285.958,333/1000,27,110.5
1937,C2,285.958,1.0,23,110.5
1938,F#5,286.0,333/1000,45,110.5
1939,F#4,286.0,333/1000,45,110.5
1940,G2,286.292,333/1000,26,110.5
1941,E-5,286.333,333/1000,45,110.5
1942,B-2,286.625,333/1000,26,110.5
1943,F#4,286.667,333/1000,45,110.5
1944,F#5,286.667,333/1000,45,110.5
1945,G2,286.958,1.0,22,110.5
1946,C3,286.958,1.0,22,110.5
1947,G3,286.958,1.0,22,110.5
1948,G4,287.0,1.0,41,110.5
1949,D5,287.0,1.0,41,110.5
1950,G5,287.0,1.0,41,110.5
1951,G#2,287.958,333/1000,41,110.5
1952,C2,287.958,1.0,41,110.5
1953,A5,288.0,333/1000,48,110.5
1954,A4,288.0,333/1000,48,110.5
1955,C3,288.292,333/1000,35,110.5
1956,E-5,288.333,333/1000,48,110.5
1957,C3,288.625,1333/1000,35,110.5
1958,G3,288.625,333/1000,35,110.5
1959,A4,288.667,333/1000,48,110.5
1960,A5,288.667,333/1000,48,110.5
1961,B-3,288.958,1.0,35,110.5
1962,G4,289.0,1.0,45,110.5
1963,G5,289.0,1.0,45,110.5
1964,D5,289.0,1.0,45,110.5
1965,C2,289.958,667/1000,36,110.5
1966,G#2,289.958,333/1000,36,110.5
1967,C5,290.0,333/1000,61,110.5
1968,C6,290.0,333/1000,61,110.5
1969,C3,290.292,333/1000,30,110.5
1970,G5,290.333,333/1000,59,110.5
1971,C3,290.625,667/1000,35,110.5
1972,G3,290.625,333/1000,35,110.5
1973,C5,290.667,333/1000,59,110.5
1974,C6,290.667,333/1000,59,110.5
1975,B-3,290.958,333/1000,29,110.5
1976,D6,291.0,1.0,58,110.5
1977,G5,291.0,1.0,58,110.5
1978,D5,291.0,1.0,58,110.5
1979,C3,291.292,667/1000,31,110.5
1980,F3,291.292,333/1000,31,110.5
1981,G#3,291.625,333/1000,30,110.5
1982,C2,291.958,1.0,35,110.5
1983,E-2,291.958,333/1000,35,110.5
1984,E6,292.0,333/1000,69,110.5
1985,E5,292.0,333/1000,69,110.5
1986,G#2,292.292,333/1000,35,110.5
1987,G5,292.333,333/1000,66,110.5
1988,E-3,292.625,333/1000,35,110.5
1989,E5,292.667,333/1000,66,110.5
1990,E6,292.667,333/1000,66,110.5
1991,G2,292.958,1.0,25,110.5
1992,C3,292.958,1.0,25,110.5
1993,D3,292.958,1.0,25,110.5
1994,G3,292.958,1.0,25,110.5
1995,D5,293.0,1.0,69,110.5
1996,D6,293.0,1.0,69,110.5
1997,G5,293.0,1.0,69,110.5
1998,C2,293.958,1.0,38,110.5
1999,E-2,293.958,333/1000,38,110.5
2000,G5,294.0,333/1000,80,110.5
2001,G6,294.0,333/1000,80,110.5
2002,A2,294.292,333/1000,38,110.5
2003,E6,294.333,333/1000,77,110.5
2004,E-3,294.625,333/1000,38,110.5
2005,F6,294.667,333/1000,71,110.5
2006,F5,294.667,333/1000,71,110.5
2007,G2,294.958,1.0,30,110.5
2008,C3,294.958,1.0,30,110.5
2009,D3,294.958,1.0,30,110.5
2010,G3,294.958,1.0,30,110.5
2011,D5,295.0,1.0,70,110.5
2012,D4,295.0,1.0,70,110.5
2013,G4,295.0,1.0,70,110.5
2014,C2,295.958,1.0,46,110.5
2015,G2,295.958,1.0,46,110.5
2016,E3,295.958,1.0,46,110.5
2017,E6,296.0,333/1000,81,110.5
2018,E5,296.0,333/1000,81,110.5
2019,G5,296.333,333/1000,84,110.5
2020,D6,296.667,333/1000,78,110.5
2021,D5,296.667,333/1000,78,110.5
2022,D3,296.958,333/1000,39,110.5
2023,C3,296.958,333/1000,39,110.5
2024,G3,296.958,333/1000,39,110.5
2025,B-4,297.0,1.0,75,110.5
2026,E4,297.0,1.0,75,110.5
2027,B-3,297.0,1.0,75,110.5
2028,G2,297.292,333/1000,48,110.5
2029,D3,297.625,333/1000,38,110.5
2030,C3,297.625,333/1000,38,110.5
2031,G3,297.625,333/1000,38,110.5
2032,C2,297.958,1.0,48,110.5
2033,G2,297.958,1.0,48,110.5
2034,C3,297.958,1.0,48,110.5
2035,C5,298.0,333/1000,85,110.5
2036,C6,298.0,333/1000,85,110.5
2037,F5,298.333,167/1000,81,110.5
2038,A5,298.333,167/1000,81,110.5
2039,C5,298.667,0.25,81,110.5
2040,C6,298.667,0.25,81,110.5
2041,C3,298.958,333/1000,39,110.5
2042,D3,298.958,333/1000,39,110.5
2043,G3,298.958,333/1000,39,110.5
2044,E5,299.0,1.0,87,110.5
2045,G4,299.0,1.0,87,110.5
2046,G5,299.0,1.0,87,110.5
2047,G2,299.292,333/1000,49,110.5
2048,C3,299.625,333/1000,39,110.5
2049,D3,299.625,333/1000,39,110.5
2050,G3,299.625,333/1000,39,110.5
2051,E3,299.958,0.5,55,110.5
2052,C2,299.958,1.0,55,110.5
2053,G2,299.958,1.0,55,110.5
2054,A4,300.0,333/1000,84,110.5
2055,A5,300.0,333/1000,84,110.5
2056,F5,300.333,167/1000,80,110.5
2057,D5,300.333,167/1000,80,110.5
2058,D3,300.458,0.5,49,110.5
2059,A4,300.667,0.25,80,110.5
2060,A5,300.667,0.25,80,110.5
2061,D3,300.958,333/1000,45,110.5
2062,C3,300.958,333/1000,45,110.5
2063,G3,300.958,333/1000,45,110.5
2064,C5,301.0,1.0,87,110.5
2065,E4,301.0,1.0,87,110.5
2066,E5,301.0,1.0,87,110.5
2067,G2,301.292,333/1000,57,110.5
2068,D3,301.625,333/1000,47,110.5
2069,C3,301.625,333/1000,47,110.5
2070,G3,301.625,333/1000,47,110.5
2071,C3,301.958,0.5,62,110.5
2072,C2,301.958,1.0,62,110.5
2073,G2,301.958,1.0,62,110.5
2074,G4,302.0,333/1000,85,110.5
2075,G5,302.0,333/1000,85,110.5
2076,C5,302.333,333/1000,76,110.5
2077,E5,302.333,333/1000,76,110.5
2078,B-2,302.458,0.5,61,110.5
2079,G5,302.667,333/1000,85,110.5
2080,G4,302.667,333/1000,85,110.5
2081,C3,302.958,333/1000,53,110.5
2082,G3,302.958,333/1000,53,110.5
2083,D5,303.0,333/1000,76,110.5
2084,F5,303.0,333/1000,76,110.5
2085,G2,303.292,333/1000,62,110.5
2086,G4,303.333,333/1000,85,110.5
2087,G5,303.333,333/1000,85,110.5
2088,C3,303.625,333/1000,52,110.5
2089,G3,303.625,333/1000,52,110.5
2090,E5,303.667,333/1000,76,110.5
2091,C5,303.667,333/1000,76,110.5
2092,C2,303.958,1.0,57,110.5
2093,F2,303.958,1.0,57,110.5
2094,A2,303.958,1.0,57,110.5
2095,C3,303.958,1.0,57,110.5
2096,G5,304.0,333/1000,85,110.5
2097,G4,304.0,333/1000,85,110.5
2098,A4,304.333,333/1000,80,110.5
2099,C5,304.333,333/1000,80,110.5
2100,G4,304.667,333/1000,80,110.5
2101,G5,304.667,333/1000,80,110.5
2102,E3,304.958,333/1000,54,110.5
2103,G3,304.958,333/1000,54,110.5
2104,C4,304.958,333/1000,54,110.5
2105,D5,305.0,1.0,78,110.5
2106,G4,305.0,1.0,78,110.5
2107,B4,305.0,1.0,78,110.5
2108,G5,305.0,1.0,78,110.5
2109,C3,305.292,333/1000,62,110.5
2110,E3,305.625,333/1000,51,110.5
2111,G3,305.625,333/1000,51,110.5
2112,C4,305.625,333/1000,51,110.5
2113,D2,305.958,1.0,54,110.5
2114,F2,305.958,1.0,54,110.5
2115,A2,305.958,1.0,54,110.5
2116,D3,305.958,1.0,54,110.5
2117,C5,306.0,333/1000,82,110.5
2118,C6,306.0,333/1000,82,110.5
2119,B5,306.333,333/1000,64,110.5
2120,G5,306.333,333/1000,64,110.5
2121,C5,306.667,333/1000,73,110.5
2122,C6,306.667,333/1000,73,110.5
2123,C3,306.958,333/1000,48,110.5
2124,E3,306.958,333/1000,48,110.5
2125,A3,306.958,333/1000,48,110.5
2126,F5,307.0,333/1000,57,110.5
2127,A5,307.0,333/1000,57,110.5
2128,A2,307.292,333/1000,60,110.5
2129,C5,307.333,333/1000,72,110.5
2130,C6,307.333,333/1000,72,110.5
2131,C3,307.625,333/1000,49,110.5
2132,E3,307.625,333/1000,49,110.5
2133,A3,307.625,333/1000,49,110.5
2134,E5,307.667,333/1000,57,110.5
2135,G5,307.667,333/1000,57,110.5
2136,G1,307.958,667/1000,64,110.5
2137,G2,307.958,667/1000,64,110.5
2138,A5,308.0,333/1000,78,110.5
2139,A4,308.0,333/1000,78,110.5
2140,E5,308.333,333/1000,64,110.5
2141,G5,308.333,333/1000,64,110.5
2142,E3,308.625,333/1000,58,110.5
2143,C3,308.625,333/1000,58,110.5
2144,A4,308.667,333/1000,73,110.5
2145,A5,308.667,333/1000,73,110.5
2146,G2,308.958,333/1000,64,110.5
2147,G3,308.958,333/1000,64,110.5
2148,F5,309.0,333/1000,58,110.5
2149,D5,309.0,333/1000,58,110.5
2150,D3,309.292,333/1000,62,110.5
2151,F3,309.292,333/1000,62,110.5
2152,A5,309.333,333/1000,74,110.5
2153,A4,309.333,333/1000,74,110.5
2154,G2,309.625,333/1000,62,110.5
2155,G3,309.625,333/1000,62,110.5
2156,C5,309.667,333/1000,56,110.5
2157,E5,309.667,333/1000,56,110.5
2158,C3,309.958,333/1000,64,110.5
2159,E3,309.958,333/1000,64,110.5
2160,G4,310.0,333/1000,81,110.5
2161,G5,310.0,333/1000,81,110.5
2162,G2,310.292,333/1000,61,110.5
2163,G3,310.292,333/1000,61,110.5
2164,F5,310.333,333/1000,64,110.5
2165,D5,310.333,333/1000,64,110.5
2166,A2,310.625,333/1000,61,110.5
2167,C3,310.625,333/1000,61,110.5
2168,G4,310.667,333/1000,78,110.5
2169,G5,310.667,333/1000,78,110.5
2170,G2,310.958,1.0,60,110.5
2171,B2,310.958,1.0,60,110.5
2172,D3,310.958,1.0,60,110.5
2173,G3,310.958,1.0,60,110.5
2174,C5,311.0,333/1000,61,110.5
2175,E5,311.0,333/1000,61,110.5
2176,G5,311.333,333/1000,76,110.5
2177,G4,311.333,333/1000,76,110.5
2178,A4,311.667,333/1000,61,110.5
2179,C5,311.667,333/1000,61,110.5
2180,C2,311.958,333/1000,62,110.5
2181,G4,312.0,1.0,79,110.5
2182,C5,312.0,1.0,79,110.5
2183,E5,312.0,1.0,79,110.5
2184,G5,312.0,1.0,79,110.5
2185,C3,312.292,333/1000,58,110.5
2186,A3,312.625,1.0,52,110.5
2187,F3,312.625,1.0,52,110.5
2188,C3,312.958,1.0,48,110.5
2189,C4,312.958,1.0,48,110.5
2190,G5,313.0,0.25,75,110.5
2191,G4,313.0,0.25,75,110.5
2192,B4,313.0,0.25,75,110.5
2193,D5,313.0,0.25,75,110.5
2194,E3,313.625,333/1000,51,110.5
2195,G3,313.625,333/1000,51,110.5
2196,A1,313.958,333/1000,58,110.5
2197,A2,314.292,333/1000,58,110.5
2198,E4,314.5,0.25,37,110.5
2199,C4,314.5,0.25,37,110.5
2200,G3,314.5,0.25,37,110.5
2201,F3,314.625,1.0,58,110.5
2202,D3,314.625,1.0,58,110.5
2203,A2,314.958,1.0,48,110.5
2204,A3,314.958,1.0,48,110.5
2205,G3,315.0,0.25,37,110.5
2206,B3,315.0,0.25,37,110.5
2207,D4,315.0,0.25,37,110.5
2208,E4,315.5,0.25,35,110.5
2209,C4,315.5,0.25,35,110.5
2210,G3,315.5,0.25,35,110.5
2211,C3,315.625,333/1000,49,110.5
2212,E3,315.625,333/1000,49,110.5
2213,G1,315.958,333/1000,58,110.5
2214,G2,316.292,333/1000,52,110.5
2215,F4,316.5,0.25,37,110.5
2216,C4,316.5,0.25,37,110.5
2217,A3,316.5,0.25,37,110.5
2218,F3,316.625,333/1000,54,110.5
2219,D3,316.625,333/1000,54,110.5
2220,G2,316.958,333/1000,48,110.5
2221,G3,316.958,333/1000,48,110.5
2222,C4,317.0,0.25,37,110.5
2223,E4,317.0,0.25,37,110.5
2224,G3,317.0,0.25,37,110.5
2225,C3,317.292,333/1000,54,110.5
2226,E3,317.292,333/1000,54,110.5
2227,C4,317.5,0.25,35,110.5
2228,A3,317.5,0.25,35,110.5
2229,D4,317.5,0.25,35,110.5
2230,G2,317.625,333/1000,47,110.5
2231,G3,317.625,333/1000,47,110.5
2232,G3,318.5,0.25,37,110.5
2233,C4,318.5,0.25,37,110.5
2234,E4,318.5,0.25,37,110.5
2235,A2,318.958,1.0,66,110.5
2236,C3,318.958,1.0,66,110.5
2237,G2,318.958,1.0,47,110.5
2238,G3,318.958,1.0,47,110.5
2239,D4,319.0,0.25,37,110.5
2240,B3,319.0,0.25,37,110.5
2241,F3,319.0,0.25,37,110.5
2242,E3,319.5,0.25,35,110.5
2243,C4,319.5,0.25,35,110.5
2244,G2,319.583,0.625,42,110.5
2245,B2,319.708,0.5,46,110.5
2246,D3,319.833,0.375,48,110.5
2247,G3,319.958,0.25,52,110.5
2248,B3,320.0,0.25,37,110.5
2249,D3,320.0,0.25,37,110.5
2250,D4,320.0,0.25,37,110.5
2251,G3,320.5,0.25,37,110.5
2252,C2,320.958,0.25,39,110.5
2253,C4,321.5,0.25,37,110.5
2254,A3,321.5,0.25,37,110.5
2255,C3,321.5,0.25,37,110.5
2256,G1,321.958,0.25,29,110.5
2257,C2,322.458,0.25,29,110.5
2258,G4,322.5,0.25,37,110.5
2259,C4,322.5,0.25,37,110.5
2260,C5,322.5,0.25,37,110.5
2261,B4,322.5,0.25,37,110.5
2262,F1,322.958,0.25,30,110.5
2263,C6,323.5,0.25,37,110.5
2264,A5,323.5,0.25,37,110.5
2265,F5,323.5,0.25,37,110.5
2266,C5,323.5,0.25,37,110.5
2267,C2,323.958,0.25,29,110.5
2268,F1,324.458,0.25,29,110.5
2269,E5,324.5,0.25,36,110.5
2270,C6,324.5,0.25,36,110.5
2271,G5,324.5,0.25,36,110.5
2272,C2,324.958,0.25,33,110.5
2273,B5,325.0,0.25,37,110.5
2274,G5,325.0,0.25,37,110.5
2275,D5,325.0,0.25,37,110.5
2276,E5,325.5,0.25,35,110.5
2277,G5,325.5,0.25,35,110.5
2278,C6,325.5,0.25,35,110.5
2279,G1,325.958,0.25,29,110.5
2280,C2,326.458,0.25,29,110.5
2281,A5,326.5,0.25,35,110.5
2282,C6,326.5,0.25,35,110.5
2283,E6,326.5,0.25,35,110.5
2284,G1,326.958,0.25,29,110.5
2285,D6,327.0,0.25,37,110.5
2286,A5,327.0,0.25,37,110.5
2287,F5,327.0,0.25,37,110.5
2288,G2,327.458,0.25,29,110.5
2289,E5,327.5,0.25,35,110.5
2290,C6,327.5,0.25,35,110.5
2291,A5,327.5,0.25,35,110.5
2292,C2,327.958,0.25,30,110.5
2293,B5,328.5,0.25,35,110.5
2294,G5,328.5,0.25,35,110.5
2295,E5,328.5,0.25,35,110.5
2296,G3,328.958,0.25,29,110.5
2297,B3,328.958,0.25,29,110.5
2298,C3,328.958,0.25,29,110.5
2299,A5,329.0,0.25,37,110.5
2300,E5,329.0,0.25,37,110.5
2301,C5,329.0,0.25,37,110.5
2302,G5,329.5,0.25,35,110.5
2303,E5,329.5,0.25,35,110.5
2304,B4,329.5,0.25,35,110.5
2305,A4,329.958,0.25,29,110.5
2306,F4,329.958,0.25,29,110.5
2307,C4,329.958,0.25,29,110.5
2308,F#4,330.0,0.25,39,110.5
2309,E-5,330.0,0.25,39,110.5
2310,F#5,330.0,0.25,39,110.5
2311,B4,330.5,0.25,37,110.5
2312,G4,330.958,0.25,33,110.5
2313,E4,330.958,0.25,33,110.5
2314,C4,330.958,0.25,33,110.5
2315,E5,331.5,0.25,37,110.5
2316,G3,331.958,0.25,29,110.5
2317,C4,332.458,0.25,29,110.5
2318,E5,332.5,0.25,28,110.5
2319,E-5,332.5,0.25,28,110.5
2320,E4,332.5,0.25,28,110.5
2321,A3,332.958,0.25,29,110.5
2322,E4,333.5,0.25,27,110.5
2323,D4,333.5,0.25,27,110.5
2324,E3,333.5,0.25,27,110.5
2325,D4,333.958,0.25,29,110.5
2326,A3,334.458,0.25,29,110.5
2327,G3,334.5,0.25,28,110.5
2328,C4,334.5,0.25,28,110.5
2329,E4,334.5,0.25,28,110.5
2330,E4,334.958,0.25,30,110.5
2331,D4,335.0,0.25,29,110.5
2332,B3,335.0,0.25,29,110.5
2333,G3,335.0,0.25,29,110.5
2334,G3,335.5,0.25,27,110.5
2335,E4,335.5,0.25,27,110.5
2336,C4,335.5,0.25,27,110.5
2337,A3,335.958,0.25,29,110.5
2338,E4,336.458,0.25,29,110.5
2339,F4,336.5,0.25,35,110.5
2340,C4,336.5,0.25,35,110.5
2341,A3,336.5,0.25,35,110.5
2342,B3,336.958,0.25,29,110.5
2343,E4,337.0,0.25,35,110.5
2344,G3,337.0,0.25,35,110.5
2345,C4,337.0,0.25,35,110.5
2346,D4,337.5,0.25,33,110.5
2347,A3,337.5,0.25,33,110.5
2348,C4,337.5,0.25,33,110.5
2349,E4,337.958,0.25,29,110.5
2350,E4,338.5,0.25,33,110.5
2351,C4,338.5,0.25,33,110.5
2352,G3,338.5,0.25,33,110.5
2353,E-3,338.958,0.25,27,110.5
2354,E3,338.958,0.25,27,110.5
2355,E-4,338.958,0.25,27,110.5
2356,F3,339.0,0.25,33,110.5
2357,D4,339.0,0.25,33,110.5
2358,B3,339.0,0.25,33,110.5
2359,E3,339.5,0.25,31,110.5
2360,C4,339.5,0.25,31,110.5
2361,D2,339.958,0.25,24,110.5
2362,E2,339.958,0.25,24,110.5
2363,D3,339.958,0.25,24,110.5
2364,D3,340.0,0.25,31,110.5
2365,D4,340.0,0.25,31,110.5
2366,B3,340.0,0.25,31,110.5
2367,G3,340.5,0.25,30,110.5
2368,C1,340.958,0.25,28,110.5
2369,C2,340.958,0.25,28,110.5
2370,C4,341.5,0.25,30,110.5
2371,C3,341.5,0.25,30,110.5
2372,G1,341.958,0.25,24,110.5
2373,C2,342.458,0.25,23,110.5
2374,C5,342.5,0.25,26,110.5
2375,B-4,342.5,0.25,26,110.5
2376,C4,342.5,0.25,26,110.5
2377,F1,342.958,0.25,29,110.5
2378,C6,343.5,0.25,24,110.5
2379,G#5,343.5,0.25,24,110.5
2380,C5,343.5,0.25,24,110.5
2381,C2,343.958,0.25,27,110.5
2382,F1,344.458,0.25,27,110.5
2383,G5,344.5,1.5,29,110.5
2384,C6,344.5,0.5,29,110.5
2385,E-5,344.5,0.5,29,110.5
2386,C2,344.958,0.25,29,110.5
2387,B5,345.0,0.5,29,110.5
2388,D5,345.0,0.5,29,110.5
2389,E-5,345.5,0.5,28,110.5
2390,C6,345.5,0.5,28,110.5
2391,G1,345.958,0.25,26,110.5
2392,C2,346.458,0.25,25,110.5
2393,C5,346.5,1.5,26,110.5
2394,G5,346.5,0.5,26,110.5
2395,E-5,346.5,0.5,26,110.5
2396,G1,346.958,0.25,25,110.5
2397,D5,347.0,0.5,26,110.5
2398,F5,347.0,0.5,26,110.5
2399,G2,347.458,0.25,24,110.5
2400,E-5,347.5,0.5,25,110.5
2401,G5,347.5,0.5,25,110.5
2402,C2,347.958,0.25,26,110.5
2403,G4,348.5,1.5,26,110.5
2404,E-5,348.5,0.5,26,110.5
2405,C5,348.5,0.5,26,110.5
2406,B-2,348.958,0.25,22,110.5
2407,B-3,348.958,0.25,22,110.5
2408,C3,348.958,0.25,22,110.5
2409,B4,349.0,0.5,26,110.5
2410,D5,349.0,0.5,26,110.5
2411,C5,349.5,0.5,26,110.5
2412,E-5,349.5,0.5,26,110.5
2413,G#4,349.958,0.25,19,110.5
2414,C4,349.958,0.25,19,110.5
2415,G#3,349.958,0.25,19,110.5
2416,C5,350.0,1.0,29,110.5
2417,G#4,350.0,1.0,29,110.5
2418,G1,350.958,2.0,27,110.5
2419,G#4,351.0,1.0,27,110.5
2420,F4,351.0,1.0,27,110.5
2421,C5,351.0,1.0,27,110.5
2422,C3,351.958,1.0,18,110.5
2423,C5,352.0,1.0,26,110.5
2424,G#4,352.0,1.0,26,110.5
2425,C4,352.0,1.0,26,110.5
2426,G2,352.958,2.0,24,110.5
2427,E-3,352.958,1.0,24,110.5
2428,F4,353.0,1.0,25,110.5
2429,C#5,353.0,1.0,25,110.5
2430,G3,353.958,1.0,19,110.5
2431,G#5,354.5,1.5,29,110.5
2432,D6,354.5,0.5,29,110.5
2433,F5,354.5,0.5,29,110.5
2434,C4,354.958,1.0,22,110.5
2435,G3,354.958,2.0,19,110.5
2436,C6,355.0,0.5,29,110.5
2437,E-5,355.0,0.5,29,110.5
2438,F5,355.5,0.5,27,110.5
2439,D6,355.5,0.5,27,110.5
2440,E-4,355.958,1.0,20,110.5
2441,D5,356.5,1.5,26,110.5
2442,B-5,356.5,0.5,26,110.5
2443,G5,356.5,0.5,26,110.5
2444,G1,356.958,2.0,22,110.5
2445,F5,357.0,0.5,26,110.5
2446,G#5,357.0,0.5,26,110.5
2447,B-5,357.5,0.5,26,110.5
2448,G5,357.5,0.5,26,110.5
2449,B-4,358.5,1.5,26,110.5
2450,G5,358.5,0.5,26,110.5
2451,E-5,358.5,0.5,26,110.5
2452,G2,358.958,2.0,18,110.5
2453,F5,359.0,0.5,26,110.5
2454,D5,359.0,0.5,26,110.5
2455,E-5,359.5,0.5,26,110.5
2456,G5,359.5,0.5,26,110.5
2457,G#3,359.958,1.0,17,110.5
2458,E-5,360.0,1.0,29,110.5
2459,C5,360.0,1.0,29,110.5
2460,G1,360.958,2.0,24,110.5
2461,G#4,361.0,1.0,27,110.5
2462,E-5,361.0,1.0,27,110.5
2463,C5,361.0,1.0,27,110.5
2464,D3,361.958,1.0,18,110.5
2465,C5,362.0,1.0,26,110.5
2466,E-5,362.0,1.0,26,110.5
2467,E-4,362.0,1.0,26,110.5
2468,G2,362.958,2.0,19,110.5
2469,G3,362.958,1.0,19,110.5
2470,G#4,363.0,1.0,25,110.5
2471,F5,363.0,1.0,25,110.5
2472,B-3,363.958,1.0,19,110.5
2473,D6,364.5,1.5,29,110.5
2474,G6,364.5,0.5,29,110.5
2475,B-5,364.5,0.5,29,110.5
2476,G3,364.958,2.0,20,110.5
2477,E-4,364.958,1.0,20,110.5
2478,F6,365.0,0.5,29,110.5
2479,G#5,365.0,0.5,29,110.5
2480,B-5,365.5,0.5,27,110.5
2481,G6,365.5,0.5,27,110.5
2482,G4,365.958,1.0,20,110.5
2483,G5,366.5,1.5,26,110.5
2484,C6,366.5,0.5,26,110.5
2485,E-6,366.5,0.5,26,110.5
2486,G1,366.958,2.0,22,110.5
2487,B-5,367.0,0.5,26,110.5
2488,D6,367.0,0.5,26,110.5
2489,E-6,367.5,0.5,26,110.5
2490,C6,367.5,0.5,26,110.5
2491,E-5,368.5,1.5,26,110.5
2492,C6,368.5,0.5,26,110.5
2493,G#5,368.5,0.5,26,110.5
2494,G2,368.958,2.0,18,110.5
2495,B-5,369.0,0.5,26,110.5
2496,G5,369.0,0.5,26,110.5
2497,G#5,369.5,0.5,26,110.5
2498,C6,369.5,0.5,26,110.5
2499,C4,369.958,1.0,17,110.5
2500,G#5,370.0,1.0,30,110.5
2501,F5,370.0,1.0,30,110.5
2502,G1,370.958,2.0,22,110.5
2503,G#5,371.0,1.0,30,110.5
2504,D5,371.0,1.0,30,110.5
2505,F5,371.0,1.0,30,110.5
2506,G3,371.958,1.0,18,110.5
2507,F5,372.0,1.0,30,110.5
2508,G#5,372.0,1.0,30,110.5
2509,G#4,372.0,1.0,30,110.5
2510,G2,372.458,0.5,20,110.5
2511,C4,372.958,1.0,20,110.5
2512,G2,372.958,2.0,20,110.5
2513,D5,373.0,1.0,30,110.5
2514,G#5,373.0,1.0,30,110.5
2515,E-4,373.958,1.0,19,110.5
2516,C5,374.0,1.0,29,110.5
2517,E-5,374.0,1.0,29,110.5
2518,F#5,374.0,1.0,29,110.5
2519,A5,374.0,1.0,29,110.5
2520,G3,374.958,2.0,18,110.5
2521,G#4,374.958,1.0,18,110.5
2522,F#5,375.0,1.0,28,110.5
2523,A5,375.0,1.0,28,110.5
2524,C5,375.0,1.0,28,110.5
2525,E-5,375.0,1.0,28,110.5
2526,C5,375.958,1.0,20,110.5
2527,C5,376.0,1.0,30,110.5
2528,E-5,376.0,1.0,30,110.5
2529,F#5,376.0,1.0,30,110.5
2530,A5,376.0,1.0,30,110.5
2531,G1,376.958,2.0,22,110.5
2532,F#5,377.0,1.0,30,110.5
2533,C5,377.0,1.0,30,110.5
2534,E-5,377.0,1.0,30,110.5
2535,A5,377.0,1.0,30,110.5
2536,G2,378.958,2.0,22,110.5
2537,E-6,379.0,0.25,31,110.5
2538,C6,379.25,0.25,30,110.5
2539,A5,379.5,0.25,34,110.5
2540,F#5,379.75,0.25,34,110.5
2541,F4,379.958,1.0,22,110.5
2542,C5,380.0,0.25,37,110.5
2543,A4,380.25,0.25,36,110.5
2544,F#4,380.5,0.25,39,110.5
2545,E-4,380.75,0.25,38,110.5
2546,E-4,380.958,1.0,22,110.5
2547,G3,380.958,2.0,22,110.5
2548,C4,381.958,1.0,22,110.5
2549,A3,382.958,1.0,22,110.5
2550,G3,382.958,1.0,22,110.5
2551,F#3,383.958,0.75,22,110.5
2552,G2,384.708,0.25,17,110.5
2553,C3,384.833,0.125,17,110.5
2554,E-3,384.958,0.25,28,110.5
2555,G2,384.958,0.25,17,110.5
2556,C3,384.958,0.25,17,110.5
2557,G2,385.708,0.5,24,110.5
2558,C3,385.833,0.375,24,110.5
2559,E-3,385.958,0.25,29,110.5
2560,G2,386.708,0.25,26,110.5
2561,C3,386.833,0.125,26,110.5
2562,E-3,386.958,0.25,29,110.5
2563,G2,386.958,0.25,26,110.5
2564,C3,386.958,0.25,26,110.5
2565,G2,387.708,0.5,26,110.5
2566,C3,387.833,0.375,26,110.5
2567,E-3,387.958,0.25,30,110.5
2568,A3,387.958,0.25,30,110.5
2569,F#3,388.208,0.25,35,110.5
2570,E-3,388.458,0.25,37,110.5
2571,C3,388.708,0.25,39,110.5
2572,G2,388.958,1.0,41,110.5
2573,G3,388.958,1.0,41,110.5
2574,F7,389.0,0.25,45,110.5
2575,D7,389.25,0.25,41,110.5
2576,F6,389.5,0.25,35,110.5
2577,C#6,389.75,0.25,33,110.5
2578,F2,389.958,1.0,27,110.5
2579,G2,389.958,1.0,27,110.5
2580,G3,389.958,1.0,27,110.5
2581,D6,390.0,0.25,35,110.5
2582,B-5,390.25,0.25,33,110.5
2583,D5,390.5,0.25,35,110.5
2584,A4,390.75,0.25,35,110.5
2585,E-2,390.958,1.0,27,110.5
2586,G2,390.958,1.0,27,110.5
2587,G3,390.958,1.0,27,110.5
2588,B-4,391.0,0.25,35,110.5
2589,F4,391.25,0.25,33,110.5
2590,D4,391.5,0.25,35,110.5
2591,C4,391.75,0.25,33,110.5
2592,D2,391.958,1.0,27,110.5
2593,G2,391.958,1.0,27,110.5
2594,F3,391.958,1.0,27,110.5
2595,G3,391.958,1.0,27,110.5
2596,E-3,392.958,1.0,27,110.5
2597,G3,392.958,1.0,27,110.5
2598,C2,392.958,1.0,27,110.5
2599,G2,392.958,1.0,27,110.5
2600,B1,393.958,1.0,26,110.5
2601,E-2,393.958,1.0,26,110.5
2602,B2,393.958,1.0,26,110.5
2603,E-3,393.958,1.0,26,110.5
2604,A3,393.958,1.0,26,110.5
2605,B-1,394.958,1.5,26,110.5
2606,F2,394.958,2.0,26,110.5
2607,B-2,394.958,2.0,26,110.5
2608,D3,394.958,2.0,26,110.5
2609,B-3,394.958,2.0,26,110.5
2610,B-0,395.958,0.5,25,110.5
2611,B-1,395.958,1.0,25,110.5
2612,B-0,398.958,0.5,25,110.5
2613,B-1,398.958,0.5,25,110.5
2614,B-2,398.958,2.0,26,110.5
2615,D3,398.958,2.0,26,110.5
2616,B-3,398.958,2.0,26,110.5
2617,F#7,399.0,0.25,48,110.5
2618,E-7,399.25,0.25,35,110.5
2619,F#6,399.5,0.25,35,110.5
2620,D6,399.75,0.25,31,110.5
2621,B-0,399.958,0.5,25,110.5
2622,B-1,399.958,0.5,25,110.5
2623,E-6,400.0,0.25,35,110.5
2624,B5,400.25,0.25,33,110.5
2625,E-5,400.5,0.25,35,110.5
2626,B-4,400.75,0.25,35,110.5
2627,B-2,400.958,1.0,25,110.5
2628,B-3,400.958,1.0,25,110.5
2629,B4,401.0,0.25,35,110.5
2630,F#4,401.25,0.25,33,110.5
2631,E-4,401.5,0.25,35,110.5
2632,C#4,401.75,0.25,33,110.5
2633,F#2,401.958,1.0,25,110.5
2634,B-3,401.958,1.0,25,110.5
2635,E-2,402.958,1.0,25,110.5
2636,F#3,402.958,1.0,25,110.5
2637,B-3,402.958,1.0,25,110.5
2638,B1,403.958,1.0,22,110.5
2639,E-3,403.958,1.0,22,110.5
2640,F#3,403.958,1.0,22,110.5
2641,B3,403.958,1.0,22,110.5
2642,G#1,404.958,917/1000,22,110.5
2643,E-3,404.958,917/1000,22,110.5
2644,G#3,404.958,917/1000,22,110.5
2645,B3,404.958,917/1000,22,110.5
2646,E1,405.958,1.0,18,110.5
2647,E2,405.958,1.0,18,110.5
2648,G#3,405.958,1.0,18,110.5
2649,B3,405.958,1.0,18,110.5
2650,E4,405.958,1.0,18,110.5
2651,B1,406.958,1.5,18,110.5
2652,B2,406.958,2.0,18,110.5
2653,F#3,406.958,2.0,18,110.5
2654,B3,406.958,2.0,18,110.5
2655,E-4,406.958,2.0,18,110.5
2656,B0,407.958,0.5,25,110.5
2657,B1,407.958,1.0,25,110.5
2658,G#7,409.0,0.25,52,110.5
2659,F7,409.25,0.25,35,110.5
2660,G#6,409.5,0.25,35,110.5
2661,E6,409.75,0.25,34,110.5
2662,F6,410.0,0.25,35,110.5
2663,C#6,410.25,0.25,34,110.5
2664,F5,410.5,0.25,35,110.5
2665,C5,410.75,0.25,33,110.5
2666,B0,410.958,0.5,25,110.5
2667,B1,410.958,0.5,25,110.5
2668,F#3,410.958,2.0,18,110.5
2669,B3,410.958,2.0,18,110.5
2670,E-4,410.958,2.0,18,110.5
2671,C#5,411.0,0.25,35,110.5
2672,G#4,411.25,0.25,34,110.5
2673,F4,411.5,0.25,35,110.5
2674,E-4,411.75,0.25,34,110.5
2675,B0,411.958,0.5,25,110.5
2676,B1,411.958,0.5,25,110.5
2677,B2,412.958,1.0,27,110.5
2678,B3,412.958,1.0,27,110.5
2679,C#5,413.0,1.0,41,110.5
2680,C#4,413.0,1.0,41,110.5
2681,B2,413.958,1.0,27,110.5
2682,B3,413.958,1.0,27,110.5
2683,A2,413.958,1.0,27,110.5
2684,C#5,414.0,1.0,41,110.5
2685,C#4,414.0,1.0,41,110.5
2686,B-4,414.0,1.0,41,110.5
2687,G2,414.958,1.0,27,110.5
2688,B2,414.958,1.0,27,110.5
2689,B3,414.958,1.0,27,110.5
2690,B-4,415.0,1.0,52,110.5
2691,F#4,415.0,1.0,52,110.5
2692,E-5,415.0,1.0,52,110.5
2693,F#5,415.0,1.0,52,110.5
2694,F#2,415.958,1.0,30,110.5
2695,B2,415.958,1.0,30,110.5
2696,B3,415.958,1.0,30,110.5
2697,A3,415.958,1.0,30,110.5
2698,F#4,416.0,1.0,57,110.5
2699,F#5,416.0,1.0,57,110.5
2700,B4,416.0,1.0,57,110.5
2701,E-5,416.0,1.0,57,110.5
2702,E2,416.958,1.0,30,110.5
2703,B2,416.958,1.0,30,110.5
2704,G3,416.958,1.0,30,110.5
2705,B3,416.958,1.0,30,110.5
2706,B5,417.0,1.0,63,110.5
2707,G#5,417.0,1.0,63,110.5
2708,E-5,417.0,1.0,63,110.5
2709,B4,417.0,1.0,63,110.5
2710,D2,417.958,1.0,29,110.5
2711,F#2,417.958,1.0,29,110.5
2712,D3,417.958,1.0,29,110.5
2713,F#3,417.958,1.0,29,110.5
2714,C4,417.958,1.0,29,110.5
2715,B-4,418.0,2.0,63,110.5
2716,D5,418.0,2.0,63,110.5
2717,F5,418.0,2.0,63,110.5
2718,B-5,418.0,2.0,63,110.5
2719,C#2,418.958,1.5,27,110.5
2720,G#2,418.958,2.0,27,110.5
2721,C#3,418.958,2.0,27,110.5
2722,F3,418.958,2.0,27,110.5
2723,C#4,418.958,2.0,27,110.5
2724,F7,419.0,0.25,70,110.5
2725,D7,419.25,0.25,56,110.5
2726,F6,419.5,0.25,56,110.5
2727,D6,419.75,0.25,53,110.5
2728,C#1,419.958,0.5,25,110.5
2729,C#2,419.958,1.0,25,110.5
2730,B-5,420.0,0.25,56,110.5
2731,D5,420.25,0.25,53,110.5
2732,B-4,420.5,0.5,56,110.5
2733,B-5,421.0,1.0,62,110.5
2734,F#6,421.0,1.0,62,110.5
2735,E-6,421.0,1.0,62,110.5
2736,F#5,421.0,1.0,62,110.5
2737,F6,422.0,2.0,62,110.5
2738,D6,422.0,2.0,62,110.5
2739,F5,422.0,2.0,62,110.5
2740,B-5,422.0,2.0,62,110.5
2741,C#1,422.958,0.5,25,110.5
2742,C#2,422.958,0.5,25,110.5
2743,F3,422.958,2.0,27,110.5
2744,C#4,422.958,2.0,27,110.5
2745,F4,423.0,1.0,57,110.5
2746,D5,423.0,1.0,57,110.5
2747,B-4,423.0,1.0,57,110.5
2748,F5,423.0,1.0,57,110.5
2749,C#1,423.958,0.5,25,110.5
2750,C#2,423.958,0.5,25,110.5
2751,D5,424.0,1.0,57,110.5
2752,B-4,424.0,1.0,57,110.5
2753,F5,424.0,1.0,57,110.5
2754,C#3,424.958,99/100,30,110.5
2755,C#4,424.958,99/100,30,110.5
2756,E-6,425.0,1.0,67,110.5
2757,B5,425.0,1.0,67,110.5
2758,F#5,425.0,1.0,67,110.5
2759,E-5,425.0,1.0,67,110.5
2760,B-2,425.958,1.0,30,110.5
2761,B-3,425.958,1.0,30,110.5
2762,C#5,426.0,2.0,67,110.5
2763,C#6,426.0,2.0,67,110.5
2764,G#5,426.0,2.0,67,110.5
2765,F5,426.0,2.0,67,110.5
2766,F#2,426.958,1.0,30,110.5
2767,B-2,426.958,1.0,30,110.5
2768,F#3,426.958,1.0,30,110.5
2769,G#7,427.0,0.25,72,110.5
2770,F7,427.25,0.25,68,110.5
2771,G#6,427.5,0.25,68,110.5
2772,F6,427.75,0.25,66,110.5
2773,E-2,427.958,1.0,40,110.5
2774,B-2,427.958,1.0,40,110.5
2775,E-3,427.958,1.0,40,110.5
2776,C#6,428.0,0.25,68,110.5
2777,F5,428.25,0.25,67,110.5
2778,C#5,428.5,0.5,68,110.5
2779,B1,428.958,1.0,44,110.5
2780,E-2,428.958,1.0,44,110.5
2781,B2,428.958,1.0,44,110.5
2782,B-6,429.0,1.0,72,110.5
2783,F#6,429.0,1.0,72,110.5
2784,C#6,429.0,1.0,72,110.5
2785,B-5,429.0,1.0,72,110.5
2786,G#1,429.958,1.0,50,110.5
2787,E-2,429.958,1.0,50,110.5
2788,G#2,429.958,1.0,50,110.5
2789,C#6,430.0,2.0,72,110.5
2790,G#5,430.0,2.0,72,110.5
2791,F6,430.0,2.0,72,110.5
2792,G#6,430.0,2.0,72,110.5
2793,B-1,430.958,2.0,51,110.5
2794,D2,430.958,2.0,51,110.5
2795,F2,430.958,2.0,51,110.5
2796,B-2,430.958,2.0,51,110.5
2797,G#4,431.0,1.0,73,110.5
2798,G#5,431.0,1.0,73,110.5
2799,F5,431.0,1.0,73,110.5
2800,C#5,431.0,1.0,73,110.5
2801,B-4,431.958,1.0,41,110.5
2802,B-3,431.958,1.0,41,110.5
2803,D4,431.958,1.0,41,110.5
2804,F4,431.958,1.0,41,110.5
2805,G#4,432.0,1.0,73,110.5
2806,G#5,432.0,1.0,73,110.5
2807,F5,432.0,1.0,73,110.5
2808,C#5,432.0,1.0,73,110.5
2809,B-3,432.958,1.0,41,110.5
2810,D4,432.958,1.0,41,110.5
2811,F4,432.958,1.0,41,110.5
2812,G#4,433.0,1.0,66,110.5
2813,C#5,433.0,1.0,66,110.5
2814,E5,433.0,1.0,66,110.5
2815,G#5,433.0,1.0,66,110.5
2816,E-3,433.958,1.0,48,110.5
2817,F#3,433.958,1.0,48,110.5
2818,B-3,433.958,1.0,48,110.5
2819,E-4,433.958,1.0,48,110.5
2820,C#5,434.0,1.0,66,110.5
2821,E5,434.0,1.0,66,110.5
2822,G#5,434.0,1.0,66,110.5
2823,B-3,434.958,2.0,48,110.5
2824,D4,434.958,2.0,48,110.5
2825,F4,434.958,2.0,48,110.5
2826,B-4,434.958,2.0,48,110.5
2827,G#5,435.0,1.0,81,110.5
2828,G#6,435.0,1.0,81,110.5
2829,C#6,435.0,1.0,81,110.5
2830,E6,435.0,1.0,81,110.5
2831,B-1,435.958,0.25,45,110.5
2832,F#5,436.0,1.0,81,110.5
2833,B-5,436.0,1.0,81,110.5
2834,C#6,436.0,1.0,81,110.5
2835,F#6,436.0,1.0,81,110.5
2836,F2,436.208,0.25,44,110.5
2837,B-2,436.458,0.25,45,110.5
2838,D3,436.708,0.25,44,110.5
2839,B-3,436.958,0.25,45,110.5
2840,F6,437.0,1.0,81,110.5
2841,C#6,437.0,1.0,81,110.5
2842,F5,437.0,1.0,81,110.5
2843,B-5,437.0,1.0,81,110.5
2844,D4,437.208,0.25,44,110.5
2845,F4,437.458,0.5,45,110.5
2846,B1,437.958,1.0,52,110.5
2847,E-2,437.958,1.0,52,110.5
2848,F#2,437.958,1.0,52,110.5
2849,B2,437.958,1.0,52,110.5
2850,E5,438.0,1.0,84,110.5
2851,B-5,438.0,1.0,84,110.5
2852,C#6,438.0,1.0,84,110.5
2853,E6,438.0,1.0,84,110.5
2854,C#2,438.958,2.0,52,110.5
2855,F2,438.958,2.0,52,110.5
2856,G#2,438.958,2.0,52,110.5
2857,C#3,438.958,2.0,52,110.5
2858,E-6,439.0,1.0,87,110.5
2859,E-5,439.0,1.0,87,110.5
2860,B5,439.0,1.0,87,110.5
2861,C#5,439.958,1.0,53,110.5
2862,C#4,439.958,1.0,53,110.5
2863,F4,439.958,1.0,53,110.5
2864,G#4,439.958,1.0,53,110.5
2865,E-6,440.0,1.0,91,110.5
2866,B-5,440.0,1.0,91,110.5
2867,E-5,440.0,1.0,91,110.5
2868,C#4,440.958,1.0,53,110.5
2869,F4,440.958,1.0,53,110.5
2870,G#4,440.958,1.0,53,110.5
2871,E-5,441.0,1.0,93,110.5
2872,E-6,441.0,1.0,93,110.5
2873,A5,441.0,1.0,93,110.5
2874,F#3,441.958,1.0,54,110.5
2875,B-3,441.958,1.0,54,110.5
2876,C#4,441.958,1.0,54,110.5
2877,F#4,441.958,1.0,54,110.5
2878,B-5,442.0,0.75,94,110.5
2879,E-6,442.0,0.75,94,110.5
2880,G5,442.0,0.75,94,110.5
2881,E-5,442.0,0.75,94,110.5
2882,C#4,442.958,2.0,56,110.5
2883,F4,442.958,2.0,56,110.5
2884,G#4,442.958,2.0,56,110.5
2885,C#5,442.958,2.0,56,110.5
2886,F4,443.0,0.25,77,110.5
2887,F5,443.0,0.25,77,110.5
2888,B-4,443.0,0.25,77,110.5
2889,D5,443.0,0.25,77,110.5
2890,G4,443.5,0.25,78,110.5
2891,B-4,443.5,0.25,78,110.5
2892,E-5,443.5,0.25,78,110.5
2893,G5,443.5,0.25,78,110.5
2894,C#2,443.958,0.25,55,110.5
2895,G#5,444.0,1.0,88,110.5
2896,E-5,444.0,1.0,88,110.5
2897,G#4,444.0,1.0,88,110.5
2898,C5,444.0,1.0,88,110.5
2899,G#2,444.208,0.25,52,110.5
2900,C#3,444.458,0.25,55,110.5
2901,F3,444.708,0.25,52,110.5
2902,C#4,444.958,0.25,55,110.5
2903,G4,445.0,0.25,76,110.5
2904,B-4,445.0,0.25,76,110.5
2905,E-5,445.0,0.25,76,110.5
2906,G5,445.0,0.25,76,110.5
2907,F4,445.208,0.25,52,110.5
2908,G#4,445.458,0.5,55,110.5
2909,E-5,445.5,0.25,75,110.5
2910,F4,445.5,0.25,75,110.5
2911,C5,445.5,0.25,75,110.5
2912,F5,445.5,0.25,75,110.5
2913,C#2,445.958,0.25,49,110.5
2914,G4,446.0,1.0,88,110.5
2915,B-4,446.0,1.0,88,110.5
2916,E-5,446.0,1.0,88,110.5
2917,G5,446.0,1.0,88,110.5
2918,G#2,446.208,0.25,48,110.5
2919,C#3,446.458,0.25,50,110.5
2920,E3,446.708,0.25,48,110.5
2921,C#4,446.958,0.25,50,110.5
2922,D5,447.0,0.25,84,110.5
2923,F5,447.0,0.25,84,110.5
2924,F4,447.0,0.25,84,110.5
2925,G#4,447.0,0.25,84,110.5
2926,E4,447.208,0.25,48,110.5
2927,G#4,447.458,0.5,50,110.5
2928,E-4,447.5,0.25,76,110.5
2929,G4,447.5,0.25,76,110.5
2930,B-4,447.5,0.25,76,110.5
2931,E-5,447.5,0.25,76,110.5
2932,F#1,447.958,0.5,49,110.5
2933,F5,448.0,0.25,76,110.5
2934,F4,448.0,0.25,76,110.5
2935,D5,448.0,0.25,76,110.5
2936,B-1,448.208,0.25,50,110.5
2937,C#2,448.458,0.25,51,110.5
2938,B-4,448.5,0.25,79,110.5
2939,F#2,448.708,0.25,52,110.5
2940,B-2,448.958,0.25,52,110.5
2941,E-4,449.0,1.0,90,110.5
2942,C5,449.0,1.0,90,110.5
2943,E-5,449.0,1.0,90,110.5
2944,C#3,449.208,0.25,52,110.5
2945,F#3,449.458,0.25,53,110.5
2946,B-3,449.708,0.25,55,110.5
2947,C#4,449.958,0.5,56,110.5
2948,E-5,450.0,1.0,82,110.5
2949,B-4,450.0,1.0,82,110.5
2950,D5,450.0,1.0,82,110.5
2951,E-4,450.0,1.0,82,110.5
2952,F#4,450.208,0.25,56,110.5
2953,B-4,450.458,0.25,57,110.5
2954,C#5,450.708,0.25,59,110.5
2955,F#4,450.75,26/125,51,110.5
2956,B-4,450.833,0.125,51,110.5
2957,C#5,450.917,21/500,55,110.5
2958,F#5,450.917,21/500,55,110.5
2959,F#4,450.958,0.25,51,110.5
2960,B-4,450.958,0.25,51,110.5
2961,C#5,450.958,26/125,55,110.5
2962,F#5,450.958,26/125,55,110.5
2963,E-4,451.0,0.875,81,110.5
2964,G#4,451.0,0.875,81,110.5
2965,C5,451.0,0.875,81,110.5
2966,E-5,451.0,0.875,81,110.5
2967,B4,451.958,0.5,59,110.5
2968,E-5,452.0,1.0,84,110.5
2969,E-4,452.0,1.0,84,110.5
2970,G4,452.0,1.0,84,110.5
2971,B-4,452.0,1.0,84,110.5
2972,F#4,452.208,0.25,60,110.5
2973,E-4,452.458,0.25,61,110.5
2974,B3,452.708,0.25,61,110.5
2975,F#3,452.958,0.5,62,110.5
2976,D4,453.0,0.25,84,110.5
2977,F4,453.0,0.25,84,110.5
2978,B-4,453.0,0.25,84,110.5
2979,D5,453.0,0.25,84,110.5
2980,E-3,453.208,0.25,62,110.5
2981,B2,453.458,0.25,64,110.5
2982,B-4,453.5,0.25,81,110.5
2983,E-5,453.5,0.25,81,110.5
2984,E-4,453.5,0.25,81,110.5
2985,G4,453.5,0.25,81,110.5
2986,F#2,453.708,0.25,66,110.5
2987,E-2,453.958,0.5,66,110.5
2988,C5,454.0,1.0,88,110.5
2989,E-5,454.0,1.0,88,110.5
2990,G5,454.0,1.0,88,110.5
2991,G4,454.0,1.0,88,110.5
2992,B1,454.208,0.25,66,110.5
2993,F#1,454.458,0.25,67,110.5
2994,E-1,454.708,0.25,68,110.5
2995,B-3,454.958,0.75,71,110.5
2996,E-4,454.958,0.75,71,110.5
2997,G4,454.958,0.75,71,110.5
2998,B-4,454.958,0.75,71,110.5
2999,C5,455.0,0.25,84,110.5
3000,F4,455.0,0.25,84,110.5
3001,G#4,455.0,0.25,84,110.5
3002,F5,455.0,0.25,84,110.5
3003,E-4,455.5,0.25,82,110.5
3004,G4,455.5,0.25,82,110.5
3005,E-5,455.5,0.25,82,110.5
3006,C5,455.5,0.25,82,110.5
3007,B-3,455.958,0.25,63,110.5
3008,B-2,455.958,0.25,63,110.5
3009,B-4,456.0,1.0,86,110.5
3010,G4,456.0,1.0,86,110.5
3011,D4,456.0,1.0,86,110.5
3012,D5,456.0,1.0,86,110.5
3013,E-2,456.458,0.25,60,110.5
3014,E-3,456.458,0.25,60,110.5
3015,E-4,456.958,1.0,71,110.5
3016,C4,456.958,1.0,71,110.5
3017,G#3,456.958,1.0,71,110.5
3018,E-3,456.958,1.0,71,110.5
3019,C4,457.0,0.25,77,110.5
3020,E-4,457.0,0.25,77,110.5
3021,G4,457.0,0.25,77,110.5
3022,C5,457.0,0.25,77,110.5
3023,D4,457.5,0.25,76,110.5
3024,B-3,457.5,0.25,76,110.5
3025,G4,457.5,0.25,76,110.5
3026,B-4,457.5,0.25,76,110.5
3027,E-2,457.958,0.25,62,110.5
3028,E-3,457.958,0.25,62,110.5
3029,A3,458.0,0.25,81,110.5
3030,A4,458.0,0.25,81,110.5
3031,F#4,458.0,0.25,81,110.5
3032,G#1,458.458,0.25,60,110.5
3033,G#2,458.458,0.25,60,110.5
3034,D4,458.5,0.25,80,110.5
3035,E-2,458.958,1.0,72,110.5
3036,B-2,458.958,1.0,72,110.5
3037,E-3,458.958,1.0,72,110.5
3038,G4,459.0,1.0,85,110.5
3039,G3,459.0,1.0,85,110.5
3040,B-1,459.958,0.25,66,110.5
3041,B-2,459.958,0.25,66,110.5
3042,G3,460.0,1.0,85,110.5
3043,F#4,460.0,1.0,85,110.5
3044,G4,460.0,1.0,85,110.5
3045,E-1,460.458,0.25,62,110.5
3046,E-2,460.458,0.25,62,110.5
3047,B-1,460.958,0.25,62,110.5
3048,B-2,460.958,0.25,62,110.5
3049,G4,461.0,0.875,79,110.5
3050,G3,461.0,0.875,79,110.5
3051,F4,461.0,0.875,79,110.5
3052,B-3,461.458,0.25,62,110.5
3053,B-2,461.458,0.25,62,110.5
3054,E-2,461.958,1.0,70,110.5
3055,E-3,461.958,1.0,70,110.5
3056,G4,462.0,1.0,69,110.5
3057,B-4,462.0,1.0,69,110.5
3058,E-5,462.0,1.0,69,110.5
3059,G5,462.0,1.0,69,110.5
3060,D4,462.958,1.0,67,110.5
3061,B-3,462.958,1.0,67,110.5
3062,E-3,462.958,1.0,67,110.5
3063,D5,463.0,0.5,61,110.5
3064,F5,463.0,0.5,61,110.5
3065,F4,463.0,0.5,61,110.5
3066,B-4,463.0,0.5,61,110.5
3067,G4,463.5,0.5,66,110.5
3068,B-4,463.5,0.5,66,110.5
3069,E-5,463.5,0.5,66,110.5
3070,G5,463.5,0.5,66,110.5
3071,E-3,463.958,1.0,65,110.5
3072,G#3,463.958,1.0,65,110.5
3073,C4,463.958,1.0,65,110.5
3074,E-5,464.0,1.0,72,110.5
3075,G#4,464.0,1.0,72,110.5
3076,C5,464.0,1.0,72,110.5
3077,G#5,464.0,1.0,72,110.5
3078,E-2,464.958,1.0,65,110.5
3079,B-2,464.958,1.0,65,110.5
3080,E-3,464.958,1.0,65,110.5
3081,G4,465.0,0.5,62,110.5
3082,B-4,465.0,0.5,62,110.5
3083,G5,465.0,0.5,62,110.5
3084,E-5,465.0,0.5,62,110.5
3085,F5,465.5,0.5,64,110.5
3086,C5,465.5,0.5,64,110.5
3087,F4,465.5,0.5,64,110.5
3088,E-5,465.5,0.5,64,110.5
3089,B-1,465.958,0.25,68,110.5
3090,B-2,465.958,0.25,68,110.5
3091,G4,466.0,1.0,69,110.5
3092,B-4,466.0,1.0,69,110.5
3093,E-5,466.0,1.0,69,110.5
3094,G5,466.0,1.0,69,110.5
3095,E-2,466.458,0.25,64,110.5
3096,E-1,466.458,0.25,64,110.5
3097,C4,466.958,1.0,71,110.5
3098,G3,466.958,1.0,71,110.5
3099,E-3,466.958,1.0,71,110.5
3100,C3,466.958,1.0,71,110.5
3101,G#4,467.0,0.5,68,110.5
3102,F4,467.0,0.5,68,110.5
3103,D5,467.0,0.5,68,110.5
3104,F5,467.0,0.5,68,110.5
3105,E-4,467.5,0.5,65,110.5
3106,E-5,467.5,0.5,65,110.5
3107,G4,467.5,0.5,65,110.5
3108,B-4,467.5,0.5,65,110.5
3109,F2,467.958,0.25,66,110.5
3110,F3,467.958,0.25,66,110.5
3111,D5,468.0,0.5,69,110.5
3112,F4,468.0,0.5,69,110.5
3113,F5,468.0,0.5,69,110.5
3114,C2,468.458,0.25,66,110.5
3115,C3,468.458,0.25,66,110.5
3116,B-4,468.5,0.5,70,110.5
3117,G2,468.958,1.0,69,110.5
3118,B-2,468.958,1.0,69,110.5
3119,D3,468.958,1.0,69,110.5
3120,G3,468.958,1.0,69,110.5
3121,E-4,469.0,1.0,80,110.5
3122,E-5,469.0,1.0,80,110.5
3123,C2,469.958,0.25,62,110.5
3124,C3,469.958,0.25,62,110.5
3125,E-5,470.0,1.0,80,110.5
3126,C#5,470.0,1.0,80,110.5
3127,E-4,470.0,1.0,80,110.5
3128,G1,470.458,0.25,59,110.5
3129,G2,470.458,0.25,59,110.5
3130,D1,470.958,0.25,63,110.5
3131,D2,470.958,0.25,63,110.5
3132,E-4,471.0,0.875,86,110.5
3133,B-4,471.0,0.875,86,110.5
3134,E-5,471.0,0.875,86,110.5
3135,D3,471.458,0.25,58,110.5
3136,D2,471.458,0.25,58,110.5
3137,G1,471.958,1.0,67,110.5
3138,G2,471.958,1.0,67,110.5
3139,G#5,472.0,1.0,93,110.5
3140,B5,472.0,1.0,93,110.5
3141,G#6,472.0,1.0,93,110.5
3142,E-6,472.0,1.0,93,110.5
3143,F#3,472.958,1.0,66,110.5
3144,G2,472.958,1.0,66,110.5
3145,D6,473.0,0.25,90,110.5
3146,B-5,473.0,0.25,90,110.5
3147,D5,473.0,0.25,90,110.5
3148,E-6,473.5,0.25,87,110.5
3149,B5,473.5,0.25,87,110.5
3150,E-5,473.5,0.25,87,110.5
3151,G2,473.958,0.875,61,110.5
3152,F3,473.958,0.875,61,110.5
3153,G#5,474.0,1.0,92,110.5
3154,B5,474.0,1.0,92,110.5
3155,E5,474.0,1.0,92,110.5
3156,B4,474.0,1.0,92,110.5
3157,E-3,474.958,1.0,54,110.5
3158,G3,474.958,1.0,54,110.5
3159,B-3,474.958,1.0,54,110.5
3160,E-4,474.958,1.0,54,110.5
3161,G5,475.0,0.25,82,110.5
3162,G4,475.0,0.25,82,110.5
3163,E-5,475.0,0.25,82,110.5
3164,G#4,475.5,0.25,80,110.5
3165,G#5,475.5,0.25,80,110.5
3166,E5,475.5,0.25,80,110.5
3167,B-3,475.958,0.5,50,110.5
3168,B-2,475.958,0.5,50,110.5
3169,E5,476.0,1.0,88,110.5
3170,C#5,476.0,1.0,88,110.5
3171,G#4,476.0,1.0,88,110.5
3172,E4,476.0,1.0,88,110.5
3173,E-2,476.458,0.5,56,110.5
3174,E-3,476.458,0.5,56,110.5
3175,E-3,476.958,1.0,61,110.5
3176,G#3,476.958,1.0,61,110.5
3177,G#2,476.958,1.0,61,110.5
3178,C4,477.0,0.25,77,110.5
3179,C5,477.0,0.25,77,110.5
3180,G#4,477.0,0.25,77,110.5
3181,C#5,477.5,0.25,77,110.5
3182,E4,477.5,0.25,77,110.5
3183,C#4,477.5,0.25,77,110.5
3184,E-2,477.958,0.5,50,110.5
3185,E-3,477.958,0.5,50,110.5
3186,B3,478.0,1.0,84,110.5
3187,B4,478.0,1.0,84,110.5
3188,D4,478.0,1.0,84,110.5
3189,F4,478.0,1.0,84,110.5
3190,G#1,478.458,0.5,52,110.5
3191,G#2,478.458,0.5,52,110.5
3192,E-2,478.958,1.0,52,110.5
3193,B-2,478.958,1.0,52,110.5
3194,E-3,478.958,1.0,52,110.5
3195,B-4,479.0,1.0,93,110.5
3196,E-4,479.0,0.25,83,110.5
3197,B-3,479.0,0.25,83,110.5
3198,B3,479.5,0.25,85,110.5
3199,E-4,479.5,0.25,85,110.5
3200,G#4,479.5,0.25,85,110.5
3201,B-1,479.958,0.5,56,110.5
3202,B-2,479.958,0.5,56,110.5
3203,F#4,480.0,0.75,88,110.5
3204,B-3,480.0,0.75,88,110.5
3205,E-4,480.0,0.75,88,110.5
3206,B-4,480.0,0.75,88,110.5
3207,E-1,480.458,0.5,54,110.5
3208,E-2,480.458,0.5,54,110.5
3209,B-1,480.958,0.5,54,110.5
3210,B-2,480.958,0.5,54,110.5
3211,G#3,481.0,0.75,86,110.5
3212,D4,481.0,0.75,86,110.5
3213,B-4,481.0,0.75,86,110.5
3214,F4,481.0,0.75,86,110.5
3215,B-3,481.458,0.5,52,110.5
3216,B-2,481.458,0.5,52,110.5
3217,E-2,481.958,1.0,61,110.5
3218,E-3,481.958,1.0,61,110.5
3219,B-3,482.0,0.25,86,110.5
3220,F#3,482.0,0.25,86,110.5
3221,E-4,482.0,0.25,86,110.5
3222,B-5,482.75,0.25,73,110.5
3223,B-4,482.75,0.25,73,110.5
3224,E-2,482.958,1.0,61,110.5
3225,C#2,482.958,1.0,61,110.5
3226,C#3,482.958,1.0,61,110.5
3227,F4,483.0,0.25,72,110.5
3228,F#4,483.75,0.25,73,110.5
3229,F#5,483.75,0.25,73,110.5
3230,B-1,483.958,0.875,65,110.5
3231,E-2,483.958,0.875,65,110.5
3232,B-2,483.958,0.875,65,110.5
3233,E-4,484.0,0.25,72,110.5
3234,B-5,484.75,0.25,75,110.5
3235,B-4,484.75,0.25,75,110.5
3236,G#1,484.958,1.0,75,110.5
3237,E-2,484.958,1.0,75,110.5
3238,G#2,484.958,1.0,75,110.5
3239,F4,485.0,0.25,74,110.5
3240,F#4,485.75,0.25,75,110.5
3241,F#5,485.75,0.25,75,110.5
3242,B1,485.958,0.25,70,110.5
3243,B2,485.958,0.25,70,110.5
3244,E-4,486.0,0.25,74,110.5
3245,G#2,486.458,0.25,68,110.5
3246,G#1,486.458,0.25,68,110.5
3247,E-5,486.75,0.25,80,110.5
3248,E-6,486.75,0.25,80,110.5
3249,B2,486.958,1.0,72,110.5
3250,E2,486.958,1.0,72,110.5
3251,G#2,486.958,1.0,72,110.5
3252,E3,486.958,1.0,72,110.5
3253,F4,487.0,0.25,74,110.5
3254,F6,487.75,0.25,76,110.5
3255,F5,487.75,0.25,76,110.5
3256,G#2,487.958,0.25,66,110.5
3257,G#3,487.958,0.25,66,110.5
3258,F#4,488.0,0.25,74,110.5
3259,E2,488.458,0.25,64,110.5
3260,E3,488.458,0.25,64,110.5
3261,F#5,488.75,0.25,76,110.5
3262,F#6,488.75,0.25,76,110.5
3263,C#4,488.958,1.0,71,110.5
3264,G#3,488.958,1.0,71,110.5
3265,E3,488.958,1.0,71,110.5
3266,C#3,488.958,1.0,71,110.5
3267,A4,489.0,0.25,74,110.5
3268,A6,489.75,0.25,86,110.5
3269,A5,489.75,0.25,86,110.5
3270,E2,489.958,0.25,62,110.5
3271,E3,489.958,0.25,62,110.5
3272,B-6,490.0,1.0,76,110.5
3273,B-5,490.0,1.0,76,110.5
3274,F#6,490.0,1.0,76,110.5
3275,E-6,490.0,1.0,76,110.5
3276,C#2,490.458,0.25,62,110.5
3277,C#3,490.458,0.25,62,110.5
3278,G#2,490.958,1.0,66,110.5
3279,D3,490.958,1.0,66,110.5
3280,F3,490.958,1.0,66,110.5
3281,G#3,490.958,1.0,66,110.5
3282,G#4,491.0,1.0,81,110.5
3283,D4,491.0,1.0,81,110.5
3284,B-4,491.0,1.0,81,110.5
3285,D5,491.0,1.0,81,110.5
3286,F#2,491.958,0.25,70,110.5
3287,F#3,491.958,0.25,70,110.5
3288,E-4,492.0,0.25,73,110.5
3289,F#4,492.0,0.25,73,110.5
3290,E-5,492.0,0.25,73,110.5
3291,F3,492.458,0.25,67,110.5
3292,F2,492.458,0.25,67,110.5
3293,B5,492.75,0.25,65,110.5
3294,B4,492.75,0.25,65,110.5
3295,B-2,492.958,0.75,70,110.5
3296,B-3,492.958,0.75,70,110.5
3297,F#4,493.0,0.25,66,110.5
3298,G5,493.75,0.25,73,110.5
3299,G4,493.75,0.25,73,110.5
3300,B-1,493.958,0.75,70,110.5
3301,B-2,493.958,0.75,70,110.5
3302,E-4,494.0,0.25,66,110.5
3303,B5,494.75,0.25,71,110.5
3304,B4,494.75,0.25,71,110.5
3305,E-2,494.958,0.25,55,110.5
3306,F#4,495.0,0.25,66,110.5
3307,B-2,495.208,0.25,52,110.5
3308,E-3,495.458,0.25,55,110.5
3309,F#3,495.708,0.25,52,110.5
3310,G5,495.75,0.25,68,110.5
3311,G4,495.75,0.25,68,110.5
3312,B-2,495.958,1.0,43,110.5
3313,D3,495.958,1.0,43,110.5
3314,G#3,495.958,1.0,43,110.5
3315,E-4,496.0,0.25,66,110.5
3316,F#6,496.75,0.25,67,110.5
3317,F#5,496.75,0.25,67,110.5
3318,E-2,496.958,0.25,53,110.5
3319,F4,497.0,0.25,72,110.5
3320,B-2,497.208,0.25,52,110.5
3321,E-3,497.458,0.25,53,110.5
3322,F#3,497.708,0.25,53,110.5
3323,F6,497.75,0.25,70,110.5
3324,F5,497.75,0.25,70,110.5
3325,B-2,497.958,1.0,43,110.5
3326,D3,497.958,1.0,43,110.5
3327,G#3,497.958,1.0,43,110.5
3328,E-4,498.0,0.25,71,110.5
3329,E-6,498.75,0.25,70,110.5
3330,E-5,498.75,0.25,70,110.5
3331,E-2,498.958,0.5,52,110.5
3332,A3,499.0,0.25,69,110.5
3333,B2,499.208,0.25,50,110.5
3334,E-3,499.458,0.25,52,110.5
3335,F#3,499.708,0.25,50,110.5
3336,A6,499.75,0.25,82,110.5
3337,A5,499.75,0.25,82,110.5
3338,C3,499.958,1.0,43,110.5
3339,E-3,499.958,1.0,43,110.5
3340,A3,499.958,1.0,43,110.5
3341,B-6,500.0,1.0,75,110.5
3342,F#6,500.0,1.0,75,110.5
3343,E-6,500.0,1.0,75,110.5
3344,B-5,500.0,1.0,75,110.5
3345,E-2,500.958,0.5,52,110.5
3346,E-6,501.0,1.0,74,110.5
3347,E-5,501.0,1.0,74,110.5
3348,G#5,501.0,1.0,74,110.5
3349,B5,501.0,1.0,74,110.5
3350,C3,501.208,0.25,51,110.5
3351,E-3,501.458,0.25,52,110.5
3352,A3,501.708,0.25,50,110.5
3353,E-3,501.958,1.0,44,110.5
3354,F#3,501.958,1.0,44,110.5
3355,C4,501.958,1.0,44,110.5
3356,E-4,502.0,1.0,68,110.5
3357,A4,502.0,1.0,68,110.5
3358,C5,502.0,1.0,68,110.5
3359,E-5,502.0,1.0,68,110.5
3360,B-1,502.958,1.0,52,110.5
3361,E-2,502.958,1.0,52,110.5
3362,F#2,502.958,1.0,52,110.5
3363,B-2,502.958,1.0,52,110.5
3364,D4,503.0,1.0,65,110.5
3365,F4,503.0,1.0,65,110.5
3366,G#3,503.0,1.0,65,110.5
3367,B-3,503.0,1.0,65,110.5
3368,B-4,503.0,1.0,65,110.5
3369,B-2,503.958,1.0,52,110.5
3370,F3,503.958,1.0,52,110.5
3371,G#3,503.958,1.0,52,110.5
3372,B-3,503.958,1.0,52,110.5
3373,B1,504.958,0.25,46,110.5
3374,F#2,505.208,0.25,45,110.5
3375,B2,505.458,0.25,46,110.5
3376,E-3,505.708,0.25,45,110.5
3377,B2,505.958,1.0,36,110.5
3378,E3,505.958,1.0,36,110.5
3379,B-3,505.958,1.0,36,110.5
3380,B1,506.958,0.25,46,110.5
3381,F#2,507.208,0.25,45,110.5
3382,B2,507.458,0.25,46,110.5
3383,E-3,507.708,0.25,45,110.5
3384,B2,507.958,1.0,35,110.5
3385,E3,507.958,1.0,35,110.5
3386,B-3,507.958,1.0,35,110.5
3387,E-4,508.0,167/1000,53,110.5
3388,D4,508.333,167/1000,51,110.5
3389,E-4,508.667,167/1000,53,110.5
3390,B1,508.958,0.25,41,110.5
3391,F4,509.0,167/1000,53,110.5
3392,F#2,509.208,0.25,39,110.5
3393,E-4,509.333,167/1000,51,110.5
3394,B2,509.458,0.25,41,110.5
3395,D4,509.667,167/1000,53,110.5
3396,E-3,509.708,1.25,39,110.5
3397,C3,509.958,1.0,36,110.5
3398,A3,509.958,1.0,36,110.5
3399,F#4,510.0,167/1000,56,110.5
3400,D4,510.333,167/1000,53,110.5
3401,F4,510.333,167/1000,53,110.5
3402,E-4,510.667,167/1000,56,110.5
3403,F#4,510.667,167/1000,56,110.5
3404,F1,510.958,0.25,41,110.5
3405,G#4,511.0,167/1000,56,110.5
3406,F2,511.208,0.25,40,110.5
3407,F#4,511.333,167/1000,52,110.5
3408,E-4,511.333,167/1000,52,110.5
3409,A2,511.458,0.25,41,110.5
3410,F4,511.667,167/1000,56,110.5
3411,D4,511.667,167/1000,56,110.5
3412,C3,511.708,1.25,40,110.5
3413,E-3,511.958,1.0,35,110.5
3414,F2,511.958,1.0,35,110.5
3415,E-5,512.0,167/1000,66,110.5
3416,D6,512.333,167/1000,63,110.5
3417,D5,512.333,167/1000,63,110.5
3418,E-5,512.667,167/1000,66,110.5
3419,E-6,512.667,167/1000,66,110.5
3420,B-1,512.958,1.0,59,110.5
3421,E-2,512.958,1.0,59,110.5
3422,F#2,512.958,1.0,59,110.5
3423,B-2,512.958,1.0,59,110.5
3424,F5,513.0,167/1000,66,110.5
3425,E-6,513.333,167/1000,63,110.5
3426,E-5,513.333,167/1000,63,110.5
3427,F5,513.667,167/1000,66,110.5
3428,F6,513.667,167/1000,66,110.5
3429,B-2,513.958,1.0,56,110.5
3430,E-3,513.958,1.0,56,110.5
3431,G#3,513.958,1.0,56,110.5
3432,B3,513.958,1.0,56,110.5
3433,F#5,514.0,167/1000,77,110.5
3434,F5,514.333,167/1000,74,110.5
3435,F6,514.333,167/1000,74,110.5
3436,F#6,514.667,167/1000,77,110.5
3437,F#5,514.667,167/1000,77,110.5
3438,B-2,514.958,1.0,54,110.5
3439,F3,514.958,1.0,54,110.5
3440,C4,514.958,1.0,54,110.5
3441,G#5,515.0,167/1000,85,110.5
3442,F#6,515.333,167/1000,83,110.5
3443,F#5,515.333,167/1000,83,110.5
3444,F5,515.667,167/1000,85,110.5
3445,F6,515.667,167/1000,85,110.5
3446,B-1,515.958,1.0,55,110.5
3447,B-2,515.958,1.0,55,110.5
3448,E-6,516.0,167/1000,80,110.5
3449,B-5,516.0,167/1000,80,110.5
3450,F#6,516.0,167/1000,80,110.5
3451,F#5,516.0,167/1000,80,110.5
3452,F5,516.333,167/1000,84,110.5
3453,F6,516.333,167/1000,84,110.5
3454,F#5,516.667,167/1000,86,110.5
3455,F#6,516.667,167/1000,86,110.5
3456,E-2,516.833,0.125,27,110.5
3457,F#2,516.833,0.125,27,110.5
3458,B-2,516.917,21/500,39,110.5
3459,E-3,516.917,21/500,39,110.5
3460,E-2,516.958,0.125,27,110.5
3461,F#2,516.958,0.125,27,110.5
3462,B-2,516.958,0.125,39,110.5
3463,E-3,516.958,0.125,39,110.5
3464,E-6,517.0,167/1000,80,110.5
3465,B5,517.0,167/1000,80,110.5
3466,G#6,517.0,167/1000,80,110.5
3467,G#5,517.0,167/1000,80,110.5
3468,D3,517.292,167/1000,37,110.5
3469,F#5,517.333,167/1000,83,110.5
3470,F#6,517.333,167/1000,83,110.5
3471,E-3,517.625,167/1000,36,110.5
3472,F6,517.667,167/1000,86,110.5
3473,F5,517.667,167/1000,86,110.5
3474,E-2,517.833,0.25,26,110.5
3475,G#2,517.833,0.25,26,110.5
3476,B2,517.917,167/1000,31,110.5
3477,F3,517.917,167/1000,31,110.5
3478,F#6,518.0,167/1000,81,110.5
3479,E-6,518.0,167/1000,81,110.5
3480,F#5,518.0,167/1000,81,110.5
3481,B-5,518.0,167/1000,81,110.5
3482,E-3,518.292,167/1000,35,110.5
3483,F5,518.333,167/1000,85,110.5
3484,F6,518.333,167/1000,85,110.5
3485,D3,518.625,167/1000,35,110.5
3486,F#6,518.667,167/1000,88,110.5
3487,F#5,518.667,167/1000,88,110.5
3488,E-2,518.875,83/1000,28,110.5
3489,B-2,518.875,83/1000,28,110.5
3490,F#3,518.958,167/1000,38,110.5
3491,E-2,518.958,0.125,28,110.5
3492,B-2,518.958,0.125,28,110.5
3493,B5,519.0,167/1000,81,110.5
3494,E-6,519.0,167/1000,81,110.5
3495,G#6,519.0,167/1000,81,110.5
3496,G#5,519.0,167/1000,81,110.5
3497,D3,519.292,167/1000,37,110.5
3498,F3,519.292,167/1000,37,110.5
3499,F#6,519.333,167/1000,85,110.5
3500,F#5,519.333,167/1000,85,110.5
3501,E-3,519.625,167/1000,37,110.5
3502,F#3,519.625,167/1000,37,110.5
3503,F5,519.667,167/1000,88,110.5
3504,F6,519.667,167/1000,88,110.5
3505,E-2,519.875,26/125,28,110.5
3506,B2,519.875,26/125,28,110.5
3507,G#3,519.958,167/1000,37,110.5
3508,B-5,520.0,167/1000,81,110.5
3509,E-6,520.0,167/1000,81,110.5
3510,F#6,520.0,167/1000,81,110.5
3511,F#5,520.0,167/1000,81,110.5
3512,F#3,520.292,167/1000,36,110.5
3513,E-3,520.292,167/1000,36,110.5
3514,F5,520.333,167/1000,85,110.5
3515,F6,520.333,167/1000,85,110.5
3516,F3,520.625,167/1000,36,110.5
3517,D3,520.625,167/1000,36,110.5
3518,E-5,520.667,167/1000,88,110.5
3519,E-6,520.667,167/1000,88,110.5
3520,E-3,520.833,0.125,30,110.5
3521,F#3,520.833,0.125,30,110.5
3522,B-3,520.917,21/500,30,110.5
3523,B-3,520.958,167/1000,30,110.5
3524,E-3,520.958,0.125,30,110.5
3525,F#3,520.958,0.125,30,110.5
3526,E-6,521.0,167/1000,81,110.5
3527,B5,521.0,167/1000,81,110.5
3528,F#6,521.0,167/1000,81,110.5
3529,F#5,521.0,167/1000,81,110.5
3530,F6,521.333,167/1000,85,110.5
3531,F5,521.333,167/1000,85,110.5
3532,E-6,521.667,167/1000,88,110.5
3533,E-5,521.667,167/1000,88,110.5
3534,E-3,521.833,0.25,31,110.5
3535,G#3,521.833,0.25,31,110.5
3536,B3,521.917,26/125,31,110.5
3537,F#6,522.0,167/1000,81,110.5
3538,F#5,522.0,167/1000,81,110.5
3539,E-6,522.0,167/1000,81,110.5
3540,C6,522.0,167/1000,81,110.5
3541,A5,522.0,167/1000,81,110.5
3542,F6,522.333,167/1000,85,110.5
3543,F5,522.333,167/1000,85,110.5
3544,E-6,522.667,167/1000,89,110.5
3545,E-5,522.667,167/1000,89,110.5
3546,E-3,522.875,83/1000,36,110.5
3547,B-3,522.875,83/1000,36,110.5
3548,E-3,522.958,0.125,36,110.5
3549,B-3,522.958,0.125,36,110.5
3550,B-5,523.0,167/1000,82,110.5
3551,F6,523.0,167/1000,82,110.5
3552,D6,523.0,167/1000,82,110.5
3553,F5,523.0,167/1000,82,110.5
3554,B-4,523.5,167/1000,92,110.5
3555,B-5,523.5,167/1000,92,110.5
3556,E-3,523.875,26/125,35,110.5
3557,B3,523.875,26/125,35,110.5
3558,E-5,524.0,333/1000,101,110.5
3559,E-6,524.0,333/1000,101,110.5
3560,E-4,524.833,0.125,40,110.5
3561,F#4,524.833,0.125,40,110.5
3562,B-4,524.917,21/500,40,110.5
3563,B-4,524.958,167/1000,40,110.5
3564,E-4,524.958,0.125,40,110.5
3565,F#4,524.958,0.125,40,110.5
3566,F#5,525.0,1.0,88,110.5
3567,B5,525.0,1.0,88,110.5
3568,E-6,525.0,1.0,88,110.5
3569,E-5,525.0,1.0,88,110.5
3570,E-4,525.833,0.25,42,110.5
3571,G#4,525.833,0.25,42,110.5
3572,B4,525.917,26/125,41,110.5
3573,C#6,526.0,1.0,88,110.5
3574,B-5,526.0,1.0,88,110.5
3575,F#5,526.0,1.0,88,110.5
3576,C#5,526.0,1.0,88,110.5
3577,E-4,526.875,83/1000,48,110.5
3578,B-4,526.875,83/1000,48,110.5
3579,E-4,526.958,0.125,48,110.5
3580,B-4,526.958,0.125,48,110.5
3581,G#5,527.0,1.0,84,110.5
3582,B5,527.0,1.0,84,110.5
3583,B4,527.0,1.0,84,110.5
3584,E-5,527.0,1.0,84,110.5
3585,E-4,527.875,26/125,52,110.5
3586,B4,527.875,26/125,52,110.5
3587,B-4,528.0,2.0,86,110.5
3588,E-5,528.0,2.0,86,110.5
3589,B-5,528.0,2.0,91,110.5
3590,F#5,528.0,2.0,91,110.5
3591,E-4,528.958,0.25,44,110.5
3592,F#4,528.958,0.25,44,110.5
3593,B-4,528.958,0.25,44,110.5
3594,E-5,528.958,0.25,44,110.5
3595,E-3,529.458,0.25,52,110.5
3596,E-4,529.458,0.25,52,110.5
3597,E-4,529.958,0.25,44,110.5
3598,G#4,529.958,0.25,44,110.5
3599,B4,529.958,0.25,44,110.5
3600,E-5,529.958,0.25,44,110.5
3601,G#2,530.458,0.25,49,110.5
3602,G#3,530.458,0.25,49,110.5
3603,E-4,530.958,0.25,44,110.5
3604,E-3,530.958,0.25,44,110.5
3605,F#3,530.958,0.25,44,110.5
3606,B-3,530.958,0.25,44,110.5
3607,E-2,531.458,0.25,52,110.5
3608,E-3,531.458,0.25,52,110.5
3609,E-3,531.958,0.25,44,110.5
3610,G#3,531.958,0.25,44,110.5
3611,B3,531.958,0.25,44,110.5
3612,E-4,531.958,0.25,44,110.5
3613,B-4,532.0,0.5,85,110.5
3614,E-4,532.0,0.5,85,110.5
3615,F#4,532.0,0.5,85,110.5
3616,E-5,532.0,0.5,85,110.5
3617,B-5,532.0,2.0,91,110.5
3618,F#5,532.0,2.0,91,110.5
3619,G#1,532.458,0.25,53,110.5
3620,G#2,532.458,0.25,53,110.5
3621,B-2,532.958,0.25,49,110.5
3622,E-3,532.958,0.25,49,110.5
3623,F#3,532.958,0.25,49,110.5
3624,B-3,532.958,0.25,49,110.5
3625,E-4,533.0,0.5,82,110.5
3626,E-5,533.0,0.5,82,110.5
3627,F#4,533.0,0.5,82,110.5
3628,B-4,533.0,0.5,82,110.5
3629,E-1,533.458,0.25,58,110.5
3630,E-2,533.458,0.25,58,110.5
3631,B2,533.958,0.25,48,110.5
3632,E-3,533.958,0.25,48,110.5
3633,F#3,533.958,0.25,48,110.5
3634,B3,533.958,0.25,48,110.5
3635,E-7,534.0,2.0,80,110.5
3636,B-6,534.0,2.0,80,110.5
3637,F#6,534.0,2.0,80,110.5
3638,E-6,534.0,2.0,80,110.5
3639,E-1,534.458,0.25,57,110.5
3640,E-2,534.458,0.25,57,110.5
3641,C4,534.958,1.0,49,110.5
3642,A3,534.958,1.0,49,110.5
3643,F#3,534.958,1.0,49,110.5
3644,E-3,534.958,1.0,49,110.5
3645,C3,534.958,1.0,49,110.5
3646,B-2,535.833,333/1000,55,110.5
3647,F3,535.833,333/1000,55,110.5
3648,B-3,535.917,0.25,61,110.5
3649,D4,535.917,0.25,61,110.5
3650,B-1,536.458,0.25,70,110.5
3651,B-2,536.458,0.25,70,110.5
3652,E-1,536.958,333/1000,74,110.5
3653,E-2,536.958,333/1000,74,110.5
3654,B1,537.958,1.0,65,110.5
3655,E-2,537.958,1.0,65,110.5
3656,F#2,537.958,1.0,65,110.5
3657,B2,537.958,1.0,65,110.5
3658,F#2,538.958,1.0,65,110.5
3659,B-2,538.958,1.0,65,110.5
3660,C#3,538.958,1.0,65,110.5
3661,F#3,538.958,1.0,65,110.5
3662,G#2,539.958,1.0,64,110.5
3663,B2,539.958,1.0,64,110.5
3664,E-3,539.958,1.0,64,110.5
3665,G#3,539.958,1.0,64,110.5
3666,B-3,540.958,2.0,63,110.5
3667,E-4,540.958,2.0,71,110.5
3668,E-3,540.958,2.0,63,110.5
3669,F#3,540.958,2.0,63,110.5
3670,B-3,543.958,1.5,63,110.5
3671,E-1,543.958,0.5,66,110.5
3672,E-2,543.958,0.5,66,110.5
3673,E-3,543.958,1.0,63,110.5
3674,F#3,543.958,1.0,63,110.5
3675,B-3,544.958,1.0,70,110.5
3676,B-2,544.958,0.5,62,110.5
3677,E-3,544.958,0.5,62,110.5
3678,F#3,544.958,0.5,62,110.5
3679,F#5,545.958,2.0,62,110.5
3680,E-5,545.958,2.0,62,110.5
3681,B-4,545.958,2.0,62,110.5
3682,F#4,545.958,2.0,62,110.5
