,note_name,start_time,duration,velocity,tempo
0,C5,4.375,0.125,67,200.5
1,E5,4.438,0.062,67,200.5
2,C6,4.5,0.375,80,200.5
3,C5,4.5,0.375,67,200.5
4,E5,4.5,0.375,67,200.5
5,C2,4.5,0.25,60,200.5
6,G2,5.0,0.25,49,200.5
7,C3,5.5,0.25,49,200.5
8,C4,5.5,0.25,50,200.5
9,E4,5.5,0.25,50,200.5
10,C2,6.0,0.25,56,200.5
11,E4,6.0,0.25,54,200.5
12,C4,6.0,0.25,54,200.5
13,G2,6.5,0.25,44,200.5
14,D4,6.5,0.25,49,200.5
15,F4,6.5,0.25,49,200.5
16,C3,7.0,0.25,44,200.5
17,G4,7.0,0.25,49,200.5
18,E4,7.0,0.25,49,200.5
19,C2,7.5,0.25,56,200.5
20,F4,7.5,0.25,54,200.5
21,A4,7.5,0.25,54,200.5
22,G2,8.0,0.25,46,200.5
23,G4,8.0,0.25,50,200.5
24,E4,8.0,0.25,50,200.5
25,C5,8.375,0.5,67,200.5
26,E5,8.438,0.438,67,200.5
27,C6,8.5,0.375,80,200.5
28,C3,8.5,0.25,46,200.5
29,C2,9.0,0.25,60,200.5
30,E4,9.0,0.25,54,200.5
31,C4,9.0,0.25,54,200.5
32,G2,9.5,0.25,49,200.5
33,D4,9.5,0.25,49,200.5
34,F4,9.5,0.25,49,200.5
35,C3,10.0,0.25,49,200.5
36,G4,10.0,0.25,49,200.5
37,E4,10.0,0.25,49,200.5
38,C2,10.5,0.25,56,200.5
39,F4,10.5,0.25,54,200.5
40,A4,10.5,0.25,54,200.5
41,G2,11.0,0.25,44,200.5
42,E4,11.0,0.25,50,200.5
43,G4,11.0,0.25,50,200.5
44,C3,11.5,0.25,44,200.5
45,A4,11.5,0.25,49,200.5
46,F4,11.5,0.25,49,200.5
47,C2,12.0,0.25,56,200.5
48,B4,12.0,0.25,54,200.5
49,G4,12.0,0.25,54,200.5
50,G2,12.5,0.25,46,200.5
51,C5,12.5,0.25,50,200.5
52,A4,12.5,0.25,50,200.5
53,C3,13.0,0.25,46,200.5
54,D5,13.0,0.25,49,200.5
55,B4,13.0,0.25,49,200.5
56,E5,13.375,0.125,67,200.5
57,G5,13.375,0.125,67,200.5
58,C6,13.458,21/500,74,200.5
59,E6,13.458,21/500,74,200.5
60,C2,13.5,0.25,60,200.5
61,E5,13.5,333/1000,67,200.5
62,G5,13.5,333/1000,67,200.5
63,C6,13.5,333/1000,74,200.5
64,E6,13.5,333/1000,74,200.5
65,G2,14.0,0.25,49,200.5
66,C3,14.5,0.25,49,200.5
67,E4,14.5,0.25,50,200.5
68,G4,14.5,0.25,50,200.5
69,C2,15.0,0.25,57,200.5
70,G4,15.0,0.25,56,200.5
71,E4,15.0,0.25,56,200.5
72,G2,15.5,0.25,46,200.5
73,F4,15.5,0.25,51,200.5
74,A4,15.5,0.25,51,200.5
75,C3,16.0,0.25,47,200.5
76,B4,16.0,0.25,52,200.5
77,G4,16.0,0.25,52,200.5
78,C2,16.5,0.25,62,200.5
79,C5,16.5,0.25,60,200.5
80,A4,16.5,0.25,60,200.5
81,G2,17.0,0.25,52,200.5
82,B4,17.0,0.25,56,200.5
83,G4,17.0,0.25,56,200.5
84,E5,17.375,229/500,78,200.5
85,G5,17.375,229/500,78,200.5
86,C6,17.458,0.375,86,200.5
87,E6,17.458,0.375,86,200.5
88,C3,17.5,0.25,53,200.5
89,C2,18.0,0.25,66,200.5
90,G4,18.0,0.25,60,200.5
91,B4,18.0,0.25,60,200.5
92,G2,18.5,0.25,55,200.5
93,C5,18.5,0.25,55,200.5
94,A4,18.5,0.25,55,200.5
95,C3,19.0,0.25,56,200.5
96,B4,19.0,0.25,56,200.5
97,D5,19.0,0.25,56,200.5
98,C2,19.5,0.25,67,200.5
99,E5,19.5,0.25,65,200.5
100,C5,19.5,0.25,65,200.5
101,G2,20.0,0.25,54,200.5
102,B4,20.0,0.25,61,200.5
103,D5,20.0,0.25,61,200.5
104,C3,20.5,0.25,55,200.5
105,C5,20.5,0.25,62,200.5
106,E5,20.5,0.25,62,200.5
107,C2,21.0,0.25,72,200.5
108,F#5,21.0,0.25,70,200.5
109,D5,21.0,0.25,70,200.5
110,G2,21.5,0.25,61,200.5
111,G5,21.5,0.25,66,200.5
112,E5,21.5,0.25,66,200.5
113,C3,22.0,0.25,62,200.5
114,F#5,22.0,0.25,66,200.5
115,A5,22.0,0.25,66,200.5
116,B1,22.5,0.25,73,200.5
117,G6,22.5,2.0,81,200.5
118,B5,22.5,2.0,81,200.5
119,B6,22.5,2.0,81,200.5
120,G2,23.0,0.25,52,200.5
121,B2,23.5,0.25,53,200.5
122,B1,24.0,0.25,71,200.5
123,G2,24.5,0.25,56,200.5
124,A6,24.5,0.25,72,200.5
125,A5,24.5,0.25,72,200.5
126,F#6,24.5,0.25,72,200.5
127,B2,25.0,0.25,56,200.5
128,G5,25.0,0.25,72,200.5
129,G6,25.0,0.25,72,200.5
130,E6,25.0,0.25,72,200.5
131,B1,25.5,0.25,73,200.5
132,F#6,25.5,1.5,81,200.5
133,A5,25.5,1.5,81,200.5
134,A6,25.5,1.5,81,200.5
135,F#2,26.0,0.25,52,200.5
136,B2,26.5,0.25,53,200.5
137,B1,27.0,0.25,71,200.5
138,F#6,27.0,0.5,81,200.5
139,A5,27.0,0.5,81,200.5
140,A6,27.0,0.5,81,200.5
141,F#2,27.5,0.25,56,200.5
142,E6,27.5,0.25,72,200.5
143,G6,27.5,0.25,72,200.5
144,G5,27.5,0.25,72,200.5
145,B2,28.0,0.25,56,200.5
146,F#6,28.0,0.25,72,200.5
147,E-6,28.0,0.25,72,200.5
148,F#5,28.0,0.25,72,200.5
149,B1,28.5,0.25,71,200.5
150,E6,28.5,0.25,81,200.5
151,G5,28.5,0.25,81,200.5
152,G6,28.5,0.25,81,200.5
153,E2,29.0,0.25,56,200.5
154,F#6,29.0,0.25,72,200.5
155,E-6,29.0,0.25,72,200.5
156,F#5,29.0,0.25,72,200.5
157,B2,29.5,0.25,56,200.5
158,C#6,29.5,0.25,72,200.5
159,E6,29.5,0.25,72,200.5
160,E5,29.5,0.25,72,200.5
161,B1,30.0,0.25,71,200.5
162,F#5,30.0,0.25,81,200.5
163,E-6,30.0,0.25,81,200.5
164,F#6,30.0,0.25,81,200.5
165,E-2,30.5,0.25,56,200.5
166,B2,31.0,0.25,56,200.5
167,B4,31.0,0.25,74,200.5
168,B5,31.0,0.25,74,200.5
169,E1,31.5,0.25,73,200.5
170,B5,31.5,2.0,81,200.5
171,B6,31.5,2.0,81,200.5
172,G#6,31.5,2.0,81,200.5
173,B1,32.0,0.25,52,200.5
174,E2,32.5,0.25,53,200.5
175,E1,33.0,0.25,71,200.5
176,B1,33.5,0.25,56,200.5
177,A5,33.5,0.25,72,200.5
178,A6,33.5,0.25,72,200.5
179,F#6,33.5,0.25,72,200.5
180,E2,34.0,0.25,56,200.5
181,G#5,34.0,0.25,72,200.5
182,G#6,34.0,0.25,72,200.5
183,E6,34.0,0.25,72,200.5
184,E1,34.5,0.25,73,200.5
185,A5,34.5,1.5,81,200.5
186,A6,34.5,1.5,81,200.5
187,F#6,34.5,1.5,81,200.5
188,B1,35.0,0.25,52,200.5
189,E2,35.5,0.25,53,200.5
190,E1,36.0,0.25,71,200.5
191,A5,36.0,0.5,81,200.5
192,A6,36.0,0.5,81,200.5
193,F#6,36.0,0.5,81,200.5
194,B1,36.5,0.25,56,200.5
195,E6,36.5,0.25,72,200.5
196,G#6,36.5,0.25,72,200.5
197,G#5,36.5,0.25,72,200.5
198,E2,37.0,0.25,56,200.5
199,F#6,37.0,0.25,72,200.5
200,F#5,37.0,0.25,72,200.5
201,E-6,37.0,0.25,72,200.5
202,E1,37.5,0.25,71,200.5
203,E6,37.5,0.25,81,200.5
204,G#5,37.5,0.25,81,200.5
205,G#6,37.5,0.25,81,200.5
206,B1,38.0,0.25,56,200.5
207,E-6,38.0,0.25,72,200.5
208,F#5,38.0,0.25,72,200.5
209,F#6,38.0,0.25,72,200.5
210,E2,38.5,0.25,56,200.5
211,E5,38.5,0.25,72,200.5
212,E6,38.5,0.25,72,200.5
213,C#6,38.5,0.25,72,200.5
214,E1,39.0,0.25,71,200.5
215,F#5,39.0,0.25,81,200.5
216,F#6,39.0,0.25,81,200.5
217,E-6,39.0,0.25,81,200.5
218,B1,39.5,0.25,56,200.5
219,E2,40.0,0.25,56,200.5
220,B4,40.0,0.25,74,200.5
221,B5,40.0,0.25,74,200.5
222,E1,40.5,0.25,71,200.5
223,B5,40.5,0.25,92,200.5
224,G#6,40.5,0.25,92,200.5
225,B6,40.5,0.25,92,200.5
226,E6,41.5,1.0,82,200.5
227,G#6,41.5,1.0,82,200.5
228,G#5,41.5,1.0,82,200.5
229,E3,41.5,1.0,56,200.5
230,G#3,41.5,1.0,56,200.5
231,B3,41.5,1.0,56,200.5
232,E4,41.5,1.0,56,200.5
233,E6,42.5,1.5,82,200.5
234,A6,42.5,1.5,82,200.5
235,A5,42.5,1.5,82,200.5
236,C#4,42.5,1.5,56,200.5
237,E3,42.5,1.5,56,200.5
238,A3,42.5,1.5,56,200.5
239,E4,42.5,1.5,56,200.5
240,E6,44.0,0.75,80,200.5
241,F#6,44.0,0.75,80,200.5
242,F#5,44.0,0.75,80,200.5
243,A3,44.0,0.75,54,200.5
244,E4,44.0,0.75,54,200.5
245,E3,44.0,0.75,54,200.5
246,F#3,44.0,0.75,54,200.5
247,E6,44.75,229/1000,71,200.5
248,G#5,44.75,229/1000,71,200.5
249,G#6,44.75,229/1000,71,200.5
250,B3,44.75,229/1000,48,200.5
251,E3,44.75,229/1000,48,200.5
252,G#3,44.75,229/1000,48,200.5
253,E4,44.75,229/1000,48,200.5
254,G#6,45.0,0.25,79,200.5
255,E6,45.0,0.25,79,200.5
256,G#5,45.0,0.25,79,200.5
257,E4,45.0,0.25,54,200.5
258,E3,45.0,0.25,54,200.5
259,G#3,45.0,0.25,54,200.5
260,B3,45.0,0.25,54,200.5
261,E5,46.0,1.0,73,200.5
262,G#4,46.0,1.0,73,200.5
263,G#5,46.0,1.0,73,200.5
264,E3,46.0,1.0,50,200.5
265,E2,46.0,1.0,50,200.5
266,B2,46.0,1.0,50,200.5
267,A5,47.0,1.5,73,200.5
268,E5,47.0,1.5,73,200.5
269,A4,47.0,1.5,73,200.5
270,E3,47.0,1.5,50,200.5
271,E2,47.0,1.5,50,200.5
272,C#3,47.0,1.5,50,200.5
273,F#4,48.5,729/1000,71,200.5
274,E5,48.5,729/1000,71,200.5
275,F#5,48.5,729/1000,71,200.5
276,A2,48.5,729/1000,49,200.5
277,E3,48.5,729/1000,49,200.5
278,E2,48.5,729/1000,49,200.5
279,E5,49.25,229/1000,64,200.5
280,G#5,49.25,229/1000,64,200.5
281,G#4,49.25,229/1000,64,200.5
282,E2,49.25,0.25,44,200.5
283,B2,49.25,0.25,44,200.5
284,E3,49.25,0.25,44,200.5
285,E2,49.5,0.25,60,200.5
286,E5,49.5,0.25,70,200.5
287,G#4,49.5,0.25,70,200.5
288,G#5,49.5,0.25,70,200.5
289,B2,50.0,0.25,49,200.5
290,E5,50.375,0.5,67,200.5
291,G#5,50.438,0.438,67,200.5
292,E6,50.5,0.375,80,200.5
293,E3,50.5,0.25,49,200.5
294,E1,51.0,0.25,56,200.5
295,E3,51.0,0.25,72,200.5
296,E4,51.0,0.25,72,200.5
297,B1,51.5,0.25,44,200.5
298,E2,52.0,0.25,44,200.5
299,E1,52.5,0.25,56,200.5
300,B1,53.0,0.25,46,200.5
301,E5,53.375,0.5,67,200.5
302,G#5,53.438,0.438,67,200.5
303,E6,53.5,0.375,80,200.5
304,E2,53.5,0.25,46,200.5
305,E1,54.0,0.25,56,200.5
306,E4,54.0,0.25,72,200.5
307,E3,54.0,0.25,72,200.5
308,B1,54.5,0.25,44,200.5
309,E2,55.0,0.25,44,200.5
310,E1,55.5,0.25,56,200.5
311,B1,56.0,0.25,46,200.5
312,E2,56.5,0.25,46,200.5
313,E1,57.0,0.25,56,200.5
314,B1,57.5,0.25,46,200.5
315,E2,58.0,0.25,46,200.5
316,E1,58.5,0.25,50,200.5
317,B1,59.0,0.25,36,200.5
318,E4,59.375,0.5,52,200.5
319,G#4,59.438,0.438,51,200.5
320,E5,59.5,0.375,61,200.5
321,E2,59.5,0.25,33,200.5
322,E3,60.0,0.25,55,200.5
323,E1,60.0,0.25,39,200.5
324,B1,60.5,0.25,28,200.5
325,E2,61.0,0.25,27,200.5
326,E1,61.5,0.25,34,200.5
327,B1,62.0,0.25,27,200.5
328,E2,62.5,0.25,27,200.5
329,G#4,62.5,0.25,43,200.5
330,E4,62.5,0.25,43,200.5
331,E5,62.5,0.25,43,200.5
332,E3,63.0,0.25,46,200.5
333,E1,63.0,0.25,30,200.5
334,B1,63.5,0.25,21,200.5
335,E2,64.0,0.25,20,200.5
336,E1,64.5,0.25,27,200.5
337,B1,65.0,0.25,20,200.5
338,E2,65.5,0.25,20,200.5
339,E1,66.0,0.25,26,200.5
340,C5,67.375,0.125,67,200.5
341,E5,67.438,0.062,67,200.5
342,C6,67.5,0.375,80,200.5
343,C5,67.5,0.375,67,200.5
344,E5,67.5,0.375,67,200.5
345,C2,67.5,0.25,60,200.5
346,G2,68.0,0.25,49,200.5
347,C3,68.5,0.25,49,200.5
348,C4,68.5,0.25,50,200.5
349,E4,68.5,0.25,50,200.5
350,C2,69.0,0.25,56,200.5
351,C4,69.0,0.25,54,200.5
352,E4,69.0,0.25,54,200.5
353,G2,69.5,0.25,44,200.5
354,D4,69.5,0.25,49,200.5
355,F4,69.5,0.25,49,200.5
356,C3,70.0,0.25,44,200.5
357,G4,70.0,0.25,49,200.5
358,E4,70.0,0.25,49,200.5
359,C2,70.5,0.25,56,200.5
360,A4,70.5,0.25,54,200.5
361,F4,70.5,0.25,54,200.5
362,G2,71.0,0.25,46,200.5
363,E4,71.0,0.25,50,200.5
364,G4,71.0,0.25,50,200.5
365,C5,71.375,0.5,67,200.5
366,E5,71.438,0.438,67,200.5
367,C6,71.5,0.375,80,200.5
368,C3,71.5,0.25,46,200.5
369,C2,72.0,0.25,60,200.5
370,E4,72.0,0.25,54,200.5
371,C4,72.0,0.25,54,200.5
372,G2,72.5,0.25,49,200.5
373,F4,72.5,0.25,49,200.5
374,D4,72.5,0.25,49,200.5
375,C3,73.0,0.25,49,200.5
376,G4,73.0,0.25,49,200.5
377,E4,73.0,0.25,49,200.5
378,C2,73.5,0.25,56,200.5
379,F4,73.5,0.25,54,200.5
380,A4,73.5,0.25,54,200.5
381,G2,74.0,0.25,44,200.5
382,G4,74.0,0.25,50,200.5
383,E4,74.0,0.25,50,200.5
384,C3,74.5,0.25,44,200.5
385,F4,74.5,0.25,49,200.5
386,A4,74.5,0.25,49,200.5
387,C2,75.0,0.25,56,200.5
388,G4,75.0,0.25,54,200.5
389,B4,75.0,0.25,54,200.5
390,G2,75.5,0.25,46,200.5
391,A4,75.5,0.25,50,200.5
392,C5,75.5,0.25,50,200.5
393,C3,76.0,0.25,46,200.5
394,B4,76.0,0.25,49,200.5
395,D5,76.0,0.25,49,200.5
396,E5,76.375,0.125,67,200.5
397,G5,76.375,0.125,67,200.5
398,C6,76.458,21/500,74,200.5
399,E6,76.458,21/500,74,200.5
400,C2,76.5,0.25,60,200.5
401,E5,76.5,333/1000,67,200.5
402,G5,76.5,333/1000,67,200.5
403,C6,76.5,333/1000,74,200.5
404,E6,76.5,333/1000,74,200.5
405,G2,77.0,0.25,49,200.5
406,C3,77.5,0.25,49,200.5
407,E4,77.5,0.25,50,200.5
408,G4,77.5,0.25,50,200.5
409,C2,78.0,0.25,57,200.5
410,E4,78.0,0.25,56,200.5
411,G4,78.0,0.25,56,200.5
412,G2,78.5,0.25,46,200.5
413,A4,78.5,0.25,51,200.5
414,F4,78.5,0.25,51,200.5
415,C3,79.0,0.25,47,200.5
416,G4,79.0,0.25,52,200.5
417,B4,79.0,0.25,52,200.5
418,C2,79.5,0.25,62,200.5
419,C5,79.5,0.25,60,200.5
420,A4,79.5,0.25,60,200.5
421,G2,80.0,0.25,52,200.5
422,G4,80.0,0.25,56,200.5
423,B4,80.0,0.25,56,200.5
424,E5,80.375,229/500,78,200.5
425,G5,80.375,229/500,78,200.5
426,C6,80.458,0.375,86,200.5
427,E6,80.458,0.375,86,200.5
428,C3,80.5,0.25,53,200.5
429,C2,81.0,0.25,66,200.5
430,B4,81.0,0.25,60,200.5
431,G4,81.0,0.25,60,200.5
432,G2,81.5,0.25,55,200.5
433,A4,81.5,0.25,55,200.5
434,C5,81.5,0.25,55,200.5
435,C3,82.0,0.25,56,200.5
436,D5,82.0,0.25,56,200.5
437,B4,82.0,0.25,56,200.5
438,C2,82.5,0.25,67,200.5
439,C5,82.5,0.25,65,200.5
440,E5,82.5,0.25,65,200.5
441,G2,83.0,0.25,54,200.5
442,D5,83.0,0.25,61,200.5
443,B4,83.0,0.25,61,200.5
444,C3,83.5,0.25,55,200.5
445,E5,83.5,0.25,62,200.5
446,C5,83.5,0.25,62,200.5
447,C2,84.0,0.25,72,200.5
448,D5,84.0,0.25,70,200.5
449,F#5,84.0,0.25,70,200.5
450,G2,84.5,0.25,61,200.5
451,G5,84.5,0.25,66,200.5
452,E5,84.5,0.25,66,200.5
453,C3,85.0,0.25,62,200.5
454,F#5,85.0,0.25,66,200.5
455,A5,85.0,0.25,66,200.5
456,B1,85.5,0.25,73,200.5
457,B5,85.5,2.0,81,200.5
458,B6,85.5,2.0,81,200.5
459,G6,85.5,2.0,81,200.5
460,G2,86.0,0.25,52,200.5
461,B2,86.5,0.25,53,200.5
462,B1,87.0,0.25,71,200.5
463,G2,87.5,0.25,56,200.5
464,F#6,87.5,0.25,72,200.5
465,A5,87.5,0.25,72,200.5
466,A6,87.5,0.25,72,200.5
467,B2,88.0,0.25,56,200.5
468,G5,88.0,0.25,72,200.5
469,G6,88.0,0.25,72,200.5
470,E6,88.0,0.25,72,200.5
471,B1,88.5,0.25,73,200.5
472,A5,88.5,1.5,81,200.5
473,F#6,88.5,1.5,81,200.5
474,A6,88.5,1.5,81,200.5
475,F#2,89.0,0.25,52,200.5
476,B2,89.5,0.25,53,200.5
477,B1,90.0,0.25,71,200.5
478,A5,90.0,0.5,81,200.5
479,F#6,90.0,0.5,81,200.5
480,A6,90.0,0.5,81,200.5
481,F#2,90.5,0.25,56,200.5
482,G6,90.5,0.25,72,200.5
483,E6,90.5,0.25,72,200.5
484,G5,90.5,0.25,72,200.5
485,B2,91.0,0.25,56,200.5
486,F#5,91.0,0.25,72,200.5
487,E-6,91.0,0.25,72,200.5
488,F#6,91.0,0.25,72,200.5
489,B1,91.5,0.25,71,200.5
490,G6,91.5,0.25,81,200.5
491,G5,91.5,0.25,81,200.5
492,E6,91.5,0.25,81,200.5
493,E2,92.0,0.25,56,200.5
494,F#5,92.0,0.25,72,200.5
495,E-6,92.0,0.25,72,200.5
496,F#6,92.0,0.25,72,200.5
497,B2,92.5,0.25,56,200.5
498,E6,92.5,0.25,72,200.5
499,C#6,92.5,0.25,72,200.5
500,E5,92.5,0.25,72,200.5
501,B1,93.0,0.25,71,200.5
502,F#5,93.0,0.25,81,200.5
503,E-6,93.0,0.25,81,200.5
504,F#6,93.0,0.25,81,200.5
505,E-2,93.5,0.25,56,200.5
506,B2,94.0,0.25,56,200.5
507,B5,94.0,0.25,74,200.5
508,B4,94.0,0.25,74,200.5
509,E1,94.5,0.25,73,200.5
510,B5,94.5,2.0,81,200.5
511,G#6,94.5,2.0,81,200.5
512,B6,94.5,2.0,81,200.5
513,B1,95.0,0.25,52,200.5
514,E2,95.5,0.25,53,200.5
515,E1,96.0,0.25,71,200.5
516,B1,96.5,0.25,56,200.5
517,A6,96.5,0.25,72,200.5
518,F#6,96.5,0.25,72,200.5
519,A5,96.5,0.25,72,200.5
520,E2,97.0,0.25,56,200.5
521,G#5,97.0,0.25,72,200.5
522,E6,97.0,0.25,72,200.5
523,G#6,97.0,0.25,72,200.5
524,E1,97.5,0.25,73,200.5
525,F#6,97.5,1.5,81,200.5
526,A5,97.5,1.5,81,200.5
527,A6,97.5,1.5,81,200.5
528,B1,98.0,0.25,52,200.5
529,E2,98.5,0.25,53,200.5
530,E1,99.0,0.25,71,200.5
531,F#6,99.0,0.5,81,200.5
532,A5,99.0,0.5,81,200.5
533,A6,99.0,0.5,81,200.5
534,B1,99.5,0.25,56,200.5
535,G#5,99.5,0.25,72,200.5
536,G#6,99.5,0.25,72,200.5
537,E6,99.5,0.25,72,200.5
538,E2,100.0,0.25,56,200.5
539,E-6,100.0,0.25,72,200.5
540,F#5,100.0,0.25,72,200.5
541,F#6,100.0,0.25,72,200.5
542,E1,100.5,0.25,71,200.5
543,G#5,100.5,0.25,81,200.5
544,G#6,100.5,0.25,81,200.5
545,E6,100.5,0.25,81,200.5
546,B1,101.0,0.25,56,200.5
547,F#5,101.0,0.25,72,200.5
548,E-6,101.0,0.25,72,200.5
549,F#6,101.0,0.25,72,200.5
550,E2,101.5,0.25,56,200.5
551,E6,101.5,0.25,72,200.5
552,C#6,101.5,0.25,72,200.5
553,E5,101.5,0.25,72,200.5
554,E1,102.0,0.25,71,200.5
555,F#5,102.0,0.25,81,200.5
556,E-6,102.0,0.25,81,200.5
557,F#6,102.0,0.25,81,200.5
558,B1,102.5,0.25,56,200.5
559,E2,103.0,0.25,56,200.5
560,B5,103.0,0.25,74,200.5
561,B4,103.0,0.25,74,200.5
562,E1,103.5,0.25,71,200.5
563,B5,103.5,0.25,92,200.5
564,G#6,103.5,0.25,92,200.5
565,B6,103.5,0.25,92,200.5
566,G#6,104.5,1.0,82,200.5
567,E6,104.5,1.0,82,200.5
568,G#5,104.5,1.0,82,200.5
569,E3,104.5,1.0,56,200.5
570,G#3,104.5,1.0,56,200.5
571,E4,104.5,1.0,56,200.5
572,B3,104.5,1.0,56,200.5
573,A5,105.5,1.5,82,200.5
574,E6,105.5,1.5,82,200.5
575,A6,105.5,1.5,82,200.5
576,E4,105.5,1.5,56,200.5
577,E3,105.5,1.5,56,200.5
578,C#4,105.5,1.5,56,200.5
579,A3,105.5,1.5,56,200.5
580,F#6,107.0,0.75,80,200.5
581,F#5,107.0,0.75,80,200.5
582,E6,107.0,0.75,80,200.5
583,E4,107.0,0.75,54,200.5
584,E3,107.0,0.75,54,200.5
585,A3,107.0,0.75,54,200.5
586,F#3,107.0,0.75,54,200.5
587,E6,107.75,229/1000,71,200.5
588,G#5,107.75,229/1000,71,200.5
589,G#6,107.75,229/1000,71,200.5
590,G#3,107.75,229/1000,48,200.5
591,E3,107.75,229/1000,48,200.5
592,E4,107.75,229/1000,48,200.5
593,B3,107.75,229/1000,48,200.5
594,G#6,108.0,0.25,79,200.5
595,E6,108.0,0.25,79,200.5
596,G#5,108.0,0.25,79,200.5
597,G#3,108.0,0.25,54,200.5
598,E4,108.0,0.25,54,200.5
599,B3,108.0,0.25,54,200.5
600,E3,108.0,0.25,54,200.5
601,G#4,109.0,1.0,73,200.5
602,E5,109.0,1.0,73,200.5
603,G#5,109.0,1.0,73,200.5
604,E2,109.0,1.0,50,200.5
605,E3,109.0,1.0,50,200.5
606,B2,109.0,1.0,50,200.5
607,E5,110.0,1.5,73,200.5
608,A4,110.0,1.5,73,200.5
609,A5,110.0,1.5,73,200.5
610,E3,110.0,1.5,50,200.5
611,E2,110.0,1.5,50,200.5
612,C#3,110.0,1.5,50,200.5
613,F#4,111.5,729/1000,71,200.5
614,F#5,111.5,729/1000,71,200.5
615,E5,111.5,729/1000,71,200.5
616,E3,111.5,729/1000,49,200.5
617,E2,111.5,729/1000,49,200.5
618,A2,111.5,729/1000,49,200.5
619,G#4,112.25,229/1000,64,200.5
620,E5,112.25,229/1000,64,200.5
621,G#5,112.25,229/1000,64,200.5
622,E2,112.25,0.25,44,200.5
623,E3,112.25,0.25,44,200.5
624,B2,112.25,0.25,44,200.5
625,E2,112.5,0.25,60,200.5
626,G#4,112.5,0.25,70,200.5
627,G#5,112.5,0.25,70,200.5
628,E5,112.5,0.25,70,200.5
629,B2,113.0,0.25,49,200.5
630,E5,113.375,0.5,67,200.5
631,G#5,113.438,0.438,67,200.5
632,E6,113.5,0.375,80,200.5
633,E3,113.5,0.25,49,200.5
634,E1,114.0,0.25,56,200.5
635,E4,114.0,0.25,72,200.5
636,E3,114.0,0.25,72,200.5
637,B1,114.5,0.25,44,200.5
638,E2,115.0,0.25,44,200.5
639,E1,115.5,0.25,56,200.5
640,B1,116.0,0.25,46,200.5
641,E5,116.375,0.5,67,200.5
642,G#5,116.438,0.438,67,200.5
643,E6,116.5,0.375,80,200.5
644,E2,116.5,0.25,46,200.5
645,E1,117.0,0.25,56,200.5
646,E3,117.0,0.25,72,200.5
647,E4,117.0,0.25,72,200.5
648,B1,117.5,0.25,44,200.5
649,E2,118.0,0.25,44,200.5
650,E1,118.5,0.25,56,200.5
651,B1,119.0,0.25,46,200.5
652,E2,119.5,0.25,46,200.5
653,E1,120.0,0.25,56,200.5
654,E5,121.0,0.25,74,200.5
655,A1,121.5,0.25,67,200.5
656,A4,121.5,0.25,82,200.5
657,C#5,121.5,0.25,82,200.5
658,A5,121.5,0.25,82,200.5
659,E4,122.0,0.25,50,200.5
660,C#4,122.0,0.25,50,200.5
661,D4,122.5,0.25,50,200.5
662,B3,122.5,0.25,50,200.5
663,A3,123.0,479/1000,56,200.5
664,C#4,123.0,479/1000,56,200.5
665,C#4,123.5,0.25,45,200.5
666,A3,123.5,0.25,45,200.5
667,E3,124.0,0.25,45,200.5
668,B3,124.0,0.25,45,200.5
669,C#3,124.5,0.25,54,200.5
670,A3,124.5,0.25,54,200.5
671,E2,125.5,0.25,74,200.5
672,A2,126.0,0.25,87,200.5
673,C#4,126.5,0.25,50,200.5
674,E4,126.5,0.25,50,200.5
675,B3,127.0,0.25,50,200.5
676,D4,127.0,0.25,50,200.5
677,A3,127.5,0.25,56,200.5
678,C#4,127.5,0.25,56,200.5
679,A3,128.0,0.25,45,200.5
680,C#4,128.0,0.25,45,200.5
681,E3,128.5,0.25,44,200.5
682,B3,128.5,0.25,44,200.5
683,A1,128.5,0.25,44,200.5
684,A3,129.0,0.25,49,200.5
685,C#3,129.0,0.25,49,200.5
686,A1,129.0,0.25,49,200.5
687,B1,129.5,0.25,58,200.5
688,A4,130.0,0.25,74,200.5
689,C#2,130.0,0.25,64,200.5
690,D2,130.5,0.25,67,200.5
691,F4,130.5,0.25,80,200.5
692,F5,130.5,0.25,80,200.5
693,F4,131.0,0.25,50,200.5
694,A4,131.0,0.25,50,200.5
695,E4,131.5,0.25,50,200.5
696,G4,131.5,0.25,50,200.5
697,D4,132.0,0.25,56,200.5
698,F4,132.0,0.25,56,200.5
699,D4,132.5,0.25,45,200.5
700,F4,132.5,0.25,45,200.5
701,A3,133.0,0.25,45,200.5
702,E4,133.0,0.25,45,200.5
703,D4,133.5,0.25,54,200.5
704,F3,133.5,0.25,54,200.5
705,A2,134.5,0.25,74,200.5
706,D3,135.0,0.25,87,200.5
707,F4,135.5,0.25,50,200.5
708,A4,135.5,0.25,50,200.5
709,E4,136.0,0.25,50,200.5
710,G4,136.0,0.25,50,200.5
711,D4,136.5,0.25,56,200.5
712,F4,136.5,0.25,56,200.5
713,F4,137.0,0.25,45,200.5
714,D4,137.0,0.25,45,200.5
715,D2,137.5,0.25,41,200.5
716,E4,137.5,0.25,45,200.5
717,A3,137.5,0.25,45,200.5
718,D2,138.0,0.25,41,200.5
719,F3,138.0,0.25,54,200.5
720,D4,138.0,0.25,54,200.5
721,E-2,138.5,0.25,58,200.5
722,C5,139.0,0.25,74,200.5
723,E2,139.0,0.25,64,200.5
724,F2,139.5,0.25,67,200.5
725,A4,139.5,0.25,80,200.5
726,A5,139.5,0.25,80,200.5
727,A4,140.0,0.25,50,200.5
728,C5,140.0,0.25,50,200.5
729,B-4,140.5,0.25,50,200.5
730,G4,140.5,0.25,50,200.5
731,A4,141.0,0.25,56,200.5
732,F4,141.0,0.25,56,200.5
733,A4,141.5,0.25,45,200.5
734,F4,141.5,0.25,45,200.5
735,C4,142.0,0.25,45,200.5
736,G4,142.0,0.25,45,200.5
737,F4,142.5,0.25,54,200.5
738,A3,142.5,0.25,54,200.5
739,C3,143.5,0.25,74,200.5
740,F3,144.0,0.25,87,200.5
741,C5,144.5,0.25,50,200.5
742,A4,144.5,0.25,50,200.5
743,G4,145.0,0.25,50,200.5
744,B-4,145.0,0.25,50,200.5
745,F4,145.5,0.25,56,200.5
746,A4,145.5,0.25,56,200.5
747,F4,146.0,0.25,45,200.5
748,A4,146.0,0.25,45,200.5
749,F2,146.5,0.25,41,200.5
750,G4,146.5,0.25,45,200.5
751,C4,146.5,0.25,45,200.5
752,F2,147.0,0.25,41,200.5
753,F4,147.0,0.25,54,200.5
754,A3,147.0,0.25,54,200.5
755,G2,147.5,0.25,58,200.5
756,F5,148.0,0.25,74,200.5
757,A2,148.0,0.25,64,200.5
758,B-2,148.5,0.25,67,200.5
759,D5,148.5,0.25,80,200.5
760,D6,148.5,0.25,80,200.5
761,B-4,149.0,0.25,50,200.5
762,D5,149.0,0.25,50,200.5
763,C5,149.5,0.25,50,200.5
764,F4,149.5,0.25,50,200.5
765,D4,150.0,0.25,56,200.5
766,B-4,150.0,0.25,56,200.5
767,G#2,150.5,0.25,41,200.5
768,A2,151.0,0.25,41,200.5
769,B2,151.5,0.25,45,200.5
770,B2,152.0,0.25,43,200.5
771,D5,152.5,0.25,64,200.5
772,C3,152.5,0.25,45,200.5
773,D3,153.0,0.25,55,200.5
774,B5,153.0,0.25,68,200.5
775,B4,153.0,0.25,68,200.5
776,B4,153.5,0.25,50,200.5
777,G#4,153.5,0.25,50,200.5
778,A4,154.0,0.25,50,200.5
779,F#4,154.0,0.25,50,200.5
780,G#4,154.5,0.25,56,200.5
781,F4,154.5,0.25,56,200.5
782,B2,155.0,0.25,41,200.5
783,C3,155.5,0.25,41,200.5
784,D3,156.0,0.25,45,200.5
785,D3,156.5,0.25,43,200.5
786,B4,157.0,0.25,48,200.5
787,E3,157.0,0.25,45,200.5
788,F3,157.5,0.25,55,200.5
789,G#4,157.5,0.25,54,200.5
790,G#5,157.5,0.25,54,200.5
791,G#4,158.0,0.25,47,200.5
792,F4,158.0,0.25,47,200.5
793,G4,158.5,0.25,44,200.5
794,E4,158.5,0.25,44,200.5
795,F4,159.0,0.25,42,200.5
796,D4,159.0,0.25,42,200.5
797,F3,159.5,0.25,36,200.5
798,G3,160.0,0.25,36,200.5
799,G#3,160.5,0.25,43,200.5
800,G#3,161.0,0.25,39,200.5
801,B4,161.5,0.5,74,200.5
802,A3,161.5,0.25,49,200.5
803,B3,162.0,0.25,61,200.5
804,F5,162.0,0.25,77,200.5
805,F4,162.0,0.25,77,200.5
806,F4,163.0,729/500,49,200.5
807,D4,163.0,729/500,38,200.5
808,B3,163.0,729/500,38,200.5
809,F4,164.5,1.5,49,200.5
810,D4,164.5,1.5,38,200.5
811,B3,164.5,1.5,38,200.5
812,B4,166.0,0.5,74,200.5
813,F#4,166.5,0.25,77,200.5
814,F#5,166.5,0.25,77,200.5
815,B3,166.5,0.25,65,200.5
816,E-4,166.5,0.25,65,200.5
817,F#4,167.5,729/500,49,200.5
818,E-4,167.5,729/500,38,200.5
819,B3,167.5,729/500,38,200.5
820,F#4,169.0,1.5,49,200.5
821,E-4,169.0,1.5,38,200.5
822,B3,169.0,1.5,38,200.5
823,B4,170.5,0.5,74,200.5
824,G4,171.0,0.25,74,200.5
825,D5,171.0,0.25,74,200.5
826,G5,171.0,0.25,74,200.5
827,F5,171.0,0.25,74,200.5
828,D4,171.0,1.5,58,200.5
829,G3,171.0,1.5,58,200.5
830,F4,171.0,1.5,58,200.5
831,G4,172.0,729/500,62,200.5
832,B4,172.0,729/500,62,200.5
833,D5,172.0,729/500,62,200.5
834,G5,172.0,729/500,62,200.5
835,F5,172.0,729/500,62,200.5
836,B4,173.5,729/500,64,200.5
837,G4,173.5,729/500,64,200.5
838,G5,173.5,729/500,64,200.5
839,D5,173.5,729/500,64,200.5
840,F5,173.5,729/500,64,200.5
841,G1,173.5,0.25,60,200.5
842,G2,173.5,0.25,60,200.5
843,G2,174.0,0.25,64,200.5
844,G1,174.0,0.25,64,200.5
845,A2,174.5,0.25,67,200.5
846,A1,174.5,0.25,67,200.5
847,B4,175.0,0.312,71,200.5
848,D5,175.0,0.312,71,200.5
849,F5,175.0,0.312,71,200.5
850,G5,175.0,0.312,71,200.5
851,G4,175.0,0.312,71,200.5
852,B2,175.0,0.25,70,200.5
853,B1,175.0,0.25,70,200.5
854,G5,175.312,0.188,76,200.5
855,B5,175.375,0.125,79,200.5
856,F6,175.438,0.062,83,200.5
857,G6,175.5,0.25,87,200.5
858,G5,175.5,0.25,76,200.5
859,B5,175.5,0.25,79,200.5
860,F6,175.5,0.25,83,200.5
861,C2,175.5,0.25,73,200.5
862,G2,176.0,0.25,60,200.5
863,C3,176.5,0.25,60,200.5
864,G4,176.5,1.5,64,200.5
865,G5,176.5,1.5,64,200.5
866,F5,176.5,1.5,64,200.5
867,C2,177.0,0.25,70,200.5
868,G2,177.5,0.25,59,200.5
869,C3,178.0,0.25,59,200.5
870,G4,178.0,0.25,64,200.5
871,F5,178.0,0.25,64,200.5
872,G5,178.0,0.25,64,200.5
873,C2,178.5,0.25,66,200.5
874,G4,178.5,0.25,62,200.5
875,G5,178.5,0.25,62,200.5
876,F5,178.5,0.25,62,200.5
877,G2,179.0,0.25,59,200.5
878,F5,179.0,0.25,66,200.5
879,A4,179.0,0.25,66,200.5
880,A5,179.0,0.25,66,200.5
881,C3,179.5,0.25,59,200.5
882,B5,179.5,0.25,69,200.5
883,F5,179.5,0.25,69,200.5
884,B4,179.5,0.25,69,200.5
885,C2,180.0,0.25,66,200.5
886,E5,180.0,0.25,73,200.5
887,C5,180.0,0.25,73,200.5
888,C6,180.0,0.25,73,200.5
889,G2,180.5,0.25,49,200.5
890,C3,181.0,0.25,49,200.5
891,C4,181.0,0.25,50,200.5
892,E4,181.0,0.25,50,200.5
893,C2,181.5,0.25,56,200.5
894,E4,181.5,0.25,54,200.5
895,C4,181.5,0.25,54,200.5
896,G2,182.0,0.25,44,200.5
897,F4,182.0,0.25,49,200.5
898,D4,182.0,0.25,49,200.5
899,C3,182.5,0.25,44,200.5
900,E4,182.5,0.25,49,200.5
901,G4,182.5,0.25,49,200.5
902,C2,183.0,0.25,56,200.5
903,F4,183.0,0.25,54,200.5
904,A4,183.0,0.25,54,200.5
905,G2,183.5,0.25,46,200.5
906,E4,183.5,0.25,50,200.5
907,G4,183.5,0.25,50,200.5
908,C5,183.875,0.5,67,200.5
909,E5,183.938,0.438,67,200.5
910,C6,184.0,0.375,80,200.5
911,C3,184.0,0.25,46,200.5
912,C2,184.5,0.25,60,200.5
913,C4,184.5,0.25,54,200.5
914,E4,184.5,0.25,54,200.5
915,G2,185.0,0.25,49,200.5
916,D4,185.0,0.25,49,200.5
917,F4,185.0,0.25,49,200.5
918,C3,185.5,0.25,49,200.5
919,G4,185.5,0.25,49,200.5
920,E4,185.5,0.25,49,200.5
921,C2,186.0,0.25,56,200.5
922,A4,186.0,0.25,54,200.5
923,F4,186.0,0.25,54,200.5
924,G2,186.5,0.25,44,200.5
925,G4,186.5,0.25,50,200.5
926,E4,186.5,0.25,50,200.5
927,C3,187.0,0.25,44,200.5
928,F4,187.0,0.25,49,200.5
929,A4,187.0,0.25,49,200.5
930,B1,187.5,0.25,56,200.5
931,B4,187.5,0.25,54,200.5
932,G4,187.5,0.25,54,200.5
933,G2,188.0,0.25,46,200.5
934,A4,188.0,0.25,50,200.5
935,C5,188.0,0.25,50,200.5
936,B2,188.5,0.25,46,200.5
937,D5,188.5,0.25,49,200.5
938,B4,188.5,0.25,49,200.5
939,E5,188.875,0.125,67,200.5
940,G5,188.875,0.125,67,200.5
941,C#6,188.958,21/500,74,200.5
942,E6,188.958,21/500,74,200.5
943,A1,189.0,0.25,60,200.5
944,E5,189.0,333/1000,67,200.5
945,G5,189.0,333/1000,67,200.5
946,C#6,189.0,333/1000,74,200.5
947,E6,189.0,333/1000,74,200.5
948,E2,189.5,0.25,49,200.5
949,A2,190.0,0.25,49,200.5
950,C#4,190.0,0.25,50,200.5
951,E4,190.0,0.25,50,200.5
952,A1,190.5,0.25,57,200.5
953,C#4,190.5,0.25,56,200.5
954,E4,190.5,0.25,56,200.5
955,E2,191.0,0.25,46,200.5
956,D4,191.0,0.25,51,200.5
957,F4,191.0,0.25,51,200.5
958,A2,191.5,0.25,47,200.5
959,E4,191.5,0.25,52,200.5
960,G4,191.5,0.25,52,200.5
961,A1,192.0,0.25,62,200.5
962,A4,192.0,0.25,60,200.5
963,F4,192.0,0.25,60,200.5
964,E2,192.5,0.25,52,200.5
965,G4,192.5,0.25,56,200.5
966,E4,192.5,0.25,56,200.5
967,E5,192.875,229/500,78,200.5
968,G5,192.875,229/500,78,200.5
969,C#6,192.958,0.375,86,200.5
970,E6,192.958,0.375,86,200.5
971,A2,193.0,0.25,53,200.5
972,A1,193.5,0.25,60,200.5
973,E4,193.5,0.25,54,200.5
974,G4,193.5,0.25,54,200.5
975,E2,194.0,0.25,49,200.5
976,A4,194.0,0.25,49,200.5
977,F4,194.0,0.25,49,200.5
978,A2,194.5,0.25,49,200.5
979,G4,194.5,0.25,49,200.5
980,B4,194.5,0.25,49,200.5
981,A1,195.0,0.25,56,200.5
982,A4,195.0,0.25,54,200.5
983,C#5,195.0,0.25,54,200.5
984,E2,195.5,0.25,44,200.5
985,B4,195.5,0.25,50,200.5
986,G4,195.5,0.25,50,200.5
987,A2,196.0,0.25,44,200.5
988,C#5,196.0,0.25,49,200.5
989,A4,196.0,0.25,49,200.5
990,G1,196.5,0.25,56,200.5
991,B4,196.5,0.25,54,200.5
992,D5,196.5,0.25,54,200.5
993,E2,197.0,0.25,46,200.5
994,E5,197.0,0.25,50,200.5
995,C#5,197.0,0.25,50,200.5
996,G2,197.5,0.25,46,200.5
997,E5,197.5,0.25,49,200.5
998,G5,197.5,0.25,49,200.5
999,A5,197.875,0.125,67,200.5
1000,C6,197.875,0.125,67,200.5
1001,F6,197.958,21/500,74,200.5
1002,A6,197.958,21/500,74,200.5
1003,F1,198.0,0.25,60,200.5
1004,A5,198.0,333/1000,67,200.5
1005,C6,198.0,333/1000,67,200.5
1006,F6,198.0,333/1000,74,200.5
1007,A6,198.0,333/1000,74,200.5
1008,C2,198.5,0.25,49,200.5
1009,F2,199.0,0.25,49,200.5
1010,F4,199.0,0.25,50,200.5
1011,A4,199.0,0.25,50,200.5
1012,F1,199.5,0.25,57,200.5
1013,A4,199.5,0.25,56,200.5
1014,F4,199.5,0.25,56,200.5
1015,C2,200.0,0.25,46,200.5
1016,G4,200.0,0.25,51,200.5
1017,B-4,200.0,0.25,51,200.5
1018,F2,200.5,0.25,47,200.5
1019,A4,200.5,0.25,52,200.5
1020,C5,200.5,0.25,52,200.5
1021,F1,201.0,0.25,62,200.5
1022,B-4,201.0,0.25,60,200.5
1023,D5,201.0,0.25,60,200.5
1024,C2,201.5,0.25,52,200.5
1025,A4,201.5,0.25,56,200.5
1026,C5,201.5,0.25,56,200.5
1027,A5,201.875,229/500,78,200.5
1028,C6,201.875,229/500,78,200.5
1029,F6,201.958,0.375,86,200.5
1030,A6,201.958,0.375,86,200.5
1031,F2,202.0,0.25,53,200.5
1032,F1,202.5,0.25,66,200.5
1033,B5,202.5,0.25,58,200.5
1034,G5,202.5,0.25,58,200.5
1035,B4,202.5,0.25,58,200.5
1036,G1,203.0,0.25,55,200.5
1037,A5,203.0,0.25,53,200.5
1038,C5,203.0,0.25,53,200.5
1039,C6,203.0,0.25,53,200.5
1040,F2,203.5,0.25,56,200.5
1041,B5,203.5,0.25,55,200.5
1042,D6,203.5,0.25,55,200.5
1043,D5,203.5,0.25,55,200.5
1044,F1,204.0,0.25,67,200.5
1045,C6,204.0,0.25,63,200.5
1046,E5,204.0,0.25,63,200.5
1047,E6,204.0,0.25,63,200.5
1048,G1,204.5,0.25,54,200.5
1049,D6,204.5,0.25,59,200.5
1050,F5,204.5,0.25,59,200.5
1051,F6,204.5,0.25,59,200.5
1052,F2,205.0,0.25,55,200.5
1053,G5,205.0,0.25,60,200.5
1054,G6,205.0,0.25,60,200.5
1055,B5,205.0,0.25,60,200.5
1056,F1,205.5,0.25,72,200.5
1057,G5,205.5,0.25,68,200.5
1058,B5,205.5,0.25,68,200.5
1059,G6,205.5,0.25,68,200.5
1060,G1,206.0,0.25,61,200.5
1061,B5,206.0,0.25,64,200.5
1062,G6,206.0,0.25,64,200.5
1063,G5,206.0,0.25,64,200.5
1064,F2,206.5,0.25,62,200.5
1065,G6,206.5,0.25,65,200.5
1066,G5,206.5,0.25,65,200.5
1067,B5,206.5,0.25,65,200.5
1068,G5,207.0,2.0,81,200.5
1069,C6,207.0,2.0,81,200.5
1070,G6,207.0,2.0,81,200.5
1071,E1,207.0,0.25,74,200.5
1072,E2,207.0,0.25,74,200.5
1073,D1,207.5,0.25,52,200.5
1074,D2,207.5,0.25,52,200.5
1075,C1,208.0,0.25,54,200.5
1076,C2,208.0,0.25,54,200.5
1077,D2,208.5,2.0,72,200.5
1078,D1,208.5,2.0,72,200.5
1079,C6,209.0,0.25,72,200.5
1080,F6,209.0,0.25,72,200.5
1081,F5,209.0,0.25,72,200.5
1082,E5,209.5,0.25,72,200.5
1083,E6,209.5,0.25,72,200.5
1084,C6,209.5,0.25,72,200.5
1085,C6,210.0,1.5,81,200.5
1086,F6,210.0,1.5,81,200.5
1087,F5,210.0,1.5,81,200.5
1088,C2,210.5,0.25,52,200.5
1089,C3,210.5,0.25,52,200.5
1090,B1,211.0,0.25,54,200.5
1091,B2,211.0,0.25,54,200.5
1092,C6,211.5,0.5,81,200.5
1093,F6,211.5,0.5,81,200.5
1094,F5,211.5,0.5,81,200.5
1095,C2,211.5,2.0,72,200.5
1096,C3,211.5,2.0,72,200.5
1097,E6,212.0,0.25,72,200.5
1098,E5,212.0,0.25,72,200.5
1099,C6,212.0,0.25,72,200.5
1100,C6,212.5,0.25,72,200.5
1101,D6,212.5,0.25,72,200.5
1102,D5,212.5,0.25,72,200.5
1103,C6,213.0,0.25,81,200.5
1104,E6,213.0,0.25,81,200.5
1105,E5,213.0,0.25,81,200.5
1106,D5,213.5,0.25,74,200.5
1107,D6,213.5,0.25,74,200.5
1108,B2,213.5,0.25,52,200.5
1109,B1,213.5,0.25,52,200.5
1110,C5,214.0,0.25,74,200.5
1111,C6,214.0,0.25,74,200.5
1112,A1,214.0,0.25,54,200.5
1113,A2,214.0,0.25,54,200.5
1114,D5,214.5,0.25,83,200.5
1115,D6,214.5,0.25,83,200.5
1116,B1,214.5,0.25,52,200.5
1117,B2,214.5,0.25,52,200.5
1118,G5,215.5,0.25,74,200.5
1119,G4,215.5,0.25,74,200.5
1120,G2,215.5,0.25,52,200.5
1121,G1,215.5,0.25,52,200.5
1122,G6,216.0,2.0,81,200.5
1123,C6,216.0,2.0,81,200.5
1124,G5,216.0,2.0,81,200.5
1125,E-2,216.0,0.25,74,200.5
1126,E-3,216.0,0.25,74,200.5
1127,D3,216.5,0.25,52,200.5
1128,D2,216.5,0.25,52,200.5
1129,C3,217.0,0.25,54,200.5
1130,C2,217.0,0.25,54,200.5
1131,D2,217.5,2.0,72,200.5
1132,D3,217.5,2.0,72,200.5
1133,F5,218.0,0.25,72,200.5
1134,F6,218.0,0.25,72,200.5
1135,C6,218.0,0.25,72,200.5
1136,C6,218.5,0.25,72,200.5
1137,E-6,218.5,0.25,72,200.5
1138,E-5,218.5,0.25,72,200.5
1139,F6,219.0,1.5,81,200.5
1140,C6,219.0,1.5,81,200.5
1141,F5,219.0,1.5,81,200.5
1142,C3,219.5,0.25,52,200.5
1143,C2,219.5,0.25,52,200.5
1144,B2,220.0,0.25,54,200.5
1145,B1,220.0,0.25,54,200.5
1146,F6,220.5,0.5,81,200.5
1147,C6,220.5,0.5,81,200.5
1148,F5,220.5,0.5,81,200.5
1149,C3,220.5,2.0,72,200.5
1150,C2,220.5,2.0,72,200.5
1151,E-6,221.0,0.25,72,200.5
1152,C6,221.0,0.25,72,200.5
1153,E-5,221.0,0.25,72,200.5
1154,D5,221.5,0.25,72,200.5
1155,C6,221.5,0.25,72,200.5
1156,D6,221.5,0.25,72,200.5
1157,E-6,222.0,0.25,81,200.5
1158,E-5,222.0,0.25,81,200.5
1159,C6,222.0,0.25,81,200.5
1160,D6,222.5,0.25,74,200.5
1161,D5,222.5,0.25,74,200.5
1162,B2,222.5,0.25,52,200.5
1163,B1,222.5,0.25,52,200.5
1164,C5,223.0,0.25,74,200.5
1165,C6,223.0,0.25,74,200.5
1166,A1,223.0,0.25,54,200.5
1167,A2,223.0,0.25,54,200.5
1168,D5,223.5,0.25,83,200.5
1169,D6,223.5,0.25,83,200.5
1170,B2,223.5,0.25,52,200.5
1171,B1,223.5,0.25,52,200.5
1172,G4,224.5,0.25,74,200.5
1173,G5,224.5,0.25,74,200.5
1174,G1,224.5,0.25,52,200.5
1175,G2,224.5,0.25,52,200.5
1176,C2,224.875,0.125,60,200.5
1177,G2,224.938,0.062,60,200.5
1178,E3,225.0,0.25,71,200.5
1179,C2,225.0,0.25,60,200.5
1180,G2,225.0,0.25,60,200.5
1181,G6,225.0,0.25,92,200.5
1182,G5,225.0,0.25,92,200.5
1183,C6,225.0,0.25,92,200.5
1184,E6,226.0,1.0,82,200.5
1185,E5,226.0,1.0,82,200.5
1186,C6,226.0,1.0,82,200.5
1187,C4,226.0,1.0,56,200.5
1188,C3,226.0,1.0,56,200.5
1189,G3,226.0,1.0,56,200.5
1190,E3,226.0,1.0,56,200.5
1191,C6,227.0,1.5,82,200.5
1192,F6,227.0,1.5,82,200.5
1193,F5,227.0,1.5,82,200.5
1194,F3,227.0,1.5,56,200.5
1195,A3,227.0,1.5,56,200.5
1196,C4,227.0,1.5,56,200.5
1197,C3,227.0,1.5,56,200.5
1198,C6,228.5,0.75,80,200.5
1199,D6,228.5,0.75,80,200.5
1200,D5,228.5,0.75,80,200.5
1201,D3,228.5,0.75,54,200.5
1202,C3,228.5,0.75,54,200.5
1203,F3,228.5,0.75,54,200.5
1204,C4,228.5,0.75,54,200.5
1205,C6,229.25,229/1000,71,200.5
1206,E6,229.25,229/1000,71,200.5
1207,E5,229.25,229/1000,71,200.5
1208,C4,229.25,229/1000,48,200.5
1209,C3,229.25,229/1000,48,200.5
1210,G3,229.25,229/1000,48,200.5
1211,E3,229.25,229/1000,48,200.5
1212,E5,229.5,0.25,79,200.5
1213,E6,229.5,0.25,79,200.5
1214,C6,229.5,0.25,79,200.5
1215,C3,229.5,0.25,54,200.5
1216,E3,229.5,0.25,54,200.5
1217,G3,229.5,0.25,54,200.5
1218,C4,229.5,0.25,54,200.5
1219,E4,230.5,1.0,73,200.5
1220,C5,230.5,1.0,73,200.5
1221,E5,230.5,1.0,73,200.5
1222,G2,230.5,1.0,50,200.5
1223,C3,230.5,1.0,50,200.5
1224,C2,230.5,1.0,50,200.5
1225,F4,231.5,1.5,73,200.5
1226,F5,231.5,1.5,73,200.5
1227,C5,231.5,1.5,73,200.5
1228,C3,231.5,1.5,50,200.5
1229,C2,231.5,1.5,50,200.5
1230,A2,231.5,1.5,50,200.5
1231,C5,233.0,729/1000,71,200.5
1232,D4,233.0,729/1000,71,200.5
1233,D5,233.0,729/1000,71,200.5
1234,F2,233.0,729/1000,49,200.5
1235,C2,233.0,729/1000,49,200.5
1236,C3,233.0,729/1000,49,200.5
1237,E5,233.75,229/1000,64,200.5
1238,E4,233.75,229/1000,64,200.5
1239,C5,233.75,229/1000,64,200.5
1240,G2,233.75,0.25,44,200.5
1241,C2,233.75,0.25,44,200.5
1242,C3,233.75,0.25,44,200.5
1243,C2,234.0,0.25,60,200.5
1244,C5,234.0,0.25,70,200.5
1245,E4,234.0,0.25,70,200.5
1246,E5,234.0,0.25,70,200.5
1247,G2,234.5,0.25,49,200.5
1248,C5,234.875,0.5,67,200.5
1249,E5,234.938,0.438,67,200.5
1250,C6,235.0,0.375,80,200.5
1251,C3,235.0,0.25,49,200.5
1252,C4,235.5,0.25,79,200.5
1253,C2,235.5,0.25,56,200.5
1254,G2,236.0,0.25,44,200.5
1255,C3,236.5,0.25,44,200.5
1256,C2,237.0,0.25,56,200.5
1257,G2,237.5,0.25,46,200.5
1258,C5,237.875,0.5,67,200.5
1259,E5,237.938,0.438,67,200.5
1260,C6,238.0,0.375,80,200.5
1261,C3,238.0,0.25,46,200.5
1262,C4,238.5,0.25,79,200.5
1263,C2,238.5,0.25,56,200.5
1264,G2,239.0,0.25,44,200.5
1265,C3,239.5,0.25,44,200.5
1266,C2,240.0,0.25,56,200.5
1267,G2,240.5,0.25,46,200.5
1268,C3,241.0,0.25,46,200.5
1269,C2,241.5,0.25,56,200.5
1270,G2,242.0,0.25,35,200.5
1271,C3,242.5,0.25,35,200.5
1272,A1,243.0,0.25,43,200.5
1273,D2,243.5,0.25,29,200.5
1274,C5,243.812,0.562,42,200.5
1275,D5,243.875,0.5,42,200.5
1276,F#5,243.938,0.438,41,200.5
1277,C6,244.0,0.375,49,200.5
1278,A2,244.0,0.25,29,200.5
1279,C4,244.5,0.25,44,200.5
1280,A1,244.5,0.25,38,200.5
1281,D2,245.0,0.25,32,200.5
1282,A2,245.5,0.25,32,200.5
1283,A1,246.0,0.25,40,200.5
1284,D2,246.5,0.25,32,200.5
1285,C5,246.812,0.562,39,200.5
1286,D5,246.875,0.5,39,200.5
1287,F#5,246.938,0.438,38,200.5
1288,C6,247.0,0.375,46,200.5
1289,A2,247.0,0.25,31,200.5
1290,C4,247.5,0.25,37,200.5
1291,A1,247.5,0.25,38,200.5
1292,D2,248.0,0.25,26,200.5
1293,A2,248.5,0.25,26,200.5
1294,A1,249.0,0.25,35,200.5
1295,D2,249.5,0.25,25,200.5
1296,A2,250.0,0.25,28,200.5
1297,A1,250.5,0.25,35,200.5
1298,D2,251.0,0.25,25,200.5
1299,A2,251.5,0.25,25,200.5
1300,G1,251.875,0.125,34,200.5
1301,G2,252.0,0.5,34,200.5
1302,G1,252.0,0.5,34,200.5
1303,D3,252.5,0.5,29,200.5
1304,G3,253.0,0.5,30,200.5
1305,D4,253.0,229/500,36,200.5
1306,G4,253.0,229/500,36,200.5
1307,B4,253.0,229/500,36,200.5
1308,B3,253.5,0.5,34,200.5
1309,B4,253.5,2479/1000,43,200.5
1310,G4,253.5,2479/1000,43,200.5
1311,D4,253.5,2479/1000,43,200.5
1312,G3,254.0,0.5,29,200.5
1313,D3,254.5,0.5,29,200.5
1314,E2,255.0,0.5,38,200.5
1315,G3,255.5,0.5,28,200.5
1316,B3,256.0,0.5,28,200.5
1317,E4,256.0,0.5,34,200.5
1318,G4,256.0,0.5,34,200.5
1319,D5,256.0,0.5,34,200.5
1320,B4,256.0,0.5,34,200.5
1321,D4,256.5,0.5,32,200.5
1322,E3,256.5,1.5,32,200.5
1323,E4,256.5,2.0,42,200.5
1324,G4,256.5,2.0,42,200.5
1325,B4,256.5,2.0,42,200.5
1326,D5,256.5,2.0,42,200.5
1327,B3,257.0,0.5,34,200.5
1328,G3,257.5,0.5,36,200.5
1329,A2,258.0,0.5,41,200.5
1330,A1,258.0,0.5,41,200.5
1331,C4,258.5,2.5,31,200.5
1332,E4,259.0,2.0,31,200.5
1333,E5,259.0,229/500,47,200.5
1334,C5,259.0,229/500,47,200.5
1335,A4,259.0,229/500,47,200.5
1336,G5,259.0,229/500,47,200.5
1337,A4,259.5,1.5,51,200.5
1338,G5,259.5,1.5,51,200.5
1339,C5,259.5,1.5,51,200.5
1340,E5,259.5,1.5,51,200.5
1341,A3,259.5,1.5,31,200.5
1342,G4,259.5,1.5,31,200.5
1343,C4,261.0,2.5,31,200.5
1344,E4,261.0,2.5,31,200.5
1345,A4,261.0,2.5,51,200.5
1346,G5,261.0,2.5,51,200.5
1347,C5,261.0,2.5,51,200.5
1348,E5,261.0,2.5,51,200.5
1349,A3,261.0,2.5,31,200.5
1350,G4,261.0,2.5,31,200.5
1351,G4,263.5,0.5,45,200.5
1352,A4,263.5,0.5,45,200.5
1353,E5,263.5,0.5,45,200.5
1354,A3,263.5,0.5,31,200.5
1355,E4,263.5,0.5,31,200.5
1356,G3,263.5,0.5,31,200.5
1357,C5,264.0,1.0,48,200.5
1358,G4,264.0,1.0,48,200.5
1359,E4,264.0,1.0,48,200.5
1360,C4,264.0,1.0,34,200.5
1361,E3,264.0,1.0,34,200.5
1362,G3,264.0,1.0,34,200.5
1363,D4,265.0,0.5,41,200.5
1364,G4,265.0,0.5,41,200.5
1365,B4,265.0,0.5,41,200.5
1366,G3,265.0,0.5,30,200.5
1367,D3,265.0,0.5,30,200.5
1368,B3,265.0,0.5,30,200.5
1369,D2,265.5,0.5,42,200.5
1370,F#4,265.5,1.0,45,200.5
1371,B3,265.5,1.0,45,200.5
1372,G#4,265.5,1.0,45,200.5
1373,C4,266.5,0.5,42,200.5
1374,A4,266.5,0.5,42,200.5
1375,F#4,266.5,0.5,42,200.5
1376,A3,266.5,0.5,30,200.5
1377,C3,266.5,0.5,30,200.5
1378,C5,267.0,1.5,49,200.5
1379,E4,267.0,1.5,49,200.5
1380,E3,267.0,1.5,35,200.5
1381,C4,267.0,1.5,35,200.5
1382,D4,268.5,1.0,46,200.5
1383,F#4,268.5,1.0,46,200.5
1384,D3,268.5,1.0,32,200.5
1385,A3,268.5,1.0,32,200.5
1386,G2,270.0,0.5,34,200.5
1387,D3,270.5,0.5,29,200.5
1388,G3,271.0,0.5,30,200.5
1389,B4,271.0,229/500,36,200.5
1390,D4,271.0,229/500,36,200.5
1391,G4,271.0,229/500,36,200.5
1392,B3,271.5,0.5,34,200.5
1393,D4,271.5,2479/1000,43,200.5
1394,G4,271.5,2479/1000,43,200.5
1395,B4,271.5,2479/1000,43,200.5
1396,G3,272.0,0.5,29,200.5
1397,D3,272.5,0.5,29,200.5
1398,E2,273.0,0.5,38,200.5
1399,G3,273.5,0.5,28,200.5
1400,B3,274.0,0.5,28,200.5
1401,B4,274.0,0.5,34,200.5
1402,G4,274.0,0.5,34,200.5
1403,E4,274.0,0.5,34,200.5
1404,D5,274.0,0.5,34,200.5
1405,D4,274.5,0.5,32,200.5
1406,E3,274.5,1.5,32,200.5
1407,E4,274.5,2.0,42,200.5
1408,D5,274.5,2.0,42,200.5
1409,G4,274.5,2.0,42,200.5
1410,B4,274.5,2.0,42,200.5
1411,B3,275.0,0.5,34,200.5
1412,G3,275.5,0.5,36,200.5
1413,A2,276.0,0.5,41,200.5
1414,A1,276.0,0.5,41,200.5
1415,E4,276.5,2.5,31,200.5
1416,G4,277.0,2.0,34,200.5
1417,C#5,277.0,229/500,52,200.5
1418,E5,277.0,229/500,52,200.5
1419,B5,277.0,229/500,52,200.5
1420,G5,277.0,229/500,52,200.5
1421,E5,277.5,1.5,56,200.5
1422,B5,277.5,1.5,56,200.5
1423,G5,277.5,1.5,56,200.5
1424,C#5,277.5,1.5,56,200.5
1425,C#4,277.5,1.5,34,200.5
1426,B4,277.5,1.5,34,200.5
1427,E4,279.0,2.5,31,200.5
1428,G4,279.0,2.5,34,200.5
1429,E5,279.0,2.5,56,200.5
1430,B5,279.0,2.5,56,200.5
1431,G5,279.0,2.5,56,200.5
1432,C#5,279.0,2.5,56,200.5
1433,C#4,279.0,2.5,34,200.5
1434,B4,279.0,2.5,34,200.5
1435,A5,281.5,0.5,45,200.5
1436,C#5,281.5,0.5,45,200.5
1437,E5,281.5,0.5,45,200.5
1438,C#4,281.5,0.5,31,200.5
1439,E4,281.5,0.5,31,200.5
1440,A4,281.5,0.5,31,200.5
1441,B4,282.0,1.0,48,200.5
1442,C#5,282.0,1.0,48,200.5
1443,G5,282.0,1.0,48,200.5
1444,B3,282.0,1.0,34,200.5
1445,G4,282.0,1.0,34,200.5
1446,C#4,282.0,1.0,34,200.5
1447,F#5,283.0,0.5,41,200.5
1448,C#5,283.0,0.5,41,200.5
1449,A4,283.0,0.5,41,200.5
1450,C#4,283.0,0.5,30,200.5
1451,F#4,283.0,0.5,30,200.5
1452,A3,283.0,0.5,30,200.5
1453,F#4,283.5,0.5,44,200.5
1454,C#5,283.5,0.5,44,200.5
1455,E-5,283.5,0.5,44,200.5
1456,A1,283.5,0.5,38,200.5
1457,A2,283.5,0.5,38,200.5
1458,C#5,284.0,0.5,39,200.5
1459,G4,284.0,0.5,39,200.5
1460,E5,284.0,0.5,39,200.5
1461,B4,284.5,0.5,42,200.5
1462,G5,284.5,0.5,42,200.5
1463,C#5,284.5,0.5,42,200.5
1464,C#4,284.5,0.5,28,200.5
1465,B3,284.5,0.5,28,200.5
1466,G4,284.5,0.5,28,200.5
1467,C#5,285.0,2.5,46,200.5
1468,A4,285.0,2.5,46,200.5
1469,F#5,285.0,2.5,46,200.5
1470,C#4,285.0,2.5,33,200.5
1471,F#4,285.0,2.5,33,200.5
1472,A3,285.0,2.5,33,200.5
1473,G4,287.5,0.5,37,200.5
1474,E5,287.5,0.5,37,200.5
1475,C#5,287.5,0.5,37,200.5
1476,E4,287.5,0.5,28,200.5
1477,G3,287.5,0.5,28,200.5
1478,C#4,287.5,0.5,28,200.5
1479,F#4,288.0,1.5,38,200.5
1480,A4,288.0,2.5,42,200.5
1481,D5,288.0,2.5,42,200.5
1482,D3,288.0,0.5,33,200.5
1483,D2,288.0,0.5,33,200.5
1484,F#3,288.5,0.5,29,200.5
1485,A3,289.0,0.5,29,200.5
1486,F#4,289.5,0.25,38,200.5
1487,E5,290.5,0.5,36,200.5
1488,C5,291.0,1.0,42,200.5
1489,B4,292.0,0.5,32,200.5
1490,G#4,292.5,1.0,41,200.5
1491,D2,292.5,0.5,29,200.5
1492,A4,293.5,0.5,35,200.5
1493,C5,294.0,2.5,40,200.5
1494,E4,295.0,0.5,29,200.5
1495,C4,295.5,1.0,34,200.5
1496,G4,296.5,0.5,34,200.5
1497,B3,296.5,0.5,29,200.5
1498,F4,297.0,1.0,41,200.5
1499,D4,297.0,1.5,34,200.5
1500,G#3,297.0,1.0,36,200.5
1501,D3,297.0,4.5,30,200.5
1502,F#4,298.0,0.5,35,200.5
1503,A3,298.006,0.5,29,200.5
1504,C4,298.5,2.5,35,200.5
1505,A4,299.5,2.0,39,200.5
1506,G5,299.5,0.5,36,200.5
1507,E5,300.0,1.0,42,200.5
1508,C5,301.0,0.5,32,200.5
1509,G3,301.0,0.5,29,200.5
1510,D3,301.5,1.5,30,200.5
1511,F3,301.5,1.0,36,200.5
1512,D4,301.5,1.0,36,200.5
1513,G#4,301.5,1.0,36,200.5
1514,B4,301.5,1.0,36,200.5
1515,F#3,302.5,0.5,29,200.5
1516,C5,302.5,0.5,32,200.5
1517,A4,302.5,0.5,32,200.5
1518,D4,303.0,1.5,34,200.5
1519,D2,303.0,0.5,29,200.5
1520,C5,303.0,2.5,40,200.5
1521,E5,303.0,2.5,40,200.5
1522,G4,304.0,0.5,29,200.5
1523,E4,304.5,1.0,34,200.5
1524,C4,305.5,0.5,29,200.5
1525,B4,305.5,0.5,31,200.5
1526,G4,305.5,0.5,31,200.5
1527,B3,306.0,1.0,36,200.5
1528,D3,306.0,4.5,30,200.5
1529,G#4,306.0,1.0,34,200.5
1530,F4,306.0,1.0,34,200.5
1531,C4,307.0,0.5,29,200.5
1532,F#4,307.0,0.5,32,200.5
1533,A4,307.0,0.5,32,200.5
1534,E4,307.5,2.5,35,200.5
1535,B5,308.5,0.5,41,200.5
1536,C5,308.5,2.0,39,200.5
1537,G5,309.0,1.0,47,200.5
1538,E5,310.0,0.5,34,200.5
1539,B3,310.0,0.5,29,200.5
1540,G#3,310.5,1.0,36,200.5
1541,D3,310.5,3.0,30,200.5
1542,C5,311.5,2.0,39,200.5
1543,B5,311.5,0.5,41,200.5
1544,A3,311.5,0.5,29,200.5
1545,G5,312.0,1.0,47,200.5
1546,E5,313.0,0.5,34,200.5
1547,B4,313.0,0.5,36,200.5
1548,G4,313.5,1.0,42,200.5
1549,C5,314.5,0.5,39,200.5
1550,A5,314.5,0.5,41,200.5
1551,E4,314.5,0.5,30,200.5
1552,G5,315.0,1.0,47,200.5
1553,C5,315.0,1.5,39,200.5
1554,D2,315.0,0.5,29,200.5
1555,E5,316.0,0.5,34,200.5
1556,A4,316.0,0.5,36,200.5
1557,G4,316.5,1.0,42,200.5
1558,G5,317.5,0.5,41,200.5
1559,A4,317.5,2.0,39,200.5
1560,E4,317.5,0.5,30,200.5
1561,E5,318.0,1.0,47,200.5
1562,D2,318.0,0.5,29,200.5
1563,C5,319.0,0.5,34,200.5
1564,G4,319.0,0.5,36,200.5
1565,E4,319.5,1.0,42,200.5
1566,C4,320.5,0.5,30,200.5
1567,F#5,320.5,0.5,44,200.5
1568,C5,320.5,0.5,44,200.5
1569,A4,320.5,0.5,44,200.5
1570,D2,321.0,0.5,29,200.5
1571,A4,321.0,1.0,50,200.5
1572,C5,321.0,1.0,50,200.5
1573,E5,321.0,1.0,50,200.5
1574,D5,322.0,0.5,42,200.5
1575,A4,322.0,0.5,42,200.5
1576,F#4,322.0,0.5,30,200.5
1577,C4,322.0,0.5,30,200.5
1578,A3,322.0,0.5,30,200.5
1579,A4,322.5,1.0,50,200.5
1580,C5,322.5,1.0,50,200.5
1581,E4,322.5,1.0,34,200.5
1582,C4,322.5,1.0,34,200.5
1583,G3,322.5,1.0,34,200.5
1584,G4,323.5,0.5,42,200.5
1585,B4,323.5,0.5,42,200.5
1586,D4,323.5,0.5,31,200.5
1587,G3,323.5,0.5,31,200.5
1588,C#4,324.0,2.0,32,200.5
1589,D3,324.0,4.5,27,200.5
1590,G4,324.0,4.5,38,200.5
1591,B-4,324.0,4.5,38,200.5
1592,C#5,326.0,1.5,38,200.5
1593,B-3,326.0,1.5,29,200.5
1594,E5,327.5,1.0,37,200.5
1595,G3,327.5,1.0,30,200.5
1596,D4,328.5,4.0,34,200.5
1597,A4,328.5,4.0,34,200.5
1598,D3,328.5,4.0,23,200.5
1599,C4,328.5,4.0,23,200.5
1600,F#3,328.5,4.0,23,200.5
1601,G2,333.0,0.5,34,200.5
1602,D3,333.5,0.5,29,200.5
1603,G3,334.0,0.5,30,200.5
1604,G4,334.0,229/500,36,200.5
1605,D4,334.0,229/500,36,200.5
1606,B4,334.0,229/500,36,200.5
1607,B3,334.5,0.5,34,200.5
1608,D4,334.5,2479/1000,43,200.5
1609,B4,334.5,2479/1000,43,200.5
1610,G4,334.5,2479/1000,43,200.5
1611,G3,335.0,0.5,29,200.5
1612,D3,335.5,0.5,29,200.5
1613,E2,336.0,0.5,38,200.5
1614,G3,336.5,0.5,28,200.5
1615,B3,337.0,0.5,28,200.5
1616,G4,337.0,0.5,34,200.5
1617,D5,337.0,0.5,34,200.5
1618,B4,337.0,0.5,34,200.5
1619,E4,337.0,0.5,34,200.5
1620,D4,337.5,0.5,32,200.5
1621,E3,337.5,1.5,32,200.5
1622,B4,337.5,2.0,42,200.5
1623,D5,337.5,2.0,42,200.5
1624,G4,337.5,2.0,42,200.5
1625,E4,337.5,2.0,42,200.5
1626,B3,338.0,0.5,34,200.5
1627,G3,338.5,0.5,36,200.5
1628,A1,339.0,0.5,41,200.5
1629,A2,339.0,0.5,41,200.5
1630,C4,339.5,2.5,31,200.5
1631,E4,340.0,2.0,31,200.5
1632,A4,340.0,229/500,47,200.5
1633,G5,340.0,229/500,47,200.5
1634,E5,340.0,229/500,47,200.5
1635,C5,340.0,229/500,47,200.5
1636,A4,340.5,1.5,51,200.5
1637,C5,340.5,1.5,51,200.5
1638,E5,340.5,1.5,51,200.5
1639,G5,340.5,1.5,51,200.5
1640,G4,340.5,1.5,31,200.5
1641,A3,340.5,1.5,31,200.5
1642,C4,342.0,2.5,31,200.5
1643,E4,342.0,2.5,31,200.5
1644,A4,342.0,2.5,51,200.5
1645,C5,342.0,2.5,51,200.5
1646,E5,342.0,2.5,51,200.5
1647,G5,342.0,2.5,51,200.5
1648,G4,342.0,2.5,31,200.5
1649,A3,342.0,2.5,31,200.5
1650,A4,344.5,0.5,45,200.5
1651,G4,344.5,0.5,45,200.5
1652,E5,344.5,0.5,45,200.5
1653,E4,344.5,0.5,31,200.5
1654,A3,344.5,0.5,31,200.5
1655,G3,344.5,0.5,31,200.5
1656,E4,345.0,1.0,48,200.5
1657,C5,345.0,1.0,48,200.5
1658,G4,345.0,1.0,48,200.5
1659,C4,345.0,1.0,34,200.5
1660,E3,345.0,1.0,34,200.5
1661,G3,345.0,1.0,34,200.5
1662,G4,346.0,0.5,41,200.5
1663,D4,346.0,0.5,41,200.5
1664,B4,346.0,0.5,41,200.5
1665,G3,346.0,0.5,30,200.5
1666,B3,346.0,0.5,30,200.5
1667,D3,346.0,0.5,30,200.5
1668,D2,346.5,0.5,42,200.5
1669,B3,346.5,1.0,45,200.5
1670,G#4,346.5,1.0,45,200.5
1671,F#4,346.5,1.0,45,200.5
1672,C4,347.5,0.5,42,200.5
1673,F#4,347.5,0.5,42,200.5
1674,A4,347.5,0.5,42,200.5
1675,C3,347.5,0.5,30,200.5
1676,A3,347.5,0.5,30,200.5
1677,C5,348.0,1.5,49,200.5
1678,E4,348.0,1.5,49,200.5
1679,C4,348.0,1.5,35,200.5
1680,E3,348.0,1.5,35,200.5
1681,F#4,349.5,1.0,46,200.5
1682,D4,349.5,1.0,46,200.5
1683,D3,349.5,1.0,32,200.5
1684,A3,349.5,1.0,32,200.5
1685,G2,351.0,0.5,34,200.5
1686,D3,351.5,0.5,29,200.5
1687,G3,352.0,0.5,30,200.5
1688,D4,352.0,229/500,36,200.5
1689,G4,352.0,229/500,36,200.5
1690,B4,352.0,229/500,36,200.5
1691,B3,352.5,0.5,34,200.5
1692,G4,352.5,2479/1000,43,200.5
1693,D4,352.5,2479/1000,43,200.5
1694,B4,352.5,2479/1000,43,200.5
1695,G3,353.0,0.5,29,200.5
1696,D3,353.5,0.5,29,200.5
1697,E2,354.0,0.5,38,200.5
1698,G3,354.5,0.5,28,200.5
1699,B3,355.0,0.5,28,200.5
1700,E4,355.0,0.5,34,200.5
1701,D5,355.0,0.5,34,200.5
1702,B4,355.0,0.5,34,200.5
1703,G4,355.0,0.5,34,200.5
1704,D4,355.5,0.5,32,200.5
1705,E3,355.5,1.5,32,200.5
1706,E4,355.5,2479/1000,42,200.5
1707,G4,355.5,2479/1000,42,200.5
1708,B4,355.5,2479/1000,42,200.5
1709,D5,355.5,2479/1000,42,200.5
1710,B3,356.0,0.5,34,200.5
1711,G3,356.5,0.5,36,200.5
1712,B2,357.0,0.5,34,200.5
1713,F#3,357.5,0.5,29,200.5
1714,B4,358.0,229/500,41,200.5
1715,F#4,358.0,229/500,41,200.5
1716,D5,358.0,229/500,41,200.5
1717,B3,358.015,0.5,34,200.5
1718,D4,358.5,0.5,39,200.5
1719,F#4,358.5,1.5,49,200.5
1720,D5,358.5,1.5,49,200.5
1721,B4,358.5,1.5,49,200.5
1722,B3,359.0,0.5,33,200.5
1723,F#3,359.5,0.5,33,200.5
1724,G2,360.0,0.5,43,200.5
1725,F#4,360.0,979/1000,49,200.5
1726,D5,360.0,979/1000,49,200.5
1727,B4,360.0,979/1000,49,200.5
1728,B3,360.5,0.5,32,200.5
1729,D4,361.0,0.5,36,200.5
1730,B4,361.0,0.5,44,200.5
1731,F#5,361.0,0.5,44,200.5
1732,D5,361.0,0.5,44,200.5
1733,G4,361.0,0.5,44,200.5
1734,F#4,361.5,0.5,41,200.5
1735,G3,361.5,1.5,41,200.5
1736,D5,361.5,2479/1000,55,200.5
1737,F#5,361.5,2479/1000,55,200.5
1738,B4,361.5,2479/1000,55,200.5
1739,G4,361.5,2479/1000,55,200.5
1740,D4,362.0,0.5,44,200.5
1741,B3,362.5,0.5,47,200.5
1742,D3,363.0,0.5,43,200.5
1743,A3,363.5,0.5,32,200.5
1744,D4,364.0,0.5,37,200.5
1745,A4,364.0,0.5,47,200.5
1746,F#5,364.0,0.5,47,200.5
1747,D5,364.0,0.5,47,200.5
1748,F#4,364.5,0.5,43,200.5
1749,D5,364.5,2479/1000,59,200.5
1750,A4,364.5,2479/1000,59,200.5
1751,F#5,364.5,2479/1000,59,200.5
1752,D4,365.0,0.5,47,200.5
1753,A3,365.5,0.5,51,200.5
1754,B2,366.0,0.5,55,200.5
1755,D4,366.5,2.5,40,200.5
1756,F#4,367.0,2.0,46,200.5
1757,B4,367.0,0.5,50,200.5
1758,A5,367.0,0.5,50,200.5
1759,D5,367.0,0.5,50,200.5
1760,F#5,367.0,0.5,50,200.5
1761,F#5,367.5,1.5,60,200.5
1762,B4,367.5,1.5,64,200.5
1763,D5,367.5,1.5,64,200.5
1764,A5,367.5,1.5,64,200.5
1765,A4,367.5,1.5,48,200.5
1766,B3,367.5,1.5,48,200.5
1767,F#5,369.0,1.5,60,200.5
1768,D4,369.0,4.5,40,200.5
1769,F#4,369.0,1.5,46,200.5
1770,B4,369.0,4.5,64,200.5
1771,D5,369.0,4.5,64,200.5
1772,A5,369.0,4.5,64,200.5
1773,A4,369.0,4.5,48,200.5
1774,B3,369.0,4.5,48,200.5
1775,F5,370.5,3.0,65,200.5
1776,F4,370.5,3.0,55,200.5
1777,F5,373.5,1.0,65,200.5
1778,E2,373.5,0.5,62,200.5
1779,B4,373.5,1.0,64,200.5
1780,D5,373.5,1.0,64,200.5
1781,A5,373.5,1.0,64,200.5
1782,B4,374.5,0.5,49,200.5
1783,D5,374.5,0.5,49,200.5
1784,G#5,374.5,0.5,49,200.5
1785,B3,374.5,0.5,41,200.5
1786,G#4,374.5,0.5,41,200.5
1787,D4,374.5,0.5,41,200.5
1788,B5,375.0,1.5,69,200.5
1789,B4,375.0,1.5,55,200.5
1790,D5,376.5,1.0,50,200.5
1791,G#4,376.5,1.0,50,200.5
1792,G#3,376.5,1.0,46,200.5
1793,D4,376.5,1.0,46,200.5
1794,A2,378.0,0.5,62,200.5
1795,A4,379.0,2.0,50,200.5
1796,C#5,379.0,2.0,50,200.5
1797,C#4,379.0,2.0,42,200.5
1798,A3,379.0,2.0,42,200.5
1799,E5,379.5,1.5,69,200.5
1800,E4,379.5,1.5,55,200.5
1801,G4,381.0,1.0,55,200.5
1802,G3,381.0,1.0,50,200.5
1803,D2,382.5,0.5,62,200.5
1804,F#5,383.5,0.5,49,200.5
1805,E5,383.5,0.5,49,200.5
1806,C6,383.5,0.5,49,200.5
1807,F#4,383.5,0.5,41,200.5
1808,E4,383.5,0.5,41,200.5
1809,C5,383.5,0.5,41,200.5
1810,E6,384.0,1.5,74,200.5
1811,E5,384.0,1.5,60,200.5
1812,F#5,385.5,1.0,50,200.5
1813,C5,385.5,1.0,50,200.5
1814,D4,385.5,1.0,46,200.5
1815,F#4,385.5,1.0,46,200.5
1816,G2,387.0,0.5,62,200.5
1817,C4,388.0,2.0,33,200.5
1818,C5,388.0,2.0,41,200.5
1819,D5,388.0,2.0,41,200.5
1820,F5,388.0,2.0,41,200.5
1821,F4,388.0,3.0,36,200.5
1822,D4,388.0,3.0,36,200.5
1823,A5,388.5,1.5,58,200.5
1824,A4,388.5,1.5,46,200.5
1825,B4,390.0,1.0,44,200.5
1826,D5,390.0,1.0,44,200.5
1827,B3,390.0,1.0,38,200.5
1828,G4,390.0,1.0,38,200.5
1829,C2,391.5,0.5,34,200.5
1830,C3,391.5,0.5,34,200.5
1831,G3,392.0,0.5,29,200.5
1832,C4,392.5,0.5,30,200.5
1833,G4,392.5,229/500,36,200.5
1834,C5,392.5,229/500,36,200.5
1835,E5,392.5,229/500,36,200.5
1836,E4,393.0,0.5,34,200.5
1837,E5,393.0,2479/1000,43,200.5
1838,G4,393.0,2479/1000,43,200.5
1839,C5,393.0,2479/1000,43,200.5
1840,C4,393.5,0.5,29,200.5
1841,G3,394.0,0.5,29,200.5
1842,A2,394.5,0.5,38,200.5
1843,C4,395.0,0.5,28,200.5
1844,E4,395.5,0.5,28,200.5
1845,A4,395.5,0.5,34,200.5
1846,C5,395.5,0.5,34,200.5
1847,G5,395.5,0.5,34,200.5
1848,E5,395.5,0.5,34,200.5
1849,A3,396.0,1.5,32,200.5
1850,G4,396.0,0.5,32,200.5
1851,C5,396.0,2479/1000,42,200.5
1852,G5,396.0,2479/1000,42,200.5
1853,E5,396.0,2479/1000,42,200.5
1854,A4,396.0,2479/1000,42,200.5
1855,E4,396.5,0.5,34,200.5
1856,C4,397.0,0.5,36,200.5
1857,D2,397.5,0.5,41,200.5
1858,D3,397.5,0.5,41,200.5
1859,F4,398.0,2.5,31,200.5
1860,A4,398.5,2.0,31,200.5
1861,A5,398.5,229/500,47,200.5
1862,C6,398.5,229/500,47,200.5
1863,F5,398.5,229/500,47,200.5
1864,D5,398.5,229/500,47,200.5
1865,D5,399.0,1.5,51,200.5
1866,C6,399.0,1.5,51,200.5
1867,A5,399.0,1.5,51,200.5
1868,F5,399.0,1.5,51,200.5
1869,D4,399.0,1.5,31,200.5
1870,C5,399.0,1.5,31,200.5
1871,F4,400.5,2.5,31,200.5
1872,A4,400.5,2.5,31,200.5
1873,D5,400.5,2.5,51,200.5
1874,C6,400.5,2.5,51,200.5
1875,A5,400.5,2.5,51,200.5
1876,F5,400.5,2.5,51,200.5
1877,D4,400.5,2.5,31,200.5
1878,C5,400.5,2.5,31,200.5
1879,C5,403.0,0.5,45,200.5
1880,D5,403.0,0.5,45,200.5
1881,A5,403.0,0.5,45,200.5
1882,D4,403.0,0.5,31,200.5
1883,C4,403.0,0.5,31,200.5
1884,A4,403.0,0.5,31,200.5
1885,F5,403.5,1.0,48,200.5
1886,A4,403.5,1.0,48,200.5
1887,C5,403.5,1.0,48,200.5
1888,C4,403.5,1.0,34,200.5
1889,F4,403.5,1.0,34,200.5
1890,A3,403.5,1.0,34,200.5
1891,G4,404.5,0.5,41,200.5
1892,C5,404.5,0.5,41,200.5
1893,E5,404.5,0.5,41,200.5
1894,E4,404.5,0.5,30,200.5
1895,C4,404.5,0.5,30,200.5
1896,G3,404.5,0.5,30,200.5
1897,G2,405.0,0.5,42,200.5
1898,C#5,405.0,1.0,45,200.5
1899,B4,405.0,1.0,45,200.5
1900,E4,405.0,1.0,45,200.5
1901,F4,406.0,0.5,42,200.5
1902,B4,406.0,0.5,42,200.5
1903,D5,406.0,0.5,42,200.5
1904,F3,406.0,0.5,30,200.5
1905,D4,406.0,0.5,30,200.5
1906,F5,406.5,1.5,49,200.5
1907,A4,406.5,1.5,49,200.5
1908,F4,406.5,1.5,35,200.5
1909,A3,406.5,1.5,35,200.5
1910,G4,408.0,1.0,46,200.5
1911,B4,408.0,1.0,46,200.5
1912,G3,408.0,1.0,32,200.5
1913,D4,408.0,1.0,32,200.5
1914,C2,409.5,0.5,34,200.5
1915,C3,409.5,0.5,34,200.5
1916,G3,410.0,0.5,29,200.5
1917,C4,410.5,0.5,30,200.5
1918,E5,410.5,229/500,36,200.5
1919,C5,410.5,229/500,36,200.5
1920,G4,410.5,229/500,36,200.5
1921,E4,411.0,0.5,34,200.5
1922,G4,411.0,2479/1000,43,200.5
1923,C5,411.0,2479/1000,43,200.5
1924,E5,411.0,2479/1000,43,200.5
1925,C4,411.5,0.5,29,200.5
1926,G3,412.0,0.5,29,200.5
1927,A2,412.5,0.5,38,200.5
1928,C4,413.0,0.5,28,200.5
1929,E4,413.5,0.5,28,200.5
1930,E5,413.5,0.5,34,200.5
1931,G5,413.5,0.5,34,200.5
1932,C5,413.5,0.5,34,200.5
1933,A4,413.5,0.5,34,200.5
1934,G4,414.0,0.5,32,200.5
1935,A3,414.0,1.5,32,200.5
1936,A4,414.0,2.0,42,200.5
1937,G5,414.0,2.0,42,200.5
1938,E5,414.0,2.0,42,200.5
1939,C5,414.0,2.0,42,200.5
1940,E4,414.5,0.5,34,200.5
1941,C4,415.0,0.5,36,200.5
1942,D3,415.5,0.5,41,200.5
1943,D2,415.5,0.5,41,200.5
1944,A4,416.0,2.5,31,200.5
1945,C5,416.5,2.0,34,200.5
1946,F#5,416.5,229/500,52,200.5
1947,A5,416.5,229/500,52,200.5
1948,C6,416.5,229/500,52,200.5
1949,E6,416.5,229/500,52,200.5
1950,A5,417.0,1.5,56,200.5
1951,E6,417.0,1.5,56,200.5
1952,C6,417.0,1.5,56,200.5
1953,F#5,417.0,1.5,56,200.5
1954,F#4,417.0,1.5,34,200.5
1955,E5,417.0,1.5,34,200.5
1956,A4,418.5,2.5,31,200.5
1957,C5,418.5,2.5,34,200.5
1958,A5,418.5,2.5,56,200.5
1959,E6,418.5,2.5,56,200.5
1960,C6,418.5,2.5,56,200.5
1961,F#5,418.5,2.5,56,200.5
1962,F#4,418.5,2.5,34,200.5
1963,E5,418.5,2.5,34,200.5
1964,D6,421.0,0.5,45,200.5
1965,A5,421.0,0.5,45,200.5
1966,F#5,421.0,0.5,45,200.5
1967,A4,421.0,0.5,31,200.5
1968,D5,421.0,0.5,31,200.5
1969,F#4,421.0,0.5,31,200.5
1970,E5,421.5,1.0,48,200.5
1971,F#5,421.5,1.0,48,200.5
1972,C6,421.5,1.0,48,200.5
1973,F#4,421.5,1.0,34,200.5
1974,E4,421.5,1.0,34,200.5
1975,C5,421.5,1.0,34,200.5
1976,B5,422.5,0.5,41,200.5
1977,D5,422.5,0.5,41,200.5
1978,F#5,422.5,0.5,41,200.5
1979,D4,422.5,0.5,30,200.5
1980,B4,422.5,0.5,30,200.5
1981,F#4,422.5,0.5,30,200.5
1982,B4,423.0,0.5,44,200.5
1983,F#5,423.0,0.5,44,200.5
1984,G#5,423.0,0.5,44,200.5
1985,D2,423.0,0.5,38,200.5
1986,D3,423.0,0.5,38,200.5
1987,A5,423.5,0.5,39,200.5
1988,F#5,423.5,0.5,39,200.5
1989,C5,423.5,0.5,39,200.5
1990,E5,424.0,0.5,42,200.5
1991,F#5,424.0,0.5,42,200.5
1992,C6,424.0,0.5,42,200.5
1993,F#4,424.0,0.5,28,200.5
1994,E4,424.0,0.5,28,200.5
1995,C5,424.0,0.5,28,200.5
1996,F#5,424.5,2.5,46,200.5
1997,D5,424.5,2.5,46,200.5
1998,B5,424.5,2.5,46,200.5
1999,D4,424.5,2.5,33,200.5
2000,F#4,424.5,2.5,33,200.5
2001,B4,424.5,2.5,33,200.5
2002,C5,427.0,0.5,37,200.5
2003,A5,427.0,0.5,37,200.5
2004,F#5,427.0,0.5,37,200.5
2005,C4,427.0,0.5,28,200.5
2006,A4,427.0,0.5,28,200.5
2007,F#4,427.0,0.5,28,200.5
2008,F#4,427.5,0.5,44,200.5
2009,B3,427.5,0.5,44,200.5
2010,G#4,427.5,0.5,44,200.5
2011,F#3,427.5,0.5,29,200.5
2012,G#3,427.5,0.5,29,200.5
2013,B2,427.5,0.5,29,200.5
2014,C4,428.0,0.5,39,200.5
2015,A4,428.0,0.5,39,200.5
2016,F#4,428.0,0.5,39,200.5
2017,C3,428.0,0.5,28,200.5
2018,A3,428.0,0.5,28,200.5
2019,F#3,428.0,0.5,28,200.5
2020,E4,428.5,0.5,42,200.5
2021,F#4,428.5,0.5,42,200.5
2022,C5,428.5,0.5,42,200.5
2023,E3,428.5,0.5,28,200.5
2024,C4,428.5,0.5,28,200.5
2025,F#3,428.5,0.5,28,200.5
2026,B4,429.0,2.5,46,200.5
2027,F#4,429.0,2.5,46,200.5
2028,D4,429.0,2.5,46,200.5
2029,F#3,429.0,2.5,33,200.5
2030,B3,429.0,2.5,33,200.5
2031,D3,429.0,2.5,33,200.5
2032,C4,431.5,0.5,37,200.5
2033,F#4,431.5,0.5,37,200.5
2034,A4,431.5,0.5,37,200.5
2035,F#3,431.5,0.5,28,200.5
2036,C3,431.5,0.5,28,200.5
2037,A3,431.5,0.5,28,200.5
2038,B-5,432.0,0.5,60,200.5
2039,C#5,432.0,0.5,60,200.5
2040,G#5,432.0,0.5,60,200.5
2041,D2,432.0,0.5,52,200.5
2042,D3,432.0,0.5,52,200.5
2043,D5,432.5,0.5,53,200.5
2044,G#5,432.5,0.5,53,200.5
2045,B5,432.5,0.5,53,200.5
2046,D6,433.0,0.5,57,200.5
2047,G#5,433.0,0.5,57,200.5
2048,F5,433.0,0.5,57,200.5
2049,F4,433.0,0.5,37,200.5
2050,G#4,433.0,0.5,37,200.5
2051,D5,433.0,0.5,37,200.5
2052,E5,433.5,2.5,62,200.5
2053,G#5,433.5,2.5,62,200.5
2054,C6,433.5,2.5,62,200.5
2055,E4,433.5,2.5,45,200.5
2056,C5,433.5,2.5,45,200.5
2057,G#4,433.5,2.5,45,200.5
2058,G#5,436.0,0.5,49,200.5
2059,D5,436.0,0.5,49,200.5
2060,B5,436.0,0.5,49,200.5
2061,D4,436.0,0.5,38,200.5
2062,B4,436.0,0.5,38,200.5
2063,G#4,436.0,0.5,38,200.5
2064,C#4,436.5,0.5,60,200.5
2065,B-4,436.5,0.5,60,200.5
2066,G#4,436.5,0.5,60,200.5
2067,B-3,436.5,0.5,39,200.5
2068,G#3,436.5,0.5,39,200.5
2069,C#3,436.5,0.5,39,200.5
2070,G#4,437.0,0.5,53,200.5
2071,D4,437.0,0.5,53,200.5
2072,B4,437.0,0.5,53,200.5
2073,G#3,437.0,0.5,37,200.5
2074,B3,437.0,0.5,37,200.5
2075,D3,437.0,0.5,37,200.5
2076,F4,437.5,0.5,57,200.5
2077,D5,437.5,0.5,57,200.5
2078,G#4,437.5,0.5,57,200.5
2079,G#3,437.5,0.5,37,200.5
2080,F3,437.5,0.5,37,200.5
2081,D4,437.5,0.5,37,200.5
2082,E4,438.0,2.5,62,200.5
2083,G#4,438.0,2.5,62,200.5
2084,C5,438.0,2.5,62,200.5
2085,G#3,438.0,2.5,45,200.5
2086,E3,438.0,2.5,45,200.5
2087,C4,438.0,2.5,45,200.5
2088,B4,440.5,0.5,49,200.5
2089,G#4,440.5,0.5,49,200.5
2090,D4,440.5,0.5,49,200.5
2091,G#3,440.5,0.5,38,200.5
2092,D3,440.5,0.5,38,200.5
2093,B3,440.5,0.5,38,200.5
2094,D5,441.0,0.5,62,200.5
2095,G#5,441.0,0.5,62,200.5
2096,B5,441.0,0.5,62,200.5
2097,D3,441.0,0.5,55,200.5
2098,D2,441.0,0.5,55,200.5
2099,C6,441.5,0.5,55,200.5
2100,E5,441.5,0.5,55,200.5
2101,A5,441.5,0.5,55,200.5
2102,A5,442.0,479/1000,59,200.5
2103,C6,442.0,479/1000,59,200.5
2104,F#6,442.0,479/1000,59,200.5
2105,F#5,442.0,479/1000,38,200.5
2106,A4,442.0,479/1000,38,200.5
2107,C5,442.0,479/1000,38,200.5
2108,F#6,442.5,2.5,65,200.5
2109,C6,442.5,2.5,65,200.5
2110,A5,442.5,2.5,65,200.5
2111,C5,442.5,2.5,46,200.5
2112,F#5,442.5,2.5,46,200.5
2113,A4,442.5,2.5,46,200.5
2114,C6,445.0,479/1000,66,200.5
2115,E6,445.0,479/1000,66,200.5
2116,A6,445.0,479/1000,66,200.5
2117,C5,445.0,479/1000,46,200.5
2118,E5,445.0,479/1000,46,200.5
2119,A5,445.0,479/1000,46,200.5
2120,E6,445.5,2.5,70,200.5
2121,C6,445.5,2.5,70,200.5
2122,A6,445.5,2.5,70,200.5
2123,C5,445.5,2.5,51,200.5
2124,E5,445.5,2.5,51,200.5
2125,A5,445.5,2.5,51,200.5
2126,A5,448.0,0.5,58,200.5
2127,F#6,448.0,0.5,58,200.5
2128,C6,448.0,0.5,58,200.5
2129,A4,448.0,0.5,42,200.5
2130,F#5,448.0,0.5,42,200.5
2131,C5,448.0,0.5,42,200.5
2132,A5,448.5,1.0,65,200.5
2133,F#5,448.5,1.0,65,200.5
2134,D6,448.5,1.0,65,200.5
2135,F#4,448.5,1.0,48,200.5
2136,D5,448.5,1.0,48,200.5
2137,A4,448.5,1.0,48,200.5
2138,E5,449.5,0.5,57,200.5
2139,C6,449.5,0.5,57,200.5
2140,A5,449.5,0.5,57,200.5
2141,C5,449.5,0.5,44,200.5
2142,A4,449.5,0.5,44,200.5
2143,E4,449.5,0.5,44,200.5
2144,B4,450.0,0.5,56,200.5
2145,F#5,450.0,0.5,56,200.5
2146,G#5,450.0,0.5,56,200.5
2147,F#4,450.0,0.5,37,200.5
2148,G#4,450.0,0.5,37,200.5
2149,B3,450.0,0.5,37,200.5
2150,A5,450.5,0.5,49,200.5
2151,F#5,450.5,0.5,49,200.5
2152,C5,450.5,0.5,49,200.5
2153,F#4,450.5,0.5,35,200.5
2154,C4,450.5,0.5,35,200.5
2155,A4,450.5,0.5,35,200.5
2156,E5,451.0,0.5,51,200.5
2157,F#5,451.0,0.5,51,200.5
2158,C6,451.0,0.5,51,200.5
2159,F#4,451.0,0.5,34,200.5
2160,E4,451.0,0.5,34,200.5
2161,C5,451.0,0.5,34,200.5
2162,B5,451.5,2.5,54,200.5
2163,D5,451.5,2.5,54,200.5
2164,F#5,451.5,2.5,54,200.5
2165,F#4,451.5,2.5,39,200.5
2166,D4,451.5,2.5,39,200.5
2167,B4,451.5,2.5,39,200.5
2168,C5,454.0,177/500,38,200.5
2169,F#5,454.0,177/500,38,200.5
2170,A5,454.0,177/500,38,200.5
2171,C4,454.0,177/500,29,200.5
2172,A4,454.0,177/500,29,200.5
2173,F#4,454.0,177/500,29,200.5
2174,G4,454.375,0.125,55,200.5
2175,B4,454.438,0.062,54,200.5
2176,G5,454.5,0.375,67,200.5
2177,G4,454.5,0.375,55,200.5
2178,B4,454.5,0.375,54,200.5
2179,G2,454.5,0.25,42,200.5
2180,D3,455.0,0.25,34,200.5
2181,B3,455.5,0.25,37,200.5
2182,G3,455.5,0.25,34,200.5
2183,G2,456.0,0.25,39,200.5
2184,B3,456.0,0.25,38,200.5
2185,G3,456.0,0.25,38,200.5
2186,D3,456.5,0.25,30,200.5
2187,A3,456.5,0.25,34,200.5
2188,C4,456.5,0.25,34,200.5
2189,G3,457.0,0.25,30,200.5
2190,D4,457.0,0.25,34,200.5
2191,B3,457.0,0.25,34,200.5
2192,G2,457.5,0.25,39,200.5
2193,C4,457.5,0.25,38,200.5
2194,E4,457.5,0.25,38,200.5
2195,D3,458.0,0.25,32,200.5
2196,D4,458.0,0.25,34,200.5
2197,B3,458.0,0.25,34,200.5
2198,G4,458.375,0.5,51,200.5
2199,B4,458.438,0.438,55,200.5
2200,G5,458.5,0.375,64,200.5
2201,G3,458.5,0.25,32,200.5
2202,G2,459.0,0.25,42,200.5
2203,B3,459.0,0.25,38,200.5
2204,G3,459.0,0.25,38,200.5
2205,D3,459.5,0.25,34,200.5
2206,A3,459.5,0.25,34,200.5
2207,C4,459.5,0.25,34,200.5
2208,G3,460.0,0.25,34,200.5
2209,D4,460.0,0.25,34,200.5
2210,B3,460.0,0.25,34,200.5
2211,G2,460.5,0.25,39,200.5
2212,C4,460.5,0.25,38,200.5
2213,E4,460.5,0.25,38,200.5
2214,D3,461.0,0.25,30,200.5
2215,B3,461.0,0.25,34,200.5
2216,D4,461.0,0.25,34,200.5
2217,G4,461.375,0.5,49,200.5
2218,B4,461.438,0.438,49,200.5
2219,G5,461.5,0.375,64,200.5
2220,G3,461.5,0.25,30,200.5
2221,G2,462.0,0.25,39,200.5
2222,D3,462.5,0.25,32,200.5
2223,G4,462.875,0.5,49,200.5
2224,B4,462.938,0.438,49,200.5
2225,G5,463.0,0.375,65,200.5
2226,G3,463.0,0.25,32,200.5
2227,F2,463.5,0.25,42,200.5
2228,A5,463.5,0.375,56,200.5
2229,C5,463.5,0.375,56,200.5
2230,A4,463.5,0.375,56,200.5
2231,A2,464.0,0.25,34,200.5
2232,F3,464.5,0.25,34,200.5
2233,F3,464.5,0.25,33,200.5
2234,A3,464.5,0.25,33,200.5
2235,F2,465.0,0.25,40,200.5
2236,A3,465.0,0.25,39,200.5
2237,F3,465.0,0.25,39,200.5
2238,A2,465.5,0.25,33,200.5
2239,G3,465.5,0.25,36,200.5
2240,B-3,465.5,0.25,36,200.5
2241,F3,466.0,0.25,33,200.5
2242,A3,466.0,0.25,38,200.5
2243,C4,466.0,0.25,38,200.5
2244,F2,466.5,0.25,45,200.5
2245,B-3,466.5,0.25,44,200.5
2246,D4,466.5,0.25,44,200.5
2247,A2,467.0,0.25,37,200.5
2248,A3,467.0,0.25,40,200.5
2249,C4,467.0,0.25,40,200.5
2250,F3,467.5,0.25,39,200.5
2251,A4,467.5,0.375,61,200.5
2252,C5,467.5,0.375,61,200.5
2253,A5,467.5,0.375,61,200.5
2254,F2,468.0,0.25,42,200.5
2255,F3,468.0,0.25,42,200.5
2256,A3,468.0,0.25,42,200.5
2257,A2,468.5,0.25,34,200.5
2258,B-3,468.5,0.25,38,200.5
2259,G3,468.5,0.25,38,200.5
2260,F3,469.0,0.25,35,200.5
2261,C4,469.0,0.25,40,200.5
2262,A3,469.0,0.25,40,200.5
2263,F2,469.5,0.25,47,200.5
2264,A2,470.0,0.25,40,200.5
2265,F3,470.5,0.25,40,200.5
2266,C5,470.5,0.375,64,200.5
2267,A4,470.5,0.375,64,200.5
2268,A5,470.5,0.375,64,200.5
2269,F2,471.0,0.25,48,200.5
2270,A2,471.5,0.25,40,200.5
2271,F3,472.0,0.25,41,200.5
2272,A4,472.0,0.375,65,200.5
2273,A5,472.0,0.375,65,200.5
2274,C5,472.0,0.375,65,200.5
2275,E2,472.5,0.25,48,200.5
2276,B4,472.5,0.375,64,200.5
2277,G#5,472.5,0.375,64,200.5
2278,B5,472.5,0.375,64,200.5
2279,B2,473.0,0.25,39,200.5
2280,E3,473.5,0.25,39,200.5
2281,E3,473.5,0.25,39,200.5
2282,G#3,473.5,0.25,39,200.5
2283,E2,474.0,0.25,46,200.5
2284,G#3,474.0,0.25,44,200.5
2285,E3,474.0,0.25,44,200.5
2286,B2,474.5,0.25,37,200.5
2287,A3,474.5,0.25,41,200.5
2288,F#3,474.5,0.25,41,200.5
2289,E3,475.0,0.25,38,200.5
2290,G#3,475.0,0.25,42,200.5
2291,B3,475.0,0.25,42,200.5
2292,E2,475.5,0.25,51,200.5
2293,A3,475.5,0.25,49,200.5
2294,C4,475.5,0.25,49,200.5
2295,B2,476.0,0.25,43,200.5
2296,B3,476.0,0.25,46,200.5
2297,G#3,476.0,0.25,46,200.5
2298,B4,476.375,0.5,65,200.5
2299,G#5,476.438,0.438,65,200.5
2300,B5,476.5,0.375,78,200.5
2301,E3,476.5,0.25,44,200.5
2302,E2,477.0,0.25,48,200.5
2303,G#3,477.0,0.25,47,200.5
2304,E3,477.0,0.25,47,200.5
2305,B2,477.5,0.25,39,200.5
2306,A3,477.5,0.25,43,200.5
2307,F#3,477.5,0.25,43,200.5
2308,E3,478.0,0.25,40,200.5
2309,B3,478.0,0.25,45,200.5
2310,G#3,478.0,0.25,45,200.5
2311,E2,478.5,0.25,53,200.5
2312,B2,479.0,0.25,45,200.5
2313,E3,479.5,0.25,46,200.5
2314,B4,479.5,0.375,71,200.5
2315,G#5,479.5,0.375,71,200.5
2316,B5,479.5,0.375,71,200.5
2317,E2,480.0,0.25,54,200.5
2318,B2,480.5,0.25,45,200.5
2319,E3,481.0,0.25,47,200.5
2320,G#5,481.0,0.375,73,200.5
2321,B5,481.0,0.375,73,200.5
2322,B4,481.0,0.375,73,200.5
2323,D5,481.375,0.125,64,200.5
2324,F5,481.375,0.125,64,200.5
2325,A5,481.458,21/500,75,200.5
2326,D6,481.458,21/500,75,200.5
2327,D2,481.5,0.25,54,200.5
2328,D5,481.5,333/1000,64,200.5
2329,F5,481.5,333/1000,64,200.5
2330,A5,481.5,333/1000,75,200.5
2331,D6,481.5,333/1000,75,200.5
2332,F2,482.0,0.25,44,200.5
2333,D3,482.5,0.25,44,200.5
2334,D4,482.5,0.25,48,200.5
2335,F4,482.5,0.25,48,200.5
2336,D2,483.0,0.25,51,200.5
2337,D4,483.0,0.25,50,200.5
2338,F4,483.0,0.25,50,200.5
2339,F2,483.5,0.25,42,200.5
2340,E4,483.5,0.25,46,200.5
2341,G4,483.5,0.25,46,200.5
2342,D3,484.0,0.25,43,200.5
2343,A4,484.0,0.25,48,200.5
2344,F4,484.0,0.25,48,200.5
2345,D2,484.5,0.25,57,200.5
2346,G4,484.5,0.25,56,200.5
2347,B-4,484.5,0.25,56,200.5
2348,F2,485.0,0.25,48,200.5
2349,A4,485.0,0.25,52,200.5
2350,F4,485.0,0.25,52,200.5
2351,D5,485.375,229/500,73,200.5
2352,F5,485.375,229/500,73,200.5
2353,A5,485.458,0.375,80,200.5
2354,D6,485.458,0.375,80,200.5
2355,D3,485.5,0.25,49,200.5
2356,D2,486.0,0.25,54,200.5
2357,D4,486.0,0.25,52,200.5
2358,F4,486.0,0.25,52,200.5
2359,F2,486.5,0.25,43,200.5
2360,E4,486.5,0.25,48,200.5
2361,G4,486.5,0.25,48,200.5
2362,D3,487.0,0.25,45,200.5
2363,F4,487.0,0.25,50,200.5
2364,A4,487.0,0.25,50,200.5
2365,D2,487.5,0.25,59,200.5
2366,F2,488.0,0.25,50,200.5
2367,D5,488.375,229/500,75,200.5
2368,F5,488.375,229/500,75,200.5
2369,A5,488.458,0.375,82,200.5
2370,D6,488.458,0.375,82,200.5
2371,D3,488.5,0.25,51,200.5
2372,D2,489.0,0.25,60,200.5
2373,F2,489.5,0.25,50,200.5
2374,D5,489.875,229/500,77,200.5
2375,F5,489.875,229/500,77,200.5
2376,A5,489.958,0.375,84,200.5
2377,D6,489.958,0.375,84,200.5
2378,D3,490.0,0.25,52,200.5
2379,F5,490.375,0.125,67,200.5
2380,B5,490.438,0.062,67,200.5
2381,G6,490.5,0.375,80,200.5
2382,F5,490.5,0.375,67,200.5
2383,B5,490.5,0.375,67,200.5
2384,C2,490.5,0.25,60,200.5
2385,G2,491.0,0.25,49,200.5
2386,C3,491.5,0.25,49,200.5
2387,B4,491.5,0.25,50,200.5
2388,G4,491.5,0.25,50,200.5
2389,C2,492.0,0.25,57,200.5
2390,B4,492.0,0.25,56,200.5
2391,G4,492.0,0.25,56,200.5
2392,G2,492.5,0.25,46,200.5
2393,C5,492.5,0.25,51,200.5
2394,A4,492.5,0.25,51,200.5
2395,C3,493.0,0.25,47,200.5
2396,D5,493.0,0.25,52,200.5
2397,B4,493.0,0.25,52,200.5
2398,C2,493.5,0.25,62,200.5
2399,C5,493.5,0.25,60,200.5
2400,E5,493.5,0.25,60,200.5
2401,G2,494.0,0.25,52,200.5
2402,D5,494.0,0.25,56,200.5
2403,B4,494.0,0.25,56,200.5
2404,F5,494.375,0.5,78,200.5
2405,B5,494.438,0.438,78,200.5
2406,G6,494.5,0.375,93,200.5
2407,C3,494.5,0.25,53,200.5
2408,C2,495.0,0.25,60,200.5
2409,G4,495.0,0.25,54,200.5
2410,B4,495.0,0.25,54,200.5
2411,G2,495.5,0.25,49,200.5
2412,C5,495.5,0.25,49,200.5
2413,A4,495.5,0.25,49,200.5
2414,C3,496.0,0.25,49,200.5
2415,D5,496.0,0.25,49,200.5
2416,B4,496.0,0.25,49,200.5
2417,C2,496.5,0.25,56,200.5
2418,E5,496.5,0.25,54,200.5
2419,C5,496.5,0.25,54,200.5
2420,G2,497.0,0.25,44,200.5
2421,B4,497.0,0.25,50,200.5
2422,D5,497.0,0.25,50,200.5
2423,C3,497.5,0.25,44,200.5
2424,E5,497.5,0.25,49,200.5
2425,C5,497.5,0.25,49,200.5
2426,C2,498.0,0.25,56,200.5
2427,F5,498.0,0.25,54,200.5
2428,D5,498.0,0.25,54,200.5
2429,G2,498.5,0.25,46,200.5
2430,E5,498.5,0.25,50,200.5
2431,G5,498.5,0.25,50,200.5
2432,C3,499.0,0.25,46,200.5
2433,F5,499.0,0.25,49,200.5
2434,A5,499.0,0.25,49,200.5
2435,G5,499.375,0.125,78,200.5
2436,B5,499.438,0.062,78,200.5
2437,G6,499.5,0.375,93,200.5
2438,G5,499.5,0.375,78,200.5
2439,B5,499.5,0.375,78,200.5
2440,C2,499.506,0.25,60,200.5
2441,G2,500.0,0.25,49,200.5
2442,C3,500.5,0.25,49,200.5
2443,D5,500.5,0.25,50,200.5
2444,B4,500.5,0.25,50,200.5
2445,C2,501.0,0.25,57,200.5
2446,D5,501.0,0.25,56,200.5
2447,B4,501.0,0.25,56,200.5
2448,G2,501.5,0.25,46,200.5
2449,E5,501.5,0.25,51,200.5
2450,C5,501.5,0.25,51,200.5
2451,C3,502.0,0.25,47,200.5
2452,F5,502.0,0.25,52,200.5
2453,D5,502.0,0.25,52,200.5
2454,C2,502.5,0.25,62,200.5
2455,E5,502.5,0.25,60,200.5
2456,G5,502.5,0.25,60,200.5
2457,G2,503.0,0.25,52,200.5
2458,F5,503.0,0.25,56,200.5
2459,D5,503.0,0.25,56,200.5
2460,G5,503.375,0.5,78,200.5
2461,B5,503.438,0.438,78,200.5
2462,G6,503.5,0.375,93,200.5
2463,C3,503.5,0.25,53,200.5
2464,C2,504.0,0.25,66,200.5
2465,D5,504.0,0.25,58,200.5
2466,B5,504.0,0.25,58,200.5
2467,D6,504.0,0.25,58,200.5
2468,G2,504.5,0.25,55,200.5
2469,C6,504.5,0.25,53,200.5
2470,E5,504.5,0.25,53,200.5
2471,E6,504.5,0.25,53,200.5
2472,C3,505.0,0.25,56,200.5
2473,F6,505.0,0.25,55,200.5
2474,F5,505.0,0.25,55,200.5
2475,D6,505.0,0.25,55,200.5
2476,C2,505.5,0.25,67,200.5
2477,G6,505.5,0.25,63,200.5
2478,E6,505.5,0.25,63,200.5
2479,G5,505.5,0.25,63,200.5
2480,G2,506.0,0.25,54,200.5
2481,A6,506.0,0.25,59,200.5
2482,A5,506.0,0.25,59,200.5
2483,F6,506.0,0.25,59,200.5
2484,C3,506.5,0.25,55,200.5
2485,B-5,506.5,0.25,60,200.5
2486,G6,506.5,0.25,60,200.5
2487,B-6,506.5,0.25,60,200.5
2488,C2,507.0,0.25,72,200.5
2489,B-6,507.0,0.25,68,200.5
2490,B-5,507.0,0.25,68,200.5
2491,G6,507.0,0.25,68,200.5
2492,G2,507.5,0.25,61,200.5
2493,B-6,507.5,0.25,64,200.5
2494,B-5,507.5,0.25,64,200.5
2495,G6,507.5,0.25,64,200.5
2496,C3,508.0,0.25,62,200.5
2497,B-5,508.0,0.25,65,200.5
2498,B-6,508.0,0.25,65,200.5
2499,G6,508.0,0.25,65,200.5
2500,B1,508.5,0.25,80,200.5
2501,B6,508.5,2.0,81,200.5
2502,G6,508.5,2.0,81,200.5
2503,B5,508.5,2.0,81,200.5
2504,G2,509.0,0.25,57,200.5
2505,B2,509.5,0.25,58,200.5
2506,B1,510.0,0.25,75,200.5
2507,G2,510.5,0.25,57,200.5
2508,A5,510.5,0.25,72,200.5
2509,A6,510.5,0.25,72,200.5
2510,F#6,510.5,0.25,72,200.5
2511,B2,511.0,0.25,58,200.5
2512,E6,511.0,0.25,72,200.5
2513,G6,511.0,0.25,72,200.5
2514,G5,511.0,0.25,72,200.5
2515,B1,511.5,0.25,76,200.5
2516,F#6,511.5,1.5,81,200.5
2517,A6,511.5,1.5,81,200.5
2518,A5,511.5,1.5,81,200.5
2519,F#2,512.0,0.25,61,200.5
2520,B2,512.5,0.25,61,200.5
2521,B1,513.0,0.25,80,200.5
2522,F#6,513.0,0.5,81,200.5
2523,A6,513.0,0.5,81,200.5
2524,A5,513.0,0.5,81,200.5
2525,F#2,513.5,0.25,57,200.5
2526,G5,513.5,0.25,72,200.5
2527,E6,513.5,0.25,72,200.5
2528,G6,513.5,0.25,72,200.5
2529,B2,514.0,0.25,58,200.5
2530,F#5,514.0,0.25,72,200.5
2531,E-6,514.0,0.25,72,200.5
2532,F#6,514.0,0.25,72,200.5
2533,B1,514.5,0.25,75,200.5
2534,G5,514.5,0.25,81,200.5
2535,G6,514.5,0.25,81,200.5
2536,E6,514.5,0.25,81,200.5
2537,E2,515.0,0.25,57,200.5
2538,E-6,515.0,0.25,72,200.5
2539,F#6,515.0,0.25,72,200.5
2540,F#5,515.0,0.25,72,200.5
2541,B2,515.5,0.25,58,200.5
2542,C#6,515.5,0.25,72,200.5
2543,E5,515.5,0.25,72,200.5
2544,E6,515.5,0.25,72,200.5
2545,B1,516.0,0.25,76,200.5
2546,F#6,516.0,0.25,81,200.5
2547,E-6,516.0,0.25,81,200.5
2548,F#5,516.0,0.25,81,200.5
2549,E-2,516.5,0.25,61,200.5
2550,B2,517.0,0.25,61,200.5
2551,B5,517.0,0.25,74,200.5
2552,B4,517.0,0.25,74,200.5
2553,E1,517.5,0.25,80,200.5
2554,B6,517.5,2.0,81,200.5
2555,B5,517.5,2.0,81,200.5
2556,G#6,517.5,2.0,81,200.5
2557,B1,518.0,0.25,57,200.5
2558,E2,518.5,0.25,58,200.5
2559,E1,519.0,0.25,75,200.5
2560,B1,519.5,0.25,57,200.5
2561,F#6,519.5,0.25,72,200.5
2562,A6,519.5,0.25,72,200.5
2563,A5,519.5,0.25,72,200.5
2564,E2,520.0,0.25,58,200.5
2565,E6,520.0,0.25,72,200.5
2566,G#5,520.0,0.25,72,200.5
2567,G#6,520.0,0.25,72,200.5
2568,E1,520.5,0.25,76,200.5
2569,F#6,520.5,1.5,81,200.5
2570,A5,520.5,1.5,81,200.5
2571,A6,520.5,1.5,81,200.5
2572,B1,521.0,0.25,61,200.5
2573,E2,521.5,0.25,61,200.5
2574,E1,522.0,0.25,80,200.5
2575,F#6,522.0,0.5,81,200.5
2576,A5,522.0,0.5,81,200.5
2577,A6,522.0,0.5,81,200.5
2578,B1,522.5,0.25,57,200.5
2579,G#5,522.5,0.25,72,200.5
2580,E6,522.5,0.25,72,200.5
2581,G#6,522.5,0.25,72,200.5
2582,E2,523.0,0.25,58,200.5
2583,F#6,523.0,0.25,72,200.5
2584,E-6,523.0,0.25,72,200.5
2585,F#5,523.0,0.25,72,200.5
2586,E1,523.5,0.25,75,200.5
2587,G#6,523.5,0.25,81,200.5
2588,G#5,523.5,0.25,81,200.5
2589,E6,523.5,0.25,81,200.5
2590,B1,524.0,0.25,57,200.5
2591,F#6,524.0,0.25,72,200.5
2592,E-6,524.0,0.25,72,200.5
2593,F#5,524.0,0.25,72,200.5
2594,E2,524.5,0.25,58,200.5
2595,C#6,524.5,0.25,72,200.5
2596,E5,524.5,0.25,72,200.5
2597,E6,524.5,0.25,72,200.5
2598,E1,525.0,0.25,76,200.5
2599,E-6,525.0,0.25,81,200.5
2600,F#6,525.0,0.25,81,200.5
2601,F#5,525.0,0.25,81,200.5
2602,B1,525.5,0.25,61,200.5
2603,E2,526.0,0.25,61,200.5
2604,B5,526.0,0.25,74,200.5
2605,B4,526.0,0.25,74,200.5
2606,E1,526.5,0.25,71,200.5
2607,B6,526.5,0.25,92,200.5
2608,G#6,526.5,0.25,92,200.5
2609,B5,526.5,0.25,92,200.5
2610,G#5,527.5,1.0,82,200.5
2611,G#6,527.5,1.0,82,200.5
2612,E6,527.5,1.0,82,200.5
2613,G#3,527.5,1.0,56,200.5
2614,B3,527.5,1.0,56,200.5
2615,E3,527.5,1.0,56,200.5
2616,E4,527.5,1.0,56,200.5
2617,A5,528.5,1.5,82,200.5
2618,A6,528.5,1.5,82,200.5
2619,E6,528.5,1.5,82,200.5
2620,E3,528.5,1.5,56,200.5
2621,E4,528.5,1.5,56,200.5
2622,C#4,528.5,1.5,56,200.5
2623,A3,528.5,1.5,56,200.5
2624,F#6,530.0,0.75,80,200.5
2625,E6,530.0,0.75,80,200.5
2626,F#5,530.0,0.75,80,200.5
2627,E3,530.0,0.75,54,200.5
2628,E4,530.0,0.75,54,200.5
2629,F#3,530.0,0.75,54,200.5
2630,A3,530.0,0.75,54,200.5
2631,G#6,530.75,229/1000,71,200.5
2632,E6,530.75,229/1000,71,200.5
2633,G#5,530.75,229/1000,71,200.5
2634,E4,530.75,229/1000,48,200.5
2635,E3,530.75,229/1000,48,200.5
2636,B3,530.75,229/1000,48,200.5
2637,G#3,530.75,229/1000,48,200.5
2638,G#5,531.0,0.25,79,200.5
2639,G#6,531.0,0.25,79,200.5
2640,E6,531.0,0.25,79,200.5
2641,G#3,531.0,0.25,54,200.5
2642,B3,531.0,0.25,54,200.5
2643,E4,531.0,0.25,54,200.5
2644,E3,531.0,0.25,54,200.5
2645,G#4,532.0,1.0,73,200.5
2646,G#5,532.0,1.0,73,200.5
2647,E5,532.0,1.0,73,200.5
2648,E3,532.0,1.0,50,200.5
2649,E2,532.0,1.0,50,200.5
2650,B2,532.0,1.0,50,200.5
2651,E5,533.0,1.5,73,200.5
2652,A4,533.0,1.5,73,200.5
2653,A5,533.0,1.5,73,200.5
2654,E2,533.0,1.5,50,200.5
2655,E3,533.0,1.5,50,200.5
2656,C#3,533.0,1.5,50,200.5
2657,F#5,534.5,729/1000,71,200.5
2658,E5,534.5,729/1000,71,200.5
2659,F#4,534.5,729/1000,71,200.5
2660,E2,534.5,729/1000,49,200.5
2661,E3,534.5,729/1000,49,200.5
2662,A2,534.5,729/1000,49,200.5
2663,G#4,535.25,229/1000,64,200.5
2664,G#5,535.25,229/1000,64,200.5
2665,E5,535.25,229/1000,64,200.5
2666,E2,535.25,0.25,44,200.5
2667,E3,535.25,0.25,44,200.5
2668,B2,535.25,0.25,44,200.5
2669,E2,535.5,0.25,60,200.5
2670,E5,535.5,0.25,70,200.5
2671,G#5,535.5,0.25,70,200.5
2672,G#4,535.5,0.25,70,200.5
2673,B2,536.0,0.25,49,200.5
2674,E5,536.375,0.5,77,200.5
2675,G#5,536.438,0.438,77,200.5
2676,E6,536.5,0.375,92,200.5
2677,E3,536.5,0.25,49,200.5
2678,E1,537.0,0.25,56,200.5
2679,E3,537.0,0.25,84,200.5
2680,E4,537.0,0.25,84,200.5
2681,B1,537.5,0.25,44,200.5
2682,E2,538.0,0.25,44,200.5
2683,E1,538.5,0.25,56,200.5
2684,B1,539.0,0.25,46,200.5
2685,E5,539.375,0.5,77,200.5
2686,G#5,539.438,0.438,77,200.5
2687,E6,539.5,0.375,92,200.5
2688,E2,539.5,0.25,46,200.5
2689,E1,540.0,0.25,56,200.5
2690,E3,540.0,0.25,84,200.5
2691,E4,540.0,0.25,84,200.5
2692,B1,540.5,0.25,44,200.5
2693,E2,541.0,0.25,44,200.5
2694,E1,541.5,0.25,56,200.5
2695,B1,542.0,0.25,46,200.5
2696,E2,542.5,0.25,46,200.5
2697,E1,543.0,0.25,56,200.5
2698,E4,544.0,0.5,64,200.5
2699,E4,544.5,1.5,64,200.5
2700,C4,544.5,1.5,64,200.5
2701,A2,544.5,1.5,46,200.5
2702,E3,544.5,1.5,46,200.5
2703,E4,546.0,1.0,60,200.5
2704,A4,546.0,1.0,60,200.5
2705,C3,546.0,1.0,42,200.5
2706,A3,546.0,1.0,42,200.5
2707,E4,547.0,0.5,64,200.5
2708,B4,547.0,0.5,64,200.5
2709,E3,547.0,0.5,45,200.5
2710,B3,547.0,0.5,45,200.5
2711,C5,547.5,1.5,69,200.5
2712,E5,547.5,1.5,69,200.5
2713,C4,547.5,1.5,49,200.5
2714,E4,547.5,1.5,49,200.5
2715,A4,549.0,1.0,64,200.5
2716,C5,549.0,1.0,64,200.5
2717,A3,549.0,1.0,45,200.5
2718,C4,549.0,1.0,45,200.5
2719,E4,550.0,0.5,64,200.5
2720,E3,550.0,479/1000,49,200.5
2721,E4,550.5,1.5,64,200.5
2722,C4,550.5,1.5,64,200.5
2723,A2,550.5,1.5,46,200.5
2724,E3,550.5,1.5,46,200.5
2725,E4,552.0,1.0,60,200.5
2726,A4,552.0,1.0,60,200.5
2727,C3,552.0,1.0,42,200.5
2728,A3,552.0,1.0,42,200.5
2729,E4,553.0,0.5,64,200.5
2730,B4,553.0,0.5,64,200.5
2731,E3,553.0,0.5,45,200.5
2732,B3,553.0,0.5,45,200.5
2733,C5,553.5,2479/1000,69,200.5
2734,E5,553.5,2479/1000,69,200.5
2735,C4,553.5,2479/1000,49,200.5
2736,E4,553.5,2479/1000,49,200.5
2737,C5,556.0,0.5,64,200.5
2738,E5,556.0,0.5,64,200.5
2739,A3,556.0,0.5,45,200.5
2740,C4,556.0,0.5,45,200.5
2741,G4,556.5,2.0,67,200.5
2742,G5,556.5,2.0,67,200.5
2743,E5,556.5,2.0,67,200.5
2744,G2,556.5,1.5,49,200.5
2745,G3,556.5,1.5,49,200.5
2746,G3,558.0,1.5,53,200.5
2747,D5,558.5,0.375,65,200.5
2748,F5,558.5,0.375,65,200.5
2749,F4,558.5,0.375,46,200.5
2750,D4,558.5,0.375,46,200.5
2751,C5,559.0,0.375,59,200.5
2752,E5,559.0,0.375,59,200.5
2753,E4,559.0,0.375,42,200.5
2754,C4,559.0,0.375,42,200.5
2755,G3,559.5,1479/1000,53,200.5
2756,B4,559.5,1.5,69,200.5
2757,D5,559.5,1.5,69,200.5
2758,D4,559.5,1.5,49,200.5
2759,B3,559.5,1.5,49,200.5
2760,G4,561.0,979/1000,68,200.5
2761,G3,561.0,979/1000,57,200.5
2762,G4,562.0,0.5,69,200.5
2763,G3,562.0,0.5,49,200.5
2764,E4,562.5,2.0,67,200.5
2765,E5,562.5,2.0,67,200.5
2766,C5,562.5,2.0,67,200.5
2767,C3,562.5,1.5,49,200.5
2768,C4,562.5,1.5,49,200.5
2769,D3,564.0,1.5,49,200.5
2770,D4,564.0,1.5,49,200.5
2771,B4,564.5,0.375,65,200.5
2772,D5,564.5,0.375,65,200.5
2773,A4,565.0,0.375,59,200.5
2774,C5,565.0,0.375,59,200.5
2775,G#4,565.5,2479/1000,69,200.5
2776,B4,565.5,2479/1000,69,200.5
2777,E3,565.5,2479/1000,49,200.5
2778,E4,565.5,2479/1000,49,200.5
2779,E4,568.0,0.5,64,200.5
2780,E3,568.0,0.5,54,200.5
2781,C#4,568.5,1.5,64,200.5
2782,E4,568.5,1.5,64,200.5
2783,A2,568.5,1.5,46,200.5
2784,E3,568.5,1.5,46,200.5
2785,A4,570.0,1.0,60,200.5
2786,E4,570.0,1.0,60,200.5
2787,C3,570.0,1.0,42,200.5
2788,A3,570.0,1.0,42,200.5
2789,E4,571.0,0.5,64,200.5
2790,B4,571.0,0.5,64,200.5
2791,E3,571.0,0.5,45,200.5
2792,B3,571.0,0.5,45,200.5
2793,C#5,571.5,1.5,69,200.5
2794,E5,571.5,1.5,69,200.5
2795,C#4,571.5,1.5,49,200.5
2796,E4,571.5,1.5,49,200.5
2797,A4,573.0,979/1000,64,200.5
2798,C#5,573.0,979/1000,64,200.5
2799,C#4,573.0,979/1000,45,200.5
2800,A3,573.0,979/1000,45,200.5
2801,C#5,574.0,0.5,64,200.5
2802,E5,574.0,0.5,64,200.5
2803,A3,574.0,0.5,45,200.5
2804,A2,574.0,0.5,45,200.5
2805,G#4,574.5,3.0,63,200.5
2806,G#5,574.5,2.0,69,200.5
2807,E5,574.5,2.0,69,200.5
2808,G#2,574.5,1479/1000,49,200.5
2809,G#3,574.5,1479/1000,49,200.5
2810,G#3,576.0,1.5,53,200.5
2811,E-5,576.5,0.375,65,200.5
2812,F#5,576.5,0.375,65,200.5
2813,E-4,576.5,0.375,46,200.5
2814,F#4,576.5,0.375,46,200.5
2815,C#5,577.0,0.375,59,200.5
2816,E5,577.0,0.375,59,200.5
2817,C#4,577.0,0.375,42,200.5
2818,E4,577.0,0.375,42,200.5
2819,G#4,577.5,1479/1000,63,200.5
2820,G#3,577.5,1479/1000,53,200.5
2821,C5,577.5,2479/1000,69,200.5
2822,E-5,577.5,2479/1000,69,200.5
2823,C4,577.5,1.5,49,200.5
2824,E-4,577.5,1.5,49,200.5
2825,G#4,579.0,979/1000,68,200.5
2826,G#3,579.0,979/1000,57,200.5
2827,E-5,580.0,479/1000,64,200.5
2828,E-4,580.0,479/1000,56,200.5
2829,G#4,580.5,1.469,63,200.5
2830,E-5,580.5,1.469,63,200.5
2831,B4,580.5,1.469,63,200.5
2832,G#3,580.5,1.469,45,200.5
2833,B3,580.5,1.469,45,200.5
2834,E-4,580.5,1.469,45,200.5
2835,E5,582.0,979/1000,65,200.5
2836,E4,582.0,979/1000,46,200.5
2837,G#4,582.0,1.5,55,200.5
2838,B4,582.0,1.5,55,200.5
2839,G#3,582.0,1.5,39,200.5
2840,B3,582.0,1.5,39,200.5
2841,E5,583.0,479/1000,69,200.5
2842,E4,583.0,479/1000,49,200.5
2843,E5,583.5,1.5,67,200.5
2844,C5,583.5,1.5,67,200.5
2845,A4,583.5,1.5,67,200.5
2846,C4,583.5,677/500,48,200.5
2847,E4,583.5,677/500,48,200.5
2848,A3,583.5,677/500,48,200.5
2849,D3,584.875,1583/1000,46,200.5
2850,A3,584.875,1583/1000,46,200.5
2851,C4,584.958,771/500,49,200.5
2852,G5,585.0,979/1000,79,200.5
2853,G4,585.0,979/1000,50,200.5
2854,A4,585.0,1.5,67,200.5
2855,C5,585.0,1.5,67,200.5
2856,F5,586.0,0.5,75,200.5
2857,F4,586.0,0.5,49,200.5
2858,G4,586.5,1.5,63,200.5
2859,C5,586.5,1.5,63,200.5
2860,E5,586.5,1.5,63,200.5
2861,C4,586.5,1.5,45,200.5
2862,E4,586.5,1.5,45,200.5
2863,G3,586.5,1.5,45,200.5
2864,D5,588.0,979/1000,55,200.5
2865,A4,588.0,1.5,46,200.5
2866,D4,588.0,979/1000,39,200.5
2867,F3,588.0,1.5,33,200.5
2868,A3,588.0,1.5,33,200.5
2869,D5,589.0,0.5,55,200.5
2870,D4,589.0,0.5,39,200.5
2871,G#4,589.5,2.5,54,200.5
2872,E5,589.5,2.5,54,200.5
2873,B3,589.5,2.5,37,200.5
2874,E4,589.5,2.5,37,200.5
2875,E3,589.5,2.5,37,200.5
2876,E5,592.0,0.5,46,200.5
2877,C2,592.5,1.5,35,200.5
2878,E5,592.5,1.5,51,200.5
2879,G4,592.5,1.5,51,200.5
2880,C5,592.5,1.5,51,200.5
2881,G5,594.0,979/1000,59,200.5
2882,F2,594.0,1.5,28,200.5
2883,A4,594.0,1.5,50,200.5
2884,C5,594.0,1.5,50,200.5
2885,F5,595.0,0.5,56,200.5
2886,A2,595.5,1.5,36,200.5
2887,C5,595.5,1.5,45,200.5
2888,A4,595.5,1.5,45,200.5
2889,E5,595.5,1.5,45,200.5
2890,D5,597.0,979/1000,49,200.5
2891,B2,597.0,1.5,30,200.5
2892,F4,597.0,1.5,41,200.5
2893,B4,597.0,1.5,41,200.5
2894,D5,598.0,0.5,44,200.5
2895,E5,598.5,4.5,41,200.5
2896,E2,598.5,0.5,36,200.5
2897,E4,598.5,1.0,34,200.5
2898,G#4,598.5,1.0,34,200.5
2899,F3,599.0,0.5,27,200.5
2900,E3,599.5,479/1000,27,200.5
2901,E3,600.0,0.375,37,200.5
2902,E3,600.5,0.375,27,200.5
2903,E3,601.0,0.375,27,200.5
2904,C4,601.0,0.5,38,200.5
2905,A4,601.0,0.5,38,200.5
2906,E3,601.5,0.375,37,200.5
2907,D4,601.5,1.0,38,200.5
2908,B4,601.5,1.0,38,200.5
2909,E3,602.0,0.375,28,200.5
2910,E3,602.5,0.375,28,200.5
2911,E4,602.5,0.5,34,200.5
2912,C5,602.5,0.5,34,200.5
2913,E4,603.0,2.5,38,200.5
2914,E5,603.0,3.0,41,200.5
2915,E2,603.0,0.5,36,200.5
2916,A4,603.0,1.5,44,200.5
2917,C5,603.0,1.5,44,200.5
2918,F3,603.5,0.5,27,200.5
2919,E3,604.0,479/1000,27,200.5
2920,E3,604.5,0.375,37,200.5
2921,G#4,604.5,1.0,36,200.5
2922,B4,604.5,1.0,36,200.5
2923,E3,605.0,0.375,27,200.5
2924,E3,605.5,0.375,27,200.5
2925,C5,605.5,0.5,31,200.5
2926,A4,605.5,0.5,31,200.5
2927,E4,605.5,0.5,31,200.5
2928,E3,606.0,0.375,37,200.5
2929,F4,606.0,1.0,34,200.5
2930,A4,606.0,1.0,34,200.5
2931,D5,606.0,1.0,34,200.5
2932,E3,606.5,0.375,28,200.5
2933,E3,607.0,0.375,28,200.5
2934,A4,607.0,479/1000,41,200.5
2935,G4,607.0,479/1000,41,200.5
2936,E5,607.0,479/1000,41,200.5
2937,G5,607.5,1.5,56,200.5
2938,D2,607.5,0.5,36,200.5
2939,A4,607.5,2479/1000,43,200.5
2940,B4,607.5,2479/1000,43,200.5
2941,E3,608.0,0.5,27,200.5
2942,D3,608.5,479/1000,27,200.5
2943,F5,609.0,1.0,49,200.5
2944,D3,609.0,0.375,37,200.5
2945,D3,609.5,0.375,27,200.5
2946,D3,610.0,0.375,27,200.5
2947,B4,610.0,1979/1000,38,200.5
2948,A4,610.0,1979/1000,38,200.5
2949,D5,610.5,1.0,45,200.5
2950,D3,610.5,0.375,37,200.5
2951,D3,611.0,0.375,28,200.5
2952,F5,611.5,0.5,47,200.5
2953,D3,611.5,0.375,28,200.5
2954,E2,612.0,0.5,36,200.5
2955,B4,612.0,1.5,46,200.5
2956,A4,612.0,1.5,46,200.5
2957,F5,612.0,1.5,46,200.5
2958,F3,612.5,0.5,27,200.5
2959,E3,613.0,479/1000,27,200.5
2960,G#4,613.5,1479/1000,49,200.5
2961,E3,613.5,0.375,37,200.5
2962,E3,614.0,0.375,27,200.5
2963,B4,614.5,0.5,38,200.5
2964,E3,614.5,0.375,27,200.5
2965,E5,615.0,1.0,51,200.5
2966,E3,615.0,0.375,37,200.5
2967,G#4,615.0,1.5,38,200.5
2968,E4,615.0,1.5,38,200.5
2969,E3,615.5,0.375,28,200.5
2970,B4,616.0,0.5,41,200.5
2971,E3,616.0,0.375,28,200.5
2972,A2,616.5,0.5,36,200.5
2973,E4,616.5,1.5,36,200.5
2974,C#5,616.5,1.5,36,200.5
2975,A4,616.5,1.5,36,200.5
2976,F3,617.0,0.5,27,200.5
2977,E3,617.5,479/1000,27,200.5
2978,E3,618.0,0.375,37,200.5
2979,E3,618.5,0.375,27,200.5
2980,E3,619.0,0.375,27,200.5
2981,C#4,619.0,0.5,38,200.5
2982,A4,619.0,0.5,38,200.5
2983,E3,619.5,0.375,37,200.5
2984,D4,619.5,1.0,38,200.5
2985,B4,619.5,1.0,38,200.5
2986,E3,620.0,0.375,28,200.5
2987,E3,620.5,0.375,28,200.5
2988,A4,620.5,0.5,33,200.5
2989,E4,620.5,0.5,33,200.5
2990,C#5,620.5,0.5,33,200.5
2991,D2,620.938,0.062,36,200.5
2992,E5,621.0,1.5,51,200.5
2993,D3,621.0,0.5,43,200.5
2994,D2,621.0,0.5,36,200.5
2995,F4,621.0,3.0,43,200.5
2996,A4,621.0,3.0,43,200.5
2997,F3,621.5,0.5,27,200.5
2998,A3,622.0,479/1000,27,200.5
2999,D5,622.5,1.0,47,200.5
3000,D4,622.5,0.5,37,200.5
3001,A3,623.0,0.5,27,200.5
3002,F5,623.5,0.5,46,200.5
3003,F3,623.5,0.5,27,200.5
3004,E5,624.0,1.0,52,200.5
3005,D4,624.0,0.5,37,200.5
3006,F4,624.0,1.5,44,200.5
3007,B-4,624.0,1.5,44,200.5
3008,B-3,624.5,0.5,28,200.5
3009,D5,625.0,0.375,47,200.5
3010,F3,625.0,0.375,28,200.5
3011,G4,625.375,0.125,43,200.5
3012,B-4,625.438,0.062,43,200.5
3013,C5,625.5,4.5,51,200.5
3014,G4,625.5,0.5,43,200.5
3015,B-4,625.5,0.5,43,200.5
3016,E3,625.5,0.5,43,200.5
3017,G3,626.0,0.5,27,200.5
3018,B-3,626.5,479/1000,27,200.5
3019,C4,627.0,0.5,37,200.5
3020,B-3,627.5,0.5,27,200.5
3021,G5,628.0,0.5,40,200.5
3022,G3,628.0,0.5,27,200.5
3023,F5,628.5,1.0,49,200.5
3024,D3,628.5,0.5,37,200.5
3025,B-4,628.5,1.5,49,200.5
3026,G4,628.5,1.5,49,200.5
3027,G3,629.0,0.5,28,200.5
3028,E5,629.5,479/1000,42,200.5
3029,B-3,629.5,0.5,28,200.5
3030,C5,630.0,1.5,51,200.5
3031,C3,630.0,3.0,34,200.5
3032,G4,630.0,1.5,46,200.5
3033,B-4,630.0,1.5,46,200.5
3034,E5,630.0,1.5,46,200.5
3035,G3,630.5,0.5,24,200.5
3036,B-3,631.0,479/1000,24,200.5
3037,C4,631.5,0.5,32,200.5
3038,B-3,632.0,0.5,26,200.5
3039,E4,632.25,0.75,34,200.5
3040,G4,632.25,0.75,34,200.5
3041,G3,632.5,0.5,26,200.5
3042,C4,633.0,0.5,35,200.5
3043,E4,633.0,0.75,37,200.5
3044,G4,633.0,0.75,37,200.5
3045,A4,633.0,0.75,37,200.5
3046,G3,633.5,0.5,25,200.5
3047,B-4,633.75,0.75,38,200.5
3048,E4,633.75,0.75,38,200.5
3049,G4,633.75,0.75,38,200.5
3050,E3,634.0,0.5,25,200.5
3051,B2,634.5,3.0,34,200.5
3052,E4,634.5,3.0,41,200.5
3053,G4,634.5,3.0,41,200.5
3054,B4,634.5,3.0,41,200.5
3055,E3,635.0,0.5,24,200.5
3056,G3,635.5,479/1000,24,200.5
3057,B3,636.0,0.5,32,200.5
3058,G3,636.5,0.5,26,200.5
3059,E3,637.0,0.5,26,200.5
3060,B3,637.5,0.5,35,200.5
3061,B4,637.5,1.5,40,200.5
3062,G4,637.5,1.5,40,200.5
3063,E4,637.5,1.5,40,200.5
3064,G3,638.0,0.5,31,200.5
3065,E3,638.5,0.5,33,200.5
3066,E-4,639.0,4.5,48,200.5
3067,B2,639.0,3.0,41,200.5
3068,A4,639.0,1.5,52,200.5
3069,C5,639.0,1.5,52,200.5
3070,F#3,639.5,0.5,31,200.5
3071,A3,640.0,479/1000,31,200.5
3072,B3,640.5,0.5,38,200.5
3073,B4,640.5,1.5,47,200.5
3074,G4,640.5,1.5,47,200.5
3075,A3,641.0,0.5,26,200.5
3076,F#3,641.5,0.5,26,200.5
3077,B3,642.0,0.5,42,200.5
3078,F#4,642.0,1.5,42,200.5
3079,A4,642.0,1.5,42,200.5
3080,F#3,642.5,0.5,34,200.5
3081,E-3,643.0,0.5,34,200.5
3082,C3,643.5,3.0,47,200.5
3083,G4,643.5,1.5,49,200.5
3084,E4,643.5,1.5,49,200.5
3085,G3,644.0,0.5,30,200.5
3086,B-3,644.5,479/1000,30,200.5
3087,C4,645.0,0.5,45,200.5
3088,B-3,645.5,0.5,35,200.5
3089,E5,645.75,0.75,45,200.5
3090,G4,645.75,0.75,45,200.5
3091,G5,645.75,0.75,45,200.5
3092,G3,646.0,0.5,43,200.5
3093,C4,646.5,0.5,54,200.5
3094,A4,646.5,0.75,48,200.5
3095,A5,646.5,0.75,48,200.5
3096,E5,646.5,0.75,48,200.5
3097,G3,647.0,0.5,43,200.5
3098,B-4,647.25,0.75,50,200.5
3099,G5,647.25,0.75,50,200.5
3100,E5,647.25,0.75,50,200.5
3101,B-5,647.25,0.75,50,200.5
3102,E3,647.5,0.5,43,200.5
3103,B2,648.0,1.5,53,200.5
3104,G5,648.0,2.25,54,200.5
3105,E5,648.0,2.25,54,200.5
3106,B4,648.0,2.25,54,200.5
3107,B5,648.0,2.25,54,200.5
3108,E3,648.5,0.5,43,200.5
3109,G3,649.0,0.5,43,200.5
3110,B3,649.5,0.5,55,200.5
3111,E5,650.25,0.75,57,200.5
3112,G5,650.25,0.75,57,200.5
3113,B3,650.875,1.625,48,200.5
3114,G4,650.938,1.562,48,200.5
3115,E5,651.0,1.5,48,200.5
3116,G5,651.0,0.75,60,200.5
3117,B5,651.0,0.75,60,200.5
3118,E6,651.75,0.75,64,200.5
3119,G5,651.75,0.75,64,200.5
3120,E-5,652.5,1.25,48,200.5
3121,A6,652.5,1.5,65,200.5
3122,A5,652.5,1.5,65,200.5
3123,C6,652.5,1.5,65,200.5
3124,B3,652.5,4.5,48,200.5
3125,F#4,652.5,4.5,48,200.5
3126,A4,652.5,4.5,48,200.5
3127,E5,653.75,0.125,48,200.5
3128,E-5,653.875,0.125,48,200.5
3129,C#5,654.0,1.5,48,200.5
3130,G6,654.0,1.5,60,200.5
3131,B5,654.0,1.5,60,200.5
3132,G5,654.0,1.5,60,200.5
3133,E-5,655.5,1.5,48,200.5
3134,F#5,655.5,1.5,59,200.5
3135,F#6,655.5,1.5,59,200.5
3136,A5,655.5,1.5,59,200.5
3137,E3,657.0,0.5,48,200.5
3138,E6,657.0,1.5,66,200.5
3139,G#5,657.0,1.5,66,200.5
3140,E5,657.0,1.5,66,200.5
3141,F4,657.5,0.5,55,200.5
3142,E4,658.0,0.5,48,200.5
3143,F3,658.5,0.5,54,200.5
3144,E3,659.0,0.5,48,200.5
3145,F2,659.5,0.5,61,200.5
3146,E2,660.0,479/1000,55,200.5
3147,E2,660.5,0.25,48,200.5
3148,E2,661.0,0.25,47,200.5
3149,E6,661.0,0.5,64,200.5
3150,E5,661.0,0.5,64,200.5
3151,E5,661.5,1.5,63,200.5
3152,C6,661.5,1.5,63,200.5
3153,E6,661.5,1.5,63,200.5
3154,E2,661.5,1.5,46,200.5
3155,A1,661.5,1.5,46,200.5
3156,C6,663.0,1.0,58,200.5
3157,C5,663.0,1.0,58,200.5
3158,A5,663.0,1.0,58,200.5
3159,A2,663.0,1.0,42,200.5
3160,C2,663.0,1.0,42,200.5
3161,B4,664.0,0.5,62,200.5
3162,G#5,664.0,0.5,62,200.5
3163,B5,664.0,0.5,62,200.5
3164,B2,664.0,0.5,45,200.5
3165,E2,664.0,0.5,45,200.5
3166,C5,664.5,2.5,63,200.5
3167,E5,664.5,1.5,69,200.5
3168,E4,664.5,1.5,69,200.5
3169,E3,664.5,1479/1000,49,200.5
3170,C3,664.5,1479/1000,49,200.5
3171,A4,666.0,1.0,64,200.5
3172,A5,666.0,1.0,64,200.5
3173,C3,666.0,1.0,45,200.5
3174,A2,666.0,1.0,45,200.5
3175,E6,667.0,0.5,58,200.5
3176,E5,667.0,0.5,58,200.5
3177,C6,667.0,0.5,58,200.5
3178,E2,667.0,479/1000,46,200.5
3179,A1,667.0,479/1000,46,200.5
3180,E5,667.5,1.5,63,200.5
3181,C6,667.5,1.5,63,200.5
3182,E6,667.5,1.5,63,200.5
3183,A1,667.5,1.5,46,200.5
3184,E2,667.5,1.5,46,200.5
3185,C6,669.0,1.0,58,200.5
3186,A5,669.0,1.0,58,200.5
3187,C5,669.0,1.0,58,200.5
3188,C2,669.0,1.0,42,200.5
3189,A2,669.0,1.0,42,200.5
3190,B4,670.0,0.5,62,200.5
3191,G#5,670.0,0.5,62,200.5
3192,B5,670.0,0.5,62,200.5
3193,E2,670.0,0.5,45,200.5
3194,B2,670.0,0.5,45,200.5
3195,C5,670.5,2479/1000,67,200.5
3196,E4,670.5,2479/1000,67,200.5
3197,E5,670.5,2479/1000,67,200.5
3198,C3,670.5,1.5,49,200.5
3199,E3,670.5,1.5,49,200.5
3200,A2,672.0,979/1000,53,200.5
3201,C3,672.0,979/1000,53,200.5
3202,E4,673.0,0.5,62,200.5
3203,E5,673.0,0.5,62,200.5
3204,C5,673.0,0.5,62,200.5
3205,C3,673.0,0.5,45,200.5
3206,E3,673.0,0.5,45,200.5
3207,G2,673.5,3.0,49,200.5
3208,C5,673.5,1.5,63,200.5
3209,E4,673.5,1.5,63,200.5
3210,E5,673.5,1.5,63,200.5
3211,G3,673.5,2.0,46,200.5
3212,E3,673.5,2.0,46,200.5
3213,F4,675.0,1.0,58,200.5
3214,F5,675.0,1.0,58,200.5
3215,D5,675.0,1.0,58,200.5
3216,F3,675.5,0.375,49,200.5
3217,D3,675.5,0.375,49,200.5
3218,G4,676.0,0.5,62,200.5
3219,E5,676.0,0.5,62,200.5
3220,G5,676.0,0.5,62,200.5
3221,E3,676.0,0.375,45,200.5
3222,C3,676.0,0.375,45,200.5
3223,B4,676.5,2.5,63,200.5
3224,G5,676.5,1.5,69,200.5
3225,G4,676.5,1.5,69,200.5
3226,D3,676.5,2479/1000,49,200.5
3227,G2,676.5,2479/1000,49,200.5
3228,F4,678.0,1.0,64,200.5
3229,F5,678.0,1.0,64,200.5
3230,D4,679.0,0.5,58,200.5
3231,D5,679.0,0.5,58,200.5
3232,B4,679.0,0.5,58,200.5
3233,D3,679.0,479/1000,46,200.5
3234,G2,679.0,479/1000,46,200.5
3235,C5,679.5,1.0,70,200.5
3236,E2,679.5,3.0,49,200.5
3237,C4,679.5,2.0,59,200.5
3238,A4,679.5,2.0,59,200.5
3239,C3,679.5,2.0,46,200.5
3240,E3,679.5,2.0,46,200.5
3241,D5,680.5,167/1000,66,200.5
3242,C5,680.667,167/1000,55,200.5
3243,B4,680.833,167/1000,55,200.5
3244,C5,681.0,0.5,70,200.5
3245,D4,681.5,0.375,62,200.5
3246,B4,681.5,0.375,62,200.5
3247,D5,681.5,0.375,62,200.5
3248,B2,681.5,0.375,49,200.5
3249,D3,681.5,0.375,49,200.5
3250,C5,682.0,0.375,62,200.5
3251,E4,682.0,0.375,62,200.5
3252,E5,682.0,0.375,62,200.5
3253,A2,682.0,0.375,45,200.5
3254,C3,682.0,0.375,45,200.5
3255,E4,682.5,1.5,67,200.5
3256,E5,682.5,1.5,67,200.5
3257,G#4,682.5,1.5,67,200.5
3258,B2,682.5,2479/1000,49,200.5
3259,E2,682.5,2479/1000,49,200.5
3260,E2,685.0,0.5,47,200.5
3261,E5,685.0,0.5,64,200.5
3262,E6,685.0,0.5,64,200.5
3263,E5,685.5,1.5,63,200.5
3264,C#6,685.5,1.5,63,200.5
3265,E6,685.5,1.5,63,200.5
3266,E2,685.5,1.5,46,200.5
3267,A1,685.5,1.5,46,200.5
3268,A5,687.0,1.0,58,200.5
3269,C#5,687.0,1.0,58,200.5
3270,C#6,687.0,1.0,58,200.5
3271,C#2,687.0,1.0,42,200.5
3272,A2,687.0,1.0,42,200.5
3273,B4,688.0,0.5,62,200.5
3274,B5,688.0,0.5,62,200.5
3275,G#5,688.0,0.5,62,200.5
3276,E2,688.0,0.5,45,200.5
3277,B2,688.0,0.5,45,200.5
3278,C#5,688.5,2.5,63,200.5
3279,E4,688.5,1.5,69,200.5
3280,E5,688.5,1.5,69,200.5
3281,C#3,688.5,1.5,49,200.5
3282,E3,688.5,1.5,49,200.5
3283,A4,690.0,1.0,64,200.5
3284,A5,690.0,1.0,64,200.5
3285,A2,690.0,1.0,45,200.5
3286,C#3,690.0,1.0,45,200.5
3287,C#6,691.0,0.5,58,200.5
3288,E5,691.0,0.5,58,200.5
3289,E6,691.0,0.5,58,200.5
3290,A1,691.0,479/1000,46,200.5
3291,A2,691.0,479/1000,46,200.5
3292,G#5,691.5,2.0,69,200.5
3293,G#6,691.5,2.0,69,200.5
3294,E6,691.5,2.0,69,200.5
3295,G#1,691.5,1.5,46,200.5
3296,G#2,691.5,1.5,46,200.5
3297,G#3,693.0,1.5,46,200.5
3298,E-6,693.5,0.375,58,200.5
3299,F#5,693.5,0.375,58,200.5
3300,F#6,693.5,0.375,58,200.5
3301,E-4,693.5,0.375,45,200.5
3302,F#4,693.5,0.375,45,200.5
3303,E5,694.0,0.375,62,200.5
3304,E6,694.0,0.375,62,200.5
3305,C#6,694.0,0.375,62,200.5
3306,E4,694.0,0.375,45,200.5
3307,C#4,694.0,0.375,45,200.5
3308,G#3,694.5,1.5,46,200.5
3309,E-5,694.5,2479/1000,67,200.5
3310,C6,694.5,2479/1000,67,200.5
3311,E-6,694.5,2479/1000,67,200.5
3312,E-4,694.5,2479/1000,49,200.5
3313,C4,694.5,2479/1000,49,200.5
3314,G#3,696.0,979/1000,53,200.5
3315,E-4,697.0,0.5,44,200.5
3316,E-6,697.0,0.5,57,200.5
3317,E-5,697.0,0.5,57,200.5
3318,B5,697.5,3.0,54,200.5
3319,E-4,697.5,1.5,49,200.5
3320,E-5,697.5,1.5,60,200.5
3321,E-6,697.5,1.5,60,200.5
3322,B3,697.5,3.0,46,200.5
3323,G#3,697.5,3.0,46,200.5
3324,E4,699.0,979/1000,48,200.5
3325,E6,699.0,979/1000,62,200.5
3326,E5,699.0,979/1000,62,200.5
3327,E4,700.0,479/1000,46,200.5
3328,E5,700.0,479/1000,60,200.5
3329,E6,700.0,479/1000,60,200.5
3330,C6,700.5,3.0,57,200.5
3331,E4,700.5,1.5,52,200.5
3332,E5,700.5,1.5,64,200.5
3333,E6,700.5,1.5,64,200.5
3334,A3,700.5,3.0,48,200.5
3335,C4,700.5,3.0,48,200.5
3336,F4,702.0,979/1000,51,200.5
3337,F6,702.0,979/1000,66,200.5
3338,F5,702.0,979/1000,66,200.5
3339,F4,703.0,479/1000,48,200.5
3340,F6,703.0,479/1000,62,200.5
3341,F5,703.0,479/1000,62,200.5
3342,F5,703.5,1.5,65,200.5
3343,F6,703.5,1.5,65,200.5
3344,D6,703.5,1.5,65,200.5
3345,F4,703.5,323/250,47,200.5
3346,D4,703.5,323/250,47,200.5
3347,B3,703.5,323/250,47,200.5
3348,B2,704.812,1.688,42,200.5
3349,F3,704.875,1.625,42,200.5
3350,G3,704.938,1.562,42,200.5
3351,D4,705.0,1.5,50,200.5
3352,A6,705.0,1.0,69,200.5
3353,F6,705.0,1.0,69,200.5
3354,D6,705.0,1.0,69,200.5
3355,A5,705.0,1.0,69,200.5
3356,G6,706.0,0.5,68,200.5
3357,G5,706.0,0.5,68,200.5
3358,A5,706.5,1.5,65,200.5
3359,F5,706.5,1.5,65,200.5
3360,C6,706.5,1.5,65,200.5
3361,F6,706.5,1.5,65,200.5
3362,C3,706.5,1.5,47,200.5
3363,A3,706.5,1.5,47,200.5
3364,C4,706.5,1.5,47,200.5
3365,F3,706.5,1.5,47,200.5
3366,C6,708.0,1.0,69,200.5
3367,E5,708.0,1.0,69,200.5
3368,B-5,708.0,1.0,69,200.5
3369,E6,708.0,1.0,69,200.5
3370,G3,708.0,1.0,45,200.5
3371,C3,708.0,1.0,45,200.5
3372,C4,708.0,1.0,45,200.5
3373,C3,709.0,479/1000,50,200.5
3374,F5,709.0,479/1000,68,200.5
3375,F6,709.0,479/1000,68,200.5
3376,F5,709.5,1.5,65,200.5
3377,F6,709.5,1.5,65,200.5
3378,C6,709.5,1.5,65,200.5
3379,A5,709.5,1.5,65,200.5
3380,C3,709.5,1.5,49,200.5
3381,F2,709.5,1.5,49,200.5
3382,F3,711.0,1.0,50,200.5
3383,A2,711.0,1.0,50,200.5
3384,C5,712.0,0.25,68,200.5
3385,C4,712.0,0.25,68,200.5
3386,G3,712.0,0.5,52,200.5
3387,C3,712.0,0.5,52,200.5
3388,C#4,712.5,1.5,73,200.5
3389,A4,712.5,1.5,73,200.5
3390,C#5,712.5,1.5,73,200.5
3391,F3,712.5,1.5,57,200.5
3392,A3,712.5,1.5,57,200.5
3393,F5,714.0,0.25,52,200.5
3394,F4,714.0,0.25,52,200.5
3395,F3,714.0,1.0,48,200.5
3396,C#3,714.0,1.0,48,200.5
3397,A2,714.0,1.0,48,200.5
3398,A5,714.5,0.25,56,200.5
3399,A4,714.5,0.25,56,200.5
3400,C#5,715.0,0.25,59,200.5
3401,C#6,715.0,0.25,59,200.5
3402,F6,715.5,1.5,64,200.5
3403,C#6,715.5,1.5,64,200.5
3404,F5,715.5,1.5,64,200.5
3405,B-2,715.5,1.5,52,200.5
3406,C#3,715.5,1.5,52,200.5
3407,C#6,717.0,979/1000,61,200.5
3408,F#6,717.0,979/1000,61,200.5
3409,F#5,717.0,979/1000,61,200.5
3410,B-2,717.0,0.5,49,200.5
3411,F#3,717.0,0.5,49,200.5
3412,C#3,717.5,0.5,44,200.5
3413,B-3,717.5,0.5,44,200.5
3414,F#6,718.0,0.5,60,200.5
3415,F#5,718.0,0.5,60,200.5
3416,F#3,718.0,0.5,46,200.5
3417,C#4,718.0,0.5,46,200.5
3418,F#5,718.5,1.5,70,200.5
3419,F#6,718.5,1.5,70,200.5
3420,D6,718.5,1.5,70,200.5
3421,D4,718.5,1.5,57,200.5
3422,B3,718.5,1.5,57,200.5
3423,G6,720.0,979/1000,63,200.5
3424,G5,720.0,979/1000,63,200.5
3425,D6,720.0,979/1000,63,200.5
3426,B2,720.0,0.5,51,200.5
3427,G3,720.0,0.5,51,200.5
3428,D3,720.5,0.5,45,200.5
3429,B3,720.5,0.5,45,200.5
3430,G5,721.0,479/1000,61,200.5
3431,G6,721.0,479/1000,61,200.5
3432,D4,721.0,0.5,46,200.5
3433,G3,721.0,0.5,46,200.5
3434,E6,721.5,1.5,65,200.5
3435,G6,721.5,1.5,65,200.5
3436,G5,721.5,1.5,65,200.5
3437,C4,721.5,323/250,48,200.5
3438,E4,721.5,323/250,48,200.5
3439,C3,722.812,1.688,42,200.5
3440,G3,722.875,1.625,42,200.5
3441,A3,722.938,1.562,42,200.5
3442,E4,723.0,1.5,50,200.5
3443,G6,723.0,1.0,69,200.5
3444,E6,723.0,1.0,69,200.5
3445,B6,723.0,1.0,69,200.5
3446,B5,723.0,1.0,69,200.5
3447,A5,724.0,0.5,68,200.5
3448,A6,724.0,0.5,68,200.5
3449,G5,724.5,1.5,65,200.5
3450,D6,724.5,1.5,65,200.5
3451,B5,724.5,1.5,65,200.5
3452,G6,724.5,1.5,65,200.5
3453,B3,724.5,1.5,47,200.5
3454,D3,724.5,1.5,47,200.5
3455,D4,724.5,1.5,47,200.5
3456,G3,724.5,1.5,47,200.5
3457,D6,726.0,1.0,68,200.5
3458,F#6,726.0,1.0,68,200.5
3459,C6,726.0,1.0,68,200.5
3460,A5,726.0,1.0,68,200.5
3461,F#5,726.0,1.0,68,200.5
3462,D3,726.0,1.0,45,200.5
3463,D4,726.0,1.0,45,200.5
3464,A3,726.0,1.0,45,200.5
3465,D3,727.0,479/1000,50,200.5
3466,G6,727.0,479/1000,68,200.5
3467,G5,727.0,479/1000,68,200.5
3468,B5,727.5,1.5,65,200.5
3469,D6,727.5,1.5,65,200.5
3470,G5,727.5,1.5,65,200.5
3471,G6,727.5,1.5,65,200.5
3472,D3,727.5,1.5,49,200.5
3473,G2,727.5,1.5,49,200.5
3474,B2,729.0,1.0,50,200.5
3475,G3,729.0,1.0,50,200.5
3476,D5,730.0,0.5,68,200.5
3477,D4,730.0,0.5,68,200.5
3478,D3,730.0,0.5,52,200.5
3479,A3,730.0,0.5,52,200.5
3480,E-4,730.5,2.0,73,200.5
3481,B4,730.5,2.0,73,200.5
3482,E-5,730.5,2.0,73,200.5
3483,G3,730.5,1.5,57,200.5
3484,B3,730.5,1.5,57,200.5
3485,B2,732.0,0.5,48,200.5
3486,E-3,732.0,0.5,48,200.5
3487,G3,732.0,0.5,48,200.5
3488,G5,732.5,0.25,64,200.5
3489,G4,732.5,0.25,64,200.5
3490,A4,733.0,0.25,68,200.5
3491,A5,733.0,0.25,68,200.5
3492,G2,733.0,479/1000,52,200.5
3493,E-3,733.0,479/1000,52,200.5
3494,D5,733.5,2479/1000,68,200.5
3495,B5,733.5,2479/1000,68,200.5
3496,B4,733.5,2479/1000,68,200.5
3497,G5,733.5,2479/1000,68,200.5
3498,F2,733.5,1.5,52,200.5
3499,D3,733.5,1.5,52,200.5
3500,G3,735.0,1.0,50,200.5
3501,B2,735.0,1.0,50,200.5
3502,D4,736.0,0.5,68,200.5
3503,D5,736.0,0.5,68,200.5
3504,A3,736.0,0.5,52,200.5
3505,D3,736.0,0.5,52,200.5
3506,E-5,736.5,2.0,73,200.5
3507,E-4,736.5,2.0,73,200.5
3508,B4,736.5,2.0,73,200.5
3509,B3,736.5,1.5,57,200.5
3510,G3,736.5,1.5,57,200.5
3511,E-3,738.0,0.5,48,200.5
3512,B2,738.0,0.5,48,200.5
3513,G3,738.0,0.5,48,200.5
3514,G4,738.5,0.25,64,200.5
3515,G5,738.5,0.25,64,200.5
3516,A5,739.0,0.25,68,200.5
3517,A4,739.0,0.25,68,200.5
3518,F2,739.0,0.5,52,200.5
3519,E-3,739.0,0.5,52,200.5
3520,G#5,739.5,2479/1000,68,200.5
3521,B5,739.5,2479/1000,68,200.5
3522,D5,739.5,2479/1000,68,200.5
3523,B4,739.5,2479/1000,68,200.5
3524,E2,739.5,1.5,52,200.5
3525,D3,739.5,1.5,52,200.5
3526,B2,741.0,1.0,50,200.5
3527,G#3,741.0,1.0,50,200.5
3528,D5,742.0,0.5,66,200.5
3529,D4,742.0,0.5,66,200.5
3530,D3,742.0,0.5,52,200.5
3531,A3,742.0,0.5,52,200.5
3532,E-4,742.5,0.75,56,200.5
3533,B4,742.5,0.75,56,200.5
3534,E-5,742.5,0.75,56,200.5
3535,G#3,742.5,3.0,57,200.5
3536,B3,742.5,3.0,57,200.5
3537,E5,743.25,0.75,50,200.5
3538,B4,743.25,0.75,50,200.5
3539,E4,743.25,0.75,50,200.5
3540,F4,744.0,1.5,53,200.5
3541,G#4,744.0,1.5,53,200.5
3542,B4,744.0,1.5,53,200.5
3543,F5,744.0,1.5,53,200.5
3544,D5,744.0,1.5,53,200.5
3545,D3,745.5,1.5,52,200.5
3546,E2,745.5,1.5,52,200.5
3547,F4,746.969,1.469,53,200.5
3548,G#4,746.969,1.469,53,200.5
3549,B4,746.969,1.469,53,200.5
3550,F5,746.969,1.469,53,200.5
3551,D5,746.969,1.469,53,200.5
3552,B2,747.0,1.0,50,200.5
3553,G#3,747.0,1.0,50,200.5
3554,D3,748.0,0.5,52,200.5
3555,A3,748.0,0.5,52,200.5
3556,G#4,748.469,1.5,47,200.5
3557,F4,748.469,1.5,47,200.5
3558,B4,748.469,1.5,47,200.5
3559,D5,748.469,1.5,47,200.5
3560,G#3,748.5,3.0,53,200.5
3561,B3,748.5,3.0,53,200.5
3562,G#4,749.969,1.469,47,200.5
3563,F4,749.969,1.469,47,200.5
3564,B4,749.969,1.469,47,200.5
3565,D5,749.969,1.469,47,200.5
3566,G#4,751.469,1.5,45,200.5
3567,F4,751.469,1.5,45,200.5
3568,D4,751.469,1.5,45,200.5
3569,B4,751.469,1.5,45,200.5
3570,E2,751.5,3.0,40,200.5
3571,D3,751.5,3.0,40,200.5
3572,G#4,752.969,1.469,45,200.5
3573,F4,752.969,1.469,45,200.5
3574,D4,752.969,1.469,45,200.5
3575,B4,752.969,1.469,45,200.5
3576,B3,754.469,1.5,42,200.5
3577,G#4,754.469,1.5,42,200.5
3578,D4,754.469,1.5,42,200.5
3579,F4,754.469,1.5,42,200.5
3580,B2,754.5,3.0,35,200.5
3581,G#3,754.5,3.0,35,200.5
3582,B3,755.969,1.469,42,200.5
3583,G#4,755.969,1.469,42,200.5
3584,D4,755.969,1.469,42,200.5
3585,F4,755.969,1.469,42,200.5
3586,B3,757.469,297/200,41,200.5
3587,D4,757.469,297/200,41,200.5
3588,E2,757.5,3.0,30,200.5
3589,D3,757.5,3.0,30,200.5
3590,B3,758.969,3.0,32,200.5
3591,G#3,758.969,3.0,32,200.5
3592,E2,763.0,2.5,30,200.5
3593,D3,763.0,2.5,30,200.5
3594,B3,764.469,2.5,32,200.5
3595,G#3,764.469,2.5,32,200.5
3596,F2,766.0,0.25,32,200.5
3597,C3,766.5,0.25,29,200.5
3598,C3,767.0,0.25,29,200.5
3599,F4,767.344,0.125,40,200.5
3600,A4,767.406,0.062,40,200.5
3601,F5,767.469,0.375,54,200.5
3602,F4,767.469,0.375,40,200.5
3603,A4,767.469,0.375,40,200.5
3604,F2,767.5,0.25,33,200.5
3605,C3,768.0,0.25,26,200.5
3606,F3,768.469,0.25,30,200.5
3607,A3,768.469,0.25,30,200.5
3608,C3,768.5,0.25,26,200.5
3609,F3,768.969,0.25,32,200.5
3610,A3,768.969,0.25,32,200.5
3611,F2,769.0,0.25,33,200.5
3612,B-3,769.469,0.25,29,200.5
3613,G3,769.469,0.25,29,200.5
3614,C3,769.5,0.25,27,200.5
3615,A3,769.969,0.25,29,200.5
3616,C4,769.969,0.25,29,200.5
3617,C3,770.0,0.25,27,200.5
3618,B-3,770.469,0.25,32,200.5
3619,D4,770.469,0.25,32,200.5
3620,F2,770.5,0.25,36,200.5
3621,A3,770.969,0.25,30,200.5
3622,C4,770.969,0.25,30,200.5
3623,C3,771.0,0.25,29,200.5
3624,F4,771.344,0.5,40,200.5
3625,A4,771.406,0.438,40,200.5
3626,F5,771.469,0.375,52,200.5
3627,C3,771.5,0.25,29,200.5
3628,F3,771.969,0.25,32,200.5
3629,A3,771.969,0.25,32,200.5
3630,F2,772.0,0.25,33,200.5
3631,B-3,772.469,0.25,29,200.5
3632,G3,772.469,0.25,29,200.5
3633,C3,772.5,0.25,26,200.5
3634,C4,772.969,0.25,29,200.5
3635,A3,772.969,0.25,29,200.5
3636,C3,773.0,0.25,26,200.5
3637,D4,773.469,0.25,32,200.5
3638,B-3,773.469,0.25,32,200.5
3639,F2,773.5,0.25,33,200.5
3640,C4,773.969,0.25,30,200.5
3641,A3,773.969,0.25,30,200.5
3642,C3,774.0,0.25,27,200.5
3643,B-3,774.469,0.25,29,200.5
3644,D4,774.469,0.25,29,200.5
3645,C3,774.5,0.25,27,200.5
3646,E4,774.969,0.25,32,200.5
3647,C4,774.969,0.25,32,200.5
3648,F2,775.0,0.25,36,200.5
3649,F4,775.469,0.25,30,200.5
3650,D4,775.469,0.25,30,200.5
3651,C3,775.5,0.25,29,200.5
3652,G4,775.969,0.25,29,200.5
3653,E4,775.969,0.25,29,200.5
3654,C3,776.0,0.25,29,200.5
3655,F4,776.469,1479/1000,40,200.5
3656,A4,776.469,1479/1000,40,200.5
3657,F2,776.5,0.25,33,200.5
3658,C3,777.0,0.25,26,200.5
3659,C3,777.5,0.25,26,200.5
3660,C5,777.969,1.0,34,200.5
3661,A4,777.969,1.0,34,200.5
3662,F2,778.0,0.25,33,200.5
3663,C3,778.5,0.25,27,200.5
3664,C5,778.969,0.5,42,200.5
3665,F5,778.969,0.5,42,200.5
3666,C3,779.0,0.25,27,200.5
3667,A5,779.469,1.5,48,200.5
3668,F5,779.469,1.5,48,200.5
3669,F2,779.5,0.25,33,200.5
3670,C3,780.0,0.25,27,200.5
3671,C3,780.5,0.25,27,200.5
3672,A4,780.969,1.5,35,200.5
3673,F4,780.969,1.5,35,200.5
3674,F2,781.0,0.25,33,200.5
3675,C3,781.5,0.25,27,200.5
3676,C3,782.0,0.25,27,200.5
3677,F2,782.5,0.25,36,200.5
3678,C3,783.0,0.25,31,200.5
3679,C3,783.5,0.25,32,200.5
3680,F5,783.969,1.5,52,200.5
3681,A5,783.969,1.5,52,200.5
3682,E2,784.0,0.25,32,200.5
3683,C#3,784.5,0.25,29,200.5
3684,C#3,785.0,0.25,29,200.5
3685,C#5,785.344,0.125,53,200.5
3686,A5,785.406,0.062,57,200.5
3687,C#6,785.469,0.375,61,200.5
3688,C#5,785.469,0.375,53,200.5
3689,A5,785.469,0.375,57,200.5
3690,E2,785.5,0.25,33,200.5
3691,C#3,786.0,0.25,26,200.5
3692,A3,786.469,0.25,30,200.5
3693,C#4,786.469,0.25,30,200.5
3694,C#3,786.5,0.25,26,200.5
3695,A3,786.969,0.25,32,200.5
3696,C#4,786.969,0.25,32,200.5
3697,E2,787.0,0.25,33,200.5
3698,B3,787.469,0.25,29,200.5
3699,D4,787.469,0.25,29,200.5
3700,C#3,787.5,0.25,27,200.5
3701,E4,787.969,0.25,29,200.5
3702,C#4,787.969,0.25,29,200.5
3703,C#3,788.0,0.25,27,200.5
3704,D4,788.469,0.25,32,200.5
3705,F#4,788.469,0.25,32,200.5
3706,E2,788.5,0.25,36,200.5
3707,C#4,788.969,0.25,30,200.5
3708,E4,788.969,0.25,30,200.5
3709,C#3,789.0,0.25,29,200.5
3710,A4,789.469,0.375,46,200.5
3711,C#5,789.469,0.375,46,200.5
3712,C#3,789.5,0.25,29,200.5
3713,A3,789.969,0.25,32,200.5
3714,C#4,789.969,0.25,32,200.5
3715,E2,790.0,0.25,33,200.5
3716,B3,790.469,0.25,29,200.5
3717,D4,790.469,0.25,29,200.5
3718,C#3,790.5,0.25,26,200.5
3719,C#4,790.969,0.25,29,200.5
3720,E4,790.969,0.25,29,200.5
3721,C#3,791.0,0.25,26,200.5
3722,D4,791.469,0.25,32,200.5
3723,F#4,791.469,0.25,32,200.5
3724,E2,791.5,0.25,33,200.5
3725,C#4,791.969,0.25,30,200.5
3726,E4,791.969,0.25,30,200.5
3727,C#3,792.0,0.25,27,200.5
3728,F#4,792.469,0.25,29,200.5
3729,D4,792.469,0.25,29,200.5
3730,C#3,792.5,0.25,27,200.5
3731,E4,792.969,0.25,32,200.5
3732,G#4,792.969,0.25,32,200.5
3733,E-2,793.0,0.25,36,200.5
3734,A4,793.469,0.25,30,200.5
3735,F#4,793.469,0.25,30,200.5
3736,C#3,793.5,0.25,29,200.5
3737,G#4,793.969,0.25,29,200.5
3738,B4,793.969,0.25,29,200.5
3739,C#3,794.0,0.25,29,200.5
3740,C#4,794.344,0.125,36,200.5
3741,G4,794.344,0.125,36,200.5
3742,A4,794.427,21/500,40,200.5
3743,C#5,794.427,21/500,40,200.5
3744,C#4,794.469,729/500,36,200.5
3745,G4,794.469,729/500,36,200.5
3746,A4,794.469,729/500,40,200.5
3747,C#5,794.469,729/500,40,200.5
3748,E-2,794.5,0.25,33,200.5
3749,C#3,795.0,0.25,26,200.5
3750,C#3,795.5,0.25,26,200.5
3751,F#5,795.969,1.0,36,200.5
3752,C#5,795.969,1.0,36,200.5
3753,F#4,795.969,1.0,36,200.5
3754,E-2,796.0,0.25,33,200.5
3755,C#3,796.5,0.25,27,200.5
3756,G4,796.969,177/500,42,200.5
3757,C#5,796.969,177/500,42,200.5
3758,G5,796.969,177/500,42,200.5
3759,C#3,797.0,0.25,27,200.5
3760,C#5,797.344,0.125,44,200.5
3761,G5,797.344,0.125,44,200.5
3762,A5,797.427,21/500,48,200.5
3763,C#6,797.427,21/500,48,200.5
3764,C#5,797.469,729/500,44,200.5
3765,G5,797.469,729/500,44,200.5
3766,A5,797.469,1.438,48,200.5
3767,C#6,797.469,1.438,48,200.5
3768,E-2,797.5,0.25,33,200.5
3769,C#3,798.0,0.25,27,200.5
3770,C#3,798.5,0.25,27,200.5
3771,G5,798.969,1.5,34,200.5
3772,A5,798.969,1.5,34,200.5
3773,A4,798.969,1.5,34,200.5
3774,C#5,798.969,1.5,34,200.5
3775,E-2,799.0,0.25,33,200.5
3776,C#3,799.5,0.25,27,200.5
3777,C#3,800.0,0.25,27,200.5
3778,E-2,800.5,0.25,36,200.5
3779,C#3,801.0,0.25,31,200.5
3780,C#3,801.5,0.25,32,200.5
3781,A4,801.969,1.5,50,200.5
3782,C#5,801.969,1.5,50,200.5
3783,A5,801.969,1.5,50,200.5
3784,G5,801.969,1.5,50,200.5
3785,D2,802.0,0.25,32,200.5
3786,D3,802.5,0.25,29,200.5
3787,D3,803.0,0.25,29,200.5
3788,D5,803.344,0.125,46,200.5
3789,F#5,803.344,0.125,46,200.5
3790,A5,803.427,21/500,55,200.5
3791,D6,803.427,21/500,55,200.5
3792,D5,803.469,333/1000,46,200.5
3793,F#5,803.469,333/1000,46,200.5
3794,A5,803.469,333/1000,55,200.5
3795,D6,803.469,333/1000,55,200.5
3796,D2,803.5,0.25,33,200.5
3797,D3,804.0,0.25,26,200.5
3798,D4,804.469,0.25,30,200.5
3799,F#4,804.469,0.25,30,200.5
3800,D3,804.5,0.25,26,200.5
3801,F#4,804.969,0.25,32,200.5
3802,D4,804.969,0.25,32,200.5
3803,D2,805.0,0.25,33,200.5
3804,G4,805.469,0.25,29,200.5
3805,E4,805.469,0.25,29,200.5
3806,D3,805.5,0.25,27,200.5
3807,F#4,805.969,0.25,29,200.5
3808,A4,805.969,0.25,29,200.5
3809,D3,806.0,0.25,29,200.5
3810,B4,806.469,0.25,32,200.5
3811,G4,806.469,0.25,32,200.5
3812,D2,806.5,0.25,36,200.5
3813,A4,806.969,0.25,30,200.5
3814,F#4,806.969,0.25,30,200.5
3815,D3,807.0,0.25,29,200.5
3816,D5,807.344,0.5,50,200.5
3817,F#5,807.406,0.438,50,200.5
3818,D6,807.469,0.375,64,200.5
3819,D3,807.5,0.25,30,200.5
3820,D4,807.969,0.25,32,200.5
3821,F#4,807.969,0.25,32,200.5
3822,D2,808.0,0.25,35,200.5
3823,G4,808.469,0.25,29,200.5
3824,E4,808.469,0.25,29,200.5
3825,D3,808.5,0.25,28,200.5
3826,F#4,808.969,0.25,30,200.5
3827,A4,808.969,0.25,30,200.5
3828,D3,809.0,0.25,29,200.5
3829,G4,809.469,0.25,34,200.5
3830,B4,809.469,0.25,34,200.5
3831,D2,809.5,0.25,38,200.5
3832,A4,809.969,0.25,32,200.5
3833,F#4,809.969,0.25,32,200.5
3834,D3,810.0,0.25,32,200.5
3835,G4,810.469,0.25,32,200.5
3836,B4,810.469,0.25,32,200.5
3837,D3,810.5,0.25,32,200.5
3838,A4,810.969,0.25,37,200.5
3839,C#5,810.969,0.25,37,200.5
3840,D2,811.0,0.25,45,200.5
3841,D5,811.469,0.25,35,200.5
3842,B4,811.469,0.25,35,200.5
3843,D3,811.5,0.25,36,200.5
3844,E5,811.969,0.25,34,200.5
3845,C#5,811.969,0.25,34,200.5
3846,D3,812.0,0.25,36,200.5
3847,A5,812.469,1.5,43,200.5
3848,F5,812.469,1.5,43,200.5
3849,A4,812.469,1.5,43,200.5
3850,D2,812.5,0.25,41,200.5
3851,D3,813.0,0.25,32,200.5
3852,D3,813.5,0.25,40,200.5
3853,D5,813.969,1.0,47,200.5
3854,F5,813.969,1.0,47,200.5
3855,D6,813.969,1.0,47,200.5
3856,D2,814.0,0.25,48,200.5
3857,D3,814.5,0.25,33,200.5
3858,A5,814.969,0.5,56,200.5
3859,E5,814.969,0.5,56,200.5
3860,E6,814.969,0.5,56,200.5
3861,D3,815.0,0.25,33,200.5
3862,A5,815.469,1.5,62,200.5
3863,A6,815.469,1.5,62,200.5
3864,F6,815.469,1.5,62,200.5
3865,D2,815.5,0.25,41,200.5
3866,D3,816.0,0.25,33,200.5
3867,D3,816.5,0.25,33,200.5
3868,D6,816.969,1.0,54,200.5
3869,F5,816.969,1.0,54,200.5
3870,F6,816.969,1.0,54,200.5
3871,C2,817.0,0.25,35,200.5
3872,G2,817.5,0.25,31,200.5
3873,A5,817.969,0.375,51,200.5
3874,A6,817.969,0.375,51,200.5
3875,F6,817.969,0.375,51,200.5
3876,C3,818.0,0.25,31,200.5
3877,B-5,818.344,0.125,55,200.5
3878,E6,818.344,0.125,55,200.5
3879,G6,818.427,21/500,66,200.5
3880,C7,818.427,21/500,66,200.5
3881,C2,818.5,0.25,36,200.5
3882,B-5,818.802,333/1000,55,200.5
3883,E6,818.802,333/1000,55,200.5
3884,G6,818.802,333/1000,66,200.5
3885,C7,818.802,333/1000,66,200.5
3886,G2,819.0,0.25,28,200.5
3887,C3,819.5,0.25,28,200.5
3888,C4,819.802,0.25,32,200.5
3889,E4,819.802,0.25,32,200.5
3890,C2,820.0,0.25,36,200.5
3891,E4,820.302,0.25,36,200.5
3892,C4,820.302,0.25,36,200.5
3893,G2,820.5,0.25,29,200.5
3894,F4,820.802,0.25,32,200.5
3895,D4,820.802,0.25,32,200.5
3896,C3,821.0,0.25,29,200.5
3897,E4,821.302,0.25,32,200.5
3898,G4,821.302,0.25,32,200.5
3899,C2,821.5,0.25,39,200.5
3900,A4,821.802,0.25,36,200.5
3901,F4,821.802,0.25,36,200.5
3902,G2,822.0,0.25,31,200.5
3903,G4,822.302,0.25,32,200.5
3904,E4,822.302,0.25,32,200.5
3905,C3,822.5,0.25,33,200.5
3906,C5,822.677,229/500,50,200.5
3907,E5,822.677,229/500,50,200.5
3908,B-5,822.76,0.375,58,200.5
3909,C6,822.76,0.375,58,200.5
3910,C2,823.0,0.25,38,200.5
3911,E4,823.302,0.25,36,200.5
3912,C4,823.302,0.25,36,200.5
3913,G2,823.5,0.25,30,200.5
3914,D4,823.802,0.25,32,200.5
3915,F4,823.802,0.25,32,200.5
3916,C3,824.0,0.25,31,200.5
3917,E4,824.302,0.25,32,200.5
3918,G4,824.302,0.25,32,200.5
3919,C2,824.5,0.25,41,200.5
3920,A4,824.802,0.25,38,200.5
3921,F4,824.802,0.25,38,200.5
3922,G2,825.0,0.25,35,200.5
3923,E4,825.302,0.25,34,200.5
3924,G4,825.302,0.25,34,200.5
3925,C3,825.5,0.25,35,200.5
3926,F4,825.802,0.25,36,200.5
3927,A4,825.802,0.25,36,200.5
3928,C2,826.0,0.25,49,200.5
3929,G4,826.302,0.25,40,200.5
3930,B-4,826.302,0.25,40,200.5
3931,G2,826.5,0.25,39,200.5
3932,C5,826.802,0.25,38,200.5
3933,A4,826.802,0.25,38,200.5
3934,C3,827.0,0.25,39,200.5
3935,B-4,827.302,0.25,38,200.5
3936,D5,827.302,0.25,38,200.5
3937,C2,827.5,0.25,45,200.5
3938,E5,827.677,0.125,41,200.5
3939,B-5,827.74,0.062,41,200.5
3940,E6,827.802,1.5,58,200.5
3941,E5,827.802,1.5,41,200.5
3942,B-5,827.802,1.438,41,200.5
3943,G2,828.0,0.25,35,200.5
3944,C3,828.5,0.25,44,200.5
3945,C2,829.0,0.25,52,200.5
3946,F#5,829.302,1.0,51,200.5
3947,F#6,829.302,1.0,51,200.5
3948,B-5,829.302,1.0,51,200.5
3949,G2,829.5,0.25,36,200.5
3950,C3,830.0,0.25,36,200.5
3951,G5,830.302,0.375,62,200.5
3952,B-5,830.302,0.375,62,200.5
3953,G6,830.302,0.375,62,200.5
3954,C2,830.5,0.25,45,200.5
3955,E6,830.677,0.125,63,200.5
3956,B-6,830.74,0.062,63,200.5
3957,E7,830.802,1.5,75,200.5
3958,E6,830.802,1.438,63,200.5
3959,B-6,830.802,1.438,63,200.5
3960,G2,831.0,0.25,36,200.5
3961,C3,831.5,0.25,36,200.5
3962,C2,832.006,0.25,60,200.5
3963,B-5,832.302,1.0,59,200.5
3964,E6,832.302,1.0,59,200.5
3965,B-6,832.302,1.0,59,200.5
3966,G2,832.5,0.25,49,200.5
3967,C3,833.0,0.25,49,200.5
3968,E7,833.302,0.375,55,200.5
3969,E6,833.302,0.375,55,200.5
3970,B-6,833.302,0.375,55,200.5
3971,C2,833.5,0.25,57,200.5
3972,G6,833.677,0.125,78,200.5
3973,B-6,833.74,0.062,78,200.5
3974,G7,833.802,0.375,93,200.5
3975,G6,833.802,0.375,78,200.5
3976,B-6,833.802,0.375,78,200.5
3977,G2,834.0,0.25,46,200.5
3978,C3,834.5,0.25,47,200.5
3979,B-4,834.802,0.25,50,200.5
3980,G4,834.802,0.25,50,200.5
3981,C2,835.0,0.25,62,200.5
3982,G4,835.302,0.25,56,200.5
3983,B-4,835.302,0.25,56,200.5
3984,G2,835.5,0.25,52,200.5
3985,A4,835.802,0.25,51,200.5
3986,C5,835.802,0.25,51,200.5
3987,C3,836.0,0.25,53,200.5
3988,B-4,836.302,0.25,52,200.5
3989,D5,836.302,0.25,52,200.5
3990,C2,836.5,0.25,66,200.5
3991,C5,836.802,0.25,60,200.5
3992,E5,836.802,0.25,60,200.5
3993,G2,837.0,0.25,55,200.5
3994,D5,837.302,0.25,56,200.5
3995,B-4,837.302,0.25,56,200.5
3996,C3,837.5,0.25,56,200.5
3997,G5,837.677,0.5,78,200.5
3998,B-5,837.74,0.438,78,200.5
3999,G6,837.802,0.375,93,200.5
4000,C2,838.0,0.25,67,200.5
4001,D6,838.302,0.25,58,200.5
4002,B-5,838.302,0.25,58,200.5
4003,D5,838.302,0.25,58,200.5
4004,G2,838.5,0.25,54,200.5
4005,C6,838.802,0.25,53,200.5
4006,E5,838.802,0.25,53,200.5
4007,E6,838.802,0.25,53,200.5
4008,C3,839.0,0.25,55,200.5
4009,D6,839.302,0.25,55,200.5
4010,F6,839.302,0.25,55,200.5
4011,F5,839.302,0.25,55,200.5
4012,C2,839.5,0.25,72,200.5
4013,E6,839.802,0.25,63,200.5
4014,G5,839.802,0.25,63,200.5
4015,G6,839.802,0.25,63,200.5
4016,G2,840.0,0.25,61,200.5
4017,F6,840.302,0.25,59,200.5
4018,A5,840.302,0.25,59,200.5
4019,A6,840.302,0.25,59,200.5
4020,C3,840.5,0.25,62,200.5
4021,B-5,840.802,0.25,60,200.5
4022,B-6,840.802,0.25,60,200.5
4023,G6,840.802,0.25,60,200.5
4024,B1,841.0,0.25,80,200.5
4025,B-5,841.302,0.25,68,200.5
4026,G6,841.302,0.25,68,200.5
4027,B-6,841.302,0.25,68,200.5
4028,G2,841.5,0.25,57,200.5
4029,G6,841.802,0.25,64,200.5
4030,B-6,841.802,0.25,64,200.5
4031,B-5,841.802,0.25,64,200.5
4032,B2,842.0,0.25,58,200.5
4033,B-6,842.302,0.25,65,200.5
4034,B-5,842.302,0.25,65,200.5
4035,G6,842.302,0.25,65,200.5
4036,B1,842.5,0.25,75,200.5
4037,B5,842.802,2.0,81,200.5
4038,G6,842.802,2.0,81,200.5
4039,B6,842.802,2.0,81,200.5
4040,G2,843.0,0.25,57,200.5
4041,B2,843.5,0.25,58,200.5
4042,B1,844.0,0.25,76,200.5
4043,F#2,844.5,0.25,61,200.5
4044,F#6,844.802,0.25,72,200.5
4045,A6,844.802,0.25,72,200.5
4046,A5,844.802,0.25,72,200.5
4047,B2,845.0,0.25,61,200.5
4048,G5,845.302,0.25,72,200.5
4049,G6,845.302,0.25,72,200.5
4050,E6,845.302,0.25,72,200.5
4051,B1,845.5,0.25,80,200.5
4052,F#6,845.802,1.5,81,200.5
4053,A6,845.802,1.5,81,200.5
4054,A5,845.802,1.5,81,200.5
4055,F#2,846.0,0.25,57,200.5
4056,B2,846.5,0.25,58,200.5
4057,B1,847.0,0.25,75,200.5
4058,F#6,847.302,0.5,81,200.5
4059,A6,847.302,0.5,81,200.5
4060,A5,847.302,0.5,81,200.5
4061,E2,847.5,0.25,57,200.5
4062,G6,847.802,0.25,72,200.5
4063,G5,847.802,0.25,72,200.5
4064,E6,847.802,0.25,72,200.5
4065,B2,848.0,0.25,58,200.5
4066,E-6,848.302,0.25,72,200.5
4067,F#6,848.302,0.25,72,200.5
4068,F#5,848.302,0.25,72,200.5
4069,B1,848.5,0.25,76,200.5
4070,E6,848.802,0.25,81,200.5
4071,G6,848.802,0.25,81,200.5
4072,G5,848.802,0.25,81,200.5
4073,E-2,849.0,0.25,61,200.5
4074,E-6,849.302,0.25,72,200.5
4075,F#5,849.302,0.25,72,200.5
4076,F#6,849.302,0.25,72,200.5
4077,B2,849.5,0.25,61,200.5
4078,E5,849.802,0.25,72,200.5
4079,E6,849.802,0.25,72,200.5
4080,C#6,849.802,0.25,72,200.5
4081,E1,850.0,0.25,80,200.5
4082,E-6,850.302,0.25,81,200.5
4083,F#6,850.302,0.25,81,200.5
4084,F#5,850.302,0.25,81,200.5
4085,B1,850.5,0.25,57,200.5
4086,E2,851.0,0.25,58,200.5
4087,B4,851.302,0.25,74,200.5
4088,B5,851.302,0.25,74,200.5
4089,E1,851.5,0.25,75,200.5
4090,C#6,851.802,2.0,81,200.5
4091,C#7,851.802,2.0,81,200.5
4092,A6,851.802,2.0,81,200.5
4093,B1,852.0,0.25,57,200.5
4094,E2,852.5,0.25,58,200.5
4095,E1,853.0,0.25,76,200.5
4096,B1,853.5,0.25,61,200.5
4097,B6,853.802,0.25,72,200.5
4098,B5,853.802,0.25,72,200.5
4099,G#6,853.802,0.25,72,200.5
4100,E2,854.0,0.25,61,200.5
4101,A5,854.302,0.25,72,200.5
4102,F#6,854.302,0.25,72,200.5
4103,A6,854.302,0.25,72,200.5
4104,E1,854.5,0.25,80,200.5
4105,B6,854.802,1.5,81,200.5
4106,G#6,854.802,1.5,81,200.5
4107,B5,854.802,1.5,81,200.5
4108,B1,855.0,0.25,57,200.5
4109,E2,855.5,0.25,58,200.5
4110,E1,856.0,0.25,75,200.5
4111,B6,856.302,0.5,81,200.5
4112,G#6,856.302,0.5,81,200.5
4113,B5,856.302,0.5,81,200.5
4114,B1,856.5,0.25,57,200.5
4115,A5,856.802,0.25,72,200.5
4116,A6,856.802,0.25,72,200.5
4117,F#6,856.802,0.25,72,200.5
4118,E2,857.0,0.25,58,200.5
4119,E6,857.302,0.25,72,200.5
4120,G#5,857.302,0.25,72,200.5
4121,G#6,857.302,0.25,72,200.5
4122,E1,857.5,0.25,76,200.5
4123,A6,857.802,0.25,81,200.5
4124,F#6,857.802,0.25,81,200.5
4125,A5,857.802,0.25,81,200.5
4126,B1,858.0,0.25,61,200.5
4127,E6,858.302,0.25,72,200.5
4128,G#5,858.302,0.25,72,200.5
4129,G#6,858.302,0.25,72,200.5
4130,E2,858.5,0.25,61,200.5
4131,F#6,858.802,0.25,72,200.5
4132,F#5,858.802,0.25,72,200.5
4133,E-6,858.802,0.25,72,200.5
4134,E1,859.0,0.25,71,200.5
4135,G#5,859.302,0.25,81,200.5
4136,G#6,859.302,0.25,81,200.5
4137,E6,859.302,0.25,81,200.5
4138,E3,859.875,1.0,53,200.5
4139,B3,859.938,0.938,53,200.5
4140,G#4,860.0,0.875,63,200.5
4141,E5,860.302,0.25,74,200.5
4142,E6,860.302,0.25,74,200.5
4143,B6,860.802,0.25,93,200.5
4144,G#6,860.802,0.25,93,200.5
4145,E6,860.802,0.25,93,200.5
4146,E7,860.802,0.25,93,200.5
4147,E3,860.875,1.5,53,200.5
4148,C#4,860.938,1.438,53,200.5
4149,A4,861.0,1.375,63,200.5
4150,E6,861.802,1.0,82,200.5
4151,B6,861.802,1.0,82,200.5
4152,B5,861.802,1.0,82,200.5
4153,E3,862.375,833/1000,52,200.5
4154,A3,862.375,833/1000,52,200.5
4155,C#4,862.458,0.75,57,200.5
4156,F#4,862.458,0.75,57,200.5
4157,E6,862.802,1.5,82,200.5
4158,C#7,862.802,1.5,82,200.5
4159,C#6,862.802,1.5,82,200.5
4160,B3,863.25,13/125,50,200.5
4161,G#4,863.25,13/125,50,200.5
4162,E3,863.375,0.125,51,200.5
4163,B3,863.438,0.062,51,200.5
4164,G#4,863.5,0.25,61,200.5
4165,E3,863.5,0.25,51,200.5
4166,B3,863.5,0.25,51,200.5
4167,E6,864.302,0.75,80,200.5
4168,A6,864.302,0.75,80,200.5
4169,A5,864.302,0.75,80,200.5
4170,E2,864.375,1.0,53,200.5
4171,B2,864.438,0.938,53,200.5
4172,G#3,864.5,0.875,63,200.5
4173,E6,865.052,229/1000,71,200.5
4174,B5,865.052,229/1000,71,200.5
4175,B6,865.052,229/1000,71,200.5
4176,E6,865.302,0.25,79,200.5
4177,B5,865.302,0.25,79,200.5
4178,B6,865.302,0.25,79,200.5
4179,E2,865.375,1.5,53,200.5
4180,C#3,865.438,1.438,53,200.5
4181,A3,865.5,1.375,63,200.5
4182,B5,866.302,1.0,73,200.5
4183,E5,866.302,1.0,73,200.5
4184,B4,866.302,1.0,73,200.5
4185,E2,866.875,833/1000,52,200.5
4186,A2,866.875,833/1000,52,200.5
4187,C#3,866.958,0.75,57,200.5
4188,F#3,866.958,0.75,57,200.5
4189,E5,867.302,1.5,73,200.5
4190,C#6,867.302,1.5,73,200.5
4191,C#5,867.302,1.5,73,200.5
4192,B2,867.75,229/1000,50,200.5
4193,G#3,867.75,229/1000,50,200.5
4194,E1,868.0,0.25,60,200.5
4195,B1,868.5,0.25,49,200.5
4196,A4,868.802,729/1000,71,200.5
4197,E5,868.802,729/1000,71,200.5
4198,A5,868.802,729/1000,71,200.5
4199,E2,869.0,0.25,49,200.5
4200,E1,869.5,0.25,56,200.5
4201,E5,869.552,229/1000,64,200.5
4202,B5,869.552,229/1000,64,200.5
4203,B4,869.552,229/1000,64,200.5
4204,B4,869.802,0.25,70,200.5
4205,E5,869.802,0.25,70,200.5
4206,B5,869.802,0.25,70,200.5
4207,B1,870.0,0.25,44,200.5
4208,E2,870.5,0.25,44,200.5
4209,E5,870.677,0.5,67,200.5
4210,G#5,870.74,0.438,67,200.5
4211,E6,870.802,0.375,80,200.5
4212,E1,871.0,0.25,56,200.5
4213,E3,871.302,0.25,73,200.5
4214,E4,871.302,0.25,73,200.5
4215,B1,871.5,0.25,46,200.5
4216,E2,872.0,0.25,46,200.5
4217,E1,872.5,0.25,56,200.5
4218,B1,873.0,0.25,44,200.5
4219,E2,873.5,0.25,44,200.5
4220,E5,873.677,0.5,67,200.5
4221,G#5,873.74,0.438,67,200.5
4222,E6,873.802,0.375,80,200.5
4223,E1,874.0,0.25,56,200.5
4224,E4,874.302,0.25,73,200.5
4225,E3,874.302,0.25,73,200.5
4226,B1,874.5,0.25,46,200.5
4227,E2,875.0,0.25,46,200.5
4228,E1,875.5,0.25,56,200.5
4229,A1,877.0,0.25,67,200.5
4230,E5,878.302,0.25,74,200.5
4231,A4,878.802,0.25,82,200.5
4232,C#5,878.802,0.25,82,200.5
4233,A5,878.802,0.25,82,200.5
4234,A3,879.0,0.25,45,200.5
4235,C#4,879.0,0.25,45,200.5
4236,C#4,879.302,0.25,50,200.5
4237,E4,879.302,0.25,50,200.5
4238,B3,879.5,0.25,45,200.5
4239,E3,879.5,0.25,45,200.5
4240,B3,879.802,0.25,50,200.5
4241,D4,879.802,0.25,50,200.5
4242,A3,880.0,0.25,54,200.5
4243,C#3,880.0,0.25,54,200.5
4244,A3,880.302,479/1000,56,200.5
4245,C#4,880.302,479/1000,56,200.5
4246,E2,881.0,0.25,74,200.5
4247,A2,881.5,0.25,87,200.5
4248,C#4,883.5,0.25,45,200.5
4249,A3,883.5,0.25,45,200.5
4250,C#4,883.802,0.25,50,200.5
4251,E4,883.802,0.25,50,200.5
4252,A1,884.0,0.25,44,200.5
4253,B3,884.0,0.25,44,200.5
4254,E3,884.0,0.25,44,200.5
4255,B3,884.302,0.25,50,200.5
4256,D4,884.302,0.25,50,200.5
4257,C#3,884.5,0.25,49,200.5
4258,A1,884.5,0.25,49,200.5
4259,A3,884.5,0.25,49,200.5
4260,C#4,884.802,0.25,56,200.5
4261,A3,884.802,0.25,56,200.5
4262,B1,885.0,0.25,58,200.5
4263,C#2,885.5,0.25,64,200.5
4264,D2,886.0,0.25,67,200.5
4265,A4,887.302,0.25,74,200.5
4266,F5,887.802,0.25,80,200.5
4267,F4,887.802,0.25,80,200.5
4268,F4,888.302,0.25,50,200.5
4269,A4,888.302,0.25,50,200.5
4270,E4,888.802,0.25,50,200.5
4271,G4,888.802,0.25,50,200.5
4272,D4,889.302,0.25,56,200.5
4273,F4,889.302,0.25,56,200.5
4274,F4,889.802,0.25,45,200.5
4275,D4,889.802,0.25,45,200.5
4276,A2,890.0,0.25,74,200.5
4277,E4,890.302,0.25,45,200.5
4278,A3,890.302,0.25,45,200.5
4279,D3,890.5,0.25,87,200.5
4280,D4,890.802,0.25,54,200.5
4281,F3,890.802,0.25,54,200.5
4282,A4,892.802,0.25,50,200.5
4283,F4,892.802,0.25,50,200.5
4284,D2,893.0,0.25,41,200.5
4285,G4,893.302,0.25,50,200.5
4286,E4,893.302,0.25,50,200.5
4287,D2,893.5,0.25,41,200.5
4288,D4,893.802,0.25,56,200.5
4289,F4,893.802,0.25,56,200.5
4290,E-2,894.0,0.25,58,200.5
4291,D4,894.302,0.25,45,200.5
4292,F4,894.302,0.25,45,200.5
4293,E2,894.5,0.25,64,200.5
4294,A3,894.802,0.25,45,200.5
4295,E4,894.802,0.25,45,200.5
4296,F2,895.0,0.25,67,200.5
4297,F3,895.302,0.25,54,200.5
4298,D4,895.302,0.25,54,200.5
4299,C5,896.302,0.25,74,200.5
4300,A5,896.802,0.25,80,200.5
4301,A4,896.802,0.25,80,200.5
4302,A4,897.302,0.25,50,200.5
4303,C5,897.302,0.25,50,200.5
4304,G4,897.802,0.25,50,200.5
4305,B-4,897.802,0.25,50,200.5
4306,F4,898.302,0.25,56,200.5
4307,A4,898.302,0.25,56,200.5
4308,A4,898.802,0.25,45,200.5
4309,F4,898.802,0.25,45,200.5
4310,C3,899.0,0.25,74,200.5
4311,C4,899.302,0.25,45,200.5
4312,G4,899.302,0.25,45,200.5
4313,F3,899.5,0.25,87,200.5
4314,F4,899.802,0.25,54,200.5
4315,A3,899.802,0.25,54,200.5
4316,A4,901.802,0.25,50,200.5
4317,C5,901.802,0.25,50,200.5
4318,F2,902.0,0.25,41,200.5
4319,B-4,902.302,0.25,50,200.5
4320,G4,902.302,0.25,50,200.5
4321,F2,902.5,0.25,41,200.5
4322,F4,902.802,0.25,56,200.5
4323,A4,902.802,0.25,56,200.5
4324,G2,903.0,0.25,58,200.5
4325,A4,903.302,0.25,45,200.5
4326,F4,903.302,0.25,45,200.5
4327,A2,903.5,0.25,64,200.5
4328,C4,903.802,0.25,45,200.5
4329,G4,903.802,0.25,45,200.5
4330,B-2,904.0,0.25,67,200.5
4331,F4,904.302,0.25,54,200.5
4332,A3,904.302,0.25,54,200.5
4333,F5,905.302,0.25,74,200.5
4334,D6,905.802,0.25,80,200.5
4335,D5,905.802,0.25,80,200.5
4336,G#2,906.0,0.25,41,200.5
4337,B-4,906.302,0.25,50,200.5
4338,D5,906.302,0.25,50,200.5
4339,A2,906.5,0.25,41,200.5
4340,F4,906.802,0.25,50,200.5
4341,C5,906.802,0.25,50,200.5
4342,B2,907.0,0.25,45,200.5
4343,B-4,907.302,0.25,56,200.5
4344,D4,907.302,0.25,56,200.5
4345,B2,907.5,0.25,43,200.5
4346,C3,908.0,0.25,45,200.5
4347,D3,908.5,0.25,55,200.5
4348,D5,909.802,0.25,64,200.5
4349,B4,910.302,0.25,68,200.5
4350,B5,910.302,0.25,68,200.5
4351,B2,910.5,0.25,41,200.5
4352,G#4,910.802,0.25,50,200.5
4353,B4,910.802,0.25,50,200.5
4354,C3,911.0,0.25,41,200.5
4355,A4,911.302,0.25,50,200.5
4356,F#4,911.302,0.25,50,200.5
4357,D3,911.5,0.25,45,200.5
4358,F4,911.802,0.25,56,200.5
4359,G#4,911.802,0.25,56,200.5
4360,D3,912.0,0.25,43,200.5
4361,E3,912.5,0.25,45,200.5
4362,F3,913.0,0.25,55,200.5
4363,B4,914.302,0.25,48,200.5
4364,G#4,914.802,0.25,54,200.5
4365,G#5,914.802,0.25,54,200.5
4366,F3,915.0,0.25,36,200.5
4367,F4,915.302,0.25,47,200.5
4368,G#4,915.302,0.25,47,200.5
4369,G3,915.5,0.25,36,200.5
4370,E4,915.802,0.25,44,200.5
4371,G4,915.802,0.25,44,200.5
4372,G#3,916.0,0.25,43,200.5
4373,F4,916.302,0.25,42,200.5
4374,D4,916.302,0.25,42,200.5
4375,G#3,916.5,0.25,39,200.5
4376,A3,917.0,0.25,49,200.5
4377,B3,917.5,0.25,61,200.5
4378,B3,918.5,729/500,38,200.5
4379,D4,918.5,729/500,38,200.5
4380,B4,918.802,0.5,74,200.5
4381,F5,919.302,0.25,77,200.5
4382,F4,919.302,0.25,77,200.5
4383,D4,920.0,1.5,38,200.5
4384,B3,920.0,1.5,38,200.5
4385,F4,920.302,729/500,49,200.5
4386,F4,921.802,1.5,49,200.5
4387,B3,922.0,0.25,65,200.5
4388,E-4,922.0,0.25,65,200.5
4389,E-4,923.0,729/500,38,200.5
4390,B3,923.0,729/500,38,200.5
4391,B4,923.302,0.5,74,200.5
4392,F#5,923.802,0.25,77,200.5
4393,F#4,923.802,0.25,77,200.5
4394,E-4,924.5,1.5,38,200.5
4395,B3,924.5,1.5,38,200.5
4396,F#4,924.802,729/500,49,200.5
4397,F#4,926.302,1.5,49,200.5
4398,D4,926.5,1.5,58,200.5
4399,G3,926.5,1.5,58,200.5
4400,F4,926.5,1.5,58,200.5
4401,B4,927.802,0.5,74,200.5
4402,F5,928.302,0.25,74,200.5
4403,D5,928.302,0.25,74,200.5
4404,G5,928.302,0.25,74,200.5
4405,G4,928.302,0.25,74,200.5
4406,G1,929.0,0.25,60,200.5
4407,G2,929.0,0.25,60,200.5
4408,G4,929.302,729/500,62,200.5
4409,G5,929.302,729/500,62,200.5
4410,D5,929.302,729/500,62,200.5
4411,B4,929.302,729/500,62,200.5
4412,F5,929.302,729/500,62,200.5
4413,G2,929.5,0.25,64,200.5
4414,G1,929.5,0.25,64,200.5
4415,A2,930.0,0.25,67,200.5
4416,A1,930.0,0.25,67,200.5
4417,B1,930.5,0.25,70,200.5
4418,B2,930.5,0.25,70,200.5
4419,B4,930.802,729/500,64,200.5
4420,G4,930.802,729/500,64,200.5
4421,D5,930.802,729/500,64,200.5
4422,G5,930.802,729/500,64,200.5
4423,F5,930.802,729/500,64,200.5
4424,C2,931.0,0.25,73,200.5
4425,G2,931.5,0.25,60,200.5
4426,C3,932.0,0.25,60,200.5
4427,B4,932.302,229/500,71,200.5
4428,D5,932.302,229/500,71,200.5
4429,G5,932.302,229/500,71,200.5
4430,G4,932.302,229/500,71,200.5
4431,F5,932.302,229/500,71,200.5
4432,C2,932.5,0.25,70,200.5
4433,G5,932.802,0.25,81,200.5
4434,B5,932.802,0.25,81,200.5
4435,F6,932.802,0.25,81,200.5
4436,G6,932.802,0.25,81,200.5
4437,G2,933.0,0.25,59,200.5
4438,C3,933.5,0.25,59,200.5
4439,F5,933.802,1.5,64,200.5
4440,G5,933.802,1.5,64,200.5
4441,G4,933.802,1.5,64,200.5
4442,C2,934.0,0.25,66,200.5
4443,G2,934.5,0.25,59,200.5
4444,C3,935.0,0.25,59,200.5
4445,G4,935.302,0.25,64,200.5
4446,G5,935.302,0.25,64,200.5
4447,F5,935.302,0.25,64,200.5
4448,C2,935.5,0.25,66,200.5
4449,G5,935.802,0.25,62,200.5
4450,F5,935.802,0.25,62,200.5
4451,G4,935.802,0.25,62,200.5
4452,G2,936.0,0.25,49,200.5
4453,F5,936.302,0.25,66,200.5
4454,A5,936.302,0.25,66,200.5
4455,A4,936.302,0.25,66,200.5
4456,C3,936.5,0.25,49,200.5
4457,F5,936.802,0.25,69,200.5
4458,B5,936.802,0.25,69,200.5
4459,B4,936.802,0.25,69,200.5
4460,C2,937.0,0.25,56,200.5
4461,C5,937.302,0.25,73,200.5
4462,C6,937.302,0.25,73,200.5
4463,E5,937.302,0.25,73,200.5
4464,G2,937.5,0.25,44,200.5
4465,C3,938.0,0.25,44,200.5
4466,E4,938.302,0.25,50,200.5
4467,C4,938.302,0.25,50,200.5
4468,C2,938.5,0.25,56,200.5
4469,E4,938.802,0.25,54,200.5
4470,C4,938.802,0.25,54,200.5
4471,G2,939.0,0.25,46,200.5
4472,F4,939.302,0.25,49,200.5
4473,D4,939.302,0.25,49,200.5
4474,C3,939.5,0.25,46,200.5
4475,E4,939.802,0.25,49,200.5
4476,G4,939.802,0.25,49,200.5
4477,C2,940.0,0.25,60,200.5
4478,A4,940.302,0.25,54,200.5
4479,F4,940.302,0.25,54,200.5
4480,G2,940.5,0.25,49,200.5
4481,G4,940.802,0.25,50,200.5
4482,E4,940.802,0.25,50,200.5
4483,C3,941.0,0.25,49,200.5
4484,C5,941.177,0.5,67,200.5
4485,E5,941.24,0.438,67,200.5
4486,C6,941.302,0.375,80,200.5
4487,C2,941.5,0.25,56,200.5
4488,C4,941.802,0.25,54,200.5
4489,E4,941.802,0.25,54,200.5
4490,G2,942.0,0.25,44,200.5
4491,D4,942.302,0.25,49,200.5
4492,F4,942.302,0.25,49,200.5
4493,C3,942.5,0.25,44,200.5
4494,E4,942.802,0.25,49,200.5
4495,G4,942.802,0.25,49,200.5
4496,B1,943.0,0.25,56,200.5
4497,F4,943.302,0.25,54,200.5
4498,A4,943.302,0.25,54,200.5
4499,G2,943.5,0.25,46,200.5
4500,G4,943.802,0.25,50,200.5
4501,E4,943.802,0.25,50,200.5
4502,B2,944.0,0.25,46,200.5
4503,A4,944.302,0.25,49,200.5
4504,F4,944.302,0.25,49,200.5
4505,A1,944.5,0.25,66,200.5
4506,G4,944.802,0.25,54,200.5
4507,B4,944.802,0.25,54,200.5
4508,E2,945.0,0.25,49,200.5
4509,A4,945.302,0.25,50,200.5
4510,C5,945.302,0.25,50,200.5
4511,A2,945.5,0.25,49,200.5
4512,B4,945.802,0.25,49,200.5
4513,D5,945.802,0.25,49,200.5
4514,A1,946.0,0.25,57,200.5
4515,E5,946.177,0.125,73,200.5
4516,G5,946.177,0.125,73,200.5
4517,C#6,946.26,21/500,80,200.5
4518,E6,946.26,21/500,80,200.5
4519,E5,946.302,333/1000,73,200.5
4520,G5,946.302,333/1000,73,200.5
4521,C#6,946.302,333/1000,80,200.5
4522,E6,946.302,333/1000,80,200.5
4523,E2,946.5,0.25,46,200.5
4524,A2,947.0,0.25,47,200.5
4525,C#4,947.302,0.25,50,200.5
4526,E4,947.302,0.25,50,200.5
4527,A1,947.5,0.25,62,200.5
4528,C#4,947.802,0.25,56,200.5
4529,E4,947.802,0.25,56,200.5
4530,E2,948.0,0.25,52,200.5
4531,F4,948.302,0.25,51,200.5
4532,D4,948.302,0.25,51,200.5
4533,A2,948.5,0.25,53,200.5
4534,G4,948.802,0.25,52,200.5
4535,E4,948.802,0.25,52,200.5
4536,A1,949.0,0.25,60,200.5
4537,A4,949.302,0.25,60,200.5
4538,F4,949.302,0.25,60,200.5
4539,E2,949.5,0.25,49,200.5
4540,E4,949.802,0.25,56,200.5
4541,G4,949.802,0.25,56,200.5
4542,A2,950.0,0.25,49,200.5
4543,E5,950.177,229/500,78,200.5
4544,G5,950.177,229/500,78,200.5
4545,C#6,950.26,0.375,86,200.5
4546,E6,950.26,0.375,86,200.5
4547,A1,950.5,0.25,56,200.5
4548,G4,950.802,0.25,54,200.5
4549,E4,950.802,0.25,54,200.5
4550,E2,951.0,0.25,44,200.5
4551,F4,951.302,0.25,49,200.5
4552,A4,951.302,0.25,49,200.5
4553,A2,951.5,0.25,44,200.5
4554,G4,951.802,0.25,49,200.5
4555,B4,951.802,0.25,49,200.5
4556,G1,952.0,0.25,56,200.5
4557,A4,952.302,0.25,54,200.5
4558,C#5,952.302,0.25,54,200.5
4559,E2,952.5,0.25,46,200.5
4560,B4,952.802,0.25,50,200.5
4561,G4,952.802,0.25,50,200.5
4562,G2,953.0,0.25,46,200.5
4563,A4,953.302,0.25,49,200.5
4564,C#5,953.302,0.25,49,200.5
4565,F1,953.5,0.25,66,200.5
4566,D5,953.802,0.25,54,200.5
4567,B4,953.802,0.25,54,200.5
4568,C2,954.0,0.25,49,200.5
4569,E5,954.302,0.25,50,200.5
4570,C#5,954.302,0.25,50,200.5
4571,F2,954.5,0.25,49,200.5
4572,G5,954.802,0.25,49,200.5
4573,E5,954.802,0.25,49,200.5
4574,F1,955.0,0.25,57,200.5
4575,A5,955.177,0.125,73,200.5
4576,C6,955.177,0.125,73,200.5
4577,F6,955.26,21/500,80,200.5
4578,A6,955.26,21/500,80,200.5
4579,A5,955.302,333/1000,73,200.5
4580,C6,955.302,333/1000,73,200.5
4581,F6,955.302,333/1000,80,200.5
4582,A6,955.302,333/1000,80,200.5
4583,C2,955.5,0.25,46,200.5
4584,F2,956.0,0.25,47,200.5
4585,A4,956.302,0.25,50,200.5
4586,F4,956.302,0.25,50,200.5
4587,F1,956.5,0.25,62,200.5
4588,F4,956.802,0.25,56,200.5
4589,A4,956.802,0.25,56,200.5
4590,C2,957.0,0.25,52,200.5
4591,G4,957.302,0.25,51,200.5
4592,B-4,957.302,0.25,51,200.5
4593,F2,957.5,0.25,53,200.5
4594,A4,957.802,0.25,52,200.5
4595,C5,957.802,0.25,52,200.5
4596,F1,958.0,0.25,66,200.5
4597,B-4,958.302,0.25,60,200.5
4598,D5,958.302,0.25,60,200.5
4599,C2,958.5,0.25,56,200.5
4600,C5,958.802,0.25,56,200.5
4601,A4,958.802,0.25,56,200.5
4602,F2,959.0,0.25,58,200.5
4603,A5,959.177,229/500,78,200.5
4604,C6,959.177,229/500,78,200.5
4605,F6,959.26,0.375,86,200.5
4606,A6,959.26,0.375,86,200.5
4607,F1,959.5,0.25,72,200.5
4608,A4,959.802,0.25,60,200.5
4609,A5,959.802,0.25,60,200.5
4610,C2,960.0,0.25,59,200.5
4611,B-4,960.302,0.25,56,200.5
4612,B-5,960.302,0.25,56,200.5
4613,F2,960.5,0.25,62,200.5
4614,B4,960.802,0.25,59,200.5
4615,B5,960.802,0.25,59,200.5
4616,F1,961.0,0.25,83,200.5
4617,C5,961.302,0.25,70,200.5
4618,C6,961.302,0.25,70,200.5
4619,C2,961.5,0.25,72,200.5
4620,D5,961.802,0.25,68,200.5
4621,D6,961.802,0.25,68,200.5
4622,F2,962.0,0.25,75,200.5
4623,E5,962.302,0.25,69,200.5
4624,E6,962.302,0.25,69,200.5
4625,F#1,962.5,0.25,84,200.5
4626,F#2,962.5,0.25,84,200.5
4627,F5,962.802,0.25,82,200.5
4628,F6,962.802,0.25,82,200.5
4629,F#3,963.0,0.25,48,200.5
4630,G6,963.302,0.25,78,200.5
4631,G5,963.302,0.25,78,200.5
4632,F#3,963.5,0.25,48,200.5
4633,G#6,963.802,0.25,80,200.5
4634,G#5,963.802,0.25,80,200.5
4635,F#3,964.0,0.25,48,200.5
4636,C6,964.302,0.25,84,200.5
4637,A6,964.302,0.25,84,200.5
4638,A5,964.302,0.25,84,200.5
4639,E-6,964.302,0.25,84,200.5
4640,F#3,964.5,0.25,45,200.5
4641,F#3,965.0,0.25,45,200.5
4642,F#3,965.5,0.25,45,200.5
4643,F#3,966.0,0.25,45,200.5
4644,F#3,966.5,0.25,45,200.5
4645,C5,966.802,0.5,56,200.5
4646,A4,966.802,0.5,56,200.5
4647,F#2,967.0,0.25,56,200.5
4648,F#3,967.0,0.25,56,200.5
4649,B4,967.302,1.0,62,200.5
4650,D5,967.302,1.0,62,200.5
4651,F#3,967.5,0.25,48,200.5
4652,F#3,968.0,0.25,48,200.5
4653,C5,968.302,0.5,56,200.5
4654,E-5,968.302,0.5,56,200.5
4655,F#3,968.5,0.25,48,200.5
4656,F#3,969.0,0.25,45,200.5
4657,F#3,969.5,0.25,45,200.5
4658,F#3,970.0,0.25,45,200.5
4659,F#3,970.5,0.25,45,200.5
4660,F#3,971.0,0.25,45,200.5
4661,A4,971.302,0.5,56,200.5
4662,C5,971.302,0.5,56,200.5
4663,F#3,971.5,0.25,56,200.5
4664,F#2,971.5,0.25,56,200.5
4665,B4,971.802,1.0,62,200.5
4666,D5,971.802,1.0,62,200.5
4667,F#3,972.0,0.25,48,200.5
4668,F#3,972.5,0.25,48,200.5
4669,C5,972.802,0.5,56,200.5
4670,E-5,972.802,0.5,56,200.5
4671,F#3,973.0,0.25,48,200.5
4672,F#3,973.5,0.25,45,200.5
4673,F#3,974.0,0.25,49,200.5
4674,C5,974.302,0.5,54,200.5
4675,A4,974.302,0.5,54,200.5
4676,E-5,974.302,0.5,54,200.5
4677,F#3,974.5,0.25,54,200.5
4678,F#3,975.0,0.25,59,200.5
4679,F#3,975.5,0.25,64,200.5
4680,B-4,975.552,89/125,57,200.5
4681,E5,975.552,89/125,57,200.5
4682,C#5,975.552,89/125,57,200.5
4683,F#1,976.0,0.25,80,200.5
4684,F#2,976.0,0.25,80,200.5
4685,B-5,976.302,89/125,66,200.5
4686,C#5,976.302,89/125,66,200.5
4687,E5,976.302,89/125,66,200.5
4688,F#3,976.5,0.25,67,200.5
4689,F#3,977.0,0.25,63,200.5
4690,B-5,977.052,89/125,76,200.5
4691,C#6,977.052,89/125,76,200.5
4692,F#3,977.5,0.25,58,200.5
4693,B-5,977.802,89/125,82,200.5
4694,E6,977.802,89/125,82,200.5
4695,E5,977.802,89/125,82,200.5
4696,F#3,978.0,0.25,54,200.5
4697,F#3,978.5,0.25,50,200.5
4698,C#6,978.552,89/125,77,200.5
4699,E5,978.552,89/125,77,200.5
4700,B-5,978.552,89/125,77,200.5
4701,F#3,979.0,0.25,45,200.5
4702,E5,979.302,1479/1000,74,200.5
4703,C#5,979.302,1479/1000,74,200.5
4704,B-5,979.302,1479/1000,74,200.5
4705,F#3,979.5,0.25,45,200.5
4706,F#3,980.0,0.25,45,200.5
4707,F#3,980.5,0.25,40,200.5
4708,F#2,980.5,0.25,40,200.5
4709,B-4,980.802,1.5,66,200.5
4710,E5,980.802,1.5,66,200.5
4711,C#5,980.802,1.5,66,200.5
4712,F#3,981.0,0.25,48,200.5
4713,F#3,981.5,0.25,48,200.5
4714,F#3,982.0,0.25,48,200.5
4715,B4,982.302,1.5,62,200.5
4716,E-5,982.302,1.5,62,200.5
4717,F#3,982.5,0.25,45,200.5
4718,F#3,983.0,0.25,45,200.5
4719,F#3,983.5,0.25,45,200.5
4720,F#3,984.0,0.25,45,200.5
4721,F#3,984.5,0.25,45,200.5
4722,B-4,984.802,0.5,56,200.5
4723,C#5,984.802,0.5,56,200.5
4724,F#3,985.0,0.25,56,200.5
4725,F#2,985.0,0.25,56,200.5
4726,B4,985.302,1.0,62,200.5
4727,E-5,985.302,1.0,62,200.5
4728,F#3,985.5,0.25,48,200.5
4729,F#3,986.0,0.25,48,200.5
4730,C#5,986.302,0.5,56,200.5
4731,E5,986.302,0.5,56,200.5
4732,F#3,986.5,0.25,48,200.5
4733,F#3,987.0,0.25,45,200.5
4734,F#3,987.5,0.25,45,200.5
4735,F#3,988.0,0.25,45,200.5
4736,F#3,988.5,0.25,45,200.5
4737,F#3,989.0,0.25,45,200.5
4738,B-4,989.302,0.5,56,200.5
4739,C#5,989.302,0.5,56,200.5
4740,G2,989.5,0.25,56,200.5
4741,G3,989.5,0.25,56,200.5
4742,E-5,989.802,1.0,62,200.5
4743,B4,989.802,1.0,62,200.5
4744,G3,990.0,0.25,48,200.5
4745,G3,990.5,0.25,48,200.5
4746,C#5,990.802,0.5,56,200.5
4747,E5,990.802,0.5,56,200.5
4748,G3,991.0,0.25,48,200.5
4749,G3,991.5,0.25,45,200.5
4750,G3,992.0,0.25,49,200.5
4751,E5,992.302,0.5,54,200.5
4752,C#5,992.302,0.5,54,200.5
4753,B-4,992.302,0.5,54,200.5
4754,G3,992.5,0.25,54,200.5
4755,G3,993.0,0.25,59,200.5
4756,G3,993.5,0.25,64,200.5
4757,B4,993.552,89/125,57,200.5
4758,D5,993.552,89/125,57,200.5
4759,F5,993.552,89/125,57,200.5
4760,G1,994.0,0.25,80,200.5
4761,G2,994.0,0.25,80,200.5
4762,F5,994.302,89/125,66,200.5
4763,D5,994.302,89/125,66,200.5
4764,B5,994.302,89/125,66,200.5
4765,G3,994.5,0.25,67,200.5
4766,G3,995.0,0.25,63,200.5
4767,F5,995.052,89/125,73,200.5
4768,B5,995.052,89/125,73,200.5
4769,D6,995.052,89/125,73,200.5
4770,G3,995.5,0.25,58,200.5
4771,F5,995.802,89/125,82,200.5
4772,B5,995.802,89/125,82,200.5
4773,F6,995.802,89/125,82,200.5
4774,G3,996.0,0.25,54,200.5
4775,G3,996.5,0.25,50,200.5
4776,D6,996.552,89/125,77,200.5
4777,B5,996.552,89/125,77,200.5
4778,F5,996.552,89/125,77,200.5
4779,G3,997.0,0.25,45,200.5
4780,F5,997.302,1479/1000,74,200.5
4781,D5,997.302,1479/1000,74,200.5
4782,B5,997.302,1479/1000,74,200.5
4783,G3,997.5,0.25,45,200.5
4784,G3,998.0,0.25,45,200.5
4785,C3,998.5,0.5,59,200.5
4786,B4,998.802,1.5,66,200.5
4787,F5,998.802,1.5,66,200.5
4788,D5,998.802,1.5,66,200.5
4789,C2,1000.0,0.5,66,200.5
4790,E5,1000.302,0.5,62,200.5
4791,C5,1000.302,0.5,62,200.5
4792,E2,1000.5,0.5,44,200.5
4793,G#2,1001.0,0.5,44,200.5
4794,A2,1001.5,0.5,66,200.5
4795,G#4,1001.802,1.5,70,200.5
4796,E4,1001.802,1.5,63,200.5
4797,E5,1001.802,1.5,63,200.5
4798,C5,1001.802,1.5,63,200.5
4799,B2,1002.0,0.5,41,200.5
4800,A2,1002.5,0.5,41,200.5
4801,C2,1003.0,0.5,66,200.5
4802,A4,1003.302,0.5,66,200.5
4803,E4,1003.302,0.5,63,200.5
4804,E5,1003.302,0.5,63,200.5
4805,C5,1003.302,0.5,63,200.5
4806,E2,1003.5,0.5,46,200.5
4807,G#2,1004.0,0.5,46,200.5
4808,A2,1004.5,0.5,66,200.5
4809,G#4,1004.802,1.5,70,200.5
4810,E4,1004.802,1.5,63,200.5
4811,E5,1004.802,1.5,63,200.5
4812,C5,1004.802,1.5,63,200.5
4813,B2,1005.0,0.5,43,200.5
4814,A2,1005.5,0.5,43,200.5
4815,C2,1006.0,0.5,66,200.5
4816,A4,1006.302,0.5,66,200.5
4817,E4,1006.302,0.5,63,200.5
4818,E5,1006.302,0.5,63,200.5
4819,C5,1006.302,0.5,63,200.5
4820,E2,1006.5,0.5,46,200.5
4821,G#2,1007.0,0.5,46,200.5
4822,A2,1007.5,0.5,66,200.5
4823,G#4,1007.802,1.5,70,200.5
4824,E4,1007.802,1.5,63,200.5
4825,C5,1007.802,1.5,63,200.5
4826,E5,1007.802,1.5,63,200.5
4827,B2,1008.0,0.5,43,200.5
4828,A2,1008.5,0.5,43,200.5
4829,C2,1009.0,0.5,66,200.5
4830,A4,1009.302,0.5,66,200.5
4831,E4,1009.302,0.5,63,200.5
4832,C5,1009.302,0.5,63,200.5
4833,E5,1009.302,0.5,63,200.5
4834,E2,1009.5,0.5,44,200.5
4835,G#2,1010.0,0.5,44,200.5
4836,A2,1010.5,0.5,50,200.5
4837,C5,1010.802,677/500,64,200.5
4838,E4,1010.802,677/500,64,200.5
4839,E5,1010.802,677/500,64,200.5
4840,G#4,1010.802,677/500,64,200.5
4841,C3,1011.0,0.5,41,200.5
4842,A3,1011.5,0.5,41,200.5
4843,G2,1012.0,0.5,50,200.5
4844,F4,1012.177,0.125,49,200.5
4845,C5,1012.24,0.062,49,200.5
4846,F5,1012.302,297/200,59,200.5
4847,F4,1012.302,1.5,49,200.5
4848,C5,1012.302,1417/1000,49,200.5
4849,C3,1012.5,0.5,44,200.5
4850,G3,1013.0,0.5,44,200.5
4851,F2,1013.5,0.5,50,200.5
4852,E5,1013.802,297/200,48,200.5
4853,C5,1013.802,297/200,48,200.5
4854,E4,1013.802,297/200,48,200.5
4855,C3,1014.0,0.5,40,200.5
4856,F3,1014.5,0.5,40,200.5
4857,F#2,1015.0,0.5,50,200.5
4858,A4,1015.302,297/200,52,200.5
4859,D5,1015.302,297/200,52,200.5
4860,D4,1015.302,297/200,52,200.5
4861,D3,1015.5,0.5,41,200.5
4862,F#3,1016.0,0.5,41,200.5
4863,G2,1016.5,0.5,50,200.5
4864,A4,1016.802,297/200,41,200.5
4865,C5,1016.802,297/200,41,200.5
4866,D4,1016.802,297/200,41,200.5
4867,C4,1016.802,297/200,41,200.5
4868,D3,1017.0,0.5,42,200.5
4869,G3,1017.5,0.5,42,200.5
4870,F2,1018.0,0.5,50,200.5
4871,D4,1018.302,297/200,47,200.5
4872,B3,1018.302,297/200,47,200.5
4873,B4,1018.302,297/200,47,200.5
4874,G4,1018.302,297/200,47,200.5
4875,G2,1018.5,0.5,42,200.5
4876,F3,1019.0,0.5,42,200.5
4877,E2,1019.5,0.5,47,200.5
4878,D4,1019.802,297/200,40,200.5
4879,A4,1019.802,297/200,40,200.5
4880,B3,1019.802,297/200,40,200.5
4881,G2,1020.0,0.5,36,200.5
4882,E3,1020.5,0.5,34,200.5
4883,D2,1021.0,0.5,41,200.5
4884,G4,1021.302,297/200,48,200.5
4885,C4,1021.302,297/200,48,200.5
4886,E4,1021.302,297/200,48,200.5
4887,G2,1021.5,0.5,30,200.5
4888,D3,1022.0,0.5,29,200.5
4889,C3,1022.5,0.5,37,200.5
4890,G3,1022.802,297/200,40,200.5
4891,B3,1022.802,297/200,40,200.5
4892,F4,1022.802,297/200,40,200.5
4893,C2,1024.0,0.5,66,200.5
4894,E4,1024.302,0.5,40,200.5
4895,C4,1024.302,0.5,40,200.5
4896,E2,1024.5,0.5,44,200.5
4897,G#2,1025.0,0.5,44,200.5
4898,A2,1025.5,0.5,66,200.5
4899,G#4,1025.802,1.5,70,200.5
4900,C5,1025.802,1.5,63,200.5
4901,E4,1025.802,1.5,63,200.5
4902,E5,1025.802,1.5,63,200.5
4903,B2,1026.0,0.5,41,200.5
4904,A2,1026.5,0.5,41,200.5
4905,C2,1027.0,0.5,66,200.5
4906,A4,1027.302,0.5,66,200.5
4907,C5,1027.302,0.5,63,200.5
4908,E4,1027.302,0.5,63,200.5
4909,E5,1027.302,0.5,63,200.5
4910,E2,1027.5,0.5,46,200.5
4911,G#2,1028.0,0.5,46,200.5
4912,A2,1028.5,0.5,66,200.5
4913,G#4,1028.802,1.5,70,200.5
4914,E5,1028.802,1.5,63,200.5
4915,C5,1028.802,1.5,63,200.5
4916,E4,1028.802,1.5,63,200.5
4917,B2,1029.0,0.5,43,200.5
4918,A2,1029.5,0.5,43,200.5
4919,C2,1030.0,0.5,66,200.5
4920,A4,1030.302,0.5,66,200.5
4921,E5,1030.302,0.5,63,200.5
4922,C5,1030.302,0.5,63,200.5
4923,E4,1030.302,0.5,63,200.5
4924,E2,1030.5,0.5,46,200.5
4925,G#2,1031.0,0.5,46,200.5
4926,A2,1031.5,0.5,66,200.5
4927,G#4,1031.802,1.5,70,200.5
4928,E5,1031.802,1.5,63,200.5
4929,C5,1031.802,1.5,63,200.5
4930,E4,1031.802,1.5,63,200.5
4931,B2,1032.0,0.5,43,200.5
4932,A2,1032.5,0.5,43,200.5
4933,C2,1033.0,0.5,66,200.5
4934,A4,1033.302,0.5,66,200.5
4935,E5,1033.302,0.5,63,200.5
4936,C5,1033.302,0.5,63,200.5
4937,E4,1033.302,0.5,63,200.5
4938,E2,1033.5,0.5,44,200.5
4939,G#2,1034.0,0.5,44,200.5
4940,A2,1034.5,0.5,50,200.5
4941,G#4,1034.802,677/500,64,200.5
4942,E4,1034.802,677/500,64,200.5
4943,C5,1034.802,677/500,64,200.5
4944,E5,1034.802,677/500,64,200.5
4945,C3,1035.0,0.5,41,200.5
4946,A3,1035.5,0.5,41,200.5
4947,G2,1036.0,0.5,50,200.5
4948,F4,1036.177,0.125,49,200.5
4949,C5,1036.24,0.062,49,200.5
4950,F5,1036.302,297/200,59,200.5
4951,F4,1036.302,1.5,49,200.5
4952,C5,1036.302,1423/1000,49,200.5
4953,C3,1036.5,0.5,44,200.5
4954,G3,1037.0,0.5,44,200.5
4955,F2,1037.5,0.5,50,200.5
4956,E4,1037.802,297/200,48,200.5
4957,C5,1037.802,297/200,48,200.5
4958,E5,1037.802,297/200,48,200.5
4959,C3,1038.0,0.5,40,200.5
4960,F3,1038.5,0.5,40,200.5
4961,F#2,1039.0,0.5,50,200.5
4962,A4,1039.302,297/200,52,200.5
4963,D5,1039.302,297/200,52,200.5
4964,D4,1039.302,297/200,52,200.5
4965,D3,1039.5,0.5,41,200.5
4966,F#3,1040.0,0.5,41,200.5
4967,G2,1040.5,0.5,50,200.5
4968,D4,1040.802,297/200,42,200.5
4969,C5,1040.802,297/200,42,200.5
4970,A4,1040.802,297/200,42,200.5
4971,D3,1041.0,0.5,44,200.5
4972,G3,1041.5,0.5,49,200.5
4973,F2,1042.0,0.5,54,200.5
4974,D4,1042.302,297/200,48,200.5
4975,G4,1042.302,297/200,48,200.5
4976,B4,1042.302,297/200,48,200.5
4977,G2,1042.5,0.5,44,200.5
4978,F3,1043.0,0.5,44,200.5
4979,E2,1043.5,0.5,49,200.5
4980,A5,1043.802,297/200,55,200.5
4981,B4,1043.802,297/200,55,200.5
4982,A4,1043.802,297/200,55,200.5
4983,G2,1044.0,0.5,38,200.5
4984,E3,1044.5,0.5,38,200.5
4985,D2,1045.0,0.5,44,200.5
4986,G5,1045.302,297/200,57,200.5
4987,C5,1045.302,297/200,57,200.5
4988,G4,1045.302,297/200,57,200.5
4989,G2,1045.5,0.5,30,200.5
4990,D3,1046.0,0.5,29,200.5
4991,C2,1046.5,0.5,49,200.5
4992,F4,1046.802,297/200,49,200.5
4993,F5,1046.802,297/200,49,200.5
4994,B4,1046.802,297/200,49,200.5
4995,G2,1047.0,0.5,38,200.5
4996,C3,1047.5,0.5,38,200.5
4997,E2,1048.0,0.5,44,200.5
4998,E4,1048.302,1.5,57,200.5
4999,C5,1048.302,1.5,57,200.5
5000,E5,1048.302,1.5,57,200.5
5001,C3,1048.5,0.5,30,200.5
5002,E3,1049.0,0.5,30,200.5
5003,F2,1049.5,0.5,42,200.5
5004,B-4,1049.802,677/500,49,200.5
5005,G5,1049.802,677/500,49,200.5
5006,G4,1049.802,677/500,49,200.5
5007,C3,1050.0,0.5,30,200.5
5008,F3,1050.5,0.5,30,200.5
5009,F2,1051.0,0.5,42,200.5
5010,B-4,1051.177,0.125,43,200.5
5011,G5,1051.177,0.125,43,200.5
5012,A4,1051.302,3/5,57,200.5
5013,F5,1051.302,3/5,57,200.5
5014,C3,1051.5,0.5,29,200.5
5015,F3,1052.0,0.5,29,200.5
5016,E5,1052.052,3/5,50,200.5
5017,G4,1052.052,3/5,50,200.5
5018,F#3,1052.5,0.5,49,200.5
5019,A4,1052.802,3/5,59,200.5
5020,F5,1052.802,3/5,59,200.5
5021,G2,1053.0,0.5,29,200.5
5022,F#3,1053.5,0.5,46,200.5
5023,D5,1053.552,3/5,50,200.5
5024,F4,1053.552,3/5,50,200.5
5025,G2,1054.0,0.5,34,200.5
5026,A4,1054.302,3/5,53,200.5
5027,E4,1054.302,3/5,53,200.5
5028,D5,1054.302,3/5,53,200.5
5029,F#3,1054.5,0.5,47,200.5
5030,G2,1055.0,0.5,38,200.5
5031,C5,1055.052,3/5,46,200.5
5032,E4,1055.052,3/5,46,200.5
5033,A4,1055.052,3/5,46,200.5
5034,G3,1055.5,3.0,57,200.5
5035,G2,1055.5,3.0,48,200.5
5036,A4,1055.802,3/5,53,200.5
5037,E4,1055.802,3/5,53,200.5
5038,B4,1055.802,3/5,53,200.5
5039,A4,1056.552,3/5,57,200.5
5040,C5,1056.552,3/5,57,200.5
5041,E4,1056.552,3/5,57,200.5
5042,E5,1057.302,2.5,71,200.5
5043,F4,1057.302,3.0,60,200.5
5044,B4,1057.302,3.0,60,200.5
5045,C3,1058.5,0.5,44,200.5
5046,G3,1058.5,0.5,57,200.5
5047,D5,1059.802,0.5,62,200.5
5048,F2,1060.0,0.5,66,200.5
5049,E4,1060.302,0.5,54,200.5
5050,C5,1060.302,0.5,54,200.5
5051,A2,1060.5,0.5,44,200.5
5052,C#3,1061.0,0.5,44,200.5
5053,D3,1061.5,0.5,66,200.5
5054,C#5,1061.802,1.5,70,200.5
5055,A5,1061.802,1.5,63,200.5
5056,A4,1061.802,1.5,63,200.5
5057,F5,1061.802,1.5,63,200.5
5058,E3,1062.0,0.5,41,200.5
5059,D3,1062.5,0.5,41,200.5
5060,F2,1063.0,0.5,66,200.5
5061,D5,1063.302,0.5,66,200.5
5062,A5,1063.302,0.5,63,200.5
5063,A4,1063.302,0.5,63,200.5
5064,F5,1063.302,0.5,63,200.5
5065,A2,1063.5,0.5,46,200.5
5066,C#3,1064.0,0.5,46,200.5
5067,D3,1064.5,0.5,66,200.5
5068,C#5,1064.802,1.5,70,200.5
5069,A4,1064.802,1.5,63,200.5
5070,A5,1064.802,1.5,63,200.5
5071,F5,1064.802,1.5,63,200.5
5072,E3,1065.0,0.5,43,200.5
5073,D3,1065.5,0.5,43,200.5
5074,F2,1066.0,0.5,66,200.5
5075,D5,1066.302,0.5,66,200.5
5076,A4,1066.302,0.5,63,200.5
5077,A5,1066.302,0.5,63,200.5
5078,F5,1066.302,0.5,63,200.5
5079,A2,1066.5,0.5,46,200.5
5080,C#3,1067.0,0.5,46,200.5
5081,D3,1067.5,0.5,66,200.5
5082,C#5,1067.802,1.5,70,200.5
5083,A4,1067.802,1.5,63,200.5
5084,F5,1067.802,1.5,63,200.5
5085,A5,1067.802,1.5,63,200.5
5086,E3,1068.0,0.5,43,200.5
5087,D3,1068.5,0.5,43,200.5
5088,F2,1069.0,0.5,66,200.5
5089,D5,1069.302,0.5,66,200.5
5090,A4,1069.302,0.5,63,200.5
5091,F5,1069.302,0.5,63,200.5
5092,A5,1069.302,0.5,63,200.5
5093,A2,1069.5,0.5,44,200.5
5094,C#3,1070.0,0.5,44,200.5
5095,D3,1070.5,0.5,50,200.5
5096,A4,1070.802,677/500,64,200.5
5097,C#5,1070.802,677/500,64,200.5
5098,A5,1070.802,677/500,64,200.5
5099,F5,1070.802,677/500,64,200.5
5100,F3,1071.0,0.5,41,200.5
5101,D4,1071.5,0.5,38,200.5
5102,C3,1072.0,0.5,50,200.5
5103,B-4,1072.177,0.125,49,200.5
5104,F5,1072.219,83/1000,51,200.5
5105,C6,1072.26,21/500,51,200.5
5106,B-5,1072.302,1.5,62,200.5
5107,B-4,1072.302,1.5,49,200.5
5108,F5,1072.302,1417/1000,51,200.5
5109,F3,1072.5,0.5,44,200.5
5110,C4,1073.0,0.5,36,200.5
5111,B-2,1073.5,0.5,50,200.5
5112,F5,1073.802,1.5,48,200.5
5113,A5,1073.802,1.5,48,200.5
5114,A4,1073.802,1.5,48,200.5
5115,D3,1074.0,0.5,40,200.5
5116,B-3,1074.5,0.5,36,200.5
5117,B2,1075.0,0.5,50,200.5
5118,G5,1075.302,297/200,52,200.5
5119,G4,1075.302,297/200,52,200.5
5120,D5,1075.302,297/200,52,200.5
5121,D3,1075.5,0.5,41,200.5
5122,B3,1076.0,0.5,32,200.5
5123,C3,1076.5,0.5,50,200.5
5124,F5,1076.802,297/200,42,200.5
5125,D5,1076.802,297/200,42,200.5
5126,G4,1076.802,297/200,42,200.5
5127,G3,1077.0,0.5,40,200.5
5128,C4,1077.5,0.5,38,200.5
5129,C3,1078.0,0.5,46,200.5
5130,E5,1078.302,297/200,48,200.5
5131,G4,1078.302,297/200,48,200.5
5132,C5,1078.302,297/200,48,200.5
5133,F3,1078.5,0.5,32,200.5
5134,B3,1079.0,0.5,30,200.5
5135,C3,1079.5,0.5,47,200.5
5136,D5,1079.802,297/200,40,200.5
5137,G4,1079.802,297/200,40,200.5
5138,F4,1079.802,297/200,40,200.5
5139,E3,1080.0,0.5,36,200.5
5140,C4,1080.5,0.5,30,200.5
5141,C3,1081.0,0.5,41,200.5
5142,C5,1081.302,297/200,48,200.5
5143,G4,1081.302,297/200,48,200.5
5144,E4,1081.302,297/200,48,200.5
5145,G3,1081.5,0.5,30,200.5
5146,C4,1082.0,0.5,29,200.5
5147,F3,1082.5,0.5,37,200.5
5148,G4,1082.802,297/200,40,200.5
5149,E4,1082.802,297/200,40,200.5
5150,B-4,1082.802,297/200,40,200.5
5151,F2,1084.0,0.5,66,200.5
5152,F4,1084.302,0.5,40,200.5
5153,A4,1084.302,0.5,40,200.5
5154,A2,1084.5,0.5,44,200.5
5155,C#3,1085.0,0.5,44,200.5
5156,D3,1085.5,0.5,66,200.5
5157,C#5,1085.802,1.5,70,200.5
5158,A5,1085.802,1.5,63,200.5
5159,A4,1085.802,1.5,63,200.5
5160,F5,1085.802,1.5,63,200.5
5161,E3,1086.0,0.5,41,200.5
5162,D3,1086.5,0.5,41,200.5
5163,C#2,1087.0,0.5,66,200.5
5164,D5,1087.302,0.5,66,200.5
5165,A5,1087.302,0.5,63,200.5
5166,A4,1087.302,0.5,63,200.5
5167,F5,1087.302,0.5,63,200.5
5168,E2,1087.5,0.5,46,200.5
5169,A2,1088.0,0.5,46,200.5
5170,D2,1088.5,0.5,66,200.5
5171,E5,1088.802,1.5,59,200.5
5172,A5,1088.802,1.5,64,200.5
5173,A4,1088.802,1.5,64,200.5
5174,F2,1089.0,0.5,43,200.5
5175,A2,1089.5,0.5,43,200.5
5176,A2,1090.0,0.5,66,200.5
5177,F5,1090.302,0.5,66,200.5
5178,A5,1090.302,0.5,64,200.5
5179,A4,1090.302,0.5,64,200.5
5180,C3,1090.5,0.5,46,200.5
5181,E3,1091.0,0.5,46,200.5
5182,F3,1091.5,0.5,66,200.5
5183,E5,1091.802,1.5,70,200.5
5184,C5,1091.802,1.5,63,200.5
5185,A5,1091.802,1.5,63,200.5
5186,C6,1091.802,1.5,63,200.5
5187,G3,1092.0,0.5,43,200.5
5188,F3,1092.5,0.5,43,200.5
5189,E2,1093.0,0.5,66,200.5
5190,F5,1093.302,0.5,66,200.5
5191,C5,1093.302,0.5,63,200.5
5192,A5,1093.302,0.5,63,200.5
5193,C6,1093.302,0.5,63,200.5
5194,G#2,1093.5,0.5,46,200.5
5195,C3,1094.0,0.5,46,200.5
5196,F2,1094.5,0.5,66,200.5
5197,G#5,1094.802,1.5,59,200.5
5198,C6,1094.802,1.5,68,200.5
5199,C5,1094.802,1.5,68,200.5
5200,A2,1095.0,0.5,43,200.5
5201,C3,1095.5,0.5,43,200.5
5202,G#2,1096.0,0.5,66,200.5
5203,A5,1096.302,0.5,73,200.5
5204,C6,1096.302,0.5,68,200.5
5205,C5,1096.302,0.5,68,200.5
5206,C3,1096.5,0.5,44,200.5
5207,E3,1097.0,0.5,44,200.5
5208,A2,1097.5,0.5,50,200.5
5209,E5,1097.802,677/500,66,200.5
5210,E6,1097.802,677/500,66,200.5
5211,C6,1097.802,677/500,66,200.5
5212,C3,1098.0,0.5,41,200.5
5213,A3,1098.5,0.5,41,200.5
5214,G2,1099.0,0.5,50,200.5
5215,F5,1099.177,0.125,56,200.5
5216,C6,1099.219,83/1000,52,200.5
5217,G6,1099.26,21/500,51,200.5
5218,F6,1099.302,1.5,74,200.5
5219,F5,1099.302,1.5,56,200.5
5220,C6,1099.302,1417/1000,52,200.5
5221,C3,1099.5,0.5,44,200.5
5222,G3,1100.0,0.5,44,200.5
5223,F2,1100.5,0.5,50,200.5
5224,E6,1100.802,297/200,54,200.5
5225,E5,1100.802,297/200,54,200.5
5226,C6,1100.802,297/200,54,200.5
5227,C3,1101.0,0.5,40,200.5
5228,F3,1101.5,0.5,40,200.5
5229,F#2,1102.0,0.5,50,200.5
5230,A5,1102.302,297/200,60,200.5
5231,D6,1102.302,297/200,60,200.5
5232,D5,1102.302,297/200,60,200.5
5233,D3,1102.5,0.5,41,200.5
5234,F#3,1103.0,0.5,41,200.5
5235,G2,1103.5,0.5,50,200.5
5236,D5,1103.802,297/200,46,200.5
5237,A5,1103.802,297/200,46,200.5
5238,C5,1103.802,297/200,46,200.5
5239,C6,1103.802,297/200,46,200.5
5240,D3,1104.0,0.5,44,200.5
5241,G3,1104.5,0.5,49,200.5
5242,F2,1105.0,0.5,54,200.5
5243,D5,1105.302,1371/1000,53,200.5
5244,G5,1105.302,1371/1000,53,200.5
5245,B5,1105.302,1371/1000,53,200.5
5246,B4,1105.302,1371/1000,53,200.5
5247,G2,1105.5,0.5,44,200.5
5248,F3,1106.0,0.5,44,200.5
5249,E2,1106.5,0.5,49,200.5
5250,A5,1106.677,1.625,59,200.5
5251,B5,1106.74,1.562,59,200.5
5252,A6,1106.802,1.5,71,200.5
5253,G2,1107.0,0.5,38,200.5
5254,E3,1107.5,0.5,38,200.5
5255,D2,1108.0,0.5,44,200.5
5256,G6,1108.302,297/200,66,200.5
5257,C6,1108.302,297/200,66,200.5
5258,G5,1108.302,297/200,66,200.5
5259,G2,1108.5,0.5,30,200.5
5260,D3,1109.0,0.5,29,200.5
5261,C2,1109.5,0.5,49,200.5
5262,B5,1109.802,297/200,56,200.5
5263,F5,1109.802,297/200,56,200.5
5264,F6,1109.802,297/200,56,200.5
5265,G2,1110.0,0.5,38,200.5
5266,C3,1110.5,0.5,38,200.5
5267,E2,1111.0,0.5,44,200.5
5268,E6,1111.302,297/200,66,200.5
5269,C6,1111.302,297/200,66,200.5
5270,E5,1111.302,297/200,66,200.5
5271,C3,1111.5,0.5,30,200.5
5272,E3,1112.0,0.5,30,200.5
5273,F2,1112.5,0.5,42,200.5
5274,G5,1112.802,677/500,56,200.5
5275,B-5,1112.802,677/500,56,200.5
5276,G6,1112.802,677/500,56,200.5
5277,C3,1113.0,0.5,30,200.5
5278,F3,1113.5,0.5,30,200.5
5279,F2,1114.0,0.5,42,200.5
5280,G5,1114.177,0.125,45,200.5
5281,B-5,1114.177,0.125,45,200.5
5282,G6,1114.177,0.125,45,200.5
5283,F5,1114.302,3/5,61,200.5
5284,F6,1114.302,3/5,61,200.5
5285,A5,1114.302,3/5,61,200.5
5286,C3,1114.5,0.5,29,200.5
5287,F3,1115.0,0.5,29,200.5
5288,E6,1115.052,3/5,53,200.5
5289,E5,1115.052,3/5,53,200.5
5290,G5,1115.052,3/5,53,200.5
5291,F#3,1115.5,0.5,49,200.5
5292,F5,1115.802,3/5,63,200.5
5293,A5,1115.802,3/5,63,200.5
5294,F6,1115.802,3/5,63,200.5
5295,G2,1116.0,0.5,29,200.5
5296,F#3,1116.5,0.5,46,200.5
5297,D5,1116.552,3/5,53,200.5
5298,A5,1116.552,3/5,53,200.5
5299,D6,1116.552,3/5,53,200.5
5300,G2,1117.0,0.5,34,200.5
5301,E5,1117.302,3/5,57,200.5
5302,D5,1117.302,3/5,57,200.5
5303,D6,1117.302,3/5,57,200.5
5304,A5,1117.302,3/5,57,200.5
5305,F#3,1117.5,0.5,47,200.5
5306,G2,1118.0,0.5,38,200.5
5307,C5,1118.052,3/5,49,200.5
5308,C6,1118.052,3/5,49,200.5
5309,E5,1118.052,3/5,49,200.5
5310,A5,1118.052,3/5,49,200.5
5311,G3,1118.375,0.125,42,200.5
5312,F4,1118.5,2.875,52,200.5
5313,B4,1118.5,2.875,52,200.5
5314,B5,1118.802,3/5,57,200.5
5315,E5,1118.802,3/5,57,200.5
5316,B4,1118.802,3/5,57,200.5
5317,A5,1118.802,3/5,57,200.5
5318,C6,1119.552,3/5,62,200.5
5319,E5,1119.552,3/5,62,200.5
5320,C5,1119.552,3/5,62,200.5
5321,A5,1119.552,3/5,62,200.5
5322,E6,1120.302,2.5,66,200.5
5323,E5,1120.302,2.5,66,200.5
5324,B5,1120.302,3.0,60,200.5
5325,F5,1120.302,3.0,60,200.5
5326,C3,1121.375,0.125,37,200.5
5327,G3,1121.375,0.125,37,200.5
5328,C4,1121.458,21/500,40,200.5
5329,E4,1121.458,21/500,40,200.5
5330,C3,1121.667,167/1000,37,200.5
5331,G3,1121.667,167/1000,37,200.5
5332,C4,1121.667,26/125,40,200.5
5333,E4,1121.667,26/125,40,200.5
5334,D6,1122.802,0.5,57,200.5
5335,D5,1122.802,0.5,57,200.5
5336,F#3,1123.167,0.5,58,200.5
5337,C5,1123.302,0.25,51,200.5
5338,G5,1123.302,0.25,51,200.5
5339,C6,1123.302,0.25,51,200.5
5340,E5,1123.302,0.25,51,200.5
5341,E3,1123.667,0.5,49,200.5
5342,F#3,1124.167,0.5,49,200.5
5343,G3,1124.667,0.5,58,200.5
5344,C6,1124.802,0.25,72,200.5
5345,E6,1124.802,0.25,72,200.5
5346,E5,1124.802,0.25,72,200.5
5347,D3,1125.167,0.5,52,200.5
5348,G2,1125.667,0.5,52,200.5
5349,F#3,1126.167,0.5,58,200.5
5350,D5,1126.302,0.25,71,200.5
5351,B5,1126.302,0.25,71,200.5
5352,D6,1126.302,0.25,71,200.5
5353,E3,1126.667,0.5,52,200.5
5354,F#3,1127.167,0.5,52,200.5
5355,G3,1127.667,0.5,58,200.5
5356,C6,1127.802,0.25,72,200.5
5357,E5,1127.802,0.25,72,200.5
5358,E6,1127.802,0.25,72,200.5
5359,D3,1128.167,0.5,52,200.5
5360,G2,1128.667,0.5,52,200.5
5361,G3,1129.167,0.25,60,200.5
5362,D4,1129.167,0.25,60,200.5
5363,G4,1129.167,0.25,60,200.5
5364,F4,1129.167,0.25,60,200.5
5365,D5,1129.302,0.25,67,200.5
5366,D6,1129.302,0.25,67,200.5
5367,B5,1129.302,0.25,67,200.5
5368,C3,1130.542,0.125,52,200.5
5369,G3,1130.604,0.062,52,200.5
5370,E4,1130.667,0.25,62,200.5
5371,C3,1130.667,0.25,52,200.5
5372,G3,1130.667,0.25,52,200.5
5373,B6,1130.802,0.5,72,200.5
5374,B5,1130.802,0.5,72,200.5
5375,A6,1131.302,0.5,65,200.5
5376,B6,1131.802,0.5,65,200.5
5377,D4,1132.167,0.25,61,200.5
5378,F4,1132.167,0.25,61,200.5
5379,G4,1132.167,0.25,61,200.5
5380,G3,1132.167,0.25,61,200.5
5381,C6,1132.302,0.5,73,200.5
5382,C7,1132.302,0.5,73,200.5
5383,G6,1132.802,0.5,67,200.5
5384,E6,1133.302,0.5,67,200.5
5385,C3,1133.542,0.125,53,200.5
5386,G3,1133.604,0.062,53,200.5
5387,E4,1133.667,0.25,63,200.5
5388,C3,1133.667,0.25,53,200.5
5389,G3,1133.667,0.25,53,200.5
5390,B5,1133.802,0.5,72,200.5
5391,B6,1133.802,0.5,72,200.5
5392,A6,1134.302,0.5,63,200.5
5393,B6,1134.802,0.5,63,200.5
5394,F#3,1135.167,0.5,58,200.5
5395,C7,1135.302,0.5,70,200.5
5396,C6,1135.302,0.5,70,200.5
5397,E3,1135.667,0.5,49,200.5
5398,G6,1135.802,0.5,65,200.5
5399,F#3,1136.167,0.5,49,200.5
5400,E6,1136.302,0.5,65,200.5
5401,G3,1136.667,0.5,58,200.5
5402,C6,1136.802,0.25,72,200.5
5403,E5,1136.802,0.25,72,200.5
5404,E6,1136.802,0.25,72,200.5
5405,D3,1137.167,0.5,52,200.5
5406,G2,1137.667,0.5,52,200.5
5407,F#3,1138.167,0.5,58,200.5
5408,D5,1138.302,0.25,71,200.5
5409,B5,1138.302,0.25,71,200.5
5410,D6,1138.302,0.25,71,200.5
5411,E3,1138.667,0.5,52,200.5
5412,F#3,1139.167,0.5,52,200.5
5413,G3,1139.667,0.5,58,200.5
5414,E5,1139.802,0.25,72,200.5
5415,C6,1139.802,0.25,72,200.5
5416,E6,1139.802,0.25,72,200.5
5417,D3,1140.167,0.5,52,200.5
5418,G2,1140.667,0.5,52,200.5
5419,F4,1141.167,0.25,60,200.5
5420,G4,1141.167,0.25,60,200.5
5421,D4,1141.167,0.25,60,200.5
5422,G3,1141.167,0.25,60,200.5
5423,B5,1141.302,0.25,67,200.5
5424,D5,1141.302,0.25,67,200.5
5425,D6,1141.302,0.25,67,200.5
5426,C3,1142.542,0.125,52,200.5
5427,G3,1142.604,0.062,52,200.5
5428,E4,1142.667,0.25,62,200.5
5429,C3,1142.667,0.25,52,200.5
5430,G3,1142.667,0.25,52,200.5
5431,B6,1142.802,0.5,72,200.5
5432,B5,1142.802,0.5,72,200.5
5433,A6,1143.302,0.5,65,200.5
5434,B6,1143.802,0.5,65,200.5
5435,D4,1144.167,0.25,61,200.5
5436,G4,1144.167,0.25,61,200.5
5437,F4,1144.167,0.25,61,200.5
5438,G3,1144.167,0.25,61,200.5
5439,C7,1144.302,0.5,73,200.5
5440,C6,1144.302,0.5,73,200.5
5441,G6,1144.802,0.5,67,200.5
5442,E6,1145.302,0.5,67,200.5
5443,C3,1145.542,0.125,53,200.5
5444,G3,1145.604,0.062,53,200.5
5445,E4,1145.667,0.25,63,200.5
5446,C3,1145.667,0.25,53,200.5
5447,G3,1145.667,0.25,53,200.5
5448,B6,1145.802,0.5,72,200.5
5449,B5,1145.802,0.5,72,200.5
5450,A6,1146.302,0.5,63,200.5
5451,B6,1146.802,0.5,63,200.5
5452,A2,1146.917,0.5,53,200.5
5453,C3,1147.042,0.375,53,200.5
5454,E3,1147.104,0.312,53,200.5
5455,E4,1147.167,0.25,63,200.5
5456,C7,1147.302,0.5,70,200.5
5457,C6,1147.302,0.5,70,200.5
5458,G6,1147.802,0.5,65,200.5
5459,E6,1148.302,0.375,65,200.5
5460,G3,1148.667,0.5,59,200.5
5461,G2,1148.667,0.5,59,200.5
5462,E6,1148.802,0.5,70,200.5
5463,E7,1148.802,0.5,70,200.5
5464,C3,1149.167,0.5,54,200.5
5465,C7,1149.302,0.5,65,200.5
5466,E3,1149.667,0.5,54,200.5
5467,A6,1149.802,0.5,65,200.5
5468,C4,1150.167,0.5,59,200.5
5469,C3,1150.167,0.5,59,200.5
5470,G7,1150.302,0.5,73,200.5
5471,G6,1150.302,0.5,73,200.5
5472,E3,1150.667,0.5,56,200.5
5473,E7,1150.802,0.5,64,200.5
5474,G3,1151.167,0.5,56,200.5
5475,C7,1151.302,0.5,64,200.5
5476,E4,1151.667,0.5,59,200.5
5477,E3,1151.667,0.5,59,200.5
5478,E6,1151.802,0.5,78,200.5
5479,E7,1151.802,0.5,78,200.5
5480,G3,1152.167,0.5,59,200.5
5481,C7,1152.302,0.5,64,200.5
5482,C4,1152.667,0.5,59,200.5
5483,G6,1152.802,0.5,64,200.5
5484,G4,1153.167,0.5,59,200.5
5485,G3,1153.167,0.5,59,200.5
5486,C7,1153.302,0.5,72,200.5
5487,C6,1153.302,0.5,72,200.5
5488,C4,1153.667,0.5,56,200.5
5489,G6,1153.802,0.5,64,200.5
5490,E4,1154.167,0.5,56,200.5
5491,E6,1154.302,0.5,64,200.5
5492,G4,1154.667,0.25,72,200.5
5493,G5,1154.802,0.5,69,200.5
5494,G6,1154.802,0.5,69,200.5
5495,E6,1155.302,0.5,64,200.5
5496,C6,1155.802,0.5,64,200.5
5497,G5,1156.302,0.25,77,200.5
5498,G2,1157.5,167/1000,64,200.5
5499,B2,1157.5,167/1000,64,200.5
5500,D3,1157.583,83/1000,64,200.5
5501,F3,1157.583,83/1000,64,200.5
5502,G3,1157.667,0.25,76,200.5
5503,G2,1157.667,26/125,64,200.5
5504,B2,1157.667,26/125,64,200.5
5505,D3,1157.667,26/125,64,200.5
5506,F3,1157.667,26/125,64,200.5
5507,E6,1157.802,0.25,68,200.5
5508,G6,1157.802,0.25,68,200.5
5509,C6,1157.802,0.25,68,200.5
5510,G5,1157.802,0.25,68,200.5
5511,C2,1160.667,0.5,56,200.5
5512,D6,1160.802,0.25,76,200.5
5513,B6,1160.802,0.25,76,200.5
5514,F6,1160.802,0.25,76,200.5
5515,B5,1160.802,0.25,76,200.5
5516,G2,1161.167,0.5,44,200.5
5517,C3,1161.667,0.5,49,200.5
5518,C2,1162.167,0.5,57,200.5
5519,C6,1162.302,0.25,81,200.5
5520,C7,1162.302,0.25,81,200.5
5521,E6,1162.302,0.25,81,200.5
5522,G2,1162.667,0.5,47,200.5
5523,C3,1163.167,0.5,48,200.5
5524,C4,1163.302,0.25,50,200.5
5525,E4,1163.302,0.25,50,200.5
5526,C2,1163.667,0.5,63,200.5
5527,E4,1163.802,0.5,56,200.5
5528,C4,1163.802,0.5,56,200.5
5529,G2,1164.167,0.5,51,200.5
5530,D4,1164.302,0.5,52,200.5
5531,F4,1164.302,0.5,52,200.5
5532,C3,1164.667,0.5,53,200.5
5533,G4,1164.802,0.5,54,200.5
5534,E4,1164.802,0.5,54,200.5
5535,C2,1165.167,0.5,69,200.5
5536,F4,1165.302,0.5,62,200.5
5537,A4,1165.302,0.5,62,200.5
5538,G2,1165.667,0.5,56,200.5
5539,E4,1165.802,0.5,57,200.5
5540,G4,1165.802,0.5,57,200.5
5541,C3,1166.167,0.5,57,200.5
5542,F4,1166.302,0.5,59,200.5
5543,A4,1166.302,0.5,59,200.5
5544,C2,1166.667,0.5,56,200.5
5545,G4,1166.802,0.5,68,200.5
5546,B4,1166.802,0.5,68,200.5
5547,G2,1167.167,0.5,44,200.5
5548,A4,1167.302,0.5,62,200.5
5549,C5,1167.302,0.5,62,200.5
5550,C3,1167.667,0.5,49,200.5
5551,B4,1167.802,0.5,71,200.5
5552,D5,1167.802,0.5,71,200.5
5553,C2,1168.167,0.5,57,200.5
5554,E5,1168.302,0.25,81,200.5
5555,E6,1168.302,0.25,81,200.5
5556,C6,1168.302,0.25,81,200.5
5557,G2,1168.667,0.5,47,200.5
5558,C3,1169.167,0.5,48,200.5
5559,E4,1169.302,0.25,50,200.5
5560,G4,1169.302,0.25,50,200.5
5561,C2,1169.667,0.5,63,200.5
5562,G4,1169.802,0.5,56,200.5
5563,E4,1169.802,0.5,56,200.5
5564,G2,1170.167,0.5,51,200.5
5565,F4,1170.302,0.5,52,200.5
5566,A4,1170.302,0.5,52,200.5
5567,C3,1170.667,0.5,53,200.5
5568,B4,1170.802,0.5,54,200.5
5569,G4,1170.802,0.5,54,200.5
5570,C2,1171.167,0.5,69,200.5
5571,A4,1171.302,0.5,62,200.5
5572,C5,1171.302,0.5,62,200.5
5573,G2,1171.667,0.5,56,200.5
5574,G4,1171.802,0.5,57,200.5
5575,B4,1171.802,0.5,57,200.5
5576,C3,1172.167,0.5,57,200.5
5577,A4,1172.302,0.5,59,200.5
5578,C5,1172.302,0.5,59,200.5
5579,C2,1172.667,0.5,56,200.5
5580,B4,1172.802,0.5,68,200.5
5581,D5,1172.802,0.5,68,200.5
5582,G2,1173.167,0.5,44,200.5
5583,C5,1173.302,0.5,62,200.5
5584,E5,1173.302,0.5,62,200.5
5585,C3,1173.667,0.5,49,200.5
5586,D5,1173.802,0.5,71,200.5
5587,F5,1173.802,0.5,71,200.5
5588,C2,1174.167,0.5,57,200.5
5589,G5,1174.302,0.25,81,200.5
5590,G6,1174.302,0.25,81,200.5
5591,E6,1174.302,0.25,81,200.5
5592,G2,1174.667,0.5,47,200.5
5593,C3,1175.167,0.5,48,200.5
5594,B4,1175.302,0.25,48,200.5
5595,G5,1175.302,0.25,48,200.5
5596,B5,1175.302,0.25,48,200.5
5597,C2,1175.667,0.5,63,200.5
5598,B4,1175.802,0.25,54,200.5
5599,B5,1175.802,0.25,54,200.5
5600,G5,1175.802,0.25,54,200.5
5601,G2,1176.167,0.5,51,200.5
5602,C5,1176.302,0.25,51,200.5
5603,A5,1176.302,0.25,51,200.5
5604,C6,1176.302,0.25,51,200.5
5605,C3,1176.667,0.5,53,200.5
5606,D5,1176.802,0.25,52,200.5
5607,D6,1176.802,0.25,52,200.5
5608,B5,1176.802,0.25,52,200.5
5609,C2,1177.167,0.5,69,200.5
5610,E5,1177.302,0.25,60,200.5
5611,C6,1177.302,0.25,60,200.5
5612,E6,1177.302,0.25,60,200.5
5613,G2,1177.667,0.5,56,200.5
5614,D5,1177.802,0.25,55,200.5
5615,B5,1177.802,0.25,55,200.5
5616,D6,1177.802,0.25,55,200.5
5617,C3,1178.167,0.5,57,200.5
5618,E5,1178.302,0.25,57,200.5
5619,C6,1178.302,0.25,57,200.5
5620,E6,1178.302,0.25,57,200.5
5621,E1,1178.667,0.25,66,200.5
5622,E2,1178.667,0.25,66,200.5
5623,F5,1178.802,0.25,66,200.5
5624,D6,1178.802,0.25,66,200.5
5625,F6,1178.802,0.25,66,200.5
5626,G5,1179.302,0.25,60,200.5
5627,E6,1179.302,0.25,60,200.5
5628,G6,1179.302,0.25,60,200.5
5629,A5,1179.802,0.25,69,200.5
5630,F6,1179.802,0.25,69,200.5
5631,A6,1179.802,0.25,69,200.5
5632,F1,1180.167,0.25,66,200.5
5633,F2,1180.167,0.25,66,200.5
5634,B5,1180.302,0.25,75,200.5
5635,G6,1180.302,0.25,75,200.5
5636,B6,1180.302,0.25,75,200.5
5637,C2,1181.667,0.25,66,200.5
5638,C3,1181.667,0.25,66,200.5
5639,A5,1181.802,0.25,75,200.5
5640,C6,1181.802,0.25,75,200.5
5641,F6,1181.802,0.25,75,200.5
5642,A6,1181.802,0.25,75,200.5
5643,E2,1183.167,0.25,66,200.5
5644,E3,1183.167,0.25,66,200.5
5645,G6,1183.302,0.25,75,200.5
5646,E6,1183.302,0.25,75,200.5
5647,C6,1183.302,0.25,75,200.5
5648,G5,1183.302,0.25,75,200.5
5649,A2,1184.479,0.188,62,200.5
5650,E3,1184.542,0.125,62,200.5
5651,A3,1184.604,0.062,62,200.5
5652,C4,1184.667,0.25,69,200.5
5653,A2,1184.667,0.25,62,200.5
5654,E3,1184.667,0.25,62,200.5
5655,A3,1184.667,0.25,62,200.5
5656,E5,1184.802,0.25,75,200.5
5657,G5,1184.802,0.25,75,200.5
5658,B5,1184.802,0.25,75,200.5
5659,E6,1184.802,0.25,75,200.5
5660,C6,1186.302,0.25,75,200.5
5661,A5,1186.302,0.25,75,200.5
5662,E5,1186.302,0.25,75,200.5
5663,C5,1186.302,0.25,75,200.5
5664,G2,1187.417,0.25,62,200.5
5665,D3,1187.479,0.188,62,200.5
5666,G3,1187.542,0.125,62,200.5
5667,B3,1187.604,0.062,62,200.5
5668,D4,1187.667,0.25,69,200.5
5669,G2,1187.667,0.25,62,200.5
5670,D3,1187.667,0.25,62,200.5
5671,G3,1187.667,0.25,62,200.5
5672,B3,1187.667,0.25,62,200.5
5673,D5,1189.302,0.25,75,200.5
5674,G5,1189.302,0.25,75,200.5
5675,B5,1189.302,0.25,75,200.5
5676,D6,1189.302,0.25,75,200.5
5677,C2,1190.042,0.125,60,200.5
5678,G2,1190.167,0.125,63,200.5
5679,C3,1190.292,0.125,63,200.5
5680,G3,1190.667,3.0,64,200.5
5681,C4,1190.667,3.0,64,200.5
5682,E4,1190.667,3.0,64,200.5
5683,G4,1190.667,3.0,64,200.5
5684,E5,1192.052,0.125,76,200.5
5685,G5,1192.052,0.125,76,200.5
5686,C6,1192.052,0.125,76,200.5
5687,E6,1192.052,0.125,76,200.5
5688,E5,1192.302,3.0,75,200.5
5689,G5,1192.302,3.0,75,200.5
5690,C6,1192.302,3.0,75,200.5
5691,E6,1192.302,3.0,75,200.5
