,note_name,start_time,duration,velocity,tempo
0,E3,0.0,0.5,76,145.53
1,E2,0.0,0.5,56,145.53
2,E1,0.0,0.5,56,145.53
3,E3,1.5,1.5,47,145.53
4,D5,1.5,1.5,67,145.53
5,D6,1.5,1.5,67,145.53
6,B5,1.5,1.5,67,145.53
7,B3,1.5,1.5,52,145.53
8,D4,1.5,1.5,52,145.53
9,E3,3.0,3.0,47,145.53
10,A5,3.0,1.5,69,145.53
11,C6,3.0,1.5,69,145.53
12,C5,3.0,1.5,69,145.53
13,C4,3.0,1.5,52,145.53
14,A3,3.0,1.5,52,145.53
15,F#5,4.5,1.5,67,145.53
16,A4,4.5,1.5,67,145.53
17,A5,4.5,1.5,67,145.53
18,A3,4.5,1.5,52,145.53
19,F#3,4.5,1.5,52,145.53
20,E3,6.0,229/500,47,145.53
21,B5,6.0,0.25,63,145.53
22,B4,6.0,0.25,63,145.53
23,G5,6.0,0.25,63,145.53
24,B3,6.0,0.25,52,145.53
25,G3,6.0,0.25,52,145.53
26,G4,6.5,0.25,55,145.53
27,E5,6.5,0.25,55,145.53
28,G5,6.5,0.25,55,145.53
29,G3,6.5,0.25,48,145.53
30,E3,6.5,0.25,48,145.53
31,A5,7.0,0.25,60,145.53
32,F#5,7.0,0.25,60,145.53
33,A4,7.0,0.25,60,145.53
34,A3,7.0,0.25,52,145.53
35,F#3,7.0,0.25,52,145.53
36,F#5,7.5,0.25,56,145.53
37,E-5,7.5,0.25,56,145.53
38,F#4,7.5,0.25,56,145.53
39,E-3,7.5,0.25,46,145.53
40,F#3,7.5,0.25,46,145.53
41,G5,8.0,0.25,63,145.53
42,E5,8.0,0.25,63,145.53
43,G4,8.0,0.25,63,145.53
44,E3,8.0,0.25,52,145.53
45,G3,8.0,0.25,52,145.53
46,E4,8.5,0.25,57,145.53
47,E5,8.5,0.25,57,145.53
48,C#5,8.5,0.25,57,145.53
49,E3,8.5,0.25,48,145.53
50,C#3,8.5,0.25,48,145.53
51,F#5,9.0,0.25,63,145.53
52,F#4,9.0,0.25,63,145.53
53,E-5,9.0,0.25,63,145.53
54,E-3,9.0,0.25,52,145.53
55,F#3,9.0,0.25,52,145.53
56,F#4,10.0,0.25,62,145.53
57,F#5,10.0,0.25,62,145.53
58,E-5,10.0,0.25,62,145.53
59,B3,10.5,1.5,62,145.53
60,B2,10.5,1.5,62,145.53
61,B3,12.0,0.5,62,145.53
62,B2,12.0,0.5,62,145.53
63,C#3,12.5,0.25,49,145.53
64,C#5,12.5,0.25,57,145.53
65,C#4,12.5,0.25,57,145.53
66,E-3,13.0,0.25,50,145.53
67,E-4,13.0,0.25,59,145.53
68,E-5,13.0,0.25,59,145.53
69,E3,13.5,0.25,52,145.53
70,E4,13.5,0.25,61,145.53
71,E5,13.5,0.25,61,145.53
72,F#3,14.0,0.25,53,145.53
73,F#4,14.0,0.25,62,145.53
74,F#5,14.0,0.25,62,145.53
75,G3,14.5,0.25,54,145.53
76,G4,14.5,0.25,64,145.53
77,G5,14.5,0.25,64,145.53
78,F#4,15.0,0.25,63,145.53
79,F#5,15.0,0.25,63,145.53
80,E-5,15.0,0.25,63,145.53
81,E-3,15.0,0.25,52,145.53
82,F#3,15.0,0.25,52,145.53
83,B4,16.0,0.25,64,145.53
84,B5,16.0,0.25,64,145.53
85,B2,16.5,1.5,62,145.53
86,B3,16.5,1.5,62,145.53
87,B2,18.0,0.5,62,145.53
88,B3,18.0,0.5,62,145.53
89,C#3,18.5,0.25,49,145.53
90,C#5,18.5,0.25,57,145.53
91,C#4,18.5,0.25,57,145.53
92,E-3,19.0,0.25,50,145.53
93,E-4,19.0,0.25,59,145.53
94,E-5,19.0,0.25,59,145.53
95,E3,19.5,0.25,52,145.53
96,E4,19.5,0.25,61,145.53
97,E5,19.5,0.25,61,145.53
98,F#3,20.0,0.25,53,145.53
99,F#4,20.0,0.25,62,145.53
100,F#5,20.0,0.25,62,145.53
101,G3,20.5,0.25,54,145.53
102,G4,20.5,0.25,64,145.53
103,G5,20.5,0.25,64,145.53
104,A4,21.0,0.25,63,145.53
105,A5,21.0,0.25,63,145.53
106,F#5,21.0,0.25,63,145.53
107,F#3,21.0,0.25,52,145.53
108,A3,21.0,0.25,52,145.53
109,D5,22.0,0.25,64,145.53
110,D6,22.0,0.25,64,145.53
111,D3,22.5,1.0,62,145.53
112,D4,22.5,1.0,62,145.53
113,G3,24.0,0.5,76,145.53
114,G1,24.0,0.5,56,145.53
115,G2,24.0,0.5,56,145.53
116,G3,25.5,1.5,47,145.53
117,F6,25.5,1.5,67,145.53
118,A6,25.5,1.5,67,145.53
119,A5,25.5,1.5,67,145.53
120,A4,25.5,1.5,52,145.53
121,F4,25.5,1.5,52,145.53
122,G3,27.0,3.0,47,145.53
123,G6,27.0,1.5,69,145.53
124,E6,27.0,1.5,69,145.53
125,G5,27.0,1.5,69,145.53
126,E4,27.0,1.5,52,145.53
127,G4,27.0,1.5,52,145.53
128,C6,28.5,1.5,67,145.53
129,E5,28.5,1.5,67,145.53
130,E6,28.5,1.5,67,145.53
131,C4,28.5,1.5,52,145.53
132,E4,28.5,1.5,52,145.53
133,G3,30.0,229/500,47,145.53
134,D6,30.0,0.25,63,145.53
135,F6,30.0,0.25,63,145.53
136,F5,30.0,0.25,63,145.53
137,F4,30.0,0.25,52,145.53
138,D4,30.0,0.25,52,145.53
139,D6,30.5,0.25,55,145.53
140,B5,30.5,0.25,55,145.53
141,D5,30.5,0.25,55,145.53
142,B3,30.5,0.25,48,145.53
143,D4,30.5,0.25,48,145.53
144,C6,31.0,0.25,60,145.53
145,E5,31.0,0.25,60,145.53
146,E6,31.0,0.25,60,145.53
147,C4,31.0,0.25,52,145.53
148,E4,31.0,0.25,52,145.53
149,A5,31.5,0.25,56,145.53
150,C6,31.5,0.25,56,145.53
151,C5,31.5,0.25,56,145.53
152,C4,31.5,0.25,46,145.53
153,A3,31.5,0.25,46,145.53
154,D5,32.0,0.25,63,145.53
155,D6,32.0,0.25,63,145.53
156,B5,32.0,0.25,63,145.53
157,B3,32.0,0.25,52,145.53
158,D4,32.0,0.25,52,145.53
159,B4,32.5,0.25,57,145.53
160,B5,32.5,0.25,57,145.53
161,G5,32.5,0.25,57,145.53
162,B3,32.5,0.25,48,145.53
163,G3,32.5,0.25,48,145.53
164,A5,33.0,0.25,63,145.53
165,C5,33.0,0.25,63,145.53
166,C6,33.0,0.25,63,145.53
167,A3,33.0,0.25,52,145.53
168,C4,33.0,0.25,52,145.53
169,A5,34.0,0.25,62,145.53
170,C5,34.0,0.25,62,145.53
171,C6,34.0,0.25,62,145.53
172,C4,34.0,0.25,48,145.53
173,A3,34.0,0.25,48,145.53
174,A4,34.5,1.5,63,145.53
175,A5,34.5,1.5,63,145.53
176,F5,34.5,1.5,63,145.53
177,A3,34.5,1.5,62,145.53
178,F3,34.5,1.5,62,145.53
179,E2,36.0,1.0,43,145.53
180,E3,36.0,1.0,43,145.53
181,G5,36.5,0.25,52,145.53
182,G4,36.5,0.25,52,145.53
183,B4,37.0,0.25,54,145.53
184,B5,37.0,0.25,54,145.53
185,C6,37.5,0.25,56,145.53
186,C5,37.5,0.25,56,145.53
187,G3,37.5,1.0,36,145.53
188,C4,37.5,1.0,36,145.53
189,E3,37.5,1.0,36,145.53
190,D5,38.0,0.25,57,145.53
191,D6,38.0,0.25,57,145.53
192,E5,38.5,0.25,59,145.53
193,E6,38.5,0.25,59,145.53
194,G5,38.875,0.125,60,145.53
195,C6,38.938,0.062,60,145.53
196,G6,39.0,0.25,70,145.53
197,G5,39.0,0.25,60,145.53
198,C6,39.0,0.25,60,145.53
199,D3,39.0,1.0,43,145.53
200,D2,39.0,1.0,43,145.53
201,F5,40.0,0.25,54,145.53
202,F6,40.0,0.25,54,145.53
203,C6,40.5,1.5,52,145.53
204,C5,40.5,1.5,52,145.53
205,D3,40.5,1.0,35,145.53
206,F3,40.5,1.0,35,145.53
207,A3,40.5,1.0,35,145.53
208,C4,40.5,1.0,35,145.53
209,C3,42.0,1.0,43,145.53
210,C2,42.0,1.0,43,145.53
211,A5,42.5,0.25,53,145.53
212,A4,42.5,0.25,53,145.53
213,B4,43.0,0.25,58,145.53
214,B5,43.0,0.25,58,145.53
215,C6,43.5,0.25,62,145.53
216,C5,43.5,0.25,62,145.53
217,C3,43.5,1.0,40,145.53
218,E3,43.5,1.0,40,145.53
219,C4,43.5,1.0,40,145.53
220,A3,43.5,1.0,40,145.53
221,D6,44.0,0.25,67,145.53
222,D5,44.0,0.25,67,145.53
223,E5,44.5,0.25,72,145.53
224,E6,44.5,0.25,72,145.53
225,G5,44.875,0.125,75,145.53
226,E-6,44.938,0.062,75,145.53
227,G6,45.0,0.25,87,145.53
228,G5,45.0,0.25,75,145.53
229,E-6,45.0,0.25,75,145.53
230,B2,45.0,1.0,54,145.53
231,B1,45.0,1.0,54,145.53
232,F#6,46.0,0.25,64,145.53
233,F#5,46.0,0.25,64,145.53
234,A4,46.5,1.5,62,145.53
235,A5,46.5,1.5,62,145.53
236,B3,46.5,1.0,42,145.53
237,F#3,46.5,1.0,42,145.53
238,E-4,46.5,1.0,42,145.53
239,E3,48.0,0.5,76,145.53
240,E1,48.0,0.5,56,145.53
241,E2,48.0,0.5,56,145.53
242,E3,49.5,1.5,47,145.53
243,B5,49.5,1.5,67,145.53
244,D6,49.5,1.5,67,145.53
245,D5,49.5,1.5,67,145.53
246,D4,49.5,1.5,52,145.53
247,B3,49.5,1.5,52,145.53
248,E3,51.0,3.0,47,145.53
249,C5,51.0,1.5,69,145.53
250,C6,51.0,1.5,69,145.53
251,A5,51.0,1.5,69,145.53
252,A3,51.0,1.5,52,145.53
253,C4,51.0,1.5,52,145.53
254,F#5,52.5,1.5,67,145.53
255,A4,52.5,1.5,67,145.53
256,A5,52.5,1.5,67,145.53
257,A3,52.5,1.5,52,145.53
258,F#3,52.5,1.5,52,145.53
259,E3,54.0,229/500,47,145.53
260,B5,54.0,0.25,63,145.53
261,B4,54.0,0.25,63,145.53
262,G5,54.0,0.25,63,145.53
263,B3,54.0,0.25,52,145.53
264,G3,54.0,0.25,52,145.53
265,E5,54.5,0.25,55,145.53
266,G5,54.5,0.25,55,145.53
267,G4,54.5,0.25,55,145.53
268,E3,54.5,0.25,48,145.53
269,G3,54.5,0.25,48,145.53
270,F#5,55.0,0.25,60,145.53
271,A4,55.0,0.25,60,145.53
272,A5,55.0,0.25,60,145.53
273,F#3,55.0,0.25,52,145.53
274,A3,55.0,0.25,52,145.53
275,E-5,55.5,0.25,56,145.53
276,F#5,55.5,0.25,56,145.53
277,F#4,55.5,0.25,56,145.53
278,F#3,55.5,0.25,46,145.53
279,E-3,55.5,0.25,46,145.53
280,G5,56.0,0.25,63,145.53
281,G4,56.0,0.25,63,145.53
282,E5,56.0,0.25,63,145.53
283,G3,56.0,0.25,52,145.53
284,E3,56.0,0.25,52,145.53
285,E4,56.5,0.25,57,145.53
286,C#5,56.5,0.25,57,145.53
287,E5,56.5,0.25,57,145.53
288,C#3,56.5,0.25,48,145.53
289,E3,56.5,0.25,48,145.53
290,E-5,57.0,0.25,63,145.53
291,F#4,57.0,0.25,63,145.53
292,F#5,57.0,0.25,63,145.53
293,F#3,57.0,0.25,52,145.53
294,E-3,57.0,0.25,52,145.53
295,F#4,58.0,0.25,62,145.53
296,E-5,58.0,0.25,62,145.53
297,F#5,58.0,0.25,62,145.53
298,B2,58.5,1.5,62,145.53
299,B3,58.5,1.5,62,145.53
300,B2,60.0,0.5,62,145.53
301,B3,60.0,0.5,62,145.53
302,C#3,60.5,0.25,49,145.53
303,C#4,60.5,0.25,57,145.53
304,C#5,60.5,0.25,57,145.53
305,E-3,61.0,0.25,50,145.53
306,E-5,61.0,0.25,59,145.53
307,E-4,61.0,0.25,59,145.53
308,E3,61.5,0.25,52,145.53
309,E5,61.5,0.25,61,145.53
310,E4,61.5,0.25,61,145.53
311,F#3,62.0,0.25,53,145.53
312,F#4,62.0,0.25,62,145.53
313,F#5,62.0,0.25,62,145.53
314,G3,62.5,0.25,54,145.53
315,G5,62.5,0.25,64,145.53
316,G4,62.5,0.25,64,145.53
317,F#5,63.0,0.25,63,145.53
318,E-5,63.0,0.25,63,145.53
319,F#4,63.0,0.25,63,145.53
320,F#3,63.0,0.25,52,145.53
321,E-3,63.0,0.25,52,145.53
322,B5,64.0,0.25,64,145.53
323,B4,64.0,0.25,64,145.53
324,B2,64.5,1.5,62,145.53
325,B3,64.5,1.5,62,145.53
326,B2,66.0,0.5,62,145.53
327,B3,66.0,0.5,62,145.53
328,C#3,66.5,0.25,49,145.53
329,C#4,66.5,0.25,57,145.53
330,C#5,66.5,0.25,57,145.53
331,E-3,67.0,0.25,50,145.53
332,E-5,67.0,0.25,59,145.53
333,E-4,67.0,0.25,59,145.53
334,E3,67.5,0.25,52,145.53
335,E4,67.5,0.25,61,145.53
336,E5,67.5,0.25,61,145.53
337,F#3,68.0,0.25,53,145.53
338,F#5,68.0,0.25,62,145.53
339,F#4,68.0,0.25,62,145.53
340,G3,68.5,0.25,54,145.53
341,G4,68.5,0.25,64,145.53
342,G5,68.5,0.25,64,145.53
343,A4,69.0,0.25,63,145.53
344,F#5,69.0,0.25,63,145.53
345,A5,69.0,0.25,63,145.53
346,F#3,69.0,0.25,52,145.53
347,A3,69.0,0.25,52,145.53
348,D6,70.0,0.25,64,145.53
349,D5,70.0,0.25,64,145.53
350,D4,70.5,1.0,62,145.53
351,D3,70.5,1.0,62,145.53
352,G3,72.0,0.5,76,145.53
353,G1,72.0,0.5,56,145.53
354,G2,72.0,0.5,56,145.53
355,G3,73.5,1.5,47,145.53
356,F6,73.5,1.5,67,145.53
357,A5,73.5,1.5,67,145.53
358,A6,73.5,1.5,67,145.53
359,A4,73.5,1.5,52,145.53
360,F4,73.5,1.5,52,145.53
361,G3,75.0,3.0,47,145.53
362,E6,75.0,1.5,69,145.53
363,G6,75.0,1.5,69,145.53
364,G5,75.0,1.5,69,145.53
365,E4,75.0,1.5,52,145.53
366,G4,75.0,1.5,52,145.53
367,E6,76.5,1.5,67,145.53
368,E5,76.5,1.5,67,145.53
369,C6,76.5,1.5,67,145.53
370,E4,76.5,1.5,52,145.53
371,C4,76.5,1.5,52,145.53
372,G3,78.0,229/500,47,145.53
373,F6,78.0,0.25,63,145.53
374,F5,78.0,0.25,63,145.53
375,D6,78.0,0.25,63,145.53
376,D4,78.0,0.25,52,145.53
377,F4,78.0,0.25,52,145.53
378,D5,78.5,0.25,55,145.53
379,D6,78.5,0.25,55,145.53
380,B5,78.5,0.25,55,145.53
381,D4,78.5,0.25,48,145.53
382,B3,78.5,0.25,48,145.53
383,E5,79.0,0.25,60,145.53
384,E6,79.0,0.25,60,145.53
385,C6,79.0,0.25,60,145.53
386,C4,79.0,0.25,52,145.53
387,E4,79.0,0.25,52,145.53
388,C6,79.5,0.25,56,145.53
389,C5,79.5,0.25,56,145.53
390,A5,79.5,0.25,56,145.53
391,A3,79.5,0.25,46,145.53
392,C4,79.5,0.25,46,145.53
393,B5,80.0,0.25,63,145.53
394,D6,80.0,0.25,63,145.53
395,D5,80.0,0.25,63,145.53
396,B3,80.0,0.25,52,145.53
397,D4,80.0,0.25,52,145.53
398,B5,80.5,0.25,57,145.53
399,B4,80.5,0.25,57,145.53
400,G5,80.5,0.25,57,145.53
401,B3,80.5,0.25,48,145.53
402,G3,80.5,0.25,48,145.53
403,A5,81.0,0.25,63,145.53
404,C5,81.0,0.25,63,145.53
405,C6,81.0,0.25,63,145.53
406,A3,81.0,0.25,52,145.53
407,C4,81.0,0.25,52,145.53
408,C6,82.0,0.25,62,145.53
409,C5,82.0,0.25,62,145.53
410,A5,82.0,0.25,62,145.53
411,A3,82.0,0.25,48,145.53
412,C4,82.0,0.25,48,145.53
413,F5,82.5,1.5,63,145.53
414,A4,82.5,1.5,63,145.53
415,A5,82.5,1.5,63,145.53
416,F3,82.5,1.5,62,145.53
417,A3,82.5,1.5,62,145.53
418,E2,84.0,1.0,43,145.53
419,E3,84.0,1.0,43,145.53
420,G4,84.5,0.25,52,145.53
421,G5,84.5,0.25,52,145.53
422,B4,85.0,0.25,54,145.53
423,B5,85.0,0.25,54,145.53
424,C6,85.5,0.25,56,145.53
425,C5,85.5,0.25,56,145.53
426,G3,85.5,1.0,36,145.53
427,C4,85.5,1.0,36,145.53
428,E3,85.5,1.0,36,145.53
429,D6,86.0,0.25,57,145.53
430,D5,86.0,0.25,57,145.53
431,E5,86.5,0.25,59,145.53
432,E6,86.5,0.25,59,145.53
433,G5,86.875,0.125,60,145.53
434,C6,86.938,0.062,60,145.53
435,G6,87.0,0.25,70,145.53
436,G5,87.0,0.25,60,145.53
437,C6,87.0,0.25,60,145.53
438,D3,87.0,1.0,43,145.53
439,D2,87.0,1.0,43,145.53
440,F6,88.0,0.25,54,145.53
441,F5,88.0,0.25,54,145.53
442,C6,88.5,1.5,52,145.53
443,C5,88.5,1.5,52,145.53
444,F3,88.5,1.0,35,145.53
445,A3,88.5,1.0,35,145.53
446,D3,88.5,1.0,35,145.53
447,C4,88.5,1.0,35,145.53
448,C2,90.0,1.0,43,145.53
449,C3,90.0,1.0,43,145.53
450,A4,90.5,0.25,53,145.53
451,A5,90.5,0.25,53,145.53
452,B5,91.0,0.25,58,145.53
453,B4,91.0,0.25,58,145.53
454,C5,91.5,0.25,62,145.53
455,C6,91.5,0.25,62,145.53
456,A3,91.5,1.0,40,145.53
457,E3,91.5,1.0,40,145.53
458,C3,91.5,1.0,40,145.53
459,C4,91.5,1.0,40,145.53
460,D6,92.0,0.25,67,145.53
461,D5,92.0,0.25,67,145.53
462,E6,92.5,0.25,72,145.53
463,E5,92.5,0.25,72,145.53
464,G5,92.875,0.125,75,145.53
465,E-6,92.938,0.062,75,145.53
466,G6,93.0,0.25,87,145.53
467,G5,93.0,0.25,75,145.53
468,E-6,93.0,0.25,75,145.53
469,B2,93.0,1.0,54,145.53
470,B1,93.0,1.0,54,145.53
471,F#6,94.0,0.25,64,145.53
472,F#5,94.0,0.25,64,145.53
473,A4,94.5,1.5,62,145.53
474,A5,94.5,1.5,62,145.53
475,F#3,94.5,1.0,42,145.53
476,E-4,94.5,1.0,42,145.53
477,B3,94.5,1.0,42,145.53
478,C3,96.0,0.5,76,145.53
479,C1,96.0,0.5,56,145.53
480,C2,96.0,0.5,56,145.53
481,C2,97.5,1.5,44,145.53
482,G4,97.5,1.5,63,145.53
483,B-4,97.5,1.5,63,145.53
484,B-3,97.5,1.5,63,145.53
485,B-2,97.5,1.5,48,145.53
486,G2,97.5,1.5,48,145.53
487,C2,99.0,2.5,44,145.53
488,A3,99.0,1.5,65,145.53
489,A4,99.0,1.5,65,145.53
490,F4,99.0,1.5,65,145.53
491,A2,99.0,1.5,48,145.53
492,F2,99.0,1.5,48,145.53
493,D4,100.5,1.5,63,145.53
494,F4,100.5,1.5,63,145.53
495,F3,100.5,1.5,63,145.53
496,F2,100.5,1.5,48,145.53
497,D2,100.5,1.5,48,145.53
498,G3,102.0,0.25,59,145.53
499,G4,102.0,0.25,59,145.53
500,E4,102.0,0.25,59,145.53
501,E2,102.0,0.25,48,145.53
502,G2,102.0,0.25,48,145.53
503,C#2,102.5,0.25,49,145.53
504,E4,102.5,0.25,54,145.53
505,E3,102.5,0.25,54,145.53
506,D2,103.0,0.25,53,145.53
507,F4,103.0,0.25,59,145.53
508,F3,103.0,0.25,59,145.53
509,B1,103.5,0.25,47,145.53
510,D4,103.5,0.25,54,145.53
511,D3,103.5,0.25,54,145.53
512,C#2,104.0,0.25,53,145.53
513,E4,104.0,0.25,61,145.53
514,E3,104.0,0.25,61,145.53
515,A1,104.5,0.25,49,145.53
516,C#4,104.5,0.25,56,145.53
517,C#3,104.5,0.25,56,145.53
518,D2,105.0,0.25,53,145.53
519,D4,105.0,0.25,61,145.53
520,D3,105.0,0.25,61,145.53
521,D3,106.0,0.25,60,145.53
522,D4,106.0,0.25,60,145.53
523,D2,106.5,1.5,58,145.53
524,D1,106.5,1.5,58,145.53
525,E-3,108.0,0.5,76,145.53
526,E-2,108.0,0.5,56,145.53
527,E-1,108.0,0.5,56,145.53
528,E-2,109.5,1.5,44,145.53
529,C#5,109.5,1.5,63,145.53
530,B-4,109.5,1.5,63,145.53
531,C#4,109.5,1.5,63,145.53
532,B-2,109.5,1.5,48,145.53
533,C#3,109.5,1.5,48,145.53
534,E-2,111.0,2.5,44,145.53
535,C5,111.0,1.5,65,145.53
536,G#4,111.0,1.5,65,145.53
537,C4,111.0,1.5,65,145.53
538,C3,111.0,1.5,48,145.53
539,G#2,111.0,1.5,48,145.53
540,G#4,112.5,1.5,63,145.53
541,F4,112.5,1.5,63,145.53
542,G#3,112.5,1.5,63,145.53
543,G#2,112.5,1.5,48,145.53
544,F2,112.5,1.5,48,145.53
545,B-3,114.0,0.25,59,145.53
546,G4,114.0,0.25,59,145.53
547,B-4,114.0,0.25,59,145.53
548,B-2,114.0,0.25,48,145.53
549,G2,114.0,0.25,48,145.53
550,E2,114.5,0.25,49,145.53
551,G4,114.5,0.25,54,145.53
552,G3,114.5,0.25,54,145.53
553,F2,115.0,0.25,53,145.53
554,G#4,115.0,0.25,59,145.53
555,G#3,115.0,0.25,59,145.53
556,D2,115.5,0.25,47,145.53
557,F4,115.5,0.25,54,145.53
558,F3,115.5,0.25,54,145.53
559,E2,116.0,0.25,53,145.53
560,G4,116.0,0.25,61,145.53
561,G3,116.0,0.25,61,145.53
562,C2,116.5,0.25,49,145.53
563,E4,116.5,0.25,56,145.53
564,E3,116.5,0.25,56,145.53
565,F2,117.0,0.25,53,145.53
566,F3,117.0,0.25,61,145.53
567,F4,117.0,0.25,61,145.53
568,F3,118.0,0.25,60,145.53
569,F4,118.0,0.25,60,145.53
570,F2,118.5,1.5,58,145.53
571,F1,118.5,1.5,58,145.53
572,F#3,120.0,0.5,76,145.53
573,F#2,120.0,0.5,56,145.53
574,F#1,120.0,0.5,56,145.53
575,F#3,121.5,1.5,50,145.53
576,E5,121.5,1.5,72,145.53
577,E6,121.5,1.5,72,145.53
578,C#6,121.5,1.5,72,145.53
579,C#4,121.5,1.5,55,145.53
580,E4,121.5,1.5,55,145.53
581,F#3,123.0,2.5,50,145.53
582,B5,123.0,1.5,75,145.53
583,E-6,123.0,1.5,75,145.53
584,E-5,123.0,1.5,75,145.53
585,E-4,123.0,1.5,55,145.53
586,B3,123.0,1.5,55,145.53
587,B4,124.5,1.5,72,145.53
588,B5,124.5,1.5,72,145.53
589,G#5,124.5,1.5,72,145.53
590,B3,124.5,1.5,55,145.53
591,G#3,124.5,1.5,55,145.53
592,F#2,126.0,3.0,36,145.53
593,E4,127.5,1.5,42,145.53
594,G3,127.5,1.5,31,145.53
595,D4,129.0,1.5,41,145.53
596,F#3,129.0,1.5,31,145.53
597,F#2,129.0,3.0,36,145.53
598,B3,130.5,1.5,42,145.53
599,D3,130.5,1.5,31,145.53
600,F#3,132.0,0.5,91,145.53
601,F#1,132.0,0.5,67,145.53
602,F#2,132.0,0.5,67,145.53
603,F#3,133.0,1979/1000,39,145.53
604,E6,133.0,0.5,69,145.53
605,C#6,133.0,0.5,69,145.53
606,E5,133.0,0.5,69,145.53
607,C#4,133.0,0.5,53,145.53
608,E4,133.0,0.5,53,145.53
609,B5,133.5,1.0,75,145.53
610,E-5,133.5,1.0,75,145.53
611,E-6,133.5,1.0,75,145.53
612,E-4,133.5,1.0,53,145.53
613,B3,133.5,1.0,53,145.53
614,B4,134.5,0.5,69,145.53
615,B5,134.5,0.5,69,145.53
616,G#5,134.5,0.5,69,145.53
617,B3,134.5,0.5,53,145.53
618,G#3,134.5,0.5,53,145.53
619,F#3,135.0,3.0,73,145.53
620,G#6,136.0,0.5,69,145.53
621,G#5,136.0,0.5,69,145.53
622,E6,136.0,0.5,69,145.53
623,E4,136.0,0.5,53,145.53
624,G#4,136.0,0.5,53,145.53
625,F#6,136.5,1.0,75,145.53
626,E-6,136.5,1.0,75,145.53
627,F#5,136.5,1.0,75,145.53
628,F#4,136.5,1.0,53,145.53
629,E-4,136.5,1.0,53,145.53
630,E-5,137.5,0.5,69,145.53
631,E-6,137.5,0.5,69,145.53
632,B5,137.5,0.5,69,145.53
633,E-4,137.5,0.5,53,145.53
634,B3,137.5,0.5,53,145.53
635,F#2,138.0,3.0,44,145.53
636,E4,139.0,0.5,42,145.53
637,G3,139.0,0.5,31,145.53
638,D4,139.5,1.0,41,145.53
639,F#3,139.5,1.0,31,145.53
640,B3,140.5,0.5,42,145.53
641,D3,140.5,0.5,31,145.53
642,F#2,141.0,3.0,36,145.53
643,C#4,142.0,0.5,42,145.53
644,E3,142.0,0.5,31,145.53
645,B3,142.5,1.0,41,145.53
646,D3,142.5,1.0,27,145.53
647,G3,143.5,0.5,42,145.53
648,B2,143.5,0.5,29,145.53
649,F#3,144.0,1.0,41,145.53
650,F#2,144.0,0.25,33,145.53
651,B1,144.5,0.25,27,145.53
652,F#2,145.0,0.25,32,145.53
653,B1,145.5,0.25,26,145.53
654,F#2,146.0,0.25,31,145.53
655,B1,146.5,0.25,27,145.53
656,F#2,147.0,0.25,29,145.53
657,B1,147.5,0.25,26,145.53
658,F#2,148.0,0.25,31,145.53
659,F#4,148.5,0.25,23,145.53
660,E4,148.5,0.25,23,145.53
661,B-3,148.5,0.25,23,145.53
662,C#4,148.5,0.25,23,145.53
663,C#4,149.0,0.25,26,145.53
664,B-3,149.0,0.25,26,145.53
665,E4,149.0,0.25,26,145.53
666,F#4,149.0,0.25,26,145.53
667,B-3,149.5,0.25,23,145.53
668,F#4,149.5,0.25,23,145.53
669,C#4,149.5,0.25,23,145.53
670,E4,149.5,0.25,23,145.53
671,F#2,150.0,0.25,32,145.53
672,F#4,150.0,0.25,30,145.53
673,B3,150.0,0.25,30,145.53
674,E-4,150.0,0.25,30,145.53
675,B1,150.5,0.25,25,145.53
676,F#2,151.0,0.25,29,145.53
677,C#4,151.5,0.25,23,145.53
678,E3,151.5,0.25,23,145.53
679,F#3,151.5,0.25,23,145.53
680,B-3,151.5,0.25,23,145.53
681,E3,152.0,0.25,26,145.53
682,F#3,152.0,0.25,26,145.53
683,B-3,152.0,0.25,26,145.53
684,E-4,152.0,0.25,26,145.53
685,E3,152.5,0.25,23,145.53
686,F#3,152.5,0.25,23,145.53
687,B-3,152.5,0.25,23,145.53
688,C#4,152.5,0.25,23,145.53
689,F#2,153.0,0.25,32,145.53
690,E-3,153.0,0.25,30,145.53
691,F#3,153.0,0.25,30,145.53
692,B3,153.0,0.25,30,145.53
693,B1,153.5,0.25,24,145.53
694,F#2,154.0,0.25,30,145.53
695,B-3,154.5,0.25,23,145.53
696,F#4,154.5,0.25,23,145.53
697,C#4,154.5,0.25,23,145.53
698,E4,154.5,0.25,23,145.53
699,B-3,155.0,0.25,26,145.53
700,C#4,155.0,0.25,26,145.53
701,E4,155.0,0.25,26,145.53
702,F#4,155.0,0.25,26,145.53
703,C#4,155.5,0.25,23,145.53
704,F#4,155.5,0.25,23,145.53
705,E4,155.5,0.25,23,145.53
706,B-3,155.5,0.25,23,145.53
707,F#2,156.0,0.25,33,145.53
708,F#4,156.0,0.25,30,145.53
709,E-4,156.0,0.25,30,145.53
710,B3,156.0,0.25,30,145.53
711,B1,156.5,0.25,27,145.53
712,F#2,157.0,0.25,32,145.53
713,B-3,157.5,0.25,23,145.53
714,C#4,157.5,0.25,23,145.53
715,E3,157.5,0.25,23,145.53
716,F#3,157.5,0.25,23,145.53
717,B-3,158.0,0.25,26,145.53
718,E3,158.0,0.25,26,145.53
719,F#3,158.0,0.25,26,145.53
720,E-4,158.0,0.25,26,145.53
721,B-3,158.5,0.25,23,145.53
722,E3,158.5,0.25,23,145.53
723,C#4,158.5,0.25,23,145.53
724,F#3,158.5,0.25,23,145.53
725,F#2,159.0,0.25,32,145.53
726,F#3,159.0,0.25,30,145.53
727,B3,159.0,0.25,30,145.53
728,E-3,159.0,0.25,30,145.53
729,B1,159.5,0.25,28,145.53
730,F#2,160.0,0.25,34,145.53
731,F#4,160.5,0.25,24,145.53
732,C4,160.5,0.25,24,145.53
733,E-4,160.5,0.25,24,145.53
734,G#4,160.5,0.25,24,145.53
735,F#4,161.0,0.25,28,145.53
736,G#4,161.0,0.25,28,145.53
737,E-4,161.0,0.25,28,145.53
738,C4,161.0,0.25,28,145.53
739,E-4,161.5,0.25,26,145.53
740,C4,161.5,0.25,26,145.53
741,F#4,161.5,0.25,26,145.53
742,G#4,161.5,0.25,26,145.53
743,F#2,162.0,0.25,37,145.53
744,E4,162.0,0.25,34,145.53
745,C#4,162.0,0.25,34,145.53
746,G#4,162.0,0.25,34,145.53
747,B1,162.5,0.25,30,145.53
748,F#2,163.0,0.25,39,145.53
749,B-3,163.5,0.25,28,145.53
750,C#4,163.5,0.25,28,145.53
751,E4,163.5,0.25,28,145.53
752,F#4,163.5,0.25,28,145.53
753,B-3,164.0,0.25,34,145.53
754,E-4,164.0,0.25,34,145.53
755,E4,164.0,0.25,34,145.53
756,F#4,164.0,0.25,34,145.53
757,E4,164.5,0.25,30,145.53
758,F#4,164.5,0.25,30,145.53
759,B-3,164.5,0.25,30,145.53
760,C#4,164.5,0.25,30,145.53
761,B1,165.0,0.25,45,145.53
762,B3,165.0,0.25,39,145.53
763,E-4,165.0,0.25,39,145.53
764,F#4,165.0,0.25,39,145.53
765,F#2,165.5,0.25,35,145.53
766,B1,166.0,0.25,45,145.53
767,F#2,166.5,0.25,41,145.53
768,E-4,166.5,0.25,32,145.53
769,A4,166.5,0.25,32,145.53
770,B4,166.5,0.25,32,145.53
771,F#4,166.5,0.25,32,145.53
772,E-4,167.0,0.25,38,145.53
773,F#4,167.0,0.25,38,145.53
774,A4,167.0,0.25,38,145.53
775,B4,167.0,0.25,38,145.53
776,E-4,167.5,0.25,34,145.53
777,F#4,167.5,0.25,34,145.53
778,A4,167.5,0.25,34,145.53
779,B4,167.5,0.25,34,145.53
780,B1,168.0,0.25,51,145.53
781,E4,168.0,0.25,44,145.53
782,B4,168.0,0.25,44,145.53
783,G#4,168.0,0.25,44,145.53
784,F#2,168.5,0.25,39,145.53
785,B1,169.0,0.25,51,145.53
786,F#2,169.5,0.25,46,145.53
787,C#5,169.5,0.25,41,145.53
788,F4,169.5,0.25,41,145.53
789,G#4,169.5,0.25,41,145.53
790,B4,169.5,0.25,41,145.53
791,C#5,170.0,0.25,48,145.53
792,B4,170.0,0.25,48,145.53
793,G#4,170.0,0.25,48,145.53
794,F4,170.0,0.25,48,145.53
795,G#4,170.5,0.25,43,145.53
796,F4,170.5,0.25,43,145.53
797,C#5,170.5,0.25,43,145.53
798,B4,170.5,0.25,43,145.53
799,B1,171.0,0.25,64,145.53
800,B-4,171.0,0.25,56,145.53
801,F#4,171.0,0.25,56,145.53
802,C#5,171.0,0.25,56,145.53
803,F#2,171.5,0.25,53,145.53
804,B1,172.0,0.25,58,145.53
805,F#2,172.5,0.25,53,145.53
806,C#6,172.5,0.25,58,145.53
807,F#6,172.5,0.25,58,145.53
808,B-5,172.5,0.25,58,145.53
809,E5,172.5,0.25,58,145.53
810,E5,173.0,0.25,65,145.53
811,F#6,173.0,0.25,65,145.53
812,C#6,173.0,0.25,65,145.53
813,B-5,173.0,0.25,65,145.53
814,B-5,173.5,0.25,60,145.53
815,E5,173.5,0.25,60,145.53
816,F#6,173.5,0.25,60,145.53
817,C#6,173.5,0.25,60,145.53
818,E5,174.0,0.25,58,145.53
819,C#6,174.0,0.25,58,145.53
820,B-5,174.0,0.25,58,145.53
821,F#6,174.0,0.25,58,145.53
822,B1,174.0,0.25,56,145.53
823,B2,174.0,0.25,56,145.53
824,E5,174.5,0.25,65,145.53
825,C#6,174.5,0.25,65,145.53
826,F#6,174.5,0.25,65,145.53
827,B-5,174.5,0.25,65,145.53
828,F#3,174.5,0.25,49,145.53
829,F#2,174.5,0.25,49,145.53
830,C#6,175.0,0.25,60,145.53
831,B-5,175.0,0.25,60,145.53
832,E5,175.0,0.25,60,145.53
833,F#6,175.0,0.25,60,145.53
834,B2,175.0,0.25,56,145.53
835,B1,175.0,0.25,56,145.53
836,C#6,175.5,0.25,58,145.53
837,E5,175.5,0.25,58,145.53
838,F#6,175.5,0.25,58,145.53
839,B-5,175.5,0.25,58,145.53
840,F#3,175.5,0.25,49,145.53
841,F#2,175.5,0.25,49,145.53
842,E5,176.0,0.25,65,145.53
843,B-5,176.0,0.25,65,145.53
844,F#6,176.0,0.25,65,145.53
845,C#6,176.0,0.25,65,145.53
846,B1,176.0,0.25,57,145.53
847,B2,176.0,0.25,57,145.53
848,B-5,176.5,0.25,60,145.53
849,F#6,176.5,0.25,60,145.53
850,E5,176.5,0.25,60,145.53
851,C#6,176.5,0.25,60,145.53
852,F#2,176.5,0.25,49,145.53
853,F#3,176.5,0.25,49,145.53
854,B5,177.0,0.25,71,145.53
855,E-5,177.0,0.25,71,145.53
856,E-6,177.0,0.25,71,145.53
857,B2,177.0,0.25,57,145.53
858,B1,177.0,0.25,57,145.53
859,B3,178.0,0.25,54,145.53
860,B4,178.0,0.25,66,145.53
861,B5,178.0,0.25,66,145.53
862,F#3,178.5,0.25,58,145.53
863,F#5,178.5,0.25,73,145.53
864,F#4,178.5,0.25,73,145.53
865,E-3,179.5,0.25,54,145.53
866,E-5,179.5,0.25,66,145.53
867,E-4,179.5,0.25,66,145.53
868,B4,180.0,0.25,79,145.53
869,B3,180.0,0.25,56,145.53
870,B2,180.0,0.25,56,145.53
871,G4,181.0,0.25,73,145.53
872,G3,181.0,0.25,50,145.53
873,G2,181.0,0.25,50,145.53
874,B-5,181.5,0.25,58,145.53
875,C#6,181.5,0.25,58,145.53
876,E5,181.5,0.25,58,145.53
877,F#6,181.5,0.25,58,145.53
878,F#3,181.5,0.25,49,145.53
879,F#2,181.5,0.25,49,145.53
880,F#6,182.0,0.25,65,145.53
881,E5,182.0,0.25,65,145.53
882,B-5,182.0,0.25,65,145.53
883,C#6,182.0,0.25,65,145.53
884,B2,182.0,0.25,57,145.53
885,B1,182.0,0.25,57,145.53
886,E5,182.5,0.25,60,145.53
887,C#6,182.5,0.25,60,145.53
888,B-5,182.5,0.25,60,145.53
889,F#6,182.5,0.25,60,145.53
890,F#2,182.5,0.25,49,145.53
891,F#3,182.5,0.25,49,145.53
892,B5,183.0,0.25,71,145.53
893,E-5,183.0,0.25,71,145.53
894,E-6,183.0,0.25,71,145.53
895,B2,183.0,0.25,57,145.53
896,B1,183.0,0.25,57,145.53
897,B3,184.0,0.25,54,145.53
898,B4,184.0,0.25,66,145.53
899,B5,184.0,0.25,66,145.53
900,F#3,184.5,0.25,58,145.53
901,F#4,184.5,0.25,73,145.53
902,F#5,184.5,0.25,73,145.53
903,E-3,185.5,0.25,54,145.53
904,E-4,185.5,0.25,66,145.53
905,E-5,185.5,0.25,66,145.53
906,B4,186.0,0.25,79,145.53
907,B2,186.0,0.25,56,145.53
908,B3,186.0,0.25,56,145.53
909,G4,187.0,0.25,73,145.53
910,G2,187.0,0.25,50,145.53
911,G3,187.0,0.25,50,145.53
912,E5,187.5,0.25,58,145.53
913,C#6,187.5,0.25,58,145.53
914,B-5,187.5,0.25,58,145.53
915,F#6,187.5,0.25,58,145.53
916,F#3,187.5,0.25,49,145.53
917,F#2,187.5,0.25,49,145.53
918,C#6,188.0,0.25,65,145.53
919,F#6,188.0,0.25,65,145.53
920,E5,188.0,0.25,65,145.53
921,B-5,188.0,0.25,65,145.53
922,B2,188.0,0.25,57,145.53
923,B1,188.0,0.25,57,145.53
924,C#6,188.5,0.25,60,145.53
925,E5,188.5,0.25,60,145.53
926,B-5,188.5,0.25,60,145.53
927,F#6,188.5,0.25,60,145.53
928,F#2,188.5,0.25,49,145.53
929,F#3,188.5,0.25,49,145.53
930,E-5,189.0,0.25,71,145.53
931,B5,189.0,0.25,71,145.53
932,E-6,189.0,0.25,71,145.53
933,B2,189.0,0.25,57,145.53
934,B1,189.0,0.25,57,145.53
935,B3,190.0,0.25,54,145.53
936,B5,190.0,0.25,66,145.53
937,B4,190.0,0.25,66,145.53
938,G3,190.5,0.25,58,145.53
939,G5,190.5,0.25,73,145.53
940,G4,190.5,0.25,73,145.53
941,E3,191.5,0.25,46,145.53
942,E5,191.5,0.25,64,145.53
943,E4,191.5,0.25,64,145.53
944,C5,192.0,0.25,69,145.53
945,C3,192.0,0.25,48,145.53
946,C4,192.0,0.25,48,145.53
947,A4,193.0,0.25,52,145.53
948,A2,193.0,0.25,36,145.53
949,A3,193.0,0.25,36,145.53
950,F#4,193.5,0.25,58,145.53
951,F#3,193.5,0.25,40,145.53
952,F#2,193.5,0.25,40,145.53
953,E-4,194.5,0.25,43,145.53
954,E-2,194.5,0.25,28,145.53
955,E-3,194.5,0.25,28,145.53
956,B3,195.0,0.25,45,145.53
957,B2,195.0,0.25,32,145.53
958,B1,195.0,0.25,32,145.53
959,G3,198.0,0.25,36,145.53
960,G1,198.0,0.25,25,145.53
961,G2,198.0,0.25,25,145.53
962,E3,201.0,0.25,36,145.53
963,E1,201.0,1.5,23,145.53
964,E2,201.0,0.5,27,145.53
965,G#1,202.5,1.5,23,145.53
966,D6,202.5,1.5,34,145.53
967,B5,202.5,1.5,34,145.53
968,A1,204.0,1.5,26,145.53
969,A5,204.0,1479/1000,36,145.53
970,C6,204.0,1479/1000,36,145.53
971,C2,205.5,1.5,22,145.53
972,A5,205.5,1.5,34,145.53
973,F#5,205.5,1.5,34,145.53
974,E2,207.0,1.5,26,145.53
975,B5,207.0,0.25,32,145.53
976,G5,207.0,0.25,32,145.53
977,E5,207.5,0.25,28,145.53
978,G5,207.5,0.25,28,145.53
979,F#5,208.0,0.25,31,145.53
980,A5,208.0,0.25,31,145.53
981,B-1,208.5,1.5,21,145.53
982,F#5,208.5,0.25,28,145.53
983,E-5,208.5,0.25,28,145.53
984,E5,209.0,0.25,32,145.53
985,G5,209.0,0.25,32,145.53
986,E5,209.5,0.25,30,145.53
987,C#5,209.5,0.25,30,145.53
988,B1,210.0,1.5,26,145.53
989,F#5,210.0,0.25,32,145.53
990,E-5,210.0,0.25,32,145.53
991,F#5,211.0,0.25,32,145.53
992,E-5,211.0,0.25,32,145.53
993,B4,211.5,1.5,34,145.53
994,B2,211.5,1.5,21,145.53
995,B4,213.0,0.5,34,145.53
996,G2,213.0,1.5,26,145.53
997,B-4,213.5,0.25,28,145.53
998,C#5,213.5,0.25,28,145.53
999,B4,214.0,0.25,30,145.53
1000,E-5,214.0,0.25,30,145.53
1001,E2,214.5,1.5,21,145.53
1002,C#5,214.5,0.25,30,145.53
1003,E5,214.5,0.25,30,145.53
1004,E-5,215.0,0.25,30,145.53
1005,F#5,215.0,0.25,30,145.53
1006,E5,215.5,0.25,32,145.53
1007,G5,215.5,0.25,32,145.53
1008,B1,216.0,1.5,26,145.53
1009,E-5,216.0,0.25,32,145.53
1010,F#5,216.0,0.25,32,145.53
1011,B5,217.0,0.25,34,145.53
1012,B4,217.5,1.5,34,145.53
1013,B2,217.5,1.5,21,145.53
1014,B4,219.0,0.5,34,145.53
1015,G2,219.0,1.5,26,145.53
1016,B-4,219.5,0.25,28,145.53
1017,C#5,219.5,0.25,28,145.53
1018,B4,220.0,0.25,30,145.53
1019,E-5,220.0,0.25,30,145.53
1020,E2,220.5,1.5,21,145.53
1021,C#5,220.5,0.25,30,145.53
1022,E5,220.5,0.25,30,145.53
1023,E-5,221.0,0.25,30,145.53
1024,F#5,221.0,0.25,30,145.53
1025,G5,221.5,0.25,32,145.53
1026,E5,221.5,0.25,32,145.53
1027,B-4,221.875,0.125,29,145.53
1028,C#5,221.938,0.062,29,145.53
1029,F#5,222.0,0.25,35,145.53
1030,B-4,222.0,0.25,29,145.53
1031,C#5,222.0,0.25,29,145.53
1032,F#2,222.0,1.5,26,145.53
1033,C#6,223.0,0.25,34,145.53
1034,C#2,223.5,1.5,21,145.53
1035,F#5,223.5,1.5,36,145.53
1036,B-5,223.5,1.5,36,145.53
1037,F#6,223.5,1.5,36,145.53
1038,F#4,225.0,0.25,32,145.53
1039,B-4,225.0,0.25,32,145.53
1040,B-3,225.0,0.5,20,145.53
1041,C#4,225.0,0.5,20,145.53
1042,F#3,225.0,0.5,20,145.53
1043,C#6,226.0,0.25,32,145.53
1044,C#2,226.5,1.5,19,145.53
1045,F#6,226.5,1.5,33,145.53
1046,B-5,226.5,1.5,33,145.53
1047,F#5,226.5,1.5,33,145.53
1048,F#4,228.0,0.25,28,145.53
1049,B-4,228.0,0.25,28,145.53
1050,C#4,228.0,0.5,17,145.53
1051,F#3,228.0,0.5,17,145.53
1052,B-3,228.0,0.5,17,145.53
1053,C#6,229.0,0.25,28,145.53
1054,C#2,229.5,1.5,17,145.53
1055,F#5,229.5,1.5,29,145.53
1056,B-5,229.5,1.5,29,145.53
1057,F#6,229.5,1.5,29,145.53
1058,C#2,231.0,3.0,17,145.53
1059,F#5,231.0,3.0,29,145.53
1060,B-5,231.0,3.0,29,145.53
1061,F#6,231.0,3.0,29,145.53
1062,C#4,234.5,0.25,68,145.53
1063,C#5,234.5,0.25,68,145.53
1064,C#3,234.5,0.25,52,145.53
1065,C#2,234.5,0.25,52,145.53
1066,E-4,235.0,0.25,70,145.53
1067,E-5,235.0,0.25,70,145.53
1068,E-2,235.0,0.25,52,145.53
1069,E-3,235.0,0.25,52,145.53
1070,F5,235.5,0.25,73,145.53
1071,F4,235.5,0.25,73,145.53
1072,F2,235.5,0.25,54,145.53
1073,F3,235.5,0.25,54,145.53
1074,F#4,236.0,0.25,76,145.53
1075,F#5,236.0,0.25,76,145.53
1076,F#3,236.0,0.25,56,145.53
1077,F#2,236.0,0.25,56,145.53
1078,G#5,236.5,0.25,85,145.53
1079,G#4,236.5,0.25,85,145.53
1080,G#2,236.5,0.25,58,145.53
1081,G#3,236.5,0.25,58,145.53
1082,B-5,237.0,0.25,78,145.53
1083,B-4,237.0,0.25,78,145.53
1084,C#5,237.0,0.25,78,145.53
1085,F#5,237.0,0.25,78,145.53
1086,B-3,237.0,0.25,60,145.53
1087,B-2,237.0,0.25,60,145.53
1088,C#5,238.0,0.25,81,145.53
1089,C#6,238.0,0.25,81,145.53
1090,C#2,238.0,0.25,57,145.53
1091,C#3,238.0,0.25,57,145.53
1092,F#5,238.5,0.25,88,145.53
1093,F#6,238.5,0.25,88,145.53
1094,F#1,238.5,0.25,69,145.53
1095,F#2,238.5,0.25,69,145.53
1096,B3,240.0,0.5,87,145.53
1097,B2,240.0,0.5,64,145.53
1098,B1,240.0,0.5,64,145.53
1099,B3,241.5,1.5,54,145.53
1100,C#6,241.5,1.5,77,145.53
1101,C#7,241.5,1.5,77,145.53
1102,A6,241.5,1.5,77,145.53
1103,A4,241.5,1.5,59,145.53
1104,C#5,241.5,1.5,59,145.53
1105,B3,243.0,3.0,54,145.53
1106,B6,243.0,1.5,79,145.53
1107,B5,243.0,1.5,79,145.53
1108,G#6,243.0,1.5,79,145.53
1109,G#4,243.0,1.5,59,145.53
1110,B4,243.0,1.5,59,145.53
1111,G#6,244.5,1.5,77,145.53
1112,E6,244.5,1.5,77,145.53
1113,G#5,244.5,1.5,77,145.53
1114,E4,244.5,1.5,59,145.53
1115,G#4,244.5,1.5,59,145.53
1116,B3,246.0,229/500,54,145.53
1117,A5,246.0,0.25,68,145.53
1118,F#6,246.0,0.25,68,145.53
1119,A6,246.0,0.25,68,145.53
1120,F#4,246.0,0.25,56,145.53
1121,A4,246.0,0.25,56,145.53
1122,E-6,246.5,0.25,61,145.53
1123,F#6,246.5,0.25,61,145.53
1124,F#5,246.5,0.25,61,145.53
1125,E-4,246.5,0.25,52,145.53
1126,F#4,246.5,0.25,52,145.53
1127,G#5,247.0,0.25,65,145.53
1128,G#6,247.0,0.25,65,145.53
1129,E6,247.0,0.25,65,145.53
1130,E4,247.0,0.25,56,145.53
1131,G#4,247.0,0.25,56,145.53
1132,E5,247.5,0.25,62,145.53
1133,C#6,247.5,0.25,62,145.53
1134,E6,247.5,0.25,62,145.53
1135,C#4,247.5,0.25,50,145.53
1136,E4,247.5,0.25,50,145.53
1137,E-6,248.0,0.25,68,145.53
1138,F#6,248.0,0.25,68,145.53
1139,F#5,248.0,0.25,68,145.53
1140,F#4,248.0,0.25,56,145.53
1141,E-4,248.0,0.25,56,145.53
1142,E-5,248.5,0.25,63,145.53
1143,B5,248.5,0.25,63,145.53
1144,E-6,248.5,0.25,63,145.53
1145,E-4,248.5,0.25,52,145.53
1146,B3,248.5,0.25,52,145.53
1147,C#6,249.0,0.25,68,145.53
1148,E6,249.0,0.25,68,145.53
1149,E5,249.0,0.25,68,145.53
1150,C#4,249.0,0.25,56,145.53
1151,E4,249.0,0.25,56,145.53
1152,E6,250.0,0.25,67,145.53
1153,C#6,250.0,0.25,67,145.53
1154,E5,250.0,0.25,67,145.53
1155,E4,250.0,0.25,53,145.53
1156,C#4,250.0,0.25,53,145.53
1157,C#5,250.5,1.5,68,145.53
1158,A5,250.5,1.5,68,145.53
1159,C#6,250.5,1.5,68,145.53
1160,C#4,250.5,1.5,67,145.53
1161,A3,250.5,1.5,67,145.53
1162,G#2,252.0,1.0,43,145.53
1163,G#3,252.0,1.0,43,145.53
1164,B4,252.5,0.25,52,145.53
1165,B5,252.5,0.25,52,145.53
1166,E-5,253.0,0.25,54,145.53
1167,E-6,253.0,0.25,54,145.53
1168,E6,253.5,0.25,56,145.53
1169,E5,253.5,0.25,56,145.53
1170,B3,253.5,1.0,36,145.53
1171,G#3,253.5,1.0,36,145.53
1172,E4,253.5,1.0,36,145.53
1173,F#5,254.0,0.25,57,145.53
1174,F#6,254.0,0.25,57,145.53
1175,G#6,254.5,0.25,59,145.53
1176,G#5,254.5,0.25,59,145.53
1177,B5,254.875,0.125,60,145.53
1178,E6,254.938,0.062,60,145.53
1179,B6,255.0,0.25,70,145.53
1180,B5,255.0,0.25,60,145.53
1181,E6,255.0,0.25,60,145.53
1182,F#2,255.0,1.0,43,145.53
1183,F#3,255.0,1.0,43,145.53
1184,A5,256.0,0.25,54,145.53
1185,A6,256.0,0.25,54,145.53
1186,E6,256.5,1.5,52,145.53
1187,E5,256.5,1.5,52,145.53
1188,C#4,256.5,1.0,35,145.53
1189,E4,256.5,1.0,35,145.53
1190,F#3,256.5,1.0,35,145.53
1191,A3,256.5,1.0,35,145.53
1192,E3,258.0,1.0,43,145.53
1193,E2,258.0,1.0,43,145.53
1194,C#6,258.5,0.25,53,145.53
1195,C#5,258.5,0.25,53,145.53
1196,E-5,259.0,0.25,58,145.53
1197,E-6,259.0,0.25,58,145.53
1198,E5,259.5,0.25,62,145.53
1199,E6,259.5,0.25,62,145.53
1200,E4,259.5,1.0,40,145.53
1201,G#3,259.5,1.0,40,145.53
1202,E3,259.5,1.0,40,145.53
1203,C#4,259.5,1.0,40,145.53
1204,F#6,260.0,0.25,67,145.53
1205,F#5,260.0,0.25,67,145.53
1206,G#5,260.5,0.25,72,145.53
1207,G#6,260.5,0.25,72,145.53
1208,B5,260.875,0.125,75,145.53
1209,E-6,260.938,0.062,75,145.53
1210,B6,261.0,0.25,87,145.53
1211,B5,261.0,0.25,75,145.53
1212,E-6,261.0,0.25,75,145.53
1213,B2,261.0,1.0,54,145.53
1214,B1,261.0,1.0,54,145.53
1215,A6,262.0,0.25,64,145.53
1216,A5,262.0,0.25,64,145.53
1217,E-5,262.5,1.5,62,145.53
1218,E-6,262.5,1.5,62,145.53
1219,A3,262.5,1.0,42,145.53
1220,F#3,262.5,1.0,42,145.53
1221,B3,262.5,1.0,42,145.53
1222,E-4,262.5,1.0,42,145.53
1223,E3,264.0,0.5,91,145.53
1224,E2,264.0,0.5,67,145.53
1225,E1,264.0,0.5,67,145.53
1226,F6,265.0,0.5,69,145.53
1227,F5,265.0,0.5,69,145.53
1228,D6,265.0,0.5,69,145.53
1229,E3,265.5,1.5,58,145.53
1230,E6,265.5,1.0,75,145.53
1231,E5,265.5,1.0,75,145.53
1232,C6,265.5,1.0,75,145.53
1233,F4,266.5,0.5,58,145.53
1234,A5,266.5,0.5,69,145.53
1235,C5,266.5,0.5,69,145.53
1236,C6,266.5,0.5,69,145.53
1237,E4,267.0,1.0,62,145.53
1238,E3,267.0,3.0,58,145.53
1239,B5,267.0,0.25,63,145.53
1240,D5,267.0,0.25,63,145.53
1241,D6,267.0,0.25,63,145.53
1242,B5,267.5,0.25,55,145.53
1243,B4,267.5,0.25,55,145.53
1244,G#5,267.5,0.25,55,145.53
1245,C4,268.0,0.5,58,145.53
1246,C5,268.0,0.25,60,145.53
1247,A5,268.0,0.25,60,145.53
1248,C6,268.0,0.25,60,145.53
1249,D4,268.5,1.0,63,145.53
1250,F#5,268.5,0.25,56,145.53
1251,A4,268.5,0.25,56,145.53
1252,A5,268.5,0.25,56,145.53
1253,B4,269.0,0.25,63,145.53
1254,B5,269.0,0.25,63,145.53
1255,G#5,269.0,0.25,63,145.53
1256,B3,269.5,0.5,58,145.53
1257,G#4,269.5,0.25,57,145.53
1258,E5,269.5,0.25,57,145.53
1259,G#5,269.5,0.25,57,145.53
1260,B-5,270.0,0.25,63,145.53
1261,B-4,270.0,0.25,63,145.53
1262,E5,270.0,0.25,63,145.53
1263,C#4,270.0,0.5,67,145.53
1264,E3,270.0,0.5,67,145.53
1265,G5,271.0,0.5,69,145.53
1266,E6,271.0,0.5,69,145.53
1267,G6,271.0,0.5,69,145.53
1268,F#5,271.5,1.0,75,145.53
1269,F#6,271.5,1.0,75,145.53
1270,E-6,271.5,1.0,75,145.53
1271,E2,271.5,0.5,67,145.53
1272,E1,271.5,0.5,67,145.53
1273,G4,272.5,0.5,58,145.53
1274,B5,272.5,0.5,69,145.53
1275,E-5,272.5,0.5,69,145.53
1276,E-6,272.5,0.5,69,145.53
1277,E3,273.0,3.0,58,145.53
1278,F#4,273.0,1.0,62,145.53
1279,E6,273.0,0.25,63,145.53
1280,C#6,273.0,0.25,63,145.53
1281,E5,273.0,0.25,63,145.53
1282,C#5,273.5,0.25,55,145.53
1283,B-5,273.5,0.25,55,145.53
1284,C#6,273.5,0.25,55,145.53
1285,E-4,274.0,0.5,58,145.53
1286,B5,274.0,0.25,60,145.53
1287,E-5,274.0,0.25,60,145.53
1288,E-6,274.0,0.25,60,145.53
1289,E4,274.5,1.0,63,145.53
1290,G#5,274.5,0.25,56,145.53
1291,B5,274.5,0.25,56,145.53
1292,B4,274.5,0.25,56,145.53
1293,C5,275.0,0.25,63,145.53
1294,C6,275.0,0.25,63,145.53
1295,A5,275.0,0.25,63,145.53
1296,C#4,275.5,0.5,58,145.53
1297,A4,275.5,0.25,57,145.53
1298,A5,275.5,0.25,57,145.53
1299,F#5,275.5,0.25,57,145.53
1300,B5,276.0,0.25,63,145.53
1301,B4,276.0,0.25,63,145.53
1302,F#5,276.0,0.25,63,145.53
1303,E3,276.0,0.5,67,145.53
1304,E-4,276.0,0.5,67,145.53
1305,C6,277.0,0.5,69,145.53
1306,C7,277.0,0.5,69,145.53
1307,A6,277.0,0.5,69,145.53
1308,B6,277.5,1.0,75,145.53
1309,B5,277.5,1.0,75,145.53
1310,G6,277.5,1.0,75,145.53
1311,E2,277.5,0.5,67,145.53
1312,E1,277.5,0.5,67,145.53
1313,G6,278.5,0.5,69,145.53
1314,G5,278.5,0.5,69,145.53
1315,E6,278.5,0.5,69,145.53
1316,C4,278.5,0.5,54,145.53
1317,C5,278.5,0.5,54,145.53
1318,A6,279.0,0.25,63,145.53
1319,F#6,279.0,0.25,63,145.53
1320,A5,279.0,0.25,63,145.53
1321,B4,279.0,1.0,57,145.53
1322,B3,279.0,1.0,57,145.53
1323,E-6,279.5,0.25,55,145.53
1324,F#6,279.5,0.25,55,145.53
1325,F#5,279.5,0.25,55,145.53
1326,G5,280.0,0.25,60,145.53
1327,G6,280.0,0.25,60,145.53
1328,E6,280.0,0.25,60,145.53
1329,G3,280.0,0.25,54,145.53
1330,G4,280.0,0.25,54,145.53
1331,E5,280.5,0.25,56,145.53
1332,C6,280.5,0.25,56,145.53
1333,E6,280.5,0.25,56,145.53
1334,A3,280.5,0.25,43,145.53
1335,A4,280.5,0.25,43,145.53
1336,F#5,281.0,0.25,63,145.53
1337,D6,281.0,0.25,63,145.53
1338,F#6,281.0,0.25,63,145.53
1339,F#4,281.0,0.25,49,145.53
1340,F#3,281.0,0.25,49,145.53
1341,D5,281.5,0.25,57,145.53
1342,B5,281.5,0.25,57,145.53
1343,D6,281.5,0.25,57,145.53
1344,G3,281.5,0.25,44,145.53
1345,G4,281.5,0.25,44,145.53
1346,E5,282.0,0.25,63,145.53
1347,E6,282.0,0.25,63,145.53
1348,C6,282.0,0.25,63,145.53
1349,E3,282.0,0.25,67,145.53
1350,E4,282.0,0.25,67,145.53
1351,C6,282.5,0.25,55,145.53
1352,A5,282.5,0.25,55,145.53
1353,C5,282.5,0.25,55,145.53
1354,F#4,282.5,0.25,44,145.53
1355,F#3,282.5,0.25,44,145.53
1356,B5,283.0,0.25,60,145.53
1357,D6,283.0,0.25,60,145.53
1358,D5,283.0,0.25,60,145.53
1359,D3,283.0,0.25,54,145.53
1360,D4,283.0,0.25,54,145.53
1361,G5,283.5,0.25,56,145.53
1362,B4,283.5,0.25,56,145.53
1363,B5,283.5,0.25,56,145.53
1364,E4,283.5,0.25,43,145.53
1365,E3,283.5,0.25,43,145.53
1366,C5,284.0,0.25,63,145.53
1367,C6,284.0,0.25,63,145.53
1368,A5,284.0,0.25,63,145.53
1369,C3,284.0,0.25,49,145.53
1370,C4,284.0,0.25,49,145.53
1371,F#5,284.5,0.25,57,145.53
1372,A5,284.5,0.25,57,145.53
1373,A4,284.5,0.25,57,145.53
1374,D3,284.5,0.25,44,145.53
1375,D4,284.5,0.25,44,145.53
1376,B5,285.0,0.25,63,145.53
1377,G5,285.0,0.25,63,145.53
1378,B4,285.0,0.25,63,145.53
1379,B2,285.0,0.25,67,145.53
1380,B3,285.0,0.25,67,145.53
1381,G4,285.5,0.25,56,145.53
1382,G5,285.5,0.25,56,145.53
1383,E5,285.5,0.25,56,145.53
1384,C3,285.5,0.25,44,145.53
1385,C4,285.5,0.25,44,145.53
1386,A4,286.0,0.25,62,145.53
1387,F#5,286.0,0.25,62,145.53
1388,A5,286.0,0.25,62,145.53
1389,A2,286.0,0.25,56,145.53
1390,A3,286.0,0.25,56,145.53
1391,F#5,286.5,0.25,61,145.53
1392,F#4,286.5,0.25,61,145.53
1393,E-5,286.5,0.25,61,145.53
1394,B2,286.5,0.25,46,145.53
1395,B3,286.5,0.25,46,145.53
1396,E5,287.0,0.25,69,145.53
1397,G5,287.0,0.25,69,145.53
1398,G4,287.0,0.25,69,145.53
1399,G2,287.0,0.25,54,145.53
1400,G3,287.0,0.25,54,145.53
1401,E5,287.5,0.25,65,145.53
1402,C5,287.5,0.25,65,145.53
1403,E4,287.5,0.25,65,145.53
1404,A3,287.5,0.25,50,145.53
1405,A2,287.5,0.25,50,145.53
1406,B1,287.75,0.125,62,145.53
1407,B2,287.875,0.125,63,145.53
1408,G#6,288.0,19/20,81,145.53
1409,E6,288.0,19/20,81,145.53
1410,G#5,288.0,19/20,81,145.53
1411,B4,288.0,19/20,64,145.53
1412,E4,288.0,19/20,64,145.53
1413,B3,288.0,19/20,64,145.53
1414,G#4,288.0,19/20,64,145.53
1415,G5,289.0,19/20,81,145.53
1416,E6,289.0,19/20,81,145.53
1417,G6,289.0,19/20,81,145.53
1418,E4,289.0,19/20,62,145.53
1419,B3,289.0,19/20,62,145.53
1420,B4,289.0,19/20,62,145.53
1421,G4,289.0,19/20,62,145.53
1422,E-6,290.0,19/20,81,145.53
1423,F#6,290.0,19/20,81,145.53
1424,F#5,290.0,19/20,81,145.53
1425,B4,290.0,19/20,62,145.53
1426,F#4,290.0,19/20,62,145.53
1427,B3,290.0,19/20,62,145.53
1428,E-4,290.0,19/20,62,145.53
1429,F5,291.0,19/20,81,145.53
1430,F6,291.0,19/20,81,145.53
1431,D6,291.0,19/20,81,145.53
1432,D4,291.0,19/20,64,145.53
1433,F4,291.0,19/20,64,145.53
1434,B3,291.0,19/20,64,145.53
1435,B4,291.0,19/20,64,145.53
1436,C#6,292.0,19/20,80,145.53
1437,E6,292.0,19/20,80,145.53
1438,E5,292.0,19/20,80,145.53
1439,C#4,292.0,19/20,61,145.53
1440,E4,292.0,19/20,61,145.53
1441,B3,292.0,19/20,61,145.53
1442,B4,292.0,19/20,61,145.53
1443,E-6,293.0,19/20,78,145.53
1444,E-5,293.0,19/20,78,145.53
1445,C6,293.0,19/20,78,145.53
1446,B3,293.0,19/20,60,145.53
1447,E-4,293.0,19/20,60,145.53
1448,C4,293.0,19/20,60,145.53
1449,B4,293.0,19/20,60,145.53
1450,D6,294.0,19/20,76,145.53
1451,D5,294.0,19/20,76,145.53
1452,B5,294.0,19/20,76,145.53
1453,D4,294.0,19/20,59,145.53
1454,B4,294.0,19/20,59,145.53
1455,B3,294.0,19/20,59,145.53
1456,C#5,295.0,19/20,75,145.53
1457,C#6,295.0,19/20,75,145.53
1458,B-5,295.0,19/20,75,145.53
1459,C#4,295.0,19/20,58,145.53
1460,B4,295.0,19/20,58,145.53
1461,B-3,295.0,19/20,58,145.53
1462,C6,296.0,19/20,73,145.53
1463,A5,296.0,19/20,73,145.53
1464,C5,296.0,19/20,73,145.53
1465,B4,296.0,19/20,57,145.53
1466,A3,296.0,19/20,57,145.53
1467,C4,296.0,19/20,57,145.53
1468,B4,297.0,19/20,72,145.53
1469,G#5,297.0,19/20,72,145.53
1470,B5,297.0,19/20,72,145.53
1471,G#3,297.0,19/20,56,145.53
1472,G#4,297.0,19/20,56,145.53
1473,B3,297.0,19/20,56,145.53
1474,G5,298.0,381/500,71,145.53
1475,B5,298.0,381/500,71,145.53
1476,B4,298.0,381/500,71,145.53
1477,G3,298.0,381/500,55,145.53
1478,B3,298.0,381/500,55,145.53
1479,G4,298.0,381/500,55,145.53
1480,B2,298.812,569/500,51,145.53
1481,F#3,298.875,43/40,51,145.53
1482,A3,298.938,253/250,51,145.53
1483,F#4,299.0,19/20,60,145.53
1484,B5,299.0,19/20,69,145.53
1485,E-5,299.0,19/20,69,145.53
1486,B4,299.0,19/20,69,145.53
1487,F#5,299.0,19/20,69,145.53
1488,E4,300.0,0.25,64,145.53
1489,E5,300.0,0.25,64,145.53
1490,E3,300.0,0.25,67,145.53
1491,E2,300.0,0.25,67,145.53
1492,D5,300.5,0.25,57,145.53
1493,B4,300.5,0.25,57,145.53
1494,D3,300.5,0.25,44,145.53
1495,B2,300.5,0.25,44,145.53
1496,E5,301.0,0.25,62,145.53
1497,E4,301.0,0.25,62,145.53
1498,E3,301.0,0.25,54,145.53
1499,E2,301.0,0.25,54,145.53
1500,A4,301.5,0.25,58,145.53
1501,C5,301.5,0.25,58,145.53
1502,A2,301.5,0.25,43,145.53
1503,C3,301.5,0.25,43,145.53
1504,E5,302.0,0.25,64,145.53
1505,E4,302.0,0.25,64,145.53
1506,E3,302.0,0.25,49,145.53
1507,E2,302.0,0.25,49,145.53
1508,B4,302.5,0.25,59,145.53
1509,G4,302.5,0.25,59,145.53
1510,B2,302.5,0.25,44,145.53
1511,G2,302.5,0.25,44,145.53
1512,E4,303.0,0.25,64,145.53
1513,E5,303.0,0.25,64,145.53
1514,E3,303.0,0.25,67,145.53
1515,E2,303.0,0.25,67,145.53
1516,A4,303.5,0.25,57,145.53
1517,F#4,303.5,0.25,57,145.53
1518,F#2,303.5,0.25,44,145.53
1519,A2,303.5,0.25,44,145.53
1520,E5,304.0,0.25,62,145.53
1521,E4,304.0,0.25,62,145.53
1522,E3,304.0,0.25,54,145.53
1523,E2,304.0,0.25,54,145.53
1524,G4,304.5,0.25,63,145.53
1525,G2,304.5,0.25,47,145.53
1526,E3,305.0,0.25,53,145.53
1527,E5,305.0,0.25,64,145.53
1528,E4,305.0,0.25,64,145.53
1529,D4,305.5,0.25,59,145.53
1530,F#4,305.5,0.25,59,145.53
1531,F#2,305.5,0.25,44,145.53
1532,D2,305.5,0.25,44,145.53
1533,E3,306.0,0.25,67,145.53
1534,E4,306.0,0.25,64,145.53
1535,E5,306.0,0.25,64,145.53
1536,E4,306.5,0.25,56,145.53
1537,C4,306.5,0.25,56,145.53
1538,C2,306.5,0.25,43,145.53
1539,E2,306.5,0.25,43,145.53
1540,E2,307.0,0.25,56,145.53
1541,E5,307.0,0.25,60,145.53
1542,E4,307.0,0.25,60,145.53
1543,D4,307.5,0.25,56,145.53
1544,B3,307.5,0.25,56,145.53
1545,B1,307.5,0.25,41,145.53
1546,D2,307.5,0.25,41,145.53
1547,E2,308.0,0.25,50,145.53
1548,E5,308.0,0.25,61,145.53
1549,E4,308.0,0.25,61,145.53
1550,A3,308.5,0.25,55,145.53
1551,C4,308.5,0.25,55,145.53
1552,C2,308.5,0.25,41,145.53
1553,A1,308.5,0.25,41,145.53
1554,E2,309.0,0.25,62,145.53
1555,E4,309.0,0.25,60,145.53
1556,E5,309.0,0.25,60,145.53
1557,B3,309.5,0.25,52,145.53
1558,G3,309.5,0.25,52,145.53
1559,G1,309.5,0.25,40,145.53
1560,B1,309.5,0.25,40,145.53
1561,E2,310.0,0.25,52,145.53
1562,E4,310.0,0.25,56,145.53
1563,E5,310.0,0.25,56,145.53
1564,F#3,310.5,0.25,52,145.53
1565,A3,310.5,0.25,52,145.53
1566,F#1,310.5,0.25,38,145.53
1567,A1,310.5,0.25,38,145.53
1568,E2,311.0,0.25,46,145.53
1569,E5,311.0,0.25,56,145.53
1570,E4,311.0,0.25,56,145.53
1571,A3,311.5,0.25,50,145.53
1572,F3,311.5,0.25,50,145.53
1573,F1,311.5,0.25,38,145.53
1574,A1,311.5,0.25,38,145.53
1575,G3,312.0,0.25,56,145.53
1576,E3,312.0,0.25,56,145.53
1577,E1,312.0,0.25,40,145.53
1578,E2,312.0,0.25,40,145.53
1579,E3,312.5,0.25,56,145.53
1580,G3,312.5,0.25,56,145.53
1581,E1,312.5,0.25,40,145.53
1582,E2,312.5,0.25,40,145.53
1583,E3,313.0,0.25,56,145.53
1584,G3,313.0,0.25,56,145.53
1585,E2,313.0,0.25,40,145.53
1586,E1,313.0,0.25,40,145.53
1587,A3,313.5,1.5,62,145.53
1588,F3,313.5,1.5,62,145.53
1589,A2,313.5,1.5,48,145.53
1590,C3,313.5,1.5,48,145.53
1591,E3,315.0,0.25,56,145.53
1592,G3,315.0,0.25,56,145.53
1593,E1,315.0,0.25,40,145.53
1594,E2,315.0,0.25,40,145.53
1595,E3,315.5,0.25,56,145.53
1596,G3,315.5,0.25,56,145.53
1597,E2,315.5,0.25,40,145.53
1598,E1,315.5,0.25,40,145.53
1599,G3,316.0,0.25,56,145.53
1600,E3,316.0,0.25,56,145.53
1601,E2,316.0,0.25,40,145.53
1602,E1,316.0,0.25,40,145.53
1603,C4,316.5,1.5,61,145.53
1604,A4,316.5,1.5,61,145.53
1605,A3,316.5,1.5,61,145.53
1606,F3,316.5,1.5,52,145.53
1607,A2,316.5,1.5,52,145.53
1608,G3,318.0,0.25,56,145.53
1609,E3,318.0,0.25,56,145.53
1610,E1,318.0,0.25,40,145.53
1611,E2,318.0,0.25,40,145.53
1612,E3,318.5,0.25,56,145.53
1613,G3,318.5,0.25,56,145.53
1614,E1,318.5,0.25,40,145.53
1615,E2,318.5,0.25,40,145.53
1616,E3,319.0,0.25,56,145.53
1617,G3,319.0,0.25,56,145.53
1618,E1,319.0,0.25,40,145.53
1619,E2,319.0,0.25,40,145.53
1620,C5,319.5,1.5,82,145.53
1621,E5,319.5,1.5,82,145.53
1622,G5,319.5,1.5,82,145.53
1623,C6,319.5,1.5,82,145.53
1624,E3,319.5,1.5,63,145.53
1625,G3,319.5,1.5,63,145.53
1626,B-2,319.5,1.5,63,145.53
1627,C4,319.5,1.5,63,145.53
1628,C5,321.0,0.5,82,145.53
1629,E5,321.0,0.5,82,145.53
1630,G5,321.0,0.5,82,145.53
1631,C6,321.0,0.5,82,145.53
1632,E3,321.0,0.5,63,145.53
1633,G3,321.0,0.5,63,145.53
1634,B-2,321.0,0.5,63,145.53
1635,C4,321.0,0.5,63,145.53
1636,E3,322.5,0.25,87,145.53
1637,G3,322.5,0.25,87,145.53
1638,E2,322.5,0.25,63,145.53
1639,E1,322.5,0.25,63,145.53
1640,G3,324.0,0.25,87,145.53
1641,E3,324.0,0.25,87,145.53
1642,E1,324.0,0.25,63,145.53
1643,E2,324.0,0.25,63,145.53
1644,E3,325.485,0.25,87,145.53
1645,G3,325.485,0.25,87,145.53
1646,E2,325.485,0.25,63,145.53
1647,E1,325.485,0.25,63,145.53
1648,F6,327.0,3.0,88,145.53
1649,F7,327.0,3.0,88,145.53
1650,C7,327.0,3.0,88,145.53
1651,A6,327.0,3.0,88,145.53
1652,C3,327.0,3.0,67,145.53
1653,C4,327.0,3.0,67,145.53
1654,F3,327.0,3.0,67,145.53
1655,A2,327.0,3.0,67,145.53
1656,F6,330.5,0.5,88,145.53
1657,F7,330.5,0.5,88,145.53
1658,C7,330.5,0.5,88,145.53
1659,A6,330.5,0.5,88,145.53
1660,C3,330.5,0.5,67,145.53
1661,C4,330.5,0.5,67,145.53
1662,F3,330.5,0.5,67,145.53
1663,A2,330.5,0.5,67,145.53
1664,C5,331.0,0.25,64,145.53
1665,C4,331.0,0.25,64,145.53
1666,C7,331.25,0.25,64,145.53
1667,C6,331.25,0.25,64,145.53
1668,A3,331.5,0.25,59,145.53
1669,A4,331.5,0.25,59,145.53
1670,A6,331.75,0.25,66,145.53
1671,A5,331.75,0.25,66,145.53
1672,F4,332.0,0.25,66,145.53
1673,F3,332.0,0.25,66,145.53
1674,F5,332.25,0.25,66,145.53
1675,F6,332.25,0.25,66,145.53
1676,C3,332.5,0.25,62,145.53
1677,C4,332.5,0.25,62,145.53
1678,C6,332.75,0.25,64,145.53
1679,C5,332.75,0.25,64,145.53
1680,A3,333.0,0.25,64,145.53
1681,A2,333.0,0.25,64,145.53
1682,A5,333.25,0.25,64,145.53
1683,A4,333.25,0.25,64,145.53
1684,F2,333.5,0.25,70,145.53
1685,F3,333.5,0.25,70,145.53
1686,F4,333.75,0.25,71,145.53
1687,F5,333.75,0.25,71,145.53
1688,C2,334.0,0.25,65,145.53
1689,C3,334.0,0.25,65,145.53
1690,C4,334.25,0.25,68,145.53
1691,C5,334.25,0.25,68,145.53
1692,A2,334.5,0.25,66,145.53
1693,A1,334.5,0.25,66,145.53
1694,A3,334.75,0.25,69,145.53
1695,A4,334.75,0.25,69,145.53
1696,F2,335.0,0.25,75,145.53
1697,F1,335.0,0.25,75,145.53
1698,F4,335.25,0.25,76,145.53
1699,F3,335.25,0.25,76,145.53
1700,C2,335.5,0.25,69,145.53
1701,C1,335.5,0.25,69,145.53
1702,C3,335.75,0.25,71,145.53
1703,C4,335.75,0.25,71,145.53
1704,D1,336.0,0.25,72,145.53
1705,D2,336.0,0.25,72,145.53
1706,D3,336.25,0.25,72,145.53
1707,D4,336.25,0.25,72,145.53
1708,C3,336.5,0.25,71,145.53
1709,G3,336.5,0.25,71,145.53
1710,C4,336.5,0.25,71,145.53
1711,E3,336.5,0.25,71,145.53
1712,C1,336.5,0.25,72,145.53
1713,C2,336.5,0.25,72,145.53
1714,G3,339.5,0.25,71,145.53
1715,E3,339.5,0.25,71,145.53
1716,C4,339.5,0.25,71,145.53
1717,C3,339.5,0.25,71,145.53
1718,C2,339.5,0.25,72,145.53
1719,C1,339.5,0.25,72,145.53
1720,E3,342.5,0.25,71,145.53
1721,G3,342.5,0.25,71,145.53
1722,C4,342.5,0.25,71,145.53
1723,C3,342.5,0.25,71,145.53
1724,C1,342.5,0.25,72,145.53
1725,C2,342.5,0.25,72,145.53
1726,E4,348.5,3.0,40,145.53
1727,G3,351.5,3.0,40,145.53
1728,E4,351.5,2979/1000,40,145.53
1729,C4,354.5,0.5,30,145.53
1730,E4,354.5,3.0,40,145.53
1731,C2,354.5,3.0,32,145.53
1732,G2,354.5,3.0,32,145.53
1733,G3,355.0,0.5,20,145.53
1734,C4,355.5,0.5,30,145.53
1735,G3,356.0,0.5,21,145.53
1736,C4,356.5,0.5,30,145.53
1737,G3,357.0,0.5,20,145.53
1738,C4,357.5,0.5,30,145.53
1739,E4,357.5,1.0,40,145.53
1740,G3,358.0,0.5,22,145.53
1741,F4,358.5,1.0,40,145.53
1742,D4,358.5,0.5,30,145.53
1743,G3,359.0,0.5,21,145.53
1744,E-4,359.5,0.5,30,145.53
1745,F#4,359.5,1.0,35,145.53
1746,G3,360.0,0.5,22,145.53
1747,E4,360.5,0.5,30,145.53
1748,G4,360.5,1.0,40,145.53
1749,G3,361.0,0.5,23,145.53
1750,A4,361.5,1.0,36,145.53
1751,F4,361.5,0.5,30,145.53
1752,G3,362.0,0.5,24,145.53
1753,B4,362.5,1.0,40,145.53
1754,D4,362.5,0.5,30,145.53
1755,G3,363.0,0.5,24,145.53
1756,E4,363.5,0.5,30,145.53
1757,C5,363.5,1.0,44,145.53
1758,C4,364.0,0.5,23,145.53
1759,F4,364.5,0.5,30,145.53
1760,D5,364.5,1.0,49,145.53
1761,C4,365.0,0.5,30,145.53
1762,G4,365.5,0.5,30,145.53
1763,E5,365.5,1.0,57,145.53
1764,C4,366.0,0.5,30,145.53
1765,G5,366.5,3.0,62,145.53
1766,C#5,366.5,0.5,30,145.53
1767,B-4,366.5,0.5,30,145.53
1768,C2,366.5,3.0,32,145.53
1769,G2,366.5,3.0,32,145.53
1770,E4,367.0,0.5,33,145.53
1771,C#5,367.5,0.5,38,145.53
1772,B-4,367.5,0.5,38,145.53
1773,E4,368.0,0.5,32,145.53
1774,B-4,368.5,0.5,38,145.53
1775,C#5,368.5,0.5,38,145.53
1776,E4,369.0,0.5,34,145.53
1777,F5,369.5,2.0,57,145.53
1778,A4,369.5,0.5,30,145.53
1779,D5,369.5,0.5,30,145.53
1780,F4,370.0,0.5,27,145.53
1781,A4,370.5,0.5,34,145.53
1782,D5,370.5,0.5,34,145.53
1783,F4,371.0,0.5,27,145.53
1784,E5,371.5,99/100,50,145.53
1785,B-4,371.5,0.5,37,145.53
1786,C#5,371.5,0.5,37,145.53
1787,G4,372.0,0.5,29,145.53
1788,E5,372.5,2.0,51,145.53
1789,B-4,372.5,0.5,38,145.53
1790,C#5,372.5,0.5,38,145.53
1791,G4,373.0,0.5,26,145.53
1792,B-4,373.5,0.5,29,145.53
1793,C#5,373.5,0.5,29,145.53
1794,G4,374.0,0.5,26,145.53
1795,A4,374.5,0.5,35,145.53
1796,D5,374.5,1.0,47,145.53
1797,F4,375.0,0.5,26,145.53
1798,E5,375.5,2.0,44,145.53
1799,C#5,375.5,0.5,33,145.53
1800,A4,375.5,0.5,33,145.53
1801,C2,375.5,3.0,32,145.53
1802,G2,375.5,3.0,32,145.53
1803,E4,376.0,0.5,26,145.53
1804,A4,376.5,0.5,26,145.53
1805,C#5,376.5,0.5,26,145.53
1806,E4,377.0,0.5,26,145.53
1807,F5,377.5,1.0,47,145.53
1808,A4,377.5,0.5,35,145.53
1809,D5,377.5,0.5,35,145.53
1810,F4,378.0,0.5,28,145.53
1811,G4,378.5,0.5,30,145.53
1812,C5,378.5,3.0,40,145.53
1813,E4,379.0,0.5,20,145.53
1814,G4,379.5,0.5,30,145.53
1815,E4,380.0,0.5,21,145.53
1816,G4,380.5,0.5,30,145.53
1817,E4,381.0,0.5,20,145.53
1818,G4,381.5,0.5,30,145.53
1819,C5,381.5,3.0,40,145.53
1820,C2,381.5,3.0,32,145.53
1821,G2,381.5,3.0,32,145.53
1822,E4,382.0,0.5,22,145.53
1823,G4,382.5,0.5,30,145.53
1824,E4,383.0,0.5,21,145.53
1825,A4,383.5,0.5,30,145.53
1826,E4,384.0,0.5,22,145.53
1827,G4,384.5,0.5,30,145.53
1828,B4,384.5,1.0,40,145.53
1829,F1,384.5,3.0,37,145.53
1830,F2,384.5,3.0,37,145.53
1831,D4,385.0,0.5,23,145.53
1832,G4,385.5,0.5,30,145.53
1833,C5,385.5,1.0,36,145.53
1834,F4,386.0,0.5,24,145.53
1835,D5,386.5,1.0,40,145.53
1836,G4,386.5,0.5,30,145.53
1837,F4,387.0,0.5,24,145.53
1838,E5,387.5,1.0,44,145.53
1839,G4,387.5,0.5,30,145.53
1840,E4,388.0,0.5,23,145.53
1841,F5,388.5,1.0,49,145.53
1842,B4,388.5,0.5,30,145.53
1843,G4,389.0,0.5,30,145.53
1844,C5,389.5,0.5,30,145.53
1845,G5,389.5,1.0,57,145.53
1846,G4,390.0,0.5,30,145.53
1847,F1,390.479,2979/1000,37,145.53
1848,F2,390.479,2979/1000,37,145.53
1849,B-5,390.5,3.0,62,145.53
1850,C#5,390.5,0.5,34,145.53
1851,B-4,391.0,0.5,37,145.53
1852,C#5,391.5,0.5,43,145.53
1853,B-4,392.0,0.5,36,145.53
1854,C#5,392.5,0.5,43,145.53
1855,B-4,393.0,0.5,38,145.53
1856,F1,393.479,3.0,37,145.53
1857,F2,393.479,3.0,37,145.53
1858,D5,393.5,0.5,34,145.53
1859,A5,393.5,2.0,57,145.53
1860,A4,394.0,0.5,30,145.53
1861,D5,394.5,0.5,36,145.53
1862,A4,395.0,0.5,29,145.53
1863,D5,395.5,0.5,34,145.53
1864,G#5,395.5,99/100,42,145.53
1865,B4,396.0,0.5,26,145.53
1866,G5,396.5,2.0,45,145.53
1867,C#5,396.5,0.5,34,145.53
1868,A4,397.0,0.5,23,145.53
1869,C#5,397.5,0.5,26,145.53
1870,A4,398.0,0.5,23,145.53
1871,F#5,398.5,1.0,42,145.53
1872,C#5,398.5,0.5,31,145.53
1873,A4,399.0,0.5,23,145.53
1874,F1,399.479,3.0,37,145.53
1875,F2,399.479,3.0,37,145.53
1876,G5,399.5,2.0,39,145.53
1877,C#5,399.5,0.5,29,145.53
1878,A4,400.0,0.5,23,145.53
1879,C#5,400.5,0.5,23,145.53
1880,A4,401.0,0.5,23,145.53
1881,B-5,401.5,1.0,42,145.53
1882,C#5,401.5,0.5,31,145.53
1883,A4,402.0,0.5,25,145.53
1884,E3,402.479,3.0,35,145.53
1885,G2,402.479,3.0,29,145.53
1886,C#5,402.5,0.5,27,145.53
1887,A5,402.5,3.0,51,145.53
1888,B-4,403.0,0.5,24,145.53
1889,C#5,403.5,0.5,30,145.53
1890,B-4,404.0,0.5,24,145.53
1891,C#5,404.5,0.5,29,145.53
1892,B-4,405.0,0.5,23,145.53
1893,E3,405.479,1.0,35,145.53
1894,G2,405.479,3.0,29,145.53
1895,C#5,405.5,0.5,34,145.53
1896,G5,405.5,1.0,45,145.53
1897,B-4,406.0,0.5,23,145.53
1898,F3,406.479,1.0,40,145.53
1899,C#5,406.5,0.5,26,145.53
1900,B-4,407.0,0.5,23,145.53
1901,F#3,407.479,1.0,35,145.53
1902,C#5,407.5,0.5,30,145.53
1903,G5,407.5,99/100,42,145.53
1904,B-4,408.0,0.5,23,145.53
1905,G3,408.479,979/1000,40,145.53
1906,E5,408.5,0.5,34,145.53
1907,G5,408.5,2.0,45,145.53
1908,B4,409.0,0.5,23,145.53
1909,A3,409.479,1.0,36,145.53
1910,G3,409.479,2.0,29,145.53
1911,E5,409.5,0.5,26,145.53
1912,B4,410.0,0.5,23,145.53
1913,B3,410.479,1.0,40,145.53
1914,F#5,410.5,1.0,42,145.53
1915,E5,410.5,0.5,31,145.53
1916,B4,411.0,0.5,23,145.53
1917,C4,411.479,1.0,37,145.53
1918,G3,411.479,2.0,29,145.53
1919,E5,411.5,0.5,29,145.53
1920,G5,411.5,2.0,39,145.53
1921,B4,412.0,0.5,23,145.53
1922,D4,412.479,1.0,41,145.53
1923,E5,412.5,0.5,23,145.53
1924,B4,413.0,0.5,23,145.53
1925,E4,413.479,1.0,48,145.53
1926,B5,413.5,1.0,42,145.53
1927,E5,413.5,0.5,31,145.53
1928,B4,414.0,0.5,25,145.53
1929,G4,414.479,3.0,36,145.53
1930,B-3,414.479,3.0,36,145.53
1931,C#4,414.479,3.0,36,145.53
1932,E3,414.479,3.0,36,145.53
1933,A5,414.5,3.0,51,145.53
1934,E5,414.5,0.5,27,145.53
1935,B-4,415.0,0.5,24,145.53
1936,E5,415.5,0.5,30,145.53
1937,B-4,416.0,0.5,24,145.53
1938,E5,416.5,0.5,29,145.53
1939,B-4,417.0,0.5,23,145.53
1940,F#3,417.479,2.0,36,145.53
1941,F#4,417.479,2.0,36,145.53
1942,A3,417.479,2.0,36,145.53
1943,D4,417.479,2.0,36,145.53
1944,G5,417.5,1.0,45,145.53
1945,E5,417.5,0.5,34,145.53
1946,B-4,418.0,0.5,23,145.53
1947,E5,418.5,0.5,26,145.53
1948,B-4,419.0,0.5,23,145.53
1949,G#3,419.479,1.0,30,145.53
1950,F4,419.479,1.0,30,145.53
1951,G5,419.5,99/100,42,145.53
1952,E5,419.5,0.5,30,145.53
1953,B-4,420.0,0.5,23,145.53
1954,A3,420.479,3.0,30,145.53
1955,E4,420.479,2.0,36,145.53
1956,G5,420.5,2.0,45,145.53
1957,B4,420.5,0.5,34,145.53
1958,G4,421.0,0.5,23,145.53
1959,B4,421.5,0.5,26,145.53
1960,G4,422.0,0.5,23,145.53
1961,E-4,422.479,1.0,32,145.53
1962,F#5,422.5,1.0,42,145.53
1963,B4,422.5,0.5,31,145.53
1964,G4,423.0,0.5,23,145.53
1965,E4,423.479,2.0,36,145.53
1966,A3,423.479,3.0,30,145.53
1967,G5,423.5,2.0,39,145.53
1968,B4,423.5,0.5,29,145.53
1969,G4,424.0,0.5,23,145.53
1970,B4,424.5,0.5,23,145.53
1971,G4,425.0,0.5,23,145.53
1972,G4,425.479,1.0,33,145.53
1973,D5,425.5,1.0,42,145.53
1974,B4,425.5,0.5,31,145.53
1975,G4,426.0,0.5,25,145.53
1976,B-3,426.479,3.0,30,145.53
1977,F4,426.479,3.0,36,145.53
1978,B-4,426.5,0.5,34,145.53
1979,G4,427.0,0.5,23,145.53
1980,B-4,427.5,0.5,26,145.53
1981,G4,428.0,0.5,23,145.53
1982,B-4,428.5,0.5,31,145.53
1983,G4,429.0,0.5,23,145.53
1984,E4,429.479,1979/1000,36,145.53
1985,B-3,429.479,3.0,30,145.53
1986,B-4,429.5,0.5,29,145.53
1987,G4,430.0,0.5,23,145.53
1988,B-4,430.5,0.5,23,145.53
1989,G4,431.0,0.5,23,145.53
1990,E4,431.479,979/1000,33,145.53
1991,B-4,431.5,0.5,31,145.53
1992,G4,432.0,0.5,25,145.53
1993,B3,432.479,3.0,30,145.53
1994,E4,432.479,2.0,36,145.53
1995,D5,432.5,2.0,45,145.53
1996,F#4,432.5,0.5,34,145.53
1997,D4,433.0,0.5,23,145.53
1998,F#4,433.5,0.5,26,145.53
1999,D4,434.0,0.5,23,145.53
2000,E-4,434.479,1.0,32,145.53
2001,C#5,434.5,1.0,42,145.53
2002,F#4,434.5,0.5,31,145.53
2003,D4,435.0,0.5,23,145.53
2004,E4,435.479,2.0,36,145.53
2005,B3,435.479,3.0,30,145.53
2006,D5,435.5,2.0,39,145.53
2007,F#4,435.5,0.5,29,145.53
2008,D4,436.0,0.5,23,145.53
2009,F#4,436.5,0.5,23,145.53
2010,D4,437.0,0.5,23,145.53
2011,G4,437.479,1.0,33,145.53
2012,F#4,437.5,0.5,31,145.53
2013,A4,437.5,1.0,42,145.53
2014,D4,438.0,0.5,25,145.53
2015,F#4,438.479,3.0,33,145.53
2016,C4,438.479,3.0,33,145.53
2017,F4,438.5,0.5,32,145.53
2018,D4,439.0,0.5,21,145.53
2019,F4,439.5,0.5,24,145.53
2020,D4,440.0,0.5,21,145.53
2021,F4,440.5,0.5,28,145.53
2022,D4,441.0,0.5,21,145.53
2023,E4,441.479,3.0,33,145.53
2024,C#4,441.479,3.0,33,145.53
2025,F4,441.5,0.5,27,145.53
2026,D4,442.0,0.5,20,145.53
2027,F4,442.5,0.5,20,145.53
2028,D4,443.0,0.5,20,145.53
2029,F4,443.5,0.5,27,145.53
2030,D4,444.0,0.5,21,145.53
2031,D4,444.479,2.0,36,145.53
2032,F4,444.5,0.5,26,145.53
2033,D5,444.5,2.0,34,145.53
2034,D4,445.0,0.5,19,145.53
2035,F4,445.5,0.5,19,145.53
2036,D4,446.0,0.5,19,145.53
2037,F4,446.5,0.5,27,145.53
2038,C#5,446.5,1.0,36,145.53
2039,D4,447.0,0.5,21,145.53
2040,F4,447.5,0.5,28,145.53
2041,D4,448.0,0.5,19,145.53
2042,F4,448.5,0.5,21,145.53
2043,D4,449.0,0.5,18,145.53
2044,F4,449.5,0.5,26,145.53
2045,D4,450.0,0.5,18,145.53
2046,G3,450.479,2.0,45,145.53
2047,F4,450.5,0.5,24,145.53
2048,D5,450.5,3.0,31,145.53
2049,D4,451.0,0.5,18,145.53
2050,F4,451.5,0.5,18,145.53
2051,D4,452.0,0.5,18,145.53
2052,F#3,452.479,1.0,42,145.53
2053,F4,452.5,0.5,25,145.53
2054,D4,453.0,0.5,19,145.53
2055,G3,453.479,2.0,39,145.53
2056,F4,453.5,0.5,27,145.53
2057,D5,453.5,2.0,31,145.53
2058,D4,454.0,0.5,18,145.53
2059,F4,454.5,0.5,19,145.53
2060,D4,455.0,0.5,18,145.53
2061,D3,455.479,1.0,42,145.53
2062,F4,455.5,1.0,19,145.53
2063,B3,455.5,0.5,23,145.53
2064,G3,456.0,0.5,17,145.53
2065,C4,456.5,0.5,30,145.53
2066,E4,456.5,3.0,40,145.53
2067,G3,457.0,0.5,20,145.53
2068,C4,457.5,0.5,30,145.53
2069,G3,458.0,0.5,21,145.53
2070,C4,458.5,0.5,30,145.53
2071,G3,459.0,0.5,20,145.53
2072,C4,459.5,0.5,30,145.53
2073,E4,459.5,1.0,40,145.53
2074,G3,460.0,0.5,22,145.53
2075,D4,460.5,0.5,30,145.53
2076,F4,460.5,1.0,40,145.53
2077,G3,461.0,0.5,21,145.53
2078,E-4,461.5,0.5,30,145.53
2079,F#4,461.5,1.0,35,145.53
2080,G3,462.0,0.5,22,145.53
2081,D3,462.479,2.0,42,145.53
2082,G4,462.5,1.0,40,145.53
2083,E4,462.5,0.5,30,145.53
2084,G3,463.0,0.5,23,145.53
2085,F4,463.5,0.5,30,145.53
2086,A4,463.5,1.0,36,145.53
2087,G3,464.0,0.5,24,145.53
2088,C#3,464.479,1.0,39,145.53
2089,D4,464.5,0.5,30,145.53
2090,B4,464.5,1.0,40,145.53
2091,G3,465.0,0.5,24,145.53
2092,D3,465.479,2.0,35,145.53
2093,E4,465.5,0.5,30,145.53
2094,C5,465.5,1.0,44,145.53
2095,C4,466.0,0.5,23,145.53
2096,F4,466.5,0.5,30,145.53
2097,D5,466.5,1.0,49,145.53
2098,C4,467.0,0.5,30,145.53
2099,A2,467.479,1.0,37,145.53
2100,G4,467.5,0.5,30,145.53
2101,E5,467.5,1.0,57,145.53
2102,C4,468.0,0.5,30,145.53
2103,G5,468.5,3.0,62,145.53
2104,B-4,468.5,0.5,30,145.53
2105,C#5,468.5,0.5,30,145.53
2106,E4,469.0,0.5,33,145.53
2107,B-4,469.5,0.5,38,145.53
2108,C#5,469.5,0.5,38,145.53
2109,E4,470.0,0.5,32,145.53
2110,B-4,470.5,0.5,38,145.53
2111,C#5,470.5,0.5,38,145.53
2112,E4,471.0,0.5,34,145.53
2113,D3,471.479,2.0,38,145.53
2114,F5,471.5,2.0,57,145.53
2115,D5,471.5,0.5,30,145.53
2116,A4,471.5,0.5,30,145.53
2117,F4,472.0,0.5,27,145.53
2118,A4,472.5,0.5,34,145.53
2119,D5,472.5,0.5,34,145.53
2120,F4,473.0,0.5,27,145.53
2121,G#2,473.479,1.0,34,145.53
2122,E5,473.5,99/100,50,145.53
2123,B-4,473.5,0.5,37,145.53
2124,C#5,473.5,0.5,37,145.53
2125,G4,474.0,0.5,29,145.53
2126,E5,474.5,2.0,51,145.53
2127,C#5,474.5,0.5,40,145.53
2128,B-4,474.5,0.5,40,145.53
2129,G4,475.0,0.5,26,145.53
2130,C#5,475.5,0.5,31,145.53
2131,B-4,475.5,0.5,31,145.53
2132,G4,476.0,0.5,26,145.53
2133,A4,476.5,0.5,35,145.53
2134,D5,476.5,1.0,47,145.53
2135,F4,477.0,0.5,26,145.53
2136,D3,477.479,2.0,35,145.53
2137,E5,477.5,2.0,44,145.53
2138,A4,477.5,0.5,33,145.53
2139,C#5,477.5,0.5,33,145.53
2140,E4,478.0,0.5,26,145.53
2141,A4,478.5,0.5,26,145.53
2142,C#5,478.5,0.5,26,145.53
2143,E4,479.0,0.5,26,145.53
2144,G2,479.479,1.0,32,145.53
2145,F5,479.5,1.0,47,145.53
2146,D5,479.5,0.5,35,145.53
2147,A4,479.5,0.5,35,145.53
2148,F4,480.0,0.5,28,145.53
2149,C2,480.479,3.0,32,145.53
2150,G2,480.479,3.0,32,145.53
2151,G4,480.5,0.5,30,145.53
2152,C5,480.5,3.0,40,145.53
2153,E4,481.0,0.5,20,145.53
2154,G4,481.5,0.5,30,145.53
2155,E4,482.0,0.5,21,145.53
2156,G4,482.5,0.5,30,145.53
2157,E4,483.0,0.5,20,145.53
2158,G4,483.5,0.5,30,145.53
2159,C5,483.5,3.0,40,145.53
2160,E4,484.0,0.5,22,145.53
2161,G4,484.5,0.5,30,145.53
2162,E4,485.0,0.5,21,145.53
2163,A4,485.5,0.5,30,145.53
2164,E4,486.0,0.5,22,145.53
2165,G4,486.5,0.5,30,145.53
2166,B4,486.5,1.0,40,145.53
2167,D4,487.0,0.5,23,145.53
2168,G4,487.5,0.5,30,145.53
2169,C5,487.5,1.0,36,145.53
2170,F4,488.0,0.5,24,145.53
2171,G4,488.5,0.5,30,145.53
2172,D5,488.5,1.0,40,145.53
2173,F4,489.0,0.5,24,145.53
2174,G4,489.5,0.5,30,145.53
2175,E5,489.5,1.0,44,145.53
2176,E4,490.0,0.5,23,145.53
2177,F5,490.5,1.0,49,145.53
2178,B4,490.5,0.5,30,145.53
2179,G4,491.0,0.5,30,145.53
2180,C5,491.5,0.5,30,145.53
2181,G5,491.5,1.0,57,145.53
2182,G4,492.0,0.5,30,145.53
2183,C2,492.479,3.0,32,145.53
2184,G2,492.479,3.0,32,145.53
2185,B-5,492.5,3.0,62,145.53
2186,C#5,492.5,0.5,34,145.53
2187,B-4,493.0,0.5,37,145.53
2188,C#5,493.5,0.5,43,145.53
2189,B-4,494.0,0.5,36,145.53
2190,C#5,494.5,0.5,43,145.53
2191,B-4,495.0,0.5,38,145.53
2192,A5,495.5,2.0,57,145.53
2193,D5,495.5,0.5,34,145.53
2194,A4,496.0,0.5,30,145.53
2195,D5,496.5,0.5,36,145.53
2196,A4,497.0,0.5,29,145.53
2197,D5,497.5,0.5,34,145.53
2198,G#5,497.5,99/100,42,145.53
2199,B4,498.0,0.5,26,145.53
2200,C#5,498.5,0.5,34,145.53
2201,G5,498.5,2.0,45,145.53
2202,A4,499.0,0.5,23,145.53
2203,C#5,499.5,0.5,26,145.53
2204,A4,500.0,0.5,23,145.53
2205,F#5,500.5,1.0,42,145.53
2206,C#5,500.5,0.5,31,145.53
2207,A4,501.0,0.5,23,145.53
2208,C2,501.479,3.0,32,145.53
2209,G2,501.479,3.0,32,145.53
2210,G5,501.5,2.0,39,145.53
2211,C#5,501.5,0.5,29,145.53
2212,A4,502.0,0.5,23,145.53
2213,C#5,502.5,0.5,23,145.53
2214,A4,503.0,0.5,23,145.53
2215,C#5,503.5,0.5,31,145.53
2216,B-5,503.5,1.0,42,145.53
2217,A4,504.0,0.5,25,145.53
2218,C#5,504.5,0.5,27,145.53
2219,A5,504.5,3.0,51,145.53
2220,B-4,505.0,0.5,24,145.53
2221,C#5,505.5,0.5,30,145.53
2222,B-4,506.0,0.5,24,145.53
2223,C#5,506.5,0.5,29,145.53
2224,B-4,507.0,0.5,23,145.53
2225,C2,507.479,3.0,32,145.53
2226,G2,507.479,3.0,32,145.53
2227,C#5,507.5,0.5,38,145.53
2228,G5,507.5,1.0,45,145.53
2229,B-4,508.0,0.5,23,145.53
2230,C#5,508.5,0.5,26,145.53
2231,B-4,509.0,0.5,23,145.53
2232,C#5,509.5,0.5,30,145.53
2233,G5,509.5,99/100,42,145.53
2234,B-4,510.0,0.5,23,145.53
2235,F2,510.479,3.0,37,145.53
2236,F1,510.479,3.0,37,145.53
2237,E5,510.5,0.5,34,145.53
2238,G5,510.5,2.0,45,145.53
2239,B4,511.0,0.5,23,145.53
2240,E5,511.5,0.5,26,145.53
2241,B4,512.0,0.5,23,145.53
2242,F#5,512.5,1.0,42,145.53
2243,E5,512.5,0.5,31,145.53
2244,B4,513.0,0.5,23,145.53
2245,E5,513.5,0.5,29,145.53
2246,G5,513.5,2.0,39,145.53
2247,B4,514.0,0.5,23,145.53
2248,E5,514.5,0.5,23,145.53
2249,B4,515.0,0.5,23,145.53
2250,E5,515.5,0.5,31,145.53
2251,B5,515.5,1.0,42,145.53
2252,B4,516.0,0.5,25,145.53
2253,F2,516.458,2979/1000,37,145.53
2254,F1,516.458,2979/1000,37,145.53
2255,A5,516.5,3.0,51,145.53
2256,E5,516.5,0.5,27,145.53
2257,B-4,517.0,0.5,24,145.53
2258,E5,517.5,0.5,30,145.53
2259,B-4,518.0,0.5,24,145.53
2260,E5,518.5,0.5,29,145.53
2261,B-4,519.0,0.5,23,145.53
2262,F1,519.458,3.0,37,145.53
2263,F2,519.458,3.0,37,145.53
2264,G5,519.5,1.0,45,145.53
2265,E5,519.5,0.5,34,145.53
2266,B-4,520.0,0.5,23,145.53
2267,E5,520.5,0.5,26,145.53
2268,B-4,521.0,0.5,23,145.53
2269,G5,521.5,99/100,42,145.53
2270,E5,521.5,0.5,30,145.53
2271,B-4,522.0,0.5,23,145.53
2272,B4,522.5,0.5,34,145.53
2273,G5,522.5,2.0,45,145.53
2274,G4,523.0,0.5,23,145.53
2275,B4,523.5,0.5,26,145.53
2276,G4,524.0,0.5,23,145.53
2277,B4,524.5,0.5,31,145.53
2278,F#5,524.5,1.0,42,145.53
2279,G4,525.0,0.5,23,145.53
2280,F1,525.458,3.0,37,145.53
2281,F2,525.458,3.0,37,145.53
2282,G5,525.5,2.0,39,145.53
2283,B4,525.5,0.5,29,145.53
2284,G4,526.0,0.5,23,145.53
2285,B4,526.5,0.5,23,145.53
2286,G4,527.0,0.5,23,145.53
2287,D5,527.5,1.0,42,145.53
2288,B4,527.5,0.5,31,145.53
2289,G4,528.0,0.5,25,145.53
2290,E3,528.458,3.0,35,145.53
2291,G2,528.458,3.0,29,145.53
2292,B-4,528.5,0.5,34,145.53
2293,G4,529.0,0.5,23,145.53
2294,B-4,529.5,0.5,26,145.53
2295,G4,530.0,0.5,23,145.53
2296,B-4,530.5,0.5,31,145.53
2297,G4,531.0,0.5,23,145.53
2298,E3,531.458,1.0,35,145.53
2299,G2,531.458,3.0,29,145.53
2300,B-4,531.5,0.5,29,145.53
2301,G4,532.0,0.5,23,145.53
2302,F3,532.458,1.0,40,145.53
2303,B-4,532.5,0.5,23,145.53
2304,G4,533.0,0.5,23,145.53
2305,F#3,533.458,1.0,35,145.53
2306,B-4,533.5,0.5,31,145.53
2307,G4,534.0,0.5,25,145.53
2308,G3,534.458,979/1000,40,145.53
2309,D5,534.5,2.0,45,145.53
2310,F#4,534.5,0.5,34,145.53
2311,D4,535.0,0.5,23,145.53
2312,G3,535.458,2.0,29,145.53
2313,A3,535.458,1.0,36,145.53
2314,F#4,535.5,0.5,26,145.53
2315,D4,536.0,0.5,23,145.53
2316,B3,536.458,1.0,40,145.53
2317,F#4,536.5,0.5,31,145.53
2318,C#5,536.5,1.0,42,145.53
2319,D4,537.0,0.5,23,145.53
2320,C4,537.458,1.0,37,145.53
2321,G3,537.458,2.0,29,145.53
2322,D5,537.5,2.0,39,145.53
2323,F#4,537.5,0.5,29,145.53
2324,D4,538.0,0.5,23,145.53
2325,D4,538.458,1.0,41,145.53
2326,F#4,538.5,0.5,23,145.53
2327,D4,539.0,0.5,23,145.53
2328,E4,539.458,1.0,48,145.53
2329,A4,539.5,1.0,42,145.53
2330,F#4,539.5,0.5,31,145.53
2331,D4,540.0,0.5,25,145.53
2332,E3,540.458,3.0,36,145.53
2333,G4,540.458,3.0,36,145.53
2334,B-3,540.458,3.0,36,145.53
2335,C#4,540.458,3.0,36,145.53
2336,F4,540.5,0.5,32,145.53
2337,D4,541.0,0.5,21,145.53
2338,F4,541.5,0.5,24,145.53
2339,D4,542.0,0.5,21,145.53
2340,F4,542.5,0.5,28,145.53
2341,D4,543.0,0.5,21,145.53
2342,F#3,543.458,2.0,36,145.53
2343,D4,543.458,2.0,36,145.53
2344,F#4,543.458,2.0,36,145.53
2345,A3,543.458,2.0,36,145.53
2346,F4,543.5,0.5,27,145.53
2347,D4,544.0,0.5,20,145.53
2348,F4,544.5,0.5,20,145.53
2349,D4,545.0,0.5,20,145.53
2350,F4,545.458,1.0,30,145.53
2351,G#3,545.458,1.0,30,145.53
2352,F4,545.5,0.5,27,145.53
2353,D4,546.0,0.5,21,145.53
2354,A3,546.458,3.0,30,145.53
2355,E4,546.458,2.0,36,145.53
2356,D5,546.5,2.0,34,145.53
2357,F4,546.5,0.5,26,145.53
2358,D4,547.0,0.5,19,145.53
2359,F4,547.5,0.5,19,145.53
2360,D4,548.0,0.5,19,145.53
2361,E-4,548.458,1.0,32,145.53
2362,F4,548.5,0.5,27,145.53
2363,C#5,548.5,1.0,36,145.53
2364,D4,549.0,0.5,21,145.53
2365,E4,549.458,2.0,36,145.53
2366,A3,549.458,3.0,30,145.53
2367,F4,549.5,0.5,28,145.53
2368,D4,550.0,0.5,19,145.53
2369,F4,550.5,0.5,21,145.53
2370,D4,551.0,0.5,18,145.53
2371,G4,551.458,1.0,33,145.53
2372,F4,551.5,0.5,26,145.53
2373,D4,552.0,0.5,18,145.53
2374,F4,552.458,3.0,36,145.53
2375,B-3,552.458,3.0,30,145.53
2376,F4,552.5,0.5,24,145.53
2377,D5,552.5,3.0,31,145.53
2378,D4,553.0,0.5,18,145.53
2379,F4,553.5,0.5,18,145.53
2380,D4,554.0,0.5,18,145.53
2381,F4,554.5,0.5,25,145.53
2382,D4,555.0,0.5,19,145.53
2383,E4,555.458,1979/1000,36,145.53
2384,B-3,555.458,3.0,30,145.53
2385,F4,555.5,0.5,27,145.53
2386,D5,555.5,2.0,31,145.53
2387,D4,556.0,0.5,18,145.53
2388,F4,556.5,0.5,19,145.53
2389,D4,557.0,0.5,18,145.53
2390,E4,557.458,979/1000,33,145.53
2391,F4,557.5,1.0,19,145.53
2392,B3,557.5,0.5,23,145.53
2393,G3,558.0,0.5,17,145.53
2394,B3,558.458,3.0,30,145.53
2395,E4,558.458,2.0,36,145.53
2396,C4,558.5,0.5,30,145.53
2397,E-4,558.5,3.0,40,145.53
2398,G3,559.0,0.5,20,145.53
2399,C4,559.5,0.5,30,145.53
2400,G3,560.0,0.5,21,145.53
2401,E-4,560.458,1.0,32,145.53
2402,C4,560.5,0.5,30,145.53
2403,G3,561.0,0.5,20,145.53
2404,E4,561.458,2.0,36,145.53
2405,B3,561.458,3.0,30,145.53
2406,C4,561.5,0.5,34,145.53
2407,E-4,561.5,1.0,40,145.53
2408,G3,562.0,0.5,25,145.53
2409,D4,562.5,0.5,34,145.53
2410,F4,562.5,1.0,40,145.53
2411,G3,563.0,0.5,24,145.53
2412,G4,563.458,1.0,33,145.53
2413,D4,563.5,0.5,34,145.53
2414,F#4,563.5,1.0,35,145.53
2415,G3,564.0,0.5,25,145.53
2416,F#4,564.458,3.0,33,145.53
2417,C4,564.458,3.0,33,145.53
2418,G4,564.5,1.0,40,145.53
2419,E-4,564.5,0.5,34,145.53
2420,G3,565.0,0.5,26,145.53
2421,F4,565.5,0.5,34,145.53
2422,A4,565.5,1.0,36,145.53
2423,G3,566.0,0.5,27,145.53
2424,D4,566.5,0.5,34,145.53
2425,B4,566.5,1.0,40,145.53
2426,G3,567.0,0.5,27,145.53
2427,C#4,567.458,2979/1000,33,145.53
2428,E4,567.458,2979/1000,33,145.53
2429,E-4,567.5,0.5,34,145.53
2430,C5,567.5,1.0,44,145.53
2431,C4,568.0,0.5,26,145.53
2432,F4,568.5,0.5,34,145.53
2433,D5,568.5,1.0,49,145.53
2434,C4,569.0,0.5,34,145.53
2435,G4,569.5,0.5,34,145.53
2436,E-5,569.5,1.0,57,145.53
2437,C4,570.0,0.5,34,145.53
2438,D4,570.458,2.0,36,145.53
2439,G5,570.5,3.0,62,145.53
2440,C#5,570.5,0.5,34,145.53
2441,B-4,570.5,0.5,34,145.53
2442,E4,571.0,0.5,37,145.53
2443,B-4,571.5,0.5,43,145.53
2444,C#5,571.5,0.5,43,145.53
2445,E4,572.0,0.5,36,145.53
2446,B-4,572.5,0.5,43,145.53
2447,C#5,572.5,0.5,43,145.53
2448,E4,573.0,0.5,38,145.53
2449,F5,573.5,2.0,57,145.53
2450,G#4,573.5,0.5,34,145.53
2451,C#5,573.5,0.5,34,145.53
2452,F4,574.0,0.5,31,145.53
2453,C#5,574.5,0.5,38,145.53
2454,G#4,574.5,0.5,38,145.53
2455,F4,575.0,0.5,31,145.53
2456,E-5,575.5,99/100,50,145.53
2457,G#4,575.5,0.5,42,145.53
2458,F4,576.0,0.5,33,145.53
2459,G3,576.458,2.0,45,145.53
2460,E-5,576.5,2.0,51,145.53
2461,G#4,576.5,0.5,43,145.53
2462,F4,577.0,0.5,29,145.53
2463,G#4,577.5,0.5,33,145.53
2464,F4,578.0,0.5,29,145.53
2465,F#3,578.458,1.0,42,145.53
2466,G#4,578.5,0.5,39,145.53
2467,C#5,578.5,1.0,47,145.53
2468,F4,579.0,0.5,29,145.53
2469,G3,579.458,2.0,39,145.53
2470,G#4,579.5,0.5,37,145.53
2471,F5,579.5,2.0,44,145.53
2472,F4,580.0,0.5,29,145.53
2473,G#4,580.5,0.5,29,145.53
2474,F4,581.0,0.5,29,145.53
2475,D3,581.458,1.0,42,145.53
2476,G#4,581.5,0.5,39,145.53
2477,C#5,581.5,1.0,47,145.53
2478,F4,582.0,0.5,32,145.53
2479,C5,582.5,3.0,40,145.53
2480,G4,582.5,0.5,30,145.53
2481,E-4,583.0,0.5,20,145.53
2482,G4,583.5,0.5,30,145.53
2483,E-4,584.0,0.5,21,145.53
2484,G4,584.5,0.5,30,145.53
2485,E-4,585.0,0.5,20,145.53
2486,G4,585.5,0.5,30,145.53
2487,C5,585.5,3.0,40,145.53
2488,E-4,586.0,0.5,22,145.53
2489,G4,586.5,0.5,30,145.53
2490,E-4,587.0,0.5,21,145.53
2491,A4,587.5,0.5,30,145.53
2492,E-4,588.0,0.5,22,145.53
2493,D3,588.458,2.0,42,145.53
2494,B4,588.5,1.0,40,145.53
2495,G4,588.5,0.5,34,145.53
2496,D4,589.0,0.5,26,145.53
2497,C5,589.5,1.0,36,145.53
2498,G4,589.5,0.5,34,145.53
2499,F4,590.0,0.5,27,145.53
2500,C#3,590.458,1.0,39,145.53
2501,D5,590.5,1.0,40,145.53
2502,G4,590.5,0.5,34,145.53
2503,F4,591.0,0.5,27,145.53
2504,D3,591.458,2.0,35,145.53
2505,G4,591.5,0.5,34,145.53
2506,E-5,591.5,1.0,44,145.53
2507,E-4,592.0,0.5,26,145.53
2508,B4,592.5,0.5,34,145.53
2509,F5,592.5,1.0,49,145.53
2510,G4,593.0,0.5,34,145.53
2511,A2,593.458,1.0,37,145.53
2512,C5,593.5,0.5,34,145.53
2513,G5,593.5,0.812,57,145.53
2514,G4,594.0,0.312,34,145.53
2515,B-5,594.5,3.0,62,145.53
2516,C#5,594.5,0.5,34,145.53
2517,B-4,595.0,0.5,37,145.53
2518,C#5,595.5,0.5,43,145.53
2519,B-4,596.0,0.5,36,145.53
2520,C#5,596.5,0.5,43,145.53
2521,B-4,597.0,0.5,38,145.53
2522,D3,597.458,2.0,38,145.53
2523,G#5,597.5,2.0,57,145.53
2524,C#5,597.5,0.5,34,145.53
2525,G#4,598.0,0.5,30,145.53
2526,C#5,598.5,0.5,36,145.53
2527,G#4,599.0,0.5,29,145.53
2528,G#2,599.458,1.0,34,145.53
2529,G5,599.5,99/100,42,145.53
2530,C#5,599.5,0.5,34,145.53
2531,B-4,600.0,0.5,26,145.53
2532,C#5,600.5,0.5,44,145.53
2533,G5,600.5,3.0,52,145.53
2534,B-4,601.0,0.5,33,145.53
2535,C#5,601.5,0.5,40,145.53
2536,B-4,602.0,0.5,31,145.53
2537,C#5,602.5,0.5,39,145.53
2538,B-4,603.0,0.5,29,145.53
2539,D3,603.458,2.0,35,145.53
2540,C#5,603.5,0.5,39,145.53
2541,F5,603.5,2.0,46,145.53
2542,G#4,604.0,0.5,26,145.53
2543,C#5,604.5,0.5,35,145.53
2544,G#4,605.0,0.5,27,145.53
2545,G2,605.458,1.0,32,145.53
2546,C#5,605.5,0.5,32,145.53
2547,E-5,605.5,99/100,38,145.53
2548,G4,606.0,0.5,26,145.53
2549,G2,606.458,3.0,32,145.53
2550,C2,606.458,3.0,32,145.53
2551,E-5,606.5,3.0,44,145.53
2552,C#5,606.5,0.5,34,145.53
2553,G4,607.0,0.5,23,145.53
2554,C#5,607.5,0.5,34,145.53
2555,G4,608.0,0.5,27,145.53
2556,C#5,608.5,0.5,35,145.53
2557,G4,609.0,0.5,26,145.53
2558,C#5,609.5,0.5,29,145.53
2559,E-5,609.5,2.0,44,145.53
2560,G4,610.0,0.5,24,145.53
2561,C#5,610.5,0.5,36,145.53
2562,G4,611.0,0.5,28,145.53
2563,F5,611.5,99/100,55,145.53
2564,C#5,611.5,0.5,32,145.53
2565,G#4,612.0,0.5,31,145.53
2566,C#5,612.5,0.5,34,145.53
2567,E-5,612.5,3.0,45,145.53
2568,G4,613.0,0.5,23,145.53
2569,C#5,613.5,0.5,34,145.53
2570,G4,614.0,0.5,27,145.53
2571,C#5,614.5,0.5,35,145.53
2572,G4,615.0,0.5,26,145.53
2573,C#5,615.5,0.5,29,145.53
2574,E-5,615.5,2.0,45,145.53
2575,G4,616.0,0.5,24,145.53
2576,C#5,616.5,0.5,36,145.53
2577,G4,617.0,0.5,28,145.53
2578,C#5,617.5,0.5,32,145.53
2579,F5,617.5,99/100,55,145.53
2580,G#4,618.0,0.5,31,145.53
2581,G2,618.458,3.0,32,145.53
2582,C2,618.458,3.0,32,145.53
2583,C#5,618.5,0.5,38,145.53
2584,E-5,618.5,3.0,45,145.53
2585,G4,619.0,0.5,26,145.53
2586,C#5,619.5,0.5,38,145.53
2587,G4,620.0,0.5,31,145.53
2588,C#5,620.5,0.5,39,145.53
2589,G4,621.0,0.5,29,145.53
2590,C#5,621.5,0.5,33,145.53
2591,E-5,621.5,2.0,45,145.53
2592,G4,622.0,0.5,27,145.53
2593,C#5,622.5,0.5,40,145.53
2594,G4,623.0,0.5,32,145.53
2595,B-5,623.5,99/100,60,145.53
2596,C#5,623.5,0.5,47,145.53
2597,B-4,624.0,0.5,35,145.53
2598,E-5,624.5,3.0,45,145.53
2599,C#5,624.5,0.5,38,145.53
2600,B-4,625.0,0.5,26,145.53
2601,C#5,625.5,0.5,38,145.53
2602,B-4,626.0,0.5,31,145.53
2603,C#5,626.5,0.5,39,145.53
2604,B-4,627.0,0.5,29,145.53
2605,G2,627.458,3.0,32,145.53
2606,C2,627.458,3.0,32,145.53
2607,C#5,627.5,0.5,33,145.53
2608,E-5,627.5,2.0,45,145.53
2609,B-4,628.0,0.5,27,145.53
2610,C#5,628.5,0.5,40,145.53
2611,B-4,629.0,0.5,32,145.53
2612,C#5,629.5,0.5,47,145.53
2613,B-5,629.5,99/100,60,145.53
2614,B-4,630.0,0.5,35,145.53
2615,C#5,630.5,0.5,38,145.53
2616,E-5,630.5,3.0,45,145.53
2617,B-4,631.0,0.5,26,145.53
2618,C#5,631.5,0.5,38,145.53
2619,B-4,632.0,0.5,31,145.53
2620,C#5,632.5,0.5,39,145.53
2621,B-4,633.0,0.5,29,145.53
2622,G2,633.458,3.0,32,145.53
2623,C2,633.458,3.0,32,145.53
2624,C#5,633.5,0.5,38,145.53
2625,E5,633.5,3.0,45,145.53
2626,B-4,634.0,0.5,26,145.53
2627,C#5,634.5,0.5,38,145.53
2628,B-4,635.0,0.5,32,145.53
2629,C#5,635.5,0.5,40,145.53
2630,B-4,636.0,0.5,30,145.53
2631,F2,636.458,3.0,37,145.53
2632,F1,636.458,3.0,37,145.53
2633,D5,636.5,0.5,41,145.53
2634,E5,636.5,3.0,45,145.53
2635,B4,636.975,0.5,28,145.53
2636,D5,637.5,0.5,41,145.53
2637,B4,638.0,0.5,34,145.53
2638,D5,638.5,0.5,44,145.53
2639,B4,639.0,0.5,33,145.53
2640,F5,639.5,3.0,56,145.53
2641,D5,639.5,0.5,44,145.53
2642,B4,640.0,0.5,30,145.53
2643,D5,640.5,0.5,44,145.53
2644,B4,641.0,0.5,37,145.53
2645,D5,641.5,0.5,47,145.53
2646,B4,642.0,0.5,35,145.53
2647,F2,642.438,2979/1000,37,145.53
2648,F1,642.438,2979/1000,37,145.53
2649,E-5,642.5,0.5,70,145.53
2650,F5,642.5,3.0,56,145.53
2651,C5,643.0,0.5,32,145.53
2652,E-5,643.5,0.5,47,145.53
2653,C5,644.0,0.5,39,145.53
2654,E-5,644.5,0.5,50,145.53
2655,C5,645.0,0.5,37,145.53
2656,F2,645.438,3.0,37,145.53
2657,F1,645.438,3.0,37,145.53
2658,E-5,645.5,0.5,50,145.53
2659,F#5,645.5,3.0,68,145.53
2660,C5,646.0,0.5,34,145.53
2661,E-5,646.5,0.5,50,145.53
2662,C5,647.0,0.5,42,145.53
2663,E-5,647.5,0.5,53,145.53
2664,C5,648.0,0.5,40,145.53
2665,F#5,648.5,0.5,58,145.53
2666,C6,648.5,3.0,69,145.53
2667,C5,649.0,0.5,42,145.53
2668,F#5,649.5,0.5,56,145.53
2669,C5,650.0,0.5,50,145.53
2670,F#5,650.5,0.5,60,145.53
2671,C5,651.0,0.5,48,145.53
2672,F2,651.438,3.0,37,145.53
2673,F1,651.438,3.0,37,145.53
2674,D6,651.5,3.0,69,145.53
2675,F#5,651.5,0.5,56,145.53
2676,C6,651.5,0.5,56,145.53
2677,D5,652.0,0.5,42,145.53
2678,C6,652.5,0.5,53,145.53
2679,F#5,652.5,0.5,53,145.53
2680,D5,653.0,0.5,50,145.53
2681,F#5,653.5,0.5,54,145.53
2682,C6,653.5,0.5,54,145.53
2683,D5,654.0,0.25,48,145.53
2684,G2,654.438,3.0,29,145.53
2685,E-3,654.438,3.0,35,145.53
2686,E6,654.5,3.0,91,145.53
2687,G5,654.5,0.5,42,145.53
2688,C6,654.5,0.5,42,145.53
2689,E5,655.0,0.5,30,145.53
2690,G5,655.5,0.5,33,145.53
2691,C6,655.5,0.5,33,145.53
2692,E5,656.0,0.5,28,145.53
2693,G5,656.5,0.5,33,145.53
2694,C6,656.5,0.5,33,145.53
2695,E5,657.0,0.5,25,145.53
2696,G2,657.438,3.0,29,145.53
2697,E-3,657.438,1.0,35,145.53
2698,E6,657.5,1.0,91,145.53
2699,C6,657.5,0.5,34,145.53
2700,G5,657.5,0.5,34,145.53
2701,E5,658.0,0.5,27,145.53
2702,F3,658.438,1.0,40,145.53
2703,F6,658.5,1.0,67,145.53
2704,D6,658.5,0.5,52,145.53
2705,F5,659.0,0.5,28,145.53
2706,F#3,659.438,1.0,35,145.53
2707,E-6,659.5,0.5,31,145.53
2708,F#6,659.5,1.0,67,145.53
2709,F#5,660.0,0.5,32,145.53
2710,G3,660.438,979/1000,40,145.53
2711,E6,660.5,0.5,70,145.53
2712,G6,660.5,0.5,70,145.53
2713,G5,661.0,0.5,39,145.53
2714,A3,661.438,1.0,36,145.53
2715,G3,661.438,2.0,29,145.53
2716,G6,661.5,0.5,66,145.53
2717,A5,661.5,0.5,66,145.53
2718,G5,662.0,0.5,40,145.53
2719,B3,662.438,1.0,40,145.53
2720,G6,662.5,0.5,66,145.53
2721,B5,662.5,0.5,66,145.53
2722,G5,663.0,0.5,44,145.53
2723,C4,663.438,1.0,37,145.53
2724,G3,663.438,2.0,29,145.53
2725,G6,663.5,0.5,68,145.53
2726,C6,663.5,0.5,68,145.53
2727,G5,664.0,0.5,39,145.53
2728,D4,664.438,1.0,41,145.53
2729,G6,664.5,0.5,66,145.53
2730,D6,664.5,0.5,66,145.53
2731,G5,665.0,0.5,44,145.53
2732,E-4,665.438,0.812,48,145.53
2733,G6,665.5,0.5,72,145.53
2734,E6,665.5,0.5,72,145.53
2735,G5,666.0,0.5,34,145.53
2736,E3,666.25,0.188,34,145.53
2737,B-3,666.312,0.125,34,145.53
2738,C#4,666.375,0.062,34,145.53
2739,G4,666.438,3.0,40,145.53
2740,E3,666.438,3.0,34,145.53
2741,B-3,666.438,3.0,34,145.53
2742,C#4,666.438,3.0,34,145.53
2743,G6,666.5,3.0,85,145.53
2744,B-5,666.5,0.5,56,145.53
2745,E6,666.5,0.5,56,145.53
2746,C#6,666.5,0.5,56,145.53
2747,G5,667.0,0.5,42,145.53
2748,C#6,667.5,0.5,51,145.53
2749,B-5,667.5,0.5,51,145.53
2750,E6,667.5,0.5,51,145.53
2751,G5,668.0,0.5,38,145.53
2752,E6,668.5,0.5,47,145.53
2753,C#6,668.5,0.5,47,145.53
2754,B-5,668.5,0.5,47,145.53
2755,G5,669.0,0.5,38,145.53
2756,G#3,669.438,2.0,36,145.53
2757,C#4,669.438,2.0,36,145.53
2758,F4,669.438,2.0,36,145.53
2759,F3,669.438,2.0,36,145.53
2760,F6,669.5,2.0,74,145.53
2761,D6,669.5,0.5,34,145.53
2762,A5,669.5,0.5,34,145.53
2763,F5,670.0,0.5,31,145.53
2764,D6,670.5,0.5,38,145.53
2765,A5,670.5,0.5,38,145.53
2766,F5,671.0,0.5,31,145.53
2767,C#4,671.438,99/100,30,145.53
2768,G3,671.438,99/100,30,145.53
2769,E-4,671.438,99/100,30,145.53
2770,E6,671.5,99/100,73,145.53
2771,B-5,671.5,0.5,42,145.53
2772,C#6,671.5,0.5,42,145.53
2773,G5,672.0,0.5,33,145.53
2774,G3,672.438,3.0,36,145.53
2775,E-4,672.438,3.0,36,145.53
2776,C#4,672.438,3.0,36,145.53
2777,E6,672.5,2.0,77,145.53
2778,B-5,672.5,0.5,48,145.53
2779,C#6,672.5,0.5,48,145.53
2780,E5,673.0,0.5,29,145.53
2781,B-5,673.5,0.5,37,145.53
2782,C#6,673.5,0.5,37,145.53
2783,E5,674.0,0.5,29,145.53
2784,D6,674.5,1.0,66,145.53
2785,A5,674.5,0.5,51,145.53
2786,D5,675.0,0.5,29,145.53
2787,F4,675.438,2.0,32,145.53
2788,G#3,675.438,2.0,32,145.53
2789,C#4,675.438,2.0,32,145.53
2790,E6,675.5,2.0,72,145.53
2791,C#6,675.5,0.5,47,145.53
2792,A5,675.5,0.5,47,145.53
2793,E5,676.0,0.5,34,145.53
2794,C#6,676.5,0.5,42,145.53
2795,A5,676.5,0.5,42,145.53
2796,E5,677.0,0.5,30,145.53
2797,C#4,677.438,99/100,26,145.53
2798,B-3,677.438,99/100,26,145.53
2799,E-4,677.438,99/100,26,145.53
2800,F6,677.5,1.0,74,145.53
2801,A5,677.5,0.5,48,145.53
2802,D6,677.5,0.5,48,145.53
2803,F5,678.0,0.5,32,145.53
2804,E-4,678.438,3.0,33,145.53
2805,B-3,678.438,3.0,33,145.53
2806,C#4,678.438,3.0,33,145.53
2807,C6,678.5,3.0,70,145.53
2808,G5,678.5,0.5,45,145.53
2809,E5,678.5,0.5,45,145.53
2810,C5,679.0,0.5,25,145.53
2811,G5,679.5,0.5,42,145.53
2812,E5,679.5,0.5,42,145.53
2813,C5,680.0,0.5,27,145.53
2814,E5,680.5,0.5,40,145.53
2815,G5,680.5,0.5,40,145.53
2816,C5,681.0,0.5,23,145.53
2817,B5,681.5,2.0,72,145.53
2818,D5,681.5,0.5,47,145.53
2819,G5,681.5,0.5,47,145.53
2820,B4,682.0,0.5,36,145.53
2821,D5,682.5,0.5,57,145.53
2822,G5,682.5,0.5,57,145.53
2823,B4,683.0,0.5,39,145.53
2824,E-4,683.438,2.0,33,145.53
2825,B-3,683.438,2.0,33,145.53
2826,C#4,683.438,2.0,33,145.53
2827,A5,683.5,1.0,64,145.53
2828,D5,683.5,0.5,59,145.53
2829,A4,684.0,0.5,41,145.53
2830,G5,684.5,0.5,54,145.53
2831,B5,684.5,1.0,70,145.53
2832,D5,685.0,0.5,44,145.53
2833,G#3,685.438,99/100,37,145.53
2834,F4,685.438,99/100,37,145.53
2835,C#4,685.438,99/100,37,145.53
2836,C6,685.5,1.0,70,145.53
2837,G5,685.5,0.5,54,145.53
2838,C5,686.0,0.5,44,145.53
2839,B-3,686.438,3.0,33,145.53
2840,E-4,686.438,3.0,33,145.53
2841,C#4,686.438,3.0,33,145.53
2842,D6,686.5,1.0,72,145.53
2843,G5,686.5,0.5,56,145.53
2844,D5,687.0,0.5,47,145.53
2845,G5,687.5,0.5,58,145.53
2846,E6,687.5,1.0,75,145.53
2847,E5,688.0,0.5,47,145.53
2848,F6,688.5,1.0,75,145.53
2849,B5,688.5,0.5,58,145.53
2850,F5,689.0,0.5,51,145.53
2851,C6,689.5,0.5,62,145.53
2852,G6,689.5,1.0,80,145.53
2853,G5,690.0,0.5,55,145.53
2854,C#6,690.5,0.5,69,145.53
2855,G6,690.5,2.0,76,145.53
2856,B-6,690.5,2.0,76,145.53
2857,B-5,691.0,0.5,56,145.53
2858,B-3,691.438,2.0,33,145.53
2859,E-4,691.438,2.0,33,145.53
2860,C#4,691.438,2.0,33,145.53
2861,C#6,691.5,0.5,64,145.53
2862,B-5,692.0,0.5,53,145.53
2863,C6,692.5,0.5,69,145.53
2864,F6,692.5,1.0,76,145.53
2865,A6,692.5,1.0,76,145.53
2866,A5,693.0,0.5,56,145.53
2867,C#4,693.438,99/100,37,145.53
2868,F4,693.438,99/100,37,145.53
2869,G#3,693.438,99/100,37,145.53
2870,B-3,694.438,3.0,33,145.53
2871,E-4,694.438,3.0,33,145.53
2872,C#4,694.438,3.0,33,145.53
2873,C6,694.5,0.5,64,145.53
2874,F6,694.5,1.0,76,145.53
2875,A6,694.5,1.0,76,145.53
2876,A5,695.0,0.5,53,145.53
2877,C6,695.5,0.5,69,145.53
2878,G#6,695.5,2.0,76,145.53
2879,E-6,695.5,2.0,76,145.53
2880,G#5,696.0,0.5,56,145.53
2881,C6,696.5,0.5,64,145.53
2882,G#5,697.0,0.5,53,145.53
2883,C6,697.5,0.5,69,145.53
2884,G6,697.5,2.0,76,145.53
2885,E-6,697.5,2.0,76,145.53
2886,G5,698.0,0.5,56,145.53
2887,C6,698.5,0.5,64,145.53
2888,G5,699.0,0.5,53,145.53
2889,B-3,699.25,1.812,33,145.53
2890,E-4,699.25,1.812,33,145.53
2891,C#4,699.25,1.812,33,145.53
2892,C6,699.5,0.5,69,145.53
2893,E-6,699.5,1.0,76,145.53
2894,F#6,699.5,1.0,76,145.53
2895,F#5,700.0,0.5,56,145.53
2896,F3,701.062,1.188,35,145.53
2897,G#3,701.125,223/200,35,145.53
2898,C#4,701.188,263/250,35,145.53
2899,F4,701.25,99/100,41,145.53
2900,C6,701.5,0.5,64,145.53
2901,E-6,701.5,1.0,76,145.53
2902,F#6,701.5,1.0,76,145.53
2903,F#5,702.0,0.5,53,145.53
2904,G3,702.25,3.0,33,145.53
2905,E-4,702.25,3.0,33,145.53
2906,C#4,702.25,3.0,33,145.53
2907,F6,702.5,2.0,82,145.53
2908,D6,702.5,0.5,69,145.53
2909,F5,703.0,0.5,56,145.53
2910,D6,703.5,0.5,64,145.53
2911,F5,704.0,0.5,53,145.53
2912,E6,704.5,2.0,82,145.53
2913,C6,704.5,0.5,62,145.53
2914,G5,704.5,0.5,62,145.53
2915,E5,705.0,0.5,56,145.53
2916,C6,705.5,0.5,58,145.53
2917,G5,705.5,0.5,58,145.53
2918,E5,706.0,0.5,53,145.53
2919,G6,706.5,1.0,82,145.53
2920,E6,706.5,0.5,62,145.53
2921,B-5,706.5,0.5,62,145.53
2922,G5,707.0,0.5,56,145.53
2923,G3,707.062,1.812,33,145.53
2924,E-4,707.062,1.812,33,145.53
2925,C#4,707.062,1.812,33,145.53
2926,F6,707.5,2.0,82,145.53
2927,D6,707.5,0.5,62,145.53
2928,A5,707.5,0.5,62,145.53
2929,F5,708.0,0.5,56,145.53
2930,D6,708.5,0.5,58,145.53
2931,A5,708.5,0.5,58,145.53
2932,F3,708.875,1.188,35,145.53
2933,G#3,708.938,223/200,35,145.53
2934,F5,709.0,0.5,53,145.53
2935,C#4,709.0,263/250,35,145.53
2936,F4,709.062,99/100,41,145.53
2937,D6,709.5,1.0,82,145.53
2938,A5,709.5,0.5,56,145.53
2939,D5,710.0,0.5,56,145.53
2940,E-4,710.062,3.0,37,145.53
2941,G3,710.062,3.0,31,145.53
2942,C#4,710.062,3.0,31,145.53
2943,C6,710.5,3.0,82,145.53
2944,G5,710.5,0.5,62,145.53
2945,E5,710.5,0.5,62,145.53
2946,C5,711.0,0.5,56,145.53
2947,G5,711.5,0.5,58,145.53
2948,E5,711.5,0.5,58,145.53
2949,C5,712.0,0.5,53,145.53
2950,G5,712.5,0.5,54,145.53
2951,E5,712.5,0.5,54,145.53
2952,C5,713.0,0.375,56,145.53
2953,F5,713.375,0.125,50,145.53
2954,B5,713.438,0.062,62,145.53
2955,E6,713.5,2.0,73,145.53
2956,F5,713.5,0.5,50,145.53
2957,B5,713.5,0.5,62,145.53
2958,E5,714.0,0.5,50,145.53
2959,B5,714.5,0.5,52,145.53
2960,F5,714.5,0.5,52,145.53
2961,E5,715.0,0.5,47,145.53
2962,D6,715.5,1.0,73,145.53
2963,F5,715.5,0.5,48,145.53
2964,B5,715.5,0.5,48,145.53
2965,E5,716.0,0.5,50,145.53
2966,E4,716.062,3.0,37,145.53
2967,G3,716.062,3.0,31,145.53
2968,C#4,716.062,3.0,31,145.53
2969,C6,716.5,3.0,73,145.53
2970,E5,716.5,0.5,56,145.53
2971,G5,716.5,0.5,56,145.53
2972,C5,717.0,0.5,50,145.53
2973,G5,717.5,0.5,52,145.53
2974,E5,717.5,0.5,52,145.53
2975,C5,718.0,0.5,47,145.53
2976,E5,718.5,0.5,48,145.53
2977,G5,718.5,0.5,48,145.53
2978,C5,719.0,0.5,50,145.53
2979,E4,719.062,3.0,37,145.53
2980,D4,719.062,3.0,33,145.53
2981,G#3,719.062,3.0,33,145.53
2982,C6,719.5,3.0,73,145.53
2983,G5,719.5,0.5,56,145.53
2984,B-5,719.5,0.5,56,145.53
2985,C5,720.0,0.5,50,145.53
2986,G5,720.5,0.5,52,145.53
2987,B-5,720.5,0.5,52,145.53
2988,C5,721.0,0.5,47,145.53
2989,G5,721.5,0.5,48,145.53
2990,B-5,721.5,0.5,48,145.53
2991,C5,722.0,0.5,50,145.53
2992,F4,722.062,3.0,42,145.53
2993,D4,722.062,3.0,33,145.53
2994,G#3,722.062,3.0,33,145.53
2995,C6,722.5,3.0,73,145.53
2996,F5,722.5,0.5,56,145.53
2997,A5,722.5,0.5,56,145.53
2998,C5,723.0,0.5,50,145.53
2999,F5,723.5,0.5,52,145.53
3000,A5,723.5,0.5,52,145.53
3001,C5,724.0,0.5,47,145.53
3002,F5,724.5,0.5,48,145.53
3003,A5,724.5,0.5,48,145.53
3004,C5,725.0,0.5,50,145.53
3005,F4,725.062,3.0,42,145.53
3006,A3,725.062,3.0,44,145.53
3007,E-4,725.062,3.0,44,145.53
3008,C6,725.5,3.0,73,145.53
3009,D5,725.5,0.5,56,145.53
3010,F5,725.5,0.5,56,145.53
3011,C5,726.0,0.5,50,145.53
3012,D5,726.5,0.5,52,145.53
3013,F5,726.5,0.5,52,145.53
3014,C5,727.0,0.5,47,145.53
3015,D5,727.5,0.5,48,145.53
3016,F5,727.5,0.5,48,145.53
3017,C5,728.0,0.5,50,145.53
3018,F#4,728.062,3.0,57,145.53
3019,A3,728.062,3.0,44,145.53
3020,E-4,728.062,3.0,44,145.53
3021,C6,728.5,3.0,73,145.53
3022,E5,728.5,0.5,56,145.53
3023,G5,728.5,0.5,56,145.53
3024,C5,729.0,0.5,50,145.53
3025,E5,729.5,0.5,52,145.53
3026,G5,729.5,0.5,52,145.53
3027,C5,730.0,0.5,47,145.53
3028,E5,730.5,0.5,48,145.53
3029,G5,730.5,0.5,48,145.53
3030,C5,731.0,0.5,50,145.53
3031,E-3,731.062,3.0,56,145.53
3032,A3,731.062,3.0,56,145.53
3033,A2,731.062,3.0,56,145.53
3034,C5,731.5,3.0,65,145.53
3035,G4,731.5,0.5,40,145.53
3036,B-4,731.5,0.5,40,145.53
3037,C4,732.0,0.5,36,145.53
3038,G4,732.5,0.5,36,145.53
3039,B-4,732.5,0.5,36,145.53
3040,C4,733.0,0.5,32,145.53
3041,G4,733.5,0.5,34,145.53
3042,B-4,733.5,0.5,34,145.53
3043,C4,734.0,0.5,35,145.53
3044,C2,734.062,2917/1000,52,145.53
3045,A2,734.062,3.0,64,145.53
3046,A1,734.062,3.0,64,145.53
3047,C5,734.5,3.0,65,145.53
3048,F4,734.5,0.5,39,145.53
3049,A4,734.5,0.5,39,145.53
3050,C4,735.0,0.5,34,145.53
3051,F4,735.5,0.5,36,145.53
3052,A4,735.5,0.5,36,145.53
3053,C4,736.0,0.5,32,145.53
3054,F4,736.5,0.5,33,145.53
3055,A4,736.5,0.5,33,145.53
3056,G1,736.812,83/1000,54,145.53
3057,C2,736.896,167/1000,59,145.53
3058,G2,736.979,83/1000,63,145.53
3059,C4,737.0,0.5,33,145.53
3060,G3,737.062,3.0,61,145.53
3061,G4,737.062,3.0,66,145.53
3062,E4,737.062,3.0,66,145.53
3063,C5,737.5,3.0,65,145.53
3064,D4,737.5,0.5,37,145.53
3065,F4,737.5,0.5,37,145.53
3066,C4,738.0,0.5,33,145.53
3067,D4,738.5,0.5,34,145.53
3068,F4,738.5,0.5,34,145.53
3069,C4,739.0,0.5,31,145.53
3070,D4,739.5,0.5,32,145.53
3071,F4,739.5,0.5,32,145.53
3072,C4,740.0,0.5,32,145.53
3073,C5,740.5,3.0,65,145.53
3074,E4,740.5,0.5,36,145.53
3075,G4,740.5,0.5,36,145.53
3076,C4,741.0,0.5,32,145.53
3077,G3,741.062,2979/1000,61,145.53
3078,G4,741.062,1.0,66,145.53
3079,E4,741.062,1.0,66,145.53
3080,E4,741.5,0.5,33,145.53
3081,G4,741.5,0.5,33,145.53
3082,C4,742.0,0.5,29,145.53
3083,D4,742.062,1.0,54,145.53
3084,F4,742.062,1.0,54,145.53
3085,E4,742.5,0.5,30,145.53
3086,G4,742.5,0.5,30,145.53
3087,C4,743.0,0.5,32,145.53
3088,E-4,743.062,1.0,54,145.53
3089,F#4,743.062,1.0,54,145.53
3090,E4,743.5,0.5,38,145.53
3091,C5,743.5,3.0,65,145.53
3092,C4,744.0,0.5,31,145.53
3093,G3,744.062,2.5,52,145.53
3094,E4,744.062,1.0,57,145.53
3095,G4,744.062,1.0,57,145.53
3096,E4,744.5,0.5,35,145.53
3097,C4,745.0,0.5,28,145.53
3098,C4,745.062,1.0,52,145.53
3099,A4,745.062,1.0,52,145.53
3100,E4,745.5,0.5,30,145.53
3101,C4,746.0,0.5,30,145.53
3102,B4,746.062,0.875,52,145.53
3103,D4,746.062,0.875,52,145.53
3104,E4,746.5,0.5,37,145.53
3105,C5,746.5,3.0,65,145.53
3106,G3,746.938,0.125,55,145.53
3107,C4,747.0,0.5,30,145.53
3108,E4,747.0,0.062,55,145.53
3109,C5,747.062,1.0,65,145.53
3110,G3,747.062,1.0,55,145.53
3111,E4,747.062,1.0,55,145.53
3112,E4,747.5,0.5,33,145.53
3113,C4,748.0,0.5,27,145.53
3114,F4,748.062,1.0,50,145.53
3115,D5,748.062,1.0,50,145.53
3116,E4,748.5,0.5,28,145.53
3117,C4,749.0,0.5,28,145.53
3118,G4,749.062,1.0,50,145.53
3119,E5,749.062,1.0,50,145.53
3120,E4,749.5,0.5,35,145.53
3121,C5,749.5,3.0,65,145.53
3122,F1,749.812,0.125,54,145.53
3123,F2,749.938,0.125,55,145.53
3124,C4,750.0,0.5,27,145.53
3125,F3,750.062,3.0,59,145.53
3126,C#4,750.062,3.0,63,145.53
3127,B-3,750.062,3.0,63,145.53
3128,E4,750.062,3.0,63,145.53
3129,E4,750.5,0.5,31,145.53
3130,C4,751.0,0.5,24,145.53
3131,E4,751.5,0.5,26,145.53
3132,C4,752.0,0.5,26,145.53
3133,E4,752.5,0.5,34,145.53
3134,C4,753.0,0.5,26,145.53
3135,F3,753.062,2.0,59,145.53
3136,D4,753.062,2.0,63,145.53
3137,F4,753.062,2.0,63,145.53
3138,A3,753.062,2.0,63,145.53
3139,E4,753.5,0.5,30,145.53
3140,C4,754.0,0.5,24,145.53
3141,E4,754.5,0.5,26,145.53
3142,C4,755.0,0.5,26,145.53
3143,G3,755.062,1.0,59,145.53
3144,E4,755.5,0.5,33,145.53
3145,C4,756.0,0.5,25,145.53
3146,F2,756.062,3.0,61,145.53
3147,G3,756.062,2.0,72,145.53
3148,E4,756.5,0.5,29,145.53
3149,C4,757.0,0.5,23,145.53
3150,E4,757.5,0.5,25,145.53
3151,C4,758.0,0.5,25,145.53
3152,F3,758.062,1.0,61,145.53
3153,E4,758.5,0.5,32,145.53
3154,C4,759.0,0.5,24,145.53
3155,E3,759.062,2.0,68,145.53
3156,F2,759.062,3.0,61,145.53
3157,E4,759.5,0.5,28,145.53
3158,C4,760.0,0.5,22,145.53
3159,E4,760.5,0.5,24,145.53
3160,C4,761.0,0.5,24,145.53
3161,D3,761.062,1.0,58,145.53
3162,E4,761.5,0.5,31,145.53
3163,C4,762.0,0.5,24,145.53
3164,G2,762.062,3.0,56,145.53
3165,E3,762.062,3.0,67,145.53
3166,E4,762.5,0.5,27,145.53
3167,C4,763.0,0.5,22,145.53
3168,E4,763.5,0.5,23,145.53
3169,C4,764.0,0.5,23,145.53
3170,E4,764.5,0.5,30,145.53
3171,C4,765.0,0.5,23,145.53
3172,G2,765.062,3.0,56,145.53
3173,E3,765.062,1.0,67,145.53
3174,E4,765.5,0.5,26,145.53
3175,C4,766.0,0.5,21,145.53
3176,F3,766.062,1.0,64,145.53
3177,E4,766.5,0.5,22,145.53
3178,C4,767.0,0.5,22,145.53
3179,F#3,767.062,1.0,56,145.53
3180,E4,767.5,0.5,29,145.53
3181,C4,768.0,0.5,22,145.53
3182,G3,768.062,3.0,64,145.53
3183,E4,768.5,0.5,25,145.53
3184,C4,769.0,0.5,20,145.53
3185,A3,769.062,1.0,57,145.53
3186,E4,769.5,0.5,22,145.53
3187,C4,770.0,0.5,22,145.53
3188,B3,770.062,1.0,64,145.53
3189,E4,770.5,0.75,28,145.53
3190,C4,771.062,1.0,59,145.53
3191,G3,771.062,3.0,64,145.53
3192,C4,771.25,0.75,22,145.53
3193,E4,772.0,0.75,27,145.53
3194,D4,772.062,1.0,65,145.53
3195,C4,772.75,0.75,22,145.53
3196,E4,773.062,1.0,76,145.53
3197,E4,773.5,1.0,27,145.53
3198,C#3,774.062,2.0,47,145.53
3199,B-2,774.062,2.0,47,145.53
3200,E2,774.062,2.0,47,145.53
3201,E3,774.062,2.0,47,145.53
3202,C4,774.5,1.0,22,145.53
3203,E4,775.5,1.0,26,145.53
3204,F3,776.062,1.0,48,145.53
3205,F2,776.062,1.0,48,145.53
3206,C3,776.062,1.0,48,145.53
3207,C4,776.5,1.0,20,145.53
3208,E4,777.5,1.0,25,145.53
3209,F3,778.062,1.0,48,145.53
3210,F2,778.062,1.0,48,145.53
3211,C3,778.062,1.0,48,145.53
3212,C4,778.5,1.0,20,145.53
3213,E-3,779.062,2.0,47,145.53
3214,C3,779.062,2.0,47,145.53
3215,F#2,779.062,2.0,47,145.53
3216,F#3,779.062,2.0,47,145.53
3217,E4,779.5,429/1000,60,145.53
3218,D4,779.929,431/1000,62,145.53
3219,C4,780.36,429/1000,64,145.53
3220,B3,780.79,429/1000,66,145.53
3221,G2,781.062,2.0,47,145.53
3222,C3,781.062,2.0,47,145.53
3223,E-3,781.062,2.0,47,145.53
3224,G3,781.062,2.0,47,145.53
3225,A3,781.219,431/1000,69,145.53
3226,G3,781.65,429/1000,71,145.53
3227,F3,782.079,421/1000,73,145.53
3228,E3,782.5,0.5,82,145.53
3229,C3,783.062,1.0,47,145.53
3230,A2,783.062,1.0,47,145.53
3231,E-3,783.062,1.0,47,145.53
3232,A3,783.062,1.0,47,145.53
3233,B5,784.0,1.5,67,145.53
3234,D6,784.0,1.5,67,145.53
3235,D5,784.0,1.5,67,145.53
3236,C3,785.062,1.0,47,145.53
3237,A2,785.062,1.0,47,145.53
3238,E-3,785.062,1.0,47,145.53
3239,A3,785.062,1.0,47,145.53
3240,C5,785.5,1.5,69,145.53
3241,C6,785.5,1.5,69,145.53
3242,A5,785.5,1.5,69,145.53
3243,D3,786.062,2.0,47,145.53
3244,B2,786.062,2.0,47,145.53
3245,G3,786.062,2.0,47,145.53
3246,B3,786.062,2.0,47,145.53
3247,F#5,787.0,1.5,67,145.53
3248,A4,787.0,1.5,67,145.53
3249,A5,787.0,1.5,67,145.53
3250,E3,788.062,2.0,47,145.53
3251,C3,788.062,2.0,47,145.53
3252,G3,788.062,2.0,47,145.53
3253,C4,788.062,2.0,47,145.53
3254,B5,788.5,0.25,63,145.53
3255,B4,788.5,0.25,63,145.53
3256,G5,788.5,0.25,63,145.53
3257,E5,789.0,0.25,55,145.53
3258,G5,789.0,0.25,55,145.53
3259,G4,789.0,0.25,55,145.53
3260,F#5,789.5,0.25,60,145.53
3261,A4,789.5,0.25,60,145.53
3262,A5,789.5,0.25,60,145.53
3263,E-5,790.0,0.25,56,145.53
3264,F#5,790.0,0.25,56,145.53
3265,F#4,790.0,0.25,56,145.53
3266,G3,790.062,1.0,47,145.53
3267,C#3,790.062,1.0,47,145.53
3268,B-3,790.062,1.0,47,145.53
3269,C#4,790.062,1.0,47,145.53
3270,G5,790.5,0.25,63,145.53
3271,G4,790.5,0.25,63,145.53
3272,E5,790.5,0.25,63,145.53
3273,E4,791.0,0.25,57,145.53
3274,C#5,791.0,0.25,57,145.53
3275,E5,791.0,0.25,57,145.53
3276,F3,791.062,2.0,47,145.53
3277,D3,791.062,2.0,47,145.53
3278,A3,791.062,2.0,47,145.53
3279,D4,791.062,2.0,47,145.53
3280,E-5,791.5,0.25,63,145.53
3281,F#4,791.5,0.25,63,145.53
3282,F#5,791.5,0.25,63,145.53
3283,F#4,792.5,0.25,62,145.53
3284,E-5,792.5,0.25,62,145.53
3285,F#5,792.5,0.25,62,145.53
3286,A3,793.062,1.0,47,145.53
3287,F3,793.062,1.0,47,145.53
3288,D4,793.062,1.0,47,145.53
3289,F4,793.062,1.0,47,145.53
3290,C4,794.062,3.0,47,145.53
3291,G3,794.062,3.0,47,145.53
3292,E4,794.062,3.0,47,145.53
3293,G4,794.062,3.0,47,145.53
3294,C#4,795.0,0.25,57,145.53
3295,C#5,795.0,0.25,57,145.53
3296,E-5,795.5,0.25,59,145.53
3297,E-4,795.5,0.25,59,145.53
3298,E5,796.0,0.25,61,145.53
3299,E4,796.0,0.25,61,145.53
3300,F#4,796.5,0.25,62,145.53
3301,F#5,796.5,0.25,62,145.53
3302,G5,797.0,0.25,64,145.53
3303,G4,797.0,0.25,64,145.53
3304,G1,797.062,3.0,44,145.53
3305,G2,797.062,3.0,44,145.53
3306,F#5,797.5,0.25,63,145.53
3307,E-5,797.5,0.25,63,145.53
3308,F#4,797.5,0.25,63,145.53
3309,B5,798.5,0.25,64,145.53
3310,B4,798.5,0.25,64,145.53
3311,G2,800.062,3.0,42,145.53
3312,C2,800.062,3.0,42,145.53
3313,C3,800.062,3.0,42,145.53
3314,C#4,801.0,0.25,57,145.53
3315,C#5,801.0,0.25,57,145.53
3316,E-5,801.5,0.25,59,145.53
3317,E-4,801.5,0.25,59,145.53
3318,E4,802.0,0.25,61,145.53
3319,E5,802.0,0.25,61,145.53
3320,F#5,802.5,0.25,62,145.53
3321,F#4,802.5,0.25,62,145.53
3322,G4,803.0,0.25,64,145.53
3323,G5,803.0,0.25,64,145.53
3324,G3,803.062,3.0,40,145.53
3325,B-3,803.062,3.0,40,145.53
3326,C3,803.062,3.0,44,145.53
3327,C4,803.062,3.0,44,145.53
3328,A4,803.5,0.25,63,145.53
3329,F#5,803.5,0.25,63,145.53
3330,A5,803.5,0.25,63,145.53
3331,D6,804.5,0.25,64,145.53
3332,D5,804.5,0.25,64,145.53
3333,G3,806.5,0.5,76,145.53
3334,F6,808.0,1.5,67,145.53
3335,A5,808.0,1.5,67,145.53
3336,A6,808.0,1.5,67,145.53
3337,E6,809.5,1.5,69,145.53
3338,G6,809.5,1.5,69,145.53
3339,G5,809.5,1.5,69,145.53
3340,E6,811.0,1.5,67,145.53
3341,E5,811.0,1.5,67,145.53
3342,C6,811.0,1.5,67,145.53
3343,F6,812.5,0.25,63,145.53
3344,F5,812.5,0.25,63,145.53
3345,D6,812.5,0.25,63,145.53
3346,D5,813.0,0.25,55,145.53
3347,D6,813.0,0.25,55,145.53
3348,B5,813.0,0.25,55,145.53
3349,F3,813.062,3.0,40,145.53
3350,A3,813.062,3.0,40,145.53
3351,C3,813.062,3.0,44,145.53
3352,C4,813.062,3.0,44,145.53
3353,E5,813.5,0.25,60,145.53
3354,E6,813.5,0.25,60,145.53
3355,C6,813.5,0.25,60,145.53
3356,C6,814.0,0.25,56,145.53
3357,C5,814.0,0.25,56,145.53
3358,A5,814.0,0.25,56,145.53
3359,B5,814.5,0.25,63,145.53
3360,D6,814.5,0.25,63,145.53
3361,D5,814.5,0.25,63,145.53
3362,B5,815.0,0.25,57,145.53
3363,B4,815.0,0.25,57,145.53
3364,G5,815.0,0.25,57,145.53
3365,A5,815.5,0.25,63,145.53
3366,C5,815.5,0.25,63,145.53
3367,C6,815.5,0.25,63,145.53
3368,D3,816.062,3.0,40,145.53
3369,F3,816.062,3.0,40,145.53
3370,C3,816.062,3.0,44,145.53
3371,C4,816.062,3.0,44,145.53
3372,C6,816.5,0.25,62,145.53
3373,C5,816.5,0.25,62,145.53
3374,A5,816.5,0.25,62,145.53
3375,F5,817.0,1.5,63,145.53
3376,A4,817.0,1.5,63,145.53
3377,A5,817.0,1.5,63,145.53
3378,G4,819.0,0.25,52,145.53
3379,G5,819.0,0.25,52,145.53
3380,E3,819.062,1.0,47,145.53
3381,G3,819.062,1.0,47,145.53
3382,C3,819.062,1.0,44,145.53
3383,C4,819.062,1.0,44,145.53
3384,B4,819.5,0.25,54,145.53
3385,B5,819.5,0.25,54,145.53
3386,C6,820.0,0.25,56,145.53
3387,C5,820.0,0.25,56,145.53
3388,E2,820.062,0.5,40,145.53
3389,E3,820.062,0.5,40,145.53
3390,D6,820.5,0.25,57,145.53
3391,D5,820.5,0.25,57,145.53
3392,E5,821.0,0.25,59,145.53
3393,E6,821.0,0.25,59,145.53
3394,F2,821.062,0.5,40,145.53
3395,F3,821.062,0.5,40,145.53
3396,G5,821.375,0.125,60,145.53
3397,C6,821.438,0.062,60,145.53
3398,G6,821.5,0.25,70,145.53
3399,G5,821.5,0.25,60,145.53
3400,C6,821.5,0.25,60,145.53
3401,B-2,822.062,3.0,51,145.53
3402,D2,822.062,0.5,51,145.53
3403,D3,822.062,0.5,51,145.53
3404,F6,822.5,0.25,54,145.53
3405,F5,822.5,0.25,54,145.53
3406,C6,823.0,1.5,52,145.53
3407,C5,823.0,1.5,52,145.53
3408,E2,823.062,0.5,42,145.53
3409,E3,823.062,0.5,42,145.53
3410,C2,824.062,1.0,42,145.53
3411,C3,824.062,1.0,42,145.53
3412,A4,825.0,0.25,53,145.53
3413,A5,825.0,0.25,53,145.53
3414,F2,825.062,3.0,47,145.53
3415,A2,825.062,3.0,47,145.53
3416,C2,825.062,3.0,42,145.53
3417,C3,825.062,3.0,42,145.53
3418,B5,825.5,0.25,58,145.53
3419,B4,825.5,0.25,58,145.53
3420,C5,826.0,0.25,62,145.53
3421,C6,826.0,0.25,62,145.53
3422,D6,826.5,0.25,67,145.53
3423,D5,826.5,0.25,67,145.53
3424,E6,827.0,0.25,72,145.53
3425,E5,827.0,0.25,72,145.53
3426,G5,827.375,0.125,75,145.53
3427,E-6,827.438,0.062,75,145.53
3428,G6,827.5,0.25,87,145.53
3429,G5,827.5,0.25,75,145.53
3430,E-6,827.5,0.25,75,145.53
3431,D2,828.062,3.0,43,145.53
3432,F2,828.062,3.0,43,145.53
3433,C2,828.062,3.0,42,145.53
3434,C3,828.062,3.0,42,145.53
3435,F#6,828.5,0.25,64,145.53
3436,F#5,828.5,0.25,64,145.53
3437,A4,829.0,1.5,62,145.53
3438,A5,829.0,1.5,62,145.53
3439,C3,830.5,0.5,76,145.53
3440,E2,831.062,0.5,42,145.53
3441,G2,831.062,0.5,42,145.53
3442,G4,832.0,1.5,63,145.53
3443,B-4,832.0,1.5,63,145.53
3444,B-3,832.0,1.5,63,145.53
3445,E2,832.062,0.5,35,145.53
3446,F2,833.062,0.5,32,145.53
3447,A3,833.5,1.5,65,145.53
3448,A4,833.5,1.5,65,145.53
3449,F4,833.5,1.5,65,145.53
3450,D2,834.062,0.5,38,145.53
3451,D4,835.0,1.5,63,145.53
3452,F4,835.0,1.5,63,145.53
3453,F3,835.0,1.5,63,145.53
3454,E2,835.062,0.5,31,145.53
3455,C2,836.062,1.0,30,145.53
3456,G3,836.5,0.25,59,145.53
3457,G4,836.5,0.25,59,145.53
3458,E4,836.5,0.25,59,145.53
3459,E4,837.0,0.25,54,145.53
3460,E3,837.0,0.25,54,145.53
3461,C2,837.062,3.0,30,145.53
3462,F4,837.5,0.25,59,145.53
3463,F3,837.5,0.25,59,145.53
3464,D4,838.0,0.25,54,145.53
3465,D3,838.0,0.25,54,145.53
3466,E4,838.5,0.25,61,145.53
3467,E3,838.5,0.25,61,145.53
3468,C#4,839.0,0.25,56,145.53
3469,C#3,839.0,0.25,56,145.53
3470,D4,839.5,0.25,61,145.53
3471,D3,839.5,0.25,61,145.53
3472,C2,840.062,3.0,30,145.53
3473,D3,840.5,0.25,60,145.53
3474,D4,840.5,0.25,60,145.53
3475,E-3,842.5,0.5,76,145.53
3476,C2,843.062,1.0,30,145.53
3477,C#5,844.0,1.5,63,145.53
3478,B-4,844.0,1.5,63,145.53
3479,C#4,844.0,1.5,63,145.53
3480,C2,844.062,0.5,30,145.53
3481,D2,845.062,0.5,29,145.53
3482,C5,845.5,1.5,65,145.53
3483,G#4,845.5,1.5,65,145.53
3484,C4,845.5,1.5,65,145.53
3485,B1,846.062,0.5,34,145.53
3486,G#4,847.0,1.5,63,145.53
3487,F4,847.0,1.5,63,145.53
3488,G#3,847.0,1.5,63,145.53
3489,C2,847.062,0.5,28,145.53
3490,A1,848.062,1.0,27,145.53
3491,B-3,848.5,0.25,59,145.53
3492,G4,848.5,0.25,59,145.53
3493,B-4,848.5,0.25,59,145.53
3494,G4,849.0,0.25,54,145.53
3495,G3,849.0,0.25,54,145.53
3496,A1,849.062,3.0,27,145.53
3497,G#4,849.5,0.25,59,145.53
3498,G#3,849.5,0.25,59,145.53
3499,F4,850.0,0.25,54,145.53
3500,F3,850.0,0.25,54,145.53
3501,G4,850.5,0.25,61,145.53
3502,G3,850.5,0.25,61,145.53
3503,E4,851.0,0.25,56,145.53
3504,E3,851.0,0.25,56,145.53
3505,F3,851.5,0.25,61,145.53
3506,F4,851.5,0.25,61,145.53
3507,A1,852.062,3.0,27,145.53
3508,F3,852.5,0.25,60,145.53
3509,F4,852.5,0.25,60,145.53
3510,F#3,854.5,0.5,76,145.53
3511,A1,855.062,1.0,27,145.53
3512,E5,856.0,1.5,72,145.53
3513,E6,856.0,1.5,72,145.53
3514,C#6,856.0,1.5,72,145.53
3515,A1,856.062,0.5,26,145.53
3516,B1,857.062,0.5,26,145.53
3517,B5,857.5,1.5,75,145.53
3518,E-6,857.5,1.5,75,145.53
3519,E-5,857.5,1.5,75,145.53
3520,G1,858.062,0.5,30,145.53
3521,B4,859.0,1.5,72,145.53
3522,B5,859.0,1.5,72,145.53
3523,G#5,859.0,1.5,72,145.53
3524,A1,859.062,0.5,24,145.53
3525,F1,860.062,1.0,24,145.53
3526,F1,861.062,3.0,24,145.53
3527,E4,862.0,1.5,42,145.53
3528,D4,863.5,1.5,41,145.53
3529,F1,864.062,3.0,24,145.53
3530,B3,865.0,1.5,42,145.53
3531,F#3,866.5,0.5,91,145.53
3532,F1,867.062,3.0,24,145.53
3533,E6,867.5,0.5,69,145.53
3534,C#6,867.5,0.5,69,145.53
3535,E5,867.5,0.5,69,145.53
3536,B5,868.0,1.0,75,145.53
3537,E-5,868.0,1.0,75,145.53
3538,E-6,868.0,1.0,75,145.53
3539,B4,869.0,0.5,69,145.53
3540,B5,869.0,0.5,69,145.53
3541,G#5,869.0,0.5,69,145.53
3542,E2,870.062,429/1000,47,145.53
3543,D2,870.492,431/1000,49,145.53
3544,G#6,870.5,0.5,69,145.53
3545,G#5,870.5,0.5,69,145.53
3546,E6,870.5,0.5,69,145.53
3547,C2,870.923,429/1000,52,145.53
3548,F#6,871.0,1.0,75,145.53
3549,E-6,871.0,1.0,75,145.53
3550,F#5,871.0,1.0,75,145.53
3551,B1,871.352,429/1000,54,145.53
3552,A1,871.781,431/1000,57,145.53
3553,E-5,872.0,0.5,69,145.53
3554,E-6,872.0,0.5,69,145.53
3555,B5,872.0,0.5,69,145.53
3556,G1,872.212,429/1000,59,145.53
3557,F1,872.642,421/1000,62,145.53
3558,E1,873.062,0.5,73,145.53
3559,E2,873.062,0.5,73,145.53
3560,E4,873.5,0.5,42,145.53
3561,D4,874.0,1.0,41,145.53
3562,E3,874.562,1.5,47,145.53
3563,D4,874.562,1.5,52,145.53
3564,B3,874.562,1.5,52,145.53
3565,B3,875.0,0.5,42,145.53
3566,E3,876.062,3.0,47,145.53
3567,A3,876.062,1.5,52,145.53
3568,C4,876.062,1.5,52,145.53
3569,C#4,876.5,0.5,42,145.53
3570,B3,877.0,1.0,41,145.53
3571,A3,877.562,1.5,52,145.53
3572,F#3,877.562,1.5,52,145.53
3573,G3,878.0,0.5,42,145.53
3574,F#3,878.5,1.0,41,145.53
3575,E3,879.062,229/500,47,145.53
3576,B3,879.062,0.25,52,145.53
3577,G3,879.062,0.25,52,145.53
3578,E3,879.562,0.25,48,145.53
3579,G3,879.562,0.25,48,145.53
3580,F#3,880.062,0.25,52,145.53
3581,A3,880.062,0.25,52,145.53
3582,F#3,880.562,0.25,46,145.53
3583,E-3,880.562,0.25,46,145.53
3584,G3,881.062,0.25,52,145.53
3585,E3,881.062,0.25,52,145.53
3586,C#3,881.562,0.25,48,145.53
3587,E3,881.562,0.25,48,145.53
3588,F#3,882.062,0.25,52,145.53
3589,E-3,882.062,0.25,52,145.53
3590,F#4,883.0,0.25,23,145.53
3591,E4,883.0,0.25,23,145.53
3592,B-3,883.0,0.25,23,145.53
3593,C#4,883.0,0.25,23,145.53
3594,C#4,883.5,0.25,26,145.53
3595,B-3,883.5,0.25,26,145.53
3596,E4,883.5,0.25,26,145.53
3597,F#4,883.5,0.25,26,145.53
3598,B2,883.562,1.5,62,145.53
3599,B3,883.562,1.5,62,145.53
3600,B-3,884.0,0.25,23,145.53
3601,F#4,884.0,0.25,23,145.53
3602,C#4,884.0,0.25,23,145.53
3603,E4,884.0,0.25,23,145.53
3604,F#4,884.5,0.25,30,145.53
3605,B3,884.5,0.25,30,145.53
3606,E-4,884.5,0.25,30,145.53
3607,B2,885.062,0.5,62,145.53
3608,B3,885.062,0.5,62,145.53
3609,C#3,885.562,0.25,49,145.53
3610,C#4,886.0,0.25,23,145.53
3611,E3,886.0,0.25,23,145.53
3612,F#3,886.0,0.25,23,145.53
3613,B-3,886.0,0.25,23,145.53
3614,E-3,886.062,0.25,50,145.53
3615,E3,886.5,0.25,26,145.53
3616,F#3,886.5,0.25,26,145.53
3617,B-3,886.5,0.25,26,145.53
3618,E-4,886.5,0.25,26,145.53
3619,E3,886.562,0.25,52,145.53
3620,E3,887.0,0.25,23,145.53
3621,F#3,887.0,0.25,23,145.53
3622,B-3,887.0,0.25,23,145.53
3623,C#4,887.0,0.25,23,145.53
3624,F#3,887.062,0.25,53,145.53
3625,E-3,887.5,0.25,30,145.53
3626,F#3,887.5,0.25,30,145.53
3627,B3,887.5,0.25,30,145.53
3628,G3,887.562,0.25,54,145.53
3629,F#3,888.062,0.25,52,145.53
3630,E-3,888.062,0.25,52,145.53
3631,B-3,889.0,0.25,23,145.53
3632,F#4,889.0,0.25,23,145.53
3633,C#4,889.0,0.25,23,145.53
3634,E4,889.0,0.25,23,145.53
3635,B-3,889.5,0.25,26,145.53
3636,C#4,889.5,0.25,26,145.53
3637,E4,889.5,0.25,26,145.53
3638,F#4,889.5,0.25,26,145.53
3639,B2,889.562,1.5,62,145.53
3640,B3,889.562,1.5,62,145.53
3641,C#4,890.0,0.25,23,145.53
3642,F#4,890.0,0.25,23,145.53
3643,E4,890.0,0.25,23,145.53
3644,B-3,890.0,0.25,23,145.53
3645,F#4,890.5,0.25,30,145.53
3646,E-4,890.5,0.25,30,145.53
3647,B3,890.5,0.25,30,145.53
3648,B2,891.062,0.5,62,145.53
3649,B3,891.062,0.5,62,145.53
3650,C#3,891.562,0.25,49,145.53
3651,B-3,892.0,0.25,23,145.53
3652,C#4,892.0,0.25,23,145.53
3653,E3,892.0,0.25,23,145.53
3654,F#3,892.0,0.25,23,145.53
3655,E-3,892.062,0.25,50,145.53
3656,B-3,892.5,0.25,26,145.53
3657,E3,892.5,0.25,26,145.53
3658,F#3,892.5,0.25,26,145.53
3659,E-4,892.5,0.25,26,145.53
3660,E3,892.562,0.25,52,145.53
3661,B-3,893.0,0.25,23,145.53
3662,E3,893.0,0.25,23,145.53
3663,C#4,893.0,0.25,23,145.53
3664,F#3,893.0,0.25,23,145.53
3665,F#3,893.062,0.25,53,145.53
3666,F#3,893.5,0.25,30,145.53
3667,B3,893.5,0.25,30,145.53
3668,E-3,893.5,0.25,30,145.53
3669,G3,893.562,0.25,54,145.53
3670,F#3,894.062,0.25,52,145.53
3671,A3,894.062,0.25,52,145.53
3672,F#4,895.0,0.25,24,145.53
3673,C4,895.0,0.25,24,145.53
3674,E-4,895.0,0.25,24,145.53
3675,G#4,895.0,0.25,24,145.53
3676,F#4,895.5,0.25,28,145.53
3677,G#4,895.5,0.25,28,145.53
3678,E-4,895.5,0.25,28,145.53
3679,C4,895.5,0.25,28,145.53
3680,D4,895.562,1.0,62,145.53
3681,D3,895.562,1.0,62,145.53
3682,E-4,896.0,0.25,26,145.53
3683,C4,896.0,0.25,26,145.53
3684,F#4,896.0,0.25,26,145.53
3685,G#4,896.0,0.25,26,145.53
3686,E4,896.5,0.25,34,145.53
3687,C#4,896.5,0.25,34,145.53
3688,G#4,896.5,0.25,34,145.53
3689,G1,897.062,0.5,56,145.53
3690,G2,897.062,0.5,56,145.53
3691,B-3,898.0,0.25,28,145.53
3692,C#4,898.0,0.25,28,145.53
3693,E4,898.0,0.25,28,145.53
3694,F#4,898.0,0.25,28,145.53
3695,B-3,898.5,0.25,34,145.53
3696,E-4,898.5,0.25,34,145.53
3697,E4,898.5,0.25,34,145.53
3698,F#4,898.5,0.25,34,145.53
3699,G3,898.562,1.5,47,145.53
3700,A4,898.562,1.5,52,145.53
3701,F4,898.562,1.5,52,145.53
3702,E4,899.0,0.25,30,145.53
3703,F#4,899.0,0.25,30,145.53
3704,B-3,899.0,0.25,30,145.53
3705,C#4,899.0,0.25,30,145.53
3706,B3,899.5,0.25,39,145.53
3707,E-4,899.5,0.25,39,145.53
3708,F#4,899.5,0.25,39,145.53
3709,G3,900.062,3.0,47,145.53
3710,E4,900.062,1.5,52,145.53
3711,G4,900.062,1.5,52,145.53
3712,E-4,901.0,0.25,32,145.53
3713,A4,901.0,0.25,32,145.53
3714,B4,901.0,0.25,32,145.53
3715,F#4,901.0,0.25,32,145.53
3716,E-4,901.5,0.25,38,145.53
3717,F#4,901.5,0.25,38,145.53
3718,A4,901.5,0.25,38,145.53
3719,B4,901.5,0.25,38,145.53
3720,E4,901.562,1.5,52,145.53
3721,C4,901.562,1.5,52,145.53
3722,E-4,902.0,0.25,34,145.53
3723,F#4,902.0,0.25,34,145.53
3724,A4,902.0,0.25,34,145.53
3725,B4,902.0,0.25,34,145.53
3726,E4,902.5,0.25,44,145.53
3727,B4,902.5,0.25,44,145.53
3728,G#4,902.5,0.25,44,145.53
3729,G3,903.062,229/500,47,145.53
3730,D4,903.062,0.25,52,145.53
3731,F4,903.062,0.25,52,145.53
3732,D4,903.562,0.25,48,145.53
3733,B3,903.562,0.25,48,145.53
3734,C#5,904.0,0.25,41,145.53
3735,F4,904.0,0.25,41,145.53
3736,G#4,904.0,0.25,41,145.53
3737,B4,904.0,0.25,41,145.53
3738,C4,904.062,0.25,52,145.53
3739,E4,904.062,0.25,52,145.53
3740,C#5,904.5,0.25,48,145.53
3741,B4,904.5,0.25,48,145.53
3742,G#4,904.5,0.25,48,145.53
3743,F4,904.5,0.25,48,145.53
3744,A3,904.562,0.25,46,145.53
3745,C4,904.562,0.25,46,145.53
3746,G#4,905.0,0.25,43,145.53
3747,F4,905.0,0.25,43,145.53
3748,C#5,905.0,0.25,43,145.53
3749,B4,905.0,0.25,43,145.53
3750,B3,905.062,0.25,52,145.53
3751,D4,905.062,0.25,52,145.53
3752,B-4,905.5,0.25,56,145.53
3753,F#4,905.5,0.25,56,145.53
3754,C#5,905.5,0.25,56,145.53
3755,B3,905.562,0.25,48,145.53
3756,G3,905.562,0.25,48,145.53
3757,A3,906.062,0.25,52,145.53
3758,C4,906.062,0.25,52,145.53
3759,C#6,907.0,0.25,58,145.53
3760,F#6,907.0,0.25,58,145.53
3761,B-5,907.0,0.25,58,145.53
3762,E5,907.0,0.25,58,145.53
3763,A3,907.062,0.25,48,145.53
3764,C4,907.062,0.25,48,145.53
3765,E5,907.5,0.25,65,145.53
3766,F#6,907.5,0.25,65,145.53
3767,C#6,907.5,0.25,65,145.53
3768,B-5,907.5,0.25,65,145.53
3769,F3,907.562,1.5,62,145.53
3770,A3,907.562,1.5,62,145.53
3771,B-5,908.0,0.25,60,145.53
3772,E5,908.0,0.25,60,145.53
3773,F#6,908.0,0.25,60,145.53
3774,C#6,908.0,0.25,60,145.53
3775,E5,908.5,0.25,58,145.53
3776,C#6,908.5,0.25,58,145.53
3777,B-5,908.5,0.25,58,145.53
3778,F#6,908.5,0.25,58,145.53
3779,E5,909.0,0.25,65,145.53
3780,C#6,909.0,0.25,65,145.53
3781,F#6,909.0,0.25,65,145.53
3782,B-5,909.0,0.25,65,145.53
3783,E2,909.062,1.0,43,145.53
3784,E3,909.062,1.0,43,145.53
3785,C#6,909.5,0.25,60,145.53
3786,B-5,909.5,0.25,60,145.53
3787,E5,909.5,0.25,60,145.53
3788,F#6,909.5,0.25,60,145.53
3789,C#6,910.0,0.25,58,145.53
3790,E5,910.0,0.25,58,145.53
3791,F#6,910.0,0.25,58,145.53
3792,B-5,910.0,0.25,58,145.53
3793,E5,910.5,0.25,65,145.53
3794,B-5,910.5,0.25,65,145.53
3795,F#6,910.5,0.25,65,145.53
3796,C#6,910.5,0.25,65,145.53
3797,G3,910.562,1.0,36,145.53
3798,C4,910.562,1.0,36,145.53
3799,E3,910.562,1.0,36,145.53
3800,B-5,911.0,0.25,60,145.53
3801,F#6,911.0,0.25,60,145.53
3802,E5,911.0,0.25,60,145.53
3803,C#6,911.0,0.25,60,145.53
3804,B5,911.5,0.25,71,145.53
3805,E-5,911.5,0.25,71,145.53
3806,E-6,911.5,0.25,71,145.53
3807,D3,912.062,1.0,43,145.53
3808,D2,912.062,1.0,43,145.53
3809,B4,912.5,0.25,66,145.53
3810,B5,912.5,0.25,66,145.53
3811,F#5,913.0,0.25,73,145.53
3812,F#4,913.0,0.25,73,145.53
3813,F3,913.562,1.0,35,145.53
3814,A3,913.562,1.0,35,145.53
3815,D3,913.562,1.0,35,145.53
3816,C4,913.562,1.0,35,145.53
3817,E-5,914.0,0.25,66,145.53
3818,E-4,914.0,0.25,66,145.53
3819,B4,914.5,0.25,79,145.53
3820,C2,915.062,1.0,43,145.53
3821,C3,915.062,1.0,43,145.53
3822,G4,915.5,0.25,73,145.53
3823,B-5,916.0,0.25,58,145.53
3824,C#6,916.0,0.25,58,145.53
3825,E5,916.0,0.25,58,145.53
3826,F#6,916.0,0.25,58,145.53
3827,F#6,916.5,0.25,65,145.53
3828,E5,916.5,0.25,65,145.53
3829,B-5,916.5,0.25,65,145.53
3830,C#6,916.5,0.25,65,145.53
3831,A3,916.562,1.0,40,145.53
3832,E3,916.562,1.0,40,145.53
3833,C3,916.562,1.0,40,145.53
3834,C4,916.562,1.0,40,145.53
3835,E5,917.0,0.25,60,145.53
3836,C#6,917.0,0.25,60,145.53
3837,B-5,917.0,0.25,60,145.53
3838,F#6,917.0,0.25,60,145.53
3839,B5,917.5,0.25,71,145.53
3840,E-5,917.5,0.25,71,145.53
3841,E-6,917.5,0.25,71,145.53
3842,B2,918.062,1.0,54,145.53
3843,B1,918.062,1.0,54,145.53
3844,B4,918.5,0.25,66,145.53
3845,B5,918.5,0.25,66,145.53
3846,F#4,919.0,0.25,73,145.53
3847,F#5,919.0,0.25,73,145.53
3848,F#3,919.562,1.0,42,145.53
3849,E-4,919.562,1.0,42,145.53
3850,B3,919.562,1.0,42,145.53
3851,E-4,920.0,0.25,66,145.53
3852,E-5,920.0,0.25,66,145.53
3853,B4,920.5,0.25,79,145.53
3854,C1,921.062,0.5,56,145.53
3855,C2,921.062,0.5,56,145.53
3856,G4,921.5,0.25,73,145.53
3857,E5,922.0,0.25,58,145.53
3858,C#6,922.0,0.25,58,145.53
3859,B-5,922.0,0.25,58,145.53
3860,F#6,922.0,0.25,58,145.53
3861,C#6,922.5,0.25,65,145.53
3862,F#6,922.5,0.25,65,145.53
3863,E5,922.5,0.25,65,145.53
3864,B-5,922.5,0.25,65,145.53
3865,C2,922.562,1.5,44,145.53
3866,B-2,922.562,1.5,48,145.53
3867,G2,922.562,1.5,48,145.53
3868,C#6,923.0,0.25,60,145.53
3869,E5,923.0,0.25,60,145.53
3870,B-5,923.0,0.25,60,145.53
3871,F#6,923.0,0.25,60,145.53
3872,E-5,923.5,0.25,71,145.53
3873,B5,923.5,0.25,71,145.53
3874,E-6,923.5,0.25,71,145.53
3875,C2,924.062,2.5,44,145.53
3876,A2,924.062,1.5,48,145.53
3877,F2,924.062,1.5,48,145.53
3878,B5,924.5,0.25,66,145.53
3879,B4,924.5,0.25,66,145.53
3880,G5,925.0,0.25,73,145.53
3881,G4,925.0,0.25,73,145.53
3882,F2,925.562,1.5,48,145.53
3883,D2,925.562,1.5,48,145.53
3884,E5,926.0,0.25,64,145.53
3885,E4,926.0,0.25,64,145.53
3886,C5,926.5,0.25,69,145.53
3887,E2,927.062,0.25,48,145.53
3888,G2,927.062,0.25,48,145.53
3889,A4,927.5,0.25,52,145.53
3890,C#2,927.562,0.25,49,145.53
3891,F#4,928.0,0.25,58,145.53
3892,D2,928.062,0.25,53,145.53
3893,B1,928.562,0.25,47,145.53
3894,E-4,929.0,0.25,43,145.53
3895,C#2,929.062,0.25,53,145.53
3896,B3,929.5,0.25,45,145.53
3897,A1,929.562,0.25,49,145.53
3898,D2,930.062,0.25,53,145.53
3899,D2,931.562,1.5,58,145.53
3900,D1,931.562,1.5,58,145.53
3901,G3,932.5,0.25,36,145.53
3902,E-2,933.062,0.5,56,145.53
3903,E-1,933.062,0.5,56,145.53
3904,E-2,934.562,1.5,44,145.53
3905,B-2,934.562,1.5,48,145.53
3906,C#3,934.562,1.5,48,145.53
3907,E3,935.5,0.25,36,145.53
3908,E-2,936.062,2.5,44,145.53
3909,C3,936.062,1.5,48,145.53
3910,G#2,936.062,1.5,48,145.53
3911,D6,937.0,1.5,34,145.53
3912,B5,937.0,1.5,34,145.53
3913,G#2,937.562,1.5,48,145.53
3914,F2,937.562,1.5,48,145.53
3915,A5,938.5,1479/1000,36,145.53
3916,C6,938.5,1479/1000,36,145.53
3917,B-2,939.062,0.25,48,145.53
3918,G2,939.062,0.25,48,145.53
3919,E2,939.562,0.25,49,145.53
3920,A5,940.0,1.5,34,145.53
3921,F#5,940.0,1.5,34,145.53
3922,F2,940.062,0.25,53,145.53
3923,D2,940.562,0.25,47,145.53
3924,E2,941.062,0.25,53,145.53
3925,B5,941.5,0.25,32,145.53
3926,G5,941.5,0.25,32,145.53
3927,C2,941.562,0.25,49,145.53
3928,E5,942.0,0.25,28,145.53
3929,G5,942.0,0.25,28,145.53
3930,F2,942.062,0.25,53,145.53
3931,F#5,942.5,0.25,31,145.53
3932,A5,942.5,0.25,31,145.53
3933,F#5,943.0,0.25,28,145.53
3934,E-5,943.0,0.25,28,145.53
3935,E5,943.5,0.25,32,145.53
3936,G5,943.5,0.25,32,145.53
3937,F2,943.562,1.5,58,145.53
3938,F1,943.562,1.5,58,145.53
3939,E5,944.0,0.25,30,145.53
3940,C#5,944.0,0.25,30,145.53
3941,F#5,944.5,0.25,32,145.53
3942,E-5,944.5,0.25,32,145.53
3943,F#2,945.062,0.5,56,145.53
3944,F#1,945.062,0.5,56,145.53
3945,F#5,945.5,0.25,32,145.53
3946,E-5,945.5,0.25,32,145.53
3947,B4,946.0,1.5,34,145.53
3948,F#3,946.562,1.5,50,145.53
3949,C#4,946.562,1.5,55,145.53
3950,E4,946.562,1.5,55,145.53
3951,B4,947.5,0.5,34,145.53
3952,B-4,948.0,0.25,28,145.53
3953,C#5,948.0,0.25,28,145.53
3954,F#3,948.062,2.5,50,145.53
3955,E-4,948.062,1.5,55,145.53
3956,B3,948.062,1.5,55,145.53
3957,B4,948.5,0.25,30,145.53
3958,E-5,948.5,0.25,30,145.53
3959,C#5,949.0,0.25,30,145.53
3960,E5,949.0,0.25,30,145.53
3961,E-5,949.5,0.25,30,145.53
3962,F#5,949.5,0.25,30,145.53
3963,B3,949.562,1.5,55,145.53
3964,G#3,949.562,1.5,55,145.53
3965,E5,950.0,0.25,32,145.53
3966,G5,950.0,0.25,32,145.53
3967,E-5,950.5,0.25,32,145.53
3968,F#5,950.5,0.25,32,145.53
3969,F#2,951.062,3.0,36,145.53
3970,B5,951.5,0.25,34,145.53
3971,B4,952.0,1.5,34,145.53
3972,G3,952.562,1.5,31,145.53
3973,B4,953.5,0.5,34,145.53
3974,B-4,954.0,0.25,28,145.53
3975,C#5,954.0,0.25,28,145.53
3976,F#3,954.062,1.5,31,145.53
3977,F#2,954.062,3.0,36,145.53
3978,B4,954.5,0.25,30,145.53
3979,E-5,954.5,0.25,30,145.53
3980,C#5,955.0,0.25,30,145.53
3981,E5,955.0,0.25,30,145.53
3982,E-5,955.5,0.25,30,145.53
3983,F#5,955.5,0.25,30,145.53
3984,D3,955.562,1.5,31,145.53
3985,G5,956.0,0.25,32,145.53
3986,E5,956.0,0.25,32,145.53
3987,B-4,956.375,0.125,29,145.53
3988,C#5,956.438,0.062,29,145.53
3989,F#5,956.5,0.25,35,145.53
3990,B-4,956.5,0.25,29,145.53
3991,C#5,956.5,0.25,29,145.53
3992,F#1,957.062,0.5,67,145.53
3993,F#2,957.062,0.5,67,145.53
3994,C#6,957.5,0.25,34,145.53
3995,F#5,958.0,1.5,36,145.53
3996,B-5,958.0,1.5,36,145.53
3997,F#6,958.0,1.5,36,145.53
3998,F#3,958.062,1979/1000,39,145.53
3999,C#4,958.062,0.5,53,145.53
4000,E4,958.062,0.5,53,145.53
4001,E-4,958.562,1.0,53,145.53
4002,B3,958.562,1.0,53,145.53
4003,F#4,959.5,0.25,32,145.53
4004,B-4,959.5,0.25,32,145.53
4005,B3,959.562,0.5,53,145.53
4006,G#3,959.562,0.5,53,145.53
4007,F#3,960.062,3.0,73,145.53
4008,C#6,960.5,0.25,32,145.53
4009,F#6,961.0,1.5,33,145.53
4010,B-5,961.0,1.5,33,145.53
4011,F#5,961.0,1.5,33,145.53
4012,E4,961.062,0.5,53,145.53
4013,G#4,961.062,0.5,53,145.53
4014,F#4,961.562,1.0,53,145.53
4015,E-4,961.562,1.0,53,145.53
4016,F#4,962.5,0.25,28,145.53
4017,B-4,962.5,0.25,28,145.53
4018,E-4,962.562,0.5,53,145.53
4019,B3,962.562,0.5,53,145.53
4020,F#2,963.062,3.0,36,145.53
4021,C#6,963.5,0.25,28,145.53
4022,F#5,964.0,1.5,29,145.53
4023,B-5,964.0,1.5,29,145.53
4024,F#6,964.0,1.5,29,145.53
4025,G3,964.062,0.5,31,145.53
4026,F#3,964.562,1.0,31,145.53
4027,F#5,965.5,3.0,29,145.53
4028,B-5,965.5,3.0,29,145.53
4029,F#6,965.5,3.0,29,145.53
4030,D3,965.562,0.5,31,145.53
4031,F#2,966.062,3.0,36,145.53
4032,E3,967.062,0.5,31,145.53
4033,D3,967.562,1.0,27,145.53
4034,B2,968.562,0.5,29,145.53
4035,C#4,969.0,0.25,68,145.53
4036,C#5,969.0,0.25,68,145.53
4037,F#2,969.062,0.25,33,145.53
4038,E-4,969.5,0.25,70,145.53
4039,E-5,969.5,0.25,70,145.53
4040,B1,969.562,0.25,27,145.53
4041,F5,970.0,0.25,73,145.53
4042,F4,970.0,0.25,73,145.53
4043,F#2,970.062,0.25,32,145.53
4044,F#4,970.5,0.25,76,145.53
4045,F#5,970.5,0.25,76,145.53
4046,B1,970.562,0.25,26,145.53
4047,G#5,971.0,0.25,85,145.53
4048,G#4,971.0,0.25,85,145.53
4049,F#2,971.062,0.25,31,145.53
4050,B-5,971.5,0.25,78,145.53
4051,B-4,971.5,0.25,78,145.53
4052,C#5,971.5,0.25,78,145.53
4053,F#5,971.5,0.25,78,145.53
4054,B1,971.562,0.25,27,145.53
4055,F#2,972.062,0.25,29,145.53
4056,C#5,972.5,0.25,81,145.53
4057,C#6,972.5,0.25,81,145.53
4058,B1,972.562,0.25,26,145.53
4059,F#5,973.0,0.25,88,145.53
4060,F#6,973.0,0.25,88,145.53
4061,F#2,973.062,0.25,31,145.53
4062,B3,974.5,0.5,87,145.53
4063,F#2,975.062,0.25,32,145.53
4064,B1,975.562,0.25,25,145.53
4065,C#6,976.0,1.5,77,145.53
4066,C#7,976.0,1.5,77,145.53
4067,A6,976.0,1.5,77,145.53
4068,F#2,976.062,0.25,29,145.53
4069,B6,977.5,1.5,79,145.53
4070,B5,977.5,1.5,79,145.53
4071,G#6,977.5,1.5,79,145.53
4072,F#2,978.062,0.25,32,145.53
4073,B1,978.562,0.25,24,145.53
4074,G#6,979.0,1.5,77,145.53
4075,E6,979.0,1.5,77,145.53
4076,G#5,979.0,1.5,77,145.53
4077,F#2,979.062,0.25,30,145.53
4078,A5,980.5,0.25,68,145.53
4079,F#6,980.5,0.25,68,145.53
4080,A6,980.5,0.25,68,145.53
4081,E-6,981.0,0.25,61,145.53
4082,F#6,981.0,0.25,61,145.53
4083,F#5,981.0,0.25,61,145.53
4084,F#2,981.062,0.25,33,145.53
4085,G#5,981.5,0.25,65,145.53
4086,G#6,981.5,0.25,65,145.53
4087,E6,981.5,0.25,65,145.53
4088,B1,981.562,0.25,27,145.53
4089,E5,982.0,0.25,62,145.53
4090,C#6,982.0,0.25,62,145.53
4091,E6,982.0,0.25,62,145.53
4092,F#2,982.062,0.25,32,145.53
4093,E-6,982.5,0.25,68,145.53
4094,F#6,982.5,0.25,68,145.53
4095,F#5,982.5,0.25,68,145.53
4096,E-5,983.0,0.25,63,145.53
4097,B5,983.0,0.25,63,145.53
4098,E-6,983.0,0.25,63,145.53
4099,C#6,983.5,0.25,68,145.53
4100,E6,983.5,0.25,68,145.53
4101,E5,983.5,0.25,68,145.53
4102,F#2,984.062,0.25,32,145.53
4103,E6,984.5,0.25,67,145.53
4104,C#6,984.5,0.25,67,145.53
4105,E5,984.5,0.25,67,145.53
4106,B1,984.562,0.25,28,145.53
4107,C#5,985.0,1.5,68,145.53
4108,A5,985.0,1.5,68,145.53
4109,C#6,985.0,1.5,68,145.53
4110,F#2,985.062,0.25,34,145.53
4111,B4,987.0,0.25,52,145.53
4112,B5,987.0,0.25,52,145.53
4113,F#2,987.062,0.25,37,145.53
4114,E-5,987.5,0.25,54,145.53
4115,E-6,987.5,0.25,54,145.53
4116,B1,987.562,0.25,30,145.53
4117,E6,988.0,0.25,56,145.53
4118,E5,988.0,0.25,56,145.53
4119,F#2,988.062,0.25,39,145.53
4120,F#5,988.5,0.25,57,145.53
4121,F#6,988.5,0.25,57,145.53
4122,G#6,989.0,0.25,59,145.53
4123,G#5,989.0,0.25,59,145.53
4124,B5,989.375,0.125,60,145.53
4125,E6,989.438,0.062,60,145.53
4126,B6,989.5,0.25,70,145.53
4127,B5,989.5,0.25,60,145.53
4128,E6,989.5,0.25,60,145.53
4129,B1,990.062,0.25,45,145.53
4130,A5,990.5,0.25,54,145.53
4131,A6,990.5,0.25,54,145.53
4132,F#2,990.562,0.25,35,145.53
4133,E6,991.0,1.5,52,145.53
4134,E5,991.0,1.5,52,145.53
4135,B1,991.062,0.25,45,145.53
4136,F#2,991.562,0.25,41,145.53
4137,C#6,993.0,0.25,53,145.53
4138,C#5,993.0,0.25,53,145.53
4139,B1,993.062,0.25,51,145.53
4140,E-5,993.5,0.25,58,145.53
4141,E-6,993.5,0.25,58,145.53
4142,F#2,993.562,0.25,39,145.53
4143,E5,994.0,0.25,62,145.53
4144,E6,994.0,0.25,62,145.53
4145,B1,994.062,0.25,51,145.53
4146,F#6,994.5,0.25,67,145.53
4147,F#5,994.5,0.25,67,145.53
4148,F#2,994.562,0.25,46,145.53
4149,G#5,995.0,0.25,72,145.53
4150,G#6,995.0,0.25,72,145.53
4151,B5,995.375,0.125,75,145.53
4152,E-6,995.438,0.062,75,145.53
4153,B6,995.5,0.25,87,145.53
4154,B5,995.5,0.25,75,145.53
4155,E-6,995.5,0.25,75,145.53
4156,B1,996.062,0.25,64,145.53
4157,A6,996.5,0.25,64,145.53
4158,A5,996.5,0.25,64,145.53
4159,F#2,996.562,0.25,53,145.53
4160,E-5,997.0,1.5,62,145.53
4161,E-6,997.0,1.5,62,145.53
4162,B1,997.062,0.25,58,145.53
4163,F#2,997.562,0.25,53,145.53
4164,E3,998.5,0.5,91,145.53
4165,B1,999.062,0.25,56,145.53
4166,B2,999.062,0.25,56,145.53
4167,F6,999.5,0.5,69,145.53
4168,F5,999.5,0.5,69,145.53
4169,D6,999.5,0.5,69,145.53
4170,F#3,999.562,0.25,49,145.53
4171,F#2,999.562,0.25,49,145.53
4172,E6,1000.0,1.0,75,145.53
4173,E5,1000.0,1.0,75,145.53
4174,C6,1000.0,1.0,75,145.53
4175,B2,1000.062,0.25,56,145.53
4176,B1,1000.062,0.25,56,145.53
4177,F#3,1000.562,0.25,49,145.53
4178,F#2,1000.562,0.25,49,145.53
4179,A5,1001.0,0.5,69,145.53
4180,C5,1001.0,0.5,69,145.53
4181,C6,1001.0,0.5,69,145.53
4182,B1,1001.062,0.25,57,145.53
4183,B2,1001.062,0.25,57,145.53
4184,B5,1001.5,0.25,63,145.53
4185,D5,1001.5,0.25,63,145.53
4186,D6,1001.5,0.25,63,145.53
4187,F#2,1001.562,0.25,49,145.53
4188,F#3,1001.562,0.25,49,145.53
4189,B5,1002.0,0.25,55,145.53
4190,B4,1002.0,0.25,55,145.53
4191,G#5,1002.0,0.25,55,145.53
4192,B2,1002.062,0.25,57,145.53
4193,B1,1002.062,0.25,57,145.53
4194,C5,1002.5,0.25,60,145.53
4195,A5,1002.5,0.25,60,145.53
4196,C6,1002.5,0.25,60,145.53
4197,F#5,1003.0,0.25,56,145.53
4198,A4,1003.0,0.25,56,145.53
4199,A5,1003.0,0.25,56,145.53
4200,B3,1003.062,0.25,54,145.53
4201,B4,1003.5,0.25,63,145.53
4202,B5,1003.5,0.25,63,145.53
4203,G#5,1003.5,0.25,63,145.53
4204,F#3,1003.562,0.25,58,145.53
4205,G#4,1004.0,0.25,57,145.53
4206,E5,1004.0,0.25,57,145.53
4207,G#5,1004.0,0.25,57,145.53
4208,B-5,1004.5,0.25,63,145.53
4209,B-4,1004.5,0.25,63,145.53
4210,E5,1004.5,0.25,63,145.53
4211,E-3,1004.562,0.25,54,145.53
4212,B3,1005.062,0.25,56,145.53
4213,B2,1005.062,0.25,56,145.53
4214,G5,1005.5,0.5,69,145.53
4215,E6,1005.5,0.5,69,145.53
4216,G6,1005.5,0.5,69,145.53
4217,F#5,1006.0,1.0,75,145.53
4218,F#6,1006.0,1.0,75,145.53
4219,E-6,1006.0,1.0,75,145.53
4220,G3,1006.062,0.25,50,145.53
4221,G2,1006.062,0.25,50,145.53
4222,F#3,1006.562,0.25,49,145.53
4223,F#2,1006.562,0.25,49,145.53
4224,B5,1007.0,0.5,69,145.53
4225,E-5,1007.0,0.5,69,145.53
4226,E-6,1007.0,0.5,69,145.53
4227,B2,1007.062,0.25,57,145.53
4228,B1,1007.062,0.25,57,145.53
4229,E6,1007.5,0.25,63,145.53
4230,C#6,1007.5,0.25,63,145.53
4231,E5,1007.5,0.25,63,145.53
4232,F#2,1007.562,0.25,49,145.53
4233,F#3,1007.562,0.25,49,145.53
4234,C#5,1008.0,0.25,55,145.53
4235,B-5,1008.0,0.25,55,145.53
4236,C#6,1008.0,0.25,55,145.53
4237,B2,1008.062,0.25,57,145.53
4238,B1,1008.062,0.25,57,145.53
4239,B5,1008.5,0.25,60,145.53
4240,E-5,1008.5,0.25,60,145.53
4241,E-6,1008.5,0.25,60,145.53
4242,G#5,1009.0,0.25,56,145.53
4243,B5,1009.0,0.25,56,145.53
4244,B4,1009.0,0.25,56,145.53
4245,B3,1009.062,0.25,54,145.53
4246,C5,1009.5,0.25,63,145.53
4247,C6,1009.5,0.25,63,145.53
4248,A5,1009.5,0.25,63,145.53
4249,F#3,1009.562,0.25,58,145.53
4250,A4,1010.0,0.25,57,145.53
4251,A5,1010.0,0.25,57,145.53
4252,F#5,1010.0,0.25,57,145.53
4253,B5,1010.5,0.25,63,145.53
4254,B4,1010.5,0.25,63,145.53
4255,F#5,1010.5,0.25,63,145.53
4256,E-3,1010.562,0.25,54,145.53
4257,B2,1011.062,0.25,56,145.53
4258,B3,1011.062,0.25,56,145.53
4259,C6,1011.5,0.5,69,145.53
4260,C7,1011.5,0.5,69,145.53
4261,A6,1011.5,0.5,69,145.53
4262,B6,1012.0,1.0,75,145.53
4263,B5,1012.0,1.0,75,145.53
4264,G6,1012.0,1.0,75,145.53
4265,G2,1012.062,0.25,50,145.53
4266,G3,1012.062,0.25,50,145.53
4267,F#3,1012.562,0.25,49,145.53
4268,F#2,1012.562,0.25,49,145.53
4269,G6,1013.0,0.5,69,145.53
4270,G5,1013.0,0.5,69,145.53
4271,E6,1013.0,0.5,69,145.53
4272,B2,1013.062,0.25,57,145.53
4273,B1,1013.062,0.25,57,145.53
4274,A6,1013.5,0.25,63,145.53
4275,F#6,1013.5,0.25,63,145.53
4276,A5,1013.5,0.25,63,145.53
4277,F#2,1013.562,0.25,49,145.53
4278,F#3,1013.562,0.25,49,145.53
4279,E-6,1014.0,0.25,55,145.53
4280,F#6,1014.0,0.25,55,145.53
4281,F#5,1014.0,0.25,55,145.53
4282,B2,1014.062,0.25,57,145.53
4283,B1,1014.062,0.25,57,145.53
4284,G5,1014.5,0.25,60,145.53
4285,G6,1014.5,0.25,60,145.53
4286,E6,1014.5,0.25,60,145.53
4287,E5,1015.0,0.25,56,145.53
4288,C6,1015.0,0.25,56,145.53
4289,E6,1015.0,0.25,56,145.53
4290,B3,1015.062,0.25,54,145.53
4291,F#5,1015.5,0.25,63,145.53
4292,D6,1015.5,0.25,63,145.53
4293,F#6,1015.5,0.25,63,145.53
4294,G3,1015.562,0.25,58,145.53
4295,D5,1016.0,0.25,57,145.53
4296,B5,1016.0,0.25,57,145.53
4297,D6,1016.0,0.25,57,145.53
4298,E5,1016.5,0.25,63,145.53
4299,E6,1016.5,0.25,63,145.53
4300,C6,1016.5,0.25,63,145.53
4301,E3,1016.562,0.25,46,145.53
4302,C6,1017.0,0.25,55,145.53
4303,A5,1017.0,0.25,55,145.53
4304,C5,1017.0,0.25,55,145.53
4305,C3,1017.062,0.25,48,145.53
4306,C4,1017.062,0.25,48,145.53
4307,B5,1017.5,0.25,60,145.53
4308,D6,1017.5,0.25,60,145.53
4309,D5,1017.5,0.25,60,145.53
4310,G5,1018.0,0.25,56,145.53
4311,B4,1018.0,0.25,56,145.53
4312,B5,1018.0,0.25,56,145.53
4313,A2,1018.062,0.25,36,145.53
4314,A3,1018.062,0.25,36,145.53
4315,C5,1018.5,0.25,63,145.53
4316,C6,1018.5,0.25,63,145.53
4317,A5,1018.5,0.25,63,145.53
4318,F#3,1018.562,0.25,40,145.53
4319,F#2,1018.562,0.25,40,145.53
4320,F#5,1019.0,0.25,57,145.53
4321,A5,1019.0,0.25,57,145.53
4322,A4,1019.0,0.25,57,145.53
4323,B5,1019.5,0.25,63,145.53
4324,G5,1019.5,0.25,63,145.53
4325,B4,1019.5,0.25,63,145.53
4326,E-2,1019.562,0.25,28,145.53
4327,E-3,1019.562,0.25,28,145.53
4328,G4,1020.0,0.25,56,145.53
4329,G5,1020.0,0.25,56,145.53
4330,E5,1020.0,0.25,56,145.53
4331,B2,1020.062,0.25,32,145.53
4332,B1,1020.062,0.25,32,145.53
4333,A4,1020.5,0.25,62,145.53
4334,F#5,1020.5,0.25,62,145.53
4335,A5,1020.5,0.25,62,145.53
4336,F#5,1021.0,0.25,61,145.53
4337,F#4,1021.0,0.25,61,145.53
4338,E-5,1021.0,0.25,61,145.53
4339,E5,1021.5,0.25,69,145.53
4340,G5,1021.5,0.25,69,145.53
4341,G4,1021.5,0.25,69,145.53
4342,E5,1022.0,0.25,65,145.53
4343,C5,1022.0,0.25,65,145.53
4344,E4,1022.0,0.25,65,145.53
4345,G#6,1022.5,19/20,81,145.53
4346,E6,1022.5,19/20,81,145.53
4347,G#5,1022.5,19/20,81,145.53
4348,G1,1023.062,0.25,25,145.53
4349,G2,1023.062,0.25,25,145.53
4350,G5,1023.5,19/20,81,145.53
4351,E6,1023.5,19/20,81,145.53
4352,G6,1023.5,19/20,81,145.53
4353,E-6,1024.5,19/20,81,145.53
4354,F#6,1024.5,19/20,81,145.53
4355,F#5,1024.5,19/20,81,145.53
4356,F5,1025.5,19/20,81,145.53
4357,F6,1025.5,19/20,81,145.53
4358,D6,1025.5,19/20,81,145.53
4359,E1,1026.062,1.5,23,145.53
4360,E2,1026.062,0.5,27,145.53
4361,C#6,1026.5,19/20,80,145.53
4362,E6,1026.5,19/20,80,145.53
4363,E5,1026.5,19/20,80,145.53
4364,E-6,1027.5,19/20,78,145.53
4365,E-5,1027.5,19/20,78,145.53
4366,C6,1027.5,19/20,78,145.53
4367,G#1,1027.562,1.5,23,145.53
4368,D6,1028.5,19/20,76,145.53
4369,D5,1028.5,19/20,76,145.53
4370,B5,1028.5,19/20,76,145.53
4371,A1,1029.062,1.5,26,145.53
4372,C#5,1029.5,19/20,75,145.53
4373,C#6,1029.5,19/20,75,145.53
4374,B-5,1029.5,19/20,75,145.53
4375,C6,1030.5,19/20,73,145.53
4376,A5,1030.5,19/20,73,145.53
4377,C5,1030.5,19/20,73,145.53
4378,C2,1030.562,1.5,22,145.53
4379,B4,1031.5,19/20,72,145.53
4380,G#5,1031.5,19/20,72,145.53
4381,B5,1031.5,19/20,72,145.53
4382,E2,1032.062,1.5,26,145.53
4383,G5,1032.5,381/500,71,145.53
4384,B5,1032.5,381/500,71,145.53
4385,B4,1032.5,381/500,71,145.53
4386,B5,1033.5,19/20,69,145.53
4387,E-5,1033.5,19/20,69,145.53
4388,B4,1033.5,19/20,69,145.53
4389,F#5,1033.5,19/20,69,145.53
4390,B-1,1033.562,1.5,21,145.53
4391,E4,1034.5,0.25,64,145.53
4392,E5,1034.5,0.25,64,145.53
4393,D5,1035.0,0.25,57,145.53
4394,B4,1035.0,0.25,57,145.53
4395,B1,1035.062,1.5,26,145.53
4396,E5,1035.5,0.25,62,145.53
4397,E4,1035.5,0.25,62,145.53
4398,A4,1036.0,0.25,58,145.53
4399,C5,1036.0,0.25,58,145.53
4400,E5,1036.5,0.25,64,145.53
4401,E4,1036.5,0.25,64,145.53
4402,B2,1036.562,1.5,21,145.53
4403,B4,1037.0,0.25,59,145.53
4404,G4,1037.0,0.25,59,145.53
4405,E4,1037.5,0.25,64,145.53
4406,E5,1037.5,0.25,64,145.53
4407,A4,1038.0,0.25,57,145.53
4408,F#4,1038.0,0.25,57,145.53
4409,G2,1038.062,1.5,26,145.53
4410,E5,1038.5,0.25,62,145.53
4411,E4,1038.5,0.25,62,145.53
4412,G4,1039.0,0.25,63,145.53
4413,E5,1039.5,0.25,64,145.53
4414,E4,1039.5,0.25,64,145.53
4415,E2,1039.562,1.5,21,145.53
4416,D4,1040.0,0.25,59,145.53
4417,F#4,1040.0,0.25,59,145.53
4418,E4,1040.5,0.25,64,145.53
4419,E5,1040.5,0.25,64,145.53
4420,E4,1041.0,0.25,56,145.53
4421,C4,1041.0,0.25,56,145.53
4422,B1,1041.062,1.5,26,145.53
4423,E5,1041.5,0.25,60,145.53
4424,E4,1041.5,0.25,60,145.53
4425,D4,1042.0,0.25,56,145.53
4426,B3,1042.0,0.25,56,145.53
4427,E5,1042.5,0.25,61,145.53
4428,E4,1042.5,0.25,61,145.53
4429,B2,1042.562,1.5,21,145.53
4430,A3,1043.0,0.25,55,145.53
4431,C4,1043.0,0.25,55,145.53
4432,E4,1043.5,0.25,60,145.53
4433,E5,1043.5,0.25,60,145.53
4434,B3,1044.0,0.25,52,145.53
4435,G3,1044.0,0.25,52,145.53
4436,G2,1044.062,1.5,26,145.53
4437,E4,1044.5,0.25,56,145.53
4438,E5,1044.5,0.25,56,145.53
4439,F#3,1045.0,0.25,52,145.53
4440,A3,1045.0,0.25,52,145.53
4441,E5,1045.5,0.25,56,145.53
4442,E4,1045.5,0.25,56,145.53
4443,E2,1045.562,1.5,21,145.53
4444,A3,1046.0,0.25,50,145.53
4445,F3,1046.0,0.25,50,145.53
4446,G3,1046.5,0.25,56,145.53
4447,E3,1046.5,0.25,56,145.53
4448,E3,1047.0,0.25,56,145.53
4449,G3,1047.0,0.25,56,145.53
4450,F#2,1047.062,1.5,26,145.53
4451,E3,1047.5,0.25,56,145.53
4452,G3,1047.5,0.25,56,145.53
4453,A3,1048.0,1.5,62,145.53
4454,F3,1048.0,1.5,62,145.53
4455,C#2,1048.562,1.5,21,145.53
4456,E3,1049.5,0.25,56,145.53
4457,G3,1049.5,0.25,56,145.53
4458,E3,1050.0,0.25,56,145.53
4459,G3,1050.0,0.25,56,145.53
4460,B-3,1050.062,0.5,20,145.53
4461,C#4,1050.062,0.5,20,145.53
4462,F#3,1050.062,0.5,20,145.53
4463,G3,1050.5,0.25,56,145.53
4464,E3,1050.5,0.25,56,145.53
4465,C4,1051.0,1.5,61,145.53
4466,A4,1051.0,1.5,61,145.53
4467,A3,1051.0,1.5,61,145.53
4468,C#2,1051.562,1.5,19,145.53
4469,G3,1052.5,0.25,56,145.53
4470,E3,1052.5,0.25,56,145.53
4471,E3,1053.0,0.25,56,145.53
4472,G3,1053.0,0.25,56,145.53
4473,C#4,1053.062,0.5,17,145.53
4474,F#3,1053.062,0.5,17,145.53
4475,B-3,1053.062,0.5,17,145.53
4476,E3,1053.5,0.25,56,145.53
4477,G3,1053.5,0.25,56,145.53
4478,C5,1054.0,1.5,82,145.53
4479,E5,1054.0,1.5,82,145.53
4480,G5,1054.0,1.5,82,145.53
4481,C6,1054.0,1.5,82,145.53
4482,C#2,1054.562,1.5,17,145.53
4483,C5,1055.5,0.5,82,145.53
4484,E5,1055.5,0.5,82,145.53
4485,G5,1055.5,0.5,82,145.53
4486,C6,1055.5,0.5,82,145.53
4487,C#2,1056.062,3.0,17,145.53
4488,E3,1057.0,0.25,87,145.53
4489,G3,1057.0,0.25,87,145.53
4490,G3,1058.5,0.25,87,145.53
4491,E3,1058.5,0.25,87,145.53
4492,C#3,1059.562,0.25,52,145.53
4493,C#2,1059.562,0.25,52,145.53
4494,E3,1059.985,0.25,87,145.53
4495,G3,1059.985,0.25,87,145.53
4496,E-2,1060.062,0.25,52,145.53
4497,E-3,1060.062,0.25,52,145.53
4498,F2,1060.562,0.25,54,145.53
4499,F3,1060.562,0.25,54,145.53
4500,F#3,1061.062,0.25,56,145.53
4501,F#2,1061.062,0.25,56,145.53
4502,F6,1061.5,3.0,88,145.53
4503,F7,1061.5,3.0,88,145.53
4504,C7,1061.5,3.0,88,145.53
4505,A6,1061.5,3.0,88,145.53
4506,G#2,1061.562,0.25,58,145.53
4507,G#3,1061.562,0.25,58,145.53
4508,B-3,1062.062,0.25,60,145.53
4509,B-2,1062.062,0.25,60,145.53
4510,C#2,1063.062,0.25,57,145.53
4511,C#3,1063.062,0.25,57,145.53
4512,F#1,1063.562,0.25,69,145.53
4513,F#2,1063.562,0.25,69,145.53
4514,F6,1065.0,0.5,88,145.53
4515,F7,1065.0,0.5,88,145.53
4516,C7,1065.0,0.5,88,145.53
4517,A6,1065.0,0.5,88,145.53
4518,B2,1065.062,0.5,64,145.53
4519,B1,1065.062,0.5,64,145.53
4520,C7,1065.75,0.25,64,145.53
4521,C6,1065.75,0.25,64,145.53
4522,A6,1066.25,0.25,66,145.53
4523,A5,1066.25,0.25,66,145.53
4524,B3,1066.562,1.5,54,145.53
4525,A4,1066.562,1.5,59,145.53
4526,C#5,1066.562,1.5,59,145.53
4527,F5,1066.75,0.25,66,145.53
4528,F6,1066.75,0.25,66,145.53
4529,C6,1067.25,0.25,64,145.53
4530,C5,1067.25,0.25,64,145.53
4531,A5,1067.75,0.25,64,145.53
4532,A4,1067.75,0.25,64,145.53
4533,B3,1068.062,3.0,54,145.53
4534,G#4,1068.062,1.5,59,145.53
4535,B4,1068.062,1.5,59,145.53
4536,F4,1068.25,0.25,71,145.53
4537,F5,1068.25,0.25,71,145.53
4538,C4,1068.75,0.25,68,145.53
4539,C5,1068.75,0.25,68,145.53
4540,A3,1069.25,0.25,69,145.53
4541,A4,1069.25,0.25,69,145.53
4542,E4,1069.562,1.5,59,145.53
4543,G#4,1069.562,1.5,59,145.53
4544,F4,1069.75,0.25,76,145.53
4545,F3,1069.75,0.25,76,145.53
4546,C3,1070.25,0.25,71,145.53
4547,C4,1070.25,0.25,71,145.53
4548,D3,1070.75,0.25,72,145.53
4549,D4,1070.75,0.25,72,145.53
4550,C3,1071.0,0.25,71,145.53
4551,G3,1071.0,0.25,71,145.53
4552,C4,1071.0,0.25,71,145.53
4553,E3,1071.0,0.25,71,145.53
4554,B3,1071.062,229/500,54,145.53
4555,F#4,1071.062,0.25,56,145.53
4556,A4,1071.062,0.25,56,145.53
4557,E-4,1071.562,0.25,52,145.53
4558,F#4,1071.562,0.25,52,145.53
4559,E4,1072.062,0.25,56,145.53
4560,G#4,1072.062,0.25,56,145.53
4561,C#4,1072.562,0.25,50,145.53
4562,E4,1072.562,0.25,50,145.53
4563,F#4,1073.062,0.25,56,145.53
4564,E-4,1073.062,0.25,56,145.53
4565,E-4,1073.562,0.25,52,145.53
4566,B3,1073.562,0.25,52,145.53
4567,G3,1074.0,0.25,71,145.53
4568,E3,1074.0,0.25,71,145.53
4569,C4,1074.0,0.25,71,145.53
4570,C3,1074.0,0.25,71,145.53
4571,C#4,1074.062,0.25,56,145.53
4572,E4,1074.062,0.25,56,145.53
4573,E4,1075.062,0.25,53,145.53
4574,C#4,1075.062,0.25,53,145.53
4575,C#4,1075.562,1.5,67,145.53
4576,A3,1075.562,1.5,67,145.53
4577,E3,1077.0,0.25,71,145.53
4578,G3,1077.0,0.25,71,145.53
4579,C4,1077.0,0.25,71,145.53
4580,C3,1077.0,0.25,71,145.53
4581,G#2,1077.062,1.0,43,145.53
4582,G#3,1077.062,1.0,43,145.53
4583,B3,1078.562,1.0,36,145.53
4584,G#3,1078.562,1.0,36,145.53
4585,E4,1078.562,1.0,36,145.53
4586,F#2,1080.062,1.0,43,145.53
4587,F#3,1080.062,1.0,43,145.53
4588,C#4,1081.562,1.0,35,145.53
4589,E4,1081.562,1.0,35,145.53
4590,F#3,1081.562,1.0,35,145.53
4591,A3,1081.562,1.0,35,145.53
4592,E3,1083.062,1.0,43,145.53
4593,E2,1083.062,1.0,43,145.53
4594,E4,1084.562,1.0,40,145.53
4595,G#3,1084.562,1.0,40,145.53
4596,E3,1084.562,1.0,40,145.53
4597,C#4,1084.562,1.0,40,145.53
4598,B2,1086.062,1.0,54,145.53
4599,B1,1086.062,1.0,54,145.53
4600,A3,1087.562,1.0,42,145.53
4601,F#3,1087.562,1.0,42,145.53
4602,B3,1087.562,1.0,42,145.53
4603,E-4,1087.562,1.0,42,145.53
4604,E2,1089.062,0.5,67,145.53
4605,E1,1089.062,0.5,67,145.53
4606,E3,1090.562,1.5,58,145.53
4607,F4,1091.562,0.5,58,145.53
4608,E4,1092.062,1.0,62,145.53
4609,E3,1092.062,3.0,58,145.53
4610,C4,1093.062,0.5,58,145.53
4611,D4,1093.562,1.0,63,145.53
4612,B3,1094.562,0.5,58,145.53
4613,C#4,1095.062,0.5,67,145.53
4614,E3,1095.062,0.5,67,145.53
4615,E2,1096.562,0.5,67,145.53
4616,E1,1096.562,0.5,67,145.53
4617,G4,1097.562,0.5,58,145.53
4618,E3,1098.062,3.0,58,145.53
4619,F#4,1098.062,1.0,62,145.53
4620,E-4,1099.062,0.5,58,145.53
4621,E4,1099.562,1.0,63,145.53
4622,C#4,1100.562,0.5,58,145.53
4623,E3,1101.062,0.5,67,145.53
4624,E-4,1101.062,0.5,67,145.53
4625,E2,1102.562,0.5,67,145.53
4626,E1,1102.562,0.5,67,145.53
4627,C4,1103.562,0.5,54,145.53
4628,C5,1103.562,0.5,54,145.53
4629,B4,1104.062,1.0,57,145.53
4630,B3,1104.062,1.0,57,145.53
4631,G3,1105.062,0.25,54,145.53
4632,G4,1105.062,0.25,54,145.53
4633,A3,1105.562,0.25,43,145.53
4634,A4,1105.562,0.25,43,145.53
4635,F#4,1106.062,0.25,49,145.53
4636,F#3,1106.062,0.25,49,145.53
4637,G3,1106.562,0.25,44,145.53
4638,G4,1106.562,0.25,44,145.53
4639,E3,1107.062,0.25,67,145.53
4640,E4,1107.062,0.25,67,145.53
4641,F#4,1107.562,0.25,44,145.53
4642,F#3,1107.562,0.25,44,145.53
4643,D3,1108.062,0.25,54,145.53
4644,D4,1108.062,0.25,54,145.53
4645,E4,1108.562,0.25,43,145.53
4646,E3,1108.562,0.25,43,145.53
4647,C3,1109.062,0.25,49,145.53
4648,C4,1109.062,0.25,49,145.53
4649,D3,1109.562,0.25,44,145.53
4650,D4,1109.562,0.25,44,145.53
4651,B2,1110.062,0.25,67,145.53
4652,B3,1110.062,0.25,67,145.53
4653,C3,1110.562,0.25,44,145.53
4654,C4,1110.562,0.25,44,145.53
4655,A2,1111.062,0.25,56,145.53
4656,A3,1111.062,0.25,56,145.53
4657,B2,1111.562,0.25,46,145.53
4658,B3,1111.562,0.25,46,145.53
4659,G2,1112.062,0.25,54,145.53
4660,G3,1112.062,0.25,54,145.53
4661,A3,1112.562,0.25,50,145.53
4662,A2,1112.562,0.25,50,145.53
4663,B1,1112.812,0.125,62,145.53
4664,B2,1112.938,0.125,63,145.53
4665,B4,1113.062,19/20,64,145.53
4666,E4,1113.062,19/20,64,145.53
4667,B3,1113.062,19/20,64,145.53
4668,G#4,1113.062,19/20,64,145.53
4669,E4,1114.062,19/20,62,145.53
4670,B3,1114.062,19/20,62,145.53
4671,B4,1114.062,19/20,62,145.53
4672,G4,1114.062,19/20,62,145.53
4673,B4,1115.062,19/20,62,145.53
4674,F#4,1115.062,19/20,62,145.53
4675,B3,1115.062,19/20,62,145.53
4676,E-4,1115.062,19/20,62,145.53
4677,D4,1116.062,19/20,64,145.53
4678,F4,1116.062,19/20,64,145.53
4679,B3,1116.062,19/20,64,145.53
4680,B4,1116.062,19/20,64,145.53
4681,C#4,1117.062,19/20,61,145.53
4682,E4,1117.062,19/20,61,145.53
4683,B3,1117.062,19/20,61,145.53
4684,B4,1117.062,19/20,61,145.53
4685,B3,1118.062,19/20,60,145.53
4686,E-4,1118.062,19/20,60,145.53
4687,C4,1118.062,19/20,60,145.53
4688,B4,1118.062,19/20,60,145.53
4689,D4,1119.062,19/20,59,145.53
4690,B4,1119.062,19/20,59,145.53
4691,B3,1119.062,19/20,59,145.53
4692,C#4,1120.062,19/20,58,145.53
4693,B4,1120.062,19/20,58,145.53
4694,B-3,1120.062,19/20,58,145.53
4695,B4,1121.062,19/20,57,145.53
4696,A3,1121.062,19/20,57,145.53
4697,C4,1121.062,19/20,57,145.53
4698,G#3,1122.062,19/20,56,145.53
4699,G#4,1122.062,19/20,56,145.53
4700,B3,1122.062,19/20,56,145.53
4701,G3,1123.062,381/500,55,145.53
4702,B3,1123.062,381/500,55,145.53
4703,G4,1123.062,381/500,55,145.53
4704,B2,1123.875,569/500,51,145.53
4705,F#3,1123.938,43/40,51,145.53
4706,A3,1124.0,253/250,51,145.53
4707,F#4,1124.062,19/20,60,145.53
4708,E3,1125.062,0.25,67,145.53
4709,E2,1125.062,0.25,67,145.53
4710,D3,1125.562,0.25,44,145.53
4711,B2,1125.562,0.25,44,145.53
4712,E3,1126.062,0.25,54,145.53
4713,E2,1126.062,0.25,54,145.53
4714,A2,1126.562,0.25,43,145.53
4715,C3,1126.562,0.25,43,145.53
4716,E3,1127.062,0.25,49,145.53
4717,E2,1127.062,0.25,49,145.53
4718,B2,1127.562,0.25,44,145.53
4719,G2,1127.562,0.25,44,145.53
4720,E3,1128.062,0.25,67,145.53
4721,E2,1128.062,0.25,67,145.53
4722,F#2,1128.562,0.25,44,145.53
4723,A2,1128.562,0.25,44,145.53
4724,E3,1129.062,0.25,54,145.53
4725,E2,1129.062,0.25,54,145.53
4726,G2,1129.562,0.25,47,145.53
4727,E3,1130.062,0.25,53,145.53
4728,F#2,1130.562,0.25,44,145.53
4729,D2,1130.562,0.25,44,145.53
4730,E3,1131.062,0.25,67,145.53
4731,C2,1131.562,0.25,43,145.53
4732,E2,1131.562,0.25,43,145.53
4733,E2,1132.062,0.25,56,145.53
4734,B1,1132.562,0.25,41,145.53
4735,D2,1132.562,0.25,41,145.53
4736,E2,1133.062,0.25,50,145.53
4737,C2,1133.562,0.25,41,145.53
4738,A1,1133.562,0.25,41,145.53
4739,E2,1134.062,0.25,62,145.53
4740,G1,1134.562,0.25,40,145.53
4741,B1,1134.562,0.25,40,145.53
4742,E2,1135.062,0.25,52,145.53
4743,F#1,1135.562,0.25,38,145.53
4744,A1,1135.562,0.25,38,145.53
4745,E2,1136.062,0.25,46,145.53
4746,F1,1136.562,0.25,38,145.53
4747,A1,1136.562,0.25,38,145.53
4748,E1,1137.062,0.25,40,145.53
4749,E2,1137.062,0.25,40,145.53
4750,E1,1137.562,0.25,40,145.53
4751,E2,1137.562,0.25,40,145.53
4752,E2,1138.062,0.25,40,145.53
4753,E1,1138.062,0.25,40,145.53
4754,A2,1138.562,1.5,48,145.53
4755,C3,1138.562,1.5,48,145.53
4756,E1,1140.062,0.25,40,145.53
4757,E2,1140.062,0.25,40,145.53
4758,E2,1140.562,0.25,40,145.53
4759,E1,1140.562,0.25,40,145.53
4760,E2,1141.062,0.25,40,145.53
4761,E1,1141.062,0.25,40,145.53
4762,F3,1141.562,1.5,52,145.53
4763,A2,1141.562,1.5,52,145.53
4764,E1,1143.062,0.25,40,145.53
4765,E2,1143.062,0.25,40,145.53
4766,E1,1143.562,0.25,40,145.53
4767,E2,1143.562,0.25,40,145.53
4768,E1,1144.062,0.25,40,145.53
4769,E2,1144.062,0.25,40,145.53
4770,E3,1144.562,1.5,63,145.53
4771,G3,1144.562,1.5,63,145.53
4772,B-2,1144.562,1.5,63,145.53
4773,C4,1144.562,1.5,63,145.53
4774,E3,1146.062,0.5,63,145.53
4775,G3,1146.062,0.5,63,145.53
4776,B-2,1146.062,0.5,63,145.53
4777,C4,1146.062,0.5,63,145.53
4778,E2,1147.562,0.25,63,145.53
4779,E1,1147.562,0.25,63,145.53
4780,E1,1149.062,0.25,63,145.53
4781,E2,1149.062,0.25,63,145.53
4782,E2,1150.548,0.25,63,145.53
4783,E1,1150.548,0.25,63,145.53
4784,C3,1152.062,3.0,67,145.53
4785,C4,1152.062,3.0,67,145.53
4786,F3,1152.062,3.0,67,145.53
4787,A2,1152.062,3.0,67,145.53
4788,C3,1155.562,0.5,67,145.53
4789,C4,1155.562,0.5,67,145.53
4790,F3,1155.562,0.5,67,145.53
4791,A2,1155.562,0.5,67,145.53
4792,C5,1156.062,0.25,64,145.53
4793,C4,1156.062,0.25,64,145.53
4794,A3,1156.562,0.25,59,145.53
4795,A4,1156.562,0.25,59,145.53
4796,F4,1157.062,0.25,66,145.53
4797,F3,1157.062,0.25,66,145.53
4798,C3,1157.562,0.25,62,145.53
4799,C4,1157.562,0.25,62,145.53
4800,A3,1158.062,0.25,64,145.53
4801,A2,1158.062,0.25,64,145.53
4802,F2,1158.562,0.25,70,145.53
4803,F3,1158.562,0.25,70,145.53
4804,C2,1159.062,0.25,65,145.53
4805,C3,1159.062,0.25,65,145.53
4806,A2,1159.562,0.25,66,145.53
4807,A1,1159.562,0.25,66,145.53
4808,F2,1160.062,0.25,75,145.53
4809,F1,1160.062,0.25,75,145.53
4810,C2,1160.562,0.25,69,145.53
4811,C1,1160.562,0.25,69,145.53
4812,D1,1161.062,0.25,72,145.53
4813,D2,1161.062,0.25,72,145.53
4814,C1,1161.562,0.25,72,145.53
4815,C2,1161.562,0.25,72,145.53
4816,C2,1164.562,0.25,72,145.53
4817,C1,1164.562,0.25,72,145.53
4818,C1,1167.562,0.25,72,145.53
4819,C2,1167.562,0.25,72,145.53
