,note_name,start_time,duration,velocity,tempo
0,C3,0.0,1.5,60,119.56
1,G3,0.062,1.438,63,119.56
2,C4,0.125,1.375,67,119.56
3,E4,0.188,1.312,70,119.56
4,E5,0.188,1.312,70,119.56
5,G5,0.188,1.312,70,119.56
6,C5,0.188,1.312,70,119.56
7,C6,0.188,1.312,70,119.56
8,E4,1.5,229/500,63,119.56
9,C4,1.5,229/500,63,119.56
10,E3,1.5,229/500,63,119.56
11,C2,1.5,229/500,58,119.56
12,G2,1.5,229/500,58,119.56
13,C3,1.5,229/500,58,119.56
14,E4,2.0,1.0,66,119.56
15,E3,2.0,1.0,66,119.56
16,C4,2.0,1.0,66,119.56
17,C2,2.0,1.0,58,119.56
18,G2,2.0,1.0,58,119.56
19,C3,2.0,1.0,58,119.56
20,C4,3.0,0.25,64,119.56
21,F3,3.0,0.25,64,119.56
22,F4,3.0,0.25,64,119.56
23,D2,3.0,0.25,54,119.56
24,D3,3.0,0.25,54,119.56
25,G3,3.5,0.25,67,119.56
26,C4,3.5,0.25,67,119.56
27,G4,3.5,0.25,67,119.56
28,E2,3.5,0.25,58,119.56
29,C3,3.5,0.25,58,119.56
30,E3,3.5,0.25,58,119.56
31,A3,4.0,0.25,70,119.56
32,C4,4.0,0.25,70,119.56
33,A4,4.0,0.25,70,119.56
34,F2,4.0,0.25,60,119.56
35,C3,4.0,0.25,60,119.56
36,F3,4.0,0.25,60,119.56
37,G3,5.0,0.25,66,119.56
38,G4,5.0,0.25,66,119.56
39,C4,5.0,0.25,66,119.56
40,E2,5.0,0.25,55,119.56
41,C3,5.0,0.25,55,119.56
42,E3,5.0,0.25,55,119.56
43,E3,7.5,9/20,63,119.56
44,C4,7.5,9/20,63,119.56
45,E4,7.5,9/20,63,119.56
46,C2,7.5,9/20,58,119.56
47,G2,7.5,9/20,58,119.56
48,C3,7.5,9/20,58,119.56
49,E4,8.0,1.0,69,119.56
50,C4,8.0,1.0,69,119.56
51,E3,8.0,1.0,69,119.56
52,C2,8.0,1.0,58,119.56
53,G2,8.0,1.0,58,119.56
54,C3,8.0,1.0,58,119.56
55,F3,9.0,0.25,69,119.56
56,C4,9.0,0.25,69,119.56
57,F4,9.0,0.25,69,119.56
58,D2,9.0,0.25,54,119.56
59,D3,9.0,0.25,54,119.56
60,G3,9.5,0.25,72,119.56
61,G4,9.5,0.25,72,119.56
62,C4,9.5,0.25,72,119.56
63,E2,9.5,0.25,58,119.56
64,C3,9.5,0.25,58,119.56
65,E3,9.5,0.25,58,119.56
66,C4,10.0,1.0,74,119.56
67,A4,10.0,1.0,74,119.56
68,A3,10.0,1.0,74,119.56
69,F2,10.0,0.5,60,119.56
70,C3,10.0,0.5,60,119.56
71,F3,10.0,0.5,60,119.56
72,G4,11.0,0.25,72,119.56
73,G3,11.0,0.25,72,119.56
74,C4,11.0,0.25,72,119.56
75,C3,11.0,0.25,53,119.56
76,E2,11.0,0.25,53,119.56
77,E3,11.0,0.25,53,119.56
78,A3,11.5,0.25,74,119.56
79,A4,11.5,0.25,74,119.56
80,C4,11.5,0.25,74,119.56
81,F2,11.5,0.25,58,119.56
82,C3,11.5,0.25,58,119.56
83,F3,11.5,0.25,58,119.56
84,B-3,12.0,0.25,76,119.56
85,C4,12.0,0.25,76,119.56
86,B-4,12.0,0.25,76,119.56
87,G2,12.0,0.25,60,119.56
88,C3,12.0,0.25,60,119.56
89,G3,12.0,0.25,60,119.56
90,A4,13.0,0.25,72,119.56
91,A3,13.0,0.25,72,119.56
92,C4,13.0,0.25,72,119.56
93,F2,13.0,0.25,55,119.56
94,C3,13.0,0.25,55,119.56
95,F3,13.0,0.25,55,119.56
96,G3,15.0,0.25,64,119.56
97,C4,15.0,0.25,64,119.56
98,G4,15.0,0.25,64,119.56
99,C3,15.0,0.25,53,119.56
100,E2,15.0,0.25,53,119.56
101,E3,15.0,0.25,53,119.56
102,C4,15.5,0.25,67,119.56
103,A3,15.5,0.25,67,119.56
104,A4,15.5,0.25,67,119.56
105,F2,15.5,0.25,58,119.56
106,C3,15.5,0.25,58,119.56
107,F3,15.5,0.25,58,119.56
108,F4,16.0,0.25,70,119.56
109,B4,16.0,0.25,70,119.56
110,B3,16.0,0.25,70,119.56
111,D2,16.0,0.25,62,119.56
112,D3,16.0,0.25,62,119.56
113,E4,17.0,0.25,72,119.56
114,C5,17.0,0.25,72,119.56
115,C4,17.0,0.25,72,119.56
116,E2,17.0,0.25,62,119.56
117,E3,17.0,0.25,62,119.56
118,G4,18.0,0.25,73,119.56
119,D5,18.0,0.25,73,119.56
120,D4,18.0,0.25,73,119.56
121,B1,18.0,0.25,64,119.56
122,B2,18.0,0.25,64,119.56
123,E4,19.0,0.25,75,119.56
124,G4,19.0,0.25,75,119.56
125,E5,19.0,0.25,75,119.56
126,C2,19.0,0.25,68,119.56
127,C3,19.0,0.25,68,119.56
128,F#5,20.0,167/1000,78,119.56
129,C5,20.0,2.0,72,119.56
130,D5,20.0,2.0,72,119.56
131,A1,20.0,2.0,71,119.56
132,D2,20.0,2.0,71,119.56
133,A2,20.0,2.0,71,119.56
134,G5,20.167,167/1000,73,119.56
135,F#5,20.333,167/1000,80,119.56
136,G5,20.5,167/1000,75,119.56
137,F#5,20.667,167/1000,82,119.56
138,G5,20.833,167/1000,78,119.56
139,F#5,21.0,167/1000,84,119.56
140,G5,21.167,167/1000,81,119.56
141,F#5,21.333,167/1000,86,119.56
142,G5,21.5,0.125,84,119.56
143,F#5,21.625,0.125,89,119.56
144,E5,21.75,0.125,84,119.56
145,F#5,21.875,0.125,85,119.56
146,B4,22.0,1.0,86,119.56
147,G5,22.0,1.0,86,119.56
148,G1,22.0,1.0,67,119.56
149,D2,22.0,1.0,67,119.56
150,G2,22.0,1.0,67,119.56
151,D5,23.0,0.25,83,119.56
152,D4,23.0,0.25,70,119.56
153,F#5,23.5,0.25,75,119.56
154,F#4,23.5,0.25,63,119.56
155,G5,24.0,0.25,83,119.56
156,G4,24.0,0.25,69,119.56
157,D4,25.0,0.25,66,119.56
158,D3,25.0,0.25,56,119.56
159,F#4,25.5,0.25,60,119.56
160,F#3,25.5,0.25,50,119.56
161,G4,26.0,0.25,66,119.56
162,G3,26.0,0.25,55,119.56
163,D3,27.0,0.25,69,119.56
164,D2,27.0,0.25,56,119.56
165,F#3,27.5,0.25,61,119.56
166,F#2,27.5,0.25,50,119.56
167,G3,28.0,333/1000,64,119.56
168,G2,28.0,1.0,55,119.56
169,B3,28.333,333/1000,57,119.56
170,C4,28.667,333/1000,57,119.56
171,D4,29.0,333/1000,66,119.56
172,E4,29.333,333/1000,59,119.56
173,F#4,29.667,333/1000,59,119.56
174,G4,30.0,0.25,67,119.56
175,G3,30.0,2.0,55,119.56
176,B-3,30.0,2.0,55,119.56
177,B-4,30.25,0.25,69,119.56
178,C5,30.5,0.25,71,119.56
179,D5,30.75,0.25,73,119.56
180,E5,31.0,0.25,75,119.56
181,F#5,31.25,0.25,77,119.56
182,G5,31.5,0.25,79,119.56
183,A5,31.75,0.25,84,119.56
184,B-2,32.0,1.5,60,119.56
185,F3,32.062,1.438,63,119.56
186,B-3,32.125,1.375,67,119.56
187,D4,32.188,1.312,70,119.56
188,B-5,32.188,1.312,70,119.56
189,B-4,32.188,1.312,70,119.56
190,F5,32.188,1.312,70,119.56
191,D5,32.188,1.312,70,119.56
192,B-4,33.5,9/20,71,119.56
193,D4,33.5,9/20,71,119.56
194,D5,33.5,9/20,71,119.56
195,B-1,33.5,9/20,60,119.56
196,B-2,33.5,9/20,60,119.56
197,B-4,34.0,1.0,76,119.56
198,D4,34.0,1.0,76,119.56
199,D5,34.0,1.0,76,119.56
200,B-1,34.0,1.0,60,119.56
201,B-2,34.0,1.0,60,119.56
202,E-4,35.0,0.25,73,119.56
203,E-5,35.0,0.25,73,119.56
204,B-4,35.0,0.25,73,119.56
205,C2,35.0,0.25,54,119.56
206,C3,35.0,0.25,54,119.56
207,F4,35.5,0.25,77,119.56
208,B-4,35.5,0.25,77,119.56
209,F5,35.5,0.25,77,119.56
210,D2,35.5,0.25,60,119.56
211,D3,35.5,0.25,60,119.56
212,B-4,36.0,0.25,80,119.56
213,G4,36.0,0.25,80,119.56
214,G5,36.0,0.25,80,119.56
215,E-2,36.0,0.25,60,119.56
216,B-2,36.0,0.25,60,119.56
217,E-3,36.0,0.25,60,119.56
218,F4,37.0,0.25,76,119.56
219,F5,37.0,0.25,76,119.56
220,B-4,37.0,0.25,76,119.56
221,D2,37.0,0.25,55,119.56
222,B-2,37.0,0.25,55,119.56
223,D3,37.0,0.25,55,119.56
224,B-4,39.5,9/20,71,119.56
225,D4,39.5,9/20,71,119.56
226,D5,39.5,9/20,71,119.56
227,B-1,39.5,9/20,60,119.56
228,B-2,39.5,9/20,60,119.56
229,D4,40.0,1.0,79,119.56
230,D5,40.0,1.0,79,119.56
231,B-4,40.0,1.0,79,119.56
232,B-1,40.0,1.0,60,119.56
233,B-2,40.0,1.0,60,119.56
234,B-4,41.0,0.25,79,119.56
235,E-4,41.0,0.25,79,119.56
236,E-5,41.0,0.25,79,119.56
237,C2,41.0,0.25,54,119.56
238,C3,41.0,0.25,54,119.56
239,B-4,41.5,0.25,83,119.56
240,F5,41.5,0.25,83,119.56
241,F4,41.5,0.25,83,119.56
242,D2,41.5,0.25,60,119.56
243,D3,41.5,0.25,60,119.56
244,G4,42.0,1.0,85,119.56
245,G5,42.0,1.0,85,119.56
246,B-4,42.0,1.0,85,119.56
247,E-2,42.0,0.5,60,119.56
248,B-2,42.0,0.5,60,119.56
249,E-3,42.0,0.5,60,119.56
250,B-4,43.0,0.25,83,119.56
251,F5,43.0,0.25,83,119.56
252,F4,43.0,0.25,83,119.56
253,B-2,43.0,0.25,53,119.56
254,D2,43.0,0.25,53,119.56
255,D3,43.0,0.25,53,119.56
256,G4,43.5,0.25,85,119.56
257,G5,43.5,0.25,85,119.56
258,B-4,43.5,0.25,85,119.56
259,E-2,43.5,0.25,58,119.56
260,B-2,43.5,0.25,58,119.56
261,E-3,43.5,0.25,58,119.56
262,B-4,44.0,0.25,87,119.56
263,G#5,44.0,0.25,87,119.56
264,G#4,44.0,0.25,87,119.56
265,F2,44.0,0.25,60,119.56
266,B-2,44.0,0.25,60,119.56
267,F3,44.0,0.25,60,119.56
268,G5,45.0,0.25,83,119.56
269,G4,45.0,0.25,83,119.56
270,B-4,45.0,0.25,83,119.56
271,E-2,45.0,0.25,55,119.56
272,B-2,45.0,0.25,55,119.56
273,E-3,45.0,0.25,55,119.56
274,F5,47.0,0.25,73,119.56
275,B-4,47.0,0.25,73,119.56
276,F4,47.0,0.25,73,119.56
277,D2,47.0,0.25,54,119.56
278,D3,47.0,0.25,54,119.56
279,G4,47.5,0.25,77,119.56
280,G5,47.5,0.25,77,119.56
281,B-4,47.5,0.25,77,119.56
282,E-2,47.5,0.25,60,119.56
283,E-3,47.5,0.25,60,119.56
284,G5,48.0,0.25,80,119.56
285,B5,48.0,0.25,80,119.56
286,B4,48.0,0.25,80,119.56
287,F2,48.0,0.25,62,119.56
288,F3,48.0,0.25,62,119.56
289,C5,49.0,0.25,83,119.56
290,C6,49.0,0.25,83,119.56
291,G5,49.0,0.25,83,119.56
292,E-2,49.0,0.25,62,119.56
293,E-3,49.0,0.25,62,119.56
294,D6,50.0,0.25,84,119.56
295,G5,50.0,0.25,84,119.56
296,D5,50.0,0.25,84,119.56
297,B1,50.0,0.25,64,119.56
298,B2,50.0,0.25,64,119.56
299,E-5,51.0,0.25,86,119.56
300,G5,51.0,0.25,86,119.56
301,E-6,51.0,0.25,86,119.56
302,C2,51.0,0.25,68,119.56
303,C3,51.0,0.25,68,119.56
304,F5,52.0,0.25,86,119.56
305,C6,52.0,0.25,86,119.56
306,F6,52.0,0.25,86,119.56
307,A1,52.0,0.25,68,119.56
308,A2,52.0,0.25,68,119.56
309,F#5,53.0,2.0,93,119.56
310,F#6,53.0,2.0,93,119.56
311,D6,53.0,2.0,93,119.56
312,C6,53.0,2.0,93,119.56
313,G#1,53.0,2.0,66,119.56
314,D2,53.0,2.0,66,119.56
315,G#2,53.0,2.0,66,119.56
316,C6,55.0,1.0,93,119.56
317,G5,55.0,1.0,93,119.56
318,G6,55.0,1.0,93,119.56
319,D6,55.0,1.0,93,119.56
320,G1,55.0,1.0,66,119.56
321,D2,55.0,1.0,66,119.56
322,G2,55.0,1.0,66,119.56
323,C6,56.0,1.0,93,119.56
324,G5,56.0,1.0,93,119.56
325,G6,56.0,1.0,93,119.56
326,D6,56.0,1.0,93,119.56
327,G1,56.0,1.0,66,119.56
328,D2,56.0,1.0,66,119.56
329,G2,56.0,1.0,66,119.56
330,A5,57.0,979/500,93,119.56
331,D6,57.0,979/500,93,119.56
332,A6,57.0,979/500,93,119.56
333,C6,57.0,979/500,93,119.56
334,F#1,57.0,979/500,66,119.56
335,D2,57.0,979/500,66,119.56
336,F#2,57.0,979/500,66,119.56
337,A5,59.0,1.0,93,119.56
338,A6,59.0,1.0,93,119.56
339,C6,59.0,1.0,93,119.56
340,D6,59.0,1.0,93,119.56
341,F#1,59.0,1.0,66,119.56
342,D2,59.0,1.0,66,119.56
343,F#2,59.0,1.0,66,119.56
344,A5,60.0,0.5,93,119.56
345,A6,60.0,0.5,93,119.56
346,C6,60.0,0.5,93,119.56
347,D6,60.0,0.5,93,119.56
348,G1,60.0,0.25,54,119.56
349,D2,60.0,0.25,54,119.56
350,G2,60.0,0.25,54,119.56
351,G6,60.5,0.25,74,119.56
352,G5,60.5,0.25,74,119.56
353,B5,60.5,0.25,74,119.56
354,F5,61.0,0.25,81,119.56
355,F6,61.0,0.25,81,119.56
356,D3,61.0,2.0,61,119.56
357,F3,61.0,2.0,61,119.56
358,B3,61.0,2.0,61,119.56
359,G3,61.0,2.0,61,119.56
360,D5,61.5,0.25,69,119.56
361,D6,61.5,0.25,69,119.56
362,B5,62.0,0.25,80,119.56
363,B4,62.0,0.25,80,119.56
364,G5,62.5,0.25,64,119.56
365,G4,62.5,0.25,64,119.56
366,F5,63.0,0.25,76,119.56
367,F4,63.0,0.25,76,119.56
368,G1,63.0,0.25,52,119.56
369,G2,63.0,0.25,52,119.56
370,D5,63.5,0.25,62,119.56
371,D4,63.5,0.25,62,119.56
372,C4,64.0,1.5,72,119.56
373,C5,64.0,1.5,72,119.56
374,E4,64.0,1.5,72,119.56
375,C2,64.0,0.25,57,119.56
376,G2,64.0,0.25,57,119.56
377,C3,64.0,0.25,57,119.56
378,C3,65.5,9/20,37,119.56
379,E3,65.5,9/20,37,119.56
380,C3,66.0,1.0,42,119.56
381,E3,66.0,1.0,42,119.56
382,D3,67.0,0.25,38,119.56
383,F3,67.0,0.25,38,119.56
384,C4,67.5,9/20,40,119.56
385,E3,67.5,0.25,40,119.56
386,G3,67.5,0.25,40,119.56
387,C4,68.0,1.0,48,119.56
388,F3,68.0,0.25,42,119.56
389,A3,68.0,0.25,42,119.56
390,D4,69.0,0.25,41,119.56
391,E3,69.0,0.25,37,119.56
392,G3,69.0,0.25,37,119.56
393,E4,69.5,0.25,46,119.56
394,F4,70.0,479/500,51,119.56
395,G3,70.0,1.0,40,119.56
396,B3,70.0,1.0,40,119.56
397,F4,71.0,9/20,45,119.56
398,C4,71.0,0.25,38,119.56
399,A3,71.0,0.25,38,119.56
400,F4,71.5,9/20,42,119.56
401,G4,71.5,9/20,42,119.56
402,B3,71.5,0.25,40,119.56
403,D4,71.5,0.25,40,119.56
404,G4,72.0,1.0,49,119.56
405,F4,72.0,1.0,43,119.56
406,C4,72.0,1.0,43,119.56
407,A4,73.0,0.25,45,119.56
408,E4,73.0,0.25,40,119.56
409,C4,73.0,0.25,40,119.56
410,B4,73.5,0.25,45,119.56
411,G5,73.5,9/20,51,119.56
412,D4,73.5,0.25,37,119.56
413,G3,73.5,0.25,37,119.56
414,G5,74.0,1.5,55,119.56
415,C5,74.0,1.0,49,119.56
416,E4,74.0,1.0,45,119.56
417,C4,74.0,1.0,45,119.56
418,D5,75.0,0.25,47,119.56
419,D4,75.0,0.25,38,119.56
420,G3,75.0,0.25,38,119.56
421,E5,75.5,0.25,55,119.56
422,G5,75.5,9/20,55,119.56
423,E3,75.5,0.25,38,119.56
424,C4,75.5,0.25,38,119.56
425,G5,76.0,0.5,62,119.56
426,F5,76.0,1.5,53,119.56
427,B3,76.0,1.5,45,119.56
428,G3,76.0,1.5,45,119.56
429,F#5,76.5,0.5,53,119.56
430,A5,77.0,0.25,63,119.56
431,E5,77.5,0.5,45,119.56
432,G5,77.5,0.25,54,119.56
433,E4,77.5,9/20,40,119.56
434,C4,77.5,9/20,40,119.56
435,G5,78.0,0.5,59,119.56
436,E5,78.0,1.5,50,119.56
437,E4,78.0,1.5,49,119.56
438,C4,78.0,1.5,49,119.56
439,F#5,78.5,0.5,50,119.56
440,A5,79.0,0.25,59,119.56
441,C5,79.5,0.5,42,119.56
442,G5,79.5,0.25,50,119.56
443,G4,79.5,9/20,43,119.56
444,E4,79.5,9/20,43,119.56
445,C#5,80.0,1.0,60,119.56
446,B-5,80.0,1.0,60,119.56
447,G4,80.0,1.0,50,119.56
448,E4,80.0,1.0,50,119.56
449,F4,81.0,0.25,50,119.56
450,A5,81.0,0.25,54,119.56
451,D5,81.0,0.25,54,119.56
452,D3,82.0,1.0,42,119.56
453,F3,82.0,1.0,42,119.56
454,E3,83.0,0.25,38,119.56
455,G3,83.0,0.25,38,119.56
456,D4,83.5,9/20,40,119.56
457,F3,83.5,0.25,40,119.56
458,A3,83.5,0.25,40,119.56
459,D4,84.0,1.0,48,119.56
460,G3,84.0,0.25,42,119.56
461,B-3,84.0,0.25,42,119.56
462,E4,85.0,0.25,41,119.56
463,F3,85.0,0.25,37,119.56
464,A3,85.0,0.25,37,119.56
465,F4,85.5,0.25,46,119.56
466,G4,86.0,1.0,51,119.56
467,A3,86.0,1.0,40,119.56
468,C#4,86.0,1.0,40,119.56
469,G4,87.0,0.5,45,119.56
470,D4,87.0,0.25,38,119.56
471,B3,87.0,0.25,38,119.56
472,A4,87.5,9/20,42,119.56
473,G4,87.5,9/20,42,119.56
474,C#4,87.5,0.25,40,119.56
475,E4,87.5,0.25,40,119.56
476,A4,88.0,1.0,49,119.56
477,G4,88.0,1.0,43,119.56
478,D4,88.0,1.0,43,119.56
479,B4,89.0,0.25,45,119.56
480,F4,89.0,0.25,40,119.56
481,D4,89.0,0.25,40,119.56
482,C#5,89.5,0.25,45,119.56
483,A5,89.5,9/20,51,119.56
484,E4,89.5,0.25,37,119.56
485,A3,89.5,0.25,37,119.56
486,D5,90.0,1.0,49,119.56
487,A5,90.0,1.5,55,119.56
488,F4,90.0,1.0,45,119.56
489,D4,90.0,1.0,45,119.56
490,E5,91.0,0.25,47,119.56
491,E4,91.0,0.25,38,119.56
492,A3,91.0,0.25,38,119.56
493,A5,91.5,9/20,55,119.56
494,F5,91.5,0.25,55,119.56
495,F3,91.5,0.25,38,119.56
496,D4,91.5,0.25,38,119.56
497,G5,92.0,1.5,53,119.56
498,A5,92.0,0.5,62,119.56
499,C#4,92.0,1.5,45,119.56
500,A3,92.0,1.5,45,119.56
501,G#5,92.5,0.5,53,119.56
502,B-5,93.0,0.25,63,119.56
503,F5,93.5,0.5,45,119.56
504,A5,93.5,0.25,54,119.56
505,F4,93.5,9/20,40,119.56
506,D4,93.5,9/20,40,119.56
507,A5,94.0,0.5,59,119.56
508,F5,94.0,1.5,50,119.56
509,F4,94.0,1.5,49,119.56
510,D4,94.0,1.5,49,119.56
511,G#5,94.5,0.5,50,119.56
512,B-5,95.0,0.25,59,119.56
513,A5,95.5,0.25,50,119.56
514,D5,95.5,0.5,42,119.56
515,A4,95.5,9/20,43,119.56
516,F4,95.5,9/20,43,119.56
517,E-5,96.0,1.0,62,119.56
518,C6,96.0,1.0,62,119.56
519,A4,96.0,1.0,50,119.56
520,F#4,96.0,1.0,50,119.56
521,G4,97.0,0.25,50,119.56
522,E5,97.0,0.25,54,119.56
523,B5,97.0,0.25,54,119.56
524,E3,98.0,1.0,40,119.56
525,G3,98.0,1.0,40,119.56
526,A3,99.0,0.25,38,119.56
527,F#3,99.0,0.25,38,119.56
528,G3,99.5,0.25,40,119.56
529,B3,99.5,0.25,40,119.56
530,E6,100.0,1.0,78,119.56
531,F#5,100.0,1.5,66,119.56
532,C4,100.0,1.5,50,119.56
533,A3,100.0,1.5,50,119.56
534,E-6,101.0,0.25,69,119.56
535,G3,102.0,1.0,48,119.56
536,E4,102.0,1.0,48,119.56
537,F#4,103.0,0.25,42,119.56
538,A3,103.0,0.25,42,119.56
539,B3,103.5,0.25,45,119.56
540,G4,103.5,0.25,45,119.56
541,A5,104.0,1.5,68,119.56
542,G6,104.0,1.0,81,119.56
543,C4,104.0,1.0,54,119.56
544,A4,104.0,1.0,54,119.56
545,E-4,104.0,1.0,54,119.56
546,F#6,105.0,0.25,72,119.56
547,C4,105.5,9/20,50,119.56
548,E-4,105.5,9/20,50,119.56
549,A4,105.5,9/20,50,119.56
550,A6,106.0,1.0,74,119.56
551,B-5,106.0,1.0,74,119.56
552,C#4,106.0,1.0,57,119.56
553,B-4,106.0,1.0,57,119.56
554,E4,106.0,1.0,57,119.56
555,G6,107.0,0.25,74,119.56
556,E-3,109.5,9/20,50,119.56
557,B2,109.5,9/20,50,119.56
558,E-3,110.0,1.0,58,119.56
559,B2,110.0,1.0,58,119.56
560,C#3,111.0,0.25,51,119.56
561,E3,111.0,0.25,51,119.56
562,E-3,111.5,0.25,53,119.56
563,F#3,111.5,0.25,53,119.56
564,E5,112.0,1.0,58,119.56
565,E4,112.0,1.0,58,119.56
566,E3,112.0,479/500,61,119.56
567,G#3,112.0,479/500,61,119.56
568,E-5,113.0,0.25,61,119.56
569,B3,113.0,0.25,54,119.56
570,G#3,113.0,0.25,54,119.56
571,C#5,113.5,0.25,61,119.56
572,C#4,113.5,0.25,58,119.56
573,A3,113.5,0.25,58,119.56
574,B4,114.0,1.0,64,119.56
575,A5,114.0,1.0,64,119.56
576,E-4,114.0,1.0,61,119.56
577,B3,114.0,1.0,61,119.56
578,G#5,115.0,0.25,61,119.56
579,C#4,115.0,0.25,59,119.56
580,E4,115.0,0.25,59,119.56
581,F#5,115.5,0.25,61,119.56
582,E-4,115.5,0.25,61,119.56
583,F#4,115.5,0.25,61,119.56
584,E5,116.0,2.0,61,119.56
585,B5,116.0,1.0,72,119.56
586,E4,116.0,1.0,63,119.56
587,G#4,116.0,1.0,63,119.56
588,A5,117.0,0.25,65,119.56
589,F#4,117.0,0.25,61,119.56
590,A4,117.0,0.25,61,119.56
591,G#5,117.5,0.25,61,119.56
592,G#4,117.5,0.25,64,119.56
593,B4,117.5,0.25,64,119.56
594,E5,118.0,1.0,59,119.56
595,F#5,118.0,0.5,70,119.56
596,A4,118.0,0.5,69,119.56
597,C5,118.0,0.5,69,119.56
598,G5,118.5,9/20,61,119.56
599,B-4,118.5,9/20,63,119.56
600,C#5,118.5,9/20,63,119.56
601,G5,119.0,1.0,63,119.56
602,E5,119.0,1.0,53,119.56
603,B-4,119.0,1.0,63,119.56
604,C#5,119.0,1.0,63,119.56
605,G5,120.0,0.5,63,119.56
606,E5,120.0,1.0,53,119.56
607,B-4,120.0,0.5,63,119.56
608,C#5,120.0,0.5,63,119.56
609,F#5,120.5,0.5,67,119.56
610,A4,120.5,0.5,60,119.56
611,C5,120.5,0.5,60,119.56
612,E5,121.0,1.0,59,119.56
613,F#5,121.0,0.5,70,119.56
614,A4,121.0,0.5,63,119.56
615,C5,121.0,0.5,63,119.56
616,G5,121.5,9/20,64,119.56
617,B-4,121.5,9/20,57,119.56
618,C#5,121.5,9/20,57,119.56
619,G5,122.0,0.5,64,119.56
620,E5,122.0,1.0,54,119.56
621,B-4,122.0,0.5,57,119.56
622,C#5,122.0,0.5,57,119.56
623,G#5,122.5,9/20,61,119.56
624,B4,122.5,9/20,57,119.56
625,D5,122.5,9/20,57,119.56
626,E5,123.0,1.0,59,119.56
627,G#5,123.0,1.0,70,119.56
628,B4,123.0,1.0,63,119.56
629,D5,123.0,1.0,63,119.56
630,E5,124.0,1.0,59,119.56
631,G#5,124.0,0.5,70,119.56
632,B4,124.0,0.5,63,119.56
633,D5,124.0,0.5,63,119.56
634,G5,124.5,0.5,60,119.56
635,B-4,124.5,0.5,63,119.56
636,C#5,124.5,0.5,63,119.56
637,G5,125.0,0.5,62,119.56
638,E5,125.0,1.0,52,119.56
639,B-4,125.0,0.5,68,119.56
640,C#5,125.0,0.5,68,119.56
641,G#5,125.5,9/20,64,119.56
642,B4,125.5,9/20,63,119.56
643,D5,125.5,9/20,63,119.56
644,G#5,126.0,0.5,66,119.56
645,E5,126.0,1.0,56,119.56
646,B4,126.0,0.5,65,119.56
647,D5,126.0,0.5,65,119.56
648,A5,126.5,9/20,68,119.56
649,C5,126.5,9/20,63,119.56
650,C5,127.0,1.0,71,119.56
651,E5,127.0,1.0,68,119.56
652,A5,127.0,1.0,68,119.56
653,C5,128.0,229/500,71,119.56
654,E5,128.0,229/500,68,119.56
655,A5,128.0,229/500,68,119.56
656,C#5,128.5,9/20,63,119.56
657,B-5,128.5,9/20,64,119.56
658,E5,128.5,9/20,64,119.56
659,C#5,129.0,0.5,71,119.56
660,E5,129.0,0.5,71,119.56
661,B-5,129.0,0.5,71,119.56
662,B-4,129.5,9/20,63,119.56
663,G5,129.5,9/20,62,119.56
664,C#6,129.5,9/20,62,119.56
665,B-4,130.0,0.5,67,119.56
666,G5,130.0,0.5,64,119.56
667,C#6,130.0,0.5,64,119.56
668,G4,130.5,9/20,63,119.56
669,B-5,130.5,9/20,70,119.56
670,E6,130.5,9/20,70,119.56
671,G4,131.0,0.5,73,119.56
672,E6,131.0,0.5,75,119.56
673,B-5,131.0,0.5,75,119.56
674,B-3,131.5,0.5,67,119.56
675,G6,131.5,0.5,68,119.56
676,C#6,131.5,0.5,68,119.56
677,B3,132.0,0.25,74,119.56
678,F#6,132.0,0.25,74,119.56
679,E-6,132.0,0.25,74,119.56
680,B2,132.5,0.5,70,119.56
681,C4,133.0,1.5,68,119.56
682,C3,133.0,1.5,68,119.56
683,F#4,133.5,2.5,80,119.56
684,F#5,134.0,1.5,85,119.56
685,A4,134.0,2.0,72,119.56
686,B1,134.5,0.5,69,119.56
687,C2,135.0,1.0,68,119.56
688,C3,135.0,1.0,68,119.56
689,E5,135.5,0.5,80,119.56
690,E-5,136.0,0.5,84,119.56
691,F#4,136.0,0.5,80,119.56
692,A4,136.0,0.5,72,119.56
693,B2,136.5,0.5,69,119.56
694,C3,137.0,1.0,64,119.56
695,C4,137.0,1.0,64,119.56
696,F#5,137.5,2.5,83,119.56
697,A5,138.0,2.0,76,119.56
698,F#6,138.0,1.5,90,119.56
699,B1,138.5,0.5,68,119.56
700,C2,139.0,1.0,68,119.56
701,C3,139.0,1.0,68,119.56
702,E6,139.5,0.5,85,119.56
703,E-6,140.0,0.5,95,119.56
704,F#5,140.0,0.5,83,119.56
705,A5,140.0,0.5,76,119.56
706,B1,140.0,0.25,70,119.56
707,B2,140.0,0.25,70,119.56
708,A6,141.0,0.25,88,119.56
709,E-6,141.0,0.25,88,119.56
710,F#6,141.0,0.25,88,119.56
711,A5,141.0,0.25,88,119.56
712,B2,141.0,0.25,68,119.56
713,E-3,141.0,0.25,68,119.56
714,F#3,141.0,0.25,68,119.56
715,B3,141.0,0.25,68,119.56
716,F#4,143.0,1.0,77,119.56
717,A4,144.0,2.5,83,119.56
718,C4,144.5,0.5,64,119.56
719,E4,145.0,0.5,70,119.56
720,E5,145.5,0.5,63,119.56
721,F#4,147.0,1.0,46,119.56
722,A4,148.0,2.5,49,119.56
723,B3,148.5,0.5,38,119.56
724,E-4,149.0,0.5,42,119.56
725,E-5,149.5,0.5,37,119.56
726,F#4,151.0,1.0,46,119.56
727,A4,152.0,2.0,49,119.56
728,C4,152.5,0.5,26,119.56
729,E4,153.0,0.5,28,119.56
730,C4,153.5,0.5,22,119.56
731,B4,154.0,1.5,48,119.56
732,E4,154.0,0.5,28,119.56
733,C4,154.5,0.5,24,119.56
734,E4,155.0,0.5,24,119.56
735,C5,155.5,9/20,46,119.56
736,A4,155.5,0.5,20,119.56
737,C5,156.0,2.0,53,119.56
738,D4,156.5,0.5,23,119.56
739,F4,157.0,0.5,27,119.56
740,D4,157.5,0.5,22,119.56
741,B4,158.0,1.0,46,119.56
742,F4,158.0,0.5,27,119.56
743,D4,158.5,0.5,24,119.56
744,F4,159.0,0.5,24,119.56
745,D5,159.5,0.5,49,119.56
746,A4,159.5,0.5,20,119.56
747,F5,160.0,2.0,54,119.56
748,E3,160.5,0.5,24,119.56
749,G#3,161.0,0.5,27,119.56
750,E3,161.5,0.5,24,119.56
751,E5,162.0,1.5,50,119.56
752,G#3,162.0,0.5,27,119.56
753,E3,162.5,0.5,23,119.56
754,G#3,163.0,0.5,23,119.56
755,B4,163.5,0.5,50,119.56
756,D4,163.5,0.5,19,119.56
757,D5,164.0,2.0,57,119.56
758,A3,164.5,0.5,23,119.56
759,E4,165.0,0.5,27,119.56
760,A3,165.5,0.5,24,119.56
761,C5,166.0,1.0,52,119.56
762,E4,166.0,0.5,27,119.56
763,A3,166.5,0.5,22,119.56
764,E4,167.0,0.5,22,119.56
765,A4,167.5,0.5,20,119.56
766,C5,168.0,979/500,49,119.56
767,A2,168.5,0.5,29,119.56
768,E3,169.0,0.5,32,119.56
769,A2,169.5,0.5,28,119.56
770,C5,170.0,2.0,50,119.56
771,E3,170.0,0.5,32,119.56
772,A2,170.5,0.5,27,119.56
773,E3,171.0,0.5,27,119.56
774,D5,171.5,0.5,56,119.56
775,F#3,171.5,0.5,27,119.56
776,E5,172.0,1.0,65,119.56
777,C5,172.0,1.0,50,119.56
778,G2,172.5,0.5,26,119.56
779,E3,173.0,0.5,31,119.56
780,G3,173.5,0.5,27,119.56
781,C4,174.0,0.5,39,119.56
782,E5,174.0,2.0,69,119.56
783,G5,174.0,2.0,69,119.56
784,G3,174.5,0.5,34,119.56
785,E3,175.0,0.5,37,119.56
786,C3,175.5,0.5,40,119.56
787,F#2,176.0,0.5,44,119.56
788,E5,176.0,1.0,69,119.56
789,G5,176.0,1.0,69,119.56
790,B2,176.5,0.5,38,119.56
791,E3,177.0,0.5,38,119.56
792,G3,177.5,0.5,38,119.56
793,E2,178.0,0.5,51,119.56
794,G5,178.0,2.0,68,119.56
795,B5,178.0,2.0,68,119.56
796,B2,178.5,0.5,40,119.56
797,E3,179.0,0.5,42,119.56
798,G3,179.5,0.5,42,119.56
799,B1,180.0,0.5,57,119.56
800,G5,180.0,1.0,68,119.56
801,B5,180.0,1.0,68,119.56
802,B2,180.5,0.5,44,119.56
803,D3,181.0,0.5,44,119.56
804,G3,181.5,0.5,44,119.56
805,D5,181.875,2.125,69,119.56
806,G5,181.938,2.062,73,119.56
807,D6,182.0,2.0,76,119.56
808,G4,182.0,0.5,53,119.56
809,D4,182.5,0.5,44,119.56
810,B3,183.0,0.5,44,119.56
811,G3,183.5,0.5,44,119.56
812,D5,184.0,1.5,69,119.56
813,G5,184.0,1.5,73,119.56
814,D6,184.0,1.5,76,119.56
815,B2,184.0,0.5,53,119.56
816,D3,184.5,0.5,42,119.56
817,G3,185.0,0.5,44,119.56
818,B5,185.5,0.5,66,119.56
819,D4,185.5,0.5,41,119.56
820,F#5,186.0,2.0,62,119.56
821,C6,186.0,1.5,73,119.56
822,E-3,186.5,0.5,39,119.56
823,A3,187.0,0.5,42,119.56
824,A5,187.5,0.5,61,119.56
825,C4,187.5,0.5,39,119.56
826,G5,188.0,2.0,69,119.56
827,E3,188.5,0.5,39,119.56
828,G3,189.0,0.5,42,119.56
829,C4,189.5,0.5,39,119.56
830,A5,190.0,1.5,63,119.56
831,C5,190.0,2.0,53,119.56
832,F3,190.5,0.5,32,119.56
833,A3,191.0,0.5,37,119.56
834,F5,191.5,0.5,52,119.56
835,C4,191.5,0.5,32,119.56
836,E5,192.0,2.0,63,119.56
837,C5,192.0,2.0,53,119.56
838,G3,192.5,0.5,33,119.56
839,C4,193.0,0.5,37,119.56
840,E4,193.5,0.5,34,119.56
841,B4,194.0,2.0,54,119.56
842,F5,194.0,2.0,64,119.56
843,G#3,194.0,2.0,44,119.56
844,D4,194.5,0.5,34,119.56
845,F4,195.0,0.5,34,119.56
846,G#4,195.5,0.5,34,119.56
847,C5,196.0,2.0,64,119.56
848,F5,196.0,1.5,64,119.56
849,A3,196.0,2.0,44,119.56
850,C4,196.5,0.5,30,119.56
851,F4,197.0,0.5,34,119.56
852,E5,197.5,0.5,52,119.56
853,A4,197.5,0.5,29,119.56
854,F#5,198.0,1.5,50,119.56
855,A4,198.0,2.0,42,119.56
856,B3,198.0,2.0,32,119.56
857,E-4,198.5,0.5,26,119.56
858,F#4,199.0,0.5,29,119.56
859,E-5,199.5,0.5,37,119.56
860,B4,199.5,0.5,26,119.56
861,E5,200.0,1979/500,34,119.56
862,E4,200.0,0.5,28,119.56
863,C6,200.0,2.0,40,119.56
864,E6,200.0,2.0,40,119.56
865,E3,200.5,0.5,20,119.56
866,E4,201.0,0.5,20,119.56
867,E3,201.5,0.5,20,119.56
868,D6,202.0,1.0,35,119.56
869,B5,202.0,1.0,35,119.56
870,D4,202.0,0.5,26,119.56
871,B3,202.0,0.5,26,119.56
872,E3,202.5,0.5,21,119.56
873,C6,203.0,1.0,41,119.56
874,E6,203.0,1.0,41,119.56
875,E4,203.0,0.5,20,119.56
876,C4,203.0,0.5,20,119.56
877,E3,203.5,0.5,21,119.56
878,E5,204.0,1979/500,25,119.56
879,F6,204.0,1.5,46,119.56
880,D6,204.0,1.5,46,119.56
881,F4,204.0,0.5,26,119.56
882,D4,204.0,0.5,26,119.56
883,E3,204.5,0.5,20,119.56
884,D4,205.0,0.5,18,119.56
885,B3,205.0,0.5,18,119.56
886,E3,205.5,0.5,20,119.56
887,D6,205.5,0.5,39,119.56
888,B5,205.5,0.5,39,119.56
889,B5,206.0,1.0,46,119.56
890,G#5,206.0,1.0,46,119.56
891,G#3,206.0,0.5,25,119.56
892,B3,206.0,0.5,25,119.56
893,E3,206.5,0.5,21,119.56
894,A5,207.0,1.0,40,119.56
895,C6,207.0,1.0,40,119.56
896,C4,207.0,0.5,20,119.56
897,A3,207.0,0.5,20,119.56
898,E3,207.5,0.5,21,119.56
899,E5,208.0,1979/500,34,119.56
900,B5,208.0,1.0,40,119.56
901,D6,208.0,1.0,40,119.56
902,B3,208.0,0.5,26,119.56
903,D4,208.0,0.5,26,119.56
904,E3,208.5,0.5,20,119.56
905,C6,209.0,1.0,35,119.56
906,A5,209.0,1.0,35,119.56
907,A3,209.0,0.5,22,119.56
908,C4,209.0,0.5,22,119.56
909,E3,209.5,0.5,20,119.56
910,G5,210.0,1.0,35,119.56
911,B5,210.0,1.0,35,119.56
912,B3,210.0,0.5,26,119.56
913,G3,210.0,0.5,26,119.56
914,E3,210.5,0.5,21,119.56
915,A5,211.0,1.0,41,119.56
916,F5,211.0,1.0,41,119.56
917,A3,211.0,0.5,20,119.56
918,F3,211.0,0.5,20,119.56
919,E3,211.5,0.5,21,119.56
920,G#5,212.0,1.5,46,119.56
921,E5,212.0,1479/500,25,119.56
922,G#3,212.0,0.5,28,119.56
923,E3,212.5,0.5,20,119.56
924,A3,213.0,0.5,18,119.56
925,F#3,213.0,0.5,18,119.56
926,E3,213.5,0.5,20,119.56
927,A5,213.5,0.5,39,119.56
928,F#5,213.5,0.5,39,119.56
929,G#5,214.0,1.0,46,119.56
930,B5,214.0,1.0,46,119.56
931,G#3,214.0,0.5,25,119.56
932,B3,214.0,0.5,25,119.56
933,E3,214.5,0.5,21,119.56
934,E5,215.0,1.0,40,119.56
935,G#3,215.0,0.5,21,119.56
936,E3,215.5,0.5,21,119.56
937,E5,216.0,1979/500,40,119.56
938,C6,216.0,2.0,40,119.56
939,E6,216.0,2.0,40,119.56
940,C4,216.0,0.5,26,119.56
941,E4,216.0,0.5,26,119.56
942,E3,216.5,0.5,20,119.56
943,C4,217.0,0.5,22,119.56
944,E4,217.0,0.5,22,119.56
945,E3,217.5,0.5,20,119.56
946,B5,218.0,1.0,35,119.56
947,D6,218.0,1.0,35,119.56
948,D4,218.0,0.5,26,119.56
949,B3,218.0,0.5,26,119.56
950,E3,218.5,0.5,21,119.56
951,E6,219.0,1.0,43,119.56
952,C6,219.0,1.0,43,119.56
953,E4,219.0,0.5,20,119.56
954,C4,219.0,0.5,20,119.56
955,E3,219.5,0.5,22,119.56
956,E5,220.0,1979/500,25,119.56
957,G6,220.0,1.5,55,119.56
958,E6,220.0,1.5,55,119.56
959,G4,220.0,0.5,28,119.56
960,E4,220.0,0.5,28,119.56
961,E3,220.5,0.5,22,119.56
962,F4,221.0,0.5,20,119.56
963,D4,221.0,0.5,20,119.56
964,E3,221.5,0.5,22,119.56
965,D6,221.5,0.5,42,119.56
966,F6,221.5,0.5,42,119.56
967,B5,222.0,1.0,50,119.56
968,D6,222.0,1.0,50,119.56
969,B3,222.0,0.5,28,119.56
970,D4,222.0,0.5,28,119.56
971,E3,222.5,0.5,23,119.56
972,F6,223.0,1.0,44,119.56
973,D6,223.0,1.0,44,119.56
974,F4,223.0,0.5,21,119.56
975,D4,223.0,0.5,21,119.56
976,E3,223.5,0.5,23,119.56
977,E5,224.0,1979/500,37,119.56
978,C6,224.0,1.0,44,119.56
979,E6,224.0,1.0,44,119.56
980,C4,224.0,0.5,28,119.56
981,E4,224.0,0.5,28,119.56
982,E3,224.5,0.5,22,119.56
983,A5,225.0,1.0,37,119.56
984,C6,225.0,1.0,37,119.56
985,A3,225.0,0.5,24,119.56
986,C4,225.0,0.5,24,119.56
987,E3,225.5,0.5,21,119.56
988,D6,226.0,1.0,36,119.56
989,B5,226.0,1.0,36,119.56
990,D4,226.0,0.5,27,119.56
991,B3,226.0,0.5,27,119.56
992,E3,226.5,0.5,21,119.56
993,G#5,227.0,1.0,42,119.56
994,B5,227.0,1.0,42,119.56
995,B3,227.0,0.5,20,119.56
996,G#3,227.0,0.5,20,119.56
997,E3,227.5,0.5,21,119.56
998,E5,228.0,4.0,25,119.56
999,C6,228.0,1.0,43,119.56
1000,A5,228.0,1.0,43,119.56
1001,A3,228.0,0.5,26,119.56
1002,C4,228.0,0.5,26,119.56
1003,E3,228.5,0.5,20,119.56
1004,A5,229.0,1.0,39,119.56
1005,F#5,229.0,1.0,39,119.56
1006,A3,229.0,0.5,18,119.56
1007,F#3,229.0,0.5,18,119.56
1008,E3,229.5,0.5,20,119.56
1009,B5,230.0,1.0,46,119.56
1010,G#5,230.0,1.0,46,119.56
1011,G#3,230.0,0.5,25,119.56
1012,B3,230.0,0.5,25,119.56
1013,E3,230.5,0.5,21,119.56
1014,E5,231.0,1.0,40,119.56
1015,G#3,231.0,0.5,21,119.56
1016,E3,231.5,0.5,21,119.56
1017,C4,232.0,0.5,29,119.56
1018,E4,232.5,0.5,24,119.56
1019,A3,232.5,0.5,21,119.56
1020,A4,233.0,0.5,34,119.56
1021,E3,233.0,0.5,24,119.56
1022,E5,233.5,0.5,24,119.56
1023,C3,233.5,0.5,21,119.56
1024,C4,234.0,0.5,29,119.56
1025,E4,234.5,0.5,27,119.56
1026,A3,234.5,0.5,22,119.56
1027,B4,235.0,0.5,33,119.56
1028,E3,235.0,0.5,24,119.56
1029,E5,235.5,0.5,24,119.56
1030,C3,235.5,0.5,20,119.56
1031,D4,236.0,0.5,29,119.56
1032,A4,236.5,0.5,27,119.56
1033,A3,236.5,0.5,20,119.56
1034,C5,237.0,0.5,34,119.56
1035,F3,237.0,0.5,24,119.56
1036,F5,237.5,0.5,24,119.56
1037,D3,237.5,0.5,21,119.56
1038,D4,238.0,0.5,29,119.56
1039,F4,238.5,0.5,29,119.56
1040,A3,238.5,0.5,24,119.56
1041,B4,239.0,0.5,33,119.56
1042,F3,239.0,0.5,24,119.56
1043,F5,239.471,0.5,24,119.56
1044,D3,239.471,0.5,23,119.56
1045,D4,240.0,0.5,29,119.56
1046,A4,240.5,0.5,32,119.56
1047,B3,240.5,0.5,21,119.56
1048,F5,241.0,0.5,38,119.56
1049,A3,241.0,0.5,24,119.56
1050,B5,241.5,0.5,32,119.56
1051,E3,241.5,0.5,22,119.56
1052,D4,242.0,0.5,30,119.56
1053,G#4,242.5,0.5,32,119.56
1054,B3,242.5,0.5,22,119.56
1055,E5,243.0,0.5,41,119.56
1056,G#3,243.0,0.5,25,119.56
1057,B5,243.5,0.5,34,119.56
1058,E3,243.5,0.5,25,119.56
1059,A4,244.0,0.5,30,119.56
1060,D5,244.5,0.5,35,119.56
1061,F4,244.5,0.5,23,119.56
1062,B5,245.0,0.5,44,119.56
1063,E4,245.0,0.5,25,119.56
1064,E6,245.5,0.5,38,119.56
1065,A3,245.5,0.5,22,119.56
1066,A4,246.0,0.5,31,119.56
1067,C5,246.5,0.5,38,119.56
1068,E4,246.5,0.5,25,119.56
1069,A5,247.0,0.5,48,119.56
1070,C4,247.0,0.5,29,119.56
1071,E6,247.5,0.5,36,119.56
1072,A3,247.5,0.5,26,119.56
1073,D2,248.0,0.5,43,119.56
1074,D3,248.5,0.5,38,119.56
1075,F3,249.0,3.0,42,119.56
1076,A4,249.0,1.25,42,119.56
1077,B4,249.0,1.25,42,119.56
1078,F4,249.0,1.25,42,119.56
1079,A3,249.5,2.5,47,119.56
1080,D4,250.0,2.0,51,119.56
1081,C5,250.25,0.25,45,119.56
1082,B4,250.5,0.25,45,119.56
1083,A4,250.75,0.25,45,119.56
1084,B4,251.0,0.25,46,119.56
1085,C5,251.25,0.25,49,119.56
1086,D5,251.5,0.25,52,119.56
1087,E5,251.75,0.25,55,119.56
1088,G5,252.0,1.0,68,119.56
1089,F3,252.0,2.0,42,119.56
1090,A3,252.0,2.0,47,119.56
1091,D4,252.0,2.0,51,119.56
1092,F5,253.0,0.5,64,119.56
1093,D2,256.0,0.5,43,119.56
1094,D3,256.5,0.5,38,119.56
1095,F3,257.0,3.0,42,119.56
1096,G#4,257.0,1.25,42,119.56
1097,F4,257.0,1.25,42,119.56
1098,B4,257.0,1.25,42,119.56
1099,G#3,257.5,2.5,47,119.56
1100,B3,258.0,2.0,51,119.56
1101,C5,258.25,0.25,45,119.56
1102,B4,258.5,0.25,45,119.56
1103,B-4,258.75,0.25,45,119.56
1104,B4,259.0,0.25,46,119.56
1105,C5,259.25,0.25,49,119.56
1106,D5,259.5,0.25,52,119.56
1107,E5,259.75,0.25,55,119.56
1108,G5,260.0,1.0,68,119.56
1109,F3,260.0,1.0,42,119.56
1110,G#3,260.0,1.0,47,119.56
1111,B3,260.0,1.0,51,119.56
1112,F5,261.0,0.5,64,119.56
1113,C6,262.0,1.0,74,119.56
1114,D5,262.0,1.5,62,119.56
1115,G#3,262.0,1.5,48,119.56
1116,B-3,262.0,1.5,48,119.56
1117,D4,262.0,1.5,48,119.56
1118,F4,262.0,1.5,48,119.56
1119,B-4,262.0,1.5,48,119.56
1120,B-5,263.0,0.5,69,119.56
1121,G2,266.0,11/40,45,119.56
1122,G#2,266.25,11/40,37,119.56
1123,G2,266.5,11/40,37,119.56
1124,F#2,266.75,11/40,37,119.56
1125,G2,267.0,11/40,45,119.56
1126,B-2,267.25,11/40,42,119.56
1127,E-3,267.5,11/40,45,119.56
1128,G3,267.75,0.25,48,119.56
1129,D4,268.0,11/40,41,119.56
1130,C5,268.0,1.0,41,119.56
1131,G3,268.0,1/40,48,119.56
1132,G#3,268.0,1.5,52,119.56
1133,B-3,268.0,1.5,52,119.56
1134,E-4,268.25,11/40,41,119.56
1135,D4,268.5,11/40,41,119.56
1136,C#4,268.75,11/40,41,119.56
1137,B-4,269.0,0.5,61,119.56
1138,D4,269.0,11/40,45,119.56
1139,F4,269.25,11/40,47,119.56
1140,G#4,269.5,11/40,49,119.56
1141,B-4,269.75,11/40,52,119.56
1142,E-5,270.0,1.5,67,119.56
1143,C6,270.0,1.0,67,119.56
1144,G3,270.0,11/40,45,119.56
1145,G#3,270.25,11/40,37,119.56
1146,G3,270.5,11/40,37,119.56
1147,F#3,270.75,11/40,37,119.56
1148,B-5,271.0,0.5,61,119.56
1149,G3,271.0,11/40,45,119.56
1150,B-3,271.25,11/40,42,119.56
1151,E-4,271.5,11/40,45,119.56
1152,G4,271.75,0.25,48,119.56
1153,D5,272.0,11/40,51,119.56
1154,C6,272.0,1.0,75,119.56
1155,G4,272.0,1/40,48,119.56
1156,G#4,272.0,1.5,59,119.56
1157,B-4,272.0,1.5,59,119.56
1158,E-5,272.25,11/40,47,119.56
1159,D5,272.5,11/40,47,119.56
1160,C#5,272.75,11/40,47,119.56
1161,D5,273.0,11/40,51,119.56
1162,B-5,273.0,0.5,70,119.56
1163,F5,273.25,11/40,53,119.56
1164,G#5,273.5,11/40,56,119.56
1165,B-5,273.75,11/40,60,119.56
1166,C7,274.0,1.0,77,119.56
1167,D6,274.0,1.5,77,119.56
1168,G#5,274.0,11/40,51,119.56
1169,F5,274.25,11/40,42,119.56
1170,D5,274.5,11/40,42,119.56
1171,B-4,274.75,11/40,42,119.56
1172,B-6,275.0,1.0,86,119.56
1173,G#4,275.0,11/40,51,119.56
1174,F4,275.25,11/40,48,119.56
1175,D4,275.5,11/40,51,119.56
1176,G#3,275.75,0.25,55,119.56
1177,B-6,276.0,0.5,86,119.56
1178,A3,276.0,4.0,55,119.56
1179,G#3,276.0,1/40,55,119.56
1180,A6,276.5,0.5,75,119.56
1181,G#6,277.0,0.5,77,119.56
1182,G6,277.5,0.5,73,119.56
1183,F#6,278.0,0.5,69,119.56
1184,F3,278.0,2.0,53,119.56
1185,D4,278.0,2.0,53,119.56
1186,F6,278.5,0.5,63,119.56
1187,E6,279.0,0.5,70,119.56
1188,E-6,279.5,0.5,69,119.56
1189,D6,280.0,0.5,70,119.56
1190,A3,280.0,4.0,55,119.56
1191,E3,280.0,2.0,54,119.56
1192,E4,280.0,2.0,54,119.56
1193,C#6,280.5,0.5,60,119.56
1194,C6,281.0,0.5,64,119.56
1195,B5,281.5,0.5,67,119.56
1196,B-5,282.0,0.5,71,119.56
1197,D3,282.0,2.0,57,119.56
1198,F4,282.0,2.0,57,119.56
1199,A5,282.5,0.5,60,119.56
1200,G#5,283.0,0.5,67,119.56
1201,G5,283.5,0.5,54,119.56
1202,F#5,284.0,0.5,60,119.56
1203,A3,284.0,4.0,55,119.56
1204,D3,284.0,2.0,57,119.56
1205,F4,284.0,2.0,57,119.56
1206,F5,284.5,0.5,54,119.56
1207,E5,285.0,0.5,59,119.56
1208,E-5,285.5,0.5,50,119.56
1209,D5,286.0,0.5,59,119.56
1210,F3,286.0,2.0,50,119.56
1211,D4,286.0,2.0,50,119.56
1212,C#5,286.5,0.5,46,119.56
1213,C5,287.0,0.5,53,119.56
1214,B4,287.5,0.5,46,119.56
1215,A3,288.0,2.0,55,119.56
1216,E3,288.0,2.0,44,119.56
1217,C4,288.0,2.0,44,119.56
1218,C5,289.0,1.0,54,119.56
1219,E-5,290.0,1.0,58,119.56
1220,A5,291.0,1.0,54,119.56
1221,E3,292.0,2.0,30,119.56
1222,G#3,292.0,2.0,30,119.56
1223,B3,292.0,2.0,30,119.56
1224,F5,293.0,1.0,54,119.56
1225,F4,293.0,1.0,44,119.56
1226,E5,294.0,1.0,43,119.56
1227,E4,294.0,1.0,33,119.56
1228,G#4,295.0,1.0,34,119.56
1229,G#3,295.0,1.0,24,119.56
1230,F5,296.0,0.5,32,119.56
1231,A5,296.0,2.0,40,119.56
1232,A2,296.0,2.0,30,119.56
1233,A3,296.0,2.0,30,119.56
1234,A4,296.5,0.5,23,119.56
1235,F5,297.0,0.5,23,119.56
1236,A4,297.5,0.5,23,119.56
1237,G4,298.0,1.0,32,119.56
1238,E4,298.0,0.5,24,119.56
1239,E5,298.0,1.0,35,119.56
1240,G5,298.0,1.0,35,119.56
1241,A3,298.5,0.5,21,119.56
1242,A4,299.0,1.0,24,119.56
1243,F4,299.0,0.5,18,119.56
1244,A5,299.0,1.0,41,119.56
1245,F5,299.0,1.0,41,119.56
1246,A3,299.5,0.5,21,119.56
1247,B-5,300.0,729/500,46,119.56
1248,G5,300.0,729/500,46,119.56
1249,B-4,300.0,0.5,28,119.56
1250,G4,300.0,0.5,28,119.56
1251,A3,300.5,0.5,20,119.56
1252,G4,301.0,0.5,20,119.56
1253,E4,301.0,0.5,20,119.56
1254,A3,301.5,0.5,20,119.56
1255,E5,301.5,0.5,39,119.56
1256,G5,301.5,0.5,39,119.56
1257,C#5,302.0,1.0,46,119.56
1258,E5,302.0,1.0,46,119.56
1259,C#4,302.0,0.5,27,119.56
1260,E4,302.0,0.5,27,119.56
1261,A3,302.5,0.5,21,119.56
1262,D5,303.0,1.0,40,119.56
1263,F5,303.0,1.0,40,119.56
1264,F4,303.0,0.5,21,119.56
1265,D4,303.0,0.5,21,119.56
1266,A3,303.5,0.5,21,119.56
1267,E5,304.0,1.0,40,119.56
1268,G5,304.0,1.0,40,119.56
1269,E4,304.0,0.5,28,119.56
1270,G4,304.0,0.5,28,119.56
1271,A3,304.5,0.5,20,119.56
1272,F5,305.0,1.0,35,119.56
1273,D5,305.0,1.0,35,119.56
1274,D4,305.0,0.5,24,119.56
1275,F4,305.0,0.5,24,119.56
1276,A3,305.5,0.5,20,119.56
1277,E5,306.0,1.0,35,119.56
1278,C5,306.0,1.0,35,119.56
1279,E4,306.0,0.5,28,119.56
1280,C4,306.0,0.5,28,119.56
1281,A3,306.5,0.5,21,119.56
1282,D5,307.0,1.0,41,119.56
1283,B-4,307.0,1.0,41,119.56
1284,D4,307.0,0.5,21,119.56
1285,B-3,307.0,0.5,21,119.56
1286,A3,307.5,0.5,21,119.56
1287,C#4,308.0,0.5,32,119.56
1288,C#5,308.0,1.5,36,119.56
1289,A4,308.0,1.5,36,119.56
1290,A3,308.5,0.5,23,119.56
1291,B3,309.0,0.5,21,119.56
1292,D4,309.0,0.5,21,119.56
1293,A3,309.5,0.5,23,119.56
1294,B4,309.5,0.5,39,119.56
1295,D5,309.5,0.5,39,119.56
1296,C#5,310.0,1.0,46,119.56
1297,E5,310.0,1.0,46,119.56
1298,C#4,310.0,0.5,28,119.56
1299,E4,310.0,0.5,28,119.56
1300,A3,310.523,0.5,24,119.56
1301,C#4,311.0,0.5,24,119.56
1302,E4,311.0,0.5,24,119.56
1303,A3,311.523,477/1000,20,119.56
1304,A4,312.0,0.5,32,119.56
1305,A3,312.0,23/1000,20,119.56
1306,C#6,312.0,1.5,36,119.56
1307,A5,312.0,1.5,36,119.56
1308,A3,312.5,0.5,23,119.56
1309,A4,313.0,0.5,23,119.56
1310,A3,313.5,0.5,23,119.56
1311,B5,313.5,0.5,39,119.56
1312,D6,313.5,0.5,39,119.56
1313,A4,314.0,0.5,31,119.56
1314,C#6,314.0,1.0,46,119.56
1315,E6,314.0,1.0,46,119.56
1316,A3,314.523,0.5,29,119.56
1317,A4,315.0,0.5,34,119.56
1318,A3,315.523,477/1000,39,119.56
1319,E4,316.0,0.5,44,119.56
1320,A3,316.0,23/1000,39,119.56
1321,A4,316.0,1.5,36,119.56
1322,C5,316.0,1.5,36,119.56
1323,A3,316.5,0.5,25,119.56
1324,E4,316.975,0.5,25,119.56
1325,A3,317.5,0.5,25,119.56
1326,D5,317.5,0.5,39,119.56
1327,B4,317.5,0.5,39,119.56
1328,E4,318.0,0.5,34,119.56
1329,E5,318.0,2.0,46,119.56
1330,C5,318.0,2.0,46,119.56
1331,A3,318.523,0.5,26,119.56
1332,E4,319.0,0.5,26,119.56
1333,A3,319.523,477/1000,22,119.56
1334,G4,320.0,0.5,46,119.56
1335,A3,320.0,23/1000,22,119.56
1336,G3,320.5,0.5,30,119.56
1337,G4,321.0,0.5,32,119.56
1338,G3,321.5,0.5,34,119.56
1339,E5,321.5,1.5,46,119.56
1340,C5,321.5,1.5,46,119.56
1341,G4,322.0,0.5,42,119.56
1342,G3,322.5,0.5,34,119.56
1343,G4,323.0,0.5,34,119.56
1344,D5,323.0,0.5,44,119.56
1345,F5,323.0,0.5,44,119.56
1346,G5,323.5,2.0,57,119.56
1347,E5,323.5,2.0,46,119.56
1348,G3,323.5,0.5,34,119.56
1349,F#4,324.0,0.5,48,119.56
1350,G3,324.5,0.5,36,119.56
1351,F#4,325.0,0.5,37,119.56
1352,G5,325.5,1.5,57,119.56
1353,G3,325.5,0.5,37,119.56
1354,E-5,325.5,2.0,39,119.56
1355,C5,325.5,2.0,39,119.56
1356,F4,326.0,0.5,47,119.56
1357,G3,326.5,0.5,34,119.56
1358,A5,327.0,0.5,62,119.56
1359,F4,327.0,0.5,34,119.56
1360,B5,327.5,2.0,60,119.56
1361,G3,327.5,0.5,27,119.56
1362,G5,327.5,2.0,50,119.56
1363,D5,327.5,2.0,50,119.56
1364,E4,328.0,0.5,50,119.56
1365,G3,328.5,0.5,36,119.56
1366,E4,329.0,0.5,36,119.56
1367,B5,329.5,1.5,60,119.56
1368,G3,329.5,0.5,36,119.56
1369,C5,329.5,2.0,42,119.56
1370,G5,329.5,2.0,42,119.56
1371,D4,330.0,0.5,50,119.56
1372,G3,330.5,0.5,40,119.56
1373,C6,331.0,0.5,62,119.56
1374,D4,331.0,0.5,40,119.56
1375,D6,331.5,2.0,67,119.56
1376,G3,331.5,0.5,40,119.56
1377,D5,331.5,2.0,56,119.56
1378,B5,331.5,2.0,56,119.56
1379,F5,331.5,2.0,56,119.56
1380,C4,332.0,0.5,52,119.56
1381,G3,332.5,0.5,39,119.56
1382,C4,333.0,0.5,42,119.56
1383,D6,333.5,1.5,67,119.56
1384,G3,333.5,0.5,48,119.56
1385,G5,333.5,2.0,50,119.56
1386,E5,333.5,2.0,50,119.56
1387,B3,334.0,0.5,45,119.56
1388,G3,334.5,0.5,45,119.56
1389,E6,335.0,0.5,74,119.56
1390,B3,335.0,0.5,52,119.56
1391,G3,335.5,0.5,45,119.56
1392,F6,335.5,2.0,69,119.56
1393,D6,335.5,2.0,69,119.56
1394,F5,335.5,2.0,69,119.56
1395,G4,336.0,0.5,55,119.56
1396,G3,336.5,0.5,46,119.56
1397,G4,337.0,0.5,55,119.56
1398,G3,337.5,0.5,47,119.56
1399,G4,338.0,0.5,60,119.56
1400,F6,338.0,0.5,69,119.56
1401,D6,338.0,0.5,69,119.56
1402,F5,338.0,0.5,69,119.56
1403,G3,338.5,0.5,49,119.56
1404,C#6,338.5,0.5,63,119.56
1405,E6,338.5,0.5,63,119.56
1406,E5,338.5,0.5,63,119.56
1407,G4,339.0,0.5,63,119.56
1408,F5,339.0,0.5,68,119.56
1409,F6,339.0,0.5,68,119.56
1410,D6,339.0,0.5,68,119.56
1411,G3,339.5,0.5,51,119.56
1412,C#6,339.5,0.5,63,119.56
1413,E5,339.5,0.5,63,119.56
1414,E6,339.5,0.5,63,119.56
1415,D4,339.875,0.125,58,119.56
1416,F4,339.938,0.062,63,119.56
1417,B4,340.0,0.5,68,119.56
1418,G3,340.0,0.5,51,119.56
1419,D4,340.0,0.5,58,119.56
1420,F4,340.0,0.5,63,119.56
1421,D6,340.0,0.5,72,119.56
1422,F5,340.0,0.5,72,119.56
1423,F6,340.0,0.5,72,119.56
1424,C#6,340.5,0.5,69,119.56
1425,E6,340.5,0.5,69,119.56
1426,E5,340.5,0.5,69,119.56
1427,E4,340.5,0.5,54,119.56
1428,E5,340.5,0.5,54,119.56
1429,D6,341.0,0.5,72,119.56
1430,F6,341.0,0.5,72,119.56
1431,F5,341.0,0.5,72,119.56
1432,F4,341.0,0.5,61,119.56
1433,F5,341.0,0.5,61,119.56
1434,C#6,341.5,0.25,77,119.56
1435,E6,341.5,0.25,77,119.56
1436,E5,341.5,0.25,77,119.56
1437,C#4,341.5,0.5,54,119.56
1438,C#5,341.5,0.5,54,119.56
1439,F6,342.0,0.25,77,119.56
1440,F7,342.0,0.25,77,119.56
1441,G6,342.0,0.25,77,119.56
1442,D4,342.0,0.5,62,119.56
1443,D5,342.0,0.5,62,119.56
1444,D7,342.25,0.25,75,119.56
1445,B6,342.5,0.25,76,119.56
1446,B-3,342.5,0.5,54,119.56
1447,B-4,342.5,0.5,54,119.56
1448,G6,342.75,0.25,73,119.56
1449,F6,343.0,0.25,86,119.56
1450,B3,343.0,0.5,61,119.56
1451,B4,343.0,0.5,61,119.56
1452,D6,343.25,0.25,72,119.56
1453,B5,343.5,0.25,76,119.56
1454,G3,343.5,0.25,54,119.56
1455,G4,343.5,0.25,54,119.56
1456,G5,343.75,0.25,69,119.56
1457,F6,344.0,0.25,86,119.56
1458,D6,344.25,0.25,75,119.56
1459,B5,344.5,0.25,76,119.56
1460,E2,344.5,0.5,54,119.56
1461,E3,344.5,0.5,54,119.56
1462,G5,344.75,0.25,73,119.56
1463,F5,345.0,0.25,86,119.56
1464,F2,345.0,0.5,61,119.56
1465,F3,345.0,0.5,61,119.56
1466,D5,345.25,0.25,72,119.56
1467,B4,345.5,0.25,76,119.56
1468,C#2,345.5,0.5,54,119.56
1469,C#3,345.5,0.5,54,119.56
1470,G4,345.75,0.25,69,119.56
1471,F6,346.0,0.25,86,119.56
1472,D2,346.0,0.5,62,119.56
1473,D3,346.0,0.5,62,119.56
1474,D6,346.25,0.25,75,119.56
1475,B5,346.5,0.25,76,119.56
1476,B-1,346.5,0.5,54,119.56
1477,B-2,346.5,0.5,54,119.56
1478,G5,346.75,0.25,73,119.56
1479,F5,347.0,0.25,86,119.56
1480,B1,347.0,0.5,61,119.56
1481,B2,347.0,0.5,61,119.56
1482,D5,347.25,0.25,72,119.56
1483,B4,347.5,0.25,76,119.56
1484,G1,347.5,0.25,54,119.56
1485,G2,347.5,0.25,54,119.56
1486,G4,347.75,0.25,69,119.56
1487,F4,348.0,167/1000,81,119.56
1488,C3,348.0,1.5,64,119.56
1489,G3,348.062,1.438,67,119.56
1490,C4,348.125,1.375,70,119.56
1491,D4,348.167,167/1000,70,119.56
1492,E4,348.188,1.312,73,119.56
1493,B3,348.333,167/1000,70,119.56
1494,G3,348.5,167/1000,75,119.56
1495,B3,348.667,167/1000,70,119.56
1496,D4,348.833,167/1000,70,119.56
1497,F4,349.0,167/1000,79,119.56
1498,G4,349.167,167/1000,70,119.56
1499,D5,349.333,167/1000,70,119.56
1500,F5,349.5,167/1000,70,119.56
1501,C2,349.5,9/20,58,119.56
1502,G2,349.5,9/20,58,119.56
1503,C3,349.5,9/20,58,119.56
1504,G5,349.667,167/1000,70,119.56
1505,B5,349.833,167/1000,70,119.56
1506,C2,350.0,1.0,58,119.56
1507,G2,350.0,1.0,58,119.56
1508,C3,350.0,1.0,58,119.56
1509,C6,350.188,1.312,77,119.56
1510,C5,350.188,1.312,77,119.56
1511,G5,350.188,1.312,77,119.56
1512,E5,350.188,1.312,77,119.56
1513,D2,351.0,0.25,54,119.56
1514,D3,351.0,0.25,54,119.56
1515,E4,351.5,9/20,63,119.56
1516,C4,351.5,9/20,63,119.56
1517,E3,351.5,9/20,63,119.56
1518,E2,351.5,0.25,58,119.56
1519,C3,351.5,0.25,58,119.56
1520,E3,351.5,0.25,58,119.56
1521,E3,352.0,1.0,66,119.56
1522,C4,352.0,1.0,66,119.56
1523,E4,352.0,1.0,66,119.56
1524,F2,352.0,0.25,60,119.56
1525,C3,352.0,0.25,60,119.56
1526,F3,352.0,0.25,60,119.56
1527,C4,353.0,0.25,64,119.56
1528,F4,353.0,0.25,64,119.56
1529,F3,353.0,0.25,64,119.56
1530,E2,353.0,0.25,55,119.56
1531,C3,353.0,0.25,55,119.56
1532,E3,353.0,0.25,55,119.56
1533,G4,353.5,0.25,67,119.56
1534,G3,353.5,0.25,67,119.56
1535,C4,353.5,0.25,67,119.56
1536,C4,354.0,0.25,70,119.56
1537,A3,354.0,0.25,70,119.56
1538,A4,354.0,0.25,70,119.56
1539,G4,355.0,0.25,66,119.56
1540,G3,355.0,0.25,66,119.56
1541,C4,355.0,0.25,66,119.56
1542,C2,355.5,9/20,58,119.56
1543,G2,355.5,9/20,58,119.56
1544,C3,355.5,9/20,58,119.56
1545,C2,356.0,1.0,58,119.56
1546,G2,356.0,1.0,58,119.56
1547,C3,356.0,1.0,58,119.56
1548,D2,357.0,0.25,54,119.56
1549,D3,357.0,0.25,54,119.56
1550,C4,357.5,9/20,63,119.56
1551,E3,357.5,9/20,63,119.56
1552,E4,357.5,9/20,63,119.56
1553,E2,357.5,0.25,58,119.56
1554,C3,357.5,0.25,58,119.56
1555,E3,357.5,0.25,58,119.56
1556,E4,358.0,1.0,69,119.56
1557,C4,358.0,1.0,69,119.56
1558,E3,358.0,1.0,69,119.56
1559,F2,358.0,0.5,60,119.56
1560,C3,358.0,0.5,60,119.56
1561,F3,358.0,0.5,60,119.56
1562,F4,359.0,0.25,69,119.56
1563,C4,359.0,0.25,69,119.56
1564,F3,359.0,0.25,69,119.56
1565,C3,359.0,0.25,53,119.56
1566,E2,359.0,0.25,53,119.56
1567,E3,359.0,0.25,53,119.56
1568,G3,359.5,0.25,72,119.56
1569,C4,359.5,0.25,72,119.56
1570,G4,359.5,0.25,72,119.56
1571,F2,359.5,0.25,58,119.56
1572,C3,359.5,0.25,58,119.56
1573,F3,359.5,0.25,58,119.56
1574,A4,360.0,1.0,74,119.56
1575,A3,360.0,1.0,74,119.56
1576,C4,360.0,1.0,74,119.56
1577,G2,360.0,0.25,60,119.56
1578,C3,360.0,0.25,60,119.56
1579,G3,360.0,0.25,60,119.56
1580,G4,361.0,0.25,72,119.56
1581,C4,361.0,0.25,72,119.56
1582,G3,361.0,0.25,72,119.56
1583,F2,361.0,0.25,55,119.56
1584,C3,361.0,0.25,55,119.56
1585,F3,361.0,0.25,55,119.56
1586,A4,361.5,0.25,74,119.56
1587,C4,361.5,0.25,74,119.56
1588,A3,361.5,0.25,74,119.56
1589,C4,362.0,0.25,76,119.56
1590,B-4,362.0,0.25,76,119.56
1591,B-3,362.0,0.25,76,119.56
1592,A3,363.0,0.25,72,119.56
1593,A4,363.0,0.25,72,119.56
1594,C4,363.0,0.25,72,119.56
1595,C3,363.0,0.25,53,119.56
1596,E2,363.0,0.25,53,119.56
1597,E3,363.0,0.25,53,119.56
1598,F2,363.5,0.25,58,119.56
1599,C3,363.5,0.25,58,119.56
1600,F3,363.5,0.25,58,119.56
1601,D2,364.0,0.25,62,119.56
1602,D3,364.0,0.25,62,119.56
1603,G4,365.0,0.25,64,119.56
1604,G3,365.0,0.25,64,119.56
1605,C4,365.0,0.25,64,119.56
1606,E2,365.0,0.25,62,119.56
1607,E3,365.0,0.25,62,119.56
1608,C4,365.5,0.25,67,119.56
1609,A4,365.5,0.25,67,119.56
1610,A3,365.5,0.25,67,119.56
1611,F4,366.0,0.25,70,119.56
1612,B4,366.0,0.25,70,119.56
1613,B3,366.0,0.25,70,119.56
1614,B1,366.0,0.25,64,119.56
1615,B2,366.0,0.25,64,119.56
1616,E4,367.0,0.25,72,119.56
1617,C5,367.0,0.25,72,119.56
1618,C4,367.0,0.25,72,119.56
1619,C2,367.0,0.25,68,119.56
1620,C3,367.0,0.25,68,119.56
1621,G4,368.0,0.25,73,119.56
1622,D5,368.0,0.25,73,119.56
1623,D4,368.0,0.25,73,119.56
1624,A1,368.0,2.0,71,119.56
1625,D2,368.0,2.0,71,119.56
1626,A2,368.0,2.0,71,119.56
1627,E4,369.0,0.25,75,119.56
1628,E5,369.0,0.25,75,119.56
1629,G4,369.0,0.25,75,119.56
1630,F#5,370.0,167/1000,78,119.56
1631,C5,370.0,2.0,72,119.56
1632,D5,370.0,2.0,72,119.56
1633,G1,370.0,1.0,67,119.56
1634,D2,370.0,1.0,67,119.56
1635,G2,370.0,1.0,67,119.56
1636,G5,370.167,167/1000,73,119.56
1637,F#5,370.333,167/1000,80,119.56
1638,G5,370.5,167/1000,75,119.56
1639,F#5,370.667,167/1000,82,119.56
1640,G5,370.833,167/1000,78,119.56
1641,F#5,371.0,167/1000,84,119.56
1642,D4,371.0,0.25,70,119.56
1643,G5,371.167,167/1000,81,119.56
1644,F#5,371.333,167/1000,86,119.56
1645,G5,371.5,0.125,84,119.56
1646,F#4,371.5,0.25,63,119.56
1647,F#5,371.625,0.125,89,119.56
1648,E5,371.75,0.125,84,119.56
1649,F#5,371.875,0.125,85,119.56
1650,G4,372.0,0.25,69,119.56
1651,B4,372.0,1.0,86,119.56
1652,G5,372.0,1.0,86,119.56
1653,D5,373.0,0.25,83,119.56
1654,D3,373.0,0.25,56,119.56
1655,F#5,373.5,0.25,75,119.56
1656,F#3,373.5,0.25,50,119.56
1657,G5,374.0,0.25,83,119.56
1658,G3,374.0,0.25,55,119.56
1659,D4,375.0,0.25,66,119.56
1660,D2,375.0,0.25,56,119.56
1661,F#4,375.5,0.25,60,119.56
1662,F#2,375.5,0.25,50,119.56
1663,G4,376.0,0.25,66,119.56
1664,G2,376.0,1.0,55,119.56
1665,D3,377.0,0.25,69,119.56
1666,F#3,377.5,0.25,61,119.56
1667,G3,378.0,333/1000,64,119.56
1668,G3,378.0,2.0,55,119.56
1669,B-3,378.0,2.0,55,119.56
1670,B3,378.333,333/1000,57,119.56
1671,C4,378.667,333/1000,57,119.56
1672,D4,379.0,333/1000,66,119.56
1673,E4,379.333,333/1000,59,119.56
1674,F#4,379.667,333/1000,59,119.56
1675,G4,380.0,0.25,67,119.56
1676,B-2,380.0,1.5,60,119.56
1677,F3,380.062,1.438,63,119.56
1678,B-3,380.125,1.375,67,119.56
1679,D4,380.188,1.312,70,119.56
1680,B-4,380.25,0.25,69,119.56
1681,C5,380.5,0.25,71,119.56
1682,D5,380.75,0.25,73,119.56
1683,E5,381.0,0.25,75,119.56
1684,F#5,381.25,0.25,77,119.56
1685,G5,381.5,0.25,79,119.56
1686,B-1,381.5,9/20,60,119.56
1687,B-2,381.5,9/20,60,119.56
1688,A5,381.75,0.25,84,119.56
1689,B-1,382.0,1.0,60,119.56
1690,B-2,382.0,1.0,60,119.56
1691,D5,382.188,1.312,70,119.56
1692,F5,382.188,1.312,70,119.56
1693,B-5,382.188,1.312,70,119.56
1694,B-4,382.188,1.312,70,119.56
1695,C2,383.0,0.25,54,119.56
1696,C3,383.0,0.25,54,119.56
1697,D5,383.5,9/20,71,119.56
1698,B-4,383.5,9/20,71,119.56
1699,D4,383.5,9/20,71,119.56
1700,D2,383.5,0.25,60,119.56
1701,D3,383.5,0.25,60,119.56
1702,D4,384.0,1.0,76,119.56
1703,B-4,384.0,1.0,76,119.56
1704,D5,384.0,1.0,76,119.56
1705,E-2,384.0,0.25,60,119.56
1706,B-2,384.0,0.25,60,119.56
1707,E-3,384.0,0.25,60,119.56
1708,B-4,385.0,0.25,73,119.56
1709,E-5,385.0,0.25,73,119.56
1710,E-4,385.0,0.25,73,119.56
1711,D2,385.0,0.25,55,119.56
1712,B-2,385.0,0.25,55,119.56
1713,D3,385.0,0.25,55,119.56
1714,F4,385.5,0.25,77,119.56
1715,B-4,385.5,0.25,77,119.56
1716,F5,385.5,0.25,77,119.56
1717,G4,386.0,0.25,80,119.56
1718,B-4,386.0,0.25,80,119.56
1719,G5,386.0,0.25,80,119.56
1720,F5,387.0,0.25,76,119.56
1721,F4,387.0,0.25,76,119.56
1722,B-4,387.0,0.25,76,119.56
1723,B-1,387.5,9/20,60,119.56
1724,B-2,387.5,9/20,60,119.56
1725,B-1,388.0,1.0,60,119.56
1726,B-2,388.0,1.0,60,119.56
1727,C2,389.0,0.25,54,119.56
1728,C3,389.0,0.25,54,119.56
1729,D5,389.5,9/20,71,119.56
1730,B-4,389.5,9/20,71,119.56
1731,D4,389.5,9/20,71,119.56
1732,D2,389.5,0.25,60,119.56
1733,D3,389.5,0.25,60,119.56
1734,B-4,390.0,1.0,79,119.56
1735,D5,390.0,1.0,79,119.56
1736,D4,390.0,1.0,79,119.56
1737,E-2,390.0,0.5,60,119.56
1738,B-2,390.0,0.5,60,119.56
1739,E-3,390.0,0.5,60,119.56
1740,E-5,391.0,0.25,79,119.56
1741,B-4,391.0,0.25,79,119.56
1742,E-4,391.0,0.25,79,119.56
1743,B-2,391.0,0.25,53,119.56
1744,D2,391.0,0.25,53,119.56
1745,D3,391.0,0.25,53,119.56
1746,B-4,391.5,0.25,83,119.56
1747,F5,391.5,0.25,83,119.56
1748,F4,391.5,0.25,83,119.56
1749,E-2,391.5,0.25,58,119.56
1750,B-2,391.5,0.25,58,119.56
1751,E-3,391.5,0.25,58,119.56
1752,G5,392.0,1.0,85,119.56
1753,G4,392.0,1.0,85,119.56
1754,B-4,392.0,1.0,85,119.56
1755,F2,392.0,0.25,60,119.56
1756,B-2,392.0,0.25,60,119.56
1757,F3,392.0,0.25,60,119.56
1758,B-4,393.0,0.25,83,119.56
1759,F4,393.0,0.25,83,119.56
1760,F5,393.0,0.25,83,119.56
1761,E-2,393.0,0.25,55,119.56
1762,B-2,393.0,0.25,55,119.56
1763,E-3,393.0,0.25,55,119.56
1764,G4,393.5,0.25,85,119.56
1765,B-4,393.5,0.25,85,119.56
1766,G5,393.5,0.25,85,119.56
1767,B-4,394.0,0.25,87,119.56
1768,G#4,394.0,0.25,87,119.56
1769,G#5,394.0,0.25,87,119.56
1770,G5,395.0,0.25,83,119.56
1771,B-4,395.0,0.25,83,119.56
1772,G4,395.0,0.25,83,119.56
1773,D2,395.0,0.25,54,119.56
1774,D3,395.0,0.25,54,119.56
1775,E-2,395.5,0.25,60,119.56
1776,E-3,395.5,0.25,60,119.56
1777,F2,396.0,0.25,62,119.56
1778,F3,396.0,0.25,62,119.56
1779,F5,397.0,0.25,73,119.56
1780,B-4,397.0,0.25,73,119.56
1781,F4,397.0,0.25,73,119.56
1782,E-2,397.0,0.25,62,119.56
1783,E-3,397.0,0.25,62,119.56
1784,G4,397.5,0.25,77,119.56
1785,G5,397.5,0.25,77,119.56
1786,B-4,397.5,0.25,77,119.56
1787,B5,398.0,0.25,80,119.56
1788,G5,398.0,0.25,80,119.56
1789,B4,398.0,0.25,80,119.56
1790,B1,398.0,0.25,64,119.56
1791,B2,398.0,0.25,64,119.56
1792,G5,399.0,0.25,83,119.56
1793,C5,399.0,0.25,83,119.56
1794,C6,399.0,0.25,83,119.56
1795,C2,399.0,0.25,68,119.56
1796,C3,399.0,0.25,68,119.56
1797,D5,400.0,0.25,84,119.56
1798,G5,400.0,0.25,84,119.56
1799,D6,400.0,0.25,84,119.56
1800,A1,400.0,0.25,68,119.56
1801,A2,400.0,0.25,68,119.56
1802,E-6,401.0,0.25,86,119.56
1803,E-5,401.0,0.25,86,119.56
1804,G5,401.0,0.25,86,119.56
1805,G#1,401.0,2.0,66,119.56
1806,D2,401.0,2.0,66,119.56
1807,G#2,401.0,2.0,66,119.56
1808,F5,402.0,0.25,86,119.56
1809,C6,402.0,0.25,86,119.56
1810,F6,402.0,0.25,86,119.56
1811,F#5,403.0,2.0,93,119.56
1812,D6,403.0,2.0,93,119.56
1813,C6,403.0,2.0,93,119.56
1814,F#6,403.0,2.0,93,119.56
1815,G1,403.0,1.0,66,119.56
1816,D2,403.0,1.0,66,119.56
1817,G2,403.0,1.0,66,119.56
1818,G1,404.0,1.0,66,119.56
1819,D2,404.0,1.0,66,119.56
1820,G2,404.0,1.0,66,119.56
1821,D6,405.0,1.0,93,119.56
1822,G5,405.0,1.0,93,119.56
1823,G6,405.0,1.0,93,119.56
1824,C6,405.0,1.0,93,119.56
1825,F#1,405.0,979/500,66,119.56
1826,D2,405.0,979/500,66,119.56
1827,F#2,405.0,979/500,66,119.56
1828,D6,406.0,479/500,93,119.56
1829,G5,406.0,479/500,93,119.56
1830,G6,406.0,479/500,93,119.56
1831,C6,406.0,479/500,93,119.56
1832,A6,407.0,979/500,93,119.56
1833,A5,407.0,979/500,93,119.56
1834,D6,407.0,979/500,93,119.56
1835,C6,407.0,979/500,93,119.56
1836,F#1,407.0,1.0,66,119.56
1837,D2,407.0,1.0,66,119.56
1838,F#2,407.0,1.0,66,119.56
1839,G1,408.0,0.25,54,119.56
1840,D2,408.0,0.25,54,119.56
1841,G2,408.0,0.25,54,119.56
1842,D6,409.0,1.0,93,119.56
1843,C6,409.0,1.0,93,119.56
1844,A5,409.0,1.0,93,119.56
1845,A6,409.0,1.0,93,119.56
1846,D3,409.0,2.0,61,119.56
1847,F3,409.0,2.0,61,119.56
1848,B3,409.0,2.0,61,119.56
1849,G3,409.0,2.0,61,119.56
1850,D6,410.0,0.5,93,119.56
1851,C6,410.0,0.5,93,119.56
1852,A5,410.0,0.5,93,119.56
1853,A6,410.0,0.5,93,119.56
1854,B5,410.5,0.25,74,119.56
1855,G5,410.5,0.25,74,119.56
1856,G6,410.5,0.25,74,119.56
1857,F6,411.0,0.25,81,119.56
1858,F5,411.0,0.25,81,119.56
1859,G1,411.0,0.25,52,119.56
1860,G2,411.0,0.25,52,119.56
1861,D5,411.5,0.25,69,119.56
1862,D6,411.5,0.25,69,119.56
1863,B5,412.0,0.25,80,119.56
1864,B4,412.0,0.25,80,119.56
1865,C2,412.0,0.25,57,119.56
1866,G2,412.0,0.25,57,119.56
1867,C3,412.0,0.25,57,119.56
1868,G4,412.5,0.25,64,119.56
1869,G5,412.5,0.25,64,119.56
1870,F4,413.0,0.25,76,119.56
1871,F5,413.0,0.25,76,119.56
1872,D5,413.5,0.25,62,119.56
1873,D4,413.5,0.25,62,119.56
1874,C3,413.5,9/20,37,119.56
1875,E3,413.5,9/20,37,119.56
1876,E4,414.0,1.5,72,119.56
1877,C5,414.0,1.5,72,119.56
1878,C4,414.0,1.5,72,119.56
1879,C3,414.0,1.0,42,119.56
1880,E3,414.0,1.0,42,119.56
1881,D3,415.0,0.25,38,119.56
1882,F3,415.0,0.25,38,119.56
1883,E3,415.5,0.25,40,119.56
1884,G3,415.5,0.25,40,119.56
1885,F3,416.0,0.25,42,119.56
1886,A3,416.0,0.25,42,119.56
1887,E3,417.0,0.25,37,119.56
1888,G3,417.0,0.25,37,119.56
1889,C4,417.5,9/20,40,119.56
1890,C4,418.0,1.0,48,119.56
1891,G3,418.0,1.0,40,119.56
1892,B3,418.0,1.0,40,119.56
1893,D4,419.0,0.25,41,119.56
1894,C4,419.0,0.25,38,119.56
1895,A3,419.0,0.25,38,119.56
1896,E4,419.5,0.25,46,119.56
1897,B3,419.5,0.25,40,119.56
1898,D4,419.5,0.25,40,119.56
1899,F4,420.0,479/500,51,119.56
1900,F4,420.0,1.0,43,119.56
1901,C4,420.0,1.0,43,119.56
1902,F4,421.0,9/20,45,119.56
1903,E4,421.0,0.25,40,119.56
1904,C4,421.0,0.25,40,119.56
1905,G4,421.5,0.5,42,119.56
1906,F4,421.5,0.5,42,119.56
1907,D4,421.5,0.25,37,119.56
1908,G3,421.5,0.25,37,119.56
1909,G4,422.0,1.0,49,119.56
1910,E4,422.0,1.0,45,119.56
1911,C4,422.0,1.0,45,119.56
1912,A4,423.0,0.25,45,119.56
1913,D4,423.0,0.25,38,119.56
1914,G3,423.0,0.25,38,119.56
1915,G5,423.5,0.5,51,119.56
1916,B4,423.5,0.25,45,119.56
1917,E3,423.5,0.25,38,119.56
1918,C4,423.5,0.25,38,119.56
1919,G5,424.0,729/500,55,119.56
1920,C5,424.0,1.0,49,119.56
1921,B3,424.0,1.5,45,119.56
1922,G3,424.0,1.5,45,119.56
1923,D5,425.0,0.25,47,119.56
1924,G5,425.5,229/500,55,119.56
1925,E5,425.5,0.25,55,119.56
1926,E4,425.5,9/20,40,119.56
1927,C4,425.5,9/20,40,119.56
1928,F5,426.0,1.5,53,119.56
1929,G5,426.0,0.5,62,119.56
1930,E4,426.0,1.5,49,119.56
1931,C4,426.0,1.5,49,119.56
1932,F#5,426.5,0.5,53,119.56
1933,A5,427.0,0.25,63,119.56
1934,G5,427.5,0.25,54,119.56
1935,E5,427.5,0.5,45,119.56
1936,G4,427.5,9/20,43,119.56
1937,E4,427.5,9/20,43,119.56
1938,E5,428.0,1.5,50,119.56
1939,G5,428.0,0.5,59,119.56
1940,G4,428.0,1.0,50,119.56
1941,E4,428.0,1.0,50,119.56
1942,F#5,428.5,0.5,50,119.56
1943,A5,429.0,0.25,59,119.56
1944,F4,429.0,0.25,50,119.56
1945,G5,429.5,0.25,50,119.56
1946,C5,429.5,0.5,42,119.56
1947,C#5,430.0,1.0,60,119.56
1948,B-5,430.0,1.0,60,119.56
1949,D3,430.0,1.0,42,119.56
1950,F3,430.0,1.0,42,119.56
1951,D5,431.0,0.25,54,119.56
1952,A5,431.0,0.25,54,119.56
1953,E3,431.0,0.25,38,119.56
1954,G3,431.0,0.25,38,119.56
1955,F3,431.5,0.25,40,119.56
1956,A3,431.5,0.25,40,119.56
1957,G3,432.0,0.25,42,119.56
1958,B-3,432.0,0.25,42,119.56
1959,F3,433.0,0.25,37,119.56
1960,A3,433.0,0.25,37,119.56
1961,D4,433.5,9/20,40,119.56
1962,D4,434.0,1.0,48,119.56
1963,A3,434.0,1.0,40,119.56
1964,C#4,434.0,1.0,40,119.56
1965,E4,435.0,0.25,41,119.56
1966,D4,435.0,0.25,38,119.56
1967,B3,435.0,0.25,38,119.56
1968,F4,435.5,0.25,46,119.56
1969,C#4,435.5,0.25,40,119.56
1970,E4,435.5,0.25,40,119.56
1971,G4,436.0,1.0,51,119.56
1972,G4,436.0,1.0,43,119.56
1973,D4,436.0,1.0,43,119.56
1974,G4,437.0,229/500,45,119.56
1975,F4,437.0,0.25,40,119.56
1976,D4,437.0,0.25,40,119.56
1977,G4,437.5,229/500,42,119.56
1978,A4,437.5,229/500,42,119.56
1979,E4,437.5,0.25,37,119.56
1980,A3,437.5,0.25,37,119.56
1981,A4,438.0,1.0,49,119.56
1982,F4,438.0,1.0,45,119.56
1983,D4,438.0,1.0,45,119.56
1984,B4,439.0,0.25,45,119.56
1985,E4,439.0,0.25,38,119.56
1986,A3,439.0,0.25,38,119.56
1987,C#5,439.5,0.25,45,119.56
1988,A5,439.5,0.5,51,119.56
1989,F3,439.5,0.25,38,119.56
1990,D4,439.5,0.25,38,119.56
1991,A5,440.0,1.5,55,119.56
1992,D5,440.0,1.0,49,119.56
1993,C#4,440.0,1.5,45,119.56
1994,A3,440.0,1.5,45,119.56
1995,E5,441.0,0.25,47,119.56
1996,A5,441.5,9/20,55,119.56
1997,F5,441.5,0.25,55,119.56
1998,F4,441.5,9/20,40,119.56
1999,D4,441.5,9/20,40,119.56
2000,G5,442.0,1.5,53,119.56
2001,A5,442.0,0.5,62,119.56
2002,F4,442.0,729/500,49,119.56
2003,D4,442.0,729/500,49,119.56
2004,G#5,442.5,0.5,53,119.56
2005,B-5,443.0,0.25,63,119.56
2006,F5,443.5,229/500,45,119.56
2007,A5,443.5,0.25,54,119.56
2008,A4,443.5,9/20,43,119.56
2009,F4,443.5,9/20,43,119.56
2010,F5,444.0,1.5,50,119.56
2011,A5,444.0,0.5,59,119.56
2012,A4,444.0,1.0,50,119.56
2013,F#4,444.0,1.0,50,119.56
2014,G#5,444.5,0.5,50,119.56
2015,B-5,445.0,0.25,59,119.56
2016,G4,445.0,0.25,50,119.56
2017,A5,445.5,0.25,50,119.56
2018,D5,445.5,0.5,42,119.56
2019,E-5,446.0,1.0,62,119.56
2020,C6,446.0,1.0,62,119.56
2021,E3,446.0,1.0,40,119.56
2022,G3,446.0,1.0,40,119.56
2023,B5,447.0,0.25,54,119.56
2024,E5,447.0,0.25,54,119.56
2025,A3,447.0,0.25,38,119.56
2026,F#3,447.0,0.25,38,119.56
2027,G3,447.5,0.25,40,119.56
2028,B3,447.5,0.25,40,119.56
2029,C4,448.0,1.5,50,119.56
2030,A3,448.0,1.5,50,119.56
2031,F#5,450.0,1.5,66,119.56
2032,E6,450.0,1.0,78,119.56
2033,G3,450.0,1.0,48,119.56
2034,E4,450.0,1.0,48,119.56
2035,E-6,451.0,0.25,69,119.56
2036,F#4,451.0,0.25,42,119.56
2037,A3,451.0,0.25,42,119.56
2038,B3,451.5,0.25,45,119.56
2039,G4,451.5,0.25,45,119.56
2040,C4,452.0,1.0,54,119.56
2041,A4,452.0,1.0,54,119.56
2042,E-4,452.0,1.0,54,119.56
2043,C4,453.5,0.5,50,119.56
2044,E-4,453.5,0.5,50,119.56
2045,A4,453.5,0.5,50,119.56
2046,A5,454.0,1.5,68,119.56
2047,G6,454.0,1.0,81,119.56
2048,C#4,454.0,1.0,57,119.56
2049,B-4,454.0,1.0,57,119.56
2050,E4,454.0,1.0,57,119.56
2051,F#6,455.0,0.25,72,119.56
2052,A6,456.0,1.0,74,119.56
2053,B-5,456.0,1.0,74,119.56
2054,G6,457.0,0.25,74,119.56
2055,E-3,457.5,9/20,50,119.56
2056,B2,457.5,9/20,50,119.56
2057,E-3,458.0,1.0,58,119.56
2058,B2,458.0,1.0,58,119.56
2059,C#3,459.0,0.25,51,119.56
2060,E3,459.0,0.25,51,119.56
2061,E-3,459.5,0.25,53,119.56
2062,F#3,459.5,0.25,53,119.56
2063,E3,460.0,1.0,61,119.56
2064,G#3,460.0,1.0,61,119.56
2065,B3,461.0,0.25,54,119.56
2066,G#3,461.0,0.25,54,119.56
2067,C#4,461.5,0.25,58,119.56
2068,A3,461.5,0.25,58,119.56
2069,E5,462.0,1.0,58,119.56
2070,E4,462.0,1.0,58,119.56
2071,E-4,462.0,1.0,61,119.56
2072,B3,462.0,1.0,61,119.56
2073,E-5,463.0,0.25,61,119.56
2074,C#4,463.0,0.25,59,119.56
2075,E4,463.0,0.25,59,119.56
2076,C#5,463.5,0.25,61,119.56
2077,E-4,463.5,0.25,61,119.56
2078,F#4,463.5,0.25,61,119.56
2079,B4,464.0,1.0,64,119.56
2080,A5,464.0,1.0,64,119.56
2081,E4,464.0,1.0,63,119.56
2082,G#4,464.0,1.0,63,119.56
2083,G#5,465.0,0.25,61,119.56
2084,F#4,465.0,0.25,61,119.56
2085,A4,465.0,0.25,61,119.56
2086,F#5,465.5,0.25,61,119.56
2087,G#4,465.5,0.25,64,119.56
2088,B4,465.5,0.25,64,119.56
2089,B5,466.0,1.0,72,119.56
2090,E5,466.0,2.0,61,119.56
2091,A4,466.0,0.5,69,119.56
2092,C5,466.0,0.5,69,119.56
2093,B-4,466.5,9/20,63,119.56
2094,C#5,466.5,9/20,63,119.56
2095,A5,467.0,0.25,65,119.56
2096,B-4,467.0,1.0,63,119.56
2097,C#5,467.0,1.0,63,119.56
2098,G#5,467.5,0.25,61,119.56
2099,F#5,468.0,0.5,70,119.56
2100,E5,468.0,1.0,59,119.56
2101,B-4,468.0,0.5,63,119.56
2102,C#5,468.0,0.5,63,119.56
2103,G5,468.5,9/20,61,119.56
2104,A4,468.5,9/20,60,119.56
2105,C5,468.5,9/20,60,119.56
2106,E5,469.0,1.0,53,119.56
2107,G5,469.0,1.0,63,119.56
2108,A4,469.0,0.5,63,119.56
2109,C5,469.0,0.5,63,119.56
2110,B-4,469.5,9/20,57,119.56
2111,C#5,469.5,9/20,57,119.56
2112,E5,470.0,479/500,53,119.56
2113,G5,470.0,229/500,63,119.56
2114,B-4,470.0,0.5,57,119.56
2115,C#5,470.0,0.5,57,119.56
2116,F#5,470.5,0.5,67,119.56
2117,B4,470.5,9/20,57,119.56
2118,D5,470.5,9/20,57,119.56
2119,F#5,471.0,0.5,70,119.56
2120,E5,471.0,479/500,59,119.56
2121,B4,471.0,1.0,63,119.56
2122,D5,471.0,1.0,63,119.56
2123,G5,471.5,9/20,64,119.56
2124,E5,472.0,479/500,54,119.56
2125,G5,472.0,0.5,64,119.56
2126,B4,472.0,0.5,63,119.56
2127,D5,472.0,0.5,63,119.56
2128,G#5,472.5,9/20,61,119.56
2129,B-4,472.5,0.5,63,119.56
2130,C#5,472.5,0.5,63,119.56
2131,G#5,473.0,1.0,70,119.56
2132,E5,473.0,1.0,59,119.56
2133,B-4,473.0,0.5,68,119.56
2134,C#5,473.0,0.5,68,119.56
2135,B4,473.5,9/20,63,119.56
2136,D5,473.5,9/20,63,119.56
2137,G#5,474.0,0.5,70,119.56
2138,E5,474.0,479/500,59,119.56
2139,B4,474.0,0.5,65,119.56
2140,D5,474.0,0.5,65,119.56
2141,G5,474.5,0.5,60,119.56
2142,C5,474.5,0.5,63,119.56
2143,G5,475.0,0.5,62,119.56
2144,E5,475.0,479/500,52,119.56
2145,C5,475.0,1.0,71,119.56
2146,G#5,475.5,9/20,64,119.56
2147,E5,476.0,479/500,56,119.56
2148,G#5,476.0,0.5,66,119.56
2149,C5,476.0,0.5,71,119.56
2150,A5,476.5,0.5,68,119.56
2151,C#5,476.5,9/20,63,119.56
2152,C#5,477.0,0.5,71,119.56
2153,E5,477.0,1.0,68,119.56
2154,A5,477.0,1.0,68,119.56
2155,B-4,477.5,9/20,63,119.56
2156,B-4,478.0,0.5,67,119.56
2157,E5,478.0,0.5,68,119.56
2158,A5,478.0,0.5,68,119.56
2159,G4,478.5,9/20,63,119.56
2160,B-5,478.5,9/20,64,119.56
2161,E5,478.5,9/20,64,119.56
2162,G4,479.0,0.5,73,119.56
2163,E5,479.0,0.5,71,119.56
2164,B-5,479.0,0.5,71,119.56
2165,B-3,479.5,0.5,67,119.56
2166,C#6,479.5,9/20,62,119.56
2167,G5,479.5,9/20,62,119.56
2168,B3,480.0,0.25,74,119.56
2169,C#6,480.0,0.5,64,119.56
2170,G5,480.0,0.5,64,119.56
2171,B2,480.5,0.5,70,119.56
2172,E6,480.5,9/20,70,119.56
2173,B-5,480.5,9/20,70,119.56
2174,B-5,481.0,0.5,75,119.56
2175,E6,481.0,0.5,75,119.56
2176,C4,481.0,1.5,68,119.56
2177,C3,481.0,1.5,68,119.56
2178,C#6,481.5,0.5,68,119.56
2179,G6,481.5,0.5,68,119.56
2180,E-6,482.0,0.25,74,119.56
2181,F#6,482.0,0.25,74,119.56
2182,B1,482.5,0.5,69,119.56
2183,C2,483.0,1.0,68,119.56
2184,C3,483.0,1.0,68,119.56
2185,F#4,483.5,2.5,80,119.56
2186,A4,484.0,2.0,72,119.56
2187,F#5,484.0,1.5,85,119.56
2188,B2,484.5,0.5,69,119.56
2189,C3,485.0,1.0,64,119.56
2190,C4,485.0,1.0,64,119.56
2191,E5,485.5,0.5,80,119.56
2192,E-5,486.0,0.5,84,119.56
2193,F#4,486.0,0.5,80,119.56
2194,A4,486.0,0.5,72,119.56
2195,B1,486.5,0.5,68,119.56
2196,C2,487.0,1.0,68,119.56
2197,C3,487.0,1.0,68,119.56
2198,F#5,487.5,2.5,83,119.56
2199,F#6,488.0,1.5,90,119.56
2200,A5,488.0,2.0,76,119.56
2201,B1,488.0,0.25,70,119.56
2202,B2,488.0,0.25,70,119.56
2203,B2,489.0,0.25,68,119.56
2204,E-3,489.0,0.25,68,119.56
2205,F#3,489.0,0.25,68,119.56
2206,B3,489.0,0.25,68,119.56
2207,E6,489.5,0.5,85,119.56
2208,E-6,490.0,0.5,95,119.56
2209,F#5,490.0,0.5,83,119.56
2210,A5,490.0,0.5,76,119.56
2211,A6,491.0,0.25,88,119.56
2212,A5,491.0,0.25,88,119.56
2213,E-6,491.0,0.25,88,119.56
2214,F#6,491.0,0.25,88,119.56
2215,C4,492.5,0.5,64,119.56
2216,F#4,493.0,1.0,77,119.56
2217,E4,493.0,0.5,70,119.56
2218,E5,493.5,0.5,63,119.56
2219,A4,494.0,2.5,83,119.56
2220,B3,496.5,0.5,38,119.56
2221,F#4,497.0,1.0,46,119.56
2222,E-4,497.0,0.5,42,119.56
2223,E-5,497.5,0.5,37,119.56
2224,A4,498.0,2.5,49,119.56
2225,C4,500.5,0.5,26,119.56
2226,F#4,501.0,1.0,46,119.56
2227,E4,501.0,0.5,28,119.56
2228,C4,501.5,0.5,22,119.56
2229,A4,502.0,2.0,49,119.56
2230,E4,502.0,0.5,28,119.56
2231,C4,502.5,0.5,21,119.56
2232,E4,503.0,0.5,24,119.56
2233,A4,503.5,0.5,20,119.56
2234,B4,504.0,1.5,48,119.56
2235,D4,504.5,0.5,23,119.56
2236,F4,505.0,0.5,27,119.56
2237,C5,505.5,9/20,46,119.56
2238,D4,505.5,0.5,22,119.56
2239,C5,506.0,2.0,53,119.56
2240,F4,506.0,0.5,27,119.56
2241,D4,506.5,0.5,24,119.56
2242,F4,507.0,0.5,24,119.56
2243,A4,507.5,0.5,20,119.56
2244,B4,508.0,1.0,46,119.56
2245,E3,508.5,0.5,24,119.56
2246,G#3,509.0,0.5,27,119.56
2247,D5,509.5,0.5,49,119.56
2248,E3,509.5,0.5,24,119.56
2249,F5,510.0,2.0,54,119.56
2250,G#3,510.0,0.5,27,119.56
2251,E3,510.5,0.5,23,119.56
2252,G#3,511.0,0.5,23,119.56
2253,D4,511.5,0.5,19,119.56
2254,E5,512.0,1.5,50,119.56
2255,A3,512.5,0.5,23,119.56
2256,E4,513.0,0.5,27,119.56
2257,B4,513.5,0.5,50,119.56
2258,A3,513.5,0.5,24,119.56
2259,D5,514.0,2.0,57,119.56
2260,E4,514.0,0.5,27,119.56
2261,A3,514.5,0.5,22,119.56
2262,E4,515.0,0.5,22,119.56
2263,A4,515.5,0.5,20,119.56
2264,C5,516.0,1.0,52,119.56
2265,A2,516.5,0.5,29,119.56
2266,E3,517.0,0.5,32,119.56
2267,A2,517.5,0.5,28,119.56
2268,C5,518.0,979/500,49,119.56
2269,E3,518.0,0.5,32,119.56
2270,A2,518.5,0.5,27,119.56
2271,E3,519.0,0.5,27,119.56
2272,F#3,519.5,0.5,27,119.56
2273,C5,520.0,2.0,50,119.56
2274,G2,520.5,0.5,26,119.56
2275,E3,521.0,0.5,31,119.56
2276,D5,521.5,0.5,56,119.56
2277,G3,521.5,0.5,27,119.56
2278,E5,522.0,1.0,65,119.56
2279,C5,522.0,1.0,50,119.56
2280,C4,522.0,0.5,39,119.56
2281,G3,522.5,0.5,34,119.56
2282,E3,523.0,0.5,37,119.56
2283,C3,523.5,0.5,40,119.56
2284,F#2,524.0,0.5,44,119.56
2285,E5,524.0,2.0,69,119.56
2286,G5,524.0,2.0,69,119.56
2287,B2,524.5,0.5,38,119.56
2288,E3,525.0,0.5,38,119.56
2289,G3,525.5,0.5,38,119.56
2290,E2,526.0,0.5,51,119.56
2291,E5,526.0,1.0,69,119.56
2292,G5,526.0,1.0,69,119.56
2293,B2,526.5,0.5,40,119.56
2294,E3,527.0,0.5,42,119.56
2295,G3,527.5,0.5,42,119.56
2296,B1,528.0,0.5,57,119.56
2297,B5,528.0,2.0,68,119.56
2298,G5,528.0,2.0,68,119.56
2299,B2,528.5,0.5,44,119.56
2300,D3,529.0,0.5,44,119.56
2301,G3,529.5,0.5,44,119.56
2302,G4,530.0,0.5,53,119.56
2303,B5,530.0,1.0,68,119.56
2304,G5,530.0,1.0,68,119.56
2305,D4,530.5,0.5,44,119.56
2306,B3,531.0,0.5,44,119.56
2307,G3,531.5,0.5,44,119.56
2308,D5,531.875,2.125,69,119.56
2309,G5,531.938,2.062,73,119.56
2310,D6,532.0,2.0,76,119.56
2311,B2,532.0,0.5,53,119.56
2312,D3,532.5,0.5,42,119.56
2313,G3,533.0,0.5,44,119.56
2314,D4,533.5,0.5,41,119.56
2315,D5,534.0,1.5,69,119.56
2316,G5,534.0,1.5,73,119.56
2317,D6,534.0,1.5,76,119.56
2318,E-3,534.5,0.5,39,119.56
2319,A3,535.0,0.5,42,119.56
2320,B5,535.5,0.5,66,119.56
2321,C4,535.5,0.5,39,119.56
2322,C6,536.0,1.5,73,119.56
2323,F#5,536.0,2.0,62,119.56
2324,E3,536.5,0.5,39,119.56
2325,G3,537.0,0.5,42,119.56
2326,A5,537.5,0.5,61,119.56
2327,C4,537.5,0.5,39,119.56
2328,G5,538.0,2.0,69,119.56
2329,F3,538.5,0.5,32,119.56
2330,A3,539.0,0.5,37,119.56
2331,C4,539.5,0.5,32,119.56
2332,A5,540.0,1.5,63,119.56
2333,C5,540.0,2.0,53,119.56
2334,G3,540.5,0.5,33,119.56
2335,C4,541.0,0.5,37,119.56
2336,F5,541.5,0.5,52,119.56
2337,E4,541.5,0.5,34,119.56
2338,E5,542.0,2.0,63,119.56
2339,C5,542.0,2.0,53,119.56
2340,G#3,542.0,2.0,44,119.56
2341,D4,542.5,0.5,34,119.56
2342,F4,543.0,0.5,34,119.56
2343,G#4,543.5,0.5,34,119.56
2344,F5,544.0,2.0,64,119.56
2345,B4,544.0,2.0,54,119.56
2346,A3,544.0,2.0,44,119.56
2347,C4,544.5,0.5,30,119.56
2348,F4,545.0,0.5,34,119.56
2349,A4,545.5,0.5,29,119.56
2350,C5,546.0,2.0,64,119.56
2351,F5,546.0,1.5,64,119.56
2352,B3,546.0,2.0,32,119.56
2353,E-4,546.5,0.5,26,119.56
2354,F#4,547.0,0.5,29,119.56
2355,E5,547.5,0.5,52,119.56
2356,B4,547.5,0.5,26,119.56
2357,A4,548.0,2.0,42,119.56
2358,F#5,548.0,1.5,50,119.56
2359,E4,548.0,0.5,28,119.56
2360,E3,548.5,0.5,20,119.56
2361,E4,549.0,0.5,20,119.56
2362,E-5,549.5,0.5,37,119.56
2363,E3,549.5,0.5,20,119.56
2364,E5,550.0,1979/500,34,119.56
2365,C6,550.0,2.0,40,119.56
2366,E6,550.0,2.0,40,119.56
2367,D4,550.0,0.5,26,119.56
2368,B3,550.0,0.5,26,119.56
2369,E3,550.5,0.5,21,119.56
2370,E4,551.0,0.5,20,119.56
2371,C4,551.0,0.5,20,119.56
2372,E3,551.5,0.5,21,119.56
2373,B5,552.0,1.0,35,119.56
2374,D6,552.0,1.0,35,119.56
2375,F4,552.0,0.5,26,119.56
2376,D4,552.0,0.5,26,119.56
2377,E3,552.5,0.5,20,119.56
2378,C6,553.0,1.0,41,119.56
2379,E6,553.0,1.0,41,119.56
2380,D4,553.0,0.5,18,119.56
2381,B3,553.0,0.5,18,119.56
2382,E3,553.5,0.5,20,119.56
2383,E5,554.0,1979/500,25,119.56
2384,D6,554.0,1.5,46,119.56
2385,F6,554.0,1.5,46,119.56
2386,G#3,554.0,0.5,25,119.56
2387,B3,554.0,0.5,25,119.56
2388,E3,554.5,0.5,21,119.56
2389,C4,555.0,0.5,20,119.56
2390,A3,555.0,0.5,20,119.56
2391,E3,555.5,0.5,21,119.56
2392,B5,555.5,0.5,39,119.56
2393,D6,555.5,0.5,39,119.56
2394,G#5,556.0,1.0,46,119.56
2395,B5,556.0,1.0,46,119.56
2396,B3,556.0,0.5,26,119.56
2397,D4,556.0,0.5,26,119.56
2398,E3,556.5,0.5,20,119.56
2399,A5,557.0,1.0,40,119.56
2400,C6,557.0,1.0,40,119.56
2401,A3,557.0,0.5,22,119.56
2402,C4,557.0,0.5,22,119.56
2403,E3,557.5,0.5,20,119.56
2404,E5,558.0,1979/500,34,119.56
2405,D6,558.0,1.0,40,119.56
2406,B5,558.0,1.0,40,119.56
2407,B3,558.0,0.5,26,119.56
2408,G3,558.0,0.5,26,119.56
2409,E3,558.5,0.5,21,119.56
2410,C6,559.0,1.0,35,119.56
2411,A5,559.0,1.0,35,119.56
2412,A3,559.0,0.5,20,119.56
2413,F3,559.0,0.5,20,119.56
2414,E3,559.5,0.5,21,119.56
2415,G#3,560.0,0.5,28,119.56
2416,G5,560.0,1.0,35,119.56
2417,B5,560.0,1.0,35,119.56
2418,E3,560.5,0.5,20,119.56
2419,F5,561.0,1.0,41,119.56
2420,A5,561.0,1.0,41,119.56
2421,A3,561.0,0.5,18,119.56
2422,F#3,561.0,0.5,18,119.56
2423,E3,561.5,0.5,20,119.56
2424,E5,562.0,1479/500,25,119.56
2425,G#5,562.0,1.5,46,119.56
2426,G#3,562.0,0.5,25,119.56
2427,B3,562.0,0.5,25,119.56
2428,E3,562.5,0.5,21,119.56
2429,G#3,563.0,0.5,21,119.56
2430,E3,563.5,0.5,21,119.56
2431,A5,563.5,0.5,39,119.56
2432,F#5,563.5,0.5,39,119.56
2433,B5,564.0,1.0,46,119.56
2434,G#5,564.0,1.0,46,119.56
2435,C4,564.0,0.5,26,119.56
2436,E4,564.0,0.5,26,119.56
2437,E3,564.5,0.5,20,119.56
2438,E5,565.0,1.0,40,119.56
2439,C4,565.0,0.5,22,119.56
2440,E4,565.0,0.5,22,119.56
2441,E3,565.5,0.5,20,119.56
2442,E5,566.0,1979/500,40,119.56
2443,E6,566.0,2.0,40,119.56
2444,C6,566.0,2.0,40,119.56
2445,D4,566.0,0.5,26,119.56
2446,B3,566.0,0.5,26,119.56
2447,E3,566.5,0.5,21,119.56
2448,E4,567.0,0.5,20,119.56
2449,C4,567.0,0.5,20,119.56
2450,E3,567.5,0.5,22,119.56
2451,D6,568.0,1.0,35,119.56
2452,B5,568.0,1.0,35,119.56
2453,G4,568.0,0.5,28,119.56
2454,E4,568.0,0.5,28,119.56
2455,E3,568.5,0.5,22,119.56
2456,E6,569.0,1.0,43,119.56
2457,C6,569.0,1.0,43,119.56
2458,F4,569.0,0.5,20,119.56
2459,D4,569.0,0.5,20,119.56
2460,E3,569.5,0.5,22,119.56
2461,E5,570.0,1979/500,25,119.56
2462,E6,570.0,1.5,55,119.56
2463,G6,570.0,1.5,55,119.56
2464,B3,570.0,0.5,28,119.56
2465,D4,570.0,0.5,28,119.56
2466,E3,570.5,0.5,23,119.56
2467,F4,571.0,0.5,21,119.56
2468,D4,571.0,0.5,21,119.56
2469,E3,571.5,0.5,23,119.56
2470,F6,571.5,229/500,42,119.56
2471,D6,571.5,229/500,42,119.56
2472,D6,572.0,1.0,50,119.56
2473,B5,572.0,1.0,50,119.56
2474,C4,572.0,0.5,28,119.56
2475,E4,572.0,0.5,28,119.56
2476,E3,572.5,0.5,22,119.56
2477,F6,573.0,1.0,44,119.56
2478,D6,573.0,1.0,44,119.56
2479,A3,573.0,0.5,24,119.56
2480,C4,573.0,0.5,24,119.56
2481,E3,573.5,0.5,21,119.56
2482,E5,574.0,1979/500,37,119.56
2483,C6,574.0,1.0,44,119.56
2484,E6,574.0,1.0,44,119.56
2485,D4,574.0,0.5,27,119.56
2486,B3,574.0,0.5,27,119.56
2487,E3,574.5,0.5,21,119.56
2488,A5,575.0,1.0,37,119.56
2489,C6,575.0,1.0,37,119.56
2490,B3,575.0,0.5,20,119.56
2491,G#3,575.0,0.5,20,119.56
2492,E3,575.5,0.5,21,119.56
2493,B5,576.0,1.0,36,119.56
2494,D6,576.0,1.0,36,119.56
2495,A3,576.0,0.5,26,119.56
2496,C4,576.0,0.5,26,119.56
2497,E3,576.5,0.5,20,119.56
2498,B5,577.0,1.0,42,119.56
2499,G#5,577.0,1.0,42,119.56
2500,A3,577.0,0.5,18,119.56
2501,F#3,577.0,0.5,18,119.56
2502,E3,577.5,0.5,20,119.56
2503,E5,578.0,4.0,25,119.56
2504,C6,578.0,479/500,43,119.56
2505,A5,578.0,479/500,43,119.56
2506,G#3,578.0,0.5,25,119.56
2507,B3,578.0,0.5,25,119.56
2508,E3,578.5,0.5,21,119.56
2509,G#3,579.0,0.5,21,119.56
2510,A5,579.0,1.0,39,119.56
2511,F#5,579.0,1.0,39,119.56
2512,E3,579.5,0.5,21,119.56
2513,C4,580.0,0.5,29,119.56
2514,G#5,580.0,1.0,46,119.56
2515,B5,580.0,1.0,46,119.56
2516,A3,580.5,0.5,21,119.56
2517,E5,581.0,1.0,40,119.56
2518,E3,581.0,0.5,24,119.56
2519,C3,581.5,0.5,21,119.56
2520,C4,582.0,0.5,29,119.56
2521,E4,582.5,0.5,24,119.56
2522,A3,582.5,0.5,22,119.56
2523,A4,583.0,0.5,34,119.56
2524,E3,583.0,0.5,24,119.56
2525,E5,583.5,0.5,24,119.56
2526,C3,583.5,0.5,20,119.56
2527,D4,584.0,0.5,29,119.56
2528,E4,584.5,0.5,24,119.56
2529,A3,584.5,0.5,20,119.56
2530,B4,585.0,0.5,33,119.56
2531,F3,585.0,0.5,24,119.56
2532,E5,585.5,0.5,24,119.56
2533,D3,585.5,0.5,21,119.56
2534,D4,586.0,0.5,29,119.56
2535,A4,586.5,0.5,24,119.56
2536,A3,586.5,0.5,24,119.56
2537,C5,587.0,0.5,34,119.56
2538,F3,587.0,0.5,24,119.56
2539,D3,587.471,0.5,23,119.56
2540,F5,587.5,0.5,24,119.56
2541,D4,588.0,0.5,29,119.56
2542,F4,588.5,0.5,24,119.56
2543,B3,588.5,0.5,21,119.56
2544,B4,589.0,0.5,33,119.56
2545,A3,589.0,0.5,24,119.56
2546,F5,589.471,0.5,24,119.56
2547,E3,589.5,0.5,22,119.56
2548,D4,590.0,0.5,30,119.56
2549,A4,590.5,0.5,32,119.56
2550,B3,590.5,0.5,22,119.56
2551,F5,591.0,0.5,38,119.56
2552,G#3,591.0,0.5,25,119.56
2553,B5,591.5,0.5,32,119.56
2554,E3,591.5,0.5,25,119.56
2555,A4,592.0,0.5,30,119.56
2556,G#4,592.5,0.5,32,119.56
2557,F4,592.5,0.5,23,119.56
2558,E5,593.0,0.5,41,119.56
2559,E4,593.0,0.5,25,119.56
2560,B5,593.5,0.5,34,119.56
2561,A3,593.5,0.5,22,119.56
2562,A4,594.0,0.5,31,119.56
2563,D5,594.5,0.5,35,119.56
2564,E4,594.5,0.5,25,119.56
2565,B5,595.0,0.5,44,119.56
2566,C4,595.0,0.5,29,119.56
2567,E6,595.5,0.5,38,119.56
2568,A3,595.5,0.5,26,119.56
2569,D2,596.0,0.5,43,119.56
2570,C5,596.5,0.5,38,119.56
2571,D3,596.5,0.5,38,119.56
2572,A5,597.0,0.5,48,119.56
2573,F3,597.0,3.0,42,119.56
2574,E6,597.5,0.5,36,119.56
2575,A3,597.5,2.5,47,119.56
2576,D4,598.0,2.0,51,119.56
2577,B4,599.0,1.25,42,119.56
2578,F4,599.0,1.25,42,119.56
2579,A4,599.0,1.25,42,119.56
2580,F3,600.0,2.0,42,119.56
2581,A3,600.0,2.0,47,119.56
2582,D4,600.0,2.0,51,119.56
2583,C5,600.25,0.25,45,119.56
2584,B4,600.5,0.25,45,119.56
2585,A4,600.75,0.25,45,119.56
2586,B4,601.0,0.25,46,119.56
2587,C5,601.25,0.25,49,119.56
2588,D5,601.5,0.25,52,119.56
2589,E5,601.75,0.25,55,119.56
2590,G5,602.0,1.0,68,119.56
2591,F5,603.0,0.5,64,119.56
2592,D2,604.0,0.5,43,119.56
2593,D3,604.5,0.5,38,119.56
2594,F3,605.0,3.0,42,119.56
2595,G#3,605.5,2.5,47,119.56
2596,B3,606.0,2.0,51,119.56
2597,F4,607.0,1.25,42,119.56
2598,B4,607.0,1.25,42,119.56
2599,G#4,607.0,1.25,42,119.56
2600,F3,608.0,1.0,42,119.56
2601,G#3,608.0,1.0,47,119.56
2602,B3,608.0,1.0,51,119.56
2603,C5,608.25,0.25,45,119.56
2604,B4,608.5,0.25,45,119.56
2605,B-4,608.75,0.25,45,119.56
2606,B4,609.0,0.25,46,119.56
2607,C5,609.25,0.25,49,119.56
2608,D5,609.5,0.25,52,119.56
2609,E5,609.75,0.25,55,119.56
2610,G5,610.0,1.0,68,119.56
2611,G#3,610.0,1.5,48,119.56
2612,B-3,610.0,1.5,48,119.56
2613,D4,610.0,1.5,48,119.56
2614,F4,610.0,1.5,48,119.56
2615,B-4,610.0,1.5,48,119.56
2616,F5,611.0,0.5,64,119.56
2617,D5,612.0,1.5,62,119.56
2618,C6,612.0,1.0,74,119.56
2619,B-5,613.0,0.5,69,119.56
2620,G2,614.0,11/40,45,119.56
2621,G#2,614.25,11/40,37,119.56
2622,G2,614.5,11/40,37,119.56
2623,F#2,614.75,11/40,37,119.56
2624,G2,615.0,11/40,45,119.56
2625,B-2,615.25,11/40,42,119.56
2626,E-3,615.5,11/40,45,119.56
2627,G3,615.75,0.25,48,119.56
2628,G3,616.0,1/40,48,119.56
2629,G#3,616.0,1.5,52,119.56
2630,B-3,616.0,1.5,52,119.56
2631,D4,618.0,11/40,41,119.56
2632,C5,618.0,1.0,41,119.56
2633,G3,618.0,11/40,45,119.56
2634,E-4,618.25,11/40,41,119.56
2635,G#3,618.25,11/40,37,119.56
2636,D4,618.5,11/40,41,119.56
2637,G3,618.5,11/40,37,119.56
2638,C#4,618.75,11/40,41,119.56
2639,F#3,618.75,11/40,37,119.56
2640,D4,619.0,11/40,45,119.56
2641,B-4,619.0,0.5,61,119.56
2642,G3,619.0,11/40,45,119.56
2643,F4,619.25,11/40,47,119.56
2644,B-3,619.25,11/40,42,119.56
2645,G#4,619.5,11/40,49,119.56
2646,E-4,619.5,11/40,45,119.56
2647,B-4,619.75,11/40,52,119.56
2648,G4,619.75,0.25,48,119.56
2649,C6,620.0,1.0,67,119.56
2650,E-5,620.0,1.5,67,119.56
2651,G4,620.0,1/40,48,119.56
2652,G#4,620.0,1.5,59,119.56
2653,B-4,620.0,1.5,59,119.56
2654,B-5,621.0,0.5,61,119.56
2655,D5,622.0,11/40,51,119.56
2656,C6,622.0,1.0,75,119.56
2657,G#5,622.0,11/40,51,119.56
2658,E-5,622.25,11/40,47,119.56
2659,F5,622.25,11/40,42,119.56
2660,D5,622.5,11/40,47,119.56
2661,D5,622.5,11/40,42,119.56
2662,C#5,622.75,11/40,47,119.56
2663,B-4,622.75,11/40,42,119.56
2664,B-5,623.0,0.5,70,119.56
2665,D5,623.0,11/40,51,119.56
2666,G#4,623.0,11/40,51,119.56
2667,F5,623.25,11/40,53,119.56
2668,F4,623.25,11/40,48,119.56
2669,G#5,623.5,11/40,56,119.56
2670,D4,623.5,11/40,51,119.56
2671,B-5,623.75,11/40,60,119.56
2672,G#3,623.75,0.25,55,119.56
2673,C7,624.0,1.0,77,119.56
2674,D6,624.0,1.5,77,119.56
2675,A3,624.0,4.0,55,119.56
2676,G#3,624.0,1/40,55,119.56
2677,B-6,625.0,1.0,86,119.56
2678,B-6,626.0,0.5,86,119.56
2679,F3,626.0,2.0,52,119.56
2680,D4,626.0,2.0,52,119.56
2681,A6,626.5,0.5,75,119.56
2682,G#6,627.0,0.5,77,119.56
2683,G6,627.5,0.5,73,119.56
2684,F#6,628.0,0.5,69,119.56
2685,A3,628.0,4.0,55,119.56
2686,E3,628.0,2.0,54,119.56
2687,E4,628.0,2.0,54,119.56
2688,F6,628.5,0.5,63,119.56
2689,E6,629.0,0.5,70,119.56
2690,E-6,629.5,0.5,69,119.56
2691,D6,630.0,0.5,70,119.56
2692,D3,630.0,2.0,57,119.56
2693,F4,630.0,2.0,57,119.56
2694,C#6,630.5,0.5,60,119.56
2695,C6,631.0,0.5,64,119.56
2696,B5,631.5,0.5,67,119.56
2697,B-5,632.0,0.5,71,119.56
2698,A3,632.0,4.0,55,119.56
2699,D3,632.0,2.0,57,119.56
2700,F4,632.0,2.0,57,119.56
2701,A5,632.5,0.5,60,119.56
2702,G#5,633.0,0.5,67,119.56
2703,G5,633.5,0.5,54,119.56
2704,F#5,634.0,0.5,60,119.56
2705,F3,634.0,2.0,50,119.56
2706,D4,634.0,2.0,50,119.56
2707,F5,634.5,0.5,54,119.56
2708,E5,635.0,0.5,59,119.56
2709,E-5,635.5,0.5,50,119.56
2710,D5,636.0,0.5,59,119.56
2711,A3,636.0,2.0,55,119.56
2712,E3,636.0,2.0,44,119.56
2713,C4,636.0,2.0,44,119.56
2714,C#5,636.5,0.5,46,119.56
2715,C5,637.0,0.5,53,119.56
2716,B4,637.5,0.5,46,119.56
2717,C5,639.0,1.0,54,119.56
2718,E-5,640.0,1.0,58,119.56
2719,E3,640.0,2.0,30,119.56
2720,G#3,640.0,2.0,30,119.56
2721,B3,640.0,2.0,30,119.56
2722,A5,641.0,1.0,54,119.56
2723,F4,641.0,1.0,44,119.56
2724,E4,642.0,1.0,33,119.56
2725,F5,643.0,1.0,54,119.56
2726,G#3,643.0,1.0,24,119.56
2727,E5,644.0,1.0,43,119.56
2728,A2,644.0,2.0,30,119.56
2729,A3,644.0,2.0,30,119.56
2730,G#4,645.0,1.0,34,119.56
2731,A5,646.0,2.0,40,119.56
2732,F5,646.0,0.5,32,119.56
2733,G4,646.0,1.0,32,119.56
2734,E4,646.0,0.5,24,119.56
2735,A4,646.5,0.5,23,119.56
2736,A3,646.5,0.5,21,119.56
2737,F5,647.0,0.5,23,119.56
2738,A4,647.0,1.0,24,119.56
2739,F4,647.0,0.5,18,119.56
2740,A4,647.5,0.5,23,119.56
2741,A3,647.5,0.5,21,119.56
2742,G5,648.0,1.0,35,119.56
2743,E5,648.0,1.0,35,119.56
2744,B-4,648.0,0.5,28,119.56
2745,G4,648.0,0.5,28,119.56
2746,A3,648.5,0.5,20,119.56
2747,A5,649.0,1.0,41,119.56
2748,F5,649.0,1.0,41,119.56
2749,G4,649.0,0.5,20,119.56
2750,E4,649.0,0.5,20,119.56
2751,A3,649.5,0.5,20,119.56
2752,G5,650.0,1.5,46,119.56
2753,B-5,650.0,1.5,46,119.56
2754,C#4,650.0,0.5,27,119.56
2755,E4,650.0,0.5,27,119.56
2756,A3,650.5,0.5,21,119.56
2757,F4,651.0,0.5,21,119.56
2758,D4,651.0,0.5,21,119.56
2759,A3,651.5,0.5,21,119.56
2760,E5,651.5,0.5,39,119.56
2761,G5,651.5,0.5,39,119.56
2762,C#5,652.0,1.0,46,119.56
2763,E5,652.0,1.0,46,119.56
2764,E4,652.0,0.5,28,119.56
2765,G4,652.0,0.5,28,119.56
2766,A3,652.5,0.5,20,119.56
2767,F5,653.0,1.0,40,119.56
2768,D5,653.0,1.0,40,119.56
2769,D4,653.0,0.5,24,119.56
2770,F4,653.0,0.5,24,119.56
2771,A3,653.5,0.5,20,119.56
2772,G5,654.0,1.0,40,119.56
2773,E5,654.0,1.0,40,119.56
2774,E4,654.0,0.5,28,119.56
2775,C4,654.0,0.5,28,119.56
2776,A3,654.5,0.5,21,119.56
2777,D5,655.0,1.0,35,119.56
2778,F5,655.0,1.0,35,119.56
2779,D4,655.0,0.5,21,119.56
2780,B-3,655.0,0.5,21,119.56
2781,A3,655.5,0.5,21,119.56
2782,C#4,656.0,0.5,32,119.56
2783,E5,656.0,1.0,35,119.56
2784,C5,656.0,1.0,35,119.56
2785,A3,656.5,0.5,23,119.56
2786,D5,657.0,1.0,41,119.56
2787,B-4,657.0,1.0,41,119.56
2788,B3,657.0,0.5,21,119.56
2789,D4,657.0,0.5,21,119.56
2790,A3,657.5,0.5,23,119.56
2791,C#5,658.0,1.5,36,119.56
2792,A4,658.0,1.5,36,119.56
2793,C#4,658.0,0.5,28,119.56
2794,E4,658.0,0.5,28,119.56
2795,A3,658.523,0.5,24,119.56
2796,C#4,659.0,0.5,24,119.56
2797,E4,659.0,0.5,24,119.56
2798,B4,659.5,0.5,39,119.56
2799,D5,659.5,0.5,39,119.56
2800,A3,659.523,477/1000,20,119.56
2801,A4,660.0,0.5,32,119.56
2802,A3,660.0,23/1000,20,119.56
2803,C#5,660.0,1.0,46,119.56
2804,E5,660.0,1.0,46,119.56
2805,A3,660.5,0.5,23,119.56
2806,A4,661.0,0.5,23,119.56
2807,A3,661.5,0.5,23,119.56
2808,A4,662.0,0.5,31,119.56
2809,C#6,662.0,1.5,36,119.56
2810,A5,662.0,1.5,36,119.56
2811,A3,662.523,0.5,29,119.56
2812,A4,663.0,0.5,34,119.56
2813,D6,663.5,0.5,39,119.56
2814,B5,663.5,0.5,39,119.56
2815,A3,663.523,477/1000,39,119.56
2816,E4,664.0,0.5,44,119.56
2817,A3,664.0,23/1000,39,119.56
2818,C#6,664.0,1.0,46,119.56
2819,E6,664.0,1.0,46,119.56
2820,A3,664.5,0.5,25,119.56
2821,E4,664.975,0.5,25,119.56
2822,A3,665.5,0.5,25,119.56
2823,E4,666.0,0.5,34,119.56
2824,C5,666.0,1.5,36,119.56
2825,A4,666.0,1.5,36,119.56
2826,A3,666.523,0.5,26,119.56
2827,E4,667.0,0.5,26,119.56
2828,D5,667.5,0.5,39,119.56
2829,B4,667.5,0.5,39,119.56
2830,A3,667.523,477/1000,22,119.56
2831,G4,668.0,0.5,46,119.56
2832,A3,668.0,23/1000,22,119.56
2833,C5,668.0,2.0,46,119.56
2834,E5,668.0,2.0,46,119.56
2835,G3,668.5,0.5,30,119.56
2836,G4,669.0,0.5,32,119.56
2837,G3,669.5,0.5,34,119.56
2838,G4,670.0,0.5,42,119.56
2839,G3,670.5,0.5,34,119.56
2840,G4,671.0,0.5,34,119.56
2841,G3,671.5,0.5,34,119.56
2842,C5,671.5,1.5,46,119.56
2843,E5,671.5,1.5,46,119.56
2844,F#4,672.0,0.5,48,119.56
2845,G3,672.5,0.5,36,119.56
2846,F#4,673.0,0.5,37,119.56
2847,D5,673.0,0.5,44,119.56
2848,F5,673.0,0.5,44,119.56
2849,E5,673.5,2.0,46,119.56
2850,G5,673.5,2.0,57,119.56
2851,G3,673.5,0.5,37,119.56
2852,F4,674.0,0.5,47,119.56
2853,G3,674.5,0.5,34,119.56
2854,F4,675.0,0.5,34,119.56
2855,G5,675.5,1.5,57,119.56
2856,G3,675.5,0.5,27,119.56
2857,E-5,675.5,2.0,39,119.56
2858,C5,675.5,2.0,39,119.56
2859,E4,676.0,0.5,50,119.56
2860,G3,676.5,0.5,36,119.56
2861,A5,677.0,0.5,62,119.56
2862,E4,677.0,0.5,36,119.56
2863,B5,677.5,2.0,60,119.56
2864,G3,677.5,0.5,36,119.56
2865,D5,677.5,979/500,50,119.56
2866,G5,677.5,979/500,50,119.56
2867,D4,678.0,0.5,50,119.56
2868,G3,678.5,0.5,40,119.56
2869,D4,679.0,0.5,40,119.56
2870,B5,679.5,1.5,60,119.56
2871,G3,679.5,0.5,40,119.56
2872,C5,679.5,2.0,42,119.56
2873,G5,679.5,2.0,42,119.56
2874,C4,680.0,0.5,52,119.56
2875,G3,680.5,0.5,39,119.56
2876,C6,681.0,0.5,62,119.56
2877,C4,681.0,0.5,42,119.56
2878,D6,681.5,2.0,67,119.56
2879,G3,681.5,0.5,48,119.56
2880,D5,681.5,2.0,56,119.56
2881,F5,681.5,2.0,56,119.56
2882,B5,681.5,2.0,56,119.56
2883,B3,682.0,0.5,45,119.56
2884,G3,682.5,0.5,45,119.56
2885,B3,683.0,0.5,52,119.56
2886,D6,683.5,1.5,67,119.56
2887,G3,683.5,0.5,45,119.56
2888,E5,683.5,2.0,50,119.56
2889,G5,683.5,2.0,50,119.56
2890,G4,684.0,0.5,55,119.56
2891,G3,684.5,0.5,46,119.56
2892,E6,685.0,0.5,74,119.56
2893,G4,685.0,0.5,55,119.56
2894,G3,685.5,0.5,47,119.56
2895,F6,685.5,2.0,69,119.56
2896,D6,685.5,2.0,69,119.56
2897,F5,685.5,2.0,69,119.56
2898,G4,686.0,0.5,60,119.56
2899,G3,686.5,0.5,49,119.56
2900,G4,687.0,0.5,63,119.56
2901,G3,687.5,0.5,51,119.56
2902,D4,687.875,0.125,58,119.56
2903,F4,687.938,0.062,63,119.56
2904,B4,688.0,0.5,68,119.56
2905,G3,688.0,0.5,51,119.56
2906,D4,688.0,0.5,58,119.56
2907,F4,688.0,0.5,63,119.56
2908,F6,688.0,0.5,69,119.56
2909,D6,688.0,0.5,69,119.56
2910,F5,688.0,0.5,69,119.56
2911,E6,688.5,0.5,63,119.56
2912,E5,688.5,0.5,63,119.56
2913,C#6,688.5,0.5,63,119.56
2914,E4,688.5,0.5,54,119.56
2915,E5,688.5,0.5,54,119.56
2916,F6,689.0,0.5,68,119.56
2917,F5,689.0,0.5,68,119.56
2918,D6,689.0,0.5,68,119.56
2919,F4,689.0,0.5,61,119.56
2920,F5,689.0,0.5,61,119.56
2921,E6,689.5,0.5,63,119.56
2922,C#6,689.5,0.5,63,119.56
2923,E5,689.5,0.5,63,119.56
2924,C#4,689.5,0.25,54,119.56
2925,C#5,689.5,0.25,54,119.56
2926,F6,690.0,0.5,72,119.56
2927,F5,690.0,0.5,72,119.56
2928,D6,690.0,0.5,72,119.56
2929,D4,690.0,0.25,62,119.56
2930,D5,690.0,0.25,62,119.56
2931,C#6,690.5,0.5,69,119.56
2932,E5,690.5,0.5,69,119.56
2933,E6,690.5,0.5,69,119.56
2934,F5,691.0,0.5,72,119.56
2935,F6,691.0,0.5,72,119.56
2936,D6,691.0,0.5,72,119.56
2937,C#6,691.5,0.25,77,119.56
2938,E6,691.5,0.25,77,119.56
2939,E5,691.5,0.25,77,119.56
2940,G6,692.0,0.25,77,119.56
2941,F6,692.0,0.25,77,119.56
2942,F7,692.0,0.25,77,119.56
2943,D7,692.25,0.25,75,119.56
2944,B6,692.5,0.25,76,119.56
2945,E3,692.5,0.5,49,119.56
2946,G6,692.75,0.25,73,119.56
2947,F6,693.0,0.25,86,119.56
2948,F3,693.0,0.5,58,119.56
2949,D6,693.25,0.25,72,119.56
2950,B5,693.5,0.25,76,119.56
2951,C#3,693.5,0.25,48,119.56
2952,G5,693.75,0.25,69,119.56
2953,F6,694.0,0.25,86,119.56
2954,D3,694.0,0.25,57,119.56
2955,D6,694.25,0.25,75,119.56
2956,B5,694.5,0.25,76,119.56
2957,G5,694.75,0.25,73,119.56
2958,F5,695.0,0.25,86,119.56
2959,D5,695.25,0.25,72,119.56
2960,B4,695.5,0.25,76,119.56
2961,G4,695.75,0.25,63,119.56
2962,F5,696.0,0.25,79,119.56
2963,G1,696.0,0.5,36,119.56
2964,G4,696.0,2.0,41,119.56
2965,E-4,696.0,2.0,41,119.56
2966,D5,696.25,0.25,64,119.56
2967,B4,696.5,0.25,73,119.56
2968,G3,696.5,0.5,24,119.56
2969,G4,696.75,0.25,59,119.56
2970,F4,697.0,0.25,67,119.56
2971,G#3,697.0,0.5,31,119.56
2972,D4,697.25,0.25,58,119.56
2973,B3,697.5,0.25,67,119.56
2974,G3,697.5,0.5,24,119.56
2975,G3,697.75,0.25,56,119.56
2976,F4,698.0,0.25,65,119.56
2977,F4,698.0,1.0,32,119.56
2978,D4,698.0,1.0,32,119.56
2979,D4,698.25,0.25,52,119.56
2980,B3,698.5,0.25,63,119.56
2981,G3,698.5,0.5,24,119.56
2982,G3,698.75,0.25,46,119.56
2983,F3,699.0,0.25,58,119.56
2984,G4,699.0,1.0,38,119.56
2985,E-4,699.0,1.0,38,119.56
2986,D3,699.25,0.25,47,119.56
2987,B2,699.5,0.25,57,119.56
2988,G3,699.5,0.5,24,119.56
2989,G2,699.75,0.25,46,119.56
2990,G#4,700.0,729/500,43,119.56
2991,F4,700.0,729/500,43,119.56
2992,G3,700.5,0.5,23,119.56
2993,G#3,701.0,0.5,19,119.56
2994,D4,701.5,0.5,29,119.56
2995,F4,701.5,0.5,29,119.56
2996,G3,701.5,0.5,29,119.56
2997,B3,702.0,1.0,40,119.56
2998,D4,702.0,1.0,40,119.56
2999,G3,702.5,0.5,24,119.56
3000,E-4,703.0,1.0,33,119.56
3001,C4,703.0,1.0,33,119.56
3002,G3,703.5,0.5,24,119.56
3003,G5,704.0,2.0,52,119.56
3004,D4,704.0,1.0,38,119.56
3005,F4,704.0,1.0,38,119.56
3006,G3,704.5,0.5,30,119.56
3007,C4,705.0,1.0,36,119.56
3008,E-4,705.0,1.0,36,119.56
3009,G3,705.5,0.5,30,119.56
3010,F5,706.0,1.0,52,119.56
3011,D4,706.0,1.0,38,119.56
3012,B-3,706.0,1.0,38,119.56
3013,G3,706.5,0.5,28,119.56
3014,G5,707.0,1.0,55,119.56
3015,C4,707.0,1.0,34,119.56
3016,G#3,707.0,1.0,34,119.56
3017,G3,707.5,0.5,29,119.56
3018,G#5,708.0,1.5,58,119.56
3019,B3,708.0,1.5,43,119.56
3020,G3,708.5,0.5,30,119.56
3021,G#3,709.0,0.5,30,119.56
3022,F5,709.5,0.5,50,119.56
3023,C4,709.5,0.5,32,119.56
3024,G3,709.5,0.5,32,119.56
3025,D5,710.0,1.0,57,119.56
3026,D4,710.0,1.0,46,119.56
3027,G3,710.5,0.5,28,119.56
3028,E-5,711.0,1.0,47,119.56
3029,G3,711.5,0.5,30,119.56
3030,D5,712.0,1.0,50,119.56
3031,F5,712.0,1.0,50,119.56
3032,G4,712.0,979/500,41,119.56
3033,D4,712.0,979/500,41,119.56
3034,G3,712.5,0.5,26,119.56
3035,G#3,713.0,0.5,31,119.56
3036,C5,713.0,1.0,44,119.56
3037,E-5,713.0,1.0,44,119.56
3038,G3,713.5,0.5,26,119.56
3039,B-4,714.0,1.0,44,119.56
3040,D5,714.0,1.0,44,119.56
3041,F4,714.0,1.0,32,119.56
3042,D4,714.0,1.0,32,119.56
3043,G3,714.5,0.5,24,119.56
3044,C5,715.0,1.0,40,119.56
3045,G#4,715.0,1.0,40,119.56
3046,G4,715.0,1.0,35,119.56
3047,E-4,715.0,1.0,35,119.56
3048,G3,715.5,0.5,24,119.56
3049,B4,716.0,1.5,49,119.56
3050,B-4,716.0,1.5,44,119.56
3051,G4,716.0,0.5,34,119.56
3052,G3,716.5,0.5,23,119.56
3053,G#3,717.0,0.5,19,119.56
3054,A4,717.5,0.5,43,119.56
3055,C5,717.5,0.5,43,119.56
3056,G#4,717.5,0.5,32,119.56
3057,G3,717.5,0.5,32,119.56
3058,D5,718.0,1.0,50,119.56
3059,B4,718.0,1.0,50,119.56
3060,D4,718.0,1.0,31,119.56
3061,F4,718.0,1.0,31,119.56
3062,G3,718.5,0.5,24,119.56
3063,B-4,719.0,0.5,33,119.56
3064,G4,719.0,0.5,33,119.56
3065,F4,719.5,0.5,33,119.56
3066,G#4,719.5,0.5,33,119.56
3067,E-4,720.0,0.5,35,119.56
3068,G4,720.0,1.0,42,119.56
3069,E-5,720.0,1.5,50,119.56
3070,G5,720.0,1.5,50,119.56
3071,G3,720.5,0.5,30,119.56
3072,C4,721.0,0.5,33,119.56
3073,E-4,721.0,1.0,39,119.56
3074,G3,721.5,0.5,30,119.56
3075,D5,721.5,1.5,48,119.56
3076,F5,721.5,1.5,48,119.56
3077,F4,722.0,1.0,41,119.56
3078,D4,722.0,0.5,34,119.56
3079,G3,722.5,0.5,28,119.56
3080,D4,723.0,1.0,37,119.56
3081,B3,723.0,0.5,31,119.56
3082,E-5,723.0,1.0,50,119.56
3083,G5,723.0,1.0,50,119.56
3084,G3,723.5,0.5,29,119.56
3085,B-5,724.0,1.5,64,119.56
3086,E-5,724.0,2.0,54,119.56
3087,C4,724.0,0.5,30,119.56
3088,E-4,724.0,1.0,43,119.56
3089,G3,724.5,0.5,30,119.56
3090,C4,725.0,1.0,36,119.56
3091,A3,725.0,0.5,30,119.56
3092,G#5,725.5,0.5,56,119.56
3093,G3,725.5,0.5,36,119.56
3094,B3,726.0,0.5,30,119.56
3095,D4,726.0,1.0,46,119.56
3096,D5,726.0,19/20,57,119.56
3097,F5,726.0,19/20,57,119.56
3098,G3,726.5,0.5,28,119.56
3099,F5,727.0,1.0,50,119.56
3100,G#5,727.0,1.0,50,119.56
3101,G3,727.5,0.5,30,119.56
3102,G3,728.0,2.0,30,119.56
3103,G5,728.0,19/20,57,119.56
3104,E-5,728.0,19/20,57,119.56
3105,E-3,728.0,2.0,28,119.56
3106,C4,728.0,2.0,28,119.56
3107,E-5,729.0,19/20,44,119.56
3108,C5,729.0,19/20,44,119.56
3109,F5,730.0,19/20,52,119.56
3110,D5,730.0,19/20,52,119.56
3111,F3,730.0,2.0,24,119.56
3112,G#3,730.0,2.0,24,119.56
3113,C#4,730.0,2.0,24,119.56
3114,D5,731.0,1.0,45,119.56
3115,B4,731.0,1.0,45,119.56
3116,E-5,732.0,2.0,49,119.56
3117,C5,732.0,0.5,40,119.56
3118,D4,732.0,2.0,24,119.56
3119,G3,732.0,2.0,24,119.56
3120,G4,732.5,0.5,35,119.56
3121,C5,733.0,0.5,40,119.56
3122,G4,733.5,0.5,36,119.56
3123,G#4,734.0,0.5,40,119.56
3124,C#5,734.0,2.0,49,119.56
3125,F4,734.5,0.5,34,119.56
3126,G#4,735.0,0.5,40,119.56
3127,F4,735.5,0.5,33,119.56
3128,G2,735.5,0.5,30,119.56
3129,B4,736.0,2.0,49,119.56
3130,G4,736.0,0.5,40,119.56
3131,G2,736.0,2.0,30,119.56
3132,E-2,736.0,2.0,28,119.56
3133,C3,736.0,2.0,28,119.56
3134,B3,736.5,0.5,32,119.56
3135,G4,737.0,0.5,40,119.56
3136,B3,737.5,0.5,35,119.56
3137,G4,738.0,0.5,40,119.56
3138,F2,738.0,2.0,24,119.56
3139,G#2,738.0,2.0,24,119.56
3140,C#3,738.0,2.0,24,119.56
3141,B3,738.5,0.5,36,119.56
3142,G3,739.0,1.0,40,119.56
3143,C5,740.0,133/200,40,119.56
3144,E-5,740.0,2.0,49,119.56
3145,D3,740.0,2.0,24,119.56
3146,G2,740.0,2.0,24,119.56
3147,G4,740.667,667/1000,35,119.56
3148,C5,741.333,667/1000,40,119.56
3149,C#5,742.0,2.0,49,119.56
3150,G#4,742.0,133/200,40,119.56
3151,F4,742.667,667/1000,34,119.56
3152,G1,743.0,0.5,81,119.56
3153,G2,743.0,0.5,81,119.56
3154,G#4,743.333,667/1000,40,119.56
3155,B4,744.0,2.0,49,119.56
3156,G4,744.0,133/200,40,119.56
3157,G3,744.0,2.0,89,119.56
3158,G2,744.0,2.0,89,119.56
3159,B3,744.667,667/1000,32,119.56
3160,G4,745.333,667/1000,40,119.56
3161,G3,746.0,0.5,40,119.56
3162,F3,746.0,1.0,76,119.56
3163,F2,746.0,1.0,76,119.56
3164,G3,747.0,1.0,81,119.56
3165,G2,747.0,1.0,81,119.56
3166,E-5,748.0,9/20,66,119.56
3167,B-5,748.0,9/20,66,119.56
3168,B-4,748.0,9/20,66,119.56
3169,G#3,748.0,1.5,86,119.56
3170,G#2,748.0,1.5,86,119.56
3171,B-4,748.5,19/20,63,119.56
3172,B-5,748.5,19/20,63,119.56
3173,E-5,748.5,19/20,63,119.56
3174,E-5,749.5,19/20,61,119.56
3175,B-4,749.5,19/20,61,119.56
3176,B-5,749.5,19/20,61,119.56
3177,F3,749.5,0.5,78,119.56
3178,F2,749.5,0.5,78,119.56
3179,D3,750.0,1.0,84,119.56
3180,D2,750.0,1.0,84,119.56
3181,G#5,750.5,19/20,68,119.56
3182,B-5,750.5,19/20,68,119.56
3183,B-4,750.5,19/20,68,119.56
3184,D5,750.5,19/20,68,119.56
3185,E-3,751.0,1.0,80,119.56
3186,E-2,751.0,1.0,80,119.56
3187,B-4,751.5,0.5,64,119.56
3188,B-5,751.5,0.5,64,119.56
3189,G5,751.5,0.5,64,119.56
3190,E-5,751.5,0.5,64,119.56
3191,B-4,752.0,9/20,64,119.56
3192,B-5,752.0,9/20,64,119.56
3193,G5,752.0,9/20,64,119.56
3194,E-5,752.0,9/20,64,119.56
3195,F2,752.0,1.0,84,119.56
3196,F3,752.0,1.0,84,119.56
3197,B-4,752.5,19/20,61,119.56
3198,F5,752.5,19/20,61,119.56
3199,B-5,752.5,19/20,61,119.56
3200,D5,752.5,19/20,61,119.56
3201,E-2,753.0,1.0,80,119.56
3202,E-3,753.0,1.0,80,119.56
3203,D5,753.5,19/20,62,119.56
3204,B-4,753.5,19/20,62,119.56
3205,G#5,753.5,19/20,62,119.56
3206,B-5,753.5,19/20,62,119.56
3207,D2,754.0,1.0,86,119.56
3208,D3,754.0,1.0,86,119.56
3209,F5,754.5,19/20,69,119.56
3210,B-4,754.5,19/20,69,119.56
3211,B-5,754.5,19/20,69,119.56
3212,G#5,754.5,19/20,69,119.56
3213,C2,755.0,1.0,82,119.56
3214,C3,755.0,1.0,82,119.56
3215,G5,755.5,0.5,61,119.56
3216,E-5,755.5,0.5,61,119.56
3217,B-5,755.5,0.5,61,119.56
3218,B-4,755.5,0.5,61,119.56
3219,G5,756.0,9/20,61,119.56
3220,E-5,756.0,9/20,61,119.56
3221,B-5,756.0,9/20,61,119.56
3222,B-4,756.0,9/20,61,119.56
3223,B1,756.0,2.0,88,119.56
3224,B2,756.0,2.0,88,119.56
3225,G#5,756.5,19/20,83,119.56
3226,D5,756.5,19/20,83,119.56
3227,B-5,756.5,19/20,83,119.56
3228,D6,756.5,19/20,83,119.56
3229,E-5,757.5,19/20,76,119.56
3230,B-5,757.5,19/20,76,119.56
3231,E-6,757.5,19/20,76,119.56
3232,G5,757.5,19/20,76,119.56
3233,B-1,758.0,1.0,88,119.56
3234,B-2,758.0,1.0,88,119.56
3235,G#5,758.5,19/20,80,119.56
3236,F5,758.5,19/20,80,119.56
3237,F6,758.5,19/20,80,119.56
3238,B-5,758.5,19/20,80,119.56
3239,A1,759.0,0.875,94,119.56
3240,A2,759.0,0.875,94,119.56
3241,E-6,759.5,0.5,90,119.56
3242,G5,759.5,0.5,90,119.56
3243,G6,759.5,0.5,90,119.56
3244,G#1,759.875,0.125,72,119.56
3245,G#2,759.938,0.062,72,119.56
3246,F6,760.0,9/20,92,119.56
3247,G#6,760.0,9/20,92,119.56
3248,G#5,760.0,9/20,92,119.56
3249,D6,760.0,9/20,92,119.56
3250,F4,760.0,1.5,78,119.56
3251,D4,760.0,1.5,78,119.56
3252,B-3,760.0,1.5,78,119.56
3253,G#3,760.0,1.5,78,119.56
3254,G#5,760.5,19/20,88,119.56
3255,G#6,760.5,19/20,88,119.56
3256,F6,760.5,19/20,88,119.56
3257,D6,760.5,19/20,88,119.56
3258,G#5,761.5,19/20,88,119.56
3259,F6,761.5,19/20,88,119.56
3260,G#6,761.5,19/20,88,119.56
3261,D6,761.5,19/20,88,119.56
3262,B-2,761.5,19/40,72,119.56
3263,B-3,761.5,19/40,72,119.56
3264,B-2,762.0,1.0,72,119.56
3265,B-3,762.0,1.0,72,119.56
3266,D6,762.5,19/20,90,119.56
3267,G#5,762.5,19/20,90,119.56
3268,G#6,762.5,19/20,90,119.56
3269,F6,762.5,19/20,90,119.56
3270,C3,763.0,0.25,65,119.56
3271,C4,763.0,0.25,65,119.56
3272,D6,763.5,0.375,92,119.56
3273,A5,763.5,0.375,92,119.56
3274,A6,763.5,0.375,92,119.56
3275,F6,763.5,0.375,92,119.56
3276,D3,763.5,0.25,72,119.56
3277,D4,763.5,0.25,72,119.56
3278,B-6,764.0,979/500,97,119.56
3279,D6,764.0,979/500,97,119.56
3280,B-5,764.0,979/500,97,119.56
3281,F6,764.0,979/500,97,119.56
3282,G#3,764.0,0.25,70,119.56
3283,E-3,764.0,0.25,70,119.56
3284,B3,764.0,0.25,70,119.56
3285,E-4,764.0,0.25,70,119.56
3286,G#1,765.0,1.0,88,119.56
3287,G#2,765.0,1.0,88,119.56
3288,F6,766.0,1.0,84,119.56
3289,G#6,766.0,1.0,84,119.56
3290,D6,766.0,1.0,84,119.56
3291,G#5,766.0,1.0,84,119.56
3292,F6,767.0,1.0,89,119.56
3293,B-6,767.0,1.0,89,119.56
3294,B-5,767.0,1.0,89,119.56
3295,D6,767.0,1.0,89,119.56
3296,E-3,767.0,19/20,70,119.56
3297,G#3,767.0,19/20,70,119.56
3298,B3,767.0,19/20,70,119.56
3299,E-4,767.0,19/20,70,119.56
3300,E-6,768.0,1.5,94,119.56
3301,G#6,768.0,1.5,94,119.56
3302,B5,768.0,1.5,94,119.56
3303,B6,768.0,1.5,94,119.56
3304,F#3,768.0,729/500,77,119.56
3305,G#4,768.0,729/500,77,119.56
3306,E-4,768.0,729/500,77,119.56
3307,C4,768.0,729/500,77,119.56
3308,G#3,768.0,729/500,77,119.56
3309,F#1,769.0,0.5,100,119.56
3310,F#2,769.0,0.5,100,119.56
3311,G#5,769.5,0.5,88,119.56
3312,G#6,769.5,0.5,88,119.56
3313,F#2,769.5,9/20,80,119.56
3314,G#2,769.5,9/20,80,119.56
3315,G#3,769.5,9/20,80,119.56
3316,E-5,770.0,1.0,96,119.56
3317,E-6,770.0,1.0,96,119.56
3318,F#2,770.0,19/20,80,119.56
3319,G#2,770.0,19/20,80,119.56
3320,G#3,770.0,19/20,80,119.56
3321,E-6,771.0,19/20,87,119.56
3322,B5,771.0,19/20,87,119.56
3323,B6,771.0,19/20,87,119.56
3324,G#6,771.0,19/20,87,119.56
3325,C#3,771.0,0.25,72,119.56
3326,C#4,771.0,0.25,72,119.56
3327,E-3,771.5,0.25,78,119.56
3328,E-4,771.5,0.25,78,119.56
3329,C6,772.0,2.0,97,119.56
3330,C7,772.0,2.0,97,119.56
3331,G#6,772.0,2.0,97,119.56
3332,E-6,772.0,2.0,97,119.56
3333,G#3,772.0,0.25,77,119.56
3334,F3,772.0,0.25,77,119.56
3335,C#4,772.0,0.25,77,119.56
3336,F4,772.0,0.25,77,119.56
3337,F1,773.0,1.0,81,119.56
3338,F2,773.0,1.0,81,119.56
3339,B-6,774.0,19/20,85,119.56
3340,B-5,774.0,19/20,85,119.56
3341,E-6,774.0,19/20,85,119.56
3342,E-6,775.0,19/20,89,119.56
3343,G#6,775.0,19/20,89,119.56
3344,C6,775.0,19/20,89,119.56
3345,C7,775.0,19/20,89,119.56
3346,F3,775.0,0.812,67,119.56
3347,G#3,775.0,0.812,67,119.56
3348,C#4,775.0,0.812,67,119.56
3349,F4,775.0,0.812,67,119.56
3350,F4,775.812,0.188,62,119.56
3351,G#4,775.875,0.125,62,119.56
3352,B4,775.938,0.062,73,119.56
3353,F5,776.0,0.5,73,119.56
3354,F4,776.0,0.5,62,119.56
3355,G#4,776.0,0.5,62,119.56
3356,B4,776.0,0.5,73,119.56
3357,C#6,776.0,1.5,96,119.56
3358,G#6,776.0,1.5,96,119.56
3359,C#7,776.0,1.5,96,119.56
3360,B3,776.5,0.5,62,119.56
3361,B4,776.5,0.5,62,119.56
3362,G#3,777.0,0.5,62,119.56
3363,G#4,777.0,0.5,62,119.56
3364,G#6,777.5,0.5,88,119.56
3365,G#5,777.5,0.5,88,119.56
3366,F3,777.5,0.5,62,119.56
3367,F4,777.5,0.5,62,119.56
3368,F5,778.0,1.0,96,119.56
3369,F6,778.0,1.0,96,119.56
3370,D4,778.0,0.5,64,119.56
3371,D3,778.0,0.5,64,119.56
3372,B2,778.5,0.5,66,119.56
3373,B3,778.5,0.5,66,119.56
3374,C#7,779.0,19/20,88,119.56
3375,G#6,779.0,19/20,88,119.56
3376,C#6,779.0,19/20,88,119.56
3377,G#2,779.0,0.5,72,119.56
3378,G#3,779.0,0.5,72,119.56
3379,F2,779.5,0.375,68,119.56
3380,F3,779.5,0.375,68,119.56
3381,F#2,779.875,0.125,80,119.56
3382,A2,779.875,0.125,80,119.56
3383,C3,779.938,0.062,86,119.56
3384,E-3,779.938,0.062,86,119.56
3385,B6,780.0,2.0,92,119.56
3386,D6,780.0,2.0,92,119.56
3387,G#6,780.0,2.0,92,119.56
3388,D7,780.0,2.0,92,119.56
3389,A3,780.469,0.5,90,119.56
3390,F#2,780.469,0.469,80,119.56
3391,A2,780.469,0.469,80,119.56
3392,C3,780.469,0.469,86,119.56
3393,E-3,780.469,0.469,86,119.56
3394,E-5,780.969,0.25,77,119.56
3395,C5,781.469,0.25,77,119.56
3396,A4,781.969,0.25,77,119.56
3397,G#6,782.0,19/20,93,119.56
3398,B6,782.0,19/20,93,119.56
3399,C7,782.0,19/20,93,119.56
3400,C6,782.0,19/20,93,119.56
3401,F#4,782.469,0.25,85,119.56
3402,E-4,782.969,0.25,67,119.56
3403,B6,783.0,19/20,96,119.56
3404,G#6,783.0,19/20,96,119.56
3405,D6,783.0,19/20,96,119.56
3406,D7,783.0,19/20,96,119.56
3407,C4,783.469,0.25,67,119.56
3408,A3,783.969,0.25,67,119.56
3409,A6,784.0,0.25,102,119.56
3410,F6,784.0,0.25,102,119.56
3411,F7,784.0,0.25,102,119.56
3412,C7,784.0,0.25,102,119.56
3413,F#3,784.469,0.25,67,119.56
3414,E-7,784.5,0.25,90,119.56
3415,E-6,784.5,0.25,90,119.56
3416,E-3,784.969,0.25,59,119.56
3417,C7,785.0,0.25,90,119.56
3418,C6,785.0,0.25,90,119.56
3419,C3,785.469,0.25,58,119.56
3420,A6,785.5,0.25,90,119.56
3421,A5,785.5,0.25,90,119.56
3422,A2,785.969,0.25,57,119.56
3423,F#6,786.0,0.25,106,119.56
3424,F#5,786.0,0.25,106,119.56
3425,F#2,786.469,0.25,64,119.56
3426,E-5,786.5,0.25,85,119.56
3427,E-6,786.5,0.25,85,119.56
3428,E-2,786.969,0.25,55,119.56
3429,C6,787.0,0.25,86,119.56
3430,C5,787.0,0.25,86,119.56
3431,C2,787.469,0.25,55,119.56
3432,A5,787.5,0.25,86,119.56
3433,A4,787.5,0.25,86,119.56
3434,F#1,787.969,0.25,55,119.56
3435,F#4,788.0,0.25,84,119.56
3436,F#5,788.0,0.25,84,119.56
3437,G1,788.469,2.0,75,119.56
3438,G2,788.469,2.0,75,119.56
3439,E-4,788.5,0.25,76,119.56
3440,E-5,788.5,0.25,76,119.56
3441,C5,789.0,0.25,76,119.56
3442,C4,789.0,0.25,76,119.56
3443,A4,789.5,0.25,66,119.56
3444,A3,789.5,0.25,66,119.56
3445,F#3,790.0,0.25,74,119.56
3446,F#4,790.0,0.25,74,119.56
3447,D3,790.469,1.5,68,119.56
3448,D4,790.469,1.5,68,119.56
3449,E-4,790.5,0.25,73,119.56
3450,E-3,790.5,0.25,73,119.56
3451,C4,791.0,0.25,71,119.56
3452,C3,791.0,0.25,71,119.56
3453,F#2,791.5,0.25,69,119.56
3454,F#3,791.5,0.25,69,119.56
3455,E-4,791.969,0.5,58,119.56
3456,E-3,791.969,0.5,58,119.56
3457,C3,792.0,2.0,68,119.56
3458,C4,792.0,249/250,81,119.56
3459,G3,792.0,221/500,68,119.56
3460,G3,792.5,1.5,60,119.56
3461,G1,792.969,0.5,62,119.56
3462,C4,793.0,1.0,65,119.56
3463,C2,793.469,0.5,62,119.56
3464,E-4,793.5,0.5,58,119.56
3465,E-2,793.969,0.5,62,119.56
3466,F#4,794.0,0.5,62,119.56
3467,G2,794.469,0.5,62,119.56
3468,G4,794.5,0.5,64,119.56
3469,C3,794.969,0.5,62,119.56
3470,C5,795.0,0.5,67,119.56
3471,E-3,795.469,0.5,62,119.56
3472,E-5,795.5,0.5,69,119.56
3473,G3,795.969,0.5,62,119.56
3474,F#5,796.0,0.5,72,119.56
3475,C#3,796.469,2.0,75,119.56
3476,C#4,796.469,2.0,75,119.56
3477,G5,796.5,0.5,65,119.56
3478,E-5,797.5,9/20,86,119.56
3479,G5,797.5,9/20,86,119.56
3480,E-6,797.5,9/20,86,119.56
3481,G5,798.0,1.0,90,119.56
3482,E-6,798.0,1.0,90,119.56
3483,E-5,798.0,1.0,90,119.56
3484,D3,798.469,1.5,68,119.56
3485,D4,798.469,1.5,68,119.56
3486,F5,799.0,0.25,85,119.56
3487,D5,799.0,0.25,85,119.56
3488,D6,799.0,0.25,85,119.56
3489,C6,799.5,0.25,85,119.56
3490,C5,799.5,0.25,85,119.56
3491,E-5,799.5,0.25,85,119.56
3492,E4,799.969,0.5,58,119.56
3493,E3,799.969,0.5,58,119.56
3494,G4,800.5,0.5,69,119.56
3495,G1,800.969,0.5,62,119.56
3496,C#5,801.0,0.5,74,119.56
3497,C#2,801.469,0.5,62,119.56
3498,E5,801.5,0.5,66,119.56
3499,E2,801.969,0.5,62,119.56
3500,F#5,802.0,0.5,71,119.56
3501,G2,802.469,0.5,62,119.56
3502,G5,802.5,0.5,73,119.56
3503,C#3,802.969,0.5,62,119.56
3504,C6,803.0,0.5,77,119.56
3505,E3,803.469,0.5,62,119.56
3506,E6,803.5,0.5,79,119.56
3507,G3,803.969,0.5,62,119.56
3508,F#6,804.0,0.5,82,119.56
3509,D3,804.469,2.0,75,119.56
3510,D4,804.469,2.0,75,119.56
3511,G6,804.5,0.5,74,119.56
3512,G5,805.5,9/20,86,119.56
3513,E6,805.5,9/20,86,119.56
3514,E5,805.5,9/20,86,119.56
3515,G5,806.0,1.0,90,119.56
3516,E6,806.0,1.0,90,119.56
3517,E5,806.0,1.0,90,119.56
3518,E3,806.469,1.5,68,119.56
3519,E4,806.469,1.5,68,119.56
3520,D5,807.0,0.25,85,119.56
3521,D6,807.0,0.25,85,119.56
3522,F5,807.0,0.25,85,119.56
3523,E5,807.5,0.25,85,119.56
3524,C#6,807.5,0.25,85,119.56
3525,C#5,807.5,0.25,85,119.56
3526,F4,807.969,0.5,58,119.56
3527,F3,807.969,0.5,58,119.56
3528,F4,808.5,0.5,62,119.56
3529,G#4,809.0,0.5,62,119.56
3530,B2,809.469,1.0,75,119.56
3531,B3,809.469,1.0,75,119.56
3532,F5,809.5,9/20,86,119.56
3533,G#5,809.5,9/20,86,119.56
3534,F6,809.5,9/20,86,119.56
3535,F6,810.0,1.0,90,119.56
3536,G#5,810.0,1.0,90,119.56
3537,F5,810.0,1.0,90,119.56
3538,C3,810.469,1.5,68,119.56
3539,C4,810.469,1.5,68,119.56
3540,E5,811.0,0.25,85,119.56
3541,E6,811.0,0.25,85,119.56
3542,G5,811.0,0.25,85,119.56
3543,D6,811.5,0.25,85,119.56
3544,D5,811.5,0.25,85,119.56
3545,F5,811.5,0.25,85,119.56
3546,D4,811.969,0.5,58,119.56
3547,D3,811.969,0.5,58,119.56
3548,C6,812.0,1.0,88,119.56
3549,F6,812.0,1.0,88,119.56
3550,C7,812.0,1.0,88,119.56
3551,G#6,812.0,1.0,88,119.56
3552,G6,813.0,0.25,82,119.56
3553,E-6,813.0,0.25,82,119.56
3554,G5,813.0,0.25,82,119.56
3555,G2,813.469,1.0,75,119.56
3556,G3,813.469,1.0,75,119.56
3557,D6,813.5,0.25,82,119.56
3558,F5,813.5,0.25,82,119.56
3559,F6,813.5,0.25,82,119.56
3560,C7,814.0,19/20,85,119.56
3561,G#6,814.0,19/20,85,119.56
3562,F6,814.0,19/20,85,119.56
3563,F7,814.0,19/20,85,119.56
3564,A2,814.469,1.5,68,119.56
3565,A3,814.469,1.5,68,119.56
3566,F6,815.0,0.25,80,119.56
3567,G#6,815.0,0.25,80,119.56
3568,C7,815.0,0.25,80,119.56
3569,C6,815.0,0.25,80,119.56
3570,B6,815.5,0.25,80,119.56
3571,F6,815.5,0.25,80,119.56
3572,B5,815.5,0.25,80,119.56
3573,G#6,815.5,0.25,80,119.56
3574,B3,815.969,0.5,58,119.56
3575,B2,815.969,0.5,58,119.56
3576,F6,816.0,19/20,78,119.56
3577,C7,816.0,19/20,78,119.56
3578,F7,816.0,19/20,78,119.56
3579,G#6,816.0,19/20,78,119.56
3580,F2,816.969,0.5,68,119.56
3581,C7,817.0,0.5,83,119.56
3582,E-6,817.0,0.5,83,119.56
3583,E-7,817.0,0.5,83,119.56
3584,F3,817.469,0.5,68,119.56
3585,B2,817.469,0.5,68,119.56
3586,D7,817.5,0.5,79,119.56
3587,B6,817.5,0.5,79,119.56
3588,D6,817.5,0.5,79,119.56
3589,F2,817.969,0.5,69,119.56
3590,C6,818.0,0.5,79,119.56
3591,A6,818.0,0.5,79,119.56
3592,C7,818.0,0.5,79,119.56
3593,G6,818.5,0.5,79,119.56
3594,B6,818.5,0.5,79,119.56
3595,B5,818.5,0.5,79,119.56
3596,B2,818.969,0.5,68,119.56
3597,A5,819.0,0.5,79,119.56
3598,A6,819.0,0.5,79,119.56
3599,F6,819.0,0.5,79,119.56
3600,B3,819.469,0.5,68,119.56
3601,F3,819.469,0.5,68,119.56
3602,F6,819.5,0.5,79,119.56
3603,G#5,819.5,0.5,79,119.56
3604,G#6,819.5,0.5,79,119.56
3605,B2,819.969,0.5,68,119.56
3606,F#5,820.0,0.5,84,119.56
3607,F#6,820.0,0.5,84,119.56
3608,G6,820.5,0.5,80,119.56
3609,G5,820.5,0.5,80,119.56
3610,F2,820.969,0.5,68,119.56
3611,F3,821.469,0.5,68,119.56
3612,B2,821.469,0.5,68,119.56
3613,B5,821.5,19/40,84,119.56
3614,G#5,821.5,19/40,84,119.56
3615,G#6,821.5,19/40,84,119.56
3616,D6,821.5,19/40,84,119.56
3617,F2,821.969,0.5,69,119.56
3618,B5,822.0,1.0,94,119.56
3619,G#5,822.0,1.0,94,119.56
3620,G#6,822.0,1.0,94,119.56
3621,D6,822.0,1.0,94,119.56
3622,B2,822.969,0.5,68,119.56
3623,G5,823.0,0.25,80,119.56
3624,G6,823.0,0.25,80,119.56
3625,B3,823.469,0.5,68,119.56
3626,F3,823.469,0.5,68,119.56
3627,F5,823.5,0.25,76,119.56
3628,F6,823.5,0.25,76,119.56
3629,B2,823.969,0.5,68,119.56
3630,F#4,824.0,0.5,84,119.56
3631,F#5,824.0,0.5,84,119.56
3632,G4,824.5,0.5,80,119.56
3633,G5,824.5,0.5,80,119.56
3634,E2,824.969,0.5,68,119.56
3635,E3,825.469,0.5,68,119.56
3636,F#2,825.469,0.5,68,119.56
3637,D6,825.5,19/40,84,119.56
3638,G#6,825.5,19/40,84,119.56
3639,G#5,825.5,19/40,84,119.56
3640,B5,825.5,19/40,84,119.56
3641,E2,825.969,0.5,69,119.56
3642,G#5,826.0,1.0,94,119.56
3643,G#6,826.0,1.0,94,119.56
3644,D6,826.0,1.0,94,119.56
3645,B5,826.0,1.0,94,119.56
3646,D2,826.969,0.5,68,119.56
3647,G5,827.0,0.25,80,119.56
3648,G6,827.0,0.25,80,119.56
3649,D3,827.469,0.5,68,119.56
3650,F#2,827.469,0.5,68,119.56
3651,F6,827.5,0.25,76,119.56
3652,F5,827.5,0.25,76,119.56
3653,D2,827.969,0.5,68,119.56
3654,G#5,828.0,0.5,84,119.56
3655,G#4,828.0,0.5,84,119.56
3656,B-5,828.5,0.5,80,119.56
3657,B-4,828.5,0.5,80,119.56
3658,C#2,828.969,0.5,68,119.56
3659,C#3,829.469,0.5,68,119.56
3660,F#2,829.469,0.5,68,119.56
3661,F#6,829.5,19/40,85,119.56
3662,B5,829.5,19/40,85,119.56
3663,B6,829.5,19/40,85,119.56
3664,C#2,829.969,0.5,69,119.56
3665,F#6,830.0,1.0,95,119.56
3666,B6,830.0,1.0,95,119.56
3667,B5,830.0,1.0,95,119.56
3668,B1,830.969,0.5,68,119.56
3669,F#6,831.0,0.25,80,119.56
3670,F#5,831.0,0.25,80,119.56
3671,D3,831.469,0.5,68,119.56
3672,F#2,831.469,0.5,68,119.56
3673,D5,831.5,0.25,76,119.56
3674,D6,831.5,0.25,76,119.56
3675,B1,831.969,0.375,68,119.56
3676,B4,832.0,0.5,84,119.56
3677,B5,832.0,0.5,84,119.56
3678,E4,832.375,0.094,76,119.56
3679,G4,832.375,0.094,76,119.56
3680,B4,832.438,0.031,82,119.56
3681,E5,832.438,0.031,82,119.56
3682,E4,832.469,0.969,76,119.56
3683,G4,832.469,0.969,76,119.56
3684,B4,832.469,0.969,82,119.56
3685,E5,832.469,0.969,82,119.56
3686,C#5,832.5,0.5,80,119.56
3687,C#6,832.5,0.5,80,119.56
3688,C#2,833.469,0.5,85,119.56
3689,C#3,833.469,0.5,85,119.56
3690,F#6,833.5,19/40,98,119.56
3691,D7,833.5,19/40,98,119.56
3692,D6,833.5,19/40,98,119.56
3693,D6,834.0,1.0,109,119.56
3694,D7,834.0,1.0,109,119.56
3695,F#6,834.0,1.0,109,119.56
3696,D4,834.375,1.062,76,119.56
3697,G4,834.375,1.062,76,119.56
3698,B4,834.438,1.0,82,119.56
3699,D5,834.438,1.0,82,119.56
3700,B6,835.0,0.25,92,119.56
3701,B5,835.0,0.25,92,119.56
3702,D2,835.469,0.5,85,119.56
3703,D3,835.469,0.5,85,119.56
3704,F#6,835.5,0.25,88,119.56
3705,F#5,835.5,0.25,88,119.56
3706,B6,836.0,1.0,100,119.56
3707,E6,836.0,1.0,100,119.56
3708,G6,836.0,1.0,100,119.56
3709,E7,836.0,1.0,100,119.56
3710,C#4,836.375,0.094,76,119.56
3711,G4,836.375,0.094,76,119.56
3712,B4,836.438,0.031,82,119.56
3713,C#5,836.438,0.031,82,119.56
3714,C#4,836.469,0.969,76,119.56
3715,G4,836.469,0.969,76,119.56
3716,B4,836.469,0.969,82,119.56
3717,C#5,836.469,0.969,82,119.56
3718,E2,837.469,0.5,85,119.56
3719,E3,837.469,0.5,85,119.56
3720,G6,838.0,1.0,100,119.56
3721,D6,838.0,1.0,100,119.56
3722,D7,838.0,1.0,100,119.56
3723,B6,838.0,1.0,100,119.56
3724,B-3,838.375,1.062,76,119.56
3725,C#4,838.375,1.062,76,119.56
3726,F#4,838.438,1.0,82,119.56
3727,B-4,838.438,1.0,82,119.56
3728,F#1,839.469,0.5,85,119.56
3729,F#2,839.469,0.5,85,119.56
3730,B6,840.0,1.0,100,119.56
3731,G6,840.0,1.0,100,119.56
3732,C#6,840.0,1.0,100,119.56
3733,C#7,840.0,1.0,100,119.56
3734,B1,840.469,2.0,86,119.56
3735,B2,840.469,2.0,86,119.56
3736,B-6,842.0,1.0,100,119.56
3737,C#6,842.0,1.0,100,119.56
3738,B-5,842.0,1.0,100,119.56
3739,F#6,842.0,1.0,100,119.56
3740,C#2,842.469,1.5,82,119.56
3741,C#3,842.469,1.5,82,119.56
3742,D3,843.969,9/20,66,119.56
3743,D2,843.969,9/20,66,119.56
3744,D2,844.469,2.0,86,119.56
3745,D3,844.469,2.0,86,119.56
3746,D3,845.0,333/1000,80,119.56
3747,B3,845.333,333/1000,71,119.56
3748,F#4,845.667,333/1000,71,119.56
3749,F#4,846.0,0.5,81,119.56
3750,E2,846.469,1.5,82,119.56
3751,E3,846.469,1.5,82,119.56
3752,F#5,846.5,0.5,73,119.56
3753,B-4,847.0,0.5,79,119.56
3754,B4,847.5,0.5,74,119.56
3755,F#3,847.969,0.5,66,119.56
3756,F#2,847.969,0.5,66,119.56
3757,A2,848.469,1.0,86,119.56
3758,A3,848.469,1.0,86,119.56
3759,F#3,849.0,333/1000,80,119.56
3760,B3,849.333,333/1000,71,119.56
3761,F#4,849.667,333/1000,71,119.56
3762,E4,849.969,9/20,80,119.56
3763,B3,849.969,9/20,80,119.56
3764,F#4,850.0,0.5,81,119.56
3765,G3,850.469,2.0,79,119.56
3766,E4,850.469,1.0,86,119.56
3767,B3,850.469,1.0,86,119.56
3768,F#5,850.5,0.5,73,119.56
3769,C#5,851.0,0.5,79,119.56
3770,E-4,851.469,0.25,82,119.56
3771,F#4,851.469,0.25,82,119.56
3772,D5,851.5,0.5,74,119.56
3773,G4,851.969,0.25,78,119.56
3774,E4,851.969,0.25,78,119.56
3775,G3,852.469,1.0,79,119.56
3776,G4,852.469,1.0,86,119.56
3777,E4,852.469,1.0,86,119.56
3778,B4,853.0,333/1000,80,119.56
3779,B5,853.333,73/250,75,119.56
3780,E2,853.469,0.5,68,119.56
3781,E3,853.469,0.5,68,119.56
3782,B5,853.667,333/1000,75,119.56
3783,B6,854.0,333/1000,80,119.56
3784,B-6,854.333,333/1000,76,119.56
3785,C#2,854.469,0.5,76,119.56
3786,C#3,854.469,0.5,76,119.56
3787,C#7,854.667,333/1000,76,119.56
3788,B6,855.0,333/1000,80,119.56
3789,G6,855.333,333/1000,75,119.56
3790,A1,855.469,0.5,70,119.56
3791,A2,855.469,0.5,70,119.56
3792,E6,855.667,333/1000,74,119.56
3793,B-5,856.0,333/1000,80,119.56
3794,C#6,856.333,333/1000,75,119.56
3795,B-5,856.667,333/1000,76,119.56
3796,A4,857.0,0.25,80,119.56
3797,G5,857.0,333/1000,80,119.56
3798,B-5,857.333,333/1000,76,119.56
3799,D2,857.469,333/1000,68,119.56
3800,B-4,857.5,0.25,75,119.56
3801,G5,857.667,73/250,80,119.56
3802,A2,857.802,333/1000,60,119.56
3803,G5,858.0,333/1000,86,119.56
3804,B-4,858.0,1.0,86,119.56
3805,D3,858.135,73/250,60,119.56
3806,B-5,858.333,333/1000,77,119.56
3807,D3,858.469,0.5,68,119.56
3808,G5,858.667,333/1000,77,119.56
3809,D4,858.969,0.5,62,119.56
3810,B4,859.0,0.25,80,119.56
3811,E5,859.0,333/1000,80,119.56
3812,G5,859.333,333/1000,76,119.56
3813,G#3,859.469,0.5,67,119.56
3814,C#5,859.5,0.25,76,119.56
3815,E5,859.667,333/1000,80,119.56
3816,A3,859.969,0.5,62,119.56
3817,D5,860.0,2.0,84,119.56
3818,D4,860.0,2.0,84,119.56
3819,F#4,860.0,2.0,84,119.56
3820,D2,861.469,333/1000,68,119.56
3821,A2,861.802,333/1000,60,119.56
3822,E4,862.0,1.5,80,119.56
3823,E5,862.0,1.5,80,119.56
3824,A4,862.0,1.5,80,119.56
3825,D3,862.135,73/250,60,119.56
3826,D3,862.469,0.5,68,119.56
3827,D4,862.969,0.5,62,119.56
3828,F3,863.469,0.5,67,119.56
3829,A4,863.5,9/20,63,119.56
3830,F#4,863.5,9/20,63,119.56
3831,F#5,863.5,9/20,63,119.56
3832,F#3,863.969,0.5,62,119.56
3833,F#4,864.0,2.0,84,119.56
3834,A4,864.0,2.0,84,119.56
3835,F#5,864.0,2.0,84,119.56
3836,G#2,865.469,333/1000,68,119.56
3837,G#3,865.802,73/250,63,119.56
3838,G4,866.0,729/500,80,119.56
3839,G5,866.0,729/500,80,119.56
3840,D5,866.0,729/500,80,119.56
3841,G#3,866.135,333/1000,63,119.56
3842,G#4,866.469,333/1000,68,119.56
3843,F#4,866.802,333/1000,64,119.56
3844,G#4,867.135,73/250,64,119.56
3845,G#4,867.469,333/1000,68,119.56
3846,D5,867.5,0.5,63,119.56
3847,A4,867.5,0.5,63,119.56
3848,A5,867.5,0.5,63,119.56
3849,F4,867.802,333/1000,63,119.56
3850,C#6,868.0,1.0,86,119.56
3851,C#5,868.0,1.0,86,119.56
3852,D4,868.135,333/1000,62,119.56
3853,B3,868.469,333/1000,68,119.56
3854,G#3,868.802,333/1000,63,119.56
3855,F3,869.135,333/1000,63,119.56
3856,C#3,869.469,333/1000,68,119.56
3857,D5,869.5,9/20,80,119.56
3858,D6,869.5,9/20,80,119.56
3859,F3,869.802,333/1000,63,119.56
3860,B5,870.0,2.0,79,119.56
3861,D6,870.0,1.0,86,119.56
3862,D5,870.0,1.0,86,119.56
3863,C#3,870.135,333/1000,62,119.56
3864,B2,870.469,333/1000,68,119.56
3865,C#3,870.802,333/1000,62,119.56
3866,E5,871.0,0.25,82,119.56
3867,E6,871.0,0.25,82,119.56
3868,B2,871.135,333/1000,62,119.56
3869,G#2,871.469,333/1000,68,119.56
3870,F6,871.5,0.25,78,119.56
3871,F5,871.5,0.25,78,119.56
3872,B2,871.802,333/1000,61,119.56
3873,D6,872.0,1.0,84,119.56
3874,F5,872.0,1.0,84,119.56
3875,F6,872.0,1.0,84,119.56
3876,G#2,872.135,333/1000,60,119.56
3877,F#2,872.469,2.0,86,119.56
3878,F#3,872.469,2.0,86,119.56
3879,E-6,873.0,0.25,80,119.56
3880,G6,873.0,0.25,80,119.56
3881,G5,873.0,0.25,80,119.56
3882,G#6,873.5,0.25,76,119.56
3883,G#5,873.5,0.25,76,119.56
3884,F6,873.5,0.25,76,119.56
3885,F6,874.0,0.875,84,119.56
3886,G#5,874.0,0.875,84,119.56
3887,G#6,874.0,0.875,84,119.56
3888,G#2,874.469,1.5,82,119.56
3889,G#3,874.469,1.5,82,119.56
3890,C#6,874.906,1.062,83,119.56
3891,F6,874.906,1.062,83,119.56
3892,G#6,874.969,1.0,90,119.56
3893,C#7,874.969,1.0,90,119.56
3894,A3,875.969,9/20,66,119.56
3895,A2,875.969,9/20,66,119.56
3896,A2,876.469,2.0,86,119.56
3897,A3,876.469,2.0,86,119.56
3898,A3,877.0,333/1000,80,119.56
3899,F#4,877.333,333/1000,71,119.56
3900,C#5,877.667,73/250,71,119.56
3901,C#5,878.0,0.5,81,119.56
3902,B2,878.469,1.5,82,119.56
3903,B3,878.469,1.5,82,119.56
3904,C#6,878.5,0.5,73,119.56
3905,F5,879.0,0.5,79,119.56
3906,F#5,879.5,0.5,74,119.56
3907,C#4,879.969,0.5,66,119.56
3908,C#3,879.969,0.5,66,119.56
3909,E3,880.469,1.0,86,119.56
3910,E4,880.469,1.0,86,119.56
3911,C#4,881.0,333/1000,80,119.56
3912,F#4,881.333,333/1000,71,119.56
3913,C#5,881.667,73/250,71,119.56
3914,A4,881.969,9/20,71,119.56
3915,F#4,881.969,9/20,71,119.56
3916,C#5,882.0,0.5,81,119.56
3917,D4,882.469,2.0,71,119.56
3918,A4,882.469,1.0,77,119.56
3919,F#4,882.469,1.0,77,119.56
3920,C#6,882.5,0.5,73,119.56
3921,G#5,883.0,0.5,79,119.56
3922,G4,883.469,0.25,74,119.56
3923,B4,883.469,0.25,74,119.56
3924,A5,883.5,0.5,74,119.56
3925,C5,883.969,0.25,70,119.56
3926,A4,883.969,0.25,70,119.56
3927,C5,884.469,1.0,77,119.56
3928,A4,884.469,1.0,77,119.56
3929,F#4,885.0,333/1000,80,119.56
3930,F#5,885.333,73/250,75,119.56
3931,A2,885.469,0.5,68,119.56
3932,A3,885.469,0.5,68,119.56
3933,F#5,885.667,333/1000,75,119.56
3934,F#6,886.0,333/1000,80,119.56
3935,F6,886.333,333/1000,76,119.56
3936,F#2,886.469,0.5,76,119.56
3937,F#3,886.469,0.5,76,119.56
3938,G6,886.667,333/1000,76,119.56
3939,F#6,887.0,333/1000,80,119.56
3940,C6,887.333,333/1000,75,119.56
3941,D2,887.469,0.5,76,119.56
3942,D3,887.469,0.5,76,119.56
3943,A5,887.667,333/1000,74,119.56
3944,F#5,888.0,333/1000,80,119.56
3945,A5,888.333,333/1000,75,119.56
3946,C2,888.469,57/200,83,119.56
3947,F#5,888.667,333/1000,76,119.56
3948,D2,888.754,36/125,74,119.56
3949,B4,889.0,333/1000,74,119.56
3950,G5,889.0,333/1000,74,119.56
3951,C2,889.042,57/200,83,119.56
3952,D2,889.329,57/200,76,119.56
3953,B5,889.333,333/1000,76,119.56
3954,C2,889.615,57/200,83,119.56
3955,C5,889.667,73/250,72,119.56
3956,C6,889.667,73/250,72,119.56
3957,A5,889.667,73/250,72,119.56
3958,D2,889.902,57/200,77,119.56
3959,C5,890.0,333/1000,80,119.56
3960,A5,890.0,333/1000,80,119.56
3961,C2,890.188,0.281,83,119.56
3962,C6,890.333,333/1000,80,119.56
3963,C4,890.469,1.0,72,119.56
3964,A4,890.469,1.0,72,119.56
3965,C5,890.667,333/1000,76,119.56
3966,A5,890.667,333/1000,76,119.56
3967,B5,891.0,333/1000,82,119.56
3968,D5,891.0,333/1000,82,119.56
3969,D6,891.333,333/1000,88,119.56
3970,D4,891.469,0.25,72,119.56
3971,B4,891.469,0.25,72,119.56
3972,E-5,891.667,333/1000,86,119.56
3973,C6,891.667,333/1000,86,119.56
3974,E-6,891.667,333/1000,86,119.56
3975,E-4,891.969,0.25,66,119.56
3976,C5,891.969,0.25,66,119.56
3977,C2,892.469,57/200,83,119.56
3978,D2,892.754,36/125,74,119.56
3979,C2,893.042,57/200,83,119.56
3980,D2,893.329,57/200,76,119.56
3981,C2,893.615,57/200,83,119.56
3982,D2,893.902,57/200,77,119.56
3983,C6,894.0,1.0,81,119.56
3984,C5,894.0,1.0,81,119.56
3985,A5,894.0,1.0,81,119.56
3986,C2,894.188,0.281,83,119.56
3987,C4,894.469,1.0,72,119.56
3988,A4,894.469,1.0,72,119.56
3989,D6,895.0,0.25,78,119.56
3990,D5,895.0,0.25,78,119.56
3991,B5,895.0,0.25,78,119.56
3992,D4,895.469,0.25,72,119.56
3993,B4,895.469,0.25,72,119.56
3994,E-6,895.5,0.25,71,119.56
3995,E-5,895.5,0.25,71,119.56
3996,C6,895.5,0.25,71,119.56
3997,E-4,895.969,0.25,66,119.56
3998,C5,895.969,0.25,66,119.56
3999,C2,896.469,333/1000,74,119.56
4000,D2,896.802,333/1000,63,119.56
4001,C2,897.135,333/1000,68,119.56
4002,D2,897.469,333/1000,57,119.56
4003,C2,897.802,333/1000,61,119.56
4004,C6,898.0,1.0,81,119.56
4005,C5,898.0,1.0,81,119.56
4006,A5,898.0,1.0,81,119.56
4007,D2,898.135,333/1000,51,119.56
4008,C2,898.469,333/1000,54,119.56
4009,D2,898.802,333/1000,46,119.56
4010,B5,899.0,0.25,78,119.56
4011,D6,899.0,0.25,78,119.56
4012,D5,899.0,0.25,78,119.56
4013,C2,899.135,333/1000,48,119.56
4014,D2,899.469,333/1000,39,119.56
4015,C6,899.5,0.25,71,119.56
4016,E-6,899.5,0.25,71,119.56
4017,E-5,899.5,0.25,71,119.56
4018,C2,899.802,333/1000,41,119.56
4019,D2,900.135,333/1000,34,119.56
4020,C2,900.469,1.0,25,119.56
4021,E6,904.0,1.0,45,119.56
4022,C6,904.0,1.0,45,119.56
4023,E5,904.0,1.0,45,119.56
4024,E5,904.469,1.0,33,119.56
4025,C5,904.469,1.0,33,119.56
4026,E4,904.469,1.0,33,119.56
4027,D6,905.0,0.375,40,119.56
4028,D5,905.0,0.375,40,119.56
4029,B5,905.0,0.375,40,119.56
4030,D5,905.469,0.375,30,119.56
4031,B4,905.469,0.375,30,119.56
4032,D4,905.469,0.375,30,119.56
4033,A5,905.5,0.375,40,119.56
4034,C6,905.5,0.375,40,119.56
4035,C5,905.5,0.375,40,119.56
4036,C5,905.969,0.375,30,119.56
4037,A4,905.969,0.375,30,119.56
4038,C4,905.969,0.375,30,119.56
4039,C6,906.0,1.0,45,119.56
4040,C5,906.0,1.0,45,119.56
4041,A5,906.0,1.0,45,119.56
4042,C5,906.469,1.0,33,119.56
4043,E4,906.469,1.0,33,119.56
4044,C4,906.469,1.0,33,119.56
4045,B4,907.0,0.375,40,119.56
4046,B5,907.0,0.375,40,119.56
4047,G5,907.0,0.375,40,119.56
4048,B4,907.469,0.375,30,119.56
4049,D4,907.469,0.375,30,119.56
4050,B3,907.469,0.375,30,119.56
4051,A5,907.5,0.375,40,119.56
4052,F#5,907.5,0.375,40,119.56
4053,A4,907.5,0.375,40,119.56
4054,A4,907.969,0.375,30,119.56
4055,C4,907.969,0.375,30,119.56
4056,A3,907.969,0.375,30,119.56
4057,F#5,908.0,1.0,45,119.56
4058,A4,908.0,1.0,45,119.56
4059,A5,908.0,1.0,45,119.56
4060,A4,908.469,1.0,33,119.56
4061,C4,908.469,1.0,33,119.56
4062,A3,908.469,1.0,33,119.56
4063,G5,909.0,0.375,42,119.56
4064,B5,909.0,0.375,42,119.56
4065,B4,909.469,0.375,30,119.56
4066,D4,909.469,0.375,30,119.56
4067,B3,909.469,0.375,30,119.56
4068,A5,909.5,0.375,42,119.56
4069,C6,909.5,0.375,42,119.56
4070,C5,909.969,0.375,30,119.56
4071,E4,909.969,0.375,30,119.56
4072,C4,909.969,0.375,30,119.56
4073,C6,910.0,1.0,46,119.56
4074,A5,910.0,1.0,46,119.56
4075,C5,910.469,1.0,33,119.56
4076,E4,910.469,1.0,33,119.56
4077,C4,910.469,1.0,33,119.56
4078,D6,911.0,0.375,42,119.56
4079,B5,911.0,0.375,42,119.56
4080,D5,911.469,0.375,30,119.56
4081,F#4,911.469,0.375,30,119.56
4082,D4,911.469,0.375,30,119.56
4083,E6,911.5,0.375,42,119.56
4084,C6,911.5,0.375,42,119.56
4085,E5,911.969,0.375,30,119.56
4086,G4,911.969,0.375,30,119.56
4087,E4,911.969,0.375,30,119.56
4088,E6,912.0,1.0,56,119.56
4089,G6,912.0,1.0,56,119.56
4090,G5,912.469,1.0,33,119.56
4091,E5,912.469,1.0,33,119.56
4092,G4,912.469,1.0,33,119.56
4093,F#6,913.0,0.375,45,119.56
4094,D6,913.0,0.375,45,119.56
4095,F#5,913.469,0.375,30,119.56
4096,D5,913.469,0.375,30,119.56
4097,F#4,913.469,0.375,30,119.56
4098,C6,913.5,0.375,45,119.56
4099,E6,913.5,0.375,45,119.56
4100,E5,913.969,0.375,30,119.56
4101,C5,913.969,0.375,30,119.56
4102,E4,913.969,0.375,30,119.56
4103,E6,914.0,1.0,50,119.56
4104,C6,914.0,1.0,50,119.56
4105,E5,914.469,1.0,33,119.56
4106,C5,914.469,1.0,33,119.56
4107,E4,914.469,1.0,33,119.56
4108,D6,915.0,0.375,45,119.56
4109,B5,915.0,0.375,45,119.56
4110,D5,915.469,0.375,30,119.56
4111,F#4,915.469,0.375,30,119.56
4112,D4,915.469,0.375,30,119.56
4113,C6,915.5,0.375,45,119.56
4114,A5,915.5,0.375,45,119.56
4115,C5,915.969,0.375,30,119.56
4116,E4,915.969,0.375,30,119.56
4117,C4,915.969,0.375,30,119.56
4118,C6,916.0,1.0,46,119.56
4119,A5,916.0,1.0,46,119.56
4120,C5,916.469,1.0,33,119.56
4121,E4,916.469,1.0,33,119.56
4122,C4,916.469,1.0,33,119.56
4123,B5,917.0,0.375,42,119.56
4124,D6,917.0,0.375,42,119.56
4125,D5,917.469,0.375,30,119.56
4126,F#4,917.469,0.375,30,119.56
4127,D4,917.469,0.375,30,119.56
4128,C6,917.5,0.375,42,119.56
4129,E6,917.5,0.375,42,119.56
4130,E5,917.969,0.375,30,119.56
4131,C5,917.969,0.375,30,119.56
4132,E4,917.969,0.375,30,119.56
4133,C6,918.0,1.0,46,119.56
4134,E6,918.0,1.0,46,119.56
4135,E5,918.469,1.0,33,119.56
4136,C5,918.469,1.0,33,119.56
4137,E4,918.469,1.0,33,119.56
4138,D6,919.0,0.375,45,119.56
4139,F#6,919.0,0.375,45,119.56
4140,F#5,919.469,0.375,30,119.56
4141,A4,919.469,0.375,30,119.56
4142,F#4,919.469,0.375,30,119.56
4143,G6,919.5,0.375,45,119.56
4144,E6,919.5,0.375,45,119.56
4145,G5,919.969,0.375,30,119.56
4146,B4,919.969,0.375,30,119.56
4147,G4,919.969,0.375,30,119.56
4148,G6,920.0,1.0,60,119.56
4149,B6,920.0,1.0,60,119.56
4150,B5,920.469,1.0,33,119.56
4151,G5,920.469,1.0,33,119.56
4152,B4,920.469,1.0,33,119.56
4153,A6,921.0,0.375,49,119.56
4154,F#6,921.0,0.375,49,119.56
4155,A5,921.469,0.375,30,119.56
4156,F#5,921.469,0.375,30,119.56
4157,A4,921.469,0.375,30,119.56
4158,G6,921.5,0.375,49,119.56
4159,E6,921.5,0.375,49,119.56
4160,G5,921.969,0.375,30,119.56
4161,E5,921.969,0.375,30,119.56
4162,G4,921.969,0.375,30,119.56
4163,E6,922.0,1.0,55,119.56
4164,G6,922.0,1.0,55,119.56
4165,G5,922.469,1.0,33,119.56
4166,B4,922.469,1.0,33,119.56
4167,G4,922.469,1.0,33,119.56
4168,F#6,923.0,0.375,49,119.56
4169,D6,923.0,0.375,49,119.56
4170,F#5,923.469,0.375,30,119.56
4171,A4,923.469,0.375,30,119.56
4172,F#4,923.469,0.375,30,119.56
4173,C6,923.5,0.375,49,119.56
4174,E6,923.5,0.375,49,119.56
4175,E5,923.969,0.375,30,119.56
4176,G4,923.969,0.375,30,119.56
4177,E4,923.969,0.375,30,119.56
4178,C6,924.0,1.0,46,119.56
4179,E6,924.0,1.0,46,119.56
4180,G4,924.469,19/20,32,119.56
4181,E5,924.469,19/20,32,119.56
4182,C5,924.469,19/20,32,119.56
4183,E4,924.469,19/20,32,119.56
4184,F#6,925.0,0.375,42,119.56
4185,D6,925.0,0.375,42,119.56
4186,C5,925.469,0.375,29,119.56
4187,E5,925.469,0.375,29,119.56
4188,G4,925.469,0.375,29,119.56
4189,E4,925.469,0.375,29,119.56
4190,G6,925.5,0.375,42,119.56
4191,E6,925.5,0.375,42,119.56
4192,G4,925.969,0.375,29,119.56
4193,E5,925.969,0.375,29,119.56
4194,C5,925.969,0.375,29,119.56
4195,E4,925.969,0.375,29,119.56
4196,E6,926.0,1.0,46,119.56
4197,G6,926.0,1.0,46,119.56
4198,A3,926.469,57/200,47,119.56
4199,B3,926.754,57/200,37,119.56
4200,A6,927.0,0.375,45,119.56
4201,F#6,927.0,0.375,45,119.56
4202,A3,927.042,57/200,41,119.56
4203,B3,927.329,57/200,38,119.56
4204,B6,927.5,0.375,45,119.56
4205,G6,927.5,0.375,45,119.56
4206,A3,927.615,57/200,41,119.56
4207,B3,927.902,57/200,38,119.56
4208,B5,928.0,19/20,57,119.56
4209,B6,928.0,19/20,57,119.56
4210,G6,928.0,19/20,57,119.56
4211,C6,928.0,19/20,57,119.56
4212,A3,928.188,0.281,41,119.56
4213,C6,929.0,0.375,48,119.56
4214,A6,929.0,0.375,48,119.56
4215,A5,929.0,0.375,48,119.56
4216,G6,929.5,0.375,48,119.56
4217,C6,929.5,0.375,48,119.56
4218,G5,929.5,0.375,48,119.56
4219,A2,930.469,57/200,42,119.56
4220,B2,930.754,57/200,33,119.56
4221,A2,931.042,57/200,36,119.56
4222,B2,931.329,57/200,34,119.56
4223,A2,931.615,57/200,36,119.56
4224,B2,931.902,57/200,34,119.56
4225,B4,932.0,19/20,57,119.56
4226,G5,932.0,19/20,57,119.56
4227,C5,932.0,19/20,57,119.56
4228,E5,932.0,19/20,57,119.56
4229,A2,932.188,0.281,36,119.56
4230,G4,932.469,19/20,32,119.56
4231,E5,932.469,19/20,32,119.56
4232,C5,932.469,19/20,32,119.56
4233,E4,932.469,19/20,32,119.56
4234,A4,933.0,0.375,42,119.56
4235,F#5,933.0,0.375,42,119.56
4236,C5,933.0,0.375,42,119.56
4237,C5,933.469,0.375,29,119.56
4238,E5,933.469,0.375,29,119.56
4239,G4,933.469,0.375,29,119.56
4240,E4,933.469,0.375,29,119.56
4241,A4,933.5,0.375,42,119.56
4242,E5,933.5,0.375,42,119.56
4243,G4,933.5,0.375,42,119.56
4244,C5,933.5,0.375,42,119.56
4245,G4,933.969,0.375,29,119.56
4246,E5,933.969,0.375,29,119.56
4247,C5,933.969,0.375,29,119.56
4248,E4,933.969,0.375,29,119.56
4249,A3,934.469,57/200,47,119.56
4250,B3,934.754,57/200,37,119.56
4251,A3,935.042,57/200,41,119.56
4252,B3,935.329,57/200,38,119.56
4253,A3,935.615,57/200,41,119.56
4254,B3,935.902,57/200,38,119.56
4255,B6,936.0,19/20,57,119.56
4256,B5,936.0,19/20,57,119.56
4257,G6,936.0,19/20,57,119.56
4258,C6,936.0,19/20,57,119.56
4259,A3,936.188,0.281,41,119.56
4260,A6,937.0,0.375,48,119.56
4261,A5,937.0,0.375,48,119.56
4262,C6,937.0,0.375,48,119.56
4263,C6,937.5,0.375,48,119.56
4264,G6,937.5,0.375,48,119.56
4265,G5,937.5,0.375,48,119.56
4266,A2,938.469,57/200,42,119.56
4267,B2,938.754,57/200,33,119.56
4268,A2,939.042,57/200,36,119.56
4269,B2,939.329,57/200,34,119.56
4270,A2,939.615,57/200,36,119.56
4271,B2,939.902,57/200,34,119.56
4272,G5,940.0,19/20,57,119.56
4273,C5,940.0,19/20,57,119.56
4274,B4,940.0,19/20,57,119.56
4275,E5,940.0,19/20,57,119.56
4276,A2,940.188,0.281,36,119.56
4277,D2,940.469,333/1000,39,119.56
4278,A2,940.469,4.0,36,119.56
4279,E2,940.802,333/1000,33,119.56
4280,A4,941.0,0.375,42,119.56
4281,F#5,941.0,0.375,42,119.56
4282,C5,941.0,0.375,42,119.56
4283,D2,941.135,333/1000,39,119.56
4284,E2,941.469,333/1000,32,119.56
4285,A4,941.5,0.375,42,119.56
4286,G4,941.5,0.375,42,119.56
4287,E5,941.5,0.375,42,119.56
4288,C5,941.5,0.375,42,119.56
4289,D2,941.802,333/1000,39,119.56
4290,E2,942.135,333/1000,33,119.56
4291,D2,942.469,333/1000,39,119.56
4292,E2,942.802,333/1000,33,119.56
4293,D2,943.135,333/1000,39,119.56
4294,E2,943.469,333/1000,33,119.56
4295,D2,943.802,333/1000,39,119.56
4296,C7,944.0,19/20,57,119.56
4297,E7,944.0,19/20,57,119.56
4298,G6,944.0,19/20,57,119.56
4299,A6,944.0,19/20,57,119.56
4300,E2,944.135,333/1000,34,119.56
4301,D2,944.469,333/1000,39,119.56
4302,A2,944.469,4.0,36,119.56
4303,E2,944.802,333/1000,33,119.56
4304,C7,945.0,0.375,48,119.56
4305,A6,945.0,0.375,48,119.56
4306,G6,945.0,0.375,48,119.56
4307,D2,945.135,333/1000,39,119.56
4308,E2,945.469,333/1000,32,119.56
4309,E6,945.5,0.375,48,119.56
4310,G6,945.5,0.375,48,119.56
4311,A6,945.5,0.375,48,119.56
4312,D2,945.802,333/1000,39,119.56
4313,G6,946.0,19/20,58,119.56
4314,E6,946.0,19/20,58,119.56
4315,C6,946.0,19/20,58,119.56
4316,E2,946.135,333/1000,33,119.56
4317,D2,946.469,333/1000,39,119.56
4318,E2,946.802,333/1000,33,119.56
4319,E6,947.0,0.375,48,119.56
4320,C6,947.0,0.375,48,119.56
4321,A5,947.0,0.375,48,119.56
4322,D2,947.135,333/1000,39,119.56
4323,E2,947.469,333/1000,33,119.56
4324,G5,947.5,0.375,48,119.56
4325,A5,947.5,0.375,48,119.56
4326,C6,947.5,0.375,48,119.56
4327,D2,947.802,333/1000,39,119.56
4328,A5,948.0,19/20,58,119.56
4329,G5,948.0,19/20,58,119.56
4330,E5,948.0,19/20,58,119.56
4331,E2,948.135,333/1000,34,119.56
4332,D2,948.469,333/1000,39,119.56
4333,A2,948.469,4.0,36,119.56
4334,E2,948.802,333/1000,33,119.56
4335,G5,949.0,0.375,48,119.56
4336,C5,949.0,0.375,48,119.56
4337,E5,949.0,0.375,48,119.56
4338,D2,949.135,333/1000,39,119.56
4339,E2,949.469,333/1000,32,119.56
4340,C5,949.5,0.375,48,119.56
4341,E5,949.5,0.375,48,119.56
4342,A4,949.5,0.375,48,119.56
4343,D2,949.802,333/1000,39,119.56
4344,C5,950.0,19/20,58,119.56
4345,A4,950.0,19/20,58,119.56
4346,G4,950.0,19/20,58,119.56
4347,E2,950.135,333/1000,33,119.56
4348,C2,950.469,333/1000,39,119.56
4349,D2,950.802,333/1000,33,119.56
4350,A4,951.0,0.375,48,119.56
4351,E4,951.0,0.375,48,119.56
4352,G4,951.0,0.375,48,119.56
4353,C2,951.135,333/1000,39,119.56
4354,D2,951.469,333/1000,33,119.56
4355,E4,951.5,0.375,48,119.56
4356,G4,951.5,0.375,48,119.56
4357,C4,951.5,0.375,48,119.56
4358,C2,951.802,333/1000,39,119.56
4359,E4,952.0,4.0,53,119.56
4360,G3,952.0,4.0,53,119.56
4361,A3,952.0,4.0,53,119.56
4362,C4,952.0,4.0,53,119.56
4363,D2,952.135,333/1000,34,119.56
4364,C2,952.469,333/1000,39,119.56
4365,D2,952.802,333/1000,32,119.56
4366,C2,953.135,333/1000,38,119.56
4367,D2,953.469,333/1000,32,119.56
4368,C2,953.802,333/1000,37,119.56
4369,D2,954.135,333/1000,31,119.56
4370,A1,954.469,333/1000,36,119.56
4371,D2,954.802,333/1000,30,119.56
4372,A1,955.135,333/1000,35,119.56
4373,D2,955.469,333/1000,29,119.56
4374,A1,955.802,333/1000,34,119.56
4375,D2,956.135,333/1000,29,119.56
4376,G1,956.469,0.5,45,119.56
4377,B3,956.969,0.5,37,119.56
4378,E4,957.469,0.5,40,119.56
4379,D4,957.969,0.5,36,119.56
4380,A4,958.469,0.5,40,119.56
4381,G4,958.969,0.5,37,119.56
4382,D4,959.469,0.5,40,119.56
4383,B3,959.969,0.5,37,119.56
4384,F#3,960.0,4.0,53,119.56
4385,E4,960.0,2.0,53,119.56
4386,A3,960.0,4.0,53,119.56
4387,C4,960.0,4.0,53,119.56
4388,E3,960.969,0.5,36,119.56
4389,B3,961.469,0.5,40,119.56
4390,A3,961.969,0.5,38,119.56
4391,D4,962.0,2.0,49,119.56
4392,F#4,962.469,0.5,40,119.56
4393,E4,962.969,0.5,37,119.56
4394,C#4,963.469,0.5,40,119.56
4395,G3,963.969,0.5,37,119.56
4396,B4,964.0,2.0,55,119.56
4397,D3,964.969,0.5,36,119.56
4398,E4,965.469,0.5,40,119.56
4399,D4,965.969,0.5,38,119.56
4400,C5,966.0,1.5,54,119.56
4401,C5,966.469,0.5,40,119.56
4402,A4,966.969,0.5,37,119.56
4403,F#4,967.469,0.5,40,119.56
4404,D5,967.5,9/20,43,119.56
4405,D4,967.969,0.5,37,119.56
4406,D5,968.0,2.0,53,119.56
4407,G5,968.0,2.0,53,119.56
4408,G3,968.969,0.5,36,119.56
4409,E4,969.469,0.5,40,119.56
4410,D4,969.969,0.5,38,119.56
4411,C#5,970.0,1.0,45,119.56
4412,A5,970.0,1.5,58,119.56
4413,A4,970.469,0.5,40,119.56
4414,G4,970.969,0.5,37,119.56
4415,D4,971.469,0.5,40,119.56
4416,E5,971.5,9/20,39,119.56
4417,B5,971.5,9/20,39,119.56
4418,B3,971.969,0.5,37,119.56
4419,G5,972.0,2.0,54,119.56
4420,B5,972.0,2.0,54,119.56
4421,E2,972.969,0.5,40,119.56
4422,F#3,973.469,0.5,44,119.56
4423,E3,973.969,0.5,39,119.56
4424,A5,974.0,1.0,47,119.56
4425,F#5,974.0,1.0,47,119.56
4426,C4,974.469,0.5,44,119.56
4427,B3,974.969,0.5,40,119.56
4428,G3,975.469,0.5,44,119.56
4429,C5,975.5,0.5,43,119.56
4430,C6,975.5,0.5,43,119.56
4431,E3,975.969,0.5,40,119.56
4432,B-4,976.0,2.0,56,119.56
4433,E6,976.0,2.0,56,119.56
4434,C#3,976.969,0.5,39,119.56
4435,G3,977.469,0.5,44,119.56
4436,F#3,977.969,0.5,41,119.56
4437,D6,978.0,1.0,47,119.56
4438,B4,978.0,1.0,47,119.56
4439,E4,978.469,0.5,44,119.56
4440,C#4,978.969,0.5,40,119.56
4441,B-3,979.469,0.5,44,119.56
4442,F#3,979.969,0.5,40,119.56
4443,G4,980.0,2.0,60,119.56
4444,F#2,980.969,0.5,39,119.56
4445,D4,981.469,0.5,44,119.56
4446,C#4,981.969,0.5,41,119.56
4447,A4,982.0,1.5,59,119.56
4448,F#4,982.469,0.5,44,119.56
4449,E4,982.969,0.5,40,119.56
4450,C#4,983.469,0.5,44,119.56
4451,B4,983.5,9/20,47,119.56
4452,F#3,983.969,0.5,40,119.56
4453,B4,984.0,2.0,58,119.56
4454,E5,984.0,2.0,58,119.56
4455,B2,984.969,0.5,38,119.56
4456,C#4,985.469,0.5,42,119.56
4457,B3,985.969,0.5,39,119.56
4458,B-4,986.0,1.0,49,119.56
4459,F#5,986.0,1.5,63,119.56
4460,G3,986.469,0.5,41,119.56
4461,F#3,986.969,0.5,31,119.56
4462,D3,987.469,0.5,34,119.56
4463,E5,987.5,9/20,42,119.56
4464,G5,987.5,9/20,42,119.56
4465,B2,987.969,0.5,26,119.56
4466,G5,988.0,2.0,60,119.56
4467,B5,988.0,2.0,60,119.56
4468,A2,988.469,0.5,30,119.56
4469,F#3,988.5,1.938,30,119.56
4470,D4,988.5,1.938,30,119.56
4471,B-5,990.0,1.0,52,119.56
4472,F#5,990.0,1.0,52,119.56
4473,A3,990.469,1.5,26,119.56
4474,E4,990.469,1.5,26,119.56
4475,C#5,991.5,0.5,46,119.56
4476,E6,991.5,0.5,46,119.56
4477,D4,991.969,9/20,21,119.56
4478,F#4,991.969,9/20,21,119.56
4479,E5,992.0,2.0,60,119.56
4480,C#6,992.0,2.0,60,119.56
4481,D4,992.469,2.0,30,119.56
4482,F#4,992.469,2.0,30,119.56
4483,D6,994.0,1.0,48,119.56
4484,D5,994.0,1.0,48,119.56
4485,A3,994.469,1.0,26,119.56
4486,E4,994.469,1.0,26,119.56
4487,E4,995.969,0.5,26,119.56
4488,A3,995.969,0.5,26,119.56
4489,A4,997.0,333/1000,35,119.56
4490,A5,997.333,73/250,30,119.56
4491,A1,997.469,333/1000,29,119.56
4492,A5,997.667,333/1000,30,119.56
4493,A2,997.802,73/250,25,119.56
4494,A6,998.0,333/1000,39,119.56
4495,A2,998.135,333/1000,25,119.56
4496,G#6,998.333,333/1000,35,119.56
4497,A3,998.469,333/1000,33,119.56
4498,B6,998.667,333/1000,35,119.56
4499,G#3,998.802,333/1000,29,119.56
4500,A6,999.0,333/1000,39,119.56
4501,B3,999.135,333/1000,29,119.56
4502,F#6,999.333,333/1000,31,119.56
4503,A3,999.469,333/1000,33,119.56
4504,A5,999.667,333/1000,31,119.56
4505,F#3,999.802,333/1000,26,119.56
4506,A2,1000.135,333/1000,26,119.56
4507,A4,1001.0,333/1000,35,119.56
4508,A5,1001.333,73/250,30,119.56
4509,A1,1001.469,333/1000,29,119.56
4510,A5,1001.667,333/1000,30,119.56
4511,A2,1001.802,73/250,25,119.56
4512,A6,1002.0,333/1000,39,119.56
4513,A2,1002.135,333/1000,25,119.56
4514,G#6,1002.333,333/1000,35,119.56
4515,A3,1002.469,333/1000,33,119.56
4516,B6,1002.667,333/1000,35,119.56
4517,G#3,1002.802,333/1000,29,119.56
4518,A6,1003.0,333/1000,39,119.56
4519,B3,1003.135,333/1000,29,119.56
4520,F#6,1003.333,333/1000,31,119.56
4521,A3,1003.469,333/1000,33,119.56
4522,A5,1003.667,333/1000,31,119.56
4523,F#3,1003.802,333/1000,26,119.56
4524,A4,1004.0,1.969,30,119.56
4525,F#4,1004.0,1.969,30,119.56
4526,A2,1004.135,333/1000,26,119.56
4527,A2,1004.469,0.5,30,119.56
4528,F#3,1004.5,1.938,30,119.56
4529,D4,1004.5,1.938,30,119.56
4530,D4,1006.0,1.5,26,119.56
4531,F#4,1006.0,1.5,26,119.56
4532,A3,1006.469,1.5,26,119.56
4533,E4,1006.469,1.5,26,119.56
4534,A3,1007.5,0.5,21,119.56
4535,E4,1007.5,0.5,21,119.56
4536,D4,1007.969,9/20,21,119.56
4537,F#4,1007.969,9/20,21,119.56
4538,F#4,1008.0,2.0,30,119.56
4539,A4,1008.0,2.0,30,119.56
4540,D4,1008.469,2.0,30,119.56
4541,F#4,1008.469,2.0,30,119.56
4542,D4,1010.0,1.5,26,119.56
4543,F#4,1010.0,1.5,26,119.56
4544,A3,1010.469,1.0,26,119.56
4545,E4,1010.469,1.0,26,119.56
4546,A3,1011.5,0.5,21,119.56
4547,E4,1011.5,0.5,21,119.56
4548,E4,1011.969,0.5,26,119.56
4549,A3,1011.969,0.5,26,119.56
4550,B4,1012.469,1.969,33,119.56
4551,G4,1012.469,1.969,33,119.56
4552,A4,1013.0,333/1000,35,119.56
4553,A5,1013.333,73/250,30,119.56
4554,A5,1013.667,333/1000,30,119.56
4555,A6,1014.0,333/1000,39,119.56
4556,G#6,1014.333,333/1000,35,119.56
4557,E4,1014.469,1.5,28,119.56
4558,G4,1014.469,1.5,28,119.56
4559,B6,1014.667,333/1000,35,119.56
4560,A6,1015.0,333/1000,39,119.56
4561,F#6,1015.333,333/1000,31,119.56
4562,A5,1015.667,333/1000,31,119.56
4563,C#4,1015.969,0.5,22,119.56
4564,E4,1015.969,0.5,22,119.56
4565,B4,1016.469,1.969,33,119.56
4566,G4,1016.469,1.969,33,119.56
4567,A4,1017.0,333/1000,35,119.56
4568,A5,1017.333,73/250,30,119.56
4569,A5,1017.667,333/1000,30,119.56
4570,A6,1018.0,333/1000,39,119.56
4571,G#6,1018.333,333/1000,35,119.56
4572,E4,1018.469,1.5,28,119.56
4573,G4,1018.469,1.5,28,119.56
4574,B6,1018.667,333/1000,35,119.56
4575,A6,1019.0,333/1000,39,119.56
4576,E6,1019.333,333/1000,31,119.56
4577,A5,1019.667,333/1000,31,119.56
4578,C#4,1019.969,0.5,22,119.56
4579,E4,1019.969,0.5,22,119.56
4580,B-4,1020.469,1.969,33,119.56
4581,G4,1020.469,1.969,33,119.56
4582,C#5,1021.0,333/1000,38,119.56
4583,C#6,1021.333,73/250,33,119.56
4584,C#6,1021.667,333/1000,33,119.56
4585,B6,1022.0,333/1000,42,119.56
4586,B-6,1022.333,333/1000,38,119.56
4587,E4,1022.469,1.5,28,119.56
4588,G4,1022.469,1.5,28,119.56
4589,C#7,1022.667,333/1000,38,119.56
4590,B6,1023.0,333/1000,42,119.56
4591,G6,1023.333,333/1000,34,119.56
4592,E6,1023.667,333/1000,34,119.56
4593,C#4,1023.969,0.5,22,119.56
4594,E4,1023.969,0.5,22,119.56
4595,B-4,1024.469,983/1000,39,119.56
4596,G4,1024.469,983/1000,39,119.56
4597,C#5,1025.0,333/1000,38,119.56
4598,C#6,1025.333,73/250,33,119.56
4599,E4,1025.469,667/1000,34,119.56
4600,G4,1025.469,667/1000,34,119.56
4601,C#6,1025.667,333/1000,33,119.56
4602,B6,1026.0,333/1000,42,119.56
4603,C#4,1026.135,333/1000,28,119.56
4604,E4,1026.135,333/1000,28,119.56
4605,B-6,1026.333,333/1000,38,119.56
4606,B-4,1026.469,979/1000,41,119.56
4607,G4,1026.469,979/1000,41,119.56
4608,C#7,1026.667,333/1000,38,119.56
4609,B6,1027.0,333/1000,42,119.56
4610,G6,1027.333,333/1000,34,119.56
4611,E4,1027.469,667/1000,38,119.56
4612,G4,1027.469,667/1000,38,119.56
4613,E6,1027.667,333/1000,34,119.56
4614,C#4,1028.135,333/1000,30,119.56
4615,E4,1028.135,333/1000,30,119.56
4616,G4,1028.469,333/1000,57,119.56
4617,B-4,1028.469,333/1000,57,119.56
4618,E4,1028.802,333/1000,49,119.56
4619,C#5,1029.0,333/1000,38,119.56
4620,C#4,1029.135,333/1000,52,119.56
4621,C#6,1029.333,73/250,33,119.56
4622,C#5,1029.469,333/1000,62,119.56
4623,C#6,1029.667,333/1000,33,119.56
4624,B-4,1029.802,333/1000,54,119.56
4625,B-6,1030.0,333/1000,42,119.56
4626,G4,1030.135,333/1000,54,119.56
4627,A6,1030.333,333/1000,38,119.56
4628,E5,1030.469,333/1000,69,119.56
4629,C7,1030.667,333/1000,38,119.56
4630,C#5,1030.802,333/1000,62,119.56
4631,B-6,1031.0,333/1000,42,119.56
4632,B-4,1031.135,333/1000,63,119.56
4633,G6,1031.333,333/1000,34,119.56
4634,G5,1031.469,333/1000,76,119.56
4635,E6,1031.667,333/1000,34,119.56
4636,E5,1031.802,333/1000,64,119.56
4637,C#5,1032.135,333/1000,66,119.56
4638,C#6,1032.333,333/1000,45,119.56
4639,C7,1032.667,333/1000,45,119.56
4640,B-6,1033.0,333/1000,51,119.56
4641,G6,1033.333,333/1000,42,119.56
4642,E4,1033.469,0.25,64,119.56
4643,E3,1033.469,0.25,64,119.56
4644,E6,1033.667,333/1000,42,119.56
4645,C#4,1033.969,0.25,56,119.56
4646,C#3,1033.969,0.25,56,119.56
4647,C#6,1034.333,333/1000,48,119.56
4648,B-2,1034.469,0.25,74,119.56
4649,B-3,1034.469,0.25,74,119.56
4650,C7,1034.667,333/1000,49,119.56
4651,G2,1034.969,0.25,70,119.56
4652,G3,1034.969,0.25,70,119.56
4653,B-6,1035.0,333/1000,55,119.56
4654,G6,1035.333,333/1000,49,119.56
4655,E2,1035.469,0.25,86,119.56
4656,E3,1035.469,0.25,86,119.56
4657,E6,1035.667,333/1000,49,119.56
4658,C#2,1035.969,0.25,78,119.56
4659,C#3,1035.969,0.25,78,119.56
4660,B-6,1036.0,333/1000,65,119.56
4661,G6,1036.333,333/1000,53,119.56
4662,C3,1036.469,1.5,81,119.56
4663,G2,1036.469,1.5,81,119.56
4664,C2,1036.469,1.5,81,119.56
4665,E6,1036.667,333/1000,56,119.56
4666,B-6,1037.0,333/1000,70,119.56
4667,G6,1037.333,333/1000,60,119.56
4668,E6,1037.667,333/1000,61,119.56
4669,C2,1037.969,9/20,70,119.56
4670,G2,1037.969,9/20,70,119.56
4671,C3,1037.969,9/20,70,119.56
4672,B-6,1038.0,333/1000,79,119.56
4673,G6,1038.333,333/1000,65,119.56
4674,C2,1038.469,1.0,70,119.56
4675,G2,1038.469,1.0,70,119.56
4676,C3,1038.469,1.0,70,119.56
4677,E6,1038.667,333/1000,68,119.56
4678,B-6,1039.0,333/1000,86,119.56
4679,G6,1039.333,333/1000,72,119.56
4680,D2,1039.469,0.25,65,119.56
4681,D3,1039.469,0.25,65,119.56
4682,E6,1039.667,333/1000,74,119.56
4683,E2,1039.969,0.25,70,119.56
4684,C3,1039.969,0.25,70,119.56
4685,E3,1039.969,0.25,70,119.56
4686,B-5,1040.0,333/1000,84,119.56
4687,B-6,1040.0,333/1000,84,119.56
4688,G6,1040.333,333/1000,79,119.56
4689,F2,1040.469,0.25,71,119.56
4690,C3,1040.469,0.25,71,119.56
4691,F3,1040.469,0.25,71,119.56
4692,E6,1040.667,333/1000,80,119.56
4693,B-5,1041.0,333/1000,87,119.56
4694,B-6,1041.0,333/1000,87,119.56
4695,G6,1041.333,333/1000,82,119.56
4696,E2,1041.469,0.25,66,119.56
4697,C3,1041.469,0.25,66,119.56
4698,E3,1041.469,0.25,66,119.56
4699,E6,1041.667,333/1000,83,119.56
4700,B-5,1042.0,333/1000,90,119.56
4701,B-6,1042.0,333/1000,90,119.56
4702,G6,1042.333,333/1000,86,119.56
4703,E6,1042.667,333/1000,86,119.56
4704,B-5,1043.0,333/1000,93,119.56
4705,B-6,1043.0,333/1000,93,119.56
4706,G6,1043.333,333/1000,88,119.56
4707,E6,1043.667,333/1000,89,119.56
4708,C2,1043.969,9/20,70,119.56
4709,G2,1043.969,9/20,70,119.56
4710,C3,1043.969,9/20,70,119.56
4711,B-5,1044.0,1.5,96,119.56
4712,E6,1044.0,1.5,96,119.56
4713,G6,1044.0,1.5,96,119.56
4714,B-6,1044.0,1.5,96,119.56
4715,C2,1044.469,1.0,70,119.56
4716,G2,1044.469,1.0,70,119.56
4717,C3,1044.469,1.0,70,119.56
4718,D2,1045.469,0.25,65,119.56
4719,D3,1045.469,0.25,65,119.56
4720,B-3,1045.5,9/20,74,119.56
4721,E4,1045.5,9/20,74,119.56
4722,E3,1045.5,9/20,74,119.56
4723,C4,1045.5,9/20,74,119.56
4724,E2,1045.969,0.25,70,119.56
4725,C3,1045.969,0.25,70,119.56
4726,E3,1045.969,0.25,70,119.56
4727,B-3,1046.0,1.0,78,119.56
4728,E3,1046.0,1.0,78,119.56
4729,E4,1046.0,1.0,78,119.56
4730,C4,1046.0,1.0,78,119.56
4731,F2,1046.469,0.5,71,119.56
4732,C3,1046.469,0.5,71,119.56
4733,F3,1046.469,0.5,71,119.56
4734,F4,1047.0,0.25,76,119.56
4735,F3,1047.0,0.25,76,119.56
4736,C4,1047.0,0.25,76,119.56
4737,C3,1047.469,0.25,63,119.56
4738,E2,1047.469,0.25,63,119.56
4739,E3,1047.469,0.25,63,119.56
4740,G3,1047.5,0.25,80,119.56
4741,C4,1047.5,0.25,80,119.56
4742,G4,1047.5,0.25,80,119.56
4743,F2,1047.969,0.25,70,119.56
4744,C3,1047.969,0.25,70,119.56
4745,F3,1047.969,0.25,70,119.56
4746,A4,1048.0,0.25,82,119.56
4747,C4,1048.0,0.25,82,119.56
4748,A3,1048.0,0.25,82,119.56
4749,G2,1048.469,0.25,71,119.56
4750,C3,1048.469,0.25,71,119.56
4751,G3,1048.469,0.25,71,119.56
4752,C4,1049.0,0.25,77,119.56
4753,G3,1049.0,0.25,77,119.56
4754,G4,1049.0,0.25,77,119.56
4755,F2,1049.469,0.25,66,119.56
4756,C3,1049.469,0.25,66,119.56
4757,F3,1049.469,0.25,66,119.56
4758,C3,1051.469,0.25,53,119.56
4759,E2,1051.469,0.25,53,119.56
4760,E3,1051.469,0.25,53,119.56
4761,B-3,1051.5,9/20,74,119.56
4762,C4,1051.5,9/20,74,119.56
4763,E3,1051.5,9/20,74,119.56
4764,E4,1051.5,9/20,74,119.56
4765,F2,1051.969,0.25,58,119.56
4766,C3,1051.969,0.25,58,119.56
4767,F3,1051.969,0.25,58,119.56
4768,B-3,1052.0,1.0,82,119.56
4769,E4,1052.0,1.0,82,119.56
4770,E3,1052.0,1.0,82,119.56
4771,C4,1052.0,1.0,82,119.56
4772,D2,1052.469,0.25,62,119.56
4773,D3,1052.469,0.25,62,119.56
4774,F4,1053.0,0.25,83,119.56
4775,C4,1053.0,0.25,83,119.56
4776,F3,1053.0,0.25,83,119.56
4777,E2,1053.469,0.25,62,119.56
4778,E3,1053.469,0.25,62,119.56
4779,C4,1053.5,0.25,86,119.56
4780,G3,1053.5,0.25,86,119.56
4781,G4,1053.5,0.25,86,119.56
4782,C4,1054.0,1.0,89,119.56
4783,A3,1054.0,1.0,89,119.56
4784,A4,1054.0,1.0,89,119.56
4785,B1,1054.469,0.25,64,119.56
4786,B2,1054.469,0.25,64,119.56
4787,G3,1055.0,0.25,86,119.56
4788,G4,1055.0,0.25,86,119.56
4789,C4,1055.0,0.25,86,119.56
4790,C2,1055.469,0.25,68,119.56
4791,C3,1055.469,0.25,68,119.56
4792,C4,1055.5,0.25,89,119.56
4793,A3,1055.5,0.25,89,119.56
4794,A4,1055.5,0.25,89,119.56
4795,B-3,1056.0,0.25,91,119.56
4796,B-4,1056.0,0.25,91,119.56
4797,C4,1056.0,0.25,91,119.56
4798,A1,1056.469,2.0,71,119.56
4799,D2,1056.469,2.0,71,119.56
4800,A2,1056.469,2.0,71,119.56
4801,A3,1057.0,0.25,86,119.56
4802,A4,1057.0,0.25,86,119.56
4803,C4,1057.0,0.25,86,119.56
4804,G1,1058.469,1.0,67,119.56
4805,D2,1058.469,1.0,67,119.56
4806,G2,1058.469,1.0,67,119.56
4807,G4,1059.0,0.25,64,119.56
4808,C4,1059.0,0.25,64,119.56
4809,G3,1059.0,0.25,64,119.56
4810,D4,1059.469,0.25,70,119.56
4811,C4,1059.5,0.25,67,119.56
4812,A3,1059.5,0.25,67,119.56
4813,A4,1059.5,0.25,67,119.56
4814,F#4,1059.969,0.25,63,119.56
4815,G4,1060.0,0.25,69,119.56
4816,B3,1060.0,0.25,69,119.56
4817,B4,1060.0,0.25,69,119.56
4818,F4,1060.0,0.25,69,119.56
4819,G4,1060.469,0.25,69,119.56
4820,G4,1061.0,0.25,71,119.56
4821,C4,1061.0,0.25,71,119.56
4822,E4,1061.0,0.25,71,119.56
4823,C5,1061.0,0.25,71,119.56
4824,D3,1061.469,0.25,56,119.56
4825,F#3,1061.969,0.25,50,119.56
4826,D5,1062.0,0.25,73,119.56
4827,G4,1062.0,0.25,73,119.56
4828,D4,1062.0,0.25,73,119.56
4829,G3,1062.469,0.25,55,119.56
4830,E4,1063.0,0.25,75,119.56
4831,E5,1063.0,0.25,75,119.56
4832,G4,1063.0,0.25,75,119.56
4833,D2,1063.469,0.25,56,119.56
4834,F#2,1063.969,0.25,50,119.56
4835,F#5,1064.0,167/1000,78,119.56
4836,D5,1064.0,2.0,72,119.56
4837,C5,1064.0,2.0,72,119.56
4838,G5,1064.167,167/1000,73,119.56
4839,F#5,1064.333,167/1000,80,119.56
4840,G2,1064.469,1.0,55,119.56
4841,G5,1064.5,167/1000,75,119.56
4842,F#5,1064.667,167/1000,82,119.56
4843,G5,1064.833,167/1000,78,119.56
4844,F#5,1065.0,167/1000,84,119.56
4845,G5,1065.167,167/1000,81,119.56
4846,F#5,1065.333,167/1000,86,119.56
4847,G5,1065.5,0.125,84,119.56
4848,F#5,1065.625,0.125,89,119.56
4849,E5,1065.75,0.125,84,119.56
4850,F#5,1065.875,0.125,85,119.56
4851,B4,1066.0,1.0,86,119.56
4852,G5,1066.0,1.0,86,119.56
4853,B3,1066.469,1.0,50,119.56
4854,G3,1066.469,1.0,50,119.56
4855,D4,1066.469,1.0,50,119.56
4856,D5,1067.0,0.25,83,119.56
4857,F#5,1067.5,0.25,75,119.56
4858,G5,1068.0,0.25,83,119.56
4859,C3,1068.469,1.5,69,119.56
4860,E-3,1068.531,1.438,72,119.56
4861,G3,1068.594,1.375,77,119.56
4862,C4,1068.656,1.312,80,119.56
4863,D4,1069.0,0.25,66,119.56
4864,F#4,1069.5,0.25,60,119.56
4865,G2,1069.969,9/20,64,119.56
4866,C2,1069.969,9/20,64,119.56
4867,C3,1069.969,9/20,64,119.56
4868,G4,1070.0,0.25,66,119.56
4869,G2,1070.469,1.0,64,119.56
4870,C2,1070.469,1.0,64,119.56
4871,C3,1070.469,1.0,64,119.56
4872,D3,1071.0,0.25,69,119.56
4873,D2,1071.469,0.25,60,119.56
4874,D3,1071.469,0.25,60,119.56
4875,F#3,1071.5,0.25,61,119.56
4876,E-2,1071.969,0.25,66,119.56
4877,E-3,1071.969,0.25,66,119.56
4878,G3,1072.0,0.25,65,119.56
4879,B3,1072.25,0.25,65,119.56
4880,F2,1072.469,0.25,65,119.56
4881,C3,1072.469,0.25,65,119.56
4882,F3,1072.469,0.25,65,119.56
4883,C4,1072.5,0.25,66,119.56
4884,D4,1072.75,0.25,67,119.56
4885,E4,1073.0,0.25,68,119.56
4886,F#4,1073.25,0.25,69,119.56
4887,F2,1073.469,0.25,61,119.56
4888,C3,1073.469,0.25,61,119.56
4889,F3,1073.469,0.25,61,119.56
4890,G4,1073.5,0.25,70,119.56
4891,A4,1073.75,0.25,71,119.56
4892,B4,1074.0,0.25,71,119.56
4893,D5,1074.25,0.25,72,119.56
4894,E5,1074.5,0.25,75,119.56
4895,F#5,1074.75,0.25,78,119.56
4896,G5,1075.0,0.25,81,119.56
4897,B5,1075.25,0.25,83,119.56
4898,G#2,1075.469,0.25,67,119.56
4899,G#3,1075.469,0.25,67,119.56
4900,C6,1075.5,0.25,86,119.56
4901,D6,1075.75,0.25,89,119.56
4902,C6,1076.188,1.312,88,119.56
4903,G5,1076.188,1.312,88,119.56
4904,E-5,1076.188,1.312,88,119.56
4905,E-6,1076.188,1.312,88,119.56
4906,C#3,1076.469,1.5,69,119.56
4907,G#3,1076.531,1.438,72,119.56
4908,C#4,1076.594,1.375,77,119.56
4909,F4,1076.656,1.312,80,119.56
4910,E-4,1077.5,9/20,78,119.56
4911,C4,1077.5,9/20,78,119.56
4912,E-3,1077.5,9/20,78,119.56
4913,C#2,1077.969,9/20,66,119.56
4914,C#3,1077.969,9/20,66,119.56
4915,E-3,1078.0,1.0,83,119.56
4916,C4,1078.0,1.0,83,119.56
4917,E-4,1078.0,1.0,83,119.56
4918,C#2,1078.469,1.0,66,119.56
4919,C#3,1078.469,1.0,66,119.56
4920,F3,1079.0,0.25,80,119.56
4921,C4,1079.0,0.25,80,119.56
4922,F4,1079.0,0.25,80,119.56
4923,E-2,1079.469,0.25,60,119.56
4924,E-3,1079.469,0.25,60,119.56
4925,G3,1079.5,0.25,84,119.56
4926,G4,1079.5,0.25,84,119.56
4927,C4,1079.5,0.25,84,119.56
4928,F2,1079.969,0.25,66,119.56
4929,F3,1079.969,0.25,66,119.56
4930,G#4,1080.0,0.25,87,119.56
4931,C4,1080.0,0.25,87,119.56
4932,G#3,1080.0,0.25,87,119.56
4933,F#2,1080.469,0.25,58,119.56
4934,C#3,1080.469,0.25,58,119.56
4935,F#3,1080.469,0.25,58,119.56
4936,G#3,1081.0,0.25,83,119.56
4937,C4,1081.0,0.25,83,119.56
4938,G#4,1081.0,0.25,83,119.56
4939,F#2,1081.469,0.25,54,119.56
4940,C#3,1081.469,0.25,54,119.56
4941,F#3,1081.469,0.25,54,119.56
4942,G#4,1083.0,0.25,90,119.56
4943,G#5,1083.0,0.25,90,119.56
4944,A2,1083.469,0.25,67,119.56
4945,A3,1083.469,0.25,67,119.56
4946,F5,1084.25,1.312,90,119.56
4947,G#5,1084.25,1.312,90,119.56
4948,F6,1084.25,1.312,90,119.56
4949,D3,1084.469,1.5,69,119.56
4950,A3,1084.531,1.438,72,119.56
4951,D4,1084.594,1.375,77,119.56
4952,F#4,1084.656,1.312,80,119.56
4953,F4,1085.5,9/20,78,119.56
4954,C#4,1085.5,9/20,78,119.56
4955,F3,1085.5,9/20,78,119.56
4956,D2,1085.969,9/20,66,119.56
4957,D3,1085.969,9/20,66,119.56
4958,F3,1086.0,1.0,83,119.56
4959,C#4,1086.0,1.0,83,119.56
4960,F4,1086.0,1.0,83,119.56
4961,D2,1086.469,1.0,66,119.56
4962,D3,1086.469,1.0,66,119.56
4963,F#3,1087.0,0.25,80,119.56
4964,C#4,1087.0,0.25,80,119.56
4965,F#4,1087.0,0.25,80,119.56
4966,E2,1087.469,0.25,60,119.56
4967,E3,1087.469,0.25,60,119.56
4968,G#3,1087.5,0.25,84,119.56
4969,G#4,1087.5,0.25,84,119.56
4970,C#4,1087.5,0.25,84,119.56
4971,F#2,1087.969,0.25,66,119.56
4972,F#3,1087.969,0.25,66,119.56
4973,A4,1088.0,0.25,84,119.56
4974,F#4,1088.0,0.25,84,119.56
4975,A3,1088.0,0.25,84,119.56
4976,G2,1088.469,0.25,65,119.56
4977,D3,1088.469,0.25,65,119.56
4978,G3,1088.469,0.25,65,119.56
4979,A3,1089.0,0.25,80,119.56
4980,F#4,1089.0,0.25,80,119.56
4981,A4,1089.0,0.25,80,119.56
4982,F#2,1089.469,0.25,61,119.56
4983,D3,1089.469,0.25,61,119.56
4984,F#3,1089.469,0.25,61,119.56
4985,A4,1091.0,0.25,90,119.56
4986,A5,1091.0,0.25,90,119.56
4987,E-2,1091.469,0.25,60,119.56
4988,E-3,1091.469,0.25,60,119.56
4989,F#5,1092.25,1.312,90,119.56
4990,A5,1092.25,1.312,90,119.56
4991,F#6,1092.25,1.312,90,119.56
4992,D2,1092.469,0.25,62,119.56
4993,D3,1092.469,0.25,62,119.56
4994,D3,1092.969,0.5,68,119.56
4995,E-3,1093.469,1.0,72,119.56
4996,E-4,1093.469,1.0,72,119.56
4997,F#4,1093.5,9/20,78,119.56
4998,D4,1093.5,9/20,78,119.56
4999,F#3,1093.5,9/20,78,119.56
5000,F#3,1094.0,1.0,83,119.56
5001,D4,1094.0,1.0,83,119.56
5002,F#4,1094.0,1.0,83,119.56
5003,D2,1094.969,0.5,68,119.56
5004,G3,1095.0,0.25,80,119.56
5005,D4,1095.0,0.25,80,119.56
5006,G4,1095.0,0.25,80,119.56
5007,E-2,1095.469,1.0,71,119.56
5008,E-3,1095.469,1.0,71,119.56
5009,A3,1095.5,0.25,84,119.56
5010,A4,1095.5,0.25,84,119.56
5011,D4,1095.5,0.25,84,119.56
5012,B-4,1096.0,0.25,87,119.56
5013,D4,1096.0,0.25,87,119.56
5014,B-3,1096.0,0.25,87,119.56
5015,D3,1096.969,0.5,68,119.56
5016,A3,1097.0,0.25,83,119.56
5017,D4,1097.0,0.25,83,119.56
5018,A4,1097.0,0.25,83,119.56
5019,E-3,1097.469,1.0,72,119.56
5020,E-4,1097.469,1.0,72,119.56
5021,D2,1098.969,0.5,68,119.56
5022,C#5,1099.0,0.25,78,119.56
5023,G4,1099.0,0.25,78,119.56
5024,C#4,1099.0,0.25,78,119.56
5025,E-2,1099.469,1.0,71,119.56
5026,E-3,1099.469,1.0,71,119.56
5027,D4,1100.0,0.25,83,119.56
5028,F#4,1100.0,0.25,83,119.56
5029,D5,1100.0,0.25,83,119.56
5030,E2,1100.469,9/20,72,119.56
5031,E3,1100.469,9/20,72,119.56
5032,E3,1100.969,0.5,68,119.56
5033,F3,1101.469,1.0,72,119.56
5034,F4,1101.469,1.0,72,119.56
5035,A4,1101.5,2.0,76,119.56
5036,C5,1102.0,1.5,83,119.56
5037,A5,1102.0,1.5,83,119.56
5038,E2,1102.969,0.5,68,119.56
5039,F2,1103.469,1.0,71,119.56
5040,F3,1103.469,1.0,71,119.56
5041,G5,1103.5,0.5,82,119.56
5042,F#5,1104.0,0.5,90,119.56
5043,E3,1104.969,0.5,68,119.56
5044,F3,1105.469,1.0,72,119.56
5045,F4,1105.469,1.0,72,119.56
5046,A5,1105.5,979/500,76,119.56
5047,C6,1106.0,729/500,90,119.56
5048,A6,1106.0,729/500,90,119.56
5049,E2,1106.969,0.5,68,119.56
5050,F2,1107.469,1.0,71,119.56
5051,F3,1107.469,1.0,71,119.56
5052,A5,1107.5,0.5,89,119.56
5053,C6,1107.5,0.5,89,119.56
5054,A6,1107.5,0.5,89,119.56
5055,G#5,1108.0,0.5,97,119.56
5056,B5,1108.0,0.5,97,119.56
5057,G#6,1108.0,0.5,97,119.56
5058,F2,1108.469,0.5,71,119.56
5059,F3,1108.469,0.5,71,119.56
5060,F2,1108.969,0.5,68,119.56
5061,F#2,1109.469,1.5,71,119.56
5062,F#3,1109.469,1.5,71,119.56
5063,B4,1109.5,2.0,76,119.56
5064,D5,1110.0,1.5,83,119.56
5065,B5,1110.0,1.5,83,119.56
5066,F#2,1110.969,0.5,68,119.56
5067,G2,1111.469,1.0,71,119.56
5068,G3,1111.469,1.0,71,119.56
5069,A5,1111.5,0.5,82,119.56
5070,B4,1112.0,0.5,78,119.56
5071,D5,1112.0,0.5,78,119.56
5072,G#5,1112.0,0.5,78,119.56
5073,G2,1112.969,0.5,71,119.56
5074,G3,1112.969,0.5,71,119.56
5075,G2,1113.469,0.5,68,119.56
5076,B5,1113.5,97/50,86,119.56
5077,A2,1113.969,1.5,71,119.56
5078,A3,1113.969,1.5,71,119.56
5079,D6,1114.0,727/500,100,119.56
5080,B6,1114.0,727/500,100,119.56
5081,A2,1115.469,0.5,68,119.56
5082,C6,1115.5,0.5,86,119.56
5083,B-2,1115.969,1.0,71,119.56
5084,B-3,1115.969,1.0,71,119.56
5085,C6,1116.0,36/25,86,119.56
5086,E-6,1116.0,727/500,100,119.56
5087,C7,1116.0,727/500,100,119.56
5088,B-2,1117.469,0.5,71,119.56
5089,B-3,1117.469,0.5,71,119.56
5090,C6,1117.5,97/50,86,119.56
5091,B-2,1117.969,0.5,68,119.56
5092,E-6,1118.0,727/500,100,119.56
5093,C7,1118.0,727/500,100,119.56
5094,C3,1118.469,1.5,71,119.56
5095,C4,1118.469,1.5,71,119.56
5096,C6,1119.5,0.5,86,119.56
5097,C3,1119.969,0.5,68,119.56
5098,C6,1120.0,36/25,86,119.56
5099,E-6,1120.0,727/500,100,119.56
5100,C7,1120.0,727/500,100,119.56
5101,C#3,1120.469,1.0,71,119.56
5102,C#4,1120.469,1.0,71,119.56
5103,D3,1121.469,0.5,71,119.56
5104,D4,1121.469,0.5,71,119.56
5105,B-5,1121.5,97/50,86,119.56
5106,D6,1122.0,727/500,100,119.56
5107,B-6,1122.0,727/500,100,119.56
5108,D3,1123.469,0.25,57,119.56
5109,F#3,1123.469,0.25,57,119.56
5110,A3,1123.469,0.25,57,119.56
5111,A5,1123.5,0.5,86,119.56
5112,A5,1124.0,36/25,86,119.56
5113,E-6,1124.0,727/500,100,119.56
5114,A6,1124.0,727/500,100,119.56
5115,D2,1125.469,0.25,57,119.56
5116,A2,1125.469,0.25,57,119.56
5117,F#3,1125.469,0.25,57,119.56
5118,G5,1125.5,97/50,86,119.56
5119,E6,1126.0,727/500,98,119.56
5120,B-5,1126.0,727/500,98,119.56
5121,G6,1126.0,727/500,98,119.56
5122,F#5,1127.5,0.5,86,119.56
5123,A5,1128.0,0.5,94,119.56
5124,F#6,1128.0,0.5,94,119.56
5125,D6,1128.0,0.5,94,119.56
5126,D5,1128.5,0.5,75,119.56
5127,D6,1129.0,0.25,72,119.56
5128,A5,1129.0,0.25,72,119.56
5129,F#5,1129.0,0.25,72,119.56
5130,A4,1129.5,0.5,75,119.56
5131,E-4,1129.969,0.5,64,119.56
5132,A5,1130.0,0.25,72,119.56
5133,F#5,1130.0,0.25,72,119.56
5134,D5,1130.0,0.25,72,119.56
5135,G4,1130.469,0.5,70,119.56
5136,F#4,1130.5,0.5,75,119.56
5137,G5,1130.969,0.5,63,119.56
5138,F#5,1131.0,0.25,72,119.56
5139,D5,1131.0,0.25,72,119.56
5140,A4,1131.0,0.25,72,119.56
5141,D4,1131.5,0.5,72,119.56
5142,D5,1132.0,0.25,72,119.56
5143,A4,1132.0,0.25,72,119.56
5144,F#4,1132.0,0.25,72,119.56
5145,D4,1133.969,0.5,38,119.56
5146,F#4,1134.469,0.5,42,119.56
5147,F#5,1134.969,0.5,37,119.56
5148,F#4,1135.0,1.0,77,119.56
5149,A4,1136.0,2.5,83,119.56
5150,E-4,1137.969,0.5,26,119.56
5151,G4,1138.469,0.5,28,119.56
5152,E-4,1138.969,0.5,22,119.56
5153,F#4,1139.0,1.0,46,119.56
5154,G4,1139.469,0.5,28,119.56
5155,E-4,1139.969,0.5,24,119.56
5156,A4,1140.0,2.5,49,119.56
5157,G4,1140.469,0.5,24,119.56
5158,C5,1140.969,0.5,20,119.56
5159,F4,1141.969,0.5,23,119.56
5160,G#4,1142.469,0.5,27,119.56
5161,F4,1142.969,0.5,22,119.56
5162,A4,1143.0,1.0,46,119.56
5163,G#4,1143.469,0.5,27,119.56
5164,F4,1143.969,0.5,24,119.56
5165,C5,1144.0,2.0,49,119.56
5166,G#4,1144.469,0.5,24,119.56
5167,C5,1144.969,0.5,20,119.56
5168,G3,1145.969,0.5,24,119.56
5169,D5,1146.0,1.5,48,119.56
5170,B3,1146.469,0.5,27,119.56
5171,G3,1146.969,0.5,24,119.56
5172,B3,1147.469,0.5,27,119.56
5173,E-5,1147.5,9/20,46,119.56
5174,G3,1147.969,0.5,23,119.56
5175,E-5,1148.0,2.0,53,119.56
5176,B3,1148.469,0.5,23,119.56
5177,F4,1148.969,0.5,19,119.56
5178,C4,1149.969,0.5,23,119.56
5179,D5,1150.0,1.0,46,119.56
5180,G4,1150.469,0.5,27,119.56
5181,C4,1150.969,0.5,24,119.56
5182,G4,1151.469,0.5,27,119.56
5183,F5,1151.5,0.5,49,119.56
5184,C4,1151.969,0.5,22,119.56
5185,G#5,1152.0,2.0,54,119.56
5186,G4,1152.469,0.5,22,119.56
5187,C5,1152.969,0.5,20,119.56
5188,C3,1153.969,0.5,29,119.56
5189,G5,1154.0,1.5,50,119.56
5190,G3,1154.469,0.5,32,119.56
5191,C3,1154.969,0.5,28,119.56
5192,G3,1155.469,0.5,32,119.56
5193,D5,1155.5,0.5,50,119.56
5194,C3,1155.969,0.5,27,119.56
5195,F5,1156.0,2.0,57,119.56
5196,G3,1156.469,0.5,27,119.56
5197,A3,1156.969,0.5,27,119.56
5198,B-2,1157.969,0.5,26,119.56
5199,E-5,1158.0,1.0,52,119.56
5200,G3,1158.469,0.5,31,119.56
5201,B-3,1158.969,0.5,27,119.56
5202,E-4,1159.469,0.5,39,119.56
5203,B-3,1159.969,0.5,34,119.56
5204,E-5,1160.0,979/500,49,119.56
5205,G3,1160.469,0.5,37,119.56
5206,E-3,1160.969,0.5,40,119.56
5207,A2,1161.469,0.5,44,119.56
5208,D3,1161.969,0.5,38,119.56
5209,E-5,1162.0,2.0,50,119.56
5210,G3,1162.469,0.5,38,119.56
5211,B-3,1162.969,0.5,38,119.56
5212,G2,1163.469,0.5,51,119.56
5213,F5,1163.5,0.5,56,119.56
5214,D3,1163.969,0.5,40,119.56
5215,G5,1164.0,1.0,65,119.56
5216,E-5,1164.0,1.0,50,119.56
5217,G3,1164.469,0.5,42,119.56
5218,B-3,1164.969,0.5,42,119.56
5219,D2,1165.469,0.5,57,119.56
5220,D3,1165.969,0.5,44,119.56
5221,B-5,1166.0,2.0,69,119.56
5222,G5,1166.0,2.0,69,119.56
5223,F3,1166.469,0.5,44,119.56
5224,B-3,1166.969,0.5,44,119.56
5225,B-4,1167.469,0.5,53,119.56
5226,F4,1167.969,0.5,44,119.56
5227,B-5,1168.0,1.0,69,119.56
5228,G5,1168.0,1.0,69,119.56
5229,D4,1168.469,0.5,44,119.56
5230,B-3,1168.969,0.5,44,119.56
5231,D3,1169.469,0.5,53,119.56
5232,F3,1169.969,0.5,42,119.56
5233,B-5,1170.0,2.0,68,119.56
5234,D6,1170.0,2.0,68,119.56
5235,B-3,1170.469,0.5,44,119.56
5236,F4,1170.969,0.5,41,119.56
5237,F#3,1171.969,0.5,39,119.56
5238,B-5,1172.0,1.0,68,119.56
5239,D6,1172.0,1.0,68,119.56
5240,C4,1172.469,0.5,42,119.56
5241,E-4,1172.969,0.5,39,119.56
5242,F5,1173.875,2.125,67,119.56
5243,B-5,1173.938,2.062,69,119.56
5244,G3,1173.969,0.5,39,119.56
5245,F6,1174.0,2.0,72,119.56
5246,B-3,1174.469,0.5,42,119.56
5247,E-4,1174.969,0.5,39,119.56
5248,G#3,1175.969,0.5,32,119.56
5249,F5,1176.0,1.5,67,119.56
5250,B-5,1176.0,1.5,69,119.56
5251,F6,1176.0,1.5,72,119.56
5252,C4,1176.469,0.5,37,119.56
5253,E-4,1176.969,0.5,32,119.56
5254,D6,1177.5,0.5,66,119.56
5255,B-3,1177.969,0.5,33,119.56
5256,A5,1178.0,2.0,62,119.56
5257,E-6,1178.0,1.5,73,119.56
5258,E-4,1178.469,0.5,37,119.56
5259,G4,1178.969,0.5,34,119.56
5260,B3,1179.469,2.0,44,119.56
5261,C6,1179.5,0.5,61,119.56
5262,F4,1179.969,0.5,34,119.56
5263,B-5,1180.0,2.0,69,119.56
5264,G#4,1180.469,0.5,34,119.56
5265,B4,1180.969,0.5,34,119.56
5266,C4,1181.469,2.0,44,119.56
5267,E-4,1181.969,0.5,30,119.56
5268,E-5,1182.0,2.0,53,119.56
5269,C6,1182.0,1.5,63,119.56
5270,G#4,1182.469,0.5,34,119.56
5271,C5,1182.969,0.5,29,119.56
5272,D4,1183.469,2.0,32,119.56
5273,G#5,1183.5,0.5,52,119.56
5274,F#4,1183.969,0.5,26,119.56
5275,G5,1184.0,2.0,63,119.56
5276,E-5,1184.0,2.0,53,119.56
5277,A4,1184.469,0.5,29,119.56
5278,D5,1184.969,0.5,26,119.56
5279,G4,1185.469,0.5,28,119.56
5280,G3,1185.969,0.5,20,119.56
5281,G#5,1186.0,2.0,64,119.56
5282,D5,1186.0,2.0,54,119.56
5283,G4,1186.469,0.5,20,119.56
5284,G3,1186.969,0.5,20,119.56
5285,F4,1187.469,0.5,26,119.56
5286,D4,1187.469,0.5,26,119.56
5287,G3,1187.969,0.5,21,119.56
5288,E-5,1188.0,2.0,64,119.56
5289,G#5,1188.0,1.5,64,119.56
5290,G4,1188.469,0.5,20,119.56
5291,E-4,1188.469,0.5,20,119.56
5292,G3,1188.969,0.5,21,119.56
5293,G#4,1189.469,0.5,26,119.56
5294,F4,1189.469,0.5,26,119.56
5295,G5,1189.5,0.5,52,119.56
5296,G3,1189.969,0.5,20,119.56
5297,C5,1190.0,2.0,42,119.56
5298,A5,1190.0,1.5,50,119.56
5299,F4,1190.469,0.5,18,119.56
5300,D4,1190.469,0.5,18,119.56
5301,G3,1190.969,0.5,20,119.56
5302,B3,1191.469,0.5,25,119.56
5303,D4,1191.469,0.5,25,119.56
5304,F#5,1191.5,0.5,37,119.56
5305,G3,1191.969,0.5,21,119.56
5306,G5,1192.0,4.0,34,119.56
5307,G6,1192.0,2.0,40,119.56
5308,E-6,1192.0,2.0,40,119.56
5309,E-4,1192.469,0.5,20,119.56
5310,C4,1192.469,0.5,20,119.56
5311,G3,1192.969,0.5,21,119.56
5312,D4,1193.469,0.5,26,119.56
5313,F4,1193.469,0.5,26,119.56
5314,G3,1193.969,0.5,20,119.56
5315,F6,1194.0,1.0,35,119.56
5316,D6,1194.0,1.0,35,119.56
5317,C4,1194.469,0.5,22,119.56
5318,E-4,1194.469,0.5,22,119.56
5319,G3,1194.969,0.5,20,119.56
5320,E-6,1195.0,1.0,41,119.56
5321,G6,1195.0,1.0,41,119.56
5322,D4,1195.469,0.5,26,119.56
5323,B-3,1195.469,0.5,26,119.56
5324,G3,1195.969,0.5,21,119.56
5325,G5,1196.0,4.0,31,119.56
5326,F6,1196.0,1.5,46,119.56
5327,G#6,1196.0,1.5,46,119.56
5328,C4,1196.469,0.5,20,119.56
5329,G#3,1196.469,0.5,20,119.56
5330,G3,1196.969,0.5,21,119.56
5331,B3,1197.469,0.5,28,119.56
5332,F6,1197.5,0.5,39,119.56
5333,D6,1197.5,0.5,39,119.56
5334,G3,1197.969,0.5,20,119.56
5335,D6,1198.0,1.0,46,119.56
5336,B5,1198.0,1.0,46,119.56
5337,C4,1198.469,0.5,18,119.56
5338,A3,1198.469,0.5,18,119.56
5339,G3,1198.969,0.5,20,119.56
5340,C6,1199.0,1.0,40,119.56
5341,E-6,1199.0,1.0,40,119.56
5342,B3,1199.469,0.5,25,119.56
5343,D4,1199.469,0.5,25,119.56
5344,G3,1199.969,0.5,21,119.56
5345,G5,1200.0,4.0,34,119.56
5346,F6,1200.0,1.0,40,119.56
5347,D6,1200.0,1.0,40,119.56
5348,B3,1200.469,0.5,21,119.56
5349,G3,1200.969,0.5,21,119.56
5350,C6,1201.0,1.0,35,119.56
5351,E-6,1201.0,1.0,35,119.56
5352,E-4,1201.469,0.5,26,119.56
5353,G4,1201.469,0.5,26,119.56
5354,G3,1201.969,0.5,20,119.56
5355,D6,1202.0,1.0,35,119.56
5356,B-5,1202.0,1.0,35,119.56
5357,E-4,1202.469,0.5,22,119.56
5358,G4,1202.469,0.5,22,119.56
5359,G3,1202.969,0.5,20,119.56
5360,G#5,1203.0,1.0,41,119.56
5361,C6,1203.0,1.0,41,119.56
5362,F4,1203.469,0.5,26,119.56
5363,D4,1203.469,0.5,26,119.56
5364,G3,1203.969,0.5,21,119.56
5365,G5,1204.0,1479/500,38,119.56
5366,B5,1204.0,1.5,46,119.56
5367,G4,1204.469,0.5,20,119.56
5368,E-4,1204.469,0.5,20,119.56
5369,G3,1204.969,0.5,22,119.56
5370,B-4,1205.469,0.5,28,119.56
5371,G4,1205.469,0.5,28,119.56
5372,C6,1205.5,0.5,39,119.56
5373,A5,1205.5,0.5,39,119.56
5374,G3,1205.969,0.5,22,119.56
5375,D6,1206.0,1.0,46,119.56
5376,B5,1206.0,1.0,46,119.56
5377,G#4,1206.469,0.5,20,119.56
5378,F4,1206.469,0.5,20,119.56
5379,G3,1206.969,0.5,22,119.56
5380,G5,1207.0,1.0,40,119.56
5381,D4,1207.469,0.5,28,119.56
5382,F4,1207.469,0.5,28,119.56
5383,G3,1207.969,0.5,23,119.56
5384,G5,1208.0,4.0,40,119.56
5385,G6,1208.0,2.0,40,119.56
5386,E-6,1208.0,2.0,40,119.56
5387,G#4,1208.469,0.5,21,119.56
5388,F4,1208.469,0.5,21,119.56
5389,G3,1208.969,0.5,23,119.56
5390,E-4,1209.469,0.5,28,119.56
5391,G4,1209.469,0.5,28,119.56
5392,G3,1209.969,0.5,22,119.56
5393,F6,1210.0,1.0,35,119.56
5394,D6,1210.0,1.0,35,119.56
5395,C4,1210.469,0.5,24,119.56
5396,E-4,1210.469,0.5,24,119.56
5397,G3,1210.969,0.5,21,119.56
5398,E-6,1211.0,1.0,43,119.56
5399,G6,1211.0,1.0,43,119.56
5400,F4,1211.469,0.5,27,119.56
5401,D4,1211.469,0.5,27,119.56
5402,G3,1211.969,0.5,21,119.56
5403,G5,1212.0,1979/500,34,119.56
5404,G6,1212.0,1.5,55,119.56
5405,B-6,1212.0,1.5,55,119.56
5406,D4,1212.469,0.5,20,119.56
5407,B3,1212.469,0.5,20,119.56
5408,G3,1212.969,0.5,21,119.56
5409,C4,1213.469,0.5,26,119.56
5410,E-4,1213.469,0.5,26,119.56
5411,G#6,1213.5,229/500,42,119.56
5412,F6,1213.5,229/500,42,119.56
5413,G3,1213.969,0.5,20,119.56
5414,F6,1214.0,1.0,50,119.56
5415,D6,1214.0,1.0,50,119.56
5416,C4,1214.469,0.5,18,119.56
5417,A3,1214.469,0.5,18,119.56
5418,G3,1214.969,0.5,20,119.56
5419,F6,1215.0,1.0,44,119.56
5420,G#6,1215.0,1.0,44,119.56
5421,B3,1215.469,0.5,25,119.56
5422,D4,1215.469,0.5,25,119.56
5423,G3,1215.969,0.5,21,119.56
5424,G5,1216.0,1979/500,37,119.56
5425,G6,1216.0,19/20,44,119.56
5426,E-6,1216.0,19/20,44,119.56
5427,B3,1216.469,0.5,21,119.56
5428,G3,1216.969,0.5,21,119.56
5429,C6,1217.0,1.0,37,119.56
5430,E-6,1217.0,1.0,37,119.56
5431,E-4,1217.469,0.5,29,119.56
5432,C4,1217.969,0.5,21,119.56
5433,F6,1218.0,19/20,36,119.56
5434,D6,1218.0,19/20,36,119.56
5435,G3,1218.469,0.5,24,119.56
5436,E-3,1218.969,0.5,21,119.56
5437,B5,1219.0,1.0,42,119.56
5438,D6,1219.0,1.0,42,119.56
5439,E-4,1219.469,0.5,29,119.56
5440,C4,1219.969,0.5,22,119.56
5441,G5,1220.0,1979/500,25,119.56
5442,C6,1220.0,19/20,43,119.56
5443,E-6,1220.0,19/20,43,119.56
5444,G3,1220.469,0.5,24,119.56
5445,E-3,1220.969,0.5,20,119.56
5446,C6,1221.0,1.0,39,119.56
5447,A5,1221.0,1.0,39,119.56
5448,F4,1221.469,0.5,29,119.56
5449,C4,1221.969,0.5,20,119.56
5450,D6,1222.0,19/20,46,119.56
5451,B5,1222.0,19/20,46,119.56
5452,G#3,1222.469,0.5,24,119.56
5453,F3,1222.969,0.5,21,119.56
5454,G5,1223.0,1.0,40,119.56
5455,F4,1223.469,0.5,29,119.56
5456,C4,1223.969,0.5,24,119.56
5457,G#3,1224.469,0.5,24,119.56
5458,G4,1224.5,0.5,24,119.56
5459,F3,1224.94,0.5,23,119.56
5460,C5,1225.0,0.5,39,119.56
5461,F4,1225.469,0.5,29,119.56
5462,G5,1225.5,0.5,24,119.56
5463,D4,1225.969,0.5,21,119.56
5464,C4,1226.469,0.5,24,119.56
5465,G4,1226.5,0.5,24,119.56
5466,G3,1226.969,0.5,22,119.56
5467,D5,1227.0,0.5,38,119.56
5468,F4,1227.469,0.5,30,119.56
5469,G5,1227.5,0.5,24,119.56
5470,D4,1227.969,0.5,22,119.56
5471,B3,1228.469,0.5,25,119.56
5472,C5,1228.5,0.5,24,119.56
5473,G3,1228.969,0.5,25,119.56
5474,E-5,1229.0,0.5,41,119.56
5475,C5,1229.469,0.5,30,119.56
5476,G#5,1229.5,0.5,24,119.56
5477,G4,1229.969,0.5,23,119.56
5478,F4,1230.469,0.5,25,119.56
5479,G#4,1230.5,0.5,24,119.56
5480,C4,1230.969,0.5,22,119.56
5481,D5,1231.0,0.5,38,119.56
5482,C5,1231.469,0.5,31,119.56
5483,G#5,1231.471,0.5,24,119.56
5484,G4,1231.969,0.5,25,119.56
5485,E-4,1232.469,0.5,29,119.56
5486,C5,1232.5,0.5,32,119.56
5487,C4,1232.969,0.5,26,119.56
5488,G#5,1233.0,0.5,40,119.56
5489,F2,1233.469,0.5,43,119.56
5490,D6,1233.5,0.5,32,119.56
5491,F3,1233.969,0.5,38,119.56
5492,G#3,1234.469,3.0,42,119.56
5493,B4,1234.5,0.5,32,119.56
5494,C4,1234.969,2.5,47,119.56
5495,G5,1235.0,0.5,41,119.56
5496,F4,1235.469,2.0,51,119.56
5497,D6,1235.5,0.5,34,119.56
5498,F5,1236.5,0.5,35,119.56
5499,D6,1237.0,0.5,47,119.56
5500,G#3,1237.469,2.0,42,119.56
5501,C4,1237.469,2.0,47,119.56
5502,F4,1237.469,2.0,51,119.56
5503,G6,1237.5,0.5,38,119.56
5504,E-5,1238.5,0.5,38,119.56
5505,C6,1239.0,0.5,52,119.56
5506,G6,1239.5,0.5,36,119.56
5507,C5,1241.0,1.25,42,119.56
5508,D5,1241.0,1.25,42,119.56
5509,G#4,1241.0,1.25,42,119.56
5510,F2,1241.469,0.5,43,119.56
5511,F3,1241.969,0.5,38,119.56
5512,E-5,1242.25,0.25,45,119.56
5513,G#3,1242.469,3.0,42,119.56
5514,D5,1242.5,0.25,45,119.56
5515,C5,1242.75,0.25,45,119.56
5516,B3,1242.969,2.5,47,119.56
5517,D5,1243.0,0.25,46,119.56
5518,E-5,1243.25,0.25,49,119.56
5519,D4,1243.469,2.0,51,119.56
5520,F5,1243.5,0.25,52,119.56
5521,G5,1243.75,0.25,55,119.56
5522,B-5,1244.0,1.0,68,119.56
5523,G#5,1245.0,0.5,64,119.56
5524,G#3,1245.469,1.0,42,119.56
5525,B3,1245.469,1.0,47,119.56
5526,D4,1245.469,1.0,51,119.56
5527,C#4,1247.469,1.5,51,119.56
5528,G#4,1247.469,1.5,51,119.56
5529,B4,1247.469,1.5,51,119.56
5530,B4,1249.0,1.25,42,119.56
5531,D5,1249.0,1.25,42,119.56
5532,G#4,1249.0,1.25,42,119.56
5533,E-5,1250.25,0.25,45,119.56
5534,D5,1250.5,0.25,45,119.56
5535,C#5,1250.75,0.25,45,119.56
5536,D5,1251.0,0.25,46,119.56
5537,E-5,1251.25,0.25,49,119.56
5538,B-2,1251.469,11/40,45,119.56
5539,F5,1251.5,0.25,52,119.56
5540,B2,1251.719,11/40,37,119.56
5541,G5,1251.75,0.25,55,119.56
5542,B-2,1251.969,11/40,37,119.56
5543,B-5,1252.0,1.0,68,119.56
5544,A2,1252.219,11/40,37,119.56
5545,B-2,1252.469,11/40,45,119.56
5546,C#3,1252.719,11/40,42,119.56
5547,F#3,1252.969,11/40,45,119.56
5548,G#5,1253.0,0.5,64,119.56
5549,B-3,1253.219,0.25,48,119.56
5550,B-3,1253.469,1/40,48,119.56
5551,B3,1253.469,1.5,52,119.56
5552,C#4,1253.469,1.5,52,119.56
5553,F5,1254.0,1.5,62,119.56
5554,E-6,1254.0,1.0,74,119.56
5555,C#6,1255.0,0.5,69,119.56
5556,B-3,1255.469,11/40,45,119.56
5557,B3,1255.719,11/40,37,119.56
5558,B-3,1255.969,11/40,37,119.56
5559,A3,1256.219,11/40,37,119.56
5560,B-3,1256.469,11/40,45,119.56
5561,C#4,1256.719,11/40,42,119.56
5562,F#4,1256.969,11/40,45,119.56
5563,B-4,1257.219,0.25,48,119.56
5564,B-4,1257.469,1/40,48,119.56
5565,B4,1257.469,1.5,59,119.56
5566,C#5,1257.469,1.5,59,119.56
5567,B5,1259.469,11/40,51,119.56
5568,G#5,1259.719,11/40,42,119.56
5569,F5,1259.969,11/40,42,119.56
5570,E-5,1260.0,1.0,41,119.56
5571,F4,1260.0,11/40,41,119.56
5572,C#5,1260.219,11/40,42,119.56
5573,F#4,1260.25,11/40,41,119.56
5574,B4,1260.469,11/40,51,119.56
5575,F4,1260.5,11/40,41,119.56
5576,G#4,1260.719,11/40,48,119.56
5577,E4,1260.75,11/40,41,119.56
5578,F4,1260.969,11/40,51,119.56
5579,C#5,1261.0,0.5,61,119.56
5580,F4,1261.0,11/40,45,119.56
5581,B3,1261.219,0.25,55,119.56
5582,G#4,1261.25,11/40,47,119.56
5583,C4,1261.469,4.0,55,119.56
5584,B3,1261.469,1/40,55,119.56
5585,B4,1261.5,11/40,49,119.56
5586,C#5,1261.75,11/40,52,119.56
5587,E-6,1262.0,1.0,67,119.56
5588,F#5,1262.0,1.5,67,119.56
5589,C#6,1263.0,0.5,61,119.56
5590,G#3,1263.469,2.0,50,119.56
5591,F4,1263.469,2.0,50,119.56
5592,F5,1264.0,11/40,51,119.56
5593,E-6,1264.0,1.0,75,119.56
5594,F#5,1264.25,11/40,47,119.56
5595,F5,1264.5,11/40,47,119.56
5596,E5,1264.75,11/40,47,119.56
5597,C#6,1265.0,0.5,70,119.56
5598,F5,1265.0,11/40,51,119.56
5599,G#5,1265.25,11/40,53,119.56
5600,C4,1265.469,4.0,55,119.56
5601,G3,1265.469,2.0,54,119.56
5602,G4,1265.469,2.0,54,119.56
5603,B5,1265.5,11/40,56,119.56
5604,C#6,1265.75,11/40,60,119.56
5605,F6,1266.0,1.5,77,119.56
5606,E-7,1266.0,1.0,77,119.56
5607,C#7,1267.0,1.0,86,119.56
5608,F3,1267.469,2.0,57,119.56
5609,G#4,1267.469,2.0,57,119.56
5610,C#7,1268.0,0.5,86,119.56
5611,C7,1268.5,0.5,75,119.56
5612,B6,1269.0,0.5,77,119.56
5613,C4,1269.469,4.0,55,119.56
5614,F3,1269.469,2.0,57,119.56
5615,G#4,1269.469,2.0,57,119.56
5616,B-6,1269.5,0.5,73,119.56
5617,A6,1270.0,0.5,69,119.56
5618,G#6,1270.5,0.5,63,119.56
5619,G6,1271.0,0.5,70,119.56
5620,G#3,1271.469,2.0,50,119.56
5621,F4,1271.469,2.0,50,119.56
5622,F#6,1271.5,0.5,69,119.56
5623,F6,1272.0,0.5,70,119.56
5624,E6,1272.5,0.5,60,119.56
5625,E-6,1273.0,0.5,64,119.56
5626,C4,1273.469,2.0,55,119.56
5627,G3,1273.469,2.0,44,119.56
5628,E-4,1273.469,2.0,44,119.56
5629,D6,1273.5,0.5,67,119.56
5630,C#6,1274.0,0.5,71,119.56
5631,C6,1274.5,0.5,60,119.56
5632,B5,1275.0,0.5,67,119.56
5633,B-5,1275.5,0.5,54,119.56
5634,A5,1276.0,0.5,60,119.56
5635,G#5,1276.5,0.5,54,119.56
5636,G5,1277.0,0.5,59,119.56
5637,G3,1277.469,2.0,30,119.56
5638,B3,1277.469,2.0,30,119.56
5639,D4,1277.469,2.0,30,119.56
5640,F#5,1277.5,0.5,50,119.56
5641,F5,1278.0,0.5,44,119.56
5642,G#4,1278.469,1.0,44,119.56
5643,E5,1278.5,0.5,46,119.56
5644,E-5,1279.0,0.5,53,119.56
5645,G4,1279.469,1.0,33,119.56
5646,D5,1279.5,0.5,46,119.56
5647,B3,1280.469,1.0,24,119.56
5648,E-5,1281.0,1.0,54,119.56
5649,C3,1281.469,2.0,30,119.56
5650,C4,1281.469,2.0,30,119.56
5651,F#5,1282.0,1.0,58,119.56
5652,C6,1283.0,1.0,54,119.56
5653,B-4,1283.469,1.0,32,119.56
5654,G4,1283.469,0.5,24,119.56
5655,C4,1283.969,0.5,21,119.56
5656,C5,1284.469,1.0,24,119.56
5657,G#4,1284.469,0.5,18,119.56
5658,C4,1284.969,0.5,21,119.56
5659,G#5,1285.0,1.0,54,119.56
5660,C#5,1285.469,0.5,28,119.56
5661,B-4,1285.469,0.5,28,119.56
5662,C4,1285.969,0.5,20,119.56
5663,G5,1286.0,1.0,43,119.56
5664,B-4,1286.469,0.5,20,119.56
5665,G4,1286.469,0.5,20,119.56
5666,C4,1286.969,0.5,20,119.56
5667,B4,1287.0,1.0,34,119.56
5668,E4,1287.469,0.5,27,119.56
5669,G4,1287.469,0.5,27,119.56
5670,C4,1287.969,0.5,21,119.56
5671,G#5,1288.0,0.5,32,119.56
5672,C6,1288.0,2.0,40,119.56
5673,G#4,1288.469,0.5,21,119.56
5674,F4,1288.469,0.5,21,119.56
5675,C5,1288.5,0.5,23,119.56
5676,C4,1288.969,0.5,21,119.56
5677,G#5,1289.0,0.5,23,119.56
5678,G4,1289.469,0.5,28,119.56
5679,B-4,1289.469,0.5,28,119.56
5680,C5,1289.5,0.5,23,119.56
5681,C4,1289.969,0.5,20,119.56
5682,B-5,1290.0,1.0,35,119.56
5683,G5,1290.0,1.0,35,119.56
5684,F4,1290.469,0.5,24,119.56
5685,G#4,1290.469,0.5,24,119.56
5686,C4,1290.969,0.5,20,119.56
5687,G#5,1291.0,1.0,41,119.56
5688,C6,1291.0,1.0,41,119.56
5689,G4,1291.469,0.5,28,119.56
5690,E-4,1291.469,0.5,28,119.56
5691,C4,1291.969,0.5,21,119.56
5692,B-5,1292.0,727/500,46,119.56
5693,C#6,1292.0,727/500,46,119.56
5694,F4,1292.469,0.5,21,119.56
5695,C#4,1292.469,0.5,21,119.56
5696,C4,1292.969,0.5,21,119.56
5697,E4,1293.469,0.5,32,119.56
5698,B-5,1293.5,0.5,39,119.56
5699,G5,1293.5,0.5,39,119.56
5700,C4,1293.969,0.5,23,119.56
5701,E5,1294.0,1.0,46,119.56
5702,G5,1294.0,1.0,46,119.56
5703,D4,1294.469,0.5,21,119.56
5704,F4,1294.469,0.5,21,119.56
5705,C4,1294.969,0.5,23,119.56
5706,G#5,1295.0,1.0,40,119.56
5707,F5,1295.0,1.0,40,119.56
5708,E4,1295.469,0.5,28,119.56
5709,G4,1295.469,0.5,28,119.56
5710,C4,1295.992,0.5,24,119.56
5711,G5,1296.0,1.0,40,119.56
5712,B-5,1296.0,1.0,40,119.56
5713,G#5,1297.0,1.0,35,119.56
5714,F5,1297.0,1.0,35,119.56
5715,C#3,1297.219,0.25,36,119.56
5716,C#4,1297.469,0.25,42,119.56
5717,G5,1298.0,1.0,35,119.56
5718,E-5,1298.0,1.0,35,119.56
5719,B3,1298.469,0.25,24,119.56
5720,C#4,1298.969,0.25,26,119.56
5721,C#5,1299.0,1.0,41,119.56
5722,F5,1299.0,1.0,41,119.56
5723,D4,1299.469,0.5,31,119.56
5724,B3,1299.969,0.5,28,119.56
5725,C5,1300.0,1.5,36,119.56
5726,E5,1300.0,1.5,36,119.56
5727,G#3,1300.469,0.25,23,119.56
5728,A3,1300.969,0.25,28,119.56
5729,B3,1301.469,0.5,36,119.56
5730,F5,1301.5,0.5,39,119.56
5731,D5,1301.5,0.5,39,119.56
5732,G#3,1301.969,0.5,27,119.56
5733,G5,1302.0,1.0,46,119.56
5734,E5,1302.0,1.0,46,119.56
5735,F3,1302.469,0.25,36,119.56
5736,F#3,1302.969,0.25,29,119.56
5737,C5,1303.0,0.75,52,119.56
5738,C6,1303.0,0.75,52,119.56
5739,G#3,1303.469,0.25,35,119.56
5740,F3,1303.969,0.25,24,119.56
5741,C#5,1304.0,4.0,49,119.56
5742,C#6,1304.0,2.0,58,119.56
5743,C#3,1304.469,0.25,27,119.56
5744,F#3,1305.219,0.25,41,119.56
5745,F#4,1305.469,0.25,54,119.56
5746,B5,1306.0,1.0,38,119.56
5747,G#5,1306.0,1.0,38,119.56
5748,E4,1306.469,0.25,41,119.56
5749,F#4,1306.969,0.25,41,119.56
5750,A5,1307.0,1.0,45,119.56
5751,C#6,1307.0,1.0,45,119.56
5752,G4,1307.469,0.5,49,119.56
5753,E4,1307.969,0.5,43,119.56
5754,C#5,1308.0,1479/500,44,119.56
5755,B5,1308.0,727/500,56,119.56
5756,D6,1308.0,727/500,56,119.56
5757,C#4,1308.469,0.25,37,119.56
5758,D4,1308.969,0.25,43,119.56
5759,E4,1309.469,0.5,47,119.56
5760,B5,1309.5,9/20,40,119.56
5761,G#5,1309.5,9/20,40,119.56
5762,C#4,1309.969,0.5,37,119.56
5763,F5,1310.0,1.0,48,119.56
5764,G#5,1310.0,1.0,48,119.56
5765,B-3,1310.469,0.25,47,119.56
5766,B3,1310.969,0.25,37,119.56
5767,C#5,1311.0,1.0,42,119.56
5768,C#6,1311.0,1.0,42,119.56
5769,B5,1311.0,1.0,42,119.56
5770,C#4,1311.469,0.25,48,119.56
5771,B-3,1311.969,0.25,40,119.56
5772,F#5,1312.0,4.0,72,119.56
5773,B-5,1312.0,2.0,72,119.56
5774,F#6,1312.0,2.0,72,119.56
5775,F#3,1312.469,0.25,48,119.56
5776,B3,1313.469,2.0,76,119.56
5777,B2,1313.469,2.0,76,119.56
5778,E6,1314.0,1.0,56,119.56
5779,C#6,1314.0,1.0,56,119.56
5780,D6,1315.0,1.0,62,119.56
5781,F#6,1315.0,1.0,62,119.56
5782,A3,1315.469,1.0,66,119.56
5783,A2,1315.469,1.0,66,119.56
5784,C#5,1316.0,3.0,52,119.56
5785,E6,1316.0,727/500,81,119.56
5786,G6,1316.0,727/500,81,119.56
5787,B3,1316.469,1.0,70,119.56
5788,B2,1316.469,1.0,70,119.56
5789,C4,1317.469,1.5,76,119.56
5790,C3,1317.469,1.5,76,119.56
5791,E6,1317.5,0.5,62,119.56
5792,C#6,1317.5,0.5,62,119.56
5793,B-5,1318.0,1.0,74,119.56
5794,C#6,1318.0,1.0,74,119.56
5795,A3,1318.969,0.5,69,119.56
5796,A2,1318.969,0.5,69,119.56
5797,F#5,1319.0,1.0,76,119.56
5798,F#6,1319.0,1.0,76,119.56
5799,E6,1319.0,1.0,76,119.56
5800,F#3,1319.469,1.0,75,119.56
5801,F#2,1319.469,1.0,75,119.56
5802,B5,1320.0,0.5,62,119.56
5803,E-6,1320.0,0.5,62,119.56
5804,A6,1320.0,0.5,62,119.56
5805,B6,1320.0,0.5,62,119.56
5806,G3,1320.469,1.0,72,119.56
5807,G2,1320.469,1.0,72,119.56
5808,A5,1321.0,0.25,61,119.56
5809,A6,1321.0,0.25,61,119.56
5810,A2,1321.469,1.5,76,119.56
5811,A3,1321.469,1.5,76,119.56
5812,B5,1321.5,0.25,63,119.56
5813,B6,1321.5,0.25,63,119.56
5814,C6,1322.0,0.5,66,119.56
5815,C7,1322.0,0.5,66,119.56
5816,A5,1322.5,0.5,60,119.56
5817,A6,1322.5,0.5,60,119.56
5818,F#2,1322.969,0.5,74,119.56
5819,F#3,1322.969,0.5,74,119.56
5820,F#5,1323.0,0.25,63,119.56
5821,F#6,1323.0,0.25,63,119.56
5822,E-2,1323.469,1.0,80,119.56
5823,E-3,1323.469,1.0,80,119.56
5824,G5,1323.5,0.25,58,119.56
5825,G6,1323.5,0.25,58,119.56
5826,A5,1324.0,0.5,67,119.56
5827,A6,1324.0,0.5,67,119.56
5828,E2,1324.469,1.0,78,119.56
5829,E3,1324.469,1.0,78,119.56
5830,F#5,1324.5,0.5,62,119.56
5831,F#6,1324.5,0.5,62,119.56
5832,C5,1325.0,0.25,64,119.56
5833,C6,1325.0,0.25,64,119.56
5834,C2,1325.469,1.0,84,119.56
5835,C3,1325.469,1.0,84,119.56
5836,D5,1325.5,0.25,59,119.56
5837,D6,1325.5,0.25,59,119.56
5838,E-5,1326.0,0.5,68,119.56
5839,E-6,1326.0,0.5,68,119.56
5840,C#2,1326.469,1.0,77,119.56
5841,C#3,1326.469,1.0,77,119.56
5842,C5,1326.5,0.5,64,119.56
5843,C6,1326.5,0.5,64,119.56
5844,A4,1327.0,0.25,66,119.56
5845,A5,1327.0,0.25,66,119.56
5846,A1,1327.469,1.0,86,119.56
5847,A2,1327.469,1.0,86,119.56
5848,B4,1327.5,0.25,61,119.56
5849,B5,1327.5,0.25,61,119.56
5850,C5,1328.0,0.5,70,119.56
5851,C6,1328.0,0.5,70,119.56
5852,G1,1328.469,0.75,92,119.56
5853,G2,1328.469,0.75,92,119.56
5854,A4,1328.5,0.5,64,119.56
5855,A5,1328.5,0.5,64,119.56
5856,F#4,1329.0,0.25,68,119.56
5857,F#5,1329.0,0.25,68,119.56
5858,F1,1329.219,0.125,63,119.56
5859,F2,1329.344,0.125,63,119.56
5860,F3,1329.469,2.0,59,119.56
5861,B-3,1329.469,2.0,59,119.56
5862,E4,1329.469,2.0,59,119.56
5863,C#4,1329.469,2.0,59,119.56
5864,G4,1329.5,0.25,61,119.56
5865,G5,1329.5,0.25,61,119.56
5866,A4,1330.0,0.5,72,119.56
5867,A5,1330.0,0.5,72,119.56
5868,F#4,1330.5,0.5,66,119.56
5869,F#5,1330.5,0.5,66,119.56
5870,F3,1331.469,1.0,60,119.56
5871,A3,1331.469,1.0,60,119.56
5872,F4,1331.469,1.0,60,119.56
5873,D4,1331.469,1.0,60,119.56
5874,C#5,1331.5,0.25,66,119.56
5875,A4,1331.5,0.25,66,119.56
5876,G4,1331.5,0.25,66,119.56
5877,G5,1331.5,0.25,66,119.56
5878,F#5,1332.5,0.25,67,119.56
5879,E-5,1332.5,0.25,67,119.56
5880,A4,1332.5,0.25,67,119.56
5881,A5,1332.5,0.25,67,119.56
5882,F1,1332.969,0.25,63,119.56
5883,F2,1333.219,0.25,63,119.56
5884,F3,1333.469,2.0,59,119.56
5885,B-3,1333.469,2.0,59,119.56
5886,E4,1333.469,2.0,59,119.56
5887,C#4,1333.469,2.0,59,119.56
5888,G5,1333.5,0.25,72,119.56
5889,E5,1333.5,0.25,72,119.56
5890,A4,1333.5,0.25,72,119.56
5891,A5,1333.5,0.25,72,119.56
5892,F#5,1334.5,0.25,78,119.56
5893,E-5,1334.5,0.25,78,119.56
5894,C5,1334.5,0.25,78,119.56
5895,C6,1334.5,0.25,78,119.56
5896,F3,1335.469,1.0,60,119.56
5897,A3,1335.469,1.0,60,119.56
5898,F4,1335.469,1.0,60,119.56
5899,D4,1335.469,1.0,60,119.56
5900,A5,1335.5,0.25,84,119.56
5901,E5,1335.5,0.25,84,119.56
5902,C#5,1335.5,0.25,84,119.56
5903,C#6,1335.5,0.25,84,119.56
5904,B-5,1336.0,2.0,93,119.56
5905,C#6,1336.0,2.0,93,119.56
5906,G6,1336.0,2.0,93,119.56
5907,B-6,1336.0,2.0,93,119.56
5908,F1,1336.969,0.25,63,119.56
5909,F2,1337.219,0.25,63,119.56
5910,E1,1337.469,2.0,72,119.56
5911,E2,1337.469,2.0,72,119.56
5912,A5,1338.0,1.0,82,119.56
5913,D6,1338.0,1.0,82,119.56
5914,F6,1338.0,1.0,82,119.56
5915,A6,1338.0,1.0,82,119.56
5916,A1,1339.469,2.0,70,119.56
5917,E2,1339.469,2.0,70,119.56
5918,A2,1339.469,2.0,70,119.56
5919,C#5,1339.5,0.5,85,119.56
5920,C#6,1339.5,0.5,85,119.56
5921,B-5,1340.0,2.0,93,119.56
5922,C#6,1340.0,2.0,93,119.56
5923,G6,1340.0,2.0,93,119.56
5924,B-6,1340.0,2.0,93,119.56
5925,F1,1341.469,2.0,70,119.56
5926,D2,1341.469,2.0,70,119.56
5927,F2,1341.469,2.0,70,119.56
5928,A5,1342.0,1.0,82,119.56
5929,D6,1342.0,1.0,82,119.56
5930,F6,1342.0,1.0,82,119.56
5931,A6,1342.0,1.0,82,119.56
5932,D1,1343.469,2.0,70,119.56
5933,A1,1343.469,2.0,70,119.56
5934,D2,1343.469,2.0,70,119.56
5935,D5,1343.5,0.5,85,119.56
5936,D6,1343.5,0.5,85,119.56
5937,B5,1344.0,2.0,93,119.56
5938,D6,1344.0,2.0,93,119.56
5939,G#6,1344.0,2.0,93,119.56
5940,B6,1344.0,2.0,93,119.56
5941,G1,1345.469,2.0,72,119.56
5942,G2,1345.469,2.0,72,119.56
5943,C#6,1346.0,2.0,93,119.56
5944,E6,1346.0,2.0,93,119.56
5945,A6,1346.0,2.0,93,119.56
5946,C#7,1346.0,2.0,93,119.56
5947,G2,1347.469,1.75,70,119.56
5948,E3,1347.469,1.75,70,119.56
5949,C4,1347.469,1.75,70,119.56
5950,D6,1348.0,2.0,94,119.56
5951,A6,1348.0,2.0,94,119.56
5952,D7,1348.0,2.0,94,119.56
5953,G2,1349.219,0.25,60,119.56
5954,D3,1349.344,0.125,60,119.56
5955,B3,1349.469,1.0,82,119.56
5956,G2,1349.469,1.75,60,119.56
5957,D3,1349.469,1.75,60,119.56
5958,F6,1350.0,2.0,94,119.56
5959,A6,1350.0,2.0,94,119.56
5960,F7,1350.0,2.0,94,119.56
5961,C4,1350.469,0.25,77,119.56
5962,D4,1350.969,0.25,81,119.56
5963,G2,1351.219,2.0,60,119.56
5964,E3,1351.344,1.875,60,119.56
5965,E4,1351.469,1.0,82,119.56
5966,C6,1352.0,1.5,87,119.56
5967,E6,1352.0,1.5,87,119.56
5968,G6,1352.0,1.5,87,119.56
5969,C7,1352.0,1.5,87,119.56
5970,C4,1352.469,0.25,77,119.56
5971,B3,1352.969,0.25,81,119.56
5972,G2,1353.219,0.25,60,119.56
5973,C#3,1353.344,0.125,60,119.56
5974,A3,1353.469,1.0,82,119.56
5975,G2,1353.469,1.75,60,119.56
5976,C#3,1353.469,1.75,60,119.56
5977,E6,1353.5,9/20,78,119.56
5978,C6,1353.5,9/20,78,119.56
5979,E5,1353.5,9/20,78,119.56
5980,E6,1354.0,1.0,82,119.56
5981,E5,1354.0,1.0,82,119.56
5982,C6,1354.0,1.0,82,119.56
5983,C#4,1354.469,0.25,77,119.56
5984,E4,1354.969,0.25,81,119.56
5985,D6,1355.0,0.25,79,119.56
5986,F5,1355.0,0.25,79,119.56
5987,F6,1355.0,0.25,79,119.56
5988,G2,1355.219,2.0,60,119.56
5989,D3,1355.344,1.875,60,119.56
5990,F4,1355.469,1.0,82,119.56
5991,G5,1355.5,0.25,83,119.56
5992,E6,1355.5,0.25,83,119.56
5993,G6,1355.5,0.25,83,119.56
5994,A5,1356.0,19/20,87,119.56
5995,F6,1356.0,19/20,87,119.56
5996,A6,1356.0,19/20,87,119.56
5997,D4,1356.469,0.25,77,119.56
5998,C4,1356.969,0.25,81,119.56
5999,A5,1357.0,1.0,82,119.56
6000,A6,1357.0,1.0,82,119.56
6001,F6,1357.0,1.0,82,119.56
6002,G2,1357.219,0.25,60,119.56
6003,D3,1357.344,0.125,60,119.56
6004,B3,1357.469,1.0,82,119.56
6005,G2,1357.469,1.75,60,119.56
6006,D3,1357.469,1.75,60,119.56
6007,G6,1358.0,1.0,82,119.56
6008,G5,1358.0,1.0,82,119.56
6009,E6,1358.0,1.0,82,119.56
6010,D4,1358.469,0.25,77,119.56
6011,E-4,1358.969,0.25,81,119.56
6012,E6,1359.0,0.25,79,119.56
6013,C6,1359.0,0.25,79,119.56
6014,C7,1359.0,0.25,79,119.56
6015,G2,1359.219,2.0,60,119.56
6016,E3,1359.344,1.875,60,119.56
6017,E4,1359.469,1.0,82,119.56
6018,D6,1359.5,0.25,83,119.56
6019,G6,1359.5,0.25,83,119.56
6020,D7,1359.5,0.25,83,119.56
6021,E6,1360.0,0.969,87,119.56
6022,C#7,1360.0,0.969,87,119.56
6023,E7,1360.0,0.969,87,119.56
6024,C4,1360.469,0.25,77,119.56
6025,B3,1360.969,0.25,81,119.56
6026,E6,1361.0,1.0,82,119.56
6027,E7,1361.0,1.0,82,119.56
6028,C#7,1361.0,1.0,82,119.56
6029,G2,1361.219,0.25,60,119.56
6030,C3,1361.344,0.125,60,119.56
6031,A3,1361.469,1.0,82,119.56
6032,G2,1361.469,1.75,60,119.56
6033,C3,1361.469,1.75,60,119.56
6034,A6,1362.0,1.0,82,119.56
6035,A5,1362.0,1.0,82,119.56
6036,F6,1362.0,1.0,82,119.56
6037,C4,1362.469,0.25,77,119.56
6038,C#4,1362.969,0.25,81,119.56
6039,B6,1363.0,0.25,79,119.56
6040,D6,1363.0,0.25,79,119.56
6041,D7,1363.0,0.25,79,119.56
6042,G2,1363.219,2.0,60,119.56
6043,D3,1363.344,1.875,60,119.56
6044,D4,1363.469,1.0,82,119.56
6045,E6,1363.5,0.25,83,119.56
6046,C7,1363.5,0.25,83,119.56
6047,E7,1363.5,0.25,83,119.56
6048,F6,1364.0,1.0,87,119.56
6049,D7,1364.0,1.0,87,119.56
6050,F7,1364.0,1.0,87,119.56
6051,B3,1364.469,0.25,77,119.56
6052,A3,1364.969,0.25,81,119.56
6053,D6,1365.0,0.25,79,119.56
6054,B6,1365.0,0.25,79,119.56
6055,D7,1365.0,0.25,79,119.56
6056,G3,1365.469,1.0,82,119.56
6057,G2,1365.469,1.75,60,119.56
6058,B2,1365.469,1.75,60,119.56
6059,C6,1365.5,0.25,83,119.56
6060,A6,1365.5,0.25,83,119.56
6061,C7,1365.5,0.25,83,119.56
6062,B6,1366.0,1.0,82,119.56
6063,B5,1366.0,1.0,82,119.56
6064,G6,1366.0,1.0,82,119.56
6065,A3,1366.469,0.25,77,119.56
6066,B3,1366.969,0.25,81,119.56
6067,A6,1367.0,0.25,79,119.56
6068,C6,1367.0,0.25,79,119.56
6069,C7,1367.0,0.25,79,119.56
6070,G2,1367.219,2.0,60,119.56
6071,C3,1367.344,1.875,60,119.56
6072,C4,1367.469,1.0,82,119.56
6073,D6,1367.5,0.25,83,119.56
6074,B6,1367.5,0.25,83,119.56
6075,D7,1367.5,0.25,83,119.56
6076,E6,1368.0,1.0,87,119.56
6077,C7,1368.0,1.0,87,119.56
6078,E7,1368.0,1.0,87,119.56
6079,D4,1368.469,0.25,77,119.56
6080,E4,1368.969,0.25,81,119.56
6081,C6,1369.0,0.25,79,119.56
6082,A6,1369.0,0.25,79,119.56
6083,C7,1369.0,0.25,79,119.56
6084,G2,1369.281,0.188,52,119.56
6085,C3,1369.344,0.125,52,119.56
6086,F#3,1369.406,0.062,52,119.56
6087,F#4,1369.469,0.812,62,119.56
6088,G2,1369.469,0.812,52,119.56
6089,C3,1369.469,0.812,52,119.56
6090,F#3,1369.469,0.75,52,119.56
6091,B5,1369.5,0.25,83,119.56
6092,G6,1369.5,0.25,83,119.56
6093,B6,1369.5,0.25,83,119.56
6094,A6,1370.0,1.0,82,119.56
6095,A5,1370.0,1.0,82,119.56
6096,F6,1370.0,1.0,82,119.56
6097,G2,1370.281,2.0,51,119.56
6098,C3,1370.344,1.938,50,119.56
6099,F#3,1370.406,1.875,50,119.56
6100,E-4,1370.469,1.812,60,119.56
6101,G6,1371.0,0.25,79,119.56
6102,B5,1371.0,0.25,79,119.56
6103,B6,1371.0,0.25,79,119.56
6104,C6,1371.5,0.25,83,119.56
6105,A6,1371.5,0.25,83,119.56
6106,C7,1371.5,0.25,83,119.56
6107,D6,1372.0,1.0,87,119.56
6108,B6,1372.0,1.0,87,119.56
6109,D7,1372.0,1.0,87,119.56
6110,G2,1372.281,1.0,47,119.56
6111,C3,1372.344,0.938,47,119.56
6112,F#3,1372.406,0.875,46,119.56
6113,C4,1372.469,0.812,55,119.56
6114,B5,1373.0,0.25,79,119.56
6115,G6,1373.0,0.25,79,119.56
6116,B6,1373.0,0.25,79,119.56
6117,G2,1373.281,0.188,45,119.56
6118,D3,1373.344,0.125,45,119.56
6119,G3,1373.406,0.062,45,119.56
6120,B3,1373.469,1.0,53,119.56
6121,G2,1373.469,1.0,45,119.56
6122,D3,1373.469,1.0,45,119.56
6123,G3,1373.469,0.938,45,119.56
6124,A5,1373.5,0.25,83,119.56
6125,F6,1373.5,0.25,83,119.56
6126,A6,1373.5,0.25,83,119.56
6127,G5,1374.0,1.0,87,119.56
6128,E6,1374.0,1.0,87,119.56
6129,G6,1374.0,1.0,87,119.56
6130,G2,1374.469,0.5,61,119.56
6131,B2,1374.469,0.5,61,119.56
6132,F5,1375.0,0.25,79,119.56
6133,D6,1375.0,0.25,79,119.56
6134,F6,1375.0,0.25,79,119.56
6135,B2,1375.219,0.25,55,119.56
6136,G2,1375.469,2.0,61,119.56
6137,C#3,1375.469,1.0,61,119.56
6138,E5,1375.5,0.25,83,119.56
6139,C6,1375.5,0.25,83,119.56
6140,E6,1375.5,0.25,83,119.56
6141,E-5,1376.0,0.812,76,119.56
6142,F#5,1376.0,0.812,76,119.56
6143,A5,1376.0,0.812,76,119.56
6144,C6,1376.0,0.812,76,119.56
6145,E-6,1376.0,0.812,76,119.56
6146,C#4,1376.469,1.0,63,119.56
6147,C5,1377.0,1.812,74,119.56
6148,E-5,1377.0,1.812,74,119.56
6149,F#5,1377.0,1.812,74,119.56
6150,A5,1377.0,1.812,74,119.56
6151,C6,1377.0,1.812,74,119.56
6152,D4,1377.469,0.5,62,119.56
6153,G2,1377.469,0.5,61,119.56
6154,G2,1378.469,0.5,61,119.56
6155,D3,1378.469,0.5,61,119.56
6156,A4,1379.0,0.812,68,119.56
6157,C5,1379.0,0.812,68,119.56
6158,E-5,1379.0,0.812,68,119.56
6159,F#5,1379.0,0.812,68,119.56
6160,A5,1379.0,0.812,68,119.56
6161,D3,1379.219,0.25,56,119.56
6162,G2,1379.469,2.0,62,119.56
6163,E-3,1379.469,1.0,62,119.56
6164,G4,1380.0,1.0,65,119.56
6165,B4,1380.0,1.0,65,119.56
6166,D5,1380.0,1.0,65,119.56
6167,F5,1380.0,1.0,65,119.56
6168,G5,1380.0,1.0,65,119.56
6169,E-4,1380.469,1.0,64,119.56
6170,G4,1381.0,333/1000,63,119.56
6171,G5,1381.333,333/1000,55,119.56
6172,E4,1381.469,0.5,65,119.56
6173,G2,1381.469,0.5,62,119.56
6174,F5,1381.667,333/1000,55,119.56
6175,G5,1382.0,333/1000,63,119.56
6176,B-5,1382.0,333/1000,63,119.56
6177,F6,1382.333,333/1000,57,119.56
6178,E3,1382.469,0.5,64,119.56
6179,G2,1382.469,0.5,64,119.56
6180,E6,1382.667,333/1000,57,119.56
6181,G4,1383.0,333/1000,63,119.56
6182,B-4,1383.0,333/1000,63,119.56
6183,E3,1383.219,0.25,58,119.56
6184,F5,1383.333,333/1000,56,119.56
6185,G2,1383.469,2.0,65,119.56
6186,F3,1383.469,1.0,65,119.56
6187,E5,1383.667,333/1000,56,119.56
6188,F4,1384.0,333/1000,63,119.56
6189,A4,1384.0,333/1000,63,119.56
6190,E5,1384.333,333/1000,57,119.56
6191,F4,1384.469,0.5,68,119.56
6192,D5,1384.667,333/1000,57,119.56
6193,F5,1385.0,333/1000,63,119.56
6194,A5,1385.0,333/1000,63,119.56
6195,F3,1385.219,0.25,59,119.56
6196,E6,1385.333,333/1000,55,119.56
6197,G2,1385.469,2.0,67,119.56
6198,F#3,1385.469,0.5,68,119.56
6199,D6,1385.667,333/1000,56,119.56
6200,A5,1386.0,333/1000,64,119.56
6201,C6,1386.0,333/1000,64,119.56
6202,G6,1386.333,333/1000,58,119.56
6203,F#4,1386.469,0.5,69,119.56
6204,F#6,1386.667,333/1000,58,119.56
6205,A4,1387.0,333/1000,64,119.56
6206,C5,1387.0,333/1000,64,119.56
6207,F#3,1387.219,0.125,51,119.56
6208,G5,1387.333,333/1000,58,119.56
6209,G2,1387.344,1083/1000,59,119.56
6210,D3,1387.344,1083/1000,59,119.56
6211,F3,1387.427,1.0,64,119.56
6212,G3,1387.427,1.0,64,119.56
6213,F#5,1387.667,333/1000,58,119.56
6214,G4,1388.0,333/1000,66,119.56
6215,C5,1388.0,333/1000,66,119.56
6216,A5,1388.333,333/1000,59,119.56
6217,F4,1388.469,1.0,62,119.56
6218,G4,1388.469,1.0,62,119.56
6219,D4,1388.469,1.0,62,119.56
6220,G3,1388.469,1.0,62,119.56
6221,G5,1388.667,333/1000,59,119.56
6222,G5,1389.0,333/1000,66,119.56
6223,C6,1389.0,333/1000,66,119.56
6224,A6,1389.333,333/1000,58,119.56
6225,G1,1389.469,333/1000,71,119.56
6226,G6,1389.667,333/1000,58,119.56
6227,G2,1389.802,73/250,63,119.56
6228,C6,1390.0,333/1000,67,119.56
6229,D6,1390.0,333/1000,67,119.56
6230,G2,1390.135,333/1000,63,119.56
6231,B6,1390.333,333/1000,60,119.56
6232,G3,1390.469,333/1000,71,119.56
6233,A6,1390.667,333/1000,61,119.56
6234,F#3,1390.802,333/1000,63,119.56
6235,C5,1391.0,333/1000,68,119.56
6236,D5,1391.0,333/1000,68,119.56
6237,A3,1391.135,333/1000,63,119.56
6238,B5,1391.333,333/1000,61,119.56
6239,G3,1391.469,333/1000,71,119.56
6240,A5,1391.667,333/1000,61,119.56
6241,E3,1391.802,333/1000,62,119.56
6242,C5,1392.0,333/1000,69,119.56
6243,D5,1392.0,333/1000,69,119.56
6244,B-2,1392.135,333/1000,62,119.56
6245,B5,1392.333,333/1000,62,119.56
6246,G2,1392.469,333/1000,71,119.56
6247,A5,1392.667,333/1000,62,119.56
6248,E2,1392.802,333/1000,63,119.56
6249,C6,1393.0,333/1000,69,119.56
6250,D6,1393.0,333/1000,69,119.56
6251,B-1,1393.135,333/1000,62,119.56
6252,B6,1393.333,333/1000,62,119.56
6253,F1,1393.469,333/1000,71,119.56
6254,A6,1393.667,333/1000,62,119.56
6255,F2,1393.802,73/250,63,119.56
6256,F6,1394.0,333/1000,70,119.56
6257,B6,1394.0,333/1000,70,119.56
6258,F2,1394.135,333/1000,63,119.56
6259,E7,1394.333,333/1000,62,119.56
6260,E3,1394.469,333/1000,71,119.56
6261,D7,1394.667,333/1000,63,119.56
6262,G3,1394.802,333/1000,63,119.56
6263,F5,1395.0,333/1000,71,119.56
6264,B5,1395.0,333/1000,71,119.56
6265,F3,1395.135,333/1000,63,119.56
6266,E6,1395.333,333/1000,63,119.56
6267,E3,1395.469,333/1000,71,119.56
6268,D6,1395.667,333/1000,63,119.56
6269,C#3,1395.802,333/1000,63,119.56
6270,C5,1396.0,19/20,74,119.56
6271,E5,1396.0,19/20,74,119.56
6272,C6,1396.0,19/20,74,119.56
6273,B-2,1396.135,333/1000,63,119.56
6274,G2,1396.469,333/1000,73,119.56
6275,E2,1396.802,333/1000,64,119.56
6276,C4,1397.0,0.5,67,119.56
6277,C5,1397.0,0.5,67,119.56
6278,E4,1397.0,0.5,67,119.56
6279,C#2,1397.135,333/1000,64,119.56
6280,D1,1397.469,333/1000,73,119.56
6281,C4,1397.75,9/40,59,119.56
6282,E4,1397.75,9/40,59,119.56
6283,C5,1397.75,9/40,59,119.56
6284,D2,1397.802,73/250,66,119.56
6285,C#4,1398.0,19/20,66,119.56
6286,E4,1398.0,19/20,66,119.56
6287,B-4,1398.0,19/20,66,119.56
6288,C#5,1398.0,19/20,66,119.56
6289,D2,1398.135,333/1000,66,119.56
6290,D3,1398.469,333/1000,75,119.56
6291,C#3,1398.802,333/1000,66,119.56
6292,C#5,1399.0,1.0,68,119.56
6293,E5,1399.0,1.0,68,119.56
6294,B-5,1399.0,1.0,68,119.56
6295,C#6,1399.0,1.0,68,119.56
6296,E3,1399.135,333/1000,67,119.56
6297,D3,1399.469,333/1000,75,119.56
6298,A2,1399.802,333/1000,66,119.56
6299,B-5,1400.0,1.0,72,119.56
6300,D5,1400.0,1.0,72,119.56
6301,F5,1400.0,1.0,72,119.56
6302,D6,1400.0,1.0,72,119.56
6303,F2,1400.135,333/1000,66,119.56
6304,D2,1400.469,333/1000,77,119.56
6305,A1,1400.802,333/1000,68,119.56
6306,D4,1401.0,0.5,67,119.56
6307,D5,1401.0,0.5,67,119.56
6308,B-4,1401.0,0.5,67,119.56
6309,D1,1401.135,333/1000,68,119.56
6310,G1,1401.469,333/1000,78,119.56
6311,D4,1401.75,9/40,59,119.56
6312,B-4,1401.75,9/40,59,119.56
6313,D5,1401.75,9/40,59,119.56
6314,G2,1401.802,73/250,69,119.56
6315,E4,1402.0,19/20,66,119.56
6316,B-4,1402.0,19/20,66,119.56
6317,C#5,1402.0,19/20,66,119.56
6318,E5,1402.0,19/20,66,119.56
6319,G2,1402.135,333/1000,69,119.56
6320,G3,1402.469,333/1000,79,119.56
6321,F#3,1402.802,333/1000,70,119.56
6322,E5,1403.0,1.0,70,119.56
6323,B-5,1403.0,1.0,70,119.56
6324,C#6,1403.0,1.0,70,119.56
6325,E6,1403.0,1.0,70,119.56
6326,G3,1403.135,333/1000,71,119.56
6327,G2,1403.469,333/1000,80,119.56
6328,G3,1403.802,73/250,70,119.56
6329,D6,1404.0,1.0,75,119.56
6330,F5,1404.0,1.0,75,119.56
6331,A5,1404.0,1.0,75,119.56
6332,F6,1404.0,1.0,75,119.56
6333,G3,1404.135,333/1000,70,119.56
6334,G4,1404.469,333/1000,81,119.56
6335,F#4,1404.802,333/1000,72,119.56
6336,A4,1405.0,0.5,69,119.56
6337,F4,1405.0,0.5,69,119.56
6338,F5,1405.0,0.5,69,119.56
6339,D5,1405.0,0.5,69,119.56
6340,A4,1405.135,333/1000,71,119.56
6341,G4,1405.469,333/1000,82,119.56
6342,A4,1405.75,0.25,62,119.56
6343,F4,1405.75,0.25,62,119.56
6344,D5,1405.75,0.25,62,119.56
6345,F5,1405.75,0.25,62,119.56
6346,E4,1405.802,333/1000,73,119.56
6347,A4,1406.0,1.0,70,119.56
6348,C5,1406.0,1.0,70,119.56
6349,F5,1406.0,1.0,70,119.56
6350,A5,1406.0,1.0,70,119.56
6351,B3,1406.135,333/1000,73,119.56
6352,G3,1406.469,333/1000,83,119.56
6353,D3,1406.802,333/1000,74,119.56
6354,A5,1407.0,1.0,81,119.56
6355,C6,1407.0,1.0,81,119.56
6356,F6,1407.0,1.0,81,119.56
6357,A6,1407.0,1.0,81,119.56
6358,B2,1407.135,333/1000,74,119.56
6359,G2,1407.469,333/1000,84,119.56
6360,D2,1407.802,333/1000,74,119.56
6361,A5,1408.0,47/50,81,119.56
6362,C6,1408.0,47/50,81,119.56
6363,F6,1408.0,47/50,81,119.56
6364,A6,1408.0,47/50,81,119.56
6365,B1,1408.135,333/1000,74,119.56
6366,G1,1408.469,333/1000,85,119.56
6367,D2,1408.802,333/1000,76,119.56
6368,A5,1409.0,2.0,83,119.56
6369,C6,1409.0,2.0,83,119.56
6370,F6,1409.0,2.0,83,119.56
6371,A6,1409.0,2.0,83,119.56
6372,G2,1409.135,333/1000,75,119.56
6373,C2,1409.469,1.0,86,119.56
6374,C3,1410.969,9/20,67,119.56
6375,G3,1410.969,9/20,67,119.56
6376,C4,1410.969,9/20,67,119.56
6377,G5,1411.0,1.0,85,119.56
6378,B5,1411.0,1.0,85,119.56
6379,E6,1411.0,1.0,85,119.56
6380,G6,1411.0,1.0,85,119.56
6381,C3,1411.469,1.0,67,119.56
6382,G3,1411.469,1.0,67,119.56
6383,C4,1411.469,1.0,67,119.56
6384,G5,1412.0,1.0,85,119.56
6385,B5,1412.0,1.0,85,119.56
6386,E6,1412.0,1.0,85,119.56
6387,G6,1412.0,1.0,85,119.56
6388,D3,1412.469,0.25,62,119.56
6389,D4,1412.469,0.25,62,119.56
6390,E3,1412.969,0.25,67,119.56
6391,C4,1412.969,0.25,67,119.56
6392,E4,1412.969,0.25,67,119.56
6393,F6,1413.0,2.0,88,119.56
6394,F5,1413.0,2.0,88,119.56
6395,B5,1413.0,2.0,88,119.56
6396,D6,1413.0,2.0,88,119.56
6397,F3,1413.469,0.25,68,119.56
6398,C4,1413.469,0.25,68,119.56
6399,F4,1413.469,0.25,68,119.56
6400,E3,1414.469,0.25,63,119.56
6401,C4,1414.469,0.25,63,119.56
6402,E4,1414.469,0.25,63,119.56
6403,B4,1415.0,19/20,82,119.56
6404,F5,1415.0,19/20,82,119.56
6405,G5,1415.0,19/20,82,119.56
6406,B5,1415.0,19/20,82,119.56
6407,C5,1416.0,1.0,83,119.56
6408,E5,1416.0,1.0,83,119.56
6409,G5,1416.0,1.0,83,119.56
6410,C6,1416.0,1.0,83,119.56
6411,A1,1416.969,9/20,64,119.56
6412,A2,1416.969,9/20,64,119.56
6413,A1,1417.469,97/50,68,119.56
6414,A2,1417.469,97/50,68,119.56
6415,E5,1417.5,9/20,71,119.56
6416,C5,1417.5,9/20,71,119.56
6417,E4,1417.5,9/20,71,119.56
6418,E5,1418.0,1.0,76,119.56
6419,E4,1418.0,1.0,76,119.56
6420,C5,1418.0,1.0,76,119.56
6421,C5,1419.0,0.25,73,119.56
6422,F4,1419.0,0.25,73,119.56
6423,F5,1419.0,0.25,73,119.56
6424,F1,1419.469,19/20,68,119.56
6425,F2,1419.469,19/20,68,119.56
6426,G4,1419.5,0.25,77,119.56
6427,C5,1419.5,0.25,77,119.56
6428,G5,1419.5,0.25,77,119.56
6429,A4,1420.0,0.25,80,119.56
6430,C5,1420.0,0.25,80,119.56
6431,A5,1420.0,0.25,80,119.56
6432,E1,1420.469,19/20,68,119.56
6433,E2,1420.469,19/20,68,119.56
6434,G4,1421.0,0.25,76,119.56
6435,G5,1421.0,0.25,76,119.56
6436,C5,1421.0,0.25,76,119.56
6437,D1,1421.469,2.0,68,119.56
6438,D2,1421.469,4.0,80,119.56
6439,G1,1423.469,97/50,65,119.56
6440,C4,1423.5,9/20,73,119.56
6441,A3,1423.5,9/20,73,119.56
6442,E3,1423.5,9/20,73,119.56
6443,C4,1424.0,97/50,79,119.56
6444,E3,1424.0,97/50,79,119.56
6445,A3,1424.0,97/50,79,119.56
6446,C1,1425.469,4.0,76,119.56
6447,C2,1425.469,4.0,76,119.56
6448,A3,1426.0,19/20,76,119.56
6449,C4,1426.0,19/20,76,119.56
6450,D4,1426.0,19/20,76,119.56
6451,A3,1427.0,19/20,77,119.56
6452,C4,1427.0,19/20,77,119.56
6453,E4,1427.0,19/20,77,119.56
6454,F4,1428.0,4.0,89,119.56
6455,A3,1428.0,2.0,75,119.56
6456,C4,1428.0,2.0,75,119.56
6457,G3,1430.0,97/50,83,119.56
6458,B3,1430.0,97/50,83,119.56
6459,G3,1432.0,4.0,78,119.56
6460,C4,1432.0,4.0,78,119.56
6461,E4,1432.0,4.0,78,119.56
