,note_name,start_time,duration,velocity,tempo
0,C5,0.0,0.25,40,125.5
1,E4,0.0,0.25,28,125.5
2,C4,0.0,0.25,28,125.5
3,D5,0.25,0.25,42,125.5
4,E5,0.5,0.25,46,125.5
5,G3,0.5,0.25,29,125.5
6,F5,0.75,0.25,49,125.5
7,F#5,1.0,0.25,52,125.5
8,G3,1.0,0.25,29,125.5
9,G5,1.25,0.25,54,125.5
10,A5,1.5,0.25,55,125.5
11,B3,1.5,0.25,24,125.5
12,F4,1.5,0.25,24,125.5
13,G5,1.75,0.25,51,125.5
14,F#5,2.0,0.25,53,125.5
15,G3,2.0,0.25,33,125.5
16,G5,2.25,0.25,50,125.5
17,A5,2.5,0.25,53,125.5
18,G3,2.5,0.25,24,125.5
19,B5,2.75,0.25,49,125.5
20,C6,3.0,0.25,46,125.5
21,E4,3.0,0.25,28,125.5
22,C4,3.0,0.25,28,125.5
23,D6,3.25,0.25,48,125.5
24,E6,3.5,0.25,52,125.5
25,G3,3.5,0.25,29,125.5
26,F6,3.75,0.25,56,125.5
27,F#6,4.0,0.25,59,125.5
28,G3,4.0,0.25,29,125.5
29,G6,4.25,0.25,62,125.5
30,A6,4.5,0.25,63,125.5
31,F4,4.5,0.25,32,125.5
32,B3,4.5,0.25,32,125.5
33,G6,4.75,0.25,58,125.5
34,F#6,5.0,0.25,60,125.5
35,G3,5.0,0.25,45,125.5
36,G6,5.25,0.25,57,125.5
37,A6,5.5,0.25,60,125.5
38,G3,5.5,0.25,41,125.5
39,B6,5.75,0.25,56,125.5
40,C7,6.0,0.25,65,125.5
41,C4,6.0,0.25,59,125.5
42,E4,6.0,0.25,59,125.5
43,E7,6.25,0.25,67,125.5
44,G7,6.5,0.25,69,125.5
45,C4,6.5,0.25,51,125.5
46,E4,6.5,0.25,51,125.5
47,F7,6.75,0.25,64,125.5
48,E7,7.0,0.25,69,125.5
49,D7,7.25,0.25,64,125.5
50,C7,7.5,0.25,68,125.5
51,E3,7.5,0.25,52,125.5
52,G3,7.5,0.25,52,125.5
53,C4,7.5,0.25,52,125.5
54,B6,7.75,0.25,59,125.5
55,A6,8.0,0.25,68,125.5
56,E3,8.0,0.25,47,125.5
57,C4,8.0,0.25,47,125.5
58,G3,8.0,0.25,47,125.5
59,G6,8.25,0.25,61,125.5
60,F6,8.5,0.25,66,125.5
61,E6,8.75,0.25,61,125.5
62,D6,9.0,0.25,63,125.5
63,D4,9.0,0.25,50,125.5
64,A3,9.0,0.25,50,125.5
65,F3,9.0,0.25,50,125.5
66,E6,9.25,0.25,65,125.5
67,F6,9.5,0.25,65,125.5
68,D4,9.5,0.25,43,125.5
69,A3,9.5,0.25,43,125.5
70,F3,9.5,0.25,43,125.5
71,E6,9.75,0.25,62,125.5
72,D6,10.0,0.25,61,125.5
73,C6,10.25,0.25,59,125.5
74,B5,10.5,0.25,57,125.5
75,G3,10.5,0.25,36,125.5
76,B3,10.5,0.25,36,125.5
77,F4,10.5,0.25,36,125.5
78,A5,10.75,0.25,51,125.5
79,G5,11.0,0.25,53,125.5
80,G3,11.0,0.25,28,125.5
81,B3,11.0,0.25,28,125.5
82,F4,11.0,0.25,28,125.5
83,F5,11.25,0.25,48,125.5
84,E5,11.5,0.25,54,125.5
85,D5,11.75,0.25,46,125.5
86,C5,12.0,0.25,40,125.5
87,E4,12.0,0.25,28,125.5
88,C4,12.0,0.25,28,125.5
89,D5,12.25,0.25,42,125.5
90,E5,12.5,0.25,46,125.5
91,G3,12.5,0.25,29,125.5
92,F5,12.75,0.25,49,125.5
93,F#5,13.0,0.25,52,125.5
94,G3,13.0,0.25,29,125.5
95,G5,13.25,0.25,54,125.5
96,A5,13.5,0.25,55,125.5
97,B3,13.5,0.25,24,125.5
98,F4,13.5,0.25,24,125.5
99,G5,13.75,0.25,51,125.5
100,F#5,14.0,0.25,53,125.5
101,G3,14.0,0.25,33,125.5
102,G5,14.25,0.25,50,125.5
103,A5,14.5,0.25,53,125.5
104,G3,14.5,0.25,24,125.5
105,B5,14.75,0.25,49,125.5
106,C6,15.0,0.25,46,125.5
107,E4,15.0,0.25,28,125.5
108,C4,15.0,0.25,28,125.5
109,D6,15.25,0.25,48,125.5
110,E6,15.5,0.25,52,125.5
111,G3,15.5,0.25,29,125.5
112,F6,15.75,0.25,54,125.5
113,F#6,16.0,0.25,59,125.5
114,G3,16.0,0.25,29,125.5
115,G6,16.25,0.25,62,125.5
116,A6,16.5,0.25,63,125.5
117,F4,16.5,0.25,32,125.5
118,B3,16.5,0.25,32,125.5
119,G6,16.75,0.25,58,125.5
120,F#6,17.0,0.25,60,125.5
121,G3,17.0,0.25,45,125.5
122,G6,17.25,0.25,57,125.5
123,A6,17.5,0.25,60,125.5
124,G3,17.5,0.25,41,125.5
125,B6,17.75,0.25,56,125.5
126,C7,18.0,0.25,65,125.5
127,C4,18.0,0.25,59,125.5
128,E4,18.0,0.25,59,125.5
129,D7,18.25,0.25,67,125.5
130,E7,18.5,0.25,69,125.5
131,C4,18.5,0.25,51,125.5
132,E4,18.5,0.25,51,125.5
133,D7,18.75,0.25,64,125.5
134,C7,19.0,0.25,69,125.5
135,B6,19.25,0.25,64,125.5
136,A6,19.5,0.25,68,125.5
137,C3,19.5,0.25,52,125.5
138,E3,19.5,0.25,52,125.5
139,A3,19.5,0.25,52,125.5
140,B6,19.75,0.25,59,125.5
141,C7,20.0,0.25,68,125.5
142,C3,20.0,0.25,47,125.5
143,A3,20.0,0.25,47,125.5
144,E3,20.0,0.25,47,125.5
145,B6,20.25,0.25,61,125.5
146,A6,20.5,0.25,66,125.5
147,G6,20.75,0.25,61,125.5
148,F#6,21.0,0.25,63,125.5
149,C4,21.0,0.25,50,125.5
150,F#3,21.0,0.25,50,125.5
151,D3,21.0,0.25,50,125.5
152,E6,21.25,0.25,64,125.5
153,D6,21.5,0.25,62,125.5
154,C4,21.5,0.25,42,125.5
155,F#3,21.5,0.25,42,125.5
156,D3,21.5,0.25,42,125.5
157,C6,21.75,0.25,62,125.5
158,B5,22.0,0.25,61,125.5
159,A5,22.25,0.25,59,125.5
160,G5,22.5,0.25,51,125.5
161,G3,22.5,0.25,37,125.5
162,B3,22.5,0.25,37,125.5
163,F#5,22.75,0.25,40,125.5
164,A5,23.0,0.25,48,125.5
165,G5,23.25,0.25,37,125.5
166,F5,23.5,0.25,42,125.5
167,D5,23.75,0.25,35,125.5
168,C5,24.0,0.25,40,125.5
169,E4,24.0,0.25,28,125.5
170,C4,24.0,0.25,28,125.5
171,D5,24.25,0.25,42,125.5
172,E5,24.5,0.25,46,125.5
173,G3,24.5,0.25,29,125.5
174,F5,24.75,0.25,49,125.5
175,F#5,25.0,0.25,52,125.5
176,G3,25.0,0.25,29,125.5
177,G5,25.25,0.25,54,125.5
178,A5,25.5,0.25,55,125.5
179,B3,25.5,0.25,24,125.5
180,F4,25.5,0.25,24,125.5
181,G5,25.75,0.25,51,125.5
182,F#5,26.0,0.25,53,125.5
183,G3,26.0,0.25,33,125.5
184,G5,26.25,0.25,50,125.5
185,A5,26.5,0.25,53,125.5
186,G3,26.5,0.25,24,125.5
187,B5,26.75,0.25,49,125.5
188,C6,27.0,0.25,46,125.5
189,E4,27.0,0.25,28,125.5
190,C4,27.0,0.25,28,125.5
191,D6,27.25,0.25,48,125.5
192,E6,27.5,0.25,52,125.5
193,G3,27.5,0.25,29,125.5
194,F6,27.75,0.25,56,125.5
195,F#6,28.0,0.25,59,125.5
196,G3,28.0,0.25,29,125.5
197,G6,28.25,0.25,62,125.5
198,A6,28.5,0.25,63,125.5
199,F4,28.5,0.25,32,125.5
200,B3,28.5,0.25,32,125.5
201,G6,28.75,0.25,58,125.5
202,F#6,29.0,0.25,60,125.5
203,G3,29.0,0.25,45,125.5
204,G6,29.25,0.25,57,125.5
205,A6,29.5,0.25,60,125.5
206,G3,29.5,0.25,41,125.5
207,B6,29.75,0.25,56,125.5
208,C7,30.0,0.25,65,125.5
209,C4,30.0,0.25,59,125.5
210,E4,30.0,0.25,59,125.5
211,E7,30.25,0.25,67,125.5
212,G7,30.5,0.25,69,125.5
213,C4,30.5,0.25,51,125.5
214,E4,30.5,0.25,51,125.5
215,F7,30.75,0.25,64,125.5
216,E7,31.0,0.25,69,125.5
217,D7,31.25,0.25,64,125.5
218,C7,31.5,0.25,68,125.5
219,E3,31.5,0.25,52,125.5
220,G3,31.5,0.25,52,125.5
221,C4,31.5,0.25,52,125.5
222,B6,31.75,0.25,59,125.5
223,A6,32.0,0.25,68,125.5
224,E3,32.0,0.25,47,125.5
225,C4,32.0,0.25,47,125.5
226,G3,32.0,0.25,47,125.5
227,G6,32.25,0.25,61,125.5
228,F6,32.5,0.25,66,125.5
229,E6,32.75,0.25,61,125.5
230,D6,33.0,0.25,63,125.5
231,D4,33.0,0.25,51,125.5
232,A3,33.0,0.25,51,125.5
233,F3,33.0,0.25,51,125.5
234,E6,33.25,0.25,65,125.5
235,F6,33.5,0.25,65,125.5
236,D4,33.5,0.25,43,125.5
237,A3,33.5,0.25,43,125.5
238,F3,33.5,0.25,43,125.5
239,E6,33.75,0.25,62,125.5
240,D6,34.0,0.25,61,125.5
241,C6,34.25,0.25,59,125.5
242,B5,34.5,0.25,57,125.5
243,G3,34.5,0.25,36,125.5
244,B3,34.5,0.25,36,125.5
245,F4,34.5,0.25,36,125.5
246,A5,34.75,0.25,51,125.5
247,G5,35.0,0.25,53,125.5
248,G3,35.0,0.25,28,125.5
249,B3,35.0,0.25,28,125.5
250,F4,35.0,0.25,28,125.5
251,F5,35.25,0.25,48,125.5
252,E5,35.5,0.25,54,125.5
253,D5,35.75,0.25,46,125.5
254,C5,36.0,0.25,40,125.5
255,E4,36.0,0.25,28,125.5
256,C4,36.0,0.25,28,125.5
257,D5,36.25,0.25,42,125.5
258,E5,36.5,0.25,46,125.5
259,G3,36.5,0.25,29,125.5
260,F5,36.75,0.25,49,125.5
261,F#5,37.0,0.25,52,125.5
262,G3,37.0,0.25,29,125.5
263,G5,37.25,0.25,54,125.5
264,A5,37.5,0.25,55,125.5
265,B3,37.5,0.25,24,125.5
266,F4,37.5,0.25,24,125.5
267,G5,37.75,0.25,51,125.5
268,F#5,38.0,0.25,53,125.5
269,G3,38.0,0.25,33,125.5
270,G5,38.25,0.25,50,125.5
271,A5,38.5,0.25,53,125.5
272,G3,38.5,0.25,24,125.5
273,B5,38.75,0.25,49,125.5
274,C6,39.0,0.25,46,125.5
275,E4,39.0,0.25,28,125.5
276,C4,39.0,0.25,28,125.5
277,D6,39.25,0.25,48,125.5
278,E6,39.5,0.25,52,125.5
279,G3,39.5,0.25,29,125.5
280,F6,39.75,0.25,54,125.5
281,F#6,40.0,0.25,59,125.5
282,G3,40.0,0.25,29,125.5
283,G6,40.25,0.25,62,125.5
284,A6,40.5,0.25,63,125.5
285,F4,40.5,0.25,32,125.5
286,B3,40.5,0.25,32,125.5
287,G6,40.75,0.25,58,125.5
288,F#6,41.0,0.25,60,125.5
289,G3,41.0,0.25,45,125.5
290,G6,41.25,0.25,57,125.5
291,A6,41.5,0.25,60,125.5
292,G3,41.5,0.25,41,125.5
293,B6,41.75,0.25,56,125.5
294,C7,42.0,0.25,65,125.5
295,C4,42.0,0.25,59,125.5
296,E4,42.0,0.25,59,125.5
297,D7,42.25,0.25,67,125.5
298,E7,42.5,0.25,69,125.5
299,C4,42.5,0.25,51,125.5
300,E4,42.5,0.25,51,125.5
301,D7,42.75,0.25,64,125.5
302,C7,43.0,0.25,69,125.5
303,B6,43.25,0.25,64,125.5
304,A6,43.5,0.25,68,125.5
305,C3,43.5,0.25,52,125.5
306,E3,43.5,0.25,52,125.5
307,A3,43.5,0.25,52,125.5
308,B6,43.75,0.25,59,125.5
309,C7,44.0,0.25,68,125.5
310,C3,44.0,0.25,47,125.5
311,A3,44.0,0.25,47,125.5
312,E3,44.0,0.25,47,125.5
313,B6,44.25,0.25,61,125.5
314,A6,44.5,0.25,66,125.5
315,G6,44.75,0.25,61,125.5
316,F#6,45.0,0.25,63,125.5
317,C4,45.0,0.25,49,125.5
318,F#3,45.0,0.25,49,125.5
319,D3,45.0,0.25,49,125.5
320,E6,45.25,0.25,64,125.5
321,D6,45.5,0.25,62,125.5
322,C4,45.5,0.25,41,125.5
323,F#3,45.5,0.25,41,125.5
324,D3,45.5,0.25,41,125.5
325,C6,45.75,0.25,62,125.5
326,B5,46.0,0.25,61,125.5
327,A5,46.25,0.25,59,125.5
328,G5,46.5,0.25,53,125.5
329,G3,46.5,0.25,35,125.5
330,B3,46.5,0.25,35,125.5
331,G3,47.0,0.25,38,125.5
332,G3,47.5,0.25,38,125.5
333,F5,48.0,0.25,63,125.5
334,B3,48.0,0.25,34,125.5
335,F4,48.0,0.25,34,125.5
336,G3,48.0,0.25,34,125.5
337,G5,48.25,0.25,65,125.5
338,A5,48.5,0.25,68,125.5
339,F4,48.5,0.25,29,125.5
340,B3,48.5,0.25,29,125.5
341,G3,48.5,0.25,29,125.5
342,G5,48.75,0.25,70,125.5
343,F5,49.0,0.25,68,125.5
344,F4,49.0,0.25,29,125.5
345,B3,49.0,0.25,29,125.5
346,G3,49.0,0.25,29,125.5
347,E5,49.25,0.25,62,125.5
348,D5,49.5,0.25,64,125.5
349,F4,49.5,0.25,34,125.5
350,B3,49.5,0.25,34,125.5
351,G3,49.5,0.25,34,125.5
352,E5,49.75,0.25,65,125.5
353,F5,50.0,0.25,67,125.5
354,F4,50.0,0.25,30,125.5
355,B3,50.0,0.25,30,125.5
356,G3,50.0,0.25,30,125.5
357,E5,50.25,0.25,68,125.5
358,D5,50.5,0.25,65,125.5
359,F4,50.5,0.25,29,125.5
360,B3,50.5,0.25,29,125.5
361,G3,50.5,0.25,29,125.5
362,C5,50.75,0.25,61,125.5
363,B4,51.0,0.25,65,125.5
364,G3,51.0,0.25,36,125.5
365,F4,51.0,0.25,36,125.5
366,B3,51.0,0.25,36,125.5
367,C5,51.25,0.25,57,125.5
368,B4,51.5,0.25,62,125.5
369,F4,51.5,0.25,29,125.5
370,B3,51.5,0.25,29,125.5
371,G3,51.5,0.25,29,125.5
372,B-4,51.75,0.25,58,125.5
373,B4,52.0,0.25,53,125.5
374,G3,52.0,0.25,24,125.5
375,B3,52.0,0.25,24,125.5
376,F4,52.0,0.25,24,125.5
377,A5,52.25,73/250,69,125.5
378,G5,52.5,0.25,59,125.5
379,B3,52.5,0.25,31,125.5
380,F4,52.5,0.25,31,125.5
381,G3,52.5,0.25,31,125.5
382,F4,53.0,0.25,21,125.5
383,B3,53.0,0.25,21,125.5
384,G3,53.0,0.25,21,125.5
385,F4,53.5,0.25,19,125.5
386,B3,53.5,0.25,19,125.5
387,G3,53.5,0.25,19,125.5
388,F#2,54.0,3/10,63,125.5
389,C4,54.0,0.25,44,125.5
390,E4,54.0,0.25,44,125.5
391,G2,54.25,3/10,65,125.5
392,A2,54.5,3/10,68,125.5
393,E4,54.5,0.25,36,125.5
394,C4,54.5,0.25,36,125.5
395,G2,54.75,3/10,70,125.5
396,F#2,55.0,3/10,68,125.5
397,E4,55.0,0.25,36,125.5
398,C4,55.0,0.25,36,125.5
399,G2,55.25,3/10,62,125.5
400,B2,55.5,3/10,64,125.5
401,E4,55.5,0.25,44,125.5
402,C4,55.5,0.25,44,125.5
403,C3,55.75,3/10,65,125.5
404,D3,56.0,3/10,67,125.5
405,E4,56.0,0.25,38,125.5
406,C4,56.0,0.25,38,125.5
407,C3,56.25,3/10,68,125.5
408,B2,56.5,3/10,65,125.5
409,E4,56.5,0.25,36,125.5
410,C4,56.5,0.25,36,125.5
411,C3,56.75,0.25,61,125.5
412,E-3,57.0,3/10,72,125.5
413,C3,57.0,1/20,61,125.5
414,C4,57.0,0.25,55,125.5
415,E4,57.0,0.25,55,125.5
416,E3,57.25,3/10,67,125.5
417,F3,57.5,3/10,73,125.5
418,E4,57.5,0.25,52,125.5
419,C4,57.5,0.25,52,125.5
420,E3,57.75,3/10,70,125.5
421,E-3,58.0,3/10,68,125.5
422,C4,58.0,0.25,48,125.5
423,E4,58.0,0.25,48,125.5
424,E3,58.25,3/10,72,125.5
425,G3,58.5,0.25,78,125.5
426,E4,58.5,0.25,55,125.5
427,C4,58.5,0.25,55,125.5
428,C4,59.0,0.25,49,125.5
429,E4,59.0,0.25,49,125.5
430,C4,59.5,0.25,49,125.5
431,E4,59.5,0.25,49,125.5
432,F5,60.0,0.25,63,125.5
433,B3,60.0,0.25,34,125.5
434,F4,60.0,0.25,34,125.5
435,G3,60.0,0.25,34,125.5
436,G5,60.25,0.25,65,125.5
437,G#5,60.5,0.25,68,125.5
438,F4,60.5,0.25,29,125.5
439,B3,60.5,0.25,29,125.5
440,G3,60.5,0.25,29,125.5
441,G5,60.75,0.25,70,125.5
442,F5,61.0,0.25,68,125.5
443,F4,61.0,0.25,29,125.5
444,B3,61.0,0.25,29,125.5
445,G3,61.0,0.25,29,125.5
446,E-5,61.25,0.25,62,125.5
447,D5,61.5,0.25,64,125.5
448,F4,61.5,0.25,34,125.5
449,B3,61.5,0.25,34,125.5
450,G3,61.5,0.25,34,125.5
451,E-5,61.75,0.25,65,125.5
452,F5,62.0,0.25,67,125.5
453,F4,62.0,0.25,30,125.5
454,B3,62.0,0.25,30,125.5
455,G3,62.0,0.25,30,125.5
456,E-5,62.25,0.25,68,125.5
457,D5,62.5,0.25,65,125.5
458,F4,62.5,0.25,29,125.5
459,B3,62.5,0.25,29,125.5
460,G3,62.5,0.25,29,125.5
461,C5,62.75,0.25,61,125.5
462,B4,63.0,0.25,65,125.5
463,G3,63.0,0.25,36,125.5
464,F4,63.0,0.25,36,125.5
465,B3,63.0,0.25,36,125.5
466,C5,63.25,0.25,57,125.5
467,B4,63.5,0.25,62,125.5
468,F4,63.5,0.25,29,125.5
469,B3,63.5,0.25,29,125.5
470,G3,63.5,0.25,29,125.5
471,B-4,63.75,0.25,58,125.5
472,B4,64.0,0.25,53,125.5
473,G3,64.0,0.25,24,125.5
474,B3,64.0,0.25,24,125.5
475,F4,64.0,0.25,24,125.5
476,G#5,64.25,73/250,68,125.5
477,G5,64.5,0.25,59,125.5
478,B3,64.5,0.25,31,125.5
479,F4,64.5,0.25,31,125.5
480,G3,64.5,0.25,31,125.5
481,F4,65.0,0.25,21,125.5
482,B3,65.0,0.25,21,125.5
483,G3,65.0,0.25,21,125.5
484,F4,65.5,0.25,19,125.5
485,B3,65.5,0.25,19,125.5
486,G3,65.5,0.25,19,125.5
487,F#2,66.0,3/10,63,125.5
488,C4,66.0,0.25,44,125.5
489,E-4,66.0,0.25,44,125.5
490,G2,66.25,3/10,65,125.5
491,G#2,66.5,3/10,68,125.5
492,E-4,66.5,0.25,36,125.5
493,C4,66.5,0.25,36,125.5
494,G2,66.75,3/10,70,125.5
495,F#2,67.0,3/10,68,125.5
496,E-4,67.0,0.25,36,125.5
497,C4,67.0,0.25,36,125.5
498,G2,67.25,3/10,62,125.5
499,B2,67.5,3/10,64,125.5
500,E-4,67.5,0.25,44,125.5
501,C4,67.5,0.25,44,125.5
502,C3,67.75,3/10,65,125.5
503,D3,68.0,3/10,67,125.5
504,E-4,68.0,0.25,38,125.5
505,C4,68.0,0.25,38,125.5
506,C3,68.25,3/10,68,125.5
507,B2,68.5,3/10,65,125.5
508,E-4,68.5,0.25,36,125.5
509,C4,68.5,0.25,36,125.5
510,C3,68.75,0.25,61,125.5
511,D3,69.0,3/10,72,125.5
512,C3,69.0,1/20,61,125.5
513,C4,69.0,0.25,55,125.5
514,E-4,69.0,0.25,55,125.5
515,E-3,69.25,3/10,67,125.5
516,F3,69.5,3/10,73,125.5
517,E-4,69.5,0.25,52,125.5
518,C4,69.5,0.25,52,125.5
519,E-3,69.75,3/10,70,125.5
520,D3,70.0,3/10,68,125.5
521,C4,70.0,0.25,48,125.5
522,E-4,70.0,0.25,48,125.5
523,E-3,70.25,3/10,72,125.5
524,G3,70.5,0.25,78,125.5
525,E-4,70.5,0.25,55,125.5
526,C4,70.5,0.25,55,125.5
527,C4,71.0,0.25,42,125.5
528,E-4,71.0,0.25,42,125.5
529,C4,71.5,0.25,42,125.5
530,E-4,71.5,0.25,42,125.5
531,E-5,72.0,0.25,45,125.5
532,C4,72.0,0.25,29,125.5
533,E-4,72.0,0.25,29,125.5
534,G#3,72.0,0.25,29,125.5
535,F5,72.25,0.25,47,125.5
536,E-5,72.5,0.25,50,125.5
537,E-4,72.5,0.25,24,125.5
538,C4,72.5,0.25,24,125.5
539,G#3,72.5,0.25,24,125.5
540,C5,72.75,0.25,45,125.5
541,C6,73.0,0.25,51,125.5
542,E-4,73.0,0.25,24,125.5
543,C4,73.0,0.25,24,125.5
544,G#3,73.0,0.25,24,125.5
545,G3,73.5,0.25,39,125.5
546,B-3,73.5,0.25,39,125.5
547,E-4,73.5,0.25,39,125.5
548,C#6,74.0,0.5,68,125.5
549,G3,74.0,0.25,41,125.5
550,B-3,74.0,0.25,41,125.5
551,E-4,74.0,0.25,41,125.5
552,E-5,74.5,0.5,61,125.5
553,E-4,74.5,0.25,29,125.5
554,B-3,74.5,0.25,29,125.5
555,G3,74.5,0.25,29,125.5
556,E-5,75.0,0.25,45,125.5
557,C4,75.0,0.25,29,125.5
558,E-4,75.0,0.25,29,125.5
559,G#3,75.0,0.25,29,125.5
560,F5,75.25,0.25,47,125.5
561,E-5,75.5,0.25,50,125.5
562,E-4,75.5,0.25,24,125.5
563,C4,75.5,0.25,24,125.5
564,G#3,75.5,0.25,24,125.5
565,C5,75.75,0.25,45,125.5
566,C6,76.0,0.25,51,125.5
567,E-4,76.0,0.25,24,125.5
568,C4,76.0,0.25,24,125.5
569,G#3,76.0,0.25,24,125.5
570,G3,76.5,0.25,39,125.5
571,B-3,76.5,0.25,39,125.5
572,E-4,76.5,0.25,39,125.5
573,C#6,77.0,0.5,68,125.5
574,G3,77.0,0.25,41,125.5
575,B-3,77.0,0.25,41,125.5
576,E-4,77.0,0.25,41,125.5
577,E-5,77.5,0.5,61,125.5
578,E-4,77.5,0.25,29,125.5
579,B-3,77.5,0.25,29,125.5
580,G3,77.5,0.25,29,125.5
581,E-5,78.0,0.25,47,125.5
582,C4,78.0,0.25,30,125.5
583,E-4,78.0,0.25,30,125.5
584,G#3,78.0,0.25,30,125.5
585,F5,78.25,0.25,50,125.5
586,E-5,78.5,0.25,53,125.5
587,E-4,78.5,0.25,25,125.5
588,C4,78.5,0.25,25,125.5
589,G#3,78.5,0.25,25,125.5
590,C5,78.75,0.25,47,125.5
591,C6,79.0,0.25,54,125.5
592,E-4,79.0,0.25,25,125.5
593,C4,79.0,0.25,25,125.5
594,G#3,79.0,0.25,25,125.5
595,E5,79.5,0.25,53,125.5
596,C4,79.5,0.25,35,125.5
597,E4,79.5,0.25,35,125.5
598,G#3,79.5,0.25,35,125.5
599,F5,79.75,0.25,56,125.5
600,E5,80.0,0.25,59,125.5
601,E4,80.0,0.25,30,125.5
602,C4,80.0,0.25,30,125.5
603,G#3,80.0,0.25,30,125.5
604,C5,80.25,0.25,53,125.5
605,C6,80.5,0.25,61,125.5
606,E4,80.5,0.25,31,125.5
607,C4,80.5,0.25,31,125.5
608,G#3,80.5,0.25,31,125.5
609,F5,81.0,0.25,60,125.5
610,C4,81.0,0.25,42,125.5
611,F4,81.0,0.25,42,125.5
612,G#3,81.0,0.25,42,125.5
613,G5,81.25,0.25,64,125.5
614,F5,81.5,0.25,67,125.5
615,F4,81.5,0.25,36,125.5
616,C4,81.5,0.25,36,125.5
617,G#3,81.5,0.25,36,125.5
618,C5,81.75,0.25,60,125.5
619,C6,82.0,0.25,70,125.5
620,F4,82.0,0.25,37,125.5
621,C4,82.0,0.25,37,125.5
622,G#3,82.0,0.25,37,125.5
623,F#5,82.5,0.25,68,125.5
624,C4,82.5,0.25,49,125.5
625,E-4,82.5,0.25,49,125.5
626,G#3,82.5,0.25,49,125.5
627,G5,82.75,0.25,72,125.5
628,F#5,83.0,0.25,76,125.5
629,E-4,83.0,0.25,42,125.5
630,C4,83.0,0.25,42,125.5
631,G#3,83.0,0.25,42,125.5
632,C5,83.25,0.25,68,125.5
633,C6,83.5,0.25,79,125.5
634,E-4,83.5,0.25,43,125.5
635,C4,83.5,0.25,43,125.5
636,G#3,83.5,0.25,43,125.5
637,G5,84.0,0.25,81,125.5
638,E4,84.0,3.0,70,125.5
639,C4,84.0,3.0,70,125.5
640,G3,84.0,3.0,70,125.5
641,A5,84.25,0.25,69,125.5
642,B5,84.5,0.25,65,125.5
643,C6,84.75,0.188,65,125.5
644,E5,85.0,0.25,79,125.5
645,F5,85.25,0.25,68,125.5
646,F#5,85.5,0.25,65,125.5
647,G5,85.75,0.25,65,125.5
648,C5,86.0,0.25,77,125.5
649,D5,86.25,0.25,68,125.5
650,E-5,86.5,0.25,64,125.5
651,E5,86.75,0.188,64,125.5
652,G4,87.0,3/10,73,125.5
653,G3,87.0,3/10,58,125.5
654,A4,87.25,3/10,58,125.5
655,A3,87.25,3/10,46,125.5
656,B4,87.5,3/10,55,125.5
657,B3,87.5,3/10,44,125.5
658,C5,87.75,0.188,55,125.5
659,C4,87.75,0.188,44,125.5
660,E4,88.0,3/10,67,125.5
661,E3,88.0,3/10,53,125.5
662,F4,88.25,3/10,57,125.5
663,F3,88.25,3/10,45,125.5
664,F#4,88.5,3/10,55,125.5
665,F#3,88.5,3/10,44,125.5
666,G4,88.75,0.188,55,125.5
667,G3,88.75,0.188,44,125.5
668,C4,89.0,3/10,65,125.5
669,C3,89.0,3/10,52,125.5
670,D4,89.25,3/10,57,125.5
671,D3,89.25,3/10,45,125.5
672,E-4,89.5,3/10,54,125.5
673,E-3,89.5,3/10,43,125.5
674,E4,89.75,0.188,54,125.5
675,E3,89.75,0.188,43,125.5
676,G3,90.0,1.0,63,125.5
677,G2,90.0,0.25,43,125.5
678,G2,90.5,0.25,37,125.5
679,G2,91.0,0.25,37,125.5
680,E4,91.5,1.5,57,125.5
681,G4,91.5,1.5,57,125.5
682,G2,92.0,0.25,33,125.5
683,G3,92.0,0.25,33,125.5
684,G2,92.5,0.25,33,125.5
685,G3,92.5,0.25,33,125.5
686,E-4,93.0,1.5,47,125.5
687,F#4,93.0,1.5,47,125.5
688,A4,93.0,1.5,47,125.5
689,G3,93.5,0.25,31,125.5
690,G2,93.5,0.25,31,125.5
691,G3,94.0,0.25,31,125.5
692,G2,94.0,0.25,31,125.5
693,B4,94.5,1.5,39,125.5
694,F4,94.5,1.5,39,125.5
695,D4,94.5,1.5,39,125.5
696,G3,95.0,0.25,30,125.5
697,G2,95.0,0.25,30,125.5
698,G3,95.5,0.25,30,125.5
699,G2,95.5,0.25,30,125.5
700,C5,96.0,0.25,40,125.5
701,E4,96.0,0.25,28,125.5
702,C4,96.0,0.25,28,125.5
703,D5,96.25,0.25,42,125.5
704,E5,96.5,0.25,46,125.5
705,G3,96.5,0.25,29,125.5
706,F5,96.75,0.25,49,125.5
707,F#5,97.0,0.25,52,125.5
708,G3,97.0,0.25,29,125.5
709,G5,97.25,0.25,54,125.5
710,A5,97.5,0.25,55,125.5
711,B3,97.5,0.25,24,125.5
712,F4,97.5,0.25,24,125.5
713,G5,97.75,0.25,51,125.5
714,F#5,98.0,0.25,53,125.5
715,G3,98.0,0.25,33,125.5
716,G5,98.25,0.25,50,125.5
717,A5,98.5,0.25,53,125.5
718,G3,98.5,0.25,24,125.5
719,B5,98.75,0.25,49,125.5
720,C6,99.0,0.25,46,125.5
721,E4,99.0,0.25,28,125.5
722,C4,99.0,0.25,28,125.5
723,D6,99.25,0.25,48,125.5
724,E6,99.5,0.25,52,125.5
725,G3,99.5,0.25,29,125.5
726,F6,99.75,0.25,56,125.5
727,F#6,100.0,0.25,59,125.5
728,G3,100.0,0.25,29,125.5
729,G6,100.25,0.25,62,125.5
730,A6,100.5,0.25,63,125.5
731,F4,100.5,0.25,32,125.5
732,B3,100.5,0.25,32,125.5
733,G6,100.75,0.25,58,125.5
734,F#6,101.0,0.25,60,125.5
735,G3,101.0,0.25,45,125.5
736,G6,101.25,0.25,57,125.5
737,A6,101.5,0.25,60,125.5
738,G3,101.5,0.25,41,125.5
739,B6,101.75,0.25,56,125.5
740,C7,102.0,0.25,65,125.5
741,C4,102.0,0.25,59,125.5
742,E4,102.0,0.25,59,125.5
743,E7,102.25,0.25,67,125.5
744,G7,102.5,0.25,69,125.5
745,C4,102.5,0.25,51,125.5
746,E4,102.5,0.25,51,125.5
747,F7,102.75,0.25,64,125.5
748,E7,103.0,0.25,69,125.5
749,D7,103.25,0.25,64,125.5
750,C7,103.5,0.25,68,125.5
751,E3,103.5,0.25,52,125.5
752,G3,103.5,0.25,52,125.5
753,C4,103.5,0.25,52,125.5
754,B6,103.75,0.25,59,125.5
755,A6,104.0,0.25,68,125.5
756,E3,104.0,0.25,47,125.5
757,C4,104.0,0.25,47,125.5
758,G3,104.0,0.25,47,125.5
759,G6,104.25,0.25,61,125.5
760,F6,104.5,0.25,66,125.5
761,E6,104.75,0.25,61,125.5
762,D6,105.0,0.25,63,125.5
763,D4,105.0,0.25,50,125.5
764,A3,105.0,0.25,50,125.5
765,F3,105.0,0.25,50,125.5
766,E6,105.25,0.25,65,125.5
767,F6,105.5,0.25,65,125.5
768,D4,105.5,0.25,43,125.5
769,A3,105.5,0.25,43,125.5
770,F3,105.5,0.25,43,125.5
771,E6,105.75,0.25,62,125.5
772,D6,106.0,0.25,61,125.5
773,C6,106.25,0.25,59,125.5
774,B5,106.5,0.25,57,125.5
775,G3,106.5,0.25,36,125.5
776,B3,106.5,0.25,36,125.5
777,F4,106.5,0.25,36,125.5
778,A5,106.75,0.25,51,125.5
779,G5,107.0,0.25,53,125.5
780,G3,107.0,0.25,28,125.5
781,B3,107.0,0.25,28,125.5
782,F4,107.0,0.25,28,125.5
783,F5,107.25,0.25,48,125.5
784,E5,107.5,0.25,54,125.5
785,D5,107.75,0.25,46,125.5
786,C5,108.0,0.25,48,125.5
787,E4,108.0,0.25,40,125.5
788,C4,108.0,0.25,40,125.5
789,D5,108.25,0.25,50,125.5
790,E5,108.5,0.25,53,125.5
791,G3,108.5,0.25,35,125.5
792,F5,108.75,0.25,55,125.5
793,F#5,109.0,0.25,58,125.5
794,G3,109.0,0.25,39,125.5
795,G5,109.25,0.25,62,125.5
796,A5,109.5,0.25,77,125.5
797,B-3,109.5,1.5,70,125.5
798,G5,109.75,0.25,66,125.5
799,F#5,110.0,0.25,66,125.5
800,E4,110.0,0.25,48,125.5
801,C4,110.0,0.25,48,125.5
802,G5,110.25,0.25,57,125.5
803,A5,110.5,0.25,60,125.5
804,E4,110.5,0.25,48,125.5
805,C4,110.5,0.25,48,125.5
806,G5,110.75,0.188,56,125.5
807,G5,111.0,0.25,76,125.5
808,A3,111.0,1.5,71,125.5
809,F5,111.25,0.25,54,125.5
810,E5,111.5,0.25,52,125.5
811,F4,111.5,9/20,43,125.5
812,C4,111.5,9/20,43,125.5
813,F5,111.75,0.25,49,125.5
814,G5,112.0,0.25,57,125.5
815,F4,112.0,9/20,43,125.5
816,C4,112.0,9/20,43,125.5
817,F5,112.25,0.188,51,125.5
818,F5,112.5,0.25,72,125.5
819,G3,112.5,1.5,75,125.5
820,E5,112.75,0.25,49,125.5
821,E-5,113.0,0.25,55,125.5
822,E4,113.0,9/20,45,125.5
823,C4,113.0,9/20,45,125.5
824,E5,113.25,0.25,47,125.5
825,F5,113.5,0.25,55,125.5
826,C4,113.5,9/20,45,125.5
827,E4,113.5,9/20,45,125.5
828,E5,113.75,0.188,49,125.5
829,E5,114.0,0.25,74,125.5
830,F3,114.0,1.5,76,125.5
831,D5,114.25,0.25,48,125.5
832,C#5,114.5,0.25,52,125.5
833,A3,114.5,9/20,45,125.5
834,D4,114.5,9/20,45,125.5
835,D5,114.75,0.25,56,125.5
836,C#5,115.0,0.25,59,125.5
837,D4,115.0,9/20,46,125.5
838,A3,115.0,9/20,46,125.5
839,D5,115.25,0.188,62,125.5
840,E-5,115.5,0.25,70,125.5
841,F#3,115.5,1.5,80,125.5
842,C5,115.75,0.25,62,125.5
843,B4,116.0,0.25,70,125.5
844,E-4,116.0,9/20,46,125.5
845,A3,116.0,9/20,46,125.5
846,C5,116.25,0.25,63,125.5
847,B4,116.5,0.25,67,125.5
848,E-4,116.5,9/20,48,125.5
849,A3,116.5,9/20,48,125.5
850,C5,116.75,0.25,56,125.5
851,G4,117.0,0.25,59,125.5
852,E4,117.0,0.25,66,125.5
853,C4,117.0,0.25,66,125.5
854,G3,117.0,0.25,66,125.5
855,G5,117.25,0.25,66,125.5
856,F5,117.5,0.25,63,125.5
857,E5,117.75,0.25,63,125.5
858,D5,118.0,0.25,62,125.5
859,C5,118.25,0.25,62,125.5
860,B4,118.5,0.25,61,125.5
861,G3,118.5,0.25,37,125.5
862,D4,118.5,0.25,37,125.5
863,F4,118.5,0.25,37,125.5
864,A4,118.75,0.25,55,125.5
865,G4,119.0,0.25,54,125.5
866,F4,119.25,0.25,51,125.5
867,E4,119.5,0.25,49,125.5
868,D4,119.75,0.25,46,125.5
869,C4,120.0,3/10,48,125.5
870,C3,120.0,1.0,61,125.5
871,E3,120.0,1.0,61,125.5
872,D4,120.25,3/10,55,125.5
873,E-4,120.5,3/10,57,125.5
874,E4,120.75,0.25,60,125.5
875,G3,121.0,0.5,66,125.5
876,B3,121.5,3/10,59,125.5
877,C3,121.5,1.0,58,125.5
878,F3,121.5,1.0,58,125.5
879,C4,121.75,3/10,58,125.5
880,C#4,122.0,3/10,53,125.5
881,D4,122.25,0.25,50,125.5
882,G3,122.5,0.5,70,125.5
883,C4,123.0,3/10,48,125.5
884,C3,123.0,1.0,61,125.5
885,E3,123.0,1.0,61,125.5
886,D4,123.25,3/10,55,125.5
887,E-4,123.5,3/10,57,125.5
888,E4,123.75,0.25,60,125.5
889,G3,124.0,0.5,66,125.5
890,B3,124.5,3/10,59,125.5
891,C3,124.5,1.0,58,125.5
892,F3,124.5,1.0,58,125.5
893,C4,124.75,3/10,58,125.5
894,C#4,125.0,3/10,53,125.5
895,D4,125.25,0.25,50,125.5
896,G3,125.5,0.5,70,125.5
897,C4,126.0,3/10,52,125.5
898,C3,126.0,1.0,66,125.5
899,E3,126.0,1.0,66,125.5
900,D4,126.25,3/10,61,125.5
901,E-4,126.5,3/10,63,125.5
902,E4,126.75,0.25,67,125.5
903,G3,127.0,0.5,74,125.5
904,G3,127.5,3/10,64,125.5
905,A3,127.75,3/10,59,125.5
906,B3,128.0,3/10,60,125.5
907,C4,128.25,0.25,60,125.5
908,E3,128.5,0.25,73,125.5
909,E3,129.0,3/10,68,125.5
910,F3,129.25,3/10,62,125.5
911,F#3,129.5,3/10,63,125.5
912,G3,129.75,0.25,63,125.5
913,C3,130.0,0.25,78,125.5
914,C3,130.5,3/10,71,125.5
915,D3,130.75,3/10,65,125.5
916,E-3,131.0,3/10,66,125.5
917,E3,131.25,0.25,66,125.5
918,G2,131.5,0.25,84,125.5
919,G#3,132.0,0.375,92,125.5
920,G#2,132.0,0.375,79,125.5
921,F#4,133.5,0.375,73,125.5
922,D5,133.5,0.375,73,125.5
923,C5,133.5,0.375,73,125.5
924,G#3,133.5,0.375,69,125.5
925,C4,133.5,0.375,69,125.5
926,D4,133.5,0.375,69,125.5
927,G3,135.0,0.375,88,125.5
928,G2,135.0,0.375,77,125.5
929,G5,136.5,0.375,72,125.5
930,B4,136.5,0.375,72,125.5
931,G4,136.5,0.375,72,125.5
932,G3,136.5,0.375,60,125.5
933,D4,136.5,0.375,60,125.5
934,F4,136.5,0.375,60,125.5
935,C4,138.0,0.375,96,125.5
936,C3,138.0,0.375,80,125.5
937,C2,138.0,0.375,80,125.5
938,C5,139.5,0.375,81,125.5
939,E5,139.5,0.375,81,125.5
940,C6,139.5,0.375,81,125.5
941,C4,139.5,0.375,64,125.5
942,E4,139.5,0.375,64,125.5
943,G4,139.5,0.375,64,125.5
