,note_name,start_time,duration,velocity,tempo
0,E4,0.0,0.25,28,144.19
1,G4,0.25,0.25,21,144.19
2,B4,0.5,0.25,36,144.19
3,G4,0.75,0.25,22,144.19
4,E4,1.0,0.25,29,144.19
5,G4,1.25,0.25,22,144.19
6,B4,1.5,0.25,39,144.19
7,G4,1.75,0.25,23,144.19
8,E4,2.0,0.25,32,144.19
9,G4,2.25,0.25,26,144.19
10,G5,2.5,1.0,58,144.19
11,B4,2.75,0.25,24,144.19
12,E4,3.0,0.25,37,144.19
13,G4,3.25,0.25,29,144.19
14,G5,3.5,0.5,57,144.19
15,B4,3.75,0.25,28,144.19
16,G5,4.0,0.5,57,144.19
17,E-4,4.0,0.25,36,144.19
18,A4,4.25,0.25,29,144.19
19,G5,4.5,1.0,64,144.19
20,B4,4.75,0.25,29,144.19
21,E-4,5.0,0.25,37,144.19
22,A4,5.25,0.25,30,144.19
23,F#5,5.5,1.0,55,144.19
24,B4,5.75,0.25,28,144.19
25,E-4,6.0,0.25,37,144.19
26,A4,6.25,0.25,30,144.19
27,F5,6.5,1.0,56,144.19
28,B4,6.75,0.25,28,144.19
29,E-4,7.0,0.25,37,144.19
30,A4,7.25,0.25,30,144.19
31,F#5,7.5,0.5,62,144.19
32,B4,7.75,0.25,28,144.19
33,F#5,8.0,0.5,62,144.19
34,E4,8.0,0.25,36,144.19
35,G4,8.25,0.25,29,144.19
36,B5,8.5,1.0,64,144.19
37,B4,8.75,0.25,41,144.19
38,E4,9.0,0.25,47,144.19
39,G4,9.25,0.25,40,144.19
40,G5,9.5,1.0,63,144.19
41,B4,9.75,0.25,39,144.19
42,E4,10.0,0.25,46,144.19
43,G4,10.25,0.25,38,144.19
44,F#5,10.5,1.0,57,144.19
45,B4,10.75,0.25,28,144.19
46,E4,11.0,0.25,37,144.19
47,G4,11.25,0.25,30,144.19
48,E5,11.5,0.5,57,144.19
49,B4,11.75,0.25,28,144.19
50,E5,12.0,0.5,57,144.19
51,E-4,12.0,0.25,36,144.19
52,A4,12.25,0.25,29,144.19
53,G5,12.5,1.0,64,144.19
54,B4,12.75,0.25,36,144.19
55,E-4,13.0,0.25,41,144.19
56,A4,13.25,0.25,34,144.19
57,F#5,13.5,1.0,63,144.19
58,B4,13.75,0.25,34,144.19
59,E-4,14.0,0.25,40,144.19
60,A4,14.25,0.25,35,144.19
61,F5,14.5,1.0,57,144.19
62,B4,14.75,0.25,28,144.19
63,E-4,15.0,0.25,37,144.19
64,A4,15.25,0.25,30,144.19
65,F#5,15.5,0.5,57,144.19
66,B4,15.75,0.25,28,144.19
67,F#5,16.0,0.5,57,144.19
68,E4,16.0,0.25,36,144.19
69,G4,16.25,0.25,29,144.19
70,G5,16.5,1.0,64,144.19
71,B4,16.75,0.25,36,144.19
72,E4,17.0,0.25,41,144.19
73,G4,17.25,0.25,34,144.19
74,G5,17.5,1.0,63,144.19
75,B4,17.75,0.25,39,144.19
76,D4,18.0,0.25,47,144.19
77,F4,18.25,0.25,40,144.19
78,G#5,18.5,1.0,70,144.19
79,B4,18.75,0.25,38,144.19
80,D4,19.0,0.25,50,144.19
81,F4,19.25,0.25,42,144.19
82,G#5,19.5,0.5,70,144.19
83,B4,19.75,0.25,46,144.19
84,G#5,20.0,0.5,70,144.19
85,C4,20.0,0.25,53,144.19
86,E4,20.25,0.25,45,144.19
87,A5,20.5,1.0,72,144.19
88,A4,20.75,0.25,36,144.19
89,C4,21.0,0.25,41,144.19
90,E4,21.25,0.25,34,144.19
91,E5,21.5,1.0,63,144.19
92,A4,21.75,0.25,34,144.19
93,C4,22.0,0.25,40,144.19
94,E4,22.25,0.25,35,144.19
95,E-5,22.5,1.0,57,144.19
96,A4,22.75,0.25,28,144.19
97,C4,23.0,0.25,37,144.19
98,E4,23.25,0.25,30,144.19
99,E5,23.5,0.5,57,144.19
100,A4,23.75,0.25,28,144.19
101,E5,24.0,0.5,57,144.19
102,B3,24.0,0.25,36,144.19
103,E4,24.25,0.25,29,144.19
104,G5,24.5,1.0,64,144.19
105,B4,24.75,0.25,36,144.19
106,B3,25.0,0.25,41,144.19
107,A4,25.25,0.25,34,144.19
108,F#5,25.5,1.0,63,144.19
109,B4,25.75,0.25,34,144.19
110,B3,26.0,0.25,40,144.19
111,G4,26.25,0.25,35,144.19
112,E5,26.5,1.0,57,144.19
113,B4,26.75,0.25,28,144.19
114,B3,27.0,0.25,37,144.19
115,F#4,27.25,0.25,30,144.19
116,E-5,27.5,0.5,57,144.19
117,B4,27.75,0.25,28,144.19
118,E-5,28.0,0.5,57,144.19
119,E4,28.0,0.25,36,144.19
120,G4,28.25,0.25,29,144.19
121,E5,28.5,0.25,55,144.19
122,B4,28.75,0.25,33,144.19
123,B-4,29.0,0.25,38,144.19
124,B4,29.25,0.25,29,144.19
125,C5,29.5,0.25,42,144.19
126,B4,29.75,0.25,30,144.19
127,B-4,30.0,0.25,38,144.19
128,B4,30.25,0.25,34,144.19
129,C5,30.5,0.25,42,144.19
130,B4,30.75,0.25,26,144.19
131,B-4,31.0,0.25,34,144.19
132,B4,31.25,0.25,27,144.19
133,C5,31.5,0.25,39,144.19
134,B4,31.75,0.25,24,144.19
135,E4,32.0,0.25,28,144.19
136,G4,32.25,0.25,21,144.19
137,B4,32.5,0.25,35,144.19
138,G4,32.75,0.25,22,144.19
139,E4,33.0,0.25,29,144.19
140,G4,33.25,0.25,22,144.19
141,B4,33.5,0.25,36,144.19
142,G4,33.75,0.25,23,144.19
143,E4,34.0,0.25,32,144.19
144,G4,34.25,0.25,26,144.19
145,G5,34.5,1.0,58,144.19
146,B4,34.75,0.25,24,144.19
147,E4,35.0,0.25,37,144.19
148,G4,35.25,0.25,29,144.19
149,G5,35.5,0.5,57,144.19
150,B4,35.75,0.25,28,144.19
151,G5,36.0,0.5,57,144.19
152,E-4,36.0,0.25,36,144.19
153,A4,36.25,0.25,29,144.19
154,G5,36.5,1.0,64,144.19
155,B4,36.75,0.25,29,144.19
156,E-4,37.0,0.25,37,144.19
157,A4,37.25,0.25,30,144.19
158,F#5,37.5,1.0,55,144.19
159,B4,37.75,0.25,28,144.19
160,E-4,38.0,0.25,37,144.19
161,A4,38.25,0.25,30,144.19
162,F5,38.5,1.0,56,144.19
163,B4,38.75,0.25,28,144.19
164,E-4,39.0,0.25,37,144.19
165,A4,39.25,0.25,30,144.19
166,F#5,39.5,0.5,62,144.19
167,B4,39.75,0.25,28,144.19
168,F#5,40.0,0.5,62,144.19
169,E4,40.0,0.25,36,144.19
170,G4,40.25,0.25,29,144.19
171,B5,40.5,1.0,64,144.19
172,B4,40.75,0.25,39,144.19
173,E4,41.0,0.25,46,144.19
174,G4,41.25,0.25,39,144.19
175,G5,41.5,1.0,63,144.19
176,B4,41.75,0.25,37,144.19
177,E4,42.0,0.25,43,144.19
178,G4,42.25,0.25,38,144.19
179,F#5,42.5,1.0,57,144.19
180,B4,42.75,0.25,28,144.19
181,E4,43.0,0.25,37,144.19
182,G4,43.25,0.25,30,144.19
183,E5,43.5,0.5,57,144.19
184,B4,43.75,0.25,28,144.19
185,E5,44.0,0.5,57,144.19
186,E-4,44.0,0.25,36,144.19
187,A4,44.25,0.25,29,144.19
188,G5,44.5,1.0,64,144.19
189,B4,44.75,0.25,36,144.19
190,E-4,45.0,0.25,41,144.19
191,A4,45.25,0.25,34,144.19
192,F#5,45.5,1.0,63,144.19
193,B4,45.75,0.25,34,144.19
194,E-4,46.0,0.25,40,144.19
195,A4,46.25,0.25,35,144.19
196,F5,46.5,1.0,57,144.19
197,B4,46.75,0.25,28,144.19
198,E-4,47.0,0.25,37,144.19
199,A4,47.25,0.25,30,144.19
200,F#5,47.5,0.5,57,144.19
201,B4,47.75,0.25,28,144.19
202,F#5,48.0,0.5,57,144.19
203,E4,48.0,0.25,36,144.19
204,G4,48.25,0.25,29,144.19
205,G5,48.5,1.0,64,144.19
206,B4,48.75,0.25,36,144.19
207,E4,49.0,0.25,41,144.19
208,G4,49.25,0.25,34,144.19
209,G5,49.5,1.0,63,144.19
210,B4,49.75,0.25,39,144.19
211,D4,50.0,0.25,47,144.19
212,F4,50.25,0.25,40,144.19
213,G#5,50.5,1.0,70,144.19
214,B4,50.75,0.25,38,144.19
215,D4,51.0,0.25,50,144.19
216,F4,51.25,0.25,42,144.19
217,G#5,51.5,0.5,70,144.19
218,B4,51.75,0.25,45,144.19
219,G#5,52.0,0.5,70,144.19
220,C4,52.0,0.25,52,144.19
221,E4,52.25,0.25,43,144.19
222,A5,52.5,1.0,70,144.19
223,A4,52.75,0.25,39,144.19
224,C4,53.0,0.25,46,144.19
225,E4,53.25,0.25,38,144.19
226,E5,53.5,1.0,63,144.19
227,A4,53.75,0.25,34,144.19
228,C4,54.0,0.25,40,144.19
229,E4,54.25,0.25,35,144.19
230,E-5,54.5,1.0,57,144.19
231,A4,54.75,0.25,28,144.19
232,C4,55.0,0.25,37,144.19
233,E4,55.25,0.25,30,144.19
234,E5,55.5,0.5,57,144.19
235,A4,55.75,0.25,28,144.19
236,E5,56.0,0.5,57,144.19
237,B3,56.0,0.25,36,144.19
238,E4,56.25,0.25,29,144.19
239,G5,56.5,1.0,64,144.19
240,B4,56.75,0.25,36,144.19
241,B3,57.0,0.25,41,144.19
242,A4,57.25,0.25,34,144.19
243,F#5,57.5,1.0,63,144.19
244,B4,57.75,0.25,34,144.19
245,B3,58.0,0.25,40,144.19
246,G4,58.25,0.25,35,144.19
247,E5,58.5,1.0,57,144.19
248,B4,58.75,0.25,28,144.19
249,B3,59.0,0.25,37,144.19
250,F#4,59.25,0.25,30,144.19
251,E-5,59.5,0.5,57,144.19
252,B4,59.75,0.25,28,144.19
253,E-5,60.0,0.5,57,144.19
254,E4,60.0,0.25,36,144.19
255,G4,60.25,0.25,29,144.19
256,E5,60.5,0.25,55,144.19
257,B4,60.75,0.25,33,144.19
258,B-4,61.0,0.25,38,144.19
259,B4,61.25,0.25,29,144.19
260,C5,61.5,0.25,42,144.19
261,B4,61.75,0.25,30,144.19
262,B-4,62.0,0.25,38,144.19
263,B4,62.25,0.25,35,144.19
264,C5,62.5,0.25,43,144.19
265,B4,62.75,0.25,28,144.19
266,B-4,63.0,0.25,37,144.19
267,B4,63.25,0.25,30,144.19
268,C5,63.5,0.25,37,144.19
269,B4,63.75,0.25,28,144.19
270,G3,64.0,0.25,35,144.19
271,B3,64.25,0.25,27,144.19
272,D4,64.5,1.0,45,144.19
273,B3,64.75,0.25,27,144.19
274,G3,65.0,0.25,35,144.19
275,B3,65.25,0.25,26,144.19
276,G4,65.5,1.0,45,144.19
277,D4,65.75,0.25,27,144.19
278,G3,66.0,0.25,36,144.19
279,B3,66.25,0.25,29,144.19
280,A4,66.5,1.0,58,144.19
281,D4,66.75,0.25,26,144.19
282,G3,67.0,0.25,39,144.19
283,B3,67.25,0.25,31,144.19
284,B4,67.5,0.5,57,144.19
285,D4,67.75,0.25,29,144.19
286,B4,68.0,0.5,57,144.19
287,F#3,68.0,0.25,36,144.19
288,C4,68.25,0.25,29,144.19
289,B4,68.5,1.0,64,144.19
290,D4,68.75,0.25,29,144.19
291,F#3,69.0,0.25,37,144.19
292,C4,69.25,0.25,30,144.19
293,A4,69.5,1.0,55,144.19
294,D4,69.75,0.25,28,144.19
295,F#3,70.0,0.25,37,144.19
296,C4,70.25,0.25,30,144.19
297,G#4,70.5,1.0,56,144.19
298,D4,70.75,0.25,28,144.19
299,F#3,71.0,0.25,37,144.19
300,C4,71.25,0.25,30,144.19
301,A4,71.5,0.5,62,144.19
302,D4,71.75,0.25,28,144.19
303,A4,72.0,0.5,62,144.19
304,G3,72.0,0.25,35,144.19
305,B3,72.25,0.25,27,144.19
306,D4,72.5,1.0,51,144.19
307,B3,72.75,0.25,27,144.19
308,G3,73.0,0.25,35,144.19
309,B3,73.25,0.25,26,144.19
310,G4,73.5,1.0,54,144.19
311,D4,73.75,0.25,27,144.19
312,G3,74.0,0.25,36,144.19
313,B3,74.25,0.25,29,144.19
314,A4,74.5,1.0,63,144.19
315,D4,74.75,0.25,26,144.19
316,G3,75.0,0.25,39,144.19
317,B3,75.25,0.25,35,144.19
318,B4,75.5,0.5,66,144.19
319,D4,75.75,0.25,42,144.19
320,B4,76.0,0.5,66,144.19
321,F#3,76.0,0.25,50,144.19
322,A3,76.25,0.25,46,144.19
323,D5,76.5,1.0,69,144.19
324,D4,76.75,0.25,47,144.19
325,F#3,77.0,0.25,56,144.19
326,A3,77.25,0.25,48,144.19
327,C#5,77.5,1.0,64,144.19
328,D4,77.75,0.25,37,144.19
329,F#3,78.0,0.25,45,144.19
330,A3,78.25,0.25,33,144.19
331,C5,78.5,1.0,68,144.19
332,D4,78.75,0.25,28,144.19
333,F#3,79.0,0.25,37,144.19
334,C4,79.25,0.25,30,144.19
335,A4,79.5,0.5,64,144.19
336,D4,79.75,0.25,28,144.19
337,A4,80.0,0.5,64,144.19
338,G3,80.0,0.25,35,144.19
339,B3,80.25,0.25,27,144.19
340,B4,80.5,1.0,58,144.19
341,D4,80.75,0.25,36,144.19
342,G3,81.0,0.25,46,144.19
343,B3,81.25,0.25,37,144.19
344,B4,81.5,1.0,66,144.19
345,D4,81.75,0.25,39,144.19
346,G#3,82.0,0.25,48,144.19
347,B3,82.25,0.25,39,144.19
348,E5,82.5,1.0,72,144.19
349,E4,82.75,0.25,46,144.19
350,G#3,83.0,0.25,53,144.19
351,B3,83.25,0.25,45,144.19
352,B4,83.5,0.5,65,144.19
353,E4,83.75,0.25,37,144.19
354,B4,84.0,0.5,65,144.19
355,A3,84.0,0.25,44,144.19
356,C4,84.25,0.25,27,144.19
357,C5,84.5,1.0,63,144.19
358,E4,84.75,0.25,39,144.19
359,A3,85.0,0.25,50,144.19
360,C4,85.25,0.25,40,144.19
361,C5,85.5,1.0,69,144.19
362,E4,85.75,0.25,47,144.19
363,B3,86.0,0.25,56,144.19
364,D4,86.25,0.25,49,144.19
365,G5,86.5,1.0,76,144.19
366,G4,86.75,0.25,56,144.19
367,B3,87.0,0.25,62,144.19
368,D4,87.25,0.25,56,144.19
369,D5,87.5,0.5,72,144.19
370,G4,87.75,0.25,46,144.19
371,D5,88.0,0.5,72,144.19
372,C4,88.0,0.25,56,144.19
373,E4,88.25,0.25,47,144.19
374,E5,88.5,1.0,71,144.19
375,G4,88.75,0.25,45,144.19
376,C4,89.0,0.25,54,144.19
377,E4,89.25,0.25,45,144.19
378,E5,89.5,1.0,69,144.19
379,G#4,89.75,0.25,47,144.19
380,C4,90.0,0.25,56,144.19
381,E4,90.25,0.25,48,144.19
382,E5,90.5,1.0,73,144.19
383,A4,90.75,0.25,50,144.19
384,C4,91.0,0.25,58,144.19
385,E4,91.25,0.25,49,144.19
386,E5,91.5,0.5,66,144.19
387,B-4,91.75,0.25,40,144.19
388,E5,92.0,0.5,66,144.19
389,B3,92.0,0.25,44,144.19
390,F#4,92.25,0.25,37,144.19
391,E-5,92.5,1.0,71,144.19
392,B4,92.75,0.25,45,144.19
393,B2,93.0,0.25,62,144.19
394,B3,93.25,0.25,45,144.19
395,B4,93.5,1.0,72,144.19
396,B3,93.75,0.25,54,144.19
397,G2,94.0,0.25,69,144.19
398,G3,94.25,0.25,52,144.19
399,B4,94.5,1.0,78,144.19
400,B3,94.75,0.25,58,144.19
401,F#2,95.0,0.25,71,144.19
402,F#3,95.25,0.25,57,144.19
403,B4,95.5,0.5,83,144.19
404,B3,95.75,13/250,50,144.19
405,B3,95.812,0.188,66,144.19
406,E4,95.875,0.125,66,144.19
407,G4,95.938,0.062,66,144.19
408,B4,96.0,0.5,83,144.19
409,B3,96.0,0.5,66,144.19
410,E4,96.0,0.5,66,144.19
411,G4,96.0,0.5,66,144.19
412,E2,96.0,0.5,71,144.19
413,E3,96.0,0.5,71,144.19
414,B4,96.5,0.25,37,144.19
415,G4,96.75,0.25,22,144.19
416,E4,97.0,0.25,28,144.19
417,G4,97.25,0.25,21,144.19
418,B4,97.5,0.25,37,144.19
419,G4,97.75,0.25,22,144.19
420,E4,98.0,0.25,30,144.19
421,G4,98.25,0.25,25,144.19
422,G5,98.5,1.0,58,144.19
423,B4,98.75,0.25,23,144.19
424,E4,99.0,0.25,36,144.19
425,G4,99.25,0.25,29,144.19
426,G5,99.5,0.5,57,144.19
427,B4,99.75,0.25,28,144.19
428,G5,100.0,0.5,57,144.19
429,E-4,100.0,0.25,36,144.19
430,A4,100.25,0.25,29,144.19
431,G5,100.5,1.0,64,144.19
432,B4,100.75,0.25,29,144.19
433,E-4,101.0,0.25,37,144.19
434,A4,101.25,0.25,30,144.19
435,F#5,101.5,1.0,55,144.19
436,B4,101.75,0.25,28,144.19
437,E-4,102.0,0.25,37,144.19
438,A4,102.25,0.25,30,144.19
439,F5,102.5,1.0,56,144.19
440,B4,102.75,0.25,28,144.19
441,E-4,103.0,0.25,37,144.19
442,A4,103.25,0.25,30,144.19
443,F#5,103.5,0.5,62,144.19
444,B4,103.75,0.25,28,144.19
445,F#5,104.0,0.5,62,144.19
446,E4,104.0,0.25,36,144.19
447,G4,104.25,0.25,29,144.19
448,C6,104.5,1.0,69,144.19
449,B4,104.75,0.25,41,144.19
450,E4,105.0,0.25,47,144.19
451,G4,105.25,0.25,39,144.19
452,B5,105.5,1.0,66,144.19
453,B4,105.75,0.25,38,144.19
454,E4,106.0,0.25,44,144.19
455,G4,106.25,0.25,35,144.19
456,G5,106.5,1.0,57,144.19
457,B4,106.75,0.25,28,144.19
458,E4,107.0,0.25,37,144.19
459,G4,107.25,0.25,30,144.19
460,E5,107.5,0.5,57,144.19
461,B4,107.75,0.25,28,144.19
462,E5,108.0,0.5,57,144.19
463,E-4,108.0,0.25,36,144.19
464,A4,108.25,0.25,29,144.19
465,G5,108.5,1.0,64,144.19
466,B4,108.75,0.25,36,144.19
467,E-4,109.0,0.25,41,144.19
468,A4,109.25,0.25,34,144.19
469,F#5,109.5,1.0,63,144.19
470,B4,109.75,0.25,34,144.19
471,E-4,110.0,0.25,40,144.19
472,A4,110.25,0.25,35,144.19
473,F5,110.5,1.0,57,144.19
474,B4,110.75,0.25,28,144.19
475,E-4,111.0,0.25,37,144.19
476,A4,111.25,0.25,30,144.19
477,F#5,111.5,0.5,57,144.19
478,B4,111.75,0.25,28,144.19
479,F#5,112.0,0.5,57,144.19
480,E4,112.0,0.25,36,144.19
481,G4,112.25,0.25,29,144.19
482,G5,112.5,1.0,64,144.19
483,B4,112.75,0.25,36,144.19
484,E4,113.0,0.25,41,144.19
485,G4,113.25,0.25,34,144.19
486,G5,113.5,1.0,63,144.19
487,B4,113.75,0.25,39,144.19
488,D4,114.0,0.25,47,144.19
489,F4,114.25,0.25,40,144.19
490,G#5,114.5,1.0,70,144.19
491,B4,114.75,0.25,43,144.19
492,D4,115.0,0.25,54,144.19
493,F4,115.25,0.25,48,144.19
494,G#5,115.5,0.5,70,144.19
495,B4,115.75,0.25,47,144.19
496,G#5,116.0,0.5,70,144.19
497,C4,116.0,0.25,55,144.19
498,E4,116.25,0.25,47,144.19
499,A5,116.5,1.0,73,144.19
500,A4,116.75,0.25,36,144.19
501,C4,117.0,0.25,41,144.19
502,E4,117.25,0.25,34,144.19
503,E5,117.5,1.0,63,144.19
504,A4,117.75,0.25,34,144.19
505,C4,118.0,0.25,40,144.19
506,E4,118.25,0.25,35,144.19
507,E-5,118.5,1.0,57,144.19
508,A4,118.75,0.25,28,144.19
509,C4,119.0,0.25,37,144.19
510,E4,119.25,0.25,30,144.19
511,E5,119.5,0.5,57,144.19
512,A4,119.75,0.25,28,144.19
513,E5,120.0,0.5,57,144.19
514,B3,120.0,0.25,36,144.19
515,E4,120.25,0.25,29,144.19
516,G5,120.5,1.0,64,144.19
517,B4,120.75,0.25,36,144.19
518,B3,121.0,0.25,41,144.19
519,A4,121.25,0.25,34,144.19
520,F#5,121.5,1.0,63,144.19
521,B4,121.75,0.25,34,144.19
522,B3,122.0,0.25,40,144.19
523,G4,122.25,0.25,35,144.19
524,E5,122.5,1.0,57,144.19
525,B4,122.75,0.25,28,144.19
526,B3,123.0,0.25,37,144.19
527,F#4,123.25,0.25,30,144.19
528,E-5,123.5,0.5,57,144.19
529,B4,123.75,0.25,28,144.19
530,E-5,124.0,0.5,57,144.19
531,E4,124.0,0.25,36,144.19
532,G4,124.25,0.25,29,144.19
533,E5,124.5,0.25,55,144.19
534,B4,124.75,0.25,33,144.19
535,B-4,125.0,0.25,38,144.19
536,B4,125.25,0.25,29,144.19
537,C5,125.5,0.25,42,144.19
538,B4,125.75,0.25,30,144.19
539,B-4,126.0,0.25,38,144.19
540,B4,126.25,0.25,35,144.19
541,C5,126.5,0.25,44,144.19
542,B4,126.75,0.25,28,144.19
543,B-4,127.0,0.25,37,144.19
544,B4,127.25,0.25,30,144.19
545,C5,127.5,0.25,39,144.19
546,B4,127.75,0.25,28,144.19
547,G3,128.0,0.25,35,144.19
548,B3,128.25,0.25,27,144.19
549,D4,128.5,1.0,45,144.19
550,B3,128.75,0.25,27,144.19
551,G3,129.0,0.25,35,144.19
552,B3,129.25,0.25,26,144.19
553,G4,129.5,1.0,45,144.19
554,D4,129.75,0.25,27,144.19
555,G3,130.0,0.25,36,144.19
556,B3,130.25,0.25,29,144.19
557,A4,130.5,1.0,58,144.19
558,D4,130.75,0.25,26,144.19
559,G3,131.0,0.25,39,144.19
560,B3,131.25,0.25,31,144.19
561,B4,131.5,0.5,57,144.19
562,D4,131.75,0.25,38,144.19
563,B4,132.0,0.5,57,144.19
564,F#3,132.0,0.25,44,144.19
565,C4,132.25,0.25,37,144.19
566,B4,132.5,1.0,64,144.19
567,D4,132.75,0.25,38,144.19
568,F#3,133.0,0.25,43,144.19
569,C4,133.25,0.25,37,144.19
570,A4,133.5,1.0,55,144.19
571,D4,133.75,0.25,28,144.19
572,F#3,134.0,0.25,37,144.19
573,C4,134.25,0.25,30,144.19
574,G#4,134.5,1.0,56,144.19
575,D4,134.75,0.25,28,144.19
576,F#3,135.0,0.25,37,144.19
577,C4,135.25,0.25,30,144.19
578,A4,135.5,0.5,62,144.19
579,D4,135.75,0.25,28,144.19
580,A4,136.0,0.5,62,144.19
581,G3,136.0,0.25,35,144.19
582,B3,136.25,0.25,27,144.19
583,D4,136.5,1.0,51,144.19
584,B3,136.75,0.25,27,144.19
585,G3,137.0,0.25,35,144.19
586,B3,137.25,0.25,26,144.19
587,G4,137.5,1.0,54,144.19
588,D4,137.75,0.25,27,144.19
589,G3,138.0,0.25,36,144.19
590,B3,138.25,0.25,29,144.19
591,A4,138.5,1.0,63,144.19
592,D4,138.75,0.25,26,144.19
593,G3,139.0,0.25,39,144.19
594,B3,139.25,0.25,35,144.19
595,B4,139.5,0.5,61,144.19
596,D4,139.75,0.25,42,144.19
597,B4,140.0,0.5,61,144.19
598,F#3,140.0,0.25,50,144.19
599,A3,140.25,0.25,43,144.19
600,D5,140.5,1.0,71,144.19
601,D4,140.75,0.25,45,144.19
602,F#3,141.0,0.25,54,144.19
603,A3,141.25,0.25,48,144.19
604,C#5,141.5,1.0,64,144.19
605,D4,141.75,0.25,37,144.19
606,F#3,142.0,0.25,45,144.19
607,A3,142.25,0.25,33,144.19
608,C5,142.5,1.0,68,144.19
609,D4,142.75,0.25,28,144.19
610,F#3,143.0,0.25,37,144.19
611,C4,143.25,0.25,30,144.19
612,A4,143.5,0.5,64,144.19
613,D4,143.75,0.25,28,144.19
614,A4,144.0,0.5,64,144.19
615,G3,144.0,0.25,35,144.19
616,B3,144.25,0.25,27,144.19
617,B4,144.5,1.0,58,144.19
618,D4,144.75,0.25,36,144.19
619,G3,145.0,0.25,46,144.19
620,B3,145.25,0.25,37,144.19
621,B4,145.5,1.0,66,144.19
622,D4,145.75,0.25,39,144.19
623,G#3,146.0,0.25,48,144.19
624,B3,146.25,0.25,39,144.19
625,E5,146.5,1.0,72,144.19
626,E4,146.75,0.25,49,144.19
627,G#3,147.0,0.25,56,144.19
628,B3,147.25,0.25,50,144.19
629,B4,147.5,0.5,65,144.19
630,E4,147.75,0.25,37,144.19
631,B4,148.0,0.5,65,144.19
632,A3,148.0,0.25,44,144.19
633,C4,148.25,0.25,27,144.19
634,C5,148.5,1.0,63,144.19
635,E4,148.75,0.25,39,144.19
636,A3,149.0,0.25,50,144.19
637,C4,149.25,0.25,40,144.19
638,C5,149.5,1.0,69,144.19
639,E4,149.75,0.25,42,144.19
640,B3,150.0,0.25,52,144.19
641,D4,150.25,0.25,42,144.19
642,G5,150.5,1.0,73,144.19
643,G4,150.75,0.25,50,144.19
644,B3,151.0,0.25,58,144.19
645,D4,151.25,0.25,49,144.19
646,D5,151.5,0.5,66,144.19
647,G4,151.75,0.25,40,144.19
648,D5,152.0,0.5,66,144.19
649,C4,152.0,0.25,44,144.19
650,E4,152.25,0.25,37,144.19
651,E5,152.5,1.0,71,144.19
652,G4,152.75,0.25,45,144.19
653,C4,153.0,0.25,54,144.19
654,E4,153.25,0.25,45,144.19
655,E5,153.5,1.0,69,144.19
656,G#4,153.75,0.25,47,144.19
657,C4,154.0,0.25,56,144.19
658,E4,154.25,0.25,48,144.19
659,E5,154.5,1.0,73,144.19
660,A4,154.75,0.25,50,144.19
661,C4,155.0,0.25,58,144.19
662,E4,155.25,0.25,49,144.19
663,E5,155.5,0.5,66,144.19
664,B-4,155.75,0.25,45,144.19
665,E5,156.0,0.5,66,144.19
666,B3,156.0,0.25,53,144.19
667,F#4,156.25,0.25,46,144.19
668,E-5,156.5,1.0,71,144.19
669,B4,156.75,0.25,45,144.19
670,B2,157.0,0.25,62,144.19
671,B3,157.25,0.25,45,144.19
672,B4,157.5,1.0,72,144.19
673,B3,157.75,0.25,54,144.19
674,G2,158.0,0.25,69,144.19
675,G3,158.25,0.25,52,144.19
676,B4,158.5,1.0,78,144.19
677,B3,158.75,0.25,58,144.19
678,F#2,159.0,0.25,71,144.19
679,F#3,159.25,0.25,57,144.19
680,B4,159.5,0.5,83,144.19
681,B3,159.75,13/250,50,144.19
682,B3,159.812,0.188,66,144.19
683,E4,159.875,0.125,66,144.19
684,G4,159.938,0.062,66,144.19
685,B4,160.0,0.5,83,144.19
686,B3,160.0,0.5,66,144.19
687,E4,160.0,0.5,66,144.19
688,G4,160.0,0.5,66,144.19
689,E2,160.0,0.5,71,144.19
690,E3,160.0,0.5,71,144.19
691,B4,160.5,0.25,37,144.19
692,G4,160.75,0.25,22,144.19
693,E4,161.0,0.25,28,144.19
694,G4,161.25,0.25,21,144.19
695,B4,161.5,0.25,37,144.19
696,G4,161.75,0.25,22,144.19
697,E4,162.0,0.25,30,144.19
698,G4,162.25,0.25,25,144.19
699,G5,162.5,1.0,58,144.19
700,B4,162.75,0.25,23,144.19
701,E4,163.0,0.25,36,144.19
702,G4,163.25,0.25,29,144.19
703,G5,163.5,0.5,57,144.19
704,B4,163.75,0.25,28,144.19
705,G5,164.0,0.5,57,144.19
706,E-4,164.0,0.25,36,144.19
707,A4,164.25,0.25,29,144.19
708,G5,164.5,1.0,64,144.19
709,B4,164.75,0.25,29,144.19
710,E-4,165.0,0.25,37,144.19
711,A4,165.25,0.25,30,144.19
712,F#5,165.5,1.0,55,144.19
713,B4,165.75,0.25,28,144.19
714,E-4,166.0,0.25,37,144.19
715,A4,166.25,0.25,30,144.19
716,F5,166.5,1.0,56,144.19
717,B4,166.75,0.25,28,144.19
718,E-4,167.0,0.25,37,144.19
719,A4,167.25,0.25,30,144.19
720,F#5,167.5,0.5,62,144.19
721,B4,167.75,0.25,28,144.19
722,F#5,168.0,0.5,62,144.19
723,E4,168.0,0.25,36,144.19
724,G4,168.25,0.25,29,144.19
725,C6,168.5,1.0,69,144.19
726,B4,168.75,0.25,38,144.19
727,E4,169.0,0.25,45,144.19
728,G4,169.25,0.25,39,144.19
729,B5,169.5,1.0,66,144.19
730,B4,169.75,0.25,35,144.19
731,E4,170.0,0.25,43,144.19
732,G4,170.25,0.25,35,144.19
733,G5,170.5,1.0,57,144.19
734,B4,170.75,0.25,28,144.19
735,E4,171.0,0.25,37,144.19
736,G4,171.25,0.25,30,144.19
737,E5,171.5,0.5,57,144.19
738,B4,171.75,0.25,28,144.19
739,E5,172.0,0.5,57,144.19
740,E-4,172.0,0.25,36,144.19
741,A4,172.25,0.25,29,144.19
742,G5,172.5,1.0,64,144.19
743,B4,172.75,0.25,36,144.19
744,E-4,173.0,0.25,41,144.19
745,A4,173.25,0.25,34,144.19
746,F#5,173.5,1.0,63,144.19
747,B4,173.75,0.25,34,144.19
748,E-4,174.0,0.25,40,144.19
749,A4,174.25,0.25,35,144.19
750,F5,174.5,1.0,57,144.19
751,B4,174.75,0.25,28,144.19
752,E-4,175.0,0.25,37,144.19
753,A4,175.25,0.25,30,144.19
754,F#5,175.5,0.5,57,144.19
755,B4,175.75,0.25,28,144.19
756,F#5,176.0,0.5,57,144.19
757,E4,176.0,0.25,36,144.19
758,G4,176.25,0.25,29,144.19
759,G5,176.5,1.0,64,144.19
760,B4,176.75,0.25,36,144.19
761,E4,177.0,0.25,41,144.19
762,G4,177.25,0.25,34,144.19
763,G5,177.5,1.0,63,144.19
764,B4,177.75,0.25,39,144.19
765,D4,178.0,0.25,47,144.19
766,F4,178.25,0.25,40,144.19
767,G#5,178.5,1.0,70,144.19
768,B4,178.75,0.25,45,144.19
769,D4,179.0,0.25,54,144.19
770,F4,179.25,0.25,47,144.19
771,G#5,179.5,0.5,70,144.19
772,B4,179.75,0.25,47,144.19
773,G#5,180.0,0.5,70,144.19
774,C4,180.0,0.25,54,144.19
775,E4,180.25,0.25,46,144.19
776,A5,180.5,1.0,69,144.19
777,A4,180.75,0.25,36,144.19
778,C4,181.0,0.25,41,144.19
779,E4,181.25,0.25,34,144.19
780,E5,181.5,1.0,63,144.19
781,A4,181.75,0.25,34,144.19
782,C4,182.0,0.25,40,144.19
783,E4,182.25,0.25,35,144.19
784,E-5,182.5,1.0,57,144.19
785,A4,182.75,0.25,28,144.19
786,C4,183.0,0.25,37,144.19
787,E4,183.25,0.25,30,144.19
788,E5,183.5,0.5,57,144.19
789,A4,183.75,0.25,28,144.19
790,E5,184.0,0.5,57,144.19
791,B3,184.0,0.25,36,144.19
792,E4,184.25,0.25,29,144.19
793,G5,184.5,1.0,64,144.19
794,B4,184.75,0.25,41,144.19
795,B3,185.0,0.25,47,144.19
796,A4,185.25,0.25,41,144.19
797,F#5,185.5,1.0,63,144.19
798,B4,185.75,0.25,34,144.19
799,B3,186.0,0.25,40,144.19
800,G4,186.25,0.25,35,144.19
801,E5,186.5,1.0,57,144.19
802,B4,186.75,0.25,28,144.19
803,B3,187.0,0.25,37,144.19
804,F#4,187.25,0.25,30,144.19
805,E-5,187.5,0.5,57,144.19
806,B4,187.75,0.25,28,144.19
807,E-5,188.0,0.5,57,144.19
808,E4,188.0,0.25,36,144.19
809,G4,188.25,0.25,29,144.19
810,E5,188.5,1.0,55,144.19
811,B4,188.75,0.25,33,144.19
812,E4,189.0,0.25,36,144.19
813,G4,189.25,0.25,29,144.19
814,E5,189.5,1.0,61,144.19
815,B4,189.75,0.25,40,144.19
816,E4,190.0,0.25,45,144.19
817,A4,190.25,0.25,41,144.19
818,E5,190.5,1.0,64,144.19
819,C5,190.75,0.25,47,144.19
820,E4,191.0,0.25,51,144.19
821,F#4,191.25,0.25,45,144.19
822,E5,191.5,0.5,58,144.19
823,A4,191.75,0.25,33,144.19
824,E5,192.0,0.5,58,144.19
825,E4,192.0,0.25,36,144.19
826,G4,192.25,0.25,29,144.19
827,E5,192.5,1.0,54,144.19
828,B4,192.75,0.25,34,144.19
829,E4,193.0,0.25,40,144.19
830,G4,193.25,0.25,33,144.19
831,E5,193.5,1.0,56,144.19
832,B4,193.75,0.25,40,144.19
833,E4,194.0,0.25,48,144.19
834,A4,194.25,0.25,43,144.19
835,E5,194.5,1.0,61,144.19
836,C5,194.75,0.25,43,144.19
837,E4,195.0,0.25,55,144.19
838,F#4,195.25,0.25,47,144.19
839,E5,195.5,0.5,57,144.19
840,A4,195.75,0.25,41,144.19
841,E5,196.0,0.5,57,144.19
842,E4,196.0,0.25,45,144.19
843,G4,196.25,0.25,36,144.19
844,E5,196.5,1.0,63,144.19
845,B4,196.75,0.25,41,144.19
846,E4,197.0,0.25,45,144.19
847,G4,197.25,0.25,36,144.19
848,B4,197.5,1.0,66,144.19
849,G4,197.75,0.25,44,144.19
850,B3,198.0,0.25,51,144.19
851,E4,198.25,0.25,42,144.19
852,G4,198.5,1.0,70,144.19
853,E4,198.75,0.25,46,144.19
854,G3,199.0,0.25,54,144.19
855,B3,199.25,0.25,45,144.19
856,E4,199.5,0.5,64,144.19
857,B3,199.75,0.25,49,144.19
858,E4,200.0,0.5,64,144.19
859,E3,200.0,0.25,54,144.19
860,G3,200.25,0.25,47,144.19
861,B3,200.5,1.0,63,144.19
862,G3,200.75,0.25,53,144.19
863,E3,201.0,0.25,59,144.19
864,G3,201.25,0.25,47,144.19
865,B3,201.5,1.0,65,144.19
866,G3,201.75,0.25,53,144.19
867,B2,202.0,0.25,59,144.19
868,E3,202.25,0.25,47,144.19
869,G3,202.5,1.0,68,144.19
870,E3,202.75,0.25,53,144.19
871,G2,203.0,0.25,59,144.19
872,B2,203.25,0.25,56,144.19
873,E3,203.5,0.5,63,144.19
874,B2,203.75,0.25,49,144.19
875,E2,204.0,1.0,74,144.19
876,G2,204.25,0.25,33,144.19
877,B2,204.5,0.25,54,144.19
878,G2,204.75,0.25,34,144.19
879,E2,205.0,1.0,67,144.19
880,G2,205.25,0.25,33,144.19
881,B2,205.5,0.25,51,144.19
882,G2,205.75,0.25,37,144.19
883,E2,206.0,1.0,66,144.19
884,G2,206.25,0.25,33,144.19
885,B2,206.5,0.25,56,144.19
886,G2,206.75,0.25,38,144.19
887,E2,207.0,1.0,70,144.19
888,G2,207.25,0.25,33,144.19
889,B2,207.5,0.25,57,144.19
890,G2,207.75,0.25,38,144.19
891,E2,208.0,1.0,83,144.19
892,G4,210.0,0.5,74,144.19
893,B4,210.0,0.5,74,144.19
894,E5,210.0,0.5,74,144.19
895,G5,210.0,0.5,74,144.19
896,E4,210.0,0.5,71,144.19
897,B3,210.0,0.5,71,144.19
898,E3,210.0,0.5,71,144.19
899,E3,212.0,2.0,92,144.19
900,E2,212.0,2.0,79,144.19
901,E1,212.0,2.0,79,144.19
