,note_name,start_time,duration,velocity,tempo
0,B4,0.0,0.5,49,59.0
1,G2,0.0,0.25,39,59.0
2,D5,0.125,0.125,37,59.0
3,D4,0.25,0.125,31,59.0
4,D5,0.375,0.125,38,59.0
5,B4,0.5,0.5,44,59.0
6,D3,0.5,0.5,36,59.0
7,D5,0.625,0.125,37,59.0
8,D4,0.75,0.125,31,59.0
9,D5,0.875,0.125,37,59.0
10,A4,1.0,0.5,44,59.0
11,C4,1.0,0.5,37,59.0
12,D5,1.125,0.125,36,59.0
13,D4,1.25,0.125,30,59.0
14,D5,1.375,0.125,36,59.0
15,G4,1.5,0.5,44,59.0
16,B3,1.5,0.5,34,59.0
17,D5,1.625,0.125,37,59.0
18,D4,1.75,0.125,33,59.0
19,D5,1.875,0.125,37,59.0
20,F#4,2.0,0.5,48,59.0
21,G2,2.0,0.25,38,59.0
22,D5,2.125,0.125,37,59.0
23,D4,2.25,0.125,33,59.0
24,D5,2.375,0.125,37,59.0
25,G4,2.5,0.5,47,59.0
26,D3,2.5,0.5,39,59.0
27,D5,2.625,0.125,37,59.0
28,D4,2.75,0.125,30,59.0
29,D5,2.875,0.125,37,59.0
30,C5,3.0,0.5,51,59.0
31,A3,3.0,0.5,40,59.0
32,D5,3.125,0.125,38,59.0
33,D4,3.25,0.125,34,59.0
34,D5,3.375,0.125,38,59.0
35,B4,3.5,0.5,47,59.0
36,G3,3.5,0.5,36,59.0
37,D5,3.625,0.125,36,59.0
38,D4,3.75,0.125,31,59.0
39,D5,3.875,0.125,36,59.0
40,B4,4.0,0.5,49,59.0
41,D2,4.0,0.25,41,59.0
42,D5,4.125,0.125,37,59.0
43,D4,4.25,0.125,33,59.0
44,D5,4.375,0.125,38,59.0
45,A4,4.5,0.5,53,59.0
46,F#3,4.5,0.5,38,59.0
47,D5,4.625,0.125,39,59.0
48,D4,4.75,0.125,36,59.0
49,D5,4.875,0.125,41,59.0
50,G4,5.0,0.5,55,59.0
51,E3,5.0,0.5,41,59.0
52,D5,5.125,0.125,42,59.0
53,D4,5.25,0.125,38,59.0
54,D5,5.375,0.125,45,59.0
55,A4,5.5,0.5,57,59.0
56,F#3,5.5,0.5,44,59.0
57,D5,5.625,0.125,47,59.0
58,D4,5.75,0.125,42,59.0
59,D5,5.875,0.125,50,59.0
60,B4,6.0,0.25,66,59.0
61,G2,6.0,0.25,41,59.0
62,D5,6.125,0.125,52,59.0
63,D4,6.25,0.25,58,59.0
64,D5,6.375,0.125,49,59.0
65,E-4,6.5,0.25,57,59.0
66,D3,6.5,0.5,36,59.0
67,D5,6.625,0.125,47,59.0
68,E4,6.75,0.25,57,59.0
69,D5,6.875,0.125,47,59.0
70,F4,7.0,0.25,56,59.0
71,G3,7.0,0.5,39,59.0
72,B3,7.0,0.5,39,59.0
73,D5,7.125,0.125,47,59.0
74,F#4,7.25,0.25,55,59.0
75,D5,7.375,0.125,47,59.0
76,G4,7.5,0.25,53,59.0
77,D3,7.5,0.5,37,59.0
78,D5,7.625,0.125,45,59.0
79,A4,7.75,0.25,53,59.0
80,D5,7.875,0.125,42,59.0
81,B4,8.0,0.5,53,59.0
82,G2,8.0,0.25,51,59.0
83,D5,8.125,0.125,39,59.0
84,E5,8.25,0.125,46,59.0
85,D5,8.375,0.125,38,59.0
86,B4,8.5,0.5,55,59.0
87,G3,8.5,1.5,49,59.0
88,G4,8.5,0.5,49,59.0
89,D5,8.625,0.125,40,59.0
90,E5,8.75,0.125,48,59.0
91,D5,8.875,0.125,39,59.0
92,A4,9.0,0.5,60,59.0
93,F#4,9.0,0.5,52,59.0
94,D5,9.125,0.125,46,59.0
95,E5,9.25,0.125,53,59.0
96,D5,9.375,0.125,47,59.0
97,B4,9.5,0.5,63,59.0
98,F4,9.5,0.5,56,59.0
99,G5,9.625,0.125,50,59.0
100,A5,9.75,0.125,59,59.0
101,G5,9.875,0.125,52,59.0
102,D5,10.0,0.5,69,59.0
103,G3,10.0,2.0,49,59.0
104,E4,10.0,0.5,56,59.0
105,G5,10.125,0.125,52,59.0
106,A5,10.25,0.125,58,59.0
107,G5,10.375,0.125,51,59.0
108,C5,10.5,0.5,62,59.0
109,E-4,10.5,0.5,49,59.0
110,G5,10.625,0.125,48,59.0
111,A5,10.75,0.125,52,59.0
112,G5,10.875,0.125,46,59.0
113,B4,11.0,0.5,61,59.0
114,D4,11.0,0.5,48,59.0
115,G5,11.125,0.125,49,59.0
116,A5,11.25,0.125,53,59.0
117,G5,11.375,0.125,48,59.0
118,B-4,11.5,0.5,60,59.0
119,C#4,11.5,0.5,48,59.0
120,G5,11.625,0.125,49,59.0
121,F#5,11.75,0.125,51,59.0
122,E5,11.875,0.125,49,59.0
123,B4,12.0,0.5,51,59.0
124,D3,12.0,1.5,49,59.0
125,D4,12.0,0.5,49,59.0
126,D5,12.125,0.125,40,59.0
127,E5,12.25,0.125,44,59.0
128,D5,12.375,0.125,38,59.0
129,G4,12.5,0.5,47,59.0
130,B3,12.5,0.5,38,59.0
131,D5,12.625,0.125,37,59.0
132,E5,12.75,0.125,41,59.0
133,D5,12.875,0.125,34,59.0
134,F#4,13.0,0.25,50,59.0
135,A3,13.0,0.25,42,59.0
136,D5,13.125,0.125,44,59.0
137,A4,13.25,0.25,48,59.0
138,C4,13.25,0.25,39,59.0
139,D5,13.375,0.125,41,59.0
140,C5,13.5,0.25,51,59.0
141,E4,13.5,0.25,42,59.0
142,D5,13.625,0.125,40,59.0
143,B4,13.75,0.25,50,59.0
144,D4,13.75,0.25,42,59.0
145,D5,13.875,0.125,39,59.0
146,A4,14.0,1.0,49,59.0
147,C4,14.0,1.0,40,59.0
148,G3,14.0,1.25,40,59.0
149,D5,14.125,0.125,39,59.0
150,C#5,14.25,0.125,42,59.0
151,D5,14.375,0.125,37,59.0
152,E5,14.5,0.125,42,59.0
153,D5,14.625,0.125,36,59.0
154,C#5,14.75,0.125,41,59.0
155,D5,14.875,0.125,36,59.0
156,B3,15.0,0.25,36,59.0
157,G4,15.0,0.25,52,59.0
158,G5,15.0,0.25,52,59.0
159,F#4,15.25,0.125,36,59.0
160,G4,15.375,0.125,39,59.0
161,A4,15.5,0.125,42,59.0
162,G4,15.625,0.125,38,59.0
163,F#4,15.75,0.125,41,59.0
164,G4,15.875,0.125,37,59.0
165,B4,16.0,0.5,44,59.0
166,G2,16.0,0.25,39,59.0
167,D5,16.125,0.125,37,59.0
168,D4,16.25,0.125,31,59.0
169,D5,16.375,0.125,38,59.0
170,B4,16.5,0.5,44,59.0
171,D3,16.5,0.5,36,59.0
172,D5,16.625,0.125,37,59.0
173,D4,16.75,0.125,31,59.0
174,D5,16.875,0.125,37,59.0
175,A4,17.0,0.5,44,59.0
176,C4,17.0,0.5,37,59.0
177,D5,17.125,0.125,36,59.0
178,D4,17.25,0.125,30,59.0
179,D5,17.375,0.125,36,59.0
180,G4,17.5,0.5,44,59.0
181,B3,17.5,0.5,34,59.0
182,D5,17.625,0.125,37,59.0
183,D4,17.75,0.125,33,59.0
184,D5,17.875,0.125,37,59.0
185,F#4,18.0,0.5,48,59.0
186,G2,18.0,0.25,38,59.0
187,D5,18.125,0.125,37,59.0
188,D4,18.25,0.125,33,59.0
189,D5,18.375,0.125,37,59.0
190,G4,18.5,0.5,47,59.0
191,D3,18.5,0.5,39,59.0
192,D5,18.625,0.125,37,59.0
193,D4,18.75,0.125,30,59.0
194,D5,18.875,0.125,37,59.0
195,C5,19.0,0.5,51,59.0
196,A3,19.0,0.5,40,59.0
197,D5,19.125,0.125,38,59.0
198,D4,19.25,0.125,34,59.0
199,D5,19.375,0.125,38,59.0
200,B4,19.5,0.5,47,59.0
201,G3,19.5,0.5,36,59.0
202,D5,19.625,0.125,36,59.0
203,D4,19.75,0.125,31,59.0
204,D5,19.875,0.125,36,59.0
205,B4,20.0,0.5,49,59.0
206,D2,20.0,0.25,41,59.0
207,D5,20.125,0.125,37,59.0
208,D4,20.25,0.125,33,59.0
209,D5,20.375,0.125,38,59.0
210,A4,20.5,0.5,53,59.0
211,F#3,20.5,0.5,38,59.0
212,D5,20.625,0.125,39,59.0
213,D4,20.75,0.125,36,59.0
214,D5,20.875,0.125,41,59.0
215,G4,21.0,0.5,55,59.0
216,E3,21.0,0.5,41,59.0
217,D5,21.125,0.125,42,59.0
218,D4,21.25,0.125,38,59.0
219,D5,21.375,0.125,45,59.0
220,A4,21.5,0.5,57,59.0
221,F#3,21.5,0.5,44,59.0
222,D5,21.625,0.125,47,59.0
223,D4,21.75,0.125,42,59.0
224,D5,21.875,0.125,50,59.0
225,B4,22.0,0.25,66,59.0
226,G2,22.0,0.25,41,59.0
227,D5,22.125,0.125,52,59.0
228,D4,22.25,0.25,58,59.0
229,D5,22.375,0.125,49,59.0
230,E-4,22.5,0.25,57,59.0
231,D3,22.5,0.5,36,59.0
232,D5,22.625,0.125,47,59.0
233,E4,22.75,0.25,57,59.0
234,D5,22.875,0.125,47,59.0
235,F4,23.0,0.25,56,59.0
236,G3,23.0,0.5,39,59.0
237,B3,23.0,0.5,39,59.0
238,D5,23.125,0.125,47,59.0
239,F#4,23.25,0.25,55,59.0
240,D5,23.375,0.125,47,59.0
241,G4,23.5,0.25,53,59.0
242,D3,23.5,0.5,37,59.0
243,D5,23.625,0.125,45,59.0
244,A4,23.75,0.25,53,59.0
245,D5,23.875,0.125,42,59.0
246,B4,24.0,0.5,53,59.0
247,G2,24.0,0.25,51,59.0
248,D5,24.125,0.125,39,59.0
249,E5,24.25,0.125,46,59.0
250,D5,24.375,0.125,38,59.0
251,B4,24.5,0.5,55,59.0
252,G3,24.5,1.5,49,59.0
253,G4,24.5,0.5,49,59.0
254,D5,24.625,0.125,40,59.0
255,E5,24.75,0.125,48,59.0
256,D5,24.875,0.125,39,59.0
257,A4,25.0,0.5,60,59.0
258,F#4,25.0,0.5,52,59.0
259,D5,25.125,0.125,46,59.0
260,E5,25.25,0.125,53,59.0
261,D5,25.375,0.125,47,59.0
262,B4,25.5,0.5,63,59.0
263,F4,25.5,0.5,56,59.0
264,G5,25.625,0.125,50,59.0
265,A5,25.75,0.125,59,59.0
266,G5,25.875,0.125,52,59.0
267,D5,26.0,0.5,69,59.0
268,G3,26.0,2.0,49,59.0
269,E4,26.0,0.5,56,59.0
270,G5,26.125,0.125,52,59.0
271,A5,26.25,0.125,58,59.0
272,G5,26.375,0.125,51,59.0
273,C5,26.5,0.5,62,59.0
274,E-4,26.5,0.5,49,59.0
275,G5,26.625,0.125,48,59.0
276,A5,26.75,0.125,52,59.0
277,G5,26.875,0.125,46,59.0
278,B4,27.0,0.5,61,59.0
279,D4,27.0,0.5,48,59.0
280,G5,27.125,0.125,49,59.0
281,A5,27.25,0.125,53,59.0
282,G5,27.375,0.125,48,59.0
283,B-4,27.5,0.5,60,59.0
284,C#4,27.5,0.5,48,59.0
285,G5,27.625,0.125,49,59.0
286,F#5,27.75,0.125,51,59.0
287,E5,27.875,0.125,49,59.0
288,B4,28.0,0.5,51,59.0
289,D3,28.0,1.5,49,59.0
290,D4,28.0,0.5,49,59.0
291,D5,28.125,0.125,40,59.0
292,E5,28.25,0.125,44,59.0
293,D5,28.375,0.125,38,59.0
294,G4,28.5,0.5,47,59.0
295,B3,28.5,0.5,38,59.0
296,D5,28.625,0.125,37,59.0
297,E5,28.75,0.125,41,59.0
298,D5,28.875,0.125,34,59.0
299,F#4,29.0,0.25,50,59.0
300,A3,29.0,0.25,42,59.0
301,D5,29.125,0.125,44,59.0
302,A4,29.25,0.25,48,59.0
303,C4,29.25,0.25,39,59.0
304,D5,29.375,0.125,41,59.0
305,C5,29.5,0.25,51,59.0
306,E4,29.5,0.25,42,59.0
307,D5,29.625,0.125,40,59.0
308,B4,29.75,0.25,50,59.0
309,D4,29.75,0.25,42,59.0
310,D5,29.875,0.125,39,59.0
311,A4,30.0,1.0,49,59.0
312,C4,30.0,1.0,40,59.0
313,G3,30.0,1.25,40,59.0
314,D5,30.125,0.125,39,59.0
315,C#5,30.25,0.125,42,59.0
316,D5,30.375,0.125,37,59.0
317,E5,30.5,0.125,42,59.0
318,D5,30.625,0.125,36,59.0
319,C#5,30.75,0.125,41,59.0
320,D5,30.875,0.125,36,59.0
321,B3,31.0,0.25,36,59.0
322,G5,31.0,0.25,52,59.0
323,G4,31.0,0.25,52,59.0
324,F#4,31.25,0.125,45,59.0
325,G4,31.375,0.125,49,59.0
326,A4,31.5,0.125,53,59.0
327,G4,31.625,0.125,49,59.0
328,F#4,31.75,0.125,56,59.0
329,G4,31.875,0.125,50,59.0
330,G5,32.0,0.5,75,59.0
331,C2,32.0,0.5,57,59.0
332,C3,32.0,0.5,57,59.0
333,G4,32.125,0.125,51,59.0
334,C5,32.25,0.125,57,59.0
335,G4,32.375,0.125,51,59.0
336,E5,32.5,0.5,68,59.0
337,C4,32.5,0.5,51,59.0
338,G4,32.625,0.125,51,59.0
339,C5,32.75,0.125,55,59.0
340,G4,32.875,0.125,50,59.0
341,G5,33.0,0.5,73,59.0
342,E4,33.0,0.5,56,59.0
343,G4,33.125,0.125,51,59.0
344,C5,33.25,0.125,57,59.0
345,G4,33.375,0.125,52,59.0
346,E5,33.5,0.5,67,59.0
347,C4,33.5,0.5,50,59.0
348,G4,33.625,0.125,50,59.0
349,C5,33.75,0.125,53,59.0
350,G4,33.875,0.125,50,59.0
351,E5,34.0,0.5,70,59.0
352,G3,34.0,1.5,51,59.0
353,C4,34.0,0.5,51,59.0
354,G4,34.125,0.125,51,59.0
355,F#4,34.25,0.125,56,59.0
356,G4,34.375,0.125,51,59.0
357,D5,34.5,0.5,68,59.0
358,B3,34.5,0.5,45,59.0
359,D4,34.625,0.125,45,59.0
360,G4,34.75,0.125,48,59.0
361,D4,34.875,0.125,45,59.0
362,C5,35.0,0.5,67,59.0
363,A3,35.0,0.5,52,59.0
364,D4,35.125,0.125,40,59.0
365,F#4,35.25,0.125,48,59.0
366,D4,35.375,0.125,40,59.0
367,B4,35.5,0.5,66,59.0
368,G3,35.5,0.5,44,59.0
369,D4,35.625,0.125,39,59.0
370,G4,35.75,0.125,45,59.0
371,D4,35.875,0.125,39,59.0
372,B4,36.0,0.5,64,59.0
373,D3,36.0,2.0,46,59.0
374,G#3,36.0,0.5,46,59.0
375,D4,36.125,0.125,40,59.0
376,F4,36.25,0.125,45,59.0
377,D4,36.375,0.125,40,59.0
378,C5,36.5,0.5,66,59.0
379,A3,36.5,0.5,38,59.0
380,D4,36.625,0.125,41,59.0
381,F#4,36.75,0.125,45,59.0
382,D4,36.875,0.125,39,59.0
383,E5,37.0,0.5,67,59.0
384,C4,37.0,0.5,46,59.0
385,D4,37.125,0.125,44,59.0
386,F#4,37.25,0.125,48,59.0
387,D4,37.375,0.125,42,59.0
388,C5,37.5,0.5,62,59.0
389,A3,37.5,0.5,39,59.0
390,D4,37.625,0.125,39,59.0
391,F#4,37.75,0.125,45,59.0
392,D4,37.875,0.125,39,59.0
393,B4,38.0,0.5,57,59.0
394,G2,38.0,0.5,41,59.0
395,G3,38.0,0.5,41,59.0
396,D4,38.125,0.125,39,59.0
397,G4,38.25,0.125,45,59.0
398,D4,38.375,0.125,39,59.0
399,B3,38.5,0.5,53,59.0
400,G3,38.5,0.5,53,59.0
401,G4,38.625,0.125,42,59.0
402,F#4,38.75,0.125,47,59.0
403,G4,38.875,0.125,41,59.0
404,G5,39.0,0.125,70,59.0
405,C4,39.0,0.5,59,59.0
406,A3,39.0,0.5,59,59.0
407,G4,39.125,0.125,47,59.0
408,F#4,39.25,0.125,53,59.0
409,G4,39.375,0.125,50,59.0
410,G5,39.5,0.125,75,59.0
411,D4,39.5,0.5,63,59.0
412,B3,39.5,0.5,63,59.0
413,G4,39.625,0.125,55,59.0
414,F#4,39.75,0.125,59,59.0
415,G4,39.875,0.125,53,59.0
416,G5,40.0,0.5,81,59.0
417,E-2,40.0,0.25,78,59.0
418,E-3,40.0,0.25,78,59.0
419,G4,40.125,0.125,56,59.0
420,B-4,40.25,0.125,60,59.0
421,G4,40.375,0.125,55,59.0
422,E-5,40.5,0.5,82,59.0
423,B-3,40.5,1.5,72,59.0
424,E-4,40.5,0.5,72,59.0
425,G4,40.625,0.125,59,59.0
426,B-4,40.75,0.125,63,59.0
427,G4,40.875,0.125,58,59.0
428,D5,41.0,0.5,80,59.0
429,D4,41.0,0.5,74,59.0
430,G4,41.125,0.125,58,59.0
431,B-4,41.25,0.125,61,59.0
432,G4,41.375,0.125,56,59.0
433,C#5,41.5,0.5,80,59.0
434,C#4,41.5,0.5,69,59.0
435,G4,41.625,0.125,56,59.0
436,B-4,41.75,0.125,59,59.0
437,G4,41.875,0.125,55,59.0
438,E5,42.0,0.5,79,59.0
439,D2,42.0,0.25,69,59.0
440,D3,42.0,0.25,69,59.0
441,G4,42.125,0.125,56,59.0
442,B4,42.25,0.125,60,59.0
443,G4,42.375,0.125,55,59.0
444,D5,42.5,0.5,78,59.0
445,D3,42.5,1.5,59,59.0
446,B3,42.5,0.5,59,59.0
447,D4,42.625,0.125,56,59.0
448,G4,42.75,0.125,60,59.0
449,D4,42.875,0.125,58,59.0
450,C5,43.0,0.5,75,59.0
451,A3,43.0,0.5,62,59.0
452,D4,43.125,0.125,53,59.0
453,F#4,43.25,0.125,58,59.0
454,D4,43.375,0.125,53,59.0
455,B4,43.5,0.5,73,59.0
456,G3,43.5,0.5,53,59.0
457,D4,43.625,0.125,56,59.0
458,G4,43.75,0.125,59,59.0
459,D4,43.875,0.125,55,59.0
460,B4,44.0,0.5,72,59.0
461,D3,44.0,1.0,59,59.0
462,E3,44.0,0.5,59,59.0
463,C#4,44.125,0.125,47,59.0
464,G4,44.25,0.125,51,59.0
465,C#4,44.375,0.125,46,59.0
466,A4,44.5,0.5,59,59.0
467,A3,44.5,0.5,50,59.0
468,C#4,44.625,0.125,42,59.0
469,G4,44.75,0.125,49,59.0
470,C#4,44.875,0.125,41,59.0
471,B4,45.0,0.5,64,59.0
472,D2,45.0,0.5,55,59.0
473,C4,45.125,0.125,41,59.0
474,F#4,45.25,0.125,47,59.0
475,C4,45.375,0.125,40,59.0
476,A4,45.5,0.5,61,59.0
477,D3,45.5,0.5,47,59.0
478,C4,45.625,0.125,40,59.0
479,F#4,45.75,0.125,47,59.0
480,C4,45.875,0.125,40,59.0
481,B4,46.0,0.5,61,59.0
482,G2,46.0,2.0,50,59.0
483,B3,46.125,0.125,36,59.0
484,D4,46.25,0.125,40,59.0
485,A4,46.375,0.125,36,59.0
486,G4,46.5,0.125,53,59.0
487,D3,46.5,1.5,35,59.0
488,B3,46.625,0.125,35,59.0
489,D4,46.75,0.125,40,59.0
490,A4,46.875,0.125,35,59.0
491,G4,47.0,0.125,49,59.0
492,B3,47.125,0.125,31,59.0
493,D4,47.25,0.125,36,59.0
494,A4,47.375,0.125,30,59.0
495,G4,47.5,0.125,46,59.0
496,D4,47.625,0.125,31,59.0
497,G4,47.75,0.125,34,59.0
498,A4,47.875,0.125,33,59.0
499,B4,48.0,0.5,49,59.0
500,G2,48.0,0.25,39,59.0
501,D5,48.125,0.125,37,59.0
502,D4,48.25,0.125,31,59.0
503,D5,48.375,0.125,38,59.0
504,B4,48.5,0.5,44,59.0
505,D3,48.5,0.5,36,59.0
506,D5,48.625,0.125,37,59.0
507,D4,48.75,0.125,31,59.0
508,D5,48.875,0.125,37,59.0
509,A4,49.0,0.5,44,59.0
510,C4,49.0,0.5,37,59.0
511,D5,49.125,0.125,36,59.0
512,D4,49.25,0.125,30,59.0
513,D5,49.375,0.125,36,59.0
514,G4,49.5,0.5,44,59.0
515,B3,49.5,0.5,34,59.0
516,D5,49.625,0.125,37,59.0
517,D4,49.75,0.125,33,59.0
518,D5,49.875,0.125,37,59.0
519,F#4,50.0,0.5,48,59.0
520,G2,50.0,0.25,38,59.0
521,D5,50.125,0.125,37,59.0
522,D4,50.25,0.125,33,59.0
523,D5,50.375,0.125,37,59.0
524,G4,50.5,0.5,47,59.0
525,D3,50.5,0.5,39,59.0
526,D5,50.625,0.125,37,59.0
527,D4,50.75,0.125,30,59.0
528,D5,50.875,0.125,37,59.0
529,C5,51.0,0.5,51,59.0
530,A3,51.0,0.5,40,59.0
531,D5,51.125,0.125,38,59.0
532,D4,51.25,0.125,34,59.0
533,D5,51.375,0.125,38,59.0
534,B4,51.5,0.5,47,59.0
535,G3,51.5,0.5,36,59.0
536,D5,51.625,0.125,36,59.0
537,D4,51.75,0.125,31,59.0
538,D5,51.875,0.125,36,59.0
539,B4,52.0,0.5,49,59.0
540,D2,52.0,0.25,41,59.0
541,D5,52.125,0.125,37,59.0
542,D4,52.25,0.125,33,59.0
543,D5,52.375,0.125,38,59.0
544,A4,52.5,0.5,53,59.0
545,F#3,52.5,0.5,38,59.0
546,D5,52.625,0.125,39,59.0
547,D4,52.75,0.125,36,59.0
548,D5,52.875,0.125,41,59.0
549,G4,53.0,0.5,55,59.0
550,E3,53.0,0.5,41,59.0
551,D5,53.125,0.125,42,59.0
552,D4,53.25,0.125,38,59.0
553,D5,53.375,0.125,45,59.0
554,A4,53.5,0.5,57,59.0
555,F#3,53.5,0.5,44,59.0
556,D5,53.625,0.125,47,59.0
557,D4,53.75,0.125,42,59.0
558,D5,53.875,0.125,50,59.0
559,B4,54.0,0.25,66,59.0
560,G2,54.0,0.25,41,59.0
561,D5,54.125,0.125,52,59.0
562,D4,54.25,0.25,58,59.0
563,D5,54.375,0.125,49,59.0
564,E-4,54.5,0.25,57,59.0
565,D3,54.5,0.5,36,59.0
566,D5,54.625,0.125,47,59.0
567,E4,54.75,0.25,57,59.0
568,D5,54.875,0.125,47,59.0
569,F4,55.0,0.25,56,59.0
570,G3,55.0,0.5,39,59.0
571,B3,55.0,0.5,39,59.0
572,D5,55.125,0.125,47,59.0
573,F#4,55.25,0.25,55,59.0
574,D5,55.375,0.125,47,59.0
575,G4,55.5,0.25,53,59.0
576,D3,55.5,0.5,37,59.0
577,D5,55.625,0.125,45,59.0
578,A4,55.75,0.25,53,59.0
579,D5,55.875,0.125,42,59.0
580,B4,56.0,0.5,53,59.0
581,G2,56.0,0.25,51,59.0
582,D5,56.125,0.125,39,59.0
583,E5,56.25,0.125,46,59.0
584,D5,56.375,0.125,38,59.0
585,B4,56.5,0.5,55,59.0
586,G3,56.5,1.5,49,59.0
587,G4,56.5,0.5,49,59.0
588,D5,56.625,0.125,40,59.0
589,E5,56.75,0.125,48,59.0
590,D5,56.875,0.125,39,59.0
591,A4,57.0,0.5,60,59.0
592,F#4,57.0,0.5,52,59.0
593,D5,57.125,0.125,46,59.0
594,E5,57.25,0.125,53,59.0
595,D5,57.375,0.125,47,59.0
596,B4,57.5,0.5,63,59.0
597,F4,57.5,0.5,56,59.0
598,G5,57.625,0.125,50,59.0
599,A5,57.75,0.125,59,59.0
600,G5,57.875,0.125,52,59.0
601,D5,58.0,0.5,69,59.0
602,G3,58.0,2.0,49,59.0
603,E4,58.0,0.5,56,59.0
604,G5,58.125,0.125,52,59.0
605,A5,58.25,0.125,58,59.0
606,G5,58.375,0.125,51,59.0
607,C5,58.5,0.5,62,59.0
608,E-4,58.5,0.5,49,59.0
609,G5,58.625,0.125,48,59.0
610,A5,58.75,0.125,52,59.0
611,G5,58.875,0.125,46,59.0
612,B4,59.0,0.5,61,59.0
613,D4,59.0,0.5,48,59.0
614,G5,59.125,0.125,49,59.0
615,A5,59.25,0.125,53,59.0
616,G5,59.375,0.125,48,59.0
617,B-4,59.5,0.5,60,59.0
618,C#4,59.5,0.5,48,59.0
619,G5,59.625,0.125,49,59.0
620,F#5,59.75,0.125,51,59.0
621,E5,59.875,0.125,49,59.0
622,B4,60.0,0.5,51,59.0
623,D3,60.0,1.5,49,59.0
624,D4,60.0,0.5,49,59.0
625,D5,60.125,0.125,40,59.0
626,E5,60.25,0.125,44,59.0
627,D5,60.375,0.125,38,59.0
628,G4,60.5,0.5,47,59.0
629,B3,60.5,0.5,38,59.0
630,D5,60.625,0.125,37,59.0
631,E5,60.75,0.125,41,59.0
632,D5,60.875,0.125,34,59.0
633,F#4,61.0,0.25,50,59.0
634,A3,61.0,0.25,42,59.0
635,D5,61.125,0.125,44,59.0
636,A4,61.25,0.25,48,59.0
637,C4,61.25,0.25,39,59.0
638,D5,61.375,0.125,41,59.0
639,C5,61.5,0.25,51,59.0
640,E4,61.5,0.25,42,59.0
641,D5,61.625,0.125,40,59.0
642,B4,61.75,0.25,50,59.0
643,D4,61.75,0.25,42,59.0
644,D5,61.875,0.125,39,59.0
645,A4,62.0,1.0,49,59.0
646,C4,62.0,1.0,40,59.0
647,G3,62.0,1.25,40,59.0
648,D5,62.125,0.125,39,59.0
649,C#5,62.25,0.125,42,59.0
650,D5,62.375,0.125,37,59.0
651,E5,62.5,0.125,42,59.0
652,D5,62.625,0.125,36,59.0
653,C#5,62.75,0.125,41,59.0
654,D5,62.875,0.125,36,59.0
655,B3,63.0,0.25,36,59.0
656,G4,63.0,0.25,52,59.0
657,G5,63.0,0.25,52,59.0
658,F#4,63.25,0.125,45,59.0
659,G4,63.375,0.125,49,59.0
660,A4,63.5,0.125,53,59.0
661,G4,63.625,0.125,49,59.0
662,F#4,63.75,0.125,56,59.0
663,G4,63.875,0.125,50,59.0
664,G5,64.0,0.5,75,59.0
665,C3,64.0,0.5,57,59.0
666,C2,64.0,0.5,57,59.0
667,G4,64.125,0.125,51,59.0
668,C5,64.25,0.125,57,59.0
669,G4,64.375,0.125,51,59.0
670,E5,64.5,0.5,68,59.0
671,C4,64.5,0.5,51,59.0
672,G4,64.625,0.125,51,59.0
673,C5,64.75,0.125,55,59.0
674,G4,64.875,0.125,50,59.0
675,G5,65.0,0.5,73,59.0
676,E4,65.0,0.5,56,59.0
677,G4,65.125,0.125,51,59.0
678,C5,65.25,0.125,57,59.0
679,G4,65.375,0.125,52,59.0
680,E5,65.5,0.5,67,59.0
681,C4,65.5,0.5,50,59.0
682,G4,65.625,0.125,50,59.0
683,C5,65.75,0.125,53,59.0
684,G4,65.875,0.125,50,59.0
685,E5,66.0,0.5,70,59.0
686,G3,66.0,1.5,51,59.0
687,C4,66.0,0.5,51,59.0
688,G4,66.125,0.125,51,59.0
689,F#4,66.25,0.125,56,59.0
690,G4,66.375,0.125,51,59.0
691,D5,66.5,0.5,68,59.0
692,B3,66.5,0.5,45,59.0
693,D4,66.625,0.125,45,59.0
694,G4,66.75,0.125,48,59.0
695,D4,66.875,0.125,45,59.0
696,C5,67.0,0.5,67,59.0
697,A3,67.0,0.5,52,59.0
698,D4,67.125,0.125,40,59.0
699,F#4,67.25,0.125,48,59.0
700,D4,67.375,0.125,40,59.0
701,B4,67.5,0.5,66,59.0
702,G3,67.5,0.5,44,59.0
703,D4,67.625,0.125,39,59.0
704,G4,67.75,0.125,45,59.0
705,D4,67.875,0.125,39,59.0
706,B4,68.0,0.5,64,59.0
707,G#3,68.0,0.5,46,59.0
708,D3,68.0,2.0,46,59.0
709,D4,68.125,0.125,40,59.0
710,F4,68.25,0.125,45,59.0
711,D4,68.375,0.125,40,59.0
712,C5,68.5,0.5,66,59.0
713,A3,68.5,0.5,38,59.0
714,D4,68.625,0.125,41,59.0
715,F#4,68.75,0.125,45,59.0
716,D4,68.875,0.125,39,59.0
717,E5,69.0,0.5,67,59.0
718,C4,69.0,0.5,46,59.0
719,D4,69.125,0.125,44,59.0
720,F#4,69.25,0.125,48,59.0
721,D4,69.375,0.125,42,59.0
722,C5,69.5,0.5,62,59.0
723,A3,69.5,0.5,39,59.0
724,D4,69.625,0.125,39,59.0
725,F#4,69.75,0.125,45,59.0
726,D4,69.875,0.125,39,59.0
727,B4,70.0,0.5,57,59.0
728,G3,70.0,0.5,41,59.0
729,G2,70.0,0.5,41,59.0
730,D4,70.125,0.125,39,59.0
731,G4,70.25,0.125,45,59.0
732,D4,70.375,0.125,39,59.0
733,B3,70.5,0.5,53,59.0
734,G3,70.5,0.5,53,59.0
735,G4,70.625,0.125,42,59.0
736,F#4,70.75,0.125,47,59.0
737,G4,70.875,0.125,41,59.0
738,G5,71.0,0.125,70,59.0
739,A3,71.0,0.5,59,59.0
740,C4,71.0,0.5,59,59.0
741,G4,71.125,0.125,47,59.0
742,F#4,71.25,0.125,53,59.0
743,G4,71.375,0.125,50,59.0
744,G5,71.5,0.125,75,59.0
745,D4,71.5,0.5,63,59.0
746,B3,71.5,0.5,63,59.0
747,G4,71.625,0.125,55,59.0
748,F#4,71.75,0.125,59,59.0
749,G4,71.875,0.125,53,59.0
750,G5,72.0,0.5,81,59.0
751,E-3,72.0,0.25,78,59.0
752,E-2,72.0,0.25,78,59.0
753,G4,72.125,0.125,56,59.0
754,B-4,72.25,0.125,60,59.0
755,G4,72.375,0.125,55,59.0
756,E-5,72.5,0.5,82,59.0
757,B-3,72.5,1.5,72,59.0
758,E-4,72.5,0.5,72,59.0
759,G4,72.625,0.125,59,59.0
760,B-4,72.75,0.125,63,59.0
761,G4,72.875,0.125,58,59.0
762,D5,73.0,0.5,80,59.0
763,D4,73.0,0.5,74,59.0
764,G4,73.125,0.125,58,59.0
765,B-4,73.25,0.125,61,59.0
766,G4,73.375,0.125,56,59.0
767,C#5,73.5,0.5,80,59.0
768,C#4,73.5,0.5,69,59.0
769,G4,73.625,0.125,56,59.0
770,B-4,73.75,0.125,59,59.0
771,G4,73.875,0.125,55,59.0
772,E5,74.0,0.5,79,59.0
773,D2,74.0,0.25,69,59.0
774,D3,74.0,0.25,69,59.0
775,G4,74.125,0.125,56,59.0
776,B4,74.25,0.125,60,59.0
777,G4,74.375,0.125,55,59.0
778,D5,74.5,0.5,78,59.0
779,B3,74.5,0.5,59,59.0
780,D3,74.5,1.5,59,59.0
781,D4,74.625,0.125,56,59.0
782,G4,74.75,0.125,60,59.0
783,D4,74.875,0.125,58,59.0
784,C5,75.0,0.5,75,59.0
785,A3,75.0,0.5,62,59.0
786,D4,75.125,0.125,53,59.0
787,F#4,75.25,0.125,58,59.0
788,D4,75.375,0.125,53,59.0
789,B4,75.5,0.5,73,59.0
790,G3,75.5,0.5,53,59.0
791,D4,75.625,0.125,56,59.0
792,G4,75.75,0.125,59,59.0
793,D4,75.875,0.125,55,59.0
794,B4,76.0,0.5,72,59.0
795,D3,76.0,1.0,59,59.0
796,E3,76.0,0.5,59,59.0
797,C#4,76.125,0.125,47,59.0
798,G4,76.25,0.125,51,59.0
799,C#4,76.375,0.125,46,59.0
800,A4,76.5,0.5,59,59.0
801,A3,76.5,0.5,50,59.0
802,C#4,76.625,0.125,42,59.0
803,G4,76.75,0.125,49,59.0
804,C#4,76.875,0.125,41,59.0
805,B4,77.0,0.5,64,59.0
806,D2,77.0,0.5,55,59.0
807,C4,77.125,0.125,41,59.0
808,F#4,77.25,0.125,47,59.0
809,C4,77.375,0.125,40,59.0
810,A4,77.5,0.5,61,59.0
811,D3,77.5,0.5,47,59.0
812,C4,77.625,0.125,40,59.0
813,F#4,77.75,0.125,47,59.0
814,C4,77.875,0.125,40,59.0
815,B4,78.0,0.5,61,59.0
816,G2,78.0,2.0,50,59.0
817,B3,78.125,0.125,36,59.0
818,D4,78.25,0.125,40,59.0
819,A4,78.375,0.125,36,59.0
820,G4,78.5,0.125,53,59.0
821,D3,78.5,1.5,35,59.0
822,B3,78.625,0.125,35,59.0
823,D4,78.75,0.125,39,59.0
824,A4,78.875,0.125,35,59.0
825,G4,79.0,0.125,50,59.0
826,B3,79.125,0.125,31,59.0
827,D4,79.25,0.125,36,59.0
828,A4,79.375,0.125,30,59.0
829,G4,79.5,0.125,48,59.0
830,D4,79.625,0.125,34,59.0
831,G4,79.75,0.125,36,59.0
832,A4,79.875,0.125,33,59.0
833,B4,80.0,0.5,49,59.0
834,G2,80.0,0.25,39,59.0
835,D5,80.125,0.125,37,59.0
836,D4,80.25,0.125,31,59.0
837,D5,80.375,0.125,38,59.0
838,B4,80.5,0.5,44,59.0
839,D3,80.5,0.5,36,59.0
840,D5,80.625,0.125,37,59.0
841,D4,80.75,0.125,31,59.0
842,D5,80.875,0.125,37,59.0
843,A4,81.0,0.5,44,59.0
844,C4,81.0,0.5,37,59.0
845,D5,81.125,0.125,36,59.0
846,D4,81.25,0.125,30,59.0
847,D5,81.375,0.125,36,59.0
848,G4,81.5,0.5,44,59.0
849,B3,81.5,0.5,34,59.0
850,D5,81.625,0.125,37,59.0
851,D4,81.75,0.125,33,59.0
852,D5,81.875,0.125,37,59.0
853,F#4,82.0,0.5,48,59.0
854,G2,82.0,0.25,38,59.0
855,D5,82.125,0.125,37,59.0
856,D4,82.25,0.125,33,59.0
857,D5,82.375,0.125,37,59.0
858,G4,82.5,0.5,47,59.0
859,D3,82.5,0.5,39,59.0
860,D5,82.625,0.125,37,59.0
861,D4,82.75,0.125,30,59.0
862,D5,82.875,0.125,37,59.0
863,C5,83.0,0.5,51,59.0
864,A3,83.0,0.5,40,59.0
865,D5,83.125,0.125,38,59.0
866,D4,83.25,0.125,34,59.0
867,D5,83.375,0.125,38,59.0
868,B4,83.5,0.5,47,59.0
869,G3,83.5,0.5,36,59.0
870,D5,83.625,0.125,36,59.0
871,D4,83.75,0.125,31,59.0
872,D5,83.875,0.125,36,59.0
873,B4,84.0,0.5,49,59.0
874,D2,84.0,0.25,41,59.0
875,D5,84.125,0.125,37,59.0
876,D4,84.25,0.125,33,59.0
877,D5,84.375,0.125,38,59.0
878,A4,84.5,0.5,53,59.0
879,F#3,84.5,0.5,38,59.0
880,D5,84.625,0.125,39,59.0
881,D4,84.75,0.125,36,59.0
882,D5,84.875,0.125,41,59.0
883,G4,85.0,0.5,55,59.0
884,E3,85.0,0.5,41,59.0
885,D5,85.125,0.125,42,59.0
886,D4,85.25,0.125,38,59.0
887,D5,85.375,0.125,45,59.0
888,A4,85.5,0.5,57,59.0
889,F#3,85.5,0.5,44,59.0
890,D5,85.625,0.125,47,59.0
891,D4,85.75,0.125,42,59.0
892,D5,85.875,0.125,50,59.0
893,B4,86.0,0.25,66,59.0
894,G2,86.0,0.25,41,59.0
895,D5,86.125,0.125,52,59.0
896,D4,86.25,0.25,58,59.0
897,D5,86.375,0.125,49,59.0
898,E-4,86.5,0.25,57,59.0
899,D3,86.5,0.5,36,59.0
900,D5,86.625,0.125,47,59.0
901,E4,86.75,0.25,57,59.0
902,D5,86.875,0.125,47,59.0
903,F4,87.0,0.25,56,59.0
904,G3,87.0,0.5,39,59.0
905,B3,87.0,0.5,39,59.0
906,D5,87.125,0.125,47,59.0
907,F#4,87.25,0.25,55,59.0
908,D5,87.375,0.125,47,59.0
909,G4,87.5,0.25,53,59.0
910,D3,87.5,0.5,37,59.0
911,D5,87.625,0.125,45,59.0
912,A4,87.75,0.25,53,59.0
913,D5,87.875,0.125,42,59.0
914,B4,88.0,0.5,53,59.0
915,G2,88.0,0.25,51,59.0
916,D5,88.125,0.125,39,59.0
917,E5,88.25,0.125,46,59.0
918,D5,88.375,0.125,38,59.0
919,B4,88.5,0.5,55,59.0
920,G3,88.5,1.5,49,59.0
921,G4,88.5,0.5,49,59.0
922,D5,88.625,0.125,40,59.0
923,E5,88.75,0.125,48,59.0
924,D5,88.875,0.125,39,59.0
925,A4,89.0,0.5,60,59.0
926,F#4,89.0,0.5,52,59.0
927,D5,89.125,0.125,46,59.0
928,E5,89.25,0.125,53,59.0
929,D5,89.375,0.125,47,59.0
930,B4,89.5,0.5,63,59.0
931,F4,89.5,0.5,56,59.0
932,G5,89.625,0.125,50,59.0
933,A5,89.75,0.125,59,59.0
934,G5,89.875,0.125,52,59.0
935,D5,90.0,0.5,69,59.0
936,G3,90.0,2.0,49,59.0
937,E4,90.0,0.5,56,59.0
938,G5,90.125,0.125,52,59.0
939,A5,90.25,0.125,58,59.0
940,G5,90.375,0.125,51,59.0
941,C5,90.5,0.5,62,59.0
942,E-4,90.5,0.5,49,59.0
943,G5,90.625,0.125,48,59.0
944,A5,90.75,0.125,52,59.0
945,G5,90.875,0.125,46,59.0
946,B4,91.0,0.5,61,59.0
947,D4,91.0,0.5,48,59.0
948,G5,91.125,0.125,49,59.0
949,A5,91.25,0.125,53,59.0
950,G5,91.375,0.125,48,59.0
951,B-4,91.5,0.5,60,59.0
952,C#4,91.5,0.5,48,59.0
953,G5,91.625,0.125,49,59.0
954,F#5,91.75,0.125,51,59.0
955,E5,91.875,0.125,49,59.0
956,B4,92.0,0.5,51,59.0
957,D4,92.0,0.5,49,59.0
958,D3,92.0,1.5,49,59.0
959,D5,92.125,0.125,40,59.0
960,E5,92.25,0.125,44,59.0
961,D5,92.375,0.125,38,59.0
962,G4,92.5,0.5,47,59.0
963,B3,92.5,0.5,38,59.0
964,D5,92.625,0.125,37,59.0
965,E5,92.75,0.125,41,59.0
966,D5,92.875,0.125,34,59.0
967,F#4,93.0,0.25,50,59.0
968,A3,93.0,0.25,42,59.0
969,D5,93.125,0.125,44,59.0
970,A4,93.25,0.25,48,59.0
971,C4,93.25,0.25,39,59.0
972,D5,93.375,0.125,41,59.0
973,C5,93.5,0.25,51,59.0
974,E4,93.5,0.25,42,59.0
975,D5,93.625,0.125,40,59.0
976,B4,93.75,0.25,50,59.0
977,D4,93.75,0.25,42,59.0
978,D5,93.875,0.125,39,59.0
979,B4,94.0,0.5,51,59.0
980,G3,94.0,0.25,42,59.0
981,B3,94.0,0.25,42,59.0
982,D5,94.125,0.125,40,59.0
983,D4,94.25,0.125,34,59.0
984,D5,94.375,0.125,41,59.0
985,B4,94.5,0.5,48,59.0
986,G3,94.5,0.5,39,59.0
987,D5,94.625,0.125,40,59.0
988,D4,94.75,0.125,34,59.0
989,D5,94.875,0.125,40,59.0
990,C5,95.0,0.5,53,59.0
991,G2,95.0,0.5,48,59.0
992,E5,95.125,0.125,41,59.0
993,E4,95.25,0.125,36,59.0
994,E5,95.375,0.125,41,59.0
995,B4,95.5,0.5,48,59.0
996,G3,95.5,0.5,37,59.0
997,D5,95.625,0.125,40,59.0
998,D4,95.75,0.125,36,59.0
999,D5,95.875,0.125,40,59.0
1000,B4,96.0,0.5,53,59.0
1001,D2,96.0,0.25,42,59.0
1002,D5,96.125,0.125,40,59.0
1003,D4,96.25,0.125,34,59.0
1004,D5,96.375,0.125,41,59.0
1005,B-4,96.5,0.5,51,59.0
1006,D3,96.5,0.375,35,59.0
1007,C#4,96.5,0.375,35,59.0
1008,D5,96.625,0.125,40,59.0
1009,D4,96.75,0.125,34,59.0
1010,D5,96.875,0.125,39,59.0
1011,A4,97.0,0.5,49,59.0
1012,D3,97.0,0.375,35,59.0
1013,C4,97.0,0.375,35,59.0
1014,D5,97.125,0.125,39,59.0
1015,D4,97.25,0.125,35,59.0
1016,D5,97.375,0.125,39,59.0
1017,F#4,97.5,0.5,48,59.0
1018,D3,97.5,0.375,34,59.0
1019,A3,97.5,0.375,34,59.0
1020,D5,97.625,0.125,40,59.0
1021,D4,97.75,0.125,33,59.0
1022,D5,97.875,0.125,38,59.0
1023,B4,98.0,0.5,51,59.0
1024,G3,98.0,0.25,42,59.0
1025,B3,98.0,0.25,42,59.0
1026,D5,98.125,0.125,40,59.0
1027,D4,98.25,0.125,34,59.0
1028,D5,98.375,0.125,41,59.0
1029,B4,98.5,0.5,48,59.0
1030,G3,98.5,0.5,39,59.0
1031,D5,98.625,0.125,40,59.0
1032,D4,98.75,0.125,34,59.0
1033,D5,98.875,0.125,40,59.0
1034,C5,99.0,0.5,53,59.0
1035,G2,99.0,0.5,48,59.0
1036,E5,99.125,0.125,41,59.0
1037,E4,99.25,0.125,36,59.0
1038,E5,99.375,0.125,41,59.0
1039,B4,99.5,0.5,48,59.0
1040,G3,99.5,0.5,37,59.0
1041,D5,99.625,0.125,40,59.0
1042,D4,99.75,0.125,36,59.0
1043,D5,99.875,0.125,40,59.0
1044,B4,100.0,0.5,53,59.0
1045,D2,100.0,0.25,42,59.0
1046,D5,100.125,0.125,40,59.0
1047,D4,100.25,0.125,34,59.0
1048,D5,100.375,0.125,41,59.0
1049,B-4,100.5,0.5,51,59.0
1050,C#4,100.5,0.375,35,59.0
1051,D3,100.5,0.375,35,59.0
1052,D5,100.625,0.125,40,59.0
1053,D4,100.75,0.125,34,59.0
1054,D5,100.875,0.125,39,59.0
1055,A4,101.0,0.5,49,59.0
1056,D3,101.0,0.375,35,59.0
1057,C4,101.0,0.375,35,59.0
1058,D5,101.125,0.125,39,59.0
1059,D4,101.25,0.125,35,59.0
1060,D5,101.375,0.125,39,59.0
1061,F#4,101.5,0.5,48,59.0
1062,D3,101.5,0.375,34,59.0
1063,A3,101.5,0.375,34,59.0
1064,D5,101.625,0.125,40,59.0
1065,D4,101.75,0.125,33,59.0
1066,D5,101.875,0.125,38,59.0
1067,B4,102.0,0.5,51,59.0
1068,G3,102.0,0.25,42,59.0
1069,B3,102.0,0.25,42,59.0
1070,D5,102.125,0.125,40,59.0
1071,D4,102.25,0.125,34,59.0
1072,D5,102.375,0.125,41,59.0
1073,B3,102.5,0.125,48,59.0
1074,G4,102.625,0.125,37,59.0
1075,D4,102.75,0.125,31,59.0
1076,G4,102.875,0.125,37,59.0
1077,D4,103.0,0.125,47,59.0
1078,B4,103.125,0.125,35,59.0
1079,G4,103.25,0.125,33,59.0
1080,B4,103.375,0.125,35,59.0
1081,G4,103.5,0.125,47,59.0
1082,D5,103.625,0.125,33,59.0
1083,B4,103.75,0.125,28,59.0
1084,D5,103.875,0.125,33,59.0
1085,B4,104.0,0.125,46,59.0
1086,G5,104.125,0.125,31,59.0
1087,D5,104.25,0.125,29,59.0
1088,G5,104.375,0.125,33,59.0
1089,D5,104.5,0.125,44,59.0
1090,B5,104.625,0.125,30,59.0
1091,G5,104.75,0.125,27,59.0
1092,B5,104.875,0.125,30,59.0
1093,G5,105.0,0.125,41,59.0
1094,D6,105.125,0.125,30,59.0
1095,B5,105.25,0.125,26,59.0
1096,D6,105.375,0.125,30,59.0
1097,B5,105.5,0.125,41,59.0
1098,G6,105.625,0.125,30,59.0
1099,D6,105.75,0.125,26,59.0
1100,G6,105.875,0.125,30,59.0
1101,D6,106.0,0.25,41,59.0
1102,G5,106.0,0.25,41,59.0
1103,B6,106.0,0.25,41,59.0
1104,G3,106.625,0.625,31,59.0
1105,D4,106.688,0.562,31,59.0
1106,G4,106.75,0.5,31,59.0
1107,B4,106.812,0.438,38,59.0
1108,D5,106.875,0.375,38,59.0
1109,G5,106.938,0.312,38,59.0
1110,B5,107.0,0.25,38,59.0
1111,B3,108.0,1.0,35,59.0
1112,G4,108.0,1.0,35,59.0
1113,G2,108.0,1.0,28,59.0
1114,D3,108.0,1.0,28,59.0
