,note_name,start_time,duration,velocity,tempo
0,B-2,3.0,1.0,39,132.69
1,E-3,4.0,1.0,48,132.69
2,E-4,4.333,0.25,35,132.69
3,G4,4.333,0.25,35,132.69
4,E-4,4.667,0.25,35,132.69
5,G4,4.667,0.25,35,132.69
6,G3,5.0,1.0,51,132.69
7,G4,5.333,0.25,40,132.69
8,E-4,5.333,0.25,40,132.69
9,G4,5.667,0.25,40,132.69
10,E-4,5.667,0.25,40,132.69
11,B-3,6.0,1.0,56,132.69
12,E-4,6.333,0.25,45,132.69
13,G4,6.333,0.25,45,132.69
14,E-4,6.667,0.25,46,132.69
15,G4,6.667,0.25,46,132.69
16,B3,7.0,1.0,66,132.69
17,E-4,7.333,0.25,48,132.69
18,G4,7.333,0.25,48,132.69
19,E-4,7.667,0.25,48,132.69
20,G4,7.667,0.25,48,132.69
21,C4,8.0,1.0,73,132.69
22,E-4,8.333,0.25,48,132.69
23,G4,8.333,0.25,48,132.69
24,E-4,8.667,0.25,48,132.69
25,G4,8.667,0.25,48,132.69
26,A3,9.0,1.0,50,132.69
27,E-4,9.333,0.25,42,132.69
28,G4,9.333,0.25,42,132.69
29,E-4,9.667,0.25,42,132.69
30,G4,9.667,0.25,42,132.69
31,B-3,10.0,1.0,55,132.69
32,G4,10.333,0.25,44,132.69
33,E-4,10.333,0.25,44,132.69
34,G4,10.667,0.25,42,132.69
35,E-4,10.667,0.25,42,132.69
36,E-3,11.0,1.0,47,132.69
37,G4,11.333,0.25,38,132.69
38,E-4,11.333,0.25,38,132.69
39,G4,11.667,0.25,38,132.69
40,E-4,11.667,0.25,38,132.69
41,D3,12.0,2.0,46,132.69
42,B-4,12.333,0.25,40,132.69
43,F4,12.333,0.25,40,132.69
44,B-4,12.667,0.25,42,132.69
45,F4,12.667,0.25,42,132.69
46,B-3,13.0,1.0,56,132.69
47,G#4,13.333,0.25,48,132.69
48,F4,13.333,0.25,48,132.69
49,G#4,13.667,0.25,49,132.69
50,F4,13.667,0.25,49,132.69
51,E-3,13.875,2.125,50,132.69
52,B3,14.0,1.0,72,132.69
53,F4,14.333,0.25,54,132.69
54,G#4,14.333,0.25,54,132.69
55,F4,14.667,0.25,54,132.69
56,G#4,14.667,0.25,54,132.69
57,B-3,15.0,173/200,58,132.69
58,E-4,15.333,0.25,46,132.69
59,G4,15.333,0.25,46,132.69
60,E-4,15.667,0.25,46,132.69
61,G4,15.667,0.25,46,132.69
62,B-2,15.875,0.125,54,132.69
63,B-3,16.0,1.0,69,132.69
64,E-4,16.333,0.25,48,132.69
65,G4,16.333,0.25,48,132.69
66,E-4,16.667,0.25,48,132.69
67,G4,16.667,0.25,48,132.69
68,A3,17.0,1.0,55,132.69
69,C5,17.333,0.25,39,132.69
70,F#4,17.333,0.25,39,132.69
71,E-4,17.333,0.25,39,132.69
72,C5,17.667,0.25,39,132.69
73,F#4,17.667,0.25,39,132.69
74,E-4,17.667,0.25,39,132.69
75,G#3,18.0,1.0,51,132.69
76,F4,18.333,0.25,36,132.69
77,D4,18.333,0.25,36,132.69
78,F4,18.667,0.25,36,132.69
79,D4,18.667,0.25,36,132.69
80,F3,19.0,1.0,40,132.69
81,F2,19.0,1.0,40,132.69
82,B-4,19.333,0.25,33,132.69
83,G#4,19.333,0.25,33,132.69
84,D4,19.333,0.25,33,132.69
85,B-4,19.667,0.25,33,132.69
86,G#4,19.667,0.25,33,132.69
87,D4,19.667,0.25,33,132.69
88,E-3,20.0,1.0,49,132.69
89,E-2,20.0,1.0,49,132.69
90,E-5,20.333,0.25,38,132.69
91,G4,20.333,0.25,38,132.69
92,E-4,20.333,0.25,38,132.69
93,E-5,20.667,0.25,38,132.69
94,G4,20.667,0.25,38,132.69
95,E-4,20.667,0.25,38,132.69
96,G3,21.0,1.0,54,132.69
97,G2,21.0,1.0,54,132.69
98,E-4,21.333,0.25,45,132.69
99,G4,21.333,0.25,45,132.69
100,E-5,21.333,0.25,45,132.69
101,E-4,21.667,0.25,45,132.69
102,G4,21.667,0.25,45,132.69
103,E-5,21.667,0.25,45,132.69
104,B-3,22.0,1.0,58,132.69
105,B-2,22.0,1.0,58,132.69
106,E-4,22.333,0.25,51,132.69
107,G4,22.333,0.25,51,132.69
108,E-5,22.333,0.25,51,132.69
109,E-4,22.667,0.25,52,132.69
110,G4,22.667,0.25,52,132.69
111,E-5,22.667,0.25,52,132.69
112,C4,23.0,1.0,65,132.69
113,C3,23.0,1.0,65,132.69
114,E-4,23.333,0.25,55,132.69
115,G#4,23.333,0.25,55,132.69
116,E-5,23.333,0.25,55,132.69
117,E-5,23.667,0.25,56,132.69
118,G#4,23.667,0.25,56,132.69
119,E-4,23.667,0.25,56,132.69
120,C#4,24.0,1.0,73,132.69
121,C#3,24.0,1.0,73,132.69
122,E-4,24.333,0.25,63,132.69
123,B-4,24.333,0.25,63,132.69
124,E-5,24.333,0.25,63,132.69
125,E-4,24.667,0.25,63,132.69
126,B-4,24.667,0.25,63,132.69
127,E-5,24.667,0.25,63,132.69
128,G3,25.0,1.0,70,132.69
129,G2,25.0,1.0,70,132.69
130,E-5,25.333,0.25,58,132.69
131,B4,25.333,0.25,58,132.69
132,E-4,25.333,0.25,58,132.69
133,E-5,25.667,0.25,57,132.69
134,B4,25.667,0.25,57,132.69
135,E-4,25.667,0.25,57,132.69
136,G#3,26.0,1.0,78,132.69
137,G#2,26.0,1.0,78,132.69
138,E-4,26.333,0.25,62,132.69
139,C5,26.333,0.25,62,132.69
140,E-5,26.333,0.25,62,132.69
141,E-4,26.667,0.25,61,132.69
142,C5,26.667,0.25,61,132.69
143,E-5,26.667,0.25,61,132.69
144,A2,27.0,1.0,80,132.69
145,A3,27.0,1.0,80,132.69
146,F4,27.333,0.25,70,132.69
147,C5,27.333,0.25,70,132.69
148,E-5,27.333,0.25,70,132.69
149,F5,27.333,0.25,70,132.69
150,F4,27.667,0.25,70,132.69
151,C5,27.667,0.25,70,132.69
152,E-5,27.667,0.25,70,132.69
153,F5,27.667,0.25,70,132.69
154,B-3,28.0,1.0,86,132.69
155,B-2,28.0,1.0,86,132.69
156,G5,28.333,0.25,72,132.69
157,E-5,28.333,0.25,72,132.69
158,B-4,28.333,0.25,72,132.69
159,G4,28.333,0.25,72,132.69
160,G5,28.667,0.25,72,132.69
161,E-5,28.667,0.25,72,132.69
162,B-4,28.667,0.25,72,132.69
163,G4,28.667,0.25,72,132.69
164,B-1,29.0,1.0,58,132.69
165,B-2,29.0,1.0,58,132.69
166,E-5,29.333,0.25,45,132.69
167,B-4,29.333,0.25,45,132.69
168,G4,29.333,0.25,45,132.69
169,E-5,29.667,0.25,44,132.69
170,B-4,29.667,0.25,44,132.69
171,G4,29.667,0.25,44,132.69
172,G2,30.0,1.0,62,132.69
173,G3,30.0,1.0,62,132.69
174,B-4,30.333,0.25,44,132.69
175,E-4,30.333,0.25,44,132.69
176,B-4,30.667,0.25,43,132.69
177,E-4,30.667,0.25,43,132.69
178,F2,31.0,1.0,41,132.69
179,F3,31.0,1.0,41,132.69
180,D4,31.333,0.25,34,132.69
181,G#4,31.333,0.25,34,132.69
182,B-4,31.333,0.25,34,132.69
183,B-4,31.667,0.25,33,132.69
184,G#4,31.667,0.25,33,132.69
185,D4,31.667,0.25,33,132.69
186,F2,32.0,2.0,45,132.69
187,F3,32.0,2.0,45,132.69
188,B-4,32.333,0.25,31,132.69
189,G#4,32.333,0.25,31,132.69
190,D4,32.333,0.25,31,132.69
191,B-4,32.667,0.25,31,132.69
192,G#4,32.667,0.25,31,132.69
193,D4,32.667,0.25,31,132.69
194,D4,33.0,0.25,34,132.69
195,G#4,33.0,0.25,34,132.69
196,B4,33.0,0.25,34,132.69
197,B-4,33.333,0.25,31,132.69
198,G#4,33.333,0.25,31,132.69
199,D4,33.333,0.25,31,132.69
200,B-4,33.667,0.25,31,132.69
201,G#4,33.667,0.25,31,132.69
202,D4,33.667,0.25,31,132.69
203,E-5,34.0,1.0,35,132.69
204,G4,34.0,1.0,35,132.69
205,E-4,34.0,1.0,35,132.69
206,E-2,34.0,1.0,34,132.69
207,E-3,34.0,1.0,34,132.69
208,B-2,35.0,1.0,39,132.69
209,E-3,36.0,1.0,48,132.69
210,E-4,36.333,0.25,35,132.69
211,G4,36.333,0.25,35,132.69
212,E-4,36.667,0.25,35,132.69
213,G4,36.667,0.25,35,132.69
214,G3,37.0,1.0,51,132.69
215,G4,37.333,0.25,40,132.69
216,E-4,37.333,0.25,40,132.69
217,G4,37.667,0.25,40,132.69
218,E-4,37.667,0.25,40,132.69
219,B-3,38.0,1.0,56,132.69
220,E-4,38.333,0.25,45,132.69
221,G4,38.333,0.25,45,132.69
222,E-4,38.667,0.25,46,132.69
223,G4,38.667,0.25,46,132.69
224,B3,39.0,1.0,66,132.69
225,E-4,39.333,0.25,48,132.69
226,G4,39.333,0.25,48,132.69
227,E-4,39.667,0.25,48,132.69
228,G4,39.667,0.25,48,132.69
229,C4,40.0,1.0,73,132.69
230,E-4,40.333,0.25,48,132.69
231,G4,40.333,0.25,48,132.69
232,E-4,40.667,0.25,48,132.69
233,G4,40.667,0.25,48,132.69
234,A3,41.0,1.0,50,132.69
235,E-4,41.333,0.25,42,132.69
236,G4,41.333,0.25,42,132.69
237,E-4,41.667,0.25,42,132.69
238,G4,41.667,0.25,42,132.69
239,B-3,42.0,1.0,55,132.69
240,G4,42.333,0.25,44,132.69
241,E-4,42.333,0.25,44,132.69
242,G4,42.667,0.25,42,132.69
243,E-4,42.667,0.25,42,132.69
244,E-3,43.0,1.0,47,132.69
245,G4,43.333,0.25,38,132.69
246,E-4,43.333,0.25,38,132.69
247,G4,43.667,0.25,38,132.69
248,E-4,43.667,0.25,38,132.69
249,D3,44.0,2.0,46,132.69
250,B-4,44.333,0.25,40,132.69
251,F4,44.333,0.25,40,132.69
252,B-4,44.667,0.25,42,132.69
253,F4,44.667,0.25,42,132.69
254,B-3,45.0,1.0,56,132.69
255,G#4,45.333,0.25,48,132.69
256,F4,45.333,0.25,48,132.69
257,G#4,45.667,0.25,49,132.69
258,F4,45.667,0.25,49,132.69
259,E-3,45.875,2.125,54,132.69
260,B3,46.0,1.0,68,132.69
261,F4,46.333,0.25,54,132.69
262,G#4,46.333,0.25,54,132.69
263,F4,46.667,0.25,54,132.69
264,G#4,46.667,0.25,54,132.69
265,B-3,47.0,173/200,58,132.69
266,E-4,47.333,0.25,46,132.69
267,G4,47.333,0.25,46,132.69
268,E-4,47.667,0.25,46,132.69
269,G4,47.667,0.25,46,132.69
270,B-2,47.875,0.125,54,132.69
271,B-3,48.0,1.0,69,132.69
272,E-4,48.333,0.25,48,132.69
273,G4,48.333,0.25,48,132.69
274,E-4,48.667,0.25,48,132.69
275,G4,48.667,0.25,48,132.69
276,A3,49.0,1.0,55,132.69
277,C5,49.333,0.25,39,132.69
278,F#4,49.333,0.25,39,132.69
279,E-4,49.333,0.25,39,132.69
280,C5,49.667,0.25,39,132.69
281,F#4,49.667,0.25,39,132.69
282,E-4,49.667,0.25,39,132.69
283,G#3,50.0,1.0,51,132.69
284,F4,50.333,0.25,36,132.69
285,D4,50.333,0.25,36,132.69
286,F4,50.667,0.25,36,132.69
287,D4,50.667,0.25,36,132.69
288,F3,51.0,1.0,40,132.69
289,F2,51.0,1.0,40,132.69
290,B-4,51.333,0.25,33,132.69
291,G#4,51.333,0.25,33,132.69
292,D4,51.333,0.25,33,132.69
293,B-4,51.667,0.25,33,132.69
294,G#4,51.667,0.25,33,132.69
295,D4,51.667,0.25,33,132.69
296,E-3,52.0,1.0,49,132.69
297,E-2,52.0,1.0,49,132.69
298,E-5,52.333,0.25,38,132.69
299,G4,52.333,0.25,38,132.69
300,E-4,52.333,0.25,38,132.69
301,E-5,52.667,0.25,38,132.69
302,G4,52.667,0.25,38,132.69
303,E-4,52.667,0.25,38,132.69
304,G3,53.0,1.0,54,132.69
305,G2,53.0,1.0,54,132.69
306,E-4,53.333,0.25,45,132.69
307,G4,53.333,0.25,45,132.69
308,E-5,53.333,0.25,45,132.69
309,E-4,53.667,0.25,45,132.69
310,G4,53.667,0.25,45,132.69
311,E-5,53.667,0.25,45,132.69
312,B-3,54.0,1.0,58,132.69
313,B-2,54.0,1.0,58,132.69
314,E-4,54.333,0.25,51,132.69
315,G4,54.333,0.25,51,132.69
316,E-5,54.333,0.25,51,132.69
317,E-4,54.667,0.25,52,132.69
318,G4,54.667,0.25,52,132.69
319,E-5,54.667,0.25,52,132.69
320,C4,55.0,1.0,65,132.69
321,C3,55.0,1.0,65,132.69
322,E-4,55.333,0.25,55,132.69
323,G#4,55.333,0.25,55,132.69
324,E-5,55.333,0.25,55,132.69
325,E-5,55.667,0.25,56,132.69
326,G#4,55.667,0.25,56,132.69
327,E-4,55.667,0.25,56,132.69
328,C#4,56.0,1.0,73,132.69
329,C#3,56.0,1.0,73,132.69
330,E-4,56.333,0.25,63,132.69
331,B-4,56.333,0.25,63,132.69
332,E-5,56.333,0.25,63,132.69
333,E-4,56.667,0.25,63,132.69
334,B-4,56.667,0.25,63,132.69
335,E-5,56.667,0.25,63,132.69
336,G3,57.0,1.0,70,132.69
337,G2,57.0,1.0,70,132.69
338,E-5,57.333,0.25,58,132.69
339,B4,57.333,0.25,58,132.69
340,E-4,57.333,0.25,58,132.69
341,E-5,57.667,0.25,57,132.69
342,B4,57.667,0.25,57,132.69
343,E-4,57.667,0.25,57,132.69
344,G#3,58.0,1.0,78,132.69
345,G#2,58.0,1.0,78,132.69
346,E-4,58.333,0.25,62,132.69
347,C5,58.333,0.25,62,132.69
348,E-5,58.333,0.25,62,132.69
349,E-4,58.667,0.25,61,132.69
350,C5,58.667,0.25,61,132.69
351,E-5,58.667,0.25,61,132.69
352,A2,59.0,1.0,80,132.69
353,A3,59.0,1.0,80,132.69
354,F4,59.333,0.25,70,132.69
355,C5,59.333,0.25,70,132.69
356,E-5,59.333,0.25,70,132.69
357,F5,59.333,0.25,70,132.69
358,F4,59.667,0.25,70,132.69
359,C5,59.667,0.25,70,132.69
360,E-5,59.667,0.25,70,132.69
361,F5,59.667,0.25,70,132.69
362,B-3,60.0,1.0,86,132.69
363,B-2,60.0,1.0,86,132.69
364,G5,60.333,0.25,72,132.69
365,E-5,60.333,0.25,72,132.69
366,B-4,60.333,0.25,72,132.69
367,G4,60.333,0.25,72,132.69
368,G5,60.667,0.25,72,132.69
369,E-5,60.667,0.25,72,132.69
370,B-4,60.667,0.25,72,132.69
371,G4,60.667,0.25,72,132.69
372,B-1,61.0,1.0,58,132.69
373,B-2,61.0,1.0,58,132.69
374,E-5,61.333,0.25,45,132.69
375,B-4,61.333,0.25,45,132.69
376,G4,61.333,0.25,45,132.69
377,E-5,61.667,0.25,44,132.69
378,B-4,61.667,0.25,44,132.69
379,G4,61.667,0.25,44,132.69
380,G2,62.0,1.0,62,132.69
381,G3,62.0,1.0,62,132.69
382,B-4,62.333,0.25,44,132.69
383,E-4,62.333,0.25,44,132.69
384,B-4,62.667,0.25,43,132.69
385,E-4,62.667,0.25,43,132.69
386,F2,63.0,1.0,41,132.69
387,F3,63.0,1.0,41,132.69
388,D4,63.333,0.25,34,132.69
389,G#4,63.333,0.25,34,132.69
390,B-4,63.333,0.25,34,132.69
391,B-4,63.667,0.25,33,132.69
392,G#4,63.667,0.25,33,132.69
393,D4,63.667,0.25,33,132.69
394,F2,64.0,2.0,45,132.69
395,F3,64.0,2.0,45,132.69
396,B-4,64.333,0.25,31,132.69
397,G#4,64.333,0.25,31,132.69
398,D4,64.333,0.25,31,132.69
399,B-4,64.667,0.25,31,132.69
400,G#4,64.667,0.25,31,132.69
401,D4,64.667,0.25,31,132.69
402,D4,65.0,0.25,34,132.69
403,G#4,65.0,0.25,34,132.69
404,B4,65.0,0.25,34,132.69
405,B-4,65.333,0.25,31,132.69
406,G#4,65.333,0.25,31,132.69
407,D4,65.333,0.25,31,132.69
408,B-4,65.667,0.25,31,132.69
409,G#4,65.667,0.25,31,132.69
410,D4,65.667,0.25,31,132.69
411,E-5,66.0,1.0,35,132.69
412,G4,66.0,1.0,35,132.69
413,E-4,66.0,1.0,35,132.69
414,E-2,66.0,1.0,34,132.69
415,E-3,66.0,1.0,34,132.69
416,D3,67.0,1.0,50,132.69
417,D2,67.0,1.0,50,132.69
418,F4,67.333,0.25,42,132.69
419,G4,67.333,0.25,42,132.69
420,G4,67.667,0.25,34,132.69
421,F4,67.667,0.25,34,132.69
422,C3,68.0,1.0,49,132.69
423,C2,68.0,1.0,49,132.69
424,E-4,68.333,0.25,47,132.69
425,C5,68.333,0.25,47,132.69
426,E-4,68.667,0.25,38,132.69
427,C5,68.667,0.25,38,132.69
428,C4,69.0,1.0,62,132.69
429,C3,69.0,1.0,62,132.69
430,E-4,69.333,0.25,52,132.69
431,C5,69.333,0.25,52,132.69
432,E-4,69.667,0.25,54,132.69
433,C5,69.667,0.25,54,132.69
434,G#3,70.0,1.0,54,132.69
435,G#2,70.0,1.0,54,132.69
436,C5,70.333,0.25,52,132.69
437,E-4,70.333,0.25,52,132.69
438,C5,70.667,0.25,52,132.69
439,E-4,70.667,0.25,52,132.69
440,E-3,71.0,1.0,50,132.69
441,E-2,71.0,1.0,50,132.69
442,C4,71.333,0.25,41,132.69
443,G4,71.333,0.25,41,132.69
444,C5,71.333,0.25,41,132.69
445,G4,71.667,0.25,37,132.69
446,C5,71.667,0.25,37,132.69
447,C4,71.667,0.25,37,132.69
448,F2,72.0,1.0,64,132.69
449,F3,72.0,1.0,64,132.69
450,B-4,72.333,0.25,53,132.69
451,G4,72.333,0.25,53,132.69
452,C4,72.333,0.25,53,132.69
453,C4,72.667,0.25,53,132.69
454,G4,72.667,0.25,53,132.69
455,B-4,72.667,0.25,53,132.69
456,D2,73.0,1.0,54,132.69
457,D3,73.0,1.0,54,132.69
458,G#4,73.333,0.25,47,132.69
459,F4,73.333,0.25,47,132.69
460,C4,73.333,0.25,47,132.69
461,G#4,73.667,0.25,47,132.69
462,F4,73.667,0.25,47,132.69
463,C4,73.667,0.25,47,132.69
464,G2,74.0,1.0,62,132.69
465,G3,74.0,1.0,62,132.69
466,B3,74.333,0.25,50,132.69
467,G4,74.333,0.25,50,132.69
468,F4,74.333,0.25,50,132.69
469,B3,74.667,0.25,50,132.69
470,G4,74.667,0.25,50,132.69
471,F4,74.667,0.25,50,132.69
472,F2,75.0,1.0,62,132.69
473,F3,75.0,1.0,62,132.69
474,B4,75.333,0.25,48,132.69
475,G4,75.333,0.25,48,132.69
476,D4,75.333,0.25,48,132.69
477,G4,75.667,0.25,48,132.69
478,B4,75.667,0.25,48,132.69
479,D4,75.667,0.25,48,132.69
480,E-2,76.0,1.0,65,132.69
481,E-3,76.0,1.0,65,132.69
482,C4,76.333,0.25,52,132.69
483,G4,76.333,0.25,52,132.69
484,C5,76.333,0.25,52,132.69
485,C5,76.667,0.25,49,132.69
486,G4,76.667,0.25,49,132.69
487,C4,76.667,0.25,49,132.69
488,B2,77.0,1.0,72,132.69
489,B1,77.0,1.0,72,132.69
490,F4,77.333,0.25,59,132.69
491,G4,77.333,0.25,59,132.69
492,D5,77.333,0.25,59,132.69
493,F4,77.667,0.25,61,132.69
494,G4,77.667,0.25,61,132.69
495,D5,77.667,0.25,61,132.69
496,C2,78.0,1.0,78,132.69
497,C3,78.0,1.0,78,132.69
498,G4,78.333,0.25,66,132.69
499,E-5,78.333,0.25,66,132.69
500,E-4,78.333,0.25,66,132.69
501,G4,78.667,0.25,66,132.69
502,E-5,78.667,0.25,66,132.69
503,E-4,78.667,0.25,66,132.69
504,B-1,79.0,1.0,89,132.69
505,B-2,79.0,1.0,89,132.69
506,G5,79.333,0.25,73,132.69
507,C5,79.333,0.25,73,132.69
508,G4,79.333,0.25,73,132.69
509,G5,79.667,0.25,73,132.69
510,C5,79.667,0.25,73,132.69
511,G4,79.667,0.25,73,132.69
512,G#2,80.0,1.0,90,132.69
513,G#1,80.0,1.0,90,132.69
514,C6,80.333,0.25,81,132.69
515,G5,80.333,0.25,81,132.69
516,C5,80.333,0.25,81,132.69
517,C6,80.667,0.25,81,132.69
518,G5,80.667,0.25,81,132.69
519,C5,80.667,0.25,81,132.69
520,G#2,81.0,1.0,58,132.69
521,G#3,81.0,1.0,58,132.69
522,C5,81.333,0.25,45,132.69
523,F#4,81.333,0.25,45,132.69
524,D4,81.333,0.25,45,132.69
525,C5,81.667,0.25,44,132.69
526,F#4,81.667,0.25,44,132.69
527,D4,81.667,0.25,44,132.69
528,G2,82.0,1.0,62,132.69
529,G3,82.0,1.0,62,132.69
530,G4,82.333,0.25,43,132.69
531,B4,82.333,0.25,43,132.69
532,D4,82.333,0.25,43,132.69
533,G4,82.667,0.25,42,132.69
534,B4,82.667,0.25,42,132.69
535,D4,82.667,0.25,42,132.69
536,F2,83.0,1.0,34,132.69
537,F3,83.0,1.0,34,132.69
538,D4,83.333,0.25,29,132.69
539,G#4,83.333,0.25,29,132.69
540,B-4,83.333,0.25,29,132.69
541,B-4,83.667,0.25,28,132.69
542,G#4,83.667,0.25,28,132.69
543,D4,83.667,0.25,28,132.69
544,E-3,84.0,1.0,42,132.69
545,E-2,84.0,1.0,42,132.69
546,E-5,84.333,0.25,32,132.69
547,G4,84.333,0.25,32,132.69
548,E-4,84.333,0.25,32,132.69
549,E-5,84.667,0.25,33,132.69
550,G4,84.667,0.25,33,132.69
551,E-4,84.667,0.25,33,132.69
552,G3,85.0,1.0,47,132.69
553,G2,85.0,1.0,47,132.69
554,E-4,85.333,0.25,40,132.69
555,G4,85.333,0.25,40,132.69
556,E-5,85.333,0.25,40,132.69
557,E-4,85.667,0.25,41,132.69
558,G4,85.667,0.25,41,132.69
559,E-5,85.667,0.25,41,132.69
560,B-3,86.0,1.0,52,132.69
561,B-2,86.0,1.0,52,132.69
562,E-4,86.333,0.25,47,132.69
563,G4,86.333,0.25,47,132.69
564,E-5,86.333,0.25,47,132.69
565,E-4,86.667,0.25,49,132.69
566,G4,86.667,0.25,49,132.69
567,E-5,86.667,0.25,49,132.69
568,C4,87.0,1.0,62,132.69
569,C3,87.0,1.0,62,132.69
570,E-4,87.333,0.25,53,132.69
571,G#4,87.333,0.25,53,132.69
572,E-5,87.333,0.25,53,132.69
573,E-5,87.667,0.25,54,132.69
574,G#4,87.667,0.25,54,132.69
575,E-4,87.667,0.25,54,132.69
576,C#4,88.0,1.0,73,132.69
577,C#3,88.0,1.0,73,132.69
578,E-4,88.333,0.25,63,132.69
579,B-4,88.333,0.25,63,132.69
580,E-5,88.333,0.25,63,132.69
581,E-4,88.667,0.25,63,132.69
582,B-4,88.667,0.25,63,132.69
583,E-5,88.667,0.25,63,132.69
584,G3,89.0,1.0,70,132.69
585,G2,89.0,1.0,70,132.69
586,E-5,89.333,0.25,58,132.69
587,B4,89.333,0.25,58,132.69
588,E-4,89.333,0.25,58,132.69
589,E-5,89.667,0.25,57,132.69
590,B4,89.667,0.25,57,132.69
591,E-4,89.667,0.25,57,132.69
592,G#3,90.0,1.0,78,132.69
593,G#2,90.0,1.0,78,132.69
594,E-4,90.333,0.25,62,132.69
595,C5,90.333,0.25,62,132.69
596,E-5,90.333,0.25,62,132.69
597,E-4,90.667,0.25,61,132.69
598,C5,90.667,0.25,61,132.69
599,E-5,90.667,0.25,61,132.69
600,A2,91.0,1.0,80,132.69
601,A3,91.0,1.0,80,132.69
602,F4,91.333,0.25,70,132.69
603,C5,91.333,0.25,70,132.69
604,E-5,91.333,0.25,70,132.69
605,F5,91.333,0.25,70,132.69
606,F4,91.667,0.25,70,132.69
607,C5,91.667,0.25,70,132.69
608,E-5,91.667,0.25,70,132.69
609,F5,91.667,0.25,70,132.69
610,B-3,92.0,1.0,86,132.69
611,B-2,92.0,1.0,86,132.69
612,G5,92.333,0.25,72,132.69
613,E-5,92.333,0.25,72,132.69
614,B-4,92.333,0.25,72,132.69
615,G4,92.333,0.25,72,132.69
616,G5,92.667,0.25,72,132.69
617,E-5,92.667,0.25,72,132.69
618,B-4,92.667,0.25,72,132.69
619,G4,92.667,0.25,72,132.69
620,B-1,93.0,1.0,58,132.69
621,B-2,93.0,1.0,58,132.69
622,E-5,93.333,0.25,45,132.69
623,B-4,93.333,0.25,45,132.69
624,G4,93.333,0.25,45,132.69
625,E-5,93.667,0.25,44,132.69
626,B-4,93.667,0.25,44,132.69
627,G4,93.667,0.25,44,132.69
628,G2,94.0,1.0,62,132.69
629,G3,94.0,1.0,62,132.69
630,B-4,94.333,0.25,44,132.69
631,E-4,94.333,0.25,44,132.69
632,B-4,94.667,0.25,43,132.69
633,E-4,94.667,0.25,43,132.69
634,F2,95.0,1.0,41,132.69
635,F3,95.0,1.0,41,132.69
636,D4,95.333,0.25,34,132.69
637,G#4,95.333,0.25,34,132.69
638,B-4,95.333,0.25,34,132.69
639,B-4,95.667,0.25,33,132.69
640,G#4,95.667,0.25,33,132.69
641,D4,95.667,0.25,33,132.69
642,F2,96.0,2.0,45,132.69
643,F3,96.0,2.0,45,132.69
644,B-4,96.333,0.25,31,132.69
645,G#4,96.333,0.25,31,132.69
646,D4,96.333,0.25,31,132.69
647,B-4,96.667,0.25,31,132.69
648,G#4,96.667,0.25,31,132.69
649,D4,96.667,0.25,31,132.69
650,D4,97.0,0.25,34,132.69
651,G#4,97.0,0.25,34,132.69
652,B4,97.0,0.25,34,132.69
653,B-4,97.333,0.25,31,132.69
654,G#4,97.333,0.25,31,132.69
655,D4,97.333,0.25,31,132.69
656,B-4,97.667,0.25,31,132.69
657,G#4,97.667,0.25,31,132.69
658,D4,97.667,0.25,31,132.69
659,E-5,98.0,1.0,35,132.69
660,G4,98.0,1.0,35,132.69
661,E-4,98.0,1.0,35,132.69
662,E-2,98.0,1.0,34,132.69
663,E-3,98.0,1.0,34,132.69
664,D3,99.0,1.0,50,132.69
665,D2,99.0,1.0,50,132.69
666,F4,99.333,0.25,42,132.69
667,G4,99.333,0.25,42,132.69
668,G4,99.667,0.25,34,132.69
669,F4,99.667,0.25,34,132.69
670,C3,100.0,1.0,49,132.69
671,C2,100.0,1.0,49,132.69
672,E-4,100.333,0.25,47,132.69
673,C5,100.333,0.25,47,132.69
674,E-4,100.667,0.25,38,132.69
675,C5,100.667,0.25,38,132.69
676,C4,101.0,1.0,62,132.69
677,C3,101.0,1.0,62,132.69
678,E-4,101.333,0.25,52,132.69
679,C5,101.333,0.25,52,132.69
680,E-4,101.667,0.25,54,132.69
681,C5,101.667,0.25,54,132.69
682,G#3,102.0,1.0,54,132.69
683,G#2,102.0,1.0,54,132.69
684,C5,102.333,0.25,52,132.69
685,E-4,102.333,0.25,52,132.69
686,C5,102.667,0.25,52,132.69
687,E-4,102.667,0.25,52,132.69
688,E-3,103.0,1.0,50,132.69
689,E-2,103.0,1.0,50,132.69
690,C4,103.333,0.25,41,132.69
691,G4,103.333,0.25,41,132.69
692,C5,103.333,0.25,41,132.69
693,G4,103.667,0.25,37,132.69
694,C5,103.667,0.25,37,132.69
695,C4,103.667,0.25,37,132.69
696,F2,104.0,1.0,64,132.69
697,F3,104.0,1.0,64,132.69
698,B-4,104.333,0.25,53,132.69
699,G4,104.333,0.25,53,132.69
700,C4,104.333,0.25,53,132.69
701,C4,104.667,0.25,53,132.69
702,G4,104.667,0.25,53,132.69
703,B-4,104.667,0.25,53,132.69
704,D2,105.0,1.0,54,132.69
705,D3,105.0,1.0,54,132.69
706,G#4,105.333,0.25,47,132.69
707,F4,105.333,0.25,47,132.69
708,C4,105.333,0.25,47,132.69
709,G#4,105.667,0.25,47,132.69
710,F4,105.667,0.25,47,132.69
711,C4,105.667,0.25,47,132.69
712,G2,106.0,1.0,62,132.69
713,G3,106.0,1.0,62,132.69
714,B3,106.333,0.25,50,132.69
715,G4,106.333,0.25,50,132.69
716,F4,106.333,0.25,50,132.69
717,B3,106.667,0.25,50,132.69
718,G4,106.667,0.25,50,132.69
719,F4,106.667,0.25,50,132.69
720,F2,107.0,1.0,62,132.69
721,F3,107.0,1.0,62,132.69
722,B4,107.333,0.25,48,132.69
723,G4,107.333,0.25,48,132.69
724,D4,107.333,0.25,48,132.69
725,G4,107.667,0.25,48,132.69
726,B4,107.667,0.25,48,132.69
727,D4,107.667,0.25,48,132.69
728,E-2,108.0,1.0,65,132.69
729,E-3,108.0,1.0,65,132.69
730,C4,108.333,0.25,52,132.69
731,G4,108.333,0.25,52,132.69
732,C5,108.333,0.25,52,132.69
733,C5,108.667,0.25,49,132.69
734,G4,108.667,0.25,49,132.69
735,C4,108.667,0.25,49,132.69
736,B2,109.0,1.0,72,132.69
737,B1,109.0,1.0,72,132.69
738,F4,109.333,0.25,59,132.69
739,G4,109.333,0.25,59,132.69
740,D5,109.333,0.25,59,132.69
741,F4,109.667,0.25,61,132.69
742,G4,109.667,0.25,61,132.69
743,D5,109.667,0.25,61,132.69
744,C2,110.0,1.0,78,132.69
745,C3,110.0,1.0,78,132.69
746,G4,110.333,0.25,66,132.69
747,E-5,110.333,0.25,66,132.69
748,E-4,110.333,0.25,66,132.69
749,G4,110.667,0.25,66,132.69
750,E-5,110.667,0.25,66,132.69
751,E-4,110.667,0.25,66,132.69
752,B-1,111.0,1.0,89,132.69
753,B-2,111.0,1.0,89,132.69
754,G5,111.333,0.25,73,132.69
755,C5,111.333,0.25,73,132.69
756,G4,111.333,0.25,73,132.69
757,G5,111.667,0.25,73,132.69
758,C5,111.667,0.25,73,132.69
759,G4,111.667,0.25,73,132.69
760,G#2,112.0,1.0,90,132.69
761,G#1,112.0,1.0,90,132.69
762,C6,112.333,0.25,81,132.69
763,G5,112.333,0.25,81,132.69
764,C5,112.333,0.25,81,132.69
765,C6,112.667,0.25,81,132.69
766,G5,112.667,0.25,81,132.69
767,C5,112.667,0.25,81,132.69
768,G#2,113.0,1.0,58,132.69
769,G#3,113.0,1.0,58,132.69
770,C5,113.333,0.25,45,132.69
771,F#4,113.333,0.25,45,132.69
772,D4,113.333,0.25,45,132.69
773,C5,113.667,0.25,44,132.69
774,F#4,113.667,0.25,44,132.69
775,D4,113.667,0.25,44,132.69
776,G2,114.0,1.0,62,132.69
777,G3,114.0,1.0,62,132.69
778,G4,114.333,0.25,43,132.69
779,B4,114.333,0.25,43,132.69
780,D4,114.333,0.25,43,132.69
781,G4,114.667,0.25,42,132.69
782,B4,114.667,0.25,42,132.69
783,D4,114.667,0.25,42,132.69
784,F2,115.0,1.0,41,132.69
785,F3,115.0,1.0,41,132.69
786,D4,115.333,0.25,34,132.69
787,G#4,115.333,0.25,34,132.69
788,B-4,115.333,0.25,34,132.69
789,B-4,115.667,0.25,33,132.69
790,G#4,115.667,0.25,33,132.69
791,D4,115.667,0.25,33,132.69
792,E-3,116.0,1.0,42,132.69
793,E-2,116.0,1.0,42,132.69
794,E-5,116.333,0.25,32,132.69
795,G4,116.333,0.25,32,132.69
796,E-4,116.333,0.25,32,132.69
797,E-5,116.667,0.25,33,132.69
798,G4,116.667,0.25,33,132.69
799,E-4,116.667,0.25,33,132.69
800,G3,117.0,1.0,47,132.69
801,G2,117.0,1.0,47,132.69
802,E-4,117.333,0.25,40,132.69
803,G4,117.333,0.25,40,132.69
804,E-5,117.333,0.25,40,132.69
805,E-4,117.667,0.25,41,132.69
806,G4,117.667,0.25,41,132.69
807,E-5,117.667,0.25,41,132.69
808,B-3,118.0,1.0,52,132.69
809,B-2,118.0,1.0,52,132.69
810,E-4,118.333,0.25,47,132.69
811,G4,118.333,0.25,47,132.69
812,E-5,118.333,0.25,47,132.69
813,E-4,118.667,0.25,49,132.69
814,G4,118.667,0.25,49,132.69
815,E-5,118.667,0.25,49,132.69
816,C4,119.0,1.0,62,132.69
817,C3,119.0,1.0,62,132.69
818,E-4,119.333,0.25,53,132.69
819,G#4,119.333,0.25,53,132.69
820,E-5,119.333,0.25,53,132.69
821,E-5,119.667,0.25,54,132.69
822,G#4,119.667,0.25,54,132.69
823,E-4,119.667,0.25,54,132.69
824,C#4,120.0,1.0,73,132.69
825,C#3,120.0,1.0,73,132.69
826,E-4,120.333,0.25,63,132.69
827,B-4,120.333,0.25,63,132.69
828,E-5,120.333,0.25,63,132.69
829,E-4,120.667,0.25,63,132.69
830,B-4,120.667,0.25,63,132.69
831,E-5,120.667,0.25,63,132.69
832,G3,121.0,1.0,64,132.69
833,G2,121.0,1.0,64,132.69
834,E-5,121.333,0.25,53,132.69
835,B4,121.333,0.25,53,132.69
836,E-4,121.333,0.25,53,132.69
837,E-5,121.667,0.25,52,132.69
838,B4,121.667,0.25,52,132.69
839,E-4,121.667,0.25,52,132.69
840,G#3,122.0,1.0,72,132.69
841,G#2,122.0,1.0,72,132.69
842,E-4,122.333,0.25,62,132.69
843,C5,122.333,0.25,62,132.69
844,E-5,122.333,0.25,62,132.69
845,E-4,122.667,0.25,61,132.69
846,C5,122.667,0.25,61,132.69
847,E-5,122.667,0.25,61,132.69
848,A2,123.0,1.0,80,132.69
849,A3,123.0,1.0,80,132.69
850,F4,123.333,0.25,70,132.69
851,C5,123.333,0.25,70,132.69
852,E-5,123.333,0.25,70,132.69
853,F5,123.333,0.25,70,132.69
854,F4,123.667,0.25,70,132.69
855,C5,123.667,0.25,70,132.69
856,E-5,123.667,0.25,70,132.69
857,F5,123.667,0.25,70,132.69
858,B-3,124.0,1.0,86,132.69
859,B-2,124.0,1.0,86,132.69
860,G5,124.333,0.25,72,132.69
861,E-5,124.333,0.25,72,132.69
862,B-4,124.333,0.25,72,132.69
863,G4,124.333,0.25,72,132.69
864,G5,124.667,0.25,72,132.69
865,E-5,124.667,0.25,72,132.69
866,B-4,124.667,0.25,72,132.69
867,G4,124.667,0.25,72,132.69
868,B-1,125.0,1.0,58,132.69
869,B-2,125.0,1.0,58,132.69
870,E-5,125.333,0.25,45,132.69
871,B-4,125.333,0.25,45,132.69
872,G4,125.333,0.25,45,132.69
873,E-5,125.667,0.25,44,132.69
874,B-4,125.667,0.25,44,132.69
875,G4,125.667,0.25,44,132.69
876,G2,126.0,1.0,62,132.69
877,G3,126.0,1.0,62,132.69
878,B-4,126.333,0.25,44,132.69
879,E-4,126.333,0.25,44,132.69
880,B-4,126.667,0.25,43,132.69
881,E-4,126.667,0.25,43,132.69
882,F2,127.0,1.0,41,132.69
883,F3,127.0,1.0,41,132.69
884,D4,127.333,0.25,34,132.69
885,G#4,127.333,0.25,34,132.69
886,B-4,127.333,0.25,34,132.69
887,B-4,127.667,0.25,33,132.69
888,G#4,127.667,0.25,33,132.69
889,D4,127.667,0.25,33,132.69
890,E-2,128.0,1.0,38,132.69
891,E-3,128.0,1.0,38,132.69
892,E-4,128.333,0.25,32,132.69
893,G4,128.333,0.25,32,132.69
894,B-4,128.333,0.25,32,132.69
895,B-4,128.667,0.25,31,132.69
896,G4,128.667,0.25,31,132.69
897,E-4,128.667,0.25,31,132.69
898,C#3,129.0,1.0,43,132.69
899,E-2,129.0,1.0,43,132.69
900,B-4,129.333,0.25,38,132.69
901,E-4,129.333,0.25,38,132.69
902,B-3,129.333,0.25,38,132.69
903,B-4,129.667,0.25,37,132.69
904,E-4,129.667,0.25,37,132.69
905,B-3,129.667,0.25,37,132.69
906,C3,130.0,1.0,40,132.69
907,E-2,130.0,1.0,40,132.69
908,A3,130.333,0.25,33,132.69
909,A4,130.333,0.25,33,132.69
910,E-4,130.333,0.25,33,132.69
911,A3,130.667,0.25,33,132.69
912,A4,130.667,0.25,33,132.69
913,E-4,130.667,0.25,33,132.69
914,B2,131.0,1.0,38,132.69
915,E-2,131.0,1.0,38,132.69
916,G#3,131.333,0.25,30,132.69
917,E-4,131.333,0.25,30,132.69
918,G#4,131.333,0.25,30,132.69
919,G#3,131.667,0.25,30,132.69
920,E-4,131.667,0.25,30,132.69
921,G#4,131.667,0.25,30,132.69
922,B-2,132.0,1.0,37,132.69
923,E-2,132.0,1.0,37,132.69
924,G4,132.333,0.25,30,132.69
925,E-4,132.333,0.25,30,132.69
926,G3,132.333,0.25,30,132.69
927,G3,132.667,0.25,30,132.69
928,E-4,132.667,0.25,30,132.69
929,G4,132.667,0.25,30,132.69
930,C#3,133.0,1.0,43,132.69
931,E-2,133.0,1.0,43,132.69
932,B-4,133.333,0.25,38,132.69
933,E-4,133.333,0.25,38,132.69
934,B-3,133.333,0.25,38,132.69
935,B-4,133.667,0.25,37,132.69
936,E-4,133.667,0.25,37,132.69
937,B-3,133.667,0.25,37,132.69
938,C3,134.0,1.0,40,132.69
939,E-2,134.0,1.0,40,132.69
940,A3,134.333,0.25,33,132.69
941,A4,134.333,0.25,33,132.69
942,E-4,134.333,0.25,33,132.69
943,A3,134.667,0.25,33,132.69
944,A4,134.667,0.25,33,132.69
945,E-4,134.667,0.25,33,132.69
946,B2,135.0,1.0,38,132.69
947,E-2,135.0,1.0,38,132.69
948,G#3,135.333,0.25,30,132.69
949,E-4,135.333,0.25,30,132.69
950,G#4,135.333,0.25,30,132.69
951,G#3,135.667,0.25,30,132.69
952,E-4,135.667,0.25,30,132.69
953,G#4,135.667,0.25,30,132.69
954,B-2,136.0,1.0,37,132.69
955,E-2,136.0,1.0,37,132.69
956,G4,136.333,0.25,30,132.69
957,E-4,136.333,0.25,30,132.69
958,G3,136.333,0.25,30,132.69
959,G3,136.667,0.25,30,132.69
960,E-4,136.667,0.25,30,132.69
961,G4,136.667,0.25,30,132.69
962,B2,137.0,1.0,52,132.69
963,D2,137.0,1.0,52,132.69
964,G4,137.333,0.25,44,132.69
965,F4,137.333,0.25,44,132.69
966,G3,137.333,0.25,44,132.69
967,G4,137.667,0.25,44,132.69
968,F4,137.667,0.25,44,132.69
969,G3,137.667,0.25,44,132.69
970,C3,138.0,1.0,56,132.69
971,C2,138.0,1.0,56,132.69
972,G3,138.333,0.25,48,132.69
973,G4,138.333,0.25,48,132.69
974,E-4,138.333,0.25,48,132.69
975,G3,138.667,0.25,49,132.69
976,G4,138.667,0.25,49,132.69
977,E-4,138.667,0.25,49,132.69
978,B-2,139.0,1.0,66,132.69
979,B-1,139.0,1.0,66,132.69
980,G3,139.333,0.25,58,132.69
981,E-4,139.333,0.25,58,132.69
982,G4,139.333,0.25,58,132.69
983,G3,139.667,0.25,59,132.69
984,E-4,139.667,0.25,59,132.69
985,G4,139.667,0.25,59,132.69
986,G#1,140.0,1.0,80,132.69
987,G#2,140.0,1.0,80,132.69
988,C4,140.333,0.25,67,132.69
989,G4,140.333,0.25,67,132.69
990,B-4,140.333,0.25,67,132.69
991,B-4,140.667,0.25,67,132.69
992,G4,140.667,0.25,67,132.69
993,C4,140.667,0.25,67,132.69
994,F2,141.0,1.0,50,132.69
995,F1,141.0,1.0,50,132.69
996,G#4,141.333,0.25,44,132.69
997,F4,141.333,0.25,44,132.69
998,C4,141.333,0.25,44,132.69
999,G#4,141.667,0.25,44,132.69
1000,F4,141.667,0.25,44,132.69
1001,C4,141.667,0.25,44,132.69
1002,B-2,142.0,1.0,49,132.69
1003,B-1,142.0,1.0,49,132.69
1004,B-3,142.333,0.25,30,132.69
1005,G4,142.333,0.25,30,132.69
1006,E-4,142.333,0.25,30,132.69
1007,B-3,142.667,0.25,30,132.69
1008,G4,142.667,0.25,30,132.69
1009,E-4,142.667,0.25,30,132.69
1010,B-2,143.0,1.0,42,132.69
1011,B-1,143.0,1.0,42,132.69
1012,G#3,143.333,0.25,27,132.69
1013,D4,143.333,0.25,27,132.69
1014,F4,143.333,0.25,27,132.69
1015,G#3,143.667,0.25,27,132.69
1016,D4,143.667,0.25,27,132.69
1017,F4,143.667,0.25,27,132.69
1018,B-2,144.0,1.0,37,132.69
1019,E-2,144.0,1.0,37,132.69
1020,E-4,144.333,0.25,31,132.69
1021,G3,144.333,0.25,31,132.69
1022,G3,144.667,0.25,31,132.69
1023,E-4,144.667,0.25,31,132.69
1024,E-2,145.0,1.0,49,132.69
1025,B2,145.0,1.0,49,132.69
1026,G#3,145.333,0.25,42,132.69
1027,D4,145.333,0.25,42,132.69
1028,G#3,145.667,0.25,42,132.69
1029,D4,145.667,0.25,42,132.69
1030,E-2,146.0,1.0,44,132.69
1031,B-2,146.0,1.0,44,132.69
1032,E-4,146.333,0.25,30,132.69
1033,G3,146.333,0.25,30,132.69
1034,E-4,146.667,0.25,30,132.69
1035,G3,146.667,0.25,30,132.69
1036,E-2,147.0,1.0,49,132.69
1037,B2,147.0,1.0,49,132.69
1038,G#3,147.333,0.25,42,132.69
1039,D4,147.333,0.25,42,132.69
1040,G#3,147.667,0.25,42,132.69
1041,D4,147.667,0.25,42,132.69
1042,E-2,148.0,1.0,44,132.69
1043,B-2,148.0,1.0,44,132.69
1044,E-4,148.333,0.25,30,132.69
1045,G3,148.333,0.25,30,132.69
1046,E-4,148.667,0.25,30,132.69
1047,G3,148.667,0.25,30,132.69
1048,E-2,149.0,1.0,39,132.69
1049,B2,149.0,1.0,39,132.69
1050,G#3,149.333,0.25,33,132.69
1051,D4,149.333,0.25,33,132.69
1052,G#3,149.667,0.25,33,132.69
1053,D4,149.667,0.25,33,132.69
1054,E-2,150.0,1.0,35,132.69
1055,B-2,150.0,1.0,35,132.69
1056,E-4,150.333,0.25,23,132.69
1057,G3,150.333,0.25,23,132.69
1058,E-4,150.667,0.25,23,132.69
1059,G3,150.667,0.25,23,132.69
1060,E-2,151.0,1.0,30,132.69
1061,B2,151.0,1.0,30,132.69
1062,G#3,151.333,0.25,26,132.69
1063,D4,151.333,0.25,26,132.69
1064,G#3,151.667,0.25,26,132.69
1065,D4,151.667,0.25,26,132.69
1066,G3,152.0,1.0,18,132.69
1067,E-4,152.0,1.0,18,132.69
1068,E-2,152.0,1.0,26,132.69
1069,B-2,152.0,1.0,26,132.69
1070,B-4,154.0,0.5,72,132.69
1071,G4,154.0,0.5,72,132.69
1072,E-5,154.0,0.5,72,132.69
1073,G5,154.0,0.5,72,132.69
1074,E-4,154.0,0.5,45,132.69
1075,B-3,154.0,0.5,45,132.69
1076,E-3,154.0,0.5,45,132.69
1077,G5,155.0,0.5,78,132.69
1078,B-5,155.0,0.5,78,132.69
1079,E-6,155.0,0.5,78,132.69
1080,G6,155.0,0.5,78,132.69
1081,E-4,155.0,0.5,48,132.69
1082,B-4,155.0,0.5,48,132.69
1083,E-5,155.0,0.5,48,132.69
1084,G3,156.0,2.0,79,132.69
1085,B-3,156.0,2.0,79,132.69
1086,E-4,156.0,2.0,79,132.69
1087,E-2,156.0,2.0,52,132.69
1088,B-2,156.0,2.0,52,132.69
1089,E-3,156.0,2.0,52,132.69
