,note_name,start_time,duration,velocity,tempo
0,C5,0.0,0.25,50,158.0
1,C6,0.5,0.25,41,158.0
2,C5,1.0,0.25,47,158.0
3,C6,1.5,0.25,40,158.0
4,C5,2.0,0.25,49,158.0
5,A4,2.0,2.0,22,158.0
6,F4,2.0,2.0,22,158.0
7,C4,2.0,2.0,22,158.0
8,C6,2.5,0.25,40,158.0
9,C5,3.0,0.25,56,158.0
10,C6,3.5,0.25,49,158.0
11,C5,4.0,0.25,61,158.0
12,E4,4.0,2.0,30,158.0
13,G4,4.0,2.0,30,158.0
14,B-3,4.0,2.0,30,158.0
15,C4,4.0,2.0,30,158.0
16,C6,4.5,0.25,52,158.0
17,C5,5.0,0.25,63,158.0
18,C6,5.5,0.25,55,158.0
19,C5,6.0,0.25,68,158.0
20,A3,6.0,2.0,40,158.0
21,C4,6.0,2.0,40,158.0
22,E-4,6.0,2.0,40,158.0
23,F#4,6.0,2.0,40,158.0
24,C6,6.5,0.25,59,158.0
25,C5,7.0,0.25,63,158.0
26,C6,7.5,0.25,51,158.0
27,C5,8.0,0.25,58,158.0
28,G4,8.0,0.5,29,158.0
29,E4,8.0,0.5,29,158.0
30,C4,8.0,0.5,29,158.0
31,B-3,8.0,0.5,29,158.0
32,C6,8.5,0.25,41,158.0
33,C5,9.0,0.25,47,158.0
34,C6,9.5,0.25,52,158.0
35,C3,9.5,0.25,48,158.0
36,C4,9.5,0.25,48,158.0
37,C5,10.0,0.25,64,158.0
38,C4,10.0,1.0,57,158.0
39,C3,10.0,1.0,57,158.0
40,C6,10.5,0.25,34,158.0
41,C5,11.0,0.25,46,158.0
42,C6,11.5,0.25,51,158.0
43,C3,11.5,0.25,46,158.0
44,C4,11.5,0.25,46,158.0
45,C5,12.0,0.25,63,158.0
46,C4,12.0,1.0,61,158.0
47,C3,12.0,1.0,61,158.0
48,C6,12.5,0.25,43,158.0
49,C5,13.0,0.25,55,158.0
50,C6,13.5,0.25,50,158.0
51,C4,13.5,0.25,49,158.0
52,C3,13.5,0.25,49,158.0
53,C5,14.0,0.25,63,158.0
54,C4,14.0,1.0,61,158.0
55,C3,14.0,1.0,61,158.0
56,C6,14.5,0.25,38,158.0
57,C5,15.0,0.25,47,158.0
58,C6,15.5,0.25,39,158.0
59,C5,16.0,0.25,37,158.0
60,C4,16.0,0.25,26,158.0
61,A3,16.0,0.25,26,158.0
62,F3,16.0,0.25,26,158.0
63,C6,16.5,0.25,35,158.0
64,F3,16.5,0.25,17,158.0
65,A3,16.5,0.25,17,158.0
66,C4,16.5,0.25,17,158.0
67,F5,17.0,0.25,39,158.0
68,C4,17.0,0.25,26,158.0
69,A3,17.0,0.25,26,158.0
70,F3,17.0,0.25,26,158.0
71,F6,17.5,0.25,38,158.0
72,F3,17.5,0.25,20,158.0
73,A3,17.5,0.25,20,158.0
74,C4,17.5,0.25,20,158.0
75,A5,18.0,0.25,41,158.0
76,F3,18.0,0.25,31,158.0
77,A3,18.0,0.25,31,158.0
78,C4,18.0,0.25,31,158.0
79,A6,18.5,0.25,40,158.0
80,F3,18.5,0.25,21,158.0
81,A3,18.5,0.25,21,158.0
82,C4,18.5,0.25,21,158.0
83,G5,19.0,0.25,46,158.0
84,F3,19.0,0.25,32,158.0
85,A3,19.0,0.25,32,158.0
86,C4,19.0,0.25,32,158.0
87,G6,19.5,0.25,42,158.0
88,F3,19.5,0.25,21,158.0
89,A3,19.5,0.25,21,158.0
90,C4,19.5,0.25,21,158.0
91,F5,20.0,0.25,49,158.0
92,F3,20.0,0.25,33,158.0
93,A3,20.0,0.25,33,158.0
94,C#4,20.0,0.25,33,158.0
95,F6,20.5,0.25,43,158.0
96,C#4,20.5,0.25,21,158.0
97,A3,20.5,0.25,21,158.0
98,F3,20.5,0.25,21,158.0
99,E5,21.0,0.25,49,158.0
100,F3,21.0,0.25,36,158.0
101,A3,21.0,0.25,36,158.0
102,C#4,21.0,0.25,36,158.0
103,E6,21.5,0.25,46,158.0
104,C#4,21.5,0.25,23,158.0
105,A3,21.5,0.25,23,158.0
106,F3,21.5,0.25,23,158.0
107,G5,22.0,0.25,58,158.0
108,D4,22.0,0.25,40,158.0
109,A3,22.0,0.25,40,158.0
110,F3,22.0,0.25,40,158.0
111,G6,22.5,0.25,41,158.0
112,F3,22.5,0.25,23,158.0
113,A3,22.5,0.25,23,158.0
114,D4,22.5,0.25,23,158.0
115,F5,23.0,0.25,51,158.0
116,F3,23.0,0.25,32,158.0
117,A3,23.0,0.25,32,158.0
118,D4,23.0,0.25,32,158.0
119,F6,23.5,0.25,42,158.0
120,F3,23.5,0.25,21,158.0
121,A3,23.5,0.25,21,158.0
122,D4,23.5,0.25,21,158.0
123,E5,24.0,0.25,50,158.0
124,G3,24.0,0.25,35,158.0
125,B-3,24.0,0.25,35,158.0
126,D4,24.0,0.25,35,158.0
127,F3,24.0,0.25,35,158.0
128,E6,24.5,0.25,39,158.0
129,D4,24.5,0.25,22,158.0
130,B-3,24.5,0.25,22,158.0
131,G3,24.5,0.25,22,158.0
132,F3,24.5,0.25,22,158.0
133,D5,25.0,0.25,44,158.0
134,G3,25.0,0.25,26,158.0
135,D4,25.0,0.25,26,158.0
136,B-3,25.0,0.25,26,158.0
137,F3,25.0,0.25,26,158.0
138,D6,25.5,0.25,40,158.0
139,G3,25.5,0.25,19,158.0
140,F3,25.5,0.25,19,158.0
141,B-3,25.5,0.25,19,158.0
142,D4,25.5,0.25,19,158.0
143,G4,26.0,0.25,44,158.0
144,G3,26.0,0.25,30,158.0
145,F3,26.0,0.25,30,158.0
146,B-3,26.0,0.25,30,158.0
147,D4,26.0,0.25,30,158.0
148,G5,26.5,0.25,43,158.0
149,G3,26.5,0.25,20,158.0
150,F3,26.5,0.25,20,158.0
151,B-3,26.5,0.25,20,158.0
152,D4,26.5,0.25,20,158.0
153,A4,27.0,0.25,48,158.0
154,G3,27.0,0.25,31,158.0
155,F3,27.0,0.25,31,158.0
156,B-3,27.0,0.25,31,158.0
157,D4,27.0,0.25,31,158.0
158,A5,27.5,0.25,45,158.0
159,G3,27.5,0.25,20,158.0
160,F3,27.5,0.25,20,158.0
161,B-3,27.5,0.25,20,158.0
162,D4,27.5,0.25,20,158.0
163,B-4,28.0,0.25,58,158.0
164,E3,28.0,0.25,33,158.0
165,G3,28.0,0.25,33,158.0
166,C4,28.0,0.25,33,158.0
167,B-5,28.5,0.25,51,158.0
168,C4,28.5,0.25,21,158.0
169,G3,28.5,0.25,21,158.0
170,E3,28.5,0.25,21,158.0
171,B4,29.0,0.25,53,158.0
172,E3,29.0,0.25,36,158.0
173,G3,29.0,0.25,36,158.0
174,C4,29.0,0.25,36,158.0
175,B5,29.5,0.25,50,158.0
176,C4,29.5,0.25,23,158.0
177,G3,29.5,0.25,23,158.0
178,E3,29.5,0.25,23,158.0
179,C5,30.0,0.25,58,158.0
180,C4,30.0,0.25,40,158.0
181,G3,30.0,0.25,40,158.0
182,E3,30.0,0.25,40,158.0
183,C6,30.5,0.25,43,158.0
184,E3,30.5,0.25,23,158.0
185,G3,30.5,0.25,23,158.0
186,C4,30.5,0.25,23,158.0
187,B-4,31.0,0.25,52,158.0
188,E3,31.0,0.25,32,158.0
189,G3,31.0,0.25,32,158.0
190,C4,31.0,0.25,32,158.0
191,B-5,31.5,0.25,43,158.0
192,E3,31.5,0.25,21,158.0
193,G3,31.5,0.25,21,158.0
194,C4,31.5,0.25,21,158.0
195,C5,32.0,0.25,55,158.0
196,F3,32.0,0.25,32,158.0
197,A3,32.0,0.25,32,158.0
198,C4,32.0,0.25,32,158.0
199,C6,32.5,0.25,46,158.0
200,C4,32.5,0.25,21,158.0
201,A3,32.5,0.25,21,158.0
202,F3,32.5,0.25,21,158.0
203,F5,33.0,0.25,55,158.0
204,F3,33.0,0.25,35,158.0
205,A3,33.0,0.25,35,158.0
206,C4,33.0,0.25,35,158.0
207,F6,33.5,0.25,44,158.0
208,C4,33.5,0.25,23,158.0
209,A3,33.5,0.25,23,158.0
210,F3,33.5,0.25,23,158.0
211,F5,34.0,0.25,62,158.0
212,G4,34.0,0.25,40,158.0
213,A3,34.0,0.25,40,158.0
214,C#4,34.0,0.25,40,158.0
215,F6,34.5,0.25,52,158.0
216,G4,34.5,0.25,26,158.0
217,A3,34.5,0.25,26,158.0
218,C#4,34.5,0.25,26,158.0
219,E5,35.0,0.25,64,158.0
220,G4,35.0,0.25,38,158.0
221,A3,35.0,0.25,38,158.0
222,C#4,35.0,0.25,38,158.0
223,E6,35.5,0.25,50,158.0
224,G4,35.5,0.25,26,158.0
225,A3,35.5,0.25,26,158.0
226,C#4,35.5,0.25,26,158.0
227,E5,36.0,0.25,72,158.0
228,G4,36.0,0.25,42,158.0
229,C#4,36.0,0.25,42,158.0
230,B-3,36.0,0.25,42,158.0
231,E6,36.5,0.25,65,158.0
232,G4,36.5,0.25,28,158.0
233,C#4,36.5,0.25,28,158.0
234,B-3,36.5,0.25,28,158.0
235,D5,37.0,0.25,70,158.0
236,F4,37.0,0.25,42,158.0
237,D4,37.0,0.25,42,158.0
238,B-3,37.0,0.25,42,158.0
239,D6,37.5,0.25,57,158.0
240,B-3,37.5,0.25,24,158.0
241,D4,37.5,0.25,24,158.0
242,F4,37.5,0.25,24,158.0
243,C5,38.0,0.25,63,158.0
244,A4,38.0,0.25,40,158.0
245,D4,38.0,0.25,40,158.0
246,B-3,38.0,0.25,40,158.0
247,C6,38.5,0.25,49,158.0
248,A4,38.5,0.25,23,158.0
249,D4,38.5,0.25,23,158.0
250,B-3,38.5,0.25,23,158.0
251,B-4,39.0,0.25,58,158.0
252,G4,39.0,0.25,39,158.0
253,D4,39.0,0.25,39,158.0
254,B-3,39.0,0.25,39,158.0
255,B-5,39.5,0.25,48,158.0
256,G4,39.5,0.25,25,158.0
257,D4,39.5,0.25,25,158.0
258,B-3,39.5,0.25,25,158.0
259,A4,40.0,0.25,60,158.0
260,C4,40.0,0.25,42,158.0
261,F4,40.0,0.25,42,158.0
262,A5,40.5,0.25,48,158.0
263,F4,40.5,0.25,26,158.0
264,C4,40.5,0.25,26,158.0
265,F4,41.0,0.25,58,158.0
266,A3,41.0,0.25,40,158.0
267,C4,41.0,0.25,40,158.0
268,F5,41.5,0.25,50,158.0
269,C4,41.5,0.25,26,158.0
270,A3,41.5,0.25,26,158.0
271,F4,42.0,0.25,66,158.0
272,C#4,42.0,0.25,44,158.0
273,B-3,42.0,0.25,44,158.0
274,G3,42.0,0.25,44,158.0
275,F5,42.5,0.25,60,158.0
276,C#4,42.5,0.25,30,158.0
277,B-3,42.5,0.25,30,158.0
278,G3,42.5,0.25,30,158.0
279,E4,43.0,0.25,64,158.0
280,C4,43.0,0.25,47,158.0
281,B-3,43.0,0.25,47,158.0
282,G3,43.0,0.25,47,158.0
283,E5,43.5,0.25,51,158.0
284,C4,43.5,0.25,33,158.0
285,B-3,43.5,0.25,33,158.0
286,G3,43.5,0.25,33,158.0
287,F4,44.0,0.25,59,158.0
288,C4,44.0,0.25,38,158.0
289,A3,44.0,0.25,38,158.0
290,F3,44.0,0.25,38,158.0
291,F5,44.5,0.25,52,158.0
292,F3,44.5,0.25,33,158.0
293,A3,44.5,0.25,33,158.0
294,C4,44.5,0.25,33,158.0
295,B-4,45.0,0.25,67,158.0
296,D4,45.0,0.25,46,158.0
297,F3,45.0,0.25,46,158.0
298,B-5,45.5,0.25,55,158.0
299,F3,45.5,0.25,38,158.0
300,D4,45.5,0.25,38,158.0
301,A4,46.0,0.25,62,158.0
302,F3,46.0,0.25,45,158.0
303,C4,46.0,0.25,45,158.0
304,A5,46.5,0.25,56,158.0
305,C4,46.5,0.25,36,158.0
306,F3,46.5,0.25,36,158.0
307,D5,47.0,0.25,59,158.0
308,F3,47.0,0.25,34,158.0
309,B-3,47.0,0.25,34,158.0
310,D6,47.5,0.25,49,158.0
311,F3,47.5,0.25,29,158.0
312,B-3,47.5,0.25,29,158.0
313,C5,48.0,0.25,37,158.0
314,C4,48.0,0.25,26,158.0
315,A3,48.0,0.25,26,158.0
316,F3,48.0,0.25,26,158.0
317,C6,48.5,0.25,35,158.0
318,F3,48.5,0.25,17,158.0
319,A3,48.5,0.25,17,158.0
320,C4,48.5,0.25,17,158.0
321,F5,49.0,0.25,39,158.0
322,C4,49.0,0.25,26,158.0
323,A3,49.0,0.25,26,158.0
324,F3,49.0,0.25,26,158.0
325,F6,49.5,0.25,38,158.0
326,F3,49.5,0.25,20,158.0
327,A3,49.5,0.25,20,158.0
328,C4,49.5,0.25,20,158.0
329,A5,50.0,0.25,41,158.0
330,F3,50.0,0.25,31,158.0
331,A3,50.0,0.25,31,158.0
332,C4,50.0,0.25,31,158.0
333,A6,50.5,0.25,40,158.0
334,F3,50.5,0.25,21,158.0
335,A3,50.5,0.25,21,158.0
336,C4,50.5,0.25,21,158.0
337,G5,51.0,0.25,46,158.0
338,F3,51.0,0.25,32,158.0
339,A3,51.0,0.25,32,158.0
340,C4,51.0,0.25,32,158.0
341,G6,51.5,0.25,42,158.0
342,F3,51.5,0.25,21,158.0
343,A3,51.5,0.25,21,158.0
344,C4,51.5,0.25,21,158.0
345,F5,52.0,0.25,49,158.0
346,F3,52.0,0.25,33,158.0
347,A3,52.0,0.25,33,158.0
348,C#4,52.0,0.25,33,158.0
349,F6,52.5,0.25,43,158.0
350,C#4,52.5,0.25,21,158.0
351,A3,52.5,0.25,21,158.0
352,F3,52.5,0.25,21,158.0
353,E5,53.0,0.25,49,158.0
354,F3,53.0,0.25,36,158.0
355,A3,53.0,0.25,36,158.0
356,C#4,53.0,0.25,36,158.0
357,E6,53.5,0.25,46,158.0
358,C#4,53.5,0.25,23,158.0
359,A3,53.5,0.25,23,158.0
360,F3,53.5,0.25,23,158.0
361,G5,54.0,0.25,58,158.0
362,D4,54.0,0.25,40,158.0
363,A3,54.0,0.25,40,158.0
364,F3,54.0,0.25,40,158.0
365,G6,54.5,0.25,41,158.0
366,F3,54.5,0.25,23,158.0
367,A3,54.5,0.25,23,158.0
368,D4,54.5,0.25,23,158.0
369,F5,55.0,0.25,51,158.0
370,F3,55.0,0.25,32,158.0
371,A3,55.0,0.25,32,158.0
372,D4,55.0,0.25,32,158.0
373,F6,55.5,0.25,42,158.0
374,F3,55.5,0.25,21,158.0
375,A3,55.5,0.25,21,158.0
376,D4,55.5,0.25,21,158.0
377,E5,56.0,0.25,50,158.0
378,F3,56.0,0.25,29,158.0
379,D4,56.0,0.25,29,158.0
380,B-3,56.0,0.25,29,158.0
381,G3,56.0,0.25,29,158.0
382,E6,56.5,0.25,35,158.0
383,F3,56.5,0.25,17,158.0
384,G3,56.5,0.25,17,158.0
385,B-3,56.5,0.25,17,158.0
386,D4,56.5,0.25,17,158.0
387,D5,57.0,0.25,44,158.0
388,G3,57.0,0.25,26,158.0
389,D4,57.0,0.25,26,158.0
390,B-3,57.0,0.25,26,158.0
391,F3,57.0,0.25,26,158.0
392,D6,57.5,0.25,40,158.0
393,G3,57.5,0.25,19,158.0
394,F3,57.5,0.25,19,158.0
395,B-3,57.5,0.25,19,158.0
396,D4,57.5,0.25,19,158.0
397,G4,58.0,0.25,44,158.0
398,G3,58.0,0.25,30,158.0
399,F3,58.0,0.25,30,158.0
400,B-3,58.0,0.25,30,158.0
401,D4,58.0,0.25,30,158.0
402,G5,58.5,0.25,43,158.0
403,G3,58.5,0.25,20,158.0
404,F3,58.5,0.25,20,158.0
405,B-3,58.5,0.25,20,158.0
406,D4,58.5,0.25,20,158.0
407,A4,59.0,0.25,48,158.0
408,G3,59.0,0.25,31,158.0
409,F3,59.0,0.25,31,158.0
410,B-3,59.0,0.25,31,158.0
411,D4,59.0,0.25,31,158.0
412,A5,59.5,0.25,45,158.0
413,G3,59.5,0.25,20,158.0
414,F3,59.5,0.25,20,158.0
415,B-3,59.5,0.25,20,158.0
416,D4,59.5,0.25,20,158.0
417,B-4,60.0,0.25,58,158.0
418,E3,60.0,0.25,33,158.0
419,G3,60.0,0.25,33,158.0
420,C4,60.0,0.25,33,158.0
421,B-5,60.5,0.25,51,158.0
422,C4,60.5,0.25,21,158.0
423,G3,60.5,0.25,21,158.0
424,E3,60.5,0.25,21,158.0
425,B4,61.0,0.25,53,158.0
426,E3,61.0,0.25,36,158.0
427,G3,61.0,0.25,36,158.0
428,C4,61.0,0.25,36,158.0
429,B5,61.5,0.25,50,158.0
430,C4,61.5,0.25,23,158.0
431,G3,61.5,0.25,23,158.0
432,E3,61.5,0.25,23,158.0
433,C5,62.0,0.25,58,158.0
434,C4,62.0,0.25,40,158.0
435,G3,62.0,0.25,40,158.0
436,E3,62.0,0.25,40,158.0
437,C6,62.5,0.25,43,158.0
438,E3,62.5,0.25,23,158.0
439,G3,62.5,0.25,23,158.0
440,C4,62.5,0.25,23,158.0
441,B-4,63.0,0.25,52,158.0
442,E3,63.0,0.25,32,158.0
443,G3,63.0,0.25,32,158.0
444,C4,63.0,0.25,32,158.0
445,B-5,63.5,0.25,43,158.0
446,E3,63.5,0.25,21,158.0
447,G3,63.5,0.25,21,158.0
448,C4,63.5,0.25,21,158.0
449,C5,64.0,0.25,55,158.0
450,F3,64.0,0.25,32,158.0
451,A3,64.0,0.25,32,158.0
452,C4,64.0,0.25,32,158.0
453,C6,64.5,0.25,46,158.0
454,C4,64.5,0.25,21,158.0
455,A3,64.5,0.25,21,158.0
456,F3,64.5,0.25,21,158.0
457,F5,65.0,0.25,55,158.0
458,F3,65.0,0.25,35,158.0
459,A3,65.0,0.25,35,158.0
460,C4,65.0,0.25,35,158.0
461,F6,65.5,0.25,44,158.0
462,C4,65.5,0.25,23,158.0
463,A3,65.5,0.25,23,158.0
464,F3,65.5,0.25,23,158.0
465,F5,66.0,0.25,62,158.0
466,G4,66.0,0.25,40,158.0
467,A3,66.0,0.25,40,158.0
468,C#4,66.0,0.25,40,158.0
469,F6,66.5,0.25,52,158.0
470,G4,66.5,0.25,26,158.0
471,A3,66.5,0.25,26,158.0
472,C#4,66.5,0.25,26,158.0
473,E5,67.0,0.25,64,158.0
474,G4,67.0,0.25,38,158.0
475,A3,67.0,0.25,38,158.0
476,C#4,67.0,0.25,38,158.0
477,E6,67.5,0.25,50,158.0
478,G4,67.5,0.25,26,158.0
479,A3,67.5,0.25,26,158.0
480,C#4,67.5,0.25,26,158.0
481,E5,68.0,0.25,72,158.0
482,G4,68.0,0.25,42,158.0
483,C#4,68.0,0.25,42,158.0
484,B-3,68.0,0.25,42,158.0
485,E6,68.5,0.25,65,158.0
486,G4,68.5,0.25,28,158.0
487,C#4,68.5,0.25,28,158.0
488,B-3,68.5,0.25,28,158.0
489,D5,69.0,0.25,70,158.0
490,F4,69.0,0.25,42,158.0
491,D4,69.0,0.25,42,158.0
492,B-3,69.0,0.25,42,158.0
493,D6,69.5,0.25,57,158.0
494,B-3,69.5,0.25,24,158.0
495,D4,69.5,0.25,24,158.0
496,F4,69.5,0.25,24,158.0
497,C5,70.0,0.25,63,158.0
498,A4,70.0,0.25,40,158.0
499,D4,70.0,0.25,40,158.0
500,B-3,70.0,0.25,40,158.0
501,C6,70.5,0.25,49,158.0
502,A4,70.5,0.25,23,158.0
503,D4,70.5,0.25,23,158.0
504,B-3,70.5,0.25,23,158.0
505,B-4,71.0,0.25,58,158.0
506,G4,71.0,0.25,39,158.0
507,D4,71.0,0.25,39,158.0
508,B-3,71.0,0.25,39,158.0
509,B-5,71.5,0.25,48,158.0
510,G4,71.5,0.25,25,158.0
511,D4,71.5,0.25,25,158.0
512,B-3,71.5,0.25,25,158.0
513,A4,72.0,0.25,60,158.0
514,C4,72.0,0.25,42,158.0
515,F4,72.0,0.25,42,158.0
516,A5,72.5,0.25,48,158.0
517,F4,72.5,0.25,34,158.0
518,C4,72.5,0.25,34,158.0
519,F4,73.0,0.25,58,158.0
520,A3,73.0,0.25,40,158.0
521,C4,73.0,0.25,40,158.0
522,F5,73.5,0.25,50,158.0
523,C4,73.5,0.25,34,158.0
524,A3,73.5,0.25,34,158.0
525,F4,74.0,0.25,66,158.0
526,C#4,74.0,0.25,44,158.0
527,B-3,74.0,0.25,44,158.0
528,G3,74.0,0.25,44,158.0
529,F5,74.5,0.25,60,158.0
530,C#4,74.5,0.25,39,158.0
531,B-3,74.5,0.25,39,158.0
532,G3,74.5,0.25,39,158.0
533,E4,75.0,0.25,64,158.0
534,C4,75.0,0.25,47,158.0
535,B-3,75.0,0.25,47,158.0
536,G3,75.0,0.25,47,158.0
537,E5,75.5,0.25,51,158.0
538,C4,75.5,0.25,42,158.0
539,B-3,75.5,0.25,42,158.0
540,G3,75.5,0.25,42,158.0
541,F4,76.0,0.25,59,158.0
542,C4,76.0,1.0,38,158.0
543,A3,76.0,1.0,38,158.0
544,F3,76.0,1.0,38,158.0
545,F5,76.5,0.25,52,158.0
546,F4,77.0,0.25,61,158.0
547,F5,77.5,0.25,60,158.0
548,F3,77.5,0.25,38,158.0
549,F2,77.5,0.25,38,158.0
550,F4,78.0,0.25,68,158.0
551,F3,78.0,1.0,48,158.0
552,F2,78.0,1.0,48,158.0
553,F5,78.5,0.25,45,158.0
554,F4,79.0,0.25,51,158.0
555,F5,79.5,0.25,43,158.0
556,D2,80.0,0.25,37,158.0
557,F5,80.0,0.25,26,158.0
558,D5,80.0,0.25,26,158.0
559,F4,80.0,0.25,26,158.0
560,D3,80.5,0.25,35,158.0
561,F4,80.5,0.25,22,158.0
562,D5,80.5,0.25,22,158.0
563,F5,80.5,0.25,22,158.0
564,F2,81.0,0.25,39,158.0
565,F5,81.0,0.25,26,158.0
566,D5,81.0,0.25,26,158.0
567,F4,81.0,0.25,26,158.0
568,F3,81.5,0.25,38,158.0
569,F4,81.5,0.25,25,158.0
570,D5,81.5,0.25,25,158.0
571,F5,81.5,0.25,25,158.0
572,G#2,82.0,0.25,48,158.0
573,F4,82.0,0.25,31,158.0
574,D5,82.0,0.25,31,158.0
575,F5,82.0,0.25,31,158.0
576,G#3,82.5,0.25,42,158.0
577,F4,82.5,0.25,26,158.0
578,D5,82.5,0.25,26,158.0
579,F5,82.5,0.25,26,158.0
580,A2,83.0,0.25,54,158.0
581,F5,83.0,0.25,37,158.0
582,D5,83.0,0.25,37,158.0
583,F4,83.0,0.25,37,158.0
584,A3,83.5,0.25,48,158.0
585,F5,83.5,0.25,30,158.0
586,D5,83.5,0.25,30,158.0
587,F4,83.5,0.25,30,158.0
588,B-2,84.0,0.25,60,158.0
589,F4,84.0,0.25,41,158.0
590,D5,84.0,0.25,41,158.0
591,F5,84.0,0.25,41,158.0
592,B-3,84.5,0.25,49,158.0
593,F5,84.5,0.25,30,158.0
594,D5,84.5,0.25,30,158.0
595,F4,84.5,0.25,30,158.0
596,A2,85.0,0.25,57,158.0
597,F4,85.0,0.25,37,158.0
598,D5,85.0,0.25,37,158.0
599,F5,85.0,0.25,37,158.0
600,A3,85.5,0.25,46,158.0
601,F5,85.5,0.25,30,158.0
602,D5,85.5,0.25,30,158.0
603,F4,85.5,0.25,30,158.0
604,F2,86.0,0.25,53,158.0
605,F5,86.0,0.25,36,158.0
606,D5,86.0,0.25,36,158.0
607,F4,86.0,0.25,36,158.0
608,F3,86.5,0.25,41,158.0
609,F5,86.5,0.25,27,158.0
610,D5,86.5,0.25,27,158.0
611,F4,86.5,0.25,27,158.0
612,D2,87.0,0.25,51,158.0
613,F4,87.0,0.25,28,158.0
614,D5,87.0,0.25,28,158.0
615,F5,87.0,0.25,28,158.0
616,D3,87.5,0.25,42,158.0
617,F4,87.5,0.25,24,158.0
618,D5,87.5,0.25,24,158.0
619,F5,87.5,0.25,24,158.0
620,G2,88.0,0.25,42,158.0
621,E5,88.0,0.25,30,158.0
622,D5,88.0,0.25,30,158.0
623,B-4,88.0,0.25,30,158.0
624,G3,88.5,0.25,40,158.0
625,B-4,88.5,0.25,25,158.0
626,D5,88.5,0.25,25,158.0
627,E5,88.5,0.25,25,158.0
628,A2,89.0,0.25,44,158.0
629,E5,89.0,0.25,30,158.0
630,D5,89.0,0.25,30,158.0
631,A4,89.0,0.25,30,158.0
632,A3,89.5,0.25,43,158.0
633,A4,89.5,0.25,28,158.0
634,D5,89.5,0.25,28,158.0
635,E5,89.5,0.25,28,158.0
636,B-2,90.0,0.25,55,158.0
637,G4,90.0,0.25,35,158.0
638,D5,90.0,0.25,35,158.0
639,E5,90.0,0.25,35,158.0
640,B-3,90.5,0.25,48,158.0
641,G4,90.5,0.25,30,158.0
642,D5,90.5,0.25,30,158.0
643,E5,90.5,0.25,30,158.0
644,G2,91.0,0.25,62,158.0
645,E5,91.0,0.25,43,158.0
646,D5,91.0,0.25,43,158.0
647,B-4,91.0,0.25,43,158.0
648,G3,91.5,0.25,55,158.0
649,E5,91.5,0.25,34,158.0
650,D5,91.5,0.25,34,158.0
651,B-4,91.5,0.25,34,158.0
652,A2,92.0,0.25,69,158.0
653,A4,92.0,0.25,47,158.0
654,C#5,92.0,0.25,47,158.0
655,E5,92.0,0.25,47,158.0
656,A3,92.5,0.25,56,158.0
657,E5,92.5,0.25,34,158.0
658,C#5,92.5,0.25,34,158.0
659,A4,92.5,0.25,34,158.0
660,G2,93.0,0.25,65,158.0
661,A4,93.0,0.25,43,158.0
662,C#5,93.0,0.25,43,158.0
663,E5,93.0,0.25,43,158.0
664,G3,93.5,0.25,52,158.0
665,E5,93.5,0.25,34,158.0
666,C#5,93.5,0.25,34,158.0
667,A4,93.5,0.25,34,158.0
668,F2,94.0,0.25,66,158.0
669,D5,94.0,0.25,50,158.0
670,A4,94.0,0.25,50,158.0
671,F3,94.5,0.25,53,158.0
672,D5,94.5,0.25,37,158.0
673,A4,94.5,0.25,37,158.0
674,E2,95.0,0.25,67,158.0
675,E5,95.0,0.25,51,158.0
676,C#5,95.0,0.25,51,158.0
677,A4,95.0,0.25,51,158.0
678,E3,95.5,0.25,58,158.0
679,E5,95.5,0.25,45,158.0
680,C#5,95.5,0.25,45,158.0
681,A4,95.5,0.25,45,158.0
682,D2,96.0,0.5,59,158.0
683,A4,96.0,0.25,55,158.0
684,D5,96.0,0.25,55,158.0
685,F5,96.0,0.25,55,158.0
686,D3,96.5,0.25,49,158.0
687,A4,96.5,0.25,42,158.0
688,D5,96.5,0.25,42,158.0
689,F5,96.5,0.25,42,158.0
690,A1,97.0,0.5,58,158.0
691,A4,97.0,0.25,58,158.0
692,C#5,97.0,0.25,58,158.0
693,E5,97.0,0.25,58,158.0
694,A2,97.5,0.25,52,158.0
695,E5,97.5,0.25,46,158.0
696,C#5,97.5,0.25,46,158.0
697,A4,97.5,0.25,46,158.0
698,D2,98.0,0.5,59,158.0
699,F5,98.0,0.25,61,158.0
700,D5,98.0,0.25,61,158.0
701,A4,98.0,0.25,61,158.0
702,D3,98.5,0.25,53,158.0
703,F5,98.5,0.25,48,158.0
704,D5,98.5,0.25,48,158.0
705,A4,98.5,0.25,48,158.0
706,C2,99.0,0.5,64,158.0
707,C5,99.0,0.25,64,158.0
708,E5,99.0,0.25,64,158.0
709,G5,99.0,0.25,64,158.0
710,C3,99.5,0.25,55,158.0
711,C5,99.5,0.25,54,158.0
712,E5,99.5,0.25,54,158.0
713,G5,99.5,0.25,54,158.0
714,F2,100.0,0.5,73,158.0
715,C5,100.0,0.25,66,158.0
716,F5,100.0,0.25,66,158.0
717,A5,100.0,0.25,66,158.0
718,F3,100.5,0.25,60,158.0
719,C5,100.5,0.25,51,158.0
720,F5,100.5,0.25,51,158.0
721,A5,100.5,0.25,51,158.0
722,E2,101.0,0.5,71,158.0
723,E5,101.0,0.25,70,158.0
724,G#5,101.0,0.25,70,158.0
725,B5,101.0,0.25,70,158.0
726,E3,101.5,0.25,63,158.0
727,B5,101.5,0.25,56,158.0
728,G#5,101.5,0.25,56,158.0
729,E5,101.5,0.25,56,158.0
730,A2,102.0,0.5,71,158.0
731,C6,102.0,0.25,73,158.0
732,A5,102.0,0.25,73,158.0
733,E5,102.0,0.25,73,158.0
734,A3,102.5,0.25,63,158.0
735,C6,102.5,0.25,59,158.0
736,A5,102.5,0.25,59,158.0
737,E5,102.5,0.25,59,158.0
738,G2,103.0,0.5,77,158.0
739,G5,103.0,0.25,77,158.0
740,B5,103.0,0.25,77,158.0
741,D6,103.0,0.25,77,158.0
742,G3,103.5,0.25,66,158.0
743,B5,103.5,0.25,65,158.0
744,G5,103.5,0.25,65,158.0
745,D6,103.5,0.25,65,158.0
746,C3,104.0,0.25,82,158.0
747,G5,104.0,0.25,77,158.0
748,C6,104.0,0.25,77,158.0
749,E6,104.0,0.25,77,158.0
750,C4,104.5,0.25,65,158.0
751,E6,104.5,0.25,60,158.0
752,C6,104.5,0.25,60,158.0
753,G5,104.5,0.25,60,158.0
754,C3,105.0,0.25,74,158.0
755,B-5,105.0,0.25,72,158.0
756,D6,105.0,0.25,72,158.0
757,C4,105.5,0.25,58,158.0
758,D6,105.5,0.25,56,158.0
759,B-5,105.5,0.25,56,158.0
760,C3,106.0,0.25,67,158.0
761,A5,106.0,0.25,68,158.0
762,C6,106.0,0.25,68,158.0
763,C4,106.5,0.25,55,158.0
764,A5,106.5,0.25,56,158.0
765,C6,106.5,0.25,56,158.0
766,C3,107.0,0.25,67,158.0
767,G#5,107.0,0.25,66,158.0
768,B5,107.0,0.25,66,158.0
769,C4,107.5,0.25,58,158.0
770,B5,107.5,0.25,50,158.0
771,G#5,107.5,0.25,50,158.0
772,C3,108.0,0.25,68,158.0
773,G5,108.0,0.25,62,158.0
774,B-5,108.0,0.25,62,158.0
775,C4,108.5,0.25,52,158.0
776,B-5,108.5,0.25,47,158.0
777,G5,108.5,0.25,47,158.0
778,C3,109.0,0.25,58,158.0
779,F#5,109.0,0.25,56,158.0
780,A5,109.0,0.25,56,158.0
781,C4,109.5,0.25,44,158.0
782,A5,109.5,0.25,43,158.0
783,F#5,109.5,0.25,43,158.0
784,C3,110.0,0.25,45,158.0
785,G5,110.0,0.25,45,158.0
786,B-5,110.0,0.25,45,158.0
787,C4,110.5,0.25,34,158.0
788,G5,110.5,0.25,35,158.0
789,B-5,110.5,0.25,35,158.0
790,C3,111.0,0.25,39,158.0
791,C5,111.0,0.25,38,158.0
792,C6,111.0,0.25,38,158.0
793,C4,111.5,0.25,30,158.0
794,C6,111.5,0.25,26,158.0
795,C5,111.5,0.25,26,158.0
796,C5,112.0,0.25,37,158.0
797,C4,112.0,0.25,26,158.0
798,A3,112.0,0.25,26,158.0
799,F3,112.0,0.25,26,158.0
800,C6,112.5,0.25,35,158.0
801,F3,112.5,0.25,17,158.0
802,A3,112.5,0.25,17,158.0
803,C4,112.5,0.25,17,158.0
804,F5,113.0,0.25,39,158.0
805,C4,113.0,0.25,26,158.0
806,A3,113.0,0.25,26,158.0
807,F3,113.0,0.25,26,158.0
808,F6,113.5,0.25,38,158.0
809,F3,113.5,0.25,20,158.0
810,A3,113.5,0.25,20,158.0
811,C4,113.5,0.25,20,158.0
812,A5,114.0,0.25,41,158.0
813,F3,114.0,0.25,31,158.0
814,A3,114.0,0.25,31,158.0
815,C4,114.0,0.25,31,158.0
816,A6,114.5,0.25,40,158.0
817,F3,114.5,0.25,21,158.0
818,A3,114.5,0.25,21,158.0
819,C4,114.5,0.25,21,158.0
820,G5,115.0,0.25,46,158.0
821,F3,115.0,0.25,32,158.0
822,A3,115.0,0.25,32,158.0
823,C4,115.0,0.25,32,158.0
824,G6,115.5,0.25,42,158.0
825,F3,115.5,0.25,21,158.0
826,A3,115.5,0.25,21,158.0
827,C4,115.5,0.25,21,158.0
828,F5,116.0,0.25,49,158.0
829,F3,116.0,0.25,33,158.0
830,A3,116.0,0.25,33,158.0
831,C#4,116.0,0.25,33,158.0
832,F6,116.5,0.25,43,158.0
833,C#4,116.5,0.25,21,158.0
834,A3,116.5,0.25,21,158.0
835,F3,116.5,0.25,21,158.0
836,E5,117.0,0.25,49,158.0
837,F3,117.0,0.25,36,158.0
838,A3,117.0,0.25,36,158.0
839,C#4,117.0,0.25,36,158.0
840,E6,117.5,0.25,46,158.0
841,C#4,117.5,0.25,23,158.0
842,A3,117.5,0.25,23,158.0
843,F3,117.5,0.25,23,158.0
844,G5,118.0,0.25,58,158.0
845,D4,118.0,0.25,40,158.0
846,A3,118.0,0.25,40,158.0
847,F3,118.0,0.25,40,158.0
848,G6,118.5,0.25,41,158.0
849,F3,118.5,0.25,23,158.0
850,A3,118.5,0.25,23,158.0
851,D4,118.5,0.25,23,158.0
852,F5,119.0,0.25,51,158.0
853,F3,119.0,0.25,32,158.0
854,A3,119.0,0.25,32,158.0
855,D4,119.0,0.25,32,158.0
856,F6,119.5,0.25,42,158.0
857,F3,119.5,0.25,21,158.0
858,A3,119.5,0.25,21,158.0
859,D4,119.5,0.25,21,158.0
860,E5,120.0,0.25,55,158.0
861,F3,120.0,0.25,29,158.0
862,D4,120.0,0.25,29,158.0
863,B-3,120.0,0.25,29,158.0
864,G3,120.0,0.25,29,158.0
865,E6,120.5,0.25,43,158.0
866,F3,120.5,0.25,17,158.0
867,G3,120.5,0.25,17,158.0
868,B-3,120.5,0.25,17,158.0
869,D4,120.5,0.25,17,158.0
870,D5,121.0,0.25,49,158.0
871,G3,121.0,0.25,26,158.0
872,D4,121.0,0.25,26,158.0
873,B-3,121.0,0.25,26,158.0
874,F3,121.0,0.25,26,158.0
875,D6,121.5,0.25,40,158.0
876,G3,121.5,0.25,19,158.0
877,F3,121.5,0.25,19,158.0
878,B-3,121.5,0.25,19,158.0
879,D4,121.5,0.25,19,158.0
880,G4,122.0,0.25,44,158.0
881,G3,122.0,0.25,30,158.0
882,F3,122.0,0.25,30,158.0
883,B-3,122.0,0.25,30,158.0
884,D4,122.0,0.25,30,158.0
885,G5,122.5,0.25,43,158.0
886,G3,122.5,0.25,20,158.0
887,F3,122.5,0.25,20,158.0
888,B-3,122.5,0.25,20,158.0
889,D4,122.5,0.25,20,158.0
890,A4,123.0,0.25,48,158.0
891,G3,123.0,0.25,31,158.0
892,F3,123.0,0.25,31,158.0
893,B-3,123.0,0.25,31,158.0
894,D4,123.0,0.25,31,158.0
895,A5,123.5,0.25,45,158.0
896,G3,123.5,0.25,20,158.0
897,F3,123.5,0.25,20,158.0
898,B-3,123.5,0.25,20,158.0
899,D4,123.5,0.25,20,158.0
900,B-4,124.0,0.25,58,158.0
901,E3,124.0,0.25,33,158.0
902,G3,124.0,0.25,33,158.0
903,C4,124.0,0.25,33,158.0
904,B-5,124.5,0.25,51,158.0
905,C4,124.5,0.25,21,158.0
906,G3,124.5,0.25,21,158.0
907,E3,124.5,0.25,21,158.0
908,B4,125.0,0.25,53,158.0
909,E3,125.0,0.25,36,158.0
910,G3,125.0,0.25,36,158.0
911,C4,125.0,0.25,36,158.0
912,B5,125.5,0.25,50,158.0
913,C4,125.5,0.25,23,158.0
914,G3,125.5,0.25,23,158.0
915,E3,125.5,0.25,23,158.0
916,C5,126.0,0.25,58,158.0
917,C4,126.0,0.25,40,158.0
918,G3,126.0,0.25,40,158.0
919,E3,126.0,0.25,40,158.0
920,C6,126.5,0.25,43,158.0
921,E3,126.5,0.25,23,158.0
922,G3,126.5,0.25,23,158.0
923,C4,126.5,0.25,23,158.0
924,B-4,127.0,0.25,52,158.0
925,E3,127.0,0.25,32,158.0
926,G3,127.0,0.25,32,158.0
927,C4,127.0,0.25,32,158.0
928,B-5,127.5,0.25,43,158.0
929,E3,127.5,0.25,21,158.0
930,G3,127.5,0.25,21,158.0
931,C4,127.5,0.25,21,158.0
932,C5,128.0,0.25,55,158.0
933,F3,128.0,0.25,32,158.0
934,A3,128.0,0.25,32,158.0
935,C4,128.0,0.25,32,158.0
936,C6,128.5,0.25,46,158.0
937,C4,128.5,0.25,21,158.0
938,A3,128.5,0.25,21,158.0
939,F3,128.5,0.25,21,158.0
940,F5,129.0,0.25,55,158.0
941,F3,129.0,0.25,35,158.0
942,A3,129.0,0.25,35,158.0
943,C4,129.0,0.25,35,158.0
944,F6,129.5,0.25,44,158.0
945,C4,129.5,0.25,23,158.0
946,A3,129.5,0.25,23,158.0
947,F3,129.5,0.25,23,158.0
948,F5,130.0,0.25,62,158.0
949,G4,130.0,0.25,40,158.0
950,A3,130.0,0.25,40,158.0
951,C#4,130.0,0.25,40,158.0
952,F6,130.5,0.25,52,158.0
953,G4,130.5,0.25,26,158.0
954,A3,130.5,0.25,26,158.0
955,C#4,130.5,0.25,26,158.0
956,E5,131.0,0.25,64,158.0
957,G4,131.0,0.25,38,158.0
958,A3,131.0,0.25,38,158.0
959,C#4,131.0,0.25,38,158.0
960,E6,131.5,0.25,50,158.0
961,G4,131.5,0.25,26,158.0
962,A3,131.5,0.25,26,158.0
963,C#4,131.5,0.25,26,158.0
964,E5,132.0,0.25,72,158.0
965,G4,132.0,0.25,42,158.0
966,C#4,132.0,0.25,42,158.0
967,B-3,132.0,0.25,42,158.0
968,E6,132.5,0.25,65,158.0
969,G4,132.5,0.25,28,158.0
970,C#4,132.5,0.25,28,158.0
971,B-3,132.5,0.25,28,158.0
972,D5,133.0,0.25,70,158.0
973,F4,133.0,0.25,42,158.0
974,D4,133.0,0.25,42,158.0
975,B-3,133.0,0.25,42,158.0
976,D6,133.5,0.25,57,158.0
977,B-3,133.5,0.25,24,158.0
978,D4,133.5,0.25,24,158.0
979,F4,133.5,0.25,24,158.0
980,C5,134.0,0.25,63,158.0
981,A4,134.0,0.25,40,158.0
982,D4,134.0,0.25,40,158.0
983,B-3,134.0,0.25,40,158.0
984,C6,134.5,0.25,49,158.0
985,A4,134.5,0.25,23,158.0
986,D4,134.5,0.25,23,158.0
987,B-3,134.5,0.25,23,158.0
988,B-4,135.0,0.25,58,158.0
989,G4,135.0,0.25,39,158.0
990,D4,135.0,0.25,39,158.0
991,B-3,135.0,0.25,39,158.0
992,B-5,135.5,0.25,48,158.0
993,G4,135.5,0.25,25,158.0
994,D4,135.5,0.25,25,158.0
995,B-3,135.5,0.25,25,158.0
996,A4,136.0,0.25,60,158.0
997,C4,136.0,0.25,42,158.0
998,F4,136.0,0.25,42,158.0
999,A5,136.5,0.25,48,158.0
1000,F4,136.5,0.25,34,158.0
1001,C4,136.5,0.25,34,158.0
1002,F4,137.0,0.25,58,158.0
1003,A3,137.0,0.25,40,158.0
1004,C4,137.0,0.25,40,158.0
1005,F5,137.5,0.25,50,158.0
1006,C4,137.5,0.25,34,158.0
1007,A3,137.5,0.25,34,158.0
1008,F4,138.0,0.25,66,158.0
1009,C#4,138.0,0.25,44,158.0
1010,B-3,138.0,0.25,44,158.0
1011,G3,138.0,0.25,44,158.0
1012,F5,138.5,0.25,60,158.0
1013,C#4,138.5,0.25,39,158.0
1014,B-3,138.5,0.25,39,158.0
1015,G3,138.5,0.25,39,158.0
1016,E4,139.0,0.25,64,158.0
1017,C4,139.0,0.25,47,158.0
1018,B-3,139.0,0.25,47,158.0
1019,G3,139.0,0.25,47,158.0
1020,E5,139.5,0.25,51,158.0
1021,C4,139.5,0.25,42,158.0
1022,B-3,139.5,0.25,42,158.0
1023,G3,139.5,0.25,42,158.0
1024,F4,140.0,0.25,59,158.0
1025,C4,140.0,1.0,38,158.0
1026,A3,140.0,1.0,38,158.0
1027,F3,140.0,1.0,38,158.0
1028,F4,140.5,0.25,48,158.0
1029,F5,140.5,0.25,48,158.0
1030,F5,141.0,0.25,56,158.0
1031,F4,141.0,0.25,56,158.0
1032,F3,141.5,0.25,43,158.0
1033,F4,141.5,0.25,43,158.0
1034,F3,142.0,1.0,49,158.0
1035,F4,142.0,1.0,49,158.0
1036,F4,142.5,0.25,42,158.0
1037,F5,142.5,0.25,42,158.0
1038,F5,143.0,0.25,47,158.0
1039,F4,143.0,0.25,47,158.0
1040,E-3,143.5,0.25,46,158.0
1041,E-4,143.5,0.25,46,158.0
1042,C#3,144.0,1.0,54,158.0
1043,C#4,144.0,1.0,54,158.0
1044,F4,144.5,0.25,48,158.0
1045,F5,144.5,0.25,48,158.0
1046,F5,145.0,0.25,56,158.0
1047,F4,145.0,0.25,56,158.0
1048,F3,145.5,0.25,43,158.0
1049,F4,145.5,0.25,43,158.0
1050,F3,146.0,1.0,49,158.0
1051,F4,146.0,1.0,49,158.0
1052,F5,146.5,0.25,49,158.0
1053,F4,146.5,0.25,49,158.0
1054,F4,147.0,0.25,52,158.0
1055,F5,147.0,0.25,52,158.0
1056,C#4,147.5,0.25,56,158.0
1057,C#3,147.5,0.25,56,158.0
1058,C4,148.0,1.0,64,158.0
1059,C3,148.0,1.0,64,158.0
1060,E-5,148.5,0.25,49,158.0
1061,F4,148.5,0.25,49,158.0
1062,F5,148.5,0.25,49,158.0
1063,E-5,149.0,0.25,58,158.0
1064,F5,149.0,0.25,58,158.0
1065,F4,149.0,0.25,58,158.0
1066,F4,149.5,0.25,50,158.0
1067,F3,149.5,0.25,50,158.0
1068,F4,150.0,1.0,58,158.0
1069,F3,150.0,1.0,58,158.0
1070,F5,150.5,0.25,48,158.0
1071,F4,150.5,0.25,48,158.0
1072,E-5,150.5,0.25,48,158.0
1073,F4,151.0,0.25,54,158.0
1074,F5,151.0,0.25,54,158.0
1075,E-5,151.0,0.25,54,158.0
1076,C4,151.5,0.25,57,158.0
1077,C3,151.5,0.25,57,158.0
1078,B-3,152.0,1.0,73,158.0
1079,B-2,152.0,1.0,73,158.0
1080,F5,152.5,0.25,54,158.0
1081,F4,152.5,0.25,54,158.0
1082,C#5,152.5,0.25,54,158.0
1083,F4,153.0,0.25,63,158.0
1084,F5,153.0,0.25,63,158.0
1085,C#5,153.0,0.25,63,158.0
1086,F4,153.5,0.25,59,158.0
1087,F3,153.5,0.25,59,158.0
1088,F4,154.0,1.0,72,158.0
1089,F3,154.0,1.0,72,158.0
1090,F5,154.5,0.25,51,158.0
1091,F4,154.5,0.25,51,158.0
1092,C#5,154.5,0.25,51,158.0
1093,F4,155.0,0.25,56,158.0
1094,F5,155.0,0.25,56,158.0
1095,C#5,155.0,0.25,56,158.0
1096,B-3,155.5,0.25,74,158.0
1097,B-2,155.5,0.25,74,158.0
1098,A3,156.0,0.5,81,158.0
1099,A2,156.0,0.5,81,158.0
1100,F5,156.5,0.25,54,158.0
1101,C5,156.5,0.25,54,158.0
1102,F4,156.5,0.25,54,158.0
1103,C4,156.5,0.25,50,158.0
1104,A3,156.5,0.25,50,158.0
1105,F5,157.0,0.25,54,158.0
1106,C5,157.0,0.25,54,158.0
1107,F4,157.0,0.25,54,158.0
1108,C4,157.0,0.25,50,158.0
1109,A3,157.0,0.25,50,158.0
1110,F5,157.5,0.25,59,158.0
1111,C5,157.5,0.25,59,158.0
1112,F4,157.5,0.25,59,158.0
1113,C4,157.5,0.25,54,158.0
1114,A3,157.5,0.25,54,158.0
1115,F5,158.0,0.5,69,158.0
1116,C5,158.0,0.5,69,158.0
1117,F4,158.0,0.5,69,158.0
1118,A3,158.0,0.5,66,158.0
1119,C4,158.0,0.5,66,158.0
1120,F#5,158.5,0.25,59,158.0
1121,E-5,158.5,0.25,59,158.0
1122,F#4,158.5,0.25,59,158.0
1123,A3,158.5,0.25,50,158.0
1124,C4,158.5,0.25,50,158.0
1125,F#4,159.0,0.25,58,158.0
1126,E-5,159.0,0.25,58,158.0
1127,F#5,159.0,0.25,58,158.0
1128,A3,159.0,0.25,50,158.0
1129,C4,159.0,0.25,50,158.0
1130,F#4,159.5,0.25,55,158.0
1131,E-5,159.5,0.25,55,158.0
1132,F#5,159.5,0.25,55,158.0
1133,A3,159.5,0.25,55,158.0
1134,C4,159.5,0.25,55,158.0
1135,F#4,160.0,0.5,67,158.0
1136,E-5,160.0,0.5,67,158.0
1137,F#5,160.0,0.5,67,158.0
1138,C4,160.0,0.5,71,158.0
1139,A3,160.0,0.5,71,158.0
1140,G5,160.5,0.25,56,158.0
1141,D5,160.5,0.25,56,158.0
1142,G4,160.5,0.25,56,158.0
1143,D4,160.5,0.25,52,158.0
1144,B-3,160.5,0.25,52,158.0
1145,G5,161.0,0.25,57,158.0
1146,D5,161.0,0.25,57,158.0
1147,G4,161.0,0.25,57,158.0
1148,D4,161.0,0.25,52,158.0
1149,B-3,161.0,0.25,52,158.0
1150,G5,161.5,0.25,62,158.0
1151,D5,161.5,0.25,62,158.0
1152,G4,161.5,0.25,62,158.0
1153,D4,161.5,0.25,56,158.0
1154,B-3,161.5,0.25,56,158.0
1155,G5,162.0,0.5,73,158.0
1156,D5,162.0,0.5,73,158.0
1157,G4,162.0,0.5,73,158.0
1158,B-3,162.0,0.5,69,158.0
1159,D4,162.0,0.5,69,158.0
1160,G#5,162.5,0.25,70,158.0
1161,D5,162.5,0.25,70,158.0
1162,G#4,162.5,0.25,70,158.0
1163,B3,162.5,0.25,58,158.0
1164,F4,162.5,0.25,58,158.0
1165,G#5,163.0,0.25,69,158.0
1166,D5,163.0,0.25,69,158.0
1167,G#4,163.0,0.25,69,158.0
1168,B3,163.0,0.25,60,158.0
1169,F4,163.0,0.25,60,158.0
1170,G#5,163.5,0.25,64,158.0
1171,D5,163.5,0.25,64,158.0
1172,G#4,163.5,0.25,64,158.0
1173,B3,163.5,0.25,62,158.0
1174,F4,163.5,0.25,62,158.0
1175,A4,163.875,0.125,67,158.0
1176,C5,163.938,0.062,67,158.0
1177,A5,164.0,0.5,79,158.0
1178,A4,164.0,0.5,67,158.0
1179,C5,164.0,0.5,67,158.0
1180,C4,164.0,0.5,68,158.0
1181,F4,164.0,0.5,68,158.0
1182,C4,165.0,0.188,47,158.0
1183,F4,165.0,0.188,46,158.0
1184,A4,165.0,0.188,46,158.0
1185,A3,165.5,0.188,40,158.0
1186,F4,165.5,0.188,42,158.0
1187,C4,165.5,0.188,42,158.0
1188,C4,166.0,0.188,47,158.0
1189,F4,166.0,0.188,46,158.0
1190,A4,166.0,0.188,46,158.0
1191,A3,166.5,0.188,41,158.0
1192,F4,166.5,0.188,38,158.0
1193,C4,166.5,0.188,38,158.0
1194,C4,167.0,0.188,50,158.0
1195,A4,167.0,0.188,50,158.0
1196,F4,167.0,0.188,50,158.0
1197,A3,167.5,0.188,48,158.0
1198,C4,167.5,0.188,52,158.0
1199,F4,167.5,0.188,52,158.0
1200,E4,168.0,0.5,66,158.0
1201,G4,168.0,0.5,66,158.0
1202,C3,168.0,0.5,56,158.0
1203,B-3,168.0,0.5,56,158.0
1204,C5,168.5,0.25,43,158.0
1205,C4,168.5,0.25,43,158.0
1206,C5,169.0,0.25,43,158.0
1207,C4,169.0,0.25,43,158.0
1208,E-4,169.5,0.25,52,158.0
1209,F#4,169.5,0.25,52,158.0
1210,C3,169.5,0.25,44,158.0
1211,A3,169.5,0.25,44,158.0
1212,E4,170.0,0.5,66,158.0
1213,G4,170.0,0.5,66,158.0
1214,C3,170.0,0.5,56,158.0
1215,B-3,170.0,0.5,56,158.0
1216,C5,170.5,0.25,43,158.0
1217,C4,170.5,0.25,43,158.0
1218,C5,171.0,0.25,43,158.0
1219,C4,171.0,0.25,43,158.0
1220,C3,171.5,0.5,52,158.0
1221,C2,171.5,0.5,52,158.0
1222,A4,171.812,0.188,64,158.0
1223,C5,171.875,0.125,64,158.0
1224,F5,171.938,0.062,64,158.0
1225,A5,172.0,0.5,75,158.0
1226,A4,172.0,0.5,64,158.0
1227,C5,172.0,0.5,64,158.0
1228,F5,172.0,0.5,64,158.0
1229,F2,172.0,0.5,64,158.0
1230,F3,172.0,0.5,64,158.0
1231,C4,173.0,0.188,47,158.0
1232,F4,173.0,0.188,46,158.0
1233,A4,173.0,0.188,46,158.0
1234,A3,173.5,0.188,40,158.0
1235,F4,173.5,0.188,42,158.0
1236,C4,173.5,0.188,42,158.0
1237,C4,174.0,0.188,47,158.0
1238,F4,174.0,0.188,46,158.0
1239,A4,174.0,0.188,46,158.0
1240,A3,174.5,0.188,41,158.0
1241,F4,174.5,0.188,38,158.0
1242,C4,174.5,0.188,38,158.0
1243,C4,175.0,0.188,50,158.0
1244,A4,175.0,0.188,50,158.0
1245,F4,175.0,0.188,50,158.0
1246,A3,175.5,0.188,46,158.0
1247,C4,175.5,0.188,50,158.0
1248,F4,175.5,0.188,50,158.0
1249,E4,176.0,0.5,66,158.0
1250,G4,176.0,0.5,66,158.0
1251,C3,176.0,0.5,56,158.0
1252,B-3,176.0,0.5,56,158.0
1253,C5,176.5,0.25,43,158.0
1254,C4,176.5,0.25,43,158.0
1255,C5,177.0,0.25,43,158.0
1256,C4,177.0,0.25,43,158.0
1257,E-4,177.5,0.25,50,158.0
1258,F#4,177.5,0.25,50,158.0
1259,C3,177.5,0.25,42,158.0
1260,A3,177.5,0.25,42,158.0
1261,E4,178.0,0.5,66,158.0
1262,G4,178.0,0.5,66,158.0
1263,C3,178.0,0.5,56,158.0
1264,B-3,178.0,0.5,56,158.0
1265,C5,178.5,0.25,43,158.0
1266,C4,178.5,0.25,43,158.0
1267,C5,179.0,0.25,43,158.0
1268,C4,179.0,0.25,43,158.0
1269,C3,179.5,0.5,52,158.0
1270,C2,179.5,0.5,52,158.0
1271,A4,179.812,0.188,61,158.0
1272,C5,179.875,0.125,61,158.0
1273,F5,179.938,0.062,61,158.0
1274,A5,180.0,0.5,72,158.0
1275,A4,180.0,0.5,61,158.0
1276,C5,180.0,0.5,61,158.0
1277,F5,180.0,0.438,61,158.0
1278,F2,180.0,1.0,62,158.0
1279,F3,180.0,1.0,62,158.0
1280,F5,180.5,0.25,58,158.0
1281,F4,180.5,0.25,58,158.0
1282,F5,181.0,0.25,59,158.0
1283,F4,181.0,0.25,59,158.0
1284,E2,181.0,1.0,60,158.0
1285,E3,181.0,1.0,60,158.0
1286,F5,181.5,0.25,60,158.0
1287,F4,181.5,0.25,60,158.0
1288,F5,182.0,0.25,60,158.0
1289,F4,182.0,0.25,60,158.0
1290,D2,182.0,1.0,62,158.0
1291,D3,182.0,1.0,62,158.0
1292,F5,182.5,0.25,62,158.0
1293,F4,182.5,0.25,62,158.0
1294,F5,183.0,0.25,64,158.0
1295,F4,183.0,0.25,64,158.0
1296,C3,183.0,1.0,64,158.0
1297,C2,183.0,1.0,64,158.0
1298,F5,183.5,0.25,64,158.0
1299,F4,183.5,0.25,64,158.0
1300,F5,184.0,0.25,73,158.0
1301,G4,184.0,0.25,73,158.0
1302,G5,184.0,0.25,73,158.0
1303,B-2,184.0,1.0,64,158.0
1304,B-1,184.0,1.0,64,158.0
1305,G5,184.5,0.25,65,158.0
1306,G4,184.5,0.25,65,158.0
1307,F5,184.5,0.25,65,158.0
1308,F5,185.0,0.25,67,158.0
1309,G4,185.0,0.25,67,158.0
1310,G5,185.0,0.25,67,158.0
1311,B2,185.0,1.0,59,158.0
1312,B1,185.0,1.0,59,158.0
1313,F5,185.5,0.25,68,158.0
1314,G4,185.5,0.25,68,158.0
1315,G5,185.5,0.25,68,158.0
1316,E5,186.0,0.25,69,158.0
1317,G4,186.0,0.25,69,158.0
1318,G5,186.0,0.25,69,158.0
1319,C3,186.0,1.0,62,158.0
1320,C2,186.0,1.0,62,158.0
1321,G5,186.5,0.25,69,158.0
1322,G4,186.5,0.25,69,158.0
1323,E5,186.5,0.25,69,158.0
1324,A5,187.0,0.25,68,158.0
1325,G5,187.0,0.25,68,158.0
1326,A4,187.0,0.25,68,158.0
1327,E5,187.0,0.25,68,158.0
1328,C#3,187.0,1.0,64,158.0
1329,C#2,187.0,1.0,64,158.0
1330,A5,187.5,0.25,68,158.0
1331,G5,187.5,0.25,68,158.0
1332,A4,187.5,0.25,68,158.0
1333,E5,187.5,0.25,68,158.0
1334,F5,188.0,0.25,74,158.0
1335,A4,188.0,0.25,74,158.0
1336,A5,188.0,0.25,74,158.0
1337,D2,188.0,1.0,64,158.0
1338,D3,188.0,1.0,64,158.0
1339,F5,188.5,0.25,66,158.0
1340,A4,188.5,0.25,66,158.0
1341,A5,188.5,0.25,66,158.0
1342,A5,189.0,0.25,70,158.0
1343,A4,189.0,0.25,70,158.0
1344,F5,189.0,0.25,70,158.0
1345,E-3,189.0,1.0,64,158.0
1346,E-2,189.0,1.0,64,158.0
1347,A5,189.5,0.25,72,158.0
1348,A4,189.5,0.25,72,158.0
1349,F5,189.5,0.25,72,158.0
1350,B-5,190.0,0.25,73,158.0
1351,B-4,190.0,0.25,73,158.0
1352,F5,190.0,0.25,73,158.0
1353,D3,190.0,1.0,68,158.0
1354,D2,190.0,1.0,68,158.0
1355,B-5,190.5,0.25,75,158.0
1356,B-4,190.5,0.25,75,158.0
1357,F5,190.5,0.25,75,158.0
1358,B5,191.0,0.25,74,158.0
1359,G#5,191.0,0.25,74,158.0
1360,B4,191.0,0.25,74,158.0
1361,F5,191.0,0.25,74,158.0
1362,C#3,191.0,1.0,71,158.0
1363,C#2,191.0,1.0,71,158.0
1364,F5,191.5,0.25,78,158.0
1365,B4,191.5,0.25,78,158.0
1366,G#5,191.5,0.25,78,158.0
1367,B5,191.5,0.25,78,158.0
1368,C6,192.0,0.25,83,158.0
1369,A5,192.0,0.25,83,158.0
1370,F5,192.0,0.25,83,158.0
1371,C5,192.0,0.25,83,158.0
1372,C3,192.0,0.25,78,158.0
1373,C2,192.0,0.25,78,158.0
1374,C6,192.5,0.25,78,158.0
1375,C5,192.5,0.25,78,158.0
1376,C4,192.5,0.25,64,158.0
1377,C3,192.5,0.25,64,158.0
1378,C6,193.0,0.25,78,158.0
1379,C5,193.0,0.25,78,158.0
1380,C4,193.0,0.25,64,158.0
1381,C3,193.0,0.25,64,158.0
1382,C5,193.5,0.25,72,158.0
1383,C6,193.5,0.25,72,158.0
1384,C4,193.5,0.25,64,158.0
1385,C3,193.5,0.25,64,158.0
1386,C6,194.0,0.25,83,158.0
1387,G5,194.0,0.25,83,158.0
1388,E5,194.0,0.25,83,158.0
1389,C5,194.0,0.25,83,158.0
1390,C3,194.0,0.25,78,158.0
1391,C2,194.0,0.25,78,158.0
1392,C6,194.5,0.25,78,158.0
1393,C5,194.5,0.25,78,158.0
1394,C4,194.5,0.25,64,158.0
1395,C3,194.5,0.25,64,158.0
1396,C6,195.0,0.25,78,158.0
1397,C5,195.0,0.25,78,158.0
1398,C4,195.0,0.25,64,158.0
1399,C3,195.0,0.25,64,158.0
1400,C5,195.5,0.25,72,158.0
1401,C6,195.5,0.25,72,158.0
1402,C4,195.5,0.25,64,158.0
1403,C3,195.5,0.25,64,158.0
1404,F2,196.0,0.5,76,158.0
1405,F3,196.062,0.438,80,158.0
1406,F5,196.125,0.375,86,158.0
1407,A5,196.188,0.312,86,158.0
1408,C6,196.25,0.25,86,158.0
1409,F6,196.312,0.188,103,158.0
