,note_name,start_time,duration,velocity,tempo
0,B-4,0.0,2.0,80,208.07
1,B-4,2.0,0.25,74,208.07
2,B-4,2.5,0.25,70,208.07
3,B-4,3.0,2.0,79,208.07
4,B-4,5.0,0.25,75,208.07
5,B-4,5.5,0.25,69,208.07
6,B-4,6.0,1.0,78,208.07
7,B-4,7.0,0.25,72,208.07
8,B-4,7.5,0.25,67,208.07
9,B-4,8.0,1.0,74,208.07
10,B-4,9.0,0.25,69,208.07
11,B-4,9.5,0.25,66,208.07
12,B-4,10.0,1.0,73,208.07
13,B-4,11.0,0.25,59,208.07
14,B-4,11.5,0.25,59,208.07
15,B-4,12.0,1.0,72,208.07
16,B-2,12.0,0.5,40,208.07
17,D5,13.0,271/500,60,208.07
18,G#4,13.0,0.75,47,208.07
19,F4,13.0,0.75,47,208.07
20,B-3,13.0,0.75,47,208.07
21,E-5,13.5,271/500,49,208.07
22,D5,14.0,0.75,57,208.07
23,F5,14.0,0.75,57,208.07
24,G#4,14.0,0.75,51,208.07
25,F4,14.0,0.75,51,208.07
26,B-3,14.0,0.75,51,208.07
27,B-4,15.0,0.5,67,208.07
28,E-3,15.0,0.5,40,208.07
29,E-5,16.0,271/500,64,208.07
30,G4,16.0,0.75,46,208.07
31,E-4,16.0,0.75,46,208.07
32,B-3,16.0,0.75,46,208.07
33,F5,16.5,271/500,48,208.07
34,E-5,17.0,0.75,56,208.07
35,G5,17.0,0.75,56,208.07
36,G4,17.0,0.75,50,208.07
37,E-4,17.0,0.75,50,208.07
38,B-3,17.0,0.75,50,208.07
39,B-4,18.0,0.5,72,208.07
40,D3,18.0,0.5,44,208.07
41,F5,19.0,271/500,67,208.07
42,G#4,19.0,0.75,54,208.07
43,F4,19.0,0.75,54,208.07
44,B-3,19.0,0.75,54,208.07
45,G5,19.5,271/500,52,208.07
46,F5,20.0,0.75,75,208.07
47,G#5,20.0,0.75,75,208.07
48,G#4,20.0,0.75,59,208.07
49,F4,20.0,0.75,59,208.07
50,B-3,20.0,0.75,59,208.07
51,E-3,21.0,0.5,69,208.07
52,B-5,21.0,2.0,78,208.07
53,G5,21.0,2.0,78,208.07
54,C#5,21.0,2.0,78,208.07
55,G4,22.0,0.5,62,208.07
56,C#4,22.0,0.5,62,208.07
57,B-3,22.0,0.5,62,208.07
58,E3,23.0,1.0,70,208.07
59,B-5,23.0,0.5,64,208.07
60,G5,23.0,0.5,64,208.07
61,C#5,23.0,0.5,64,208.07
62,B-5,23.5,0.5,55,208.07
63,G5,23.5,0.5,55,208.07
64,C#5,23.5,0.5,55,208.07
65,B-5,24.0,1.0,63,208.07
66,F3,24.0,0.5,36,208.07
67,C#5,24.0,1021/500,63,208.07
68,G5,24.0,1021/500,63,208.07
69,C6,25.0,271/500,52,208.07
70,F4,25.0,0.5,33,208.07
71,G#3,25.0,0.5,33,208.07
72,B-5,25.5,271/500,48,208.07
73,G#2,26.0,0.5,37,208.07
74,C5,26.0,0.5,54,208.07
75,G#5,26.0,0.5,54,208.07
76,G#5,27.0,521/500,67,208.07
77,B4,27.0,2.0,67,208.07
78,B-2,27.0,0.5,58,208.07
79,B-5,28.0,271/500,47,208.07
80,E-4,28.0,0.75,31,208.07
81,G3,28.0,0.75,31,208.07
82,G#5,28.5,271/500,44,208.07
83,B-4,29.0,0.5,54,208.07
84,G5,29.0,0.5,54,208.07
85,E-4,29.0,0.5,44,208.07
86,G3,29.0,0.5,44,208.07
87,G5,30.0,521/500,66,208.07
88,B-4,30.0,2.0,66,208.07
89,B-2,30.0,0.5,37,208.07
90,G#5,31.0,271/500,59,208.07
91,D4,31.0,0.75,38,208.07
92,F3,31.0,0.75,38,208.07
93,G5,31.5,271/500,53,208.07
94,G#4,32.0,0.5,59,208.07
95,F5,32.0,0.5,59,208.07
96,D4,32.0,0.5,45,208.07
97,B-3,32.0,0.5,45,208.07
98,F5,33.0,521/500,64,208.07
99,G#4,33.0,2.0,64,208.07
100,E-3,33.0,3.0,28,208.07
101,G5,34.0,271/500,60,208.07
102,E-4,34.0,0.75,35,208.07
103,B-3,34.0,0.75,35,208.07
104,F5,34.5,271/500,49,208.07
105,E-5,35.0,0.5,53,208.07
106,G4,35.0,0.5,53,208.07
107,E-4,35.0,0.5,57,208.07
108,B-3,35.0,0.5,57,208.07
109,B-4,36.0,0.5,65,208.07
110,B-2,36.0,0.5,61,208.07
111,D5,37.0,271/500,49,208.07
112,G#4,37.0,0.75,32,208.07
113,F4,37.0,0.75,32,208.07
114,B-3,37.0,0.75,32,208.07
115,E-5,37.5,271/500,60,208.07
116,D5,38.0,0.75,63,208.07
117,F5,38.0,0.75,63,208.07
118,G#4,38.0,0.75,32,208.07
119,F4,38.0,0.75,32,208.07
120,B-3,38.0,0.75,32,208.07
121,B-4,39.0,0.5,69,208.07
122,E-3,39.0,0.5,43,208.07
123,E-5,40.0,271/500,68,208.07
124,G4,40.0,0.75,37,208.07
125,E-4,40.0,0.75,37,208.07
126,B-3,40.0,0.75,37,208.07
127,F5,40.5,271/500,64,208.07
128,E-5,41.0,0.75,73,208.07
129,G5,41.0,0.75,73,208.07
130,G4,41.0,0.75,48,208.07
131,E-4,41.0,0.75,48,208.07
132,B-3,41.0,0.75,48,208.07
133,B-4,42.0,0.5,76,208.07
134,D3,42.0,0.5,60,208.07
135,F5,43.0,271/500,72,208.07
136,G#4,43.0,0.75,62,208.07
137,F4,43.0,0.75,62,208.07
138,B-3,43.0,0.75,62,208.07
139,G5,43.5,271/500,62,208.07
140,F5,44.0,0.75,75,208.07
141,G#5,44.0,0.75,75,208.07
142,G#4,44.0,0.75,66,208.07
143,F4,44.0,0.75,66,208.07
144,B-3,44.0,0.75,66,208.07
145,E-3,45.0,0.5,61,208.07
146,B-5,45.0,1.5,84,208.07
147,G5,45.0,1.5,84,208.07
148,C#5,45.0,1.5,84,208.07
149,G4,46.0,0.5,42,208.07
150,C#4,46.0,0.5,42,208.07
151,B-3,46.0,0.5,42,208.07
152,G5,46.5,0.5,74,208.07
153,B-5,46.5,0.5,74,208.07
154,C#5,47.0,1.0,80,208.07
155,E3,47.0,1.0,32,208.07
156,B-5,47.5,0.5,73,208.07
157,G5,47.5,0.5,73,208.07
158,C#5,48.0,2.0,64,208.07
159,F3,48.0,0.5,43,208.07
160,B-5,48.5,271/500,72,208.07
161,C6,49.0,271/500,64,208.07
162,F4,49.0,0.5,49,208.07
163,G#3,49.0,0.5,49,208.07
164,B-5,49.5,271/500,58,208.07
165,G#2,50.0,0.5,37,208.07
166,C5,50.0,0.5,54,208.07
167,G#5,50.0,0.5,54,208.07
168,B4,51.0,2.0,65,208.07
169,B-2,51.0,0.5,43,208.07
170,G#5,51.5,271/500,69,208.07
171,B-5,52.0,271/500,65,208.07
172,E-4,52.0,1.0,31,208.07
173,G3,52.0,1.0,31,208.07
174,G#5,52.5,271/500,63,208.07
175,B-4,53.0,0.5,51,208.07
176,G5,53.0,0.5,51,208.07
177,E-4,53.0,0.5,41,208.07
178,G3,53.0,0.5,41,208.07
179,B-4,54.0,2.0,63,208.07
180,B-2,54.0,0.5,33,208.07
181,G5,54.5,271/500,46,208.07
182,G#5,55.0,271/500,58,208.07
183,D4,55.0,1.0,40,208.07
184,F3,55.0,1.0,40,208.07
185,G5,55.5,271/500,45,208.07
186,D4,56.0,1.0,27,208.07
187,B-3,56.0,1.0,27,208.07
188,G#4,56.0,1.0,50,208.07
189,F5,56.0,1.0,50,208.07
190,B-3,57.0,1.0,27,208.07
191,G4,57.0,0.5,59,208.07
192,E-5,57.0,0.5,59,208.07
193,E-3,57.0,1.0,44,208.07
194,E-4,57.0,1.0,44,208.07
195,B-4,58.0,0.25,57,208.07
196,B-4,58.5,0.25,50,208.07
197,B-4,59.0,0.25,56,208.07
198,B-4,59.5,0.25,58,208.07
199,B-4,60.0,1.0,78,208.07
200,B-2,60.0,0.5,26,208.07
201,D5,61.0,271/500,65,208.07
202,G#4,61.0,0.75,38,208.07
203,F4,61.0,0.75,38,208.07
204,B-3,61.0,0.75,38,208.07
205,E-5,61.5,271/500,57,208.07
206,D5,62.0,0.75,66,208.07
207,F5,62.0,0.75,66,208.07
208,G#4,62.0,0.75,34,208.07
209,F4,62.0,0.75,34,208.07
210,B-3,62.0,0.75,34,208.07
211,B-4,63.0,0.5,69,208.07
212,E-3,63.0,0.5,34,208.07
213,E-5,64.0,271/500,66,208.07
214,G4,64.0,0.75,46,208.07
215,E-4,64.0,0.75,46,208.07
216,B-3,64.0,0.75,46,208.07
217,F5,64.5,271/500,56,208.07
218,E-5,65.0,0.75,73,208.07
219,G5,65.0,0.75,73,208.07
220,G4,65.0,0.75,57,208.07
221,E-4,65.0,0.75,57,208.07
222,B-3,65.0,0.75,57,208.07
223,B-4,66.0,0.5,77,208.07
224,D3,66.0,0.5,71,208.07
225,F5,67.0,271/500,75,208.07
226,G#4,67.0,0.75,52,208.07
227,F4,67.0,0.75,52,208.07
228,B-3,67.0,0.75,52,208.07
229,G5,67.5,271/500,58,208.07
230,F5,68.0,0.75,75,208.07
231,G#5,68.0,0.75,75,208.07
232,G#4,68.0,0.75,56,208.07
233,F4,68.0,0.75,56,208.07
234,B-3,68.0,0.75,56,208.07
235,E-3,69.0,0.5,62,208.07
236,B-5,69.0,2.0,81,208.07
237,G5,69.0,2.0,81,208.07
238,C#5,69.0,2.0,81,208.07
239,G4,70.0,0.5,56,208.07
240,C#4,70.0,0.5,56,208.07
241,B-3,70.0,0.5,56,208.07
242,E3,71.0,1.0,37,208.07
243,B-5,71.0,0.5,65,208.07
244,G5,71.0,0.5,65,208.07
245,C#5,71.0,0.5,65,208.07
246,B-5,71.5,0.5,44,208.07
247,G5,71.5,0.5,44,208.07
248,C#5,71.5,0.5,44,208.07
249,B-5,72.0,521/500,65,208.07
250,F3,72.0,0.5,40,208.07
251,C#5,72.0,2.0,65,208.07
252,G5,72.0,2.0,65,208.07
253,C6,73.0,271/500,53,208.07
254,F4,73.0,0.5,34,208.07
255,G#3,73.0,0.5,34,208.07
256,B-5,73.5,271/500,49,208.07
257,G#2,74.0,0.5,38,208.07
258,C5,74.0,0.5,51,208.07
259,G#5,74.0,0.5,51,208.07
260,G#5,75.0,521/500,68,208.07
261,B4,75.0,2.0,68,208.07
262,B-2,75.0,0.5,31,208.07
263,B-5,76.0,271/500,47,208.07
264,E-4,76.0,1.0,33,208.07
265,G3,76.0,1.0,33,208.07
266,G#5,76.5,271/500,46,208.07
267,B-4,77.0,0.5,53,208.07
268,G5,77.0,0.5,53,208.07
269,E-4,77.0,0.5,43,208.07
270,G3,77.0,0.5,43,208.07
271,G5,78.0,521/500,68,208.07
272,B-4,78.0,2.0,68,208.07
273,B-2,78.0,0.5,50,208.07
274,G#5,79.0,271/500,51,208.07
275,D4,79.0,1.0,37,208.07
276,F3,79.0,1.0,37,208.07
277,G5,79.5,271/500,49,208.07
278,G#4,80.0,0.5,61,208.07
279,F5,80.0,0.5,61,208.07
280,D4,80.0,0.5,27,208.07
281,B-3,80.0,0.5,27,208.07
282,F5,81.0,521/500,74,208.07
283,G#4,81.0,2.0,74,208.07
284,E-3,81.0,3.0,33,208.07
285,G5,82.0,271/500,69,208.07
286,E-4,82.0,1.0,36,208.07
287,B-3,82.0,1.0,36,208.07
288,F5,82.5,271/500,53,208.07
289,E-5,83.0,0.5,68,208.07
290,G4,83.0,0.5,68,208.07
291,E-4,83.0,0.5,42,208.07
292,B-3,83.0,0.5,42,208.07
293,B-4,84.0,0.5,70,208.07
294,B-2,84.0,0.5,58,208.07
295,D5,85.0,271/500,68,208.07
296,G#4,85.0,0.75,47,208.07
297,F4,85.0,0.75,47,208.07
298,B-3,85.0,0.75,47,208.07
299,E-5,85.5,271/500,60,208.07
300,D5,86.0,0.75,63,208.07
301,F5,86.0,0.75,63,208.07
302,G#4,86.0,0.75,44,208.07
303,F4,86.0,0.75,44,208.07
304,B-3,86.0,0.75,44,208.07
305,B-4,87.0,0.5,72,208.07
306,E-3,87.0,0.5,49,208.07
307,E-5,88.0,271/500,65,208.07
308,G4,88.0,0.75,43,208.07
309,E-4,88.0,0.75,43,208.07
310,B-3,88.0,0.75,43,208.07
311,F5,88.5,271/500,60,208.07
312,E-5,89.0,0.75,68,208.07
313,G5,89.0,0.75,68,208.07
314,G4,89.0,0.75,64,208.07
315,E-4,89.0,0.75,64,208.07
316,B-3,89.0,0.75,64,208.07
317,B-4,90.0,0.5,76,208.07
318,D3,90.0,0.5,67,208.07
319,F5,91.0,271/500,77,208.07
320,G#4,91.0,0.75,49,208.07
321,F4,91.0,0.75,49,208.07
322,B-3,91.0,0.75,49,208.07
323,G5,91.5,271/500,70,208.07
324,F5,92.0,0.75,77,208.07
325,G#5,92.0,0.75,77,208.07
326,G#4,92.0,0.75,61,208.07
327,F4,92.0,0.75,61,208.07
328,B-3,92.0,0.75,61,208.07
329,E-3,93.0,0.5,65,208.07
330,B-5,93.0,1.5,80,208.07
331,G5,93.0,1.5,80,208.07
332,C#5,93.0,1.5,80,208.07
333,G4,94.0,0.5,48,208.07
334,C#4,94.0,0.5,48,208.07
335,B-3,94.0,0.5,48,208.07
336,G5,94.5,0.5,72,208.07
337,B-5,94.5,0.5,72,208.07
338,C#5,95.0,1.0,80,208.07
339,E3,95.0,1.0,49,208.07
340,B-5,95.5,0.5,65,208.07
341,G5,95.5,0.5,65,208.07
342,C#5,96.0,2.0,67,208.07
343,F3,96.0,0.5,44,208.07
344,B-5,96.5,271/500,58,208.07
345,C6,97.0,271/500,48,208.07
346,F4,97.0,0.5,33,208.07
347,G#3,97.0,0.5,33,208.07
348,B-5,97.5,271/500,60,208.07
349,G#2,98.0,0.5,28,208.07
350,C5,98.0,0.5,54,208.07
351,G#5,98.0,0.5,54,208.07
352,B4,99.0,2.0,70,208.07
353,B-2,99.0,0.5,26,208.07
354,G#5,99.5,271/500,69,208.07
355,B-5,100.0,271/500,45,208.07
356,E-4,100.0,0.75,34,208.07
357,G3,100.0,0.75,34,208.07
358,G#5,100.5,271/500,65,208.07
359,B-4,101.0,0.5,55,208.07
360,G5,101.0,0.5,55,208.07
361,E-4,101.0,0.5,38,208.07
362,G3,101.0,0.5,38,208.07
363,B-4,102.0,2.0,65,208.07
364,B-2,102.0,0.5,30,208.07
365,G5,102.5,271/500,50,208.07
366,G#5,103.0,271/500,44,208.07
367,D4,103.0,1.0,36,208.07
368,F3,103.0,1.0,36,208.07
369,G5,103.5,271/500,62,208.07
370,G#4,104.0,1.0,57,208.07
371,F5,104.0,1.0,57,208.07
372,D4,104.0,1.0,24,208.07
373,B-3,104.0,1.0,24,208.07
374,E-3,105.0,2.0,30,208.07
375,G4,105.0,0.5,48,208.07
376,E-5,105.0,0.5,48,208.07
377,E-5,106.0,0.25,53,208.07
378,E-4,106.0,1.0,45,208.07
379,G3,106.0,1.0,45,208.07
380,E-5,106.5,0.25,64,208.07
381,E-5,107.0,0.25,67,208.07
382,E-3,107.0,1.0,52,208.07
383,C#4,107.0,1.0,52,208.07
384,G3,107.0,1.0,52,208.07
385,E-5,107.5,0.25,69,208.07
386,E-5,108.0,0.25,75,208.07
387,G#2,108.0,1.0,25,208.07
388,E-5,108.5,0.25,64,208.07
389,E-5,109.0,0.25,75,208.07
390,C4,109.0,0.75,33,208.07
391,G#3,109.0,0.75,33,208.07
392,E-3,109.0,0.75,33,208.07
393,E-5,109.5,0.25,74,208.07
394,E-5,110.0,0.25,69,208.07
395,C4,110.0,0.75,41,208.07
396,G#3,110.0,0.75,41,208.07
397,E-3,110.0,0.75,41,208.07
398,E-5,110.5,0.25,69,208.07
399,F5,111.0,271/500,65,208.07
400,G#2,111.0,1.0,33,208.07
401,E-5,111.5,271/500,58,208.07
402,C5,112.0,271/500,56,208.07
403,C4,112.0,0.75,33,208.07
404,G#3,112.0,0.75,33,208.07
405,E-3,112.0,0.75,33,208.07
406,G#4,112.5,271/500,49,208.07
407,E-4,113.0,0.5,49,208.07
408,E-3,113.0,0.75,37,208.07
409,G#3,113.0,0.75,37,208.07
410,C4,113.0,0.75,37,208.07
411,E4,113.5,0.5,51,208.07
412,F4,114.0,0.25,58,208.07
413,G#2,114.0,1.0,37,208.07
414,F4,114.5,0.25,51,208.07
415,F4,115.0,0.25,55,208.07
416,B3,115.0,0.75,26,208.07
417,G#3,115.0,0.75,26,208.07
418,D3,115.0,0.75,26,208.07
419,F4,115.5,0.25,51,208.07
420,F4,116.0,0.25,54,208.07
421,D3,116.0,0.75,32,208.07
422,G#3,116.0,0.75,32,208.07
423,B3,116.0,0.75,32,208.07
424,F4,116.5,0.25,58,208.07
425,E-4,117.0,271/500,61,208.07
426,G#2,117.0,1.0,38,208.07
427,G#4,117.5,271/500,53,208.07
428,C5,118.0,271/500,48,208.07
429,C4,118.0,0.75,29,208.07
430,G#3,118.0,0.75,29,208.07
431,E-3,118.0,0.75,29,208.07
432,E-5,118.5,271/500,64,208.07
433,G#5,119.0,271/500,61,208.07
434,C4,119.0,0.75,48,208.07
435,G#3,119.0,0.75,48,208.07
436,E-3,119.0,0.75,48,208.07
437,E5,119.5,0.5,52,208.07
438,F5,120.0,0.25,52,208.07
439,D3,120.0,1.0,55,208.07
440,F5,120.5,0.25,44,208.07
441,F5,121.0,0.25,68,208.07
442,F4,121.0,0.75,24,208.07
443,B3,121.0,0.75,24,208.07
444,G#3,121.0,0.75,24,208.07
445,F5,121.5,0.25,60,208.07
446,F5,122.0,0.25,53,208.07
447,F4,122.0,0.75,36,208.07
448,B3,122.0,0.75,36,208.07
449,G#3,122.0,0.75,36,208.07
450,F5,122.5,0.25,73,208.07
451,F5,123.0,0.375,77,208.07
452,E-3,123.0,1.0,44,208.07
453,G5,123.333,0.375,55,208.07
454,F5,123.667,0.375,55,208.07
455,E-5,124.0,271/500,65,208.07
456,C4,124.0,0.75,32,208.07
457,E-4,124.0,0.75,32,208.07
458,G#4,124.0,0.75,32,208.07
459,G#5,124.5,271/500,57,208.07
460,C6,125.0,0.5,51,208.07
461,C4,125.0,0.5,42,208.07
462,E-4,125.0,0.5,42,208.07
463,G#4,125.0,0.5,42,208.07
464,F6,126.0,521/500,66,208.07
465,E-3,126.0,1.0,20,208.07
466,E-6,127.0,271/500,51,208.07
467,C#4,127.0,0.75,20,208.07
468,E-4,127.0,0.75,20,208.07
469,G4,127.0,0.75,20,208.07
470,C#6,127.5,271/500,45,208.07
471,G5,128.0,0.5,50,208.07
472,C#4,128.0,0.5,30,208.07
473,E-4,128.0,0.5,30,208.07
474,G4,128.0,0.5,30,208.07
475,B-5,129.0,521/500,58,208.07
476,G#3,129.0,1.0,34,208.07
477,G#5,130.0,271/500,43,208.07
478,G#4,130.0,1.0,23,208.07
479,E-4,130.0,1.0,23,208.07
480,C4,130.0,1.0,23,208.07
481,E-5,130.5,271/500,44,208.07
482,C5,131.0,0.5,38,208.07
483,C4,131.0,0.5,38,208.07
484,E-4,131.0,0.5,38,208.07
485,G#4,131.0,0.5,38,208.07
486,E-5,132.0,0.25,48,208.07
487,G#2,132.0,1.0,34,208.07
488,E-5,132.5,0.25,44,208.07
489,E-5,133.0,0.25,65,208.07
490,C4,133.0,0.75,31,208.07
491,G#3,133.0,0.75,31,208.07
492,E-3,133.0,0.75,31,208.07
493,E-5,133.5,0.25,69,208.07
494,E-5,134.0,0.25,63,208.07
495,C4,134.0,0.75,49,208.07
496,G#3,134.0,0.75,49,208.07
497,E-3,134.0,0.75,49,208.07
498,E-5,134.5,0.25,71,208.07
499,F5,135.0,271/500,61,208.07
500,G#2,135.0,1.0,47,208.07
501,E-5,135.5,271/500,59,208.07
502,C5,136.0,271/500,52,208.07
503,C4,136.0,0.75,35,208.07
504,G#3,136.0,0.75,35,208.07
505,E-3,136.0,0.75,35,208.07
506,G#4,136.5,271/500,52,208.07
507,E-4,137.0,0.5,47,208.07
508,E-3,137.0,0.75,52,208.07
509,G#3,137.0,0.75,52,208.07
510,C4,137.0,0.75,52,208.07
511,E4,137.5,0.5,55,208.07
512,F4,138.0,0.25,57,208.07
513,G#2,138.0,1.0,40,208.07
514,F4,138.5,0.25,47,208.07
515,F4,139.0,0.25,59,208.07
516,B3,139.0,0.75,35,208.07
517,G#3,139.0,0.75,35,208.07
518,D3,139.0,0.75,35,208.07
519,F4,139.5,0.25,55,208.07
520,F4,140.0,0.25,61,208.07
521,D3,140.0,0.75,31,208.07
522,G#3,140.0,0.75,31,208.07
523,B3,140.0,0.75,31,208.07
524,F4,140.5,0.25,63,208.07
525,E-4,141.0,271/500,58,208.07
526,G#2,141.0,1.0,38,208.07
527,G#4,141.5,271/500,54,208.07
528,C5,142.0,271/500,50,208.07
529,C4,142.0,0.75,30,208.07
530,G#3,142.0,0.75,30,208.07
531,E-3,142.0,0.75,30,208.07
532,E-5,142.5,271/500,43,208.07
533,G#5,143.0,271/500,52,208.07
534,C4,143.0,1.0,36,208.07
535,G#3,143.0,1.0,36,208.07
536,E-3,143.0,1.0,36,208.07
537,E5,143.5,0.5,47,208.07
538,F5,144.0,0.25,58,208.07
539,D3,144.0,1.0,38,208.07
540,F5,144.5,0.25,50,208.07
541,F5,145.0,0.25,61,208.07
542,F4,145.0,0.75,33,208.07
543,B3,145.0,0.75,33,208.07
544,G#3,145.0,0.75,33,208.07
545,F5,145.5,0.25,57,208.07
546,F5,146.0,0.25,65,208.07
547,F4,146.0,0.75,36,208.07
548,B3,146.0,0.75,36,208.07
549,G#3,146.0,0.75,36,208.07
550,F5,146.5,0.25,65,208.07
551,F5,147.0,0.375,75,208.07
552,E-3,147.0,1.0,44,208.07
553,G5,147.333,0.375,55,208.07
554,F5,147.667,0.375,55,208.07
555,E-5,148.0,271/500,66,208.07
556,C4,148.0,0.75,29,208.07
557,E-4,148.0,0.75,29,208.07
558,G#4,148.0,0.75,29,208.07
559,G#5,148.5,271/500,64,208.07
560,C6,149.0,0.5,60,208.07
561,C4,149.0,0.5,44,208.07
562,E-4,149.0,0.5,44,208.07
563,G#4,149.0,0.5,44,208.07
564,F6,150.0,521/500,67,208.07
565,E-3,150.0,1.0,27,208.07
566,E-6,151.0,271/500,52,208.07
567,C#4,151.0,0.75,32,208.07
568,E-4,151.0,0.75,32,208.07
569,G4,151.0,0.75,32,208.07
570,C#6,151.5,271/500,48,208.07
571,G5,152.0,0.5,52,208.07
572,C#4,152.0,0.5,37,208.07
573,E-4,152.0,0.5,37,208.07
574,G4,152.0,0.5,37,208.07
575,G#5,153.0,2.0,65,208.07
576,G#3,153.0,3.0,44,208.07
577,C4,154.0,1.0,35,208.07
578,G#4,154.0,1.0,35,208.07
579,C5,155.0,167/1000,55,208.07
580,F4,155.0,1.0,47,208.07
581,G#4,155.0,1.0,47,208.07
582,D5,155.167,167/1000,49,208.07
583,C5,155.333,167/1000,65,208.07
584,D5,155.5,167/1000,53,208.07
585,C5,155.667,167/1000,67,208.07
586,B4,155.833,167/1000,56,208.07
587,B-4,156.0,521/500,87,208.07
588,B-3,156.0,1.0,86,208.07
589,B-2,156.0,1.0,86,208.07
590,D5,157.0,271/500,62,208.07
591,G#4,157.0,0.75,55,208.07
592,F4,157.0,0.75,55,208.07
593,B-3,157.0,0.75,55,208.07
594,E-5,157.5,271/500,62,208.07
595,D5,158.0,0.75,67,208.07
596,F5,158.0,0.75,67,208.07
597,G#4,158.0,0.75,65,208.07
598,F4,158.0,0.75,65,208.07
599,B-3,158.0,0.75,65,208.07
600,B-4,159.0,0.5,85,208.07
601,E-3,159.0,1.0,74,208.07
602,E-5,160.0,271/500,73,208.07
603,G4,160.0,0.75,57,208.07
604,E-4,160.0,0.75,57,208.07
605,B-3,160.0,0.75,57,208.07
606,F5,160.5,271/500,69,208.07
607,E-5,161.0,0.75,76,208.07
608,G5,161.0,0.75,76,208.07
609,G4,161.0,0.75,62,208.07
610,E-4,161.0,0.75,62,208.07
611,B-3,161.0,0.75,62,208.07
612,B-4,162.0,0.5,87,208.07
613,D3,162.0,1.0,65,208.07
614,F5,163.0,271/500,73,208.07
615,G#4,163.0,0.75,56,208.07
616,F4,163.0,0.75,56,208.07
617,B-3,163.0,0.75,56,208.07
618,G5,163.5,271/500,68,208.07
619,F5,164.0,0.75,83,208.07
620,G#5,164.0,0.75,83,208.07
621,G#4,164.0,0.75,69,208.07
622,F4,164.0,0.75,69,208.07
623,B-3,164.0,0.75,69,208.07
624,E-3,165.0,0.5,61,208.07
625,B-5,165.0,2.0,73,208.07
626,G5,165.0,2.0,73,208.07
627,C#5,165.0,2.0,73,208.07
628,G4,166.0,0.5,61,208.07
629,C#4,166.0,0.5,61,208.07
630,B-3,166.0,0.5,61,208.07
631,E3,167.0,0.5,38,208.07
632,B-5,167.0,0.5,71,208.07
633,G5,167.0,0.5,71,208.07
634,C#5,167.0,0.5,71,208.07
635,B-5,167.5,0.5,65,208.07
636,G5,167.5,0.5,65,208.07
637,C#5,167.5,0.5,65,208.07
638,B-5,168.0,521/500,70,208.07
639,F3,168.0,0.5,38,208.07
640,C#5,168.0,2.0,64,208.07
641,G5,168.0,2.0,64,208.07
642,C6,169.0,271/500,59,208.07
643,F4,169.0,0.5,41,208.07
644,G#3,169.0,0.5,41,208.07
645,B-5,169.5,271/500,50,208.07
646,G#2,170.0,0.5,36,208.07
647,C5,170.0,0.5,53,208.07
648,G#5,170.0,0.5,53,208.07
649,G#5,171.0,521/500,69,208.07
650,B4,171.0,2.0,69,208.07
651,B-2,171.0,0.5,31,208.07
652,B-5,172.0,271/500,47,208.07
653,E-4,172.0,1.0,27,208.07
654,G3,172.0,1.0,27,208.07
655,G#5,172.5,271/500,46,208.07
656,B-4,173.0,0.5,52,208.07
657,G5,173.0,0.5,52,208.07
658,E-4,173.0,0.5,41,208.07
659,G3,173.0,0.5,41,208.07
660,G5,174.0,521/500,66,208.07
661,B-4,174.0,2.0,66,208.07
662,B-2,174.0,0.5,39,208.07
663,G#5,175.0,271/500,53,208.07
664,D4,175.0,1.0,26,208.07
665,F3,175.0,1.0,26,208.07
666,G5,175.5,271/500,47,208.07
667,G#4,176.0,0.5,56,208.07
668,F5,176.0,0.5,56,208.07
669,D4,176.0,0.5,34,208.07
670,B-3,176.0,0.5,34,208.07
671,F5,177.0,521/500,64,208.07
672,G#4,177.0,2.0,64,208.07
673,E-3,177.0,3.0,23,208.07
674,G5,178.0,271/500,52,208.07
675,E-4,178.0,0.75,33,208.07
676,B-3,178.0,0.75,33,208.07
677,F5,178.5,271/500,48,208.07
678,E-5,179.0,0.5,53,208.07
679,G4,179.0,0.5,53,208.07
680,E-4,179.0,0.5,53,208.07
681,B-3,179.0,0.5,53,208.07
682,B-4,180.0,0.5,44,208.07
683,B-2,180.0,0.5,37,208.07
684,D5,180.5,0.5,46,208.07
685,E-5,181.0,0.5,57,208.07
686,G#4,181.0,0.75,32,208.07
687,F4,181.0,0.75,32,208.07
688,B-3,181.0,0.75,32,208.07
689,E5,181.5,0.5,44,208.07
690,D5,182.0,0.75,56,208.07
691,F5,182.0,0.75,56,208.07
692,G#4,182.0,0.75,35,208.07
693,F4,182.0,0.75,35,208.07
694,B-3,182.0,0.75,35,208.07
695,B-4,183.0,0.5,65,208.07
696,E-3,183.0,0.5,41,208.07
697,D5,183.5,0.5,63,208.07
698,E-5,184.0,0.5,57,208.07
699,G4,184.0,0.75,45,208.07
700,E-4,184.0,0.75,45,208.07
701,B-3,184.0,0.75,45,208.07
702,F5,184.5,0.5,51,208.07
703,E-5,185.0,0.75,64,208.07
704,G5,185.0,0.75,64,208.07
705,G4,185.0,0.75,41,208.07
706,E-4,185.0,0.75,41,208.07
707,B-3,185.0,0.75,41,208.07
708,B-4,186.0,0.5,68,208.07
709,D3,186.0,0.5,52,208.07
710,E5,186.5,0.5,73,208.07
711,F5,187.0,0.5,70,208.07
712,G#4,187.0,0.75,67,208.07
713,F4,187.0,0.75,67,208.07
714,B-3,187.0,0.75,67,208.07
715,G5,187.5,0.5,64,208.07
716,F5,188.0,0.75,80,208.07
717,G#5,188.0,0.75,80,208.07
718,G#4,188.0,0.75,56,208.07
719,F4,188.0,0.75,56,208.07
720,B-3,188.0,0.75,56,208.07
721,E-3,189.0,0.5,66,208.07
722,B-5,189.0,1.5,70,208.07
723,G5,189.0,1.5,70,208.07
724,C#5,189.0,1.5,70,208.07
725,G4,190.0,0.5,54,208.07
726,C#4,190.0,0.5,54,208.07
727,B-3,190.0,0.5,54,208.07
728,G5,190.5,0.5,44,208.07
729,B-5,190.5,0.5,44,208.07
730,C#5,191.0,1.0,62,208.07
731,E3,191.0,1.0,42,208.07
732,B-5,191.5,0.5,52,208.07
733,G5,191.5,0.5,52,208.07
734,C#5,192.0,2.0,48,208.07
735,F3,192.0,0.5,20,208.07
736,B-5,192.5,271/500,56,208.07
737,C6,193.0,271/500,54,208.07
738,F4,193.0,0.5,32,208.07
739,G#3,193.0,0.5,32,208.07
740,B-5,193.5,271/500,51,208.07
741,G#2,194.0,0.5,30,208.07
742,C5,194.0,0.5,56,208.07
743,G#5,194.0,0.5,56,208.07
744,B4,195.0,2.0,47,208.07
745,B-2,195.0,0.5,37,208.07
746,G#5,195.5,271/500,51,208.07
747,B-5,196.0,271/500,54,208.07
748,E-4,196.0,0.75,29,208.07
749,G3,196.0,0.75,29,208.07
750,G#5,196.5,271/500,50,208.07
751,B-4,197.0,0.5,50,208.07
752,G5,197.0,0.5,50,208.07
753,E-4,197.0,0.5,34,208.07
754,G3,197.0,0.5,34,208.07
755,B-4,198.0,2.0,63,208.07
756,B-2,198.0,0.5,33,208.07
757,G5,198.5,271/500,46,208.07
758,G#5,199.0,271/500,59,208.07
759,D4,199.0,1.0,33,208.07
760,F3,199.0,1.0,33,208.07
761,G5,199.5,271/500,54,208.07
762,D4,200.0,1.0,41,208.07
763,B-3,200.0,1.0,41,208.07
764,G#4,200.0,1.0,50,208.07
765,F5,200.0,1.0,50,208.07
766,B-3,201.0,1.0,41,208.07
767,G4,201.0,0.5,45,208.07
768,E-5,201.0,0.5,45,208.07
769,E-4,201.0,1.0,36,208.07
770,E-3,201.0,1.0,36,208.07
771,E-5,202.0,0.25,59,208.07
772,E-5,202.5,0.25,52,208.07
773,E-5,203.0,0.25,61,208.07
774,E-3,203.0,1.0,32,208.07
775,C#4,203.0,1.0,32,208.07
776,G3,203.0,1.0,32,208.07
777,E-5,203.5,0.25,57,208.07
778,E-5,204.0,0.25,64,208.07
779,G#2,204.0,1.0,27,208.07
780,E-5,204.5,0.25,67,208.07
781,E-5,205.0,0.25,70,208.07
782,C4,205.0,0.75,27,208.07
783,G#3,205.0,0.75,27,208.07
784,E-3,205.0,0.75,27,208.07
785,E-5,205.5,0.25,64,208.07
786,E-5,206.0,0.25,71,208.07
787,C4,206.0,0.75,44,208.07
788,G#3,206.0,0.75,44,208.07
789,E-3,206.0,0.75,44,208.07
790,E-5,206.5,0.25,67,208.07
791,F5,207.0,0.5,61,208.07
792,G#2,207.0,1.0,39,208.07
793,E-5,207.5,0.5,57,208.07
794,C5,208.0,0.5,50,208.07
795,C4,208.0,0.75,35,208.07
796,G#3,208.0,0.75,35,208.07
797,E-3,208.0,0.75,35,208.07
798,G#4,208.5,0.5,56,208.07
799,E-4,209.0,0.5,51,208.07
800,E-3,209.0,0.75,33,208.07
801,G#3,209.0,0.75,33,208.07
802,C4,209.0,0.75,33,208.07
803,E4,209.5,0.5,55,208.07
804,F4,210.0,0.25,68,208.07
805,G#2,210.0,1.0,47,208.07
806,F4,210.5,0.25,62,208.07
807,F4,211.0,0.25,62,208.07
808,B3,211.0,0.75,29,208.07
809,G#3,211.0,0.75,29,208.07
810,D3,211.0,0.75,29,208.07
811,F4,211.5,0.25,53,208.07
812,F4,212.0,0.25,55,208.07
813,D3,212.0,0.75,29,208.07
814,G#3,212.0,0.75,29,208.07
815,B3,212.0,0.75,29,208.07
816,F4,212.5,0.25,62,208.07
817,E-4,213.0,0.5,68,208.07
818,G#2,213.0,1.0,43,208.07
819,G#4,213.5,0.5,55,208.07
820,C5,214.0,0.5,50,208.07
821,C4,214.0,0.75,31,208.07
822,G#3,214.0,0.75,31,208.07
823,E-3,214.0,0.75,31,208.07
824,E-5,214.5,0.5,58,208.07
825,G#5,215.0,0.5,59,208.07
826,C4,215.0,0.75,38,208.07
827,G#3,215.0,0.75,38,208.07
828,E-3,215.0,0.75,38,208.07
829,E5,215.5,0.5,56,208.07
830,F5,216.0,0.25,41,208.07
831,D3,216.0,1.0,44,208.07
832,F5,216.5,0.25,63,208.07
833,F5,217.0,0.25,61,208.07
834,F4,217.0,0.75,29,208.07
835,B3,217.0,0.75,29,208.07
836,G#3,217.0,0.75,29,208.07
837,F5,217.5,0.25,63,208.07
838,F5,218.0,0.25,58,208.07
839,F4,218.0,0.75,40,208.07
840,B3,218.0,0.75,40,208.07
841,G#3,218.0,0.75,40,208.07
842,F5,218.5,0.25,54,208.07
843,F5,219.0,333/1000,58,208.07
844,E-3,219.0,1.0,45,208.07
845,G5,219.333,333/1000,52,208.07
846,F5,219.667,333/1000,52,208.07
847,E-5,220.0,0.5,55,208.07
848,C4,220.0,1.0,31,208.07
849,E-4,220.0,1.0,31,208.07
850,G#4,220.0,1.0,31,208.07
851,G#5,220.5,0.5,68,208.07
852,C6,221.0,0.5,49,208.07
853,C4,221.0,0.5,50,208.07
854,E-4,221.0,0.5,50,208.07
855,G#4,221.0,0.5,50,208.07
856,F6,222.0,1.0,55,208.07
857,E-3,222.0,1.0,40,208.07
858,E-6,223.0,0.5,55,208.07
859,C#4,223.0,0.75,35,208.07
860,E-4,223.0,0.75,35,208.07
861,G4,223.0,0.75,35,208.07
862,C#6,223.5,0.5,51,208.07
863,G5,224.0,0.5,55,208.07
864,C#4,224.0,0.5,37,208.07
865,E-4,224.0,0.5,37,208.07
866,G4,224.0,0.5,37,208.07
867,B-5,225.0,1.0,60,208.07
868,G#3,225.0,3.0,45,208.07
869,G#5,226.0,0.5,58,208.07
870,G#4,226.0,0.75,37,208.07
871,E-4,226.0,0.75,37,208.07
872,C4,226.0,0.75,37,208.07
873,E-5,226.5,0.5,50,208.07
874,C5,227.0,0.5,38,208.07
875,C4,227.0,0.5,45,208.07
876,E-4,227.0,0.5,45,208.07
877,G#4,227.0,0.5,45,208.07
878,E-5,228.0,0.25,48,208.07
879,G#2,228.0,1.0,27,208.07
880,E-5,228.5,0.25,55,208.07
881,E-5,229.0,0.25,66,208.07
882,C4,229.0,0.75,34,208.07
883,G#3,229.0,0.75,34,208.07
884,E-3,229.0,0.75,34,208.07
885,E-5,229.5,0.25,73,208.07
886,E-5,230.0,0.25,69,208.07
887,C4,230.0,0.75,41,208.07
888,G#3,230.0,0.75,41,208.07
889,E-3,230.0,0.75,41,208.07
890,E-5,230.5,0.25,64,208.07
891,F5,231.0,0.5,53,208.07
892,G#2,231.0,1.0,33,208.07
893,E-5,231.5,0.5,61,208.07
894,C5,232.0,0.5,50,208.07
895,C4,232.0,0.75,37,208.07
896,G#3,232.0,0.75,37,208.07
897,E-3,232.0,0.75,37,208.07
898,G#4,232.5,0.5,40,208.07
899,E-4,233.0,0.5,48,208.07
900,E-3,233.0,0.75,37,208.07
901,G#3,233.0,0.75,37,208.07
902,C4,233.0,0.75,37,208.07
903,E4,233.5,0.5,43,208.07
904,F4,234.0,0.25,43,208.07
905,G#2,234.0,1.0,35,208.07
906,F4,234.5,0.25,50,208.07
907,F4,235.0,0.25,53,208.07
908,B3,235.0,0.75,35,208.07
909,G#3,235.0,0.75,35,208.07
910,D3,235.0,0.75,35,208.07
911,F4,235.5,0.25,56,208.07
912,F4,236.0,0.25,46,208.07
913,D3,236.0,0.75,35,208.07
914,G#3,236.0,0.75,35,208.07
915,B3,236.0,0.75,35,208.07
916,F4,236.5,0.25,43,208.07
917,E-4,237.0,0.5,48,208.07
918,G#2,237.0,1.0,38,208.07
919,G#4,237.5,0.5,48,208.07
920,C5,238.0,0.5,45,208.07
921,C4,238.0,0.75,28,208.07
922,G#3,238.0,0.75,28,208.07
923,E-3,238.0,0.75,28,208.07
924,E-5,238.5,0.5,61,208.07
925,G#5,239.0,0.5,52,208.07
926,C4,239.0,0.75,41,208.07
927,G#3,239.0,0.75,41,208.07
928,E-3,239.0,0.75,41,208.07
929,E5,239.5,0.5,45,208.07
930,F5,240.0,0.25,50,208.07
931,D3,240.0,1.0,32,208.07
932,F5,240.5,0.25,45,208.07
933,F5,241.0,0.25,60,208.07
934,F4,241.0,0.75,25,208.07
935,B3,241.0,0.75,25,208.07
936,G#3,241.0,0.75,25,208.07
937,F5,241.5,0.25,65,208.07
938,F5,242.0,0.25,66,208.07
939,F4,242.0,0.75,31,208.07
940,B3,242.0,0.75,31,208.07
941,G#3,242.0,0.75,31,208.07
942,F5,242.5,0.25,51,208.07
943,F5,243.0,333/1000,70,208.07
944,E-3,243.0,3.0,33,208.07
945,G5,243.333,333/1000,55,208.07
946,F5,243.667,333/1000,48,208.07
947,E-5,244.0,0.5,55,208.07
948,C4,244.0,0.75,25,208.07
949,E-4,244.0,0.75,25,208.07
950,G#3,244.0,0.75,25,208.07
951,G#5,244.5,0.5,51,208.07
952,C6,245.0,0.5,46,208.07
953,C4,245.0,0.5,33,208.07
954,E-4,245.0,0.5,33,208.07
955,G#3,245.0,0.5,33,208.07
956,F6,246.0,1.0,55,208.07
957,E-3,246.0,3.0,44,208.07
958,E-6,247.0,0.5,42,208.07
959,C#4,247.0,0.75,25,208.07
960,E-4,247.0,0.75,25,208.07
961,G4,247.0,0.75,25,208.07
962,C#6,247.5,0.5,39,208.07
963,G5,248.0,0.5,47,208.07
964,C#4,248.0,0.5,25,208.07
965,E-4,248.0,0.5,25,208.07
966,G4,248.0,0.5,25,208.07
967,G#5,249.0,2.0,57,208.07
968,G#2,249.0,1.0,17,208.07
969,E-3,250.0,1.0,24,208.07
970,C4,250.0,1.0,24,208.07
971,G#4,251.0,1.0,55,208.07
972,G#2,252.0,0.5,34,208.07
973,E-5,252.0,1021/500,62,208.07
974,F#5,252.0,1021/500,62,208.07
975,C4,253.0,521/500,44,208.07
976,E-3,253.0,521/500,44,208.07
977,B4,254.0,1.0,48,208.07
978,D5,254.0,1.0,48,208.07
979,F#4,254.0,1.0,37,208.07
980,G#3,254.0,1.0,37,208.07
981,G#2,255.0,0.5,37,208.07
982,C5,255.0,0.5,48,208.07
983,E-5,255.0,0.5,48,208.07
984,B4,255.0,21/500,48,208.07
985,D5,255.0,21/500,48,208.07
986,G#4,256.0,0.25,50,208.07
987,C4,256.0,521/500,29,208.07
988,E-3,256.0,521/500,29,208.07
989,G#4,256.5,0.25,42,208.07
990,G#4,257.0,1.0,56,208.07
991,F#4,257.0,1.0,29,208.07
992,G#3,257.0,1.0,29,208.07
993,C#3,258.0,0.5,37,208.07
994,F#5,258.0,1021/500,60,208.07
995,B-5,258.0,1021/500,60,208.07
996,F3,259.0,521/500,34,208.07
997,C#4,259.0,521/500,34,208.07
998,E5,260.0,1.0,48,208.07
999,G5,260.0,1.0,48,208.07
1000,F4,260.0,1.0,41,208.07
1001,G#3,260.0,1.0,41,208.07
1002,C#3,261.0,0.5,31,208.07
1003,F5,261.0,0.5,49,208.07
1004,G#5,261.0,0.5,49,208.07
1005,E5,261.0,21/500,48,208.07
1006,G5,261.0,21/500,48,208.07
1007,G#4,262.0,0.25,49,208.07
1008,C#4,262.0,521/500,26,208.07
1009,F3,262.0,521/500,26,208.07
1010,G#4,262.5,0.25,42,208.07
1011,G#4,263.0,1.0,55,208.07
1012,F4,263.0,1.0,32,208.07
1013,G#3,263.0,1.0,32,208.07
1014,G#2,264.0,0.5,40,208.07
1015,E-5,264.0,1021/500,58,208.07
1016,F#5,264.0,1021/500,58,208.07
1017,C4,265.0,521/500,35,208.07
1018,E-3,265.0,521/500,35,208.07
1019,B4,266.0,1.0,44,208.07
1020,D5,266.0,1.0,44,208.07
1021,F#4,266.0,1.0,41,208.07
1022,G#3,266.0,1.0,41,208.07
1023,G#2,267.0,0.5,37,208.07
1024,C5,267.0,0.5,48,208.07
1025,E-5,267.0,0.5,48,208.07
1026,B4,267.0,21/500,44,208.07
1027,D5,267.0,21/500,44,208.07
1028,G#4,268.0,0.25,51,208.07
1029,C4,268.0,521/500,25,208.07
1030,E-3,268.0,521/500,25,208.07
1031,G#4,268.5,0.25,43,208.07
1032,G#4,269.0,1.0,52,208.07
1033,G#3,269.0,1.0,37,208.07
1034,F#4,269.0,1.0,37,208.07
1035,C#3,270.0,3.0,35,208.07
1036,B-4,270.0,1.0,53,208.07
1037,F#5,270.0,1.0,53,208.07
1038,G#3,271.0,1.0,37,208.07
1039,G#4,271.0,1.0,45,208.07
1040,F5,271.0,1.0,45,208.07
1041,C4,272.0,1.0,18,208.07
1042,F#4,272.0,1.0,49,208.07
1043,E-5,272.0,1.0,49,208.07
1044,F4,273.0,0.5,47,208.07
1045,C#5,273.0,0.5,47,208.07
1046,C#4,273.0,0.5,29,208.07
1047,C#3,273.0,0.5,29,208.07
1048,G#4,274.0,0.25,40,208.07
1049,F3,274.0,521/500,36,208.07
1050,C#4,274.0,521/500,36,208.07
1051,G#4,274.5,0.25,36,208.07
1052,G#4,275.0,1.0,40,208.07
1053,F4,275.0,1.0,36,208.07
1054,G#3,275.0,1.0,36,208.07
1055,G#2,276.0,0.5,36,208.07
1056,E-5,276.0,1021/500,47,208.07
1057,F#5,276.0,1021/500,47,208.07
1058,C4,277.0,521/500,31,208.07
1059,E-3,277.0,521/500,31,208.07
1060,B4,278.0,1.0,42,208.07
1061,D5,278.0,1.0,42,208.07
1062,F#4,278.0,1.0,39,208.07
1063,G#3,278.0,1.0,39,208.07
1064,G#2,279.0,0.5,40,208.07
1065,C5,279.0,0.5,42,208.07
1066,E-5,279.0,0.5,42,208.07
1067,B4,279.0,21/500,42,208.07
1068,D5,279.0,21/500,42,208.07
1069,G#4,280.0,0.25,44,208.07
1070,C4,280.0,521/500,36,208.07
1071,E-3,280.0,521/500,36,208.07
1072,G#4,280.5,0.25,39,208.07
1073,G#4,281.0,1.0,53,208.07
1074,F#4,281.0,1.0,32,208.07
1075,G#3,281.0,1.0,32,208.07
1076,C#2,282.0,0.5,45,208.07
1077,F#5,282.0,1021/500,64,208.07
1078,B-5,282.0,1021/500,64,208.07
1079,F3,283.0,521/500,30,208.07
1080,C#4,283.0,521/500,30,208.07
1081,E5,284.0,1.0,52,208.07
1082,G5,284.0,1.0,52,208.07
1083,F4,284.0,1.0,53,208.07
1084,G#3,284.0,1.0,53,208.07
1085,C#3,285.0,0.5,32,208.07
1086,F5,285.0,0.5,52,208.07
1087,G#5,285.0,0.5,52,208.07
1088,E5,285.0,21/500,52,208.07
1089,G5,285.0,21/500,52,208.07
1090,G#4,286.0,0.25,45,208.07
1091,C#4,286.0,521/500,44,208.07
1092,F3,286.0,521/500,44,208.07
1093,G#4,286.5,0.25,36,208.07
1094,G#4,287.0,1.0,55,208.07
1095,F4,287.0,1.0,39,208.07
1096,G#3,287.0,1.0,39,208.07
1097,G#5,288.0,0.5,63,208.07
1098,F#2,288.0,0.5,38,208.07
1099,B-4,289.0,1.0,63,208.07
1100,D4,289.0,521/500,43,208.07
1101,F#3,289.0,521/500,43,208.07
1102,G#5,289.5,0.5,49,208.07
1103,F#5,290.0,1.0,56,208.07
1104,E-5,290.0,1.0,56,208.07
1105,E-4,290.0,1.0,37,208.07
1106,B-3,290.0,1.0,37,208.07
1107,F#5,291.0,1.5,56,208.07
1108,E-5,291.0,1.0,56,208.07
1109,G#2,291.0,0.5,37,208.07
1110,G#4,292.0,1.0,53,208.07
1111,C4,292.0,521/500,30,208.07
1112,F3,292.0,521/500,30,208.07
1113,F#5,292.5,0.5,46,208.07
1114,C#5,293.0,1.0,50,208.07
1115,F5,293.0,1.0,50,208.07
1116,C#4,293.0,1.0,46,208.07
1117,G#3,293.0,1.0,46,208.07
1118,C#5,294.0,1.0,50,208.07
1119,F5,294.0,1.5,50,208.07
1120,G#2,294.0,0.5,33,208.07
1121,F#4,295.0,1.0,40,208.07
1122,C4,295.0,1.0,30,208.07
1123,G#3,295.0,1.0,30,208.07
1124,E-3,295.0,1.0,30,208.07
1125,F5,295.5,0.5,40,208.07
1126,F#4,296.0,1.0,38,208.07
1127,E-5,296.0,1.0,38,208.07
1128,C4,296.0,1.0,36,208.07
1129,G#3,296.0,1.0,36,208.07
1130,E-3,296.0,1.0,36,208.07
1131,F4,297.0,1.0,36,208.07
1132,C#5,297.0,1.0,36,208.07
1133,C#4,297.0,1.0,45,208.07
1134,G#3,297.0,1.0,45,208.07
1135,C#3,297.0,1.0,45,208.07
1136,G#4,298.0,0.25,43,208.07
1137,G#4,298.5,0.25,35,208.07
1138,G#4,299.0,1.0,43,208.07
1139,G#2,300.0,0.5,47,208.07
1140,E-5,300.0,1021/500,48,208.07
1141,F#5,300.0,1021/500,48,208.07
1142,C4,301.0,521/500,44,208.07
1143,E-3,301.0,521/500,44,208.07
1144,B4,302.0,1.0,45,208.07
1145,D5,302.0,1.0,45,208.07
1146,F#4,302.0,1.0,49,208.07
1147,G#3,302.0,1.0,49,208.07
1148,G#2,303.0,0.5,42,208.07
1149,C5,303.0,0.5,45,208.07
1150,E-5,303.0,0.5,45,208.07
1151,B4,303.0,21/500,45,208.07
1152,D5,303.0,21/500,45,208.07
1153,G#4,304.0,0.25,47,208.07
1154,C4,304.0,521/500,39,208.07
1155,E-3,304.0,521/500,39,208.07
1156,G#4,304.5,0.25,42,208.07
1157,G#4,305.0,1.0,56,208.07
1158,F#4,305.0,1.0,39,208.07
1159,G#3,305.0,1.0,39,208.07
1160,C#3,306.0,0.5,51,208.07
1161,F#5,306.0,1021/500,60,208.07
1162,B-5,306.0,1021/500,60,208.07
1163,F3,307.0,521/500,45,208.07
1164,C#4,307.0,521/500,45,208.07
1165,E5,308.0,1.0,48,208.07
1166,G5,308.0,1.0,48,208.07
1167,F4,308.0,1.0,50,208.07
1168,G#3,308.0,1.0,50,208.07
1169,C#3,309.0,0.5,52,208.07
1170,F5,309.0,0.5,49,208.07
1171,G#5,309.0,0.5,49,208.07
1172,E5,309.0,21/500,48,208.07
1173,G5,309.0,21/500,48,208.07
1174,G#4,310.0,0.25,47,208.07
1175,C#4,310.0,521/500,37,208.07
1176,F3,310.0,521/500,37,208.07
1177,G#4,310.5,0.25,40,208.07
1178,G#4,311.0,1.0,55,208.07
1179,F4,311.0,1.0,34,208.07
1180,G#3,311.0,1.0,34,208.07
1181,G#2,312.0,0.5,45,208.07
1182,E-5,312.0,1021/500,58,208.07
1183,F#5,312.0,1021/500,58,208.07
1184,C4,313.0,521/500,34,208.07
1185,E-3,313.0,521/500,34,208.07
1186,B4,314.0,1.0,44,208.07
1187,D5,314.0,1.0,44,208.07
1188,F#4,314.0,1.0,41,208.07
1189,G#3,314.0,1.0,41,208.07
1190,G#2,315.0,0.5,43,208.07
1191,C5,315.0,0.5,48,208.07
1192,E-5,315.0,0.5,48,208.07
1193,B4,315.0,21/500,44,208.07
1194,D5,315.0,21/500,44,208.07
1195,G#4,316.0,0.25,44,208.07
1196,C4,316.0,521/500,28,208.07
1197,E-3,316.0,521/500,28,208.07
1198,G#4,316.5,0.25,39,208.07
1199,G#4,317.0,1.0,52,208.07
1200,G#3,317.0,1.0,43,208.07
1201,F#4,317.0,1.0,43,208.07
1202,C#3,318.0,3.0,44,208.07
1203,B-4,318.0,1.0,53,208.07
1204,F#5,318.0,1.0,53,208.07
1205,G#3,319.0,1.0,40,208.07
1206,G#4,319.0,1.0,46,208.07
1207,F5,319.0,1.0,46,208.07
1208,C4,320.0,1.0,28,208.07
1209,F#4,320.0,1.0,49,208.07
1210,E-5,320.0,1.0,49,208.07
1211,F4,321.0,0.5,47,208.07
1212,C#5,321.0,0.5,47,208.07
1213,C#4,321.0,0.5,29,208.07
1214,C#3,321.0,0.5,29,208.07
1215,G#4,322.0,0.25,40,208.07
1216,F3,322.0,1.0,35,208.07
1217,C#4,322.0,1.0,35,208.07
1218,G#4,322.5,0.25,33,208.07
1219,G#4,323.0,1.0,40,208.07
1220,F4,323.0,1.0,35,208.07
1221,G#3,323.0,1.0,35,208.07
1222,G#2,324.0,0.5,35,208.07
1223,E-5,324.0,1021/500,47,208.07
1224,F#5,324.0,1021/500,47,208.07
1225,C4,325.0,521/500,38,208.07
1226,E-3,325.0,521/500,38,208.07
1227,B4,326.0,1.0,42,208.07
1228,D5,326.0,1.0,42,208.07
1229,F#4,326.0,1.0,40,208.07
1230,G#3,326.0,1.0,40,208.07
1231,G#2,327.0,0.5,61,208.07
1232,C5,327.0,0.5,42,208.07
1233,E-5,327.0,0.5,42,208.07
1234,B4,327.0,21/500,42,208.07
1235,D5,327.0,21/500,42,208.07
1236,G#4,328.0,0.25,37,208.07
1237,C4,328.0,521/500,49,208.07
1238,E-3,328.0,521/500,49,208.07
1239,G#4,328.5,0.25,29,208.07
1240,G#4,329.0,1.0,53,208.07
1241,F#4,329.0,1.0,57,208.07
1242,G#3,329.0,1.0,57,208.07
1243,C#2,330.0,0.5,61,208.07
1244,F#5,330.0,1021/500,64,208.07
1245,B-5,330.0,1021/500,64,208.07
1246,F3,331.0,521/500,47,208.07
1247,C#4,331.0,521/500,47,208.07
1248,E5,332.0,1.0,52,208.07
1249,G5,332.0,1.0,52,208.07
1250,F4,332.0,1.0,57,208.07
1251,G#3,332.0,1.0,57,208.07
1252,C#3,333.0,0.5,53,208.07
1253,F5,333.0,0.5,52,208.07
1254,G#5,333.0,0.5,52,208.07
1255,E5,333.0,21/500,52,208.07
1256,G5,333.0,21/500,52,208.07
1257,G#4,334.0,0.25,45,208.07
1258,C#4,334.0,1.0,40,208.07
1259,F3,334.0,1.0,40,208.07
1260,G#4,334.5,0.25,41,208.07
1261,G#4,335.0,1.0,55,208.07
1262,F4,335.0,1.0,48,208.07
1263,G#3,335.0,1.0,48,208.07
1264,G#5,336.0,0.5,63,208.07
1265,F#2,336.0,0.5,49,208.07
1266,B-4,337.0,1.0,63,208.07
1267,D4,337.0,521/500,43,208.07
1268,F#3,337.0,521/500,43,208.07
1269,G#5,337.5,0.5,49,208.07
1270,F#5,338.0,1.0,56,208.07
1271,E-5,338.0,1.0,56,208.07
1272,E-4,338.0,1.0,48,208.07
1273,B-3,338.0,1.0,48,208.07
1274,F#5,339.0,1.5,56,208.07
1275,E-5,339.0,1.0,56,208.07
1276,G#2,339.0,0.5,42,208.07
1277,G#4,340.0,1.0,53,208.07
1278,C4,340.0,521/500,28,208.07
1279,F3,340.0,521/500,28,208.07
1280,F#5,340.5,0.5,46,208.07
1281,C#5,341.0,1.0,50,208.07
1282,F5,341.0,1.0,50,208.07
1283,C#4,341.0,1.0,41,208.07
1284,G#3,341.0,1.0,41,208.07
1285,C#5,342.0,1.0,50,208.07
1286,F5,342.0,1.5,50,208.07
1287,G#2,342.0,0.5,43,208.07
1288,F#4,343.0,1.0,40,208.07
1289,C4,343.0,1.0,29,208.07
1290,G#3,343.0,1.0,29,208.07
1291,E-3,343.0,1.0,29,208.07
1292,F5,343.5,0.5,40,208.07
1293,F#4,344.0,1.0,38,208.07
1294,E-5,344.0,1.0,38,208.07
1295,C4,344.0,1.0,46,208.07
1296,G#3,344.0,1.0,46,208.07
1297,E-3,344.0,1.0,46,208.07
1298,F4,345.0,1.0,36,208.07
1299,C#5,345.0,1.0,36,208.07
1300,C#4,345.0,1.0,46,208.07
1301,G#3,345.0,1.0,46,208.07
1302,C#3,345.0,1.0,46,208.07
1303,F4,347.0,0.5,77,208.07
1304,F5,347.0,0.5,77,208.07
1305,C#3,347.0,0.5,67,208.07
1306,G#3,347.0,0.5,67,208.07
1307,C#4,347.0,0.5,67,208.07
1308,F5,347.875,0.125,69,208.07
1309,G4,348.0,0.5,82,208.07
1310,E-5,348.0,0.5,82,208.07
1311,C#4,348.0,0.5,66,208.07
1312,B-3,348.0,0.5,66,208.07
1313,E-3,348.0,0.5,66,208.07
1314,G4,349.0,0.5,68,208.07
1315,F5,349.875,0.125,55,208.07
1316,G4,350.0,0.5,67,208.07
1317,E-5,350.0,0.5,67,208.07
1318,C#4,350.0,0.5,67,208.07
1319,B-3,350.0,0.5,67,208.07
1320,E-3,350.0,0.5,67,208.07
1321,G4,351.0,0.5,81,208.07
1322,C#4,351.0,0.5,66,208.07
1323,B-3,351.0,0.5,66,208.07
1324,E-3,351.0,0.5,66,208.07
1325,F5,351.875,0.125,59,208.07
1326,G4,352.0,0.5,69,208.07
1327,E-5,352.0,0.5,69,208.07
1328,G4,353.0,0.5,66,208.07
1329,C#4,353.0,0.5,52,208.07
1330,B-3,353.0,0.5,52,208.07
1331,E-3,353.0,0.5,52,208.07
1332,G#4,354.0,0.5,59,208.07
1333,G#2,354.0,1.0,36,208.07
1334,C5,354.5,0.5,47,208.07
1335,E-5,355.0,0.5,53,208.07
1336,C4,355.0,1.0,32,208.07
1337,G#3,355.0,1.0,32,208.07
1338,E-3,355.0,1.0,32,208.07
1339,G#5,355.5,0.5,53,208.07
1340,C6,356.0,0.5,59,208.07
1341,C4,356.0,0.5,37,208.07
1342,G#3,356.0,0.5,37,208.07
1343,E-3,356.0,0.5,37,208.07
1344,G#5,357.0,333/1000,63,208.07
1345,G#2,357.0,1.0,38,208.07
1346,B-5,357.333,333/1000,44,208.07
1347,G#5,357.667,333/1000,51,208.07
1348,F5,358.0,0.5,36,208.07
1349,D3,358.0,0.5,39,208.07
1350,B3,358.0,1.0,39,208.07
1351,G#3,358.0,1.0,39,208.07
1352,D5,358.5,0.5,58,208.07
1353,F3,358.5,0.5,29,208.07
1354,E-5,359.0,0.5,63,208.07
1355,E-3,359.0,0.5,50,208.07
1356,G#3,359.0,0.5,50,208.07
1357,C4,359.0,0.5,50,208.07
1358,F5,359.875,0.125,64,208.07
1359,G4,360.0,0.5,78,208.07
1360,E-5,360.0,0.5,78,208.07
1361,C#4,360.0,0.5,68,208.07
1362,B-3,360.0,0.5,68,208.07
1363,E-3,360.0,0.5,68,208.07
1364,G4,361.0,0.5,60,208.07
1365,F5,361.875,0.125,53,208.07
1366,G4,362.0,0.5,71,208.07
1367,E-5,362.0,0.5,71,208.07
1368,C#4,362.0,0.5,63,208.07
1369,B-3,362.0,0.5,63,208.07
1370,E-3,362.0,0.5,63,208.07
1371,G4,363.0,0.5,81,208.07
1372,C#4,363.0,0.5,61,208.07
1373,B-3,363.0,0.5,61,208.07
1374,E-3,363.0,0.5,61,208.07
1375,F5,363.875,0.125,51,208.07
1376,G4,364.0,0.5,72,208.07
1377,E-5,364.0,0.5,72,208.07
1378,G4,365.0,0.5,72,208.07
1379,C#4,365.0,0.5,45,208.07
1380,B-3,365.0,0.5,45,208.07
1381,E-3,365.0,0.5,45,208.07
1382,E-4,366.0,333/1000,64,208.07
1383,E-2,366.0,1.0,40,208.07
1384,F4,366.333,333/1000,52,208.07
1385,E-4,366.667,333/1000,60,208.07
1386,D4,367.0,0.5,44,208.07
1387,C#4,367.0,1.0,39,208.07
1388,G3,367.0,1.0,39,208.07
1389,E-4,367.5,0.5,54,208.07
1390,C5,368.0,0.5,58,208.07
1391,E-3,368.0,1.0,37,208.07
1392,C#4,368.0,1.0,37,208.07
1393,B-4,368.5,0.5,53,208.07
1394,G#4,369.0,0.125,48,208.07
1395,G#2,369.0,1.0,48,208.07
1396,B-4,369.125,0.125,41,208.07
1397,G#4,369.25,0.25,64,208.07
1398,G4,369.5,0.5,49,208.07
1399,G#4,370.0,0.5,71,208.07
1400,G#3,370.0,1.0,36,208.07
1401,C4,370.0,1.0,36,208.07
1402,B-4,370.5,0.5,66,208.07
1403,C5,371.0,0.5,77,208.07
1404,E-3,371.0,1.0,45,208.07
1405,C4,371.0,1.0,45,208.07
1406,C#5,371.5,0.375,56,208.07
1407,F5,371.875,0.125,69,208.07
1408,G4,372.0,0.5,85,208.07
1409,E-5,372.0,0.5,85,208.07
1410,C#4,372.0,0.5,65,208.07
1411,B-3,372.0,0.5,65,208.07
1412,E-3,372.0,0.5,65,208.07
1413,G4,373.0,0.5,63,208.07
1414,F5,373.875,0.125,57,208.07
1415,G4,374.0,0.5,70,208.07
1416,E-5,374.0,0.5,70,208.07
1417,C#4,374.0,0.5,64,208.07
1418,B-3,374.0,0.5,64,208.07
1419,E-3,374.0,0.5,64,208.07
1420,G4,375.0,0.5,86,208.07
1421,C#4,375.0,0.5,66,208.07
1422,B-3,375.0,0.5,66,208.07
1423,E-3,375.0,0.5,66,208.07
1424,F5,375.875,0.125,67,208.07
1425,G4,376.0,0.5,74,208.07
1426,E-5,376.0,0.5,74,208.07
1427,G4,377.0,0.5,65,208.07
1428,C#4,377.0,0.5,51,208.07
1429,B-3,377.0,0.5,51,208.07
1430,E-3,377.0,0.5,51,208.07
1431,G#4,378.0,0.5,57,208.07
1432,G#2,378.0,1.0,46,208.07
1433,C5,378.5,0.5,38,208.07
1434,E-5,379.0,0.5,43,208.07
1435,C4,379.0,1.0,35,208.07
1436,G#3,379.0,1.0,35,208.07
1437,E-3,379.0,1.0,35,208.07
1438,G#5,379.5,0.5,53,208.07
1439,C6,380.0,0.5,57,208.07
1440,C4,380.0,0.5,42,208.07
1441,G#3,380.0,0.5,42,208.07
1442,E-3,380.0,0.5,42,208.07
1443,G#5,381.0,333/1000,67,208.07
1444,G#2,381.0,1.0,49,208.07
1445,B-5,381.333,333/1000,52,208.07
1446,G#5,381.667,333/1000,58,208.07
1447,F5,382.0,0.5,64,208.07
1448,D3,382.0,0.5,44,208.07
1449,B3,382.0,1.0,44,208.07
1450,G#3,382.0,1.0,44,208.07
1451,D5,382.5,0.5,50,208.07
1452,F3,382.5,0.5,29,208.07
1453,E-5,383.0,0.5,68,208.07
1454,E-3,383.0,0.5,51,208.07
1455,G#3,383.0,0.5,51,208.07
1456,C4,383.0,0.5,51,208.07
1457,F5,383.875,0.125,67,208.07
1458,G4,384.0,0.5,81,208.07
1459,E-5,384.0,0.5,81,208.07
1460,C#4,384.0,0.5,61,208.07
1461,B-3,384.0,0.5,61,208.07
1462,E-3,384.0,0.5,61,208.07
1463,G4,385.0,0.5,72,208.07
1464,F5,385.875,0.125,67,208.07
1465,G4,386.0,0.5,72,208.07
1466,E-5,386.0,0.5,72,208.07
1467,C#4,386.0,0.5,63,208.07
1468,B-3,386.0,0.5,63,208.07
1469,E-3,386.0,0.5,63,208.07
1470,G4,387.0,0.5,86,208.07
1471,C#4,387.0,0.5,67,208.07
1472,B-3,387.0,0.5,67,208.07
1473,E-3,387.0,0.5,67,208.07
1474,F5,387.875,0.125,64,208.07
1475,G4,388.0,0.5,72,208.07
1476,E-5,388.0,0.5,72,208.07
1477,G4,389.0,0.5,63,208.07
1478,C#4,389.0,0.5,36,208.07
1479,B-3,389.0,0.5,36,208.07
1480,E-3,389.0,0.5,36,208.07
1481,G#4,390.0,0.125,45,208.07
1482,C4,390.0,1.0,45,208.07
1483,G#3,390.0,1.0,45,208.07
1484,B-4,390.125,0.125,37,208.07
1485,G#4,390.25,0.25,46,208.07
1486,G4,390.5,0.5,39,208.07
1487,G#4,391.0,0.5,58,208.07
1488,B-4,391.5,0.5,53,208.07
1489,C5,392.0,0.5,58,208.07
1490,C#5,392.5,0.5,54,208.07
1491,E-5,393.0,0.5,60,208.07
1492,F5,393.5,0.5,57,208.07
1493,F#5,394.0,0.5,67,208.07
1494,G5,394.5,0.5,59,208.07
1495,B-5,395.0,0.75,68,208.07
1496,G#5,395.75,0.25,47,208.07
1497,G#2,396.0,0.5,38,208.07
1498,E-5,396.0,1021/500,55,208.07
1499,F#5,396.0,1021/500,55,208.07
1500,C4,397.0,521/500,44,208.07
1501,E-3,397.0,521/500,44,208.07
1502,B4,398.0,1.0,48,208.07
1503,D5,398.0,1.0,48,208.07
1504,F#4,398.0,1.0,36,208.07
1505,G#3,398.0,1.0,36,208.07
1506,G#2,399.0,0.5,43,208.07
1507,C5,399.0,0.5,48,208.07
1508,E-5,399.0,0.5,48,208.07
1509,B4,399.0,21/500,48,208.07
1510,D5,399.0,21/500,48,208.07
1511,G#4,400.0,0.25,43,208.07
1512,C4,400.0,521/500,35,208.07
1513,E-3,400.0,521/500,35,208.07
1514,G#4,400.5,0.25,37,208.07
1515,G#4,401.0,1.0,56,208.07
1516,F#4,401.0,1.0,39,208.07
1517,G#3,401.0,1.0,39,208.07
1518,C#2,402.0,0.5,51,208.07
1519,F#5,402.0,1021/500,60,208.07
1520,B-5,402.0,1021/500,60,208.07
1521,F3,403.0,521/500,37,208.07
1522,C#4,403.0,521/500,37,208.07
1523,E5,404.0,1.0,48,208.07
1524,G5,404.0,1.0,48,208.07
1525,F4,404.0,1.0,45,208.07
1526,G#3,404.0,1.0,45,208.07
1527,C#3,405.0,0.5,37,208.07
1528,F5,405.0,0.5,49,208.07
1529,G#5,405.0,0.5,49,208.07
1530,E5,405.0,21/500,48,208.07
1531,G5,405.0,21/500,48,208.07
1532,G#4,406.0,0.25,42,208.07
1533,C#4,406.0,521/500,40,208.07
1534,F3,406.0,521/500,40,208.07
1535,G#4,406.5,0.25,35,208.07
1536,G#4,407.0,1.0,55,208.07
1537,F4,407.0,1.0,39,208.07
1538,G#3,407.0,1.0,39,208.07
1539,G#2,408.0,0.5,38,208.07
1540,E-5,408.0,1021/500,58,208.07
1541,F#5,408.0,1021/500,58,208.07
1542,C4,409.0,521/500,45,208.07
1543,E-3,409.0,521/500,45,208.07
1544,B4,410.0,1.0,44,208.07
1545,D5,410.0,1.0,44,208.07
1546,F#4,410.0,1.0,45,208.07
1547,G#3,410.0,1.0,45,208.07
1548,G#2,411.0,0.5,44,208.07
1549,C5,411.0,0.5,48,208.07
1550,E-5,411.0,0.5,48,208.07
1551,B4,411.0,21/500,44,208.07
1552,D5,411.0,21/500,44,208.07
1553,G#4,412.0,0.25,44,208.07
1554,C4,412.0,521/500,42,208.07
1555,E-3,412.0,521/500,42,208.07
1556,G#4,412.5,0.25,44,208.07
1557,G#4,413.0,1.0,52,208.07
1558,G#3,413.0,1.0,34,208.07
1559,F#4,413.0,1.0,34,208.07
1560,C#3,414.0,3.0,38,208.07
1561,B-4,414.0,1.0,53,208.07
1562,F#5,414.0,1.0,53,208.07
1563,G#3,415.0,1.0,46,208.07
1564,G#4,415.0,1.0,51,208.07
1565,F5,415.0,1.0,51,208.07
1566,C4,416.0,1.0,45,208.07
1567,F#4,416.0,1.0,49,208.07
1568,E-5,416.0,1.0,49,208.07
1569,F4,417.0,0.5,47,208.07
1570,C#5,417.0,0.5,47,208.07
1571,C#4,417.0,0.5,43,208.07
1572,C#3,417.0,0.5,43,208.07
1573,G#4,418.0,0.25,40,208.07
1574,F3,418.0,1.0,36,208.07
1575,C#4,418.0,1.0,36,208.07
1576,G#4,418.5,0.25,37,208.07
1577,G#4,419.0,1.0,40,208.07
1578,F4,419.0,1.0,36,208.07
1579,G#3,419.0,1.0,36,208.07
1580,G#2,420.0,0.5,33,208.07
1581,E-5,420.0,1021/500,47,208.07
1582,F#5,420.0,1021/500,47,208.07
1583,C4,421.0,521/500,38,208.07
1584,E-3,421.0,521/500,38,208.07
1585,B4,422.0,1.0,42,208.07
1586,D5,422.0,1.0,42,208.07
1587,F#4,422.0,1.0,35,208.07
1588,G#3,422.0,1.0,35,208.07
1589,G#2,423.0,0.5,43,208.07
1590,C5,423.0,0.5,42,208.07
1591,E-5,423.0,0.5,42,208.07
1592,B4,423.0,21/500,42,208.07
1593,D5,423.0,21/500,42,208.07
1594,G#4,424.0,0.25,37,208.07
1595,C4,424.0,521/500,35,208.07
1596,E-3,424.0,521/500,35,208.07
1597,G#4,424.5,0.25,35,208.07
1598,G#4,425.0,1.0,53,208.07
1599,F#4,425.0,1.0,39,208.07
1600,G#3,425.0,1.0,39,208.07
1601,C#2,426.0,0.5,48,208.07
1602,F#5,426.0,1021/500,64,208.07
1603,B-5,426.0,1021/500,64,208.07
1604,F3,427.0,521/500,38,208.07
1605,C#4,427.0,521/500,38,208.07
1606,E5,428.0,1.0,52,208.07
1607,G5,428.0,1.0,52,208.07
1608,F4,428.0,1.0,47,208.07
1609,G#3,428.0,1.0,47,208.07
1610,C#3,429.0,0.5,52,208.07
1611,F5,429.0,0.5,52,208.07
1612,G#5,429.0,0.5,52,208.07
1613,E5,429.0,21/500,52,208.07
1614,G5,429.0,21/500,52,208.07
1615,G#4,430.0,0.25,45,208.07
1616,C#4,430.0,521/500,40,208.07
1617,F3,430.0,521/500,40,208.07
1618,G#4,430.5,0.25,36,208.07
1619,G#4,431.0,1.0,55,208.07
1620,F4,431.0,1.0,39,208.07
1621,G#3,431.0,1.0,39,208.07
1622,G#5,432.0,0.5,63,208.07
1623,F#2,432.0,0.5,46,208.07
1624,B-4,433.0,1.0,63,208.07
1625,D4,433.0,521/500,37,208.07
1626,F#3,433.0,521/500,37,208.07
1627,G#5,433.5,0.5,49,208.07
1628,F#5,434.0,1.0,56,208.07
1629,E-5,434.0,1.0,56,208.07
1630,E-4,434.0,1.0,43,208.07
1631,B-3,434.0,1.0,43,208.07
1632,F#5,435.0,1.5,56,208.07
1633,E-5,435.0,1.0,56,208.07
1634,G#2,435.0,0.5,35,208.07
1635,G#4,436.0,1.0,53,208.07
1636,C4,436.0,521/500,40,208.07
1637,F3,436.0,521/500,40,208.07
1638,F#5,436.5,0.5,46,208.07
1639,C#5,437.0,1.0,50,208.07
1640,F5,437.0,1.0,50,208.07
1641,C#4,437.0,1.0,41,208.07
1642,G#3,437.0,1.0,41,208.07
1643,C#5,438.0,1.0,50,208.07
1644,F5,438.0,1.5,50,208.07
1645,G#2,438.0,0.5,33,208.07
1646,F#4,439.0,1.0,40,208.07
1647,C4,439.0,1.0,36,208.07
1648,G#3,439.0,1.0,36,208.07
1649,E-3,439.0,1.0,36,208.07
1650,F5,439.5,0.5,40,208.07
1651,F#4,440.0,1.0,38,208.07
1652,E-5,440.0,1.0,38,208.07
1653,C4,440.0,1.0,30,208.07
1654,G#3,440.0,1.0,30,208.07
1655,E-3,440.0,1.0,30,208.07
1656,F4,441.0,0.5,36,208.07
1657,C#5,441.0,0.5,36,208.07
1658,C#4,441.0,0.5,42,208.07
1659,G#3,441.0,0.5,42,208.07
1660,C#3,441.0,0.5,42,208.07
1661,C#4,442.0,0.25,52,208.07
1662,C#4,442.5,0.25,52,208.07
1663,C#4,443.0,1.0,52,208.07
1664,C#2,444.0,0.5,61,208.07
1665,F4,444.0,0.5,72,208.07
1666,G#4,444.0,0.5,72,208.07
1667,B3,445.0,1.0,43,208.07
1668,G#3,445.0,1.0,43,208.07
1669,C#3,445.0,1.0,43,208.07
1670,F4,446.0,0.5,69,208.07
1671,G#4,446.0,0.5,69,208.07
1672,C#3,446.0,1.0,51,208.07
1673,G#3,446.0,1.0,51,208.07
1674,B3,446.0,1.0,51,208.07
1675,G#4,447.0,0.125,66,208.07
1676,C#2,447.0,0.5,65,208.07
1677,B-4,447.125,0.125,66,208.07
1678,F4,447.25,0.25,72,208.07
1679,G#4,447.25,0.25,72,208.07
1680,B3,448.0,1.0,56,208.07
1681,G#3,448.0,1.0,56,208.07
1682,C#3,448.0,1.0,56,208.07
1683,E-4,448.5,0.5,60,208.07
1684,F#4,448.5,0.5,60,208.07
1685,F4,449.0,1.0,72,208.07
1686,G#4,449.0,1.0,72,208.07
1687,C#3,449.0,1.0,57,208.07
1688,G#3,449.0,1.0,57,208.07
1689,B3,449.0,1.0,57,208.07
1690,F#2,450.0,0.5,63,208.07
1691,F#4,450.0,0.5,76,208.07
1692,B-4,450.0,0.5,76,208.07
1693,B-3,451.0,1.0,45,208.07
1694,F#3,451.0,1.0,45,208.07
1695,C#3,451.0,1.0,45,208.07
1696,B-4,452.0,0.5,81,208.07
1697,C#5,452.0,0.5,81,208.07
1698,C#3,452.0,0.5,45,208.07
1699,F#3,452.0,0.5,45,208.07
1700,B-3,452.0,0.5,45,208.07
1701,F#2,453.0,0.5,55,208.07
1702,B-4,453.0,3.0,87,208.07
1703,F#5,453.0,3.0,87,208.07
1704,D3,454.0,1.0,41,208.07
1705,B-3,454.0,1.0,41,208.07
1706,E-3,455.0,1.0,46,208.07
1707,B-3,455.0,1.0,46,208.07
1708,G#2,456.0,0.5,35,208.07
1709,G#4,456.0,0.5,58,208.07
1710,F5,456.0,0.5,58,208.07
1711,C4,457.0,1.0,32,208.07
1712,G#3,457.0,1.0,32,208.07
1713,E-3,457.0,1.0,32,208.07
1714,E-5,457.5,0.25,54,208.07
1715,F#4,458.0,1.0,58,208.07
1716,E-5,458.0,1.0,58,208.07
1717,C4,458.0,1.0,37,208.07
1718,G#3,458.0,1.0,37,208.07
1719,E-3,458.0,1.0,37,208.07
1720,G#2,459.0,0.5,45,208.07
1721,G#4,459.0,0.5,60,208.07
1722,F5,459.0,0.5,60,208.07
1723,C4,460.0,1.0,38,208.07
1724,G#3,460.0,1.0,38,208.07
1725,E-3,460.0,1.0,38,208.07
1726,E-5,460.5,0.25,50,208.07
1727,F#4,461.0,1.0,56,208.07
1728,E-5,461.0,1.0,56,208.07
1729,E-3,461.0,1.0,38,208.07
1730,G#3,461.0,1.0,38,208.07
1731,C4,461.0,1.0,38,208.07
1732,G#2,462.0,0.5,49,208.07
1733,G#4,462.0,0.5,60,208.07
1734,F5,462.0,0.5,60,208.07
1735,C4,463.0,1.0,35,208.07
1736,G#3,463.0,1.0,35,208.07
1737,E-3,463.0,1.0,35,208.07
1738,E-5,463.5,0.25,51,208.07
1739,F#4,464.0,1.0,57,208.07
1740,E-5,464.0,1.0,57,208.07
1741,E-3,464.0,1.0,40,208.07
1742,G#3,464.0,1.0,40,208.07
1743,C4,464.0,1.0,40,208.07
1744,C#3,465.0,3.0,34,208.07
1745,E4,465.0,0.5,68,208.07
1746,C5,465.0,0.5,68,208.07
1747,C#4,466.0,1.0,38,208.07
1748,G#3,466.0,1.0,38,208.07
1749,C#5,466.5,0.25,56,208.07
1750,F4,467.0,1.0,62,208.07
1751,C#5,467.0,1.0,62,208.07
1752,C#4,467.0,1.0,35,208.07
1753,G#3,467.0,1.0,35,208.07
1754,C#3,468.0,0.5,60,208.07
1755,F5,468.0,0.5,86,208.07
1756,G#5,468.0,0.5,86,208.07
1757,B4,469.0,1.0,45,208.07
1758,G#4,469.0,1.0,45,208.07
1759,C#4,469.0,1.0,45,208.07
1760,G#5,469.5,0.25,72,208.07
1761,F5,469.5,0.25,72,208.07
1762,F5,470.0,1.0,80,208.07
1763,G#5,470.0,1.0,80,208.07
1764,C#4,470.0,1.0,54,208.07
1765,G#4,470.0,1.0,54,208.07
1766,B4,470.0,1.0,54,208.07
1767,G#5,471.0,0.125,77,208.07
1768,C#3,471.0,0.5,63,208.07
1769,B-5,471.125,0.125,78,208.07
1770,F5,471.25,0.25,86,208.07
1771,G#5,471.25,0.25,86,208.07
1772,C#4,472.0,1.0,45,208.07
1773,G#4,472.0,1.0,45,208.07
1774,B4,472.0,1.0,45,208.07
1775,E-5,472.5,0.5,80,208.07
1776,F#5,472.5,0.5,80,208.07
1777,F5,473.0,1.0,80,208.07
1778,G#5,473.0,1.0,80,208.07
1779,B4,473.0,1.0,48,208.07
1780,G#4,473.0,1.0,48,208.07
1781,C#4,473.0,1.0,48,208.07
1782,F#3,474.0,0.5,50,208.07
1783,B-5,474.0,0.5,88,208.07
1784,F#5,474.0,0.5,88,208.07
1785,B-4,475.0,1.0,49,208.07
1786,F#4,475.0,1.0,49,208.07
1787,C#4,475.0,1.0,49,208.07
1788,C#6,476.0,0.5,88,208.07
1789,B-5,476.0,0.5,88,208.07
1790,C#4,476.0,0.5,55,208.07
1791,F#4,476.0,0.5,55,208.07
1792,B-4,476.0,0.5,55,208.07
1793,F#3,477.0,0.5,46,208.07
1794,F#6,477.0,3.0,94,208.07
1795,B-5,477.0,3.0,94,208.07
1796,D4,478.0,1.0,43,208.07
1797,B-4,478.0,1.0,43,208.07
1798,E-4,479.0,1.0,43,208.07
1799,B-4,479.0,1.0,43,208.07
1800,G#3,480.0,0.5,49,208.07
1801,F6,480.0,0.5,58,208.07
1802,G#5,480.0,0.5,58,208.07
1803,E-4,481.0,1.0,42,208.07
1804,G#4,481.0,1.0,42,208.07
1805,C5,481.0,1.0,42,208.07
1806,E-6,481.5,0.25,48,208.07
1807,F#5,482.0,1.0,56,208.07
1808,E-6,482.0,1.0,56,208.07
1809,C5,482.0,1.0,36,208.07
1810,G#4,482.0,1.0,36,208.07
1811,E-4,482.0,1.0,36,208.07
1812,G#3,483.0,0.5,44,208.07
1813,F6,483.0,0.5,59,208.07
1814,G#5,483.0,0.5,59,208.07
1815,C5,484.0,1.0,36,208.07
1816,G#4,484.0,1.0,36,208.07
1817,E-4,484.0,1.0,36,208.07
1818,E-6,484.5,0.25,55,208.07
1819,F#5,485.0,1.0,55,208.07
1820,E-6,485.0,1.0,55,208.07
1821,E-4,485.0,1.0,36,208.07
1822,G#4,485.0,1.0,36,208.07
1823,C5,485.0,1.0,36,208.07
1824,G#3,486.0,0.5,43,208.07
1825,G#5,486.0,0.5,59,208.07
1826,F6,486.0,0.5,59,208.07
1827,C5,487.0,1.0,32,208.07
1828,G#4,487.0,1.0,32,208.07
1829,E-4,487.0,1.0,32,208.07
1830,E-6,487.5,0.25,50,208.07
1831,F#5,488.0,1.0,55,208.07
1832,E-6,488.0,1.0,55,208.07
1833,E-4,488.0,1.0,38,208.07
1834,G#4,488.0,1.0,38,208.07
1835,C5,488.0,1.0,38,208.07
1836,C#6,489.0,1.0,59,208.07
1837,F5,489.0,1.0,59,208.07
1838,C#4,489.0,1.0,38,208.07
1839,G#4,489.0,1.0,38,208.07
1840,C#5,489.0,1.0,38,208.07
1841,C#4,491.0,1.0,67,208.07
1842,C#2,492.0,0.5,59,208.07
1843,F4,492.0,0.5,72,208.07
1844,G#4,492.0,0.5,72,208.07
1845,B3,493.0,1.0,49,208.07
1846,G#3,493.0,1.0,49,208.07
1847,C#3,493.0,1.0,49,208.07
1848,F4,494.0,0.5,69,208.07
1849,G#4,494.0,0.5,69,208.07
1850,C#3,494.0,0.5,55,208.07
1851,G#3,494.0,0.5,55,208.07
1852,B3,494.0,0.5,55,208.07
1853,G#4,495.0,0.125,66,208.07
1854,C#2,495.0,0.5,58,208.07
1855,B-4,495.125,0.125,66,208.07
1856,F4,495.25,0.25,72,208.07
1857,G#4,495.25,0.25,72,208.07
1858,B3,496.0,1.0,50,208.07
1859,G#3,496.0,1.0,50,208.07
1860,C#3,496.0,1.0,50,208.07
1861,E-4,496.5,0.5,68,208.07
1862,F#4,496.5,0.5,68,208.07
1863,F4,497.0,1.0,72,208.07
1864,G#4,497.0,1.0,72,208.07
1865,C#3,497.0,1.0,54,208.07
1866,G#3,497.0,1.0,54,208.07
1867,B3,497.0,1.0,54,208.07
1868,F#2,498.0,0.5,54,208.07
1869,F#4,498.0,0.5,76,208.07
1870,B-4,498.0,0.5,76,208.07
1871,B-3,499.0,1.0,51,208.07
1872,F#3,499.0,1.0,51,208.07
1873,C#3,499.0,1.0,51,208.07
1874,B-4,500.0,0.5,81,208.07
1875,C#5,500.0,0.5,81,208.07
1876,C#3,500.0,0.5,54,208.07
1877,F#3,500.0,0.5,54,208.07
1878,B-3,500.0,0.5,54,208.07
1879,F#2,501.0,0.5,63,208.07
1880,B-4,501.0,3.0,87,208.07
1881,F#5,501.0,3.0,87,208.07
1882,D3,502.0,1.0,51,208.07
1883,B-3,502.0,1.0,51,208.07
1884,E-3,503.0,1.0,54,208.07
1885,B-3,503.0,1.0,54,208.07
1886,G#2,504.0,0.5,45,208.07
1887,G#4,504.0,0.5,61,208.07
1888,F5,504.0,0.5,61,208.07
1889,C4,505.0,1.0,34,208.07
1890,G#3,505.0,1.0,34,208.07
1891,E-3,505.0,1.0,34,208.07
1892,E-5,505.5,0.25,52,208.07
1893,F#4,506.0,1.0,56,208.07
1894,E-5,506.0,1.0,56,208.07
1895,C4,506.0,1.0,37,208.07
1896,G#3,506.0,1.0,37,208.07
1897,E-3,506.0,1.0,37,208.07
1898,G#2,507.0,0.5,45,208.07
1899,G#4,507.0,0.5,60,208.07
1900,F5,507.0,0.5,60,208.07
1901,C4,508.0,1.0,34,208.07
1902,G#3,508.0,1.0,34,208.07
1903,E-3,508.0,1.0,34,208.07
1904,E-5,508.5,0.25,52,208.07
1905,F#4,509.0,1.0,56,208.07
1906,E-5,509.0,1.0,56,208.07
1907,E-3,509.0,1.0,38,208.07
1908,G#3,509.0,1.0,38,208.07
1909,C4,509.0,1.0,38,208.07
1910,G#2,510.0,0.5,49,208.07
1911,G#4,510.0,0.5,60,208.07
1912,F5,510.0,0.5,60,208.07
1913,C4,511.0,1.0,36,208.07
1914,G#3,511.0,1.0,36,208.07
1915,E-3,511.0,1.0,36,208.07
1916,E-5,511.5,0.25,55,208.07
1917,F#4,512.0,1.0,57,208.07
1918,E-5,512.0,1.0,57,208.07
1919,E-3,512.0,1.0,40,208.07
1920,G#3,512.0,1.0,40,208.07
1921,C4,512.0,1.0,40,208.07
1922,C#3,513.0,3.0,52,208.07
1923,E4,513.0,0.5,68,208.07
1924,C5,513.0,0.5,68,208.07
1925,C#4,514.0,1.0,45,208.07
1926,G#3,514.0,1.0,45,208.07
1927,C#5,514.5,0.25,58,208.07
1928,F4,515.0,1.0,62,208.07
1929,C#5,515.0,1.0,62,208.07
1930,C#4,515.0,1.0,45,208.07
1931,G#3,515.0,1.0,45,208.07
1932,C#3,516.0,0.5,60,208.07
1933,F5,516.0,0.5,86,208.07
1934,G#5,516.0,0.5,86,208.07
1935,B4,517.0,1.0,50,208.07
1936,G#4,517.0,1.0,50,208.07
1937,C#4,517.0,1.0,50,208.07
1938,G#5,517.5,0.25,80,208.07
1939,F5,517.5,0.25,80,208.07
1940,F5,518.0,1.0,80,208.07
1941,G#5,518.0,1.0,80,208.07
1942,C#4,518.0,1.0,56,208.07
1943,G#4,518.0,1.0,56,208.07
1944,B4,518.0,1.0,56,208.07
1945,G#5,519.0,0.125,77,208.07
1946,C#3,519.0,0.5,60,208.07
1947,B-5,519.125,0.125,78,208.07
1948,F5,519.25,0.25,86,208.07
1949,G#5,519.25,0.25,86,208.07
1950,C#4,520.0,1.0,47,208.07
1951,G#4,520.0,1.0,47,208.07
1952,B4,520.0,1.0,47,208.07
1953,E-5,520.5,0.5,75,208.07
1954,F#5,520.5,0.5,75,208.07
1955,F5,521.0,1.0,80,208.07
1956,G#5,521.0,1.0,80,208.07
1957,B4,521.0,1.0,53,208.07
1958,G#4,521.0,1.0,53,208.07
1959,C#4,521.0,1.0,53,208.07
1960,F#3,522.0,0.5,60,208.07
1961,B-5,522.0,0.5,88,208.07
1962,F#5,522.0,0.5,88,208.07
1963,B-4,523.0,1.0,56,208.07
1964,F#4,523.0,1.0,56,208.07
1965,C#4,523.0,1.0,56,208.07
1966,C#6,524.0,0.5,92,208.07
1967,B-5,524.0,0.5,92,208.07
1968,C#4,524.0,0.5,60,208.07
1969,F#4,524.0,0.5,60,208.07
1970,B-4,524.0,0.5,60,208.07
1971,F#3,525.0,0.5,67,208.07
1972,F#6,525.0,3.0,101,208.07
1973,B-5,525.0,3.0,101,208.07
1974,D4,526.0,1.0,61,208.07
1975,B-4,526.0,1.0,61,208.07
1976,E-4,527.0,1.0,62,208.07
1977,B-4,527.0,1.0,62,208.07
1978,G#3,528.0,0.5,45,208.07
1979,F6,528.0,0.5,59,208.07
1980,G#5,528.0,0.5,59,208.07
1981,E-4,529.0,1.0,35,208.07
1982,G#4,529.0,1.0,35,208.07
1983,C5,529.0,1.0,35,208.07
1984,E-6,529.5,0.25,56,208.07
1985,F#5,530.0,1.0,56,208.07
1986,E-6,530.0,1.0,56,208.07
1987,C5,530.0,1.0,38,208.07
1988,G#4,530.0,1.0,38,208.07
1989,E-4,530.0,1.0,38,208.07
1990,G#3,531.0,0.5,44,208.07
1991,F6,531.0,0.5,59,208.07
1992,G#5,531.0,0.5,59,208.07
1993,C5,532.0,1.0,35,208.07
1994,G#4,532.0,1.0,35,208.07
1995,E-4,532.0,1.0,35,208.07
1996,E-6,532.5,0.25,51,208.07
1997,F#5,533.0,1.0,55,208.07
1998,E-6,533.0,1.0,55,208.07
1999,E-4,533.0,1.0,36,208.07
2000,G#4,533.0,1.0,36,208.07
2001,C5,533.0,1.0,36,208.07
2002,G#3,534.0,0.5,46,208.07
2003,G#5,534.0,0.5,59,208.07
2004,F6,534.0,0.5,59,208.07
2005,C5,535.0,1.0,36,208.07
2006,G#4,535.0,1.0,36,208.07
2007,E-4,535.0,1.0,36,208.07
2008,E-6,535.5,0.25,52,208.07
2009,F#5,536.0,1.0,55,208.07
2010,E-6,536.0,1.0,55,208.07
2011,E-4,536.0,1.0,38,208.07
2012,G#4,536.0,1.0,38,208.07
2013,C5,536.0,1.0,38,208.07
2014,C#6,537.0,1.0,59,208.07
2015,F5,537.0,1.0,59,208.07
2016,C#4,537.0,1.0,45,208.07
2017,G#4,537.0,1.0,45,208.07
2018,C#5,537.0,1.0,45,208.07
2019,F5,539.0,427/500,50,208.07
2020,F5,539.875,0.125,45,208.07
2021,F#5,540.0,0.5,52,208.07
2022,B-2,540.0,0.5,50,208.07
2023,F#5,540.875,0.125,41,208.07
2024,E5,541.0,0.5,46,208.07
2025,C#4,541.0,0.5,42,208.07
2026,F3,541.0,0.5,42,208.07
2027,E5,541.875,0.125,43,208.07
2028,F5,542.0,0.5,50,208.07
2029,C#4,542.0,0.5,46,208.07
2030,F3,542.0,0.5,46,208.07
2031,F5,542.875,0.125,46,208.07
2032,F#5,543.0,0.5,53,208.07
2033,A2,543.0,0.5,50,208.07
2034,F#5,543.875,0.125,44,208.07
2035,E5,544.0,0.5,50,208.07
2036,F3,544.0,0.5,45,208.07
2037,E-4,544.0,0.5,45,208.07
2038,C4,544.0,0.5,45,208.07
2039,E5,544.875,0.125,45,208.07
2040,F5,545.0,0.5,50,208.07
2041,E-4,545.0,0.5,39,208.07
2042,C4,545.0,0.5,39,208.07
2043,F3,545.0,0.5,39,208.07
2044,F5,545.875,0.125,50,208.07
2045,C#6,546.0,0.5,57,208.07
2046,B-2,546.0,0.5,50,208.07
2047,C#6,546.875,0.125,50,208.07
2048,C6,547.0,0.5,59,208.07
2049,C#4,547.0,0.5,47,208.07
2050,B-3,547.0,0.5,47,208.07
2051,F3,547.0,0.5,47,208.07
2052,C6,547.875,0.125,56,208.07
2053,B5,548.0,0.5,66,208.07
2054,C#4,548.0,0.5,53,208.07
2055,B-3,548.0,0.5,53,208.07
2056,F3,548.0,0.5,53,208.07
2057,B5,548.875,0.125,64,208.07
2058,B-5,549.0,0.5,75,208.07
2059,E-3,549.0,0.25,56,208.07
2060,B-5,549.875,0.125,63,208.07
2061,A5,550.0,0.5,73,208.07
2062,F#4,550.0,0.5,49,208.07
2063,C4,550.0,0.5,49,208.07
2064,B-3,550.0,0.5,49,208.07
2065,A5,550.875,0.125,63,208.07
2066,G#5,551.0,0.5,70,208.07
2067,F#4,551.0,0.5,50,208.07
2068,B-3,551.0,0.5,50,208.07
2069,C4,551.0,0.5,50,208.07
2070,G#5,551.875,0.125,58,208.07
2071,G5,552.0,0.5,67,208.07
2072,F3,552.0,0.5,56,208.07
2073,G5,552.875,0.125,54,208.07
2074,F#5,553.0,0.5,65,208.07
2075,F4,553.0,0.5,46,208.07
2076,C#4,553.0,0.5,46,208.07
2077,B-3,553.0,0.5,46,208.07
2078,F#5,553.875,0.125,51,208.07
2079,F5,554.0,0.5,63,208.07
2080,F4,554.0,0.5,50,208.07
2081,C#4,554.0,0.5,50,208.07
2082,B-3,554.0,0.5,50,208.07
2083,F5,554.875,0.125,49,208.07
2084,E5,555.0,0.5,60,208.07
2085,F3,555.0,0.5,50,208.07
2086,E5,555.875,0.125,46,208.07
2087,E-5,556.0,0.5,58,208.07
2088,E-4,556.0,0.5,46,208.07
2089,F4,556.0,0.5,46,208.07
2090,A3,556.0,0.5,46,208.07
2091,E-5,556.875,0.125,44,208.07
2092,C5,557.0,0.5,54,208.07
2093,F4,557.0,0.5,48,208.07
2094,E-4,557.0,0.5,48,208.07
2095,A3,557.0,0.5,48,208.07
2096,C5,557.875,0.125,44,208.07
2097,C#5,558.0,0.5,52,208.07
2098,B-2,558.0,0.25,50,208.07
2099,C#5,558.875,0.125,38,208.07
2100,A4,559.0,0.5,48,208.07
2101,C#4,559.0,0.5,47,208.07
2102,F3,559.0,0.5,47,208.07
2103,A4,559.875,0.125,39,208.07
2104,B-4,560.0,0.5,50,208.07
2105,C#4,560.0,0.5,47,208.07
2106,F3,560.0,0.5,47,208.07
2107,B-4,560.875,0.125,39,208.07
2108,C#5,561.0,0.5,50,208.07
2109,B-2,561.0,0.5,50,208.07
2110,C#5,561.875,0.125,39,208.07
2111,E-5,562.0,0.5,50,208.07
2112,C#4,562.0,0.5,47,208.07
2113,F3,562.0,0.5,47,208.07
2114,E-5,562.875,0.125,37,208.07
2115,E5,563.0,0.5,51,208.07
2116,C#4,563.0,0.5,47,208.07
2117,F3,563.0,0.5,47,208.07
2118,E5,563.875,0.125,40,208.07
2119,F#5,564.0,0.5,54,208.07
2120,B-2,564.0,0.5,53,208.07
2121,F#5,564.875,0.125,44,208.07
2122,E5,565.0,0.5,55,208.07
2123,C#4,565.0,0.5,49,208.07
2124,F3,565.0,0.5,49,208.07
2125,E5,565.875,0.125,44,208.07
2126,F5,566.0,0.5,58,208.07
2127,C#4,566.0,0.5,52,208.07
2128,F3,566.0,0.5,52,208.07
2129,F5,566.875,0.125,49,208.07
2130,F#5,567.0,0.5,62,208.07
2131,A2,567.0,0.5,55,208.07
2132,F#5,567.875,0.125,51,208.07
2133,E5,568.0,0.5,68,208.07
2134,E-4,568.0,0.5,54,208.07
2135,C4,568.0,0.5,54,208.07
2136,F3,568.0,0.5,54,208.07
2137,E5,568.875,0.125,54,208.07
2138,F5,569.0,0.5,73,208.07
2139,E-4,569.0,0.5,60,208.07
2140,C4,569.0,0.5,60,208.07
2141,F3,569.0,0.5,60,208.07
2142,F5,569.875,0.125,71,208.07
2143,F6,570.0,0.5,83,208.07
2144,B-2,570.0,0.5,68,208.07
2145,F6,570.875,0.125,68,208.07
2146,C#6,571.0,0.5,80,208.07
2147,C#4,571.0,0.5,62,208.07
2148,B-3,571.0,0.5,62,208.07
2149,F3,571.0,0.5,62,208.07
2150,C#6,571.875,0.125,63,208.07
2151,B-5,572.0,0.5,76,208.07
2152,C#4,572.0,0.5,56,208.07
2153,B-3,572.0,0.5,56,208.07
2154,F3,572.0,0.5,56,208.07
2155,B-5,572.875,0.125,57,208.07
2156,F#5,573.0,0.5,71,208.07
2157,E-3,573.0,0.5,60,208.07
2158,F#5,573.875,0.125,52,208.07
2159,E-5,574.0,0.5,66,208.07
2160,F#4,574.0,0.5,56,208.07
2161,C4,574.0,0.5,56,208.07
2162,B-3,574.0,0.5,56,208.07
2163,E-5,574.875,0.125,44,208.07
2164,C5,575.0,0.5,57,208.07
2165,F#4,575.0,0.5,57,208.07
2166,C4,575.0,0.5,57,208.07
2167,B-3,575.0,0.5,57,208.07
2168,F#5,575.875,0.125,41,208.07
2169,F5,576.0,0.5,55,208.07
2170,F3,576.0,0.5,56,208.07
2171,F5,576.875,0.125,42,208.07
2172,E5,577.0,0.5,53,208.07
2173,F4,577.0,0.5,52,208.07
2174,C#4,577.0,0.5,52,208.07
2175,B-3,577.0,0.5,52,208.07
2176,E5,577.875,0.125,42,208.07
2177,E-5,578.0,0.5,55,208.07
2178,F4,578.0,0.5,52,208.07
2179,C#4,578.0,0.5,52,208.07
2180,B-3,578.0,0.5,52,208.07
2181,E-5,578.875,0.125,43,208.07
2182,D5,579.0,0.5,56,208.07
2183,F3,579.0,0.5,53,208.07
2184,D5,579.875,0.125,44,208.07
2185,C#5,580.0,0.5,58,208.07
2186,F4,580.0,0.5,49,208.07
2187,E-4,580.0,0.5,49,208.07
2188,A3,580.0,0.5,49,208.07
2189,C#5,580.875,0.125,46,208.07
2190,C5,581.0,0.5,60,208.07
2191,E-4,581.0,0.5,53,208.07
2192,F4,581.0,0.5,53,208.07
2193,A3,581.0,0.5,53,208.07
2194,C5,581.875,0.125,46,208.07
2195,B4,582.0,0.5,62,208.07
2196,F4,582.0,1.0,58,208.07
2197,C#4,582.0,1.0,58,208.07
2198,B-3,582.0,1.0,58,208.07
2199,B4,582.875,0.125,49,208.07
2200,B-4,583.0,0.5,64,208.07
2201,B-4,583.875,0.125,48,208.07
2202,A4,584.0,0.5,66,208.07
2203,A4,584.875,0.125,47,208.07
2204,G#4,585.0,0.5,67,208.07
2205,G#4,585.875,0.125,51,208.07
2206,G4,586.0,0.5,69,208.07
2207,G4,586.875,0.125,55,208.07
2208,F#4,587.0,0.5,71,208.07
2209,C#2,588.0,0.5,54,208.07
2210,F4,588.0,0.5,72,208.07
2211,G#4,588.0,0.5,72,208.07
2212,B3,589.0,1.0,49,208.07
2213,G#3,589.0,1.0,49,208.07
2214,C#3,589.0,1.0,49,208.07
2215,F4,590.0,1.0,69,208.07
2216,G#4,590.0,1.0,69,208.07
2217,C#3,590.0,1.0,49,208.07
2218,G#3,590.0,1.0,49,208.07
2219,B3,590.0,1.0,49,208.07
2220,G#4,591.0,0.125,66,208.07
2221,C#2,591.0,0.5,54,208.07
2222,B-4,591.125,0.125,66,208.07
2223,F4,591.25,0.25,72,208.07
2224,G#4,591.25,0.25,72,208.07
2225,B3,592.0,1.0,50,208.07
2226,G#3,592.0,1.0,50,208.07
2227,C#3,592.0,1.0,50,208.07
2228,E-4,592.5,0.5,68,208.07
2229,F#4,592.5,0.5,68,208.07
2230,F4,593.0,1.0,72,208.07
2231,G#4,593.0,1.0,72,208.07
2232,C#3,593.0,1.0,50,208.07
2233,G#3,593.0,1.0,50,208.07
2234,B3,593.0,1.0,50,208.07
2235,F#2,594.0,0.5,54,208.07
2236,F#4,594.0,0.5,76,208.07
2237,B-4,594.0,0.5,76,208.07
2238,B-3,595.0,1.0,51,208.07
2239,F#3,595.0,1.0,51,208.07
2240,C#3,595.0,1.0,51,208.07
2241,B-4,596.0,0.5,81,208.07
2242,C#5,596.0,0.5,81,208.07
2243,C#3,596.0,0.5,54,208.07
2244,F#3,596.0,0.5,54,208.07
2245,B-3,596.0,0.5,54,208.07
2246,F#2,597.0,0.5,63,208.07
2247,B-4,597.0,3.0,87,208.07
2248,F#5,597.0,3.0,87,208.07
2249,D3,598.0,1.0,54,208.07
2250,B-3,598.0,1.0,54,208.07
2251,E-3,599.0,1.0,54,208.07
2252,B-3,599.0,1.0,54,208.07
2253,G#2,600.0,0.5,45,208.07
2254,G#4,600.0,0.5,61,208.07
2255,F5,600.0,0.5,61,208.07
2256,C4,601.0,1.0,36,208.07
2257,G#3,601.0,1.0,36,208.07
2258,E-3,601.0,1.0,36,208.07
2259,E-5,601.5,0.25,52,208.07
2260,F#4,602.0,1.0,56,208.07
2261,E-5,602.0,1.0,56,208.07
2262,C4,602.0,1.0,37,208.07
2263,G#3,602.0,1.0,37,208.07
2264,E-3,602.0,1.0,37,208.07
2265,G#2,603.0,0.5,45,208.07
2266,G#4,603.0,0.5,60,208.07
2267,F5,603.0,0.5,60,208.07
2268,C4,604.0,1.0,37,208.07
2269,G#3,604.0,1.0,37,208.07
2270,E-3,604.0,1.0,37,208.07
2271,E-5,604.5,0.25,53,208.07
2272,F#4,605.0,1.0,56,208.07
2273,E-5,605.0,1.0,56,208.07
2274,E-3,605.0,1.0,38,208.07
2275,G#3,605.0,1.0,38,208.07
2276,C4,605.0,1.0,38,208.07
2277,G#2,606.0,0.5,49,208.07
2278,G#4,606.0,0.5,60,208.07
2279,F5,606.0,0.5,60,208.07
2280,C4,607.0,1.0,39,208.07
2281,G#3,607.0,1.0,39,208.07
2282,E-3,607.0,1.0,39,208.07
2283,E-5,607.5,0.25,53,208.07
2284,F#4,608.0,1.0,57,208.07
2285,E-5,608.0,1.0,57,208.07
2286,E-3,608.0,1.0,40,208.07
2287,G#3,608.0,1.0,40,208.07
2288,C4,608.0,1.0,40,208.07
2289,C#3,609.0,3.0,52,208.07
2290,E4,609.0,0.5,68,208.07
2291,C5,609.0,0.5,68,208.07
2292,C#4,610.0,1.0,43,208.07
2293,G#3,610.0,1.0,43,208.07
2294,C#5,610.5,0.25,57,208.07
2295,F4,611.0,1.0,62,208.07
2296,C#5,611.0,1.0,62,208.07
2297,C#4,611.0,1.0,45,208.07
2298,G#3,611.0,1.0,45,208.07
2299,C#3,612.0,0.5,60,208.07
2300,F5,612.0,0.5,86,208.07
2301,G#5,612.0,0.5,86,208.07
2302,B4,613.0,1.0,54,208.07
2303,G#4,613.0,1.0,54,208.07
2304,C#4,613.0,1.0,54,208.07
2305,G#5,613.5,0.25,76,208.07
2306,F5,613.5,0.25,76,208.07
2307,F5,614.0,1.0,80,208.07
2308,G#5,614.0,1.0,80,208.07
2309,C#4,614.0,1.0,56,208.07
2310,G#4,614.0,1.0,56,208.07
2311,B4,614.0,1.0,56,208.07
2312,G#5,615.0,0.125,77,208.07
2313,C#3,615.0,0.5,60,208.07
2314,B-5,615.125,0.125,78,208.07
2315,F5,615.25,0.25,86,208.07
2316,G#5,615.25,0.25,86,208.07
2317,C#4,616.0,1.0,53,208.07
2318,G#4,616.0,1.0,53,208.07
2319,B4,616.0,1.0,53,208.07
2320,E-5,616.5,0.5,76,208.07
2321,F#5,616.5,0.5,76,208.07
2322,F5,617.0,1.0,80,208.07
2323,G#5,617.0,1.0,80,208.07
2324,B4,617.0,1.0,54,208.07
2325,G#4,617.0,1.0,54,208.07
2326,C#4,617.0,1.0,54,208.07
2327,F#3,618.0,0.5,60,208.07
2328,B-5,618.0,0.5,88,208.07
2329,F#5,618.0,0.5,88,208.07
2330,B-4,619.0,1.0,56,208.07
2331,F#4,619.0,1.0,56,208.07
2332,C#4,619.0,1.0,56,208.07
2333,C#6,620.0,0.5,92,208.07
2334,B-5,620.0,0.5,92,208.07
2335,C#4,620.0,0.5,60,208.07
2336,F#4,620.0,0.5,60,208.07
2337,B-4,620.0,0.5,60,208.07
2338,F#3,621.0,0.5,65,208.07
2339,F#6,621.0,3.0,96,208.07
2340,B-5,621.0,3.0,96,208.07
2341,D4,622.0,1.0,58,208.07
2342,B-4,622.0,1.0,58,208.07
2343,E-4,623.0,1.0,62,208.07
2344,B-4,623.0,1.0,62,208.07
2345,G#3,624.0,0.5,45,208.07
2346,F6,624.0,0.5,59,208.07
2347,G#5,624.0,0.5,59,208.07
2348,E-4,625.0,1.0,36,208.07
2349,G#4,625.0,1.0,36,208.07
2350,C5,625.0,1.0,36,208.07
2351,E-6,625.5,0.25,52,208.07
2352,F#5,626.0,1.0,56,208.07
2353,E-6,626.0,1.0,56,208.07
2354,C5,626.0,1.0,38,208.07
2355,G#4,626.0,1.0,38,208.07
2356,E-4,626.0,1.0,38,208.07
2357,G#3,627.0,0.5,44,208.07
2358,F6,627.0,0.5,59,208.07
2359,G#5,627.0,0.5,59,208.07
2360,C5,628.0,1.0,34,208.07
2361,G#4,628.0,1.0,34,208.07
2362,E-4,628.0,1.0,34,208.07
2363,E-6,628.5,0.25,52,208.07
2364,F#5,629.0,1.0,55,208.07
2365,E-6,629.0,1.0,55,208.07
2366,E-4,629.0,1.0,36,208.07
2367,G#4,629.0,1.0,36,208.07
2368,C5,629.0,1.0,36,208.07
2369,G#3,630.0,0.5,46,208.07
2370,G#5,630.0,0.5,59,208.07
2371,F6,630.0,0.5,59,208.07
2372,C5,631.0,1.0,37,208.07
2373,G#4,631.0,1.0,37,208.07
2374,E-4,631.0,1.0,37,208.07
2375,E-6,631.5,0.25,53,208.07
2376,F#5,632.0,1.0,55,208.07
2377,E-6,632.0,1.0,55,208.07
2378,E-4,632.0,1.0,38,208.07
2379,G#4,632.0,1.0,38,208.07
2380,C5,632.0,1.0,38,208.07
2381,C#6,633.0,1.0,59,208.07
2382,F5,633.0,1.0,59,208.07
2383,C#4,633.0,1.0,45,208.07
2384,G#4,633.0,1.0,45,208.07
2385,C#5,633.0,1.0,45,208.07
2386,F5,635.0,427/500,50,208.07
2387,F5,635.875,0.125,45,208.07
2388,F#5,636.0,0.5,52,208.07
2389,B-2,636.0,0.5,50,208.07
2390,F#5,636.875,0.125,44,208.07
2391,E5,637.0,0.5,50,208.07
2392,C#4,637.0,0.5,45,208.07
2393,F3,637.0,0.5,45,208.07
2394,E5,637.875,0.125,43,208.07
2395,F5,638.0,0.5,50,208.07
2396,C#4,638.0,0.5,46,208.07
2397,F3,638.0,0.5,46,208.07
2398,F5,638.875,0.125,46,208.07
2399,F#5,639.0,0.5,53,208.07
2400,A2,639.0,0.5,50,208.07
2401,F#5,639.875,0.125,44,208.07
2402,E5,640.0,0.5,50,208.07
2403,F3,640.0,0.5,44,208.07
2404,E-4,640.0,0.5,44,208.07
2405,C4,640.0,0.5,44,208.07
2406,E5,640.875,0.125,45,208.07
2407,F5,641.0,0.5,50,208.07
2408,E-4,641.0,0.5,45,208.07
2409,C4,641.0,0.5,45,208.07
2410,F3,641.0,0.5,45,208.07
2411,F5,641.875,0.125,50,208.07
2412,C#6,642.0,0.5,57,208.07
2413,B-2,642.0,0.5,50,208.07
2414,C#6,642.875,0.125,50,208.07
2415,C6,643.0,0.5,59,208.07
2416,C#4,643.0,0.5,50,208.07
2417,B-3,643.0,0.5,50,208.07
2418,F3,643.0,0.5,50,208.07
2419,C6,643.875,0.125,56,208.07
2420,B5,644.0,0.5,66,208.07
2421,C#4,644.0,0.5,53,208.07
2422,B-3,644.0,0.5,53,208.07
2423,F3,644.0,0.5,53,208.07
2424,B5,644.875,0.125,64,208.07
2425,B-5,645.0,0.5,75,208.07
2426,E-3,645.0,0.5,56,208.07
2427,B-5,645.875,0.125,63,208.07
2428,A5,646.0,0.5,73,208.07
2429,F#4,646.0,0.5,53,208.07
2430,C4,646.0,0.5,53,208.07
2431,B-3,646.0,0.5,53,208.07
2432,A5,646.875,0.125,63,208.07
2433,G#5,647.0,0.5,70,208.07
2434,F#4,647.0,0.5,50,208.07
2435,B-3,647.0,0.5,50,208.07
2436,C4,647.0,0.5,50,208.07
2437,G#5,647.875,0.125,58,208.07
2438,G5,648.0,0.5,67,208.07
2439,F3,648.0,0.5,56,208.07
2440,G5,648.875,0.125,54,208.07
2441,F#5,649.0,0.5,65,208.07
2442,F4,649.0,0.5,49,208.07
2443,C#4,649.0,0.5,49,208.07
2444,B-3,649.0,0.5,49,208.07
2445,F#5,649.875,0.125,51,208.07
2446,F5,650.0,0.5,63,208.07
2447,F4,650.0,0.5,50,208.07
2448,C#4,650.0,0.5,50,208.07
2449,B-3,650.0,0.5,50,208.07
2450,F5,650.875,0.125,49,208.07
2451,E5,651.0,0.5,60,208.07
2452,F3,651.0,0.5,50,208.07
2453,E5,651.875,0.125,46,208.07
2454,E-5,652.0,0.5,58,208.07
2455,E-4,652.0,0.5,48,208.07
2456,F4,652.0,0.5,48,208.07
2457,A3,652.0,0.5,48,208.07
2458,E-5,652.875,0.125,44,208.07
2459,C5,653.0,0.5,54,208.07
2460,F4,653.0,0.5,48,208.07
2461,E-4,653.0,0.5,48,208.07
2462,A3,653.0,0.5,48,208.07
2463,C5,653.875,0.125,44,208.07
2464,C#5,654.0,0.5,52,208.07
2465,B-2,654.0,0.5,50,208.07
2466,C#5,654.875,0.125,38,208.07
2467,A4,655.0,0.5,50,208.07
2468,C#4,655.0,0.5,47,208.07
2469,F3,655.0,0.5,47,208.07
2470,A4,655.875,0.125,39,208.07
2471,B-4,656.0,0.5,50,208.07
2472,C#4,656.0,0.5,47,208.07
2473,F3,656.0,0.5,47,208.07
2474,B-4,656.875,0.125,39,208.07
2475,C#5,657.0,0.5,50,208.07
2476,B-2,657.0,0.5,50,208.07
2477,C#5,657.875,0.125,39,208.07
2478,E-5,658.0,0.5,50,208.07
2479,C#4,658.0,0.5,46,208.07
2480,F3,658.0,0.5,46,208.07
2481,E-5,658.875,0.125,37,208.07
2482,E5,659.0,0.5,51,208.07
2483,C#4,659.0,0.5,47,208.07
2484,F3,659.0,0.5,47,208.07
2485,E5,659.875,0.125,40,208.07
2486,F#5,660.0,0.5,54,208.07
2487,B-2,660.0,0.5,53,208.07
2488,F#5,660.875,0.125,44,208.07
2489,E5,661.0,0.5,55,208.07
2490,C#4,661.0,0.5,49,208.07
2491,F3,661.0,0.5,49,208.07
2492,E5,661.875,0.125,44,208.07
2493,F5,662.0,0.5,58,208.07
2494,C#4,662.0,0.5,52,208.07
2495,F3,662.0,0.5,52,208.07
2496,F5,662.875,0.125,49,208.07
2497,F#5,663.0,0.5,62,208.07
2498,A2,663.0,0.5,55,208.07
2499,F#5,663.875,0.125,51,208.07
2500,E5,664.0,0.5,68,208.07
2501,E-4,664.0,0.5,56,208.07
2502,C4,664.0,0.5,56,208.07
2503,F3,664.0,0.5,56,208.07
2504,E5,664.875,0.125,54,208.07
2505,F5,665.0,0.5,73,208.07
2506,E-4,665.0,0.5,60,208.07
2507,C4,665.0,0.5,60,208.07
2508,F3,665.0,0.5,60,208.07
2509,F5,665.875,0.125,71,208.07
2510,F6,666.0,0.5,83,208.07
2511,B-2,666.0,0.5,64,208.07
2512,F6,666.875,0.125,68,208.07
2513,C#6,667.0,0.5,80,208.07
2514,C#4,667.0,0.5,62,208.07
2515,B-3,667.0,0.5,62,208.07
2516,F3,667.0,0.5,62,208.07
2517,C#6,667.875,0.125,63,208.07
2518,B-5,668.0,0.5,76,208.07
2519,C#4,668.0,0.5,56,208.07
2520,B-3,668.0,0.5,56,208.07
2521,F3,668.0,0.5,56,208.07
2522,B-5,668.875,0.125,57,208.07
2523,F#5,669.0,0.5,71,208.07
2524,E-3,669.0,0.5,60,208.07
2525,F#5,669.875,0.125,52,208.07
2526,E-5,670.0,0.5,66,208.07
2527,F#4,670.0,0.5,55,208.07
2528,C4,670.0,0.5,55,208.07
2529,B-3,670.0,0.5,55,208.07
2530,E-5,670.875,0.125,44,208.07
2531,C5,671.0,0.5,57,208.07
2532,F#4,671.0,0.5,57,208.07
2533,C4,671.0,0.5,57,208.07
2534,B-3,671.0,0.5,57,208.07
2535,F#5,671.875,0.125,41,208.07
2536,F5,672.0,0.5,55,208.07
2537,F3,672.0,0.5,56,208.07
2538,F5,672.875,0.125,42,208.07
2539,E5,673.0,0.5,53,208.07
2540,F4,673.0,0.5,52,208.07
2541,C#4,673.0,0.5,52,208.07
2542,B-3,673.0,0.5,52,208.07
2543,E5,673.875,0.125,42,208.07
2544,E-5,674.0,0.5,55,208.07
2545,F4,674.0,0.5,52,208.07
2546,C#4,674.0,0.5,52,208.07
2547,B-3,674.0,0.5,52,208.07
2548,E-5,674.875,0.125,43,208.07
2549,D5,675.0,0.5,56,208.07
2550,F3,675.0,0.5,53,208.07
2551,D5,675.875,0.125,44,208.07
2552,C#5,676.0,0.5,58,208.07
2553,F4,676.0,0.5,49,208.07
2554,E-4,676.0,0.5,49,208.07
2555,A3,676.0,0.5,49,208.07
2556,C#5,676.875,0.125,46,208.07
2557,C5,677.0,0.5,60,208.07
2558,E-4,677.0,0.5,53,208.07
2559,F4,677.0,0.5,53,208.07
2560,A3,677.0,0.5,53,208.07
2561,C5,677.875,0.125,46,208.07
2562,B4,678.0,0.5,62,208.07
2563,F4,678.0,1.0,58,208.07
2564,C#4,678.0,1.0,58,208.07
2565,B-3,678.0,1.0,58,208.07
2566,B4,678.875,0.125,49,208.07
2567,B-4,679.0,0.5,64,208.07
2568,B-4,679.875,0.125,48,208.07
2569,A4,680.0,0.5,66,208.07
2570,A4,680.875,0.125,47,208.07
2571,G#4,681.0,0.5,67,208.07
2572,G#4,681.875,0.125,51,208.07
2573,G4,682.0,0.5,69,208.07
2574,G4,682.875,0.125,55,208.07
2575,F#4,683.0,0.5,71,208.07
2576,C#2,684.0,0.5,54,208.07
2577,F4,684.0,0.5,72,208.07
2578,G#4,684.0,0.5,72,208.07
2579,B3,685.0,1.0,49,208.07
2580,G#3,685.0,1.0,49,208.07
2581,C#3,685.0,1.0,49,208.07
2582,F4,686.0,1.0,69,208.07
2583,G#4,686.0,1.0,69,208.07
2584,C#3,686.0,1.0,49,208.07
2585,G#3,686.0,1.0,49,208.07
2586,B3,686.0,1.0,49,208.07
2587,G#4,687.0,0.125,66,208.07
2588,C#2,687.0,0.5,54,208.07
2589,B-4,687.125,0.125,66,208.07
2590,F4,687.25,0.25,72,208.07
2591,G#4,687.25,0.25,72,208.07
2592,B3,688.0,1.0,48,208.07
2593,G#3,688.0,1.0,48,208.07
2594,C#3,688.0,1.0,48,208.07
2595,E-4,688.5,0.5,68,208.07
2596,F#4,688.5,0.5,68,208.07
2597,F4,689.0,1.0,72,208.07
2598,G#4,689.0,1.0,72,208.07
2599,C#3,689.0,1.0,50,208.07
2600,G#3,689.0,1.0,50,208.07
2601,B3,689.0,1.0,50,208.07
2602,F#2,690.0,0.5,54,208.07
2603,F#4,690.0,0.5,76,208.07
2604,B-4,690.0,0.5,76,208.07
2605,B-3,691.0,1.0,51,208.07
2606,F#3,691.0,1.0,51,208.07
2607,C#3,691.0,1.0,51,208.07
2608,B-4,692.0,0.5,81,208.07
2609,C#5,692.0,0.5,81,208.07
2610,C#3,692.0,0.5,54,208.07
2611,F#3,692.0,0.5,54,208.07
2612,B-3,692.0,0.5,54,208.07
2613,F#2,693.0,0.5,63,208.07
2614,B-4,693.0,3.0,87,208.07
2615,F#5,693.0,3.0,87,208.07
2616,D3,694.0,1.0,54,208.07
2617,B-3,694.0,1.0,54,208.07
2618,E-3,695.0,1.0,54,208.07
2619,B-3,695.0,1.0,54,208.07
2620,G#2,696.0,0.5,45,208.07
2621,G#4,696.0,0.5,61,208.07
2622,F5,696.0,0.5,61,208.07
2623,C4,697.0,1.0,36,208.07
2624,G#3,697.0,1.0,36,208.07
2625,E-3,697.0,1.0,36,208.07
2626,E-5,697.5,0.25,54,208.07
2627,F#4,698.0,1.0,56,208.07
2628,E-5,698.0,1.0,56,208.07
2629,C4,698.0,1.0,37,208.07
2630,G#3,698.0,1.0,37,208.07
2631,E-3,698.0,1.0,37,208.07
2632,G#2,699.0,0.5,45,208.07
2633,G#4,699.0,0.5,60,208.07
2634,F5,699.0,0.5,60,208.07
2635,C4,700.0,1.0,37,208.07
2636,G#3,700.0,1.0,37,208.07
2637,E-3,700.0,1.0,37,208.07
2638,E-5,700.5,0.25,54,208.07
2639,F#4,701.0,1.0,56,208.07
2640,E-5,701.0,1.0,56,208.07
2641,E-3,701.0,1.0,38,208.07
2642,G#3,701.0,1.0,38,208.07
2643,C4,701.0,1.0,38,208.07
2644,G#2,702.0,0.5,49,208.07
2645,G#4,702.0,0.5,60,208.07
2646,F5,702.0,0.5,60,208.07
2647,C4,703.0,1.0,39,208.07
2648,G#3,703.0,1.0,39,208.07
2649,E-3,703.0,1.0,39,208.07
2650,E-5,703.5,0.25,55,208.07
2651,F#4,704.0,1.0,57,208.07
2652,E-5,704.0,1.0,57,208.07
2653,E-3,704.0,1.0,40,208.07
2654,G#3,704.0,1.0,40,208.07
2655,C4,704.0,1.0,40,208.07
2656,C#3,705.0,3.0,52,208.07
2657,E4,705.0,0.5,68,208.07
2658,C5,705.0,0.5,68,208.07
2659,C#4,706.0,1.0,42,208.07
2660,G#3,706.0,1.0,42,208.07
2661,C#5,706.5,0.25,57,208.07
2662,F4,707.0,1.0,62,208.07
2663,C#5,707.0,1.0,62,208.07
2664,C#4,707.0,1.0,45,208.07
2665,G#3,707.0,1.0,45,208.07
2666,C#3,708.0,0.5,60,208.07
2667,F5,708.0,0.5,86,208.07
2668,G#5,708.0,0.5,86,208.07
2669,B4,709.0,1.0,53,208.07
2670,G#4,709.0,1.0,53,208.07
2671,C#4,709.0,1.0,53,208.07
2672,G#5,709.5,0.25,77,208.07
2673,F5,709.5,0.25,77,208.07
2674,F5,710.0,1.0,80,208.07
2675,G#5,710.0,1.0,80,208.07
2676,C#4,710.0,1.0,56,208.07
2677,G#4,710.0,1.0,56,208.07
2678,B4,710.0,1.0,56,208.07
2679,G#5,711.0,0.125,77,208.07
2680,C#3,711.0,0.5,60,208.07
2681,B-5,711.125,0.125,78,208.07
2682,F5,711.25,0.25,86,208.07
2683,G#5,711.25,0.25,86,208.07
2684,C#4,712.0,1.0,53,208.07
2685,G#4,712.0,1.0,53,208.07
2686,B4,712.0,1.0,53,208.07
2687,E-5,712.5,0.5,77,208.07
2688,F#5,712.5,0.5,77,208.07
2689,F5,713.0,1.0,80,208.07
2690,G#5,713.0,1.0,80,208.07
2691,B4,713.0,1.0,54,208.07
2692,G#4,713.0,1.0,54,208.07
2693,C#4,713.0,1.0,54,208.07
2694,F#3,714.0,0.5,60,208.07
2695,B-5,714.0,0.5,88,208.07
2696,F#5,714.0,0.5,88,208.07
2697,B-4,715.0,1.0,56,208.07
2698,F#4,715.0,1.0,56,208.07
2699,C#4,715.0,1.0,56,208.07
2700,C#6,716.0,0.5,92,208.07
2701,B-5,716.0,0.5,92,208.07
2702,C#4,716.0,0.5,60,208.07
2703,F#4,716.0,0.5,60,208.07
2704,B-4,716.0,0.5,60,208.07
2705,F#3,717.0,0.5,67,208.07
2706,F#6,717.0,3.0,95,208.07
2707,B-5,717.0,3.0,95,208.07
2708,D4,718.0,1.0,61,208.07
2709,B-4,718.0,1.0,61,208.07
2710,E-4,719.0,1.0,62,208.07
2711,B-4,719.0,1.0,62,208.07
2712,G#3,720.0,0.5,45,208.07
2713,F6,720.0,0.5,59,208.07
2714,G#5,720.0,0.5,59,208.07
2715,E-4,721.0,1.0,36,208.07
2716,G#4,721.0,1.0,36,208.07
2717,C5,721.0,1.0,36,208.07
2718,E-6,721.5,0.25,53,208.07
2719,F#5,722.0,1.0,56,208.07
2720,E-6,722.0,1.0,56,208.07
2721,C5,722.0,1.0,38,208.07
2722,G#4,722.0,1.0,38,208.07
2723,E-4,722.0,1.0,38,208.07
2724,G#3,723.0,0.5,44,208.07
2725,F6,723.0,0.5,59,208.07
2726,G#5,723.0,0.5,59,208.07
2727,C5,724.0,1.0,36,208.07
2728,G#4,724.0,1.0,36,208.07
2729,E-4,724.0,1.0,36,208.07
2730,E-6,724.5,0.25,52,208.07
2731,F#5,725.0,1.0,55,208.07
2732,E-6,725.0,1.0,55,208.07
2733,E-4,725.0,1.0,36,208.07
2734,G#4,725.0,1.0,36,208.07
2735,C5,725.0,1.0,36,208.07
2736,G#3,726.0,0.5,46,208.07
2737,G#5,726.0,0.5,59,208.07
2738,F6,726.0,0.5,59,208.07
2739,C5,727.0,1.0,38,208.07
2740,G#4,727.0,1.0,38,208.07
2741,E-4,727.0,1.0,38,208.07
2742,E-6,727.5,0.25,52,208.07
2743,F#5,728.0,1.0,55,208.07
2744,E-6,728.0,1.0,55,208.07
2745,E-4,728.0,1.0,38,208.07
2746,G#4,728.0,1.0,38,208.07
2747,C5,728.0,1.0,38,208.07
2748,C#6,729.0,1.0,59,208.07
2749,F5,729.0,1.0,59,208.07
2750,C#4,729.0,1.0,45,208.07
2751,G#4,729.0,1.0,45,208.07
2752,C#5,729.0,1.0,45,208.07
2753,C#5,731.0,0.5,51,208.07
2754,C#5,731.5,0.5,51,208.07
2755,C#5,732.0,0.5,54,208.07
2756,B-2,732.0,3.0,32,208.07
2757,E-5,732.5,0.5,55,208.07
2758,C#5,733.0,0.5,54,208.07
2759,C#4,733.0,1.0,36,208.07
2760,F#3,733.0,1.0,36,208.07
2761,C5,733.5,0.5,48,208.07
2762,C#5,734.0,0.5,49,208.07
2763,C#4,734.0,1.0,36,208.07
2764,F#3,734.0,1.0,36,208.07
2765,D5,734.5,0.5,51,208.07
2766,F5,735.0,2.0,53,208.07
2767,B2,735.0,1.0,38,208.07
2768,E-4,736.0,1.0,35,208.07
2769,G#3,736.0,1.0,35,208.07
2770,F#3,736.0,1.0,35,208.07
2771,E-5,737.0,1.0,50,208.07
2772,E-4,737.0,1.0,35,208.07
2773,G#3,737.0,1.0,35,208.07
2774,F#3,737.0,1.0,35,208.07
2775,G#4,738.0,0.5,50,208.07
2776,B-2,738.0,3.0,30,208.07
2777,B-4,738.5,0.5,50,208.07
2778,G#4,739.0,0.5,50,208.07
2779,B3,739.0,1.0,24,208.07
2780,F3,739.0,1.0,24,208.07
2781,G4,739.5,0.5,50,208.07
2782,G#4,740.0,0.5,50,208.07
2783,B3,740.0,1.0,30,208.07
2784,F3,740.0,1.0,30,208.07
2785,A4,740.5,0.5,50,208.07
2786,B-4,741.0,1.0,61,208.07
2787,F#2,741.0,1.0,30,208.07
2788,F#4,742.0,0.25,50,208.07
2789,B-3,742.0,1.0,29,208.07
2790,C#3,742.0,1.0,29,208.07
2791,B-4,742.5,0.5,51,208.07
2792,B4,743.0,0.5,54,208.07
2793,C#3,743.0,1.0,34,208.07
2794,B-3,743.0,1.0,34,208.07
2795,C5,743.5,0.5,56,208.07
2796,C#5,744.0,0.125,50,208.07
2797,B-2,744.0,3.0,37,208.07
2798,E-5,744.125,0.125,50,208.07
2799,C#5,744.25,0.25,50,208.07
2800,C5,744.5,0.5,55,208.07
2801,C#5,745.0,0.5,57,208.07
2802,C#4,745.0,1.0,29,208.07
2803,F#3,745.0,1.0,29,208.07
2804,B-5,745.5,0.5,58,208.07
2805,G#5,746.0,0.5,60,208.07
2806,C#4,746.0,1.0,35,208.07
2807,F#3,746.0,1.0,35,208.07
2808,F#5,746.5,0.5,62,208.07
2809,F5,747.0,2.0,64,208.07
2810,B2,747.0,1.0,29,208.07
2811,E-4,748.0,1.0,29,208.07
2812,G#3,748.0,1.0,29,208.07
2813,F#3,748.0,1.0,29,208.07
2814,E-5,749.0,1.0,56,208.07
2815,F#3,749.0,1.0,36,208.07
2816,G#3,749.0,1.0,36,208.07
2817,E-4,749.0,1.0,36,208.07
2818,G#4,750.0,333/1000,52,208.07
2819,C#3,750.0,3.0,36,208.07
2820,B-4,750.333,333/1000,50,208.07
2821,G#4,750.667,333/1000,50,208.07
2822,G4,751.0,0.5,52,208.07
2823,B3,751.0,1.0,19,208.07
2824,F3,751.0,1.0,19,208.07
2825,G#4,751.5,0.5,50,208.07
2826,B4,752.0,0.5,56,208.07
2827,F3,752.0,1.0,26,208.07
2828,B3,752.0,1.0,26,208.07
2829,B-4,752.5,0.5,50,208.07
2830,F#4,753.0,0.25,50,208.07
2831,F#2,753.0,1.0,27,208.07
2832,C4,753.5,0.5,42,208.07
2833,C#4,754.0,0.5,43,208.07
2834,B-3,754.0,1.0,32,208.07
2835,C#3,754.0,1.0,32,208.07
2836,F4,754.5,0.5,45,208.07
2837,F#4,755.0,0.5,47,208.07
2838,C#3,755.0,1.0,34,208.07
2839,B-3,755.0,1.0,34,208.07
2840,B-4,755.5,0.5,48,208.07
2841,C#5,756.0,0.5,50,208.07
2842,B-2,756.0,3.0,28,208.07
2843,E-5,756.5,0.5,51,208.07
2844,C#5,757.0,0.5,53,208.07
2845,C#4,757.0,1.0,28,208.07
2846,F#3,757.0,1.0,28,208.07
2847,C5,757.5,0.5,55,208.07
2848,C#5,758.0,0.5,56,208.07
2849,C#4,758.0,1.0,37,208.07
2850,F#3,758.0,1.0,37,208.07
2851,D5,758.5,0.375,58,208.07
2852,D5,758.875,0.125,54,208.07
2853,F5,759.0,2.0,67,208.07
2854,B2,759.0,1.0,33,208.07
2855,G3,760.0,1.0,30,208.07
2856,E-4,760.0,1.0,30,208.07
2857,E-5,761.0,1.0,59,208.07
2858,G#3,761.0,1.0,33,208.07
2859,E-4,761.0,1.0,33,208.07
2860,G#4,762.0,0.5,50,208.07
2861,C#3,762.0,3.0,25,208.07
2862,B-4,762.5,0.5,50,208.07
2863,G#4,763.0,0.125,41,208.07
2864,B3,763.0,1.0,20,208.07
2865,F3,763.0,1.0,20,208.07
2866,B-4,763.125,0.125,41,208.07
2867,G#4,763.25,0.25,49,208.07
2868,G4,763.5,0.5,50,208.07
2869,G#4,764.0,0.5,52,208.07
2870,F3,764.0,1.0,29,208.07
2871,B3,764.0,1.0,29,208.07
2872,A4,764.5,0.5,55,208.07
2873,B-4,765.0,1.0,64,208.07
2874,F#2,765.0,1.0,34,208.07
2875,F#4,766.0,0.25,54,208.07
2876,C#3,766.0,1.0,28,208.07
2877,B-3,766.0,1.0,28,208.07
2878,B-4,766.5,0.5,53,208.07
2879,B4,767.0,0.5,55,208.07
2880,B-3,767.0,1.0,33,208.07
2881,C#3,767.0,1.0,33,208.07
2882,C5,767.5,0.5,57,208.07
2883,C#5,768.0,0.125,50,208.07
2884,B-2,768.0,3.0,38,208.07
2885,E-5,768.125,0.125,50,208.07
2886,C#5,768.25,0.25,59,208.07
2887,C5,768.5,0.5,57,208.07
2888,C#5,769.0,333/1000,58,208.07
2889,C#4,769.0,1.0,28,208.07
2890,F#3,769.0,1.0,28,208.07
2891,B5,769.333,333/1000,67,208.07
2892,B-5,769.667,333/1000,65,208.07
2893,B-5,770.0,333/1000,63,208.07
2894,F#3,770.0,1.0,28,208.07
2895,C#4,770.0,1.0,28,208.07
2896,G#5,770.333,333/1000,61,208.07
2897,F#5,770.667,333/1000,59,208.07
2898,F5,771.0,2.0,57,208.07
2899,B2,771.0,1.0,35,208.07
2900,E-4,772.0,1.0,30,208.07
2901,G#3,772.0,1.0,30,208.07
2902,F#3,772.0,1.0,30,208.07
2903,E-5,773.0,1.0,55,208.07
2904,E-4,773.0,1.0,28,208.07
2905,G#3,773.0,1.0,28,208.07
2906,F#3,773.0,1.0,28,208.07
2907,G#4,774.0,333/1000,46,208.07
2908,C#3,774.0,3.0,26,208.07
2909,B-4,774.333,333/1000,46,208.07
2910,G#4,774.667,333/1000,46,208.07
2911,G4,775.0,0.5,46,208.07
2912,B3,775.0,1.0,26,208.07
2913,F3,775.0,1.0,26,208.07
2914,G#4,775.5,0.5,47,208.07
2915,B4,776.0,0.5,49,208.07
2916,F3,776.0,1.0,25,208.07
2917,B3,776.0,1.0,25,208.07
2918,B-4,776.5,0.5,45,208.07
2919,F#4,777.0,0.5,39,208.07
2920,F#2,777.0,1.0,30,208.07
2921,B-3,778.0,1.0,27,208.07
2922,C#3,778.0,1.0,27,208.07
2923,B-4,779.0,0.25,39,208.07
2924,B-4,779.5,0.25,39,208.07
2925,B-4,780.0,0.5,39,208.07
2926,B-1,780.0,0.5,35,208.07
2927,B-2,780.0,0.5,35,208.07
2928,B-4,782.0,0.25,39,208.07
2929,G#3,782.0,1.0,37,208.07
2930,B-3,782.0,1.0,37,208.07
2931,F4,782.0,1.0,37,208.07
2932,B-4,782.5,0.25,39,208.07
2933,B-4,783.0,0.5,39,208.07
2934,G3,783.0,0.5,32,208.07
2935,B-3,783.0,0.5,32,208.07
2936,E4,783.0,0.5,32,208.07
2937,B-4,785.0,0.25,39,208.07
2938,F#3,785.0,1.0,36,208.07
2939,B-3,785.0,1.0,36,208.07
2940,E-4,785.0,1.0,36,208.07
2941,B-4,785.5,0.25,39,208.07
2942,B-4,786.0,0.5,39,208.07
2943,F3,786.0,0.5,32,208.07
2944,B-3,786.0,0.5,32,208.07
2945,D4,786.0,0.5,32,208.07
2946,B-4,787.0,0.25,94,208.07
2947,B-5,787.0,0.25,94,208.07
2948,B-1,787.0,0.25,82,208.07
2949,B-2,787.0,0.25,82,208.07
2950,B-4,787.5,0.25,91,208.07
2951,B-5,787.5,0.25,91,208.07
2952,B-1,787.5,0.25,78,208.07
2953,B-2,787.5,0.25,78,208.07
2954,B-4,788.0,0.5,95,208.07
2955,B-5,788.0,0.5,95,208.07
2956,B-1,788.0,0.5,82,208.07
2957,B-2,788.0,0.5,82,208.07
2958,B-4,789.0,0.25,95,208.07
2959,B-5,789.0,0.25,95,208.07
2960,B-1,789.0,0.25,82,208.07
2961,B-2,789.0,0.25,82,208.07
2962,B-4,789.5,0.25,91,208.07
2963,B-5,789.5,0.25,91,208.07
2964,B-1,789.5,0.25,78,208.07
2965,B-2,789.5,0.25,78,208.07
2966,B-4,790.0,0.5,95,208.07
2967,B-5,790.0,0.5,95,208.07
2968,B-1,790.0,0.5,82,208.07
2969,B-2,790.0,0.5,82,208.07
2970,B-4,791.0,0.25,95,208.07
2971,B-5,791.0,0.25,95,208.07
2972,B-1,791.0,0.25,82,208.07
2973,B-2,791.0,0.25,82,208.07
2974,B-4,791.5,0.25,91,208.07
2975,B-5,791.5,0.25,91,208.07
2976,B-1,791.5,0.25,78,208.07
2977,B-2,791.5,0.25,78,208.07
2978,B-4,792.0,0.5,95,208.07
2979,B-5,792.0,0.5,95,208.07
2980,B-1,792.0,0.5,82,208.07
2981,B-2,792.0,0.5,82,208.07
2982,B-3,794.0,0.25,39,208.07
2983,F4,794.0,0.25,39,208.07
2984,B-4,794.0,0.25,39,208.07
2985,B-2,794.0,1.0,39,208.07
2986,G#3,794.0,1.0,39,208.07
2987,B-3,794.5,0.25,39,208.07
2988,B-4,794.5,0.25,39,208.07
2989,B-3,795.0,0.5,39,208.07
2990,E4,795.0,0.5,39,208.07
2991,B-4,795.0,0.5,39,208.07
2992,B-2,795.0,0.5,36,208.07
2993,G3,795.0,0.5,36,208.07
2994,B-3,797.0,0.25,39,208.07
2995,E-4,797.0,0.25,39,208.07
2996,B-4,797.0,0.25,39,208.07
2997,F#3,797.0,1.0,39,208.07
2998,B-2,797.0,1.0,39,208.07
2999,B-3,797.5,0.25,39,208.07
3000,B-4,797.5,0.25,39,208.07
3001,B-3,798.0,0.5,39,208.07
3002,D4,798.0,0.5,39,208.07
3003,B-4,798.0,0.5,39,208.07
3004,B-2,798.0,0.5,36,208.07
3005,F3,798.0,0.5,36,208.07
3006,B-3,799.0,0.25,43,208.07
3007,B-4,799.0,0.25,43,208.07
3008,B-3,799.5,0.25,47,208.07
3009,B-4,799.5,0.25,47,208.07
3010,B-3,800.0,1.0,52,208.07
3011,B-4,800.0,1.0,52,208.07
3012,B-3,801.0,0.25,55,208.07
3013,B-4,801.0,0.25,55,208.07
3014,B-3,801.5,0.25,57,208.07
3015,B-4,801.5,0.25,57,208.07
3016,B-3,802.0,1.0,66,208.07
3017,B-4,802.0,1.0,66,208.07
3018,B-3,803.0,0.25,72,208.07
3019,B-4,803.0,0.25,72,208.07
3020,B-3,803.5,0.25,67,208.07
3021,B-4,803.5,0.25,67,208.07
3022,B-3,804.0,0.5,97,208.07
3023,B-4,804.0,0.5,97,208.07
3024,B-1,804.0,0.5,95,208.07
3025,B-2,804.0,0.5,95,208.07
3026,D5,805.0,271/500,56,208.07
3027,G#4,805.0,0.75,54,208.07
3028,F4,805.0,0.75,54,208.07
3029,B-3,805.0,0.75,54,208.07
3030,E-5,805.5,271/500,51,208.07
3031,D5,806.0,0.75,64,208.07
3032,F5,806.0,0.75,64,208.07
3033,G#4,806.0,0.75,62,208.07
3034,F4,806.0,0.75,62,208.07
3035,B-3,806.0,0.75,62,208.07
3036,B-4,807.0,0.5,96,208.07
3037,E-2,807.0,0.5,95,208.07
3038,E-3,807.0,0.5,95,208.07
3039,E-5,808.0,271/500,59,208.07
3040,G4,808.0,0.75,57,208.07
3041,E-4,808.0,0.75,57,208.07
3042,B-3,808.0,0.75,57,208.07
3043,F5,808.5,271/500,55,208.07
3044,E-5,809.0,0.75,67,208.07
3045,G5,809.0,0.75,67,208.07
3046,G4,809.0,0.75,61,208.07
3047,E-4,809.0,0.75,61,208.07
3048,B-3,809.0,0.75,61,208.07
3049,B-4,810.0,0.5,97,208.07
3050,B-2,810.0,0.5,96,208.07
3051,B-3,810.0,0.5,96,208.07
3052,F5,811.0,271/500,67,208.07
3053,G#4,811.0,0.75,60,208.07
3054,F4,811.0,0.75,60,208.07
3055,B-3,811.0,0.75,60,208.07
3056,G5,811.5,271/500,65,208.07
3057,F5,812.0,0.75,75,208.07
3058,G#5,812.0,0.75,75,208.07
3059,G#4,812.0,0.75,67,208.07
3060,F4,812.0,0.75,67,208.07
3061,B-3,812.0,0.75,67,208.07
3062,E-3,813.0,0.5,97,208.07
3063,B-5,813.0,2.0,82,208.07
3064,G5,813.0,2.0,82,208.07
3065,C#5,813.0,2.0,82,208.07
3066,G4,814.0,0.5,71,208.07
3067,C#4,814.0,0.5,71,208.07
3068,B-3,814.0,0.5,71,208.07
3069,E3,815.0,0.5,92,208.07
3070,B-5,815.0,0.5,69,208.07
3071,G5,815.0,0.5,69,208.07
3072,C#5,815.0,0.5,69,208.07
3073,B-5,815.5,0.5,69,208.07
3074,G5,815.5,0.5,69,208.07
3075,C#5,815.5,0.5,69,208.07
3076,B-5,816.0,521/500,77,208.07
3077,F3,816.0,0.5,60,208.07
3078,C#5,816.0,2.0,77,208.07
3079,G5,816.0,2.0,77,208.07
3080,C6,817.0,271/500,60,208.07
3081,F4,817.0,0.5,47,208.07
3082,G#3,817.0,0.5,47,208.07
3083,B-5,817.5,271/500,54,208.07
3084,G#2,818.0,0.5,53,208.07
3085,C5,818.0,0.5,58,208.07
3086,G#5,818.0,0.5,58,208.07
3087,G#5,819.0,521/500,76,208.07
3088,B4,819.0,2.0,76,208.07
3089,B-2,819.0,0.5,55,208.07
3090,B-5,820.0,271/500,57,208.07
3091,E-4,820.0,0.75,44,208.07
3092,G3,820.0,0.75,44,208.07
3093,G#5,820.5,271/500,53,208.07
3094,B-4,821.0,0.5,56,208.07
3095,G5,821.0,0.5,56,208.07
3096,E-4,821.0,0.5,51,208.07
3097,G3,821.0,0.5,51,208.07
3098,G5,822.0,521/500,71,208.07
3099,B-4,822.0,2.0,71,208.07
3100,B-2,822.0,0.5,54,208.07
3101,G#5,823.0,271/500,55,208.07
3102,D4,823.0,1.0,41,208.07
3103,F3,823.0,1.0,41,208.07
3104,G5,823.5,271/500,51,208.07
3105,G#4,824.0,0.5,54,208.07
3106,F5,824.0,0.5,54,208.07
3107,D4,824.0,0.5,49,208.07
3108,B-3,824.0,0.5,49,208.07
3109,F5,825.0,521/500,64,208.07
3110,G#4,825.0,2.0,64,208.07
3111,E-3,825.0,3.0,51,208.07
3112,G5,826.0,271/500,48,208.07
3113,E-4,826.0,0.75,38,208.07
3114,B-3,826.0,0.75,38,208.07
3115,F5,826.5,271/500,45,208.07
3116,E-5,827.0,0.5,48,208.07
3117,G4,827.0,0.5,48,208.07
3118,E-4,827.0,0.5,47,208.07
3119,B-3,827.0,0.5,47,208.07
3120,B-5,828.0,1.0,96,208.07
3121,B-4,828.0,1.0,96,208.07
3122,B-3,828.0,1.5,95,208.07
3123,B-2,828.0,1.5,95,208.07
3124,D5,829.0,271/500,57,208.07
3125,G#4,829.0,0.75,54,208.07
3126,F4,829.0,0.75,54,208.07
3127,B-3,829.0,0.75,54,208.07
3128,E-5,829.5,271/500,52,208.07
3129,D5,830.0,0.75,63,208.07
3130,F5,830.0,0.75,63,208.07
3131,G#4,830.0,0.75,58,208.07
3132,F4,830.0,0.75,58,208.07
3133,B-3,830.0,0.75,58,208.07
3134,B-5,831.0,1.0,95,208.07
3135,B-4,831.0,1.0,95,208.07
3136,E-2,831.0,1.5,94,208.07
3137,E-3,831.0,1.5,94,208.07
3138,E-5,832.0,271/500,60,208.07
3139,G4,832.0,0.75,64,208.07
3140,E-4,832.0,0.75,64,208.07
3141,B-3,832.0,0.75,64,208.07
3142,F5,832.5,271/500,57,208.07
3143,E-5,833.0,0.75,68,208.07
3144,G5,833.0,0.75,68,208.07
3145,G4,833.0,0.75,69,208.07
3146,E-4,833.0,0.75,69,208.07
3147,B-3,833.0,0.75,69,208.07
3148,B-5,834.0,1.0,93,208.07
3149,B-4,834.0,1.0,93,208.07
3150,B-3,834.0,1.5,95,208.07
3151,B-2,834.0,1.5,95,208.07
3152,F5,835.0,271/500,72,208.07
3153,G#4,835.0,0.75,66,208.07
3154,F4,835.0,0.75,66,208.07
3155,B-3,835.0,0.75,66,208.07
3156,G5,835.5,271/500,68,208.07
3157,F5,836.0,0.75,80,208.07
3158,G#5,836.0,0.75,80,208.07
3159,G#4,836.0,0.75,70,208.07
3160,F4,836.0,0.75,70,208.07
3161,B-3,836.0,0.75,70,208.07
3162,E-3,837.0,0.5,78,208.07
3163,B-5,837.0,1.5,101,208.07
3164,G5,837.0,1.5,101,208.07
3165,C#5,837.0,1.5,101,208.07
3166,G4,838.0,0.5,48,208.07
3167,C#4,838.0,0.5,48,208.07
3168,B-3,838.0,0.5,48,208.07
3169,G5,838.5,0.5,76,208.07
3170,B-5,838.5,0.5,76,208.07
3171,C#5,839.0,1.0,68,208.07
3172,E3,839.0,1.0,49,208.07
3173,B-5,839.5,0.5,74,208.07
3174,G5,839.5,0.5,74,208.07
3175,C#5,840.0,2.0,64,208.07
3176,F3,840.0,0.5,43,208.07
3177,B-5,840.5,271/500,72,208.07
3178,C6,841.0,271/500,64,208.07
3179,G#3,841.0,0.5,49,208.07
3180,F4,841.0,0.5,49,208.07
3181,B-5,841.5,271/500,57,208.07
3182,G#2,842.0,0.5,37,208.07
3183,G#5,842.0,0.5,54,208.07
3184,C5,842.0,0.5,54,208.07
3185,B4,843.0,2.0,65,208.07
3186,B-2,843.0,0.5,43,208.07
3187,G#5,843.5,271/500,69,208.07
3188,B-5,844.0,271/500,65,208.07
3189,G3,844.0,0.75,31,208.07
3190,E-4,844.0,0.75,31,208.07
3191,G#5,844.5,271/500,55,208.07
3192,G5,845.0,0.5,51,208.07
3193,B-4,845.0,0.5,51,208.07
3194,E-4,845.0,0.5,41,208.07
3195,G3,845.0,0.5,41,208.07
3196,B-4,846.0,2.0,63,208.07
3197,B-2,846.0,0.5,33,208.07
3198,G5,846.5,271/500,46,208.07
3199,G#5,847.0,271/500,58,208.07
3200,F3,847.0,1.0,40,208.07
3201,D4,847.0,1.0,40,208.07
3202,G5,847.5,271/500,45,208.07
3203,D4,848.0,1.0,27,208.07
3204,B-3,848.0,1.0,27,208.07
3205,G#4,848.0,1.0,50,208.07
3206,F5,848.0,1.0,50,208.07
3207,B-3,849.0,1.0,27,208.07
3208,E-5,849.0,0.5,59,208.07
3209,G4,849.0,0.5,59,208.07
3210,E-4,849.0,1.0,44,208.07
3211,E-3,849.0,1.0,44,208.07
3212,E-5,850.0,0.25,53,208.07
3213,E-5,850.5,0.25,64,208.07
3214,E-5,851.0,0.25,67,208.07
3215,E-3,851.0,1.0,52,208.07
3216,G3,851.0,1.0,52,208.07
3217,C#4,851.0,1.0,52,208.07
3218,E-5,851.5,0.25,69,208.07
3219,E-5,852.0,0.25,78,208.07
3220,G#2,852.0,1.5,25,208.07
3221,E-5,852.5,0.25,64,208.07
3222,E-5,853.0,0.25,78,208.07
3223,G#3,853.0,0.75,33,208.07
3224,C4,853.0,0.75,33,208.07
3225,E-3,853.0,0.75,33,208.07
3226,E-5,853.5,0.25,74,208.07
3227,E-5,854.0,0.25,69,208.07
3228,C4,854.0,0.75,41,208.07
3229,E-3,854.0,0.75,41,208.07
3230,G#3,854.0,0.75,41,208.07
3231,E-5,854.5,0.25,69,208.07
3232,F5,855.0,271/500,65,208.07
3233,G#2,855.0,1.0,33,208.07
3234,E-5,855.5,271/500,58,208.07
3235,C5,856.0,271/500,56,208.07
3236,G#3,856.0,0.75,33,208.07
3237,C4,856.0,0.75,33,208.07
3238,E-3,856.0,0.75,33,208.07
3239,G#4,856.5,271/500,48,208.07
3240,E-4,857.0,0.5,52,208.07
3241,G#3,857.0,0.75,37,208.07
3242,E-3,857.0,0.75,37,208.07
3243,C4,857.0,0.75,37,208.07
3244,E4,857.5,0.5,44,208.07
3245,F4,858.0,0.25,58,208.07
3246,G#2,858.0,1.0,37,208.07
3247,F4,858.5,0.25,51,208.07
3248,F4,859.0,0.25,55,208.07
3249,G#3,859.0,0.75,26,208.07
3250,D3,859.0,0.75,26,208.07
3251,B3,859.0,0.75,26,208.07
3252,F4,859.5,0.25,46,208.07
3253,F4,860.0,0.25,54,208.07
3254,G#3,860.0,0.75,32,208.07
3255,D3,860.0,0.75,32,208.07
3256,B3,860.0,0.75,32,208.07
3257,F4,860.5,0.25,64,208.07
3258,E-4,861.0,271/500,61,208.07
3259,G#2,861.0,1.0,38,208.07
3260,G#4,861.5,271/500,53,208.07
3261,C5,862.0,271/500,46,208.07
3262,C4,862.0,0.75,29,208.07
3263,E-3,862.0,0.75,29,208.07
3264,G#3,862.0,0.75,29,208.07
3265,E-5,862.5,271/500,64,208.07
3266,G#5,863.0,271/500,59,208.07
3267,G#3,863.0,0.75,48,208.07
3268,E-3,863.0,0.75,48,208.07
3269,C4,863.0,0.75,48,208.07
3270,E5,863.5,0.5,52,208.07
3271,F5,864.0,0.25,52,208.07
3272,D3,864.0,1.0,55,208.07
3273,F5,864.5,0.25,48,208.07
3274,F5,865.0,0.25,64,208.07
3275,F4,865.0,0.75,24,208.07
3276,G#3,865.0,0.75,24,208.07
3277,B3,865.0,0.75,24,208.07
3278,F5,865.5,0.25,60,208.07
3279,F5,866.0,0.25,53,208.07
3280,F4,866.0,0.75,36,208.07
3281,G#3,866.0,0.75,36,208.07
3282,B3,866.0,0.75,36,208.07
3283,F5,866.5,0.25,73,208.07
3284,F5,867.0,0.375,77,208.07
3285,E-3,867.0,1.0,44,208.07
3286,G5,867.333,0.375,55,208.07
3287,F5,867.667,0.375,55,208.07
3288,E-5,868.0,271/500,65,208.07
3289,E-4,868.0,0.75,32,208.07
3290,C4,868.0,0.75,32,208.07
3291,G#4,868.0,0.75,32,208.07
3292,G#5,868.5,271/500,57,208.07
3293,C6,869.0,0.5,51,208.07
3294,C4,869.0,0.5,42,208.07
3295,G#4,869.0,0.5,42,208.07
3296,E-4,869.0,0.5,42,208.07
3297,F6,870.0,521/500,66,208.07
3298,E-3,870.0,1.0,20,208.07
3299,E-6,871.0,271/500,50,208.07
3300,E-4,871.0,0.75,20,208.07
3301,C#4,871.0,0.75,20,208.07
3302,G4,871.0,0.75,20,208.07
3303,C#6,871.5,271/500,45,208.07
3304,G5,872.0,0.5,52,208.07
3305,E-4,872.0,0.5,30,208.07
3306,C#4,872.0,0.5,30,208.07
3307,G4,872.0,0.5,30,208.07
3308,B-5,873.0,521/500,58,208.07
3309,G#3,873.0,2.5,34,208.07
3310,G#5,874.0,271/500,43,208.07
3311,E-4,874.0,0.75,23,208.07
3312,C4,874.0,0.75,23,208.07
3313,G#4,874.0,0.75,23,208.07
3314,E-5,874.5,271/500,44,208.07
3315,C5,875.0,0.5,38,208.07
3316,E-4,875.0,0.5,38,208.07
3317,C4,875.0,0.5,38,208.07
3318,G#4,875.0,0.5,38,208.07
3319,E-5,876.0,0.25,48,208.07
3320,G#2,876.0,1.0,34,208.07
3321,E-5,876.5,0.25,44,208.07
3322,E-5,877.0,0.25,65,208.07
3323,C4,877.0,0.75,31,208.07
3324,E-3,877.0,0.75,31,208.07
3325,G#3,877.0,0.75,31,208.07
3326,E-5,877.5,0.25,69,208.07
3327,E-5,878.0,0.25,63,208.07
3328,G#3,878.0,0.75,49,208.07
3329,E-3,878.0,0.75,49,208.07
3330,C4,878.0,0.75,49,208.07
3331,E-5,878.5,0.25,71,208.07
3332,F5,879.0,271/500,61,208.07
3333,G#2,879.0,1.0,47,208.07
3334,E-5,879.5,271/500,56,208.07
3335,C5,880.0,271/500,50,208.07
3336,C4,880.0,0.75,35,208.07
3337,E-3,880.0,0.75,35,208.07
3338,G#3,880.0,0.75,35,208.07
3339,G#4,880.5,271/500,50,208.07
3340,E-4,881.0,0.5,48,208.07
3341,E-3,881.0,0.75,52,208.07
3342,C4,881.0,0.75,52,208.07
3343,G#3,881.0,0.75,52,208.07
3344,E4,881.5,0.5,53,208.07
3345,F4,882.0,0.25,57,208.07
3346,G#2,882.0,1.0,40,208.07
3347,F4,882.5,0.25,51,208.07
3348,F4,883.0,0.25,55,208.07
3349,G#3,883.0,0.75,35,208.07
3350,B3,883.0,0.75,35,208.07
3351,D3,883.0,0.75,35,208.07
3352,F4,883.5,0.25,55,208.07
3353,F4,884.0,0.25,61,208.07
3354,D3,884.0,0.75,31,208.07
3355,B3,884.0,0.75,31,208.07
3356,G#3,884.0,0.75,31,208.07
3357,F4,884.5,0.25,65,208.07
3358,E-4,885.0,271/500,58,208.07
3359,G#2,885.0,1.0,38,208.07
3360,G#4,885.5,271/500,52,208.07
3361,C5,886.0,271/500,49,208.07
3362,G#3,886.0,0.75,30,208.07
3363,C4,886.0,0.75,30,208.07
3364,E-3,886.0,0.75,30,208.07
3365,E-5,886.5,271/500,45,208.07
3366,G#5,887.0,271/500,52,208.07
3367,G#3,887.0,0.75,36,208.07
3368,C4,887.0,0.75,36,208.07
3369,E-3,887.0,0.75,36,208.07
3370,E5,887.5,0.5,48,208.07
3371,F5,888.0,0.25,58,208.07
3372,D3,888.0,1.0,38,208.07
3373,F5,888.5,0.25,49,208.07
3374,F5,889.0,0.25,61,208.07
3375,B3,889.0,0.75,33,208.07
3376,G#3,889.0,0.75,33,208.07
3377,F4,889.0,0.75,33,208.07
3378,F5,889.5,0.25,57,208.07
3379,F5,890.0,0.25,65,208.07
3380,B3,890.0,0.75,36,208.07
3381,F4,890.0,0.75,36,208.07
3382,G#3,890.0,0.75,36,208.07
3383,F5,890.5,0.25,65,208.07
3384,F5,891.0,0.375,75,208.07
3385,E-3,891.0,1.0,44,208.07
3386,G5,891.333,0.375,55,208.07
3387,F5,891.667,0.375,55,208.07
3388,E-5,892.0,271/500,66,208.07
3389,C4,892.0,0.75,29,208.07
3390,G#4,892.0,0.75,29,208.07
3391,E-4,892.0,0.75,29,208.07
3392,G#5,892.5,271/500,64,208.07
3393,C6,893.0,0.5,60,208.07
3394,E-4,893.0,0.5,44,208.07
3395,G#4,893.0,0.5,44,208.07
3396,C4,893.0,0.5,44,208.07
3397,F6,894.0,521/500,67,208.07
3398,E-3,894.0,1.0,27,208.07
3399,E-6,895.0,271/500,52,208.07
3400,C#4,895.0,1.0,32,208.07
3401,G4,895.0,1.0,32,208.07
3402,E-4,895.0,1.0,32,208.07
3403,C#6,895.5,271/500,50,208.07
3404,G5,896.0,0.5,52,208.07
3405,C#4,896.0,0.5,37,208.07
3406,G4,896.0,0.5,37,208.07
3407,E-4,896.0,0.5,37,208.07
3408,G#5,897.0,2.0,65,208.07
3409,G#3,897.0,3.0,44,208.07
3410,G#4,898.0,1.0,35,208.07
3411,C4,898.0,1.0,35,208.07
3412,C5,899.0,167/1000,55,208.07
3413,G#4,899.0,1.0,47,208.07
3414,F4,899.0,1.0,47,208.07
3415,D5,899.167,167/1000,49,208.07
3416,C5,899.333,167/1000,65,208.07
3417,D5,899.5,167/1000,53,208.07
3418,C5,899.667,167/1000,67,208.07
3419,B4,899.833,167/1000,56,208.07
3420,B-4,900.0,521/1000,87,208.07
3421,B-3,900.0,1.0,86,208.07
3422,B-2,900.0,1.0,86,208.07
3423,D5,901.0,271/500,62,208.07
3424,F4,901.0,0.75,55,208.07
3425,G#4,901.0,0.75,55,208.07
3426,B-3,901.0,0.75,55,208.07
3427,E-5,901.5,271/500,62,208.07
3428,F5,902.0,0.75,67,208.07
3429,D5,902.0,0.75,67,208.07
3430,G#4,902.0,0.75,65,208.07
3431,B-3,902.0,0.75,65,208.07
3432,F4,902.0,0.75,65,208.07
3433,B-4,903.0,0.5,85,208.07
3434,E-3,903.0,1.0,74,208.07
3435,E-5,904.0,271/500,73,208.07
3436,E-4,904.0,0.75,57,208.07
3437,G4,904.0,0.75,57,208.07
3438,B-3,904.0,0.75,57,208.07
3439,F5,904.5,271/500,69,208.07
3440,E-5,905.0,0.75,76,208.07
3441,G5,905.0,0.75,76,208.07
3442,E-4,905.0,0.75,62,208.07
3443,G4,905.0,0.75,62,208.07
3444,B-3,905.0,0.75,62,208.07
3445,B-4,906.0,0.5,87,208.07
3446,D3,906.0,1.0,65,208.07
3447,F5,907.0,271/500,73,208.07
3448,F4,907.0,0.75,56,208.07
3449,B-3,907.0,0.75,56,208.07
3450,G#4,907.0,0.75,56,208.07
3451,G5,907.5,271/500,68,208.07
3452,F5,908.0,0.75,83,208.07
3453,G#5,908.0,0.75,83,208.07
3454,F4,908.0,0.75,69,208.07
3455,G#4,908.0,0.75,69,208.07
3456,B-3,908.0,0.75,69,208.07
3457,E-3,909.0,0.5,61,208.07
3458,C#5,909.0,2.0,77,208.07
3459,G5,909.0,2.0,77,208.07
3460,B-5,909.0,2.0,77,208.07
3461,G4,910.0,0.5,61,208.07
3462,B-3,910.0,0.5,61,208.07
3463,C#4,910.0,0.5,61,208.07
3464,E3,911.0,1.0,38,208.07
3465,G5,911.0,0.5,75,208.07
3466,C#5,911.0,0.5,75,208.07
3467,B-5,911.0,0.5,75,208.07
3468,G5,911.5,0.5,69,208.07
3469,C#5,911.5,0.5,69,208.07
3470,B-5,911.5,0.5,69,208.07
3471,B-5,912.0,521/500,70,208.07
3472,F3,912.0,0.5,38,208.07
3473,C#5,912.0,2.0,70,208.07
3474,G5,912.0,2.0,70,208.07
3475,C6,913.0,271/500,59,208.07
3476,F4,913.0,0.5,41,208.07
3477,G#3,913.0,0.5,41,208.07
3478,B-5,913.5,271/500,56,208.07
3479,G#2,914.0,0.5,36,208.07
3480,C5,914.0,0.5,53,208.07
3481,G#5,914.0,0.5,53,208.07
3482,B4,915.0,2.0,69,208.07
3483,G#5,915.0,521/500,69,208.07
3484,B-2,915.0,0.5,31,208.07
3485,B-5,916.0,271/500,47,208.07
3486,G3,916.0,0.75,27,208.07
3487,E-4,916.0,0.75,27,208.07
3488,G#5,916.5,271/500,45,208.07
3489,G5,917.0,0.5,52,208.07
3490,B-4,917.0,0.5,52,208.07
3491,G3,917.0,0.5,41,208.07
3492,E-4,917.0,0.5,41,208.07
3493,G5,918.0,521/500,66,208.07
3494,B-4,918.0,2.0,66,208.07
3495,B-2,918.0,0.5,39,208.07
3496,G#5,919.0,271/500,53,208.07
3497,F3,919.0,1.0,26,208.07
3498,D4,919.0,1.0,26,208.07
3499,G5,919.5,271/500,47,208.07
3500,F5,920.0,0.5,67,208.07
3501,G#4,920.0,0.5,67,208.07
3502,B-3,920.0,0.5,34,208.07
3503,D4,920.0,0.5,34,208.07
3504,F5,921.0,521/500,64,208.07
3505,G#4,921.0,2.0,64,208.07
3506,E-3,921.0,3.0,23,208.07
3507,G5,922.0,271/500,52,208.07
3508,B-3,922.0,1.0,33,208.07
3509,E-4,922.0,1.0,33,208.07
3510,F5,922.5,271/500,48,208.07
3511,E-5,923.0,0.5,53,208.07
3512,G4,923.0,0.5,53,208.07
3513,B-3,923.0,0.5,53,208.07
3514,E-4,923.0,0.5,53,208.07
3515,B-4,924.0,0.5,97,208.07
3516,B-5,924.0,0.5,97,208.07
3517,B-1,924.0,1.0,91,208.07
3518,B-2,924.0,1.0,91,208.07
3519,D5,925.0,271/500,57,208.07
3520,F4,925.0,0.75,54,208.07
3521,G#4,925.0,0.75,54,208.07
3522,B-3,925.0,0.75,54,208.07
3523,E-5,925.5,271/500,53,208.07
3524,D5,926.0,0.75,63,208.07
3525,F5,926.0,0.75,63,208.07
3526,G#4,926.0,0.75,58,208.07
3527,B-3,926.0,0.75,58,208.07
3528,F4,926.0,0.75,58,208.07
3529,B-5,927.0,0.5,97,208.07
3530,B-4,927.0,0.5,97,208.07
3531,E-3,927.0,1.0,92,208.07
3532,E-2,927.0,1.0,92,208.07
3533,E-5,928.0,271/500,60,208.07
3534,E-4,928.0,0.75,58,208.07
3535,G4,928.0,0.75,58,208.07
3536,B-3,928.0,0.75,58,208.07
3537,F5,928.5,271/500,57,208.07
3538,G5,929.0,0.75,68,208.07
3539,E-5,929.0,0.75,68,208.07
3540,G4,929.0,0.75,64,208.07
3541,E-4,929.0,0.75,64,208.07
3542,B-3,929.0,0.75,64,208.07
3543,B-4,930.0,0.5,96,208.07
3544,B-5,930.0,0.5,96,208.07
3545,B-3,930.0,1.0,91,208.07
3546,B-2,930.0,1.0,91,208.07
3547,F5,931.0,271/500,72,208.07
3548,G#4,931.0,0.75,66,208.07
3549,B-3,931.0,0.75,66,208.07
3550,F4,931.0,0.75,66,208.07
3551,G5,931.5,271/500,70,208.07
3552,G#5,932.0,0.75,80,208.07
3553,F5,932.0,0.75,80,208.07
3554,G#4,932.0,0.75,72,208.07
3555,F4,932.0,0.75,72,208.07
3556,B-3,932.0,0.75,72,208.07
3557,C#5,933.0,1.0,99,208.07
3558,G5,933.0,1.0,99,208.07
3559,B-5,933.0,1.0,99,208.07
3560,G4,933.0,1.0,90,208.07
3561,E-3,933.0,1.0,90,208.07
3562,C#4,933.0,1.0,90,208.07
3563,B-3,933.0,1.0,90,208.07
3564,E3,941.0,1.0,40,208.07
3565,C#5,941.0,0.5,49,208.07
3566,G5,941.0,0.5,49,208.07
3567,B-5,941.0,0.5,49,208.07
3568,B-5,941.5,0.5,49,208.07
3569,C#5,941.5,0.5,49,208.07
3570,G5,941.5,0.5,49,208.07
3571,B-5,942.0,521/500,55,208.07
3572,F3,942.0,0.5,48,208.07
3573,G5,942.0,2.0,55,208.07
3574,C#5,942.0,2.0,55,208.07
3575,C6,943.0,271/500,53,208.07
3576,F4,943.0,0.5,44,208.07
3577,G#3,943.0,0.5,44,208.07
3578,B-5,943.5,271/500,52,208.07
3579,G#2,944.0,0.5,44,208.07
3580,G#5,944.0,0.5,48,208.07
3581,C5,944.0,0.5,48,208.07
3582,B4,945.0,2.0,54,208.07
3583,G#5,945.0,521/500,54,208.07
3584,B-2,945.0,0.5,39,208.07
3585,B-5,946.0,271/500,51,208.07
3586,E-4,946.0,1.0,36,208.07
3587,G3,946.0,1.0,36,208.07
3588,G#5,946.5,271/500,48,208.07
3589,G5,947.0,0.5,45,208.07
3590,B-4,947.0,0.5,45,208.07
3591,E-4,947.0,1.0,36,208.07
3592,G3,947.0,1.0,36,208.07
3593,B-4,948.0,2.0,44,208.07
3594,G5,948.0,521/500,44,208.07
3595,B-2,948.0,0.5,35,208.07
3596,G#5,949.0,271/500,41,208.07
3597,D4,949.0,1.0,32,208.07
3598,B-3,949.0,1.0,32,208.07
3599,F3,949.0,1.0,32,208.07
3600,G5,949.5,271/500,38,208.07
3601,G#4,950.0,0.5,35,208.07
3602,F5,950.0,0.5,35,208.07
3603,F3,950.0,1.0,31,208.07
3604,D4,950.0,1.0,31,208.07
3605,B-3,950.0,1.0,31,208.07
3606,E-2,954.0,1.0,33,208.07
3607,B-2,955.0,1.0,29,208.07
3608,G3,955.0,1.0,29,208.07
3609,B-2,956.0,1.0,31,208.07
3610,G3,956.0,1.0,31,208.07
3611,E-2,957.0,1.0,32,208.07
3612,G3,958.0,1.0,29,208.07
3613,B-2,958.0,1.0,29,208.07
3614,B-2,959.0,1.0,31,208.07
3615,G3,959.0,1.0,31,208.07
3616,E-2,960.0,1.0,34,208.07
3617,B-2,961.0,1.0,29,208.07
3618,G3,961.0,1.0,29,208.07
3619,G3,962.0,1.0,32,208.07
3620,B-2,962.0,1.0,32,208.07
3621,E-2,963.0,1.0,33,208.07
3622,G3,964.0,1.0,30,208.07
3623,B-2,964.0,1.0,30,208.07
3624,B-2,965.0,1.0,32,208.07
3625,G3,965.0,1.0,32,208.07
3626,E-4,966.0,0.25,40,208.07
3627,E-2,966.0,1.0,33,208.07
3628,E-4,966.5,0.25,38,208.07
3629,E-4,967.0,0.25,40,208.07
3630,G3,967.0,1.0,29,208.07
3631,B-2,967.0,1.0,29,208.07
3632,E-4,967.5,0.25,37,208.07
3633,E-4,968.0,1.0,49,208.07
3634,B-2,968.0,1.0,31,208.07
3635,G3,968.0,1.0,31,208.07
3636,G3,969.0,0.5,39,208.07
3637,E-2,969.0,1.0,33,208.07
3638,B-3,969.5,0.5,39,208.07
3639,E-4,970.0,0.5,46,208.07
3640,B-2,970.0,0.75,30,208.07
3641,G3,970.0,0.75,30,208.07
3642,G4,970.5,0.5,45,208.07
3643,C5,971.0,0.875,55,208.07
3644,G3,971.0,0.75,30,208.07
3645,B-2,971.0,0.75,30,208.07
3646,C5,971.875,0.125,44,208.07
3647,B4,972.0,0.5,51,208.07
3648,E-2,972.0,1.0,36,208.07
3649,B4,972.875,0.125,39,208.07
3650,B-4,973.0,0.5,48,208.07
3651,C#4,973.0,0.75,33,208.07
3652,G3,973.0,0.75,33,208.07
3653,E-3,973.0,0.75,33,208.07
3654,B-4,973.875,0.125,39,208.07
3655,A4,974.0,0.5,46,208.07
3656,C#4,974.0,0.75,30,208.07
3657,G3,974.0,0.75,30,208.07
3658,E-3,974.0,0.75,30,208.07
3659,A4,974.875,0.125,35,208.07
3660,G#4,975.0,0.5,44,208.07
3661,E-3,975.0,0.75,33,208.07
3662,G3,975.0,0.75,33,208.07
3663,C#4,975.0,0.75,33,208.07
3664,G#4,975.875,0.125,33,208.07
3665,G4,976.0,0.5,41,208.07
3666,C#4,976.0,0.75,29,208.07
3667,G3,976.0,0.75,29,208.07
3668,E-3,976.0,0.75,29,208.07
3669,G4,976.875,0.125,32,208.07
3670,F4,977.0,0.5,39,208.07
3671,E-3,977.0,0.75,29,208.07
3672,G3,977.0,0.75,29,208.07
3673,C#4,977.0,0.75,29,208.07
3674,E-4,978.0,0.25,44,208.07
3675,E-2,978.0,1.0,36,208.07
3676,E-4,978.5,0.25,41,208.07
3677,E-4,979.0,0.25,44,208.07
3678,G#3,979.0,0.75,31,208.07
3679,C4,979.0,0.75,31,208.07
3680,E-3,979.0,0.75,31,208.07
3681,E-4,979.5,0.25,41,208.07
3682,E-4,980.0,1.0,53,208.07
3683,C4,980.0,0.75,31,208.07
3684,E-3,980.0,0.75,31,208.07
3685,G#3,980.0,0.75,31,208.07
3686,C4,981.0,0.5,42,208.07
3687,E-2,981.0,1.0,36,208.07
3688,E-4,981.5,0.5,42,208.07
3689,G#4,982.0,0.5,50,208.07
3690,C4,982.0,0.75,33,208.07
3691,E-3,982.0,0.75,33,208.07
3692,G#3,982.0,0.75,33,208.07
3693,C5,982.5,0.5,49,208.07
3694,F5,983.0,0.875,59,208.07
3695,C4,983.0,0.75,33,208.07
3696,G#3,983.0,0.75,33,208.07
3697,E-3,983.0,0.75,33,208.07
3698,G5,983.875,0.125,48,208.07
3699,F5,984.0,0.5,56,208.07
3700,E-2,984.0,1.0,39,208.07
3701,F5,984.875,0.125,42,208.07
3702,E5,985.0,0.5,52,208.07
3703,C4,985.0,0.75,36,208.07
3704,G#3,985.0,0.75,36,208.07
3705,E-3,985.0,0.75,36,208.07
3706,E5,985.875,0.125,42,208.07
3707,E-5,986.0,0.5,50,208.07
3708,C4,986.0,0.75,33,208.07
3709,G#3,986.0,0.75,33,208.07
3710,E-3,986.0,0.75,33,208.07
3711,E-5,986.875,0.125,38,208.07
3712,D5,987.0,0.5,48,208.07
3713,E-3,987.0,0.75,36,208.07
3714,G#3,987.0,0.75,36,208.07
3715,C4,987.0,0.75,36,208.07
3716,D5,987.875,0.125,36,208.07
3717,C#5,988.0,0.5,45,208.07
3718,C4,988.0,0.75,31,208.07
3719,G#3,988.0,0.75,31,208.07
3720,E-3,988.0,0.75,31,208.07
3721,C#5,988.875,0.125,35,208.07
3722,C5,989.0,0.5,42,208.07
3723,E-3,989.0,0.75,31,208.07
3724,G#3,989.0,0.75,31,208.07
3725,C4,989.0,0.75,31,208.07
3726,B4,990.0,0.125,48,208.07
3727,E-3,990.0,0.5,39,208.07
3728,E-2,990.0,0.5,39,208.07
3729,B4,990.25,0.125,45,208.07
3730,B4,990.5,0.125,48,208.07
3731,E-3,990.5,0.375,32,208.07
3732,G#3,990.5,0.375,32,208.07
3733,D4,990.5,0.375,32,208.07
3734,B4,990.75,0.125,37,208.07
3735,B4,991.0,0.125,48,208.07
3736,E-3,991.0,0.375,34,208.07
3737,G#3,991.0,0.375,34,208.07
3738,D4,991.0,0.375,34,208.07
3739,B4,991.25,0.125,42,208.07
3740,G#4,991.5,0.25,46,208.07
3741,E-2,991.5,0.5,39,208.07
3742,E-3,991.5,0.5,39,208.07
3743,B4,991.75,0.25,45,208.07
3744,D5,992.0,0.25,55,208.07
3745,E-3,992.0,0.375,35,208.07
3746,G#3,992.0,0.375,35,208.07
3747,D4,992.0,0.375,35,208.07
3748,F5,992.25,0.25,53,208.07
3749,B5,992.5,329/1000,70,208.07
3750,D4,992.5,0.375,36,208.07
3751,G#3,992.5,0.375,36,208.07
3752,E-3,992.5,0.375,36,208.07
3753,B5,992.938,0.062,52,208.07
3754,B-5,993.0,0.25,62,208.07
3755,E-2,993.0,0.5,40,208.07
3756,E-3,993.0,0.5,40,208.07
3757,B-5,993.438,0.062,53,208.07
3758,A5,993.5,0.25,65,208.07
3759,D4,993.5,0.375,39,208.07
3760,B3,993.5,0.375,39,208.07
3761,G#3,993.5,0.375,39,208.07
3762,E-3,993.5,0.375,39,208.07
3763,A5,993.938,0.062,54,208.07
3764,G#5,994.0,0.25,68,208.07
3765,D4,994.0,0.375,44,208.07
3766,B3,994.0,0.375,44,208.07
3767,G#3,994.0,0.375,44,208.07
3768,E-3,994.0,0.375,44,208.07
3769,G#5,994.438,0.062,59,208.07
3770,G5,994.5,0.25,70,208.07
3771,D4,994.5,0.375,46,208.07
3772,B3,994.5,0.375,46,208.07
3773,G#3,994.5,0.375,46,208.07
3774,E-3,994.5,0.375,46,208.07
3775,G5,994.938,0.062,60,208.07
3776,F#5,995.0,0.25,73,208.07
3777,D4,995.0,0.375,46,208.07
3778,B3,995.0,0.375,46,208.07
3779,G#3,995.0,0.375,46,208.07
3780,E-3,995.0,0.375,46,208.07
3781,F#5,995.438,0.062,65,208.07
3782,F5,995.5,0.125,76,208.07
3783,D4,995.5,0.375,50,208.07
3784,B3,995.5,0.375,50,208.07
3785,G#3,995.5,0.375,50,208.07
3786,E-3,995.5,0.375,50,208.07
3787,F5,995.938,0.062,70,208.07
3788,G6,996.0,0.25,88,208.07
3789,D4,996.0,0.375,47,208.07
3790,B3,996.0,0.375,47,208.07
3791,G#3,996.0,0.375,47,208.07
3792,E-3,996.0,0.375,47,208.07
3793,G6,996.438,0.062,71,208.07
3794,F6,996.5,0.25,80,208.07
3795,D4,996.5,0.375,38,208.07
3796,B3,996.5,0.375,38,208.07
3797,G#3,996.5,0.375,38,208.07
3798,E-3,996.5,0.375,38,208.07
3799,F6,996.938,0.062,70,208.07
3800,E6,997.0,0.25,80,208.07
3801,D4,997.0,0.375,45,208.07
3802,B3,997.0,0.375,45,208.07
3803,G#3,997.0,0.375,45,208.07
3804,E-3,997.0,0.375,45,208.07
3805,E6,997.438,0.062,69,208.07
3806,E-6,997.5,0.25,80,208.07
3807,D4,997.5,0.375,47,208.07
3808,B3,997.5,0.375,47,208.07
3809,G#3,997.5,0.375,47,208.07
3810,E-3,997.5,0.375,47,208.07
3811,E-6,997.938,0.062,72,208.07
3812,D6,998.0,0.25,80,208.07
3813,D4,998.0,0.375,38,208.07
3814,B3,998.0,0.375,38,208.07
3815,G#3,998.0,0.375,38,208.07
3816,E-3,998.0,0.375,38,208.07
3817,D6,998.438,0.062,70,208.07
3818,C#6,998.5,0.25,80,208.07
3819,D4,998.5,0.375,45,208.07
3820,B3,998.5,0.375,45,208.07
3821,G#3,998.5,0.375,45,208.07
3822,E-3,998.5,0.375,45,208.07
3823,C#6,998.938,0.062,70,208.07
3824,C6,999.0,0.25,80,208.07
3825,D4,999.0,0.375,45,208.07
3826,B-3,999.0,0.375,45,208.07
3827,G#3,999.0,0.375,45,208.07
3828,E-3,999.0,0.375,45,208.07
3829,C6,999.438,0.062,70,208.07
3830,B5,999.5,0.25,83,208.07
3831,D4,999.5,0.375,43,208.07
3832,B-3,999.5,0.375,43,208.07
3833,G#3,999.5,0.375,43,208.07
3834,E-3,999.5,0.375,43,208.07
3835,B5,999.938,0.062,71,208.07
3836,B-5,1000.0,0.25,86,208.07
3837,D4,1000.0,0.375,48,208.07
3838,B-3,1000.0,0.375,48,208.07
3839,G#3,1000.0,0.375,48,208.07
3840,E-3,1000.0,0.375,48,208.07
3841,B-5,1000.438,0.062,73,208.07
3842,A5,1000.5,0.25,89,208.07
3843,D4,1000.5,0.375,49,208.07
3844,B-3,1000.5,0.375,49,208.07
3845,G#3,1000.5,0.375,49,208.07
3846,E-3,1000.5,0.375,49,208.07
3847,A5,1000.938,0.062,77,208.07
3848,G#5,1001.0,0.25,92,208.07
3849,D4,1001.0,0.375,46,208.07
3850,B-3,1001.0,0.375,46,208.07
3851,G#3,1001.0,0.375,46,208.07
3852,E-3,1001.0,0.375,46,208.07
3853,G#5,1001.438,0.062,79,208.07
3854,F5,1001.5,0.25,95,208.07
3855,D4,1001.5,0.375,52,208.07
3856,B-3,1001.5,0.375,52,208.07
3857,G#3,1001.5,0.375,52,208.07
3858,E-3,1001.5,0.375,52,208.07
3859,E-6,1002.0,0.25,100,208.07
3860,E-5,1002.0,0.25,100,208.07
3861,E-2,1002.0,0.25,96,208.07
3862,E-3,1002.0,0.25,96,208.07
3863,G5,1002.5,0.25,75,208.07
3864,C#4,1002.5,0.375,74,208.07
3865,E-4,1002.5,0.375,74,208.07
3866,G4,1002.5,0.375,74,208.07
3867,B-4,1002.5,0.375,74,208.07
3868,G#5,1002.75,0.25,84,208.07
3869,G5,1003.0,0.375,87,208.07
3870,B-5,1003.0,0.375,87,208.07
3871,E-4,1003.0,0.375,80,208.07
3872,C#4,1003.0,0.375,80,208.07
3873,G4,1003.0,0.375,80,208.07
3874,B-4,1003.0,0.375,80,208.07
3875,E-6,1003.5,0.25,100,208.07
3876,E-5,1003.5,0.25,100,208.07
3877,E-2,1003.5,0.25,96,208.07
3878,E-3,1003.5,0.25,96,208.07
3879,F#5,1004.0,0.25,78,208.07
3880,A4,1004.0,0.375,76,208.07
3881,F#4,1004.0,0.375,76,208.07
3882,E-4,1004.0,0.375,76,208.07
3883,C4,1004.0,0.375,76,208.07
3884,G#5,1004.25,0.25,83,208.07
3885,F#5,1004.5,0.375,86,208.07
3886,A5,1004.5,0.375,86,208.07
3887,A4,1004.5,0.375,81,208.07
3888,F#4,1004.5,0.375,81,208.07
3889,E-4,1004.5,0.375,81,208.07
3890,C4,1004.5,0.375,81,208.07
3891,E-6,1005.0,0.25,100,208.07
3892,E-5,1005.0,0.25,100,208.07
3893,E-2,1005.0,0.25,96,208.07
3894,E-3,1005.0,0.25,96,208.07
3895,F5,1005.5,0.25,86,208.07
3896,B3,1005.5,0.375,78,208.07
3897,E-4,1005.5,0.375,78,208.07
3898,F4,1005.5,0.375,78,208.07
3899,G#4,1005.5,0.375,78,208.07
3900,G5,1005.75,0.25,82,208.07
3901,F5,1006.0,0.375,89,208.07
3902,G#5,1006.0,0.375,89,208.07
3903,B3,1006.0,0.375,83,208.07
3904,E-4,1006.0,0.375,83,208.07
3905,F4,1006.0,0.375,83,208.07
3906,G#4,1006.0,0.375,83,208.07
3907,B-4,1006.5,1.0,100,208.07
3908,B-5,1006.5,1.0,100,208.07
3909,G5,1006.5,1.0,100,208.07
3910,E-2,1006.5,0.5,98,208.07
3911,E-3,1006.5,0.5,98,208.07
3912,G4,1007.0,0.5,78,208.07
3913,E-4,1007.0,0.5,78,208.07
3914,B-3,1007.0,0.5,78,208.07
3915,G3,1007.0,0.5,78,208.07
3916,B-5,1007.5,0.25,95,208.07
3917,G5,1007.5,0.25,95,208.07
3918,B-4,1007.5,0.25,95,208.07
3919,G4,1007.5,0.5,84,208.07
3920,E-4,1007.5,0.5,84,208.07
3921,B-3,1007.5,0.5,84,208.07
3922,G3,1007.5,0.5,84,208.07
3923,B-5,1007.75,0.25,92,208.07
3924,G5,1007.75,0.25,92,208.07
3925,B-4,1007.75,0.25,92,208.07
3926,G5,1008.0,0.5,100,208.07
3927,B-4,1008.0,1.5,100,208.07
3928,B-5,1008.0,1.5,100,208.07
3929,B-1,1008.0,0.5,97,208.07
3930,B-2,1008.0,0.5,97,208.07
3931,G#5,1008.5,0.25,96,208.07
3932,F4,1008.5,0.375,78,208.07
3933,D4,1008.5,0.375,78,208.07
3934,B-3,1008.5,0.375,78,208.07
3935,G#3,1008.5,0.375,78,208.07
3936,G5,1008.75,0.25,91,208.07
3937,F5,1009.0,0.25,96,208.07
3938,F4,1009.0,0.25,84,208.07
3939,D4,1009.0,0.25,84,208.07
3940,B-3,1009.0,0.25,84,208.07
3941,G#3,1009.0,0.25,84,208.07
3942,F5,1009.5,0.5,94,208.07
3943,B-4,1009.5,1.5,94,208.07
3944,B-5,1009.5,1.5,94,208.07
3945,E-2,1009.5,0.5,85,208.07
3946,E-3,1009.5,0.5,85,208.07
3947,G5,1010.0,0.25,84,208.07
3948,E-4,1010.0,0.375,71,208.07
3949,B-3,1010.0,0.375,71,208.07
3950,G3,1010.0,0.375,71,208.07
3951,F5,1010.25,0.25,78,208.07
3952,E-5,1010.5,0.25,75,208.07
3953,E-4,1010.5,0.25,66,208.07
3954,B-3,1010.5,0.25,66,208.07
3955,G3,1010.5,0.25,66,208.07
3956,G5,1011.0,1.0,77,208.07
3957,B-4,1011.0,0.5,77,208.07
3958,B-2,1011.0,0.5,67,208.07
3959,B-3,1011.0,0.5,67,208.07
3960,C5,1011.5,0.25,69,208.07
3961,D4,1011.5,0.375,53,208.07
3962,G#3,1011.5,0.375,53,208.07
3963,B-3,1011.5,0.375,53,208.07
3964,F3,1011.5,0.375,53,208.07
3965,B-4,1011.75,0.25,58,208.07
3966,F5,1012.0,0.25,62,208.07
3967,G#4,1012.0,0.25,62,208.07
3968,D4,1012.0,0.25,56,208.07
3969,B-3,1012.0,0.25,56,208.07
3970,G#3,1012.0,0.25,56,208.07
3971,F3,1012.0,0.25,56,208.07
3972,F5,1012.5,1.0,71,208.07
3973,G#4,1012.5,0.5,71,208.07
3974,E-2,1012.5,0.5,63,208.07
3975,E-3,1012.5,0.5,63,208.07
3976,B-4,1013.0,0.25,62,208.07
3977,C#4,1013.0,0.375,42,208.07
3978,B-3,1013.0,0.375,42,208.07
3979,E-3,1013.0,0.375,42,208.07
3980,G#4,1013.25,0.25,52,208.07
3981,E-5,1013.5,0.25,56,208.07
3982,G4,1013.5,0.25,56,208.07
3983,C#4,1013.5,0.25,49,208.07
3984,B-3,1013.5,0.25,49,208.07
3985,E-3,1013.5,0.25,49,208.07
3986,E-4,1014.0,1.5,68,208.07
3987,E-5,1014.0,1.5,68,208.07
3988,G#2,1014.0,0.5,62,208.07
3989,G#3,1014.0,0.5,62,208.07
3990,G#4,1014.5,0.25,55,208.07
3991,C4,1014.5,0.375,47,208.07
3992,G#3,1014.5,0.375,47,208.07
3993,E-3,1014.5,0.375,47,208.07
3994,B-4,1014.75,0.25,57,208.07
3995,G#4,1015.0,0.25,59,208.07
3996,C5,1015.0,0.25,59,208.07
3997,C4,1015.0,0.25,51,208.07
3998,G#3,1015.0,0.25,51,208.07
3999,E-3,1015.0,0.25,51,208.07
4000,E-4,1015.5,1.5,65,208.07
4001,E-5,1015.5,1.5,65,208.07
4002,G#2,1015.5,0.5,59,208.07
4003,G#3,1015.5,0.5,59,208.07
4004,G#4,1016.0,0.25,51,208.07
4005,B3,1016.0,0.375,45,208.07
4006,G#3,1016.0,0.375,45,208.07
4007,E-3,1016.0,0.375,45,208.07
4008,B-4,1016.25,0.25,54,208.07
4009,G#4,1016.5,0.25,56,208.07
4010,B4,1016.5,0.25,56,208.07
4011,B3,1016.5,0.25,48,208.07
4012,G#3,1016.5,0.25,48,208.07
4013,E-3,1016.5,0.25,48,208.07
4014,E-2,1017.0,0.5,56,208.07
4015,E-4,1017.0,1.5,62,208.07
4016,E-5,1017.0,1.5,62,208.07
4017,G4,1017.5,0.25,46,208.07
4018,B-2,1017.5,0.375,45,208.07
4019,E-3,1017.5,0.375,45,208.07
4020,G3,1017.5,0.375,45,208.07
4021,G#4,1017.75,0.25,49,208.07
4022,G4,1018.0,0.25,51,208.07
4023,B-4,1018.0,0.25,51,208.07
4024,B-2,1018.0,0.25,48,208.07
4025,E-3,1018.0,0.25,48,208.07
4026,G3,1018.0,0.25,48,208.07
4027,E-2,1018.5,0.5,52,208.07
4028,B-3,1018.5,1.0,59,208.07
4029,G4,1018.5,1.0,59,208.07
4030,B-4,1018.5,1.0,59,208.07
4031,B-2,1019.0,0.375,41,208.07
4032,E-3,1019.0,0.375,41,208.07
4033,G3,1019.0,0.375,41,208.07
4034,B-3,1019.5,0.25,49,208.07
4035,G4,1019.5,0.25,49,208.07
4036,B-4,1019.5,0.25,49,208.07
4037,B-2,1019.5,0.375,45,208.07
4038,E-3,1019.5,0.375,45,208.07
4039,G3,1019.5,0.375,45,208.07
4040,B-3,1019.75,0.25,45,208.07
4041,G4,1019.75,0.25,45,208.07
4042,B-4,1019.75,0.25,45,208.07
4043,G4,1020.0,0.5,55,208.07
4044,E-2,1020.0,0.5,48,208.07
4045,B-3,1020.0,1.5,55,208.07
4046,B-4,1020.0,1.5,55,208.07
4047,G#4,1020.5,0.25,48,208.07
4048,G#3,1020.5,0.375,38,208.07
4049,D3,1020.5,0.375,38,208.07
4050,B-2,1020.5,0.375,38,208.07
4051,G4,1020.75,0.25,43,208.07
4052,F4,1021.0,0.25,48,208.07
4053,B-2,1021.0,0.25,44,208.07
4054,D3,1021.0,0.25,44,208.07
4055,G#3,1021.0,0.25,44,208.07
4056,F4,1021.5,0.5,55,208.07
4057,E-2,1021.5,0.5,46,208.07
4058,B-3,1021.5,1.5,52,208.07
4059,B-4,1021.5,1.5,52,208.07
4060,G4,1022.0,0.25,46,208.07
4061,B-2,1022.0,0.375,38,208.07
4062,E-3,1022.0,0.375,38,208.07
4063,G3,1022.0,0.375,38,208.07
4064,F4,1022.25,0.25,44,208.07
4065,E-4,1022.5,0.25,47,208.07
4066,G3,1022.5,0.25,41,208.07
4067,E-3,1022.5,0.25,41,208.07
4068,B-2,1022.5,0.25,41,208.07
4069,D4,1023.0,0.5,46,208.07
4070,B4,1023.0,0.125,50,208.07
4071,E-2,1023.0,0.5,46,208.07
4072,B4,1023.25,0.125,46,208.07
4073,B4,1023.5,0.125,50,208.07
4074,G#3,1023.5,0.375,31,208.07
4075,F3,1023.5,0.375,31,208.07
4076,B-2,1023.5,0.375,31,208.07
4077,B4,1023.75,0.125,45,208.07
4078,B4,1024.0,0.125,39,208.07
4079,B-2,1024.0,0.375,39,208.07
4080,F3,1024.0,0.375,39,208.07
4081,G#3,1024.0,0.375,39,208.07
4082,B4,1024.25,0.125,46,208.07
4083,B4,1024.5,0.25,48,208.07
4084,E-2,1024.5,0.5,43,208.07
4085,B-4,1024.75,0.25,43,208.07
4086,G4,1025.0,0.25,47,208.07
4087,B-2,1025.0,0.375,29,208.07
4088,E-3,1025.0,0.375,29,208.07
4089,G3,1025.0,0.375,29,208.07
4090,E-4,1025.25,0.25,41,208.07
4091,B-3,1025.5,0.25,46,208.07
4092,G3,1025.5,0.25,34,208.07
4093,E-3,1025.5,0.25,34,208.07
4094,B-2,1025.5,0.25,34,208.07
4095,G4,1026.0,0.5,55,208.07
4096,E-2,1026.0,0.5,48,208.07
4097,B-3,1026.0,1.5,55,208.07
4098,B-4,1026.0,1.5,55,208.07
4099,G#4,1026.5,0.25,42,208.07
4100,G#3,1026.5,0.375,38,208.07
4101,D3,1026.5,0.375,38,208.07
4102,B-2,1026.5,0.375,38,208.07
4103,G4,1026.75,0.25,45,208.07
4104,F4,1027.0,0.25,48,208.07
4105,B-2,1027.0,0.25,44,208.07
4106,D3,1027.0,0.25,44,208.07
4107,G#3,1027.0,0.25,44,208.07
4108,F4,1027.5,0.5,55,208.07
4109,E-2,1027.5,0.5,46,208.07
4110,B-3,1027.5,1.5,52,208.07
4111,B-4,1027.5,1.5,52,208.07
4112,G4,1028.0,0.25,46,208.07
4113,B-2,1028.0,0.375,37,208.07
4114,E-3,1028.0,0.375,37,208.07
4115,G3,1028.0,0.375,37,208.07
4116,F4,1028.25,0.25,44,208.07
4117,E-4,1028.5,0.25,40,208.07
4118,G3,1028.5,0.25,41,208.07
4119,E-3,1028.5,0.25,41,208.07
4120,B-2,1028.5,0.25,41,208.07
4121,D4,1029.0,0.25,50,208.07
4122,C5,1029.0,0.125,50,208.07
4123,E-2,1029.0,0.5,46,208.07
4124,C5,1029.25,0.125,48,208.07
4125,C5,1029.5,0.125,50,208.07
4126,G#3,1029.5,0.375,36,208.07
4127,F3,1029.5,0.375,36,208.07
4128,B-2,1029.5,0.375,36,208.07
4129,C5,1029.75,0.125,47,208.07
4130,C5,1030.0,0.125,44,208.07
4131,B-2,1030.0,0.375,39,208.07
4132,F3,1030.0,0.375,39,208.07
4133,G#3,1030.0,0.375,39,208.07
4134,C5,1030.25,0.125,47,208.07
4135,C5,1030.5,0.25,48,208.07
4136,E-2,1030.5,0.5,43,208.07
4137,B-4,1030.75,0.25,45,208.07
4138,G4,1031.0,0.25,47,208.07
4139,B-2,1031.0,0.375,33,208.07
4140,E-3,1031.0,0.375,33,208.07
4141,G3,1031.0,0.375,33,208.07
4142,E-4,1031.25,0.25,42,208.07
4143,B-3,1031.5,0.25,46,208.07
4144,G3,1031.5,0.25,36,208.07
4145,E-3,1031.5,0.25,36,208.07
4146,B-2,1031.5,0.25,36,208.07
4147,D4,1032.0,0.25,52,208.07
4148,B4,1032.0,0.125,52,208.07
4149,E-2,1032.0,0.5,46,208.07
4150,B4,1032.25,0.125,50,208.07
4151,B4,1032.5,0.125,53,208.07
4152,G#3,1032.5,0.375,40,208.07
4153,F3,1032.5,0.375,40,208.07
4154,B-2,1032.5,0.375,40,208.07
4155,B4,1032.75,0.125,51,208.07
4156,B4,1033.0,0.125,48,208.07
4157,B-2,1033.0,0.375,43,208.07
4158,F3,1033.0,0.375,43,208.07
4159,G#3,1033.0,0.375,43,208.07
4160,B4,1033.25,0.125,53,208.07
4161,B4,1033.5,0.25,56,208.07
4162,E-2,1033.5,0.5,48,208.07
4163,B-4,1033.75,0.25,53,208.07
4164,G#4,1034.0,0.25,57,208.07
4165,B-2,1034.0,0.375,42,208.07
4166,F3,1034.0,0.375,42,208.07
4167,G#3,1034.0,0.375,42,208.07
4168,F4,1034.25,0.25,56,208.07
4169,D4,1034.5,0.25,55,208.07
4170,G#3,1034.5,0.25,44,208.07
4171,F3,1034.5,0.25,44,208.07
4172,B-2,1034.5,0.25,44,208.07
4173,G5,1035.0,0.25,73,208.07
4174,E-2,1035.0,0.5,56,208.07
4175,F5,1035.25,0.25,59,208.07
4176,D5,1035.5,0.25,64,208.07
4177,B-2,1035.5,0.375,49,208.07
4178,F3,1035.5,0.375,49,208.07
4179,G#3,1035.5,0.375,49,208.07
4180,B4,1035.75,0.25,59,208.07
4181,G#4,1036.0,0.25,58,208.07
4182,G#3,1036.0,0.25,51,208.07
4183,F3,1036.0,0.25,51,208.07
4184,B-2,1036.0,0.25,51,208.07
4185,B5,1036.5,0.25,80,208.07
4186,E-2,1036.5,0.5,67,208.07
4187,G#5,1036.75,0.25,67,208.07
4188,F5,1037.0,0.25,71,208.07
4189,B-2,1037.0,0.375,56,208.07
4190,F3,1037.0,0.375,56,208.07
4191,G#3,1037.0,0.375,56,208.07
4192,D5,1037.25,0.25,67,208.07
4193,B4,1037.5,0.25,68,208.07
4194,G#3,1037.5,0.25,60,208.07
4195,F3,1037.5,0.25,60,208.07
4196,B-2,1037.5,0.25,60,208.07
4197,B6,1038.0,0.25,90,208.07
4198,E-2,1038.0,0.5,67,208.07
4199,E-3,1038.0,0.5,67,208.07
4200,G6,1038.25,0.25,74,208.07
4201,B6,1038.5,0.25,77,208.07
4202,D4,1038.5,0.5,61,208.07
4203,B3,1038.5,0.5,61,208.07
4204,G#3,1038.5,0.5,61,208.07
4205,E-3,1038.5,0.5,61,208.07
4206,G#6,1038.75,0.25,76,208.07
4207,F6,1039.0,0.25,74,208.07
4208,D6,1039.25,0.25,72,208.07
4209,B5,1039.5,0.25,80,208.07
4210,D4,1039.5,0.375,63,208.07
4211,B3,1039.5,0.375,63,208.07
4212,G#3,1039.5,0.375,63,208.07
4213,E-3,1039.5,0.375,63,208.07
4214,G5,1039.75,0.25,73,208.07
4215,B5,1040.0,0.25,77,208.07
4216,D4,1040.0,0.375,58,208.07
4217,B3,1040.0,0.375,58,208.07
4218,G#3,1040.0,0.375,58,208.07
4219,E-3,1040.0,0.375,58,208.07
4220,G#5,1040.25,0.25,76,208.07
4221,F5,1040.5,0.25,76,208.07
4222,D5,1040.75,0.25,75,208.07
4223,B4,1041.0,0.25,80,208.07
4224,D4,1041.0,0.375,63,208.07
4225,B3,1041.0,0.375,63,208.07
4226,G#3,1041.0,0.375,63,208.07
4227,E-3,1041.0,0.375,63,208.07
4228,G4,1041.25,0.25,73,208.07
4229,B-4,1041.5,0.25,75,208.07
4230,D4,1041.5,0.375,60,208.07
4231,B3,1041.5,0.375,60,208.07
4232,G#3,1041.5,0.375,60,208.07
4233,E-3,1041.5,0.375,60,208.07
4234,G#4,1041.75,0.25,74,208.07
4235,F4,1042.0,0.25,73,208.07
4236,D4,1042.25,0.25,72,208.07
4237,B3,1042.5,0.25,80,208.07
4238,G3,1042.75,0.25,73,208.07
4239,B3,1043.0,0.25,76,208.07
4240,G#3,1043.25,0.25,75,208.07
4241,F3,1043.5,0.25,75,208.07
4242,D3,1043.75,0.25,74,208.07
4243,E-3,1044.0,0.25,89,208.07
4244,E-1,1044.0,0.25,67,208.07
4245,E-2,1044.0,0.25,67,208.07
4246,G3,1044.5,0.25,50,208.07
4247,G#3,1044.75,0.25,50,208.07
4248,B-3,1045.0,0.25,50,208.07
4249,C4,1045.25,0.25,50,208.07
4250,D4,1045.5,0.25,50,208.07
4251,E-4,1045.75,0.25,50,208.07
4252,F4,1046.0,0.25,50,208.07
4253,G4,1046.25,0.25,50,208.07
4254,G#4,1046.5,0.25,50,208.07
4255,A4,1046.75,0.25,50,208.07
4256,C5,1047.0,0.25,53,208.07
4257,B-4,1047.25,0.25,50,208.07
4258,G4,1047.5,0.25,45,208.07
4259,E-4,1047.5,0.375,33,208.07
4260,B-3,1047.5,0.375,33,208.07
4261,G3,1047.5,0.375,33,208.07
4262,G#4,1047.75,0.25,45,208.07
4263,B-4,1048.0,0.25,46,208.07
4264,G4,1048.0,0.375,33,208.07
4265,E-4,1048.0,0.375,33,208.07
4266,B-3,1048.0,0.375,33,208.07
4267,G3,1048.0,0.375,33,208.07
4268,C5,1048.25,0.25,47,208.07
4269,D5,1048.5,0.25,50,208.07
4270,G4,1048.5,0.375,36,208.07
4271,E-4,1048.5,0.375,36,208.07
4272,B-3,1048.5,0.375,36,208.07
4273,G3,1048.5,0.375,36,208.07
4274,E-5,1048.75,0.25,50,208.07
4275,F5,1049.0,0.25,50,208.07
4276,G4,1049.0,0.375,33,208.07
4277,E-4,1049.0,0.375,33,208.07
4278,B-3,1049.0,0.375,33,208.07
4279,G3,1049.0,0.375,33,208.07
4280,G5,1049.25,0.25,49,208.07
4281,G#5,1049.5,0.25,51,208.07
4282,G4,1049.5,0.375,33,208.07
4283,E-4,1049.5,0.375,33,208.07
4284,B-3,1049.5,0.375,33,208.07
4285,G3,1049.5,0.375,33,208.07
4286,A5,1049.75,0.25,53,208.07
4287,C6,1050.0,0.25,59,208.07
4288,G4,1050.0,0.375,33,208.07
4289,E-4,1050.0,0.375,33,208.07
4290,B-3,1050.0,0.375,33,208.07
4291,G3,1050.0,0.375,33,208.07
4292,B-5,1050.25,0.25,55,208.07
4293,G5,1050.5,0.25,51,208.07
4294,G4,1050.5,0.375,30,208.07
4295,E-4,1050.5,0.375,30,208.07
4296,B-3,1050.5,0.375,30,208.07
4297,G3,1050.5,0.375,30,208.07
4298,G#5,1050.75,0.25,50,208.07
4299,B-5,1051.0,0.25,50,208.07
4300,G4,1051.0,0.375,30,208.07
4301,E-4,1051.0,0.375,30,208.07
4302,B-3,1051.0,0.375,30,208.07
4303,G3,1051.0,0.375,30,208.07
4304,C6,1051.25,0.25,51,208.07
4305,D6,1051.5,0.25,52,208.07
4306,G4,1051.5,0.375,33,208.07
4307,E-4,1051.5,0.375,33,208.07
4308,B-3,1051.5,0.375,33,208.07
4309,G3,1051.5,0.375,33,208.07
4310,E-6,1051.75,0.25,53,208.07
4311,F6,1052.0,0.25,54,208.07
4312,G4,1052.0,0.375,29,208.07
4313,E-4,1052.0,0.375,29,208.07
4314,B-3,1052.0,0.375,29,208.07
4315,G3,1052.0,0.375,29,208.07
4316,G6,1052.25,0.25,55,208.07
4317,G#6,1052.5,0.25,55,208.07
4318,G4,1052.5,0.375,29,208.07
4319,E-4,1052.5,0.375,29,208.07
4320,B-3,1052.5,0.375,29,208.07
4321,G3,1052.5,0.375,29,208.07
4322,A6,1052.75,0.25,56,208.07
4323,C7,1053.0,0.25,65,208.07
4324,G4,1053.0,0.375,33,208.07
4325,E-4,1053.0,0.375,33,208.07
4326,B-3,1053.0,0.375,33,208.07
4327,G3,1053.0,0.375,33,208.07
4328,B-6,1053.25,0.25,58,208.07
4329,G6,1053.5,0.25,55,208.07
4330,G4,1053.5,0.375,31,208.07
4331,E-4,1053.5,0.375,31,208.07
4332,B-3,1053.5,0.375,31,208.07
4333,G3,1053.5,0.375,31,208.07
4334,G#6,1053.75,0.25,51,208.07
4335,A6,1054.0,0.25,53,208.07
4336,G4,1054.0,0.375,31,208.07
4337,E-4,1054.0,0.375,31,208.07
4338,B-3,1054.0,0.375,31,208.07
4339,G3,1054.0,0.375,31,208.07
4340,B-6,1054.25,0.25,55,208.07
4341,C7,1054.5,0.25,64,208.07
4342,G4,1054.5,0.375,33,208.07
4343,E-4,1054.5,0.375,33,208.07
4344,B-3,1054.5,0.375,33,208.07
4345,G3,1054.5,0.375,33,208.07
4346,B-6,1054.75,0.25,59,208.07
4347,G6,1055.0,0.25,51,208.07
4348,G4,1055.0,0.375,30,208.07
4349,E-4,1055.0,0.375,30,208.07
4350,B-3,1055.0,0.375,30,208.07
4351,G3,1055.0,0.375,30,208.07
4352,G#6,1055.25,0.25,52,208.07
4353,A6,1055.5,0.25,54,208.07
4354,G4,1055.5,0.375,30,208.07
4355,E-4,1055.5,0.375,30,208.07
4356,B-3,1055.5,0.375,30,208.07
4357,G3,1055.5,0.375,30,208.07
4358,B-6,1055.75,0.25,55,208.07
4359,E-7,1056.0,0.25,57,208.07
4360,G4,1056.0,0.5,33,208.07
4361,E-4,1056.0,0.5,33,208.07
4362,B-3,1056.0,0.5,33,208.07
4363,G3,1056.0,0.5,33,208.07
4364,G6,1056.5,0.25,50,208.07
4365,G#6,1056.75,0.25,51,208.07
4366,A6,1057.0,0.25,53,208.07
4367,B-6,1057.25,0.25,55,208.07
4368,E-7,1057.5,0.25,57,208.07
4369,E-4,1057.5,0.5,29,208.07
4370,E-3,1057.5,0.5,29,208.07
4371,G3,1057.5,0.5,29,208.07
4372,G6,1058.0,0.25,46,208.07
4373,G#6,1058.25,0.25,48,208.07
4374,A6,1058.5,0.25,50,208.07
4375,B-6,1058.75,0.25,52,208.07
4376,E-7,1059.0,0.25,54,208.07
4377,G4,1059.0,0.5,31,208.07
4378,E-4,1059.0,0.5,31,208.07
4379,B-3,1059.0,0.5,31,208.07
4380,G3,1059.0,0.5,31,208.07
4381,G6,1059.5,0.25,49,208.07
4382,G#6,1059.75,0.25,50,208.07
4383,A6,1060.0,0.25,52,208.07
4384,B-6,1060.25,0.25,53,208.07
4385,E-7,1060.5,0.25,55,208.07
4386,B-3,1060.5,0.5,33,208.07
4387,G4,1060.5,0.5,33,208.07
4388,B-4,1060.5,0.5,33,208.07
4389,G6,1061.0,0.25,50,208.07
4390,G#6,1061.25,0.25,52,208.07
4391,A6,1061.5,0.25,55,208.07
4392,B-6,1061.75,0.25,57,208.07
4393,E-7,1062.0,0.25,59,208.07
4394,E-4,1062.0,0.5,36,208.07
4395,G4,1062.0,0.5,36,208.07
4396,E-5,1062.0,0.5,36,208.07
4397,G6,1062.5,0.25,50,208.07
4398,G#6,1062.75,0.25,51,208.07
4399,A6,1063.0,0.25,53,208.07
4400,B-6,1063.25,0.25,55,208.07
4401,E-7,1063.5,0.25,57,208.07
4402,B-3,1063.5,0.5,35,208.07
4403,G4,1063.5,0.5,35,208.07
4404,B-4,1063.5,0.5,35,208.07
4405,G6,1064.0,0.25,44,208.07
4406,G#6,1064.25,0.25,46,208.07
4407,A6,1064.5,0.25,48,208.07
4408,B-6,1064.75,0.25,50,208.07
4409,E-7,1065.0,0.25,53,208.07
4410,G5,1065.0,0.5,33,208.07
4411,E-5,1065.0,0.5,33,208.07
4412,G4,1065.0,0.5,33,208.07
4413,G6,1065.5,0.25,33,208.07
4414,G#6,1065.75,0.25,35,208.07
4415,A6,1066.0,0.25,37,208.07
4416,B-6,1066.25,0.25,39,208.07
4417,E-7,1066.5,0.25,42,208.07
4418,B-5,1066.5,0.5,28,208.07
4419,G5,1066.5,0.5,28,208.07
4420,B-4,1066.5,0.5,28,208.07
4421,G6,1067.0,0.25,30,208.07
4422,G#6,1067.25,0.25,31,208.07
4423,A6,1067.5,0.25,32,208.07
4424,B-6,1067.75,0.25,33,208.07
4425,E-7,1068.0,0.25,34,208.07
4426,G6,1068.0,0.25,34,208.07
4427,E-6,1068.0,0.5,24,208.07
4428,G5,1068.0,0.5,24,208.07
4429,G6,1071.0,0.25,85,208.07
4430,E-6,1071.0,0.25,85,208.07
4431,B-5,1071.0,0.25,85,208.07
4432,G5,1071.0,0.25,85,208.07
4433,E-4,1071.0,0.25,81,208.07
4434,B-4,1071.0,0.25,81,208.07
4435,E-5,1071.0,0.25,81,208.07
4436,G5,1072.5,0.25,85,208.07
4437,E-5,1072.5,0.25,85,208.07
4438,B-4,1072.5,0.25,85,208.07
4439,G4,1072.5,0.25,85,208.07
4440,E-4,1072.5,0.25,81,208.07
4441,B-3,1072.5,0.25,81,208.07
4442,E-3,1072.5,0.25,81,208.07
4443,G5,1073.0,0.25,85,208.07
4444,E-5,1073.0,0.25,85,208.07
4445,B-4,1073.0,0.25,85,208.07
4446,G4,1073.0,0.25,85,208.07
4447,E-3,1073.0,0.25,81,208.07
4448,B-3,1073.0,0.25,81,208.07
4449,E-4,1073.0,0.25,81,208.07
4450,G5,1073.5,0.25,85,208.07
4451,E-5,1073.5,0.25,85,208.07
4452,B-4,1073.5,0.25,85,208.07
4453,G4,1073.5,0.25,85,208.07
4454,E-4,1073.5,0.25,81,208.07
4455,B-3,1073.5,0.25,81,208.07
4456,E-3,1073.5,0.25,81,208.07
4457,E-3,1074.0,1.5,113,208.07
4458,E-1,1074.0,1.5,96,208.07
4459,E-2,1074.0,1.5,96,208.07
