,note_name,start_time,duration,velocity,tempo
0,B-3,0.002,1.0,41,133.5
1,B-2,0.002,1.0,41,133.5
2,A3,1.0,167/1000,29,133.5
3,A2,1.0,167/1000,27,133.5
4,B-3,1.167,167/1000,31,133.5
5,B-2,1.167,167/1000,28,133.5
6,C#4,1.333,167/1000,33,133.5
7,C#3,1.333,167/1000,29,133.5
8,F4,1.5,0.25,37,133.5
9,F3,1.5,0.25,33,133.5
10,A3,2.5,167/1000,29,133.5
11,A2,2.5,167/1000,26,133.5
12,B-3,2.667,167/1000,31,133.5
13,B-2,2.667,167/1000,27,133.5
14,C#4,2.833,167/1000,32,133.5
15,C#3,2.833,167/1000,29,133.5
16,F4,3.0,0.25,37,133.5
17,F3,3.0,0.25,32,133.5
18,B-3,6.0,0.25,100,133.5
19,B-1,6.0,0.25,95,133.5
20,B-2,6.0,0.25,95,133.5
21,F#6,7.5,1.5,87,133.5
22,B-5,7.5,1.5,87,133.5
23,B-6,7.5,1.5,87,133.5
24,B-3,7.5,1.5,80,133.5
25,C4,7.5,1.5,80,133.5
26,E-4,7.5,1.5,80,133.5
27,F#4,7.5,1.5,80,133.5
28,B-4,7.5,1.5,80,133.5
29,F#6,10.5,1.5,87,133.5
30,B-5,10.5,1.5,87,133.5
31,B-6,10.5,1.5,87,133.5
32,B-3,10.5,1.5,80,133.5
33,C4,10.5,1.5,80,133.5
34,E-4,10.5,1.5,80,133.5
35,F#4,10.5,1.5,80,133.5
36,B-4,10.5,1.5,80,133.5
37,E-5,12.0,0.75,58,133.5
38,C6,12.0,0.75,58,133.5
39,E-6,12.0,0.75,58,133.5
40,B-3,12.0,0.75,52,133.5
41,C4,12.0,0.75,52,133.5
42,E-4,12.0,0.75,52,133.5
43,F#4,12.0,0.75,52,133.5
44,B-4,12.0,0.75,52,133.5
45,C6,12.75,0.25,64,133.5
46,F5,12.75,0.25,64,133.5
47,F6,12.75,0.25,64,133.5
48,B-3,12.75,0.25,57,133.5
49,C4,12.75,0.25,57,133.5
50,E-4,12.75,0.25,57,133.5
51,F#4,12.75,0.25,57,133.5
52,B-4,12.75,0.25,57,133.5
53,F#6,13.0,0.5,67,133.5
54,F#5,13.0,0.5,67,133.5
55,C6,13.0,0.5,67,133.5
56,B-3,13.0,0.5,62,133.5
57,C4,13.0,0.5,62,133.5
58,E-4,13.0,0.5,62,133.5
59,F#4,13.0,0.5,62,133.5
60,B-4,13.0,0.5,62,133.5
61,C#6,13.5,0.5,64,133.5
62,F5,13.5,0.5,64,133.5
63,F6,13.5,0.5,64,133.5
64,B-3,13.5,0.5,57,133.5
65,C#4,13.5,0.5,57,133.5
66,F4,13.5,0.5,57,133.5
67,B-4,13.5,0.5,57,133.5
68,A3,14.5,167/1000,27,133.5
69,A2,14.5,167/1000,27,133.5
70,B-3,14.667,167/1000,29,133.5
71,B-2,14.667,167/1000,28,133.5
72,C#4,14.833,167/1000,30,133.5
73,C#3,14.833,167/1000,30,133.5
74,F4,15.0,0.25,35,133.5
75,F3,15.0,0.25,33,133.5
76,A3,16.0,167/1000,27,133.5
77,A2,16.0,167/1000,26,133.5
78,B-3,16.167,167/1000,29,133.5
79,B-2,16.167,167/1000,28,133.5
80,C#4,16.333,167/1000,30,133.5
81,C#3,16.333,167/1000,30,133.5
82,F4,16.5,0.25,35,133.5
83,F3,16.5,0.25,34,133.5
84,G#3,19.5,0.25,100,133.5
85,G#1,19.5,0.25,95,133.5
86,G#2,19.5,0.25,95,133.5
87,G#3,20.875,0.125,72,133.5
88,F4,20.938,0.062,76,133.5
89,C#5,21.0,1.5,89,133.5
90,G#3,21.0,1.5,72,133.5
91,F4,21.0,1.5,76,133.5
92,G#6,21.0,1.5,85,133.5
93,F6,21.0,1.5,85,133.5
94,G#5,21.0,1.5,85,133.5
95,C#5,22.5,1.5,89,133.5
96,G#3,22.5,1.5,72,133.5
97,F4,22.5,1.5,76,133.5
98,G#6,24.0,1.5,85,133.5
99,F6,24.0,1.5,85,133.5
100,G#5,24.0,1.5,85,133.5
101,G#3,24.0,0.75,56,133.5
102,E-4,24.0,0.75,56,133.5
103,F#4,24.0,0.75,56,133.5
104,G#4,24.0,0.75,56,133.5
105,G#3,24.75,0.25,60,133.5
106,E-4,24.75,0.25,60,133.5
107,F#4,24.75,0.25,60,133.5
108,G#4,24.75,0.25,60,133.5
109,G#3,25.0,0.5,65,133.5
110,E-4,25.0,0.5,65,133.5
111,F#4,25.0,0.5,65,133.5
112,G#4,25.0,0.5,65,133.5
113,C6,25.5,0.75,57,133.5
114,E-5,25.5,0.75,57,133.5
115,E-6,25.5,0.75,57,133.5
116,G#4,25.5,0.5,62,133.5
117,C#4,25.5,0.5,62,133.5
118,F4,25.5,0.5,62,133.5
119,C6,26.25,0.25,62,133.5
120,F6,26.25,0.25,62,133.5
121,F5,26.25,0.25,62,133.5
122,C6,26.5,0.5,66,133.5
123,F#6,26.5,0.5,66,133.5
124,F#5,26.5,0.5,66,133.5
125,F5,27.0,0.5,63,133.5
126,C#6,27.0,0.5,63,133.5
127,F6,27.0,0.5,63,133.5
128,F4,27.0,1.0,73,133.5
129,C4,27.0,1.0,73,133.5
130,F3,27.0,1.0,73,133.5
131,F5,28.5,1.0,81,133.5
132,A4,28.5,1.0,81,133.5
133,F2,28.5,1.0,73,133.5
134,C3,28.5,1.0,73,133.5
135,F3,28.5,1.0,73,133.5
136,A3,30.0,1.0,81,133.5
137,F4,30.0,1.0,81,133.5
138,F1,30.0,1.5,86,133.5
139,F2,30.0,1.5,86,133.5
140,F1,33.5,1.5,86,133.5
141,F2,33.5,1.5,86,133.5
142,F1,35.5,0.5,86,133.5
143,F2,35.5,0.5,86,133.5
144,F#1,36.0,0.375,90,133.5
145,F#2,36.0,0.375,90,133.5
146,A3,40.0,167/1000,27,133.5
147,B-3,40.167,167/1000,29,133.5
148,C#4,40.333,167/1000,30,133.5
149,F4,40.5,0.25,34,133.5
150,A2,41.0,167/1000,27,133.5
151,B-2,41.167,167/1000,28,133.5
152,C#3,41.333,167/1000,29,133.5
153,A3,41.5,167/1000,29,133.5
154,F3,41.5,0.25,33,133.5
155,B-3,41.667,167/1000,30,133.5
156,C#4,41.833,167/1000,31,133.5
157,F4,42.0,0.25,36,133.5
158,A2,42.5,167/1000,27,133.5
159,B-2,42.667,167/1000,28,133.5
160,C#3,42.833,167/1000,29,133.5
161,F3,43.0,0.25,33,133.5
162,B-3,45.0,0.25,100,133.5
163,B-2,46.0,0.25,95,133.5
164,B-1,46.0,0.25,95,133.5
165,F#6,46.5,1.5,87,133.5
166,B-6,46.5,1.5,87,133.5
167,B-5,46.5,1.5,87,133.5
168,E-4,47.5,1.5,80,133.5
169,B-3,47.5,1.5,80,133.5
170,C4,47.5,1.5,80,133.5
171,B-4,47.5,1.5,80,133.5
172,F#4,47.5,1.5,80,133.5
173,F#6,48.75,0.75,87,133.5
174,B-6,48.75,0.75,87,133.5
175,B-5,48.75,0.75,87,133.5
176,E-6,49.5,0.25,55,133.5
177,C6,49.5,0.25,55,133.5
178,E-5,49.5,0.25,55,133.5
179,C6,49.75,0.5,55,133.5
180,E-5,49.75,0.5,55,133.5
181,E-6,49.75,0.5,55,133.5
182,E-4,49.75,0.75,80,133.5
183,B-3,49.75,0.75,80,133.5
184,C4,49.75,0.75,80,133.5
185,B-4,49.75,0.75,80,133.5
186,F#4,49.75,0.75,80,133.5
187,E-5,50.25,0.75,58,133.5
188,C6,50.25,0.75,58,133.5
189,E-6,50.25,0.75,58,133.5
190,B-3,50.5,0.25,52,133.5
191,C4,50.5,0.25,52,133.5
192,E-4,50.5,0.25,52,133.5
193,F#4,50.5,0.25,52,133.5
194,B-4,50.5,0.25,52,133.5
195,B-3,50.75,0.5,52,133.5
196,C4,50.75,0.5,52,133.5
197,E-4,50.75,0.5,52,133.5
198,F#4,50.75,0.5,52,133.5
199,B-4,50.75,0.5,52,133.5
200,F6,51.0,0.25,64,133.5
201,C6,51.0,0.25,64,133.5
202,F5,51.0,0.25,64,133.5
203,C6,51.25,0.5,67,133.5
204,F#6,51.25,0.5,67,133.5
205,F#5,51.25,0.5,67,133.5
206,E-4,51.25,0.75,52,133.5
207,B-3,51.25,0.75,52,133.5
208,C4,51.25,0.75,52,133.5
209,F#4,51.25,0.75,52,133.5
210,B-4,51.25,0.75,52,133.5
211,C#6,51.75,0.5,64,133.5
212,F6,51.75,0.5,64,133.5
213,F5,51.75,0.5,64,133.5
214,C4,52.0,0.25,57,133.5
215,E-4,52.0,0.25,57,133.5
216,B-3,52.0,0.25,57,133.5
217,F#4,52.0,0.25,57,133.5
218,B-4,52.0,0.25,57,133.5
219,E-4,52.25,0.5,62,133.5
220,F#4,52.25,0.5,62,133.5
221,B-3,52.25,0.5,62,133.5
222,C4,52.25,0.5,62,133.5
223,B-4,52.25,0.5,62,133.5
224,A3,52.75,167/1000,29,133.5
225,F4,52.75,0.5,57,133.5
226,B-3,52.75,0.5,57,133.5
227,C#4,52.75,0.5,57,133.5
228,B-4,52.75,0.5,57,133.5
229,B-3,52.917,167/1000,30,133.5
230,C#4,53.083,167/1000,32,133.5
231,F4,53.25,0.25,37,133.5
232,A2,53.75,167/1000,27,133.5
233,B-2,53.917,167/1000,29,133.5
234,C#3,54.083,167/1000,30,133.5
235,A3,54.25,167/1000,29,133.5
236,F3,54.25,0.25,34,133.5
237,B-3,54.417,167/1000,30,133.5
238,C#4,54.583,167/1000,32,133.5
239,F4,54.75,0.25,37,133.5
240,A2,55.25,167/1000,24,133.5
241,B-2,55.417,167/1000,26,133.5
242,C#3,55.583,167/1000,27,133.5
243,F3,55.75,0.25,32,133.5
244,C3,57.75,0.25,100,133.5
245,C1,58.75,0.25,95,133.5
246,C2,58.75,0.25,95,133.5
247,C6,59.25,1.5,81,133.5
248,G#6,59.25,1.5,81,133.5
249,C7,59.25,1.5,81,133.5
250,G#4,60.25,1.5,76,133.5
251,C5,60.25,1.5,76,133.5
252,F4,60.25,1.5,76,133.5
253,C4,60.25,1.5,76,133.5
254,C6,62.25,1.5,81,133.5
255,G#6,62.25,1.5,81,133.5
256,C7,62.25,1.5,81,133.5
257,G#4,63.25,1.5,76,133.5
258,C5,63.25,1.5,76,133.5
259,F4,63.25,1.5,76,133.5
260,C4,63.25,1.5,76,133.5
261,E6,63.75,0.75,54,133.5
262,G5,63.75,0.75,54,133.5
263,G6,63.75,0.75,54,133.5
264,G#5,64.5,0.25,59,133.5
265,E6,64.5,0.25,59,133.5
266,G#6,64.5,0.25,59,133.5
267,E6,64.75,0.5,63,133.5
268,B-5,64.75,0.5,63,133.5
269,B-6,64.75,0.5,63,133.5
270,C4,64.75,0.75,50,133.5
271,B-4,64.75,0.75,50,133.5
272,E4,64.75,0.75,50,133.5
273,C5,64.75,0.75,50,133.5
274,G#5,65.25,0.5,60,133.5
275,G#6,65.25,0.5,60,133.5
276,F6,65.25,0.5,60,133.5
277,E4,65.5,0.25,54,133.5
278,C4,65.5,0.25,54,133.5
279,C5,65.5,0.25,54,133.5
280,B-4,65.5,0.25,54,133.5
281,B-4,65.75,0.5,58,133.5
282,C4,65.75,0.5,58,133.5
283,E4,65.75,0.5,58,133.5
284,C5,65.75,0.5,58,133.5
285,C5,66.25,0.5,59,133.5
286,F4,66.25,0.5,59,133.5
287,G#4,66.25,0.5,59,133.5
288,G#5,66.75,1.0,74,133.5
289,C5,66.75,1.0,74,133.5
290,G#4,66.75,1.0,74,133.5
291,F5,66.75,1.0,74,133.5
292,F3,67.75,1.0,73,133.5
293,F4,67.75,1.0,73,133.5
294,C4,67.75,1.0,73,133.5
295,G#4,68.25,1.0,74,133.5
296,G#3,68.25,1.0,74,133.5
297,C4,68.25,1.0,74,133.5
298,F4,68.25,1.0,74,133.5
299,F3,69.25,1.0,73,133.5
300,C3,69.25,1.0,73,133.5
301,F2,69.25,1.0,73,133.5
302,E1,70.75,1.5,86,133.5
303,E2,70.75,1.5,86,133.5
304,E1,74.25,1.5,86,133.5
305,E2,74.25,1.5,86,133.5
306,E1,76.25,0.5,86,133.5
307,E2,76.25,0.5,86,133.5
308,F1,76.75,0.375,90,133.5
309,F2,76.75,0.375,90,133.5
310,F7,77.25,1.5,97,133.5
311,F7,78.75,0.5,97,133.5
312,E-7,79.25,0.25,68,133.5
313,C#7,79.5,0.25,62,133.5
314,G#6,79.75,0.25,65,133.5
315,F6,80.0,0.25,59,133.5
316,E-6,80.25,0.25,62,133.5
317,C#6,80.5,0.25,57,133.5
318,G#5,80.75,0.25,58,133.5
319,C#1,80.75,0.25,78,133.5
320,C#2,80.75,0.25,78,133.5
321,F5,81.0,0.25,53,133.5
322,E-5,81.25,0.25,55,133.5
323,C#5,81.5,0.25,51,133.5
324,G#4,81.75,0.5,52,133.5
325,G#2,81.75,0.5,45,133.5
326,G#3,81.75,0.5,45,133.5
327,C#4,82.25,0.5,53,133.5
328,F3,82.25,0.5,53,133.5
329,C5,83.25,0.25,55,133.5
330,G#2,83.25,0.5,42,133.5
331,G#3,83.25,0.5,42,133.5
332,C#5,83.5,0.25,52,133.5
333,E-5,83.75,0.25,50,133.5
334,F3,83.75,0.5,47,133.5
335,C#4,83.75,0.5,47,133.5
336,F5,84.0,0.25,47,133.5
337,F#5,84.25,0.25,45,133.5
338,G#5,84.485,0.25,42,133.5
339,A5,84.75,0.25,40,133.5
340,A5,86.25,0.25,50,133.5
341,G#5,86.5,0.25,49,133.5
342,G5,86.75,0.25,47,133.5
343,G#1,86.75,0.25,48,133.5
344,G#2,86.75,0.25,48,133.5
345,F#5,87.0,0.25,46,133.5
346,F5,87.25,0.25,44,133.5
347,E5,87.5,0.25,42,133.5
348,E-5,87.75,0.25,41,133.5
349,F#4,88.25,0.5,38,133.5
350,G3,88.25,0.5,38,133.5
351,C4,88.25,0.5,38,133.5
352,G#3,88.75,0.5,35,133.5
353,C4,88.75,0.5,35,133.5
354,F#4,88.75,0.5,35,133.5
355,F7,89.25,1.5,97,133.5
356,F#4,89.25,0.25,31,133.5
357,G#3,89.25,0.25,31,133.5
358,C4,89.25,0.25,31,133.5
359,F7,90.75,0.5,97,133.5
360,E-7,91.25,0.25,68,133.5
361,A3,91.25,0.5,35,133.5
362,C4,91.25,0.5,35,133.5
363,F#4,91.25,0.5,35,133.5
364,C#7,91.5,0.25,60,133.5
365,G#6,91.75,0.25,65,133.5
366,F#4,91.75,0.5,32,133.5
367,C4,91.75,0.5,32,133.5
368,G#3,91.75,0.5,32,133.5
369,F6,92.0,0.25,58,133.5
370,E-6,92.25,0.25,62,133.5
371,F#4,92.25,0.25,28,133.5
372,C4,92.25,0.25,28,133.5
373,G#3,92.25,0.25,28,133.5
374,C#6,92.5,0.25,57,133.5
375,G#5,92.75,0.25,58,133.5
376,C#1,92.75,0.25,75,133.5
377,C#2,92.75,0.25,75,133.5
378,F5,93.0,0.25,53,133.5
379,E-5,93.25,0.25,55,133.5
380,C#5,93.5,0.25,49,133.5
381,G#4,93.75,0.5,52,133.5
382,G#2,93.75,0.5,45,133.5
383,G#3,93.75,0.5,45,133.5
384,C#4,94.25,0.5,53,133.5
385,F3,94.25,0.5,53,133.5
386,C5,95.25,0.25,42,133.5
387,G#2,95.25,0.5,42,133.5
388,G#3,95.25,0.5,42,133.5
389,C#5,95.5,0.25,41,133.5
390,E-5,95.75,0.25,41,133.5
391,F3,95.75,0.5,47,133.5
392,C#4,95.75,0.5,47,133.5
393,F5,96.0,0.25,40,133.5
394,F#5,96.25,0.25,39,133.5
395,G#5,96.485,0.25,38,133.5
396,A5,96.75,0.25,37,133.5
397,A5,98.25,0.25,42,133.5
398,G#5,98.5,0.25,41,133.5
399,G5,98.75,0.25,40,133.5
400,G#2,98.75,1.5,20,133.5
401,E-3,98.75,1.5,20,133.5
402,F#3,98.75,1.5,20,133.5
403,F#5,99.0,0.25,39,133.5
404,F5,99.25,0.25,37,133.5
405,E5,99.5,0.25,36,133.5
406,E-5,99.75,0.25,35,133.5
407,C4,100.25,0.25,32,133.5
408,C#4,100.5,0.25,32,133.5
409,E-4,100.75,0.25,32,133.5
410,F4,101.0,0.25,32,133.5
411,B4,101.25,1.5,38,133.5
412,F5,101.25,1.5,59,133.5
413,F#4,101.25,0.25,32,133.5
414,G#4,101.5,0.25,32,133.5
415,A4,101.75,0.25,32,133.5
416,B4,102.75,1.5,38,133.5
417,F5,102.75,0.5,59,133.5
418,E-5,103.25,0.75,53,133.5
419,A3,103.25,0.25,30,133.5
420,G#3,103.5,0.25,29,133.5
421,G3,103.75,0.25,28,133.5
422,C#5,104.0,229/1000,52,133.5
423,F#3,104.0,0.25,27,133.5
424,F3,104.25,0.25,26,133.5
425,B4,104.25,1.5,46,133.5
426,C#5,104.25,1.5,46,133.5
427,E-3,104.5,0.25,25,133.5
428,C#3,104.75,0.25,30,133.5
429,G#3,105.0,0.25,28,133.5
430,C#4,105.25,0.25,30,133.5
431,F4,105.5,0.25,34,133.5
432,B-4,105.75,1.5,56,133.5
433,F#5,105.75,1.5,56,133.5
434,C#4,105.75,0.25,31,133.5
435,G#3,106.0,0.25,30,133.5
436,C#3,106.25,0.25,28,133.5
437,B3,106.5,0.25,28,133.5
438,C#4,106.75,0.25,30,133.5
439,F4,107.0,0.25,31,133.5
440,B4,107.25,1.5,50,133.5
441,F#5,107.25,1.0,56,133.5
442,C#4,107.25,0.25,30,133.5
443,B3,107.5,0.25,29,133.5
444,F#3,107.75,0.25,28,133.5
445,B3,108.0,0.25,28,133.5
446,F5,108.25,479/1000,52,133.5
447,C#4,108.25,0.25,31,133.5
448,F#4,108.5,0.25,34,133.5
449,F5,108.75,0.5,51,133.5
450,B4,108.75,1.5,50,133.5
451,C#4,108.75,0.25,31,133.5
452,B3,109.0,0.25,29,133.5
453,E-5,109.25,0.5,50,133.5
454,C#3,109.25,0.25,30,133.5
455,B-3,109.5,0.25,28,133.5
456,C#5,109.75,0.5,49,133.5
457,C#4,109.75,0.25,30,133.5
458,F#4,110.0,0.25,33,133.5
459,C#4,110.25,0.25,31,133.5
460,B-4,110.25,1.5,48,133.5
461,C#5,110.25,1.5,48,133.5
462,B-5,110.25,1.5,48,133.5
463,B-3,110.5,0.25,30,133.5
464,G#3,110.75,0.25,30,133.5
465,B3,111.0,0.25,28,133.5
466,C#4,111.25,0.25,30,133.5
467,G#4,111.5,0.25,33,133.5
468,B-5,111.75,1.0,62,133.5
469,C#4,111.75,0.25,31,133.5
470,G#4,111.75,1.5,44,133.5
471,C#5,111.75,1.5,44,133.5
472,B3,112.0,0.25,29,133.5
473,C#3,112.25,0.25,30,133.5
474,B3,112.5,0.25,28,133.5
475,B-5,112.75,481/1000,64,133.5
476,C#4,112.75,0.25,30,133.5
477,F4,113.0,0.25,31,133.5
478,G4,113.125,0.125,44,133.5
479,C#5,113.25,1.5,45,133.5
480,B-5,113.25,1.0,68,133.5
481,C#4,113.25,0.25,30,133.5
482,B3,113.5,0.25,29,133.5
483,F#3,113.75,0.25,32,133.5
484,B-3,114.0,0.25,30,133.5
485,E-5,114.25,0.5,57,133.5
486,C#4,114.25,0.25,34,133.5
487,F#4,114.5,0.25,35,133.5
488,E-5,114.75,0.5,57,133.5
489,C#5,114.75,1.5,45,133.5
490,C#4,114.75,0.25,34,133.5
491,B-3,115.0,0.25,33,133.5
492,F5,115.25,0.125,51,133.5
493,E3,115.25,0.25,33,133.5
494,G5,115.375,0.125,51,133.5
495,F5,115.5,0.5,56,133.5
496,B-3,115.5,0.25,36,133.5
497,C#4,115.75,0.25,39,133.5
498,E-5,116.0,229/1000,56,133.5
499,G#4,116.0,0.25,37,133.5
500,C#4,116.25,0.25,34,133.5
501,C#5,116.25,1.5,54,133.5
502,E-5,116.25,1.5,54,133.5
503,B-3,116.5,0.25,31,133.5
504,E-3,116.75,0.25,36,133.5
505,B-3,117.0,0.25,38,133.5
506,C#4,117.25,0.25,41,133.5
507,G4,117.5,0.25,45,133.5
508,C5,117.75,1.5,53,133.5
509,G#5,117.75,1.5,64,133.5
510,C#4,117.75,0.25,42,133.5
511,B-3,118.0,0.25,39,133.5
512,G3,118.25,0.25,39,133.5
513,C#4,118.5,0.25,38,133.5
514,E-4,118.75,0.25,41,133.5
515,B-4,119.0,0.25,46,133.5
516,C#5,119.25,1.5,55,133.5
517,G#5,119.25,0.5,64,133.5
518,E-4,119.25,0.25,42,133.5
519,C#4,119.5,0.25,39,133.5
520,G5,119.75,0.5,60,133.5
521,G#3,119.75,0.25,38,133.5
522,C#4,120.0,0.25,38,133.5
523,F5,120.25,0.5,59,133.5
524,E-4,120.25,0.25,42,133.5
525,G#4,120.5,0.25,45,133.5
526,G5,120.75,0.5,60,133.5
527,C#5,120.75,1.5,55,133.5
528,E-4,120.75,0.25,41,133.5
529,C#4,121.0,0.25,38,133.5
530,F5,121.25,0.75,59,133.5
531,E-3,121.25,0.25,38,133.5
532,C4,121.5,0.25,37,133.5
533,E-4,121.75,0.25,40,133.5
534,E-5,122.0,0.25,56,133.5
535,G#4,122.0,0.25,44,133.5
536,C5,122.25,1.5,56,133.5
537,C6,122.25,1.5,56,133.5
538,E-4,122.25,0.25,41,133.5
539,C4,122.5,0.25,39,133.5
540,B-3,122.75,0.25,39,133.5
541,C#4,123.0,0.25,37,133.5
542,E-4,123.25,0.25,40,133.5
543,B-4,123.5,0.25,42,133.5
544,C6,123.75,1.0,64,133.5
545,C5,123.75,1.5,56,133.5
546,E-4,123.75,0.25,41,133.5
547,C#4,124.0,0.25,39,133.5
548,E-3,124.25,0.25,38,133.5
549,C#4,124.5,0.25,36,133.5
550,C6,124.75,479/1000,63,133.5
551,E-4,124.75,0.25,38,133.5
552,G4,125.0,0.25,40,133.5
553,C6,125.25,1.5,68,133.5
554,E-4,125.25,0.25,40,133.5
555,C#4,125.5,0.25,37,133.5
556,G#3,125.75,0.25,38,133.5
557,C4,126.0,0.25,40,133.5
558,E-4,126.25,0.25,44,133.5
559,G#4,126.5,0.25,45,133.5
560,C6,126.75,0.5,68,133.5
561,E-4,126.75,0.25,44,133.5
562,C4,127.0,0.25,42,133.5
563,B-5,127.25,0.75,63,133.5
564,G3,127.25,1.5,40,133.5
565,G#3,127.5,0.25,41,133.5
566,C4,127.75,0.25,45,133.5
567,G#5,128.0,229/1000,63,133.5
568,E-4,128.0,0.25,49,133.5
569,G#5,128.25,1.5,63,133.5
570,C4,128.25,0.25,47,133.5
571,G#3,128.5,0.25,41,133.5
572,F#3,128.75,1.5,36,133.5
573,G#3,129.0,0.25,36,133.5
574,C4,129.25,0.25,39,133.5
575,E-4,129.5,0.25,42,133.5
576,C#6,129.75,1.5,75,133.5
577,C4,129.75,0.25,41,133.5
578,G#3,130.0,0.25,38,133.5
579,F#3,130.25,1.5,38,133.5
580,G#3,130.5,0.25,41,133.5
581,C4,130.75,0.25,41,133.5
582,E-4,131.0,0.25,41,133.5
583,C#6,131.25,1.0,82,133.5
584,C4,131.25,0.25,38,133.5
585,G#3,131.5,0.25,35,133.5
586,F3,131.75,1.5,33,133.5
587,G#3,132.0,0.25,33,133.5
588,C6,132.25,0.5,78,133.5
589,C#4,132.25,0.25,36,133.5
590,F4,132.5,0.25,39,133.5
591,C6,132.75,0.5,75,133.5
592,C#4,132.75,0.25,37,133.5
593,G#3,133.0,0.25,35,133.5
594,B-5,133.25,0.75,71,133.5
595,F3,133.25,0.25,35,133.5
596,G#3,133.5,0.25,38,133.5
597,C#4,133.75,0.25,41,133.5
598,G#5,134.0,0.25,63,133.5
599,G#4,134.0,0.25,42,133.5
600,F6,134.25,1.5,80,133.5
601,C#4,134.25,0.25,40,133.5
602,G#3,134.5,0.25,37,133.5
603,E-3,134.75,0.25,35,133.5
604,G#3,135.0,0.25,38,133.5
605,C4,135.25,0.25,41,133.5
606,F#4,135.5,0.25,41,133.5
607,F6,135.75,1.0,77,133.5
608,C4,135.75,0.25,39,133.5
609,G#3,136.0,0.25,36,133.5
610,E-3,136.25,0.25,35,133.5
611,G#3,136.5,0.25,34,133.5
612,F6,136.75,479/1000,81,133.5
613,C4,136.75,0.25,37,133.5
614,F#4,137.0,0.25,39,133.5
615,F6,137.25,1.5,85,133.5
616,C4,137.25,0.25,36,133.5
617,G#3,137.5,0.25,31,133.5
618,D3,137.75,0.25,32,133.5
619,G#3,138.0,0.25,31,133.5
620,B3,138.25,0.25,35,133.5
621,F4,138.5,0.25,37,133.5
622,E-6,138.75,0.5,72,133.5
623,B3,138.75,0.25,36,133.5
624,G#3,139.0,0.25,34,133.5
625,C#6,139.25,0.5,71,133.5
626,D3,139.25,0.25,33,133.5
627,G#3,139.5,0.25,30,133.5
628,B-5,139.75,0.5,70,133.5
629,B-3,139.75,0.25,35,133.5
630,F4,140.0,0.25,37,133.5
631,C6,140.25,1.5,75,133.5
632,B-3,140.25,0.25,36,133.5
633,G#3,140.5,0.25,34,133.5
634,E-3,140.75,0.25,35,133.5
635,F#3,141.0,0.25,35,133.5
636,B-3,141.25,0.25,38,133.5
637,E-4,141.5,0.25,39,133.5
638,B-5,141.75,0.5,71,133.5
639,B-3,141.75,0.25,38,133.5
640,F#3,142.0,0.25,36,133.5
641,G#5,142.25,0.5,68,133.5
642,F#2,142.25,0.25,32,133.5
643,F#3,142.5,0.25,31,133.5
644,F5,142.75,0.5,63,133.5
645,B-3,142.75,0.25,36,133.5
646,E-4,143.0,0.25,38,133.5
647,B-5,143.25,0.5,69,133.5
648,B-3,143.25,0.25,36,133.5
649,F#3,143.5,0.25,34,133.5
650,G#5,143.75,0.5,64,133.5
651,G#2,143.75,0.25,34,133.5
652,F3,144.0,0.25,36,133.5
653,F#5,144.25,0.5,61,133.5
654,G#3,144.25,0.25,37,133.5
655,C#4,144.5,0.25,39,133.5
656,F#5,144.75,0.125,55,133.5
657,G#3,144.75,0.25,37,133.5
658,G#5,144.875,0.125,55,133.5
659,F#5,145.0,0.25,63,133.5
660,F3,145.0,0.25,35,133.5
661,F5,145.25,0.75,58,133.5
662,G#2,145.25,0.25,36,133.5
663,F3,145.5,0.25,34,133.5
664,G#3,145.75,0.25,35,133.5
665,E5,146.0,229/1000,59,133.5
666,C#4,146.0,0.25,38,133.5
667,E5,146.25,1.5,59,133.5
668,G#3,146.25,0.25,37,133.5
669,F3,146.5,0.25,36,133.5
670,G#2,146.75,0.25,36,133.5
671,F#3,147.0,0.25,34,133.5
672,G#3,147.25,0.25,36,133.5
673,C4,147.5,0.25,36,133.5
674,F5,147.75,1.0,63,133.5
675,G#3,147.75,0.25,35,133.5
676,F#3,148.0,0.25,34,133.5
677,G#2,148.25,0.25,34,133.5
678,F#3,148.5,0.25,31,133.5
679,G#5,148.75,0.5,57,133.5
680,G#3,148.75,0.25,35,133.5
681,C4,149.0,0.25,37,133.5
682,G#4,149.25,1.0,57,133.5
683,G#3,149.25,0.25,35,133.5
684,G#5,149.375,1.375,57,133.5
685,F#3,149.5,0.25,33,133.5
686,C#3,149.75,0.25,34,133.5
687,G#3,150.0,0.25,33,133.5
688,C5,150.25,0.5,63,133.5
689,C#4,150.25,0.25,36,133.5
690,F4,150.5,0.25,37,133.5
691,C6,150.75,0.5,63,133.5
692,C5,150.75,0.5,63,133.5
693,C#4,150.75,0.25,36,133.5
694,B-3,151.0,0.25,35,133.5
695,G#3,151.25,0.5,37,133.5
696,B-4,151.25,0.75,63,133.5
697,B-5,151.25,0.75,63,133.5
698,C#4,151.5,0.25,36,133.5
699,F4,151.75,0.25,39,133.5
700,G#4,152.0,0.25,40,133.5
701,G#4,152.0,229/1000,63,133.5
702,G#5,152.0,229/1000,63,133.5
703,G#4,152.25,1.5,63,133.5
704,G#5,152.25,1.5,63,133.5
705,F4,152.25,0.25,39,133.5
706,C#4,152.5,0.25,38,133.5
707,F#3,152.75,1.5,42,133.5
708,G#3,153.0,0.25,42,133.5
709,C4,153.25,0.25,42,133.5
710,E-4,153.5,0.25,42,133.5
711,G#5,153.75,1.5,63,133.5
712,C4,153.75,0.25,42,133.5
713,C#5,153.75,1.5,75,133.5
714,C#6,153.75,1.5,75,133.5
715,G#3,154.0,0.25,42,133.5
716,F#3,154.25,1.5,51,133.5
717,G#3,154.5,0.25,45,133.5
718,C4,154.75,0.25,45,133.5
719,E-4,155.0,0.25,45,133.5
720,G#5,155.25,1.5,60,133.5
721,C4,155.25,0.25,41,133.5
722,C#5,155.25,1.0,75,133.5
723,C#6,155.25,1.0,75,133.5
724,G#3,155.5,0.25,38,133.5
725,F3,155.75,1.5,37,133.5
726,G#3,156.0,0.25,36,133.5
727,C#4,156.25,0.25,39,133.5
728,C5,156.25,0.5,78,133.5
729,C6,156.25,0.5,78,133.5
730,F4,156.5,0.25,42,133.5
731,G#5,156.75,0.75,60,133.5
732,C#4,156.75,0.25,40,133.5
733,C5,156.75,0.75,75,133.5
734,C6,156.75,0.75,75,133.5
735,G#3,157.0,0.25,38,133.5
736,F3,157.25,0.25,39,133.5
737,G#3,157.5,0.25,41,133.5
738,B-4,157.5,0.25,71,133.5
739,B-5,157.5,0.25,71,133.5
740,C#4,157.75,0.25,45,133.5
741,G#4,157.75,0.5,63,133.5
742,G#5,157.75,0.5,63,133.5
743,G#4,158.0,0.25,46,133.5
744,C#4,158.25,0.25,44,133.5
745,G#5,158.25,1.5,76,133.5
746,F5,158.25,1.5,76,133.5
747,F6,158.25,1.5,76,133.5
748,G#3,158.5,0.25,40,133.5
749,E-3,158.75,0.25,39,133.5
750,G#3,159.0,0.25,41,133.5
751,C4,159.25,0.25,45,133.5
752,F#4,159.5,0.25,45,133.5
753,C4,159.75,0.25,42,133.5
754,F5,159.75,1.0,73,133.5
755,G#5,159.75,1.0,73,133.5
756,F6,159.75,1.0,73,133.5
757,G#3,160.0,0.25,39,133.5
758,E-3,160.25,0.25,37,133.5
759,G#3,160.5,0.25,37,133.5
760,C4,160.75,0.25,40,133.5
761,F5,160.75,479/1000,70,133.5
762,G#5,160.75,479/1000,70,133.5
763,F6,160.75,479/1000,70,133.5
764,F#4,161.0,0.25,42,133.5
765,C4,161.25,0.25,39,133.5
766,F5,161.25,1.5,78,133.5
767,G#5,161.25,1.5,78,133.5
768,F6,161.25,1.5,78,133.5
769,G#3,161.5,0.25,34,133.5
770,D3,161.75,0.25,39,133.5
771,G#3,162.0,0.25,37,133.5
772,B3,162.25,0.25,41,133.5
773,F4,162.5,0.25,44,133.5
774,B3,162.75,0.25,42,133.5
775,F#5,162.75,0.5,63,133.5
776,E-5,162.75,0.5,63,133.5
777,E-6,162.75,0.5,63,133.5
778,G#3,163.0,0.25,40,133.5
779,D3,163.25,0.25,35,133.5
780,C#5,163.25,0.75,62,133.5
781,F#5,163.25,0.75,62,133.5
782,C#6,163.25,0.75,62,133.5
783,G#3,163.5,0.25,36,133.5
784,B-3,163.75,0.25,41,133.5
785,F4,164.0,0.25,44,133.5
786,B-4,164.0,0.25,61,133.5
787,F#5,164.0,0.25,61,133.5
788,B-5,164.0,0.25,61,133.5
789,B-3,164.25,0.25,42,133.5
790,C5,164.25,1.5,59,133.5
791,G#5,164.25,1.5,59,133.5
792,C6,164.25,1.5,59,133.5
793,G#3,164.5,0.25,40,133.5
794,E-3,164.75,0.25,35,133.5
795,F#3,165.0,0.25,38,133.5
796,B-3,165.25,0.25,41,133.5
797,E-4,165.5,0.25,42,133.5
798,B-3,165.75,0.25,41,133.5
799,B-4,165.75,0.5,61,133.5
800,F#5,165.75,0.5,61,133.5
801,B-5,165.75,0.5,61,133.5
802,F#3,166.0,0.25,39,133.5
803,F#2,166.25,0.25,34,133.5
804,G#4,166.25,0.5,64,133.5
805,F5,166.25,0.5,64,133.5
806,G#5,166.25,0.5,64,133.5
807,F#3,166.5,0.25,34,133.5
808,B-3,166.75,0.25,39,133.5
809,B-4,166.75,0.5,68,133.5
810,F5,166.75,0.5,68,133.5
811,B-5,166.75,0.5,68,133.5
812,E-4,167.0,0.25,41,133.5
813,B-3,167.25,0.25,39,133.5
814,F5,167.25,1.0,73,133.5
815,B4,167.25,1.0,73,133.5
816,B5,167.25,1.0,73,133.5
817,F#3,167.5,0.25,37,133.5
818,G#2,167.75,0.25,36,133.5
819,F3,168.0,0.25,39,133.5
820,G#3,168.25,0.25,40,133.5
821,F5,168.25,0.5,71,133.5
822,B-4,168.25,0.5,71,133.5
823,B-5,168.25,0.5,71,133.5
824,C#4,168.5,0.25,42,133.5
825,G#3,168.75,0.25,40,133.5
826,B4,168.75,1.5,74,133.5
827,F5,168.75,1.5,74,133.5
828,B5,168.75,1.5,74,133.5
829,F3,169.0,0.25,38,133.5
830,G#2,169.25,0.25,35,133.5
831,F3,169.5,0.25,35,133.5
832,G#3,169.75,0.25,37,133.5
833,C#4,170.0,0.25,39,133.5
834,G#3,170.25,0.25,37,133.5
835,F3,170.5,0.25,35,133.5
836,G#2,170.75,0.25,35,133.5
837,F3,171.0,0.25,37,133.5
838,G#3,171.25,0.25,39,133.5
839,B4,171.25,1.0,74,133.5
840,F5,171.25,1.0,74,133.5
841,B5,171.25,1.0,74,133.5
842,D4,171.5,0.25,41,133.5
843,G#3,171.75,0.25,39,133.5
844,F3,172.0,0.25,36,133.5
845,G#2,172.25,0.25,37,133.5
846,B-4,172.25,0.5,72,133.5
847,F5,172.25,0.5,72,133.5
848,B-5,172.25,0.5,72,133.5
849,F3,172.5,0.25,39,133.5
850,G#3,172.75,0.25,43,133.5
851,B4,172.75,0.5,77,133.5
852,F5,172.75,0.5,77,133.5
853,B5,172.75,0.5,77,133.5
854,D4,173.0,0.25,48,133.5
855,G#3,173.25,0.25,45,133.5
856,B-4,173.25,0.5,74,133.5
857,F5,173.25,0.5,74,133.5
858,B-5,173.25,0.5,74,133.5
859,F3,173.5,0.25,41,133.5
860,G#2,173.75,0.25,39,133.5
861,B4,173.75,0.5,74,133.5
862,F5,173.75,0.5,74,133.5
863,B5,173.75,0.5,74,133.5
864,F3,174.0,0.25,40,133.5
865,G#3,174.25,0.25,43,133.5
866,B4,174.25,1.0,77,133.5
867,F#5,174.25,1.0,77,133.5
868,B5,174.25,1.0,77,133.5
869,D4,174.5,0.25,45,133.5
870,G#3,174.75,0.25,42,133.5
871,F3,175.0,0.25,36,133.5
872,G#2,175.25,0.25,39,133.5
873,B-4,175.25,0.5,78,133.5
874,F#5,175.25,0.5,78,133.5
875,B-5,175.25,0.5,78,133.5
876,F3,175.5,0.25,40,133.5
877,G#3,175.75,0.25,43,133.5
878,B-6,175.75,1.5,91,133.5
879,F#6,175.75,1.5,91,133.5
880,B-5,175.75,1.5,91,133.5
881,D4,176.0,0.25,47,133.5
882,G#3,176.25,0.25,44,133.5
883,F3,176.5,0.25,40,133.5
884,G#2,176.75,0.25,41,133.5
885,E-3,177.0,0.25,43,133.5
886,F#3,177.25,0.25,47,133.5
887,E-4,177.5,0.25,50,133.5
888,F#3,177.75,0.25,46,133.5
889,E-3,178.0,0.25,43,133.5
890,B-6,178.0,0.75,91,133.5
891,F#6,178.0,0.75,91,133.5
892,B-5,178.0,0.75,91,133.5
893,G#2,178.25,0.25,67,133.5
894,E-3,178.5,0.25,50,133.5
895,F#3,178.75,0.25,55,133.5
896,C6,178.75,229/1000,76,133.5
897,F#5,178.75,229/1000,76,133.5
898,C5,178.75,229/1000,76,133.5
899,E-4,179.0,0.25,58,133.5
900,C5,179.0,479/1000,76,133.5
901,F#5,179.0,479/1000,76,133.5
902,C6,179.0,479/1000,76,133.5
903,F#3,179.25,0.25,55,133.5
904,E-3,179.5,0.25,52,133.5
905,C5,179.5,0.75,88,133.5
906,F#5,179.5,0.75,88,133.5
907,C6,179.5,0.75,88,133.5
908,G#2,179.75,0.25,62,133.5
909,E-3,180.0,0.25,50,133.5
910,F#3,180.25,0.25,55,133.5
911,F6,180.25,0.25,84,133.5
912,G#5,180.25,0.25,84,133.5
913,F5,180.25,0.25,84,133.5
914,C4,180.5,0.25,58,133.5
915,E-6,180.5,0.5,87,133.5
916,F#5,180.5,0.5,87,133.5
917,E-5,180.5,0.5,87,133.5
918,F#3,180.75,0.25,55,133.5
919,E-3,181.0,0.25,51,133.5
920,C#6,181.0,0.25,99,133.5
921,F5,181.0,0.25,99,133.5
922,C#5,181.0,0.25,99,133.5
923,G#2,181.25,0.25,67,133.5
924,E-3,181.5,0.25,57,133.5
925,F#3,181.75,0.25,61,133.5
926,C4,182.0,0.25,65,133.5
927,F#3,182.25,0.25,62,133.5
928,F4,182.5,0.25,97,133.5
929,E-3,182.5,0.25,59,133.5
930,C#5,182.75,0.25,75,133.5
931,C#2,182.75,0.25,71,133.5
932,G#5,183.0,0.25,79,133.5
933,F5,183.25,0.25,83,133.5
934,C#6,183.5,0.25,87,133.5
935,B-6,183.75,0.25,91,133.5
936,G#2,183.75,0.25,70,133.5
937,F3,184.0,0.25,75,133.5
938,C6,184.0,0.5,91,133.5
939,G#6,184.0,0.5,91,133.5
940,C#4,184.25,0.5,83,133.5
941,F#4,185.5,0.25,97,133.5
942,C5,185.75,0.25,75,133.5
943,G#1,185.75,0.25,73,133.5
944,G#5,186.0,0.25,80,133.5
945,F#5,186.25,0.25,84,133.5
946,C6,186.5,0.25,88,133.5
947,G#6,186.75,0.25,93,133.5
948,G#2,186.75,0.25,68,133.5
949,E-3,187.0,0.25,74,133.5
950,C#6,187.0,0.5,92,133.5
951,F6,187.0,0.5,92,133.5
952,C4,187.25,0.5,84,133.5
953,F4,188.5,0.25,97,133.5
954,C#5,188.75,0.25,75,133.5
955,C#2,188.75,0.25,78,133.5
956,G#5,189.0,0.25,79,133.5
957,F5,189.25,0.25,83,133.5
958,C#6,189.5,0.25,87,133.5
959,B-6,189.75,0.25,91,133.5
960,G#2,189.75,0.25,70,133.5
961,F3,190.0,0.25,75,133.5
962,C6,190.0,0.5,91,133.5
963,G#6,190.0,0.5,91,133.5
964,C#4,190.25,0.5,83,133.5
965,F#4,191.5,0.25,97,133.5
966,C5,191.75,0.25,75,133.5
967,G#1,191.75,0.25,78,133.5
968,G#5,192.0,0.25,80,133.5
969,F#5,192.25,0.25,84,133.5
970,C6,192.5,0.25,88,133.5
971,G#6,192.75,0.25,93,133.5
972,G#2,192.75,0.25,68,133.5
973,E-3,193.0,0.25,74,133.5
974,C#6,193.0,0.5,92,133.5
975,F6,193.0,0.5,92,133.5
976,C4,193.25,0.5,84,133.5
977,F4,194.5,0.25,97,133.5
978,C#5,194.75,0.25,75,133.5
979,C#1,194.75,0.5,82,133.5
980,G#5,195.0,0.25,78,133.5
981,F5,195.25,0.25,75,133.5
982,C#6,195.5,0.25,79,133.5
983,G#6,195.75,0.25,75,133.5
984,G#2,195.75,0.25,68,133.5
985,C#6,196.0,0.25,78,133.5
986,F3,196.0,0.25,74,133.5
987,F5,196.25,0.25,75,133.5
988,C#4,196.25,0.5,84,133.5
989,G#5,196.5,0.25,80,133.5
990,C#5,196.75,0.25,75,133.5
991,F4,197.0,0.25,79,133.5
992,G#4,197.25,0.25,75,133.5
993,C#4,197.5,0.25,78,133.5
994,F3,197.75,0.25,77,133.5
995,G#3,198.0,0.25,82,133.5
996,C#3,198.25,0.25,79,133.5
997,F2,198.5,0.25,87,133.5
998,C#3,198.75,0.25,85,133.5
999,C#7,200.5,1.5,93,133.5
1000,C#6,200.5,1.5,93,133.5
1001,C#1,200.75,0.25,94,133.5
1002,C#2,200.75,0.25,94,133.5
1003,C#4,202.25,1.5,94,133.5
1004,C#5,202.25,1.5,94,133.5
1005,A3,206.0,167/1000,29,133.5
1006,B-3,206.167,167/1000,31,133.5
1007,C#4,206.333,167/1000,33,133.5
1008,F4,206.5,0.25,38,133.5
1009,A3,207.5,167/1000,29,133.5
1010,B-3,207.667,167/1000,31,133.5
1011,A2,207.75,167/1000,27,133.5
1012,C#4,207.833,167/1000,32,133.5
1013,B-2,207.917,167/1000,28,133.5
1014,F4,208.0,0.25,38,133.5
1015,C#3,208.083,167/1000,29,133.5
1016,F3,208.25,0.25,34,133.5
1017,A2,209.25,167/1000,26,133.5
1018,B-2,209.417,167/1000,27,133.5
1019,C#3,209.583,167/1000,29,133.5
1020,F3,209.75,0.25,34,133.5
1021,B-3,211.0,0.25,100,133.5
1022,B-6,212.5,1.5,87,133.5
1023,F#6,212.5,1.5,87,133.5
1024,B-5,212.5,1.5,87,133.5
1025,B-1,212.75,0.25,95,133.5
1026,B-2,212.75,0.25,95,133.5
1027,B-3,214.25,1.5,80,133.5
1028,C4,214.25,1.5,80,133.5
1029,E-4,214.25,1.5,80,133.5
1030,F#4,214.25,1.5,80,133.5
1031,B-4,214.25,1.5,80,133.5
1032,B-6,215.5,1.5,87,133.5
1033,F#6,215.5,1.5,87,133.5
1034,B-5,215.5,1.5,87,133.5
1035,E-5,217.0,0.75,58,133.5
1036,C6,217.0,0.75,58,133.5
1037,E-6,217.0,0.75,58,133.5
1038,B-3,217.25,1.5,80,133.5
1039,C4,217.25,1.5,80,133.5
1040,E-4,217.25,1.5,80,133.5
1041,F#4,217.25,1.5,80,133.5
1042,B-4,217.25,1.5,80,133.5
1043,F5,217.75,0.25,64,133.5
1044,C6,217.75,0.25,64,133.5
1045,F6,217.75,0.25,64,133.5
1046,F#5,218.0,0.5,67,133.5
1047,C6,218.0,0.5,67,133.5
1048,F#6,218.0,0.5,67,133.5
1049,F5,218.5,0.5,64,133.5
1050,C#6,218.5,0.5,64,133.5
1051,F6,218.5,0.5,64,133.5
1052,B-3,218.75,0.75,52,133.5
1053,C4,218.75,0.75,52,133.5
1054,E-4,218.75,0.75,52,133.5
1055,F#4,218.75,0.75,52,133.5
1056,B-4,218.75,0.75,52,133.5
1057,A3,219.5,167/1000,27,133.5
1058,B-3,219.5,0.25,57,133.5
1059,C4,219.5,0.25,57,133.5
1060,E-4,219.5,0.25,57,133.5
1061,F#4,219.5,0.25,57,133.5
1062,B-4,219.5,0.25,57,133.5
1063,B-3,219.667,167/1000,29,133.5
1064,B-3,219.75,0.5,62,133.5
1065,C4,219.75,0.5,62,133.5
1066,E-4,219.75,0.5,62,133.5
1067,F#4,219.75,0.5,62,133.5
1068,B-4,219.75,0.5,62,133.5
1069,C#4,219.833,167/1000,30,133.5
1070,F4,220.0,0.25,35,133.5
1071,B-3,220.25,0.5,57,133.5
1072,C#4,220.25,0.5,57,133.5
1073,F4,220.25,0.5,57,133.5
1074,B-4,220.25,0.5,57,133.5
1075,A3,221.0,167/1000,27,133.5
1076,B-3,221.167,167/1000,29,133.5
1077,A2,221.25,167/1000,27,133.5
1078,C#4,221.333,167/1000,30,133.5
1079,B-2,221.417,167/1000,28,133.5
1080,F4,221.5,0.25,35,133.5
1081,C#3,221.583,167/1000,30,133.5
1082,F3,221.75,0.25,35,133.5
1083,A2,222.75,167/1000,26,133.5
1084,B-2,222.917,167/1000,28,133.5
1085,C#3,223.083,167/1000,30,133.5
1086,F3,223.25,0.25,34,133.5
1087,G#3,224.5,0.25,100,133.5
1088,G#6,226.0,1.5,85,133.5
1089,F6,226.0,1.5,85,133.5
1090,G#5,226.0,1.5,85,133.5
1091,G#1,226.25,0.25,95,133.5
1092,G#2,226.25,0.25,95,133.5
1093,G#3,227.625,0.125,75,133.5
1094,F4,227.688,0.062,89,133.5
1095,C#5,227.75,1.5,89,133.5
1096,G#3,227.75,1.5,75,133.5
1097,F4,227.75,1.5,89,133.5
1098,G#6,229.0,1.5,85,133.5
1099,F6,229.0,1.5,85,133.5
1100,G#5,229.0,1.5,85,133.5
1101,C#5,229.25,1.5,89,133.5
1102,G#3,229.25,1.5,75,133.5
1103,F4,229.25,1.5,89,133.5
1104,E-5,230.5,3/10,57,133.5
1105,C6,230.5,3/10,57,133.5
1106,E-6,230.5,3/10,57,133.5
1107,G#3,230.75,3/10,50,133.5
1108,E-4,230.75,3/10,50,133.5
1109,F#4,230.75,3/10,50,133.5
1110,G#4,230.75,3/10,50,133.5
1111,C6,230.8,3/10,57,133.5
1112,E5,230.8,3/10,57,133.5
1113,E6,230.8,3/10,57,133.5
1114,F#4,231.05,3/10,50,133.5
1115,E-4,231.05,3/10,50,133.5
1116,G#3,231.05,3/10,50,133.5
1117,G#4,231.05,3/10,50,133.5
1118,F5,231.1,3/10,62,133.5
1119,C6,231.1,3/10,62,133.5
1120,F6,231.1,3/10,62,133.5
1121,G#4,231.35,3/10,52,133.5
1122,F#4,231.35,3/10,52,133.5
1123,E-4,231.35,3/10,52,133.5
1124,G#3,231.35,3/10,52,133.5
1125,G#5,231.4,3/10,68,133.5
1126,C6,231.4,3/10,68,133.5
1127,G#6,231.4,3/10,68,133.5
1128,G#4,231.65,3/10,58,133.5
1129,F#4,231.65,3/10,58,133.5
1130,E-4,231.65,3/10,58,133.5
1131,G#3,231.65,3/10,58,133.5
1132,F#6,231.7,3/10,70,133.5
1133,C6,231.7,3/10,70,133.5
1134,F#5,231.7,3/10,70,133.5
1135,G#4,231.95,3/10,56,133.5
1136,F#4,231.95,3/10,56,133.5
1137,E-4,231.95,3/10,56,133.5
1138,G#3,231.95,3/10,56,133.5
1139,F5,232.0,0.5,63,133.5
1140,C#6,232.0,0.5,63,133.5
1141,F6,232.0,0.5,63,133.5
1142,G#4,232.25,0.5,55,133.5
1143,C#4,232.25,0.5,55,133.5
1144,F4,232.25,0.5,55,133.5
1145,A4,233.5,1.0,81,133.5
1146,F5,233.5,1.0,81,133.5
1147,F4,233.75,1.0,77,133.5
1148,C4,233.75,1.0,77,133.5
1149,F3,233.75,1.0,77,133.5
1150,A3,235.0,1.0,81,133.5
1151,F4,235.0,1.0,81,133.5
1152,F2,235.25,1.0,77,133.5
1153,C3,235.25,1.0,77,133.5
1154,F3,235.25,1.0,77,133.5
1155,F1,236.75,1.5,86,133.5
1156,F2,236.75,1.5,86,133.5
1157,F1,240.25,1.5,86,133.5
1158,F2,240.25,1.5,86,133.5
1159,F1,242.25,0.5,86,133.5
1160,F2,242.25,0.5,86,133.5
1161,F#1,242.75,0.375,90,133.5
1162,F#2,242.75,0.375,90,133.5
1163,A3,245.0,167/1000,27,133.5
1164,B-3,245.167,167/1000,29,133.5
1165,C#4,245.333,167/1000,30,133.5
1166,F4,245.5,0.25,35,133.5
1167,A3,246.5,167/1000,29,133.5
1168,B-3,246.667,167/1000,30,133.5
1169,C#4,246.833,167/1000,31,133.5
1170,F4,247.0,0.25,35,133.5
1171,A2,247.75,167/1000,27,133.5
1172,B-2,247.917,167/1000,28,133.5
1173,C#3,248.083,167/1000,29,133.5
1174,F3,248.25,0.25,34,133.5
1175,A2,249.25,167/1000,27,133.5
1176,B-2,249.417,167/1000,28,133.5
1177,C#3,249.583,167/1000,29,133.5
1178,F3,249.75,0.25,34,133.5
1179,B-3,250.0,0.25,100,133.5
1180,B-5,251.5,1.5,87,133.5
1181,F#6,251.5,1.5,87,133.5
1182,B-6,251.5,1.5,87,133.5
1183,B-2,252.75,0.25,95,133.5
1184,B-1,252.75,0.25,95,133.5
1185,B-5,253.75,0.75,87,133.5
1186,F#6,253.75,0.75,87,133.5
1187,B-6,253.75,0.75,87,133.5
1188,E-4,254.25,1.5,80,133.5
1189,B-3,254.25,1.5,80,133.5
1190,C4,254.25,1.5,80,133.5
1191,B-4,254.25,1.5,80,133.5
1192,F#4,254.25,1.5,80,133.5
1193,E-6,254.5,0.25,55,133.5
1194,C6,254.5,0.25,55,133.5
1195,E-5,254.5,0.25,55,133.5
1196,E-6,254.75,0.5,55,133.5
1197,C6,254.75,0.5,55,133.5
1198,E-5,254.75,0.5,55,133.5
1199,E-5,255.25,0.75,58,133.5
1200,C6,255.25,0.75,58,133.5
1201,E-6,255.25,0.75,58,133.5
1202,C6,256.0,0.25,64,133.5
1203,F6,256.0,0.25,64,133.5
1204,F5,256.0,0.25,64,133.5
1205,C6,256.25,0.5,67,133.5
1206,F#5,256.25,0.5,67,133.5
1207,F#6,256.25,0.5,67,133.5
1208,E-4,256.5,0.75,80,133.5
1209,B-3,256.5,0.75,80,133.5
1210,C4,256.5,0.75,80,133.5
1211,B-4,256.5,0.75,80,133.5
1212,F#4,256.5,0.75,80,133.5
1213,C#6,256.75,0.5,64,133.5
1214,F5,256.75,0.5,64,133.5
1215,F6,256.75,0.5,64,133.5
1216,B-3,257.25,0.25,52,133.5
1217,C4,257.25,0.25,52,133.5
1218,E-4,257.25,0.25,52,133.5
1219,F#4,257.25,0.25,52,133.5
1220,B-4,257.25,0.25,52,133.5
1221,B-3,257.5,0.5,52,133.5
1222,C4,257.5,0.5,52,133.5
1223,E-4,257.5,0.5,52,133.5
1224,F#4,257.5,0.5,52,133.5
1225,B-4,257.5,0.5,52,133.5
1226,A3,257.75,167/1000,29,133.5
1227,B-3,257.917,167/1000,30,133.5
1228,E-4,258.0,0.75,52,133.5
1229,B-3,258.0,0.75,52,133.5
1230,C4,258.0,0.75,52,133.5
1231,F#4,258.0,0.75,52,133.5
1232,B-4,258.0,0.75,52,133.5
1233,C#4,258.083,167/1000,32,133.5
1234,F4,258.25,0.25,37,133.5
1235,C4,258.75,0.25,57,133.5
1236,E-4,258.75,0.25,57,133.5
1237,B-3,258.75,0.25,57,133.5
1238,F#4,258.75,0.25,57,133.5
1239,B-4,258.75,0.25,57,133.5
1240,E-4,259.0,0.5,62,133.5
1241,F#4,259.0,0.5,62,133.5
1242,B-3,259.0,0.5,62,133.5
1243,C4,259.0,0.5,62,133.5
1244,B-4,259.0,0.5,62,133.5
1245,A3,259.25,167/1000,29,133.5
1246,B-3,259.417,167/1000,30,133.5
1247,F4,259.5,0.5,57,133.5
1248,B-3,259.5,0.5,57,133.5
1249,C#4,259.5,0.5,57,133.5
1250,B-4,259.5,0.5,57,133.5
1251,C#4,259.583,167/1000,32,133.5
1252,F4,259.75,0.25,37,133.5
1253,A2,260.5,167/1000,27,133.5
1254,B-2,260.667,167/1000,29,133.5
1255,C#3,260.833,167/1000,30,133.5
1256,F3,261.0,0.25,35,133.5
1257,A2,262.0,167/1000,24,133.5
1258,B-2,262.167,167/1000,26,133.5
1259,C#3,262.333,167/1000,27,133.5
1260,F3,262.5,0.25,34,133.5
1261,C3,262.75,0.25,100,133.5
1262,C6,264.25,1.5,85,133.5
1263,G#6,264.25,1.5,85,133.5
1264,C7,264.25,1.5,85,133.5
1265,C1,265.5,0.25,95,133.5
1266,C2,265.5,0.25,95,133.5
1267,G#4,267.0,1.5,86,133.5
1268,C5,267.0,1.5,86,133.5
1269,F4,267.0,1.5,86,133.5
1270,C4,267.0,1.5,86,133.5
1271,C6,267.25,1.5,85,133.5
1272,G#6,267.25,1.5,85,133.5
1273,C7,267.25,1.5,85,133.5
1274,G6,268.75,0.375,69,133.5
1275,C#7,268.75,0.375,69,133.5
1276,C#6,268.75,0.375,69,133.5
1277,C6,269.125,0.375,67,133.5
1278,G6,269.125,0.375,67,133.5
1279,C7,269.125,0.375,67,133.5
1280,F6,269.5,0.375,63,133.5
1281,F5,269.5,0.375,63,133.5
1282,C6,269.5,0.375,63,133.5
1283,G6,269.875,0.375,64,133.5
1284,C6,269.875,0.375,64,133.5
1285,G5,269.875,0.375,64,133.5
1286,G#4,270.0,1.5,86,133.5
1287,C5,270.0,1.5,86,133.5
1288,F4,270.0,1.5,86,133.5
1289,C4,270.0,1.5,86,133.5
1290,G#6,270.25,0.5,69,133.5
1291,C6,270.25,0.5,69,133.5
1292,G#5,270.25,0.5,69,133.5
1293,C4,271.5,0.375,66,133.5
1294,B-4,271.5,0.375,66,133.5
1295,E4,271.5,0.375,66,133.5
1296,C5,271.5,0.375,66,133.5
1297,C5,271.75,1.0,78,133.5
1298,G#5,271.75,1.0,78,133.5
1299,G#4,271.75,1.0,78,133.5
1300,F5,271.75,1.0,78,133.5
1301,C4,271.875,0.375,60,133.5
1302,E4,271.875,0.375,60,133.5
1303,B-4,271.875,0.375,60,133.5
1304,C5,271.875,0.375,60,133.5
1305,E4,272.25,0.375,58,133.5
1306,C4,272.25,0.375,58,133.5
1307,C5,272.25,0.375,58,133.5
1308,B-4,272.25,0.375,58,133.5
1309,C5,272.625,0.375,60,133.5
1310,E4,272.625,0.375,60,133.5
1311,C4,272.625,0.375,60,133.5
1312,B-4,272.625,0.375,60,133.5
1313,C5,273.0,0.5,68,133.5
1314,F4,273.0,0.5,68,133.5
1315,G#4,273.0,0.5,68,133.5
1316,C4,273.25,1.0,78,133.5
1317,G#4,273.25,1.0,78,133.5
1318,G#3,273.25,1.0,78,133.5
1319,F4,273.25,1.0,78,133.5
1320,F3,274.5,1.0,73,133.5
1321,F4,274.5,1.0,73,133.5
1322,C4,274.5,1.0,73,133.5
1323,F3,276.0,1.0,73,133.5
1324,C3,276.0,1.0,73,133.5
1325,F2,276.0,1.0,73,133.5
1326,E1,277.5,1.5,86,133.5
1327,E2,277.5,1.5,86,133.5
1328,F2,277.75,1.5,94,133.5
1329,D2,279.25,0.188,50,133.5
1330,E-2,279.417,0.188,51,133.5
1331,F2,279.583,0.188,51,133.5
1332,E-2,279.75,0.188,52,133.5
1333,F2,279.917,0.188,53,133.5
1334,E-2,280.083,0.188,55,133.5
1335,F2,280.25,0.188,56,133.5
1336,E-2,280.417,0.188,56,133.5
1337,E1,280.5,1.5,86,133.5
1338,E2,280.5,1.5,86,133.5
1339,F2,280.583,167/1000,57,133.5
1340,E-2,280.75,73/500,58,133.5
1341,F2,280.75,21/1000,57,133.5
1342,F2,280.875,73/500,59,133.5
1343,E-2,281.0,73/500,60,133.5
1344,F2,281.125,0.125,61,133.5
1345,E-2,281.25,0.125,62,133.5
1346,F2,281.375,0.125,62,133.5
1347,E-2,281.5,0.125,62,133.5
1348,F2,281.625,0.125,63,133.5
1349,E-2,281.75,0.188,64,133.5
1350,D2,281.917,0.188,73,133.5
1351,F1,282.0,1.5,94,133.5
1352,E-2,282.083,167/1000,73,133.5
1353,F7,282.25,1.5,97,133.5
1354,E-2,282.25,21/1000,73,133.5
1355,D1,283.5,0.188,45,133.5
1356,E-1,283.667,0.188,45,133.5
1357,F7,283.75,0.5,97,133.5
1358,F1,283.833,0.188,45,133.5
1359,E-1,284.0,0.188,46,133.5
1360,F1,284.167,0.188,47,133.5
1361,E-7,284.25,0.25,68,133.5
1362,E-1,284.333,0.188,49,133.5
1363,C#7,284.5,0.25,61,133.5
1364,F1,284.5,0.188,50,133.5
1365,E-1,284.667,0.188,51,133.5
1366,G#6,284.75,0.25,65,133.5
1367,F1,284.833,167/1000,51,133.5
1368,F6,285.0,0.25,59,133.5
1369,E-1,285.0,73/500,52,133.5
1370,F1,285.0,21/1000,51,133.5
1371,F1,285.125,73/500,53,133.5
1372,E-6,285.25,0.25,62,133.5
1373,E-1,285.25,73/500,53,133.5
1374,F1,285.375,0.125,54,133.5
1375,C#6,285.5,0.25,56,133.5
1376,E-1,285.5,0.125,55,133.5
1377,F1,285.625,0.125,55,133.5
1378,G#5,285.75,0.25,58,133.5
1379,E-1,285.75,0.125,56,133.5
1380,F1,285.875,0.125,56,133.5
1381,F5,286.0,0.25,53,133.5
1382,E-1,286.0,0.188,59,133.5
1383,D1,286.167,0.188,73,133.5
1384,E-5,286.25,0.25,55,133.5
1385,E-1,286.333,167/1000,73,133.5
1386,C#5,286.5,0.25,50,133.5
1387,E-1,286.5,21/1000,73,133.5
1388,C#1,286.5,0.25,81,133.5
1389,C#2,286.5,0.25,81,133.5
1390,G#4,286.75,0.5,52,133.5
1391,G#2,287.5,0.5,45,133.5
1392,G#3,287.5,0.5,45,133.5
1393,C#4,288.0,0.5,53,133.5
1394,F3,288.0,0.5,53,133.5
1395,C5,288.25,0.25,55,133.5
1396,C#5,288.5,0.25,52,133.5
1397,E-5,288.75,0.25,50,133.5
1398,F5,289.0,0.25,47,133.5
1399,G#2,289.0,0.5,42,133.5
1400,G#3,289.0,0.5,42,133.5
1401,F#5,289.25,0.25,45,133.5
1402,G#5,289.485,0.25,42,133.5
1403,F3,289.5,0.5,47,133.5
1404,C#4,289.5,0.5,47,133.5
1405,A5,289.75,0.25,40,133.5
1406,A5,291.25,0.25,50,133.5
1407,G#5,291.5,0.25,49,133.5
1408,G5,291.75,0.25,47,133.5
1409,F#5,292.0,0.25,46,133.5
1410,F5,292.25,0.25,44,133.5
1411,E5,292.5,0.25,42,133.5
1412,G#1,292.5,0.25,52,133.5
1413,G#2,292.5,0.25,52,133.5
1414,E-5,292.75,0.25,41,133.5
1415,F#4,294.0,0.5,38,133.5
1416,G3,294.0,0.5,38,133.5
1417,C4,294.0,0.5,38,133.5
1418,F7,294.25,1.5,97,133.5
1419,G#3,294.5,0.5,35,133.5
1420,C4,294.5,0.5,35,133.5
1421,F#4,294.5,0.5,35,133.5
1422,F#4,295.0,0.25,31,133.5
1423,G#3,295.0,0.25,31,133.5
1424,C4,295.0,0.25,31,133.5
1425,F7,295.75,0.5,97,133.5
1426,E-7,296.25,0.25,68,133.5
1427,C#7,296.5,0.25,61,133.5
1428,G#6,296.75,0.25,65,133.5
1429,F6,297.0,0.25,59,133.5
1430,A3,297.0,0.5,35,133.5
1431,C4,297.0,0.5,35,133.5
1432,F#4,297.0,0.5,35,133.5
1433,E-6,297.25,0.25,62,133.5
1434,C#6,297.5,0.25,57,133.5
1435,F#4,297.5,0.5,32,133.5
1436,C4,297.5,0.5,32,133.5
1437,G#3,297.5,0.5,32,133.5
1438,G#5,297.75,0.25,58,133.5
1439,F5,298.0,0.25,53,133.5
1440,F#4,298.0,0.25,28,133.5
1441,C4,298.0,0.25,28,133.5
1442,G#3,298.0,0.25,28,133.5
1443,E-5,298.25,0.25,55,133.5
1444,C#5,298.5,0.25,51,133.5
1445,C#1,298.5,0.25,81,133.5
1446,C#2,298.5,0.25,81,133.5
1447,G#4,298.75,0.5,52,133.5
1448,G#2,299.5,0.5,45,133.5
1449,G#3,299.5,0.5,45,133.5
1450,C#4,300.0,0.5,53,133.5
1451,F3,300.0,0.5,53,133.5
1452,C5,300.25,0.25,42,133.5
1453,C#5,300.5,0.25,41,133.5
1454,E-5,300.75,0.25,41,133.5
1455,F5,301.0,0.25,40,133.5
1456,G#2,301.0,0.5,42,133.5
1457,G#3,301.0,0.5,42,133.5
1458,F#5,301.25,0.25,39,133.5
1459,G#5,301.485,0.25,38,133.5
1460,F3,301.5,0.5,47,133.5
1461,C#4,301.5,0.5,47,133.5
1462,A5,301.75,0.25,37,133.5
1463,A5,303.25,0.25,42,133.5
1464,G#5,303.5,0.25,41,133.5
1465,G5,303.75,0.25,40,133.5
1466,F#5,304.0,0.25,39,133.5
1467,F5,304.25,0.25,37,133.5
1468,E5,304.5,0.25,36,133.5
1469,G#2,304.5,1.5,25,133.5
1470,E-3,304.5,1.5,25,133.5
1471,F#3,304.5,1.5,25,133.5
1472,E-5,304.75,0.5,35,133.5
1473,C4,306.0,0.25,32,133.5
1474,B4,306.25,1.5,40,133.5
1475,F5,306.25,1.5,59,133.5
1476,C#4,306.25,0.25,32,133.5
1477,E-4,306.5,0.25,32,133.5
1478,F4,306.75,0.25,32,133.5
1479,F#4,307.0,0.25,32,133.5
1480,G#4,307.25,0.25,32,133.5
1481,A4,307.5,0.25,32,133.5
1482,B4,307.75,1.5,40,133.5
1483,F5,307.75,0.5,59,133.5
1484,E-5,308.25,0.75,53,133.5
1485,C#5,309.0,229/1000,52,133.5
1486,A3,309.0,0.25,30,133.5
1487,G#3,309.25,0.25,29,133.5
1488,B4,309.25,1.5,50,133.5
1489,C#5,309.25,1.5,50,133.5
1490,G3,309.5,0.25,28,133.5
1491,F#3,309.75,0.25,27,133.5
1492,F3,310.0,0.25,26,133.5
1493,E-3,310.25,0.25,25,133.5
1494,C#3,310.5,0.25,27,133.5
1495,B-4,310.75,1.5,56,133.5
1496,F#5,310.75,1.5,56,133.5
1497,G#3,310.75,0.25,28,133.5
1498,C#4,311.0,0.25,30,133.5
1499,F4,311.25,0.25,34,133.5
1500,C#4,311.5,0.25,31,133.5
1501,G#3,311.75,0.25,30,133.5
1502,C#3,312.0,0.25,29,133.5
1503,B4,312.25,1.5,50,133.5
1504,F#5,312.25,1.0,56,133.5
1505,B3,312.25,0.25,28,133.5
1506,C#4,312.5,0.25,30,133.5
1507,F4,312.75,0.25,31,133.5
1508,C#4,313.0,0.25,30,133.5
1509,F5,313.25,0.5,52,133.5
1510,B3,313.25,0.25,29,133.5
1511,F#3,313.5,0.25,28,133.5
1512,F5,313.75,0.5,51,133.5
1513,B4,313.75,1.5,50,133.5
1514,B3,313.75,0.25,28,133.5
1515,C#4,314.0,0.25,31,133.5
1516,E-5,314.25,0.5,50,133.5
1517,F#4,314.25,0.25,34,133.5
1518,C#4,314.5,0.25,31,133.5
1519,C#5,314.75,479/1000,49,133.5
1520,B3,314.75,0.25,29,133.5
1521,C#3,315.0,0.25,29,133.5
1522,B-3,315.25,0.25,28,133.5
1523,B-4,315.25,1.5,48,133.5
1524,C#5,315.25,1.5,48,133.5
1525,B-5,315.25,1.5,48,133.5
1526,C#4,315.5,0.25,30,133.5
1527,F#4,315.75,0.25,33,133.5
1528,C#4,316.0,0.25,31,133.5
1529,B-3,316.25,0.25,30,133.5
1530,G#3,316.5,0.25,28,133.5
1531,B-5,316.75,1.0,62,133.5
1532,B3,316.75,0.25,28,133.5
1533,G#4,316.75,1.5,44,133.5
1534,C#5,316.75,1.5,44,133.5
1535,C#4,317.0,0.25,30,133.5
1536,G#4,317.25,0.25,33,133.5
1537,C#4,317.5,0.25,31,133.5
1538,B-5,317.75,0.5,64,133.5
1539,B3,317.75,0.25,29,133.5
1540,C#3,318.0,0.25,29,133.5
1541,G4,318.125,0.125,44,133.5
1542,C#5,318.25,1.5,45,133.5
1543,B-5,318.25,1.0,68,133.5
1544,B3,318.25,0.25,28,133.5
1545,C#4,318.5,0.25,30,133.5
1546,F4,318.75,0.25,31,133.5
1547,C#4,319.0,0.25,30,133.5
1548,E-5,319.25,0.5,57,133.5
1549,B3,319.25,0.25,29,133.5
1550,F#3,319.5,0.25,29,133.5
1551,E-5,319.75,0.5,57,133.5
1552,C#5,319.75,1.5,45,133.5
1553,B-3,319.75,0.25,30,133.5
1554,C#4,320.0,0.25,34,133.5
1555,F5,320.25,0.125,51,133.5
1556,F#4,320.25,0.25,35,133.5
1557,G5,320.375,0.125,51,133.5
1558,F5,320.5,0.5,56,133.5
1559,C#4,320.5,0.25,34,133.5
1560,B-3,320.75,0.25,33,133.5
1561,E-5,321.0,229/1000,56,133.5
1562,E3,321.0,0.25,35,133.5
1563,B-3,321.25,0.25,36,133.5
1564,C#5,321.25,1.5,54,133.5
1565,E-5,321.25,1.5,54,133.5
1566,C#4,321.5,0.25,39,133.5
1567,G#4,321.75,0.25,37,133.5
1568,C#4,322.0,0.25,34,133.5
1569,B-3,322.25,0.25,31,133.5
1570,E-3,322.5,0.25,36,133.5
1571,C5,322.75,1.5,53,133.5
1572,G#5,322.75,1.5,64,133.5
1573,B-3,322.75,0.25,38,133.5
1574,C#4,323.0,0.25,41,133.5
1575,G4,323.25,0.25,45,133.5
1576,C#4,323.5,0.25,42,133.5
1577,B-3,323.75,0.25,39,133.5
1578,G3,324.0,0.25,36,133.5
1579,C#5,324.25,1.5,55,133.5
1580,G#5,324.25,0.5,64,133.5
1581,C#4,324.25,0.25,38,133.5
1582,E-4,324.5,0.25,41,133.5
1583,G5,324.75,0.5,60,133.5
1584,B-4,324.75,0.25,46,133.5
1585,E-4,325.0,0.25,42,133.5
1586,F5,325.25,0.5,59,133.5
1587,C#4,325.25,0.25,39,133.5
1588,G#3,325.5,0.25,37,133.5
1589,G5,325.75,0.5,60,133.5
1590,C#5,325.75,1.5,55,133.5
1591,C#4,325.75,0.25,38,133.5
1592,E-4,326.0,0.25,42,133.5
1593,F5,326.25,0.75,59,133.5
1594,G#4,326.25,0.25,45,133.5
1595,E-4,326.5,0.25,41,133.5
1596,C#4,326.75,0.25,38,133.5
1597,E-5,327.0,0.25,56,133.5
1598,E-3,327.0,0.25,36,133.5
1599,C5,327.25,1.5,56,133.5
1600,C6,327.25,1.5,56,133.5
1601,C4,327.25,0.25,37,133.5
1602,E-4,327.5,0.25,40,133.5
1603,G#4,327.75,0.25,44,133.5
1604,E-4,328.0,0.25,41,133.5
1605,C4,328.25,0.25,39,133.5
1606,B-3,328.5,0.25,36,133.5
1607,C6,328.75,1.0,64,133.5
1608,C5,328.75,1.5,56,133.5
1609,C#4,328.75,0.25,37,133.5
1610,E-4,329.0,0.25,40,133.5
1611,B-4,329.25,0.25,42,133.5
1612,E-4,329.5,0.25,41,133.5
1613,C6,329.75,479/1000,63,133.5
1614,C#4,329.75,0.25,39,133.5
1615,E-3,330.0,0.25,37,133.5
1616,C6,330.25,1.5,68,133.5
1617,C#4,330.25,0.25,36,133.5
1618,E-4,330.5,0.25,38,133.5
1619,G4,330.75,0.25,40,133.5
1620,E-4,331.0,0.25,40,133.5
1621,C#4,331.25,0.25,37,133.5
1622,G#3,331.5,0.25,50,133.5
1623,C6,331.75,0.5,68,133.5
1624,C4,331.75,0.25,40,133.5
1625,E-4,332.0,0.25,44,133.5
1626,B-5,332.25,0.75,63,133.5
1627,G#4,332.25,0.25,45,133.5
1628,E-4,332.5,0.25,44,133.5
1629,C4,332.75,0.25,42,133.5
1630,G#5,333.0,229/1000,63,133.5
1631,G3,333.0,1.5,39,133.5
1632,G#5,333.25,1.5,63,133.5
1633,G#3,333.25,0.25,41,133.5
1634,C4,333.5,0.25,45,133.5
1635,E-4,333.75,0.25,49,133.5
1636,C4,334.0,0.25,47,133.5
1637,G#3,334.25,0.25,41,133.5
1638,F#3,334.5,1.5,38,133.5
1639,C#6,334.75,1.5,75,133.5
1640,G#3,334.75,0.25,36,133.5
1641,C4,335.0,0.25,39,133.5
1642,E-4,335.25,0.25,42,133.5
1643,C4,335.5,0.25,41,133.5
1644,G#3,335.75,0.25,38,133.5
1645,F#3,336.0,1.5,47,133.5
1646,C#6,336.25,1.0,82,133.5
1647,G#3,336.25,0.25,41,133.5
1648,C4,336.5,0.25,41,133.5
1649,E-4,336.75,0.25,41,133.5
1650,C4,337.0,0.25,38,133.5
1651,C6,337.25,479/1000,78,133.5
1652,G#3,337.25,0.25,35,133.5
1653,F3,337.5,1.5,34,133.5
1654,C6,337.75,0.5,75,133.5
1655,G#3,337.75,0.25,33,133.5
1656,C#4,338.0,0.25,36,133.5
1657,B-5,338.25,0.75,71,133.5
1658,F4,338.25,0.25,39,133.5
1659,C#4,338.5,0.25,37,133.5
1660,G#3,338.75,0.25,35,133.5
1661,G#5,339.0,0.25,63,133.5
1662,F3,339.0,0.25,36,133.5
1663,F6,339.25,1.5,80,133.5
1664,G#3,339.25,0.25,38,133.5
1665,C#4,339.5,0.25,41,133.5
1666,G#4,339.75,0.25,42,133.5
1667,C#4,340.0,0.25,40,133.5
1668,G#3,340.25,0.25,37,133.5
1669,E-3,340.5,0.25,35,133.5
1670,F6,340.75,1.0,77,133.5
1671,G#3,340.75,0.25,38,133.5
1672,C4,341.0,0.25,41,133.5
1673,F#4,341.25,0.25,41,133.5
1674,C4,341.5,0.25,39,133.5
1675,F6,341.75,479/1000,81,133.5
1676,G#3,341.75,0.25,36,133.5
1677,E-3,342.0,0.25,34,133.5
1678,F6,342.25,1.5,85,133.5
1679,G#3,342.25,0.25,34,133.5
1680,C4,342.5,0.25,37,133.5
1681,F#4,342.75,0.25,39,133.5
1682,C4,343.0,0.25,36,133.5
1683,G#3,343.25,0.25,31,133.5
1684,D3,343.5,0.25,31,133.5
1685,E-6,343.75,0.5,72,133.5
1686,G#3,343.75,0.25,31,133.5
1687,B3,344.0,0.25,35,133.5
1688,C#6,344.25,0.5,71,133.5
1689,F4,344.25,0.25,37,133.5
1690,B3,344.5,0.25,36,133.5
1691,B-5,344.75,0.5,70,133.5
1692,G#3,344.75,0.25,34,133.5
1693,D3,345.0,0.25,34,133.5
1694,C6,345.25,1.5,75,133.5
1695,G#3,345.25,0.25,30,133.5
1696,B-3,345.5,0.25,35,133.5
1697,F4,345.75,0.25,37,133.5
1698,B-3,346.0,0.25,36,133.5
1699,G#3,346.25,0.25,34,133.5
1700,E-3,346.5,0.25,34,133.5
1701,B-5,346.75,0.5,71,133.5
1702,F#3,346.75,0.25,35,133.5
1703,B-3,347.0,0.25,38,133.5
1704,G#5,347.25,0.5,68,133.5
1705,E-4,347.25,0.25,39,133.5
1706,B-3,347.5,0.25,38,133.5
1707,F5,347.75,0.5,63,133.5
1708,F#3,347.75,0.25,36,133.5
1709,F#2,348.0,0.25,34,133.5
1710,B-5,348.25,0.5,69,133.5
1711,F#3,348.25,0.25,31,133.5
1712,B-3,348.5,0.25,36,133.5
1713,G#5,348.75,0.5,64,133.5
1714,E-4,348.75,0.25,38,133.5
1715,B-3,349.0,0.25,36,133.5
1716,F#5,349.25,479/1000,61,133.5
1717,F#3,349.25,0.25,34,133.5
1718,G#2,349.5,0.25,35,133.5
1719,F#5,349.75,0.125,55,133.5
1720,F3,349.75,0.25,36,133.5
1721,G#5,349.875,0.125,55,133.5
1722,F#5,350.0,0.25,63,133.5
1723,G#3,350.0,0.25,37,133.5
1724,F5,350.25,0.75,58,133.5
1725,C#4,350.25,0.25,39,133.5
1726,G#3,350.5,0.25,37,133.5
1727,F3,350.75,0.25,35,133.5
1728,E5,351.0,229/1000,59,133.5
1729,G#2,351.0,0.25,33,133.5
1730,E5,351.25,1.5,59,133.5
1731,F3,351.25,0.25,34,133.5
1732,G#3,351.5,0.25,35,133.5
1733,C#4,351.75,0.25,38,133.5
1734,G#3,352.0,0.25,37,133.5
1735,F3,352.25,0.25,36,133.5
1736,G#2,352.5,0.25,39,133.5
1737,F5,352.75,1.0,63,133.5
1738,F#3,352.75,0.25,34,133.5
1739,G#3,353.0,0.25,36,133.5
1740,C4,353.25,0.25,36,133.5
1741,G#3,353.5,0.25,35,133.5
1742,G#5,353.75,0.5,57,133.5
1743,F#3,353.75,0.25,34,133.5
1744,G#2,354.0,0.25,31,133.5
1745,G#4,354.25,1.0,57,133.5
1746,F#3,354.25,0.25,31,133.5
1747,G#5,354.375,1.375,57,133.5
1748,G#3,354.5,0.25,35,133.5
1749,C4,354.75,0.25,37,133.5
1750,G#3,355.0,0.25,35,133.5
1751,C5,355.25,0.5,63,133.5
1752,F#3,355.25,0.25,33,133.5
1753,C#3,355.5,0.25,33,133.5
1754,C6,355.75,0.5,63,133.5
1755,C5,355.75,0.5,63,133.5
1756,G#3,355.75,0.25,33,133.5
1757,C#4,356.0,0.25,36,133.5
1758,F4,356.25,0.25,37,133.5
1759,B-4,356.25,0.75,63,133.5
1760,B-5,356.25,0.75,63,133.5
1761,C#4,356.5,0.25,36,133.5
1762,B-3,356.75,0.25,35,133.5
1763,G#3,357.0,0.25,36,133.5
1764,G#4,357.0,229/1000,63,133.5
1765,G#5,357.0,229/1000,63,133.5
1766,G#4,357.25,1.5,63,133.5
1767,G#5,357.25,1.5,63,133.5
1768,C#4,357.25,0.25,36,133.5
1769,F4,357.5,0.25,39,133.5
1770,G#4,357.75,0.25,40,133.5
1771,F4,358.0,0.25,39,133.5
1772,C#4,358.25,0.25,38,133.5
1773,F#3,358.5,1.5,38,133.5
1774,G#5,358.75,1.5,63,133.5
1775,G#3,358.75,0.25,42,133.5
1776,C#5,358.75,1.5,75,133.5
1777,C#6,358.75,1.5,75,133.5
1778,C4,359.0,0.25,42,133.5
1779,E-4,359.25,0.25,42,133.5
1780,C4,359.5,0.25,42,133.5
1781,G#3,359.75,0.25,42,133.5
1782,F#3,360.0,1.5,41,133.5
1783,G#3,360.25,0.25,45,133.5
1784,F#5,360.25,1.5,60,133.5
1785,G#5,360.25,1.5,60,133.5
1786,C#5,360.25,0.75,75,133.5
1787,C#6,360.25,0.75,75,133.5
1788,C4,360.5,0.25,45,133.5
1789,E-4,360.75,0.25,45,133.5
1790,C4,361.0,0.25,41,133.5
1791,C6,361.0,0.25,71,133.5
1792,C5,361.0,0.25,71,133.5
1793,G#3,361.25,0.25,38,133.5
1794,G#5,361.25,0.5,70,133.5
1795,F#5,361.25,0.5,70,133.5
1796,C5,361.25,0.5,70,133.5
1797,C6,361.25,0.5,70,133.5
1798,F3,361.5,1.5,37,133.5
1799,G#3,361.75,0.25,36,133.5
1800,G#5,361.75,0.75,68,133.5
1801,F#5,361.75,0.75,68,133.5
1802,C5,361.75,0.75,68,133.5
1803,C6,361.75,0.75,68,133.5
1804,C#4,362.0,0.25,39,133.5
1805,F4,362.25,0.25,42,133.5
1806,C#4,362.5,0.25,40,133.5
1807,B-4,362.5,0.25,71,133.5
1808,B-5,362.5,0.25,71,133.5
1809,G#3,362.75,0.25,38,133.5
1810,F#5,362.75,0.5,62,133.5
1811,G#4,362.75,0.5,62,133.5
1812,G#5,362.75,0.5,62,133.5
1813,F3,363.0,0.25,39,133.5
1814,G#3,363.25,0.25,41,133.5
1815,G#5,363.25,1.5,76,133.5
1816,F5,363.25,1.5,76,133.5
1817,F6,363.25,1.5,76,133.5
1818,C#4,363.5,0.25,45,133.5
1819,G#4,363.75,0.25,46,133.5
1820,C#4,364.0,0.25,44,133.5
1821,G#3,364.25,0.25,40,133.5
1822,E-3,364.5,0.25,39,133.5
1823,G#3,364.75,0.25,41,133.5
1824,F5,364.75,1.0,73,133.5
1825,G#5,364.75,1.0,73,133.5
1826,F6,364.75,1.0,73,133.5
1827,C4,365.0,0.25,45,133.5
1828,F#4,365.25,0.25,45,133.5
1829,C4,365.5,0.25,42,133.5
1830,G#3,365.75,0.25,39,133.5
1831,F5,365.75,479/1000,74,133.5
1832,G#5,365.75,479/1000,74,133.5
1833,F6,365.75,479/1000,74,133.5
1834,E-3,366.0,0.25,38,133.5
1835,G#3,366.25,0.25,37,133.5
1836,F5,366.25,1.5,78,133.5
1837,G#5,366.25,1.5,78,133.5
1838,F6,366.25,1.5,78,133.5
1839,C4,366.5,0.25,40,133.5
1840,F#4,366.75,0.25,42,133.5
1841,C4,367.0,0.25,39,133.5
1842,G#3,367.25,0.25,34,133.5
1843,D3,367.5,0.25,35,133.5
1844,G#3,367.75,0.25,37,133.5
1845,F#5,367.75,0.5,63,133.5
1846,E-5,367.75,0.5,63,133.5
1847,E-6,367.75,0.5,63,133.5
1848,B3,368.0,0.25,41,133.5
1849,F4,368.25,0.25,44,133.5
1850,C#5,368.25,0.75,62,133.5
1851,F#5,368.25,0.75,62,133.5
1852,C#6,368.25,0.75,62,133.5
1853,B3,368.5,0.25,42,133.5
1854,G#3,368.75,0.25,40,133.5
1855,D3,369.0,0.25,35,133.5
1856,B-4,369.0,0.25,61,133.5
1857,F#5,369.0,0.25,61,133.5
1858,B-5,369.0,0.25,61,133.5
1859,G#3,369.25,0.25,36,133.5
1860,C5,369.25,1.5,59,133.5
1861,G#5,369.25,1.5,59,133.5
1862,C6,369.25,1.5,59,133.5
1863,B-3,369.5,0.25,41,133.5
1864,F4,369.75,0.25,44,133.5
1865,B-3,370.0,0.25,42,133.5
1866,G#3,370.25,0.25,40,133.5
1867,E-3,370.5,0.25,37,133.5
1868,F#3,370.75,0.25,38,133.5
1869,B-4,370.75,0.5,61,133.5
1870,F#5,370.75,0.5,61,133.5
1871,B-5,370.75,0.5,61,133.5
1872,B-3,371.0,0.25,41,133.5
1873,E-4,371.25,0.25,42,133.5
1874,G#4,371.25,0.5,64,133.5
1875,F5,371.25,0.5,64,133.5
1876,G#5,371.25,0.5,64,133.5
1877,B-3,371.5,0.25,41,133.5
1878,F#3,371.75,0.25,39,133.5
1879,B-4,371.75,0.5,68,133.5
1880,F5,371.75,0.5,68,133.5
1881,B-5,371.75,0.5,68,133.5
1882,F#2,372.0,0.25,37,133.5
1883,F#3,372.25,0.25,34,133.5
1884,F5,372.25,1.0,73,133.5
1885,B4,372.25,1.0,73,133.5
1886,B5,372.25,1.0,73,133.5
1887,B-3,372.5,0.25,39,133.5
1888,E-4,372.75,0.25,41,133.5
1889,B-3,373.0,0.25,39,133.5
1890,F#3,373.25,0.25,37,133.5
1891,F5,373.25,0.5,71,133.5
1892,B-4,373.25,0.5,71,133.5
1893,B-5,373.25,0.5,71,133.5
1894,G#2,373.5,0.25,37,133.5
1895,F3,373.75,0.25,39,133.5
1896,B4,373.75,1.5,74,133.5
1897,F5,373.75,1.5,74,133.5
1898,B5,373.75,1.5,74,133.5
1899,G#3,374.0,0.25,40,133.5
1900,C#4,374.25,0.25,42,133.5
1901,G#3,374.5,0.25,40,133.5
1902,F3,374.75,0.25,38,133.5
1903,G#2,375.0,0.25,35,133.5
1904,F3,375.25,0.25,35,133.5
1905,G#3,375.5,0.25,37,133.5
1906,C#4,375.75,0.25,39,133.5
1907,G#3,376.0,0.25,37,133.5
1908,F3,376.25,0.25,35,133.5
1909,B4,376.25,1.0,74,133.5
1910,F5,376.25,1.0,74,133.5
1911,B5,376.25,1.0,74,133.5
1912,G#2,376.5,0.25,38,133.5
1913,F3,376.75,0.25,37,133.5
1914,G#3,377.0,0.25,39,133.5
1915,D4,377.25,0.25,41,133.5
1916,B-4,377.25,0.5,72,133.5
1917,F5,377.25,0.5,72,133.5
1918,B-5,377.25,0.5,72,133.5
1919,G#3,377.5,0.25,39,133.5
1920,F3,377.75,0.25,36,133.5
1921,B4,377.75,0.5,77,133.5
1922,F5,377.75,0.5,77,133.5
1923,B5,377.75,0.5,77,133.5
1924,G#2,378.0,0.25,40,133.5
1925,F3,378.25,0.25,39,133.5
1926,B-4,378.25,0.5,74,133.5
1927,F5,378.25,0.5,74,133.5
1928,B-5,378.25,0.5,74,133.5
1929,G#3,378.5,0.25,43,133.5
1930,D4,378.75,0.25,48,133.5
1931,B4,378.75,0.5,74,133.5
1932,F5,378.75,0.5,74,133.5
1933,B5,378.75,0.5,74,133.5
1934,G#3,379.0,0.25,45,133.5
1935,F3,379.25,0.25,41,133.5
1936,B4,379.25,1.0,77,133.5
1937,F#5,379.25,1.0,77,133.5
1938,B5,379.25,1.0,77,133.5
1939,G#2,379.5,0.25,40,133.5
1940,F3,379.75,0.25,40,133.5
1941,G#3,380.0,0.25,43,133.5
1942,D4,380.25,0.25,45,133.5
1943,B-4,380.25,0.5,78,133.5
1944,F#5,380.25,0.5,78,133.5
1945,B-5,380.25,0.5,78,133.5
1946,G#3,380.5,0.25,42,133.5
1947,F3,380.75,0.25,36,133.5
1948,B-6,380.75,1.5,90,133.5
1949,F#6,380.75,1.5,90,133.5
1950,B-5,380.75,1.5,90,133.5
1951,G#2,381.0,0.25,52,133.5
1952,F3,381.25,0.25,40,133.5
1953,G#3,381.5,0.25,43,133.5
1954,D4,381.75,0.25,47,133.5
1955,G#3,382.0,0.25,44,133.5
1956,F3,382.25,0.25,40,133.5
1957,G#2,382.5,0.25,54,133.5
1958,E-3,382.75,0.25,43,133.5
1959,F#3,383.0,0.25,47,133.5
1960,B-6,383.0,0.75,90,133.5
1961,F#6,383.0,0.75,90,133.5
1962,B-5,383.0,0.75,90,133.5
1963,E-4,383.25,0.25,50,133.5
1964,F#3,383.5,0.25,46,133.5
1965,E-3,383.75,0.25,43,133.5
1966,C6,383.75,229/1000,76,133.5
1967,F#5,383.75,229/1000,76,133.5
1968,C5,383.75,229/1000,76,133.5
1969,G#2,384.0,0.25,67,133.5
1970,C5,384.0,479/1000,76,133.5
1971,F#5,384.0,479/1000,76,133.5
1972,C6,384.0,479/1000,76,133.5
1973,E-3,384.25,0.25,50,133.5
1974,F#3,384.5,0.25,55,133.5
1975,C5,384.5,0.75,88,133.5
1976,F#5,384.5,0.75,88,133.5
1977,C6,384.5,0.75,88,133.5
1978,E-4,384.75,0.25,58,133.5
1979,F#3,385.0,0.25,55,133.5
1980,E-3,385.25,0.25,52,133.5
1981,F6,385.25,0.25,84,133.5
1982,G#5,385.25,0.25,84,133.5
1983,F5,385.25,0.25,84,133.5
1984,G#2,385.5,0.25,62,133.5
1985,E-6,385.5,0.5,87,133.5
1986,F#5,385.5,0.5,87,133.5
1987,E-5,385.5,0.5,87,133.5
1988,E-3,385.75,0.25,50,133.5
1989,F#3,386.0,0.25,55,133.5
1990,C#6,386.0,0.25,96,133.5
1991,F5,386.0,0.25,96,133.5
1992,C#5,386.0,0.25,96,133.5
1993,C4,386.25,0.25,58,133.5
1994,F#3,386.5,0.25,55,133.5
1995,E-3,386.75,0.25,51,133.5
1996,G#2,387.0,0.25,67,133.5
1997,E-3,387.25,0.25,57,133.5
1998,F4,387.5,0.25,97,133.5
1999,F#3,387.5,0.25,61,133.5
2000,C#5,387.75,0.25,75,133.5
2001,C4,387.75,0.25,65,133.5
2002,G#5,388.0,0.25,79,133.5
2003,F#3,388.0,0.25,62,133.5
2004,F5,388.25,0.25,83,133.5
2005,E-3,388.25,0.25,59,133.5
2006,C#6,388.5,0.25,87,133.5
2007,C#2,388.5,0.25,71,133.5
2008,B-6,388.75,0.25,91,133.5
2009,C6,389.0,0.5,91,133.5
2010,G#6,389.0,0.5,91,133.5
2011,G#2,389.5,0.25,70,133.5
2012,F3,389.75,0.25,75,133.5
2013,C#4,390.0,0.5,83,133.5
2014,F#4,390.5,0.25,97,133.5
2015,C5,390.75,0.25,75,133.5
2016,G#5,391.0,0.25,80,133.5
2017,F#5,391.25,0.25,84,133.5
2018,C6,391.5,0.25,88,133.5
2019,G#1,391.5,0.25,87,133.5
2020,G#6,391.75,0.25,93,133.5
2021,C#6,392.0,0.5,92,133.5
2022,F6,392.0,0.5,92,133.5
2023,G#2,392.5,0.25,68,133.5
2024,E-3,392.75,0.25,74,133.5
2025,C4,393.0,0.5,84,133.5
2026,F4,393.5,0.25,97,133.5
2027,C#5,393.75,0.25,75,133.5
2028,G#5,394.0,0.25,79,133.5
2029,F5,394.25,0.25,83,133.5
2030,C#6,394.5,0.25,87,133.5
2031,C#2,394.5,0.25,87,133.5
2032,B-6,394.75,0.25,91,133.5
2033,C6,395.0,0.5,91,133.5
2034,G#6,395.0,0.5,91,133.5
2035,G#2,395.5,0.25,70,133.5
2036,F3,395.75,0.25,75,133.5
2037,C#4,396.0,0.5,83,133.5
2038,F#4,396.5,0.25,97,133.5
2039,C5,396.75,0.25,75,133.5
2040,G#5,397.0,0.25,80,133.5
2041,F#5,397.25,0.25,84,133.5
2042,C6,397.5,0.25,88,133.5
2043,G#1,397.5,0.25,87,133.5
2044,G#6,397.75,0.25,93,133.5
2045,C#6,398.0,0.5,97,133.5
2046,F6,398.0,0.5,97,133.5
2047,G#2,398.5,0.25,68,133.5
2048,E-3,398.75,0.25,74,133.5
2049,C4,399.0,0.5,84,133.5
2050,F4,399.5,0.25,97,133.5
2051,C#5,399.75,0.25,75,133.5
2052,G#5,400.0,0.25,78,133.5
2053,F5,400.25,0.25,75,133.5
2054,C#6,400.5,0.25,79,133.5
2055,C#1,400.5,0.5,82,133.5
2056,G#6,400.75,0.25,75,133.5
2057,C#6,401.0,0.25,78,133.5
2058,F5,401.25,0.25,75,133.5
2059,G#5,401.5,0.25,80,133.5
2060,G#2,401.5,0.25,68,133.5
2061,C#5,401.75,0.25,75,133.5
2062,F3,401.75,0.25,74,133.5
2063,F4,402.0,0.25,79,133.5
2064,C#4,402.0,0.5,84,133.5
2065,G#4,402.25,0.25,75,133.5
2066,C#4,402.5,0.25,78,133.5
2067,F3,402.75,0.25,77,133.5
2068,G#3,403.0,0.25,82,133.5
2069,C#3,403.25,0.25,79,133.5
2070,F2,403.5,0.25,87,133.5
2071,C#3,403.75,0.25,85,133.5
2072,C#7,405.5,1.5,93,133.5
2073,C#6,405.5,1.5,93,133.5
2074,C#1,406.5,0.25,96,133.5
2075,C#2,406.5,0.25,96,133.5
2076,C#4,408.0,1.5,94,133.5
2077,C#5,408.0,1.5,94,133.5
2078,E3,410.0,1.5,49,133.5
2079,C#4,410.0,1.5,49,133.5
2080,E4,410.0,1.5,49,133.5
2081,F#3,411.5,1.5,37,133.5
2082,C#4,411.5,1.5,44,133.5
2083,F#4,411.5,1.5,44,133.5
2084,A1,412.5,1.5,40,133.5
2085,A2,412.5,1.5,40,133.5
2086,C#4,413.0,0.5,44,133.5
2087,F#4,413.0,1.5,44,133.5
2088,B3,413.5,0.5,57,133.5
2089,C#4,414.0,0.5,57,133.5
2090,D2,414.0,1.5,36,133.5
2091,A2,414.0,1.5,40,133.5
2092,E4,414.5,0.5,60,133.5
2093,F#4,414.5,1.5,44,133.5
2094,D4,415.0,0.5,56,133.5
2095,C#4,415.5,479/1000,56,133.5
2096,D2,415.5,1.5,36,133.5
2097,A2,415.5,1.5,40,133.5
2098,E3,416.0,1.5,49,133.5
2099,C#4,416.0,1.5,49,133.5
2100,E4,416.0,1.5,49,133.5
2101,D2,417.0,1.5,36,133.5
2102,A2,417.0,1.5,40,133.5
2103,F#3,417.5,1.5,37,133.5
2104,C#4,417.5,1.5,44,133.5
2105,F#4,417.5,1.5,44,133.5
2106,A1,418.5,1.5,40,133.5
2107,A2,418.5,1.5,40,133.5
2108,C#4,419.0,0.5,44,133.5
2109,F#4,419.0,1.5,44,133.5
2110,B3,419.5,0.5,57,133.5
2111,C#4,420.0,0.5,57,133.5
2112,D2,420.0,1.5,36,133.5
2113,A2,420.0,1.5,40,133.5
2114,E4,420.5,0.5,60,133.5
2115,F#4,420.5,1.5,44,133.5
2116,D4,421.0,0.75,56,133.5
2117,D2,421.5,1.5,36,133.5
2118,A2,421.5,1.5,40,133.5
2119,C#4,421.75,229/1000,56,133.5
2120,G#3,422.0,1.5,37,133.5
2121,C#4,422.0,1.5,44,133.5
2122,E4,422.0,1.5,44,133.5
2123,D2,423.0,1.5,36,133.5
2124,A2,423.0,1.5,40,133.5
2125,B3,423.5,1.0,37,133.5
2126,G#3,423.5,1.0,37,133.5
2127,E4,423.5,1.5,44,133.5
2128,A3,424.5,0.5,32,133.5
2129,E2,424.5,1.5,34,133.5
2130,D3,424.5,1.5,34,133.5
2131,C#4,425.0,1.5,30,133.5
2132,C#4,426.5,1.5,30,133.5
2133,E2,427.0,1.0,34,133.5
2134,D3,427.0,1.0,34,133.5
2135,C#5,428.0,1.25,53,133.5
2136,A2,428.0,0.5,30,133.5
2137,C#3,428.0,0.5,30,133.5
2138,E3,428.5,1.5,26,133.5
2139,A2,428.5,1.5,30,133.5
2140,B4,429.25,0.125,45,133.5
2141,C#5,429.375,0.125,45,133.5
2142,B4,429.5,0.75,50,133.5
2143,E3,430.0,1.5,26,133.5
2144,A2,430.0,1.5,30,133.5
2145,A4,430.25,0.25,47,133.5
2146,B4,430.5,0.5,50,133.5
2147,C#5,431.0,0.75,53,133.5
2148,D5,431.75,0.25,50,133.5
2149,C#5,432.0,0.25,48,133.5
2150,B4,432.25,0.125,43,133.5
2151,C#5,432.375,0.125,43,133.5
2152,B4,432.5,0.75,52,133.5
2153,E3,432.5,0.5,32,133.5
2154,G3,432.5,0.5,32,133.5
2155,B-3,432.5,0.5,32,133.5
2156,D3,433.0,0.5,38,133.5
2157,F#3,433.0,0.5,38,133.5
2158,B3,433.0,0.5,38,133.5
2159,A4,433.25,0.25,48,133.5
2160,B4,433.5,0.5,47,133.5
2161,C#5,434.0,0.25,39,133.5
2162,F#3,434.0,0.5,32,133.5
2163,A3,434.0,0.5,32,133.5
2164,D4,434.0,0.5,32,133.5
2165,C#4,434.25,0.25,29,133.5
2166,C#5,434.5,0.25,29,133.5
2167,F3,434.5,1.0,36,133.5
2168,G#3,434.5,1.0,36,133.5
2169,C#4,434.5,1.0,36,133.5
2170,G#4,434.75,0.25,29,133.5
2171,C#5,435.0,0.25,29,133.5
2172,G#4,435.25,0.25,29,133.5
2173,G#5,435.5,0.25,29,133.5
2174,E3,435.5,0.5,31,133.5
2175,G3,435.5,0.5,31,133.5
2176,B-3,435.5,0.5,31,133.5
2177,C#5,435.75,0.25,29,133.5
2178,G#5,436.0,0.25,29,133.5
2179,D3,436.0,0.5,37,133.5
2180,F#3,436.0,0.5,37,133.5
2181,B3,436.0,0.5,37,133.5
2182,C#5,436.25,0.25,29,133.5
2183,C#6,436.5,0.25,29,133.5
2184,G#5,436.75,0.25,29,133.5
2185,C#6,437.0,0.25,29,133.5
2186,F#3,437.0,0.5,32,133.5
2187,A3,437.0,0.5,32,133.5
2188,D4,437.0,0.5,32,133.5
2189,G#5,437.25,0.25,29,133.5
2190,G#6,437.5,0.25,29,133.5
2191,C#3,437.5,0.5,29,133.5
2192,G#3,437.562,0.438,29,133.5
2193,F4,437.625,0.375,29,133.5
2194,C#6,437.75,0.25,29,133.5
2195,G#6,438.0,0.25,29,133.5
2196,C#6,438.25,0.25,29,133.5
2197,C#7,438.5,0.25,39,133.5
2198,C#2,439.0,0.25,25,133.5
2199,C#4,440.0,1.5,52,133.5
2200,E3,440.0,1.5,48,133.5
2201,E4,440.0,1.5,48,133.5
2202,F#3,441.5,1.5,37,133.5
2203,F#4,441.5,1.5,44,133.5
2204,C#4,441.5,2.0,52,133.5
2205,F#4,443.5,1.5,44,133.5
2206,A1,443.5,1.5,40,133.5
2207,A2,443.5,1.5,40,133.5
2208,B3,444.0,0.5,57,133.5
2209,C#4,444.5,0.5,57,133.5
2210,E4,445.0,0.5,60,133.5
2211,F#4,445.0,1.5,44,133.5
2212,D2,445.0,1.5,36,133.5
2213,A2,445.0,1.5,40,133.5
2214,D4,445.5,0.5,56,133.5
2215,C#4,446.0,0.5,56,133.5
2216,C#4,446.5,1.5,52,133.5
2217,D2,446.5,1.5,36,133.5
2218,A2,446.5,1.5,40,133.5
2219,E3,446.5,1.5,48,133.5
2220,E4,446.5,1.5,48,133.5
2221,F#3,448.0,1.5,37,133.5
2222,F#4,448.0,1.5,44,133.5
2223,C#4,448.0,2.0,52,133.5
2224,D2,448.0,1.5,36,133.5
2225,A2,448.0,1.5,40,133.5
2226,A1,449.5,1.5,40,133.5
2227,A2,449.5,1.5,40,133.5
2228,F#3,450.0,1.5,37,133.5
2229,F#4,450.0,1.5,44,133.5
2230,B3,450.5,0.5,57,133.5
2231,C#4,451.0,0.5,57,133.5
2232,D2,451.0,1.5,36,133.5
2233,A2,451.0,1.5,40,133.5
2234,E4,451.5,0.5,60,133.5
2235,F#3,451.5,1.5,37,133.5
2236,F#4,451.5,1.5,44,133.5
2237,D4,452.0,0.75,56,133.5
2238,D2,452.5,1.5,36,133.5
2239,A2,452.5,1.5,40,133.5
2240,C#4,452.75,13/125,56,133.5
2241,C#4,452.875,0.125,50,133.5
2242,A4,453.0,0.5,56,133.5
2243,F#3,453.0,1.5,37,133.5
2244,F#4,453.5,0.5,53,133.5
2245,D4,454.0,0.5,51,133.5
2246,D2,454.0,1.5,36,133.5
2247,A2,454.0,1.5,40,133.5
2248,G#3,454.5,1.5,37,133.5
2249,C#4,454.5,1.5,44,133.5
2250,E4,454.5,1.5,44,133.5
2251,D2,455.5,1.5,36,133.5
2252,A2,455.5,1.5,40,133.5
2253,B3,456.0,1.0,37,133.5
2254,G#3,456.0,1.0,37,133.5
2255,E4,456.0,1.5,44,133.5
2256,A3,457.0,0.5,32,133.5
2257,E2,457.0,1.5,34,133.5
2258,E3,457.0,1.5,34,133.5
2259,C#4,457.5,1.5,30,133.5
2260,D3,458.5,1.0,34,133.5
2261,E2,458.5,1.0,34,133.5
2262,C#4,459.0,1.5,30,133.5
2263,A2,459.5,0.5,30,133.5
2264,C#3,459.5,0.5,30,133.5
2265,A2,460.0,1.5,26,133.5
2266,E3,460.0,1.5,26,133.5
2267,C#5,462.0,1.5,42,133.5
2268,A2,463.0,1.5,26,133.5
2269,E3,463.0,1.5,26,133.5
2270,C#5,463.5,1.5,42,133.5
2271,C#5,465.0,0.25,42,133.5
2272,E-5,465.25,0.25,42,133.5
2273,F#5,465.5,0.25,43,133.5
2274,E5,465.75,0.25,41,133.5
2275,C#5,466.0,0.25,39,133.5
2276,A4,466.25,0.25,39,133.5
2277,G#4,466.5,0.062,35,133.5
2278,G#4,466.625,0.125,35,133.5
2279,G#5,466.75,1.0,43,133.5
2280,F#5,467.75,0.125,37,133.5
2281,G#5,467.875,0.125,37,133.5
2282,F#5,468.0,0.75,43,133.5
2283,E5,468.75,0.25,39,133.5
2284,F#5,469.0,0.5,39,133.5
2285,G#5,469.5,0.75,42,133.5
2286,A5,470.25,0.25,40,133.5
2287,G#5,470.5,0.25,40,133.5
2288,F#5,470.75,0.125,37,133.5
2289,G#5,470.875,0.125,37,133.5
2290,F#5,471.0,0.75,44,133.5
2291,B3,471.5,0.5,26,133.5
2292,D4,471.5,0.5,26,133.5
2293,F4,471.5,0.5,26,133.5
2294,E5,471.75,0.25,33,133.5
2295,F#5,472.0,0.5,31,133.5
2296,A3,472.0,0.5,31,133.5
2297,C#4,472.0,0.5,31,133.5
2298,F#4,472.0,0.5,31,133.5
2299,G#5,472.5,1.5,31,133.5
2300,C#4,473.0,0.5,28,133.5
2301,E4,473.0,0.5,28,133.5
2302,A4,473.0,0.5,28,133.5
2303,C4,473.5,1.0,31,133.5
2304,E-4,473.5,1.0,31,133.5
2305,G#4,473.5,1.0,31,133.5
2306,G#5,474.0,0.75,31,133.5
2307,B3,474.5,0.5,27,133.5
2308,D4,474.5,0.5,27,133.5
2309,F4,474.5,0.5,27,133.5
2310,G#4,474.75,0.25,25,133.5
2311,G#5,475.0,0.25,25,133.5
2312,A3,475.0,0.5,31,133.5
2313,C#4,475.0,0.5,31,133.5
2314,F#4,475.0,0.5,31,133.5
2315,E-5,475.25,0.25,25,133.5
2316,G#5,475.5,0.25,25,133.5
2317,E-5,475.75,0.25,25,133.5
2318,E-6,476.0,0.25,21,133.5
2319,C#4,476.0,0.5,25,133.5
2320,E4,476.0,0.5,25,133.5
2321,A4,476.0,0.5,25,133.5
2322,G#5,476.25,0.25,21,133.5
2323,E-6,476.5,0.25,21,133.5
2324,G#3,476.5,0.5,24,133.5
2325,E-4,476.5,0.5,24,133.5
2326,C5,476.5,0.5,24,133.5
2327,G#5,476.75,0.25,21,133.5
2328,G#6,477.0,0.25,28,133.5
2329,G#5,477.5,0.5,44,133.5
2330,F#5,478.0,0.5,44,133.5
2331,G#2,478.0,0.5,24,133.5
2332,E5,478.5,1.5,45,133.5
2333,G4,479.0,0.25,34,133.5
2334,G#4,479.25,0.25,34,133.5
2335,B4,479.5,167/1000,34,133.5
2336,A4,479.667,167/1000,34,133.5
2337,G#4,479.833,167/1000,34,133.5
2338,G#4,480.0,1.5,43,133.5
2339,E5,480.0,0.5,45,133.5
2340,E5,480.5,0.5,42,133.5
2341,E-5,481.0,0.5,42,133.5
2342,C#5,481.5,0.5,44,133.5
2343,G#4,481.5,0.5,43,133.5
2344,G4,482.0,0.25,36,133.5
2345,G#4,482.25,0.25,32,133.5
2346,B4,482.5,167/1000,36,133.5
2347,C#3,482.5,1.5,33,133.5
2348,A4,482.667,167/1000,36,133.5
2349,G#4,482.833,167/1000,32,133.5
2350,G#4,483.0,1.5,44,133.5
2351,E4,483.0,0.5,30,133.5
2352,G#5,483.5,0.5,43,133.5
2353,G#3,483.5,0.5,30,133.5
2354,F#5,484.0,0.5,40,133.5
2355,G#3,484.0,0.5,30,133.5
2356,E-3,484.0,1.5,33,133.5
2357,F#3,484.0,1.5,33,133.5
2358,E5,484.5,1.5,46,133.5
2359,G#4,484.5,0.5,44,133.5
2360,C4,484.5,0.5,32,133.5
2361,G4,485.0,0.25,38,133.5
2362,G#3,485.0,0.5,32,133.5
2363,G#4,485.25,0.25,34,133.5
2364,B4,485.5,167/1000,38,133.5
2365,E3,485.5,1.5,33,133.5
2366,G#3,485.5,0.5,32,133.5
2367,A4,485.667,167/1000,38,133.5
2368,G#4,485.833,167/1000,35,133.5
2369,G#4,486.0,1.5,42,133.5
2370,E5,486.0,0.5,46,133.5
2371,C#4,486.0,0.5,32,133.5
2372,E5,486.5,0.5,43,133.5
2373,G#3,486.5,0.5,32,133.5
2374,E-5,487.0,0.5,41,133.5
2375,C3,487.0,1.5,33,133.5
2376,G#3,487.0,0.5,32,133.5
2377,C#5,487.5,0.5,47,133.5
2378,E-4,487.5,0.5,31,133.5
2379,C5,488.0,0.25,37,133.5
2380,G#3,488.0,0.5,31,133.5
2381,C#5,488.25,0.25,37,133.5
2382,E5,488.5,167/1000,37,133.5
2383,C#3,488.5,1.5,33,133.5
2384,G#3,488.5,0.5,31,133.5
2385,D5,488.667,167/1000,37,133.5
2386,C#5,488.833,167/1000,34,133.5
2387,C#5,489.0,1.5,41,133.5
2388,E4,489.0,0.5,33,133.5
2389,C#6,489.5,0.5,46,133.5
2390,G#3,489.5,0.5,31,133.5
2391,B5,490.0,0.5,44,133.5
2392,G#3,490.0,0.5,31,133.5
2393,E-3,490.0,1.5,33,133.5
2394,F#3,490.0,1.5,33,133.5
2395,A5,490.5,1.5,53,133.5
2396,C#5,490.5,0.5,41,133.5
2397,C4,490.5,0.5,31,133.5
2398,C5,491.0,0.25,32,133.5
2399,G#3,491.0,0.5,31,133.5
2400,C#5,491.25,0.25,30,133.5
2401,E5,491.5,167/1000,32,133.5
2402,E3,491.5,1.5,33,133.5
2403,G#3,491.5,0.5,31,133.5
2404,D5,491.667,167/1000,32,133.5
2405,C#5,491.833,167/1000,30,133.5
2406,C#5,492.0,1.5,37,133.5
2407,A5,492.0,0.5,53,133.5
2408,C#4,492.0,0.5,31,133.5
2409,A5,492.5,0.5,38,133.5
2410,G#3,492.5,0.5,31,133.5
2411,G#5,493.0,0.5,36,133.5
2412,B3,493.0,0.5,31,133.5
2413,F3,493.0,1.5,33,133.5
2414,F#5,493.5,0.5,40,133.5
2415,C#5,493.5,0.5,37,133.5
2416,G#4,493.5,0.5,31,133.5
2417,C5,494.0,0.25,27,133.5
2418,C#4,494.0,0.5,31,133.5
2419,C#5,494.25,0.25,28,133.5
2420,E5,494.5,167/1000,30,133.5
2421,C#4,494.5,0.5,31,133.5
2422,F#3,494.5,1.5,36,133.5
2423,A3,494.5,1.5,36,133.5
2424,D5,494.667,167/1000,30,133.5
2425,C#5,494.833,167/1000,27,133.5
2426,C#5,495.0,1.5,38,133.5
2427,F#4,495.0,0.5,31,133.5
2428,C#6,495.5,0.5,40,133.5
2429,C#4,495.5,0.5,31,133.5
2430,B5,496.0,0.5,37,133.5
2431,C#4,496.0,0.5,31,133.5
2432,G#3,496.0,1.5,33,133.5
2433,B3,496.0,1.5,33,133.5
2434,A5,496.5,1.5,45,133.5
2435,C#5,496.5,0.5,38,133.5
2436,F4,496.5,0.5,31,133.5
2437,C5,497.0,0.25,37,133.5
2438,C#4,497.0,0.5,31,133.5
2439,C#5,497.25,0.25,37,133.5
2440,E5,497.5,167/1000,37,133.5
2441,A3,497.5,1.5,33,133.5
2442,C#4,497.5,0.5,31,133.5
2443,D5,497.667,167/1000,37,133.5
2444,C#5,497.833,167/1000,34,133.5
2445,C#5,498.0,1.5,42,133.5
2446,A5,498.0,0.5,45,133.5
2447,F#4,498.0,0.5,27,133.5
2448,A5,498.5,0.5,44,133.5
2449,C#4,498.5,0.5,27,133.5
2450,G#5,499.0,0.5,42,133.5
2451,F3,499.0,1.5,30,133.5
2452,C#4,499.0,0.5,27,133.5
2453,F#5,499.5,1.5,47,133.5
2454,C#5,499.5,0.5,42,133.5
2455,G#4,499.5,0.5,31,133.5
2456,C5,500.0,0.25,37,133.5
2457,C#4,500.0,0.5,31,133.5
2458,C#5,500.25,0.25,34,133.5
2459,E5,500.5,167/1000,37,133.5
2460,C#4,500.5,0.5,31,133.5
2461,F#3,500.5,1.5,33,133.5
2462,A3,500.5,1.5,33,133.5
2463,D5,500.667,167/1000,37,133.5
2464,C#5,500.833,167/1000,34,133.5
2465,C#5,501.0,1.5,41,133.5
2466,F#5,501.0,0.5,47,133.5
2467,A4,501.0,0.5,31,133.5
2468,G#5,501.5,0.5,43,133.5
2469,C#4,501.5,0.5,31,133.5
2470,A5,502.0,0.5,42,133.5
2471,C#4,502.0,0.5,31,133.5
2472,G#3,502.0,1.5,33,133.5
2473,B3,502.0,1.5,33,133.5
2474,G#5,502.5,0.5,50,133.5
2475,F4,502.5,0.5,31,133.5
2476,G4,503.0,0.25,32,133.5
2477,C#4,503.0,0.5,31,133.5
2478,G#4,503.25,0.25,30,133.5
2479,B4,503.5,167/1000,32,133.5
2480,A3,503.5,1.5,33,133.5
2481,C#4,503.5,0.5,31,133.5
2482,A4,503.667,167/1000,32,133.5
2483,G#4,503.833,167/1000,30,133.5
2484,G#4,504.0,1.5,37,133.5
2485,F#4,504.0,0.5,31,133.5
2486,F#5,504.5,0.5,47,133.5
2487,C#4,504.5,0.5,31,133.5
2488,E5,505.0,0.5,47,133.5
2489,A2,505.0,0.25,31,133.5
2490,E-5,505.5,1.5,53,133.5
2491,G#4,505.5,0.5,37,133.5
2492,C#4,505.5,0.5,28,133.5
2493,G4,506.0,0.25,38,133.5
2494,F#3,506.0,0.5,28,133.5
2495,G#4,506.25,0.25,35,133.5
2496,B4,506.5,167/1000,38,133.5
2497,G#2,506.5,0.5,30,133.5
2498,E-3,506.5,1.5,30,133.5
2499,A4,506.667,167/1000,38,133.5
2500,G#4,506.833,167/1000,35,133.5
2501,G#4,507.0,1.5,46,133.5
2502,E-5,507.0,0.5,53,133.5
2503,C4,507.0,0.5,27,133.5
2504,E-5,507.5,0.5,47,133.5
2505,F#3,507.5,0.5,27,133.5
2506,C#5,508.0,0.5,44,133.5
2507,E3,508.0,1.5,31,133.5
2508,C5,508.5,0.5,52,133.5
2509,G#4,508.5,0.5,46,133.5
2510,C#4,508.5,0.5,33,133.5
2511,G4,509.0,0.25,41,133.5
2512,G#3,509.0,0.5,33,133.5
2513,G#4,509.25,0.25,39,133.5
2514,B4,509.5,167/1000,41,133.5
2515,G#2,509.5,0.5,38,133.5
2516,F#3,509.5,1.5,38,133.5
2517,A4,509.667,167/1000,41,133.5
2518,G#4,509.833,167/1000,38,133.5
2519,G#4,510.0,1.5,52,133.5
2520,C4,510.0,0.5,32,133.5
2521,F#5,510.5,0.5,43,133.5
2522,G#3,510.5,0.5,32,133.5
2523,E5,511.0,0.5,41,133.5
2524,E3,511.0,1.5,37,133.5
2525,G#3,511.0,0.5,32,133.5
2526,E-5,511.5,0.5,47,133.5
2527,G#4,511.5,0.5,52,133.5
2528,C#4,511.5,0.5,31,133.5
2529,B-4,512.0,0.25,38,133.5
2530,G#3,512.0,0.5,31,133.5
2531,B4,512.25,0.25,36,133.5
2532,E-5,512.5,167/1000,38,133.5
2533,G#2,512.5,0.5,36,133.5
2534,E-3,512.5,1.5,36,133.5
2535,C#5,512.667,167/1000,38,133.5
2536,B4,512.833,167/1000,35,133.5
2537,B4,513.0,1.5,41,133.5
2538,C4,513.0,0.5,34,133.5
2539,E5,513.5,0.5,34,133.5
2540,G#3,513.5,0.5,34,133.5
2541,F#5,514.0,0.5,34,133.5
2542,E3,514.0,1.5,38,133.5
2543,G#3,514.0,0.5,34,133.5
2544,G#4,514.5,0.25,35,133.5
2545,C#4,514.5,0.5,31,133.5
2546,B4,514.75,0.25,37,133.5
2547,E5,515.0,0.25,40,133.5
2548,G#3,515.0,0.5,31,133.5
2549,G#5,515.25,0.25,42,133.5
2550,F#5,515.5,0.25,44,133.5
2551,B2,515.5,1.5,33,133.5
2552,E5,515.75,0.25,42,133.5
2553,G#5,516.0,0.25,38,133.5
2554,F#3,516.0,1.0,29,133.5
2555,B5,516.25,0.25,40,133.5
2556,E6,516.5,0.25,43,133.5
2557,A3,516.5,0.5,29,133.5
2558,G#6,516.75,0.25,46,133.5
2559,F#6,517.0,0.25,50,133.5
2560,E-4,517.0,1.5,33,133.5
2561,B2,517.0,1.5,33,133.5
2562,F#3,517.0,1.5,29,133.5
2563,A3,517.0,1.5,29,133.5
2564,E6,517.25,0.25,47,133.5
2565,B5,517.5,0.25,44,133.5
2566,G#5,517.75,0.25,43,133.5
2567,F#5,518.0,0.25,42,133.5
2568,E5,518.25,0.25,41,133.5
2569,B4,518.5,0.25,40,133.5
2570,E3,518.5,1.5,32,133.5
2571,G#4,518.75,0.25,39,133.5
2572,F#4,519.0,0.25,38,133.5
2573,E4,519.0,0.5,29,133.5
2574,B3,519.0,0.5,29,133.5
2575,E4,519.25,0.25,37,133.5
2576,B3,519.5,0.25,36,133.5
2577,G#3,519.5,0.5,30,133.5
2578,G#4,519.75,0.25,39,133.5
2579,F#4,520.0,0.25,38,133.5
2580,E-3,520.0,1.5,35,133.5
2581,E4,520.25,0.25,37,133.5
2582,C#4,520.5,0.25,36,133.5
2583,E4,520.5,0.5,30,133.5
2584,B3,520.5,0.5,30,133.5
2585,E4,520.75,0.25,34,133.5
2586,F#4,521.0,0.25,37,133.5
2587,G#3,521.0,0.5,32,133.5
2588,A4,521.25,0.25,39,133.5
2589,C#5,521.5,0.25,41,133.5
2590,E3,521.5,0.5,32,133.5
2591,E5,521.75,0.25,43,133.5
2592,F#5,522.0,0.25,46,133.5
2593,E4,522.0,0.5,30,133.5
2594,B3,522.0,0.5,30,133.5
2595,A5,522.25,0.25,48,133.5
2596,C#6,522.5,0.25,50,133.5
2597,G#3,522.5,0.5,30,133.5
2598,E6,522.75,0.25,51,133.5
2599,F#6,523.0,0.25,49,133.5
2600,B2,523.0,1.5,32,133.5
2601,A6,523.25,0.25,47,133.5
2602,G#6,523.5,0.25,50,133.5
2603,F#6,523.75,0.25,49,133.5
2604,E-6,524.0,0.25,49,133.5
2605,A5,524.25,0.25,48,133.5
2606,G#5,524.5,0.25,47,133.5
2607,A2,524.5,0.25,36,133.5
2608,F#5,524.75,0.25,46,133.5
2609,E-5,525.0,0.25,45,133.5
2610,E4,525.0,0.5,31,133.5
2611,C#4,525.0,0.5,31,133.5
2612,B4,525.25,0.25,44,133.5
2613,E-5,525.5,0.25,45,133.5
2614,F#3,525.5,0.5,31,133.5
2615,C#5,525.75,0.25,42,133.5
2616,B4,526.0,0.25,39,133.5
2617,F#2,526.0,0.25,40,133.5
2618,A4,526.25,0.25,37,133.5
2619,G#4,526.5,0.25,35,133.5
2620,E4,526.5,0.5,35,133.5
2621,C#4,526.5,0.5,35,133.5
2622,B4,526.75,0.25,37,133.5
2623,E5,527.0,0.25,40,133.5
2624,F#3,527.0,0.5,35,133.5
2625,G#5,527.25,0.25,42,133.5
2626,F#5,527.5,0.25,44,133.5
2627,B2,527.5,0.25,38,133.5
2628,E5,527.75,0.25,42,133.5
2629,G#5,528.0,0.25,38,133.5
2630,B3,528.0,1.0,34,133.5
2631,E-4,528.0,1.0,34,133.5
2632,B5,528.25,0.25,40,133.5
2633,E6,528.5,0.25,43,133.5
2634,F#3,528.5,0.5,31,133.5
2635,G#6,528.75,0.25,46,133.5
2636,F#6,529.0,0.25,50,133.5
2637,G#3,529.0,0.5,38,133.5
2638,B3,529.0,1.5,34,133.5
2639,E-4,529.0,1.5,34,133.5
2640,E6,529.25,0.25,47,133.5
2641,B5,529.5,0.25,44,133.5
2642,F#3,529.5,0.5,40,133.5
2643,G#5,529.75,0.25,43,133.5
2644,F#5,530.0,0.25,42,133.5
2645,G#3,530.0,0.5,48,133.5
2646,E5,530.25,0.25,41,133.5
2647,B4,530.5,0.25,40,133.5
2648,E3,530.5,1.5,35,133.5
2649,G#4,530.75,0.25,39,133.5
2650,F#4,531.0,0.25,38,133.5
2651,E4,531.0,0.5,31,133.5
2652,B3,531.0,0.5,31,133.5
2653,E4,531.25,0.25,37,133.5
2654,B3,531.5,0.25,36,133.5
2655,G#3,531.5,0.5,33,133.5
2656,G#4,531.75,0.25,39,133.5
2657,F#4,532.0,0.25,38,133.5
2658,E-3,532.0,1.5,38,133.5
2659,E4,532.25,0.25,37,133.5
2660,C#4,532.5,0.25,36,133.5
2661,E4,532.5,0.5,33,133.5
2662,B3,532.5,0.5,33,133.5
2663,E4,532.75,47/200,34,133.5
2664,F#4,533.0,0.25,37,133.5
2665,G#3,533.0,0.5,35,133.5
2666,A4,533.25,0.25,39,133.5
2667,C#5,533.5,0.25,41,133.5
2668,E3,533.5,0.5,35,133.5
2669,E5,533.75,0.25,43,133.5
2670,F#5,534.0,0.25,46,133.5
2671,E4,534.0,0.5,33,133.5
2672,B3,534.0,0.5,33,133.5
2673,A5,534.25,0.25,48,133.5
2674,C#6,534.5,0.25,50,133.5
2675,G#3,534.5,0.5,33,133.5
2676,E6,534.75,0.25,51,133.5
2677,F#6,535.0,0.25,49,133.5
2678,B2,535.0,1.5,35,133.5
2679,A6,535.25,0.25,47,133.5
2680,G#6,535.5,0.25,47,133.5
2681,F#6,535.75,0.25,48,133.5
2682,E-6,536.0,0.25,49,133.5
2683,A5,536.25,0.25,50,133.5
2684,G#5,536.5,0.25,51,133.5
2685,A2,536.5,0.25,36,133.5
2686,F#5,536.75,0.25,52,133.5
2687,E-5,537.0,0.25,53,133.5
2688,E4,537.0,0.5,31,133.5
2689,C#4,537.0,0.5,31,133.5
2690,B4,537.25,0.25,52,133.5
2691,E-5,537.5,0.25,51,133.5
2692,F#3,537.5,0.5,31,133.5
2693,C#5,537.75,0.25,51,133.5
2694,B4,538.0,0.25,53,133.5
2695,F#2,538.0,0.25,40,133.5
2696,A4,538.25,0.25,57,133.5
2697,G#4,538.5,0.25,56,133.5
2698,E4,538.5,0.5,35,133.5
2699,C#4,538.5,0.5,35,133.5
2700,B4,538.75,0.25,59,133.5
2701,E5,539.0,0.25,61,133.5
2702,F#3,539.0,0.5,35,133.5
2703,G#5,539.25,0.25,63,133.5
2704,F#5,539.5,0.25,65,133.5
2705,B2,539.5,0.25,42,133.5
2706,E5,539.75,0.25,63,133.5
2707,G#5,540.0,0.25,61,133.5
2708,B3,540.0,1.0,36,133.5
2709,E-4,540.0,1.0,36,133.5
2710,B5,540.25,0.25,61,133.5
2711,E6,540.5,0.25,64,133.5
2712,F#3,540.5,0.5,36,133.5
2713,G#6,540.75,0.25,66,133.5
2714,F#6,541.0,0.25,69,133.5
2715,G#3,541.0,0.5,38,133.5
2716,B3,541.0,1.5,36,133.5
2717,E-4,541.0,1.5,36,133.5
2718,E6,541.25,0.25,65,133.5
2719,C6,541.5,0.25,62,133.5
2720,F#3,541.5,0.5,40,133.5
2721,A5,541.75,0.25,61,133.5
2722,F#5,542.0,0.25,60,133.5
2723,G#3,542.0,0.5,45,133.5
2724,E5,542.25,0.25,60,133.5
2725,C5,542.5,0.25,59,133.5
2726,E3,542.5,1.5,49,133.5
2727,A4,542.75,0.25,58,133.5
2728,F#4,543.0,0.25,57,133.5
2729,E4,543.0,0.5,44,133.5
2730,B3,543.0,0.5,44,133.5
2731,E4,543.25,0.25,56,133.5
2732,C4,543.5,0.25,55,133.5
2733,G#3,543.5,0.5,44,133.5
2734,A3,543.75,0.25,54,133.5
2735,F#3,544.0,0.25,53,133.5
2736,B2,544.0,0.25,67,133.5
2737,E3,544.25,0.25,52,133.5
2738,G#3,544.5,0.25,52,133.5
2739,E4,544.5,0.5,74,133.5
2740,B3,544.5,0.5,74,133.5
2741,B3,544.75,0.25,51,133.5
2742,E4,545.0,0.25,52,133.5
2743,G#3,545.0,0.5,74,133.5
2744,G#4,545.25,0.25,53,133.5
2745,F#4,545.5,0.25,54,133.5
2746,A2,545.5,0.5,70,133.5
2747,A3,545.5,0.5,70,133.5
2748,E4,545.75,0.25,52,133.5
2749,G#4,546.0,0.25,49,133.5
2750,C3,546.0,1.0,77,133.5
2751,C4,546.0,1.0,77,133.5
2752,B4,546.25,0.25,51,133.5
2753,E5,546.5,0.25,54,133.5
2754,G#5,546.75,0.25,57,133.5
2755,F#5,547.0,0.25,59,133.5
2756,E5,547.25,0.25,57,133.5
2757,C5,547.5,0.25,59,133.5
2758,A4,547.75,0.25,61,133.5
2759,F#4,548.0,0.25,62,133.5
2760,E4,548.25,0.25,64,133.5
2761,C4,548.5,0.25,66,133.5
2762,E2,548.5,1.5,66,133.5
2763,A3,548.75,0.25,67,133.5
2764,F#3,549.0,0.25,69,133.5
2765,E3,549.0,0.5,52,133.5
2766,E3,549.25,0.25,71,133.5
2767,C3,549.5,0.25,73,133.5
2768,B2,549.5,0.5,52,133.5
2769,A2,549.75,0.25,74,133.5
2770,F#2,550.0,0.25,76,133.5
2771,B1,550.0,0.25,68,133.5
2772,E2,550.25,0.25,78,133.5
2773,E3,550.5,0.5,68,133.5
2774,B2,551.0,0.25,73,133.5
2775,B2,551.0,0.5,68,133.5
2776,E3,551.25,0.25,68,133.5
2777,A3,551.5,0.25,68,133.5
2778,A1,551.5,0.5,75,133.5
2779,A2,551.5,0.5,75,133.5
2780,G#3,551.75,0.25,68,133.5
2781,B3,552.0,0.25,73,133.5
2782,C2,552.0,1.0,86,133.5
2783,C3,552.0,1.0,86,133.5
2784,E4,552.25,0.25,67,133.5
2785,A4,552.5,0.25,67,133.5
2786,G#4,552.75,0.25,68,133.5
2787,B4,553.0,0.25,72,133.5
2788,E5,553.25,0.25,73,133.5
2789,A5,553.5,0.25,76,133.5
2790,G#5,553.75,0.25,71,133.5
2791,B5,554.0,0.25,71,133.5
2792,E6,554.25,0.25,71,133.5
2793,A6,554.5,0.25,71,133.5
2794,E1,554.5,0.5,98,133.5
2795,G#6,554.75,0.25,71,133.5
2796,E6,555.0,0.25,77,133.5
2797,B5,555.25,0.25,71,133.5
2798,A5,555.5,0.25,71,133.5
2799,G#5,555.75,0.25,71,133.5
2800,E5,556.0,0.25,71,133.5
2801,B4,556.25,0.25,71,133.5
2802,A4,556.5,0.25,71,133.5
2803,G#4,556.75,0.25,72,133.5
2804,E4,557.0,0.25,73,133.5
2805,B3,557.25,0.25,75,133.5
2806,A3,557.5,0.25,77,133.5
2807,G#4,557.5,0.5,80,133.5
2808,B3,557.5,0.5,80,133.5
2809,E3,557.5,0.5,80,133.5
2810,G#3,557.75,0.25,78,133.5
2811,E3,558.0,0.25,80,133.5
2812,B2,558.25,0.25,81,133.5
2813,A2,558.5,0.25,82,133.5
2814,G#2,558.75,0.25,84,133.5
2815,E2,559.0,0.25,86,133.5
2816,B1,559.25,0.25,88,133.5
2817,E3,562.5,1.5,62,133.5
2818,C#4,562.5,1.5,62,133.5
2819,E4,562.5,1.5,62,133.5
2820,E1,563.5,1.5,96,133.5
2821,F#3,564.0,1.5,46,133.5
2822,C#4,564.0,1.5,55,133.5
2823,F#4,564.0,1.5,55,133.5
2824,C#4,565.5,0.5,55,133.5
2825,F#4,565.5,1.5,55,133.5
2826,B3,566.0,0.5,71,133.5
2827,C#4,566.5,0.5,71,133.5
2828,A1,566.5,1.5,50,133.5
2829,A2,566.5,1.5,50,133.5
2830,E4,567.0,0.5,75,133.5
2831,F#4,567.0,1.5,55,133.5
2832,D4,567.5,0.75,70,133.5
2833,D2,568.0,1.5,44,133.5
2834,A2,568.0,1.5,50,133.5
2835,C#4,568.25,229/1000,64,133.5
2836,E3,568.5,1.5,62,133.5
2837,C#4,568.5,1.5,62,133.5
2838,E4,568.5,1.5,62,133.5
2839,D2,569.5,1.5,44,133.5
2840,A2,569.5,1.5,50,133.5
2841,F#3,570.0,1.5,46,133.5
2842,C#4,570.0,1.5,55,133.5
2843,F#4,570.0,1.5,55,133.5
2844,D2,571.0,1.5,44,133.5
2845,A2,571.0,1.5,50,133.5
2846,F#3,571.5,1.5,46,133.5
2847,C#4,571.5,0.5,55,133.5
2848,F#4,571.5,1.5,55,133.5
2849,B3,572.0,0.5,67,133.5
2850,C#4,572.5,0.5,67,133.5
2851,A1,572.5,1.5,50,133.5
2852,A2,572.5,1.5,50,133.5
2853,E4,573.0,0.5,72,133.5
2854,F#3,573.0,1.5,46,133.5
2855,F#4,573.0,1.5,55,133.5
2856,D4,573.5,0.75,66,133.5
2857,D2,574.0,1.5,44,133.5
2858,A2,574.0,1.5,50,133.5
2859,C#4,574.25,13/125,57,133.5
2860,C#4,574.375,0.125,54,133.5
2861,A4,574.5,0.5,63,133.5
2862,F#3,574.5,1.5,46,133.5
2863,C#4,574.5,1.0,54,133.5
2864,F#4,575.0,1.0,62,133.5
2865,D4,575.5,0.5,57,133.5
2866,D2,575.5,1.5,44,133.5
2867,A2,575.5,1.5,50,133.5
2868,G#3,576.0,1.5,52,133.5
2869,C#4,576.0,1.5,52,133.5
2870,E4,576.0,1.5,52,133.5
2871,D2,577.0,1.5,44,133.5
2872,A2,577.0,1.5,50,133.5
2873,B3,577.5,1.0,43,133.5
2874,G#3,577.5,1.0,52,133.5
2875,E4,577.5,1.5,52,133.5
2876,A3,578.5,0.5,37,133.5
2877,D2,578.5,1.5,44,133.5
2878,A2,578.5,1.5,50,133.5
2879,C#4,579.0,1.5,35,133.5
2880,E2,580.0,1.5,41,133.5
2881,E3,580.0,1.5,41,133.5
2882,C#4,580.5,1.5,35,133.5
2883,D3,581.5,1.0,39,133.5
2884,E2,581.5,1.0,41,133.5
2885,C#5,582.0,1.25,53,133.5
2886,A2,582.5,0.5,36,133.5
2887,C#3,582.5,0.5,36,133.5
2888,E3,583.0,1.5,32,133.5
2889,A2,583.0,1.5,36,133.5
2890,B4,583.25,0.125,45,133.5
2891,C#5,583.375,0.125,45,133.5
2892,B4,583.5,0.75,50,133.5
2893,A4,584.25,0.25,47,133.5
2894,B4,584.5,0.5,50,133.5
2895,E3,584.5,1.5,32,133.5
2896,A2,584.5,1.5,36,133.5
2897,C#5,585.0,0.75,53,133.5
2898,D5,585.75,0.25,50,133.5
2899,C#5,586.0,0.25,48,133.5
2900,B4,586.25,0.125,43,133.5
2901,C#5,586.375,0.125,43,133.5
2902,B4,586.5,0.75,52,133.5
2903,E3,587.0,0.5,32,133.5
2904,G3,587.0,0.5,32,133.5
2905,B-3,587.0,0.5,32,133.5
2906,A4,587.25,0.25,48,133.5
2907,B4,587.5,0.5,47,133.5
2908,D3,587.5,0.5,38,133.5
2909,F#3,587.5,0.5,38,133.5
2910,B3,587.5,0.5,38,133.5
2911,C#5,588.0,0.25,39,133.5
2912,C#4,588.25,0.25,29,133.5
2913,C#5,588.5,0.25,29,133.5
2914,F#3,588.5,0.5,32,133.5
2915,A3,588.5,0.5,32,133.5
2916,D4,588.5,0.5,32,133.5
2917,G#4,588.75,0.25,29,133.5
2918,C#5,589.0,0.25,29,133.5
2919,F3,589.0,1.0,36,133.5
2920,G#3,589.0,1.0,36,133.5
2921,C#4,589.0,1.0,36,133.5
2922,G#4,589.25,0.25,29,133.5
2923,G#5,589.5,0.25,29,133.5
2924,C#5,589.75,0.25,29,133.5
2925,G#5,590.0,0.25,29,133.5
2926,E3,590.0,0.5,31,133.5
2927,G3,590.0,0.5,31,133.5
2928,B-3,590.0,0.5,31,133.5
2929,C#5,590.25,0.25,29,133.5
2930,C#6,590.5,0.25,29,133.5
2931,D3,590.5,0.5,37,133.5
2932,F#3,590.5,0.5,37,133.5
2933,B3,590.5,0.5,37,133.5
2934,G#5,590.75,0.25,29,133.5
2935,C#6,591.0,0.25,29,133.5
2936,G#5,591.25,0.25,29,133.5
2937,G#6,591.5,0.25,29,133.5
2938,F#3,591.5,0.5,32,133.5
2939,A3,591.5,0.5,32,133.5
2940,D4,591.5,0.5,32,133.5
2941,C#6,591.75,0.25,29,133.5
2942,G#6,592.0,0.25,29,133.5
2943,C#3,592.0,0.5,29,133.5
2944,G#3,592.062,0.438,29,133.5
2945,F4,592.125,0.375,29,133.5
2946,C#6,592.25,0.25,29,133.5
2947,C#7,592.5,0.25,39,133.5
2948,C#2,593.5,0.25,25,133.5
2949,C#4,594.0,1.5,44,133.5
2950,E3,594.0,1.5,40,133.5
2951,E4,594.0,1.5,40,133.5
2952,F#3,595.5,1.5,31,133.5
2953,F#4,595.5,1.5,37,133.5
2954,C#4,595.5,2.0,44,133.5
2955,F#4,597.5,1.5,37,133.5
2956,B3,598.0,0.5,48,133.5
2957,A2,598.0,1.5,34,133.5
2958,C#4,598.5,0.5,48,133.5
2959,E4,599.0,0.5,51,133.5
2960,F#4,599.0,1.5,37,133.5
2961,D4,599.5,0.75,47,133.5
2962,D2,599.5,1.5,30,133.5
2963,A2,599.5,1.5,34,133.5
2964,C#4,600.25,0.25,47,133.5
2965,C#4,600.5,1.5,44,133.5
2966,E3,600.5,1.5,40,133.5
2967,E4,600.5,1.5,40,133.5
2968,D2,601.0,1.5,30,133.5
2969,A2,601.0,1.5,34,133.5
2970,F#3,602.0,1.5,31,133.5
2971,F#4,602.0,1.5,37,133.5
2972,C#4,602.0,2.0,44,133.5
2973,D2,602.5,1.5,30,133.5
2974,A2,602.5,1.5,34,133.5
2975,F#3,604.0,1.5,31,133.5
2976,F#4,604.0,1.5,37,133.5
2977,A1,604.0,1.5,34,133.5
2978,A2,604.0,1.5,34,133.5
2979,B3,604.5,0.5,48,133.5
2980,C#4,605.0,0.5,48,133.5
2981,E4,605.5,0.5,51,133.5
2982,F#3,605.5,1.5,31,133.5
2983,F#4,605.5,1.5,37,133.5
2984,D2,605.5,1.5,30,133.5
2985,A2,605.5,1.5,34,133.5
2986,D4,606.0,0.5,47,133.5
2987,C#4,606.5,177/500,47,133.5
2988,C#4,606.875,0.125,40,133.5
2989,A4,607.0,0.25,36,133.5
2990,F#3,607.0,1.5,31,133.5
2991,C#4,607.0,1.25,40,133.5
2992,D2,607.0,1.5,30,133.5
2993,A2,607.0,1.5,34,133.5
2994,G#4,607.25,0.25,33,133.5
2995,B4,607.5,0.25,39,133.5
2996,A4,607.75,0.25,38,133.5
2997,F#4,608.0,0.25,36,133.5
2998,D4,608.25,0.25,35,133.5
2999,G#3,608.5,1.5,31,133.5
3000,C#4,608.5,1.5,37,133.5
3001,E4,608.5,1.5,37,133.5
3002,D2,608.5,1.5,30,133.5
3003,A2,608.5,1.5,34,133.5
3004,B3,610.0,1.0,31,133.5
3005,G#3,610.0,1.0,31,133.5
3006,E4,610.0,1.5,37,133.5
3007,D2,610.0,1.5,30,133.5
3008,A2,610.0,1.5,34,133.5
3009,A3,611.0,0.5,27,133.5
3010,C#4,611.5,1.5,25,133.5
3011,E2,611.5,1.5,28,133.5
3012,E3,611.5,1.5,28,133.5
3013,C#4,613.0,1.5,25,133.5
3014,D3,613.0,1.0,28,133.5
3015,E2,613.0,1.0,28,133.5
3016,A2,614.0,0.5,25,133.5
3017,C#3,614.0,0.5,25,133.5
3018,E3,614.5,1.5,22,133.5
3019,A2,614.5,1.5,25,133.5
3020,C#5,616.0,1.5,42,133.5
3021,E3,616.0,1.5,22,133.5
3022,A2,616.0,1.5,25,133.5
3023,C#5,617.5,1.5,42,133.5
3024,C#5,619.0,0.25,42,133.5
3025,E-5,619.25,0.25,42,133.5
3026,F#5,619.5,0.25,43,133.5
3027,E5,619.75,0.25,41,133.5
3028,C#5,620.0,0.25,39,133.5
3029,A4,620.25,0.25,39,133.5
3030,G#4,620.5,0.062,35,133.5
3031,G#4,620.625,0.125,35,133.5
3032,G#5,620.75,1.0,43,133.5
3033,F#5,621.75,0.125,37,133.5
3034,G#5,621.875,0.125,37,133.5
3035,F#5,622.0,0.75,43,133.5
3036,E5,622.75,0.25,39,133.5
3037,F#5,623.0,0.5,39,133.5
3038,G#5,623.5,0.75,42,133.5
3039,A5,624.25,0.25,40,133.5
3040,G#5,624.5,0.25,40,133.5
3041,B3,624.5,0.5,26,133.5
3042,D4,624.5,0.5,26,133.5
3043,F4,624.5,0.5,26,133.5
3044,F#5,624.75,0.125,37,133.5
3045,G#5,624.875,0.125,37,133.5
3046,F#5,625.0,0.75,44,133.5
3047,A3,625.0,0.5,31,133.5
3048,C#4,625.0,0.5,31,133.5
3049,F#4,625.0,0.5,31,133.5
3050,E5,625.75,0.25,33,133.5
3051,F#5,626.0,0.5,31,133.5
3052,C#4,626.0,0.5,28,133.5
3053,E4,626.0,0.5,28,133.5
3054,A4,626.0,0.5,28,133.5
3055,G#5,626.5,1.5,31,133.5
3056,C4,626.5,1.0,31,133.5
3057,E-4,626.5,1.0,31,133.5
3058,G#4,626.5,1.0,31,133.5
3059,B3,627.5,0.5,27,133.5
3060,D4,627.5,0.5,27,133.5
3061,F4,627.5,0.5,27,133.5
3062,G#5,628.0,0.75,31,133.5
3063,A3,628.0,0.5,31,133.5
3064,C#4,628.0,0.5,31,133.5
3065,F#4,628.0,0.5,31,133.5
3066,G#4,628.75,0.25,25,133.5
3067,G#5,629.0,0.25,25,133.5
3068,C#4,629.0,0.5,25,133.5
3069,E4,629.0,0.5,25,133.5
3070,A4,629.0,0.5,25,133.5
3071,E-5,629.25,0.25,25,133.5
3072,G#5,629.5,0.25,25,133.5
3073,G#3,629.5,0.5,24,133.5
3074,E-4,629.5,0.5,24,133.5
3075,C5,629.5,0.5,24,133.5
3076,E-5,629.75,0.25,25,133.5
3077,E-6,630.0,0.25,21,133.5
3078,G#5,630.25,0.25,21,133.5
3079,E-6,630.5,0.25,21,133.5
3080,G#5,630.75,0.25,21,133.5
3081,G#6,631.0,0.25,28,133.5
3082,G#2,631.0,0.5,24,133.5
3083,G#5,631.5,0.5,44,133.5
3084,F#5,632.0,0.5,44,133.5
3085,E5,632.5,1.5,45,133.5
3086,G4,633.0,0.25,34,133.5
3087,G#4,633.25,0.25,31,133.5
3088,B4,633.5,167/1000,34,133.5
3089,A4,633.667,167/1000,34,133.5
3090,G#4,633.833,167/1000,32,133.5
3091,G#4,634.0,1.5,43,133.5
3092,E5,634.0,0.5,45,133.5
3093,E5,634.5,0.5,42,133.5
3094,E-5,635.0,0.5,39,133.5
3095,C#5,635.5,0.5,44,133.5
3096,G#4,635.5,0.5,43,133.5
3097,C#3,635.5,1.5,33,133.5
3098,G4,636.0,0.25,36,133.5
3099,E4,636.0,0.5,30,133.5
3100,G#4,636.25,0.25,33,133.5
3101,B4,636.5,167/1000,36,133.5
3102,G#3,636.5,0.5,30,133.5
3103,A4,636.667,167/1000,36,133.5
3104,G#4,636.833,167/1000,33,133.5
3105,G#4,637.0,1.5,44,133.5
3106,G#3,637.0,0.5,30,133.5
3107,E-3,637.0,1.5,33,133.5
3108,F#3,637.0,1.5,33,133.5
3109,G#5,637.5,0.5,43,133.5
3110,C4,637.5,0.5,32,133.5
3111,F#5,638.0,0.5,39,133.5
3112,G#3,638.0,0.5,32,133.5
3113,E5,638.5,1.5,46,133.5
3114,G#4,638.5,0.5,44,133.5
3115,E3,638.5,1.5,33,133.5
3116,G#3,638.5,0.5,32,133.5
3117,G4,639.0,0.25,38,133.5
3118,C#4,639.0,0.5,32,133.5
3119,G#4,639.25,0.25,35,133.5
3120,B4,639.5,167/1000,38,133.5
3121,G#3,639.5,0.5,32,133.5
3122,A4,639.667,167/1000,38,133.5
3123,G#4,639.833,167/1000,36,133.5
3124,G#4,640.0,1.5,42,133.5
3125,E5,640.0,0.5,46,133.5
3126,C3,640.0,1.5,33,133.5
3127,G#3,640.0,0.5,32,133.5
3128,E5,640.5,0.5,43,133.5
3129,E-4,640.5,0.5,31,133.5
3130,E-5,641.0,0.5,38,133.5
3131,G#3,641.0,0.5,31,133.5
3132,C#5,641.5,0.5,47,133.5
3133,C#3,641.5,1.5,33,133.5
3134,G#3,641.5,0.5,31,133.5
3135,C5,642.0,0.25,37,133.5
3136,E4,642.0,0.5,33,133.5
3137,C#5,642.25,0.25,35,133.5
3138,E5,642.5,167/1000,37,133.5
3139,G#3,642.5,0.5,31,133.5
3140,D5,642.667,167/1000,37,133.5
3141,C#5,642.833,73/500,35,133.5
3142,C#5,643.0,1.5,41,133.5
3143,G#3,643.0,0.5,31,133.5
3144,E-3,643.0,1.5,33,133.5
3145,F#3,643.0,1.5,33,133.5
3146,C#6,643.5,0.5,46,133.5
3147,C4,643.5,0.5,31,133.5
3148,B5,644.0,0.5,43,133.5
3149,G#3,644.0,0.5,31,133.5
3150,A5,644.5,1.5,53,133.5
3151,C#5,644.5,0.5,41,133.5
3152,E3,644.5,1.5,33,133.5
3153,G#3,644.5,0.5,31,133.5
3154,C5,645.0,0.25,32,133.5
3155,C#4,645.0,0.5,31,133.5
3156,C#5,645.25,0.25,30,133.5
3157,E5,645.5,167/1000,32,133.5
3158,G#3,645.5,0.5,31,133.5
3159,D5,645.667,167/1000,32,133.5
3160,C#5,645.833,73/500,30,133.5
3161,C#5,646.0,1.5,37,133.5
3162,A5,646.0,0.5,53,133.5
3163,B3,646.0,0.5,31,133.5
3164,F3,646.0,1.5,33,133.5
3165,A5,646.5,0.5,38,133.5
3166,G#4,646.5,0.5,31,133.5
3167,G#5,647.0,0.5,36,133.5
3168,C#4,647.0,0.5,31,133.5
3169,F#5,647.5,0.5,40,133.5
3170,C#5,647.5,0.5,37,133.5
3171,C#4,647.5,0.5,31,133.5
3172,F#3,647.5,1.5,36,133.5
3173,A3,647.5,1.5,36,133.5
3174,C5,648.0,0.25,27,133.5
3175,F#4,648.0,0.5,31,133.5
3176,C#5,648.25,0.25,27,133.5
3177,E5,648.5,167/1000,30,133.5
3178,C#4,648.5,0.5,31,133.5
3179,D5,648.667,167/1000,30,133.5
3180,C#5,648.833,73/500,29,133.5
3181,C#5,649.0,1.5,38,133.5
3182,C#4,649.0,0.5,31,133.5
3183,G#3,649.0,1.5,33,133.5
3184,B3,649.0,1.5,33,133.5
3185,C#6,649.5,0.5,40,133.5
3186,F4,649.5,0.5,31,133.5
3187,B5,650.0,0.5,38,133.5
3188,C#4,650.0,0.5,31,133.5
3189,A5,650.5,1.5,45,133.5
3190,C#5,650.5,0.5,38,133.5
3191,A3,650.5,1.5,33,133.5
3192,C#4,650.5,0.5,31,133.5
3193,C5,651.0,0.25,37,133.5
3194,F#4,651.0,0.5,27,133.5
3195,C#5,651.25,0.25,37,133.5
3196,E5,651.5,167/1000,37,133.5
3197,C#4,651.5,0.5,27,133.5
3198,D5,651.667,167/1000,37,133.5
3199,C#5,651.833,73/500,34,133.5
3200,C#5,652.0,1.5,42,133.5
3201,A5,652.0,0.5,45,133.5
3202,F3,652.0,1.5,30,133.5
3203,C#4,652.0,0.5,27,133.5
3204,A5,652.5,0.5,44,133.5
3205,G#4,652.5,0.5,31,133.5
3206,G#5,653.0,0.5,40,133.5
3207,C#4,653.0,0.5,31,133.5
3208,F#5,653.5,1.5,47,133.5
3209,C#5,653.5,0.5,42,133.5
3210,C#4,653.5,0.5,31,133.5
3211,F#3,653.5,1.5,33,133.5
3212,A3,653.5,1.5,33,133.5
3213,C5,654.0,0.25,37,133.5
3214,A4,654.0,0.5,31,133.5
3215,C#5,654.25,0.25,35,133.5
3216,E5,654.5,167/1000,37,133.5
3217,C#4,654.5,0.5,31,133.5
3218,D5,654.667,167/1000,37,133.5
3219,C#5,654.833,73/500,35,133.5
3220,C#5,655.0,1.5,41,133.5
3221,F#5,655.0,0.5,47,133.5
3222,C#4,655.0,0.5,31,133.5
3223,G#3,655.0,1.5,33,133.5
3224,B3,655.0,1.5,33,133.5
3225,G#5,655.5,0.5,43,133.5
3226,F4,655.5,0.5,31,133.5
3227,A5,656.0,0.5,40,133.5
3228,C#4,656.0,0.5,31,133.5
3229,G#5,656.5,0.5,50,133.5
3230,A3,656.5,1.5,33,133.5
3231,C#4,656.5,0.5,31,133.5
3232,G4,657.0,0.25,32,133.5
3233,F#4,657.0,0.5,31,133.5
3234,G#4,657.25,0.25,30,133.5
3235,B4,657.5,167/1000,32,133.5
3236,C#4,657.5,0.5,31,133.5
3237,A4,657.667,167/1000,32,133.5
3238,G#4,657.833,73/500,30,133.5
3239,G#4,658.0,1.5,37,133.5
3240,A2,658.0,0.25,31,133.5
3241,F#5,658.5,0.5,47,133.5
3242,C#4,658.5,0.5,28,133.5
3243,E5,659.0,0.5,44,133.5
3244,F#3,659.0,0.5,28,133.5
3245,E-5,659.5,1.5,53,133.5
3246,G#4,659.5,0.5,37,133.5
3247,G#2,659.5,0.5,30,133.5
3248,E-3,659.5,1.5,30,133.5
3249,G4,660.0,0.25,38,133.5
3250,C4,660.0,0.5,27,133.5
3251,G#4,660.25,0.25,38,133.5
3252,B4,660.5,167/1000,38,133.5
3253,F#3,660.5,0.5,27,133.5
3254,A4,660.667,167/1000,38,133.5
3255,G#4,660.833,73/500,35,133.5
3256,G#4,661.0,1.5,46,133.5
3257,E-5,661.0,0.5,53,133.5
3258,E3,661.0,1.5,31,133.5
3259,E-5,661.5,0.5,47,133.5
3260,C#4,661.5,0.5,33,133.5
3261,C#5,662.0,0.5,44,133.5
3262,G#3,662.0,0.5,33,133.5
3263,C5,662.5,0.5,52,133.5
3264,G#4,662.5,0.5,46,133.5
3265,G#2,662.5,0.5,38,133.5
3266,F#3,662.5,1.5,38,133.5
3267,G4,663.0,0.25,41,133.5
3268,C4,663.0,0.5,32,133.5
3269,G#4,663.25,0.25,38,133.5
3270,B4,663.5,167/1000,41,133.5
3271,G#3,663.5,0.5,32,133.5
3272,A4,663.667,167/1000,41,133.5
3273,G#4,663.833,73/500,38,133.5
3274,G#4,664.0,1.5,52,133.5
3275,E3,664.0,1.5,37,133.5
3276,G#3,664.0,0.5,32,133.5
3277,F#5,664.5,0.5,43,133.5
3278,C#4,664.5,0.5,31,133.5
3279,E5,665.0,0.5,39,133.5
3280,G#3,665.0,0.5,31,133.5
3281,E-5,665.5,0.5,47,133.5
3282,G#4,665.5,0.5,52,133.5
3283,G#2,665.5,0.5,36,133.5
3284,E-3,665.5,1.5,36,133.5
3285,B-4,666.0,0.25,38,133.5
3286,C4,666.0,0.5,34,133.5
3287,B4,666.25,0.25,36,133.5
3288,E-5,666.5,167/1000,38,133.5
3289,G#3,666.5,0.5,34,133.5
3290,C#5,666.667,167/1000,38,133.5
3291,B4,666.833,73/500,35,133.5
3292,B4,667.0,1.5,41,133.5
3293,E3,667.0,1.5,38,133.5
3294,G#3,667.0,0.5,34,133.5
3295,E5,667.5,0.5,34,133.5
3296,C#4,667.5,0.5,31,133.5
3297,F#5,668.0,0.5,34,133.5
3298,G#3,668.0,0.5,31,133.5
3299,G#4,668.5,0.25,35,133.5
3300,B2,668.5,1.5,33,133.5
3301,B4,668.75,0.25,37,133.5
3302,E5,669.0,0.25,40,133.5
3303,F#3,669.0,1.0,29,133.5
3304,G#5,669.25,0.25,42,133.5
3305,F#5,669.5,0.25,44,133.5
3306,A3,669.5,0.5,29,133.5
3307,E5,669.75,0.25,42,133.5
3308,G#5,670.0,0.25,38,133.5
3309,E-4,670.0,1.5,33,133.5
3310,B2,670.0,1.5,33,133.5
3311,F#3,670.0,1.5,29,133.5
3312,A3,670.0,1.5,29,133.5
3313,B5,670.25,0.25,40,133.5
3314,E6,670.5,0.25,43,133.5
3315,G#6,670.75,0.25,46,133.5
3316,F#6,671.0,0.25,50,133.5
3317,E6,671.25,0.25,47,133.5
3318,B5,671.5,0.25,44,133.5
3319,E3,671.5,1.5,32,133.5
3320,G#5,671.75,0.25,43,133.5
3321,F#5,672.0,0.25,42,133.5
3322,E4,672.0,0.5,29,133.5
3323,B3,672.0,0.5,29,133.5
3324,E5,672.25,0.25,41,133.5
3325,B4,672.5,0.25,40,133.5
3326,G#3,672.5,0.5,30,133.5
3327,G#4,672.75,0.25,39,133.5
3328,F#4,673.0,0.25,38,133.5
3329,E-3,673.0,1.5,35,133.5
3330,E4,673.25,0.25,37,133.5
3331,B3,673.5,0.25,36,133.5
3332,E4,673.5,0.5,30,133.5
3333,B3,673.5,0.5,30,133.5
3334,G#4,673.75,0.25,39,133.5
3335,F#4,674.0,0.25,38,133.5
3336,G#3,674.0,0.5,32,133.5
3337,E4,674.25,0.25,37,133.5
3338,C#4,674.5,0.25,36,133.5
3339,E3,674.5,0.5,32,133.5
3340,E4,674.75,0.25,34,133.5
3341,F#4,675.0,0.25,37,133.5
3342,E4,675.0,0.5,30,133.5
3343,B3,675.0,0.5,30,133.5
3344,A4,675.25,0.25,39,133.5
3345,C#5,675.5,0.25,41,133.5
3346,G#3,675.5,0.5,30,133.5
3347,E5,675.75,0.25,43,133.5
3348,F#5,676.0,0.25,46,133.5
3349,B2,676.0,1.5,32,133.5
3350,A5,676.25,0.25,48,133.5
3351,C#6,676.5,0.25,50,133.5
3352,E6,676.75,0.25,51,133.5
3353,F#6,677.0,0.25,49,133.5
3354,A6,677.25,0.25,47,133.5
3355,G#6,677.5,0.25,50,133.5
3356,A2,677.5,0.25,36,133.5
3357,F#6,677.75,0.25,49,133.5
3358,E-6,678.0,0.25,49,133.5
3359,E4,678.0,0.5,31,133.5
3360,C#4,678.0,0.5,31,133.5
3361,A5,678.25,0.25,48,133.5
3362,G#5,678.5,0.25,47,133.5
3363,F#3,678.5,0.5,31,133.5
3364,F#5,678.75,0.25,46,133.5
3365,E-5,679.0,0.25,45,133.5
3366,F#2,679.0,0.25,40,133.5
3367,B4,679.25,0.25,44,133.5
3368,E-5,679.5,0.25,45,133.5
3369,E4,679.5,0.5,35,133.5
3370,C#4,679.5,0.5,35,133.5
3371,C#5,679.75,0.25,42,133.5
3372,B4,680.0,0.25,39,133.5
3373,F#3,680.0,0.5,35,133.5
3374,A4,680.25,0.25,37,133.5
3375,G#4,680.5,0.25,35,133.5
3376,B2,680.5,0.25,38,133.5
3377,B4,680.75,0.25,37,133.5
3378,E5,681.0,0.25,40,133.5
3379,B3,681.0,1.0,34,133.5
3380,E-4,681.0,1.0,34,133.5
3381,G#5,681.25,0.25,42,133.5
3382,F#5,681.5,0.25,44,133.5
3383,F#3,681.5,0.5,31,133.5
3384,E5,681.75,0.25,42,133.5
3385,G#5,682.0,0.25,38,133.5
3386,G#3,682.0,0.5,38,133.5
3387,B3,682.0,1.5,34,133.5
3388,E-4,682.0,1.5,34,133.5
3389,B5,682.25,0.25,40,133.5
3390,E6,682.5,0.25,43,133.5
3391,F#3,682.5,0.5,40,133.5
3392,G#6,682.75,0.25,46,133.5
3393,F#6,683.0,0.25,50,133.5
3394,G#3,683.0,0.5,48,133.5
3395,E6,683.25,0.25,47,133.5
3396,B5,683.5,0.25,44,133.5
3397,E3,683.5,1.5,35,133.5
3398,G#5,683.75,0.25,43,133.5
3399,F#5,684.0,0.25,42,133.5
3400,E4,684.0,0.5,31,133.5
3401,B3,684.0,0.5,31,133.5
3402,E5,684.25,0.25,41,133.5
3403,B4,684.5,0.25,40,133.5
3404,G#3,684.5,0.5,33,133.5
3405,G#4,684.75,0.25,39,133.5
3406,F#4,685.0,0.25,38,133.5
3407,E-3,685.0,1.5,38,133.5
3408,E4,685.25,0.25,37,133.5
3409,B3,685.5,0.25,36,133.5
3410,E4,685.5,0.5,33,133.5
3411,B3,685.5,0.5,33,133.5
3412,G#4,685.75,0.25,39,133.5
3413,F#4,686.0,0.25,38,133.5
3414,G#3,686.0,0.5,35,133.5
3415,E4,686.25,0.25,37,133.5
3416,C#4,686.5,0.25,36,133.5
3417,E3,686.5,0.5,35,133.5
3418,E4,686.75,47/200,34,133.5
3419,F#4,687.0,0.25,37,133.5
3420,E4,687.0,0.5,33,133.5
3421,B3,687.0,0.5,33,133.5
3422,A4,687.25,0.25,39,133.5
3423,C#5,687.5,0.25,41,133.5
3424,G#3,687.5,0.5,33,133.5
3425,E5,687.75,0.25,43,133.5
3426,F#5,688.0,0.25,46,133.5
3427,B2,688.0,1.5,35,133.5
3428,A5,688.25,0.25,48,133.5
3429,C#6,688.5,0.25,50,133.5
3430,E6,688.75,0.25,51,133.5
3431,F#6,689.0,0.25,49,133.5
3432,A6,689.25,0.25,47,133.5
3433,G#6,689.5,0.25,47,133.5
3434,A2,689.5,0.25,36,133.5
3435,F#6,689.75,0.25,48,133.5
3436,E-6,690.0,0.25,49,133.5
3437,E4,690.0,0.5,31,133.5
3438,C#4,690.0,0.5,31,133.5
3439,A5,690.25,0.25,50,133.5
3440,G#5,690.5,0.25,51,133.5
3441,F#3,690.5,0.5,31,133.5
3442,F#5,690.75,0.25,52,133.5
3443,E-5,691.0,0.25,53,133.5
3444,F#2,691.0,0.25,40,133.5
3445,B4,691.25,0.25,52,133.5
3446,E-5,691.5,0.25,51,133.5
3447,E4,691.5,0.5,35,133.5
3448,C#4,691.5,0.5,35,133.5
3449,C#5,691.75,0.25,51,133.5
3450,B4,692.0,0.25,53,133.5
3451,F#3,692.0,0.5,35,133.5
3452,A4,692.25,0.25,57,133.5
3453,G#4,692.5,0.25,56,133.5
3454,B2,692.5,0.25,42,133.5
3455,B4,692.75,0.25,59,133.5
3456,E5,693.0,0.25,61,133.5
3457,B3,693.0,1.0,36,133.5
3458,E-4,693.0,1.0,36,133.5
3459,G#5,693.25,0.25,63,133.5
3460,F#5,693.5,0.25,65,133.5
3461,F#3,693.5,0.5,36,133.5
3462,E5,693.75,0.25,63,133.5
3463,G#5,694.0,0.25,61,133.5
3464,G#3,694.0,0.5,38,133.5
3465,B3,694.0,1.5,36,133.5
3466,E-4,694.0,1.5,36,133.5
3467,B5,694.25,0.25,61,133.5
3468,E6,694.5,0.25,64,133.5
3469,F#3,694.5,0.5,40,133.5
3470,G#6,694.75,0.25,66,133.5
3471,F#6,695.0,0.25,69,133.5
3472,G#3,695.0,0.5,45,133.5
3473,E6,695.25,0.25,65,133.5
3474,C6,695.5,0.25,62,133.5
3475,E3,695.5,1.5,49,133.5
3476,A5,695.75,0.25,61,133.5
3477,F#5,696.0,0.25,60,133.5
3478,E4,696.0,0.5,44,133.5
3479,B3,696.0,0.5,44,133.5
3480,E5,696.25,0.25,60,133.5
3481,C5,696.5,0.25,59,133.5
3482,G#3,696.5,0.5,44,133.5
3483,A4,696.75,0.25,58,133.5
3484,F#4,697.0,0.25,57,133.5
3485,B2,697.0,0.25,62,133.5
3486,E4,697.25,0.25,56,133.5
3487,C4,697.5,0.25,55,133.5
3488,E4,697.5,0.5,67,133.5
3489,B3,697.5,0.5,67,133.5
3490,A3,697.75,0.25,54,133.5
3491,F#3,698.0,0.25,53,133.5
3492,G#3,698.0,0.5,67,133.5
3493,E3,698.25,0.25,52,133.5
3494,G#3,698.5,0.25,52,133.5
3495,A2,698.5,0.5,70,133.5
3496,A3,698.5,0.5,70,133.5
3497,B3,698.75,0.25,51,133.5
3498,E4,699.0,0.25,52,133.5
3499,C3,699.0,1.0,77,133.5
3500,C4,699.0,1.0,77,133.5
3501,G#4,699.25,0.25,53,133.5
3502,F#4,699.5,0.25,54,133.5
3503,E4,699.75,0.25,52,133.5
3504,G#4,700.0,0.25,49,133.5
3505,B4,700.25,0.25,51,133.5
3506,E5,700.5,0.25,54,133.5
3507,G#5,700.75,0.25,57,133.5
3508,F#5,701.0,0.25,59,133.5
3509,E5,701.25,0.25,57,133.5
3510,C5,701.5,0.25,59,133.5
3511,E2,701.5,1.5,66,133.5
3512,A4,701.75,0.25,61,133.5
3513,F#4,702.0,0.25,62,133.5
3514,E3,702.0,0.5,52,133.5
3515,E4,702.25,0.25,64,133.5
3516,C4,702.5,0.25,66,133.5
3517,B2,702.5,0.5,52,133.5
3518,A3,702.75,0.25,67,133.5
3519,F#3,703.0,0.25,69,133.5
3520,B1,703.0,0.25,68,133.5
3521,E3,703.25,0.25,71,133.5
3522,C3,703.5,0.25,73,133.5
3523,E3,703.5,0.5,66,133.5
3524,A2,703.75,0.25,74,133.5
3525,F#2,704.0,0.25,76,133.5
3526,B2,704.0,0.5,66,133.5
3527,E2,704.25,0.25,78,133.5
3528,A1,704.5,0.5,75,133.5
3529,A2,704.5,0.5,75,133.5
3530,B2,705.0,0.25,73,133.5
3531,C2,705.0,1.0,86,133.5
3532,C3,705.0,1.0,86,133.5
3533,E3,705.25,0.25,68,133.5
3534,A3,705.5,0.25,68,133.5
3535,G#3,705.75,0.25,68,133.5
3536,B3,706.0,0.25,73,133.5
3537,E4,706.25,0.25,67,133.5
3538,A4,706.5,0.25,67,133.5
3539,G#4,706.75,0.25,68,133.5
3540,B4,707.0,0.25,72,133.5
3541,E5,707.25,0.25,73,133.5
3542,A5,707.5,0.25,76,133.5
3543,E1,707.5,0.5,104,133.5
3544,G#5,707.75,0.25,71,133.5
3545,B5,708.0,0.25,71,133.5
3546,E6,708.25,0.25,71,133.5
3547,A6,708.5,0.25,71,133.5
3548,G#6,708.75,0.25,71,133.5
3549,E6,709.0,0.25,77,133.5
3550,B5,709.25,0.25,71,133.5
3551,A5,709.5,0.25,71,133.5
3552,G#5,709.75,0.25,71,133.5
3553,E5,710.0,0.25,71,133.5
3554,B4,710.25,0.25,71,133.5
3555,A4,710.5,0.25,71,133.5
3556,G#4,710.5,0.5,80,133.5
3557,B3,710.5,0.5,80,133.5
3558,E3,710.5,0.5,80,133.5
3559,G#4,710.75,0.25,72,133.5
3560,E4,711.0,0.25,73,133.5
3561,B3,711.25,0.25,75,133.5
3562,A3,711.5,0.25,77,133.5
3563,G#3,711.75,0.25,78,133.5
3564,E3,712.0,0.25,80,133.5
3565,B2,712.25,0.25,81,133.5
3566,A2,712.5,0.25,82,133.5
3567,G#2,712.75,0.25,84,133.5
3568,E2,713.0,0.25,86,133.5
3569,B1,713.25,0.25,88,133.5
3570,E1,716.5,1.5,96,133.5
3571,B2,717.0,0.25,73,133.5
3572,F3,717.25,0.25,68,133.5
3573,A3,717.5,0.25,68,133.5
3574,G#3,717.75,0.25,68,133.5
3575,B3,718.0,0.25,73,133.5
3576,F4,718.25,0.25,67,133.5
3577,A4,718.5,0.25,67,133.5
3578,G#4,718.75,0.25,68,133.5
3579,B4,719.0,0.25,72,133.5
3580,F5,719.25,0.25,73,133.5
3581,A5,719.5,0.25,76,133.5
3582,D2,719.5,0.5,90,133.5
3583,D1,719.5,0.5,90,133.5
3584,G#5,719.75,0.25,71,133.5
3585,B5,720.0,0.25,71,133.5
3586,F6,720.25,0.25,71,133.5
3587,A6,720.5,0.25,71,133.5
3588,G#6,720.75,0.25,71,133.5
3589,F6,721.0,0.25,77,133.5
3590,B5,721.25,0.25,71,133.5
3591,A5,721.5,0.25,71,133.5
3592,G#5,721.75,0.25,71,133.5
3593,F5,722.0,0.25,71,133.5
3594,B4,722.25,0.25,71,133.5
3595,A4,722.5,0.25,71,133.5
3596,G#3,722.5,0.5,77,133.5
3597,F4,722.5,0.5,77,133.5
3598,B3,722.5,0.5,77,133.5
3599,D3,722.5,0.5,77,133.5
3600,G#4,722.75,0.25,72,133.5
3601,F4,723.0,0.25,73,133.5
3602,B3,723.25,0.25,75,133.5
3603,A3,723.5,0.25,77,133.5
3604,G#3,723.75,0.25,78,133.5
3605,F3,724.0,0.25,80,133.5
3606,B2,724.25,0.25,81,133.5
3607,A2,724.5,0.25,82,133.5
3608,G#2,724.75,0.25,84,133.5
3609,F2,725.0,0.25,86,133.5
3610,B1,725.25,0.25,88,133.5
3611,D1,728.5,1.5,96,133.5
3612,B-4,729.0,0.25,66,133.5
3613,G#4,729.25,0.25,67,133.5
3614,B4,729.5,0.25,68,133.5
3615,F5,729.75,0.25,69,133.5
3616,B-5,730.0,0.25,71,133.5
3617,D1,730.0,1.5,96,133.5
3618,G#5,730.25,0.25,72,133.5
3619,B5,730.5,0.25,73,133.5
3620,F6,730.75,0.25,74,133.5
3621,B-6,731.0,0.25,75,133.5
3622,G#6,731.25,0.25,77,133.5
3623,B-5,731.5,0.25,80,133.5
3624,C#1,731.5,0.5,94,133.5
3625,C#2,731.5,0.5,94,133.5
3626,E6,731.75,0.25,74,133.5
3627,G#6,732.0,0.25,77,133.5
3628,G6,732.25,0.25,81,133.5
3629,E6,732.5,0.25,80,133.5
3630,B-5,732.75,0.25,78,133.5
3631,G#5,733.0,0.25,76,133.5
3632,G#2,733.0,0.5,84,133.5
3633,G#3,733.0,0.5,84,133.5
3634,G5,733.25,0.25,76,133.5
3635,E5,733.5,0.25,76,133.5
3636,E-3,733.5,0.5,90,133.5
3637,E-4,733.5,0.5,90,133.5
3638,B-4,733.75,0.25,76,133.5
3639,G#4,734.0,0.25,74,133.5
3640,C#3,734.0,0.5,84,133.5
3641,C#4,734.0,0.5,84,133.5
3642,G4,734.25,0.25,73,133.5
3643,A3,734.5,0.25,73,133.5
3644,C#3,734.5,1.0,95,133.5
3645,C#4,734.5,1.0,95,133.5
3646,E-4,734.75,0.25,73,133.5
3647,G#4,735.0,0.25,74,133.5
3648,F#4,735.25,0.25,75,133.5
3649,A4,735.5,0.25,76,133.5
3650,E-5,735.75,0.25,76,133.5
3651,G#5,736.0,0.25,77,133.5
3652,C#2,736.0,0.25,90,133.5
3653,C#3,736.0,0.25,90,133.5
3654,F#5,736.25,0.25,76,133.5
3655,A5,736.5,0.25,79,133.5
3656,E-6,736.75,0.25,81,133.5
3657,G#6,737.0,0.25,84,133.5
3658,F#6,737.25,0.25,86,133.5
3659,G#5,737.5,0.25,88,133.5
3660,C#1,737.5,0.5,90,133.5
3661,C#2,737.5,0.5,90,133.5
3662,C#6,737.75,0.25,87,133.5
3663,F#6,738.0,0.25,87,133.5
3664,F6,738.25,0.25,85,133.5
3665,C#6,738.5,0.25,83,133.5
3666,G#5,738.75,0.25,82,133.5
3667,F#5,739.0,0.25,80,133.5
3668,F#2,739.0,0.5,82,133.5
3669,F#3,739.0,0.5,82,133.5
3670,F5,739.25,0.25,78,133.5
3671,C#5,739.5,0.25,76,133.5
3672,E-3,739.5,0.5,87,133.5
3673,E-4,739.5,0.5,87,133.5
3674,G#4,739.75,0.25,74,133.5
3675,F#4,740.0,0.25,72,133.5
3676,C#3,740.0,0.5,82,133.5
3677,C#4,740.0,0.5,82,133.5
3678,F4,740.25,0.25,71,133.5
3679,C4,740.5,0.25,71,133.5
3680,C#3,740.5,0.25,93,133.5
3681,C#4,740.5,0.25,93,133.5
3682,F#4,740.75,0.25,71,133.5
3683,B4,741.0,0.25,71,133.5
3684,G1,741.0,0.5,71,133.5
3685,G2,741.0,0.5,71,133.5
3686,A4,741.25,0.25,71,133.5
3687,C5,741.5,0.25,71,133.5
3688,G#1,741.5,0.5,71,133.5
3689,G#2,741.5,0.5,71,133.5
3690,F#5,741.75,0.25,71,133.5
3691,B5,742.0,0.25,69,133.5
3692,G#1,742.0,0.5,71,133.5
3693,G#2,742.0,0.5,71,133.5
3694,A5,742.25,0.25,71,133.5
3695,C6,742.5,0.25,73,133.5
3696,E-2,742.5,0.5,75,133.5
3697,E-3,742.5,0.5,75,133.5
3698,F#6,742.75,0.25,75,133.5
3699,B6,743.0,0.25,76,133.5
3700,C#2,743.0,0.5,74,133.5
3701,C#3,743.0,0.5,74,133.5
3702,A6,743.25,0.25,78,133.5
3703,B5,743.5,0.25,80,133.5
3704,D2,743.5,0.5,93,133.5
3705,D3,743.5,0.5,93,133.5
3706,F6,743.75,0.25,82,133.5
3707,A6,744.0,0.25,82,133.5
3708,G#6,744.25,0.25,80,133.5
3709,F6,744.5,0.25,79,133.5
3710,B5,744.75,0.25,78,133.5
3711,A5,745.0,0.25,77,133.5
3712,A2,745.0,0.5,81,133.5
3713,A3,745.0,0.5,81,133.5
3714,G#5,745.25,0.25,76,133.5
3715,F5,745.5,0.25,75,133.5
3716,E4,745.5,0.5,86,133.5
3717,E3,745.5,0.5,86,133.5
3718,B4,745.75,0.25,74,133.5
3719,A4,746.0,0.25,73,133.5
3720,D3,746.0,0.5,79,133.5
3721,D4,746.0,0.5,79,133.5
3722,G#4,746.25,0.25,72,133.5
3723,B-3,746.5,0.25,71,133.5
3724,D3,746.5,1.0,93,133.5
3725,D4,746.5,1.0,93,133.5
3726,E4,746.75,0.25,71,133.5
3727,A4,747.0,0.25,71,133.5
3728,G4,747.25,0.25,71,133.5
3729,B-4,747.5,0.25,71,133.5
3730,E5,747.75,0.25,71,133.5
3731,A5,748.0,0.25,69,133.5
3732,D2,748.0,0.25,97,133.5
3733,D3,748.0,0.25,97,133.5
3734,G5,748.25,0.25,71,133.5
3735,B-5,748.5,0.25,73,133.5
3736,E6,748.75,0.25,75,133.5
3737,A6,749.0,0.25,76,133.5
3738,G6,749.25,0.25,78,133.5
3739,A5,749.5,0.25,80,133.5
3740,D2,749.5,0.5,86,133.5
3741,D1,749.5,0.5,86,133.5
3742,D6,749.75,0.25,82,133.5
3743,G6,750.0,0.25,82,133.5
3744,F#6,750.25,0.25,80,133.5
3745,D6,750.5,0.25,79,133.5
3746,A5,750.75,0.25,78,133.5
3747,G5,751.0,0.25,76,133.5
3748,G2,751.0,0.5,81,133.5
3749,G3,751.0,0.5,81,133.5
3750,F#5,751.25,0.25,75,133.5
3751,D5,751.5,0.25,73,133.5
3752,E4,751.5,0.5,86,133.5
3753,E3,751.5,0.5,86,133.5
3754,A4,751.75,0.25,71,133.5
3755,G4,752.0,0.25,70,133.5
3756,D3,752.0,0.5,79,133.5
3757,D4,752.0,0.5,79,133.5
3758,F#4,752.25,0.25,68,133.5
3759,D4,752.5,0.5,66,133.5
3760,G4,752.5,0.5,66,133.5
3761,D5,752.5,0.5,66,133.5
3762,D3,752.5,0.25,86,133.5
3763,D4,752.5,0.25,86,133.5
3764,C#5,753.0,0.25,58,133.5
3765,C#2,753.0,0.5,71,133.5
3766,C#3,753.0,0.5,71,133.5
3767,D5,753.25,0.25,55,133.5
3768,F5,753.5,167/1000,58,133.5
3769,D2,753.5,0.5,71,133.5
3770,D3,753.5,0.5,71,133.5
3771,E-5,753.667,167/1000,58,133.5
3772,D5,753.833,167/1000,55,133.5
3773,D5,754.0,1.5,67,133.5
3774,D2,754.0,0.25,77,133.5
3775,D3,754.0,0.25,77,133.5
3776,D6,754.5,0.5,66,133.5
3777,F#5,754.5,1.0,66,133.5
3778,B1,754.5,0.5,70,133.5
3779,B2,754.5,0.5,70,133.5
3780,C6,755.0,0.5,64,133.5
3781,C2,755.0,0.5,71,133.5
3782,C3,755.0,0.5,71,133.5
3783,D5,755.5,0.5,67,133.5
3784,G5,755.5,0.5,70,133.5
3785,B-5,755.5,0.5,70,133.5
3786,B-1,755.5,0.5,84,133.5
3787,B-2,755.5,0.5,84,133.5
3788,C#5,756.0,0.25,59,133.5
3789,D4,756.0,0.5,56,133.5
3790,D5,756.25,0.25,55,133.5
3791,F5,756.5,167/1000,59,133.5
3792,D3,756.5,0.5,56,133.5
3793,G3,756.5,0.5,56,133.5
3794,E-5,756.667,167/1000,59,133.5
3795,D5,756.833,167/1000,55,133.5
3796,D5,757.0,1.5,69,133.5
3797,A2,757.0,0.5,68,133.5
3798,D4,757.5,0.5,56,133.5
3799,B-4,757.5,0.5,65,133.5
3800,B-5,757.5,0.5,65,133.5
3801,A4,758.0,0.5,62,133.5
3802,A5,758.0,0.5,62,133.5
3803,D3,758.0,0.5,56,133.5
3804,A3,758.0,0.5,56,133.5
3805,D5,758.5,0.5,69,133.5
3806,G2,758.5,0.5,66,133.5
3807,G4,758.5,0.5,69,133.5
3808,G5,758.5,0.5,69,133.5
3809,C#5,759.0,0.25,59,133.5
3810,D4,759.0,0.5,56,133.5
3811,D5,759.25,0.25,55,133.5
3812,F5,759.5,167/1000,59,133.5
3813,D3,759.5,0.5,56,133.5
3814,B-3,759.5,0.5,56,133.5
3815,E-5,759.667,167/1000,59,133.5
3816,D5,759.833,167/1000,55,133.5
3817,D5,760.0,1.5,70,133.5
3818,C3,760.0,1.5,65,133.5
3819,D6,760.5,0.5,65,133.5
3820,F#5,760.5,1.0,65,133.5
3821,D4,760.5,0.5,56,133.5
3822,C6,761.0,0.5,65,133.5
3823,F#3,761.0,0.5,56,133.5
3824,A3,761.0,0.5,56,133.5
3825,D5,761.5,0.5,70,133.5
3826,B-2,761.5,0.5,65,133.5
3827,G5,761.5,0.5,69,133.5
3828,B-5,761.5,0.5,69,133.5
3829,F#4,762.0,0.25,58,133.5
3830,D4,762.0,0.5,56,133.5
3831,G4,762.25,0.25,53,133.5
3832,B-4,762.5,167/1000,58,133.5
3833,D3,762.5,0.5,56,133.5
3834,G3,762.5,0.5,56,133.5
3835,G#4,762.667,167/1000,58,133.5
3836,G4,762.833,167/1000,55,133.5
3837,G4,763.0,1.5,70,133.5
3838,A2,763.0,0.5,66,133.5
3839,G5,763.5,0.5,63,133.5
3840,D5,763.5,1.0,63,133.5
3841,D4,763.5,0.5,56,133.5
3842,F5,764.0,0.5,63,133.5
3843,D3,764.0,0.5,56,133.5
3844,A3,764.0,0.5,56,133.5
3845,G4,764.5,0.5,70,133.5
3846,G2,764.5,0.5,65,133.5
3847,C5,764.5,0.5,71,133.5
3848,E-5,764.5,0.5,71,133.5
3849,F#5,765.0,0.25,57,133.5
3850,D4,765.0,0.5,56,133.5
3851,G5,765.25,0.25,57,133.5
3852,B-5,765.5,167/1000,57,133.5
3853,G3,765.5,0.5,56,133.5
3854,G#5,765.667,167/1000,57,133.5
3855,G5,765.833,167/1000,54,133.5
3856,G5,766.0,1.5,71,133.5
3857,B2,766.0,0.5,64,133.5
3858,G6,766.5,0.5,63,133.5
3859,B5,766.5,1.0,63,133.5
3860,D4,766.5,0.5,56,133.5
3861,F6,767.0,0.5,63,133.5
3862,G3,767.0,0.5,56,133.5
3863,G5,767.5,0.5,71,133.5
3864,C3,767.5,0.5,65,133.5
3865,C6,767.5,0.5,71,133.5
3866,E-6,767.5,0.5,71,133.5
3867,F#5,768.0,0.25,59,133.5
3868,E-4,768.0,0.5,56,133.5
3869,G5,768.25,0.25,56,133.5
3870,B-5,768.5,167/1000,59,133.5
3871,G3,768.5,0.5,56,133.5
3872,G#5,768.667,167/1000,59,133.5
3873,G5,768.833,167/1000,55,133.5
3874,G5,769.0,1.5,70,133.5
3875,D3,769.0,0.5,65,133.5
3876,F4,769.5,0.5,54,133.5
3877,E-5,769.5,0.5,64,133.5
3878,E-6,769.5,0.5,64,133.5
3879,D5,770.0,0.5,64,133.5
3880,D6,770.0,0.5,64,133.5
3881,G3,770.0,0.5,54,133.5
3882,B3,770.0,0.5,54,133.5
3883,E-3,770.5,0.5,66,133.5
3884,G5,770.5,0.5,70,133.5
3885,C5,770.5,0.5,70,133.5
3886,C6,770.5,0.5,70,133.5
3887,F#4,771.0,0.25,59,133.5
3888,G4,771.0,0.5,54,133.5
3889,G4,771.25,0.25,55,133.5
3890,B-4,771.5,167/1000,59,133.5
3891,G3,771.5,0.5,54,133.5
3892,C4,771.5,0.5,54,133.5
3893,G#4,771.667,167/1000,59,133.5
3894,G4,771.833,167/1000,56,133.5
3895,G4,772.0,1.5,71,133.5
3896,F3,772.0,1.5,64,133.5
3897,G5,772.5,0.5,56,133.5
3898,B4,772.5,1.0,56,133.5
3899,G4,772.5,0.5,54,133.5
3900,F5,773.0,0.5,55,133.5
3901,G3,773.0,0.5,54,133.5
3902,B3,773.0,0.5,54,133.5
3903,G4,773.5,0.5,71,133.5
3904,E-3,773.5,1.5,63,133.5
3905,C5,773.5,0.5,60,133.5
3906,E-5,773.5,0.5,60,133.5
3907,D4,774.0,0.25,53,133.5
3908,E-4,774.0,0.5,52,133.5
3909,E-4,774.25,0.25,53,133.5
3910,G4,774.5,167/1000,53,133.5
3911,G3,774.5,0.5,52,133.5
3912,C4,774.5,0.5,52,133.5
3913,F4,774.667,167/1000,53,133.5
3914,E-4,774.833,167/1000,50,133.5
3915,E-4,775.0,1.5,61,133.5
3916,D3,775.0,1.5,58,133.5
3917,E-5,775.5,0.5,58,133.5
3918,G4,775.5,1.0,58,133.5
3919,D4,775.5,0.5,51,133.5
3920,C#5,776.0,0.5,56,133.5
3921,G3,776.0,0.5,51,133.5
3922,E-4,776.5,0.5,61,133.5
3923,C3,776.5,1.5,57,133.5
3924,G#4,776.5,0.5,63,133.5
3925,B4,776.5,0.5,63,133.5
3926,D5,777.0,0.25,54,133.5
3927,C4,777.0,0.5,49,133.5
3928,E-5,777.25,0.25,51,133.5
3929,F#5,777.5,167/1000,54,133.5
3930,E-3,777.5,0.5,49,133.5
3931,G3,777.5,0.5,49,133.5
3932,E5,777.667,167/1000,54,133.5
3933,E-5,777.833,167/1000,51,133.5
3934,E-5,778.0,1.5,62,133.5
3935,B-2,778.0,1.5,55,133.5
3936,E-6,778.5,0.5,58,133.5
3937,B-5,778.5,1.0,58,133.5
3938,C#4,778.5,0.5,50,133.5
3939,C#6,779.0,0.5,59,133.5
3940,E-3,779.0,0.5,50,133.5
3941,G3,779.0,0.5,50,133.5
3942,E-5,779.5,0.5,62,133.5
3943,G#2,779.5,0.5,56,133.5
3944,G#5,779.5,0.5,67,133.5
3945,B5,779.5,0.5,67,133.5
3946,D5,780.0,0.25,59,133.5
3947,B3,780.0,0.5,50,133.5
3948,E-5,780.25,0.25,56,133.5
3949,F#5,780.5,167/1000,59,133.5
3950,E-3,780.5,0.5,50,133.5
3951,G#3,780.5,0.5,50,133.5
3952,E5,780.667,167/1000,59,133.5
3953,E-5,780.833,19/125,55,133.5
3954,E-5,781.0,1.5,68,133.5
3955,G2,781.0,0.5,57,133.5
3956,E-4,781.5,0.5,52,133.5
3957,B4,781.5,0.5,63,133.5
3958,B5,781.5,0.5,63,133.5
3959,B-4,782.0,0.5,63,133.5
3960,B-5,782.0,0.5,63,133.5
3961,E-3,782.0,0.5,52,133.5
3962,B-3,782.0,0.5,52,133.5
3963,G#2,782.5,0.5,59,133.5
3964,E-5,782.5,0.5,69,133.5
3965,G#4,782.5,0.5,69,133.5
3966,G#5,782.5,0.5,69,133.5
3967,D5,783.0,0.25,60,133.5
3968,E-4,783.0,0.5,53,133.5
3969,E-5,783.25,0.25,56,133.5
3970,F#5,783.5,167/1000,60,133.5
3971,E-3,783.5,0.5,53,133.5
3972,G#3,783.5,0.5,53,133.5
3973,B3,783.5,0.5,53,133.5
3974,E5,783.667,167/1000,60,133.5
3975,E-5,783.833,37/250,56,133.5
3976,E-5,784.0,1.5,74,133.5
3977,B-2,784.0,0.5,64,133.5
3978,E-6,784.5,0.5,65,133.5
3979,B-5,784.5,1.0,65,133.5
3980,E-4,784.5,0.5,54,133.5
3981,C#6,785.0,0.5,65,133.5
3982,E-3,785.0,0.5,54,133.5
3983,G3,785.0,0.5,54,133.5
3984,C#4,785.0,0.5,54,133.5
3985,E-5,785.5,0.5,74,133.5
3986,B2,785.5,0.5,66,133.5
3987,G#5,785.5,0.5,76,133.5
3988,B5,785.5,0.5,76,133.5
3989,D5,786.0,0.25,66,133.5
3990,E-4,786.0,0.5,57,133.5
3991,E-5,786.25,0.25,61,133.5
3992,F#5,786.5,167/1000,66,133.5
3993,E-3,786.5,0.5,57,133.5
3994,G#3,786.5,0.5,57,133.5
3995,B3,786.5,0.5,57,133.5
3996,E5,786.667,167/1000,66,133.5
3997,E-5,786.833,77/500,61,133.5
3998,E-5,787.0,1.5,82,133.5
3999,G2,787.0,0.5,68,133.5
4000,E-4,787.5,0.5,60,133.5
4001,B4,787.5,0.5,73,133.5
4002,B5,787.5,0.5,73,133.5
4003,B-4,788.0,0.5,73,133.5
4004,B-5,788.0,0.5,73,133.5
4005,E-3,788.0,0.5,60,133.5
4006,B-3,788.0,0.5,60,133.5
4007,G#2,788.5,0.5,70,133.5
4008,E5,788.5,0.5,82,133.5
4009,G#4,788.5,0.5,82,133.5
4010,G#5,788.5,0.5,82,133.5
4011,E-4,789.0,0.5,60,133.5
4012,E-3,789.5,0.5,60,133.5
4013,G#3,789.5,0.5,60,133.5
4014,B3,789.5,0.5,60,133.5
4015,G#5,789.875,0.125,70,133.5
4016,G#6,790.0,0.5,95,133.5
4017,B-2,790.0,0.5,72,133.5
4018,F#6,790.5,0.25,81,133.5
4019,E-4,790.5,0.5,67,133.5
4020,E6,790.75,0.25,76,133.5
4021,B5,791.0,0.25,79,133.5
4022,E-3,791.0,0.5,72,133.5
4023,G3,791.0,0.5,72,133.5
4024,C#4,791.0,0.5,72,133.5
4025,G#5,791.25,0.25,72,133.5
4026,F#5,791.5,0.25,76,133.5
4027,B1,791.5,0.25,86,133.5
4028,B2,791.5,0.25,86,133.5
4029,E5,791.75,0.25,71,133.5
4030,B4,792.0,0.25,74,133.5
4031,G#4,792.25,0.25,68,133.5
4032,F#4,792.5,0.25,71,133.5
4033,E4,792.5,0.5,50,133.5
4034,G#3,792.5,0.5,50,133.5
4035,E4,792.75,0.25,66,133.5
4036,B3,793.0,0.5,69,133.5
4037,B4,793.0,0.5,62,133.5
4038,B3,793.0,0.5,62,133.5
4039,G#3,794.0,0.5,51,133.5
4040,E4,794.0,0.5,51,133.5
4041,E-5,794.5,0.25,55,133.5
4042,B3,794.5,0.5,61,133.5
4043,B4,794.5,0.5,61,133.5
4044,E5,794.75,0.25,52,133.5
4045,F#5,795.0,0.25,50,133.5
4046,G#5,795.25,0.25,44,133.5
4047,A5,795.5,0.25,45,133.5
4048,B5,795.75,0.25,42,133.5
4049,C6,796.0,0.5,40,133.5
4050,C6,797.5,0.25,50,133.5
4051,B1,797.5,0.25,40,133.5
4052,B2,797.5,0.25,40,133.5
4053,B5,797.75,0.25,46,133.5
4054,A5,798.0,0.25,47,133.5
4055,G#5,798.25,0.25,43,133.5
4056,F#5,798.5,0.25,44,133.5
4057,E5,798.75,0.25,42,133.5
4058,E-5,799.0,0.5,41,133.5
4059,E-4,799.0,0.5,38,133.5
4060,F#4,799.0,0.5,38,133.5
4061,A3,799.0,0.5,38,133.5
4062,C4,799.0,0.5,38,133.5
4063,C4,799.5,0.5,44,133.5
4064,A3,799.5,0.5,44,133.5
4065,E-4,799.5,0.5,44,133.5
4066,G#4,799.5,0.5,44,133.5
4067,E-4,800.0,0.5,42,133.5
4068,F#4,800.0,0.5,42,133.5
4069,A3,800.0,0.5,42,133.5
4070,C4,800.0,0.5,42,133.5
4071,G#5,800.375,0.125,81,133.5
4072,G#6,800.5,1.5,115,133.5
4073,F#4,800.5,0.25,39,133.5
4074,E-4,800.5,0.25,39,133.5
4075,C4,800.5,0.25,39,133.5
4076,A3,800.5,0.25,39,133.5
4077,G#6,802.0,0.5,115,133.5
4078,B1,802.0,0.5,53,133.5
4079,B2,802.0,0.5,53,133.5
4080,F#6,802.5,0.25,81,133.5
4081,A2,802.5,0.5,49,133.5
4082,A1,802.5,0.5,49,133.5
4083,E6,802.75,0.25,73,133.5
4084,B5,803.0,0.25,79,133.5
4085,C2,803.0,0.5,53,133.5
4086,C3,803.0,0.5,53,133.5
4087,G#5,803.25,0.25,73,133.5
4088,F#5,803.5,0.25,76,133.5
4089,B1,803.5,0.25,52,133.5
4090,B2,803.5,0.25,52,133.5
4091,E5,803.75,0.25,70,133.5
4092,B4,804.0,0.25,74,133.5
4093,E4,804.0,0.5,45,133.5
4094,G#3,804.0,0.5,45,133.5
4095,G#4,804.25,0.25,69,133.5
4096,F#4,804.5,0.25,71,133.5
4097,E4,804.5,0.5,45,133.5
4098,G#3,804.5,0.5,45,133.5
4099,E4,804.75,0.25,70,133.5
4100,B3,805.0,0.5,69,133.5
4101,B4,805.0,0.75,51,133.5
4102,B3,805.0,0.75,51,133.5
4103,E4,805.75,0.25,45,133.5
4104,G#3,805.75,0.25,45,133.5
4105,G#3,806.0,0.5,45,133.5
4106,E4,806.0,0.5,45,133.5
4107,F5,806.5,0.25,57,133.5
4108,B3,806.5,0.5,52,133.5
4109,B4,806.5,0.5,52,133.5
4110,F#5,806.75,0.25,55,133.5
4111,G#5,807.0,0.25,53,133.5
4112,A5,807.25,0.25,52,133.5
4113,B5,807.5,0.25,50,133.5
4114,C#6,807.75,0.25,48,133.5
4115,D6,808.0,0.5,46,133.5
4116,D6,809.5,0.25,56,133.5
4117,D2,809.5,0.25,40,133.5
4118,D3,809.5,0.25,40,133.5
4119,C#6,809.75,0.25,54,133.5
4120,B5,810.0,0.25,53,133.5
4121,A5,810.25,0.25,52,133.5
4122,G#5,810.5,0.25,51,133.5
4123,F#5,810.75,0.25,50,133.5
4124,F5,811.0,0.5,48,133.5
4125,F#4,811.0,0.5,38,133.5
4126,G#4,811.0,0.5,38,133.5
4127,B3,811.0,0.5,38,133.5
4128,B3,811.5,0.5,44,133.5
4129,F#4,811.5,0.5,44,133.5
4130,A4,811.5,0.5,44,133.5
4131,F#4,812.0,0.5,42,133.5
4132,G#4,812.0,0.5,42,133.5
4133,B3,812.0,0.5,42,133.5
4134,G5,812.5,0.25,66,133.5
4135,G#4,812.5,0.25,39,133.5
4136,F4,812.5,0.25,39,133.5
4137,B3,812.5,0.25,39,133.5
4138,G#5,812.75,0.25,65,133.5
4139,B-5,813.0,0.25,64,133.5
4140,B5,813.25,0.25,63,133.5
4141,C#6,813.5,0.25,62,133.5
4142,E-6,813.75,0.25,61,133.5
4143,E6,814.0,0.5,60,133.5
4144,D2,814.0,0.5,53,133.5
4145,D3,814.0,0.5,53,133.5
4146,C3,814.5,0.5,53,133.5
4147,C2,814.5,0.5,53,133.5
4148,C#2,815.0,0.5,53,133.5
4149,C#3,815.0,0.5,53,133.5
4150,E6,815.5,0.25,65,133.5
4151,E2,815.5,0.25,47,133.5
4152,E3,815.5,0.25,47,133.5
4153,E-6,815.75,0.25,64,133.5
4154,C#6,816.0,0.25,62,133.5
4155,B5,816.25,0.25,61,133.5
4156,B-5,816.5,0.25,59,133.5
4157,G#5,816.75,0.25,58,133.5
4158,G5,817.0,0.5,56,133.5
4159,G#4,817.0,0.5,48,133.5
4160,B-4,817.0,0.5,48,133.5
4161,C#4,817.0,0.5,48,133.5
4162,C#4,817.5,0.5,53,133.5
4163,G#4,817.5,0.5,53,133.5
4164,B4,817.5,0.5,53,133.5
4165,G#4,818.0,0.5,51,133.5
4166,B-4,818.0,0.5,51,133.5
4167,C#4,818.0,0.5,51,133.5
4168,A5,818.5,0.25,71,133.5
4169,B-4,818.5,0.25,49,133.5
4170,G4,818.5,0.25,49,133.5
4171,C#4,818.5,0.25,49,133.5
4172,B-5,818.75,0.25,72,133.5
4173,C6,819.0,0.25,73,133.5
4174,C#6,819.25,0.25,75,133.5
4175,E-6,819.5,0.25,76,133.5
4176,F6,819.75,0.25,77,133.5
4177,F#6,820.0,0.25,78,133.5
4178,E2,820.0,0.5,58,133.5
4179,E3,820.0,0.5,58,133.5
4180,E-7,820.25,0.25,78,133.5
4181,F#6,820.5,0.25,77,133.5
4182,D3,820.5,0.5,58,133.5
4183,D2,820.5,0.5,58,133.5
4184,F6,820.75,0.25,76,133.5
4185,E-6,821.0,0.25,75,133.5
4186,E-2,821.0,0.5,58,133.5
4187,E-3,821.0,0.5,58,133.5
4188,C#6,821.25,0.25,75,133.5
4189,C6,821.5,0.25,71,133.5
4190,F#2,821.5,0.25,55,133.5
4191,F#3,821.5,0.25,55,133.5
4192,C#6,821.75,0.25,72,133.5
4193,D6,822.0,0.25,73,133.5
4194,E-6,822.25,0.25,74,133.5
4195,E6,822.5,0.25,76,133.5
4196,C4,822.5,0.5,49,133.5
4197,E-4,822.5,0.5,49,133.5
4198,A4,822.5,0.5,49,133.5
4199,F6,822.75,0.25,77,133.5
4200,F#6,823.0,0.25,78,133.5
4201,E-4,823.0,0.5,54,133.5
4202,A4,823.0,0.5,54,133.5
4203,E-5,823.0,0.5,54,133.5
4204,E-7,823.25,0.25,79,133.5
4205,F#6,823.5,0.25,80,133.5
4206,F6,823.75,0.25,82,133.5
4207,E-6,824.0,0.25,83,133.5
4208,C4,824.0,0.5,52,133.5
4209,E-4,824.0,0.5,52,133.5
4210,A4,824.0,0.5,52,133.5
4211,C#6,824.25,0.25,84,133.5
4212,C6,824.5,0.25,85,133.5
4213,E-4,824.5,0.5,56,133.5
4214,A4,824.5,0.5,56,133.5
4215,E-5,824.5,0.5,56,133.5
4216,F7,825.0,0.25,93,133.5
4217,E7,825.25,0.25,83,133.5
4218,E-7,825.5,0.25,81,133.5
4219,F#3,825.5,19/40,70,133.5
4220,F#4,825.5,19/40,70,133.5
4221,C7,825.75,0.25,78,133.5
4222,A6,826.0,0.5,76,133.5
4223,F#3,826.0,19/40,70,133.5
4224,F#4,826.0,19/40,70,133.5
4225,F#3,826.5,19/40,70,133.5
4226,F#4,826.5,19/40,70,133.5
4227,F5,827.0,0.25,90,133.5
4228,F#3,827.0,19/40,70,133.5
4229,F#4,827.0,19/40,70,133.5
4230,E5,827.25,0.25,82,133.5
4231,E-5,827.5,0.25,80,133.5
4232,F3,827.5,0.5,73,133.5
4233,C4,827.5,0.5,73,133.5
4234,E-4,827.5,0.5,73,133.5
4235,A4,827.5,0.5,73,133.5
4236,C5,827.75,0.25,78,133.5
4237,A4,828.0,0.5,76,133.5
4238,F3,829.0,0.25,90,133.5
4239,F6,829.0,0.25,89,133.5
4240,E3,829.25,0.25,84,133.5
4241,E6,829.25,0.25,81,133.5
4242,E-3,829.5,0.25,82,133.5
4243,E-6,829.5,0.25,79,133.5
4244,C3,829.75,0.25,80,133.5
4245,C6,829.75,0.25,78,133.5
4246,A5,830.0,0.5,76,133.5
4247,C#6,830.5,0.5,89,133.5
4248,C#5,830.5,0.5,89,133.5
4249,E5,831.0,0.25,74,133.5
4250,F4,831.0,0.25,88,133.5
4251,F5,831.25,0.25,71,133.5
4252,E4,831.25,0.25,81,133.5
4253,G#5,831.5,167/1000,74,133.5
4254,E-4,831.5,0.25,79,133.5
4255,F#5,831.667,167/1000,74,133.5
4256,C4,831.75,0.25,77,133.5
4257,F5,831.833,73/500,71,133.5
4258,F5,832.0,0.5,89,133.5
4259,A3,832.0,0.5,75,133.5
4260,E6,832.5,0.5,81,133.5
4261,E5,832.5,0.5,81,133.5
4262,F2,833.0,0.5,117,133.5
4263,F5,833.0,0.5,81,133.5
4264,F6,833.0,0.5,81,133.5
4265,B-4,833.5,0.5,89,133.5
4266,B-5,833.5,0.5,89,133.5
4267,B-1,833.5,0.5,100,133.5
4268,B-2,833.5,0.5,100,133.5
4269,C5,834.0,0.25,73,133.5
4270,B-4,834.0,0.5,58,133.5
4271,B-3,834.0,0.5,58,133.5
4272,C#5,834.25,0.25,71,133.5
4273,F5,834.5,167/1000,73,133.5
4274,F4,834.5,0.5,58,133.5
4275,C#4,834.5,0.5,58,133.5
4276,E-5,834.667,167/1000,73,133.5
4277,C#5,834.833,73/500,69,133.5
4278,C#5,835.0,0.5,89,133.5
4279,G#2,835.0,0.5,81,133.5
4280,G#3,835.0,0.5,81,133.5
4281,C6,835.5,0.5,81,133.5
4282,C5,835.5,0.5,81,133.5
4283,G#4,835.5,0.5,58,133.5
4284,G#3,835.5,0.5,58,133.5
4285,C#5,836.0,0.5,81,133.5
4286,C#6,836.0,0.5,81,133.5
4287,F4,836.0,0.5,58,133.5
4288,C4,836.0,0.5,58,133.5
4289,F#4,836.5,0.5,89,133.5
4290,F#5,836.5,0.5,89,133.5
4291,F#2,836.5,0.5,81,133.5
4292,F#3,836.5,0.5,81,133.5
4293,A4,837.0,0.25,73,133.5
4294,F#4,837.0,0.5,58,133.5
4295,F#3,837.0,0.5,58,133.5
4296,B-4,837.25,0.25,69,133.5
4297,C#5,837.5,167/1000,73,133.5
4298,C#4,837.5,0.5,58,133.5
4299,B-3,837.5,0.5,58,133.5
4300,C5,837.667,167/1000,73,133.5
4301,B-4,837.833,73/500,69,133.5
4302,B-4,838.0,0.5,89,133.5
4303,F2,838.0,0.5,80,133.5
4304,F3,838.0,0.5,80,133.5
4305,A5,838.5,0.5,81,133.5
4306,A4,838.5,0.5,81,133.5
4307,F4,838.5,0.5,56,133.5
4308,F3,838.5,0.5,56,133.5
4309,B-4,839.0,0.5,81,133.5
4310,B-5,839.0,0.5,81,133.5
4311,C#4,839.0,0.5,56,133.5
4312,G#3,839.0,0.5,56,133.5
4313,E-4,839.5,0.5,89,133.5
4314,E-5,839.5,0.5,89,133.5
4315,E-2,839.5,0.5,81,133.5
4316,E-3,839.5,0.5,81,133.5
4317,F4,840.0,0.25,74,133.5
4318,E-4,840.0,0.5,56,133.5
4319,E-3,840.0,0.5,56,133.5
4320,F#4,840.25,0.25,70,133.5
4321,B-4,840.5,167/1000,74,133.5
4322,B-3,840.5,0.5,56,133.5
4323,F#3,840.5,0.5,56,133.5
4324,G#4,840.667,167/1000,74,133.5
4325,F#4,840.833,73/500,71,133.5
4326,F#4,841.0,1.5,89,133.5
4327,C#2,841.0,0.5,81,133.5
4328,C#3,841.0,0.5,81,133.5
4329,D5,841.5,0.5,85,133.5
4330,F5,841.5,0.5,85,133.5
4331,C#4,841.5,0.5,62,133.5
4332,C#3,841.5,0.5,62,133.5
4333,E-5,842.0,0.5,85,133.5
4334,F#5,842.0,0.5,85,133.5
4335,F3,842.0,0.5,61,133.5
4336,B-3,842.0,0.5,61,133.5
4337,F4,842.5,0.5,84,133.5
4338,C5,842.5,0.5,84,133.5
4339,E-5,842.5,0.5,84,133.5
4340,F5,842.5,0.5,84,133.5
4341,C2,842.5,0.5,81,133.5
4342,C3,842.5,0.5,81,133.5
4343,E4,843.0,0.25,68,133.5
4344,C4,843.0,0.5,57,133.5
4345,C3,843.0,0.5,57,133.5
4346,F4,843.25,0.25,66,133.5
4347,G#4,843.5,26/125,68,133.5
4348,E-3,843.5,0.5,57,133.5
4349,F#3,843.5,0.5,57,133.5
4350,F#4,843.667,26/125,68,133.5
4351,F4,843.833,73/500,66,133.5
4352,F3,844.0,0.469,59,133.5
4353,B-3,844.0,0.469,59,133.5
4354,B-1,844.0,0.5,80,133.5
4355,B-2,844.0,0.5,80,133.5
4356,C#4,844.062,0.406,59,133.5
4357,F4,844.062,0.406,59,133.5
4358,E-6,844.5,0.5,73,133.5
4359,E-5,844.5,0.5,73,133.5
4360,B-3,844.5,1.0,58,133.5
4361,B-2,844.5,1.0,58,133.5
4362,C#6,845.0,0.5,73,133.5
4363,C#5,845.0,0.5,73,133.5
4364,E-3,845.0,0.5,58,133.5
4365,F#3,845.0,0.5,58,133.5
4366,C5,845.5,0.469,68,133.5
4367,F5,845.5,0.469,68,133.5
4368,C3,845.5,0.5,76,133.5
4369,A2,845.5,0.5,76,133.5
4370,F3,845.5,0.5,76,133.5
4371,A3,845.5,0.5,76,133.5
4372,A5,845.562,0.406,74,133.5
4373,C6,845.562,0.406,74,133.5
4374,E4,846.0,0.25,68,133.5
4375,E3,846.0,0.25,64,133.5
4376,F4,846.25,0.25,66,133.5
4377,F3,846.25,0.25,61,133.5
4378,G#4,846.5,26/125,69,133.5
4379,G#3,846.5,26/125,64,133.5
4380,F#4,846.667,26/125,69,133.5
4381,F#3,846.667,26/125,64,133.5
4382,F4,846.833,73/500,67,133.5
4383,F3,846.833,73/500,61,133.5
4384,B-1,847.0,0.5,57,133.5
4385,F3,847.0,0.469,60,133.5
4386,B-3,847.0,0.469,60,133.5
4387,B-2,847.062,0.438,57,133.5
4388,C#4,847.062,0.406,60,133.5
4389,F4,847.062,0.406,60,133.5
4390,C6,847.5,0.5,74,133.5
4391,C5,847.5,0.5,74,133.5
4392,E-4,847.5,0.5,71,133.5
4393,E-3,847.5,0.5,71,133.5
4394,B-4,848.0,0.5,74,133.5
4395,B-5,848.0,0.5,74,133.5
4396,C#3,848.0,0.5,72,133.5
4397,C#4,848.0,0.5,72,133.5
4398,A4,848.5,0.469,70,133.5
4399,C5,848.5,0.469,70,133.5
4400,F2,848.5,0.469,74,133.5
4401,C3,848.5,0.469,74,133.5
4402,A3,848.562,0.438,74,133.5
4403,F5,848.562,0.406,75,133.5
4404,A5,848.562,0.406,75,133.5
4405,E4,849.0,0.25,65,133.5
4406,E3,849.0,0.25,62,133.5
4407,F4,849.25,0.25,60,133.5
4408,F3,849.25,0.25,59,133.5
4409,G#4,849.5,26/125,65,133.5
4410,G#3,849.5,26/125,62,133.5
4411,F#4,849.667,26/125,65,133.5
4412,F#3,849.667,26/125,62,133.5
4413,F4,849.833,73/500,61,133.5
4414,F3,849.833,73/500,58,133.5
4415,B-1,850.0,0.5,54,133.5
4416,F3,850.0,0.469,56,133.5
4417,B-3,850.0,0.469,56,133.5
4418,B-2,850.062,0.438,54,133.5
4419,C#4,850.062,0.406,56,133.5
4420,F4,850.062,0.406,56,133.5
4421,E-6,850.5,0.5,78,133.5
4422,E-5,850.5,0.5,78,133.5
4423,C4,850.5,0.5,69,133.5
4424,C3,850.5,0.5,69,133.5
4425,C#5,851.0,0.5,78,133.5
4426,C#6,851.0,0.5,78,133.5
4427,B-2,851.0,0.5,69,133.5
4428,B-3,851.0,0.5,69,133.5
4429,C5,851.5,0.469,74,133.5
4430,F5,851.5,0.469,74,133.5
4431,F2,851.5,0.469,75,133.5
4432,C3,851.5,0.469,75,133.5
4433,A3,851.562,0.438,75,133.5
4434,A5,851.562,0.406,78,133.5
4435,C6,851.562,0.406,78,133.5
4436,E4,852.0,0.25,70,133.5
4437,E3,852.0,0.25,61,133.5
4438,F4,852.25,0.25,67,133.5
4439,F3,852.25,0.25,58,133.5
4440,G#4,852.5,26/125,70,133.5
4441,G#3,852.5,26/125,61,133.5
4442,F#4,852.667,26/125,70,133.5
4443,F#3,852.667,26/125,61,133.5
4444,F4,852.833,73/500,68,133.5
4445,F3,852.833,73/500,57,133.5
4446,B-1,853.0,0.5,55,133.5
4447,F3,853.0,0.469,62,133.5
4448,B-3,853.0,0.469,62,133.5
4449,B-2,853.062,0.438,55,133.5
4450,C#4,853.062,0.406,62,133.5
4451,F4,853.062,0.406,62,133.5
4452,C6,853.5,0.5,77,133.5
4453,C5,853.5,0.5,77,133.5
4454,E-4,853.5,0.5,74,133.5
4455,E-3,853.5,0.5,74,133.5
4456,B-4,854.0,0.5,77,133.5
4457,B-5,854.0,0.5,77,133.5
4458,C#3,854.0,0.5,73,133.5
4459,C#4,854.0,0.5,73,133.5
4460,A4,854.5,0.469,74,133.5
4461,C5,854.5,0.469,74,133.5
4462,F2,854.5,0.469,75,133.5
4463,C3,854.5,0.469,75,133.5
4464,A3,854.562,0.438,74,133.5
4465,F5,854.562,0.406,79,133.5
4466,A5,854.562,0.406,79,133.5
4467,E4,855.0,0.25,67,133.5
4468,E3,855.0,0.25,67,133.5
4469,F4,855.25,0.25,64,133.5
4470,F3,855.25,0.25,63,133.5
4471,G#4,855.5,26/125,67,133.5
4472,G#3,855.5,26/125,67,133.5
4473,F#4,855.667,26/125,67,133.5
4474,F#3,855.667,26/125,67,133.5
4475,F4,855.833,73/500,64,133.5
4476,F3,855.833,73/500,62,133.5
4477,F4,856.0,0.5,80,133.5
4478,B-1,856.0,0.5,60,133.5
4479,B-2,856.062,0.438,60,133.5
4480,C#6,856.5,0.5,77,133.5
4481,C#5,856.5,0.5,77,133.5
4482,C4,856.5,0.5,74,133.5
4483,C3,856.5,0.5,74,133.5
4484,C5,857.0,0.5,78,133.5
4485,C6,857.0,0.5,78,133.5
4486,B-2,857.0,0.5,74,133.5
4487,B-3,857.0,0.5,74,133.5
4488,A4,857.5,0.469,74,133.5
4489,C5,857.5,0.469,74,133.5
4490,F2,857.5,0.469,75,133.5
4491,C3,857.5,0.469,75,133.5
4492,A3,857.562,0.438,74,133.5
4493,F5,857.562,0.406,80,133.5
4494,A5,857.562,0.406,80,133.5
4495,B3,858.0,0.25,70,133.5
4496,E3,858.0,0.25,63,133.5
4497,C4,858.25,0.25,66,133.5
4498,F3,858.25,0.25,60,133.5
4499,E-4,858.5,26/125,70,133.5
4500,G#3,858.5,26/125,63,133.5
4501,C#4,858.667,26/125,70,133.5
4502,F#3,858.667,26/125,63,133.5
4503,C4,858.833,73/500,66,133.5
4504,F3,858.833,73/500,60,133.5
4505,C4,859.0,0.5,80,133.5
4506,F3,859.0,0.5,74,133.5
4507,B-4,859.5,0.5,78,133.5
4508,C#4,859.5,0.5,71,133.5
4509,A4,860.0,0.5,75,133.5
4510,C4,860.0,0.5,73,133.5
4511,A4,860.5,0.469,66,133.5
4512,C5,860.5,0.469,66,133.5
4513,F2,860.5,0.469,76,133.5
4514,C3,860.5,0.469,76,133.5
4515,A3,860.562,0.438,76,133.5
4516,F5,860.562,0.406,71,133.5
4517,A5,860.562,0.406,71,133.5
4518,E4,861.0,0.25,70,133.5
4519,B2,861.0,0.25,67,133.5
4520,F4,861.25,0.25,67,133.5
4521,C3,861.25,0.25,64,133.5
4522,G#4,861.5,26/125,70,133.5
4523,E-3,861.5,26/125,67,133.5
4524,F#4,861.667,26/125,70,133.5
4525,C#3,861.667,26/125,67,133.5
4526,F4,861.833,73/500,66,133.5
4527,C3,861.833,73/500,64,133.5
4528,F4,862.0,0.5,80,133.5
4529,C2,862.0,0.5,74,133.5
4530,C3,862.0,0.5,74,133.5
4531,B-3,862.5,0.5,73,133.5
4532,C#6,862.5,0.5,77,133.5
4533,C#5,862.5,0.5,77,133.5
4534,A3,863.0,0.5,70,133.5
4535,C5,863.0,0.5,77,133.5
4536,C6,863.0,0.5,77,133.5
4537,A4,863.5,0.469,66,133.5
4538,C5,863.5,0.469,66,133.5
4539,F2,863.5,0.469,69,133.5
4540,C3,863.5,0.469,69,133.5
4541,A3,863.562,0.438,69,133.5
4542,F5,863.562,0.406,73,133.5
4543,A5,863.562,0.406,73,133.5
4544,B3,864.0,0.25,69,133.5
4545,E3,864.0,0.25,66,133.5
4546,C4,864.25,0.25,67,133.5
4547,F3,864.25,0.25,63,133.5
4548,E-4,864.5,26/125,69,133.5
4549,G#3,864.5,26/125,66,133.5
4550,C#4,864.667,26/125,69,133.5
4551,F#3,864.667,26/125,66,133.5
4552,C4,864.833,73/500,66,133.5
4553,F3,864.833,73/500,63,133.5
4554,C4,865.0,0.5,78,133.5
4555,F3,865.0,0.5,74,133.5
4556,B-4,865.5,0.5,77,133.5
4557,C#4,865.5,0.5,74,133.5
4558,A4,866.0,0.5,74,133.5
4559,C4,866.0,0.5,71,133.5
4560,A4,866.5,0.469,62,133.5
4561,C5,866.5,0.469,62,133.5
4562,F2,866.5,0.469,68,133.5
4563,C3,866.5,0.469,68,133.5
4564,A3,866.562,0.438,68,133.5
4565,F5,866.562,0.406,67,133.5
4566,A5,866.562,0.406,67,133.5
4567,B3,867.0,0.25,64,133.5
4568,B2,867.0,0.25,66,133.5
4569,C4,867.25,0.25,59,133.5
4570,C3,867.25,0.25,64,133.5
4571,E-4,867.5,26/125,64,133.5
4572,E-3,867.5,26/125,66,133.5
4573,C#4,867.667,26/125,64,133.5
4574,C#3,867.667,26/125,66,133.5
4575,C4,867.833,73/500,60,133.5
4576,C3,867.833,73/500,63,133.5
4577,C4,868.0,0.5,72,133.5
4578,C2,868.0,0.5,75,133.5
4579,C3,868.0,0.5,75,133.5
4580,B-4,868.5,0.5,71,133.5
4581,B-3,868.5,0.5,69,133.5
4582,A4,869.0,0.5,69,133.5
4583,A3,869.0,0.5,71,133.5
4584,A4,869.5,0.469,58,133.5
4585,C5,869.5,0.469,58,133.5
4586,F2,869.5,0.469,59,133.5
4587,C3,869.5,0.469,59,133.5
4588,A3,869.562,0.438,59,133.5
4589,F5,869.562,0.406,62,133.5
4590,A5,869.562,0.406,62,133.5
4591,B3,870.0,0.25,59,133.5
4592,B2,870.0,0.25,61,133.5
4593,C4,870.25,0.25,56,133.5
4594,C3,870.25,0.25,57,133.5
4595,E-4,870.5,26/125,59,133.5
4596,E-3,870.5,26/125,61,133.5
4597,C#4,870.667,26/125,59,133.5
4598,C#3,870.667,26/125,61,133.5
4599,C4,870.833,73/500,55,133.5
4600,C3,870.833,73/500,57,133.5
4601,C4,871.0,0.5,67,133.5
4602,C2,871.0,0.5,69,133.5
4603,C3,871.0,0.5,69,133.5
4604,B-4,871.5,0.5,67,133.5
4605,B-3,871.5,0.5,67,133.5
4606,A4,872.0,0.5,64,133.5
4607,A3,872.0,0.5,65,133.5
4608,A4,872.5,0.469,54,133.5
4609,C5,872.5,0.469,54,133.5
4610,F2,872.5,0.469,62,133.5
4611,C3,872.5,0.469,62,133.5
4612,A3,872.562,0.438,62,133.5
4613,F5,872.562,0.406,57,133.5
4614,A5,872.562,0.406,57,133.5
4615,B2,873.0,0.312,53,133.5
4616,B2,873.0,0.25,56,133.5
4617,C3,873.25,0.312,51,133.5
4618,C3,873.25,0.25,53,133.5
4619,E-3,873.5,26/125,53,133.5
4620,E-3,873.5,26/125,57,133.5
4621,C#3,873.667,26/125,53,133.5
4622,C#3,873.667,26/125,57,133.5
4623,C3,873.833,73/500,49,133.5
4624,C3,873.833,73/500,54,133.5
4625,C3,874.0,0.5,59,133.5
4626,C2,874.0,0.5,65,133.5
4627,C3,874.0,0.5,65,133.5
4628,B-3,874.5,0.25,56,133.5
4629,B-3,874.5,0.5,60,133.5
4630,A3,875.0,0.25,58,133.5
4631,A3,875.0,0.5,60,133.5
4632,F3,875.5,0.5,62,133.5
4633,F2,875.5,0.469,56,133.5
4634,C3,875.5,0.469,56,133.5
4635,F3,875.562,0.438,56,133.5
4636,B2,876.0,0.312,46,133.5
4637,B1,876.0,0.312,48,133.5
4638,C3,876.25,0.312,43,133.5
4639,C2,876.25,0.312,44,133.5
4640,E-3,876.5,26/125,46,133.5
4641,E-2,876.5,26/125,48,133.5
4642,C#3,876.667,26/125,46,133.5
4643,C#2,876.667,26/125,48,133.5
4644,C3,876.833,73/500,42,133.5
4645,C2,876.833,73/500,45,133.5
4646,C3,877.0,0.5,51,133.5
4647,C2,877.0,0.5,55,133.5
4648,B-3,877.5,0.25,52,133.5
4649,B-2,877.5,0.25,55,133.5
4650,A3,878.0,0.25,52,133.5
4651,A2,878.0,0.25,53,133.5
4652,F3,878.5,0.5,56,133.5
4653,F2,878.5,0.5,56,133.5
4654,B1,879.0,0.312,43,133.5
4655,C2,879.25,0.312,40,133.5
4656,E-2,879.5,26/125,43,133.5
4657,C#2,879.667,26/125,43,133.5
4658,C2,879.833,73/500,40,133.5
4659,C2,880.0,0.5,46,133.5
4660,B-2,880.5,0.25,49,133.5
4661,A2,881.0,0.25,49,133.5
4662,F2,881.5,0.5,52,133.5
4663,B2,882.0,0.312,47,133.5
4664,C3,882.25,0.312,44,133.5
4665,E-3,882.5,26/125,47,133.5
4666,C#3,882.667,26/125,47,133.5
4667,C3,882.833,73/500,44,133.5
4668,C3,883.0,0.25,55,133.5
4669,B-3,883.5,0.25,52,133.5
4670,A3,884.0,0.25,49,133.5
4671,F3,884.5,0.5,55,133.5
4672,B1,885.0,0.312,44,133.5
4673,C2,885.25,0.312,41,133.5
4674,E-2,885.5,26/125,44,133.5
4675,C#2,885.667,26/125,44,133.5
4676,C2,885.833,73/500,41,133.5
4677,C2,886.0,0.25,52,133.5
4678,B-2,886.5,0.5,46,133.5
4679,B-2,886.5,0.25,49,133.5
4680,A2,887.0,0.5,45,133.5
4681,A2,887.0,0.25,46,133.5
4682,F2,887.5,1.5,46,133.5
4683,F2,887.5,0.5,52,133.5
4684,B-1,889.5,0.5,43,133.5
4685,A1,890.0,0.5,43,133.5
4686,F1,890.5,1.5,43,133.5
4687,A3,891.5,167/1000,29,133.5
4688,B-3,891.667,167/1000,31,133.5
4689,C#4,891.833,167/1000,33,133.5
4690,F4,892.0,0.25,37,133.5
4691,A3,893.0,167/1000,29,133.5
4692,B-3,893.167,167/1000,31,133.5
4693,C#4,893.333,167/1000,32,133.5
4694,F4,893.5,1.5,43,133.5
4695,A2,894.5,167/1000,27,133.5
4696,B-2,894.667,167/1000,28,133.5
4697,C#3,894.833,167/1000,29,133.5
4698,F4,895.0,1.5,43,133.5
4699,F3,895.0,0.25,33,133.5
4700,A2,896.0,167/1000,26,133.5
4701,B-2,896.167,167/1000,27,133.5
4702,C#3,896.333,167/1000,29,133.5
4703,B-3,896.5,0.25,100,133.5
4704,F3,896.5,1.5,38,133.5
4705,F3,898.0,1.5,38,133.5
4706,B-6,898.0,1.5,87,133.5
4707,F#6,898.0,1.5,87,133.5
4708,B-5,898.0,1.5,87,133.5
4709,B-1,899.5,0.25,95,133.5
4710,B-2,899.5,0.25,95,133.5
4711,B-6,901.0,1.5,87,133.5
4712,F#6,901.0,1.5,87,133.5
4713,B-5,901.0,1.5,87,133.5
4714,B-3,901.0,1.5,80,133.5
4715,C4,901.0,1.5,80,133.5
4716,E-4,901.0,1.5,80,133.5
4717,F#4,901.0,1.5,80,133.5
4718,B-4,901.0,1.5,80,133.5
4719,E-5,902.5,0.75,58,133.5
4720,C6,902.5,0.75,58,133.5
4721,E-6,902.5,0.75,58,133.5
4722,F5,903.25,0.25,64,133.5
4723,C6,903.25,0.25,64,133.5
4724,F6,903.25,0.25,64,133.5
4725,F#5,903.5,0.5,67,133.5
4726,C6,903.5,0.5,67,133.5
4727,F#6,903.5,0.5,67,133.5
4728,F5,904.0,0.5,64,133.5
4729,C#6,904.0,0.5,64,133.5
4730,F6,904.0,0.5,64,133.5
4731,B-3,904.0,1.5,80,133.5
4732,C4,904.0,1.5,80,133.5
4733,E-4,904.0,1.5,80,133.5
4734,F#4,904.0,1.5,80,133.5
4735,B-4,904.0,1.5,80,133.5
4736,A3,905.0,167/1000,27,133.5
4737,B-3,905.167,167/1000,29,133.5
4738,C#4,905.333,167/1000,30,133.5
4739,F4,905.5,0.25,35,133.5
4740,B-3,905.5,0.75,52,133.5
4741,C4,905.5,0.75,52,133.5
4742,E-4,905.5,0.75,52,133.5
4743,F#4,905.5,0.75,52,133.5
4744,B-4,905.5,0.75,52,133.5
4745,B-3,906.25,0.25,57,133.5
4746,C4,906.25,0.25,57,133.5
4747,E-4,906.25,0.25,57,133.5
4748,F#4,906.25,0.25,57,133.5
4749,B-4,906.25,0.25,57,133.5
4750,A3,906.5,167/1000,27,133.5
4751,B-3,906.5,0.5,62,133.5
4752,C4,906.5,0.5,62,133.5
4753,E-4,906.5,0.5,62,133.5
4754,F#4,906.5,0.5,62,133.5
4755,B-4,906.5,0.5,62,133.5
4756,B-3,906.667,167/1000,29,133.5
4757,C#4,906.833,167/1000,30,133.5
4758,F4,907.0,1.5,39,133.5
4759,B-3,907.0,0.5,57,133.5
4760,C#4,907.0,0.5,57,133.5
4761,F4,907.0,0.5,57,133.5
4762,B-4,907.0,0.5,57,133.5
4763,A2,908.0,167/1000,27,133.5
4764,B-2,908.167,167/1000,28,133.5
4765,C#3,908.333,167/1000,30,133.5
4766,F4,908.5,1.5,39,133.5
4767,F3,908.5,0.25,33,133.5
4768,A2,909.5,167/1000,26,133.5
4769,B-2,909.667,167/1000,28,133.5
4770,C#3,909.833,167/1000,30,133.5
4771,G#3,910.0,0.25,100,133.5
4772,F3,910.0,1.5,37,133.5
4773,F3,911.5,1.5,37,133.5
4774,G#6,911.5,1.5,85,133.5
4775,F6,911.5,1.5,85,133.5
4776,G#5,911.5,1.5,85,133.5
4777,G#1,913.0,0.25,95,133.5
4778,G#2,913.0,0.25,95,133.5
4779,G#3,914.375,0.125,75,133.5
4780,F4,914.438,0.062,89,133.5
4781,C#5,914.5,1.5,89,133.5
4782,G#3,914.5,1.5,75,133.5
4783,F4,914.5,1.5,89,133.5
4784,G#6,914.5,1.5,85,133.5
4785,F6,914.5,1.5,85,133.5
4786,G#5,914.5,1.5,85,133.5
4787,C#5,916.0,1.5,89,133.5
4788,G#3,916.0,1.5,75,133.5
4789,F4,916.0,1.5,89,133.5
4790,E-5,916.0,0.75,57,133.5
4791,C6,916.0,0.75,57,133.5
4792,E-6,916.0,0.75,57,133.5
4793,F5,916.75,0.25,62,133.5
4794,C6,916.75,0.25,62,133.5
4795,F6,916.75,0.25,62,133.5
4796,F#5,917.0,0.5,66,133.5
4797,C6,917.0,0.5,66,133.5
4798,F#6,917.0,0.5,66,133.5
4799,F5,917.5,0.5,63,133.5
4800,C#6,917.5,0.5,63,133.5
4801,F6,917.5,0.5,63,133.5
4802,G#3,917.5,0.75,56,133.5
4803,E-4,917.5,0.75,56,133.5
4804,F#4,917.5,0.75,56,133.5
4805,G#4,917.5,0.75,56,133.5
4806,G#3,918.25,0.25,60,133.5
4807,E-4,918.25,0.25,60,133.5
4808,F#4,918.25,0.25,60,133.5
4809,G#4,918.25,0.25,60,133.5
4810,G#3,918.5,0.5,65,133.5
4811,E-4,918.5,0.5,65,133.5
4812,F#4,918.5,0.5,65,133.5
4813,G#4,918.5,0.5,65,133.5
4814,A4,919.0,1.0,81,133.5
4815,F5,919.0,1.0,81,133.5
4816,G#4,919.0,0.5,62,133.5
4817,C#4,919.0,0.5,62,133.5
4818,F4,919.0,0.5,62,133.5
4819,A3,920.5,1.0,81,133.5
4820,F4,920.5,1.0,81,133.5
4821,F4,920.5,1.0,73,133.5
4822,C4,920.5,1.0,73,133.5
4823,F3,920.5,1.0,73,133.5
4824,F2,922.0,1.0,73,133.5
4825,C3,922.0,1.0,73,133.5
4826,F3,922.0,1.0,73,133.5
4827,F1,923.5,1.5,86,133.5
4828,F2,923.5,1.5,86,133.5
4829,F1,927.0,1.5,86,133.5
4830,F2,927.0,1.5,86,133.5
4831,F1,929.0,0.5,86,133.5
4832,F2,929.0,0.5,86,133.5
4833,F#1,929.5,0.375,90,133.5
4834,F#2,929.5,0.375,90,133.5
4835,A3,930.5,167/1000,27,133.5
4836,B-3,930.667,167/1000,29,133.5
4837,C#4,930.833,167/1000,30,133.5
4838,F4,931.0,0.25,34,133.5
4839,A3,932.0,167/1000,29,133.5
4840,B-3,932.167,167/1000,30,133.5
4841,C#4,932.333,167/1000,31,133.5
4842,F4,932.5,1.5,39,133.5
4843,F4,934.0,1.5,39,133.5
4844,A2,934.5,167/1000,27,133.5
4845,B-2,934.667,167/1000,28,133.5
4846,C#3,934.833,167/1000,29,133.5
4847,F3,935.0,0.25,33,133.5
4848,B-3,935.5,0.25,100,133.5
4849,A2,936.0,167/1000,27,133.5
4850,B-2,936.167,167/1000,28,133.5
4851,C#3,936.333,167/1000,29,133.5
4852,F3,936.5,1.5,37,133.5
4853,B-5,937.0,1.5,87,133.5
4854,F#6,937.0,1.5,87,133.5
4855,B-6,937.0,1.5,87,133.5
4856,F3,938.0,1.5,37,133.5
4857,B-5,939.25,0.75,87,133.5
4858,F#6,939.25,0.75,87,133.5
4859,B-6,939.25,0.75,87,133.5
4860,B-2,939.5,0.25,95,133.5
4861,B-1,939.5,0.25,95,133.5
4862,E-6,940.0,0.25,55,133.5
4863,C6,940.0,0.25,55,133.5
4864,E-5,940.0,0.25,55,133.5
4865,E-6,940.25,0.5,55,133.5
4866,C6,940.25,0.5,55,133.5
4867,E-5,940.25,0.5,55,133.5
4868,E-5,940.75,0.75,58,133.5
4869,C6,940.75,0.75,58,133.5
4870,E-6,940.75,0.75,58,133.5
4871,E-4,941.0,1.5,80,133.5
4872,B-3,941.0,1.5,80,133.5
4873,C4,941.0,1.5,80,133.5
4874,B-4,941.0,1.5,80,133.5
4875,F#4,941.0,1.5,80,133.5
4876,C6,941.5,0.25,64,133.5
4877,F6,941.5,0.25,64,133.5
4878,F5,941.5,0.25,64,133.5
4879,C6,941.75,0.5,67,133.5
4880,F#5,941.75,0.5,67,133.5
4881,F#6,941.75,0.5,67,133.5
4882,C#6,942.25,0.5,64,133.5
4883,F5,942.25,0.5,64,133.5
4884,F6,942.25,0.5,64,133.5
4885,A3,943.25,167/1000,29,133.5
4886,E-4,943.25,0.75,80,133.5
4887,B-3,943.25,0.75,80,133.5
4888,C4,943.25,0.75,80,133.5
4889,B-4,943.25,0.75,80,133.5
4890,F#4,943.25,0.75,80,133.5
4891,B-3,943.417,167/1000,30,133.5
4892,C#4,943.583,167/1000,32,133.5
4893,F4,943.75,0.25,37,133.5
4894,B-3,944.0,0.25,52,133.5
4895,C4,944.0,0.25,52,133.5
4896,E-4,944.0,0.25,52,133.5
4897,F#4,944.0,0.25,52,133.5
4898,B-4,944.0,0.25,52,133.5
4899,B-3,944.25,0.5,52,133.5
4900,C4,944.25,0.5,52,133.5
4901,E-4,944.25,0.5,52,133.5
4902,F#4,944.25,0.5,52,133.5
4903,B-4,944.25,0.5,52,133.5
4904,A3,944.75,167/1000,29,133.5
4905,E-4,944.75,0.75,52,133.5
4906,B-3,944.75,0.75,52,133.5
4907,C4,944.75,0.75,52,133.5
4908,F#4,944.75,0.75,52,133.5
4909,B-4,944.75,0.75,52,133.5
4910,B-3,944.917,167/1000,30,133.5
4911,C#4,945.083,167/1000,32,133.5
4912,F4,945.25,1.5,39,133.5
4913,C4,945.5,0.25,57,133.5
4914,E-4,945.5,0.25,57,133.5
4915,B-3,945.5,0.25,57,133.5
4916,F#4,945.5,0.25,57,133.5
4917,B-4,945.5,0.25,57,133.5
4918,E-4,945.75,0.5,62,133.5
4919,F#4,945.75,0.5,62,133.5
4920,B-3,945.75,0.5,62,133.5
4921,C4,945.75,0.5,62,133.5
4922,B-4,945.75,0.5,62,133.5
4923,F4,946.25,0.5,60,133.5
4924,B-3,946.25,0.5,60,133.5
4925,C#4,946.25,0.5,60,133.5
4926,B-4,946.25,0.5,60,133.5
4927,F4,946.75,1.5,39,133.5
4928,A2,947.25,167/1000,27,133.5
4929,B-2,947.417,167/1000,29,133.5
4930,C#3,947.583,167/1000,30,133.5
4931,F3,947.75,0.25,34,133.5
4932,C3,948.25,0.25,100,133.5
4933,A2,948.75,167/1000,24,133.5
4934,B-2,948.917,167/1000,26,133.5
4935,C#3,949.083,167/1000,27,133.5
4936,F3,949.25,1.5,37,133.5
4937,C6,949.75,1.5,85,133.5
4938,G#6,949.75,1.5,85,133.5
4939,C7,949.75,1.5,85,133.5
4940,F3,950.75,1.5,37,133.5
4941,C1,952.25,0.25,95,133.5
4942,C2,952.25,0.25,95,133.5
4943,C6,952.75,1.5,85,133.5
4944,G#6,952.75,1.5,85,133.5
4945,C7,952.75,1.5,85,133.5
4946,G#4,953.75,1.5,82,133.5
4947,C5,953.75,1.5,82,133.5
4948,F4,953.75,1.5,82,133.5
4949,C4,953.75,1.5,82,133.5
4950,G6,954.25,0.75,57,133.5
4951,E6,954.25,0.75,57,133.5
4952,G5,954.25,0.75,57,133.5
4953,G#5,955.0,0.25,62,133.5
4954,E6,955.0,0.25,62,133.5
4955,G#6,955.0,0.25,62,133.5
4956,B-5,955.25,0.5,66,133.5
4957,E6,955.25,0.5,66,133.5
4958,B-6,955.25,0.5,66,133.5
4959,G#6,955.75,0.5,63,133.5
4960,F6,955.75,0.5,63,133.5
4961,G#5,955.75,0.5,63,133.5
4962,G#4,956.75,1.5,82,133.5
4963,C5,956.75,1.5,82,133.5
4964,F4,956.75,1.5,82,133.5
4965,C4,956.75,1.5,82,133.5
4966,C5,957.25,1.0,78,133.5
4967,G#5,957.25,1.0,78,133.5
4968,G#4,957.25,1.0,78,133.5
4969,F5,957.25,1.0,78,133.5
4970,C4,958.25,0.75,56,133.5
4971,B-4,958.25,0.75,56,133.5
4972,E4,958.25,0.75,56,133.5
4973,C5,958.25,0.75,56,133.5
4974,C4,958.75,1.0,78,133.5
4975,G#4,958.75,1.0,78,133.5
4976,G#3,958.75,1.0,78,133.5
4977,F4,958.75,1.0,78,133.5
4978,E4,959.0,0.25,60,133.5
4979,C4,959.0,0.25,60,133.5
4980,C5,959.0,0.25,60,133.5
4981,B-4,959.0,0.25,60,133.5
4982,B-4,959.25,0.5,65,133.5
4983,C4,959.25,0.5,65,133.5
4984,E4,959.25,0.5,65,133.5
4985,C5,959.25,0.5,65,133.5
4986,C5,959.75,0.5,62,133.5
4987,F4,959.75,0.5,62,133.5
4988,G#4,959.75,0.5,62,133.5
4989,F3,961.25,1.0,73,133.5
4990,F4,961.25,1.0,73,133.5
4991,C4,961.25,1.0,73,133.5
4992,F3,962.75,1.0,73,133.5
4993,C3,962.75,1.0,73,133.5
4994,F2,962.75,1.0,73,133.5
4995,F2,963.25,1.5,94,133.5
4996,E1,964.25,1.5,86,133.5
4997,E2,964.25,1.5,86,133.5
4998,D2,964.75,0.188,50,133.5
4999,E-2,964.917,0.188,51,133.5
5000,F2,965.083,0.188,51,133.5
5001,E-2,965.25,167/1000,52,133.5
5002,F2,965.417,0.188,53,133.5
5003,E-2,965.583,0.188,55,133.5
5004,F2,965.744,0.188,56,133.5
5005,E-2,965.917,0.188,56,133.5
5006,F2,966.083,167/1000,57,133.5
5007,E-2,966.25,73/500,58,133.5
5008,F2,966.25,21/1000,57,133.5
5009,F2,966.375,73/500,59,133.5
5010,E-2,966.5,73/500,60,133.5
5011,F2,966.625,73/500,61,133.5
5012,E-2,966.744,0.125,62,133.5
5013,F2,966.875,73/500,62,133.5
5014,E-2,967.0,73/500,62,133.5
5015,F2,967.125,73/500,63,133.5
5016,E-2,967.25,0.188,64,133.5
5017,E1,967.25,1.5,86,133.5
5018,E2,967.25,1.5,86,133.5
5019,D2,967.417,0.188,73,133.5
5020,E-2,967.583,167/1000,73,133.5
5021,F7,967.75,1.5,97,133.5
5022,E-2,967.75,21/1000,73,133.5
5023,F1,968.75,1.5,94,133.5
5024,F7,969.25,0.5,97,133.5
5025,E-7,969.75,0.25,68,133.5
5026,C#7,970.0,0.25,62,133.5
5027,G#6,970.25,0.25,65,133.5
5028,D1,970.25,0.188,45,133.5
5029,E-1,970.417,0.188,45,133.5
5030,F6,970.5,0.25,60,133.5
5031,F1,970.583,0.188,45,133.5
5032,E-6,970.75,0.25,62,133.5
5033,E-1,970.75,0.188,46,133.5
5034,F1,970.917,167/1000,47,133.5
5035,C#6,971.0,0.25,57,133.5
5036,E-1,971.083,0.188,49,133.5
5037,G#5,971.25,0.25,58,133.5
5038,F1,971.25,0.188,50,133.5
5039,E-1,971.417,0.188,51,133.5
5040,F5,971.5,0.25,52,133.5
5041,F1,971.583,167/1000,51,133.5
5042,E-5,971.75,0.25,55,133.5
5043,E-1,971.75,73/500,52,133.5
5044,F1,971.75,21/1000,51,133.5
5045,F1,971.875,73/500,53,133.5
5046,C#5,972.0,0.25,51,133.5
5047,E-1,972.0,73/500,53,133.5
5048,F1,972.125,73/500,54,133.5
5049,G#4,972.25,0.5,52,133.5
5050,E-1,972.25,73/500,55,133.5
5051,F1,972.375,73/500,55,133.5
5052,E-1,972.5,73/500,56,133.5
5053,F1,972.625,73/500,56,133.5
5054,E-1,972.75,0.188,59,133.5
5055,D1,972.917,0.188,73,133.5
5056,E-1,973.083,167/1000,73,133.5
5057,E-1,973.25,21/1000,73,133.5
5058,C#1,973.25,0.25,81,133.5
5059,C#2,973.25,0.25,81,133.5
5060,C5,973.75,0.25,55,133.5
5061,C#5,974.0,0.25,52,133.5
5062,E-5,974.25,0.25,50,133.5
5063,G#2,974.25,0.5,45,133.5
5064,G#3,974.25,0.5,45,133.5
5065,F5,974.5,0.25,47,133.5
5066,F#5,974.75,0.25,45,133.5
5067,C#4,974.75,0.5,53,133.5
5068,F3,974.75,0.5,53,133.5
5069,G#5,974.985,0.25,42,133.5
5070,A5,975.25,0.25,40,133.5
5071,G#2,975.75,0.5,42,133.5
5072,G#3,975.75,0.5,42,133.5
5073,F3,976.25,0.5,47,133.5
5074,C#4,976.25,0.5,47,133.5
5075,A5,976.75,0.25,50,133.5
5076,G#5,977.0,0.25,49,133.5
5077,G5,977.25,0.25,47,133.5
5078,F#5,977.5,0.25,46,133.5
5079,F5,977.75,0.25,44,133.5
5080,E5,978.0,0.25,42,133.5
5081,E-5,978.25,0.25,41,133.5
5082,G#1,979.25,0.25,52,133.5
5083,G#2,979.25,0.25,52,133.5
5084,F7,979.75,1.5,97,133.5
5085,F#4,980.75,0.5,38,133.5
5086,G3,980.75,0.5,38,133.5
5087,C4,980.75,0.5,38,133.5
5088,F7,981.25,0.5,97,133.5
5089,G#3,981.25,0.5,35,133.5
5090,C4,981.25,0.5,35,133.5
5091,F#4,981.25,0.5,35,133.5
5092,E-7,981.75,0.25,68,133.5
5093,F#4,981.75,0.25,31,133.5
5094,G#3,981.75,0.25,31,133.5
5095,C4,981.75,0.25,31,133.5
5096,C#7,982.0,0.25,61,133.5
5097,G#6,982.25,0.25,65,133.5
5098,F6,982.5,0.25,59,133.5
5099,E-6,982.75,0.25,62,133.5
5100,C#6,983.0,0.25,57,133.5
5101,G#5,983.25,0.25,58,133.5
5102,F5,983.5,0.25,57,133.5
5103,E-5,983.75,0.25,55,133.5
5104,A3,983.75,0.5,35,133.5
5105,C4,983.75,0.5,35,133.5
5106,F#4,983.75,0.5,35,133.5
5107,C#5,984.0,0.25,51,133.5
5108,G#4,984.25,0.5,52,133.5
5109,F#4,984.25,0.5,32,133.5
5110,C4,984.25,0.5,32,133.5
5111,G#3,984.25,0.5,32,133.5
5112,F#4,984.75,0.25,28,133.5
5113,C4,984.75,0.25,28,133.5
5114,G#3,984.75,0.25,28,133.5
5115,C#1,985.25,0.25,81,133.5
5116,C#2,985.25,0.25,81,133.5
5117,C5,985.75,0.25,42,133.5
5118,C#5,986.0,0.25,41,133.5
5119,E-5,986.25,0.25,41,133.5
5120,G#2,986.25,0.5,45,133.5
5121,G#3,986.25,0.5,45,133.5
5122,F5,986.5,0.25,40,133.5
5123,F#5,986.75,0.25,39,133.5
5124,C#4,986.75,0.5,53,133.5
5125,F3,986.75,0.5,53,133.5
5126,G#5,986.985,0.25,38,133.5
5127,A5,987.25,0.25,37,133.5
5128,G#2,987.75,0.5,42,133.5
5129,G#3,987.75,0.5,42,133.5
5130,F3,988.25,0.5,47,133.5
5131,C#4,988.25,0.5,47,133.5
5132,A5,988.75,0.25,42,133.5
5133,G#5,989.0,0.25,41,133.5
5134,G5,989.25,0.25,40,133.5
5135,F#5,989.5,0.25,39,133.5
5136,F5,989.75,0.25,37,133.5
5137,E5,990.0,0.25,36,133.5
5138,E-5,990.25,0.5,35,133.5
5139,G#2,991.25,1.5,25,133.5
5140,E-3,991.25,1.5,25,133.5
5141,F#3,991.25,1.5,25,133.5
5142,B4,991.75,1.5,40,133.5
5143,F5,991.75,1.5,59,133.5
5144,C4,992.75,0.25,32,133.5
5145,C#4,993.0,0.25,32,133.5
5146,B4,993.25,1.5,40,133.5
5147,F5,993.25,0.5,59,133.5
5148,E-4,993.25,0.25,32,133.5
5149,F4,993.5,0.25,32,133.5
5150,E-5,993.75,0.75,53,133.5
5151,F#4,993.75,0.25,32,133.5
5152,G#4,994.0,0.25,32,133.5
5153,A4,994.25,0.25,32,133.5
5154,C#5,994.5,229/1000,52,133.5
5155,B4,994.75,1.5,47,133.5
5156,C#5,994.75,1.5,47,133.5
5157,A3,995.75,0.25,30,133.5
5158,G#3,996.0,0.25,29,133.5
5159,B-4,996.25,1.5,56,133.5
5160,F#5,996.25,1.5,56,133.5
5161,G3,996.25,0.25,28,133.5
5162,F#3,996.5,0.25,27,133.5
5163,F3,996.75,0.25,26,133.5
5164,E-3,997.0,0.25,25,133.5
5165,C#3,997.25,0.25,27,133.5
5166,G#3,997.5,0.25,28,133.5
5167,B4,997.75,1.5,50,133.5
5168,F#5,997.75,1.0,56,133.5
5169,C#4,997.75,0.25,30,133.5
5170,F4,998.0,0.25,34,133.5
5171,C#4,998.25,0.25,31,133.5
5172,G#3,998.5,0.25,30,133.5
5173,F5,998.75,479/1000,52,133.5
5174,C#3,998.75,0.25,29,133.5
5175,B3,999.0,0.25,28,133.5
5176,F5,999.25,0.5,51,133.5
5177,B4,999.25,1.5,50,133.5
5178,C#4,999.25,0.25,30,133.5
5179,F4,999.5,0.25,31,133.5
5180,E-5,999.75,0.5,50,133.5
5181,C#4,999.75,0.25,30,133.5
5182,B3,1000.0,0.25,29,133.5
5183,C#5,1000.25,0.5,49,133.5
5184,F#3,1000.25,0.25,28,133.5
5185,B3,1000.5,0.25,28,133.5
5186,C#4,1000.75,0.25,31,133.5
5187,B-4,1000.75,1.5,48,133.5
5188,C#5,1000.75,1.5,48,133.5
5189,B-5,1000.75,1.5,48,133.5
5190,F#4,1001.0,0.25,34,133.5
5191,C#4,1001.25,0.25,31,133.5
5192,B3,1001.5,0.25,29,133.5
5193,C#3,1001.75,0.25,29,133.5
5194,B-3,1002.0,0.25,28,133.5
5195,B-5,1002.25,1.0,62,133.5
5196,C#4,1002.25,0.25,30,133.5
5197,G#4,1002.25,1.5,44,133.5
5198,C#5,1002.25,1.5,44,133.5
5199,F#4,1002.5,0.25,33,133.5
5200,C#4,1002.75,0.25,31,133.5
5201,B-3,1003.0,0.25,30,133.5
5202,B-5,1003.25,0.5,64,133.5
5203,G#3,1003.25,0.25,28,133.5
5204,B3,1003.5,0.25,28,133.5
5205,G4,1003.625,0.125,44,133.5
5206,C#5,1003.75,1.5,45,133.5
5207,B-5,1003.75,1.0,68,133.5
5208,C#4,1003.75,0.25,30,133.5
5209,G#4,1004.0,0.25,33,133.5
5210,C#4,1004.25,0.25,31,133.5
5211,B3,1004.5,0.25,29,133.5
5212,E-5,1004.75,0.5,57,133.5
5213,C#3,1004.75,0.25,29,133.5
5214,B3,1005.0,0.25,28,133.5
5215,E-5,1005.25,0.5,57,133.5
5216,C#5,1005.25,1.5,45,133.5
5217,C#4,1005.25,0.25,30,133.5
5218,F4,1005.5,0.25,31,133.5
5219,F5,1005.75,0.125,51,133.5
5220,C#4,1005.75,0.25,30,133.5
5221,G5,1005.875,0.125,51,133.5
5222,F5,1006.0,0.5,56,133.5
5223,B3,1006.0,0.25,29,133.5
5224,F#3,1006.25,0.25,29,133.5
5225,E-5,1006.5,229/1000,56,133.5
5226,B-3,1006.5,0.25,30,133.5
5227,C#4,1006.75,0.25,34,133.5
5228,C#5,1006.75,1.5,54,133.5
5229,E-5,1006.75,1.5,54,133.5
5230,F#4,1007.0,0.25,35,133.5
5231,C#4,1007.25,0.25,34,133.5
5232,B-3,1007.5,0.25,33,133.5
5233,E3,1007.75,0.25,35,133.5
5234,B-3,1008.0,0.25,36,133.5
5235,C5,1008.25,1.5,53,133.5
5236,G#5,1008.25,1.5,64,133.5
5237,C#4,1008.25,0.25,39,133.5
5238,G#4,1008.5,0.25,37,133.5
5239,C#4,1008.75,0.25,34,133.5
5240,B-3,1009.0,0.25,31,133.5
5241,E-3,1009.25,0.25,36,133.5
5242,B-3,1009.5,0.25,38,133.5
5243,C#5,1009.75,1.5,55,133.5
5244,G#5,1009.75,0.5,64,133.5
5245,C#4,1009.75,0.25,41,133.5
5246,G4,1010.0,0.25,45,133.5
5247,G5,1010.25,0.5,60,133.5
5248,C#4,1010.25,0.25,42,133.5
5249,B-3,1010.5,0.25,39,133.5
5250,F5,1010.75,0.5,59,133.5
5251,G3,1010.75,0.25,36,133.5
5252,C#4,1011.0,0.25,38,133.5
5253,G5,1011.25,0.5,60,133.5
5254,C#5,1011.25,1.5,55,133.5
5255,E-4,1011.25,0.25,41,133.5
5256,B-4,1011.5,0.25,46,133.5
5257,F5,1011.75,0.75,59,133.5
5258,E-4,1011.75,0.25,42,133.5
5259,C#4,1012.0,0.25,39,133.5
5260,G#3,1012.25,0.25,37,133.5
5261,E-5,1012.5,0.25,56,133.5
5262,C#4,1012.5,0.25,38,133.5
5263,C5,1012.75,1.5,56,133.5
5264,C6,1012.75,1.5,56,133.5
5265,E-4,1012.75,0.25,42,133.5
5266,G#4,1013.0,0.25,45,133.5
5267,E-4,1013.25,0.25,41,133.5
5268,C#4,1013.5,0.25,38,133.5
5269,E-3,1013.75,0.25,36,133.5
5270,C4,1014.0,0.25,37,133.5
5271,C6,1014.25,1.0,64,133.5
5272,C5,1014.25,1.5,56,133.5
5273,E-4,1014.25,0.25,40,133.5
5274,G#4,1014.5,0.25,44,133.5
5275,E-4,1014.75,0.25,41,133.5
5276,C4,1015.0,0.25,39,133.5
5277,C6,1015.25,479/1000,63,133.5
5278,B-3,1015.25,0.25,36,133.5
5279,C#4,1015.5,0.25,37,133.5
5280,C6,1015.75,1.5,68,133.5
5281,E-4,1015.75,0.25,40,133.5
5282,B-4,1016.0,0.25,42,133.5
5283,E-4,1016.25,0.25,41,133.5
5284,C#4,1016.5,0.25,39,133.5
5285,E-3,1016.75,0.25,37,133.5
5286,C#4,1017.0,0.25,36,133.5
5287,C6,1017.25,0.5,68,133.5
5288,E-4,1017.25,0.25,38,133.5
5289,G4,1017.5,0.25,40,133.5
5290,B-5,1017.75,0.75,63,133.5
5291,E-4,1017.75,0.25,40,133.5
5292,C#4,1018.0,0.25,37,133.5
5293,G#3,1018.25,0.25,50,133.5
5294,G#5,1018.5,229/1000,63,133.5
5295,C4,1018.5,0.25,40,133.5
5296,G#5,1018.75,1.5,63,133.5
5297,E-4,1018.75,0.25,44,133.5
5298,G#4,1019.0,0.25,45,133.5
5299,E-4,1019.25,0.25,44,133.5
5300,C4,1019.5,0.25,42,133.5
5301,G3,1019.75,1.5,39,133.5
5302,G#3,1020.0,0.25,41,133.5
5303,C#6,1020.25,1.5,75,133.5
5304,C4,1020.25,0.25,45,133.5
5305,E-4,1020.5,0.25,49,133.5
5306,C4,1020.75,0.25,47,133.5
5307,G#3,1021.0,0.25,41,133.5
5308,F#3,1021.25,1.5,38,133.5
5309,G#3,1021.5,0.25,36,133.5
5310,C#6,1021.75,1.0,82,133.5
5311,C4,1021.75,0.25,39,133.5
5312,E-4,1022.0,0.25,42,133.5
5313,C4,1022.25,0.25,41,133.5
5314,G#3,1022.5,0.25,38,133.5
5315,C6,1022.75,479/1000,78,133.5
5316,F#3,1022.75,1.5,47,133.5
5317,G#3,1023.0,0.25,41,133.5
5318,C6,1023.25,0.5,75,133.5
5319,C4,1023.25,0.25,41,133.5
5320,E-4,1023.5,0.25,41,133.5
5321,B-5,1023.75,0.75,71,133.5
5322,C4,1023.75,0.25,38,133.5
5323,G#3,1024.0,0.25,35,133.5
5324,F3,1024.25,1.5,34,133.5
5325,G#5,1024.5,0.25,63,133.5
5326,G#3,1024.5,0.25,33,133.5
5327,F6,1024.75,1.5,80,133.5
5328,C#4,1024.75,0.25,36,133.5
5329,F4,1025.0,0.25,39,133.5
5330,C#4,1025.25,0.25,37,133.5
5331,G#3,1025.5,0.25,35,133.5
5332,F3,1025.75,0.25,36,133.5
5333,G#3,1026.0,0.25,38,133.5
5334,F6,1026.25,1.0,77,133.5
5335,C#4,1026.25,0.25,41,133.5
5336,G#4,1026.5,0.25,42,133.5
5337,C#4,1026.75,0.25,40,133.5
5338,G#3,1027.0,0.25,37,133.5
5339,F6,1027.25,479/1000,81,133.5
5340,E-3,1027.25,0.25,35,133.5
5341,G#3,1027.5,0.25,38,133.5
5342,F6,1027.75,1.5,85,133.5
5343,C4,1027.75,0.25,41,133.5
5344,F#4,1028.0,0.25,41,133.5
5345,C4,1028.25,0.25,39,133.5
5346,G#3,1028.5,0.25,36,133.5
5347,E-3,1028.75,0.25,34,133.5
5348,G#3,1029.0,0.25,34,133.5
5349,E-6,1029.25,0.5,72,133.5
5350,C4,1029.25,0.25,37,133.5
5351,F#4,1029.5,0.25,39,133.5
5352,C#6,1029.75,0.5,71,133.5
5353,C4,1029.75,0.25,36,133.5
5354,G#3,1030.0,0.25,31,133.5
5355,B-5,1030.25,0.5,70,133.5
5356,D3,1030.25,0.25,31,133.5
5357,G#3,1030.5,0.25,31,133.5
5358,C6,1030.75,1.5,75,133.5
5359,B3,1030.75,0.25,35,133.5
5360,F4,1031.0,0.25,37,133.5
5361,B3,1031.25,0.25,36,133.5
5362,G#3,1031.5,0.25,34,133.5
5363,D3,1031.75,0.25,34,133.5
5364,G#3,1032.0,0.25,30,133.5
5365,B-5,1032.25,0.5,71,133.5
5366,B-3,1032.25,0.25,35,133.5
5367,F4,1032.5,0.25,37,133.5
5368,G#5,1032.75,0.5,68,133.5
5369,B-3,1032.75,0.25,36,133.5
5370,G#3,1033.0,0.25,34,133.5
5371,F5,1033.25,0.5,63,133.5
5372,E-3,1033.25,0.25,34,133.5
5373,F#3,1033.5,0.25,35,133.5
5374,B-5,1033.75,0.5,69,133.5
5375,B-3,1033.75,0.25,38,133.5
5376,E-4,1034.0,0.25,39,133.5
5377,G#5,1034.25,0.5,64,133.5
5378,B-3,1034.25,0.25,38,133.5
5379,F#3,1034.5,0.25,36,133.5
5380,F#5,1034.75,479/1000,61,133.5
5381,F#2,1034.75,0.25,34,133.5
5382,F#3,1035.0,0.25,31,133.5
5383,F#5,1035.25,0.125,55,133.5
5384,B-3,1035.25,0.25,36,133.5
5385,G#5,1035.375,0.125,55,133.5
5386,F#5,1035.5,0.25,63,133.5
5387,E-4,1035.5,0.25,38,133.5
5388,F5,1035.75,0.75,58,133.5
5389,B-3,1035.75,0.25,36,133.5
5390,F#3,1036.0,0.25,34,133.5
5391,G#2,1036.25,0.25,35,133.5
5392,E5,1036.5,229/1000,59,133.5
5393,F3,1036.5,0.25,36,133.5
5394,E5,1036.75,1.5,59,133.5
5395,G#3,1036.75,0.25,37,133.5
5396,C#4,1037.0,0.25,39,133.5
5397,G#3,1037.25,0.25,37,133.5
5398,F3,1037.5,0.25,35,133.5
5399,G#2,1037.75,0.25,33,133.5
5400,F3,1038.0,0.25,34,133.5
5401,F5,1038.25,1.0,63,133.5
5402,G#3,1038.25,0.25,35,133.5
5403,C#4,1038.5,0.25,38,133.5
5404,G#3,1038.75,0.25,37,133.5
5405,F3,1039.0,0.25,36,133.5
5406,G#5,1039.25,0.5,57,133.5
5407,G#2,1039.25,0.25,39,133.5
5408,F#3,1039.5,0.25,34,133.5
5409,G#4,1039.75,1.0,57,133.5
5410,G#3,1039.75,0.25,36,133.5
5411,G#5,1039.875,1.375,57,133.5
5412,C4,1040.0,0.25,36,133.5
5413,G#3,1040.25,0.25,35,133.5
5414,F#3,1040.5,0.25,34,133.5
5415,C5,1040.75,0.5,63,133.5
5416,G#2,1040.75,0.25,31,133.5
5417,F#3,1041.0,0.25,31,133.5
5418,C6,1041.25,0.5,63,133.5
5419,C5,1041.25,0.5,63,133.5
5420,G#3,1041.25,0.25,35,133.5
5421,C4,1041.5,0.25,37,133.5
5422,G#3,1041.75,0.25,35,133.5
5423,B-4,1041.75,0.75,63,133.5
5424,B-5,1041.75,0.75,63,133.5
5425,F#3,1042.0,0.25,33,133.5
5426,C#3,1042.25,0.25,33,133.5
5427,G#3,1042.5,0.25,33,133.5
5428,G#4,1042.5,229/1000,63,133.5
5429,G#5,1042.5,229/1000,63,133.5
5430,G#4,1042.75,1.5,63,133.5
5431,G#5,1042.75,1.5,63,133.5
5432,C#4,1042.75,0.25,36,133.5
5433,F4,1043.0,0.25,37,133.5
5434,C#4,1043.25,0.25,36,133.5
5435,B-3,1043.5,0.25,35,133.5
5436,G#3,1043.75,0.5,36,133.5
5437,C#4,1044.0,0.25,36,133.5
5438,G#5,1044.25,1.5,63,133.5
5439,F4,1044.25,0.25,39,133.5
5440,C#5,1044.25,1.5,75,133.5
5441,C#6,1044.25,1.5,75,133.5
5442,G#4,1044.5,0.25,40,133.5
5443,F4,1044.75,0.25,39,133.5
5444,C#4,1045.0,0.25,38,133.5
5445,F#3,1045.25,1.5,38,133.5
5446,G#3,1045.5,0.25,42,133.5
5447,C4,1045.75,0.25,42,133.5
5448,F#5,1045.75,1.0,60,133.5
5449,G#5,1045.75,1.0,60,133.5
5450,C#5,1045.75,0.75,75,133.5
5451,C#6,1045.75,0.75,75,133.5
5452,E-4,1046.0,0.25,42,133.5
5453,C4,1046.25,0.25,42,133.5
5454,G#3,1046.5,0.25,42,133.5
5455,E-5,1046.5,0.25,71,133.5
5456,C6,1046.5,0.25,71,133.5
5457,F#3,1046.75,1.5,41,133.5
5458,G#5,1046.75,0.5,69,133.5
5459,F#5,1046.75,0.5,69,133.5
5460,C5,1046.75,0.5,69,133.5
5461,C6,1046.75,0.5,69,133.5
5462,G#3,1047.0,0.25,45,133.5
5463,C4,1047.25,0.25,45,133.5
5464,G#5,1047.25,0.75,68,133.5
5465,F#5,1047.25,0.75,68,133.5
5466,C5,1047.25,0.75,68,133.5
5467,C6,1047.25,0.75,68,133.5
5468,E-4,1047.5,0.25,45,133.5
5469,C4,1047.75,0.25,41,133.5
5470,G#3,1048.0,0.25,38,133.5
5471,B-4,1048.0,0.25,71,133.5
5472,B-5,1048.0,0.25,71,133.5
5473,F3,1048.25,1.5,37,133.5
5474,F#5,1048.25,0.5,62,133.5
5475,G#4,1048.25,0.5,62,133.5
5476,G#5,1048.25,0.5,62,133.5
5477,G#3,1048.5,0.25,36,133.5
5478,C#4,1048.75,0.25,39,133.5
5479,G#5,1048.75,1.5,76,133.5
5480,F5,1048.75,1.5,76,133.5
5481,F6,1048.75,1.5,76,133.5
5482,F4,1049.0,0.25,42,133.5
5483,C#4,1049.25,0.25,40,133.5
5484,G#3,1049.5,0.25,38,133.5
5485,F3,1049.75,0.25,39,133.5
5486,G#3,1050.0,0.25,41,133.5
5487,C#4,1050.25,0.25,45,133.5
5488,F5,1050.25,1.0,73,133.5
5489,G#5,1050.25,1.0,73,133.5
5490,F6,1050.25,1.0,73,133.5
5491,G#4,1050.5,0.25,46,133.5
5492,C#4,1050.75,0.25,44,133.5
5493,G#3,1051.0,0.25,40,133.5
5494,E-3,1051.25,0.25,39,133.5
5495,F5,1051.25,0.5,74,133.5
5496,G#5,1051.25,0.5,74,133.5
5497,F6,1051.25,0.5,74,133.5
5498,G#3,1051.5,0.25,41,133.5
5499,C4,1051.75,0.25,45,133.5
5500,F5,1051.75,1.5,78,133.5
5501,G#5,1051.75,1.5,78,133.5
5502,F6,1051.75,1.5,78,133.5
5503,F#4,1052.0,0.25,45,133.5
5504,C4,1052.25,0.25,42,133.5
5505,G#3,1052.5,0.25,39,133.5
5506,E-3,1052.75,0.25,38,133.5
5507,G#3,1053.0,0.25,37,133.5
5508,C4,1053.25,0.25,40,133.5
5509,F#5,1053.25,0.5,63,133.5
5510,E-5,1053.25,0.5,63,133.5
5511,E-6,1053.25,0.5,63,133.5
5512,F#4,1053.5,0.25,42,133.5
5513,C4,1053.75,0.25,39,133.5
5514,C#5,1053.75,0.75,62,133.5
5515,F#5,1053.75,0.75,62,133.5
5516,C#6,1053.75,0.75,62,133.5
5517,G#3,1054.0,0.25,34,133.5
5518,D3,1054.25,0.25,35,133.5
5519,G#3,1054.5,0.25,37,133.5
5520,B-4,1054.5,0.25,61,133.5
5521,F#5,1054.5,0.25,61,133.5
5522,B-5,1054.5,0.25,61,133.5
5523,B3,1054.75,0.25,41,133.5
5524,C5,1054.75,1.5,59,133.5
5525,G#5,1054.75,1.5,59,133.5
5526,C6,1054.75,1.5,59,133.5
5527,F4,1055.0,0.25,44,133.5
5528,B3,1055.25,0.25,42,133.5
5529,G#3,1055.5,0.25,40,133.5
5530,D3,1055.75,0.25,35,133.5
5531,G#3,1056.0,0.25,36,133.5
5532,B-3,1056.25,0.25,41,133.5
5533,B-4,1056.25,0.5,61,133.5
5534,F#5,1056.25,0.5,61,133.5
5535,B-5,1056.25,0.5,61,133.5
5536,F4,1056.5,0.25,44,133.5
5537,B-3,1056.75,0.25,42,133.5
5538,G#4,1056.75,0.5,64,133.5
5539,F5,1056.75,0.5,64,133.5
5540,G#5,1056.75,0.5,64,133.5
5541,G#3,1057.0,0.25,40,133.5
5542,E-3,1057.25,0.25,37,133.5
5543,B-4,1057.25,0.5,68,133.5
5544,F5,1057.25,0.5,68,133.5
5545,B-5,1057.25,0.5,68,133.5
5546,F#3,1057.5,0.25,38,133.5
5547,B-3,1057.75,0.25,41,133.5
5548,F5,1057.75,1.0,73,133.5
5549,B4,1057.75,1.0,73,133.5
5550,B5,1057.75,1.0,73,133.5
5551,E-4,1058.0,0.25,42,133.5
5552,B-3,1058.25,0.25,41,133.5
5553,F#3,1058.5,0.25,39,133.5
5554,F#2,1058.75,0.25,37,133.5
5555,F5,1058.75,0.5,71,133.5
5556,B-4,1058.75,0.5,71,133.5
5557,B-5,1058.75,0.5,71,133.5
5558,F#3,1059.0,0.25,34,133.5
5559,B-3,1059.25,0.25,39,133.5
5560,B4,1059.25,1.5,74,133.5
5561,F5,1059.25,1.5,74,133.5
5562,B5,1059.25,1.5,74,133.5
5563,E-4,1059.5,0.25,41,133.5
5564,B-3,1059.75,0.25,39,133.5
5565,F#3,1060.0,0.25,37,133.5
5566,G#2,1060.25,0.25,37,133.5
5567,F3,1060.5,0.25,39,133.5
5568,G#3,1060.75,0.25,40,133.5
5569,C#4,1061.0,0.25,42,133.5
5570,G#3,1061.25,0.25,40,133.5
5571,F3,1061.5,0.25,38,133.5
5572,G#2,1061.75,0.25,35,133.5
5573,B4,1061.75,1.0,74,133.5
5574,F5,1061.75,1.0,74,133.5
5575,B5,1061.75,1.0,74,133.5
5576,F3,1062.0,0.25,35,133.5
5577,G#3,1062.25,0.25,37,133.5
5578,C#4,1062.5,0.25,39,133.5
5579,G#3,1062.75,0.25,37,133.5
5580,B-4,1062.75,0.5,72,133.5
5581,F5,1062.75,0.5,72,133.5
5582,B-5,1062.75,0.5,72,133.5
5583,F3,1063.0,0.25,35,133.5
5584,G#2,1063.25,0.25,38,133.5
5585,B4,1063.25,0.5,77,133.5
5586,F5,1063.25,0.5,77,133.5
5587,B5,1063.25,0.5,77,133.5
5588,F3,1063.5,0.25,37,133.5
5589,G#3,1063.75,0.25,39,133.5
5590,B-4,1063.75,0.5,74,133.5
5591,F5,1063.75,0.5,74,133.5
5592,B-5,1063.75,0.5,74,133.5
5593,D4,1064.0,0.25,41,133.5
5594,G#3,1064.25,0.25,39,133.5
5595,B4,1064.25,0.5,74,133.5
5596,F5,1064.25,0.5,74,133.5
5597,B5,1064.25,0.5,74,133.5
5598,F3,1064.5,0.25,36,133.5
5599,G#2,1064.75,0.25,40,133.5
5600,B4,1064.75,1.0,77,133.5
5601,F#5,1064.75,1.0,77,133.5
5602,B5,1064.75,1.0,77,133.5
5603,F3,1065.0,0.25,39,133.5
5604,G#3,1065.25,0.25,43,133.5
5605,D4,1065.5,0.25,48,133.5
5606,G#3,1065.75,0.25,45,133.5
5607,B-4,1065.75,0.5,78,133.5
5608,F#5,1065.75,0.5,78,133.5
5609,B-5,1065.75,0.5,78,133.5
5610,F3,1066.0,0.25,41,133.5
5611,G#2,1066.25,0.25,40,133.5
5612,C#5,1066.25,1.5,83,133.5
5613,G5,1066.25,1.5,83,133.5
5614,C#6,1066.25,1.5,83,133.5
5615,F3,1066.5,0.25,40,133.5
5616,G#3,1066.75,0.25,43,133.5
5617,D4,1067.0,0.25,45,133.5
5618,G#3,1067.25,0.25,42,133.5
5619,F3,1067.5,0.25,36,133.5
5620,G#2,1067.75,0.25,52,133.5
5621,F3,1068.0,0.25,40,133.5
5622,G#3,1068.25,0.25,43,133.5
5623,D4,1068.5,0.25,47,133.5
5624,G#3,1068.75,0.25,44,133.5
5625,C#5,1068.75,1.0,83,133.5
5626,G5,1068.75,1.0,83,133.5
5627,C#6,1068.75,1.0,83,133.5
5628,F3,1069.0,0.25,40,133.5
5629,G#2,1069.25,0.25,54,133.5
5630,E-3,1069.5,0.25,43,133.5
5631,F#3,1069.75,0.25,47,133.5
5632,C5,1069.75,0.5,78,133.5
5633,G5,1069.75,0.5,78,133.5
5634,C6,1069.75,0.5,78,133.5
5635,E-4,1070.0,0.25,50,133.5
5636,F#3,1070.25,0.25,46,133.5
5637,C#5,1070.25,0.5,82,133.5
5638,G5,1070.25,0.5,82,133.5
5639,C#6,1070.25,0.5,82,133.5
5640,E-3,1070.5,0.25,43,133.5
5641,G#2,1070.75,0.25,56,133.5
5642,C5,1070.75,0.5,77,133.5
5643,G5,1070.75,0.5,77,133.5
5644,C6,1070.75,0.5,77,133.5
5645,E3,1071.0,0.25,47,133.5
5646,G3,1071.25,0.25,49,133.5
5647,C#5,1071.25,0.5,81,133.5
5648,G5,1071.25,0.5,81,133.5
5649,C#6,1071.25,0.5,81,133.5
5650,E4,1071.5,0.25,51,133.5
5651,G3,1071.75,0.25,49,133.5
5652,C#5,1071.75,1.0,83,133.5
5653,G#5,1071.75,1.0,83,133.5
5654,C#6,1071.75,1.0,83,133.5
5655,E3,1072.0,0.25,47,133.5
5656,G#2,1072.25,0.25,57,133.5
5657,E3,1072.5,0.25,48,133.5
5658,G3,1072.75,0.25,51,133.5
5659,C5,1072.75,0.5,86,133.5
5660,G#5,1072.75,0.5,86,133.5
5661,C6,1072.75,0.5,86,133.5
5662,E4,1073.0,0.25,53,133.5
5663,G3,1073.25,0.25,51,133.5
5664,A5,1073.25,1.0,85,133.5
5665,E-5,1073.25,1.0,85,133.5
5666,E-6,1073.25,1.0,85,133.5
5667,E3,1073.5,0.25,49,133.5
5668,G#2,1073.75,0.25,61,133.5
5669,E3,1074.0,0.25,51,133.5
5670,G3,1074.25,0.25,54,133.5
5671,E-6,1074.25,0.5,83,133.5
5672,A5,1074.25,0.5,83,133.5
5673,E-5,1074.25,0.5,83,133.5
5674,E4,1074.5,0.25,56,133.5
5675,G3,1074.75,0.25,54,133.5
5676,E-6,1074.75,1.0,87,133.5
5677,G#5,1074.75,1.0,87,133.5
5678,E-5,1074.75,1.0,87,133.5
5679,E3,1075.0,0.25,51,133.5
5680,G#2,1075.25,0.25,64,133.5
5681,F3,1075.5,0.25,54,133.5
5682,G#3,1075.75,0.25,56,133.5
5683,D6,1075.75,0.5,83,133.5
5684,G#5,1075.75,0.5,83,133.5
5685,D5,1075.75,0.5,83,133.5
5686,F4,1076.0,0.25,59,133.5
5687,G#3,1076.25,0.25,55,133.5
5688,F6,1076.25,1.0,94,133.5
5689,B5,1076.25,1.0,94,133.5
5690,F5,1076.25,1.0,94,133.5
5691,F3,1076.5,0.25,52,133.5
5692,G#2,1076.75,0.25,67,133.5
5693,E-3,1077.0,0.25,55,133.5
5694,F#3,1077.25,0.25,57,133.5
5695,F6,1077.25,0.5,90,133.5
5696,B5,1077.25,0.5,90,133.5
5697,F5,1077.25,0.5,90,133.5
5698,C4,1077.5,0.25,60,133.5
5699,F#3,1077.75,0.25,58,133.5
5700,F6,1077.75,1.0,91,133.5
5701,B-5,1077.75,1.0,91,133.5
5702,F5,1077.75,1.0,91,133.5
5703,E-3,1078.0,0.25,55,133.5
5704,G#2,1078.25,0.25,68,133.5
5705,B2,1078.5,0.25,57,133.5
5706,F3,1078.75,0.25,59,133.5
5707,E6,1078.75,0.5,91,133.5
5708,B-5,1078.75,0.5,91,133.5
5709,E5,1078.75,0.5,91,133.5
5710,B3,1079.0,0.25,60,133.5
5711,F3,1079.25,0.25,59,133.5
5712,G6,1079.25,1.0,96,133.5
5713,C#6,1079.25,1.0,96,133.5
5714,G5,1079.25,1.0,96,133.5
5715,B2,1079.5,0.25,57,133.5
5716,G#2,1079.75,0.25,68,133.5
5717,F3,1080.0,0.25,56,133.5
5718,G#3,1080.25,0.25,60,133.5
5719,G6,1080.25,0.5,93,133.5
5720,C#6,1080.25,0.5,93,133.5
5721,G5,1080.25,0.5,93,133.5
5722,D4,1080.5,0.25,62,133.5
5723,G#3,1080.75,0.25,60,133.5
5724,G6,1080.75,1.0,93,133.5
5725,C6,1080.75,1.0,93,133.5
5726,G5,1080.75,1.0,93,133.5
5727,F3,1081.0,0.25,57,133.5
5728,G#2,1081.25,0.25,70,133.5
5729,C#3,1081.5,0.25,59,133.5
5730,G3,1081.75,0.25,62,133.5
5731,G#6,1081.75,0.5,89,133.5
5732,C6,1081.75,0.5,89,133.5
5733,G#5,1081.75,0.5,89,133.5
5734,C#4,1082.0,0.25,65,133.5
5735,G3,1082.25,0.25,62,133.5
5736,A6,1082.25,1.0,104,133.5
5737,C6,1082.25,1.0,104,133.5
5738,A5,1082.25,1.0,104,133.5
5739,C#3,1082.5,0.25,59,133.5
5740,G#2,1082.75,0.25,72,133.5
5741,E3,1083.0,0.25,59,133.5
5742,B-3,1083.25,0.25,64,133.5
5743,C6,1083.25,0.5,89,133.5
5744,F#5,1083.25,0.5,89,133.5
5745,C5,1083.25,0.5,89,133.5
5746,E4,1083.5,0.25,66,133.5
5747,B-3,1083.75,0.25,62,133.5
5748,C#6,1083.75,0.375,103,133.5
5749,F5,1083.75,0.375,103,133.5
5750,C#5,1083.75,0.375,103,133.5
5751,E3,1084.0,0.25,59,133.5
5752,G#2,1084.25,0.25,72,133.5
5753,E-3,1084.5,0.25,58,133.5
5754,F#3,1084.75,0.25,63,133.5
5755,E-4,1085.0,0.25,68,133.5
5756,F4,1085.25,0.25,97,133.5
5757,F#3,1085.25,0.25,65,133.5
5758,C#5,1085.5,0.25,75,133.5
5759,E-3,1085.5,0.25,62,133.5
5760,G#5,1085.75,0.25,79,133.5
5761,G#2,1085.75,0.25,72,133.5
5762,F5,1086.0,0.25,83,133.5
5763,E-3,1086.0,0.25,60,133.5
5764,C#6,1086.25,0.25,87,133.5
5765,F#3,1086.25,0.25,64,133.5
5766,B-6,1086.5,0.25,91,133.5
5767,C4,1086.5,0.25,69,133.5
5768,F#3,1086.75,0.25,65,133.5
5769,C6,1086.75,0.5,96,133.5
5770,G#6,1086.75,0.5,96,133.5
5771,E-3,1087.0,0.25,63,133.5
5772,C#2,1087.25,0.375,78,133.5
5773,F#4,1088.25,0.25,97,133.5
5774,G#2,1088.258,0.25,68,133.5
5775,C5,1088.5,0.25,75,133.5
5776,E-3,1088.5,0.25,68,133.5
5777,G#5,1088.75,0.25,80,133.5
5778,C#4,1088.75,0.5,83,133.5
5779,F#5,1089.0,0.25,84,133.5
5780,C6,1089.25,0.25,88,133.5
5781,G#6,1089.5,0.25,93,133.5
5782,C#6,1089.75,0.5,97,133.5
5783,F6,1089.75,0.5,97,133.5
5784,G#1,1090.25,0.25,87,133.5
5785,F4,1091.25,0.25,97,133.5
5786,G#2,1091.25,0.25,68,133.5
5787,C#5,1091.5,0.25,75,133.5
5788,E-3,1091.5,0.25,74,133.5
5789,G#5,1091.75,0.25,79,133.5
5790,C4,1091.75,0.5,84,133.5
5791,F5,1092.0,0.25,83,133.5
5792,C#6,1092.25,0.25,87,133.5
5793,B-6,1092.5,0.25,91,133.5
5794,C6,1092.75,0.5,96,133.5
5795,G#6,1092.75,0.5,96,133.5
5796,C#2,1093.25,0.25,87,133.5
5797,F#4,1094.25,0.25,97,133.5
5798,G#2,1094.25,0.25,70,133.5
5799,C5,1094.5,0.25,75,133.5
5800,F3,1094.5,0.25,75,133.5
5801,G#5,1094.75,0.25,80,133.5
5802,C#4,1094.75,0.5,83,133.5
5803,F#5,1095.0,0.25,84,133.5
5804,C6,1095.25,0.25,88,133.5
5805,G#6,1095.5,0.125,93,133.5
5806,C#6,1095.625,0.125,100,133.5
5807,C#7,1095.75,0.5,113,133.5
5808,B6,1096.25,0.25,111,133.5
5809,G#1,1096.25,0.25,87,133.5
5810,A6,1096.5,0.25,103,133.5
5811,E6,1096.75,0.25,107,133.5
5812,C#6,1097.0,0.25,98,133.5
5813,B5,1097.25,0.25,102,133.5
5814,G#2,1097.25,0.25,68,133.5
5815,A5,1097.5,0.25,94,133.5
5816,E-3,1097.5,0.25,74,133.5
5817,E5,1097.75,0.25,98,133.5
5818,C4,1097.75,0.5,84,133.5
5819,C#5,1098.0,0.25,91,133.5
5820,B4,1098.25,0.25,94,133.5
5821,A4,1098.5,0.25,85,133.5
5822,E4,1098.75,0.25,90,133.5
5823,C#4,1099.0,0.25,82,133.5
5824,B3,1099.25,0.25,85,133.5
5825,A1,1099.25,0.25,97,133.5
5826,A2,1099.25,0.25,97,133.5
5827,A3,1099.5,0.25,77,133.5
5828,E3,1099.75,0.5,81,133.5
5829,E-2,1099.75,0.5,82,133.5
5830,E-3,1099.75,0.5,82,133.5
5831,F3,1100.25,1.0,93,133.5
5832,F4,1100.25,1.0,93,133.5
5833,E2,1100.25,0.5,90,133.5
5834,E3,1100.25,0.5,90,133.5
5835,E2,1100.75,1.5,90,133.5
5836,E3,1100.75,1.5,90,133.5
5837,E3,1101.25,0.375,87,133.5
5838,E4,1101.25,0.375,87,133.5
5839,C#6,1101.625,0.125,100,133.5
5840,C#7,1101.75,0.5,113,133.5
5841,B6,1102.25,0.25,111,133.5
5842,A6,1102.5,0.25,103,133.5
5843,E6,1102.75,0.25,107,133.5
5844,E-2,1102.75,0.5,77,133.5
5845,C#6,1103.0,0.25,98,133.5
5846,B5,1103.25,0.25,102,133.5
5847,E2,1103.25,0.5,77,133.5
5848,A5,1103.5,0.25,96,133.5
5849,E5,1103.75,0.25,98,133.5
5850,A1,1103.75,1.0,81,133.5
5851,F2,1103.75,1.0,81,133.5
5852,C#5,1104.0,0.25,91,133.5
5853,B4,1104.25,0.25,94,133.5
5854,A4,1104.5,0.25,87,133.5
5855,E4,1104.75,0.25,90,133.5
5856,E2,1104.75,0.5,75,133.5
5857,A1,1104.75,0.5,75,133.5
5858,C#4,1105.0,0.25,82,133.5
5859,B3,1105.25,0.25,85,133.5
5860,A1,1105.25,0.25,97,133.5
5861,A2,1105.25,0.25,97,133.5
5862,A3,1105.5,0.25,78,133.5
5863,E3,1105.75,0.5,81,133.5
5864,E-2,1105.75,0.5,82,133.5
5865,E-3,1105.75,0.5,82,133.5
5866,F3,1106.25,1.0,93,133.5
5867,F4,1106.25,1.0,93,133.5
5868,E2,1106.25,0.5,90,133.5
5869,E3,1106.25,0.5,90,133.5
5870,E2,1106.75,1.5,90,133.5
5871,E3,1106.75,1.5,90,133.5
5872,E3,1107.25,0.5,87,133.5
5873,E4,1107.25,0.5,87,133.5
5874,F3,1107.75,0.375,87,133.5
5875,F4,1107.75,0.375,87,133.5
5876,F3,1108.25,0.25,43,133.5
5877,A3,1108.5,0.25,45,133.5
5878,C#4,1108.75,0.25,46,133.5
5879,E-2,1108.75,0.5,77,133.5
5880,F4,1109.0,0.25,48,133.5
5881,E2,1109.25,0.5,77,133.5
5882,C#5,1109.25,0.5,54,133.5
5883,F5,1109.25,0.5,54,133.5
5884,F3,1109.75,0.25,43,133.5
5885,A1,1109.75,1.0,81,133.5
5886,F2,1109.75,1.0,81,133.5
5887,A3,1110.0,0.25,44,133.5
5888,C#4,1110.25,0.25,45,133.5
5889,F4,1110.5,0.25,46,133.5
5890,C#5,1110.75,0.5,54,133.5
5891,F5,1110.75,0.5,54,133.5
5892,E2,1110.75,0.5,75,133.5
5893,A1,1110.75,0.5,75,133.5
5894,F3,1111.25,0.25,46,133.5
5895,A1,1111.25,0.375,87,133.5
5896,F2,1111.25,0.375,87,133.5
5897,B-3,1111.5,0.25,46,133.5
5898,C#4,1111.75,0.25,47,133.5
5899,F4,1112.0,0.25,47,133.5
5900,C#5,1112.25,0.5,54,133.5
5901,F5,1112.25,0.5,54,133.5
5902,A1,1112.25,0.5,38,133.5
5903,A2,1112.25,0.5,38,133.5
5904,F3,1112.75,0.25,45,133.5
5905,F2,1112.75,0.5,42,133.5
5906,F3,1112.75,0.5,42,133.5
5907,B-3,1113.0,0.25,46,133.5
5908,D4,1113.25,0.25,47,133.5
5909,F4,1113.5,0.25,49,133.5
5910,D5,1113.75,0.5,55,133.5
5911,F5,1113.75,0.5,55,133.5
5912,A1,1113.75,0.5,39,133.5
5913,A2,1113.75,0.5,39,133.5
5914,F#3,1114.25,0.25,46,133.5
5915,F2,1114.25,0.5,43,133.5
5916,F3,1114.25,0.5,43,133.5
5917,B-3,1114.5,0.25,47,133.5
5918,D4,1114.75,0.25,48,133.5
5919,F#4,1115.0,0.25,49,133.5
5920,D5,1115.25,0.5,57,133.5
5921,F#5,1115.25,0.5,57,133.5
5922,B-1,1115.25,0.5,39,133.5
5923,B-2,1115.25,0.5,39,133.5
5924,F#3,1115.75,0.25,47,133.5
5925,F2,1115.75,0.5,43,133.5
5926,F3,1115.75,0.5,43,133.5
5927,B-3,1116.0,0.25,48,133.5
5928,E-4,1116.25,0.25,49,133.5
5929,F#4,1116.5,0.25,51,133.5
5930,E-5,1116.75,0.5,57,133.5
5931,F#5,1116.75,0.5,57,133.5
5932,B-1,1116.75,0.5,40,133.5
5933,B-2,1116.75,0.5,40,133.5
5934,G3,1117.25,0.25,47,133.5
5935,F2,1117.25,0.5,44,133.5
5936,F3,1117.25,0.5,44,133.5
5937,C#4,1117.5,0.25,48,133.5
5938,E4,1117.75,0.25,50,133.5
5939,G4,1118.0,0.25,51,133.5
5940,E5,1118.25,0.5,60,133.5
5941,G5,1118.25,0.5,60,133.5
5942,B-1,1118.25,0.5,42,133.5
5943,B-2,1118.25,0.5,42,133.5
5944,G#4,1118.75,0.25,56,133.5
5945,F#2,1118.75,0.5,48,133.5
5946,F#3,1118.75,0.5,48,133.5
5947,C#5,1119.0,0.25,60,133.5
5948,F5,1119.25,0.25,63,133.5
5949,G#5,1119.5,0.25,67,133.5
5950,G#5,1119.75,0.5,67,133.5
5951,G#6,1119.75,0.5,77,133.5
5952,F6,1119.75,0.5,77,133.5
5953,C#6,1119.75,0.5,77,133.5
5954,B-1,1119.75,0.5,44,133.5
5955,B-2,1119.75,0.5,44,133.5
5956,F#2,1120.25,0.5,48,133.5
5957,F#3,1120.25,0.5,48,133.5
5958,C4,1120.75,167/1000,63,133.5
5959,C#4,1120.917,167/1000,64,133.5
5960,F4,1121.083,167/1000,66,133.5
5961,G#4,1121.25,0.5,68,133.5
5962,A1,1121.25,0.5,46,133.5
5963,A2,1121.25,0.5,46,133.5
5964,A2,1121.75,0.5,51,133.5
5965,A3,1121.75,0.5,51,133.5
5966,B3,1122.25,167/1000,62,133.5
5967,C4,1122.417,167/1000,63,133.5
5968,F4,1122.583,167/1000,65,133.5
5969,G#4,1122.75,0.5,67,133.5
5970,G#1,1122.75,0.5,54,133.5
5971,G#2,1122.75,0.5,54,133.5
5972,F4,1123.25,0.5,65,133.5
5973,C#4,1123.25,0.5,65,133.5
5974,G#3,1123.25,0.5,65,133.5
5975,F3,1123.25,0.5,65,133.5
5976,A3,1123.75,167/1000,62,133.5
5977,B-3,1123.917,167/1000,64,133.5
5978,F4,1124.083,167/1000,66,133.5
5979,G#4,1124.25,0.5,68,133.5
5980,C3,1124.25,167/1000,58,133.5
5981,C#3,1124.417,167/1000,60,133.5
5982,F3,1124.583,167/1000,61,133.5
5983,G#3,1124.75,0.5,63,133.5
5984,G#3,1125.75,0.5,86,133.5
5985,B2,1125.75,167/1000,58,133.5
5986,C3,1125.917,167/1000,60,133.5
5987,F3,1126.083,167/1000,62,133.5
5988,G#3,1126.25,0.5,64,133.5
5989,A2,1127.25,167/1000,57,133.5
5990,G#6,1127.25,1.5,90,133.5
5991,F6,1127.25,1.5,90,133.5
5992,G#5,1127.25,1.5,90,133.5
5993,B-2,1127.417,167/1000,58,133.5
5994,F3,1127.583,167/1000,61,133.5
5995,G#3,1127.75,0.5,63,133.5
5996,G#6,1129.25,0.5,90,133.5
5997,F6,1129.25,0.5,90,133.5
5998,G#5,1129.25,0.5,90,133.5
5999,G#1,1129.25,0.5,81,133.5
6000,G#2,1129.25,0.5,81,133.5
6001,G#5,1129.75,0.5,77,133.5
6002,E-6,1129.75,0.5,77,133.5
6003,G#6,1129.75,0.5,77,133.5
6004,G#5,1130.25,0.5,77,133.5
6005,F6,1130.25,0.5,77,133.5
6006,G#6,1130.25,0.5,77,133.5
6007,G#5,1130.75,0.5,75,133.5
6008,E-6,1130.75,0.5,75,133.5
6009,G#6,1130.75,0.5,75,133.5
6010,F#4,1130.75,1.5,85,133.5
6011,C5,1130.75,1.5,85,133.5
6012,F5,1130.75,1.5,85,133.5
6013,G#5,1131.25,0.5,80,133.5
6014,F6,1131.25,0.5,80,133.5
6015,G#6,1131.25,0.5,80,133.5
6016,G#5,1131.75,0.5,79,133.5
6017,G#6,1131.75,0.5,79,133.5
6018,E-6,1131.75,0.5,79,133.5
6019,G#6,1132.25,0.375,90,133.5
6020,F6,1132.25,0.375,90,133.5
6021,C#6,1132.25,0.375,90,133.5
6022,G#5,1132.25,0.375,90,133.5
6023,F#4,1132.75,0.5,85,133.5
6024,C5,1132.75,0.5,85,133.5
6025,F5,1132.75,0.5,85,133.5
6026,C4,1133.25,167/1000,63,133.5
6027,F#4,1133.25,0.5,65,133.5
6028,C5,1133.25,0.5,65,133.5
6029,E-5,1133.25,0.5,65,133.5
6030,C#4,1133.417,167/1000,64,133.5
6031,F4,1133.583,167/1000,66,133.5
6032,G#4,1133.75,0.5,68,133.5
6033,F#4,1133.75,0.5,65,133.5
6034,C5,1133.75,0.5,65,133.5
6035,F5,1133.75,0.5,65,133.5
6036,F#4,1134.25,0.5,63,133.5
6037,C5,1134.25,0.5,63,133.5
6038,E-5,1134.25,0.5,63,133.5
6039,B3,1134.75,167/1000,62,133.5
6040,F#4,1134.75,0.5,67,133.5
6041,C5,1134.75,0.5,67,133.5
6042,F5,1134.75,0.5,67,133.5
6043,C4,1134.917,167/1000,63,133.5
6044,F4,1135.083,167/1000,65,133.5
6045,G#4,1135.25,0.5,67,133.5
6046,E-5,1135.25,0.5,66,133.5
6047,C5,1135.25,0.5,66,133.5
6048,F#4,1135.25,0.5,66,133.5
6049,F4,1135.75,0.375,76,133.5
6050,G#4,1135.75,0.375,76,133.5
6051,C#5,1135.75,0.375,76,133.5
6052,F5,1135.75,0.375,76,133.5
6053,A3,1136.25,167/1000,62,133.5
6054,B-3,1136.417,167/1000,64,133.5
6055,F4,1136.583,167/1000,66,133.5
6056,G#4,1136.75,0.5,68,133.5
6057,C3,1136.75,167/1000,58,133.5
6058,C#3,1136.917,167/1000,60,133.5
6059,F3,1137.083,167/1000,61,133.5
6060,G#3,1137.25,0.5,63,133.5
6061,G#3,1138.25,0.5,86,133.5
6062,B2,1138.25,167/1000,58,133.5
6063,C3,1138.417,167/1000,60,133.5
6064,F3,1138.583,167/1000,62,133.5
6065,G#3,1138.75,0.5,64,133.5
6066,A2,1139.75,167/1000,57,133.5
6067,G#6,1139.75,1.5,90,133.5
6068,F6,1139.75,1.5,90,133.5
6069,G#5,1139.75,1.5,90,133.5
6070,B-2,1139.917,167/1000,58,133.5
6071,F3,1140.083,167/1000,61,133.5
6072,G#3,1140.25,0.5,63,133.5
6073,G#6,1141.75,0.5,90,133.5
6074,F6,1141.75,0.5,90,133.5
6075,G#5,1141.75,0.5,90,133.5
6076,G#1,1141.75,0.5,81,133.5
6077,G#2,1141.75,0.5,81,133.5
6078,G#5,1142.25,0.5,74,133.5
6079,E-6,1142.25,0.5,74,133.5
6080,G#6,1142.25,0.5,74,133.5
6081,G#5,1142.75,0.5,71,133.5
6082,F6,1142.75,0.5,71,133.5
6083,G#6,1142.75,0.5,71,133.5
6084,G#5,1143.25,0.5,68,133.5
6085,E-6,1143.25,0.5,68,133.5
6086,G#6,1143.25,0.5,68,133.5
6087,F#4,1143.25,1.5,85,133.5
6088,C5,1143.25,1.5,85,133.5
6089,F5,1143.25,1.5,85,133.5
6090,G#5,1143.75,0.5,66,133.5
6091,F6,1143.75,0.5,66,133.5
6092,G#6,1143.75,0.5,66,133.5
6093,G#5,1144.25,0.5,63,133.5
6094,G#6,1144.25,0.5,63,133.5
6095,E-6,1144.25,0.5,63,133.5
6096,F6,1144.75,1.0,59,133.5
6097,G#6,1144.75,1.5,59,133.5
6098,G#5,1144.75,1.5,59,133.5
6099,F#4,1145.25,0.5,85,133.5
6100,C5,1145.25,0.5,85,133.5
6101,F5,1145.25,0.5,85,133.5
6102,E-6,1145.75,0.5,59,133.5
6103,F#4,1145.75,0.5,70,133.5
6104,C5,1145.75,0.5,70,133.5
6105,E-5,1145.75,0.5,70,133.5
6106,F6,1146.25,1.0,58,133.5
6107,A6,1146.25,1.5,58,133.5
6108,A5,1146.25,1.5,58,133.5
6109,F#4,1146.25,0.5,68,133.5
6110,C5,1146.25,0.5,68,133.5
6111,F5,1146.25,0.5,68,133.5
6112,F#4,1146.75,0.5,66,133.5
6113,C5,1146.75,0.5,66,133.5
6114,E-5,1146.75,0.5,66,133.5
6115,E-6,1147.25,0.5,58,133.5
6116,F#4,1147.25,0.5,64,133.5
6117,C5,1147.25,0.5,64,133.5
6118,F5,1147.25,0.5,64,133.5
6119,F6,1147.75,1.0,60,133.5
6120,A5,1147.75,1.5,60,133.5
6121,A6,1147.75,1.5,60,133.5
6122,E-5,1147.75,0.5,61,133.5
6123,C5,1147.75,0.5,61,133.5
6124,F#4,1147.75,0.5,61,133.5
6125,F5,1148.25,1.0,59,133.5
6126,F#4,1148.25,1.5,59,133.5
6127,C5,1148.25,1.5,59,133.5
6128,E-6,1148.75,0.5,58,133.5
6129,F#6,1149.25,1.0,62,133.5
6130,E-5,1149.25,0.5,56,133.5
6131,B-5,1149.25,1.5,62,133.5
6132,B-6,1149.25,1.5,62,133.5
6133,F5,1149.75,1.0,55,133.5
6134,F#4,1149.75,1.5,55,133.5
6135,C5,1149.75,1.5,55,133.5
6136,E6,1150.25,0.5,63,133.5
6137,F#6,1150.75,1.0,64,133.5
6138,E-5,1150.75,0.5,58,133.5
6139,B-5,1150.75,1.5,64,133.5
6140,B-6,1150.75,1.5,64,133.5
6141,F5,1151.25,1.0,60,133.5
6142,F#4,1151.25,1.5,60,133.5
6143,C5,1151.25,1.5,60,133.5
6144,E6,1151.75,0.5,70,133.5
6145,G6,1152.25,1.0,74,133.5
6146,E-5,1152.25,0.5,57,133.5
6147,B5,1152.25,1.5,74,133.5
6148,B6,1152.25,1.5,74,133.5
6149,F#5,1152.75,1.0,61,133.5
6150,G4,1152.75,1.5,61,133.5
6151,C#5,1152.75,1.5,61,133.5
6152,F6,1153.25,0.5,73,133.5
6153,G6,1153.75,1.0,78,133.5
6154,E5,1153.75,0.5,63,133.5
6155,B5,1153.75,1.5,78,133.5
6156,B6,1153.75,1.5,78,133.5
6157,F#5,1154.25,1.0,67,133.5
6158,G4,1154.25,1.5,67,133.5
6159,C#5,1154.25,1.5,67,133.5
6160,F6,1154.75,0.5,78,133.5
6161,G#6,1155.25,1.0,84,133.5
6162,E5,1155.25,0.5,69,133.5
6163,C7,1155.25,1.5,84,133.5
6164,C6,1155.25,1.5,84,133.5
6165,G5,1155.75,1.0,72,133.5
6166,G#4,1155.75,1.5,72,133.5
6167,D5,1155.75,1.5,72,133.5
6168,F#6,1156.25,0.5,86,133.5
6169,F7,1156.75,0.5,101,133.5
6170,F5,1156.75,0.5,74,133.5
6171,E-7,1157.25,0.25,100,133.5
6172,G5,1157.25,1.0,75,133.5
6173,G#4,1157.25,1.5,75,133.5
6174,D5,1157.25,1.5,75,133.5
6175,C#7,1157.5,0.25,96,133.5
6176,G#6,1157.75,0.25,98,133.5
6177,F6,1158.0,0.25,93,133.5
6178,E-6,1158.25,0.25,95,133.5
6179,F5,1158.25,0.5,79,133.5
6180,C#6,1158.5,0.25,89,133.5
6181,G#5,1158.75,0.25,92,133.5
6182,G#5,1158.75,1.0,83,133.5
6183,G#4,1158.75,1.5,83,133.5
6184,E-5,1158.75,1.5,83,133.5
6185,F5,1159.0,0.25,86,133.5
6186,E-5,1159.25,0.25,89,133.5
6187,C#5,1159.5,0.25,83,133.5
6188,G#4,1159.75,0.25,86,133.5
6189,F#5,1159.75,0.5,86,133.5
6190,F4,1160.0,0.25,81,133.5
6191,E-4,1160.25,0.25,83,133.5
6192,C#2,1160.25,0.5,90,133.5
6193,C#3,1160.25,0.5,90,133.5
6194,C#4,1160.5,0.25,79,133.5
6195,G#3,1160.75,0.5,80,133.5
6196,G2,1160.75,0.5,74,133.5
6197,F4,1161.25,1.5,64,133.5
6198,G#2,1161.25,0.5,74,133.5
6199,A3,1161.25,1.0,88,133.5
6200,A4,1161.25,1.0,88,133.5
6201,G#2,1161.75,0.5,79,133.5
6202,G#3,1162.25,0.5,83,133.5
6203,G#4,1162.25,0.5,83,133.5
6204,F#2,1162.25,0.5,62,133.5
6205,F#3,1162.25,0.5,62,133.5
6206,F7,1162.75,0.5,100,133.5
6207,F2,1162.75,0.5,58,133.5
6208,F3,1162.75,0.5,58,133.5
6209,E-7,1163.25,0.25,99,133.5
6210,F2,1163.25,0.25,68,133.5
6211,F3,1163.25,0.25,68,133.5
6212,C#7,1163.5,0.25,92,133.5
6213,G#6,1163.75,0.25,96,133.5
6214,G2,1163.75,0.5,59,133.5
6215,F6,1164.0,0.25,91,133.5
6216,E-6,1164.25,0.25,93,133.5
6217,G#2,1164.25,0.5,59,133.5
6218,C#6,1164.5,0.25,88,133.5
6219,G#5,1164.75,0.25,90,133.5
6220,A2,1164.75,1.0,73,133.5
6221,F5,1165.0,0.25,86,133.5
6222,E-5,1165.25,0.25,87,133.5
6223,C#5,1165.5,0.25,81,133.5
6224,G#4,1165.75,0.25,84,133.5
6225,G#2,1165.75,0.5,70,133.5
6226,F4,1166.0,0.25,79,133.5
6227,E-4,1166.25,0.25,82,133.5
6228,C#2,1166.25,0.5,90,133.5
6229,C#3,1166.25,0.5,90,133.5
6230,C#4,1166.5,0.25,76,133.5
6231,G#3,1166.75,0.5,79,133.5
6232,G2,1166.75,0.5,73,133.5
6233,F4,1167.25,1.5,82,133.5
6234,G#2,1167.25,0.5,75,133.5
6235,A3,1167.25,1.0,82,133.5
6236,A4,1167.25,1.0,82,133.5
6237,G#2,1167.75,0.5,77,133.5
6238,G#3,1168.25,0.5,77,133.5
6239,G#4,1168.25,0.5,77,133.5
6240,F#2,1168.25,0.5,62,133.5
6241,F#3,1168.25,0.5,62,133.5
6242,G#3,1168.75,0.5,70,133.5
6243,F4,1168.75,0.5,70,133.5
6244,G#4,1168.75,0.5,70,133.5
6245,F2,1168.75,0.5,58,133.5
6246,F3,1168.75,0.5,58,133.5
6247,F2,1169.25,0.25,68,133.5
6248,F3,1169.25,0.25,68,133.5
6249,G2,1169.75,0.5,59,133.5
6250,G#2,1170.25,0.5,59,133.5
6251,A3,1170.25,1.0,82,133.5
6252,A4,1170.25,1.0,82,133.5
6253,A2,1170.75,1.0,73,133.5
6254,G#3,1171.25,0.5,77,133.5
6255,G#4,1171.25,0.5,77,133.5
6256,G#2,1171.75,0.5,70,133.5
6257,G#3,1171.75,0.5,71,133.5
6258,F4,1171.75,0.5,71,133.5
6259,G#4,1171.75,0.5,71,133.5
6260,C#2,1172.25,0.25,60,133.5
6261,C#3,1172.25,0.25,60,133.5
6262,G2,1172.75,0.5,68,133.5
6263,G#2,1173.25,0.5,68,133.5
6264,A3,1173.25,1.0,83,133.5
6265,A4,1173.25,1.0,83,133.5
6266,G#3,1174.25,0.5,77,133.5
6267,G#4,1174.25,0.5,77,133.5
6268,F#2,1174.25,0.5,70,133.5
6269,F#3,1174.25,0.5,70,133.5
6270,G#3,1174.75,0.5,74,133.5
6271,F4,1174.75,0.5,74,133.5
6272,G#4,1174.75,0.5,74,133.5
6273,F2,1174.75,0.5,70,133.5
6274,F3,1174.75,0.5,70,133.5
6275,C#2,1175.25,0.25,63,133.5
6276,C#3,1175.25,0.25,63,133.5
6277,G2,1175.75,0.5,69,133.5
6278,G#2,1176.25,0.5,69,133.5
6279,A3,1176.25,1.0,86,133.5
6280,A4,1176.25,1.0,86,133.5
6281,G#3,1177.25,0.5,81,133.5
6282,G#4,1177.25,0.5,81,133.5
6283,F#2,1177.25,0.5,70,133.5
6284,F#3,1177.25,0.5,70,133.5
6285,A3,1177.75,0.375,71,133.5
6286,F4,1177.75,0.375,71,133.5
6287,A4,1177.75,0.375,71,133.5
6288,F2,1177.75,0.5,70,133.5
6289,F3,1177.75,0.5,70,133.5
6290,G#3,1178.25,0.375,73,133.5
6291,F4,1178.25,0.375,73,133.5
6292,G#4,1178.25,0.375,73,133.5
6293,C#2,1178.25,0.25,64,133.5
6294,C#3,1178.25,0.25,64,133.5
6295,G2,1178.75,0.5,69,133.5
6296,A3,1178.75,0.375,74,133.5
6297,F4,1178.75,0.375,74,133.5
6298,A4,1178.75,0.375,74,133.5
6299,G#2,1179.25,0.5,69,133.5
6300,G#3,1179.25,0.375,76,133.5
6301,F4,1179.25,0.375,76,133.5
6302,G#4,1179.25,0.375,76,133.5
6303,A3,1179.75,0.375,77,133.5
6304,F4,1179.75,0.375,77,133.5
6305,A4,1179.75,0.375,77,133.5
6306,G#3,1180.25,0.375,79,133.5
6307,F4,1180.25,0.375,79,133.5
6308,G#4,1180.25,0.375,79,133.5
6309,F#2,1180.25,0.5,70,133.5
6310,F#3,1180.25,0.5,70,133.5
6311,A3,1180.75,0.375,89,133.5
6312,F4,1180.75,0.375,89,133.5
6313,A4,1180.75,0.375,89,133.5
6314,F2,1180.75,0.5,70,133.5
6315,F3,1180.75,0.5,70,133.5
6316,C#2,1181.25,0.375,67,133.5
6317,A2,1181.25,0.375,67,133.5
6318,C#2,1181.75,0.375,68,133.5
6319,G#2,1181.75,0.375,68,133.5
6320,C4,1182.25,0.5,92,133.5
6321,E4,1182.25,0.5,92,133.5
6322,B-4,1182.25,0.5,92,133.5
6323,C5,1182.25,0.5,92,133.5
6324,C#2,1182.25,0.375,70,133.5
6325,A2,1182.25,0.375,70,133.5
6326,C#2,1182.75,0.375,71,133.5
6327,G#2,1182.75,0.375,71,133.5
6328,C#2,1183.25,0.375,73,133.5
6329,A2,1183.25,0.375,73,133.5
6330,A4,1183.75,0.5,96,133.5
6331,C5,1183.75,0.5,96,133.5
6332,A5,1183.75,0.5,96,133.5
6333,F5,1183.75,0.5,96,133.5
6334,C#2,1183.75,0.375,74,133.5
6335,G#2,1183.75,0.375,74,133.5
6336,C2,1184.25,0.375,84,133.5
6337,A2,1184.25,0.375,84,133.5
6338,F#4,1185.25,0.5,95,133.5
6339,G#4,1185.25,0.5,95,133.5
6340,C5,1185.25,0.5,95,133.5
6341,E-5,1185.25,0.5,95,133.5
6342,F#5,1185.25,0.5,95,133.5
6343,G#5,1185.25,0.5,95,133.5
6344,C2,1185.75,0.5,96,133.5
6345,G2,1185.75,0.5,96,133.5
6346,C3,1185.75,0.5,96,133.5
6347,F4,1186.75,1.5,92,133.5
6348,G#4,1186.75,1.5,92,133.5
6349,C#5,1186.75,1.5,92,133.5
6350,F5,1186.75,1.5,92,133.5
6351,F2,1187.25,0.5,96,133.5
6352,C3,1187.25,0.5,96,133.5
6353,F3,1187.25,0.5,96,133.5
6354,G#2,1188.75,0.5,96,133.5
6355,E-3,1188.75,0.5,96,133.5
6356,G#3,1188.75,0.5,96,133.5
6357,F3,1189.75,1.5,93,133.5
6358,G#3,1189.75,1.5,93,133.5
6359,C#4,1189.75,1.5,93,133.5
6360,F4,1189.75,1.5,93,133.5
6361,C#3,1190.25,1.5,96,133.5
6362,G#3,1190.25,1.5,96,133.5
6363,C#4,1190.25,1.5,96,133.5
6364,C#4,1192.5,0.25,82,133.5
6365,G#4,1192.5,0.25,82,133.5
6366,C#5,1192.5,0.25,82,133.5
6367,F7,1192.75,1.5,123,133.5
6368,C#2,1193.25,1.5,95,133.5
6369,G#2,1193.25,1.5,95,133.5
6370,C#3,1193.25,1.5,95,133.5
6371,C#3,1195.875,0.375,69,133.5
6372,G#3,1195.938,0.312,82,133.5
6373,F4,1196.0,0.25,82,133.5
6374,C#1,1196.25,1.5,104,133.5
6375,C#2,1196.25,1.5,104,133.5
