,note_name,start_time,duration,velocity,tempo
0,E3,3.0,1.0,55,197.99
1,A2,4.0,0.25,55,197.99
2,E4,4.5,0.25,50,197.99
3,A4,4.5,0.25,50,197.99
4,E5,4.5,0.25,50,197.99
5,C4,4.5,0.25,34,197.99
6,E3,4.5,0.25,34,197.99
7,C3,5.0,0.25,55,197.99
8,A4,5.5,0.25,50,197.99
9,E5,5.5,0.25,50,197.99
10,A5,5.5,0.25,50,197.99
11,E4,5.5,0.25,34,197.99
12,A3,5.5,0.25,34,197.99
13,B2,6.0,0.25,55,197.99
14,A4,6.5,0.25,50,197.99
15,D5,6.5,0.25,50,197.99
16,A5,6.5,0.25,50,197.99
17,D4,6.5,0.25,34,197.99
18,F3,6.5,0.25,34,197.99
19,E3,7.0,0.25,55,197.99
20,G#4,7.5,0.25,50,197.99
21,E5,7.5,0.25,50,197.99
22,G#5,7.5,0.25,50,197.99
23,E4,7.5,0.25,34,197.99
24,B3,7.5,0.25,34,197.99
25,C3,8.0,0.25,55,197.99
26,A4,8.5,0.25,52,197.99
27,E5,8.5,0.25,52,197.99
28,E4,8.5,0.25,34,197.99
29,A3,8.5,0.25,34,197.99
30,A2,9.0,0.25,55,197.99
31,C5,9.5,0.25,50,197.99
32,E5,9.5,0.25,50,197.99
33,C6,9.5,0.25,50,197.99
34,E4,9.5,0.25,34,197.99
35,A3,9.5,0.25,34,197.99
36,D3,10.0,0.25,56,197.99
37,C6,10.5,0.25,51,197.99
38,F5,10.5,0.25,51,197.99
39,C5,10.5,0.25,51,197.99
40,F4,10.5,0.25,36,197.99
41,A3,10.5,0.25,36,197.99
42,D3,11.0,0.25,58,197.99
43,B4,11.5,0.25,53,197.99
44,F5,11.5,0.25,53,197.99
45,B5,11.5,0.25,53,197.99
46,F4,11.5,0.25,38,197.99
47,G#3,11.5,0.25,38,197.99
48,C3,12.0,0.25,60,197.99
49,A5,12.5,0.25,56,197.99
50,F5,12.5,0.25,56,197.99
51,A4,12.5,0.25,56,197.99
52,F4,12.5,0.25,38,197.99
53,A3,12.5,0.25,38,197.99
54,C3,13.0,0.25,61,197.99
55,E6,13.5,0.25,57,197.99
56,A5,13.5,0.25,57,197.99
57,E5,13.5,0.25,57,197.99
58,E4,13.5,0.25,40,197.99
59,A3,13.5,0.25,40,197.99
60,B2,14.0,0.25,63,197.99
61,D5,14.5,0.25,59,197.99
62,A5,14.5,0.25,59,197.99
63,D6,14.5,0.25,59,197.99
64,D4,14.5,0.25,41,197.99
65,F3,14.5,0.25,41,197.99
66,E2,15.0,0.25,66,197.99
67,E6,15.5,0.25,61,197.99
68,G#5,15.5,0.25,61,197.99
69,E5,15.5,0.25,61,197.99
70,D4,15.5,0.25,41,197.99
71,B3,15.5,0.25,41,197.99
72,E3,15.5,0.25,41,197.99
73,A2,16.0,0.25,68,197.99
74,C6,16.5,0.25,61,197.99
75,E5,16.5,0.25,61,197.99
76,C5,16.5,0.25,61,197.99
77,C4,16.5,0.25,42,197.99
78,E3,16.5,0.25,42,197.99
79,B2,17.0,0.25,66,197.99
80,G#5,17.5,0.25,58,197.99
81,E5,17.5,0.25,58,197.99
82,G#4,17.5,0.25,58,197.99
83,D4,17.5,0.25,40,197.99
84,E3,17.5,0.25,40,197.99
85,C3,18.0,0.25,61,197.99
86,A5,18.5,0.25,53,197.99
87,E5,18.5,0.25,53,197.99
88,A4,18.5,0.25,53,197.99
89,E4,18.5,0.25,38,197.99
90,E3,18.5,0.25,38,197.99
91,A2,19.0,0.25,58,197.99
92,C6,19.5,0.25,50,197.99
93,E5,19.5,0.25,50,197.99
94,C5,19.5,0.25,50,197.99
95,C4,19.5,0.25,34,197.99
96,E3,19.5,0.25,34,197.99
97,E2,20.0,0.25,55,197.99
98,B4,20.5,0.25,50,197.99
99,E5,20.5,0.25,50,197.99
100,B5,20.5,0.25,50,197.99
101,D4,20.5,0.25,34,197.99
102,E3,20.5,0.25,34,197.99
103,A2,21.0,0.25,55,197.99
104,A4,21.5,0.25,50,197.99
105,E5,21.5,0.25,50,197.99
106,A5,21.5,0.25,50,197.99
107,C4,21.5,0.25,34,197.99
108,E3,21.5,0.25,34,197.99
109,B2,22.0,0.25,55,197.99
110,E4,22.5,0.25,50,197.99
111,B4,22.5,0.25,50,197.99
112,E5,22.5,0.25,50,197.99
113,E3,22.5,0.25,33,197.99
114,D4,22.5,0.25,33,197.99
115,G#3,22.5,0.25,33,197.99
116,A2,23.0,0.25,55,197.99
117,A4,23.5,0.25,50,197.99
118,E5,23.5,0.25,50,197.99
119,A5,23.5,0.25,50,197.99
120,E3,23.5,0.25,33,197.99
121,C4,23.5,0.25,33,197.99
122,A3,23.5,0.25,33,197.99
123,E2,24.0,0.25,55,197.99
124,E5,24.5,0.25,50,197.99
125,B4,24.5,0.25,50,197.99
126,B5,24.5,0.25,50,197.99
127,E3,24.5,0.25,33,197.99
128,D4,24.5,0.25,33,197.99
129,G#3,24.5,0.25,33,197.99
130,A2,25.0,0.25,55,197.99
131,A4,25.5,0.25,50,197.99
132,E5,25.5,0.25,50,197.99
133,A5,25.5,0.25,50,197.99
134,E3,25.5,0.25,33,197.99
135,C4,25.5,0.25,33,197.99
136,A3,25.5,0.25,33,197.99
137,B2,26.0,0.25,56,197.99
138,E5,26.5,0.25,52,197.99
139,B4,26.5,0.25,52,197.99
140,E4,26.5,0.25,52,197.99
141,E3,26.5,0.25,37,197.99
142,D4,26.5,0.25,37,197.99
143,G#3,26.5,0.25,37,197.99
144,A2,27.0,0.25,60,197.99
145,A4,27.5,0.25,56,197.99
146,E5,27.5,0.25,56,197.99
147,A5,27.5,0.25,56,197.99
148,A3,27.5,0.25,41,197.99
149,C4,27.5,0.25,41,197.99
150,E3,27.5,0.25,41,197.99
151,G2,28.0,0.25,64,197.99
152,B5,28.5,0.25,61,197.99
153,E5,28.5,0.25,61,197.99
154,B4,28.5,0.25,61,197.99
155,E4,28.5,0.25,42,197.99
156,G3,28.5,0.25,42,197.99
157,A2,29.0,0.25,68,197.99
158,C6,29.5,0.25,65,197.99
159,E5,29.5,0.25,65,197.99
160,C5,29.5,0.25,65,197.99
161,E4,29.5,0.25,40,197.99
162,A3,29.5,0.25,40,197.99
163,B2,30.0,0.25,63,197.99
164,G4,30.5,0.25,58,197.99
165,B4,30.5,0.25,58,197.99
166,G5,30.5,0.25,58,197.99
167,E4,30.5,0.25,41,197.99
168,B3,30.5,0.25,41,197.99
169,B2,31.0,0.25,62,197.99
170,F#5,31.5,0.25,57,197.99
171,B4,31.5,0.25,57,197.99
172,A4,31.5,0.25,57,197.99
173,E-4,31.5,0.25,40,197.99
174,B3,31.5,0.25,40,197.99
175,E3,32.0,0.25,61,197.99
176,E5,32.5,0.25,57,197.99
177,B4,32.5,0.25,57,197.99
178,G#4,32.5,0.25,57,197.99
179,E4,32.5,0.25,40,197.99
180,B3,32.5,0.25,40,197.99
181,E-3,33.0,0.25,60,197.99
182,F#5,33.5,0.25,56,197.99
183,C5,33.5,0.25,56,197.99
184,A4,33.5,0.25,56,197.99
185,F#4,33.5,0.25,40,197.99
186,C4,33.5,0.25,40,197.99
187,D3,34.0,0.25,61,197.99
188,B4,34.5,0.25,53,197.99
189,G5,34.5,0.25,53,197.99
190,F5,34.5,0.25,53,197.99
191,G4,34.5,0.25,53,197.99
192,F4,34.5,0.25,38,197.99
193,B3,34.5,0.25,38,197.99
194,E2,35.0,0.25,58,197.99
195,D5,35.5,0.25,50,197.99
196,G#5,35.5,0.25,50,197.99
197,E5,35.5,0.25,50,197.99
198,G#4,35.5,0.25,50,197.99
199,E4,35.5,0.25,34,197.99
200,B3,35.5,0.25,34,197.99
201,A2,36.0,0.25,55,197.99
202,A4,36.5,0.25,49,197.99
203,C5,36.5,0.25,49,197.99
204,E5,36.5,0.25,49,197.99
205,A5,36.5,0.25,49,197.99
206,E4,36.5,0.25,34,197.99
207,A3,36.5,0.25,34,197.99
208,C3,37.0,0.25,55,197.99
209,A5,37.5,2.0,71,197.99
210,A4,37.5,0.25,51,197.99
211,E5,37.5,0.25,51,197.99
212,E4,37.5,0.25,34,197.99
213,A3,37.5,0.25,34,197.99
214,B2,38.0,0.25,55,197.99
215,A4,38.5,0.25,52,197.99
216,D5,38.5,0.25,52,197.99
217,D4,38.5,0.25,34,197.99
218,F3,38.5,0.25,34,197.99
219,E3,39.0,0.25,55,197.99
220,G#4,39.5,0.25,47,197.99
221,E5,39.5,0.25,47,197.99
222,G#5,39.5,0.25,47,197.99
223,E4,39.5,0.25,34,197.99
224,B3,39.5,0.25,34,197.99
225,C3,40.0,0.25,55,197.99
226,A4,40.5,0.25,52,197.99
227,E5,40.5,0.25,52,197.99
228,E4,40.5,0.25,34,197.99
229,A3,40.5,0.25,34,197.99
230,A2,41.0,0.25,55,197.99
231,C6,41.5,2.0,71,197.99
232,C5,41.5,0.25,52,197.99
233,E5,41.5,0.25,52,197.99
234,E4,41.5,0.25,34,197.99
235,A3,41.5,0.25,34,197.99
236,D3,42.0,0.25,56,197.99
237,F5,42.5,0.25,52,197.99
238,C5,42.5,0.25,52,197.99
239,F4,42.5,0.25,36,197.99
240,A3,42.5,0.25,36,197.99
241,D3,43.0,0.25,58,197.99
242,B5,43.5,0.5,56,197.99
243,B4,43.5,0.25,47,197.99
244,F5,43.5,0.25,47,197.99
245,F4,43.5,0.25,38,197.99
246,G#3,43.5,0.25,38,197.99
247,B5,44.0,0.5,56,197.99
248,C3,44.0,0.25,60,197.99
249,A5,44.5,0.5,58,197.99
250,F5,44.5,0.25,49,197.99
251,A4,44.5,0.25,49,197.99
252,F4,44.5,0.25,38,197.99
253,A3,44.5,0.25,38,197.99
254,C3,45.0,0.25,61,197.99
255,E6,45.5,1.0,75,197.99
256,A5,45.5,0.25,51,197.99
257,E5,45.5,0.25,51,197.99
258,E4,45.5,0.25,40,197.99
259,A3,45.5,0.25,40,197.99
260,B2,46.0,0.25,63,197.99
261,D6,46.5,1.0,77,197.99
262,D5,46.5,0.25,55,197.99
263,A5,46.5,0.25,55,197.99
264,D4,46.5,0.25,41,197.99
265,F3,46.5,0.25,41,197.99
266,E2,47.0,0.25,66,197.99
267,E6,47.5,0.5,82,197.99
268,G#5,47.5,0.25,58,197.99
269,E5,47.5,0.25,58,197.99
270,D4,47.5,0.25,41,197.99
271,B3,47.5,0.25,41,197.99
272,E3,47.5,0.25,41,197.99
273,E6,48.0,0.5,82,197.99
274,A2,48.0,0.25,68,197.99
275,C6,48.5,0.5,77,197.99
276,E5,48.5,0.25,55,197.99
277,C5,48.5,0.25,55,197.99
278,C4,48.5,0.25,42,197.99
279,E3,48.5,0.25,42,197.99
280,B2,49.0,0.25,66,197.99
281,B5,49.5,1.0,66,197.99
282,E5,49.5,0.25,51,197.99
283,B4,49.5,0.25,51,197.99
284,G#3,49.5,0.25,39,197.99
285,D4,49.5,0.25,39,197.99
286,E3,49.5,0.25,39,197.99
287,C3,50.0,0.25,61,197.99
288,A5,50.5,1.5,61,197.99
289,E5,50.5,0.25,47,197.99
290,A4,50.5,0.25,47,197.99
291,A3,50.5,0.25,37,197.99
292,E4,50.5,0.25,37,197.99
293,E3,50.5,0.25,37,197.99
294,A2,51.0,0.25,58,197.99
295,E5,51.5,0.25,48,197.99
296,C5,51.5,0.25,48,197.99
297,C4,51.5,0.25,34,197.99
298,E3,51.5,0.25,34,197.99
299,E2,52.0,0.25,55,197.99
300,B5,52.5,1.0,71,197.99
301,B4,52.5,0.5,53,197.99
302,E5,52.5,0.5,53,197.99
303,D4,52.5,0.25,34,197.99
304,E3,52.5,0.25,34,197.99
305,A2,53.0,0.25,55,197.99
306,A5,53.5,1.0,66,197.99
307,A4,53.5,0.5,51,197.99
308,E5,53.5,0.5,51,197.99
309,C4,53.5,0.25,34,197.99
310,E3,53.5,0.25,34,197.99
311,B2,54.0,0.25,55,197.99
312,E5,54.5,1.0,64,197.99
313,E4,54.5,0.5,50,197.99
314,B4,54.5,0.5,50,197.99
315,E3,54.5,0.25,33,197.99
316,D4,54.5,0.25,33,197.99
317,G#3,54.5,0.25,33,197.99
318,A2,55.0,0.25,55,197.99
319,A4,55.5,0.5,51,197.99
320,E5,55.5,0.5,51,197.99
321,A5,55.5,0.5,51,197.99
322,E3,55.5,0.25,33,197.99
323,C4,55.5,0.25,33,197.99
324,A3,55.5,0.25,33,197.99
325,E2,56.0,0.25,55,197.99
326,E5,56.5,0.25,50,197.99
327,B4,56.5,0.5,50,197.99
328,B5,56.5,1.0,67,197.99
329,E3,56.5,0.25,33,197.99
330,D4,56.5,0.25,33,197.99
331,G#3,56.5,0.25,33,197.99
332,A2,57.0,0.25,55,197.99
333,A4,57.5,0.5,53,197.99
334,E5,57.5,0.25,53,197.99
335,A5,57.5,1.0,69,197.99
336,E3,57.5,0.25,33,197.99
337,C4,57.5,0.25,33,197.99
338,A3,57.5,0.25,33,197.99
339,B2,58.0,0.25,56,197.99
340,E5,58.5,1.0,75,197.99
341,B4,58.5,0.5,58,197.99
342,E4,58.5,0.5,58,197.99
343,E3,58.5,0.25,37,197.99
344,D4,58.5,0.25,37,197.99
345,G#3,58.5,0.25,37,197.99
346,A2,59.0,0.25,60,197.99
347,A4,59.5,0.5,60,197.99
348,E5,59.5,0.5,60,197.99
349,A5,59.5,0.5,60,197.99
350,A3,59.5,0.25,41,197.99
351,C4,59.5,0.25,41,197.99
352,E3,59.5,0.25,41,197.99
353,G2,60.0,0.25,64,197.99
354,B5,60.5,1.0,75,197.99
355,E5,60.5,0.5,61,197.99
356,B4,60.5,0.5,61,197.99
357,E4,60.5,0.25,42,197.99
358,G3,60.5,0.25,42,197.99
359,A2,61.0,0.25,68,197.99
360,C6,61.5,1.0,77,197.99
361,E5,61.5,0.5,63,197.99
362,C5,61.5,0.5,63,197.99
363,E4,61.5,0.25,40,197.99
364,A3,61.5,0.25,40,197.99
365,B2,62.0,0.25,63,197.99
366,G5,62.5,1.0,73,197.99
367,G4,62.5,0.5,59,197.99
368,B4,62.5,0.5,59,197.99
369,E4,62.5,0.25,41,197.99
370,B3,62.5,0.25,41,197.99
371,B2,63.0,0.25,62,197.99
372,F#5,63.5,0.5,68,197.99
373,B4,63.5,0.5,56,197.99
374,A4,63.5,0.5,56,197.99
375,E-4,63.5,0.25,40,197.99
376,B3,63.5,0.25,40,197.99
377,F#5,64.0,0.5,68,197.99
378,E3,64.0,0.25,61,197.99
379,E5,64.5,3.5,64,197.99
380,B4,64.5,0.5,53,197.99
381,G4,64.5,0.5,53,197.99
382,E4,64.5,0.25,40,197.99
383,B3,64.5,0.25,40,197.99
384,A2,65.0,0.25,60,197.99
385,C5,65.5,0.5,48,197.99
386,A4,65.5,0.5,48,197.99
387,E4,65.5,0.25,40,197.99
388,A3,65.5,0.25,40,197.99
389,E3,66.0,0.25,61,197.99
390,B4,66.5,0.5,46,197.99
391,G4,66.5,0.5,46,197.99
392,E4,66.5,0.25,38,197.99
393,B3,66.5,0.25,38,197.99
394,A2,67.0,0.25,58,197.99
395,C5,67.5,0.5,44,197.99
396,A4,67.5,0.5,44,197.99
397,E4,67.5,0.25,34,197.99
398,A3,67.5,0.25,34,197.99
399,G2,68.0,0.25,55,197.99
400,B5,68.5,1.0,61,197.99
401,E5,68.5,0.5,51,197.99
402,B4,68.5,0.5,51,197.99
403,E4,68.5,0.25,34,197.99
404,G3,68.5,0.25,34,197.99
405,A2,69.0,0.25,57,197.99
406,C6,69.5,1.0,64,197.99
407,E5,69.5,0.5,53,197.99
408,C5,69.5,0.5,53,197.99
409,E4,69.5,0.25,34,197.99
410,A3,69.5,0.25,34,197.99
411,B2,70.0,0.25,53,197.99
412,G5,70.5,1.0,60,197.99
413,G4,70.5,0.5,49,197.99
414,B4,70.5,0.5,49,197.99
415,E4,70.5,0.25,34,197.99
416,B3,70.5,0.25,34,197.99
417,B2,71.0,0.25,52,197.99
418,F#5,71.5,0.5,50,197.99
419,B4,71.5,0.5,50,197.99
420,A4,71.5,0.5,50,197.99
421,E-4,71.5,0.25,34,197.99
422,B3,71.5,0.25,34,197.99
423,E3,72.0,0.25,59,197.99
424,E5,72.5,2.0,63,197.99
425,B4,72.5,0.5,53,197.99
426,G4,72.5,0.5,53,197.99
427,G3,72.5,0.25,39,197.99
428,E4,72.5,0.25,39,197.99
429,B3,72.5,0.25,39,197.99
430,E-3,73.0,0.25,63,197.99
431,B4,73.5,0.5,55,197.99
432,G4,73.5,0.5,55,197.99
433,B3,73.5,0.25,43,197.99
434,E4,73.5,0.25,43,197.99
435,G3,73.5,0.25,43,197.99
436,D3,74.0,0.25,72,197.99
437,F5,74.5,1.5,80,197.99
438,B4,74.5,0.5,58,197.99
439,G#4,74.5,0.5,58,197.99
440,G#3,74.5,0.25,46,197.99
441,F4,74.5,0.25,46,197.99
442,B3,74.5,0.25,46,197.99
443,C#3,75.0,0.25,77,197.99
444,B4,75.5,0.5,58,197.99
445,G#4,75.5,0.5,58,197.99
446,G#3,75.5,0.25,45,197.99
447,F4,75.5,0.25,45,197.99
448,B3,75.5,0.25,45,197.99
449,C3,76.0,0.25,77,197.99
450,A4,76.5,1.0,79,197.99
451,C5,76.5,1.0,79,197.99
452,A5,76.5,1.0,79,197.99
453,F4,76.5,0.25,48,197.99
454,A3,76.5,0.25,48,197.99
455,C3,77.0,0.25,77,197.99
456,G#4,77.5,1.0,75,197.99
457,B4,77.5,1.0,75,197.99
458,G#5,77.5,1.0,75,197.99
459,F4,77.5,0.25,48,197.99
460,G#3,77.5,0.25,48,197.99
461,C3,78.0,0.25,77,197.99
462,G4,78.5,0.25,74,197.99
463,B-4,78.5,0.25,74,197.99
464,G5,78.5,0.25,74,197.99
465,G3,78.5,0.25,48,197.99
466,E4,78.5,0.25,48,197.99
467,C3,79.0,0.25,77,197.99
468,E4,79.5,0.25,68,197.99
469,B-4,79.5,0.25,68,197.99
470,C5,79.5,0.25,68,197.99
471,G3,79.5,0.25,48,197.99
472,C4,79.5,0.25,48,197.99
473,C3,80.0,0.25,77,197.99
474,G4,80.5,0.25,74,197.99
475,B-4,80.5,0.25,74,197.99
476,G5,80.5,0.25,74,197.99
477,G3,80.5,0.25,48,197.99
478,E4,80.5,0.25,48,197.99
479,C3,81.0,0.25,77,197.99
480,E4,81.5,0.25,68,197.99
481,B-4,81.5,0.25,68,197.99
482,C5,81.5,0.25,68,197.99
483,G3,81.5,0.25,48,197.99
484,C4,81.5,0.25,48,197.99
485,C3,82.0,0.25,77,197.99
486,G4,82.5,0.25,74,197.99
487,B-4,82.5,0.25,74,197.99
488,G5,82.5,0.25,74,197.99
489,G3,82.5,0.25,48,197.99
490,E4,82.5,0.25,48,197.99
491,F3,83.0,0.25,77,197.99
492,A4,83.5,0.25,70,197.99
493,F5,83.5,0.25,70,197.99
494,A3,83.5,0.25,48,197.99
495,F4,83.5,0.25,48,197.99
496,G#2,84.0,0.25,61,197.99
497,F4,84.5,1.0,63,197.99
498,G#4,84.5,1.0,63,197.99
499,F5,84.5,1.0,63,197.99
500,C#4,84.5,0.25,38,197.99
501,F3,84.5,0.25,38,197.99
502,G#2,85.0,0.25,61,197.99
503,E4,85.5,1.0,60,197.99
504,G4,85.5,1.0,60,197.99
505,E5,85.5,1.0,60,197.99
506,C#4,85.5,0.25,38,197.99
507,E3,85.5,0.25,38,197.99
508,G#2,86.0,0.25,61,197.99
509,E-4,86.5,0.25,59,197.99
510,F#4,86.5,0.25,59,197.99
511,E-5,86.5,0.25,59,197.99
512,E-3,86.5,0.25,38,197.99
513,C4,86.5,0.25,38,197.99
514,G#2,87.0,0.25,61,197.99
515,C4,87.5,0.25,54,197.99
516,F#4,87.5,0.25,54,197.99
517,G#4,87.5,0.25,54,197.99
518,E-3,87.5,0.25,38,197.99
519,G#3,87.5,0.25,38,197.99
520,G#2,88.0,0.25,61,197.99
521,F#4,88.5,0.25,59,197.99
522,G#4,88.5,0.25,59,197.99
523,E-5,88.5,0.25,59,197.99
524,E-3,88.5,0.25,38,197.99
525,C4,88.5,0.25,38,197.99
526,G#2,89.0,0.25,61,197.99
527,C4,89.5,0.25,54,197.99
528,F#4,89.5,0.25,54,197.99
529,G#4,89.5,0.25,54,197.99
530,E-3,89.5,0.25,38,197.99
531,G#3,89.5,0.25,38,197.99
532,G#2,90.0,0.25,61,197.99
533,F#4,90.5,0.25,59,197.99
534,G#4,90.5,0.25,59,197.99
535,E-5,90.5,0.25,59,197.99
536,E-3,90.5,0.25,38,197.99
537,C4,90.5,0.25,38,197.99
538,G#2,91.0,0.25,61,197.99
539,C#5,91.5,0.5,61,197.99
540,G#4,91.5,0.5,50,197.99
541,F4,91.5,0.5,50,197.99
542,F3,91.5,0.25,38,197.99
543,C#4,91.5,0.25,38,197.99
544,C#5,92.0,0.5,61,197.99
545,G#2,92.0,0.25,61,197.99
546,C5,92.5,1.0,66,197.99
547,E-4,92.5,0.5,56,197.99
548,G#4,92.5,0.5,56,197.99
549,E-3,92.5,0.25,38,197.99
550,C4,92.5,0.25,38,197.99
551,G#2,93.0,0.25,61,197.99
552,B-4,93.5,1.0,62,197.99
553,C#4,93.5,0.5,50,197.99
554,G#4,93.5,0.5,50,197.99
555,C#3,93.5,0.25,38,197.99
556,B-3,93.5,0.25,38,197.99
557,G#2,94.0,0.25,62,197.99
558,C4,94.5,0.5,57,197.99
559,G#4,94.5,1.0,67,197.99
560,C3,94.5,0.25,40,197.99
561,G#3,94.5,0.25,40,197.99
562,G#2,95.0,0.25,63,197.99
563,E-5,95.5,0.5,63,197.99
564,G#4,95.5,0.5,52,197.99
565,F#4,95.5,0.5,52,197.99
566,F#3,95.5,0.25,40,197.99
567,E-4,95.5,0.25,40,197.99
568,E-5,96.0,0.5,63,197.99
569,G#2,96.0,0.25,64,197.99
570,C#5,96.5,1.0,70,197.99
571,F4,96.5,0.5,59,197.99
572,G#4,96.5,0.5,59,197.99
573,F3,96.5,0.25,41,197.99
574,C#4,96.5,0.25,41,197.99
575,G#2,97.0,0.25,64,197.99
576,B-4,97.5,1.0,66,197.99
577,C#4,97.5,0.5,53,197.99
578,G#4,97.5,0.5,53,197.99
579,C#3,97.5,0.25,42,197.99
580,B-3,97.5,0.25,42,197.99
581,G#2,98.0,0.25,67,197.99
582,C#5,98.5,1.0,72,197.99
583,G#4,98.5,0.5,61,197.99
584,F4,98.5,0.5,61,197.99
585,F3,98.5,0.25,42,197.99
586,C#4,98.5,0.25,42,197.99
587,G#2,99.0,0.25,67,197.99
588,C5,99.5,0.5,68,197.99
589,G#4,99.5,0.5,56,197.99
590,E-4,99.5,0.5,56,197.99
591,E-3,99.5,0.25,42,197.99
592,C4,99.5,0.25,42,197.99
593,C5,100.0,0.5,68,197.99
594,G#2,100.0,0.25,68,197.99
595,E-5,100.5,1.0,73,197.99
596,F#4,100.5,0.5,62,197.99
597,G#4,100.5,0.5,62,197.99
598,F#3,100.5,0.25,44,197.99
599,E-4,100.5,0.25,44,197.99
600,G#2,101.0,0.25,69,197.99
601,C#5,101.5,1.0,69,197.99
602,F4,101.5,0.5,57,197.99
603,G#4,101.5,0.5,57,197.99
604,F3,101.5,0.25,44,197.99
605,C#4,101.5,0.25,44,197.99
606,G#2,102.0,0.25,70,197.99
607,C5,102.5,1.0,75,197.99
608,G#4,102.5,0.5,64,197.99
609,E-4,102.5,0.5,64,197.99
610,E-3,102.5,0.25,44,197.99
611,C4,102.5,0.25,44,197.99
612,A2,103.0,0.25,71,197.99
613,F5,103.5,0.5,71,197.99
614,C5,103.5,0.5,58,197.99
615,F#4,103.5,0.5,58,197.99
616,F#3,103.5,0.25,44,197.99
617,F4,103.5,0.25,44,197.99
618,F5,104.0,0.5,71,197.99
619,G#2,104.0,0.25,72,197.99
620,E-5,104.5,1.0,78,197.99
621,F#4,104.5,0.5,66,197.99
622,C5,104.5,0.5,66,197.99
623,F#3,104.5,0.25,46,197.99
624,E-4,104.5,0.25,46,197.99
625,G#2,105.0,0.25,73,197.99
626,C5,105.5,1.0,73,197.99
627,E-4,105.5,0.5,60,197.99
628,F#4,105.5,0.5,60,197.99
629,F#3,105.5,0.25,46,197.99
630,C4,105.5,0.25,46,197.99
631,B-2,106.0,0.25,73,197.99
632,E-5,106.5,1.0,80,197.99
633,B-4,106.5,0.5,68,197.99
634,F#4,106.5,0.5,68,197.99
635,F#3,106.5,0.25,46,197.99
636,E-4,106.5,0.25,46,197.99
637,B-2,107.0,0.25,74,197.99
638,D5,107.5,0.5,75,197.99
639,B-4,107.5,0.5,62,197.99
640,F4,107.5,0.5,62,197.99
641,F3,107.5,0.25,47,197.99
642,D4,107.5,0.25,47,197.99
643,D5,108.0,0.5,75,197.99
644,B2,108.0,0.25,77,197.99
645,G#5,108.5,1.0,84,197.99
646,G#4,108.5,0.5,71,197.99
647,D5,108.5,0.5,71,197.99
648,F4,108.5,0.25,48,197.99
649,G#3,108.5,0.25,48,197.99
650,B2,109.0,0.25,77,197.99
651,G5,109.5,1.0,84,197.99
652,G4,109.5,0.5,71,197.99
653,D5,109.5,0.5,71,197.99
654,F4,109.5,0.25,48,197.99
655,G3,109.5,0.25,48,197.99
656,C3,110.0,0.25,77,197.99
657,C5,110.5,0.5,82,197.99
658,E4,110.5,1.0,70,197.99
659,B-4,110.5,1.0,70,197.99
660,G3,110.5,0.25,48,197.99
661,C4,110.5,0.25,48,197.99
662,F2,111.0,0.25,77,197.99
663,F4,111.5,0.5,68,197.99
664,G#4,111.5,0.5,68,197.99
665,F5,111.5,0.5,68,197.99
666,F3,111.5,0.25,48,197.99
667,C4,111.5,0.25,48,197.99
668,B2,112.0,0.25,77,197.99
669,G#4,112.5,0.5,74,197.99
670,D5,112.5,0.5,74,197.99
671,G#5,112.5,0.5,74,197.99
672,F4,112.5,0.25,48,197.99
673,G#3,112.5,0.25,48,197.99
674,B2,113.0,0.25,77,197.99
675,G4,113.5,0.5,75,197.99
676,D5,113.5,0.5,75,197.99
677,G5,113.5,0.5,75,197.99
678,F4,113.5,0.25,48,197.99
679,G3,113.5,0.25,48,197.99
680,C3,114.0,0.25,77,197.99
681,E4,114.5,0.5,74,197.99
682,B-4,114.5,0.5,74,197.99
683,C5,114.5,0.5,74,197.99
684,G3,114.5,0.25,48,197.99
685,C4,114.5,0.25,48,197.99
686,F2,115.0,0.25,77,197.99
687,F4,115.5,0.5,68,197.99
688,G#4,115.5,0.5,68,197.99
689,F5,115.5,0.5,68,197.99
690,F3,115.5,0.25,48,197.99
691,C4,115.5,0.25,48,197.99
692,E-2,116.0,0.25,69,197.99
693,G4,116.5,0.25,66,197.99
694,C5,116.5,0.25,66,197.99
695,G5,116.5,0.25,66,197.99
696,C4,116.5,0.25,44,197.99
697,E-3,116.5,0.25,44,197.99
698,F2,117.0,0.25,69,197.99
699,G#4,117.5,0.25,67,197.99
700,C5,117.5,0.25,67,197.99
701,G#5,117.5,0.25,67,197.99
702,C4,117.5,0.25,44,197.99
703,F3,117.5,0.25,44,197.99
704,G2,118.0,0.25,69,197.99
705,E-4,118.5,0.25,66,197.99
706,G4,118.5,0.25,66,197.99
707,E-5,118.5,0.25,66,197.99
708,G3,118.5,0.25,44,197.99
709,C4,118.5,0.25,44,197.99
710,G2,119.0,0.25,69,197.99
711,F4,119.5,0.25,61,197.99
712,G4,119.5,0.25,61,197.99
713,D5,119.5,0.25,61,197.99
714,G3,119.5,0.25,44,197.99
715,B3,119.5,0.25,44,197.99
716,C3,120.0,0.25,61,197.99
717,C5,120.5,3.5,67,197.99
718,E-4,120.5,0.5,56,197.99
719,G4,120.5,0.5,56,197.99
720,C4,120.5,0.25,38,197.99
721,G3,120.5,0.25,38,197.99
722,F2,121.0,0.25,61,197.99
723,F4,121.5,0.5,57,197.99
724,G#4,121.5,0.5,57,197.99
725,C4,121.5,0.25,38,197.99
726,F3,121.5,0.25,38,197.99
727,C3,122.0,0.25,61,197.99
728,E-4,122.5,0.5,56,197.99
729,G4,122.5,0.5,56,197.99
730,G3,122.5,0.25,38,197.99
731,C4,122.5,0.25,38,197.99
732,F2,123.0,0.25,61,197.99
733,F4,123.5,0.5,50,197.99
734,G#4,123.5,0.5,50,197.99
735,F3,123.5,0.25,38,197.99
736,C4,123.5,0.25,38,197.99
737,E-2,124.0,0.25,55,197.99
738,G4,124.5,1.0,47,197.99
739,C5,124.5,1.0,47,197.99
740,G5,124.5,1.0,47,197.99
741,C4,124.5,0.25,30,197.99
742,E-3,124.5,0.25,30,197.99
743,F2,125.0,0.25,49,197.99
744,G#4,125.5,1.0,48,197.99
745,C5,125.5,1.0,48,197.99
746,G#5,125.5,1.0,48,197.99
747,F3,125.5,0.25,30,197.99
748,C4,125.5,0.25,30,197.99
749,G2,126.0,0.25,49,197.99
750,E-4,126.5,1.0,46,197.99
751,G4,126.5,1.0,46,197.99
752,E-5,126.5,1.0,46,197.99
753,C4,126.5,0.25,30,197.99
754,G3,126.5,0.25,30,197.99
755,G2,127.0,0.25,49,197.99
756,D5,127.5,0.5,49,197.99
757,F4,127.5,0.5,39,197.99
758,G4,127.5,0.5,39,197.99
759,B3,127.5,0.25,30,197.99
760,G3,127.5,0.25,30,197.99
761,D5,128.0,0.5,49,197.99
762,C3,128.0,0.25,42,197.99
763,C5,128.5,3.5,47,197.99
764,E-4,128.5,0.5,39,197.99
765,G4,128.5,0.5,39,197.99
766,C4,128.5,0.25,26,197.99
767,G3,128.5,0.25,26,197.99
768,F2,129.0,0.25,39,197.99
769,F4,129.5,0.5,45,197.99
770,G#4,129.5,0.5,45,197.99
771,C4,129.5,0.25,30,197.99
772,F3,129.5,0.25,30,197.99
773,C3,130.0,0.25,41,197.99
774,E-4,130.5,0.5,44,197.99
775,G4,130.5,0.5,44,197.99
776,G3,130.5,0.25,30,197.99
777,C4,130.5,0.25,30,197.99
778,F2,131.0,0.25,42,197.99
779,F4,131.5,0.5,39,197.99
780,G#4,131.5,0.5,39,197.99
781,F3,131.5,0.25,30,197.99
782,C4,131.5,0.25,30,197.99
783,E-2,132.0,0.25,58,197.99
784,G4,132.5,1.0,61,197.99
785,C5,132.5,1.0,61,197.99
786,G5,132.5,1.0,61,197.99
787,C4,132.5,0.25,40,197.99
788,E-3,132.5,0.25,40,197.99
789,F2,133.0,0.25,64,197.99
790,G#4,133.5,1.0,64,197.99
791,C5,133.5,1.0,64,197.99
792,G#5,133.5,1.0,64,197.99
793,C4,133.5,0.25,41,197.99
794,F3,133.5,0.25,41,197.99
795,G#2,134.0,0.25,68,197.99
796,C5,134.5,1.0,64,197.99
797,F5,134.5,1.0,64,197.99
798,C6,134.5,1.0,64,197.99
799,C4,134.5,0.25,40,197.99
800,G#3,134.5,0.25,40,197.99
801,F4,134.5,0.25,40,197.99
802,G2,135.0,0.25,70,197.99
803,D5,135.5,0.5,59,197.99
804,G5,135.5,0.5,59,197.99
805,B5,135.5,0.5,59,197.99
806,D4,135.5,0.25,42,197.99
807,G3,135.5,0.25,42,197.99
808,G4,135.5,0.25,42,197.99
809,C3,136.0,0.25,71,197.99
810,B-5,136.5,1.0,56,197.99
811,B-4,136.5,1.0,56,197.99
812,E5,136.5,1.0,56,197.99
813,G4,136.5,0.25,38,197.99
814,C4,136.5,0.25,38,197.99
815,F3,137.0,0.25,60,197.99
816,G#4,137.5,1.0,57,197.99
817,C5,137.5,1.0,57,197.99
818,G#5,137.5,1.0,57,197.99
819,F4,137.5,0.25,36,197.99
820,C4,137.5,0.25,36,197.99
821,G3,138.0,0.25,57,197.99
822,G4,138.5,1.0,53,197.99
823,E-5,138.5,1.0,53,197.99
824,G5,138.5,1.0,53,197.99
825,C4,138.5,0.25,34,197.99
826,E-4,138.5,0.25,34,197.99
827,G2,139.0,0.25,55,197.99
828,B4,139.5,0.5,50,197.99
829,F4,139.5,0.5,39,197.99
830,G4,139.5,0.5,39,197.99
831,G3,139.5,0.25,31,197.99
832,D4,139.5,0.25,31,197.99
833,B4,140.0,0.5,50,197.99
834,C3,140.0,0.25,49,197.99
835,C5,140.5,1.0,52,197.99
836,E4,140.5,0.5,44,197.99
837,G4,140.5,0.5,44,197.99
838,G3,140.5,0.25,30,197.99
839,C4,140.5,0.25,30,197.99
840,B2,141.0,0.25,49,197.99
841,C#5,141.5,1.0,49,197.99
842,F4,141.5,0.5,39,197.99
843,G#4,141.5,0.5,39,197.99
844,G#3,141.5,0.25,30,197.99
845,C#4,141.5,0.25,30,197.99
846,C3,142.0,0.25,49,197.99
847,C5,142.5,1.0,52,197.99
848,G4,142.5,0.5,45,197.99
849,E4,142.5,0.5,45,197.99
850,G3,142.5,0.25,31,197.99
851,C4,142.5,0.25,31,197.99
852,B2,143.0,0.25,50,197.99
853,D5,143.5,0.5,50,197.99
854,G#4,143.5,0.5,41,197.99
855,F4,143.5,0.5,41,197.99
856,G#3,143.5,0.25,32,197.99
857,D4,143.5,0.25,32,197.99
858,D5,144.0,0.5,50,197.99
859,C3,144.0,0.25,51,197.99
860,C5,144.5,1.0,56,197.99
861,E4,144.5,0.5,47,197.99
862,G4,144.5,0.5,47,197.99
863,G3,144.5,0.25,32,197.99
864,C4,144.5,0.25,32,197.99
865,B2,145.0,0.25,51,197.99
866,C#5,145.5,1.0,52,197.99
867,F4,145.5,0.5,42,197.99
868,G#4,145.5,0.5,42,197.99
869,G#3,145.5,0.25,32,197.99
870,C#4,145.5,0.25,32,197.99
871,C3,146.0,0.25,52,197.99
872,C5,146.5,1.0,58,197.99
873,G4,146.5,0.5,49,197.99
874,E4,146.5,0.5,49,197.99
875,G3,146.5,0.25,32,197.99
876,C4,146.5,0.25,32,197.99
877,B2,147.0,0.25,52,197.99
878,D5,147.5,0.5,53,197.99
879,G#4,147.5,0.5,44,197.99
880,F4,147.5,0.5,44,197.99
881,G#3,147.5,0.25,33,197.99
882,D4,147.5,0.25,33,197.99
883,D5,148.0,0.5,53,197.99
884,C3,148.0,0.25,53,197.99
885,C5,148.5,1.0,58,197.99
886,E4,148.5,0.5,49,197.99
887,G4,148.5,0.5,49,197.99
888,G3,148.5,0.25,33,197.99
889,C4,148.5,0.25,33,197.99
890,B2,149.0,0.25,52,197.99
891,D5,149.5,1.0,52,197.99
892,F4,149.5,0.5,42,197.99
893,G#4,149.5,0.5,42,197.99
894,G#3,149.5,0.25,32,197.99
895,D4,149.5,0.25,32,197.99
896,C3,150.0,0.25,52,197.99
897,C5,150.5,1.0,57,197.99
898,G4,150.5,0.5,48,197.99
899,E4,150.5,0.5,48,197.99
900,G3,150.5,0.25,32,197.99
901,C4,150.5,0.25,32,197.99
902,B2,151.0,0.25,51,197.99
903,C#5,151.5,0.5,51,197.99
904,G#4,151.5,0.5,41,197.99
905,F4,151.5,0.5,41,197.99
906,G#3,151.5,0.25,32,197.99
907,C#4,151.5,0.25,32,197.99
908,C#5,152.0,0.5,51,197.99
909,C3,152.0,0.25,51,197.99
910,C5,152.5,1.0,55,197.99
911,E4,152.5,0.5,47,197.99
912,G4,152.5,0.5,47,197.99
913,G3,152.5,0.25,32,197.99
914,C4,152.5,0.25,32,197.99
915,B2,153.0,0.25,50,197.99
916,D5,153.5,1.0,50,197.99
917,F4,153.5,0.5,40,197.99
918,G#4,153.5,0.5,40,197.99
919,G#3,153.5,0.25,32,197.99
920,D4,153.5,0.25,32,197.99
921,B2,154.0,0.25,49,197.99
922,E-5,154.5,1.0,52,197.99
923,A4,154.5,0.5,45,197.99
924,F#4,154.5,0.5,45,197.99
925,A3,154.5,0.25,31,197.99
926,E-4,154.5,0.25,31,197.99
927,E2,155.0,0.25,49,197.99
928,E5,155.5,0.5,49,197.99
929,G#4,155.5,0.5,39,197.99
930,E4,155.5,0.5,39,197.99
931,B3,155.5,0.25,29,197.99
932,E3,155.5,0.25,29,197.99
933,D4,155.5,0.25,29,197.99
934,E5,156.0,0.5,49,197.99
935,A2,156.0,0.25,55,197.99
936,E5,156.5,1.0,50,197.99
937,E4,156.5,0.5,50,197.99
938,A4,156.5,0.5,50,197.99
939,C4,156.5,0.25,34,197.99
940,E3,156.5,0.25,34,197.99
941,C3,157.0,0.25,64,197.99
942,A5,157.5,2.0,70,197.99
943,A4,157.5,0.5,60,197.99
944,E5,157.5,0.5,60,197.99
945,E4,157.5,0.25,41,197.99
946,A3,157.5,0.25,41,197.99
947,B2,158.0,0.25,64,197.99
948,D5,158.5,0.5,60,197.99
949,A4,158.5,0.5,60,197.99
950,F3,158.5,0.25,41,197.99
951,D4,158.5,0.25,41,197.99
952,E3,159.0,0.25,64,197.99
953,G#4,159.5,0.5,57,197.99
954,E5,159.5,0.5,57,197.99
955,G#5,159.5,0.5,57,197.99
956,B3,159.5,0.25,41,197.99
957,E4,159.5,0.25,41,197.99
958,C3,160.0,0.25,55,197.99
959,E4,160.5,0.5,50,197.99
960,A4,160.5,0.5,50,197.99
961,E5,160.5,0.5,50,197.99
962,E4,160.5,0.25,34,197.99
963,A3,160.5,0.25,34,197.99
964,A2,161.0,0.25,64,197.99
965,C6,161.5,2.0,70,197.99
966,A4,161.5,0.5,60,197.99
967,E5,161.5,0.5,60,197.99
968,A3,161.5,0.25,41,197.99
969,E4,161.5,0.25,41,197.99
970,D3,162.0,0.25,64,197.99
971,F5,162.5,0.5,60,197.99
972,C5,162.5,0.5,60,197.99
973,A3,162.5,0.25,41,197.99
974,F4,162.5,0.25,41,197.99
975,D3,163.0,0.25,64,197.99
976,B5,163.5,0.5,64,197.99
977,B4,163.5,0.5,53,197.99
978,F5,163.5,0.5,53,197.99
979,F4,163.5,0.25,41,197.99
980,G#3,163.5,0.25,41,197.99
981,B5,164.0,0.5,64,197.99
982,C3,164.0,0.25,55,197.99
983,A5,164.5,0.5,64,197.99
984,A4,164.5,0.25,52,197.99
985,F5,164.5,0.25,52,197.99
986,F4,164.5,0.25,34,197.99
987,A3,164.5,0.25,34,197.99
988,C3,165.0,0.25,61,197.99
989,E6,165.5,0.25,59,197.99
990,A5,165.5,0.25,59,197.99
991,E5,165.5,0.25,59,197.99
992,E4,165.5,0.25,40,197.99
993,A3,165.5,0.25,40,197.99
994,B2,166.0,0.25,63,197.99
995,D5,166.5,0.25,61,197.99
996,A5,166.5,0.25,61,197.99
997,D6,166.5,0.25,61,197.99
998,D4,166.5,0.25,41,197.99
999,F3,166.5,0.25,41,197.99
1000,E2,167.0,0.25,66,197.99
1001,E6,167.5,0.25,63,197.99
1002,G#5,167.5,0.25,63,197.99
1003,E5,167.5,0.25,63,197.99
1004,D4,167.5,0.25,41,197.99
1005,B3,167.5,0.25,41,197.99
1006,E3,167.5,0.25,41,197.99
1007,A2,168.0,0.25,68,197.99
1008,C6,168.5,0.25,63,197.99
1009,E5,168.5,0.25,63,197.99
1010,C5,168.5,0.25,63,197.99
1011,C4,168.5,0.25,42,197.99
1012,E3,168.5,0.25,42,197.99
1013,B2,169.0,0.25,66,197.99
1014,G#5,169.5,0.25,58,197.99
1015,E5,169.5,0.25,58,197.99
1016,G#4,169.5,0.25,58,197.99
1017,D4,169.5,0.25,40,197.99
1018,E3,169.5,0.25,40,197.99
1019,C3,170.0,0.25,61,197.99
1020,A5,170.5,0.25,53,197.99
1021,E5,170.5,0.25,53,197.99
1022,A4,170.5,0.25,53,197.99
1023,E4,170.5,0.25,38,197.99
1024,E3,170.5,0.25,38,197.99
1025,A2,171.0,0.25,58,197.99
1026,C6,171.5,0.25,50,197.99
1027,E5,171.5,0.25,50,197.99
1028,C5,171.5,0.25,50,197.99
1029,C4,171.5,0.25,34,197.99
1030,E3,171.5,0.25,34,197.99
1031,E2,172.0,0.25,55,197.99
1032,B4,172.5,0.25,50,197.99
1033,E5,172.5,0.25,50,197.99
1034,B5,172.5,0.25,50,197.99
1035,D4,172.5,0.25,34,197.99
1036,E3,172.5,0.25,34,197.99
1037,A2,173.0,0.25,55,197.99
1038,A4,173.5,0.25,50,197.99
1039,E5,173.5,0.25,50,197.99
1040,A5,173.5,0.25,50,197.99
1041,C4,173.5,0.25,34,197.99
1042,E3,173.5,0.25,34,197.99
1043,B2,174.0,0.25,55,197.99
1044,E4,174.5,0.25,50,197.99
1045,B4,174.5,0.25,50,197.99
1046,E5,174.5,0.25,50,197.99
1047,E3,174.5,0.25,33,197.99
1048,D4,174.5,0.25,33,197.99
1049,G#3,174.5,0.25,33,197.99
1050,A2,175.0,0.25,55,197.99
1051,A4,175.5,0.25,50,197.99
1052,E5,175.5,0.25,50,197.99
1053,A5,175.5,0.25,50,197.99
1054,E3,175.5,0.25,33,197.99
1055,C4,175.5,0.25,33,197.99
1056,A3,175.5,0.25,33,197.99
1057,E2,176.0,0.25,55,197.99
1058,E5,176.5,0.25,50,197.99
1059,B4,176.5,0.25,50,197.99
1060,B5,176.5,0.25,50,197.99
1061,E3,176.5,0.25,33,197.99
1062,D4,176.5,0.25,33,197.99
1063,G#3,176.5,0.25,33,197.99
1064,A2,177.0,0.25,55,197.99
1065,A4,177.5,0.25,50,197.99
1066,E5,177.5,0.25,50,197.99
1067,A5,177.5,0.25,50,197.99
1068,E3,177.5,0.25,33,197.99
1069,C4,177.5,0.25,33,197.99
1070,A3,177.5,0.25,33,197.99
1071,B2,178.0,0.25,56,197.99
1072,E5,178.5,0.25,52,197.99
1073,B4,178.5,0.25,52,197.99
1074,E4,178.5,0.25,52,197.99
1075,E3,178.5,0.25,37,197.99
1076,D4,178.5,0.25,37,197.99
1077,G#3,178.5,0.25,37,197.99
1078,A2,179.0,0.25,60,197.99
1079,A4,179.5,0.25,56,197.99
1080,E5,179.5,0.25,56,197.99
1081,A5,179.5,0.25,56,197.99
1082,A3,179.5,0.25,41,197.99
1083,C4,179.5,0.25,41,197.99
1084,E3,179.5,0.25,41,197.99
1085,G2,180.0,0.25,64,197.99
1086,B5,180.5,0.25,61,197.99
1087,E5,180.5,0.25,61,197.99
1088,B4,180.5,0.25,61,197.99
1089,E4,180.5,0.25,42,197.99
1090,G3,180.5,0.25,42,197.99
1091,A2,181.0,0.25,68,197.99
1092,C6,181.5,0.25,65,197.99
1093,E5,181.5,0.25,65,197.99
1094,C5,181.5,0.25,65,197.99
1095,E4,181.5,0.25,40,197.99
1096,A3,181.5,0.25,40,197.99
1097,B2,182.0,0.25,63,197.99
1098,G4,182.5,0.25,58,197.99
1099,B4,182.5,0.25,58,197.99
1100,G5,182.5,0.25,58,197.99
1101,E4,182.5,0.25,41,197.99
1102,B3,182.5,0.25,41,197.99
1103,B2,183.0,0.25,62,197.99
1104,F#5,183.5,0.25,57,197.99
1105,B4,183.5,0.25,57,197.99
1106,A4,183.5,0.25,57,197.99
1107,E-4,183.5,0.25,40,197.99
1108,B3,183.5,0.25,40,197.99
1109,E3,184.0,0.25,61,197.99
1110,E5,184.5,0.25,57,197.99
1111,B4,184.5,0.25,57,197.99
1112,G#4,184.5,0.25,57,197.99
1113,E4,184.5,0.25,40,197.99
1114,B3,184.5,0.25,40,197.99
1115,E-3,185.0,0.25,60,197.99
1116,F#5,185.5,0.25,56,197.99
1117,C5,185.5,0.25,56,197.99
1118,A4,185.5,0.25,56,197.99
1119,F#4,185.5,0.25,40,197.99
1120,C4,185.5,0.25,40,197.99
1121,D3,186.0,0.25,61,197.99
1122,B4,186.5,0.25,53,197.99
1123,G5,186.5,0.25,53,197.99
1124,F5,186.5,0.25,53,197.99
1125,G4,186.5,0.25,53,197.99
1126,F4,186.5,0.25,38,197.99
1127,B3,186.5,0.25,38,197.99
1128,E2,187.0,0.25,58,197.99
1129,D5,187.5,0.25,50,197.99
1130,G#5,187.5,0.25,50,197.99
1131,E5,187.5,0.25,50,197.99
1132,G#4,187.5,0.25,50,197.99
1133,E4,187.5,0.25,34,197.99
1134,B3,187.5,0.25,34,197.99
1135,A2,188.0,0.25,55,197.99
1136,A4,188.5,0.25,49,197.99
1137,C5,188.5,0.25,49,197.99
1138,E5,188.5,0.25,49,197.99
1139,A5,188.5,0.25,49,197.99
1140,E4,188.5,0.25,34,197.99
1141,A3,188.5,0.25,34,197.99
1142,C3,189.0,0.25,55,197.99
1143,A5,189.5,2.0,71,197.99
1144,A4,189.5,0.25,51,197.99
1145,E5,189.5,0.25,51,197.99
1146,E4,189.5,0.25,34,197.99
1147,A3,189.5,0.25,34,197.99
1148,B2,190.0,0.25,55,197.99
1149,A4,190.5,0.25,52,197.99
1150,D5,190.5,0.25,52,197.99
1151,D4,190.5,0.25,34,197.99
1152,F3,190.5,0.25,34,197.99
1153,E3,191.0,0.25,55,197.99
1154,G#5,191.5,0.5,53,197.99
1155,G#4,191.5,0.25,44,197.99
1156,E5,191.5,0.25,44,197.99
1157,E4,191.5,0.25,34,197.99
1158,B3,191.5,0.25,34,197.99
1159,G#5,192.0,0.5,53,197.99
1160,C3,192.0,0.25,55,197.99
1161,A5,192.5,1.0,58,197.99
1162,A4,192.5,0.25,52,197.99
1163,E5,192.5,0.25,52,197.99
1164,E4,192.5,0.25,34,197.99
1165,A3,192.5,0.25,34,197.99
1166,A2,193.0,0.25,55,197.99
1167,C6,193.5,2.0,71,197.99
1168,C5,193.5,0.25,52,197.99
1169,E5,193.5,0.25,52,197.99
1170,E4,193.5,0.25,34,197.99
1171,A3,193.5,0.25,34,197.99
1172,D3,194.0,0.25,56,197.99
1173,F5,194.5,0.25,52,197.99
1174,C5,194.5,0.25,52,197.99
1175,F4,194.5,0.25,36,197.99
1176,A3,194.5,0.25,36,197.99
1177,D3,195.0,0.25,58,197.99
1178,B5,195.5,0.5,56,197.99
1179,B4,195.5,0.25,47,197.99
1180,F5,195.5,0.25,47,197.99
1181,F4,195.5,0.25,38,197.99
1182,G#3,195.5,0.25,38,197.99
1183,B5,196.0,0.5,56,197.99
1184,C3,196.0,0.25,60,197.99
1185,A5,196.5,1.0,58,197.99
1186,F5,196.5,0.25,49,197.99
1187,A4,196.5,0.25,49,197.99
1188,F4,196.5,0.25,38,197.99
1189,A3,196.5,0.25,38,197.99
1190,C3,197.0,0.25,61,197.99
1191,E6,197.5,1.0,73,197.99
1192,A5,197.5,0.25,51,197.99
1193,E5,197.5,0.25,51,197.99
1194,E4,197.5,0.25,40,197.99
1195,A3,197.5,0.25,40,197.99
1196,B2,198.0,0.25,63,197.99
1197,D6,198.5,1.0,70,197.99
1198,D5,198.5,0.25,55,197.99
1199,A5,198.5,0.25,55,197.99
1200,D4,198.5,0.25,41,197.99
1201,F3,198.5,0.25,41,197.99
1202,E2,199.0,0.25,66,197.99
1203,E6,199.5,0.5,82,197.99
1204,G#5,199.5,0.25,58,197.99
1205,E5,199.5,0.25,58,197.99
1206,D4,199.5,0.25,41,197.99
1207,B3,199.5,0.25,41,197.99
1208,E3,199.5,0.25,41,197.99
1209,E6,200.0,0.5,82,197.99
1210,A2,200.0,0.25,68,197.99
1211,C6,200.5,0.5,60,197.99
1212,E5,200.5,0.5,60,197.99
1213,C5,200.5,0.5,60,197.99
1214,A3,200.5,0.25,41,197.99
1215,C4,200.5,0.25,41,197.99
1216,E3,200.5,0.25,41,197.99
1217,B2,201.0,0.25,66,197.99
1218,B5,201.5,1.0,66,197.99
1219,E5,201.5,0.5,51,197.99
1220,B4,201.5,0.5,51,197.99
1221,G#3,201.5,0.25,39,197.99
1222,D4,201.5,0.25,39,197.99
1223,E3,201.5,0.25,39,197.99
1224,C3,202.0,0.25,61,197.99
1225,A5,202.5,1.5,61,197.99
1226,E5,202.5,0.5,47,197.99
1227,A4,202.5,0.5,47,197.99
1228,A3,202.5,0.25,37,197.99
1229,E4,202.5,0.25,37,197.99
1230,E3,202.5,0.25,37,197.99
1231,A2,203.0,0.25,58,197.99
1232,E5,203.5,0.5,48,197.99
1233,C5,203.5,0.5,48,197.99
1234,A3,203.5,0.25,33,197.99
1235,C4,203.5,0.25,33,197.99
1236,E3,203.5,0.25,33,197.99
1237,E2,204.0,0.25,55,197.99
1238,B5,204.5,1.0,69,197.99
1239,B4,204.5,0.5,53,197.99
1240,E5,204.5,0.5,53,197.99
1241,D4,204.5,0.25,34,197.99
1242,E3,204.5,0.25,34,197.99
1243,A2,205.0,0.25,55,197.99
1244,A5,205.5,1.0,66,197.99
1245,A4,205.5,0.5,51,197.99
1246,E5,205.5,0.5,51,197.99
1247,C4,205.5,0.25,34,197.99
1248,E3,205.5,0.25,34,197.99
1249,B2,206.0,0.25,55,197.99
1250,E5,206.5,1.0,64,197.99
1251,E4,206.5,0.5,50,197.99
1252,B4,206.5,0.5,50,197.99
1253,E3,206.5,0.25,33,197.99
1254,D4,206.5,0.25,33,197.99
1255,G#3,206.5,0.25,33,197.99
1256,A2,207.0,0.25,55,197.99
1257,A5,207.5,0.5,60,197.99
1258,A4,207.5,0.5,46,197.99
1259,E5,207.5,0.5,46,197.99
1260,E3,207.5,0.25,33,197.99
1261,C4,207.5,0.25,33,197.99
1262,A3,207.5,0.25,33,197.99
1263,A5,208.0,0.5,60,197.99
1264,E2,208.0,0.25,55,197.99
1265,B5,208.5,1.0,64,197.99
1266,E5,208.5,0.5,50,197.99
1267,B4,208.5,0.5,50,197.99
1268,E3,208.5,0.25,34,197.99
1269,D4,208.5,0.25,34,197.99
1270,A2,209.0,0.25,55,197.99
1271,A5,209.5,1.0,69,197.99
1272,A4,209.5,0.5,53,197.99
1273,E5,209.5,0.5,53,197.99
1274,E3,209.5,0.25,34,197.99
1275,C4,209.5,0.25,34,197.99
1276,B2,210.0,0.25,56,197.99
1277,E5,210.5,1.0,75,197.99
1278,B4,210.5,0.5,58,197.99
1279,E4,210.5,0.5,58,197.99
1280,E3,210.5,0.25,38,197.99
1281,D4,210.5,0.25,38,197.99
1282,C#3,211.0,0.25,60,197.99
1283,G4,211.5,0.5,60,197.99
1284,B-4,211.5,0.5,60,197.99
1285,G5,211.5,0.5,60,197.99
1286,B-3,211.5,0.25,42,197.99
1287,E4,211.5,0.25,42,197.99
1288,D3,212.0,2.0,64,197.99
1289,F#5,212.5,0.5,66,197.99
1290,B-4,212.5,0.5,66,197.99
1291,F#4,212.5,0.5,66,197.99
1292,D4,212.5,0.25,42,197.99
1293,B-3,212.5,0.25,42,197.99
1294,F3,213.0,0.25,68,197.99
1295,F5,213.5,0.5,68,197.99
1296,B-4,213.5,0.5,68,197.99
1297,F4,213.5,0.5,68,197.99
1298,D4,213.5,0.25,40,197.99
1299,B-3,213.5,0.25,40,197.99
1300,D2,214.0,0.25,63,197.99
1301,F4,214.5,0.5,64,197.99
1302,B-4,214.5,0.5,64,197.99
1303,D5,214.5,0.5,64,197.99
1304,B-3,214.5,0.25,41,197.99
1305,F3,214.5,0.25,41,197.99
1306,E2,215.0,0.25,62,197.99
1307,B4,215.5,0.5,56,197.99
1308,G#4,215.5,0.5,56,197.99
1309,D4,215.5,0.5,56,197.99
1310,B3,215.5,0.25,38,197.99
1311,E3,215.5,0.25,38,197.99
1312,A2,216.0,0.25,58,197.99
1313,A4,216.5,3.5,61,197.99
1314,C4,216.5,0.5,50,197.99
1315,A3,216.5,0.25,38,197.99
1316,E3,216.5,0.25,38,197.99
1317,D3,217.0,0.25,57,197.99
1318,F4,217.5,0.5,46,197.99
1319,D4,217.5,0.5,46,197.99
1320,A3,217.5,0.25,38,197.99
1321,F3,217.5,0.25,38,197.99
1322,A2,218.0,0.25,58,197.99
1323,E4,218.5,0.5,44,197.99
1324,C4,218.5,0.5,44,197.99
1325,A3,218.5,0.25,36,197.99
1326,E3,218.5,0.25,36,197.99
1327,D3,219.0,0.25,55,197.99
1328,F4,219.5,0.5,41,197.99
1329,D4,219.5,0.5,41,197.99
1330,A3,219.5,0.25,32,197.99
1331,F3,219.5,0.25,32,197.99
1332,A2,220.0,0.25,51,197.99
1333,E4,220.5,1.0,38,197.99
1334,C4,220.5,1.0,38,197.99
1335,A3,220.5,0.25,26,197.99
1336,E3,220.5,0.25,26,197.99
1337,C2,221.0,0.25,45,197.99
1338,E5,221.5,1.0,45,197.99
1339,A4,221.5,1.0,45,197.99
1340,E4,221.5,1.0,45,197.99
1341,A3,221.5,0.25,26,197.99
1342,E3,221.5,0.25,26,197.99
1343,D2,222.0,0.25,42,197.99
1344,D5,222.5,1.0,50,197.99
1345,F4,222.5,0.5,39,197.99
1346,B-4,222.5,0.5,39,197.99
1347,B-3,222.5,0.25,26,197.99
1348,F3,222.5,0.25,26,197.99
1349,E2,223.0,0.25,41,197.99
1350,B4,223.5,0.5,39,197.99
1351,G#4,223.5,0.5,39,197.99
1352,D4,223.5,0.5,39,197.99
1353,B3,223.5,0.25,26,197.99
1354,E3,223.5,0.25,26,197.99
1355,A2,224.0,0.25,44,197.99
1356,B4,224.0,0.5,39,197.99
1357,G#4,224.0,0.5,39,197.99
1358,D4,224.0,0.5,39,197.99
1359,A4,224.5,3.5,50,197.99
1360,C4,224.5,0.5,42,197.99
1361,E3,224.5,0.25,28,197.99
1362,A3,224.5,0.25,28,197.99
1363,D3,225.0,0.25,41,197.99
1364,F4,225.5,0.5,41,197.99
1365,D4,225.5,0.5,41,197.99
1366,A3,225.5,0.25,26,197.99
1367,F3,225.5,0.25,26,197.99
1368,A2,226.0,0.25,39,197.99
1369,E4,226.5,0.5,44,197.99
1370,C4,226.5,0.5,44,197.99
1371,E3,226.5,0.25,28,197.99
1372,A3,226.5,0.25,28,197.99
1373,D3,227.0,0.25,38,197.99
1374,F4,227.5,0.5,44,197.99
1375,D4,227.5,0.5,44,197.99
1376,F3,227.5,0.25,30,197.99
1377,A3,227.5,0.25,30,197.99
1378,A4,228.0,1.5,50,197.99
1379,A2,228.0,0.25,40,197.99
1380,C4,228.5,0.5,46,197.99
1381,E4,228.5,0.5,46,197.99
1382,A3,228.5,0.25,31,197.99
1383,E3,228.5,0.25,31,197.99
1384,C3,229.0,0.25,64,197.99
1385,E5,229.5,1.0,75,197.99
1386,E4,229.5,0.5,63,197.99
1387,A4,229.5,0.5,63,197.99
1388,C4,229.5,0.25,44,197.99
1389,E3,229.5,0.25,44,197.99
1390,B2,230.0,0.25,62,197.99
1391,A5,230.5,1.0,73,197.99
1392,A4,230.5,0.5,62,197.99
1393,E-5,230.5,0.5,62,197.99
1394,B3,230.5,0.25,44,197.99
1395,F4,230.5,0.25,44,197.99
1396,E3,231.0,0.25,62,197.99
1397,G#5,231.5,0.5,69,197.99
1398,G#4,231.5,0.5,57,197.99
1399,E5,231.5,0.5,57,197.99
1400,B3,231.5,0.25,44,197.99
1401,E4,231.5,0.25,44,197.99
1402,G#5,232.0,0.5,69,197.99
1403,A2,232.0,0.25,69,197.99
1404,G5,232.5,1.0,73,197.99
1405,G4,232.5,0.5,62,197.99
1406,C#5,232.5,0.5,62,197.99
1407,A3,232.5,0.25,44,197.99
1408,E4,232.5,0.25,44,197.99
1409,D3,233.0,0.25,59,197.99
1410,F#5,233.5,1.0,69,197.99
1411,F#4,233.5,0.5,57,197.99
1412,D5,233.5,0.5,57,197.99
1413,A3,233.5,0.25,44,197.99
1414,D4,233.5,0.25,44,197.99
1415,D2,234.0,0.25,59,197.99
1416,F5,234.5,1.0,62,197.99
1417,F4,234.5,0.5,52,197.99
1418,B-4,234.5,0.5,52,197.99
1419,F3,234.5,0.25,36,197.99
1420,B-3,234.5,0.25,36,197.99
1421,E2,235.0,0.25,41,197.99
1422,B4,235.5,0.5,39,197.99
1423,G#4,235.5,0.5,39,197.99
1424,D4,235.5,0.5,39,197.99
1425,B3,235.5,0.25,26,197.99
1426,E3,235.5,0.25,26,197.99
1427,A2,236.0,0.25,44,197.99
1428,B4,236.0,0.5,39,197.99
1429,G#4,236.0,0.5,39,197.99
1430,D4,236.0,0.5,39,197.99
1431,A4,236.5,1.5,50,197.99
1432,E4,236.5,0.5,42,197.99
1433,C4,236.5,0.5,42,197.99
1434,E3,236.5,0.25,28,197.99
1435,A3,236.5,0.25,28,197.99
1436,D3,237.0,0.25,41,197.99
1437,F4,237.5,1.5,48,197.99
1438,D4,237.5,0.5,39,197.99
1439,A3,237.5,0.25,28,197.99
1440,F3,237.5,0.25,28,197.99
1441,D2,238.0,0.25,39,197.99
1442,D5,238.5,1.0,44,197.99
1443,B-4,238.5,1.0,44,197.99
1444,F3,238.5,0.25,28,197.99
1445,B-3,238.5,0.25,28,197.99
1446,E2,239.0,0.25,38,197.99
1447,D4,239.5,0.5,37,197.99
1448,B4,239.5,0.5,37,197.99
1449,G#4,239.5,0.5,37,197.99
1450,E3,239.5,0.25,26,197.99
1451,B3,239.5,0.25,26,197.99
1452,F2,240.0,0.25,36,197.99
1453,D4,240.0,0.5,37,197.99
1454,B4,240.0,0.5,37,197.99
1455,G#4,240.0,0.5,37,197.99
1456,C4,240.5,1.0,41,197.99
1457,A4,240.5,1.0,41,197.99
1458,A3,240.5,0.25,27,197.99
1459,F3,240.5,0.25,27,197.99
1460,C2,241.0,0.25,55,197.99
1461,E4,241.5,1.0,53,197.99
1462,A4,241.5,1.0,53,197.99
1463,E5,241.5,1.0,53,197.99
1464,A3,241.5,0.25,34,197.99
1465,C3,241.5,0.25,34,197.99
1466,D2,242.0,0.25,55,197.99
1467,F4,242.5,1.0,52,197.99
1468,B-4,242.5,1.0,52,197.99
1469,D5,242.5,1.0,52,197.99
1470,D3,242.5,0.25,34,197.99
1471,B-3,242.5,0.25,34,197.99
1472,E2,243.0,0.25,55,197.99
1473,D4,243.5,0.5,50,197.99
1474,G#4,243.5,0.5,50,197.99
1475,E3,243.5,0.25,34,197.99
1476,B3,243.5,0.25,34,197.99
1477,A2,244.0,0.25,41,197.99
1478,D4,244.0,0.5,50,197.99
1479,G#4,244.0,0.5,50,197.99
1480,A4,244.5,2.0,47,197.99
1481,C4,244.5,0.5,40,197.99
1482,E3,244.5,0.25,26,197.99
1483,A3,244.5,0.25,26,197.99
1484,D3,245.0,0.25,39,197.99
1485,F4,245.5,0.5,41,197.99
1486,D4,245.5,0.5,41,197.99
1487,A3,245.5,0.25,26,197.99
1488,F3,245.5,0.25,26,197.99
1489,A2,246.0,0.25,38,197.99
1490,C5,246.5,1.0,46,197.99
1491,E4,246.5,0.5,42,197.99
1492,C4,246.5,0.5,42,197.99
1493,E3,246.5,0.25,26,197.99
1494,A3,246.5,0.25,26,197.99
1495,D3,247.0,0.25,36,197.99
1496,B-4,247.5,0.5,42,197.99
1497,F4,247.5,0.5,38,197.99
1498,D4,247.5,0.5,38,197.99
1499,F3,247.5,0.25,28,197.99
1500,A3,247.5,0.25,28,197.99
1501,B-4,248.0,0.5,42,197.99
1502,A2,248.0,0.25,39,197.99
1503,A4,248.5,2.0,42,197.99
1504,E4,248.5,0.5,37,197.99
1505,C4,248.5,0.5,37,197.99
1506,E3,248.5,0.25,23,197.99
1507,A3,248.5,0.25,23,197.99
1508,D3,249.0,0.25,36,197.99
1509,F4,249.5,0.5,36,197.99
1510,D4,249.5,0.5,36,197.99
1511,A3,249.5,0.25,22,197.99
1512,F3,249.5,0.25,22,197.99
1513,A2,250.0,0.25,35,197.99
1514,C5,250.5,1.0,41,197.99
1515,E4,250.5,0.5,38,197.99
1516,C4,250.5,0.5,38,197.99
1517,E3,250.5,0.25,24,197.99
1518,A3,250.5,0.25,24,197.99
1519,A2,251.0,0.5,33,197.99
1520,B-4,251.5,0.5,36,197.99
1521,F4,251.5,0.5,36,197.99
1522,D4,251.5,0.5,36,197.99
1523,D3,251.5,0.5,26,197.99
1524,B-3,251.5,0.5,26,197.99
1525,A2,252.0,4.0,27,197.99
1526,D3,252.25,3.75,27,197.99
1527,F3,252.5,3.5,33,197.99
1528,B-3,252.75,3.25,33,197.99
1529,D4,253.0,3.0,35,197.99
1530,F4,253.25,2.75,40,197.99
1531,B-4,253.5,2.5,49,197.99
1532,D4,256.0,4.0,35,197.99
1533,F4,256.0,4.0,40,197.99
1534,B-4,256.0,2.0,49,197.99
1535,A2,256.0,4.0,27,197.99
1536,F3,256.0,4.0,33,197.99
1537,D5,258.0,1.0,41,197.99
1538,C#5,259.0,1.0,41,197.99
1539,A2,260.0,4.0,27,197.99
1540,E3,260.25,3.75,27,197.99
1541,A3,260.5,3.5,33,197.99
1542,C#4,260.75,3.25,35,197.99
1543,E4,261.0,3.0,35,197.99
1544,A4,261.25,2.75,41,197.99
