,note_name,start_time,duration,velocity,tempo
0,D2,0.0,0.25,92,115.11
1,A2,0.25,1.0,56,115.11
2,F3,0.5,0.25,56,115.11
3,D2,0.75,0.25,46,115.11
4,A3,1.0,0.5,69,115.11
5,D2,1.5,0.25,75,115.11
6,A2,1.75,1.0,53,115.11
7,F3,2.0,0.25,53,115.11
8,D2,2.25,0.25,48,115.11
9,A3,2.5,0.5,65,115.11
10,D2,3.0,0.25,63,115.11
11,A2,3.25,1.0,51,115.11
12,F3,3.5,0.25,51,115.11
13,D2,3.75,0.25,46,115.11
14,A3,4.0,0.5,60,115.11
15,D2,4.5,0.25,61,115.11
16,A2,4.75,1.0,52,115.11
17,F3,5.0,0.25,53,115.11
18,D2,5.25,0.25,46,115.11
19,A3,5.5,0.5,60,115.11
20,A4,6.0,1.0,79,115.11
21,D2,6.0,0.25,55,115.11
22,A2,6.25,1.0,48,115.11
23,F3,6.5,0.25,47,115.11
24,D2,6.75,0.25,41,115.11
25,F4,7.0,0.5,73,115.11
26,A3,7.0,0.5,50,115.11
27,D4,7.5,1.5,70,115.11
28,D2,7.5,0.25,54,115.11
29,A2,7.75,1.0,45,115.11
30,F3,8.0,0.25,45,115.11
31,D2,8.25,0.25,38,115.11
32,A3,8.5,0.5,53,115.11
33,D4,9.0,1.5,70,115.11
34,D2,9.0,0.25,55,115.11
35,A2,9.25,1.0,45,115.11
36,F3,9.5,0.25,46,115.11
37,D2,9.75,0.25,40,115.11
38,A3,10.0,0.5,53,115.11
39,F4,10.5,0.5,72,115.11
40,D2,10.5,0.25,54,115.11
41,A2,10.75,1.0,47,115.11
42,A4,11.0,0.75,77,115.11
43,F3,11.0,0.25,47,115.11
44,D2,11.25,0.25,42,115.11
45,A3,11.5,0.5,56,115.11
46,D5,11.75,0.25,78,115.11
47,C5,12.0,2.75,77,115.11
48,D2,12.0,0.25,57,115.11
49,A2,12.25,1.0,49,115.11
50,F3,12.5,0.25,49,115.11
51,D2,12.75,0.25,44,115.11
52,A3,13.0,0.5,54,115.11
53,D2,13.5,0.25,56,115.11
54,A2,13.75,1.0,48,115.11
55,F3,14.0,0.25,49,115.11
56,D2,14.25,0.25,43,115.11
57,A3,14.5,0.5,54,115.11
58,B-4,14.75,0.25,75,115.11
59,A4,15.0,1.5,70,115.11
60,D2,15.0,0.25,54,115.11
61,A2,15.25,1.0,48,115.11
62,F3,15.5,0.25,48,115.11
63,D2,15.75,0.25,43,115.11
64,A3,16.0,0.5,51,115.11
65,D2,16.5,0.25,53,115.11
66,A2,16.75,1.0,48,115.11
67,F3,17.0,0.25,48,115.11
68,D2,17.25,0.25,42,115.11
69,A3,17.5,0.5,51,115.11
70,A4,17.75,0.25,77,115.11
71,A4,18.0,1.0,77,115.11
72,D2,18.0,0.25,57,115.11
73,A2,18.25,1.0,47,115.11
74,F3,18.5,0.25,47,115.11
75,D2,18.75,0.25,42,115.11
76,A3,19.0,0.5,54,115.11
77,F4,19.25,83/1000,63,115.11
78,D4,19.325,29/500,63,115.11
79,E4,19.325,29/500,63,115.11
80,F4,19.442,29/500,63,115.11
81,E4,19.5,0.5,72,115.11
82,D2,19.5,0.25,54,115.11
83,A2,19.75,1.0,45,115.11
84,D4,20.0,0.5,72,115.11
85,F3,20.0,0.25,45,115.11
86,D2,20.25,0.25,41,115.11
87,A3,20.5,0.5,53,115.11
88,D2,21.0,0.25,55,115.11
89,A2,21.25,1.0,45,115.11
90,F3,21.5,0.25,45,115.11
91,D2,21.75,0.25,39,115.11
92,F4,22.0,0.5,70,115.11
93,A3,22.0,0.5,53,115.11
94,A4,22.5,0.5,72,115.11
95,D2,22.5,0.25,54,115.11
96,A2,22.75,1.0,46,115.11
97,D5,23.0,0.75,76,115.11
98,F3,23.0,0.25,46,115.11
99,D2,23.25,0.25,40,115.11
100,A3,23.5,0.5,53,115.11
101,F5,23.75,0.25,77,115.11
102,E5,24.0,2.75,79,115.11
103,D2,24.0,0.25,55,115.11
104,A2,24.25,1.0,47,115.11
105,F3,24.5,0.25,47,115.11
106,D2,24.75,0.25,41,115.11
107,A3,25.0,0.5,53,115.11
108,D2,25.5,0.25,54,115.11
109,A2,25.75,1.0,47,115.11
110,F3,26.0,0.25,46,115.11
111,D2,26.25,0.25,43,115.11
112,A3,26.5,0.5,53,115.11
113,D5,26.75,0.25,79,115.11
114,A4,27.0,0.75,79,115.11
115,D2,27.0,0.25,55,115.11
116,A2,27.25,1.0,47,115.11
117,F3,27.5,0.25,47,115.11
118,A4,27.75,0.125,57,115.11
119,D2,27.75,0.25,44,115.11
120,B4,27.875,0.125,57,115.11
121,C5,28.0,0.125,58,115.11
122,A3,28.0,0.5,53,115.11
123,B4,28.125,0.125,58,115.11
124,C5,28.25,0.125,59,115.11
125,B4,28.375,0.125,59,115.11
126,C5,28.5,0.125,60,115.11
127,D2,28.5,0.25,54,115.11
128,B4,28.625,0.125,60,115.11
129,C5,28.75,0.125,61,115.11
130,G2,28.75,1.0,46,115.11
131,B4,28.875,0.125,61,115.11
132,C5,29.0,0.125,62,115.11
133,F3,29.0,0.25,47,115.11
134,B4,29.125,0.125,62,115.11
135,C5,29.25,0.125,63,115.11
136,D2,29.25,0.25,42,115.11
137,B4,29.375,0.125,63,115.11
138,C5,29.5,0.125,63,115.11
139,G3,29.5,0.5,53,115.11
140,B4,29.625,0.125,63,115.11
141,A4,29.75,0.125,64,115.11
142,B4,29.875,0.125,64,115.11
143,C5,30.0,1.5,79,115.11
144,C2,30.0,0.25,62,115.11
145,A2,30.25,1.0,48,115.11
146,F3,30.5,0.25,48,115.11
147,C2,30.75,0.25,44,115.11
148,A3,31.0,0.5,56,115.11
149,B-4,31.5,1.0,78,115.11
150,C2,31.5,0.25,60,115.11
151,A2,31.75,1.0,49,115.11
152,F3,32.0,0.25,49,115.11
153,C2,32.25,0.25,45,115.11
154,A4,32.5,0.5,73,115.11
155,A3,32.5,0.5,55,115.11
156,G4,33.0,0.125,60,115.11
157,C2,33.0,0.25,59,115.11
158,A4,33.125,0.125,61,115.11
159,G4,33.25,0.125,61,115.11
160,G2,33.25,0.25,48,115.11
161,A4,33.375,0.125,62,115.11
162,G4,33.5,0.125,63,115.11
163,F3,33.5,0.25,49,115.11
164,A4,33.625,0.125,63,115.11
165,G4,33.75,0.125,63,115.11
166,C2,33.75,0.25,45,115.11
167,A4,33.875,0.125,64,115.11
168,G4,34.0,0.125,64,115.11
169,G3,34.0,0.5,63,115.11
170,A4,34.125,0.125,65,115.11
171,F4,34.25,0.125,66,115.11
172,G4,34.375,0.125,67,115.11
173,A4,34.5,1.0,78,115.11
174,C2,34.5,0.25,60,115.11
175,G2,34.75,0.25,49,115.11
176,F3,35.0,0.25,49,115.11
177,C2,35.25,0.25,43,115.11
178,G3,35.5,0.5,62,115.11
179,F4,35.75,0.25,78,115.11
180,C4,36.0,3.0,72,115.11
181,C2,36.0,0.25,63,115.11
182,B-2,36.25,0.25,50,115.11
183,F3,36.5,0.25,50,115.11
184,C2,36.75,0.25,45,115.11
185,G3,37.0,0.5,63,115.11
186,C2,37.5,0.25,63,115.11
187,B-2,37.75,0.25,48,115.11
188,F3,38.0,0.25,48,115.11
189,C2,38.25,0.25,42,115.11
190,G3,38.5,0.5,63,115.11
191,C4,39.0,3/10,72,115.11
192,C2,39.0,0.25,61,115.11
193,B-2,39.25,0.25,51,115.11
194,D4,39.3,1/10,61,115.11
195,C4,39.4,1/10,62,115.11
196,B3,39.5,1/10,63,115.11
197,E3,39.5,0.25,50,115.11
198,C4,39.6,1/10,63,115.11
199,D4,39.7,1/10,63,115.11
200,C2,39.75,0.25,44,115.11
201,E4,39.8,1/10,64,115.11
202,F4,39.9,1/10,64,115.11
203,G4,40.0,1/10,65,115.11
204,G3,40.0,0.5,56,115.11
205,A4,40.1,1/10,66,115.11
206,B-4,40.2,1/10,66,115.11
207,C5,40.3,1/10,67,115.11
208,D5,40.4,1/10,68,115.11
209,E5,40.5,1/10,69,115.11
210,C2,40.5,0.25,61,115.11
211,F5,40.6,1/10,69,115.11
212,G5,40.7,1/10,70,115.11
213,B-2,40.75,0.25,49,115.11
214,A5,40.8,1/10,71,115.11
215,B-5,40.9,1/10,71,115.11
216,C6,41.0,1/10,72,115.11
217,E3,41.0,0.25,49,115.11
218,D6,41.1,1/10,72,115.11
219,E6,41.2,1/10,72,115.11
220,C2,41.25,0.25,45,115.11
221,F6,41.3,1/10,73,115.11
222,G6,41.4,1/10,74,115.11
223,A6,41.5,1/10,75,115.11
224,G3,41.5,0.5,57,115.11
225,B-6,41.6,1/10,75,115.11
226,C7,41.7,1/10,76,115.11
227,D7,41.8,1/10,77,115.11
228,E7,41.9,1/10,77,115.11
229,F7,42.0,1.0,90,115.11
230,F2,42.0,0.25,64,115.11
231,C3,42.25,0.25,52,115.11
232,A3,42.5,0.25,52,115.11
233,F2,42.75,0.25,45,115.11
234,C4,43.0,0.5,59,115.11
235,F2,43.5,0.25,64,115.11
236,C3,43.75,0.25,52,115.11
237,A3,44.0,0.25,52,115.11
238,F2,44.25,0.25,45,115.11
239,C4,44.5,0.5,59,115.11
240,B4,45.0,0.125,64,115.11
241,F2,45.0,0.25,64,115.11
242,C5,45.125,0.125,64,115.11
243,B4,45.25,0.125,64,115.11
244,E-3,45.25,0.25,54,115.11
245,C5,45.375,0.125,64,115.11
246,B4,45.5,0.125,64,115.11
247,A3,45.5,0.25,54,115.11
248,C5,45.625,0.125,64,115.11
249,B4,45.75,0.125,65,115.11
250,F2,45.75,0.25,46,115.11
251,C5,45.875,0.125,65,115.11
252,B4,46.0,0.125,65,115.11
253,B3,46.0,0.5,60,115.11
254,C5,46.125,0.125,65,115.11
255,A4,46.25,0.125,65,115.11
256,B4,46.375,0.125,65,115.11
257,C5,46.5,1.0,77,115.11
258,F2,46.5,0.25,64,115.11
259,B2,46.75,0.25,53,115.11
260,A3,47.0,0.25,53,115.11
261,F2,47.25,0.25,45,115.11
262,B3,47.5,0.5,59,115.11
263,A4,47.75,0.25,77,115.11
264,E4,48.0,1.0,76,115.11
265,E2,48.0,0.25,64,115.11
266,C3,48.25,0.25,52,115.11
267,A3,48.5,0.25,52,115.11
268,E2,48.75,0.25,45,115.11
269,F6,49.0,23/40,87,115.11
270,C4,49.0,0.5,60,115.11
271,E2,49.5,0.25,64,115.11
272,E6,49.575,119/1000,74,115.11
273,C6,49.694,119/1000,73,115.11
274,C3,49.75,0.25,54,115.11
275,A5,49.812,119/1000,72,115.11
276,F5,49.931,119/1000,72,115.11
277,A3,50.0,0.25,54,115.11
278,E5,50.05,119/1000,72,115.11
279,C5,50.169,119/1000,72,115.11
280,E2,50.25,0.25,46,115.11
281,A4,50.288,119/1000,71,115.11
282,F4,50.406,119/1000,70,115.11
283,C4,50.5,0.5,61,115.11
284,E4,50.525,119/1000,70,115.11
285,C4,50.644,119/1000,69,115.11
286,A3,50.763,119/1000,68,115.11
287,F3,50.881,119/1000,68,115.11
288,E3,51.0,1.0,85,115.11
289,E2,51.0,0.25,64,115.11
290,D3,51.25,0.25,54,115.11
291,G#3,51.5,0.25,54,115.11
292,E2,51.75,0.25,49,115.11
293,E3,52.0,1/5,64,115.11
294,B3,52.0,0.5,60,115.11
295,F3,52.2,67/1000,65,115.11
296,E3,52.267,67/1000,66,115.11
297,E-3,52.333,67/1000,67,115.11
298,E3,52.4,67/1000,67,115.11
299,F#3,52.467,67/1000,68,115.11
300,E2,52.5,0.25,64,115.11
301,G#3,52.533,67/1000,68,115.11
302,A3,52.6,67/1000,68,115.11
303,B3,52.667,67/1000,69,115.11
304,C4,52.733,67/1000,69,115.11
305,D3,52.75,0.25,53,115.11
306,D4,52.8,67/1000,70,115.11
307,E4,52.867,67/1000,70,115.11
308,F#4,52.933,67/1000,71,115.11
309,G#4,53.0,67/1000,71,115.11
310,G#3,53.0,0.25,53,115.11
311,A4,53.067,67/1000,72,115.11
312,B4,53.133,67/1000,72,115.11
313,C5,53.2,67/1000,72,115.11
314,E2,53.25,0.25,47,115.11
315,D5,53.267,67/1000,72,115.11
316,E5,53.333,67/1000,73,115.11
317,F#5,53.4,67/1000,74,115.11
318,G#5,53.467,67/1000,74,115.11
319,B3,53.5,0.5,64,115.11
320,A5,53.533,67/1000,75,115.11
321,B5,53.6,67/1000,75,115.11
322,C6,53.667,67/1000,76,115.11
323,D6,53.733,67/1000,76,115.11
324,E6,53.8,67/1000,77,115.11
325,F#6,53.867,67/1000,77,115.11
326,G#6,53.933,67/1000,78,115.11
327,A6,54.0,1.0,85,115.11
328,A1,54.0,0.25,67,115.11
329,E2,54.25,0.25,53,115.11
330,C3,54.5,0.25,54,115.11
331,A1,54.75,0.25,47,115.11
332,E3,55.0,0.5,59,115.11
333,A1,55.5,0.25,65,115.11
334,E2,55.75,0.25,53,115.11
335,C3,56.0,0.25,53,115.11
336,A1,56.25,0.25,47,115.11
337,E3,56.5,0.5,58,115.11
338,A1,57.0,0.25,64,115.11
339,E2,57.25,0.25,50,115.11
340,C3,57.5,0.25,50,115.11
341,A1,57.75,0.25,45,115.11
342,E3,58.0,0.5,59,115.11
343,A1,58.5,0.25,64,115.11
344,E2,58.75,0.25,48,115.11
345,C3,59.0,0.25,48,115.11
346,A1,59.25,0.25,45,115.11
347,E3,59.5,0.5,58,115.11
348,E4,60.0,1.0,77,115.11
349,A1,60.0,0.25,55,115.11
350,E2,60.25,0.25,46,115.11
351,C3,60.5,0.25,46,115.11
352,A1,60.75,0.25,40,115.11
353,C4,61.0,0.5,70,115.11
354,E3,61.0,0.5,53,115.11
355,A3,61.5,1.5,67,115.11
356,A1,61.5,0.25,54,115.11
357,E2,61.75,0.25,45,115.11
358,C3,62.0,0.25,46,115.11
359,A1,62.25,0.25,41,115.11
360,E3,62.5,0.5,53,115.11
361,A3,63.0,1.5,67,115.11
362,A1,63.0,0.25,55,115.11
363,E2,63.25,0.25,46,115.11
364,C3,63.5,0.25,47,115.11
365,A1,63.75,0.25,41,115.11
366,E3,64.0,0.5,53,115.11
367,C4,64.5,0.5,72,115.11
368,A1,64.5,0.25,54,115.11
369,E2,64.75,0.25,48,115.11
370,E4,65.0,0.75,77,115.11
371,C3,65.0,0.25,48,115.11
372,A1,65.25,0.25,43,115.11
373,E3,65.5,0.5,56,115.11
374,A4,65.75,0.25,78,115.11
375,G4,66.0,2.75,77,115.11
376,A1,66.0,0.25,57,115.11
377,E2,66.25,0.25,48,115.11
378,C3,66.5,0.25,48,115.11
379,A1,66.75,0.25,43,115.11
380,E3,67.0,0.5,54,115.11
381,A1,67.5,0.25,56,115.11
382,E2,67.75,0.25,48,115.11
383,C3,68.0,0.25,48,115.11
384,A1,68.25,0.25,44,115.11
385,E3,68.5,0.5,54,115.11
386,F4,68.75,0.25,75,115.11
387,E4,69.0,1.5,70,115.11
388,A1,69.0,0.25,54,115.11
389,E2,69.25,0.25,48,115.11
390,C3,69.5,0.25,48,115.11
391,A1,69.75,0.25,43,115.11
392,E3,70.0,0.5,51,115.11
393,A1,70.5,0.25,53,115.11
394,E2,70.75,0.25,47,115.11
395,C3,71.0,0.25,47,115.11
396,A1,71.25,0.25,43,115.11
397,E3,71.5,0.5,51,115.11
398,E4,71.75,0.25,77,115.11
399,E4,72.0,1.0,77,115.11
400,A1,72.0,0.25,57,115.11
401,E2,72.25,0.25,48,115.11
402,C3,72.5,0.25,48,115.11
403,A1,72.75,0.25,45,115.11
404,E3,73.0,0.5,54,115.11
405,C4,73.25,83/1000,63,115.11
406,A3,73.325,29/500,63,115.11
407,B3,73.325,29/500,63,115.11
408,C4,73.442,29/500,63,115.11
409,B3,73.5,0.5,72,115.11
410,A1,73.5,0.25,54,115.11
411,E2,73.75,0.25,46,115.11
412,A3,74.0,0.5,72,115.11
413,C3,74.0,0.25,45,115.11
414,A1,74.25,0.25,41,115.11
415,E3,74.5,0.5,53,115.11
416,A1,75.0,0.25,55,115.11
417,E2,75.25,0.25,45,115.11
418,C3,75.5,0.25,45,115.11
419,A1,75.75,0.25,39,115.11
420,C4,76.0,0.5,70,115.11
421,E3,76.0,0.5,53,115.11
422,E4,76.5,0.5,72,115.11
423,A1,76.5,0.25,54,115.11
424,E2,76.75,0.25,47,115.11
425,A4,77.0,0.75,76,115.11
426,C3,77.0,0.25,47,115.11
427,A1,77.25,0.25,42,115.11
428,E3,77.5,0.5,53,115.11
429,C5,77.75,0.25,77,115.11
430,B4,78.0,2.75,79,115.11
431,A1,78.0,0.25,55,115.11
432,E2,78.25,0.25,46,115.11
433,C3,78.5,0.25,46,115.11
434,A1,78.75,0.25,43,115.11
435,E3,79.0,0.5,53,115.11
436,A1,79.5,0.25,54,115.11
437,E2,79.75,0.25,48,115.11
438,C3,80.0,0.25,47,115.11
439,A1,80.25,0.25,42,115.11
440,E3,80.5,0.5,53,115.11
441,A4,80.75,0.25,79,115.11
442,E4,81.0,0.75,79,115.11
443,A1,81.0,0.25,55,115.11
444,E2,81.25,0.25,47,115.11
445,C3,81.5,0.25,47,115.11
446,E4,81.75,0.125,57,115.11
447,A1,81.75,0.25,44,115.11
448,F#4,81.875,0.125,57,115.11
449,G4,82.0,0.125,58,115.11
450,E3,82.0,0.5,53,115.11
451,F#4,82.125,0.125,58,115.11
452,G4,82.25,0.125,59,115.11
453,F#4,82.375,0.125,59,115.11
454,G4,82.5,0.125,60,115.11
455,A1,82.5,0.25,54,115.11
456,F#4,82.625,0.125,60,115.11
457,G4,82.75,0.125,61,115.11
458,D2,82.75,0.25,47,115.11
459,F#4,82.875,0.125,61,115.11
460,G4,83.0,0.125,62,115.11
461,C3,83.0,0.25,47,115.11
462,F#4,83.125,0.125,62,115.11
463,G4,83.25,0.125,63,115.11
464,A1,83.25,0.25,42,115.11
465,F#4,83.375,0.125,63,115.11
466,G4,83.5,0.125,63,115.11
467,D3,83.5,0.5,53,115.11
468,F#4,83.625,0.125,63,115.11
469,E4,83.75,0.125,64,115.11
470,F#4,83.875,0.125,64,115.11
471,G4,84.0,1.5,79,115.11
472,G1,84.0,0.25,62,115.11
473,E2,84.25,0.25,48,115.11
474,C3,84.5,0.25,48,115.11
475,G1,84.75,0.25,42,115.11
476,E3,85.0,0.5,56,115.11
477,F4,85.5,1.0,78,115.11
478,G1,85.5,0.25,60,115.11
479,E2,85.75,0.25,50,115.11
480,C3,86.0,0.25,49,115.11
481,G1,86.25,0.25,44,115.11
482,E4,86.5,0.5,77,115.11
483,E3,86.5,0.5,55,115.11
484,D4,87.0,0.125,60,115.11
485,G1,87.0,0.25,59,115.11
486,E4,87.125,0.125,61,115.11
487,D4,87.25,0.125,61,115.11
488,D2,87.25,0.25,48,115.11
489,E4,87.375,0.125,62,115.11
490,D4,87.5,0.125,63,115.11
491,C3,87.5,0.25,48,115.11
492,E4,87.625,0.125,63,115.11
493,D4,87.75,0.125,63,115.11
494,G1,87.75,0.25,44,115.11
495,E4,87.875,0.125,64,115.11
496,D4,88.0,0.125,64,115.11
497,D3,88.0,0.5,53,115.11
498,E4,88.125,0.125,65,115.11
499,C4,88.25,0.125,66,115.11
500,D4,88.375,0.125,67,115.11
501,E4,88.5,1.0,78,115.11
502,G1,88.5,0.25,60,115.11
503,D2,88.75,0.25,50,115.11
504,C3,89.0,0.25,50,115.11
505,G1,89.25,0.25,44,115.11
506,D3,89.5,0.5,56,115.11
507,C4,89.75,0.25,78,115.11
508,G3,90.0,3.0,72,115.11
509,G1,90.0,0.25,60,115.11
510,D2,90.25,0.25,50,115.11
511,C3,90.5,0.25,49,115.11
512,G1,90.75,0.25,45,115.11
513,D3,91.0,0.5,55,115.11
514,G1,91.5,0.25,60,115.11
515,D2,91.75,0.25,50,115.11
516,C3,92.0,0.25,48,115.11
517,G1,92.25,0.25,44,115.11
518,D3,92.5,0.5,55,115.11
519,G3,93.0,3/10,72,115.11
520,G1,93.0,0.25,61,115.11
521,F2,93.25,0.25,51,115.11
522,A3,93.3,1/10,61,115.11
523,G3,93.4,1/10,62,115.11
524,F#3,93.5,1/10,63,115.11
525,B2,93.5,0.25,50,115.11
526,G3,93.6,1/10,63,115.11
527,A3,93.7,1/10,63,115.11
528,G1,93.75,0.25,44,115.11
529,B3,93.8,1/10,64,115.11
530,C4,93.9,1/10,64,115.11
531,D4,94.0,1/10,65,115.11
532,D3,94.0,0.5,50,115.11
533,E4,94.1,1/10,66,115.11
534,F4,94.2,1/10,66,115.11
535,G4,94.3,1/10,67,115.11
536,A4,94.4,1/10,68,115.11
537,B4,94.5,1/10,69,115.11
538,G1,94.5,0.25,61,115.11
539,C5,94.6,1/10,69,115.11
540,D5,94.7,1/10,70,115.11
541,F2,94.75,0.25,52,115.11
542,E5,94.8,1/10,71,115.11
543,F5,94.9,1/10,71,115.11
544,G5,95.0,1/10,72,115.11
545,B2,95.0,0.25,51,115.11
546,A5,95.1,1/10,72,115.11
547,B5,95.2,1/10,72,115.11
548,G1,95.25,0.25,45,115.11
549,C6,95.3,1/10,73,115.11
550,D6,95.4,1/10,74,115.11
551,E6,95.5,1/10,75,115.11
552,D3,95.5,0.5,57,115.11
553,F6,95.6,1/10,75,115.11
554,G6,95.7,1/10,76,115.11
555,A6,95.8,1/10,77,115.11
556,B6,95.9,1/10,77,115.11
557,C7,96.0,1.0,90,115.11
558,C2,96.0,0.25,64,115.11
559,G2,96.25,0.25,54,115.11
560,E3,96.5,0.25,52,115.11
561,C2,96.75,0.25,47,115.11
562,G3,97.0,0.5,59,115.11
563,C2,97.5,0.25,64,115.11
564,G2,97.75,0.25,51,115.11
565,E3,98.0,0.25,51,115.11
566,C2,98.25,0.25,45,115.11
567,G3,98.5,0.5,59,115.11
568,F#4,99.0,0.125,64,115.11
569,C2,99.0,0.25,64,115.11
570,G4,99.125,0.125,64,115.11
571,F#4,99.25,0.125,64,115.11
572,F#2,99.25,0.25,53,115.11
573,G4,99.375,0.125,64,115.11
574,F#4,99.5,0.125,64,115.11
575,E3,99.5,0.25,53,115.11
576,G4,99.625,0.125,64,115.11
577,F#4,99.75,0.125,65,115.11
578,C2,99.75,0.25,47,115.11
579,G4,99.875,0.125,65,115.11
580,F#4,100.0,0.125,65,115.11
581,F#3,100.0,0.5,60,115.11
582,G4,100.125,0.125,65,115.11
583,E4,100.25,0.125,65,115.11
584,F#4,100.375,0.125,65,115.11
585,G4,100.5,1.0,77,115.11
586,C2,100.5,0.25,64,115.11
587,F#2,100.75,0.25,52,115.11
588,E3,101.0,0.25,52,115.11
589,C2,101.25,0.25,45,115.11
590,F#3,101.5,0.5,59,115.11
591,E4,101.75,0.25,77,115.11
592,B3,102.0,1.0,76,115.11
593,B1,102.0,0.25,64,115.11
594,G2,102.25,0.25,51,115.11
595,E3,102.5,0.25,51,115.11
596,B1,102.75,0.25,45,115.11
597,C6,103.0,3/5,87,115.11
598,G3,103.0,0.5,60,115.11
599,B1,103.5,0.25,64,115.11
600,B5,103.6,117/1000,74,115.11
601,G5,103.717,117/1000,73,115.11
602,G2,103.75,0.25,54,115.11
603,E5,103.833,117/1000,72,115.11
604,C5,103.95,117/1000,72,115.11
605,E3,104.0,0.25,54,115.11
606,B4,104.067,117/1000,72,115.11
607,G4,104.183,117/1000,72,115.11
608,B1,104.25,0.25,46,115.11
609,E4,104.3,117/1000,71,115.11
610,C4,104.417,117/1000,70,115.11
611,G3,104.5,0.5,61,115.11
612,B3,104.533,117/1000,70,115.11
613,G3,104.65,117/1000,69,115.11
614,E3,104.767,117/1000,68,115.11
615,C3,104.883,117/1000,68,115.11
616,B2,105.0,33/20,90,115.11
617,B1,105.0,0.25,64,115.11
618,A2,105.25,0.25,54,115.11
619,E-3,105.5,0.25,54,115.11
620,B1,105.75,0.25,48,115.11
621,F#3,106.0,0.5,59,115.11
622,B1,106.5,0.25,64,115.11
623,C3,106.65,3/40,60,115.11
624,E-3,106.725,3/40,62,115.11
625,A2,106.75,0.25,55,115.11
626,F#3,106.8,3/40,63,115.11
627,A3,106.875,3/40,63,115.11
628,C4,106.95,3/40,64,115.11
629,E-3,107.0,0.25,55,115.11
630,E-4,107.025,3/40,65,115.11
631,F#4,107.1,3/40,67,115.11
632,A4,107.175,3/40,68,115.11
633,C5,107.25,3/40,69,115.11
634,B1,107.25,0.25,47,115.11
635,E-5,107.325,3/40,71,115.11
636,F#5,107.4,3/40,72,115.11
637,A5,107.475,3/40,72,115.11
638,F#3,107.5,0.5,61,115.11
639,C6,107.55,3/40,73,115.11
640,E-6,107.625,3/40,75,115.11
641,F#6,107.7,3/40,76,115.11
642,A6,107.775,3/40,77,115.11
643,C7,107.85,3/40,78,115.11
644,E-7,107.925,3/40,79,115.11
645,E7,108.0,1.0,90,115.11
646,E2,108.0,0.25,64,115.11
647,B2,108.25,0.25,54,115.11
648,G3,108.5,0.25,54,115.11
649,E2,108.75,0.25,48,115.11
650,B3,109.0,0.5,60,115.11
651,G4,109.5,1.5,79,115.11
652,E2,109.5,0.25,62,115.11
653,B2,109.75,0.25,52,115.11
654,G3,110.0,0.25,52,115.11
655,E2,110.25,0.25,45,115.11
656,B3,110.5,0.5,56,115.11
657,G4,111.0,1.0,79,115.11
658,E-2,111.0,0.25,61,115.11
659,B2,111.25,0.25,51,115.11
660,G3,111.5,0.25,51,115.11
661,E-2,111.75,0.25,45,115.11
662,G4,112.0,333/1000,78,115.11
663,B3,112.0,0.5,57,115.11
664,G4,112.333,83/1000,72,115.11
665,B-4,112.417,83/1000,72,115.11
666,G#4,112.5,1.0,80,115.11
667,D2,112.5,0.25,61,115.11
668,B2,112.75,0.25,52,115.11
669,F3,113.0,0.25,52,115.11
670,D2,113.25,0.25,45,115.11
671,G3,113.5,0.5,57,115.11
672,G4,113.75,0.25,78,115.11
673,G4,114.0,1.0,77,115.11
674,C2,114.0,0.25,64,115.11
675,G2,114.25,0.25,52,115.11
676,E-3,114.5,0.25,52,115.11
677,C2,114.75,0.25,45,115.11
678,E-4,115.0,0.5,80,115.11
679,G3,115.0,0.5,57,115.11
680,C4,115.5,1.5,78,115.11
681,C2,115.5,0.25,63,115.11
682,G2,115.75,0.25,53,115.11
683,E-3,116.0,0.25,53,115.11
684,C2,116.25,0.25,45,115.11
685,G3,116.5,0.5,61,115.11
686,C4,117.0,1.5,78,115.11
687,C2,117.0,0.25,61,115.11
688,G2,117.25,0.25,52,115.11
689,E-3,117.5,0.25,52,115.11
690,C2,117.75,0.25,45,115.11
691,G3,118.0,0.5,57,115.11
692,E-4,118.5,0.5,76,115.11
693,C2,118.5,0.25,60,115.11
694,G2,118.75,0.25,52,115.11
695,G4,119.0,0.75,78,115.11
696,E-3,119.0,0.25,52,115.11
697,C2,119.25,0.25,44,115.11
698,G3,119.5,0.5,55,115.11
699,C5,119.75,0.25,81,115.11
700,B-4,120.0,1.0,81,115.11
701,C2,120.0,0.25,63,115.11
702,G#2,120.25,0.25,49,115.11
703,E-3,120.5,0.25,49,115.11
704,C2,120.75,0.25,44,115.11
705,G#4,121.0,0.5,79,115.11
706,G#3,121.0,0.5,58,115.11
707,E-4,121.5,1.5,79,115.11
708,C2,121.5,0.25,62,115.11
709,G#2,121.75,0.25,53,115.11
710,E-3,122.0,0.25,51,115.11
711,C2,122.25,0.25,45,115.11
712,G#3,122.5,0.5,57,115.11
713,E-4,123.0,23/40,79,115.11
714,C2,123.0,0.25,63,115.11
715,G#2,123.25,0.25,51,115.11
716,G#4,123.5,0.75,81,115.11
717,F#3,123.5,0.25,51,115.11
718,C2,123.75,0.25,45,115.11
719,G#3,124.0,0.5,58,115.11
720,G#4,124.25,0.25,78,115.11
721,G#4,124.5,1.5,74,115.11
722,C2,124.5,0.25,64,115.11
723,F4,124.75,0.25,76,115.11
724,G#2,124.75,0.25,52,115.11
725,F#4,125.0,0.25,78,115.11
726,F#3,125.0,0.25,52,115.11
727,E-4,125.25,0.25,80,115.11
728,C2,125.25,0.25,45,115.11
729,F#4,125.5,0.25,81,115.11
730,G#3,125.5,0.5,58,115.11
731,G#3,125.75,0.25,82,115.11
732,G#4,126.0,1.0,84,115.11
733,C#2,126.0,0.25,64,115.11
734,G#2,126.25,0.25,51,115.11
735,F3,126.5,0.25,52,115.11
736,C#2,126.75,0.25,45,115.11
737,F4,127.0,0.5,82,115.11
738,G#3,127.0,0.5,57,115.11
739,C#4,127.5,1.5,82,115.11
740,C#2,127.5,0.25,64,115.11
741,G#2,127.75,0.25,53,115.11
742,F3,128.0,0.25,52,115.11
743,C#2,128.25,0.25,46,115.11
744,G#3,128.5,0.5,58,115.11
745,C#4,129.0,1.0,82,115.11
746,C#2,129.0,0.25,63,115.11
747,G#2,129.25,0.25,53,115.11
748,F3,129.5,0.25,53,115.11
749,C#2,129.75,0.25,46,115.11
750,F4,130.0,0.5,77,115.11
751,G#3,130.0,0.5,59,115.11
752,G#4,130.5,0.5,79,115.11
753,C#2,130.5,0.25,64,115.11
754,G#2,130.75,0.25,53,115.11
755,C#5,131.0,0.75,81,115.11
756,F3,131.0,0.25,53,115.11
757,C#2,131.25,0.25,45,115.11
758,G#3,131.5,0.5,58,115.11
759,F5,131.75,0.25,82,115.11
760,E-5,132.0,1.0,79,115.11
761,C#2,132.0,0.25,62,115.11
762,G#2,132.25,0.25,52,115.11
763,F3,132.5,0.25,52,115.11
764,C#2,132.75,0.25,45,115.11
765,C#5,133.0,0.5,77,115.11
766,G#3,133.0,0.5,59,115.11
767,G#4,133.5,1.5,72,115.11
768,C#2,133.5,0.25,56,115.11
769,G#2,133.75,0.25,49,115.11
770,F3,134.0,0.25,46,115.11
771,C#2,134.25,0.25,43,115.11
772,G#3,134.5,0.5,50,115.11
773,C#2,135.0,0.25,50,115.11
774,G#2,135.25,0.25,34,115.11
775,F3,135.5,0.25,35,115.11
776,C#2,135.75,0.25,29,115.11
777,F4,136.0,0.5,54,115.11
778,G#3,136.0,0.5,42,115.11
779,G#4,136.5,0.5,56,115.11
780,C#2,136.5,0.25,48,115.11
781,G#2,136.75,0.25,34,115.11
782,C#5,137.0,0.75,58,115.11
783,F3,137.0,0.25,34,115.11
784,C#2,137.25,0.25,27,115.11
785,G#3,137.5,0.5,42,115.11
786,F5,137.75,0.25,61,115.11
787,E-5,138.0,1.0,60,115.11
788,C#2,138.0,0.25,43,115.11
789,A2,138.25,0.25,32,115.11
790,F3,138.5,0.25,32,115.11
791,C#2,138.75,0.25,27,115.11
792,C#5,139.0,0.5,59,115.11
793,A3,139.0,0.5,42,115.11
794,A4,139.5,1.5,52,115.11
795,C#2,139.5,0.25,44,115.11
796,A2,139.75,0.25,32,115.11
797,F3,140.0,0.25,32,115.11
798,C#2,140.25,0.25,27,115.11
799,A3,140.5,0.5,41,115.11
800,A4,141.0,0.5,52,115.11
801,C#2,141.0,0.25,46,115.11
802,A2,141.25,0.25,33,115.11
803,A4,141.5,0.5,60,115.11
804,F3,141.5,0.25,33,115.11
805,C#2,141.75,0.25,27,115.11
806,A4,142.0,0.5,58,115.11
807,A3,142.0,0.5,41,115.11
808,A4,142.5,0.5,62,115.11
809,C#2,142.5,0.25,45,115.11
810,A2,142.75,0.25,33,115.11
811,F4,143.0,0.5,55,115.11
812,F3,143.0,0.25,33,115.11
813,C#2,143.25,0.25,28,115.11
814,A3,143.5,0.5,41,115.11
815,G4,143.75,0.25,62,115.11
816,A4,144.0,3.0,62,115.11
817,C#2,144.0,0.25,45,115.11
818,A2,144.25,0.25,33,115.11
819,F3,144.5,0.25,33,115.11
820,C#2,144.75,0.25,27,115.11
821,A3,145.0,0.5,41,115.11
822,C#2,145.5,0.25,46,115.11
823,A2,145.75,0.25,34,115.11
824,F3,146.0,0.25,33,115.11
825,C#2,146.25,0.25,27,115.11
826,A3,146.5,0.5,41,115.11
827,A4,147.0,0.5,62,115.11
828,C#2,147.0,0.25,45,115.11
829,A2,147.25,0.25,33,115.11
830,F3,147.5,0.25,33,115.11
831,A4,147.5,0.5,62,115.11
832,A5,147.5,0.5,62,115.11
833,C#2,147.75,0.25,25,115.11
834,A3,148.0,0.5,40,115.11
835,A5,148.0,0.5,64,115.11
836,A4,148.0,0.5,64,115.11
837,C#2,148.5,0.25,45,115.11
838,A4,148.5,0.375,67,115.11
839,A5,148.5,0.375,67,115.11
840,A2,148.75,0.25,35,115.11
841,C6,148.875,0.125,60,115.11
842,C5,148.875,0.125,60,115.11
843,F3,149.0,0.25,33,115.11
844,B-5,149.0,0.75,66,115.11
845,B-4,149.0,0.75,66,115.11
846,C#2,149.25,0.25,26,115.11
847,A3,149.5,0.5,39,115.11
848,A4,149.75,0.25,72,115.11
849,A5,149.75,0.25,72,115.11
850,D2,150.0,0.25,61,115.11
851,A4,150.0,1.0,68,115.11
852,A5,150.0,1.0,68,115.11
853,A2,150.25,0.25,45,115.11
854,F3,150.5,0.25,45,115.11
855,D2,150.75,0.25,40,115.11
856,A3,151.0,0.5,56,115.11
857,F4,151.0,0.5,66,115.11
858,F5,151.0,0.5,66,115.11
859,D2,151.5,0.25,56,115.11
860,D5,151.5,1.5,66,115.11
861,D4,151.5,1.5,66,115.11
862,A2,151.75,0.25,45,115.11
863,F3,152.0,0.25,45,115.11
864,D2,152.25,0.25,39,115.11
865,A3,152.5,0.5,55,115.11
866,D2,153.0,0.25,64,115.11
867,A2,153.25,0.25,45,115.11
868,F3,153.5,0.25,45,115.11
869,D2,153.75,0.25,39,115.11
870,D5,153.958,479/500,66,115.11
871,D4,153.958,479/500,66,115.11
872,A3,154.0,0.5,57,115.11
873,D2,154.5,0.25,59,115.11
874,A2,154.75,0.25,49,115.11
875,F4,154.958,0.5,70,115.11
876,F5,154.958,0.5,70,115.11
877,F3,155.0,0.25,47,115.11
878,D2,155.25,0.25,42,115.11
879,A5,155.458,0.5,72,115.11
880,A4,155.458,0.5,72,115.11
881,A3,155.5,0.5,60,115.11
882,D6,155.958,0.75,75,115.11
883,D5,155.958,0.75,75,115.11
884,B-1,156.0,0.25,64,115.11
885,G2,156.25,0.25,51,115.11
886,D3,156.5,0.25,51,115.11
887,F6,156.708,0.25,79,115.11
888,F5,156.708,0.25,79,115.11
889,B-1,156.75,0.25,43,115.11
890,E6,156.958,1.0,81,115.11
891,E5,156.958,1.0,81,115.11
892,E3,157.0,0.5,63,115.11
893,B-1,157.5,0.25,64,115.11
894,G2,157.75,0.25,52,115.11
895,D6,157.958,0.5,76,115.11
896,D5,157.958,0.5,76,115.11
897,D3,158.0,0.25,52,115.11
898,B-1,158.25,0.25,45,115.11
899,G4,158.458,0.5,80,115.11
900,G5,158.458,0.5,80,115.11
901,E3,158.5,0.5,63,115.11
902,D6,158.958,0.75,83,115.11
903,D5,158.958,0.75,83,115.11
904,B-1,159.0,0.25,72,115.11
905,G#2,159.25,0.25,59,115.11
906,D3,159.5,0.25,58,115.11
907,F6,159.708,0.25,84,115.11
908,F5,159.708,0.25,84,115.11
909,B-1,159.75,0.25,50,115.11
910,E5,159.958,1.0,84,115.11
911,E6,159.958,1.0,84,115.11
912,F3,160.0,0.5,64,115.11
913,B-1,160.5,0.25,71,115.11
914,G#2,160.75,0.25,58,115.11
915,D6,160.958,0.5,82,115.11
916,D5,160.958,0.5,82,115.11
917,D3,161.0,0.25,58,115.11
918,B-1,161.25,0.25,51,115.11
919,G#5,161.458,0.5,78,115.11
920,G#4,161.458,0.5,78,115.11
921,F3,161.5,0.5,64,115.11
922,D5,161.958,0.5,81,115.11
923,D6,161.958,0.5,81,115.11
924,B-1,162.0,0.25,72,115.11
925,G#2,162.25,0.25,61,115.11
926,F6,162.458,0.5,83,115.11
927,F5,162.458,0.5,83,115.11
928,D3,162.5,0.25,61,115.11
929,B-1,162.75,0.25,54,115.11
930,D7,162.958,167/1000,72,115.11
931,F7,162.958,167/1000,72,115.11
932,F3,163.0,0.5,64,115.11
933,E7,163.125,167/1000,72,115.11
934,C#7,163.125,167/1000,72,115.11
935,C7,163.292,167/1000,72,115.11
936,E-7,163.292,167/1000,72,115.11
937,D7,163.458,167/1000,71,115.11
938,B6,163.458,167/1000,71,115.11
939,B-1,163.5,0.25,70,115.11
940,C#7,163.625,167/1000,71,115.11
941,B-6,163.625,167/1000,71,115.11
942,G#2,163.75,0.25,60,115.11
943,A6,163.792,167/1000,71,115.11
944,C7,163.792,167/1000,71,115.11
945,B6,163.958,167/1000,70,115.11
946,G#6,163.958,167/1000,70,115.11
947,D3,164.0,0.25,60,115.11
948,G6,164.125,167/1000,70,115.11
949,B-6,164.125,167/1000,70,115.11
950,B-1,164.25,0.25,53,115.11
951,A6,164.292,167/1000,70,115.11
952,F#6,164.292,167/1000,70,115.11
953,G#6,164.458,167/1000,69,115.11
954,F6,164.458,167/1000,69,115.11
955,F3,164.5,0.5,64,115.11
956,E6,164.625,167/1000,69,115.11
957,G6,164.625,167/1000,69,115.11
958,E-6,164.792,167/1000,69,115.11
959,F#6,164.792,167/1000,69,115.11
960,F6,164.958,167/1000,68,115.11
961,D6,164.958,167/1000,68,115.11
962,B-1,165.0,0.25,68,115.11
963,C#6,165.125,167/1000,68,115.11
964,E6,165.125,167/1000,68,115.11
965,G#2,165.25,0.25,60,115.11
966,C6,165.292,167/1000,68,115.11
967,E-6,165.292,167/1000,68,115.11
968,B5,165.458,167/1000,67,115.11
969,D6,165.458,167/1000,67,115.11
970,D3,165.5,0.25,60,115.11
971,C#6,165.625,167/1000,67,115.11
972,B-5,165.625,167/1000,67,115.11
973,B-1,165.75,0.25,54,115.11
974,C6,165.792,167/1000,67,115.11
975,A5,165.792,167/1000,67,115.11
976,G#5,165.958,167/1000,66,115.11
977,B5,165.958,167/1000,66,115.11
978,F3,166.0,0.5,64,115.11
979,B-5,166.125,167/1000,66,115.11
980,G5,166.125,167/1000,66,115.11
981,F#5,166.292,167/1000,66,115.11
982,A5,166.292,167/1000,66,115.11
983,G#5,166.458,167/1000,65,115.11
984,F5,166.458,167/1000,65,115.11
985,B-1,166.5,0.25,67,115.11
986,G5,166.625,167/1000,65,115.11
987,E5,166.625,167/1000,65,115.11
988,G#2,166.75,0.25,58,115.11
989,E-5,166.792,167/1000,65,115.11
990,F#5,166.792,167/1000,65,115.11
991,F5,166.958,167/1000,64,115.11
992,D5,166.958,167/1000,64,115.11
993,D3,167.0,0.25,58,115.11
994,C#5,167.125,167/1000,64,115.11
995,E5,167.125,167/1000,64,115.11
996,B-1,167.25,0.25,52,115.11
997,E-5,167.292,167/1000,64,115.11
998,C5,167.292,167/1000,64,115.11
999,D5,167.458,167/1000,64,115.11
1000,B4,167.458,167/1000,64,115.11
1001,F3,167.5,0.5,64,115.11
1002,B-4,167.625,167/1000,64,115.11
1003,C#5,167.625,167/1000,64,115.11
1004,C5,167.792,167/1000,64,115.11
1005,A4,167.792,167/1000,64,115.11
1006,G#4,167.958,167/1000,63,115.11
1007,B4,167.958,167/1000,63,115.11
1008,A1,168.0,0.25,65,115.11
1009,B-4,168.125,167/1000,63,115.11
1010,G4,168.125,167/1000,63,115.11
1011,F2,168.25,0.25,54,115.11
1012,A4,168.292,167/1000,63,115.11
1013,F#4,168.292,167/1000,63,115.11
1014,F4,168.458,167/1000,63,115.11
1015,G#4,168.458,167/1000,63,115.11
1016,D3,168.5,0.25,54,115.11
1017,E4,168.625,167/1000,63,115.11
1018,G4,168.625,167/1000,63,115.11
1019,A1,168.75,0.25,48,115.11
1020,D4,168.792,167/1000,63,115.11
1021,G4,168.792,167/1000,63,115.11
1022,A3,168.958,1.0,85,115.11
1023,F3,169.0,0.5,62,115.11
1024,A1,169.5,0.25,66,115.11
1025,F2,169.75,0.25,55,115.11
1026,D3,170.0,0.25,55,115.11
1027,A4,170.208,0.25,83,115.11
1028,A1,170.25,0.25,49,115.11
1029,A4,170.458,1.5,86,115.11
1030,F3,170.5,0.5,61,115.11
1031,A1,171.0,0.25,67,115.11
1032,F2,171.25,0.25,55,115.11
1033,D3,171.5,0.25,55,115.11
1034,A1,171.75,0.25,50,115.11
1035,A4,171.958,0.5,86,115.11
1036,F3,172.0,0.5,63,115.11
1037,G4,172.458,0.75,81,115.11
1038,A1,172.5,0.25,66,115.11
1039,F2,172.75,0.25,56,115.11
1040,D3,173.0,0.25,56,115.11
1041,F4,173.208,0.25,78,115.11
1042,A1,173.25,0.25,50,115.11
1043,E4,173.458,0.25,76,115.11
1044,F3,173.5,0.5,63,115.11
1045,F4,173.708,26/125,78,115.11
1046,E4,173.917,26/125,78,115.11
1047,A1,174.0,0.25,67,115.11
1048,D4,174.125,26/125,78,115.11
1049,F2,174.25,0.25,57,115.11
1050,E4,174.333,26/125,78,115.11
1051,D3,174.5,0.25,57,115.11
1052,F4,174.542,26/125,78,115.11
1053,D4,174.75,26/125,73,115.11
1054,A1,174.75,0.25,49,115.11
1055,A4,174.958,0.5,78,115.11
1056,A3,174.958,0.5,78,115.11
1057,F3,175.0,0.5,61,115.11
1058,A1,175.5,0.25,67,115.11
1059,F2,175.75,0.25,59,115.11
1060,A5,175.958,0.25,84,115.11
1061,A4,175.958,0.25,84,115.11
1062,D3,176.0,0.25,59,115.11
1063,A1,176.25,0.25,54,115.11
1064,A6,176.458,1.5,84,115.11
1065,A5,176.458,1.5,84,115.11
1066,F3,176.5,0.5,63,115.11
1067,A1,177.0,0.25,70,115.11
1068,F2,177.25,0.25,59,115.11
1069,D3,177.5,0.25,59,115.11
1070,A1,177.75,0.25,53,115.11
1071,A6,177.958,0.5,84,115.11
1072,A5,177.958,0.5,84,115.11
1073,F3,178.0,0.5,67,115.11
1074,G6,178.458,0.75,85,115.11
1075,G5,178.458,0.75,85,115.11
1076,A1,178.5,0.25,71,115.11
1077,F2,178.75,0.25,59,115.11
1078,D3,179.0,0.25,59,115.11
1079,F6,179.208,0.25,87,115.11
1080,F5,179.208,0.25,87,115.11
1081,A1,179.25,0.25,52,115.11
1082,E6,179.458,0.25,80,115.11
1083,E5,179.458,0.25,80,115.11
1084,F3,179.5,0.5,67,115.11
1085,F6,179.708,26/125,82,115.11
1086,F5,179.708,26/125,82,115.11
1087,E6,179.917,26/125,82,115.11
1088,E5,179.917,26/125,82,115.11
1089,A1,180.0,0.25,72,115.11
1090,D6,180.125,26/125,82,115.11
1091,D5,180.125,26/125,82,115.11
1092,G2,180.25,0.25,61,115.11
1093,E6,180.333,26/125,82,115.11
1094,E5,180.333,26/125,82,115.11
1095,D3,180.5,0.25,61,115.11
1096,F6,180.542,26/125,82,115.11
1097,F5,180.542,26/125,82,115.11
1098,A1,180.75,0.25,54,115.11
1099,D6,180.833,0.125,82,115.11
1100,D5,180.833,0.125,82,115.11
1101,B-5,180.958,0.5,89,115.11
1102,B-6,180.958,0.5,89,115.11
1103,E3,181.0,0.5,71,115.11
1104,E6,181.458,0.5,84,115.11
1105,E5,181.458,0.5,84,115.11
1106,A1,181.5,0.25,72,115.11
1107,G2,181.75,0.25,58,115.11
1108,F5,181.958,0.5,84,115.11
1109,F6,181.958,0.5,84,115.11
1110,D3,182.0,0.25,58,115.11
1111,A1,182.25,0.25,51,115.11
1112,A6,182.458,0.5,87,115.11
1113,A5,182.458,0.5,87,115.11
1114,E3,182.5,0.5,70,115.11
1115,G6,182.958,0.5,84,115.11
1116,G5,182.958,0.5,84,115.11
1117,A1,183.0,0.25,72,115.11
1118,G2,183.25,0.25,63,115.11
1119,B-4,183.458,0.5,84,115.11
1120,B-5,183.458,0.5,84,115.11
1121,D3,183.5,0.25,63,115.11
1122,A1,183.75,0.25,57,115.11
1123,D5,183.958,0.5,88,115.11
1124,D6,183.958,0.5,88,115.11
1125,E3,184.0,0.5,68,115.11
1126,G5,184.458,0.5,83,115.11
1127,G4,184.458,0.5,83,115.11
1128,A1,184.5,0.25,71,115.11
1129,G2,184.75,0.25,63,115.11
1130,A4,184.958,0.5,80,115.11
1131,A5,184.958,0.5,80,115.11
1132,D3,185.0,0.25,63,115.11
1133,A1,185.25,0.25,58,115.11
1134,C5,185.458,0.5,86,115.11
1135,C6,185.458,0.5,86,115.11
1136,E3,185.5,0.5,66,115.11
1137,B-4,185.958,0.5,82,115.11
1138,B-5,185.958,0.5,82,115.11
1139,A1,186.0,0.25,71,115.11
1140,G2,186.25,0.25,61,115.11
1141,D3,186.5,0.25,61,115.11
1142,E4,186.708,0.25,79,115.11
1143,E5,186.708,0.25,79,115.11
1144,A1,186.75,0.25,56,115.11
1145,G5,186.958,0.5,87,115.11
1146,G4,186.958,0.5,87,115.11
1147,E3,187.0,0.5,65,115.11
1148,B-3,187.458,0.5,81,115.11
1149,B-4,187.458,0.5,81,115.11
1150,A1,187.5,0.25,70,115.11
1151,G2,187.75,0.25,60,115.11
1152,C4,187.958,0.5,79,115.11
1153,C5,187.958,0.5,79,115.11
1154,D3,188.0,0.25,60,115.11
1155,A1,188.25,0.25,54,115.11
1156,E4,188.458,0.5,83,115.11
1157,E5,188.458,0.5,83,115.11
1158,E3,188.5,0.5,66,115.11
1159,D4,188.958,0.5,78,115.11
1160,D5,188.958,0.5,78,115.11
1161,A1,189.0,0.25,72,115.11
1162,G2,189.25,0.25,59,115.11
1163,G4,189.458,0.5,78,115.11
1164,G3,189.458,0.5,78,115.11
1165,D3,189.5,0.25,60,115.11
1166,A1,189.75,0.25,54,115.11
1167,B-3,189.958,1.5,86,115.11
1168,B-4,189.958,1.5,86,115.11
1169,E3,190.0,0.5,67,115.11
1170,A1,190.5,0.25,71,115.11
1171,G2,190.75,0.25,61,115.11
1172,A2,191.0,0.25,61,115.11
1173,A1,191.25,0.25,54,115.11
1174,C#4,191.458,1.5,84,115.11
1175,C#3,191.458,1.5,84,115.11
1176,E3,191.5,0.5,65,115.11
1177,D2,192.0,0.25,71,115.11
1178,A2,192.25,0.25,63,115.11
1179,F3,192.5,0.25,62,115.11
1180,D2,192.75,0.25,57,115.11
1181,D3,192.958,1.0,86,115.11
1182,D4,192.958,1.0,86,115.11
1183,A3,193.0,0.5,67,115.11
1184,D2,193.5,0.25,68,115.11
1185,A2,193.75,0.25,62,115.11
1186,F3,194.0,0.25,62,115.11
1187,D2,194.25,0.25,58,115.11
1188,A3,194.5,0.5,66,115.11
1189,D2,195.0,0.25,68,115.11
1190,G#2,195.25,0.25,62,115.11
1191,F3,195.5,0.25,62,115.11
1192,D2,195.75,0.25,56,115.11
1193,F6,195.958,1.0,90,115.11
1194,F7,195.958,1.25,90,115.11
1195,G#3,196.0,0.5,66,115.11
1196,D2,196.5,0.25,68,115.11
1197,G#2,196.75,0.25,61,115.11
1198,F3,197.0,0.25,61,115.11
1199,E7,197.208,83/1000,81,115.11
1200,D2,197.25,0.25,56,115.11
1201,D7,197.292,83/1000,80,115.11
1202,B6,197.375,83/1000,80,115.11
1203,G6,197.458,83/1000,79,115.11
1204,G#3,197.5,0.5,65,115.11
1205,F6,197.542,83/1000,79,115.11
1206,E6,197.625,83/1000,78,115.11
1207,D6,197.708,83/1000,78,115.11
1208,B5,197.792,83/1000,77,115.11
1209,G5,197.875,83/1000,77,115.11
1210,F5,197.958,83/1000,76,115.11
1211,D2,198.0,0.25,64,115.11
1212,E5,198.042,83/1000,76,115.11
1213,D5,198.125,83/1000,75,115.11
1214,B4,198.208,83/1000,75,115.11
1215,A2,198.25,0.25,52,115.11
1216,G4,198.292,83/1000,75,115.11
1217,F4,198.375,83/1000,74,115.11
1218,E4,198.458,83/1000,74,115.11
1219,F3,198.5,0.25,52,115.11
1220,D4,198.542,83/1000,73,115.11
1221,B3,198.625,83/1000,73,115.11
1222,G3,198.708,83/1000,72,115.11
1223,D2,198.75,0.25,45,115.11
1224,F3,198.792,83/1000,72,115.11
1225,E3,198.875,83/1000,72,115.11
1226,D3,198.958,2.0,90,115.11
1227,A3,199.0,0.5,62,115.11
1228,D2,199.5,0.25,64,115.11
1229,A2,199.75,0.25,53,115.11
1230,F3,200.0,0.25,53,115.11
1231,D2,200.25,0.25,46,115.11
1232,A3,200.5,0.5,63,115.11
1233,D2,201.0,0.25,61,115.11
1234,G#2,201.25,0.25,51,115.11
1235,F3,201.5,0.25,51,115.11
1236,D2,201.75,0.25,46,115.11
1237,F4,201.958,3.0,73,115.11
1238,B3,201.958,1.5,73,115.11
1239,B4,201.958,1.5,73,115.11
1240,G#3,202.0,0.5,56,115.11
1241,D2,202.5,0.25,61,115.11
1242,G#2,202.75,0.25,49,115.11
1243,F3,203.0,0.25,49,115.11
1244,D2,203.25,0.25,44,115.11
1245,B-3,203.458,1.5,72,115.11
1246,B-4,203.458,1.5,72,115.11
1247,G#3,203.5,0.5,56,115.11
1248,D2,204.0,0.25,61,115.11
1249,A2,204.25,0.25,49,115.11
1250,F3,204.5,0.25,48,115.11
1251,D2,204.75,0.25,41,115.11
1252,A3,204.958,1.0,69,115.11
1253,F4,204.958,1.0,69,115.11
1254,A4,204.958,1.0,69,115.11
1255,A3,205.0,0.5,56,115.11
1256,D2,205.5,0.25,61,115.11
1257,A2,205.75,0.25,48,115.11
1258,F3,206.0,0.25,48,115.11
1259,D2,206.25,0.25,41,115.11
1260,A3,206.5,0.5,56,115.11
1261,D2,207.0,0.25,68,115.11
1262,G#2,207.25,0.25,52,115.11
1263,F3,207.5,0.25,52,115.11
1264,D2,207.75,0.25,45,115.11
1265,F6,207.958,1.0,90,115.11
1266,F7,207.958,1.25,90,115.11
1267,G#3,208.0,0.5,61,115.11
1268,D2,208.5,0.25,64,115.11
1269,G#2,208.75,0.25,52,115.11
1270,F3,209.0,0.25,52,115.11
1271,E7,209.208,83/1000,80,115.11
1272,D2,209.25,0.25,45,115.11
1273,D7,209.292,83/1000,79,115.11
1274,B6,209.375,83/1000,79,115.11
1275,G6,209.458,83/1000,78,115.11
1276,G#3,209.5,0.5,60,115.11
1277,F6,209.542,83/1000,78,115.11
1278,E6,209.625,83/1000,78,115.11
1279,D6,209.708,83/1000,77,115.11
1280,B5,209.792,83/1000,77,115.11
1281,G5,209.875,83/1000,76,115.11
1282,F5,209.958,83/1000,76,115.11
1283,D2,210.0,0.25,64,115.11
1284,E5,210.042,83/1000,75,115.11
1285,D5,210.125,83/1000,75,115.11
1286,B4,210.208,83/1000,75,115.11
1287,A2,210.25,0.25,52,115.11
1288,G4,210.292,83/1000,74,115.11
1289,F4,210.375,83/1000,74,115.11
1290,E4,210.458,83/1000,73,115.11
1291,F3,210.5,0.25,52,115.11
1292,D4,210.542,83/1000,73,115.11
1293,B3,210.625,83/1000,73,115.11
1294,G3,210.708,83/1000,72,115.11
1295,D2,210.75,0.25,42,115.11
1296,F3,210.792,83/1000,72,115.11
1297,E3,210.875,83/1000,72,115.11
1298,D3,210.958,2.0,90,115.11
1299,A3,211.0,0.5,60,115.11
1300,D2,211.5,0.25,66,115.11
1301,A2,211.75,0.25,51,115.11
1302,F3,212.0,0.25,51,115.11
1303,D2,212.25,0.25,43,115.11
1304,A3,212.5,0.5,62,115.11
1305,D2,213.0,0.25,68,115.11
1306,G#2,213.25,0.25,51,115.11
1307,F3,213.5,0.25,51,115.11
1308,D2,213.75,0.25,44,115.11
1309,B4,213.958,271/1000,65,115.11
1310,B3,213.958,271/1000,65,115.11
1311,F4,213.958,271/1000,65,115.11
1312,G#3,214.0,0.5,61,115.11
1313,B4,214.258,271/1000,66,115.11
1314,F4,214.258,271/1000,66,115.11
1315,B3,214.258,271/1000,66,115.11
1316,D2,214.5,0.25,61,115.11
1317,B4,214.558,271/1000,67,115.11
1318,F4,214.558,271/1000,67,115.11
1319,B3,214.558,271/1000,67,115.11
1320,G#2,214.75,0.25,51,115.11
1321,B3,214.858,271/1000,67,115.11
1322,F4,214.858,271/1000,67,115.11
1323,B4,214.858,271/1000,67,115.11
1324,F3,215.0,0.25,52,115.11
1325,F4,215.158,271/1000,68,115.11
1326,B3,215.158,271/1000,68,115.11
1327,B4,215.158,271/1000,68,115.11
1328,D2,215.25,0.25,45,115.11
1329,B-4,215.458,271/1000,69,115.11
1330,B-3,215.458,271/1000,69,115.11
1331,F4,215.458,271/1000,69,115.11
1332,G#3,215.5,0.5,61,115.11
1333,B-3,215.758,271/1000,71,115.11
1334,F4,215.758,271/1000,71,115.11
1335,B-4,215.758,271/1000,71,115.11
1336,D2,216.0,1.0,50,115.11
1337,B-4,216.058,271/1000,71,115.11
1338,B-3,216.058,271/1000,71,115.11
1339,F4,216.058,271/1000,71,115.11
1340,A2,216.062,0.438,52,115.11
1341,F3,216.125,0.375,54,115.11
1342,F4,216.358,271/1000,72,115.11
1343,B-4,216.358,271/1000,72,115.11
1344,B-3,216.358,271/1000,72,115.11
1345,F4,216.658,271/1000,72,115.11
1346,B-4,216.658,271/1000,72,115.11
1347,B-3,216.658,271/1000,72,115.11
1348,A3,217.146,0.312,77,115.11
1349,F4,217.208,0.25,81,115.11
1350,A4,217.333,0.188,85,115.11
1351,A4,217.5,1.5,74,115.11
1352,D5,217.5,1.5,74,115.11
1353,F4,217.5,1.5,74,115.11
1354,F5,217.5,1.5,74,115.11
1355,D7,218.458,1.5,96,115.11
1356,D6,218.458,1.5,96,115.11
1357,B-6,219.958,0.125,86,115.11
1358,A6,220.083,0.125,86,115.11
1359,F6,220.208,0.125,86,115.11
1360,D6,220.333,0.125,85,115.11
1361,B-5,220.458,0.125,85,115.11
1362,A5,220.583,0.125,85,115.11
1363,F5,220.708,0.125,84,115.11
1364,D5,220.833,0.125,84,115.11
1365,B-4,220.958,0.125,84,115.11
1366,A4,221.083,0.125,83,115.11
1367,F4,221.208,0.125,83,115.11
1368,D4,221.333,0.125,83,115.11
1369,B-3,221.458,0.125,82,115.11
1370,A3,221.583,0.125,82,115.11
1371,F3,221.708,0.125,82,115.11
1372,D3,221.833,0.125,81,115.11
1373,B-2,221.958,0.125,81,115.11
1374,A2,222.083,0.125,81,115.11
1375,F2,222.208,0.125,81,115.11
1376,D2,222.333,0.125,81,115.11
1377,B-1,222.458,0.125,81,115.11
1378,A1,222.583,0.125,80,115.11
1379,F1,222.708,0.125,80,115.11
1380,E1,222.833,0.125,79,115.11
1381,D1,222.958,2.5,113,115.11
1382,D1,225.958,2.5,115,115.11
1383,D1,228.958,2.5,113,115.11
