,note_name,start_time,duration,velocity,tempo
0,A4,2.0,1.0,77,174.49
1,F#4,3.0,1.0,68,174.49
2,A4,3.0,0.5,77,174.49
3,D3,3.0,0.5,59,174.49
4,C#5,3.5,0.5,70,174.49
5,D5,4.0,0.5,71,174.49
6,F#4,4.0,1.0,60,174.49
7,D3,4.0,1.0,52,174.49
8,A3,4.0,1.0,52,174.49
9,D4,4.0,1.0,52,174.49
10,E5,4.5,0.5,71,174.49
11,F#5,5.0,0.5,72,174.49
12,F#4,5.0,1.0,61,174.49
13,D3,5.0,1.0,52,174.49
14,A3,5.0,1.0,52,174.49
15,D4,5.0,1.0,52,174.49
16,G5,5.5,0.25,73,174.49
17,F#5,5.75,0.125,70,174.49
18,G5,5.875,0.125,68,174.49
19,F#5,6.0,1.0,76,174.49
20,A2,6.0,0.5,59,174.49
21,G4,7.0,1.0,62,174.49
22,E5,7.0,0.5,74,174.49
23,E3,7.0,1.0,54,174.49
24,A3,7.0,1.0,54,174.49
25,C#4,7.0,1.0,54,174.49
26,D5,7.5,0.5,74,174.49
27,G4,8.0,1.0,62,174.49
28,C#5,8.0,0.5,73,174.49
29,E3,8.0,1.0,54,174.49
30,A3,8.0,1.0,54,174.49
31,C#4,8.0,1.0,54,174.49
32,B4,8.5,0.5,72,174.49
33,A4,9.0,0.5,74,174.49
34,D2,9.0,0.5,59,174.49
35,D5,9.5,0.5,70,174.49
36,F#4,10.0,1.0,62,174.49
37,D5,10.0,333/1000,74,174.49
38,D3,10.0,1.0,54,174.49
39,A3,10.0,1.0,54,174.49
40,D4,10.0,1.0,54,174.49
41,E5,10.333,333/1000,70,174.49
42,D5,10.667,333/1000,70,174.49
43,F#4,11.0,1.0,59,174.49
44,C#5,11.0,0.5,70,174.49
45,D3,11.0,1.0,54,174.49
46,A3,11.0,1.0,54,174.49
47,D4,11.0,1.0,54,174.49
48,B4,11.5,0.5,70,174.49
49,C#5,12.0,3.0,73,174.49
50,A2,12.0,0.5,59,174.49
51,A3,13.0,1.0,43,174.49
52,E4,13.0,1.0,48,174.49
53,A4,13.0,1.0,48,174.49
54,G4,14.0,1.0,62,174.49
55,A4,14.0,1.0,62,174.49
56,A3,14.0,1.0,56,174.49
57,E4,14.0,1.0,56,174.49
58,A4,15.0,0.5,74,174.49
59,D3,15.0,0.5,59,174.49
60,C#5,15.5,0.5,70,174.49
61,D5,16.0,0.5,71,174.49
62,F#4,16.0,1.0,60,174.49
63,A3,16.0,1.0,52,174.49
64,D4,16.0,1.0,52,174.49
65,E5,16.5,0.5,71,174.49
66,F#5,17.0,0.5,72,174.49
67,F#4,17.0,1.0,61,174.49
68,D3,17.0,1.0,52,174.49
69,A3,17.0,1.0,52,174.49
70,D4,17.0,1.0,52,174.49
71,G5,17.5,0.25,73,174.49
72,F#5,17.75,0.125,70,174.49
73,G5,17.875,0.125,68,174.49
74,F#5,18.0,1.0,76,174.49
75,G2,18.0,0.5,59,174.49
76,G4,19.0,1.0,62,174.49
77,E5,19.0,0.5,74,174.49
78,B3,19.0,1.0,54,174.49
79,E4,19.0,1.0,54,174.49
80,D5,19.5,0.5,74,174.49
81,G4,20.0,1.0,62,174.49
82,C#5,20.0,0.5,73,174.49
83,E3,20.0,1.0,54,174.49
84,B3,20.0,1.0,54,174.49
85,E4,20.0,1.0,54,174.49
86,B4,20.5,0.5,72,174.49
87,A4,21.0,0.5,74,174.49
88,A2,21.0,0.5,59,174.49
89,C#5,21.5,0.5,70,174.49
90,G4,22.0,1.0,62,174.49
91,C#5,22.0,333/1000,74,174.49
92,A3,22.0,1.0,54,174.49
93,E4,22.0,1.0,54,174.49
94,D5,22.333,333/1000,70,174.49
95,C#5,22.667,333/1000,70,174.49
96,G4,23.0,1.0,59,174.49
97,B4,23.0,0.5,70,174.49
98,A3,23.0,1.0,54,174.49
99,E4,23.0,1.0,54,174.49
100,A4,23.5,0.5,70,174.49
101,D5,24.0,3.0,73,174.49
102,D2,24.0,0.5,59,174.49
103,F#4,25.0,1.0,53,174.49
104,D3,25.0,1.0,38,174.49
105,A3,25.0,1.0,38,174.49
106,D4,25.0,1.0,38,174.49
107,F#4,26.0,1.0,47,174.49
108,D3,26.0,1.0,39,174.49
109,A3,26.0,1.0,39,174.49
110,D4,26.0,1.0,39,174.49
111,A4,27.0,0.5,40,174.49
112,F#4,27.0,1.0,47,174.49
113,D3,27.0,1.0,39,174.49
114,A3,27.0,1.0,39,174.49
115,D4,27.0,1.0,39,174.49
116,C#5,27.5,0.5,39,174.49
117,D5,28.0,0.5,39,174.49
118,F#4,28.0,1.0,33,174.49
119,D3,28.0,1.0,23,174.49
120,A3,28.0,1.0,23,174.49
121,D4,28.0,1.0,23,174.49
122,E5,28.5,0.5,39,174.49
123,F#5,29.0,0.5,40,174.49
124,F#4,29.0,1.0,33,174.49
125,D3,29.0,1.0,23,174.49
126,A3,29.0,1.0,23,174.49
127,D4,29.0,1.0,23,174.49
128,G5,29.5,0.25,40,174.49
129,F#5,29.75,0.125,39,174.49
130,G5,29.875,0.125,37,174.49
131,F#5,30.0,1.0,42,174.49
132,A2,30.0,0.5,27,174.49
133,G4,31.0,1.0,34,174.49
134,E5,31.0,0.5,40,174.49
135,E3,31.0,1.0,24,174.49
136,A3,31.0,1.0,24,174.49
137,C#4,31.0,1.0,24,174.49
138,D5,31.5,0.5,40,174.49
139,G4,32.0,1.0,34,174.49
140,C#5,32.0,0.5,40,174.49
141,E3,32.0,1.0,24,174.49
142,A3,32.0,1.0,24,174.49
143,C#4,32.0,1.0,24,174.49
144,B4,32.5,0.5,40,174.49
145,A4,33.0,0.5,40,174.49
146,D2,33.0,0.5,27,174.49
147,D5,33.5,0.5,39,174.49
148,F#4,34.0,1.0,34,174.49
149,D5,34.0,333/1000,40,174.49
150,D3,34.0,1.0,24,174.49
151,A3,34.0,1.0,24,174.49
152,D4,34.0,1.0,24,174.49
153,E5,34.333,333/1000,39,174.49
154,D5,34.667,333/1000,39,174.49
155,F#4,35.0,1.0,32,174.49
156,C#5,35.0,0.5,39,174.49
157,D3,35.0,1.0,24,174.49
158,A3,35.0,1.0,24,174.49
159,D4,35.0,1.0,24,174.49
160,B4,35.5,0.5,39,174.49
161,C#5,36.0,3.0,40,174.49
162,A2,36.0,0.5,27,174.49
163,E4,37.0,1.0,26,174.49
164,A4,37.0,1.0,26,174.49
165,C#4,37.0,1.0,20,174.49
166,A3,37.0,1.0,20,174.49
167,A3,38.0,1.0,26,174.49
168,E4,38.0,1.0,26,174.49
169,G4,38.0,1.0,34,174.49
170,A4,38.0,1.0,34,174.49
171,A4,39.0,0.5,40,174.49
172,D3,39.0,1.0,27,174.49
173,A3,39.0,1.0,26,174.49
174,C#5,39.5,0.5,39,174.49
175,D5,40.0,0.5,39,174.49
176,F#4,40.0,1.0,33,174.49
177,A3,40.0,1.0,23,174.49
178,D4,40.0,1.0,23,174.49
179,E5,40.5,0.5,39,174.49
180,F#5,41.0,0.5,40,174.49
181,F#4,41.0,1.0,33,174.49
182,D3,41.0,1.0,23,174.49
183,A3,41.0,1.0,23,174.49
184,D4,41.0,1.0,23,174.49
185,G5,41.5,0.25,40,174.49
186,F#5,41.75,0.125,39,174.49
187,G5,41.875,0.125,37,174.49
188,F#5,42.0,1.0,42,174.49
189,G2,42.0,0.5,27,174.49
190,G4,43.0,1.0,34,174.49
191,E5,43.0,0.5,40,174.49
192,B3,43.0,1.0,24,174.49
193,E4,43.0,1.0,24,174.49
194,D5,43.5,0.5,40,174.49
195,G4,44.0,1.0,34,174.49
196,C#5,44.0,0.5,40,174.49
197,E3,44.0,1.0,24,174.49
198,B3,44.0,1.0,24,174.49
199,E4,44.0,1.0,24,174.49
200,B4,44.5,0.5,40,174.49
201,A4,45.0,0.5,40,174.49
202,A2,45.0,0.5,27,174.49
203,C#5,45.5,0.5,39,174.49
204,G4,46.0,1.0,34,174.49
205,C#5,46.0,333/1000,40,174.49
206,A3,46.0,1.0,24,174.49
207,E4,46.0,1.0,24,174.49
208,D5,46.333,333/1000,39,174.49
209,C#5,46.667,333/1000,39,174.49
210,G4,47.0,1.0,32,174.49
211,B4,47.0,0.5,39,174.49
212,A3,47.0,1.0,24,174.49
213,E4,47.0,1.0,24,174.49
214,A4,47.5,0.5,39,174.49
215,D5,48.0,3.0,40,174.49
216,D2,48.0,0.5,27,174.49
217,F#4,49.0,1.0,29,174.49
218,D3,49.0,1.0,18,174.49
219,A3,49.0,1.0,18,174.49
220,D4,49.0,1.0,18,174.49
221,F#4,50.0,1.0,37,174.49
222,D3,50.0,1.0,26,174.49
223,A3,50.0,1.0,26,174.49
224,D4,50.0,1.0,26,174.49
225,E4,51.0,0.5,73,174.49
226,A2,51.0,0.5,59,174.49
227,G#4,51.5,0.5,70,174.49
228,A4,52.0,0.5,71,174.49
229,C#4,52.0,1.0,60,174.49
230,A2,52.0,1.0,52,174.49
231,E3,52.0,1.0,52,174.49
232,A3,52.0,1.0,52,174.49
233,B4,52.5,0.5,71,174.49
234,C#5,53.0,0.5,72,174.49
235,C#4,53.0,1.0,61,174.49
236,A2,53.0,1.0,52,174.49
237,E3,53.0,1.0,52,174.49
238,A3,53.0,1.0,52,174.49
239,D5,53.5,0.25,73,174.49
240,C#5,53.75,0.125,70,174.49
241,D5,53.875,0.125,68,174.49
242,C#5,54.0,1.0,76,174.49
243,E2,54.0,0.5,59,174.49
244,D4,55.0,1.0,62,174.49
245,B4,55.0,0.5,74,174.49
246,E3,55.0,1.0,54,174.49
247,B3,55.0,1.0,54,174.49
248,A4,55.5,0.5,74,174.49
249,D4,56.0,1.0,62,174.49
250,G#4,56.0,0.5,73,174.49
251,E3,56.0,1.0,54,174.49
252,B3,56.0,1.0,54,174.49
253,F#4,56.5,0.5,72,174.49
254,E4,57.0,0.5,74,174.49
255,A1,57.0,0.5,59,174.49
256,A4,57.5,0.5,70,174.49
257,C#4,58.0,1.0,62,174.49
258,A4,58.0,333/1000,74,174.49
259,A2,58.0,1.0,54,174.49
260,E3,58.0,1.0,54,174.49
261,A3,58.0,1.0,54,174.49
262,B4,58.333,333/1000,70,174.49
263,A4,58.667,333/1000,70,174.49
264,C#4,59.0,1.0,59,174.49
265,G#4,59.0,0.5,70,174.49
266,A2,59.0,1.0,54,174.49
267,E3,59.0,1.0,54,174.49
268,A3,59.0,1.0,54,174.49
269,F#4,59.5,0.5,70,174.49
270,G#4,60.0,3.0,73,174.49
271,E2,60.0,0.5,59,174.49
272,E3,61.0,1.0,43,174.49
273,B3,61.0,1.0,48,174.49
274,E4,61.0,1.0,48,174.49
275,D4,62.0,1.0,62,174.49
276,E4,62.0,1.0,62,174.49
277,E3,62.0,1.0,56,174.49
278,B3,62.0,1.0,56,174.49
279,E4,63.0,0.5,74,174.49
280,A2,63.0,0.5,59,174.49
281,G#4,63.5,0.5,70,174.49
282,A4,64.0,0.5,71,174.49
283,C#4,64.0,1.0,60,174.49
284,E3,64.0,1.0,52,174.49
285,A3,64.0,1.0,52,174.49
286,B4,64.5,0.5,71,174.49
287,C#5,65.0,0.5,72,174.49
288,C#4,65.0,1.0,61,174.49
289,A2,65.0,1.0,52,174.49
290,E3,65.0,1.0,52,174.49
291,A3,65.0,1.0,52,174.49
292,D5,65.5,0.25,73,174.49
293,C#5,65.75,0.125,70,174.49
294,D5,65.875,0.125,68,174.49
295,C#5,66.0,1.0,76,174.49
296,D2,66.0,0.5,59,174.49
297,D4,67.0,1.0,62,174.49
298,B4,67.0,0.5,74,174.49
299,F#3,67.0,1.0,54,174.49
300,B3,67.0,1.0,54,174.49
301,A4,67.5,0.5,74,174.49
302,D4,68.0,1.0,62,174.49
303,G#4,68.0,0.5,73,174.49
304,B2,68.0,1.0,54,174.49
305,F#3,68.0,1.0,54,174.49
306,B3,68.0,1.0,54,174.49
307,F#4,68.5,0.5,72,174.49
308,E4,69.0,0.5,74,174.49
309,E2,69.0,0.5,59,174.49
310,G#4,69.5,0.5,70,174.49
311,D4,70.0,1.0,62,174.49
312,G#4,70.0,333/1000,74,174.49
313,E3,70.0,1.0,54,174.49
314,B3,70.0,1.0,54,174.49
315,A4,70.333,333/1000,70,174.49
316,G#4,70.667,333/1000,70,174.49
317,D4,71.0,1.0,59,174.49
318,F#4,71.0,0.5,70,174.49
319,E3,71.0,1.0,54,174.49
320,B3,71.0,1.0,54,174.49
321,E4,71.5,0.5,70,174.49
322,A4,72.0,3.0,73,174.49
323,A1,72.0,0.5,59,174.49
324,C#4,73.0,1.0,53,174.49
325,A2,73.0,1.0,38,174.49
326,E3,73.0,1.0,38,174.49
327,A3,73.0,1.0,38,174.49
328,C#4,74.0,1.0,47,174.49
329,A2,74.0,1.0,39,174.49
330,E3,74.0,1.0,39,174.49
331,A3,74.0,1.0,39,174.49
332,E4,75.0,0.5,40,174.49
333,C#4,75.0,1.0,47,174.49
334,A2,75.0,1.0,39,174.49
335,E3,75.0,1.0,39,174.49
336,A3,75.0,1.0,39,174.49
337,G#4,75.5,0.5,39,174.49
338,A4,76.0,0.5,39,174.49
339,C#4,76.0,1.0,33,174.49
340,A2,76.0,1.0,23,174.49
341,E3,76.0,1.0,23,174.49
342,A3,76.0,1.0,23,174.49
343,B4,76.5,0.5,39,174.49
344,C#5,77.0,0.5,40,174.49
345,C#4,77.0,1.0,33,174.49
346,A2,77.0,1.0,23,174.49
347,E3,77.0,1.0,23,174.49
348,A3,77.0,1.0,23,174.49
349,D5,77.5,0.25,40,174.49
350,C#5,77.75,0.125,39,174.49
351,D5,77.875,0.125,37,174.49
352,C#5,78.0,1.0,42,174.49
353,E2,78.0,0.5,27,174.49
354,D4,79.0,1.0,34,174.49
355,B4,79.0,0.5,40,174.49
356,E3,79.0,1.0,24,174.49
357,B3,79.0,1.0,24,174.49
358,A4,79.5,0.5,40,174.49
359,D4,80.0,1.0,34,174.49
360,G#4,80.0,0.5,40,174.49
361,E3,80.0,1.0,24,174.49
362,B3,80.0,1.0,24,174.49
363,F#4,80.5,0.5,40,174.49
364,E4,81.0,0.5,40,174.49
365,A1,81.0,0.5,27,174.49
366,A4,81.5,0.5,39,174.49
367,C#4,82.0,1.0,34,174.49
368,A4,82.0,333/1000,40,174.49
369,A2,82.0,1.0,24,174.49
370,E3,82.0,1.0,24,174.49
371,A3,82.0,1.0,24,174.49
372,B4,82.333,333/1000,39,174.49
373,A4,82.667,333/1000,39,174.49
374,C#4,83.0,1.0,32,174.49
375,G#4,83.0,0.5,39,174.49
376,A2,83.0,1.0,24,174.49
377,E3,83.0,1.0,24,174.49
378,A3,83.0,1.0,24,174.49
379,F#4,83.5,0.5,39,174.49
380,G#4,84.0,3.0,40,174.49
381,E2,84.0,0.5,27,174.49
382,E3,85.0,1.0,20,174.49
383,B3,85.0,1.0,26,174.49
384,E4,85.0,1.0,26,174.49
385,E3,86.0,1.0,26,174.49
386,B3,86.0,1.0,26,174.49
387,D4,86.0,1.0,34,174.49
388,E4,86.0,1.0,34,174.49
389,E4,87.0,0.5,40,174.49
390,A2,87.0,1.0,27,174.49
391,E3,87.0,1.0,26,174.49
392,G#4,87.5,0.5,39,174.49
393,A4,88.0,0.5,39,174.49
394,C#4,88.0,1.0,33,174.49
395,E3,88.0,1.0,23,174.49
396,A3,88.0,1.0,23,174.49
397,B4,88.5,0.5,39,174.49
398,C#5,89.0,0.5,40,174.49
399,C#4,89.0,1.0,33,174.49
400,A2,89.0,1.0,23,174.49
401,E3,89.0,1.0,23,174.49
402,A3,89.0,1.0,23,174.49
403,D5,89.5,0.25,40,174.49
404,C#5,89.75,0.125,39,174.49
405,D5,89.875,0.125,37,174.49
406,C#5,90.0,1.0,42,174.49
407,D2,90.0,0.5,27,174.49
408,D4,91.0,1.0,34,174.49
409,B4,91.0,0.5,40,174.49
410,F#3,91.0,1.0,24,174.49
411,B3,91.0,1.0,24,174.49
412,A4,91.5,0.5,40,174.49
413,D4,92.0,1.0,34,174.49
414,G#4,92.0,0.5,40,174.49
415,B2,92.0,1.0,24,174.49
416,F#3,92.0,1.0,24,174.49
417,B3,92.0,1.0,24,174.49
418,F#4,92.5,0.5,40,174.49
419,E4,93.0,0.5,40,174.49
420,E2,93.0,0.5,27,174.49
421,G#4,93.5,0.5,39,174.49
422,D4,94.0,1.0,34,174.49
423,G#4,94.0,333/1000,40,174.49
424,E3,94.0,1.0,24,174.49
425,B3,94.0,1.0,24,174.49
426,A4,94.333,333/1000,39,174.49
427,G#4,94.667,333/1000,39,174.49
428,D4,95.0,1.0,32,174.49
429,F#4,95.0,0.5,39,174.49
430,E3,95.0,1.0,24,174.49
431,B3,95.0,1.0,24,174.49
432,E4,95.5,0.5,39,174.49
433,A4,96.0,3.0,40,174.49
434,A1,96.0,0.5,32,174.49
435,C#4,97.0,1.0,37,174.49
436,A3,97.0,1.0,28,174.49
437,E4,97.0,1.0,28,174.49
438,G4,98.0,1.0,73,174.49
439,C#4,98.0,1.0,73,174.49
440,A3,98.0,1.0,60,174.49
441,E4,98.0,1.0,60,174.49
442,F#4,99.0,1.0,78,174.49
443,A4,99.0,0.5,40,174.49
444,D3,99.0,0.5,67,174.49
445,C#5,99.5,0.5,80,174.49
446,D5,100.0,0.5,81,174.49
447,F#4,100.0,1.0,69,174.49
448,D3,100.0,1.0,59,174.49
449,A3,100.0,1.0,59,174.49
450,D4,100.0,1.0,59,174.49
451,E5,100.5,0.5,81,174.49
452,F#5,101.0,0.5,82,174.49
453,F#4,101.0,1.0,70,174.49
454,D3,101.0,1.0,59,174.49
455,A3,101.0,1.0,59,174.49
456,D4,101.0,1.0,59,174.49
457,G5,101.5,0.25,83,174.49
458,F#5,101.75,0.125,80,174.49
459,G5,101.875,0.125,78,174.49
460,F#5,102.0,1.0,87,174.49
461,A2,102.0,0.5,67,174.49
462,G4,103.0,1.0,71,174.49
463,E5,103.0,0.5,85,174.49
464,E3,103.0,1.0,62,174.49
465,A3,103.0,1.0,62,174.49
466,C#4,103.0,1.0,62,174.49
467,D5,103.5,0.5,85,174.49
468,G4,104.0,1.0,71,174.49
469,C#5,104.0,0.5,83,174.49
470,E3,104.0,1.0,62,174.49
471,A3,104.0,1.0,62,174.49
472,C#4,104.0,1.0,62,174.49
473,B4,104.5,0.5,82,174.49
474,A4,105.0,0.5,85,174.49
475,D2,105.0,0.5,67,174.49
476,D5,105.5,0.5,80,174.49
477,F#4,106.0,1.0,71,174.49
478,D5,106.0,333/1000,85,174.49
479,D3,106.0,1.0,62,174.49
480,A3,106.0,1.0,62,174.49
481,D4,106.0,1.0,62,174.49
482,E5,106.333,333/1000,80,174.49
483,D5,106.667,333/1000,80,174.49
484,F#4,107.0,1.0,67,174.49
485,C#5,107.0,0.5,80,174.49
486,D3,107.0,1.0,62,174.49
487,A3,107.0,1.0,62,174.49
488,D4,107.0,1.0,62,174.49
489,B4,107.5,0.5,80,174.49
490,C#5,108.0,3.0,83,174.49
491,A2,108.0,0.5,67,174.49
492,A3,109.0,1.0,49,174.49
493,E4,109.0,1.0,55,174.49
494,A4,109.0,1.0,55,174.49
495,G4,110.0,1.0,72,174.49
496,A4,110.0,1.0,72,174.49
497,A3,110.0,1.0,64,174.49
498,E4,110.0,1.0,64,174.49
499,A4,111.0,0.5,85,174.49
500,D3,111.0,0.5,67,174.49
501,C#5,111.5,0.5,80,174.49
502,D5,112.0,0.5,81,174.49
503,F#4,112.0,1.0,69,174.49
504,A3,112.0,1.0,59,174.49
505,D4,112.0,1.0,59,174.49
506,E5,112.5,0.5,81,174.49
507,F#5,113.0,0.5,82,174.49
508,F#4,113.0,1.0,70,174.49
509,D3,113.0,1.0,59,174.49
510,A3,113.0,1.0,59,174.49
511,D4,113.0,1.0,59,174.49
512,G5,113.5,0.25,83,174.49
513,F#5,113.75,0.125,80,174.49
514,G5,113.875,0.125,78,174.49
515,F#5,114.0,1.0,87,174.49
516,G2,114.0,0.5,67,174.49
517,G4,115.0,1.0,71,174.49
518,E5,115.0,0.5,85,174.49
519,B3,115.0,1.0,62,174.49
520,E4,115.0,1.0,62,174.49
521,D5,115.5,0.5,85,174.49
522,G4,116.0,1.0,71,174.49
523,C#5,116.0,0.5,83,174.49
524,E3,116.0,1.0,62,174.49
525,B3,116.0,1.0,62,174.49
526,E4,116.0,1.0,62,174.49
527,B4,116.5,0.5,82,174.49
528,A4,117.0,0.5,85,174.49
529,A2,117.0,0.5,67,174.49
530,C#5,117.5,0.5,80,174.49
531,G4,118.0,1.0,71,174.49
532,C#5,118.0,333/1000,85,174.49
533,A3,118.0,1.0,62,174.49
534,E4,118.0,1.0,62,174.49
535,D5,118.333,333/1000,80,174.49
536,C#5,118.667,333/1000,80,174.49
537,G4,119.0,1.0,67,174.49
538,B4,119.0,0.5,80,174.49
539,A3,119.0,1.0,62,174.49
540,E4,119.0,1.0,62,174.49
541,A4,119.5,0.5,80,174.49
542,D5,120.0,3.0,83,174.49
543,D2,120.0,0.5,67,174.49
544,F#4,121.0,1.0,60,174.49
545,D3,121.0,1.0,44,174.49
546,A3,121.0,1.0,44,174.49
547,D4,121.0,1.0,44,174.49
548,F#4,122.0,1.0,54,174.49
549,D3,122.0,1.0,44,174.49
550,A3,122.0,1.0,44,174.49
551,D4,122.0,1.0,44,174.49
552,A4,123.0,0.5,40,174.49
553,F#4,123.0,1.0,54,174.49
554,D3,123.0,1.0,44,174.49
555,A3,123.0,1.0,44,174.49
556,D4,123.0,1.0,44,174.49
557,C#5,123.5,0.5,39,174.49
558,D5,124.0,0.5,39,174.49
559,F#4,124.0,1.0,33,174.49
560,D3,124.0,1.0,23,174.49
561,A3,124.0,1.0,23,174.49
562,D4,124.0,1.0,23,174.49
563,E5,124.5,0.5,39,174.49
564,F#5,125.0,0.5,40,174.49
565,F#4,125.0,1.0,33,174.49
566,D3,125.0,1.0,23,174.49
567,A3,125.0,1.0,23,174.49
568,D4,125.0,1.0,23,174.49
569,G5,125.5,0.25,40,174.49
570,F#5,125.75,0.125,39,174.49
571,G5,125.875,0.125,37,174.49
572,F#5,126.0,1.0,42,174.49
573,A2,126.0,0.5,27,174.49
574,G4,127.0,1.0,34,174.49
575,E5,127.0,0.5,40,174.49
576,E3,127.0,1.0,24,174.49
577,A3,127.0,1.0,24,174.49
578,C#4,127.0,1.0,24,174.49
579,D5,127.5,0.5,40,174.49
580,G4,128.0,1.0,34,174.49
581,C#5,128.0,0.5,40,174.49
582,E3,128.0,1.0,24,174.49
583,A3,128.0,1.0,24,174.49
584,C#4,128.0,1.0,24,174.49
585,B4,128.5,0.5,40,174.49
586,A4,129.0,0.5,40,174.49
587,D2,129.0,0.5,27,174.49
588,D5,129.5,0.5,39,174.49
589,F#4,130.0,1.0,34,174.49
590,D5,130.0,333/1000,40,174.49
591,D3,130.0,1.0,24,174.49
592,A3,130.0,1.0,24,174.49
593,D4,130.0,1.0,24,174.49
594,E5,130.333,333/1000,39,174.49
595,D5,130.667,333/1000,39,174.49
596,F#4,131.0,1.0,32,174.49
597,C#5,131.0,0.5,39,174.49
598,D3,131.0,1.0,24,174.49
599,A3,131.0,1.0,24,174.49
600,D4,131.0,1.0,24,174.49
601,B4,131.5,0.5,39,174.49
602,C#5,132.0,3.0,40,174.49
603,A2,132.0,0.5,27,174.49
604,E4,133.0,1.0,26,174.49
605,A4,133.0,1.0,26,174.49
606,C#4,133.0,1.0,20,174.49
607,A3,133.0,1.0,20,174.49
608,A3,134.0,1.0,26,174.49
609,E4,134.0,1.0,26,174.49
610,G4,134.0,1.0,34,174.49
611,A4,134.0,1.0,34,174.49
612,A4,135.0,0.5,40,174.49
613,D3,135.0,1.0,27,174.49
614,A3,135.0,1.0,26,174.49
615,C#5,135.5,0.5,39,174.49
616,D5,136.0,0.5,39,174.49
617,F#4,136.0,1.0,33,174.49
618,A3,136.0,1.0,23,174.49
619,D4,136.0,1.0,23,174.49
620,E5,136.5,0.5,39,174.49
621,F#5,137.0,0.5,40,174.49
622,F#4,137.0,1.0,33,174.49
623,D3,137.0,1.0,23,174.49
624,A3,137.0,1.0,23,174.49
625,D4,137.0,1.0,23,174.49
626,G5,137.5,0.25,40,174.49
627,F#5,137.75,0.125,39,174.49
628,G5,137.875,0.125,37,174.49
629,F#5,138.0,1.0,42,174.49
630,G2,138.0,0.5,27,174.49
631,G4,139.0,1.0,34,174.49
632,E5,139.0,0.5,40,174.49
633,B3,139.0,1.0,24,174.49
634,E4,139.0,1.0,24,174.49
635,D5,139.5,0.5,40,174.49
636,G4,140.0,1.0,34,174.49
637,C#5,140.0,0.5,40,174.49
638,E3,140.0,1.0,24,174.49
639,B3,140.0,1.0,24,174.49
640,E4,140.0,1.0,24,174.49
641,B4,140.5,0.5,40,174.49
642,A4,141.0,0.5,40,174.49
643,A2,141.0,0.5,27,174.49
644,C#5,141.5,0.5,39,174.49
645,G4,142.0,1.0,34,174.49
646,C#5,142.0,333/1000,40,174.49
647,A3,142.0,1.0,24,174.49
648,E4,142.0,1.0,24,174.49
649,D5,142.333,333/1000,39,174.49
650,C#5,142.667,333/1000,39,174.49
651,G4,143.0,1.0,32,174.49
652,B4,143.0,0.5,39,174.49
653,A3,143.0,1.0,24,174.49
654,E4,143.0,1.0,24,174.49
655,A4,143.5,0.5,39,174.49
656,D5,144.0,3.0,40,174.49
657,D2,144.0,1.0,27,174.49
658,F#4,145.0,1.0,29,174.49
659,D3,145.0,1.0,18,174.49
660,A3,145.0,1.0,18,174.49
661,D4,145.0,1.0,18,174.49
662,F#4,146.0,1.0,37,174.49
663,D3,146.0,1.0,26,174.49
664,A3,146.0,1.0,26,174.49
665,D4,146.0,1.0,26,174.49
666,F4,147.0,2.0,54,174.49
667,D5,147.0,0.75,40,174.49
668,B-2,147.0,1.0,44,174.49
669,D5,147.75,0.25,58,174.49
670,E-5,148.0,1.0,62,174.49
671,D4,148.0,1.0,35,174.49
672,B-3,148.0,1.0,35,174.49
673,F3,148.0,1.0,35,174.49
674,B-4,149.0,1.0,42,174.49
675,E5,149.0,1.0,55,174.49
676,F3,149.0,1.0,36,174.49
677,D4,149.0,1.0,36,174.49
678,B-3,149.0,1.0,36,174.49
679,G5,150.0,0.75,64,174.49
680,B-4,150.0,1.0,42,174.49
681,F2,150.0,1.0,46,174.49
682,F5,150.75,0.25,60,174.49
683,A4,151.0,0.5,49,174.49
684,C5,151.0,1.0,64,174.49
685,E-4,151.0,1.0,38,174.49
686,C4,151.0,1.0,38,174.49
687,F3,151.0,1.0,38,174.49
688,G4,151.5,0.5,47,174.49
689,F4,152.0,1.0,48,174.49
690,C5,152.0,1.0,57,174.49
691,E-4,152.0,1.0,39,174.49
692,C4,152.0,1.0,39,174.49
693,F3,152.0,1.0,39,174.49
694,D5,153.0,0.75,64,174.49
695,F4,153.0,1.0,48,174.49
696,B-2,153.0,1.0,49,174.49
697,D5,153.75,0.25,64,174.49
698,F4,154.0,1.0,56,174.49
699,B-4,154.0,1.0,56,174.49
700,E-5,154.0,1.0,56,174.49
701,D4,154.0,1.0,40,174.49
702,B-3,154.0,1.0,40,174.49
703,F3,154.0,1.0,40,174.49
704,F4,155.0,1.0,51,174.49
705,B-4,155.0,1.0,56,174.49
706,E5,155.0,1.0,56,174.49
707,F3,155.0,1.0,41,174.49
708,D4,155.0,1.0,41,174.49
709,B-3,155.0,1.0,41,174.49
710,C5,156.0,1.0,52,174.49
711,G5,156.0,0.75,71,174.49
712,F4,156.0,1.0,51,174.49
713,A2,156.0,1.75,51,174.49
714,F5,156.75,0.25,66,174.49
715,F4,157.0,1.0,59,174.49
716,C5,157.0,2.0,71,174.49
717,C4,157.0,0.75,47,174.49
718,G2,157.75,0.25,48,174.49
719,F2,158.0,1.0,62,174.49
720,A4,158.0,1.0,74,174.49
721,F5,158.0,1.0,74,174.49
722,E5,159.0,0.5,76,174.49
723,B-4,159.0,0.5,76,174.49
724,B-5,159.0,0.5,76,174.49
725,C2,159.0,1.0,60,174.49
726,C3,159.0,1.0,60,174.49
727,B-4,159.75,0.25,72,174.49
728,E5,159.75,0.25,72,174.49
729,B-5,159.75,0.25,72,174.49
730,B-4,160.0,1.0,76,174.49
731,E5,160.0,1.0,76,174.49
732,B-5,160.0,1.0,76,174.49
733,G4,160.0,1.0,60,174.49
734,C4,160.0,1.0,60,174.49
735,B-4,161.0,1.0,74,174.49
736,E5,161.0,1.0,74,174.49
737,B-5,161.0,1.0,74,174.49
738,F2,162.0,0.5,64,174.49
739,F5,162.0,0.5,77,174.49
740,B-4,162.0,0.5,77,174.49
741,B-5,162.0,0.5,77,174.49
742,B3,162.75,0.25,65,174.49
743,B-4,162.75,0.25,73,174.49
744,F5,162.75,0.25,73,174.49
745,B-5,162.75,0.25,73,174.49
746,C4,163.0,0.75,72,174.49
747,B-4,163.0,1.0,76,174.49
748,F5,163.0,1.0,76,174.49
749,B-5,163.0,1.0,76,174.49
750,C#4,163.75,0.25,68,174.49
751,C4,164.0,1.0,72,174.49
752,A4,164.0,1.0,73,174.49
753,F5,164.0,1.0,73,174.49
754,A5,164.0,1.0,73,174.49
755,C3,165.0,0.5,58,174.49
756,E5,165.0,0.5,69,174.49
757,B-4,165.0,0.5,69,174.49
758,A5,165.0,0.5,69,174.49
759,B3,165.75,0.25,58,174.49
760,B-4,165.75,0.25,65,174.49
761,E5,165.75,0.25,65,174.49
762,A5,165.75,0.25,65,174.49
763,C4,166.0,0.75,63,174.49
764,B-4,166.0,1.0,67,174.49
765,E5,166.0,1.0,67,174.49
766,A5,166.0,1.0,67,174.49
767,D4,166.75,0.25,58,174.49
768,C4,167.0,1.0,62,174.49
769,B-4,167.0,1.0,64,174.49
770,E5,167.0,1.0,64,174.49
771,G5,167.0,1.0,64,174.49
772,F3,168.0,0.5,52,174.49
773,E-5,168.0,0.5,62,174.49
774,A4,168.0,0.5,62,174.49
775,G5,168.0,0.5,62,174.49
776,B3,168.75,0.25,46,174.49
777,A4,168.75,0.25,55,174.49
778,E-5,168.75,0.25,55,174.49
779,G5,168.75,0.25,55,174.49
780,C4,169.0,0.75,54,174.49
781,A4,169.0,1.0,57,174.49
782,E-5,169.0,1.0,57,174.49
783,G5,169.0,1.0,57,174.49
784,E4,169.75,0.25,45,174.49
785,F4,170.0,1.0,47,174.49
786,A4,170.0,1.0,49,174.49
787,E-5,170.0,1.0,49,174.49
788,F5,170.0,1.0,49,174.49
789,D5,171.0,0.75,61,174.49
790,B-2,171.0,1.0,44,174.49
791,D5,171.75,0.25,58,174.49
792,F4,172.0,1.0,51,174.49
793,B-4,172.0,1.0,51,174.49
794,E-5,172.0,1.0,51,174.49
795,D4,172.0,1.0,35,174.49
796,B-3,172.0,1.0,35,174.49
797,F3,172.0,1.0,35,174.49
798,F4,173.0,1.0,49,174.49
799,B-4,173.0,1.0,49,174.49
800,E5,173.0,1.0,49,174.49
801,F3,173.0,1.0,36,174.49
802,D4,173.0,1.0,36,174.49
803,B-3,173.0,1.0,36,174.49
804,F#5,174.0,0.75,64,174.49
805,A2,174.0,1.0,46,174.49
806,F5,174.75,0.25,60,174.49
807,F4,175.0,0.75,53,174.49
808,C5,175.0,1.0,64,174.49
809,E-4,175.0,1.0,38,174.49
810,C4,175.0,1.0,38,174.49
811,F3,175.0,1.0,38,174.49
812,F#4,175.75,0.25,47,174.49
813,F4,176.0,1.0,52,174.49
814,C5,176.0,1.0,52,174.49
815,E-4,176.0,1.0,39,174.49
816,C4,176.0,1.0,39,174.49
817,F3,176.0,1.0,39,174.49
818,C#5,177.0,0.75,68,174.49
819,B-2,177.0,1.0,49,174.49
820,C#5,177.75,0.25,64,174.49
821,F4,178.0,1.0,56,174.49
822,B-4,178.0,1.0,56,174.49
823,E-5,178.0,1.0,56,174.49
824,C#4,178.0,1.0,40,174.49
825,B-3,178.0,1.0,40,174.49
826,F3,178.0,1.0,40,174.49
827,F4,179.0,1.0,53,174.49
828,B-4,179.0,1.0,53,174.49
829,E5,179.0,1.0,53,174.49
830,F3,179.0,1.0,40,174.49
831,C#4,179.0,1.0,40,174.49
832,B-3,179.0,1.0,40,174.49
833,F#5,180.0,0.75,74,174.49
834,G#2,180.0,1.0,53,174.49
835,F5,180.75,0.25,72,174.49
836,C#5,181.0,1.0,66,174.49
837,G#4,181.0,1.0,66,174.49
838,G#5,181.0,1.0,66,174.49
839,F3,181.0,0.75,48,174.49
840,G#3,181.0,0.75,48,174.49
841,F4,181.0,0.75,48,174.49
842,C#4,181.0,0.75,48,174.49
843,B-2,181.75,0.25,54,174.49
844,G#2,182.0,1.0,67,174.49
845,C#5,182.0,1.0,81,174.49
846,C#6,182.0,1.0,81,174.49
847,G#1,183.0,1.0,70,174.49
848,C5,183.0,0.5,85,174.49
849,F#4,183.0,0.5,85,174.49
850,F#5,183.0,0.5,85,174.49
851,F#4,183.75,0.25,80,174.49
852,C5,183.75,0.25,80,174.49
853,F#5,183.75,0.25,80,174.49
854,F#4,184.0,1.0,84,174.49
855,C5,184.0,1.0,84,174.49
856,F#5,184.0,1.0,84,174.49
857,E-4,184.0,1.0,65,174.49
858,G#3,184.0,1.0,65,174.49
859,F#4,185.0,1.0,80,174.49
860,C5,185.0,1.0,80,174.49
861,F#5,185.0,1.0,80,174.49
862,C#2,186.0,0.5,69,174.49
863,C#5,186.0,0.5,84,174.49
864,F#4,186.0,0.5,84,174.49
865,F#5,186.0,0.5,84,174.49
866,G3,186.75,0.25,73,174.49
867,F#4,186.75,0.25,78,174.49
868,C#5,186.75,0.25,78,174.49
869,F#5,186.75,0.25,78,174.49
870,G#3,187.0,0.75,77,174.49
871,F#4,187.0,1.0,82,174.49
872,C#5,187.0,1.0,82,174.49
873,F#5,187.0,1.0,82,174.49
874,B-3,187.75,0.25,72,174.49
875,G#3,188.0,1.0,75,174.49
876,F4,188.0,1.0,78,174.49
877,C#5,188.0,1.0,78,174.49
878,F5,188.0,1.0,78,174.49
879,G#2,189.0,0.5,60,174.49
880,C5,189.0,0.5,72,174.49
881,F#4,189.0,0.5,72,174.49
882,F5,189.0,0.5,72,174.49
883,G3,189.75,0.25,60,174.49
884,F#4,189.75,0.25,67,174.49
885,C5,189.75,0.25,67,174.49
886,F5,189.75,0.25,67,174.49
887,G#3,190.0,0.75,65,174.49
888,F#4,190.0,1.0,67,174.49
889,C5,190.0,1.0,67,174.49
890,F5,190.0,1.0,67,174.49
891,A3,190.75,0.25,63,174.49
892,G#3,191.0,1.0,64,174.49
893,F#4,191.0,1.0,67,174.49
894,C5,191.0,1.0,67,174.49
895,E-5,191.0,1.0,67,174.49
896,C#3,192.0,0.5,53,174.49
897,F#4,192.0,0.5,66,174.49
898,E-5,192.0,0.5,66,174.49
899,G3,192.75,0.25,46,174.49
900,F#4,192.75,0.25,56,174.49
901,G#4,192.75,0.25,56,174.49
902,E-5,192.75,0.25,56,174.49
903,G#4,193.0,2.0,55,174.49
904,G#3,193.0,0.75,55,174.49
905,F#4,193.0,1.0,60,174.49
906,E-5,193.0,1.0,60,174.49
907,C4,193.75,0.25,45,174.49
908,C#4,194.0,1.0,47,174.49
909,F4,194.0,1.0,51,174.49
910,C#5,194.0,1.0,51,174.49
911,F2,195.0,0.5,40,174.49
912,G#4,195.0,333/1000,57,174.49
913,D5,195.0,333/1000,57,174.49
914,D4,195.333,333/1000,56,174.49
915,G#4,195.667,2333/1000,47,174.49
916,D5,195.667,1333/1000,56,174.49
917,D4,196.0,1.0,66,174.49
918,B3,196.0,1.0,32,174.49
919,F3,196.0,1.0,32,174.49
920,D4,197.0,1.0,60,174.49
921,D5,197.0,1.0,60,174.49
922,F3,197.0,1.0,33,174.49
923,B3,197.0,1.0,33,174.49
924,F#2,198.0,0.5,43,174.49
925,A4,198.0,333/1000,61,174.49
926,D5,198.0,333/1000,61,174.49
927,D4,198.333,333/1000,59,174.49
928,A4,198.667,2333/1000,50,174.49
929,D5,198.667,1833/1000,60,174.49
930,D4,199.0,1.5,70,174.49
931,A3,199.0,1.0,34,174.49
932,F#3,199.0,1.0,34,174.49
933,F#3,200.0,1.0,35,174.49
934,A3,200.0,1.0,35,174.49
935,C#4,200.5,0.5,62,174.49
936,C#5,200.5,0.5,62,174.49
937,F2,201.0,0.5,45,174.49
938,G#4,201.0,333/1000,64,174.49
939,D5,201.0,333/1000,64,174.49
940,D4,201.333,333/1000,63,174.49
941,G#4,201.667,2333/1000,53,174.49
942,D5,201.667,1333/1000,63,174.49
943,D4,202.0,1.0,74,174.49
944,B3,202.0,1.0,36,174.49
945,F3,202.0,1.0,36,174.49
946,D4,203.0,1.0,68,174.49
947,D5,203.0,1.0,68,174.49
948,F3,203.0,1.0,37,174.49
949,B3,203.0,1.0,37,174.49
950,F#2,204.0,0.5,48,174.49
951,A4,204.0,333/1000,68,174.49
952,D5,204.0,333/1000,68,174.49
953,D4,204.333,333/1000,66,174.49
954,A4,204.667,2333/1000,56,174.49
955,D5,204.667,1833/1000,67,174.49
956,D4,205.0,1.5,78,174.49
957,A3,205.0,1.0,38,174.49
958,F#3,205.0,1.0,38,174.49
959,F#3,206.0,1.0,40,174.49
960,A3,206.0,1.0,40,174.49
961,C#4,206.5,0.5,70,174.49
962,C#5,206.5,0.5,70,174.49
963,E2,207.0,0.5,51,174.49
964,G#4,207.0,333/1000,72,174.49
965,D5,207.0,333/1000,72,174.49
966,D4,207.333,333/1000,70,174.49
967,G#4,207.667,2333/1000,59,174.49
968,D5,207.667,1333/1000,70,174.49
969,D4,208.0,1.0,82,174.49
970,B3,208.0,1.0,40,174.49
971,E3,208.0,1.0,40,174.49
972,D4,209.0,1.0,73,174.49
973,D5,209.0,1.0,73,174.49
974,E3,209.0,1.0,40,174.49
975,B3,209.0,1.0,40,174.49
976,A2,210.0,0.5,51,174.49
977,A4,210.0,333/1000,72,174.49
978,D5,210.0,333/1000,72,174.49
979,D4,210.333,333/1000,70,174.49
980,A4,210.667,2333/1000,59,174.49
981,D5,210.667,1833/1000,70,174.49
982,D4,211.0,1.5,82,174.49
983,A3,211.0,1.0,40,174.49
984,E3,211.0,1.0,40,174.49
985,E3,212.0,1.0,40,174.49
986,A3,212.0,1.0,40,174.49
987,C#4,212.5,0.5,70,174.49
988,C#5,212.5,0.5,70,174.49
989,E2,213.0,0.5,51,174.49
990,G#4,213.0,333/1000,72,174.49
991,D5,213.0,333/1000,72,174.49
992,D4,213.333,333/1000,70,174.49
993,G#4,213.667,2333/1000,59,174.49
994,D5,213.667,1333/1000,70,174.49
995,D4,214.0,1.0,82,174.49
996,B3,214.0,1.0,40,174.49
997,E3,214.0,1.0,40,174.49
998,D4,215.0,1.0,73,174.49
999,D5,215.0,1.0,73,174.49
1000,E3,215.0,1.0,40,174.49
1001,B3,215.0,1.0,40,174.49
1002,A2,216.0,0.5,51,174.49
1003,A4,216.0,333/1000,72,174.49
1004,D5,216.0,333/1000,72,174.49
1005,D4,216.333,333/1000,70,174.49
1006,A4,216.667,2333/1000,59,174.49
1007,D5,216.667,1833/1000,70,174.49
1008,D4,217.0,1.5,82,174.49
1009,A3,217.0,1.0,40,174.49
1010,E3,217.0,1.0,40,174.49
1011,E3,218.0,1.0,40,174.49
1012,A3,218.0,1.0,40,174.49
1013,C#4,218.5,0.5,70,174.49
1014,C#5,218.5,0.5,70,174.49
1015,F2,219.0,0.5,40,174.49
1016,G#4,219.0,333/1000,57,174.49
1017,D5,219.0,333/1000,57,174.49
1018,D4,219.333,333/1000,56,174.49
1019,G#4,219.667,2333/1000,47,174.49
1020,D5,219.667,1333/1000,56,174.49
1021,D4,220.0,1.0,65,174.49
1022,B3,220.0,1.0,32,174.49
1023,F3,220.0,1.0,32,174.49
1024,D4,221.0,1.0,58,174.49
1025,D5,221.0,1.0,58,174.49
1026,F3,221.0,1.0,32,174.49
1027,B3,221.0,1.0,32,174.49
1028,F#2,222.0,0.5,41,174.49
1029,A4,222.0,333/1000,58,174.49
1030,D5,222.0,333/1000,58,174.49
1031,D4,222.333,333/1000,57,174.49
1032,A4,222.667,2333/1000,48,174.49
1033,D5,222.667,1833/1000,58,174.49
1034,D4,223.0,1.5,68,174.49
1035,A3,223.0,1.0,33,174.49
1036,F#3,223.0,1.0,33,174.49
1037,F#3,224.0,1.0,34,174.49
1038,A3,224.0,1.0,34,174.49
1039,C#4,224.5,0.5,59,174.49
1040,C#5,224.5,0.5,59,174.49
1041,F2,225.0,0.5,43,174.49
1042,G#4,225.0,333/1000,61,174.49
1043,D5,225.0,333/1000,61,174.49
1044,D4,225.333,333/1000,59,174.49
1045,G#4,225.667,2333/1000,50,174.49
1046,D5,225.667,1333/1000,59,174.49
1047,D4,226.0,1.0,69,174.49
1048,B3,226.0,1.0,34,174.49
1049,F3,226.0,1.0,34,174.49
1050,D4,227.0,1.0,62,174.49
1051,D5,227.0,1.0,62,174.49
1052,F3,227.0,1.0,34,174.49
1053,B3,227.0,1.0,34,174.49
1054,F#2,228.0,0.5,44,174.49
1055,A4,228.0,333/1000,62,174.49
1056,D5,228.0,333/1000,62,174.49
1057,D4,228.333,333/1000,60,174.49
1058,A4,228.667,2333/1000,51,174.49
1059,D5,228.667,1833/1000,61,174.49
1060,D4,229.0,1.5,72,174.49
1061,A3,229.0,1.0,35,174.49
1062,F#3,229.0,1.0,35,174.49
1063,F#3,230.0,1.0,36,174.49
1064,A3,230.0,1.0,36,174.49
1065,C#4,230.5,0.5,62,174.49
1066,C#5,230.5,0.5,62,174.49
1067,E2,231.0,0.5,45,174.49
1068,G#4,231.0,333/1000,64,174.49
1069,D5,231.0,333/1000,64,174.49
1070,D4,231.333,333/1000,63,174.49
1071,G#4,231.667,2333/1000,53,174.49
1072,D5,231.667,1333/1000,63,174.49
1073,D4,232.0,1.0,73,174.49
1074,B3,232.0,1.0,36,174.49
1075,E3,232.0,1.0,36,174.49
1076,D4,233.0,1.0,66,174.49
1077,D5,233.0,1.0,66,174.49
1078,E3,233.0,1.0,36,174.49
1079,B3,233.0,1.0,36,174.49
1080,A2,234.0,0.5,45,174.49
1081,A4,234.0,333/1000,64,174.49
1082,D5,234.0,333/1000,64,174.49
1083,D4,234.333,333/1000,63,174.49
1084,A4,234.667,2333/1000,53,174.49
1085,D5,234.667,1833/1000,63,174.49
1086,D4,235.0,1.5,73,174.49
1087,A3,235.0,1.0,36,174.49
1088,E3,235.0,1.0,36,174.49
1089,E3,236.0,1.0,36,174.49
1090,A3,236.0,1.0,36,174.49
1091,C#4,236.5,0.5,63,174.49
1092,C#5,236.5,0.5,63,174.49
1093,E2,237.0,0.5,45,174.49
1094,G#4,237.0,333/1000,64,174.49
1095,D5,237.0,333/1000,64,174.49
1096,D4,237.333,333/1000,63,174.49
1097,G#4,237.667,2333/1000,52,174.49
1098,D5,237.667,1333/1000,62,174.49
1099,D4,238.0,1.0,72,174.49
1100,B3,238.0,1.0,35,174.49
1101,E3,238.0,1.0,35,174.49
1102,D4,239.0,1.0,62,174.49
1103,D5,239.0,1.0,62,174.49
1104,E3,239.0,1.0,34,174.49
1105,B3,239.0,1.0,34,174.49
1106,A2,240.0,0.5,42,174.49
1107,G4,240.0,333/1000,59,174.49
1108,D5,240.0,333/1000,59,174.49
1109,D4,240.333,333/1000,57,174.49
1110,G4,240.667,2333/1000,47,174.49
1111,D5,240.667,1833/1000,56,174.49
1112,D4,241.0,1.0,65,174.49
1113,E4,241.0,1.0,32,174.49
1114,A3,241.0,1.0,32,174.49
1115,C#4,242.0,1.0,53,174.49
1116,A3,242.0,1.0,31,174.49
1117,E4,242.0,1.0,31,174.49
1118,C#5,242.5,0.5,56,174.49
1119,A4,243.0,0.5,68,174.49
1120,D3,243.0,0.5,59,174.49
1121,C#5,243.5,0.5,70,174.49
1122,D5,244.0,0.5,71,174.49
1123,F#4,244.0,1.0,60,174.49
1124,D3,244.0,1.0,52,174.49
1125,A3,244.0,1.0,52,174.49
1126,D4,244.0,1.0,52,174.49
1127,E5,244.5,0.5,71,174.49
1128,F#5,245.0,0.5,72,174.49
1129,F#4,245.0,1.0,61,174.49
1130,D3,245.0,1.0,52,174.49
1131,A3,245.0,1.0,52,174.49
1132,D4,245.0,1.0,52,174.49
1133,G5,245.5,0.25,73,174.49
1134,F#5,245.75,0.125,70,174.49
1135,G5,245.875,0.125,68,174.49
1136,F#5,246.0,1.0,76,174.49
1137,A2,246.0,0.5,59,174.49
1138,G4,247.0,1.0,62,174.49
1139,E5,247.0,0.5,74,174.49
1140,E3,247.0,1.0,54,174.49
1141,A3,247.0,1.0,54,174.49
1142,C#4,247.0,1.0,54,174.49
1143,D5,247.5,0.5,74,174.49
1144,G4,248.0,1.0,62,174.49
1145,C#5,248.0,0.5,73,174.49
1146,E3,248.0,1.0,54,174.49
1147,A3,248.0,1.0,54,174.49
1148,C#4,248.0,1.0,54,174.49
1149,B4,248.5,0.5,72,174.49
1150,A4,249.0,0.5,74,174.49
1151,D2,249.0,0.5,59,174.49
1152,D5,249.5,0.5,70,174.49
1153,F#4,250.0,1.0,62,174.49
1154,D5,250.0,333/1000,74,174.49
1155,D3,250.0,1.0,54,174.49
1156,A3,250.0,1.0,54,174.49
1157,D4,250.0,1.0,54,174.49
1158,E5,250.333,333/1000,70,174.49
1159,D5,250.667,333/1000,70,174.49
1160,F#4,251.0,1.0,59,174.49
1161,C#5,251.0,0.5,70,174.49
1162,D3,251.0,1.0,54,174.49
1163,A3,251.0,1.0,54,174.49
1164,D4,251.0,1.0,54,174.49
1165,B4,251.5,0.5,70,174.49
1166,C#5,252.0,3.0,73,174.49
1167,A2,252.0,0.5,59,174.49
1168,A3,253.0,1.0,43,174.49
1169,E4,253.0,1.0,48,174.49
1170,A4,253.0,1.0,48,174.49
1171,G4,254.0,1.0,62,174.49
1172,A4,254.0,1.0,62,174.49
1173,A3,254.0,1.0,56,174.49
1174,E4,254.0,1.0,56,174.49
1175,A4,255.0,0.5,74,174.49
1176,D3,255.0,0.5,59,174.49
1177,C#5,255.5,0.5,70,174.49
1178,D5,256.0,0.5,71,174.49
1179,F#4,256.0,1.0,60,174.49
1180,A3,256.0,1.0,52,174.49
1181,D4,256.0,1.0,52,174.49
1182,E5,256.5,0.5,71,174.49
1183,F#5,257.0,0.5,72,174.49
1184,F#4,257.0,1.0,61,174.49
1185,D3,257.0,1.0,52,174.49
1186,A3,257.0,1.0,52,174.49
1187,D4,257.0,1.0,52,174.49
1188,G5,257.5,0.25,73,174.49
1189,F#5,257.75,0.125,70,174.49
1190,G5,257.875,0.125,68,174.49
1191,F#5,258.0,1.0,76,174.49
1192,G2,258.0,0.5,59,174.49
1193,G4,259.0,1.0,62,174.49
1194,E5,259.0,0.5,74,174.49
1195,B3,259.0,1.0,54,174.49
1196,E4,259.0,1.0,54,174.49
1197,D5,259.5,0.5,74,174.49
1198,G4,260.0,1.0,62,174.49
1199,C#5,260.0,0.5,73,174.49
1200,E3,260.0,1.0,54,174.49
1201,B3,260.0,1.0,54,174.49
1202,E4,260.0,1.0,54,174.49
1203,B4,260.5,0.5,72,174.49
1204,A4,261.0,0.5,74,174.49
1205,A2,261.0,0.5,59,174.49
1206,C#5,261.5,0.5,70,174.49
1207,G4,262.0,1.0,62,174.49
1208,C#5,262.0,333/1000,74,174.49
1209,A3,262.0,1.0,54,174.49
1210,E4,262.0,1.0,54,174.49
1211,D5,262.333,333/1000,70,174.49
1212,C#5,262.667,333/1000,70,174.49
1213,G4,263.0,1.0,59,174.49
1214,B4,263.0,0.5,70,174.49
1215,A3,263.0,1.0,54,174.49
1216,E4,263.0,1.0,54,174.49
1217,A4,263.5,0.5,70,174.49
1218,D5,264.0,3.0,73,174.49
1219,D2,264.0,0.5,59,174.49
1220,F#4,265.0,1.0,53,174.49
1221,D3,265.0,1.0,38,174.49
1222,A3,265.0,1.0,38,174.49
1223,D4,265.0,1.0,38,174.49
1224,F#4,266.0,1.0,47,174.49
1225,D3,266.0,1.0,39,174.49
1226,A3,266.0,1.0,39,174.49
1227,D4,266.0,1.0,39,174.49
1228,A4,267.0,0.5,40,174.49
1229,F#4,267.0,1.0,47,174.49
1230,D3,267.0,1.0,39,174.49
1231,A3,267.0,1.0,39,174.49
1232,D4,267.0,1.0,39,174.49
1233,C#5,267.5,0.5,39,174.49
1234,D5,268.0,0.5,39,174.49
1235,F#4,268.0,1.0,33,174.49
1236,D3,268.0,1.0,23,174.49
1237,A3,268.0,1.0,23,174.49
1238,D4,268.0,1.0,23,174.49
1239,E5,268.5,0.5,39,174.49
1240,F#5,269.0,0.5,40,174.49
1241,F#4,269.0,1.0,33,174.49
1242,D3,269.0,1.0,23,174.49
1243,A3,269.0,1.0,23,174.49
1244,D4,269.0,1.0,23,174.49
1245,G5,269.5,0.25,40,174.49
1246,F#5,269.75,0.125,39,174.49
1247,G5,269.875,0.125,37,174.49
1248,F#5,270.0,1.0,42,174.49
1249,A2,270.0,0.5,27,174.49
1250,G4,271.0,1.0,34,174.49
1251,E5,271.0,0.5,40,174.49
1252,E3,271.0,1.0,24,174.49
1253,A3,271.0,1.0,24,174.49
1254,C#4,271.0,1.0,24,174.49
1255,D5,271.5,0.5,40,174.49
1256,G4,272.0,1.0,34,174.49
1257,C#5,272.0,0.5,40,174.49
1258,E3,272.0,1.0,24,174.49
1259,A3,272.0,1.0,24,174.49
1260,C#4,272.0,1.0,24,174.49
1261,B4,272.5,0.5,40,174.49
1262,A4,273.0,0.5,40,174.49
1263,D2,273.0,0.5,27,174.49
1264,D5,273.5,0.5,39,174.49
1265,F#4,274.0,1.0,34,174.49
1266,D5,274.0,333/1000,40,174.49
1267,D3,274.0,1.0,24,174.49
1268,A3,274.0,1.0,24,174.49
1269,D4,274.0,1.0,24,174.49
1270,E5,274.333,333/1000,39,174.49
1271,D5,274.667,333/1000,39,174.49
1272,F#4,275.0,1.0,32,174.49
1273,C#5,275.0,0.5,39,174.49
1274,D3,275.0,1.0,24,174.49
1275,A3,275.0,1.0,24,174.49
1276,D4,275.0,1.0,24,174.49
1277,B4,275.5,0.5,39,174.49
1278,C#5,276.0,3.0,40,174.49
1279,A2,276.0,0.5,27,174.49
1280,E4,277.0,1.0,26,174.49
1281,A4,277.0,1.0,26,174.49
1282,C#4,277.0,1.0,20,174.49
1283,A3,277.0,1.0,20,174.49
1284,A3,278.0,1.0,26,174.49
1285,E4,278.0,1.0,26,174.49
1286,G4,278.0,1.0,34,174.49
1287,A4,278.0,1.0,34,174.49
1288,A4,279.0,0.5,40,174.49
1289,D3,279.0,1.0,27,174.49
1290,A3,279.0,1.0,26,174.49
1291,C#5,279.5,0.5,39,174.49
1292,D5,280.0,0.5,39,174.49
1293,F#4,280.0,1.0,33,174.49
1294,A3,280.0,1.0,23,174.49
1295,D4,280.0,1.0,23,174.49
1296,E5,280.5,0.5,39,174.49
1297,F#5,281.0,0.5,40,174.49
1298,F#4,281.0,1.0,33,174.49
1299,D3,281.0,1.0,23,174.49
1300,A3,281.0,1.0,23,174.49
1301,D4,281.0,1.0,23,174.49
1302,G5,281.5,0.25,40,174.49
1303,F#5,281.75,0.125,39,174.49
1304,G5,281.875,0.125,37,174.49
1305,F#5,282.0,1.0,42,174.49
1306,G2,282.0,0.5,27,174.49
1307,G4,283.0,1.0,34,174.49
1308,E5,283.0,0.5,40,174.49
1309,B3,283.0,1.0,24,174.49
1310,E4,283.0,1.0,24,174.49
1311,D5,283.5,0.5,40,174.49
1312,G4,284.0,1.0,34,174.49
1313,C#5,284.0,0.5,40,174.49
1314,E3,284.0,1.0,24,174.49
1315,B3,284.0,1.0,24,174.49
1316,E4,284.0,1.0,24,174.49
1317,B4,284.5,0.5,40,174.49
1318,A4,285.0,0.5,40,174.49
1319,A2,285.0,0.5,27,174.49
1320,C#5,285.5,0.5,39,174.49
1321,G4,286.0,1.0,34,174.49
1322,C#5,286.0,333/1000,40,174.49
1323,A3,286.0,1.0,24,174.49
1324,E4,286.0,1.0,24,174.49
1325,D5,286.333,333/1000,39,174.49
1326,C#5,286.667,333/1000,39,174.49
1327,G4,287.0,1.0,32,174.49
1328,B4,287.0,0.5,39,174.49
1329,A3,287.0,1.0,24,174.49
1330,E4,287.0,1.0,24,174.49
1331,A4,287.5,0.5,39,174.49
1332,D5,288.0,3.0,40,174.49
1333,D2,288.0,0.5,27,174.49
1334,F#4,289.0,1.0,29,174.49
1335,D3,289.0,1.0,18,174.49
1336,A3,289.0,1.0,18,174.49
1337,D4,289.0,1.0,18,174.49
1338,F#4,290.0,1.0,37,174.49
1339,D3,290.0,1.0,26,174.49
1340,A3,290.0,1.0,26,174.49
1341,D4,290.0,1.0,26,174.49
1342,E4,291.0,0.5,73,174.49
1343,A2,291.0,0.5,59,174.49
1344,G#4,291.5,0.5,70,174.49
1345,A4,292.0,0.5,71,174.49
1346,C#4,292.0,1.0,60,174.49
1347,A2,292.0,1.0,52,174.49
1348,E3,292.0,1.0,52,174.49
1349,A3,292.0,1.0,52,174.49
1350,B4,292.5,0.5,71,174.49
1351,C#5,293.0,0.5,72,174.49
1352,C#4,293.0,1.0,61,174.49
1353,A2,293.0,1.0,52,174.49
1354,E3,293.0,1.0,52,174.49
1355,A3,293.0,1.0,52,174.49
1356,D5,293.5,0.25,73,174.49
1357,C#5,293.75,0.125,70,174.49
1358,D5,293.875,0.125,68,174.49
1359,C#5,294.0,1.0,76,174.49
1360,E2,294.0,0.5,59,174.49
1361,D4,295.0,1.0,62,174.49
1362,B4,295.0,0.5,74,174.49
1363,E3,295.0,1.0,54,174.49
1364,B3,295.0,1.0,54,174.49
1365,A4,295.5,0.5,74,174.49
1366,D4,296.0,1.0,62,174.49
1367,G#4,296.0,0.5,73,174.49
1368,E3,296.0,1.0,54,174.49
1369,B3,296.0,1.0,54,174.49
1370,F#4,296.5,0.5,72,174.49
1371,E4,297.0,0.5,74,174.49
1372,A1,297.0,0.5,59,174.49
1373,A4,297.5,0.5,70,174.49
1374,C#4,298.0,1.0,62,174.49
1375,A4,298.0,333/1000,74,174.49
1376,A2,298.0,1.0,54,174.49
1377,E3,298.0,1.0,54,174.49
1378,A3,298.0,1.0,54,174.49
1379,B4,298.333,333/1000,70,174.49
1380,A4,298.667,333/1000,70,174.49
1381,C#4,299.0,1.0,59,174.49
1382,G#4,299.0,0.5,70,174.49
1383,A2,299.0,1.0,54,174.49
1384,E3,299.0,1.0,54,174.49
1385,A3,299.0,1.0,54,174.49
1386,F#4,299.5,0.5,70,174.49
1387,G#4,300.0,3.0,73,174.49
1388,E2,300.0,0.5,59,174.49
1389,E3,301.0,1.0,43,174.49
1390,B3,301.0,1.0,48,174.49
1391,E4,301.0,1.0,48,174.49
1392,D4,302.0,1.0,62,174.49
1393,E4,302.0,1.0,62,174.49
1394,E3,302.0,1.0,56,174.49
1395,B3,302.0,1.0,56,174.49
1396,E4,303.0,0.5,74,174.49
1397,A2,303.0,0.5,59,174.49
1398,G#4,303.5,0.5,70,174.49
1399,A4,304.0,0.5,71,174.49
1400,C#4,304.0,1.0,60,174.49
1401,E3,304.0,1.0,52,174.49
1402,A3,304.0,1.0,52,174.49
1403,B4,304.5,0.5,71,174.49
1404,C#5,305.0,0.5,72,174.49
1405,C#4,305.0,1.0,61,174.49
1406,A2,305.0,1.0,52,174.49
1407,E3,305.0,1.0,52,174.49
1408,A3,305.0,1.0,52,174.49
1409,D5,305.5,0.25,73,174.49
1410,C#5,305.75,0.125,70,174.49
1411,D5,305.875,0.125,68,174.49
1412,C#5,306.0,1.0,76,174.49
1413,D2,306.0,0.5,59,174.49
1414,D4,307.0,1.0,62,174.49
1415,B4,307.0,0.5,74,174.49
1416,F#3,307.0,1.0,54,174.49
1417,B3,307.0,1.0,54,174.49
1418,A4,307.5,0.5,74,174.49
1419,D4,308.0,1.0,62,174.49
1420,G#4,308.0,0.5,73,174.49
1421,B2,308.0,1.0,54,174.49
1422,F#3,308.0,1.0,54,174.49
1423,B3,308.0,1.0,54,174.49
1424,F#4,308.5,0.5,72,174.49
1425,E4,309.0,0.5,74,174.49
1426,E2,309.0,0.5,59,174.49
1427,G#4,309.5,0.5,70,174.49
1428,D4,310.0,1.0,62,174.49
1429,G#4,310.0,333/1000,74,174.49
1430,E3,310.0,1.0,54,174.49
1431,B3,310.0,1.0,54,174.49
1432,A4,310.333,333/1000,70,174.49
1433,G#4,310.667,333/1000,70,174.49
1434,D4,311.0,1.0,59,174.49
1435,F#4,311.0,0.5,70,174.49
1436,E3,311.0,1.0,54,174.49
1437,B3,311.0,1.0,54,174.49
1438,E4,311.5,0.5,70,174.49
1439,A4,312.0,3.0,73,174.49
1440,A1,312.0,0.5,59,174.49
1441,C#4,313.0,1.0,53,174.49
1442,A2,313.0,1.0,38,174.49
1443,E3,313.0,1.0,38,174.49
1444,A3,313.0,1.0,38,174.49
1445,C#4,314.0,1.0,47,174.49
1446,A2,314.0,1.0,39,174.49
1447,E3,314.0,1.0,39,174.49
1448,A3,314.0,1.0,39,174.49
1449,E4,315.0,0.5,40,174.49
1450,C#4,315.0,1.0,47,174.49
1451,A2,315.0,1.0,39,174.49
1452,E3,315.0,1.0,39,174.49
1453,A3,315.0,1.0,39,174.49
1454,G#4,315.5,0.5,39,174.49
1455,A4,316.0,0.5,39,174.49
1456,C#4,316.0,1.0,33,174.49
1457,A2,316.0,1.0,23,174.49
1458,E3,316.0,1.0,23,174.49
1459,A3,316.0,1.0,23,174.49
1460,B4,316.5,0.5,39,174.49
1461,C#5,317.0,0.5,40,174.49
1462,C#4,317.0,1.0,33,174.49
1463,A2,317.0,1.0,23,174.49
1464,E3,317.0,1.0,23,174.49
1465,A3,317.0,1.0,23,174.49
1466,D5,317.5,0.25,40,174.49
1467,C#5,317.75,0.125,39,174.49
1468,D5,317.875,0.125,37,174.49
1469,C#5,318.0,1.0,42,174.49
1470,E2,318.0,0.5,27,174.49
1471,D4,319.0,1.0,34,174.49
1472,B4,319.0,0.5,40,174.49
1473,E3,319.0,1.0,24,174.49
1474,B3,319.0,1.0,24,174.49
1475,A4,319.5,0.5,40,174.49
1476,D4,320.0,1.0,34,174.49
1477,G#4,320.0,0.5,40,174.49
1478,E3,320.0,1.0,24,174.49
1479,B3,320.0,1.0,24,174.49
1480,F#4,320.5,0.5,40,174.49
1481,E4,321.0,0.5,40,174.49
1482,A1,321.0,0.5,27,174.49
1483,A4,321.5,0.5,39,174.49
1484,C#4,322.0,1.0,34,174.49
1485,A4,322.0,333/1000,40,174.49
1486,A2,322.0,1.0,24,174.49
1487,E3,322.0,1.0,24,174.49
1488,A3,322.0,1.0,24,174.49
1489,B4,322.333,333/1000,39,174.49
1490,A4,322.667,333/1000,39,174.49
1491,C#4,323.0,1.0,32,174.49
1492,G#4,323.0,0.5,39,174.49
1493,A2,323.0,1.0,24,174.49
1494,E3,323.0,1.0,24,174.49
1495,A3,323.0,1.0,24,174.49
1496,F#4,323.5,0.5,39,174.49
1497,G#4,324.0,3.0,40,174.49
1498,E2,324.0,0.5,27,174.49
1499,E3,325.0,1.0,20,174.49
1500,B3,325.0,1.0,26,174.49
1501,E4,325.0,1.0,26,174.49
1502,E3,326.0,1.0,26,174.49
1503,B3,326.0,1.0,26,174.49
1504,D4,326.0,1.0,34,174.49
1505,E4,326.0,1.0,34,174.49
1506,E4,327.0,0.5,40,174.49
1507,A2,327.0,1.0,27,174.49
1508,E3,327.0,1.0,26,174.49
1509,G#4,327.5,0.5,39,174.49
1510,A4,328.0,0.5,39,174.49
1511,C#4,328.0,1.0,33,174.49
1512,E3,328.0,1.0,23,174.49
1513,A3,328.0,1.0,23,174.49
1514,B4,328.5,0.5,39,174.49
1515,C#5,329.0,0.5,40,174.49
1516,C#4,329.0,1.0,33,174.49
1517,A2,329.0,1.0,23,174.49
1518,E3,329.0,1.0,23,174.49
1519,A3,329.0,1.0,23,174.49
1520,D5,329.5,0.25,40,174.49
1521,C#5,329.75,0.125,39,174.49
1522,D5,329.875,0.125,37,174.49
1523,C#5,330.0,1.0,42,174.49
1524,D2,330.0,0.5,27,174.49
1525,D4,331.0,1.0,34,174.49
1526,B4,331.0,0.5,40,174.49
1527,F#3,331.0,1.0,24,174.49
1528,B3,331.0,1.0,24,174.49
1529,A4,331.5,0.5,40,174.49
1530,D4,332.0,1.0,34,174.49
1531,G#4,332.0,0.5,40,174.49
1532,B2,332.0,1.0,24,174.49
1533,F#3,332.0,1.0,24,174.49
1534,B3,332.0,1.0,24,174.49
1535,F#4,332.5,0.5,40,174.49
1536,E4,333.0,0.5,40,174.49
1537,E2,333.0,0.5,27,174.49
1538,G#4,333.5,0.5,39,174.49
1539,D4,334.0,1.0,34,174.49
1540,G#4,334.0,333/1000,40,174.49
1541,E3,334.0,1.0,24,174.49
1542,B3,334.0,1.0,24,174.49
1543,A4,334.333,333/1000,39,174.49
1544,G#4,334.667,333/1000,39,174.49
1545,D4,335.0,1.0,32,174.49
1546,F#4,335.0,0.5,39,174.49
1547,E3,335.0,1.0,24,174.49
1548,B3,335.0,1.0,24,174.49
1549,E4,335.5,0.5,39,174.49
1550,A4,336.0,3.0,40,174.49
1551,A1,336.0,0.5,27,174.49
1552,C#4,337.0,1.0,37,174.49
1553,A3,337.0,1.0,23,174.49
1554,E4,337.0,1.0,23,174.49
1555,G4,338.0,1.0,73,174.49
1556,C#4,338.0,1.0,73,174.49
1557,A3,338.0,1.0,60,174.49
1558,E4,338.0,1.0,60,174.49
1559,F#4,339.0,1.0,78,174.49
1560,A4,339.0,0.5,40,174.49
1561,D3,339.0,0.5,67,174.49
1562,C#5,339.5,0.5,80,174.49
1563,D5,340.0,0.5,81,174.49
1564,F#4,340.0,1.0,69,174.49
1565,D3,340.0,1.0,59,174.49
1566,A3,340.0,1.0,59,174.49
1567,D4,340.0,1.0,59,174.49
1568,E5,340.5,0.5,81,174.49
1569,F#5,341.0,0.5,82,174.49
1570,F#4,341.0,1.0,70,174.49
1571,D3,341.0,1.0,59,174.49
1572,A3,341.0,1.0,59,174.49
1573,D4,341.0,1.0,59,174.49
1574,G5,341.5,0.25,83,174.49
1575,F#5,341.75,0.125,80,174.49
1576,G5,341.875,0.125,78,174.49
1577,F#5,342.0,1.0,87,174.49
1578,A2,342.0,0.5,67,174.49
1579,G4,343.0,1.0,71,174.49
1580,E5,343.0,0.5,85,174.49
1581,E3,343.0,1.0,62,174.49
1582,A3,343.0,1.0,62,174.49
1583,C#4,343.0,1.0,62,174.49
1584,D5,343.5,0.5,85,174.49
1585,G4,344.0,1.0,71,174.49
1586,C#5,344.0,0.5,83,174.49
1587,E3,344.0,1.0,62,174.49
1588,A3,344.0,1.0,62,174.49
1589,C#4,344.0,1.0,62,174.49
1590,B4,344.5,0.5,82,174.49
1591,A4,345.0,0.5,85,174.49
1592,D2,345.0,0.5,67,174.49
1593,D5,345.5,0.5,80,174.49
1594,F#4,346.0,1.0,71,174.49
1595,D5,346.0,333/1000,85,174.49
1596,D3,346.0,1.0,62,174.49
1597,A3,346.0,1.0,62,174.49
1598,D4,346.0,1.0,62,174.49
1599,E5,346.333,333/1000,80,174.49
1600,D5,346.667,333/1000,80,174.49
1601,F#4,347.0,1.0,67,174.49
1602,C#5,347.0,0.5,80,174.49
1603,D3,347.0,1.0,62,174.49
1604,A3,347.0,1.0,62,174.49
1605,D4,347.0,1.0,62,174.49
1606,B4,347.5,0.5,80,174.49
1607,C#5,348.0,3.0,83,174.49
1608,A2,348.0,0.5,67,174.49
1609,A3,349.0,1.0,49,174.49
1610,E4,349.0,1.0,55,174.49
1611,A4,349.0,1.0,55,174.49
1612,G4,350.0,1.0,72,174.49
1613,A4,350.0,1.0,72,174.49
1614,A3,350.0,1.0,64,174.49
1615,E4,350.0,1.0,64,174.49
1616,A4,351.0,0.5,85,174.49
1617,D3,351.0,0.5,67,174.49
1618,C#5,351.5,0.5,80,174.49
1619,D5,352.0,0.5,81,174.49
1620,F#4,352.0,1.0,69,174.49
1621,A3,352.0,1.0,59,174.49
1622,D4,352.0,1.0,59,174.49
1623,E5,352.5,0.5,81,174.49
1624,F#5,353.0,0.5,82,174.49
1625,F#4,353.0,1.0,70,174.49
1626,D3,353.0,1.0,59,174.49
1627,A3,353.0,1.0,59,174.49
1628,D4,353.0,1.0,59,174.49
1629,G5,353.5,0.25,83,174.49
1630,F#5,353.75,0.125,80,174.49
1631,G5,353.875,0.125,78,174.49
1632,F#5,354.0,1.0,87,174.49
1633,G2,354.0,0.5,67,174.49
1634,G4,355.0,1.0,71,174.49
1635,E5,355.0,0.5,85,174.49
1636,B3,355.0,1.0,62,174.49
1637,E4,355.0,1.0,62,174.49
1638,D5,355.5,0.5,85,174.49
1639,G4,356.0,1.0,71,174.49
1640,C#5,356.0,0.5,83,174.49
1641,E3,356.0,1.0,62,174.49
1642,B3,356.0,1.0,62,174.49
1643,E4,356.0,1.0,62,174.49
1644,B4,356.5,0.5,82,174.49
1645,A4,357.0,0.5,85,174.49
1646,A2,357.0,0.5,67,174.49
1647,C#5,357.5,0.5,80,174.49
1648,G4,358.0,1.0,71,174.49
1649,C#5,358.0,333/1000,85,174.49
1650,A3,358.0,1.0,62,174.49
1651,E4,358.0,1.0,62,174.49
1652,D5,358.333,333/1000,80,174.49
1653,C#5,358.667,333/1000,80,174.49
1654,G4,359.0,1.0,67,174.49
1655,B4,359.0,0.5,80,174.49
1656,A3,359.0,1.0,62,174.49
1657,E4,359.0,1.0,62,174.49
1658,A4,359.5,0.5,80,174.49
1659,D5,360.0,3.0,83,174.49
1660,D2,360.0,0.5,67,174.49
1661,F#4,361.0,1.0,60,174.49
1662,D3,361.0,1.0,44,174.49
1663,A3,361.0,1.0,44,174.49
1664,D4,361.0,1.0,44,174.49
1665,F#4,362.0,1.0,54,174.49
1666,D3,362.0,1.0,44,174.49
1667,A3,362.0,1.0,44,174.49
1668,D4,362.0,1.0,44,174.49
1669,A4,363.0,0.5,40,174.49
1670,F#4,363.0,1.0,54,174.49
1671,D3,363.0,1.0,44,174.49
1672,A3,363.0,1.0,44,174.49
1673,D4,363.0,1.0,44,174.49
1674,C#5,363.5,0.5,39,174.49
1675,D5,364.0,0.5,39,174.49
1676,F#4,364.0,1.0,33,174.49
1677,D3,364.0,1.0,23,174.49
1678,A3,364.0,1.0,23,174.49
1679,D4,364.0,1.0,23,174.49
1680,E5,364.5,0.5,39,174.49
1681,F#5,365.0,0.5,40,174.49
1682,F#4,365.0,1.0,33,174.49
1683,D3,365.0,1.0,23,174.49
1684,A3,365.0,1.0,23,174.49
1685,D4,365.0,1.0,23,174.49
1686,G5,365.5,0.25,40,174.49
1687,F#5,365.75,0.125,39,174.49
1688,G5,365.875,0.125,37,174.49
1689,F#5,366.0,1.0,42,174.49
1690,A2,366.0,0.5,27,174.49
1691,G4,367.0,1.0,34,174.49
1692,E5,367.0,0.5,40,174.49
1693,E3,367.0,1.0,24,174.49
1694,A3,367.0,1.0,24,174.49
1695,C#4,367.0,1.0,24,174.49
1696,D5,367.5,0.5,40,174.49
1697,G4,368.0,1.0,34,174.49
1698,C#5,368.0,0.5,40,174.49
1699,E3,368.0,1.0,24,174.49
1700,A3,368.0,1.0,24,174.49
1701,C#4,368.0,1.0,24,174.49
1702,B4,368.5,0.5,40,174.49
1703,A4,369.0,0.5,40,174.49
1704,D2,369.0,0.5,27,174.49
1705,D5,369.5,0.5,39,174.49
1706,F#4,370.0,1.0,34,174.49
1707,D5,370.0,333/1000,40,174.49
1708,D3,370.0,1.0,24,174.49
1709,A3,370.0,1.0,24,174.49
1710,D4,370.0,1.0,24,174.49
1711,E5,370.333,333/1000,39,174.49
1712,D5,370.667,333/1000,39,174.49
1713,F#4,371.0,1.0,32,174.49
1714,C#5,371.0,0.5,39,174.49
1715,D3,371.0,1.0,24,174.49
1716,A3,371.0,1.0,24,174.49
1717,D4,371.0,1.0,24,174.49
1718,B4,371.5,0.5,39,174.49
1719,C#5,372.0,3.0,40,174.49
1720,A2,372.0,0.5,27,174.49
1721,E4,373.0,1.0,26,174.49
1722,A4,373.0,1.0,26,174.49
1723,C#4,373.0,1.0,20,174.49
1724,A3,373.0,1.0,20,174.49
1725,A3,374.0,1.0,26,174.49
1726,E4,374.0,1.0,26,174.49
1727,G4,374.0,1.0,34,174.49
1728,A4,374.0,1.0,34,174.49
1729,A4,375.0,0.5,40,174.49
1730,D3,375.0,1.0,27,174.49
1731,A3,375.0,1.0,26,174.49
1732,C#5,375.5,0.5,39,174.49
1733,D5,376.0,0.5,39,174.49
1734,F#4,376.0,1.0,33,174.49
1735,A3,376.0,1.0,23,174.49
1736,D4,376.0,1.0,23,174.49
1737,E5,376.5,0.5,39,174.49
1738,F#5,377.0,0.5,40,174.49
1739,F#4,377.0,1.0,33,174.49
1740,D3,377.0,1.0,23,174.49
1741,A3,377.0,1.0,23,174.49
1742,D4,377.0,1.0,23,174.49
1743,G5,377.5,0.25,40,174.49
1744,F#5,377.75,0.125,39,174.49
1745,G5,377.875,0.125,37,174.49
1746,F#5,378.0,1.0,42,174.49
1747,G2,378.0,0.5,27,174.49
1748,G4,379.0,1.0,34,174.49
1749,E5,379.0,0.5,40,174.49
1750,B3,379.0,1.0,24,174.49
1751,E4,379.0,1.0,24,174.49
1752,D5,379.5,0.5,40,174.49
1753,G4,380.0,1.0,34,174.49
1754,C#5,380.0,0.5,40,174.49
1755,E3,380.0,1.0,24,174.49
1756,B3,380.0,1.0,24,174.49
1757,E4,380.0,1.0,24,174.49
1758,B4,380.5,0.5,40,174.49
1759,A4,381.0,0.5,40,174.49
1760,A2,381.0,0.5,27,174.49
1761,C#5,381.5,0.5,39,174.49
1762,G4,382.0,1.0,34,174.49
1763,C#5,382.0,333/1000,40,174.49
1764,A3,382.0,1.0,24,174.49
1765,E4,382.0,1.0,24,174.49
1766,D5,382.333,333/1000,39,174.49
1767,C#5,382.667,333/1000,39,174.49
1768,G4,383.0,1.0,32,174.49
1769,B4,383.0,0.5,39,174.49
1770,A3,383.0,1.0,24,174.49
1771,E4,383.0,1.0,24,174.49
1772,A4,383.5,0.5,39,174.49
1773,D5,384.0,3.0,40,174.49
1774,D2,384.0,0.5,27,174.49
1775,F#4,385.0,1.0,29,174.49
1776,D3,385.0,1.0,18,174.49
1777,A3,385.0,1.0,18,174.49
1778,D4,385.0,1.0,18,174.49
1779,F#4,386.0,1.0,37,174.49
1780,D3,386.0,1.0,26,174.49
1781,A3,386.0,1.0,26,174.49
1782,D4,386.0,1.0,26,174.49
1783,D5,387.0,3.0,43,174.49
1784,F#4,387.0,0.5,47,174.49
1785,D3,387.0,1.0,28,174.49
1786,A3,387.0,1.0,28,174.49
1787,A4,387.5,0.5,45,174.49
1788,A4,388.0,0.375,49,174.49
1789,C4,388.0,1.0,25,174.49
1790,D3,388.0,1.0,25,174.49
1791,B4,388.375,0.125,41,174.49
1792,A4,388.5,0.5,46,174.49
1793,G#4,389.0,0.5,46,174.49
1794,D3,389.0,1.0,26,174.49
1795,B3,389.0,1.0,26,174.49
1796,E4,389.5,0.5,45,174.49
1797,D5,390.0,3.0,44,174.49
1798,E4,390.0,0.5,50,174.49
1799,D3,390.0,1.0,29,174.49
1800,G3,390.0,1.0,29,174.49
1801,G4,390.5,0.5,47,174.49
1802,G4,391.0,0.375,51,174.49
1803,B-3,391.0,1.0,26,174.49
1804,D3,391.0,1.0,26,174.49
1805,A4,391.375,0.125,43,174.49
1806,G4,391.5,0.5,48,174.49
1807,F#4,392.0,0.5,48,174.49
1808,D3,392.0,1.0,26,174.49
1809,A3,392.0,1.0,26,174.49
1810,D4,392.5,0.5,43,174.49
1811,D5,393.0,3.0,45,174.49
1812,F#4,393.0,0.5,50,174.49
1813,D3,393.0,1.0,30,174.49
1814,A3,393.0,1.0,30,174.49
1815,A4,393.5,0.5,48,174.49
1816,A4,394.0,0.375,52,174.49
1817,C4,394.0,1.0,26,174.49
1818,D3,394.0,1.0,26,174.49
1819,B4,394.375,0.125,44,174.49
1820,A4,394.5,0.5,48,174.49
1821,G#4,395.0,0.5,48,174.49
1822,D3,395.0,1.0,26,174.49
1823,B3,395.0,1.0,26,174.49
1824,E4,395.5,0.5,44,174.49
1825,D5,396.0,3.0,46,174.49
1826,E4,396.0,0.5,53,174.49
1827,D3,396.0,1.0,30,174.49
1828,G3,396.0,1.0,30,174.49
1829,G4,396.5,0.5,50,174.49
1830,G4,397.0,0.375,53,174.49
1831,B-3,397.0,1.0,28,174.49
1832,D3,397.0,1.0,28,174.49
1833,A4,397.375,0.125,46,174.49
1834,G4,397.5,0.5,50,174.49
1835,F#4,398.0,0.5,51,174.49
1836,D3,398.0,1.0,28,174.49
1837,A3,398.0,1.0,28,174.49
1838,D4,398.5,0.5,44,174.49
1839,A4,399.0,3.0,48,174.49
1840,D4,399.0,0.5,53,174.49
1841,D3,399.0,1.0,32,174.49
1842,F#3,399.0,1.0,32,174.49
1843,F#4,399.5,0.5,51,174.49
1844,F#4,400.0,0.375,55,174.49
1845,A3,400.0,1.0,28,174.49
1846,D3,400.0,1.0,28,174.49
1847,G4,400.375,0.125,46,174.49
1848,F#4,400.5,0.5,51,174.49
1849,E4,401.0,0.5,51,174.49
1850,D3,401.0,1.0,28,174.49
1851,G#3,401.0,1.0,28,174.49
1852,B3,401.5,0.5,46,174.49
1853,A4,402.0,3.0,48,174.49
1854,C#4,402.0,0.5,55,174.49
1855,D3,402.0,1.0,32,174.49
1856,E3,402.0,1.0,32,174.49
1857,E4,402.5,0.5,52,174.49
1858,E4,403.0,0.375,55,174.49
1859,G3,403.0,1.0,28,174.49
1860,D3,403.0,1.0,28,174.49
1861,F#4,403.375,0.125,47,174.49
1862,E4,403.5,0.5,52,174.49
1863,D4,404.0,0.5,52,174.49
1864,D3,404.0,1.0,28,174.49
1865,F#3,404.0,1.0,28,174.49
1866,A3,404.5,0.5,46,174.49
1867,A4,405.0,3.0,48,174.49
1868,D4,405.0,0.5,53,174.49
1869,D3,405.0,1.0,32,174.49
1870,F#3,405.0,1.0,32,174.49
1871,F#4,405.5,0.5,51,174.49
1872,F#4,406.0,0.375,54,174.49
1873,A3,406.0,1.0,28,174.49
1874,D3,406.0,1.0,28,174.49
1875,G4,406.375,0.125,45,174.49
1876,F#4,406.5,0.5,50,174.49
1877,E4,407.0,0.5,49,174.49
1878,D3,407.0,1.0,28,174.49
1879,G#3,407.0,1.0,28,174.49
1880,B3,407.5,0.5,45,174.49
1881,A4,408.0,3.0,46,174.49
1882,C#4,408.0,0.5,53,174.49
1883,D3,408.0,1.0,30,174.49
1884,E3,408.0,1.0,30,174.49
1885,E4,408.5,0.5,50,174.49
1886,E4,409.0,0.375,52,174.49
1887,G3,409.0,1.0,26,174.49
1888,D3,409.0,1.0,26,174.49
1889,F#4,409.375,0.125,45,174.49
1890,E4,409.5,0.5,49,174.49
1891,D4,410.0,0.5,49,174.49
1892,D3,410.0,1.0,26,174.49
1893,F#3,410.0,1.0,26,174.49
1894,A3,410.5,0.5,41,174.49
1895,D4,411.0,3.0,40,174.49
1896,F#3,411.0,0.5,44,174.49
1897,D2,411.0,1.0,26,174.49
1898,A2,411.0,1.0,26,174.49
1899,A3,411.5,0.5,42,174.49
1900,A3,412.0,0.375,45,174.49
1901,C3,412.0,1.0,23,174.49
1902,D2,412.0,1.0,23,174.49
1903,B3,412.375,0.125,38,174.49
1904,A3,412.5,0.5,41,174.49
1905,G#3,413.0,0.5,41,174.49
1906,D2,413.0,1.0,22,174.49
1907,B2,413.0,1.0,22,174.49
1908,E3,413.5,0.5,35,174.49
1909,D4,414.0,3.0,39,174.49
1910,E3,414.0,0.5,44,174.49
1911,D2,414.0,1.0,26,174.49
1912,G2,414.0,1.0,26,174.49
1913,G3,414.5,0.5,41,174.49
1914,G3,415.0,0.375,44,174.49
1915,B-2,415.0,1.0,22,174.49
1916,D2,415.0,1.0,22,174.49
1917,A3,415.375,0.125,37,174.49
1918,G3,415.5,0.5,41,174.49
1919,F#3,416.0,0.5,40,174.49
1920,D2,416.0,1.0,22,174.49
1921,A2,416.0,1.0,22,174.49
1922,D3,416.5,0.5,34,174.49
1923,D4,417.0,3.0,33,174.49
1924,F#3,417.0,0.5,36,174.49
1925,D2,417.0,1.0,22,174.49
1926,A2,417.0,1.0,22,174.49
1927,A3,417.5,0.5,35,174.49
1928,A3,418.0,0.375,38,174.49
1929,C3,418.0,1.0,18,174.49
1930,D2,418.0,1.0,18,174.49
1931,B3,418.375,0.125,31,174.49
1932,A3,418.5,0.5,34,174.49
1933,G#3,419.0,0.5,34,174.49
1934,D2,419.0,1.0,18,174.49
1935,B2,419.0,1.0,18,174.49
1936,E3,419.5,0.5,30,174.49
1937,D4,420.0,3.0,32,174.49
1938,E3,420.0,0.5,37,174.49
1939,D2,420.0,1.0,20,174.49
1940,G2,420.0,1.0,20,174.49
1941,G3,420.5,0.5,34,174.49
1942,G3,421.0,0.375,37,174.49
1943,B-2,421.0,1.0,18,174.49
1944,D2,421.0,1.0,18,174.49
1945,A3,421.375,0.125,31,174.49
1946,G3,421.5,0.5,34,174.49
1947,F#3,422.0,0.5,34,174.49
1948,D2,422.0,1.0,18,174.49
1949,A2,422.0,1.0,18,174.49
1950,D3,422.5,0.5,30,174.49
1951,D3,423.0,1.0,42,174.49
1952,A3,423.0,1.0,42,174.49
1953,D2,423.0,1.0,28,174.49
1954,A2,423.0,1.0,28,174.49
1955,D4,424.0,1.0,45,174.49
1956,A4,424.0,1.0,45,174.49
1957,D3,424.0,1.0,31,174.49
1958,A3,424.0,1.0,31,174.49
1959,D5,425.0,0.5,48,174.49
1960,D4,425.0,1.0,31,174.49
1961,A4,425.0,1.0,31,174.49
1962,A5,425.5,0.5,49,174.49
1963,D6,426.0,0.25,51,174.49
1964,F#6,426.5,0.25,53,174.49
1965,G#6,427.0,0.25,55,174.49
1966,A6,427.5,0.25,57,174.49
1967,B6,428.0,0.25,59,174.49
1968,C#7,428.5,0.25,62,174.49
1969,D7,429.0,3.0,64,174.49
1970,D4,432.0,3.0,31,174.49
1971,A4,432.0,3.0,31,174.49
1972,D4,438.0,3.0,31,174.49
1973,A4,438.0,3.0,31,174.49
