,note_name,start_time,duration,velocity,tempo
0,F#5,2.0,1.0,55,120.0
1,F#5,3.0,0.5,55,120.0
2,B2,3.0,1.0,50,120.0
3,B5,3.5,0.5,50,120.0
4,G5,4.0,0.125,50,120.0
5,E4,4.0,1.0,36,120.0
6,B3,4.0,1.0,36,120.0
7,G3,4.0,1.0,36,120.0
8,A5,4.125,0.125,50,120.0
9,G5,4.25,0.75,57,120.0
10,F#5,5.0,0.5,53,120.0
11,E4,5.0,1.0,35,120.0
12,B3,5.0,1.0,35,120.0
13,G3,5.0,1.0,35,120.0
14,E5,5.5,0.5,50,120.0
15,F#5,6.0,0.5,55,120.0
16,B2,6.0,1.0,50,120.0
17,B4,6.5,2.5,50,120.0
18,D4,7.0,1.0,28,120.0
19,B3,7.0,1.0,28,120.0
20,F#3,7.0,1.0,28,120.0
21,D4,8.0,1.0,28,120.0
22,B3,8.0,1.0,28,120.0
23,F#3,8.0,1.0,28,120.0
24,C#5,9.0,0.5,58,120.0
25,B2,9.0,1.0,50,120.0
26,E5,9.5,0.5,50,120.0
27,D5,10.0,0.125,50,120.0
28,E4,10.0,1.0,36,120.0
29,B-3,10.0,1.0,36,120.0
30,F#3,10.0,1.0,36,120.0
31,E5,10.125,0.125,50,120.0
32,D5,10.25,0.75,57,120.0
33,C#5,11.0,1.0,53,120.0
34,E4,11.0,1.0,35,120.0
35,B-3,11.0,1.0,35,120.0
36,F#3,11.0,1.0,35,120.0
37,D5,12.0,0.5,55,120.0
38,B2,12.0,1.0,50,120.0
39,B4,12.5,2.5,50,120.0
40,D4,13.0,1.0,28,120.0
41,B3,13.0,1.0,28,120.0
42,F#3,13.0,1.0,28,120.0
43,D4,14.0,1.0,28,120.0
44,B3,14.0,1.0,28,120.0
45,F#3,14.0,1.0,28,120.0
46,C#5,15.0,0.5,58,120.0
47,C#2,15.0,1.0,50,120.0
48,B4,15.5,0.5,50,120.0
49,A4,16.0,0.125,46,120.0
50,B3,16.0,1.0,36,120.0
51,F3,16.0,1.0,36,120.0
52,C#3,16.0,1.0,36,120.0
53,B4,16.125,0.125,47,120.0
54,A4,16.25,0.75,55,120.0
55,G#4,17.0,1.0,53,120.0
56,B3,17.0,1.0,35,120.0
57,F3,17.0,1.0,35,120.0
58,C#3,17.0,1.0,35,120.0
59,A4,18.0,0.5,55,120.0
60,F#2,18.0,1.0,50,120.0
61,C#5,18.5,1.0,50,120.0
62,A3,19.0,1.0,34,120.0
63,C#3,19.0,1.0,34,120.0
64,C#4,20.0,1.0,68,120.0
65,C#4,21.0,0.5,68,120.0
66,B3,21.5,0.5,60,120.0
67,A3,22.0,0.125,57,120.0
68,B3,22.125,0.125,57,120.0
69,A3,22.25,0.75,68,120.0
70,G#3,23.0,1.0,67,120.0
71,A3,24.0,1.0,71,120.0
72,C#4,25.0,2.0,67,120.0
73,B3,27.0,1.0,71,120.0
74,C#3,27.0,3.0,47,120.0
75,G#3,27.0,1.0,58,120.0
76,A3,28.0,1.0,68,120.0
77,F#3,28.0,1.0,55,120.0
78,C#4,29.0,1.0,68,120.0
79,A3,29.0,1.0,55,120.0
80,B3,30.0,0.125,63,120.0
81,C#3,30.0,3.0,47,120.0
82,G#3,30.0,0.5,57,120.0
83,C#4,30.125,0.125,63,120.0
84,B3,30.25,0.25,73,120.0
85,A3,30.5,247/500,66,120.0
86,F#3,30.5,0.5,51,120.0
87,C#4,31.0,1.0,72,120.0
88,A3,31.0,1.0,56,120.0
89,C#4,32.0,1.0,68,120.0
90,A3,32.0,1.0,54,120.0
91,B3,33.0,0.125,61,120.0
92,C#3,33.0,3.0,47,120.0
93,G#3,33.0,1.0,57,120.0
94,C#4,33.125,0.125,61,120.0
95,B3,33.25,0.75,72,120.0
96,B-3,34.0,1.0,72,120.0
97,F#3,34.0,1.0,56,120.0
98,C#4,35.0,1.0,68,120.0
99,B-3,35.0,1.0,54,120.0
100,B3,36.0,0.125,62,120.0
101,C#3,36.0,1.0,47,120.0
102,G#3,36.0,0.5,57,120.0
103,C#4,36.125,0.125,63,120.0
104,B3,36.25,0.25,73,120.0
105,B-3,36.5,0.5,66,120.0
106,F#3,36.5,1.5,51,120.0
107,F#4,37.0,1.0,72,120.0
108,F#2,37.0,2.0,47,120.0
109,F#5,38.0,1.0,58,120.0
110,F#5,39.0,0.5,58,120.0
111,B2,39.0,1.0,50,120.0
112,B5,39.5,0.5,50,120.0
113,G5,40.0,0.125,50,120.0
114,E4,40.0,1.0,36,120.0
115,B3,40.0,1.0,36,120.0
116,G3,40.0,1.0,36,120.0
117,A5,40.125,0.125,50,120.0
118,G5,40.25,0.75,57,120.0
119,F#5,41.0,0.5,53,120.0
120,E4,41.0,1.0,35,120.0
121,B3,41.0,1.0,35,120.0
122,G3,41.0,1.0,35,120.0
123,E5,41.5,0.5,50,120.0
124,F#5,42.0,0.5,55,120.0
125,B2,42.0,1.0,50,120.0
126,B4,42.5,2.5,50,120.0
127,D4,43.0,1.0,28,120.0
128,B3,43.0,1.0,28,120.0
129,F#3,43.0,1.0,28,120.0
130,D4,44.0,1.0,28,120.0
131,B3,44.0,1.0,28,120.0
132,F#3,44.0,1.0,28,120.0
133,C#5,45.0,0.5,58,120.0
134,B2,45.0,1.0,50,120.0
135,E5,45.5,0.5,50,120.0
136,D5,46.0,0.125,50,120.0
137,E4,46.0,1.0,36,120.0
138,B-3,46.0,1.0,36,120.0
139,F#3,46.0,1.0,36,120.0
140,E5,46.125,0.125,50,120.0
141,D5,46.25,0.75,57,120.0
142,C#5,47.0,1.0,53,120.0
143,E4,47.0,1.0,35,120.0
144,B-3,47.0,1.0,35,120.0
145,F#3,47.0,1.0,35,120.0
146,D5,48.0,0.5,55,120.0
147,B2,48.0,1.0,50,120.0
148,B4,48.5,1.5,50,120.0
149,D4,49.0,1.0,28,120.0
150,B3,49.0,1.0,28,120.0
151,F#3,49.0,1.0,28,120.0
152,D3,50.0,1.0,66,120.0
153,D3,51.0,0.5,66,120.0
154,B3,51.0,1.0,40,120.0
155,F4,51.0,1.0,40,120.0
156,G3,51.5,0.5,58,120.0
157,E3,52.0,333/1000,65,120.0
158,C4,52.0,1.0,36,120.0
159,E4,52.0,1.0,36,120.0
160,F3,52.333,333/1000,57,120.0
161,E3,52.667,333/1000,55,120.0
162,D3,53.0,0.5,63,120.0
163,C4,53.0,1.0,36,120.0
164,E4,53.0,1.0,36,120.0
165,C3,53.5,0.5,57,120.0
166,D3,54.0,0.75,64,120.0
167,G3,54.0,1.0,43,120.0
168,B3,54.0,1.0,43,120.0
169,F4,54.0,1.0,43,120.0
170,G2,54.75,0.25,55,120.0
171,D3,55.0,1.0,64,120.0
172,G3,55.0,1.0,35,120.0
173,B3,55.0,1.0,35,120.0
174,F4,55.0,1.0,35,120.0
175,C3,56.0,1.0,59,120.0
176,C4,56.0,1.0,36,120.0
177,E4,56.0,1.0,36,120.0
178,D3,57.0,0.5,66,120.0
179,B3,57.0,1.0,40,120.0
180,F4,57.0,1.0,40,120.0
181,G3,57.5,0.5,58,120.0
182,E3,58.0,333/1000,65,120.0
183,C4,58.0,1.0,36,120.0
184,E4,58.0,1.0,36,120.0
185,F3,58.333,333/1000,57,120.0
186,E3,58.667,333/1000,55,120.0
187,D3,59.0,0.5,63,120.0
188,C4,59.0,1.0,36,120.0
189,E4,59.0,1.0,36,120.0
190,C3,59.5,0.5,57,120.0
191,D3,60.0,0.75,64,120.0
192,G3,60.0,1.0,43,120.0
193,B3,60.0,1.0,43,120.0
194,F4,60.0,1.0,43,120.0
195,G2,60.75,0.25,54,120.0
196,D3,61.0,1.0,62,120.0
197,G3,61.0,1.0,34,120.0
198,B3,61.0,1.0,34,120.0
199,F4,61.0,1.0,34,120.0
200,C3,62.0,1.0,56,120.0
201,C4,62.0,1.0,34,120.0
202,E4,62.0,1.0,34,120.0
203,D3,63.0,0.75,60,120.0
204,G3,63.0,1.0,40,120.0
205,B3,63.0,1.0,40,120.0
206,F4,63.0,1.0,40,120.0
207,G2,63.75,0.25,51,120.0
208,C3,64.0,1.0,58,120.0
209,C4,64.0,1.0,32,120.0
210,E4,64.0,1.0,32,120.0
211,D3,65.0,0.75,57,120.0
212,G3,65.0,1.0,38,120.0
213,B3,65.0,1.0,38,120.0
214,F4,65.0,1.0,38,120.0
215,G2,65.75,0.25,48,120.0
216,C3,66.0,1.0,56,120.0
217,C4,66.0,1.0,29,120.0
218,E4,66.0,1.0,29,120.0
219,D3,67.0,0.75,55,120.0
220,G3,67.0,1.0,36,120.0
221,B3,67.0,1.0,36,120.0
222,F4,67.0,1.0,36,120.0
223,G2,67.75,0.25,46,120.0
224,C3,68.0,1.0,53,120.0
225,C4,68.0,1.0,30,120.0
226,E4,68.0,1.0,30,120.0
227,G2,69.0,3.0,52,120.0
228,G3,69.0,3.0,52,120.0
229,F#2,72.0,3.0,48,120.0
230,F#3,72.0,3.0,48,120.0
231,F#5,75.0,0.5,55,120.0
232,B1,75.0,1.0,48,120.0
233,B2,75.0,1.0,48,120.0
234,B5,75.5,0.5,50,120.0
235,G5,76.0,0.125,50,120.0
236,E4,76.0,1.0,36,120.0
237,B3,76.0,1.0,36,120.0
238,G3,76.0,1.0,36,120.0
239,A5,76.125,0.125,50,120.0
240,G5,76.25,0.75,57,120.0
241,F#5,77.0,0.5,53,120.0
242,E4,77.0,1.0,35,120.0
243,B3,77.0,1.0,35,120.0
244,G3,77.0,1.0,35,120.0
245,E5,77.5,0.5,50,120.0
246,F#5,78.0,0.5,55,120.0
247,B2,78.0,1.0,50,120.0
248,B4,78.5,2.5,50,120.0
249,D4,79.0,1.0,28,120.0
250,B3,79.0,1.0,28,120.0
251,F#3,79.0,1.0,28,120.0
252,D4,80.0,1.0,28,120.0
253,B3,80.0,1.0,28,120.0
254,F#3,80.0,1.0,28,120.0
255,C#5,81.0,0.5,58,120.0
256,B2,81.0,1.0,50,120.0
257,E5,81.5,0.5,50,120.0
258,D5,82.0,0.125,50,120.0
259,E4,82.0,1.0,36,120.0
260,B-3,82.0,1.0,36,120.0
261,F#3,82.0,1.0,36,120.0
262,E5,82.125,0.125,50,120.0
263,D5,82.25,0.75,57,120.0
264,C#5,83.0,1.0,53,120.0
265,E4,83.0,1.0,35,120.0
266,B-3,83.0,1.0,35,120.0
267,F#3,83.0,1.0,35,120.0
268,D5,84.0,0.5,55,120.0
269,B2,84.0,1.0,50,120.0
270,B4,84.5,2.5,50,120.0
271,D4,85.0,1.0,28,120.0
272,B3,85.0,1.0,28,120.0
273,F#3,85.0,1.0,28,120.0
274,D4,86.0,1.0,28,120.0
275,B3,86.0,1.0,28,120.0
276,F#3,86.0,1.0,28,120.0
277,C#5,87.0,0.5,58,120.0
278,C#2,87.0,1.0,50,120.0
279,B4,87.5,0.5,50,120.0
280,A4,88.0,0.125,46,120.0
281,B3,88.0,1.0,36,120.0
282,F3,88.0,1.0,36,120.0
283,C#3,88.0,1.0,36,120.0
284,B4,88.125,0.125,47,120.0
285,A4,88.25,0.75,55,120.0
286,G#4,89.0,1.0,53,120.0
287,B3,89.0,1.0,35,120.0
288,F3,89.0,1.0,35,120.0
289,C#3,89.0,1.0,35,120.0
290,A4,90.0,0.5,55,120.0
291,F#2,90.0,1.0,50,120.0
292,C#5,90.5,1.0,50,120.0
293,A3,91.0,1.0,34,120.0
294,C#3,91.0,1.0,34,120.0
295,C#4,92.0,1.0,68,120.0
296,C#4,93.0,0.5,68,120.0
297,B3,93.5,0.5,60,120.0
298,A3,94.0,0.125,57,120.0
299,B3,94.125,0.125,57,120.0
300,A3,94.25,0.75,68,120.0
301,G#3,95.0,1.0,67,120.0
302,A3,96.0,1.0,71,120.0
303,C#4,97.0,2.0,67,120.0
304,B3,99.0,1.0,71,120.0
305,C#3,99.0,3.0,47,120.0
306,G#3,99.0,1.0,58,120.0
307,A3,100.0,1.0,68,120.0
308,F#3,100.0,1.0,55,120.0
309,C#4,101.0,1.0,68,120.0
310,A3,101.0,1.0,55,120.0
311,B3,102.0,0.125,63,120.0
312,C#3,102.0,3.0,47,120.0
313,G#3,102.0,0.5,57,120.0
314,C#4,102.125,0.125,63,120.0
315,B3,102.25,0.25,73,120.0
316,A3,102.5,123/250,66,120.0
317,F#3,102.5,0.5,51,120.0
318,C#4,103.0,1.0,72,120.0
319,A3,103.0,1.0,56,120.0
320,C#4,104.0,1.0,68,120.0
321,A3,104.0,1.0,54,120.0
322,B3,105.0,0.125,61,120.0
323,C#3,105.0,3.0,47,120.0
324,G#3,105.0,1.0,57,120.0
325,C#4,105.125,0.125,61,120.0
326,B3,105.25,0.75,72,120.0
327,B-3,106.0,1.0,72,120.0
328,F#3,106.0,1.0,56,120.0
329,C#4,107.0,1.0,68,120.0
330,B-3,107.0,1.0,54,120.0
331,B3,108.0,0.125,62,120.0
332,C#3,108.0,1.0,47,120.0
333,G#3,108.0,0.5,57,120.0
334,C#4,108.125,0.125,63,120.0
335,B3,108.25,0.25,73,120.0
336,B-3,108.5,0.5,66,120.0
337,F#3,108.5,1.5,51,120.0
338,F#4,109.0,1.0,72,120.0
339,F#2,109.0,2.0,47,120.0
340,F#5,110.0,1.0,58,120.0
341,F#5,111.0,0.5,58,120.0
342,B2,111.0,1.0,50,120.0
343,B5,111.5,0.5,50,120.0
344,G5,112.0,0.125,50,120.0
345,E4,112.0,1.0,36,120.0
346,B3,112.0,1.0,36,120.0
347,G3,112.0,1.0,36,120.0
348,A5,112.125,0.125,50,120.0
349,G5,112.25,0.75,57,120.0
350,F#5,113.0,0.5,53,120.0
351,E4,113.0,1.0,35,120.0
352,B3,113.0,1.0,35,120.0
353,G3,113.0,1.0,35,120.0
354,E5,113.5,0.5,50,120.0
355,F#5,114.0,0.5,55,120.0
356,B2,114.0,1.0,50,120.0
357,B4,114.5,2.5,50,120.0
358,D4,115.0,1.0,28,120.0
359,B3,115.0,1.0,28,120.0
360,F#3,115.0,1.0,28,120.0
361,D4,116.0,1.0,28,120.0
362,B3,116.0,1.0,28,120.0
363,F#3,116.0,1.0,28,120.0
364,C#5,117.0,0.5,58,120.0
365,B2,117.0,1.0,50,120.0
366,E5,117.5,0.5,50,120.0
367,D5,118.0,0.125,50,120.0
368,E4,118.0,1.0,36,120.0
369,B-3,118.0,1.0,36,120.0
370,F#3,118.0,1.0,36,120.0
371,E5,118.125,0.125,50,120.0
372,D5,118.25,0.75,57,120.0
373,C#5,119.0,1.0,53,120.0
374,E4,119.0,1.0,35,120.0
375,B-3,119.0,1.0,35,120.0
376,F#3,119.0,1.0,35,120.0
377,D5,120.0,0.5,55,120.0
378,B2,120.0,1.0,50,120.0
379,B4,120.5,1.5,50,120.0
380,D4,121.0,1.0,28,120.0
381,B3,121.0,1.0,28,120.0
382,F#3,121.0,1.0,28,120.0
383,D3,122.0,1.0,66,120.0
384,D3,123.0,0.5,66,120.0
385,B3,123.0,1.0,40,120.0
386,F4,123.0,1.0,40,120.0
387,G3,123.5,0.5,58,120.0
388,E3,124.0,333/1000,65,120.0
389,C4,124.0,1.0,36,120.0
390,E4,124.0,1.0,36,120.0
391,F3,124.333,333/1000,57,120.0
392,E3,124.667,333/1000,55,120.0
393,D3,125.0,0.5,63,120.0
394,C4,125.0,1.0,36,120.0
395,E4,125.0,1.0,36,120.0
396,C3,125.5,0.5,57,120.0
397,D3,126.0,0.75,64,120.0
398,G3,126.0,1.0,43,120.0
399,B3,126.0,1.0,43,120.0
400,F4,126.0,1.0,43,120.0
401,G2,126.75,0.25,55,120.0
402,D3,127.0,1.0,64,120.0
403,G3,127.0,1.0,35,120.0
404,B3,127.0,1.0,35,120.0
405,F4,127.0,1.0,35,120.0
406,C3,128.0,1.0,59,120.0
407,C4,128.0,1.0,36,120.0
408,E4,128.0,1.0,36,120.0
409,D3,129.0,0.5,66,120.0
410,B3,129.0,1.0,40,120.0
411,F4,129.0,1.0,40,120.0
412,G3,129.5,0.5,58,120.0
413,E3,130.0,333/1000,65,120.0
414,C4,130.0,1.0,36,120.0
415,E4,130.0,1.0,36,120.0
416,F3,130.333,333/1000,57,120.0
417,E3,130.667,333/1000,55,120.0
418,D3,131.0,0.5,63,120.0
419,C4,131.0,1.0,36,120.0
420,E4,131.0,1.0,36,120.0
421,C3,131.5,0.5,57,120.0
422,D3,132.0,0.75,64,120.0
423,G3,132.0,1.0,43,120.0
424,B3,132.0,1.0,43,120.0
425,F4,132.0,1.0,43,120.0
426,G2,132.75,0.25,54,120.0
427,D3,133.0,1.0,62,120.0
428,G3,133.0,1.0,34,120.0
429,B3,133.0,1.0,34,120.0
430,F4,133.0,1.0,34,120.0
431,C3,134.0,1.0,56,120.0
432,C4,134.0,1.0,34,120.0
433,E4,134.0,1.0,34,120.0
434,D3,135.0,0.75,60,120.0
435,G3,135.0,1.0,40,120.0
436,B3,135.0,1.0,40,120.0
437,F4,135.0,1.0,40,120.0
438,G2,135.75,0.25,51,120.0
439,C3,136.0,1.0,58,120.0
440,C4,136.0,1.0,32,120.0
441,E4,136.0,1.0,32,120.0
442,D3,137.0,0.75,57,120.0
443,G3,137.0,1.0,38,120.0
444,B3,137.0,1.0,38,120.0
445,F4,137.0,1.0,38,120.0
446,G2,137.75,0.25,48,120.0
447,C3,138.0,1.0,56,120.0
448,C4,138.0,1.0,29,120.0
449,E4,138.0,1.0,29,120.0
450,D3,139.0,0.75,55,120.0
451,G3,139.0,1.0,36,120.0
452,B3,139.0,1.0,36,120.0
453,F4,139.0,1.0,36,120.0
454,G2,139.75,0.25,46,120.0
455,C3,140.0,1.0,53,120.0
456,C4,140.0,1.0,30,120.0
457,E4,140.0,1.0,30,120.0
458,G2,141.0,3.0,52,120.0
459,G3,141.0,3.0,52,120.0
460,F#2,144.0,2.0,60,120.0
461,F#3,144.0,2.0,59,120.0
462,F2,146.0,1.0,66,120.0
463,F3,146.0,1.0,62,120.0
464,B-1,147.0,0.5,74,120.0
465,F4,148.0,1.0,72,120.0
466,B-4,148.0,1.0,72,120.0
467,D5,148.0,1.0,72,120.0
468,F3,148.0,1.0,57,120.0
469,D4,148.0,1.0,57,120.0
470,B-3,148.0,1.0,57,120.0
471,F#4,149.0,1.0,72,120.0
472,B-4,149.0,1.0,72,120.0
473,E-5,149.0,1.0,72,120.0
474,E-4,149.0,1.0,64,120.0
475,B-3,149.0,1.0,64,120.0
476,F#3,149.0,1.0,64,120.0
477,F#5,150.0,0.25,86,120.0
478,B-2,150.0,0.5,73,120.0
479,F5,150.75,1.0,80,120.0
480,D5,150.75,0.25,61,120.0
481,C5,151.0,0.75,61,120.0
482,F4,151.0,2.0,61,120.0
483,D4,151.0,2.0,61,120.0
484,B-3,151.0,2.0,61,120.0
485,D5,151.75,0.25,61,120.0
486,F5,151.75,1.0,80,120.0
487,B-4,152.0,1.0,80,120.0
488,F3,152.0,1.0,68,120.0
489,B-5,153.0,0.5,85,120.0
490,B-1,153.0,0.5,72,120.0
491,F4,154.0,1.0,72,120.0
492,B-4,154.0,1.0,72,120.0
493,D5,154.0,1.0,72,120.0
494,F3,154.0,1.0,57,120.0
495,D4,154.0,1.0,57,120.0
496,B-3,154.0,1.0,57,120.0
497,F#4,155.0,1.0,72,120.0
498,B-4,155.0,1.0,72,120.0
499,E-5,155.0,1.0,72,120.0
500,E-4,155.0,1.0,64,120.0
501,B-3,155.0,1.0,64,120.0
502,F#3,155.0,1.0,64,120.0
503,F#5,156.0,0.25,86,120.0
504,B-2,156.0,0.5,73,120.0
505,F5,156.75,1.0,80,120.0
506,D5,156.75,0.25,61,120.0
507,C5,157.0,0.75,61,120.0
508,F4,157.0,2.0,61,120.0
509,D4,157.0,2.0,61,120.0
510,B-3,157.0,2.0,61,120.0
511,D5,157.75,0.25,61,120.0
512,F5,157.75,1.0,80,120.0
513,B-4,158.0,1.0,80,120.0
514,F3,158.0,1.0,68,120.0
515,B-1,159.0,0.5,79,120.0
516,F4,160.0,1.0,72,120.0
517,B-4,160.0,1.0,72,120.0
518,D5,160.0,1.0,72,120.0
519,F3,160.0,1.0,57,120.0
520,D4,160.0,1.0,57,120.0
521,B-3,160.0,1.0,57,120.0
522,F#4,161.0,1.0,72,120.0
523,B-4,161.0,1.0,72,120.0
524,E-5,161.0,1.0,72,120.0
525,E-4,161.0,1.0,64,120.0
526,B-3,161.0,1.0,64,120.0
527,F#3,161.0,1.0,64,120.0
528,F#5,162.0,0.25,86,120.0
529,B-2,162.0,0.5,73,120.0
530,F5,162.75,1.0,80,120.0
531,D5,162.75,0.25,61,120.0
532,C5,163.0,0.75,61,120.0
533,F4,163.0,2.0,61,120.0
534,D4,163.0,2.0,61,120.0
535,B-3,163.0,2.0,61,120.0
536,D5,163.75,0.25,61,120.0
537,F5,163.75,1.0,80,120.0
538,B-4,164.0,1.0,80,120.0
539,F3,164.0,1.0,68,120.0
540,B-6,165.0,0.5,82,120.0
541,B-5,165.0,0.5,82,120.0
542,B-2,165.0,0.5,70,120.0
543,B-1,165.0,0.5,70,120.0
544,F4,166.0,1.0,72,120.0
545,B-4,166.0,1.0,72,120.0
546,D5,166.0,1.0,72,120.0
547,F3,166.0,1.0,57,120.0
548,D4,166.0,1.0,57,120.0
549,B-3,166.0,1.0,57,120.0
550,F#4,167.0,1.0,72,120.0
551,B-4,167.0,1.0,72,120.0
552,E-5,167.0,1.0,72,120.0
553,E-4,167.0,1.0,64,120.0
554,B-3,167.0,1.0,64,120.0
555,F#3,167.0,1.0,64,120.0
556,F#5,168.0,0.25,86,120.0
557,B-2,168.0,0.5,73,120.0
558,F5,168.75,1.0,80,120.0
559,D5,168.75,0.25,61,120.0
560,C5,169.0,0.75,61,120.0
561,F4,169.0,2.0,61,120.0
562,D4,169.0,2.0,61,120.0
563,B-3,169.0,2.0,61,120.0
564,D5,169.75,0.25,61,120.0
565,F5,169.75,1.0,80,120.0
566,B-4,170.0,1.0,80,120.0
567,F3,170.0,1.0,68,120.0
568,E-2,171.0,0.5,81,120.0
569,B-4,172.0,1.0,72,120.0
570,E-5,172.0,1.0,72,120.0
571,G5,172.0,1.0,72,120.0
572,B-3,172.0,1.0,57,120.0
573,G4,172.0,1.0,57,120.0
574,E-4,172.0,1.0,57,120.0
575,B4,173.0,1.0,72,120.0
576,E-5,173.0,1.0,72,120.0
577,G#5,173.0,1.0,72,120.0
578,G#4,173.0,1.0,64,120.0
579,E-4,173.0,1.0,64,120.0
580,B3,173.0,1.0,64,120.0
581,B5,174.0,0.25,88,120.0
582,E-3,174.0,0.5,73,120.0
583,B-5,174.75,1.0,88,120.0
584,G5,174.75,0.25,61,120.0
585,F5,175.0,0.75,61,120.0
586,G4,175.0,1.0,61,120.0
587,E-4,175.0,1.0,61,120.0
588,B-3,175.0,1.0,61,120.0
589,G5,175.75,0.25,61,120.0
590,B-5,175.75,1.0,88,120.0
591,E-5,176.0,1.0,80,120.0
592,E-3,176.0,1.0,68,120.0
593,E-2,177.0,0.5,73,120.0
594,E-7,177.0,0.5,90,120.0
595,E-6,177.0,0.5,90,120.0
596,B-4,178.0,1.0,72,120.0
597,E-5,178.0,1.0,72,120.0
598,G5,178.0,1.0,72,120.0
599,B-3,178.0,1.0,57,120.0
600,G4,178.0,1.0,57,120.0
601,E-4,178.0,1.0,57,120.0
602,B4,179.0,1.0,72,120.0
603,E-5,179.0,1.0,72,120.0
604,G#5,179.0,1.0,72,120.0
605,G#4,179.0,1.0,64,120.0
606,E-4,179.0,1.0,64,120.0
607,B3,179.0,1.0,64,120.0
608,B5,180.0,0.25,87,120.0
609,E-3,180.0,0.5,73,120.0
610,B-5,180.75,1.0,88,120.0
611,G5,180.75,0.25,61,120.0
612,F5,181.0,0.75,61,120.0
613,B-4,181.0,1.0,61,120.0
614,G4,181.0,1.0,61,120.0
615,C#4,181.0,1.0,61,120.0
616,G5,181.75,0.25,61,120.0
617,B-5,181.75,1.0,88,120.0
618,E5,182.0,1.0,80,120.0
619,E-3,182.0,1.0,68,120.0
620,E5,183.0,3.0,80,120.0
621,E-2,183.0,0.5,73,120.0
622,C#4,184.0,1.0,65,120.0
623,B-4,184.0,1.0,74,120.0
624,G5,184.0,1.0,74,120.0
625,D4,185.0,1.0,57,120.0
626,B4,185.0,1.0,71,120.0
627,G#5,185.0,1.0,71,120.0
628,B-4,186.0,3.0,65,120.0
629,E-4,186.0,1.0,59,120.0
630,E-5,186.0,1.0,71,120.0
631,G5,186.0,1.0,71,120.0
632,C#5,187.0,2.0,62,120.0
633,F#5,187.0,1.0,74,120.0
634,E4,187.0,1.0,57,120.0
635,F5,188.0,1.0,71,120.0
636,F4,188.0,1.0,54,120.0
637,E5,189.0,3.0,69,120.0
638,B-4,189.0,3.0,65,120.0
639,C#5,189.0,2.0,62,120.0
640,F#4,189.0,1.0,52,120.0
641,F#3,190.0,0.875,59,120.0
642,A3,190.875,0.125,60,120.0
643,G3,191.0,1.0,68,120.0
644,F#3,192.0,1.0,62,120.0
645,C#3,193.0,1.0,55,120.0
646,D3,194.0,1.0,54,120.0
647,F#5,195.0,0.5,55,120.0
648,B2,195.0,1.0,50,120.0
649,B5,195.5,0.5,50,120.0
650,G5,196.0,0.125,50,120.0
651,E4,196.0,1.0,36,120.0
652,B3,196.0,1.0,36,120.0
653,G3,196.0,1.0,36,120.0
654,A5,196.125,0.125,50,120.0
655,G5,196.25,0.75,57,120.0
656,F#5,197.0,0.5,53,120.0
657,E4,197.0,1.0,35,120.0
658,B3,197.0,1.0,35,120.0
659,G3,197.0,1.0,35,120.0
660,E5,197.5,0.5,50,120.0
661,F#5,198.0,0.5,55,120.0
662,B2,198.0,1.0,50,120.0
663,B4,198.5,2.5,50,120.0
664,D4,199.0,1.0,28,120.0
665,B3,199.0,1.0,28,120.0
666,F#3,199.0,1.0,28,120.0
667,D4,200.0,1.0,28,120.0
668,B3,200.0,1.0,28,120.0
669,F#3,200.0,1.0,28,120.0
670,C#5,201.0,0.5,58,120.0
671,B2,201.0,1.0,50,120.0
672,E5,201.5,0.5,50,120.0
673,D5,202.0,0.125,50,120.0
674,E4,202.0,1.0,36,120.0
675,B-3,202.0,1.0,36,120.0
676,F#3,202.0,1.0,36,120.0
677,E5,202.125,0.125,50,120.0
678,D5,202.25,0.75,57,120.0
679,C#5,203.0,1.0,53,120.0
680,E4,203.0,1.0,35,120.0
681,B-3,203.0,1.0,35,120.0
682,F#3,203.0,1.0,35,120.0
683,D5,204.0,0.5,55,120.0
684,B2,204.0,1.0,50,120.0
685,B4,204.5,2.5,50,120.0
686,D4,205.0,1.0,28,120.0
687,B3,205.0,1.0,28,120.0
688,F#3,205.0,1.0,28,120.0
689,D4,206.0,1.0,28,120.0
690,B3,206.0,1.0,28,120.0
691,F#3,206.0,1.0,28,120.0
692,C#5,207.0,0.5,58,120.0
693,C#2,207.0,1.0,50,120.0
694,B4,207.5,0.5,50,120.0
695,A4,208.0,0.125,46,120.0
696,B3,208.0,1.0,36,120.0
697,F3,208.0,1.0,36,120.0
698,C#3,208.0,1.0,36,120.0
699,B4,208.125,0.125,47,120.0
700,A4,208.25,0.75,55,120.0
701,G#4,209.0,1.0,53,120.0
702,B3,209.0,1.0,35,120.0
703,F3,209.0,1.0,35,120.0
704,C#3,209.0,1.0,35,120.0
705,A4,210.0,0.5,55,120.0
706,F#2,210.0,1.0,50,120.0
707,C#5,210.5,1.0,50,120.0
708,A3,211.0,1.0,34,120.0
709,C#3,211.0,1.0,34,120.0
710,C#4,212.0,1.0,68,120.0
711,C#4,213.0,0.5,68,120.0
712,B3,213.5,0.5,60,120.0
713,A3,214.0,0.125,57,120.0
714,B3,214.125,0.125,57,120.0
715,A3,214.25,0.75,68,120.0
716,G#3,215.0,1.0,67,120.0
717,A3,216.0,1.0,71,120.0
718,C#4,217.0,2.0,67,120.0
719,B3,219.0,1.0,71,120.0
720,C#3,219.0,3.0,47,120.0
721,G#3,219.0,1.0,58,120.0
722,A3,220.0,1.0,68,120.0
723,F#3,220.0,1.0,55,120.0
724,C#4,221.0,1.0,68,120.0
725,A3,221.0,1.0,55,120.0
726,B3,222.0,0.125,63,120.0
727,C#3,222.0,3.0,47,120.0
728,G#3,222.0,0.5,57,120.0
729,C#4,222.125,0.125,63,120.0
730,B3,222.25,0.25,73,120.0
731,A3,222.5,247/500,66,120.0
732,F#3,222.5,0.5,51,120.0
733,C#4,223.0,1.0,72,120.0
734,A3,223.0,1.0,56,120.0
735,C#4,224.0,1.0,68,120.0
736,A3,224.0,1.0,54,120.0
737,B3,225.0,0.125,61,120.0
738,C#3,225.0,3.0,47,120.0
739,G#3,225.0,1.0,57,120.0
740,C#4,225.125,0.125,61,120.0
741,B3,225.25,0.75,72,120.0
742,B-3,226.0,1.0,72,120.0
743,F#3,226.0,1.0,56,120.0
744,C#4,227.0,1.0,68,120.0
745,B-3,227.0,1.0,54,120.0
746,B3,228.0,0.125,62,120.0
747,C#3,228.0,1.0,47,120.0
748,G#3,228.0,0.5,57,120.0
749,C#4,228.125,0.125,63,120.0
750,B3,228.25,0.25,73,120.0
751,B-3,228.5,0.5,66,120.0
752,F#3,228.5,1.5,51,120.0
753,F#4,229.0,1.0,72,120.0
754,F#2,229.0,2.0,47,120.0
755,F#5,230.0,1.0,58,120.0
756,F#5,231.0,0.5,58,120.0
757,B2,231.0,1.0,50,120.0
758,B5,231.5,0.5,50,120.0
759,G5,232.0,0.125,50,120.0
760,E4,232.0,1.0,36,120.0
761,B3,232.0,1.0,36,120.0
762,G3,232.0,1.0,36,120.0
763,A5,232.125,0.125,50,120.0
764,G5,232.25,0.75,57,120.0
765,F#5,233.0,0.5,53,120.0
766,E4,233.0,1.0,35,120.0
767,B3,233.0,1.0,35,120.0
768,G3,233.0,1.0,35,120.0
769,E5,233.5,0.5,50,120.0
770,F#5,234.0,0.5,55,120.0
771,B2,234.0,1.0,50,120.0
772,B4,234.5,2.5,50,120.0
773,D4,235.0,1.0,28,120.0
774,B3,235.0,1.0,28,120.0
775,F#3,235.0,1.0,28,120.0
776,D4,236.0,1.0,28,120.0
777,B3,236.0,1.0,28,120.0
778,F#3,236.0,1.0,28,120.0
779,C#5,237.0,0.5,58,120.0
780,B2,237.0,1.0,50,120.0
781,E5,237.5,0.5,50,120.0
782,D5,238.0,0.125,50,120.0
783,E4,238.0,1.0,36,120.0
784,B-3,238.0,1.0,36,120.0
785,F#3,238.0,1.0,36,120.0
786,E5,238.125,0.125,50,120.0
787,D5,238.25,0.75,57,120.0
788,C#5,239.0,1.0,53,120.0
789,E4,239.0,1.0,35,120.0
790,B-3,239.0,1.0,35,120.0
791,F#3,239.0,1.0,35,120.0
792,D5,240.0,0.5,55,120.0
793,B2,240.0,1.0,50,120.0
794,B4,240.5,1.5,50,120.0
795,D4,241.0,1.0,28,120.0
796,B3,241.0,1.0,28,120.0
797,F#3,241.0,1.0,28,120.0
798,D3,242.0,1.0,66,120.0
799,D3,243.0,0.5,66,120.0
800,B3,243.0,1.0,40,120.0
801,F4,243.0,1.0,40,120.0
802,G3,243.5,0.5,58,120.0
803,E3,244.0,333/1000,65,120.0
804,C4,244.0,1.0,36,120.0
805,E4,244.0,1.0,36,120.0
806,F3,244.333,333/1000,57,120.0
807,E3,244.667,333/1000,55,120.0
808,D3,245.0,0.5,63,120.0
809,C4,245.0,1.0,36,120.0
810,E4,245.0,1.0,36,120.0
811,C3,245.5,0.5,57,120.0
812,D3,246.0,0.75,64,120.0
813,G3,246.0,1.0,43,120.0
814,B3,246.0,1.0,43,120.0
815,F4,246.0,1.0,43,120.0
816,G2,246.75,0.25,55,120.0
817,D3,247.0,1.0,64,120.0
818,G3,247.0,1.0,35,120.0
819,B3,247.0,1.0,35,120.0
820,F4,247.0,1.0,35,120.0
821,C3,248.0,1.0,59,120.0
822,C4,248.0,1.0,36,120.0
823,E4,248.0,1.0,36,120.0
824,D3,249.0,0.5,66,120.0
825,B3,249.0,1.0,40,120.0
826,F4,249.0,1.0,40,120.0
827,G3,249.5,0.5,58,120.0
828,E3,250.0,333/1000,65,120.0
829,C4,250.0,1.0,36,120.0
830,E4,250.0,1.0,36,120.0
831,F3,250.333,333/1000,57,120.0
832,E3,250.667,333/1000,55,120.0
833,D3,251.0,0.5,63,120.0
834,C4,251.0,1.0,36,120.0
835,E4,251.0,1.0,36,120.0
836,C3,251.5,0.5,57,120.0
837,D3,252.0,0.75,64,120.0
838,G3,252.0,1.0,43,120.0
839,B3,252.0,1.0,43,120.0
840,F4,252.0,1.0,43,120.0
841,G2,252.75,0.25,54,120.0
842,D3,253.0,1.0,62,120.0
843,G3,253.0,1.0,34,120.0
844,B3,253.0,1.0,34,120.0
845,F4,253.0,1.0,34,120.0
846,C3,254.0,1.0,56,120.0
847,C4,254.0,1.0,34,120.0
848,E4,254.0,1.0,34,120.0
849,D3,255.0,0.75,60,120.0
850,G3,255.0,1.0,40,120.0
851,B3,255.0,1.0,40,120.0
852,F4,255.0,1.0,40,120.0
853,G2,255.75,0.25,51,120.0
854,C3,256.0,1.0,58,120.0
855,C4,256.0,1.0,32,120.0
856,E4,256.0,1.0,32,120.0
857,D3,257.0,0.75,57,120.0
858,G3,257.0,1.0,38,120.0
859,B3,257.0,1.0,38,120.0
860,F4,257.0,1.0,38,120.0
861,G2,257.75,0.25,48,120.0
862,C3,258.0,1.0,56,120.0
863,C4,258.0,1.0,29,120.0
864,E4,258.0,1.0,29,120.0
865,D3,259.0,0.75,55,120.0
866,G3,259.0,1.0,36,120.0
867,B3,259.0,1.0,36,120.0
868,F4,259.0,1.0,36,120.0
869,G2,259.75,0.25,46,120.0
870,C3,260.0,1.0,53,120.0
871,C4,260.0,1.0,30,120.0
872,E4,260.0,1.0,30,120.0
873,G2,261.0,3.0,52,120.0
874,G3,261.0,3.0,52,120.0
875,F#2,264.0,3.0,48,120.0
876,F#3,264.0,3.0,48,120.0
877,F#5,267.0,0.5,55,120.0
878,B1,267.0,1.0,48,120.0
879,B2,267.0,1.0,48,120.0
880,B5,267.5,0.5,50,120.0
881,G5,268.0,0.125,50,120.0
882,E4,268.0,1.0,36,120.0
883,B3,268.0,1.0,36,120.0
884,G3,268.0,1.0,36,120.0
885,A5,268.125,0.125,50,120.0
886,G5,268.25,0.75,57,120.0
887,F#5,269.0,0.5,53,120.0
888,E4,269.0,1.0,35,120.0
889,B3,269.0,1.0,35,120.0
890,G3,269.0,1.0,35,120.0
891,E5,269.5,0.5,50,120.0
892,F#5,270.0,0.5,55,120.0
893,B2,270.0,1.0,50,120.0
894,B4,270.5,2.5,50,120.0
895,D4,271.0,1.0,28,120.0
896,B3,271.0,1.0,28,120.0
897,F#3,271.0,1.0,28,120.0
898,D4,272.0,1.0,28,120.0
899,B3,272.0,1.0,28,120.0
900,F#3,272.0,1.0,28,120.0
901,C#5,273.0,0.5,58,120.0
902,B2,273.0,1.0,50,120.0
903,E5,273.5,0.5,50,120.0
904,D5,274.0,0.125,50,120.0
905,E4,274.0,1.0,36,120.0
906,B-3,274.0,1.0,36,120.0
907,F#3,274.0,1.0,36,120.0
908,E5,274.125,0.125,50,120.0
909,D5,274.25,0.75,57,120.0
910,C#5,275.0,1.0,53,120.0
911,E4,275.0,1.0,35,120.0
912,B-3,275.0,1.0,35,120.0
913,F#3,275.0,1.0,35,120.0
914,D5,276.0,0.5,55,120.0
915,B2,276.0,1.0,50,120.0
916,B4,276.5,2.5,50,120.0
917,D4,277.0,1.0,28,120.0
918,B3,277.0,1.0,28,120.0
919,F#3,277.0,1.0,28,120.0
920,D4,278.0,1.0,28,120.0
921,B3,278.0,1.0,28,120.0
922,F#3,278.0,1.0,28,120.0
923,C#5,279.0,0.5,58,120.0
924,C#2,279.0,1.0,50,120.0
925,B4,279.5,0.5,50,120.0
926,A4,280.0,0.125,46,120.0
927,B3,280.0,1.0,36,120.0
928,F3,280.0,1.0,36,120.0
929,C#3,280.0,1.0,36,120.0
930,B4,280.125,0.125,47,120.0
931,A4,280.25,0.75,55,120.0
932,G#4,281.0,1.0,53,120.0
933,B3,281.0,1.0,35,120.0
934,F3,281.0,1.0,35,120.0
935,C#3,281.0,1.0,35,120.0
936,A4,282.0,0.5,55,120.0
937,F#2,282.0,1.0,50,120.0
938,C#5,282.5,1.0,50,120.0
939,A3,283.0,1.0,34,120.0
940,C#3,283.0,1.0,34,120.0
941,C#4,284.0,1.0,68,120.0
942,C#4,285.0,0.5,68,120.0
943,B3,285.5,0.5,60,120.0
944,A3,286.0,0.125,57,120.0
945,B3,286.125,0.125,57,120.0
946,A3,286.25,0.75,68,120.0
947,G#3,287.0,1.0,67,120.0
948,A3,288.0,1.0,71,120.0
949,C#4,289.0,2.0,67,120.0
950,B3,291.0,1.0,71,120.0
951,C#3,291.0,3.0,47,120.0
952,G#3,291.0,1.0,58,120.0
953,A3,292.0,1.0,68,120.0
954,F#3,292.0,1.0,55,120.0
955,C#4,293.0,1.0,68,120.0
956,A3,293.0,1.0,55,120.0
957,B3,294.0,0.125,63,120.0
958,C#3,294.0,3.0,47,120.0
959,G#3,294.0,0.5,57,120.0
960,C#4,294.125,0.125,63,120.0
961,B3,294.25,0.25,73,120.0
962,A3,294.5,0.5,66,120.0
963,F#3,294.5,0.5,51,120.0
964,C#4,295.0,1.0,72,120.0
965,A3,295.0,1.0,56,120.0
966,C#4,296.0,1.0,68,120.0
967,A3,296.0,1.0,54,120.0
968,B3,297.0,0.125,61,120.0
969,C#3,297.0,3.0,47,120.0
970,G#3,297.0,1.0,57,120.0
971,C#4,297.125,0.125,61,120.0
972,B3,297.25,0.75,72,120.0
973,B-3,298.0,247/250,72,120.0
974,F#3,298.0,1.0,56,120.0
975,C#4,299.0,1.0,68,120.0
976,B-3,299.0,1.0,54,120.0
977,B3,300.0,0.125,62,120.0
978,C#3,300.0,1.0,47,120.0
979,G#3,300.0,0.5,57,120.0
980,C#4,300.125,0.125,63,120.0
981,B3,300.25,0.25,73,120.0
982,B-3,300.5,0.5,66,120.0
983,F#3,300.5,1.5,51,120.0
984,F#4,301.0,1.0,72,120.0
985,F#2,301.0,2.0,47,120.0
986,F#5,302.0,1.0,58,120.0
987,F#5,303.0,0.5,58,120.0
988,B2,303.0,1.0,50,120.0
989,B5,303.5,0.5,50,120.0
990,G5,304.0,0.125,50,120.0
991,E4,304.0,1.0,36,120.0
992,B3,304.0,1.0,36,120.0
993,G3,304.0,1.0,36,120.0
994,A5,304.125,0.125,50,120.0
995,G5,304.25,0.75,57,120.0
996,F#5,305.0,0.5,53,120.0
997,E4,305.0,1.0,35,120.0
998,B3,305.0,1.0,35,120.0
999,G3,305.0,1.0,35,120.0
1000,E5,305.5,0.5,50,120.0
1001,F#5,306.0,0.5,55,120.0
1002,B2,306.0,1.0,50,120.0
1003,B4,306.5,2.5,50,120.0
1004,D4,307.0,1.0,28,120.0
1005,B3,307.0,1.0,28,120.0
1006,F#3,307.0,1.0,28,120.0
1007,D4,308.0,1.0,28,120.0
1008,B3,308.0,1.0,28,120.0
1009,F#3,308.0,1.0,28,120.0
1010,C#5,309.0,0.5,58,120.0
1011,B2,309.0,1.0,50,120.0
1012,E5,309.5,0.5,50,120.0
1013,D5,310.0,0.125,50,120.0
1014,E4,310.0,1.0,36,120.0
1015,B-3,310.0,1.0,36,120.0
1016,F#3,310.0,1.0,36,120.0
1017,E5,310.125,0.125,50,120.0
1018,D5,310.25,0.75,57,120.0
1019,C#5,311.0,1.0,53,120.0
1020,E4,311.0,1.0,35,120.0
1021,B-3,311.0,1.0,35,120.0
1022,F#3,311.0,1.0,35,120.0
1023,D5,312.0,0.5,55,120.0
1024,B2,312.0,1.0,50,120.0
1025,B4,312.5,1.5,50,120.0
1026,D4,313.0,1.0,28,120.0
1027,B3,313.0,1.0,28,120.0
1028,F#3,313.0,1.0,28,120.0
1029,D3,314.0,1.0,66,120.0
1030,D3,315.0,0.5,66,120.0
1031,B3,315.0,1.0,40,120.0
1032,F4,315.0,1.0,40,120.0
1033,G3,315.5,0.5,58,120.0
1034,E3,316.0,333/1000,65,120.0
1035,C4,316.0,1.0,36,120.0
1036,E4,316.0,1.0,36,120.0
1037,F3,316.333,333/1000,57,120.0
1038,E3,316.667,333/1000,55,120.0
1039,D3,317.0,0.5,63,120.0
1040,C4,317.0,1.0,36,120.0
1041,E4,317.0,1.0,36,120.0
1042,C3,317.5,0.5,57,120.0
1043,D3,318.0,0.75,64,120.0
1044,G3,318.0,1.0,43,120.0
1045,B3,318.0,1.0,43,120.0
1046,F4,318.0,1.0,43,120.0
1047,G2,318.75,0.25,55,120.0
1048,D3,319.0,1.0,64,120.0
1049,G3,319.0,1.0,35,120.0
1050,B3,319.0,1.0,35,120.0
1051,F4,319.0,1.0,35,120.0
1052,C3,320.0,1.0,59,120.0
1053,C4,320.0,1.0,36,120.0
1054,E4,320.0,1.0,36,120.0
1055,D3,321.0,0.5,66,120.0
1056,B3,321.0,1.0,40,120.0
1057,F4,321.0,1.0,40,120.0
1058,G3,321.5,0.5,58,120.0
1059,E3,322.0,333/1000,65,120.0
1060,C4,322.0,1.0,36,120.0
1061,E4,322.0,1.0,36,120.0
1062,F3,322.333,333/1000,57,120.0
1063,E3,322.667,333/1000,55,120.0
1064,D3,323.0,0.5,63,120.0
1065,C4,323.0,1.0,36,120.0
1066,E4,323.0,1.0,36,120.0
1067,C3,323.5,0.5,57,120.0
1068,D3,324.0,0.75,64,120.0
1069,G3,324.0,1.0,43,120.0
1070,B3,324.0,1.0,43,120.0
1071,F4,324.0,1.0,43,120.0
1072,G2,324.75,0.25,54,120.0
1073,D3,325.0,1.0,62,120.0
1074,G3,325.0,1.0,34,120.0
1075,B3,325.0,1.0,34,120.0
1076,F4,325.0,1.0,34,120.0
1077,C3,326.0,1.0,56,120.0
1078,C4,326.0,1.0,34,120.0
1079,E4,326.0,1.0,34,120.0
1080,D3,327.0,0.75,60,120.0
1081,G3,327.0,1.0,40,120.0
1082,B3,327.0,1.0,40,120.0
1083,F4,327.0,1.0,40,120.0
1084,G2,327.75,0.25,51,120.0
1085,C3,328.0,1.0,58,120.0
1086,C4,328.0,1.0,32,120.0
1087,E4,328.0,1.0,32,120.0
1088,D3,329.0,0.75,57,120.0
1089,G3,329.0,1.0,38,120.0
1090,B3,329.0,1.0,38,120.0
1091,F4,329.0,1.0,38,120.0
1092,G2,329.75,0.25,48,120.0
1093,C3,330.0,1.0,56,120.0
1094,C4,330.0,1.0,29,120.0
1095,E4,330.0,1.0,29,120.0
1096,D3,331.0,0.75,55,120.0
1097,G3,331.0,1.0,36,120.0
1098,B3,331.0,1.0,36,120.0
1099,F4,331.0,1.0,36,120.0
1100,G2,331.75,0.25,46,120.0
1101,C3,332.0,1.0,53,120.0
1102,C4,332.0,1.0,30,120.0
1103,E4,332.0,1.0,30,120.0
1104,G2,333.0,3.0,52,120.0
1105,G3,333.0,3.0,52,120.0
1106,F#2,336.0,2.0,60,120.0
1107,F#3,336.0,2.0,59,120.0
1108,F2,338.0,1.0,66,120.0
1109,F3,338.0,1.0,62,120.0
1110,B-1,339.0,0.5,74,120.0
1111,F4,340.0,1.0,72,120.0
1112,B-4,340.0,1.0,72,120.0
1113,D5,340.0,1.0,72,120.0
1114,F3,340.0,1.0,57,120.0
1115,D4,340.0,1.0,57,120.0
1116,B-3,340.0,1.0,57,120.0
1117,F#4,341.0,1.0,72,120.0
1118,B-4,341.0,1.0,72,120.0
1119,E-5,341.0,1.0,72,120.0
1120,E-4,341.0,1.0,64,120.0
1121,B-3,341.0,1.0,64,120.0
1122,F#3,341.0,1.0,64,120.0
1123,F#5,342.0,0.25,86,120.0
1124,B-2,342.0,0.5,73,120.0
1125,F5,342.75,1.0,80,120.0
1126,D5,342.75,0.25,61,120.0
1127,C5,343.0,0.75,61,120.0
1128,F4,343.0,2.0,61,120.0
1129,D4,343.0,2.0,61,120.0
1130,B-3,343.0,2.0,61,120.0
1131,D5,343.75,0.25,61,120.0
1132,F5,343.75,1.0,80,120.0
1133,B-4,344.0,1.0,80,120.0
1134,F3,344.0,1.0,68,120.0
1135,B-5,345.0,0.5,85,120.0
1136,B-1,345.0,0.5,72,120.0
1137,F4,346.0,1.0,72,120.0
1138,B-4,346.0,1.0,72,120.0
1139,D5,346.0,1.0,72,120.0
1140,F3,346.0,1.0,57,120.0
1141,D4,346.0,1.0,57,120.0
1142,B-3,346.0,1.0,57,120.0
1143,F#4,347.0,1.0,72,120.0
1144,B-4,347.0,1.0,72,120.0
1145,E-5,347.0,1.0,72,120.0
1146,E-4,347.0,1.0,64,120.0
1147,B-3,347.0,1.0,64,120.0
1148,F#3,347.0,1.0,64,120.0
1149,F#5,348.0,0.25,86,120.0
1150,B-2,348.0,0.5,73,120.0
1151,F5,348.75,1.0,80,120.0
1152,D5,348.75,0.25,61,120.0
1153,C5,349.0,0.75,61,120.0
1154,F4,349.0,2.0,61,120.0
1155,D4,349.0,2.0,61,120.0
1156,B-3,349.0,2.0,61,120.0
1157,D5,349.75,0.25,61,120.0
1158,F5,349.75,1.0,80,120.0
1159,B-4,350.0,1.0,80,120.0
1160,F3,350.0,1.0,68,120.0
1161,B-1,351.0,0.5,79,120.0
1162,F4,352.0,1.0,72,120.0
1163,B-4,352.0,1.0,72,120.0
1164,D5,352.0,1.0,72,120.0
1165,F3,352.0,1.0,57,120.0
1166,D4,352.0,1.0,57,120.0
1167,B-3,352.0,1.0,57,120.0
1168,F#4,353.0,1.0,72,120.0
1169,B-4,353.0,1.0,72,120.0
1170,E-5,353.0,1.0,72,120.0
1171,E-4,353.0,1.0,64,120.0
1172,B-3,353.0,1.0,64,120.0
1173,F#3,353.0,1.0,64,120.0
1174,F#5,354.0,0.25,86,120.0
1175,B-2,354.0,0.5,73,120.0
1176,F5,354.75,1.0,80,120.0
1177,D5,354.75,0.25,61,120.0
1178,C5,355.0,0.75,61,120.0
1179,F4,355.0,2.0,61,120.0
1180,D4,355.0,2.0,61,120.0
1181,B-3,355.0,2.0,61,120.0
1182,D5,355.75,0.25,61,120.0
1183,F5,355.75,1.0,80,120.0
1184,B-4,356.0,1.0,80,120.0
1185,F3,356.0,1.0,68,120.0
1186,B-6,357.0,0.5,82,120.0
1187,B-5,357.0,0.5,82,120.0
1188,B-2,357.0,0.5,70,120.0
1189,B-1,357.0,0.5,70,120.0
1190,F4,358.0,1.0,72,120.0
1191,B-4,358.0,1.0,72,120.0
1192,D5,358.0,1.0,72,120.0
1193,F3,358.0,1.0,57,120.0
1194,D4,358.0,1.0,57,120.0
1195,B-3,358.0,1.0,57,120.0
1196,F#4,359.0,1.0,72,120.0
1197,B-4,359.0,1.0,72,120.0
1198,E-5,359.0,1.0,72,120.0
1199,E-4,359.0,1.0,64,120.0
1200,B-3,359.0,1.0,64,120.0
1201,F#3,359.0,1.0,64,120.0
1202,F#5,360.0,0.25,86,120.0
1203,B-2,360.0,0.5,73,120.0
1204,F5,360.75,1.0,80,120.0
1205,D5,360.75,0.25,61,120.0
1206,C5,361.0,0.75,61,120.0
1207,F4,361.0,2.0,61,120.0
1208,D4,361.0,2.0,61,120.0
1209,B-3,361.0,2.0,61,120.0
1210,D5,361.75,0.25,61,120.0
1211,F5,361.75,1.0,80,120.0
1212,B-4,362.0,1.0,80,120.0
1213,F3,362.0,1.0,68,120.0
1214,E-2,363.0,0.5,81,120.0
1215,B-4,364.0,1.0,72,120.0
1216,E-5,364.0,1.0,72,120.0
1217,G5,364.0,1.0,72,120.0
1218,B-3,364.0,1.0,57,120.0
1219,G4,364.0,1.0,57,120.0
1220,E-4,364.0,1.0,57,120.0
1221,B4,365.0,1.0,72,120.0
1222,E-5,365.0,1.0,72,120.0
1223,G#5,365.0,1.0,72,120.0
1224,G#4,365.0,1.0,64,120.0
1225,E-4,365.0,1.0,64,120.0
1226,B3,365.0,1.0,64,120.0
1227,B5,366.0,0.25,88,120.0
1228,E-3,366.0,0.5,73,120.0
1229,B-5,366.75,1.0,88,120.0
1230,G5,366.75,0.25,61,120.0
1231,F5,367.0,0.75,61,120.0
1232,G4,367.0,1.0,61,120.0
1233,E-4,367.0,1.0,61,120.0
1234,B-3,367.0,1.0,61,120.0
1235,G5,367.75,0.25,61,120.0
1236,B-5,367.75,1.0,88,120.0
1237,E-5,368.0,1.0,80,120.0
1238,E-3,368.0,1.0,68,120.0
1239,E-2,369.0,0.5,73,120.0
1240,E-7,369.0,0.5,90,120.0
1241,E-6,369.0,0.5,90,120.0
1242,B-4,370.0,1.0,72,120.0
1243,E-5,370.0,1.0,72,120.0
1244,G5,370.0,1.0,72,120.0
1245,B-3,370.0,1.0,57,120.0
1246,G4,370.0,1.0,57,120.0
1247,E-4,370.0,1.0,57,120.0
1248,B4,371.0,1.0,72,120.0
1249,E-5,371.0,1.0,72,120.0
1250,G#5,371.0,1.0,72,120.0
1251,G#4,371.0,1.0,64,120.0
1252,E-4,371.0,1.0,64,120.0
1253,B3,371.0,1.0,64,120.0
1254,B5,372.0,0.25,87,120.0
1255,E-3,372.0,0.5,73,120.0
1256,B-5,372.75,1.0,88,120.0
1257,G5,372.75,0.25,61,120.0
1258,F5,373.0,0.75,61,120.0
1259,B-4,373.0,1.0,61,120.0
1260,G4,373.0,1.0,61,120.0
1261,C#4,373.0,1.0,61,120.0
1262,G5,373.75,0.25,61,120.0
1263,B-5,373.75,1.0,88,120.0
1264,E5,374.0,1.0,80,120.0
1265,E-3,374.0,1.0,68,120.0
1266,E5,375.0,3.0,80,120.0
1267,E-2,375.0,0.5,73,120.0
1268,C#4,376.0,1.0,65,120.0
1269,B-4,376.0,1.0,74,120.0
1270,G5,376.0,1.0,74,120.0
1271,D4,377.0,1.0,57,120.0
1272,B4,377.0,1.0,71,120.0
1273,G#5,377.0,1.0,71,120.0
1274,B-4,378.0,3.0,65,120.0
1275,E-4,378.0,1.0,59,120.0
1276,E-5,378.0,1.0,71,120.0
1277,G5,378.0,1.0,71,120.0
1278,C#5,379.0,2.0,62,120.0
1279,F#5,379.0,1.0,74,120.0
1280,E4,379.0,1.0,57,120.0
1281,F5,380.0,1.0,71,120.0
1282,F4,380.0,1.0,54,120.0
1283,E5,381.0,3.0,69,120.0
1284,B-4,381.0,3.0,65,120.0
1285,C#5,381.0,3.0,62,120.0
1286,F#4,381.0,1.0,52,120.0
1287,F#3,382.0,0.875,59,120.0
1288,B-3,382.875,0.125,60,120.0
1289,G#3,383.0,1.0,68,120.0
1290,F#3,384.0,1.0,63,120.0
1291,C#3,385.0,1.0,56,120.0
1292,F#3,386.0,1.0,53,120.0
1293,E-5,387.0,0.5,59,120.0
1294,B2,387.0,1.0,50,120.0
1295,E5,387.5,0.5,61,120.0
1296,F5,388.0,1.0,63,120.0
1297,E-4,388.0,1.0,38,120.0
1298,B3,388.0,1.0,38,120.0
1299,F#3,388.0,1.0,38,120.0
1300,F#5,389.0,1.0,70,120.0
1301,E-4,389.0,1.0,40,120.0
1302,B4,389.0,1.0,40,120.0
1303,G5,390.0,0.75,77,120.0
1304,E2,390.0,1.0,53,120.0
1305,G#5,390.75,0.25,64,120.0
1306,E5,391.0,1.5,76,120.0
1307,C#4,391.0,1.0,39,120.0
1308,B3,391.0,1.0,39,120.0
1309,E4,391.0,1.0,39,120.0
1310,G#4,391.0,1.0,39,120.0
1311,E-5,392.5,0.5,67,120.0
1312,E-5,393.0,0.5,71,120.0
1313,F#2,393.0,1.0,50,120.0
1314,C#5,393.5,0.125,59,120.0
1315,E-5,393.625,0.125,60,120.0
1316,C#5,393.75,0.25,69,120.0
1317,C5,394.0,1.0,67,120.0
1318,E4,394.0,1.0,38,120.0
1319,B-3,394.0,1.0,38,120.0
1320,F#3,394.0,1.0,38,120.0
1321,C#5,395.0,1.0,70,120.0
1322,F#3,395.0,1.0,40,120.0
1323,B-3,395.0,1.0,40,120.0
1324,E4,395.0,1.0,40,120.0
1325,E5,396.0,2.0,74,120.0
1326,G2,396.0,1.0,54,120.0
1327,E-4,397.0,1.0,42,120.0
1328,B-3,397.0,1.0,42,120.0
1329,E-3,397.0,1.0,42,120.0
1330,E-5,398.0,1.0,64,120.0
1331,E-3,398.0,1.0,39,120.0
1332,B-3,398.0,1.0,39,120.0
1333,E-4,398.0,1.0,39,120.0
1334,B4,399.0,0.5,58,120.0
1335,G#2,399.0,1.0,50,120.0
1336,C#5,399.5,0.5,60,120.0
1337,D5,400.0,1.0,63,120.0
1338,B3,400.0,1.0,38,120.0
1339,G#3,400.0,1.0,38,120.0
1340,E-3,400.0,1.0,38,120.0
1341,E-5,401.0,1.0,68,120.0
1342,E-3,401.0,1.0,38,120.0
1343,G#3,401.0,1.0,38,120.0
1344,B3,401.0,1.0,38,120.0
1345,F#5,402.0,0.5,72,120.0
1346,C#2,402.0,1.0,53,120.0
1347,E5,402.5,0.5,64,120.0
1348,C#5,403.0,1.0,70,120.0
1349,E4,403.0,1.0,40,120.0
1350,C#4,403.0,1.0,40,120.0
1351,G#3,403.0,1.0,40,120.0
1352,G#4,404.0,0.125,56,120.0
1353,B-4,404.125,0.125,56,120.0
1354,G#4,404.25,0.75,64,120.0
1355,G4,405.0,0.75,64,120.0
1356,D3,405.0,1.0,50,120.0
1357,G#4,405.75,0.25,61,120.0
1358,B4,406.0,1.0,64,120.0
1359,F4,406.0,1.0,39,120.0
1360,B3,406.0,1.0,39,120.0
1361,G#3,406.0,1.0,39,120.0
1362,B-4,407.0,1.0,64,120.0
1363,G#3,407.0,1.0,39,120.0
1364,B-3,407.0,1.0,39,120.0
1365,F4,407.0,1.0,39,120.0
1366,G4,408.0,2.0,69,120.0
1367,E-3,408.0,1.0,55,120.0
1368,E-4,409.0,1.0,42,120.0
1369,B-3,409.0,1.0,42,120.0
1370,G3,409.0,1.0,42,120.0
1371,F#4,410.0,1.0,64,120.0
1372,C#3,410.0,1.0,41,120.0
1373,F#3,410.0,1.0,41,120.0
1374,B-3,410.0,1.0,41,120.0
1375,E4,410.0,1.0,41,120.0
1376,E-5,411.0,0.5,59,120.0
1377,B2,411.0,1.0,50,120.0
1378,E5,411.5,0.5,61,120.0
1379,F#5,412.0,1.0,63,120.0
1380,E-4,412.0,1.0,38,120.0
1381,B3,412.0,1.0,38,120.0
1382,F#3,412.0,1.0,38,120.0
1383,E-6,413.0,1.0,69,120.0
1384,C#6,414.0,0.5,69,120.0
1385,E2,414.0,1.0,51,120.0
1386,B5,414.5,0.5,64,120.0
1387,G#5,415.0,1.0,69,120.0
1388,C#4,415.0,1.0,39,120.0
1389,B3,415.0,1.0,39,120.0
1390,E4,415.0,1.0,39,120.0
1391,G#4,415.0,1.0,39,120.0
1392,E5,416.0,1.0,67,120.0
1393,E-5,417.0,0.5,71,120.0
1394,F#2,417.0,1.0,50,120.0
1395,C#5,417.5,0.125,59,120.0
1396,E-5,417.625,0.125,60,120.0
1397,C#5,417.75,0.25,69,120.0
1398,C5,418.0,1.0,67,120.0
1399,E4,418.0,1.0,38,120.0
1400,B-3,418.0,1.0,38,120.0
1401,F#3,418.0,1.0,38,120.0
1402,C#5,419.0,1.0,70,120.0
1403,F#3,419.0,1.0,40,120.0
1404,B-3,419.0,1.0,40,120.0
1405,E4,419.0,1.0,40,120.0
1406,E5,420.0,2.0,71,120.0
1407,G2,420.0,1.0,54,120.0
1408,E-4,421.0,1.0,42,120.0
1409,B-3,421.0,1.0,42,120.0
1410,E-3,421.0,1.0,42,120.0
1411,E-5,422.0,1.0,64,120.0
1412,E-3,422.0,1.0,39,120.0
1413,B-3,422.0,1.0,39,120.0
1414,E-4,422.0,1.0,39,120.0
1415,E-5,423.0,1.5,77,120.0
1416,G#2,423.0,1.0,55,120.0
1417,F3,424.0,1.0,38,120.0
1418,E-4,424.0,1.0,38,120.0
1419,B3,424.0,1.0,38,120.0
1420,G#3,424.0,1.0,38,120.0
1421,E-5,424.5,0.125,64,120.0
1422,F5,424.625,0.125,64,120.0
1423,E-5,424.75,0.25,72,120.0
1424,C#5,425.0,0.5,74,120.0
1425,B4,425.5,0.5,71,120.0
1426,B-4,426.0,0.5,79,120.0
1427,B-2,426.0,1.0,53,120.0
1428,E-5,426.5,0.5,73,120.0
1429,F#5,427.0,1.0,80,120.0
1430,E-4,427.0,1.0,40,120.0
1431,B-3,427.0,1.0,40,120.0
1432,F#3,427.0,1.0,40,120.0
1433,B5,428.0,1.0,79,120.0
1434,F#3,428.0,1.0,40,120.0
1435,B-3,428.0,1.0,40,120.0
1436,E-4,428.0,1.0,40,120.0
1437,B-5,429.0,0.5,81,120.0
1438,B-2,429.0,1.0,50,120.0
1439,F5,429.5,0.5,70,120.0
1440,G#5,430.0,1.5,80,120.0
1441,D4,430.0,1.0,39,120.0
1442,B-3,430.0,1.0,39,120.0
1443,G#3,430.0,1.0,39,120.0
1444,G#3,431.0,1.0,39,120.0
1445,B-3,431.0,1.0,39,120.0
1446,F4,431.0,1.0,39,120.0
1447,F#5,431.5,0.5,77,120.0
1448,E-5,432.0,1.0,81,120.0
1449,E-3,432.0,1.0,55,120.0
1450,F#4,433.0,0.5,80,120.0
1451,E-4,433.0,1.0,34,120.0
1452,B-3,433.0,1.0,34,120.0
1453,F#3,433.0,1.0,34,120.0
1454,F#5,433.5,0.5,79,120.0
1455,F5,434.0,0.5,78,120.0
1456,C#3,434.0,1.0,29,120.0
1457,F#3,434.0,1.0,29,120.0
1458,B-3,434.0,1.0,29,120.0
1459,E4,434.0,1.0,29,120.0
1460,E5,434.5,0.5,70,120.0
1461,E-5,435.0,0.5,67,120.0
1462,B2,435.0,1.0,50,120.0
1463,E5,435.5,0.5,70,120.0
1464,F5,436.0,1.0,72,120.0
1465,E-4,436.0,1.0,38,120.0
1466,B3,436.0,1.0,38,120.0
1467,A3,436.0,1.0,38,120.0
1468,F#5,437.0,1.0,75,120.0
1469,B3,437.0,1.0,38,120.0
1470,E-4,437.0,1.0,38,120.0
1471,A4,437.0,1.0,38,120.0
1472,G5,438.0,0.75,75,120.0
1473,E2,438.0,1.0,53,120.0
1474,G#5,438.75,0.25,64,120.0
1475,E5,439.0,1.5,69,120.0
1476,C#4,439.0,1.0,39,120.0
1477,B3,439.0,1.0,39,120.0
1478,E4,439.0,1.0,39,120.0
1479,G#4,439.0,1.0,39,120.0
1480,E-5,440.5,0.5,67,120.0
1481,E-5,441.0,0.5,71,120.0
1482,F#2,441.0,1.0,50,120.0
1483,C#5,441.5,0.125,59,120.0
1484,E-5,441.625,0.125,60,120.0
1485,C#5,441.75,0.25,69,120.0
1486,C5,442.0,1.0,67,120.0
1487,E4,442.0,1.0,38,120.0
1488,B-3,442.0,1.0,38,120.0
1489,F#3,442.0,1.0,38,120.0
1490,C#5,443.0,1.0,70,120.0
1491,F#3,443.0,1.0,40,120.0
1492,B-3,443.0,1.0,40,120.0
1493,E4,443.0,1.0,40,120.0
1494,E5,444.0,2.0,73,120.0
1495,G2,444.0,1.0,54,120.0
1496,E-4,445.0,1.0,42,120.0
1497,B-3,445.0,1.0,42,120.0
1498,E-3,445.0,1.0,42,120.0
1499,E-5,446.0,1.0,64,120.0
1500,E-3,446.0,1.0,39,120.0
1501,B-3,446.0,1.0,39,120.0
1502,E-4,446.0,1.0,39,120.0
1503,B4,447.0,0.5,58,120.0
1504,G#2,447.0,1.0,50,120.0
1505,C#5,447.5,0.5,60,120.0
1506,D5,448.0,1.0,63,120.0
1507,B3,448.0,1.0,38,120.0
1508,G#3,448.0,1.0,38,120.0
1509,E-3,448.0,1.0,38,120.0
1510,E-5,449.0,1.0,67,120.0
1511,E-3,449.0,1.0,38,120.0
1512,G#3,449.0,1.0,38,120.0
1513,B3,449.0,1.0,38,120.0
1514,F#5,450.0,0.5,69,120.0
1515,C#2,450.0,1.0,53,120.0
1516,E5,450.5,0.5,64,120.0
1517,C#5,451.0,1.0,70,120.0
1518,E4,451.0,1.0,40,120.0
1519,C#4,451.0,1.0,40,120.0
1520,G#3,451.0,1.0,40,120.0
1521,G#4,452.0,0.125,56,120.0
1522,B-4,452.125,0.125,56,120.0
1523,G#4,452.25,0.75,64,120.0
1524,G4,453.0,0.75,64,120.0
1525,D3,453.0,1.0,50,120.0
1526,G#4,453.75,0.25,61,120.0
1527,B4,454.0,1.0,64,120.0
1528,F4,454.0,1.0,39,120.0
1529,B3,454.0,1.0,39,120.0
1530,G#3,454.0,1.0,39,120.0
1531,B-4,455.0,1.0,64,120.0
1532,G#3,455.0,1.0,39,120.0
1533,B-3,455.0,1.0,39,120.0
1534,F4,455.0,1.0,39,120.0
1535,G4,456.0,2.0,69,120.0
1536,E-3,456.0,1.0,55,120.0
1537,E-4,457.0,1.0,42,120.0
1538,B-3,457.0,1.0,42,120.0
1539,G3,457.0,1.0,42,120.0
1540,F#4,458.0,1.0,64,120.0
1541,C#3,458.0,1.0,39,120.0
1542,F#3,458.0,1.0,39,120.0
1543,B-3,458.0,1.0,39,120.0
1544,E4,458.0,1.0,39,120.0
1545,E-5,459.0,0.5,59,120.0
1546,B2,459.0,1.0,50,120.0
1547,E5,459.5,0.5,61,120.0
1548,F#5,460.0,1.0,63,120.0
1549,E-4,460.0,1.0,38,120.0
1550,B3,460.0,1.0,38,120.0
1551,F#3,460.0,1.0,38,120.0
1552,E-6,461.0,1.0,69,120.0
1553,C#6,462.0,0.5,69,120.0
1554,E2,462.0,1.0,51,120.0
1555,B5,462.5,0.5,64,120.0
1556,G#5,463.0,1.0,69,120.0
1557,C#4,463.0,1.0,39,120.0
1558,B3,463.0,1.0,39,120.0
1559,E4,463.0,1.0,39,120.0
1560,G#4,463.0,1.0,39,120.0
1561,E5,464.0,1.0,67,120.0
1562,E-5,465.0,0.5,71,120.0
1563,F#2,465.0,1.0,50,120.0
1564,C#5,465.5,0.125,59,120.0
1565,E-5,465.625,0.125,60,120.0
1566,C#5,465.75,0.25,69,120.0
1567,C5,466.0,1.0,67,120.0
1568,E4,466.0,1.0,38,120.0
1569,B-3,466.0,1.0,38,120.0
1570,F#3,466.0,1.0,38,120.0
1571,C#5,467.0,1.0,70,120.0
1572,F#3,467.0,1.0,40,120.0
1573,B-3,467.0,1.0,40,120.0
1574,E4,467.0,1.0,40,120.0
1575,E5,468.0,2.0,71,120.0
1576,G2,468.0,1.0,54,120.0
1577,E-4,469.0,1.0,42,120.0
1578,B-3,469.0,1.0,42,120.0
1579,E-3,469.0,1.0,42,120.0
1580,E-5,470.0,1.0,64,120.0
1581,E-3,470.0,1.0,39,120.0
1582,B-3,470.0,1.0,39,120.0
1583,E-4,470.0,1.0,39,120.0
1584,E-5,471.0,1.5,67,120.0
1585,G#2,471.0,1.0,55,120.0
1586,F3,472.0,1.0,38,120.0
1587,E-4,472.0,1.0,38,120.0
1588,B3,472.0,1.0,38,120.0
1589,G#3,472.0,1.0,38,120.0
1590,E-5,472.5,0.125,56,120.0
1591,F5,472.625,0.125,56,120.0
1592,E-5,472.75,0.25,63,120.0
1593,C#5,473.0,0.5,65,120.0
1594,B4,473.5,0.5,62,120.0
1595,B-4,474.0,0.5,69,120.0
1596,B-2,474.0,1.0,53,120.0
1597,E-5,474.5,0.5,64,120.0
1598,F#5,475.0,1.0,70,120.0
1599,E-4,475.0,1.0,40,120.0
1600,B-3,475.0,1.0,40,120.0
1601,F#3,475.0,1.0,40,120.0
1602,B5,476.0,1.0,69,120.0
1603,F#3,476.0,1.0,40,120.0
1604,B-3,476.0,1.0,40,120.0
1605,E-4,476.0,1.0,40,120.0
1606,B-5,477.0,0.5,71,120.0
1607,B-2,477.0,1.0,50,120.0
1608,F5,477.5,0.5,61,120.0
1609,G#5,478.0,1.5,70,120.0
1610,D4,478.0,1.0,39,120.0
1611,B-3,478.0,1.0,39,120.0
1612,G#3,478.0,1.0,39,120.0
1613,G#3,479.0,1.0,39,120.0
1614,B-3,479.0,1.0,39,120.0
1615,F4,479.0,1.0,39,120.0
1616,F#5,479.5,0.5,67,120.0
1617,E-5,480.0,2.0,71,120.0
1618,E-3,480.0,1.0,55,120.0
1619,E-4,481.0,1.0,34,120.0
1620,B-3,481.0,1.0,34,120.0
1621,F#3,481.0,1.0,34,120.0
1622,F#5,482.0,1.0,75,120.0
1623,F#3,482.0,1.0,43,120.0
1624,B-3,482.0,1.0,43,120.0
1625,F#4,482.0,1.0,43,120.0
1626,G#6,483.0,0.75,76,120.0
1627,G#5,483.0,0.75,76,120.0
1628,B-4,483.0,0.25,59,120.0
1629,E5,483.0,0.25,59,120.0
1630,F#4,483.75,0.25,60,120.0
1631,F#6,483.75,0.25,71,120.0
1632,F#5,483.75,0.25,71,120.0
1633,F#3,484.0,1.0,58,120.0
1634,E6,484.0,0.75,70,120.0
1635,E5,484.0,0.75,70,120.0
1636,F#2,485.0,1.0,60,120.0
1637,E4,485.0,1.0,69,120.0
1638,B-4,485.0,1.0,69,120.0
1639,B2,486.0,0.5,68,120.0
1640,E-4,486.0,0.5,70,120.0
1641,B4,486.0,0.5,70,120.0
1642,F#3,486.75,0.25,59,120.0
1643,F#4,486.75,0.25,68,120.0
1644,C#5,486.75,0.25,68,120.0
1645,B4,487.0,1.0,74,120.0
1646,E-5,487.0,1.0,74,120.0
1647,E-4,487.0,1.0,61,120.0
1648,B3,487.0,1.0,61,120.0
1649,F#5,488.0,1.0,71,120.0
1650,F#6,488.0,1.0,71,120.0
1651,B4,488.0,1.0,56,120.0
1652,E-5,488.0,1.0,56,120.0
1653,G#6,489.0,0.75,76,120.0
1654,G#5,489.0,0.75,76,120.0
1655,B-4,489.0,0.25,59,120.0
1656,E5,489.0,0.25,59,120.0
1657,F#4,489.75,0.25,60,120.0
1658,F#6,489.75,0.25,71,120.0
1659,F#5,489.75,0.25,71,120.0
1660,F#3,490.0,1.0,58,120.0
1661,E6,490.0,0.75,70,120.0
1662,E5,490.0,0.75,70,120.0
1663,F#2,491.0,1.0,60,120.0
1664,E4,491.0,1.0,69,120.0
1665,B-4,491.0,1.0,69,120.0
1666,B2,492.0,0.5,68,120.0
1667,E-4,492.0,0.5,70,120.0
1668,B4,492.0,0.5,70,120.0
1669,F#3,492.75,0.25,59,120.0
1670,F#4,492.75,0.25,68,120.0
1671,C#5,492.75,0.25,68,120.0
1672,B4,493.0,1.0,74,120.0
1673,E-5,493.0,1.0,74,120.0
1674,E-4,493.0,1.0,61,120.0
1675,B3,493.0,1.0,61,120.0
1676,E-5,494.0,1.0,71,120.0
1677,F#5,494.0,1.0,71,120.0
1678,E3,495.0,0.25,68,120.0
1679,C#6,495.0,0.25,75,120.0
1680,E6,495.0,0.25,75,120.0
1681,C#5,495.75,0.25,62,120.0
1682,F#5,495.75,0.25,68,120.0
1683,B-5,495.75,0.25,68,120.0
1684,E5,496.0,0.75,70,120.0
1685,G#5,496.0,0.75,70,120.0
1686,E4,496.0,0.75,61,120.0
1687,G#4,496.0,0.75,61,120.0
1688,C#5,496.75,0.25,62,120.0
1689,F#5,496.75,0.25,68,120.0
1690,B-5,496.75,0.25,68,120.0
1691,E5,497.0,1.0,71,120.0
1692,G#5,497.0,1.0,71,120.0
1693,E4,497.0,1.0,60,120.0
1694,G#4,497.0,1.0,60,120.0
1695,F#2,498.0,0.25,68,120.0
1696,B5,498.0,0.25,75,120.0
1697,E-6,498.0,0.25,75,120.0
1698,B4,498.75,0.25,62,120.0
1699,E5,498.75,0.25,68,120.0
1700,G#5,498.75,0.25,68,120.0
1701,E-5,499.0,0.75,70,120.0
1702,F#5,499.0,0.75,70,120.0
1703,E-4,499.0,0.75,61,120.0
1704,F#4,499.0,0.75,61,120.0
1705,B4,499.75,0.25,62,120.0
1706,E5,499.75,0.25,68,120.0
1707,G#5,499.75,0.25,68,120.0
1708,E-5,500.0,1.0,71,120.0
1709,F#5,500.0,1.0,71,120.0
1710,E-4,500.0,1.0,60,120.0
1711,F#4,500.0,1.0,60,120.0
1712,F#2,501.0,0.25,68,120.0
1713,B-5,501.0,0.25,75,120.0
1714,C#6,501.0,0.25,75,120.0
1715,B-4,501.75,0.25,62,120.0
1716,E-5,501.75,0.25,68,120.0
1717,F#5,501.75,0.25,68,120.0
1718,C#5,502.0,0.75,70,120.0
1719,E5,502.0,0.75,70,120.0
1720,C#4,502.0,0.75,61,120.0
1721,E4,502.0,0.75,61,120.0
1722,B-4,502.75,0.25,62,120.0
1723,E-5,502.75,0.25,68,120.0
1724,F#5,502.75,0.25,68,120.0
1725,C#5,503.0,1.0,71,120.0
1726,E5,503.0,1.0,71,120.0
1727,C#4,503.0,1.0,60,120.0
1728,E4,503.0,1.0,60,120.0
1729,B2,504.0,0.5,61,120.0
1730,B4,504.0,0.25,64,120.0
1731,E-5,504.0,0.25,64,120.0
1732,C#5,504.75,0.25,57,120.0
1733,E5,504.75,0.25,57,120.0
1734,B3,505.0,2.0,46,120.0
1735,F4,505.0,1.0,55,120.0
1736,D5,505.0,1.0,62,120.0
1737,G#5,505.0,1.0,62,120.0
1738,F#4,506.0,1.0,50,120.0
1739,E-5,506.0,1.0,54,120.0
1740,F#5,506.0,1.0,54,120.0
1741,G#6,507.0,0.75,76,120.0
1742,G#5,507.0,0.75,76,120.0
1743,B-4,507.0,0.25,59,120.0
1744,E5,507.0,0.25,59,120.0
1745,F#4,507.75,0.25,60,120.0
1746,F#6,507.75,0.25,71,120.0
1747,F#5,507.75,0.25,71,120.0
1748,F#3,508.0,1.0,58,120.0
1749,E6,508.0,0.75,70,120.0
1750,E5,508.0,0.75,70,120.0
1751,F#2,509.0,1.0,60,120.0
1752,E4,509.0,1.0,69,120.0
1753,B-4,509.0,1.0,69,120.0
1754,B2,510.0,0.5,68,120.0
1755,E-4,510.0,0.5,70,120.0
1756,B4,510.0,0.5,70,120.0
1757,F#3,510.75,0.25,59,120.0
1758,F#4,510.75,0.25,68,120.0
1759,C#5,510.75,0.25,68,120.0
1760,B4,511.0,1.0,74,120.0
1761,E-5,511.0,1.0,74,120.0
1762,E-4,511.0,1.0,61,120.0
1763,B3,511.0,1.0,61,120.0
1764,F#5,512.0,1.0,71,120.0
1765,F#6,512.0,1.0,71,120.0
1766,B4,512.0,1.0,56,120.0
1767,E-5,512.0,1.0,56,120.0
1768,G#6,513.0,0.75,76,120.0
1769,G#5,513.0,0.75,76,120.0
1770,B-4,513.0,0.25,59,120.0
1771,E5,513.0,0.25,59,120.0
1772,F#4,513.75,0.25,60,120.0
1773,F#6,513.75,0.25,71,120.0
1774,F#5,513.75,0.25,71,120.0
1775,F#3,514.0,1.0,58,120.0
1776,E6,514.0,0.75,70,120.0
1777,E5,514.0,0.75,70,120.0
1778,F#2,515.0,1.0,60,120.0
1779,E4,515.0,1.0,69,120.0
1780,B-4,515.0,1.0,69,120.0
1781,B2,516.0,0.5,68,120.0
1782,E-4,516.0,0.5,70,120.0
1783,B4,516.0,0.5,70,120.0
1784,F#3,516.75,0.25,59,120.0
1785,F#4,516.75,0.25,68,120.0
1786,C#5,516.75,0.25,68,120.0
1787,B4,517.0,1.0,74,120.0
1788,E-5,517.0,1.0,74,120.0
1789,E-4,517.0,1.0,61,120.0
1790,B3,517.0,1.0,61,120.0
1791,E-5,518.0,1.0,71,120.0
1792,F#5,518.0,1.0,71,120.0
1793,E3,519.0,0.25,68,120.0
1794,C#6,519.0,0.25,75,120.0
1795,E6,519.0,0.25,75,120.0
1796,C#5,519.75,0.25,62,120.0
1797,F#5,519.75,0.25,68,120.0
1798,B-5,519.75,0.25,68,120.0
1799,E5,520.0,0.75,70,120.0
1800,G#5,520.0,0.75,70,120.0
1801,E4,520.0,0.75,61,120.0
1802,G#4,520.0,0.75,61,120.0
1803,C#5,520.75,0.25,62,120.0
1804,F#5,520.75,0.25,68,120.0
1805,B-5,520.75,0.25,68,120.0
1806,E5,521.0,1.0,71,120.0
1807,G#5,521.0,1.0,71,120.0
1808,E4,521.0,1.0,60,120.0
1809,G#4,521.0,1.0,60,120.0
1810,F#2,522.0,0.25,68,120.0
1811,B5,522.0,0.25,75,120.0
1812,E-6,522.0,0.25,75,120.0
1813,B4,522.75,0.25,62,120.0
1814,E5,522.75,0.25,68,120.0
1815,G#5,522.75,0.25,68,120.0
1816,E-5,523.0,0.75,70,120.0
1817,F#5,523.0,0.75,70,120.0
1818,E-4,523.0,0.75,61,120.0
1819,F#4,523.0,0.75,61,120.0
1820,B4,523.75,0.25,62,120.0
1821,E5,523.75,0.25,68,120.0
1822,G#5,523.75,0.25,68,120.0
1823,E-5,524.0,1.0,71,120.0
1824,F#5,524.0,1.0,71,120.0
1825,E-4,524.0,1.0,60,120.0
1826,F#4,524.0,1.0,60,120.0
1827,F#2,525.0,0.25,68,120.0
1828,B-5,525.0,0.25,75,120.0
1829,C#6,525.0,0.25,75,120.0
1830,B-4,525.75,0.25,62,120.0
1831,E-5,525.75,0.25,68,120.0
1832,F#5,525.75,0.25,68,120.0
1833,C#5,526.0,0.75,70,120.0
1834,E5,526.0,0.75,70,120.0
1835,C#4,526.0,0.75,61,120.0
1836,E4,526.0,0.75,61,120.0
1837,B-4,526.75,0.25,62,120.0
1838,E-5,526.75,0.25,68,120.0
1839,F#5,526.75,0.25,68,120.0
1840,C#5,527.0,1.0,71,120.0
1841,E5,527.0,1.0,71,120.0
1842,C#4,527.0,1.0,60,120.0
1843,E4,527.0,1.0,60,120.0
1844,G#3,528.75,0.25,41,120.0
1845,F#3,529.0,0.75,47,120.0
1846,G#3,529.75,0.25,41,120.0
1847,F#3,530.0,1.0,46,120.0
1848,G#3,531.0,0.75,44,120.0
1849,F#3,531.75,0.25,37,120.0
1850,E3,532.0,1.0,44,120.0
1851,F#2,533.0,1.0,38,120.0
1852,B2,534.0,0.75,44,120.0
1853,C#3,534.75,0.25,41,120.0
1854,E-3,535.0,1.0,45,120.0
1855,F#3,536.0,1.0,44,120.0
1856,G#3,537.0,0.75,46,120.0
1857,F#3,537.75,0.25,42,120.0
1858,E3,538.0,1.0,45,120.0
1859,F#2,539.0,1.0,39,120.0
1860,B2,540.0,0.75,44,120.0
1861,C#3,540.75,0.25,41,120.0
1862,E-3,541.0,1.0,45,120.0
1863,F#3,542.0,1.0,44,120.0
1864,E4,543.0,3.0,49,120.0
1865,B-3,543.75,0.25,41,120.0
1866,G#3,544.0,0.75,44,120.0
1867,B-3,544.75,0.25,41,120.0
1868,G#3,545.0,1.0,45,120.0
1869,E-4,546.0,3.0,49,120.0
1870,G#3,546.75,0.25,41,120.0
1871,F#3,547.0,0.75,44,120.0
1872,G#3,547.75,0.25,41,120.0
1873,F#3,548.0,1.0,45,120.0
1874,C#4,549.0,3.0,49,120.0
1875,F#3,549.75,0.25,41,120.0
1876,E3,550.0,0.75,44,120.0
1877,F#3,550.75,0.25,41,120.0
1878,E3,551.0,1.0,45,120.0
1879,E-3,552.0,0.75,44,120.0
1880,E3,552.75,0.25,41,120.0
1881,G#3,553.0,1.0,45,120.0
1882,F#3,554.0,1.0,44,120.0
1883,G#3,555.0,0.75,46,120.0
1884,F#3,555.75,0.25,42,120.0
1885,E3,556.0,1.0,45,120.0
1886,F#2,557.0,1.0,39,120.0
1887,B2,558.0,0.75,44,120.0
1888,C#3,558.75,0.25,41,120.0
1889,E-3,559.0,1.0,45,120.0
1890,F#3,560.0,1.0,44,120.0
1891,G3,561.0,0.75,43,120.0
1892,F#3,561.75,0.25,39,120.0
1893,E3,562.0,1.0,42,120.0
1894,F#2,563.0,1.0,36,120.0
1895,B2,564.0,0.75,41,120.0
1896,C#3,564.75,0.25,38,120.0
1897,D3,565.0,1.0,41,120.0
1898,F#3,566.0,1.0,40,120.0
1899,G3,567.0,0.5,42,120.0
1900,F#3,567.5,0.5,38,120.0
1901,E3,568.0,1.0,41,120.0
1902,G2,569.0,1.0,35,120.0
1903,G3,570.0,0.5,41,120.0
1904,F#3,570.5,0.5,37,120.0
1905,E3,571.0,1.0,40,120.0
1906,G#2,572.0,1.0,34,120.0
1907,G3,573.0,0.75,40,120.0
1908,F#3,573.75,0.25,36,120.0
1909,E3,574.0,1.0,39,120.0
1910,A2,575.0,1.0,34,120.0
1911,G3,576.0,0.75,40,120.0
1912,F#3,576.75,0.25,36,120.0
1913,E3,577.0,1.0,39,120.0
1914,B-2,578.0,1.0,33,120.0
1915,F#5,579.0,0.5,46,120.0
1916,B2,579.0,1.0,42,120.0
1917,B5,579.5,0.5,42,120.0
1918,G5,580.0,0.125,42,120.0
1919,E4,580.0,1.0,30,120.0
1920,B3,580.0,1.0,30,120.0
1921,G3,580.0,1.0,30,120.0
1922,A5,580.125,0.125,42,120.0
1923,G5,580.25,0.75,48,120.0
1924,F#5,581.0,0.5,45,120.0
1925,E4,581.0,1.0,30,120.0
1926,B3,581.0,1.0,30,120.0
1927,G3,581.0,1.0,30,120.0
1928,E5,581.5,0.5,42,120.0
1929,F#5,582.0,0.5,46,120.0
1930,B2,582.0,1.0,42,120.0
1931,B4,582.5,2.5,42,120.0
1932,D4,583.0,1.0,23,120.0
1933,B3,583.0,1.0,23,120.0
1934,F#3,583.0,1.0,23,120.0
1935,D4,584.0,1.0,23,120.0
1936,B3,584.0,1.0,23,120.0
1937,F#3,584.0,1.0,23,120.0
1938,C#5,585.0,0.5,49,120.0
1939,B2,585.0,1.0,42,120.0
1940,E5,585.5,0.5,42,120.0
1941,D5,586.0,0.125,42,120.0
1942,E4,586.0,1.0,30,120.0
1943,B-3,586.0,1.0,30,120.0
1944,F#3,586.0,1.0,30,120.0
1945,E5,586.125,0.125,42,120.0
1946,D5,586.25,0.75,48,120.0
1947,C#5,587.0,1.0,45,120.0
1948,E4,587.0,1.0,30,120.0
1949,B-3,587.0,1.0,30,120.0
1950,F#3,587.0,1.0,30,120.0
1951,D5,588.0,0.5,46,120.0
1952,B2,588.0,1.0,42,120.0
1953,B4,588.5,2.5,42,120.0
1954,D4,589.0,1.0,23,120.0
1955,B3,589.0,1.0,23,120.0
1956,F#3,589.0,1.0,23,120.0
1957,D4,590.0,1.0,23,120.0
1958,B3,590.0,1.0,23,120.0
1959,F#3,590.0,1.0,23,120.0
1960,C#5,591.0,0.5,55,120.0
1961,C#2,591.0,1.0,47,120.0
1962,B4,591.5,0.5,47,120.0
1963,A4,592.0,0.125,43,120.0
1964,B3,592.0,1.0,34,120.0
1965,F3,592.0,1.0,34,120.0
1966,C#3,592.0,1.0,34,120.0
1967,B4,592.125,0.125,44,120.0
1968,A4,592.25,0.75,52,120.0
1969,G#4,593.0,1.0,50,120.0
1970,B3,593.0,1.0,33,120.0
1971,F3,593.0,1.0,33,120.0
1972,C#3,593.0,1.0,33,120.0
1973,A4,594.0,0.5,52,120.0
1974,F#2,594.0,1.0,47,120.0
1975,C#5,594.5,1.0,47,120.0
1976,A3,595.0,1.0,32,120.0
1977,C#3,595.0,1.0,32,120.0
1978,C#4,596.0,1.0,68,120.0
1979,C#4,597.0,0.5,68,120.0
1980,B3,597.5,0.5,60,120.0
1981,A3,598.0,0.125,57,120.0
1982,B3,598.125,0.125,57,120.0
1983,A3,598.25,0.75,68,120.0
1984,G#3,599.0,1.0,67,120.0
1985,A3,600.0,1.0,71,120.0
1986,C#4,601.0,2.0,67,120.0
1987,B3,603.0,1.0,71,120.0
1988,C#3,603.0,3.0,47,120.0
1989,G#3,603.0,1.0,58,120.0
1990,A3,604.0,124/125,68,120.0
1991,F#3,604.0,1.0,55,120.0
1992,C#4,605.0,1.0,68,120.0
1993,A3,605.0,1.0,55,120.0
1994,B3,606.0,0.125,63,120.0
1995,C#3,606.0,3.0,47,120.0
1996,G#3,606.0,0.5,57,120.0
1997,C#4,606.125,0.125,63,120.0
1998,B3,606.25,0.25,73,120.0
1999,A3,606.5,0.5,66,120.0
2000,F#3,606.5,0.5,51,120.0
2001,C#4,607.0,1.0,72,120.0
2002,A3,607.0,1.0,56,120.0
2003,C#4,608.0,1.0,68,120.0
2004,A3,608.0,1.0,54,120.0
2005,B3,609.0,0.125,61,120.0
2006,C#3,609.0,3.0,47,120.0
2007,G#3,609.0,1.0,57,120.0
2008,C#4,609.125,0.125,61,120.0
2009,B3,609.25,0.75,72,120.0
2010,B-3,610.0,99/100,72,120.0
2011,F#3,610.0,1.0,56,120.0
2012,C#4,611.0,1.0,68,120.0
2013,B-3,611.0,1.0,54,120.0
2014,B3,612.0,0.125,62,120.0
2015,C#3,612.0,1.0,47,120.0
2016,G#3,612.0,0.5,57,120.0
2017,C#4,612.125,0.125,63,120.0
2018,B3,612.25,0.25,73,120.0
2019,B-3,612.5,0.5,66,120.0
2020,F#3,612.5,1.5,51,120.0
2021,F#4,613.0,1.0,72,120.0
2022,F#2,613.0,2.0,47,120.0
2023,F#5,614.0,1.0,58,120.0
2024,F#5,615.0,0.5,58,120.0
2025,B2,615.0,1.0,50,120.0
2026,B5,615.5,0.5,50,120.0
2027,G5,616.0,0.125,50,120.0
2028,E4,616.0,1.0,36,120.0
2029,B3,616.0,1.0,36,120.0
2030,G3,616.0,1.0,36,120.0
2031,A5,616.125,0.125,50,120.0
2032,G5,616.25,0.75,57,120.0
2033,F#5,617.0,0.5,53,120.0
2034,E4,617.0,1.0,35,120.0
2035,B3,617.0,1.0,35,120.0
2036,G3,617.0,1.0,35,120.0
2037,E5,617.5,0.5,50,120.0
2038,F#5,618.0,0.5,55,120.0
2039,B2,618.0,1.0,50,120.0
2040,B4,618.5,2.5,50,120.0
2041,D4,619.0,1.0,28,120.0
2042,B3,619.0,1.0,28,120.0
2043,F#3,619.0,1.0,28,120.0
2044,D4,620.0,1.0,28,120.0
2045,B3,620.0,1.0,28,120.0
2046,F#3,620.0,1.0,28,120.0
2047,C#5,621.0,0.5,58,120.0
2048,B2,621.0,1.0,50,120.0
2049,E5,621.5,0.5,50,120.0
2050,D5,622.0,0.125,50,120.0
2051,E4,622.0,1.0,36,120.0
2052,B-3,622.0,1.0,36,120.0
2053,F#3,622.0,1.0,36,120.0
2054,E5,622.125,0.125,50,120.0
2055,D5,622.25,0.75,57,120.0
2056,C#5,623.0,1.0,53,120.0
2057,E4,623.0,1.0,35,120.0
2058,B-3,623.0,1.0,35,120.0
2059,F#3,623.0,1.0,35,120.0
2060,D5,624.0,0.5,55,120.0
2061,B2,624.0,1.0,50,120.0
2062,B4,624.5,1.5,50,120.0
2063,D4,625.0,1.0,28,120.0
2064,B3,625.0,1.0,28,120.0
2065,F#3,625.0,1.0,28,120.0
2066,D3,626.0,1.0,66,120.0
2067,D3,627.0,0.5,66,120.0
2068,B3,627.0,1.0,40,120.0
2069,F4,627.0,1.0,40,120.0
2070,G3,627.5,0.5,58,120.0
2071,E3,628.0,333/1000,65,120.0
2072,C4,628.0,1.0,36,120.0
2073,E4,628.0,1.0,36,120.0
2074,F3,628.333,333/1000,57,120.0
2075,E3,628.667,333/1000,55,120.0
2076,D3,629.0,0.5,63,120.0
2077,C4,629.0,1.0,36,120.0
2078,E4,629.0,1.0,36,120.0
2079,C3,629.5,0.5,57,120.0
2080,D3,630.0,0.75,64,120.0
2081,G3,630.0,1.0,43,120.0
2082,B3,630.0,1.0,43,120.0
2083,F4,630.0,1.0,43,120.0
2084,G2,630.75,0.25,55,120.0
2085,D3,631.0,1.0,64,120.0
2086,G3,631.0,1.0,35,120.0
2087,B3,631.0,1.0,35,120.0
2088,F4,631.0,1.0,35,120.0
2089,C3,632.0,1.0,59,120.0
2090,C4,632.0,1.0,36,120.0
2091,E4,632.0,1.0,36,120.0
2092,D3,633.0,0.5,66,120.0
2093,B3,633.0,1.0,40,120.0
2094,F4,633.0,1.0,40,120.0
2095,G3,633.5,0.5,58,120.0
2096,E3,634.0,333/1000,65,120.0
2097,C4,634.0,1.0,36,120.0
2098,E4,634.0,1.0,36,120.0
2099,F3,634.333,333/1000,57,120.0
2100,E3,634.667,333/1000,55,120.0
2101,D3,635.0,0.5,63,120.0
2102,C4,635.0,1.0,36,120.0
2103,E4,635.0,1.0,36,120.0
2104,C3,635.5,0.5,57,120.0
2105,D3,636.0,0.75,64,120.0
2106,G3,636.0,1.0,43,120.0
2107,B3,636.0,1.0,43,120.0
2108,F4,636.0,1.0,43,120.0
2109,G2,636.75,0.25,54,120.0
2110,D3,637.0,1.0,62,120.0
2111,G3,637.0,1.0,34,120.0
2112,B3,637.0,1.0,34,120.0
2113,F4,637.0,1.0,34,120.0
2114,C3,638.0,1.0,56,120.0
2115,C4,638.0,1.0,34,120.0
2116,E4,638.0,1.0,34,120.0
2117,D3,639.0,0.75,60,120.0
2118,G3,639.0,1.0,40,120.0
2119,B3,639.0,1.0,40,120.0
2120,F4,639.0,1.0,40,120.0
2121,G2,639.75,0.25,51,120.0
2122,C3,640.0,1.0,58,120.0
2123,C4,640.0,1.0,32,120.0
2124,E4,640.0,1.0,32,120.0
2125,D3,641.0,0.75,57,120.0
2126,G3,641.0,1.0,38,120.0
2127,B3,641.0,1.0,38,120.0
2128,F4,641.0,1.0,38,120.0
2129,G2,641.75,0.25,48,120.0
2130,C3,642.0,1.0,56,120.0
2131,C4,642.0,1.0,29,120.0
2132,E4,642.0,1.0,29,120.0
2133,D3,643.0,0.75,55,120.0
2134,G3,643.0,1.0,36,120.0
2135,B3,643.0,1.0,36,120.0
2136,F4,643.0,1.0,36,120.0
2137,G2,643.75,0.25,46,120.0
2138,C3,644.0,1.0,53,120.0
2139,C4,644.0,1.0,30,120.0
2140,E4,644.0,1.0,30,120.0
2141,D3,645.0,0.75,54,120.0
2142,G3,645.0,1.0,35,120.0
2143,B3,645.0,1.0,35,120.0
2144,F4,645.0,1.0,35,120.0
2145,G2,645.75,0.25,45,120.0
2146,D3,646.0,1.0,51,120.0
2147,G3,646.0,1.0,27,120.0
2148,B3,646.0,1.0,27,120.0
2149,F4,646.0,1.0,27,120.0
2150,C3,647.0,1.0,45,120.0
2151,C4,647.0,1.0,26,120.0
2152,E4,647.0,1.0,26,120.0
2153,D3,648.0,0.75,50,120.0
2154,G3,648.0,1.0,33,120.0
2155,B3,648.0,1.0,33,120.0
2156,F4,648.0,1.0,33,120.0
2157,G2,648.75,0.25,41,120.0
2158,D3,649.0,1.0,46,120.0
2159,G3,649.0,1.0,25,120.0
2160,B3,649.0,1.0,25,120.0
2161,F4,649.0,1.0,25,120.0
2162,C3,650.0,1.0,41,120.0
2163,C4,650.0,1.0,24,120.0
2164,E4,650.0,1.0,24,120.0
2165,G4,651.0,3.0,40,120.0
2166,C4,654.0,3.0,45,120.0
2167,G4,657.0,3.0,40,120.0
2168,C4,660.0,3.0,45,120.0
2169,G4,663.0,3.0,41,120.0
2170,G4,666.0,299/100,41,120.0
2171,G4,669.0,1.0,54,120.0
2172,C4,670.0,1.5,59,120.0
2173,B3,671.5,0.5,52,120.0
2174,F#2,672.0,1.0,44,120.0
2175,E3,672.0,0.75,56,120.0
2176,B-3,672.0,0.75,56,120.0
2177,C#4,672.0,0.75,56,120.0
2178,F#3,672.75,1.25,45,120.0
2179,F#2,673.0,1.0,39,120.0
2180,E3,673.0,1.0,55,120.0
2181,B-3,673.0,1.0,55,120.0
2182,C#4,673.0,1.0,55,120.0
2183,D3,674.0,1.0,50,120.0
2184,F#3,674.0,1.0,50,120.0
2185,B3,674.0,1.0,50,120.0
2186,B1,674.0,1.0,40,120.0
2187,B2,674.0,1.0,40,120.0
