,note_name,start_time,duration,velocity,tempo
0,E-4,0.002,0.25,56,129.54
1,B3,0.002,373/1000,48,129.54
2,G#3,0.002,373/1000,48,129.54
3,E-3,0.002,373/1000,48,129.54
4,G#2,0.002,373/1000,48,129.54
5,E4,0.25,0.125,42,129.54
6,B3,0.5,0.375,43,129.54
7,E4,0.5,0.25,51,129.54
8,G#2,0.5,0.125,33,129.54
9,G#1,0.5,0.125,33,129.54
10,F4,0.75,0.125,43,129.54
11,F4,1.0,0.25,52,129.54
12,B3,1.0,0.375,44,129.54
13,E-4,1.0,0.375,44,129.54
14,E-2,1.0,0.125,33,129.54
15,E-3,1.0,0.125,33,129.54
16,F#4,1.25,0.125,44,129.54
17,F#4,1.5,0.25,53,129.54
18,B3,1.5,0.375,44,129.54
19,E-4,1.5,0.375,44,129.54
20,E-3,1.5,0.375,39,129.54
21,G#2,1.5,0.375,39,129.54
22,G#3,1.5,0.375,39,129.54
23,G4,1.75,0.125,46,129.54
24,G4,2.0,0.25,56,129.54
25,B3,2.0,0.375,47,129.54
26,E-4,2.0,0.375,47,129.54
27,G#1,2.0,0.125,36,129.54
28,G#2,2.0,0.125,36,129.54
29,G#4,2.25,0.125,47,129.54
30,G#4,2.5,0.25,57,129.54
31,B3,2.5,0.375,48,129.54
32,E-4,2.5,0.375,48,129.54
33,E-2,2.5,0.125,36,129.54
34,E-3,2.5,0.125,36,129.54
35,A4,2.75,0.125,48,129.54
36,E-4,3.0,0.375,50,129.54
37,A4,3.0,0.25,59,129.54
38,B3,3.0,0.375,44,129.54
39,E-3,3.0,0.375,44,129.54
40,G#3,3.0,0.375,44,129.54
41,B-4,3.25,0.125,52,129.54
42,E-4,3.5,0.375,52,129.54
43,B-4,3.5,0.25,61,129.54
44,G#1,3.5,0.125,40,129.54
45,G#2,3.5,0.125,40,129.54
46,B4,3.75,0.125,54,129.54
47,B4,4.0,0.25,66,129.54
48,E-4,4.0,0.375,60,129.54
49,G#4,4.0,0.375,60,129.54
50,E-2,4.0,0.125,42,129.54
51,E-3,4.0,0.125,42,129.54
52,C5,4.25,0.125,56,129.54
53,C5,4.5,0.25,69,129.54
54,G#4,4.5,0.375,58,129.54
55,E-4,4.5,0.375,58,129.54
56,B3,4.5,0.375,51,129.54
57,E-3,4.5,0.375,51,129.54
58,G#3,4.5,0.375,51,129.54
59,C#5,4.75,0.125,59,129.54
60,C#5,5.0,0.25,71,129.54
61,E-4,5.0,0.375,61,129.54
62,G#4,5.0,0.375,61,129.54
63,G#1,5.0,0.125,46,129.54
64,G#2,5.0,0.125,46,129.54
65,D5,5.25,0.125,62,129.54
66,D5,5.5,0.25,75,129.54
67,E-4,5.5,0.375,62,129.54
68,G#4,5.5,0.375,62,129.54
69,E-3,5.5,0.125,48,129.54
70,E-2,5.5,0.125,48,129.54
71,E-5,5.75,0.125,66,129.54
72,E-5,6.0,0.25,81,129.54
73,E-4,6.0,0.375,68,129.54
74,B-4,6.0,0.375,68,129.54
75,E-3,6.0,0.125,52,129.54
76,B-3,6.0,0.125,52,129.54
77,E5,6.25,0.125,77,129.54
78,B-4,6.5,0.375,69,129.54
79,E5,6.5,0.25,82,129.54
80,G2,6.5,0.125,52,129.54
81,E-3,6.5,0.125,52,129.54
82,E-5,6.75,0.125,78,129.54
83,E-5,7.0,0.25,84,129.54
84,E-4,7.0,0.375,70,129.54
85,B-4,7.0,0.375,70,129.54
86,E-3,7.0,0.125,54,129.54
87,B-3,7.0,0.125,54,129.54
88,C#5,7.25,0.125,84,129.54
89,C#5,7.5,0.25,82,129.54
90,E-4,7.5,0.375,69,129.54
91,G#4,7.5,0.375,69,129.54
92,G#2,7.5,0.125,52,129.54
93,E-3,7.5,0.125,52,129.54
94,B4,7.75,0.125,79,129.54
95,B4,8.0,0.25,83,129.54
96,E-4,8.0,0.375,70,129.54
97,G#4,8.0,0.375,70,129.54
98,B3,8.0,0.125,52,129.54
99,E-3,8.0,0.125,52,129.54
100,C#5,8.25,0.125,79,129.54
101,C#5,8.5,0.25,85,129.54
102,E-4,8.5,0.375,72,129.54
103,G#4,8.5,0.375,72,129.54
104,G#2,8.5,0.125,54,129.54
105,E-3,8.5,0.125,54,129.54
106,E-5,8.75,0.125,86,129.54
107,E-5,9.0,0.25,87,129.54
108,E4,9.0,0.375,73,129.54
109,G#4,9.0,0.375,73,129.54
110,G#3,9.0,0.125,55,129.54
111,C#3,9.0,0.125,55,129.54
112,C#5,9.25,0.125,86,129.54
113,C#5,9.5,0.25,84,129.54
114,E4,9.5,0.375,71,129.54
115,G#4,9.5,0.375,71,129.54
116,C#2,9.5,0.125,54,129.54
117,C#3,9.5,0.125,54,129.54
118,B4,9.75,0.125,83,129.54
119,B4,10.0,0.25,81,129.54
120,C#4,10.0,0.375,68,129.54
121,E4,10.0,0.375,68,129.54
122,C#3,10.0,0.125,52,129.54
123,G#3,10.0,0.125,52,129.54
124,B-4,10.25,0.125,80,129.54
125,C#4,10.5,0.5,79,129.54
126,E-3,10.5,0.125,46,129.54
127,G3,10.5,0.125,46,129.54
128,B4,10.75,0.25,69,129.54
129,B4,11.0,0.25,66,129.54
130,C#4,11.0,0.5,55,129.54
131,E-2,11.0,0.125,42,129.54
132,E-3,11.0,0.125,42,129.54
133,B-4,11.25,0.25,62,129.54
134,B-4,11.5,0.25,57,129.54
135,C#4,11.5,0.5,48,129.54
136,E-3,11.5,0.125,37,129.54
137,G3,11.5,0.125,37,129.54
138,E-4,11.75,0.25,54,129.54
139,B3,12.0,0.375,45,129.54
140,E-4,12.0,0.25,53,129.54
141,G#2,12.0,0.375,40,129.54
142,E-3,12.0,0.375,40,129.54
143,G#3,12.0,0.375,40,129.54
144,E4,12.25,0.125,45,129.54
145,B3,12.5,0.375,45,129.54
146,E4,12.5,0.25,54,129.54
147,G#1,12.5,0.125,34,129.54
148,G#2,12.5,0.125,34,129.54
149,F4,12.75,0.125,45,129.54
150,F4,13.0,0.25,55,129.54
151,B3,13.0,0.375,46,129.54
152,E-4,13.0,0.375,46,129.54
153,E-2,13.0,0.125,36,129.54
154,E-3,13.0,0.125,36,129.54
155,F#4,13.25,0.125,47,129.54
156,F#4,13.5,0.25,57,129.54
157,B3,13.5,0.375,47,129.54
158,E-4,13.5,0.375,47,129.54
159,G#2,13.5,0.375,42,129.54
160,E-3,13.5,0.375,42,129.54
161,G#3,13.5,0.375,42,129.54
162,G4,13.75,0.125,48,129.54
163,G4,14.0,0.25,58,129.54
164,B3,14.0,0.375,49,129.54
165,E-4,14.0,0.375,49,129.54
166,G#2,14.0,0.125,38,129.54
167,G#1,14.0,0.125,38,129.54
168,G#4,14.25,0.125,50,129.54
169,G#4,14.5,0.25,60,129.54
170,B3,14.5,0.375,50,129.54
171,E-4,14.5,0.375,50,129.54
172,E-2,14.5,0.125,38,129.54
173,E-3,14.5,0.125,38,129.54
174,A4,14.75,0.125,50,129.54
175,A4,15.0,0.25,62,129.54
176,B3,15.0,0.375,52,129.54
177,E4,15.0,0.375,52,129.54
178,G2,15.0,0.375,46,129.54
179,E3,15.0,0.375,46,129.54
180,G3,15.0,0.375,46,129.54
181,B-4,15.25,0.125,54,129.54
182,B-4,15.5,0.25,64,129.54
183,B3,15.5,0.375,54,129.54
184,E4,15.5,0.375,54,129.54
185,G2,15.5,0.125,42,129.54
186,G1,15.5,0.125,42,129.54
187,B4,15.75,0.125,56,129.54
188,B4,16.0,0.25,68,129.54
189,B3,16.0,0.375,62,129.54
190,E4,16.0,0.375,62,129.54
191,E2,16.0,0.125,44,129.54
192,E3,16.0,0.125,44,129.54
193,C5,16.25,0.125,59,129.54
194,F4,16.5,0.375,62,129.54
195,C5,16.5,0.25,73,129.54
196,G3,16.5,0.375,55,129.54
197,D3,16.5,0.375,55,129.54
198,B3,16.5,0.375,55,129.54
199,C#5,16.75,0.125,69,129.54
200,F4,17.0,0.375,64,129.54
201,C#5,17.0,0.25,76,129.54
202,G1,17.0,0.125,48,129.54
203,G2,17.0,0.125,48,129.54
204,D5,17.25,0.125,71,129.54
205,F4,17.5,0.375,73,129.54
206,B4,17.5,0.375,73,129.54
207,G2,17.5,0.125,51,129.54
208,G3,17.5,0.125,51,129.54
209,D5,17.75,0.125,75,129.54
210,E-5,18.0,0.25,90,129.54
211,F#4,18.0,0.375,76,129.54
212,B4,18.0,0.375,76,129.54
213,F#3,18.0,0.125,56,129.54
214,F#2,18.0,0.125,56,129.54
215,E5,18.25,0.125,85,129.54
216,E5,18.5,0.25,89,129.54
217,F#4,18.5,0.375,75,129.54
218,B4,18.5,0.375,75,129.54
219,F#3,18.5,0.125,55,129.54
220,E-4,18.5,0.125,55,129.54
221,E-5,18.75,0.125,87,129.54
222,E-5,19.0,0.25,90,129.54
223,F#4,19.0,0.375,76,129.54
224,B4,19.0,0.375,76,129.54
225,F#3,19.0,0.125,56,129.54
226,F#2,19.0,0.125,56,129.54
227,F#5,19.25,0.125,88,129.54
228,F#5,19.5,0.25,90,129.54
229,F#4,19.5,0.375,76,129.54
230,B-4,19.5,0.375,76,129.54
231,F#3,19.5,0.125,56,129.54
232,E4,19.5,0.125,56,129.54
233,C#5,19.75,0.125,85,129.54
234,C#5,20.0,0.25,89,129.54
235,F#4,20.0,0.375,75,129.54
236,B-4,20.0,0.375,75,129.54
237,F#2,20.0,0.125,55,129.54
238,F#3,20.0,0.125,55,129.54
239,E-5,20.25,0.125,87,129.54
240,E-5,20.5,0.25,90,129.54
241,F#4,20.5,0.375,76,129.54
242,B-4,20.5,0.375,76,129.54
243,F#3,20.5,0.125,56,129.54
244,E4,20.5,0.125,56,129.54
245,E5,20.75,0.125,88,129.54
246,E5,21.0,0.25,81,129.54
247,F#4,21.0,0.375,68,129.54
248,B4,21.0,0.375,68,129.54
249,F#2,21.0,0.125,50,129.54
250,F#3,21.0,0.125,50,129.54
251,E-5,21.25,0.125,75,129.54
252,E-5,21.5,0.25,78,129.54
253,F#4,21.5,0.375,66,129.54
254,B4,21.5,0.375,66,129.54
255,F#3,21.5,0.125,48,129.54
256,E-4,21.5,0.125,48,129.54
257,G#5,21.75,0.125,75,129.54
258,F#4,22.0,0.375,64,129.54
259,G#5,22.0,0.25,76,129.54
260,F#2,22.0,0.125,47,129.54
261,F#3,22.0,0.125,47,129.54
262,F#5,22.25,0.125,73,129.54
263,F#5,22.5,0.25,74,129.54
264,F#4,22.5,0.375,63,129.54
265,B-4,22.5,0.375,63,129.54
266,E4,22.5,0.125,46,129.54
267,F#3,22.5,0.125,46,129.54
268,C#5,22.75,0.125,69,129.54
269,C#5,23.0,0.25,71,129.54
270,E4,23.0,0.375,60,129.54
271,B-4,23.0,0.375,60,129.54
272,F#2,23.0,0.125,44,129.54
273,F#3,23.0,0.125,44,129.54
274,E-5,23.25,0.125,68,129.54
275,E-5,23.5,0.25,70,129.54
276,E4,23.5,0.375,59,129.54
277,B-4,23.5,0.375,59,129.54
278,C#4,23.5,0.125,44,129.54
279,F#3,23.5,0.125,44,129.54
280,E5,23.75,0.125,67,129.54
281,E5,24.0,0.25,72,129.54
282,E-4,24.0,0.375,60,129.54
283,B4,24.0,0.375,60,129.54
284,B2,24.0,0.125,44,129.54
285,F#3,24.0,0.125,44,129.54
286,E-5,24.25,0.125,68,129.54
287,E-4,24.5,0.375,61,129.54
288,E-5,24.5,0.25,72,129.54
289,B2,24.5,0.125,43,129.54
290,F#3,24.5,0.125,43,129.54
291,B3,24.5,0.125,43,129.54
292,B4,24.75,0.125,72,129.54
293,E4,25.0,0.375,64,129.54
294,B4,25.0,0.25,76,129.54
295,B3,25.0,0.125,46,129.54
296,B2,25.0,0.125,46,129.54
297,G3,25.0,0.125,46,129.54
298,G4,25.25,0.125,75,129.54
299,E-4,25.5,0.375,66,129.54
300,G4,25.5,0.25,78,129.54
301,B3,25.5,0.125,48,129.54
302,B2,25.5,0.125,48,129.54
303,F#3,25.5,0.125,48,129.54
304,F#4,25.75,0.125,74,129.54
305,E-4,26.0,0.375,67,129.54
306,F#4,26.0,0.25,80,129.54
307,B2,26.0,0.125,48,129.54
308,F#3,26.0,0.125,48,129.54
309,B3,26.0,0.125,48,129.54
310,B4,26.25,0.125,75,129.54
311,E4,26.5,0.375,69,129.54
312,B4,26.5,0.25,82,129.54
313,G3,26.5,0.125,49,129.54
314,B2,26.5,0.125,49,129.54
315,B3,26.5,0.125,49,129.54
316,G4,26.75,0.125,78,129.54
317,E-4,27.0,0.375,72,129.54
318,F#4,27.0,0.25,85,129.54
319,B3,27.0,0.125,51,129.54
320,B2,27.0,0.125,51,129.54
321,F#3,27.0,0.125,51,129.54
322,B4,27.25,0.125,81,129.54
323,E4,27.5,0.375,72,129.54
324,B4,27.5,0.25,86,129.54
325,E3,27.5,0.125,51,129.54
326,G3,27.5,0.125,51,129.54
327,B3,27.5,0.125,51,129.54
328,G4,27.75,0.125,85,129.54
329,E-4,28.0,0.375,76,129.54
330,F#4,28.0,0.25,90,129.54
331,B2,28.0,0.125,54,129.54
332,F#3,28.0,0.125,54,129.54
333,B3,28.0,0.125,54,129.54
334,B4,28.25,0.125,88,129.54
335,E4,28.5,0.375,77,129.54
336,B4,28.5,0.25,91,129.54
337,G3,28.5,0.125,55,129.54
338,E3,28.5,0.125,55,129.54
339,B3,28.5,0.125,55,129.54
340,G4,28.75,0.125,87,129.54
341,D4,29.0,0.375,78,129.54
342,F#4,29.0,0.25,93,129.54
343,B3,29.0,0.125,56,129.54
344,B2,29.0,0.125,56,129.54
345,F#3,29.0,0.125,56,129.54
346,B4,29.25,0.125,92,129.54
347,E4,29.5,0.375,81,129.54
348,B4,29.5,0.25,96,129.54
349,E3,29.5,0.125,57,129.54
350,G3,29.5,0.125,57,129.54
351,B3,29.5,0.125,57,129.54
352,G4,29.75,0.125,95,129.54
353,B4,30.0,1.5,92,129.54
354,E4,30.0,0.25,84,129.54
355,G4,30.0,0.25,84,129.54
356,B2,30.0,0.5,64,129.54
357,F#3,30.0,0.5,64,129.54
358,B3,30.0,0.5,64,129.54
359,D4,30.25,0.25,80,129.54
360,F#4,30.25,0.25,80,129.54
361,G4,30.438,0.062,72,129.54
362,D4,30.5,0.25,84,129.54
363,F#4,30.5,0.25,84,129.54
364,B1,30.5,0.125,61,129.54
365,B2,30.5,0.125,61,129.54
366,C#4,30.75,0.25,78,129.54
367,E4,30.75,0.25,78,129.54
368,B2,31.0,0.5,56,129.54
369,F#3,31.0,0.5,66,129.54
370,D4,31.0,0.5,84,129.54
371,F#4,31.0,0.5,84,129.54
372,B4,31.5,1.5,92,129.54
373,B2,31.5,0.5,56,129.54
374,E4,31.5,0.25,80,129.54
375,G4,31.5,0.25,80,129.54
376,B3,31.5,0.5,62,129.54
377,F#3,31.5,0.5,62,129.54
378,D4,31.75,0.25,76,129.54
379,F#4,31.75,0.25,76,129.54
380,G4,31.938,0.062,71,129.54
381,D4,32.0,0.25,80,129.54
382,F#4,32.0,0.25,80,129.54
383,B1,32.0,0.125,58,129.54
384,B2,32.0,0.125,58,129.54
385,C#4,32.25,0.25,74,129.54
386,E4,32.25,0.25,74,129.54
387,D4,32.5,0.5,80,129.54
388,F#4,32.5,0.5,80,129.54
389,F#3,32.5,0.5,58,129.54
390,B2,32.5,0.5,58,129.54
391,G#4,33.0,0.375,61,129.54
392,D4,33.0,0.25,66,129.54
393,B4,33.0,0.25,66,129.54
394,E3,33.0,0.25,59,129.54
395,B3,33.0,0.25,59,129.54
396,E4,33.25,0.125,66,129.54
397,C5,33.25,0.125,66,129.54
398,G#4,33.5,0.375,61,129.54
399,E4,33.5,0.25,66,129.54
400,C5,33.5,0.25,66,129.54
401,E2,33.5,0.25,59,129.54
402,E3,33.5,0.25,59,129.54
403,D4,33.75,0.125,66,129.54
404,B4,33.75,0.125,66,129.54
405,G#4,34.0,0.375,61,129.54
406,D4,34.0,0.25,66,129.54
407,B4,34.0,0.25,66,129.54
408,B3,34.0,0.25,59,129.54
409,E3,34.0,0.25,59,129.54
410,E4,34.25,0.125,66,129.54
411,C5,34.25,0.125,66,129.54
412,A4,34.5,1.5,87,129.54
413,D4,34.5,0.25,80,129.54
414,F4,34.5,0.25,80,129.54
415,A2,34.5,0.5,61,129.54
416,E3,34.5,0.5,61,129.54
417,A3,34.5,0.5,61,129.54
418,C4,34.75,0.25,76,129.54
419,E4,34.75,0.25,76,129.54
420,F4,34.938,0.062,63,129.54
421,C4,35.0,0.25,80,129.54
422,E4,35.0,0.25,80,129.54
423,A1,35.0,0.125,58,129.54
424,A2,35.0,0.125,58,129.54
425,B3,35.25,0.25,74,129.54
426,D4,35.25,0.25,74,129.54
427,A2,35.5,0.5,53,129.54
428,E3,35.5,0.5,62,129.54
429,C4,35.5,0.5,80,129.54
430,E4,35.5,0.5,80,129.54
431,A4,36.0,1.5,84,129.54
432,A2,36.0,0.5,53,129.54
433,D4,36.0,0.25,76,129.54
434,F4,36.0,0.25,76,129.54
435,E3,36.0,0.5,59,129.54
436,A3,36.0,0.5,59,129.54
437,C4,36.25,0.25,72,129.54
438,E4,36.25,0.25,72,129.54
439,F4,36.438,0.062,59,129.54
440,C4,36.5,0.25,76,129.54
441,E4,36.5,0.25,76,129.54
442,A2,36.5,0.125,54,129.54
443,A1,36.5,0.125,54,129.54
444,B3,36.75,0.25,70,129.54
445,D4,36.75,0.25,70,129.54
446,A2,37.0,0.5,50,129.54
447,E3,37.0,0.5,58,129.54
448,C4,37.0,0.5,76,129.54
449,E4,37.0,0.5,76,129.54
450,A4,37.5,1.5,84,129.54
451,A2,37.5,0.5,50,129.54
452,D4,37.5,0.25,76,129.54
453,F4,37.5,0.25,76,129.54
454,A3,37.5,0.5,59,129.54
455,E3,37.5,0.5,59,129.54
456,C4,37.75,0.25,72,129.54
457,E4,37.75,0.25,72,129.54
458,F4,37.938,0.062,59,129.54
459,C4,38.0,0.25,76,129.54
460,E4,38.0,0.25,76,129.54
461,A1,38.0,0.125,54,129.54
462,A2,38.0,0.125,54,129.54
463,B3,38.25,0.25,70,129.54
464,D4,38.25,0.25,70,129.54
465,C4,38.5,0.5,76,129.54
466,E4,38.5,0.5,76,129.54
467,E3,38.5,0.25,54,129.54
468,A2,38.5,0.25,54,129.54
469,F#4,39.0,0.375,61,129.54
470,C4,39.0,0.25,66,129.54
471,A4,39.0,0.25,66,129.54
472,A3,39.0,0.25,59,129.54
473,D3,39.0,0.25,59,129.54
474,D4,39.25,0.125,66,129.54
475,B4,39.25,0.125,66,129.54
476,F#4,39.5,0.375,61,129.54
477,D4,39.5,0.25,66,129.54
478,B4,39.5,0.25,66,129.54
479,D2,39.5,0.25,59,129.54
480,D3,39.5,0.25,59,129.54
481,C4,39.75,0.125,66,129.54
482,A4,39.75,0.125,66,129.54
483,F#4,40.0,0.375,61,129.54
484,C4,40.0,0.25,66,129.54
485,A4,40.0,0.25,66,129.54
486,A3,40.0,0.25,59,129.54
487,D3,40.0,0.25,59,129.54
488,D4,40.25,0.125,66,129.54
489,B4,40.25,0.125,66,129.54
490,G4,40.5,1.5,78,129.54
491,C4,40.5,0.25,72,129.54
492,E4,40.5,0.25,72,129.54
493,G2,40.5,0.5,54,129.54
494,D3,40.5,0.5,54,129.54
495,G3,40.5,0.5,54,129.54
496,B3,40.75,0.25,68,129.54
497,D4,40.75,0.25,68,129.54
498,E4,40.938,0.062,56,129.54
499,B3,41.0,0.25,72,129.54
500,D4,41.0,0.25,72,129.54
501,G1,41.0,0.125,51,129.54
502,G2,41.0,0.125,51,129.54
503,A3,41.25,0.25,66,129.54
504,C4,41.25,0.25,66,129.54
505,B3,41.5,0.5,72,129.54
506,D4,41.5,0.5,72,129.54
507,G2,41.5,0.25,51,129.54
508,G3,41.5,0.25,51,129.54
509,E4,42.0,0.375,37,129.54
510,G4,42.0,0.25,44,129.54
511,C3,42.0,0.125,35,129.54
512,G3,42.0,0.125,35,129.54
513,A4,42.25,0.125,45,129.54
514,E4,42.5,0.375,40,129.54
515,A4,42.5,0.25,49,129.54
516,C4,42.5,0.125,34,129.54
517,C3,42.5,0.125,34,129.54
518,G3,42.5,0.125,34,129.54
519,B4,42.75,0.125,51,129.54
520,E4,43.0,0.375,45,129.54
521,B4,43.0,0.25,54,129.54
522,C3,43.0,0.125,37,129.54
523,G3,43.0,0.125,37,129.54
524,C4,43.0,0.125,37,129.54
525,C5,43.25,0.125,57,129.54
526,E4,43.5,0.375,51,129.54
527,C5,43.5,0.25,61,129.54
528,C3,43.5,0.125,46,129.54
529,G3,43.5,0.125,46,129.54
530,C4,43.5,0.125,46,129.54
531,D5,43.75,0.125,63,129.54
532,D5,44.0,0.25,66,129.54
533,E4,44.0,0.375,55,129.54
534,A4,44.0,0.375,55,129.54
535,C4,44.0,0.125,46,129.54
536,C3,44.0,0.125,46,129.54
537,F#3,44.0,0.125,46,129.54
538,E5,44.25,0.125,69,129.54
539,E5,44.5,0.25,72,129.54
540,E4,44.5,0.375,60,129.54
541,A4,44.5,0.375,60,129.54
542,B3,44.5,0.125,50,129.54
543,B2,44.5,0.125,50,129.54
544,F#3,44.5,0.125,50,129.54
545,D4,44.75,0.125,62,129.54
546,D5,44.75,0.125,62,129.54
547,E4,45.0,0.375,39,129.54
548,G4,45.0,0.25,47,129.54
549,E3,45.0,0.125,37,129.54
550,B3,45.0,0.125,37,129.54
551,A4,45.25,0.125,48,129.54
552,E4,45.5,0.375,41,129.54
553,A4,45.5,0.25,50,129.54
554,G3,45.5,0.125,35,129.54
555,C3,45.5,0.125,35,129.54
556,C4,45.5,0.125,35,129.54
557,B4,45.75,0.125,51,129.54
558,E4,46.0,0.375,45,129.54
559,B4,46.0,0.25,54,129.54
560,C4,46.0,0.125,37,129.54
561,C3,46.0,0.125,37,129.54
562,G3,46.0,0.125,37,129.54
563,C5,46.25,0.125,55,129.54
564,E4,46.5,0.375,48,129.54
565,C5,46.5,0.25,57,129.54
566,C3,46.5,0.125,44,129.54
567,G3,46.5,0.125,44,129.54
568,C4,46.5,0.125,44,129.54
569,D5,46.75,0.125,58,129.54
570,D5,47.0,0.25,61,129.54
571,F#3,47.0,1.0,39,129.54
572,E4,47.0,0.375,51,129.54
573,A4,47.0,0.375,51,129.54
574,C3,47.0,0.125,44,129.54
575,C4,47.0,0.125,44,129.54
576,E5,47.25,0.125,63,129.54
577,A4,47.5,0.375,54,129.54
578,E5,47.5,0.25,64,129.54
579,B3,47.5,0.125,46,129.54
580,B2,47.5,0.125,46,129.54
581,F#5,47.75,0.125,66,129.54
582,E-5,47.75,0.125,66,129.54
583,G4,48.0,0.25,60,129.54
584,E5,48.0,0.25,60,129.54
585,G5,48.0,0.25,60,129.54
586,E3,48.0,0.25,47,129.54
587,B3,48.0,0.25,47,129.54
588,A4,48.5,0.375,56,129.54
589,E5,48.5,0.25,62,129.54
590,G5,48.5,0.25,62,129.54
591,B3,48.5,0.375,45,129.54
592,B2,48.5,0.375,45,129.54
593,E-5,48.75,0.125,59,129.54
594,F#5,48.75,0.125,59,129.54
595,G4,49.0,0.375,56,129.54
596,E-5,49.0,0.25,62,129.54
597,F#5,49.0,0.25,62,129.54
598,E3,49.0,0.375,45,129.54
599,B3,49.0,0.375,45,129.54
600,E5,49.25,0.125,60,129.54
601,G5,49.25,0.125,60,129.54
602,A4,49.5,0.375,58,129.54
603,E5,49.5,0.25,64,129.54
604,G5,49.5,0.25,64,129.54
605,B2,49.5,0.375,47,129.54
606,B3,49.5,0.375,47,129.54
607,E-5,49.75,0.125,64,129.54
608,F#5,49.75,0.125,64,129.54
609,G4,50.0,0.375,62,129.54
610,E-5,50.0,0.25,68,129.54
611,F#5,50.0,0.25,68,129.54
612,E3,50.0,0.375,50,129.54
613,B3,50.0,0.375,50,129.54
614,E5,50.25,0.125,66,129.54
615,G5,50.25,0.125,66,129.54
616,G4,50.5,0.25,68,129.54
617,G5,50.5,0.25,68,129.54
618,E5,50.5,0.25,68,129.54
619,B3,50.5,0.375,52,129.54
620,B2,50.5,0.375,52,129.54
621,F5,50.75,0.125,66,129.54
622,G#5,50.75,0.125,66,129.54
623,G#4,50.75,0.125,66,129.54
624,G#4,51.0,0.25,68,129.54
625,G#5,51.0,0.25,68,129.54
626,F5,51.0,0.25,68,129.54
627,B2,51.0,0.375,52,129.54
628,B1,51.0,0.375,52,129.54
629,F#5,51.25,0.125,66,129.54
630,A5,51.25,0.125,66,129.54
631,A4,51.25,0.125,66,129.54
632,A4,51.5,0.25,69,129.54
633,A5,51.5,0.25,69,129.54
634,F#5,51.5,0.25,69,129.54
635,B3,51.5,0.375,50,129.54
636,D4,51.5,0.375,50,129.54
637,F3,51.5,0.375,50,129.54
638,F5,51.75,0.125,67,129.54
639,G#5,51.75,0.125,67,129.54
640,G#4,51.75,0.125,67,129.54
641,G#4,52.0,0.25,71,129.54
642,G#5,52.0,0.25,71,129.54
643,F5,52.0,0.25,71,129.54
644,E-4,52.0,0.375,52,129.54
645,B3,52.0,0.375,52,129.54
646,F#3,52.0,0.375,52,129.54
647,F#5,52.25,0.125,69,129.54
648,A5,52.25,0.125,69,129.54
649,A4,52.25,0.125,69,129.54
650,A4,52.5,0.25,73,129.54
651,A5,52.5,0.25,73,129.54
652,F#5,52.5,0.25,73,129.54
653,F3,52.5,0.375,53,129.54
654,B3,52.5,0.375,53,129.54
655,D4,52.5,0.375,53,129.54
656,F5,52.75,0.125,70,129.54
657,G#5,52.75,0.125,70,129.54
658,G#4,52.75,0.125,70,129.54
659,G#4,53.0,0.25,75,129.54
660,G#5,53.0,0.25,75,129.54
661,F5,53.0,0.25,75,129.54
662,B3,53.0,0.375,54,129.54
663,E-4,53.0,0.375,54,129.54
664,F#3,53.0,0.375,54,129.54
665,F#5,53.25,0.125,72,129.54
666,A5,53.25,0.125,72,129.54
667,A4,53.25,0.125,72,129.54
668,F#5,53.5,0.375,71,129.54
669,A4,53.5,0.25,78,129.54
670,A5,53.5,0.25,78,129.54
671,B2,53.5,0.375,57,129.54
672,B1,53.5,0.375,57,129.54
673,B-5,53.75,0.125,76,129.54
674,B-4,53.75,0.125,76,129.54
675,B-4,54.0,0.5,78,129.54
676,F#5,54.0,0.5,78,129.54
677,B-5,54.0,0.5,78,129.54
678,B-1,54.0,0.5,61,129.54
679,B-2,54.0,0.5,61,129.54
680,F#5,54.5,0.25,70,129.54
681,B-4,54.5,0.375,76,129.54
682,B-5,54.5,0.375,76,129.54
683,F#3,54.5,0.375,52,129.54
684,B-3,54.5,0.375,52,129.54
685,E-4,54.5,0.375,52,129.54
686,F5,54.75,0.125,71,129.54
687,G#5,54.75,0.125,71,129.54
688,B-4,55.0,0.375,69,129.54
689,B-5,55.0,0.375,69,129.54
690,F5,55.0,0.25,69,129.54
691,G#5,55.0,0.25,69,129.54
692,E-4,55.0,0.375,47,129.54
693,F#4,55.0,0.375,47,129.54
694,B-3,55.0,0.375,47,129.54
695,E-5,55.25,0.125,64,129.54
696,F#5,55.25,0.125,64,129.54
697,F5,55.5,0.5,77,129.54
698,B-4,55.5,0.5,77,129.54
699,G#5,55.5,0.5,77,129.54
700,B-5,55.5,0.5,77,129.54
701,B-2,55.5,0.5,61,129.54
702,B-3,55.5,0.5,61,129.54
703,F5,56.0,0.25,70,129.54
704,G#5,56.0,0.25,70,129.54
705,B-4,56.0,0.375,76,129.54
706,B-5,56.0,0.375,76,129.54
707,F3,56.0,0.375,54,129.54
708,D4,56.0,0.375,54,129.54
709,F#5,56.25,0.125,71,129.54
710,E-5,56.25,0.125,71,129.54
711,B-4,56.5,0.375,69,129.54
712,B-5,56.5,0.375,69,129.54
713,E-5,56.5,0.25,69,129.54
714,F#5,56.5,0.25,69,129.54
715,B-3,56.5,0.375,47,129.54
716,G#4,56.5,0.375,47,129.54
717,F4,56.5,0.375,47,129.54
718,D5,56.75,0.125,64,129.54
719,F5,56.75,0.125,64,129.54
720,E-5,57.0,0.25,68,129.54
721,B-4,57.0,0.25,68,129.54
722,F#5,57.0,0.25,68,129.54
723,B-5,57.0,0.25,68,129.54
724,E-2,57.0,0.25,54,129.54
725,E-3,57.0,0.25,54,129.54
726,E-3,57.5,1.0,44,129.54
727,B-3,57.5,0.5,52,129.54
728,B-4,57.5,0.25,63,129.54
729,F#5,57.5,0.25,63,129.54
730,F5,57.75,0.125,62,129.54
731,G#4,57.75,0.125,62,129.54
732,D4,58.0,0.5,44,129.54
733,G#4,58.0,0.25,59,129.54
734,F5,58.0,0.25,59,129.54
735,G4,58.25,0.125,54,129.54
736,E-5,58.25,0.125,54,129.54
737,E-4,58.5,0.25,55,129.54
738,E-3,58.5,0.25,44,129.54
739,G4,58.5,0.25,68,129.54
740,E-5,58.5,0.25,68,129.54
741,G4,59.0,0.25,52,129.54
742,B-4,59.0,0.375,52,129.54
743,E-2,59.0,0.375,39,129.54
744,E-3,59.0,0.375,39,129.54
745,E4,59.25,0.125,45,129.54
746,E4,59.5,0.25,41,129.54
747,E-3,59.5,0.5,31,129.54
748,C#4,59.5,0.375,33,129.54
749,B4,59.5,0.375,48,129.54
750,G4,59.5,0.375,48,129.54
751,E-4,59.75,0.125,35,129.54
752,B3,60.0,0.375,46,129.54
753,E-4,60.0,0.25,54,129.54
754,G#3,60.0,0.375,36,129.54
755,G#2,60.0,0.375,36,129.54
756,E-3,60.0,0.375,36,129.54
757,E4,60.25,0.125,42,129.54
758,B3,60.5,0.375,43,129.54
759,E4,60.5,0.25,51,129.54
760,G#1,60.5,0.125,33,129.54
761,G#2,60.5,0.125,33,129.54
762,F4,60.75,0.125,43,129.54
763,F4,61.0,0.25,52,129.54
764,B3,61.0,0.375,44,129.54
765,E-4,61.0,0.375,44,129.54
766,E-2,61.0,0.125,33,129.54
767,E-3,61.0,0.125,33,129.54
768,F#4,61.25,0.125,44,129.54
769,F#4,61.5,0.25,53,129.54
770,B3,61.5,0.375,44,129.54
771,E-4,61.5,0.375,44,129.54
772,G#3,61.5,0.375,39,129.54
773,G#2,61.5,0.375,39,129.54
774,E-3,61.5,0.375,39,129.54
775,G4,61.75,0.125,46,129.54
776,G4,62.0,0.25,56,129.54
777,B3,62.0,0.375,47,129.54
778,E-4,62.0,0.375,47,129.54
779,G#1,62.0,0.125,36,129.54
780,G#2,62.0,0.125,36,129.54
781,G#4,62.25,0.125,47,129.54
782,G#4,62.5,0.25,57,129.54
783,B3,62.5,0.375,48,129.54
784,E-4,62.5,0.375,48,129.54
785,E-3,62.5,0.125,36,129.54
786,E-2,62.5,0.125,36,129.54
787,A4,62.75,0.125,49,129.54
788,E-4,63.0,0.375,50,129.54
789,A4,63.0,0.25,59,129.54
790,E-3,63.0,0.375,44,129.54
791,G#3,63.0,0.375,44,129.54
792,B3,63.0,0.375,44,129.54
793,B-4,63.25,0.125,52,129.54
794,E-4,63.5,0.375,52,129.54
795,B-4,63.5,0.25,61,129.54
796,G#1,63.5,0.125,40,129.54
797,G#2,63.5,0.125,40,129.54
798,B4,63.75,0.125,54,129.54
799,B4,64.0,0.25,66,129.54
800,E-4,64.0,0.375,60,129.54
801,G#4,64.0,0.375,60,129.54
802,E-3,64.0,0.125,42,129.54
803,E-2,64.0,0.125,42,129.54
804,C5,64.25,0.125,56,129.54
805,C5,64.5,0.25,69,129.54
806,G#4,64.5,0.375,58,129.54
807,E-4,64.5,0.375,58,129.54
808,E-3,64.5,0.375,51,129.54
809,G#3,64.5,0.375,51,129.54
810,B3,64.5,0.375,51,129.54
811,C#5,64.75,0.125,60,129.54
812,C#5,65.0,0.25,71,129.54
813,E-4,65.0,0.375,61,129.54
814,G#4,65.0,0.375,61,129.54
815,G#1,65.0,0.125,46,129.54
816,G#2,65.0,0.125,46,129.54
817,D5,65.25,0.125,62,129.54
818,D5,65.5,0.25,76,129.54
819,E-4,65.5,0.375,63,129.54
820,G#4,65.5,0.375,63,129.54
821,E-2,65.5,0.125,48,129.54
822,E-3,65.5,0.125,48,129.54
823,E-5,65.75,0.125,66,129.54
824,E-5,66.0,0.25,81,129.54
825,E-4,66.0,0.375,68,129.54
826,B-4,66.0,0.375,68,129.54
827,E-3,66.0,0.125,52,129.54
828,B-3,66.0,0.125,52,129.54
829,E5,66.25,0.125,77,129.54
830,B-4,66.5,0.375,69,129.54
831,E5,66.5,0.25,82,129.54
832,E-3,66.5,0.125,52,129.54
833,G2,66.5,0.125,52,129.54
834,E-5,66.75,0.125,78,129.54
835,E-5,67.0,0.25,84,129.54
836,E-4,67.0,0.375,70,129.54
837,B-4,67.0,0.375,70,129.54
838,E-3,67.0,0.125,54,129.54
839,B-3,67.0,0.125,54,129.54
840,C#5,67.25,0.125,84,129.54
841,C#5,67.5,0.25,82,129.54
842,E-4,67.5,0.375,69,129.54
843,G#4,67.5,0.375,69,129.54
844,E-3,67.5,0.125,52,129.54
845,G#2,67.5,0.125,52,129.54
846,B4,67.75,0.125,79,129.54
847,B4,68.0,0.25,83,129.54
848,E-4,68.0,0.375,70,129.54
849,G#4,68.0,0.375,70,129.54
850,E-3,68.0,0.125,52,129.54
851,B3,68.0,0.125,52,129.54
852,C#5,68.25,0.125,79,129.54
853,C#5,68.5,0.25,85,129.54
854,E-4,68.5,0.375,72,129.54
855,G#4,68.5,0.375,72,129.54
856,G#2,68.5,0.125,54,129.54
857,E-3,68.5,0.125,54,129.54
858,E-5,68.75,0.125,86,129.54
859,E-5,69.0,0.25,87,129.54
860,E4,69.0,0.375,73,129.54
861,G#4,69.0,0.375,73,129.54
862,C#3,69.0,0.125,55,129.54
863,G#3,69.0,0.125,55,129.54
864,C#5,69.25,0.125,86,129.54
865,C#5,69.5,0.25,84,129.54
866,E4,69.5,0.375,71,129.54
867,G#4,69.5,0.375,71,129.54
868,C#2,69.5,0.125,54,129.54
869,C#3,69.5,0.125,54,129.54
870,B4,69.75,0.125,83,129.54
871,B4,70.0,0.25,81,129.54
872,C#4,70.0,0.375,68,129.54
873,E4,70.0,0.375,68,129.54
874,G#3,70.0,0.125,52,129.54
875,C#3,70.0,0.125,52,129.54
876,B-4,70.25,0.125,80,129.54
877,C#4,70.5,0.5,79,129.54
878,E-3,70.5,0.125,46,129.54
879,G3,70.5,0.125,46,129.54
880,B4,70.75,0.25,71,129.54
881,B4,71.0,0.25,70,129.54
882,C#4,71.0,0.5,58,129.54
883,E-3,71.0,0.125,45,129.54
884,E-2,71.0,0.125,45,129.54
885,B-4,71.25,0.25,67,129.54
886,B-4,71.5,0.25,64,129.54
887,C#4,71.5,0.5,54,129.54
888,E-3,71.5,0.125,42,129.54
889,G3,71.5,0.125,42,129.54
890,E-4,71.75,0.25,62,129.54
891,B3,72.0,0.375,45,129.54
892,E-4,72.0,0.25,53,129.54
893,G#2,72.0,0.375,57,129.54
894,E-3,72.0,0.375,57,129.54
895,G#3,72.0,0.375,57,129.54
896,E4,72.25,0.125,45,129.54
897,B3,72.5,0.375,46,129.54
898,E4,72.5,0.25,54,129.54
899,G#2,72.5,0.25,74,129.54
900,G#1,72.5,0.25,74,129.54
901,F4,72.75,0.125,46,129.54
902,F4,73.0,0.25,58,129.54
903,B3,73.0,0.375,49,129.54
904,E-4,73.0,0.375,49,129.54
905,E-2,73.0,0.125,44,129.54
906,E-3,73.0,0.125,44,129.54
907,F#4,73.25,0.125,49,129.54
908,F#4,73.5,0.25,60,129.54
909,B3,73.5,0.375,51,129.54
910,E-4,73.5,0.375,51,129.54
911,E-3,73.5,0.375,64,129.54
912,G#2,73.5,0.375,64,129.54
913,G#3,73.5,0.375,64,129.54
914,G4,73.75,0.125,51,129.54
915,G4,74.0,0.25,63,129.54
916,B3,74.0,0.375,53,129.54
917,E-4,74.0,0.375,53,129.54
918,F#1,74.0,0.25,86,129.54
919,F#2,74.0,0.25,86,129.54
920,G#4,74.25,0.125,54,129.54
921,G#4,74.5,0.25,65,129.54
922,B3,74.5,0.375,55,129.54
923,E-4,74.5,0.375,55,129.54
924,F#2,74.5,0.125,50,129.54
925,E-3,74.5,0.125,50,129.54
926,A4,74.75,0.125,56,129.54
927,A4,75.0,0.25,71,129.54
928,B3,75.0,0.375,60,129.54
929,E4,75.0,0.375,60,129.54
930,G#3,75.0,0.375,78,129.54
931,E3,75.0,0.375,78,129.54
932,B-4,75.25,0.125,61,129.54
933,B-4,75.5,0.25,72,129.54
934,B3,75.5,0.375,61,129.54
935,E4,75.5,0.375,61,129.54
936,E1,75.5,0.25,92,129.54
937,E2,75.5,0.25,92,129.54
938,B4,75.75,0.125,62,129.54
939,B4,76.0,0.25,74,129.54
940,B3,76.0,0.375,68,129.54
941,E4,76.0,0.375,68,129.54
942,G#3,76.0,0.125,57,129.54
943,E3,76.0,0.125,57,129.54
944,C5,76.25,0.125,64,129.54
945,E-4,76.5,0.375,65,129.54
946,C5,76.5,0.25,77,129.54
947,E-3,76.5,0.375,75,129.54
948,G#3,76.5,0.375,75,129.54
949,B3,76.5,0.375,75,129.54
950,C#5,76.75,0.125,72,129.54
951,C#5,77.0,0.25,79,129.54
952,E-4,77.0,0.375,66,129.54
953,G#4,77.0,0.375,66,129.54
954,E-1,77.0,0.25,94,129.54
955,E-2,77.0,0.25,94,129.54
956,D5,77.25,0.125,73,129.54
957,E-4,77.5,0.375,73,129.54
958,G#4,77.5,0.375,73,129.54
959,D5,77.5,0.375,73,129.54
960,B3,77.5,0.125,61,129.54
961,G#3,77.5,0.125,61,129.54
962,E-3,77.5,0.125,61,129.54
963,E-5,77.75,0.125,76,129.54
964,E-5,78.0,0.25,90,129.54
965,E4,78.0,0.375,76,129.54
966,G#4,78.0,0.375,76,129.54
967,G#3,78.0,0.25,71,129.54
968,C#3,78.0,0.25,71,129.54
969,B3,78.0,0.25,71,129.54
970,C#5,78.25,0.125,77,129.54
971,C#5,78.5,0.25,81,129.54
972,B4,78.75,0.125,73,129.54
973,B4,79.0,0.25,78,129.54
974,B-4,79.25,0.125,71,129.54
975,C#5,79.5,0.25,90,129.54
976,E-4,79.5,0.375,76,129.54
977,G#4,79.5,0.375,76,129.54
978,B3,79.5,0.25,71,129.54
979,G#3,79.5,0.25,71,129.54
980,E-3,79.5,0.25,71,129.54
981,B4,79.75,0.125,77,129.54
982,B4,80.0,0.25,81,129.54
983,B-4,80.25,0.125,73,129.54
984,B-4,80.5,0.25,78,129.54
985,G#4,80.75,0.125,71,129.54
986,E-5,81.0,0.25,90,129.54
987,E4,81.0,0.375,76,129.54
988,G#4,81.0,0.375,76,129.54
989,C#3,81.0,0.25,71,129.54
990,G#3,81.0,0.25,71,129.54
991,B3,81.0,0.25,71,129.54
992,C#5,81.25,0.125,77,129.54
993,C#5,81.5,0.25,81,129.54
994,B4,81.75,0.125,73,129.54
995,B4,82.0,0.25,78,129.54
996,B-4,82.25,0.125,71,129.54
997,C#5,82.5,0.25,90,129.54
998,E-4,82.5,0.375,76,129.54
999,G#4,82.5,0.375,76,129.54
1000,G#3,82.5,0.25,71,129.54
1001,E-3,82.5,0.25,71,129.54
1002,B3,82.5,0.25,71,129.54
1003,B4,82.75,0.125,77,129.54
1004,B4,83.0,0.25,81,129.54
1005,B-4,83.25,0.125,73,129.54
1006,B-4,83.5,0.25,78,129.54
1007,G#4,83.75,0.125,71,129.54
1008,B4,84.0,0.25,90,129.54
1009,C#4,84.0,0.375,76,129.54
1010,G#4,84.0,0.375,76,129.54
1011,E3,84.0,0.25,66,129.54
1012,G#3,84.0,0.25,66,129.54
1013,B-4,84.25,0.125,77,129.54
1014,B-4,84.5,0.25,81,129.54
1015,B4,84.75,0.125,73,129.54
1016,B4,85.0,0.25,79,129.54
1017,B-4,85.25,0.125,73,129.54
1018,B-4,85.5,0.25,93,129.54
1019,B4,85.75,0.125,80,129.54
1020,B4,86.0,0.25,85,129.54
1021,B-4,86.25,0.125,78,129.54
1022,B-4,86.5,0.25,84,129.54
1023,B4,86.75,0.125,77,129.54
1024,B4,87.0,0.25,90,129.54
1025,B-4,87.25,0.125,83,129.54
1026,B-4,87.5,0.25,85,129.54
1027,B4,87.75,0.125,75,129.54
1028,B4,88.0,0.25,79,129.54
1029,B-4,88.25,0.125,71,129.54
1030,B-4,88.5,0.25,88,129.54
1031,B4,88.75,0.125,73,129.54
1032,B4,89.0,0.25,76,129.54
1033,B-4,89.25,0.125,67,129.54
1034,B-4,89.5,0.25,70,129.54
1035,B4,89.75,0.125,62,129.54
1036,G#4,90.0,1.5,66,129.54
1037,B-4,90.0,1.5,66,129.54
1038,E4,90.0,0.25,72,129.54
1039,E-4,90.25,0.125,60,129.54
1040,E-4,90.5,0.25,62,129.54
1041,C#4,90.75,0.125,55,129.54
1042,C#4,91.0,0.25,58,129.54
1043,B3,91.25,0.125,53,129.54
1044,G#4,91.5,1.5,66,129.54
1045,B-4,91.5,1.5,66,129.54
1046,B3,91.5,0.25,60,129.54
1047,B-3,91.75,0.125,52,129.54
1048,B-3,92.0,0.25,54,129.54
1049,G#3,92.25,0.125,47,129.54
1050,G#3,92.5,0.25,53,129.54
1051,F#3,92.75,0.125,45,129.54
1052,G#4,93.0,1.5,66,129.54
1053,B-4,93.0,1.5,66,129.54
1054,F#3,93.0,0.25,52,129.54
1055,E3,93.25,0.125,44,129.54
1056,E3,93.5,0.25,46,129.54
1057,E-3,93.75,0.125,40,129.54
1058,E-3,94.0,0.25,44,129.54
1059,C#3,94.25,0.125,40,129.54
1060,B-4,94.5,1.0,66,129.54
1061,E-3,94.5,1.5,41,129.54
1062,G4,94.5,1.5,48,129.54
1063,C#4,94.5,1.5,48,129.54
1064,B4,95.5,0.5,48,129.54
1065,E-2,95.5,0.5,41,129.54
1066,G#2,96.0,0.25,41,129.54
1067,E-3,96.0,0.5,41,129.54
1068,B3,96.0,0.25,48,129.54
1069,G#4,96.0,0.25,48,129.54
1070,G#4,96.5,0.25,53,129.54
1071,E4,96.5,0.375,45,129.54
1072,C#4,96.5,0.375,45,129.54
1073,C#2,96.5,0.125,37,129.54
1074,C#3,96.5,0.125,37,129.54
1075,B4,96.75,0.125,45,129.54
1076,B4,97.0,0.25,53,129.54
1077,G4,97.0,0.375,45,129.54
1078,C#4,97.0,0.375,45,129.54
1079,E-2,97.0,0.125,34,129.54
1080,E-3,97.0,0.125,34,129.54
1081,B-4,97.25,0.125,45,129.54
1082,B3,97.5,0.375,45,129.54
1083,B-4,97.5,0.25,53,129.54
1084,G#3,97.5,0.125,34,129.54
1085,G#2,97.5,0.125,34,129.54
1086,G#4,97.75,0.125,45,129.54
1087,G#4,98.0,0.25,53,129.54
1088,E4,98.0,0.375,45,129.54
1089,C#4,98.0,0.375,45,129.54
1090,C#2,98.0,0.125,37,129.54
1091,C#3,98.0,0.125,37,129.54
1092,B4,98.25,0.125,45,129.54
1093,B4,98.5,0.25,53,129.54
1094,G4,98.5,0.375,45,129.54
1095,C#4,98.5,0.375,45,129.54
1096,E-3,98.5,0.125,34,129.54
1097,E-2,98.5,0.125,34,129.54
1098,B-4,98.75,0.125,45,129.54
1099,B3,99.0,0.375,45,129.54
1100,B-4,99.0,0.25,53,129.54
1101,E2,99.0,0.125,34,129.54
1102,E3,99.0,0.125,34,129.54
1103,G#4,99.25,0.125,45,129.54
1104,E-4,99.5,0.375,45,129.54
1105,F#4,99.5,0.25,53,129.54
1106,B1,99.5,0.125,37,129.54
1107,B2,99.5,0.125,37,129.54
1108,E-5,99.75,0.125,45,129.54
1109,E-5,100.0,0.25,53,129.54
1110,B-4,100.0,0.375,45,129.54
1111,E4,100.0,0.375,45,129.54
1112,C#2,100.0,0.125,34,129.54
1113,C#3,100.0,0.125,34,129.54
1114,C#5,100.25,0.125,45,129.54
1115,C#5,100.5,0.25,53,129.54
1116,G#4,100.5,0.375,45,129.54
1117,E-4,100.5,0.375,45,129.54
1118,E-2,100.5,0.125,34,129.54
1119,E-3,100.5,0.125,34,129.54
1120,B4,100.75,0.125,45,129.54
1121,E-4,101.0,0.375,53,129.54
1122,E-3,101.0,0.125,40,129.54
1123,B4,101.25,0.125,45,129.54
1124,B4,101.5,0.25,53,129.54
1125,G4,101.5,0.375,45,129.54
1126,C#4,101.5,0.375,45,129.54
1127,E-2,101.5,0.125,34,129.54
1128,E-3,101.5,0.125,34,129.54
1129,B-4,101.75,0.125,45,129.54
1130,B3,102.0,0.25,49,129.54
1131,G#4,102.0,0.25,49,129.54
1132,E-3,102.0,0.125,34,129.54
1133,G#2,102.0,0.125,34,129.54
1134,G#4,102.5,0.25,53,129.54
1135,E4,102.5,0.375,45,129.54
1136,C#4,102.5,0.375,45,129.54
1137,C#2,102.5,0.125,37,129.54
1138,C#3,102.5,0.125,37,129.54
1139,B4,102.75,0.125,45,129.54
1140,B4,103.0,0.25,53,129.54
1141,G4,103.0,0.375,45,129.54
1142,C#4,103.0,0.375,45,129.54
1143,E-3,103.0,0.125,34,129.54
1144,E-2,103.0,0.125,34,129.54
1145,B-4,103.25,0.125,45,129.54
1146,B3,103.5,0.375,45,129.54
1147,B-4,103.5,0.25,53,129.54
1148,G#2,103.5,0.125,34,129.54
1149,G#3,103.5,0.125,34,129.54
1150,G#4,103.75,0.125,45,129.54
1151,G#4,104.0,0.25,53,129.54
1152,E4,104.0,0.375,45,129.54
1153,C#4,104.0,0.375,45,129.54
1154,C#2,104.0,0.125,37,129.54
1155,C#3,104.0,0.125,37,129.54
1156,B4,104.25,0.125,45,129.54
1157,B4,104.5,0.25,53,129.54
1158,G4,104.5,0.375,45,129.54
1159,C#4,104.5,0.375,45,129.54
1160,E-2,104.5,0.125,34,129.54
1161,E-3,104.5,0.125,34,129.54
1162,B-4,104.75,0.125,45,129.54
1163,B3,105.0,0.375,45,129.54
1164,B-4,105.0,0.25,53,129.54
1165,E2,105.0,0.125,34,129.54
1166,E3,105.0,0.125,34,129.54
1167,G#4,105.25,0.125,45,129.54
1168,C#4,105.5,0.375,45,129.54
1169,E4,105.5,0.25,53,129.54
1170,A2,105.5,0.125,37,129.54
1171,A1,105.5,0.125,37,129.54
1172,C#5,105.75,0.125,45,129.54
1173,C#5,106.0,0.25,53,129.54
1174,G#4,106.0,0.375,45,129.54
1175,D4,106.0,0.375,45,129.54
1176,B1,106.0,0.125,34,129.54
1177,B2,106.0,0.125,34,129.54
1178,B4,106.25,0.125,45,129.54
1179,B4,106.5,0.25,53,129.54
1180,E4,106.5,0.375,45,129.54
1181,C#4,106.5,0.375,45,129.54
1182,C#3,106.5,0.125,34,129.54
1183,C#2,106.5,0.125,34,129.54
1184,A4,106.75,0.125,45,129.54
1185,B3,107.0,0.375,49,129.54
1186,E-4,107.0,0.375,49,129.54
1187,E-2,107.0,0.125,39,129.54
1188,E-3,107.0,0.125,39,129.54
1189,B4,107.25,0.125,45,129.54
1190,E-4,107.5,0.5,45,129.54
1191,B-3,107.5,0.375,45,129.54
1192,G#4,107.5,0.25,53,129.54
1193,E-1,107.5,0.125,34,129.54
1194,E-2,107.5,0.125,34,129.54
1195,G4,107.75,0.125,45,129.54
1196,E-4,108.0,0.25,45,129.54
1197,B3,108.0,0.25,49,129.54
1198,G#4,108.0,0.25,49,129.54
1199,G#1,108.0,0.125,34,129.54
1200,G#2,108.0,0.125,34,129.54
1201,E-4,109.5,1.5,69,129.54
1202,E-2,109.5,1.5,63,129.54
1203,E-3,109.5,1.5,63,129.54
1204,B3,110.0,0.25,59,129.54
1205,G#3,110.0,0.25,59,129.54
1206,G3,110.25,0.188,55,129.54
1207,B-3,110.25,0.188,55,129.54
1208,G3,110.5,0.25,55,129.54
1209,B-3,110.5,0.25,55,129.54
1210,B-3,110.75,0.25,55,129.54
1211,C#4,110.75,0.25,55,129.54
1212,E-4,111.0,1.0,69,129.54
1213,E-3,111.0,0.5,63,129.54
1214,G#2,111.0,0.5,63,129.54
1215,B3,111.0,0.5,63,129.54
1216,G#3,111.0,0.5,63,129.54
1217,E4,112.0,0.5,63,129.54
1218,E-4,112.5,1.5,69,129.54
1219,E-2,112.5,1.5,63,129.54
1220,E-3,112.5,1.5,63,129.54
1221,G#3,113.0,0.25,59,129.54
1222,B3,113.0,0.25,59,129.54
1223,G3,113.25,0.188,55,129.54
1224,B-3,113.25,0.188,55,129.54
1225,G3,113.5,0.25,55,129.54
1226,B-3,113.5,0.25,55,129.54
1227,C#4,113.75,0.25,55,129.54
1228,B-3,113.75,0.25,55,129.54
1229,E-4,114.0,0.5,69,129.54
1230,E-3,114.0,0.5,63,129.54
1231,G#2,114.0,0.5,63,129.54
1232,B3,114.0,0.5,63,129.54
1233,G#3,114.0,0.5,63,129.54
1234,F#4,114.5,0.5,63,129.54
1235,E4,115.0,0.5,61,129.54
1236,E-4,115.5,1.5,70,129.54
1237,E-2,115.5,1.5,56,129.54
1238,E-3,115.5,1.5,56,129.54
1239,B3,116.0,0.25,53,129.54
1240,G#3,116.0,0.25,53,129.54
1241,G3,116.25,0.188,49,129.54
1242,B-3,116.25,0.188,49,129.54
1243,G3,116.5,0.25,49,129.54
1244,B-3,116.5,0.25,49,129.54
1245,B-3,116.75,0.25,49,129.54
1246,C#4,116.75,0.25,49,129.54
1247,E-4,117.0,0.5,70,129.54
1248,E-3,117.0,0.5,56,129.54
1249,G#2,117.0,0.5,56,129.54
1250,B3,117.0,0.5,56,129.54
1251,G#3,117.0,0.5,56,129.54
1252,G#4,117.5,0.5,54,129.54
1253,F#4,118.0,0.5,49,129.54
1254,E4,118.5,0.5,48,129.54
1255,E-4,119.0,1.0,43,129.54
1256,E-1,119.5,0.25,90,129.54
1257,E-2,119.5,0.25,90,129.54
1258,E-3,119.5,0.25,90,129.54
1259,G#2,120.0,0.25,100,129.54
1260,G#1,120.0,0.25,100,129.54
1261,G#3,120.0,0.25,100,129.54
