,note_name,start_time,duration,velocity,tempo
0,E-3,0.0,1.0,81,110.0
1,E-4,0.0,1.0,81,110.0
2,E-1,0.0,1.0,69,110.0
3,E-2,0.0,1.0,69,110.0
4,C#3,1.5,0.25,42,110.0
5,E3,1.5,0.25,42,110.0
6,A3,1.5,0.25,42,110.0
7,D3,1.75,0.25,45,110.0
8,F3,1.75,0.25,45,110.0
9,B-3,1.75,0.25,45,110.0
10,E-3,2.0,0.25,48,110.0
11,F#3,2.0,0.25,48,110.0
12,B3,2.0,0.25,48,110.0
13,E3,2.25,0.25,49,110.0
14,G3,2.25,0.25,49,110.0
15,C4,2.25,0.25,49,110.0
16,F3,2.5,0.25,52,110.0
17,G#3,2.5,0.25,52,110.0
18,C#4,2.5,0.25,52,110.0
19,F3,2.75,0.25,58,110.0
20,A3,2.75,0.25,58,110.0
21,D4,2.75,0.25,58,110.0
22,G3,3.0,0.25,63,110.0
23,B-3,3.0,0.25,62,110.0
24,E-4,3.0,0.25,62,110.0
25,G3,4.0,0.25,56,110.0
26,B-3,4.0,0.25,56,110.0
27,E-2,4.0,0.25,46,110.0
28,B-2,4.0,0.25,46,110.0
29,G#3,5.0,1.0,33,110.0
30,E4,5.0,1.0,33,110.0
31,G#4,5.0,1.0,33,110.0
32,D3,5.0,1.0,30,110.0
33,B3,5.0,1.0,30,110.0
34,G3,6.0,0.5,29,110.0
35,E-4,6.0,0.5,29,110.0
36,G4,6.0,0.5,29,110.0
37,E-3,6.0,0.5,26,110.0
38,B-3,6.0,0.5,26,110.0
39,G#2,7.0,271/1000,39,110.0
40,B3,7.0,271/1000,39,110.0
41,G2,7.25,271/1000,36,110.0
42,B-3,7.25,271/1000,36,110.0
43,D2,7.5,271/1000,36,110.0
44,E3,7.5,271/1000,36,110.0
45,E-2,7.75,271/1000,38,110.0
46,E-3,7.75,271/1000,38,110.0
47,G#2,8.0,271/1000,43,110.0
48,B3,8.0,271/1000,43,110.0
49,G2,8.25,271/1000,42,110.0
50,B-3,8.25,271/1000,42,110.0
51,D2,8.5,271/1000,43,110.0
52,E3,8.5,271/1000,43,110.0
53,E-2,8.75,0.25,44,110.0
54,E-3,8.75,0.25,44,110.0
55,G#2,9.0,271/1000,48,110.0
56,B3,9.0,271/1000,48,110.0
57,E-2,9.0,21/1000,44,110.0
58,E-3,9.0,21/1000,44,110.0
59,G2,9.25,271/1000,46,110.0
60,B-3,9.25,271/1000,46,110.0
61,D2,9.5,271/1000,48,110.0
62,E3,9.5,271/1000,48,110.0
63,E-2,9.75,271/1000,50,110.0
64,E-3,9.75,271/1000,50,110.0
65,G#2,10.0,271/1000,56,110.0
66,B3,10.0,271/1000,56,110.0
67,G2,10.25,271/1000,54,110.0
68,B-3,10.25,271/1000,54,110.0
69,D2,10.5,271/1000,54,110.0
70,E3,10.5,271/1000,54,110.0
71,E-2,10.75,271/1000,56,110.0
72,E-3,10.75,271/1000,56,110.0
73,G#2,11.0,271/1000,64,110.0
74,B3,11.0,271/1000,64,110.0
75,G2,11.25,271/1000,60,110.0
76,B-3,11.25,271/1000,60,110.0
77,D2,11.5,271/1000,60,110.0
78,E3,11.5,271/1000,60,110.0
79,E-2,11.75,0.25,62,110.0
80,E-3,11.75,0.25,62,110.0
81,B3,12.0,1.0,78,110.0
82,G#3,12.0,1.0,78,110.0
83,E3,12.0,1.0,78,110.0
84,E4,12.0,1.0,78,110.0
85,G#2,12.0,1.0,67,110.0
86,E-2,12.0,1.0,67,110.0
87,E-3,12.0,1.0,67,110.0
88,D3,13.5,0.25,42,110.0
89,F3,13.5,0.25,42,110.0
90,B-3,13.5,0.25,42,110.0
91,E-3,13.75,0.25,45,110.0
92,F#3,13.75,0.25,45,110.0
93,B3,13.75,0.25,45,110.0
94,E3,14.0,0.25,48,110.0
95,G3,14.0,0.25,48,110.0
96,C4,14.0,0.25,48,110.0
97,F3,14.25,0.25,49,110.0
98,G#3,14.25,0.25,49,110.0
99,C#4,14.25,0.25,49,110.0
100,F#3,14.5,0.25,52,110.0
101,A3,14.5,0.25,52,110.0
102,D4,14.5,0.25,52,110.0
103,F#3,14.75,0.25,58,110.0
104,B-3,14.75,0.25,58,110.0
105,E-4,14.75,0.25,58,110.0
106,G#3,15.0,0.25,63,110.0
107,B3,15.0,0.25,62,110.0
108,E4,15.0,0.25,62,110.0
109,E3,16.0,0.25,48,110.0
110,G#3,16.0,0.25,48,110.0
111,B3,16.0,0.25,48,110.0
112,E-2,16.0,0.25,41,110.0
113,B2,16.0,0.25,41,110.0
114,C#4,17.0,1.0,33,110.0
115,B-4,17.0,1.0,33,110.0
116,C#5,17.0,1.0,33,110.0
117,B-3,17.0,1.0,29,110.0
118,G3,17.0,1.0,29,110.0
119,E4,17.0,1.0,29,110.0
120,G#4,18.0,0.5,30,110.0
121,B4,18.0,0.5,30,110.0
122,G#3,18.0,0.5,25,110.0
123,B3,18.0,0.5,25,110.0
124,E4,18.0,0.5,25,110.0
125,B-2,19.0,271/1000,39,110.0
126,C#4,19.0,271/1000,39,110.0
127,G#2,19.25,271/1000,36,110.0
128,B3,19.25,271/1000,36,110.0
129,E-2,19.5,271/1000,36,110.0
130,F#3,19.5,271/1000,36,110.0
131,G#2,19.75,271/1000,38,110.0
132,E3,19.75,271/1000,38,110.0
133,B-2,20.0,271/1000,43,110.0
134,C#4,20.0,271/1000,43,110.0
135,G#2,20.25,271/1000,42,110.0
136,B3,20.25,271/1000,42,110.0
137,E-2,20.5,271/1000,43,110.0
138,F#3,20.5,271/1000,43,110.0
139,G#2,20.75,0.25,44,110.0
140,E3,20.75,0.25,44,110.0
141,B-2,21.0,271/1000,48,110.0
142,C#4,21.0,271/1000,48,110.0
143,G#2,21.0,21/1000,44,110.0
144,E3,21.0,21/1000,44,110.0
145,G#2,21.25,271/1000,46,110.0
146,B3,21.25,271/1000,46,110.0
147,E-2,21.5,271/1000,48,110.0
148,F#3,21.5,271/1000,48,110.0
149,G#2,21.75,271/1000,50,110.0
150,E3,21.75,271/1000,50,110.0
151,B-2,22.0,271/1000,56,110.0
152,C#4,22.0,271/1000,56,110.0
153,G#2,22.25,271/1000,54,110.0
154,B3,22.25,271/1000,54,110.0
155,E-2,22.5,271/1000,54,110.0
156,F#3,22.5,271/1000,54,110.0
157,G#2,22.75,271/1000,56,110.0
158,E3,22.75,271/1000,56,110.0
159,B-2,23.0,271/1000,64,110.0
160,C#4,23.0,271/1000,64,110.0
161,G#2,23.25,271/1000,60,110.0
162,B3,23.25,271/1000,60,110.0
163,E-2,23.5,271/1000,60,110.0
164,F#3,23.5,271/1000,60,110.0
165,G#2,23.75,0.25,62,110.0
166,E3,23.75,0.25,62,110.0
167,C4,24.0,1.0,78,110.0
168,A3,24.0,1.0,78,110.0
169,F3,24.0,1.0,78,110.0
170,F4,24.0,1.0,78,110.0
171,A2,24.0,1.0,67,110.0
172,E-2,24.0,1.0,67,110.0
173,E-3,24.0,1.0,67,110.0
174,F#3,25.5,0.25,45,110.0
175,A3,25.5,0.25,49,110.0
176,D4,25.5,0.25,49,110.0
177,G3,25.75,0.25,47,110.0
178,B-3,25.75,0.25,52,110.0
179,E-4,25.75,0.25,52,110.0
180,G#3,26.0,0.25,50,110.0
181,B3,26.0,0.25,54,110.0
182,E4,26.0,0.25,54,110.0
183,A3,26.25,0.25,52,110.0
184,C4,26.25,0.25,56,110.0
185,F4,26.25,0.25,56,110.0
186,B-3,26.5,0.25,55,110.0
187,C#4,26.5,0.25,60,110.0
188,G4,26.5,0.25,60,110.0
189,B3,26.75,0.25,57,110.0
190,D4,26.75,0.25,68,110.0
191,G#4,26.75,0.25,68,110.0
192,C4,27.0,0.25,71,110.0
193,E-4,27.0,0.25,70,110.0
194,A4,27.0,0.25,70,110.0
195,A3,28.0,0.25,65,110.0
196,F3,28.0,0.25,65,110.0
197,C4,28.0,0.25,65,110.0
198,F4,28.0,0.25,65,110.0
199,E-2,28.0,0.25,59,110.0
200,E-3,28.0,0.25,59,110.0
201,C4,29.0,1.0,70,110.0
202,F4,29.0,1.0,70,110.0
203,C5,29.0,1.0,70,110.0
204,A3,29.0,1.0,63,110.0
205,E-3,29.0,1.0,63,110.0
206,E-4,29.0,1.0,63,110.0
207,G#3,30.0,0.5,64,110.0
208,B-3,30.0,0.5,64,110.0
209,D4,30.0,0.5,64,110.0
210,F4,30.0,0.5,64,110.0
211,B-4,30.0,0.5,64,110.0
212,E-1,30.0,0.5,57,110.0
213,E-2,30.0,0.5,57,110.0
214,G#3,31.5,0.25,49,110.0
215,B3,31.5,0.25,54,110.0
216,E4,31.5,0.25,54,110.0
217,A3,31.75,0.25,51,110.0
218,C4,31.75,0.25,56,110.0
219,F4,31.75,0.25,56,110.0
220,B-3,32.0,0.25,55,110.0
221,C#4,32.0,0.25,60,110.0
222,F#4,32.0,0.25,60,110.0
223,B3,32.25,0.25,57,110.0
224,D4,32.25,0.25,60,110.0
225,G4,32.25,0.25,60,110.0
226,C4,32.5,0.25,60,110.0
227,E-4,32.5,0.25,66,110.0
228,G#4,32.5,0.25,66,110.0
229,C#4,32.75,0.25,62,110.0
230,E4,32.75,0.25,74,110.0
231,A4,32.75,0.25,74,110.0
232,D4,33.0,0.25,71,110.0
233,F4,33.0,0.25,70,110.0
234,B-4,33.0,0.25,70,110.0
235,B-3,34.0,0.25,69,110.0
236,F3,34.0,0.25,69,110.0
237,D4,34.0,0.25,69,110.0
238,F4,34.0,0.25,69,110.0
239,E-2,34.0,0.25,59,110.0
240,E-3,34.0,0.25,59,110.0
241,F4,35.0,1.0,74,110.0
242,B-4,35.0,1.0,74,110.0
243,F5,35.0,1.0,74,110.0
244,B-3,35.0,1.0,64,110.0
245,D4,35.0,1.0,64,110.0
246,G#3,35.0,1.0,64,110.0
247,G#4,35.0,1.0,64,110.0
248,C#4,36.0,0.5,67,110.0
249,E-4,36.0,0.5,67,110.0
250,G4,36.0,0.5,67,110.0
251,B-4,36.0,0.5,67,110.0
252,E-5,36.0,0.5,67,110.0
253,E-1,36.0,0.5,60,110.0
254,E-2,36.0,0.5,60,110.0
255,C#5,37.0,0.25,77,110.0
256,F5,37.0,0.25,77,110.0
257,B-1,37.0,0.25,59,110.0
258,B-2,37.0,0.25,59,110.0
259,G#4,37.25,0.25,72,110.0
260,G4,37.5,0.25,72,110.0
261,E-2,37.5,0.125,50,110.0
262,E-3,37.5,0.125,50,110.0
263,E-5,37.75,0.25,72,110.0
264,F2,37.75,0.125,54,110.0
265,F3,37.75,0.125,54,110.0
266,C#5,38.0,0.25,77,110.0
267,F5,38.0,0.25,77,110.0
268,G2,38.0,0.125,56,110.0
269,G3,38.0,0.125,56,110.0
270,G#4,38.25,0.25,70,110.0
271,G#2,38.25,0.125,57,110.0
272,G#3,38.25,0.125,57,110.0
273,G4,38.5,0.25,70,110.0
274,B-2,38.5,0.125,60,110.0
275,B-3,38.5,0.125,60,110.0
276,E-5,38.75,0.25,70,110.0
277,C3,38.75,0.125,62,110.0
278,C4,38.75,0.125,62,110.0
279,B-4,39.0,0.25,77,110.0
280,F5,39.0,0.25,77,110.0
281,C#3,39.0,0.125,64,110.0
282,C#4,39.0,0.125,64,110.0
283,G4,39.25,0.25,71,110.0
284,E-4,39.5,0.25,71,110.0
285,E-5,39.75,0.25,71,110.0
286,C5,40.0,0.25,77,110.0
287,F5,40.0,0.25,77,110.0
288,E-2,40.0,0.125,59,110.0
289,E-3,40.0,0.125,59,110.0
290,G4,40.25,0.25,72,110.0
291,E-4,40.5,0.25,72,110.0
292,E-5,40.75,0.25,72,110.0
293,G3,41.0,1.0,59,110.0
294,G4,41.0,1.0,70,110.0
295,C#5,41.0,0.25,77,110.0
296,F5,41.0,0.25,77,110.0
297,B-4,41.25,0.25,71,110.0
298,E-4,41.5,0.25,71,110.0
299,E-5,41.75,0.25,71,110.0
300,G4,42.0,0.25,70,110.0
301,C#5,42.0,0.25,73,110.0
302,F5,42.0,0.25,73,110.0
303,B-4,42.25,0.25,67,110.0
304,C#4,42.25,0.25,53,110.0
305,E-4,42.5,0.25,68,110.0
306,B-3,42.5,0.25,53,110.0
307,E-5,42.75,0.25,68,110.0
308,E-3,42.75,0.25,54,110.0
309,G4,43.0,0.25,63,110.0
310,C#5,43.0,0.25,75,110.0
311,F5,43.0,0.25,75,110.0
312,B-4,43.25,0.25,70,110.0
313,C#4,43.25,0.25,58,110.0
314,E-4,43.5,0.25,71,110.0
315,B-3,43.5,0.25,58,110.0
316,E-5,43.75,0.25,71,110.0
317,E-3,43.75,0.25,58,110.0
318,G4,44.0,0.25,63,110.0
319,C#5,44.0,0.25,77,110.0
320,F5,44.0,0.25,77,110.0
321,B-4,44.25,0.25,72,110.0
322,C#4,44.25,0.25,58,110.0
323,E-4,44.5,0.25,73,110.0
324,B-3,44.5,0.25,58,110.0
325,E-5,44.75,0.25,73,110.0
326,E-3,44.75,0.25,59,110.0
327,G4,45.0,0.25,68,110.0
328,C#5,45.0,0.25,80,110.0
329,F5,45.0,0.25,80,110.0
330,B-4,45.25,0.25,74,110.0
331,C#4,45.25,0.25,60,110.0
332,E-4,45.5,0.25,75,110.0
333,B-3,45.5,0.25,61,110.0
334,E-5,45.75,0.25,77,110.0
335,E-3,45.75,0.25,62,110.0
336,C#4,46.0,0.25,70,110.0
337,C#5,46.0,0.25,83,110.0
338,F5,46.0,0.25,83,110.0
339,B-4,46.25,0.25,78,110.0
340,G3,46.25,0.25,63,110.0
341,E-4,46.5,0.25,79,110.0
342,E-3,46.5,0.25,63,110.0
343,E-5,46.75,0.25,79,110.0
344,B-2,46.75,0.25,63,110.0
345,G3,47.0,0.25,72,110.0
346,C#5,47.0,0.25,85,110.0
347,F5,47.0,0.25,85,110.0
348,B-4,47.25,0.25,80,110.0
349,C#3,47.25,0.25,66,110.0
350,E-4,47.5,0.25,81,110.0
351,B-2,47.5,0.25,65,110.0
352,E-5,47.75,0.25,82,110.0
353,E-2,47.75,0.25,66,110.0
354,C#5,48.0,0.75,82,110.0
355,F5,48.0,0.75,82,110.0
356,G#1,48.0,0.25,66,110.0
357,G#2,48.0,0.25,66,110.0
358,E-3,48.5,0.5,66,110.0
359,E-4,48.5,0.5,66,110.0
360,C5,48.75,9/40,78,110.0
361,E-5,48.75,9/40,78,110.0
362,C5,49.0,1.0,78,110.0
363,E-5,49.0,1.0,78,110.0
364,G#4,49.0,0.5,66,110.0
365,C4,49.0,0.5,66,110.0
366,G#3,49.0,0.5,66,110.0
367,E-2,49.5,0.125,72,110.0
368,E-3,49.5,0.125,72,110.0
369,G#2,50.0,0.25,73,110.0
370,G#3,50.0,0.25,73,110.0
371,G#4,50.5,0.25,74,110.0
372,C5,50.5,0.25,74,110.0
373,E-1,50.5,0.5,62,110.0
374,E-2,50.5,0.5,62,110.0
375,B-4,50.75,0.25,73,110.0
376,C#5,50.75,0.25,73,110.0
377,C#5,51.0,0.25,78,110.0
378,F5,51.0,0.25,78,110.0
379,G#1,51.0,0.5,66,110.0
380,G#2,51.0,0.5,66,110.0
381,C5,51.25,0.5,68,110.0
382,E-5,51.25,0.125,80,110.0
383,F5,51.375,0.125,74,110.0
384,E-5,51.5,0.25,85,110.0
385,E-4,51.5,0.5,62,110.0
386,E-3,51.5,0.5,62,110.0
387,B4,51.75,0.25,74,110.0
388,D5,51.75,0.25,74,110.0
389,C5,52.0,1.0,74,110.0
390,E-5,52.0,1.0,74,110.0
391,G#4,52.0,0.5,65,110.0
392,C4,52.0,0.5,65,110.0
393,G#3,52.0,0.5,65,110.0
394,E-2,52.5,0.125,67,110.0
395,E-3,52.5,0.125,67,110.0
396,G#2,53.0,0.25,73,110.0
397,G#3,53.0,0.25,73,110.0
398,G#4,53.5,0.25,74,110.0
399,C5,53.5,0.25,74,110.0
400,E-1,53.5,0.5,62,110.0
401,E-2,53.5,0.5,62,110.0
402,B-4,53.75,0.25,73,110.0
403,C#5,53.75,0.25,73,110.0
404,C#5,54.0,0.25,78,110.0
405,F5,54.0,0.25,78,110.0
406,G#1,54.0,0.5,66,110.0
407,G#2,54.0,0.5,66,110.0
408,C5,54.25,0.5,68,110.0
409,E-5,54.25,0.125,80,110.0
410,F5,54.375,0.125,74,110.0
411,E-5,54.5,0.25,85,110.0
412,E-4,54.5,0.5,62,110.0
413,E-3,54.5,0.5,62,110.0
414,B4,54.75,0.25,74,110.0
415,D5,54.75,0.25,74,110.0
416,C#5,55.0,0.25,72,110.0
417,F5,55.0,0.125,85,110.0
418,G#4,55.0,0.5,65,110.0
419,C4,55.0,0.5,65,110.0
420,G#3,55.0,0.5,65,110.0
421,C5,55.25,0.5,68,110.0
422,E-5,55.25,0.25,80,110.0
423,F5,55.375,0.125,74,110.0
424,E-5,55.5,0.25,85,110.0
425,E-2,55.5,0.25,62,110.0
426,E-3,55.5,0.25,62,110.0
427,B4,55.75,0.25,74,110.0
428,D5,55.75,0.25,74,110.0
429,C5,56.0,0.375,74,110.0
430,E-5,56.0,0.375,74,110.0
431,G#2,56.0,0.25,64,110.0
432,G#3,56.0,0.25,64,110.0
433,E-4,56.375,0.625,66,110.0
434,E-2,56.375,0.438,57,110.0
435,B-4,56.438,0.562,66,110.0
436,B-2,56.438,0.375,57,110.0
437,F#5,56.5,0.5,78,110.0
438,F#3,56.5,0.312,68,110.0
439,F2,56.812,0.188,57,110.0
440,C3,56.875,0.125,57,110.0
441,E-3,56.938,0.062,68,110.0
442,A3,57.0,0.312,68,110.0
443,F2,57.0,0.312,57,110.0
444,C3,57.0,0.5,57,110.0
445,E-3,57.0,0.312,68,110.0
446,E-4,57.0,0.5,68,110.0
447,A4,57.0,0.5,68,110.0
448,F5,57.0,0.5,68,110.0
449,C3,57.312,0.5,56,110.0
450,F3,57.375,0.438,56,110.0
451,A3,57.438,0.375,67,110.0
452,E-4,57.5,0.312,67,110.0
453,F4,57.5,0.5,68,110.0
454,A4,57.5,0.5,68,110.0
455,C5,57.5,0.5,68,110.0
456,B-2,57.812,0.688,58,110.0
457,F3,57.875,0.625,58,110.0
458,B-3,57.938,0.562,69,110.0
459,C#4,58.0,0.5,69,110.0
460,F4,58.0,0.5,68,110.0
461,B-4,58.0,0.5,68,110.0
462,C#5,58.0,0.5,68,110.0
463,F#4,58.5,167/1000,73,110.0
464,F#1,58.5,0.5,60,110.0
465,F#2,58.5,0.5,60,110.0
466,F#3,58.667,167/1000,73,110.0
467,F#4,58.833,167/1000,73,110.0
468,F3,59.0,0.5,71,110.0
469,F4,59.0,0.5,71,110.0
470,F1,59.0,0.5,60,110.0
471,F2,59.0,0.5,60,110.0
472,C#4,59.5,0.375,72,110.0
473,C#2,59.5,0.5,58,110.0
474,C#3,59.5,0.5,58,110.0
475,F#4,59.875,0.125,78,110.0
476,E-5,60.0,0.75,82,110.0
477,F#5,60.0,0.75,82,110.0
478,B-1,60.0,0.25,66,110.0
479,B-2,60.0,0.25,66,110.0
480,F3,60.5,0.5,66,110.0
481,F4,60.5,0.5,66,110.0
482,C#5,60.75,9/40,78,110.0
483,F5,60.75,9/40,78,110.0
484,C#5,61.0,1.0,78,110.0
485,F5,61.0,1.0,78,110.0
486,B-4,61.0,0.5,66,110.0
487,C#4,61.0,0.5,66,110.0
488,B-3,61.0,0.5,66,110.0
489,F2,61.5,0.125,72,110.0
490,F3,61.5,0.125,72,110.0
491,B-2,62.0,0.25,73,110.0
492,B-3,62.0,0.25,73,110.0
493,B-4,62.5,0.25,74,110.0
494,C#5,62.5,0.25,74,110.0
495,F1,62.5,0.5,62,110.0
496,F2,62.5,0.5,62,110.0
497,C5,62.75,0.25,73,110.0
498,E-5,62.75,0.25,73,110.0
499,E-5,63.0,0.25,78,110.0
500,F#5,63.0,0.25,78,110.0
501,B-1,63.0,0.5,66,110.0
502,B-2,63.0,0.5,66,110.0
503,C#5,63.25,0.5,68,110.0
504,F5,63.25,0.125,80,110.0
505,F#5,63.375,0.125,74,110.0
506,F5,63.5,0.25,85,110.0
507,F4,63.5,0.5,62,110.0
508,F3,63.5,0.5,62,110.0
509,C5,63.75,0.25,74,110.0
510,E5,63.75,0.25,74,110.0
511,C#5,64.0,1.0,74,110.0
512,F5,64.0,1.0,74,110.0
513,B-4,64.0,0.5,65,110.0
514,C#4,64.0,0.5,65,110.0
515,B-3,64.0,0.5,65,110.0
516,F2,64.5,0.125,67,110.0
517,F3,64.5,0.125,67,110.0
518,B-2,65.0,0.25,73,110.0
519,B-3,65.0,0.25,73,110.0
520,G4,65.5,0.25,72,110.0
521,C#5,65.5,0.25,72,110.0
522,G5,65.5,0.25,72,110.0
523,B-1,65.5,0.5,62,110.0
524,B-2,65.5,0.5,62,110.0
525,G#4,65.75,0.25,73,110.0
526,G#5,65.75,0.25,73,110.0
527,C5,66.0,0.25,78,110.0
528,C6,66.0,0.25,78,110.0
529,E-1,66.0,0.25,66,110.0
530,E-2,66.0,0.25,66,110.0
531,G5,66.25,0.25,68,110.0
532,E-5,66.25,0.25,68,110.0
533,C5,66.5,0.25,72,110.0
534,C6,66.5,0.25,72,110.0
535,C#4,66.5,0.25,59,110.0
536,G4,66.5,0.25,59,110.0
537,E-4,66.5,0.25,59,110.0
538,B-4,66.875,14/125,71,110.0
539,B-5,66.875,14/125,71,110.0
540,B-4,67.0,0.25,74,110.0
541,B-5,67.0,0.25,74,110.0
542,E-2,67.0,0.25,64,110.0
543,E-3,67.0,0.25,64,110.0
544,E-5,67.25,0.25,64,110.0
545,C5,67.25,0.25,64,110.0
546,B-4,67.5,0.25,69,110.0
547,B-5,67.5,0.25,69,110.0
548,C4,67.5,0.25,58,110.0
549,E-4,67.5,0.25,58,110.0
550,G#4,67.875,14/125,62,110.0
551,G#5,67.875,14/125,62,110.0
552,G#4,68.0,0.25,72,110.0
553,G#5,68.0,0.25,72,110.0
554,E-2,68.0,0.25,62,110.0
555,E-3,68.0,0.25,62,110.0
556,E-5,68.25,0.25,61,110.0
557,B-4,68.25,0.25,61,110.0
558,G#4,68.5,0.25,68,110.0
559,G#5,68.5,0.25,68,110.0
560,B-3,68.5,0.25,56,110.0
561,E-4,68.5,0.25,56,110.0
562,G4,68.875,14/125,61,110.0
563,G5,68.875,14/125,61,110.0
564,G4,69.0,0.25,69,110.0
565,G5,69.0,0.25,69,110.0
566,B-1,69.0,0.25,59,110.0
567,B-2,69.0,0.25,59,110.0
568,D5,69.25,0.25,60,110.0
569,B-4,69.25,0.25,60,110.0
570,G4,69.5,0.25,66,110.0
571,G5,69.5,0.25,66,110.0
572,G#3,69.5,0.25,53,110.0
573,D4,69.5,0.25,53,110.0
574,B-3,69.5,0.25,53,110.0
575,F4,69.875,14/125,62,110.0
576,F5,69.875,14/125,62,110.0
577,F4,70.0,0.25,67,110.0
578,F5,70.0,0.25,67,110.0
579,E-2,70.0,0.25,61,110.0
580,E-3,70.0,0.25,61,110.0
581,B-4,70.25,0.25,58,110.0
582,G4,70.25,0.25,58,110.0
583,F4,70.5,0.25,64,110.0
584,F5,70.5,0.25,64,110.0
585,G3,70.5,0.25,57,110.0
586,B-3,70.5,0.25,57,110.0
587,E-4,70.875,0.125,58,110.0
588,E-5,70.875,0.125,58,110.0
589,F2,71.0,0.5,57,110.0
590,F3,71.0,1.0,68,110.0
591,C#4,71.0,0.25,69,110.0
592,C#5,71.0,0.25,69,110.0
593,G#4,71.25,0.25,58,110.0
594,F4,71.25,0.25,58,110.0
595,G#3,71.5,0.5,62,110.0
596,C#4,71.5,0.25,64,110.0
597,C#5,71.5,0.25,64,110.0
598,C4,71.875,0.125,58,110.0
599,C5,71.875,0.125,58,110.0
600,F4,72.0,1.0,63,110.0
601,C#2,72.0,0.5,56,110.0
602,C#3,72.0,0.5,56,110.0
603,F3,72.5,0.5,49,110.0
604,B-3,72.5,0.5,49,110.0
605,G4,73.0,0.125,54,110.0
606,C2,73.0,0.5,50,110.0
607,C3,73.0,0.5,50,110.0
608,G#4,73.125,0.125,55,110.0
609,G4,73.25,0.125,55,110.0
610,G#4,73.375,0.125,56,110.0
611,F4,73.5,0.25,56,110.0
612,E3,73.5,0.5,43,110.0
613,C4,73.5,0.5,43,110.0
614,B-3,73.5,0.5,43,110.0
615,G4,73.75,0.25,57,110.0
616,G#4,74.0,0.125,58,110.0
617,F1,74.0,0.5,54,110.0
618,F2,74.0,0.5,54,110.0
619,B-4,74.125,0.125,59,110.0
620,G#4,74.25,0.125,59,110.0
621,B-4,74.375,0.125,60,110.0
622,G4,74.5,0.25,60,110.0
623,F3,74.5,0.5,49,110.0
624,G#3,74.5,0.5,49,110.0
625,C4,74.5,0.5,49,110.0
626,G#4,74.75,0.25,61,110.0
627,A4,75.0,0.25,60,110.0
628,C#4,75.0,0.5,42,110.0
629,G4,75.0,0.5,42,110.0
630,E-2,75.0,0.25,52,110.0
631,E-3,75.0,0.25,52,110.0
632,B-4,75.25,0.25,56,110.0
633,C5,75.5,0.25,56,110.0
634,C#4,75.5,0.5,39,110.0
635,G4,75.5,0.5,39,110.0
636,E-3,75.5,0.5,48,110.0
637,B-3,75.5,0.5,48,110.0
638,C#5,75.75,0.25,56,110.0
639,C4,76.0,0.5,53,110.0
640,G#4,76.0,0.5,53,110.0
641,C5,76.0,0.5,53,110.0
642,G#2,76.0,0.5,47,110.0
643,E-3,76.0,0.5,47,110.0
644,G#3,76.0,0.5,47,110.0
645,B3,76.5,0.375,59,110.0
646,D4,76.5,0.375,59,110.0
647,F4,76.5,0.375,59,110.0
648,G#4,76.5,0.375,59,110.0
649,F5,76.5,0.375,59,110.0
650,C4,76.875,14/125,54,110.0
651,E-4,76.875,14/125,54,110.0
652,G#4,76.875,14/125,54,110.0
653,E-5,76.875,14/125,54,110.0
654,C4,77.0,0.25,61,110.0
655,E-4,77.0,0.25,61,110.0
656,G#4,77.0,0.25,61,110.0
657,E-5,77.0,0.25,61,110.0
658,G#4,77.25,0.5,64,110.0
659,G#5,77.5,0.25,76,110.0
660,G#2,77.5,0.5,61,110.0
661,G#3,77.5,0.5,61,110.0
662,G4,77.875,0.125,64,110.0
663,G5,77.875,0.125,64,110.0
664,F4,78.0,1.0,64,110.0
665,F5,78.0,1.0,64,110.0
666,C#2,78.0,0.5,62,110.0
667,C#3,78.0,0.5,62,110.0
668,F3,78.5,0.5,54,110.0
669,B-3,78.5,0.5,54,110.0
670,G4,79.0,0.25,64,110.0
671,C2,79.0,0.5,64,110.0
672,C3,79.0,0.5,64,110.0
673,G5,79.25,83/1000,65,110.0
674,G#5,79.333,83/1000,66,110.0
675,G5,79.417,83/1000,65,110.0
676,F4,79.5,0.25,61,110.0
677,F5,79.5,0.25,61,110.0
678,B-3,79.5,0.5,55,110.0
679,E4,79.5,0.5,55,110.0
680,C4,79.5,0.5,55,110.0
681,G4,79.75,0.25,62,110.0
682,G5,79.75,0.25,62,110.0
683,G#4,80.0,0.25,64,110.0
684,F1,80.0,0.5,66,110.0
685,F2,80.0,0.5,66,110.0
686,G#5,80.25,83/1000,65,110.0
687,B-5,80.333,83/1000,65,110.0
688,G#5,80.417,83/1000,65,110.0
689,G4,80.5,0.25,66,110.0
690,G5,80.5,0.25,66,110.0
691,G#3,80.5,0.5,67,110.0
692,C4,80.5,0.5,67,110.0
693,F4,80.5,0.5,67,110.0
694,G#4,80.75,0.25,66,110.0
695,G#5,80.75,0.25,66,110.0
696,A4,81.0,0.25,65,110.0
697,E-5,81.0,0.25,65,110.0
698,A5,81.0,0.25,65,110.0
699,E-2,81.0,0.25,64,110.0
700,E-3,81.0,0.25,64,110.0
701,B-4,81.25,0.25,66,110.0
702,B-5,81.25,0.25,66,110.0
703,C5,81.5,0.25,63,110.0
704,G5,81.5,0.25,63,110.0
705,C6,81.5,0.25,63,110.0
706,B-3,81.5,0.5,58,110.0
707,C#4,81.5,0.5,58,110.0
708,E-4,81.5,0.5,58,110.0
709,G4,81.5,0.5,58,110.0
710,C#5,81.75,0.25,64,110.0
711,C#6,81.75,0.25,64,110.0
712,C5,82.0,0.25,67,110.0
713,G#5,82.0,0.25,67,110.0
714,C6,82.0,0.25,67,110.0
715,G#3,82.0,0.25,58,110.0
716,E-4,82.0,0.25,58,110.0
717,G#4,82.0,0.25,58,110.0
718,F5,82.5,0.375,68,110.0
719,G#5,82.5,0.375,68,110.0
720,F6,82.5,0.375,68,110.0
721,G#4,82.5,0.375,64,110.0
722,B3,82.5,0.375,64,110.0
723,D4,82.5,0.375,64,110.0
724,B4,82.5,0.375,64,110.0
725,E-5,82.875,14/125,62,110.0
726,G#5,82.875,14/125,62,110.0
727,E-6,82.875,14/125,62,110.0
728,G#4,82.875,14/125,58,110.0
729,C4,82.875,14/125,58,110.0
730,C5,82.875,14/125,58,110.0
731,E-4,82.875,14/125,58,110.0
732,E-5,83.0,0.25,69,110.0
733,G#5,83.0,0.25,69,110.0
734,E-6,83.0,0.25,69,110.0
735,G#4,83.0,0.25,65,110.0
736,C5,83.0,0.25,65,110.0
737,C4,83.0,0.25,65,110.0
738,E-4,83.0,0.25,65,110.0
739,F3,83.375,0.5,56,110.0
740,E-6,83.375,0.125,60,110.0
741,E-5,83.375,0.125,60,110.0
742,E-4,83.438,0.438,56,110.0
743,A4,83.5,0.375,66,110.0
744,C#5,83.5,0.375,68,110.0
745,A5,83.5,0.375,68,110.0
746,C#6,83.5,0.375,68,110.0
747,B-2,83.875,0.125,60,110.0
748,C5,83.875,0.125,64,110.0
749,C6,83.875,0.125,64,110.0
750,F3,83.938,0.062,60,110.0
751,C#4,84.0,0.375,71,110.0
752,B-2,84.0,0.375,60,110.0
753,F3,84.0,0.375,60,110.0
754,B-4,84.0,0.25,70,110.0
755,B-5,84.0,0.25,70,110.0
756,E-2,84.375,0.5,56,110.0
757,B-2,84.438,0.438,56,110.0
758,F#3,84.5,0.375,66,110.0
759,B-3,84.5,0.375,63,110.0
760,F#4,84.5,0.375,63,110.0
761,B-4,84.5,0.375,63,110.0
762,B-1,84.875,0.5,52,110.0
763,C4,84.875,0.125,64,110.0
764,C5,84.875,0.125,64,110.0
765,F2,84.938,0.5,52,110.0
766,C#3,85.0,0.375,62,110.0
767,C#4,85.0,0.5,66,110.0
768,F4,85.0,0.5,66,110.0
769,C#5,85.0,0.5,66,110.0
770,C#4,85.5,0.375,64,110.0
771,E-4,85.5,0.375,64,110.0
772,F#4,85.5,0.375,64,110.0
773,C#5,85.5,0.375,64,110.0
774,E-1,85.5,0.375,57,110.0
775,E-2,85.5,0.375,57,110.0
776,B-1,85.875,0.5,52,110.0
777,C4,85.875,0.125,64,110.0
778,C5,85.875,0.125,64,110.0
779,F2,85.938,0.438,52,110.0
780,C#3,86.0,0.375,62,110.0
781,B-3,86.0,0.5,67,110.0
782,F4,86.0,0.5,67,110.0
783,B-4,86.0,0.5,67,110.0
784,E-2,86.375,0.5,51,110.0
785,B-2,86.438,0.438,51,110.0
786,E-3,86.5,0.375,61,110.0
787,G#3,86.5,0.375,64,110.0
788,B-3,86.5,0.375,64,110.0
789,E-4,86.5,0.375,64,110.0
790,G#4,86.5,0.375,64,110.0
791,B-1,86.875,0.125,56,110.0
792,F#3,86.875,0.125,62,110.0
793,F#4,86.875,0.125,62,110.0
794,F2,86.938,0.062,56,110.0
795,C#3,87.0,0.375,66,110.0
796,B-1,87.0,0.375,56,110.0
797,F2,87.0,0.375,56,110.0
798,F3,87.0,0.25,64,110.0
799,C#4,87.0,0.25,64,110.0
800,F4,87.0,0.25,64,110.0
801,A2,87.5,0.125,59,110.0
802,A1,87.5,0.125,50,110.0
803,B-2,87.625,0.125,59,110.0
804,B-1,87.625,0.125,50,110.0
805,C3,87.75,0.125,60,110.0
806,C2,87.75,0.125,51,110.0
807,C#3,87.875,0.125,61,110.0
808,C#2,87.875,0.125,51,110.0
809,E-3,88.0,0.125,61,110.0
810,E-2,88.0,0.125,51,110.0
811,F3,88.125,0.125,62,110.0
812,F2,88.125,0.125,52,110.0
813,G3,88.25,0.125,63,110.0
814,G2,88.25,0.125,53,110.0
815,A3,88.375,0.125,63,110.0
816,A2,88.375,0.125,53,110.0
817,B-3,88.5,0.125,64,110.0
818,B-2,88.5,0.125,54,110.0
819,C4,88.625,0.125,65,110.0
820,C3,88.625,0.125,55,110.0
821,C#4,88.75,0.125,65,110.0
822,C#3,88.75,0.125,55,110.0
823,E-4,88.875,0.125,66,110.0
824,E-3,88.875,0.125,56,110.0
825,F4,89.0,0.125,67,110.0
826,F3,89.0,0.125,56,110.0
827,G4,89.125,0.125,67,110.0
828,G3,89.125,0.125,56,110.0
829,A4,89.25,0.125,68,110.0
830,A3,89.25,0.125,57,110.0
831,B-4,89.375,0.125,68,110.0
832,B-3,89.375,0.125,57,110.0
833,C5,89.5,0.125,69,110.0
834,C4,89.5,0.125,58,110.0
835,C#5,89.625,0.125,70,110.0
836,C#4,89.625,0.125,59,110.0
837,E-5,89.75,0.125,70,110.0
838,E-4,89.75,0.125,59,110.0
839,F5,89.875,0.125,71,110.0
840,F4,89.875,0.125,60,110.0
841,G5,90.0,0.125,72,110.0
842,G4,90.0,0.125,61,110.0
843,A5,90.125,0.125,72,110.0
844,A4,90.125,0.125,61,110.0
845,B-5,90.25,0.25,77,110.0
846,B-4,90.25,0.25,77,110.0
847,C6,90.625,0.125,71,110.0
848,C#5,90.75,0.25,72,110.0
849,B-5,90.75,0.25,72,110.0
850,G5,90.75,0.25,72,110.0
851,E-1,90.75,0.25,68,110.0
852,E-2,90.75,0.25,68,110.0
853,A5,91.0,0.25,67,110.0
854,F#5,91.0,0.25,67,110.0
855,C5,91.0,0.25,67,110.0
856,C#5,91.25,0.5,71,110.0
857,G5,91.25,0.5,71,110.0
858,B-5,91.25,0.5,71,110.0
859,E-2,91.25,0.25,61,110.0
860,E-3,91.25,0.25,61,110.0
861,C5,91.75,0.5,67,110.0
862,G5,91.75,0.5,67,110.0
863,C6,91.75,0.5,67,110.0
864,E-3,91.75,0.5,66,110.0
865,E-4,91.75,0.5,66,110.0
866,G#4,92.25,0.5,66,110.0
867,C5,92.25,0.5,66,110.0
868,G#5,92.25,0.5,66,110.0
869,F4,92.25,0.5,63,110.0
870,C4,92.25,0.5,63,110.0
871,F3,92.25,0.5,63,110.0
872,E-4,92.75,0.5,64,110.0
873,G#4,92.75,0.5,64,110.0
874,E-5,92.75,0.5,64,110.0
875,C3,92.75,0.5,59,110.0
876,G#3,92.75,0.5,59,110.0
877,C4,92.75,0.5,59,110.0
878,F4,93.25,0.5,69,110.0
879,G#4,93.25,0.5,69,110.0
880,F5,93.25,0.5,69,110.0
881,C#3,93.25,0.5,68,110.0
882,G#3,93.25,0.5,68,110.0
883,C#4,93.25,0.5,68,110.0
884,G#4,93.75,0.5,65,110.0
885,C5,93.75,0.5,65,110.0
886,G#5,93.75,0.5,65,110.0
887,F2,93.75,0.5,61,110.0
888,F3,93.75,0.5,61,110.0
889,C#4,94.25,0.5,75,110.0
890,F4,94.25,0.5,75,110.0
891,B-4,94.25,0.5,75,110.0
892,C#5,94.25,0.5,75,110.0
893,B-2,94.25,0.5,68,110.0
894,F3,94.25,0.5,68,110.0
895,B-3,94.25,0.5,68,110.0
896,F4,94.75,0.5,72,110.0
897,G#4,94.75,0.5,72,110.0
898,C#5,94.75,0.5,72,110.0
899,F5,94.75,0.5,72,110.0
900,B-1,94.75,0.5,64,110.0
901,B-2,94.75,0.5,64,110.0
902,B-3,95.25,0.5,80,110.0
903,E-4,95.25,0.5,80,110.0
904,G#4,95.25,0.5,80,110.0
905,B-4,95.25,0.5,80,110.0
906,E-2,95.25,0.5,71,110.0
907,E-3,95.25,0.5,71,110.0
908,C#4,95.75,0.5,74,110.0
909,E-4,95.75,0.5,74,110.0
910,G4,95.75,0.5,74,110.0
911,B-4,95.75,0.5,74,110.0
912,E-5,95.75,0.5,74,110.0
913,E-1,95.75,0.5,66,110.0
914,E-2,95.75,0.5,66,110.0
915,F5,96.25,0.75,87,110.0
916,C#6,96.25,0.75,87,110.0
917,F6,96.25,0.75,87,110.0
918,G#1,96.25,0.25,73,110.0
919,G#2,96.25,0.25,73,110.0
920,C4,96.75,0.5,71,110.0
921,E-3,96.75,0.5,71,110.0
922,E-4,96.75,0.5,71,110.0
923,E-5,97.0,9/40,84,110.0
924,C6,97.0,9/40,84,110.0
925,E-6,97.0,9/40,84,110.0
926,E-5,97.25,0.5,84,110.0
927,C6,97.25,0.5,84,110.0
928,E-6,97.25,0.5,84,110.0
929,G#4,97.25,0.5,73,110.0
930,C4,97.25,0.5,73,110.0
931,G#3,97.25,0.5,73,110.0
932,E-4,97.625,0.125,71,110.0
933,E-4,97.75,1/10,71,110.0
934,E-2,97.75,0.125,78,110.0
935,E-3,97.75,0.125,78,110.0
936,F4,97.85,1/10,71,110.0
937,E-4,97.95,1/10,71,110.0
938,D4,98.05,1/10,71,110.0
939,E-4,98.15,1/10,71,110.0
940,G#4,98.25,0.25,87,110.0
941,G#2,98.25,0.25,80,110.0
942,G#3,98.25,0.25,80,110.0
943,C5,98.75,0.25,79,110.0
944,G#5,98.75,0.25,79,110.0
945,C6,98.75,0.25,79,110.0
946,E-1,98.75,0.5,67,110.0
947,E-2,98.75,0.5,67,110.0
948,C#5,99.0,0.25,77,110.0
949,B-5,99.0,0.25,77,110.0
950,C#6,99.0,0.25,77,110.0
951,F5,99.25,0.25,84,110.0
952,C#6,99.25,0.25,84,110.0
953,F6,99.25,0.25,84,110.0
954,G#1,99.25,0.5,73,110.0
955,G#2,99.25,0.5,73,110.0
956,E-5,99.625,14/125,79,110.0
957,C6,99.625,14/125,79,110.0
958,E-6,99.625,14/125,79,110.0
959,E-5,99.75,0.25,80,110.0
960,C6,99.75,0.25,80,110.0
961,E-6,99.75,0.25,80,110.0
962,C4,99.75,0.5,65,110.0
963,E-4,99.75,0.5,65,110.0
964,E-3,99.75,0.5,65,110.0
965,D5,100.0,0.25,79,110.0
966,B5,100.0,0.25,79,110.0
967,D6,100.0,0.25,79,110.0
968,E-5,100.25,0.5,79,110.0
969,C6,100.25,0.5,79,110.0
970,E-6,100.25,0.5,79,110.0
971,G#4,100.25,0.5,71,110.0
972,C4,100.25,0.5,71,110.0
973,G#3,100.25,0.5,71,110.0
974,E-4,100.625,0.125,70,110.0
975,E-4,100.75,1/10,70,110.0
976,E-2,100.75,0.125,74,110.0
977,E-3,100.75,0.125,74,110.0
978,F4,100.85,1/10,70,110.0
979,E-4,100.95,1/10,70,110.0
980,D4,101.05,1/10,70,110.0
981,E-4,101.15,1/10,70,110.0
982,G#4,101.25,0.25,87,110.0
983,G#2,101.25,0.25,80,110.0
984,G#3,101.25,0.25,80,110.0
985,C6,101.75,0.25,79,110.0
986,C5,101.75,0.25,79,110.0
987,G#5,101.75,0.25,79,110.0
988,E-1,101.75,0.5,67,110.0
989,E-2,101.75,0.5,67,110.0
990,C#6,102.0,0.25,77,110.0
991,C#5,102.0,0.25,77,110.0
992,B-5,102.0,0.25,77,110.0
993,C#6,102.25,0.25,84,110.0
994,F6,102.25,0.25,84,110.0
995,F5,102.25,0.25,84,110.0
996,G#1,102.25,0.5,73,110.0
997,G#2,102.25,0.5,73,110.0
998,E-6,102.5,0.125,88,110.0
999,E-5,102.5,0.5,74,110.0
1000,C6,102.5,0.5,74,110.0
1001,F6,102.625,0.125,81,110.0
1002,E-6,102.75,0.25,93,110.0
1003,C4,102.75,0.5,65,110.0
1004,E-4,102.75,0.5,65,110.0
1005,E-3,102.75,0.5,65,110.0
1006,B5,103.0,0.25,79,110.0
1007,D6,103.0,0.25,79,110.0
1008,D5,103.0,0.25,79,110.0
1009,C#6,103.25,0.25,84,110.0
1010,F6,103.25,0.25,84,110.0
1011,F5,103.25,0.25,84,110.0
1012,G#4,103.25,0.5,71,110.0
1013,C4,103.25,0.5,71,110.0
1014,G#3,103.25,0.5,71,110.0
1015,E-6,103.5,0.125,88,110.0
1016,C6,103.5,0.5,74,110.0
1017,E-5,103.5,0.5,74,110.0
1018,F6,103.625,0.125,81,110.0
1019,E-6,103.75,0.25,93,110.0
1020,E-2,103.75,0.25,67,110.0
1021,E-3,103.75,0.25,67,110.0
1022,D5,104.0,0.25,79,110.0
1023,B5,104.0,0.25,79,110.0
1024,D6,104.0,0.25,79,110.0
1025,E-5,104.25,0.375,79,110.0
1026,C6,104.25,0.375,79,110.0
1027,E-6,104.25,0.375,79,110.0
1028,G#2,104.25,0.25,70,110.0
1029,G#3,104.25,0.25,70,110.0
1030,E-5,104.625,0.5,72,110.0
1031,E-2,104.625,0.438,62,110.0
1032,B-5,104.688,0.438,72,110.0
1033,B-2,104.688,0.375,62,110.0
1034,F#6,104.75,0.375,85,110.0
1035,F#3,104.75,0.312,74,110.0
1036,F2,105.062,0.188,62,110.0
1037,E-5,105.125,0.125,70,110.0
1038,C3,105.125,0.125,62,110.0
1039,A5,105.188,0.062,70,110.0
1040,E-3,105.188,0.062,74,110.0
1041,F6,105.25,0.375,83,110.0
1042,E-5,105.25,0.375,70,110.0
1043,A5,105.25,0.375,70,110.0
1044,A3,105.25,0.312,74,110.0
1045,F2,105.25,0.312,62,110.0
1046,C3,105.25,0.5,62,110.0
1047,E-3,105.25,0.312,74,110.0
1048,C5,105.562,0.562,70,110.0
1049,F3,105.562,0.5,61,110.0
1050,E-5,105.625,0.5,70,110.0
1051,C4,105.625,0.438,61,110.0
1052,F5,105.688,0.438,70,110.0
1053,E-4,105.688,0.375,73,110.0
1054,C6,105.75,0.375,83,110.0
1055,A4,105.75,0.312,73,110.0
1056,B-4,106.125,0.5,70,110.0
1057,B-2,106.125,0.625,63,110.0
1058,F5,106.188,0.438,70,110.0
1059,F3,106.188,0.562,75,110.0
1060,C#6,106.25,0.375,83,110.0
1061,C#4,106.25,0.5,75,110.0
1062,F#5,106.75,167/1000,80,110.0
1063,F#2,106.75,0.5,66,110.0
1064,F#3,106.75,0.5,66,110.0
1065,F#4,106.917,167/1000,80,110.0
1066,F#5,107.083,167/1000,80,110.0
1067,F4,107.25,0.5,78,110.0
1068,F5,107.25,0.5,78,110.0
1069,F2,107.25,0.5,66,110.0
1070,F3,107.25,0.5,66,110.0
1071,C#4,107.75,0.5,76,110.0
1072,C#5,107.75,0.5,76,110.0
1073,C#2,107.75,0.5,64,110.0
1074,C#3,107.75,0.5,64,110.0
1075,F#5,108.25,0.75,87,110.0
1076,E-6,108.25,0.75,87,110.0
1077,F#6,108.25,0.75,87,110.0
1078,B-1,108.25,0.25,73,110.0
1079,B-2,108.25,0.25,73,110.0
1080,C#4,108.75,0.5,75,110.0
1081,F3,108.75,0.5,75,110.0
1082,F4,108.75,0.5,75,110.0
1083,F5,109.0,9/40,84,110.0
1084,C#6,109.0,9/40,84,110.0
1085,F6,109.0,9/40,84,110.0
1086,F5,109.25,0.5,84,110.0
1087,C#6,109.25,0.5,84,110.0
1088,F6,109.25,0.5,84,110.0
1089,B-4,109.25,0.5,73,110.0
1090,C#4,109.25,0.5,73,110.0
1091,B-3,109.25,0.5,73,110.0
1092,F4,109.625,0.125,71,110.0
1093,F4,109.75,1/10,71,110.0
1094,F2,109.75,0.125,78,110.0
1095,F3,109.75,0.125,78,110.0
1096,F#4,109.85,1/10,71,110.0
1097,F4,109.95,1/10,71,110.0
1098,E4,110.05,1/10,71,110.0
1099,F4,110.15,1/10,71,110.0
1100,B-4,110.25,0.25,87,110.0
1101,B-2,110.25,0.25,80,110.0
1102,B-3,110.25,0.25,80,110.0
1103,C#5,110.75,0.25,79,110.0
1104,C#6,110.75,0.25,79,110.0
1105,B-5,110.75,0.25,79,110.0
1106,F1,110.75,0.5,67,110.0
1107,F2,110.75,0.5,67,110.0
1108,E-5,111.0,0.25,77,110.0
1109,C6,111.0,0.25,77,110.0
1110,E-6,111.0,0.25,77,110.0
1111,F#6,111.25,0.25,84,110.0
1112,F#5,111.25,0.25,84,110.0
1113,E-6,111.25,0.25,84,110.0
1114,B-1,111.25,0.5,73,110.0
1115,B-2,111.25,0.5,73,110.0
1116,F5,111.625,14/125,79,110.0
1117,C#6,111.625,14/125,79,110.0
1118,F6,111.625,14/125,79,110.0
1119,C#6,111.75,0.25,80,110.0
1120,F5,111.75,0.25,80,110.0
1121,F6,111.75,0.25,80,110.0
1122,C#4,111.75,0.5,65,110.0
1123,F4,111.75,0.5,65,110.0
1124,F3,111.75,0.5,65,110.0
1125,E5,112.0,0.25,79,110.0
1126,E6,112.0,0.25,79,110.0
1127,C6,112.0,0.25,79,110.0
1128,F5,112.25,0.5,83,110.0
1129,C#6,112.25,0.5,83,110.0
1130,F6,112.25,0.5,83,110.0
1131,B-4,112.25,0.5,71,110.0
1132,C#4,112.25,0.5,71,110.0
1133,B-3,112.25,0.5,71,110.0
1134,F4,112.625,0.125,71,110.0
1135,F4,112.75,1/10,71,110.0
1136,F2,112.75,0.125,74,110.0
1137,F3,112.75,0.125,74,110.0
1138,F#4,112.85,1/10,71,110.0
1139,F4,112.95,1/10,71,110.0
1140,E4,113.05,1/10,71,110.0
1141,F4,113.15,1/10,71,110.0
1142,B-4,113.25,0.5,87,110.0
1143,B-2,113.25,0.25,80,110.0
1144,B-3,113.25,0.25,80,110.0
1145,G5,113.75,0.25,86,110.0
1146,G6,113.75,0.25,86,110.0
1147,C#6,113.75,0.25,86,110.0
1148,B-1,113.75,0.5,67,110.0
1149,B-2,113.75,0.5,67,110.0
1150,G#5,114.0,0.25,87,110.0
1151,G#6,114.0,0.25,87,110.0
1152,C6,114.25,0.25,93,110.0
1153,C7,114.25,0.25,93,110.0
1154,E-1,114.25,0.25,73,110.0
1155,E-2,114.25,0.25,73,110.0
1156,E-6,114.5,0.25,81,110.0
1157,G6,114.5,0.25,81,110.0
1158,C5,114.75,0.25,72,110.0
1159,C7,114.75,0.25,86,110.0
1160,C6,114.75,0.25,86,110.0
1161,G4,114.75,0.5,60,110.0
1162,C#4,114.75,0.5,60,110.0
1163,E-4,114.75,0.5,60,110.0
1164,B-4,115.0,0.25,70,110.0
1165,B-6,115.125,14/125,85,110.0
1166,B-5,115.125,14/125,85,110.0
1167,E-3,115.25,0.25,75,110.0
1168,B-5,115.25,0.25,89,110.0
1169,B-6,115.25,0.25,89,110.0
1170,C6,115.5,0.25,77,110.0
1171,E-6,115.5,0.25,77,110.0
1172,B-4,115.75,0.25,72,110.0
1173,B-6,115.75,0.25,82,110.0
1174,B-5,115.75,0.25,82,110.0
1175,C4,115.75,0.5,64,110.0
1176,E-4,115.75,0.5,64,110.0
1177,G#4,116.0,0.25,70,110.0
1178,G#5,116.125,14/125,74,110.0
1179,G#6,116.125,14/125,74,110.0
1180,E-3,116.25,0.25,73,110.0
1181,G#5,116.25,0.25,86,110.0
1182,G#6,116.25,0.25,86,110.0
1183,E-6,116.5,0.25,73,110.0
1184,B-5,116.5,0.25,73,110.0
1185,G#4,116.75,0.25,72,110.0
1186,G#6,116.75,0.25,81,110.0
1187,G#5,116.75,0.25,81,110.0
1188,B-3,116.75,0.5,62,110.0
1189,E-4,116.75,0.5,62,110.0
1190,G4,117.0,0.25,70,110.0
1191,G6,117.125,14/125,73,110.0
1192,G5,117.125,14/125,73,110.0
1193,B-2,117.25,0.25,70,110.0
1194,G5,117.25,0.25,82,110.0
1195,G6,117.25,0.25,82,110.0
1196,D6,117.5,0.25,72,110.0
1197,B-5,117.5,0.25,72,110.0
1198,G4,117.75,0.25,72,110.0
1199,G5,117.75,0.25,78,110.0
1200,G6,117.75,0.25,78,110.0
1201,G#3,117.75,0.5,59,110.0
1202,D4,117.75,0.5,59,110.0
1203,B-3,117.75,0.5,59,110.0
1204,F4,118.0,0.25,70,110.0
1205,F6,118.125,14/125,74,110.0
1206,F5,118.125,14/125,74,110.0
1207,E-3,118.25,0.25,72,110.0
1208,F6,118.25,0.25,80,110.0
1209,F5,118.25,0.25,80,110.0
1210,B-5,118.5,0.25,70,110.0
1211,G5,118.5,0.25,70,110.0
1212,F4,118.75,0.25,72,110.0
1213,F5,118.75,0.25,76,110.0
1214,F6,118.75,0.25,76,110.0
1215,G3,118.75,0.5,62,110.0
1216,B-3,118.75,0.5,62,110.0
1217,E-4,119.0,0.25,70,110.0
1218,E-5,119.125,0.125,70,110.0
1219,E-6,119.125,0.125,70,110.0
1220,F2,119.25,0.5,62,110.0
1221,F3,119.25,1.0,74,110.0
1222,C#5,119.25,0.25,82,110.0
1223,C#6,119.25,0.25,82,110.0
1224,F5,119.5,0.25,70,110.0
1225,G#5,119.5,0.25,70,110.0
1226,C#4,119.75,0.25,72,110.0
1227,G#3,119.75,0.5,68,110.0
1228,C#6,119.75,0.25,77,110.0
1229,C#5,119.75,0.25,77,110.0
1230,C4,120.0,0.25,70,110.0
1231,C6,120.125,0.125,68,110.0
1232,C5,120.125,0.125,68,110.0
1233,F4,120.25,1.0,92,110.0
1234,C#2,120.25,0.5,68,110.0
1235,C#3,120.25,0.5,68,110.0
1236,F3,120.75,0.5,60,110.0
1237,B-3,120.75,0.5,60,110.0
1238,G4,121.25,0.125,70,110.0
1239,C2,121.25,0.5,69,110.0
1240,C3,121.25,0.5,69,110.0
1241,G#4,121.375,0.125,71,110.0
1242,G4,121.5,0.125,71,110.0
1243,G#4,121.625,0.125,72,110.0
1244,F4,121.75,0.25,72,110.0
1245,E3,121.75,0.5,61,110.0
1246,C4,121.75,0.5,61,110.0
1247,B-3,121.75,0.5,61,110.0
1248,G4,122.0,0.25,73,110.0
1249,G#4,122.25,0.125,75,110.0
1250,F1,122.25,0.5,72,110.0
1251,F2,122.25,0.5,72,110.0
1252,B-4,122.375,0.125,75,110.0
1253,G#4,122.5,0.125,77,110.0
1254,B-4,122.625,0.125,77,110.0
1255,G4,122.75,0.25,78,110.0
1256,F3,122.75,0.5,73,110.0
1257,G#3,122.75,0.5,73,110.0
1258,C4,122.75,0.5,73,110.0
1259,G#4,123.0,0.25,79,110.0
1260,A4,123.25,0.25,82,110.0
1261,C#4,123.25,0.5,48,110.0
1262,G4,123.25,0.5,48,110.0
1263,E-2,123.25,0.25,63,110.0
1264,E-3,123.25,0.25,63,110.0
1265,B-4,123.5,0.25,77,110.0
1266,C5,123.75,0.25,77,110.0
1267,C#4,123.75,0.5,44,110.0
1268,G4,123.75,0.5,44,110.0
1269,E-3,123.75,0.5,58,110.0
1270,B-3,123.75,0.5,58,110.0
1271,C#5,124.0,0.25,77,110.0
1272,C4,124.25,0.5,73,110.0
1273,G#4,124.25,0.5,73,110.0
1274,C5,124.25,0.5,73,110.0
1275,G#2,124.25,0.5,64,110.0
1276,E-3,124.25,0.5,64,110.0
1277,G#3,124.25,0.5,64,110.0
1278,F5,124.75,0.375,73,110.0
1279,B3,124.75,0.375,73,110.0
1280,D4,124.75,0.375,73,110.0
1281,F4,124.75,0.375,73,110.0
1282,G#4,124.75,0.375,73,110.0
1283,E-4,125.125,14/125,66,110.0
1284,C4,125.125,14/125,66,110.0
1285,E-5,125.125,14/125,66,110.0
1286,G#4,125.125,14/125,66,110.0
1287,C4,125.25,0.25,74,110.0
1288,E-5,125.25,0.25,74,110.0
1289,E-4,125.25,0.25,74,110.0
1290,G#4,125.25,0.25,74,110.0
1291,G#4,125.5,0.5,79,110.0
1292,G#5,125.75,0.25,83,110.0
1293,G#2,125.75,0.5,66,110.0
1294,G#3,125.75,0.5,66,110.0
1295,G4,126.125,0.125,70,110.0
1296,G5,126.125,0.125,70,110.0
1297,F4,126.25,1.0,70,110.0
1298,F5,126.25,1.0,70,110.0
1299,C#2,126.25,0.5,68,110.0
1300,C#3,126.25,0.5,68,110.0
1301,F3,126.75,0.5,60,110.0
1302,B-3,126.75,0.5,60,110.0
1303,G4,127.25,0.25,70,110.0
1304,C2,127.25,0.5,69,110.0
1305,C3,127.25,0.5,69,110.0
1306,G5,127.5,83/1000,71,110.0
1307,G#5,127.583,83/1000,72,110.0
1308,G5,127.667,83/1000,71,110.0
1309,F4,127.75,0.25,66,110.0
1310,F5,127.75,0.25,66,110.0
1311,B-3,127.75,0.5,61,110.0
1312,E4,127.75,0.5,61,110.0
1313,C4,127.75,0.5,61,110.0
1314,G4,128.0,0.25,67,110.0
1315,G5,128.0,0.25,67,110.0
1316,G#4,128.25,0.25,70,110.0
1317,F1,128.25,0.5,72,110.0
1318,F2,128.25,0.5,72,110.0
1319,G#5,128.5,83/1000,71,110.0
1320,B-5,128.583,83/1000,71,110.0
1321,G#5,128.667,83/1000,71,110.0
1322,G4,128.75,0.25,72,110.0
1323,G5,128.75,0.25,72,110.0
1324,G#3,128.75,0.5,73,110.0
1325,C4,128.75,0.5,73,110.0
1326,F4,128.75,0.5,73,110.0
1327,G#4,129.0,0.25,73,110.0
1328,G#5,129.0,0.25,73,110.0
1329,A4,129.25,0.25,73,110.0
1330,E-5,129.25,0.25,73,110.0
1331,A5,129.25,0.25,73,110.0
1332,E-2,129.25,0.25,70,110.0
1333,E-3,129.25,0.25,70,110.0
1334,B-4,129.5,0.25,73,110.0
1335,B-5,129.5,0.25,73,110.0
1336,C5,129.75,0.25,68,110.0
1337,G5,129.75,0.25,68,110.0
1338,C6,129.75,0.25,68,110.0
1339,B-3,129.75,0.5,63,110.0
1340,C#4,129.75,0.5,63,110.0
1341,E-4,129.75,0.5,63,110.0
1342,G4,129.75,0.5,63,110.0
1343,C#5,130.0,0.25,70,110.0
1344,C#6,130.0,0.25,70,110.0
1345,C5,130.25,0.25,73,110.0
1346,G#5,130.25,0.25,73,110.0
1347,C6,130.25,0.25,73,110.0
1348,G#3,130.25,0.25,64,110.0
1349,E-4,130.25,0.25,64,110.0
1350,G#4,130.25,0.25,64,110.0
1351,F5,130.75,0.375,74,110.0
1352,G#5,130.75,0.375,74,110.0
1353,F6,130.75,0.375,74,110.0
1354,G#4,130.75,0.375,70,110.0
1355,B3,130.75,0.375,70,110.0
1356,D4,130.75,0.375,70,110.0
1357,B4,130.75,0.375,70,110.0
1358,E-5,131.125,14/125,67,110.0
1359,G#5,131.125,14/125,67,110.0
1360,E-6,131.125,14/125,67,110.0
1361,G#4,131.125,14/125,63,110.0
1362,C4,131.125,14/125,63,110.0
1363,C5,131.125,14/125,63,110.0
1364,E-4,131.125,14/125,63,110.0
1365,E-5,131.25,0.25,75,110.0
1366,G#5,131.25,0.25,75,110.0
1367,E-6,131.25,0.25,75,110.0
1368,G#4,131.25,0.25,71,110.0
1369,C5,131.25,0.25,71,110.0
1370,C4,131.25,0.25,71,110.0
1371,E-4,131.25,0.25,71,110.0
1372,F3,131.562,0.562,61,110.0
1373,C4,131.625,0.5,61,110.0
1374,E-6,131.625,0.125,66,110.0
1375,E-5,131.625,0.125,66,110.0
1376,E-4,131.688,0.438,61,110.0
1377,A4,131.75,0.375,72,110.0
1378,C#5,131.75,0.375,74,110.0
1379,A5,131.75,0.375,74,110.0
1380,C#6,131.75,0.375,74,110.0
1381,B-2,132.125,0.125,66,110.0
1382,C5,132.125,0.125,70,110.0
1383,C6,132.125,0.125,70,110.0
1384,F3,132.188,0.062,66,110.0
1385,C#4,132.25,0.375,78,110.0
1386,B-2,132.25,0.375,66,110.0
1387,F3,132.25,0.375,66,110.0
1388,B-4,132.25,0.25,76,110.0
1389,B-5,132.25,0.25,76,110.0
1390,E-3,132.625,0.5,61,110.0
1391,B-3,132.688,0.438,61,110.0
1392,F#4,132.75,0.375,72,110.0
1393,B-4,132.75,0.375,68,110.0
1394,F#5,132.75,0.375,68,110.0
1395,B-5,132.75,0.375,68,110.0
1396,B-2,133.125,0.5,57,110.0
1397,C5,133.125,0.125,70,110.0
1398,C6,133.125,0.125,70,110.0
1399,F3,133.188,0.438,57,110.0
1400,C#4,133.25,0.375,68,110.0
1401,C#5,133.25,0.5,72,110.0
1402,F5,133.25,0.5,72,110.0
1403,C#6,133.25,0.5,72,110.0
1404,E-2,133.625,0.5,57,110.0
1405,B-2,133.688,0.438,57,110.0
1406,F#3,133.75,0.375,68,110.0
1407,E-5,133.75,0.375,70,110.0
1408,C#5,133.75,0.375,70,110.0
1409,C#6,133.75,0.375,70,110.0
1410,F#5,133.75,0.375,70,110.0
1411,B-1,134.125,0.5,57,110.0
1412,C5,134.125,0.125,69,110.0
1413,C6,134.125,0.125,69,110.0
1414,F2,134.188,0.438,57,110.0
1415,C#3,134.25,0.375,68,110.0
1416,B-4,134.25,0.5,73,110.0
1417,F5,134.25,0.5,73,110.0
1418,B-5,134.25,0.5,73,110.0
1419,E-2,134.625,0.5,56,110.0
1420,B-2,134.688,0.438,56,110.0
1421,F#3,134.75,0.375,67,110.0
1422,G#4,134.75,0.375,70,110.0
1423,E-5,134.75,0.375,70,110.0
1424,G#5,134.75,0.375,70,110.0
1425,B-4,134.75,0.375,70,110.0
1426,B-2,135.125,0.125,61,110.0
1427,F#4,135.125,0.125,68,110.0
1428,F#5,135.125,0.125,68,110.0
1429,F3,135.188,0.062,61,110.0
1430,C#4,135.25,0.375,72,110.0
1431,B-2,135.25,0.375,61,110.0
1432,F3,135.25,0.375,61,110.0
1433,C#5,135.25,0.25,70,110.0
1434,F5,135.25,0.25,70,110.0
1435,F4,135.25,0.25,70,110.0
1436,A2,135.75,0.125,64,110.0
1437,A1,135.75,0.125,55,110.0
1438,B-2,135.875,0.125,64,110.0
1439,B-1,135.875,0.125,55,110.0
1440,C3,136.0,0.125,66,110.0
1441,C2,136.0,0.125,56,110.0
1442,C#3,136.125,0.125,67,110.0
1443,C#2,136.125,0.125,56,110.0
1444,E-3,136.25,0.125,67,110.0
1445,E-2,136.25,0.125,56,110.0
1446,F3,136.375,0.125,68,110.0
1447,F2,136.375,0.125,57,110.0
1448,G3,136.5,0.125,69,110.0
1449,G2,136.5,0.125,58,110.0
1450,A3,136.625,0.125,69,110.0
1451,A2,136.625,0.125,58,110.0
1452,B-3,136.75,0.125,70,110.0
1453,B-2,136.75,0.125,59,110.0
1454,C4,136.875,0.125,71,110.0
1455,C3,136.875,0.125,60,110.0
1456,C#4,137.0,0.125,71,110.0
1457,C#3,137.0,0.125,60,110.0
1458,E-4,137.125,0.125,72,110.0
1459,E-3,137.125,0.125,61,110.0
1460,F4,137.25,0.125,73,110.0
1461,F3,137.25,0.125,61,110.0
1462,G4,137.375,0.125,73,110.0
1463,G3,137.375,0.125,61,110.0
1464,A4,137.5,0.125,74,110.0
1465,A3,137.5,0.125,62,110.0
1466,B-4,137.625,0.125,74,110.0
1467,B-3,137.625,0.125,62,110.0
1468,C5,137.75,0.125,75,110.0
1469,C4,137.75,0.125,63,110.0
1470,C#5,137.875,0.125,77,110.0
1471,C#4,137.875,0.125,64,110.0
1472,E-5,138.0,0.125,77,110.0
1473,E-4,138.0,0.125,64,110.0
1474,F5,138.125,0.125,78,110.0
1475,F4,138.125,0.125,66,110.0
1476,G5,138.25,0.125,77,110.0
1477,G4,138.25,0.125,67,110.0
1478,A5,138.375,0.125,77,110.0
1479,A4,138.375,0.125,65,110.0
1480,B-5,138.5,0.125,78,110.0
1481,B-4,138.5,0.125,66,110.0
1482,C6,138.625,0.125,79,110.0
1483,C5,138.625,0.125,67,110.0
1484,C#6,138.75,0.125,80,110.0
1485,C#5,138.75,0.125,68,110.0
1486,E-6,138.875,0.125,80,110.0
1487,E-5,138.875,0.125,69,110.0
1488,F6,139.0,0.125,81,110.0
1489,F5,139.0,0.125,70,110.0
1490,G6,139.125,0.188,82,110.0
1491,G5,139.125,0.188,71,110.0
1492,A6,139.312,0.188,83,110.0
1493,A5,139.312,0.125,72,110.0
1494,B-6,139.5,0.25,92,110.0
1495,B-5,139.5,0.25,92,110.0
1496,C7,139.875,0.125,85,110.0
1497,C#6,140.0,0.25,86,110.0
1498,B-6,140.0,0.25,86,110.0
1499,G6,140.0,0.25,86,110.0
1500,E-1,140.0,0.25,74,110.0
1501,E-2,140.0,0.25,74,110.0
1502,F#6,140.25,0.25,81,110.0
1503,C6,140.25,0.25,81,110.0
1504,A6,140.25,0.25,81,110.0
1505,C#6,140.5,0.5,85,110.0
1506,G6,140.5,0.5,85,110.0
1507,B-6,140.5,0.5,85,110.0
1508,E-3,140.5,0.25,66,110.0
1509,E-4,140.5,0.25,66,110.0
1510,C6,141.0,0.5,81,110.0
1511,G6,141.0,0.5,81,110.0
1512,C7,141.0,0.5,81,110.0
1513,C5,141.0,0.5,70,110.0
1514,G4,141.0,0.5,70,110.0
1515,E-4,141.0,0.5,70,110.0
1516,E-5,141.0,0.5,70,110.0
1517,G#5,141.5,0.5,79,110.0
1518,C6,141.5,0.5,79,110.0
1519,G#6,141.5,0.5,79,110.0
1520,F5,141.5,0.5,68,110.0
1521,C5,141.5,0.5,68,110.0
1522,F4,141.5,0.5,68,110.0
1523,E-5,142.0,0.5,76,110.0
1524,G#5,142.0,0.5,76,110.0
1525,E-6,142.0,0.5,76,110.0
1526,C4,142.0,0.5,65,110.0
1527,G#4,142.0,0.5,65,110.0
1528,C5,142.0,0.5,65,110.0
1529,F5,142.5,0.25,76,110.0
1530,G#5,142.5,0.25,76,110.0
1531,F6,142.5,0.25,76,110.0
1532,C#4,142.5,0.25,65,110.0
1533,G#4,142.5,0.25,65,110.0
1534,C#5,142.5,0.25,65,110.0
1535,E-4,143.0,1.0,67,110.0
1536,C#4,143.0,0.375,62,110.0
1537,G3,143.0,0.375,62,110.0
1538,E-2,143.0,1.0,64,110.0
1539,E-3,143.0,1.0,64,110.0
1540,G3,143.375,14/125,62,110.0
1541,C#4,143.375,14/125,62,110.0
1542,G3,143.5,1.0,68,110.0
1543,C#4,143.5,1.0,68,110.0
1544,B-4,143.5,1.0,68,110.0
1545,E-1,144.0,0.25,56,110.0
1546,E-2,144.0,0.25,56,110.0
1547,G#3,144.5,0.25,60,110.0
1548,C4,144.5,0.25,60,110.0
1549,G#4,144.5,0.25,60,110.0
1550,G#1,144.5,0.25,56,110.0
1551,G#2,144.5,0.25,56,110.0
1552,C5,145.5,0.25,72,110.0
1553,C6,145.5,0.25,72,110.0
1554,C1,145.5,0.25,51,110.0
1555,C2,145.5,0.25,51,110.0
1556,C4,146.0,0.25,46,110.0
1557,C5,146.0,0.25,46,110.0
1558,C2,146.0,0.25,38,110.0
1559,C3,146.0,0.25,38,110.0
1560,C4,146.375,0.125,44,110.0
1561,C5,146.375,0.125,44,110.0
1562,C2,146.375,0.125,36,110.0
1563,C3,146.375,0.125,36,110.0
1564,C#4,146.5,0.5,50,110.0
1565,C5,146.5,0.5,50,110.0
1566,E2,146.5,0.5,44,110.0
1567,C#3,146.5,0.5,44,110.0
1568,C4,147.0,0.25,46,110.0
1569,C5,147.0,0.25,46,110.0
1570,E1,147.0,0.25,38,110.0
1571,E2,147.0,0.25,38,110.0
1572,C4,147.375,0.125,43,110.0
1573,C5,147.375,0.125,43,110.0
1574,E2,147.375,0.125,40,110.0
1575,C3,147.375,0.125,40,110.0
1576,E-4,147.5,0.5,54,110.0
1577,C5,147.5,0.5,54,110.0
1578,F2,147.5,0.5,44,110.0
1579,E-3,147.5,0.5,44,110.0
1580,C4,148.0,0.25,50,110.0
1581,C5,148.0,0.25,50,110.0
1582,F1,148.0,0.25,43,110.0
1583,F2,148.0,0.25,43,110.0
1584,C#4,148.375,0.125,48,110.0
1585,C5,148.375,0.125,48,110.0
1586,F2,148.375,0.125,41,110.0
1587,C#3,148.375,0.125,41,110.0
1588,F4,148.5,0.5,56,110.0
1589,C5,148.5,0.5,56,110.0
1590,G2,148.5,0.5,48,110.0
1591,F3,148.5,0.5,48,110.0
1592,C4,149.0,0.25,54,110.0
1593,C5,149.0,0.25,54,110.0
1594,G1,149.0,0.25,44,110.0
1595,G2,149.0,0.25,44,110.0
1596,E4,149.375,0.125,51,110.0
1597,C5,149.375,0.125,51,110.0
1598,G2,149.375,0.125,42,110.0
1599,E3,149.375,0.125,42,110.0
1600,G4,149.5,0.5,61,110.0
1601,C5,149.5,0.5,61,110.0
1602,G#2,149.5,0.5,51,110.0
1603,G3,149.5,0.5,51,110.0
1604,C4,150.0,0.25,56,110.0
1605,C5,150.0,0.25,56,110.0
1606,G#1,150.0,0.25,46,110.0
1607,G#2,150.0,0.25,46,110.0
1608,F4,150.375,0.125,52,110.0
1609,C5,150.375,0.125,52,110.0
1610,G#2,150.375,0.125,47,110.0
1611,F3,150.375,0.125,47,110.0
1612,G#4,150.5,0.5,62,110.0
1613,C5,150.5,0.5,62,110.0
1614,G#2,150.5,0.5,52,110.0
1615,G#3,150.5,0.5,52,110.0
1616,C4,151.0,0.25,60,110.0
1617,C5,151.0,0.25,60,110.0
1618,G#1,151.0,0.25,52,110.0
1619,G#2,151.0,0.25,52,110.0
1620,F#4,151.375,0.125,56,110.0
1621,C5,151.375,0.125,56,110.0
1622,G#2,151.375,0.125,48,110.0
1623,F#3,151.375,0.125,48,110.0
1624,G4,151.5,0.5,62,110.0
1625,C5,151.5,0.5,62,110.0
1626,E4,151.5,0.5,62,110.0
1627,E5,151.5,0.5,62,110.0
1628,G2,151.5,0.5,50,110.0
1629,G3,151.5,0.5,50,110.0
1630,C6,152.0,1.0,71,110.0
1631,E6,152.0,1.0,71,110.0
1632,E5,152.0,1.0,71,110.0
1633,G3,152.0,0.125,52,110.0
1634,G4,152.0,0.125,52,110.0
1635,G3,152.25,0.125,54,110.0
1636,G4,152.25,0.125,54,110.0
1637,A3,152.5,0.25,60,110.0
1638,A4,152.5,0.25,60,110.0
1639,G3,152.75,0.25,56,110.0
1640,G4,152.75,0.25,56,110.0
1641,D5,153.0,0.25,66,110.0
1642,B5,153.0,0.25,66,110.0
1643,D6,153.0,0.25,66,110.0
1644,G3,153.0,0.125,56,110.0
1645,G4,153.0,0.125,56,110.0
1646,E5,153.25,0.25,69,110.0
1647,C6,153.25,0.25,69,110.0
1648,E6,153.25,0.25,69,110.0
1649,G3,153.25,0.125,56,110.0
1650,G4,153.25,0.125,56,110.0
1651,F6,153.5,0.5,71,110.0
1652,D6,153.5,0.5,71,110.0
1653,F5,153.5,0.5,71,110.0
1654,G3,153.5,0.25,65,110.0
1655,G4,153.5,0.25,65,110.0
1656,E5,154.0,0.375,71,110.0
1657,G5,154.0,0.375,71,110.0
1658,E6,154.0,0.375,71,110.0
1659,D4,154.0,0.5,53,110.0
1660,F4,154.0,0.5,53,110.0
1661,G4,154.0,0.5,53,110.0
1662,B4,154.0,0.5,53,110.0
1663,D5,154.375,0.125,68,110.0
1664,D6,154.375,0.125,68,110.0
1665,E5,154.5,0.5,68,110.0
1666,C6,154.5,0.5,68,110.0
1667,E6,154.5,0.5,68,110.0
1668,C4,154.5,0.5,49,110.0
1669,G4,154.5,0.5,49,110.0
1670,C5,154.5,0.5,49,110.0
1671,C4,155.0,0.125,59,110.0
1672,C3,155.0,0.125,50,110.0
1673,E4,155.125,0.125,61,110.0
1674,E3,155.125,0.125,51,110.0
1675,G4,155.25,0.125,62,110.0
1676,G3,155.25,0.125,52,110.0
1677,B4,155.375,0.125,63,110.0
1678,B3,155.375,0.125,53,110.0
1679,C5,155.5,0.125,64,110.0
1680,C4,155.5,0.125,54,110.0
1681,E5,155.625,0.125,66,110.0
1682,E4,155.625,0.125,56,110.0
1683,G5,155.75,0.125,68,110.0
1684,G4,155.75,0.125,57,110.0
1685,B5,155.875,0.125,68,110.0
1686,B4,155.875,0.125,57,110.0
1687,C6,156.0,0.125,70,110.0
1688,C5,156.0,0.25,62,110.0
1689,E6,156.125,0.125,72,110.0
1690,G6,156.25,0.125,73,110.0
1691,C4,156.25,0.25,56,110.0
1692,C7,156.375,0.125,74,110.0
1693,C#6,156.5,0.5,69,110.0
1694,C#7,156.5,0.5,69,110.0
1695,C#4,156.5,0.5,54,110.0
1696,C#5,156.5,0.5,54,110.0
1697,D6,157.0,0.5,73,110.0
1698,D7,157.0,0.5,73,110.0
1699,D4,157.0,0.5,57,110.0
1700,D5,157.0,0.5,57,110.0
1701,E-6,157.5,0.25,76,110.0
1702,E-7,157.5,0.25,76,110.0
1703,E-4,157.5,0.25,60,110.0
1704,E-5,157.5,0.25,60,110.0
1705,E-4,158.0,0.25,46,110.0
1706,E-5,158.0,0.25,46,110.0
1707,E-2,158.0,0.25,38,110.0
1708,E-3,158.0,0.25,38,110.0
1709,E-4,158.375,0.125,44,110.0
1710,E-5,158.375,0.125,44,110.0
1711,E-2,158.375,0.125,36,110.0
1712,E-3,158.375,0.125,36,110.0
1713,E4,158.5,0.5,50,110.0
1714,E-5,158.5,0.5,50,110.0
1715,G2,158.5,0.5,44,110.0
1716,E3,158.5,0.5,44,110.0
1717,E-4,159.0,0.25,46,110.0
1718,E-5,159.0,0.25,46,110.0
1719,G1,159.0,0.25,38,110.0
1720,G2,159.0,0.25,38,110.0
1721,E-4,159.375,0.125,43,110.0
1722,E-5,159.375,0.125,43,110.0
1723,G2,159.375,0.125,40,110.0
1724,E-3,159.375,0.125,40,110.0
1725,F#4,159.5,0.5,54,110.0
1726,E-5,159.5,0.5,54,110.0
1727,G#2,159.5,0.5,44,110.0
1728,F#3,159.5,0.5,44,110.0
1729,E-4,160.0,0.25,50,110.0
1730,E-5,160.0,0.25,50,110.0
1731,G#1,160.0,0.25,43,110.0
1732,G#2,160.0,0.25,43,110.0
1733,E4,160.375,0.125,48,110.0
1734,E-5,160.375,0.125,48,110.0
1735,G#2,160.375,0.125,41,110.0
1736,E3,160.375,0.125,41,110.0
1737,G#4,160.5,0.5,56,110.0
1738,E-5,160.5,0.5,56,110.0
1739,B-2,160.5,0.5,48,110.0
1740,G#3,160.5,0.5,48,110.0
1741,E-4,161.0,0.25,54,110.0
1742,E-5,161.0,0.25,54,110.0
1743,B-1,161.0,0.25,44,110.0
1744,B-2,161.0,0.25,44,110.0
1745,G4,161.375,0.125,51,110.0
1746,E-5,161.375,0.125,51,110.0
1747,B-2,161.375,0.125,42,110.0
1748,G3,161.375,0.125,42,110.0
1749,B-4,161.5,0.5,61,110.0
1750,E-5,161.5,0.5,61,110.0
1751,B2,161.5,0.5,51,110.0
1752,B-3,161.5,0.5,51,110.0
1753,E-4,162.0,0.25,56,110.0
1754,E-5,162.0,0.25,56,110.0
1755,B1,162.0,0.25,46,110.0
1756,B2,162.0,0.25,46,110.0
1757,G#4,162.375,0.125,52,110.0
1758,E-5,162.375,0.125,52,110.0
1759,B2,162.375,0.125,47,110.0
1760,G#3,162.375,0.125,47,110.0
1761,B4,162.5,0.5,62,110.0
1762,E-5,162.5,0.5,62,110.0
1763,B2,162.5,0.5,52,110.0
1764,B3,162.5,0.5,52,110.0
1765,E-4,163.0,0.25,60,110.0
1766,E-5,163.0,0.25,60,110.0
1767,B1,163.0,0.25,52,110.0
1768,B2,163.0,0.25,52,110.0
1769,A4,163.375,0.125,56,110.0
1770,E-5,163.375,0.125,56,110.0
1771,B2,163.375,0.125,48,110.0
1772,A3,163.375,0.125,48,110.0
1773,B-4,163.5,0.5,62,110.0
1774,E-5,163.5,0.5,62,110.0
1775,G4,163.5,0.5,62,110.0
1776,G5,163.5,0.5,62,110.0
1777,B-2,163.5,0.5,50,110.0
1778,B-3,163.5,0.5,50,110.0
1779,E-6,164.0,1.0,71,110.0
1780,G6,164.0,1.0,71,110.0
1781,G5,164.0,1.0,71,110.0
1782,B-3,164.0,0.125,52,110.0
1783,B-4,164.0,0.125,52,110.0
1784,B-3,164.25,0.125,54,110.0
1785,B-4,164.25,0.125,54,110.0
1786,C4,164.5,0.25,60,110.0
1787,C5,164.5,0.25,60,110.0
1788,B-3,164.75,0.25,56,110.0
1789,B-4,164.75,0.25,56,110.0
1790,F#5,165.0,0.25,66,110.0
1791,D6,165.0,0.25,66,110.0
1792,F#6,165.0,0.25,66,110.0
1793,B-3,165.0,0.125,56,110.0
1794,B-4,165.0,0.125,56,110.0
1795,G5,165.25,0.25,69,110.0
1796,E-6,165.25,0.25,69,110.0
1797,G6,165.25,0.25,69,110.0
1798,B-3,165.25,0.125,56,110.0
1799,B-4,165.25,0.125,56,110.0
1800,G#6,165.5,0.5,71,110.0
1801,D6,165.5,0.5,71,110.0
1802,G#5,165.5,0.5,71,110.0
1803,B-3,165.5,0.25,65,110.0
1804,B-4,165.5,0.25,65,110.0
1805,B-3,165.812,0.688,53,110.0
1806,F4,165.875,0.625,53,110.0
1807,G#4,165.938,0.562,53,110.0
1808,D5,166.0,0.5,53,110.0
1809,G5,166.0,0.375,71,110.0
1810,D6,166.0,0.375,71,110.0
1811,G6,166.0,0.375,71,110.0
1812,F5,166.375,0.125,68,110.0
1813,F6,166.375,0.125,68,110.0
1814,G5,166.5,0.5,68,110.0
1815,E-6,166.5,0.5,68,110.0
1816,G6,166.5,0.5,68,110.0
1817,E-4,166.5,0.5,49,110.0
1818,G4,166.5,0.5,49,110.0
1819,E-5,166.5,0.5,49,110.0
1820,G#4,167.0,0.5,56,110.0
1821,G5,167.0,0.375,67,110.0
1822,E-3,167.0,0.5,43,110.0
1823,B3,167.0,0.5,43,110.0
1824,E-4,167.0,0.5,43,110.0
1825,F5,167.375,0.125,63,110.0
1826,G4,167.5,0.5,54,110.0
1827,E-5,167.5,0.5,54,110.0
1828,E-3,167.5,0.5,40,110.0
1829,B-3,167.5,0.5,40,110.0
1830,E-4,167.5,0.5,40,110.0
1831,G#3,168.0,0.5,56,110.0
1832,G4,168.0,0.375,67,110.0
1833,E-2,168.0,0.5,43,110.0
1834,B2,168.0,0.5,43,110.0
1835,E-3,168.0,0.5,43,110.0
1836,F4,168.375,0.125,63,110.0
1837,G3,168.5,0.5,54,110.0
1838,E-4,168.5,0.5,54,110.0
1839,E-2,168.5,0.5,40,110.0
1840,B-2,168.5,0.5,40,110.0
1841,E-3,168.5,0.5,40,110.0
1842,E-1,169.0,0.25,45,110.0
1843,E-2,169.0,0.25,45,110.0
1844,F4,169.5,2.0,68,110.0
1845,C#1,169.5,0.25,54,110.0
1846,C#2,169.5,0.25,54,110.0
1847,F3,170.0,0.188,42,110.0
1848,G3,170.0,0.188,42,110.0
1849,F3,170.25,0.188,43,110.0
1850,G3,170.25,0.188,43,110.0
1851,F3,170.5,0.375,45,110.0
1852,G3,170.5,0.375,45,110.0
1853,F3,171.0,0.375,42,110.0
1854,G3,171.0,0.375,42,110.0
1855,B-3,171.5,1.0,63,110.0
1856,F3,171.5,0.375,42,110.0
1857,G3,171.5,0.375,42,110.0
1858,F3,172.0,0.375,42,110.0
1859,G3,172.0,0.375,42,110.0
1860,C4,172.5,1.5,67,110.0
1861,C2,172.5,0.5,45,110.0
1862,C3,172.5,2.0,53,110.0
1863,E3,173.0,0.188,43,110.0
1864,G3,173.0,0.188,43,110.0
1865,E3,173.25,0.188,43,110.0
1866,G3,173.25,0.188,43,110.0
1867,E3,173.5,0.375,46,110.0
1868,G3,173.5,0.375,46,110.0
1869,C4,174.0,0.375,64,110.0
1870,E3,174.0,0.375,42,110.0
1871,G3,174.0,0.375,42,110.0
1872,C#4,174.375,0.125,62,110.0
1873,C#4,174.5,0.125,53,110.0
1874,B-1,174.5,0.5,50,110.0
1875,B-2,174.5,0.5,50,110.0
1876,E-4,174.625,0.125,54,110.0
1877,C#4,174.75,0.125,56,110.0
1878,E-4,174.875,0.125,56,110.0
1879,C#4,175.0,1/10,57,110.0
1880,G3,175.0,0.5,42,110.0
1881,F3,175.0,0.5,42,110.0
1882,E-4,175.1,1/10,57,110.0
1883,C#4,175.2,1/10,56,110.0
1884,C4,175.3,1/10,56,110.0
1885,C#4,175.4,1/10,55,110.0
1886,C4,175.5,1.5,67,110.0
1887,C2,175.5,0.5,45,110.0
1888,C3,175.5,2.0,53,110.0
1889,E3,176.0,0.188,43,110.0
1890,G3,176.0,0.188,43,110.0
1891,E3,176.25,0.188,43,110.0
1892,G3,176.25,0.188,43,110.0
1893,G3,176.5,0.375,46,110.0
1894,E3,176.5,0.375,46,110.0
1895,C4,177.0,0.375,64,110.0
1896,E3,177.0,0.375,42,110.0
1897,G3,177.0,0.375,42,110.0
1898,C#4,177.375,0.125,62,110.0
1899,C#4,177.5,0.125,53,110.0
1900,B-1,177.5,0.5,50,110.0
1901,B-2,177.5,0.5,50,110.0
1902,E-4,177.625,0.125,54,110.0
1903,C#4,177.75,0.125,56,110.0
1904,E-4,177.875,0.125,56,110.0
1905,C#4,178.0,1/10,57,110.0
1906,F3,178.0,0.5,42,110.0
1907,G3,178.0,0.5,42,110.0
1908,E-4,178.1,1/10,57,110.0
1909,C#4,178.2,1/10,56,110.0
1910,C4,178.3,1/10,56,110.0
1911,C#4,178.4,1/10,55,110.0
1912,C4,178.5,0.5,64,110.0
1913,C3,178.5,0.5,49,110.0
1914,C2,178.5,0.5,49,110.0
1915,D4,179.0,0.25,56,110.0
1916,C4,179.0,0.188,42,110.0
1917,G3,179.0,0.188,42,110.0
1918,B-3,179.0,0.188,42,110.0
1919,E4,179.25,0.25,58,110.0
1920,G3,179.25,0.188,42,110.0
1921,B-3,179.25,0.188,42,110.0
1922,C4,179.25,0.188,42,110.0
1923,F4,179.5,0.5,61,110.0
1924,G3,179.5,0.375,45,110.0
1925,B-3,179.5,0.375,45,110.0
1926,C4,179.5,0.375,45,110.0
1927,G4,180.0,0.5,64,110.0
1928,B-3,180.0,0.375,40,110.0
1929,G3,180.0,0.375,40,110.0
1930,C4,180.0,0.375,40,110.0
1931,B-4,180.5,0.25,63,110.0
1932,F2,180.5,0.5,46,110.0
1933,F3,180.5,1.0,55,110.0
1934,G#4,180.75,0.25,62,110.0
1935,G4,181.0,0.25,61,110.0
1936,G#3,181.0,0.5,42,110.0
1937,C4,181.0,0.5,42,110.0
1938,F4,181.25,0.125,59,110.0
1939,F4,181.375,0.062,49,110.0
1940,F4,181.438,0.062,48,110.0
1941,F5,181.5,2.0,68,110.0
1942,C#2,181.5,0.5,54,110.0
1943,C#3,181.5,0.5,54,110.0
1944,B-3,182.0,0.188,40,110.0
1945,G3,182.0,0.188,40,110.0
1946,F4,182.0,0.188,40,110.0
1947,G3,182.25,0.188,42,110.0
1948,F4,182.25,0.188,42,110.0
1949,B-3,182.25,0.188,42,110.0
1950,B-3,182.5,0.375,44,110.0
1951,G3,182.5,0.375,44,110.0
1952,F4,182.5,0.375,44,110.0
1953,G3,183.0,0.375,40,110.0
1954,B-3,183.0,0.375,40,110.0
1955,F4,183.0,0.375,40,110.0
1956,B-3,183.5,1.0,58,110.0
1957,B-4,183.5,1.0,58,110.0
1958,G3,183.5,0.375,42,110.0
1959,F4,183.5,0.375,42,110.0
1960,F4,184.0,0.375,42,110.0
1961,G3,184.0,0.375,42,110.0
1962,C4,184.5,1.5,62,110.0
1963,C5,184.5,1.5,62,110.0
1964,C2,184.5,0.5,49,110.0
1965,C3,184.5,0.5,49,110.0
1966,E4,185.0,0.188,43,110.0
1967,G3,185.0,0.188,43,110.0
1968,E4,185.25,0.188,43,110.0
1969,G3,185.25,0.188,43,110.0
1970,E4,185.5,0.375,46,110.0
1971,G3,185.5,0.375,46,110.0
1972,C5,186.0,0.375,64,110.0
1973,G3,186.0,0.375,42,110.0
1974,E4,186.0,0.375,42,110.0
1975,C#5,186.375,0.062,62,110.0
1976,C#4,186.438,0.062,49,110.0
1977,C#5,186.5,0.125,53,110.0
1978,B-1,186.5,0.5,50,110.0
1979,B-2,186.5,0.5,50,110.0
1980,E-5,186.625,0.125,54,110.0
1981,C#5,186.75,0.125,56,110.0
1982,E-5,186.875,0.125,56,110.0
1983,C#5,187.0,1/10,57,110.0
1984,G#3,187.0,0.5,40,110.0
1985,F3,187.0,0.5,40,110.0
1986,F4,187.0,0.5,40,110.0
1987,E-5,187.1,1/10,57,110.0
1988,C#5,187.2,1/10,56,110.0
1989,C5,187.3,1/10,56,110.0
1990,C#5,187.4,1/10,55,110.0
1991,C4,187.5,1.5,62,110.0
1992,C5,187.5,1.5,62,110.0
1993,C2,187.5,0.5,49,110.0
1994,C3,187.5,0.5,49,110.0
1995,E4,188.0,0.188,43,110.0
1996,G3,188.0,0.188,43,110.0
1997,E4,188.25,0.188,44,110.0
1998,G3,188.25,0.188,44,110.0
1999,E4,188.5,0.375,46,110.0
2000,G3,188.5,0.375,46,110.0
2001,C5,189.0,0.375,66,110.0
2002,G3,189.0,0.375,42,110.0
2003,E4,189.0,0.375,42,110.0
2004,C#5,189.375,0.062,64,110.0
2005,C#4,189.438,0.062,51,110.0
2006,C#5,189.5,0.125,55,110.0
2007,B-1,189.5,0.5,52,110.0
2008,B-2,189.5,0.5,52,110.0
2009,E-5,189.625,0.125,56,110.0
2010,C#5,189.75,0.125,58,110.0
2011,E-5,189.875,0.125,58,110.0
2012,C#5,190.0,1/10,60,110.0
2013,G#3,190.0,0.5,43,110.0
2014,F4,190.0,0.5,43,110.0
2015,F3,190.0,0.5,43,110.0
2016,E-5,190.1,1/10,60,110.0
2017,C#5,190.2,1/10,59,110.0
2018,C5,190.3,1/10,58,110.0
2019,C#5,190.4,1/10,57,110.0
2020,D5,190.5,0.125,56,110.0
2021,B-1,190.5,0.5,54,110.0
2022,B-2,190.5,0.5,54,110.0
2023,E-5,190.625,0.125,57,110.0
2024,D5,190.75,0.125,59,110.0
2025,E-5,190.875,0.125,60,110.0
2026,D5,191.0,1/10,61,110.0
2027,G#3,191.0,0.5,43,110.0
2028,D4,191.0,0.5,43,110.0
2029,G#4,191.0,0.5,43,110.0
2030,B-3,191.0,0.5,43,110.0
2031,E-5,191.1,1/10,61,110.0
2032,D5,191.2,1/10,61,110.0
2033,C#5,191.3,1/10,60,110.0
2034,D5,191.4,1/10,59,110.0
2035,E-5,191.5,0.125,58,110.0
2036,E-2,191.5,0.5,58,110.0
2037,E-1,191.5,0.5,58,110.0
2038,F5,191.625,0.125,59,110.0
2039,E-5,191.75,0.125,60,110.0
2040,F5,191.875,0.125,62,110.0
2041,E-5,192.0,0.125,62,110.0
2042,C#4,192.0,0.5,48,110.0
2043,B-3,192.0,0.5,48,110.0
2044,E-4,192.0,0.5,48,110.0
2045,G3,192.0,0.5,48,110.0
2046,F5,192.125,0.125,63,110.0
2047,E-5,192.25,0.125,64,110.0
2048,F5,192.375,0.125,65,110.0
2049,E-5,192.5,0.125,66,110.0
2050,B-3,192.5,0.5,60,110.0
2051,C#4,192.5,0.5,60,110.0
2052,E-4,192.5,0.5,60,110.0
2053,G4,192.5,0.5,60,110.0
2054,F5,192.625,0.125,68,110.0
2055,E-5,192.75,0.125,69,110.0
2056,D5,192.875,0.125,69,110.0
2057,E-5,193.0,0.125,67,110.0
2058,C#4,193.0,1.0,52,110.0
2059,E-4,193.0,1.0,52,110.0
2060,G4,193.0,1.0,52,110.0
2061,C#5,193.0,1.0,52,110.0
2062,F5,193.125,0.125,68,110.0
2063,G5,193.25,0.125,70,110.0
2064,G#5,193.375,0.125,71,110.0
2065,B-5,193.5,0.125,72,110.0
2066,C6,193.625,0.125,74,110.0
2067,C#6,193.75,0.125,75,110.0
2068,E-6,193.875,0.125,76,110.0
2069,F5,194.0,0.75,87,110.0
2070,C#6,194.0,0.75,87,110.0
2071,F6,194.0,0.75,87,110.0
2072,G#1,194.0,0.25,73,110.0
2073,G#2,194.0,0.25,73,110.0
2074,C4,194.5,0.5,71,110.0
2075,E-3,194.5,0.5,71,110.0
2076,E-4,194.5,0.5,71,110.0
2077,E-5,194.75,9/40,84,110.0
2078,C6,194.75,9/40,84,110.0
2079,E-6,194.75,9/40,84,110.0
2080,E-5,195.0,0.5,84,110.0
2081,C6,195.0,0.5,84,110.0
2082,E-6,195.0,0.5,84,110.0
2083,G#4,195.0,0.5,73,110.0
2084,C4,195.0,0.5,73,110.0
2085,G#3,195.0,0.5,73,110.0
2086,E-4,195.375,0.125,71,110.0
2087,E-4,195.5,1/10,71,110.0
2088,E-2,195.5,0.125,78,110.0
2089,E-3,195.5,0.125,78,110.0
2090,F4,195.6,1/10,71,110.0
2091,E-4,195.7,1/10,71,110.0
2092,D4,195.8,1/10,71,110.0
2093,E-4,195.9,1/10,71,110.0
2094,G#4,196.0,0.25,87,110.0
2095,G#2,196.0,0.25,80,110.0
2096,G#3,196.0,0.25,80,110.0
2097,C5,196.5,0.25,79,110.0
2098,G#5,196.5,0.25,79,110.0
2099,C6,196.5,0.25,79,110.0
2100,E-1,196.5,0.5,67,110.0
2101,E-2,196.5,0.5,67,110.0
2102,C#5,196.75,0.25,77,110.0
2103,B-5,196.75,0.25,77,110.0
2104,C#6,196.75,0.25,77,110.0
2105,F5,197.0,0.25,84,110.0
2106,C#6,197.0,0.25,84,110.0
2107,F6,197.0,0.25,84,110.0
2108,G#1,197.0,0.5,73,110.0
2109,G#2,197.0,0.5,73,110.0
2110,E-5,197.375,14/125,79,110.0
2111,C6,197.375,14/125,79,110.0
2112,E-6,197.375,14/125,79,110.0
2113,E-5,197.5,0.25,80,110.0
2114,C6,197.5,0.25,80,110.0
2115,E-6,197.5,0.25,80,110.0
2116,C4,197.5,0.5,65,110.0
2117,E-4,197.5,0.5,65,110.0
2118,E-3,197.5,0.5,65,110.0
2119,D5,197.75,0.25,79,110.0
2120,B5,197.75,0.25,79,110.0
2121,D6,197.75,0.25,79,110.0
2122,E-5,198.0,0.5,79,110.0
2123,C6,198.0,0.5,79,110.0
2124,E-6,198.0,0.5,79,110.0
2125,G#4,198.0,0.5,71,110.0
2126,C4,198.0,0.5,71,110.0
2127,G#3,198.0,0.5,71,110.0
2128,E-4,198.375,0.125,70,110.0
2129,E-4,198.5,1/10,70,110.0
2130,E-2,198.5,0.125,74,110.0
2131,E-3,198.5,0.125,74,110.0
2132,F4,198.6,1/10,70,110.0
2133,E-4,198.7,1/10,70,110.0
2134,D4,198.8,1/10,70,110.0
2135,E-4,198.9,1/10,70,110.0
2136,G#4,199.0,0.25,87,110.0
2137,G#2,199.0,0.25,80,110.0
2138,G#3,199.0,0.25,80,110.0
2139,C6,199.5,0.25,79,110.0
2140,C5,199.5,0.25,79,110.0
2141,G#5,199.5,0.25,79,110.0
2142,E-1,199.5,0.5,67,110.0
2143,E-2,199.5,0.5,67,110.0
2144,C#6,199.75,0.25,77,110.0
2145,C#5,199.75,0.25,77,110.0
2146,B-5,199.75,0.25,77,110.0
2147,C#6,200.0,0.25,84,110.0
2148,F6,200.0,0.25,84,110.0
2149,F5,200.0,0.25,84,110.0
2150,G#1,200.0,0.5,73,110.0
2151,G#2,200.0,0.5,73,110.0
2152,E-6,200.25,0.125,88,110.0
2153,E-5,200.25,0.5,74,110.0
2154,C6,200.25,0.5,74,110.0
2155,F6,200.375,0.125,81,110.0
2156,E-6,200.5,0.25,93,110.0
2157,C4,200.5,0.5,65,110.0
2158,E-4,200.5,0.5,65,110.0
2159,E-3,200.5,0.5,65,110.0
2160,B5,200.75,0.25,79,110.0
2161,D6,200.75,0.25,79,110.0
2162,D5,200.75,0.25,79,110.0
2163,C#6,201.0,0.25,84,110.0
2164,F6,201.0,0.25,84,110.0
2165,F5,201.0,0.25,84,110.0
2166,G#4,201.0,0.5,71,110.0
2167,C4,201.0,0.5,71,110.0
2168,G#3,201.0,0.5,71,110.0
2169,E-6,201.25,0.125,88,110.0
2170,C6,201.25,0.5,74,110.0
2171,E-5,201.25,0.5,74,110.0
2172,F6,201.375,0.125,81,110.0
2173,E-6,201.5,0.25,93,110.0
2174,E-2,201.5,0.25,67,110.0
2175,E-3,201.5,0.25,67,110.0
2176,D5,201.75,0.25,79,110.0
2177,B5,201.75,0.25,79,110.0
2178,D6,201.75,0.25,79,110.0
2179,E-5,202.0,0.375,79,110.0
2180,C6,202.0,0.375,79,110.0
2181,E-6,202.0,0.375,79,110.0
2182,G#2,202.0,0.25,70,110.0
2183,G#3,202.0,0.25,70,110.0
2184,E-5,202.375,0.5,72,110.0
2185,E-2,202.375,0.438,62,110.0
2186,B-5,202.438,0.438,72,110.0
2187,B-2,202.438,0.375,62,110.0
2188,F#6,202.5,0.375,85,110.0
2189,F#3,202.5,0.312,74,110.0
2190,F2,202.812,0.188,62,110.0
2191,E-5,202.875,0.125,70,110.0
2192,C3,202.875,0.125,62,110.0
2193,A5,202.938,0.062,70,110.0
2194,E-3,202.938,0.062,74,110.0
2195,F6,203.0,0.375,83,110.0
2196,E-5,203.0,0.375,70,110.0
2197,A5,203.0,0.375,70,110.0
2198,A3,203.0,0.312,74,110.0
2199,F2,203.0,0.312,62,110.0
2200,C3,203.0,0.5,62,110.0
2201,E-3,203.0,0.312,74,110.0
2202,C5,203.312,0.562,70,110.0
2203,F3,203.312,0.5,61,110.0
2204,E-5,203.375,0.5,70,110.0
2205,C4,203.375,0.438,61,110.0
2206,F5,203.438,0.438,70,110.0
2207,E-4,203.438,0.375,73,110.0
2208,C6,203.5,0.375,83,110.0
2209,A4,203.5,0.312,73,110.0
2210,B-4,203.875,0.5,70,110.0
2211,B-2,203.875,0.625,63,110.0
2212,F5,203.938,0.438,70,110.0
2213,F3,203.938,0.562,75,110.0
2214,C#6,204.0,0.375,83,110.0
2215,C#4,204.0,0.5,75,110.0
2216,F#5,204.5,167/1000,80,110.0
2217,F#2,204.5,0.5,66,110.0
2218,F#3,204.5,0.5,66,110.0
2219,F#4,204.667,167/1000,80,110.0
2220,F#5,204.833,167/1000,80,110.0
2221,F4,205.0,0.5,78,110.0
2222,F5,205.0,0.5,78,110.0
2223,F2,205.0,0.5,66,110.0
2224,F3,205.0,0.5,66,110.0
2225,C#4,205.5,0.5,76,110.0
2226,C#5,205.5,0.5,76,110.0
2227,C#2,205.5,0.5,64,110.0
2228,C#3,205.5,0.5,64,110.0
2229,F#5,206.0,0.75,87,110.0
2230,E-6,206.0,0.75,87,110.0
2231,F#6,206.0,0.75,87,110.0
2232,B-1,206.0,0.25,73,110.0
2233,B-2,206.0,0.25,73,110.0
2234,C#4,206.5,0.5,75,110.0
2235,F3,206.5,0.5,75,110.0
2236,F4,206.5,0.5,75,110.0
2237,F5,206.75,9/40,84,110.0
2238,C#6,206.75,9/40,84,110.0
2239,F6,206.75,9/40,84,110.0
2240,F5,207.0,0.5,84,110.0
2241,C#6,207.0,0.5,84,110.0
2242,F6,207.0,0.5,84,110.0
2243,B-4,207.0,0.5,73,110.0
2244,C#4,207.0,0.5,73,110.0
2245,B-3,207.0,0.5,73,110.0
2246,F4,207.375,0.125,71,110.0
2247,F4,207.5,1/10,71,110.0
2248,F2,207.5,0.125,78,110.0
2249,F3,207.5,0.125,78,110.0
2250,F#4,207.6,1/10,71,110.0
2251,F4,207.7,1/10,71,110.0
2252,E4,207.8,1/10,71,110.0
2253,F4,207.9,1/10,71,110.0
2254,B-4,208.0,0.5,87,110.0
2255,B-2,208.0,0.25,80,110.0
2256,B-3,208.0,0.25,80,110.0
2257,C#5,208.5,0.25,79,110.0
2258,C#6,208.5,0.25,79,110.0
2259,B-5,208.5,0.25,79,110.0
2260,F1,208.5,0.5,67,110.0
2261,F2,208.5,0.5,67,110.0
2262,E-5,208.75,0.25,77,110.0
2263,C6,208.75,0.25,77,110.0
2264,E-6,208.75,0.25,77,110.0
2265,F#6,209.0,0.25,84,110.0
2266,F#5,209.0,0.25,84,110.0
2267,E-6,209.0,0.25,84,110.0
2268,B-1,209.0,0.5,73,110.0
2269,B-2,209.0,0.5,73,110.0
2270,F5,209.375,0.125,79,110.0
2271,C#6,209.375,0.125,79,110.0
2272,F6,209.375,0.125,79,110.0
2273,C#6,209.5,0.25,80,110.0
2274,F5,209.5,0.25,80,110.0
2275,F6,209.5,0.25,80,110.0
2276,C#4,209.5,0.5,65,110.0
2277,F4,209.5,0.5,65,110.0
2278,F3,209.5,0.5,65,110.0
2279,E5,209.75,0.25,79,110.0
2280,E6,209.75,0.25,79,110.0
2281,C6,209.75,0.25,79,110.0
2282,F5,210.0,0.5,83,110.0
2283,C#6,210.0,0.5,83,110.0
2284,F6,210.0,0.5,83,110.0
2285,B-4,210.0,0.5,71,110.0
2286,C#4,210.0,0.5,71,110.0
2287,B-3,210.0,0.5,71,110.0
2288,F4,210.375,0.125,71,110.0
2289,F4,210.5,1/10,71,110.0
2290,F2,210.5,0.125,74,110.0
2291,F3,210.5,0.125,74,110.0
2292,F#4,210.6,1/10,71,110.0
2293,F4,210.7,1/10,71,110.0
2294,E4,210.8,1/10,71,110.0
2295,F4,210.9,1/10,71,110.0
2296,B-4,211.0,0.5,87,110.0
2297,B-2,211.0,0.25,80,110.0
2298,B-3,211.0,0.25,80,110.0
2299,G5,211.5,0.25,86,110.0
2300,G6,211.5,0.25,86,110.0
2301,C#6,211.5,0.25,86,110.0
2302,B-1,211.5,0.5,67,110.0
2303,B-2,211.5,0.5,67,110.0
2304,G#5,211.75,0.25,87,110.0
2305,G#6,211.75,0.25,87,110.0
2306,C6,212.0,0.25,93,110.0
2307,C7,212.0,0.25,93,110.0
2308,E-1,212.0,0.25,73,110.0
2309,E-2,212.0,0.25,73,110.0
2310,E-6,212.25,0.25,81,110.0
2311,G6,212.25,0.25,81,110.0
2312,C5,212.5,0.25,72,110.0
2313,C7,212.5,0.25,86,110.0
2314,C6,212.5,0.25,86,110.0
2315,G4,212.5,0.5,60,110.0
2316,C#4,212.5,0.5,60,110.0
2317,E-4,212.5,0.5,60,110.0
2318,B-4,212.75,0.25,70,110.0
2319,B-6,212.875,14/125,85,110.0
2320,B-5,212.875,14/125,85,110.0
2321,E-3,213.0,0.25,75,110.0
2322,B-5,213.0,0.25,89,110.0
2323,B-6,213.0,0.25,89,110.0
2324,C6,213.25,0.25,77,110.0
2325,E-6,213.25,0.25,77,110.0
2326,B-4,213.5,0.25,72,110.0
2327,B-6,213.5,0.25,82,110.0
2328,B-5,213.5,0.25,82,110.0
2329,C4,213.5,0.5,64,110.0
2330,E-4,213.5,0.5,64,110.0
2331,G#4,213.75,0.25,70,110.0
2332,G#5,213.875,14/125,74,110.0
2333,G#6,213.875,14/125,74,110.0
2334,E-3,214.0,0.25,73,110.0
2335,G#5,214.0,0.25,86,110.0
2336,G#6,214.0,0.25,86,110.0
2337,E-6,214.25,0.25,73,110.0
2338,B-5,214.25,0.25,73,110.0
2339,G#4,214.5,0.25,72,110.0
2340,G#6,214.5,0.25,81,110.0
2341,G#5,214.5,0.25,81,110.0
2342,B-3,214.5,0.5,62,110.0
2343,E-4,214.5,0.5,62,110.0
2344,G4,214.75,0.25,70,110.0
2345,G6,214.875,14/125,73,110.0
2346,G5,214.875,14/125,73,110.0
2347,B-2,215.0,0.25,70,110.0
2348,G5,215.0,0.25,82,110.0
2349,G6,215.0,0.25,82,110.0
2350,D6,215.25,0.25,72,110.0
2351,B-5,215.25,0.25,72,110.0
2352,G4,215.5,0.25,72,110.0
2353,G5,215.5,0.25,78,110.0
2354,G6,215.5,0.25,78,110.0
2355,G#3,215.5,0.5,59,110.0
2356,D4,215.5,0.5,59,110.0
2357,B-3,215.5,0.5,59,110.0
2358,F4,215.75,0.25,70,110.0
2359,F6,215.875,14/125,74,110.0
2360,F5,215.875,14/125,74,110.0
2361,E-3,216.0,0.25,72,110.0
2362,F6,216.0,0.25,80,110.0
2363,F5,216.0,0.25,80,110.0
2364,B-5,216.25,0.25,70,110.0
2365,G5,216.25,0.25,70,110.0
2366,F4,216.5,0.25,72,110.0
2367,F5,216.5,0.25,76,110.0
2368,F6,216.5,0.25,76,110.0
2369,G3,216.5,0.5,62,110.0
2370,B-3,216.5,0.5,62,110.0
2371,E-4,216.75,0.25,70,110.0
2372,E-5,216.875,0.125,70,110.0
2373,E-6,216.875,0.125,70,110.0
2374,F2,217.0,0.5,62,110.0
2375,F3,217.0,1.0,74,110.0
2376,C#5,217.0,0.25,82,110.0
2377,C#6,217.0,0.25,82,110.0
2378,F5,217.25,0.25,70,110.0
2379,G#5,217.25,0.25,70,110.0
2380,C#4,217.5,0.25,72,110.0
2381,G#3,217.5,0.5,68,110.0
2382,C#6,217.5,0.25,77,110.0
2383,C#5,217.5,0.25,77,110.0
2384,C4,217.75,0.25,70,110.0
2385,C6,217.875,0.125,68,110.0
2386,C5,217.875,0.125,68,110.0
2387,F4,218.0,1.0,92,110.0
2388,C#2,218.0,0.5,68,110.0
2389,C#3,218.0,0.5,68,110.0
2390,F3,218.5,0.5,60,110.0
2391,B-3,218.5,0.5,60,110.0
2392,G4,219.0,0.125,56,110.0
2393,C2,219.0,0.5,55,110.0
2394,C3,219.0,0.5,55,110.0
2395,G#4,219.125,0.125,56,110.0
2396,G4,219.25,0.125,56,110.0
2397,G#4,219.375,0.125,57,110.0
2398,F4,219.5,0.25,57,110.0
2399,E3,219.5,0.5,48,110.0
2400,C4,219.5,0.5,48,110.0
2401,B-3,219.5,0.5,48,110.0
2402,G4,219.75,0.25,58,110.0
2403,G#4,220.0,0.125,60,110.0
2404,F1,220.0,0.5,57,110.0
2405,F2,220.0,0.5,57,110.0
2406,B-4,220.125,0.125,60,110.0
2407,G#4,220.25,0.125,61,110.0
2408,B-4,220.375,0.125,61,110.0
2409,G4,220.5,0.25,62,110.0
2410,F3,220.5,0.5,58,110.0
2411,G#3,220.5,0.5,58,110.0
2412,C4,220.5,0.5,58,110.0
2413,G#4,220.75,0.25,63,110.0
2414,A4,221.0,0.25,65,110.0
2415,C#4,221.0,0.5,46,110.0
2416,G4,221.0,0.5,46,110.0
2417,E-2,221.0,0.25,47,110.0
2418,E-3,221.0,0.25,47,110.0
2419,B-4,221.25,0.25,61,110.0
2420,C5,221.5,0.25,61,110.0
2421,C#4,221.5,0.5,43,110.0
2422,G4,221.5,0.5,43,110.0
2423,E-3,221.5,0.5,44,110.0
2424,B-3,221.5,0.5,44,110.0
2425,C#5,221.75,0.25,61,110.0
2426,C4,222.0,0.5,55,110.0
2427,G#4,222.0,0.5,55,110.0
2428,C5,222.0,0.5,55,110.0
2429,G#2,222.0,0.5,48,110.0
2430,E-3,222.0,0.5,48,110.0
2431,G#3,222.0,0.5,48,110.0
2432,F5,222.5,0.375,58,110.0
2433,B3,222.5,0.375,58,110.0
2434,D4,222.5,0.375,58,110.0
2435,F4,222.5,0.375,58,110.0
2436,G#4,222.5,0.375,58,110.0
2437,E-4,222.875,14/125,52,110.0
2438,C4,222.875,14/125,52,110.0
2439,E-5,222.875,14/125,52,110.0
2440,G#4,222.875,14/125,52,110.0
2441,C4,223.0,0.25,59,110.0
2442,E-5,223.0,0.25,59,110.0
2443,E-4,223.0,0.25,59,110.0
2444,G#4,223.0,0.25,59,110.0
2445,G#4,223.25,0.5,63,110.0
2446,G#5,223.5,0.25,75,110.0
2447,G#2,223.5,0.5,60,110.0
2448,G#3,223.5,0.5,60,110.0
2449,G4,223.875,0.125,64,110.0
2450,G5,223.875,0.125,64,110.0
2451,F4,224.0,1.0,64,110.0
2452,F5,224.0,1.0,64,110.0
2453,C#2,224.0,0.5,62,110.0
2454,C#3,224.0,0.5,62,110.0
2455,F3,224.5,0.5,54,110.0
2456,B-3,224.5,0.5,54,110.0
2457,G4,225.0,0.25,64,110.0
2458,C2,225.0,0.5,63,110.0
2459,C3,225.0,0.5,63,110.0
2460,G5,225.25,83/1000,64,110.0
2461,G#5,225.333,83/1000,65,110.0
2462,G5,225.417,83/1000,64,110.0
2463,F4,225.5,0.25,60,110.0
2464,F5,225.5,0.25,60,110.0
2465,B-3,225.5,0.5,55,110.0
2466,E4,225.5,0.5,55,110.0
2467,C4,225.5,0.5,55,110.0
2468,G4,225.75,0.25,60,110.0
2469,G5,225.75,0.25,60,110.0
2470,G#4,226.0,0.25,64,110.0
2471,F1,226.0,0.5,65,110.0
2472,F2,226.0,0.5,65,110.0
2473,G#5,226.25,83/1000,64,110.0
2474,B-5,226.333,83/1000,64,110.0
2475,G#5,226.417,83/1000,64,110.0
2476,G4,226.5,0.25,65,110.0
2477,G5,226.5,0.25,65,110.0
2478,G#3,226.5,0.5,66,110.0
2479,C4,226.5,0.5,66,110.0
2480,F4,226.5,0.5,66,110.0
2481,G#4,226.75,0.25,66,110.0
2482,G#5,226.75,0.25,66,110.0
2483,A4,227.0,0.25,59,110.0
2484,E-5,227.0,0.25,59,110.0
2485,A5,227.0,0.25,59,110.0
2486,E-2,227.0,0.25,64,110.0
2487,E-3,227.0,0.25,64,110.0
2488,B-4,227.25,0.25,66,110.0
2489,B-5,227.25,0.25,66,110.0
2490,C5,227.5,0.25,59,110.0
2491,G5,227.5,0.25,59,110.0
2492,C6,227.5,0.25,59,110.0
2493,B-3,227.5,0.5,53,110.0
2494,C#4,227.5,0.5,53,110.0
2495,E-4,227.5,0.5,53,110.0
2496,G4,227.5,0.5,53,110.0
2497,C#5,227.75,0.25,64,110.0
2498,C#6,227.75,0.25,64,110.0
2499,C5,228.0,0.25,67,110.0
2500,G#5,228.0,0.25,67,110.0
2501,C6,228.0,0.25,67,110.0
2502,G#3,228.0,0.25,58,110.0
2503,E-4,228.0,0.25,58,110.0
2504,G#4,228.0,0.25,58,110.0
2505,F5,228.5,0.375,68,110.0
2506,G#5,228.5,0.375,68,110.0
2507,F6,228.5,0.375,68,110.0
2508,G#4,228.5,0.375,64,110.0
2509,B3,228.5,0.375,64,110.0
2510,D4,228.5,0.375,64,110.0
2511,B4,228.5,0.375,64,110.0
2512,E-5,228.875,14/125,61,110.0
2513,G#5,228.875,14/125,61,110.0
2514,E-6,228.875,14/125,61,110.0
2515,G#4,228.875,14/125,57,110.0
2516,C4,228.875,14/125,57,110.0
2517,C5,228.875,14/125,57,110.0
2518,E-4,228.875,14/125,57,110.0
2519,E-5,229.0,0.25,68,110.0
2520,G#5,229.0,0.25,68,110.0
2521,E-6,229.0,0.25,68,110.0
2522,G#4,229.0,0.25,64,110.0
2523,C5,229.0,0.25,64,110.0
2524,C4,229.0,0.25,64,110.0
2525,E-4,229.0,0.25,64,110.0
2526,F3,229.312,0.562,55,110.0
2527,C4,229.375,0.5,55,110.0
2528,E-6,229.375,0.125,59,110.0
2529,E-5,229.375,0.125,59,110.0
2530,E-4,229.438,0.438,55,110.0
2531,A4,229.5,0.375,65,110.0
2532,C#5,229.5,0.375,68,110.0
2533,A5,229.5,0.375,68,110.0
2534,C#6,229.5,0.375,68,110.0
2535,B-2,229.875,0.125,59,110.0
2536,C5,229.875,0.125,64,110.0
2537,C6,229.875,0.125,64,110.0
2538,F3,229.938,0.062,59,110.0
2539,C#4,230.0,0.375,71,110.0
2540,B-2,230.0,0.375,59,110.0
2541,F3,230.0,0.375,59,110.0
2542,B-4,230.0,0.25,70,110.0
2543,B-5,230.0,0.25,70,110.0
2544,E-3,230.375,0.5,55,110.0
2545,B-3,230.438,0.438,55,110.0
2546,F#4,230.5,0.375,65,110.0
2547,B-4,230.5,0.375,62,110.0
2548,F#5,230.5,0.375,62,110.0
2549,B-5,230.5,0.375,62,110.0
2550,B-2,230.875,0.5,51,110.0
2551,C5,230.875,0.125,64,110.0
2552,C6,230.875,0.125,64,110.0
2553,F3,230.938,0.438,51,110.0
2554,C#4,231.0,0.375,62,110.0
2555,C#5,231.0,0.5,66,110.0
2556,F5,231.0,0.5,66,110.0
2557,C#6,231.0,0.5,66,110.0
2558,E-2,231.375,0.5,51,110.0
2559,B-2,231.438,0.438,51,110.0
2560,F#3,231.5,0.375,62,110.0
2561,E-5,231.5,0.375,63,110.0
2562,C#5,231.5,0.375,63,110.0
2563,C#6,231.5,0.375,63,110.0
2564,F#5,231.5,0.375,63,110.0
2565,B-1,231.875,0.5,51,110.0
2566,C5,231.875,0.125,63,110.0
2567,C6,231.875,0.125,63,110.0
2568,F2,231.938,0.438,51,110.0
2569,C#3,232.0,0.375,62,110.0
2570,B-4,232.0,0.5,67,110.0
2571,F5,232.0,0.5,67,110.0
2572,B-5,232.0,0.5,67,110.0
2573,E-2,232.375,0.5,50,110.0
2574,B-2,232.438,0.438,50,110.0
2575,F#3,232.5,0.375,60,110.0
2576,G#4,232.5,0.375,63,110.0
2577,E-5,232.5,0.375,63,110.0
2578,G#5,232.5,0.375,63,110.0
2579,B-4,232.5,0.375,63,110.0
2580,B-2,232.875,0.125,55,110.0
2581,F#4,232.875,0.125,62,110.0
2582,F#5,232.875,0.125,62,110.0
2583,F3,232.938,0.062,55,110.0
2584,C#4,233.0,0.375,65,110.0
2585,B-2,233.0,0.375,55,110.0
2586,F3,233.0,0.375,55,110.0
2587,C#5,233.0,0.25,63,110.0
2588,F5,233.0,0.25,63,110.0
2589,F4,233.0,0.25,63,110.0
2590,A2,233.5,0.125,64,110.0
2591,A1,233.5,0.125,55,110.0
2592,B-2,233.625,0.125,64,110.0
2593,B-1,233.625,0.125,55,110.0
2594,C3,233.75,0.125,66,110.0
2595,C2,233.75,0.125,56,110.0
2596,C#3,233.875,0.125,67,110.0
2597,C#2,233.875,0.125,56,110.0
2598,E-3,234.0,0.125,67,110.0
2599,E-2,234.0,0.125,56,110.0
2600,F3,234.125,0.125,68,110.0
2601,F2,234.125,0.125,57,110.0
2602,G3,234.25,0.125,69,110.0
2603,G2,234.25,0.125,58,110.0
2604,A3,234.375,0.125,69,110.0
2605,A2,234.375,0.125,58,110.0
2606,B-3,234.5,0.125,70,110.0
2607,B-2,234.5,0.125,59,110.0
2608,C4,234.625,0.125,71,110.0
2609,C3,234.625,0.125,60,110.0
2610,C#4,234.75,0.125,71,110.0
2611,C#3,234.75,0.125,60,110.0
2612,E-4,234.875,0.125,72,110.0
2613,E-3,234.875,0.125,61,110.0
2614,F4,235.0,0.125,73,110.0
2615,F3,235.0,0.125,61,110.0
2616,G4,235.125,0.125,73,110.0
2617,G3,235.125,0.125,61,110.0
2618,A4,235.25,0.125,74,110.0
2619,A3,235.25,0.125,62,110.0
2620,B-4,235.375,0.125,74,110.0
2621,B-3,235.375,0.125,62,110.0
2622,C5,235.5,0.125,75,110.0
2623,C4,235.5,0.125,63,110.0
2624,C#5,235.625,0.125,77,110.0
2625,C#4,235.625,0.125,64,110.0
2626,E-5,235.75,0.125,77,110.0
2627,E-4,235.75,0.125,64,110.0
2628,F5,235.875,0.125,78,110.0
2629,F4,235.875,0.125,66,110.0
2630,G5,236.0,0.125,77,110.0
2631,G4,236.0,0.125,67,110.0
2632,A5,236.125,0.125,77,110.0
2633,A4,236.125,0.125,65,110.0
2634,B-5,236.25,0.125,78,110.0
2635,B-4,236.25,0.125,66,110.0
2636,C6,236.375,0.125,79,110.0
2637,C5,236.375,0.125,67,110.0
2638,C#6,236.5,0.125,80,110.0
2639,C#5,236.5,0.125,68,110.0
2640,E-6,236.625,0.125,80,110.0
2641,E-5,236.625,0.125,69,110.0
2642,F6,236.75,0.125,81,110.0
2643,F5,236.75,0.125,70,110.0
2644,G6,236.875,0.188,82,110.0
2645,G5,236.875,0.188,71,110.0
2646,A6,237.062,0.188,83,110.0
2647,A5,237.062,0.125,72,110.0
2648,B-6,237.25,0.25,92,110.0
2649,B-5,237.25,0.25,92,110.0
2650,C7,237.625,0.125,85,110.0
2651,C#6,237.75,0.25,86,110.0
2652,B-6,237.75,0.25,86,110.0
2653,G6,237.75,0.25,86,110.0
2654,E-1,237.75,0.25,74,110.0
2655,E-2,237.75,0.25,74,110.0
2656,F#6,238.0,0.25,81,110.0
2657,C6,238.0,0.25,81,110.0
2658,A6,238.0,0.25,81,110.0
2659,C#6,238.25,0.5,85,110.0
2660,G6,238.25,0.5,85,110.0
2661,B-6,238.25,0.5,85,110.0
2662,E-3,238.25,0.25,66,110.0
2663,E-4,238.25,0.25,66,110.0
2664,C6,238.75,0.5,81,110.0
2665,G6,238.75,0.5,81,110.0
2666,C7,238.75,0.5,81,110.0
2667,C5,238.75,0.5,70,110.0
2668,G4,238.75,0.5,70,110.0
2669,E-4,238.75,0.5,70,110.0
2670,E-5,238.75,0.5,70,110.0
2671,G#5,239.25,0.5,79,110.0
2672,C6,239.25,0.5,79,110.0
2673,G#6,239.25,0.5,79,110.0
2674,F5,239.25,0.5,68,110.0
2675,C5,239.25,0.5,68,110.0
2676,F4,239.25,0.5,68,110.0
2677,E-5,239.75,0.5,76,110.0
2678,G#5,239.75,0.5,76,110.0
2679,E-6,239.75,0.5,76,110.0
2680,C4,239.75,0.5,65,110.0
2681,G#4,239.75,0.5,65,110.0
2682,C5,239.75,0.5,65,110.0
2683,F5,240.25,0.25,76,110.0
2684,G#5,240.25,0.25,76,110.0
2685,F6,240.25,0.25,76,110.0
2686,C#4,240.25,0.25,65,110.0
2687,G#4,240.25,0.25,65,110.0
2688,C#5,240.25,0.25,65,110.0
2689,E-4,240.75,1.0,67,110.0
2690,C#4,240.75,0.375,62,110.0
2691,G3,240.75,0.375,62,110.0
2692,E-2,240.75,1.0,64,110.0
2693,E-3,240.75,1.0,64,110.0
2694,G3,241.125,14/125,62,110.0
2695,C#4,241.125,14/125,62,110.0
2696,G3,241.25,1.0,68,110.0
2697,C#4,241.25,1.0,68,110.0
2698,B-4,241.25,1.0,68,110.0
2699,E-1,241.75,0.25,56,110.0
2700,E-2,241.75,0.25,56,110.0
2701,G#3,242.25,0.25,60,110.0
2702,C4,242.25,0.25,60,110.0
2703,G#4,242.25,0.25,60,110.0
2704,G#1,242.25,0.25,56,110.0
2705,G#2,242.25,0.25,56,110.0
2706,G#3,243.062,0.188,67,110.0
2707,B3,243.125,0.125,70,110.0
2708,E2,243.125,0.125,53,110.0
2709,E4,243.188,0.062,74,110.0
2710,B2,243.188,0.062,56,110.0
2711,G#4,243.25,0.812,80,110.0
2712,G#3,243.25,0.812,67,110.0
2713,B3,243.25,0.812,70,110.0
2714,E4,243.25,0.812,74,110.0
2715,E3,243.25,0.812,60,110.0
2716,E2,243.25,0.812,53,110.0
2717,B2,243.25,0.812,56,110.0
2718,G#3,244.062,1.0,67,110.0
2719,B3,244.125,0.938,70,110.0
2720,E2,244.125,0.938,53,110.0
2721,E4,244.188,0.875,74,110.0
2722,B2,244.188,0.875,56,110.0
2723,G#4,244.25,0.812,79,110.0
2724,E3,244.25,0.812,60,110.0
2725,G#3,245.062,1.0,66,110.0
2726,B3,245.125,0.938,69,110.0
2727,E2,245.125,0.938,53,110.0
2728,E4,245.188,0.875,72,110.0
2729,B2,245.188,0.875,56,110.0
2730,G#4,245.25,0.812,78,110.0
2731,E3,245.25,0.812,60,110.0
2732,G#3,246.062,0.188,67,110.0
2733,B3,246.125,0.125,70,110.0
2734,E2,246.125,0.125,53,110.0
2735,E4,246.188,0.062,74,110.0
2736,B2,246.188,0.062,56,110.0
2737,G#4,246.25,0.812,79,110.0
2738,G#3,246.25,0.812,67,110.0
2739,B3,246.25,0.812,70,110.0
2740,E4,246.25,0.812,74,110.0
2741,E3,246.25,0.812,60,110.0
2742,E2,246.25,0.812,53,110.0
2743,B2,246.25,0.812,56,110.0
2744,G#3,247.062,1.0,67,110.0
2745,B3,247.125,0.938,70,110.0
2746,E2,247.125,0.938,53,110.0
2747,E4,247.188,0.875,74,110.0
2748,B2,247.188,0.875,56,110.0
2749,G#4,247.25,0.812,79,110.0
2750,E3,247.25,0.812,60,110.0
2751,G#3,248.062,1.188,67,110.0
2752,B3,248.125,1.125,70,110.0
2753,E2,248.125,1.125,53,110.0
2754,E4,248.188,1.062,75,110.0
2755,B2,248.188,1.062,56,110.0
2756,G#4,248.25,1.0,81,110.0
2757,E3,248.25,1.0,60,110.0
2758,G#3,249.25,0.125,71,110.0
2759,B3,249.25,0.125,71,110.0
2760,E4,249.25,0.125,71,110.0
2761,G#4,249.25,0.125,71,110.0
2762,E2,249.25,0.125,56,110.0
2763,B2,249.25,0.125,56,110.0
2764,E3,249.25,0.125,56,110.0
2765,E-2,249.5,0.125,26,110.0
2766,E-3,249.5,0.125,26,110.0
2767,C#2,249.75,0.125,26,110.0
2768,C#3,249.75,0.125,26,110.0
2769,B1,250.0,0.125,26,110.0
2770,B2,250.0,0.125,26,110.0
2771,E2,250.25,0.125,32,110.0
2772,E3,250.25,0.125,32,110.0
2773,E-2,250.5,0.125,30,110.0
2774,E-3,250.5,0.125,30,110.0
2775,C#2,250.75,0.125,26,110.0
2776,C#3,250.75,0.125,26,110.0
2777,B1,251.0,0.125,26,110.0
2778,B2,251.0,0.125,26,110.0
2779,E2,251.25,0.125,32,110.0
2780,E3,251.25,0.125,32,110.0
2781,E-2,251.5,0.125,26,110.0
2782,E-3,251.5,0.125,26,110.0
2783,C#2,251.75,0.125,26,110.0
2784,C#3,251.75,0.125,26,110.0
2785,B1,252.0,0.125,26,110.0
2786,B2,252.0,0.125,26,110.0
2787,E2,252.25,0.125,32,110.0
2788,E3,252.25,0.125,32,110.0
2789,E-2,252.5,0.125,26,110.0
2790,E-3,252.5,0.125,26,110.0
2791,C#2,252.75,0.125,26,110.0
2792,C#3,252.75,0.125,26,110.0
2793,B1,253.0,0.125,26,110.0
2794,B2,253.0,0.125,26,110.0
2795,E2,253.25,0.125,32,110.0
2796,E3,253.25,0.125,32,110.0
2797,E-2,253.5,0.125,29,110.0
2798,E-3,253.5,0.125,29,110.0
2799,C#2,253.75,0.125,26,110.0
2800,C#3,253.75,0.125,26,110.0
2801,B1,254.0,0.125,26,110.0
2802,B2,254.0,0.125,26,110.0
2803,E2,254.25,0.125,32,110.0
2804,E3,254.25,0.125,32,110.0
2805,E-2,254.5,0.125,26,110.0
2806,E-3,254.5,0.125,26,110.0
2807,C#2,254.75,0.125,26,110.0
2808,C#3,254.75,0.125,26,110.0
2809,B1,255.0,0.125,26,110.0
2810,B2,255.0,0.125,26,110.0
2811,G#3,255.25,2.0,40,110.0
2812,B3,255.25,2.0,40,110.0
2813,E2,255.25,0.125,33,110.0
2814,E3,255.25,0.125,33,110.0
2815,E-2,255.5,0.125,26,110.0
2816,E-3,255.5,0.125,26,110.0
2817,C#2,255.75,0.125,27,110.0
2818,C#3,255.75,0.125,27,110.0
2819,B1,256.0,0.125,27,110.0
2820,B2,256.0,0.125,27,110.0
2821,E2,256.25,0.125,33,110.0
2822,E3,256.25,0.125,33,110.0
2823,E-2,256.5,0.125,31,110.0
2824,E-3,256.5,0.125,31,110.0
2825,C#2,256.75,0.125,28,110.0
2826,C#3,256.75,0.125,28,110.0
2827,B1,257.0,0.125,28,110.0
2828,B2,257.0,0.125,28,110.0
2829,A3,257.25,0.75,38,110.0
2830,B3,257.25,0.75,38,110.0
2831,E2,257.25,0.125,33,110.0
2832,E3,257.25,0.125,33,110.0
2833,E-2,257.5,0.125,27,110.0
2834,E-3,257.5,0.125,27,110.0
2835,C#2,257.75,0.125,27,110.0
2836,C#3,257.75,0.125,27,110.0
2837,A3,258.0,0.25,40,110.0
2838,B3,258.0,0.25,40,110.0
2839,B1,258.0,0.125,28,110.0
2840,B2,258.0,0.125,28,110.0
2841,G#3,258.25,0.75,40,110.0
2842,B3,258.25,0.75,40,110.0
2843,E2,258.25,0.125,34,110.0
2844,E3,258.25,0.125,34,110.0
2845,E-2,258.5,0.125,28,110.0
2846,E-3,258.5,0.125,28,110.0
2847,C#2,258.75,0.125,28,110.0
2848,C#3,258.75,0.125,28,110.0
2849,G#3,259.0,0.25,38,110.0
2850,E4,259.0,0.25,38,110.0
2851,B1,259.0,0.125,28,110.0
2852,B2,259.0,0.125,28,110.0
2853,G#3,259.25,1.0,41,110.0
2854,B3,259.25,1.0,41,110.0
2855,G#4,259.25,1.0,41,110.0
2856,E2,259.25,0.125,34,110.0
2857,E3,259.25,0.125,34,110.0
2858,E-2,259.5,0.125,30,110.0
2859,E-3,259.5,0.125,30,110.0
2860,C#2,259.75,0.125,28,110.0
2861,C#3,259.75,0.125,28,110.0
2862,B1,260.0,0.125,28,110.0
2863,B2,260.0,0.125,28,110.0
2864,A3,260.25,1.0,35,110.0
2865,B3,260.25,1.0,35,110.0
2866,F#4,260.25,1.0,35,110.0
2867,E2,260.25,0.125,34,110.0
2868,E3,260.25,0.125,34,110.0
2869,E-2,260.5,0.125,28,110.0
2870,E-3,260.5,0.125,28,110.0
2871,C#2,260.75,0.125,28,110.0
2872,C#3,260.75,0.125,28,110.0
2873,B1,261.0,0.125,28,110.0
2874,B2,261.0,0.125,28,110.0
2875,G#3,261.25,0.75,38,110.0
2876,B3,261.25,0.75,38,110.0
2877,E2,261.25,0.125,34,110.0
2878,E3,261.25,0.125,34,110.0
2879,E-2,261.5,0.125,28,110.0
2880,E-3,261.5,0.125,28,110.0
2881,C#2,261.75,0.125,28,110.0
2882,C#3,261.75,0.125,28,110.0
2883,G#3,262.0,0.25,38,110.0
2884,E4,262.0,0.25,38,110.0
2885,B1,262.0,0.125,28,110.0
2886,B2,262.0,0.125,28,110.0
2887,G#3,262.25,0.5,39,110.0
2888,B3,262.25,0.5,39,110.0
2889,G#4,262.25,0.5,39,110.0
2890,E2,262.25,0.125,34,110.0
2891,E3,262.25,0.125,34,110.0
2892,E-2,262.5,0.125,32,110.0
2893,E-3,262.5,0.125,32,110.0
2894,C#2,262.75,0.125,30,110.0
2895,C#3,262.75,0.125,30,110.0
2896,A3,263.0,0.25,37,110.0
2897,E-4,263.0,0.25,37,110.0
2898,B1,263.0,0.125,30,110.0
2899,B2,263.0,0.125,30,110.0
2900,G#3,263.25,0.5,38,110.0
2901,E4,263.25,0.5,38,110.0
2902,E2,263.25,0.125,36,110.0
2903,E3,263.25,0.125,36,110.0
2904,E-2,263.5,0.125,30,110.0
2905,E-3,263.5,0.125,30,110.0
2906,G#3,263.75,0.5,37,110.0
2907,E4,263.75,0.5,37,110.0
2908,G#4,263.75,0.5,37,110.0
2909,C#2,263.75,0.125,30,110.0
2910,C#3,263.75,0.125,30,110.0
2911,B1,264.0,0.125,30,110.0
2912,B2,264.0,0.125,30,110.0
2913,B3,264.25,0.5,41,110.0
2914,G#4,264.25,0.5,41,110.0
2915,B4,264.25,0.5,41,110.0
2916,E2,264.25,0.125,38,110.0
2917,E3,264.25,0.125,38,110.0
2918,E-2,264.5,0.125,30,110.0
2919,E-3,264.5,0.125,30,110.0
2920,C#4,264.75,0.125,42,110.0
2921,G#4,264.75,0.125,42,110.0
2922,C#5,264.75,0.125,42,110.0
2923,C#2,264.75,0.125,30,110.0
2924,C#3,264.75,0.125,30,110.0
2925,E-4,265.0,0.125,43,110.0
2926,G#4,265.0,0.125,43,110.0
2927,E-5,265.0,0.125,43,110.0
2928,B1,265.0,0.125,30,110.0
2929,B2,265.0,0.125,30,110.0
2930,E4,265.25,0.25,45,110.0
2931,G#4,265.25,0.25,45,110.0
2932,E5,265.25,0.25,45,110.0
2933,E2,265.25,0.125,38,110.0
2934,E3,265.25,0.125,38,110.0
2935,E-2,265.5,0.125,34,110.0
2936,E-3,265.5,0.125,34,110.0
2937,B3,265.75,0.25,40,110.0
2938,G#4,265.75,0.25,40,110.0
2939,B4,265.75,0.25,40,110.0
2940,C#2,265.75,0.125,32,110.0
2941,C#3,265.75,0.125,32,110.0
2942,B1,266.0,0.125,32,110.0
2943,B2,266.0,0.125,32,110.0
2944,G#4,266.25,1.0,48,110.0
2945,B4,266.25,1.0,48,110.0
2946,G#5,266.25,1.0,48,110.0
2947,E2,266.25,0.125,39,110.0
2948,E3,266.25,0.125,39,110.0
2949,E-2,266.5,0.125,32,110.0
2950,E-3,266.5,0.125,32,110.0
2951,C#2,266.75,0.125,32,110.0
2952,C#3,266.75,0.125,32,110.0
2953,B1,267.0,0.125,32,110.0
2954,B2,267.0,0.125,32,110.0
2955,B3,267.25,1.5,42,110.0
2956,F#4,267.25,1.5,42,110.0
2957,A4,267.25,1.5,42,110.0
2958,B4,267.25,1.5,42,110.0
2959,E2,267.25,0.125,38,110.0
2960,E3,267.25,0.125,38,110.0
2961,E-2,267.5,0.125,32,110.0
2962,E-3,267.5,0.125,32,110.0
2963,C#2,267.75,0.125,32,110.0
2964,C#3,267.75,0.125,32,110.0
2965,B1,268.0,0.125,32,110.0
2966,B2,268.0,0.125,32,110.0
2967,E2,268.25,0.125,38,110.0
2968,E3,268.25,0.125,38,110.0
2969,E-2,268.5,0.125,36,110.0
2970,E-3,268.5,0.125,36,110.0
2971,B3,268.75,0.125,44,110.0
2972,A4,268.75,0.125,44,110.0
2973,B4,268.75,0.125,44,110.0
2974,C#2,268.75,0.125,32,110.0
2975,C#3,268.75,0.125,32,110.0
2976,B3,269.0,0.125,44,110.0
2977,A4,269.0,0.125,44,110.0
2978,B4,269.0,0.125,44,110.0
2979,B1,269.0,0.125,32,110.0
2980,B2,269.0,0.125,32,110.0
2981,B3,269.25,0.25,46,110.0
2982,A4,269.25,0.25,46,110.0
2983,B4,269.25,0.25,46,110.0
2984,E2,269.25,0.125,38,110.0
2985,E3,269.25,0.125,38,110.0
2986,E-2,269.5,0.125,31,110.0
2987,E-3,269.5,0.125,31,110.0
2988,B3,269.75,0.25,43,110.0
2989,A4,269.75,0.25,43,110.0
2990,B4,269.75,0.25,43,110.0
2991,C#2,269.75,0.125,32,110.0
2992,C#3,269.75,0.125,32,110.0
2993,B1,270.0,0.125,32,110.0
2994,B2,270.0,0.125,32,110.0
2995,B3,270.25,0.75,47,110.0
2996,G#4,270.25,0.75,47,110.0
2997,B4,270.25,0.75,47,110.0
2998,E2,270.25,0.125,38,110.0
2999,E3,270.25,0.125,38,110.0
3000,E-2,270.5,0.125,32,110.0
3001,E-3,270.5,0.125,32,110.0
3002,C#2,270.75,0.125,32,110.0
3003,C#3,270.75,0.125,32,110.0
3004,E4,271.0,9/40,44,110.0
3005,G#4,271.0,9/40,44,110.0
3006,E5,271.0,9/40,44,110.0
3007,B1,271.0,0.125,32,110.0
3008,B2,271.0,0.125,32,110.0
3009,E4,271.25,1.0,47,110.0
3010,G#4,271.25,1.0,47,110.0
3011,E5,271.25,1.0,47,110.0
3012,E2,271.25,0.125,39,110.0
3013,E3,271.25,0.125,39,110.0
3014,E-2,271.5,0.125,36,110.0
3015,E-3,271.5,0.125,36,110.0
3016,C#2,271.75,0.125,32,110.0
3017,C#3,271.75,0.125,32,110.0
3018,B1,272.0,0.125,32,110.0
3019,B2,272.0,0.125,32,110.0
3020,B3,272.25,1.0,43,110.0
3021,E4,272.25,1.0,43,110.0
3022,G#4,272.25,1.0,43,110.0
3023,E2,272.25,0.125,39,110.0
3024,E3,272.25,0.125,39,110.0
3025,E-2,272.5,0.125,32,110.0
3026,E-3,272.5,0.125,32,110.0
3027,C#2,272.75,0.125,32,110.0
3028,C#3,272.75,0.125,32,110.0
3029,B1,273.0,0.125,32,110.0
3030,B2,273.0,0.125,32,110.0
3031,F#4,273.25,1.5,53,110.0
3032,A3,273.25,0.5,45,110.0
3033,B3,273.25,0.5,45,110.0
3034,E2,273.25,0.125,39,110.0
3035,E3,273.25,0.125,39,110.0
3036,E-2,273.5,0.125,32,110.0
3037,E-3,273.5,0.125,32,110.0
3038,A3,273.75,0.125,47,110.0
3039,B3,273.75,0.125,47,110.0
3040,C#2,273.75,0.125,32,110.0
3041,C#3,273.75,0.125,32,110.0
3042,B3,274.0,0.125,47,110.0
3043,A3,274.0,0.125,47,110.0
3044,B1,274.0,0.125,32,110.0
3045,B2,274.0,0.125,32,110.0
3046,A3,274.25,0.25,50,110.0
3047,B3,274.25,0.25,50,110.0
3048,E2,274.25,0.125,39,110.0
3049,E3,274.25,0.125,39,110.0
3050,E-2,274.5,0.125,36,110.0
3051,E-3,274.5,0.125,36,110.0
3052,A3,274.75,0.5,47,110.0
3053,B3,274.75,0.5,47,110.0
3054,F#4,274.75,0.5,47,110.0
3055,C#2,274.75,0.125,32,110.0
3056,C#3,274.75,0.125,32,110.0
3057,B1,275.0,0.125,32,110.0
3058,B2,275.0,0.125,32,110.0
3059,A3,275.25,0.125,47,110.0
3060,B3,275.25,0.125,47,110.0
3061,G#4,275.25,0.125,47,110.0
3062,E2,275.25,0.125,40,110.0
3063,E3,275.25,0.125,40,110.0
3064,A3,275.5,0.125,46,110.0
3065,B3,275.5,0.125,46,110.0
3066,F#4,275.5,0.125,46,110.0
3067,E-2,275.5,0.125,32,110.0
3068,E-3,275.5,0.125,32,110.0
3069,A3,275.75,0.125,45,110.0
3070,B3,275.75,0.125,45,110.0
3071,E4,275.75,0.125,45,110.0
3072,C#2,275.75,0.125,32,110.0
3073,C#3,275.75,0.125,32,110.0
3074,E-4,276.0,0.125,42,110.0
3075,A3,276.0,0.125,42,110.0
3076,B3,276.0,0.125,42,110.0
3077,F#4,276.0,0.125,42,110.0
3078,B1,276.0,0.125,32,110.0
3079,B2,276.0,0.125,32,110.0
3080,G#3,276.25,0.75,52,110.0
3081,E4,276.25,1.75,48,110.0
3082,G#4,276.25,1.75,48,110.0
3083,E2,276.25,0.125,40,110.0
3084,E3,276.25,0.125,40,110.0
3085,E-2,276.5,0.125,32,110.0
3086,E-3,276.5,0.125,32,110.0
3087,C#2,276.75,0.125,33,110.0
3088,C#3,276.75,0.125,33,110.0
3089,C#4,277.0,0.25,50,110.0
3090,B1,277.0,0.125,32,110.0
3091,B2,277.0,0.125,32,110.0
3092,B3,277.25,2.0,52,110.0
3093,E2,277.25,0.125,40,110.0
3094,E3,277.25,0.125,40,110.0
3095,E-2,277.5,0.125,36,110.0
3096,E-3,277.5,0.125,36,110.0
3097,C#2,277.75,0.125,34,110.0
3098,C#3,277.75,0.125,34,110.0
3099,G#4,278.0,9/40,46,110.0
3100,B4,278.0,9/40,46,110.0
3101,B1,278.0,0.125,34,110.0
3102,B2,278.0,0.125,34,110.0
3103,G#4,278.25,1.0,46,110.0
3104,B4,278.25,1.0,46,110.0
3105,E2,278.25,0.125,40,110.0
3106,E3,278.25,0.125,40,110.0
3107,E-2,278.5,0.125,33,110.0
3108,E-3,278.5,0.125,33,110.0
3109,C#2,278.75,0.125,34,110.0
3110,C#3,278.75,0.125,34,110.0
3111,B1,279.0,0.125,34,110.0
3112,B2,279.0,0.125,34,110.0
3113,G#3,279.25,1.5,49,110.0
3114,B3,279.25,1.5,49,110.0
3115,E2,279.25,0.125,40,110.0
3116,E3,279.25,0.125,40,110.0
3117,E-2,279.5,0.125,34,110.0
3118,E-3,279.5,0.125,34,110.0
3119,C#2,279.75,0.125,34,110.0
3120,C#3,279.75,0.125,34,110.0
3121,B1,280.0,0.125,34,110.0
3122,B2,280.0,0.125,34,110.0
3123,E2,280.25,0.125,42,110.0
3124,E3,280.25,0.125,42,110.0
3125,E-2,280.5,0.125,39,110.0
3126,E-3,280.5,0.125,39,110.0
3127,G3,280.75,0.125,50,110.0
3128,B3,280.75,0.125,50,110.0
3129,C#2,280.75,0.125,34,110.0
3130,C#3,280.75,0.125,34,110.0
3131,G#3,281.0,0.125,50,110.0
3132,B3,281.0,0.125,50,110.0
3133,B1,281.0,0.125,35,110.0
3134,B2,281.0,0.125,35,110.0
3135,A3,281.25,0.25,52,110.0
3136,B3,281.25,0.25,52,110.0
3137,E2,281.25,0.125,44,110.0
3138,E3,281.25,0.125,44,110.0
3139,E-2,281.5,0.125,36,110.0
3140,E-3,281.5,0.125,36,110.0
3141,A3,281.75,0.125,51,110.0
3142,C#4,281.75,0.125,51,110.0
3143,C#2,281.75,0.125,37,110.0
3144,C#3,281.75,0.125,37,110.0
3145,A3,282.0,0.125,52,110.0
3146,E-4,282.0,0.125,52,110.0
3147,B1,282.0,0.125,38,110.0
3148,B2,282.0,0.125,38,110.0
3149,G#3,282.25,0.75,56,110.0
3150,E4,282.25,0.75,56,110.0
3151,E2,282.25,0.125,47,110.0
3152,E3,282.25,0.125,47,110.0
3153,E-2,282.5,0.125,38,110.0
3154,E-3,282.5,0.125,38,110.0
3155,C#2,282.75,0.125,39,110.0
3156,C#3,282.75,0.125,39,110.0
3157,G#3,283.0,9/40,49,110.0
3158,B3,283.0,9/40,49,110.0
3159,B1,283.0,0.125,40,110.0
3160,B2,283.0,0.125,40,110.0
3161,G#3,283.25,1.0,54,110.0
3162,B3,283.25,1.0,54,110.0
3163,G#4,283.25,1.0,54,110.0
3164,E2,283.25,0.125,48,110.0
3165,E3,283.25,0.125,48,110.0
3166,E-2,283.5,0.125,45,110.0
3167,E-3,283.5,0.125,45,110.0
3168,C#2,283.75,0.125,42,110.0
3169,C#3,283.75,0.125,42,110.0
3170,B1,284.0,0.125,42,110.0
3171,B2,284.0,0.125,42,110.0
3172,A3,284.25,1.0,56,110.0
3173,B3,284.25,1.0,56,110.0
3174,F#4,284.25,1.0,56,110.0
3175,E2,284.25,0.125,52,110.0
3176,E3,284.25,0.125,52,110.0
3177,E-2,284.5,0.125,42,110.0
3178,E-3,284.5,0.125,42,110.0
3179,C#2,284.75,0.125,44,110.0
3180,C#3,284.75,0.125,44,110.0
3181,B1,285.0,0.125,44,110.0
3182,B2,285.0,0.125,44,110.0
3183,G#3,285.25,0.75,62,110.0
3184,B3,285.25,0.75,62,110.0
3185,E2,285.25,0.125,55,110.0
3186,E3,285.25,0.125,55,110.0
3187,E-2,285.5,0.125,46,110.0
3188,E-3,285.5,0.125,46,110.0
3189,C#2,285.75,0.125,46,110.0
3190,C#3,285.75,0.125,46,110.0
3191,G#3,286.0,9/40,66,110.0
3192,E4,286.0,9/40,66,110.0
3193,B1,286.0,0.125,46,110.0
3194,B2,286.0,0.125,46,110.0
3195,G#3,286.25,0.5,65,110.0
3196,B3,286.25,0.5,65,110.0
3197,G#4,286.25,0.5,65,110.0
3198,E2,286.25,0.125,56,110.0
3199,E3,286.25,0.125,56,110.0
3200,E-2,286.5,0.125,53,110.0
3201,E-3,286.5,0.125,53,110.0
3202,C#2,286.75,0.125,50,110.0
3203,C#3,286.75,0.125,50,110.0
3204,A3,287.0,0.25,65,110.0
3205,E-4,287.0,0.25,65,110.0
3206,B1,287.0,0.125,50,110.0
3207,B2,287.0,0.125,50,110.0
3208,G#3,287.25,0.5,67,110.0
3209,E4,287.25,0.5,67,110.0
3210,E2,287.25,0.125,61,110.0
3211,E3,287.25,0.125,61,110.0
3212,E-2,287.5,0.125,49,110.0
3213,E-3,287.5,0.125,49,110.0
3214,G#3,287.75,0.5,67,110.0
3215,E4,287.75,0.5,67,110.0
3216,G#4,287.75,0.5,67,110.0
3217,C#2,287.75,0.125,50,110.0
3218,C#3,287.75,0.125,50,110.0
3219,B1,288.0,0.125,52,110.0
3220,B2,288.0,0.125,52,110.0
3221,B3,288.25,1.0,70,110.0
3222,G#4,288.25,1.0,70,110.0
3223,B4,288.25,1.0,70,110.0
3224,E2,288.25,0.125,64,110.0
3225,E3,288.25,0.125,64,110.0
3226,E-2,288.5,0.125,52,110.0
3227,E-3,288.5,0.125,52,110.0
3228,C#2,288.75,0.125,52,110.0
3229,C#3,288.75,0.125,52,110.0
3230,B1,289.0,0.125,53,110.0
3231,B2,289.0,0.125,53,110.0
3232,C#4,289.25,0.25,65,110.0
3233,G#4,289.25,0.25,65,110.0
3234,C#5,289.25,0.25,65,110.0
3235,E2,289.25,0.125,68,110.0
3236,E3,289.25,0.125,68,110.0
3237,E-4,289.5,0.25,68,110.0
3238,G#4,289.5,0.25,68,110.0
3239,E-5,289.5,0.25,68,110.0
3240,E-2,289.5,0.125,62,110.0
3241,E-3,289.5,0.125,62,110.0
3242,E4,289.75,0.25,68,110.0
3243,G#4,289.75,0.25,68,110.0
3244,E5,289.75,0.25,68,110.0
3245,C#2,289.75,0.125,58,110.0
3246,C#3,289.75,0.125,58,110.0
3247,F#4,290.0,0.25,73,110.0
3248,B4,290.0,0.25,73,110.0
3249,F#5,290.0,0.25,73,110.0
3250,B1,290.0,0.125,58,110.0
3251,B2,290.0,0.125,58,110.0
3252,B4,290.25,0.75,85,110.0
3253,G#4,290.25,1.0,76,110.0
3254,E5,290.25,1.0,76,110.0
3255,G#5,290.25,1.0,76,110.0
3256,E2,290.25,0.125,70,110.0
3257,E3,290.25,0.125,70,110.0
3258,E-2,290.5,0.125,58,110.0
3259,E-3,290.5,0.125,58,110.0
3260,E2,290.75,0.125,59,110.0
3261,E3,290.75,0.125,59,110.0
3262,B-4,291.0,0.25,81,110.0
3263,D2,291.0,0.125,60,110.0
3264,D3,291.0,0.125,60,110.0
3265,B-4,291.25,1.5,81,110.0
3266,G4,291.25,1.5,79,110.0
3267,E-5,291.25,1.5,79,110.0
3268,G5,291.25,1.5,79,110.0
3269,E-2,291.25,0.125,72,110.0
3270,E-3,291.25,0.125,72,110.0
3271,D2,291.5,0.125,60,110.0
3272,D3,291.5,0.125,60,110.0
3273,C2,291.75,0.125,60,110.0
3274,C3,291.75,0.125,60,110.0
3275,B-1,292.0,0.125,60,110.0
3276,B-2,292.0,0.125,60,110.0
3277,E-2,292.25,0.125,73,110.0
3278,E-3,292.25,0.125,73,110.0
3279,D2,292.5,0.125,68,110.0
3280,D3,292.5,0.125,68,110.0
3281,B-4,292.75,1.0,86,110.0
3282,B-3,292.75,0.5,72,110.0
3283,G4,292.75,0.5,72,110.0
3284,C2,292.75,0.125,64,110.0
3285,C3,292.75,0.125,64,110.0
3286,B-1,293.0,0.125,64,110.0
3287,B-2,293.0,0.125,64,110.0
3288,E-5,293.25,1.0,90,110.0
3289,E-4,293.25,0.5,76,110.0
3290,G4,293.25,0.5,76,110.0
3291,E-2,293.25,0.125,76,110.0
3292,E-3,293.25,0.125,76,110.0
3293,D2,293.5,0.125,63,110.0
3294,D3,293.5,0.125,63,110.0
3295,G4,293.75,0.5,86,110.0
3296,B-4,293.75,0.5,86,110.0
3297,G5,293.75,0.5,86,110.0
3298,C2,293.75,0.125,64,110.0
3299,C3,293.75,0.125,64,110.0
3300,B-1,294.0,0.125,66,110.0
3301,B-2,294.0,0.125,66,110.0
3302,B-4,294.25,0.75,90,110.0
3303,G5,294.25,0.75,90,110.0
3304,B-5,294.25,0.75,90,110.0
3305,E-2,294.25,0.125,76,110.0
3306,E-3,294.25,0.125,76,110.0
3307,D2,294.5,0.125,62,110.0
3308,D3,294.5,0.125,62,110.0
3309,C2,294.75,0.125,64,110.0
3310,C3,294.75,0.125,64,110.0
3311,E-6,295.0,1.75,99,110.0
3312,E-5,295.0,0.25,83,110.0
3313,G5,295.0,0.25,83,110.0
3314,B-1,295.0,0.125,64,110.0
3315,B-2,295.0,0.125,64,110.0
3316,E-5,295.25,0.75,92,110.0
3317,G5,295.25,0.75,92,110.0
3318,E-2,295.25,0.125,78,110.0
3319,E-3,295.25,0.125,78,110.0
3320,D2,295.5,0.125,71,110.0
3321,D3,295.5,0.125,71,110.0
3322,C2,295.75,0.125,66,110.0
3323,C3,295.75,0.125,66,110.0
3324,G5,296.0,0.75,96,110.0
3325,E-5,296.0,0.25,81,110.0
3326,G4,296.0,0.25,81,110.0
3327,B-1,296.0,0.125,66,110.0
3328,B-2,296.0,0.125,66,110.0
3329,G4,296.25,0.5,81,110.0
3330,E-5,296.25,0.5,81,110.0
3331,E-2,296.25,0.125,80,110.0
3332,E-3,296.25,0.125,80,110.0
3333,D2,296.5,0.125,66,110.0
3334,D3,296.5,0.125,66,110.0
3335,C5,296.75,0.25,83,110.0
3336,C6,296.75,0.25,83,110.0
3337,G5,296.75,0.25,83,110.0
3338,C2,296.75,0.125,66,110.0
3339,C3,296.75,0.125,66,110.0
3340,B-1,297.0,0.125,68,110.0
3341,B-2,297.0,0.125,68,110.0
3342,B-4,297.25,1.0,91,110.0
3343,G5,297.25,1.0,91,110.0
3344,B-5,297.25,1.0,91,110.0
3345,E-2,297.25,0.125,78,110.0
3346,E-3,297.25,0.125,78,110.0
3347,D2,297.5,0.125,64,110.0
3348,D3,297.5,0.125,64,110.0
3349,C2,297.75,0.125,64,110.0
3350,C3,297.75,0.125,64,110.0
3351,B-1,298.0,0.125,65,110.0
3352,B-2,298.0,0.125,65,110.0
3353,E-2,298.25,0.125,80,110.0
3354,E-3,298.25,0.125,80,110.0
3355,D2,298.5,0.125,73,110.0
3356,D3,298.5,0.125,73,110.0
3357,B-3,298.75,0.125,90,110.0
3358,B-4,298.75,0.125,90,110.0
3359,C2,298.75,0.125,68,110.0
3360,C3,298.75,0.125,68,110.0
3361,B-3,299.0,0.125,90,110.0
3362,B-4,299.0,0.125,90,110.0
3363,B-1,299.0,0.125,68,110.0
3364,B-2,299.0,0.125,68,110.0
3365,B-3,299.25,0.25,95,110.0
3366,B-4,299.25,0.25,95,110.0
3367,G#4,299.25,0.25,95,110.0
3368,E-2,299.25,0.125,82,110.0
3369,E-3,299.25,0.125,82,110.0
3370,D2,299.5,0.125,68,110.0
3371,D3,299.5,0.125,68,110.0
3372,F4,299.75,0.25,90,110.0
3373,G#4,299.75,0.25,90,110.0
3374,B-4,299.75,0.25,90,110.0
3375,F5,299.75,0.25,90,110.0
3376,C2,299.75,0.125,68,110.0
3377,C3,299.75,0.125,68,110.0
3378,B-1,300.0,0.125,69,110.0
3379,B-2,300.0,0.125,69,110.0
3380,E-4,300.25,0.25,100,110.0
3381,G4,300.25,0.25,100,110.0
3382,E-5,300.25,0.25,100,110.0
3383,E-2,300.25,0.125,83,110.0
3384,E-3,300.25,0.125,83,110.0
3385,E-3,300.562,0.5,70,110.0
3386,A3,300.625,0.438,72,110.0
3387,B1,300.625,0.5,58,110.0
3388,B3,300.688,0.375,74,110.0
3389,F#2,300.688,0.438,61,110.0
3390,E-4,300.75,0.312,77,110.0
3391,B2,300.75,0.375,63,110.0
3392,E-3,301.062,0.5,72,110.0
3393,A3,301.125,0.438,75,110.0
3394,B1,301.125,0.5,60,110.0
3395,B3,301.188,0.375,78,110.0
3396,F#2,301.188,0.438,63,110.0
3397,E-4,301.25,0.312,81,110.0
3398,B2,301.25,0.375,66,110.0
3399,E-3,301.562,0.5,74,110.0
3400,A3,301.625,0.438,78,110.0
3401,B1,301.625,0.5,63,110.0
3402,B3,301.688,0.375,80,110.0
3403,F#2,301.688,0.438,65,110.0
3404,E-4,301.75,0.312,83,110.0
3405,B2,301.75,0.375,69,110.0
3406,E-3,302.062,0.5,77,110.0
3407,A3,302.125,0.438,80,110.0
3408,B1,302.125,0.5,64,110.0
3409,B3,302.188,0.375,82,110.0
3410,F#2,302.188,0.438,68,110.0
3411,E-4,302.25,0.312,86,110.0
3412,B2,302.25,0.375,71,110.0
3413,E-3,302.562,0.688,80,110.0
3414,A3,302.625,0.625,83,110.0
3415,B1,302.625,0.625,66,110.0
3416,B3,302.688,0.562,85,110.0
3417,F#2,302.688,0.562,70,110.0
3418,E-4,302.75,0.5,89,110.0
3419,B2,302.75,0.5,73,110.0
3420,E3,303.25,0.25,89,110.0
3421,G#3,303.25,0.25,89,110.0
3422,E4,303.25,0.25,89,110.0
3423,E1,303.25,0.25,64,110.0
3424,E2,303.25,0.25,64,110.0
3425,G#3,304.062,1.0,79,110.0
3426,B3,304.125,0.938,80,110.0
3427,E2,304.125,0.938,80,110.0
3428,E4,304.188,0.875,80,110.0
3429,B2,304.188,0.875,80,110.0
3430,G#4,304.25,0.812,80,110.0
3431,E3,304.25,0.812,80,110.0
3432,G#3,305.062,1.0,78,110.0
3433,B3,305.125,0.938,78,110.0
3434,E2,305.125,0.938,78,110.0
3435,E4,305.188,0.875,77,110.0
3436,B2,305.188,0.875,77,110.0
3437,G#4,305.25,0.812,77,110.0
3438,E3,305.25,0.812,77,110.0
3439,G#3,306.062,0.188,75,110.0
3440,B3,306.125,0.125,75,110.0
3441,E2,306.125,0.125,75,110.0
3442,E4,306.188,0.062,75,110.0
3443,B2,306.188,0.062,75,110.0
3444,G#4,306.25,0.812,74,110.0
3445,G#3,306.25,0.812,75,110.0
3446,B3,306.25,0.812,75,110.0
3447,E4,306.25,0.812,75,110.0
3448,E3,306.25,0.812,74,110.0
3449,E2,306.25,0.812,75,110.0
3450,B2,306.25,0.812,75,110.0
3451,G#3,307.062,1.0,72,110.0
3452,B3,307.125,0.938,72,110.0
3453,E2,307.125,0.938,72,110.0
3454,E4,307.188,0.875,72,110.0
3455,B2,307.188,0.875,72,110.0
3456,G#4,307.25,0.812,72,110.0
3457,E3,307.25,0.812,72,110.0
3458,G#3,308.062,1.188,69,110.0
3459,B3,308.125,1.125,69,110.0
3460,E2,308.125,1.125,69,110.0
3461,E4,308.188,1.062,69,110.0
3462,B2,308.188,1.062,69,110.0
3463,G#4,308.25,1.0,69,110.0
3464,E3,308.25,1.0,69,110.0
3465,G#3,309.25,0.125,66,110.0
3466,B3,309.25,0.125,66,110.0
3467,E4,309.25,0.125,66,110.0
3468,G#4,309.25,0.125,66,110.0
3469,E2,309.25,0.125,66,110.0
3470,B2,309.25,0.125,66,110.0
3471,E3,309.25,0.125,66,110.0
3472,E-2,309.5,0.125,26,110.0
3473,E-3,309.5,0.125,26,110.0
3474,C#2,309.75,0.125,26,110.0
3475,C#3,309.75,0.125,26,110.0
3476,B1,310.0,0.125,26,110.0
3477,B2,310.0,0.125,26,110.0
3478,E2,310.25,0.125,32,110.0
3479,E3,310.25,0.125,32,110.0
3480,E-2,310.5,0.125,30,110.0
3481,E-3,310.5,0.125,30,110.0
3482,C#2,310.75,0.125,26,110.0
3483,C#3,310.75,0.125,26,110.0
3484,B1,311.0,0.125,26,110.0
3485,B2,311.0,0.125,26,110.0
3486,E2,311.25,0.125,32,110.0
3487,E3,311.25,0.125,32,110.0
3488,E-2,311.5,0.125,26,110.0
3489,E-3,311.5,0.125,26,110.0
3490,C#2,311.75,0.125,26,110.0
3491,C#3,311.75,0.125,26,110.0
3492,B1,312.0,0.125,26,110.0
3493,B2,312.0,0.125,26,110.0
3494,E2,312.25,0.125,32,110.0
3495,E3,312.25,0.125,32,110.0
3496,E-2,312.5,0.125,26,110.0
3497,E-3,312.5,0.125,26,110.0
3498,C#2,312.75,0.125,26,110.0
3499,C#3,312.75,0.125,26,110.0
3500,B1,313.0,0.125,26,110.0
3501,B2,313.0,0.125,26,110.0
3502,E2,313.25,0.125,32,110.0
3503,E3,313.25,0.125,32,110.0
3504,E-2,313.5,0.125,29,110.0
3505,E-3,313.5,0.125,29,110.0
3506,C#2,313.75,0.125,26,110.0
3507,C#3,313.75,0.125,26,110.0
3508,B1,314.0,0.125,26,110.0
3509,B2,314.0,0.125,26,110.0
3510,E2,314.25,0.125,32,110.0
3511,E3,314.25,0.125,32,110.0
3512,E-2,314.5,0.125,26,110.0
3513,E-3,314.5,0.125,26,110.0
3514,C#2,314.75,0.125,26,110.0
3515,C#3,314.75,0.125,26,110.0
3516,B1,315.0,0.125,26,110.0
3517,B2,315.0,0.125,26,110.0
3518,G#3,315.25,2.0,40,110.0
3519,B3,315.25,2.0,40,110.0
3520,E2,315.25,0.125,34,110.0
3521,E3,315.25,0.125,34,110.0
3522,E-2,315.5,0.125,26,110.0
3523,E-3,315.5,0.125,26,110.0
3524,C#2,315.75,0.125,27,110.0
3525,C#3,315.75,0.125,27,110.0
3526,B1,316.0,0.125,27,110.0
3527,B2,316.0,0.125,27,110.0
3528,E2,316.25,0.125,33,110.0
3529,E3,316.25,0.125,33,110.0
3530,E-2,316.5,0.125,31,110.0
3531,E-3,316.5,0.125,31,110.0
3532,C#2,316.75,0.125,28,110.0
3533,C#3,316.75,0.125,28,110.0
3534,B1,317.0,0.125,28,110.0
3535,B2,317.0,0.125,28,110.0
3536,A3,317.25,0.75,38,110.0
3537,B3,317.25,0.75,38,110.0
3538,E2,317.25,0.125,33,110.0
3539,E3,317.25,0.125,33,110.0
3540,E-2,317.5,0.125,27,110.0
3541,E-3,317.5,0.125,27,110.0
3542,C#2,317.75,0.125,27,110.0
3543,C#3,317.75,0.125,27,110.0
3544,A3,318.0,0.25,40,110.0
3545,B3,318.0,0.25,40,110.0
3546,B1,318.0,0.125,28,110.0
3547,B2,318.0,0.125,28,110.0
3548,G#3,318.25,0.75,40,110.0
3549,B3,318.25,0.75,40,110.0
3550,E2,318.25,0.125,34,110.0
3551,E3,318.25,0.125,34,110.0
3552,E-2,318.5,0.125,28,110.0
3553,E-3,318.5,0.125,28,110.0
3554,C#2,318.75,0.125,28,110.0
3555,C#3,318.75,0.125,28,110.0
3556,G#3,319.0,9/40,38,110.0
3557,E4,319.0,9/40,38,110.0
3558,B1,319.0,0.125,28,110.0
3559,B2,319.0,0.125,28,110.0
3560,G#3,319.25,1.0,41,110.0
3561,B3,319.25,1.0,41,110.0
3562,G#4,319.25,1.0,41,110.0
3563,E2,319.25,0.125,34,110.0
3564,E3,319.25,0.125,34,110.0
3565,E-2,319.5,0.125,30,110.0
3566,E-3,319.5,0.125,30,110.0
3567,C#2,319.75,0.125,28,110.0
3568,C#3,319.75,0.125,28,110.0
3569,B1,320.0,0.125,28,110.0
3570,B2,320.0,0.125,28,110.0
3571,A3,320.25,1.0,35,110.0
3572,B3,320.25,1.0,35,110.0
3573,F#4,320.25,1.0,35,110.0
3574,E2,320.25,0.125,34,110.0
3575,E3,320.25,0.125,34,110.0
3576,E-2,320.5,0.125,28,110.0
3577,E-3,320.5,0.125,28,110.0
3578,C#2,320.75,0.125,28,110.0
3579,C#3,320.75,0.125,28,110.0
3580,B1,321.0,0.125,28,110.0
3581,B2,321.0,0.125,28,110.0
3582,G#3,321.25,0.75,38,110.0
3583,B3,321.25,0.75,38,110.0
3584,E2,321.25,0.125,34,110.0
3585,E3,321.25,0.125,34,110.0
3586,E-2,321.5,0.125,28,110.0
3587,E-3,321.5,0.125,28,110.0
3588,C#2,321.75,0.125,28,110.0
3589,C#3,321.75,0.125,28,110.0
3590,G#3,322.0,9/40,38,110.0
3591,E4,322.0,9/40,38,110.0
3592,B1,322.0,0.125,28,110.0
3593,B2,322.0,0.125,28,110.0
3594,G#3,322.25,0.5,39,110.0
3595,B3,322.25,0.5,39,110.0
3596,G#4,322.25,0.5,39,110.0
3597,E2,322.25,0.125,34,110.0
3598,E3,322.25,0.125,34,110.0
3599,E-2,322.5,0.125,33,110.0
3600,E-3,322.5,0.125,33,110.0
3601,C#2,322.75,0.125,30,110.0
3602,C#3,322.75,0.125,30,110.0
3603,A3,323.0,0.25,38,110.0
3604,E-4,323.0,0.25,38,110.0
3605,B1,323.0,0.125,30,110.0
3606,B2,323.0,0.125,30,110.0
3607,G#3,323.25,0.5,38,110.0
3608,E4,323.25,0.5,38,110.0
3609,E2,323.25,0.125,36,110.0
3610,E3,323.25,0.125,36,110.0
3611,E-2,323.5,0.125,30,110.0
3612,E-3,323.5,0.125,30,110.0
3613,G#3,323.75,0.5,38,110.0
3614,E4,323.75,0.5,38,110.0
3615,G#4,323.75,0.5,38,110.0
3616,C#2,323.75,0.125,30,110.0
3617,C#3,323.75,0.125,30,110.0
3618,B1,324.0,0.125,30,110.0
3619,B2,324.0,0.125,30,110.0
3620,B3,324.25,0.5,42,110.0
3621,G#4,324.25,0.5,42,110.0
3622,B4,324.25,0.5,42,110.0
3623,E2,324.25,0.125,38,110.0
3624,E3,324.25,0.125,38,110.0
3625,E-2,324.5,0.125,31,110.0
3626,E-3,324.5,0.125,31,110.0
3627,C#4,324.75,0.125,42,110.0
3628,G#4,324.75,0.125,42,110.0
3629,C#5,324.75,0.125,42,110.0
3630,C#2,324.75,0.125,31,110.0
3631,C#3,324.75,0.125,31,110.0
3632,E-4,325.0,0.125,43,110.0
3633,G#4,325.0,0.125,43,110.0
3634,E-5,325.0,0.125,43,110.0
3635,B1,325.0,0.125,31,110.0
3636,B2,325.0,0.125,31,110.0
3637,E4,325.25,0.25,46,110.0
3638,G#4,325.25,0.25,46,110.0
3639,E5,325.25,0.25,46,110.0
3640,E2,325.25,0.125,38,110.0
3641,E3,325.25,0.125,38,110.0
3642,E-2,325.5,0.125,36,110.0
3643,E-3,325.5,0.125,36,110.0
3644,B3,325.75,0.25,41,110.0
3645,G#4,325.75,0.25,41,110.0
3646,B4,325.75,0.25,41,110.0
3647,C#2,325.75,0.125,32,110.0
3648,C#3,325.75,0.125,32,110.0
3649,B1,326.0,0.125,32,110.0
3650,B2,326.0,0.125,32,110.0
3651,G#4,326.25,1.0,48,110.0
3652,B4,326.25,1.0,48,110.0
3653,G#5,326.25,1.0,48,110.0
3654,E2,326.25,0.125,39,110.0
3655,E3,326.25,0.125,39,110.0
3656,E-2,326.5,0.125,32,110.0
3657,E-3,326.5,0.125,32,110.0
3658,C#2,326.75,0.125,32,110.0
3659,C#3,326.75,0.125,32,110.0
3660,B1,327.0,0.125,32,110.0
3661,B2,327.0,0.125,32,110.0
3662,B3,327.25,1.5,40,110.0
3663,F#4,327.25,1.5,40,110.0
3664,A4,327.25,1.5,40,110.0
3665,B4,327.25,1.5,40,110.0
3666,E2,327.25,0.125,39,110.0
3667,E3,327.25,0.125,39,110.0
3668,E-2,327.5,0.125,32,110.0
3669,E-3,327.5,0.125,32,110.0
3670,C#2,327.75,0.125,32,110.0
3671,C#3,327.75,0.125,32,110.0
3672,B1,328.0,0.125,32,110.0
3673,B2,328.0,0.125,32,110.0
3674,E2,328.25,0.125,39,110.0
3675,E3,328.25,0.125,39,110.0
3676,E-2,328.5,0.125,36,110.0
3677,E-3,328.5,0.125,36,110.0
3678,B3,328.75,0.125,45,110.0
3679,A4,328.75,0.125,45,110.0
3680,B4,328.75,0.125,45,110.0
3681,C#2,328.75,0.125,32,110.0
3682,C#3,328.75,0.125,32,110.0
3683,B3,329.0,0.125,45,110.0
3684,A4,329.0,0.125,45,110.0
3685,B4,329.0,0.125,45,110.0
3686,B1,329.0,0.125,32,110.0
3687,B2,329.0,0.125,32,110.0
3688,B3,329.25,0.25,46,110.0
3689,A4,329.25,0.25,46,110.0
3690,B4,329.25,0.25,46,110.0
3691,E2,329.25,0.125,39,110.0
3692,E3,329.25,0.125,39,110.0
3693,E-2,329.5,0.125,32,110.0
3694,E-3,329.5,0.125,32,110.0
3695,B3,329.75,0.25,44,110.0
3696,A4,329.75,0.25,44,110.0
3697,B4,329.75,0.25,44,110.0
3698,C#2,329.75,0.125,32,110.0
3699,C#3,329.75,0.125,32,110.0
3700,B1,330.0,0.125,32,110.0
3701,B2,330.0,0.125,32,110.0
3702,B3,330.25,0.75,48,110.0
3703,G#4,330.25,0.75,48,110.0
3704,B4,330.25,0.75,48,110.0
3705,E2,330.25,0.125,39,110.0
3706,E3,330.25,0.125,39,110.0
3707,E-2,330.5,0.125,32,110.0
3708,E-3,330.5,0.125,32,110.0
3709,C#2,330.75,0.125,32,110.0
3710,C#3,330.75,0.125,32,110.0
3711,E4,331.0,9/40,45,110.0
3712,G#4,331.0,9/40,45,110.0
3713,E5,331.0,9/40,45,110.0
3714,B1,331.0,0.125,32,110.0
3715,B2,331.0,0.125,32,110.0
3716,E4,331.25,1.0,47,110.0
3717,G#4,331.25,1.0,47,110.0
3718,E5,331.25,1.0,47,110.0
3719,E2,331.25,0.125,40,110.0
3720,E3,331.25,0.125,40,110.0
3721,E-2,331.5,0.125,36,110.0
3722,E-3,331.5,0.125,36,110.0
3723,C#2,331.75,0.125,32,110.0
3724,C#3,331.75,0.125,32,110.0
3725,B1,332.0,0.125,32,110.0
3726,B2,332.0,0.125,32,110.0
3727,B3,332.25,1.0,44,110.0
3728,E4,332.25,1.0,44,110.0
3729,G#4,332.25,1.0,44,110.0
3730,E2,332.25,0.125,40,110.0
3731,E3,332.25,0.125,40,110.0
3732,E-2,332.5,0.125,33,110.0
3733,E-3,332.5,0.125,33,110.0
3734,C#2,332.75,0.125,33,110.0
3735,C#3,332.75,0.125,33,110.0
3736,B1,333.0,0.125,33,110.0
3737,B2,333.0,0.125,33,110.0
3738,F#4,333.25,1.5,54,110.0
3739,A3,333.25,0.5,46,110.0
3740,B3,333.25,0.5,46,110.0
3741,E2,333.25,0.125,40,110.0
3742,E3,333.25,0.125,40,110.0
3743,E-2,333.5,0.125,33,110.0
3744,E-3,333.5,0.125,33,110.0
3745,A3,333.75,0.125,48,110.0
3746,B3,333.75,0.125,48,110.0
3747,C#2,333.75,0.125,33,110.0
3748,C#3,333.75,0.125,33,110.0
3749,B3,334.0,0.125,48,110.0
3750,A3,334.0,0.125,48,110.0
3751,B1,334.0,0.125,33,110.0
3752,B2,334.0,0.125,33,110.0
3753,A3,334.25,0.25,50,110.0
3754,B3,334.25,0.25,50,110.0
3755,E2,334.25,0.125,40,110.0
3756,E3,334.25,0.125,40,110.0
3757,E-2,334.5,0.125,36,110.0
3758,E-3,334.5,0.125,36,110.0
3759,A3,334.75,0.5,48,110.0
3760,B3,334.75,0.5,48,110.0
3761,F#4,334.75,0.5,48,110.0
3762,C#2,334.75,0.125,34,110.0
3763,C#3,334.75,0.125,34,110.0
3764,B1,335.0,0.125,34,110.0
3765,B2,335.0,0.125,34,110.0
3766,A3,335.25,0.125,48,110.0
3767,B3,335.25,0.125,48,110.0
3768,G#4,335.25,0.125,48,110.0
3769,E2,335.25,0.125,40,110.0
3770,E3,335.25,0.125,40,110.0
3771,A3,335.5,0.125,47,110.0
3772,B3,335.5,0.125,47,110.0
3773,F#4,335.5,0.125,47,110.0
3774,E-2,335.5,0.125,33,110.0
3775,E-3,335.5,0.125,33,110.0
3776,A3,335.75,0.125,46,110.0
3777,B3,335.75,0.125,46,110.0
3778,E4,335.75,0.125,46,110.0
3779,C#2,335.75,0.125,33,110.0
3780,C#3,335.75,0.125,33,110.0
3781,E-4,336.0,0.125,43,110.0
3782,A3,336.0,0.125,43,110.0
3783,B3,336.0,0.125,43,110.0
3784,F#4,336.0,0.125,43,110.0
3785,B1,336.0,0.125,33,110.0
3786,B2,336.0,0.125,33,110.0
3787,G#3,336.25,0.75,53,110.0
3788,E4,336.25,1.75,49,110.0
3789,G#4,336.25,1.75,49,110.0
3790,E2,336.25,0.125,40,110.0
3791,E3,336.25,0.125,40,110.0
3792,E-2,336.5,0.125,32,110.0
3793,E-3,336.5,0.125,32,110.0
3794,C#2,336.75,0.125,33,110.0
3795,C#3,336.75,0.125,33,110.0
3796,C#4,337.0,0.25,51,110.0
3797,B1,337.0,0.125,33,110.0
3798,B2,337.0,0.125,33,110.0
3799,B3,337.25,2.0,54,110.0
3800,E2,337.25,0.125,41,110.0
3801,E3,337.25,0.125,41,110.0
3802,E-2,337.5,0.125,38,110.0
3803,E-3,337.5,0.125,38,110.0
3804,C#2,337.75,0.125,34,110.0
3805,C#3,337.75,0.125,34,110.0
3806,G#4,338.0,9/40,48,110.0
3807,B4,338.0,9/40,48,110.0
3808,B1,338.0,0.125,34,110.0
3809,B2,338.0,0.125,34,110.0
3810,G#4,338.25,1.0,48,110.0
3811,B4,338.25,1.0,48,110.0
3812,E2,338.25,0.125,41,110.0
3813,E3,338.25,0.125,41,110.0
3814,E-2,338.5,0.125,34,110.0
3815,E-3,338.5,0.125,34,110.0
3816,C#2,338.75,0.125,34,110.0
3817,C#3,338.75,0.125,34,110.0
3818,B1,339.0,0.125,34,110.0
3819,B2,339.0,0.125,34,110.0
3820,G#3,339.25,1.5,49,110.0
3821,B3,339.25,1.5,49,110.0
3822,E2,339.25,0.125,40,110.0
3823,E3,339.25,0.125,40,110.0
3824,E-2,339.5,0.125,34,110.0
3825,E-3,339.5,0.125,34,110.0
3826,C#2,339.75,0.125,34,110.0
3827,C#3,339.75,0.125,34,110.0
3828,B1,340.0,0.125,34,110.0
3829,B2,340.0,0.125,34,110.0
3830,E2,340.25,0.125,42,110.0
3831,E3,340.25,0.125,42,110.0
3832,E-2,340.5,0.125,39,110.0
3833,E-3,340.5,0.125,39,110.0
3834,G3,340.75,0.125,50,110.0
3835,B3,340.75,0.125,50,110.0
3836,C#2,340.75,0.125,34,110.0
3837,C#3,340.75,0.125,34,110.0
3838,G#3,341.0,0.125,50,110.0
3839,B3,341.0,0.125,50,110.0
3840,B1,341.0,0.125,35,110.0
3841,B2,341.0,0.125,35,110.0
3842,A3,341.25,0.25,52,110.0
3843,B3,341.25,0.25,52,110.0
3844,E2,341.25,0.125,44,110.0
3845,E3,341.25,0.125,44,110.0
3846,E-2,341.5,0.125,36,110.0
3847,E-3,341.5,0.125,36,110.0
3848,A3,341.75,0.125,51,110.0
3849,C#4,341.75,0.125,51,110.0
3850,C#2,341.75,0.125,37,110.0
3851,C#3,341.75,0.125,37,110.0
3852,A3,342.0,0.125,52,110.0
3853,E-4,342.0,0.125,52,110.0
3854,B1,342.0,0.125,38,110.0
3855,B2,342.0,0.125,38,110.0
3856,G#3,342.25,0.75,56,110.0
3857,E4,342.25,0.75,56,110.0
3858,E2,342.25,0.125,47,110.0
3859,E3,342.25,0.125,47,110.0
3860,E-2,342.5,0.125,38,110.0
3861,E-3,342.5,0.125,38,110.0
3862,C#2,342.75,0.125,39,110.0
3863,C#3,342.75,0.125,39,110.0
3864,G#3,343.0,9/40,49,110.0
3865,B3,343.0,9/40,49,110.0
3866,B1,343.0,0.125,40,110.0
3867,B2,343.0,0.125,40,110.0
3868,G#3,343.25,1.0,54,110.0
3869,B3,343.25,1.0,54,110.0
3870,G#4,343.25,1.0,54,110.0
3871,E2,343.25,0.125,48,110.0
3872,E3,343.25,0.125,48,110.0
3873,E-2,343.5,0.125,45,110.0
3874,E-3,343.5,0.125,45,110.0
3875,C#2,343.75,0.125,42,110.0
3876,C#3,343.75,0.125,42,110.0
3877,B1,344.0,0.125,42,110.0
3878,B2,344.0,0.125,42,110.0
3879,A3,344.25,1.0,56,110.0
3880,B3,344.25,1.0,56,110.0
3881,F#4,344.25,1.0,56,110.0
3882,E2,344.25,0.125,52,110.0
3883,E3,344.25,0.125,52,110.0
3884,E-2,344.5,0.125,42,110.0
3885,E-3,344.5,0.125,42,110.0
3886,C#2,344.75,0.125,44,110.0
3887,C#3,344.75,0.125,44,110.0
3888,B1,345.0,0.125,44,110.0
3889,B2,345.0,0.125,44,110.0
3890,G#3,345.25,0.75,62,110.0
3891,B3,345.25,0.75,62,110.0
3892,E2,345.25,0.125,55,110.0
3893,E3,345.25,0.125,55,110.0
3894,E-2,345.5,0.125,46,110.0
3895,E-3,345.5,0.125,46,110.0
3896,C#2,345.75,0.125,46,110.0
3897,C#3,345.75,0.125,46,110.0
3898,G#3,346.0,9/40,66,110.0
3899,E4,346.0,9/40,66,110.0
3900,B1,346.0,0.125,46,110.0
3901,B2,346.0,0.125,46,110.0
3902,G#3,346.25,0.5,65,110.0
3903,B3,346.25,0.5,65,110.0
3904,G#4,346.25,0.5,65,110.0
3905,E2,346.25,0.125,56,110.0
3906,E3,346.25,0.125,56,110.0
3907,E-2,346.5,0.125,53,110.0
3908,E-3,346.5,0.125,53,110.0
3909,C#2,346.75,0.125,50,110.0
3910,C#3,346.75,0.125,50,110.0
3911,A3,347.0,0.25,64,110.0
3912,E-4,347.0,0.25,64,110.0
3913,B1,347.0,0.125,50,110.0
3914,B2,347.0,0.125,50,110.0
3915,G#3,347.25,0.5,67,110.0
3916,E4,347.25,0.5,67,110.0
3917,E2,347.25,0.125,61,110.0
3918,E3,347.25,0.125,61,110.0
3919,E-2,347.5,0.125,49,110.0
3920,E-3,347.5,0.125,49,110.0
3921,G#3,347.75,0.5,67,110.0
3922,E4,347.75,0.5,67,110.0
3923,G#4,347.75,0.5,67,110.0
3924,C#2,347.75,0.125,50,110.0
3925,C#3,347.75,0.125,50,110.0
3926,B1,348.0,0.125,52,110.0
3927,B2,348.0,0.125,52,110.0
3928,B3,348.25,1.0,70,110.0
3929,G#4,348.25,1.0,70,110.0
3930,B4,348.25,1.0,70,110.0
3931,E2,348.25,0.125,64,110.0
3932,E3,348.25,0.125,64,110.0
3933,E-2,348.5,0.125,52,110.0
3934,E-3,348.5,0.125,52,110.0
3935,C#2,348.75,0.125,52,110.0
3936,C#3,348.75,0.125,52,110.0
3937,B1,349.0,0.125,53,110.0
3938,B2,349.0,0.125,53,110.0
3939,C#4,349.25,0.25,65,110.0
3940,G#4,349.25,0.25,65,110.0
3941,C#5,349.25,0.25,65,110.0
3942,E2,349.25,0.125,68,110.0
3943,E3,349.25,0.125,68,110.0
3944,E-4,349.5,0.25,68,110.0
3945,G#4,349.5,0.25,68,110.0
3946,E-5,349.5,0.25,68,110.0
3947,E-2,349.5,0.125,62,110.0
3948,E-3,349.5,0.125,62,110.0
3949,E4,349.75,0.25,68,110.0
3950,G#4,349.75,0.25,68,110.0
3951,E5,349.75,0.25,68,110.0
3952,C#2,349.75,0.125,58,110.0
3953,C#3,349.75,0.125,58,110.0
3954,F#4,350.0,0.25,72,110.0
3955,B4,350.0,0.25,72,110.0
3956,F#5,350.0,0.25,72,110.0
3957,B1,350.0,0.125,58,110.0
3958,B2,350.0,0.125,58,110.0
3959,B4,350.25,0.75,85,110.0
3960,G#4,350.25,1.0,76,110.0
3961,E5,350.25,1.0,76,110.0
3962,G#5,350.25,1.0,76,110.0
3963,E2,350.25,0.125,70,110.0
3964,E3,350.25,0.125,70,110.0
3965,E-2,350.5,0.125,58,110.0
3966,E-3,350.5,0.125,58,110.0
3967,E2,350.75,0.125,59,110.0
3968,E3,350.75,0.125,59,110.0
3969,B-4,351.0,0.25,81,110.0
3970,D2,351.0,0.125,60,110.0
3971,D3,351.0,0.125,60,110.0
3972,B-4,351.25,1.5,81,110.0
3973,G4,351.25,1.5,79,110.0
3974,E-5,351.25,1.5,79,110.0
3975,G5,351.25,1.5,79,110.0
3976,E-2,351.25,0.125,72,110.0
3977,E-3,351.25,0.125,72,110.0
3978,D2,351.5,0.125,60,110.0
3979,D3,351.5,0.125,60,110.0
3980,C2,351.75,0.125,60,110.0
3981,C3,351.75,0.125,60,110.0
3982,B-1,352.0,0.125,60,110.0
3983,B-2,352.0,0.125,60,110.0
3984,E-2,352.25,0.125,73,110.0
3985,E-3,352.25,0.125,73,110.0
3986,D2,352.5,0.125,68,110.0
3987,D3,352.5,0.125,68,110.0
3988,B-4,352.75,1.0,86,110.0
3989,B-3,352.75,0.5,72,110.0
3990,G4,352.75,0.5,72,110.0
3991,C2,352.75,0.125,64,110.0
3992,C3,352.75,0.125,64,110.0
3993,B-1,353.0,0.125,64,110.0
3994,B-2,353.0,0.125,64,110.0
3995,E-5,353.25,1.0,90,110.0
3996,E-4,353.25,0.5,76,110.0
3997,G4,353.25,0.5,76,110.0
3998,E-2,353.25,0.125,76,110.0
3999,E-3,353.25,0.125,76,110.0
4000,D2,353.5,0.125,63,110.0
4001,D3,353.5,0.125,63,110.0
4002,G4,353.75,0.5,86,110.0
4003,B-4,353.75,0.5,86,110.0
4004,G5,353.75,0.5,86,110.0
4005,C2,353.75,0.125,64,110.0
4006,C3,353.75,0.125,64,110.0
4007,B-1,354.0,0.125,66,110.0
4008,B-2,354.0,0.125,66,110.0
4009,B-4,354.25,0.75,90,110.0
4010,G5,354.25,0.75,90,110.0
4011,B-5,354.25,0.75,90,110.0
4012,E-2,354.25,0.125,76,110.0
4013,E-3,354.25,0.125,76,110.0
4014,D2,354.5,0.125,62,110.0
4015,D3,354.5,0.125,62,110.0
4016,C2,354.75,0.125,64,110.0
4017,C3,354.75,0.125,64,110.0
4018,E-6,355.0,1.75,99,110.0
4019,E-5,355.0,0.25,83,110.0
4020,G5,355.0,0.25,83,110.0
4021,B-1,355.0,0.125,64,110.0
4022,B-2,355.0,0.125,64,110.0
4023,E-5,355.25,0.75,92,110.0
4024,G5,355.25,0.75,92,110.0
4025,E-2,355.25,0.125,78,110.0
4026,E-3,355.25,0.125,78,110.0
4027,D2,355.5,0.125,71,110.0
4028,D3,355.5,0.125,71,110.0
4029,C2,355.75,0.125,66,110.0
4030,C3,355.75,0.125,66,110.0
4031,G5,356.0,0.75,96,110.0
4032,E-5,356.0,0.25,81,110.0
4033,G4,356.0,0.25,81,110.0
4034,B-1,356.0,0.125,66,110.0
4035,B-2,356.0,0.125,66,110.0
4036,G4,356.25,0.5,81,110.0
4037,E-5,356.25,0.5,81,110.0
4038,E-2,356.25,0.125,80,110.0
4039,E-3,356.25,0.125,80,110.0
4040,D2,356.5,0.125,66,110.0
4041,D3,356.5,0.125,66,110.0
4042,C5,356.75,0.25,83,110.0
4043,C6,356.75,0.25,83,110.0
4044,G5,356.75,0.25,83,110.0
4045,C2,356.75,0.125,66,110.0
4046,C3,356.75,0.125,66,110.0
4047,B-1,357.0,0.125,68,110.0
4048,B-2,357.0,0.125,68,110.0
4049,B-4,357.25,1.0,91,110.0
4050,G5,357.25,1.0,91,110.0
4051,B-5,357.25,1.0,91,110.0
4052,E-2,357.25,0.125,78,110.0
4053,E-3,357.25,0.125,78,110.0
4054,D2,357.5,0.125,64,110.0
4055,D3,357.5,0.125,64,110.0
4056,C2,357.75,0.125,64,110.0
4057,C3,357.75,0.125,64,110.0
4058,B-1,358.0,0.125,65,110.0
4059,B-2,358.0,0.125,65,110.0
4060,E-2,358.25,0.125,80,110.0
4061,E-3,358.25,0.125,80,110.0
4062,D2,358.5,0.125,73,110.0
4063,D3,358.5,0.125,73,110.0
4064,B-3,358.75,0.125,90,110.0
4065,B-4,358.75,0.125,90,110.0
4066,C2,358.75,0.125,68,110.0
4067,C3,358.75,0.125,68,110.0
4068,B-3,359.0,0.125,90,110.0
4069,B-4,359.0,0.125,90,110.0
4070,B-1,359.0,0.125,68,110.0
4071,B-2,359.0,0.125,68,110.0
4072,B-3,359.25,0.25,95,110.0
4073,B-4,359.25,0.25,95,110.0
4074,G#4,359.25,0.25,95,110.0
4075,E-2,359.25,0.125,82,110.0
4076,E-3,359.25,0.125,82,110.0
4077,D2,359.5,0.125,68,110.0
4078,D3,359.5,0.125,68,110.0
4079,F4,359.75,0.25,90,110.0
4080,G#4,359.75,0.25,90,110.0
4081,B-4,359.75,0.25,90,110.0
4082,F5,359.75,0.25,90,110.0
4083,C2,359.75,0.125,68,110.0
4084,C3,359.75,0.125,68,110.0
4085,B-1,360.0,0.125,69,110.0
4086,B-2,360.0,0.125,69,110.0
4087,E-4,360.25,0.25,96,110.0
4088,G4,360.25,0.25,96,110.0
4089,E-5,360.25,0.25,96,110.0
4090,E-2,360.25,0.125,68,110.0
4091,E-3,360.25,0.125,68,110.0
4092,E-4,360.75,0.125,73,110.0
4093,E-5,360.75,0.125,73,110.0
4094,E-2,360.75,0.125,59,110.0
4095,E-3,360.75,0.125,59,110.0
4096,E-4,361.0,0.125,69,110.0
4097,E-5,361.0,0.125,69,110.0
4098,E-2,361.0,0.125,54,110.0
4099,E-3,361.0,0.125,54,110.0
4100,E-4,361.25,0.5,74,110.0
4101,E-5,361.25,0.5,74,110.0
4102,E2,361.25,0.5,58,110.0
4103,E3,361.25,0.5,58,110.0
4104,E-4,361.75,0.125,72,110.0
4105,E-5,361.75,0.125,72,110.0
4106,E2,361.75,0.125,56,110.0
4107,E3,361.75,0.125,56,110.0
4108,E-4,362.0,0.125,68,110.0
4109,E-5,362.0,0.125,68,110.0
4110,E2,362.0,0.125,54,110.0
4111,E3,362.0,0.125,54,110.0
4112,E-4,362.25,0.5,73,110.0
4113,E-5,362.25,0.5,73,110.0
4114,F2,362.25,0.5,60,110.0
4115,F3,362.25,0.5,60,110.0
4116,E-4,362.75,0.125,68,110.0
4117,E-5,362.75,0.125,68,110.0
4118,F2,362.75,0.125,57,110.0
4119,F3,362.75,0.125,57,110.0
4120,E-4,363.0,0.125,66,110.0
4121,E-5,363.0,0.125,66,110.0
4122,F2,363.0,0.125,56,110.0
4123,F3,363.0,0.125,56,110.0
4124,E-5,363.25,1.0,81,110.0
4125,C#4,363.25,0.5,51,110.0
4126,E-4,363.25,0.5,51,110.0
4127,F#2,363.25,0.5,47,110.0
4128,F#3,363.25,0.5,47,110.0
4129,E-4,363.75,0.125,55,110.0
4130,C#4,363.75,0.125,47,110.0
4131,F#3,363.75,0.125,47,110.0
4132,E-4,364.0,0.125,54,110.0
4133,C#4,364.0,0.125,47,110.0
4134,F#3,364.0,0.125,47,110.0
4135,E-4,364.25,0.5,54,110.0
4136,B-4,364.25,1.0,71,110.0
4137,C#4,364.25,0.5,47,110.0
4138,F#3,364.25,0.5,47,110.0
4139,E-4,364.75,0.125,54,110.0
4140,F#3,364.75,0.125,47,110.0
4141,C#4,364.75,0.125,47,110.0
4142,E-4,365.0,0.125,53,110.0
4143,F#3,365.0,0.125,47,110.0
4144,C#4,365.0,0.125,47,110.0
4145,C4,365.25,0.5,61,110.0
4146,F#4,365.25,0.5,61,110.0
4147,C5,365.25,0.5,61,110.0
4148,G#2,365.25,0.5,43,110.0
4149,E-3,365.25,0.5,43,110.0
4150,G#3,365.25,0.5,43,110.0
4151,F#4,365.75,0.25,61,110.0
4152,F5,365.75,0.25,61,110.0
4153,E-3,365.75,0.125,43,110.0
4154,G#3,365.75,0.125,43,110.0
4155,C4,365.75,0.125,43,110.0
4156,F#4,366.0,0.25,59,110.0
4157,E-5,366.0,0.25,59,110.0
4158,E-3,366.0,0.125,43,110.0
4159,G#3,366.0,0.125,43,110.0
4160,C4,366.0,0.125,43,110.0
4161,F4,366.25,0.5,57,110.0
4162,E-5,366.25,0.25,68,110.0
4163,C#3,366.25,0.5,47,110.0
4164,G#3,366.25,0.5,47,110.0
4165,C4,366.25,0.5,47,110.0
4166,C#5,366.5,0.25,64,110.0
4167,F4,366.75,0.125,59,110.0
4168,C#5,366.75,0.125,59,110.0
4169,C#3,366.75,0.125,43,110.0
4170,G#3,366.75,0.125,43,110.0
4171,C#4,366.75,0.125,43,110.0
4172,F4,367.0,0.125,54,110.0
4173,C5,367.0,0.125,54,110.0
4174,C#3,367.0,0.125,43,110.0
4175,G#3,367.0,0.125,43,110.0
4176,C#4,367.0,0.125,43,110.0
4177,F4,367.25,0.5,52,110.0
4178,B-4,367.25,1.0,62,110.0
4179,C#3,367.25,0.5,48,110.0
4180,G3,367.25,0.5,48,110.0
4181,C#4,367.25,0.5,48,110.0
4182,F4,367.75,9/40,53,110.0
4183,C#3,367.75,9/40,46,110.0
4184,G3,367.75,9/40,46,110.0
4185,C#4,367.75,9/40,46,110.0
4186,F4,368.0,9/40,53,110.0
4187,C#3,368.0,9/40,46,110.0
4188,G3,368.0,9/40,46,110.0
4189,C#4,368.0,9/40,46,110.0
4190,C5,368.25,1.0,64,110.0
4191,C4,368.25,0.5,54,110.0
4192,E4,368.25,0.5,54,110.0
4193,C3,368.25,0.5,48,110.0
4194,G3,368.25,0.5,48,110.0
4195,B-3,368.25,0.5,48,110.0
4196,C4,368.75,9/40,54,110.0
4197,E4,368.75,9/40,54,110.0
4198,C3,368.75,9/40,46,110.0
4199,G3,368.75,9/40,46,110.0
4200,B-3,368.75,9/40,46,110.0
4201,C4,369.0,9/40,53,110.0
4202,E4,369.0,9/40,53,110.0
4203,C3,369.0,9/40,46,110.0
4204,G3,369.0,9/40,46,110.0
4205,B-3,369.0,9/40,46,110.0
4206,B-4,369.25,0.25,68,110.0
4207,F4,369.25,0.5,57,110.0
4208,C4,369.25,0.5,57,110.0
4209,F3,369.25,0.5,48,110.0
4210,G#3,369.25,0.5,48,110.0
4211,G#4,369.5,0.25,64,110.0
4212,C4,369.75,0.125,59,110.0
4213,G#4,369.75,0.125,59,110.0
4214,F3,369.75,0.125,44,110.0
4215,G#3,369.75,0.125,44,110.0
4216,C4,370.0,0.125,54,110.0
4217,G4,370.0,0.125,54,110.0
4218,E-3,370.0,0.125,44,110.0
4219,G#3,370.0,0.125,44,110.0
4220,C4,370.25,0.5,52,110.0
4221,F4,370.25,1.0,62,110.0
4222,D3,370.25,0.5,50,110.0
4223,G#3,370.25,0.5,50,110.0
4224,C4,370.75,9/40,50,110.0
4225,D4,370.75,9/40,50,110.0
4226,D3,370.75,9/40,44,110.0
4227,G#3,370.75,9/40,44,110.0
4228,C4,371.0,9/40,50,110.0
4229,D4,371.0,9/40,50,110.0
4230,D3,371.0,9/40,44,110.0
4231,G#3,371.0,9/40,44,110.0
4232,G4,371.25,1.0,64,110.0
4233,B3,371.25,0.5,54,110.0
4234,D4,371.25,0.5,54,110.0
4235,G2,371.25,0.5,48,110.0
4236,D3,371.25,0.5,48,110.0
4237,G3,371.25,0.5,48,110.0
4238,B3,371.75,9/40,51,110.0
4239,D4,371.75,9/40,51,110.0
4240,G2,371.75,9/40,43,110.0
4241,D3,371.75,9/40,43,110.0
4242,G3,371.75,9/40,43,110.0
4243,B3,372.0,9/40,50,110.0
4244,D4,372.0,9/40,50,110.0
4245,G2,372.0,9/40,43,110.0
4246,D3,372.0,9/40,43,110.0
4247,G3,372.0,9/40,43,110.0
4248,C4,372.25,0.5,47,110.0
4249,E-4,372.25,0.125,56,110.0
4250,C3,372.25,0.5,46,110.0
4251,G3,372.25,0.5,46,110.0
4252,F4,372.375,0.125,56,110.0
4253,E-4,372.5,0.25,62,110.0
4254,B3,372.75,0.25,54,110.0
4255,D4,372.75,0.25,54,110.0
4256,C3,372.75,9/40,42,110.0
4257,G3,372.75,9/40,42,110.0
4258,C4,373.0,0.25,54,110.0
4259,E-4,373.0,0.25,54,110.0
4260,C3,373.0,9/40,42,110.0
4261,G3,373.0,9/40,42,110.0
4262,F4,373.25,0.125,56,110.0
4263,D4,373.25,0.5,47,110.0
4264,G#3,373.25,0.5,46,110.0
4265,B-2,373.25,0.5,46,110.0
4266,G4,373.375,0.125,56,110.0
4267,F4,373.5,0.25,62,110.0
4268,C4,373.75,0.25,54,110.0
4269,E-4,373.75,0.25,54,110.0
4270,G#3,373.75,9/40,42,110.0
4271,B-2,373.75,9/40,42,110.0
4272,D4,374.0,0.25,59,110.0
4273,F4,374.0,0.25,59,110.0
4274,B-2,374.0,9/40,42,110.0
4275,G#3,374.0,9/40,42,110.0
4276,G4,374.25,1.0,64,110.0
4277,G3,374.25,0.5,54,110.0
4278,E-4,374.25,0.5,54,110.0
4279,E-2,374.25,0.5,48,110.0
4280,B-2,374.25,0.5,48,110.0
4281,E-3,374.25,0.5,48,110.0
4282,E-4,374.75,9/40,51,110.0
4283,G3,374.75,9/40,51,110.0
4284,B-2,374.75,9/40,43,110.0
4285,E-3,374.75,9/40,43,110.0
4286,E-2,374.75,9/40,43,110.0
4287,E-4,375.0,9/40,50,110.0
4288,G3,375.0,9/40,50,110.0
4289,B-2,375.0,9/40,43,110.0
4290,E-3,375.0,9/40,43,110.0
4291,E-2,375.0,9/40,43,110.0
4292,G5,375.25,1.0,81,110.0
4293,D5,375.25,0.5,51,110.0
4294,F4,375.25,0.5,51,110.0
4295,G4,375.25,0.5,51,110.0
4296,B1,375.25,0.5,47,110.0
4297,B2,375.25,0.5,47,110.0
4298,G4,375.75,9/40,55,110.0
4299,F4,375.75,9/40,55,110.0
4300,B2,375.75,9/40,46,110.0
4301,B3,375.75,9/40,46,110.0
4302,G3,375.75,9/40,46,110.0
4303,G4,376.0,9/40,54,110.0
4304,F4,376.0,9/40,54,110.0
4305,B2,376.0,9/40,46,110.0
4306,B3,376.0,9/40,46,110.0
4307,G3,376.0,9/40,46,110.0
4308,D5,376.25,1.0,71,110.0
4309,G4,376.25,0.5,54,110.0
4310,F4,376.25,0.5,54,110.0
4311,B2,376.25,0.5,46,110.0
4312,B3,376.25,0.5,46,110.0
4313,G3,376.25,0.5,46,110.0
4314,G4,376.75,9/40,54,110.0
4315,F4,376.75,9/40,54,110.0
4316,B2,376.75,9/40,46,110.0
4317,G3,376.75,9/40,46,110.0
4318,B3,376.75,9/40,46,110.0
4319,G4,377.0,9/40,53,110.0
4320,F4,377.0,9/40,53,110.0
4321,B2,377.0,9/40,46,110.0
4322,G3,377.0,9/40,46,110.0
4323,B3,377.0,9/40,46,110.0
4324,E5,377.25,1.0,68,110.0
4325,B-4,377.25,0.5,58,110.0
4326,E4,377.25,0.5,58,110.0
4327,C5,377.25,0.5,58,110.0
4328,C3,377.25,0.5,43,110.0
4329,G3,377.25,0.5,43,110.0
4330,C4,377.25,0.5,43,110.0
4331,B-4,377.75,9/40,56,110.0
4332,E4,377.75,9/40,56,110.0
4333,C5,377.75,9/40,56,110.0
4334,C3,377.75,9/40,43,110.0
4335,G3,377.75,9/40,43,110.0
4336,C4,377.75,9/40,43,110.0
4337,B-4,378.0,9/40,56,110.0
4338,E4,378.0,9/40,56,110.0
4339,C5,378.0,9/40,56,110.0
4340,C3,378.0,9/40,43,110.0
4341,G3,378.0,9/40,43,110.0
4342,C4,378.0,9/40,43,110.0
4343,G5,378.25,0.25,68,110.0
4344,G#4,378.25,0.5,57,110.0
4345,C5,378.25,0.5,57,110.0
4346,F3,378.25,0.5,47,110.0
4347,C4,378.25,0.5,47,110.0
4348,E4,378.25,0.5,47,110.0
4349,F5,378.5,0.25,64,110.0
4350,G#4,378.75,0.125,57,110.0
4351,C5,378.75,0.125,57,110.0
4352,F5,378.75,0.125,57,110.0
4353,F3,378.75,0.125,43,110.0
4354,C4,378.75,0.125,43,110.0
4355,F4,378.75,0.125,43,110.0
4356,G#4,379.0,0.125,52,110.0
4357,C5,379.0,0.125,52,110.0
4358,E-5,379.0,0.125,52,110.0
4359,F3,379.0,0.125,43,110.0
4360,C4,379.0,0.125,43,110.0
4361,F4,379.0,0.125,43,110.0
4362,D5,379.25,1.0,62,110.0
4363,C5,379.25,0.5,47,110.0
4364,G#4,379.25,0.5,47,110.0
4365,F4,379.25,0.5,47,110.0
4366,F3,379.25,0.5,48,110.0
4367,C4,379.25,0.5,48,110.0
4368,D4,379.25,0.5,48,110.0
4369,C5,379.75,9/40,53,110.0
4370,G#4,379.75,9/40,53,110.0
4371,F4,379.75,9/40,53,110.0
4372,F3,379.75,9/40,46,110.0
4373,C4,379.75,9/40,46,110.0
4374,D4,379.75,9/40,46,110.0
4375,C5,380.0,9/40,53,110.0
4376,G#4,380.0,9/40,53,110.0
4377,F4,380.0,9/40,53,110.0
4378,F3,380.0,9/40,46,110.0
4379,C4,380.0,9/40,46,110.0
4380,D4,380.0,9/40,46,110.0
4381,E5,380.25,1.0,64,110.0
4382,B-4,380.25,0.5,54,110.0
4383,C5,380.25,0.5,54,110.0
4384,G3,380.25,0.5,48,110.0
4385,C4,380.25,0.5,48,110.0
4386,E4,380.25,0.5,48,110.0
4387,B-4,380.75,9/40,54,110.0
4388,C5,380.75,9/40,54,110.0
4389,G3,380.75,9/40,46,110.0
4390,C4,380.75,9/40,46,110.0
4391,E4,380.75,9/40,46,110.0
4392,B-4,381.0,9/40,53,110.0
4393,C5,381.0,9/40,53,110.0
4394,G3,381.0,9/40,46,110.0
4395,C4,381.0,9/40,46,110.0
4396,E4,381.0,9/40,46,110.0
4397,G5,381.25,0.25,64,110.0
4398,G#4,381.25,0.5,54,110.0
4399,C5,381.25,0.5,54,110.0
4400,G#3,381.25,0.5,44,110.0
4401,C4,381.25,0.5,44,110.0
4402,E4,381.25,0.5,44,110.0
4403,F5,381.5,0.25,61,110.0
4404,G#4,381.75,0.125,54,110.0
4405,C5,381.75,0.125,54,110.0
4406,F5,381.75,0.125,54,110.0
4407,G#3,381.75,0.125,40,110.0
4408,C4,381.75,0.125,40,110.0
4409,F4,381.75,0.125,40,110.0
4410,G#4,382.0,0.125,47,110.0
4411,C5,382.0,0.125,47,110.0
4412,E-5,382.0,0.125,47,110.0
4413,G#3,382.0,0.125,39,110.0
4414,C4,382.0,0.125,39,110.0
4415,F4,382.0,0.125,39,110.0
4416,G#4,382.25,0.5,51,110.0
4417,E-5,382.25,0.25,61,110.0
4418,F3,382.25,0.5,42,110.0
4419,C4,382.25,0.5,42,110.0
4420,F4,382.25,0.5,42,110.0
4421,D5,382.5,0.25,56,110.0
4422,F4,382.75,0.125,49,110.0
4423,G#4,382.75,0.125,49,110.0
4424,D5,382.75,0.125,49,110.0
4425,F3,382.75,0.125,38,110.0
4426,C4,382.75,0.125,38,110.0
4427,F4,383.0,0.125,45,110.0
4428,G#4,383.0,0.125,45,110.0
4429,C5,383.0,0.125,45,110.0
4430,F3,383.0,0.125,38,110.0
4431,C4,383.0,0.125,38,110.0
4432,F4,383.25,0.5,49,110.0
4433,C5,383.25,0.25,57,110.0
4434,D3,383.25,0.5,40,110.0
4435,G#3,383.25,0.5,40,110.0
4436,C4,383.25,0.5,40,110.0
4437,B-4,383.5,0.25,53,110.0
4438,D4,383.75,0.125,45,110.0
4439,F4,383.75,0.125,45,110.0
4440,B-4,383.75,0.125,45,110.0
4441,D3,383.75,0.125,33,110.0
4442,G3,383.75,0.125,33,110.0
4443,C4,383.75,0.125,33,110.0
4444,D4,384.0,0.125,40,110.0
4445,F4,384.0,0.125,40,110.0
4446,G#4,384.0,0.125,40,110.0
4447,D3,384.0,0.125,33,110.0
4448,F3,384.0,0.125,33,110.0
4449,C4,384.0,0.125,33,110.0
4450,B3,384.25,0.25,42,110.0
4451,D4,384.25,0.25,42,110.0
4452,G4,384.25,0.25,42,110.0
4453,G2,384.25,0.25,36,110.0
4454,D3,384.25,0.25,36,110.0
4455,G3,384.25,0.25,36,110.0
4456,E-4,384.75,0.25,35,110.0
4457,C4,384.75,0.25,35,110.0
4458,G4,384.75,0.25,35,110.0
4459,G2,384.75,0.25,32,110.0
4460,C3,384.75,0.25,32,110.0
4461,G3,384.75,0.25,32,110.0
4462,C4,385.0,0.25,34,110.0
4463,A3,385.0,0.25,34,110.0
4464,G4,385.0,0.25,34,110.0
4465,G2,385.0,0.25,32,110.0
4466,E-3,385.0,0.25,32,110.0
4467,G3,385.0,0.25,32,110.0
4468,B3,385.25,0.25,35,110.0
4469,D4,385.25,0.25,35,110.0
4470,G4,385.25,0.25,35,110.0
4471,G2,385.25,0.25,33,110.0
4472,D3,385.25,0.25,33,110.0
4473,G3,385.25,0.25,33,110.0
4474,E-4,385.75,0.25,32,110.0
4475,C4,385.75,0.25,32,110.0
4476,G4,385.75,0.25,32,110.0
4477,G2,385.75,0.25,30,110.0
4478,C3,385.75,0.25,30,110.0
4479,G3,385.75,0.25,30,110.0
4480,C4,386.0,0.25,31,110.0
4481,A3,386.0,0.25,31,110.0
4482,G4,386.0,0.25,31,110.0
4483,G2,386.0,0.25,30,110.0
4484,E-3,386.0,0.25,30,110.0
4485,G3,386.0,0.25,30,110.0
4486,D4,386.25,0.25,32,110.0
4487,G4,386.25,0.25,32,110.0
4488,B3,386.25,0.25,32,110.0
4489,G2,386.25,0.25,29,110.0
4490,D3,386.25,0.25,29,110.0
4491,G3,386.25,0.25,29,110.0
4492,D5,386.75,0.5,50,110.0
4493,D4,386.75,0.5,38,110.0
4494,D5,387.25,0.25,50,110.0
4495,D4,387.25,0.5,38,110.0
4496,C5,387.5,0.25,39,110.0
4497,B4,387.75,0.25,38,110.0
4498,D4,387.75,1.0,32,110.0
4499,A4,388.0,0.25,37,110.0
4500,G#4,388.25,0.25,36,110.0
4501,F#3,388.25,0.5,30,110.0
4502,C4,388.25,0.5,30,110.0
4503,A4,388.5,0.25,36,110.0
4504,B4,388.75,0.25,36,110.0
4505,D3,388.75,0.5,26,110.0
4506,D4,388.75,0.5,26,110.0
4507,C5,389.0,0.25,36,110.0
4508,C#5,389.25,0.25,36,110.0
4509,G3,389.25,0.5,30,110.0
4510,B3,389.25,0.5,30,110.0
4511,D5,389.5,0.25,36,110.0
4512,G5,389.75,0.25,40,110.0
4513,D3,389.75,0.5,26,110.0
4514,D4,389.75,0.5,26,110.0
4515,E5,390.0,0.25,36,110.0
4516,C#5,390.25,0.25,36,110.0
4517,D2,390.25,0.25,47,110.0
4518,D5,390.5,0.25,38,110.0
4519,F#5,390.75,0.25,40,110.0
4520,D3,390.75,0.5,26,110.0
4521,D4,390.75,0.5,26,110.0
4522,E5,391.0,0.25,38,110.0
4523,D5,391.25,0.25,36,110.0
4524,A3,391.25,0.5,30,110.0
4525,C4,391.25,0.5,30,110.0
4526,C5,391.5,0.25,36,110.0
4527,E4,391.75,0.25,36,110.0
4528,D3,391.75,0.5,26,110.0
4529,D4,391.75,0.5,26,110.0
4530,F#4,392.0,0.25,36,110.0
4531,G4,392.25,0.062,32,110.0
4532,G3,392.25,0.5,30,110.0
4533,B3,392.25,0.5,30,110.0
4534,A4,392.312,0.062,32,110.0
4535,G4,392.375,0.125,36,110.0
4536,F#4,392.5,0.25,36,110.0
4537,G4,392.75,0.25,35,110.0
4538,D3,392.75,0.5,26,110.0
4539,D4,392.75,0.5,26,110.0
4540,G#4,393.0,0.25,36,110.0
4541,A4,393.25,0.25,36,110.0
4542,F#3,393.25,0.5,30,110.0
4543,A3,393.25,0.5,30,110.0
4544,F#5,393.5,0.25,40,110.0
4545,E5,393.75,0.25,37,110.0
4546,D3,393.75,0.5,26,110.0
4547,D4,393.75,0.5,26,110.0
4548,D5,394.0,0.25,36,110.0
4549,C#5,394.25,0.25,38,110.0
4550,G3,394.25,0.5,30,110.0
4551,B-3,394.25,0.5,30,110.0
4552,F#5,394.5,0.25,37,110.0
4553,G5,394.75,0.25,39,110.0
4554,D3,394.75,1.0,30,110.0
4555,D4,394.75,1.0,30,110.0
4556,A5,395.0,0.25,40,110.0
4557,C6,395.25,0.25,42,110.0
4558,B-5,395.5,0.25,40,110.0
4559,G5,395.75,0.25,38,110.0
4560,D3,395.75,0.5,28,110.0
4561,D4,395.75,0.5,28,110.0
4562,C#5,396.0,0.25,36,110.0
4563,D5,396.25,0.375,44,110.0
4564,F#3,396.25,0.5,30,110.0
4565,A3,396.25,0.5,30,110.0
4566,E5,396.625,0.125,36,110.0
4567,D5,396.75,0.375,44,110.0
4568,D3,396.75,0.5,26,110.0
4569,D4,396.75,0.5,26,110.0
4570,E-5,397.125,0.125,36,110.0
4571,D5,397.25,0.375,44,110.0
4572,G3,397.25,0.5,30,110.0
4573,B-3,397.25,0.5,30,110.0
4574,E5,397.625,0.125,36,110.0
4575,D5,397.75,0.375,44,110.0
4576,D3,397.75,0.5,26,110.0
4577,D4,397.75,0.5,26,110.0
4578,E-5,398.125,0.125,36,110.0
4579,D5,398.25,0.375,44,110.0
4580,G#3,398.25,0.5,30,110.0
4581,B3,398.25,0.5,30,110.0
4582,E5,398.625,0.125,36,110.0
4583,D5,398.75,0.375,44,110.0
4584,D3,398.75,0.5,26,110.0
4585,D4,398.75,0.5,26,110.0
4586,E-5,399.125,0.125,36,110.0
4587,D5,399.25,0.25,40,110.0
4588,A3,399.25,0.5,28,110.0
4589,C4,399.25,0.5,28,110.0
4590,C5,399.5,0.25,39,110.0
4591,B-4,399.75,0.25,38,110.0
4592,D3,399.75,1.0,28,110.0
4593,D4,399.75,1.0,28,110.0
4594,A4,400.0,0.25,36,110.0
4595,G#4,400.25,0.25,36,110.0
4596,A4,400.5,0.25,36,110.0
4597,B-4,400.75,0.25,36,110.0
4598,D3,400.75,0.5,26,110.0
4599,D4,400.75,0.5,26,110.0
4600,C5,401.0,0.25,36,110.0
4601,C#5,401.25,0.25,36,110.0
4602,G3,401.25,0.5,30,110.0
4603,B-3,401.25,0.5,30,110.0
4604,D5,401.5,0.25,39,110.0
4605,G5,401.75,0.125,47,110.0
4606,D3,401.75,0.5,26,110.0
4607,D4,401.75,0.5,26,110.0
4608,F#5,402.0,0.125,40,110.0
4609,F5,402.25,0.125,47,110.0
4610,D2,402.25,0.25,47,110.0
4611,E5,402.5,0.125,40,110.0
4612,E-5,402.75,0.125,39,110.0
4613,D3,402.75,0.5,26,110.0
4614,D4,402.75,0.5,26,110.0
4615,D5,403.0,0.125,38,110.0
4616,C#5,403.25,0.25,36,110.0
4617,F#3,403.25,0.5,30,110.0
4618,C4,403.25,0.5,30,110.0
4619,C5,403.5,0.25,36,110.0
4620,A4,403.75,0.25,36,110.0
4621,D3,403.75,0.5,26,110.0
4622,D4,403.75,0.5,26,110.0
4623,B-4,404.0,0.25,36,110.0
4624,G4,404.25,0.062,32,110.0
4625,G3,404.25,0.5,30,110.0
4626,B-3,404.25,0.5,30,110.0
4627,A4,404.312,0.062,32,110.0
4628,G4,404.375,0.125,36,110.0
4629,F#4,404.5,0.25,41,110.0
4630,G4,404.75,0.25,35,110.0
4631,D3,404.75,0.5,26,110.0
4632,D4,404.75,0.5,26,110.0
4633,A4,405.0,0.25,40,110.0
4634,B-4,405.25,0.25,50,110.0
4635,G3,405.25,0.5,37,110.0
4636,B-3,405.25,0.5,37,110.0
4637,B-5,405.5,0.25,54,110.0
4638,A5,405.75,0.25,51,110.0
4639,D3,405.75,1.0,33,110.0
4640,E-4,405.75,1.0,33,110.0
4641,G5,406.0,0.25,49,110.0
4642,A5,406.25,0.25,56,110.0
4643,G5,406.5,0.25,55,110.0
4644,F5,406.75,0.25,53,110.0
4645,D3,406.75,0.5,37,110.0
4646,E-4,406.75,0.5,37,110.0
4647,E-5,407.0,0.25,51,110.0
4648,F5,407.25,0.25,53,110.0
4649,G3,407.25,0.5,36,110.0
4650,B-3,407.25,0.5,36,110.0
4651,E-5,407.5,0.25,51,110.0
4652,B-4,407.75,0.25,48,110.0
4653,D3,407.75,0.5,36,110.0
4654,E-4,407.75,0.5,36,110.0
4655,C5,408.0,0.25,45,110.0
4656,D5,408.25,0.125,46,110.0
4657,F#3,408.25,0.5,31,110.0
4658,A3,408.25,0.5,31,110.0
4659,D4,408.25,0.5,31,110.0
4660,E-5,408.375,0.125,43,110.0
4661,D5,408.5,0.125,46,110.0
4662,E-5,408.625,0.125,44,110.0
4663,D5,408.75,0.125,46,110.0
4664,D3,408.75,0.5,36,110.0
4665,E-5,408.875,0.125,46,110.0
4666,D5,409.0,83/1000,47,110.0
4667,C#5,409.083,83/1000,46,110.0
4668,D5,409.167,83/1000,46,110.0
4669,E-5,409.25,0.125,50,110.0
4670,G3,409.25,0.5,34,110.0
4671,B-3,409.25,0.5,34,110.0
4672,E-4,409.25,0.5,34,110.0
4673,F5,409.375,0.125,47,110.0
4674,E-5,409.5,0.125,51,110.0
4675,F5,409.625,0.125,47,110.0
4676,E-5,409.75,0.125,52,110.0
4677,C#3,409.75,0.5,40,110.0
4678,F5,409.875,0.125,49,110.0
4679,E-5,410.0,83/1000,54,110.0
4680,D5,410.083,83/1000,51,110.0
4681,E-5,410.167,83/1000,51,110.0
4682,E5,410.25,0.125,58,110.0
4683,G3,410.25,0.5,38,110.0
4684,B-3,410.25,0.5,38,110.0
4685,E4,410.25,0.5,38,110.0
4686,F5,410.375,0.125,52,110.0
4687,E5,410.5,0.125,56,110.0
4688,F5,410.625,0.125,53,110.0
4689,E5,410.75,0.125,60,110.0
4690,C3,410.75,0.5,43,110.0
4691,F5,410.875,0.125,55,110.0
4692,E5,411.0,83/1000,61,110.0
4693,E-5,411.083,83/1000,57,110.0
4694,E5,411.167,83/1000,57,110.0
4695,F5,411.25,0.25,64,110.0
4696,F2,411.25,0.25,52,110.0
4697,E-5,411.5,0.25,51,110.0
4698,C#5,411.75,0.25,51,110.0
4699,F3,411.75,1.0,39,110.0
4700,F4,411.75,1.0,39,110.0
4701,C5,412.0,0.25,54,110.0
4702,B4,412.25,0.25,45,110.0
4703,C5,412.5,0.25,48,110.0
4704,C#5,412.75,0.25,45,110.0
4705,F3,412.75,0.5,37,110.0
4706,F4,412.75,0.5,37,110.0
4707,E-5,413.0,0.25,46,110.0
4708,E5,413.25,0.25,54,110.0
4709,B-3,413.25,0.5,40,110.0
4710,C#4,413.25,0.5,40,110.0
4711,F5,413.5,0.25,49,110.0
4712,B-5,413.75,0.25,59,110.0
4713,F3,413.75,0.5,36,110.0
4714,F4,413.75,0.5,36,110.0
4715,A5,414.0,0.25,55,110.0
4716,G#5,414.25,0.25,59,110.0
4717,F1,414.25,0.25,56,110.0
4718,G5,414.5,0.25,48,110.0
4719,F#5,414.75,0.25,51,110.0
4720,F3,414.75,0.5,36,110.0
4721,F4,414.75,0.5,36,110.0
4722,F5,415.0,0.25,54,110.0
4723,E5,415.25,0.25,50,110.0
4724,A3,415.25,0.5,40,110.0
4725,E-4,415.25,0.5,40,110.0
4726,E-5,415.5,0.25,47,110.0
4727,C#5,415.75,0.25,51,110.0
4728,F3,415.75,0.5,36,110.0
4729,F4,415.75,0.5,36,110.0
4730,C5,416.0,0.25,49,110.0
4731,B-4,416.25,0.062,41,110.0
4732,B-3,416.25,0.5,40,110.0
4733,C#4,416.25,0.5,40,110.0
4734,C5,416.312,0.062,41,110.0
4735,B-4,416.375,0.125,50,110.0
4736,A4,416.5,0.25,45,110.0
4737,B-4,416.75,0.25,50,110.0
4738,F3,416.75,0.5,37,110.0
4739,F4,416.75,0.5,37,110.0
4740,C5,417.0,0.25,45,110.0
4741,C#5,417.25,0.25,49,110.0
4742,B-3,417.25,0.5,40,110.0
4743,C#4,417.25,0.5,40,110.0
4744,C#6,417.5,0.25,57,110.0
4745,C6,417.75,0.25,53,110.0
4746,F3,417.75,1.0,36,110.0
4747,F#4,417.75,1.0,36,110.0
4748,B-5,418.0,0.25,51,110.0
4749,C6,418.25,0.25,56,110.0
4750,B-5,418.5,0.25,55,110.0
4751,G#5,418.75,0.25,53,110.0
4752,F3,418.75,0.5,40,110.0
4753,F#4,418.75,0.5,40,110.0
4754,F#5,419.0,0.25,51,110.0
4755,G#5,419.25,0.25,53,110.0
4756,B-3,419.25,0.5,39,110.0
4757,C#4,419.25,0.5,39,110.0
4758,F#5,419.5,0.25,51,110.0
4759,C#5,419.75,0.25,48,110.0
4760,F3,419.75,0.5,39,110.0
4761,F#4,419.75,0.5,39,110.0
4762,E-5,420.0,0.25,45,110.0
4763,F5,420.25,167/1000,46,110.0
4764,A3,420.25,0.5,34,110.0
4765,C4,420.25,0.5,34,110.0
4766,F#5,420.417,167/1000,44,110.0
4767,F5,420.583,167/1000,43,110.0
4768,E5,420.75,167/1000,45,110.0
4769,F3,420.75,0.5,36,110.0
4770,F4,420.75,0.5,36,110.0
4771,F5,420.917,167/1000,42,110.0
4772,F#5,421.083,167/1000,43,110.0
4773,F5,421.25,167/1000,43,110.0
4774,B-3,421.25,0.5,35,110.0
4775,C#4,421.25,0.5,35,110.0
4776,F#5,421.417,167/1000,43,110.0
4777,F5,421.583,167/1000,41,110.0
4778,E5,421.75,167/1000,43,110.0
4779,F3,421.75,0.5,34,110.0
4780,F4,421.75,0.5,34,110.0
4781,F5,421.917,167/1000,40,110.0
4782,F#5,422.083,167/1000,40,110.0
4783,F5,422.25,167/1000,42,110.0
4784,B3,422.25,0.5,34,110.0
4785,D4,422.25,0.5,34,110.0
4786,F#5,422.417,167/1000,39,110.0
4787,F5,422.583,167/1000,38,110.0
4788,E5,422.75,167/1000,41,110.0
4789,F3,422.75,0.5,32,110.0
4790,F4,422.75,0.5,32,110.0
4791,F5,422.917,167/1000,39,110.0
4792,F#5,423.083,167/1000,38,110.0
4793,F5,423.25,0.25,43,110.0
4794,C4,423.25,0.5,30,110.0
4795,E-4,423.25,0.5,30,110.0
4796,E-5,423.5,0.25,41,110.0
4797,C#5,423.75,0.25,40,110.0
4798,F3,423.75,1.0,30,110.0
4799,F4,423.75,1.0,30,110.0
4800,C5,424.0,0.25,39,110.0
4801,B4,424.25,0.25,38,110.0
4802,C5,424.5,0.25,38,110.0
4803,C#5,424.75,0.25,38,110.0
4804,F3,424.75,0.5,28,110.0
4805,F4,424.75,0.5,28,110.0
4806,E-5,425.0,0.25,39,110.0
4807,E5,425.25,0.25,39,110.0
4808,B-3,425.25,0.5,31,110.0
4809,C#4,425.25,0.5,31,110.0
4810,F5,425.5,0.25,39,110.0
4811,B-5,425.75,0.125,43,110.0
4812,F3,425.75,0.5,28,110.0
4813,F4,425.75,0.5,28,110.0
4814,A5,426.125,0.125,42,110.0
4815,G#5,426.25,0.125,49,110.0
4816,F1,426.25,0.25,43,110.0
4817,G5,426.5,0.125,43,110.0
4818,F#5,426.75,0.125,41,110.0
4819,F3,426.75,0.5,28,110.0
4820,F4,426.75,0.5,28,110.0
4821,F5,427.0,0.125,40,110.0
4822,E5,427.25,0.25,39,110.0
4823,A3,427.25,0.5,31,110.0
4824,E-4,427.25,0.5,31,110.0
4825,E-5,427.5,0.25,39,110.0
4826,C5,427.75,0.25,38,110.0
4827,F3,427.75,0.5,28,110.0
4828,F4,427.75,0.5,28,110.0
4829,C#5,428.0,0.25,38,110.0
4830,B-4,428.25,0.062,34,110.0
4831,B-3,428.25,0.5,31,110.0
4832,C#4,428.25,0.5,31,110.0
4833,C5,428.312,0.062,34,110.0
4834,B-4,428.375,0.125,38,110.0
4835,A4,428.5,0.25,38,110.0
4836,B-4,428.75,0.25,37,110.0
4837,F3,428.75,0.5,28,110.0
4838,F4,428.75,0.5,28,110.0
4839,C#5,429.0,0.25,38,110.0
4840,C5,429.25,0.25,47,110.0
4841,F2,429.25,0.25,51,110.0
4842,B-4,429.5,0.25,41,110.0
4843,G#4,429.75,0.25,40,110.0
4844,C3,429.75,1.0,30,110.0
4845,C4,429.75,1.0,30,110.0
4846,G4,430.0,0.25,39,110.0
4847,F#4,430.25,0.25,38,110.0
4848,G4,430.5,0.25,38,110.0
4849,G#4,430.75,0.25,38,110.0
4850,C3,430.75,0.5,28,110.0
4851,C4,430.75,0.5,28,110.0
4852,B-4,431.0,0.25,39,110.0
4853,B4,431.25,0.25,39,110.0
4854,F3,431.25,0.5,31,110.0
4855,G#3,431.25,0.5,31,110.0
4856,C5,431.5,0.25,47,110.0
4857,F5,431.75,0.25,43,110.0
4858,C3,431.75,0.5,28,110.0
4859,C4,431.75,0.5,28,110.0
4860,C#5,432.0,0.25,42,110.0
4861,C5,432.25,0.25,47,110.0
4862,E-2,432.25,0.25,47,110.0
4863,B-4,432.5,0.25,41,110.0
4864,G#4,432.75,0.25,40,110.0
4865,C3,432.75,1.0,30,110.0
4866,C4,432.75,1.0,30,110.0
4867,G4,433.0,0.25,39,110.0
4868,F#4,433.25,0.25,38,110.0
4869,G4,433.5,0.25,45,110.0
4870,C5,433.75,0.25,47,110.0
4871,C3,433.75,0.5,28,110.0
4872,C4,433.75,0.5,28,110.0
4873,B4,434.0,0.25,39,110.0
4874,B-4,434.25,0.25,39,110.0
4875,C#2,434.25,0.25,48,110.0
4876,G#4,434.5,0.25,39,110.0
4877,G4,434.75,0.25,39,110.0
4878,C#3,434.75,0.5,28,110.0
4879,C4,434.75,0.5,28,110.0
4880,F4,435.0,0.25,38,110.0
4881,E4,435.25,0.25,43,110.0
4882,C2,435.25,0.25,49,110.0
4883,C5,435.5,0.25,49,110.0
4884,B-4,435.75,0.25,40,110.0
4885,C3,435.75,1.0,30,110.0
4886,C4,435.75,1.0,30,110.0
4887,G#4,436.0,0.25,39,110.0
4888,F#4,436.25,0.25,38,110.0
4889,G4,436.5,0.25,38,110.0
4890,G#4,436.75,0.25,38,110.0
4891,C3,436.75,0.5,28,110.0
4892,C4,436.75,0.5,28,110.0
4893,B-4,437.0,0.25,39,110.0
4894,B4,437.25,0.25,39,110.0
4895,F3,437.25,0.5,31,110.0
4896,G#3,437.25,0.5,31,110.0
4897,C5,437.5,0.25,49,110.0
4898,F5,437.75,0.25,43,110.0
4899,C3,437.75,0.5,28,110.0
4900,C4,437.75,0.5,28,110.0
4901,C#5,438.0,0.25,42,110.0
4902,C5,438.25,0.25,48,110.0
4903,E-2,438.25,0.25,50,110.0
4904,B-4,438.5,0.25,41,110.0
4905,G#4,438.75,0.25,40,110.0
4906,C3,438.75,1.0,30,110.0
4907,C4,438.75,1.0,30,110.0
4908,G4,439.0,0.25,39,110.0
4909,F#4,439.25,0.25,38,110.0
4910,G4,439.5,0.25,38,110.0
4911,C5,439.75,0.25,45,110.0
4912,C3,439.75,0.5,28,110.0
4913,C4,439.75,0.5,28,110.0
4914,B4,440.0,0.25,39,110.0
4915,B-4,440.25,0.25,39,110.0
4916,C#2,440.25,0.25,51,110.0
4917,G#4,440.5,0.25,39,110.0
4918,G4,440.75,0.25,39,110.0
4919,C#3,440.75,0.5,28,110.0
4920,C4,440.75,0.5,28,110.0
4921,F4,441.0,0.25,38,110.0
4922,E4,441.25,0.25,43,110.0
4923,C2,441.25,0.25,49,110.0
4924,C5,441.5,0.25,46,110.0
4925,B-4,441.75,0.25,40,110.0
4926,C3,441.75,1.0,30,110.0
4927,C4,441.75,1.0,30,110.0
4928,G#4,442.0,0.25,39,110.0
4929,F#4,442.25,0.25,38,110.0
4930,G4,442.5,0.25,38,110.0
4931,G#4,442.75,0.25,38,110.0
4932,C3,442.75,0.5,28,110.0
4933,C4,442.75,0.5,28,110.0
4934,B-4,443.0,0.25,39,110.0
4935,B4,443.25,0.25,39,110.0
4936,F3,443.25,0.5,31,110.0
4937,G#3,443.25,0.5,31,110.0
4938,C5,443.5,0.25,49,110.0
4939,E-5,443.75,0.25,43,110.0
4940,C3,443.75,0.5,28,110.0
4941,C4,443.75,0.5,28,110.0
4942,C#5,444.0,0.25,42,110.0
4943,C5,444.25,0.25,50,110.0
4944,E-3,444.25,0.5,34,110.0
4945,G3,444.25,0.5,34,110.0
4946,B-4,444.5,0.25,41,110.0
4947,G#4,444.75,0.25,40,110.0
4948,C3,444.75,1.0,30,110.0
4949,C4,444.75,1.0,30,110.0
4950,G4,445.0,0.25,39,110.0
4951,F#4,445.25,0.25,36,110.0
4952,G4,445.5,0.25,37,110.0
4953,G#4,445.75,0.25,38,110.0
4954,C3,445.75,0.5,28,110.0
4955,C4,445.75,0.5,28,110.0
4956,B-4,446.0,0.25,39,110.0
4957,B4,446.25,0.25,39,110.0
4958,C#3,446.25,0.5,31,110.0
4959,F3,446.25,0.5,31,110.0
4960,C5,446.5,0.25,48,110.0
4961,C#5,446.75,0.25,40,110.0
4962,C3,446.75,0.5,28,110.0
4963,C4,446.75,0.5,28,110.0
4964,B4,447.0,0.25,38,110.0
4965,C5,447.25,0.25,49,110.0
4966,E3,447.25,0.5,39,110.0
4967,B-4,447.5,0.25,41,110.0
4968,G#4,447.75,0.25,40,110.0
4969,C3,447.75,1.0,30,110.0
4970,C4,447.75,1.0,30,110.0
4971,G4,448.0,0.25,39,110.0
4972,F#4,448.25,0.25,36,110.0
4973,G4,448.5,0.25,37,110.0
4974,G#4,448.75,0.25,38,110.0
4975,C3,448.75,0.5,28,110.0
4976,C4,448.75,0.5,28,110.0
4977,B-4,449.0,0.25,39,110.0
4978,B4,449.25,0.25,39,110.0
4979,F3,449.25,0.5,31,110.0
4980,G#3,449.25,0.5,31,110.0
4981,C5,449.5,0.25,50,110.0
4982,E-5,449.75,0.25,40,110.0
4983,C3,449.75,0.5,28,110.0
4984,C4,449.75,0.5,28,110.0
4985,C#5,450.0,0.25,38,110.0
4986,C5,450.25,0.25,49,110.0
4987,E-3,450.25,0.5,34,110.0
4988,G3,450.25,0.5,34,110.0
4989,B-4,450.5,0.25,41,110.0
4990,G#4,450.75,0.25,40,110.0
4991,C3,450.75,1.0,30,110.0
4992,C4,450.75,1.0,30,110.0
4993,G4,451.0,0.25,39,110.0
4994,F#4,451.25,0.25,36,110.0
4995,G4,451.5,0.25,37,110.0
4996,G#4,451.75,0.25,38,110.0
4997,C3,451.75,0.5,28,110.0
4998,C4,451.75,0.5,28,110.0
4999,B-4,452.0,0.25,39,110.0
5000,B4,452.25,0.25,39,110.0
5001,C#3,452.25,0.5,31,110.0
5002,F3,452.25,0.5,31,110.0
5003,C5,452.5,0.25,50,110.0
5004,C#5,452.75,0.25,40,110.0
5005,C3,452.75,0.5,28,110.0
5006,C4,452.75,0.5,28,110.0
5007,B4,453.0,0.25,38,110.0
5008,C5,453.25,0.25,50,110.0
5009,B-4,453.5,0.25,44,110.0
5010,G#4,453.75,0.25,43,110.0
5011,E3,453.75,0.5,34,110.0
5012,C3,453.75,0.5,28,110.0
5013,C4,453.75,0.5,28,110.0
5014,G4,454.0,0.25,42,110.0
5015,F#4,454.25,0.25,45,110.0
5016,G4,454.5,0.25,46,110.0
5017,G#4,454.75,0.25,50,110.0
5018,F#3,454.75,0.25,37,110.0
5019,B-4,455.0,0.25,55,110.0
5020,G3,455.0,0.25,39,110.0
5021,G#4,455.25,0.25,57,110.0
5022,G#3,455.25,0.25,43,110.0
5023,G4,455.5,0.25,57,110.0
5024,B-3,455.5,0.25,46,110.0
5025,F4,455.75,0.25,57,110.0
5026,G#3,455.75,0.25,48,110.0
5027,E4,456.0,0.25,59,110.0
5028,G3,456.0,0.25,48,110.0
5029,E-4,456.25,0.25,58,110.0
5030,F3,456.25,0.25,48,110.0
5031,E4,456.5,0.25,61,110.0
5032,E3,456.5,0.25,49,110.0
5033,F4,456.75,0.25,63,110.0
5034,E-3,456.75,0.25,48,110.0
5035,G4,457.0,0.25,65,110.0
5036,E3,457.0,0.25,51,110.0
5037,C#4,457.25,0.5,74,110.0
5038,F3,457.25,0.25,53,110.0
5039,G4,457.5,0.25,66,110.0
5040,G3,457.5,0.25,55,110.0
5041,C4,457.75,0.5,71,110.0
5042,C#3,457.75,0.5,62,110.0
5043,G4,458.0,0.25,63,110.0
5044,G3,458.0,0.25,56,110.0
5045,B3,458.25,0.25,60,110.0
5046,C3,458.25,0.5,60,110.0
5047,C4,458.5,0.25,63,110.0
5048,G3,458.5,0.25,53,110.0
5049,C#4,458.75,0.25,65,110.0
5050,B2,458.75,0.25,51,110.0
5051,E-4,459.0,0.25,68,110.0
5052,C3,459.0,0.25,53,110.0
5053,C#4,459.25,0.25,70,110.0
5054,C#3,459.25,0.25,54,110.0
5055,C4,459.5,0.25,68,110.0
5056,E-3,459.5,0.25,57,110.0
5057,B-3,459.75,0.25,67,110.0
5058,C#3,459.75,0.25,60,110.0
5059,G#3,460.0,0.25,65,110.0
5060,C3,460.0,0.25,58,110.0
5061,G3,460.25,0.75,76,110.0
5062,B-2,460.25,0.25,56,110.0
5063,C4,460.5,0.25,69,110.0
5064,G#2,460.5,0.25,55,110.0
5065,B-3,460.75,0.25,70,110.0
5066,G2,460.75,0.75,64,110.0
5067,F#3,461.0,0.25,70,110.0
5068,C3,461.0,0.25,58,110.0
5069,F3,461.25,0.75,73,110.0
5070,B-2,461.25,0.25,58,110.0
5071,C4,461.5,0.25,70,110.0
5072,F#2,461.5,0.25,59,110.0
5073,B-3,461.75,0.25,70,110.0
5074,F2,461.75,0.75,62,110.0
5075,E3,462.0,0.25,70,110.0
5076,C3,462.0,0.25,58,110.0
5077,E-3,462.25,0.75,79,110.0
5078,B-2,462.25,0.25,58,110.0
5079,G#3,462.5,0.25,72,110.0
5080,E2,462.5,0.25,59,110.0
5081,G3,462.75,0.25,74,110.0
5082,E-2,462.75,0.75,66,110.0
5083,E-3,463.0,0.25,75,110.0
5084,G#2,463.0,0.25,60,110.0
5085,C#3,463.25,0.75,82,110.0
5086,G2,463.25,0.25,61,110.0
5087,G3,463.5,0.25,78,110.0
5088,E-2,463.5,0.25,63,110.0
5089,F3,463.75,0.25,81,110.0
5090,C#2,463.75,0.75,69,110.0
5091,C#3,464.0,0.25,82,110.0
5092,G2,464.0,0.25,65,110.0
5093,C3,464.25,0.5,88,110.0
5094,F2,464.25,0.25,68,110.0
5095,E-3,464.5,0.25,82,110.0
5096,C#2,464.5,0.25,68,110.0
5097,B-2,464.75,0.5,84,110.0
5098,C2,464.75,0.5,74,110.0
5099,E-3,465.0,0.25,86,110.0
5100,E-2,465.0,0.25,70,110.0
5101,B-1,465.25,0.5,71,110.0
5102,F5,465.25,0.75,91,110.0
5103,C#6,465.25,0.75,91,110.0
5104,F6,465.25,0.75,91,110.0
5105,E-2,465.5,0.25,73,110.0
5106,G#1,465.75,0.25,77,110.0
5107,G#2,465.75,0.25,77,110.0
5108,E-5,466.0,9/40,84,110.0
5109,C6,466.0,9/40,84,110.0
5110,E-6,466.0,9/40,84,110.0
5111,E-5,466.25,0.5,84,110.0
5112,C6,466.25,0.5,84,110.0
5113,E-6,466.25,0.5,84,110.0
5114,C4,466.25,0.5,71,110.0
5115,E-3,466.25,0.5,71,110.0
5116,E-4,466.25,0.5,71,110.0
5117,E-4,466.625,0.125,71,110.0
5118,E-4,466.75,1/10,71,110.0
5119,G#4,466.75,0.5,73,110.0
5120,C4,466.75,0.5,73,110.0
5121,G#3,466.75,0.5,73,110.0
5122,F4,466.85,1/10,71,110.0
5123,E-4,466.95,1/10,71,110.0
5124,D4,467.05,1/10,71,110.0
5125,E-4,467.15,1/10,71,110.0
5126,G#4,467.25,0.25,87,110.0
5127,E-2,467.25,0.125,78,110.0
5128,E-3,467.25,0.125,78,110.0
5129,C5,467.75,0.25,79,110.0
5130,G#5,467.75,0.25,79,110.0
5131,C6,467.75,0.25,79,110.0
5132,G#2,467.75,0.25,80,110.0
5133,G#3,467.75,0.25,80,110.0
5134,C#5,468.0,0.25,77,110.0
5135,B-5,468.0,0.25,77,110.0
5136,C#6,468.0,0.25,77,110.0
5137,F5,468.25,0.25,84,110.0
5138,C#6,468.25,0.25,84,110.0
5139,F6,468.25,0.25,84,110.0
5140,E-1,468.25,0.5,67,110.0
5141,E-2,468.25,0.5,67,110.0
5142,E-5,468.625,14/125,79,110.0
5143,C6,468.625,14/125,79,110.0
5144,E-6,468.625,14/125,79,110.0
5145,E-5,468.75,0.25,80,110.0
5146,C6,468.75,0.25,80,110.0
5147,E-6,468.75,0.25,80,110.0
5148,G#1,468.75,0.5,73,110.0
5149,G#2,468.75,0.5,73,110.0
5150,D5,469.0,0.25,79,110.0
5151,B5,469.0,0.25,79,110.0
5152,D6,469.0,0.25,79,110.0
5153,E-5,469.25,0.5,79,110.0
5154,C6,469.25,0.5,79,110.0
5155,E-6,469.25,0.5,79,110.0
5156,C4,469.25,0.5,65,110.0
5157,E-4,469.25,0.5,65,110.0
5158,E-3,469.25,0.5,65,110.0
5159,E-4,469.625,0.125,70,110.0
5160,E-4,469.75,1/10,70,110.0
5161,G#4,469.75,0.5,71,110.0
5162,C4,469.75,0.5,71,110.0
5163,G#3,469.75,0.5,71,110.0
5164,F4,469.85,1/10,70,110.0
5165,E-4,469.95,1/10,70,110.0
5166,D4,470.05,1/10,70,110.0
5167,E-4,470.15,1/10,70,110.0
5168,G#4,470.25,0.25,87,110.0
5169,E-2,470.25,0.125,74,110.0
5170,E-3,470.25,0.125,74,110.0
5171,C6,470.75,0.25,79,110.0
5172,C5,470.75,0.25,79,110.0
5173,G#5,470.75,0.25,79,110.0
5174,G#2,470.75,0.25,80,110.0
5175,G#3,470.75,0.25,80,110.0
5176,C#6,471.0,0.25,77,110.0
5177,C#5,471.0,0.25,77,110.0
5178,B-5,471.0,0.25,77,110.0
5179,C#6,471.25,0.25,84,110.0
5180,F6,471.25,0.25,84,110.0
5181,F5,471.25,0.25,84,110.0
5182,E-1,471.25,0.5,67,110.0
5183,E-2,471.25,0.5,67,110.0
5184,E-6,471.5,0.125,88,110.0
5185,E-5,471.5,0.5,74,110.0
5186,C6,471.5,0.5,74,110.0
5187,F6,471.625,0.125,81,110.0
5188,E-6,471.75,0.25,93,110.0
5189,G#1,471.75,0.5,73,110.0
5190,G#2,471.75,0.5,73,110.0
5191,B5,472.0,0.25,79,110.0
5192,D6,472.0,0.25,79,110.0
5193,D5,472.0,0.25,79,110.0
5194,C#6,472.25,0.25,84,110.0
5195,F6,472.25,0.25,84,110.0
5196,F5,472.25,0.25,84,110.0
5197,C4,472.25,0.5,65,110.0
5198,E-4,472.25,0.5,65,110.0
5199,E-3,472.25,0.5,65,110.0
5200,E-6,472.5,0.125,88,110.0
5201,C6,472.5,0.5,74,110.0
5202,E-5,472.5,0.5,74,110.0
5203,F6,472.625,0.125,81,110.0
5204,E-6,472.75,0.25,93,110.0
5205,G#4,472.75,0.5,71,110.0
5206,C4,472.75,0.5,71,110.0
5207,G#3,472.75,0.5,71,110.0
5208,D5,473.0,0.25,79,110.0
5209,B5,473.0,0.25,79,110.0
5210,D6,473.0,0.25,79,110.0
5211,E-5,473.25,0.375,79,110.0
5212,C6,473.25,0.375,79,110.0
5213,E-6,473.25,0.375,79,110.0
5214,E-2,473.25,0.25,67,110.0
5215,E-3,473.25,0.25,67,110.0
5216,E-5,473.625,0.5,72,110.0
5217,B-5,473.688,0.438,72,110.0
5218,F#6,473.75,0.375,85,110.0
5219,G#2,473.75,0.25,70,110.0
5220,G#3,473.75,0.25,70,110.0
5221,E-5,474.125,0.125,70,110.0
5222,E-2,474.125,0.438,62,110.0
5223,A5,474.188,0.062,70,110.0
5224,B-2,474.188,0.375,62,110.0
5225,F6,474.25,0.375,83,110.0
5226,E-5,474.25,0.375,70,110.0
5227,A5,474.25,0.375,70,110.0
5228,F#3,474.25,0.312,74,110.0
5229,C5,474.562,0.562,70,110.0
5230,F2,474.562,0.188,62,110.0
5231,E-5,474.625,0.5,70,110.0
5232,C3,474.625,0.125,62,110.0
5233,F5,474.688,0.438,70,110.0
5234,E-3,474.688,0.062,74,110.0
5235,C6,474.75,0.375,83,110.0
5236,A3,474.75,0.312,74,110.0
5237,F2,474.75,0.312,62,110.0
5238,C3,474.75,0.5,62,110.0
5239,E-3,474.75,0.312,74,110.0
5240,F3,475.062,0.5,61,110.0
5241,B-4,475.125,0.5,70,110.0
5242,C4,475.125,0.438,61,110.0
5243,F5,475.188,0.438,70,110.0
5244,E-4,475.188,0.375,73,110.0
5245,C#6,475.25,0.375,83,110.0
5246,A4,475.25,0.312,73,110.0
5247,B-2,475.625,0.625,63,110.0
5248,F3,475.688,0.562,75,110.0
5249,F#5,475.75,167/1000,80,110.0
5250,C#4,475.75,0.5,75,110.0
5251,F#4,475.917,167/1000,80,110.0
5252,F#5,476.083,167/1000,80,110.0
5253,F4,476.25,0.5,78,110.0
5254,F5,476.25,0.5,78,110.0
5255,F#2,476.25,0.5,66,110.0
5256,F#3,476.25,0.5,66,110.0
5257,C#4,476.75,0.5,76,110.0
5258,C#5,476.75,0.5,76,110.0
5259,F2,476.75,0.5,66,110.0
5260,F3,476.75,0.5,66,110.0
5261,F#5,477.25,0.75,87,110.0
5262,E-6,477.25,0.75,87,110.0
5263,F#6,477.25,0.75,87,110.0
5264,C#2,477.25,0.5,64,110.0
5265,C#3,477.25,0.5,64,110.0
5266,B-1,477.75,0.25,73,110.0
5267,B-2,477.75,0.25,73,110.0
5268,F5,478.0,9/40,84,110.0
5269,C#6,478.0,9/40,84,110.0
5270,F6,478.0,9/40,84,110.0
5271,F5,478.25,0.5,84,110.0
5272,C#6,478.25,0.5,84,110.0
5273,F6,478.25,0.5,84,110.0
5274,C#4,478.25,0.5,75,110.0
5275,F3,478.25,0.5,75,110.0
5276,F4,478.25,0.5,75,110.0
5277,F4,478.625,0.125,71,110.0
5278,F4,478.75,1/10,71,110.0
5279,B-4,478.75,0.5,73,110.0
5280,C#4,478.75,0.5,73,110.0
5281,B-3,478.75,0.5,73,110.0
5282,F#4,478.85,1/10,71,110.0
5283,F4,478.95,1/10,71,110.0
5284,E4,479.05,1/10,71,110.0
5285,F4,479.15,1/10,71,110.0
5286,B-4,479.25,0.25,87,110.0
5287,F2,479.25,0.125,78,110.0
5288,F3,479.25,0.125,78,110.0
5289,C#5,479.75,0.25,79,110.0
5290,C#6,479.75,0.25,79,110.0
5291,B-5,479.75,0.25,79,110.0
5292,B-2,479.75,0.25,80,110.0
5293,B-3,479.75,0.25,80,110.0
5294,E-5,480.0,0.25,77,110.0
5295,C6,480.0,0.25,77,110.0
5296,E-6,480.0,0.25,77,110.0
5297,F#6,480.25,0.25,84,110.0
5298,F#5,480.25,0.25,84,110.0
5299,E-6,480.25,0.25,84,110.0
5300,F1,480.25,0.5,67,110.0
5301,F2,480.25,0.5,67,110.0
5302,F5,480.625,14/125,79,110.0
5303,C#6,480.625,14/125,79,110.0
5304,F6,480.625,14/125,79,110.0
5305,C#6,480.75,0.25,80,110.0
5306,F5,480.75,0.25,80,110.0
5307,F6,480.75,0.25,80,110.0
5308,B-1,480.75,0.5,73,110.0
5309,B-2,480.75,0.5,73,110.0
5310,E5,481.0,0.25,79,110.0
5311,E6,481.0,0.25,79,110.0
5312,C6,481.0,0.25,79,110.0
5313,F5,481.25,0.5,83,110.0
5314,C#6,481.25,0.5,83,110.0
5315,F6,481.25,0.5,83,110.0
5316,C#4,481.25,0.5,65,110.0
5317,F4,481.25,0.5,65,110.0
5318,F3,481.25,0.5,65,110.0
5319,F4,481.625,0.125,71,110.0
5320,F4,481.75,1/10,71,110.0
5321,B-4,481.75,0.5,71,110.0
5322,C#4,481.75,0.5,71,110.0
5323,B-3,481.75,0.5,71,110.0
5324,F#4,481.85,1/10,71,110.0
5325,F4,481.95,1/10,71,110.0
5326,E4,482.05,1/10,71,110.0
5327,F4,482.15,1/10,71,110.0
5328,B-4,482.25,0.5,87,110.0
5329,F2,482.25,0.125,74,110.0
5330,F3,482.25,0.125,74,110.0
5331,G5,482.75,0.25,86,110.0
5332,G6,482.75,0.25,86,110.0
5333,C#6,482.75,0.25,86,110.0
5334,B-2,482.75,0.25,80,110.0
5335,B-3,482.75,0.25,80,110.0
5336,G#5,483.0,0.25,87,110.0
5337,G#6,483.0,0.25,87,110.0
5338,C6,483.25,0.25,93,110.0
5339,C7,483.25,0.25,93,110.0
5340,B-1,483.25,0.5,67,110.0
5341,B-2,483.25,0.5,67,110.0
5342,E-6,483.5,0.25,81,110.0
5343,G6,483.5,0.25,81,110.0
5344,C7,483.75,0.25,86,110.0
5345,C6,483.75,0.25,86,110.0
5346,E-1,483.75,0.25,73,110.0
5347,E-2,483.75,0.25,73,110.0
5348,B-6,484.125,14/125,85,110.0
5349,B-5,484.125,14/125,85,110.0
5350,C5,484.25,0.25,72,110.0
5351,B-5,484.25,0.25,89,110.0
5352,B-6,484.25,0.25,89,110.0
5353,G4,484.25,0.5,60,110.0
5354,C#4,484.25,0.5,60,110.0
5355,E-4,484.25,0.5,60,110.0
5356,B-4,484.5,0.25,70,110.0
5357,C6,484.5,0.25,77,110.0
5358,E-6,484.5,0.25,77,110.0
5359,E-3,484.75,0.25,75,110.0
5360,B-6,484.75,0.25,82,110.0
5361,B-5,484.75,0.25,82,110.0
5362,G#5,485.125,14/125,74,110.0
5363,G#6,485.125,14/125,74,110.0
5364,B-4,485.25,0.25,72,110.0
5365,G#5,485.25,0.25,86,110.0
5366,G#6,485.25,0.25,86,110.0
5367,C4,485.25,0.5,64,110.0
5368,E-4,485.25,0.5,64,110.0
5369,G#4,485.5,0.25,70,110.0
5370,E-6,485.5,0.25,73,110.0
5371,B-5,485.5,0.25,73,110.0
5372,E-3,485.75,0.25,73,110.0
5373,G#6,485.75,0.25,81,110.0
5374,G#5,485.75,0.25,81,110.0
5375,G6,486.125,14/125,73,110.0
5376,G5,486.125,14/125,73,110.0
5377,G#4,486.25,0.25,72,110.0
5378,G5,486.25,0.25,82,110.0
5379,G6,486.25,0.25,82,110.0
5380,B-3,486.25,0.5,62,110.0
5381,E-4,486.25,0.5,62,110.0
5382,G4,486.5,0.25,70,110.0
5383,D6,486.5,0.25,72,110.0
5384,B-5,486.5,0.25,72,110.0
5385,B-2,486.75,0.25,70,110.0
5386,G5,486.75,0.25,78,110.0
5387,G6,486.75,0.25,78,110.0
5388,F6,487.125,14/125,74,110.0
5389,F5,487.125,14/125,74,110.0
5390,G4,487.25,0.25,72,110.0
5391,F6,487.25,0.25,80,110.0
5392,F5,487.25,0.25,80,110.0
5393,G#3,487.25,0.5,59,110.0
5394,D4,487.25,0.5,59,110.0
5395,B-3,487.25,0.5,59,110.0
5396,F4,487.5,0.25,70,110.0
5397,B-5,487.5,0.25,70,110.0
5398,G5,487.5,0.25,70,110.0
5399,E-3,487.75,0.25,72,110.0
5400,F5,487.75,0.25,76,110.0
5401,F6,487.75,0.25,76,110.0
5402,E-5,488.125,0.125,70,110.0
5403,E-6,488.125,0.125,70,110.0
5404,F4,488.25,0.25,72,110.0
5405,C#5,488.25,0.25,82,110.0
5406,C#6,488.25,0.25,82,110.0
5407,G3,488.25,0.5,62,110.0
5408,B-3,488.25,0.5,62,110.0
5409,E-4,488.5,0.25,70,110.0
5410,F5,488.5,0.25,70,110.0
5411,G#5,488.5,0.25,70,110.0
5412,F2,488.75,0.5,62,110.0
5413,F3,488.75,1.0,74,110.0
5414,C#6,488.75,0.25,77,110.0
5415,C#5,488.75,0.25,77,110.0
5416,C6,489.125,0.125,66,110.0
5417,C5,489.125,0.125,66,110.0
5418,F4,489.25,1.0,88,110.0
5419,C#4,489.25,0.25,72,110.0
5420,G#3,489.25,0.5,68,110.0
5421,C4,489.5,0.25,68,110.0
5422,C#2,489.75,0.5,65,110.0
5423,C#3,489.75,0.5,65,110.0
5424,G4,490.25,0.125,59,110.0
5425,F3,490.25,0.5,55,110.0
5426,B-3,490.25,0.5,55,110.0
5427,G#4,490.375,0.125,60,110.0
5428,G4,490.5,0.125,61,110.0
5429,G#4,490.625,0.125,61,110.0
5430,F4,490.75,0.25,62,110.0
5431,C2,490.75,0.5,58,110.0
5432,C3,490.75,0.5,58,110.0
5433,G4,491.0,0.25,64,110.0
5434,G#4,491.25,0.125,66,110.0
5435,E3,491.25,0.5,52,110.0
5436,C4,491.25,0.5,52,110.0
5437,B-3,491.25,0.5,52,110.0
5438,B-4,491.375,0.125,67,110.0
5439,G#4,491.5,0.125,69,110.0
5440,B-4,491.625,0.125,70,110.0
5441,G4,491.75,0.25,71,110.0
5442,F1,491.75,0.5,64,110.0
5443,F2,491.75,0.5,64,110.0
5444,G#4,492.0,0.25,73,110.0
5445,A4,492.25,0.25,77,110.0
5446,C#4,492.25,0.5,50,110.0
5447,G4,492.25,0.5,50,110.0
5448,F3,492.25,0.5,67,110.0
5449,G#3,492.25,0.5,67,110.0
5450,C4,492.25,0.5,67,110.0
5451,B-4,492.5,0.25,73,110.0
5452,C5,492.75,0.25,73,110.0
5453,C#4,492.75,0.5,47,110.0
5454,G4,492.75,0.5,47,110.0
5455,E-2,492.75,0.25,62,110.0
5456,E-3,492.75,0.25,62,110.0
5457,C#5,493.0,0.25,74,110.0
5458,C4,493.25,0.5,69,110.0
5459,G#4,493.25,0.5,69,110.0
5460,C5,493.25,0.5,69,110.0
5461,E-3,493.25,0.5,58,110.0
5462,B-3,493.25,0.5,58,110.0
5463,F5,493.75,0.375,73,110.0
5464,B3,493.75,0.375,73,110.0
5465,D4,493.75,0.375,73,110.0
5466,F4,493.75,0.375,73,110.0
5467,G#4,493.75,0.375,73,110.0
5468,G#2,493.75,0.5,57,110.0
5469,E-3,493.75,0.5,57,110.0
5470,G#3,493.75,0.5,57,110.0
5471,E-4,494.125,14/125,66,110.0
5472,C4,494.125,14/125,66,110.0
5473,E-5,494.125,14/125,66,110.0
5474,G#4,494.125,14/125,66,110.0
5475,C4,494.25,0.25,74,110.0
5476,E-5,494.25,0.25,74,110.0
5477,E-4,494.25,0.25,74,110.0
5478,G#4,494.25,0.25,74,110.0
5479,G#4,494.5,0.5,79,110.0
5480,G#5,494.75,0.25,83,110.0
5481,G4,495.125,0.125,70,110.0
5482,G5,495.125,0.125,70,110.0
5483,F4,495.25,1.0,70,110.0
5484,F5,495.25,1.0,70,110.0
5485,G#2,495.25,0.5,66,110.0
5486,G#3,495.25,0.5,66,110.0
5487,C#2,495.75,0.5,68,110.0
5488,C#3,495.75,0.5,68,110.0
5489,G4,496.25,0.25,70,110.0
5490,F3,496.25,0.5,60,110.0
5491,B-3,496.25,0.5,60,110.0
5492,G5,496.5,83/1000,71,110.0
5493,G#5,496.583,83/1000,72,110.0
5494,G5,496.667,83/1000,71,110.0
5495,F4,496.75,0.25,66,110.0
5496,F5,496.75,0.25,66,110.0
5497,C2,496.75,0.5,69,110.0
5498,C3,496.75,0.5,69,110.0
5499,G4,497.0,0.25,67,110.0
5500,G5,497.0,0.25,67,110.0
5501,G#4,497.25,0.25,70,110.0
5502,B-3,497.25,0.5,61,110.0
5503,E4,497.25,0.5,61,110.0
5504,C4,497.25,0.5,61,110.0
5505,G#5,497.5,83/1000,71,110.0
5506,B-5,497.583,83/1000,71,110.0
5507,G#5,497.667,83/1000,71,110.0
5508,G4,497.75,0.25,72,110.0
5509,G5,497.75,0.25,72,110.0
5510,F1,497.75,0.5,72,110.0
5511,F2,497.75,0.5,72,110.0
5512,G#4,498.0,0.25,73,110.0
5513,G#5,498.0,0.25,73,110.0
5514,A4,498.25,0.25,67,110.0
5515,E-5,498.25,0.25,67,110.0
5516,A5,498.25,0.25,67,110.0
5517,F3,498.25,0.5,71,110.0
5518,G#3,498.25,0.5,71,110.0
5519,C4,498.25,0.5,71,110.0
5520,F4,498.25,0.5,71,110.0
5521,B-4,498.5,0.25,73,110.0
5522,B-5,498.5,0.25,73,110.0
5523,C5,498.75,0.25,62,110.0
5524,G5,498.75,0.25,62,110.0
5525,C6,498.75,0.25,62,110.0
5526,E-2,498.75,0.25,70,110.0
5527,E-3,498.75,0.25,70,110.0
5528,C#5,499.0,0.25,70,110.0
5529,C#6,499.0,0.25,70,110.0
5530,C5,499.25,0.25,73,110.0
5531,G#5,499.25,0.25,73,110.0
5532,C6,499.25,0.25,73,110.0
5533,B-3,499.25,0.5,54,110.0
5534,C#4,499.25,0.5,54,110.0
5535,E-4,499.25,0.5,54,110.0
5536,G4,499.25,0.5,54,110.0
5537,F5,499.75,0.375,74,110.0
5538,G#5,499.75,0.375,74,110.0
5539,F6,499.75,0.375,74,110.0
5540,G#3,499.75,0.25,64,110.0
5541,E-4,499.75,0.25,64,110.0
5542,G#4,499.75,0.25,64,110.0
5543,E-5,500.125,14/125,67,110.0
5544,G#5,500.125,14/125,67,110.0
5545,E-6,500.125,14/125,67,110.0
5546,E-5,500.25,0.25,75,110.0
5547,G#5,500.25,0.25,75,110.0
5548,E-6,500.25,0.25,75,110.0
5549,G#4,500.25,0.375,70,110.0
5550,B3,500.25,0.375,70,110.0
5551,D4,500.25,0.375,70,110.0
5552,B4,500.25,0.375,70,110.0
5553,E-6,500.625,0.125,66,110.0
5554,E-5,500.625,0.125,66,110.0
5555,G#4,500.625,14/125,63,110.0
5556,C4,500.625,14/125,63,110.0
5557,C5,500.625,14/125,63,110.0
5558,E-4,500.625,14/125,63,110.0
5559,C#5,500.75,0.375,74,110.0
5560,A5,500.75,0.375,74,110.0
5561,C#6,500.75,0.375,74,110.0
5562,G#4,500.75,0.25,71,110.0
5563,C5,500.75,0.25,71,110.0
5564,C4,500.75,0.25,71,110.0
5565,E-4,500.75,0.25,71,110.0
5566,F3,501.062,0.562,61,110.0
5567,C4,501.125,0.5,61,110.0
5568,C5,501.125,0.125,70,110.0
5569,C6,501.125,0.125,70,110.0
5570,E-4,501.188,0.438,61,110.0
5571,A4,501.25,0.375,72,110.0
5572,B-4,501.25,0.25,76,110.0
5573,B-5,501.25,0.25,76,110.0
5574,B-2,501.625,0.125,66,110.0
5575,F3,501.688,0.062,66,110.0
5576,C#4,501.75,0.375,78,110.0
5577,B-2,501.75,0.375,66,110.0
5578,F3,501.75,0.375,66,110.0
5579,B-4,501.75,0.375,68,110.0
5580,F#5,501.75,0.375,68,110.0
5581,B-5,501.75,0.375,68,110.0
5582,E-3,502.125,0.5,61,110.0
5583,C5,502.125,0.125,70,110.0
5584,C6,502.125,0.125,70,110.0
5585,B-3,502.188,0.438,61,110.0
5586,F#4,502.25,0.375,72,110.0
5587,C#5,502.25,0.5,72,110.0
5588,F5,502.25,0.5,72,110.0
5589,C#6,502.25,0.5,72,110.0
5590,B-2,502.625,0.5,57,110.0
5591,F3,502.688,0.438,57,110.0
5592,C#4,502.75,0.375,68,110.0
5593,E-5,502.75,0.375,70,110.0
5594,C#5,502.75,0.375,70,110.0
5595,C#6,502.75,0.375,70,110.0
5596,F#5,502.75,0.375,70,110.0
5597,E-2,503.125,0.5,57,110.0
5598,C5,503.125,0.125,69,110.0
5599,C6,503.125,0.125,69,110.0
5600,B-2,503.188,0.438,57,110.0
5601,F#3,503.25,0.375,68,110.0
5602,B-4,503.25,0.5,73,110.0
5603,F5,503.25,0.5,73,110.0
5604,B-5,503.25,0.5,73,110.0
5605,B-1,503.625,0.5,57,110.0
5606,F2,503.688,0.438,57,110.0
5607,C#3,503.75,0.375,68,110.0
5608,G#4,503.75,0.375,70,110.0
5609,E-5,503.75,0.375,70,110.0
5610,G#5,503.75,0.375,70,110.0
5611,B-4,503.75,0.375,70,110.0
5612,E-2,504.125,0.5,56,110.0
5613,F#4,504.125,0.125,68,110.0
5614,F#5,504.125,0.125,68,110.0
5615,B-2,504.188,0.438,56,110.0
5616,F#3,504.25,0.375,67,110.0
5617,C#5,504.25,0.25,70,110.0
5618,F5,504.25,0.25,70,110.0
5619,F4,504.25,0.25,70,110.0
5620,B-2,504.625,0.125,61,110.0
5621,F3,504.688,0.062,61,110.0
5622,A2,504.75,0.125,64,110.0
5623,C#4,504.75,0.375,72,110.0
5624,B-2,504.75,0.375,61,110.0
5625,F3,504.75,0.375,61,110.0
5626,B-2,504.875,0.125,64,110.0
5627,C3,505.0,0.125,66,110.0
5628,C#3,505.125,0.125,67,110.0
5629,E-3,505.25,0.125,67,110.0
5630,A1,505.25,0.125,55,110.0
5631,F3,505.375,0.125,68,110.0
5632,B-1,505.375,0.125,55,110.0
5633,G3,505.5,0.125,69,110.0
5634,C2,505.5,0.125,56,110.0
5635,A3,505.625,0.125,69,110.0
5636,C#2,505.625,0.125,56,110.0
5637,B-3,505.75,0.125,70,110.0
5638,E-2,505.75,0.125,56,110.0
5639,C4,505.875,0.125,71,110.0
5640,F2,505.875,0.125,57,110.0
5641,C#4,506.0,0.125,71,110.0
5642,G2,506.0,0.125,58,110.0
5643,E-4,506.125,0.125,72,110.0
5644,A2,506.125,0.125,58,110.0
5645,F4,506.25,0.125,73,110.0
5646,B-2,506.25,0.125,59,110.0
5647,G4,506.375,0.125,73,110.0
5648,C3,506.375,0.125,60,110.0
5649,A4,506.5,0.125,74,110.0
5650,C#3,506.5,0.125,60,110.0
5651,B-4,506.625,0.125,74,110.0
5652,E-3,506.625,0.125,61,110.0
5653,C5,506.75,0.125,75,110.0
5654,F3,506.75,0.125,61,110.0
5655,C#5,506.875,0.125,77,110.0
5656,G3,506.875,0.125,61,110.0
5657,E-5,507.0,0.125,77,110.0
5658,A3,507.0,0.125,62,110.0
5659,F5,507.125,0.125,78,110.0
5660,B-3,507.125,0.125,62,110.0
5661,G5,507.25,0.125,77,110.0
5662,C4,507.25,0.125,63,110.0
5663,A5,507.375,0.125,77,110.0
5664,C#4,507.375,0.125,64,110.0
5665,B-5,507.5,0.125,78,110.0
5666,E-4,507.5,0.125,64,110.0
5667,C6,507.625,0.125,79,110.0
5668,F4,507.625,0.125,66,110.0
5669,C#6,507.75,0.125,80,110.0
5670,G4,507.75,0.125,67,110.0
5671,E-6,507.875,0.125,80,110.0
5672,A4,507.875,0.125,65,110.0
5673,F6,508.0,0.125,81,110.0
5674,B-4,508.0,0.125,66,110.0
5675,G6,508.125,0.188,82,110.0
5676,C5,508.125,0.125,67,110.0
5677,C#5,508.25,0.125,68,110.0
5678,A6,508.312,0.188,83,110.0
5679,E-5,508.375,0.125,69,110.0
5680,F5,508.5,0.125,70,110.0
5681,B-6,508.5,0.25,92,110.0
5682,B-5,508.5,0.25,92,110.0
5683,G5,508.625,0.188,71,110.0
5684,A5,508.812,0.125,72,110.0
5685,C7,508.875,0.125,85,110.0
5686,C#6,509.0,0.25,86,110.0
5687,B-6,509.0,0.25,86,110.0
5688,G6,509.0,0.25,86,110.0
5689,F#6,509.25,0.25,81,110.0
5690,C6,509.25,0.25,81,110.0
5691,A6,509.25,0.25,81,110.0
5692,C#6,509.5,0.5,85,110.0
5693,G6,509.5,0.5,85,110.0
5694,B-6,509.5,0.5,85,110.0
5695,E-1,509.5,0.25,74,110.0
5696,E-2,509.5,0.25,74,110.0
5697,C6,510.0,0.5,81,110.0
5698,G6,510.0,0.5,81,110.0
5699,C7,510.0,0.5,81,110.0
5700,E-3,510.0,0.25,66,110.0
5701,E-4,510.0,0.25,66,110.0
5702,G#5,510.5,0.5,79,110.0
5703,C6,510.5,0.5,79,110.0
5704,G#6,510.5,0.5,79,110.0
5705,C5,510.5,0.5,70,110.0
5706,G4,510.5,0.5,70,110.0
5707,E-4,510.5,0.5,70,110.0
5708,E-5,510.5,0.5,70,110.0
5709,E-5,511.0,0.5,76,110.0
5710,G#5,511.0,0.5,76,110.0
5711,E-6,511.0,0.5,76,110.0
5712,F5,511.0,0.5,68,110.0
5713,C5,511.0,0.5,68,110.0
5714,F4,511.0,0.5,68,110.0
5715,F5,511.5,0.5,79,110.0
5716,G#5,511.5,0.5,79,110.0
5717,F6,511.5,0.5,79,110.0
5718,C4,511.5,0.5,65,110.0
5719,G#4,511.5,0.5,65,110.0
5720,C5,511.5,0.5,65,110.0
5721,E-5,512.0,0.5,76,110.0
5722,G#5,512.0,0.5,76,110.0
5723,E-6,512.0,0.5,76,110.0
5724,C#5,512.0,0.5,68,110.0
5725,G#4,512.0,0.5,68,110.0
5726,C#4,512.0,0.5,68,110.0
5727,C5,512.5,0.5,74,110.0
5728,E-5,512.5,0.5,74,110.0
5729,C6,512.5,0.5,74,110.0
5730,C4,512.5,0.5,65,110.0
5731,G#4,512.5,0.5,65,110.0
5732,C5,512.5,0.5,65,110.0
5733,G#4,513.0,0.5,72,110.0
5734,C5,513.0,0.5,72,110.0
5735,G#5,513.0,0.5,72,110.0
5736,G#4,513.0,0.5,64,110.0
5737,E-4,513.0,0.5,64,110.0
5738,G#3,513.0,0.5,64,110.0
5739,F4,513.5,0.5,74,110.0
5740,G#4,513.5,0.5,74,110.0
5741,F5,513.5,0.5,74,110.0
5742,F3,513.5,0.5,62,110.0
5743,F4,513.5,0.5,62,110.0
5744,E-4,514.0,0.5,72,110.0
5745,G4,514.0,0.5,72,110.0
5746,E-5,514.0,0.5,72,110.0
5747,C#4,514.0,0.5,64,110.0
5748,G#3,514.0,0.5,64,110.0
5749,C#3,514.0,0.5,64,110.0
5750,C4,514.5,0.25,72,110.0
5751,G#4,514.5,0.25,72,110.0
5752,C5,514.5,0.25,72,110.0
5753,E-3,514.5,0.5,61,110.0
5754,B-3,514.5,0.5,61,110.0
5755,C#4,514.5,0.5,61,110.0
5756,E-4,515.0,0.125,66,110.0
5757,G#1,515.0,0.25,62,110.0
5758,G#2,515.0,0.25,62,110.0
5759,F4,515.125,0.125,61,110.0
5760,E-4,515.25,0.125,65,110.0
5761,F4,515.375,0.125,61,110.0
5762,D4,515.5,0.5,81,110.0
5763,E-3,515.5,0.5,61,110.0
5764,G#3,515.5,0.5,61,110.0
5765,C4,515.5,0.5,61,110.0
5766,F4,516.0,167/1000,71,110.0
5767,F3,516.0,0.5,66,110.0
5768,G#3,516.0,0.5,66,110.0
5769,B3,516.0,0.5,66,110.0
5770,G#4,516.167,167/1000,73,110.0
5771,B4,516.333,167/1000,75,110.0
5772,D5,516.5,167/1000,77,110.0
5773,F2,516.5,0.25,62,110.0
5774,F3,516.5,0.25,62,110.0
5775,F5,516.667,167/1000,79,110.0
5776,G#5,516.833,167/1000,81,110.0
5777,B5,517.0,167/1000,83,110.0
5778,F1,517.0,0.25,68,110.0
5779,F2,517.0,0.25,68,110.0
5780,D6,517.167,167/1000,85,110.0
5781,D7,517.333,167/1000,87,110.0
5782,E-6,517.5,0.25,89,110.0
5783,E-7,517.5,0.25,89,110.0
5784,E1,517.5,0.5,69,110.0
5785,E2,517.5,0.5,69,110.0
5786,B-4,518.0,0.125,80,110.0
5787,B-5,518.0,0.125,80,110.0
5788,E-5,518.0,0.125,80,110.0
5789,E-1,518.0,0.25,70,110.0
5790,E-2,518.0,0.25,70,110.0
5791,B-4,518.25,0.125,74,110.0
5792,B-5,518.25,0.125,74,110.0
5793,E-5,518.25,0.125,74,110.0
5794,B-4,518.5,0.25,80,110.0
5795,E-5,518.5,0.25,80,110.0
5796,B-5,518.5,0.25,80,110.0
5797,B-3,518.5,0.125,63,110.0
5798,C#4,518.5,0.125,63,110.0
5799,E-4,518.5,0.125,63,110.0
5800,G4,518.5,0.125,63,110.0
5801,B-3,518.75,0.125,59,110.0
5802,C#4,518.75,0.125,59,110.0
5803,E-4,518.75,0.125,59,110.0
5804,G4,518.75,0.125,59,110.0
5805,A4,519.0,0.25,74,110.0
5806,E-5,519.0,0.25,74,110.0
5807,A5,519.0,0.25,74,110.0
5808,B-3,519.0,0.25,63,110.0
5809,C#4,519.0,0.25,63,110.0
5810,E-4,519.0,0.25,63,110.0
5811,G4,519.0,0.25,63,110.0
5812,B-4,519.25,0.25,78,110.0
5813,E-5,519.25,0.25,78,110.0
5814,B-5,519.25,0.25,78,110.0
5815,C5,519.5,0.5,82,110.0
5816,E-5,519.5,0.5,82,110.0
5817,C6,519.5,0.5,82,110.0
5818,B-3,519.5,0.25,58,110.0
5819,C#4,519.5,0.25,58,110.0
5820,E-4,519.5,0.25,58,110.0
5821,F#4,519.5,0.25,58,110.0
5822,B-3,519.75,0.25,61,110.0
5823,C#4,519.75,0.25,61,110.0
5824,E-4,519.75,0.25,61,110.0
5825,G4,519.75,0.25,61,110.0
5826,G4,520.0,0.5,78,110.0
5827,C#5,520.0,0.5,78,110.0
5828,E-5,520.0,0.5,78,110.0
5829,G5,520.0,0.5,78,110.0
5830,B-3,520.0,0.5,64,110.0
5831,C#4,520.0,0.5,64,110.0
5832,E-4,520.0,0.5,64,110.0
5833,G#4,520.0,0.5,64,110.0
5834,G#4,520.5,0.25,79,110.0
5835,C5,520.5,0.25,79,110.0
5836,G#5,520.5,0.25,79,110.0
5837,B-3,520.5,0.5,62,110.0
5838,C#4,520.5,0.5,62,110.0
5839,E-4,520.5,0.5,62,110.0
5840,B-4,520.5,0.5,62,110.0
5841,E-4,521.0,0.125,66,110.0
5842,G#2,521.0,0.25,68,110.0
5843,G#3,521.0,0.25,68,110.0
5844,F4,521.125,0.125,61,110.0
5845,E-4,521.25,0.125,65,110.0
5846,F4,521.375,0.125,61,110.0
5847,D4,521.5,0.5,81,110.0
5848,E-3,521.5,0.5,61,110.0
5849,G#3,521.5,0.5,61,110.0
5850,C4,521.5,0.5,61,110.0
5851,F4,522.0,167/1000,71,110.0
5852,F3,522.0,0.5,66,110.0
5853,G#3,522.0,0.5,66,110.0
5854,B3,522.0,0.5,66,110.0
5855,G#4,522.167,167/1000,73,110.0
5856,B4,522.333,167/1000,75,110.0
5857,D5,522.5,167/1000,77,110.0
5858,F2,522.5,0.25,62,110.0
5859,F3,522.5,0.25,62,110.0
5860,F5,522.667,167/1000,79,110.0
5861,G#5,522.833,167/1000,81,110.0
5862,B5,523.0,167/1000,83,110.0
5863,F1,523.0,0.25,68,110.0
5864,F2,523.0,0.25,68,110.0
5865,D6,523.167,167/1000,85,110.0
5866,D7,523.333,167/1000,87,110.0
5867,E-6,523.5,0.25,89,110.0
5868,E-7,523.5,0.25,89,110.0
5869,E1,523.5,0.5,69,110.0
5870,E2,523.5,0.5,69,110.0
5871,B-4,524.0,0.125,80,110.0
5872,B-5,524.0,0.125,80,110.0
5873,E-5,524.0,0.125,80,110.0
5874,E-1,524.0,0.25,70,110.0
5875,E-2,524.0,0.25,70,110.0
5876,B-4,524.25,0.125,74,110.0
5877,B-5,524.25,0.125,74,110.0
5878,E-5,524.25,0.125,74,110.0
5879,B-4,524.5,0.25,80,110.0
5880,E-5,524.5,0.25,80,110.0
5881,B-5,524.5,0.25,80,110.0
5882,B-3,524.5,0.125,63,110.0
5883,C#4,524.5,0.125,63,110.0
5884,E-4,524.5,0.125,63,110.0
5885,G4,524.5,0.125,63,110.0
5886,C5,524.75,0.25,67,110.0
5887,E-5,524.75,0.25,67,110.0
5888,C6,524.75,0.25,67,110.0
5889,B-3,524.75,0.125,59,110.0
5890,C#4,524.75,0.125,59,110.0
5891,E-4,524.75,0.125,59,110.0
5892,G4,524.75,0.125,59,110.0
5893,A4,525.0,0.25,74,110.0
5894,E-5,525.0,0.25,74,110.0
5895,A5,525.0,0.25,74,110.0
5896,B-3,525.0,0.25,63,110.0
5897,C#4,525.0,0.25,63,110.0
5898,E-4,525.0,0.25,63,110.0
5899,G4,525.0,0.25,63,110.0
5900,B-4,525.25,0.25,78,110.0
5901,E-5,525.25,0.25,78,110.0
5902,B-5,525.25,0.25,78,110.0
5903,B-3,525.25,0.25,53,110.0
5904,C#4,525.25,0.25,53,110.0
5905,E-4,525.25,0.25,53,110.0
5906,G#4,525.25,0.25,53,110.0
5907,C5,525.5,0.5,82,110.0
5908,E-5,525.5,0.5,82,110.0
5909,C6,525.5,0.5,82,110.0
5910,B-3,525.5,0.25,58,110.0
5911,C#4,525.5,0.25,58,110.0
5912,E-4,525.5,0.25,58,110.0
5913,F#4,525.5,0.25,58,110.0
5914,B-3,525.75,0.25,61,110.0
5915,C#4,525.75,0.25,61,110.0
5916,E-4,525.75,0.25,61,110.0
5917,G4,525.75,0.25,61,110.0
5918,G4,526.0,0.5,78,110.0
5919,C#5,526.0,0.5,78,110.0
5920,E-5,526.0,0.5,78,110.0
5921,G5,526.0,0.5,78,110.0
5922,B-3,526.0,0.5,64,110.0
5923,C#4,526.0,0.5,64,110.0
5924,E-4,526.0,0.5,64,110.0
5925,G#4,526.0,0.5,64,110.0
5926,F5,526.5,0.75,87,110.0
5927,G#4,526.5,0.75,87,110.0
5928,C5,526.5,0.75,87,110.0
5929,G#5,526.5,0.75,87,110.0
5930,B-3,526.5,0.5,62,110.0
5931,C#4,526.5,0.5,62,110.0
5932,E-4,526.5,0.5,62,110.0
5933,B-4,526.5,0.5,62,110.0
5934,G#1,527.0,0.25,77,110.0
5935,G#2,527.0,0.25,77,110.0
5936,E-5,527.25,9/40,93,110.0
5937,E-4,527.5,1.0,84,110.0
5938,C5,527.5,1.0,84,110.0
5939,E-5,527.5,1.0,84,110.0
5940,E-2,527.5,0.25,73,110.0
5941,E-3,527.5,0.25,73,110.0
5942,G#3,528.0,0.25,70,110.0
5943,G#2,528.0,0.25,70,110.0
5944,E-3,528.5,0.125,78,110.0
5945,E-4,528.5,0.125,78,110.0
5946,C5,529.0,0.25,79,110.0
5947,G#5,529.0,0.25,79,110.0
5948,C6,529.0,0.25,79,110.0
5949,G#3,529.0,0.25,80,110.0
5950,G#4,529.0,0.25,80,110.0
5951,C#5,529.25,0.25,77,110.0
5952,B-5,529.25,0.25,77,110.0
5953,C#6,529.25,0.25,77,110.0
5954,F5,529.5,0.75,91,110.0
5955,C#6,529.5,0.75,91,110.0
5956,F6,529.5,0.75,91,110.0
5957,E-4,529.5,0.25,67,110.0
5958,E-5,529.5,0.25,67,110.0
5959,G#1,530.0,0.25,77,110.0
5960,G#2,530.0,0.25,77,110.0
5961,E-5,530.25,9/40,84,110.0
5962,C6,530.25,9/40,84,110.0
5963,E-6,530.25,9/40,84,110.0
5964,E-5,530.5,1.0,84,110.0
5965,C6,530.5,1.0,84,110.0
5966,E-6,530.5,1.0,84,110.0
5967,E-2,530.5,0.25,73,110.0
5968,E-3,530.5,0.25,73,110.0
5969,G#3,531.0,0.25,70,110.0
5970,G#2,531.0,0.25,70,110.0
5971,E-3,531.5,0.125,78,110.0
5972,E-4,531.5,0.125,78,110.0
5973,C5,532.0,0.25,79,110.0
5974,G#5,532.0,0.25,79,110.0
5975,C6,532.0,0.25,79,110.0
5976,G#3,532.0,0.25,80,110.0
5977,G#4,532.0,0.25,80,110.0
5978,C#5,532.25,0.25,77,110.0
5979,B-5,532.25,0.25,77,110.0
5980,C#6,532.25,0.25,77,110.0
5981,F5,532.5,0.75,91,110.0
5982,C#6,532.5,0.75,91,110.0
5983,F6,532.5,0.75,91,110.0
5984,E-4,532.5,0.25,67,110.0
5985,E-5,532.5,0.25,67,110.0
5986,G#1,533.0,0.25,77,110.0
5987,G#2,533.0,0.25,77,110.0
5988,E-5,533.25,0.25,84,110.0
5989,C6,533.25,0.25,84,110.0
5990,E-6,533.25,0.25,84,110.0
5991,F5,533.5,0.75,91,110.0
5992,C#6,533.5,0.75,91,110.0
5993,F6,533.5,0.75,91,110.0
5994,E-2,533.5,0.25,73,110.0
5995,E-3,533.5,0.25,73,110.0
5996,G#3,534.0,0.25,70,110.0
5997,G#2,534.0,0.25,70,110.0
5998,E-5,534.25,0.25,84,110.0
5999,C6,534.25,0.25,84,110.0
6000,E-6,534.25,0.25,84,110.0
6001,F5,534.5,0.75,91,110.0
6002,C#6,534.5,0.75,91,110.0
6003,F6,534.5,0.75,91,110.0
6004,E-3,534.5,0.125,78,110.0
6005,E-4,534.5,0.125,78,110.0
6006,G#3,535.0,0.25,80,110.0
6007,G#4,535.0,0.25,80,110.0
6008,E-5,535.25,0.25,84,110.0
6009,C6,535.25,0.25,84,110.0
6010,E-6,535.25,0.25,84,110.0
6011,F5,535.5,0.75,91,110.0
6012,C#6,535.5,0.75,91,110.0
6013,F6,535.5,0.75,91,110.0
6014,E-3,535.5,0.25,67,110.0
6015,E-4,535.5,0.25,67,110.0
6016,G#2,536.0,0.25,77,110.0
6017,G#3,536.0,0.25,77,110.0
6018,E-5,536.25,9/40,84,110.0
6019,C6,536.25,9/40,84,110.0
6020,E-6,536.25,9/40,84,110.0
6021,E-5,536.5,1.0,84,110.0
6022,C6,536.5,1.0,84,110.0
6023,E-6,536.5,1.0,84,110.0
6024,E-2,536.5,0.25,73,110.0
6025,E-3,536.5,0.25,73,110.0
6026,G#1,537.0,0.125,78,110.0
6027,G#2,537.0,0.125,78,110.0
6028,G1,537.25,0.125,74,110.0
6029,G2,537.25,0.125,74,110.0
6030,F6,537.5,0.125,84,110.0
6031,C6,537.5,0.125,84,110.0
6032,F5,537.5,0.125,84,110.0
6033,F1,537.5,0.125,74,110.0
6034,F2,537.5,0.125,74,110.0
6035,G5,537.75,0.25,86,110.0
6036,C6,537.75,0.25,86,110.0
6037,G6,537.75,0.25,86,110.0
6038,E-1,537.75,0.125,74,110.0
6039,E-2,537.75,0.125,74,110.0
6040,G#5,538.0,0.25,90,110.0
6041,C6,538.0,0.25,90,110.0
6042,G#6,538.0,0.25,90,110.0
6043,G#1,538.0,0.125,70,110.0
6044,G#2,538.0,0.125,70,110.0
6045,E-6,538.25,0.25,89,110.0
6046,B-5,538.25,0.25,97,110.0
6047,B-6,538.25,0.25,97,110.0
6048,G1,538.25,0.125,74,110.0
6049,G2,538.25,0.125,74,110.0
6050,E-6,538.5,0.25,89,110.0
6051,C7,538.5,0.5,104,110.0
6052,G#6,538.5,0.5,104,110.0
6053,C6,538.5,0.5,104,110.0
6054,F1,538.5,0.125,76,110.0
6055,F2,538.5,0.125,76,110.0
6056,E-1,538.75,0.125,80,110.0
6057,E-2,538.75,0.125,80,110.0
6058,G#1,539.0,0.5,82,110.0
6059,G#2,539.0,0.5,82,110.0
6060,E3,540.0,0.125,86,110.0
6061,G3,540.0,0.125,86,110.0
6062,C4,540.0,0.125,86,110.0
6063,E4,540.0,0.125,86,110.0
6064,E3,540.25,0.125,82,110.0
6065,G3,540.25,0.125,82,110.0
6066,C4,540.25,0.125,82,110.0
6067,E4,540.25,0.125,82,110.0
6068,E3,540.5,0.25,86,110.0
6069,G3,540.5,0.25,86,110.0
6070,C4,540.5,0.25,86,110.0
6071,E4,540.5,0.25,86,110.0
6072,C2,540.5,0.125,69,110.0
6073,G2,540.5,0.125,69,110.0
6074,C3,540.5,0.125,69,110.0
6075,C2,540.75,0.125,65,110.0
6076,G2,540.75,0.125,65,110.0
6077,C3,540.75,0.125,65,110.0
6078,E3,541.0,0.25,81,110.0
6079,G3,541.0,0.25,81,110.0
6080,C4,541.0,0.25,81,110.0
6081,E4,541.0,0.25,81,110.0
6082,C2,541.0,0.25,69,110.0
6083,G2,541.0,0.25,69,110.0
6084,C3,541.0,0.25,69,110.0
6085,E3,541.312,0.188,78,110.0
6086,G3,541.375,0.125,78,110.0
6087,C4,541.438,0.062,92,110.0
6088,E4,541.5,0.5,92,110.0
6089,E3,541.5,0.5,78,110.0
6090,G3,541.5,0.5,78,110.0
6091,C4,541.5,0.5,92,110.0
6092,C2,541.5,0.25,64,110.0
6093,G2,541.5,0.25,64,110.0
6094,C3,541.5,0.25,64,110.0
6095,C2,541.875,0.125,60,110.0
6096,G2,541.938,0.062,60,110.0
6097,C3,542.0,0.5,71,110.0
6098,C2,542.0,0.5,60,110.0
6099,G2,542.0,0.5,60,110.0
6100,E3,542.312,0.688,79,110.0
6101,G3,542.375,0.625,79,110.0
6102,C4,542.438,0.562,93,110.0
6103,E4,542.5,0.5,93,110.0
6104,C2,542.875,0.625,60,110.0
6105,G2,542.938,0.562,60,110.0
6106,C3,543.0,0.5,71,110.0
6107,E-3,543.312,0.688,79,110.0
6108,G3,543.375,0.625,79,110.0
6109,C#4,543.438,0.562,93,110.0
6110,E-4,543.5,0.5,93,110.0
6111,E-2,543.875,0.625,60,110.0
6112,B-2,544.0,0.5,71,110.0
6113,G#3,544.5,0.5,91,110.0
6114,C4,544.5,0.5,91,110.0
6115,G#4,544.5,0.5,91,110.0
6116,G#1,545.0,0.5,73,110.0
6117,G#2,545.0,0.5,73,110.0
