,note_name,start_time,duration,velocity,tempo
0,C#2,0.0,3.5,83,80.0
1,C#3,0.0,3.5,83,80.0
2,E1,3.5,0.5,83,80.0
3,E2,3.5,0.5,83,80.0
4,E1,4.0,4.0,83,80.0
5,E2,4.0,4.0,83,80.0
6,C#3,6.0,2.0,81,80.0
7,C#4,6.0,2.0,81,80.0
8,G#3,6.0,2.0,81,80.0
9,C#3,8.0,0.25,72,80.0
10,C#3,8.25,3.75,65,80.0
11,E-3,8.5,3.5,79,80.0
12,A3,8.75,3.25,81,80.0
13,C#4,9.0,3.0,85,80.0
14,F1,9.0,3.0,85,80.0
15,F2,9.0,3.0,85,80.0
16,E-3,12.0,4.0,79,80.0
17,A3,12.0,4.0,81,80.0
18,C3,12.0,4.0,64,80.0
19,C4,12.0,4.0,64,80.0
20,F1,12.0,4.0,85,80.0
21,F2,12.0,4.0,85,80.0
22,B-1,16.0,0.25,48,80.0
23,B-2,16.0,0.25,48,80.0
24,F3,16.25,0.25,29,80.0
25,C#3,16.5,0.25,23,80.0
26,C#4,16.5,0.25,23,80.0
27,B-3,16.5,0.25,23,80.0
28,F2,16.75,0.25,33,80.0
29,B-1,17.0,0.25,27,80.0
30,B-2,17.0,0.25,27,80.0
31,F3,17.25,0.25,29,80.0
32,C#3,17.5,0.25,24,80.0
33,C#4,17.5,0.25,24,80.0
34,B-3,17.5,0.25,24,80.0
35,F2,17.75,0.25,35,80.0
36,B-1,18.0,0.25,30,80.0
37,B-2,18.0,0.25,30,80.0
38,F3,18.25,0.25,30,80.0
39,C#3,18.5,0.25,26,80.0
40,C#4,18.5,0.25,26,80.0
41,B-3,18.5,0.25,26,80.0
42,F2,18.75,0.25,35,80.0
43,B-1,19.0,0.25,31,80.0
44,B-2,19.0,0.25,31,80.0
45,F3,19.25,0.25,35,80.0
46,C#3,19.5,0.25,28,80.0
47,C#4,19.5,0.25,28,80.0
48,B-3,19.5,0.25,28,80.0
49,F2,19.75,0.25,39,80.0
50,B-1,20.0,0.25,34,80.0
51,B-2,20.0,0.25,34,80.0
52,F3,20.25,0.25,35,80.0
53,C#3,20.5,0.25,30,80.0
54,C#4,20.5,0.25,30,80.0
55,B-3,20.5,0.25,30,80.0
56,F2,20.75,0.25,39,80.0
57,B-1,21.0,0.25,32,80.0
58,B-2,21.0,0.25,32,80.0
59,F3,21.25,0.25,34,80.0
60,C#3,21.5,0.25,27,80.0
61,C#4,21.5,0.25,27,80.0
62,B-3,21.5,0.25,27,80.0
63,F2,21.75,0.25,36,80.0
64,B-1,22.0,0.25,30,80.0
65,B-2,22.0,0.25,30,80.0
66,F3,22.25,0.25,30,80.0
67,C#3,22.5,0.25,26,80.0
68,C#4,22.5,0.25,26,80.0
69,B-3,22.5,0.25,26,80.0
70,F2,22.75,0.25,35,80.0
71,B-1,23.0,0.25,27,80.0
72,B-2,23.0,0.25,27,80.0
73,F3,23.25,0.25,29,80.0
74,C#3,23.5,0.25,25,80.0
75,C#4,23.5,0.25,25,80.0
76,B-3,23.5,0.25,25,80.0
77,F3,23.75,0.25,33,80.0
78,C#5,24.0,0.25,54,80.0
79,B-2,24.0,0.25,35,80.0
80,B-4,24.25,0.125,51,80.0
81,F3,24.25,0.25,34,80.0
82,C#4,24.5,0.25,30,80.0
83,B-3,24.5,0.25,30,80.0
84,C5,24.75,0.25,51,80.0
85,F3,24.75,0.25,31,80.0
86,C#5,25.0,0.25,54,80.0
87,B-2,25.0,0.25,35,80.0
88,B-4,25.25,0.125,51,80.0
89,F3,25.25,0.25,33,80.0
90,C#4,25.5,0.25,31,80.0
91,B-3,25.5,0.25,31,80.0
92,F3,25.75,0.25,31,80.0
93,C#5,26.0,0.25,54,80.0
94,B-2,26.0,0.25,35,80.0
95,B-4,26.25,0.125,51,80.0
96,F3,26.25,0.25,34,80.0
97,C#4,26.5,0.25,31,80.0
98,B-3,26.5,0.25,31,80.0
99,C5,26.75,0.25,51,80.0
100,F3,26.75,0.25,31,80.0
101,C#5,27.0,0.25,54,80.0
102,B-2,27.0,0.25,35,80.0
103,B-4,27.25,0.125,51,80.0
104,F3,27.25,0.25,33,80.0
105,C#4,27.5,0.25,31,80.0
106,B-3,27.5,0.25,31,80.0
107,F3,27.75,0.25,31,80.0
108,C#5,28.0,0.25,54,80.0
109,B-2,28.0,0.25,35,80.0
110,B-4,28.25,0.125,51,80.0
111,F3,28.25,0.25,33,80.0
112,C#4,28.5,0.25,31,80.0
113,B-3,28.5,0.25,31,80.0
114,C5,28.75,0.25,61,80.0
115,F3,28.75,0.25,33,80.0
116,C#5,29.0,0.25,66,80.0
117,B-2,29.0,0.25,37,80.0
118,B-5,29.25,0.125,64,80.0
119,F3,29.25,0.25,35,80.0
120,C#4,29.5,0.25,34,80.0
121,B-3,29.5,0.25,34,80.0
122,F3,29.75,0.25,34,80.0
123,A5,30.0,0.25,61,80.0
124,C3,30.0,0.25,35,80.0
125,C5,30.25,0.125,57,80.0
126,F#3,30.25,0.25,34,80.0
127,E-4,30.5,0.25,30,80.0
128,A3,30.5,0.25,30,80.0
129,C#5,30.75,0.25,49,80.0
130,F#3,30.75,0.25,31,80.0
131,E-5,31.0,0.25,52,80.0
132,C3,31.0,0.25,35,80.0
133,C5,31.25,0.125,49,80.0
134,F#3,31.25,0.25,33,80.0
135,E-4,31.5,0.25,31,80.0
136,A3,31.5,0.25,31,80.0
137,F#3,31.75,0.25,31,80.0
138,F#5,32.0,0.25,55,80.0
139,C3,32.0,0.25,35,80.0
140,C5,32.25,0.125,49,80.0
141,E-3,32.25,0.25,34,80.0
142,E-4,32.5,0.25,30,80.0
143,A3,32.5,0.25,30,80.0
144,C#5,32.75,0.25,49,80.0
145,E-3,32.75,0.25,31,80.0
146,E-5,33.0,0.25,52,80.0
147,C3,33.0,0.25,35,80.0
148,C5,33.25,0.125,49,80.0
149,F#3,33.25,0.25,33,80.0
150,E-4,33.5,0.25,31,80.0
151,A3,33.5,0.25,31,80.0
152,F#3,33.75,0.25,31,80.0
153,F#5,34.0,0.25,55,80.0
154,C3,34.0,0.25,35,80.0
155,C5,34.25,0.125,49,80.0
156,E-3,34.25,0.25,34,80.0
157,E-4,34.5,0.25,30,80.0
158,A3,34.5,0.25,30,80.0
159,C#5,34.75,0.25,49,80.0
160,E-3,34.75,0.25,31,80.0
161,E-5,35.0,0.25,52,80.0
162,C3,35.0,0.25,35,80.0
163,C5,35.25,0.125,49,80.0
164,F#3,35.25,0.25,33,80.0
165,E-4,35.5,0.25,31,80.0
166,A3,35.5,0.25,31,80.0
167,F#3,35.75,0.25,31,80.0
168,F#5,36.0,0.25,58,80.0
169,C3,36.0,0.25,35,80.0
170,C5,36.25,0.125,51,80.0
171,E-3,36.25,0.25,35,80.0
172,E-4,36.5,0.25,34,80.0
173,A3,36.5,0.25,34,80.0
174,C#5,36.75,0.25,65,80.0
175,E-3,36.75,0.25,35,80.0
176,E-5,37.0,0.25,71,80.0
177,C3,37.0,0.25,39,80.0
178,C6,37.25,0.125,64,80.0
179,F#3,37.25,0.25,37,80.0
180,E-4,37.5,0.25,37,80.0
181,A3,37.5,0.25,37,80.0
182,F#3,37.75,0.25,38,80.0
183,C6,38.0,0.5,61,80.0
184,C#3,38.0,0.25,35,80.0
185,C#5,38.25,0.125,57,80.0
186,F3,38.25,0.25,34,80.0
187,F4,38.5,0.25,30,80.0
188,A3,38.5,0.25,30,80.0
189,E-5,38.75,0.25,49,80.0
190,F3,38.75,0.25,31,80.0
191,B-5,39.0,0.5,52,80.0
192,F5,39.0,0.25,52,80.0
193,C#3,39.0,0.25,35,80.0
194,C#5,39.25,0.125,49,80.0
195,F3,39.25,0.25,33,80.0
196,F4,39.5,0.25,31,80.0
197,B-3,39.5,0.25,31,80.0
198,F3,39.75,0.25,31,80.0
199,E3,40.0,0.25,56,80.0
200,C#6,40.0,0.25,76,80.0
201,C#5,40.0,0.25,76,80.0
202,C#4,40.25,0.25,53,80.0
203,C6,40.25,0.125,69,80.0
204,G5,40.25,0.125,69,80.0
205,G4,40.5,0.25,50,80.0
206,E3,40.75,0.25,51,80.0
207,C#5,40.75,0.25,66,80.0
208,B-5,40.75,0.25,66,80.0
209,F3,41.0,0.25,56,80.0
210,A5,41.0,0.25,71,80.0
211,F5,41.0,0.25,71,80.0
212,C4,41.25,0.25,52,80.0
213,C5,41.25,0.125,62,80.0
214,C6,41.25,0.125,62,80.0
215,A4,41.5,0.25,58,80.0
216,F3,41.75,0.25,51,80.0
217,A2,42.0,0.25,33,80.0
218,F#4,42.0,0.25,50,80.0
219,F#5,42.0,0.25,50,80.0
220,F#3,42.25,0.25,30,80.0
221,C5,42.25,0.125,46,80.0
222,F5,42.25,0.125,46,80.0
223,E-4,42.5,0.25,29,80.0
224,A2,42.75,0.25,29,80.0
225,F#4,42.75,0.25,44,80.0
226,E-5,42.75,0.25,44,80.0
227,B-2,43.0,0.25,33,80.0
228,C#5,43.0,0.25,48,80.0
229,B-4,43.0,0.25,48,80.0
230,F3,43.25,0.25,30,80.0
231,F4,43.25,0.125,44,80.0
232,F5,43.25,0.125,44,80.0
233,C#4,43.5,0.25,29,80.0
234,B-2,43.75,0.25,29,80.0
235,E3,44.0,0.25,56,80.0
236,C#5,44.0,0.25,76,80.0
237,C#6,44.0,0.25,76,80.0
238,C#4,44.25,0.25,53,80.0
239,C6,44.25,0.125,69,80.0
240,G5,44.25,0.125,69,80.0
241,G4,44.5,0.25,50,80.0
242,E3,44.75,0.25,51,80.0
243,C#5,44.75,0.25,66,80.0
244,B-5,44.75,0.25,66,80.0
245,F3,45.0,0.25,56,80.0
246,F5,45.0,0.25,71,80.0
247,A5,45.0,0.25,71,80.0
248,C4,45.25,0.25,52,80.0
249,C5,45.25,0.125,62,80.0
250,C6,45.25,0.125,62,80.0
251,A4,45.5,0.25,58,80.0
252,F3,45.75,0.25,51,80.0
253,A2,46.0,0.25,33,80.0
254,F#4,46.0,0.25,50,80.0
255,F#5,46.0,0.25,50,80.0
256,F#3,46.25,0.25,30,80.0
257,F5,46.25,0.125,46,80.0
258,C5,46.25,0.125,46,80.0
259,E-4,46.5,0.25,29,80.0
260,A2,46.75,0.25,29,80.0
261,F#4,46.75,0.25,44,80.0
262,E-5,46.75,0.25,44,80.0
263,B-2,47.0,0.25,33,80.0
264,D5,47.0,0.25,48,80.0
265,B-4,47.0,0.25,48,80.0
266,F3,47.25,0.25,30,80.0
267,F5,47.25,0.125,43,80.0
268,C#5,47.25,0.125,43,80.0
269,F4,47.25,0.125,43,80.0
270,C#4,47.5,0.25,29,80.0
271,B-2,47.75,0.25,29,80.0
272,G2,48.0,0.25,56,80.0
273,B-5,48.0,0.25,80,80.0
274,F5,48.0,0.25,80,80.0
275,F6,48.0,0.25,80,80.0
276,C3,48.25,0.25,53,80.0
277,E6,48.25,0.125,76,80.0
278,E5,48.25,0.125,76,80.0
279,C#3,48.5,0.25,50,80.0
280,B-3,48.75,0.25,49,80.0
281,C#5,48.75,0.25,67,80.0
282,C#6,48.75,0.25,67,80.0
283,G2,49.0,0.25,52,80.0
284,E5,49.0,0.25,72,80.0
285,C6,49.0,0.25,72,80.0
286,C5,49.0,0.25,72,80.0
287,C3,49.25,0.25,49,80.0
288,B-5,49.25,0.125,68,80.0
289,B-4,49.25,0.125,68,80.0
290,C#3,49.5,0.25,49,80.0
291,B-3,49.75,0.25,49,80.0
292,G2,50.0,0.25,47,80.0
293,B-4,50.0,0.25,74,80.0
294,B-5,50.0,0.25,74,80.0
295,C3,50.25,0.25,45,80.0
296,G#5,50.25,0.125,67,80.0
297,E5,50.25,0.125,67,80.0
298,C#3,50.5,0.25,42,80.0
299,B-3,50.75,0.25,44,80.0
300,G4,50.75,0.25,62,80.0
301,G5,50.75,0.25,62,80.0
302,A2,51.0,0.25,49,80.0
303,E-5,51.0,0.25,64,80.0
304,F#5,51.0,0.25,64,80.0
305,D3,51.25,0.25,44,80.0
306,F#4,51.25,0.125,60,80.0
307,C5,51.25,0.125,60,80.0
308,E-3,51.5,0.25,46,80.0
309,C4,51.75,0.25,44,80.0
310,B2,52.0,0.25,47,80.0
311,G#4,52.0,0.25,62,80.0
312,G#5,52.0,0.25,62,80.0
313,E3,52.25,0.25,45,80.0
314,D5,52.25,0.125,57,80.0
315,G5,52.25,0.125,57,80.0
316,F3,52.5,0.25,42,80.0
317,D4,52.75,0.25,44,80.0
318,F4,52.75,0.25,56,80.0
319,F5,52.75,0.25,56,80.0
320,C3,53.0,0.25,49,80.0
321,C5,53.0,0.25,58,80.0
322,E-5,53.0,0.25,58,80.0
323,F#3,53.25,0.25,39,80.0
324,E-4,53.25,0.125,48,80.0
325,G4,53.25,0.125,48,80.0
326,G3,53.5,0.25,40,80.0
327,E-4,53.75,0.25,39,80.0
328,B-2,54.0,0.25,52,80.0
329,C5,54.0,0.25,62,80.0
330,E-5,54.0,0.25,62,80.0
331,F3,54.25,0.25,45,80.0
332,F#4,54.25,0.125,54,80.0
333,E-4,54.25,0.125,54,80.0
334,F#3,54.5,0.25,41,80.0
335,E-4,54.75,0.25,42,80.0
336,A2,55.0,0.25,52,80.0
337,E-5,55.0,0.25,58,80.0
338,C5,55.0,0.25,58,80.0
339,E3,55.25,0.25,41,80.0
340,E-4,55.25,0.125,51,80.0
341,F4,55.25,0.125,51,80.0
342,F3,55.5,0.25,42,80.0
343,E-4,55.75,0.25,41,80.0
344,C#5,56.0,0.25,68,80.0
345,B-2,56.0,0.25,51,80.0
346,F3,56.25,0.25,44,80.0
347,C#4,56.25,0.25,46,80.0
348,F4,56.25,0.25,46,80.0
349,B-4,56.25,0.25,46,80.0
350,B-3,56.5,0.25,47,80.0
351,C5,56.75,0.25,67,80.0
352,F2,56.75,0.25,48,80.0
353,C#5,57.0,0.25,68,80.0
354,B-2,57.0,0.25,51,80.0
355,F3,57.25,0.25,43,80.0
356,C#4,57.25,0.25,47,80.0
357,F4,57.25,0.25,47,80.0
358,B-4,57.25,0.25,47,80.0
359,B-3,57.5,0.25,48,80.0
360,F2,57.75,0.25,48,80.0
361,C#5,58.0,0.25,68,80.0
362,B-2,58.0,0.25,51,80.0
363,F3,58.25,0.25,44,80.0
364,F4,58.25,0.25,47,80.0
365,C#4,58.25,0.25,47,80.0
366,B-4,58.25,0.25,47,80.0
367,B-3,58.5,0.25,48,80.0
368,C5,58.75,0.25,68,80.0
369,F2,58.75,0.25,48,80.0
370,C#5,59.0,0.25,68,80.0
371,B-2,59.0,0.25,51,80.0
372,F3,59.25,0.25,43,80.0
373,C#4,59.25,0.25,47,80.0
374,F4,59.25,0.25,47,80.0
375,B-4,59.25,0.25,47,80.0
376,B-3,59.5,0.25,48,80.0
377,F2,59.75,0.25,48,80.0
378,C#5,60.0,0.25,68,80.0
379,B-2,60.0,0.25,51,80.0
380,F3,60.25,0.25,49,80.0
381,C#4,60.25,0.25,53,80.0
382,F4,60.25,0.25,53,80.0
383,B-4,60.25,0.25,53,80.0
384,B-3,60.5,0.25,48,80.0
385,C5,60.75,0.25,73,80.0
386,F2,60.75,0.25,49,80.0
387,C#5,61.0,0.25,84,80.0
388,B-2,61.0,0.25,54,80.0
389,F3,61.25,0.25,51,80.0
390,B-4,61.25,0.25,60,80.0
391,F5,61.25,0.25,60,80.0
392,B-5,61.25,0.25,60,80.0
393,C#4,61.5,0.25,50,80.0
394,C#3,61.75,0.25,50,80.0
395,A5,62.0,0.25,76,80.0
396,C3,62.0,0.25,51,80.0
397,F#3,62.25,0.25,44,80.0
398,A4,62.25,0.25,56,80.0
399,C5,62.25,0.25,56,80.0
400,E-4,62.5,0.25,47,80.0
401,C#5,62.75,0.25,67,80.0
402,C3,62.75,0.25,48,80.0
403,E-5,63.0,0.25,68,80.0
404,F#3,63.0,0.25,51,80.0
405,A3,63.25,0.25,43,80.0
406,F#4,63.25,0.25,47,80.0
407,A4,63.25,0.25,47,80.0
408,C5,63.25,0.25,47,80.0
409,E-4,63.5,0.25,48,80.0
410,C3,63.75,0.25,48,80.0
411,F#5,64.0,0.25,71,80.0
412,E-3,64.0,0.25,51,80.0
413,A3,64.25,0.25,44,80.0
414,A4,64.25,0.25,46,80.0
415,F#4,64.25,0.25,46,80.0
416,C5,64.25,0.25,46,80.0
417,E-4,64.5,0.25,47,80.0
418,C#5,64.75,0.25,67,80.0
419,C3,64.75,0.25,48,80.0
420,E-5,65.0,0.25,68,80.0
421,F#3,65.0,0.25,51,80.0
422,A3,65.25,0.25,43,80.0
423,F#4,65.25,0.25,47,80.0
424,A4,65.25,0.25,47,80.0
425,C5,65.25,0.25,47,80.0
426,E-4,65.5,0.25,48,80.0
427,C3,65.75,0.25,48,80.0
428,F#5,66.0,0.25,71,80.0
429,E-3,66.0,0.25,51,80.0
430,A3,66.25,0.25,44,80.0
431,F#4,66.25,0.25,46,80.0
432,A4,66.25,0.25,46,80.0
433,C5,66.25,0.25,46,80.0
434,E-4,66.5,0.25,47,80.0
435,C#5,66.75,0.25,67,80.0
436,C3,66.75,0.25,48,80.0
437,E-5,67.0,0.25,68,80.0
438,F#3,67.0,0.25,51,80.0
439,A3,67.25,0.25,43,80.0
440,F#4,67.25,0.25,47,80.0
441,A4,67.25,0.25,47,80.0
442,C5,67.25,0.25,47,80.0
443,E-4,67.5,0.25,48,80.0
444,C3,67.75,0.25,48,80.0
445,F#5,68.0,0.25,74,80.0
446,E-3,68.0,0.25,52,80.0
447,A3,68.25,0.25,46,80.0
448,F#4,68.25,0.25,49,80.0
449,A4,68.25,0.25,49,80.0
450,C5,68.25,0.25,49,80.0
451,E-4,68.5,0.25,50,80.0
452,C#5,68.75,0.25,78,80.0
453,C3,68.75,0.25,51,80.0
454,E-5,69.0,0.25,88,80.0
455,F#3,69.0,0.25,57,80.0
456,A3,69.25,0.25,54,80.0
457,C5,69.25,0.25,62,80.0
458,F#5,69.25,0.25,62,80.0
459,C6,69.25,0.25,62,80.0
460,E-4,69.5,0.25,54,80.0
461,C3,69.75,0.25,55,80.0
462,C6,70.0,0.25,73,80.0
463,C#3,70.0,0.25,51,80.0
464,A3,70.25,0.25,50,80.0
465,C5,70.25,0.25,61,80.0
466,C#5,70.25,0.25,61,80.0
467,F4,70.5,0.25,47,80.0
468,E-5,70.75,0.25,64,80.0
469,F3,70.75,0.25,48,80.0
470,F5,71.0,0.25,69,80.0
471,B-3,71.0,0.25,51,80.0
472,C#4,71.25,0.25,49,80.0
473,B-4,71.25,0.25,52,80.0
474,B-5,71.25,0.25,52,80.0
475,C#5,71.25,0.25,52,80.0
476,F4,71.5,0.25,48,80.0
477,C#3,71.75,0.25,48,80.0
478,C#6,72.0,0.25,85,80.0
479,E3,72.0,0.25,61,80.0
480,C#4,72.25,0.25,59,80.0
481,C#5,72.25,0.25,75,80.0
482,C6,72.25,0.25,75,80.0
483,G5,72.25,0.25,75,80.0
484,G4,72.5,0.25,55,80.0
485,B-5,72.75,0.25,80,80.0
486,E3,72.75,0.25,57,80.0
487,A5,73.0,0.25,86,80.0
488,F3,73.0,0.25,61,80.0
489,C4,73.25,0.25,58,80.0
490,F5,73.25,0.25,71,80.0
491,C5,73.25,0.25,71,80.0
492,C6,73.25,0.25,71,80.0
493,A4,73.5,0.25,57,80.0
494,F3,73.75,0.25,57,80.0
495,F#5,74.0,0.25,67,80.0
496,A2,74.0,0.25,48,80.0
497,F#3,74.25,0.25,44,80.0
498,F#4,74.25,0.25,59,80.0
499,F5,74.25,0.25,59,80.0
500,C5,74.25,0.25,59,80.0
501,E-4,74.5,0.25,44,80.0
502,E-5,74.75,0.25,64,80.0
503,A2,74.75,0.25,44,80.0
504,D5,75.0,0.25,69,80.0
505,B-2,75.0,0.25,48,80.0
506,F3,75.25,0.25,44,80.0
507,B-4,75.25,0.25,56,80.0
508,F5,75.25,0.25,56,80.0
509,C#5,75.25,0.25,56,80.0
510,F4,75.25,0.25,56,80.0
511,C#4,75.5,0.25,44,80.0
512,B-2,75.75,0.25,44,80.0
513,C#6,76.0,0.25,85,80.0
514,E3,76.0,0.25,61,80.0
515,C#4,76.25,0.25,59,80.0
516,C#5,76.25,0.25,75,80.0
517,C6,76.25,0.25,75,80.0
518,G5,76.25,0.25,75,80.0
519,G4,76.5,0.25,55,80.0
520,B-5,76.75,0.25,80,80.0
521,E3,76.75,0.25,57,80.0
522,A5,77.0,0.25,86,80.0
523,F3,77.0,0.25,61,80.0
524,C4,77.25,0.25,58,80.0
525,F5,77.25,0.25,71,80.0
526,C5,77.25,0.25,71,80.0
527,C6,77.25,0.25,71,80.0
528,A4,77.5,0.25,57,80.0
529,F3,77.75,0.25,57,80.0
530,B5,78.0,0.25,84,80.0
531,D3,78.0,0.25,61,80.0
532,B3,78.25,0.25,58,80.0
533,B4,78.25,0.25,69,80.0
534,B-5,78.25,0.25,69,80.0
535,F5,78.25,0.25,69,80.0
536,F4,78.5,0.25,55,80.0
537,G#5,78.75,0.25,80,80.0
538,D3,78.75,0.25,55,80.0
539,G5,79.0,0.25,86,80.0
540,E-3,79.0,0.25,61,80.0
541,B-3,79.25,0.25,57,80.0
542,F#5,79.25,0.25,67,80.0
543,B-4,79.25,0.25,67,80.0
544,B-5,79.25,0.25,67,80.0
545,F#4,79.5,0.25,55,80.0
546,E-3,79.75,0.25,55,80.0
547,F#5,80.0,1.5,83,80.0
548,E-2,80.0,0.25,69,80.0
549,A4,80.0,0.5,91,80.0
550,A5,80.0,0.5,91,80.0
551,B-2,80.25,0.25,59,80.0
552,B-3,80.5,0.25,71,80.0
553,B-4,80.5,0.5,72,80.0
554,B-5,80.5,0.5,72,80.0
555,B-2,80.75,0.25,59,80.0
556,F2,81.0,0.25,69,80.0
557,A4,81.0,0.5,82,80.0
558,A5,81.0,0.5,82,80.0
559,B-2,81.25,0.25,59,80.0
560,B-3,81.5,0.25,69,80.0
561,B-5,81.5,0.5,70,80.0
562,B-4,81.5,0.5,70,80.0
563,F5,81.5,0.5,70,80.0
564,B-2,81.75,0.25,59,80.0
565,F#2,82.0,0.25,69,80.0
566,A4,82.0,0.5,83,80.0
567,F5,82.0,0.5,83,80.0
568,A5,82.0,0.5,83,80.0
569,B-2,82.25,0.25,59,80.0
570,E-5,82.5,1.0,67,80.0
571,B-3,82.5,0.25,68,80.0
572,B-4,82.5,0.5,74,80.0
573,B-5,82.5,0.5,74,80.0
574,B-2,82.75,0.25,59,80.0
575,G2,83.0,0.25,68,80.0
576,A4,83.0,0.5,82,80.0
577,A5,83.0,0.5,82,80.0
578,E-3,83.25,0.25,59,80.0
579,E-4,83.5,0.25,68,80.0
580,B-4,83.5,0.5,71,80.0
581,C#5,83.5,0.5,71,80.0
582,B-5,83.5,0.5,71,80.0
583,E-3,83.75,0.25,59,80.0
584,F#4,84.0,0.25,88,80.0
585,C#4,84.0,0.25,88,80.0
586,C#5,84.0,0.25,88,80.0
587,G#2,84.0,0.25,59,80.0
588,E-3,84.0,0.25,59,80.0
589,B-3,84.0,0.25,59,80.0
590,C4,84.5,0.25,75,80.0
591,F#4,84.5,0.25,75,80.0
592,C5,84.5,0.25,75,80.0
593,G#2,84.5,0.25,47,80.0
594,E-3,84.5,0.25,47,80.0
595,G#3,84.5,0.25,47,80.0
596,B-4,85.5,0.5,59,80.0
597,C#4,85.5,0.5,59,80.0
598,F#4,85.5,0.5,59,80.0
599,G#3,85.5,0.5,59,80.0
600,B-1,85.5,0.5,42,80.0
601,B-2,85.5,0.5,42,80.0
602,G#3,86.0,1.0,60,80.0
603,B-4,86.0,1.0,60,80.0
604,D4,86.0,1.0,60,80.0
605,F#4,86.0,1.0,60,80.0
606,B1,86.0,1.0,45,80.0
607,B2,86.0,1.0,45,80.0
608,G#4,87.0,0.75,58,80.0
609,E-4,87.0,0.75,58,80.0
610,F#4,87.0,0.75,58,80.0
611,G#3,87.0,0.75,58,80.0
612,C2,87.0,0.75,42,80.0
613,C3,87.0,0.75,42,80.0
614,F3,87.75,0.25,49,80.0
615,C#2,88.0,2.0,31,80.0
616,C#3,88.0,2.0,37,80.0
617,F3,88.0,2.0,44,80.0
618,C#4,88.0,2.0,44,80.0
619,G#4,88.0,2.0,44,80.0
620,C#3,90.0,1.0,37,80.0
621,G#3,90.0,1.0,44,80.0
622,C#4,90.0,1.0,44,80.0
623,F4,90.0,1.0,44,80.0
624,F#2,91.0,1.0,39,80.0
625,F#4,91.0,1.0,39,80.0
626,B-3,91.0,1.0,39,80.0
627,E-4,91.0,1.0,39,80.0
628,F4,92.0,2.0,46,80.0
629,G#2,92.0,2.0,36,80.0
630,F#3,92.0,2.0,34,80.0
631,C4,92.0,2.0,34,80.0
632,G#2,94.0,0.5,36,80.0
633,A2,94.5,0.5,37,80.0
634,B-2,95.0,0.5,39,80.0
635,G#2,95.5,0.5,37,80.0
636,E-4,96.0,2.0,41,80.0
637,C#2,96.0,2.0,33,80.0
638,F#3,96.0,2.0,34,80.0
639,C4,96.0,2.0,34,80.0
640,F3,97.75,0.25,41,80.0
641,C#4,97.875,0.125,41,80.0
642,G#4,98.0,1.0,49,80.0
643,F3,98.0,1.0,41,80.0
644,C#4,98.0,2.0,41,80.0
645,C#3,98.0,1.0,39,80.0
646,F#2,99.0,1.0,39,80.0
647,G#3,99.0,1.0,45,80.0
648,F4,99.0,1.0,45,80.0
649,C#4,100.0,1.0,41,80.0
650,G#2,100.0,2.0,29,80.0
651,F#4,100.0,0.5,45,80.0
652,B-3,100.0,0.5,45,80.0
653,G#3,100.5,0.5,43,80.0
654,F4,100.5,0.5,43,80.0
655,E-4,101.0,1.0,41,80.0
656,C4,101.0,0.5,40,80.0
657,G#4,101.0,0.5,40,80.0
658,B-3,101.5,0.5,38,80.0
659,F#4,101.5,0.5,38,80.0
660,F4,102.0,2.0,45,80.0
661,G#2,102.0,0.5,29,80.0
662,F#3,102.0,2.0,32,80.0
663,C4,102.0,2.0,32,80.0
664,A2,102.5,0.5,37,80.0
665,C3,103.0,333/1000,35,80.0
666,B-2,103.333,333/1000,34,80.0
667,G#2,103.667,333/1000,34,80.0
668,C#2,104.0,1.0,41,80.0
669,G3,105.0,1.0,44,80.0
670,E-4,106.0,2.0,41,80.0
671,G#2,106.0,2.0,37,80.0
672,F#3,106.0,1.0,44,80.0
673,F#3,106.0,2.0,32,80.0
674,C4,106.0,2.0,32,80.0
675,B-3,107.0,0.75,44,80.0
676,G#3,107.75,0.25,49,80.0
677,C#4,108.0,2.0,40,80.0
678,G#4,108.0,1.0,46,80.0
679,F3,108.0,1.0,46,80.0
680,C#3,108.0,1.0,40,80.0
681,G#3,108.0,1.0,40,80.0
682,G3,109.0,1.0,44,80.0
683,E4,109.0,1.0,48,80.0
684,B-4,109.0,1.0,48,80.0
685,G#2,110.0,1.0,37,80.0
686,F#3,110.0,2.0,44,80.0
687,E-4,110.0,1.0,48,80.0
688,C5,110.0,1.0,48,80.0
689,C#5,111.0,0.75,58,80.0
690,F#4,111.0,1.0,49,80.0
691,F#2,111.0,0.875,37,80.0
692,C5,111.75,0.25,56,80.0
693,E-5,111.75,0.25,56,80.0
694,F2,111.875,0.125,41,80.0
695,A3,112.0,1.0,49,80.0
696,F2,112.0,1.0,41,80.0
697,F4,112.0,1.0,50,80.0
698,C#5,112.0,1.0,50,80.0
699,F5,112.0,1.0,50,80.0
700,E4,113.0,1.0,46,80.0
701,C#4,113.0,1.0,46,80.0
702,B-4,113.0,1.0,46,80.0
703,A1,113.0,1.0,44,80.0
704,A2,113.0,1.0,44,80.0
705,E-4,114.0,2.0,44,80.0
706,C4,114.0,0.875,48,80.0
707,C5,114.0,0.875,48,80.0
708,B-1,114.0,1.0,45,80.0
709,B-2,114.0,1.0,45,80.0
710,B-3,114.875,1.125,56,80.0
711,C#5,115.0,0.75,58,80.0
712,C2,115.0,0.75,45,80.0
713,C3,115.0,0.75,45,80.0
714,E-5,115.75,0.25,60,80.0
715,C#2,115.75,0.25,41,80.0
716,C#3,115.75,0.25,41,80.0
717,C5,116.0,2.0,53,80.0
718,F4,116.0,1.0,58,80.0
719,F5,116.0,1.0,58,80.0
720,D2,116.0,1.0,45,80.0
721,D3,116.0,1.0,45,80.0
722,E-5,117.0,1.0,60,80.0
723,F4,117.0,1.0,53,80.0
724,E-2,117.0,0.75,45,80.0
725,E-3,117.0,0.75,45,80.0
726,F2,117.75,0.25,41,80.0
727,F3,117.75,0.25,41,80.0
728,F4,118.0,1.0,53,80.0
729,C#4,118.0,1.0,60,80.0
730,B-4,118.0,1.0,60,80.0
731,C#5,118.0,1.0,60,80.0
732,F#2,118.0,1.0,45,80.0
733,F#3,118.0,1.0,45,80.0
734,G#2,119.0,1.0,45,80.0
735,E4,119.0,0.75,56,80.0
736,G#4,119.0,0.75,56,80.0
737,C5,119.0,0.75,56,80.0
738,F4,119.75,0.25,57,80.0
739,B-4,119.75,0.25,57,80.0
740,C#2,120.0,333/1000,39,80.0
741,B3,120.0,1.0,56,80.0
742,F4,120.0,1.0,56,80.0
743,G#4,120.0,1.0,56,80.0
744,G3,120.333,333/1000,33,80.0
745,G#3,120.667,333/1000,31,80.0
746,B-3,121.0,333/1000,37,80.0
747,E-4,121.0,0.75,54,80.0
748,F#3,121.0,0.75,54,80.0
749,B-3,121.0,0.75,54,80.0
750,F#4,121.0,0.75,54,80.0
751,G#3,121.333,333/1000,31,80.0
752,G#2,121.667,333/1000,31,80.0
753,G#3,121.75,0.25,53,80.0
754,C#4,121.75,0.25,53,80.0
755,F4,121.75,0.25,53,80.0
756,E-4,122.0,1.5,59,80.0
757,C#3,122.0,333/1000,39,80.0
758,B-3,122.0,1.0,54,80.0
759,C#4,122.0,1.0,54,80.0
760,G3,122.333,333/1000,35,80.0
761,G#3,122.667,333/1000,35,80.0
762,B-3,123.0,333/1000,37,80.0
763,F#3,123.0,0.75,50,80.0
764,C4,123.0,0.75,50,80.0
765,G#3,123.333,333/1000,33,80.0
766,E4,123.5,0.25,60,80.0
767,G#2,123.667,333/1000,33,80.0
768,F4,123.75,0.25,55,80.0
769,C#5,123.875,0.125,60,80.0
770,G#5,124.0,2.0,72,80.0
771,F4,124.0,2.0,55,80.0
772,C#5,124.0,2.0,60,80.0
773,E-3,124.0,333/1000,39,80.0
774,G3,124.333,333/1000,35,80.0
775,G#3,124.667,333/1000,35,80.0
776,B-3,125.0,333/1000,37,80.0
777,G#3,125.333,333/1000,33,80.0
778,G#2,125.667,333/1000,33,80.0
779,F#3,126.0,333/1000,39,80.0
780,G#4,126.0,1.0,53,80.0
781,C#5,126.0,1.0,53,80.0
782,F5,126.0,1.0,53,80.0
783,G3,126.333,333/1000,35,80.0
784,G#3,126.667,333/1000,35,80.0
785,B-3,127.0,333/1000,37,80.0
786,F4,127.0,0.5,36,80.0
787,G#4,127.0,0.5,36,80.0
788,G#3,127.333,333/1000,33,80.0
789,B-4,127.5,0.5,46,80.0
790,E-5,127.5,0.5,46,80.0
791,F#5,127.5,0.5,46,80.0
792,G#2,127.667,333/1000,33,80.0
793,F5,128.0,1.5,65,80.0
794,C#3,128.0,0.25,39,80.0
795,F#4,128.0,2.0,42,80.0
796,C5,128.0,2.0,42,80.0
797,G3,128.5,0.25,34,80.0
798,G#3,128.75,0.25,33,80.0
799,B-3,129.0,0.25,37,80.0
800,G#3,129.25,9/40,31,80.0
801,E-5,129.5,0.5,55,80.0
802,G#3,129.5,0.25,37,80.0
803,G#2,129.75,0.25,37,80.0
804,B-4,130.0,0.5,58,80.0
805,C#3,130.0,0.25,39,80.0
806,G#4,130.5,0.5,52,80.0
807,G3,130.5,0.25,35,80.0
808,G#3,130.75,0.25,35,80.0
809,C#4,131.0,0.5,61,80.0
810,B-3,131.0,0.25,37,80.0
811,G#3,131.25,9/40,33,80.0
812,E-4,131.5,0.25,55,80.0
813,G#3,131.5,0.25,37,80.0
814,F4,131.75,0.25,62,80.0
815,G#2,131.75,0.25,31,80.0
816,C#5,132.0,2.0,57,80.0
817,E-3,132.0,0.25,39,80.0
818,F4,132.0,1.0,62,80.0
819,G#5,132.0,1.0,62,80.0
820,G3,132.5,0.25,35,80.0
821,G#3,132.75,0.25,35,80.0
822,B-3,133.0,0.25,37,80.0
823,G#4,133.0,1.0,56,80.0
824,F5,133.0,1.0,56,80.0
825,G#3,133.25,9/40,33,80.0
826,G#3,133.5,0.25,37,80.0
827,G#2,133.75,0.25,33,80.0
828,C#5,134.0,1.0,57,80.0
829,F#3,134.0,0.5,39,80.0
830,F#5,134.0,0.5,60,80.0
831,B-4,134.0,0.5,60,80.0
832,G3,134.5,0.25,35,80.0
833,G#4,134.5,0.5,50,80.0
834,F5,134.5,0.5,50,80.0
835,G#3,134.75,0.25,35,80.0
836,B-3,135.0,0.25,39,80.0
837,G#4,135.0,333/1000,52,80.0
838,F5,135.0,333/1000,52,80.0
839,G#3,135.25,9/40,35,80.0
840,C5,135.333,333/1000,50,80.0
841,G#5,135.333,333/1000,50,80.0
842,G#3,135.5,0.25,39,80.0
843,B-4,135.667,333/1000,50,80.0
844,F#5,135.667,333/1000,50,80.0
845,G#2,135.75,0.25,35,80.0
846,F5,136.0,1.5,61,80.0
847,C#3,136.0,0.25,44,80.0
848,F#4,136.0,2.0,35,80.0
849,C5,136.0,2.0,35,80.0
850,G#3,136.25,0.25,39,80.0
851,B-3,136.5,0.25,39,80.0
852,G#3,136.75,0.25,39,80.0
853,F4,137.0,0.25,44,80.0
854,G#3,137.25,0.25,40,80.0
855,E-5,137.5,0.5,60,80.0
856,B-3,137.5,0.25,40,80.0
857,G#3,137.75,0.25,41,80.0
858,B-4,138.0,333/1000,60,80.0
859,G#2,138.0,0.25,45,80.0
860,G#3,138.25,0.25,40,80.0
861,G#4,138.333,333/1000,51,80.0
862,B-3,138.5,0.25,41,80.0
863,B-4,138.667,333/1000,51,80.0
864,G#3,138.75,0.25,41,80.0
865,G#4,139.0,333/1000,58,80.0
866,F#4,139.0,0.25,47,80.0
867,G#3,139.25,0.25,44,80.0
868,C#4,139.333,333/1000,53,80.0
869,B-3,139.5,0.25,44,80.0
870,E-4,139.667,333/1000,53,80.0
871,G#3,139.75,0.25,44,80.0
872,G#4,140.0,1.0,59,80.0
873,C#3,140.0,0.25,48,80.0
874,C#5,140.0,2.0,66,80.0
875,G#5,140.0,2.0,66,80.0
876,G#3,140.25,0.25,42,80.0
877,B-3,140.5,0.25,42,80.0
878,G#3,140.75,0.25,42,80.0
879,F4,141.0,0.25,49,80.0
880,B-4,141.0,1.0,62,80.0
881,B-5,141.0,1.0,62,80.0
882,G#3,141.25,0.25,46,80.0
883,B-3,141.5,0.25,46,80.0
884,G#3,141.75,0.25,46,80.0
885,G#2,142.0,0.25,50,80.0
886,C6,142.0,1.0,67,80.0
887,C5,142.0,1.0,67,80.0
888,G#5,142.0,2.0,61,80.0
889,F#5,142.0,2.0,61,80.0
890,G#3,142.25,0.25,46,80.0
891,B-3,142.5,0.25,46,80.0
892,G#3,142.75,0.25,46,80.0
893,F#4,143.0,0.25,52,80.0
894,C#5,143.0,0.75,72,80.0
895,C#6,143.0,0.75,72,80.0
896,G#3,143.25,0.25,49,80.0
897,B-3,143.5,0.25,49,80.0
898,G#3,143.75,0.25,49,80.0
899,E-5,143.75,0.25,72,80.0
900,E-6,143.75,0.25,72,80.0
901,F6,144.0,1.0,78,80.0
902,A2,144.0,0.25,57,80.0
903,G#5,144.0,2.0,66,80.0
904,F5,144.0,2.0,66,80.0
905,E3,144.25,0.25,51,80.0
906,F3,144.5,0.25,51,80.0
907,C4,144.75,0.25,51,80.0
908,A3,145.0,0.25,58,80.0
909,B-5,145.0,1.0,67,80.0
910,B-4,145.0,1.0,67,80.0
911,E4,145.25,0.25,53,80.0
912,F4,145.5,0.25,53,80.0
913,C5,145.75,0.25,53,80.0
914,B-2,146.0,0.25,59,80.0
915,F#5,146.0,1.0,69,80.0
916,G#5,146.0,1.0,69,80.0
917,C5,146.0,1.0,69,80.0
918,C6,146.0,1.0,69,80.0
919,E3,146.25,0.25,52,80.0
920,F3,146.5,0.25,52,80.0
921,C#4,146.75,0.25,53,80.0
922,B-3,147.0,0.25,60,80.0
923,C#5,147.0,0.75,72,80.0
924,C#6,147.0,0.75,72,80.0
925,E4,147.25,0.25,55,80.0
926,F4,147.5,0.25,55,80.0
927,C#5,147.75,0.25,56,80.0
928,E-5,147.75,0.25,70,80.0
929,E-6,147.75,0.25,70,80.0
930,C3,148.0,0.25,61,80.0
931,C6,148.0,2.0,70,80.0
932,E-6,148.0,2.0,70,80.0
933,F5,148.0,1.0,76,80.0
934,F6,148.0,1.0,76,80.0
935,G3,148.25,0.25,55,80.0
936,G#3,148.5,0.25,55,80.0
937,E-4,148.75,0.25,55,80.0
938,C4,149.0,0.25,62,80.0
939,F#5,149.0,1.0,72,80.0
940,F#6,149.0,1.0,72,80.0
941,G4,149.25,0.25,57,80.0
942,G#4,149.5,0.25,57,80.0
943,E-5,149.75,0.25,57,80.0
944,D3,150.0,0.25,62,80.0
945,A3,150.25,0.25,56,80.0
946,B-3,150.5,0.25,57,80.0
947,B-5,150.5,2.0,74,80.0
948,C#6,150.5,2.0,74,80.0
949,F#5,150.5,0.5,72,80.0
950,F#6,150.5,0.5,72,80.0
951,F4,150.75,0.25,57,80.0
952,D4,151.0,0.25,63,80.0
953,F6,151.0,0.5,70,80.0
954,F5,151.0,0.5,70,80.0
955,A4,151.25,0.25,58,80.0
956,B-4,151.5,0.25,59,80.0
957,E5,151.5,0.5,69,80.0
958,E6,151.5,0.5,69,80.0
959,E-2,152.0,0.25,59,80.0
960,F5,152.0,0.5,69,80.0
961,F6,152.0,0.5,69,80.0
962,B-2,152.25,0.25,52,80.0
963,E-3,152.5,0.25,52,80.0
964,G#5,152.5,1.0,78,80.0
965,G#6,152.5,1.0,78,80.0
966,F#6,152.5,2.0,64,80.0
967,E-6,152.5,2.0,64,80.0
968,B-3,152.75,0.25,52,80.0
969,F2,153.0,0.25,59,80.0
970,B-2,153.25,0.25,52,80.0
971,D3,153.5,0.25,52,80.0
972,B-5,153.5,1.0,77,80.0
973,B-6,153.5,1.0,77,80.0
974,G#3,153.75,0.25,52,80.0
975,F#2,154.0,0.25,62,80.0
976,B-2,154.25,0.25,52,80.0
977,E-3,154.5,0.25,52,80.0
978,B-3,154.75,0.25,52,80.0
979,F6,155.0,1.0,81,80.0
980,G2,155.0,0.25,61,80.0
981,B-5,155.0,0.5,77,80.0
982,B-6,155.0,0.5,77,80.0
983,C#3,155.25,0.25,52,80.0
984,E3,155.5,0.25,52,80.0
985,G#6,155.5,0.5,74,80.0
986,G#5,155.5,0.5,74,80.0
987,B-3,155.75,0.25,52,80.0
988,B-5,156.0,1.0,62,80.0
989,G#2,156.0,0.25,59,80.0
990,F#5,156.0,0.75,77,80.0
991,F#6,156.0,0.75,77,80.0
992,C#3,156.25,0.25,52,80.0
993,F3,156.5,0.25,52,80.0
994,C#4,156.75,0.25,52,80.0
995,F6,156.75,0.25,72,80.0
996,F5,156.75,0.25,72,80.0
997,B-5,157.0,1.0,73,80.0
998,B-2,157.0,0.25,58,80.0
999,G#5,157.0,0.5,80,80.0
1000,G#6,157.0,0.5,80,80.0
1001,C#3,157.25,0.25,52,80.0
1002,F#3,157.5,0.25,52,80.0
1003,F#5,157.5,0.5,66,80.0
1004,F#6,157.5,0.5,66,80.0
1005,C#4,157.75,0.25,52,80.0
1006,B-5,158.0,1.0,54,80.0
1007,G#2,158.0,0.25,52,80.0
1008,F6,158.0,0.5,64,80.0
1009,F5,158.0,0.5,64,80.0
1010,E-3,158.25,0.25,47,80.0
1011,G#3,158.5,0.25,47,80.0
1012,D5,158.5,0.5,66,80.0
1013,D6,158.5,0.5,66,80.0
1014,C#4,158.75,0.25,47,80.0
1015,B-5,159.0,1.0,54,80.0
1016,F#2,159.0,0.25,55,80.0
1017,F6,159.0,0.5,75,80.0
1018,F5,159.0,0.5,75,80.0
1019,C3,159.25,0.25,47,80.0
1020,E-3,159.5,0.25,47,80.0
1021,E-6,159.5,0.5,66,80.0
1022,E-5,159.5,0.5,66,80.0
1023,G#3,159.75,0.25,47,80.0
1024,E5,160.0,1.0,55,80.0
1025,F2,160.0,0.25,55,80.0
1026,B-5,160.0,0.5,66,80.0
1027,B-4,160.0,0.5,66,80.0
1028,G#2,160.25,0.25,47,80.0
1029,C#3,160.5,0.25,47,80.0
1030,C#6,160.5,0.5,62,80.0
1031,C#5,160.5,0.5,62,80.0
1032,G#3,160.75,0.25,47,80.0
1033,F5,161.0,1.0,61,80.0
1034,B-2,161.0,0.25,56,80.0
1035,B-4,161.0,0.5,73,80.0
1036,B-5,161.0,0.5,73,80.0
1037,C#3,161.25,0.25,47,80.0
1038,F#3,161.5,0.25,47,80.0
1039,G#5,161.5,0.5,67,80.0
1040,G#4,161.5,0.5,67,80.0
1041,C#4,161.75,0.25,47,80.0
1042,C#5,162.0,1.0,73,80.0
1043,A2,162.0,0.25,55,80.0
1044,F#4,162.0,0.5,61,80.0
1045,C#4,162.0,0.5,61,80.0
1046,C#3,162.25,0.25,47,80.0
1047,F#3,162.5,0.25,47,80.0
1048,F#4,162.5,0.5,68,80.0
1049,F#5,162.5,0.5,68,80.0
1050,C#4,162.75,0.25,47,80.0
1051,G#2,163.0,0.25,51,80.0
1052,C#4,163.0,1.0,70,80.0
1053,E-5,163.0,1.0,70,80.0
1054,F#4,163.0,1.0,70,80.0
1055,C#5,163.0,1.0,70,80.0
1056,E-3,163.25,0.25,47,80.0
1057,C4,163.5,0.25,47,80.0
1058,F#2,163.75,0.25,47,80.0
1059,C5,164.0,1.0,51,80.0
1060,F2,164.0,0.25,56,80.0
1061,F4,164.0,0.5,69,80.0
1062,F5,164.0,0.5,69,80.0
1063,G#2,164.25,0.25,47,80.0
1064,C#3,164.5,0.25,46,80.0
1065,F#4,164.5,0.5,65,80.0
1066,F#5,164.5,0.5,65,80.0
1067,G#3,164.75,0.25,46,80.0
1068,C#5,165.0,1.0,47,80.0
1069,B-2,165.0,0.25,53,80.0
1070,B-4,165.0,0.5,70,80.0
1071,B-5,165.0,0.5,70,80.0
1072,C#3,165.25,0.25,45,80.0
1073,F#3,165.5,0.25,44,80.0
1074,A4,165.5,0.5,60,80.0
1075,A5,165.5,0.5,60,80.0
1076,C#4,165.75,0.25,44,80.0
1077,G#2,166.0,0.25,50,80.0
1078,G#5,166.0,333/1000,65,80.0
1079,C#5,166.0,333/1000,65,80.0
1080,G#4,166.0,333/1000,65,80.0
1081,E-3,166.25,0.25,42,80.0
1082,C#5,166.333,667/1000,70,80.0
1083,C#4,166.333,333/1000,60,80.0
1084,G#3,166.5,0.25,42,80.0
1085,F#4,166.667,333/1000,65,80.0
1086,F#5,166.667,333/1000,65,80.0
1087,C#4,166.75,0.25,41,80.0
1088,G#2,167.0,0.25,49,80.0
1089,C#5,167.0,1.0,66,80.0
1090,F#4,167.0,1.0,66,80.0
1091,E-5,167.0,0.5,73,80.0
1092,E-4,167.0,0.5,73,80.0
1093,E-3,167.25,0.25,41,80.0
1094,G#3,167.5,0.25,40,80.0
1095,F4,167.5,0.25,62,80.0
1096,F5,167.5,0.25,62,80.0
1097,C4,167.75,0.25,40,80.0
1098,E-4,167.75,0.25,58,80.0
1099,E-5,167.75,0.25,58,80.0
1100,C5,168.0,1.0,61,80.0
1101,D4,168.0,0.25,67,80.0
1102,D5,168.0,0.25,67,80.0
1103,C#3,168.0,333/1000,59,80.0
1104,G#3,168.0,333/1000,59,80.0
1105,C#4,168.0,333/1000,59,80.0
1106,E-4,168.25,0.25,62,80.0
1107,E-5,168.25,0.25,62,80.0
1108,E-3,168.333,167/1000,45,80.0
1109,G3,168.333,167/1000,45,80.0
1110,C#4,168.333,167/1000,45,80.0
1111,F4,168.5,0.25,67,80.0
1112,F5,168.5,0.25,67,80.0
1113,E-3,168.667,167/1000,45,80.0
1114,G3,168.667,167/1000,45,80.0
1115,C#4,168.667,167/1000,45,80.0
1116,F#4,168.75,0.25,64,80.0
1117,F#5,168.75,0.25,64,80.0
1118,C#5,169.0,667/1000,67,80.0
1119,G4,169.0,333/1000,76,80.0
1120,G5,169.0,333/1000,76,80.0
1121,E-3,169.0,333/1000,49,80.0
1122,G3,169.0,333/1000,49,80.0
1123,C#4,169.0,333/1000,49,80.0
1124,G#5,169.333,333/1000,72,80.0
1125,G#4,169.333,333/1000,72,80.0
1126,G#3,169.333,167/1000,46,80.0
1127,C4,169.333,167/1000,46,80.0
1128,F5,169.667,333/1000,73,80.0
1129,F6,169.667,333/1000,73,80.0
1130,G#3,169.667,167/1000,45,80.0
1131,G#4,169.667,167/1000,45,80.0
1132,E-4,169.667,167/1000,45,80.0
1133,F#5,170.0,667/1000,70,80.0
1134,E-5,170.0,333/1000,76,80.0
1135,E-6,170.0,333/1000,76,80.0
1136,G#3,170.0,333/1000,49,80.0
1137,E-4,170.0,333/1000,49,80.0
1138,G#4,170.0,333/1000,49,80.0
1139,C#5,170.333,333/1000,68,80.0
1140,C#6,170.333,333/1000,68,80.0
1141,C#4,170.333,167/1000,46,80.0
1142,G#4,170.333,167/1000,46,80.0
1143,C#5,170.667,333/1000,71,80.0
1144,F#5,170.667,333/1000,71,80.0
1145,F#4,170.667,333/1000,71,80.0
1146,G4,170.667,167/1000,48,80.0
1147,E-4,170.667,167/1000,48,80.0
1148,C#5,170.667,167/1000,48,80.0
1149,E-5,171.0,1.875,82,80.0
1150,G#4,171.0,1.5,69,80.0
1151,C#5,171.0,1.0,69,80.0
1152,E-4,171.0,1.0,69,80.0
1153,E-4,171.0,333/1000,53,80.0
1154,G4,171.0,333/1000,53,80.0
1155,C#5,171.0,333/1000,53,80.0
1156,G#4,171.333,167/1000,46,80.0
1157,C5,171.333,167/1000,46,80.0
1158,G#4,171.667,167/1000,45,80.0
1159,E-5,171.667,167/1000,45,80.0
1160,G#5,171.667,167/1000,45,80.0
1161,F#4,172.0,0.5,61,80.0
1162,C5,172.0,0.5,61,80.0
1163,G#4,172.0,333/1000,49,80.0
1164,E-5,172.0,333/1000,49,80.0
1165,G#5,172.0,333/1000,49,80.0
1166,C#5,172.333,167/1000,46,80.0
1167,G#5,172.333,167/1000,46,80.0
1168,E-4,172.667,167/1000,47,80.0
1169,C#5,172.667,167/1000,47,80.0
1170,G4,172.667,167/1000,47,80.0
1171,C#5,172.875,0.125,73,80.0
1172,F4,173.0,333/1000,78,80.0
1173,C#5,173.0,333/1000,78,80.0
1174,E-4,173.0,333/1000,49,80.0
1175,G4,173.0,333/1000,49,80.0
1176,C#5,173.0,333/1000,49,80.0
1177,E-4,173.333,167/1000,68,80.0
1178,B-4,173.333,167/1000,68,80.0
1179,G#4,173.333,167/1000,48,80.0
1180,C5,173.333,167/1000,48,80.0
1181,E-4,173.667,167/1000,68,80.0
1182,B-4,173.667,167/1000,68,80.0
1183,G#3,173.667,167/1000,47,80.0
1184,E-4,173.667,167/1000,47,80.0
1185,G#4,173.667,167/1000,47,80.0
1186,E-4,174.0,333/1000,68,80.0
1187,B-4,174.0,333/1000,68,80.0
1188,G#3,174.0,333/1000,49,80.0
1189,E-4,174.0,333/1000,49,80.0
1190,G#4,174.0,333/1000,49,80.0
1191,G#4,174.333,167/1000,71,80.0
1192,C#4,174.333,167/1000,48,80.0
1193,G#4,174.333,167/1000,48,80.0
1194,C5,174.667,167/1000,68,80.0
1195,F#5,174.667,167/1000,68,80.0
1196,G3,174.667,167/1000,47,80.0
1197,E-3,174.667,167/1000,47,80.0
1198,C#4,174.667,167/1000,47,80.0
1199,C5,175.0,333/1000,69,80.0
1200,F#5,175.0,333/1000,69,80.0
1201,E-3,175.0,333/1000,49,80.0
1202,G3,175.0,333/1000,49,80.0
1203,C#4,175.0,333/1000,49,80.0
1204,C#5,175.333,167/1000,68,80.0
1205,F5,175.333,167/1000,68,80.0
1206,G#3,175.333,167/1000,48,80.0
1207,C4,175.333,167/1000,48,80.0
1208,E-5,175.667,167/1000,68,80.0
1209,B-5,175.667,167/1000,68,80.0
1210,E-3,175.667,167/1000,47,80.0
1211,G#2,175.667,167/1000,47,80.0
1212,G#3,175.667,167/1000,47,80.0
1213,E-5,176.0,333/1000,71,80.0
1214,B-5,176.0,333/1000,71,80.0
1215,G#2,176.0,333/1000,49,80.0
1216,E-3,176.0,333/1000,49,80.0
1217,G#3,176.0,333/1000,49,80.0
1218,G#5,176.333,167/1000,73,80.0
1219,C#3,176.333,167/1000,43,80.0
1220,G#3,176.333,167/1000,43,80.0
1221,F#6,176.667,167/1000,68,80.0
1222,C6,176.667,167/1000,68,80.0
1223,G3,176.667,167/1000,38,80.0
1224,C#4,176.667,167/1000,38,80.0
1225,C6,177.0,333/1000,71,80.0
1226,F#6,177.0,333/1000,71,80.0
1227,G3,177.0,333/1000,40,80.0
1228,C#4,177.0,333/1000,40,80.0
1229,C#6,177.333,167/1000,68,80.0
1230,F6,177.333,167/1000,68,80.0
1231,G#3,177.333,167/1000,38,80.0
1232,C4,177.333,167/1000,38,80.0
1233,B-5,177.667,167/1000,68,80.0
1234,E-5,177.667,167/1000,68,80.0
1235,G#3,177.667,167/1000,31,80.0
1236,G#4,177.667,167/1000,31,80.0
1237,E-4,177.667,167/1000,31,80.0
1238,E-5,178.0,333/1000,68,80.0
1239,B-5,178.0,333/1000,68,80.0
1240,G#3,178.0,333/1000,35,80.0
1241,E-4,178.0,333/1000,35,80.0
1242,G#4,178.0,333/1000,35,80.0
1243,G#5,178.333,167/1000,72,80.0
1244,C#4,178.333,167/1000,32,80.0
1245,G#4,178.333,167/1000,32,80.0
1246,C5,178.667,167/1000,68,80.0
1247,F#5,178.667,167/1000,68,80.0
1248,G4,178.667,167/1000,36,80.0
1249,C#5,178.667,167/1000,36,80.0
1250,F#5,179.0,333/1000,68,80.0
1251,C5,179.0,333/1000,68,80.0
1252,G4,179.0,333/1000,39,80.0
1253,C#5,179.0,333/1000,39,80.0
1254,C#5,179.333,167/1000,66,80.0
1255,F5,179.333,167/1000,66,80.0
1256,G#4,179.333,167/1000,32,80.0
1257,C5,179.333,167/1000,32,80.0
1258,B-4,179.667,167/1000,68,80.0
1259,E-4,179.667,167/1000,68,80.0
1260,G#4,179.667,167/1000,28,80.0
1261,E-5,179.667,167/1000,28,80.0
1262,G#5,179.667,167/1000,28,80.0
1263,E-4,180.0,333/1000,71,80.0
1264,B-4,180.0,333/1000,71,80.0
1265,G#4,180.0,333/1000,31,80.0
1266,E-5,180.0,333/1000,31,80.0
1267,G#5,180.0,333/1000,31,80.0
1268,G#4,180.333,167/1000,74,80.0
1269,C#5,180.333,167/1000,28,80.0
1270,G#5,180.333,167/1000,28,80.0
1271,C4,180.667,167/1000,68,80.0
1272,F#4,180.667,167/1000,68,80.0
1273,C#5,180.667,167/1000,36,80.0
1274,G4,180.667,167/1000,36,80.0
1275,C4,181.0,333/1000,71,80.0
1276,F#4,181.0,333/1000,71,80.0
1277,G4,181.0,333/1000,38,80.0
1278,C#5,181.0,333/1000,38,80.0
1279,F4,181.333,167/1000,62,80.0
1280,C#4,181.333,167/1000,62,80.0
1281,G#4,181.333,167/1000,36,80.0
1282,C5,181.333,167/1000,36,80.0
1283,E4,181.667,167/1000,54,80.0
1284,A4,181.667,167/1000,54,80.0
1285,G#3,181.667,167/1000,35,80.0
1286,E-4,181.667,167/1000,35,80.0
1287,G#4,181.667,167/1000,35,80.0
1288,E4,182.0,333/1000,56,80.0
1289,A4,182.0,333/1000,56,80.0
1290,G#3,182.0,333/1000,37,80.0
1291,E-4,182.0,333/1000,37,80.0
1292,G#4,182.0,333/1000,37,80.0
1293,E-4,182.333,167/1000,54,80.0
1294,G#4,182.333,167/1000,54,80.0
1295,C#4,182.333,167/1000,36,80.0
1296,G#4,182.333,167/1000,36,80.0
1297,C5,182.667,167/1000,48,80.0
1298,F#5,182.667,167/1000,48,80.0
1299,G3,182.667,167/1000,36,80.0
1300,C#4,182.667,167/1000,36,80.0
1301,C5,183.0,333/1000,50,80.0
1302,F#5,183.0,333/1000,50,80.0
1303,G3,183.0,333/1000,38,80.0
1304,C#4,183.0,333/1000,38,80.0
1305,C#5,183.333,167/1000,48,80.0
1306,F5,183.333,167/1000,48,80.0
1307,G#3,183.333,167/1000,36,80.0
1308,C4,183.333,167/1000,36,80.0
1309,A5,183.667,167/1000,48,80.0
1310,E5,183.667,167/1000,48,80.0
1311,G#2,183.667,167/1000,45,80.0
1312,G#3,183.667,167/1000,45,80.0
1313,E5,184.0,333/1000,50,80.0
1314,A5,184.0,333/1000,50,80.0
1315,G#2,184.0,333/1000,43,80.0
1316,G#3,184.0,333/1000,43,80.0
1317,E-5,184.333,167/1000,46,80.0
1318,G#5,184.333,167/1000,46,80.0
1319,G2,184.333,167/1000,36,80.0
1320,G3,184.333,167/1000,36,80.0
1321,C6,184.667,167/1000,42,80.0
1322,F#6,184.667,167/1000,42,80.0
1323,G3,184.667,167/1000,42,80.0
1324,A3,184.667,167/1000,42,80.0
1325,C6,185.0,333/1000,44,80.0
1326,F#6,185.0,333/1000,44,80.0
1327,G3,185.0,333/1000,43,80.0
1328,A3,185.0,333/1000,43,80.0
1329,C#6,185.333,167/1000,42,80.0
1330,F6,185.333,167/1000,42,80.0
1331,G3,185.333,167/1000,35,80.0
1332,B3,185.333,167/1000,35,80.0
1333,E5,185.667,167/1000,51,80.0
1334,A5,185.667,167/1000,51,80.0
1335,G3,185.667,167/1000,40,80.0
1336,D4,185.667,167/1000,40,80.0
1337,E5,186.0,333/1000,54,80.0
1338,A5,186.0,333/1000,54,80.0
1339,G3,186.0,333/1000,43,80.0
1340,D4,186.0,333/1000,43,80.0
1341,E-5,186.333,167/1000,50,80.0
1342,G#5,186.333,167/1000,50,80.0
1343,C4,186.333,167/1000,36,80.0
1344,G3,186.333,167/1000,36,80.0
1345,E4,186.333,167/1000,36,80.0
1346,C5,186.667,167/1000,52,80.0
1347,F#5,186.667,167/1000,52,80.0
1348,G3,186.667,167/1000,44,80.0
1349,D4,186.667,167/1000,44,80.0
1350,A4,186.667,167/1000,44,80.0
1351,C5,187.0,333/1000,54,80.0
1352,F#5,187.0,333/1000,54,80.0
1353,G3,187.0,333/1000,47,80.0
1354,D4,187.0,333/1000,47,80.0
1355,A4,187.0,333/1000,47,80.0
1356,C#5,187.333,167/1000,51,80.0
1357,F5,187.333,167/1000,51,80.0
1358,G3,187.333,167/1000,40,80.0
1359,D4,187.333,167/1000,40,80.0
1360,G4,187.333,167/1000,40,80.0
1361,E4,187.667,167/1000,50,80.0
1362,A4,187.667,167/1000,50,80.0
1363,G3,187.667,167/1000,42,80.0
1364,D4,187.667,167/1000,42,80.0
1365,G4,187.667,167/1000,42,80.0
1366,E4,188.0,333/1000,54,80.0
1367,A4,188.0,333/1000,54,80.0
1368,G3,188.0,333/1000,42,80.0
1369,D4,188.0,333/1000,42,80.0
1370,G4,188.0,333/1000,42,80.0
1371,E-4,188.333,167/1000,50,80.0
1372,G#4,188.333,167/1000,50,80.0
1373,D4,188.333,333/1000,42,80.0
1374,G#4,188.333,333/1000,42,80.0
1375,F3,188.667,333/1000,61,80.0
1376,E-4,188.667,167/1000,55,80.0
1377,C4,188.667,167/1000,55,80.0
1378,F#4,188.667,167/1000,55,80.0
1379,E-4,189.0,333/1000,52,80.0
1380,C4,189.0,333/1000,52,80.0
1381,F#4,189.0,333/1000,52,80.0
1382,G#3,189.0,333/1000,52,80.0
1383,F4,189.0,333/1000,52,80.0
1384,D3,189.333,333/1000,62,80.0
1385,E4,189.333,167/1000,44,80.0
1386,C4,189.333,167/1000,44,80.0
1387,G4,189.333,167/1000,44,80.0
1388,C5,189.667,167/1000,51,80.0
1389,D4,189.667,167/1000,51,80.0
1390,F#4,189.667,167/1000,51,80.0
1391,G#3,189.667,333/1000,54,80.0
1392,D4,189.667,333/1000,54,80.0
1393,B2,190.0,333/1000,64,80.0
1394,D4,190.0,333/1000,52,80.0
1395,F#4,190.0,333/1000,52,80.0
1396,C5,190.0,333/1000,52,80.0
1397,D4,190.333,167/1000,44,80.0
1398,G4,190.333,167/1000,44,80.0
1399,B4,190.333,167/1000,44,80.0
1400,F3,190.333,333/1000,55,80.0
1401,B3,190.333,333/1000,55,80.0
1402,G#2,190.667,333/1000,69,80.0
1403,F4,190.667,167/1000,49,80.0
1404,G4,190.667,167/1000,49,80.0
1405,B4,190.667,167/1000,49,80.0
1406,F5,190.667,167/1000,49,80.0
1407,B4,191.0,333/1000,52,80.0
1408,F4,191.0,333/1000,52,80.0
1409,G4,191.0,333/1000,52,80.0
1410,F5,191.0,333/1000,52,80.0
1411,D3,191.0,333/1000,58,80.0
1412,G#3,191.0,333/1000,58,80.0
1413,F2,191.333,333/1000,77,80.0
1414,G4,191.333,167/1000,47,80.0
1415,C5,191.333,167/1000,47,80.0
1416,E5,191.333,167/1000,47,80.0
1417,C6,191.667,167/1000,50,80.0
1418,D5,191.667,167/1000,50,80.0
1419,F#5,191.667,167/1000,50,80.0
1420,C5,191.667,167/1000,50,80.0
1421,F1,191.667,333/1000,69,80.0
1422,F2,191.667,333/1000,69,80.0
1423,C5,192.0,333/1000,52,80.0
1424,C6,192.0,333/1000,52,80.0
1425,D5,192.0,333/1000,52,80.0
1426,F#5,192.0,333/1000,52,80.0
1427,E2,192.0,333/1000,42,80.0
1428,E1,192.0,333/1000,42,80.0
1429,B4,192.333,167/1000,46,80.0
1430,G5,192.333,167/1000,46,80.0
1431,B5,192.333,167/1000,46,80.0
1432,E2,192.333,333/1000,43,80.0
1433,E3,192.333,333/1000,43,80.0
1434,F5,192.667,167/1000,50,80.0
1435,G5,192.667,167/1000,50,80.0
1436,B5,192.667,167/1000,50,80.0
1437,F6,192.667,167/1000,50,80.0
1438,E2,192.667,333/1000,44,80.0
1439,E3,192.667,333/1000,44,80.0
1440,F5,193.0,333/1000,52,80.0
1441,G5,193.0,333/1000,52,80.0
1442,B5,193.0,333/1000,52,80.0
1443,F6,193.0,333/1000,52,80.0
1444,E2,193.0,333/1000,44,80.0
1445,E3,193.0,333/1000,44,80.0
1446,D5,193.333,333/1000,54,80.0
1447,B-4,193.333,333/1000,54,80.0
1448,E2,193.333,333/1000,44,80.0
1449,E3,193.333,333/1000,44,80.0
1450,B4,193.667,333/1000,73,80.0
1451,G#5,193.667,333/1000,73,80.0
1452,E2,193.667,333/1000,45,80.0
1453,E3,193.667,333/1000,45,80.0
1454,C#5,194.0,333/1000,71,80.0
1455,F5,194.0,333/1000,71,80.0
1456,E2,194.0,333/1000,46,80.0
1457,E3,194.0,333/1000,46,80.0
1458,D5,194.333,333/1000,78,80.0
1459,B5,194.333,333/1000,78,80.0
1460,E-2,194.333,333/1000,48,80.0
1461,E-3,194.333,333/1000,48,80.0
1462,E5,194.667,333/1000,72,80.0
1463,G#5,194.667,333/1000,72,80.0
1464,E-2,194.667,333/1000,48,80.0
1465,E-3,194.667,333/1000,48,80.0
1466,F5,195.0,333/1000,82,80.0
1467,D6,195.0,333/1000,82,80.0
1468,E-2,195.0,333/1000,52,80.0
1469,E-3,195.0,333/1000,52,80.0
1470,B5,195.333,333/1000,78,80.0
1471,G5,195.333,333/1000,78,80.0
1472,E2,195.333,333/1000,48,80.0
1473,E3,195.333,333/1000,48,80.0
1474,F6,195.667,333/1000,85,80.0
1475,G#5,195.667,333/1000,85,80.0
1476,E2,195.667,333/1000,48,80.0
1477,E3,195.667,333/1000,48,80.0
1478,B-5,196.0,333/1000,80,80.0
1479,D6,196.0,333/1000,80,80.0
1480,E2,196.0,167/1000,51,80.0
1481,E3,196.0,167/1000,51,80.0
1482,B5,196.333,333/1000,86,80.0
1483,G#6,196.333,333/1000,86,80.0
1484,E2,196.333,167/1000,52,80.0
1485,E3,196.333,167/1000,52,80.0
1486,B5,196.667,333/1000,84,80.0
1487,B6,196.667,333/1000,84,80.0
1488,E2,196.667,167/1000,53,80.0
1489,E3,196.667,167/1000,53,80.0
1490,C6,197.0,333/1000,93,80.0
1491,C7,197.0,333/1000,93,80.0
1492,E2,197.0,167/1000,54,80.0
1493,E3,197.0,167/1000,54,80.0
1494,C4,197.333,333/1000,68,80.0
1495,G4,197.333,333/1000,68,80.0
1496,C5,197.333,333/1000,68,80.0
1497,E2,197.333,167/1000,54,80.0
1498,E3,197.333,167/1000,54,80.0
1499,G4,197.667,333/1000,68,80.0
1500,C4,197.667,333/1000,68,80.0
1501,C5,197.667,333/1000,68,80.0
1502,E2,197.667,167/1000,56,80.0
1503,E3,197.667,167/1000,56,80.0
1504,C4,198.0,333/1000,62,80.0
1505,G#4,198.0,333/1000,62,80.0
1506,C5,198.0,333/1000,62,80.0
1507,E2,198.0,167/1000,57,80.0
1508,E3,198.0,167/1000,57,80.0
1509,C4,198.333,333/1000,67,80.0
1510,G#4,198.333,333/1000,67,80.0
1511,C5,198.333,333/1000,67,80.0
1512,E-2,198.333,167/1000,57,80.0
1513,E-3,198.333,167/1000,57,80.0
1514,C4,198.667,333/1000,67,80.0
1515,G#4,198.667,333/1000,67,80.0
1516,C5,198.667,333/1000,67,80.0
1517,E-2,198.667,167/1000,58,80.0
1518,E-3,198.667,167/1000,58,80.0
1519,C5,199.0,333/1000,65,80.0
1520,C4,199.0,333/1000,65,80.0
1521,G#4,199.0,333/1000,65,80.0
1522,E-2,199.0,167/1000,58,80.0
1523,E-3,199.0,167/1000,58,80.0
1524,C4,199.333,333/1000,68,80.0
1525,G#4,199.333,333/1000,68,80.0
1526,C5,199.333,333/1000,68,80.0
1527,E2,199.333,167/1000,60,80.0
1528,E3,199.333,167/1000,60,80.0
1529,C4,199.667,333/1000,68,80.0
1530,G#4,199.667,333/1000,68,80.0
1531,C5,199.667,333/1000,68,80.0
1532,E2,199.667,167/1000,62,80.0
1533,E3,199.667,167/1000,62,80.0
1534,C4,200.0,333/1000,72,80.0
1535,G#4,200.0,333/1000,72,80.0
1536,C5,200.0,333/1000,72,80.0
1537,F2,200.0,167/1000,63,80.0
1538,F3,200.0,167/1000,63,80.0
1539,C5,200.333,333/1000,71,80.0
1540,C4,200.333,333/1000,71,80.0
1541,G#4,200.333,333/1000,71,80.0
1542,G#3,200.333,333/1000,57,80.0
1543,C#3,200.333,333/1000,57,80.0
1544,C#4,200.333,333/1000,57,80.0
1545,C4,200.667,333/1000,71,80.0
1546,G#4,200.667,333/1000,71,80.0
1547,C5,200.667,333/1000,71,80.0
1548,G#3,200.667,333/1000,58,80.0
1549,C#3,200.667,333/1000,58,80.0
1550,C#4,200.667,333/1000,58,80.0
1551,C4,201.0,167/1000,71,80.0
1552,G#4,201.0,167/1000,71,80.0
1553,C5,201.0,167/1000,71,80.0
1554,C#3,201.0,333/1000,60,80.0
1555,G#3,201.0,333/1000,60,80.0
1556,C#4,201.0,333/1000,60,80.0
1557,C4,201.333,167/1000,72,80.0
1558,A4,201.333,167/1000,72,80.0
1559,C5,201.333,167/1000,72,80.0
1560,C4,201.667,167/1000,73,80.0
1561,A4,201.667,167/1000,73,80.0
1562,C5,201.667,167/1000,73,80.0
1563,A4,202.0,167/1000,75,80.0
1564,C4,202.0,167/1000,75,80.0
1565,C5,202.0,167/1000,75,80.0
1566,F#1,202.0,333/1000,82,80.0
1567,F#2,202.0,333/1000,82,80.0
1568,C#4,202.333,167/1000,75,80.0
1569,A4,202.333,167/1000,75,80.0
1570,C#5,202.333,167/1000,75,80.0
1571,F#3,202.333,333/1000,57,80.0
1572,C#3,202.333,333/1000,57,80.0
1573,C#4,202.333,333/1000,57,80.0
1574,C#4,202.667,167/1000,76,80.0
1575,A4,202.667,167/1000,76,80.0
1576,C#5,202.667,167/1000,76,80.0
1577,F#3,202.667,333/1000,58,80.0
1578,C#3,202.667,333/1000,58,80.0
1579,C#4,202.667,333/1000,58,80.0
1580,C#4,203.0,167/1000,77,80.0
1581,A4,203.0,167/1000,77,80.0
1582,C#5,203.0,167/1000,77,80.0
1583,C#3,203.0,333/1000,60,80.0
1584,F#3,203.0,333/1000,60,80.0
1585,C#4,203.0,333/1000,60,80.0
1586,C#5,203.333,167/1000,78,80.0
1587,C#4,203.333,167/1000,78,80.0
1588,A4,203.333,167/1000,78,80.0
1589,C#4,203.667,167/1000,80,80.0
1590,A4,203.667,167/1000,80,80.0
1591,C#5,203.667,167/1000,80,80.0
1592,C#4,204.0,167/1000,82,80.0
1593,A4,204.0,167/1000,82,80.0
1594,C#5,204.0,167/1000,82,80.0
1595,G#1,204.0,333/1000,82,80.0
1596,G#2,204.0,333/1000,82,80.0
1597,C#4,204.333,167/1000,83,80.0
1598,G#4,204.333,167/1000,83,80.0
1599,C#5,204.333,167/1000,83,80.0
1600,G#3,204.333,333/1000,57,80.0
1601,C#3,204.333,333/1000,57,80.0
1602,C#4,204.333,333/1000,57,80.0
1603,C#5,204.667,167/1000,84,80.0
1604,C#4,204.667,167/1000,84,80.0
1605,G4,204.667,167/1000,84,80.0
1606,G#3,204.667,333/1000,58,80.0
1607,C#3,204.667,333/1000,58,80.0
1608,C#4,204.667,333/1000,58,80.0
1609,C#4,205.0,167/1000,87,80.0
1610,G#4,205.0,167/1000,87,80.0
1611,C#5,205.0,167/1000,87,80.0
1612,C#3,205.0,333/1000,60,80.0
1613,G#3,205.0,333/1000,60,80.0
1614,C#4,205.0,333/1000,60,80.0
1615,F4,205.333,333/1000,81,80.0
1616,G#4,205.333,333/1000,81,80.0
1617,F5,205.333,333/1000,81,80.0
1618,F4,205.667,333/1000,81,80.0
1619,G#4,205.667,333/1000,81,80.0
1620,F5,205.667,333/1000,81,80.0
1621,F4,206.0,333/1000,86,80.0
1622,G#4,206.0,333/1000,86,80.0
1623,F5,206.0,333/1000,86,80.0
1624,B-1,206.0,333/1000,82,80.0
1625,B-2,206.0,333/1000,82,80.0
1626,E-5,206.333,333/1000,82,80.0
1627,E-4,206.333,333/1000,82,80.0
1628,B-3,206.333,333/1000,57,80.0
1629,E-3,206.333,333/1000,57,80.0
1630,C#4,206.333,333/1000,57,80.0
1631,C#4,206.667,333/1000,82,80.0
1632,C#5,206.667,333/1000,82,80.0
1633,B-3,206.667,333/1000,58,80.0
1634,E-3,206.667,333/1000,58,80.0
1635,C#4,206.667,333/1000,58,80.0
1636,E-3,207.0,333/1000,60,80.0
1637,B-3,207.0,333/1000,60,80.0
1638,C#4,207.0,333/1000,60,80.0
1639,F4,207.333,333/1000,81,80.0
1640,B-4,207.333,333/1000,81,80.0
1641,F5,207.333,333/1000,81,80.0
1642,F4,207.667,333/1000,81,80.0
1643,B-4,207.667,333/1000,81,80.0
1644,F5,207.667,333/1000,81,80.0
1645,F4,208.0,333/1000,86,80.0
1646,B-4,208.0,333/1000,86,80.0
1647,F5,208.0,333/1000,86,80.0
1648,E-1,208.0,2.0,64,80.0
1649,E-2,208.0,2.0,64,80.0
1650,E-5,208.333,333/1000,82,80.0
1651,E-4,208.333,333/1000,82,80.0
1652,C#4,208.667,333/1000,82,80.0
1653,C#5,208.667,333/1000,82,80.0
1654,F4,209.333,333/1000,81,80.0
1655,G#4,209.333,333/1000,81,80.0
1656,F5,209.333,333/1000,81,80.0
1657,F4,209.667,333/1000,81,80.0
1658,G#4,209.667,333/1000,81,80.0
1659,F5,209.667,333/1000,81,80.0
1660,F4,210.0,333/1000,86,80.0
1661,G#4,210.0,333/1000,86,80.0
1662,F5,210.0,333/1000,86,80.0
1663,E-5,210.333,333/1000,82,80.0
1664,E-4,210.333,333/1000,82,80.0
1665,C#4,210.667,333/1000,82,80.0
1666,C#5,210.667,333/1000,82,80.0
1667,F4,211.333,333/1000,81,80.0
1668,G4,211.333,333/1000,81,80.0
1669,F5,211.333,333/1000,81,80.0
1670,F4,211.667,333/1000,81,80.0
1671,G4,211.667,333/1000,81,80.0
1672,F5,211.667,333/1000,81,80.0
1673,F4,212.0,333/1000,86,80.0
1674,G4,212.0,333/1000,86,80.0
1675,F5,212.0,333/1000,86,80.0
1676,E-1,212.0,2.0,64,80.0
1677,E-2,212.0,2.0,64,80.0
1678,E-5,212.333,333/1000,82,80.0
1679,E-4,212.333,333/1000,82,80.0
1680,C#4,212.667,333/1000,82,80.0
1681,C#5,212.667,333/1000,82,80.0
1682,E-3,213.0,2.0,91,80.0
1683,G3,213.0,2.0,91,80.0
1684,C#4,213.0,2.0,91,80.0
1685,E-4,213.0,2.0,91,80.0
1686,G#1,214.0,2.0,61,80.0
1687,G#2,214.0,2.0,61,80.0
1688,E-3,217.0,2.0,91,80.0
1689,G3,217.0,2.0,91,80.0
1690,C#4,217.0,2.0,91,80.0
1691,E-4,217.0,2.0,91,80.0
1692,G#1,218.0,2.0,61,80.0
1693,G#2,218.0,2.0,61,80.0
1694,F#3,219.0,2.0,85,80.0
1695,C4,219.0,2.0,85,80.0
1696,F4,219.0,2.0,85,80.0
1697,B-1,220.0,0.25,48,80.0
1698,B-2,220.0,0.25,48,80.0
1699,F3,220.25,0.25,29,80.0
1700,C#3,220.5,0.25,23,80.0
1701,C#4,220.5,0.25,23,80.0
1702,B-3,220.5,0.25,23,80.0
1703,F2,220.75,0.25,33,80.0
1704,B-1,221.0,0.25,27,80.0
1705,B-2,221.0,0.25,27,80.0
1706,F3,221.25,0.25,29,80.0
1707,C#3,221.5,0.25,24,80.0
1708,C#4,221.5,0.25,24,80.0
1709,B-3,221.5,0.25,24,80.0
1710,F2,221.75,0.25,35,80.0
1711,B-1,222.0,0.25,30,80.0
1712,B-2,222.0,0.25,30,80.0
1713,F3,222.25,0.25,30,80.0
1714,C#3,222.5,0.25,26,80.0
1715,C#4,222.5,0.25,26,80.0
1716,B-3,222.5,0.25,26,80.0
1717,F2,222.75,0.25,35,80.0
1718,F#3,223.0,2.0,85,80.0
1719,C4,223.0,2.0,85,80.0
1720,F4,223.0,2.0,85,80.0
1721,B-1,223.0,0.25,31,80.0
1722,B-2,223.0,0.25,31,80.0
1723,F3,223.25,0.25,35,80.0
1724,C#3,223.5,0.25,28,80.0
1725,C#4,223.5,0.25,28,80.0
1726,B-3,223.5,0.25,28,80.0
1727,F2,223.75,0.25,39,80.0
1728,B-1,224.0,0.25,34,80.0
1729,B-2,224.0,0.25,34,80.0
1730,F3,224.25,0.25,35,80.0
1731,C#3,224.5,0.25,30,80.0
1732,C#4,224.5,0.25,30,80.0
1733,B-3,224.5,0.25,30,80.0
1734,F2,224.75,0.25,39,80.0
1735,B-1,225.0,0.25,32,80.0
1736,B-2,225.0,0.25,32,80.0
1737,F3,225.25,0.25,34,80.0
1738,C#3,225.5,0.25,27,80.0
1739,C#4,225.5,0.25,27,80.0
1740,B-3,225.5,0.25,27,80.0
1741,F2,225.75,0.25,36,80.0
1742,B-1,226.0,0.25,30,80.0
1743,B-2,226.0,0.25,30,80.0
1744,F3,226.25,0.25,30,80.0
1745,C#3,226.5,0.25,26,80.0
1746,C#4,226.5,0.25,26,80.0
1747,B-3,226.5,0.25,26,80.0
1748,F2,226.75,0.25,35,80.0
1749,B-1,227.0,0.25,27,80.0
1750,B-2,227.0,0.25,27,80.0
1751,F3,227.25,0.25,29,80.0
1752,C#3,227.5,0.25,25,80.0
1753,C#4,227.5,0.25,25,80.0
1754,B-3,227.5,0.25,25,80.0
1755,F3,227.75,0.25,33,80.0
1756,B-2,228.0,0.25,35,80.0
1757,F3,228.25,0.25,34,80.0
1758,C#4,228.5,0.25,30,80.0
1759,B-3,228.5,0.25,30,80.0
1760,F3,228.75,0.25,31,80.0
1761,B-2,229.0,0.25,35,80.0
1762,F3,229.25,0.25,33,80.0
1763,C#4,229.5,0.25,31,80.0
1764,B-3,229.5,0.25,31,80.0
1765,F3,229.75,0.25,31,80.0
1766,B-2,230.0,0.25,35,80.0
1767,F3,230.25,0.25,34,80.0
1768,C#4,230.5,0.25,31,80.0
1769,B-3,230.5,0.25,31,80.0
1770,F3,230.75,0.25,31,80.0
1771,B-2,231.0,0.25,35,80.0
1772,F3,231.25,0.25,33,80.0
1773,C#4,231.5,0.25,31,80.0
1774,B-3,231.5,0.25,31,80.0
1775,F3,231.75,0.25,31,80.0
1776,B-2,232.0,0.25,35,80.0
1777,F3,232.25,0.25,33,80.0
1778,C#4,232.5,0.25,31,80.0
1779,B-3,232.5,0.25,31,80.0
1780,F3,232.75,0.25,33,80.0
1781,C#5,233.0,0.25,54,80.0
1782,B-2,233.0,0.25,37,80.0
1783,B-4,233.25,0.125,51,80.0
1784,F3,233.25,0.25,35,80.0
1785,C#4,233.5,0.25,34,80.0
1786,B-3,233.5,0.25,34,80.0
1787,C5,233.75,0.25,51,80.0
1788,F3,233.75,0.25,34,80.0
1789,C#5,234.0,0.25,54,80.0
1790,C3,234.0,0.25,35,80.0
1791,B-4,234.25,0.125,51,80.0
1792,F#3,234.25,0.25,34,80.0
1793,E-4,234.5,0.25,30,80.0
1794,A3,234.5,0.25,30,80.0
1795,F#3,234.75,0.25,31,80.0
1796,C#5,235.0,0.25,54,80.0
1797,C3,235.0,0.25,35,80.0
1798,B-4,235.25,0.125,51,80.0
1799,F#3,235.25,0.25,33,80.0
1800,E-4,235.5,0.25,31,80.0
1801,A3,235.5,0.25,31,80.0
1802,C5,235.75,0.25,51,80.0
1803,F#3,235.75,0.25,31,80.0
1804,C#5,236.0,0.25,54,80.0
1805,C3,236.0,0.25,35,80.0
1806,B-4,236.25,0.125,51,80.0
1807,E-3,236.25,0.25,34,80.0
1808,E-4,236.5,0.25,30,80.0
1809,A3,236.5,0.25,30,80.0
1810,E-3,236.75,0.25,31,80.0
1811,C#5,237.0,0.25,54,80.0
1812,C3,237.0,0.25,35,80.0
1813,B-4,237.25,0.125,51,80.0
1814,F#3,237.25,0.25,33,80.0
1815,E-4,237.5,0.25,31,80.0
1816,A3,237.5,0.25,31,80.0
1817,C5,237.75,0.25,61,80.0
1818,F#3,237.75,0.25,31,80.0
1819,C#5,238.0,0.25,66,80.0
1820,C3,238.0,0.25,35,80.0
1821,B-5,238.25,0.125,64,80.0
1822,E-3,238.25,0.25,34,80.0
1823,E-4,238.5,0.25,30,80.0
1824,A3,238.5,0.25,30,80.0
1825,E-3,238.75,0.25,31,80.0
1826,A5,239.0,0.25,64,80.0
1827,C3,239.0,0.25,35,80.0
1828,C5,239.25,0.125,59,80.0
1829,F#3,239.25,0.25,33,80.0
1830,E-4,239.5,0.25,31,80.0
1831,A3,239.5,0.25,31,80.0
1832,C#5,239.75,0.25,51,80.0
1833,F#3,239.75,0.25,31,80.0
1834,E-5,240.0,0.25,54,80.0
1835,C3,240.0,0.25,35,80.0
1836,C5,240.25,0.125,51,80.0
1837,E-3,240.25,0.25,35,80.0
1838,E-4,240.5,0.25,34,80.0
1839,A3,240.5,0.25,34,80.0
1840,E-3,240.75,0.25,35,80.0
1841,F#5,241.0,0.25,57,80.0
1842,C3,241.0,0.25,39,80.0
1843,C5,241.25,0.125,51,80.0
1844,F#3,241.25,0.25,37,80.0
1845,E-4,241.5,0.25,37,80.0
1846,A3,241.5,0.25,37,80.0
1847,C#5,241.75,0.25,51,80.0
1848,F#3,241.75,0.25,38,80.0
1849,E-5,242.0,0.25,54,80.0
1850,C#3,242.0,0.25,35,80.0
1851,C5,242.25,0.125,51,80.0
1852,F3,242.25,0.25,34,80.0
1853,F4,242.5,0.25,30,80.0
1854,A3,242.5,0.25,30,80.0
1855,F3,242.75,0.25,31,80.0
1856,F#5,243.0,0.25,57,80.0
1857,C#3,243.0,0.25,35,80.0
1858,C5,243.25,0.125,51,80.0
1859,F3,243.25,0.25,33,80.0
1860,F4,243.5,0.25,31,80.0
1861,B-3,243.5,0.25,31,80.0
1862,C#5,243.75,0.25,51,80.0
1863,F3,243.75,0.25,31,80.0
1864,E-5,244.0,0.25,54,80.0
1865,E3,244.0,0.25,56,80.0
1866,C5,244.25,0.125,51,80.0
1867,C#4,244.25,0.25,53,80.0
1868,G4,244.5,0.25,50,80.0
1869,E3,244.75,0.25,51,80.0
1870,F#5,245.0,0.25,60,80.0
1871,F3,245.0,0.25,56,80.0
1872,C5,245.25,0.125,53,80.0
1873,C4,245.25,0.25,52,80.0
1874,A4,245.5,0.25,58,80.0
1875,C#5,245.75,0.25,65,80.0
1876,F3,245.75,0.25,51,80.0
1877,E-5,246.0,0.25,71,80.0
1878,A2,246.0,0.25,33,80.0
1879,C6,246.25,0.125,64,80.0
1880,F#3,246.25,0.25,30,80.0
1881,E-4,246.5,0.25,29,80.0
1882,A2,246.75,0.25,29,80.0
1883,C6,247.0,0.5,61,80.0
1884,B-2,247.0,0.25,33,80.0
1885,C#5,247.25,0.125,57,80.0
1886,F3,247.25,0.25,30,80.0
1887,C#4,247.5,0.25,29,80.0
1888,E-5,247.75,0.25,49,80.0
1889,B-2,247.75,0.25,29,80.0
1890,B-5,248.0,0.5,52,80.0
1891,F5,248.0,0.25,52,80.0
1892,E3,248.0,0.25,56,80.0
1893,C#5,248.25,0.125,49,80.0
1894,C#4,248.25,0.25,53,80.0
1895,G4,248.5,0.25,50,80.0
1896,E3,248.75,0.25,51,80.0
1897,F3,249.0,0.25,56,80.0
1898,C#5,249.0,0.25,76,80.0
1899,C#6,249.0,0.25,76,80.0
1900,C4,249.25,0.25,52,80.0
1901,C6,249.25,0.125,69,80.0
1902,G5,249.25,0.125,69,80.0
1903,A4,249.5,0.25,58,80.0
1904,F3,249.75,0.25,51,80.0
1905,C#5,249.75,0.25,66,80.0
1906,B-5,249.75,0.25,66,80.0
1907,A2,250.0,0.25,33,80.0
1908,A5,250.0,0.25,71,80.0
1909,F5,250.0,0.25,71,80.0
1910,F#3,250.25,0.25,30,80.0
1911,C5,250.25,0.125,62,80.0
1912,C6,250.25,0.125,62,80.0
1913,E-4,250.5,0.25,29,80.0
1914,A2,250.75,0.25,29,80.0
1915,B-2,251.0,0.25,33,80.0
1916,F#4,251.0,0.25,50,80.0
1917,F#5,251.0,0.25,50,80.0
1918,F3,251.25,0.25,30,80.0
1919,F5,251.25,0.125,46,80.0
1920,C5,251.25,0.125,46,80.0
1921,C#4,251.5,0.25,29,80.0
1922,B-2,251.75,0.25,29,80.0
1923,F#4,251.75,0.25,44,80.0
1924,E-5,251.75,0.25,44,80.0
1925,G2,252.0,0.25,56,80.0
1926,C#5,252.0,0.25,48,80.0
1927,B-4,252.0,0.25,48,80.0
1928,C3,252.25,0.25,53,80.0
1929,F4,252.25,0.125,44,80.0
1930,F5,252.25,0.125,44,80.0
1931,C#3,252.5,0.25,50,80.0
1932,B-3,252.75,0.25,49,80.0
1933,G2,253.0,0.25,52,80.0
1934,C#5,253.0,0.25,76,80.0
1935,C#6,253.0,0.25,76,80.0
1936,C3,253.25,0.25,49,80.0
1937,C6,253.25,0.125,69,80.0
1938,G5,253.25,0.125,69,80.0
1939,C#3,253.5,0.25,49,80.0
1940,B-3,253.75,0.25,49,80.0
1941,C#5,253.75,0.25,66,80.0
1942,B-5,253.75,0.25,66,80.0
1943,G2,254.0,0.25,47,80.0
1944,A5,254.0,0.25,71,80.0
1945,F5,254.0,0.25,71,80.0
1946,C3,254.25,0.25,45,80.0
1947,C5,254.25,0.125,62,80.0
1948,C6,254.25,0.125,62,80.0
1949,C#3,254.5,0.25,42,80.0
1950,B-3,254.75,0.25,44,80.0
1951,A2,255.0,0.25,49,80.0
1952,F#4,255.0,0.25,50,80.0
1953,F#5,255.0,0.25,50,80.0
1954,D3,255.25,0.25,44,80.0
1955,F5,255.25,0.125,46,80.0
1956,C5,255.25,0.125,46,80.0
1957,E-3,255.5,0.25,46,80.0
1958,C4,255.75,0.25,44,80.0
1959,F#4,255.75,0.25,44,80.0
1960,E-5,255.75,0.25,44,80.0
1961,B2,256.0,0.25,47,80.0
1962,D5,256.0,0.25,48,80.0
1963,B-4,256.0,0.25,48,80.0
1964,E3,256.25,0.25,45,80.0
1965,C#5,256.25,0.125,43,80.0
1966,F4,256.25,0.125,43,80.0
1967,F5,256.25,0.125,43,80.0
1968,F3,256.5,0.25,42,80.0
1969,D4,256.75,0.25,44,80.0
1970,C3,257.0,0.25,49,80.0
1971,B-5,257.0,0.25,80,80.0
1972,F5,257.0,0.25,80,80.0
1973,F6,257.0,0.25,80,80.0
1974,F#3,257.25,0.25,39,80.0
1975,E6,257.25,0.125,76,80.0
1976,E5,257.25,0.125,76,80.0
1977,G3,257.5,0.25,40,80.0
1978,E-4,257.75,0.25,39,80.0
1979,C#5,257.75,0.25,68,80.0
1980,C#6,257.75,0.25,68,80.0
1981,B-2,258.0,0.25,52,80.0
1982,E-5,258.0,0.25,72,80.0
1983,C6,258.0,0.25,72,80.0
1984,C5,258.0,0.25,72,80.0
1985,F3,258.25,0.25,45,80.0
1986,B-4,258.25,0.125,68,80.0
1987,B-5,258.25,0.125,68,80.0
1988,F#3,258.5,0.25,41,80.0
1989,E-4,258.75,0.25,42,80.0
1990,A2,259.0,0.25,52,80.0
1991,B-4,259.0,0.25,74,80.0
1992,B-5,259.0,0.25,74,80.0
1993,E3,259.25,0.25,41,80.0
1994,G#5,259.25,0.125,67,80.0
1995,E5,259.25,0.125,67,80.0
1996,F3,259.5,0.25,42,80.0
1997,E-4,259.75,0.25,41,80.0
1998,G4,259.75,0.25,62,80.0
1999,G5,259.75,0.25,62,80.0
2000,B-2,260.0,0.25,51,80.0
2001,E-5,260.0,0.25,64,80.0
2002,F#5,260.0,0.25,64,80.0
2003,F3,260.25,0.25,44,80.0
2004,F#4,260.25,0.125,58,80.0
2005,C5,260.25,0.125,58,80.0
2006,B-3,260.5,0.25,47,80.0
2007,F2,260.75,0.25,48,80.0
2008,B-2,261.0,0.25,51,80.0
2009,G#4,261.0,0.25,62,80.0
2010,G#5,261.0,0.25,62,80.0
2011,F3,261.25,0.25,43,80.0
2012,G5,261.25,0.125,57,80.0
2013,D5,261.25,0.125,57,80.0
2014,B-3,261.5,0.25,48,80.0
2015,F2,261.75,0.25,48,80.0
2016,F4,261.75,0.25,56,80.0
2017,F5,261.75,0.25,56,80.0
2018,B-2,262.0,0.25,51,80.0
2019,C5,262.0,0.25,58,80.0
2020,E-5,262.0,0.25,58,80.0
2021,F3,262.25,0.25,44,80.0
2022,E-4,262.25,0.125,48,80.0
2023,G4,262.25,0.125,48,80.0
2024,B-3,262.5,0.25,48,80.0
2025,F2,262.75,0.25,48,80.0
2026,B-2,263.0,0.25,51,80.0
2027,C5,263.0,0.25,62,80.0
2028,E-5,263.0,0.25,62,80.0
2029,F3,263.25,0.25,43,80.0
2030,F#4,263.25,0.125,54,80.0
2031,E-4,263.25,0.125,54,80.0
2032,B-3,263.5,0.25,48,80.0
2033,F2,263.75,0.25,48,80.0
2034,B-2,264.0,0.25,51,80.0
2035,C5,264.0,0.25,58,80.0
2036,E-5,264.0,0.25,58,80.0
2037,F3,264.25,0.25,49,80.0
2038,E-4,264.25,0.125,51,80.0
2039,F4,264.25,0.125,51,80.0
2040,B-3,264.5,0.25,48,80.0
2041,F2,264.75,0.25,49,80.0
2042,C#5,265.0,0.25,68,80.0
2043,B-2,265.0,0.25,54,80.0
2044,F3,265.25,0.25,51,80.0
2045,C#4,265.25,0.25,46,80.0
2046,F4,265.25,0.25,46,80.0
2047,B-4,265.25,0.25,46,80.0
2048,C#4,265.5,0.25,50,80.0
2049,C5,265.75,0.25,67,80.0
2050,C#3,265.75,0.25,50,80.0
2051,C#5,266.0,0.25,68,80.0
2052,C3,266.0,0.25,51,80.0
2053,F#3,266.25,0.25,44,80.0
2054,C#4,266.25,0.25,47,80.0
2055,F4,266.25,0.25,47,80.0
2056,B-4,266.25,0.25,47,80.0
2057,E-4,266.5,0.25,47,80.0
2058,C3,266.75,0.25,48,80.0
2059,C#5,267.0,0.25,68,80.0
2060,F#3,267.0,0.25,51,80.0
2061,A3,267.25,0.25,43,80.0
2062,C#4,267.25,0.25,47,80.0
2063,F4,267.25,0.25,47,80.0
2064,B-4,267.25,0.25,47,80.0
2065,E-4,267.5,0.25,48,80.0
2066,C5,267.75,0.25,68,80.0
2067,C3,267.75,0.25,48,80.0
2068,C#5,268.0,0.25,68,80.0
2069,E-3,268.0,0.25,51,80.0
2070,A3,268.25,0.25,44,80.0
2071,C#4,268.25,0.25,47,80.0
2072,F4,268.25,0.25,47,80.0
2073,B-4,268.25,0.25,47,80.0
2074,E-4,268.5,0.25,47,80.0
2075,C3,268.75,0.25,48,80.0
2076,C#5,269.0,0.25,68,80.0
2077,F#3,269.0,0.25,51,80.0
2078,A3,269.25,0.25,43,80.0
2079,C#4,269.25,0.25,53,80.0
2080,F4,269.25,0.25,53,80.0
2081,B-4,269.25,0.25,53,80.0
2082,E-4,269.5,0.25,48,80.0
2083,C5,269.75,0.25,73,80.0
2084,C3,269.75,0.25,48,80.0
2085,C#5,270.0,0.25,84,80.0
2086,E-3,270.0,0.25,51,80.0
2087,A3,270.25,0.25,44,80.0
2088,B-4,270.25,0.25,60,80.0
2089,F5,270.25,0.25,60,80.0
2090,B-5,270.25,0.25,60,80.0
2091,E-4,270.5,0.25,47,80.0
2092,C3,270.75,0.25,48,80.0
2093,A5,271.0,0.25,76,80.0
2094,F#3,271.0,0.25,51,80.0
2095,A3,271.25,0.25,43,80.0
2096,A4,271.25,0.25,56,80.0
2097,C5,271.25,0.25,56,80.0
2098,E-4,271.5,0.25,48,80.0
2099,C#5,271.75,0.25,67,80.0
2100,C3,271.75,0.25,48,80.0
2101,E-5,272.0,0.25,68,80.0
2102,E-3,272.0,0.25,52,80.0
2103,A3,272.25,0.25,46,80.0
2104,F#4,272.25,0.25,47,80.0
2105,A4,272.25,0.25,47,80.0
2106,C5,272.25,0.25,47,80.0
2107,E-4,272.5,0.25,50,80.0
2108,C3,272.75,0.25,51,80.0
2109,F#5,273.0,0.25,71,80.0
2110,F#3,273.0,0.25,57,80.0
2111,A3,273.25,0.25,54,80.0
2112,F#4,273.25,0.25,46,80.0
2113,A4,273.25,0.25,46,80.0
2114,C5,273.25,0.25,46,80.0
2115,E-4,273.5,0.25,54,80.0
2116,C#5,273.75,0.25,67,80.0
2117,C3,273.75,0.25,55,80.0
2118,E-5,274.0,0.25,68,80.0
2119,C#3,274.0,0.25,51,80.0
2120,A3,274.25,0.25,50,80.0
2121,F#4,274.25,0.25,47,80.0
2122,A4,274.25,0.25,47,80.0
2123,C5,274.25,0.25,47,80.0
2124,F4,274.5,0.25,47,80.0
2125,F3,274.75,0.25,48,80.0
2126,F#5,275.0,0.25,71,80.0
2127,B-3,275.0,0.25,51,80.0
2128,C#4,275.25,0.25,49,80.0
2129,F#4,275.25,0.25,46,80.0
2130,A4,275.25,0.25,46,80.0
2131,C5,275.25,0.25,46,80.0
2132,F4,275.5,0.25,48,80.0
2133,C#5,275.75,0.25,67,80.0
2134,C#3,275.75,0.25,48,80.0
2135,E-5,276.0,0.25,68,80.0
2136,E3,276.0,0.25,61,80.0
2137,C#4,276.25,0.25,59,80.0
2138,F#4,276.25,0.25,47,80.0
2139,A4,276.25,0.25,47,80.0
2140,C5,276.25,0.25,47,80.0
2141,G4,276.5,0.25,55,80.0
2142,E3,276.75,0.25,57,80.0
2143,F#5,277.0,0.25,74,80.0
2144,F3,277.0,0.25,61,80.0
2145,C4,277.25,0.25,58,80.0
2146,F#4,277.25,0.25,49,80.0
2147,A4,277.25,0.25,49,80.0
2148,C5,277.25,0.25,49,80.0
2149,A4,277.5,0.25,57,80.0
2150,C#5,277.75,0.25,82,80.0
2151,F3,277.75,0.25,57,80.0
2152,E-5,278.0,0.25,88,80.0
2153,A2,278.0,0.25,48,80.0
2154,F#3,278.25,0.25,44,80.0
2155,C5,278.25,0.25,62,80.0
2156,F#5,278.25,0.25,62,80.0
2157,C6,278.25,0.25,62,80.0
2158,E-4,278.5,0.25,44,80.0
2159,A2,278.75,0.25,44,80.0
2160,C6,279.0,0.25,73,80.0
2161,B-2,279.0,0.25,48,80.0
2162,F3,279.25,0.25,44,80.0
2163,C5,279.25,0.25,61,80.0
2164,C#5,279.25,0.25,61,80.0
2165,C#4,279.5,0.25,44,80.0
2166,E-5,279.75,0.25,64,80.0
2167,B-2,279.75,0.25,44,80.0
2168,F5,280.0,0.25,69,80.0
2169,E3,280.0,0.25,61,80.0
2170,C#4,280.25,0.25,59,80.0
2171,B-4,280.25,0.25,52,80.0
2172,B-5,280.25,0.25,52,80.0
2173,C#5,280.25,0.25,52,80.0
2174,G4,280.5,0.25,55,80.0
2175,E3,280.75,0.25,57,80.0
2176,C#6,281.0,0.25,85,80.0
2177,F3,281.0,0.25,61,80.0
2178,C4,281.25,0.25,58,80.0
2179,C#5,281.25,0.25,75,80.0
2180,C6,281.25,0.25,75,80.0
2181,G5,281.25,0.25,75,80.0
2182,A4,281.5,0.25,57,80.0
2183,B-5,281.75,0.25,80,80.0
2184,F3,281.75,0.25,57,80.0
2185,A5,282.0,0.25,86,80.0
2186,D3,282.0,0.25,61,80.0
2187,B3,282.25,0.25,58,80.0
2188,F5,282.25,0.25,71,80.0
2189,C5,282.25,0.25,71,80.0
2190,C6,282.25,0.25,71,80.0
2191,F4,282.5,0.25,55,80.0
2192,D3,282.75,0.25,55,80.0
2193,F#5,283.0,0.25,67,80.0
2194,E-3,283.0,0.25,61,80.0
2195,B-3,283.25,0.25,57,80.0
2196,F#4,283.25,0.25,59,80.0
2197,F5,283.25,0.25,59,80.0
2198,C5,283.25,0.25,59,80.0
2199,F#4,283.5,0.25,55,80.0
2200,E-5,283.75,0.25,64,80.0
2201,E-3,283.75,0.25,55,80.0
2202,D5,284.0,0.25,69,80.0
2203,E-2,284.0,0.25,69,80.0
2204,B-2,284.25,0.25,59,80.0
2205,B-4,284.25,0.25,56,80.0
2206,C#5,284.25,0.25,56,80.0
2207,F4,284.25,0.25,56,80.0
2208,F5,284.25,0.25,56,80.0
2209,B-3,284.5,0.25,71,80.0
2210,B-2,284.75,0.25,59,80.0
2211,C#6,285.0,0.25,85,80.0
2212,F2,285.0,0.25,69,80.0
2213,B-2,285.25,0.25,59,80.0
2214,C#5,285.25,0.25,75,80.0
2215,C6,285.25,0.25,75,80.0
2216,G5,285.25,0.25,75,80.0
2217,B-3,285.5,0.25,69,80.0
2218,B-5,285.75,0.25,80,80.0
2219,B-2,285.75,0.25,59,80.0
2220,A5,286.0,0.25,86,80.0
2221,F#2,286.0,0.25,69,80.0
2222,B-2,286.25,0.25,59,80.0
2223,F5,286.25,0.25,71,80.0
2224,C5,286.25,0.25,71,80.0
2225,C6,286.25,0.25,71,80.0
2226,B-3,286.5,0.25,68,80.0
2227,B-2,286.75,0.25,59,80.0
2228,B5,287.0,0.25,84,80.0
2229,G2,287.0,0.25,68,80.0
2230,E-3,287.25,0.25,59,80.0
2231,B4,287.25,0.25,69,80.0
2232,B-5,287.25,0.25,69,80.0
2233,F5,287.25,0.25,69,80.0
2234,E-4,287.5,0.25,68,80.0
2235,G#5,287.75,0.25,80,80.0
2236,E-3,287.75,0.25,59,80.0
2237,G5,288.0,0.25,86,80.0
2238,G#2,288.0,0.25,59,80.0
2239,E-3,288.0,0.25,59,80.0
2240,B-3,288.0,0.25,59,80.0
2241,F#5,288.25,0.25,67,80.0
2242,B-4,288.25,0.25,67,80.0
2243,B-5,288.25,0.25,67,80.0
2244,G#2,288.5,0.25,47,80.0
2245,E-3,288.5,0.25,47,80.0
2246,G#3,288.5,0.25,47,80.0
2247,F#5,289.0,1.5,83,80.0
2248,A4,289.0,0.5,91,80.0
2249,A5,289.0,0.5,91,80.0
2250,B-4,289.5,0.5,72,80.0
2251,B-5,289.5,0.5,72,80.0
2252,B-1,289.5,0.5,42,80.0
2253,B-2,289.5,0.5,42,80.0
2254,A4,290.0,0.5,82,80.0
2255,A5,290.0,0.5,82,80.0
2256,B1,290.0,1.0,45,80.0
2257,B2,290.0,1.0,45,80.0
2258,B-4,290.5,0.5,70,80.0
2259,F5,290.5,0.5,70,80.0
2260,B-5,290.5,0.5,70,80.0
2261,A4,291.0,0.5,83,80.0
2262,F5,291.0,0.5,83,80.0
2263,A5,291.0,0.5,83,80.0
2264,C2,291.0,0.75,42,80.0
2265,C3,291.0,0.75,42,80.0
2266,E-5,291.5,1.0,67,80.0
2267,B-4,291.5,0.5,74,80.0
2268,B-5,291.5,0.5,74,80.0
2269,C#2,292.0,2.0,31,80.0
2270,C#3,292.0,2.0,37,80.0
2271,A4,292.0,0.5,82,80.0
2272,A5,292.0,0.5,82,80.0
2273,B-4,292.5,0.5,71,80.0
2274,C#5,292.5,0.5,71,80.0
2275,B-5,292.5,0.5,71,80.0
2276,C#4,293.0,0.25,88,80.0
2277,F#4,293.0,0.25,88,80.0
2278,C#5,293.0,0.25,88,80.0
2279,C4,293.5,0.25,75,80.0
2280,F#4,293.5,0.25,75,80.0
2281,C5,293.5,0.25,75,80.0
2282,C#3,294.0,1.0,37,80.0
2283,G#3,294.5,0.5,59,80.0
2284,C#4,294.5,0.5,59,80.0
2285,F#4,294.5,0.5,59,80.0
2286,B-4,294.5,0.5,59,80.0
2287,F#2,295.0,1.0,39,80.0
2288,G#3,295.0,1.0,60,80.0
2289,D4,295.0,1.0,60,80.0
2290,F#4,295.0,1.0,60,80.0
2291,B-4,295.0,1.0,60,80.0
2292,G#2,296.0,2.0,39,80.0
2293,G#3,296.0,0.75,58,80.0
2294,E-4,296.0,0.75,58,80.0
2295,F#4,296.0,0.75,58,80.0
2296,G#4,296.0,0.75,58,80.0
2297,F3,296.75,0.25,49,80.0
2298,F3,297.0,2.0,44,80.0
2299,C#4,297.0,2.0,44,80.0
2300,G#4,297.0,2.0,44,80.0
2301,G#2,298.0,0.5,39,80.0
2302,A2,298.5,0.5,37,80.0
2303,B-2,299.0,0.5,39,80.0
2304,G#3,299.0,1.0,44,80.0
2305,C#4,299.0,1.0,44,80.0
2306,F4,299.0,1.0,44,80.0
2307,G#2,299.5,0.5,37,80.0
2308,C#2,300.0,2.0,33,80.0
2309,C#3,300.0,2.0,39,80.0
2310,B-3,300.0,1.0,39,80.0
2311,E-4,300.0,1.0,39,80.0
2312,F#4,300.0,1.0,39,80.0
2313,F4,301.0,2.0,47,80.0
2314,F#3,301.0,2.0,35,80.0
2315,C4,301.0,2.0,35,80.0
2316,C#3,302.0,1.0,39,80.0
2317,F#2,303.0,1.0,39,80.0
2318,G#2,304.0,2.0,29,80.0
2319,E-4,305.0,2.0,41,80.0
2320,F#3,305.0,2.0,35,80.0
2321,C4,305.0,2.0,35,80.0
2322,G#2,306.0,0.5,29,80.0
2323,A2,306.5,0.5,37,80.0
2324,F3,306.75,0.25,41,80.0
2325,C#4,306.875,0.125,41,80.0
2326,G#4,307.0,1.0,49,80.0
2327,F3,307.0,1.0,41,80.0
2328,C#4,307.0,2.0,41,80.0
2329,C3,307.0,333/1000,35,80.0
2330,B-2,307.333,333/1000,34,80.0
2331,G#2,307.667,333/1000,34,80.0
2332,C#2,308.0,1.0,41,80.0
2333,G#3,308.0,1.0,45,80.0
2334,F4,308.0,1.0,45,80.0
2335,C#4,309.0,1.0,41,80.0
2336,G3,309.0,1.0,44,80.0
2337,B-3,309.0,0.5,45,80.0
2338,F#4,309.0,0.5,45,80.0
2339,G#3,309.5,0.5,43,80.0
2340,F4,309.5,0.5,43,80.0
2341,E-4,310.0,1.0,41,80.0
2342,G#2,310.0,2.0,37,80.0
2343,F#3,310.0,1.0,44,80.0
2344,C4,310.0,0.5,40,80.0
2345,G#4,310.0,0.5,40,80.0
2346,B-3,310.5,0.5,38,80.0
2347,F#4,310.5,0.5,38,80.0
2348,F4,311.0,2.0,45,80.0
2349,B-3,311.0,0.75,44,80.0
2350,F#3,311.0,2.0,34,80.0
2351,C4,311.0,2.0,34,80.0
2352,G#3,311.75,0.25,49,80.0
2353,C#3,312.0,1.0,42,80.0
2354,G#3,312.0,1.0,42,80.0
2355,G3,313.0,1.0,44,80.0
2356,G#2,314.0,1.0,37,80.0
2357,F#3,314.0,2.0,44,80.0
2358,E-4,315.0,2.0,41,80.0
2359,F#2,315.0,0.875,37,80.0
2360,F#3,315.0,2.0,34,80.0
2361,C4,315.0,2.0,34,80.0
2362,F2,315.875,0.125,41,80.0
2363,A3,316.0,1.0,49,80.0
2364,F2,316.0,1.0,41,80.0
2365,C#4,317.0,2.0,40,80.0
2366,F3,317.0,1.0,47,80.0
2367,G#4,317.0,1.0,47,80.0
2368,A1,317.0,1.0,44,80.0
2369,A2,317.0,1.0,44,80.0
2370,E4,318.0,1.0,48,80.0
2371,B-4,318.0,1.0,48,80.0
2372,B-1,318.0,1.0,45,80.0
2373,B-2,318.0,1.0,45,80.0
2374,E-4,319.0,1.0,48,80.0
2375,C5,319.0,1.0,48,80.0
2376,C2,319.0,0.75,45,80.0
2377,C3,319.0,0.75,45,80.0
2378,C#2,319.75,0.25,41,80.0
2379,C#3,319.75,0.25,41,80.0
2380,C#5,320.0,0.75,58,80.0
2381,F#4,320.0,1.0,49,80.0
2382,D2,320.0,1.0,45,80.0
2383,D3,320.0,1.0,45,80.0
2384,C5,320.75,0.25,56,80.0
2385,E-5,320.75,0.25,56,80.0
2386,F4,321.0,1.0,50,80.0
2387,C#5,321.0,1.0,50,80.0
2388,F5,321.0,1.0,50,80.0
2389,E-2,321.0,0.75,45,80.0
2390,E-3,321.0,0.75,45,80.0
2391,F2,321.75,0.25,41,80.0
2392,F3,321.75,0.25,41,80.0
2393,C#4,322.0,1.0,46,80.0
2394,E4,322.0,1.0,46,80.0
2395,B-4,322.0,1.0,46,80.0
2396,F#2,322.0,1.0,45,80.0
2397,F#3,322.0,1.0,45,80.0
2398,E-4,323.0,2.0,44,80.0
2399,G#2,323.0,1.0,45,80.0
2400,C4,323.0,0.875,48,80.0
2401,C5,323.0,0.875,48,80.0
2402,B-3,323.875,1.125,56,80.0
2403,C#5,324.0,0.75,58,80.0
2404,C#2,324.0,333/1000,39,80.0
2405,G3,324.333,333/1000,33,80.0
2406,G#3,324.667,333/1000,31,80.0
2407,E-5,324.75,0.25,60,80.0
2408,C5,325.0,2.0,53,80.0
2409,B-3,325.0,333/1000,37,80.0
2410,F4,325.0,1.0,58,80.0
2411,F5,325.0,1.0,58,80.0
2412,G#3,325.333,333/1000,31,80.0
2413,G#2,325.667,333/1000,31,80.0
2414,F4,326.0,1.0,53,80.0
2415,E-5,326.0,1.0,60,80.0
2416,C#3,326.0,333/1000,39,80.0
2417,G3,326.333,333/1000,35,80.0
2418,G#3,326.667,333/1000,35,80.0
2419,F4,327.0,1.0,53,80.0
2420,B-3,327.0,333/1000,37,80.0
2421,C#4,327.0,1.0,60,80.0
2422,B-4,327.0,1.0,60,80.0
2423,C#5,327.0,1.0,60,80.0
2424,G#3,327.333,333/1000,33,80.0
2425,G#2,327.667,333/1000,33,80.0
2426,E-3,328.0,333/1000,39,80.0
2427,E4,328.0,0.75,56,80.0
2428,G#4,328.0,0.75,56,80.0
2429,C5,328.0,0.75,56,80.0
2430,G3,328.333,333/1000,35,80.0
2431,G#3,328.667,333/1000,35,80.0
2432,F4,328.75,0.25,57,80.0
2433,B-4,328.75,0.25,57,80.0
2434,B-3,329.0,333/1000,37,80.0
2435,B3,329.0,1.0,56,80.0
2436,F4,329.0,1.0,56,80.0
2437,G#4,329.0,1.0,56,80.0
2438,G#3,329.333,333/1000,33,80.0
2439,G#2,329.667,333/1000,33,80.0
2440,F#3,330.0,333/1000,39,80.0
2441,F#3,330.0,0.75,54,80.0
2442,B-3,330.0,0.75,54,80.0
2443,E-4,330.0,0.75,54,80.0
2444,F#4,330.0,0.75,54,80.0
2445,G3,330.333,333/1000,35,80.0
2446,G#3,330.667,333/1000,35,80.0
2447,G#3,330.75,0.25,53,80.0
2448,C#4,330.75,0.25,53,80.0
2449,F4,330.75,0.25,53,80.0
2450,E-4,331.0,1.5,59,80.0
2451,B-3,331.0,333/1000,37,80.0
2452,B-3,331.0,1.0,54,80.0
2453,C#4,331.0,1.0,54,80.0
2454,G#3,331.333,333/1000,33,80.0
2455,G#2,331.667,333/1000,33,80.0
2456,C#3,332.0,0.25,39,80.0
2457,F#3,332.0,0.75,50,80.0
2458,C4,332.0,0.75,50,80.0
2459,E4,332.5,0.25,60,80.0
2460,G3,332.5,0.25,34,80.0
2461,F4,332.75,0.25,55,80.0
2462,G#3,332.75,0.25,33,80.0
2463,C#5,332.875,0.125,60,80.0
2464,G#5,333.0,2.0,72,80.0
2465,F4,333.0,2.0,55,80.0
2466,C#5,333.0,2.0,60,80.0
2467,B-3,333.0,0.25,37,80.0
2468,G#3,333.25,9/40,31,80.0
2469,G#3,333.5,0.25,37,80.0
2470,G#2,333.75,0.25,37,80.0
2471,C#3,334.0,0.25,39,80.0
2472,G3,334.5,0.25,35,80.0
2473,G#3,334.75,0.25,35,80.0
2474,B-3,335.0,0.25,37,80.0
2475,G#4,335.0,1.0,53,80.0
2476,C#5,335.0,1.0,53,80.0
2477,F5,335.0,1.0,53,80.0
2478,G#3,335.25,9/40,33,80.0
2479,G#3,335.5,0.25,37,80.0
2480,G#2,335.75,0.25,31,80.0
2481,E-3,336.0,0.25,39,80.0
2482,F4,336.0,0.5,36,80.0
2483,G#4,336.0,0.5,36,80.0
2484,G3,336.5,0.25,35,80.0
2485,B-4,336.5,0.5,46,80.0
2486,E-5,336.5,0.5,46,80.0
2487,F#5,336.5,0.5,46,80.0
2488,G#3,336.75,0.25,35,80.0
2489,F5,337.0,1.5,68,80.0
2490,B-3,337.0,0.25,37,80.0
2491,F#4,337.0,2.0,38,80.0
2492,C5,337.0,2.0,38,80.0
2493,G#3,337.25,9/40,33,80.0
2494,G#3,337.5,0.25,37,80.0
2495,G#2,337.75,0.25,33,80.0
2496,F#3,338.0,0.5,39,80.0
2497,E-5,338.5,0.5,55,80.0
2498,G3,338.5,0.25,35,80.0
2499,G#3,338.75,0.25,35,80.0
2500,B-4,339.0,0.5,58,80.0
2501,B-3,339.0,0.25,39,80.0
2502,G#3,339.25,9/40,35,80.0
2503,G#4,339.5,0.5,52,80.0
2504,G#3,339.5,0.25,39,80.0
2505,G#2,339.75,0.25,35,80.0
2506,C#4,340.0,0.5,61,80.0
2507,C#3,340.0,0.25,44,80.0
2508,G#3,340.25,0.25,39,80.0
2509,E-4,340.5,0.25,55,80.0
2510,B-3,340.5,0.25,39,80.0
2511,F4,340.75,0.25,62,80.0
2512,G#3,340.75,0.25,39,80.0
2513,C#5,341.0,2.0,57,80.0
2514,F4,341.0,0.25,44,80.0
2515,F4,341.0,1.0,62,80.0
2516,G#5,341.0,1.0,62,80.0
2517,G#3,341.25,0.25,40,80.0
2518,B-3,341.5,0.25,40,80.0
2519,G#3,341.75,0.25,41,80.0
2520,G#2,342.0,0.25,45,80.0
2521,G#4,342.0,1.0,56,80.0
2522,F5,342.0,1.0,56,80.0
2523,G#3,342.25,0.25,40,80.0
2524,B-3,342.5,0.25,41,80.0
2525,G#3,342.75,0.25,41,80.0
2526,C#5,343.0,1.0,57,80.0
2527,F#4,343.0,0.25,47,80.0
2528,B-4,343.0,0.5,60,80.0
2529,F#5,343.0,0.5,60,80.0
2530,G#3,343.25,0.25,44,80.0
2531,B-3,343.5,0.25,44,80.0
2532,G#4,343.5,0.5,50,80.0
2533,F5,343.5,0.5,50,80.0
2534,G#3,343.75,0.25,44,80.0
2535,C#3,344.0,0.25,48,80.0
2536,G#4,344.0,333/1000,52,80.0
2537,F5,344.0,333/1000,52,80.0
2538,G#3,344.25,0.25,42,80.0
2539,C5,344.333,333/1000,50,80.0
2540,G#5,344.333,333/1000,50,80.0
2541,B-3,344.5,0.25,42,80.0
2542,B-4,344.667,333/1000,50,80.0
2543,F#5,344.667,333/1000,50,80.0
2544,G#3,344.75,0.25,42,80.0
2545,F5,345.0,1.5,61,80.0
2546,F4,345.0,0.25,49,80.0
2547,F#4,345.0,2.0,34,80.0
2548,C5,345.0,2.0,34,80.0
2549,G#3,345.25,0.25,46,80.0
2550,B-3,345.5,0.25,46,80.0
2551,G#3,345.75,0.25,46,80.0
2552,G#2,346.0,0.25,50,80.0
2553,G#3,346.25,0.25,46,80.0
2554,E-5,346.5,0.5,60,80.0
2555,B-3,346.5,0.25,46,80.0
2556,G#3,346.75,0.25,46,80.0
2557,B-4,347.0,333/1000,60,80.0
2558,F#4,347.0,0.25,52,80.0
2559,G#3,347.25,0.25,49,80.0
2560,G#4,347.333,333/1000,51,80.0
2561,B-3,347.5,0.25,49,80.0
2562,B-4,347.667,333/1000,51,80.0
2563,G#3,347.75,0.25,49,80.0
2564,G#4,348.0,333/1000,58,80.0
2565,A2,348.0,0.25,57,80.0
2566,E3,348.25,0.25,51,80.0
2567,C#4,348.333,333/1000,53,80.0
2568,F3,348.5,0.25,51,80.0
2569,E-4,348.667,333/1000,53,80.0
2570,C4,348.75,0.25,51,80.0
2571,G#4,349.0,1.0,61,80.0
2572,A3,349.0,0.25,58,80.0
2573,C#5,349.0,2.0,66,80.0
2574,G#5,349.0,2.0,66,80.0
2575,E4,349.25,0.25,53,80.0
2576,F4,349.5,0.25,53,80.0
2577,C5,349.75,0.25,53,80.0
2578,B-2,350.0,0.25,59,80.0
2579,B-4,350.0,1.0,62,80.0
2580,B-5,350.0,1.0,62,80.0
2581,E3,350.25,0.25,52,80.0
2582,F3,350.5,0.25,52,80.0
2583,C#4,350.75,0.25,53,80.0
2584,B-3,351.0,0.25,60,80.0
2585,G#5,351.0,2.0,61,80.0
2586,F#5,351.0,2.0,61,80.0
2587,C5,351.0,1.0,67,80.0
2588,C6,351.0,1.0,67,80.0
2589,E4,351.25,0.25,55,80.0
2590,F4,351.5,0.25,55,80.0
2591,C#5,351.75,0.25,56,80.0
2592,C3,352.0,0.25,61,80.0
2593,C#5,352.0,0.75,72,80.0
2594,C#6,352.0,0.75,72,80.0
2595,G3,352.25,0.25,55,80.0
2596,G#3,352.5,0.25,55,80.0
2597,E-4,352.75,0.25,55,80.0
2598,E-5,352.75,0.25,72,80.0
2599,E-6,352.75,0.25,72,80.0
2600,F6,353.0,1.0,78,80.0
2601,C4,353.0,0.25,62,80.0
2602,G#5,353.0,2.0,66,80.0
2603,F5,353.0,2.0,66,80.0
2604,G4,353.25,0.25,57,80.0
2605,G#4,353.5,0.25,57,80.0
2606,E-5,353.75,0.25,57,80.0
2607,D3,354.0,0.25,62,80.0
2608,B-5,354.0,1.0,67,80.0
2609,B-4,354.0,1.0,67,80.0
2610,A3,354.25,0.25,56,80.0
2611,B-3,354.5,0.25,57,80.0
2612,F4,354.75,0.25,57,80.0
2613,D4,355.0,0.25,63,80.0
2614,C5,355.0,1.0,69,80.0
2615,C6,355.0,1.0,69,80.0
2616,G#5,355.0,1.0,69,80.0
2617,F#5,355.0,1.0,69,80.0
2618,A4,355.25,0.25,58,80.0
2619,B-4,355.5,0.25,59,80.0
2620,E-2,356.0,0.25,59,80.0
2621,C#6,356.0,0.75,72,80.0
2622,C#5,356.0,0.75,72,80.0
2623,B-2,356.25,0.25,52,80.0
2624,E-3,356.5,0.25,52,80.0
2625,B-3,356.75,0.25,52,80.0
2626,E-5,356.75,0.25,70,80.0
2627,E-6,356.75,0.25,70,80.0
2628,F2,357.0,0.25,59,80.0
2629,C6,357.0,2.0,70,80.0
2630,E-6,357.0,2.0,70,80.0
2631,F5,357.0,1.0,76,80.0
2632,F6,357.0,1.0,76,80.0
2633,B-2,357.25,0.25,52,80.0
2634,D3,357.5,0.25,52,80.0
2635,G#3,357.75,0.25,52,80.0
2636,F#2,358.0,0.25,62,80.0
2637,F#5,358.0,1.0,72,80.0
2638,F#6,358.0,1.0,72,80.0
2639,B-2,358.25,0.25,52,80.0
2640,E-3,358.5,0.25,52,80.0
2641,B-3,358.75,0.25,52,80.0
2642,G2,359.0,0.25,61,80.0
2643,C#3,359.25,0.25,52,80.0
2644,E3,359.5,0.25,52,80.0
2645,B-5,359.5,2.0,74,80.0
2646,C#6,359.5,2.0,74,80.0
2647,F#5,359.5,0.5,72,80.0
2648,F#6,359.5,0.5,72,80.0
2649,B-3,359.75,0.25,52,80.0
2650,G#2,360.0,0.25,59,80.0
2651,F5,360.0,0.5,70,80.0
2652,F6,360.0,0.5,70,80.0
2653,C#3,360.25,0.25,52,80.0
2654,F3,360.5,0.25,52,80.0
2655,E5,360.5,0.5,69,80.0
2656,E6,360.5,0.5,69,80.0
2657,C#4,360.75,0.25,52,80.0
2658,B-2,361.0,0.25,58,80.0
2659,F5,361.0,0.5,69,80.0
2660,F6,361.0,0.5,69,80.0
2661,C#3,361.25,0.25,52,80.0
2662,F#3,361.5,0.25,52,80.0
2663,E-6,361.5,2.0,64,80.0
2664,F#6,361.5,2.0,64,80.0
2665,G#6,361.5,1.0,78,80.0
2666,G#5,361.5,1.0,78,80.0
2667,C#4,361.75,0.25,52,80.0
2668,G#2,362.0,0.25,52,80.0
2669,E-3,362.25,0.25,47,80.0
2670,G#3,362.5,0.25,47,80.0
2671,B-5,362.5,1.0,77,80.0
2672,B-6,362.5,1.0,77,80.0
2673,C#4,362.75,0.25,47,80.0
2674,F#2,363.0,0.25,55,80.0
2675,C3,363.25,0.25,47,80.0
2676,E-3,363.5,0.25,47,80.0
2677,G#3,363.75,0.25,47,80.0
2678,F6,364.0,1.0,81,80.0
2679,F2,364.0,0.25,55,80.0
2680,B-5,364.0,0.5,77,80.0
2681,B-6,364.0,0.5,77,80.0
2682,G#2,364.25,0.25,47,80.0
2683,C#3,364.5,0.25,47,80.0
2684,G#5,364.5,0.5,74,80.0
2685,G#6,364.5,0.5,74,80.0
2686,G#3,364.75,0.25,47,80.0
2687,B-5,365.0,1.0,62,80.0
2688,B-2,365.0,0.25,56,80.0
2689,F#5,365.0,0.75,77,80.0
2690,F#6,365.0,0.75,77,80.0
2691,C#3,365.25,0.25,47,80.0
2692,F#3,365.5,0.25,47,80.0
2693,C#4,365.75,0.25,47,80.0
2694,F6,365.75,0.25,72,80.0
2695,F5,365.75,0.25,72,80.0
2696,B-5,366.0,1.0,73,80.0
2697,A2,366.0,0.25,55,80.0
2698,G#5,366.0,0.5,80,80.0
2699,G#6,366.0,0.5,80,80.0
2700,C#3,366.25,0.25,47,80.0
2701,F#3,366.5,0.25,47,80.0
2702,F#5,366.5,0.5,66,80.0
2703,F#6,366.5,0.5,66,80.0
2704,C#4,366.75,0.25,47,80.0
2705,B-5,367.0,1.0,53,80.0
2706,G#2,367.0,0.25,51,80.0
2707,F5,367.0,0.5,66,80.0
2708,F6,367.0,0.5,66,80.0
2709,E-3,367.25,0.25,47,80.0
2710,C4,367.5,0.25,47,80.0
2711,D5,367.5,0.5,66,80.0
2712,D6,367.5,0.5,66,80.0
2713,F#2,367.75,0.25,47,80.0
2714,B-5,368.0,1.0,61,80.0
2715,F2,368.0,0.25,56,80.0
2716,F6,368.0,0.5,75,80.0
2717,F5,368.0,0.5,75,80.0
2718,G#2,368.25,0.25,47,80.0
2719,C#3,368.5,0.25,46,80.0
2720,E-6,368.5,0.5,66,80.0
2721,E-5,368.5,0.5,66,80.0
2722,G#3,368.75,0.25,46,80.0
2723,E5,369.0,1.0,53,80.0
2724,B-2,369.0,0.25,53,80.0
2725,B-5,369.0,0.5,66,80.0
2726,B-4,369.0,0.5,66,80.0
2727,C#3,369.25,0.25,45,80.0
2728,F#3,369.5,0.25,44,80.0
2729,C#6,369.5,0.5,62,80.0
2730,C#5,369.5,0.5,62,80.0
2731,C#4,369.75,0.25,44,80.0
2732,F5,370.0,1.0,64,80.0
2733,G#2,370.0,0.25,50,80.0
2734,B-4,370.0,0.5,73,80.0
2735,B-5,370.0,0.5,73,80.0
2736,E-3,370.25,0.25,42,80.0
2737,G#3,370.5,0.25,42,80.0
2738,G#5,370.5,0.5,67,80.0
2739,G#4,370.5,0.5,67,80.0
2740,C#4,370.75,0.25,41,80.0
2741,C#5,371.0,1.0,73,80.0
2742,G#2,371.0,0.25,49,80.0
2743,F#4,371.0,0.5,61,80.0
2744,C#4,371.0,0.5,61,80.0
2745,E-3,371.25,0.25,41,80.0
2746,G#3,371.5,0.25,40,80.0
2747,F#4,371.5,0.5,68,80.0
2748,F#5,371.5,0.5,68,80.0
2749,C4,371.75,0.25,40,80.0
2750,C#4,372.0,1.0,70,80.0
2751,F#4,372.0,1.0,70,80.0
2752,C#5,372.0,1.0,70,80.0
2753,E-5,372.0,1.0,70,80.0
2754,C#4,372.0,333/1000,59,80.0
2755,C#3,372.0,333/1000,59,80.0
2756,G#3,372.0,333/1000,59,80.0
2757,E-3,372.333,167/1000,45,80.0
2758,G3,372.333,167/1000,45,80.0
2759,C#4,372.333,167/1000,45,80.0
2760,C#4,372.667,167/1000,45,80.0
2761,G3,372.667,167/1000,45,80.0
2762,E-3,372.667,167/1000,45,80.0
2763,C5,373.0,1.0,51,80.0
2764,F4,373.0,0.5,67,80.0
2765,F5,373.0,0.5,67,80.0
2766,C#4,373.0,333/1000,49,80.0
2767,G3,373.0,333/1000,49,80.0
2768,E-3,373.0,333/1000,49,80.0
2769,G#3,373.333,167/1000,46,80.0
2770,C4,373.333,167/1000,46,80.0
2771,F#4,373.5,0.5,65,80.0
2772,F#5,373.5,0.5,65,80.0
2773,E-4,373.667,167/1000,45,80.0
2774,G#4,373.667,167/1000,45,80.0
2775,G#3,373.667,167/1000,45,80.0
2776,C#5,374.0,1.0,46,80.0
2777,B-4,374.0,0.5,68,80.0
2778,B-5,374.0,0.5,68,80.0
2779,G#4,374.0,333/1000,49,80.0
2780,G#3,374.0,333/1000,49,80.0
2781,E-4,374.0,333/1000,49,80.0
2782,C#4,374.333,167/1000,46,80.0
2783,G#4,374.333,167/1000,46,80.0
2784,A4,374.5,0.5,60,80.0
2785,A5,374.5,0.5,60,80.0
2786,C#5,374.667,167/1000,48,80.0
2787,E-4,374.667,167/1000,48,80.0
2788,G4,374.667,167/1000,48,80.0
2789,C#5,375.0,333/1000,65,80.0
2790,G#4,375.0,333/1000,65,80.0
2791,G#5,375.0,333/1000,65,80.0
2792,E-4,375.0,333/1000,53,80.0
2793,G4,375.0,333/1000,53,80.0
2794,C#5,375.0,333/1000,53,80.0
2795,C#5,375.333,667/1000,70,80.0
2796,C#4,375.333,333/1000,60,80.0
2797,G#4,375.333,167/1000,46,80.0
2798,C5,375.333,167/1000,46,80.0
2799,F#4,375.667,333/1000,65,80.0
2800,F#5,375.667,333/1000,65,80.0
2801,G#5,375.667,167/1000,45,80.0
2802,E-5,375.667,167/1000,45,80.0
2803,G#4,375.667,167/1000,45,80.0
2804,E-4,376.0,0.5,73,80.0
2805,E-5,376.0,0.5,73,80.0
2806,F#4,376.0,1.0,66,80.0
2807,C#5,376.0,1.0,66,80.0
2808,G#4,376.0,333/1000,49,80.0
2809,G#5,376.0,333/1000,49,80.0
2810,E-5,376.0,333/1000,49,80.0
2811,G#5,376.333,167/1000,46,80.0
2812,C#5,376.333,167/1000,46,80.0
2813,F4,376.5,0.25,62,80.0
2814,F5,376.5,0.25,62,80.0
2815,E-4,376.667,167/1000,47,80.0
2816,C#5,376.667,167/1000,47,80.0
2817,G4,376.667,167/1000,47,80.0
2818,E-4,376.75,0.25,58,80.0
2819,E-5,376.75,0.25,58,80.0
2820,C5,377.0,1.0,61,80.0
2821,D4,377.0,0.25,67,80.0
2822,D5,377.0,0.25,67,80.0
2823,C#5,377.0,333/1000,49,80.0
2824,G4,377.0,333/1000,49,80.0
2825,E-4,377.0,333/1000,49,80.0
2826,E-4,377.25,0.25,62,80.0
2827,E-5,377.25,0.25,62,80.0
2828,G#4,377.333,167/1000,48,80.0
2829,C5,377.333,167/1000,48,80.0
2830,F4,377.5,0.25,67,80.0
2831,F5,377.5,0.25,67,80.0
2832,G#3,377.667,167/1000,47,80.0
2833,E-4,377.667,167/1000,47,80.0
2834,G#4,377.667,167/1000,47,80.0
2835,F#4,377.75,0.25,64,80.0
2836,F#5,377.75,0.25,64,80.0
2837,C#5,378.0,667/1000,70,80.0
2838,G4,378.0,333/1000,76,80.0
2839,G5,378.0,333/1000,76,80.0
2840,G#4,378.0,333/1000,49,80.0
2841,E-4,378.0,333/1000,49,80.0
2842,G#3,378.0,333/1000,49,80.0
2843,G#4,378.333,333/1000,72,80.0
2844,G#5,378.333,333/1000,72,80.0
2845,G#4,378.333,167/1000,48,80.0
2846,C#4,378.333,167/1000,48,80.0
2847,F5,378.667,333/1000,73,80.0
2848,F6,378.667,333/1000,73,80.0
2849,C#4,378.667,167/1000,47,80.0
2850,E-3,378.667,167/1000,47,80.0
2851,G3,378.667,167/1000,47,80.0
2852,F#5,379.0,667/1000,70,80.0
2853,E-5,379.0,333/1000,76,80.0
2854,E-6,379.0,333/1000,76,80.0
2855,C#4,379.0,333/1000,49,80.0
2856,G3,379.0,333/1000,49,80.0
2857,E-3,379.0,333/1000,49,80.0
2858,C#5,379.333,333/1000,68,80.0
2859,C#6,379.333,333/1000,68,80.0
2860,G#3,379.333,167/1000,48,80.0
2861,C4,379.333,167/1000,48,80.0
2862,C#5,379.667,333/1000,71,80.0
2863,F#5,379.667,333/1000,71,80.0
2864,F#4,379.667,333/1000,71,80.0
2865,G#3,379.667,167/1000,47,80.0
2866,G#2,379.667,167/1000,47,80.0
2867,E-3,379.667,167/1000,47,80.0
2868,E-5,380.0,1.875,82,80.0
2869,G#4,380.0,1.5,69,80.0
2870,E-4,380.0,1.0,69,80.0
2871,C#5,380.0,1.0,69,80.0
2872,G#3,380.0,333/1000,49,80.0
2873,E-3,380.0,333/1000,49,80.0
2874,G#2,380.0,333/1000,49,80.0
2875,C#3,380.333,167/1000,43,80.0
2876,G#3,380.333,167/1000,43,80.0
2877,G3,380.667,167/1000,38,80.0
2878,C#4,380.667,167/1000,38,80.0
2879,F#4,381.0,0.5,61,80.0
2880,C5,381.0,0.5,61,80.0
2881,G3,381.0,333/1000,40,80.0
2882,C#4,381.0,333/1000,40,80.0
2883,G#3,381.333,167/1000,38,80.0
2884,C4,381.333,167/1000,38,80.0
2885,E-4,381.667,167/1000,31,80.0
2886,G#4,381.667,167/1000,31,80.0
2887,G#3,381.667,167/1000,31,80.0
2888,C#5,381.875,0.125,73,80.0
2889,F4,382.0,333/1000,78,80.0
2890,C#5,382.0,333/1000,78,80.0
2891,G#4,382.0,333/1000,35,80.0
2892,E-4,382.0,333/1000,35,80.0
2893,G#3,382.0,333/1000,35,80.0
2894,E-4,382.333,167/1000,68,80.0
2895,B-4,382.333,167/1000,68,80.0
2896,C#4,382.333,167/1000,32,80.0
2897,G#4,382.333,167/1000,32,80.0
2898,B-4,382.667,167/1000,68,80.0
2899,E-4,382.667,167/1000,68,80.0
2900,G4,382.667,167/1000,36,80.0
2901,C#5,382.667,167/1000,36,80.0
2902,E-4,383.0,333/1000,68,80.0
2903,B-4,383.0,333/1000,68,80.0
2904,G4,383.0,333/1000,39,80.0
2905,C#5,383.0,333/1000,39,80.0
2906,G#4,383.333,167/1000,71,80.0
2907,C5,383.333,167/1000,32,80.0
2908,G#4,383.333,167/1000,32,80.0
2909,C5,383.667,167/1000,68,80.0
2910,F#5,383.667,167/1000,68,80.0
2911,G#4,383.667,167/1000,28,80.0
2912,E-5,383.667,167/1000,28,80.0
2913,G#5,383.667,167/1000,28,80.0
2914,C5,384.0,333/1000,69,80.0
2915,F#5,384.0,333/1000,69,80.0
2916,G#5,384.0,333/1000,31,80.0
2917,E-5,384.0,333/1000,31,80.0
2918,G#4,384.0,333/1000,31,80.0
2919,C#5,384.333,167/1000,68,80.0
2920,F5,384.333,167/1000,68,80.0
2921,C#5,384.333,167/1000,28,80.0
2922,G#5,384.333,167/1000,28,80.0
2923,E-5,384.667,167/1000,68,80.0
2924,B-5,384.667,167/1000,68,80.0
2925,C#5,384.667,167/1000,36,80.0
2926,G4,384.667,167/1000,36,80.0
2927,B-5,385.0,333/1000,71,80.0
2928,E-5,385.0,333/1000,71,80.0
2929,G4,385.0,333/1000,38,80.0
2930,C#5,385.0,333/1000,38,80.0
2931,G#5,385.333,167/1000,73,80.0
2932,G#4,385.333,167/1000,36,80.0
2933,C5,385.333,167/1000,36,80.0
2934,F#6,385.667,167/1000,68,80.0
2935,C6,385.667,167/1000,68,80.0
2936,G#4,385.667,167/1000,35,80.0
2937,E-4,385.667,167/1000,35,80.0
2938,G#3,385.667,167/1000,35,80.0
2939,C6,386.0,333/1000,71,80.0
2940,F#6,386.0,333/1000,71,80.0
2941,E-4,386.0,333/1000,37,80.0
2942,G#4,386.0,333/1000,37,80.0
2943,G#3,386.0,333/1000,37,80.0
2944,C#6,386.333,167/1000,68,80.0
2945,F6,386.333,167/1000,68,80.0
2946,C#4,386.333,167/1000,36,80.0
2947,G#4,386.333,167/1000,36,80.0
2948,B-5,386.667,167/1000,68,80.0
2949,E-5,386.667,167/1000,68,80.0
2950,G3,386.667,167/1000,36,80.0
2951,C#4,386.667,167/1000,36,80.0
2952,E-5,387.0,333/1000,68,80.0
2953,B-5,387.0,333/1000,68,80.0
2954,G3,387.0,333/1000,38,80.0
2955,C#4,387.0,333/1000,38,80.0
2956,G#5,387.333,167/1000,72,80.0
2957,G#3,387.333,167/1000,36,80.0
2958,C4,387.333,167/1000,36,80.0
2959,C5,387.667,167/1000,68,80.0
2960,F#5,387.667,167/1000,68,80.0
2961,G#2,387.667,167/1000,45,80.0
2962,G#3,387.667,167/1000,45,80.0
2963,F#5,388.0,333/1000,68,80.0
2964,C5,388.0,333/1000,68,80.0
2965,G#2,388.0,333/1000,43,80.0
2966,G#3,388.0,333/1000,43,80.0
2967,C#5,388.333,167/1000,66,80.0
2968,F5,388.333,167/1000,66,80.0
2969,G2,388.333,167/1000,36,80.0
2970,G3,388.333,167/1000,36,80.0
2971,B-4,388.667,167/1000,68,80.0
2972,E-4,388.667,167/1000,68,80.0
2973,G3,388.667,167/1000,42,80.0
2974,A3,388.667,167/1000,42,80.0
2975,E-4,389.0,333/1000,71,80.0
2976,B-4,389.0,333/1000,71,80.0
2977,A3,389.0,333/1000,43,80.0
2978,G3,389.0,333/1000,43,80.0
2979,G#4,389.333,167/1000,74,80.0
2980,B3,389.333,167/1000,35,80.0
2981,G3,389.333,167/1000,35,80.0
2982,C4,389.667,167/1000,68,80.0
2983,F#4,389.667,167/1000,68,80.0
2984,D4,389.667,167/1000,40,80.0
2985,G3,389.667,167/1000,40,80.0
2986,C4,390.0,333/1000,71,80.0
2987,F#4,390.0,333/1000,71,80.0
2988,D4,390.0,333/1000,43,80.0
2989,G3,390.0,333/1000,43,80.0
2990,F4,390.333,167/1000,62,80.0
2991,C#4,390.333,167/1000,62,80.0
2992,G3,390.333,167/1000,36,80.0
2993,C4,390.333,167/1000,36,80.0
2994,E4,390.333,167/1000,36,80.0
2995,A4,390.667,167/1000,54,80.0
2996,E4,390.667,167/1000,54,80.0
2997,A4,390.667,167/1000,44,80.0
2998,G3,390.667,167/1000,44,80.0
2999,D4,390.667,167/1000,44,80.0
3000,A4,391.0,333/1000,56,80.0
3001,E4,391.0,333/1000,56,80.0
3002,A4,391.0,333/1000,47,80.0
3003,G3,391.0,333/1000,47,80.0
3004,D4,391.0,333/1000,47,80.0
3005,E-4,391.333,167/1000,54,80.0
3006,G#4,391.333,167/1000,54,80.0
3007,D4,391.333,167/1000,40,80.0
3008,G4,391.333,167/1000,40,80.0
3009,G3,391.333,167/1000,40,80.0
3010,C5,391.667,167/1000,48,80.0
3011,F#5,391.667,167/1000,48,80.0
3012,D4,391.667,167/1000,42,80.0
3013,G3,391.667,167/1000,42,80.0
3014,G4,391.667,167/1000,42,80.0
3015,C5,392.0,333/1000,50,80.0
3016,F#5,392.0,333/1000,50,80.0
3017,G3,392.0,333/1000,42,80.0
3018,G4,392.0,333/1000,42,80.0
3019,D4,392.0,333/1000,42,80.0
3020,C#5,392.333,167/1000,48,80.0
3021,F5,392.333,167/1000,48,80.0
3022,G#4,392.333,333/1000,42,80.0
3023,D4,392.333,333/1000,42,80.0
3024,F3,392.667,333/1000,61,80.0
3025,E5,392.667,167/1000,48,80.0
3026,A5,392.667,167/1000,48,80.0
3027,A5,393.0,333/1000,50,80.0
3028,E5,393.0,333/1000,50,80.0
3029,F4,393.0,333/1000,52,80.0
3030,G#3,393.0,333/1000,52,80.0
3031,D3,393.333,333/1000,62,80.0
3032,E-5,393.333,167/1000,46,80.0
3033,G#5,393.333,167/1000,46,80.0
3034,C6,393.667,167/1000,42,80.0
3035,F#6,393.667,167/1000,42,80.0
3036,G#3,393.667,333/1000,54,80.0
3037,D4,393.667,333/1000,54,80.0
3038,B2,394.0,333/1000,64,80.0
3039,C6,394.0,333/1000,44,80.0
3040,F#6,394.0,333/1000,44,80.0
3041,C#6,394.333,167/1000,42,80.0
3042,F6,394.333,167/1000,42,80.0
3043,F3,394.333,333/1000,55,80.0
3044,B3,394.333,333/1000,55,80.0
3045,G#2,394.667,333/1000,69,80.0
3046,A5,394.667,167/1000,51,80.0
3047,E5,394.667,167/1000,51,80.0
3048,E5,395.0,333/1000,54,80.0
3049,A5,395.0,333/1000,54,80.0
3050,D3,395.0,333/1000,58,80.0
3051,G#3,395.0,333/1000,58,80.0
3052,F2,395.333,333/1000,77,80.0
3053,G#5,395.333,167/1000,50,80.0
3054,E-5,395.333,167/1000,50,80.0
3055,C5,395.667,167/1000,52,80.0
3056,F#5,395.667,167/1000,52,80.0
3057,F1,395.667,333/1000,69,80.0
3058,F2,395.667,333/1000,69,80.0
3059,C5,396.0,333/1000,54,80.0
3060,F#5,396.0,333/1000,54,80.0
3061,E2,396.0,333/1000,42,80.0
3062,E1,396.0,333/1000,42,80.0
3063,C#5,396.333,167/1000,51,80.0
3064,F5,396.333,167/1000,51,80.0
3065,E3,396.333,333/1000,43,80.0
3066,E2,396.333,333/1000,43,80.0
3067,A4,396.667,167/1000,52,80.0
3068,E4,396.667,167/1000,52,80.0
3069,E3,396.667,333/1000,44,80.0
3070,E2,396.667,333/1000,44,80.0
3071,E4,397.0,333/1000,54,80.0
3072,A4,397.0,333/1000,54,80.0
3073,E3,397.0,333/1000,44,80.0
3074,E2,397.0,333/1000,44,80.0
3075,G#4,397.333,167/1000,50,80.0
3076,E-4,397.333,167/1000,50,80.0
3077,E2,397.333,333/1000,44,80.0
3078,E3,397.333,333/1000,44,80.0
3079,E-4,397.667,167/1000,55,80.0
3080,C4,397.667,167/1000,55,80.0
3081,F#4,397.667,167/1000,55,80.0
3082,E2,397.667,333/1000,45,80.0
3083,E3,397.667,333/1000,45,80.0
3084,E-4,398.0,333/1000,52,80.0
3085,C4,398.0,333/1000,52,80.0
3086,F#4,398.0,333/1000,52,80.0
3087,E2,398.0,333/1000,46,80.0
3088,E3,398.0,333/1000,46,80.0
3089,E4,398.333,167/1000,44,80.0
3090,C4,398.333,167/1000,44,80.0
3091,G4,398.333,167/1000,44,80.0
3092,E-2,398.333,333/1000,48,80.0
3093,E-3,398.333,333/1000,48,80.0
3094,D4,398.667,167/1000,51,80.0
3095,F#4,398.667,167/1000,51,80.0
3096,C5,398.667,167/1000,51,80.0
3097,E-2,398.667,333/1000,48,80.0
3098,E-3,398.667,333/1000,48,80.0
3099,F#4,399.0,333/1000,52,80.0
3100,C5,399.0,333/1000,52,80.0
3101,D4,399.0,333/1000,52,80.0
3102,E-2,399.0,333/1000,52,80.0
3103,E-3,399.0,333/1000,52,80.0
3104,D4,399.333,167/1000,44,80.0
3105,G4,399.333,167/1000,44,80.0
3106,B4,399.333,167/1000,44,80.0
3107,E2,399.333,333/1000,48,80.0
3108,E3,399.333,333/1000,48,80.0
3109,F4,399.667,167/1000,49,80.0
3110,G4,399.667,167/1000,49,80.0
3111,B4,399.667,167/1000,49,80.0
3112,F5,399.667,167/1000,49,80.0
3113,E3,399.667,333/1000,48,80.0
3114,E2,399.667,333/1000,48,80.0
3115,F4,400.0,333/1000,52,80.0
3116,G4,400.0,333/1000,52,80.0
3117,F5,400.0,333/1000,52,80.0
3118,B4,400.0,333/1000,52,80.0
3119,E2,400.0,167/1000,51,80.0
3120,E3,400.0,167/1000,51,80.0
3121,G4,400.333,167/1000,47,80.0
3122,C5,400.333,167/1000,47,80.0
3123,E5,400.333,167/1000,47,80.0
3124,E2,400.333,167/1000,52,80.0
3125,E3,400.333,167/1000,52,80.0
3126,C6,400.667,167/1000,50,80.0
3127,D5,400.667,167/1000,50,80.0
3128,F#5,400.667,167/1000,50,80.0
3129,C5,400.667,167/1000,50,80.0
3130,E2,400.667,167/1000,53,80.0
3131,E3,400.667,167/1000,53,80.0
3132,C5,401.0,333/1000,52,80.0
3133,D5,401.0,333/1000,52,80.0
3134,F#5,401.0,333/1000,52,80.0
3135,C6,401.0,333/1000,52,80.0
3136,E2,401.0,167/1000,54,80.0
3137,E3,401.0,167/1000,54,80.0
3138,G5,401.333,167/1000,46,80.0
3139,B5,401.333,167/1000,46,80.0
3140,B4,401.333,167/1000,46,80.0
3141,E2,401.333,167/1000,54,80.0
3142,E3,401.333,167/1000,54,80.0
3143,F5,401.667,167/1000,50,80.0
3144,G5,401.667,167/1000,50,80.0
3145,B5,401.667,167/1000,50,80.0
3146,F6,401.667,167/1000,50,80.0
3147,E3,401.667,167/1000,56,80.0
3148,E2,401.667,167/1000,56,80.0
3149,F5,402.0,333/1000,52,80.0
3150,G5,402.0,333/1000,52,80.0
3151,B5,402.0,333/1000,52,80.0
3152,F6,402.0,333/1000,52,80.0
3153,E2,402.0,167/1000,57,80.0
3154,E3,402.0,167/1000,57,80.0
3155,D5,402.333,333/1000,54,80.0
3156,B-4,402.333,333/1000,54,80.0
3157,E-2,402.333,167/1000,57,80.0
3158,E-3,402.333,167/1000,57,80.0
3159,B4,402.667,333/1000,73,80.0
3160,G#5,402.667,333/1000,73,80.0
3161,E-2,402.667,167/1000,58,80.0
3162,E-3,402.667,167/1000,58,80.0
3163,C#5,403.0,333/1000,71,80.0
3164,F5,403.0,333/1000,71,80.0
3165,E-3,403.0,167/1000,58,80.0
3166,E-2,403.0,167/1000,58,80.0
3167,D5,403.333,333/1000,78,80.0
3168,B5,403.333,333/1000,78,80.0
3169,E3,403.333,167/1000,60,80.0
3170,E2,403.333,167/1000,60,80.0
3171,E5,403.667,333/1000,72,80.0
3172,G#5,403.667,333/1000,72,80.0
3173,E3,403.667,167/1000,62,80.0
3174,E2,403.667,167/1000,62,80.0
3175,F5,404.0,333/1000,82,80.0
3176,D6,404.0,333/1000,82,80.0
3177,F3,404.0,167/1000,63,80.0
3178,F2,404.0,167/1000,63,80.0
3179,B5,404.333,333/1000,78,80.0
3180,G5,404.333,333/1000,78,80.0
3181,G#3,404.333,333/1000,57,80.0
3182,C#3,404.333,333/1000,57,80.0
3183,C#4,404.333,333/1000,57,80.0
3184,F6,404.667,333/1000,85,80.0
3185,G#5,404.667,333/1000,85,80.0
3186,G#3,404.667,333/1000,58,80.0
3187,C#3,404.667,333/1000,58,80.0
3188,C#4,404.667,333/1000,58,80.0
3189,B-5,405.0,333/1000,80,80.0
3190,D6,405.0,333/1000,80,80.0
3191,C#3,405.0,333/1000,60,80.0
3192,G#3,405.0,333/1000,60,80.0
3193,C#4,405.0,333/1000,60,80.0
3194,B5,405.333,333/1000,86,80.0
3195,G#6,405.333,333/1000,86,80.0
3196,B5,405.667,333/1000,84,80.0
3197,B6,405.667,333/1000,84,80.0
3198,C6,406.0,333/1000,93,80.0
3199,C7,406.0,333/1000,93,80.0
3200,F#1,406.0,333/1000,82,80.0
3201,F#2,406.0,333/1000,82,80.0
3202,C4,406.333,333/1000,68,80.0
3203,G4,406.333,333/1000,68,80.0
3204,C5,406.333,333/1000,68,80.0
3205,C#3,406.333,333/1000,57,80.0
3206,F#3,406.333,333/1000,57,80.0
3207,C#4,406.333,333/1000,57,80.0
3208,G4,406.667,333/1000,68,80.0
3209,C4,406.667,333/1000,68,80.0
3210,C5,406.667,333/1000,68,80.0
3211,F#3,406.667,333/1000,58,80.0
3212,C#3,406.667,333/1000,58,80.0
3213,C#4,406.667,333/1000,58,80.0
3214,C4,407.0,333/1000,62,80.0
3215,G#4,407.0,333/1000,62,80.0
3216,C5,407.0,333/1000,62,80.0
3217,C#3,407.0,333/1000,60,80.0
3218,F#3,407.0,333/1000,60,80.0
3219,C#4,407.0,333/1000,60,80.0
3220,C4,407.333,333/1000,67,80.0
3221,G#4,407.333,333/1000,67,80.0
3222,C5,407.333,333/1000,67,80.0
3223,C4,407.667,333/1000,67,80.0
3224,G#4,407.667,333/1000,67,80.0
3225,C5,407.667,333/1000,67,80.0
3226,C5,408.0,333/1000,65,80.0
3227,C4,408.0,333/1000,65,80.0
3228,G#4,408.0,333/1000,65,80.0
3229,G#1,408.0,333/1000,82,80.0
3230,G#2,408.0,333/1000,82,80.0
3231,C4,408.333,333/1000,68,80.0
3232,G#4,408.333,333/1000,68,80.0
3233,C5,408.333,333/1000,68,80.0
3234,G#3,408.333,333/1000,57,80.0
3235,C#4,408.333,333/1000,57,80.0
3236,C#3,408.333,333/1000,57,80.0
3237,C4,408.667,333/1000,68,80.0
3238,G#4,408.667,333/1000,68,80.0
3239,C5,408.667,333/1000,68,80.0
3240,C#4,408.667,333/1000,58,80.0
3241,C#3,408.667,333/1000,58,80.0
3242,G#3,408.667,333/1000,58,80.0
3243,C4,409.0,333/1000,72,80.0
3244,G#4,409.0,333/1000,72,80.0
3245,C5,409.0,333/1000,72,80.0
3246,C#4,409.0,333/1000,60,80.0
3247,G#3,409.0,333/1000,60,80.0
3248,C#3,409.0,333/1000,60,80.0
3249,C5,409.333,333/1000,71,80.0
3250,C4,409.333,333/1000,71,80.0
3251,G#4,409.333,333/1000,71,80.0
3252,C4,409.667,333/1000,71,80.0
3253,G#4,409.667,333/1000,71,80.0
3254,C5,409.667,333/1000,71,80.0
3255,C4,410.0,167/1000,71,80.0
3256,G#4,410.0,167/1000,71,80.0
3257,C5,410.0,167/1000,71,80.0
3258,B-1,410.0,333/1000,82,80.0
3259,B-2,410.0,333/1000,82,80.0
3260,C4,410.333,167/1000,72,80.0
3261,A4,410.333,167/1000,72,80.0
3262,C5,410.333,167/1000,72,80.0
3263,B-3,410.333,333/1000,57,80.0
3264,E-3,410.333,333/1000,57,80.0
3265,C#4,410.333,333/1000,57,80.0
3266,C4,410.667,167/1000,73,80.0
3267,A4,410.667,167/1000,73,80.0
3268,C5,410.667,167/1000,73,80.0
3269,C#4,410.667,333/1000,58,80.0
3270,E-3,410.667,333/1000,58,80.0
3271,B-3,410.667,333/1000,58,80.0
3272,A4,411.0,167/1000,75,80.0
3273,C4,411.0,167/1000,75,80.0
3274,C5,411.0,167/1000,75,80.0
3275,C#4,411.0,333/1000,60,80.0
3276,B-3,411.0,333/1000,60,80.0
3277,E-3,411.0,333/1000,60,80.0
3278,C#4,411.333,167/1000,75,80.0
3279,A4,411.333,167/1000,75,80.0
3280,C#5,411.333,167/1000,75,80.0
3281,C#4,411.667,167/1000,76,80.0
3282,A4,411.667,167/1000,76,80.0
3283,C#5,411.667,167/1000,76,80.0
3284,C#4,412.0,167/1000,77,80.0
3285,A4,412.0,167/1000,77,80.0
3286,C#5,412.0,167/1000,77,80.0
3287,E-1,412.0,2.0,64,80.0
3288,E-2,412.0,2.0,64,80.0
3289,C#5,412.333,167/1000,78,80.0
3290,C#4,412.333,167/1000,78,80.0
3291,A4,412.333,167/1000,78,80.0
3292,A4,412.667,167/1000,80,80.0
3293,C#5,412.667,167/1000,80,80.0
3294,C#4,412.667,167/1000,80,80.0
3295,C#4,413.0,167/1000,82,80.0
3296,C#5,413.0,167/1000,82,80.0
3297,A4,413.0,167/1000,82,80.0
3298,C#4,413.333,167/1000,83,80.0
3299,C#5,413.333,167/1000,83,80.0
3300,G#4,413.333,167/1000,83,80.0
3301,C#4,413.667,167/1000,84,80.0
3302,G4,413.667,167/1000,84,80.0
3303,C#5,413.667,167/1000,84,80.0
3304,C#4,414.0,167/1000,87,80.0
3305,C#5,414.0,167/1000,87,80.0
3306,G#4,414.0,167/1000,87,80.0
3307,F4,414.333,333/1000,81,80.0
3308,G#4,414.333,333/1000,81,80.0
3309,F5,414.333,333/1000,81,80.0
3310,F4,414.667,333/1000,81,80.0
3311,G#4,414.667,333/1000,81,80.0
3312,F5,414.667,333/1000,81,80.0
3313,F4,415.0,333/1000,86,80.0
3314,G#4,415.0,333/1000,86,80.0
3315,F5,415.0,333/1000,86,80.0
3316,E-4,415.333,333/1000,82,80.0
3317,E-5,415.333,333/1000,82,80.0
3318,C#5,415.667,333/1000,82,80.0
3319,C#4,415.667,333/1000,82,80.0
3320,E-1,416.0,2.0,64,80.0
3321,E-2,416.0,2.0,64,80.0
3322,F4,416.333,333/1000,81,80.0
3323,B-4,416.333,333/1000,81,80.0
3324,F5,416.333,333/1000,81,80.0
3325,F4,416.667,333/1000,81,80.0
3326,B-4,416.667,333/1000,81,80.0
3327,F5,416.667,333/1000,81,80.0
3328,F4,417.0,333/1000,86,80.0
3329,B-4,417.0,333/1000,86,80.0
3330,F5,417.0,333/1000,86,80.0
3331,E-4,417.333,333/1000,82,80.0
3332,E-5,417.333,333/1000,82,80.0
3333,C#5,417.667,333/1000,82,80.0
3334,C#4,417.667,333/1000,82,80.0
3335,G#1,418.0,2.0,61,80.0
3336,G#2,418.0,2.0,61,80.0
3337,F4,418.333,333/1000,81,80.0
3338,G#4,418.333,333/1000,81,80.0
3339,F5,418.333,333/1000,81,80.0
3340,F4,418.667,333/1000,81,80.0
3341,G#4,418.667,333/1000,81,80.0
3342,F5,418.667,333/1000,81,80.0
3343,F4,419.0,333/1000,86,80.0
3344,G#4,419.0,333/1000,86,80.0
3345,F5,419.0,333/1000,86,80.0
3346,E-4,419.333,333/1000,82,80.0
3347,E-5,419.333,333/1000,82,80.0
3348,C#5,419.667,333/1000,82,80.0
3349,C#4,419.667,333/1000,82,80.0
3350,F4,420.333,333/1000,81,80.0
3351,G4,420.333,333/1000,81,80.0
3352,F5,420.333,333/1000,81,80.0
3353,F4,420.667,333/1000,81,80.0
3354,G4,420.667,333/1000,81,80.0
3355,F5,420.667,333/1000,81,80.0
3356,F4,421.0,333/1000,86,80.0
3357,G4,421.0,333/1000,86,80.0
3358,F5,421.0,333/1000,86,80.0
3359,E-4,421.333,333/1000,82,80.0
3360,E-5,421.333,333/1000,82,80.0
3361,C#5,421.667,333/1000,82,80.0
3362,C#4,421.667,333/1000,82,80.0
3363,E-3,422.0,2.0,91,80.0
3364,G3,422.0,2.0,91,80.0
3365,E-4,422.0,2.0,91,80.0
3366,C#4,422.0,2.0,91,80.0
3367,G#1,422.0,2.0,61,80.0
3368,G#2,422.0,2.0,61,80.0
3369,A2,424.0,0.25,61,80.0
3370,A1,424.0,0.25,61,80.0
3371,F#2,424.25,0.25,55,80.0
3372,F#1,424.25,0.25,55,80.0
3373,G#1,424.75,0.25,61,80.0
3374,G#2,424.75,0.25,61,80.0
3375,A1,425.0,0.25,57,80.0
3376,A2,425.0,0.25,57,80.0
3377,F#1,425.25,0.25,57,80.0
3378,F#2,425.25,0.25,57,80.0
3379,E-3,426.0,2.0,91,80.0
3380,G3,426.0,2.0,91,80.0
3381,E-4,426.0,2.0,91,80.0
3382,C#4,426.0,2.0,91,80.0
3383,A1,426.0,0.25,40,80.0
3384,A2,426.0,0.25,40,80.0
3385,F#1,426.25,0.25,36,80.0
3386,F#2,426.25,0.25,36,80.0
3387,G#1,426.75,0.25,40,80.0
3388,G#2,426.75,0.25,40,80.0
3389,A1,427.0,0.25,36,80.0
3390,A2,427.0,0.25,36,80.0
3391,F#1,427.25,0.25,36,80.0
3392,F#2,427.25,0.25,36,80.0
3393,F4,428.0,2.0,95,80.0
3394,F#3,428.0,2.0,80,80.0
3395,C4,428.0,2.0,80,80.0
3396,A1,428.0,0.25,40,80.0
3397,A2,428.0,0.25,40,80.0
3398,F#1,428.25,0.25,36,80.0
3399,F#2,428.25,0.25,36,80.0
3400,G#1,428.75,0.25,40,80.0
3401,G#2,428.75,0.25,40,80.0
3402,A1,429.0,0.25,36,80.0
3403,A2,429.0,0.25,36,80.0
3404,F#2,429.25,0.25,36,80.0
3405,F#3,429.25,0.25,36,80.0
3406,F#3,430.0,1.0,41,80.0
3407,D2,431.0,1.0,34,80.0
3408,F4,432.0,1.875,95,80.0
3409,F#3,432.0,2.0,80,80.0
3410,C4,432.0,2.0,80,80.0
3411,G2,432.0,2.0,32,80.0
3412,D3,432.0,2.0,32,80.0
3413,G3,432.0,2.0,32,80.0
3414,F#4,433.875,0.125,86,80.0
3415,F#3,434.0,2.0,84,80.0
3416,C#4,434.0,2.0,84,80.0
3417,F#4,434.0,2.0,84,80.0
3418,D2,434.0,0.75,36,80.0
3419,D3,434.0,0.75,36,80.0
3420,G1,434.75,0.25,32,80.0
3421,G2,434.75,0.25,32,80.0
3422,G1,435.0,1.0,34,80.0
3423,G2,435.0,1.0,34,80.0
3424,D2,436.0,0.25,39,80.0
3425,G1,436.25,0.25,36,80.0
3426,A1,436.75,0.25,39,80.0
3427,B1,437.0,0.25,36,80.0
3428,G1,437.25,0.25,36,80.0
3429,D3,438.0,0.25,38,80.0
3430,D2,438.0,0.25,38,80.0
3431,G2,438.25,0.25,35,80.0
3432,G1,438.25,0.25,35,80.0
3433,A2,438.75,0.25,39,80.0
3434,A1,438.75,0.25,39,80.0
3435,B2,439.0,0.25,36,80.0
3436,B1,439.0,0.25,36,80.0
3437,G2,439.25,0.25,36,80.0
3438,G1,439.25,0.25,36,80.0
3439,C4,440.0,2.0,31,80.0
3440,D4,440.0,2.0,32,80.0
3441,A4,440.0,1.0,47,80.0
3442,D3,440.0,0.25,42,80.0
3443,D2,440.0,0.25,42,80.0
3444,G#2,440.25,0.25,39,80.0
3445,G#1,440.25,0.25,39,80.0
3446,A2,440.75,0.25,44,80.0
3447,A1,440.75,0.25,44,80.0
3448,B-4,441.0,1.0,44,80.0
3449,B2,441.0,0.25,39,80.0
3450,B1,441.0,0.25,39,80.0
3451,G#2,441.25,0.25,41,80.0
3452,G#1,441.25,0.25,41,80.0
3453,B3,442.0,2.0,39,80.0
3454,B4,442.0,0.75,47,80.0
3455,D4,442.0,0.75,32,80.0
3456,D3,442.0,0.25,53,80.0
3457,D2,442.0,0.25,53,80.0
3458,G#2,442.25,0.25,49,80.0
3459,G#1,442.25,0.25,49,80.0
3460,D4,442.75,0.25,40,80.0
3461,A2,442.75,0.25,54,80.0
3462,A1,442.75,0.25,54,80.0
3463,D4,443.0,1.0,44,80.0
3464,B2,443.0,0.25,50,80.0
3465,B1,443.0,0.25,50,80.0
3466,G#2,443.25,0.25,52,80.0
3467,G#1,443.25,0.25,52,80.0
3468,D3,444.0,0.25,58,80.0
3469,D2,444.0,0.25,58,80.0
3470,B2,444.25,0.25,54,80.0
3471,B1,444.25,0.25,54,80.0
3472,C#3,444.75,0.25,62,80.0
3473,C#2,444.75,0.25,62,80.0
3474,D3,445.0,0.25,56,80.0
3475,D2,445.0,0.25,56,80.0
3476,B3,445.25,0.25,57,80.0
3477,B2,445.25,0.25,57,80.0
3478,G#3,446.0,1.0,40,80.0
3479,E2,447.0,1.0,36,80.0
3480,E3,448.0,1.0,33,80.0
3481,A2,448.0,2.0,36,80.0
3482,A3,448.0,2.0,36,80.0
3483,F3,449.0,1.0,33,80.0
3484,F3,450.0,2.0,33,80.0
3485,A1,450.0,0.25,36,80.0
3486,A2,450.0,0.25,36,80.0
3487,F1,450.25,0.25,32,80.0
3488,F2,450.25,0.25,32,80.0
3489,G1,450.75,0.25,36,80.0
3490,G2,450.75,0.25,36,80.0
3491,A1,451.0,0.25,32,80.0
3492,A2,451.0,0.25,32,80.0
3493,F1,451.25,0.25,32,80.0
3494,F2,451.25,0.25,32,80.0
3495,A2,452.0,2.0,31,80.0
3496,F3,452.0,1.0,38,80.0
3497,F#3,453.0,1.0,39,80.0
3498,B2,454.0,2.0,35,80.0
3499,F#3,454.0,1.0,41,80.0
3500,G3,455.0,1.0,42,80.0
3501,D4,456.0,2.0,41,80.0
3502,E4,456.0,2.0,41,80.0
3503,B4,456.0,1.0,49,80.0
3504,B1,456.0,0.25,38,80.0
3505,B2,456.0,0.25,38,80.0
3506,G1,456.25,0.25,34,80.0
3507,G2,456.25,0.25,34,80.0
3508,A1,456.75,0.25,42,80.0
3509,A2,456.75,0.25,42,80.0
3510,C5,457.0,1.0,47,80.0
3511,B1,457.0,0.25,38,80.0
3512,B2,457.0,0.25,38,80.0
3513,G1,457.25,0.25,39,80.0
3514,G2,457.25,0.25,39,80.0
3515,C#4,458.0,2.0,41,80.0
3516,C#5,458.0,0.75,49,80.0
3517,E4,458.0,0.75,41,80.0
3518,C2,458.0,0.25,38,80.0
3519,C3,458.0,0.25,38,80.0
3520,G1,458.25,0.25,34,80.0
3521,G2,458.25,0.25,34,80.0
3522,F4,458.75,0.25,44,80.0
3523,C2,458.75,0.25,42,80.0
3524,C3,458.75,0.25,42,80.0
3525,F4,459.0,1.0,47,80.0
3526,D2,459.0,0.25,38,80.0
3527,D3,459.0,0.25,38,80.0
3528,G1,459.25,0.25,39,80.0
3529,G2,459.25,0.25,39,80.0
3530,C#4,460.0,2.0,41,80.0
3531,F4,460.0,2.0,47,80.0
3532,E-2,460.0,0.25,32,80.0
3533,E-3,460.0,0.25,32,80.0
3534,G1,460.25,0.25,28,80.0
3535,G2,460.25,0.25,28,80.0
3536,D2,460.75,0.25,32,80.0
3537,D3,460.75,0.25,32,80.0
3538,E-2,461.0,0.25,28,80.0
3539,E-3,461.0,0.25,28,80.0
3540,G#2,461.25,0.25,28,80.0
3541,G#3,461.25,0.25,28,80.0
3542,C#4,462.0,2.0,39,80.0
3543,F4,462.0,0.75,48,80.0
3544,C#5,462.0,0.75,48,80.0
3545,F2,462.0,0.25,32,80.0
3546,F3,462.0,0.25,32,80.0
3547,D2,462.25,0.25,28,80.0
3548,D3,462.25,0.25,28,80.0
3549,F#4,462.75,0.25,55,80.0
3550,E-2,462.75,0.25,32,80.0
3551,E-3,462.75,0.25,32,80.0
3552,F#4,463.0,1.0,58,80.0
3553,F2,463.0,0.25,28,80.0
3554,F3,463.0,0.25,28,80.0
3555,D3,463.25,0.25,28,80.0
3556,D4,463.25,0.25,28,80.0
3557,D4,464.0,2.0,51,80.0
3558,E2,464.0,333/1000,42,80.0
3559,F#4,464.0,0.75,56,80.0
3560,D5,464.0,0.75,56,80.0
3561,A2,464.333,667/1000,39,80.0
3562,G3,464.667,333/1000,39,80.0
3563,G4,464.75,0.25,57,80.0
3564,G4,465.0,1.0,60,80.0
3565,F#3,465.0,333/1000,44,80.0
3566,A2,465.333,333/1000,40,80.0
3567,D2,465.667,333/1000,40,80.0
3568,E-5,466.0,1521/1000,75,80.0
3569,F2,466.0,333/1000,44,80.0
3570,F4,466.0,2.0,58,80.0
3571,G4,466.0,2.0,58,80.0
3572,B2,466.333,667/1000,38,80.0
3573,A3,466.667,333/1000,39,80.0
3574,G#3,467.0,333/1000,44,80.0
3575,B2,467.333,333/1000,39,80.0
3576,D5,467.5,0.5,68,80.0
3577,E2,467.667,333/1000,39,80.0
3578,D5,468.0,771/1000,73,80.0
3579,G2,468.0,333/1000,46,80.0
3580,E-4,468.0,1.0,56,80.0
3581,G4,468.0,1.0,56,80.0
3582,C#3,468.333,333/1000,40,80.0
3583,B3,468.667,333/1000,40,80.0
3584,C5,468.75,1.0,51,80.0
3585,F4,469.0,1.0,44,80.0
3586,F#2,469.0,333/1000,49,80.0
3587,C#3,469.333,333/1000,42,80.0
3588,B-3,469.667,333/1000,42,80.0
3589,B-4,469.75,0.25,61,80.0
3590,B-4,470.0,771/1000,68,80.0
3591,G2,470.0,333/1000,53,80.0
3592,C4,470.0,2.0,54,80.0
3593,E-4,470.0,2.0,54,80.0
3594,E3,470.333,333/1000,58,80.0
3595,C#4,470.667,333/1000,60,80.0
3596,G#4,470.75,0.25,55,80.0
3597,G#4,471.0,177/500,61,80.0
3598,G#2,471.0,333/1000,66,80.0
3599,C5,471.333,177/500,62,80.0
3600,E3,471.333,333/1000,69,80.0
3601,B-4,471.667,333/1000,61,80.0
3602,C#4,471.667,333/1000,74,80.0
3603,B3,472.0,2.0,49,80.0
3604,G#4,472.0,1021/1000,64,80.0
3605,B-4,472.0,21/1000,61,80.0
3606,G#1,472.0,0.25,54,80.0
3607,G#2,472.0,0.25,54,80.0
3608,E1,472.25,0.25,48,80.0
3609,E2,472.25,0.25,48,80.0
3610,F#1,472.75,0.25,56,80.0
3611,F#2,472.75,0.25,56,80.0
3612,G4,473.0,0.5,58,80.0
3613,G#1,473.0,0.25,51,80.0
3614,G#2,473.0,0.25,51,80.0
3615,E1,473.25,0.25,52,80.0
3616,E2,473.25,0.25,52,80.0
3617,G4,473.5,0.5,68,80.0
3618,G5,473.5,0.5,68,80.0
3619,B-3,474.0,0.25,60,80.0
3620,B-4,474.0,0.25,60,80.0
3621,G#1,474.0,0.25,54,80.0
3622,G#2,474.0,0.25,54,80.0
3623,C#4,474.25,0.25,54,80.0
3624,A4,474.25,0.25,54,80.0
3625,F1,474.25,0.25,48,80.0
3626,F2,474.25,0.25,48,80.0
3627,A3,474.75,0.25,56,80.0
3628,G4,474.75,0.25,56,80.0
3629,G1,474.75,0.25,56,80.0
3630,G2,474.75,0.25,56,80.0
3631,D4,475.0,0.25,62,80.0
3632,F#4,475.0,0.25,62,80.0
3633,G#1,475.0,0.25,51,80.0
3634,G#2,475.0,0.25,51,80.0
3635,A3,475.25,0.25,56,80.0
3636,A4,475.25,0.25,56,80.0
3637,F1,475.25,0.25,52,80.0
3638,F2,475.25,0.25,52,80.0
3639,C4,475.75,0.25,58,80.0
3640,C5,475.75,0.25,58,80.0
3641,C4,476.0,0.25,62,80.0
3642,C5,476.0,0.25,62,80.0
3643,B-1,476.0,0.25,42,80.0
3644,B-2,476.0,0.25,42,80.0
3645,E-4,476.25,0.25,58,80.0
3646,B4,476.25,0.25,58,80.0
3647,G1,476.25,0.25,38,80.0
3648,G2,476.25,0.25,38,80.0
3649,B3,476.75,0.25,57,80.0
3650,A4,476.75,0.25,57,80.0
3651,G#1,476.75,0.25,46,80.0
3652,G#2,476.75,0.25,46,80.0
3653,E4,477.0,0.25,62,80.0
3654,G#4,477.0,0.25,62,80.0
3655,B-1,477.0,0.25,42,80.0
3656,B-2,477.0,0.25,42,80.0
3657,B3,477.25,0.25,57,80.0
3658,B4,477.25,0.25,57,80.0
3659,G2,477.25,0.25,44,80.0
3660,G3,477.25,0.25,44,80.0
3661,D4,477.75,0.25,58,80.0
3662,D5,477.75,0.25,58,80.0
3663,D4,478.0,0.25,64,80.0
3664,D5,478.0,0.25,64,80.0
3665,C2,478.0,0.25,40,80.0
3666,C3,478.0,0.25,40,80.0
3667,F4,478.25,0.25,60,80.0
3668,C#5,478.25,0.25,60,80.0
3669,A1,478.25,0.25,35,80.0
3670,A2,478.25,0.25,35,80.0
3671,C#4,478.75,0.25,57,80.0
3672,B4,478.75,0.25,57,80.0
3673,B-1,478.75,0.25,40,80.0
3674,B-2,478.75,0.25,40,80.0
3675,F#4,479.0,333/1000,60,80.0
3676,B-4,479.0,333/1000,60,80.0
3677,C2,479.0,0.25,34,80.0
3678,C3,479.0,0.25,34,80.0
3679,C3,479.25,0.25,34,80.0
3680,C4,479.25,0.25,34,80.0
3681,C#4,479.333,333/1000,63,80.0
3682,C#5,479.333,333/1000,63,80.0
3683,B-4,479.667,333/1000,66,80.0
3684,C#5,479.667,333/1000,66,80.0
3685,E-2,480.0,333/1000,55,80.0
3686,E4,480.0,333/1000,68,80.0
3687,E5,480.0,333/1000,68,80.0
3688,B2,480.333,667/1000,42,80.0
3689,C#5,480.333,333/1000,72,80.0
3690,E5,480.333,333/1000,72,80.0
3691,A3,480.667,333/1000,42,80.0
3692,B-4,480.667,333/1000,74,80.0
3693,B-5,480.667,333/1000,74,80.0
3694,G#3,481.0,333/1000,48,80.0
3695,G#5,481.0,333/1000,79,80.0
3696,C#6,481.0,333/1000,79,80.0
3697,B2,481.333,333/1000,44,80.0
3698,E5,481.333,333/1000,80,80.0
3699,E6,481.333,333/1000,80,80.0
3700,E2,481.667,333/1000,44,80.0
3701,E6,481.667,333/1000,82,80.0
3702,E7,481.667,333/1000,82,80.0
3703,C5,482.0,1521/1000,82,80.0
3704,F2,482.0,333/1000,48,80.0
3705,C4,482.0,2.0,65,80.0
3706,E4,482.0,2.0,65,80.0
3707,C#3,482.333,667/1000,41,80.0
3708,B3,482.667,333/1000,42,80.0
3709,B-3,483.0,333/1000,48,80.0
3710,C#3,483.333,333/1000,42,80.0
3711,B-3,483.5,0.5,62,80.0
3712,B-4,483.5,0.5,62,80.0
3713,F#2,483.667,333/1000,42,80.0
3714,G2,484.0,333/1000,50,80.0
3715,B-3,484.0,1.0,70,80.0
3716,B-4,484.0,1.0,70,80.0
3717,C4,484.0,2.0,54,80.0
3718,F4,484.0,2.0,54,80.0
3719,E-3,484.333,667/1000,44,80.0
3720,C#4,484.667,333/1000,44,80.0
3721,G#2,485.0,333/1000,53,80.0
3722,G#3,485.0,0.75,64,80.0
3723,G#4,485.0,0.75,64,80.0
3724,E-3,485.333,333/1000,46,80.0
3725,C4,485.667,333/1000,46,80.0
3726,G#3,485.75,0.25,58,80.0
3727,G#4,485.75,0.25,58,80.0
3728,C#4,486.0,1.0,58,80.0
3729,E4,486.0,1667/1000,61,80.0
3730,A2,486.0,333/1000,58,80.0
3731,G#3,486.0,0.75,61,80.0
3732,G#4,486.0,0.75,61,80.0
3733,F#3,486.333,333/1000,63,80.0
3734,E-4,486.667,333/1000,66,80.0
3735,G3,486.75,0.25,59,80.0
3736,G4,486.75,0.25,59,80.0
3737,G3,487.0,61/250,58,80.0
3738,G4,487.0,177/500,68,80.0
3739,C3,487.0,333/1000,71,80.0
3740,F#3,487.333,333/1000,74,80.0
3741,F3,487.333,177/500,54,80.0
3742,F4,487.333,177/500,54,80.0
3743,D4,487.667,333/1000,81,80.0
3744,E3,487.667,333/1000,45,80.0
3745,E4,487.667,333/1000,45,80.0
3746,E-4,488.0,2.0,58,80.0
3747,G3,488.0,1021/1000,58,80.0
3748,G4,488.0,1021/1000,58,80.0
3749,B-1,488.0,333/1000,80,80.0
3750,B-2,488.0,333/1000,80,80.0
3751,D3,488.333,333/1000,66,80.0
3752,B-3,488.333,333/1000,66,80.0
3753,G3,488.667,333/1000,74,80.0
3754,D4,488.667,333/1000,74,80.0
3755,F#3,489.0,0.5,52,80.0
3756,F#4,489.0,0.5,52,80.0
3757,B-3,489.0,333/1000,74,80.0
3758,G4,489.0,333/1000,74,80.0
3759,G3,489.333,333/1000,69,80.0
3760,D4,489.333,333/1000,69,80.0
3761,A4,489.5,0.5,64,80.0
3762,A5,489.5,0.5,64,80.0
3763,D1,489.833,167/1000,61,80.0
3764,D2,489.833,167/1000,61,80.0
3765,C4,490.0,0.25,65,80.0
3766,C5,490.0,0.25,65,80.0
3767,D1,490.0,333/1000,80,80.0
3768,D2,490.0,333/1000,80,80.0
3769,F#4,490.25,0.25,58,80.0
3770,B4,490.25,0.25,58,80.0
3771,D3,490.333,333/1000,66,80.0
3772,B-3,490.333,333/1000,66,80.0
3773,G3,490.667,333/1000,69,80.0
3774,D4,490.667,333/1000,69,80.0
3775,B3,490.75,0.25,62,80.0
3776,A4,490.75,0.25,62,80.0
3777,E4,491.0,0.25,67,80.0
3778,G#4,491.0,0.25,67,80.0
3779,B-3,491.0,333/1000,69,80.0
3780,G4,491.0,333/1000,69,80.0
3781,B3,491.25,0.25,62,80.0
3782,B4,491.25,0.25,62,80.0
3783,G3,491.333,333/1000,66,80.0
3784,D4,491.333,333/1000,66,80.0
3785,D3,491.667,333/1000,57,80.0
3786,B-3,491.667,333/1000,57,80.0
3787,D4,491.75,0.25,63,80.0
3788,D5,491.75,0.25,63,80.0
3789,D4,492.0,0.25,68,80.0
3790,D5,492.0,0.25,68,80.0
3791,B-2,492.0,333/1000,76,80.0
3792,B-3,492.0,333/1000,76,80.0
3793,G#4,492.25,0.25,63,80.0
3794,C#5,492.25,0.25,63,80.0
3795,F3,492.333,333/1000,64,80.0
3796,C#4,492.333,333/1000,64,80.0
3797,B-3,492.667,333/1000,72,80.0
3798,F4,492.667,333/1000,72,80.0
3799,C#4,492.75,0.25,62,80.0
3800,B4,492.75,0.25,62,80.0
3801,F#4,493.0,0.25,68,80.0
3802,B-4,493.0,0.25,68,80.0
3803,C#4,493.0,333/1000,72,80.0
3804,B-4,493.0,333/1000,72,80.0
3805,C#4,493.25,0.25,62,80.0
3806,C#5,493.25,0.25,62,80.0
3807,B-3,493.333,333/1000,66,80.0
3808,F4,493.333,333/1000,66,80.0
3809,E4,493.75,0.25,64,80.0
3810,E5,493.75,0.25,64,80.0
3811,C#2,493.833,167/1000,58,80.0
3812,C#3,493.833,167/1000,58,80.0
3813,E4,494.0,0.25,70,80.0
3814,E5,494.0,0.25,70,80.0
3815,C#2,494.0,333/1000,76,80.0
3816,C#3,494.0,333/1000,76,80.0
3817,B-4,494.25,0.25,65,80.0
3818,E-5,494.25,0.25,65,80.0
3819,F3,494.333,333/1000,64,80.0
3820,C#4,494.333,333/1000,64,80.0
3821,B-3,494.667,333/1000,66,80.0
3822,F4,494.667,333/1000,66,80.0
3823,E-4,494.75,0.25,62,80.0
3824,C#5,494.75,0.25,62,80.0
3825,G#4,495.0,333/1000,65,80.0
3826,C5,495.0,333/1000,65,80.0
3827,C#4,495.0,333/1000,66,80.0
3828,B-4,495.0,333/1000,66,80.0
3829,E-4,495.333,333/1000,68,80.0
3830,E-5,495.333,333/1000,68,80.0
3831,B-3,495.333,333/1000,64,80.0
3832,F4,495.333,333/1000,64,80.0
3833,C5,495.667,333/1000,73,80.0
3834,E-5,495.667,333/1000,73,80.0
3835,F3,495.667,333/1000,55,80.0
3836,C#4,495.667,333/1000,55,80.0
3837,F#4,496.0,333/1000,75,80.0
3838,F#5,496.0,333/1000,75,80.0
3839,G#1,496.0,333/1000,80,80.0
3840,G#2,496.0,333/1000,80,80.0
3841,E-5,496.333,333/1000,78,80.0
3842,F#5,496.333,333/1000,78,80.0
3843,F3,496.333,333/1000,66,80.0
3844,C4,496.333,333/1000,66,80.0
3845,A4,496.667,333/1000,81,80.0
3846,A5,496.667,333/1000,81,80.0
3847,G#3,496.667,333/1000,74,80.0
3848,F4,496.667,333/1000,74,80.0
3849,F#5,497.0,333/1000,87,80.0
3850,A5,497.0,333/1000,87,80.0
3851,C4,497.0,333/1000,74,80.0
3852,G#4,497.0,333/1000,74,80.0
3853,D5,497.333,333/1000,90,80.0
3854,D6,497.333,333/1000,90,80.0
3855,G#3,497.333,333/1000,69,80.0
3856,F4,497.333,333/1000,69,80.0
3857,F#5,497.667,333/1000,94,80.0
3858,F#6,497.667,333/1000,94,80.0
3859,C2,497.875,0.125,61,80.0
3860,C1,497.875,0.125,61,80.0
3861,D6,498.0,0.25,96,80.0
3862,G6,498.0,0.25,96,80.0
3863,C1,498.0,333/1000,80,80.0
3864,C2,498.0,333/1000,80,80.0
3865,C2,498.0,21/500,61,80.0
3866,C1,498.0,21/500,61,80.0
3867,G5,498.25,0.25,86,80.0
3868,B-5,498.25,0.25,86,80.0
3869,F3,498.333,333/1000,66,80.0
3870,C4,498.333,333/1000,66,80.0
3871,G#3,498.667,333/1000,69,80.0
3872,F4,498.667,333/1000,69,80.0
3873,C6,498.75,0.25,87,80.0
3874,A5,498.75,0.25,87,80.0
3875,B-5,499.0,0.25,92,80.0
3876,D6,499.0,0.25,92,80.0
3877,C4,499.0,333/1000,69,80.0
3878,G#4,499.0,333/1000,69,80.0
3879,D5,499.25,0.25,87,80.0
3880,G5,499.25,0.25,87,80.0
3881,G#3,499.333,333/1000,66,80.0
3882,F4,499.333,333/1000,66,80.0
3883,F3,499.667,333/1000,57,80.0
3884,C4,499.667,333/1000,57,80.0
3885,B-5,500.0,0.25,96,80.0
3886,D6,500.0,0.25,96,80.0
3887,G#2,500.0,333/1000,80,80.0
3888,G#3,500.0,333/1000,80,80.0
3889,D5,500.25,0.25,86,80.0
3890,G5,500.25,0.25,86,80.0
3891,E3,500.333,333/1000,66,80.0
3892,C4,500.333,333/1000,66,80.0
3893,G#3,500.667,333/1000,74,80.0
3894,E4,500.667,333/1000,74,80.0
3895,A5,500.75,0.25,82,80.0
3896,F#5,500.75,0.25,82,80.0
3897,G5,501.0,0.25,87,80.0
3898,B-5,501.0,0.25,87,80.0
3899,C4,501.0,333/1000,74,80.0
3900,G#4,501.0,333/1000,74,80.0
3901,D6,501.25,0.25,82,80.0
3902,G6,501.25,0.25,82,80.0
3903,G#3,501.333,333/1000,69,80.0
3904,E4,501.333,333/1000,69,80.0
3905,C3,501.875,0.125,61,80.0
3906,C2,501.875,0.125,61,80.0
3907,C#6,502.0,0.25,92,80.0
3908,F6,502.0,0.25,92,80.0
3909,C2,502.0,333/1000,80,80.0
3910,C3,502.0,333/1000,80,80.0
3911,C3,502.0,21/500,61,80.0
3912,C2,502.0,21/500,61,80.0
3913,F5,502.25,0.25,82,80.0
3914,B-5,502.25,0.25,82,80.0
3915,E3,502.333,333/1000,66,80.0
3916,C4,502.333,333/1000,66,80.0
3917,G#3,502.667,333/1000,69,80.0
3918,E4,502.667,333/1000,69,80.0
3919,C6,502.75,0.25,84,80.0
3920,A5,502.75,0.25,84,80.0
3921,B-5,503.0,0.25,88,80.0
3922,C#6,503.0,0.25,88,80.0
3923,C4,503.0,333/1000,69,80.0
3924,G#4,503.0,333/1000,69,80.0
3925,C#5,503.25,0.25,84,80.0
3926,F5,503.25,0.25,84,80.0
3927,G#3,503.333,333/1000,66,80.0
3928,E4,503.333,333/1000,66,80.0
3929,E3,503.667,333/1000,57,80.0
3930,C4,503.667,333/1000,57,80.0
3931,C#6,504.0,0.25,90,80.0
3932,F6,504.0,0.25,90,80.0
3933,G2,504.0,333/1000,80,80.0
3934,G3,504.0,333/1000,80,80.0
3935,F5,504.25,0.25,82,80.0
3936,B-5,504.25,0.25,82,80.0
3937,G3,504.333,333/1000,66,80.0
3938,E4,504.333,333/1000,66,80.0
3939,B3,504.667,333/1000,74,80.0
3940,G4,504.667,333/1000,74,80.0
3941,C6,504.75,0.25,78,80.0
3942,A5,504.75,0.25,78,80.0
3943,B-5,505.0,0.25,84,80.0
3944,C#6,505.0,0.25,84,80.0
3945,E4,505.0,333/1000,74,80.0
3946,B4,505.0,333/1000,74,80.0
3947,F6,505.25,0.25,78,80.0
3948,B-6,505.25,0.25,78,80.0
3949,B3,505.333,333/1000,69,80.0
3950,G4,505.333,333/1000,69,80.0
3951,B2,505.875,0.125,61,80.0
3952,B1,505.875,0.125,61,80.0
3953,C6,506.0,0.25,96,80.0
3954,F6,506.0,0.25,96,80.0
3955,B1,506.0,333/1000,80,80.0
3956,B2,506.0,333/1000,80,80.0
3957,B2,506.0,21/500,61,80.0
3958,B1,506.0,21/500,61,80.0
3959,F5,506.25,0.25,86,80.0
3960,G#5,506.25,0.25,86,80.0
3961,G3,506.333,333/1000,66,80.0
3962,E4,506.333,333/1000,66,80.0
3963,B3,506.667,333/1000,69,80.0
3964,G4,506.667,333/1000,69,80.0
3965,B-5,506.75,0.25,84,80.0
3966,G5,506.75,0.25,84,80.0
3967,G#5,507.0,0.25,86,80.0
3968,C6,507.0,0.25,86,80.0
3969,E4,507.0,333/1000,69,80.0
3970,B4,507.0,333/1000,69,80.0
3971,C5,507.25,0.25,84,80.0
3972,F5,507.25,0.25,84,80.0
3973,B3,507.333,333/1000,66,80.0
3974,G4,507.333,333/1000,66,80.0
3975,G3,507.667,333/1000,57,80.0
3976,E4,507.667,333/1000,57,80.0
3977,G#5,508.0,0.25,96,80.0
3978,C6,508.0,0.25,96,80.0
3979,G2,508.0,333/1000,80,80.0
3980,G3,508.0,333/1000,80,80.0
3981,C5,508.25,0.25,86,80.0
3982,F5,508.25,0.25,86,80.0
3983,D3,508.333,333/1000,66,80.0
3984,B3,508.333,333/1000,66,80.0
3985,G3,508.667,333/1000,74,80.0
3986,D4,508.667,333/1000,74,80.0
3987,G5,508.75,0.25,82,80.0
3988,E5,508.75,0.25,82,80.0
3989,F5,509.0,0.25,87,80.0
3990,G#5,509.0,0.25,87,80.0
3991,B3,509.0,333/1000,74,80.0
3992,G4,509.0,333/1000,74,80.0
3993,C6,509.25,0.25,82,80.0
3994,F6,509.25,0.25,82,80.0
3995,G3,509.333,333/1000,69,80.0
3996,D4,509.333,333/1000,69,80.0
3997,G2,509.875,0.125,61,80.0
3998,G1,509.875,0.125,61,80.0
3999,C6,510.0,0.25,98,80.0
4000,E6,510.0,0.25,98,80.0
4001,G1,510.0,333/1000,80,80.0
4002,G2,510.0,333/1000,80,80.0
4003,G2,510.0,21/500,61,80.0
4004,G1,510.0,21/500,61,80.0
4005,E5,510.25,0.25,86,80.0
4006,G#5,510.25,0.25,86,80.0
4007,D3,510.333,333/1000,66,80.0
4008,B3,510.333,333/1000,66,80.0
4009,G3,510.667,333/1000,69,80.0
4010,D4,510.667,333/1000,69,80.0
4011,B-5,510.75,0.25,84,80.0
4012,G5,510.75,0.25,84,80.0
4013,G#5,511.0,0.25,86,80.0
4014,C6,511.0,0.25,86,80.0
4015,B3,511.0,333/1000,69,80.0
4016,G4,511.0,333/1000,69,80.0
4017,C5,511.25,0.25,84,80.0
4018,E5,511.25,0.25,84,80.0
4019,G3,511.333,333/1000,66,80.0
4020,D4,511.333,333/1000,66,80.0
4021,D3,511.667,333/1000,57,80.0
4022,B3,511.667,333/1000,57,80.0
4023,G#5,512.0,0.25,96,80.0
4024,C6,512.0,0.25,96,80.0
4025,F#2,512.0,333/1000,80,80.0
4026,F#3,512.0,333/1000,80,80.0
4027,C5,512.25,0.25,86,80.0
4028,E5,512.25,0.25,86,80.0
4029,D3,512.333,333/1000,66,80.0
4030,A3,512.333,333/1000,66,80.0
4031,F#3,512.667,333/1000,74,80.0
4032,D4,512.667,333/1000,74,80.0
4033,G5,512.75,0.25,82,80.0
4034,E5,512.75,0.25,82,80.0
4035,E5,513.0,0.25,87,80.0
4036,G#5,513.0,0.25,87,80.0
4037,A3,513.0,333/1000,74,80.0
4038,F#4,513.0,333/1000,74,80.0
4039,C6,513.25,0.25,82,80.0
4040,E6,513.25,0.25,82,80.0
4041,F#3,513.333,333/1000,69,80.0
4042,D4,513.333,333/1000,69,80.0
4043,D3,513.667,333/1000,61,80.0
4044,A3,513.667,333/1000,61,80.0
4045,B5,514.0,0.25,96,80.0
4046,E6,514.0,0.25,96,80.0
4047,F2,514.0,333/1000,80,80.0
4048,F3,514.0,333/1000,80,80.0
4049,E5,514.25,0.25,86,80.0
4050,G5,514.25,0.25,86,80.0
4051,D3,514.333,333/1000,66,80.0
4052,A3,514.333,333/1000,66,80.0
4053,F3,514.667,333/1000,69,80.0
4054,D4,514.667,333/1000,69,80.0
4055,A5,514.75,0.25,84,80.0
4056,F#5,514.75,0.25,84,80.0
4057,G5,515.0,0.25,88,80.0
4058,B5,515.0,0.25,88,80.0
4059,A3,515.0,333/1000,69,80.0
4060,F4,515.0,333/1000,69,80.0
4061,B4,515.25,0.25,84,80.0
4062,E5,515.25,0.25,84,80.0
4063,F3,515.333,333/1000,66,80.0
4064,D4,515.333,333/1000,66,80.0
4065,D3,515.667,333/1000,57,80.0
4066,A3,515.667,333/1000,57,80.0
4067,G5,516.0,0.25,96,80.0
4068,B5,516.0,0.25,96,80.0
4069,F2,516.0,333/1000,70,80.0
4070,F3,516.0,333/1000,70,80.0
4071,B4,516.25,0.25,86,80.0
4072,E5,516.25,0.25,86,80.0
4073,C3,516.333,333/1000,60,80.0
4074,A3,516.333,333/1000,60,80.0
4075,F3,516.667,333/1000,66,80.0
4076,C4,516.667,333/1000,66,80.0
4077,F#5,516.75,0.25,82,80.0
4078,E-5,516.75,0.25,82,80.0
4079,E5,517.0,0.25,87,80.0
4080,G5,517.0,0.25,87,80.0
4081,A3,517.0,333/1000,66,80.0
4082,F4,517.0,333/1000,66,80.0
4083,B5,517.25,0.25,82,80.0
4084,E6,517.25,0.25,82,80.0
4085,F3,517.333,333/1000,62,80.0
4086,C4,517.333,333/1000,62,80.0
4087,F1,517.833,167/1000,54,80.0
4088,F2,517.833,167/1000,54,80.0
4089,B5,518.0,0.25,96,80.0
4090,D6,518.0,0.25,96,80.0
4091,F1,518.0,333/1000,70,80.0
4092,F2,518.0,333/1000,70,80.0
4093,D5,518.25,0.25,86,80.0
4094,G5,518.25,0.25,86,80.0
4095,C3,518.333,333/1000,60,80.0
4096,A3,518.333,333/1000,60,80.0
4097,F3,518.667,333/1000,62,80.0
4098,C4,518.667,333/1000,62,80.0
4099,A5,518.75,0.25,84,80.0
4100,F#5,518.75,0.25,84,80.0
4101,A3,519.0,327/1000,57,80.0
4102,G5,519.0,0.25,88,80.0
4103,B5,519.0,0.25,88,80.0
4104,B4,519.25,0.25,84,80.0
4105,D5,519.25,0.25,84,80.0
4106,F2,519.333,333/1000,51,80.0
4107,F1,519.667,333/1000,53,80.0
4108,B5,520.0,0.25,96,80.0
4109,D6,520.0,0.25,96,80.0
4110,E-1,520.0,0.5,57,80.0
4111,E-2,520.0,0.5,57,80.0
4112,D5,520.25,0.25,86,80.0
4113,G5,520.25,0.25,86,80.0
4114,A5,520.75,0.25,82,80.0
4115,F#5,520.75,0.25,82,80.0
4116,E-2,521.0,0.25,46,80.0
4117,G5,521.0,0.25,87,80.0
4118,B5,521.0,0.25,87,80.0
4119,F#2,521.25,0.25,39,80.0
4120,D6,521.25,0.25,82,80.0
4121,G6,521.25,0.25,82,80.0
4122,F#3,521.5,0.25,39,80.0
4123,B2,521.75,0.25,39,80.0
4124,F#2,522.0,0.25,47,80.0
4125,A5,522.0,0.25,96,80.0
4126,D6,522.0,0.25,96,80.0
4127,B2,522.25,0.25,42,80.0
4128,D5,522.25,0.25,86,80.0
4129,F#5,522.25,0.25,86,80.0
4130,B3,522.5,0.25,42,80.0
4131,E-3,522.75,0.25,44,80.0
4132,G5,522.75,0.25,84,80.0
4133,E5,522.75,0.25,84,80.0
4134,B2,523.0,0.25,49,80.0
4135,F#5,523.0,0.25,88,80.0
4136,A5,523.0,0.25,88,80.0
4137,E-3,523.25,0.25,42,80.0
4138,A4,523.25,0.25,84,80.0
4139,D5,523.25,0.25,84,80.0
4140,E-4,523.5,0.25,44,80.0
4141,F#3,523.75,0.25,44,80.0
4142,E-3,524.0,0.25,50,80.0
4143,F5,524.0,0.25,96,80.0
4144,A5,524.0,0.25,96,80.0
4145,F#3,524.25,0.25,42,80.0
4146,A4,524.25,0.25,86,80.0
4147,D5,524.25,0.25,86,80.0
4148,F#4,524.5,0.25,44,80.0
4149,B3,524.75,0.25,44,80.0
4150,E5,524.75,0.25,82,80.0
4151,C#5,524.75,0.25,82,80.0
4152,F#3,525.0,0.25,56,80.0
4153,D5,525.0,0.25,87,80.0
4154,F5,525.0,0.25,87,80.0
4155,B3,525.25,0.25,48,80.0
4156,A5,525.25,0.25,82,80.0
4157,D6,525.25,0.25,82,80.0
4158,B4,525.5,0.25,48,80.0
4159,E-4,525.75,0.25,48,80.0
4160,B3,526.0,0.25,56,80.0
4161,A5,526.0,333/1000,83,80.0
4162,C6,526.0,333/1000,83,80.0
4163,F6,526.0,333/1000,83,80.0
4164,E-4,526.25,0.25,51,80.0
4165,F#5,526.333,333/1000,86,80.0
4166,E-5,526.5,0.25,51,80.0
4167,A5,526.667,333/1000,80,80.0
4168,C6,526.667,333/1000,80,80.0
4169,F5,526.667,333/1000,80,80.0
4170,F#4,526.75,0.25,52,80.0
4171,E3,527.0,0.25,62,80.0
4172,F5,527.0,333/1000,80,80.0
4173,C5,527.0,333/1000,80,80.0
4174,B-3,527.25,0.25,56,80.0
4175,C5,527.333,333/1000,82,80.0
4176,F5,527.333,333/1000,82,80.0
4177,A5,527.333,333/1000,82,80.0
4178,G4,527.5,0.25,56,80.0
4179,A4,527.667,333/1000,82,80.0
4180,C#4,527.75,0.25,56,80.0
4181,E-3,528.0,0.25,62,80.0
4182,A4,528.0,333/1000,83,80.0
4183,C5,528.0,333/1000,83,80.0
4184,F5,528.0,333/1000,83,80.0
4185,F#3,528.25,0.25,53,80.0
4186,F#4,528.333,333/1000,86,80.0
4187,F#4,528.5,0.25,53,80.0
4188,A4,528.667,333/1000,76,80.0
4189,C5,528.667,333/1000,76,80.0
4190,F4,528.667,333/1000,76,80.0
4191,B3,528.75,0.25,53,80.0
4192,C4,529.0,333/1000,78,80.0
4193,E-2,529.0,0.25,46,80.0
4194,F#2,529.25,0.25,39,80.0
4195,A3,529.333,333/1000,73,80.0
4196,C4,529.333,333/1000,73,80.0
4197,F4,529.333,333/1000,73,80.0
4198,F#3,529.5,0.25,39,80.0
4199,F4,529.667,333/1000,73,80.0
4200,F3,529.667,333/1000,73,80.0
4201,B2,529.75,0.25,39,80.0
4202,F#2,530.0,0.25,47,80.0
4203,F#3,530.0,0.25,80,80.0
4204,F#4,530.0,0.25,80,80.0
4205,E-4,530.25,0.25,69,80.0
4206,B2,530.25,0.25,42,80.0
4207,C#4,530.5,0.25,68,80.0
4208,B3,530.5,0.25,42,80.0
4209,B3,530.75,0.25,59,80.0
4210,E-3,530.75,0.25,44,80.0
4211,B2,531.0,0.25,49,80.0
4212,F#4,531.0,0.25,62,80.0
4213,B4,531.0,0.25,62,80.0
4214,E-3,531.25,0.25,42,80.0
4215,B3,531.25,0.25,57,80.0
4216,E-4,531.25,0.25,57,80.0
4217,E-4,531.5,0.25,44,80.0
4218,F#3,531.75,0.25,44,80.0
4219,C#4,531.75,0.25,60,80.0
4220,E4,531.75,0.25,60,80.0
4221,E-3,532.0,0.25,50,80.0
4222,F#4,532.0,0.25,64,80.0
4223,E-4,532.0,0.25,64,80.0
4224,F#3,532.25,0.25,42,80.0
4225,E-5,532.25,0.25,62,80.0
4226,B4,532.25,0.25,62,80.0
4227,F#4,532.5,0.25,44,80.0
4228,B3,532.75,0.25,44,80.0
4229,F#3,533.0,0.25,56,80.0
4230,E-5,533.0,0.25,66,80.0
4231,F#5,533.0,0.25,66,80.0
4232,B3,533.25,0.25,48,80.0
4233,F#4,533.25,0.25,60,80.0
4234,B4,533.25,0.25,60,80.0
4235,B4,533.5,0.25,48,80.0
4236,E-4,533.75,0.25,48,80.0
4237,B-4,533.75,0.25,64,80.0
4238,C#5,533.75,0.25,64,80.0
4239,B3,534.0,0.25,56,80.0
4240,B4,534.0,0.25,68,80.0
4241,E-5,534.0,0.25,68,80.0
4242,E-4,534.25,0.25,51,80.0
4243,B5,534.25,0.25,64,80.0
4244,F#5,534.25,0.25,64,80.0
4245,E-5,534.5,0.25,51,80.0
4246,F#4,534.75,0.25,52,80.0
4247,E3,535.0,0.25,62,80.0
4248,B5,535.0,0.25,72,80.0
4249,E-6,535.0,0.25,72,80.0
4250,B-3,535.25,0.25,56,80.0
4251,E-5,535.25,0.25,68,80.0
4252,F#5,535.25,0.25,68,80.0
4253,G4,535.5,0.25,56,80.0
4254,C#4,535.75,0.25,56,80.0
4255,E5,535.75,0.25,70,80.0
4256,B-5,535.75,0.25,70,80.0
4257,F2,536.0,333/1000,62,80.0
4258,F#5,536.0,0.25,74,80.0
4259,B5,536.0,0.25,74,80.0
4260,F#6,536.25,0.25,69,80.0
4261,E-6,536.25,0.25,69,80.0
4262,C3,536.333,333/1000,52,80.0
4263,C#3,536.667,333/1000,41,80.0
4264,F#3,536.667,667/1000,34,80.0
4265,C3,537.0,333/1000,38,80.0
4266,G5,537.0,333/1000,82,80.0
4267,B-5,537.0,333/1000,82,80.0
4268,F2,537.333,333/1000,39,80.0
4269,G5,537.333,333/1000,71,80.0
4270,C#6,537.333,333/1000,71,80.0
4271,G6,537.333,333/1000,71,80.0
4272,E-3,537.667,333/1000,36,80.0
4273,B-3,537.667,333/1000,42,80.0
4274,G5,537.667,333/1000,71,80.0
4275,C#6,537.667,333/1000,71,80.0
4276,G6,537.667,333/1000,71,80.0
4277,A3,538.0,333/1000,39,80.0
4278,E-3,538.0,333/1000,36,80.0
4279,G5,538.0,0.25,76,80.0
4280,B5,538.0,0.25,76,80.0
4281,G6,538.0,0.25,76,80.0
4282,F#5,538.25,0.25,73,80.0
4283,F#6,538.25,0.25,73,80.0
4284,F2,538.333,333/1000,41,80.0
4285,C#3,538.667,333/1000,46,80.0
4286,F#3,538.667,667/1000,39,80.0
4287,C3,539.0,333/1000,44,80.0
4288,F#4,539.0,0.25,62,80.0
4289,B4,539.0,0.25,62,80.0
4290,B3,539.25,0.25,57,80.0
4291,E-4,539.25,0.25,57,80.0
4292,F2,539.333,333/1000,44,80.0
4293,E-3,539.667,333/1000,41,80.0
4294,B-3,539.667,333/1000,48,80.0
4295,C#4,539.75,0.25,60,80.0
4296,E4,539.75,0.25,60,80.0
4297,A3,540.0,333/1000,46,80.0
4298,E-3,540.0,333/1000,41,80.0
4299,F#4,540.0,0.25,64,80.0
4300,E-4,540.0,0.25,64,80.0
4301,E-5,540.25,0.25,62,80.0
4302,B4,540.25,0.25,62,80.0
4303,F2,540.333,333/1000,46,80.0
4304,B-3,540.667,333/1000,51,80.0
4305,E-4,540.667,667/1000,42,80.0
4306,A3,541.0,333/1000,47,80.0
4307,E-5,541.0,0.25,66,80.0
4308,F#5,541.0,0.25,66,80.0
4309,F#4,541.25,0.25,60,80.0
4310,B4,541.25,0.25,60,80.0
4311,F3,541.333,333/1000,47,80.0
4312,F#4,541.667,333/1000,46,80.0
4313,C#4,541.667,333/1000,53,80.0
4314,B-4,541.75,0.25,64,80.0
4315,C#5,541.75,0.25,64,80.0
4316,C4,542.0,333/1000,49,80.0
4317,F#4,542.0,333/1000,46,80.0
4318,B4,542.0,0.25,68,80.0
4319,E-5,542.0,0.25,68,80.0
4320,B5,542.25,0.25,64,80.0
4321,F#5,542.25,0.25,64,80.0
4322,F3,542.333,333/1000,50,80.0
4323,E-4,542.667,667/1000,48,80.0
4324,B-4,542.667,333/1000,56,80.0
4325,A4,543.0,333/1000,50,80.0
4326,B5,543.0,0.25,72,80.0
4327,E-6,543.0,0.25,72,80.0
4328,E-5,543.25,0.25,68,80.0
4329,F#5,543.25,0.25,68,80.0
4330,F3,543.333,333/1000,51,80.0
4331,B-4,543.667,333/1000,49,80.0
4332,E-5,543.667,333/1000,59,80.0
4333,E5,543.75,0.25,70,80.0
4334,B-5,543.75,0.25,70,80.0
4335,A4,544.0,333/1000,58,80.0
4336,E-5,544.0,333/1000,59,80.0
4337,F#5,544.0,0.25,74,80.0
4338,B5,544.0,0.25,74,80.0
4339,F#6,544.25,0.25,69,80.0
4340,E-6,544.25,0.25,69,80.0
4341,G5,545.0,333/1000,82,80.0
4342,B-5,545.0,333/1000,82,80.0
4343,G5,545.333,333/1000,71,80.0
4344,C#6,545.333,333/1000,71,80.0
4345,G6,545.333,333/1000,71,80.0
4346,G5,545.667,333/1000,71,80.0
4347,C#6,545.667,333/1000,71,80.0
4348,G6,545.667,333/1000,71,80.0
4349,F4,546.0,1.0,56,80.0
4350,G#5,546.0,333/1000,85,80.0
4351,C6,546.0,333/1000,85,80.0
4352,G#6,546.0,333/1000,85,80.0
4353,A5,546.333,333/1000,80,80.0
4354,E-6,546.333,333/1000,80,80.0
4355,A6,546.333,333/1000,80,80.0
4356,B-3,546.667,333/1000,61,80.0
4357,B-4,546.667,333/1000,61,80.0
4358,F4,547.0,1.0,55,80.0
4359,A3,547.0,333/1000,54,80.0
4360,A4,547.0,333/1000,54,80.0
4361,E-4,547.333,333/1000,56,80.0
4362,F#4,547.333,333/1000,56,80.0
4363,C#4,547.667,333/1000,64,80.0
4364,C#5,547.667,333/1000,64,80.0
4365,F4,548.0,2.0,49,80.0
4366,C4,548.0,333/1000,58,80.0
4367,C5,548.0,333/1000,58,80.0
4368,E-4,548.333,333/1000,58,80.0
4369,F#4,548.333,333/1000,58,80.0
4370,B-3,548.667,333/1000,66,80.0
4371,B-4,548.667,333/1000,66,80.0
4372,A3,549.0,333/1000,60,80.0
4373,A4,549.0,333/1000,60,80.0
4374,E-4,549.333,333/1000,62,80.0
4375,F#4,549.333,333/1000,62,80.0
4376,C#4,549.667,333/1000,68,80.0
4377,C#5,549.667,333/1000,68,80.0
4378,F3,550.0,1.0,40,80.0
4379,C4,550.0,333/1000,62,80.0
4380,C5,550.0,333/1000,62,80.0
4381,E-4,550.333,333/1000,66,80.0
4382,F#4,550.333,333/1000,66,80.0
4383,F#4,550.667,333/1000,72,80.0
4384,F#5,550.667,333/1000,72,80.0
4385,F3,551.0,0.875,34,80.0
4386,F4,551.0,333/1000,64,80.0
4387,F5,551.0,333/1000,64,80.0
4388,C5,551.333,333/1000,66,80.0
4389,E-5,551.333,333/1000,66,80.0
4390,B-4,551.667,333/1000,74,80.0
4391,B-5,551.667,333/1000,74,80.0
4392,B-1,551.875,0.125,39,80.0
4393,B-2,552.0,2.0,31,80.0
4394,F3,552.0,2.0,37,80.0
4395,A4,552.0,333/1000,67,80.0
4396,A5,552.0,333/1000,67,80.0
4397,E-5,552.333,333/1000,69,80.0
4398,F#5,552.333,333/1000,69,80.0
4399,C#5,552.667,333/1000,78,80.0
4400,C#6,552.667,333/1000,78,80.0
4401,C6,553.0,333/1000,69,80.0
4402,C5,553.0,333/1000,69,80.0
4403,F#5,553.333,333/1000,74,80.0
4404,E-5,553.333,333/1000,74,80.0
4405,F#6,553.667,333/1000,82,80.0
4406,F#5,553.667,333/1000,82,80.0
4407,B-3,554.0,2.0,37,80.0
4408,B-2,554.0,1.0,31,80.0
4409,F#6,554.333,333/1000,82,80.0
4410,F#5,554.333,333/1000,82,80.0
4411,C6,554.667,333/1000,69,80.0
4412,F6,554.667,333/1000,69,80.0
4413,E-3,555.0,1.0,39,80.0
4414,F#5,555.0,333/1000,68,80.0
4415,E6,555.0,333/1000,68,80.0
4416,C6,555.333,333/1000,70,80.0
4417,E-6,555.333,333/1000,70,80.0
4418,F#5,555.667,333/1000,68,80.0
4419,D6,555.667,333/1000,68,80.0
4420,F2,555.875,0.125,29,80.0
4421,F3,556.0,2.0,39,80.0
4422,F2,556.0,2.0,29,80.0
4423,A5,556.0,333/1000,64,80.0
4424,C#6,556.0,333/1000,64,80.0
4425,E-5,556.333,333/1000,68,80.0
4426,C6,556.333,333/1000,68,80.0
4427,F#5,556.667,333/1000,63,80.0
4428,B5,556.667,333/1000,63,80.0
4429,E-5,557.0,333/1000,60,80.0
4430,B-5,557.0,333/1000,60,80.0
4431,F#5,557.333,333/1000,64,80.0
4432,A5,557.333,333/1000,64,80.0
4433,C5,557.667,333/1000,58,80.0
4434,G#5,557.667,333/1000,58,80.0
4435,F3,558.0,0.5,39,80.0
4436,F2,558.0,2.0,29,80.0
4437,G5,558.0,333/1000,58,80.0
4438,E-5,558.0,333/1000,58,80.0
4439,A4,558.333,333/1000,57,80.0
4440,F#5,558.333,333/1000,57,80.0
4441,F#3,558.5,0.5,33,80.0
4442,C5,558.667,333/1000,54,80.0
4443,F5,558.667,333/1000,54,80.0
4444,G3,559.0,0.5,35,80.0
4445,A4,559.0,333/1000,54,80.0
4446,E5,559.0,333/1000,54,80.0
4447,C5,559.333,333/1000,54,80.0
4448,E-5,559.333,333/1000,54,80.0
4449,F3,559.5,0.5,33,80.0
4450,E-4,559.667,333/1000,49,80.0
4451,D5,559.667,333/1000,49,80.0
4452,B-2,560.0,2.0,33,80.0
4453,A4,560.0,333/1000,50,80.0
4454,C#5,560.0,333/1000,50,80.0
4455,E-4,560.333,333/1000,53,80.0
4456,C5,560.333,333/1000,53,80.0
4457,A4,560.667,333/1000,49,80.0
4458,B4,560.667,333/1000,49,80.0
4459,E-4,561.0,333/1000,49,80.0
4460,D5,561.0,333/1000,49,80.0
4461,A4,561.333,333/1000,52,80.0
4462,C5,561.333,333/1000,52,80.0
4463,A4,561.667,333/1000,53,80.0
4464,G5,561.667,333/1000,53,80.0
4465,B-3,562.0,1.0,39,80.0
4466,E-5,562.0,26/125,49,80.0
4467,F5,562.0,26/125,49,80.0
4468,D4,562.208,0.125,39,80.0
4469,D4,562.333,2.0,44,80.0
4470,B-4,562.333,2.0,44,80.0
4471,F5,562.333,2.0,44,80.0
4472,E-3,563.0,1.0,39,80.0
4473,F3,564.0,0.5,29,80.0
4474,F4,564.333,1.0,44,80.0
4475,B-4,564.333,1.0,44,80.0
4476,D5,564.333,1.0,44,80.0
4477,F#3,564.5,0.5,37,80.0
4478,A3,565.0,333/1000,35,80.0
4479,G3,565.333,333/1000,34,80.0
4480,G4,565.333,1.0,39,80.0
4481,C5,565.333,1.0,39,80.0
4482,E-5,565.333,1.0,39,80.0
4483,F3,565.667,333/1000,34,80.0
4484,F2,566.0,0.5,29,80.0
4485,E-4,566.333,2.0,39,80.0
4486,D5,566.333,2.0,47,80.0
4487,F#2,566.5,0.5,37,80.0
4488,A2,567.0,333/1000,35,80.0
4489,G2,567.333,333/1000,34,80.0
4490,F2,567.667,333/1000,34,80.0
4491,B-1,568.0,0.5,39,80.0
4492,C5,568.333,2.0,41,80.0
4493,E-4,568.333,2.0,39,80.0
4494,C#4,569.0,1.0,40,80.0
4495,E4,569.0,1.0,40,80.0
4496,E-4,570.0,1.0,44,80.0
4497,C4,570.0,2.0,37,80.0
4498,F3,570.0,2.0,37,80.0
4499,D4,570.333,1.0,44,80.0
4500,B-4,570.333,1.0,44,80.0
4501,F5,570.333,1.0,44,80.0
4502,G4,571.0,0.75,44,80.0
4503,B-4,571.333,1.0,44,80.0
4504,F4,571.333,1.0,44,80.0
4505,D5,571.333,1.0,44,80.0
4506,F4,571.75,0.125,40,80.0
4507,B-2,571.875,0.125,39,80.0
4508,F3,571.938,0.062,39,80.0
4509,F4,572.0,1.0,46,80.0
4510,B-2,572.0,1.0,39,80.0
4511,F3,572.0,1.0,39,80.0
4512,B-4,572.333,1.0,41,80.0
4513,G4,572.333,0.5,45,80.0
4514,E-5,572.333,0.5,45,80.0
4515,F4,572.833,0.5,43,80.0
4516,D5,572.833,0.5,43,80.0
4517,E4,573.0,1.0,44,80.0
4518,B4,573.333,0.5,39,80.0
4519,G#4,573.333,0.5,39,80.0
4520,F5,573.333,0.5,39,80.0
4521,C5,573.833,0.5,37,80.0
4522,G4,573.833,0.5,37,80.0
4523,E-5,573.833,0.5,37,80.0
4524,E-4,574.0,1.0,39,80.0
4525,C4,574.0,1.0,39,80.0
4526,F3,574.0,1.0,39,80.0
4527,F4,574.0,1.0,39,80.0
4528,D5,574.333,2.0,45,80.0
4529,E-4,574.333,2.0,34,80.0
4530,A4,574.333,2.0,34,80.0
4531,E-3,575.0,1.0,37,80.0
4532,G3,575.0,1.0,37,80.0
4533,C4,575.0,1.0,37,80.0
4534,E-4,575.0,1.0,37,80.0
4535,C4,576.0,1.0,43,80.0
4536,A3,576.0,1.0,43,80.0
4537,D3,576.0,1.0,43,80.0
4538,F#4,576.0,1.0,43,80.0
4539,F#1,577.0,1.0,39,80.0
4540,F#2,577.0,1.0,39,80.0
4541,G1,578.0,1.0,45,80.0
4542,G2,578.0,1.0,45,80.0
4543,C5,578.333,2.0,41,80.0
4544,E-4,578.333,2.0,34,80.0
4545,A4,578.333,2.0,34,80.0
4546,A1,579.0,0.75,45,80.0
4547,A2,579.0,0.75,45,80.0
4548,B-1,579.75,0.25,41,80.0
4549,B-2,579.75,0.25,41,80.0
4550,B1,580.0,1.0,45,80.0
4551,B2,580.0,1.0,45,80.0
4552,B-4,580.333,1.0,45,80.0
4553,D4,580.333,1.0,45,80.0
4554,F5,580.333,1.0,45,80.0
4555,C2,581.0,0.75,45,80.0
4556,C3,581.0,0.75,45,80.0
4557,G4,581.333,1.0,43,80.0
4558,B-4,581.333,1.0,43,80.0
4559,G5,581.333,1.0,43,80.0
4560,D2,581.75,0.25,41,80.0
4561,D3,581.75,0.25,41,80.0
4562,E-2,582.0,1.0,45,80.0
4563,E-3,582.0,1.0,45,80.0
4564,E-5,582.333,2.0,44,80.0
4565,A4,582.333,1.0,48,80.0
4566,A5,582.333,1.0,48,80.0
4567,F2,583.0,1.0,44,80.0
4568,F3,583.0,1.0,44,80.0
4569,B-4,583.333,0.75,54,80.0
4570,B-5,583.333,0.75,54,80.0
4571,B-1,584.0,333/1000,39,80.0
4572,C5,584.083,0.25,55,80.0
4573,A5,584.083,0.25,55,80.0
4574,C6,584.083,0.25,55,80.0
4575,E3,584.333,333/1000,33,80.0
4576,D5,584.333,1.0,53,80.0
4577,B-5,584.333,1.0,53,80.0
4578,D6,584.333,1.0,53,80.0
4579,F3,584.667,333/1000,31,80.0
4580,G3,585.0,333/1000,37,80.0
4581,F3,585.333,333/1000,31,80.0
4582,G4,585.333,1.0,46,80.0
4583,B-4,585.333,1.0,46,80.0
4584,C#5,585.333,1.0,46,80.0
4585,G5,585.333,1.0,46,80.0
4586,F2,585.667,333/1000,31,80.0
4587,B-2,586.0,333/1000,39,80.0
4588,C5,586.333,1.0,44,80.0
4589,E3,586.333,333/1000,35,80.0
4590,A4,586.333,0.875,48,80.0
4591,A5,586.333,0.875,48,80.0
4592,F3,586.667,333/1000,35,80.0
4593,G3,587.0,333/1000,37,80.0
4594,G4,587.208,1.125,56,80.0
4595,C5,587.271,1.062,56,80.0
4596,B-5,587.333,0.75,58,80.0
4597,F3,587.333,333/1000,33,80.0
4598,F2,587.667,333/1000,33,80.0
4599,C3,588.0,333/1000,39,80.0
4600,C6,588.083,0.25,60,80.0
4601,E3,588.333,333/1000,35,80.0
4602,D5,588.333,1.0,56,80.0
4603,A5,588.333,1.0,56,80.0
4604,D6,588.333,1.0,56,80.0
4605,F3,588.667,333/1000,35,80.0
4606,G3,589.0,333/1000,37,80.0
4607,F3,589.333,333/1000,33,80.0
4608,C5,589.333,1.0,54,80.0
4609,A5,589.333,1.0,54,80.0
4610,D5,589.333,1.0,54,80.0
4611,C6,589.333,1.0,54,80.0
4612,F2,589.667,333/1000,33,80.0
4613,E-3,590.0,333/1000,39,80.0
4614,E3,590.333,333/1000,35,80.0
4615,D5,590.333,1.0,58,80.0
4616,B-4,590.333,1.0,58,80.0
4617,G5,590.333,1.0,58,80.0
4618,B-5,590.333,1.0,58,80.0
4619,F3,590.667,333/1000,35,80.0
4620,G3,591.0,333/1000,37,80.0
4621,F3,591.333,333/1000,33,80.0
4622,C#5,591.333,0.75,56,80.0
4623,F5,591.333,0.75,56,80.0
4624,A5,591.333,0.75,56,80.0
4625,F2,591.667,333/1000,33,80.0
4626,B-1,592.0,0.5,39,80.0
4627,G4,592.083,0.25,56,80.0
4628,D5,592.083,0.25,56,80.0
4629,G5,592.083,0.25,56,80.0
4630,F4,592.333,1.0,55,80.0
4631,G4,592.333,1.0,55,80.0
4632,D5,592.333,1.0,55,80.0
4633,F5,592.333,1.0,55,80.0
4634,E3,592.5,0.25,34,80.0
4635,F3,592.75,0.25,33,80.0
4636,G3,593.0,0.25,37,80.0
4637,F3,593.25,9/40,31,80.0
4638,E-4,593.333,0.75,54,80.0
4639,G4,593.333,0.75,54,80.0
4640,C5,593.333,0.75,54,80.0
4641,E-5,593.333,0.75,54,80.0
4642,F3,593.5,0.25,37,80.0
4643,F2,593.75,0.25,37,80.0
4644,B-2,594.0,0.5,39,80.0
4645,F#4,594.083,0.25,53,80.0
4646,B-4,594.083,0.25,53,80.0
4647,D5,594.083,0.25,53,80.0
4648,C4,594.333,2.0,56,80.0
4649,C5,594.333,2.0,56,80.0
4650,G4,594.333,1.0,54,80.0
4651,B-4,594.333,1.0,54,80.0
4652,E3,594.5,0.25,35,80.0
4653,F3,594.75,0.25,35,80.0
4654,G3,595.0,0.25,37,80.0
4655,F3,595.25,9/40,33,80.0
4656,F4,595.333,0.5,47,80.0
4657,A4,595.333,0.5,47,80.0
4658,F3,595.5,0.25,37,80.0
4659,F2,595.75,0.25,31,80.0
4660,E-4,595.833,0.5,46,80.0
4661,G4,595.833,0.5,46,80.0
4662,F1,596.0,0.5,39,80.0
4663,D4,596.333,2.0,53,80.0
4664,B-4,596.333,2.0,53,80.0
4665,F5,596.333,2.0,53,80.0
4666,E3,596.5,0.25,35,80.0
4667,F3,596.75,0.25,35,80.0
4668,G3,597.0,0.25,37,80.0
4669,F3,597.25,9/40,33,80.0
4670,F3,597.5,0.25,37,80.0
4671,F2,597.75,0.25,33,80.0
4672,E-3,598.0,0.5,39,80.0
4673,F4,598.333,1.0,53,80.0
4674,B-4,598.333,1.0,53,80.0
4675,D5,598.333,1.0,53,80.0
4676,E3,598.5,0.25,35,80.0
4677,F3,598.75,0.25,35,80.0
4678,G3,599.0,0.25,39,80.0
4679,F3,599.25,9/40,35,80.0
4680,D4,599.333,0.5,36,80.0
4681,F4,599.333,0.5,36,80.0
4682,F3,599.5,0.25,39,80.0
4683,F2,599.75,0.25,35,80.0
4684,G4,599.833,0.5,46,80.0
4685,C5,599.833,0.5,46,80.0
4686,E-5,599.833,0.5,46,80.0
4687,B-2,600.0,0.25,44,80.0
4688,F3,600.25,0.25,39,80.0
4689,D5,600.333,1.5,68,80.0
4690,E-4,600.333,2.0,38,80.0
4691,A4,600.333,2.0,38,80.0
4692,G3,600.5,0.25,39,80.0
4693,F3,600.75,0.25,39,80.0
4694,D4,601.0,0.25,44,80.0
4695,F3,601.25,0.25,40,80.0
4696,G3,601.5,0.25,40,80.0
4697,F3,601.75,0.25,41,80.0
4698,C5,601.833,0.5,55,80.0
4699,F2,602.0,0.25,45,80.0
4700,F3,602.25,0.25,40,80.0
4701,G4,602.333,0.5,58,80.0
4702,G3,602.5,0.25,41,80.0
4703,F3,602.75,0.25,41,80.0
4704,F4,602.833,0.5,52,80.0
4705,E-4,603.0,0.25,47,80.0
4706,F3,603.25,0.25,44,80.0
4707,B-3,603.333,0.5,61,80.0
4708,G3,603.5,0.25,44,80.0
4709,F3,603.75,0.25,44,80.0
4710,C4,603.833,0.5,55,80.0
4711,B-2,604.0,0.25,48,80.0
4712,F3,604.25,0.25,42,80.0
4713,B-4,604.333,2.0,54,80.0
4714,D4,604.333,1.0,62,80.0
4715,F5,604.333,1.0,62,80.0
4716,G3,604.5,0.25,42,80.0
4717,F3,604.75,0.25,42,80.0
4718,D4,605.0,0.25,49,80.0
4719,F3,605.25,0.25,46,80.0
4720,F4,605.333,1.0,56,80.0
4721,D5,605.333,1.0,56,80.0
4722,G3,605.5,0.25,46,80.0
4723,F3,605.75,0.25,46,80.0
4724,F2,606.0,0.25,50,80.0
4725,F3,606.25,0.25,46,80.0
4726,B-4,606.333,2.0,57,80.0
4727,G4,606.333,0.5,60,80.0
4728,E-5,606.333,0.5,60,80.0
4729,G3,606.5,0.25,46,80.0
4730,F3,606.75,0.25,46,80.0
4731,F4,606.833,0.5,50,80.0
4732,D5,606.833,0.5,50,80.0
4733,E-4,607.0,0.25,52,80.0
4734,F3,607.25,0.25,49,80.0
4735,F4,607.333,333/1000,52,80.0
4736,D5,607.333,333/1000,52,80.0
4737,G3,607.5,0.25,49,80.0
4738,A4,607.667,333/1000,50,80.0
4739,F5,607.667,333/1000,50,80.0
4740,F3,607.75,0.25,49,80.0
4741,F#2,608.0,0.25,57,80.0
4742,G4,608.0,333/1000,50,80.0
4743,E-5,608.0,333/1000,50,80.0
4744,C#3,608.25,0.25,51,80.0
4745,D5,608.333,1.5,64,80.0
4746,E-4,608.333,2.0,42,80.0
4747,A4,608.333,2.0,42,80.0
4748,D3,608.5,0.25,51,80.0
4749,A3,608.75,0.25,51,80.0
4750,F#3,609.0,0.25,58,80.0
4751,C#4,609.25,0.25,53,80.0
4752,D4,609.5,0.25,53,80.0
4753,A4,609.75,0.25,53,80.0
4754,C5,609.833,0.5,58,80.0
4755,G2,610.0,0.25,59,80.0
4756,C#3,610.25,0.25,52,80.0
4757,G4,610.333,333/1000,60,80.0
4758,D3,610.5,0.25,52,80.0
4759,F4,610.667,333/1000,51,80.0
4760,B-3,610.75,0.25,53,80.0
4761,G4,611.0,333/1000,51,80.0
4762,G3,611.0,0.25,60,80.0
4763,C#4,611.25,0.25,55,80.0
4764,F4,611.333,333/1000,58,80.0
4765,D4,611.5,0.25,55,80.0
4766,B-3,611.667,333/1000,53,80.0
4767,B-4,611.75,0.25,56,80.0
4768,C4,612.0,26/125,53,80.0
4769,A2,612.0,0.25,61,80.0
4770,D4,612.208,0.125,51,80.0
4771,E3,612.25,0.25,55,80.0
4772,B-4,612.271,0.062,61,80.0
4773,F5,612.333,1.0,73,80.0
4774,D4,612.333,1.0,51,80.0
4775,B-4,612.333,2.0,61,80.0
4776,F3,612.5,0.25,55,80.0
4777,C4,612.75,0.25,55,80.0
4778,A3,613.0,0.25,62,80.0
4779,E4,613.25,0.25,57,80.0
4780,G4,613.333,1.0,62,80.0
4781,G5,613.333,1.0,62,80.0
4782,F4,613.5,0.25,57,80.0
4783,C5,613.75,0.25,57,80.0
4784,B2,614.0,0.25,62,80.0
4785,F#3,614.25,0.25,56,80.0
4786,F5,614.333,2.0,58,80.0
4787,F5,614.333,2.0,58,80.0
4788,E-5,614.333,2.0,58,80.0
4789,A4,614.333,1.0,65,80.0
4790,A5,614.333,1.0,65,80.0
4791,G3,614.5,0.25,57,80.0
4792,D4,614.75,0.25,57,80.0
4793,B3,615.0,0.25,63,80.0
4794,F#4,615.25,0.25,58,80.0
4795,B-4,615.333,0.75,74,80.0
4796,B-5,615.333,0.75,74,80.0
4797,G4,615.5,0.25,59,80.0
4798,C2,616.0,0.25,59,80.0
4799,C5,616.083,0.25,72,80.0
4800,C6,616.083,0.25,72,80.0
4801,G2,616.25,0.25,52,80.0
4802,D5,616.333,2.0,66,80.0
4803,F5,616.333,1.0,74,80.0
4804,D6,616.333,1.0,74,80.0
4805,C3,616.5,0.25,52,80.0
4806,G3,616.75,0.25,52,80.0
4807,D2,617.0,0.25,59,80.0
4808,G2,617.25,0.25,52,80.0
4809,G5,617.333,1.0,67,80.0
4810,G4,617.333,1.0,67,80.0
4811,D3,617.5,0.25,52,80.0
4812,G3,617.75,0.25,52,80.0
4813,E-2,618.0,0.25,62,80.0
4814,G2,618.25,0.25,52,80.0
4815,A4,618.333,1.0,72,80.0
4816,A5,618.333,1.0,72,80.0
4817,F5,618.333,2.0,66,80.0
4818,E-5,618.333,2.0,66,80.0
4819,C3,618.5,0.25,52,80.0
4820,G3,618.75,0.25,52,80.0
4821,E2,619.0,0.25,61,80.0
4822,B-2,619.25,0.25,52,80.0
4823,B-5,619.333,0.75,74,80.0
4824,B-4,619.333,0.75,74,80.0
4825,C#3,619.5,0.25,52,80.0
4826,G3,619.75,0.25,52,80.0
4827,F2,620.0,0.25,59,80.0
4828,C5,620.083,0.25,70,80.0
4829,C6,620.083,0.25,70,80.0
4830,C3,620.25,0.25,52,80.0
4831,A5,620.333,2.0,70,80.0
4832,C6,620.333,2.0,70,80.0
4833,D5,620.333,1.0,80,80.0
4834,D6,620.333,1.0,80,80.0
4835,E-3,620.5,0.25,52,80.0
4836,A3,620.75,0.25,52,80.0
4837,G2,621.0,0.25,58,80.0
4838,B-2,621.25,0.25,52,80.0
4839,E-5,621.333,1.0,84,80.0
4840,E-6,621.333,1.0,84,80.0
4841,E-3,621.5,0.25,52,80.0
4842,B-3,621.75,0.25,52,80.0
4843,A2,622.0,0.25,52,80.0
4844,C3,622.25,0.25,47,80.0
4845,E-3,622.5,0.25,47,80.0
4846,C4,622.75,0.25,47,80.0
4847,G5,622.833,2.0,74,80.0
4848,B-5,622.833,2.0,74,80.0
4849,E-5,622.833,0.5,84,80.0
4850,E-6,622.833,0.5,84,80.0
4851,C3,623.0,0.25,55,80.0
4852,E-3,623.25,0.25,47,80.0
4853,D5,623.333,0.5,74,80.0
4854,D6,623.333,0.5,74,80.0
4855,A3,623.5,0.25,47,80.0
4856,E-4,623.75,0.25,47,80.0
4857,C#5,623.833,0.5,72,80.0
4858,C#6,623.833,0.5,72,80.0
4859,D3,624.0,0.5,49,80.0
4860,D4,624.0,0.5,49,80.0
4861,B-3,624.0,0.5,49,80.0
4862,D5,624.333,0.5,72,80.0
4863,D6,624.333,0.5,72,80.0
4864,D4,624.5,0.5,41,80.0
4865,B-3,624.5,0.5,41,80.0
4866,D3,624.5,0.5,41,80.0
4867,A5,624.833,2.0,62,80.0
4868,C6,624.833,2.0,62,80.0
4869,E-6,624.833,2.0,62,80.0
4870,F6,624.833,1.0,81,80.0
4871,F5,624.833,1.0,81,80.0
4872,E-3,625.0,0.5,45,80.0
4873,B-3,625.0,0.5,45,80.0
4874,E-4,625.0,0.5,45,80.0
4875,F3,625.5,0.5,41,80.0
4876,B-3,625.5,0.5,41,80.0
4877,D4,625.5,0.5,41,80.0
4878,G5,625.833,1.0,77,80.0
4879,G6,625.833,1.0,77,80.0
4880,E-4,626.0,0.5,46,80.0
4881,F#3,626.0,0.5,46,80.0
4882,B2,626.5,0.5,43,80.0
4883,B3,626.5,0.5,43,80.0
4884,C3,627.0,0.5,48,80.0
4885,C4,627.0,0.5,48,80.0
4886,D6,627.333,1.0,85,80.0
4887,G5,627.333,0.5,77,80.0
4888,G6,627.333,0.5,77,80.0
4889,E-3,627.5,0.5,44,80.0
4890,E-4,627.5,0.5,44,80.0
4891,F5,627.833,0.5,70,80.0
4892,F6,627.833,0.5,70,80.0
4893,D3,628.0,0.5,41,80.0
4894,F3,628.0,0.5,41,80.0
4895,D4,628.0,0.5,41,80.0
4896,B-3,628.0,0.5,41,80.0
4897,G5,628.333,1.0,62,80.0
4898,E-5,628.333,0.75,77,80.0
4899,E-6,628.333,0.75,77,80.0
4900,A2,628.5,0.5,39,80.0
4901,A3,628.5,0.5,39,80.0
4902,B-2,629.0,0.5,49,80.0
4903,B-3,629.0,0.5,49,80.0
4904,D6,629.083,0.25,72,80.0
4905,D5,629.083,0.25,72,80.0
4906,G5,629.333,1.0,67,80.0
4907,F5,629.333,0.5,81,80.0
4908,F6,629.333,0.5,81,80.0
4909,E2,629.5,0.375,41,80.0
4910,E3,629.5,0.375,41,80.0
4911,E-5,629.833,0.5,69,80.0
4912,E-6,629.833,0.5,69,80.0
4913,E1,630.0,0.5,48,80.0
4914,E2,630.0,0.5,48,80.0
4915,G5,630.333,1.0,59,80.0
4916,D5,630.333,0.5,67,80.0
4917,D6,630.333,0.5,67,80.0
4918,F2,630.5,1.5,48,80.0
4919,F1,630.5,1.0,40,80.0
4920,B4,630.833,0.5,62,80.0
4921,B5,630.833,0.5,62,80.0
4922,G3,631.0,0.5,55,80.0
4923,G5,631.333,1.0,59,80.0
4924,D6,631.333,0.5,73,80.0
4925,D5,631.333,0.5,73,80.0
4926,F3,631.5,0.5,51,80.0
4927,C6,631.833,0.5,64,80.0
4928,C5,631.833,0.5,64,80.0
4929,B-2,632.0,333/1000,53,80.0
4930,F3,632.0,333/1000,51,80.0
4931,C#5,632.333,1.0,57,80.0
4932,G5,632.333,0.5,66,80.0
4933,G4,632.333,0.5,66,80.0
4934,E3,632.333,167/1000,46,80.0
4935,B-3,632.333,167/1000,46,80.0
4936,E3,632.667,167/1000,46,80.0
4937,B-3,632.667,167/1000,46,80.0
4938,B-5,632.833,0.5,62,80.0
4939,B-4,632.833,0.5,62,80.0
4940,E3,633.0,333/1000,51,80.0
4941,B-3,633.0,333/1000,51,80.0
4942,F3,633.333,167/1000,42,80.0
4943,A3,633.333,167/1000,42,80.0
4944,F3,633.667,167/1000,45,80.0
4945,F4,633.667,167/1000,45,80.0
4946,C4,633.667,167/1000,45,80.0
4947,C5,633.833,1.0,64,80.0
4948,E-5,633.833,1.0,64,80.0
4949,B-5,633.833,0.5,62,80.0
4950,B-4,633.833,0.5,62,80.0
4951,F3,634.0,333/1000,49,80.0
4952,C4,634.0,333/1000,49,80.0
4953,F4,634.0,333/1000,49,80.0
4954,A5,634.333,1.0,64,80.0
4955,A4,634.333,1.0,64,80.0
4956,B-3,634.333,167/1000,46,80.0
4957,F4,634.333,167/1000,46,80.0
4958,E4,634.667,167/1000,51,80.0
4959,B-4,634.667,167/1000,51,80.0
4960,E-5,634.833,1.0,67,80.0
4961,B-4,634.833,1.0,67,80.0
4962,E4,635.0,333/1000,56,80.0
4963,B-4,635.0,333/1000,56,80.0
4964,G4,635.333,0.5,64,80.0
4965,G5,635.333,0.5,64,80.0
4966,F4,635.333,167/1000,44,80.0
4967,A4,635.333,167/1000,44,80.0
4968,F4,635.667,167/1000,45,80.0
4969,C5,635.667,167/1000,45,80.0
4970,F5,635.667,167/1000,45,80.0
4971,C5,635.833,1.0,74,80.0
4972,E-5,635.833,1.0,74,80.0
4973,G4,635.833,0.5,64,80.0
4974,G5,635.833,0.5,64,80.0
4975,F4,636.0,333/1000,49,80.0
4976,C5,636.0,333/1000,49,80.0
4977,F5,636.0,333/1000,49,80.0
4978,F#4,636.333,1.0,64,80.0
4979,F#5,636.333,1.0,64,80.0
4980,B-4,636.333,167/1000,46,80.0
4981,F5,636.333,167/1000,46,80.0
4982,B-4,636.667,167/1000,48,80.0
4983,E4,636.667,167/1000,48,80.0
4984,E-5,636.833,1.0,66,80.0
4985,A4,636.833,1.0,66,80.0
4986,E4,637.0,333/1000,51,80.0
4987,B-4,637.0,333/1000,51,80.0
4988,F4,637.333,0.5,65,80.0
4989,F5,637.333,0.5,65,80.0
4990,F4,637.333,167/1000,45,80.0
4991,A4,637.333,167/1000,45,80.0
4992,F3,637.667,167/1000,47,80.0
4993,C4,637.667,167/1000,47,80.0
4994,F4,637.667,167/1000,47,80.0
4995,B-4,637.833,0.5,53,80.0
4996,F4,637.833,0.5,65,80.0
4997,F5,637.833,0.5,65,80.0
4998,F3,638.0,333/1000,49,80.0
4999,C4,638.0,333/1000,49,80.0
5000,F4,638.0,333/1000,49,80.0
5001,B-4,638.333,0.5,61,80.0
5002,F#4,638.333,0.5,61,80.0
5003,F#5,638.333,0.5,61,80.0
5004,B-3,638.333,167/1000,45,80.0
5005,F4,638.333,167/1000,45,80.0
5006,E3,638.667,167/1000,48,80.0
5007,B-3,638.667,167/1000,48,80.0
5008,B-4,638.833,0.5,65,80.0
5009,G4,638.833,0.5,65,80.0
5010,G5,638.833,0.5,65,80.0
5011,E3,639.0,333/1000,51,80.0
5012,B-3,639.0,333/1000,51,80.0
5013,F4,639.333,0.5,61,80.0
5014,B-4,639.333,0.5,61,80.0
5015,F5,639.333,0.5,61,80.0
5016,F3,639.333,167/1000,42,80.0
5017,A3,639.333,167/1000,42,80.0
5018,C3,639.667,167/1000,47,80.0
5019,F2,639.667,167/1000,47,80.0
5020,F3,639.667,167/1000,47,80.0
5021,A4,639.833,0.5,64,80.0
5022,C5,639.833,0.5,64,80.0
5023,F2,640.0,333/1000,49,80.0
5024,F3,640.0,333/1000,49,80.0
5025,C3,640.0,333/1000,49,80.0
5026,F4,640.333,0.5,58,80.0
5027,G#4,640.333,0.5,58,80.0
5028,D5,640.333,0.5,58,80.0
5029,F3,640.333,167/1000,42,80.0
5030,B-2,640.333,167/1000,42,80.0
5031,C3,640.667,167/1000,38,80.0
5032,E3,640.667,167/1000,38,80.0
5033,B-3,640.667,167/1000,38,80.0
5034,E-4,640.833,0.5,64,80.0
5035,G4,640.833,0.5,64,80.0
5036,E-5,640.833,0.5,64,80.0
5037,C3,641.0,333/1000,39,80.0
5038,E3,641.0,333/1000,39,80.0
5039,B-3,641.0,333/1000,39,80.0
5040,F#4,641.333,0.5,62,80.0
5041,A4,641.333,0.5,62,80.0
5042,F3,641.333,167/1000,38,80.0
5043,A3,641.333,167/1000,38,80.0
5044,F3,641.667,167/1000,31,80.0
5045,F4,641.667,167/1000,31,80.0
5046,C4,641.667,167/1000,31,80.0
5047,F4,641.833,0.5,64,80.0
5048,B-4,641.833,0.5,64,80.0
5049,F3,642.0,333/1000,35,80.0
5050,C4,642.0,333/1000,35,80.0
5051,F4,642.0,333/1000,35,80.0
5052,E-4,642.333,0.5,60,80.0
5053,F#4,642.333,0.5,60,80.0
5054,C5,642.333,0.5,60,80.0
5055,B-3,642.333,167/1000,32,80.0
5056,F4,642.333,167/1000,32,80.0
5057,C4,642.667,167/1000,36,80.0
5058,E4,642.667,167/1000,36,80.0
5059,B-4,642.667,167/1000,36,80.0
5060,D4,642.833,0.5,61,80.0
5061,F4,642.833,0.5,61,80.0
5062,D5,642.833,0.5,61,80.0
5063,C4,643.0,333/1000,39,80.0
5064,E4,643.0,333/1000,39,80.0
5065,B-4,643.0,333/1000,39,80.0
5066,B-3,643.333,0.375,62,80.0
5067,C#4,643.333,0.375,62,80.0
5068,G4,643.333,0.375,62,80.0
5069,F4,643.333,167/1000,32,80.0
5070,A4,643.333,167/1000,32,80.0
5071,F4,643.667,167/1000,28,80.0
5072,C5,643.667,167/1000,28,80.0
5073,F5,643.667,167/1000,28,80.0
5074,B-3,643.708,0.125,50,80.0
5075,C4,643.833,2.0,58,80.0
5076,E-4,643.833,2.0,58,80.0
5077,B-3,643.833,1.0,64,80.0
5078,B-4,643.833,1.0,64,80.0
5079,F4,644.0,333/1000,31,80.0
5080,C5,644.0,333/1000,31,80.0
5081,F5,644.0,333/1000,31,80.0
5082,B-4,644.333,167/1000,28,80.0
5083,F5,644.333,167/1000,28,80.0
5084,C4,644.667,167/1000,35,80.0
5085,B-4,644.667,167/1000,35,80.0
5086,E4,644.667,167/1000,35,80.0
5087,A3,644.833,1.0,56,80.0
5088,A4,644.833,1.0,56,80.0
5089,C4,645.0,333/1000,37,80.0
5090,E4,645.0,333/1000,37,80.0
5091,B-4,645.0,333/1000,37,80.0
5092,F4,645.333,167/1000,36,80.0
5093,A4,645.333,167/1000,36,80.0
5094,F3,645.667,167/1000,35,80.0
5095,C4,645.667,167/1000,35,80.0
5096,F4,645.667,167/1000,35,80.0
5097,D4,645.833,333/1000,69,80.0
5098,B-4,645.833,333/1000,69,80.0
5099,B-3,645.833,333/1000,69,80.0
5100,F3,646.0,333/1000,37,80.0
5101,C4,646.0,333/1000,37,80.0
5102,F4,646.0,333/1000,37,80.0
5103,C#4,646.167,167/1000,68,80.0
5104,F#4,646.167,167/1000,68,80.0
5105,B-3,646.333,167/1000,36,80.0
5106,F4,646.333,167/1000,36,80.0
5107,C#4,646.5,167/1000,68,80.0
5108,F#4,646.5,167/1000,68,80.0
5109,C3,646.667,167/1000,35,80.0
5110,E3,646.667,167/1000,35,80.0
5111,B-3,646.667,167/1000,35,80.0
5112,C#4,646.833,333/1000,68,80.0
5113,F#4,646.833,333/1000,68,80.0
5114,C3,647.0,333/1000,37,80.0
5115,E3,647.0,333/1000,37,80.0
5116,B-3,647.0,333/1000,37,80.0
5117,C4,647.167,167/1000,64,80.0
5118,F4,647.167,167/1000,64,80.0
5119,F3,647.333,167/1000,36,80.0
5120,A3,647.333,167/1000,36,80.0
5121,A4,647.5,167/1000,68,80.0
5122,E-5,647.5,167/1000,68,80.0
5123,F2,647.667,167/1000,45,80.0
5124,F3,647.667,167/1000,45,80.0
5125,A4,647.833,333/1000,68,80.0
5126,E-5,647.833,333/1000,68,80.0
5127,F2,648.0,333/1000,43,80.0
5128,F3,648.0,333/1000,43,80.0
5129,B-4,648.167,167/1000,68,80.0
5130,D5,648.167,167/1000,68,80.0
5131,E2,648.333,167/1000,38,80.0
5132,E3,648.333,167/1000,38,80.0
5133,C#5,648.5,167/1000,68,80.0
5134,F#5,648.5,167/1000,68,80.0
5135,E3,648.667,167/1000,42,80.0
5136,F#3,648.667,167/1000,42,80.0
5137,C#5,648.833,333/1000,68,80.0
5138,F#5,648.833,333/1000,68,80.0
5139,E3,649.0,333/1000,43,80.0
5140,F#3,649.0,333/1000,43,80.0
5141,C5,649.167,167/1000,66,80.0
5142,F5,649.167,167/1000,66,80.0
5143,E3,649.333,167/1000,38,80.0
5144,B3,649.333,167/1000,38,80.0
5145,A5,649.5,167/1000,68,80.0
5146,E-6,649.5,167/1000,68,80.0
5147,E3,649.667,167/1000,40,80.0
5148,B3,649.667,167/1000,40,80.0
5149,A5,649.833,333/1000,71,80.0
5150,E-6,649.833,333/1000,71,80.0
5151,E3,650.0,333/1000,43,80.0
5152,B3,650.0,333/1000,43,80.0
5153,B-5,650.167,167/1000,68,80.0
5154,D6,650.167,167/1000,68,80.0
5155,A3,650.333,167/1000,36,80.0
5156,E3,650.333,167/1000,36,80.0
5157,E4,650.333,167/1000,36,80.0
5158,F#5,650.5,167/1000,68,80.0
5159,C#5,650.5,167/1000,68,80.0
5160,E3,650.667,167/1000,44,80.0
5161,B3,650.667,167/1000,44,80.0
5162,F#4,650.667,167/1000,44,80.0
5163,C#5,650.833,333/1000,71,80.0
5164,F#5,650.833,333/1000,71,80.0
5165,E3,651.0,333/1000,47,80.0
5166,B3,651.0,333/1000,47,80.0
5167,F#4,651.0,333/1000,47,80.0
5168,C5,651.167,167/1000,66,80.0
5169,F5,651.167,167/1000,66,80.0
5170,E3,651.333,167/1000,40,80.0
5171,B3,651.333,167/1000,40,80.0
5172,E4,651.333,167/1000,40,80.0
5173,A4,651.5,167/1000,68,80.0
5174,E-5,651.5,167/1000,68,80.0
5175,D4,651.667,167/1000,41,80.0
5176,E3,651.667,167/1000,41,80.0
5177,E4,651.667,167/1000,41,80.0
5178,B3,651.667,167/1000,41,80.0
5179,A4,651.833,333/1000,71,80.0
5180,E-5,651.833,333/1000,71,80.0
5181,D4,652.0,333/1000,41,80.0
5182,B3,652.0,333/1000,41,80.0
5183,E3,652.0,333/1000,41,80.0
5184,E4,652.0,333/1000,41,80.0
5185,B-4,652.167,167/1000,64,80.0
5186,D5,652.167,167/1000,64,80.0
5187,B3,652.333,333/1000,42,80.0
5188,F4,652.333,333/1000,42,80.0
5189,F#4,652.5,167/1000,68,80.0
5190,C#4,652.5,167/1000,68,80.0
5191,D3,652.667,333/1000,61,80.0
5192,C#4,652.833,333/1000,68,80.0
5193,F#4,652.833,333/1000,68,80.0
5194,F3,653.0,333/1000,52,80.0
5195,D4,653.0,333/1000,52,80.0
5196,C4,653.167,167/1000,62,80.0
5197,F4,653.167,167/1000,62,80.0
5198,B2,653.333,333/1000,62,80.0
5199,A3,653.5,167/1000,68,80.0
5200,E-4,653.5,167/1000,68,80.0
5201,F3,653.667,333/1000,54,80.0
5202,B3,653.667,333/1000,54,80.0
5203,A3,653.833,333/1000,68,80.0
5204,E-4,653.833,333/1000,68,80.0
5205,G#2,654.0,333/1000,64,80.0
5206,B-3,654.167,167/1000,58,80.0
5207,D4,654.167,167/1000,58,80.0
5208,B2,654.333,333/1000,55,80.0
5209,G#3,654.333,333/1000,55,80.0
5210,C4,654.5,167/1000,54,80.0
5211,G4,654.5,167/1000,54,80.0
5212,F2,654.667,333/1000,69,80.0
5213,C4,654.833,333/1000,56,80.0
5214,G4,654.833,333/1000,56,80.0
5215,B2,655.0,333/1000,58,80.0
5216,F3,655.0,333/1000,58,80.0
5217,F4,655.167,167/1000,58,80.0
5218,D2,655.333,333/1000,77,80.0
5219,A4,655.5,167/1000,48,80.0
5220,E-5,655.5,167/1000,48,80.0
5221,D1,655.667,333/1000,69,80.0
5222,D2,655.667,333/1000,69,80.0
5223,A4,655.833,333/1000,50,80.0
5224,E-5,655.833,333/1000,50,80.0
5225,C#2,656.0,333/1000,42,80.0
5226,C#1,656.0,333/1000,42,80.0
5227,B-4,656.167,167/1000,48,80.0
5228,D5,656.167,167/1000,48,80.0
5229,C#2,656.333,333/1000,43,80.0
5230,C#3,656.333,333/1000,43,80.0
5231,C5,656.5,167/1000,48,80.0
5232,G5,656.5,167/1000,48,80.0
5233,C#2,656.667,333/1000,44,80.0
5234,C#3,656.667,333/1000,44,80.0
5235,C5,656.833,333/1000,50,80.0
5236,G5,656.833,333/1000,50,80.0
5237,C#2,657.0,333/1000,44,80.0
5238,C#3,657.0,333/1000,44,80.0
5239,F5,657.167,167/1000,51,80.0
5240,C#2,657.333,333/1000,44,80.0
5241,C#3,657.333,333/1000,44,80.0
5242,A5,657.5,167/1000,42,80.0
5243,E-6,657.5,167/1000,42,80.0
5244,C#2,657.667,333/1000,45,80.0
5245,C#3,657.667,333/1000,45,80.0
5246,A5,657.833,333/1000,44,80.0
5247,E-6,657.833,333/1000,44,80.0
5248,C#2,658.0,333/1000,46,80.0
5249,C#3,658.0,333/1000,46,80.0
5250,B-5,658.167,167/1000,42,80.0
5251,D6,658.167,167/1000,42,80.0
5252,C2,658.333,333/1000,48,80.0
5253,C3,658.333,333/1000,48,80.0
5254,G5,658.5,167/1000,51,80.0
5255,C5,658.5,167/1000,51,80.0
5256,C2,658.667,333/1000,48,80.0
5257,C3,658.667,333/1000,48,80.0
5258,C5,658.833,333/1000,54,80.0
5259,G5,658.833,333/1000,54,80.0
5260,C2,659.0,333/1000,52,80.0
5261,C3,659.0,333/1000,52,80.0
5262,F5,659.167,167/1000,56,80.0
5263,C#2,659.333,333/1000,48,80.0
5264,C#3,659.333,333/1000,48,80.0
5265,A4,659.5,167/1000,52,80.0
5266,E-5,659.5,167/1000,52,80.0
5267,C#2,659.667,333/1000,48,80.0
5268,C#3,659.667,333/1000,48,80.0
5269,A4,659.833,333/1000,54,80.0
5270,E-5,659.833,333/1000,54,80.0
5271,C#2,660.0,167/1000,51,80.0
5272,C#3,660.0,167/1000,51,80.0
5273,B-4,660.167,167/1000,51,80.0
5274,D5,660.167,167/1000,51,80.0
5275,C#2,660.333,167/1000,52,80.0
5276,C#3,660.333,167/1000,52,80.0
5277,G4,660.5,167/1000,52,80.0
5278,C4,660.5,167/1000,52,80.0
5279,C#2,660.667,167/1000,53,80.0
5280,C#3,660.667,167/1000,53,80.0
5281,C4,660.833,333/1000,54,80.0
5282,G4,660.833,333/1000,54,80.0
5283,C#2,661.0,167/1000,54,80.0
5284,C#3,661.0,167/1000,54,80.0
5285,F4,661.167,167/1000,56,80.0
5286,C#2,661.333,167/1000,54,80.0
5287,C#3,661.333,167/1000,54,80.0
5288,C4,661.5,167/1000,55,80.0
5289,A3,661.5,167/1000,55,80.0
5290,E-4,661.5,167/1000,55,80.0
5291,C#2,661.667,167/1000,56,80.0
5292,C#3,661.667,167/1000,56,80.0
5293,C4,661.833,333/1000,52,80.0
5294,A3,661.833,333/1000,52,80.0
5295,E-4,661.833,333/1000,52,80.0
5296,C#3,662.0,167/1000,57,80.0
5297,C#2,662.0,167/1000,57,80.0
5298,C#4,662.167,167/1000,47,80.0
5299,A3,662.167,167/1000,47,80.0
5300,E4,662.167,167/1000,47,80.0
5301,C2,662.333,167/1000,57,80.0
5302,C3,662.333,167/1000,57,80.0
5303,A3,662.5,167/1000,50,80.0
5304,B3,662.5,167/1000,50,80.0
5305,E-4,662.5,167/1000,50,80.0
5306,A4,662.5,167/1000,50,80.0
5307,C2,662.667,167/1000,58,80.0
5308,C3,662.667,167/1000,58,80.0
5309,A3,662.833,333/1000,52,80.0
5310,B3,662.833,333/1000,52,80.0
5311,E-4,662.833,333/1000,52,80.0
5312,A4,662.833,333/1000,52,80.0
5313,C2,663.0,167/1000,58,80.0
5314,C3,663.0,167/1000,58,80.0
5315,G#3,663.167,167/1000,47,80.0
5316,E4,663.167,167/1000,47,80.0
5317,G#4,663.167,167/1000,47,80.0
5318,C#2,663.333,167/1000,60,80.0
5319,C#3,663.333,167/1000,60,80.0
5320,D4,663.5,167/1000,49,80.0
5321,E4,663.5,167/1000,49,80.0
5322,G#4,663.5,167/1000,49,80.0
5323,D5,663.5,167/1000,49,80.0
5324,C#2,663.667,167/1000,62,80.0
5325,C#3,663.667,167/1000,62,80.0
5326,D4,663.833,333/1000,52,80.0
5327,E4,663.833,333/1000,52,80.0
5328,G#4,663.833,333/1000,52,80.0
5329,D5,663.833,333/1000,52,80.0
5330,D2,664.0,167/1000,63,80.0
5331,D3,664.0,167/1000,63,80.0
5332,C#4,664.167,167/1000,47,80.0
5333,A4,664.167,167/1000,47,80.0
5334,C#5,664.167,167/1000,47,80.0
5335,F3,664.333,333/1000,57,80.0
5336,B-2,664.333,333/1000,57,80.0
5337,B-3,664.333,333/1000,57,80.0
5338,A4,664.5,167/1000,50,80.0
5339,B4,664.5,167/1000,50,80.0
5340,E-5,664.5,167/1000,50,80.0
5341,A5,664.5,167/1000,50,80.0
5342,F3,664.667,333/1000,58,80.0
5343,B-2,664.667,333/1000,58,80.0
5344,B-3,664.667,333/1000,58,80.0
5345,A4,664.833,333/1000,52,80.0
5346,B4,664.833,333/1000,52,80.0
5347,E-5,664.833,333/1000,52,80.0
5348,A5,664.833,333/1000,52,80.0
5349,B-2,665.0,333/1000,60,80.0
5350,F3,665.0,333/1000,60,80.0
5351,B-3,665.0,333/1000,60,80.0
5352,G#4,665.167,167/1000,46,80.0
5353,E5,665.167,167/1000,46,80.0
5354,G#5,665.167,167/1000,46,80.0
5355,D5,665.5,167/1000,50,80.0
5356,E5,665.5,167/1000,50,80.0
5357,G#5,665.5,167/1000,50,80.0
5358,D6,665.5,167/1000,50,80.0
5359,D5,665.833,333/1000,52,80.0
5360,E5,665.833,333/1000,52,80.0
5361,G#5,665.833,333/1000,52,80.0
5362,D6,665.833,333/1000,52,80.0
5363,E-1,666.0,333/1000,82,80.0
5364,E-2,666.0,333/1000,82,80.0
5365,G4,666.167,333/1000,54,80.0
5366,B4,666.167,333/1000,54,80.0
5367,E-3,666.333,333/1000,57,80.0
5368,B-2,666.333,333/1000,57,80.0
5369,B-3,666.333,333/1000,57,80.0
5370,G#4,666.5,333/1000,73,80.0
5371,F5,666.5,333/1000,73,80.0
5372,E-3,666.667,333/1000,58,80.0
5373,B-2,666.667,333/1000,58,80.0
5374,B-3,666.667,333/1000,58,80.0
5375,B-4,666.833,333/1000,71,80.0
5376,D5,666.833,333/1000,71,80.0
5377,B-2,667.0,333/1000,60,80.0
5378,E-3,667.0,333/1000,60,80.0
5379,B-3,667.0,333/1000,60,80.0
5380,B4,667.167,333/1000,78,80.0
5381,G#5,667.167,333/1000,78,80.0
5382,C#5,667.5,333/1000,72,80.0
5383,F5,667.5,333/1000,72,80.0
5384,D5,667.833,333/1000,82,80.0
5385,B5,667.833,333/1000,82,80.0
5386,F1,668.0,333/1000,82,80.0
5387,F2,668.0,333/1000,82,80.0
5388,G#5,668.167,333/1000,78,80.0
5389,E5,668.167,333/1000,78,80.0
5390,F3,668.333,333/1000,57,80.0
5391,B-2,668.333,333/1000,57,80.0
5392,B-3,668.333,333/1000,57,80.0
5393,F5,668.5,333/1000,85,80.0
5394,D6,668.5,333/1000,85,80.0
5395,F3,668.667,333/1000,58,80.0
5396,B-2,668.667,333/1000,58,80.0
5397,B-3,668.667,333/1000,58,80.0
5398,G5,668.833,333/1000,80,80.0
5399,B5,668.833,333/1000,80,80.0
5400,B-2,669.0,333/1000,60,80.0
5401,F3,669.0,333/1000,60,80.0
5402,B-3,669.0,333/1000,60,80.0
5403,G#5,669.167,333/1000,86,80.0
5404,F6,669.167,333/1000,86,80.0
5405,G#5,669.5,333/1000,84,80.0
5406,G#6,669.5,333/1000,84,80.0
5407,E6,669.833,333/1000,90,80.0
5408,A5,669.833,333/1000,90,80.0
5409,A6,669.833,333/1000,90,80.0
5410,F#1,670.0,333/1000,82,80.0
5411,F#2,670.0,333/1000,82,80.0
5412,A3,670.167,333/1000,68,80.0
5413,E4,670.167,333/1000,68,80.0
5414,A4,670.167,333/1000,68,80.0
5415,E-3,670.333,333/1000,57,80.0
5416,B-2,670.333,333/1000,57,80.0
5417,B-3,670.333,333/1000,57,80.0
5418,A3,670.5,333/1000,68,80.0
5419,E4,670.5,333/1000,68,80.0
5420,A4,670.5,333/1000,68,80.0
5421,E-3,670.667,333/1000,58,80.0
5422,B-2,670.667,333/1000,58,80.0
5423,B-3,670.667,333/1000,58,80.0
5424,A3,670.833,333/1000,62,80.0
5425,E4,670.833,333/1000,62,80.0
5426,A4,670.833,333/1000,62,80.0
5427,B-2,671.0,333/1000,60,80.0
5428,E-3,671.0,333/1000,60,80.0
5429,B-3,671.0,333/1000,60,80.0
5430,A3,671.167,333/1000,67,80.0
5431,E4,671.167,333/1000,67,80.0
5432,A4,671.167,333/1000,67,80.0
5433,A3,671.5,333/1000,67,80.0
5434,E4,671.5,333/1000,67,80.0
5435,A4,671.5,333/1000,67,80.0
5436,G1,671.75,0.25,66,80.0
5437,G2,671.75,0.25,66,80.0
5438,A3,671.833,333/1000,65,80.0
5439,F4,671.833,333/1000,65,80.0
5440,A4,671.833,333/1000,65,80.0
5441,G#1,672.0,0.125,80,80.0
5442,G#2,672.0,0.125,80,80.0
5443,A3,672.167,333/1000,68,80.0
5444,F4,672.167,333/1000,68,80.0
5445,A4,672.167,333/1000,68,80.0
5446,F1,672.25,0.125,72,80.0
5447,F2,672.25,0.125,72,80.0
5448,A3,672.5,333/1000,68,80.0
5449,F4,672.5,333/1000,68,80.0
5450,A4,672.5,333/1000,68,80.0
5451,G1,672.75,0.125,80,80.0
5452,G2,672.75,0.125,80,80.0
5453,A3,672.833,333/1000,72,80.0
5454,F4,672.833,333/1000,72,80.0
5455,A4,672.833,333/1000,72,80.0
5456,G#1,673.0,0.125,74,80.0
5457,G#2,673.0,0.125,74,80.0
5458,A3,673.167,333/1000,71,80.0
5459,F4,673.167,333/1000,71,80.0
5460,A4,673.167,333/1000,71,80.0
5461,F1,673.25,0.125,74,80.0
5462,F2,673.25,0.125,74,80.0
5463,A3,673.5,333/1000,71,80.0
5464,F4,673.5,333/1000,71,80.0
5465,A4,673.5,333/1000,71,80.0
5466,A3,673.833,167/1000,71,80.0
5467,F4,673.833,167/1000,71,80.0
5468,A4,673.833,167/1000,71,80.0
5469,G#1,674.0,0.25,62,80.0
5470,G#2,674.0,0.25,62,80.0
5471,B-3,674.167,167/1000,72,80.0
5472,F4,674.167,167/1000,72,80.0
5473,B-4,674.167,167/1000,72,80.0
5474,F1,674.25,0.125,54,80.0
5475,F2,674.25,0.125,54,80.0
5476,B-3,674.5,167/1000,73,80.0
5477,F4,674.5,167/1000,73,80.0
5478,B-4,674.5,167/1000,73,80.0
5479,G1,674.75,0.25,57,80.0
5480,G2,674.75,0.25,57,80.0
5481,B-3,674.833,167/1000,75,80.0
5482,F4,674.833,167/1000,75,80.0
5483,B-4,674.833,167/1000,75,80.0
5484,G#1,675.0,0.25,56,80.0
5485,G#2,675.0,0.25,56,80.0
5486,B-3,675.167,167/1000,75,80.0
5487,F#4,675.167,167/1000,75,80.0
5488,B-4,675.167,167/1000,75,80.0
5489,F1,675.25,0.125,56,80.0
5490,F2,675.25,0.125,56,80.0
5491,B-3,675.5,167/1000,76,80.0
5492,F#4,675.5,167/1000,76,80.0
5493,B-4,675.5,167/1000,76,80.0
5494,B-3,675.833,167/1000,77,80.0
5495,F#4,675.833,167/1000,77,80.0
5496,B-4,675.833,167/1000,77,80.0
5497,G#1,676.0,0.25,62,80.0
5498,G#2,676.0,0.25,62,80.0
5499,B-3,676.167,167/1000,78,80.0
5500,F#4,676.167,167/1000,78,80.0
5501,B-4,676.167,167/1000,78,80.0
5502,F1,676.25,0.125,55,80.0
5503,F2,676.25,0.125,55,80.0
5504,B-3,676.5,167/1000,80,80.0
5505,F#4,676.5,167/1000,80,80.0
5506,B-4,676.5,167/1000,80,80.0
5507,G1,676.75,0.25,59,80.0
5508,G2,676.75,0.25,59,80.0
5509,B-3,676.833,167/1000,82,80.0
5510,F#4,676.833,167/1000,82,80.0
5511,B-4,676.833,167/1000,82,80.0
5512,G#1,677.0,0.25,56,80.0
5513,G#2,677.0,0.25,56,80.0
5514,B-3,677.167,167/1000,83,80.0
5515,F4,677.167,167/1000,83,80.0
5516,B-4,677.167,167/1000,83,80.0
5517,F1,677.25,0.125,58,80.0
5518,F2,677.25,0.125,58,80.0
5519,B-3,677.5,167/1000,84,80.0
5520,E4,677.5,167/1000,84,80.0
5521,B-4,677.5,167/1000,84,80.0
5522,B-3,677.833,167/1000,87,80.0
5523,F4,677.833,167/1000,87,80.0
5524,B-4,677.833,167/1000,87,80.0
5525,A1,678.0,0.25,67,80.0
5526,A2,678.0,0.25,67,80.0
5527,D4,678.167,333/1000,81,80.0
5528,F4,678.167,333/1000,81,80.0
5529,D5,678.167,333/1000,81,80.0
5530,F#1,678.25,0.125,60,80.0
5531,F#2,678.25,0.125,60,80.0
5532,D4,678.5,333/1000,81,80.0
5533,F4,678.5,333/1000,81,80.0
5534,D5,678.5,333/1000,81,80.0
5535,G1,678.75,0.25,65,80.0
5536,G2,678.75,0.25,65,80.0
5537,D4,678.833,333/1000,86,80.0
5538,F4,678.833,333/1000,86,80.0
5539,D5,678.833,333/1000,86,80.0
5540,A1,679.0,0.25,63,80.0
5541,A2,679.0,0.25,63,80.0
5542,C4,679.167,333/1000,82,80.0
5543,C5,679.167,333/1000,82,80.0
5544,F#2,679.25,0.125,63,80.0
5545,F#3,679.25,0.125,63,80.0
5546,B-3,679.5,333/1000,82,80.0
5547,B-4,679.5,333/1000,82,80.0
5548,B-1,680.0,0.25,69,80.0
5549,B-2,680.0,0.25,69,80.0
5550,D4,680.167,333/1000,81,80.0
5551,F#4,680.167,333/1000,81,80.0
5552,D5,680.167,333/1000,81,80.0
5553,G1,680.25,0.125,62,80.0
5554,G2,680.25,0.125,62,80.0
5555,D4,680.5,333/1000,81,80.0
5556,F#4,680.5,333/1000,81,80.0
5557,D5,680.5,333/1000,81,80.0
5558,A1,680.75,0.25,66,80.0
5559,A2,680.75,0.25,66,80.0
5560,D4,680.833,333/1000,86,80.0
5561,F#4,680.833,333/1000,86,80.0
5562,D5,680.833,333/1000,86,80.0
5563,B-1,681.0,0.25,65,80.0
5564,B-2,681.0,0.25,65,80.0
5565,C4,681.167,333/1000,82,80.0
5566,C5,681.167,333/1000,82,80.0
5567,G2,681.25,0.125,66,80.0
5568,G3,681.25,0.125,66,80.0
5569,B-3,681.5,333/1000,82,80.0
5570,B-4,681.5,333/1000,82,80.0
5571,B1,682.0,0.25,74,80.0
5572,B2,682.0,0.25,74,80.0
5573,D4,682.167,333/1000,81,80.0
5574,F4,682.167,333/1000,81,80.0
5575,D5,682.167,333/1000,81,80.0
5576,B2,682.25,0.125,66,80.0
5577,B3,682.25,0.125,66,80.0
5578,D4,682.5,333/1000,81,80.0
5579,F4,682.5,333/1000,81,80.0
5580,D5,682.5,333/1000,81,80.0
5581,D4,682.833,333/1000,86,80.0
5582,F4,682.833,333/1000,86,80.0
5583,D5,682.833,333/1000,86,80.0
5584,C2,683.0,333/1000,68,80.0
5585,C3,683.0,333/1000,68,80.0
5586,C4,683.167,333/1000,82,80.0
5587,C5,683.167,333/1000,82,80.0
5588,C3,683.333,333/1000,74,80.0
5589,C4,683.333,333/1000,74,80.0
5590,B-3,683.5,333/1000,82,80.0
5591,B-4,683.5,333/1000,82,80.0
5592,C#3,683.667,333/1000,78,80.0
5593,C#4,683.667,333/1000,78,80.0
5594,D3,684.0,1.0,70,80.0
5595,B-3,684.0,1.0,70,80.0
5596,D4,684.0,1.0,70,80.0
5597,E-4,684.167,333/1000,88,80.0
5598,D5,684.167,333/1000,88,80.0
5599,E-4,684.5,333/1000,88,80.0
5600,D5,684.5,333/1000,88,80.0
5601,E-4,684.833,1.0,85,80.0
5602,D5,684.833,333/1000,101,80.0
5603,E-3,685.0,1.0,71,80.0
5604,B-3,685.0,1.0,71,80.0
5605,E-4,685.0,1.0,71,80.0
5606,C5,685.167,333/1000,95,80.0
5607,B-4,685.5,333/1000,95,80.0
5608,D4,685.833,2.0,92,80.0
5609,F4,685.833,2.0,92,80.0
5610,B-4,685.833,2.0,92,80.0
5611,D5,685.833,2.0,92,80.0
5612,F#3,686.0,1.0,70,80.0
5613,B-3,686.0,1.0,70,80.0
5614,C4,686.0,1.0,70,80.0
5615,E-4,686.0,1.0,70,80.0
5616,F#4,686.0,1.0,70,80.0
5617,F3,687.0,1.0,68,80.0
5618,C4,687.0,1.0,68,80.0
5619,E-4,687.0,1.0,68,80.0
5620,F4,687.0,1.0,68,80.0
5621,D4,687.833,1.0,78,80.0
5622,F4,687.833,1.0,78,80.0
5623,B-4,687.833,1.0,78,80.0
5624,D5,687.833,1.0,78,80.0
5625,B-2,688.0,1.0,79,80.0
5626,B-3,688.0,1.0,79,80.0
5627,D4,688.833,1.0,76,80.0
5628,F4,688.833,1.0,76,80.0
5629,B4,688.833,1.0,76,80.0
5630,D5,688.833,1.0,76,80.0
5631,E-2,689.0,1.0,78,80.0
5632,E-3,689.0,1.0,78,80.0
5633,D4,689.833,1.0,76,80.0
5634,F4,689.833,1.0,76,80.0
5635,B-4,689.833,1.0,76,80.0
5636,D5,689.833,1.0,76,80.0
5637,B-1,690.0,1.0,80,80.0
5638,B-2,690.0,1.0,80,80.0
5639,D4,690.833,1.0,75,80.0
5640,F4,690.833,1.0,75,80.0
5641,B4,690.833,1.0,75,80.0
5642,D5,690.833,1.0,75,80.0
5643,E-1,691.0,1.0,78,80.0
5644,E-2,691.0,1.0,78,80.0
5645,E-4,691.833,1.0,81,80.0
5646,F#4,691.833,1.0,81,80.0
5647,B4,691.833,1.0,81,80.0
5648,E-5,691.833,1.0,81,80.0
5649,B-1,692.0,2.0,83,80.0
5650,B-2,692.0,2.0,83,80.0
5651,E-4,692.833,1.0,80,80.0
5652,F#4,692.833,1.0,80,80.0
5653,C5,692.833,1.0,80,80.0
5654,E-5,692.833,1.0,80,80.0
5655,E4,693.833,1.0,81,80.0
5656,G4,693.833,1.0,81,80.0
5657,C5,693.833,1.0,81,80.0
5658,E5,693.833,1.0,81,80.0
5659,D4,694.0,2.0,80,80.0
5660,F4,694.0,2.0,80,80.0
5661,B-4,694.0,2.0,80,80.0
5662,D5,694.0,2.0,80,80.0
5663,E4,694.833,1.0,80,80.0
5664,G4,694.833,1.0,80,80.0
5665,C#5,694.833,1.0,80,80.0
5666,E5,694.833,1.0,80,80.0
5667,F4,695.833,1.0,84,80.0
5668,G#4,695.833,1.0,84,80.0
5669,C#5,695.833,1.0,84,80.0
5670,F5,695.833,1.0,84,80.0
5671,B-2,696.0,2.0,69,80.0
5672,B-1,696.0,2.0,69,80.0
5673,F2,696.0,2.0,69,80.0
5674,D3,696.0,2.0,69,80.0
5675,F3,696.0,2.0,69,80.0
5676,B-3,696.0,2.0,69,80.0
5677,F4,696.833,1.0,84,80.0
5678,A4,696.833,1.0,84,80.0
5679,E-5,696.833,1.0,84,80.0
5680,F5,696.833,1.0,84,80.0
5681,F4,697.833,1.0,88,80.0
5682,B-4,697.833,1.0,88,80.0
5683,F5,697.833,1.0,88,80.0
5684,F#4,698.833,1.0,89,80.0
5685,B-4,698.833,1.0,89,80.0
5686,F#5,698.833,1.0,89,80.0
5687,B-4,699.833,1.0,87,80.0
5688,C5,699.833,1.0,87,80.0
5689,E-5,699.833,1.0,87,80.0
5690,B-5,699.833,1.0,87,80.0
5691,A4,700.833,1.0,85,80.0
5692,C5,700.833,1.0,85,80.0
5693,E-5,700.833,1.0,85,80.0
5694,A5,700.833,1.0,85,80.0
5695,B-4,701.833,1.0,96,80.0
5696,D5,701.833,1.0,96,80.0
5697,B-5,701.833,1.0,96,80.0
5698,B-4,702.833,1.0,92,80.0
5699,E-5,702.833,1.0,92,80.0
5700,F#5,702.833,1.0,92,80.0
5701,B-5,702.833,1.0,92,80.0
5702,B-4,703.833,1.0,93,80.0
5703,D5,703.833,1.0,93,80.0
5704,F5,703.833,1.0,93,80.0
5705,B-5,703.833,1.0,93,80.0
5706,B-4,704.833,1.0,93,80.0
5707,E-5,704.833,1.0,93,80.0
5708,F#5,704.833,1.0,93,80.0
5709,B-5,704.833,1.0,93,80.0
5710,B-4,705.833,2.0,100,80.0
5711,D5,705.833,2.0,100,80.0
5712,F5,705.833,2.0,100,80.0
5713,B-5,705.833,2.0,100,80.0
5714,B-5,707.833,2.0,108,80.0
5715,B-6,707.833,2.0,108,80.0
5716,D4,709.833,2.0,105,80.0
