,note_name,start_time,duration,velocity,tempo
0,F3,0.0,1.0,37,57.45
1,B-3,0.0,1.0,37,57.45
2,B-1,0.0,1.0,30,57.45
3,F2,0.0,1.0,30,57.45
4,B-2,0.0,1.0,30,57.45
5,F#3,1.0,1.0,34,57.45
6,B-3,1.0,0.75,40,57.45
7,C#2,1.0,1.0,27,57.45
8,F#2,1.0,1.0,27,57.45
9,C#3,1.0,1.0,27,57.45
10,B-3,1.75,0.25,36,57.45
11,F3,2.0,1.0,34,57.45
12,B-3,2.0,2.0,40,57.45
13,B-1,2.0,1.0,30,57.45
14,F2,2.0,1.0,30,57.45
15,B-2,2.0,1.0,30,57.45
16,F#3,3.0,1.0,28,57.45
17,C#2,3.0,1.0,25,57.45
18,F#2,3.0,1.0,25,57.45
19,C#3,3.0,1.0,25,57.45
20,F3,4.0,1.0,37,57.45
21,B-3,4.0,1.0,37,57.45
22,B-1,4.0,1.0,30,57.45
23,F2,4.0,1.0,30,57.45
24,B-2,4.0,1.0,30,57.45
25,F#3,5.0,1.0,34,57.45
26,B-3,5.0,0.75,40,57.45
27,C#2,5.0,1.0,27,57.45
28,F#2,5.0,1.0,27,57.45
29,C#3,5.0,1.0,27,57.45
30,B-3,5.75,0.25,36,57.45
31,F3,6.0,1.0,34,57.45
32,B-3,6.0,2.0,40,57.45
33,B-1,6.0,1.0,30,57.45
34,F2,6.0,1.0,30,57.45
35,B-2,6.0,1.0,30,57.45
36,F#3,7.0,1.0,28,57.45
37,C#2,7.0,1.0,24,57.45
38,F#2,7.0,1.0,24,57.45
39,C#3,7.0,1.0,24,57.45
40,F3,8.0,1.0,37,57.45
41,B-3,8.0,1.0,37,57.45
42,B-1,8.0,1.0,30,57.45
43,F2,8.0,1.0,30,57.45
44,B-2,8.0,1.0,30,57.45
45,F#3,9.0,1.0,34,57.45
46,B-3,9.0,0.75,40,57.45
47,C#2,9.0,1.0,28,57.45
48,F#2,9.0,1.0,28,57.45
49,C#3,9.0,1.0,28,57.45
50,B-3,9.75,9/40,36,57.45
51,F3,10.0,1.0,37,57.45
52,B-3,10.0,1.0,37,57.45
53,B-1,10.0,1.0,30,57.45
54,F2,10.0,1.0,30,57.45
55,B-2,10.0,1.0,30,57.45
56,C#4,11.0,0.75,49,57.45
57,F#3,11.0,1.0,39,57.45
58,C#2,11.0,1.0,25,57.45
59,F#2,11.0,1.0,25,57.45
60,C#3,11.0,1.0,25,57.45
61,C4,11.75,9/40,45,57.45
62,C4,12.0,0.75,48,57.45
63,F3,12.0,1.0,39,57.45
64,B-1,12.0,1.0,30,57.45
65,F2,12.0,1.0,30,57.45
66,B-2,12.0,1.0,30,57.45
67,B-3,12.75,9/40,42,57.45
68,F#3,13.0,1.0,37,57.45
69,B-3,13.0,0.75,44,57.45
70,C#2,13.0,1.0,27,57.45
71,F#2,13.0,1.0,27,57.45
72,C#3,13.0,1.0,27,57.45
73,B-3,13.75,9/40,36,57.45
74,F3,14.0,1.0,34,57.45
75,B-3,14.0,2.0,40,57.45
76,B-1,14.0,1.0,30,57.45
77,F2,14.0,1.0,30,57.45
78,B-2,14.0,1.0,30,57.45
79,F#3,15.0,1.0,28,57.45
80,C#2,15.0,1.0,24,57.45
81,F#2,15.0,1.0,24,57.45
82,C#3,15.0,1.0,24,57.45
83,B-3,16.0,1.0,45,57.45
84,F3,16.0,1.0,45,57.45
85,C#4,16.0,1.0,45,57.45
86,B-1,16.0,1.0,37,57.45
87,F2,16.0,1.0,37,57.45
88,B-2,16.0,1.0,37,57.45
89,C#4,17.0,0.75,50,57.45
90,B-3,17.0,1.0,42,57.45
91,F#3,17.0,1.0,42,57.45
92,C#2,17.0,1.0,35,57.45
93,F#2,17.0,1.0,35,57.45
94,C#3,17.0,1.0,35,57.45
95,C#4,17.75,9/40,45,57.45
96,B-3,18.0,1.0,45,57.45
97,F3,18.0,1.0,45,57.45
98,C#4,18.0,1.0,45,57.45
99,B-1,18.0,1.0,37,57.45
100,F2,18.0,1.0,37,57.45
101,B-2,18.0,1.0,37,57.45
102,F#3,19.0,1.0,48,57.45
103,F4,19.0,0.75,56,57.45
104,C#4,19.0,0.75,56,57.45
105,C#2,19.0,1.0,32,57.45
106,F#2,19.0,1.0,32,57.45
107,C#3,19.0,1.0,32,57.45
108,E-4,19.75,0.125,50,57.45
109,C4,19.75,0.125,50,57.45
110,F4,19.875,0.125,48,57.45
111,F3,20.0,1.0,48,57.45
112,E-4,20.0,0.75,54,57.45
113,C4,20.0,0.75,54,57.45
114,B-1,20.0,1.0,37,57.45
115,F2,20.0,1.0,37,57.45
116,B-2,20.0,1.0,37,57.45
117,C#4,20.75,9/40,48,57.45
118,B-3,20.75,9/40,48,57.45
119,F#3,21.0,1.0,46,57.45
120,C#4,21.0,0.75,52,57.45
121,B-3,21.0,0.75,52,57.45
122,C#2,21.0,1.0,32,57.45
123,F#2,21.0,1.0,32,57.45
124,C#3,21.0,1.0,32,57.45
125,C#4,21.75,9/40,42,57.45
126,B-3,21.75,9/40,42,57.45
127,F3,22.0,1.0,42,57.45
128,C#4,22.0,2.0,48,57.45
129,B-3,22.0,2.0,48,57.45
130,B-1,22.0,1.0,37,57.45
131,F2,22.0,1.0,37,57.45
132,B-2,22.0,1.0,37,57.45
133,F#3,23.0,1.0,35,57.45
134,C#2,23.0,1.0,29,57.45
135,F#2,23.0,1.0,29,57.45
136,C#3,23.0,1.0,29,57.45
137,B-4,24.0,0.5,73,57.45
138,C#4,24.0,0.875,58,57.45
139,B-3,24.0,0.875,58,57.45
140,B-1,24.0,1.0,45,57.45
141,F2,24.0,1.0,45,57.45
142,B-2,24.0,1.0,45,57.45
143,G#4,24.5,0.375,66,57.45
144,G#4,24.875,0.125,58,57.45
145,F#4,25.0,0.75,61,57.45
146,C#4,25.0,1.0,55,57.45
147,B-3,25.0,1.0,55,57.45
148,C#2,25.0,1.0,39,57.45
149,F#2,25.0,1.0,39,57.45
150,C#3,25.0,1.0,39,57.45
151,F4,25.75,9/40,53,57.45
152,B-3,26.0,1.0,53,57.45
153,F4,26.0,1.0,53,57.45
154,C#4,26.0,1.0,53,57.45
155,B-1,26.0,1.0,41,57.45
156,F2,26.0,1.0,41,57.45
157,B-2,26.0,1.0,41,57.45
158,B-3,27.0,1.0,46,57.45
159,C#4,27.0,1.0,46,57.45
160,C#2,27.0,1.0,30,57.45
161,F#2,27.0,1.0,30,57.45
162,C#3,27.0,1.0,30,57.45
163,B-4,28.0,0.5,73,57.45
164,C#4,28.0,0.875,58,57.45
165,B-3,28.0,0.875,58,57.45
166,B-1,28.0,1.0,45,57.45
167,F2,28.0,1.0,45,57.45
168,B-2,28.0,1.0,45,57.45
169,G#4,28.5,0.375,65,57.45
170,G#4,28.875,0.125,58,57.45
171,F#4,29.0,0.75,61,57.45
172,C#4,29.0,1.0,55,57.45
173,B-3,29.0,1.0,55,57.45
174,C#2,29.0,1.0,39,57.45
175,F#2,29.0,1.0,39,57.45
176,C#3,29.0,1.0,39,57.45
177,F4,29.75,9/40,54,57.45
178,B-3,30.0,1.0,53,57.45
179,F4,30.0,1.0,53,57.45
180,C#4,30.0,1.0,53,57.45
181,B-1,30.0,1.0,41,57.45
182,F2,30.0,1.0,41,57.45
183,B-2,30.0,1.0,41,57.45
184,B-3,31.0,1.0,46,57.45
185,C#4,31.0,1.0,46,57.45
186,C#2,31.0,1.0,30,57.45
187,F#2,31.0,1.0,30,57.45
188,C#3,31.0,1.0,30,57.45
189,F3,32.0,1.0,42,57.45
190,B-3,32.0,1.0,42,57.45
191,B-1,32.0,1.0,34,57.45
192,F2,32.0,1.0,34,57.45
193,B-2,32.0,1.0,34,57.45
194,F#3,33.0,1.0,39,57.45
195,B-3,33.0,0.75,46,57.45
196,C#2,33.0,1.0,32,57.45
197,F#2,33.0,1.0,32,57.45
198,C#3,33.0,1.0,32,57.45
199,B-3,33.75,9/40,41,57.45
200,B-3,34.0,1.0,42,57.45
201,F3,34.0,1.0,42,57.45
202,B-1,34.0,1.0,34,57.45
203,F2,34.0,1.0,34,57.45
204,B-2,34.0,1.0,34,57.45
205,C#4,35.0,0.75,54,57.45
206,F#3,35.0,1.0,44,57.45
207,C#2,35.0,1.0,29,57.45
208,F#2,35.0,1.0,29,57.45
209,C#3,35.0,1.0,29,57.45
210,C4,35.75,0.125,49,57.45
211,C#4,35.875,0.125,45,57.45
212,C4,36.0,0.75,52,57.45
213,F3,36.0,1.0,44,57.45
214,B-1,36.0,1.0,34,57.45
215,F2,36.0,1.0,34,57.45
216,B-2,36.0,1.0,34,57.45
217,B-3,36.75,9/40,46,57.45
218,F#3,37.0,1.0,42,57.45
219,B-3,37.0,0.75,50,57.45
220,C#2,37.0,1.0,30,57.45
221,F#2,37.0,1.0,30,57.45
222,C#3,37.0,1.0,30,57.45
223,B-3,37.75,9/40,41,57.45
224,F3,38.0,1.0,39,57.45
225,B-3,38.0,2.0,46,57.45
226,B-1,38.0,1.0,34,57.45
227,F2,38.0,1.0,34,57.45
228,B-2,38.0,1.0,34,57.45
229,F#3,39.0,1.0,32,57.45
230,C#2,39.0,1.0,27,57.45
231,F#2,39.0,1.0,27,57.45
232,C#3,39.0,1.0,27,57.45
233,C#5,40.0,479/500,68,57.45
234,B-5,40.0,0.5,76,57.45
235,B-4,40.0,0.5,76,57.45
236,B-1,40.0,1.0,50,57.45
237,F2,40.0,1.0,50,57.45
238,B-2,40.0,1.0,50,57.45
239,G#4,40.5,0.375,64,57.45
240,G#5,40.5,0.375,64,57.45
241,G#4,40.875,21/500,64,57.45
242,C#5,40.917,1083/1000,57,57.45
243,G#5,40.958,21/500,59,57.45
244,F#5,41.0,0.75,73,57.45
245,C#5,41.0,1.0,68,57.45
246,F#4,41.0,1.0,68,57.45
247,C#2,41.0,1.0,40,57.45
248,F#2,41.0,1.0,40,57.45
249,C#3,41.0,1.0,40,57.45
250,F4,41.75,9/40,56,57.45
251,F5,41.75,9/40,56,57.45
252,F4,42.0,1.0,65,57.45
253,F5,42.0,1.0,65,57.45
254,C#5,42.0,1.0,65,57.45
255,B-1,42.0,1.0,42,57.45
256,F2,42.0,1.0,42,57.45
257,B-2,42.0,1.0,42,57.45
258,C#5,43.0,1.0,64,57.45
259,C#4,43.0,1.0,64,57.45
260,B-4,43.0,1.0,64,57.45
261,C#2,43.0,1.0,33,57.45
262,F#2,43.0,1.0,33,57.45
263,C#3,43.0,1.0,33,57.45
264,C#5,44.0,479/500,68,57.45
265,B-5,44.0,0.5,76,57.45
266,B-4,44.0,0.5,76,57.45
267,B-1,44.0,1.0,50,57.45
268,F2,44.0,1.0,50,57.45
269,B-2,44.0,1.0,50,57.45
270,G#4,44.5,0.375,64,57.45
271,G#5,44.5,0.375,64,57.45
272,G#4,44.875,21/500,66,57.45
273,C#5,44.917,1083/1000,58,57.45
274,G#5,44.958,21/500,58,57.45
275,F#5,45.0,0.75,73,57.45
276,C#5,45.0,1.0,70,57.45
277,F#4,45.0,1.0,70,57.45
278,C#2,45.0,1.0,40,57.45
279,F#2,45.0,1.0,40,57.45
280,C#3,45.0,1.0,40,57.45
281,F4,45.75,9/40,56,57.45
282,F5,45.75,9/40,56,57.45
283,F4,46.0,1.0,65,57.45
284,F5,46.0,1.0,65,57.45
285,C#5,46.0,1.0,65,57.45
286,B-1,46.0,1.0,42,57.45
287,F2,46.0,1.0,42,57.45
288,B-2,46.0,1.0,42,57.45
289,C#5,47.0,1.0,64,57.45
290,C#4,47.0,1.0,64,57.45
291,B-4,47.0,1.0,64,57.45
292,C#2,47.0,1.0,33,57.45
293,F#2,47.0,1.0,33,57.45
294,C#3,47.0,1.0,33,57.45
295,B-3,48.0,1.0,55,57.45
296,F4,48.0,1.0,55,57.45
297,B-4,48.0,1.0,55,57.45
298,B-1,48.0,1.0,46,57.45
299,F2,48.0,1.0,46,57.45
300,B-2,48.0,1.0,46,57.45
301,F#4,49.0,1.0,53,57.45
302,B-3,49.0,0.75,58,57.45
303,B-4,49.0,0.75,58,57.45
304,C#2,49.0,1.0,43,57.45
305,F#2,49.0,1.0,43,57.45
306,C#3,49.0,1.0,43,57.45
307,B-3,49.75,9/40,52,57.45
308,B-4,49.75,9/40,52,57.45
309,B-3,50.0,1.0,58,57.45
310,F4,50.0,1.0,58,57.45
311,B-4,50.0,1.0,58,57.45
312,B-1,50.0,1.0,48,57.45
313,F2,50.0,1.0,48,57.45
314,B-2,50.0,1.0,48,57.45
315,F#4,51.0,1.0,66,57.45
316,C#4,51.0,0.75,75,57.45
317,C#5,51.0,0.75,75,57.45
318,C#2,51.0,1.0,43,57.45
319,F#2,51.0,1.0,43,57.45
320,C#3,51.0,1.0,43,57.45
321,C4,51.75,0.25,65,57.45
322,C5,51.75,0.25,65,57.45
323,F4,52.0,1.0,68,57.45
324,C4,52.0,0.75,74,57.45
325,C5,52.0,0.75,74,57.45
326,B-1,52.0,1.0,52,57.45
327,F2,52.0,1.0,52,57.45
328,B-2,52.0,1.0,52,57.45
329,B-3,52.75,9/40,65,57.45
330,B-4,52.75,9/40,65,57.45
331,F#4,53.0,1.0,64,57.45
332,B-3,53.0,0.75,70,57.45
333,B-4,53.0,0.75,70,57.45
334,C#2,53.0,1.0,45,57.45
335,F#2,53.0,1.0,45,57.45
336,C#3,53.0,1.0,45,57.45
337,B-3,53.75,9/40,66,57.45
338,B-4,53.75,9/40,66,57.45
339,B-3,54.0,1.0,68,57.45
340,F4,54.0,1.0,68,57.45
341,B-4,54.0,1.0,68,57.45
342,B-1,54.0,1.0,57,57.45
343,F2,54.0,1.0,57,57.45
344,B-2,54.0,1.0,57,57.45
345,G#4,55.0,1.0,80,57.45
346,C4,55.0,1.0,80,57.45
347,C5,55.0,1.0,80,57.45
348,F#4,55.0,1.0,80,57.45
349,G#1,55.0,1.0,64,57.45
350,G#2,55.0,1.0,64,57.45
351,C#4,56.0,1.0,85,57.45
352,F4,56.0,1.0,85,57.45
353,C#5,56.0,1.0,85,57.45
354,C#1,56.0,1.0,66,57.45
355,C#2,56.0,1.0,66,57.45
356,F4,57.0,0.75,79,57.45
357,C#5,57.0,0.75,79,57.45
358,F5,57.0,0.75,79,57.45
359,C#3,57.0,0.75,68,57.45
360,G#3,57.0,0.75,68,57.45
361,C#4,57.0,0.75,68,57.45
362,E-4,57.75,0.25,76,57.45
363,F#4,57.75,0.25,82,57.45
364,F#5,57.75,0.25,82,57.45
365,G#4,58.0,0.75,83,57.45
366,G#5,58.0,0.75,83,57.45
367,C#5,58.0,0.75,83,57.45
368,C#3,58.0,0.75,72,57.45
369,G#3,58.0,0.75,72,57.45
370,F4,58.0,0.75,72,57.45
371,F#4,58.75,0.25,80,57.45
372,B-4,58.75,0.25,86,57.45
373,B-5,58.75,0.25,86,57.45
374,C5,59.0,0.75,89,57.45
375,G#5,59.0,0.75,89,57.45
376,C6,59.0,0.75,89,57.45
377,E-4,59.0,0.75,77,57.45
378,G#3,59.0,0.75,77,57.45
379,G#4,59.0,0.75,77,57.45
380,F4,59.75,0.25,85,57.45
381,C#5,59.75,0.25,95,57.45
382,C#6,59.75,0.25,95,57.45
383,F6,60.0,2.0,96,57.45
384,F5,60.0,2.0,96,57.45
385,G#5,60.0,3.5,88,57.45
386,C6,60.0,3.5,88,57.45
387,G#1,60.0,1.0,84,57.45
388,G#2,60.0,1.0,84,57.45
389,E-4,61.0,0.75,73,57.45
390,F#4,61.0,0.75,73,57.45
391,C5,61.0,0.75,73,57.45
392,C#4,61.75,9/40,69,57.45
393,F#4,61.75,9/40,69,57.45
394,B-4,61.75,9/40,69,57.45
395,E-5,62.0,1.5,87,57.45
396,E-6,62.0,1.5,87,57.45
397,C#4,62.0,0.75,67,57.45
398,F#4,62.0,0.75,67,57.45
399,B-4,62.0,0.75,67,57.45
400,C4,62.75,9/40,63,57.45
401,F#4,62.75,9/40,63,57.45
402,G#4,62.75,9/40,63,57.45
403,C4,63.0,0.75,61,57.45
404,F#4,63.0,0.75,61,57.45
405,G#4,63.0,0.75,61,57.45
406,F#5,63.75,0.25,78,57.45
407,C5,63.75,0.25,78,57.45
408,E-5,63.75,0.25,78,57.45
409,F#4,63.75,0.25,78,57.45
410,A3,63.75,0.25,70,57.45
411,C4,63.75,0.25,70,57.45
412,E-4,63.75,0.25,70,57.45
413,E-5,64.0,1.0,86,57.45
414,F4,64.0,1.0,86,57.45
415,C5,64.0,1.0,86,57.45
416,F5,64.0,1.0,86,57.45
417,B-1,64.0,1.0,72,57.45
418,B-2,64.0,1.0,72,57.45
419,B-4,65.0,0.75,78,57.45
420,F4,65.0,0.75,78,57.45
421,C#5,65.0,0.75,78,57.45
422,F5,65.0,0.75,78,57.45
423,F3,65.0,1.0,67,57.45
424,B-3,65.0,1.0,67,57.45
425,C#4,65.0,1.0,67,57.45
426,G4,65.75,0.25,82,57.45
427,G5,65.75,0.25,82,57.45
428,F5,66.0,0.75,82,57.45
429,A4,66.0,0.75,82,57.45
430,C#5,66.0,0.75,82,57.45
431,A5,66.0,0.75,82,57.45
432,C#2,66.0,1.0,74,57.45
433,C#3,66.0,1.0,74,57.45
434,B-4,66.75,0.25,86,57.45
435,B-5,66.75,0.25,86,57.45
436,C5,67.0,0.75,89,57.45
437,F5,67.0,0.75,89,57.45
438,C6,67.0,0.75,89,57.45
439,F4,67.0,1.0,67,57.45
440,C#4,67.0,1.0,67,57.45
441,B-3,67.0,1.0,67,57.45
442,F3,67.0,1.0,67,57.45
443,C#5,67.75,0.125,95,57.45
444,C#6,67.75,0.125,95,57.45
445,B-4,67.875,0.125,88,57.45
446,E5,67.875,0.125,88,57.45
447,G5,67.958,21/500,96,57.45
448,C#6,67.958,21/500,96,57.45
449,F1,68.0,1.0,84,57.45
450,F2,68.0,1.0,84,57.45
451,F3,69.0,1.0,72,57.45
452,B-3,69.0,1.0,72,57.45
453,C#4,69.0,1.0,72,57.45
454,G4,69.0,1.0,72,57.45
455,B-4,69.958,979/500,88,57.45
456,E5,69.958,979/500,88,57.45
457,G5,69.958,979/500,96,57.45
458,C#6,69.958,979/500,96,57.45
459,F3,70.0,1.0,67,57.45
460,A3,70.0,1.0,67,57.45
461,C4,70.0,1.0,67,57.45
462,A4,70.0,1.0,67,57.45
463,F3,71.0,0.5,81,57.45
464,G2,71.5,167/1000,61,57.45
465,G#2,71.667,167/1000,61,57.45
466,B-2,71.833,167/1000,61,57.45
467,C5,71.958,1.0,81,57.45
468,F5,71.958,1.0,81,57.45
469,C6,71.958,1.0,81,57.45
470,G#2,72.0,0.094,61,57.45
471,B-2,72.094,0.094,56,57.45
472,G#2,72.188,0.094,64,57.45
473,B-2,72.281,0.094,57,57.45
474,G#2,72.375,0.094,66,57.45
475,B-2,72.469,0.094,59,57.45
476,G#2,72.562,0.094,68,57.45
477,B-2,72.656,0.094,61,57.45
478,G#2,72.75,0.094,70,57.45
479,B-2,72.844,0.094,65,57.45
480,G#2,72.938,0.094,73,57.45
481,B-2,73.031,0.094,66,57.45
482,G#2,73.125,0.094,72,57.45
483,B-2,73.221,0.094,63,57.45
484,G#2,73.312,0.094,69,57.45
485,B-2,73.406,12/125,60,57.45
486,G#2,73.5,0.125,66,57.45
487,B-2,73.625,0.125,58,57.45
488,G2,73.75,0.125,64,57.45
489,G#2,73.875,0.125,55,57.45
490,G#3,73.958,1.0,70,57.45
491,F#3,73.958,1.0,70,57.45
492,C4,73.958,1.0,70,57.45
493,F4,73.958,1.0,70,57.45
494,G#4,73.958,1.0,70,57.45
495,C#3,74.0,1.0,68,57.45
496,E-4,74.958,1.0,70,57.45
497,G#3,74.958,1.0,70,57.45
498,C4,74.958,1.0,70,57.45
499,F#3,74.958,1.0,70,57.45
500,G#4,74.958,1.0,70,57.45
501,C#3,75.0,0.5,79,57.45
502,E2,75.5,167/1000,61,57.45
503,F2,75.667,167/1000,61,57.45
504,F#2,75.833,167/1000,61,57.45
505,F3,75.958,1.0,72,57.45
506,C#4,75.958,1.0,72,57.45
507,G#4,75.958,1.0,72,57.45
508,F2,76.0,0.094,61,57.45
509,F#2,76.094,0.094,56,57.45
510,F2,76.188,0.094,64,57.45
511,F#2,76.281,0.094,57,57.45
512,F2,76.375,0.094,66,57.45
513,F#2,76.469,0.094,59,57.45
514,F2,76.562,0.094,68,57.45
515,F#2,76.656,0.094,61,57.45
516,F2,76.75,0.094,70,57.45
517,F#2,76.844,0.094,65,57.45
518,F2,76.938,0.094,73,57.45
519,F#2,77.031,0.094,66,57.45
520,F2,77.125,0.094,72,57.45
521,F#2,77.221,0.094,63,57.45
522,F2,77.312,0.094,69,57.45
523,F#2,77.406,12/125,60,57.45
524,F2,77.5,0.125,66,57.45
525,F#2,77.625,0.125,58,57.45
526,E2,77.75,0.125,64,57.45
527,F2,77.875,0.125,55,57.45
528,A3,77.958,1.0,71,57.45
529,E-3,77.958,1.0,71,57.45
530,C#4,77.958,1.0,71,57.45
531,F4,77.958,1.0,71,57.45
532,F#2,78.0,1.0,64,57.45
533,F4,78.958,1.0,71,57.45
534,A3,78.958,1.0,71,57.45
535,C4,78.958,1.0,71,57.45
536,E-3,78.958,1.0,71,57.45
537,F2,79.0,0.5,49,57.45
538,C#2,79.5,0.5,40,57.45
539,C#3,79.958,2.0,74,57.45
540,B-3,79.958,2.0,74,57.45
541,B-1,80.0,1.0,34,57.45
542,F2,80.0,1.0,34,57.45
543,B-2,80.0,1.0,34,57.45
544,C#2,81.0,1.0,32,57.45
545,F#2,81.0,1.0,32,57.45
546,C#3,81.0,1.0,32,57.45
547,B-2,81.958,1.0,41,57.45
548,F3,81.958,1.0,41,57.45
549,B-3,81.958,1.0,41,57.45
550,B-1,82.0,1.0,34,57.45
551,F2,82.0,1.0,34,57.45
552,B-2,82.0,1.0,34,57.45
553,F#3,82.958,1.0,39,57.45
554,B-3,82.958,0.75,46,57.45
555,C#2,83.0,1.0,29,57.45
556,F#2,83.0,1.0,29,57.45
557,C#3,83.0,1.0,29,57.45
558,B-3,83.708,0.25,41,57.45
559,F3,83.958,1.0,42,57.45
560,B-3,83.958,1.0,42,57.45
561,B-1,84.0,1.0,34,57.45
562,F2,84.0,1.0,34,57.45
563,B-2,84.0,1.0,34,57.45
564,C#4,84.958,0.75,54,57.45
565,F#3,84.958,1.0,44,57.45
566,C#2,85.0,1.0,30,57.45
567,F#2,85.0,1.0,30,57.45
568,C#3,85.0,1.0,30,57.45
569,C4,85.708,0.125,49,57.45
570,C#4,85.833,0.125,45,57.45
571,C4,85.958,0.75,52,57.45
572,F3,85.958,1.0,44,57.45
573,B-1,86.0,1.0,34,57.45
574,F2,86.0,1.0,34,57.45
575,B-2,86.0,1.0,34,57.45
576,B-3,86.708,0.25,46,57.45
577,F#3,86.958,1.0,42,57.45
578,B-3,86.958,0.75,50,57.45
579,A1,87.0,0.75,65,57.45
580,A2,87.0,0.75,65,57.45
581,B-3,87.708,0.25,41,57.45
582,G#1,87.75,0.25,65,57.45
583,G#2,87.75,0.25,65,57.45
584,F3,87.958,1.0,42,57.45
585,B-3,87.958,1.0,42,57.45
586,C#1,88.0,1.0,68,57.45
587,C#2,88.0,1.0,68,57.45
588,G3,88.958,0.75,83,57.45
589,C#4,88.958,0.75,83,57.45
590,E3,88.958,0.75,83,57.45
591,C#3,89.0,0.75,71,57.45
592,G#3,89.0,0.75,71,57.45
593,C#4,89.0,0.75,71,57.45
594,F#3,89.708,0.25,83,57.45
595,C4,89.708,0.25,83,57.45
596,E-4,89.708,0.25,83,57.45
597,E-4,89.75,0.25,80,57.45
598,F3,89.958,1.0,86,57.45
599,C#4,89.958,1.0,86,57.45
600,F4,89.958,1.0,86,57.45
601,C#3,90.0,0.75,76,57.45
602,G#3,90.0,0.75,76,57.45
603,F4,90.0,0.75,76,57.45
604,F#4,90.75,0.25,85,57.45
605,F5,90.958,0.75,82,57.45
606,F4,90.958,0.75,82,57.45
607,C#5,90.958,0.75,82,57.45
608,E-4,91.0,0.75,81,57.45
609,G#3,91.0,0.75,81,57.45
610,G#4,91.0,0.75,81,57.45
611,F#4,91.708,0.25,85,57.45
612,F#5,91.708,0.25,85,57.45
613,F4,91.75,0.25,89,57.45
614,G#4,91.958,0.75,87,57.45
615,C#5,91.958,0.75,87,57.45
616,G#5,91.958,0.75,87,57.45
617,G#1,92.0,1.0,88,57.45
618,G#2,92.0,1.0,88,57.45
619,B-4,92.708,0.25,90,57.45
620,B-5,92.708,0.25,90,57.45
621,C5,92.958,0.75,94,57.45
622,G#5,92.958,0.75,94,57.45
623,C6,92.958,0.75,94,57.45
624,E-4,93.0,0.75,76,57.45
625,F#4,93.0,0.75,76,57.45
626,C5,93.0,0.75,76,57.45
627,C#5,93.708,0.25,100,57.45
628,C#6,93.708,0.25,100,57.45
629,C#4,93.75,0.25,71,57.45
630,F#4,93.75,0.25,71,57.45
631,B-4,93.75,0.25,71,57.45
632,C6,93.958,3.5,92,57.45
633,G#5,93.958,3.5,92,57.45
634,F5,93.958,2.0,100,57.45
635,F6,93.958,2.0,100,57.45
636,C#4,94.0,0.75,70,57.45
637,F#4,94.0,0.75,70,57.45
638,B-4,94.0,0.75,70,57.45
639,C4,94.75,0.25,65,57.45
640,F#4,94.75,0.25,65,57.45
641,G#4,94.75,0.25,65,57.45
642,C4,95.0,0.75,64,57.45
643,F#4,95.0,0.75,64,57.45
644,G#4,95.0,0.75,64,57.45
645,A3,95.75,0.25,70,57.45
646,C4,95.75,0.25,70,57.45
647,E-4,95.75,0.25,70,57.45
648,E-5,95.958,1.5,90,57.45
649,E-6,95.958,1.5,90,57.45
650,B-1,96.0,1.0,72,57.45
651,B-2,96.0,1.0,72,57.45
652,F3,97.0,1.0,67,57.45
653,B-3,97.0,1.0,67,57.45
654,C#4,97.0,1.0,67,57.45
655,F#4,97.708,0.25,78,57.45
656,C5,97.708,0.25,78,57.45
657,E-5,97.708,0.25,78,57.45
658,F#5,97.708,0.25,78,57.45
659,F5,97.958,1.0,86,57.45
660,F4,97.958,1.0,86,57.45
661,C5,97.958,1.0,86,57.45
662,E-5,97.958,1.0,86,57.45
663,C#2,98.0,1.0,74,57.45
664,C#3,98.0,1.0,74,57.45
665,B-4,98.958,0.75,78,57.45
666,F4,98.958,0.75,78,57.45
667,C#5,98.958,0.75,78,57.45
668,F5,98.958,0.75,78,57.45
669,F4,99.0,1.0,67,57.45
670,C#4,99.0,1.0,67,57.45
671,B-3,99.0,1.0,67,57.45
672,F3,99.0,1.0,67,57.45
673,G4,99.708,0.25,82,57.45
674,G5,99.708,0.25,82,57.45
675,F5,99.958,0.75,82,57.45
676,A4,99.958,0.75,82,57.45
677,C#5,99.958,0.75,82,57.45
678,A5,99.958,0.75,82,57.45
679,F1,100.0,1.0,84,57.45
680,F2,100.0,1.0,84,57.45
681,B-4,100.708,0.25,86,57.45
682,B-5,100.708,0.25,86,57.45
683,C5,100.958,0.75,89,57.45
684,F5,100.958,0.75,89,57.45
685,C6,100.958,0.75,89,57.45
686,F3,101.0,1.0,72,57.45
687,B-3,101.0,1.0,72,57.45
688,C#4,101.0,1.0,72,57.45
689,G4,101.0,1.0,72,57.45
690,C#5,101.708,0.125,95,57.45
691,C#6,101.708,0.125,95,57.45
692,B-4,101.833,0.125,88,57.45
693,E5,101.833,0.125,88,57.45
694,G5,101.917,21/500,96,57.45
695,C#6,101.917,21/500,96,57.45
696,F3,102.0,1.0,67,57.45
697,A3,102.0,1.0,67,57.45
698,C4,102.0,1.0,67,57.45
699,A4,102.0,1.0,67,57.45
700,F3,103.0,0.5,81,57.45
701,G2,103.5,167/1000,61,57.45
702,G#2,103.667,167/1000,61,57.45
703,B-2,103.833,167/1000,61,57.45
704,B-4,103.917,979/500,88,57.45
705,E5,103.917,979/500,88,57.45
706,G5,103.917,979/500,96,57.45
707,C#6,103.917,979/500,96,57.45
708,G#2,104.0,0.094,61,57.45
709,B-2,104.094,0.094,56,57.45
710,G#2,104.188,0.094,64,57.45
711,B-2,104.281,0.094,57,57.45
712,G#2,104.375,0.094,66,57.45
713,B-2,104.469,0.094,59,57.45
714,G#2,104.562,0.094,68,57.45
715,B-2,104.656,0.094,61,57.45
716,G#2,104.75,0.094,70,57.45
717,B-2,104.844,0.094,65,57.45
718,G#2,104.938,0.094,73,57.45
719,B-2,105.031,0.094,66,57.45
720,G#2,105.125,0.094,72,57.45
721,B-2,105.221,0.094,63,57.45
722,G#2,105.312,0.094,69,57.45
723,B-2,105.406,12/125,60,57.45
724,G#2,105.5,0.125,66,57.45
725,B-2,105.625,0.125,58,57.45
726,G2,105.75,0.125,64,57.45
727,G#2,105.875,0.125,55,57.45
728,C5,105.917,1.0,81,57.45
729,F5,105.917,1.0,81,57.45
730,C6,105.917,1.0,81,57.45
731,C#3,106.0,1.0,68,57.45
732,C#3,107.0,0.5,68,57.45
733,E2,107.5,167/1000,61,57.45
734,F2,107.667,167/1000,61,57.45
735,F#2,107.833,167/1000,61,57.45
736,G#3,107.917,1.0,70,57.45
737,G#4,107.917,1.0,70,57.45
738,C4,107.917,1.0,70,57.45
739,F4,107.917,1.0,70,57.45
740,F#3,107.917,1.0,70,57.45
741,F2,108.0,0.094,61,57.45
742,F#2,108.094,0.094,56,57.45
743,F2,108.188,0.094,64,57.45
744,F#2,108.281,0.094,57,57.45
745,F2,108.375,0.094,66,57.45
746,F#2,108.469,0.094,59,57.45
747,F2,108.562,0.094,68,57.45
748,F#2,108.656,0.094,61,57.45
749,F2,108.75,0.094,70,57.45
750,F#2,108.844,0.094,65,57.45
751,F#3,108.917,1.0,70,57.45
752,G#3,108.917,1.0,70,57.45
753,C4,108.917,1.0,70,57.45
754,E-4,108.917,1.0,70,57.45
755,G#4,108.917,1.0,70,57.45
756,F2,108.938,0.094,73,57.45
757,F#2,109.031,0.094,66,57.45
758,F2,109.125,0.094,72,57.45
759,F#2,109.221,0.094,63,57.45
760,F2,109.312,0.094,69,57.45
761,F#2,109.406,12/125,60,57.45
762,F2,109.5,0.125,66,57.45
763,F#2,109.625,0.125,58,57.45
764,E2,109.75,0.125,64,57.45
765,F2,109.875,0.125,55,57.45
766,F3,109.917,1.0,72,57.45
767,C#4,109.917,1.0,72,57.45
768,G#4,109.917,1.0,72,57.45
769,F#2,110.0,1.0,64,57.45
770,F2,111.0,0.5,51,57.45
771,C#2,111.5,0.5,39,57.45
772,F4,111.917,1.0,71,57.45
773,E-3,111.917,1.0,71,57.45
774,C#4,111.917,1.0,71,57.45
775,A3,111.917,1.0,71,57.45
776,B-1,112.0,1.0,34,57.45
777,F2,112.0,1.0,34,57.45
778,B-2,112.0,1.0,34,57.45
779,E-3,112.917,1.0,71,57.45
780,A3,112.917,1.0,71,57.45
781,C4,112.917,1.0,71,57.45
782,F4,112.917,1.0,71,57.45
783,C#2,113.0,1.0,32,57.45
784,F#2,113.0,1.0,32,57.45
785,C#3,113.0,1.0,32,57.45
786,C#3,113.917,2.0,74,57.45
787,B-3,113.917,2.0,74,57.45
788,B-1,114.0,1.0,34,57.45
789,F2,114.0,1.0,34,57.45
790,B-2,114.0,1.0,34,57.45
791,C#2,115.0,1.0,29,57.45
792,F#2,115.0,1.0,29,57.45
793,C#3,115.0,1.0,29,57.45
794,B-2,115.917,1.0,41,57.45
795,F3,115.917,1.0,41,57.45
796,B-3,115.917,1.0,41,57.45
797,B-1,116.0,1.0,34,57.45
798,F2,116.0,1.0,34,57.45
799,B-2,116.0,1.0,34,57.45
800,F#3,116.917,1.0,39,57.45
801,B-3,116.917,0.75,46,57.45
802,C#2,117.0,1.0,30,57.45
803,F#2,117.0,1.0,30,57.45
804,C#3,117.0,1.0,30,57.45
805,B-3,117.667,0.25,41,57.45
806,F3,117.917,1.0,42,57.45
807,B-3,117.917,1.0,42,57.45
808,B-1,118.0,1.0,34,57.45
809,F2,118.0,1.0,34,57.45
810,B-2,118.0,1.0,34,57.45
811,C#4,118.917,0.75,54,57.45
812,F#3,118.917,1.0,44,57.45
813,G#1,119.0,1.0,36,57.45
814,G#2,119.0,1.0,36,57.45
815,C4,119.667,0.125,49,57.45
816,C#4,119.792,0.125,45,57.45
817,C4,119.917,0.75,52,57.45
818,F3,119.917,1.0,44,57.45
819,C#2,120.0,0.5,33,57.45
820,G#2,120.5,0.5,27,57.45
821,B-3,120.667,0.25,46,57.45
822,F#3,120.917,1.0,42,57.45
823,B-3,120.917,0.75,50,57.45
824,F3,121.0,0.5,27,57.45
825,C#4,121.5,0.5,28,57.45
826,B-3,121.667,0.25,41,57.45
827,F3,121.917,1.0,42,57.45
828,B-3,121.917,1.0,42,57.45
829,C#2,122.0,0.5,33,57.45
830,G#2,122.5,0.5,27,57.45
831,F3,123.0,0.5,27,57.45
832,C#4,123.5,0.5,28,57.45
833,F5,123.917,2.0,54,57.45
834,E-2,124.0,0.5,33,57.45
835,G#2,124.5,0.5,27,57.45
836,F#3,125.0,0.5,24,57.45
837,C4,125.5,0.5,24,57.45
838,F#5,125.917,0.5,50,57.45
839,E-2,126.0,0.5,31,57.45
840,F5,126.417,0.5,46,57.45
841,G#2,126.5,0.5,24,57.45
842,E-5,126.917,0.5,50,57.45
843,F#3,127.0,0.5,27,57.45
844,C#5,127.417,0.5,46,57.45
845,C4,127.5,0.5,25,57.45
846,C5,127.917,1.0,50,57.45
847,G#1,128.0,0.5,33,57.45
848,G#2,128.5,0.5,29,57.45
849,B-5,128.917,1.0,54,57.45
850,F#3,129.0,0.5,29,57.45
851,C4,129.5,0.5,30,57.45
852,G#5,129.917,2.0,52,57.45
853,G#1,130.0,0.5,36,57.45
854,G#2,130.5,0.5,30,57.45
855,F#3,131.0,0.5,30,57.45
856,C4,131.5,0.5,31,57.45
857,F#5,131.917,2.0,51,57.45
858,C#2,132.0,0.5,36,57.45
859,G#2,132.5,0.5,30,57.45
860,F3,133.0,0.5,28,57.45
861,C#4,133.5,0.5,25,57.45
862,G#5,133.917,0.5,50,57.45
863,C#2,134.0,0.5,33,57.45
864,F#5,134.417,0.5,46,57.45
865,G#2,134.5,0.5,27,57.45
866,F5,134.917,0.5,50,57.45
867,F3,135.0,0.5,29,57.45
868,E-5,135.417,0.5,46,57.45
869,C#4,135.5,0.5,27,57.45
870,C#5,135.917,1.0,50,57.45
871,C#2,136.0,0.5,33,57.45
872,G#2,136.5,0.5,27,57.45
873,C#6,136.917,1.0,53,57.45
874,F3,137.0,0.5,30,57.45
875,C#4,137.5,0.5,28,57.45
876,G#5,137.917,2.0,49,57.45
877,B-1,138.0,0.5,33,57.45
878,B-2,138.5,0.5,29,57.45
879,G#3,139.0,0.5,29,57.45
880,D4,139.5,0.5,30,57.45
881,F5,139.917,2.0,52,57.45
882,E-2,140.0,0.5,33,57.45
883,B-2,140.5,0.5,30,57.45
884,F#3,141.0,0.5,30,57.45
885,E-4,141.5,0.5,27,57.45
886,F#5,141.917,0.5,51,57.45
887,F#2,142.0,0.5,33,57.45
888,F5,142.417,0.5,46,57.45
889,E-3,142.5,0.5,29,57.45
890,E-5,142.917,0.5,50,57.45
891,B-3,143.0,0.5,30,57.45
892,D5,143.417,0.25,46,57.45
893,E-4,143.5,0.25,27,57.45
894,E-5,143.667,0.125,46,57.45
895,F5,143.792,0.125,42,57.45
896,E-5,143.917,0.5,53,57.45
897,G2,144.0,0.5,33,57.45
898,D5,144.417,0.5,51,57.45
899,E3,144.5,0.5,28,57.45
900,E-5,144.917,0.5,54,57.45
901,C#4,145.0,0.5,28,57.45
902,F5,145.417,0.5,55,57.45
903,B-4,145.5,0.5,29,57.45
904,F#5,145.917,0.5,57,57.45
905,G#2,146.0,0.5,33,57.45
906,B-4,146.417,0.5,52,57.45
907,E-3,146.5,0.5,28,57.45
908,F5,146.917,0.5,57,57.45
909,C4,147.0,0.5,30,57.45
910,E-5,147.417,0.25,50,57.45
911,F#4,147.5,0.5,30,57.45
912,C5,147.667,0.125,39,57.45
913,C#5,147.792,121/1000,39,57.45
914,C#5,147.917,0.094,39,57.45
915,G#1,148.0,0.5,33,57.45
916,E-5,148.01,0.094,36,57.45
917,C#5,148.104,0.094,40,57.45
918,E-5,148.198,0.094,37,57.45
919,C#5,148.292,0.094,42,57.45
920,E-5,148.385,0.094,38,57.45
921,C#5,148.479,0.094,44,57.45
922,G#2,148.5,0.5,27,57.45
923,E-5,148.573,0.094,39,57.45
924,C#5,148.667,0.094,46,57.45
925,E-5,148.76,0.094,42,57.45
926,C#5,148.854,0.094,48,57.45
927,E-5,148.948,0.094,42,57.45
928,F#3,149.0,0.5,27,57.45
929,C#5,149.042,0.094,47,57.45
930,E-5,149.137,0.094,40,57.45
931,C#5,149.229,0.094,44,57.45
932,E-5,149.323,12/125,38,57.45
933,C#5,149.417,0.125,42,57.45
934,C4,149.5,0.5,26,57.45
935,E-5,149.542,0.125,37,57.45
936,C5,149.667,0.125,40,57.45
937,C#5,149.792,0.125,35,57.45
938,B-5,149.917,0.5,54,57.45
939,C#2,150.0,0.5,31,57.45
940,G#5,150.417,0.5,50,57.45
941,G#2,150.5,0.5,28,57.45
942,F#5,150.917,0.5,52,57.45
943,F3,151.0,0.5,28,57.45
944,G#4,151.417,0.5,50,57.45
945,C#4,151.5,0.5,28,57.45
946,E-5,151.917,2.0,54,57.45
947,C#2,152.0,0.5,33,57.45
948,G#2,152.5,0.5,27,57.45
949,F3,153.0,0.5,27,57.45
950,C#4,153.5,0.5,28,57.45
951,C#5,153.917,1.0,50,57.45
952,C#2,154.0,0.5,33,57.45
953,G#2,154.5,0.5,27,57.45
954,F3,155.0,0.5,27,57.45
955,C#4,155.5,0.5,28,57.45
956,F5,155.917,2.0,54,57.45
957,E-2,156.0,0.5,33,57.45
958,G#2,156.5,0.5,27,57.45
959,F#3,157.0,0.5,24,57.45
960,C4,157.5,0.5,24,57.45
961,F#5,157.917,0.5,50,57.45
962,E-2,158.0,0.5,31,57.45
963,F5,158.417,0.5,46,57.45
964,G#2,158.5,0.5,24,57.45
965,E-5,158.917,0.5,50,57.45
966,F#3,159.0,0.5,27,57.45
967,C#5,159.417,0.5,46,57.45
968,C4,159.5,0.5,25,57.45
969,C5,159.917,1.0,50,57.45
970,G#1,160.0,0.5,33,57.45
971,G#2,160.5,0.5,29,57.45
972,B-5,160.917,1.0,54,57.45
973,F#3,161.0,0.5,29,57.45
974,C4,161.5,0.5,30,57.45
975,G#5,161.917,2.0,52,57.45
976,G#1,162.0,0.5,36,57.45
977,G#2,162.5,0.5,30,57.45
978,F#3,163.0,0.5,30,57.45
979,C4,163.5,0.5,31,57.45
980,F#5,163.917,2.0,51,57.45
981,C#2,164.0,0.5,36,57.45
982,G#2,164.5,0.5,30,57.45
983,F3,165.0,0.5,28,57.45
984,C#4,165.5,0.5,25,57.45
985,G#5,165.917,0.5,50,57.45
986,C#2,166.0,0.5,33,57.45
987,F#5,166.417,0.5,46,57.45
988,G#2,166.5,0.5,27,57.45
989,F5,166.917,0.5,50,57.45
990,F3,167.0,0.5,29,57.45
991,E-5,167.417,0.5,46,57.45
992,C#4,167.5,0.5,27,57.45
993,C#5,167.917,1.0,50,57.45
994,C#2,168.0,0.5,33,57.45
995,G#2,168.5,0.5,27,57.45
996,C#6,168.917,1.0,53,57.45
997,F3,169.0,0.5,30,57.45
998,C#4,169.5,0.5,28,57.45
999,G#5,169.917,2.0,49,57.45
1000,B-1,170.0,0.5,33,57.45
1001,B-2,170.5,0.5,29,57.45
1002,G#3,171.0,0.5,29,57.45
1003,D4,171.5,0.5,30,57.45
1004,F5,171.917,2.0,52,57.45
1005,E-2,172.0,0.5,33,57.45
1006,B-2,172.5,0.5,30,57.45
1007,F#3,173.0,0.5,30,57.45
1008,E-4,173.5,0.5,27,57.45
1009,F#5,173.917,0.5,51,57.45
1010,F#2,174.0,0.5,33,57.45
1011,F5,174.417,0.5,46,57.45
1012,E-3,174.5,0.5,29,57.45
1013,E-5,174.917,0.5,50,57.45
1014,B-3,175.0,0.5,30,57.45
1015,D5,175.417,0.25,46,57.45
1016,E-4,175.5,0.25,27,57.45
1017,E-5,175.667,0.125,46,57.45
1018,F5,175.792,0.125,42,57.45
1019,E-5,175.917,0.5,53,57.45
1020,G2,176.0,0.5,33,57.45
1021,D5,176.417,0.5,51,57.45
1022,E3,176.5,0.5,28,57.45
1023,E-5,176.917,0.5,54,57.45
1024,C#4,177.0,0.5,28,57.45
1025,F5,177.417,0.5,55,57.45
1026,B-4,177.5,0.5,29,57.45
1027,F#5,177.917,0.5,57,57.45
1028,G#2,178.0,0.5,33,57.45
1029,B-4,178.417,0.5,52,57.45
1030,E-3,178.5,0.5,28,57.45
1031,F5,178.917,0.5,57,57.45
1032,C4,179.0,0.5,30,57.45
1033,E-5,179.417,0.25,50,57.45
1034,F#4,179.5,0.5,30,57.45
1035,C5,179.667,0.125,39,57.45
1036,C#5,179.792,0.125,39,57.45
1037,C#5,179.917,0.094,39,57.45
1038,G#1,180.0,0.5,33,57.45
1039,E-5,180.01,0.094,36,57.45
1040,C#5,180.104,0.094,40,57.45
1041,E-5,180.198,0.094,37,57.45
1042,C#5,180.292,0.094,42,57.45
1043,E-5,180.385,0.094,38,57.45
1044,C#5,180.479,0.094,44,57.45
1045,G#2,180.5,0.5,27,57.45
1046,E-5,180.573,0.094,39,57.45
1047,C#5,180.667,0.094,46,57.45
1048,E-5,180.76,0.094,42,57.45
1049,C#5,180.854,0.094,48,57.45
1050,E-5,180.948,0.094,42,57.45
1051,F#3,181.0,0.5,27,57.45
1052,C#5,181.042,0.094,47,57.45
1053,E-5,181.137,0.094,40,57.45
1054,C#5,181.229,0.094,44,57.45
1055,E-5,181.323,12/125,38,57.45
1056,C#5,181.417,0.125,42,57.45
1057,C4,181.5,0.5,26,57.45
1058,E-5,181.542,0.125,37,57.45
1059,C5,181.667,0.125,40,57.45
1060,C#5,181.792,0.125,35,57.45
1061,B-5,181.917,0.5,54,57.45
1062,C#2,182.0,0.5,31,57.45
1063,G#5,182.417,0.5,50,57.45
1064,G#2,182.5,0.5,28,57.45
1065,F#5,182.917,0.5,52,57.45
1066,F3,183.0,0.5,28,57.45
1067,G#4,183.417,0.5,50,57.45
1068,C#4,183.5,0.5,28,57.45
1069,E-5,183.917,2.0,54,57.45
1070,G#1,184.0,0.5,34,57.45
1071,G#2,184.5,0.5,28,57.45
1072,E-3,185.0,0.5,28,57.45
1073,C4,185.5,0.5,29,57.45
1074,C#5,185.917,1.0,50,57.45
1075,G#1,186.0,0.5,34,57.45
1076,G#2,186.5,0.5,28,57.45
1077,E-3,187.0,0.5,28,57.45
1078,C4,187.5,0.5,29,57.45
1079,C5,187.917,2.0,56,57.45
1080,B-1,188.0,0.5,34,57.45
1081,B-2,188.5,0.5,28,57.45
1082,E-3,189.0,0.5,25,57.45
1083,C#4,189.5,0.5,25,57.45
1084,C#5,189.917,0.5,52,57.45
1085,B-1,190.0,0.5,32,57.45
1086,C5,190.417,0.5,48,57.45
1087,B-2,190.5,0.5,25,57.45
1088,B-4,190.917,0.5,52,57.45
1089,E-3,191.0,0.5,28,57.45
1090,G#4,191.417,0.5,48,57.45
1091,C#4,191.5,0.5,26,57.45
1092,G4,191.917,1.0,52,57.45
1093,B-1,192.0,0.5,36,57.45
1094,B-2,192.5,0.5,31,57.45
1095,F5,192.917,1.0,56,57.45
1096,E3,193.0,0.5,31,57.45
1097,C#4,193.5,0.5,33,57.45
1098,E-5,193.917,2.0,54,57.45
1099,B-1,194.0,0.5,39,57.45
1100,B-2,194.5,0.5,33,57.45
1101,E3,195.0,0.5,33,57.45
1102,C#4,195.5,0.5,34,57.45
1103,C#5,195.917,2.0,55,57.45
1104,C2,196.0,0.5,40,57.45
1105,C3,196.5,0.5,33,57.45
1106,F#3,197.0,0.5,31,57.45
1107,E-4,197.5,0.5,28,57.45
1108,E-5,197.917,0.5,55,57.45
1109,C2,198.0,0.5,37,57.45
1110,C#5,198.417,0.5,50,57.45
1111,C3,198.5,0.5,30,57.45
1112,C5,198.917,0.5,55,57.45
1113,E-3,199.0,0.5,33,57.45
1114,B-4,199.417,0.5,51,57.45
1115,E-4,199.5,0.5,30,57.45
1116,A4,199.917,1.0,55,57.45
1117,C#2,200.0,0.5,37,57.45
1118,C#3,200.5,0.5,31,57.45
1119,F#5,200.917,1.0,59,57.45
1120,B-3,201.0,0.5,34,57.45
1121,F4,201.5,0.5,32,57.45
1122,F5,201.917,2.0,55,57.45
1123,C#2,202.0,0.5,37,57.45
1124,C#3,202.5,0.5,33,57.45
1125,B-3,203.0,0.5,33,57.45
1126,F4,203.5,0.5,34,57.45
1127,F5,203.917,2.0,59,57.45
1128,E-2,204.0,0.5,40,57.45
1129,E-3,204.5,0.5,35,57.45
1130,B-3,205.0,0.5,37,57.45
1131,F#4,205.5,0.5,33,57.45
1132,F#5,205.917,0.5,58,57.45
1133,F2,206.0,0.5,41,57.45
1134,F5,206.417,0.5,52,57.45
1135,F3,206.5,0.5,35,57.45
1136,E-5,206.917,0.5,57,57.45
1137,B-3,207.0,0.5,37,57.45
1138,C#5,207.417,49/100,52,57.45
1139,F4,207.5,0.5,35,57.45
1140,C#5,207.917,1.0,59,57.45
1141,F#2,208.0,0.5,40,57.45
1142,E-3,208.5,0.5,34,57.45
1143,C5,208.917,1.0,57,57.45
1144,B-3,209.0,0.5,37,57.45
1145,E-4,209.5,0.5,33,57.45
1146,F#2,210.0,0.5,38,57.45
1147,C5,210.417,0.438,56,57.45
1148,F#3,210.5,0.5,34,57.45
1149,E-5,210.854,0.062,55,57.45
1150,C#5,210.917,0.75,59,57.45
1151,B-3,211.0,0.5,37,57.45
1152,E4,211.5,0.5,34,57.45
1153,C5,211.667,6/25,58,57.45
1154,C5,211.917,1.0,59,57.45
1155,F2,212.0,0.5,36,57.45
1156,C3,212.5,0.5,32,57.45
1157,B-4,212.917,1.0,56,57.45
1158,A3,213.0,0.5,32,57.45
1159,F4,213.5,0.5,31,57.45
1160,E-2,214.0,0.5,35,57.45
1161,C5,214.417,0.438,56,57.45
1162,E-3,214.5,0.5,33,57.45
1163,E-5,214.854,0.062,59,57.45
1164,C#5,214.917,0.75,59,57.45
1165,G#3,215.0,0.5,27,57.45
1166,F#4,215.5,0.5,24,57.45
1167,C4,215.5,0.5,24,57.45
1168,C5,215.667,0.25,56,57.45
1169,C5,215.917,1.0,50,57.45
1170,C#2,216.0,0.5,33,57.45
1171,G#2,216.5,0.5,27,57.45
1172,F5,216.917,1.0,55,57.45
1173,F3,217.0,0.5,27,57.45
1174,C#4,217.5,0.5,28,57.45
1175,F#5,217.917,1.0,54,57.45
1176,C#2,218.0,0.5,33,57.45
1177,G#2,218.5,0.5,27,57.45
1178,G#4,218.917,1.0,46,57.45
1179,F3,219.0,0.5,27,57.45
1180,C#4,219.5,0.5,28,57.45
1181,F5,219.917,2.0,54,57.45
1182,E-2,220.0,0.5,33,57.45
1183,G#2,220.5,0.5,27,57.45
1184,F#3,221.0,0.5,24,57.45
1185,C4,221.5,0.5,24,57.45
1186,F#5,221.917,0.5,50,57.45
1187,E-2,222.0,0.5,31,57.45
1188,F5,222.417,0.5,46,57.45
1189,G#2,222.5,0.5,24,57.45
1190,E-5,222.917,0.5,50,57.45
1191,F#3,223.0,0.5,27,57.45
1192,C#5,223.417,0.5,46,57.45
1193,C4,223.5,0.5,25,57.45
1194,C5,223.917,1.0,50,57.45
1195,G#1,224.0,0.5,33,57.45
1196,G#2,224.5,0.5,29,57.45
1197,B-5,224.917,1.0,54,57.45
1198,F#3,225.0,0.5,29,57.45
1199,C4,225.5,0.5,30,57.45
1200,G#5,225.917,2.0,52,57.45
1201,G#1,226.0,0.5,36,57.45
1202,G#2,226.5,0.5,30,57.45
1203,F#3,227.0,0.5,30,57.45
1204,C4,227.5,0.5,31,57.45
1205,F#5,227.917,2.0,51,57.45
1206,C#2,228.0,0.5,36,57.45
1207,G#2,228.5,0.5,30,57.45
1208,F3,229.0,0.5,28,57.45
1209,C#4,229.5,0.5,25,57.45
1210,G#5,229.917,0.5,50,57.45
1211,C#2,230.0,0.5,33,57.45
1212,F#5,230.417,0.5,46,57.45
1213,G#2,230.5,0.5,27,57.45
1214,F5,230.917,0.5,50,57.45
1215,F3,231.0,0.5,29,57.45
1216,E-5,231.417,0.5,46,57.45
1217,C#4,231.5,0.5,27,57.45
1218,C#5,231.917,1.0,50,57.45
1219,C#2,232.0,0.5,33,57.45
1220,G#2,232.5,0.5,27,57.45
1221,C#6,232.917,1.0,53,57.45
1222,F3,233.0,0.5,30,57.45
1223,C#4,233.5,0.5,28,57.45
1224,G#5,233.917,2.0,49,57.45
1225,B-1,234.0,0.5,33,57.45
1226,B-2,234.5,0.5,29,57.45
1227,G#3,235.0,0.5,29,57.45
1228,D4,235.5,0.5,30,57.45
1229,F5,235.917,2.0,52,57.45
1230,E-2,236.0,0.5,33,57.45
1231,B-2,236.5,0.5,30,57.45
1232,F#3,237.0,0.5,30,57.45
1233,E-4,237.5,0.5,27,57.45
1234,F#5,237.917,0.5,51,57.45
1235,F#2,238.0,0.5,33,57.45
1236,F5,238.417,0.5,46,57.45
1237,E-3,238.5,0.5,29,57.45
1238,E-5,238.917,0.5,50,57.45
1239,B-3,239.0,0.5,30,57.45
1240,D5,239.417,0.25,46,57.45
1241,E-4,239.5,0.25,27,57.45
1242,E-5,239.667,0.125,46,57.45
1243,F5,239.792,0.125,42,57.45
1244,E-5,239.917,0.5,53,57.45
1245,G2,240.0,0.5,33,57.45
1246,D5,240.417,0.5,51,57.45
1247,E3,240.5,0.5,28,57.45
1248,E-5,240.917,0.5,54,57.45
1249,C#4,241.0,0.5,28,57.45
1250,F5,241.417,0.5,55,57.45
1251,B-4,241.5,0.5,29,57.45
1252,F#5,241.917,0.5,57,57.45
1253,G#2,242.0,0.5,33,57.45
1254,B-4,242.417,0.5,52,57.45
1255,E-3,242.5,0.5,28,57.45
1256,F5,242.917,0.5,57,57.45
1257,C4,243.0,0.5,30,57.45
1258,E-5,243.417,0.25,50,57.45
1259,F#4,243.5,0.5,30,57.45
1260,C5,243.667,0.125,39,57.45
1261,C#5,243.792,0.125,39,57.45
1262,C#5,243.917,0.094,39,57.45
1263,G#1,244.0,0.5,33,57.45
1264,E-5,244.01,0.094,36,57.45
1265,C#5,244.104,0.094,40,57.45
1266,E-5,244.198,0.094,37,57.45
1267,C#5,244.292,0.094,42,57.45
1268,E-5,244.385,0.094,38,57.45
1269,C#5,244.479,0.094,44,57.45
1270,G#2,244.5,0.5,27,57.45
1271,E-5,244.573,0.094,39,57.45
1272,C#5,244.667,0.094,46,57.45
1273,E-5,244.76,0.094,42,57.45
1274,C#5,244.854,0.094,48,57.45
1275,E-5,244.948,0.094,42,57.45
1276,F#3,245.0,0.5,27,57.45
1277,C#5,245.042,0.094,47,57.45
1278,E-5,245.137,0.094,40,57.45
1279,C#5,245.229,0.094,44,57.45
1280,E-5,245.323,12/125,38,57.45
1281,C#5,245.417,0.125,42,57.45
1282,C4,245.5,0.5,26,57.45
1283,E-5,245.542,0.125,37,57.45
1284,C5,245.667,0.125,40,57.45
1285,C#5,245.792,0.125,35,57.45
1286,B-5,245.917,0.5,54,57.45
1287,C#2,246.0,0.5,27,57.45
1288,G#5,246.417,0.5,50,57.45
1289,G#2,246.5,0.5,25,57.45
1290,F#5,246.917,0.5,52,57.45
1291,F3,247.0,0.5,25,57.45
1292,G#4,247.417,0.5,50,57.45
1293,C#4,247.5,0.5,25,57.45
1294,E-5,247.917,2.0,54,57.45
1295,G#1,248.0,0.5,34,57.45
1296,G#2,248.5,0.5,28,57.45
1297,E-3,249.0,0.5,28,57.45
1298,C4,249.5,0.5,29,57.45
1299,C#5,249.917,1.0,45,57.45
1300,G#1,250.0,0.5,34,57.45
1301,G#2,250.5,0.5,28,57.45
1302,E-3,251.0,0.5,28,57.45
1303,C4,251.5,0.5,29,57.45
1304,C5,251.917,2.0,56,57.45
1305,B-1,252.0,0.5,34,57.45
1306,B-2,252.5,0.5,28,57.45
1307,E-3,253.0,0.5,25,57.45
1308,C#4,253.5,0.5,25,57.45
1309,C#5,253.917,0.5,52,57.45
1310,B-1,254.0,0.5,32,57.45
1311,C5,254.417,0.5,48,57.45
1312,B-2,254.5,0.5,25,57.45
1313,B-4,254.917,0.5,52,57.45
1314,E-3,255.0,0.5,28,57.45
1315,G#4,255.417,0.5,48,57.45
1316,C#4,255.5,0.5,26,57.45
1317,G4,255.917,1.0,52,57.45
1318,B-1,256.0,0.5,36,57.45
1319,B-2,256.5,0.5,31,57.45
1320,F5,256.917,1.0,56,57.45
1321,E3,257.0,0.5,31,57.45
1322,C#4,257.5,0.5,33,57.45
1323,E-5,257.917,2.0,54,57.45
1324,B-1,258.0,0.5,39,57.45
1325,B-2,258.5,0.5,33,57.45
1326,E3,259.0,0.5,33,57.45
1327,C#4,259.5,0.5,34,57.45
1328,C#5,259.917,2.0,55,57.45
1329,C2,260.0,0.5,40,57.45
1330,C3,260.5,0.5,33,57.45
1331,F#3,261.0,0.5,31,57.45
1332,E-4,261.5,0.5,28,57.45
1333,E-5,261.917,0.5,55,57.45
1334,C2,262.0,0.5,37,57.45
1335,C#5,262.417,0.5,50,57.45
1336,C3,262.5,0.5,30,57.45
1337,C5,262.917,0.5,55,57.45
1338,E-3,263.0,0.5,33,57.45
1339,B-4,263.417,0.5,51,57.45
1340,E-4,263.5,0.5,30,57.45
1341,A4,263.917,1.0,55,57.45
1342,C#2,264.0,0.5,37,57.45
1343,C#3,264.5,0.5,31,57.45
1344,F#5,264.917,1.0,59,57.45
1345,B-3,265.0,0.5,34,57.45
1346,F4,265.5,0.5,32,57.45
1347,F5,265.917,2.0,55,57.45
1348,C#2,266.0,0.5,37,57.45
1349,C#3,266.5,0.5,33,57.45
1350,B-3,267.0,0.5,33,57.45
1351,F4,267.5,0.5,34,57.45
1352,F5,267.917,2.0,59,57.45
1353,E-2,268.0,0.5,40,57.45
1354,E-3,268.5,0.5,35,57.45
1355,B-3,269.0,0.5,37,57.45
1356,F#4,269.5,0.5,33,57.45
1357,F#5,269.917,0.5,58,57.45
1358,F2,270.0,0.5,41,57.45
1359,F5,270.417,0.5,52,57.45
1360,F3,270.5,0.5,35,57.45
1361,E-5,270.917,0.5,57,57.45
1362,B-3,271.0,0.5,37,57.45
1363,C#5,271.417,49/100,52,57.45
1364,F4,271.5,0.5,35,57.45
1365,C#5,271.917,1.0,59,57.45
1366,F#2,272.0,0.5,40,57.45
1367,E-3,272.5,0.5,34,57.45
1368,C5,272.917,1.0,57,57.45
1369,B-3,273.0,0.5,37,57.45
1370,E-4,273.5,0.5,33,57.45
1371,F#2,274.0,0.5,38,57.45
1372,C5,274.417,0.438,56,57.45
1373,F#3,274.5,0.5,34,57.45
1374,E-5,274.854,0.062,55,57.45
1375,C#5,274.917,0.75,59,57.45
1376,B-3,275.0,0.5,37,57.45
1377,E4,275.5,0.5,34,57.45
1378,C5,275.667,47/200,58,57.45
1379,C5,275.917,1.0,59,57.45
1380,F2,276.0,0.5,36,57.45
1381,C3,276.5,0.5,32,57.45
1382,B-4,276.917,1.0,56,57.45
1383,A3,277.0,0.5,32,57.45
1384,F4,277.5,0.5,31,57.45
1385,E-2,278.0,0.5,35,57.45
1386,C5,278.417,0.438,56,57.45
1387,E-3,278.5,0.5,33,57.45
1388,E-5,278.854,0.062,59,57.45
1389,C#5,278.917,0.75,59,57.45
1390,G#3,279.0,0.5,27,57.45
1391,F#4,279.5,0.5,24,57.45
1392,C4,279.5,0.5,24,57.45
1393,C5,279.667,47/200,56,57.45
1394,C5,279.917,1.0,50,57.45
1395,C#2,280.0,0.5,33,57.45
1396,G#2,280.5,0.5,27,57.45
1397,F5,280.917,1.0,55,57.45
1398,F3,281.0,0.5,27,57.45
1399,C#4,281.5,0.5,28,57.45
1400,F#5,281.917,1.0,54,57.45
1401,C#2,282.0,0.5,33,57.45
1402,G#2,282.5,0.5,27,57.45
1403,G#4,282.917,1.0,45,57.45
1404,F3,283.0,0.5,27,57.45
1405,C#4,283.5,0.5,28,57.45
1406,F5,283.917,2.0,54,57.45
1407,E-2,284.0,0.5,33,57.45
1408,G#2,284.5,0.5,27,57.45
1409,F#3,285.0,0.5,24,57.45
1410,C4,285.5,0.5,24,57.45
1411,F#5,285.917,0.5,50,57.45
1412,E-2,286.0,0.5,31,57.45
1413,F5,286.417,0.5,46,57.45
1414,G#2,286.5,0.5,24,57.45
1415,E-5,286.917,0.5,50,57.45
1416,F#3,287.0,0.5,27,57.45
1417,C#5,287.417,0.5,46,57.45
1418,C4,287.5,0.5,25,57.45
1419,C5,287.917,1.0,50,57.45
1420,G#1,288.0,0.5,33,57.45
1421,G#2,288.5,0.5,29,57.45
1422,B-5,288.917,1.0,54,57.45
1423,F#3,289.0,0.5,29,57.45
1424,C4,289.5,0.5,30,57.45
1425,G#5,289.917,2.0,52,57.45
1426,G#1,290.0,0.5,36,57.45
1427,G#2,290.5,0.5,30,57.45
1428,F#3,291.0,0.5,30,57.45
1429,C4,291.5,0.5,31,57.45
1430,F#5,291.917,2.0,51,57.45
1431,C#2,292.0,0.5,36,57.45
1432,G#2,292.5,0.5,30,57.45
1433,F3,293.0,0.5,28,57.45
1434,C#4,293.5,0.5,25,57.45
1435,G#5,293.917,0.5,50,57.45
1436,C#2,294.0,0.5,33,57.45
1437,F#5,294.417,0.5,46,57.45
1438,G#2,294.5,0.5,27,57.45
1439,F5,294.917,0.5,50,57.45
1440,F3,295.0,0.5,29,57.45
1441,E-5,295.417,0.5,46,57.45
1442,C#4,295.5,0.5,27,57.45
1443,C#5,295.917,1.0,50,57.45
1444,C#2,296.0,0.5,33,57.45
1445,G#2,296.5,0.5,27,57.45
1446,C#6,296.917,1.0,53,57.45
1447,F3,297.0,0.5,30,57.45
1448,C#4,297.5,0.5,28,57.45
1449,G#5,297.917,2.0,49,57.45
1450,B-1,298.0,0.5,33,57.45
1451,B-2,298.5,0.5,29,57.45
1452,G#3,299.0,0.5,29,57.45
1453,D4,299.5,0.5,30,57.45
1454,F5,299.917,2.0,52,57.45
1455,E-2,300.0,0.5,33,57.45
1456,B-2,300.5,0.5,30,57.45
1457,F#3,301.0,0.5,30,57.45
1458,E-4,301.5,0.5,27,57.45
1459,F#5,301.917,0.5,51,57.45
1460,F#2,302.0,0.5,33,57.45
1461,F5,302.417,0.5,46,57.45
1462,E-3,302.5,0.5,29,57.45
1463,E-5,302.917,0.5,50,57.45
1464,B-3,303.0,0.5,30,57.45
1465,D5,303.417,0.25,46,57.45
1466,E-4,303.5,0.25,27,57.45
1467,E-5,303.667,0.125,46,57.45
1468,F5,303.792,0.125,42,57.45
1469,E-5,303.917,0.5,53,57.45
1470,G2,304.0,0.5,33,57.45
1471,D5,304.417,0.5,51,57.45
1472,E3,304.5,0.5,28,57.45
1473,E-5,304.917,0.5,54,57.45
1474,C#4,305.0,0.5,28,57.45
1475,F5,305.417,0.5,55,57.45
1476,B-4,305.5,0.5,29,57.45
1477,F#5,305.917,0.5,57,57.45
1478,G#2,306.0,0.5,33,57.45
1479,B-4,306.417,0.5,52,57.45
1480,E-3,306.5,0.5,28,57.45
1481,F5,306.917,0.5,57,57.45
1482,C4,307.0,0.5,30,57.45
1483,E-5,307.417,0.25,50,57.45
1484,F#4,307.5,0.5,30,57.45
1485,C5,307.667,0.125,39,57.45
1486,C#5,307.792,0.125,39,57.45
1487,C#5,307.917,0.094,39,57.45
1488,G#1,308.0,0.5,33,57.45
1489,E-5,308.01,0.094,36,57.45
1490,C#5,308.104,0.094,40,57.45
1491,E-5,308.198,0.094,37,57.45
1492,C#5,308.292,0.094,42,57.45
1493,E-5,308.385,0.094,38,57.45
1494,C#5,308.479,0.094,44,57.45
1495,G#2,308.5,0.5,27,57.45
1496,E-5,308.573,0.094,39,57.45
1497,C#5,308.667,0.094,46,57.45
1498,E-5,308.76,0.094,42,57.45
1499,C#5,308.854,0.094,48,57.45
1500,E-5,308.948,0.094,42,57.45
1501,F#3,309.0,0.5,27,57.45
1502,C#5,309.042,0.094,47,57.45
1503,E-5,309.137,0.094,40,57.45
1504,C#5,309.229,0.094,44,57.45
1505,E-5,309.323,12/125,38,57.45
1506,C#5,309.417,0.125,42,57.45
1507,C4,309.5,0.5,23,57.45
1508,E-5,309.542,0.125,37,57.45
1509,C5,309.667,0.125,40,57.45
1510,C#5,309.792,0.125,35,57.45
1511,B-5,309.917,0.5,54,57.45
1512,C#3,310.0,1.0,24,57.45
1513,F3,310.0,1.0,24,57.45
1514,C#4,310.0,1.0,24,57.45
1515,G#5,310.417,0.5,50,57.45
1516,F#5,310.917,0.5,52,57.45
1517,G#4,311.417,0.5,50,57.45
1518,E-5,311.917,2.0,54,57.45
1519,B-1,312.0,1.0,30,57.45
1520,F2,312.0,1.0,30,57.45
1521,B-2,312.0,1.0,30,57.45
1522,C#2,313.0,1.0,27,57.45
1523,F#2,313.0,1.0,27,57.45
1524,C#3,313.0,1.0,27,57.45
1525,C#5,313.917,1.0,45,57.45
1526,B-1,314.0,1.0,30,57.45
1527,F2,314.0,1.0,30,57.45
1528,B-2,314.0,1.0,30,57.45
1529,C#2,315.0,1.0,25,57.45
1530,F#2,315.0,1.0,25,57.45
1531,C#3,315.0,1.0,25,57.45
1532,F3,315.917,1.0,37,57.45
1533,B-3,315.917,1.0,37,57.45
1534,B-1,316.0,1.0,30,57.45
1535,F2,316.0,1.0,30,57.45
1536,B-2,316.0,1.0,30,57.45
1537,F#3,316.917,1.0,34,57.45
1538,B-3,316.917,0.75,40,57.45
1539,C#2,317.0,1.0,27,57.45
1540,F#2,317.0,1.0,27,57.45
1541,C#3,317.0,1.0,27,57.45
1542,B-3,317.667,9/40,36,57.45
1543,F3,317.917,1.0,34,57.45
1544,B-3,317.917,2.0,40,57.45
1545,B-1,318.0,1.0,30,57.45
1546,F2,318.0,1.0,30,57.45
1547,B-2,318.0,1.0,30,57.45
1548,F#3,318.917,1.0,28,57.45
1549,C#2,319.0,1.0,24,57.45
1550,F#2,319.0,1.0,24,57.45
1551,C#3,319.0,1.0,24,57.45
1552,F3,319.917,1.0,37,57.45
1553,B-3,319.917,1.0,37,57.45
1554,B-1,320.0,1.0,30,57.45
1555,F2,320.0,1.0,30,57.45
1556,B-2,320.0,1.0,30,57.45
1557,F#3,320.917,1.0,34,57.45
1558,B-3,320.917,0.75,40,57.45
1559,C#2,321.0,1.0,28,57.45
1560,F#2,321.0,1.0,28,57.45
1561,C#3,321.0,1.0,28,57.45
1562,B-3,321.667,9/40,36,57.45
1563,F3,321.917,1.0,34,57.45
1564,B-3,321.917,2.0,40,57.45
1565,B-1,322.0,1.0,30,57.45
1566,F2,322.0,1.0,30,57.45
1567,B-2,322.0,1.0,30,57.45
1568,F#3,322.917,1.0,28,57.45
1569,C#2,323.0,1.0,25,57.45
1570,F#2,323.0,1.0,25,57.45
1571,C#3,323.0,1.0,25,57.45
1572,F3,323.917,1.0,37,57.45
1573,B-3,323.917,1.0,37,57.45
1574,B-1,324.0,1.0,30,57.45
1575,F2,324.0,1.0,30,57.45
1576,B-2,324.0,1.0,30,57.45
1577,F#3,324.917,1.0,34,57.45
1578,B-3,324.917,0.75,40,57.45
1579,C#2,325.0,1.0,27,57.45
1580,F#2,325.0,1.0,27,57.45
1581,C#3,325.0,1.0,27,57.45
1582,B-3,325.667,9/40,36,57.45
1583,F3,325.917,1.0,37,57.45
1584,B-3,325.917,1.0,37,57.45
1585,B-1,326.0,1.0,30,57.45
1586,F2,326.0,1.0,30,57.45
1587,B-2,326.0,1.0,30,57.45
1588,C#4,326.917,0.75,49,57.45
1589,F#3,326.917,1.0,39,57.45
1590,C#2,327.0,1.0,24,57.45
1591,F#2,327.0,1.0,24,57.45
1592,C#3,327.0,1.0,24,57.45
1593,C4,327.667,9/40,45,57.45
1594,C4,327.917,0.75,48,57.45
1595,F3,327.917,1.0,39,57.45
1596,B-1,328.0,1.0,37,57.45
1597,F2,328.0,1.0,37,57.45
1598,B-2,328.0,1.0,37,57.45
1599,B-3,328.667,9/40,42,57.45
1600,F#3,328.917,1.0,37,57.45
1601,B-3,328.917,0.75,44,57.45
1602,C#2,329.0,1.0,35,57.45
1603,F#2,329.0,1.0,35,57.45
1604,C#3,329.0,1.0,35,57.45
1605,B-3,329.667,9/40,36,57.45
1606,F3,329.917,1.0,34,57.45
1607,B-3,329.917,2.0,40,57.45
1608,B-1,330.0,1.0,37,57.45
1609,F2,330.0,1.0,37,57.45
1610,B-2,330.0,1.0,37,57.45
1611,F#3,330.917,1.0,28,57.45
1612,C#2,331.0,1.0,32,57.45
1613,F#2,331.0,1.0,32,57.45
1614,C#3,331.0,1.0,32,57.45
1615,B-3,331.917,1.0,45,57.45
1616,F3,331.917,1.0,45,57.45
1617,C#4,331.917,1.0,45,57.45
1618,B-1,332.0,1.0,37,57.45
1619,F2,332.0,1.0,37,57.45
1620,B-2,332.0,1.0,37,57.45
1621,C#4,332.917,0.75,50,57.45
1622,B-3,332.917,1.0,42,57.45
1623,F#3,332.917,1.0,42,57.45
1624,C#2,333.0,1.0,32,57.45
1625,F#2,333.0,1.0,32,57.45
1626,C#3,333.0,1.0,32,57.45
1627,C#4,333.667,9/40,45,57.45
1628,B-3,333.917,1.0,45,57.45
1629,F3,333.917,1.0,45,57.45
1630,C#4,333.917,1.0,45,57.45
1631,B-1,334.0,1.0,37,57.45
1632,F2,334.0,1.0,37,57.45
1633,B-2,334.0,1.0,37,57.45
1634,F#3,334.917,1.0,48,57.45
1635,F4,334.917,0.75,56,57.45
1636,C#4,334.917,0.75,56,57.45
1637,C#2,335.0,1.0,29,57.45
1638,F#2,335.0,1.0,29,57.45
1639,C#3,335.0,1.0,29,57.45
1640,E-4,335.667,0.125,50,57.45
1641,C4,335.667,0.125,50,57.45
1642,F4,335.792,0.125,48,57.45
1643,F3,335.917,1.0,48,57.45
1644,E-4,335.917,0.75,54,57.45
1645,C4,335.917,0.75,54,57.45
1646,B-1,336.0,1.0,45,57.45
1647,F2,336.0,1.0,45,57.45
1648,B-2,336.0,1.0,45,57.45
1649,C#4,336.667,9/40,48,57.45
1650,B-3,336.667,9/40,48,57.45
1651,F#3,336.917,1.0,46,57.45
1652,C#4,336.917,0.75,52,57.45
1653,B-3,336.917,0.75,52,57.45
1654,C#2,337.0,1.0,39,57.45
1655,F#2,337.0,1.0,39,57.45
1656,C#3,337.0,1.0,39,57.45
1657,C#4,337.667,9/40,42,57.45
1658,B-3,337.667,9/40,42,57.45
1659,F3,337.917,1.0,42,57.45
1660,C#4,337.917,2.0,48,57.45
1661,B-3,337.917,2.0,48,57.45
1662,B-1,338.0,1.0,41,57.45
1663,F2,338.0,1.0,41,57.45
1664,B-2,338.0,1.0,41,57.45
1665,F#3,338.917,1.0,35,57.45
1666,C#2,339.0,1.0,30,57.45
1667,F#2,339.0,1.0,30,57.45
1668,C#3,339.0,1.0,30,57.45
1669,B-4,339.917,0.5,73,57.45
1670,C#4,339.917,0.875,58,57.45
1671,B-3,339.917,0.875,58,57.45
1672,B-1,340.0,1.0,45,57.45
1673,F2,340.0,1.0,45,57.45
1674,B-2,340.0,1.0,45,57.45
1675,G#4,340.417,0.375,67,57.45
1676,G#4,340.792,0.125,58,57.45
1677,F#4,340.917,0.75,61,57.45
1678,C#4,340.917,1.0,55,57.45
1679,B-3,340.917,1.0,55,57.45
1680,C#2,341.0,1.0,39,57.45
1681,F#2,341.0,1.0,39,57.45
1682,C#3,341.0,1.0,39,57.45
1683,F4,341.667,9/40,53,57.45
1684,B-3,341.917,1.0,53,57.45
1685,F4,341.917,1.0,53,57.45
1686,C#4,341.917,1.0,53,57.45
1687,B-1,342.0,1.0,41,57.45
1688,F2,342.0,1.0,41,57.45
1689,B-2,342.0,1.0,41,57.45
1690,B-3,342.917,1.0,46,57.45
1691,C#4,342.917,1.0,46,57.45
1692,C#2,343.0,1.0,30,57.45
1693,F#2,343.0,1.0,30,57.45
1694,C#3,343.0,1.0,30,57.45
1695,B-4,343.917,0.5,73,57.45
1696,C#4,343.917,0.875,58,57.45
1697,B-3,343.917,0.875,58,57.45
1698,B-1,344.0,1.0,34,57.45
1699,F2,344.0,1.0,34,57.45
1700,B-2,344.0,1.0,34,57.45
1701,G#4,344.417,0.375,67,57.45
1702,G#4,344.792,0.125,58,57.45
1703,F#4,344.917,0.75,61,57.45
1704,C#4,344.917,1.0,55,57.45
1705,B-3,344.917,1.0,55,57.45
1706,C#2,345.0,1.0,32,57.45
1707,F#2,345.0,1.0,32,57.45
1708,C#3,345.0,1.0,32,57.45
1709,F4,345.667,9/40,54,57.45
1710,B-3,345.917,1.0,53,57.45
1711,F4,345.917,1.0,53,57.45
1712,C#4,345.917,1.0,53,57.45
1713,B-1,346.0,1.0,34,57.45
1714,F2,346.0,1.0,34,57.45
1715,B-2,346.0,1.0,34,57.45
1716,B-3,346.917,1.0,46,57.45
1717,C#4,346.917,1.0,46,57.45
1718,C#2,347.0,1.0,29,57.45
1719,F#2,347.0,1.0,29,57.45
1720,C#3,347.0,1.0,29,57.45
1721,F3,347.917,1.0,42,57.45
1722,B-3,347.917,1.0,42,57.45
1723,B-1,348.0,1.0,34,57.45
1724,F2,348.0,1.0,34,57.45
1725,B-2,348.0,1.0,34,57.45
1726,F#3,348.917,1.0,39,57.45
1727,B-3,348.917,0.75,46,57.45
1728,C#2,349.0,1.0,30,57.45
1729,F#2,349.0,1.0,30,57.45
1730,C#3,349.0,1.0,30,57.45
1731,B-3,349.667,9/40,41,57.45
1732,F3,349.917,1.0,42,57.45
1733,B-3,349.917,1.0,42,57.45
1734,B-1,350.0,1.0,34,57.45
1735,F2,350.0,1.0,34,57.45
1736,B-2,350.0,1.0,34,57.45
1737,C#4,350.917,0.75,54,57.45
1738,F#3,350.917,1.0,44,57.45
1739,C#2,351.0,1.0,27,57.45
1740,F#2,351.0,1.0,27,57.45
1741,C#3,351.0,1.0,27,57.45
1742,C4,351.667,0.125,49,57.45
1743,C#4,351.792,0.125,45,57.45
1744,C4,351.917,0.75,52,57.45
1745,F3,351.917,1.0,44,57.45
1746,B-1,352.0,1.0,50,57.45
1747,F2,352.0,1.0,50,57.45
1748,B-2,352.0,1.0,50,57.45
1749,B-3,352.667,9/40,46,57.45
1750,F#3,352.917,1.0,42,57.45
1751,B-3,352.917,0.75,50,57.45
1752,C#2,353.0,1.0,40,57.45
1753,F#2,353.0,1.0,40,57.45
1754,C#3,353.0,1.0,40,57.45
1755,B-3,353.667,9/40,41,57.45
1756,F3,353.917,1.0,39,57.45
1757,B-3,353.917,2.0,46,57.45
1758,B-1,354.0,1.0,42,57.45
1759,F2,354.0,1.0,42,57.45
1760,B-2,354.0,1.0,42,57.45
1761,F#3,354.917,1.0,32,57.45
1762,C#2,355.0,1.0,33,57.45
1763,F#2,355.0,1.0,33,57.45
1764,C#3,355.0,1.0,33,57.45
1765,C#5,355.917,479/500,68,57.45
1766,B-5,355.917,0.5,76,57.45
1767,B-4,355.917,0.5,76,57.45
1768,B-1,356.0,1.0,50,57.45
1769,F2,356.0,1.0,50,57.45
1770,B-2,356.0,1.0,50,57.45
1771,G#4,356.417,0.375,64,57.45
1772,G#5,356.417,0.375,64,57.45
1773,G#4,356.792,21/500,64,57.45
1774,C#5,356.833,1083/1000,57,57.45
1775,G#5,356.875,21/500,59,57.45
1776,F#5,356.917,0.75,73,57.45
1777,C#5,356.917,1.0,68,57.45
1778,F#4,356.917,1.0,68,57.45
1779,C#2,357.0,1.0,40,57.45
1780,F#2,357.0,1.0,40,57.45
1781,C#3,357.0,1.0,40,57.45
1782,F4,357.667,9/40,56,57.45
1783,F5,357.667,9/40,56,57.45
1784,F4,357.917,1.0,65,57.45
1785,F5,357.917,1.0,65,57.45
1786,C#5,357.917,1.0,65,57.45
1787,B-1,358.0,1.0,42,57.45
1788,F2,358.0,1.0,42,57.45
1789,B-2,358.0,1.0,42,57.45
1790,C#5,358.917,1.0,64,57.45
1791,C#4,358.917,1.0,64,57.45
1792,B-4,358.917,1.0,64,57.45
1793,C#2,359.0,1.0,33,57.45
1794,F#2,359.0,1.0,33,57.45
1795,C#3,359.0,1.0,33,57.45
1796,C#5,359.917,479/500,68,57.45
1797,B-5,359.917,0.5,76,57.45
1798,B-4,359.917,0.5,76,57.45
1799,B-1,360.0,1.0,46,57.45
1800,F2,360.0,1.0,46,57.45
1801,B-2,360.0,1.0,46,57.45
1802,G#4,360.417,0.375,64,57.45
1803,G#5,360.417,0.375,64,57.45
1804,G#4,360.792,21/500,66,57.45
1805,C#5,360.833,1083/1000,58,57.45
1806,G#5,360.875,21/500,58,57.45
1807,F#5,360.917,0.75,73,57.45
1808,C#5,360.917,1.0,70,57.45
1809,F#4,360.917,1.0,70,57.45
1810,C#2,361.0,1.0,43,57.45
1811,F#2,361.0,1.0,43,57.45
1812,C#3,361.0,1.0,43,57.45
1813,F4,361.667,9/40,56,57.45
1814,F5,361.667,9/40,56,57.45
1815,F4,361.917,1.0,65,57.45
1816,F5,361.917,1.0,65,57.45
1817,C#5,361.917,1.0,65,57.45
1818,B-1,362.0,1.0,48,57.45
1819,F2,362.0,1.0,48,57.45
1820,B-2,362.0,1.0,48,57.45
1821,C#5,362.917,1.0,64,57.45
1822,C#4,362.917,1.0,64,57.45
1823,B-4,362.917,1.0,64,57.45
1824,C#2,363.0,1.0,43,57.45
1825,F#2,363.0,1.0,43,57.45
1826,C#3,363.0,1.0,43,57.45
1827,B-3,363.917,1.0,55,57.45
1828,F4,363.917,1.0,55,57.45
1829,B-4,363.917,1.0,55,57.45
1830,B-1,364.0,1.0,52,57.45
1831,F2,364.0,1.0,52,57.45
1832,B-2,364.0,1.0,52,57.45
1833,F#4,364.917,1.0,53,57.45
1834,B-3,364.917,0.75,58,57.45
1835,B-4,364.917,0.75,58,57.45
1836,C#2,365.0,1.0,45,57.45
1837,F#2,365.0,1.0,45,57.45
1838,C#3,365.0,1.0,45,57.45
1839,B-3,365.667,9/40,52,57.45
1840,B-4,365.667,9/40,52,57.45
1841,B-3,365.917,1.0,58,57.45
1842,F4,365.917,1.0,58,57.45
1843,B-4,365.917,1.0,58,57.45
1844,B-1,366.0,1.0,57,57.45
1845,F2,366.0,1.0,57,57.45
1846,B-2,366.0,1.0,57,57.45
1847,F#4,366.917,1.0,66,57.45
1848,C#4,366.917,0.75,75,57.45
1849,C#5,366.917,0.75,75,57.45
1850,G#1,367.0,1.0,64,57.45
1851,G#2,367.0,1.0,64,57.45
1852,C4,367.667,9/40,65,57.45
1853,C5,367.667,9/40,65,57.45
1854,F4,367.917,1.0,68,57.45
1855,C4,367.917,0.75,74,57.45
1856,C5,367.917,0.75,74,57.45
1857,C#1,368.0,1.0,66,57.45
1858,C#2,368.0,1.0,66,57.45
1859,B-3,368.667,9/40,65,57.45
1860,B-4,368.667,9/40,65,57.45
1861,F#4,368.917,1.0,64,57.45
1862,B-3,368.917,0.75,70,57.45
1863,B-4,368.917,0.75,70,57.45
1864,C#3,369.0,0.75,68,57.45
1865,G#3,369.0,0.75,68,57.45
1866,C#4,369.0,0.75,68,57.45
1867,B-3,369.667,9/40,66,57.45
1868,B-4,369.667,9/40,66,57.45
1869,E-4,369.75,0.25,76,57.45
1870,B-3,369.917,1.0,68,57.45
1871,F4,369.917,1.0,68,57.45
1872,B-4,369.917,1.0,68,57.45
1873,C#3,370.0,0.75,72,57.45
1874,G#3,370.0,0.75,72,57.45
1875,F4,370.0,0.75,72,57.45
1876,F#4,370.75,0.25,80,57.45
1877,G#4,370.917,1.0,80,57.45
1878,C4,370.917,1.0,80,57.45
1879,C5,370.917,1.0,80,57.45
1880,F#4,370.917,1.0,80,57.45
1881,E-4,371.0,0.75,77,57.45
1882,G#3,371.0,0.75,77,57.45
1883,G#4,371.0,0.75,77,57.45
1884,F4,371.75,0.25,85,57.45
1885,C#4,371.917,1.0,85,57.45
1886,F4,371.917,1.0,85,57.45
1887,C#5,371.917,1.0,85,57.45
1888,G#1,372.0,1.0,84,57.45
1889,G#2,372.0,1.0,84,57.45
1890,F4,372.917,0.75,79,57.45
1891,C#5,372.917,0.75,79,57.45
1892,F5,372.917,0.75,79,57.45
1893,E-4,373.0,0.75,73,57.45
1894,F#4,373.0,0.75,73,57.45
1895,C5,373.0,0.75,73,57.45
1896,F#4,373.667,0.25,82,57.45
1897,F#5,373.667,0.25,82,57.45
1898,C#4,373.75,9/40,69,57.45
1899,F#4,373.75,9/40,69,57.45
1900,B-4,373.75,9/40,69,57.45
1901,G#4,373.917,0.75,83,57.45
1902,C#5,373.917,0.75,83,57.45
1903,G#5,373.917,0.75,83,57.45
1904,C#4,374.0,0.75,67,57.45
1905,F#4,374.0,0.75,67,57.45
1906,B-4,374.0,0.75,67,57.45
1907,B-4,374.667,0.25,86,57.45
1908,B-5,374.667,0.25,86,57.45
1909,C4,374.75,9/40,63,57.45
1910,F#4,374.75,9/40,63,57.45
1911,G#4,374.75,9/40,63,57.45
1912,C5,374.917,0.75,89,57.45
1913,G#5,374.917,0.75,89,57.45
1914,C6,374.917,0.75,89,57.45
1915,C4,375.0,0.75,61,57.45
1916,F#4,375.0,0.75,61,57.45
1917,G#4,375.0,0.75,61,57.45
1918,C#5,375.667,0.25,95,57.45
1919,C#6,375.667,0.25,95,57.45
1920,A3,375.75,0.25,70,57.45
1921,C4,375.75,0.25,70,57.45
1922,E-4,375.75,0.25,70,57.45
1923,C6,375.917,3.5,88,57.45
1924,G#5,375.917,3.5,88,57.45
1925,F5,375.917,2.0,96,57.45
1926,F6,375.917,2.0,96,57.45
1927,B-1,376.0,1.0,72,57.45
1928,B-2,376.0,1.0,72,57.45
1929,F3,377.0,1.0,67,57.45
1930,B-3,377.0,1.0,67,57.45
1931,C#4,377.0,1.0,67,57.45
1932,E-5,377.917,1.5,87,57.45
1933,E-6,377.917,1.5,87,57.45
1934,C#2,378.0,1.0,74,57.45
1935,C#3,378.0,1.0,74,57.45
1936,F4,379.0,1.0,67,57.45
1937,C#4,379.0,1.0,67,57.45
1938,B-3,379.0,1.0,67,57.45
1939,F3,379.0,1.0,67,57.45
1940,F#4,379.667,0.25,78,57.45
1941,C5,379.667,0.25,78,57.45
1942,E-5,379.667,0.25,78,57.45
1943,F#5,379.667,0.25,78,57.45
1944,E-5,379.917,1.0,86,57.45
1945,F4,379.917,1.0,86,57.45
1946,C5,379.917,1.0,86,57.45
1947,F5,379.917,1.0,86,57.45
1948,F1,380.0,1.0,84,57.45
1949,F2,380.0,1.0,84,57.45
1950,B-4,380.917,0.75,78,57.45
1951,F4,380.917,0.75,78,57.45
1952,C#5,380.917,0.75,78,57.45
1953,F5,380.917,0.75,78,57.45
1954,F3,381.0,1.0,72,57.45
1955,B-3,381.0,1.0,72,57.45
1956,C#4,381.0,1.0,72,57.45
1957,G4,381.0,1.0,72,57.45
1958,G4,381.667,0.25,82,57.45
1959,G5,381.667,0.25,82,57.45
1960,F5,381.917,0.75,82,57.45
1961,A4,381.917,0.75,82,57.45
1962,C#5,381.917,0.75,82,57.45
1963,A5,381.917,0.75,82,57.45
1964,F3,382.0,1.0,67,57.45
1965,A3,382.0,1.0,67,57.45
1966,C4,382.0,1.0,67,57.45
1967,A4,382.0,1.0,67,57.45
1968,B-4,382.667,0.25,86,57.45
1969,B-5,382.667,0.25,86,57.45
1970,C5,382.917,0.75,89,57.45
1971,F5,382.917,0.75,89,57.45
1972,C6,382.917,0.75,89,57.45
1973,F3,383.0,0.5,87,57.45
1974,G2,383.5,167/1000,61,57.45
1975,G#2,383.667,167/1000,61,57.45
1976,C#5,383.667,0.125,95,57.45
1977,C#6,383.667,0.125,95,57.45
1978,B-4,383.792,0.125,88,57.45
1979,E5,383.792,0.125,88,57.45
1980,B-2,383.833,167/1000,61,57.45
1981,G5,383.875,21/500,96,57.45
1982,C#6,383.875,21/500,96,57.45
1983,G#2,384.0,0.094,61,57.45
1984,B-2,384.094,0.094,56,57.45
1985,G#2,384.188,0.094,64,57.45
1986,B-2,384.281,0.094,57,57.45
1987,G#2,384.375,0.094,66,57.45
1988,B-2,384.469,0.094,59,57.45
1989,G#2,384.562,0.094,68,57.45
1990,B-2,384.656,0.094,61,57.45
1991,G#2,384.75,0.094,70,57.45
1992,B-2,384.844,0.094,65,57.45
1993,G#2,384.938,0.094,73,57.45
1994,B-2,385.031,0.094,66,57.45
1995,G#2,385.125,0.094,72,57.45
1996,B-2,385.221,0.094,63,57.45
1997,G#2,385.312,0.094,69,57.45
1998,B-2,385.406,12/125,60,57.45
1999,G#2,385.5,0.125,66,57.45
2000,B-2,385.625,0.125,58,57.45
2001,G2,385.75,0.125,64,57.45
2002,G#2,385.875,0.125,55,57.45
2003,B-4,385.875,979/500,88,57.45
2004,E5,385.875,979/500,88,57.45
2005,G5,385.875,979/500,96,57.45
2006,C#6,385.875,979/500,96,57.45
2007,C#3,386.0,1.0,68,57.45
2008,C#3,387.0,0.5,82,57.45
2009,E2,387.5,167/1000,61,57.45
2010,F2,387.667,167/1000,61,57.45
2011,F#2,387.833,167/1000,61,57.45
2012,C5,387.875,1.0,81,57.45
2013,F5,387.875,1.0,81,57.45
2014,C6,387.875,1.0,81,57.45
2015,F2,388.0,0.094,61,57.45
2016,F#2,388.094,0.094,56,57.45
2017,F2,388.188,0.094,64,57.45
2018,F#2,388.281,0.094,57,57.45
2019,F2,388.375,0.094,66,57.45
2020,F#2,388.469,0.094,59,57.45
2021,F2,388.562,0.094,68,57.45
2022,F#2,388.656,0.094,61,57.45
2023,F2,388.75,0.094,70,57.45
2024,F#2,388.844,0.094,65,57.45
2025,F2,388.938,0.094,73,57.45
2026,F#2,389.031,0.094,66,57.45
2027,F2,389.125,0.094,72,57.45
2028,F#2,389.221,0.094,63,57.45
2029,F2,389.312,0.094,69,57.45
2030,F#2,389.406,12/125,60,57.45
2031,F2,389.5,0.125,66,57.45
2032,F#2,389.625,0.125,58,57.45
2033,E2,389.75,0.125,64,57.45
2034,F2,389.875,0.125,55,57.45
2035,G#3,389.875,1.0,70,57.45
2036,F#3,389.875,1.0,70,57.45
2037,C4,389.875,1.0,70,57.45
2038,F4,389.875,1.0,70,57.45
2039,G#4,389.875,1.0,70,57.45
2040,F#2,390.0,1.0,64,57.45
2041,F#3,390.875,1.0,70,57.45
2042,G#3,390.875,1.0,70,57.45
2043,C4,390.875,1.0,70,57.45
2044,E-4,390.875,1.0,70,57.45
2045,G#4,390.875,1.0,70,57.45
2046,F2,391.0,0.5,49,57.45
2047,C#2,391.5,0.5,39,57.45
2048,F3,391.875,1.0,72,57.45
2049,C#4,391.875,1.0,72,57.45
2050,G#4,391.875,1.0,72,57.45
2051,B-1,392.0,1.0,34,57.45
2052,F2,392.0,1.0,34,57.45
2053,B-2,392.0,1.0,34,57.45
2054,C#2,393.0,1.0,32,57.45
2055,F#2,393.0,1.0,32,57.45
2056,C#3,393.0,1.0,32,57.45
2057,A3,393.875,1.0,71,57.45
2058,E-3,393.875,1.0,71,57.45
2059,C#4,393.875,1.0,71,57.45
2060,F4,393.875,1.0,71,57.45
2061,B-1,394.0,1.0,34,57.45
2062,F2,394.0,1.0,34,57.45
2063,B-2,394.0,1.0,34,57.45
2064,E-3,394.875,1.0,71,57.45
2065,A3,394.875,1.0,71,57.45
2066,C4,394.875,1.0,71,57.45
2067,F4,394.875,1.0,71,57.45
2068,C#2,395.0,1.0,29,57.45
2069,F#2,395.0,1.0,29,57.45
2070,C#3,395.0,1.0,29,57.45
2071,C#3,395.875,2.0,74,57.45
2072,B-3,395.875,2.0,74,57.45
2073,B-1,396.0,1.0,34,57.45
2074,F2,396.0,1.0,34,57.45
2075,B-2,396.0,1.0,34,57.45
2076,C#2,397.0,1.0,30,57.45
2077,F#2,397.0,1.0,30,57.45
2078,C#3,397.0,1.0,30,57.45
2079,B-2,397.875,1.0,41,57.45
2080,F3,397.875,1.0,41,57.45
2081,B-3,397.875,1.0,41,57.45
2082,B-1,398.0,1.0,34,57.45
2083,F2,398.0,1.0,34,57.45
2084,B-2,398.0,1.0,34,57.45
2085,F#3,398.875,1.0,39,57.45
2086,B-3,398.875,0.75,46,57.45
2087,A1,399.0,0.75,65,57.45
2088,A2,399.0,0.75,65,57.45
2089,B-3,399.625,9/40,41,57.45
2090,G#1,399.75,0.25,65,57.45
2091,G#2,399.75,0.25,65,57.45
2092,F3,399.875,1.0,42,57.45
2093,B-3,399.875,1.0,42,57.45
2094,C#1,400.0,1.0,68,57.45
2095,C#2,400.0,1.0,68,57.45
2096,C#4,400.875,0.75,54,57.45
2097,F#3,400.875,1.0,44,57.45
2098,C#3,401.0,0.75,68,57.45
2099,G#3,401.0,0.75,68,57.45
2100,C#4,401.0,0.75,68,57.45
2101,C4,401.625,0.125,49,57.45
2102,C#4,401.75,0.125,45,57.45
2103,E-4,401.75,0.25,77,57.45
2104,C4,401.875,0.75,52,57.45
2105,F3,401.875,1.0,44,57.45
2106,C#3,402.0,0.75,72,57.45
2107,G#3,402.0,0.75,72,57.45
2108,F4,402.0,0.75,72,57.45
2109,B-3,402.625,0.25,46,57.45
2110,F#4,402.75,0.25,81,57.45
2111,F#3,402.875,1.0,42,57.45
2112,B-3,402.875,0.75,50,57.45
2113,E-4,403.0,0.75,77,57.45
2114,G#3,403.0,0.75,77,57.45
2115,G#4,403.0,0.75,77,57.45
2116,B-3,403.625,9/40,41,57.45
2117,F4,403.75,0.25,85,57.45
2118,F3,403.875,1.0,42,57.45
2119,B-3,403.875,1.0,42,57.45
2120,G#1,404.0,1.0,85,57.45
2121,G#2,404.0,1.0,85,57.45
2122,G3,404.875,0.75,83,57.45
2123,C#4,404.875,0.75,83,57.45
2124,E3,404.875,0.75,83,57.45
2125,E-4,405.0,0.75,73,57.45
2126,F#4,405.0,0.75,73,57.45
2127,C5,405.0,0.75,73,57.45
2128,F#3,405.625,0.25,83,57.45
2129,C4,405.625,0.25,83,57.45
2130,E-4,405.625,0.25,83,57.45
2131,C#4,405.75,9/40,68,57.45
2132,F#4,405.75,9/40,68,57.45
2133,B-4,405.75,9/40,68,57.45
2134,F3,405.875,1.0,86,57.45
2135,C#4,405.875,1.0,86,57.45
2136,F4,405.875,1.0,86,57.45
2137,C#4,406.0,0.75,67,57.45
2138,F#4,406.0,0.75,67,57.45
2139,B-4,406.0,0.75,67,57.45
2140,C4,406.75,9/40,63,57.45
2141,F#4,406.75,9/40,63,57.45
2142,G#4,406.75,9/40,63,57.45
2143,F4,406.875,0.75,79,57.45
2144,C#5,406.875,0.75,79,57.45
2145,F5,406.875,0.75,79,57.45
2146,C4,407.0,0.75,61,57.45
2147,F#4,407.0,0.75,61,57.45
2148,G#4,407.0,0.75,61,57.45
2149,F#4,407.625,0.25,82,57.45
2150,F#5,407.625,0.25,82,57.45
2151,A3,407.75,0.25,67,57.45
2152,C4,407.75,0.25,67,57.45
2153,E-4,407.75,0.25,67,57.45
2154,G#4,407.875,0.75,84,57.45
2155,C#5,407.875,0.75,84,57.45
2156,G#5,407.875,0.75,84,57.45
2157,B-1,408.0,1.0,69,57.45
2158,B-2,408.0,1.0,69,57.45
2159,B-4,408.625,0.25,86,57.45
2160,B-5,408.625,0.25,86,57.45
2161,C5,408.875,0.75,89,57.45
2162,G#5,408.875,0.75,89,57.45
2163,C6,408.875,0.75,89,57.45
2164,F3,409.0,1.0,67,57.45
2165,B-3,409.0,1.0,67,57.45
2166,C#4,409.0,1.0,67,57.45
2167,C#5,409.625,0.25,96,57.45
2168,C#6,409.625,0.25,96,57.45
2169,C6,409.875,3.5,88,57.45
2170,G#5,409.875,3.5,88,57.45
2171,F5,409.875,2.0,96,57.45
2172,F6,409.875,2.0,96,57.45
2173,C#2,410.0,1.0,74,57.45
2174,C#3,410.0,1.0,74,57.45
2175,F4,411.0,1.0,67,57.45
2176,C#4,411.0,1.0,67,57.45
2177,B-3,411.0,1.0,67,57.45
2178,F3,411.0,1.0,67,57.45
2179,E-5,411.875,1.5,87,57.45
2180,E-6,411.875,1.5,87,57.45
2181,F1,412.0,1.0,84,57.45
2182,F2,412.0,1.0,84,57.45
2183,F3,413.0,1.0,72,57.45
2184,B-3,413.0,1.0,72,57.45
2185,C#4,413.0,1.0,72,57.45
2186,G4,413.0,1.0,72,57.45
2187,F#4,413.625,0.25,75,57.45
2188,C5,413.625,0.25,75,57.45
2189,E-5,413.625,0.25,75,57.45
2190,F#5,413.625,0.25,75,57.45
2191,E-5,413.875,1.0,82,57.45
2192,F4,413.875,1.0,82,57.45
2193,C5,413.875,1.0,82,57.45
2194,F5,413.875,1.0,82,57.45
2195,F3,414.0,1.0,67,57.45
2196,A3,414.0,1.0,67,57.45
2197,C4,414.0,1.0,67,57.45
2198,A4,414.0,1.0,67,57.45
2199,B-4,414.875,0.75,78,57.45
2200,F4,414.875,0.75,78,57.45
2201,C#5,414.875,0.75,78,57.45
2202,F5,414.875,0.75,78,57.45
2203,F3,415.0,0.5,81,57.45
2204,G2,415.5,167/1000,61,57.45
2205,G4,415.625,0.25,82,57.45
2206,G5,415.625,0.25,82,57.45
2207,G#2,415.667,167/1000,61,57.45
2208,B-2,415.833,167/1000,61,57.45
2209,F5,415.875,0.75,82,57.45
2210,A4,415.875,0.75,82,57.45
2211,C#5,415.875,0.75,82,57.45
2212,A5,415.875,0.75,82,57.45
2213,G#2,416.0,0.094,61,57.45
2214,B-2,416.094,0.094,56,57.45
2215,G#2,416.188,0.094,64,57.45
2216,B-2,416.281,0.094,57,57.45
2217,G#2,416.375,0.094,66,57.45
2218,B-2,416.469,0.094,59,57.45
2219,G#2,416.562,0.094,68,57.45
2220,B-4,416.625,0.25,86,57.45
2221,B-5,416.625,0.25,86,57.45
2222,B-2,416.656,0.094,61,57.45
2223,G#2,416.75,0.094,70,57.45
2224,B-2,416.844,0.094,65,57.45
2225,C5,416.875,0.75,89,57.45
2226,F5,416.875,0.75,89,57.45
2227,C6,416.875,0.75,89,57.45
2228,G#2,416.938,0.094,73,57.45
2229,B-2,417.031,0.094,66,57.45
2230,G#2,417.125,0.094,72,57.45
2231,B-2,417.221,0.094,63,57.45
2232,G#2,417.312,0.094,69,57.45
2233,B-2,417.406,12/125,60,57.45
2234,G#2,417.5,0.125,66,57.45
2235,B-2,417.625,0.125,58,57.45
2236,C#5,417.625,0.125,95,57.45
2237,C#6,417.625,0.125,95,57.45
2238,G2,417.75,0.125,64,57.45
2239,B-4,417.75,0.125,88,57.45
2240,E5,417.75,0.125,88,57.45
2241,G5,417.833,21/500,96,57.45
2242,C#6,417.833,21/500,96,57.45
2243,G#2,417.875,0.125,55,57.45
2244,C#3,418.0,1.0,68,57.45
2245,C#3,419.0,0.5,68,57.45
2246,E2,419.5,167/1000,61,57.45
2247,F2,419.667,167/1000,61,57.45
2248,F#2,419.833,167/1000,61,57.45
2249,B-4,419.833,979/500,88,57.45
2250,E5,419.833,979/500,88,57.45
2251,G5,419.833,979/500,96,57.45
2252,C#6,419.833,979/500,96,57.45
2253,F2,420.0,0.094,61,57.45
2254,F#2,420.094,0.094,56,57.45
2255,F2,420.188,0.094,64,57.45
2256,F#2,420.281,0.094,57,57.45
2257,F2,420.375,0.094,66,57.45
2258,F#2,420.469,0.094,59,57.45
2259,F2,420.562,0.094,68,57.45
2260,F#2,420.656,0.094,61,57.45
2261,F2,420.75,0.094,70,57.45
2262,F#2,420.844,0.094,65,57.45
2263,F2,420.938,0.094,73,57.45
2264,F#2,421.031,0.094,66,57.45
2265,F2,421.125,0.094,72,57.45
2266,F#2,421.221,0.094,63,57.45
2267,F2,421.312,0.094,69,57.45
2268,F#2,421.406,12/125,60,57.45
2269,F2,421.5,0.125,66,57.45
2270,F#2,421.625,0.125,58,57.45
2271,E2,421.75,0.125,64,57.45
2272,C5,421.833,1.0,81,57.45
2273,F5,421.833,1.0,81,57.45
2274,C6,421.833,1.0,81,57.45
2275,F2,421.875,0.125,55,57.45
2276,F#2,422.0,1.0,64,57.45
2277,F2,423.0,0.5,47,57.45
2278,C#2,423.5,0.5,39,57.45
2279,G#3,423.833,1.0,70,57.45
2280,F#3,423.833,1.0,70,57.45
2281,C4,423.833,1.0,70,57.45
2282,F4,423.833,1.0,70,57.45
2283,G#4,423.833,1.0,70,57.45
2284,B-1,424.0,1.0,34,57.45
2285,F2,424.0,1.0,34,57.45
2286,B-2,424.0,1.0,34,57.45
2287,F#3,424.833,1.0,70,57.45
2288,G#3,424.833,1.0,70,57.45
2289,C4,424.833,1.0,70,57.45
2290,E-4,424.833,1.0,70,57.45
2291,G#4,424.833,1.0,70,57.45
2292,C#2,425.0,1.0,32,57.45
2293,F#2,425.0,1.0,32,57.45
2294,C#3,425.0,1.0,32,57.45
2295,F3,425.833,1.0,72,57.45
2296,C#4,425.833,1.0,72,57.45
2297,G#4,425.833,1.0,72,57.45
2298,B-1,426.0,1.0,34,57.45
2299,F2,426.0,1.0,34,57.45
2300,B-2,426.0,1.0,34,57.45
2301,C#2,427.0,1.0,24,57.45
2302,F#2,427.0,1.0,24,57.45
2303,C#3,427.0,1.0,24,57.45
2304,A3,427.833,1.0,71,57.45
2305,E-3,427.833,1.0,71,57.45
2306,C#4,427.833,1.0,71,57.45
2307,F4,427.833,1.0,71,57.45
2308,B-1,428.0,1.0,28,57.45
2309,F2,428.0,1.0,28,57.45
2310,B-2,428.0,1.0,28,57.45
2311,E-3,428.833,1.0,71,57.45
2312,A3,428.833,1.0,71,57.45
2313,C4,428.833,1.0,71,57.45
2314,F4,428.833,1.0,71,57.45
2315,C#2,429.0,99/100,24,57.45
2316,F#2,429.0,99/100,24,57.45
2317,C#3,429.0,99/100,24,57.45
2318,C#3,429.833,2.0,74,57.45
2319,B-3,429.833,2.0,74,57.45
2320,B-1,430.0,2.0,22,57.45
2321,F2,430.0,2.0,22,57.45
2322,B-2,431.833,1.0,41,57.45
2323,F3,431.833,1.0,41,57.45
2324,B-3,431.833,1.0,41,57.45
2325,F#3,432.833,1.0,39,57.45
2326,B-3,432.833,0.75,46,57.45
2327,B-3,433.583,9/40,41,57.45
2328,F3,433.833,1.0,42,57.45
2329,B-3,433.833,1.0,42,57.45
2330,C#4,434.833,0.75,45,57.45
2331,F#3,434.833,1.0,37,57.45
2332,C4,435.583,0.125,40,57.45
2333,C#4,435.708,0.125,37,57.45
2334,C4,435.833,0.75,42,57.45
2335,F3,435.833,1.0,36,57.45
2336,B-3,436.583,9/40,36,57.45
2337,F#3,436.833,1.0,33,57.45
2338,B-3,436.833,0.75,40,57.45
2339,B-3,437.583,9/40,28,57.45
2340,C#3,437.833,2.0,28,57.45
2341,F3,437.833,2.0,28,57.45
2342,B-3,437.833,2.0,28,57.45
