,note_name,start_time,duration,velocity,tempo
0,E5,2.0,1.0,45,144.0
1,F5,3.0,0.75,46,144.0
2,E5,3.75,0.25,45,144.0
3,D5,4.0,1.0,45,144.0
4,F4,4.0,1.0,24,144.0
5,D4,4.0,1.0,24,144.0
6,A3,4.0,1.0,24,144.0
7,F5,5.0,124/125,48,144.0
8,F4,5.0,1.0,24,144.0
9,D4,5.0,1.0,24,144.0
10,A3,5.0,1.0,24,144.0
11,F5,6.0,2.0,47,144.0
12,F4,7.0,1.0,22,144.0
13,C4,7.0,1.0,22,144.0
14,A3,7.0,1.0,22,144.0
15,E5,8.0,1.0,43,144.0
16,E4,8.0,1.0,22,144.0
17,C4,8.0,1.0,22,144.0
18,A3,8.0,1.0,22,144.0
19,D5,9.0,167/1000,42,144.0
20,E5,9.167,167/1000,43,144.0
21,D5,9.333,167/1000,44,144.0
22,C#5,9.5,0.5,45,144.0
23,D5,10.0,0.5,47,144.0
24,D4,10.0,1.0,25,144.0
25,E3,10.0,1.0,25,144.0
26,G#3,10.0,1.0,25,144.0
27,E-5,10.5,0.5,45,144.0
28,E5,11.0,0.5,50,144.0
29,D4,11.0,1.0,22,144.0
30,G#3,11.0,1.0,22,144.0
31,E3,11.0,1.0,22,144.0
32,B4,11.5,0.5,50,144.0
33,D5,12.0,2.0,54,144.0
34,A2,13.0,1.0,30,144.0
35,C5,14.0,1.0,45,144.0
36,C4,14.0,1.0,25,144.0
37,E3,14.0,1.0,25,144.0
38,A4,15.0,333/1000,62,144.0
39,B4,15.333,333/1000,57,144.0
40,A4,15.667,333/1000,57,144.0
41,G#4,16.0,0.5,63,144.0
42,E3,16.0,0.5,42,144.0
43,C4,16.0,0.5,42,144.0
44,A4,17.0,0.5,67,144.0
45,A2,17.0,0.5,48,144.0
46,B4,18.0,0.5,70,144.0
47,E5,19.0,2.0,72,144.0
48,E3,19.0,1.0,44,144.0
49,B3,19.0,1.0,44,144.0
50,G3,19.0,1.0,44,144.0
51,B2,20.0,1.0,56,144.0
52,B4,21.0,0.5,76,144.0
53,G4,21.5,0.5,73,144.0
54,E4,22.0,0.5,76,144.0
55,B2,22.0,1.0,48,144.0
56,G3,22.0,1.0,48,144.0
57,B3,22.0,1.0,48,144.0
58,B4,22.5,0.5,71,144.0
59,E-4,23.0,1.0,73,144.0
60,B2,23.0,1.0,44,144.0
61,F#3,23.0,1.0,44,144.0
62,B3,23.0,1.0,44,144.0
63,E4,24.0,2.0,76,144.0
64,E3,24.0,1.0,48,144.0
65,G3,24.0,1.0,48,144.0
66,B3,24.0,1.0,48,144.0
67,E2,25.0,1.0,50,144.0
68,E5,26.0,1.0,45,144.0
69,F5,27.0,0.75,46,144.0
70,E5,27.75,0.25,45,144.0
71,D5,28.0,1.0,45,144.0
72,F4,28.0,1.0,24,144.0
73,D4,28.0,1.0,24,144.0
74,A3,28.0,1.0,24,144.0
75,F5,29.0,247/250,48,144.0
76,F4,29.0,1.0,24,144.0
77,D4,29.0,1.0,24,144.0
78,A3,29.0,1.0,24,144.0
79,F5,30.0,2.0,47,144.0
80,F4,31.0,1.0,22,144.0
81,C4,31.0,1.0,22,144.0
82,A3,31.0,1.0,22,144.0
83,E5,32.0,1.0,43,144.0
84,E4,32.0,1.0,22,144.0
85,C4,32.0,1.0,22,144.0
86,A3,32.0,1.0,22,144.0
87,D5,33.0,167/1000,42,144.0
88,E5,33.167,167/1000,43,144.0
89,D5,33.333,167/1000,44,144.0
90,C#5,33.5,0.5,45,144.0
91,D5,34.0,0.5,47,144.0
92,D4,34.0,1.0,25,144.0
93,E3,34.0,1.0,25,144.0
94,G#3,34.0,1.0,25,144.0
95,E-5,34.5,0.5,45,144.0
96,E5,35.0,0.5,47,144.0
97,D4,35.0,1.0,22,144.0
98,G#3,35.0,1.0,22,144.0
99,E3,35.0,1.0,22,144.0
100,B4,35.5,119/500,42,144.0
101,B4,35.75,0.25,47,144.0
102,D5,36.0,2.0,51,144.0
103,F3,37.0,1.0,23,144.0
104,A3,37.0,1.0,23,144.0
105,D4,37.0,1.0,23,144.0
106,C5,38.0,1.0,45,144.0
107,A3,38.0,1.0,23,144.0
108,C4,38.0,1.0,23,144.0
109,F3,38.0,1.0,23,144.0
110,A4,39.0,333/1000,46,144.0
111,B-4,39.333,333/1000,43,144.0
112,A4,39.667,333/1000,43,144.0
113,G4,40.0,1.0,47,144.0
114,C4,40.0,1.0,31,144.0
115,F3,40.0,1.0,31,144.0
116,E-4,40.0,1.0,31,144.0
117,A4,41.0,1.0,51,144.0
118,F3,41.0,1.0,31,144.0
119,C4,41.0,1.0,31,144.0
120,E-4,41.0,1.0,31,144.0
121,B-4,42.0,1.0,53,144.0
122,B-3,42.0,2.0,34,144.0
123,D4,42.0,1.0,37,144.0
124,D5,43.0,1.0,54,144.0
125,F4,43.0,1.0,37,144.0
126,A4,45.0,0.75,48,144.0
127,G#4,45.75,0.25,44,144.0
128,D4,46.0,1.0,44,144.0
129,E4,46.0,1.0,44,144.0
130,E3,46.0,1.0,32,144.0
131,B3,46.0,1.0,32,144.0
132,G#4,47.0,1.0,42,144.0
133,D4,47.0,1.0,42,144.0
134,E3,47.0,1.0,28,144.0
135,B3,47.0,1.0,28,144.0
136,C4,48.0,1.0,39,144.0
137,A4,48.0,2.0,46,144.0
138,A2,48.0,1.0,32,144.0
139,E3,48.0,1.0,32,144.0
140,A1,49.0,1.0,36,144.0
141,E5,50.0,1.0,45,144.0
142,F5,51.0,0.75,46,144.0
143,E5,51.75,0.25,45,144.0
144,D5,52.0,1.0,45,144.0
145,F4,52.0,1.0,24,144.0
146,D4,52.0,1.0,24,144.0
147,A3,52.0,1.0,24,144.0
148,F5,53.0,1.0,48,144.0
149,F4,53.0,1.0,24,144.0
150,D4,53.0,1.0,24,144.0
151,A3,53.0,1.0,24,144.0
152,F5,54.0,2.0,47,144.0
153,F4,55.0,1.0,22,144.0
154,C4,55.0,1.0,22,144.0
155,A3,55.0,1.0,22,144.0
156,E5,56.0,1.0,43,144.0
157,E4,56.0,1.0,22,144.0
158,C4,56.0,1.0,22,144.0
159,A3,56.0,1.0,22,144.0
160,D5,57.0,167/1000,42,144.0
161,E5,57.167,167/1000,43,144.0
162,D5,57.333,167/1000,44,144.0
163,C#5,57.5,0.5,45,144.0
164,D5,58.0,0.5,47,144.0
165,D4,58.0,1.0,25,144.0
166,E3,58.0,1.0,25,144.0
167,G#3,58.0,1.0,25,144.0
168,E-5,58.5,0.5,45,144.0
169,E5,59.0,0.5,53,144.0
170,D4,59.0,1.0,22,144.0
171,G#3,59.0,1.0,22,144.0
172,E3,59.0,1.0,22,144.0
173,B4,59.5,0.5,48,144.0
174,D5,60.0,2.0,58,144.0
175,A2,61.0,1.0,30,144.0
176,C5,62.0,1.0,45,144.0
177,C4,62.0,1.0,25,144.0
178,E3,62.0,1.0,25,144.0
179,A4,63.0,333/1000,62,144.0
180,B4,63.333,333/1000,57,144.0
181,A4,63.667,333/1000,57,144.0
182,G#4,64.0,0.5,63,144.0
183,E3,64.0,0.5,42,144.0
184,C4,64.0,0.5,42,144.0
185,A4,65.0,0.5,67,144.0
186,A2,65.0,0.5,48,144.0
187,B4,66.0,0.5,70,144.0
188,E5,67.0,2.0,72,144.0
189,E3,67.0,1.0,44,144.0
190,B3,67.0,1.0,44,144.0
191,G3,67.0,1.0,44,144.0
192,B2,68.0,1.0,56,144.0
193,B4,69.0,0.5,76,144.0
194,G4,69.5,0.5,73,144.0
195,E4,70.0,0.5,76,144.0
196,B2,70.0,1.0,48,144.0
197,G3,70.0,1.0,48,144.0
198,B3,70.0,1.0,48,144.0
199,B4,70.5,0.5,71,144.0
200,E-4,71.0,1.0,73,144.0
201,B2,71.0,1.0,44,144.0
202,F#3,71.0,1.0,44,144.0
203,B3,71.0,1.0,44,144.0
204,E4,72.0,2.0,76,144.0
205,E3,72.0,1.0,48,144.0
206,G3,72.0,1.0,48,144.0
207,B3,72.0,1.0,48,144.0
208,E2,73.0,1.0,50,144.0
209,E5,74.0,1.0,45,144.0
210,F5,75.0,0.75,46,144.0
211,E5,75.75,0.25,45,144.0
212,D5,76.0,1.0,45,144.0
213,F4,76.0,1.0,24,144.0
214,D4,76.0,1.0,24,144.0
215,A3,76.0,1.0,24,144.0
216,F5,77.0,1.0,48,144.0
217,F4,77.0,1.0,24,144.0
218,D4,77.0,1.0,24,144.0
219,A3,77.0,1.0,24,144.0
220,F5,78.0,2.0,47,144.0
221,F4,79.0,1.0,22,144.0
222,C4,79.0,1.0,22,144.0
223,A3,79.0,1.0,22,144.0
224,E5,80.0,1.0,43,144.0
225,E4,80.0,1.0,22,144.0
226,C4,80.0,1.0,22,144.0
227,A3,80.0,1.0,22,144.0
228,D5,81.0,167/1000,42,144.0
229,E5,81.167,167/1000,43,144.0
230,D5,81.333,167/1000,44,144.0
231,C#5,81.5,0.5,45,144.0
232,D5,82.0,0.5,47,144.0
233,D4,82.0,1.0,25,144.0
234,E3,82.0,1.0,25,144.0
235,G#3,82.0,1.0,25,144.0
236,E-5,82.5,0.5,45,144.0
237,E5,83.0,0.5,47,144.0
238,D4,83.0,1.0,22,144.0
239,G#3,83.0,1.0,22,144.0
240,E3,83.0,1.0,22,144.0
241,B4,83.5,119/500,42,144.0
242,B4,83.75,0.25,42,144.0
243,D5,84.0,2.0,46,144.0
244,F3,85.0,1.0,23,144.0
245,A3,85.0,1.0,23,144.0
246,D4,85.0,1.0,23,144.0
247,C5,86.0,1.0,45,144.0
248,A3,86.0,1.0,23,144.0
249,C4,86.0,1.0,23,144.0
250,F3,86.0,1.0,23,144.0
251,A4,87.0,333/1000,46,144.0
252,B-4,87.333,333/1000,43,144.0
253,A4,87.667,333/1000,43,144.0
254,G4,88.0,1.0,47,144.0
255,C4,88.0,1.0,31,144.0
256,F3,88.0,1.0,31,144.0
257,E-4,88.0,1.0,31,144.0
258,A4,89.0,1.0,54,144.0
259,F3,89.0,1.0,31,144.0
260,C4,89.0,1.0,31,144.0
261,E-4,89.0,1.0,31,144.0
262,B-4,90.0,1.0,62,144.0
263,B-3,90.0,2.0,34,144.0
264,D4,90.0,1.0,37,144.0
265,D5,91.0,1.0,59,144.0
266,F4,91.0,1.0,37,144.0
267,A4,93.0,0.75,48,144.0
268,G#4,93.75,0.25,44,144.0
269,D4,94.0,1.0,44,144.0
270,E4,94.0,1.0,44,144.0
271,E3,94.0,1.0,32,144.0
272,B3,94.0,1.0,32,144.0
273,G#4,95.0,1.0,42,144.0
274,D4,95.0,1.0,42,144.0
275,E3,95.0,1.0,28,144.0
276,B3,95.0,1.0,28,144.0
277,C4,96.0,1.0,39,144.0
278,A4,96.0,2.0,46,144.0
279,A2,96.0,1.0,32,144.0
280,E3,96.0,1.0,32,144.0
281,A1,97.0,1.0,30,144.0
282,B4,98.0,1.0,51,144.0
283,C5,99.0,0.5,52,144.0
284,D5,99.5,0.5,53,144.0
285,E-5,100.0,99/100,55,144.0
286,F#4,100.0,1.0,29,144.0
287,C4,100.0,1.0,29,144.0
288,G#3,100.0,1.0,29,144.0
289,E-5,101.0,0.75,60,144.0
290,F#4,101.0,1.0,29,144.0
291,C4,101.0,1.0,29,144.0
292,G#3,101.0,1.0,29,144.0
293,F5,101.75,0.25,55,144.0
294,E-5,102.0,2.0,62,144.0
295,F#4,103.0,1.0,29,144.0
296,C4,103.0,1.0,29,144.0
297,G3,103.0,1.0,29,144.0
298,D5,104.0,1.0,54,144.0
299,G4,104.0,1.0,29,144.0
300,B3,104.0,1.0,29,144.0
301,G3,104.0,1.0,29,144.0
302,C5,105.0,0.5,52,144.0
303,D5,105.5,0.5,54,144.0
304,E-5,106.0,124/125,57,144.0
305,F#4,106.0,1.0,32,144.0
306,C4,106.0,1.0,32,144.0
307,G#3,106.0,1.0,32,144.0
308,E-5,107.0,0.75,66,144.0
309,F#4,107.0,1.0,33,144.0
310,C4,107.0,1.0,33,144.0
311,G#3,107.0,1.0,33,144.0
312,F5,107.75,0.25,62,144.0
313,E-5,108.0,2.0,76,144.0
314,F4,109.0,1.0,43,144.0
315,B3,109.0,1.0,43,144.0
316,G#3,109.0,1.0,43,144.0
317,D5,110.0,1.0,67,144.0
318,F4,110.0,1.0,43,144.0
319,B-3,110.0,1.0,43,144.0
320,G#3,110.0,1.0,43,144.0
321,B-5,111.0,2.0,86,144.0
322,F4,112.0,1.0,52,144.0
323,B-3,112.0,1.0,52,144.0
324,G3,112.0,1.0,52,144.0
325,C#5,113.0,1.0,66,144.0
326,E4,113.0,1.0,49,144.0
327,B-3,113.0,1.0,49,144.0
328,G3,113.0,1.0,49,144.0
329,A5,114.0,2.0,76,144.0
330,E4,115.0,1.0,46,144.0
331,A3,115.0,1.0,46,144.0
332,G3,115.0,1.0,46,144.0
333,C5,116.0,1.0,62,144.0
334,E-4,116.0,1.0,43,144.0
335,A3,116.0,1.0,43,144.0
336,F#3,116.0,1.0,43,144.0
337,G#5,117.0,2.0,76,144.0
338,E-4,118.0,1.0,38,144.0
339,G#3,118.0,1.0,38,144.0
340,F3,118.0,1.0,38,144.0
341,B4,119.0,1.0,56,144.0
342,D4,119.0,1.0,34,144.0
343,G#3,119.0,1.0,34,144.0
344,F3,119.0,1.0,34,144.0
345,G5,120.0,1.5,67,144.0
346,D4,121.0,1.0,31,144.0
347,G3,121.0,1.0,31,144.0
348,E3,121.0,1.0,31,144.0
349,B-4,121.5,0.5,54,144.0
350,A4,122.0,0.5,45,144.0
351,C#4,122.0,1.0,24,144.0
352,G3,122.0,1.0,24,144.0
353,E3,122.0,1.0,24,144.0
354,E5,122.5,0.5,45,144.0
355,F5,123.0,0.5,46,144.0
356,D3,123.0,1.0,24,144.0
357,F3,123.0,1.0,24,144.0
358,D4,123.0,1.0,24,144.0
359,E5,123.5,0.5,45,144.0
360,D5,124.0,1.0,45,144.0
361,F4,124.0,1.0,24,144.0
362,D4,124.0,1.0,24,144.0
363,A3,124.0,1.0,24,144.0
364,F5,125.0,1.0,48,144.0
365,F4,125.0,1.0,24,144.0
366,D4,125.0,1.0,24,144.0
367,A3,125.0,1.0,24,144.0
368,F5,126.0,2.0,47,144.0
369,F4,127.0,1.0,22,144.0
370,C4,127.0,1.0,22,144.0
371,A3,127.0,1.0,22,144.0
372,E5,128.0,1.0,43,144.0
373,E4,128.0,1.0,22,144.0
374,C4,128.0,1.0,22,144.0
375,A3,128.0,1.0,22,144.0
376,D5,129.0,167/1000,42,144.0
377,E5,129.167,167/1000,43,144.0
378,D5,129.333,167/1000,44,144.0
379,C#5,129.5,0.5,45,144.0
380,D5,130.0,0.5,47,144.0
381,D4,130.0,1.0,25,144.0
382,E3,130.0,1.0,25,144.0
383,G#3,130.0,1.0,25,144.0
384,E-5,130.5,0.5,45,144.0
385,E5,131.0,0.5,49,144.0
386,D4,131.0,1.0,22,144.0
387,G#3,131.0,1.0,22,144.0
388,E3,131.0,1.0,22,144.0
389,B4,131.5,0.5,46,144.0
390,D5,132.0,2.0,55,144.0
391,F3,133.0,1.0,23,144.0
392,A3,133.0,1.0,23,144.0
393,D4,133.0,1.0,23,144.0
394,C5,134.0,1.0,45,144.0
395,A3,134.0,1.0,23,144.0
396,C4,134.0,1.0,23,144.0
397,F3,134.0,1.0,23,144.0
398,A4,135.0,333/1000,46,144.0
399,B-4,135.333,333/1000,43,144.0
400,A4,135.667,333/1000,43,144.0
401,G4,136.0,1.0,47,144.0
402,C4,136.0,1.0,31,144.0
403,F3,136.0,1.0,31,144.0
404,E-4,136.0,1.0,31,144.0
405,A4,137.0,1.0,51,144.0
406,F3,137.0,1.0,31,144.0
407,C4,137.0,1.0,31,144.0
408,E-4,137.0,1.0,31,144.0
409,B-4,138.0,1.0,53,144.0
410,B-3,138.0,2.0,34,144.0
411,D4,138.0,1.0,37,144.0
412,D5,139.0,1.0,54,144.0
413,F4,139.0,1.0,37,144.0
414,A4,141.0,0.75,48,144.0
415,G#4,141.75,0.25,44,144.0
416,D4,142.0,1.0,44,144.0
417,E4,142.0,1.0,44,144.0
418,E3,142.0,1.0,32,144.0
419,B3,142.0,1.0,32,144.0
420,G#4,143.0,1.0,42,144.0
421,D4,143.0,1.0,42,144.0
422,E3,143.0,1.0,28,144.0
423,B3,143.0,1.0,28,144.0
424,C4,144.0,1.0,39,144.0
425,A4,144.0,2.0,46,144.0
426,A2,144.0,1.0,32,144.0
427,E3,144.0,1.0,32,144.0
428,A1,145.0,1.0,30,144.0
429,B4,146.0,1.0,51,144.0
430,C5,147.0,0.5,52,144.0
431,D5,147.5,0.5,53,144.0
432,E-5,148.0,124/125,55,144.0
433,F#4,148.0,1.0,29,144.0
434,C4,148.0,1.0,29,144.0
435,G#3,148.0,1.0,29,144.0
436,E-5,149.0,0.75,60,144.0
437,F#4,149.0,1.0,29,144.0
438,C4,149.0,1.0,29,144.0
439,G#3,149.0,1.0,29,144.0
440,F5,149.75,0.25,55,144.0
441,E-5,150.0,2.0,62,144.0
442,F#4,151.0,1.0,29,144.0
443,C4,151.0,1.0,29,144.0
444,G3,151.0,1.0,29,144.0
445,D5,152.0,1.0,54,144.0
446,G4,152.0,1.0,29,144.0
447,B3,152.0,1.0,29,144.0
448,G3,152.0,1.0,29,144.0
449,C5,153.0,0.5,52,144.0
450,D5,153.5,0.5,54,144.0
451,E-5,154.0,124/125,57,144.0
452,F#4,154.0,1.0,32,144.0
453,C4,154.0,1.0,32,144.0
454,G#3,154.0,1.0,32,144.0
455,E-5,155.0,0.75,66,144.0
456,F#4,155.0,1.0,33,144.0
457,C4,155.0,1.0,33,144.0
458,G#3,155.0,1.0,33,144.0
459,F5,155.75,0.25,62,144.0
460,E-5,156.0,2.0,76,144.0
461,F4,157.0,1.0,43,144.0
462,B3,157.0,1.0,43,144.0
463,G#3,157.0,1.0,43,144.0
464,D5,158.0,1.0,62,144.0
465,F4,158.0,1.0,43,144.0
466,B-3,158.0,1.0,43,144.0
467,G#3,158.0,1.0,43,144.0
468,B-5,159.0,2.0,81,144.0
469,F4,160.0,1.0,52,144.0
470,B-3,160.0,1.0,52,144.0
471,G3,160.0,1.0,52,144.0
472,C#5,161.0,1.0,62,144.0
473,E4,161.0,1.0,49,144.0
474,B-3,161.0,1.0,49,144.0
475,G3,161.0,1.0,49,144.0
476,A5,162.0,2.0,76,144.0
477,E4,163.0,1.0,46,144.0
478,A3,163.0,1.0,46,144.0
479,G3,163.0,1.0,46,144.0
480,C5,164.0,1.0,55,144.0
481,E-4,164.0,1.0,43,144.0
482,A3,164.0,1.0,43,144.0
483,F#3,164.0,1.0,43,144.0
484,G#5,165.0,2.0,71,144.0
485,E-4,166.0,1.0,38,144.0
486,G#3,166.0,1.0,38,144.0
487,F3,166.0,1.0,38,144.0
488,B4,167.0,1.0,42,144.0
489,D4,167.0,1.0,34,144.0
490,G#3,167.0,1.0,34,144.0
491,F3,167.0,1.0,34,144.0
492,G5,168.0,1.5,56,144.0
493,D4,169.0,1.0,31,144.0
494,G3,169.0,1.0,31,144.0
495,E3,169.0,1.0,31,144.0
496,B-4,169.5,0.5,47,144.0
497,A4,170.0,0.5,45,144.0
498,C#4,170.0,1.0,24,144.0
499,G3,170.0,1.0,24,144.0
500,E3,170.0,1.0,24,144.0
501,E5,170.5,0.5,45,144.0
502,F5,171.0,0.5,46,144.0
503,D3,171.0,1.0,24,144.0
504,F3,171.0,1.0,24,144.0
505,D4,171.0,1.0,24,144.0
506,E5,171.5,0.5,45,144.0
507,D5,172.0,1.0,45,144.0
508,F4,172.0,1.0,24,144.0
509,D4,172.0,1.0,24,144.0
510,A3,172.0,1.0,24,144.0
511,F5,173.0,247/250,48,144.0
512,F4,173.0,1.0,24,144.0
513,D4,173.0,1.0,24,144.0
514,A3,173.0,1.0,24,144.0
515,F5,174.0,2.0,47,144.0
516,F4,175.0,1.0,22,144.0
517,C4,175.0,1.0,22,144.0
518,A3,175.0,1.0,22,144.0
519,E5,176.0,1.0,43,144.0
520,E4,176.0,1.0,22,144.0
521,C4,176.0,1.0,22,144.0
522,A3,176.0,1.0,22,144.0
523,D5,177.0,167/1000,42,144.0
524,E5,177.167,167/1000,43,144.0
525,D5,177.333,167/1000,44,144.0
526,C#5,177.5,0.5,45,144.0
527,D5,178.0,0.5,47,144.0
528,D4,178.0,1.0,25,144.0
529,E3,178.0,1.0,25,144.0
530,G#3,178.0,1.0,25,144.0
531,E-5,178.5,0.5,45,144.0
532,E5,179.0,0.5,53,144.0
533,D4,179.0,1.0,22,144.0
534,G#3,179.0,1.0,22,144.0
535,E3,179.0,1.0,22,144.0
536,B4,179.5,0.5,46,144.0
537,D5,180.0,2.0,54,144.0
538,F3,181.0,1.0,23,144.0
539,A3,181.0,1.0,23,144.0
540,D4,181.0,1.0,23,144.0
541,C5,182.0,1.0,45,144.0
542,A3,182.0,1.0,23,144.0
543,C4,182.0,1.0,23,144.0
544,F3,182.0,1.0,23,144.0
545,A4,183.0,333/1000,46,144.0
546,B-4,183.333,333/1000,43,144.0
547,A4,183.667,333/1000,43,144.0
548,G4,184.0,1.0,47,144.0
549,C4,184.0,1.0,31,144.0
550,F3,184.0,1.0,31,144.0
551,E-4,184.0,1.0,31,144.0
552,A4,185.0,1.0,51,144.0
553,F3,185.0,1.0,31,144.0
554,C4,185.0,1.0,31,144.0
555,E-4,185.0,1.0,31,144.0
556,B-4,186.0,1.0,61,144.0
557,B-3,186.0,2.0,34,144.0
558,D4,186.0,1.0,37,144.0
559,D5,187.0,1.0,61,144.0
560,F4,187.0,1.0,37,144.0
561,A4,189.0,0.75,48,144.0
562,G#4,189.75,0.25,44,144.0
563,D4,190.0,1.0,44,144.0
564,E4,190.0,1.0,44,144.0
565,E3,190.0,1.0,32,144.0
566,B3,190.0,1.0,32,144.0
567,G#4,191.0,1.0,42,144.0
568,D4,191.0,1.0,42,144.0
569,E3,191.0,1.0,28,144.0
570,B3,191.0,1.0,28,144.0
571,A4,192.0,2.0,46,144.0
572,C#4,193.0,1.0,28,144.0
573,E4,193.0,1.0,28,144.0
574,A2,193.0,1.0,20,144.0
575,A3,193.0,1.0,20,144.0
576,C#4,194.0,1.0,28,144.0
577,E4,194.0,1.0,28,144.0
578,A2,194.0,1.0,22,144.0
579,A3,194.0,1.0,22,144.0
580,G4,195.0,1.0,45,144.0
581,C#5,195.0,0.5,54,144.0
582,A2,195.0,1.0,22,144.0
583,A3,195.0,1.0,22,144.0
584,C#5,195.75,0.25,49,144.0
585,D3,196.0,1.0,36,144.0
586,F#4,196.0,1.0,50,144.0
587,D5,196.0,1.0,50,144.0
588,D2,197.0,1.0,36,144.0
589,F4,197.0,1.0,48,144.0
590,B4,197.0,1.0,48,144.0
591,D4,198.0,1.0,45,144.0
592,G#4,198.0,0.75,54,144.0
593,E2,198.0,1.0,42,144.0
594,E4,198.75,0.25,51,144.0
595,A2,199.0,1.0,35,144.0
596,C#4,199.0,1.5,50,144.0
597,A4,199.0,1.5,50,144.0
598,E3,200.0,1.0,39,144.0
599,G#4,200.5,0.5,50,144.0
600,B4,200.5,0.5,50,144.0
601,G4,201.0,1.0,45,144.0
602,C#5,201.0,0.75,54,144.0
603,A3,201.0,1.0,44,144.0
604,E5,201.75,0.25,54,144.0
605,D3,202.0,0.75,41,144.0
606,F#4,202.0,0.75,52,144.0
607,D5,202.0,0.75,52,144.0
608,D2,203.0,1.0,36,144.0
609,F4,203.0,1.0,50,144.0
610,B4,203.0,1.0,50,144.0
611,D4,204.0,1.0,45,144.0
612,G#4,204.0,333/1000,54,144.0
613,E2,204.0,1.0,41,144.0
614,F#4,204.333,333/1000,56,144.0
615,E4,204.667,333/1000,57,144.0
616,A2,205.0,1.0,36,144.0
617,C#4,205.0,1.5,57,144.0
618,A4,205.0,1.5,57,144.0
619,E3,206.0,1.0,41,144.0
620,G#4,206.5,0.5,50,144.0
621,B4,206.5,0.5,50,144.0
622,A3,207.0,1.0,44,144.0
623,G4,207.0,0.125,48,144.0
624,C#5,207.0,0.125,48,144.0
625,G4,207.333,0.125,50,144.0
626,C#5,207.333,0.125,50,144.0
627,G4,207.667,0.125,50,144.0
628,C#5,207.667,0.125,50,144.0
629,D3,208.0,0.5,36,144.0
630,F#4,208.0,0.5,54,144.0
631,D5,208.0,0.5,54,144.0
632,D2,209.0,1.0,36,144.0
633,F4,209.0,1.0,48,144.0
634,B4,209.0,1.0,48,144.0
635,E2,210.0,1.0,42,144.0
636,D4,210.0,0.125,50,144.0
637,G#4,210.0,0.125,50,144.0
638,D4,210.333,0.125,47,144.0
639,F#4,210.333,0.125,47,144.0
640,D4,210.667,0.125,47,144.0
641,E4,210.667,0.125,47,144.0
642,A2,211.0,1.0,35,144.0
643,C#4,211.0,1.5,50,144.0
644,A4,211.0,1.5,50,144.0
645,E3,212.0,1.0,39,144.0
646,G#4,212.5,0.5,50,144.0
647,B4,212.5,0.5,50,144.0
648,A3,213.0,1.0,44,144.0
649,G4,213.0,0.125,47,144.0
650,C#5,213.0,0.125,47,144.0
651,G4,213.333,0.125,50,144.0
652,D5,213.333,0.125,50,144.0
653,G4,213.667,0.125,52,144.0
654,E5,213.667,0.125,52,144.0
655,D3,214.0,0.5,41,144.0
656,F#4,214.0,0.5,56,144.0
657,D5,214.0,0.5,56,144.0
658,D2,215.0,1.0,36,144.0
659,F4,215.0,1.0,50,144.0
660,B4,215.0,1.0,50,144.0
661,E2,216.0,1.0,41,144.0
662,D4,216.0,0.125,50,144.0
663,G#4,216.0,0.125,50,144.0
664,D4,216.333,0.125,50,144.0
665,F#4,216.333,0.125,50,144.0
666,D4,216.667,0.125,51,144.0
667,E4,216.667,0.125,51,144.0
668,A2,217.0,1.0,36,144.0
669,C#4,217.0,2.0,56,144.0
670,A4,217.0,2.0,56,144.0
671,A3,218.0,1.0,41,144.0
672,F#3,219.0,3.0,58,144.0
673,C#4,219.0,0.5,70,144.0
674,C#5,219.0,0.5,74,144.0
675,A4,219.0,0.5,74,144.0
676,C#4,219.75,0.25,63,144.0
677,C#5,219.75,0.25,70,144.0
678,A4,219.75,0.25,70,144.0
679,D4,220.0,0.75,69,144.0
680,D5,220.0,0.75,73,144.0
681,B4,220.0,0.75,73,144.0
682,B3,221.0,0.75,63,144.0
683,B4,221.0,0.75,66,144.0
684,G#4,221.0,0.75,66,144.0
685,F#3,222.0,3.0,55,144.0
686,C#4,222.0,333/1000,66,144.0
687,A4,222.0,333/1000,71,144.0
688,C#5,222.0,333/1000,71,144.0
689,B3,222.333,333/1000,57,144.0
690,G#4,222.333,333/1000,66,144.0
691,B4,222.333,333/1000,66,144.0
692,A3,222.667,333/1000,57,144.0
693,A4,222.667,333/1000,66,144.0
694,F#4,222.667,333/1000,66,144.0
695,D4,223.0,0.75,66,144.0
696,B4,223.0,0.75,72,144.0
697,D5,223.0,0.75,72,144.0
698,B3,224.0,0.75,57,144.0
699,G#4,224.0,0.75,67,144.0
700,B4,224.0,0.75,67,144.0
701,F#3,225.0,3.0,58,144.0
702,C#4,225.0,0.5,70,144.0
703,C#5,225.0,0.5,74,144.0
704,A4,225.0,0.5,74,144.0
705,C#4,225.75,0.25,63,144.0
706,C#5,225.75,0.25,70,144.0
707,A4,225.75,0.25,70,144.0
708,D4,226.0,0.75,69,144.0
709,D5,226.0,0.75,73,144.0
710,B4,226.0,0.75,73,144.0
711,B3,227.0,0.75,63,144.0
712,B4,227.0,0.75,66,144.0
713,G#4,227.0,0.75,66,144.0
714,F#3,228.0,1.0,55,144.0
715,C#4,228.0,333/1000,66,144.0
716,A4,228.0,333/1000,71,144.0
717,C#5,228.0,333/1000,71,144.0
718,B3,228.333,333/1000,57,144.0
719,G#4,228.333,333/1000,66,144.0
720,B4,228.333,333/1000,66,144.0
721,A3,228.667,333/1000,57,144.0
722,A4,228.667,333/1000,66,144.0
723,F#4,228.667,333/1000,66,144.0
724,F#5,229.0,1.0,82,144.0
725,F#6,229.0,1.0,82,144.0
726,F#2,229.0,1.0,75,144.0
727,F#3,229.0,1.0,75,144.0
728,F#5,230.0,1.0,76,144.0
729,F#6,230.0,1.0,76,144.0
730,F#2,230.0,1.0,65,144.0
731,F#3,230.0,1.0,65,144.0
732,F#3,231.0,3.0,58,144.0
733,C#4,231.0,0.5,70,144.0
734,C#5,231.0,0.5,74,144.0
735,A4,231.0,0.5,74,144.0
736,C#4,231.75,0.25,63,144.0
737,C#5,231.75,0.25,70,144.0
738,A4,231.75,0.25,70,144.0
739,D4,232.0,0.75,69,144.0
740,D5,232.0,0.75,73,144.0
741,B4,232.0,0.75,73,144.0
742,B3,233.0,0.75,63,144.0
743,B4,233.0,0.75,66,144.0
744,G#4,233.0,0.75,66,144.0
745,F#3,234.0,3.0,55,144.0
746,C#4,234.0,333/1000,66,144.0
747,A4,234.0,333/1000,71,144.0
748,C#5,234.0,333/1000,71,144.0
749,B3,234.333,333/1000,57,144.0
750,G#4,234.333,333/1000,66,144.0
751,B4,234.333,333/1000,66,144.0
752,A3,234.667,333/1000,57,144.0
753,A4,234.667,333/1000,66,144.0
754,F#4,234.667,333/1000,66,144.0
755,D4,235.0,0.75,66,144.0
756,B4,235.0,0.75,72,144.0
757,D5,235.0,0.75,72,144.0
758,B3,236.0,0.75,57,144.0
759,G#4,236.0,0.75,67,144.0
760,B4,236.0,0.75,67,144.0
761,A4,237.0,1.0,57,144.0
762,C#5,237.0,0.5,68,144.0
763,C#4,237.0,0.5,53,144.0
764,F#3,237.0,1.0,55,144.0
765,E-5,237.5,0.5,71,144.0
766,B3,237.5,2.5,57,144.0
767,E3,238.0,2.0,51,144.0
768,G#4,238.0,2.0,68,144.0
769,E5,238.0,2.0,68,144.0
770,A4,240.0,1.0,57,144.0
771,C#5,240.0,0.5,68,144.0
772,C#4,240.0,0.5,53,144.0
773,E3,240.0,1.0,51,144.0
774,E-5,240.5,0.25,71,144.0
775,B3,240.5,2.5,57,144.0
776,F#5,240.75,0.25,69,144.0
777,G#4,241.0,2.0,62,144.0
778,E5,241.0,1.5,74,144.0
779,E3,241.0,2.0,51,144.0
780,D5,242.5,0.5,70,144.0
781,G4,243.0,1.0,50,144.0
782,C#5,243.0,0.5,60,144.0
783,A3,243.0,1.0,49,144.0
784,C#5,243.75,0.25,55,144.0
785,D3,244.0,1.0,40,144.0
786,F#4,244.0,1.0,56,144.0
787,D5,244.0,1.0,56,144.0
788,D2,245.0,1.0,40,144.0
789,F4,245.0,1.0,54,144.0
790,B4,245.0,1.0,54,144.0
791,D4,246.0,1.0,50,144.0
792,G#4,246.0,0.75,60,144.0
793,E2,246.0,1.0,47,144.0
794,E4,246.75,0.25,57,144.0
795,A2,247.0,1.0,39,144.0
796,C#4,247.0,1.5,55,144.0
797,A4,247.0,1.5,55,144.0
798,E3,248.0,1.0,44,144.0
799,G#4,248.5,0.5,55,144.0
800,B4,248.5,0.5,55,144.0
801,G4,249.0,1.0,51,144.0
802,C#5,249.0,0.75,61,144.0
803,A3,249.0,1.0,49,144.0
804,E5,249.75,0.25,60,144.0
805,D3,250.0,1.0,46,144.0
806,F#4,250.0,1.0,58,144.0
807,D5,250.0,1.0,58,144.0
808,D2,251.0,1.0,40,144.0
809,F4,251.0,1.0,55,144.0
810,B4,251.0,1.0,55,144.0
811,D4,252.0,1.0,51,144.0
812,G#4,252.0,333/1000,61,144.0
813,E2,252.0,1.0,46,144.0
814,F#4,252.333,333/1000,63,144.0
815,E4,252.667,333/1000,64,144.0
816,A2,253.0,1.0,40,144.0
817,C#4,253.0,1.5,64,144.0
818,A4,253.0,1.5,64,144.0
819,E3,254.0,1.0,46,144.0
820,G#4,254.5,0.5,55,144.0
821,B4,254.5,0.5,55,144.0
822,A3,255.0,1.0,49,144.0
823,G4,255.0,0.125,54,144.0
824,C#5,255.0,0.125,54,144.0
825,G4,255.333,0.125,55,144.0
826,C#5,255.333,0.125,55,144.0
827,G4,255.667,0.125,57,144.0
828,C#5,255.667,0.125,57,144.0
829,D3,256.0,1.0,40,144.0
830,F#4,256.0,0.5,61,144.0
831,D5,256.0,0.5,61,144.0
832,D2,257.0,1.0,40,144.0
833,F4,257.0,1.0,54,144.0
834,B4,257.0,1.0,54,144.0
835,E2,258.0,1.0,47,144.0
836,D4,258.0,0.125,56,144.0
837,G#4,258.0,0.125,56,144.0
838,D4,258.333,0.125,52,144.0
839,F#4,258.333,0.125,52,144.0
840,D4,258.667,0.125,52,144.0
841,E4,258.667,0.125,52,144.0
842,A2,259.0,1.0,39,144.0
843,C#4,259.0,1.5,55,144.0
844,A4,259.0,1.5,55,144.0
845,E3,260.0,1.0,44,144.0
846,G#4,260.5,0.5,55,144.0
847,B4,260.5,0.5,55,144.0
848,A3,261.0,1.0,49,144.0
849,G4,261.0,0.125,52,144.0
850,C#5,261.0,0.125,52,144.0
851,G4,261.333,0.125,55,144.0
852,D5,261.333,0.125,55,144.0
853,G4,261.667,0.125,58,144.0
854,E5,261.667,0.125,58,144.0
855,D3,262.0,1.0,46,144.0
856,F#4,262.0,0.5,62,144.0
857,D5,262.0,0.5,62,144.0
858,D2,263.0,1.0,40,144.0
859,F4,263.0,1.0,55,144.0
860,B4,263.0,1.0,55,144.0
861,E2,264.0,1.0,46,144.0
862,D4,264.0,0.125,56,144.0
863,G#4,264.0,0.125,56,144.0
864,D4,264.333,0.125,57,144.0
865,F#4,264.333,0.125,57,144.0
866,D4,264.667,0.125,58,144.0
867,E4,264.667,0.125,58,144.0
868,A2,265.0,1.0,40,144.0
869,C#4,265.0,2.0,62,144.0
870,A4,265.0,2.0,62,144.0
871,A3,266.0,1.0,46,144.0
872,F#3,267.0,3.0,58,144.0
873,C#4,267.0,0.5,70,144.0
874,C#5,267.0,0.5,74,144.0
875,A4,267.0,0.5,74,144.0
876,C#4,267.75,0.25,63,144.0
877,C#5,267.75,0.25,70,144.0
878,A4,267.75,0.25,70,144.0
879,D4,268.0,0.75,69,144.0
880,D5,268.0,0.75,73,144.0
881,B4,268.0,0.75,73,144.0
882,B3,269.0,0.75,63,144.0
883,B4,269.0,0.75,66,144.0
884,G#4,269.0,0.75,66,144.0
885,F#3,270.0,3.0,55,144.0
886,C#4,270.0,333/1000,66,144.0
887,A4,270.0,333/1000,71,144.0
888,C#5,270.0,333/1000,71,144.0
889,B3,270.333,333/1000,57,144.0
890,G#4,270.333,333/1000,66,144.0
891,B4,270.333,333/1000,66,144.0
892,A3,270.667,333/1000,57,144.0
893,A4,270.667,333/1000,66,144.0
894,F#4,270.667,333/1000,66,144.0
895,D4,271.0,0.75,66,144.0
896,B4,271.0,0.75,72,144.0
897,D5,271.0,0.75,72,144.0
898,B3,272.0,0.75,57,144.0
899,G#4,272.0,0.75,67,144.0
900,B4,272.0,0.75,67,144.0
901,F#3,273.0,3.0,58,144.0
902,C#4,273.0,0.5,70,144.0
903,C#5,273.0,0.5,74,144.0
904,A4,273.0,0.5,74,144.0
905,C#4,273.75,0.25,63,144.0
906,C#5,273.75,0.25,70,144.0
907,A4,273.75,0.25,70,144.0
908,D4,274.0,0.75,69,144.0
909,D5,274.0,0.75,73,144.0
910,B4,274.0,0.75,73,144.0
911,B3,275.0,0.75,63,144.0
912,B4,275.0,0.75,66,144.0
913,G#4,275.0,0.75,66,144.0
914,F#3,276.0,1.0,55,144.0
915,C#4,276.0,333/1000,66,144.0
916,A4,276.0,333/1000,71,144.0
917,C#5,276.0,333/1000,71,144.0
918,B3,276.333,333/1000,57,144.0
919,G#4,276.333,333/1000,66,144.0
920,B4,276.333,333/1000,66,144.0
921,A3,276.667,333/1000,57,144.0
922,A4,276.667,333/1000,66,144.0
923,F#4,276.667,333/1000,66,144.0
924,F#5,277.0,1.0,82,144.0
925,F#6,277.0,1.0,82,144.0
926,F#2,277.0,1.0,75,144.0
927,F#3,277.0,1.0,75,144.0
928,F#5,278.0,1.0,76,144.0
929,F#6,278.0,1.0,76,144.0
930,F#2,278.0,1.0,65,144.0
931,F#3,278.0,1.0,65,144.0
932,F#3,279.0,3.0,58,144.0
933,C#4,279.0,0.5,70,144.0
934,C#5,279.0,0.5,74,144.0
935,A4,279.0,0.5,74,144.0
936,C#4,279.75,0.25,63,144.0
937,C#5,279.75,0.25,70,144.0
938,A4,279.75,0.25,70,144.0
939,D4,280.0,0.75,69,144.0
940,D5,280.0,0.75,73,144.0
941,B4,280.0,0.75,73,144.0
942,B3,281.0,0.75,63,144.0
943,B4,281.0,0.75,66,144.0
944,G#4,281.0,0.75,66,144.0
945,F#3,282.0,3.0,55,144.0
946,C#4,282.0,333/1000,66,144.0
947,A4,282.0,333/1000,71,144.0
948,C#5,282.0,333/1000,71,144.0
949,B3,282.333,333/1000,57,144.0
950,G#4,282.333,333/1000,66,144.0
951,B4,282.333,333/1000,66,144.0
952,A3,282.667,333/1000,57,144.0
953,A4,282.667,333/1000,66,144.0
954,F#4,282.667,333/1000,66,144.0
955,D4,283.0,0.75,66,144.0
956,B4,283.0,0.75,72,144.0
957,D5,283.0,0.75,72,144.0
958,B3,284.0,0.75,57,144.0
959,G#4,284.0,0.75,67,144.0
960,B4,284.0,0.75,67,144.0
961,A4,285.0,1.0,57,144.0
962,C#5,285.0,0.5,68,144.0
963,C#4,285.0,0.5,53,144.0
964,F#3,285.0,1.0,55,144.0
965,E-5,285.5,0.5,71,144.0
966,B3,285.5,2.5,57,144.0
967,E3,286.0,2.0,51,144.0
968,G#4,286.0,2.0,68,144.0
969,E5,286.0,2.0,68,144.0
970,A4,288.0,1.0,57,144.0
971,C#5,288.0,0.5,68,144.0
972,C#4,288.0,0.5,53,144.0
973,E3,288.0,1.0,51,144.0
974,E-5,288.5,0.25,71,144.0
975,B3,288.5,2.5,57,144.0
976,F#5,288.75,0.25,69,144.0
977,G#4,289.0,2.0,62,144.0
978,E5,289.0,1.5,74,144.0
979,E3,289.0,2.0,51,144.0
980,D5,290.5,0.5,70,144.0
981,G4,291.0,1.0,50,144.0
982,C#5,291.0,0.5,60,144.0
983,A3,291.0,1.0,49,144.0
984,C#5,291.75,0.25,55,144.0
985,D3,292.0,1.0,40,144.0
986,F#4,292.0,1.0,56,144.0
987,D5,292.0,1.0,56,144.0
988,D2,293.0,1.0,40,144.0
989,F4,293.0,1.0,54,144.0
990,B4,293.0,1.0,54,144.0
991,D4,294.0,1.0,50,144.0
992,G#4,294.0,0.75,60,144.0
993,E2,294.0,1.0,47,144.0
994,E4,294.75,0.25,57,144.0
995,A2,295.0,1.0,39,144.0
996,C#4,295.0,1.5,55,144.0
997,A4,295.0,1.5,55,144.0
998,E3,296.0,1.0,44,144.0
999,G#4,296.5,0.5,55,144.0
1000,B4,296.5,0.5,55,144.0
1001,G4,297.0,1.0,51,144.0
1002,C#5,297.0,0.75,61,144.0
1003,A3,297.0,1.0,49,144.0
1004,E5,297.75,0.25,60,144.0
1005,D3,298.0,1.0,46,144.0
1006,F#4,298.0,1.0,58,144.0
1007,D5,298.0,1.0,58,144.0
1008,D2,299.0,1.0,40,144.0
1009,F4,299.0,1.0,55,144.0
1010,B4,299.0,1.0,55,144.0
1011,D4,300.0,1.0,51,144.0
1012,G#4,300.0,333/1000,61,144.0
1013,E2,300.0,1.0,46,144.0
1014,F#4,300.333,333/1000,63,144.0
1015,E4,300.667,333/1000,64,144.0
1016,A2,301.0,1.0,40,144.0
1017,C#4,301.0,1.5,64,144.0
1018,A4,301.0,1.5,64,144.0
1019,E3,302.0,1.0,46,144.0
1020,G#4,302.5,0.5,55,144.0
1021,B4,302.5,0.5,55,144.0
1022,A3,303.0,1.0,49,144.0
1023,G4,303.0,0.125,54,144.0
1024,C#5,303.0,0.125,54,144.0
1025,G4,303.333,0.125,55,144.0
1026,C#5,303.333,0.125,55,144.0
1027,G4,303.667,0.125,57,144.0
1028,C#5,303.667,0.125,57,144.0
1029,D3,304.0,1.0,40,144.0
1030,F#4,304.0,0.5,61,144.0
1031,D5,304.0,0.5,61,144.0
1032,D2,305.0,1.0,40,144.0
1033,F4,305.0,1.0,54,144.0
1034,B4,305.0,1.0,54,144.0
1035,E2,306.0,1.0,47,144.0
1036,D4,306.0,0.125,56,144.0
1037,G#4,306.0,0.125,56,144.0
1038,D4,306.333,0.125,52,144.0
1039,F#4,306.333,0.125,52,144.0
1040,D4,306.667,0.125,52,144.0
1041,E4,306.667,0.125,52,144.0
1042,A2,307.0,1.0,39,144.0
1043,C#4,307.0,1.5,55,144.0
1044,A4,307.0,1.5,55,144.0
1045,E3,308.0,1.0,44,144.0
1046,G#4,308.5,0.5,55,144.0
1047,B4,308.5,0.5,55,144.0
1048,A3,309.0,1.0,49,144.0
1049,G4,309.0,0.125,52,144.0
1050,C#5,309.0,0.125,52,144.0
1051,G4,309.333,0.125,55,144.0
1052,D5,309.333,0.125,55,144.0
1053,G4,309.667,0.125,58,144.0
1054,E5,309.667,0.125,58,144.0
1055,D3,310.0,1.0,46,144.0
1056,F#4,310.0,0.5,62,144.0
1057,D5,310.0,0.5,62,144.0
1058,D2,311.0,1.0,40,144.0
1059,F4,311.0,1.0,55,144.0
1060,B4,311.0,1.0,55,144.0
1061,E2,312.0,1.0,46,144.0
1062,D4,312.0,0.125,56,144.0
1063,G#4,312.0,0.125,56,144.0
1064,D4,312.333,0.125,57,144.0
1065,F#4,312.333,0.125,57,144.0
1066,D4,312.667,0.125,58,144.0
1067,E4,312.667,0.125,58,144.0
1068,C#4,313.0,1.0,62,144.0
1069,A4,313.0,1.0,62,144.0
1070,A1,313.0,1.0,37,144.0
1071,A2,313.0,1.0,37,144.0
1072,E5,314.0,1.0,45,144.0
1073,F5,315.0,0.75,46,144.0
1074,E5,315.75,0.25,45,144.0
1075,D5,316.0,1.0,45,144.0
1076,F4,316.0,1.0,24,144.0
1077,D4,316.0,1.0,24,144.0
1078,A3,316.0,1.0,24,144.0
1079,F5,317.0,99/100,48,144.0
1080,F4,317.0,1.0,24,144.0
1081,D4,317.0,1.0,24,144.0
1082,A3,317.0,1.0,24,144.0
1083,F5,318.0,2.0,47,144.0
1084,F4,319.0,1.0,22,144.0
1085,C4,319.0,1.0,22,144.0
1086,A3,319.0,1.0,22,144.0
1087,E5,320.0,1.0,43,144.0
1088,E4,320.0,1.0,22,144.0
1089,C4,320.0,1.0,22,144.0
1090,A3,320.0,1.0,22,144.0
1091,D5,321.0,167/1000,42,144.0
1092,E5,321.167,167/1000,43,144.0
1093,D5,321.333,167/1000,44,144.0
1094,C#5,321.5,0.5,45,144.0
1095,D5,322.0,0.5,47,144.0
1096,D4,322.0,1.0,25,144.0
1097,E3,322.0,1.0,25,144.0
1098,G#3,322.0,1.0,25,144.0
1099,E-5,322.5,0.5,45,144.0
1100,E5,323.0,0.5,51,144.0
1101,D4,323.0,1.0,22,144.0
1102,G#3,323.0,1.0,22,144.0
1103,E3,323.0,1.0,22,144.0
1104,B4,323.5,0.5,46,144.0
1105,D5,324.0,2.0,54,144.0
1106,A2,325.0,1.0,30,144.0
1107,C5,326.0,1.0,45,144.0
1108,C4,326.0,1.0,25,144.0
1109,E3,326.0,1.0,25,144.0
1110,A4,327.0,333/1000,62,144.0
1111,B4,327.333,333/1000,57,144.0
1112,A4,327.667,333/1000,57,144.0
1113,G#4,328.0,0.5,63,144.0
1114,E3,328.0,0.5,42,144.0
1115,C4,328.0,0.5,42,144.0
1116,A4,329.0,0.5,67,144.0
1117,A2,329.0,0.5,48,144.0
1118,B4,330.0,0.5,70,144.0
1119,E5,331.0,2.0,72,144.0
1120,E3,331.0,1.0,44,144.0
1121,B3,331.0,1.0,44,144.0
1122,G3,331.0,1.0,44,144.0
1123,B2,332.0,1.0,56,144.0
1124,B4,333.0,0.5,76,144.0
1125,G4,333.5,0.5,73,144.0
1126,E4,334.0,0.5,76,144.0
1127,B2,334.0,1.0,48,144.0
1128,G3,334.0,1.0,48,144.0
1129,B3,334.0,1.0,48,144.0
1130,B4,334.5,0.5,71,144.0
1131,E-4,335.0,1.0,73,144.0
1132,B2,335.0,1.0,44,144.0
1133,F#3,335.0,1.0,44,144.0
1134,B3,335.0,1.0,44,144.0
1135,E4,336.0,2.0,76,144.0
1136,E3,336.0,1.0,48,144.0
1137,G3,336.0,1.0,48,144.0
1138,B3,336.0,1.0,48,144.0
1139,E2,337.0,1.0,50,144.0
1140,E5,338.0,1.0,45,144.0
1141,F5,339.0,0.75,46,144.0
1142,E5,339.75,0.25,45,144.0
1143,D5,340.0,1.0,45,144.0
1144,F4,340.0,1.0,24,144.0
1145,D4,340.0,1.0,24,144.0
1146,A3,340.0,1.0,24,144.0
1147,F5,341.0,124/125,48,144.0
1148,F4,341.0,1.0,24,144.0
1149,D4,341.0,1.0,24,144.0
1150,A3,341.0,1.0,24,144.0
1151,F5,342.0,2.0,47,144.0
1152,F4,343.0,1.0,22,144.0
1153,C4,343.0,1.0,22,144.0
1154,A3,343.0,1.0,22,144.0
1155,E5,344.0,1.0,43,144.0
1156,E4,344.0,1.0,22,144.0
1157,C4,344.0,1.0,22,144.0
1158,A3,344.0,1.0,22,144.0
1159,D5,345.0,167/1000,42,144.0
1160,E5,345.167,167/1000,43,144.0
1161,D5,345.333,167/1000,44,144.0
1162,C#5,345.5,0.5,45,144.0
1163,D5,346.0,0.5,47,144.0
1164,D4,346.0,1.0,25,144.0
1165,E3,346.0,1.0,25,144.0
1166,G#3,346.0,1.0,25,144.0
1167,E-5,346.5,0.5,45,144.0
1168,E5,347.0,0.5,47,144.0
1169,D4,347.0,1.0,22,144.0
1170,G#3,347.0,1.0,22,144.0
1171,E3,347.0,1.0,22,144.0
1172,B4,347.5,6/25,42,144.0
1173,B4,347.75,0.25,42,144.0
1174,D5,348.0,2.0,53,144.0
1175,F3,349.0,1.0,23,144.0
1176,A3,349.0,1.0,23,144.0
1177,D4,349.0,1.0,23,144.0
1178,C5,350.0,1.0,45,144.0
1179,A3,350.0,1.0,23,144.0
1180,C4,350.0,1.0,23,144.0
1181,F3,350.0,1.0,23,144.0
1182,A4,351.0,333/1000,41,144.0
1183,B-4,351.333,333/1000,38,144.0
1184,A4,351.667,333/1000,38,144.0
1185,G4,352.0,1.0,42,144.0
1186,C4,352.0,1.0,27,144.0
1187,F3,352.0,1.0,27,144.0
1188,E-4,352.0,1.0,27,144.0
1189,A4,353.0,1.0,45,144.0
1190,F3,353.0,1.0,27,144.0
1191,C4,353.0,1.0,27,144.0
1192,E-4,353.0,1.0,27,144.0
1193,B-4,354.0,1.0,47,144.0
1194,B-3,354.0,2.0,30,144.0
1195,D4,354.0,1.0,33,144.0
1196,D5,355.0,1.0,48,144.0
1197,F4,355.0,1.0,33,144.0
1198,A4,357.0,0.75,40,144.0
1199,G#4,357.75,0.25,37,144.0
1200,D4,358.0,1.0,37,144.0
1201,E4,358.0,1.0,37,144.0
1202,E3,358.0,1.0,26,144.0
1203,B3,358.0,1.0,26,144.0
1204,G#4,359.0,1.0,35,144.0
1205,D4,359.0,1.0,35,144.0
1206,E3,359.0,1.0,24,144.0
1207,B3,359.0,1.0,24,144.0
1208,C4,360.0,1.0,33,144.0
1209,A4,360.0,2.0,39,144.0
1210,A2,360.0,1.0,26,144.0
1211,E3,360.0,1.0,26,144.0
1212,A1,361.0,1.0,25,144.0
