,note_name,start_time,duration,velocity,tempo
0,C#2,0.0,0.25,30,42.5
1,F4,0.25,0.25,26,42.5
2,G#3,0.5,0.25,26,42.5
3,F4,0.75,0.25,26,42.5
4,C#4,1.0,0.25,26,42.5
5,F3,1.25,0.25,26,42.5
6,C#3,1.5,0.25,30,42.5
7,F4,1.75,0.25,26,42.5
8,G#3,2.0,0.25,26,42.5
9,F4,2.25,0.25,25,42.5
10,C#4,2.5,0.25,28,42.5
11,F3,2.75,0.25,25,42.5
12,F5,3.0,1.5,55,42.5
13,C#3,3.0,0.25,30,42.5
14,F4,3.25,0.25,26,42.5
15,G#3,3.5,0.25,26,42.5
16,F4,3.75,0.25,26,42.5
17,C#4,4.0,0.25,26,42.5
18,F3,4.25,0.25,26,42.5
19,E-5,4.5,0.5,55,42.5
20,C#3,4.5,0.25,30,42.5
21,F4,4.75,0.25,26,42.5
22,C#5,5.0,0.75,55,42.5
23,G#3,5.0,0.25,26,42.5
24,F4,5.25,0.25,26,42.5
25,C#4,5.5,0.25,26,42.5
26,F4,5.75,0.25,50,42.5
27,F3,5.75,0.25,26,42.5
28,G#4,6.0,2.0,55,42.5
29,C#3,6.0,0.25,30,42.5
30,F4,6.25,0.25,28,42.5
31,G#3,6.5,0.25,28,42.5
32,F4,6.75,0.25,27,42.5
33,C#4,7.0,0.25,27,42.5
34,F3,7.25,0.25,27,42.5
35,C#3,7.5,0.25,31,42.5
36,F4,7.75,0.25,27,42.5
37,C#5,8.0,0.5,58,42.5
38,G#3,8.0,0.25,27,42.5
39,F4,8.25,0.25,28,42.5
40,F5,8.5,0.5,61,42.5
41,C#4,8.5,0.25,28,42.5
42,F3,8.75,0.25,30,42.5
43,B-5,9.0,1.75,68,42.5
44,C#3,9.0,0.25,34,42.5
45,F4,9.25,0.25,29,42.5
46,G#3,9.5,0.25,28,42.5
47,F4,9.75,0.25,28,42.5
48,C#4,10.0,0.25,28,42.5
49,F3,10.25,0.25,27,42.5
50,C#3,10.5,0.25,30,42.5
51,G#5,10.75,0.25,50,42.5
52,F4,10.75,0.25,26,42.5
53,E5,11.0,0.25,56,42.5
54,G#3,11.0,0.25,26,42.5
55,F5,11.25,0.25,50,42.5
56,F4,11.25,0.25,25,42.5
57,C5,11.5,0.25,55,42.5
58,C#4,11.5,0.25,25,42.5
59,C#5,11.75,0.25,50,42.5
60,F3,11.75,0.25,24,42.5
61,A4,12.0,3.0,63,42.5
62,C#2,12.0,0.25,30,42.5
63,F#4,12.25,0.25,26,42.5
64,A3,12.5,0.25,26,42.5
65,F#4,12.75,0.25,26,42.5
66,E-4,13.0,0.25,26,42.5
67,F#3,13.25,0.25,26,42.5
68,C#3,13.5,0.25,30,42.5
69,F#4,13.75,0.25,26,42.5
70,A3,14.0,0.25,26,42.5
71,F#4,14.25,0.25,25,42.5
72,E-4,14.5,0.25,28,42.5
73,A3,14.75,0.25,25,42.5
74,B-4,15.0,1.5,58,42.5
75,C#3,15.0,0.25,30,42.5
76,F#4,15.25,0.25,26,42.5
77,B-3,15.5,0.25,26,42.5
78,F#4,15.75,0.25,26,42.5
79,E-4,16.0,0.25,26,42.5
80,F#3,16.25,0.25,26,42.5
81,C#3,16.5,0.25,30,42.5
82,C6,16.75,0.25,56,42.5
83,F#4,16.75,0.25,26,42.5
84,B-5,17.0,0.25,58,42.5
85,B-3,17.0,0.25,26,42.5
86,F5,17.25,0.25,52,42.5
87,F#4,17.25,0.25,25,42.5
88,G#5,17.5,0.25,56,42.5
89,E-4,17.5,0.25,28,42.5
90,F#5,17.75,0.25,51,42.5
91,F#3,17.75,0.25,25,42.5
92,F5,18.0,1.0,57,42.5
93,C3,18.0,0.25,30,42.5
94,F#4,18.25,0.25,26,42.5
95,A3,18.5,0.25,25,42.5
96,F#4,18.75,0.25,24,42.5
97,E-5,19.0,0.75,58,42.5
98,E-4,19.0,0.25,23,42.5
99,F#3,19.25,0.25,23,42.5
100,B-2,19.5,0.25,31,42.5
101,F5,19.75,0.062,52,42.5
102,F#4,19.75,0.25,27,42.5
103,E-5,19.812,0.062,52,42.5
104,D5,19.875,0.062,52,42.5
105,E-5,19.938,0.062,52,42.5
106,F5,20.0,0.5,61,42.5
107,B-3,20.0,0.25,28,42.5
108,F#4,20.25,0.25,30,42.5
109,F#5,20.5,0.375,69,42.5
110,E-4,20.5,0.25,31,42.5
111,F#3,20.75,0.25,34,42.5
112,F#5,20.875,0.125,57,42.5
113,F#6,21.0,1.0,79,42.5
114,A2,21.0,0.25,38,42.5
115,F#4,21.25,0.25,28,42.5
116,A3,21.5,0.25,27,42.5
117,F#4,21.75,0.25,25,42.5
118,E-6,21.875,0.125,56,42.5
119,C#6,22.0,0.125,55,42.5
120,C#4,22.0,0.25,24,42.5
121,A5,22.125,0.125,54,42.5
122,F#5,22.25,0.125,52,42.5
123,E-3,22.25,0.25,23,42.5
124,E-5,22.375,0.125,49,42.5
125,C5,22.5,0.125,53,42.5
126,G#2,22.5,0.25,30,42.5
127,C#5,22.75,0.125,54,42.5
128,F#4,22.75,0.25,24,42.5
129,D5,23.0,0.125,55,42.5
130,G#3,23.0,0.25,26,42.5
131,E-5,23.25,0.125,56,42.5
132,F#4,23.25,0.25,28,42.5
133,F5,23.5,0.125,57,42.5
134,C4,23.5,0.25,29,42.5
135,F#5,23.75,0.125,58,42.5
136,E-3,23.75,0.25,30,42.5
137,G5,24.0,1.125,69,42.5
138,C#2,24.0,0.25,38,42.5
139,E4,24.25,0.125,29,42.5
140,G3,24.5,0.25,28,42.5
141,E4,24.75,0.125,28,42.5
142,B-3,25.0,0.25,28,42.5
143,G#5,25.125,0.125,54,42.5
144,B-5,25.25,0.125,59,42.5
145,F3,25.25,0.25,27,42.5
146,G#5,25.375,0.125,50,42.5
147,F5,25.5,1.5,56,42.5
148,C#2,25.5,0.25,28,42.5
149,F4,25.75,0.25,23,42.5
150,G#3,26.0,0.25,23,42.5
151,F4,26.25,0.25,23,42.5
152,C#4,26.5,0.25,24,42.5
153,F3,26.75,0.25,25,42.5
154,C#5,27.0,0.5,53,42.5
155,F5,27.0,0.5,56,42.5
156,B-2,27.0,0.25,38,42.5
157,F4,27.25,0.25,28,42.5
158,B-3,27.5,0.25,28,42.5
159,E-5,27.5,0.75,60,42.5
160,F#5,27.5,0.75,60,42.5
161,F4,27.75,0.25,27,42.5
162,C#4,28.0,0.25,26,42.5
163,F3,28.25,0.25,26,42.5
164,B-4,28.25,0.25,56,42.5
165,C#5,28.25,0.25,56,42.5
166,B-2,28.5,0.25,33,42.5
167,C5,28.5,0.5,60,42.5
168,E-5,28.5,0.5,60,42.5
169,F4,28.75,0.25,28,42.5
170,A3,29.0,0.25,28,42.5
171,C#5,29.0,0.5,58,42.5
172,F5,29.0,0.5,58,42.5
173,F4,29.25,0.25,28,42.5
174,E-4,29.5,0.25,28,42.5
175,A4,29.5,0.5,56,42.5
176,C5,29.5,0.5,56,42.5
177,F3,29.75,0.25,27,42.5
178,B-2,30.0,0.25,38,42.5
179,C5,30.0,0.5,60,42.5
180,E-5,30.0,0.5,60,42.5
181,F4,30.25,0.25,28,42.5
182,B-3,30.5,0.25,28,42.5
183,B-4,30.5,0.25,54,42.5
184,C#5,30.5,0.25,54,42.5
185,F4,30.75,0.25,27,42.5
186,B-5,30.875,0.125,59,42.5
187,C#5,30.875,0.125,59,42.5
188,C#4,31.0,0.25,26,42.5
189,C#5,31.0,167/1000,61,42.5
190,B-5,31.0,167/1000,61,42.5
191,C5,31.167,167/1000,60,42.5
192,G#5,31.167,167/1000,60,42.5
193,F3,31.25,0.25,26,42.5
194,B-4,31.333,167/1000,59,42.5
195,F#5,31.333,167/1000,59,42.5
196,B-4,31.5,0.5,53,42.5
197,F5,31.5,1.0,63,42.5
198,F2,31.5,0.25,33,42.5
199,F4,31.75,0.25,28,42.5
200,A4,32.0,167/1000,52,42.5
201,C4,32.0,0.25,28,42.5
202,B-4,32.167,167/1000,54,42.5
203,F4,32.25,0.25,26,42.5
204,B4,32.333,167/1000,56,42.5
205,E-4,32.5,0.25,28,42.5
206,F5,32.5,83/1000,54,42.5
207,C5,32.5,83/1000,54,42.5
208,F5,32.667,83/1000,56,42.5
209,C#5,32.667,83/1000,56,42.5
210,A3,32.75,0.25,30,42.5
211,F5,32.833,83/1000,57,42.5
212,E-5,32.833,83/1000,57,42.5
213,B-2,33.0,0.25,38,42.5
214,C#5,33.0,0.5,58,42.5
215,F5,33.0,0.5,58,42.5
216,F4,33.25,0.25,28,42.5
217,B-3,33.5,0.25,28,42.5
218,E-5,33.5,0.75,60,42.5
219,F#5,33.5,0.75,60,42.5
220,F4,33.75,0.25,27,42.5
221,C#4,34.0,0.25,26,42.5
222,F3,34.25,0.25,26,42.5
223,B-4,34.25,0.25,56,42.5
224,C#5,34.25,0.25,56,42.5
225,B-2,34.5,0.25,33,42.5
226,B-4,34.5,0.094,54,42.5
227,C#5,34.5,0.094,54,42.5
228,C#5,34.594,0.281,60,42.5
229,F5,34.594,0.281,60,42.5
230,F4,34.75,0.25,28,42.5
231,C5,34.875,73/250,58,42.5
232,E-5,34.875,0.062,58,42.5
233,F5,34.938,0.062,53,42.5
234,E-5,35.0,167/1000,62,42.5
235,A3,35.0,0.25,28,42.5
236,B-4,35.167,167/1000,51,42.5
237,C#5,35.167,167/1000,51,42.5
238,F4,35.25,0.25,28,42.5
239,C5,35.333,167/1000,51,42.5
240,E-5,35.333,167/1000,51,42.5
241,E-4,35.5,0.25,28,42.5
242,C#5,35.5,0.125,56,42.5
243,F5,35.5,0.125,56,42.5
244,F3,35.75,0.25,27,42.5
245,A4,35.875,0.125,56,42.5
246,C5,35.875,0.125,56,42.5
247,B-2,36.0,0.25,38,42.5
248,C5,36.0,0.5,60,42.5
249,E-5,36.0,0.5,60,42.5
250,F4,36.25,0.25,28,42.5
251,B-3,36.5,0.25,28,42.5
252,B-4,36.5,0.25,54,42.5
253,C#5,36.5,0.25,54,42.5
254,F4,36.75,0.25,27,42.5
255,C#5,37.0,0.5,47,42.5
256,B-5,37.0,0.75,66,42.5
257,C#4,37.0,0.25,26,42.5
258,F3,37.25,0.25,26,42.5
259,D5,37.5,0.25,66,42.5
260,B-2,37.5,0.25,34,42.5
261,G#4,37.75,0.25,28,42.5
262,G#5,37.75,0.25,58,42.5
263,B5,37.75,0.25,58,42.5
264,B-3,38.0,0.25,26,42.5
265,C#5,38.0,167/1000,58,42.5
266,B-5,38.0,167/1000,58,42.5
267,G#5,38.167,167/1000,56,42.5
268,A5,38.167,167/1000,56,42.5
269,G#4,38.25,0.25,28,42.5
270,C#5,38.333,167/1000,62,42.5
271,B-5,38.333,167/1000,62,42.5
272,D4,38.5,0.25,30,42.5
273,F6,38.5,0.125,64,42.5
274,G#5,38.5,0.125,64,42.5
275,F3,38.75,0.25,32,42.5
276,G#5,38.875,0.125,62,42.5
277,B-5,38.875,0.125,62,42.5
278,E-2,39.0,0.25,38,42.5
279,B-5,39.0,0.5,62,42.5
280,F#5,39.0,0.5,62,42.5
281,F#4,39.25,0.25,31,42.5
282,B-3,39.5,0.25,29,42.5
283,G#5,39.5,0.5,61,42.5
284,B5,39.5,0.5,61,42.5
285,F#4,39.75,0.25,29,42.5
286,E-4,40.0,0.25,29,42.5
287,E-5,40.0,0.5,59,42.5
288,F#5,40.0,0.5,59,42.5
289,F#3,40.25,0.25,29,42.5
290,E-3,40.5,0.25,39,42.5
291,F#5,40.5,167/1000,59,42.5
292,B-5,40.5,167/1000,59,42.5
293,F5,40.667,167/1000,56,42.5
294,G#5,40.667,167/1000,56,42.5
295,G#4,40.75,0.25,30,42.5
296,F#5,40.833,167/1000,56,42.5
297,B-5,40.833,167/1000,56,42.5
298,B-3,41.0,0.25,30,42.5
299,F5,41.0,167/1000,60,42.5
300,G#5,41.0,167/1000,60,42.5
301,E-5,41.167,167/1000,56,42.5
302,F#5,41.167,167/1000,56,42.5
303,G#4,41.25,0.25,30,42.5
304,F5,41.333,167/1000,56,42.5
305,G#5,41.333,167/1000,56,42.5
306,D4,41.5,0.25,30,42.5
307,F#5,41.5,0.125,60,42.5
308,B-5,41.5,0.125,60,42.5
309,F3,41.75,0.25,30,42.5
310,F5,41.875,0.125,56,42.5
311,D5,41.875,0.125,56,42.5
312,E-3,42.0,0.25,39,42.5
313,F5,42.0,0.5,61,42.5
314,G#5,42.0,0.5,61,42.5
315,F#4,42.25,0.25,31,42.5
316,B-3,42.5,0.25,31,42.5
317,E-5,42.5,0.25,56,42.5
318,F#5,42.5,0.25,56,42.5
319,F#4,42.75,0.25,31,42.5
320,E-6,42.875,0.125,58,42.5
321,F#5,42.875,0.125,58,42.5
322,E-4,43.0,0.25,29,42.5
323,F#5,43.0,167/1000,62,42.5
324,E-6,43.0,167/1000,62,42.5
325,F5,43.167,167/1000,62,42.5
326,C#6,43.167,167/1000,62,42.5
327,F#3,43.25,0.25,29,42.5
328,E-5,43.333,167/1000,60,42.5
329,B5,43.333,167/1000,60,42.5
330,B-2,43.5,0.25,40,42.5
331,D5,43.5,167/1000,54,42.5
332,B-5,43.5,167/1000,54,42.5
333,B-4,43.667,83/1000,54,42.5
334,B-5,43.667,83/1000,54,42.5
335,G#4,43.75,0.25,30,42.5
336,B4,43.833,83/1000,54,42.5
337,B-5,43.833,83/1000,54,42.5
338,B-3,44.0,0.25,32,42.5
339,C5,44.0,83/1000,56,42.5
340,B-5,44.0,83/1000,56,42.5
341,C#5,44.167,83/1000,56,42.5
342,B-5,44.167,83/1000,56,42.5
343,G#4,44.25,0.25,34,42.5
344,D5,44.333,83/1000,58,42.5
345,B-5,44.333,83/1000,58,42.5
346,D4,44.5,0.25,35,42.5
347,B-5,44.5,83/1000,59,42.5
348,E-5,44.5,83/1000,59,42.5
349,B-5,44.667,83/1000,60,42.5
350,E5,44.667,83/1000,60,42.5
351,F3,44.75,0.25,37,42.5
352,B-5,44.833,83/1000,61,42.5
353,F5,44.833,83/1000,61,42.5
354,E-2,45.0,0.25,38,42.5
355,F#5,45.0,1/5,50,42.5
356,B-5,45.0,1/5,50,42.5
357,G#5,45.2,1/5,52,42.5
358,B5,45.2,1/5,52,42.5
359,F#4,45.25,0.25,28,42.5
360,B-5,45.4,1/5,55,42.5
361,F#5,45.4,1/5,55,42.5
362,B-3,45.5,0.25,28,42.5
363,F5,45.6,1/5,58,42.5
364,G#5,45.6,1/5,58,42.5
365,F#4,45.75,0.25,27,42.5
366,F#5,45.8,1/5,60,42.5
367,B-5,45.8,1/5,60,42.5
368,E-4,46.0,0.25,26,42.5
369,G#5,46.0,0.125,64,42.5
370,B5,46.0,0.125,64,42.5
371,F#3,46.25,0.25,26,42.5
372,F#5,46.375,13/125,61,42.5
373,E-5,46.375,13/125,61,42.5
374,E-3,46.5,0.25,33,42.5
375,E-5,46.5,0.125,58,42.5
376,F#5,46.5,0.125,58,42.5
377,F#5,46.625,0.125,64,42.5
378,B-5,46.625,0.125,64,42.5
379,G#4,46.75,0.25,28,42.5
380,G#5,46.875,0.125,59,42.5
381,F5,46.875,0.125,59,42.5
382,B-3,47.0,0.25,28,42.5
383,F5,47.0,21/500,58,42.5
384,G#5,47.0,21/500,58,42.5
385,B-5,47.0,21/500,58,42.5
386,F#5,47.0,21/500,58,42.5
387,G#5,47.083,83/1000,61,42.5
388,F5,47.083,83/1000,61,42.5
389,E-5,47.167,167/1000,58,42.5
390,F#5,47.167,167/1000,58,42.5
391,G#4,47.25,0.25,28,42.5
392,F5,47.417,0.062,59,42.5
393,G#5,47.417,0.062,59,42.5
394,D4,47.5,0.25,28,42.5
395,F5,47.5,167/1000,60,42.5
396,G#5,47.5,167/1000,60,42.5
397,F#5,47.667,83/1000,62,42.5
398,B-5,47.667,83/1000,62,42.5
399,F3,47.75,0.25,27,42.5
400,D5,47.917,0.062,60,42.5
401,F5,47.917,0.062,60,42.5
402,E-3,48.0,0.25,44,42.5
403,D5,48.0,0.125,59,42.5
404,F5,48.0,0.125,59,42.5
405,F5,48.125,0.25,58,42.5
406,G#5,48.125,0.25,58,42.5
407,F#4,48.25,0.25,34,42.5
408,B-3,48.5,0.25,34,42.5
409,F#4,48.75,0.25,34,42.5
410,E-4,49.0,0.25,34,42.5
411,E-5,49.0,1.0,67,42.5
412,F#5,49.0,1.0,67,42.5
413,F#3,49.25,0.25,34,42.5
414,A2,49.5,1.5,64,42.5
415,C#4,49.75,0.25,40,42.5
416,E-3,50.0,0.25,42,42.5
417,D5,50.0,0.25,67,42.5
418,F#5,50.0,0.25,67,42.5
419,C#4,50.25,0.25,44,42.5
420,F#3,50.5,0.25,46,42.5
421,F#5,50.5,0.25,70,42.5
422,C#5,50.5,0.25,70,42.5
423,A2,50.75,0.25,48,42.5
424,G#2,51.0,0.25,54,42.5
425,C5,51.0,0.75,71,42.5
426,F#5,51.0,0.75,71,42.5
427,C4,51.25,0.25,47,42.5
428,E-3,51.5,0.25,47,42.5
429,C4,51.75,0.25,47,42.5
430,A4,51.75,0.25,68,42.5
431,A5,51.75,0.25,68,42.5
432,F#3,52.0,0.25,46,42.5
433,G#4,52.0,1.0,70,42.5
434,G#5,52.0,1.0,70,42.5
435,E-3,52.25,0.25,46,42.5
436,A2,52.5,1.5,67,42.5
437,A3,52.75,0.25,51,42.5
438,E-3,53.0,0.25,51,42.5
439,F#4,53.0,0.5,66,42.5
440,F#5,53.0,0.5,66,42.5
441,A3,53.25,0.25,51,42.5
442,F#3,53.5,0.25,51,42.5
443,C#4,53.5,0.5,64,42.5
444,C#5,53.5,0.5,64,42.5
445,E-3,53.75,0.25,51,42.5
446,G#2,54.0,0.25,44,42.5
447,C4,54.0,1.0,61,42.5
448,C5,54.0,1.0,61,42.5
449,G#3,54.25,0.25,32,42.5
450,E-3,54.5,0.25,30,42.5
451,G#3,54.75,0.25,28,42.5
452,G#4,55.0,0.5,52,42.5
453,F#3,55.0,0.25,27,42.5
454,E-3,55.25,0.25,25,42.5
455,A4,55.5,167/1000,57,42.5
456,C#3,55.5,0.25,31,42.5
457,B4,55.667,167/1000,50,42.5
458,E4,55.75,0.25,27,42.5
459,A4,55.833,167/1000,52,42.5
460,G#4,56.0,0.25,51,42.5
461,F#3,56.0,0.25,27,42.5
462,A4,56.25,0.25,51,42.5
463,E4,56.25,0.25,27,42.5
464,E5,56.5,0.375,57,42.5
465,A3,56.5,0.25,27,42.5
466,C#3,56.75,0.25,28,42.5
467,E-5,56.875,0.125,53,42.5
468,E-5,57.0,0.5,57,42.5
469,C3,57.0,0.25,44,42.5
470,E-4,57.25,0.25,30,42.5
471,F#3,57.5,0.25,32,42.5
472,E-4,57.75,0.25,39,42.5
473,A4,57.75,0.25,67,42.5
474,A5,57.75,0.25,67,42.5
475,G#3,58.0,0.25,42,42.5
476,G#4,58.0,1.0,64,42.5
477,G#5,58.0,1.0,64,42.5
478,F#3,58.25,0.25,43,42.5
479,A2,58.5,0.25,49,42.5
480,C#4,58.75,0.25,40,42.5
481,E-3,59.0,0.25,38,42.5
482,G#4,59.0,0.125,60,42.5
483,G#5,59.0,0.125,60,42.5
484,F#4,59.125,0.125,59,42.5
485,F#5,59.125,0.125,59,42.5
486,C#4,59.25,0.25,35,42.5
487,G#4,59.25,0.125,58,42.5
488,G#5,59.25,0.125,58,42.5
489,F#4,59.375,0.125,58,42.5
490,F#5,59.375,0.125,58,42.5
491,F#3,59.5,0.25,35,42.5
492,E4,59.5,0.125,58,42.5
493,E5,59.5,0.125,58,42.5
494,E-4,59.625,0.125,56,42.5
495,E-5,59.625,0.125,56,42.5
496,E-3,59.75,0.25,33,42.5
497,E4,59.75,0.125,56,42.5
498,E5,59.75,0.125,56,42.5
499,E-4,59.875,0.125,54,42.5
500,E-5,59.875,0.125,54,42.5
501,G#2,60.0,0.25,44,42.5
502,C4,60.0,0.25,61,42.5
503,C5,60.0,0.25,61,42.5
504,G#3,60.25,0.25,32,42.5
505,E-3,60.5,0.25,30,42.5
506,G#3,60.75,0.25,28,42.5
507,F#3,61.0,0.25,23,42.5
508,G#4,61.25,0.25,46,42.5
509,G#2,61.25,0.25,22,42.5
510,A4,61.5,167/1000,51,42.5
511,C#3,61.5,0.25,28,42.5
512,B4,61.667,167/1000,45,42.5
513,E4,61.75,0.25,23,42.5
514,A4,61.833,167/1000,46,42.5
515,G#4,62.0,0.25,45,42.5
516,F#3,62.0,0.25,23,42.5
517,A4,62.25,0.125,45,42.5
518,E4,62.25,0.25,23,42.5
519,A4,62.375,0.125,46,42.5
520,E5,62.5,0.25,52,42.5
521,A3,62.5,0.25,23,42.5
522,C#3,62.75,0.25,24,42.5
523,E-5,62.875,0.125,49,42.5
524,E-5,63.0,0.5,54,42.5
525,C3,63.0,0.25,31,42.5
526,E-4,63.25,0.25,24,42.5
527,F#3,63.5,0.25,24,42.5
528,E-4,63.75,0.25,24,42.5
529,A3,64.0,0.25,24,42.5
530,F#3,64.25,0.25,24,42.5
531,E-5,64.5,1.5,51,42.5
532,B2,64.5,0.25,28,42.5
533,E-4,64.75,0.25,24,42.5
534,F#3,65.0,0.25,24,42.5
535,E-4,65.25,0.25,24,42.5
536,A3,65.5,0.25,24,42.5
537,F#3,65.75,0.25,24,42.5
538,E-5,66.0,1.5,51,42.5
539,B2,66.0,0.25,31,42.5
540,E-4,66.25,0.25,24,42.5
541,F3,66.5,0.25,24,42.5
542,E-4,66.75,0.25,24,42.5
543,G#3,67.0,0.25,24,42.5
544,F3,67.25,0.5,24,42.5
545,D5,67.5,1.5,51,42.5
546,B2,67.5,0.25,28,42.5
547,D4,67.75,0.25,24,42.5
548,E3,68.0,0.5,24,42.5
549,D4,68.25,0.25,24,42.5
550,G#3,68.5,0.25,24,42.5
551,E3,68.75,0.25,24,42.5
552,C#5,69.0,1.0,54,42.5
553,A2,69.0,0.25,31,42.5
554,C#4,69.25,0.25,24,42.5
555,E3,69.5,0.25,24,42.5
556,C#4,69.75,0.25,24,42.5
557,A3,70.0,0.25,24,42.5
558,E3,70.25,0.25,24,42.5
559,C#5,70.5,1.5,51,42.5
560,A2,70.5,0.25,28,42.5
561,C#4,70.75,0.25,24,42.5
562,E-3,71.0,0.25,24,42.5
563,C#4,71.25,0.25,24,42.5
564,F#3,71.5,0.25,24,42.5
565,E-3,71.75,0.25,24,42.5
566,C#5,72.0,0.5,51,42.5
567,G#2,72.0,0.25,31,42.5
568,C4,72.25,0.25,24,42.5
569,C5,72.5,0.5,49,42.5
570,E-3,72.5,0.25,24,42.5
571,C4,72.75,0.25,24,42.5
572,B-4,73.0,0.75,48,42.5
573,F#3,73.0,0.25,24,42.5
574,C#3,73.25,0.25,24,42.5
575,G#2,73.5,0.25,28,42.5
576,G#4,73.75,0.25,42,42.5
577,G#3,73.75,0.25,24,42.5
578,B-4,74.0,0.25,44,42.5
579,C3,74.0,0.25,24,42.5
580,C5,74.25,0.25,45,42.5
581,G#3,74.25,0.25,24,42.5
582,C#5,74.5,0.25,47,42.5
583,F#3,74.5,0.25,24,42.5
584,E-5,74.75,0.25,48,42.5
585,E-3,74.75,0.25,24,42.5
586,F5,75.0,1.5,49,42.5
587,C#2,75.0,0.25,27,42.5
588,F4,75.25,0.25,22,42.5
589,G#3,75.5,0.25,22,42.5
590,F4,75.75,0.25,22,42.5
591,C#4,76.0,0.25,22,42.5
592,F3,76.25,0.25,22,42.5
593,E-5,76.5,0.5,49,42.5
594,C#3,76.5,0.25,27,42.5
595,F4,76.75,0.25,22,42.5
596,C#5,77.0,0.75,49,42.5
597,G#3,77.0,0.25,22,42.5
598,F4,77.25,0.25,22,42.5
599,C#4,77.5,0.25,22,42.5
600,F4,77.75,0.25,45,42.5
601,F3,77.75,0.25,22,42.5
602,G#4,78.0,2.0,49,42.5
603,C#3,78.0,0.25,27,42.5
604,F4,78.25,0.25,24,42.5
605,G#3,78.5,0.25,24,42.5
606,F4,78.75,0.25,23,42.5
607,C#4,79.0,0.25,23,42.5
608,F3,79.25,0.25,23,42.5
609,C#3,79.5,0.25,28,42.5
610,F4,79.75,0.25,23,42.5
611,C#5,80.0,0.5,52,42.5
612,G#3,80.0,0.25,23,42.5
613,F4,80.25,0.25,24,42.5
614,F5,80.5,0.5,54,42.5
615,C#4,80.5,0.25,25,42.5
616,F3,80.75,0.25,27,42.5
617,B-5,81.0,1.75,61,42.5
618,C#3,81.0,0.25,30,42.5
619,F4,81.25,0.25,26,42.5
620,G#3,81.5,0.25,25,42.5
621,F4,81.75,0.25,24,42.5
622,C#4,82.0,0.25,24,42.5
623,F3,82.25,0.25,23,42.5
624,C#3,82.5,0.25,27,42.5
625,G#5,82.75,0.25,45,42.5
626,F4,82.75,0.25,22,42.5
627,E5,83.0,0.25,50,42.5
628,G#3,83.0,0.25,22,42.5
629,F5,83.25,0.25,45,42.5
630,F4,83.25,0.25,22,42.5
631,C5,83.5,0.25,49,42.5
632,C#4,83.5,0.25,22,42.5
633,C#5,83.75,0.25,45,42.5
634,F3,83.75,0.25,22,42.5
635,A4,84.0,3.0,56,42.5
636,C#2,84.0,0.5,28,42.5
637,F#4,84.25,0.25,22,42.5
638,A3,84.5,0.25,22,42.5
639,F#4,84.75,0.25,22,42.5
640,C#4,85.0,0.25,22,42.5
641,F#3,85.25,0.25,22,42.5
642,C#3,85.5,0.25,27,42.5
643,F#4,85.75,0.25,22,42.5
644,A3,86.0,0.25,22,42.5
645,F#4,86.25,0.25,22,42.5
646,D4,86.5,0.25,26,42.5
647,F#3,86.75,0.25,22,42.5
648,B-4,87.0,1.5,52,42.5
649,C#3,87.0,0.5,28,42.5
650,F#4,87.25,0.25,22,42.5
651,B-3,87.5,0.25,22,42.5
652,F#4,87.75,0.25,22,42.5
653,E-4,88.0,0.25,22,42.5
654,F#3,88.25,0.25,22,42.5
655,C#3,88.5,0.25,27,42.5
656,C6,88.75,0.25,50,42.5
657,F#4,88.75,0.25,22,42.5
658,B-5,89.0,0.25,52,42.5
659,B-3,89.0,0.25,22,42.5
660,F5,89.25,0.25,46,42.5
661,F#4,89.25,0.25,22,42.5
662,G#5,89.5,0.25,50,42.5
663,E-4,89.5,0.25,24,42.5
664,F#5,89.75,0.25,45,42.5
665,F#3,89.75,0.25,22,42.5
666,F5,90.0,1.0,51,42.5
667,C3,90.0,0.25,27,42.5
668,F#4,90.25,0.25,22,42.5
669,A3,90.5,0.25,22,42.5
670,F#4,90.75,0.25,22,42.5
671,E-5,91.0,0.875,52,42.5
672,E-4,91.0,0.25,21,42.5
673,F#3,91.25,0.25,21,42.5
674,B-2,91.5,0.25,28,42.5
675,D5,91.75,0.25,57,42.5
676,F#4,91.75,0.25,23,42.5
677,E-5,92.0,0.25,57,42.5
678,B-3,92.0,0.25,25,42.5
679,E5,92.25,0.25,57,42.5
680,F#4,92.25,0.25,27,42.5
681,F5,92.5,0.375,62,42.5
682,E-4,92.5,0.25,28,42.5
683,F#3,92.75,0.25,30,42.5
684,F#5,92.875,0.062,51,42.5
685,F#5,92.938,0.062,51,42.5
686,F#6,93.0,667/1000,71,42.5
687,A2,93.0,0.25,34,42.5
688,F#4,93.25,0.25,24,42.5
689,A3,93.5,0.25,23,42.5
690,E-6,93.667,167/1000,65,42.5
691,F#4,93.75,0.25,22,42.5
692,C#6,93.833,167/1000,62,42.5
693,A5,94.0,167/1000,60,42.5
694,C#4,94.0,0.25,22,42.5
695,F#5,94.167,167/1000,58,42.5
696,E-3,94.25,0.25,21,42.5
697,E-5,94.333,167/1000,55,42.5
698,C5,94.5,0.25,47,42.5
699,G#2,94.5,0.25,27,42.5
700,F#4,94.75,0.25,22,42.5
701,G#4,94.875,0.125,49,42.5
702,E-5,95.0,83/1000,50,42.5
703,G#3,95.0,0.25,22,42.5
704,C6,95.083,83/1000,50,42.5
705,A4,95.167,83/1000,48,42.5
706,E5,95.25,83/1000,52,42.5
707,F#4,95.25,0.25,24,42.5
708,C#6,95.333,83/1000,53,42.5
709,B-4,95.417,83/1000,50,42.5
710,F5,95.5,83/1000,54,42.5
711,C4,95.5,0.25,26,42.5
712,D6,95.583,83/1000,55,42.5
713,B4,95.667,83/1000,53,42.5
714,F#5,95.75,83/1000,56,42.5
715,E-3,95.75,0.25,27,42.5
716,E-6,95.833,83/1000,57,42.5
717,C5,95.917,83/1000,54,42.5
718,C#2,96.0,0.25,28,42.5
719,E6,96.0,0.75,59,42.5
720,G5,96.0,0.75,59,42.5
721,G#4,96.25,0.25,24,42.5
722,G#3,96.5,0.25,24,42.5
723,G#4,96.75,0.25,24,42.5
724,F6,96.75,0.25,54,42.5
725,G#5,96.75,0.25,54,42.5
726,C#4,97.0,0.25,24,42.5
727,F6,97.0,167/1000,52,42.5
728,G#5,97.0,167/1000,52,42.5
729,F#6,97.167,83/1000,56,42.5
730,B-5,97.167,83/1000,56,42.5
731,F3,97.25,0.25,24,42.5
732,G#5,97.417,83/1000,50,42.5
733,F6,97.417,83/1000,50,42.5
734,C#3,97.5,0.25,28,42.5
735,F6,97.5,0.125,54,42.5
736,G#5,97.5,0.125,54,42.5
737,C#6,97.625,1.375,50,42.5
738,F5,97.625,1.375,50,42.5
739,F4,97.75,0.25,24,42.5
740,G#3,98.0,0.25,24,42.5
741,F4,98.25,0.25,25,42.5
742,C#4,98.5,0.25,25,42.5
743,G#3,98.75,0.25,25,42.5
744,C#3,99.0,0.25,29,42.5
745,C#6,99.0,0.5,56,42.5
746,E5,99.0,0.5,56,42.5
747,E4,99.25,0.25,27,42.5
748,E3,99.5,0.25,26,42.5
749,D6,99.5,0.5,52,42.5
750,F#5,99.5,0.5,52,42.5
751,E4,99.75,0.25,26,42.5
752,A3,100.0,0.25,26,42.5
753,A5,100.0,0.5,50,42.5
754,C#5,100.0,0.5,50,42.5
755,E3,100.25,0.25,26,42.5
756,D3,100.5,0.25,23,42.5
757,C#6,100.5,0.25,61,42.5
758,E5,100.5,0.25,61,42.5
759,E4,100.75,0.25,24,42.5
760,D5,100.75,0.062,47,42.5
761,B5,100.75,0.062,47,42.5
762,E5,100.812,0.062,51,42.5
763,C#6,100.812,0.062,51,42.5
764,D5,100.875,0.125,50,42.5
765,B5,100.875,0.125,50,42.5
766,E3,101.0,0.25,25,42.5
767,B-5,101.0,0.25,50,42.5
768,C#5,101.0,0.25,50,42.5
769,E4,101.25,0.25,26,42.5
770,D5,101.25,0.25,52,42.5
771,B5,101.25,0.25,52,42.5
772,G#3,101.5,0.25,27,42.5
773,C#6,101.5,0.125,56,42.5
774,E5,101.5,0.125,56,42.5
775,E3,101.75,0.25,28,42.5
776,B4,101.875,0.125,50,42.5
777,G#5,101.875,0.125,50,42.5
778,C#3,102.0,0.25,31,42.5
779,D5,102.0,0.25,59,42.5
780,B5,102.0,0.25,59,42.5
781,E4,102.25,0.25,29,42.5
782,E3,102.5,0.25,29,42.5
783,E4,102.75,0.25,29,42.5
784,A5,102.75,0.25,56,42.5
785,C#5,102.75,0.25,56,42.5
786,A3,103.0,0.25,29,42.5
787,C#5,103.0,83/1000,56,42.5
788,A5,103.0,83/1000,56,42.5
789,C#5,103.167,83/1000,54,42.5
790,G#5,103.167,83/1000,54,42.5
791,E3,103.25,0.25,29,42.5
792,C#5,103.333,83/1000,54,42.5
793,F#5,103.333,83/1000,54,42.5
794,G#2,103.5,0.25,34,42.5
795,D5,103.5,0.75,56,42.5
796,E5,103.5,0.75,56,42.5
797,E4,103.75,0.25,26,42.5
798,E3,104.0,0.25,28,42.5
799,E4,104.25,0.25,30,42.5
800,B-4,104.25,0.125,54,42.5
801,E5,104.25,0.125,54,42.5
802,D4,104.5,0.25,32,42.5
803,B4,104.5,0.125,56,42.5
804,E5,104.5,0.125,56,42.5
805,E3,104.75,0.25,34,42.5
806,C5,104.75,0.125,60,42.5
807,E5,104.75,0.125,60,42.5
808,A2,105.0,0.25,40,42.5
809,C#5,105.0,1.0,63,42.5
810,E5,105.0,1.0,63,42.5
811,E4,105.25,0.25,32,42.5
812,E3,105.5,0.25,32,42.5
813,E4,105.75,0.25,32,42.5
814,C#4,106.0,0.25,32,42.5
815,D5,106.0,0.25,58,42.5
816,F#5,106.0,0.25,58,42.5
817,E3,106.25,0.25,32,42.5
818,A4,106.25,0.25,60,42.5
819,C#5,106.25,0.25,60,42.5
820,E2,106.5,0.25,40,42.5
821,G#4,106.5,0.125,54,42.5
822,C#5,106.5,0.125,54,42.5
823,C#5,106.625,0.25,61,42.5
824,E5,106.625,0.25,61,42.5
825,E4,106.75,0.25,34,42.5
826,D5,106.875,0.125,56,42.5
827,B4,106.875,0.125,56,42.5
828,G#3,107.0,0.25,35,42.5
829,D5,107.0,21/500,55,42.5
830,B4,107.0,21/500,55,42.5
831,E5,107.0,21/500,55,42.5
832,C#5,107.0,21/500,55,42.5
833,D5,107.083,83/1000,57,42.5
834,B4,107.083,83/1000,57,42.5
835,B-4,107.167,167/1000,54,42.5
836,C#5,107.167,167/1000,54,42.5
837,E4,107.25,0.25,35,42.5
838,B4,107.333,167/1000,56,42.5
839,D5,107.333,167/1000,56,42.5
840,D4,107.5,0.25,35,42.5
841,B4,107.5,167/1000,56,42.5
842,D5,107.5,167/1000,56,42.5
843,C#5,107.667,83/1000,54,42.5
844,E5,107.667,167/1000,63,42.5
845,E3,107.75,0.25,35,42.5
846,G#4,107.917,83/1000,60,42.5
847,B4,107.917,83/1000,60,42.5
848,A2,108.0,0.25,50,42.5
849,D5,108.0,0.5,58,42.5
850,B4,108.0,0.5,58,42.5
851,E4,108.25,0.25,39,42.5
852,A3,108.5,0.25,39,42.5
853,C#5,108.5,0.5,58,42.5
854,A4,108.5,0.5,58,42.5
855,E4,108.75,0.25,39,42.5
856,C#4,109.0,0.25,39,42.5
857,C#5,109.0,1.0,64,42.5
858,A5,109.0,1.0,64,42.5
859,E3,109.25,0.25,39,42.5
860,E-2,109.5,0.25,65,42.5
861,F#4,109.75,0.25,40,42.5
862,A3,110.0,0.25,42,42.5
863,C#5,110.0,0.5,64,42.5
864,A5,110.0,0.5,64,42.5
865,F#4,110.25,0.25,44,42.5
866,C#4,110.5,0.25,46,42.5
867,A5,110.5,0.5,70,42.5
868,C#5,110.5,0.5,70,42.5
869,E-3,110.75,0.25,48,42.5
870,C#5,111.0,1667/1000,63,42.5
871,G#5,111.0,0.5,75,42.5
872,G#2,111.0,0.25,50,42.5
873,F#4,111.25,0.25,39,42.5
874,A5,111.5,0.75,74,42.5
875,G#3,111.5,0.25,39,42.5
876,F#4,111.75,0.25,39,42.5
877,C#4,112.0,0.25,39,42.5
878,G#5,112.25,0.25,75,42.5
879,E-3,112.25,0.25,39,42.5
880,F#5,112.5,667/1000,73,42.5
881,G#2,112.5,0.25,63,42.5
882,E-5,112.667,167/1000,72,42.5
883,F#4,112.75,0.25,40,42.5
884,C#5,112.833,167/1000,70,42.5
885,C5,113.0,0.75,70,42.5
886,G#3,113.0,0.25,42,42.5
887,E5,113.167,167/1000,70,42.5
888,F#4,113.25,0.25,44,42.5
889,F#5,113.333,167/1000,75,42.5
890,G#5,113.5,0.125,75,42.5
891,C4,113.5,0.25,46,42.5
892,E-3,113.75,0.25,48,42.5
893,C5,113.875,0.125,66,42.5
894,E-5,113.875,0.125,66,42.5
895,G#2,114.0,0.25,50,42.5
896,E-5,114.0,667/1000,70,42.5
897,F#5,114.0,667/1000,70,42.5
898,E4,114.25,0.25,39,42.5
899,G#3,114.5,0.25,39,42.5
900,C#5,114.667,83/1000,68,42.5
901,E5,114.667,83/1000,68,42.5
902,E4,114.75,0.25,39,42.5
903,E5,114.917,83/1000,68,42.5
904,C#6,114.917,83/1000,68,42.5
905,C#4,115.0,0.25,39,42.5
906,E5,115.0,167/1000,69,42.5
907,C#6,115.0,167/1000,69,42.5
908,G#5,115.167,167/1000,68,42.5
909,B5,115.167,167/1000,68,42.5
910,E3,115.25,0.25,39,42.5
911,F#5,115.417,83/1000,64,42.5
912,A5,115.417,83/1000,64,42.5
913,G#1,115.5,0.25,58,42.5
914,E5,115.5,83/1000,70,42.5
915,G#5,115.5,83/1000,70,42.5
916,G#4,115.667,83/1000,62,42.5
917,G#5,115.667,83/1000,62,42.5
918,E4,115.75,0.25,40,42.5
919,A4,115.833,83/1000,64,42.5
920,G#5,115.833,83/1000,64,42.5
921,G#3,116.0,0.25,42,42.5
922,B-4,116.0,83/1000,64,42.5
923,G#5,116.0,83/1000,64,42.5
924,B4,116.167,83/1000,65,42.5
925,G#5,116.167,83/1000,65,42.5
926,E4,116.25,0.25,44,42.5
927,C5,116.333,83/1000,66,42.5
928,G#5,116.333,83/1000,66,42.5
929,C#4,116.5,0.25,46,42.5
930,C#5,116.5,83/1000,67,42.5
931,G#5,116.5,83/1000,67,42.5
932,D5,116.6,83/1000,67,42.5
933,G#5,116.6,83/1000,67,42.5
934,E-5,116.7,83/1000,68,42.5
935,G#5,116.7,83/1000,68,42.5
936,E3,116.75,0.25,48,42.5
937,E5,116.8,83/1000,68,42.5
938,G#5,116.8,83/1000,68,42.5
939,F5,116.9,83/1000,70,42.5
940,G#5,116.9,83/1000,70,42.5
941,G#2,117.0,0.25,65,42.5
942,G#5,117.0,0.375,73,42.5
943,F#5,117.0,0.375,73,42.5
944,E-4,117.25,0.25,51,42.5
945,B5,117.375,0.125,63,42.5
946,F#3,117.5,0.25,51,42.5
947,A5,117.5,0.5,72,42.5
948,F#5,117.5,0.5,72,42.5
949,E-4,117.75,0.25,51,42.5
950,C4,118.0,0.25,51,42.5
951,G#5,118.0,0.5,73,42.5
952,F#5,118.0,0.5,73,42.5
953,E-3,118.25,0.25,51,42.5
954,G#1,118.5,0.25,64,42.5
955,E-6,118.5,0.125,81,42.5
956,F#5,118.5,0.125,81,42.5
957,E-4,118.75,0.25,48,42.5
958,F#3,119.0,0.25,51,42.5
959,E5,119.0,0.5,75,42.5
960,G#5,119.0,0.5,75,42.5
961,E-4,119.25,0.25,54,42.5
962,C4,119.5,0.25,57,42.5
963,E-5,119.5,0.5,78,42.5
964,G#5,119.5,0.5,78,42.5
965,E-3,119.75,0.25,59,42.5
966,E-5,120.0,1.5,75,42.5
967,G#5,120.0,1.0,89,42.5
968,A2,120.0,0.25,76,42.5
969,E-4,120.25,0.25,55,42.5
970,F#3,120.5,0.25,56,42.5
971,E-4,120.75,0.25,57,42.5
972,F#5,121.0,0.5,80,42.5
973,C4,121.0,0.25,57,42.5
974,E-3,121.25,0.25,57,42.5
975,A1,121.5,0.25,82,42.5
976,E-4,121.75,0.25,57,42.5
977,F#3,122.0,0.25,58,42.5
978,C5,122.0,0.5,68,42.5
979,E-5,122.0,0.5,68,42.5
980,F#5,122.0,0.5,68,42.5
981,E-4,122.25,0.25,59,42.5
982,B3,122.5,0.25,62,42.5
983,B4,122.5,0.5,72,42.5
984,E-5,122.5,0.5,72,42.5
985,F#5,122.5,0.5,72,42.5
986,E-3,122.75,0.25,63,42.5
987,B-2,123.0,0.25,84,42.5
988,B-4,123.0,0.25,75,42.5
989,E-5,123.0,0.25,75,42.5
990,F#5,123.0,0.25,75,42.5
991,E-4,123.25,0.25,52,42.5
992,F#5,123.375,0.125,78,42.5
993,F#6,123.5,1.25,97,42.5
994,F#3,123.5,0.25,52,42.5
995,E-4,123.75,0.25,54,42.5
996,B-3,124.0,0.25,54,42.5
997,E-3,124.25,0.25,52,42.5
998,B-1,124.5,0.25,80,42.5
999,D6,124.75,0.25,86,42.5
1000,E-4,124.75,0.25,56,42.5
1001,E-6,125.0,167/1000,79,42.5
1002,F#3,125.0,0.25,56,42.5
1003,A5,125.167,167/1000,77,42.5
1004,E-4,125.25,0.25,56,42.5
1005,B-5,125.333,167/1000,77,42.5
1006,F5,125.5,167/1000,76,42.5
1007,B-3,125.5,0.25,56,42.5
1008,F#5,125.667,167/1000,75,42.5
1009,E-3,125.75,0.25,56,42.5
1010,D5,125.833,167/1000,75,42.5
1011,B2,126.0,0.25,71,42.5
1012,A4,126.0,0.25,75,42.5
1013,E-5,126.0,0.25,75,42.5
1014,F#5,126.0,0.25,75,42.5
1015,E-4,126.25,0.25,52,42.5
1016,F#5,126.375,0.125,78,42.5
1017,F#6,126.5,1.25,97,42.5
1018,F#3,126.5,0.25,52,42.5
1019,E-4,126.75,0.25,54,42.5
1020,A3,127.0,0.25,54,42.5
1021,E-3,127.25,0.25,52,42.5
1022,B1,127.5,0.25,79,42.5
1023,D6,127.75,0.25,86,42.5
1024,E-4,127.75,0.25,56,42.5
1025,E-6,128.0,167/1000,79,42.5
1026,F#3,128.0,0.25,56,42.5
1027,G#5,128.167,167/1000,77,42.5
1028,E-4,128.25,0.25,56,42.5
1029,A5,128.333,167/1000,77,42.5
1030,F5,128.5,167/1000,76,42.5
1031,A3,128.5,0.25,56,42.5
1032,F#5,128.667,167/1000,75,42.5
1033,E-3,128.75,0.25,56,42.5
1034,D5,128.833,167/1000,75,42.5
1035,C3,129.0,1.0,70,42.5
1036,A4,129.0,0.25,75,42.5
1037,E-5,129.0,0.25,75,42.5
1038,F#5,129.0,0.25,75,42.5
1039,E-4,129.25,0.25,52,42.5
1040,F#5,129.375,0.125,78,42.5
1041,F#6,129.5,1.0,97,42.5
1042,F#3,129.5,0.25,52,42.5
1043,E-4,129.75,0.25,54,42.5
1044,A3,130.0,0.25,54,42.5
1045,E-3,130.25,0.25,52,42.5
1046,C#3,130.5,1.0,66,42.5
1047,A4,130.5,0.25,75,42.5
1048,C#5,130.5,0.25,75,42.5
1049,F#5,130.5,0.25,75,42.5
1050,C#4,130.75,0.25,52,42.5
1051,F#5,130.875,0.125,78,42.5
1052,F#6,131.0,0.5,97,42.5
1053,F#3,131.0,0.25,52,42.5
1054,A3,131.25,0.25,54,42.5
1055,D3,131.5,0.5,66,42.5
1056,A4,131.5,0.25,75,42.5
1057,C5,131.5,0.25,75,42.5
1058,F#5,131.5,0.25,75,42.5
1059,C4,131.75,0.25,52,42.5
1060,F#5,131.875,0.125,78,42.5
1061,F#6,132.0,667/1000,97,42.5
1062,F#3,132.0,0.25,52,42.5
1063,D3,132.0,0.5,66,42.5
1064,A3,132.25,0.25,54,42.5
1065,E-3,132.5,1.0,66,42.5
1066,F6,132.667,167/1000,86,42.5
1067,E-4,132.75,0.25,52,42.5
1068,E6,132.833,167/1000,84,42.5
1069,F#5,133.0,167/1000,89,42.5
1070,F#3,133.0,0.25,52,42.5
1071,E-6,133.167,167/1000,82,42.5
1072,G#3,133.25,0.25,55,42.5
1073,D6,133.333,167/1000,82,42.5
1074,C#6,133.5,167/1000,87,42.5
1075,G#2,133.5,0.25,66,42.5
1076,E-5,133.667,167/1000,79,42.5
1077,F#4,133.75,0.25,52,42.5
1078,C6,133.833,167/1000,79,42.5
1079,B-5,134.0,167/1000,83,42.5
1080,G#3,134.0,0.25,51,42.5
1081,A5,134.167,167/1000,77,42.5
1082,F#4,134.25,0.25,50,42.5
1083,C5,134.333,167/1000,74,42.5
1084,G#5,134.5,167/1000,81,42.5
1085,C4,134.5,0.25,49,42.5
1086,G5,134.667,167/1000,75,42.5
1087,F#3,134.75,0.25,47,42.5
1088,F#5,134.833,167/1000,73,42.5
1089,F5,135.0,1.5,79,42.5
1090,C#2,135.0,0.25,76,42.5
1091,F4,135.25,0.25,44,42.5
1092,G#3,135.5,0.25,48,42.5
1093,F4,135.75,0.25,48,42.5
1094,C#4,136.0,0.25,48,42.5
1095,F3,136.25,0.25,47,42.5
1096,E-5,136.5,0.5,82,42.5
1097,C#3,136.5,0.25,56,42.5
1098,F4,136.75,0.25,44,42.5
1099,C#5,137.0,0.75,77,42.5
1100,G#3,137.0,0.25,44,42.5
1101,F4,137.25,0.25,44,42.5
1102,C#4,137.5,0.25,44,42.5
1103,F4,137.75,0.25,74,42.5
1104,F3,137.75,0.25,44,42.5
1105,G#4,138.0,2.0,81,42.5
1106,C#3,138.0,0.25,52,42.5
1107,F4,138.25,0.25,48,42.5
1108,G#3,138.5,0.25,48,42.5
1109,F4,138.75,0.25,46,42.5
1110,C#4,139.0,0.25,46,42.5
1111,F3,139.25,0.25,46,42.5
1112,C#3,139.5,0.25,54,42.5
1113,F4,139.75,0.25,46,42.5
1114,C#5,140.0,0.5,81,42.5
1115,G#3,140.0,0.25,46,42.5
1116,F4,140.25,0.25,48,42.5
1117,F5,140.5,0.5,85,42.5
1118,C#4,140.5,0.25,49,42.5
1119,F3,140.75,0.25,52,42.5
1120,B-5,141.0,1.75,95,42.5
1121,C#3,141.0,0.25,59,42.5
1122,F4,141.25,0.25,51,42.5
1123,G#3,141.5,0.25,49,42.5
1124,F4,141.75,0.25,48,42.5
1125,C#4,142.0,0.25,48,42.5
1126,F3,142.25,0.25,46,42.5
1127,C#3,142.5,0.25,52,42.5
1128,G#5,142.75,0.25,69,42.5
1129,F4,142.75,0.25,44,42.5
1130,E5,143.0,0.25,76,42.5
1131,G#3,143.0,0.25,44,42.5
1132,F5,143.25,0.25,70,42.5
1133,F4,143.25,0.25,44,42.5
1134,C5,143.5,0.25,75,42.5
1135,C#4,143.5,0.25,44,42.5
1136,C#5,143.75,0.25,69,42.5
1137,F3,143.75,0.25,42,42.5
1138,B4,144.0,3.0,79,42.5
1139,C#2,144.0,0.25,52,42.5
1140,F4,144.25,0.25,44,42.5
1141,G#3,144.5,0.25,44,42.5
1142,F4,144.75,0.25,44,42.5
1143,C#4,145.0,0.25,44,42.5
1144,F3,145.25,0.25,44,42.5
1145,C#3,145.5,0.25,52,42.5
1146,F4,145.75,0.25,44,42.5
1147,G#3,146.0,0.25,44,42.5
1148,F4,146.25,0.25,37,42.5
1149,C#4,146.5,0.25,42,42.5
1150,F3,146.75,0.25,32,42.5
1151,B5,147.0,1667/1000,61,42.5
1152,C#3,147.0,0.25,28,42.5
1153,F4,147.25,0.25,22,42.5
1154,G#3,147.5,0.25,22,42.5
1155,F4,147.75,0.25,22,42.5
1156,C#4,148.0,0.25,22,42.5
1157,F3,148.25,0.25,22,42.5
1158,C#3,148.5,0.25,27,42.5
1159,G5,148.667,167/1000,50,42.5
1160,F4,148.75,0.25,22,42.5
1161,G#5,148.833,167/1000,50,42.5
1162,G5,149.0,167/1000,53,42.5
1163,G#3,149.0,0.25,22,42.5
1164,F#5,149.167,167/1000,50,42.5
1165,F4,149.25,0.25,22,42.5
1166,G5,149.333,167/1000,50,42.5
1167,B-5,149.5,167/1000,56,42.5
1168,C#4,149.5,0.25,24,42.5
1169,G#5,149.667,167/1000,52,42.5
1170,F3,149.75,0.25,22,42.5
1171,F5,149.833,167/1000,50,42.5
1172,E-5,150.0,1.5,51,42.5
1173,C#2,150.0,0.25,27,42.5
1174,F4,150.25,0.25,22,42.5
1175,G#3,150.5,0.25,22,42.5
1176,F4,150.75,0.25,22,42.5
1177,B3,151.0,0.25,21,42.5
1178,F3,151.25,0.25,21,42.5
1179,C#3,151.5,0.25,28,42.5
1180,C#5,151.5,0.062,45,42.5
1181,E-5,151.5,0.062,45,42.5
1182,C#5,151.604,0.062,45,42.5
1183,E-5,151.604,0.062,45,42.5
1184,C#5,151.708,0.062,45,42.5
1185,E-5,151.708,0.062,45,42.5
1186,F4,151.75,0.25,23,42.5
1187,C#5,151.792,0.062,45,42.5
1188,E-5,151.792,0.062,45,42.5
1189,C#5,151.875,0.062,45,42.5
1190,E-5,151.875,0.062,45,42.5
1191,C#5,151.958,83/1000,47,42.5
1192,C5,151.958,83/1000,47,42.5
1193,G#3,152.0,0.25,25,42.5
1194,C#5,152.083,83/1000,46,42.5
1195,E-5,152.167,83/1000,47,42.5
1196,F5,152.25,83/1000,48,42.5
1197,F4,152.25,0.25,27,42.5
1198,F#5,152.333,83/1000,49,42.5
1199,G#5,152.417,83/1000,50,42.5
1200,B-5,152.5,83/1000,51,42.5
1201,B3,152.5,0.25,28,42.5
1202,B5,152.583,83/1000,52,42.5
1203,C#6,152.667,83/1000,53,42.5
1204,E-6,152.75,83/1000,54,42.5
1205,F3,152.75,0.25,30,42.5
1206,F6,152.833,83/1000,55,42.5
1207,F#6,152.917,83/1000,55,42.5
1208,B-6,153.0,0.125,57,42.5
1209,C#3,153.0,0.5,33,42.5
1210,G#6,153.125,0.125,55,42.5
1211,B6,153.25,0.125,52,42.5
1212,G6,153.375,0.125,52,42.5
1213,G#6,153.5,0.125,52,42.5
1214,F4,153.5,0.5,28,42.5
1215,G6,153.625,0.125,52,42.5
1216,B6,153.75,0.125,52,42.5
1217,F#6,153.875,0.125,52,42.5
1218,G6,154.0,0.125,49,42.5
1219,G#3,154.0,0.5,28,42.5
1220,F#6,154.125,0.125,49,42.5
1221,B6,154.25,0.125,50,42.5
1222,F6,154.375,0.125,50,42.5
1223,F#6,154.5,0.125,51,42.5
1224,F4,154.5,0.5,28,42.5
1225,F6,154.625,0.125,52,42.5
1226,B6,154.75,0.125,52,42.5
1227,E6,154.875,0.125,53,42.5
1228,F6,155.0,0.125,53,42.5
1229,B3,155.0,0.5,28,42.5
1230,E6,155.125,0.125,54,42.5
1231,B6,155.25,0.125,55,42.5
1232,E-6,155.375,0.125,55,42.5
1233,E6,155.5,0.125,56,42.5
1234,F3,155.5,0.5,28,42.5
1235,E-6,155.625,0.125,57,42.5
1236,B6,155.75,0.125,57,42.5
1237,D6,155.875,0.125,57,42.5
1238,C#6,156.0,0.125,57,42.5
1239,C#3,156.0,0.5,28,42.5
1240,E-6,156.125,0.125,58,42.5
1241,C#6,156.25,0.125,59,42.5
1242,C6,156.375,0.125,59,42.5
1243,C#6,156.5,0.125,60,42.5
1244,F4,156.5,0.5,29,42.5
1245,E-6,156.625,0.125,61,42.5
1246,F6,156.75,0.125,61,42.5
1247,F#6,156.875,0.125,62,42.5
1248,G#6,157.0,0.125,62,42.5
1249,G#3,157.0,0.5,30,42.5
1250,B-6,157.125,0.125,62,42.5
1251,B6,157.25,0.125,64,42.5
1252,C#7,157.375,0.125,66,42.5
1253,F7,157.5,0.125,65,42.5
1254,F4,157.5,0.5,30,42.5
1255,E-7,157.625,0.125,64,42.5
1256,C#7,157.75,0.125,62,42.5
1257,B6,157.875,0.125,61,42.5
1258,G#6,158.0,0.125,59,42.5
1259,B3,158.0,0.5,29,42.5
1260,F6,158.125,0.125,58,42.5
1261,C#6,158.25,0.125,57,42.5
1262,B5,158.375,0.125,56,42.5
1263,G#5,158.5,0.125,54,42.5
1264,F3,158.5,0.5,28,42.5
1265,F5,158.625,0.125,53,42.5
1266,C#5,158.75,0.125,51,42.5
1267,B4,158.875,0.125,50,42.5
1268,B-4,159.0,0.75,53,42.5
1269,D3,159.0,0.25,29,42.5
1270,F4,159.25,0.25,22,42.5
1271,G#3,159.5,0.25,22,42.5
1272,A4,159.75,0.125,48,42.5
1273,F4,159.75,0.25,22,42.5
1274,B-4,159.875,0.125,50,42.5
1275,B4,160.0,0.125,53,42.5
1276,B-3,160.0,0.25,21,42.5
1277,B-4,160.125,0.125,50,42.5
1278,C#5,160.25,83/1000,52,42.5
1279,F3,160.25,0.25,21,42.5
1280,B4,160.333,83/1000,50,42.5
1281,B-4,160.417,83/1000,48,42.5
1282,B-4,160.5,1.0,50,42.5
1283,D3,160.5,0.25,28,42.5
1284,F4,160.75,0.25,23,42.5
1285,G#3,161.0,0.25,25,42.5
1286,F4,161.25,0.25,27,42.5
1287,B-5,161.5,0.5,54,42.5
1288,B-3,161.5,0.25,28,42.5
1289,F3,161.75,0.25,30,42.5
1290,F#5,162.0,0.5,59,42.5
1291,B-5,162.0,0.5,54,42.5
1292,E-3,162.0,0.25,35,42.5
1293,F#4,162.25,0.25,28,42.5
1294,B-3,162.5,0.25,28,42.5
1295,B5,162.5,0.5,58,42.5
1296,G#5,162.5,0.5,58,42.5
1297,F#4,162.75,0.25,28,42.5
1298,E-4,163.0,0.25,28,42.5
1299,E-5,163.0,0.375,56,42.5
1300,F#5,163.0,0.375,56,42.5
1301,F#3,163.25,0.25,28,42.5
1302,E-5,163.375,0.125,54,42.5
1303,F#5,163.375,0.125,54,42.5
1304,E-3,163.5,0.25,35,42.5
1305,F#5,163.5,0.25,61,42.5
1306,B-5,163.5,0.25,61,42.5
1307,G#4,163.75,0.25,30,42.5
1308,G#5,163.875,0.125,56,42.5
1309,F5,163.875,0.125,56,42.5
1310,B-3,164.0,0.25,31,42.5
1311,G#5,164.0,21/500,55,42.5
1312,F5,164.0,21/500,55,42.5
1313,B-5,164.0,21/500,55,42.5
1314,F#5,164.0,21/500,55,42.5
1315,G#5,164.083,83/1000,57,42.5
1316,F5,164.083,83/1000,57,42.5
1317,E-5,164.167,167/1000,54,42.5
1318,F#5,164.167,167/1000,54,42.5
1319,G#4,164.25,0.25,31,42.5
1320,F5,164.333,167/1000,56,42.5
1321,G#5,164.333,167/1000,56,42.5
1322,B-5,164.5,167/1000,63,42.5
1323,F#5,164.5,83/1000,54,42.5
1324,D4,164.5,0.25,31,42.5
1325,F3,164.75,0.25,31,42.5
1326,D5,164.917,83/1000,60,42.5
1327,F5,164.917,83/1000,60,42.5
1328,E-3,165.0,0.25,44,42.5
1329,G#5,165.0,0.5,58,42.5
1330,F5,165.0,0.5,58,42.5
1331,F#4,165.25,0.25,34,42.5
1332,B-3,165.5,0.25,34,42.5
1333,F#5,165.5,0.25,57,42.5
1334,E-5,165.5,0.25,57,42.5
1335,F#4,165.75,0.25,34,42.5
1336,F#5,165.875,0.125,61,42.5
1337,E-6,165.875,0.125,61,42.5
1338,E-4,166.0,0.25,34,42.5
1339,F#5,166.0,167/1000,60,42.5
1340,E-6,166.0,167/1000,60,42.5
1341,F5,166.167,167/1000,56,42.5
1342,C#6,166.167,167/1000,56,42.5
1343,F#3,166.25,0.25,34,42.5
1344,E-5,166.333,167/1000,56,42.5
1345,B5,166.333,167/1000,56,42.5
1346,B-2,166.5,0.25,45,42.5
1347,D5,166.5,167/1000,62,42.5
1348,B-5,166.5,167/1000,62,42.5
1349,B-4,166.667,83/1000,54,42.5
1350,B-5,166.667,83/1000,54,42.5
1351,F4,166.75,0.25,35,42.5
1352,B4,166.833,83/1000,55,42.5
1353,B-5,166.833,83/1000,55,42.5
1354,B-3,167.0,0.25,37,42.5
1355,C5,167.0,83/1000,57,42.5
1356,B-5,167.0,83/1000,57,42.5
1357,C#5,167.167,83/1000,58,42.5
1358,B-5,167.167,83/1000,58,42.5
1359,F4,167.25,0.25,39,42.5
1360,D5,167.333,83/1000,61,42.5
1361,B-5,167.333,83/1000,61,42.5
1362,D4,167.5,0.25,40,42.5
1363,E-5,167.5,83/1000,62,42.5
1364,B-5,167.5,83/1000,62,42.5
1365,E5,167.667,83/1000,64,42.5
1366,B-5,167.667,83/1000,64,42.5
1367,F3,167.75,0.25,42,42.5
1368,F5,167.833,83/1000,66,42.5
1369,B-5,167.833,83/1000,66,42.5
1370,E-2,168.0,0.25,35,42.5
1371,F#5,168.0,0.5,63,42.5
1372,B-5,168.0,0.5,63,42.5
1373,F#4,168.25,0.25,28,42.5
1374,B-3,168.5,0.25,28,42.5
1375,B5,168.5,0.75,58,42.5
1376,G#5,168.5,0.75,58,42.5
1377,F#4,168.75,0.25,28,42.5
1378,E-4,169.0,0.25,28,42.5
1379,F#3,169.25,0.25,28,42.5
1380,E-5,169.25,0.125,60,42.5
1381,F#5,169.25,0.125,60,42.5
1382,E-5,169.375,0.125,54,42.5
1383,F#5,169.375,0.125,54,42.5
1384,E-3,169.5,0.25,35,42.5
1385,F#5,169.5,0.25,61,42.5
1386,B-5,169.5,0.25,61,42.5
1387,G#4,169.75,0.25,30,42.5
1388,G#5,169.875,0.125,56,42.5
1389,F5,169.875,0.125,56,42.5
1390,B-3,170.0,0.25,31,42.5
1391,G#5,170.0,21/500,55,42.5
1392,F5,170.0,21/500,55,42.5
1393,B-5,170.0,21/500,55,42.5
1394,F#5,170.0,21/500,55,42.5
1395,G#5,170.083,83/1000,57,42.5
1396,F5,170.083,83/1000,57,42.5
1397,E-5,170.167,167/1000,54,42.5
1398,F#5,170.167,167/1000,54,42.5
1399,G#4,170.25,0.25,31,42.5
1400,F5,170.333,167/1000,56,42.5
1401,G#5,170.333,167/1000,56,42.5
1402,D4,170.5,0.25,31,42.5
1403,F5,170.5,167/1000,56,42.5
1404,G#5,170.5,167/1000,56,42.5
1405,F#5,170.667,83/1000,54,42.5
1406,B-5,170.667,167/1000,63,42.5
1407,F3,170.75,0.25,31,42.5
1408,D5,170.917,83/1000,60,42.5
1409,F5,170.917,83/1000,60,42.5
1410,E-3,171.0,0.25,44,42.5
1411,G#5,171.0,0.5,58,42.5
1412,F5,171.0,0.5,58,42.5
1413,F#4,171.25,0.25,34,42.5
1414,B-3,171.5,0.25,34,42.5
1415,F#5,171.5,0.25,57,42.5
1416,E-5,171.5,0.25,57,42.5
1417,F#4,171.75,0.25,34,42.5
1418,E-4,172.0,0.25,34,42.5
1419,F#6,172.0,0.75,66,42.5
1420,B-5,172.0,0.75,66,42.5
1421,F#3,172.25,0.25,34,42.5
1422,F#2,172.5,0.25,65,42.5
1423,E-4,172.75,0.25,40,42.5
1424,F6,172.75,0.125,68,42.5
1425,G#5,172.75,0.125,68,42.5
1426,F#3,173.0,0.25,42,42.5
1427,F#5,173.0,83/1000,62,42.5
1428,E-6,173.0,83/1000,62,42.5
1429,F5,173.167,83/1000,62,42.5
1430,C#6,173.167,83/1000,62,42.5
1431,E-4,173.25,0.25,44,42.5
1432,E-5,173.333,83/1000,64,42.5
1433,C6,173.333,83/1000,64,42.5
1434,B-3,173.5,0.25,46,42.5
1435,C#5,173.5,83/1000,66,42.5
1436,B-5,173.5,83/1000,66,42.5
1437,C5,173.667,83/1000,66,42.5
1438,G#5,173.667,83/1000,66,42.5
1439,E-3,173.75,0.25,48,42.5
1440,B-4,173.833,83/1000,68,42.5
1441,F#5,173.833,83/1000,68,42.5
1442,G#2,174.0,0.25,52,42.5
1443,G#4,174.0,0.5,66,42.5
1444,F5,174.0,0.5,66,42.5
1445,C#4,174.25,0.25,44,42.5
1446,F3,174.5,0.25,44,42.5
1447,B-4,174.5,0.5,70,42.5
1448,F#5,174.5,0.5,70,42.5
1449,C#4,174.75,0.25,44,42.5
1450,G#3,175.0,0.25,44,42.5
1451,G#4,175.0,0.5,68,42.5
1452,F5,175.0,0.5,68,42.5
1453,G#2,175.25,0.25,44,42.5
1454,B-2,175.5,0.25,57,42.5
1455,F#4,175.5,0.5,68,42.5
1456,E-5,175.5,0.5,68,42.5
1457,C#4,175.75,0.25,48,42.5
1458,F3,176.0,0.25,48,42.5
1459,F4,176.0,0.5,66,42.5
1460,C#5,176.0,0.5,66,42.5
1461,C#4,176.25,0.25,48,42.5
1462,B-3,176.5,0.25,48,42.5
1463,C#4,176.5,0.5,66,42.5
1464,F4,176.5,0.5,66,42.5
1465,B-2,176.75,0.25,49,42.5
1466,F2,177.0,0.25,58,42.5
1467,C#4,177.0,1.5,71,42.5
1468,G#4,177.0,1.5,71,42.5
1469,G#3,177.25,0.25,51,42.5
1470,C#3,177.5,0.25,51,42.5
1471,G#3,177.75,0.25,51,42.5
1472,C#3,178.0,0.25,51,42.5
1473,F2,178.25,0.25,52,42.5
1474,F#2,178.5,0.25,64,42.5
1475,E-4,178.5,1.5,70,42.5
1476,C#4,178.5,1.5,70,42.5
1477,B-4,178.5,1.5,70,42.5
1478,B-3,178.75,0.25,51,42.5
1479,C#3,179.0,0.25,52,42.5
1480,B-3,179.25,0.25,54,42.5
1481,E-3,179.5,0.25,55,42.5
1482,F#2,179.75,0.25,56,42.5
1483,E-4,180.0,833/1000,78,42.5
1484,G#1,180.0,0.25,58,42.5
1485,G#3,180.0,1.5,66,42.5
1486,C#4,180.0,1.5,66,42.5
1487,C#4,180.25,0.25,51,42.5
1488,E-3,180.5,0.25,51,42.5
1489,C#4,180.75,0.25,51,42.5
1490,G#4,180.833,83/1000,61,42.5
1491,C#5,180.917,83/1000,63,42.5
1492,E-5,181.0,83/1000,65,42.5
1493,G#3,181.0,0.25,51,42.5
1494,G#5,181.083,83/1000,67,42.5
1495,C#6,181.167,83/1000,68,42.5
1496,E-6,181.25,83/1000,70,42.5
1497,E-3,181.25,0.25,52,42.5
1498,G#6,181.333,83/1000,72,42.5
1499,C#7,181.417,83/1000,73,42.5
1500,E-7,181.5,833/1000,92,42.5
1501,G#2,181.5,0.25,64,42.5
1502,C#4,181.75,0.25,51,42.5
1503,E-3,182.0,0.25,52,42.5
1504,C#4,182.25,0.25,54,42.5
1505,C#7,182.333,83/1000,78,42.5
1506,G#6,182.417,83/1000,76,42.5
1507,E-6,182.5,83/1000,74,42.5
1508,G#3,182.5,0.25,55,42.5
1509,C#6,182.583,83/1000,72,42.5
1510,G#5,182.667,83/1000,69,42.5
1511,E-5,182.75,83/1000,67,42.5
1512,E-3,182.75,0.25,56,42.5
1513,C#5,182.833,83/1000,65,42.5
1514,G#4,182.917,83/1000,63,42.5
1515,E-4,183.0,1.5,78,42.5
1516,G#1,183.0,0.25,58,42.5
1517,C#4,183.25,0.25,51,42.5
1518,E-3,183.5,0.25,51,42.5
1519,C#4,183.75,0.25,51,42.5
1520,F#3,184.0,0.25,51,42.5
1521,E-3,184.25,0.25,52,42.5
1522,F4,184.5,0.75,66,42.5
1523,G#2,184.5,0.25,64,42.5
1524,G#3,184.5,1.5,72,42.5
1525,G#4,184.5,1.5,72,42.5
1526,C4,184.75,0.25,51,42.5
1527,E-3,185.0,0.25,52,42.5
1528,E-4,185.25,0.25,72,42.5
1529,C4,185.25,0.25,54,42.5
1530,F4,185.5,167/1000,78,42.5
1531,F#3,185.5,0.25,55,42.5
1532,E-4,185.667,167/1000,75,42.5
1533,G#2,185.75,0.25,56,42.5
1534,C#4,185.833,167/1000,75,42.5
1535,C#4,186.0,1.0,78,42.5
1536,C#2,186.0,0.25,64,42.5
1537,F4,186.25,0.25,26,42.5
1538,G#3,186.5,0.25,26,42.5
1539,F4,186.75,0.25,26,42.5
1540,C#4,187.0,0.25,26,42.5
1541,F3,187.25,0.25,26,42.5
1542,C#6,187.5,0.5,62,42.5
1543,C#3,187.5,0.25,30,42.5
1544,E4,187.75,0.25,26,42.5
1545,G5,188.0,1.0,55,42.5
1546,B-3,188.0,0.25,26,42.5
1547,E4,188.25,0.25,26,42.5
1548,C#4,188.5,0.25,26,42.5
1549,G3,188.75,0.25,26,42.5
1550,C6,189.0,0.5,62,42.5
1551,C#3,189.0,0.25,30,42.5
1552,E-4,189.25,0.25,26,42.5
1553,F#5,189.5,1.0,55,42.5
1554,A3,189.5,0.25,26,42.5
1555,E-4,189.75,0.25,26,42.5
1556,C4,190.0,0.25,26,42.5
1557,F#3,190.25,0.25,26,42.5
1558,B5,190.5,0.5,62,42.5
1559,C#3,190.5,1.5,30,42.5
1560,D4,190.75,0.25,26,42.5
1561,F5,191.0,1.0,54,42.5
1562,G#3,191.0,0.25,25,42.5
1563,D4,191.25,0.25,25,42.5
1564,B3,191.5,0.25,25,42.5
1565,F3,191.75,0.25,25,42.5
1566,B-5,192.0,0.5,60,42.5
1567,C#3,192.0,1.5,28,42.5
1568,C#4,192.25,0.25,25,42.5
1569,E5,192.5,1.0,52,42.5
1570,G3,192.5,0.25,24,42.5
1571,C#4,192.75,0.25,24,42.5
1572,B-3,193.0,0.25,24,42.5
1573,E3,193.25,0.25,24,42.5
1574,A5,193.5,0.5,58,42.5
1575,C#3,193.5,1.5,28,42.5
1576,C#4,193.75,0.25,23,42.5
1577,E-5,194.0,1.0,51,42.5
1578,F#3,194.0,0.25,23,42.5
1579,C#4,194.25,0.25,23,42.5
1580,A3,194.5,0.25,23,42.5
1581,E-3,194.75,0.25,23,42.5
1582,G#5,195.0,3.0,60,42.5
1583,C#3,195.0,0.25,27,42.5
1584,C4,195.25,0.25,22,42.5
1585,F#3,195.5,0.25,22,42.5
1586,C4,195.75,0.25,22,42.5
1587,G#4,196.0,0.188,43,42.5
1588,G#3,196.0,0.25,22,42.5
1589,B-4,196.25,0.188,44,42.5
1590,E-3,196.25,0.25,22,42.5
1591,C5,196.5,0.188,45,42.5
1592,C#3,196.5,0.25,27,42.5
1593,C#5,196.75,0.188,46,42.5
1594,C4,196.75,0.25,22,42.5
1595,D5,197.0,0.188,47,42.5
1596,F#3,197.0,0.25,22,42.5
1597,E-5,197.25,0.188,48,42.5
1598,C4,197.25,0.25,22,42.5
1599,F5,197.5,0.188,50,42.5
1600,G#3,197.5,0.25,22,42.5
1601,F#5,197.75,0.188,51,42.5
1602,E-3,197.75,0.25,22,42.5
1603,F5,198.0,1.0,54,42.5
1604,G#5,198.0,1.0,60,42.5
1605,C#2,198.0,0.25,27,42.5
1606,F4,198.25,0.25,22,42.5
1607,G#3,198.5,0.25,22,42.5
1608,F4,198.75,0.25,22,42.5
1609,C#4,199.0,0.25,22,42.5
1610,F3,199.25,0.25,22,42.5
1611,C#6,199.5,0.5,55,42.5
1612,C#3,199.5,0.25,27,42.5
1613,E4,199.75,0.125,22,42.5
1614,B-6,199.875,0.125,41,42.5
1615,G5,200.0,1.0,49,42.5
1616,B-3,200.0,0.25,22,42.5
1617,E4,200.25,0.125,22,42.5
1618,C#4,200.5,0.25,22,42.5
1619,G3,200.75,0.25,22,42.5
1620,C6,201.0,0.5,55,42.5
1621,C#3,201.0,0.25,27,42.5
1622,E-4,201.25,0.25,22,42.5
1623,A6,201.375,0.125,41,42.5
1624,F#5,201.5,1.0,49,42.5
1625,A3,201.5,0.25,22,42.5
1626,E-4,201.75,0.25,22,42.5
1627,C4,202.0,0.25,22,42.5
1628,F#3,202.25,0.25,22,42.5
1629,B5,202.5,0.5,55,42.5
1630,C#3,202.5,0.25,27,42.5
1631,D4,202.75,0.25,22,42.5
1632,G#6,202.875,0.125,41,42.5
1633,F5,203.0,1.0,49,42.5
1634,G#3,203.0,0.25,22,42.5
1635,D4,203.25,0.25,22,42.5
1636,B3,203.5,0.25,22,42.5
1637,F3,203.75,0.25,22,42.5
1638,B-5,204.0,0.5,55,42.5
1639,C#3,204.0,1.5,27,42.5
1640,C#4,204.25,0.25,22,42.5
1641,G6,204.375,0.125,41,42.5
1642,E5,204.5,1.0,49,42.5
1643,G3,204.5,0.25,22,42.5
1644,C#4,204.75,0.25,22,42.5
1645,B-3,205.0,0.25,22,42.5
1646,E3,205.25,0.25,22,42.5
1647,A5,205.5,0.5,55,42.5
1648,C#3,205.5,1.5,27,42.5
1649,C#4,205.75,0.25,22,42.5
1650,F#6,205.875,0.125,41,42.5
1651,E-5,206.0,1.0,49,42.5
1652,F#3,206.0,0.25,22,42.5
1653,C#4,206.25,0.25,22,42.5
1654,A3,206.5,0.25,22,42.5
1655,E-3,206.75,0.25,22,42.5
1656,G#5,207.0,3.0,55,42.5
1657,C#3,207.0,0.25,27,42.5
1658,C4,207.25,0.25,22,42.5
1659,F#3,207.5,0.25,22,42.5
1660,C4,207.75,0.25,22,42.5
1661,G#3,208.0,0.25,22,42.5
1662,E-3,208.25,0.25,22,42.5
1663,C#3,208.5,0.25,27,42.5
1664,G5,208.75,0.188,47,42.5
1665,C4,208.75,0.25,22,42.5
1666,F#5,209.0,0.188,46,42.5
1667,F#3,209.0,0.25,22,42.5
1668,F5,209.25,0.188,45,42.5
1669,C4,209.25,0.25,22,42.5
1670,E-5,209.5,0.188,45,42.5
1671,G#3,209.5,0.25,22,42.5
1672,F5,209.75,0.188,43,42.5
1673,E-3,209.75,0.25,22,42.5
1674,C#5,210.0,3.0,52,42.5
1675,G#5,210.0,1.5,55,42.5
1676,C#2,210.0,0.25,27,42.5
1677,C#4,210.25,0.25,22,42.5
1678,C#3,210.5,0.25,22,42.5
1679,C#4,210.75,0.25,22,42.5
1680,F3,211.0,0.25,22,42.5
1681,G#2,211.25,0.25,22,42.5
1682,F5,211.5,0.25,46,42.5
1683,C#2,211.5,0.25,26,42.5
1684,F#5,211.75,0.25,45,42.5
1685,C#4,211.75,0.25,22,42.5
1686,G5,212.0,0.25,46,42.5
1687,C#3,212.0,0.25,22,42.5
1688,G#5,212.25,0.25,48,42.5
1689,C#4,212.25,0.25,22,42.5
1690,C6,212.5,0.25,48,42.5
1691,F3,212.5,0.25,22,42.5
1692,B-5,212.75,0.25,47,42.5
1693,G#2,212.75,0.25,22,42.5
1694,C5,213.0,0.25,45,42.5
1695,G#5,213.0,1.75,53,42.5
1696,C#2,213.0,0.25,26,42.5
1697,C#5,213.25,0.25,45,42.5
1698,C4,213.25,0.25,21,42.5
1699,D5,213.5,0.25,45,42.5
1700,E-3,213.5,0.25,21,42.5
1701,E-5,213.75,0.25,45,42.5
1702,C4,213.75,0.25,21,42.5
1703,F#5,214.0,0.25,44,42.5
1704,F#3,214.0,0.25,21,42.5
1705,F5,214.25,0.25,44,42.5
1706,G#2,214.25,0.25,21,42.5
1707,E-5,214.5,1.0,44,42.5
1708,C#2,214.5,0.25,25,42.5
1709,G5,214.75,0.25,44,42.5
1710,C4,214.75,0.25,21,42.5
1711,F#5,215.0,0.25,43,42.5
1712,E-3,215.0,0.25,21,42.5
1713,F5,215.25,0.25,42,42.5
1714,C4,215.25,0.25,21,42.5
1715,G#4,215.5,0.5,40,42.5
1716,E-5,215.5,0.25,42,42.5
1717,F#3,215.5,0.25,21,42.5
1718,F5,215.75,0.25,39,42.5
1719,G#2,215.75,0.25,21,42.5
1720,A4,216.0,0.25,43,42.5
1721,C#5,216.0,1.5,48,42.5
1722,C#2,216.0,0.25,24,42.5
1723,G#4,216.25,0.25,43,42.5
1724,C#4,216.25,0.25,21,42.5
1725,G4,216.5,0.25,43,42.5
1726,C#3,216.5,0.25,20,42.5
1727,G#4,216.75,0.25,43,42.5
1728,C#4,216.75,0.25,20,42.5
1729,C5,216.875,0.125,37,42.5
1730,B-4,217.0,0.25,43,42.5
1731,F3,217.0,0.25,20,42.5
1732,G#4,217.25,0.25,42,42.5
1733,G#2,217.25,0.25,20,42.5
1734,G#4,217.5,1.0,42,42.5
1735,F5,217.5,0.25,42,42.5
1736,C#2,217.5,0.25,24,42.5
1737,F#5,217.75,0.25,41,42.5
1738,C#4,217.75,0.25,20,42.5
1739,G5,218.0,0.25,42,42.5
1740,C#3,218.0,0.25,20,42.5
1741,G#5,218.25,0.25,44,42.5
1742,C#4,218.25,0.25,20,42.5
1743,C6,218.5,0.25,45,42.5
1744,F3,218.5,0.25,20,42.5
1745,B-5,218.75,0.25,44,42.5
1746,G#2,218.75,0.25,20,42.5
1747,C5,219.0,0.25,41,42.5
1748,G#5,219.0,1.75,48,42.5
1749,C#2,219.0,0.25,23,42.5
1750,C#5,219.25,0.25,41,42.5
1751,C4,219.25,0.25,20,42.5
1752,D5,219.5,0.25,41,42.5
1753,E-3,219.5,0.25,20,42.5
1754,E-5,219.75,0.25,41,42.5
1755,C4,219.75,0.25,19,42.5
1756,F#5,220.0,0.25,41,42.5
1757,F#3,220.0,0.25,19,42.5
1758,F5,220.25,0.25,41,42.5
1759,G#2,220.25,0.25,19,42.5
1760,E-5,220.5,1.0,40,42.5
1761,C#2,220.5,0.25,22,42.5
1762,G5,220.75,0.25,40,42.5
1763,C4,220.75,0.25,19,42.5
1764,F#5,221.0,0.25,40,42.5
1765,E-3,221.0,0.25,19,42.5
1766,F5,221.25,0.25,38,42.5
1767,C4,221.25,0.25,19,42.5
1768,G#4,221.5,0.5,36,42.5
1769,E-5,221.5,0.25,38,42.5
1770,F#3,221.5,0.25,19,42.5
1771,F5,221.75,0.25,36,42.5
1772,G#2,221.75,0.25,19,42.5
1773,C#2,222.0,0.25,22,42.5
1774,F4,222.0,3.0,36,42.5
1775,C#5,222.0,3.0,36,42.5
1776,C#4,222.25,0.25,18,42.5
1777,C#3,222.5,0.25,18,42.5
1778,C#4,222.75,0.25,18,42.5
1779,F3,223.0,0.25,18,42.5
1780,G#2,223.25,0.25,18,42.5
1781,C#2,223.5,0.25,22,42.5
1782,C#4,223.75,0.25,18,42.5
1783,C#3,224.0,0.25,18,42.5
1784,C#4,224.25,0.25,18,42.5
1785,F3,224.5,0.25,18,42.5
1786,G#2,224.75,0.25,18,42.5
1787,C#2,225.0,0.25,22,42.5
1788,G#4,225.0,0.188,34,42.5
1789,F5,225.0,0.188,34,42.5
1790,B-4,225.213,0.188,34,42.5
1791,F#5,225.213,0.188,34,42.5
1792,C#4,225.25,0.25,18,42.5
1793,C5,225.425,0.188,34,42.5
1794,G#5,225.425,0.188,34,42.5
1795,C#3,225.5,0.25,18,42.5
1796,C#5,225.637,0.188,33,42.5
1797,B-5,225.637,0.188,33,42.5
1798,C#4,225.75,0.25,18,42.5
1799,E-5,225.85,0.188,33,42.5
1800,C6,225.85,0.188,33,42.5
1801,F3,226.0,0.25,18,42.5
1802,F5,226.062,0.188,32,42.5
1803,C#6,226.062,0.188,32,42.5
1804,G#2,226.25,0.25,18,42.5
1805,F#5,226.275,0.188,32,42.5
1806,E-6,226.275,0.188,32,42.5
1807,C#2,226.5,0.25,22,42.5
1808,G#5,226.5,0.188,31,42.5
1809,F6,226.5,0.188,31,42.5
1810,B-5,226.713,0.188,31,42.5
1811,F#6,226.713,0.188,31,42.5
1812,C#4,226.75,0.25,18,42.5
1813,C6,226.925,0.188,30,42.5
1814,G#6,226.925,0.188,30,42.5
1815,C#3,227.0,0.25,18,42.5
1816,C#6,227.137,0.188,30,42.5
1817,B-6,227.137,0.188,30,42.5
1818,C#4,227.25,0.25,18,42.5
1819,E-6,227.35,0.188,30,42.5
1820,C7,227.35,0.188,30,42.5
1821,F3,227.5,0.25,18,42.5
1822,F6,227.562,0.188,30,42.5
1823,C#7,227.562,0.188,30,42.5
1824,G#2,227.75,0.25,18,42.5
1825,F#6,227.775,0.188,30,42.5
1826,E-7,227.775,0.188,30,42.5
1827,C#2,228.0,1.0,17,42.5
1828,F7,228.0,1.0,33,42.5
1829,G#6,228.0,1.0,33,42.5
1830,G#4,229.5,1.5,33,42.5
1831,F5,229.5,1.5,33,42.5
1832,G#2,229.5,1.5,18,42.5
1833,G#3,229.5,1.5,18,42.5
1834,F4,231.0,3.0,30,42.5
1835,C#5,231.0,3.0,30,42.5
1836,C#3,231.0,3.0,18,42.5
1837,G#3,231.0,3.0,18,42.5
