,note_name,start_time,duration,velocity,tempo
0,C#4,0.0,0.75,77,90.0
1,A3,0.0,167/1000,44,90.0
2,C#5,0.125,0.125,53,90.0
3,C#3,0.167,167/1000,37,90.0
4,G#4,0.25,0.125,61,90.0
5,F#3,0.333,167/1000,39,90.0
6,B4,0.375,0.125,51,90.0
7,A4,0.5,0.125,55,90.0
8,F#2,0.5,0.5,34,90.0
9,F#4,0.625,0.125,46,90.0
10,D4,0.75,0.25,59,90.0
11,D5,0.875,0.125,48,90.0
12,C#4,1.0,0.75,73,90.0
13,A3,1.0,167/1000,47,90.0
14,C#5,1.125,0.125,50,90.0
15,C#3,1.167,167/1000,40,90.0
16,G#4,1.25,0.125,63,90.0
17,F#3,1.333,167/1000,44,90.0
18,B4,1.375,0.125,53,90.0
19,A4,1.5,0.125,57,90.0
20,A2,1.5,0.5,37,90.0
21,G#4,1.625,0.125,44,90.0
22,F#4,1.75,0.25,74,90.0
23,F#5,1.875,0.125,53,90.0
24,F#4,2.0,0.75,89,90.0
25,D4,2.0,167/1000,57,90.0
26,F#5,2.125,0.125,53,90.0
27,G#3,2.167,167/1000,49,90.0
28,B-4,2.25,0.125,64,90.0
29,B3,2.333,167/1000,52,90.0
30,C#5,2.375,0.125,52,90.0
31,B4,2.5,0.125,58,90.0
32,D3,2.5,0.5,45,90.0
33,G#4,2.625,0.125,46,90.0
34,F4,2.75,0.25,62,90.0
35,F5,2.875,0.125,50,90.0
36,A4,3.0,0.75,82,90.0
37,C#4,3.0,167/1000,53,90.0
38,A5,3.125,0.125,45,90.0
39,F3,3.167,167/1000,42,90.0
40,C5,3.25,0.125,60,90.0
41,B3,3.333,167/1000,50,90.0
42,D5,3.375,0.125,45,90.0
43,C#5,3.5,0.125,52,90.0
44,C#3,3.5,0.5,39,90.0
45,B4,3.625,0.125,44,90.0
46,G#4,3.75,0.25,52,90.0
47,G#5,3.875,0.125,48,90.0
48,C#4,4.0,0.75,80,90.0
49,A3,4.0,167/1000,53,90.0
50,C#5,4.125,0.125,56,90.0
51,C#3,4.167,167/1000,39,90.0
52,G#4,4.25,0.125,65,90.0
53,F#3,4.333,167/1000,48,90.0
54,B4,4.375,0.125,44,90.0
55,A4,4.5,0.125,56,90.0
56,F#2,4.5,0.5,36,90.0
57,F#4,4.625,0.125,45,90.0
58,D4,4.75,0.25,52,90.0
59,D5,4.875,0.125,48,90.0
60,C#4,5.0,0.75,75,90.0
61,A3,5.0,167/1000,51,90.0
62,C#5,5.125,0.125,53,90.0
63,C#3,5.167,167/1000,38,90.0
64,G#4,5.25,0.125,65,90.0
65,F#3,5.333,167/1000,46,90.0
66,B4,5.375,0.125,52,90.0
67,A4,5.5,0.125,59,90.0
68,A2,5.5,0.5,36,90.0
69,G#4,5.625,0.125,52,90.0
70,F#4,5.75,0.25,73,90.0
71,F#5,5.875,0.125,52,90.0
72,F#4,6.0,0.75,83,90.0
73,D4,6.0,167/1000,57,90.0
74,F#5,6.125,0.125,60,90.0
75,G#3,6.167,167/1000,45,90.0
76,B-4,6.25,0.125,69,90.0
77,B3,6.333,167/1000,51,90.0
78,C#5,6.375,0.125,48,90.0
79,B4,6.5,0.125,62,90.0
80,D3,6.5,0.5,41,90.0
81,G#4,6.625,0.125,46,90.0
82,F4,6.75,0.25,73,90.0
83,F5,6.875,0.125,55,90.0
84,A4,7.0,0.75,83,90.0
85,C#4,7.0,167/1000,50,90.0
86,A5,7.125,0.125,55,90.0
87,F3,7.167,167/1000,41,90.0
88,C5,7.25,0.125,65,90.0
89,B3,7.333,167/1000,44,90.0
90,D5,7.375,0.125,53,90.0
91,C#5,7.5,0.125,60,90.0
92,C#3,7.5,0.5,37,90.0
93,B4,7.625,0.125,46,90.0
94,G#4,7.75,0.25,55,90.0
95,G#5,7.875,0.125,52,90.0
96,C#5,8.0,0.75,83,90.0
97,A4,8.0,167/1000,57,90.0
98,C#6,8.125,0.125,55,90.0
99,E-4,8.167,167/1000,46,90.0
100,G#5,8.25,0.125,63,90.0
101,F#4,8.333,167/1000,55,90.0
102,B5,8.375,0.125,53,90.0
103,A5,8.5,0.125,62,90.0
104,A3,8.5,0.5,49,90.0
105,F#5,8.625,0.125,53,90.0
106,E-5,8.75,0.25,62,90.0
107,E-6,8.875,0.125,57,90.0
108,C#5,9.0,0.75,80,90.0
109,G#4,9.0,167/1000,57,90.0
110,C#6,9.125,0.125,51,90.0
111,E-4,9.167,167/1000,50,90.0
112,F5,9.25,0.125,60,90.0
113,F#4,9.333,167/1000,57,90.0
114,G#5,9.375,0.125,52,90.0
115,F#5,9.5,0.125,59,90.0
116,G#3,9.5,0.5,46,90.0
117,D5,9.625,0.125,48,90.0
118,C5,9.75,0.25,60,90.0
119,C6,9.875,0.125,55,90.0
120,B4,10.0,0.75,77,90.0
121,G4,10.0,167/1000,59,90.0
122,B5,10.125,0.125,46,90.0
123,C#4,10.167,167/1000,49,90.0
124,F#5,10.25,0.125,60,90.0
125,E4,10.333,167/1000,57,90.0
126,A5,10.375,0.125,47,90.0
127,G5,10.5,0.125,56,90.0
128,G3,10.5,0.5,44,90.0
129,E5,10.625,0.125,47,90.0
130,C#5,10.75,0.25,57,90.0
131,C#6,10.875,0.125,55,90.0
132,B4,11.0,0.75,73,90.0
133,F#4,11.0,167/1000,57,90.0
134,B5,11.125,0.125,45,90.0
135,C#4,11.167,167/1000,47,90.0
136,E-5,11.25,0.125,51,90.0
137,E4,11.333,167/1000,53,90.0
138,F#5,11.375,0.125,45,90.0
139,E5,11.5,0.125,52,90.0
140,F#3,11.5,0.5,46,90.0
141,C#5,11.625,0.125,47,90.0
142,B-4,11.75,0.25,57,90.0
143,B-5,11.875,0.125,50,90.0
144,A4,12.0,0.75,75,90.0
145,F4,12.0,167/1000,58,90.0
146,A5,12.125,0.125,51,90.0
147,C4,12.167,167/1000,49,90.0
148,D5,12.25,0.125,60,90.0
149,E-4,12.333,167/1000,55,90.0
150,F5,12.375,0.125,44,90.0
151,E-5,12.5,0.125,51,90.0
152,F3,12.5,0.5,45,90.0
153,C5,12.625,0.125,44,90.0
154,B4,12.75,0.25,59,90.0
155,B5,12.875,0.125,48,90.0
156,A4,13.0,0.75,73,90.0
157,F4,13.0,167/1000,55,90.0
158,A5,13.125,0.125,45,90.0
159,B3,13.167,167/1000,48,90.0
160,C#5,13.25,0.125,50,90.0
161,D4,13.333,167/1000,52,90.0
162,E5,13.375,0.125,42,90.0
163,D5,13.5,0.125,48,90.0
164,F3,13.5,0.5,46,90.0
165,B4,13.625,0.125,42,90.0
166,G#4,13.75,0.25,59,90.0
167,G#5,13.875,0.125,47,90.0
168,F#4,14.0,0.75,74,90.0
169,D4,14.0,167/1000,57,90.0
170,F#5,14.125,0.125,42,90.0
171,G#3,14.167,167/1000,51,90.0
172,B-4,14.25,0.125,48,90.0
173,B3,14.333,167/1000,53,90.0
174,C#5,14.375,0.125,42,90.0
175,B4,14.5,0.125,47,90.0
176,D3,14.5,0.5,48,90.0
177,G#4,14.625,0.125,38,90.0
178,F4,14.75,0.25,57,90.0
179,F5,14.875,0.125,45,90.0
180,D4,15.0,0.75,72,90.0
181,B3,15.0,167/1000,58,90.0
182,D5,15.125,0.125,37,90.0
183,C#3,15.167,167/1000,46,90.0
184,G4,15.25,0.125,47,90.0
185,F3,15.333,167/1000,51,90.0
186,A4,15.375,0.125,37,90.0
187,G#4,15.5,0.125,46,90.0
188,C#2,15.5,0.5,42,90.0
189,F4,15.625,0.125,36,90.0
190,C#4,15.75,0.25,63,90.0
191,C#5,15.875,0.125,42,90.0
192,C#4,16.0,0.75,84,90.0
193,A3,16.0,167/1000,56,90.0
194,C#5,16.125,0.125,54,90.0
195,C#3,16.167,167/1000,44,90.0
196,G#4,16.25,0.125,62,90.0
197,F#3,16.333,167/1000,50,90.0
198,B4,16.375,0.125,46,90.0
199,A4,16.5,0.125,53,90.0
200,F#2,16.5,0.5,38,90.0
201,F#4,16.625,0.125,37,90.0
202,D4,16.75,0.25,63,90.0
203,D5,16.875,0.125,40,90.0
204,C#4,17.0,0.75,75,90.0
205,A3,17.0,167/1000,59,90.0
206,C#5,17.125,0.125,46,90.0
207,C#3,17.167,167/1000,49,90.0
208,G#4,17.25,0.125,57,90.0
209,F#3,17.333,167/1000,53,90.0
210,B4,17.375,0.125,38,90.0
211,A4,17.5,0.125,47,90.0
212,A2,17.5,0.5,45,90.0
213,G#4,17.625,0.125,38,90.0
214,F#4,17.75,0.25,71,90.0
215,F#5,17.875,0.125,46,90.0
216,F#4,18.0,0.75,84,90.0
217,D4,18.0,167/1000,60,90.0
218,F#5,18.125,0.125,55,90.0
219,G#3,18.167,167/1000,49,90.0
220,B-4,18.25,0.125,64,90.0
221,B3,18.333,167/1000,55,90.0
222,C#5,18.375,0.125,44,90.0
223,B4,18.5,0.125,51,90.0
224,D3,18.5,0.5,44,90.0
225,G#4,18.625,0.125,42,90.0
226,F4,18.75,0.25,59,90.0
227,F5,18.875,0.125,48,90.0
228,A4,19.0,0.75,77,90.0
229,C#4,19.0,167/1000,56,90.0
230,A5,19.125,0.125,49,90.0
231,F3,19.167,167/1000,39,90.0
232,C5,19.25,0.125,56,90.0
233,B3,19.333,167/1000,48,90.0
234,D5,19.375,0.125,44,90.0
235,C#5,19.5,0.125,48,90.0
236,C#3,19.5,0.5,37,90.0
237,B4,19.625,0.125,38,90.0
238,G#4,19.75,0.25,56,90.0
239,G#5,19.875,0.125,45,90.0
240,C#4,20.0,0.75,81,90.0
241,A3,20.0,167/1000,58,90.0
242,C#5,20.125,0.125,52,90.0
243,C#3,20.167,167/1000,40,90.0
244,G#4,20.25,0.125,59,90.0
245,F#3,20.333,167/1000,50,90.0
246,B4,20.375,0.125,37,90.0
247,A4,20.5,0.125,53,90.0
248,F#2,20.5,0.5,40,90.0
249,F#4,20.625,0.125,40,90.0
250,D4,20.75,0.25,58,90.0
251,D5,20.875,0.125,45,90.0
252,C#4,21.0,0.75,75,90.0
253,A3,21.0,167/1000,57,90.0
254,C#5,21.125,0.125,42,90.0
255,C#3,21.167,167/1000,40,90.0
256,G#4,21.25,0.125,48,90.0
257,F#3,21.333,167/1000,48,90.0
258,B4,21.375,0.125,42,90.0
259,A4,21.5,0.125,48,90.0
260,A2,21.5,0.5,39,90.0
261,G#4,21.625,0.125,42,90.0
262,F#4,21.75,0.25,71,90.0
263,A5,21.875,0.125,48,90.0
264,A4,22.0,0.75,85,90.0
265,F4,22.0,167/1000,60,90.0
266,A5,22.125,0.125,50,90.0
267,B3,22.167,167/1000,42,90.0
268,C#5,22.25,0.125,59,90.0
269,D4,22.333,167/1000,49,90.0
270,E5,22.375,0.125,46,90.0
271,D5,22.5,0.125,51,90.0
272,F3,22.5,0.5,41,90.0
273,B4,22.625,0.125,42,90.0
274,G#4,22.75,0.25,58,90.0
275,G#5,22.875,0.125,48,90.0
276,C#5,23.0,0.75,83,90.0
277,E4,23.0,167/1000,58,90.0
278,C#6,23.125,0.125,46,90.0
279,G#3,23.167,167/1000,44,90.0
280,E-5,23.25,0.125,55,90.0
281,D4,23.333,167/1000,50,90.0
282,F#5,23.375,0.125,47,90.0
283,E5,23.5,0.125,55,90.0
284,E3,23.5,0.5,42,90.0
285,D5,23.625,0.125,47,90.0
286,B4,23.75,0.25,66,90.0
287,B5,23.875,0.125,51,90.0
288,E5,24.0,0.75,79,90.0
289,C5,24.0,167/1000,58,90.0
290,E6,24.125,0.125,56,90.0
291,F#4,24.167,167/1000,46,90.0
292,B5,24.25,0.125,62,90.0
293,A4,24.333,167/1000,50,90.0
294,D6,24.375,0.125,47,90.0
295,C6,24.5,0.125,55,90.0
296,C4,24.5,0.5,42,90.0
297,A5,24.625,0.125,47,90.0
298,F#5,24.75,0.25,59,90.0
299,F#6,24.875,0.125,51,90.0
300,E5,25.0,0.75,75,90.0
301,B4,25.0,167/1000,59,90.0
302,E6,25.125,0.125,51,90.0
303,F#4,25.167,167/1000,46,90.0
304,G#5,25.25,0.125,57,90.0
305,A4,25.333,167/1000,50,90.0
306,B5,25.375,0.125,44,90.0
307,A5,25.5,0.125,52,90.0
308,B3,25.5,0.5,41,90.0
309,F#5,25.625,0.125,46,90.0
310,E-5,25.75,0.25,60,90.0
311,E-6,25.875,0.125,50,90.0
312,D5,26.0,0.75,75,90.0
313,B-4,26.0,167/1000,57,90.0
314,D6,26.125,0.125,44,90.0
315,F4,26.167,167/1000,46,90.0
316,G5,26.25,0.125,53,90.0
317,G#4,26.333,167/1000,51,90.0
318,B-5,26.375,0.125,48,90.0
319,G#5,26.5,0.125,50,90.0
320,B-3,26.5,0.5,44,90.0
321,F5,26.625,0.125,47,90.0
322,E5,26.75,0.25,55,90.0
323,E6,26.875,0.125,47,90.0
324,D5,27.0,0.75,73,90.0
325,A4,27.0,167/1000,57,90.0
326,D6,27.125,0.125,42,90.0
327,E4,27.167,167/1000,45,90.0
328,F#5,27.25,0.125,47,90.0
329,G4,27.333,167/1000,51,90.0
330,A5,27.375,0.125,42,90.0
331,G5,27.5,0.125,47,90.0
332,A3,27.5,0.5,40,90.0
333,E5,27.625,0.125,40,90.0
334,C#5,27.75,0.25,55,90.0
335,C#6,27.875,0.125,45,90.0
336,C5,28.0,0.75,76,90.0
337,G#4,28.0,167/1000,52,90.0
338,C6,28.125,0.125,44,90.0
339,E-4,28.167,167/1000,46,90.0
340,F5,28.25,0.125,52,90.0
341,F#4,28.333,167/1000,51,90.0
342,G#5,28.375,0.125,42,90.0
343,F#5,28.5,0.125,48,90.0
344,G#3,28.5,0.5,42,90.0
345,E-5,28.625,0.125,40,90.0
346,D5,28.75,0.25,55,90.0
347,D6,28.875,0.125,40,90.0
348,C5,29.0,0.75,73,90.0
349,G4,29.0,167/1000,55,90.0
350,C6,29.125,0.125,42,90.0
351,D4,29.167,167/1000,45,90.0
352,E5,29.25,0.125,47,90.0
353,F4,29.333,167/1000,49,90.0
354,G5,29.375,0.125,40,90.0
355,F5,29.5,0.125,47,90.0
356,G3,29.5,0.5,40,90.0
357,D5,29.625,0.125,40,90.0
358,B4,29.75,0.25,55,90.0
359,B5,29.875,0.125,40,90.0
360,B4,30.0,0.75,73,90.0
361,G4,30.0,167/1000,55,90.0
362,B5,30.125,0.125,37,90.0
363,C#4,30.167,167/1000,42,90.0
364,E-5,30.25,0.125,46,90.0
365,E4,30.333,167/1000,49,90.0
366,F#5,30.375,0.125,36,90.0
367,E5,30.5,0.125,45,90.0
368,G3,30.5,0.5,42,90.0
369,C#5,30.625,0.125,37,90.0
370,B-4,30.75,0.25,53,90.0
371,B-5,30.875,0.125,42,90.0
372,B-4,31.0,0.75,67,90.0
373,F#4,31.0,167/1000,53,90.0
374,B-5,31.125,0.125,37,90.0
375,C#4,31.167,167/1000,40,90.0
376,E-5,31.25,0.125,44,90.0
377,E4,31.333,167/1000,47,90.0
378,F#5,31.375,0.125,37,90.0
379,E5,31.5,0.125,44,90.0
380,F#3,31.5,0.5,40,90.0
381,C#5,31.625,0.125,37,90.0
382,B-4,31.75,0.25,58,90.0
383,B-5,31.875,0.125,42,90.0
384,B-4,32.0,0.75,81,90.0
385,F4,32.0,167/1000,52,90.0
386,B5,32.125,0.125,54,90.0
387,B-3,32.167,167/1000,40,90.0
388,E5,32.25,0.125,59,90.0
389,D4,32.333,167/1000,49,90.0
390,G5,32.375,0.125,38,90.0
391,F5,32.5,0.125,54,90.0
392,F3,32.5,0.5,39,90.0
393,D5,32.625,0.125,44,90.0
394,A4,32.75,0.25,58,90.0
395,A5,32.875,0.125,44,90.0
396,A4,33.0,0.75,78,90.0
397,F4,33.0,167/1000,51,90.0
398,A5,33.125,0.125,46,90.0
399,B3,33.167,167/1000,41,90.0
400,C#5,33.25,0.125,56,90.0
401,D4,33.333,167/1000,48,90.0
402,E5,33.375,0.125,37,90.0
403,D5,33.5,0.125,50,90.0
404,F3,33.5,0.5,41,90.0
405,B4,33.625,0.125,44,90.0
406,G#4,33.75,0.25,58,90.0
407,G#5,33.875,0.125,44,90.0
408,G#4,34.0,0.75,83,90.0
409,F4,34.0,167/1000,53,90.0
410,G#5,34.125,0.125,38,90.0
411,G3,34.167,167/1000,42,90.0
412,C#5,34.25,0.125,50,90.0
413,B3,34.333,167/1000,49,90.0
414,E-5,34.375,0.125,38,90.0
415,D5,34.5,0.125,45,90.0
416,F3,34.5,0.5,41,90.0
417,B4,34.625,0.125,40,90.0
418,G4,34.75,0.25,62,90.0
419,G5,34.875,0.125,46,90.0
420,G4,35.0,0.75,80,90.0
421,E-4,35.0,167/1000,53,90.0
422,G5,35.125,0.125,42,90.0
423,G3,35.167,167/1000,45,90.0
424,D5,35.25,0.125,46,90.0
425,C4,35.333,167/1000,50,90.0
426,E5,35.375,0.125,42,90.0
427,E-5,35.5,0.125,47,90.0
428,F3,35.5,0.5,41,90.0
429,D5,35.625,0.125,46,90.0
430,C5,35.75,0.25,62,90.0
431,C6,35.875,0.125,46,90.0
432,C5,36.0,0.75,85,90.0
433,G4,36.0,167/1000,56,90.0
434,C6,36.125,0.125,53,90.0
435,C4,36.167,167/1000,46,90.0
436,F#5,36.25,0.125,61,90.0
437,E-4,36.333,167/1000,50,90.0
438,G#5,36.375,0.125,42,90.0
439,G5,36.5,0.125,48,90.0
440,F3,36.5,0.5,40,90.0
441,E-5,36.625,0.125,44,90.0
442,B4,36.75,0.25,66,90.0
443,B5,36.875,0.125,48,90.0
444,B4,37.0,0.75,82,90.0
445,G4,37.0,167/1000,55,90.0
446,B5,37.125,0.125,51,90.0
447,C#4,37.167,167/1000,45,90.0
448,E-5,37.25,0.125,62,90.0
449,E4,37.333,167/1000,51,90.0
450,F#5,37.375,0.125,45,90.0
451,E5,37.5,0.125,52,90.0
452,F3,37.5,0.5,39,90.0
453,C#5,37.625,0.125,45,90.0
454,B-4,37.75,0.25,61,90.0
455,B-5,37.875,0.125,50,90.0
456,B-4,38.0,0.75,84,90.0
457,G4,38.0,167/1000,55,90.0
458,B-5,38.125,0.125,46,90.0
459,A3,38.167,167/1000,48,90.0
460,E-5,38.25,0.125,55,90.0
461,C#4,38.333,167/1000,52,90.0
462,F5,38.375,0.125,48,90.0
463,E5,38.5,0.125,55,90.0
464,F3,38.5,0.5,40,90.0
465,C#5,38.625,0.125,47,90.0
466,A4,38.75,0.25,62,90.0
467,A5,38.875,0.125,51,90.0
468,A4,39.0,0.75,82,90.0
469,F4,39.0,167/1000,56,90.0
470,A5,39.125,0.125,47,90.0
471,A3,39.167,167/1000,50,90.0
472,E5,39.25,0.125,59,90.0
473,D4,39.333,167/1000,52,90.0
474,G5,39.375,0.125,50,90.0
475,F5,39.5,0.125,56,90.0
476,F3,39.5,0.5,47,90.0
477,E5,39.625,0.125,48,90.0
478,D5,39.75,0.25,70,90.0
479,D6,39.875,0.125,52,90.0
480,D5,40.0,0.75,90,90.0
481,F4,40.0,167/1000,61,90.0
482,D6,40.125,0.125,58,90.0
483,A3,40.167,167/1000,51,90.0
484,E5,40.25,0.125,68,90.0
485,E-4,40.333,167/1000,57,90.0
486,G5,40.375,0.125,47,90.0
487,F5,40.5,0.125,56,90.0
488,F3,40.5,0.5,48,90.0
489,E-5,40.625,0.125,47,90.0
490,C5,40.75,0.25,70,90.0
491,C6,40.875,0.125,55,90.0
492,C5,41.0,0.75,83,90.0
493,D4,41.0,167/1000,62,90.0
494,C6,41.125,0.125,55,90.0
495,F3,41.167,167/1000,49,90.0
496,E5,41.25,0.125,66,90.0
497,B-3,41.333,167/1000,57,90.0
498,G5,41.375,0.125,50,90.0
499,F5,41.5,0.125,56,90.0
500,B-2,41.5,0.5,47,90.0
501,D5,41.625,0.125,47,90.0
502,B-4,41.75,0.25,66,90.0
503,B-5,41.875,0.125,55,90.0
504,B-4,42.0,0.75,93,90.0
505,D4,42.0,167/1000,58,90.0
506,B-5,42.125,0.125,50,90.0
507,F#3,42.167,167/1000,51,90.0
508,C#5,42.25,0.125,60,90.0
509,C4,42.333,167/1000,58,90.0
510,E-5,42.375,0.125,48,90.0
511,D5,42.5,0.125,57,90.0
512,D3,42.5,0.5,49,90.0
513,C5,42.625,0.125,46,90.0
514,A4,42.75,0.25,70,90.0
515,A5,42.875,0.125,55,90.0
516,A4,43.0,0.75,88,90.0
517,B-3,43.0,167/1000,61,90.0
518,A5,43.125,0.125,50,90.0
519,D3,43.167,167/1000,50,90.0
520,C#5,43.25,0.125,59,90.0
521,G3,43.333,167/1000,56,90.0
522,E-5,43.375,0.125,50,90.0
523,D5,43.5,0.125,60,90.0
524,G2,43.5,0.5,45,90.0
525,B4,43.625,0.125,50,90.0
526,G4,43.75,0.25,72,90.0
527,G5,43.875,0.125,57,90.0
528,G4,44.0,0.75,93,90.0
529,B-3,44.0,167/1000,62,90.0
530,G5,44.125,0.125,51,90.0
531,D3,44.167,167/1000,56,90.0
532,A4,44.25,0.125,68,90.0
533,G#3,44.333,167/1000,63,90.0
534,C5,44.375,0.125,51,90.0
535,B-4,44.5,0.125,60,90.0
536,B-2,44.5,0.5,53,90.0
537,G#4,44.625,0.125,51,90.0
538,F4,44.75,0.25,77,90.0
539,F5,44.875,0.125,59,90.0
540,E4,45.0,0.75,90,90.0
541,B-3,45.0,167/1000,62,90.0
542,E5,45.125,0.125,50,90.0
543,D3,45.167,167/1000,58,90.0
544,A4,45.25,0.125,67,90.0
545,G#3,45.333,167/1000,63,90.0
546,C5,45.375,0.125,52,90.0
547,B-4,45.5,0.125,61,90.0
548,B-2,45.5,0.5,56,90.0
549,G#4,45.625,0.125,52,90.0
550,F4,45.75,0.25,78,90.0
551,F5,45.875,0.125,60,90.0
552,F4,46.0,0.75,97,90.0
553,G#3,46.0,167/1000,64,90.0
554,F5,46.125,0.125,55,90.0
555,B-2,46.167,167/1000,58,90.0
556,A4,46.25,0.125,62,90.0
557,D3,46.333,167/1000,64,90.0
558,B4,46.375,0.125,52,90.0
559,B-4,46.5,0.125,63,90.0
560,E-2,46.5,0.5,58,90.0
561,G#4,46.625,0.125,52,90.0
562,F4,46.75,0.25,78,90.0
563,F5,46.875,0.125,61,90.0
564,F#4,47.0,0.75,93,90.0
565,F#3,47.0,167/1000,67,90.0
566,F#5,47.125,0.125,56,90.0
567,B-2,47.167,167/1000,60,90.0
568,D5,47.25,0.125,64,90.0
569,E-3,47.333,167/1000,63,90.0
570,F5,47.375,0.125,57,90.0
571,E-5,47.5,0.125,64,90.0
572,E-2,47.5,0.5,57,90.0
573,B-4,47.625,0.125,55,90.0
574,F#4,47.75,0.25,77,90.0
575,F#5,47.875,0.125,62,90.0
576,F#4,48.0,0.75,99,90.0
577,G#3,48.0,167/1000,65,90.0
578,F#5,48.125,0.125,62,90.0
579,G#2,48.167,167/1000,56,90.0
580,G4,48.25,0.125,79,90.0
581,C#3,48.333,167/1000,64,90.0
582,B-4,48.375,0.125,66,90.0
583,G#4,48.5,0.125,73,90.0
584,E2,48.5,0.5,56,90.0
585,F#4,48.625,0.125,71,90.0
586,E4,48.75,0.25,78,90.0
587,E5,48.875,0.125,64,90.0
588,E4,49.0,0.75,93,90.0
589,G#3,49.0,167/1000,65,90.0
590,E5,49.125,0.125,59,90.0
591,G#2,49.167,167/1000,63,90.0
592,G4,49.25,0.125,66,90.0
593,C#3,49.333,167/1000,66,90.0
594,B-4,49.375,0.125,61,90.0
595,G#4,49.5,0.125,70,90.0
596,E2,49.5,0.5,60,90.0
597,E4,49.625,0.125,62,90.0
598,G#3,49.75,0.25,78,90.0
599,G#4,49.875,0.125,64,90.0
600,B3,50.0,0.75,94,90.0
601,F#3,50.0,167/1000,69,90.0
602,B4,50.125,0.125,61,90.0
603,B2,50.167,167/1000,63,90.0
604,F4,50.25,0.125,66,90.0
605,E-3,50.333,167/1000,66,90.0
606,G#4,50.375,0.125,63,90.0
607,F#4,50.5,0.125,71,90.0
608,F#2,50.5,0.5,57,90.0
609,E-4,50.625,0.125,62,90.0
610,B3,50.75,0.25,73,90.0
611,B4,50.875,0.125,66,90.0
612,B-3,51.0,0.75,92,90.0
613,F#3,51.0,167/1000,70,90.0
614,B-4,51.125,0.125,62,90.0
615,B2,51.167,167/1000,63,90.0
616,F4,51.25,0.125,69,90.0
617,E-3,51.333,167/1000,69,90.0
618,G#4,51.375,0.125,61,90.0
619,F#4,51.5,0.125,71,90.0
620,F#2,51.5,0.5,63,90.0
621,E-4,51.625,0.125,63,90.0
622,B3,51.75,0.25,72,90.0
623,B4,51.875,0.125,69,90.0
624,C4,52.0,0.75,96,90.0
625,F#3,52.0,167/1000,77,90.0
626,C5,52.125,0.125,66,90.0
627,B-2,52.167,167/1000,65,90.0
628,F4,52.25,0.125,73,90.0
629,E3,52.333,167/1000,72,90.0
630,G#4,52.375,0.125,70,90.0
631,F#4,52.5,0.125,78,90.0
632,F#2,52.5,0.5,64,90.0
633,E4,52.625,0.125,77,90.0
634,C4,52.75,0.25,78,90.0
635,C5,52.875,0.125,70,90.0
636,C#4,53.0,0.75,92,90.0
637,F#3,53.0,167/1000,75,90.0
638,C#5,53.125,0.125,64,90.0
639,B-2,53.167,167/1000,63,90.0
640,F4,53.25,0.125,73,90.0
641,E3,53.333,167/1000,72,90.0
642,G#4,53.375,0.125,64,90.0
643,F#4,53.5,0.125,72,90.0
644,F#2,53.5,0.5,64,90.0
645,E4,53.625,0.125,63,90.0
646,D4,53.75,0.25,84,90.0
647,D5,53.875,0.125,71,90.0
648,D4,54.0,0.75,96,90.0
649,E3,54.0,167/1000,81,90.0
650,D5,54.125,0.125,69,90.0
651,F#2,54.167,167/1000,65,90.0
652,F4,54.25,0.125,77,90.0
653,B-2,54.333,167/1000,72,90.0
654,G#4,54.375,0.125,71,90.0
655,F#4,54.5,0.125,77,90.0
656,B1,54.5,0.5,65,90.0
657,E4,54.625,0.125,69,90.0
658,D4,54.75,0.25,82,90.0
659,D5,54.875,0.125,72,90.0
660,E-4,55.0,0.75,98,90.0
661,E-3,55.0,167/1000,75,90.0
662,E-5,55.125,0.125,69,90.0
663,F#2,55.167,167/1000,64,90.0
664,B-4,55.25,0.125,77,90.0
665,B2,55.333,167/1000,70,90.0
666,C#5,55.375,0.125,71,90.0
667,B4,55.5,0.125,77,90.0
668,B1,55.5,0.5,61,90.0
669,F#4,55.625,0.125,72,90.0
670,E-4,55.75,0.25,80,90.0
671,E-5,55.875,0.125,73,90.0
672,E-4,56.0,0.75,103,90.0
673,G#3,56.0,167/1000,77,90.0
674,E-5,56.125,0.125,66,90.0
675,B2,56.167,167/1000,66,90.0
676,G#4,56.25,0.125,73,90.0
677,E-3,56.333,167/1000,73,90.0
678,C#5,56.375,0.125,70,90.0
679,B4,56.5,0.125,77,90.0
680,F2,56.5,0.5,67,90.0
681,G#4,56.625,0.125,66,90.0
682,E-4,56.75,0.25,85,90.0
683,E-5,56.875,0.125,70,90.0
684,D4,57.0,0.75,97,90.0
685,G#3,57.0,167/1000,76,90.0
686,D5,57.125,0.125,66,90.0
687,B2,57.167,167/1000,70,90.0
688,G#4,57.25,0.125,75,90.0
689,E-3,57.333,167/1000,77,90.0
690,C#5,57.375,0.125,71,90.0
691,B4,57.5,0.125,77,90.0
692,F2,57.5,0.5,72,90.0
693,G#4,57.625,0.125,71,90.0
694,E-4,57.75,0.25,78,90.0
695,E-5,57.875,0.125,72,90.0
696,F4,58.0,0.75,100,90.0
697,D4,58.0,167/1000,83,90.0
698,F5,58.125,0.125,72,90.0
699,F3,58.167,167/1000,71,90.0
700,B-4,58.25,0.125,80,90.0
701,B-3,58.333,167/1000,77,90.0
702,E-5,58.375,0.125,70,90.0
703,D5,58.5,0.125,77,90.0
704,B-2,58.5,0.5,71,90.0
705,B-4,58.625,0.125,71,90.0
706,F4,58.75,0.25,82,90.0
707,F5,58.875,0.125,75,90.0
708,F#4,59.0,0.75,95,90.0
709,D4,59.0,167/1000,79,90.0
710,F#5,59.125,0.125,69,90.0
711,F3,59.167,167/1000,72,90.0
712,B-4,59.25,0.125,73,90.0
713,B-3,59.333,167/1000,76,90.0
714,E-5,59.375,0.125,66,90.0
715,D5,59.5,0.125,72,90.0
716,B-2,59.5,0.5,71,90.0
717,B-4,59.625,0.125,66,90.0
718,F4,59.75,0.25,80,90.0
719,F5,59.875,0.125,71,90.0
720,E-4,60.0,0.75,102,90.0
721,G#3,60.0,167/1000,82,90.0
722,E-5,60.125,0.125,71,90.0
723,B2,60.167,167/1000,72,90.0
724,G#4,60.25,0.125,80,90.0
725,E-3,60.333,167/1000,76,90.0
726,C#5,60.375,0.125,64,90.0
727,B4,60.5,0.125,71,90.0
728,F2,60.5,0.5,72,90.0
729,G#4,60.625,0.125,63,90.0
730,E-4,60.75,0.25,83,90.0
731,E-5,60.875,0.125,70,90.0
732,D4,61.0,0.75,96,90.0
733,G#3,61.0,167/1000,77,90.0
734,D5,61.125,0.125,64,90.0
735,B2,61.167,167/1000,68,90.0
736,G#4,61.25,0.125,71,90.0
737,E-3,61.333,167/1000,73,90.0
738,C#5,61.375,0.125,63,90.0
739,B4,61.5,0.125,71,90.0
740,F2,61.5,0.5,65,90.0
741,G#4,61.625,0.125,66,90.0
742,E-4,61.75,0.25,84,90.0
743,E-5,61.875,0.125,71,90.0
744,F4,62.0,0.75,97,90.0
745,D4,62.0,167/1000,82,90.0
746,F5,62.125,0.125,69,90.0
747,F3,62.167,167/1000,71,90.0
748,B-4,62.25,0.125,73,90.0
749,B-3,62.333,167/1000,77,90.0
750,E-5,62.375,0.125,66,90.0
751,D5,62.5,0.125,75,90.0
752,B-2,62.5,0.5,70,90.0
753,B-4,62.625,0.125,69,90.0
754,F4,62.75,0.25,79,90.0
755,F5,62.875,0.125,72,90.0
756,B-4,63.0,0.75,93,90.0
757,D4,63.0,167/1000,75,90.0
758,B-5,63.125,0.125,57,90.0
759,F3,63.167,167/1000,66,90.0
760,E5,63.25,0.125,64,90.0
761,B-3,63.333,167/1000,72,90.0
762,F#5,63.375,0.125,60,90.0
763,F5,63.5,0.125,57,90.0
764,B-2,63.5,0.5,66,90.0
765,D5,63.625,0.125,52,90.0
766,B-4,63.75,0.25,81,90.0
767,B-5,63.875,0.125,45,90.0
768,E-4,64.0,0.75,80,90.0
769,G#3,64.0,167/1000,59,90.0
770,E-5,64.125,0.125,38,90.0
771,B2,64.167,167/1000,48,90.0
772,G#4,64.25,0.125,47,90.0
773,E-3,64.333,167/1000,55,90.0
774,C#5,64.375,0.125,40,90.0
775,B4,64.5,0.125,47,90.0
776,F2,64.5,0.5,42,90.0
777,G#4,64.625,0.125,40,90.0
778,E-4,64.75,0.25,62,90.0
779,E-5,64.875,0.125,44,90.0
780,D4,65.0,0.75,77,90.0
781,G#3,65.0,167/1000,56,90.0
782,D5,65.125,0.125,40,90.0
783,B2,65.167,167/1000,48,90.0
784,G#4,65.25,0.125,48,90.0
785,E-3,65.333,167/1000,53,90.0
786,C#5,65.375,0.125,40,90.0
787,B4,65.5,0.125,46,90.0
788,F2,65.5,0.5,41,90.0
789,G#4,65.625,0.125,37,90.0
790,E-4,65.75,0.25,64,90.0
791,E-5,65.875,0.125,44,90.0
792,F4,66.0,0.75,81,90.0
793,D4,66.0,167/1000,56,90.0
794,F5,66.125,0.125,38,90.0
795,F3,66.167,167/1000,44,90.0
796,B-4,66.25,0.125,45,90.0
797,B-3,66.333,167/1000,52,90.0
798,E-5,66.375,0.125,38,90.0
799,D5,66.5,0.125,47,90.0
800,B-2,66.5,0.5,42,90.0
801,B-4,66.625,0.125,38,90.0
802,F4,66.75,0.25,67,90.0
803,F5,66.875,0.125,44,90.0
804,F#4,67.0,0.75,85,90.0
805,D4,67.0,167/1000,56,90.0
806,F#5,67.125,0.125,38,90.0
807,F3,67.167,167/1000,48,90.0
808,B-4,67.25,0.125,47,90.0
809,B-3,67.333,167/1000,53,90.0
810,E-5,67.375,0.125,38,90.0
811,D5,67.5,0.125,46,90.0
812,B-2,67.5,0.5,45,90.0
813,B-4,67.625,0.125,38,90.0
814,F4,67.75,0.25,62,90.0
815,F5,67.875,0.125,44,90.0
816,E-4,68.0,0.75,81,90.0
817,G#3,68.0,167/1000,58,90.0
818,E-5,68.125,0.125,40,90.0
819,B2,68.167,167/1000,49,90.0
820,G#4,68.25,0.125,46,90.0
821,E-3,68.333,167/1000,52,90.0
822,C#5,68.375,0.125,40,90.0
823,B4,68.5,0.125,47,90.0
824,F2,68.5,0.5,45,90.0
825,G#4,68.625,0.125,40,90.0
826,E-4,68.75,0.25,66,90.0
827,E-5,68.875,0.125,46,90.0
828,D4,69.0,0.75,78,90.0
829,G#3,69.0,167/1000,57,90.0
830,D5,69.125,0.125,40,90.0
831,B2,69.167,167/1000,47,90.0
832,G#4,69.25,0.125,46,90.0
833,E-3,69.333,167/1000,53,90.0
834,C#5,69.375,0.125,40,90.0
835,B4,69.5,0.125,48,90.0
836,F2,69.5,0.5,47,90.0
837,G#4,69.625,0.125,40,90.0
838,E-4,69.75,0.25,66,90.0
839,E-5,69.875,0.125,47,90.0
840,F4,70.0,0.75,84,90.0
841,D4,70.0,167/1000,60,90.0
842,F5,70.125,0.125,44,90.0
843,F3,70.167,167/1000,53,90.0
844,B-4,70.25,0.125,48,90.0
845,B-3,70.333,167/1000,58,90.0
846,E-5,70.375,0.125,45,90.0
847,D5,70.5,0.125,50,90.0
848,B-2,70.5,0.5,50,90.0
849,B-4,70.625,0.125,45,90.0
850,F4,70.75,0.25,67,90.0
851,F5,70.875,0.125,48,90.0
852,F4,71.0,0.75,86,90.0
853,B3,71.0,167/1000,61,90.0
854,F5,71.125,0.125,44,90.0
855,C#3,71.167,167/1000,53,90.0
856,C5,71.25,0.125,51,90.0
857,F3,71.333,167/1000,62,90.0
858,D5,71.375,0.125,45,90.0
859,C#5,71.5,0.125,51,90.0
860,G#2,71.5,0.5,55,90.0
861,B4,71.625,0.125,45,90.0
862,C#4,71.75,0.25,77,90.0
863,C#5,71.875,0.125,46,90.0
864,C#4,72.0,0.75,92,90.0
865,A3,72.0,167/1000,64,90.0
866,C#5,72.125,0.125,47,90.0
867,C#3,72.167,167/1000,55,90.0
868,G#4,72.25,0.125,57,90.0
869,F#3,72.333,167/1000,59,90.0
870,B4,72.375,0.125,50,90.0
871,A4,72.5,0.125,59,90.0
872,F#2,72.5,0.5,57,90.0
873,F#4,72.625,0.125,50,90.0
874,D4,72.75,0.25,71,90.0
875,D5,72.875,0.125,55,90.0
876,C#4,73.0,0.75,83,90.0
877,A3,73.0,167/1000,66,90.0
878,C#5,73.125,0.125,47,90.0
879,C#3,73.167,167/1000,55,90.0
880,G#4,73.25,0.125,56,90.0
881,F#3,73.333,167/1000,61,90.0
882,B4,73.375,0.125,48,90.0
883,A4,73.5,0.125,57,90.0
884,A2,73.5,0.5,56,90.0
885,G#4,73.625,0.125,47,90.0
886,F#4,73.75,0.25,75,90.0
887,F#5,73.875,0.125,56,90.0
888,F#4,74.0,0.75,93,90.0
889,D4,74.0,167/1000,70,90.0
890,F#5,74.125,0.125,48,90.0
891,G#3,74.167,167/1000,59,90.0
892,B-4,74.25,0.125,60,90.0
893,B3,74.333,167/1000,64,90.0
894,C#5,74.375,0.125,48,90.0
895,B4,74.5,0.125,61,90.0
896,F#3,74.5,0.5,59,90.0
897,G#4,74.625,0.125,51,90.0
898,F4,74.75,0.25,70,90.0
899,F5,74.875,0.125,59,90.0
900,A4,75.0,0.75,84,90.0
901,C#4,75.0,167/1000,70,90.0
902,A5,75.125,0.125,51,90.0
903,F3,75.167,167/1000,59,90.0
904,C5,75.25,0.125,63,90.0
905,B3,75.333,167/1000,66,90.0
906,D5,75.375,0.125,55,90.0
907,C#5,75.5,0.125,63,90.0
908,C#3,75.5,0.5,58,90.0
909,B4,75.625,0.125,60,90.0
910,G#4,75.75,0.25,67,90.0
911,G#5,75.875,0.125,60,90.0
912,C#4,76.0,0.75,93,90.0
913,A3,76.0,167/1000,73,90.0
914,C#5,76.125,0.125,52,90.0
915,C#3,76.167,167/1000,60,90.0
916,G#4,76.25,0.125,60,90.0
917,F#3,76.333,167/1000,68,90.0
918,B4,76.375,0.125,51,90.0
919,A4,76.5,0.125,61,90.0
920,F#2,76.5,0.5,58,90.0
921,F#4,76.625,0.125,51,90.0
922,D4,76.75,0.25,70,90.0
923,D5,76.875,0.125,60,90.0
924,C#4,77.0,0.75,86,90.0
925,A3,77.0,167/1000,73,90.0
926,C#5,77.125,0.125,55,90.0
927,C#3,77.167,167/1000,60,90.0
928,G#4,77.25,0.125,63,90.0
929,F#3,77.333,167/1000,64,90.0
930,B4,77.375,0.125,52,90.0
931,A4,77.5,0.125,63,90.0
932,A2,77.5,0.5,58,90.0
933,G#4,77.625,0.125,52,90.0
934,F#4,77.75,0.25,79,90.0
935,A5,77.875,0.125,62,90.0
936,A4,78.0,0.75,91,90.0
937,F4,78.0,167/1000,72,90.0
938,A5,78.125,0.125,56,90.0
939,B3,78.167,167/1000,60,90.0
940,C#5,78.25,0.125,64,90.0
941,D4,78.333,167/1000,66,90.0
942,E5,78.375,0.125,52,90.0
943,D5,78.5,0.125,64,90.0
944,F3,78.5,0.5,58,90.0
945,B4,78.625,0.125,55,90.0
946,G#4,78.75,0.25,75,90.0
947,G#5,78.875,0.125,62,90.0
948,C#5,79.0,0.75,100,90.0
949,E4,79.0,167/1000,74,90.0
950,C#6,79.125,0.125,56,90.0
951,G#3,79.167,167/1000,59,90.0
952,E-5,79.25,0.125,66,90.0
953,D4,79.333,167/1000,66,90.0
954,F#5,79.375,0.125,59,90.0
955,E5,79.5,0.125,69,90.0
956,E3,79.5,0.5,60,90.0
957,D5,79.625,0.125,59,90.0
958,B4,79.75,0.25,78,90.0
959,B5,79.875,0.125,69,90.0
960,B4,80.0,0.75,101,90.0
961,G4,80.0,167/1000,78,90.0
962,B5,80.125,0.125,61,90.0
963,C#4,80.167,167/1000,66,90.0
964,E-5,80.25,0.125,70,90.0
965,E4,80.333,167/1000,73,90.0
966,F#5,80.375,0.125,60,90.0
967,E5,80.5,0.125,70,90.0
968,G3,80.5,0.5,62,90.0
969,C#5,80.625,0.125,60,90.0
970,B-4,80.75,0.25,84,90.0
971,B-5,80.875,0.125,71,90.0
972,D5,81.0,0.75,98,90.0
973,F#4,81.0,167/1000,82,90.0
974,D6,81.125,0.125,62,90.0
975,B-3,81.167,167/1000,70,90.0
976,F5,81.25,0.125,71,90.0
977,E4,81.333,167/1000,77,90.0
978,G5,81.375,0.125,63,90.0
979,F#5,81.5,0.125,71,90.0
980,F#3,81.5,0.5,68,90.0
981,E5,81.625,0.125,63,90.0
982,C#5,81.75,0.25,79,90.0
983,C#6,81.875,0.125,72,90.0
984,C#5,82.0,0.75,107,90.0
985,A4,82.0,167/1000,86,90.0
986,C#6,82.125,0.125,63,90.0
987,E-4,82.167,167/1000,72,90.0
988,F5,82.25,0.125,73,90.0
989,F#4,82.333,167/1000,79,90.0
990,G#5,82.375,0.125,66,90.0
991,F#5,82.5,0.125,73,90.0
992,A3,82.5,0.5,73,90.0
993,E-5,82.625,0.125,63,90.0
994,C5,82.75,0.25,84,90.0
995,C6,82.875,0.125,73,90.0
996,F5,83.0,0.75,105,90.0
997,C5,83.0,167/1000,86,90.0
998,F6,83.125,0.125,64,90.0
999,F#4,83.167,167/1000,74,90.0
1000,G#5,83.25,0.125,75,90.0
1001,A4,83.333,167/1000,79,90.0
1002,B5,83.375,0.125,69,90.0
1003,A5,83.5,0.125,75,90.0
1004,C4,83.5,0.5,74,90.0
1005,G#5,83.625,0.125,69,90.0
1006,F#5,83.75,0.25,84,90.0
1007,F#6,83.875,0.125,77,90.0
1008,G#5,84.0,0.75,108,90.0
1009,F#5,84.0,167/1000,89,90.0
1010,G#6,84.125,0.125,70,90.0
1011,A4,84.167,167/1000,76,90.0
1012,D6,84.25,0.125,81,90.0
1013,C5,84.333,167/1000,84,90.0
1014,F6,84.375,0.125,71,90.0
1015,E-6,84.5,0.125,78,90.0
1016,E-4,84.5,0.5,76,90.0
1017,C6,84.625,0.125,72,90.0
1018,A5,84.75,0.25,95,90.0
1019,A6,84.875,0.125,77,90.0
1020,G#5,85.0,0.75,106,90.0
1021,F#5,85.0,167/1000,85,90.0
1022,G#6,85.125,0.125,71,90.0
1023,A4,85.167,167/1000,78,90.0
1024,D6,85.25,0.125,77,90.0
1025,C5,85.333,167/1000,87,90.0
1026,F6,85.375,0.125,75,90.0
1027,E-6,85.5,0.125,71,90.0
1028,E-4,85.5,0.5,78,90.0
1029,C6,85.625,0.125,69,90.0
1030,A5,85.75,0.25,89,90.0
1031,A6,85.875,0.125,77,90.0
1032,G#5,86.0,0.75,109,90.0
1033,F#5,86.0,167/1000,88,90.0
1034,G#6,86.125,0.125,70,90.0
1035,A4,86.167,167/1000,78,90.0
1036,C#6,86.25,0.125,77,90.0
1037,C5,86.333,167/1000,87,90.0
1038,E6,86.375,0.125,72,90.0
1039,D6,86.5,0.125,78,90.0
1040,D4,86.5,0.5,77,90.0
1041,C6,86.625,0.125,71,90.0
1042,A5,86.75,0.25,92,90.0
1043,A6,86.875,0.125,77,90.0
1044,G#5,87.0,0.75,104,90.0
1045,F#5,87.0,167/1000,90,90.0
1046,G#6,87.125,0.125,75,90.0
1047,A4,87.167,167/1000,81,90.0
1048,C#6,87.25,0.125,82,90.0
1049,C5,87.333,167/1000,87,90.0
1050,E6,87.375,0.125,75,90.0
1051,D6,87.5,0.125,78,90.0
1052,D4,87.5,0.5,77,90.0
1053,C6,87.625,0.125,71,90.0
1054,A5,87.75,0.25,86,90.0
1055,A6,87.875,0.125,77,90.0
1056,A5,88.0,0.75,109,90.0
1057,F#5,88.0,167/1000,89,90.0
1058,A6,88.125,0.125,70,90.0
1059,A4,88.167,167/1000,76,90.0
1060,F6,88.25,0.125,77,90.0
1061,C#5,88.333,167/1000,83,90.0
1062,G#6,88.375,0.125,70,90.0
1063,F#6,88.5,0.125,77,90.0
1064,C#4,88.5,0.5,75,90.0
1065,C#6,88.625,0.125,66,90.0
1066,A5,88.75,0.25,90,90.0
1067,A6,88.875,0.125,70,90.0
1068,G#5,89.0,0.75,105,90.0
1069,E5,89.0,167/1000,87,90.0
1070,G#6,89.125,0.125,69,90.0
1071,G#4,89.167,167/1000,77,90.0
1072,E-6,89.25,0.125,78,90.0
1073,C#5,89.333,167/1000,83,90.0
1074,F#6,89.375,0.125,71,90.0
1075,E6,89.5,0.125,77,90.0
1076,C#4,89.5,0.5,74,90.0
1077,C#6,89.625,0.125,69,90.0
1078,G#5,89.75,0.25,86,90.0
1079,G#6,89.875,0.125,72,90.0
1080,E5,90.0,0.75,106,90.0
1081,C#5,90.0,167/1000,87,90.0
1082,E6,90.125,0.125,64,90.0
1083,E4,90.167,167/1000,77,90.0
1084,B5,90.25,0.125,73,90.0
1085,A4,90.333,167/1000,84,90.0
1086,D6,90.375,0.125,66,90.0
1087,C#6,90.5,0.125,71,90.0
1088,A3,90.5,0.5,76,90.0
1089,A5,90.625,0.125,63,90.0
1090,E5,90.75,0.25,94,90.0
1091,E6,90.875,0.125,71,90.0
1092,C#5,91.0,0.75,100,90.0
1093,A4,91.0,167/1000,80,90.0
1094,C#6,91.125,0.125,64,90.0
1095,C#4,91.167,167/1000,73,90.0
1096,G#5,91.25,0.125,71,90.0
1097,F#4,91.333,167/1000,79,90.0
1098,B5,91.375,0.125,64,90.0
1099,A5,91.5,0.125,70,90.0
1100,F#3,91.5,0.5,74,90.0
1101,F#5,91.625,0.125,62,90.0
1102,C#5,91.75,0.25,86,90.0
1103,C#6,91.875,0.125,63,90.0
1104,G#4,92.0,0.75,100,90.0
1105,E4,92.0,167/1000,84,90.0
1106,G#5,92.125,0.125,59,90.0
1107,G#3,92.167,167/1000,68,90.0
1108,E-5,92.25,0.125,69,90.0
1109,C#4,92.333,167/1000,78,90.0
1110,F#5,92.375,0.125,61,90.0
1111,E5,92.5,0.125,66,90.0
1112,C#3,92.5,0.5,67,90.0
1113,C#5,92.625,0.125,62,90.0
1114,G#4,92.75,0.25,84,90.0
1115,G#5,92.875,0.125,62,90.0
1116,F#4,93.0,0.75,96,90.0
1117,D4,93.0,167/1000,78,90.0
1118,F#5,93.125,0.125,57,90.0
1119,F#3,93.167,167/1000,67,90.0
1120,C#5,93.25,0.125,64,90.0
1121,A3,93.333,167/1000,74,90.0
1122,E5,93.375,0.125,57,90.0
1123,D5,93.5,0.125,64,90.0
1124,D3,93.5,0.5,68,90.0
1125,A4,93.625,0.125,52,90.0
1126,F#4,93.75,0.25,83,90.0
1127,F#5,93.875,0.125,61,90.0
1128,E4,94.0,0.75,100,90.0
1129,C#4,94.0,167/1000,78,90.0
1130,E5,94.125,0.125,55,90.0
1131,E3,94.167,167/1000,70,90.0
1132,B4,94.25,0.125,64,90.0
1133,A3,94.333,167/1000,79,90.0
1134,D5,94.375,0.125,59,90.0
1135,C#5,94.5,0.125,63,90.0
1136,A2,94.5,0.5,67,90.0
1137,A4,94.625,0.125,56,90.0
1138,E4,94.75,0.25,79,90.0
1139,E5,94.875,0.125,60,90.0
1140,D4,95.0,0.75,90,90.0
1141,B3,95.0,167/1000,77,90.0
1142,D5,95.125,0.125,52,90.0
1143,D3,95.167,167/1000,67,90.0
1144,A4,95.25,0.125,62,90.0
1145,G3,95.333,167/1000,77,90.0
1146,C#5,95.375,0.125,52,90.0
1147,B4,95.5,0.125,61,90.0
1148,B2,95.5,0.5,69,90.0
1149,G4,95.625,0.125,55,90.0
1150,D4,95.75,0.25,76,90.0
1151,D5,95.875,0.125,60,90.0
1152,C#4,96.0,0.75,89,90.0
1153,A3,96.0,167/1000,81,90.0
1154,C#5,96.125,0.125,60,90.0
1155,A2,96.167,167/1000,67,90.0
1156,G#4,96.25,0.125,70,90.0
1157,C#3,96.333,167/1000,75,90.0
1158,B4,96.375,0.125,59,90.0
1159,A4,96.5,0.125,64,90.0
1160,C#2,96.5,0.5,66,90.0
1161,F#4,96.625,0.125,61,90.0
1162,C#4,96.75,0.25,73,90.0
1163,C#5,96.875,0.125,60,90.0
1164,C#4,97.0,0.75,87,90.0
1165,A3,97.0,167/1000,82,90.0
1166,C#5,97.125,0.125,51,90.0
1167,A2,97.167,167/1000,66,90.0
1168,G#4,97.25,0.125,60,90.0
1169,C#3,97.333,167/1000,76,90.0
1170,B4,97.375,0.125,51,90.0
1171,A4,97.5,0.125,59,90.0
1172,C#2,97.5,0.5,68,90.0
1173,F#4,97.625,0.125,51,90.0
1174,C#4,97.75,0.25,73,90.0
1175,C#5,97.875,0.125,57,90.0
1176,C#4,98.0,0.75,89,90.0
1177,G#3,98.0,167/1000,80,90.0
1178,C#5,98.125,0.125,52,90.0
1179,A2,98.167,167/1000,67,90.0
1180,G#4,98.25,0.125,62,90.0
1181,C#3,98.333,167/1000,73,90.0
1182,B4,98.375,0.125,52,90.0
1183,A4,98.5,0.125,60,90.0
1184,C#2,98.5,0.5,68,90.0
1185,F#4,98.625,0.125,52,90.0
1186,C#4,98.75,0.25,72,90.0
1187,C#5,98.875,0.125,56,90.0
1188,C#4,99.0,0.75,85,90.0
1189,F#3,99.0,167/1000,78,90.0
1190,C#5,99.125,0.125,51,90.0
1191,A2,99.167,167/1000,68,90.0
1192,G#4,99.25,0.125,60,90.0
1193,C#3,99.333,167/1000,77,90.0
1194,B4,99.375,0.125,52,90.0
1195,A4,99.5,0.125,59,90.0
1196,C#2,99.5,0.5,70,90.0
1197,F#4,99.625,0.125,48,90.0
1198,C#4,99.75,0.25,61,90.0
1199,C#5,99.875,0.125,55,90.0
1200,C#4,100.0,0.75,89,90.0
1201,F#3,100.0,167/1000,75,90.0
1202,C#5,100.125,0.125,48,90.0
1203,G#2,100.167,167/1000,63,90.0
1204,G4,100.25,0.125,60,90.0
1205,C#3,100.333,167/1000,64,90.0
1206,A4,100.375,0.125,47,90.0
1207,G#4,100.5,0.125,55,90.0
1208,C#2,100.5,0.5,57,90.0
1209,F#4,100.625,0.125,47,90.0
1210,C#4,100.75,0.25,58,90.0
1211,C#5,100.875,0.125,51,90.0
1212,C#4,101.0,0.75,79,90.0
1213,F#3,101.0,167/1000,73,90.0
1214,C#5,101.125,0.125,50,90.0
1215,G#2,101.167,167/1000,61,90.0
1216,G4,101.25,0.125,57,90.0
1217,C#3,101.333,167/1000,66,90.0
1218,A4,101.375,0.125,48,90.0
1219,G#4,101.5,0.125,55,90.0
1220,C#2,101.5,0.5,58,90.0
1221,F#4,101.625,0.125,46,90.0
1222,C#4,101.75,0.25,58,90.0
1223,C#5,101.875,0.125,50,90.0
1224,C#4,102.0,0.75,79,90.0
1225,F3,102.0,167/1000,75,90.0
1226,C#5,102.125,0.125,45,90.0
1227,G#2,102.167,167/1000,64,90.0
1228,G4,102.25,0.125,50,90.0
1229,C#3,102.333,167/1000,69,90.0
1230,A4,102.375,0.125,42,90.0
1231,G#4,102.5,0.125,48,90.0
1232,C#2,102.5,0.5,56,90.0
1233,F4,102.625,0.125,42,90.0
1234,C#4,102.75,0.25,55,90.0
1235,C#5,102.875,0.125,46,90.0
1236,C#4,103.0,0.75,73,90.0
1237,F3,103.0,167/1000,74,90.0
1238,C#5,103.125,0.125,38,90.0
1239,G#2,103.167,167/1000,54,90.0
1240,G4,103.25,0.125,44,90.0
1241,C#3,103.333,167/1000,60,90.0
1242,A4,103.375,0.125,36,90.0
1243,G#4,103.5,0.125,44,90.0
1244,C#2,103.5,0.5,49,90.0
1245,F4,103.625,0.125,38,90.0
1246,C#4,103.75,0.25,50,90.0
1247,C#5,103.875,0.125,38,90.0
1248,C#4,104.0,0.75,69,90.0
1249,A3,104.0,167/1000,49,90.0
1250,C#5,104.125,0.125,35,90.0
1251,C#3,104.167,167/1000,39,90.0
1252,G#4,104.25,0.125,40,90.0
1253,F#3,104.333,167/1000,45,90.0
1254,B4,104.375,0.125,35,90.0
1255,A4,104.5,0.125,40,90.0
1256,F#2,104.5,0.5,38,90.0
1257,F#4,104.625,0.125,35,90.0
1258,C#4,104.75,0.25,52,90.0
1259,C#5,104.875,0.125,38,90.0
1260,C#4,105.0,0.75,68,90.0
1261,A3,105.0,167/1000,49,90.0
1262,C#5,105.125,0.125,34,90.0
1263,C#3,105.167,167/1000,39,90.0
1264,G#4,105.25,0.125,37,90.0
1265,F#3,105.333,167/1000,44,90.0
1266,B4,105.375,0.125,31,90.0
1267,A4,105.5,0.125,37,90.0
1268,F#2,105.5,0.5,37,90.0
1269,F#4,105.625,0.125,30,90.0
1270,C#4,105.75,0.25,50,90.0
1271,C#5,105.875,0.125,37,90.0
1272,C#4,106.0,0.75,69,90.0
1273,A3,106.0,167/1000,49,90.0
1274,C#5,106.125,0.125,31,90.0
1275,C#3,106.167,167/1000,39,90.0
1276,G#4,106.25,0.125,37,90.0
1277,F#3,106.333,167/1000,45,90.0
1278,B4,106.375,0.125,31,90.0
1279,A4,106.5,0.125,37,90.0
1280,F#2,106.5,0.5,38,90.0
1281,F#4,106.625,0.125,36,90.0
1282,C#4,106.75,0.25,49,90.0
1283,C#5,106.875,0.125,38,90.0
1284,C#4,107.0,0.75,71,90.0
1285,A3,107.0,167/1000,49,90.0
1286,C#5,107.125,0.125,34,90.0
1287,C#3,107.167,167/1000,39,90.0
1288,G#4,107.25,0.125,38,90.0
1289,F#3,107.333,167/1000,49,90.0
1290,B4,107.375,0.125,34,90.0
1291,A4,107.5,0.125,38,90.0
1292,F#2,107.5,0.5,45,90.0
1293,F#4,107.625,0.125,34,90.0
1294,C#4,107.75,0.25,49,90.0
1295,C#5,107.875,0.125,38,90.0
1296,D4,108.0,0.75,66,90.0
1297,F#3,108.0,167/1000,49,90.0
1298,D5,108.125,0.125,34,90.0
1299,F#2,108.167,167/1000,41,90.0
1300,B-4,108.25,0.125,37,90.0
1301,B2,108.333,167/1000,49,90.0
1302,C#5,108.375,0.125,31,90.0
1303,B4,108.5,0.125,37,90.0
1304,B1,108.5,0.5,39,90.0
1305,F#4,108.625,0.125,31,90.0
1306,D4,108.75,0.25,49,90.0
1307,D5,108.875,0.125,38,90.0
1308,D4,109.0,0.75,63,90.0
1309,F#3,109.0,167/1000,49,90.0
1310,D5,109.125,0.125,34,90.0
1311,F#2,109.167,167/1000,40,90.0
1312,B-4,109.25,0.125,38,90.0
1313,B2,109.333,167/1000,45,90.0
1314,C#5,109.375,0.125,34,90.0
1315,B4,109.5,0.125,40,90.0
1316,B1,109.5,0.5,39,90.0
1317,F#4,109.625,0.125,35,90.0
1318,D4,109.75,0.25,49,90.0
1319,D5,109.875,0.125,42,90.0
1320,D4,110.0,0.75,69,90.0
1321,F#3,110.0,167/1000,49,90.0
1322,D5,110.125,0.125,37,90.0
1323,F#2,110.167,167/1000,41,90.0
1324,B-4,110.25,0.125,44,90.0
1325,B2,110.333,167/1000,49,90.0
1326,C#5,110.375,0.125,36,90.0
1327,B4,110.5,0.125,44,90.0
1328,B1,110.5,0.5,39,90.0
1329,F#4,110.625,0.125,35,90.0
1330,D4,110.75,0.25,50,90.0
1331,D5,110.875,0.125,44,90.0
1332,F#4,111.0,0.75,71,90.0
1333,F#3,111.0,167/1000,50,90.0
1334,F#5,111.125,0.125,46,90.0
1335,F#2,111.167,167/1000,41,90.0
1336,B-4,111.25,0.125,51,90.0
1337,B2,111.333,167/1000,46,90.0
1338,C#5,111.375,0.125,45,90.0
1339,B4,111.5,0.125,48,90.0
1340,B1,111.5,0.5,40,90.0
1341,F#4,111.625,0.125,42,90.0
1342,D4,111.75,0.25,47,90.0
1343,D5,111.875,0.125,36,90.0
1344,C#4,112.0,0.75,59,90.0
1345,B-3,112.0,167/1000,39,90.0
1346,C#5,112.125,0.125,28,90.0
1347,C#3,112.167,167/1000,36,90.0
1348,G#4,112.25,0.125,36,90.0
1349,F#3,112.333,167/1000,37,90.0
1350,B4,112.375,0.125,29,90.0
1351,B-4,112.5,0.125,35,90.0
1352,F#2,112.5,0.5,35,90.0
1353,F#4,112.625,0.125,30,90.0
1354,C#4,112.75,0.25,41,90.0
1355,C#5,112.875,0.125,35,90.0
1356,C#4,113.0,0.75,58,90.0
1357,B-3,113.0,167/1000,39,90.0
1358,C#5,113.125,0.125,27,90.0
1359,C#3,113.167,167/1000,35,90.0
1360,G#4,113.25,0.125,34,90.0
1361,F#3,113.333,167/1000,36,90.0
1362,B4,113.375,0.125,27,90.0
1363,B-4,113.5,0.125,34,90.0
1364,F#2,113.5,0.5,34,90.0
1365,F#4,113.625,0.125,28,90.0
1366,C#4,113.75,0.25,41,90.0
1367,C#5,113.875,0.125,34,90.0
1368,C#4,114.0,0.75,58,90.0
1369,B-3,114.0,167/1000,39,90.0
1370,C#5,114.125,0.125,28,90.0
1371,C#3,114.167,167/1000,34,90.0
1372,G#4,114.25,0.125,34,90.0
1373,F#3,114.333,167/1000,37,90.0
1374,B4,114.375,0.125,28,90.0
1375,B-4,114.5,0.125,34,90.0
1376,F#2,114.5,0.5,31,90.0
1377,F#4,114.625,0.125,28,90.0
1378,C#4,114.75,0.25,40,90.0
1379,C#5,114.875,0.125,31,90.0
1380,C#4,115.0,0.75,58,90.0
1381,B-3,115.0,167/1000,39,90.0
1382,C#5,115.125,0.125,28,90.0
1383,C#3,115.167,167/1000,31,90.0
1384,G#4,115.25,0.125,31,90.0
1385,F#3,115.333,167/1000,38,90.0
1386,B4,115.375,0.125,27,90.0
1387,B-4,115.5,0.125,31,90.0
1388,F#2,115.5,0.5,33,90.0
1389,F#4,115.625,0.125,25,90.0
1390,C#4,115.75,0.25,36,90.0
1391,C#5,115.875,0.125,31,90.0
1392,E-4,116.0,0.75,56,90.0
1393,F#3,116.0,167/1000,39,90.0
1394,E-5,116.125,0.125,22,90.0
1395,F#2,116.167,167/1000,34,90.0
1396,B-4,116.25,0.125,28,90.0
1397,B2,116.333,167/1000,36,90.0
1398,C#5,116.375,0.125,22,90.0
1399,B4,116.5,0.125,29,90.0
1400,B1,116.5,0.5,33,90.0
1401,F#4,116.625,0.125,23,90.0
1402,E-4,116.75,0.25,38,90.0
1403,E-5,116.875,0.125,29,90.0
1404,E-4,117.0,0.75,58,90.0
1405,F#3,117.0,167/1000,39,90.0
1406,E-5,117.125,0.125,23,90.0
1407,F#2,117.167,167/1000,34,90.0
1408,B-4,117.25,0.125,29,90.0
1409,B2,117.333,167/1000,37,90.0
1410,C#5,117.375,0.125,23,90.0
1411,B4,117.5,0.125,30,90.0
1412,B1,117.5,0.5,33,90.0
1413,F#4,117.625,0.125,23,90.0
1414,E-4,117.75,0.25,40,90.0
1415,E-5,117.875,0.125,30,90.0
1416,E-4,118.0,0.75,61,90.0
1417,F#3,118.0,167/1000,38,90.0
1418,E-5,118.125,0.125,27,90.0
1419,F#2,118.167,167/1000,36,90.0
1420,B-4,118.25,0.125,31,90.0
1421,B2,118.333,167/1000,38,90.0
1422,C#5,118.375,0.125,27,90.0
1423,B4,118.5,0.125,31,90.0
1424,B1,118.5,0.5,34,90.0
1425,F#4,118.625,0.125,30,90.0
1426,E-4,118.75,0.25,41,90.0
1427,E-5,118.875,0.125,34,90.0
1428,F#4,119.0,0.75,63,90.0
1429,F#3,119.0,167/1000,40,90.0
1430,F#5,119.125,0.125,37,90.0
1431,F#2,119.167,167/1000,34,90.0
1432,B-4,119.25,0.125,38,90.0
1433,B2,119.333,167/1000,39,90.0
1434,C#5,119.375,0.125,36,90.0
1435,B4,119.5,0.125,36,90.0
1436,B1,119.5,0.5,36,90.0
1437,F#4,119.625,0.125,34,90.0
1438,E-4,119.75,0.25,37,90.0
1439,E-5,119.875,0.125,27,90.0
1440,C#4,120.0,0.75,57,90.0
1441,B-3,120.0,167/1000,39,90.0
1442,C#5,120.125,0.125,20,90.0
1443,C#3,120.167,167/1000,34,90.0
1444,G#4,120.25,0.125,27,90.0
1445,F#3,120.333,167/1000,38,90.0
1446,B4,120.375,0.125,22,90.0
1447,B-4,120.5,0.125,27,90.0
1448,F#2,120.5,0.5,34,90.0
1449,F#4,120.625,0.125,23,90.0
1450,C#4,120.75,0.25,37,90.0
1451,C#5,120.875,0.125,27,90.0
1452,C#4,121.0,0.75,56,90.0
1453,B-3,121.0,167/1000,39,90.0
1454,C#5,121.125,0.125,23,90.0
1455,C#3,121.167,167/1000,31,90.0
1456,G#4,121.25,0.125,28,90.0
1457,F#3,121.333,167/1000,37,90.0
1458,B4,121.375,0.125,23,90.0
1459,B-4,121.5,0.125,28,90.0
1460,F#2,121.5,0.5,31,90.0
1461,F#4,121.625,0.125,22,90.0
1462,C#4,121.75,0.25,37,90.0
1463,C#5,121.875,0.125,29,90.0
1464,C#4,122.0,0.75,57,90.0
1465,B-3,122.0,167/1000,39,90.0
1466,C#5,122.125,0.125,25,90.0
1467,C#3,122.167,167/1000,34,90.0
1468,G#4,122.25,0.125,29,90.0
1469,F#3,122.333,167/1000,39,90.0
1470,B4,122.375,0.125,23,90.0
1471,B-4,122.5,0.125,29,90.0
1472,F#2,122.5,0.5,35,90.0
1473,F#4,122.625,0.125,23,90.0
1474,C#4,122.75,0.25,41,90.0
1475,C#5,122.875,0.125,29,90.0
1476,C#4,123.0,0.75,61,90.0
1477,B-3,123.0,167/1000,39,90.0
1478,C#5,123.125,0.125,23,90.0
1479,C#3,123.167,167/1000,34,90.0
1480,G#4,123.25,0.125,30,90.0
1481,F#3,123.333,167/1000,38,90.0
1482,B4,123.375,0.125,23,90.0
1483,B-4,123.5,0.125,30,90.0
1484,F#2,123.5,0.5,34,90.0
1485,F#4,123.625,0.125,23,90.0
1486,C#4,123.75,0.25,38,90.0
1487,C#5,123.875,0.125,29,90.0
1488,C#4,124.0,0.75,58,90.0
1489,A3,124.0,167/1000,39,90.0
1490,C#5,124.125,0.125,23,90.0
1491,C#3,124.167,167/1000,33,90.0
1492,G#4,124.25,0.125,29,90.0
1493,F#3,124.333,167/1000,37,90.0
1494,B4,124.375,0.125,23,90.0
1495,A4,124.5,0.125,29,90.0
1496,F#2,124.5,0.5,35,90.0
1497,F#4,124.625,0.125,25,90.0
1498,C#4,124.75,0.25,38,90.0
1499,C#5,124.875,0.125,29,90.0
1500,C#4,125.0,0.75,55,90.0
1501,A3,125.0,167/1000,39,90.0
1502,C#5,125.125,0.125,22,90.0
1503,C#3,125.167,167/1000,35,90.0
1504,G#4,125.25,0.125,29,90.0
1505,F#3,125.333,167/1000,39,90.0
1506,B4,125.375,0.125,23,90.0
1507,A4,125.5,0.125,28,90.0
1508,F#2,125.5,0.5,36,90.0
1509,F#4,125.625,0.125,23,90.0
1510,C#4,125.75,0.25,34,90.0
1511,C#5,125.875,0.125,28,90.0
1512,C#4,126.0,0.75,49,90.0
1513,A3,126.0,167/1000,37,90.0
1514,C#5,126.125,0.125,22,90.0
1515,C#3,126.167,167/1000,34,90.0
1516,G#4,126.25,0.125,28,90.0
1517,F#3,126.333,167/1000,37,90.0
1518,B4,126.375,0.125,23,90.0
1519,A4,126.5,0.125,27,90.0
1520,F#2,126.5,0.5,33,90.0
1521,F#4,126.625,0.125,22,90.0
1522,C#4,126.75,0.25,34,90.0
1523,C#5,126.875,0.125,27,90.0
1524,C#4,127.0,0.75,44,90.0
1525,A3,127.0,167/1000,35,90.0
1526,C#5,127.125,0.125,22,90.0
1527,C#3,127.167,167/1000,30,90.0
1528,G#4,127.25,0.125,27,90.0
1529,F#3,127.333,167/1000,34,90.0
1530,B4,127.375,0.125,22,90.0
1531,A4,127.5,0.125,27,90.0
1532,F#2,127.5,0.5,31,90.0
1533,F#4,127.625,0.125,23,90.0
1534,C#4,127.75,0.25,36,90.0
1535,C#5,127.875,0.125,27,90.0
1536,C#5,128.0,2.0,41,90.0
1537,E4,128.0,2.0,41,90.0
1538,C#4,128.0,2.0,41,90.0
1539,A2,128.0,2.0,33,90.0
1540,E3,128.0,2.0,33,90.0
1541,A3,128.0,2.0,33,90.0
1542,D4,130.0,1.0,38,90.0
1543,G4,130.0,1.0,38,90.0
1544,B4,130.0,1.0,38,90.0
1545,B2,130.0,1.0,30,90.0
1546,G3,130.0,1.0,30,90.0
1547,B3,131.0,1.0,35,90.0
1548,C#4,131.0,1.0,35,90.0
1549,F4,131.0,1.0,35,90.0
1550,C#3,131.0,1.0,26,90.0
1551,G#3,131.0,1.0,26,90.0
1552,F4,132.0,0.25,29,90.0
1553,F#2,132.25,3.75,31,90.0
1554,C#3,132.5,3.5,31,90.0
1555,A3,132.75,3.25,31,90.0
1556,C#4,133.0,3.0,25,90.0
1557,F#4,133.25,2.75,22,90.0
