,note_name,start_time,duration,velocity,tempo
0,B-3,2.0,1.0,72,187.26
1,B-1,2.0,1.0,44,187.26
2,B-2,2.0,1.0,44,187.26
3,E-3,3.0,0.188,52,187.26
4,E-4,3.0,0.188,52,187.26
5,E-1,3.0,1.0,39,187.26
6,E-2,3.0,1.0,39,187.26
7,E-3,3.5,0.188,54,187.26
8,E-4,3.5,0.188,54,187.26
9,E-3,4.0,0.188,59,187.26
10,E-4,4.0,0.188,59,187.26
11,E1,4.0,0.188,39,187.26
12,E2,4.0,0.188,39,187.26
13,E-3,4.5,0.188,60,187.26
14,E-4,4.5,0.188,60,187.26
15,F1,4.5,0.188,40,187.26
16,F2,4.5,0.188,40,187.26
17,E-3,5.0,1.0,66,187.26
18,E-4,5.0,1.0,66,187.26
19,F#1,5.0,1.0,46,187.26
20,F#2,5.0,1.0,46,187.26
21,F4,6.0,1.0,70,187.26
22,B3,6.0,1.0,70,187.26
23,E-4,6.0,1.0,70,187.26
24,F3,6.0,1.0,70,187.26
25,G#1,6.0,0.812,54,187.26
26,G#2,6.0,0.812,54,187.26
27,G#2,6.812,1.0,37,187.26
28,E-3,6.875,0.938,37,187.26
29,F3,6.938,0.875,37,187.26
30,B3,7.0,0.812,46,187.26
31,F4,7.0,0.5,59,187.26
32,B4,7.0,0.5,59,187.26
33,E-5,7.0,0.5,59,187.26
34,F5,7.0,0.5,59,187.26
35,E-4,7.5,0.5,60,187.26
36,E-5,7.5,0.5,60,187.26
37,B-2,7.812,1.188,37,187.26
38,F3,7.875,1.125,37,187.26
39,G#3,7.938,503/500,37,187.26
40,D4,8.0,1.0,46,187.26
41,F4,8.0,0.5,59,187.26
42,B-4,8.0,0.5,59,187.26
43,D5,8.0,0.5,59,187.26
44,F5,8.0,0.5,59,187.26
45,F#4,8.5,0.5,59,187.26
46,F#5,8.5,0.5,59,187.26
47,F#3,9.0,0.188,54,187.26
48,F#4,9.0,0.188,54,187.26
49,F#1,9.0,1.0,41,187.26
50,F#2,9.0,1.0,41,187.26
51,F#3,9.5,0.188,56,187.26
52,F#4,9.5,0.188,56,187.26
53,F#3,10.0,0.188,62,187.26
54,F#4,10.0,0.188,62,187.26
55,G1,10.0,0.188,41,187.26
56,G2,10.0,0.188,41,187.26
57,F#3,10.5,0.188,62,187.26
58,F#4,10.5,0.188,62,187.26
59,G#1,10.5,0.188,39,187.26
60,G#2,10.5,0.188,39,187.26
61,F#3,11.0,1.0,70,187.26
62,F#4,11.0,1.0,70,187.26
63,A1,11.0,1.0,47,187.26
64,A2,11.0,1.0,47,187.26
65,G#3,12.0,1.0,72,187.26
66,D4,12.0,1.0,72,187.26
67,F#4,12.0,1.0,72,187.26
68,G#4,12.0,1.0,72,187.26
69,B1,12.0,0.812,58,187.26
70,B2,12.0,0.812,58,187.26
71,C3,12.812,1.0,39,187.26
72,F#3,12.875,0.938,39,187.26
73,G#3,12.938,0.875,39,187.26
74,D4,13.0,0.812,48,187.26
75,G#5,13.0,0.5,62,187.26
76,D5,13.0,0.5,62,187.26
77,F#5,13.0,0.5,62,187.26
78,G#4,13.0,0.5,62,187.26
79,F#4,13.5,0.5,64,187.26
80,F#5,13.5,0.5,64,187.26
81,C#3,13.812,1.188,39,187.26
82,G#3,13.875,1.125,39,187.26
83,B3,13.938,1.062,39,187.26
84,F4,14.0,1.0,48,187.26
85,G#5,14.0,0.5,62,187.26
86,C#5,14.0,0.5,62,187.26
87,F5,14.0,0.5,62,187.26
88,G#4,14.0,0.5,62,187.26
89,A4,14.5,0.5,60,187.26
90,A5,14.5,0.5,60,187.26
91,A3,15.0,0.188,52,187.26
92,A4,15.0,0.188,52,187.26
93,A1,15.0,1.0,39,187.26
94,A2,15.0,1.0,39,187.26
95,A3,15.5,0.188,56,187.26
96,A4,15.5,0.188,56,187.26
97,A3,16.0,0.188,59,187.26
98,A4,16.0,0.188,59,187.26
99,B1,16.0,0.188,39,187.26
100,B2,16.0,0.188,39,187.26
101,A3,16.5,0.188,64,187.26
102,A4,16.5,0.188,64,187.26
103,C2,16.5,0.188,41,187.26
104,C3,16.5,0.188,41,187.26
105,A3,17.0,1.0,74,187.26
106,A4,17.0,1.0,74,187.26
107,C#2,17.0,1.0,50,187.26
108,C#3,17.0,1.0,50,187.26
109,B-3,18.0,0.188,54,187.26
110,B-4,18.0,0.188,54,187.26
111,G#4,18.0,0.188,54,187.26
112,G#3,18.0,0.188,54,187.26
113,F4,18.0,0.188,54,187.26
114,D2,18.0,1.0,44,187.26
115,D3,18.0,1.0,44,187.26
116,B-3,18.5,0.188,57,187.26
117,F4,18.5,0.188,57,187.26
118,G#4,18.5,0.188,57,187.26
119,G#3,18.5,0.188,57,187.26
120,B-4,18.5,0.188,57,187.26
121,B-3,19.0,0.188,59,187.26
122,F4,19.0,0.188,59,187.26
123,G#4,19.0,0.188,59,187.26
124,G#3,19.0,0.188,59,187.26
125,B-4,19.0,0.188,59,187.26
126,E-2,19.0,0.188,41,187.26
127,E-3,19.0,0.188,41,187.26
128,G#3,19.5,0.188,61,187.26
129,F4,19.5,0.188,61,187.26
130,G#4,19.5,0.188,61,187.26
131,B-3,19.5,0.188,61,187.26
132,B-4,19.5,0.188,61,187.26
133,E2,19.5,0.188,41,187.26
134,E3,19.5,0.188,41,187.26
135,G#3,20.0,1.0,71,187.26
136,B-4,20.0,1.0,71,187.26
137,G#4,20.0,1.0,71,187.26
138,B-3,20.0,1.0,71,187.26
139,D4,20.0,1.0,71,187.26
140,F2,20.0,1.0,49,187.26
141,F3,20.0,1.0,49,187.26
142,B-4,21.0,0.188,55,187.26
143,E-4,21.0,0.188,55,187.26
144,F#4,21.0,0.188,55,187.26
145,B-3,21.0,0.188,55,187.26
146,F#2,21.0,1.0,44,187.26
147,F#3,21.0,1.0,44,187.26
148,B-3,21.5,0.188,58,187.26
149,E-4,21.5,0.188,58,187.26
150,F#4,21.5,0.188,58,187.26
151,B-4,21.5,0.188,58,187.26
152,E-4,22.0,0.188,60,187.26
153,F#4,22.0,0.188,60,187.26
154,B-4,22.0,0.188,60,187.26
155,G#2,22.0,0.188,41,187.26
156,G#3,22.0,0.188,41,187.26
157,E-4,22.5,0.188,60,187.26
158,F#4,22.5,0.188,60,187.26
159,B-4,22.5,0.188,60,187.26
160,A2,22.5,0.188,41,187.26
161,A3,22.5,0.188,41,187.26
162,E-4,23.0,1.0,76,187.26
163,F#4,23.0,1.0,76,187.26
164,B-4,23.0,1.0,76,187.26
165,B-2,23.0,1.0,52,187.26
166,B-3,23.0,1.0,52,187.26
167,B-3,24.0,1.0,70,187.26
168,E-4,24.0,1.0,70,187.26
169,B-4,24.0,1.0,70,187.26
170,B2,24.0,1.0,52,187.26
171,B3,24.0,1.0,52,187.26
172,G#3,25.0,1.0,70,187.26
173,E-4,25.0,1.0,70,187.26
174,G#4,25.0,1.0,70,187.26
175,B1,25.0,1.0,48,187.26
176,B2,25.0,1.0,48,187.26
177,F#3,26.0,1.0,66,187.26
178,A3,26.0,1.0,66,187.26
179,E-4,26.0,1.0,66,187.26
180,F#4,26.0,1.0,66,187.26
181,C2,26.0,1.0,48,187.26
182,C3,26.0,1.0,48,187.26
183,B-3,27.0,0.5,55,187.26
184,C#4,27.0,0.5,55,187.26
185,F4,27.0,0.5,55,187.26
186,C#2,27.0,1.0,55,187.26
187,C#3,27.0,1.0,55,187.26
188,C#4,27.5,0.5,59,187.26
189,F#4,28.0,0.5,72,187.26
190,C#5,28.0,0.5,72,187.26
191,C#3,28.0,1.0,52,187.26
192,B-3,28.0,1.0,52,187.26
193,F#4,28.5,0.5,73,187.26
194,B-4,29.0,0.5,76,187.26
195,F#5,29.0,0.5,76,187.26
196,C#4,29.0,1.0,52,187.26
197,F#3,29.0,1.0,52,187.26
198,B-4,29.5,0.5,71,187.26
199,C#5,30.0,0.5,70,187.26
200,B-5,30.0,0.5,70,187.26
201,B-3,30.0,1.0,51,187.26
202,F#4,30.0,1.0,51,187.26
203,C#5,30.5,0.5,69,187.26
204,F#5,31.0,0.5,72,187.26
205,C#6,31.0,0.5,72,187.26
206,C#4,31.0,1.0,48,187.26
207,B-4,31.0,1.0,48,187.26
208,F#5,31.5,0.5,73,187.26
209,B-5,32.0,0.5,76,187.26
210,F#6,32.0,0.5,76,187.26
211,C#5,32.0,1.0,48,187.26
212,F#4,32.0,1.0,48,187.26
213,B-5,32.5,0.5,75,187.26
214,C#6,33.0,1.0,73,187.26
215,B-5,33.0,1.0,73,187.26
216,B-6,33.0,1.0,73,187.26
217,B-4,33.0,1.0,52,187.26
218,F#5,33.0,1.0,52,187.26
219,C#6,34.0,1.0,69,187.26
220,G#5,34.0,1.0,69,187.26
221,G#6,34.0,1.0,69,187.26
222,B4,34.0,1.0,48,187.26
223,F5,34.0,1.0,48,187.26
224,C#6,35.0,1.0,65,187.26
225,G#5,35.0,1.0,65,187.26
226,C#5,35.0,1.0,65,187.26
227,C#4,35.0,1.0,45,187.26
228,F4,35.0,1.0,45,187.26
229,B4,35.0,1.0,45,187.26
230,C#6,36.0,2.0,75,187.26
231,C#4,36.0,2.0,46,187.26
232,C#5,36.0,1.0,59,187.26
233,G#5,36.0,1.0,59,187.26
234,F4,36.0,1.0,49,187.26
235,B4,36.0,1.0,49,187.26
236,F#6,37.0,1.0,63,187.26
237,F#5,37.0,1.0,63,187.26
238,F#3,37.0,1.0,42,187.26
239,B-4,37.0,1.0,42,187.26
240,C#5,38.0,1.0,48,187.26
241,G#4,38.0,1.0,48,187.26
242,C#4,38.0,1.0,48,187.26
243,C#3,38.0,1.0,33,187.26
244,F3,38.0,1.0,33,187.26
245,B3,38.0,1.0,33,187.26
246,C#5,39.0,2.0,56,187.26
247,C#3,39.0,2.0,31,187.26
248,C#4,39.0,1.0,44,187.26
249,G#4,39.0,1.0,44,187.26
250,F3,39.0,1.0,38,187.26
251,B3,39.0,1.0,38,187.26
252,F#5,40.0,1.0,52,187.26
253,F#4,40.0,1.0,52,187.26
254,F#2,40.0,1.0,35,187.26
255,B-3,40.0,1.0,35,187.26
256,C#5,41.0,1.0,46,187.26
257,G#4,41.0,1.0,46,187.26
258,C#4,41.0,1.0,46,187.26
259,C#3,41.0,1.0,32,187.26
260,F3,41.0,1.0,32,187.26
261,B3,41.0,1.0,32,187.26
262,C#5,42.0,2.0,55,187.26
263,C#3,42.0,2.0,30,187.26
264,C#4,42.0,1.0,44,187.26
265,G#4,42.0,1.0,44,187.26
266,F3,42.0,1.0,36,187.26
267,B3,42.0,1.0,36,187.26
268,F#5,43.0,1.0,52,187.26
269,F#4,43.0,1.0,52,187.26
270,F#2,43.0,1.0,35,187.26
271,B-3,43.0,1.0,35,187.26
272,C#4,44.0,1.0,52,187.26
273,C#5,44.0,1.0,52,187.26
274,C#4,45.0,3.0,54,187.26
275,C#5,45.0,3.0,54,187.26
276,B-3,48.0,3.0,50,187.26
277,B-4,48.0,3.0,50,187.26
278,G#2,51.0,1.0,40,187.26
279,G#3,51.0,1.0,40,187.26
280,F#2,52.0,1.0,34,187.26
281,F#3,52.0,1.0,34,187.26
282,E-2,53.0,1.0,34,187.26
283,E-3,53.0,1.0,34,187.26
284,F#2,54.0,1.0,40,187.26
285,F#3,54.0,1.0,40,187.26
286,F2,55.0,1.0,34,187.26
287,F3,55.0,1.0,34,187.26
288,C#2,56.0,1.0,34,187.26
289,C#3,56.0,1.0,34,187.26
290,E-2,57.0,1.0,40,187.26
291,E-3,57.0,1.0,40,187.26
292,C#2,58.0,1.0,34,187.26
293,C#3,58.0,1.0,34,187.26
294,B-1,59.0,1.0,34,187.26
295,B-2,59.0,1.0,34,187.26
296,B-3,60.0,3.0,50,187.26
297,B-4,60.0,3.0,50,187.26
298,B1,60.0,1.0,36,187.26
299,B2,60.0,1.0,36,187.26
300,B-1,61.0,1.0,32,187.26
301,B-2,61.0,1.0,32,187.26
302,F#1,62.0,1.0,32,187.26
303,F#2,62.0,1.0,32,187.26
304,E-1,63.0,1.0,44,187.26
305,E-2,63.0,1.0,44,187.26
306,E1,64.0,0.188,41,187.26
307,E2,64.0,0.188,41,187.26
308,F1,64.5,0.188,42,187.26
309,F2,64.5,0.188,42,187.26
310,F#1,65.0,1.0,52,187.26
311,F#2,65.0,1.0,52,187.26
312,G#1,66.0,1.0,62,187.26
313,G#2,66.0,1.0,62,187.26
314,G#2,67.0,1.0,45,187.26
315,E-3,67.0,1.0,45,187.26
316,F3,67.0,1.0,45,187.26
317,B3,67.0,1.0,45,187.26
318,B-2,68.0,1.0,45,187.26
319,F3,68.0,1.0,45,187.26
320,G#3,68.0,1.0,45,187.26
321,D4,68.0,1.0,45,187.26
322,B-3,69.0,3.0,50,187.26
323,B-4,69.0,3.0,50,187.26
324,F#1,69.0,1.0,44,187.26
325,F#2,69.0,1.0,44,187.26
326,G1,70.0,0.188,41,187.26
327,G2,70.0,0.188,41,187.26
328,G#1,70.5,0.188,39,187.26
329,G#2,70.5,0.188,39,187.26
330,A1,71.0,1.0,50,187.26
331,A2,71.0,1.0,50,187.26
332,B1,72.0,1.0,62,187.26
333,B2,72.0,1.0,62,187.26
334,C3,73.0,1.0,45,187.26
335,F#3,73.0,1.0,45,187.26
336,G#3,73.0,1.0,45,187.26
337,D4,73.0,1.0,45,187.26
338,C#3,74.0,1.0,45,187.26
339,G#3,74.0,1.0,45,187.26
340,B3,74.0,1.0,45,187.26
341,F4,74.0,1.0,45,187.26
342,B-3,75.0,3.0,50,187.26
343,B-4,75.0,3.0,50,187.26
344,A1,75.0,1.0,39,187.26
345,A2,75.0,1.0,39,187.26
346,B1,76.0,0.188,39,187.26
347,B2,76.0,0.188,39,187.26
348,C2,76.5,0.188,41,187.26
349,C3,76.5,0.188,41,187.26
350,C#2,77.0,1.0,50,187.26
351,C#3,77.0,1.0,50,187.26
352,D2,78.0,1.0,44,187.26
353,D3,78.0,1.0,44,187.26
354,E-2,79.0,0.188,44,187.26
355,E-3,79.0,0.188,44,187.26
356,E2,79.5,0.188,44,187.26
357,E3,79.5,0.188,44,187.26
358,F2,80.0,1.0,49,187.26
359,F3,80.0,1.0,49,187.26
360,E-3,81.0,0.188,58,187.26
361,E-4,81.0,0.188,58,187.26
362,F#2,81.0,1.0,46,187.26
363,F#3,81.0,1.0,46,187.26
364,E-3,81.5,0.188,60,187.26
365,E-4,81.5,0.188,60,187.26
366,E-3,82.0,0.188,62,187.26
367,E-4,82.0,0.188,62,187.26
368,G2,82.0,0.188,46,187.26
369,G3,82.0,0.188,46,187.26
370,E-3,82.5,0.188,64,187.26
371,E-4,82.5,0.188,64,187.26
372,G#2,82.5,0.188,45,187.26
373,G#3,82.5,0.188,45,187.26
374,E-3,83.0,1.0,74,187.26
375,E-4,83.0,1.0,74,187.26
376,A2,83.0,1.0,54,187.26
377,A3,83.0,1.0,54,187.26
378,F4,84.0,1.0,79,187.26
379,B3,84.0,1.0,79,187.26
380,E-4,84.0,1.0,79,187.26
381,F3,84.0,1.0,79,187.26
382,F#3,84.0,1.0,53,187.26
383,C3,84.0,1.0,53,187.26
384,C4,84.0,1.0,53,187.26
385,F5,85.0,0.5,66,187.26
386,B4,85.0,0.5,66,187.26
387,E-5,85.0,0.5,66,187.26
388,F4,85.0,0.5,66,187.26
389,G3,85.0,1.0,48,187.26
390,B2,85.0,1.0,48,187.26
391,B3,85.0,1.0,48,187.26
392,E-4,85.5,0.5,68,187.26
393,E-5,85.5,0.5,68,187.26
394,F5,86.0,0.5,66,187.26
395,B-4,86.0,0.5,66,187.26
396,D5,86.0,0.5,66,187.26
397,F4,86.0,0.5,66,187.26
398,D1,86.0,1.0,54,187.26
399,D2,86.0,1.0,54,187.26
400,F#4,86.5,0.5,66,187.26
401,F#5,86.5,0.5,66,187.26
402,C#3,87.0,0.5,61,187.26
403,F#3,87.0,0.188,58,187.26
404,F#4,87.0,0.188,58,187.26
405,C#1,87.0,1.0,55,187.26
406,C#2,87.0,1.0,55,187.26
407,F#3,87.5,0.188,60,187.26
408,F#4,87.5,0.188,60,187.26
409,F#3,88.0,0.188,62,187.26
410,F#4,88.0,0.188,62,187.26
411,C#3,88.0,1.0,52,187.26
412,A3,88.0,1.0,52,187.26
413,F#3,88.5,0.188,62,187.26
414,F#4,88.5,0.188,62,187.26
415,F#3,89.0,1.0,74,187.26
416,F#4,89.0,1.0,74,187.26
417,C#4,89.0,1.0,52,187.26
418,F#3,89.0,1.0,52,187.26
419,G#3,90.0,1.0,77,187.26
420,D4,90.0,1.0,77,187.26
421,F#4,90.0,1.0,77,187.26
422,G#4,90.0,1.0,77,187.26
423,A3,90.0,1.0,51,187.26
424,F#4,90.0,1.0,51,187.26
425,G#5,91.0,0.5,66,187.26
426,D5,91.0,0.5,66,187.26
427,F#5,91.0,0.5,66,187.26
428,G#4,91.0,0.5,66,187.26
429,C#4,91.0,1.0,48,187.26
430,A4,91.0,1.0,48,187.26
431,F#4,91.5,0.5,68,187.26
432,F#5,91.5,0.5,68,187.26
433,G#5,92.0,0.5,66,187.26
434,C#5,92.0,0.5,66,187.26
435,F5,92.0,0.5,66,187.26
436,G#4,92.0,0.5,66,187.26
437,C#5,92.0,1.0,48,187.26
438,F#4,92.0,1.0,48,187.26
439,A4,92.5,0.5,64,187.26
440,A5,92.5,0.5,64,187.26
441,A3,93.0,0.188,52,187.26
442,A4,93.0,0.188,52,187.26
443,A4,93.0,1.0,52,187.26
444,F#5,93.0,1.0,52,187.26
445,A3,93.5,0.188,56,187.26
446,A4,93.5,0.188,56,187.26
447,A3,94.0,0.188,59,187.26
448,A4,94.0,0.188,59,187.26
449,B4,94.0,1.0,50,187.26
450,F5,94.0,1.0,50,187.26
451,A3,94.5,0.188,62,187.26
452,A4,94.5,0.188,62,187.26
453,A3,95.0,1.0,74,187.26
454,A4,95.0,1.0,74,187.26
455,C#4,95.0,1.0,45,187.26
456,F4,95.0,1.0,45,187.26
457,B4,95.0,1.0,45,187.26
458,C#4,96.0,2.0,46,187.26
459,B4,96.0,0.188,56,187.26
460,F4,96.0,0.188,56,187.26
461,A4,96.0,0.188,56,187.26
462,B3,96.0,0.188,56,187.26
463,F4,96.0,1.0,50,187.26
464,B4,96.0,1.0,50,187.26
465,B3,96.5,0.188,59,187.26
466,F4,96.5,0.188,59,187.26
467,A4,96.5,0.188,59,187.26
468,B4,96.5,0.188,59,187.26
469,B4,97.0,0.188,63,187.26
470,F4,97.0,0.188,63,187.26
471,A4,97.0,0.188,63,187.26
472,B3,97.0,0.188,63,187.26
473,F#3,97.0,1.0,42,187.26
474,A4,97.0,1.0,42,187.26
475,B4,97.5,0.188,66,187.26
476,F4,97.5,0.188,66,187.26
477,A4,97.5,0.188,66,187.26
478,B3,97.5,0.188,66,187.26
479,B3,98.0,1.0,71,187.26
480,F4,98.0,1.0,71,187.26
481,A4,98.0,1.0,71,187.26
482,B4,98.0,1.0,71,187.26
483,C#3,98.0,1.0,33,187.26
484,F3,98.0,1.0,33,187.26
485,B3,98.0,1.0,33,187.26
486,C#3,99.0,2.0,30,187.26
487,C5,99.0,0.188,57,187.26
488,E-4,99.0,0.188,57,187.26
489,A4,99.0,0.188,57,187.26
490,C4,99.0,0.188,57,187.26
491,F3,99.0,1.0,39,187.26
492,B3,99.0,1.0,39,187.26
493,C5,99.5,0.188,60,187.26
494,E-4,99.5,0.188,60,187.26
495,A4,99.5,0.188,60,187.26
496,C4,99.5,0.188,60,187.26
497,C4,100.0,0.188,67,187.26
498,E-4,100.0,0.188,67,187.26
499,C5,100.0,0.188,67,187.26
500,F#2,100.0,1.0,35,187.26
501,A3,100.0,1.0,35,187.26
502,C4,100.5,0.188,62,187.26
503,E-4,100.5,0.188,62,187.26
504,C5,100.5,0.188,62,187.26
505,F#4,101.0,1.0,76,187.26
506,C4,101.0,1.0,76,187.26
507,E-4,101.0,1.0,76,187.26
508,C5,101.0,1.0,76,187.26
509,C#3,101.0,1.0,31,187.26
510,F3,101.0,1.0,31,187.26
511,B3,101.0,1.0,31,187.26
512,C#3,102.0,2.0,29,187.26
513,E5,102.0,1.0,72,187.26
514,F#4,102.0,1.0,72,187.26
515,A4,102.0,1.0,72,187.26
516,E4,102.0,1.0,72,187.26
517,F3,102.0,1.0,36,187.26
518,B3,102.0,1.0,36,187.26
519,D4,103.0,1.0,73,187.26
520,G4,103.0,1.0,73,187.26
521,D5,103.0,1.0,73,187.26
522,F#2,103.0,1.0,34,187.26
523,A3,103.0,1.0,34,187.26
524,D3,104.0,1.0,78,187.26
525,D4,104.0,1.0,78,187.26
526,C#2,104.0,1.0,63,187.26
527,C#3,104.0,1.0,63,187.26
528,C#4,105.0,0.5,61,187.26
529,C#4,105.5,0.5,59,187.26
530,F#4,106.0,0.5,72,187.26
531,C#5,106.0,0.5,72,187.26
532,C#2,106.0,1.0,63,187.26
533,C#3,106.0,1.0,63,187.26
534,F#4,106.5,0.5,75,187.26
535,A4,107.0,0.5,76,187.26
536,F#5,107.0,0.5,76,187.26
537,D2,107.0,0.5,58,187.26
538,D3,107.0,0.5,58,187.26
539,A4,107.5,0.5,75,187.26
540,C#2,107.5,0.5,52,187.26
541,C#3,107.5,0.5,52,187.26
542,C#5,108.0,0.5,70,187.26
543,A5,108.0,0.5,70,187.26
544,G#1,108.0,0.5,58,187.26
545,G#2,108.0,0.5,58,187.26
546,C#5,108.5,0.5,71,187.26
547,A1,108.5,0.5,51,187.26
548,A2,108.5,0.5,51,187.26
549,F#5,109.0,0.5,72,187.26
550,C#6,109.0,0.5,72,187.26
551,F#1,109.0,3.0,58,187.26
552,F#2,109.0,3.0,58,187.26
553,F#5,109.5,0.5,75,187.26
554,A5,110.0,0.5,76,187.26
555,F#6,110.0,0.5,76,187.26
556,A5,110.5,0.5,75,187.26
557,C#6,111.0,1.0,73,187.26
558,A5,111.0,1.0,73,187.26
559,A6,111.0,1.0,73,187.26
560,C#6,112.0,1.0,70,187.26
561,G#5,112.0,1.0,70,187.26
562,G#6,112.0,1.0,70,187.26
563,D1,112.0,1.0,72,187.26
564,D2,112.0,1.0,72,187.26
565,F#3,113.0,0.5,38,187.26
566,C#6,113.0,1.0,65,187.26
567,G#5,113.0,1.0,65,187.26
568,C#5,113.0,1.0,65,187.26
569,F#3,113.5,0.5,39,187.26
570,C#6,114.0,2.0,75,187.26
571,F3,114.0,0.5,40,187.26
572,C#5,114.0,1.0,61,187.26
573,G#5,114.0,1.0,61,187.26
574,F#3,114.5,0.5,42,187.26
575,G3,115.0,0.5,43,187.26
576,F#6,115.0,1.0,63,187.26
577,F#5,115.0,1.0,63,187.26
578,G#3,115.5,0.5,45,187.26
579,A3,116.0,0.5,46,187.26
580,C#5,116.0,1.0,49,187.26
581,G#4,116.0,1.0,49,187.26
582,C#4,116.0,1.0,49,187.26
583,B-3,116.5,0.5,47,187.26
584,C#5,117.0,2.0,58,187.26
585,B3,117.0,0.5,49,187.26
586,C#4,117.0,1.0,46,187.26
587,G#4,117.0,1.0,46,187.26
588,C4,117.5,0.5,50,187.26
589,C#4,118.0,0.5,51,187.26
590,F#5,118.0,1.0,52,187.26
591,F#4,118.0,1.0,52,187.26
592,D4,118.5,0.5,53,187.26
593,E-4,119.0,0.5,55,187.26
594,C#5,119.0,1.0,47,187.26
595,G#4,119.0,1.0,47,187.26
596,C#4,119.0,1.0,47,187.26
597,E4,119.5,0.5,55,187.26
598,C#5,120.0,2.0,56,187.26
599,F4,120.0,0.5,55,187.26
600,C#4,120.0,1.0,44,187.26
601,G#4,120.0,1.0,44,187.26
602,F#4,120.5,0.5,57,187.26
603,F#4,121.0,1.0,58,187.26
604,F#5,121.0,1.0,50,187.26
605,F#4,121.0,1.0,50,187.26
606,G4,122.0,1.0,64,187.26
607,C#4,122.0,1.0,75,187.26
608,C#5,122.0,1.0,75,187.26
609,G4,123.0,0.5,74,187.26
610,E-4,123.0,0.5,74,187.26
611,B-3,123.0,0.5,74,187.26
612,G3,123.0,0.5,74,187.26
613,C#4,124.0,1.0,75,187.26
614,C#5,124.0,1.0,75,187.26
615,E-2,124.0,1.0,79,187.26
616,E-3,124.0,1.0,79,187.26
617,G3,125.0,0.5,38,187.26
618,D4,125.0,0.5,70,187.26
619,D5,125.0,0.5,70,187.26
620,G3,125.5,0.5,39,187.26
621,C#4,125.5,0.5,65,187.26
622,C#5,125.5,0.5,65,187.26
623,F#3,126.0,0.5,40,187.26
624,G#3,126.0,0.5,68,187.26
625,G#4,126.0,0.5,68,187.26
626,G3,126.5,0.5,42,187.26
627,A3,126.5,0.5,60,187.26
628,A4,126.5,0.5,60,187.26
629,G#3,127.0,0.5,43,187.26
630,F#3,127.0,3.0,64,187.26
631,F#4,127.0,3.0,64,187.26
632,A3,127.5,0.5,45,187.26
633,B-3,128.0,0.5,46,187.26
634,B3,128.5,0.5,47,187.26
635,C4,129.0,0.5,49,187.26
636,C#4,129.5,0.5,50,187.26
637,D4,130.0,0.5,51,187.26
638,D4,130.0,1.0,84,187.26
639,D5,130.0,1.0,84,187.26
640,E-4,130.5,0.5,53,187.26
641,E4,131.0,0.5,55,187.26
642,A3,131.0,0.5,48,187.26
643,D4,131.0,0.5,48,187.26
644,F4,131.5,0.5,55,187.26
645,A3,131.5,0.5,49,187.26
646,D4,131.5,0.5,49,187.26
647,F#4,132.0,0.5,55,187.26
648,G#3,132.0,0.5,50,187.26
649,C#4,132.0,0.5,50,187.26
650,G4,132.5,0.5,57,187.26
651,A3,132.5,0.5,51,187.26
652,D4,132.5,0.5,51,187.26
653,G4,133.0,1.0,58,187.26
654,B-3,133.0,0.5,52,187.26
655,E-4,133.0,0.5,52,187.26
656,B3,133.5,0.5,53,187.26
657,E4,133.5,0.5,53,187.26
658,G#4,134.0,1.0,64,187.26
659,C4,134.0,0.5,54,187.26
660,F4,134.0,0.5,54,187.26
661,C#4,134.5,0.5,55,187.26
662,F#4,134.5,0.5,55,187.26
663,D4,135.0,0.5,57,187.26
664,G4,135.0,0.5,57,187.26
665,G#4,135.0,0.5,74,187.26
666,E4,135.0,0.5,74,187.26
667,B3,135.0,0.5,74,187.26
668,G#3,135.0,0.5,74,187.26
669,E-4,135.5,0.5,59,187.26
670,G#4,135.5,0.5,59,187.26
671,E4,136.0,0.5,59,187.26
672,A4,136.0,0.5,59,187.26
673,E2,136.0,1.0,79,187.26
674,E3,136.0,1.0,79,187.26
675,F4,136.5,0.5,60,187.26
676,B-4,136.5,0.5,60,187.26
677,F#4,137.0,0.5,64,187.26
678,B4,137.0,0.5,64,187.26
679,G#3,137.0,0.5,54,187.26
680,B3,137.0,0.5,54,187.26
681,G4,137.5,0.5,65,187.26
682,C5,137.5,0.5,65,187.26
683,G#3,137.5,0.5,54,187.26
684,B3,137.5,0.5,54,187.26
685,G#4,138.0,0.5,66,187.26
686,C#5,138.0,0.5,66,187.26
687,G3,138.0,0.5,50,187.26
688,B-3,138.0,0.5,50,187.26
689,A4,138.5,0.5,67,187.26
690,D5,138.5,0.5,67,187.26
691,G#3,138.5,0.5,50,187.26
692,B3,138.5,0.5,50,187.26
693,A4,139.0,1.0,68,187.26
694,D5,139.0,1.0,68,187.26
695,A3,139.0,0.5,54,187.26
696,C4,139.0,0.5,54,187.26
697,B-3,139.5,0.5,54,187.26
698,C#4,139.5,0.5,54,187.26
699,B-4,140.0,1.0,73,187.26
700,E-5,140.0,1.0,73,187.26
701,B3,140.0,0.25,54,187.26
702,D4,140.0,0.25,54,187.26
703,B3,140.5,0.25,49,187.26
704,D4,140.5,0.25,49,187.26
705,E-6,141.0,0.5,80,187.26
706,B-5,141.0,0.5,80,187.26
707,E-5,141.0,0.5,80,187.26
708,B3,141.0,0.25,49,187.26
709,D4,141.0,0.25,49,187.26
710,B3,141.5,0.25,50,187.26
711,D4,141.5,0.25,50,187.26
712,E-6,142.0,1.0,85,187.26
713,E-7,142.0,1.0,85,187.26
714,B3,142.0,0.5,54,187.26
715,D4,142.0,0.5,54,187.26
716,B-3,142.5,0.5,50,187.26
717,C#4,142.5,0.5,50,187.26
718,B-3,143.0,0.5,48,187.26
719,E-4,143.0,0.5,48,187.26
720,B-3,143.0,0.25,54,187.26
721,C#4,143.0,0.25,54,187.26
722,E-4,143.5,0.5,49,187.26
723,B-3,143.5,0.5,49,187.26
724,B-3,143.5,0.25,50,187.26
725,C#4,143.5,0.25,50,187.26
726,A3,144.0,0.5,50,187.26
727,D4,144.0,0.5,50,187.26
728,A3,144.0,0.25,50,187.26
729,C4,144.0,0.25,50,187.26
730,B-3,144.5,0.5,51,187.26
731,E-4,144.5,0.5,51,187.26
732,B-3,144.5,0.25,50,187.26
733,C#4,144.5,0.25,50,187.26
734,B3,145.0,0.5,52,187.26
735,E4,145.0,0.5,52,187.26
736,B3,145.0,0.5,54,187.26
737,D4,145.0,0.5,54,187.26
738,C4,145.5,0.5,53,187.26
739,F4,145.5,0.5,53,187.26
740,C4,145.5,0.5,50,187.26
741,E-4,145.5,0.5,50,187.26
742,C#4,146.0,0.5,54,187.26
743,F#4,146.0,0.5,54,187.26
744,C#4,146.0,0.25,54,187.26
745,E4,146.0,0.25,54,187.26
746,D4,146.5,0.5,55,187.26
747,G4,146.5,0.5,55,187.26
748,C#4,146.5,0.25,56,187.26
749,E4,146.5,0.25,56,187.26
750,E-4,147.0,0.5,57,187.26
751,G#4,147.0,0.5,57,187.26
752,C#4,147.0,0.25,58,187.26
753,E4,147.0,0.25,58,187.26
754,E4,147.5,0.5,59,187.26
755,A4,147.5,0.5,59,187.26
756,C#4,147.5,0.25,58,187.26
757,E4,147.5,0.25,58,187.26
758,F4,148.0,0.5,59,187.26
759,B-4,148.0,0.5,59,187.26
760,C#4,148.0,0.5,62,187.26
761,E4,148.0,0.5,62,187.26
762,F#4,148.5,0.5,60,187.26
763,B4,148.5,0.5,60,187.26
764,C4,148.5,0.5,54,187.26
765,E-4,148.5,0.5,54,187.26
766,G4,149.0,0.5,64,187.26
767,C5,149.0,0.5,64,187.26
768,C4,149.0,0.25,54,187.26
769,E-4,149.0,0.25,54,187.26
770,G#4,149.5,0.5,65,187.26
771,C#5,149.5,0.5,65,187.26
772,C4,149.5,0.25,56,187.26
773,E-4,149.5,0.25,56,187.26
774,A4,150.0,0.5,66,187.26
775,D5,150.0,0.5,66,187.26
776,B3,150.0,0.25,58,187.26
777,D4,150.0,0.25,58,187.26
778,B-4,150.5,0.5,67,187.26
779,E-5,150.5,0.5,67,187.26
780,C4,150.5,0.25,60,187.26
781,E-4,150.5,0.25,60,187.26
782,B-4,151.0,1.0,68,187.26
783,E-5,151.0,1.0,68,187.26
784,B3,151.0,1.0,60,187.26
785,F4,151.0,1.0,60,187.26
786,C#4,151.0,1.0,60,187.26
787,B4,152.0,1.0,73,187.26
788,E5,152.0,1.0,73,187.26
789,C#2,152.0,1.0,54,187.26
790,C#3,152.0,1.0,54,187.26
791,E6,153.0,0.5,80,187.26
792,B5,153.0,0.5,80,187.26
793,E5,153.0,0.5,80,187.26
794,F4,153.0,1.0,58,187.26
795,C#4,153.0,1.0,58,187.26
796,B3,153.0,1.0,58,187.26
797,E6,154.0,1.0,88,187.26
798,E7,154.0,1.0,88,187.26
799,E4,154.0,1.0,59,187.26
800,C#4,154.0,1.0,59,187.26
801,B3,154.0,1.0,59,187.26
802,F#3,154.0,1.0,59,187.26
803,E4,155.0,0.5,64,187.26
804,E5,155.0,0.5,64,187.26
805,F#1,155.0,0.5,56,187.26
806,F#2,155.0,0.5,56,187.26
807,E4,155.5,0.5,64,187.26
808,E5,155.5,0.5,64,187.26
809,E-4,156.0,0.5,58,187.26
810,E-5,156.0,0.5,58,187.26
811,E4,156.0,1.0,54,187.26
812,C#4,156.0,1.0,54,187.26
813,B-3,156.0,1.0,54,187.26
814,F#3,156.0,1.0,54,187.26
815,E4,156.5,0.5,58,187.26
816,E5,156.5,0.5,58,187.26
817,F4,157.0,0.5,64,187.26
818,F5,157.0,0.5,64,187.26
819,A3,157.0,1.0,57,187.26
820,E-4,157.0,1.0,57,187.26
821,B3,157.0,1.0,57,187.26
822,F#4,157.5,0.5,58,187.26
823,F#5,157.5,0.5,58,187.26
824,G4,158.0,0.25,64,187.26
825,G5,158.0,0.25,64,187.26
826,B1,158.0,1.0,52,187.26
827,B2,158.0,1.0,52,187.26
828,G4,158.5,0.25,60,187.26
829,G5,158.5,0.25,60,187.26
830,G4,159.0,0.25,60,187.26
831,G5,159.0,0.25,60,187.26
832,E-4,159.0,1.0,54,187.26
833,B3,159.0,1.0,54,187.26
834,A3,159.0,1.0,54,187.26
835,G4,159.5,0.25,60,187.26
836,G5,159.5,0.25,60,187.26
837,G4,160.0,0.5,64,187.26
838,G5,160.0,0.5,64,187.26
839,D4,160.0,1.0,59,187.26
840,B3,160.0,1.0,59,187.26
841,A3,160.0,1.0,59,187.26
842,E3,160.0,1.0,59,187.26
843,F#4,160.5,0.5,60,187.26
844,F#5,160.5,0.5,60,187.26
845,F#4,161.0,0.25,64,187.26
846,F#5,161.0,0.25,64,187.26
847,E1,161.0,0.5,56,187.26
848,E2,161.0,0.5,56,187.26
849,F#4,161.5,0.25,60,187.26
850,F#5,161.5,0.25,60,187.26
851,F4,162.0,0.25,60,187.26
852,F5,162.0,0.25,60,187.26
853,D4,162.0,1.0,55,187.26
854,G#3,162.0,1.0,55,187.26
855,E3,162.0,1.0,55,187.26
856,F#4,162.5,0.25,60,187.26
857,F#5,162.5,0.25,60,187.26
858,G4,163.0,0.5,64,187.26
859,G5,163.0,0.5,64,187.26
860,G3,163.0,1.0,60,187.26
861,C#4,163.0,1.0,60,187.26
862,A3,163.0,1.0,60,187.26
863,G#4,163.5,0.5,58,187.26
864,G#5,163.5,0.5,58,187.26
865,A4,164.0,0.25,60,187.26
866,A5,164.0,0.25,60,187.26
867,A1,164.0,1.0,54,187.26
868,A2,164.0,1.0,54,187.26
869,A4,164.5,0.25,62,187.26
870,A5,164.5,0.25,62,187.26
871,A4,165.0,0.25,64,187.26
872,A5,165.0,0.25,64,187.26
873,C#4,165.0,1.0,54,187.26
874,A3,165.0,1.0,54,187.26
875,G3,165.0,1.0,54,187.26
876,A4,165.5,0.25,66,187.26
877,A5,165.5,0.25,66,187.26
878,A4,166.0,0.5,72,187.26
879,A5,166.0,0.5,72,187.26
880,F#3,166.0,1.0,62,187.26
881,C4,166.0,1.0,62,187.26
882,G#4,166.5,0.5,66,187.26
883,G#5,166.5,0.5,66,187.26
884,G#4,167.0,0.25,68,187.26
885,G#5,167.0,0.25,68,187.26
886,A3,167.0,1.0,53,187.26
887,C4,167.0,1.0,53,187.26
888,G#4,167.5,0.25,70,187.26
889,G#5,167.5,0.25,70,187.26
890,G4,168.0,0.25,71,187.26
891,G5,168.0,0.25,71,187.26
892,A4,168.0,1.0,60,187.26
893,C5,168.0,1.0,60,187.26
894,G#4,168.5,0.25,74,187.26
895,G#5,168.5,0.25,74,187.26
896,G#4,169.0,0.875,82,187.26
897,C#5,169.0,0.875,82,187.26
898,G#5,169.0,0.875,82,187.26
899,C6,169.0,1.0,62,187.26
900,A5,169.0,1.0,62,187.26
901,B-4,169.875,0.125,59,187.26
902,B-5,169.875,0.125,59,187.26
903,G#4,170.0,0.5,77,187.26
904,C#5,170.0,0.5,77,187.26
905,G#5,170.0,0.5,77,187.26
906,C3,170.0,0.5,53,187.26
907,C4,170.0,0.5,53,187.26
908,G4,170.5,0.5,72,187.26
909,G5,170.5,0.5,72,187.26
910,G#4,171.0,0.5,78,187.26
911,C#5,171.0,0.5,78,187.26
912,G#5,171.0,0.5,78,187.26
913,C1,171.0,0.5,52,187.26
914,C2,171.0,0.5,52,187.26
915,B-4,171.5,0.5,76,187.26
916,B-5,171.5,0.5,76,187.26
917,C#5,172.0,1.0,81,187.26
918,G#4,172.0,1.0,81,187.26
919,G#5,172.0,1.0,81,187.26
920,C#1,172.0,0.5,54,187.26
921,C#2,172.0,0.5,54,187.26
922,G#6,173.0,0.5,87,187.26
923,G#5,173.0,0.5,87,187.26
924,C#2,173.0,0.5,37,187.26
925,C#3,173.0,0.5,37,187.26
926,F#4,174.0,1.0,78,187.26
927,C#5,174.0,1.0,78,187.26
928,F#5,174.0,1.0,78,187.26
929,E-1,174.0,0.5,42,187.26
930,E-2,174.0,0.5,42,187.26
931,F#4,175.0,0.875,69,187.26
932,B4,175.0,0.875,69,187.26
933,F#5,175.0,0.875,69,187.26
934,F1,175.0,0.5,44,187.26
935,F2,175.0,0.5,44,187.26
936,G#4,175.875,0.125,61,187.26
937,G#5,175.875,0.125,61,187.26
938,F#4,176.0,0.5,74,187.26
939,B4,176.0,0.5,74,187.26
940,F#5,176.0,0.5,74,187.26
941,F2,176.0,0.5,40,187.26
942,F3,176.0,0.5,40,187.26
943,F4,176.5,0.5,73,187.26
944,F5,176.5,0.5,73,187.26
945,F#4,177.0,0.5,75,187.26
946,B4,177.0,0.5,75,187.26
947,F#5,177.0,0.5,75,187.26
948,F1,177.0,0.5,39,187.26
949,F2,177.0,0.5,39,187.26
950,G#4,177.5,0.5,73,187.26
951,G#5,177.5,0.5,73,187.26
952,B4,178.0,1.0,81,187.26
953,F#4,178.0,1.0,81,187.26
954,F#5,178.0,1.0,81,187.26
955,B-1,178.0,0.5,34,187.26
956,B-2,178.0,0.5,34,187.26
957,F#6,179.0,0.5,86,187.26
958,F#5,179.0,0.5,86,187.26
959,C#2,179.0,0.5,28,187.26
960,C#3,179.0,0.5,28,187.26
961,E-2,180.0,0.5,33,187.26
962,E4,180.0,1.0,78,187.26
963,B4,180.0,1.0,78,187.26
964,E5,180.0,1.0,78,187.26
965,F2,181.0,0.5,38,187.26
966,E4,181.0,0.875,82,187.26
967,A4,181.0,0.875,82,187.26
968,E5,181.0,0.875,82,187.26
969,F#4,181.875,0.125,59,187.26
970,F#5,181.875,0.125,59,187.26
971,E4,182.0,0.5,82,187.26
972,A4,182.0,0.5,82,187.26
973,E5,182.0,0.5,82,187.26
974,E-4,182.5,0.5,76,187.26
975,E-5,182.5,0.5,76,187.26
976,E4,183.0,0.5,78,187.26
977,A4,183.0,0.5,78,187.26
978,E5,183.0,0.5,78,187.26
979,F1,183.0,0.5,31,187.26
980,F2,183.0,0.5,31,187.26
981,F#4,183.5,0.5,76,187.26
982,F#5,183.5,0.5,76,187.26
983,E-4,184.0,0.5,81,187.26
984,A4,184.0,0.5,81,187.26
985,E-5,184.0,0.5,81,187.26
986,B-1,184.0,1.0,33,187.26
987,B-2,184.0,1.0,33,187.26
988,E-4,184.5,0.5,74,187.26
989,F#4,185.0,0.5,78,187.26
990,E-5,185.0,0.5,78,187.26
991,G#2,185.0,1.0,28,187.26
992,G#3,185.0,1.0,28,187.26
993,E-5,185.5,0.5,81,187.26
994,E-6,186.0,0.5,82,187.26
995,F#5,186.0,0.5,82,187.26
996,F2,186.0,1.0,28,187.26
997,F3,186.0,1.0,28,187.26
998,E-6,186.5,0.5,88,187.26
999,E-7,187.0,1.0,85,187.26
1000,F#6,187.0,1.0,85,187.26
1001,F#2,187.0,1.0,33,187.26
1002,F#3,187.0,1.0,33,187.26
1003,E-4,188.0,0.5,74,187.26
1004,A4,188.0,0.5,74,187.26
1005,F#4,188.0,0.5,74,187.26
1006,F2,188.0,1.0,28,187.26
1007,F3,188.0,1.0,28,187.26
1008,F#4,189.0,0.5,71,187.26
1009,A4,189.0,0.5,71,187.26
1010,F#5,189.0,0.5,71,187.26
1011,C#2,189.0,1.0,28,187.26
1012,C#3,189.0,1.0,28,187.26
1013,F4,190.0,0.5,74,187.26
1014,B-4,190.0,0.5,74,187.26
1015,F5,190.0,0.5,74,187.26
1016,E-2,190.0,1.0,33,187.26
1017,E-3,190.0,1.0,33,187.26
1018,B-3,191.0,0.5,55,187.26
1019,F4,191.0,0.5,55,187.26
1020,B-4,191.0,0.5,55,187.26
1021,C#2,191.0,1.0,28,187.26
1022,C#3,191.0,1.0,28,187.26
1023,E-5,192.0,0.5,61,187.26
1024,F#4,192.0,0.5,61,187.26
1025,C5,192.0,0.5,61,187.26
1026,E-4,192.0,0.5,61,187.26
1027,B-1,192.0,1.0,31,187.26
1028,B-2,192.0,1.0,31,187.26
1029,C#4,193.0,0.5,62,187.26
1030,F4,193.0,0.5,62,187.26
1031,B-4,193.0,0.5,62,187.26
1032,C#5,193.0,0.5,62,187.26
1033,B1,193.0,1.0,38,187.26
1034,B2,193.0,1.0,38,187.26
1035,C#4,194.0,0.5,55,187.26
1036,F4,194.0,0.5,55,187.26
1037,B-1,194.0,1.0,38,187.26
1038,B-2,194.0,1.0,38,187.26
1039,E-4,195.0,0.5,54,187.26
1040,F4,195.0,0.5,54,187.26
1041,A4,195.0,0.5,54,187.26
1042,C5,195.0,0.5,54,187.26
1043,F#1,195.0,1.0,40,187.26
1044,F#2,195.0,1.0,40,187.26
1045,C#4,196.0,0.5,49,187.26
1046,F4,196.0,0.5,49,187.26
1047,B-4,196.0,0.5,49,187.26
1048,E-1,196.0,1.0,44,187.26
1049,E-2,196.0,1.0,44,187.26
1050,F3,197.0,0.5,43,187.26
1051,B-3,197.0,0.5,43,187.26
1052,E1,197.0,0.188,41,187.26
1053,E2,197.0,0.188,41,187.26
1054,F1,197.5,0.188,42,187.26
1055,F2,197.5,0.188,42,187.26
1056,E-4,198.0,0.5,43,187.26
1057,B-3,198.0,0.5,43,187.26
1058,F#3,198.0,0.5,43,187.26
1059,F#1,198.0,1.0,50,187.26
1060,F#2,198.0,1.0,50,187.26
1061,F3,199.0,0.5,46,187.26
1062,B-3,199.0,0.5,46,187.26
1063,C#4,199.0,0.5,46,187.26
1064,G#1,199.0,1.0,62,187.26
1065,G#2,199.0,1.0,62,187.26
1066,F3,200.0,0.5,45,187.26
1067,G#2,200.0,1.0,45,187.26
1068,E-3,200.0,1.0,45,187.26
1069,F3,200.0,1.0,45,187.26
1070,B3,200.0,1.0,45,187.26
1071,C4,201.0,0.5,40,187.26
1072,A3,201.0,0.5,40,187.26
1073,E-3,201.0,0.5,40,187.26
1074,B-2,201.0,1.0,45,187.26
1075,F3,201.0,1.0,45,187.26
1076,G#3,201.0,1.0,45,187.26
1077,D4,201.0,1.0,45,187.26
1078,B-3,202.0,3.0,46,187.26
1079,B-4,202.0,3.0,46,187.26
1080,F#1,202.0,1.0,44,187.26
1081,F#2,202.0,1.0,44,187.26
1082,G1,203.0,0.188,41,187.26
1083,G2,203.0,0.188,41,187.26
1084,G#1,203.5,0.188,39,187.26
1085,G#2,203.5,0.188,39,187.26
1086,A1,204.0,1.0,50,187.26
1087,A2,204.0,1.0,50,187.26
1088,B1,205.0,1.0,62,187.26
1089,B2,205.0,1.0,62,187.26
1090,B-3,206.0,1.0,46,187.26
1091,B-4,206.0,1.0,46,187.26
1092,C3,206.0,1.0,45,187.26
1093,F#3,206.0,1.0,45,187.26
1094,G#3,206.0,1.0,45,187.26
1095,D4,206.0,1.0,45,187.26
1096,B-4,207.0,1.0,46,187.26
1097,B-5,207.0,1.0,46,187.26
1098,C#3,207.0,1.0,45,187.26
1099,G#3,207.0,1.0,45,187.26
1100,B3,207.0,1.0,45,187.26
1101,F4,207.0,1.0,45,187.26
1102,B-6,208.0,1.0,46,187.26
1103,B-5,208.0,1.0,46,187.26
1104,A1,208.0,1.0,39,187.26
1105,A2,208.0,1.0,39,187.26
1106,B-4,209.0,3.0,46,187.26
1107,B-3,209.0,3.0,46,187.26
1108,B1,209.0,0.188,39,187.26
1109,B2,209.0,0.188,39,187.26
1110,C2,209.5,0.188,41,187.26
1111,C3,209.5,0.188,41,187.26
1112,C#2,210.0,1.0,52,187.26
1113,C#3,210.0,1.0,52,187.26
1114,D2,211.0,1.0,44,187.26
1115,D3,211.0,1.0,44,187.26
1116,E-2,212.0,0.188,44,187.26
1117,E-3,212.0,0.188,44,187.26
1118,E2,212.5,0.188,44,187.26
1119,E3,212.5,0.188,44,187.26
1120,B-4,213.0,1.0,46,187.26
1121,B-3,213.0,1.0,46,187.26
1122,F2,213.0,1.0,49,187.26
1123,F3,213.0,1.0,49,187.26
1124,B-4,214.0,1.0,53,187.26
1125,B-5,214.0,1.0,53,187.26
1126,F#2,214.0,1.0,46,187.26
1127,F#3,214.0,1.0,46,187.26
1128,B-6,215.0,1.0,59,187.26
1129,B-5,215.0,1.0,59,187.26
1130,G#2,215.0,0.188,45,187.26
1131,G#3,215.0,0.188,45,187.26
1132,A2,215.5,0.188,44,187.26
1133,A3,215.5,0.188,44,187.26
1134,E-3,216.0,0.188,58,187.26
1135,E-4,216.0,0.188,58,187.26
1136,B-2,216.0,1.0,52,187.26
1137,B-3,216.0,1.0,52,187.26
1138,E-3,216.5,0.188,60,187.26
1139,E-4,216.5,0.188,60,187.26
1140,E-4,217.0,0.188,62,187.26
1141,E-3,217.0,0.188,62,187.26
1142,B2,217.0,1.0,60,187.26
1143,B3,217.0,1.0,60,187.26
1144,E-4,217.5,0.188,64,187.26
1145,E-3,217.5,0.188,64,187.26
1146,E-4,218.0,1.0,72,187.26
1147,E-3,218.0,1.0,72,187.26
1148,B1,218.0,1.0,54,187.26
1149,B2,218.0,1.0,54,187.26
1150,F3,219.0,1.0,77,187.26
1151,E-4,219.0,1.0,77,187.26
1152,B3,219.0,1.0,77,187.26
1153,F4,219.0,1.0,77,187.26
1154,G#1,219.0,1.0,54,187.26
1155,G#2,219.0,1.0,54,187.26
1156,B4,220.0,0.5,66,187.26
1157,F5,220.0,0.5,66,187.26
1158,E-5,220.0,0.5,66,187.26
1159,F4,220.0,0.5,66,187.26
1160,E-3,220.0,1.0,52,187.26
1161,F#3,220.0,1.0,52,187.26
1162,B-3,220.0,1.0,52,187.26
1163,E-4,220.0,1.0,52,187.26
1164,E-4,220.5,0.5,68,187.26
1165,E-5,220.5,0.5,68,187.26
1166,F4,221.0,0.5,66,187.26
1167,D5,221.0,0.5,66,187.26
1168,F5,221.0,0.5,66,187.26
1169,B-4,221.0,0.5,66,187.26
1170,F#1,221.0,0.5,61,187.26
1171,F#2,221.0,0.5,61,187.26
1172,F#5,221.5,0.5,66,187.26
1173,F#4,221.5,0.5,66,187.26
1174,F#4,222.0,0.188,58,187.26
1175,F#3,222.0,0.188,58,187.26
1176,E-4,222.0,1.0,55,187.26
1177,B3,222.0,1.0,55,187.26
1178,G#3,222.0,1.0,55,187.26
1179,E-3,222.0,1.0,55,187.26
1180,F#3,222.5,0.188,60,187.26
1181,F#4,222.5,0.188,60,187.26
1182,F#3,223.0,0.188,62,187.26
1183,F#4,223.0,0.188,62,187.26
1184,G#1,223.0,0.5,61,187.26
1185,G#2,223.0,0.5,61,187.26
1186,F#4,223.5,0.188,62,187.26
1187,F#3,223.5,0.188,62,187.26
1188,F#4,224.0,1.0,74,187.26
1189,F#3,224.0,1.0,74,187.26
1190,E-4,224.0,1.0,50,187.26
1191,B3,224.0,1.0,50,187.26
1192,G#3,224.0,1.0,50,187.26
1193,F3,224.0,1.0,50,187.26
1194,G#3,225.0,1.0,77,187.26
1195,D4,225.0,1.0,77,187.26
1196,F#4,225.0,1.0,77,187.26
1197,G#4,225.0,1.0,77,187.26
1198,B1,225.0,0.5,60,187.26
1199,B2,225.0,0.5,60,187.26
1200,G#4,226.0,0.5,66,187.26
1201,F#5,226.0,0.5,66,187.26
1202,G#5,226.0,0.5,66,187.26
1203,D5,226.0,0.5,66,187.26
1204,E-4,226.0,1.0,54,187.26
1205,B-3,226.0,1.0,54,187.26
1206,F#3,226.0,1.0,54,187.26
1207,F#4,226.5,0.5,68,187.26
1208,F#5,226.5,0.5,68,187.26
1209,G#4,227.0,0.5,66,187.26
1210,F5,227.0,0.5,66,187.26
1211,G#5,227.0,0.5,66,187.26
1212,C#5,227.0,0.5,66,187.26
1213,B-1,227.0,0.5,60,187.26
1214,B-2,227.0,0.5,60,187.26
1215,A5,227.5,0.5,66,187.26
1216,A4,227.5,0.5,66,187.26
1217,A4,228.0,0.188,52,187.26
1218,A3,228.0,0.188,52,187.26
1219,E-4,228.0,1.0,54,187.26
1220,B-3,228.0,1.0,54,187.26
1221,F3,228.0,1.0,54,187.26
1222,A3,228.5,0.188,56,187.26
1223,A4,228.5,0.188,56,187.26
1224,A3,229.0,0.188,59,187.26
1225,A4,229.0,0.188,59,187.26
1226,B-1,229.0,0.5,63,187.26
1227,B-2,229.0,0.5,63,187.26
1228,A3,229.5,0.188,62,187.26
1229,A4,229.5,0.188,62,187.26
1230,A4,230.0,1.0,76,187.26
1231,A3,230.0,1.0,76,187.26
1232,D4,230.0,1.0,53,187.26
1233,B-3,230.0,1.0,53,187.26
1234,G#3,230.0,1.0,53,187.26
1235,F3,230.0,1.0,53,187.26
1236,B-4,231.0,0.188,54,187.26
1237,B-3,231.0,0.188,54,187.26
1238,G#4,231.0,0.188,54,187.26
1239,G#3,231.0,0.188,54,187.26
1240,F4,231.0,0.188,54,187.26
1241,E-1,231.0,0.938,68,187.26
1242,E-2,231.0,0.938,68,187.26
1243,F4,231.5,0.188,57,187.26
1244,B-4,231.5,0.188,57,187.26
1245,G#4,231.5,0.188,57,187.26
1246,G#3,231.5,0.188,57,187.26
1247,B-3,231.5,0.188,57,187.26
1248,G#3,232.0,0.188,62,187.26
1249,G#4,232.0,0.188,62,187.26
1250,B-3,232.0,0.188,62,187.26
1251,B-4,232.0,0.188,62,187.26
1252,F4,232.0,0.188,62,187.26
1253,E-2,232.0,3.0,58,187.26
1254,E-3,232.0,3.0,58,187.26
1255,G#3,232.5,0.188,66,187.26
1256,F4,232.5,0.188,66,187.26
1257,G#4,232.5,0.188,66,187.26
1258,B-4,232.5,0.188,66,187.26
1259,B-3,232.5,0.188,66,187.26
1260,G#3,233.0,1.0,71,187.26
1261,B-3,233.0,1.0,71,187.26
1262,D4,233.0,1.0,71,187.26
1263,G#4,233.0,1.0,71,187.26
1264,B-4,233.0,1.0,71,187.26
1265,F#4,234.0,0.188,56,187.26
1266,E-4,234.0,0.188,56,187.26
1267,B-4,234.0,0.188,56,187.26
1268,B-3,234.0,0.188,56,187.26
1269,F#4,234.5,0.188,59,187.26
1270,B-3,234.5,0.188,59,187.26
1271,B-4,234.5,0.188,59,187.26
1272,E-4,234.5,0.188,59,187.26
1273,F#4,235.0,0.188,65,187.26
1274,B-4,235.0,0.188,65,187.26
1275,E-4,235.0,0.188,65,187.26
1276,B-1,235.0,1.0,63,187.26
1277,B-2,235.0,1.0,63,187.26
1278,F#4,235.5,0.188,68,187.26
1279,E-4,235.5,0.188,68,187.26
1280,B-4,235.5,0.188,68,187.26
1281,F#4,236.0,1.0,76,187.26
1282,B-4,236.0,1.0,76,187.26
1283,E-4,236.0,1.0,76,187.26
1284,B1,236.0,0.5,58,187.26
1285,B2,236.0,0.5,58,187.26
1286,B-1,236.5,0.5,52,187.26
1287,B-2,236.5,0.5,52,187.26
1288,G#3,237.0,1.0,80,187.26
1289,E-4,237.0,1.0,80,187.26
1290,G#4,237.0,1.0,80,187.26
1291,F1,237.0,0.5,58,187.26
1292,F2,237.0,0.5,58,187.26
1293,F#1,237.5,0.5,51,187.26
1294,F#2,237.5,0.5,51,187.26
1295,E-4,238.0,1.0,80,187.26
1296,G#4,238.0,1.0,80,187.26
1297,E-5,238.0,1.0,80,187.26
1298,E-1,238.0,3.0,58,187.26
1299,E-2,238.0,3.0,58,187.26
1300,F5,239.0,1.0,75,187.26
1301,B4,239.0,1.0,75,187.26
1302,F4,239.0,1.0,75,187.26
1303,E-5,239.0,1.0,75,187.26
1304,B-4,240.0,1.0,75,187.26
1305,F#4,240.0,1.0,75,187.26
1306,E-5,240.0,1.0,75,187.26
1307,F#5,240.0,1.0,75,187.26
1308,E-6,241.0,0.5,94,187.26
1309,E-7,241.0,0.5,94,187.26
1310,B5,242.0,1.0,77,187.26
1311,B4,242.0,1.0,77,187.26
1312,E-5,242.0,1.0,77,187.26
1313,E-1,242.0,1.0,58,187.26
1314,E-2,242.0,1.0,58,187.26
1315,B5,243.0,0.5,92,187.26
1316,B6,243.0,0.5,92,187.26
1317,G#4,244.0,1.0,74,187.26
1318,B4,244.0,1.0,74,187.26
1319,E-5,244.0,1.0,74,187.26
1320,G#5,244.0,1.0,74,187.26
1321,F#1,245.0,1.0,27,187.26
1322,G#5,245.0,0.5,92,187.26
1323,G#6,245.0,0.5,92,187.26
1324,B-4,246.0,1.0,78,187.26
1325,F#4,246.0,1.0,78,187.26
1326,E-5,246.0,1.0,78,187.26
1327,F#5,246.0,1.0,78,187.26
1328,E-4,246.0,1.0,19,187.26
1329,C#3,246.0,1.0,19,187.26
1330,F#3,246.0,1.0,19,187.26
1331,F#6,247.0,0.5,92,187.26
1332,F#5,247.0,0.5,92,187.26
1333,C#3,247.0,1.0,17,187.26
1334,F#3,247.0,1.0,17,187.26
1335,C#4,247.0,1.0,17,187.26
1336,F#2,248.0,1.0,25,187.26
1337,F4,248.0,1.0,76,187.26
1338,B-4,248.0,1.0,76,187.26
1339,F5,248.0,1.0,76,187.26
1340,E-5,248.0,1.0,76,187.26
1341,F6,249.0,0.5,92,187.26
1342,F5,249.0,0.5,92,187.26
1343,E-4,249.0,1.0,21,187.26
1344,F#3,249.0,1.0,21,187.26
1345,C#3,249.0,1.0,21,187.26
1346,F4,250.0,1.0,78,187.26
1347,B-4,250.0,1.0,78,187.26
1348,D5,250.0,1.0,78,187.26
1349,F5,250.0,1.0,78,187.26
1350,C#3,250.0,1.0,16,187.26
1351,F#3,250.0,1.0,16,187.26
1352,C#4,250.0,1.0,16,187.26
1353,F#2,251.0,1.0,27,187.26
1354,E-6,251.0,0.938,94,187.26
1355,E-5,251.0,0.938,94,187.26
1356,E-4,252.0,3.0,86,187.26
1357,E-5,252.0,3.0,86,187.26
1358,E-4,252.0,1.0,21,187.26
1359,F#3,252.0,1.0,21,187.26
1360,C#3,252.0,1.0,21,187.26
1361,C#3,253.0,1.0,16,187.26
1362,F#3,253.0,1.0,16,187.26
1363,C#4,253.0,1.0,16,187.26
1364,F#2,254.0,1.0,27,187.26
1365,B-4,255.0,1.0,57,187.26
1366,B-3,255.0,1.0,75,187.26
1367,B-4,255.0,1.0,75,187.26
1368,E-4,255.0,1.0,24,187.26
1369,C#3,255.0,1.0,24,187.26
1370,F#3,255.0,1.0,24,187.26
1371,F4,256.0,1.0,49,187.26
1372,B3,256.0,0.5,70,187.26
1373,B4,256.0,0.5,70,187.26
1374,C#3,256.0,1.0,18,187.26
1375,F#3,256.0,1.0,18,187.26
1376,C#4,256.0,1.0,18,187.26
1377,B-3,256.5,0.5,65,187.26
1378,B-4,256.5,0.5,65,187.26
1379,F#4,257.0,1.0,52,187.26
1380,F#2,257.0,1.0,34,187.26
1381,F3,257.0,0.5,68,187.26
1382,F4,257.0,0.5,68,187.26
1383,F#3,257.5,0.5,60,187.26
1384,F#4,257.5,0.5,60,187.26
1385,E-5,258.0,2.0,57,187.26
1386,E-3,258.0,3.0,64,187.26
1387,E-4,258.0,3.0,64,187.26
1388,E-4,258.0,1.0,21,187.26
1389,F#3,258.0,1.0,21,187.26
1390,C#3,258.0,1.0,21,187.26
1391,C#3,259.0,1.0,18,187.26
1392,F#3,259.0,1.0,18,187.26
1393,C#4,259.0,1.0,18,187.26
1394,C#5,260.0,1.0,52,187.26
1395,F#2,260.0,1.0,34,187.26
1396,C#5,261.0,1.0,52,187.26
1397,E-4,261.0,1.0,18,187.26
1398,C#3,261.0,1.0,18,187.26
1399,F#3,261.0,1.0,18,187.26
1400,F#4,262.0,1.0,44,187.26
1401,E-3,262.0,1.0,64,187.26
1402,E-4,262.0,1.0,64,187.26
1403,C#3,262.0,1.0,16,187.26
1404,F#3,262.0,1.0,16,187.26
1405,C#4,262.0,1.0,16,187.26
1406,G#4,263.0,1.0,45,187.26
1407,C#2,263.0,1.0,33,187.26
1408,B-4,264.0,3.0,52,187.26
1409,E-4,264.0,1.0,21,187.26
1410,F#3,264.0,1.0,21,187.26
1411,C#3,264.0,1.0,21,187.26
1412,C#3,265.0,1.0,18,187.26
1413,F#3,265.0,1.0,18,187.26
1414,C#4,265.0,1.0,18,187.26
1415,B-3,266.0,1.0,30,187.26
1416,F#2,266.0,1.0,34,187.26
1417,B-4,267.0,3.0,52,187.26
1418,B-3,267.0,1.0,32,187.26
1419,E-4,267.0,1.0,21,187.26
1420,C#3,267.0,1.0,21,187.26
1421,F#3,267.0,1.0,21,187.26
1422,B-3,268.0,1.0,32,187.26
1423,C#3,268.0,1.0,18,187.26
1424,F#3,268.0,1.0,18,187.26
1425,C#4,268.0,1.0,18,187.26
1426,B-3,269.0,1.0,28,187.26
1427,C#3,269.0,1.0,20,187.26
1428,F#3,269.0,1.0,20,187.26
1429,C#4,269.0,1.0,20,187.26
1430,B-4,270.0,1.0,52,187.26
1431,B-3,270.0,1.0,32,187.26
1432,C#3,270.0,1.0,19,187.26
1433,F#3,270.0,1.0,19,187.26
1434,B3,270.0,1.0,19,187.26
1435,B-3,271.0,1.0,32,187.26
1436,C#3,271.0,1.0,20,187.26
1437,F#3,271.0,1.0,20,187.26
1438,B-3,271.0,1.0,20,187.26
1439,B-3,272.0,1.0,27,187.26
1440,C#3,272.0,1.0,20,187.26
1441,F#3,272.0,1.0,20,187.26
1442,B-3,272.0,1.0,20,187.26
1443,B-3,273.0,1.0,32,187.26
1444,B2,273.0,1.0,20,187.26
1445,C#3,273.0,1.0,20,187.26
1446,B-3,274.0,1.0,32,187.26
1447,B-2,274.0,1.0,20,187.26
1448,C#3,274.0,1.0,20,187.26
1449,B-3,275.0,1.0,27,187.26
1450,B-2,275.0,1.0,20,187.26
1451,C#3,275.0,1.0,20,187.26
1452,B-3,276.0,1.0,33,187.26
1453,B2,276.0,1.0,20,187.26
1454,C#3,276.0,1.0,20,187.26
1455,B-2,277.0,1.0,20,187.26
1456,C#3,277.0,1.0,20,187.26
1457,B-3,278.0,1.0,25,187.26
1458,B-2,278.0,1.0,20,187.26
1459,C#3,278.0,1.0,20,187.26
1460,C#5,279.0,1.0,53,187.26
1461,B-3,279.0,1.0,25,187.26
1462,B2,279.0,1.0,20,187.26
1463,C#3,279.0,1.0,20,187.26
1464,A4,280.0,1.0,49,187.26
1465,B-2,280.0,1.0,18,187.26
1466,C#3,280.0,1.0,18,187.26
1467,B-4,281.0,1.0,54,187.26
1468,B-2,281.0,1.0,34,187.26
1469,B-3,281.0,1.0,22,187.26
1470,F#4,281.0,1.0,22,187.26
1471,F#5,282.0,2.0,58,187.26
1472,B-3,282.0,1.0,22,187.26
1473,F#4,282.0,1.0,22,187.26
1474,F#4,282.0,1.0,21,187.26
1475,B-3,282.0,1.0,21,187.26
1476,F3,282.0,1.0,21,187.26
1477,F3,283.0,1.0,18,187.26
1478,B-3,283.0,1.0,18,187.26
1479,F4,283.0,1.0,18,187.26
1480,F5,284.0,1.0,52,187.26
1481,B3,284.0,1.0,22,187.26
1482,B-2,284.0,1.0,34,187.26
1483,F5,285.0,1.0,52,187.26
1484,F4,285.0,1.0,23,187.26
1485,B3,285.0,1.0,23,187.26
1486,F#4,285.0,1.0,19,187.26
1487,F3,285.0,1.0,19,187.26
1488,B-3,285.0,1.0,19,187.26
1489,B-4,286.0,1.0,52,187.26
1490,F3,286.0,1.0,15,187.26
1491,B-3,286.0,1.0,15,187.26
1492,F4,286.0,1.0,15,187.26
1493,C5,287.0,1.0,53,187.26
1494,F2,287.0,1.0,33,187.26
1495,B-3,287.0,1.0,24,187.26
1496,F#4,287.0,1.0,24,187.26
1497,E-5,288.0,1.0,57,187.26
1498,B-3,288.0,1.0,24,187.26
1499,F#4,288.0,1.0,24,187.26
1500,F#4,288.0,1.0,17,187.26
1501,C4,288.0,1.0,17,187.26
1502,F3,288.0,1.0,17,187.26
1503,C#5,289.0,2.0,57,187.26
1504,B-3,289.0,1.0,23,187.26
1505,F#4,289.0,1.0,23,187.26
1506,F3,289.0,1.0,17,187.26
1507,C4,289.0,1.0,17,187.26
1508,F4,289.0,1.0,17,187.26
1509,B-2,290.0,1.0,34,187.26
1510,C#4,290.0,1.0,22,187.26
1511,F#4,290.0,1.0,22,187.26
1512,C#5,291.0,3.0,57,187.26
1513,C#4,291.0,1.0,22,187.26
1514,F#4,291.0,1.0,22,187.26
1515,F#4,291.0,1.0,21,187.26
1516,F3,291.0,1.0,21,187.26
1517,B-3,291.0,1.0,21,187.26
1518,C#4,292.0,1.0,23,187.26
1519,F#4,292.0,1.0,23,187.26
1520,F3,292.0,1.0,19,187.26
1521,B-3,292.0,1.0,19,187.26
1522,F4,292.0,1.0,19,187.26
1523,G#3,293.0,1.0,22,187.26
1524,C#4,293.0,1.0,22,187.26
1525,F3,293.0,1.0,18,187.26
1526,B-3,293.0,1.0,18,187.26
1527,F4,293.0,1.0,18,187.26
1528,C#5,294.0,1.0,57,187.26
1529,F#3,294.0,1.0,22,187.26
1530,C#4,294.0,1.0,22,187.26
1531,F3,294.0,1.0,21,187.26
1532,B-3,294.0,1.0,21,187.26
1533,E-4,294.0,1.0,21,187.26
1534,F#3,295.0,1.0,23,187.26
1535,C#4,295.0,1.0,23,187.26
1536,F3,295.0,1.0,21,187.26
1537,B-3,295.0,1.0,21,187.26
1538,C#4,295.0,1.0,21,187.26
1539,G#3,296.0,1.0,22,187.26
1540,C#4,296.0,1.0,22,187.26
1541,F3,296.0,1.0,19,187.26
1542,B-3,296.0,1.0,19,187.26
1543,C#4,296.0,1.0,19,187.26
1544,F#3,297.0,1.0,22,187.26
1545,C#4,297.0,1.0,22,187.26
1546,E-3,297.0,1.0,22,187.26
1547,F3,297.0,1.0,22,187.26
1548,F#3,298.0,1.0,23,187.26
1549,C#4,298.0,1.0,23,187.26
1550,C#3,298.0,1.0,22,187.26
1551,F3,298.0,1.0,22,187.26
1552,G#3,299.0,1.0,22,187.26
1553,C#4,299.0,1.0,22,187.26
1554,C#3,299.0,1.0,22,187.26
1555,F3,299.0,1.0,22,187.26
1556,F#3,300.0,1.0,23,187.26
1557,C#4,300.0,1.0,23,187.26
1558,E-3,300.0,1.0,22,187.26
1559,F3,300.0,1.0,22,187.26
1560,C#3,301.0,1.0,22,187.26
1561,F3,301.0,1.0,22,187.26
1562,C#4,302.0,1.0,27,187.26
1563,C#3,302.0,1.0,22,187.26
1564,F3,302.0,1.0,22,187.26
1565,B-4,303.0,1.0,60,187.26
1566,C#4,303.0,1.0,27,187.26
1567,E-3,303.0,1.0,24,187.26
1568,F3,303.0,1.0,24,187.26
1569,F4,304.0,1.0,53,187.26
1570,C#3,304.0,1.0,22,187.26
1571,F3,304.0,1.0,22,187.26
1572,F#4,305.0,1.0,57,187.26
1573,F#2,305.0,1.0,36,187.26
1574,C#4,305.0,1.0,24,187.26
1575,B-4,305.0,1.0,24,187.26
1576,E-5,306.0,2.0,59,187.26
1577,C#4,306.0,1.0,22,187.26
1578,B-4,306.0,1.0,22,187.26
1579,E-4,306.0,1.0,22,187.26
1580,F#3,306.0,1.0,22,187.26
1581,C#3,306.0,1.0,22,187.26
1582,C#3,307.0,1.0,18,187.26
1583,F#3,307.0,1.0,18,187.26
1584,C#4,307.0,1.0,18,187.26
1585,C#5,308.0,1.0,57,187.26
1586,E-4,308.0,1.0,22,187.26
1587,F#2,308.0,1.0,34,187.26
1588,C#5,309.0,1.0,57,187.26
1589,A4,309.0,1.0,24,187.26
1590,E-4,309.0,1.0,24,187.26
1591,E-4,309.0,1.0,18,187.26
1592,C#3,309.0,1.0,18,187.26
1593,F#3,309.0,1.0,18,187.26
1594,F#4,310.0,1.0,53,187.26
1595,C#3,310.0,1.0,16,187.26
1596,F#3,310.0,1.0,16,187.26
1597,C#4,310.0,1.0,16,187.26
1598,G#4,311.0,1.0,52,187.26
1599,C#2,311.0,1.0,34,187.26
1600,C#4,311.0,1.0,23,187.26
1601,B-4,311.0,1.0,23,187.26
1602,B-4,312.0,3.0,57,187.26
1603,C#4,312.0,1.0,23,187.26
1604,B-4,312.0,1.0,23,187.26
1605,E-4,312.0,1.0,23,187.26
1606,F#3,312.0,1.0,23,187.26
1607,C#3,312.0,1.0,23,187.26
1608,C#4,313.0,1.0,25,187.26
1609,B-4,313.0,1.0,25,187.26
1610,C#3,313.0,1.0,20,187.26
1611,F#3,313.0,1.0,20,187.26
1612,C#4,313.0,1.0,20,187.26
1613,F#2,314.0,1.0,34,187.26
1614,F4,314.0,1.0,26,187.26
1615,B-4,314.0,1.0,26,187.26
1616,B-4,315.0,3.0,57,187.26
1617,F4,315.0,1.0,25,187.26
1618,B-4,315.0,1.0,25,187.26
1619,E-4,315.0,1.0,22,187.26
1620,C#3,315.0,1.0,22,187.26
1621,F#3,315.0,1.0,22,187.26
1622,F4,316.0,1.0,24,187.26
1623,B-4,316.0,1.0,24,187.26
1624,C#3,316.0,1.0,21,187.26
1625,F#3,316.0,1.0,21,187.26
1626,C#4,316.0,1.0,21,187.26
1627,C4,317.0,1.0,24,187.26
1628,F4,317.0,1.0,24,187.26
1629,C#3,317.0,1.0,22,187.26
1630,F#3,317.0,1.0,22,187.26
1631,C#4,317.0,1.0,22,187.26
1632,B-4,318.0,1.0,57,187.26
1633,B-3,318.0,1.0,24,187.26
1634,F4,318.0,1.0,24,187.26
1635,C#3,318.0,1.0,21,187.26
1636,F#3,318.0,1.0,21,187.26
1637,B3,318.0,1.0,21,187.26
1638,B-3,319.0,1.0,24,187.26
1639,F4,319.0,1.0,24,187.26
1640,C#3,319.0,1.0,22,187.26
1641,F#3,319.0,1.0,22,187.26
1642,B-3,319.0,1.0,22,187.26
1643,C4,320.0,1.0,24,187.26
1644,F4,320.0,1.0,24,187.26
1645,C#3,320.0,1.0,22,187.26
1646,F#3,320.0,1.0,22,187.26
1647,B-3,320.0,1.0,22,187.26
1648,B-3,321.0,1.0,24,187.26
1649,F4,321.0,1.0,24,187.26
1650,B2,321.0,1.0,23,187.26
1651,C#3,321.0,1.0,23,187.26
1652,B-3,322.0,1.0,24,187.26
1653,F4,322.0,1.0,24,187.26
1654,B-2,322.0,1.0,23,187.26
1655,C#3,322.0,1.0,23,187.26
1656,C4,323.0,1.0,24,187.26
1657,F4,323.0,1.0,24,187.26
1658,B-2,323.0,1.0,23,187.26
1659,C#3,323.0,1.0,23,187.26
1660,B-3,324.0,1.0,24,187.26
1661,F4,324.0,1.0,24,187.26
1662,B2,324.0,1.0,23,187.26
1663,C#3,324.0,1.0,23,187.26
1664,B-2,325.0,1.0,23,187.26
1665,C#3,325.0,1.0,23,187.26
1666,B-3,326.0,1.0,27,187.26
1667,B-2,326.0,1.0,20,187.26
1668,C#3,326.0,1.0,20,187.26
1669,B-4,327.0,1.0,62,187.26
1670,B-3,327.0,1.0,26,187.26
1671,G#2,327.0,1.0,19,187.26
1672,C#3,327.0,1.0,19,187.26
1673,A4,328.0,1.0,54,187.26
1674,F#2,328.0,1.0,19,187.26
1675,C#3,328.0,1.0,19,187.26
1676,B-4,329.0,1.0,59,187.26
1677,F2,329.0,1.0,44,187.26
1678,B-3,329.0,1.0,24,187.26
1679,F#4,329.0,1.0,24,187.26
1680,B4,330.0,2.0,62,187.26
1681,B-3,330.0,1.0,24,187.26
1682,F#4,330.0,1.0,24,187.26
1683,D4,330.0,1.0,25,187.26
1684,F3,330.0,1.0,25,187.26
1685,F3,331.0,1.0,22,187.26
1686,D4,331.0,1.0,22,187.26
1687,C5,332.0,1.0,60,187.26
1688,B3,332.0,1.0,22,187.26
1689,F2,332.0,1.0,41,187.26
1690,D5,333.0,1.0,63,187.26
1691,F4,333.0,1.0,24,187.26
1692,B3,333.0,1.0,24,187.26
1693,E-4,333.0,1.0,24,187.26
1694,F3,333.0,1.0,24,187.26
1695,A3,333.0,1.0,24,187.26
1696,B-4,334.0,1.0,60,187.26
1697,F3,334.0,1.0,25,187.26
1698,A3,334.0,1.0,25,187.26
1699,E-4,334.0,1.0,25,187.26
1700,G5,335.0,1.0,60,187.26
1701,F2,335.0,1.0,39,187.26
1702,B-3,335.0,1.0,26,187.26
1703,F#4,335.0,1.0,26,187.26
1704,F5,336.0,2.75,61,187.26
1705,B-3,336.0,1.0,26,187.26
1706,F#4,336.0,1.0,26,187.26
1707,F4,336.0,1.0,25,187.26
1708,B-3,336.0,1.0,25,187.26
1709,F3,336.0,1.0,25,187.26
1710,B-3,337.0,1.0,25,187.26
1711,F#4,337.0,1.0,25,187.26
1712,F3,337.0,1.0,21,187.26
1713,C#4,337.0,1.0,21,187.26
1714,E4,337.0,1.0,21,187.26
1715,F2,338.0,1.0,41,187.26
1716,C#4,338.0,1.0,24,187.26
1717,F#4,338.0,1.0,24,187.26
1718,B-4,338.75,0.125,52,187.26
1719,C5,338.875,0.125,46,187.26
1720,B-4,339.0,1.0,63,187.26
1721,C#4,339.0,1.0,24,187.26
1722,F#4,339.0,1.0,24,187.26
1723,E-4,339.0,1.0,24,187.26
1724,F3,339.0,1.0,24,187.26
1725,C4,339.0,1.0,24,187.26
1726,A4,340.0,1.0,57,187.26
1727,C#4,340.0,1.0,24,187.26
1728,F#4,340.0,1.0,24,187.26
1729,F3,340.0,1.0,21,187.26
1730,C4,340.0,1.0,21,187.26
1731,E-4,340.0,1.0,21,187.26
1732,B-4,341.0,1.0,61,187.26
1733,F2,341.0,1.0,45,187.26
1734,G#3,341.0,1.0,24,187.26
1735,C#4,341.0,1.0,24,187.26
1736,B4,342.0,2.0,62,187.26
1737,F#3,342.0,1.0,23,187.26
1738,C#4,342.0,1.0,23,187.26
1739,D4,342.0,1.0,26,187.26
1740,F3,342.0,1.0,26,187.26
1741,F#3,343.0,1.0,24,187.26
1742,C#4,343.0,1.0,24,187.26
1743,F3,343.0,1.0,24,187.26
1744,D4,343.0,1.0,24,187.26
1745,C5,344.0,1.0,63,187.26
1746,F2,344.0,1.0,43,187.26
1747,G#3,344.0,1.0,24,187.26
1748,C#4,344.0,1.0,24,187.26
1749,C#5,345.0,1.0,66,187.26
1750,F#3,345.0,1.0,24,187.26
1751,C#4,345.0,1.0,24,187.26
1752,E-4,345.0,1.0,25,187.26
1753,F3,345.0,1.0,25,187.26
1754,A3,345.0,1.0,25,187.26
1755,B-4,346.0,1.0,63,187.26
1756,F#3,346.0,1.0,24,187.26
1757,C#4,346.0,1.0,24,187.26
1758,F3,346.0,1.0,21,187.26
1759,A3,346.0,1.0,21,187.26
1760,E-4,346.0,1.0,21,187.26
1761,F#5,347.0,1.0,63,187.26
1762,B-2,347.0,1.0,45,187.26
1763,G#3,347.0,1.0,24,187.26
1764,C#4,347.0,1.0,24,187.26
1765,F5,348.0,1.0,65,187.26
1766,B-3,348.0,1.0,24,187.26
1767,C#4,348.0,1.0,24,187.26
1768,F4,348.0,1.0,26,187.26
1769,B-3,348.0,1.0,26,187.26
1770,F3,348.0,1.0,26,187.26
1771,E-5,349.0,1.0,63,187.26
1772,F3,349.0,1.0,17,187.26
1773,B-3,349.0,1.0,17,187.26
1774,C#4,349.0,1.0,17,187.26
1775,C#5,350.0,1.0,63,187.26
1776,C#2,350.0,1.0,45,187.26
1777,B-3,350.0,1.0,26,187.26
1778,F4,350.0,1.0,26,187.26
1779,B4,351.0,3.0,62,187.26
1780,B-3,351.0,1.0,26,187.26
1781,F4,351.0,1.0,26,187.26
1782,C#4,351.0,1.0,25,187.26
1783,G#4,351.0,1.0,25,187.26
1784,G#3,351.0,1.0,25,187.26
1785,B3,351.0,1.0,25,187.26
1786,C#4,352.0,1.0,23,187.26
1787,G#3,352.0,1.0,23,187.26
1788,B3,352.0,1.0,23,187.26
1789,G#4,352.0,1.0,23,187.26
1790,B3,353.0,1.0,26,187.26
1791,F4,353.0,1.0,26,187.26
1792,G#3,353.0,1.0,23,187.26
1793,B3,353.0,1.0,23,187.26
1794,C#4,353.0,1.0,23,187.26
1795,G#4,353.0,1.0,23,187.26
1796,B4,354.0,3.0,62,187.26
1797,C4,354.0,1.0,34,187.26
1798,F4,354.0,1.0,34,187.26
1799,G#3,354.0,1.0,24,187.26
1800,B3,354.0,1.0,24,187.26
1801,C#4,354.0,1.0,24,187.26
1802,G#3,355.0,1.0,26,187.26
1803,B3,355.0,1.0,26,187.26
1804,C#4,355.0,1.0,26,187.26
1805,D4,356.0,1.0,28,187.26
1806,G#3,356.0,1.0,24,187.26
1807,B3,356.0,1.0,24,187.26
1808,C#4,356.0,1.0,24,187.26
1809,B4,357.0,3.0,62,187.26
1810,B-4,357.0,1.0,26,187.26
1811,G4,357.0,1.0,26,187.26
1812,F#3,357.0,1.0,24,187.26
1813,B3,357.0,1.0,24,187.26
1814,C#4,357.0,1.0,24,187.26
1815,G#3,358.0,1.0,24,187.26
1816,B3,358.0,1.0,24,187.26
1817,C#4,358.0,1.0,24,187.26
1818,F4,359.0,1.0,30,187.26
1819,A4,359.0,1.0,30,187.26
1820,G#3,359.0,1.0,24,187.26
1821,B3,359.0,1.0,24,187.26
1822,C#4,359.0,1.0,24,187.26
1823,B4,360.0,3.0,62,187.26
1824,F4,360.0,0.75,31,187.26
1825,A4,360.0,0.75,31,187.26
1826,F#3,360.0,1.0,23,187.26
1827,B3,360.0,1.0,23,187.26
1828,C#4,360.0,1.0,23,187.26
1829,G#3,361.0,1.0,23,187.26
1830,B3,361.0,1.0,23,187.26
1831,C#4,361.0,1.0,23,187.26
1832,B-3,362.0,1.0,26,187.26
1833,F4,362.0,1.0,26,187.26
1834,G#3,362.0,1.0,21,187.26
1835,B3,362.0,1.0,21,187.26
1836,C#4,362.0,1.0,21,187.26
1837,B-4,363.0,1.0,54,187.26
1838,B-3,363.0,1.0,25,187.26
1839,F4,363.0,1.0,25,187.26
1840,F#3,363.0,1.0,20,187.26
1841,B3,363.0,1.0,20,187.26
1842,C#4,363.0,1.0,20,187.26
1843,F4,364.0,1.0,49,187.26
1844,G#3,364.0,1.0,20,187.26
1845,B3,364.0,1.0,20,187.26
1846,C#4,364.0,1.0,20,187.26
1847,F#4,365.0,1.0,52,187.26
1848,F#2,365.0,1.0,37,187.26
1849,B3,365.0,1.0,26,187.26
1850,F4,365.0,1.0,26,187.26
1851,E-5,366.0,2.0,57,187.26
1852,C4,366.0,1.0,24,187.26
1853,F4,366.0,1.0,24,187.26
1854,E-4,366.0,1.0,22,187.26
1855,F#3,366.0,1.0,22,187.26
1856,C#3,366.0,1.0,22,187.26
1857,C#3,367.0,1.0,20,187.26
1858,F#3,367.0,1.0,20,187.26
1859,C#4,367.0,1.0,20,187.26
1860,C#5,368.0,1.0,52,187.26
1861,C#4,368.0,1.0,34,187.26
1862,F#2,368.0,1.0,34,187.26
1863,C#5,369.0,1.0,52,187.26
1864,B-4,369.0,1.0,26,187.26
1865,F#4,369.0,1.0,26,187.26
1866,E-4,369.0,1.0,20,187.26
1867,C#3,369.0,1.0,20,187.26
1868,F#3,369.0,1.0,20,187.26
1869,F#4,370.0,1.0,45,187.26
1870,C#3,370.0,1.0,16,187.26
1871,F#3,370.0,1.0,16,187.26
1872,C#4,370.0,1.0,16,187.26
1873,G#4,371.0,1.0,46,187.26
1874,C#2,371.0,1.0,33,187.26
1875,F4,371.0,1.0,26,187.26
1876,B4,371.0,1.0,26,187.26
1877,B-4,372.0,3.0,52,187.26
1878,F4,372.0,249/250,26,187.26
1879,B4,372.0,249/250,26,187.26
1880,E-4,372.0,1.0,24,187.26
1881,F#3,372.0,1.0,24,187.26
1882,C#3,372.0,1.0,24,187.26
1883,F4,373.0,1.0,35,187.26
1884,C#3,373.0,1.0,20,187.26
1885,F#3,373.0,1.0,20,187.26
1886,C#4,373.0,1.0,20,187.26
1887,F4,374.0,1.0,39,187.26
1888,F#2,374.0,1.0,34,187.26
1889,B-4,375.0,3.0,52,187.26
1890,F4,375.0,1.0,39,187.26
1891,E-4,375.0,1.0,21,187.26
1892,C#3,375.0,1.0,21,187.26
1893,F#3,375.0,1.0,21,187.26
1894,F4,376.0,1.0,37,187.26
1895,C#3,376.0,1.0,19,187.26
1896,F#3,376.0,1.0,19,187.26
1897,C#4,376.0,1.0,19,187.26
1898,E-4,377.0,1.0,36,187.26
1899,C#3,377.0,1.0,15,187.26
1900,F#3,377.0,1.0,15,187.26
1901,C#4,377.0,1.0,15,187.26
1902,B-4,378.0,1.0,52,187.26
1903,F4,378.0,1.0,36,187.26
1904,C#3,378.0,1.0,20,187.26
1905,F#3,378.0,1.0,20,187.26
1906,B3,378.0,1.0,20,187.26
1907,F4,379.0,1.0,35,187.26
1908,C#3,379.0,1.0,17,187.26
1909,F#3,379.0,1.0,17,187.26
1910,B-3,379.0,1.0,17,187.26
1911,E-4,380.0,1.0,35,187.26
1912,C#3,380.0,1.0,21,187.26
1913,F#3,380.0,1.0,21,187.26
1914,B-3,380.0,1.0,21,187.26
1915,F4,381.0,1.0,32,187.26
1916,B2,381.0,1.0,22,187.26
1917,C#3,381.0,1.0,22,187.26
1918,F4,382.0,1.0,32,187.26
1919,B-2,382.0,1.0,21,187.26
1920,C#3,382.0,1.0,21,187.26
1921,E-4,383.0,1.0,31,187.26
1922,B-2,383.0,1.0,21,187.26
1923,C#3,383.0,1.0,21,187.26
1924,F4,384.0,1.0,31,187.26
1925,B2,384.0,1.0,20,187.26
1926,C#3,384.0,1.0,20,187.26
1927,B-2,385.0,1.0,20,187.26
1928,C#3,385.0,1.0,20,187.26
1929,B-3,386.0,1.0,25,187.26
1930,B-2,386.0,1.0,20,187.26
1931,C#3,386.0,1.0,20,187.26
1932,B4,387.0,1.0,53,187.26
1933,B-3,387.0,1.0,22,187.26
1934,G#2,387.0,1.0,20,187.26
1935,C#3,387.0,1.0,20,187.26
1936,G4,388.0,1.0,49,187.26
1937,F#2,388.0,1.0,20,187.26
1938,C#3,388.0,1.0,20,187.26
1939,G#4,389.0,1.0,54,187.26
1940,G#2,389.0,1.0,31,187.26
1941,B-3,389.0,1.0,22,187.26
1942,F#4,389.0,1.0,22,187.26
1943,E5,390.0,2.0,58,187.26
1944,B-3,390.0,1.0,22,187.26
1945,F#4,390.0,1.0,22,187.26
1946,E4,390.0,1.0,23,187.26
1947,G#3,390.0,1.0,23,187.26
1948,E-3,390.0,1.0,23,187.26
1949,E-3,391.0,1.0,19,187.26
1950,G#3,391.0,1.0,19,187.26
1951,E-4,391.0,1.0,19,187.26
1952,E-5,392.0,1.0,54,187.26
1953,B3,392.0,1.0,23,187.26
1954,G#2,392.0,1.0,38,187.26
1955,E-5,393.0,1.0,54,187.26
1956,F4,393.0,1.0,24,187.26
1957,B3,393.0,1.0,24,187.26
1958,E4,393.0,1.0,20,187.26
1959,E-3,393.0,1.0,20,187.26
1960,G#3,393.0,1.0,20,187.26
1961,G#4,394.0,1.0,49,187.26
1962,E-3,394.0,1.0,18,187.26
1963,G#3,394.0,1.0,18,187.26
1964,E-4,394.0,1.0,18,187.26
1965,B-4,395.0,1.0,51,187.26
1966,E-2,395.0,1.0,33,187.26
1967,B-3,395.0,1.0,26,187.26
1968,F#4,395.0,1.0,26,187.26
1969,C#5,396.0,1.0,53,187.26
1970,B-3,396.0,1.0,25,187.26
1971,F#4,396.0,1.0,25,187.26
1972,E4,396.0,1.0,19,187.26
1973,B-3,396.0,1.0,19,187.26
1974,E-3,396.0,1.0,19,187.26
1975,B4,397.0,2.0,51,187.26
1976,B-3,397.0,1.0,26,187.26
1977,F#4,397.0,1.0,26,187.26
1978,E-3,397.0,1.0,15,187.26
1979,B-3,397.0,1.0,15,187.26
1980,E-4,397.0,1.0,15,187.26
1981,G#2,398.0,1.0,34,187.26
1982,C#4,398.0,1.0,22,187.26
1983,F#4,398.0,1.0,22,187.26
1984,B4,399.0,3.0,51,187.26
1985,C#4,399.0,1.0,22,187.26
1986,F#4,399.0,1.0,22,187.26
1987,E4,399.0,1.0,22,187.26
1988,E-3,399.0,1.0,22,187.26
1989,G#3,399.0,1.0,22,187.26
1990,C#4,400.0,1.0,22,187.26
1991,F#4,400.0,1.0,22,187.26
1992,E-3,400.0,1.0,20,187.26
1993,G#3,400.0,1.0,20,187.26
1994,E-4,400.0,1.0,20,187.26
1995,G#3,401.0,1.0,22,187.26
1996,C#4,401.0,1.0,22,187.26
1997,E-3,401.0,247/250,19,187.26
1998,G#3,401.0,247/250,19,187.26
1999,E-4,401.0,247/250,19,187.26
2000,B4,402.0,1.0,51,187.26
2001,F#3,402.0,1.0,21,187.26
2002,C#4,402.0,1.0,21,187.26
2003,E-3,402.0,1.0,21,187.26
2004,G#3,402.0,1.0,21,187.26
2005,C#4,402.0,1.0,21,187.26
2006,F#3,403.0,1.0,21,187.26
2007,C#4,403.0,1.0,21,187.26
2008,E-3,403.0,1.0,21,187.26
2009,G#3,403.0,1.0,21,187.26
2010,B3,403.0,1.0,21,187.26
2011,G#3,404.0,1.0,20,187.26
2012,C#4,404.0,1.0,20,187.26
2013,E-3,404.0,1.0,22,187.26
2014,G#3,404.0,1.0,22,187.26
2015,B3,404.0,1.0,22,187.26
2016,F#3,405.0,1.0,20,187.26
2017,C#4,405.0,1.0,20,187.26
2018,C#3,405.0,1.0,22,187.26
2019,E-3,405.0,1.0,22,187.26
2020,F#3,406.0,1.0,18,187.26
2021,C#4,406.0,1.0,18,187.26
2022,B2,406.0,1.0,22,187.26
2023,E-3,406.0,1.0,22,187.26
2024,G#3,407.0,1.0,18,187.26
2025,C#4,407.0,1.0,18,187.26
2026,B2,407.0,1.0,22,187.26
2027,E-3,407.0,1.0,22,187.26
2028,B-3,408.0,1.0,16,187.26
2029,C#4,408.0,1.0,16,187.26
2030,C#3,408.0,1.0,20,187.26
2031,E-3,408.0,1.0,20,187.26
2032,B2,409.0,1.0,20,187.26
2033,E-3,409.0,1.0,20,187.26
2034,B3,410.0,1.0,26,187.26
2035,B2,410.0,1.0,20,187.26
2036,E-3,410.0,1.0,20,187.26
2037,B3,411.0,1.0,26,187.26
2038,B-2,411.0,1.0,20,187.26
2039,E-3,411.0,1.0,20,187.26
2040,G#4,412.0,1.0,39,187.26
2041,G#2,412.0,1.0,18,187.26
2042,E-3,412.0,1.0,18,187.26
2043,B-4,413.0,1.0,39,187.26
2044,C#2,413.0,1.0,20,187.26
2045,B3,413.0,1.0,24,187.26
2046,G#4,413.0,1.0,24,187.26
2047,F#4,414.0,2.0,46,187.26
2048,B3,414.0,1.0,23,187.26
2049,G#4,414.0,1.0,23,187.26
2050,C#3,415.0,0.75,27,187.26
2051,D3,415.75,0.125,26,187.26
2052,E-3,415.875,0.125,26,187.26
2053,E-4,416.0,1.0,39,187.26
2054,C#4,416.0,1.0,28,187.26
2055,F3,416.0,167/1000,25,187.26
2056,E-3,416.167,167/1000,21,187.26
2057,F3,416.333,167/1000,24,187.26
2058,E-3,416.5,167/1000,22,187.26
2059,F3,416.667,167/1000,24,187.26
2060,E-3,416.833,167/1000,21,187.26
2061,F3,417.0,167/1000,24,187.26
2062,G4,417.0,1.0,24,187.26
2063,C#4,417.0,1.0,24,187.26
2064,E-3,417.167,167/1000,21,187.26
2065,F3,417.333,167/1000,24,187.26
2066,E-3,417.5,167/1000,21,187.26
2067,F3,417.667,167/1000,24,187.26
2068,E-3,417.833,167/1000,21,187.26
2069,G#4,418.0,1.0,39,187.26
2070,F3,418.0,0.25,24,187.26
2071,E-3,418.25,0.25,21,187.26
2072,F3,418.5,0.125,24,187.26
2073,E-3,418.625,0.125,20,187.26
2074,C#3,418.75,0.125,24,187.26
2075,E-3,418.875,0.125,18,187.26
2076,B-4,419.0,1.0,39,187.26
2077,F3,419.0,1.0,32,187.26
2078,B3,419.0,1.0,24,187.26
2079,G#4,419.0,1.0,24,187.26
2080,F#4,420.0,2.0,46,187.26
2081,C#2,420.0,1.0,25,187.26
2082,B3,420.0,1.0,24,187.26
2083,G#4,420.0,1.0,24,187.26
2084,C#3,421.0,0.75,27,187.26
2085,B3,421.0,1.0,24,187.26
2086,G#4,421.0,1.0,24,187.26
2087,D3,421.75,0.125,26,187.26
2088,E-3,421.875,0.125,26,187.26
2089,E-4,422.0,1.0,43,187.26
2090,F3,422.0,167/1000,25,187.26
2091,E-4,422.0,1.0,26,187.26
2092,G#4,422.0,1.0,26,187.26
2093,E-3,422.167,167/1000,21,187.26
2094,F3,422.333,167/1000,24,187.26
2095,E-3,422.5,167/1000,22,187.26
2096,F3,422.667,167/1000,24,187.26
2097,E-3,422.833,167/1000,21,187.26
2098,F3,423.0,167/1000,24,187.26
2099,E-4,423.0,1.0,26,187.26
2100,G#4,423.0,1.0,26,187.26
2101,E-3,423.167,167/1000,21,187.26
2102,F3,423.333,167/1000,24,187.26
2103,E-3,423.5,167/1000,21,187.26
2104,F3,423.667,167/1000,24,187.26
2105,E-3,423.833,167/1000,21,187.26
2106,G#4,424.0,1.0,44,187.26
2107,F3,424.0,0.25,24,187.26
2108,E-4,424.0,1.0,24,187.26
2109,G#4,424.0,1.0,24,187.26
2110,E-3,424.25,0.25,21,187.26
2111,F3,424.5,0.125,24,187.26
2112,E-3,424.625,0.125,20,187.26
2113,C#3,424.75,0.125,24,187.26
2114,E-3,424.875,0.125,18,187.26
2115,B-4,425.0,1.0,45,187.26
2116,F3,425.0,1.0,34,187.26
2117,B-3,425.0,1.0,24,187.26
2118,E-4,425.0,1.0,24,187.26
2119,B4,426.0,1.0,47,187.26
2120,C#2,426.0,1.0,36,187.26
2121,G#3,426.0,1.0,22,187.26
2122,E-4,426.0,1.0,22,187.26
2123,C5,427.0,1.0,48,187.26
2124,G#3,427.0,1.0,22,187.26
2125,E-4,427.0,1.0,22,187.26
2126,C#3,427.0,1.0,20,187.26
2127,G#3,427.0,1.0,20,187.26
2128,C#4,427.0,1.0,20,187.26
2129,C#5,428.0,1.0,52,187.26
2130,B-3,428.0,1.0,21,187.26
2131,E-4,428.0,1.0,21,187.26
2132,C#3,428.0,1.0,23,187.26
2133,G#3,428.0,1.0,23,187.26
2134,C#4,428.0,1.0,23,187.26
2135,D5,429.0,1.0,56,187.26
2136,G#3,429.0,1.0,21,187.26
2137,E-4,429.0,1.0,21,187.26
2138,C#3,429.0,1.0,25,187.26
2139,G#3,429.0,1.0,25,187.26
2140,B3,429.0,1.0,25,187.26
2141,E-5,430.0,1.0,52,187.26
2142,G#3,430.0,1.0,21,187.26
2143,E-4,430.0,1.0,21,187.26
2144,C#3,430.0,1.0,26,187.26
2145,G#3,430.0,1.0,26,187.26
2146,B3,430.0,1.0,26,187.26
2147,F4,431.0,1.0,35,187.26
2148,B-3,431.0,1.0,20,187.26
2149,E-4,431.0,1.0,20,187.26
2150,C#3,431.0,1.0,30,187.26
2151,G#3,431.0,1.0,30,187.26
2152,B3,431.0,1.0,30,187.26
2153,F#4,432.0,1.0,36,187.26
2154,B3,432.0,1.0,20,187.26
2155,F#3,432.0,1.0,20,187.26
2156,E-4,432.0,1.0,20,187.26
2157,C#3,432.0,99/100,24,187.26
2158,G#3,432.0,99/100,24,187.26
2159,B3,432.0,99/100,24,187.26
2160,F3,433.0,1.0,25,187.26
2161,B3,433.0,1.0,25,187.26
2162,C#4,433.0,1.0,25,187.26
2163,C#3,433.0,1.0,22,187.26
2164,G#3,433.0,1.0,22,187.26
2165,B3,434.0,1.0,24,187.26
2166,F4,434.0,1.0,24,187.26
2167,F#2,434.0,1.0,22,187.26
2168,C#3,434.0,1.0,22,187.26
2169,B-3,435.0,0.5,39,187.26
2170,B3,435.0,1.0,24,187.26
2171,F4,435.0,1.0,24,187.26
2172,G#3,435.5,0.5,37,187.26
2173,F#3,436.0,0.5,36,187.26
2174,F#3,436.0,1.0,28,187.26
2175,B3,436.0,1.0,28,187.26
2176,F3,436.5,0.5,35,187.26
2177,F3,437.0,0.5,39,187.26
2178,F#3,437.0,1.0,23,187.26
2179,B3,437.0,1.0,23,187.26
2180,E-3,437.5,0.5,39,187.26
2181,C#3,438.0,0.5,37,187.26
2182,F#3,438.0,1.0,24,187.26
2183,B3,438.0,1.0,24,187.26
2184,C3,438.5,0.5,36,187.26
2185,B-2,439.0,0.5,35,187.26
2186,G#3,439.0,1.0,30,187.26
2187,B3,439.0,1.0,30,187.26
2188,C#4,439.0,1.0,30,187.26
2189,G#2,439.5,0.5,35,187.26
2190,C#2,440.0,0.5,35,187.26
2191,B3,440.0,1.0,25,187.26
2192,F4,440.0,1.0,25,187.26
2193,B-3,441.0,0.5,42,187.26
2194,B3,441.0,1.0,25,187.26
2195,F4,441.0,1.0,25,187.26
2196,G#3,441.5,0.5,37,187.26
2197,F#3,442.0,0.5,36,187.26
2198,F#3,442.0,1.0,28,187.26
2199,B3,442.0,1.0,28,187.26
2200,F3,442.5,0.5,36,187.26
2201,F3,443.0,0.5,39,187.26
2202,F#3,443.0,1.0,25,187.26
2203,B3,443.0,1.0,25,187.26
2204,E-3,443.5,0.5,39,187.26
2205,C#3,444.0,0.5,37,187.26
2206,F#3,444.0,1.0,25,187.26
2207,B3,444.0,1.0,25,187.26
2208,C3,444.5,0.5,36,187.26
2209,B-2,445.0,0.5,36,187.26
2210,G#3,445.0,1.0,28,187.26
2211,B3,445.0,1.0,28,187.26
2212,C#4,445.0,1.0,28,187.26
2213,G#2,445.5,0.5,35,187.26
2214,C#2,446.0,0.5,35,187.26
2215,B3,446.0,1.0,31,187.26
2216,F4,446.0,1.0,31,187.26
2217,G#3,447.0,0.5,35,187.26
2218,B3,447.0,1.0,33,187.26
2219,F4,447.0,1.0,33,187.26
2220,B-3,447.5,0.5,36,187.26
2221,C4,448.0,0.5,37,187.26
2222,B3,448.0,1.0,34,187.26
2223,F4,448.0,1.0,34,187.26
2224,C#4,448.5,0.5,41,187.26
2225,C#4,449.0,0.5,45,187.26
2226,C4,449.0,1.0,36,187.26
2227,F4,449.0,1.0,36,187.26
2228,C4,449.5,0.5,37,187.26
2229,E3,450.0,0.5,41,187.26
2230,C#4,450.0,1.0,40,187.26
2231,F4,450.0,1.0,40,187.26
2232,F3,450.5,0.5,36,187.26
2233,C#4,451.0,0.5,39,187.26
2234,D4,451.0,1.0,40,187.26
2235,F4,451.0,1.0,40,187.26
2236,C4,451.5,0.5,35,187.26
2237,B-3,452.0,1.0,39,187.26
2238,E-4,452.0,249/250,38,187.26
2239,F4,452.0,249/250,38,187.26
2240,B-2,453.0,0.5,41,187.26
2241,B3,453.0,1.0,26,187.26
2242,C#4,453.0,1.0,26,187.26
2243,F3,453.5,0.5,35,187.26
2244,G#3,454.0,0.5,37,187.26
2245,B-3,454.0,1.0,28,187.26
2246,C#4,454.0,1.0,28,187.26
2247,C4,454.5,0.5,35,187.26
2248,C4,455.0,0.5,39,187.26
2249,B-3,455.5,0.5,35,187.26
2250,D3,456.0,0.5,36,187.26
2251,E-3,456.5,0.5,35,187.26
2252,C4,457.0,0.5,37,187.26
2253,G#3,457.0,3.0,33,187.26
2254,C4,457.0,3.0,33,187.26
2255,F#4,457.0,3.0,33,187.26
2256,G#4,457.0,3.0,33,187.26
2257,B-3,457.5,0.5,35,187.26
2258,G#3,458.0,1.0,37,187.26
2259,B-3,459.0,0.5,39,187.26
2260,G#3,459.5,0.5,37,187.26
2261,G#3,460.0,1.0,30,187.26
2262,F#3,460.0,0.5,36,187.26
2263,C#4,460.0,3.0,32,187.26
2264,F4,460.0,3.0,32,187.26
2265,G#4,460.0,3.0,32,187.26
2266,F3,460.5,0.5,35,187.26
2267,F3,461.0,0.5,39,187.26
2268,E-3,461.5,0.5,39,187.26
2269,C#3,462.0,0.5,37,187.26
2270,C3,462.5,0.5,36,187.26
2271,C4,463.0,2.0,31,187.26
2272,B-2,463.0,0.5,35,187.26
2273,F#4,463.0,3.0,37,187.26
2274,G#4,463.0,3.0,37,187.26
2275,G#2,463.5,0.5,35,187.26
2276,C#2,464.0,0.5,35,187.26
2277,C#4,465.0,0.5,42,187.26
2278,B-3,465.0,0.5,42,187.26
2279,E-4,465.5,0.5,37,187.26
2280,G#3,465.5,0.5,37,187.26
2281,E4,466.0,1.0,45,187.26
2282,G#4,466.0,2.5,45,187.26
2283,F#3,466.0,0.5,36,187.26
2284,F3,466.5,0.5,36,187.26
2285,F4,467.0,2.0,39,187.26
2286,F3,467.0,0.5,39,187.26
2287,E-3,467.5,0.5,39,187.26
2288,C#3,468.0,0.5,37,187.26
2289,F5,468.5,0.5,52,187.26
2290,C3,468.5,0.5,36,187.26
2291,E-4,469.0,3.0,39,187.26
2292,B-2,469.0,0.5,36,187.26
2293,A4,469.0,2.0,44,187.26
2294,F5,469.0,2.0,44,187.26
2295,G#2,469.5,0.5,35,187.26
2296,C#2,470.0,0.5,35,187.26
2297,A4,471.0,1.0,39,187.26
2298,G#3,471.0,0.5,39,187.26
2299,G3,471.5,0.5,36,187.26
2300,B-4,472.0,2.0,46,187.26
2301,C#4,472.0,3.0,39,187.26
2302,B-3,472.0,0.5,39,187.26
2303,G#3,472.5,0.5,34,187.26
2304,B3,473.0,1.0,39,187.26
2305,B2,474.0,0.5,43,187.26
2306,F4,474.0,1.0,41,187.26
2307,C#5,474.0,1.0,41,187.26
2308,F3,474.5,0.5,39,187.26
2309,G#3,475.0,0.5,43,187.26
2310,C#4,475.0,3.0,40,187.26
2311,E-4,475.0,3.0,40,187.26
2312,G4,475.0,3.0,40,187.26
2313,F#3,475.5,0.5,39,187.26
2314,B-3,476.0,1.0,45,187.26
2315,F#2,477.0,0.5,41,187.26
2316,C#3,477.5,0.5,36,187.26
2317,F#3,478.0,0.5,41,187.26
2318,C4,478.0,2.0,42,187.26
2319,E-4,478.0,2.0,42,187.26
2320,G#4,478.0,2.0,42,187.26
2321,B-3,478.5,0.5,36,187.26
2322,G#3,479.0,1.0,43,187.26
2323,C#2,480.0,0.5,39,187.26
2324,C#4,480.0,1.0,40,187.26
2325,F4,480.0,1.0,40,187.26
2326,G#4,480.0,1.0,40,187.26
2327,G#2,480.5,0.5,35,187.26
2328,C#3,481.0,0.5,39,187.26
2329,C4,481.0,3.0,34,187.26
2330,F#4,481.0,3.0,34,187.26
2331,G#4,481.0,3.0,34,187.26
2332,G#3,481.5,0.5,36,187.26
2333,C#4,482.0,0.5,39,187.26
2334,C4,482.5,0.5,34,187.26
2335,B-4,483.0,1.0,57,187.26
2336,B3,483.0,0.5,35,187.26
2337,B-3,483.5,0.5,34,187.26
2338,F4,484.0,1.0,49,187.26
2339,C#4,484.0,2.0,39,187.26
2340,B3,484.0,0.5,41,187.26
2341,F4,484.0,3.0,44,187.26
2342,G#4,484.0,3.0,44,187.26
2343,C#3,484.5,0.5,35,187.26
2344,F#4,485.0,1.0,52,187.26
2345,F#2,485.0,1.0,37,187.26
2346,E-5,486.0,2.0,56,187.26
2347,G#3,486.0,1.0,35,187.26
2348,E-4,486.0,1.0,22,187.26
2349,F#3,486.0,1.0,22,187.26
2350,C#3,486.0,1.0,22,187.26
2351,C4,487.0,1.0,45,187.26
2352,F#4,487.0,3.0,45,187.26
2353,G#4,487.0,3.0,45,187.26
2354,C#3,487.0,1.0,20,187.26
2355,F#3,487.0,1.0,20,187.26
2356,C#4,487.0,1.0,20,187.26
2357,C#5,488.0,1.0,52,187.26
2358,B-3,488.0,0.5,38,187.26
2359,F#2,488.0,1.0,34,187.26
2360,G#3,488.5,0.5,34,187.26
2361,C#5,489.0,1.0,52,187.26
2362,C#4,489.0,0.5,42,187.26
2363,E-4,489.0,1.0,20,187.26
2364,C#3,489.0,1.0,20,187.26
2365,F#3,489.0,1.0,20,187.26
2366,E-4,489.5,0.5,37,187.26
2367,F#4,490.0,1.0,44,187.26
2368,F4,490.0,2.0,39,187.26
2369,G#4,490.0,3.0,47,187.26
2370,C#3,490.0,1.0,16,187.26
2371,F#3,490.0,1.0,16,187.26
2372,C#4,490.0,1.0,16,187.26
2373,G#4,491.0,1.0,45,187.26
2374,C#2,491.0,1.0,33,187.26
2375,B-4,492.0,3.0,52,187.26
2376,E4,492.0,1.0,42,187.26
2377,E-4,492.0,1.0,24,187.26
2378,F#3,492.0,1.0,24,187.26
2379,C#3,492.0,1.0,24,187.26
2380,G#4,493.0,2.0,45,187.26
2381,E-4,493.0,3.0,38,187.26
2382,C#3,493.0,1.0,20,187.26
2383,F#3,493.0,1.0,20,187.26
2384,C#4,493.0,1.0,20,187.26
2385,F#2,494.0,1.0,34,187.26
2386,B-4,495.0,3.0,52,187.26
2387,F#4,495.0,1.0,38,187.26
2388,E-4,495.0,1.0,21,187.26
2389,C#3,495.0,1.0,21,187.26
2390,F#3,495.0,1.0,21,187.26
2391,D4,496.0,1.0,37,187.26
2392,F#4,496.0,2.0,45,187.26
2393,C#3,496.0,1.0,19,187.26
2394,F#3,496.0,1.0,19,187.26
2395,C#4,496.0,1.0,19,187.26
2396,C#4,497.0,2.0,39,187.26
2397,C#3,497.0,1.0,16,187.26
2398,F#3,497.0,1.0,16,187.26
2399,C#4,497.0,1.0,16,187.26
2400,B-4,498.0,1.0,52,187.26
2401,E-4,498.0,1.0,43,187.26
2402,C#5,498.0,1.0,43,187.26
2403,C#3,498.0,1.0,20,187.26
2404,F#3,498.0,1.0,20,187.26
2405,B3,498.0,1.0,20,187.26
2406,C#4,499.0,3.0,43,187.26
2407,F4,499.0,3.0,43,187.26
2408,C#5,499.0,3.0,43,187.26
2409,C#3,499.0,1.0,16,187.26
2410,F#3,499.0,1.0,16,187.26
2411,B-3,499.0,1.0,16,187.26
2412,C#3,500.0,1.0,17,187.26
2413,F#3,500.0,1.0,17,187.26
2414,B-3,500.0,1.0,17,187.26
2415,B2,501.0,1.0,22,187.26
2416,C#3,501.0,1.0,22,187.26
2417,F4,502.0,3.0,31,187.26
2418,G#4,502.0,2.0,37,187.26
2419,B-2,502.0,1.0,22,187.26
2420,C#3,502.0,1.0,22,187.26
2421,B-2,503.0,1.0,22,187.26
2422,C#3,503.0,1.0,22,187.26
2423,A4,504.0,1.0,45,187.26
2424,B2,504.0,1.0,22,187.26
2425,C#3,504.0,1.0,22,187.26
2426,B-2,505.0,1.0,22,187.26
2427,C#3,505.0,1.0,22,187.26
2428,B-3,506.0,1.0,25,187.26
2429,B-2,506.0,1.0,22,187.26
2430,C#3,506.0,1.0,22,187.26
2431,B4,507.0,1.0,53,187.26
2432,B-3,507.0,1.0,22,187.26
2433,B2,507.0,1.0,22,187.26
2434,C#3,507.0,1.0,22,187.26
2435,G4,508.0,1.0,50,187.26
2436,B-2,508.0,1.0,22,187.26
2437,C#3,508.0,1.0,22,187.26
2438,G#4,509.0,1.0,57,187.26
2439,G#2,509.0,1.0,31,187.26
2440,B-3,509.0,1.0,22,187.26
2441,F#4,509.0,1.0,22,187.26
2442,E5,510.0,2.0,58,187.26
2443,B-3,510.0,1.0,22,187.26
2444,F#4,510.0,1.0,22,187.26
2445,E4,510.0,1.0,23,187.26
2446,G#3,510.0,1.0,23,187.26
2447,E-3,510.0,1.0,23,187.26
2448,E-3,511.0,1.0,19,187.26
2449,G#3,511.0,1.0,19,187.26
2450,E-4,511.0,1.0,19,187.26
2451,E-5,512.0,1.0,54,187.26
2452,B3,512.0,1.0,23,187.26
2453,G#2,512.0,1.0,38,187.26
2454,E-5,513.0,1.0,54,187.26
2455,F4,513.0,1.0,24,187.26
2456,B3,513.0,1.0,24,187.26
2457,E4,513.0,1.0,20,187.26
2458,E-3,513.0,1.0,20,187.26
2459,G#3,513.0,1.0,20,187.26
2460,G#4,514.0,1.0,49,187.26
2461,E-3,514.0,1.0,18,187.26
2462,G#3,514.0,1.0,18,187.26
2463,E-4,514.0,1.0,18,187.26
2464,B-4,515.0,1.0,52,187.26
2465,E-2,515.0,1.0,33,187.26
2466,B-3,515.0,1.0,26,187.26
2467,F#4,515.0,1.0,26,187.26
2468,C#5,516.0,1.0,58,187.26
2469,B-3,516.0,1.0,25,187.26
2470,F#4,516.0,1.0,25,187.26
2471,E4,516.0,1.0,22,187.26
2472,B-3,516.0,1.0,22,187.26
2473,E-3,516.0,1.0,22,187.26
2474,B4,517.0,2.0,54,187.26
2475,B-3,517.0,1.0,25,187.26
2476,F#4,517.0,1.0,25,187.26
2477,E-3,517.0,1.0,18,187.26
2478,B-3,517.0,1.0,18,187.26
2479,E-4,517.0,1.0,18,187.26
2480,G#2,518.0,1.0,34,187.26
2481,C#4,518.0,1.0,22,187.26
2482,F#4,518.0,1.0,22,187.26
2483,B4,519.0,3.0,54,187.26
2484,C#4,519.0,1.0,22,187.26
2485,F#4,519.0,1.0,22,187.26
2486,E4,519.0,1.0,22,187.26
2487,E-3,519.0,1.0,22,187.26
2488,G#3,519.0,1.0,22,187.26
2489,C#4,520.0,1.0,22,187.26
2490,F#4,520.0,1.0,22,187.26
2491,E-3,520.0,1.0,20,187.26
2492,G#3,520.0,1.0,20,187.26
2493,E-4,520.0,1.0,20,187.26
2494,G#3,521.0,1.0,22,187.26
2495,C#4,521.0,1.0,22,187.26
2496,E-3,521.0,1.0,19,187.26
2497,G#3,521.0,1.0,19,187.26
2498,E-4,521.0,1.0,19,187.26
2499,B4,522.0,1.0,54,187.26
2500,F#3,522.0,1.0,22,187.26
2501,C#4,522.0,1.0,22,187.26
2502,E-3,522.0,1.0,21,187.26
2503,G#3,522.0,1.0,21,187.26
2504,C#4,522.0,1.0,21,187.26
2505,F#3,523.0,1.0,22,187.26
2506,C#4,523.0,1.0,22,187.26
2507,E-3,523.0,1.0,21,187.26
2508,G#3,523.0,1.0,21,187.26
2509,B3,523.0,1.0,21,187.26
2510,G#3,524.0,1.0,20,187.26
2511,C#4,524.0,1.0,20,187.26
2512,E-3,524.0,1.0,22,187.26
2513,G#3,524.0,1.0,22,187.26
2514,B3,524.0,1.0,22,187.26
2515,F#3,525.0,1.0,20,187.26
2516,C#4,525.0,1.0,20,187.26
2517,C#3,525.0,1.0,24,187.26
2518,E-3,525.0,1.0,24,187.26
2519,F#3,526.0,1.0,19,187.26
2520,C#4,526.0,1.0,19,187.26
2521,B2,526.0,1.0,24,187.26
2522,E-3,526.0,1.0,24,187.26
2523,G#3,527.0,1.0,20,187.26
2524,C#4,527.0,1.0,20,187.26
2525,B2,527.0,1.0,24,187.26
2526,E-3,527.0,1.0,24,187.26
2527,F#3,528.0,1.0,19,187.26
2528,C#4,528.0,1.0,19,187.26
2529,C#3,528.0,1.0,23,187.26
2530,E-3,528.0,1.0,23,187.26
2531,B2,529.0,1.0,24,187.26
2532,E-3,529.0,1.0,24,187.26
2533,B3,530.0,1.0,26,187.26
2534,B2,530.0,1.0,24,187.26
2535,E-3,530.0,1.0,24,187.26
2536,B3,531.0,1.0,26,187.26
2537,B-2,531.0,1.0,23,187.26
2538,E-3,531.0,1.0,23,187.26
2539,G#4,532.0,1.0,39,187.26
2540,G#2,532.0,1.0,22,187.26
2541,E-3,532.0,1.0,22,187.26
2542,B-4,533.0,1.0,39,187.26
2543,C#2,533.0,1.0,20,187.26
2544,B3,533.0,1.0,28,187.26
2545,G#4,533.0,1.0,28,187.26
2546,F#4,534.0,2.0,46,187.26
2547,B3,534.0,1.0,23,187.26
2548,G#4,534.0,1.0,23,187.26
2549,C#3,535.0,0.75,27,187.26
2550,D3,535.75,0.125,26,187.26
2551,E-3,535.875,0.125,26,187.26
2552,E-4,536.0,1.0,39,187.26
2553,C#4,536.0,1.0,28,187.26
2554,F3,536.0,167/1000,25,187.26
2555,E-3,536.167,167/1000,21,187.26
2556,F3,536.333,167/1000,24,187.26
2557,E-3,536.5,167/1000,22,187.26
2558,F3,536.667,167/1000,24,187.26
2559,E-3,536.833,167/1000,21,187.26
2560,F3,537.0,167/1000,24,187.26
2561,G4,537.0,1.0,24,187.26
2562,C#4,537.0,1.0,24,187.26
2563,E-3,537.167,167/1000,21,187.26
2564,F3,537.333,167/1000,24,187.26
2565,E-3,537.5,167/1000,21,187.26
2566,F3,537.667,167/1000,24,187.26
2567,E-3,537.833,167/1000,21,187.26
2568,G#4,538.0,1.0,39,187.26
2569,F3,538.0,0.25,24,187.26
2570,E-3,538.25,0.25,21,187.26
2571,F3,538.5,0.125,24,187.26
2572,E-3,538.625,0.125,20,187.26
2573,C#3,538.75,0.125,24,187.26
2574,E-3,538.875,0.125,18,187.26
2575,B-4,539.0,1.0,39,187.26
2576,F3,539.0,1.0,32,187.26
2577,B3,539.0,1.0,24,187.26
2578,G#4,539.0,1.0,24,187.26
2579,F#4,540.0,2.0,46,187.26
2580,C#2,540.0,1.0,25,187.26
2581,B3,540.0,1.0,24,187.26
2582,G#4,540.0,1.0,24,187.26
2583,C#3,541.0,0.75,27,187.26
2584,B3,541.0,1.0,24,187.26
2585,G#4,541.0,1.0,24,187.26
2586,D3,541.75,0.125,26,187.26
2587,E-3,541.875,0.125,26,187.26
2588,E-4,542.0,1.0,43,187.26
2589,F3,542.0,167/1000,25,187.26
2590,E-4,542.0,1.0,26,187.26
2591,G#4,542.0,1.0,26,187.26
2592,E-3,542.167,167/1000,21,187.26
2593,F3,542.333,167/1000,24,187.26
2594,E-3,542.5,167/1000,22,187.26
2595,F3,542.667,167/1000,24,187.26
2596,E-3,542.833,167/1000,21,187.26
2597,F3,543.0,167/1000,24,187.26
2598,E-4,543.0,1.0,26,187.26
2599,G#4,543.0,1.0,26,187.26
2600,E-3,543.167,167/1000,21,187.26
2601,F3,543.333,167/1000,24,187.26
2602,E-3,543.5,167/1000,21,187.26
2603,F3,543.667,167/1000,24,187.26
2604,E-3,543.833,167/1000,21,187.26
2605,G#4,544.0,1.0,44,187.26
2606,F3,544.0,0.25,24,187.26
2607,E-4,544.0,1.0,24,187.26
2608,G#4,544.0,1.0,24,187.26
2609,E-3,544.25,0.25,21,187.26
2610,F3,544.5,0.125,24,187.26
2611,E-3,544.625,0.125,20,187.26
2612,C#3,544.75,0.125,24,187.26
2613,E-3,544.875,0.125,18,187.26
2614,B-4,545.0,1.0,45,187.26
2615,F3,545.0,1.0,34,187.26
2616,B-3,545.0,1.0,25,187.26
2617,E-4,545.0,1.0,25,187.26
2618,B4,546.0,1.0,47,187.26
2619,C#2,546.0,1.0,36,187.26
2620,G#3,546.0,1.0,24,187.26
2621,E-4,546.0,1.0,24,187.26
2622,C5,547.0,1.0,48,187.26
2623,G#3,547.0,1.0,24,187.26
2624,E-4,547.0,1.0,24,187.26
2625,C#3,547.0,1.0,20,187.26
2626,G#3,547.0,1.0,20,187.26
2627,C#4,547.0,1.0,20,187.26
2628,C#5,548.0,1.0,52,187.26
2629,B-3,548.0,1.0,24,187.26
2630,E-4,548.0,1.0,24,187.26
2631,C#3,548.0,1.0,23,187.26
2632,G#3,548.0,1.0,23,187.26
2633,C#4,548.0,1.0,23,187.26
2634,D5,549.0,1.0,52,187.26
2635,G#3,549.0,1.0,24,187.26
2636,E-4,549.0,1.0,24,187.26
2637,C#3,549.0,1.0,25,187.26
2638,G#3,549.0,1.0,25,187.26
2639,B3,549.0,1.0,25,187.26
2640,E-5,550.0,1.0,51,187.26
2641,G#3,550.0,1.0,24,187.26
2642,E-4,550.0,1.0,24,187.26
2643,C#3,550.0,1.0,25,187.26
2644,G#3,550.0,1.0,25,187.26
2645,B3,550.0,1.0,25,187.26
2646,F4,551.0,1.0,35,187.26
2647,B-3,551.0,1.0,24,187.26
2648,E-4,551.0,1.0,24,187.26
2649,C#3,551.0,1.0,30,187.26
2650,G#3,551.0,1.0,30,187.26
2651,B3,551.0,1.0,30,187.26
2652,F#4,552.0,1.0,36,187.26
2653,B3,552.0,1.0,24,187.26
2654,F#3,552.0,1.0,24,187.26
2655,E-4,552.0,1.0,24,187.26
2656,C#3,552.0,99/100,24,187.26
2657,G#3,552.0,99/100,24,187.26
2658,B3,552.0,99/100,24,187.26
2659,F3,553.0,1.0,27,187.26
2660,B3,553.0,1.0,27,187.26
2661,C#4,553.0,1.0,27,187.26
2662,C#3,553.0,1.0,22,187.26
2663,G#3,553.0,1.0,22,187.26
2664,B3,554.0,1.0,24,187.26
2665,F4,554.0,1.0,24,187.26
2666,F#2,554.0,1.0,22,187.26
2667,C#3,554.0,1.0,22,187.26
2668,B-3,555.0,0.5,39,187.26
2669,B3,555.0,1.0,24,187.26
2670,F4,555.0,1.0,24,187.26
2671,G#3,555.5,0.5,37,187.26
2672,F#3,556.0,0.5,36,187.26
2673,F#3,556.0,1.0,28,187.26
2674,B3,556.0,1.0,28,187.26
2675,F3,556.5,0.5,35,187.26
2676,F3,557.0,0.5,39,187.26
2677,F#3,557.0,1.0,23,187.26
2678,B3,557.0,1.0,23,187.26
2679,E-3,557.5,0.5,39,187.26
2680,C#3,558.0,0.5,37,187.26
2681,F#3,558.0,1.0,24,187.26
2682,B3,558.0,1.0,24,187.26
2683,C3,558.5,0.5,36,187.26
2684,B-2,559.0,0.5,35,187.26
2685,G#3,559.0,1.0,30,187.26
2686,B3,559.0,1.0,30,187.26
2687,C#4,559.0,1.0,30,187.26
2688,G#2,559.5,0.5,35,187.26
2689,C#2,560.0,0.5,35,187.26
2690,B3,560.0,1.0,25,187.26
2691,F4,560.0,1.0,25,187.26
2692,B-3,561.0,0.5,42,187.26
2693,B3,561.0,1.0,25,187.26
2694,F4,561.0,1.0,25,187.26
2695,G#3,561.5,0.5,37,187.26
2696,F#3,562.0,0.5,36,187.26
2697,F#3,562.0,1.0,28,187.26
2698,B3,562.0,1.0,28,187.26
2699,F3,562.5,0.5,36,187.26
2700,F3,563.0,0.5,39,187.26
2701,F#3,563.0,1.0,25,187.26
2702,B3,563.0,1.0,25,187.26
2703,E-3,563.5,0.5,39,187.26
2704,C#3,564.0,0.5,37,187.26
2705,F#3,564.0,1.0,25,187.26
2706,B3,564.0,1.0,25,187.26
2707,C3,564.5,0.5,36,187.26
2708,B-2,565.0,0.5,36,187.26
2709,G#3,565.0,1.0,28,187.26
2710,B3,565.0,1.0,28,187.26
2711,C#4,565.0,1.0,28,187.26
2712,G#2,565.5,0.5,35,187.26
2713,C#2,566.0,0.5,35,187.26
2714,B3,566.0,1.0,31,187.26
2715,F4,566.0,1.0,31,187.26
2716,G#3,567.0,0.5,35,187.26
2717,B3,567.0,1.0,33,187.26
2718,F4,567.0,1.0,33,187.26
2719,B-3,567.5,0.5,36,187.26
2720,C4,568.0,0.5,37,187.26
2721,B3,568.0,1.0,34,187.26
2722,F4,568.0,1.0,34,187.26
2723,C#4,568.5,0.5,41,187.26
2724,C#4,569.0,0.5,45,187.26
2725,C4,569.0,1.0,36,187.26
2726,F4,569.0,1.0,36,187.26
2727,C4,569.5,0.5,37,187.26
2728,E3,570.0,0.5,41,187.26
2729,C#4,570.0,1.0,38,187.26
2730,F4,570.0,1.0,38,187.26
2731,F3,570.5,0.5,36,187.26
2732,C#4,571.0,0.5,39,187.26
2733,D4,571.0,1.0,41,187.26
2734,F4,571.0,1.0,41,187.26
2735,C4,571.5,0.5,35,187.26
2736,B-3,572.0,1.0,39,187.26
2737,E-4,572.0,249/250,38,187.26
2738,F4,572.0,249/250,38,187.26
2739,B-2,573.0,0.5,41,187.26
2740,B3,573.0,1.0,26,187.26
2741,C#4,573.0,1.0,26,187.26
2742,F3,573.5,0.5,35,187.26
2743,G#3,574.0,0.5,37,187.26
2744,B-3,574.0,1.0,28,187.26
2745,C#4,574.0,1.0,28,187.26
2746,C4,574.5,0.5,35,187.26
2747,C4,575.0,0.5,39,187.26
2748,B-3,575.5,0.5,35,187.26
2749,D3,576.0,0.5,36,187.26
2750,E-3,576.5,0.5,35,187.26
2751,C4,577.0,0.5,37,187.26
2752,G#3,577.0,3.0,33,187.26
2753,C4,577.0,3.0,33,187.26
2754,F#4,577.0,3.0,33,187.26
2755,G#4,577.0,3.0,33,187.26
2756,B-3,577.5,0.5,35,187.26
2757,G#3,578.0,1.0,37,187.26
2758,B-3,579.0,0.5,39,187.26
2759,G#3,579.5,0.5,37,187.26
2760,G#3,580.0,1.0,30,187.26
2761,F#3,580.0,0.5,36,187.26
2762,C#4,580.0,3.0,32,187.26
2763,F4,580.0,3.0,32,187.26
2764,G#4,580.0,3.0,32,187.26
2765,F3,580.5,0.5,35,187.26
2766,F3,581.0,0.5,39,187.26
2767,E-3,581.5,0.5,39,187.26
2768,C#3,582.0,0.5,37,187.26
2769,C3,582.5,0.5,36,187.26
2770,C4,583.0,2.0,31,187.26
2771,B-2,583.0,0.5,35,187.26
2772,F#4,583.0,3.0,37,187.26
2773,G#4,583.0,3.0,37,187.26
2774,G#2,583.5,0.5,35,187.26
2775,C#2,584.0,0.5,35,187.26
2776,C#4,585.0,0.5,42,187.26
2777,B-3,585.0,0.5,42,187.26
2778,E-4,585.5,0.5,37,187.26
2779,G#3,585.5,0.5,37,187.26
2780,E4,586.0,1.0,45,187.26
2781,G#4,586.0,2.5,45,187.26
2782,F#3,586.0,0.5,36,187.26
2783,F3,586.5,0.5,36,187.26
2784,F4,587.0,2.0,39,187.26
2785,F3,587.0,0.5,39,187.26
2786,E-3,587.5,0.5,39,187.26
2787,C#3,588.0,0.5,37,187.26
2788,F5,588.5,0.5,52,187.26
2789,C3,588.5,0.5,36,187.26
2790,E-4,589.0,3.0,39,187.26
2791,B-2,589.0,0.5,36,187.26
2792,A4,589.0,2.0,44,187.26
2793,F5,589.0,2.0,44,187.26
2794,G#2,589.5,0.5,35,187.26
2795,C#2,590.0,0.5,35,187.26
2796,A4,591.0,1.0,39,187.26
2797,G#3,591.0,0.5,39,187.26
2798,G3,591.5,0.5,36,187.26
2799,B-4,592.0,2.0,46,187.26
2800,C#4,592.0,3.0,39,187.26
2801,B-3,592.0,0.5,39,187.26
2802,G#3,592.5,0.5,34,187.26
2803,B3,593.0,1.0,39,187.26
2804,B2,594.0,0.5,43,187.26
2805,F4,594.0,1.0,41,187.26
2806,C#5,594.0,1.0,41,187.26
2807,F3,594.5,0.5,39,187.26
2808,G#3,595.0,0.5,43,187.26
2809,C#4,595.0,3.0,40,187.26
2810,E-4,595.0,3.0,40,187.26
2811,G4,595.0,3.0,40,187.26
2812,F#3,595.5,0.5,39,187.26
2813,B-3,596.0,1.0,45,187.26
2814,F#2,597.0,0.5,41,187.26
2815,C#3,597.5,0.5,36,187.26
2816,F#3,598.0,0.5,41,187.26
2817,C4,598.0,2.0,42,187.26
2818,E-4,598.0,2.0,42,187.26
2819,G#4,598.0,2.0,42,187.26
2820,B-3,598.5,0.5,36,187.26
2821,G#3,599.0,1.0,43,187.26
2822,C#2,600.0,0.5,39,187.26
2823,C#4,600.0,1.0,40,187.26
2824,F4,600.0,1.0,40,187.26
2825,G#4,600.0,1.0,40,187.26
2826,G#2,600.5,0.5,35,187.26
2827,C#3,601.0,0.5,39,187.26
2828,C4,601.0,3.0,34,187.26
2829,F#4,601.0,3.0,34,187.26
2830,G#4,601.0,3.0,34,187.26
2831,G#3,601.5,0.5,36,187.26
2832,C#4,602.0,0.5,39,187.26
2833,C4,602.5,0.5,34,187.26
2834,B-4,603.0,1.0,54,187.26
2835,B3,603.0,0.5,34,187.26
2836,B-3,603.5,0.5,34,187.26
2837,F4,604.0,1.0,49,187.26
2838,C#4,604.0,2.0,39,187.26
2839,B3,604.0,0.5,41,187.26
2840,F4,604.0,3.0,44,187.26
2841,G#4,604.0,3.0,44,187.26
2842,C#3,604.5,0.5,34,187.26
2843,F#4,605.0,1.0,52,187.26
2844,F#2,605.0,1.0,37,187.26
2845,E-5,606.0,2.0,57,187.26
2846,G#3,606.0,1.0,35,187.26
2847,E-4,606.0,1.0,22,187.26
2848,F#3,606.0,1.0,22,187.26
2849,C#3,606.0,1.0,22,187.26
2850,C4,607.0,1.0,45,187.26
2851,F#4,607.0,3.0,42,187.26
2852,G#4,607.0,3.0,42,187.26
2853,C#3,607.0,1.0,20,187.26
2854,F#3,607.0,1.0,20,187.26
2855,C#4,607.0,1.0,20,187.26
2856,C#5,608.0,1.0,52,187.26
2857,B-3,608.0,0.5,38,187.26
2858,F#2,608.0,1.0,34,187.26
2859,G#3,608.5,0.5,34,187.26
2860,C#5,609.0,1.0,52,187.26
2861,C#4,609.0,0.5,42,187.26
2862,E-4,609.0,1.0,20,187.26
2863,C#3,609.0,1.0,20,187.26
2864,F#3,609.0,1.0,20,187.26
2865,E-4,609.5,0.5,37,187.26
2866,F#4,610.0,1.0,45,187.26
2867,F4,610.0,2.0,39,187.26
2868,G#4,610.0,3.0,47,187.26
2869,C#3,610.0,1.0,16,187.26
2870,F#3,610.0,1.0,16,187.26
2871,C#4,610.0,1.0,16,187.26
2872,G#4,611.0,1.0,45,187.26
2873,C#2,611.0,1.0,33,187.26
2874,B-4,612.0,3.0,52,187.26
2875,E4,612.0,1.0,42,187.26
2876,E-4,612.0,1.0,24,187.26
2877,F#3,612.0,1.0,24,187.26
2878,C#3,612.0,1.0,24,187.26
2879,G#4,613.0,2.0,45,187.26
2880,E-4,613.0,3.0,38,187.26
2881,C#3,613.0,1.0,20,187.26
2882,F#3,613.0,1.0,20,187.26
2883,C#4,613.0,1.0,20,187.26
2884,F#2,614.0,1.0,34,187.26
2885,B-4,615.0,3.0,52,187.26
2886,F#4,615.0,249/250,38,187.26
2887,E-4,615.0,1.0,21,187.26
2888,C#3,615.0,1.0,21,187.26
2889,F#3,615.0,1.0,21,187.26
2890,D4,616.0,1.0,37,187.26
2891,F#4,616.0,2.0,45,187.26
2892,C#3,616.0,1.0,19,187.26
2893,F#3,616.0,1.0,19,187.26
2894,C#4,616.0,1.0,19,187.26
2895,C#4,617.0,2.0,39,187.26
2896,C#3,617.0,1.0,16,187.26
2897,F#3,617.0,1.0,16,187.26
2898,C#4,617.0,1.0,16,187.26
2899,B-4,618.0,1.0,52,187.26
2900,E-4,618.0,1.0,43,187.26
2901,C#5,618.0,1.0,43,187.26
2902,C#3,618.0,1.0,20,187.26
2903,F#3,618.0,1.0,20,187.26
2904,B3,618.0,1.0,20,187.26
2905,C#4,619.0,3.0,43,187.26
2906,F4,619.0,3.0,43,187.26
2907,C#5,619.0,3.0,43,187.26
2908,C#3,619.0,1.0,16,187.26
2909,F#3,619.0,1.0,16,187.26
2910,B-3,619.0,1.0,16,187.26
2911,C#3,620.0,1.0,21,187.26
2912,F#3,620.0,1.0,21,187.26
2913,B-3,620.0,1.0,21,187.26
2914,B2,621.0,1.0,22,187.26
2915,C#3,621.0,1.0,22,187.26
2916,F4,622.0,3.0,31,187.26
2917,G#4,622.0,2.0,37,187.26
2918,B-2,622.0,1.0,22,187.26
2919,C#3,622.0,1.0,22,187.26
2920,B-2,623.0,1.0,22,187.26
2921,C#3,623.0,1.0,22,187.26
2922,A4,624.0,1.0,45,187.26
2923,B2,624.0,1.0,22,187.26
2924,C#3,624.0,1.0,22,187.26
2925,B-2,625.0,1.0,22,187.26
2926,C#3,625.0,1.0,22,187.26
2927,B-3,626.0,1.0,25,187.26
2928,B-2,626.0,1.0,22,187.26
2929,C#3,626.0,1.0,22,187.26
2930,B4,627.0,1.0,54,187.26
2931,B-3,627.0,1.0,22,187.26
2932,B2,627.0,1.0,22,187.26
2933,C#3,627.0,1.0,22,187.26
2934,G4,628.0,1.0,52,187.26
2935,B-2,628.0,1.0,22,187.26
2936,C#3,628.0,1.0,22,187.26
2937,G#4,629.0,1.0,54,187.26
2938,G#2,629.0,1.0,31,187.26
2939,B-3,629.0,1.0,22,187.26
2940,F#4,629.0,1.0,22,187.26
2941,E5,630.0,2.0,59,187.26
2942,B-3,630.0,1.0,22,187.26
2943,F#4,630.0,1.0,22,187.26
2944,E4,630.0,1.0,23,187.26
2945,G#3,630.0,1.0,23,187.26
2946,E-3,630.0,1.0,23,187.26
2947,E-3,631.0,1.0,19,187.26
2948,G#3,631.0,1.0,19,187.26
2949,E-4,631.0,1.0,19,187.26
2950,E-5,632.0,1.0,56,187.26
2951,B3,632.0,1.0,23,187.26
2952,G#2,632.0,1.0,38,187.26
2953,E-5,633.0,1.0,58,187.26
2954,F4,633.0,1.0,24,187.26
2955,B3,633.0,1.0,24,187.26
2956,E4,633.0,1.0,20,187.26
2957,E-3,633.0,1.0,20,187.26
2958,G#3,633.0,1.0,20,187.26
2959,G#4,634.0,1.0,49,187.26
2960,E-3,634.0,1.0,18,187.26
2961,G#3,634.0,1.0,18,187.26
2962,E-4,634.0,1.0,18,187.26
2963,B-4,635.0,1.0,51,187.26
2964,E-2,635.0,1.0,33,187.26
2965,B-3,635.0,1.0,26,187.26
2966,F#4,635.0,1.0,26,187.26
2967,C#5,636.0,1.0,57,187.26
2968,B-3,636.0,1.0,25,187.26
2969,F#4,636.0,1.0,25,187.26
2970,E4,636.0,1.0,22,187.26
2971,B-3,636.0,1.0,22,187.26
2972,E-3,636.0,1.0,22,187.26
2973,B4,637.0,2.0,52,187.26
2974,B-3,637.0,1.0,25,187.26
2975,F#4,637.0,1.0,25,187.26
2976,E-3,637.0,1.0,18,187.26
2977,B-3,637.0,1.0,18,187.26
2978,E-4,637.0,1.0,18,187.26
2979,G#2,638.0,1.0,34,187.26
2980,C#4,638.0,1.0,22,187.26
2981,F#4,638.0,1.0,22,187.26
2982,B4,639.0,3.0,52,187.26
2983,C#4,639.0,1.0,22,187.26
2984,F#4,639.0,1.0,22,187.26
2985,E4,639.0,1.0,22,187.26
2986,E-3,639.0,1.0,22,187.26
2987,G#3,639.0,1.0,22,187.26
2988,C#4,640.0,1.0,22,187.26
2989,F#4,640.0,1.0,22,187.26
2990,E-3,640.0,1.0,20,187.26
2991,G#3,640.0,1.0,20,187.26
2992,E-4,640.0,1.0,20,187.26
2993,G#3,641.0,1.0,22,187.26
2994,C#4,641.0,1.0,22,187.26
2995,E-3,641.0,1.0,19,187.26
2996,G#3,641.0,1.0,19,187.26
2997,E-4,641.0,1.0,19,187.26
2998,B4,642.0,1.0,52,187.26
2999,F#3,642.0,1.0,22,187.26
3000,C#4,642.0,1.0,22,187.26
3001,E-3,642.0,1.0,21,187.26
3002,G#3,642.0,1.0,21,187.26
3003,C#4,642.0,1.0,21,187.26
3004,F#3,643.0,1.0,22,187.26
3005,C#4,643.0,1.0,22,187.26
3006,E-3,643.0,1.0,21,187.26
3007,G#3,643.0,1.0,21,187.26
3008,B3,643.0,1.0,21,187.26
3009,G#3,644.0,1.0,20,187.26
3010,C#4,644.0,1.0,20,187.26
3011,E-3,644.0,1.0,22,187.26
3012,G#3,644.0,1.0,22,187.26
3013,B3,644.0,1.0,22,187.26
3014,F#3,645.0,1.0,20,187.26
3015,C#4,645.0,1.0,20,187.26
3016,C#3,645.0,1.0,24,187.26
3017,E-3,645.0,1.0,24,187.26
3018,F#3,646.0,1.0,19,187.26
3019,C#4,646.0,1.0,19,187.26
3020,B2,646.0,1.0,24,187.26
3021,E-3,646.0,1.0,24,187.26
3022,G#3,647.0,1.0,20,187.26
3023,C#4,647.0,1.0,20,187.26
3024,B2,647.0,1.0,24,187.26
3025,E-3,647.0,1.0,24,187.26
3026,F#3,648.0,1.0,19,187.26
3027,C#4,648.0,1.0,19,187.26
3028,C#3,648.0,1.0,23,187.26
3029,E-3,648.0,1.0,23,187.26
3030,B2,649.0,1.0,24,187.26
3031,E-3,649.0,1.0,24,187.26
3032,B3,650.0,1.0,26,187.26
3033,B2,650.0,1.0,24,187.26
3034,E-3,650.0,1.0,24,187.26
3035,B3,651.0,1.0,26,187.26
3036,B-2,651.0,1.0,23,187.26
3037,E-3,651.0,1.0,23,187.26
3038,G#4,652.0,1.0,39,187.26
3039,G#2,652.0,1.0,22,187.26
3040,E-3,652.0,1.0,22,187.26
3041,B-4,653.0,1.0,39,187.26
3042,C#2,653.0,1.0,20,187.26
3043,B3,653.0,1.0,28,187.26
3044,G#4,653.0,1.0,28,187.26
3045,F#4,654.0,2.0,46,187.26
3046,B3,654.0,1.0,23,187.26
3047,G#4,654.0,1.0,23,187.26
3048,C#3,655.0,0.75,27,187.26
3049,D3,655.75,0.125,26,187.26
3050,E-3,655.875,0.125,26,187.26
3051,E-4,656.0,1.0,39,187.26
3052,C#4,656.0,1.0,28,187.26
3053,F3,656.0,167/1000,25,187.26
3054,E-3,656.167,167/1000,21,187.26
3055,F3,656.333,167/1000,24,187.26
3056,E-3,656.5,167/1000,22,187.26
3057,F3,656.667,167/1000,24,187.26
3058,E-3,656.833,167/1000,21,187.26
3059,F3,657.0,167/1000,24,187.26
3060,G4,657.0,1.0,24,187.26
3061,C#4,657.0,1.0,24,187.26
3062,E-3,657.167,167/1000,21,187.26
3063,F3,657.333,167/1000,24,187.26
3064,E-3,657.5,167/1000,21,187.26
3065,F3,657.667,167/1000,24,187.26
3066,E-3,657.833,167/1000,21,187.26
3067,G#4,658.0,1.0,39,187.26
3068,F3,658.0,0.25,24,187.26
3069,E-3,658.25,0.25,21,187.26
3070,F3,658.5,0.125,24,187.26
3071,E-3,658.625,0.125,20,187.26
3072,C#3,658.75,0.125,24,187.26
3073,E-3,658.875,0.125,18,187.26
3074,B-4,659.0,1.0,39,187.26
3075,F3,659.0,1.0,32,187.26
3076,B3,659.0,1.0,24,187.26
3077,G#4,659.0,1.0,24,187.26
3078,F#4,660.0,2.0,46,187.26
3079,C#2,660.0,1.0,25,187.26
3080,B3,660.0,1.0,24,187.26
3081,G#4,660.0,1.0,24,187.26
3082,C#3,661.0,0.75,27,187.26
3083,B3,661.0,1.0,24,187.26
3084,G#4,661.0,1.0,24,187.26
3085,D3,661.75,0.125,26,187.26
3086,E-3,661.875,0.125,26,187.26
3087,E-4,662.0,1.0,43,187.26
3088,F3,662.0,167/1000,25,187.26
3089,E-4,662.0,1.0,26,187.26
3090,G#4,662.0,1.0,26,187.26
3091,E-3,662.167,167/1000,21,187.26
3092,F3,662.333,167/1000,24,187.26
3093,E-3,662.5,167/1000,22,187.26
3094,F3,662.667,167/1000,24,187.26
3095,E-3,662.833,167/1000,21,187.26
3096,F3,663.0,167/1000,24,187.26
3097,E-4,663.0,1.0,26,187.26
3098,G#4,663.0,1.0,26,187.26
3099,E-3,663.167,167/1000,21,187.26
3100,F3,663.333,167/1000,24,187.26
3101,E-3,663.5,167/1000,21,187.26
3102,F3,663.667,167/1000,24,187.26
3103,E-3,663.833,167/1000,21,187.26
3104,G#4,664.0,1.0,44,187.26
3105,F3,664.0,0.25,24,187.26
3106,E-4,664.0,1.0,24,187.26
3107,G#4,664.0,1.0,24,187.26
3108,E-3,664.25,0.25,21,187.26
3109,F3,664.5,0.125,24,187.26
3110,E-3,664.625,0.125,20,187.26
3111,C#3,664.75,0.125,24,187.26
3112,E-3,664.875,0.125,18,187.26
3113,B-4,665.0,1.0,45,187.26
3114,F3,665.0,1.0,34,187.26
3115,B-3,665.0,1.0,25,187.26
3116,E-4,665.0,1.0,25,187.26
3117,B4,666.0,1.0,47,187.26
3118,C#2,666.0,1.0,37,187.26
3119,G#3,666.0,1.0,24,187.26
3120,E-4,666.0,1.0,24,187.26
3121,C5,667.0,1.0,51,187.26
3122,G#3,667.0,1.0,24,187.26
3123,E-4,667.0,1.0,24,187.26
3124,C#3,667.0,1.0,23,187.26
3125,G#3,667.0,1.0,23,187.26
3126,C#4,667.0,1.0,23,187.26
3127,C#5,668.0,1.0,57,187.26
3128,B-3,668.0,1.0,24,187.26
3129,E-4,668.0,1.0,24,187.26
3130,C#3,668.0,1.0,27,187.26
3131,G#3,668.0,1.0,27,187.26
3132,C#4,668.0,1.0,27,187.26
3133,G#3,669.0,1.0,24,187.26
3134,E-4,669.0,1.0,24,187.26
3135,C#3,669.0,1.0,28,187.26
3136,G#3,669.0,1.0,28,187.26
3137,B3,669.0,1.0,28,187.26
3138,G#3,670.0,1.0,24,187.26
3139,E-4,670.0,1.0,24,187.26
3140,C#3,670.0,1.0,28,187.26
3141,G#3,670.0,1.0,28,187.26
3142,B3,670.0,1.0,28,187.26
3143,B-3,671.0,1.0,24,187.26
3144,E-4,671.0,1.0,24,187.26
3145,C#3,671.0,1.0,32,187.26
3146,G#3,671.0,1.0,32,187.26
3147,B3,671.0,1.0,32,187.26
3148,B3,672.0,1.0,24,187.26
3149,F#3,672.0,1.0,24,187.26
3150,E-4,672.0,1.0,24,187.26
3151,C#3,672.0,1.0,33,187.26
3152,G#3,672.0,1.0,33,187.26
3153,B3,672.0,1.0,33,187.26
3154,F3,673.0,1.0,27,187.26
3155,B3,673.0,1.0,27,187.26
3156,C#4,673.0,1.0,27,187.26
3157,B3,673.0,1.0,25,187.26
3158,C#3,673.0,1.0,25,187.26
3159,G#3,673.0,1.0,25,187.26
3160,B3,674.0,1.0,24,187.26
3161,F4,674.0,1.0,24,187.26
3162,C#3,674.0,1.0,32,187.26
3163,G#3,674.0,1.0,32,187.26
3164,B3,674.0,1.0,32,187.26
3165,B3,675.0,1.0,24,187.26
3166,F4,675.0,1.0,24,187.26
3167,C#3,675.0,1.5,23,187.26
3168,G#3,675.0,1.5,23,187.26
3169,B3,675.0,1.5,23,187.26
3170,F#3,676.0,1.0,28,187.26
3171,B3,676.0,1.0,28,187.26
3172,D2,676.5,0.5,35,187.26
3173,D3,676.5,0.5,35,187.26
3174,F#3,677.0,1.0,23,187.26
3175,B3,677.0,1.0,23,187.26
3176,D2,677.0,1.0,39,187.26
3177,D3,677.0,1.0,39,187.26
3178,F#3,678.0,1.0,24,187.26
3179,B3,678.0,1.0,24,187.26
3180,C#2,678.0,1.5,43,187.26
3181,C#3,678.0,1.5,43,187.26
3182,G#3,679.0,1.0,30,187.26
3183,B3,679.0,1.0,30,187.26
3184,C#4,679.0,1.0,30,187.26
3185,C2,679.5,0.5,34,187.26
3186,C3,679.5,0.5,34,187.26
3187,B3,680.0,1.0,25,187.26
3188,F4,680.0,1.0,25,187.26
3189,C2,680.0,1.0,38,187.26
3190,C3,680.0,1.0,38,187.26
3191,B3,681.0,1.0,25,187.26
3192,F4,681.0,1.0,25,187.26
3193,B1,681.0,1.5,46,187.26
3194,B2,681.0,1.5,46,187.26
3195,F#3,682.0,1.0,28,187.26
3196,B3,682.0,1.0,28,187.26
3197,B-1,682.5,0.5,36,187.26
3198,B-2,682.5,0.5,36,187.26
3199,F#3,683.0,1.0,25,187.26
3200,B3,683.0,1.0,25,187.26
3201,B-1,683.0,1.0,39,187.26
3202,B-2,683.0,1.0,39,187.26
3203,F#3,684.0,1.0,25,187.26
3204,B3,684.0,1.0,25,187.26
3205,A1,684.0,1.5,50,187.26
3206,A2,684.0,1.5,50,187.26
3207,G#3,685.0,1.0,28,187.26
3208,B3,685.0,1.0,28,187.26
3209,C#4,685.0,1.0,28,187.26
3210,G#1,685.5,0.5,40,187.26
3211,G#2,685.5,0.5,40,187.26
3212,B3,686.0,1.0,32,187.26
3213,F4,686.0,1.0,32,187.26
3214,G#1,686.0,1.0,42,187.26
3215,G#2,686.0,1.0,42,187.26
3216,B3,687.0,1.0,34,187.26
3217,F4,687.0,1.0,34,187.26
3218,F#1,687.0,1.0,42,187.26
3219,F#2,687.0,1.0,42,187.26
3220,B3,688.0,1.0,36,187.26
3221,F4,688.0,1.0,36,187.26
3222,B-1,688.0,1.0,46,187.26
3223,B-2,688.0,1.0,46,187.26
3224,C4,689.0,1.0,40,187.26
3225,F4,689.0,1.0,40,187.26
3226,E-1,689.0,1.0,39,187.26
3227,E-2,689.0,1.0,39,187.26
3228,C#4,690.0,1.0,44,187.26
3229,F4,690.0,1.0,44,187.26
3230,E1,690.0,0.188,39,187.26
3231,E2,690.0,0.188,39,187.26
3232,F1,690.5,0.188,40,187.26
3233,F2,690.5,0.188,40,187.26
3234,D5,691.0,1.0,45,187.26
3235,D4,691.0,1.0,45,187.26
3236,F4,691.0,1.0,45,187.26
3237,F#1,691.0,1.0,46,187.26
3238,F#2,691.0,1.0,46,187.26
3239,E-5,692.0,1.5,47,187.26
3240,E-4,692.0,1.5,47,187.26
3241,F4,692.0,1.5,47,187.26
3242,G#1,692.0,0.812,54,187.26
3243,G#2,692.0,0.812,54,187.26
3244,G#2,692.812,1.0,37,187.26
3245,E-3,692.875,0.938,37,187.26
3246,F3,692.938,0.875,37,187.26
3247,B3,693.0,0.812,46,187.26
3248,D5,693.5,0.5,38,187.26
3249,D4,693.5,0.5,38,187.26
3250,F4,693.5,0.5,38,187.26
3251,B-2,693.812,1.188,37,187.26
3252,F3,693.875,1.125,37,187.26
3253,G#3,693.938,1.062,37,187.26
3254,D4,694.0,1.0,46,187.26
3255,D5,694.0,1.0,40,187.26
3256,D4,694.0,1.0,40,187.26
3257,F4,694.0,1.0,40,187.26
3258,E-5,695.0,1.5,46,187.26
3259,E-4,695.0,1.5,46,187.26
3260,F4,695.0,1.5,46,187.26
3261,F#1,695.0,1.0,41,187.26
3262,F#2,695.0,1.0,41,187.26
3263,G1,696.0,0.188,41,187.26
3264,G2,696.0,0.188,41,187.26
3265,D5,696.5,0.5,46,187.26
3266,D4,696.5,0.5,46,187.26
3267,G#1,696.5,0.188,39,187.26
3268,G#2,696.5,0.188,39,187.26
3269,D5,697.0,1.0,54,187.26
3270,D4,697.0,1.0,54,187.26
3271,A1,697.0,1.0,47,187.26
3272,A2,697.0,1.0,47,187.26
3273,C#5,698.0,1.5,58,187.26
3274,C#4,698.0,1.5,58,187.26
3275,B1,698.0,0.812,58,187.26
3276,B2,698.0,0.812,58,187.26
3277,C3,698.812,1.0,39,187.26
3278,F#3,698.875,0.938,39,187.26
3279,G#3,698.938,0.875,39,187.26
3280,D4,699.0,0.812,48,187.26
3281,C5,699.5,0.5,50,187.26
3282,C4,699.5,0.5,50,187.26
3283,C#3,699.812,1.188,39,187.26
3284,G#3,699.875,1.125,39,187.26
3285,B3,699.938,1.062,39,187.26
3286,F4,700.0,1.0,48,187.26
3287,C5,700.0,1.0,56,187.26
3288,C4,700.0,1.0,56,187.26
3289,B4,701.0,1.5,56,187.26
3290,B3,701.0,1.5,56,187.26
3291,A1,701.0,1.0,39,187.26
3292,A2,701.0,1.0,39,187.26
3293,B1,702.0,0.188,39,187.26
3294,B2,702.0,0.188,39,187.26
3295,B-4,702.5,0.5,55,187.26
3296,B-3,702.5,0.5,55,187.26
3297,C2,702.5,0.188,41,187.26
3298,C3,702.5,0.188,41,187.26
3299,B-4,703.0,1.0,60,187.26
3300,B-3,703.0,1.0,60,187.26
3301,C#2,703.0,1.0,50,187.26
3302,C#3,703.0,1.0,50,187.26
3303,A4,704.0,1.5,62,187.26
3304,A3,704.0,1.5,62,187.26
3305,D2,704.0,1.0,44,187.26
3306,D3,704.0,1.0,44,187.26
3307,E-2,705.0,0.188,41,187.26
3308,E-3,705.0,0.188,41,187.26
3309,G#4,705.5,0.5,61,187.26
3310,G#3,705.5,0.5,61,187.26
3311,E2,705.5,0.188,41,187.26
3312,E3,705.5,0.188,41,187.26
3313,G#4,706.0,1.0,66,187.26
3314,G#3,706.0,1.0,66,187.26
3315,F2,706.0,1.0,49,187.26
3316,F3,706.0,1.0,49,187.26
3317,F#4,707.0,1.0,67,187.26
3318,F#3,707.0,1.0,67,187.26
3319,F#2,707.0,1.0,44,187.26
3320,F#3,707.0,1.0,44,187.26
3321,B-3,708.0,1.0,73,187.26
3322,G#2,708.0,0.188,41,187.26
3323,G#3,708.0,0.188,41,187.26
3324,A2,708.5,0.188,41,187.26
3325,A3,708.5,0.188,41,187.26
3326,E-3,709.0,0.188,52,187.26
3327,E-4,709.0,0.188,52,187.26
3328,B-2,709.0,1.0,52,187.26
3329,B-3,709.0,1.0,52,187.26
3330,E-3,709.5,0.188,54,187.26
3331,E-4,709.5,0.188,54,187.26
3332,E-3,710.0,0.188,59,187.26
3333,E-4,710.0,0.188,59,187.26
3334,B2,710.0,1.0,52,187.26
3335,B3,710.0,1.0,52,187.26
3336,E-3,710.5,0.188,60,187.26
3337,E-4,710.5,0.188,60,187.26
3338,E-3,711.0,1.0,66,187.26
3339,E-4,711.0,1.0,66,187.26
3340,B1,711.0,1.0,48,187.26
3341,B2,711.0,1.0,48,187.26
3342,F3,712.0,1.0,70,187.26
3343,B3,712.0,1.0,70,187.26
3344,E-4,712.0,1.0,70,187.26
3345,F4,712.0,1.0,70,187.26
3346,C2,712.0,1.0,48,187.26
3347,C3,712.0,1.0,48,187.26
3348,F4,713.0,0.5,59,187.26
3349,B4,713.0,0.5,59,187.26
3350,E-5,713.0,0.5,59,187.26
3351,F5,713.0,0.5,59,187.26
3352,C#2,713.0,1.0,55,187.26
3353,C#3,713.0,1.0,55,187.26
3354,E-4,713.5,0.5,60,187.26
3355,E-5,713.5,0.5,60,187.26
3356,F4,714.0,0.5,59,187.26
3357,B-4,714.0,0.5,59,187.26
3358,D5,714.0,0.5,59,187.26
3359,F5,714.0,0.5,59,187.26
3360,C#3,714.0,1.0,52,187.26
3361,B-3,714.0,1.0,52,187.26
3362,F#4,714.5,0.5,59,187.26
3363,F#5,714.5,0.5,59,187.26
3364,F#3,715.0,0.188,54,187.26
3365,F#4,715.0,0.188,54,187.26
3366,C#4,715.0,1.0,52,187.26
3367,F#3,715.0,1.0,52,187.26
3368,F#3,715.5,0.188,56,187.26
3369,F#4,715.5,0.188,56,187.26
3370,F#3,716.0,0.188,62,187.26
3371,F#4,716.0,0.188,62,187.26
3372,B-3,716.0,1.0,51,187.26
3373,F#4,716.0,1.0,51,187.26
3374,F#3,716.5,0.188,62,187.26
3375,F#4,716.5,0.188,62,187.26
3376,F#3,717.0,1.0,70,187.26
3377,F#4,717.0,1.0,70,187.26
3378,C#4,717.0,1.0,48,187.26
3379,B-4,717.0,1.0,48,187.26
3380,G#3,718.0,1.0,72,187.26
3381,D4,718.0,1.0,72,187.26
3382,F#4,718.0,1.0,72,187.26
3383,G#4,718.0,1.0,72,187.26
3384,C#5,718.0,1.0,48,187.26
3385,F#4,718.0,1.0,48,187.26
3386,G#4,719.0,0.5,62,187.26
3387,D5,719.0,0.5,62,187.26
3388,F#5,719.0,0.5,62,187.26
3389,G#5,719.0,0.5,62,187.26
3390,B-4,719.0,1.0,52,187.26
3391,F#5,719.0,1.0,52,187.26
3392,F#4,719.5,0.5,64,187.26
3393,F#5,719.5,0.5,64,187.26
3394,G#4,720.0,0.5,62,187.26
3395,C#5,720.0,0.5,62,187.26
3396,F5,720.0,0.5,62,187.26
3397,G#5,720.0,0.5,62,187.26
3398,B4,720.0,1.0,48,187.26
3399,F5,720.0,1.0,48,187.26
3400,A4,720.5,0.5,60,187.26
3401,A5,720.5,0.5,60,187.26
3402,A3,721.0,0.188,52,187.26
3403,A4,721.0,0.188,52,187.26
3404,C#4,721.0,1.0,45,187.26
3405,F4,721.0,1.0,45,187.26
3406,B4,721.0,1.0,45,187.26
3407,A3,721.5,0.188,56,187.26
3408,A4,721.5,0.188,56,187.26
3409,C#4,722.0,2.0,46,187.26
3410,A3,722.0,0.188,59,187.26
3411,A4,722.0,0.188,59,187.26
3412,F4,722.0,1.0,49,187.26
3413,B4,722.0,1.0,49,187.26
3414,A3,722.5,0.188,64,187.26
3415,A4,722.5,0.188,64,187.26
3416,A3,723.0,1.0,74,187.26
3417,A4,723.0,1.0,74,187.26
3418,F#3,723.0,1.0,42,187.26
3419,B-4,723.0,1.0,42,187.26
3420,B-3,724.0,0.188,54,187.26
3421,F4,724.0,0.188,54,187.26
3422,G#4,724.0,0.188,54,187.26
3423,G#3,724.0,0.188,54,187.26
3424,B-4,724.0,0.188,54,187.26
3425,C#3,724.0,1.0,33,187.26
3426,F3,724.0,1.0,33,187.26
3427,B3,724.0,1.0,33,187.26
3428,B-3,724.5,0.188,57,187.26
3429,F4,724.5,0.188,57,187.26
3430,G#4,724.5,0.188,57,187.26
3431,G#3,724.5,0.188,57,187.26
3432,B-4,724.5,0.188,57,187.26
3433,C#3,725.0,2.0,31,187.26
3434,B-3,725.0,0.188,59,187.26
3435,F4,725.0,0.188,59,187.26
3436,G#4,725.0,0.188,59,187.26
3437,G#3,725.0,0.188,59,187.26
3438,B-4,725.0,0.188,59,187.26
3439,F3,725.0,1.0,38,187.26
3440,B3,725.0,1.0,38,187.26
3441,B-3,725.5,0.188,61,187.26
3442,F4,725.5,0.188,61,187.26
3443,G#4,725.5,0.188,61,187.26
3444,G#3,725.5,0.188,61,187.26
3445,B-4,725.5,0.188,61,187.26
3446,B-3,726.0,1.0,71,187.26
3447,D4,726.0,1.0,71,187.26
3448,G#4,726.0,1.0,71,187.26
3449,G#3,726.0,1.0,71,187.26
3450,B-4,726.0,1.0,71,187.26
3451,F#2,726.0,1.0,35,187.26
3452,B-3,726.0,1.0,35,187.26
3453,B-3,727.0,0.188,55,187.26
3454,E-4,727.0,0.188,55,187.26
3455,F#4,727.0,0.188,55,187.26
3456,B-4,727.0,0.188,55,187.26
3457,C#3,727.0,1.0,32,187.26
3458,F3,727.0,1.0,32,187.26
3459,B3,727.0,1.0,32,187.26
3460,B-3,727.5,0.188,58,187.26
3461,E-4,727.5,0.188,58,187.26
3462,F#4,727.5,0.188,58,187.26
3463,B-4,727.5,0.188,58,187.26
3464,C#3,728.0,2.0,30,187.26
3465,E-4,728.0,0.188,60,187.26
3466,F#4,728.0,0.188,60,187.26
3467,B-4,728.0,0.188,60,187.26
3468,F3,728.0,1.0,36,187.26
3469,B3,728.0,1.0,36,187.26
3470,E-4,728.5,0.188,60,187.26
3471,F#4,728.5,0.188,60,187.26
3472,B-4,728.5,0.188,60,187.26
3473,E-4,729.0,1.0,76,187.26
3474,F#4,729.0,1.0,76,187.26
3475,B-4,729.0,1.0,76,187.26
3476,F#2,729.0,1.0,35,187.26
3477,B-3,729.0,1.0,35,187.26
3478,B-3,730.0,1.0,70,187.26
3479,E-4,730.0,1.0,70,187.26
3480,B-4,730.0,1.0,70,187.26
3481,G#3,731.0,1.0,70,187.26
3482,E-4,731.0,1.0,70,187.26
3483,G#4,731.0,1.0,70,187.26
3484,F#3,732.0,1.0,66,187.26
3485,A3,732.0,1.0,66,187.26
3486,E-4,732.0,1.0,66,187.26
3487,F#4,732.0,1.0,66,187.26
3488,B-3,733.0,0.5,55,187.26
3489,C#4,733.0,0.5,55,187.26
3490,F4,733.0,0.5,55,187.26
3491,C#4,733.5,0.5,59,187.26
3492,F#4,734.0,0.5,72,187.26
3493,C#5,734.0,0.5,72,187.26
3494,F#4,734.5,0.5,75,187.26
3495,B-4,735.0,0.5,76,187.26
3496,F#5,735.0,0.5,76,187.26
3497,B-4,735.5,0.5,75,187.26
3498,C#5,736.0,0.5,70,187.26
3499,B-5,736.0,0.5,70,187.26
3500,C#5,736.5,0.5,71,187.26
3501,F#5,737.0,0.5,72,187.26
3502,C#6,737.0,0.5,72,187.26
3503,G#2,737.0,1.0,40,187.26
3504,G#3,737.0,1.0,40,187.26
3505,F#5,737.5,0.5,75,187.26
3506,B-5,738.0,0.5,76,187.26
3507,F#6,738.0,0.5,76,187.26
3508,F#2,738.0,1.0,34,187.26
3509,F#3,738.0,1.0,34,187.26
3510,B-5,738.5,0.5,75,187.26
3511,C#6,739.0,1.0,73,187.26
3512,B-5,739.0,1.0,73,187.26
3513,B-6,739.0,1.0,73,187.26
3514,E-2,739.0,1.0,34,187.26
3515,E-3,739.0,1.0,34,187.26
3516,C#6,740.0,1.0,69,187.26
3517,G#5,740.0,1.0,69,187.26
3518,G#6,740.0,1.0,69,187.26
3519,F#2,740.0,1.0,40,187.26
3520,F#3,740.0,1.0,40,187.26
3521,C#6,741.0,1.0,65,187.26
3522,G#5,741.0,1.0,65,187.26
3523,C#5,741.0,1.0,65,187.26
3524,F2,741.0,1.0,34,187.26
3525,F3,741.0,1.0,34,187.26
3526,C#6,742.0,2.0,75,187.26
3527,C#5,742.0,1.0,59,187.26
3528,G#5,742.0,1.0,59,187.26
3529,C#2,742.0,1.0,34,187.26
3530,C#3,742.0,1.0,34,187.26
3531,F#6,743.0,1.0,63,187.26
3532,F#5,743.0,1.0,63,187.26
3533,E-2,743.0,1.0,40,187.26
3534,E-3,743.0,1.0,40,187.26
3535,C#5,744.0,1.0,48,187.26
3536,G#4,744.0,1.0,48,187.26
3537,C#4,744.0,1.0,48,187.26
3538,C#2,744.0,1.0,34,187.26
3539,C#3,744.0,1.0,34,187.26
3540,C#5,745.0,2.0,56,187.26
3541,C#4,745.0,1.0,44,187.26
3542,G#4,745.0,1.0,44,187.26
3543,B-1,745.0,1.0,34,187.26
3544,B-2,745.0,1.0,34,187.26
3545,F#5,746.0,1.0,52,187.26
3546,F#4,746.0,1.0,52,187.26
3547,B1,746.0,1.0,36,187.26
3548,B2,746.0,1.0,36,187.26
3549,C#5,747.0,1.0,46,187.26
3550,G#4,747.0,1.0,46,187.26
3551,C#4,747.0,1.0,46,187.26
3552,B-1,747.0,1.0,32,187.26
3553,B-2,747.0,1.0,32,187.26
3554,C#5,748.0,2.0,55,187.26
3555,C#4,748.0,1.0,44,187.26
3556,G#4,748.0,1.0,44,187.26
3557,F#1,748.0,1.0,32,187.26
3558,F#2,748.0,1.0,32,187.26
3559,F#5,749.0,1.0,52,187.26
3560,F#4,749.0,1.0,52,187.26
3561,E-1,749.0,1.0,44,187.26
3562,E-2,749.0,1.0,44,187.26
3563,C#4,750.0,1.0,52,187.26
3564,C#5,750.0,1.0,52,187.26
3565,E1,750.0,0.188,41,187.26
3566,E2,750.0,0.188,41,187.26
3567,F1,750.5,0.188,42,187.26
3568,F2,750.5,0.188,42,187.26
3569,C#4,751.0,3.0,54,187.26
3570,C#5,751.0,3.0,54,187.26
3571,F#1,751.0,1.0,52,187.26
3572,F#2,751.0,1.0,52,187.26
3573,G#1,752.0,1.0,62,187.26
3574,G#2,752.0,1.0,62,187.26
3575,G#2,753.0,1.0,45,187.26
3576,E-3,753.0,1.0,45,187.26
3577,F3,753.0,1.0,45,187.26
3578,B3,753.0,1.0,45,187.26
3579,B-3,754.0,3.0,50,187.26
3580,B-4,754.0,3.0,50,187.26
3581,B-2,754.0,1.0,45,187.26
3582,F3,754.0,1.0,45,187.26
3583,G#3,754.0,1.0,45,187.26
3584,D4,754.0,1.0,45,187.26
3585,F#1,755.0,1.0,44,187.26
3586,F#2,755.0,1.0,44,187.26
3587,G1,756.0,0.188,41,187.26
3588,G2,756.0,0.188,41,187.26
3589,G#1,756.5,0.188,39,187.26
3590,G#2,756.5,0.188,39,187.26
3591,A1,757.0,1.0,50,187.26
3592,A2,757.0,1.0,50,187.26
3593,B1,758.0,1.0,62,187.26
3594,B2,758.0,1.0,62,187.26
3595,C3,759.0,1.0,45,187.26
3596,F#3,759.0,1.0,45,187.26
3597,G#3,759.0,1.0,45,187.26
3598,D4,759.0,1.0,45,187.26
3599,C#3,760.0,1.0,45,187.26
3600,G#3,760.0,1.0,45,187.26
3601,B3,760.0,1.0,45,187.26
3602,F4,760.0,1.0,45,187.26
3603,A1,761.0,1.0,39,187.26
3604,A2,761.0,1.0,39,187.26
3605,B1,762.0,0.188,39,187.26
3606,B2,762.0,0.188,39,187.26
3607,C2,762.5,0.188,41,187.26
3608,C3,762.5,0.188,41,187.26
3609,C#2,763.0,1.0,50,187.26
3610,C#3,763.0,1.0,50,187.26
3611,D2,764.0,1.0,44,187.26
3612,D3,764.0,1.0,44,187.26
3613,E-2,765.0,0.188,44,187.26
3614,E-3,765.0,0.188,44,187.26
3615,E2,765.5,0.188,44,187.26
3616,E3,765.5,0.188,44,187.26
3617,B-3,766.0,3.0,50,187.26
3618,B-4,766.0,3.0,50,187.26
3619,F2,766.0,1.0,49,187.26
3620,F3,766.0,1.0,49,187.26
3621,F#2,767.0,1.0,46,187.26
3622,F#3,767.0,1.0,46,187.26
3623,G2,768.0,0.188,46,187.26
3624,G3,768.0,0.188,46,187.26
3625,G#2,768.5,0.188,45,187.26
3626,G#3,768.5,0.188,45,187.26
3627,A2,769.0,1.0,54,187.26
3628,A3,769.0,1.0,54,187.26
3629,F#3,770.0,1.0,53,187.26
3630,C3,770.0,1.0,53,187.26
3631,C4,770.0,1.0,53,187.26
3632,G3,771.0,1.0,48,187.26
3633,B2,771.0,1.0,48,187.26
3634,B3,771.0,1.0,48,187.26
3635,D1,772.0,1.0,54,187.26
3636,D2,772.0,1.0,54,187.26
3637,C#3,773.0,0.5,61,187.26
3638,C#1,773.0,1.0,55,187.26
3639,C#2,773.0,1.0,55,187.26
3640,C#3,774.0,1.0,52,187.26
3641,A3,774.0,1.0,52,187.26
3642,B-3,775.0,3.0,50,187.26
3643,B-4,775.0,3.0,50,187.26
3644,C#4,775.0,1.0,52,187.26
3645,F#3,775.0,1.0,52,187.26
3646,A3,776.0,1.0,51,187.26
3647,F#4,776.0,1.0,51,187.26
3648,C#4,777.0,1.0,48,187.26
3649,A4,777.0,1.0,48,187.26
3650,C#5,778.0,1.0,48,187.26
3651,F#4,778.0,1.0,48,187.26
3652,A4,779.0,1.0,52,187.26
3653,F#5,779.0,1.0,52,187.26
3654,B4,780.0,1.0,50,187.26
3655,F5,780.0,1.0,50,187.26
3656,B-3,781.0,3.0,50,187.26
3657,B-4,781.0,3.0,50,187.26
3658,C#4,781.0,1.0,45,187.26
3659,F4,781.0,1.0,45,187.26
3660,B4,781.0,1.0,45,187.26
3661,C#4,782.0,2.0,46,187.26
3662,F4,782.0,1.0,50,187.26
3663,B4,782.0,1.0,50,187.26
3664,F#3,783.0,1.0,42,187.26
3665,A4,783.0,1.0,42,187.26
3666,C#3,784.0,1.0,33,187.26
3667,F3,784.0,1.0,33,187.26
3668,B3,784.0,1.0,33,187.26
3669,C#3,785.0,2.0,30,187.26
3670,F3,785.0,1.0,39,187.26
3671,B3,785.0,1.0,39,187.26
3672,F#2,786.0,1.0,35,187.26
3673,A3,786.0,1.0,35,187.26
3674,E-3,787.0,0.188,58,187.26
3675,E-4,787.0,0.188,58,187.26
3676,C#3,787.0,1.0,31,187.26
3677,F3,787.0,1.0,31,187.26
3678,B3,787.0,1.0,31,187.26
3679,E-3,787.5,0.188,60,187.26
3680,E-4,787.5,0.188,60,187.26
3681,C#3,788.0,2.0,29,187.26
3682,E-3,788.0,0.188,62,187.26
3683,E-4,788.0,0.188,62,187.26
3684,F3,788.0,1.0,36,187.26
3685,B3,788.0,1.0,36,187.26
3686,E-3,788.5,0.188,64,187.26
3687,E-4,788.5,0.188,64,187.26
3688,E-3,789.0,1.0,74,187.26
3689,E-4,789.0,1.0,74,187.26
3690,F#2,789.0,1.0,34,187.26
3691,A3,789.0,1.0,34,187.26
3692,F3,790.0,1.0,79,187.26
3693,B3,790.0,1.0,79,187.26
3694,E-4,790.0,1.0,79,187.26
3695,F4,790.0,1.0,79,187.26
3696,C#2,790.0,1.0,63,187.26
3697,C#3,790.0,1.0,63,187.26
3698,F4,791.0,0.5,66,187.26
3699,B4,791.0,0.5,66,187.26
3700,E-5,791.0,0.5,66,187.26
3701,F5,791.0,0.5,66,187.26
3702,E-4,791.5,0.5,68,187.26
3703,E-5,791.5,0.5,68,187.26
3704,F4,792.0,0.5,66,187.26
3705,B-4,792.0,0.5,66,187.26
3706,D5,792.0,0.5,66,187.26
3707,F5,792.0,0.5,66,187.26
3708,C#2,792.0,1.0,63,187.26
3709,C#3,792.0,1.0,63,187.26
3710,F#4,792.5,0.5,66,187.26
3711,F#5,792.5,0.5,66,187.26
3712,F#3,793.0,0.188,58,187.26
3713,F#4,793.0,0.188,58,187.26
3714,D2,793.0,0.5,58,187.26
3715,D3,793.0,0.5,58,187.26
3716,F#3,793.5,0.188,60,187.26
3717,F#4,793.5,0.188,60,187.26
3718,C#2,793.5,0.5,52,187.26
3719,C#3,793.5,0.5,52,187.26
3720,F#3,794.0,0.188,62,187.26
3721,F#4,794.0,0.188,62,187.26
3722,G#1,794.0,0.5,58,187.26
3723,G#2,794.0,0.5,58,187.26
3724,F#3,794.5,0.188,62,187.26
3725,F#4,794.5,0.188,62,187.26
3726,A1,794.5,0.5,51,187.26
3727,A2,794.5,0.5,51,187.26
3728,F#3,795.0,1.0,74,187.26
3729,F#4,795.0,1.0,74,187.26
3730,F#1,795.0,3.0,58,187.26
3731,F#2,795.0,3.0,58,187.26
3732,G#3,796.0,1.0,77,187.26
3733,D4,796.0,1.0,77,187.26
3734,F#4,796.0,1.0,77,187.26
3735,G#4,796.0,1.0,77,187.26
3736,G#4,797.0,0.5,66,187.26
3737,D5,797.0,0.5,66,187.26
3738,F#5,797.0,0.5,66,187.26
3739,G#5,797.0,0.5,66,187.26
3740,F#4,797.5,0.5,68,187.26
3741,F#5,797.5,0.5,68,187.26
3742,G#4,798.0,0.5,66,187.26
3743,C#5,798.0,0.5,66,187.26
3744,F5,798.0,0.5,66,187.26
3745,G#5,798.0,0.5,66,187.26
3746,D1,798.0,1.0,72,187.26
3747,D2,798.0,1.0,72,187.26
3748,A4,798.5,0.5,64,187.26
3749,A5,798.5,0.5,64,187.26
3750,F#3,799.0,0.5,38,187.26
3751,A3,799.0,0.188,52,187.26
3752,A4,799.0,0.188,52,187.26
3753,F#3,799.5,0.5,39,187.26
3754,A3,799.5,0.188,56,187.26
3755,A4,799.5,0.188,56,187.26
3756,F3,800.0,0.5,40,187.26
3757,A3,800.0,0.188,59,187.26
3758,A4,800.0,0.188,59,187.26
3759,F#3,800.5,0.5,42,187.26
3760,A3,800.5,0.188,62,187.26
3761,A4,800.5,0.188,62,187.26
3762,G3,801.0,0.5,43,187.26
3763,A3,801.0,1.0,74,187.26
3764,A4,801.0,1.0,74,187.26
3765,G#3,801.5,0.5,45,187.26
3766,A3,802.0,0.5,46,187.26
3767,B3,802.0,0.188,56,187.26
3768,F4,802.0,0.188,56,187.26
3769,A4,802.0,0.188,56,187.26
3770,B4,802.0,0.188,56,187.26
3771,B-3,802.5,0.5,47,187.26
3772,B3,802.5,0.188,59,187.26
3773,F4,802.5,0.188,59,187.26
3774,A4,802.5,0.188,59,187.26
3775,B4,802.5,0.188,59,187.26
3776,B3,803.0,0.5,49,187.26
3777,B3,803.0,0.188,63,187.26
3778,F4,803.0,0.188,63,187.26
3779,A4,803.0,0.188,63,187.26
3780,B4,803.0,0.188,63,187.26
3781,C4,803.5,0.5,50,187.26
3782,B3,803.5,0.188,66,187.26
3783,F4,803.5,0.188,66,187.26
3784,A4,803.5,0.188,66,187.26
3785,B4,803.5,0.188,66,187.26
3786,C#4,804.0,0.5,51,187.26
3787,B3,804.0,1.0,71,187.26
3788,F4,804.0,1.0,71,187.26
3789,A4,804.0,1.0,71,187.26
3790,B4,804.0,1.0,71,187.26
3791,D4,804.5,0.5,53,187.26
3792,E-4,805.0,0.5,55,187.26
3793,C4,805.0,0.188,57,187.26
3794,E-4,805.0,0.188,57,187.26
3795,A4,805.0,0.188,57,187.26
3796,C5,805.0,0.188,57,187.26
3797,E4,805.5,0.5,55,187.26
3798,C4,805.5,0.188,60,187.26
3799,E-4,805.5,0.188,60,187.26
3800,A4,805.5,0.188,60,187.26
3801,C5,805.5,0.188,60,187.26
3802,F4,806.0,0.5,55,187.26
3803,C4,806.0,0.188,67,187.26
3804,E-4,806.0,0.188,67,187.26
3805,C5,806.0,0.188,67,187.26
3806,F#4,806.5,0.5,57,187.26
3807,C4,806.5,0.188,62,187.26
3808,E-4,806.5,0.188,62,187.26
3809,C5,806.5,0.188,62,187.26
3810,F#4,807.0,1.0,58,187.26
3811,F#4,807.0,1.0,76,187.26
3812,C4,807.0,1.0,76,187.26
3813,E-4,807.0,1.0,76,187.26
3814,C5,807.0,1.0,76,187.26
3815,G4,808.0,1.0,64,187.26
3816,E4,808.0,1.0,72,187.26
3817,F#4,808.0,1.0,72,187.26
3818,A4,808.0,1.0,72,187.26
3819,E5,808.0,1.0,72,187.26
3820,D4,809.0,1.0,73,187.26
3821,G4,809.0,1.0,73,187.26
3822,D5,809.0,1.0,73,187.26
3823,G4,809.0,0.5,74,187.26
3824,E-4,809.0,0.5,74,187.26
3825,B-3,809.0,0.5,74,187.26
3826,G3,809.0,0.5,74,187.26
3827,D3,810.0,1.0,78,187.26
3828,D4,810.0,1.0,78,187.26
3829,E-2,810.0,1.0,79,187.26
3830,E-3,810.0,1.0,79,187.26
3831,C#4,811.0,0.5,61,187.26
3832,G3,811.0,0.5,38,187.26
3833,C#4,811.5,0.5,59,187.26
3834,G3,811.5,0.5,39,187.26
3835,F#3,812.0,0.5,40,187.26
3836,F#4,812.0,0.5,72,187.26
3837,C#5,812.0,0.5,72,187.26
3838,F#4,812.5,0.5,75,187.26
3839,G3,812.5,0.5,42,187.26
3840,G#3,813.0,0.5,43,187.26
3841,A4,813.0,0.5,76,187.26
3842,F#5,813.0,0.5,76,187.26
3843,A4,813.5,0.5,73,187.26
3844,A3,813.5,0.5,45,187.26
3845,B-3,814.0,0.5,46,187.26
3846,C#5,814.0,0.5,70,187.26
3847,A5,814.0,0.5,70,187.26
3848,C#5,814.5,0.5,71,187.26
3849,B3,814.5,0.5,47,187.26
3850,C4,815.0,0.5,49,187.26
3851,F#5,815.0,0.5,72,187.26
3852,C#6,815.0,0.5,72,187.26
3853,F#5,815.5,0.5,75,187.26
3854,C#4,815.5,0.5,50,187.26
3855,D4,816.0,0.5,51,187.26
3856,A5,816.0,0.5,76,187.26
3857,F#6,816.0,0.5,76,187.26
3858,A5,816.5,0.5,75,187.26
3859,E-4,816.5,0.5,53,187.26
3860,E4,817.0,0.5,55,187.26
3861,C#6,817.0,1.0,73,187.26
3862,A5,817.0,1.0,73,187.26
3863,A6,817.0,1.0,73,187.26
3864,F4,817.5,0.5,55,187.26
3865,F#4,818.0,0.5,55,187.26
3866,C#6,818.0,1.0,70,187.26
3867,G#5,818.0,1.0,70,187.26
3868,G#6,818.0,1.0,70,187.26
3869,G4,818.5,0.5,57,187.26
3870,G4,819.0,1.0,58,187.26
3871,C#6,819.0,1.0,65,187.26
3872,G#5,819.0,1.0,65,187.26
3873,C#5,819.0,1.0,65,187.26
3874,C#6,820.0,2.0,75,187.26
3875,G#4,820.0,1.0,64,187.26
3876,C#5,820.0,1.0,61,187.26
3877,G#5,820.0,1.0,61,187.26
3878,F#6,821.0,1.0,63,187.26
3879,F#5,821.0,1.0,63,187.26
3880,G#4,821.0,0.5,74,187.26
3881,E4,821.0,0.5,74,187.26
3882,B3,821.0,0.5,74,187.26
3883,G#3,821.0,0.5,74,187.26
3884,C#5,822.0,1.0,49,187.26
3885,G#4,822.0,1.0,49,187.26
3886,C#4,822.0,1.0,49,187.26
3887,E2,822.0,1.0,79,187.26
3888,E3,822.0,1.0,79,187.26
3889,C#5,823.0,2.0,58,187.26
3890,C#4,823.0,1.0,46,187.26
3891,G#4,823.0,1.0,46,187.26
3892,G#3,823.0,0.5,54,187.26
3893,B3,823.0,0.5,54,187.26
3894,G#3,823.5,0.5,54,187.26
3895,B3,823.5,0.5,54,187.26
3896,F#5,824.0,1.0,52,187.26
3897,F#4,824.0,1.0,52,187.26
3898,G3,824.0,0.5,50,187.26
3899,B-3,824.0,0.5,50,187.26
3900,G#3,824.5,0.5,50,187.26
3901,B3,824.5,0.5,50,187.26
3902,C#5,825.0,1.0,47,187.26
3903,G#4,825.0,1.0,47,187.26
3904,C#4,825.0,1.0,47,187.26
3905,A3,825.0,0.5,54,187.26
3906,C4,825.0,0.5,54,187.26
3907,B-3,825.5,0.5,54,187.26
3908,C#4,825.5,0.5,54,187.26
3909,C#5,826.0,2.0,56,187.26
3910,C#4,826.0,1.0,44,187.26
3911,G#4,826.0,1.0,44,187.26
3912,B3,826.0,0.25,54,187.26
3913,D4,826.0,0.25,54,187.26
3914,B3,826.5,0.25,49,187.26
3915,D4,826.5,0.25,49,187.26
3916,F#5,827.0,1.0,50,187.26
3917,F#4,827.0,1.0,50,187.26
3918,B3,827.0,0.25,49,187.26
3919,D4,827.0,0.25,49,187.26
3920,B3,827.5,0.25,50,187.26
3921,D4,827.5,0.25,50,187.26
3922,C#4,828.0,1.0,75,187.26
3923,C#5,828.0,1.0,75,187.26
3924,B3,828.0,0.5,54,187.26
3925,D4,828.0,0.5,54,187.26
3926,B-3,828.5,0.5,50,187.26
3927,C#4,828.5,0.5,50,187.26
3928,B-3,829.0,0.25,54,187.26
3929,C#4,829.0,0.25,54,187.26
3930,B-3,829.5,0.25,50,187.26
3931,C#4,829.5,0.25,50,187.26
3932,C#4,830.0,1.0,75,187.26
3933,C#5,830.0,1.0,75,187.26
3934,A3,830.0,0.25,50,187.26
3935,C4,830.0,0.25,50,187.26
3936,B-3,830.5,0.25,50,187.26
3937,C#4,830.5,0.25,50,187.26
3938,D4,831.0,0.5,70,187.26
3939,D5,831.0,0.5,70,187.26
3940,B3,831.0,0.5,54,187.26
3941,D4,831.0,0.5,54,187.26
3942,C#4,831.5,0.5,65,187.26
3943,C#5,831.5,0.5,65,187.26
3944,C4,831.5,0.5,50,187.26
3945,E-4,831.5,0.5,50,187.26
3946,G#3,832.0,0.5,68,187.26
3947,G#4,832.0,0.5,68,187.26
3948,C#4,832.0,0.25,54,187.26
3949,E4,832.0,0.25,54,187.26
3950,A3,832.5,0.5,60,187.26
3951,A4,832.5,0.5,60,187.26
3952,C#4,832.5,0.25,56,187.26
3953,E4,832.5,0.25,56,187.26
3954,F#3,833.0,3.0,64,187.26
3955,F#4,833.0,3.0,64,187.26
3956,C#4,833.0,0.25,58,187.26
3957,E4,833.0,0.25,58,187.26
3958,C#4,833.5,0.25,58,187.26
3959,E4,833.5,0.25,58,187.26
3960,C#4,834.0,0.5,62,187.26
3961,E4,834.0,0.5,62,187.26
3962,C4,834.5,0.5,54,187.26
3963,E-4,834.5,0.5,54,187.26
3964,C4,835.0,0.25,54,187.26
3965,E-4,835.0,0.25,54,187.26
3966,C4,835.5,0.25,56,187.26
3967,E-4,835.5,0.25,56,187.26
3968,D4,836.0,1.0,84,187.26
3969,D5,836.0,1.0,84,187.26
3970,B3,836.0,0.25,58,187.26
3971,D4,836.0,0.25,58,187.26
3972,C4,836.5,0.25,60,187.26
3973,E-4,836.5,0.25,60,187.26
3974,A3,837.0,0.5,48,187.26
3975,D4,837.0,0.5,48,187.26
3976,B3,837.0,1.0,60,187.26
3977,F4,837.0,1.0,60,187.26
3978,C#4,837.0,1.0,60,187.26
3979,A3,837.5,0.5,49,187.26
3980,D4,837.5,0.5,49,187.26
3981,G#3,838.0,0.5,50,187.26
3982,C#4,838.0,0.5,50,187.26
3983,C#2,838.0,1.0,54,187.26
3984,C#3,838.0,1.0,54,187.26
3985,A3,838.5,0.5,51,187.26
3986,D4,838.5,0.5,51,187.26
3987,B-3,839.0,0.5,52,187.26
3988,E-4,839.0,0.5,52,187.26
3989,F4,839.0,1.0,58,187.26
3990,C#4,839.0,1.0,58,187.26
3991,B3,839.0,1.0,58,187.26
3992,B3,839.5,0.5,53,187.26
3993,E4,839.5,0.5,53,187.26
3994,C4,840.0,0.5,54,187.26
3995,F4,840.0,0.5,54,187.26
3996,E4,840.0,1.0,59,187.26
3997,C#4,840.0,1.0,59,187.26
3998,B3,840.0,1.0,59,187.26
3999,F#3,840.0,1.0,59,187.26
4000,C#4,840.5,0.5,55,187.26
4001,F#4,840.5,0.5,55,187.26
4002,D4,841.0,0.5,57,187.26
4003,G4,841.0,0.5,57,187.26
4004,F#1,841.0,1.0,56,187.26
4005,F#2,841.0,1.0,56,187.26
4006,E-4,841.5,0.5,59,187.26
4007,G#4,841.5,0.5,59,187.26
4008,E4,842.0,0.5,59,187.26
4009,A4,842.0,0.5,59,187.26
4010,E4,842.0,1.0,54,187.26
4011,C#4,842.0,1.0,54,187.26
4012,B-3,842.0,1.0,54,187.26
4013,F#3,842.0,1.0,54,187.26
4014,F4,842.5,0.5,60,187.26
4015,B-4,842.5,0.5,60,187.26
4016,F#4,843.0,0.5,64,187.26
4017,B4,843.0,0.5,64,187.26
4018,A3,843.0,1.0,57,187.26
4019,E-4,843.0,1.0,57,187.26
4020,B3,843.0,1.0,57,187.26
4021,G4,843.5,0.5,65,187.26
4022,C5,843.5,0.5,65,187.26
4023,G#4,844.0,0.5,66,187.26
4024,C#5,844.0,0.5,66,187.26
4025,B1,844.0,1.0,52,187.26
4026,B2,844.0,1.0,52,187.26
4027,A4,844.5,0.5,67,187.26
4028,D5,844.5,0.5,67,187.26
4029,A4,845.0,1.0,68,187.26
4030,D5,845.0,1.0,68,187.26
4031,E-4,845.0,1.0,54,187.26
4032,B3,845.0,1.0,54,187.26
4033,A3,845.0,1.0,54,187.26
4034,B-4,846.0,1.0,73,187.26
4035,E-5,846.0,1.0,73,187.26
4036,D4,846.0,1.0,59,187.26
4037,B3,846.0,1.0,59,187.26
4038,A3,846.0,1.0,59,187.26
4039,E3,846.0,1.0,59,187.26
4040,E-6,847.0,0.5,80,187.26
4041,B-5,847.0,0.5,80,187.26
4042,E-5,847.0,0.5,80,187.26
4043,E1,847.0,1.0,56,187.26
4044,E2,847.0,1.0,56,187.26
4045,E-6,848.0,1.0,85,187.26
4046,E-7,848.0,1.0,85,187.26
4047,D4,848.0,1.0,55,187.26
4048,G#3,848.0,1.0,55,187.26
4049,E3,848.0,1.0,55,187.26
4050,B-3,849.0,0.5,48,187.26
4051,E-4,849.0,0.5,48,187.26
4052,G3,849.0,1.0,60,187.26
4053,C#4,849.0,1.0,60,187.26
4054,A3,849.0,1.0,60,187.26
4055,B-3,849.5,0.5,49,187.26
4056,E-4,849.5,0.5,49,187.26
4057,A3,850.0,0.5,50,187.26
4058,D4,850.0,0.5,50,187.26
4059,A1,850.0,1.0,54,187.26
4060,A2,850.0,1.0,54,187.26
4061,B-3,850.5,0.5,51,187.26
4062,E-4,850.5,0.5,51,187.26
4063,B3,851.0,0.5,52,187.26
4064,E4,851.0,0.5,52,187.26
4065,C#4,851.0,1.0,54,187.26
4066,A3,851.0,1.0,54,187.26
4067,G3,851.0,1.0,54,187.26
4068,C4,851.5,0.5,53,187.26
4069,F4,851.5,0.5,53,187.26
4070,C#4,852.0,0.5,54,187.26
4071,F#4,852.0,0.5,54,187.26
4072,F#3,852.0,1.0,62,187.26
4073,C4,852.0,1.0,62,187.26
4074,D4,852.5,0.5,55,187.26
4075,G4,852.5,0.5,55,187.26
4076,E-4,853.0,0.5,57,187.26
4077,G#4,853.0,0.5,57,187.26
4078,A3,853.0,1.0,53,187.26
4079,C4,853.0,1.0,53,187.26
4080,E4,853.5,0.5,59,187.26
4081,A4,853.5,0.5,59,187.26
4082,F4,854.0,0.5,59,187.26
4083,B-4,854.0,0.5,59,187.26
4084,A4,854.0,1.0,60,187.26
4085,C5,854.0,1.0,60,187.26
4086,F#4,854.5,0.5,60,187.26
4087,B4,854.5,0.5,60,187.26
4088,G4,855.0,0.5,64,187.26
4089,C5,855.0,0.5,64,187.26
4090,C6,855.0,1.0,62,187.26
4091,A5,855.0,1.0,62,187.26
4092,G#4,855.5,0.5,65,187.26
4093,C#5,855.5,0.5,65,187.26
4094,A4,856.0,0.5,66,187.26
4095,D5,856.0,0.5,66,187.26
4096,C3,856.0,0.5,53,187.26
4097,C4,856.0,0.5,53,187.26
4098,B-4,856.5,0.5,67,187.26
4099,E-5,856.5,0.5,67,187.26
4100,B-4,857.0,1.0,68,187.26
4101,E-5,857.0,1.0,68,187.26
4102,C1,857.0,0.5,52,187.26
4103,C2,857.0,0.5,52,187.26
4104,B4,858.0,1.0,73,187.26
4105,E5,858.0,1.0,73,187.26
4106,C#1,858.0,0.5,54,187.26
4107,C#2,858.0,0.5,54,187.26
4108,E6,859.0,0.5,80,187.26
4109,B5,859.0,0.5,80,187.26
4110,E5,859.0,0.5,80,187.26
4111,C#2,859.0,0.5,37,187.26
4112,C#3,859.0,0.5,37,187.26
4113,E6,860.0,1.0,88,187.26
4114,E7,860.0,1.0,88,187.26
4115,E-1,860.0,0.5,42,187.26
4116,E-2,860.0,0.5,42,187.26
4117,E4,861.0,0.5,64,187.26
4118,E5,861.0,0.5,64,187.26
4119,F1,861.0,0.5,44,187.26
4120,F2,861.0,0.5,44,187.26
4121,E4,861.5,0.5,64,187.26
4122,E5,861.5,0.5,64,187.26
4123,E-4,862.0,0.5,58,187.26
4124,E-5,862.0,0.5,58,187.26
4125,F2,862.0,0.5,40,187.26
4126,F3,862.0,0.5,40,187.26
4127,E4,862.5,0.5,58,187.26
4128,E5,862.5,0.5,58,187.26
4129,F4,863.0,0.5,64,187.26
4130,F5,863.0,0.5,64,187.26
4131,F1,863.0,0.5,39,187.26
4132,F2,863.0,0.5,39,187.26
4133,F#4,863.5,0.5,58,187.26
4134,F#5,863.5,0.5,58,187.26
4135,G4,864.0,0.25,64,187.26
4136,G5,864.0,0.25,64,187.26
4137,B-1,864.0,0.5,34,187.26
4138,B-2,864.0,0.5,34,187.26
4139,G4,864.5,0.25,60,187.26
4140,G5,864.5,0.25,60,187.26
4141,G4,865.0,0.25,60,187.26
4142,G5,865.0,0.25,60,187.26
4143,C#2,865.0,0.5,28,187.26
4144,C#3,865.0,0.5,28,187.26
4145,G4,865.5,0.25,60,187.26
4146,G5,865.5,0.25,60,187.26
4147,E-2,866.0,0.5,33,187.26
4148,G4,866.0,0.5,64,187.26
4149,G5,866.0,0.5,64,187.26
4150,F#4,866.5,0.5,60,187.26
4151,F#5,866.5,0.5,60,187.26
4152,F2,867.0,0.5,38,187.26
4153,F#4,867.0,0.25,64,187.26
4154,F#5,867.0,0.25,64,187.26
4155,F#4,867.5,0.25,60,187.26
4156,F#5,867.5,0.25,60,187.26
4157,F4,868.0,0.25,60,187.26
4158,F5,868.0,0.25,60,187.26
4159,F#4,868.5,0.25,60,187.26
4160,F#5,868.5,0.25,60,187.26
4161,G4,869.0,0.5,64,187.26
4162,G5,869.0,0.5,64,187.26
4163,F1,869.0,0.5,31,187.26
4164,F2,869.0,0.5,31,187.26
4165,G#4,869.5,0.5,58,187.26
4166,G#5,869.5,0.5,58,187.26
4167,A4,870.0,0.25,60,187.26
4168,A5,870.0,0.25,60,187.26
4169,B-1,870.0,1.0,33,187.26
4170,B-2,870.0,1.0,33,187.26
4171,A4,870.5,0.25,62,187.26
4172,A5,870.5,0.25,62,187.26
4173,A4,871.0,0.25,64,187.26
4174,A5,871.0,0.25,64,187.26
4175,G#2,871.0,1.0,28,187.26
4176,G#3,871.0,1.0,28,187.26
4177,A4,871.5,0.25,66,187.26
4178,A5,871.5,0.25,66,187.26
4179,A4,872.0,0.5,72,187.26
4180,A5,872.0,0.5,72,187.26
4181,F2,872.0,1.0,28,187.26
4182,F3,872.0,1.0,28,187.26
4183,G#4,872.5,0.5,66,187.26
4184,G#5,872.5,0.5,66,187.26
4185,G#4,873.0,0.25,68,187.26
4186,G#5,873.0,0.25,68,187.26
4187,F#2,873.0,1.0,33,187.26
4188,F#3,873.0,1.0,33,187.26
4189,G#4,873.5,0.25,70,187.26
4190,G#5,873.5,0.25,70,187.26
4191,G4,874.0,0.25,71,187.26
4192,G5,874.0,0.25,71,187.26
4193,F2,874.0,1.0,28,187.26
4194,F3,874.0,1.0,28,187.26
4195,G#4,874.5,0.25,74,187.26
4196,G#5,874.5,0.25,74,187.26
4197,G#4,875.0,0.875,82,187.26
4198,C#5,875.0,0.875,82,187.26
4199,G#5,875.0,0.875,82,187.26
4200,C#2,875.0,1.0,28,187.26
4201,C#3,875.0,1.0,28,187.26
4202,B-4,875.875,0.125,59,187.26
4203,B-5,875.875,0.125,59,187.26
4204,G#4,876.0,0.5,77,187.26
4205,C#5,876.0,0.5,77,187.26
4206,G#5,876.0,0.5,77,187.26
4207,E-2,876.0,1.0,33,187.26
4208,E-3,876.0,1.0,33,187.26
4209,G4,876.5,0.5,72,187.26
4210,G5,876.5,0.5,72,187.26
4211,G#4,877.0,0.5,78,187.26
4212,C#5,877.0,0.5,78,187.26
4213,G#5,877.0,0.5,78,187.26
4214,C#2,877.0,1.0,28,187.26
4215,C#3,877.0,1.0,28,187.26
4216,B-4,877.5,0.5,76,187.26
4217,B-5,877.5,0.5,76,187.26
4218,C#5,878.0,1.0,81,187.26
4219,G#4,878.0,1.0,81,187.26
4220,G#5,878.0,1.0,81,187.26
4221,B-1,878.0,1.0,31,187.26
4222,B-2,878.0,1.0,31,187.26
4223,G#6,879.0,0.5,87,187.26
4224,G#5,879.0,0.5,87,187.26
4225,B1,879.0,1.0,38,187.26
4226,B2,879.0,1.0,38,187.26
4227,F#4,880.0,1.0,78,187.26
4228,C#5,880.0,1.0,78,187.26
4229,F#5,880.0,1.0,78,187.26
4230,B-1,880.0,1.0,38,187.26
4231,B-2,880.0,1.0,38,187.26
4232,F#4,881.0,0.875,69,187.26
4233,B4,881.0,0.875,69,187.26
4234,F#5,881.0,0.875,69,187.26
4235,F#1,881.0,1.0,40,187.26
4236,F#2,881.0,1.0,40,187.26
4237,G#4,881.875,0.125,61,187.26
4238,G#5,881.875,0.125,61,187.26
4239,F#4,882.0,0.5,74,187.26
4240,B4,882.0,0.5,74,187.26
4241,F#5,882.0,0.5,74,187.26
4242,E-1,882.0,1.0,44,187.26
4243,E-2,882.0,1.0,44,187.26
4244,F4,882.5,0.5,73,187.26
4245,F5,882.5,0.5,73,187.26
4246,F#4,883.0,0.5,75,187.26
4247,B4,883.0,0.5,75,187.26
4248,F#5,883.0,0.5,75,187.26
4249,E1,883.0,0.188,41,187.26
4250,E2,883.0,0.188,41,187.26
4251,G#4,883.5,0.5,73,187.26
4252,G#5,883.5,0.5,73,187.26
4253,F1,883.5,0.188,42,187.26
4254,F2,883.5,0.188,42,187.26
4255,B4,884.0,1.0,81,187.26
4256,F#4,884.0,1.0,81,187.26
4257,F#5,884.0,1.0,81,187.26
4258,F#1,884.0,1.0,50,187.26
4259,F#2,884.0,1.0,50,187.26
4260,F#6,885.0,0.5,86,187.26
4261,F#5,885.0,0.5,86,187.26
4262,G#1,885.0,1.0,62,187.26
4263,G#2,885.0,1.0,62,187.26
4264,E4,886.0,1.0,78,187.26
4265,B4,886.0,1.0,78,187.26
4266,E5,886.0,1.0,78,187.26
4267,G#2,886.0,1.0,45,187.26
4268,E-3,886.0,1.0,45,187.26
4269,F3,886.0,1.0,45,187.26
4270,B3,886.0,1.0,45,187.26
4271,E4,887.0,0.875,82,187.26
4272,A4,887.0,0.875,82,187.26
4273,E5,887.0,0.875,82,187.26
4274,B-2,887.0,1.0,45,187.26
4275,F3,887.0,1.0,45,187.26
4276,G#3,887.0,1.0,45,187.26
4277,D4,887.0,1.0,45,187.26
4278,F#4,887.875,0.125,59,187.26
4279,F#5,887.875,0.125,59,187.26
4280,E4,888.0,0.5,82,187.26
4281,A4,888.0,0.5,82,187.26
4282,E5,888.0,0.5,82,187.26
4283,F#1,888.0,1.0,44,187.26
4284,F#2,888.0,1.0,44,187.26
4285,E-4,888.5,0.5,76,187.26
4286,E-5,888.5,0.5,76,187.26
4287,E4,889.0,0.5,78,187.26
4288,A4,889.0,0.5,78,187.26
4289,E5,889.0,0.5,78,187.26
4290,G1,889.0,0.188,41,187.26
4291,G2,889.0,0.188,41,187.26
4292,F#4,889.5,0.5,76,187.26
4293,F#5,889.5,0.5,76,187.26
4294,G#1,889.5,0.188,39,187.26
4295,G#2,889.5,0.188,39,187.26
4296,E-4,890.0,0.5,81,187.26
4297,A4,890.0,0.5,81,187.26
4298,E-5,890.0,0.5,81,187.26
4299,A1,890.0,1.0,50,187.26
4300,A2,890.0,1.0,50,187.26
4301,E-4,890.5,0.5,74,187.26
4302,F#4,891.0,0.5,78,187.26
4303,E-5,891.0,0.5,78,187.26
4304,B1,891.0,1.0,62,187.26
4305,B2,891.0,1.0,62,187.26
4306,E-5,891.5,0.5,91,187.26
4307,E-6,892.0,0.5,82,187.26
4308,F#5,892.0,0.5,82,187.26
4309,C3,892.0,1.0,45,187.26
4310,F#3,892.0,1.0,45,187.26
4311,G#3,892.0,1.0,45,187.26
4312,D4,892.0,1.0,45,187.26
4313,E-6,892.5,0.5,93,187.26
4314,E-7,893.0,1.0,85,187.26
4315,F#6,893.0,1.0,85,187.26
4316,C#3,893.0,1.0,45,187.26
4317,G#3,893.0,1.0,45,187.26
4318,B3,893.0,1.0,45,187.26
4319,F4,893.0,1.0,45,187.26
4320,E-4,894.0,0.5,74,187.26
4321,A4,894.0,0.5,74,187.26
4322,F#4,894.0,0.5,74,187.26
4323,A1,894.0,1.0,39,187.26
4324,A2,894.0,1.0,39,187.26
4325,F#4,895.0,0.5,71,187.26
4326,A4,895.0,0.5,71,187.26
4327,F#5,895.0,0.5,71,187.26
4328,B1,895.0,0.188,39,187.26
4329,B2,895.0,0.188,39,187.26
4330,C2,895.5,0.188,41,187.26
4331,C3,895.5,0.188,41,187.26
4332,F4,896.0,0.5,74,187.26
4333,B-4,896.0,0.5,74,187.26
4334,F5,896.0,0.5,74,187.26
4335,C#2,896.0,1.0,52,187.26
4336,C#3,896.0,1.0,52,187.26
4337,B-3,897.0,0.5,55,187.26
4338,F4,897.0,0.5,55,187.26
4339,B-4,897.0,0.5,55,187.26
4340,D2,897.0,1.0,44,187.26
4341,D3,897.0,1.0,44,187.26
4342,E-4,898.0,0.5,61,187.26
4343,F#4,898.0,0.5,61,187.26
4344,C5,898.0,0.5,61,187.26
4345,E-5,898.0,0.5,61,187.26
4346,E-2,898.0,0.188,44,187.26
4347,E-3,898.0,0.188,44,187.26
4348,E2,898.5,0.188,44,187.26
4349,E3,898.5,0.188,44,187.26
4350,C#4,899.0,0.5,62,187.26
4351,F4,899.0,0.5,62,187.26
4352,B-4,899.0,0.5,62,187.26
4353,C#5,899.0,0.5,62,187.26
4354,F2,899.0,1.0,49,187.26
4355,F3,899.0,1.0,49,187.26
4356,C#4,900.0,0.5,55,187.26
4357,F4,900.0,0.5,55,187.26
4358,F#2,900.0,1.0,46,187.26
4359,F#3,900.0,1.0,46,187.26
4360,E-4,901.0,0.5,54,187.26
4361,F4,901.0,0.5,54,187.26
4362,A4,901.0,0.5,54,187.26
4363,C5,901.0,0.5,54,187.26
4364,G2,901.0,0.188,45,187.26
4365,G3,901.0,0.188,45,187.26
4366,G#2,901.5,0.188,44,187.26
4367,G#3,901.5,0.188,44,187.26
4368,C#4,902.0,0.5,49,187.26
4369,F4,902.0,0.5,49,187.26
4370,B-4,902.0,0.5,49,187.26
4371,A2,902.0,1.0,52,187.26
4372,A3,902.0,1.0,52,187.26
4373,F3,903.0,0.5,43,187.26
4374,B-3,903.0,0.5,43,187.26
4375,C2,903.0,1.0,59,187.26
4376,C3,903.0,1.0,59,187.26
4377,E-4,904.0,0.5,43,187.26
4378,B-3,904.0,0.5,43,187.26
4379,F#3,904.0,0.5,43,187.26
4380,C4,904.0,0.5,54,187.26
4381,F#4,904.0,0.5,54,187.26
4382,A4,904.0,0.5,54,187.26
4383,C5,904.0,0.5,54,187.26
4384,F3,905.0,0.5,46,187.26
4385,B-3,905.0,0.5,46,187.26
4386,C#4,905.0,0.5,46,187.26
4387,B2,905.0,1.0,63,187.26
4388,B1,905.0,1.0,63,187.26
4389,F3,906.0,0.5,45,187.26
4390,A2,906.0,1.0,56,187.26
4391,C#3,906.0,1.0,56,187.26
4392,F#3,906.0,1.0,56,187.26
4393,A3,906.0,1.0,56,187.26
4394,C4,907.0,0.5,40,187.26
4395,A3,907.0,0.5,40,187.26
4396,E-3,907.0,0.5,40,187.26
4397,A1,907.0,0.5,60,187.26
4398,A2,907.0,0.5,60,187.26
4399,B-3,908.0,3.0,46,187.26
4400,B-4,908.0,3.0,46,187.26
4401,B2,908.0,1.0,53,187.26
4402,F#3,908.0,1.0,53,187.26
4403,B3,908.0,1.0,53,187.26
4404,B1,909.0,0.5,60,187.26
4405,B2,909.0,0.5,60,187.26
4406,G#3,910.0,1.0,50,187.26
4407,D3,910.0,1.0,50,187.26
4408,F#3,910.0,1.0,50,187.26
4409,B3,910.0,1.0,50,187.26
4410,D2,911.0,0.5,60,187.26
4411,D3,911.0,0.5,60,187.26
4412,B-3,912.0,1.0,46,187.26
4413,B-4,912.0,1.0,46,187.26
4414,F#3,912.0,1.0,53,187.26
4415,C#3,912.0,1.0,53,187.26
4416,A3,912.0,1.0,53,187.26
4417,B-4,913.0,1.0,46,187.26
4418,B-5,913.0,1.0,46,187.26
4419,C#2,913.0,0.5,60,187.26
4420,C#3,913.0,0.5,60,187.26
4421,B-6,914.0,1.0,46,187.26
4422,B-5,914.0,1.0,46,187.26
4423,F#3,914.0,1.0,53,187.26
4424,C#3,914.0,1.0,53,187.26
4425,G#3,914.0,1.0,53,187.26
4426,B-4,915.0,3.0,46,187.26
4427,B-3,915.0,3.0,46,187.26
4428,C#2,915.0,0.5,60,187.26
4429,C#3,915.0,0.5,60,187.26
4430,G#3,916.0,1.0,50,187.26
4431,C#3,916.0,1.0,50,187.26
4432,B3,916.0,1.0,50,187.26
4433,C#4,917.0,0.5,47,187.26
4434,F4,917.0,0.5,47,187.26
4435,B4,917.0,0.5,47,187.26
4436,C#4,918.0,0.875,52,187.26
4437,F4,918.0,0.875,52,187.26
4438,B4,918.0,0.875,52,187.26
4439,F#3,918.875,1.125,42,187.26
4440,C#4,918.938,1.062,44,187.26
4441,A4,919.0,1.0,51,187.26
4442,B-4,919.0,1.0,46,187.26
4443,B-3,919.0,1.0,46,187.26
4444,B-4,920.0,1.0,53,187.26
4445,B-5,920.0,1.0,53,187.26
4446,C#3,920.0,0.5,25,187.26
4447,F3,920.0,0.5,25,187.26
4448,B3,920.0,0.5,25,187.26
4449,B-6,921.0,1.0,59,187.26
4450,B-5,921.0,1.0,59,187.26
4451,C#3,921.0,0.875,27,187.26
4452,F3,921.0,0.875,27,187.26
4453,B3,921.0,0.875,27,187.26
4454,F#2,921.875,1.125,25,187.26
4455,C#3,921.938,1.062,25,187.26
4456,A3,922.0,1.0,30,187.26
4457,E-3,922.0,0.188,58,187.26
4458,E-4,922.0,0.188,58,187.26
4459,E-3,922.5,0.188,60,187.26
4460,E-4,922.5,0.188,60,187.26
4461,E-4,923.0,0.188,62,187.26
4462,E-3,923.0,0.188,62,187.26
4463,C#3,923.0,1.0,21,187.26
4464,F3,923.0,1.0,21,187.26
4465,B3,923.0,1.0,21,187.26
4466,E-4,923.5,0.188,64,187.26
4467,E-3,923.5,0.188,64,187.26
4468,E-4,924.0,1.0,72,187.26
4469,E-3,924.0,1.0,72,187.26
4470,C#3,924.0,1.0,28,187.26
4471,F#3,924.0,1.0,28,187.26
4472,A3,924.0,1.0,28,187.26
4473,F#2,925.0,1.0,25,187.26
4474,F3,925.0,1.0,77,187.26
4475,E-4,925.0,1.0,77,187.26
4476,B3,925.0,1.0,77,187.26
4477,F4,925.0,1.0,77,187.26
4478,F4,926.0,0.5,66,187.26
4479,F5,926.0,0.5,66,187.26
4480,E-5,926.0,0.5,66,187.26
4481,B4,926.0,0.5,66,187.26
4482,C#3,926.0,1.0,20,187.26
4483,F3,926.0,1.0,20,187.26
4484,B3,926.0,1.0,20,187.26
4485,E-4,926.5,0.5,68,187.26
4486,E-5,926.5,0.5,68,187.26
4487,B-4,927.0,0.5,66,187.26
4488,D5,927.0,0.5,66,187.26
4489,F5,927.0,0.5,66,187.26
4490,F4,927.0,0.5,66,187.26
4491,C#3,927.0,1.0,26,187.26
4492,F#3,927.0,1.0,26,187.26
4493,A3,927.0,1.0,26,187.26
4494,F#5,927.5,0.5,66,187.26
4495,F#4,927.5,0.5,66,187.26
4496,F#2,928.0,1.0,22,187.26
4497,F#4,928.0,0.188,58,187.26
4498,F#3,928.0,0.188,58,187.26
4499,F#3,928.5,0.188,60,187.26
4500,F#4,928.5,0.188,60,187.26
4501,F#3,929.0,0.188,62,187.26
4502,F#4,929.0,0.188,62,187.26
4503,C#3,929.0,1.0,18,187.26
4504,F3,929.0,1.0,18,187.26
4505,B3,929.0,1.0,18,187.26
4506,F#4,929.5,0.188,62,187.26
4507,F#3,929.5,0.188,62,187.26
4508,F#4,930.0,1.0,74,187.26
4509,F#3,930.0,1.0,74,187.26
4510,C#3,930.0,1.0,23,187.26
4511,F#3,930.0,1.0,23,187.26
4512,B-3,930.0,1.0,23,187.26
4513,F#2,931.0,1.0,21,187.26
4514,G#3,931.0,1.0,77,187.26
4515,D4,931.0,1.0,77,187.26
4516,F#4,931.0,1.0,77,187.26
4517,G#4,931.0,1.0,77,187.26
4518,G#4,932.0,0.5,66,187.26
4519,F#5,932.0,0.5,66,187.26
4520,G#5,932.0,0.5,66,187.26
4521,D5,932.0,0.5,66,187.26
4522,C#3,932.0,1.0,17,187.26
4523,F3,932.0,1.0,17,187.26
4524,B3,932.0,1.0,17,187.26
4525,F#4,932.5,0.5,68,187.26
4526,F#5,932.5,0.5,68,187.26
4527,G#4,933.0,0.5,66,187.26
4528,F5,933.0,0.5,66,187.26
4529,G#5,933.0,0.5,66,187.26
4530,C#5,933.0,0.5,66,187.26
4531,C#3,933.0,1.0,22,187.26
4532,F#3,933.0,1.0,22,187.26
4533,B-3,933.0,1.0,22,187.26
4534,A5,933.5,0.5,66,187.26
4535,A4,933.5,0.5,66,187.26
4536,F#2,934.0,1.0,19,187.26
4537,A4,934.0,0.188,52,187.26
4538,A3,934.0,0.188,52,187.26
4539,A3,934.5,0.188,56,187.26
4540,A4,934.5,0.188,56,187.26
4541,A3,935.0,0.188,59,187.26
4542,A4,935.0,0.188,59,187.26
4543,C#3,935.0,1.0,16,187.26
4544,F3,935.0,1.0,16,187.26
4545,B3,935.0,1.0,16,187.26
4546,A3,935.5,0.188,62,187.26
4547,A4,935.5,0.188,62,187.26
4548,A4,936.0,1.0,76,187.26
4549,A3,936.0,1.0,76,187.26
4550,C#3,936.0,1.0,21,187.26
4551,F#3,936.0,1.0,21,187.26
4552,B-3,936.0,1.0,21,187.26
4553,F#2,937.0,1.0,18,187.26
4554,F4,937.0,0.188,55,187.26
4555,A4,937.0,0.188,55,187.26
4556,B4,937.0,0.188,55,187.26
4557,B3,937.0,0.188,55,187.26
4558,B3,937.5,0.188,58,187.26
4559,A4,937.5,0.188,58,187.26
4560,F4,937.5,0.188,58,187.26
4561,B4,937.5,0.188,58,187.26
4562,F4,938.0,0.188,63,187.26
4563,B3,938.0,0.188,63,187.26
4564,B4,938.0,0.188,63,187.26
4565,A4,938.0,0.188,63,187.26
4566,C#3,938.0,1.0,15,187.26
4567,F3,938.0,1.0,15,187.26
4568,B3,938.0,1.0,15,187.26
4569,F4,938.5,0.188,67,187.26
4570,A4,938.5,0.188,67,187.26
4571,B4,938.5,0.188,67,187.26
4572,B3,938.5,0.188,67,187.26
4573,B-4,939.0,1.0,51,187.26
4574,B3,939.0,1.0,71,187.26
4575,F4,939.0,1.0,71,187.26
4576,A4,939.0,1.0,71,187.26
4577,B4,939.0,1.0,71,187.26
4578,C#3,939.0,1.0,20,187.26
4579,F#3,939.0,1.0,20,187.26
4580,B-3,939.0,1.0,20,187.26
4581,F4,940.0,1.0,42,187.26
4582,F#2,940.0,1.0,17,187.26
4583,C4,940.0,0.188,56,187.26
4584,E-4,940.0,0.188,56,187.26
4585,C5,940.0,0.188,56,187.26
4586,A4,940.0,0.188,56,187.26
4587,E-4,940.5,0.188,59,187.26
4588,C4,940.5,0.188,59,187.26
4589,C5,940.5,0.188,59,187.26
4590,A4,940.5,0.188,59,187.26
4591,F#4,941.0,1.0,46,187.26
4592,E-4,941.0,0.188,65,187.26
4593,C5,941.0,0.188,65,187.26
4594,C4,941.0,0.188,65,187.26
4595,C#3,941.0,1.0,15,187.26
4596,F3,941.0,1.0,15,187.26
4597,B3,941.0,1.0,15,187.26
4598,E-4,941.5,0.188,68,187.26
4599,C4,941.5,0.188,68,187.26
4600,C5,941.5,0.188,68,187.26
4601,E-5,942.0,2.0,51,187.26
4602,F#2,942.0,1.0,32,187.26
4603,F#4,942.0,1.0,75,187.26
4604,E-4,942.0,1.0,75,187.26
4605,C5,942.0,1.0,75,187.26
4606,C4,942.0,1.0,75,187.26
4607,F#4,943.0,1.0,82,187.26
4608,E-4,943.0,1.0,82,187.26
4609,A4,943.0,1.0,82,187.26
4610,E-5,943.0,1.0,82,187.26
4611,E-4,943.0,1.0,18,187.26
4612,F#3,943.0,1.0,18,187.26
4613,C#3,943.0,1.0,18,187.26
4614,C#5,944.0,1.0,47,187.26
4615,E-5,944.0,0.5,84,187.26
4616,F#5,944.0,0.5,84,187.26
4617,A5,944.0,0.5,84,187.26
4618,F#6,944.0,0.5,84,187.26
4619,C#3,944.0,1.0,15,187.26
4620,F#3,944.0,1.0,15,187.26
4621,C#4,944.0,1.0,15,187.26
4622,C#5,945.0,1.0,47,187.26
4623,D5,945.0,1.0,83,187.26
4624,D4,945.0,1.0,83,187.26
4625,F#4,945.0,1.0,83,187.26
4626,C#3,945.0,1.0,17,187.26
4627,F#3,945.0,1.0,17,187.26
4628,C#4,945.0,1.0,17,187.26
4629,F#4,946.0,1.0,38,187.26
4630,C#4,946.0,1.0,79,187.26
4631,F#4,946.0,1.0,79,187.26
4632,C#5,946.0,1.0,79,187.26
4633,E-4,946.0,1.0,13,187.26
4634,C#3,946.0,1.0,13,187.26
4635,F#3,946.0,1.0,13,187.26
4636,G#4,947.0,1.0,38,187.26
4637,F#5,947.0,0.5,90,187.26
4638,F#6,947.0,0.5,90,187.26
4639,C#3,947.0,1.0,13,187.26
4640,F#3,947.0,1.0,13,187.26
4641,C#4,947.0,1.0,13,187.26
4642,B-4,948.0,3.0,49,187.26
4643,F#4,948.0,1.0,75,187.26
4644,D4,948.0,1.0,75,187.26
4645,D5,948.0,1.0,75,187.26
4646,C#3,948.0,1.0,17,187.26
4647,F#3,948.0,1.0,17,187.26
4648,C#4,948.0,1.0,17,187.26
4649,D5,949.0,0.5,90,187.26
4650,D6,949.0,0.5,90,187.26
4651,E-4,949.0,1.0,17,187.26
4652,F#3,949.0,1.0,17,187.26
4653,C#3,949.0,1.0,17,187.26
4654,G#4,950.0,1.0,71,187.26
4655,F#4,950.0,1.0,71,187.26
4656,D4,950.0,1.0,71,187.26
4657,B4,950.0,1.0,71,187.26
4658,C#3,950.0,1.0,14,187.26
4659,F#3,950.0,1.0,14,187.26
4660,C#4,950.0,1.0,14,187.26
4661,B-4,951.0,3.0,49,187.26
4662,B4,951.0,0.5,90,187.26
4663,B5,951.0,0.5,90,187.26
4664,C#3,951.0,1.0,17,187.26
4665,F#3,951.0,1.0,17,187.26
4666,C#4,951.0,1.0,17,187.26
4667,F#4,952.0,1.0,75,187.26
4668,C#4,952.0,1.0,75,187.26
4669,A4,952.0,1.0,75,187.26
4670,E-4,952.0,1.0,17,187.26
4671,C#3,952.0,1.0,17,187.26
4672,F#3,952.0,1.0,17,187.26
4673,A4,953.0,0.5,88,187.26
4674,A5,953.0,0.5,88,187.26
4675,C#3,953.0,1.0,14,187.26
4676,F#3,953.0,1.0,14,187.26
4677,C#4,953.0,1.0,14,187.26
4678,B-4,954.0,1.0,49,187.26
4679,F#4,954.0,1.0,75,187.26
4680,C#4,954.0,1.0,75,187.26
4681,G#4,954.0,1.0,75,187.26
4682,C#3,954.0,1.0,17,187.26
4683,F#3,954.0,1.0,17,187.26
4684,C#4,954.0,1.0,17,187.26
4685,G#4,955.0,0.5,86,187.26
4686,G#5,955.0,0.5,86,187.26
4687,C#3,955.0,1.0,15,187.26
4688,F#3,955.0,1.0,15,187.26
4689,B3,955.0,1.0,15,187.26
4690,F4,956.0,1.0,71,187.26
4691,C#4,956.0,1.0,71,187.26
4692,G#4,956.0,1.0,71,187.26
4693,C#3,956.0,1.0,16,187.26
4694,F#3,956.0,1.0,16,187.26
4695,B-3,956.0,1.0,16,187.26
4696,C#6,957.0,0.5,70,187.26
4697,G#5,957.0,0.5,70,187.26
4698,C#5,957.0,0.5,70,187.26
4699,C#3,957.0,1.0,16,187.26
4700,F#3,957.0,1.0,16,187.26
4701,B-3,957.0,1.0,16,187.26
4702,C#5,958.0,1.0,71,187.26
4703,G#5,958.0,1.0,71,187.26
4704,C#6,958.0,1.0,71,187.26
4705,B2,958.0,1.0,19,187.26
4706,C#3,958.0,1.0,19,187.26
4707,F#6,959.0,1.0,69,187.26
4708,F#5,959.0,1.0,69,187.26
4709,B-2,959.0,1.0,19,187.26
4710,C#3,959.0,1.0,19,187.26
4711,C#5,960.0,0.5,38,187.26
4712,G#4,960.0,0.5,38,187.26
4713,C#4,960.0,0.5,38,187.26
4714,B-2,960.0,1.0,19,187.26
4715,C#3,960.0,1.0,19,187.26
4716,C#4,961.0,1.0,39,187.26
4717,G#4,961.0,1.0,39,187.26
4718,C#5,961.0,1.0,39,187.26
4719,B2,961.0,1.0,19,187.26
4720,C#3,961.0,1.0,19,187.26
4721,F#5,962.0,1.0,40,187.26
4722,F#4,962.0,1.0,40,187.26
4723,B-2,962.0,1.0,19,187.26
4724,C#3,962.0,1.0,19,187.26
4725,C#5,963.0,1.0,33,187.26
4726,G#4,963.0,1.0,33,187.26
4727,C#4,963.0,1.0,33,187.26
4728,B-2,963.0,1.0,18,187.26
4729,C#3,963.0,1.0,18,187.26
4730,C#4,964.0,1.0,40,187.26
4731,C#5,964.0,1.0,40,187.26
4732,B2,964.0,1.0,18,187.26
4733,C#3,964.0,1.0,18,187.26
4734,F#5,965.0,1.0,38,187.26
4735,F#4,965.0,1.0,38,187.26
4736,B-2,965.0,1.0,16,187.26
4737,C#3,965.0,1.0,16,187.26
4738,C#5,966.0,1.0,31,187.26
4739,G#4,966.0,1.0,31,187.26
4740,C#4,966.0,1.0,31,187.26
4741,C#4,967.0,1.0,38,187.26
4742,C#5,967.0,1.0,38,187.26
4743,B-2,967.0,1.0,16,187.26
4744,C#3,967.0,1.0,16,187.26
4745,F#5,968.0,1.0,36,187.26
4746,F#4,968.0,1.0,36,187.26
4747,G#1,968.0,1.0,18,187.26
4748,G#2,968.0,1.0,18,187.26
4749,C#5,969.0,1.0,29,187.26
4750,G#4,969.0,1.0,29,187.26
4751,C#4,969.0,1.0,29,187.26
4752,F#1,969.0,1.0,18,187.26
4753,F#2,969.0,1.0,18,187.26
4754,C#4,970.0,1.0,34,187.26
4755,C#5,970.0,1.0,34,187.26
4756,F#1,970.0,1.0,18,187.26
4757,F#2,970.0,1.0,18,187.26
4758,F#5,971.0,1.0,33,187.26
4759,F#4,971.0,1.0,33,187.26
4760,G#1,971.0,1.0,18,187.26
4761,G#2,971.0,1.0,18,187.26
4762,C#5,972.0,1.0,27,187.26
4763,G#4,972.0,1.0,27,187.26
4764,C#4,972.0,1.0,27,187.26
4765,F#1,972.0,1.0,18,187.26
4766,F#2,972.0,1.0,18,187.26
4767,C#4,973.0,1.0,32,187.26
4768,C#5,973.0,1.0,32,187.26
4769,F#5,974.0,1.0,31,187.26
4770,F#4,974.0,1.0,31,187.26
4771,C#5,975.0,1.0,25,187.26
4772,G#4,975.0,1.0,25,187.26
4773,C#4,975.0,1.0,25,187.26
4774,C#4,976.0,1.0,31,187.26
4775,C#5,976.0,1.0,31,187.26
4776,C#1,976.0,0.25,18,187.26
4777,C#2,976.0,0.25,18,187.26
4778,F#5,977.0,1.0,30,187.26
4779,F#4,977.0,1.0,30,187.26
4780,C#5,978.0,1.0,24,187.26
4781,G#4,978.0,1.0,24,187.26
4782,C#4,978.0,1.0,24,187.26
4783,C#4,979.0,1.0,29,187.26
4784,C#5,979.0,1.0,29,187.26
4785,F#1,979.0,0.25,18,187.26
4786,F#2,979.0,0.25,18,187.26
4787,F#5,980.0,1.0,28,187.26
4788,F#4,980.0,1.0,28,187.26
4789,C#4,981.0,1.0,24,187.26
4790,G#4,981.0,1.0,24,187.26
4791,C#5,981.0,1.0,24,187.26
4792,B-3,983.0,1.0,23,187.26
4793,B-3,984.0,1.0,23,187.26
4794,B-3,986.0,1.0,20,187.26
4795,F#4,986.0,1.0,20,187.26
4796,B-3,987.0,1.0,20,187.26
4797,F#4,987.0,1.0,20,187.26
4798,B3,989.0,1.0,20,187.26
4799,F4,990.0,1.0,21,187.26
4800,B3,990.0,1.0,21,187.26
4801,B-3,992.0,1.0,22,187.26
4802,F#4,992.0,1.0,22,187.26
4803,B-3,993.0,1.0,22,187.26
4804,F#4,993.0,1.0,22,187.26
4805,B-3,994.0,1.0,21,187.26
4806,F#4,994.0,1.0,21,187.26
4807,C#4,995.0,1.0,20,187.26
4808,F#4,995.0,1.0,20,187.26
4809,C#4,996.0,1.0,20,187.26
4810,F#4,996.0,1.0,20,187.26
4811,C#4,997.0,1.0,21,187.26
4812,F#4,997.0,1.0,21,187.26
4813,G#3,998.0,1.0,20,187.26
4814,C#4,998.0,1.0,20,187.26
4815,F#3,999.0,1.0,20,187.26
4816,C#4,999.0,1.0,20,187.26
4817,F#3,1000.0,1.0,21,187.26
4818,C#4,1000.0,1.0,21,187.26
4819,G#3,1001.0,1.0,20,187.26
4820,C#4,1001.0,1.0,20,187.26
4821,F#3,1002.0,1.0,20,187.26
4822,C#4,1002.0,1.0,20,187.26
4823,F#3,1003.0,1.0,21,187.26
4824,C#4,1003.0,1.0,21,187.26
4825,G#3,1004.0,1.0,20,187.26
4826,C#4,1004.0,1.0,20,187.26
4827,F#3,1005.0,1.0,21,187.26
4828,C#4,1005.0,1.0,21,187.26
4829,F#3,1006.0,1.0,21,187.26
4830,C#4,1006.0,1.0,21,187.26
4831,F#3,1012.0,3.0,23,187.26
4832,C#4,1012.0,3.0,23,187.26
4833,F#4,1012.0,3.0,23,187.26
4834,B-4,1012.0,3.0,23,187.26
4835,F#3,1025.0,3.0,23,187.26
4836,C#4,1025.0,3.0,23,187.26
4837,F#4,1025.0,3.0,23,187.26
4838,B-4,1025.0,3.0,23,187.26
4839,F#3,1035.0,3.0,23,187.26
4840,C#4,1035.0,3.0,23,187.26
4841,F#4,1035.0,3.0,23,187.26
4842,B-4,1035.0,3.0,23,187.26
4843,F#3,1042.0,3.0,23,187.26
4844,C#4,1042.0,3.0,23,187.26
4845,F#4,1042.0,3.0,23,187.26
4846,B-4,1042.0,3.0,23,187.26
4847,F#3,1046.0,1.0,23,187.26
4848,C#4,1046.0,1.0,23,187.26
4849,F#4,1046.0,1.0,23,187.26
4850,B-4,1046.0,1.0,23,187.26
