,note_name,start_time,duration,velocity,tempo
0,F4,0.0,0.5,70,144.0
1,F2,0.0,0.5,70,144.0
2,F4,0.75,0.25,66,144.0
3,G4,1.0,1.0,70,144.0
4,E-4,1.0,1.0,53,144.0
5,C4,1.0,1.0,53,144.0
6,F3,1.0,1.0,53,144.0
7,A4,2.0,1.0,70,144.0
8,E-4,2.0,1.0,54,144.0
9,C4,2.0,1.0,54,144.0
10,F3,2.0,1.0,54,144.0
11,B-4,3.0,0.5,71,144.0
12,B-2,3.0,0.5,70,144.0
13,C5,3.75,0.25,66,144.0
14,D5,4.0,1.0,70,144.0
15,D4,4.0,1.0,52,144.0
16,B-3,4.0,1.0,52,144.0
17,F3,4.0,1.0,52,144.0
18,E-5,5.0,0.5,75,144.0
19,B-2,5.0,0.5,62,144.0
20,F5,5.5,0.5,79,144.0
21,G5,6.0,0.25,83,144.0
22,E-2,6.0,0.812,74,144.0
23,E-3,6.0,0.812,74,144.0
24,A5,6.75,0.25,75,144.0
25,G3,6.812,1.188,59,144.0
26,B-3,6.875,1.125,59,144.0
27,E-4,6.938,1.062,59,144.0
28,B-5,7.0,0.125,76,144.0
29,G4,7.0,1.0,70,144.0
30,C6,7.125,0.125,67,144.0
31,B-5,7.25,0.125,73,144.0
32,C6,7.375,0.125,66,144.0
33,B-5,7.5,0.125,70,144.0
34,C6,7.625,0.125,64,144.0
35,B-5,7.75,0.125,70,144.0
36,C6,7.875,0.125,64,144.0
37,A5,8.0,0.5,70,144.0
38,G5,8.5,0.375,56,144.0
39,F5,8.875,0.125,46,144.0
40,B-5,9.0,0.25,53,144.0
41,B-2,9.0,0.5,43,144.0
42,B-5,9.75,0.25,49,144.0
43,D5,10.0,1.875,44,144.0
44,D4,10.0,1.0,25,144.0
45,B-3,10.0,1.0,25,144.0
46,F3,10.0,1.0,25,144.0
47,D4,11.0,1.0,23,144.0
48,B-3,11.0,1.0,23,144.0
49,F3,11.0,1.0,23,144.0
50,E-5,11.875,0.125,45,144.0
51,G5,12.0,0.25,51,144.0
52,F2,12.0,0.5,40,144.0
53,G5,12.75,0.25,46,144.0
54,A4,13.0,1.875,44,144.0
55,E-4,13.0,1.0,24,144.0
56,C4,13.0,1.0,24,144.0
57,F3,13.0,1.0,24,144.0
58,E-4,14.0,1.0,22,144.0
59,C4,14.0,1.0,22,144.0
60,F3,14.0,1.0,22,144.0
61,B-4,14.875,0.125,45,144.0
62,D5,15.0,0.25,49,144.0
63,B-2,15.0,0.5,43,144.0
64,D5,15.75,0.25,47,144.0
65,E4,16.0,2.0,44,144.0
66,D4,16.0,1.0,25,144.0
67,B-3,16.0,1.0,25,144.0
68,F3,16.0,1.0,25,144.0
69,D4,17.0,1.0,23,144.0
70,B-3,17.0,1.0,23,144.0
71,F3,17.0,1.0,23,144.0
72,F4,18.0,0.25,55,144.0
73,F2,18.0,0.5,57,144.0
74,A4,18.75,0.25,58,144.0
75,C5,19.0,0.5,59,144.0
76,F3,19.0,1.0,43,144.0
77,E-4,19.0,1.0,43,144.0
78,E-5,19.5,0.5,60,144.0
79,G5,20.0,0.75,67,144.0
80,F3,20.0,1.0,41,144.0
81,A3,20.0,1.0,41,144.0
82,E-4,20.0,1.0,41,144.0
83,F5,20.75,121/1000,63,144.0
84,F5,20.875,0.125,55,144.0
85,D6,21.0,0.25,75,144.0
86,B-2,21.0,0.5,57,144.0
87,C6,21.75,0.25,64,144.0
88,B-5,22.0,0.125,55,144.0
89,F3,22.0,1.0,42,144.0
90,B-3,22.0,1.0,42,144.0
91,D4,22.0,1.0,42,144.0
92,C6,22.125,0.125,54,144.0
93,B-5,22.25,0.25,60,144.0
94,G5,22.5,0.5,58,144.0
95,F5,23.0,1.0,55,144.0
96,F3,23.0,1.0,41,144.0
97,B-3,23.0,1.0,41,144.0
98,D4,23.0,1.0,41,144.0
99,G5,23.875,0.125,45,144.0
100,B-5,24.0,0.25,51,144.0
101,B-2,24.0,0.5,36,144.0
102,B-5,24.75,0.25,46,144.0
103,A4,25.0,1.75,44,144.0
104,E-4,25.0,1.0,24,144.0
105,C4,25.0,1.0,24,144.0
106,F3,25.0,1.0,24,144.0
107,E-4,26.0,1.0,22,144.0
108,C4,26.0,1.0,22,144.0
109,F3,26.0,1.0,22,144.0
110,B-4,26.75,0.125,42,144.0
111,D5,26.875,0.125,41,144.0
112,F5,27.0,0.25,49,144.0
113,B-2,27.0,0.5,38,144.0
114,F5,27.75,0.25,47,144.0
115,E4,28.0,2.0,44,144.0
116,D4,28.0,1.0,25,144.0
117,B-3,28.0,1.0,25,144.0
118,F3,28.0,1.0,25,144.0
119,D4,29.0,1.0,23,144.0
120,B-3,29.0,1.0,23,144.0
121,F3,29.0,1.0,23,144.0
122,F4,30.0,0.25,55,144.0
123,F2,30.0,0.5,57,144.0
124,A4,30.75,0.25,58,144.0
125,C5,31.0,0.5,59,144.0
126,F3,31.0,1.0,43,144.0
127,E-4,31.0,1.0,43,144.0
128,E-5,31.5,0.5,60,144.0
129,D5,32.0,0.125,56,144.0
130,F3,32.0,1.0,41,144.0
131,A3,32.0,1.0,41,144.0
132,E-4,32.0,1.0,41,144.0
133,E-5,32.125,0.125,56,144.0
134,D5,32.25,0.25,61,144.0
135,C5,32.5,0.5,56,144.0
136,D5,33.0,0.25,64,144.0
137,B-2,33.0,0.5,57,144.0
138,F4,33.75,0.25,57,144.0
139,B-4,34.0,1.0,59,144.0
140,F3,34.0,1.0,42,144.0
141,B-3,34.0,1.0,42,144.0
142,D4,34.0,1.0,42,144.0
143,A4,35.0,0.5,64,144.0
144,G4,35.5,0.5,61,144.0
145,F4,36.0,0.5,70,144.0
146,F2,36.0,0.5,70,144.0
147,F4,36.75,0.25,66,144.0
148,G4,37.0,1.0,70,144.0
149,E-4,37.0,1.0,53,144.0
150,C4,37.0,1.0,53,144.0
151,F3,37.0,1.0,53,144.0
152,A4,38.0,1.0,70,144.0
153,E-4,38.0,1.0,54,144.0
154,C4,38.0,1.0,54,144.0
155,F3,38.0,1.0,54,144.0
156,B-4,39.0,0.5,71,144.0
157,B-2,39.0,0.5,70,144.0
158,C5,39.75,0.25,66,144.0
159,D5,40.0,1.0,70,144.0
160,D4,40.0,1.0,52,144.0
161,B-3,40.0,1.0,52,144.0
162,F3,40.0,1.0,52,144.0
163,E-5,41.0,0.5,75,144.0
164,B-2,41.0,0.5,62,144.0
165,F5,41.5,0.5,79,144.0
166,G5,42.0,0.25,83,144.0
167,E-2,42.0,0.812,74,144.0
168,E-3,42.0,0.812,74,144.0
169,A5,42.75,0.25,75,144.0
170,G3,42.812,1.188,59,144.0
171,B-3,42.875,1.125,59,144.0
172,E-4,42.938,1.062,59,144.0
173,B-5,43.0,0.125,76,144.0
174,G4,43.0,1.0,70,144.0
175,C6,43.125,0.125,67,144.0
176,B-5,43.25,0.125,73,144.0
177,C6,43.375,0.125,66,144.0
178,B-5,43.5,0.125,70,144.0
179,C6,43.625,0.125,64,144.0
180,B-5,43.75,0.125,70,144.0
181,C6,43.875,0.125,64,144.0
182,A5,44.0,0.5,70,144.0
183,G5,44.5,0.375,56,144.0
184,F5,44.875,0.125,46,144.0
185,B-5,45.0,0.25,53,144.0
186,B-2,45.0,0.5,43,144.0
187,B-5,45.75,0.25,49,144.0
188,D5,46.0,1.875,44,144.0
189,D4,46.0,1.0,25,144.0
190,B-3,46.0,1.0,25,144.0
191,F3,46.0,1.0,25,144.0
192,D4,47.0,1.0,23,144.0
193,B-3,47.0,1.0,23,144.0
194,F3,47.0,1.0,23,144.0
195,E-5,47.875,0.125,45,144.0
196,G5,48.0,0.25,51,144.0
197,F2,48.0,0.5,40,144.0
198,G5,48.75,0.25,46,144.0
199,A4,49.0,1.875,44,144.0
200,E-4,49.0,1.0,24,144.0
201,C4,49.0,1.0,24,144.0
202,F3,49.0,1.0,24,144.0
203,E-4,50.0,1.0,22,144.0
204,C4,50.0,1.0,22,144.0
205,F3,50.0,1.0,22,144.0
206,B-4,50.875,0.125,45,144.0
207,D5,51.0,0.25,49,144.0
208,B-2,51.0,0.5,43,144.0
209,D5,51.75,0.25,47,144.0
210,E4,52.0,2.0,44,144.0
211,D4,52.0,1.0,25,144.0
212,B-3,52.0,1.0,25,144.0
213,F3,52.0,1.0,25,144.0
214,D4,53.0,1.0,23,144.0
215,B-3,53.0,1.0,23,144.0
216,F3,53.0,1.0,23,144.0
217,F4,54.0,0.25,55,144.0
218,F2,54.0,0.5,57,144.0
219,A4,54.75,0.25,58,144.0
220,C5,55.0,0.5,59,144.0
221,F3,55.0,1.0,43,144.0
222,E-4,55.0,1.0,43,144.0
223,E-5,55.5,0.5,60,144.0
224,G5,56.0,0.75,67,144.0
225,F3,56.0,1.0,41,144.0
226,A3,56.0,1.0,41,144.0
227,E-4,56.0,1.0,41,144.0
228,F5,56.75,119/1000,63,144.0
229,F5,56.875,0.125,49,144.0
230,D6,57.0,0.25,67,144.0
231,B-2,57.0,0.5,51,144.0
232,C6,57.75,0.25,61,144.0
233,B-5,58.0,0.125,50,144.0
234,F3,58.0,1.0,33,144.0
235,B-3,58.0,1.0,33,144.0
236,D4,58.0,1.0,33,144.0
237,C6,58.125,0.125,49,144.0
238,B-5,58.25,0.25,57,144.0
239,G5,58.5,0.5,52,144.0
240,F5,59.0,1.0,49,144.0
241,F3,59.0,1.0,33,144.0
242,B-3,59.0,1.0,33,144.0
243,D4,59.0,1.0,33,144.0
244,G5,59.875,0.125,45,144.0
245,B-5,60.0,0.25,51,144.0
246,B-2,60.0,0.5,40,144.0
247,B-5,60.75,0.25,46,144.0
248,A4,61.0,1.75,44,144.0
249,E-4,61.0,1.0,24,144.0
250,C4,61.0,1.0,24,144.0
251,F3,61.0,1.0,24,144.0
252,E-4,62.0,1.0,22,144.0
253,C4,62.0,1.0,22,144.0
254,F3,62.0,1.0,22,144.0
255,B-4,62.75,0.125,42,144.0
256,D5,62.875,0.125,41,144.0
257,F5,63.0,0.25,49,144.0
258,B-2,63.0,0.5,43,144.0
259,F5,63.75,0.25,47,144.0
260,E4,64.0,2.0,44,144.0
261,D4,64.0,1.0,25,144.0
262,B-3,64.0,1.0,25,144.0
263,F3,64.0,1.0,25,144.0
264,D4,65.0,1.0,23,144.0
265,B-3,65.0,1.0,23,144.0
266,F3,65.0,1.0,23,144.0
267,F4,66.0,0.25,55,144.0
268,F2,66.0,0.5,57,144.0
269,A4,66.75,0.25,58,144.0
270,C5,67.0,0.5,59,144.0
271,F3,67.0,1.0,43,144.0
272,E-4,67.0,1.0,43,144.0
273,E-5,67.5,0.5,60,144.0
274,D5,68.0,0.125,56,144.0
275,F3,68.0,1.0,41,144.0
276,A3,68.0,1.0,41,144.0
277,E-4,68.0,1.0,41,144.0
278,E-5,68.125,0.125,56,144.0
279,D5,68.25,0.25,61,144.0
280,C5,68.5,0.5,56,144.0
281,D5,69.0,0.25,64,144.0
282,B-2,69.0,0.5,57,144.0
283,F4,69.75,0.25,57,144.0
284,B-4,70.0,1.0,59,144.0
285,F3,70.0,1.0,42,144.0
286,B-3,70.0,1.0,42,144.0
287,D4,70.0,1.0,42,144.0
288,A4,71.0,0.5,44,144.0
289,B-4,71.5,0.5,44,144.0
290,C5,72.0,0.75,46,144.0
291,F2,72.0,1.0,37,144.0
292,D5,72.75,0.25,42,144.0
293,C5,73.0,1.0,46,144.0
294,C3,73.0,1.0,28,144.0
295,A3,73.0,1.0,28,144.0
296,E5,74.0,0.5,49,144.0
297,C3,74.0,1.0,31,144.0
298,A3,74.0,1.0,31,144.0
299,F5,74.5,0.5,51,144.0
300,G5,75.0,0.75,55,144.0
301,F2,75.0,1.0,42,144.0
302,A5,75.75,0.25,52,144.0
303,G5,76.0,1.0,56,144.0
304,D3,76.0,1.0,35,144.0
305,B-3,76.0,1.0,35,144.0
306,F5,77.0,0.5,52,144.0
307,D3,77.0,1.0,36,144.0
308,B-3,77.0,1.0,36,144.0
309,D5,77.5,0.5,49,144.0
310,C5,78.0,0.5,56,144.0
311,F2,78.0,1.0,42,144.0
312,D5,78.5,0.5,51,144.0
313,C5,79.0,1.0,56,144.0
314,C3,79.0,1.0,35,144.0
315,A3,79.0,1.0,35,144.0
316,E5,80.0,0.5,50,144.0
317,C3,80.0,1.0,35,144.0
318,A3,80.0,1.0,35,144.0
319,F5,80.75,0.25,55,144.0
320,G5,81.0,333/1000,59,144.0
321,F2,81.0,0.5,39,144.0
322,A5,81.333,333/1000,56,144.0
323,G5,81.667,333/1000,56,144.0
324,F5,82.0,1.5,53,144.0
325,D3,82.0,0.5,31,144.0
326,B-3,82.0,0.5,31,144.0
327,F2,83.0,0.5,34,144.0
328,D5,83.5,0.5,50,144.0
329,C5,84.0,0.5,51,144.0
330,C3,84.0,0.5,34,144.0
331,A3,84.0,0.5,34,144.0
332,D5,84.5,0.5,49,144.0
333,C5,85.0,1.0,51,144.0
334,F2,85.0,0.5,34,144.0
335,E5,86.0,0.5,49,144.0
336,C3,86.0,0.5,31,144.0
337,A3,86.0,0.5,31,144.0
338,F5,86.5,0.5,51,144.0
339,G5,87.0,0.5,55,144.0
340,F2,87.0,0.5,42,144.0
341,A5,87.5,0.5,52,144.0
342,G5,88.0,0.125,50,144.0
343,D3,88.0,0.5,35,144.0
344,B-3,88.0,0.5,35,144.0
345,A5,88.125,0.125,47,144.0
346,G5,88.25,0.125,52,144.0
347,A5,88.375,0.125,49,144.0
348,G5,88.5,0.125,56,144.0
349,A5,88.625,0.125,49,144.0
350,G5,88.75,0.125,51,144.0
351,A5,88.875,0.125,49,144.0
352,F5,89.0,0.5,52,144.0
353,F2,89.0,0.5,34,144.0
354,D5,89.5,0.5,49,144.0
355,C5,90.0,0.5,56,144.0
356,C3,90.0,0.5,35,144.0
357,A3,90.0,0.5,35,144.0
358,D5,90.5,0.5,51,144.0
359,C5,91.0,1.0,56,144.0
360,F2,91.0,0.5,34,144.0
361,E5,92.0,0.5,55,144.0
362,C3,92.0,1.0,38,144.0
363,A3,92.0,1.0,45,144.0
364,F5,92.5,0.5,59,144.0
365,G5,93.0,333/1000,64,144.0
366,C3,93.0,1.0,38,144.0
367,E3,93.0,1.0,42,144.0
368,B-3,93.0,1.0,42,144.0
369,A5,93.333,333/1000,61,144.0
370,G5,93.667,333/1000,61,144.0
371,F5,94.0,0.75,66,144.0
372,F3,94.0,1.0,42,144.0
373,A3,94.0,1.0,42,144.0
374,G4,94.75,0.25,62,144.0
375,F5,95.0,333/1000,68,144.0
376,F#4,95.333,333/1000,62,144.0
377,F5,95.667,101/500,69,144.0
378,F5,95.875,0.125,66,144.0
379,F4,96.0,0.5,70,144.0
380,F2,96.0,0.5,70,144.0
381,F4,96.75,0.25,66,144.0
382,G4,97.0,1.0,70,144.0
383,E-4,97.0,1.0,53,144.0
384,C4,97.0,1.0,53,144.0
385,F3,97.0,1.0,53,144.0
386,A4,98.0,1.0,70,144.0
387,E-4,98.0,1.0,54,144.0
388,C4,98.0,1.0,54,144.0
389,F3,98.0,1.0,54,144.0
390,B-4,99.0,0.5,71,144.0
391,B-2,99.0,0.5,70,144.0
392,C5,99.75,0.25,66,144.0
393,D5,100.0,1.0,70,144.0
394,D4,100.0,1.0,52,144.0
395,B-3,100.0,1.0,52,144.0
396,F3,100.0,1.0,52,144.0
397,E-5,101.0,0.5,75,144.0
398,B-2,101.0,0.5,62,144.0
399,F5,101.5,0.5,79,144.0
400,G5,102.0,0.25,83,144.0
401,E-2,102.0,0.812,74,144.0
402,E-3,102.0,0.812,74,144.0
403,A5,102.75,0.25,75,144.0
404,G3,102.812,1.188,59,144.0
405,B-3,102.875,1.125,59,144.0
406,E-4,102.938,1.062,59,144.0
407,B-5,103.0,0.125,76,144.0
408,G4,103.0,1.0,70,144.0
409,C6,103.125,0.125,67,144.0
410,B-5,103.25,0.125,73,144.0
411,C6,103.375,0.125,66,144.0
412,B-5,103.5,0.125,70,144.0
413,C6,103.625,0.125,64,144.0
414,B-5,103.75,0.125,70,144.0
415,C6,103.875,0.125,64,144.0
416,A5,104.0,0.5,70,144.0
417,G5,104.5,0.375,56,144.0
418,F5,104.875,0.125,51,144.0
419,B-5,105.0,0.25,60,144.0
420,B-2,105.0,0.5,48,144.0
421,B-5,105.75,0.25,55,144.0
422,D5,106.0,1.875,49,144.0
423,D4,106.0,1.0,28,144.0
424,B-3,106.0,1.0,28,144.0
425,F3,106.0,1.0,28,144.0
426,D4,107.0,1.0,26,144.0
427,B-3,107.0,1.0,26,144.0
428,F3,107.0,1.0,26,144.0
429,E-5,107.875,0.125,50,144.0
430,G5,108.0,0.25,58,144.0
431,F2,108.0,0.5,45,144.0
432,G5,108.75,0.25,51,144.0
433,A4,109.0,1.875,49,144.0
434,E-4,109.0,1.0,27,144.0
435,C4,109.0,1.0,27,144.0
436,F3,109.0,1.0,27,144.0
437,E-4,110.0,1.0,25,144.0
438,C4,110.0,1.0,25,144.0
439,F3,110.0,1.0,25,144.0
440,B-4,110.875,0.125,50,144.0
441,D5,111.0,0.25,56,144.0
442,B-2,111.0,0.5,48,144.0
443,D5,111.75,0.25,52,144.0
444,E4,112.0,2.0,49,144.0
445,D4,112.0,1.0,28,144.0
446,B-3,112.0,1.0,28,144.0
447,F3,112.0,1.0,28,144.0
448,D4,113.0,1.0,26,144.0
449,B-3,113.0,1.0,26,144.0
450,F3,113.0,1.0,26,144.0
451,F4,114.0,0.25,55,144.0
452,F2,114.0,0.5,57,144.0
453,A4,114.75,0.25,58,144.0
454,C5,115.0,0.5,59,144.0
455,F3,115.0,1.0,43,144.0
456,E-4,115.0,1.0,43,144.0
457,E-5,115.5,0.5,60,144.0
458,G5,116.0,0.75,67,144.0
459,F3,116.0,1.0,41,144.0
460,A3,116.0,1.0,41,144.0
461,E-4,116.0,1.0,41,144.0
462,F5,116.75,119/1000,63,144.0
463,F5,116.875,0.125,55,144.0
464,D6,117.0,0.25,75,144.0
465,B-2,117.0,0.5,57,144.0
466,C6,117.75,0.25,68,144.0
467,B-5,118.0,0.125,56,144.0
468,F3,118.0,1.0,42,144.0
469,B-3,118.0,1.0,42,144.0
470,D4,118.0,1.0,42,144.0
471,C6,118.125,0.125,55,144.0
472,B-5,118.25,0.25,64,144.0
473,G5,118.5,0.5,58,144.0
474,F5,119.0,1.0,55,144.0
475,F3,119.0,1.0,41,144.0
476,B-3,119.0,1.0,41,144.0
477,D4,119.0,1.0,41,144.0
478,G5,119.875,0.125,45,144.0
479,B-5,120.0,0.25,51,144.0
480,B-2,120.0,0.5,40,144.0
481,B-5,120.75,0.25,46,144.0
482,A4,121.0,1.75,44,144.0
483,E-4,121.0,1.0,24,144.0
484,C4,121.0,1.0,24,144.0
485,F3,121.0,1.0,24,144.0
486,E-4,122.0,1.0,22,144.0
487,C4,122.0,1.0,22,144.0
488,F3,122.0,1.0,22,144.0
489,B-4,122.75,0.125,42,144.0
490,D5,122.875,0.125,41,144.0
491,F5,123.0,0.25,49,144.0
492,B-2,123.0,0.5,43,144.0
493,F5,123.75,0.25,47,144.0
494,E4,124.0,2.0,44,144.0
495,D4,124.0,1.0,25,144.0
496,B-3,124.0,1.0,25,144.0
497,F3,124.0,1.0,25,144.0
498,D4,125.0,1.0,23,144.0
499,B-3,125.0,1.0,23,144.0
500,F3,125.0,1.0,23,144.0
501,F4,126.0,0.25,55,144.0
502,F2,126.0,0.5,57,144.0
503,A4,126.75,0.25,58,144.0
504,C5,127.0,0.5,59,144.0
505,F3,127.0,1.0,43,144.0
506,E-4,127.0,1.0,43,144.0
507,E-5,127.5,0.5,60,144.0
508,D5,128.0,0.125,56,144.0
509,F3,128.0,1.0,41,144.0
510,A3,128.0,1.0,41,144.0
511,E-4,128.0,1.0,41,144.0
512,E-5,128.125,0.125,56,144.0
513,D5,128.25,0.25,61,144.0
514,C5,128.5,0.5,56,144.0
515,D5,129.0,0.25,64,144.0
516,B-2,129.0,0.5,57,144.0
517,F4,129.75,0.25,57,144.0
518,B-4,130.0,1.0,59,144.0
519,F3,130.0,1.0,42,144.0
520,B-3,130.0,1.0,42,144.0
521,D4,130.0,1.0,42,144.0
522,A4,131.0,0.5,44,144.0
523,B-4,131.5,0.5,44,144.0
524,C5,132.0,0.75,46,144.0
525,F2,132.0,1.0,37,144.0
526,D5,132.75,0.25,42,144.0
527,C5,133.0,1.0,46,144.0
528,C3,133.0,1.0,28,144.0
529,A3,133.0,1.0,28,144.0
530,E5,134.0,0.5,49,144.0
531,C3,134.0,1.0,31,144.0
532,A3,134.0,1.0,31,144.0
533,F5,134.5,0.5,51,144.0
534,G5,135.0,0.75,55,144.0
535,F2,135.0,1.0,42,144.0
536,A5,135.75,0.25,52,144.0
537,G5,136.0,1.0,56,144.0
538,D3,136.0,1.0,35,144.0
539,B-3,136.0,1.0,35,144.0
540,F5,137.0,0.5,52,144.0
541,D3,137.0,1.0,36,144.0
542,B-3,137.0,1.0,36,144.0
543,D5,137.5,0.5,49,144.0
544,C5,138.0,0.5,56,144.0
545,F2,138.0,1.0,42,144.0
546,D5,138.5,0.5,51,144.0
547,C5,139.0,1.0,56,144.0
548,C3,139.0,1.0,35,144.0
549,A3,139.0,1.0,35,144.0
550,E5,140.0,0.5,50,144.0
551,C3,140.0,1.0,35,144.0
552,A3,140.0,1.0,35,144.0
553,F5,140.75,0.25,55,144.0
554,G5,141.0,333/1000,59,144.0
555,F2,141.0,0.5,39,144.0
556,A5,141.333,333/1000,56,144.0
557,G5,141.667,333/1000,56,144.0
558,F5,142.0,1.5,53,144.0
559,D3,142.0,0.5,31,144.0
560,B-3,142.0,0.5,31,144.0
561,F2,143.0,0.5,34,144.0
562,D5,143.5,0.5,50,144.0
563,C5,144.0,0.5,51,144.0
564,C3,144.0,0.5,34,144.0
565,A3,144.0,0.5,34,144.0
566,D5,144.5,0.5,49,144.0
567,C5,145.0,1.0,51,144.0
568,F2,145.0,0.5,34,144.0
569,E5,146.0,0.5,49,144.0
570,C3,146.0,0.5,31,144.0
571,A3,146.0,0.5,31,144.0
572,F5,146.5,0.5,51,144.0
573,G5,147.0,0.5,55,144.0
574,F2,147.0,0.5,42,144.0
575,A5,147.5,0.5,52,144.0
576,G5,148.0,0.125,50,144.0
577,D3,148.0,0.5,35,144.0
578,B-3,148.0,0.5,35,144.0
579,A5,148.125,0.125,47,144.0
580,G5,148.25,0.125,52,144.0
581,A5,148.375,0.125,49,144.0
582,G5,148.5,0.125,56,144.0
583,A5,148.625,0.125,49,144.0
584,G5,148.75,0.125,51,144.0
585,A5,148.875,0.125,49,144.0
586,F5,149.0,0.5,52,144.0
587,F2,149.0,0.5,34,144.0
588,D5,149.5,0.5,49,144.0
589,C5,150.0,0.5,56,144.0
590,C3,150.0,0.5,35,144.0
591,A3,150.0,0.5,35,144.0
592,D5,150.5,0.5,51,144.0
593,C5,151.0,1.0,56,144.0
594,F2,151.0,0.5,34,144.0
595,E5,152.0,0.5,55,144.0
596,C3,152.0,1.0,38,144.0
597,A3,152.0,1.0,45,144.0
598,F5,152.5,0.5,59,144.0
599,G5,153.0,333/1000,64,144.0
600,C3,153.0,1.0,38,144.0
601,E3,153.0,1.0,42,144.0
602,B-3,153.0,1.0,42,144.0
603,A5,153.333,333/1000,61,144.0
604,G5,153.667,333/1000,61,144.0
605,F5,154.0,0.75,66,144.0
606,F3,154.0,1.0,42,144.0
607,A3,154.0,1.0,42,144.0
608,G4,154.75,0.25,62,144.0
609,F5,155.0,333/1000,68,144.0
610,F#4,155.333,333/1000,62,144.0
611,F5,155.667,1/5,69,144.0
612,F5,155.875,0.125,66,144.0
613,F4,156.0,0.5,70,144.0
614,F2,156.0,0.5,70,144.0
615,F4,156.75,0.25,66,144.0
616,G4,157.0,1.0,70,144.0
617,E-4,157.0,1.0,53,144.0
618,C4,157.0,1.0,53,144.0
619,F3,157.0,1.0,53,144.0
620,A4,158.0,1.0,70,144.0
621,E-4,158.0,1.0,54,144.0
622,C4,158.0,1.0,54,144.0
623,F3,158.0,1.0,54,144.0
624,B-4,159.0,0.5,71,144.0
625,B-2,159.0,0.5,70,144.0
626,C5,159.75,0.25,66,144.0
627,D5,160.0,1.0,70,144.0
628,D4,160.0,1.0,52,144.0
629,B-3,160.0,1.0,52,144.0
630,F3,160.0,1.0,52,144.0
631,E-5,161.0,0.5,75,144.0
632,B-2,161.0,0.5,62,144.0
633,F5,161.5,0.5,79,144.0
634,G5,162.0,0.25,83,144.0
635,E-2,162.0,0.812,74,144.0
636,E-3,162.0,0.812,74,144.0
637,A5,162.75,0.25,75,144.0
638,G3,162.812,1.188,59,144.0
639,B-3,162.875,1.125,59,144.0
640,E-4,162.938,1.062,59,144.0
641,B-5,163.0,0.125,76,144.0
642,G4,163.0,1.0,70,144.0
643,C6,163.125,0.125,67,144.0
644,B-5,163.25,0.125,73,144.0
645,C6,163.375,0.125,66,144.0
646,B-5,163.5,0.125,70,144.0
647,C6,163.625,0.125,64,144.0
648,B-5,163.75,0.125,70,144.0
649,C6,163.875,0.125,64,144.0
650,A5,164.0,0.5,70,144.0
651,G5,164.5,0.375,56,144.0
652,F5,164.875,0.125,51,144.0
653,B-5,165.0,0.25,60,144.0
654,B-2,165.0,0.5,48,144.0
655,B-5,165.75,0.25,55,144.0
656,D5,166.0,1.875,49,144.0
657,D4,166.0,1.0,28,144.0
658,B-3,166.0,1.0,28,144.0
659,F3,166.0,1.0,28,144.0
660,D4,167.0,1.0,26,144.0
661,B-3,167.0,1.0,26,144.0
662,F3,167.0,1.0,26,144.0
663,E-5,167.875,0.125,50,144.0
664,G5,168.0,0.25,58,144.0
665,F2,168.0,0.5,45,144.0
666,G5,168.75,0.25,51,144.0
667,A4,169.0,1.875,49,144.0
668,E-4,169.0,1.0,27,144.0
669,C4,169.0,1.0,27,144.0
670,F3,169.0,1.0,27,144.0
671,E-4,170.0,1.0,25,144.0
672,C4,170.0,1.0,25,144.0
673,F3,170.0,1.0,25,144.0
674,B-4,170.875,0.125,50,144.0
675,D5,171.0,0.25,56,144.0
676,B-2,171.0,0.5,48,144.0
677,D5,171.75,0.25,52,144.0
678,E4,172.0,2.0,49,144.0
679,D4,172.0,1.0,28,144.0
680,B-3,172.0,1.0,28,144.0
681,F3,172.0,1.0,28,144.0
682,D4,173.0,1.0,26,144.0
683,B-3,173.0,1.0,26,144.0
684,F3,173.0,1.0,26,144.0
685,F4,174.0,0.25,55,144.0
686,F2,174.0,0.5,57,144.0
687,A4,174.75,0.25,58,144.0
688,C5,175.0,0.5,59,144.0
689,F3,175.0,1.0,43,144.0
690,E-4,175.0,1.0,43,144.0
691,E-5,175.5,0.5,60,144.0
692,G5,176.0,0.75,67,144.0
693,F3,176.0,1.0,41,144.0
694,A3,176.0,1.0,41,144.0
695,E-4,176.0,1.0,41,144.0
696,F5,176.75,119/1000,63,144.0
697,F5,176.875,0.125,49,144.0
698,D6,177.0,0.25,67,144.0
699,B-2,177.0,0.5,51,144.0
700,C6,177.75,0.25,61,144.0
701,B-5,178.0,0.125,50,144.0
702,F3,178.0,1.0,33,144.0
703,B-3,178.0,1.0,33,144.0
704,D4,178.0,1.0,33,144.0
705,C6,178.125,0.125,49,144.0
706,B-5,178.25,0.25,57,144.0
707,G5,178.5,0.5,52,144.0
708,F5,179.0,1.0,49,144.0
709,F3,179.0,1.0,33,144.0
710,B-3,179.0,1.0,33,144.0
711,D4,179.0,1.0,33,144.0
712,G5,179.875,0.125,45,144.0
713,B-5,180.0,0.25,51,144.0
714,B-2,180.0,0.5,40,144.0
715,B-5,180.75,0.25,46,144.0
716,A4,181.0,1.75,44,144.0
717,E-4,181.0,1.0,24,144.0
718,C4,181.0,1.0,24,144.0
719,F3,181.0,1.0,24,144.0
720,E-4,182.0,1.0,22,144.0
721,C4,182.0,1.0,22,144.0
722,F3,182.0,1.0,22,144.0
723,B-4,182.75,0.125,42,144.0
724,D5,182.875,0.125,41,144.0
725,F5,183.0,0.25,49,144.0
726,B-2,183.0,0.5,43,144.0
727,F5,183.75,0.25,47,144.0
728,E4,184.0,2.0,44,144.0
729,D4,184.0,1.0,25,144.0
730,B-3,184.0,1.0,25,144.0
731,F3,184.0,1.0,25,144.0
732,D4,185.0,1.0,23,144.0
733,B-3,185.0,1.0,23,144.0
734,F3,185.0,1.0,23,144.0
735,F4,186.0,0.25,55,144.0
736,F2,186.0,0.5,57,144.0
737,A4,186.75,0.25,58,144.0
738,C5,187.0,0.5,59,144.0
739,F3,187.0,1.0,43,144.0
740,E-4,187.0,1.0,43,144.0
741,E-5,187.5,0.5,60,144.0
742,D5,188.0,0.125,56,144.0
743,F3,188.0,1.0,41,144.0
744,A3,188.0,1.0,41,144.0
745,E-4,188.0,1.0,41,144.0
746,E-5,188.125,0.125,56,144.0
747,D5,188.25,0.25,61,144.0
748,C5,188.5,0.5,56,144.0
749,D5,189.0,0.25,64,144.0
750,B-2,189.0,0.5,57,144.0
751,F4,189.75,0.25,57,144.0
752,B-4,190.0,1.0,59,144.0
753,F3,190.0,1.0,42,144.0
754,B-3,190.0,1.0,42,144.0
755,D4,190.0,1.0,42,144.0
756,B-2,191.0,1.0,49,144.0
757,F5,192.0,0.25,46,144.0
758,F#2,192.0,1.0,24,144.0
759,C#3,192.0,1.0,24,144.0
760,F5,192.75,0.25,37,144.0
761,E5,193.0,1.0,41,144.0
762,F#2,193.0,1.0,22,144.0
763,C#3,193.0,1.0,22,144.0
764,C#5,194.0,0.5,37,144.0
765,F#2,194.0,1.0,22,144.0
766,C#3,194.0,1.0,22,144.0
767,C5,194.5,0.5,37,144.0
768,B-4,195.0,0.5,42,144.0
769,F#2,195.0,1.0,24,144.0
770,C#3,195.0,1.0,24,144.0
771,C#5,195.75,0.25,37,144.0
772,C5,196.0,0.125,37,144.0
773,F#2,196.0,1.0,22,144.0
774,C#3,196.0,1.0,22,144.0
775,C#5,196.125,0.125,37,144.0
776,C5,196.25,0.75,40,144.0
777,B-4,197.0,0.5,37,144.0
778,F#2,197.0,1.0,22,144.0
779,C#3,197.0,1.0,22,144.0
780,E4,197.75,0.25,41,144.0
781,F5,198.0,0.25,46,144.0
782,F#2,198.0,1.0,24,144.0
783,C#3,198.0,1.0,24,144.0
784,F5,198.75,0.25,37,144.0
785,E5,199.0,1.0,41,144.0
786,F#2,199.0,1.0,22,144.0
787,C#3,199.0,1.0,22,144.0
788,C#5,200.0,0.5,37,144.0
789,F#2,200.0,1.0,22,144.0
790,C#3,200.0,1.0,22,144.0
791,C5,200.5,0.5,37,144.0
792,B-4,201.0,333/1000,45,144.0
793,F#2,201.0,1.0,24,144.0
794,C#3,201.0,1.0,24,144.0
795,C5,201.333,333/1000,40,144.0
796,B-4,201.667,333/1000,39,144.0
797,E4,202.0,2.0,42,144.0
798,F#2,202.0,1.0,22,144.0
799,C#3,202.0,1.0,22,144.0
800,F#2,203.0,1.0,22,144.0
801,C#3,203.0,1.0,22,144.0
802,F5,204.0,0.25,46,144.0
803,F#2,204.0,1.0,24,144.0
804,C#3,204.0,1.0,24,144.0
805,F5,204.75,0.25,37,144.0
806,E5,205.0,1.0,41,144.0
807,F#2,205.0,1.0,22,144.0
808,C#3,205.0,1.0,22,144.0
809,C#5,206.0,0.5,37,144.0
810,F#2,206.0,1.0,22,144.0
811,C#3,206.0,1.0,22,144.0
812,C5,206.5,0.5,37,144.0
813,B-4,207.0,0.5,42,144.0
814,F#2,207.0,1.0,24,144.0
815,C#3,207.0,1.0,24,144.0
816,C#5,207.75,0.25,37,144.0
817,C5,208.0,0.125,37,144.0
818,F#2,208.0,1.0,22,144.0
819,C#3,208.0,1.0,22,144.0
820,C#5,208.125,0.125,33,144.0
821,C5,208.25,0.125,37,144.0
822,C#5,208.375,0.125,35,144.0
823,C5,208.5,0.125,37,144.0
824,C#5,208.625,0.125,34,144.0
825,C5,208.75,0.125,37,144.0
826,C#5,208.875,0.125,37,144.0
827,B-4,209.0,0.5,37,144.0
828,F#2,209.0,1.0,22,144.0
829,C#3,209.0,1.0,22,144.0
830,E4,209.75,0.25,41,144.0
831,F5,210.0,0.25,46,144.0
832,F#2,210.0,1.0,24,144.0
833,C#3,210.0,1.0,24,144.0
834,F5,210.75,0.25,37,144.0
835,E5,211.0,1.0,41,144.0
836,F#2,211.0,1.0,22,144.0
837,C#3,211.0,1.0,22,144.0
838,C#5,212.0,0.75,37,144.0
839,F#2,212.0,1.0,22,144.0
840,C#3,212.0,1.0,22,144.0
841,C5,212.75,0.25,37,144.0
842,B-4,213.0,333/1000,45,144.0
843,F2,213.0,3.0,22,144.0
844,C#3,213.0,1.0,26,144.0
845,C5,213.333,333/1000,40,144.0
846,B-4,213.667,333/1000,39,144.0
847,A4,214.0,1.5,42,144.0
848,C3,214.0,2.0,23,144.0
849,G4,215.5,0.5,53,144.0
850,F4,216.0,0.5,70,144.0
851,F2,216.0,0.5,70,144.0
852,F4,216.75,0.25,66,144.0
853,G4,217.0,1.0,70,144.0
854,E-4,217.0,1.0,53,144.0
855,C4,217.0,1.0,53,144.0
856,F3,217.0,1.0,53,144.0
857,A4,218.0,1.0,70,144.0
858,E-4,218.0,1.0,54,144.0
859,C4,218.0,1.0,54,144.0
860,F3,218.0,1.0,54,144.0
861,B-4,219.0,0.5,71,144.0
862,B-2,219.0,0.5,70,144.0
863,C5,219.75,0.25,66,144.0
864,D5,220.0,1.0,70,144.0
865,D4,220.0,1.0,52,144.0
866,B-3,220.0,1.0,52,144.0
867,F3,220.0,1.0,52,144.0
868,E-5,221.0,0.5,75,144.0
869,B-2,221.0,0.5,62,144.0
870,F5,221.5,0.5,79,144.0
871,G5,222.0,0.25,83,144.0
872,E-2,222.0,0.812,74,144.0
873,E-3,222.0,0.812,74,144.0
874,A5,222.75,0.25,75,144.0
875,G3,222.812,1.188,59,144.0
876,B-3,222.875,1.125,59,144.0
877,E-4,222.938,1.062,59,144.0
878,B-5,223.0,0.125,76,144.0
879,G4,223.0,1.0,70,144.0
880,C6,223.125,0.125,67,144.0
881,B-5,223.25,0.125,73,144.0
882,C6,223.375,0.125,66,144.0
883,B-5,223.5,0.125,70,144.0
884,C6,223.625,0.125,64,144.0
885,B-5,223.75,0.125,70,144.0
886,C6,223.875,0.125,64,144.0
887,A5,224.0,0.5,70,144.0
888,G5,224.5,0.375,56,144.0
889,F5,224.875,0.125,51,144.0
890,B-5,225.0,0.25,60,144.0
891,B-2,225.0,0.5,48,144.0
892,B-5,225.75,0.25,55,144.0
893,D5,226.0,1.875,49,144.0
894,D4,226.0,1.0,28,144.0
895,B-3,226.0,1.0,28,144.0
896,F3,226.0,1.0,28,144.0
897,D4,227.0,1.0,26,144.0
898,B-3,227.0,1.0,26,144.0
899,F3,227.0,1.0,26,144.0
900,E-5,227.875,0.125,50,144.0
901,G5,228.0,0.25,58,144.0
902,F2,228.0,0.5,45,144.0
903,G5,228.75,0.25,51,144.0
904,A4,229.0,1.875,49,144.0
905,E-4,229.0,1.0,27,144.0
906,C4,229.0,1.0,27,144.0
907,F3,229.0,1.0,27,144.0
908,E-4,230.0,1.0,25,144.0
909,C4,230.0,1.0,25,144.0
910,F3,230.0,1.0,25,144.0
911,B-4,230.875,0.125,50,144.0
912,D5,231.0,0.25,56,144.0
913,B-2,231.0,0.5,48,144.0
914,D5,231.75,0.25,52,144.0
915,E4,232.0,2.0,49,144.0
916,D4,232.0,1.0,28,144.0
917,B-3,232.0,1.0,28,144.0
918,F3,232.0,1.0,28,144.0
919,D4,233.0,1.0,26,144.0
920,B-3,233.0,1.0,26,144.0
921,F3,233.0,1.0,26,144.0
922,F4,234.0,0.25,55,144.0
923,F2,234.0,0.5,57,144.0
924,A4,234.75,0.25,58,144.0
925,C5,235.0,0.5,59,144.0
926,F3,235.0,1.0,43,144.0
927,E-4,235.0,1.0,43,144.0
928,E-5,235.5,0.5,60,144.0
929,G5,236.0,0.75,67,144.0
930,F3,236.0,1.0,41,144.0
931,A3,236.0,1.0,41,144.0
932,E-4,236.0,1.0,41,144.0
933,F5,236.75,121/1000,63,144.0
934,F5,236.875,0.125,55,144.0
935,D6,237.0,0.25,75,144.0
936,B-2,237.0,0.5,57,144.0
937,C6,237.75,0.25,68,144.0
938,B-5,238.0,0.125,56,144.0
939,F3,238.0,1.0,42,144.0
940,B-3,238.0,1.0,42,144.0
941,D4,238.0,1.0,42,144.0
942,C6,238.125,0.125,55,144.0
943,B-5,238.25,0.25,64,144.0
944,G5,238.5,0.5,58,144.0
945,F5,239.0,1.0,55,144.0
946,F3,239.0,1.0,41,144.0
947,B-3,239.0,1.0,41,144.0
948,D4,239.0,1.0,41,144.0
949,G5,239.875,0.125,45,144.0
950,B-5,240.0,0.25,51,144.0
951,B-2,240.0,0.5,40,144.0
952,B-5,240.75,0.25,46,144.0
953,A4,241.0,1.75,44,144.0
954,E-4,241.0,1.0,24,144.0
955,C4,241.0,1.0,24,144.0
956,F3,241.0,1.0,24,144.0
957,E-4,242.0,1.0,22,144.0
958,C4,242.0,1.0,22,144.0
959,F3,242.0,1.0,22,144.0
960,B-4,242.75,0.125,42,144.0
961,D5,242.875,0.125,41,144.0
962,F5,243.0,0.25,49,144.0
963,B-2,243.0,0.5,43,144.0
964,F5,243.75,0.25,47,144.0
965,E4,244.0,2.0,44,144.0
966,D4,244.0,1.0,25,144.0
967,B-3,244.0,1.0,25,144.0
968,F3,244.0,1.0,25,144.0
969,D4,245.0,1.0,23,144.0
970,B-3,245.0,1.0,23,144.0
971,F3,245.0,1.0,23,144.0
972,F4,246.0,0.25,55,144.0
973,F2,246.0,0.5,57,144.0
974,A4,246.75,0.25,58,144.0
975,C5,247.0,0.5,59,144.0
976,F3,247.0,1.0,43,144.0
977,E-4,247.0,1.0,43,144.0
978,E-5,247.5,0.5,60,144.0
979,D5,248.0,0.125,56,144.0
980,F3,248.0,1.0,41,144.0
981,A3,248.0,1.0,41,144.0
982,E-4,248.0,1.0,41,144.0
983,E-5,248.125,0.125,56,144.0
984,D5,248.25,0.5,61,144.0
985,C5,248.75,0.25,56,144.0
986,D5,249.0,0.25,64,144.0
987,B-2,249.0,0.5,57,144.0
988,F4,249.75,0.25,57,144.0
989,B-4,250.0,1.0,59,144.0
990,F3,250.0,1.0,42,144.0
991,B-3,250.0,1.0,42,144.0
992,D4,250.0,1.0,42,144.0
993,B-2,251.0,1.0,48,144.0
994,F5,252.0,0.25,46,144.0
995,F#2,252.0,1.0,24,144.0
996,C#3,252.0,1.0,24,144.0
997,F5,252.75,0.25,37,144.0
998,E5,253.0,1.0,41,144.0
999,F#2,253.0,1.0,22,144.0
1000,C#3,253.0,1.0,22,144.0
1001,C#5,254.0,0.5,37,144.0
1002,F#2,254.0,1.0,22,144.0
1003,C#3,254.0,1.0,22,144.0
1004,C5,254.5,0.5,37,144.0
1005,B-4,255.0,0.5,42,144.0
1006,F#2,255.0,1.0,24,144.0
1007,C#3,255.0,1.0,24,144.0
1008,C#5,255.75,0.25,37,144.0
1009,C5,256.0,0.125,37,144.0
1010,F#2,256.0,1.0,22,144.0
1011,C#3,256.0,1.0,22,144.0
1012,C#5,256.125,0.125,37,144.0
1013,C5,256.25,0.75,40,144.0
1014,B-4,257.0,0.5,37,144.0
1015,F#2,257.0,1.0,22,144.0
1016,C#3,257.0,1.0,22,144.0
1017,E4,257.75,0.25,41,144.0
1018,F5,258.0,0.25,46,144.0
1019,F#2,258.0,1.0,24,144.0
1020,C#3,258.0,1.0,24,144.0
1021,F5,258.75,0.25,37,144.0
1022,E5,259.0,1.0,41,144.0
1023,F#2,259.0,1.0,22,144.0
1024,C#3,259.0,1.0,22,144.0
1025,C#5,260.0,0.5,37,144.0
1026,F#2,260.0,1.0,22,144.0
1027,C#3,260.0,1.0,22,144.0
1028,C5,260.5,0.5,37,144.0
1029,B-4,261.0,333/1000,45,144.0
1030,F#2,261.0,1.0,24,144.0
1031,C#3,261.0,1.0,24,144.0
1032,C5,261.333,333/1000,40,144.0
1033,B-4,261.667,333/1000,39,144.0
1034,E4,262.0,2.0,42,144.0
1035,F#2,262.0,1.0,22,144.0
1036,C#3,262.0,1.0,22,144.0
1037,F#2,263.0,1.0,22,144.0
1038,C#3,263.0,1.0,22,144.0
1039,F5,264.0,0.25,46,144.0
1040,F#2,264.0,1.0,24,144.0
1041,C#3,264.0,1.0,24,144.0
1042,F5,264.75,0.25,37,144.0
1043,E5,265.0,1.0,41,144.0
1044,F#2,265.0,1.0,22,144.0
1045,C#3,265.0,1.0,22,144.0
1046,C#5,266.0,0.5,37,144.0
1047,F#2,266.0,1.0,22,144.0
1048,C#3,266.0,1.0,22,144.0
1049,C5,266.5,0.5,37,144.0
1050,B-4,267.0,0.5,42,144.0
1051,F#2,267.0,1.0,24,144.0
1052,C#3,267.0,1.0,24,144.0
1053,C#5,267.75,0.25,37,144.0
1054,C5,268.0,0.125,37,144.0
1055,F#2,268.0,1.0,22,144.0
1056,C#3,268.0,1.0,22,144.0
1057,C#5,268.125,0.125,33,144.0
1058,C5,268.25,0.125,37,144.0
1059,C#5,268.375,0.125,35,144.0
1060,C5,268.5,0.125,37,144.0
1061,C#5,268.625,0.125,34,144.0
1062,C5,268.75,0.125,37,144.0
1063,C#5,268.875,0.125,37,144.0
1064,B-4,269.0,0.5,37,144.0
1065,F#2,269.0,1.0,22,144.0
1066,C#3,269.0,1.0,22,144.0
1067,E4,269.75,0.25,41,144.0
1068,F5,270.0,0.25,46,144.0
1069,F#2,270.0,1.0,24,144.0
1070,C#3,270.0,1.0,24,144.0
1071,F5,270.75,0.25,37,144.0
1072,E5,271.0,1.0,41,144.0
1073,F#2,271.0,1.0,22,144.0
1074,C#3,271.0,1.0,22,144.0
1075,C#5,272.0,0.75,37,144.0
1076,F#2,272.0,1.0,22,144.0
1077,C#3,272.0,1.0,22,144.0
1078,C5,272.75,0.25,37,144.0
1079,B-4,273.0,333/1000,45,144.0
1080,F2,273.0,3.0,22,144.0
1081,C#3,273.0,1.0,26,144.0
1082,C5,273.333,333/1000,40,144.0
1083,B-4,273.667,333/1000,39,144.0
1084,A4,274.0,1.5,42,144.0
1085,C3,274.0,2.0,23,144.0
1086,G4,275.5,0.5,53,144.0
1087,F4,276.0,0.5,70,144.0
1088,F2,276.0,0.5,70,144.0
1089,F4,276.75,0.25,66,144.0
1090,G4,277.0,1.0,70,144.0
1091,E-4,277.0,1.0,53,144.0
1092,C4,277.0,1.0,53,144.0
1093,F3,277.0,1.0,53,144.0
1094,A4,278.0,1.0,70,144.0
1095,E-4,278.0,1.0,54,144.0
1096,C4,278.0,1.0,54,144.0
1097,F3,278.0,1.0,54,144.0
1098,B-4,279.0,0.5,71,144.0
1099,B-2,279.0,0.5,70,144.0
1100,C5,279.75,0.25,66,144.0
1101,D5,280.0,1.0,70,144.0
1102,D4,280.0,1.0,52,144.0
1103,B-3,280.0,1.0,52,144.0
1104,F3,280.0,1.0,52,144.0
1105,E-5,281.0,0.5,75,144.0
1106,B-2,281.0,0.5,62,144.0
1107,F5,281.5,0.5,79,144.0
1108,G5,282.0,0.25,83,144.0
1109,E-2,282.0,0.812,74,144.0
1110,E-3,282.0,0.812,74,144.0
1111,A5,282.75,0.25,75,144.0
1112,G3,282.812,1.188,59,144.0
1113,B-3,282.875,1.125,59,144.0
1114,E-4,282.938,1.062,59,144.0
1115,B-5,283.0,0.125,76,144.0
1116,G4,283.0,1.0,70,144.0
1117,C6,283.125,0.125,67,144.0
1118,B-5,283.25,0.125,73,144.0
1119,C6,283.375,0.125,66,144.0
1120,B-5,283.5,0.125,70,144.0
1121,C6,283.625,0.125,64,144.0
1122,B-5,283.75,0.125,70,144.0
1123,C6,283.875,0.125,64,144.0
1124,A5,284.0,0.5,70,144.0
1125,G5,284.5,0.375,56,144.0
1126,F5,284.875,0.125,51,144.0
1127,B-5,285.0,0.25,60,144.0
1128,B-2,285.0,0.5,48,144.0
1129,B-5,285.75,0.25,55,144.0
1130,D5,286.0,1.875,49,144.0
1131,D4,286.0,1.0,28,144.0
1132,B-3,286.0,1.0,28,144.0
1133,F3,286.0,1.0,28,144.0
1134,D4,287.0,1.0,26,144.0
1135,B-3,287.0,1.0,26,144.0
1136,F3,287.0,1.0,26,144.0
1137,E-5,287.875,0.125,50,144.0
1138,G5,288.0,0.25,58,144.0
1139,F2,288.0,0.5,45,144.0
1140,G5,288.75,0.25,51,144.0
1141,A4,289.0,1.875,49,144.0
1142,E-4,289.0,1.0,27,144.0
1143,C4,289.0,1.0,27,144.0
1144,F3,289.0,1.0,27,144.0
1145,E-4,290.0,1.0,25,144.0
1146,C4,290.0,1.0,25,144.0
1147,F3,290.0,1.0,25,144.0
1148,B-4,290.875,0.125,50,144.0
1149,D5,291.0,0.25,56,144.0
1150,B-2,291.0,0.5,48,144.0
1151,D5,291.75,0.25,52,144.0
1152,E4,292.0,2.0,49,144.0
1153,D4,292.0,1.0,28,144.0
1154,B-3,292.0,1.0,28,144.0
1155,F3,292.0,1.0,28,144.0
1156,D4,293.0,1.0,26,144.0
1157,B-3,293.0,1.0,26,144.0
1158,F3,293.0,1.0,26,144.0
1159,F4,294.0,0.25,55,144.0
1160,F2,294.0,0.5,57,144.0
1161,A4,294.75,0.25,58,144.0
1162,C5,295.0,0.5,59,144.0
1163,F3,295.0,1.0,43,144.0
1164,E-4,295.0,1.0,43,144.0
1165,E-5,295.5,0.5,60,144.0
1166,G5,296.0,0.75,67,144.0
1167,F3,296.0,1.0,41,144.0
1168,A3,296.0,1.0,41,144.0
1169,E-4,296.0,1.0,41,144.0
1170,F5,296.75,0.125,63,144.0
1171,F5,296.875,0.125,49,144.0
1172,D6,297.0,0.25,67,144.0
1173,B-2,297.0,0.5,51,144.0
1174,C6,297.75,0.25,61,144.0
1175,B-5,298.0,0.125,50,144.0
1176,F3,298.0,1.0,33,144.0
1177,B-3,298.0,1.0,33,144.0
1178,D4,298.0,1.0,33,144.0
1179,C6,298.125,0.125,49,144.0
1180,B-5,298.25,0.25,57,144.0
1181,G5,298.5,0.5,52,144.0
1182,F5,299.0,1.0,49,144.0
1183,F3,299.0,1.0,33,144.0
1184,B-3,299.0,1.0,33,144.0
1185,D4,299.0,1.0,33,144.0
1186,G5,299.875,0.125,45,144.0
1187,B-5,300.0,0.25,51,144.0
1188,B-2,300.0,0.5,40,144.0
1189,B-5,300.75,0.25,46,144.0
1190,A4,301.0,1.75,44,144.0
1191,E-4,301.0,1.0,24,144.0
1192,C4,301.0,1.0,24,144.0
1193,F3,301.0,1.0,24,144.0
1194,E-4,302.0,1.0,22,144.0
1195,C4,302.0,1.0,22,144.0
1196,F3,302.0,1.0,22,144.0
1197,B-4,302.75,0.125,42,144.0
1198,D5,302.875,0.125,41,144.0
1199,F5,303.0,0.25,49,144.0
1200,B-2,303.0,0.5,43,144.0
1201,F5,303.75,0.25,47,144.0
1202,E4,304.0,2.0,44,144.0
1203,D4,304.0,1.0,25,144.0
1204,B-3,304.0,1.0,25,144.0
1205,F3,304.0,1.0,25,144.0
1206,D4,305.0,1.0,23,144.0
1207,B-3,305.0,1.0,23,144.0
1208,F3,305.0,1.0,23,144.0
1209,F4,306.0,0.25,55,144.0
1210,F2,306.0,0.5,57,144.0
1211,A4,306.75,0.25,60,144.0
1212,C5,307.0,0.5,62,144.0
1213,F3,307.0,1.0,45,144.0
1214,E-4,307.0,1.0,45,144.0
1215,E-5,307.5,0.5,66,144.0
1216,D5,308.0,0.125,63,144.0
1217,F3,308.0,1.0,46,144.0
1218,A3,308.0,1.0,46,144.0
1219,E-4,308.0,1.0,46,144.0
1220,E-5,308.125,0.125,63,144.0
1221,D5,308.25,0.5,70,144.0
1222,C5,308.75,0.25,64,144.0
1223,D5,309.0,0.5,76,144.0
1224,B-2,309.0,1.0,68,144.0
1225,F4,309.5,0.5,68,144.0
1226,B-4,310.0,2.0,69,144.0
1227,B-5,310.0,2.0,69,144.0
1228,B-2,310.0,2.0,49,144.0
1229,F3,310.0,2.0,49,144.0
1230,D4,310.0,2.0,49,144.0
