,note_name,start_time,duration,velocity,tempo
0,C2,0.0,4.0,86,174.0
1,C3,0.0,0.5,103,174.0
2,C3,0.25,3.75,77,174.0
3,G3,0.5,0.25,80,174.0
4,C4,0.75,0.25,77,174.0
5,E4,1.0,0.25,90,174.0
6,C4,1.25,0.25,77,174.0
7,G4,1.5,0.25,80,174.0
8,C5,1.75,0.25,78,174.0
9,E5,2.0,0.25,93,174.0
10,C5,2.25,0.25,79,174.0
11,G5,2.5,0.25,82,174.0
12,C6,2.75,0.25,80,174.0
13,E6,3.0,0.25,93,174.0
14,C6,3.25,0.25,80,174.0
15,G6,3.5,0.25,83,174.0
16,C7,3.75,0.25,81,174.0
17,E7,4.0,0.25,95,174.0
18,C2,4.0,4.0,86,174.0
19,C3,4.0,4.0,77,174.0
20,C7,4.25,0.25,80,174.0
21,G6,4.5,0.25,84,174.0
22,C6,4.75,0.25,80,174.0
23,E6,5.0,0.25,94,174.0
24,C6,5.25,0.25,80,174.0
25,G5,5.5,0.25,83,174.0
26,C5,5.75,0.25,79,174.0
27,E5,6.0,0.25,93,174.0
28,C5,6.25,0.25,79,174.0
29,G4,6.5,0.25,81,174.0
30,C4,6.75,0.25,78,174.0
31,E4,7.0,0.25,92,174.0
32,C4,7.25,0.25,76,174.0
33,G3,7.5,0.25,80,174.0
34,C3,7.75,0.25,77,174.0
35,F1,8.0,4.0,96,174.0
36,F2,8.0,4.0,96,174.0
37,C3,8.25,0.25,80,174.0
38,A3,8.5,0.25,80,174.0
39,C4,8.75,0.25,77,174.0
40,F4,9.0,0.25,91,174.0
41,C4,9.25,0.25,77,174.0
42,A4,9.5,0.25,80,174.0
43,C5,9.75,0.25,78,174.0
44,F5,10.0,0.25,93,174.0
45,C5,10.25,0.25,78,174.0
46,A5,10.5,0.25,82,174.0
47,C6,10.75,0.25,80,174.0
48,F6,11.0,0.25,94,174.0
49,C6,11.25,0.25,81,174.0
50,A6,11.5,0.25,83,174.0
51,C7,11.75,0.25,80,174.0
52,E7,12.0,0.25,96,174.0
53,F#1,12.0,4.0,93,174.0
54,F#2,12.0,4.0,93,174.0
55,C7,12.25,0.25,80,174.0
56,A6,12.5,0.25,84,174.0
57,C6,12.75,0.25,80,174.0
58,E6,13.0,0.25,95,174.0
59,C6,13.25,0.25,80,174.0
60,A5,13.5,0.25,83,174.0
61,C5,13.75,0.25,79,174.0
62,E5,14.0,0.25,93,174.0
63,C5,14.25,0.25,78,174.0
64,A4,14.5,0.25,81,174.0
65,C4,14.75,0.25,77,174.0
66,D4,15.0,0.25,92,174.0
67,C4,15.25,0.25,76,174.0
68,A3,15.5,0.25,80,174.0
69,C3,15.75,0.25,77,174.0
70,G1,16.0,2.0,93,174.0
71,G2,16.0,2.0,93,174.0
72,B2,16.25,0.25,80,174.0
73,G3,16.5,0.25,77,174.0
74,B3,16.75,0.25,80,174.0
75,D4,17.0,0.25,90,174.0
76,B3,17.25,0.25,77,174.0
77,G4,17.5,0.25,80,174.0
78,B4,17.75,0.25,78,174.0
79,D5,18.0,0.25,93,174.0
80,F#1,18.0,1.0,94,174.0
81,F#2,18.0,1.0,94,174.0
82,B4,18.25,0.25,79,174.0
83,G5,18.5,0.25,82,174.0
84,B5,18.75,0.25,80,174.0
85,D6,19.0,0.25,94,174.0
86,E1,19.0,1.0,90,174.0
87,E2,19.0,1.0,90,174.0
88,B5,19.25,0.25,80,174.0
89,G6,19.5,0.25,83,174.0
90,A6,19.75,0.25,79,174.0
91,D7,20.0,0.25,97,174.0
92,D1,20.0,4.0,94,174.0
93,D2,20.0,4.0,94,174.0
94,A6,20.25,0.25,80,174.0
95,F#6,20.5,0.25,84,174.0
96,C6,20.75,0.25,80,174.0
97,D6,21.0,0.25,95,174.0
98,A5,21.25,0.25,80,174.0
99,F#5,21.5,0.25,82,174.0
100,C5,21.75,0.25,79,174.0
101,D5,22.0,0.25,94,174.0
102,A4,22.25,0.25,77,174.0
103,F#4,22.5,0.25,81,174.0
104,C4,22.75,0.25,77,174.0
105,D4,23.0,0.25,80,174.0
106,A3,23.25,0.25,80,174.0
107,F#3,23.5,0.25,80,174.0
108,C3,23.75,0.25,80,174.0
109,G1,24.0,4.0,93,174.0
110,G2,24.0,4.0,93,174.0
111,C3,24.25,0.25,77,174.0
112,F3,24.5,0.25,80,174.0
113,G#3,24.75,0.25,77,174.0
114,D4,25.0,0.25,91,174.0
115,C4,25.25,0.25,76,174.0
116,F4,25.5,0.25,80,174.0
117,G#4,25.75,0.25,77,174.0
118,D5,26.0,0.25,92,174.0
119,C5,26.25,0.25,78,174.0
120,F5,26.5,0.25,82,174.0
121,G#5,26.75,0.25,79,174.0
122,D6,27.0,0.25,93,174.0
123,C6,27.25,0.25,80,174.0
124,F6,27.5,0.25,83,174.0
125,G#6,27.75,0.25,80,174.0
126,D7,28.0,0.25,95,174.0
127,G6,28.25,0.25,79,174.0
128,F6,28.5,0.25,84,174.0
129,B5,28.75,0.25,79,174.0
130,D6,29.0,0.25,94,174.0
131,G5,29.25,0.25,79,174.0
132,F5,29.5,0.25,83,174.0
133,B4,29.75,0.25,78,174.0
134,D5,30.0,0.25,93,174.0
135,G4,30.25,0.25,77,174.0
136,F4,30.5,0.25,81,174.0
137,B3,30.75,0.25,77,174.0
138,E-4,31.0,0.25,95,174.0
139,G1,32.0,4.0,93,174.0
140,G2,32.0,4.0,93,174.0
141,E4,33.0,0.25,85,174.0
142,C4,33.25,0.25,76,174.0
143,G4,33.5,0.25,80,174.0
144,C5,33.75,0.25,78,174.0
145,E5,34.0,0.25,89,174.0
146,C5,34.25,0.25,78,174.0
147,G5,34.5,0.25,82,174.0
148,C6,34.75,0.25,79,174.0
149,E6,35.0,0.25,90,174.0
150,C6,35.25,0.25,80,174.0
151,G3,35.25,0.25,77,174.0
152,G6,35.5,0.25,83,174.0
153,F3,35.5,0.25,80,174.0
154,C7,35.75,0.25,80,174.0
155,B2,35.75,0.25,77,174.0
156,E7,36.0,0.25,92,174.0
157,C2,36.0,4.0,85,174.0
158,C3,36.0,0.5,101,174.0
159,C7,36.25,0.25,80,174.0
160,C3,36.25,3.75,76,174.0
161,G6,36.5,0.25,84,174.0
162,G3,36.5,0.25,80,174.0
163,C6,36.75,0.25,80,174.0
164,C4,36.75,0.25,76,174.0
165,E6,37.0,0.25,92,174.0
166,C6,37.25,0.25,81,174.0
167,G5,37.5,0.25,83,174.0
168,C5,37.75,0.25,79,174.0
169,E5,38.0,0.25,90,174.0
170,C5,38.25,0.25,78,174.0
171,G4,38.5,0.25,81,174.0
172,C4,38.75,0.25,77,174.0
173,E4,39.0,0.25,89,174.0
174,C4,39.25,0.25,77,174.0
175,C2,40.0,4.0,85,174.0
176,C3,40.0,4.0,76,174.0
177,F4,41.0,0.25,87,174.0
178,C4,41.25,0.25,76,174.0
179,F4,41.5,0.25,80,174.0
180,C5,41.75,0.25,77,174.0
181,F5,42.0,0.25,89,174.0
182,C5,42.25,0.25,77,174.0
183,F5,42.5,0.25,82,174.0
184,C6,42.75,0.25,79,174.0
185,F6,43.0,0.25,92,174.0
186,C6,43.25,0.25,80,174.0
187,F6,43.5,0.25,83,174.0
188,G3,43.5,0.25,80,174.0
189,C7,43.75,0.25,80,174.0
190,C3,43.75,0.25,77,174.0
191,E7,44.0,0.25,93,174.0
192,A1,44.0,4.0,94,174.0
193,A2,44.0,4.0,94,174.0
194,C7,44.25,0.25,80,174.0
195,C3,44.25,0.25,77,174.0
196,F#6,44.5,0.25,84,174.0
197,F3,44.5,0.25,80,174.0
198,C6,44.75,0.25,79,174.0
199,C4,44.75,0.25,77,174.0
200,E6,45.0,0.25,93,174.0
201,C6,45.25,0.25,80,174.0
202,F#5,45.5,0.25,83,174.0
203,C5,45.75,0.25,79,174.0
204,E5,46.0,0.25,90,174.0
205,C5,46.25,0.25,79,174.0
206,F#4,46.5,0.25,81,174.0
207,C4,46.75,0.25,78,174.0
208,E4,47.0,0.25,89,174.0
209,C4,47.25,0.25,77,174.0
210,D4,49.0,0.25,81,174.0
211,C4,49.25,0.25,73,174.0
212,G4,49.5,0.25,76,174.0
213,C5,49.75,0.25,74,174.0
214,D5,50.0,0.25,86,174.0
215,C5,50.25,0.25,74,174.0
216,G5,50.5,0.25,77,174.0
217,C6,50.75,0.25,75,174.0
218,D6,51.0,0.25,88,174.0
219,C6,51.25,0.25,76,174.0
220,G6,51.5,0.25,78,174.0
221,C7,51.75,0.25,76,174.0
222,D7,52.0,0.25,89,174.0
223,A1,52.0,4.0,94,174.0
224,A2,52.0,4.0,94,174.0
225,B6,52.25,0.25,76,174.0
226,G6,52.5,0.25,79,174.0
227,B5,52.75,0.25,75,174.0
228,D6,53.0,0.25,87,174.0
229,B5,53.25,0.25,75,174.0
230,G5,53.5,0.25,78,174.0
231,B4,53.75,0.25,74,174.0
232,D5,54.0,0.25,86,174.0
233,B4,54.25,0.25,75,174.0
234,G4,54.5,0.25,76,174.0
235,B3,54.75,0.25,74,174.0
236,D4,55.0,0.25,83,174.0
237,B3,55.25,0.25,73,174.0
238,F#3,55.5,0.25,80,174.0
239,C3,55.75,0.25,77,174.0
240,G1,56.0,4.0,88,174.0
241,G2,56.0,4.0,88,174.0
242,C3,56.25,0.25,73,174.0
243,G3,56.5,0.25,76,174.0
244,C4,56.75,0.25,74,174.0
245,E4,57.0,0.25,77,174.0
246,D4,57.25,0.25,70,174.0
247,G4,57.5,0.25,75,174.0
248,D5,57.75,0.25,72,174.0
249,E5,58.0,0.25,77,174.0
250,D5,58.25,0.25,72,174.0
251,G5,58.5,0.25,74,174.0
252,D6,58.75,0.25,72,174.0
253,E6,59.0,0.25,80,174.0
254,D6,59.25,0.25,72,174.0
255,G6,59.5,0.25,74,174.0
256,D7,59.75,0.25,72,174.0
257,E7,60.0,0.25,78,174.0
258,C7,60.25,0.25,69,174.0
259,G6,60.5,0.25,73,174.0
260,C6,60.75,0.25,69,174.0
261,E6,61.0,0.25,78,174.0
262,C6,61.25,0.25,68,174.0
263,G5,61.5,0.25,71,174.0
264,C5,61.75,0.25,65,174.0
265,E5,62.0,0.25,75,174.0
266,C5,62.25,0.25,66,174.0
267,G4,62.5,0.25,69,174.0
268,C4,62.75,0.25,64,174.0
269,E4,63.0,0.25,71,174.0
270,C4,63.25,0.25,64,174.0
271,G1,64.0,4.0,88,174.0
272,G2,64.0,4.0,88,174.0
273,E4,64.75,0.25,53,174.0
274,F4,65.0,0.25,59,174.0
275,E4,65.25,0.25,51,174.0
276,C5,65.5,0.25,54,174.0
277,E5,65.75,0.25,52,174.0
278,F5,66.0,0.25,61,174.0
279,E5,66.25,0.25,51,174.0
280,C6,66.5,0.25,56,174.0
281,E6,66.75,0.25,52,174.0
282,F6,67.0,0.25,62,174.0
283,E6,67.25,0.25,54,174.0
284,C7,67.5,0.25,56,174.0
285,G3,67.5,0.25,76,174.0
286,E7,67.75,0.25,52,174.0
287,B2,67.75,0.25,71,174.0
288,F7,68.0,0.25,63,174.0
289,C2,68.0,4.0,88,174.0
290,C3,68.0,4.0,88,174.0
291,D7,68.25,0.25,53,174.0
292,D3,68.25,0.25,76,174.0
293,B6,68.5,0.25,56,174.0
294,G3,68.5,0.25,73,174.0
295,D6,68.75,0.25,53,174.0
296,D4,68.75,0.25,76,174.0
297,F6,69.0,0.25,62,174.0
298,D6,69.25,0.25,53,174.0
299,B5,69.5,0.25,56,174.0
300,D5,69.75,0.25,52,174.0
301,F5,70.0,0.25,61,174.0
302,D5,70.25,0.25,51,174.0
303,B4,70.5,0.25,55,174.0
304,D4,70.75,0.25,51,174.0
305,F4,71.0,0.25,60,174.0
306,D4,71.25,0.25,50,174.0
307,B3,71.5,0.25,54,174.0
308,E4,73.0,0.25,64,174.0
309,D4,73.25,0.25,51,174.0
310,B4,73.5,0.25,55,174.0
311,D5,73.75,0.25,53,174.0
312,E5,74.0,0.25,66,174.0
313,D5,74.25,0.25,52,174.0
314,B5,74.5,0.25,58,174.0
315,D6,74.75,0.25,53,174.0
316,E6,75.0,0.25,66,174.0
317,D6,75.25,0.25,54,174.0
318,B6,75.5,0.25,59,174.0
319,D7,75.75,0.25,55,174.0
320,E7,76.0,0.25,68,174.0
321,C2,76.0,4.0,88,174.0
322,C3,76.0,4.0,88,174.0
323,C7,76.25,0.25,57,174.0
324,A6,76.5,0.25,59,174.0
325,C6,76.75,0.25,57,174.0
326,E6,77.0,0.25,71,174.0
327,C6,77.25,0.25,58,174.0
328,A5,77.5,0.25,63,174.0
329,C5,77.75,0.25,61,174.0
330,E5,78.0,0.25,74,174.0
331,C5,78.25,0.25,61,174.0
332,A4,78.5,0.25,66,174.0
333,C4,78.75,0.25,61,174.0
334,E4,79.0,0.25,77,174.0
335,C4,79.25,0.25,63,174.0
336,G3,79.5,0.25,67,174.0
337,C3,79.75,0.25,60,174.0
338,A1,80.0,4.0,64,174.0
339,A2,80.0,4.0,64,174.0
340,E3,80.25,0.25,50,174.0
341,C4,80.5,0.25,54,174.0
342,E4,81.0,0.25,82,174.0
343,C4,81.25,0.25,67,174.0
344,A4,81.5,0.25,72,174.0
345,C5,81.75,0.25,68,174.0
346,E5,82.0,0.25,82,174.0
347,C5,82.25,0.25,69,174.0
348,A5,82.5,0.25,73,174.0
349,C6,82.75,0.25,70,174.0
350,E6,83.0,0.25,83,174.0
351,C6,83.25,0.25,71,174.0
352,A6,83.5,0.25,74,174.0
353,C7,83.75,0.25,71,174.0
354,E-7,84.0,0.25,86,174.0
355,B1,84.0,2.0,64,174.0
356,B2,84.0,2.0,64,174.0
357,B6,84.25,0.25,71,174.0
358,A6,84.5,0.25,75,174.0
359,B5,84.75,0.25,68,174.0
360,E-6,85.0,0.25,78,174.0
361,B5,85.25,0.25,63,174.0
362,A5,85.5,0.25,67,174.0
363,B4,85.75,0.25,62,174.0
364,E-5,86.0,0.25,72,174.0
365,A1,86.0,2.0,64,174.0
366,A2,86.0,2.0,64,174.0
367,B4,86.25,0.25,59,174.0
368,A4,86.5,0.25,63,174.0
369,B3,86.75,0.25,55,174.0
370,E-4,87.0,0.25,61,174.0
371,D3,87.75,0.25,51,174.0
372,G#1,88.0,4.0,64,174.0
373,G#2,88.0,4.0,64,174.0
374,D3,88.25,0.25,51,174.0
375,B3,88.5,0.25,54,174.0
376,D4,88.75,0.25,51,174.0
377,E4,89.0,0.25,61,174.0
378,B3,89.25,0.25,50,174.0
379,A4,89.5,0.25,54,174.0
380,B4,89.75,0.25,49,174.0
381,E5,90.0,0.25,62,174.0
382,B4,90.25,0.25,50,174.0
383,A5,90.5,0.25,54,174.0
384,B5,90.75,0.25,50,174.0
385,E6,91.0,0.25,62,174.0
386,B5,91.25,0.25,50,174.0
387,A6,91.5,0.25,54,174.0
388,B6,91.75,0.25,50,174.0
389,E7,92.0,0.25,62,174.0
390,A1,92.0,2.0,66,174.0
391,A2,92.0,2.0,66,174.0
392,B6,92.25,0.25,49,174.0
393,G#6,92.5,0.25,54,174.0
394,B5,92.75,0.25,49,174.0
395,E6,93.0,0.25,61,174.0
396,B5,93.25,0.25,50,174.0
397,G#5,93.5,0.25,54,174.0
398,B4,93.75,0.25,50,174.0
399,E5,94.0,0.25,61,174.0
400,G1,94.0,2.0,73,174.0
401,G2,94.0,2.0,73,174.0
402,B4,94.25,0.25,50,174.0
403,G#4,94.5,0.25,54,174.0
404,B3,94.75,0.25,50,174.0
405,E4,95.0,0.25,53,174.0
406,B3,95.25,0.25,50,174.0
407,A3,95.5,0.25,69,174.0
408,C3,95.75,0.25,64,174.0
409,F1,96.0,4.0,83,174.0
410,F2,96.0,4.0,83,174.0
411,C3,96.25,0.25,65,174.0
412,A3,96.5,0.25,72,174.0
413,C4,96.75,0.25,66,174.0
414,G4,97.0,0.25,61,174.0
415,E4,97.25,0.25,50,174.0
416,A4,97.5,0.25,54,174.0
417,C#5,97.75,0.25,51,174.0
418,G5,98.0,0.25,62,174.0
419,E5,98.25,0.25,50,174.0
420,A5,98.5,0.25,55,174.0
421,C#6,98.75,0.25,50,174.0
422,G6,99.0,0.25,63,174.0
423,C#6,99.25,0.25,52,174.0
424,A5,99.5,0.25,57,174.0
425,E5,99.75,0.25,52,174.0
426,G6,100.0,0.25,65,174.0
427,C6,100.25,0.25,52,174.0
428,A5,100.5,0.25,57,174.0
429,E5,100.75,0.25,52,174.0
430,G5,101.0,0.25,65,174.0
431,C5,101.25,0.25,53,174.0
432,A4,101.5,0.25,57,174.0
433,E4,101.75,0.25,53,174.0
434,G4,102.0,0.25,65,174.0
435,C4,102.25,0.25,53,174.0
436,F#4,103.0,0.25,64,174.0
437,C4,103.25,0.25,56,174.0
438,F1,104.0,4.0,83,174.0
439,F2,104.0,4.0,83,174.0
440,F4,105.0,0.25,72,174.0
441,D4,105.25,0.25,59,174.0
442,G4,105.5,0.25,64,174.0
443,C5,105.75,0.25,62,174.0
444,F5,106.0,0.25,73,174.0
445,D5,106.25,0.25,63,174.0
446,G5,106.5,0.25,67,174.0
447,C6,106.75,0.25,62,174.0
448,F6,107.0,0.25,72,174.0
449,D6,107.25,0.25,64,174.0
450,B3,107.25,0.25,57,174.0
451,G6,107.5,0.25,67,174.0
452,A3,107.5,0.25,56,174.0
453,C7,107.75,0.25,64,174.0
454,B2,107.75,0.25,52,174.0
455,F7,108.0,0.25,74,174.0
456,E1,108.0,4.0,62,174.0
457,E2,108.0,4.0,62,174.0
458,B6,108.25,0.25,64,174.0
459,B2,108.25,0.25,50,174.0
460,G6,108.5,0.25,68,174.0
461,A3,108.5,0.25,54,174.0
462,D6,108.75,0.25,64,174.0
463,B3,108.75,0.25,50,174.0
464,F6,109.0,0.25,74,174.0
465,B5,109.25,0.25,65,174.0
466,G5,109.5,0.25,68,174.0
467,D5,109.75,0.25,64,174.0
468,F5,110.0,0.25,72,174.0
469,B4,110.25,0.25,64,174.0
470,G4,110.5,0.25,68,174.0
471,D4,110.75,0.25,68,174.0
472,F4,111.0,0.25,72,174.0
473,E4,113.0,0.25,80,174.0
474,C4,113.25,0.25,72,174.0
475,G4,113.5,0.25,76,174.0
476,B-4,113.75,0.25,73,174.0
477,E5,114.0,0.25,85,174.0
478,C5,114.25,0.25,73,174.0
479,G5,114.5,0.25,77,174.0
480,B-5,114.75,0.25,73,174.0
481,E6,115.0,0.25,86,174.0
482,C6,115.25,0.25,75,174.0
483,G6,115.5,0.25,78,174.0
484,C7,115.75,0.25,75,174.0
485,E-7,116.0,0.25,89,174.0
486,E1,116.0,4.0,62,174.0
487,E2,116.0,4.0,62,174.0
488,B-6,116.25,0.25,75,174.0
489,E-6,116.5,0.25,79,174.0
490,C6,116.75,0.25,74,174.0
491,E-6,117.0,0.25,87,174.0
492,B-5,117.25,0.25,74,174.0
493,E-5,117.5,0.25,78,174.0
494,C5,117.75,0.25,73,174.0
495,E-5,118.0,0.25,85,174.0
496,B-4,118.25,0.25,74,174.0
497,E-4,118.5,0.25,76,174.0
498,C4,118.75,0.25,73,174.0
499,E-4,119.0,0.25,83,174.0
500,B-3,119.25,0.25,72,174.0
501,G#3,119.5,0.25,54,174.0
502,B2,119.75,0.25,49,174.0
503,A1,120.0,4.0,62,174.0
504,A2,120.0,4.0,62,174.0
505,E3,120.25,0.25,50,174.0
506,A3,120.5,0.25,54,174.0
507,C#4,120.75,0.25,50,174.0
508,E-4,121.0,0.25,79,174.0
509,C4,121.25,0.25,71,174.0
510,E-4,121.5,0.25,76,174.0
511,A4,121.75,0.25,73,174.0
512,E-5,122.0,0.25,82,174.0
513,C5,122.25,0.25,75,174.0
514,E-5,122.5,0.25,77,174.0
515,A5,122.75,0.25,74,174.0
516,E-6,123.0,0.25,85,174.0
517,C6,123.25,0.25,75,174.0
518,E-6,123.5,0.25,78,174.0
519,A6,123.75,0.25,75,174.0
520,E-7,124.0,0.25,86,174.0
521,D2,124.0,4.0,64,174.0
522,D3,124.0,4.0,64,174.0
523,G#6,124.25,0.25,73,174.0
524,E-6,124.5,0.25,77,174.0
525,B5,124.75,0.25,73,174.0
526,E-6,125.0,0.25,85,174.0
527,G#5,125.25,0.25,71,174.0
528,E-5,125.5,0.25,76,174.0
529,B4,125.75,0.25,71,174.0
530,E-5,126.0,0.25,80,174.0
531,G#4,126.25,0.25,70,174.0
532,E-4,126.5,0.25,72,174.0
533,A3,126.5,0.25,57,174.0
534,B3,126.75,0.25,67,174.0
535,E3,126.75,0.25,53,174.0
536,E-4,127.0,0.25,71,174.0
537,A3,127.5,0.25,56,174.0
538,D3,127.75,0.25,52,174.0
539,G1,128.0,4.0,74,174.0
540,G2,128.0,4.0,74,174.0
541,D3,128.25,0.25,59,174.0
542,G3,128.5,0.25,64,174.0
543,C4,128.75,0.25,60,174.0
544,D4,129.0,0.25,76,174.0
545,B-3,129.25,0.25,64,174.0
546,F4,129.5,0.25,69,174.0
547,G#4,129.75,0.25,65,174.0
548,D5,130.0,0.25,76,174.0
549,B-4,130.25,0.25,66,174.0
550,F5,130.5,0.25,71,174.0
551,G#5,130.75,0.25,67,174.0
552,D6,131.0,0.25,76,174.0
553,B-5,131.25,0.25,65,174.0
554,F6,131.5,0.25,71,174.0
555,G#6,131.75,0.25,67,174.0
556,D7,132.0,0.25,83,174.0
557,G#6,132.25,0.25,70,174.0
558,E6,132.5,0.25,74,174.0
559,B-5,132.75,0.25,70,174.0
560,D6,133.0,0.25,84,174.0
561,G#5,133.25,0.25,71,174.0
562,E5,133.5,0.25,76,174.0
563,B-4,133.75,0.25,71,174.0
564,D5,134.0,0.25,87,174.0
565,G#4,134.25,0.25,72,174.0
566,E4,134.5,0.25,76,174.0
567,B-3,134.75,0.25,70,174.0
568,D4,135.0,0.25,86,174.0
569,G1,136.0,4.0,74,174.0
570,G2,136.0,4.0,74,174.0
571,C#4,137.0,0.25,81,174.0
572,A3,137.25,0.25,70,174.0
573,E4,137.5,0.25,76,174.0
574,A4,137.75,0.25,74,174.0
575,C#5,138.0,0.25,83,174.0
576,A4,138.25,0.25,74,174.0
577,E5,138.5,0.25,77,174.0
578,A5,138.75,0.25,73,174.0
579,C#6,139.0,0.25,85,174.0
580,A5,139.25,0.25,74,174.0
581,B3,139.25,0.25,62,174.0
582,E6,139.5,0.25,78,174.0
583,G3,139.5,0.25,67,174.0
584,A6,139.75,0.25,74,174.0
585,D3,139.75,0.25,64,174.0
586,C#7,140.0,0.25,87,174.0
587,C2,140.0,4.0,80,174.0
588,C3,140.0,0.5,95,174.0
589,A6,140.25,0.25,74,174.0
590,C3,140.25,3.75,71,174.0
591,E6,140.5,0.25,79,174.0
592,G3,140.5,0.25,76,174.0
593,A5,140.75,0.25,74,174.0
594,B-3,140.75,0.25,72,174.0
595,C#6,141.0,0.25,85,174.0
596,A5,141.25,0.25,72,174.0
597,E5,141.5,0.25,77,174.0
598,A4,141.75,0.25,72,174.0
599,C#5,142.0,0.25,86,174.0
600,A4,142.25,0.25,72,174.0
601,E4,142.5,0.25,74,174.0
602,A3,142.75,0.25,69,174.0
603,C#4,143.0,0.25,84,174.0
604,F#1,144.0,4.0,88,174.0
605,F#2,144.0,4.0,88,174.0
606,C4,145.0,0.25,74,174.0
607,A3,145.25,0.25,68,174.0
608,D4,145.5,0.25,71,174.0
609,F#4,145.75,0.25,66,174.0
610,C5,146.0,0.25,74,174.0
611,A4,146.25,0.25,66,174.0
612,D5,146.5,0.25,71,174.0
613,F#5,146.75,0.25,68,174.0
614,C6,147.0,0.25,75,174.0
615,A5,147.25,0.25,67,174.0
616,D6,147.5,0.25,70,174.0
617,E-3,147.5,0.25,76,174.0
618,F#6,147.75,0.25,67,174.0
619,C3,147.75,0.25,72,174.0
620,C7,148.0,0.25,76,174.0
621,F1,148.0,4.0,89,174.0
622,F2,148.0,4.0,89,174.0
623,F6,148.25,0.25,68,174.0
624,C3,148.25,0.25,72,174.0
625,D6,148.5,0.25,71,174.0
626,E-3,148.5,0.25,76,174.0
627,G5,148.75,0.25,68,174.0
628,A3,148.75,0.25,73,174.0
629,C6,149.0,0.25,73,174.0
630,F5,149.25,0.25,66,174.0
631,D5,149.5,0.25,69,174.0
632,G4,149.75,0.25,63,174.0
633,C5,150.0,0.25,74,174.0
634,F4,150.25,0.25,63,174.0
635,D4,150.5,0.25,66,174.0
636,B1,152.0,4.0,92,174.0
637,B2,152.0,4.0,92,174.0
638,C4,153.5,0.25,61,174.0
639,E4,153.75,0.25,65,174.0
640,B4,154.0,0.25,72,174.0
641,G4,154.25,0.25,61,174.0
642,C5,154.5,0.25,66,174.0
643,E5,154.75,0.25,61,174.0
644,B5,155.0,0.25,73,174.0
645,G5,155.25,0.25,64,174.0
646,G#3,155.25,0.25,65,174.0
647,C6,155.5,0.25,66,174.0
648,E-3,155.5,0.25,69,174.0
649,E6,155.75,0.25,63,174.0
650,B2,155.75,0.25,66,174.0
651,B6,156.0,0.25,75,174.0
652,B-1,156.0,4.0,84,174.0
653,E6,156.25,0.25,65,174.0
654,B-2,156.25,0.25,66,174.0
655,C6,156.5,0.25,67,174.0
656,F3,156.5,0.25,70,174.0
657,F5,156.75,0.25,67,174.0
658,G#3,156.75,0.25,67,174.0
659,B5,157.0,0.25,74,174.0
660,E5,157.25,0.25,64,174.0
661,C5,157.5,0.25,66,174.0
662,F4,157.75,0.25,61,174.0
663,B4,158.0,0.25,73,174.0
664,E4,158.25,0.25,66,174.0
665,C4,158.5,0.25,61,174.0
666,B-2,160.0,4.0,87,174.0
667,B-1,160.0,4.0,84,174.0
668,D4,161.75,0.25,66,174.0
669,A4,162.0,0.25,74,174.0
670,F4,162.25,0.25,64,174.0
671,B4,162.5,0.25,68,174.0
672,D5,162.75,0.25,63,174.0
673,A5,163.0,0.25,74,174.0
674,F5,163.25,0.25,64,174.0
675,G#3,163.25,0.25,71,174.0
676,B5,163.5,0.25,68,174.0
677,E3,163.5,0.25,76,174.0
678,D6,163.75,0.25,64,174.0
679,B-2,163.75,0.25,72,174.0
680,G6,164.0,0.25,75,174.0
681,A1,164.0,4.0,78,174.0
682,A2,164.0,0.5,94,174.0
683,D6,164.25,0.25,65,174.0
684,A2,164.25,3.75,72,174.0
685,B5,164.5,0.25,68,174.0
686,E3,164.5,0.25,76,174.0
687,E5,164.75,0.25,65,174.0
688,A3,164.75,0.25,72,174.0
689,G5,165.0,0.25,75,174.0
690,D5,165.25,0.25,65,174.0
691,B4,165.5,0.25,68,174.0
692,E4,165.75,0.25,64,174.0
693,A4,166.0,0.25,75,174.0
694,C5,166.25,0.25,64,174.0
695,G5,166.5,0.25,68,174.0
696,E5,166.75,0.25,64,174.0
697,A5,167.0,0.25,75,174.0
698,C6,167.25,0.25,65,174.0
699,G6,167.5,0.25,69,174.0
700,E6,167.75,0.25,65,174.0
701,F6,168.0,0.25,76,174.0
702,A1,168.0,4.0,78,174.0
703,A2,168.0,4.0,72,174.0
704,C6,168.25,0.25,67,174.0
705,A5,168.5,0.25,70,174.0
706,D5,168.75,0.25,66,174.0
707,F5,169.0,0.25,77,174.0
708,C5,169.25,0.25,67,174.0
709,A4,169.5,0.25,72,174.0
710,D4,169.75,0.25,67,174.0
711,G4,170.0,0.25,78,174.0
712,B4,170.25,0.25,66,174.0
713,F5,170.5,0.25,72,174.0
714,D5,170.75,0.25,68,174.0
715,G5,171.0,0.25,78,174.0
716,B5,171.25,0.25,68,174.0
717,A3,171.25,0.25,68,174.0
718,F6,171.5,0.25,74,174.0
719,E3,171.5,0.25,72,174.0
720,D6,171.75,0.25,68,174.0
721,A2,171.75,0.25,68,174.0
722,E6,172.0,0.25,80,174.0
723,D2,172.0,4.0,90,174.0
724,B5,172.25,0.25,70,174.0
725,A2,172.25,0.25,69,174.0
726,G5,172.5,0.25,75,174.0
727,D3,172.5,0.25,72,174.0
728,C5,172.75,0.25,70,174.0
729,F#3,172.75,0.25,69,174.0
730,E5,173.0,0.25,83,174.0
731,B4,173.25,0.25,70,174.0
732,G4,173.5,0.25,76,174.0
733,C4,173.75,0.25,70,174.0
734,F4,174.0,0.25,86,174.0
735,A4,174.25,0.25,71,174.0
736,E5,174.5,0.25,77,174.0
737,C5,174.75,0.25,71,174.0
738,F5,175.0,0.25,86,174.0
739,A5,175.25,0.25,73,174.0
740,E6,175.5,0.25,79,174.0
741,C6,175.75,0.25,75,174.0
742,D6,176.0,0.25,90,174.0
743,G1,176.0,4.0,80,174.0
744,G2,176.0,4.0,80,174.0
745,A5,176.25,0.25,76,174.0
746,F5,176.5,0.25,80,174.0
747,B4,176.75,0.25,75,174.0
748,D5,177.0,0.25,90,174.0
749,A4,177.25,0.25,76,174.0
750,F4,177.5,0.25,80,174.0
751,B3,177.75,0.25,74,174.0
752,D4,178.0,0.25,90,174.0
753,G3,178.75,0.25,62,174.0
754,B3,179.0,0.25,76,174.0
755,F3,179.25,0.25,64,174.0
756,D3,179.5,0.25,61,174.0
757,G2,179.75,0.25,64,174.0
758,E-6,180.0,0.25,91,174.0
759,C2,180.0,4.0,79,174.0
760,A5,180.25,0.25,75,174.0
761,G2,180.25,0.25,64,174.0
762,F#5,180.5,0.25,80,174.0
763,C3,180.5,0.25,61,174.0
764,B4,180.75,0.25,75,174.0
765,E3,180.75,0.25,64,174.0
766,E-5,181.0,0.25,91,174.0
767,B3,181.0,0.25,74,174.0
768,A4,181.25,0.25,76,174.0
769,G3,181.25,0.25,61,174.0
770,F#4,181.5,0.25,80,174.0
771,B3,181.75,0.25,74,174.0
772,E-4,182.0,0.25,91,174.0
773,F1,184.0,4.0,72,174.0
774,F2,184.0,4.0,72,174.0
775,E4,185.0,0.25,91,174.0
776,B3,185.25,0.25,76,174.0
777,E4,185.5,0.25,80,174.0
778,G#4,185.75,0.25,77,174.0
779,E5,186.0,0.25,91,174.0
780,B4,186.25,0.25,76,174.0
781,E5,186.5,0.25,80,174.0
782,G#5,186.75,0.25,76,174.0
783,F3,186.75,0.25,62,174.0
784,E6,187.0,0.25,91,174.0
785,A3,187.0,0.25,74,174.0
786,B5,187.25,0.25,75,174.0
787,E3,187.25,0.25,60,174.0
788,E6,187.5,0.25,80,174.0
789,C3,187.5,0.25,64,174.0
790,G#6,187.75,0.25,75,174.0
791,F2,187.75,0.25,61,174.0
792,E7,188.0,0.25,91,174.0
793,B1,188.0,4.0,84,174.0
794,G#6,188.25,0.25,77,174.0
795,F2,188.25,0.25,65,174.0
796,E6,188.5,0.25,79,174.0
797,B2,188.5,0.25,68,174.0
798,B5,188.75,0.25,74,174.0
799,D3,188.75,0.25,64,174.0
800,E6,189.0,0.25,88,174.0
801,A3,189.0,0.25,77,174.0
802,G#5,189.25,0.25,72,174.0
803,F3,189.25,0.25,63,174.0
804,E5,189.5,0.25,76,174.0
805,B3,189.5,0.25,68,174.0
806,B4,189.75,0.25,69,174.0
807,E5,190.0,0.25,85,174.0
808,G#4,190.25,0.25,69,174.0
809,E4,190.5,0.25,72,174.0
810,B3,190.75,0.25,67,174.0
811,F4,191.0,0.25,80,174.0
812,B3,191.25,0.25,65,174.0
813,E1,192.0,2.0,78,174.0
814,E2,192.0,2.0,78,174.0
815,E4,193.0,0.25,72,174.0
816,C4,193.25,0.25,63,174.0
817,G4,193.5,0.25,68,174.0
818,C5,193.75,0.25,65,174.0
819,E5,194.0,0.25,76,174.0
820,A1,194.0,2.0,78,174.0
821,A2,194.0,2.0,78,174.0
822,C5,194.25,0.25,64,174.0
823,G5,194.5,0.25,70,174.0
824,C6,194.75,0.25,64,174.0
825,E6,195.0,0.25,77,174.0
826,C6,195.25,0.25,65,174.0
827,G6,195.5,0.25,70,174.0
828,C7,195.75,0.25,65,174.0
829,E7,196.0,0.25,77,174.0
830,D1,196.0,2.0,81,174.0
831,D2,196.0,2.0,81,174.0
832,C7,196.25,0.25,66,174.0
833,G6,196.5,0.25,71,174.0
834,C6,196.75,0.25,68,174.0
835,E6,197.0,0.25,77,174.0
836,C6,197.25,0.25,66,174.0
837,G5,197.5,0.25,70,174.0
838,C5,197.75,0.25,65,174.0
839,E5,198.0,0.25,76,174.0
840,G1,198.0,2.0,81,174.0
841,G2,198.0,2.0,81,174.0
842,C5,198.25,0.25,65,174.0
843,G4,198.5,0.25,69,174.0
844,C4,198.75,0.25,63,174.0
845,E4,199.0,0.25,75,174.0
846,C4,199.25,0.25,63,174.0
847,C1,200.0,2.0,87,174.0
848,C2,200.0,2.0,87,174.0
849,F4,201.0,0.25,78,174.0
850,C4,201.25,0.25,64,174.0
851,A4,201.5,0.25,69,174.0
852,C5,201.75,0.25,67,174.0
853,F5,202.0,0.25,82,174.0
854,F1,202.0,2.0,90,174.0
855,F2,202.0,2.0,90,174.0
856,C5,202.25,0.25,68,174.0
857,A5,202.5,0.25,73,174.0
858,C6,202.75,0.25,69,174.0
859,F6,203.0,0.25,83,174.0
860,C6,203.25,0.25,69,174.0
861,A6,203.5,0.25,74,174.0
862,C7,203.75,0.25,70,174.0
863,E7,204.0,0.25,88,174.0
864,B1,204.0,3.0,93,174.0
865,B2,204.0,3.0,93,174.0
866,C7,204.25,0.25,70,174.0
867,A6,204.5,0.25,77,174.0
868,C6,204.75,0.25,71,174.0
869,E6,205.0,0.25,89,174.0
870,C6,205.25,0.25,72,174.0
871,A5,205.5,0.25,79,174.0
872,C5,205.75,0.25,73,174.0
873,E5,206.0,0.25,89,174.0
874,C5,206.25,0.25,73,174.0
875,A3,206.25,0.25,75,174.0
876,A4,206.5,0.25,78,174.0
877,F3,206.5,0.25,80,174.0
878,C4,206.75,0.25,72,174.0
879,B2,206.75,0.25,75,174.0
880,D4,207.0,0.25,90,174.0
881,B1,207.0,1.0,102,174.0
882,C4,207.25,0.25,72,174.0
883,B2,208.0,3.0,100,174.0
884,B1,208.0,3.0,102,174.0
885,D4,209.0,0.25,91,174.0
886,B3,209.25,0.25,75,174.0
887,G4,209.5,0.25,80,174.0
888,B4,209.75,0.25,76,174.0
889,D5,210.0,0.25,93,174.0
890,B4,210.25,0.25,76,174.0
891,A3,210.25,0.25,75,174.0
892,G5,210.5,0.25,82,174.0
893,F#3,210.5,0.25,80,174.0
894,B5,210.75,0.25,76,174.0
895,B2,210.75,0.25,76,174.0
896,D6,211.0,0.25,94,174.0
897,B1,211.0,1.0,93,174.0
898,B5,211.25,0.25,76,174.0
899,G6,211.5,0.25,83,174.0
900,A6,211.75,0.25,76,174.0
901,D7,212.0,0.25,96,174.0
902,E1,212.0,4.0,92,174.0
903,E2,212.0,4.0,92,174.0
904,A6,212.25,0.25,77,174.0
905,B2,212.25,0.25,76,174.0
906,F#6,212.5,0.25,84,174.0
907,E3,212.5,0.25,80,174.0
908,C6,212.75,0.25,76,174.0
909,G#3,212.75,0.25,76,174.0
910,D6,213.0,0.25,95,174.0
911,A5,213.25,0.25,76,174.0
912,F#5,213.5,0.25,83,174.0
913,C5,213.75,0.25,77,174.0
914,D5,214.0,0.25,93,174.0
915,A4,214.25,0.25,77,174.0
916,F#4,214.5,0.25,81,174.0
917,C4,214.75,0.25,76,174.0
918,D4,215.0,0.25,91,174.0
919,D4,217.0,0.25,91,174.0
920,C4,217.25,0.25,74,174.0
921,F4,217.5,0.25,80,174.0
922,G#4,217.75,0.25,76,174.0
923,D5,218.0,0.25,93,174.0
924,C5,218.25,0.25,76,174.0
925,F5,218.5,0.25,82,174.0
926,G#5,218.75,0.25,77,174.0
927,D6,219.0,0.25,94,174.0
928,E1,219.0,3.0,92,174.0
929,E2,219.0,3.0,92,174.0
930,C6,219.25,0.25,78,174.0
931,F6,219.5,0.25,83,174.0
932,G#6,219.75,0.25,76,174.0
933,D7,220.0,0.25,95,174.0
934,G6,220.25,0.25,78,174.0
935,F6,220.5,0.25,84,174.0
936,B5,220.75,0.25,77,174.0
937,D6,221.0,0.25,94,174.0
938,G5,221.25,0.25,78,174.0
939,F5,221.5,0.25,83,174.0
940,B4,221.75,0.25,77,174.0
941,D5,222.0,0.25,92,174.0
942,D1,222.0,1.0,81,174.0
943,D2,222.0,1.0,81,174.0
944,G4,222.25,0.25,77,174.0
945,F4,222.5,0.25,81,174.0
946,G3,222.5,0.25,69,174.0
947,B3,222.75,0.25,75,174.0
948,D3,222.75,0.25,64,174.0
949,E-4,223.0,0.25,91,174.0
950,C1,223.0,4.0,72,174.0
951,C2,223.0,4.0,85,174.0
952,C3,223.25,0.25,64,174.0
953,G3,223.5,0.25,68,174.0
954,C4,223.75,0.25,63,174.0
955,E4,225.0,0.25,92,174.0
956,C4,225.25,0.25,75,174.0
957,G4,225.5,0.25,80,174.0
958,C5,225.75,0.25,76,174.0
959,E5,226.0,0.25,93,174.0
960,C5,226.25,0.25,76,174.0
961,G5,226.5,0.25,82,174.0
962,C6,226.75,0.25,76,174.0
963,E6,227.0,0.25,94,174.0
964,C3,227.0,4.0,78,174.0
965,C2,227.0,4.0,85,174.0
966,C6,227.25,0.25,78,174.0
967,G6,227.5,0.25,83,174.0
968,C7,227.75,0.25,78,174.0
969,E7,228.0,0.25,96,174.0
970,C7,228.25,0.25,77,174.0
971,G6,228.5,0.25,84,174.0
972,C6,228.75,0.25,77,174.0
973,E6,229.0,0.25,95,174.0
974,C6,229.25,0.25,76,174.0
975,G5,229.5,0.25,83,174.0
976,C5,229.75,0.25,76,174.0
977,E5,230.0,0.25,94,174.0
978,C5,230.25,0.25,77,174.0
979,G4,230.5,0.25,81,174.0
980,G3,230.5,0.25,68,174.0
981,C4,230.75,0.25,77,174.0
982,C3,230.75,0.25,63,174.0
983,E4,231.0,0.25,92,174.0
984,F1,231.0,4.0,78,174.0
985,F2,231.0,4.0,78,174.0
986,C4,231.25,0.25,76,174.0
987,C3,231.25,0.25,64,174.0
988,A3,231.5,0.25,68,174.0
989,C4,231.75,0.25,64,174.0
990,F4,233.0,0.25,85,174.0
991,C4,233.25,0.25,75,174.0
992,F4,233.5,0.25,80,174.0
993,C5,233.75,0.25,76,174.0
994,F5,234.0,0.25,88,174.0
995,C5,234.25,0.25,76,174.0
996,F5,234.5,0.25,82,174.0
997,C6,234.75,0.25,77,174.0
998,F6,235.0,0.25,90,174.0
999,F#1,235.0,4.0,84,174.0
1000,F#2,235.0,4.0,84,174.0
1001,C6,235.25,0.25,78,174.0
1002,F6,235.5,0.25,83,174.0
1003,C7,235.75,0.25,78,174.0
1004,E7,236.0,0.25,92,174.0
1005,C7,236.25,0.25,78,174.0
1006,F#6,236.5,0.25,84,174.0
1007,C6,236.75,0.25,78,174.0
1008,E6,237.0,0.25,91,174.0
1009,C6,237.25,0.25,79,174.0
1010,F#5,237.5,0.25,83,174.0
1011,C5,237.75,0.25,76,174.0
1012,E-5,238.0,0.25,90,174.0
1013,C5,238.25,0.25,78,174.0
1014,F#4,238.5,0.25,81,174.0
1015,A3,238.5,0.25,79,174.0
1016,C4,238.75,0.25,75,174.0
1017,C3,238.75,0.25,71,174.0
1018,E-4,239.0,0.25,86,174.0
1019,G1,239.0,2.0,93,174.0
1020,G2,239.0,2.0,93,174.0
1021,C4,239.25,0.25,74,174.0
1022,B2,239.25,0.25,75,174.0
1023,G3,239.5,0.25,80,174.0
1024,B3,239.75,0.25,75,174.0
1025,D4,241.0,0.25,78,174.0
1026,F#1,241.0,1.0,94,174.0
1027,F#2,241.0,1.0,94,174.0
1028,C4,241.25,0.25,71,174.0
1029,G4,241.5,0.25,76,174.0
1030,C5,241.75,0.25,73,174.0
1031,D5,242.0,0.25,83,174.0
1032,E1,242.0,1.0,94,174.0
1033,E2,242.0,1.0,94,174.0
1034,C5,242.25,0.25,74,174.0
1035,G5,242.5,0.25,76,174.0
1036,C6,242.75,0.25,72,174.0
1037,D6,243.0,0.25,85,174.0
1038,D1,243.0,4.0,93,174.0
1039,D2,243.0,4.0,93,174.0
1040,C6,243.25,0.25,75,174.0
1041,G6,243.5,0.25,77,174.0
1042,C7,243.75,0.25,71,174.0
1043,D7,244.0,0.25,87,174.0
1044,B6,244.25,0.25,73,174.0
1045,G6,244.5,0.25,78,174.0
1046,B5,244.75,0.25,73,174.0
1047,D6,245.0,0.25,83,174.0
1048,B5,245.25,0.25,73,174.0
1049,G5,245.5,0.25,76,174.0
1050,B4,245.75,0.25,71,174.0
1051,D5,246.0,0.25,82,174.0
1052,B4,246.25,0.25,70,174.0
1053,A3,246.25,0.25,75,174.0
1054,G4,246.5,0.25,74,174.0
1055,F#3,246.5,0.25,80,174.0
1056,B3,246.75,0.25,70,174.0
1057,C3,246.75,0.25,74,174.0
1058,D4,247.0,0.25,80,174.0
1059,G1,247.0,4.0,94,174.0
1060,G2,247.0,4.0,94,174.0
1061,B3,247.25,0.25,68,174.0
1062,C3,247.25,0.25,75,174.0
1063,F3,247.5,0.25,80,174.0
1064,G#3,247.75,0.25,74,174.0
1065,D4,249.0,0.25,75,174.0
1066,C4,249.25,0.25,68,174.0
1067,A4,249.5,0.25,73,174.0
1068,C5,249.75,0.25,69,174.0
1069,D5,250.0,0.25,77,174.0
1070,C5,250.25,0.25,70,174.0
1071,A5,250.5,0.25,73,174.0
1072,C6,250.75,0.25,72,174.0
1073,D6,251.0,0.25,81,174.0
1074,C6,251.25,0.25,72,174.0
1075,A6,251.5,0.25,74,174.0
1076,C7,251.75,0.25,69,174.0
1077,E-7,252.0,0.25,82,174.0
1078,C7,252.25,0.25,70,174.0
1079,A6,252.5,0.25,75,174.0
1080,C6,252.75,0.25,69,174.0
1081,E-6,253.0,0.25,81,174.0
1082,C6,253.25,0.25,70,174.0
1083,A5,253.5,0.25,74,174.0
1084,C5,253.75,0.25,70,174.0
1085,E-5,254.0,0.25,79,174.0
1086,B4,254.25,0.25,70,174.0
1087,A4,254.5,0.25,71,174.0
1088,B3,254.75,0.25,67,174.0
1089,E-4,255.0,0.25,78,174.0
1090,G1,255.0,4.0,94,174.0
1091,G2,255.0,4.0,94,174.0
1092,B3,255.25,0.25,67,174.0
1093,E4,257.0,0.25,74,174.0
1094,B3,257.25,0.25,66,174.0
1095,G#4,257.5,0.25,70,174.0
1096,B4,257.75,0.25,66,174.0
1097,E5,258.0,0.25,78,174.0
1098,B4,258.25,0.25,66,174.0
1099,G3,258.25,0.25,74,174.0
1100,G#5,258.5,0.25,71,174.0
1101,F3,258.5,0.25,80,174.0
1102,B5,258.75,0.25,67,174.0
1103,B2,258.75,0.25,75,174.0
1104,E6,259.0,0.25,80,174.0
1105,C2,259.0,4.0,79,174.0
1106,C3,259.0,0.5,95,174.0
1107,B5,259.25,0.25,68,174.0
1108,C3,259.25,3.75,75,174.0
1109,G#6,259.5,0.25,71,174.0
1110,G3,259.5,0.25,80,174.0
1111,B6,259.75,0.25,68,174.0
1112,C4,259.75,0.25,75,174.0
1113,E7,260.0,0.25,81,174.0
1114,B6,260.25,0.25,69,174.0
1115,G#6,260.5,0.25,71,174.0
1116,B5,260.75,0.25,65,174.0
1117,E6,261.0,0.25,79,174.0
1118,B5,261.25,0.25,66,174.0
1119,G#5,261.5,0.25,69,174.0
1120,B4,261.75,0.25,62,174.0
1121,E5,262.0,0.25,75,174.0
1122,B4,262.25,0.25,62,174.0
1123,G#4,262.5,0.25,65,174.0
1124,B3,262.75,0.25,60,174.0
1125,E4,263.0,0.25,70,174.0
1126,C2,263.0,4.0,79,174.0
1127,C3,263.0,4.0,75,174.0
1128,B3,263.25,0.25,59,174.0
1129,F4,265.0,0.25,62,174.0
1130,D4,265.25,0.25,50,174.0
1131,A4,265.5,0.25,54,174.0
1132,C5,265.75,0.25,52,174.0
1133,F5,266.0,0.25,63,174.0
1134,D5,266.25,0.25,51,174.0
1135,A5,266.5,0.25,55,174.0
1136,G3,266.5,0.25,80,174.0
1137,C6,266.75,0.25,52,174.0
1138,C3,266.75,0.25,74,174.0
1139,F6,267.0,0.25,63,174.0
1140,A1,267.0,4.0,92,174.0
1141,A2,267.0,4.0,92,174.0
1142,D6,267.25,0.25,53,174.0
1143,C3,267.25,0.25,75,174.0
1144,A6,267.5,0.25,56,174.0
1145,F3,267.5,0.25,80,174.0
1146,C7,267.75,0.25,53,174.0
1147,C4,267.75,0.25,75,174.0
1148,F7,268.0,0.25,64,174.0
1149,B6,268.25,0.25,53,174.0
1150,G6,268.5,0.25,57,174.0
1151,D6,268.75,0.25,52,174.0
1152,F6,269.0,0.25,63,174.0
1153,D6,269.25,0.25,50,174.0
1154,G5,269.5,0.25,56,174.0
1155,D5,269.75,0.25,51,174.0
1156,F5,270.0,0.25,62,174.0
1157,B4,270.25,0.25,52,174.0
1158,G4,270.5,0.25,55,174.0
1159,D4,270.75,0.25,52,174.0
1160,F4,271.0,0.25,62,174.0
1161,B3,271.25,0.25,50,174.0
1162,E4,273.0,0.25,63,174.0
1163,C4,273.25,0.25,53,174.0
1164,G4,273.5,0.25,57,174.0
1165,C5,273.75,0.25,52,174.0
1166,E5,274.0,0.25,65,174.0
1167,A1,274.0,3.0,92,174.0
1168,A2,274.0,3.0,92,174.0
1169,C5,274.25,0.25,52,174.0
1170,B-5,274.5,0.25,58,174.0
1171,C6,274.75,0.25,53,174.0
1172,G6,275.0,0.25,70,174.0
1173,C6,275.25,0.25,61,174.0
1174,B-5,275.5,0.25,63,174.0
1175,E5,275.75,0.25,63,174.0
1176,F#6,276.0,0.25,70,174.0
1177,C6,276.25,0.25,61,174.0
1178,A5,276.5,0.25,63,174.0
1179,E-5,276.75,0.25,61,174.0
1180,F#5,277.0,0.25,68,174.0
1181,G#1,277.0,1.0,93,174.0
1182,G#2,277.0,1.0,93,174.0
1183,C5,277.25,0.25,62,174.0
1184,A4,277.5,0.25,63,174.0
1185,F#3,277.5,0.25,80,174.0
1186,E-4,277.75,0.25,61,174.0
1187,C3,277.75,0.25,73,174.0
1188,F5,278.0,0.25,68,174.0
1189,G1,278.0,4.0,88,174.0
1190,G2,278.0,4.0,88,174.0
1191,B4,278.25,0.25,60,174.0
1192,C3,278.25,0.25,70,174.0
1193,G#4,278.5,0.25,60,174.0
1194,G3,278.5,0.25,76,174.0
1195,D4,278.75,0.25,58,174.0
1196,C4,278.75,0.25,71,174.0
1197,F4,279.0,0.25,70,174.0
1198,B3,279.25,0.25,61,174.0
1199,E4,281.0,0.25,71,174.0
1200,C4,281.25,0.25,65,174.0
1201,G4,281.5,0.25,69,174.0
1202,C5,281.75,0.25,65,174.0
1203,G5,282.0,0.25,75,174.0
1204,E5,282.25,0.25,67,174.0
1205,G5,282.5,0.25,73,174.0
1206,C6,282.75,0.25,68,174.0
1207,E6,283.0,0.25,80,174.0
1208,C6,283.25,0.25,72,174.0
1209,G5,283.5,0.25,77,174.0
1210,C5,283.75,0.25,73,174.0
1211,E-6,284.0,0.25,86,174.0
1212,A5,284.25,0.25,75,174.0
1213,F#5,284.5,0.25,79,174.0
1214,C5,284.75,0.25,73,174.0
1215,E-5,285.0,0.25,84,174.0
1216,A4,285.25,0.25,70,174.0
1217,F#4,285.5,0.25,76,174.0
1218,C4,285.75,0.25,71,174.0
1219,D5,286.0,0.25,80,174.0
1220,G1,286.0,4.0,88,174.0
1221,G2,286.0,4.0,88,174.0
1222,G#4,286.25,0.25,70,174.0
1223,F4,286.5,0.25,72,174.0
1224,B3,286.75,0.25,68,174.0
1225,D4,287.0,0.25,80,174.0
1226,E4,289.5,0.25,69,174.0
1227,G3,289.5,0.25,73,174.0
1228,G4,289.75,0.25,64,174.0
1229,B2,289.75,0.25,68,174.0
1230,C#5,290.0,0.25,75,174.0
1231,F#1,290.0,4.0,84,174.0
1232,F#2,290.0,4.0,84,174.0
1233,B-4,290.25,0.25,66,174.0
1234,C3,290.25,0.25,69,174.0
1235,E5,290.5,0.25,73,174.0
1236,A3,290.5,0.25,73,174.0
1237,G5,290.75,0.25,69,174.0
1238,C4,290.75,0.25,69,174.0
1239,C#6,291.0,0.25,80,174.0
1240,B-5,291.25,0.25,71,174.0
1241,E6,291.5,0.25,77,174.0
1242,G6,291.75,0.25,73,174.0
1243,C#7,292.0,0.25,84,174.0
1244,F#6,292.25,0.25,75,174.0
1245,E-6,292.5,0.25,79,174.0
1246,A5,292.75,0.25,72,174.0
1247,C#6,293.0,0.25,82,174.0
1248,F#5,293.25,0.25,71,174.0
1249,E-5,293.5,0.25,76,174.0
1250,A4,293.75,0.25,69,174.0
1251,C#5,294.0,0.25,81,174.0
1252,F1,294.0,4.0,82,174.0
1253,F2,294.0,4.0,82,174.0
1254,F#4,294.25,0.25,68,174.0
1255,E-4,294.5,0.25,72,174.0
1256,A3,294.75,0.25,68,174.0
1257,C5,295.0,0.25,78,174.0
1258,F#4,295.25,0.25,65,174.0
1259,E-4,295.5,0.25,69,174.0
1260,A3,295.75,0.25,64,174.0
1261,G#3,296.25,0.25,68,174.0
1262,D4,296.5,0.25,64,174.0
1263,F4,296.75,0.25,69,174.0
1264,C5,297.0,0.25,76,174.0
1265,G#4,297.25,0.25,68,174.0
1266,D5,297.5,0.25,72,174.0
1267,A3,297.5,0.25,71,174.0
1268,F5,297.75,0.25,69,174.0
1269,B2,297.75,0.25,66,174.0
1270,C6,298.0,0.25,78,174.0
1271,E1,298.0,4.0,76,174.0
1272,E2,298.0,4.0,90,174.0
1273,G#5,298.25,0.25,71,174.0
1274,B2,298.25,0.25,66,174.0
1275,D6,298.5,0.25,75,174.0
1276,G#3,298.5,0.25,71,174.0
1277,F6,298.75,0.25,72,174.0
1278,B3,298.75,0.25,66,174.0
1279,C7,299.0,0.25,81,174.0
1280,F6,299.25,0.25,74,174.0
1281,D6,299.5,0.25,78,174.0
1282,G#5,299.75,0.25,74,174.0
1283,B6,300.0,0.25,86,174.0
1284,F6,300.25,0.25,74,174.0
1285,D6,300.5,0.25,79,174.0
1286,G5,300.75,0.25,74,174.0
1287,B5,301.0,0.25,81,174.0
1288,F5,301.25,0.25,73,174.0
1289,D5,301.5,0.25,76,174.0
1290,G4,301.75,0.25,71,174.0
1291,B4,302.0,0.25,77,174.0
1292,E3,302.0,2.0,88,174.0
1293,E2,302.0,4.0,90,174.0
1294,F4,302.25,0.25,69,174.0
1295,D4,302.5,0.25,73,174.0
1296,E4,305.5,0.25,72,174.0
1297,G#3,305.5,0.25,62,174.0
1298,G4,305.75,0.25,68,174.0
1299,B2,305.75,0.25,55,174.0
1300,C5,306.0,0.25,83,174.0
1301,D2,306.0,4.0,65,174.0
1302,G4,306.25,0.25,70,174.0
1303,D3,306.25,0.25,50,174.0
1304,E5,306.5,0.25,75,174.0
1305,A3,306.5,0.25,54,174.0
1306,G5,306.75,0.25,72,174.0
1307,C4,306.75,0.25,49,174.0
1308,C6,307.0,0.25,87,174.0
1309,G5,307.25,0.25,72,174.0
1310,E6,307.5,0.25,78,174.0
1311,G6,307.75,0.25,75,174.0
1312,C7,308.0,0.25,91,174.0
1313,G6,308.25,0.25,75,174.0
1314,E6,308.5,0.25,80,174.0
1315,G5,308.75,0.25,75,174.0
1316,C6,309.0,0.25,91,174.0
1317,G5,309.25,0.25,73,174.0
1318,E5,309.5,0.25,78,174.0
1319,G4,309.75,0.25,74,174.0
1320,C5,310.0,0.25,89,174.0
1321,G1,310.0,4.0,62,174.0
1322,G2,310.0,4.0,62,174.0
1323,G4,310.25,0.25,77,174.0
1324,E4,310.5,0.25,71,174.0
1325,G3,313.5,0.25,54,174.0
1326,D3,313.75,0.25,50,174.0
1327,C2,314.0,4.0,70,174.0
1328,C3,314.25,0.25,52,174.0
1329,G3,314.5,0.25,56,174.0
1330,C4,314.75,0.25,51,174.0
1331,C3,318.0,4.0,75,174.0
1332,C2,318.0,4.0,70,174.0
1333,G#3,321.5,0.25,61,174.0
1334,D3,321.75,0.25,57,174.0
1335,C2,322.0,4.0,79,174.0
1336,C3,322.25,0.25,60,174.0
1337,G3,322.5,0.25,64,174.0
1338,C4,322.75,0.25,60,174.0
1339,G1,326.0,4.0,88,174.0
1340,G2,326.0,4.0,88,174.0
1341,G#3,329.25,0.25,66,174.0
1342,F3,329.5,0.25,69,174.0
1343,B2,329.75,0.25,64,174.0
1344,G1,330.0,4.0,81,174.0
1345,G2,330.0,4.0,81,174.0
1346,B-2,330.25,0.25,60,174.0
1347,E3,330.5,0.25,64,174.0
1348,G3,330.75,0.25,61,174.0
1349,C#4,331.0,0.25,76,174.0
1350,B-3,331.25,0.25,64,174.0
1351,G1,338.0,4.0,81,174.0
1352,G2,338.0,4.0,81,174.0
1353,G1,342.0,4.0,82,174.0
1354,G2,342.0,4.0,82,174.0
1355,G1,350.0,4.0,82,174.0
1356,G2,350.0,4.0,82,174.0
1357,G3,352.75,0.25,69,174.0
1358,B3,353.0,0.25,80,174.0
1359,F3,353.25,0.25,66,174.0
1360,D3,353.5,0.25,69,174.0
1361,G2,353.75,0.25,68,174.0
1362,C1,354.0,4.0,94,174.0
1363,C2,354.0,4.0,94,174.0
1364,G2,354.25,0.25,66,174.0
1365,E3,354.5,0.25,68,174.0
1366,G3,354.75,0.25,65,174.0
1367,C4,355.0,0.25,78,174.0
1368,G3,355.25,0.25,71,174.0
1369,C1,362.0,4.0,94,174.0
1370,C2,362.0,4.0,94,174.0
1371,G3,364.75,0.25,73,174.0
1372,C4,365.0,0.25,86,174.0
1373,G3,365.25,0.25,73,174.0
1374,E3,365.5,0.25,76,174.0
1375,G2,365.75,0.25,70,174.0
1376,C1,366.0,4.0,94,174.0
1377,C2,366.0,4.0,94,174.0
