,note_name,start_time,duration,velocity,tempo
0,F5,0.0,0.75,49,74.42
1,C#3,0.0,0.5,35,74.42
2,G#3,0.5,0.5,24,74.42
3,C#5,0.75,0.25,44,74.42
4,G#4,1.0,2.0,47,74.42
5,F4,1.0,2.0,20,74.42
6,C#4,1.0,2.0,20,74.42
7,G#3,1.5,19/40,21,74.42
8,G#3,2.0,19/40,23,74.42
9,G#3,2.5,19/40,19,74.42
10,B-4,3.0,1.0,50,74.42
11,F4,3.0,0.5,24,74.42
12,C#4,3.0,0.5,24,74.42
13,G#3,3.5,0.5,24,74.42
14,C5,4.0,3.0,49,74.42
15,F#4,4.0,3.0,35,74.42
16,E-4,4.0,3.0,35,74.42
17,G#3,4.5,19/40,26,74.42
18,G#3,5.0,19/40,28,74.42
19,G#3,5.5,19/40,32,74.42
20,B-3,6.0,0.5,35,74.42
21,G#3,6.5,0.5,32,74.42
22,C#5,7.0,1.0,51,74.42
23,F4,7.0,0.5,35,74.42
24,C#4,7.0,0.5,35,74.42
25,G#3,7.5,0.5,31,74.42
26,C4,8.0,3.0,45,74.42
27,F#4,8.0,0.75,50,74.42
28,E-5,8.0,0.75,50,74.42
29,G#3,8.5,1.0,32,74.42
30,G#4,8.75,0.25,52,74.42
31,F5,8.75,0.25,52,74.42
32,F#5,9.0,2.0,53,74.42
33,B-4,9.0,2.0,53,74.42
34,G#3,9.5,19/40,35,74.42
35,G#3,10.0,19/40,32,74.42
36,G#3,10.5,1.0,32,74.42
37,F5,11.0,1.0,53,74.42
38,C#4,11.0,0.5,44,74.42
39,G#4,11.0,0.5,44,74.42
40,G#3,11.5,0.5,29,74.42
41,G#4,12.0,0.5,44,74.42
42,F5,12.0,1.5,53,74.42
43,C4,12.0,2.0,42,74.42
44,G#3,12.5,0.5,26,74.42
45,F#4,13.0,0.5,34,74.42
46,E-5,13.5,0.5,49,74.42
47,G#3,13.5,0.5,27,74.42
48,C#5,14.0,0.875,46,74.42
49,F4,14.0,0.5,28,74.42
50,C#4,14.0,0.5,28,74.42
51,G#3,14.5,0.5,27,74.42
52,E-5,14.875,0.125,45,74.42
53,E-5,15.0,71/500,51,74.42
54,F#4,15.0,0.5,30,74.42
55,C4,15.0,0.5,30,74.42
56,F5,15.142,71/500,46,74.42
57,E-5,15.283,71/500,46,74.42
58,D5,15.425,71/500,51,74.42
59,G#3,15.5,0.5,31,74.42
60,E-5,15.567,71/500,46,74.42
61,F5,15.708,71/500,46,74.42
62,F#5,15.85,3/20,46,74.42
63,F5,16.0,0.75,49,74.42
64,C#3,16.0,0.5,35,74.42
65,G#3,16.5,0.5,30,74.42
66,C#5,16.75,0.25,44,74.42
67,G#4,17.0,2.0,46,74.42
68,F4,17.0,3.0,20,74.42
69,C#4,17.0,3.0,20,74.42
70,G#3,17.5,19/40,21,74.42
71,G#3,18.0,19/40,24,74.42
72,G#3,18.5,19/40,21,74.42
73,B-4,19.0,1.0,50,74.42
74,G#3,19.0,19/40,32,74.42
75,G#3,19.5,19/40,28,74.42
76,C5,20.0,3.0,49,74.42
77,F#4,20.0,3.0,35,74.42
78,E-4,20.0,3.0,35,74.42
79,G#3,20.5,19/40,31,74.42
80,G#3,21.0,19/40,29,74.42
81,G#3,21.5,19/40,32,74.42
82,B-3,22.0,0.5,35,74.42
83,G#3,22.5,0.5,32,74.42
84,C#5,23.0,1.0,51,74.42
85,F4,23.0,0.5,35,74.42
86,C#4,23.0,0.5,35,74.42
87,G#3,23.5,0.5,31,74.42
88,C4,24.0,3.0,45,74.42
89,F#4,24.0,0.75,50,74.42
90,E-5,24.0,0.75,50,74.42
91,G#3,24.5,1.0,32,74.42
92,G#4,24.75,0.25,52,74.42
93,F5,24.75,0.25,52,74.42
94,F#5,25.0,2.0,53,74.42
95,B-4,25.0,2.0,53,74.42
96,G#3,25.5,19/40,35,74.42
97,G#3,26.0,19/40,32,74.42
98,G#3,26.5,1.0,32,74.42
99,F5,27.0,1.0,53,74.42
100,C#4,27.0,0.5,42,74.42
101,G#4,27.0,0.5,42,74.42
102,G#3,27.5,0.5,29,74.42
103,G#4,28.0,0.5,44,74.42
104,F5,28.0,1.5,53,74.42
105,C4,28.0,2.0,44,74.42
106,G#3,28.5,0.5,31,74.42
107,F#4,29.0,0.5,34,74.42
108,E-5,29.5,0.5,49,74.42
109,G#3,29.5,0.5,31,74.42
110,C#5,30.0,1.0,46,74.42
111,F4,30.0,0.5,32,74.42
112,C#4,30.0,0.5,32,74.42
113,G#3,30.5,0.5,24,74.42
114,C5,31.0,0.5,51,74.42
115,F4,31.0,0.5,30,74.42
116,C#4,31.0,0.5,30,74.42
117,C#5,31.5,0.5,49,74.42
118,G#3,31.5,0.5,30,74.42
119,E-5,32.0,1.0,54,74.42
120,G#2,32.0,0.5,39,74.42
121,G#3,32.5,0.5,32,74.42
122,E-5,33.0,2.0,54,74.42
123,E-4,33.0,0.5,30,74.42
124,C4,33.0,0.5,30,74.42
125,G#3,33.5,0.5,25,74.42
126,B3,34.0,0.5,30,74.42
127,E-4,34.0,0.5,30,74.42
128,G#3,34.5,0.5,32,74.42
129,F5,35.0,1.0,54,74.42
130,C#3,35.0,0.5,34,74.42
131,B3,35.0,0.5,34,74.42
132,F4,35.0,0.5,34,74.42
133,C#4,35.5,0.5,33,74.42
134,F#5,36.0,0.5,57,74.42
135,F#3,36.0,0.5,36,74.42
136,B-3,36.0,0.5,36,74.42
137,F5,36.5,0.5,53,74.42
138,C#4,36.5,0.5,33,74.42
139,E-5,37.0,0.5,53,74.42
140,B-3,37.0,0.5,28,74.42
141,F#4,37.0,0.5,28,74.42
142,C#5,37.5,0.5,53,74.42
143,C#4,37.5,0.5,25,74.42
144,F5,38.0,2.0,55,74.42
145,C#3,38.0,0.5,36,74.42
146,G#3,38.5,0.5,32,74.42
147,F4,39.0,0.5,30,74.42
148,C#4,39.0,0.5,30,74.42
149,G#3,39.5,0.5,27,74.42
150,E-5,40.0,0.5,57,74.42
151,E-3,40.0,0.5,39,74.42
152,B4,40.5,0.5,51,74.42
153,G#3,40.5,0.5,30,74.42
154,B-4,41.0,0.5,54,74.42
155,E-4,41.0,0.5,31,74.42
156,B3,41.0,0.5,31,74.42
157,G#4,41.5,0.5,54,74.42
158,G#3,41.5,0.5,31,74.42
159,B-4,42.0,0.875,59,74.42
160,E-3,42.0,0.5,39,74.42
161,G3,42.5,0.5,34,74.42
162,B4,42.75,83/1000,51,74.42
163,B-4,42.833,83/1000,51,74.42
164,G#4,42.917,83/1000,51,74.42
165,B-4,43.0,0.75,54,74.42
166,E-4,43.0,0.5,30,74.42
167,C#4,43.0,0.5,30,74.42
168,G3,43.5,0.5,29,74.42
169,B4,43.75,0.25,47,74.42
170,G#4,44.0,1.0,51,74.42
171,G#2,44.0,0.5,39,74.42
172,G#3,44.5,0.5,30,74.42
173,E-5,45.0,1.0,62,74.42
174,E-4,45.0,0.5,34,74.42
175,B3,45.0,0.5,34,74.42
176,G#3,45.5,0.5,31,74.42
177,C#5,46.0,1.0,65,74.42
178,C#4,46.0,0.5,33,74.42
179,B-3,46.0,0.5,33,74.42
180,G#3,46.5,0.5,29,74.42
181,E5,47.0,1.0,59,74.42
182,E4,47.0,0.5,33,74.42
183,C#4,47.0,0.5,33,74.42
184,G#3,47.5,0.5,34,74.42
185,E-5,48.0,1.0,63,74.42
186,G#2,48.0,0.5,43,74.42
187,G#3,48.5,0.5,37,74.42
188,E-5,49.0,2.0,56,74.42
189,E-4,49.0,2.0,34,74.42
190,B3,49.0,2.0,34,74.42
191,G#3,49.5,19/40,39,74.42
192,G#3,50.0,19/40,43,74.42
193,G#3,50.5,19/40,40,74.42
194,F5,51.0,1.0,57,74.42
195,F4,51.0,0.5,42,74.42
196,B3,51.0,0.5,42,74.42
197,G#3,51.5,0.5,44,74.42
198,F#5,52.0,0.5,63,74.42
199,E-3,52.0,0.5,50,74.42
200,F5,52.5,0.5,54,74.42
201,F#3,52.5,0.5,36,74.42
202,E-5,53.0,0.5,54,74.42
203,F#4,53.0,0.5,40,74.42
204,B-3,53.0,0.5,40,74.42
205,C#5,53.5,0.5,54,74.42
206,F#3,53.5,0.5,32,74.42
207,F5,54.0,2.0,51,74.42
208,B-2,54.0,0.5,47,74.42
209,F3,54.5,0.5,36,74.42
210,F4,55.0,0.5,32,74.42
211,C#4,55.0,0.5,32,74.42
212,B-3,55.0,0.5,32,74.42
213,F3,55.5,0.5,31,74.42
214,F5,56.0,0.5,51,74.42
215,F2,56.0,0.5,43,74.42
216,C#5,56.5,0.5,54,74.42
217,F3,56.5,0.5,35,74.42
218,C5,57.0,0.5,54,74.42
219,F4,57.0,0.5,32,74.42
220,C#4,57.0,0.5,32,74.42
221,B-3,57.0,0.5,32,74.42
222,B-4,57.5,0.5,54,74.42
223,F3,57.5,0.5,29,74.42
224,C5,58.0,0.875,59,74.42
225,F2,58.0,0.5,43,74.42
226,F3,58.5,0.5,33,74.42
227,C#5,58.75,83/1000,52,74.42
228,C5,58.833,83/1000,52,74.42
229,B-4,58.917,83/1000,53,74.42
230,C5,59.0,0.5,55,74.42
231,F4,59.0,0.5,31,74.42
232,E-4,59.0,0.5,31,74.42
233,A3,59.0,0.5,31,74.42
234,C#5,59.5,0.5,51,74.42
235,F3,59.5,0.5,30,74.42
236,B-4,60.0,1.0,51,74.42
237,B-2,60.0,0.5,43,74.42
238,F3,60.5,0.5,37,74.42
239,F5,61.0,1.0,59,74.42
240,F4,61.0,0.5,40,74.42
241,C#4,61.0,0.5,40,74.42
242,F3,61.5,0.5,39,74.42
243,E-5,62.0,1.0,59,74.42
244,E-4,62.0,0.5,40,74.42
245,C4,62.0,0.5,40,74.42
246,F3,62.5,0.5,37,74.42
247,F#5,63.0,1.0,63,74.42
248,F#4,63.0,0.5,40,74.42
249,E-4,63.0,0.5,40,74.42
250,F3,63.5,0.5,36,74.42
251,F5,64.0,0.5,57,74.42
252,F4,64.0,0.5,40,74.42
253,C#4,64.0,0.5,40,74.42
254,C#5,64.5,0.5,53,74.42
255,F3,64.5,0.5,34,74.42
256,C5,65.0,0.5,53,74.42
257,F4,65.0,0.5,29,74.42
258,C#4,65.0,0.5,29,74.42
259,B-3,65.0,0.5,29,74.42
260,B-4,65.5,0.5,53,74.42
261,F3,65.5,0.5,31,74.42
262,C5,66.0,0.875,59,74.42
263,E-4,66.0,0.5,40,74.42
264,A3,66.0,0.5,40,74.42
265,F3,66.5,0.5,37,74.42
266,C#5,66.75,83/1000,55,74.42
267,C5,66.833,83/1000,55,74.42
268,B-4,66.917,83/1000,55,74.42
269,C5,67.0,0.75,55,74.42
270,E-4,67.0,0.5,34,74.42
271,F4,67.0,0.5,34,74.42
272,F3,67.5,0.5,39,74.42
273,C#5,67.75,0.25,51,74.42
274,B-4,68.0,1.0,51,74.42
275,B-2,68.0,0.5,43,74.42
276,F3,68.5,0.5,37,74.42
277,E-5,69.0,1.0,62,74.42
278,E-4,69.0,0.5,41,74.42
279,C4,69.0,0.5,41,74.42
280,F3,69.5,0.5,39,74.42
281,F5,70.0,1.0,65,74.42
282,F4,70.0,0.5,46,74.42
283,C#4,70.0,0.5,46,74.42
284,F3,70.5,0.5,43,74.42
285,E-5,71.0,1.0,62,74.42
286,E-4,71.0,0.5,47,74.42
287,C4,71.0,0.5,47,74.42
288,F3,71.5,0.5,43,74.42
289,F5,72.0,3.0,66,74.42
290,F4,72.0,2.0,48,74.42
291,C#4,72.0,2.0,48,74.42
292,F3,72.5,0.5,39,74.42
293,F3,73.0,0.5,39,74.42
294,F3,73.5,0.5,39,74.42
295,F4,74.0,0.5,39,74.42
296,C#4,74.0,0.5,39,74.42
297,F#3,74.5,1.0,36,74.42
298,E-5,75.0,1.0,51,74.42
299,E-4,75.0,0.5,34,74.42
300,C4,75.0,0.5,34,74.42
301,G#3,75.5,0.5,27,74.42
302,F5,76.0,0.75,49,74.42
303,C#3,76.0,0.5,35,74.42
304,G#3,76.5,0.5,30,74.42
305,C#5,76.75,0.25,45,74.42
306,G#4,77.0,2.0,49,74.42
307,F4,77.0,2.0,22,74.42
308,C#4,77.0,2.0,22,74.42
309,G#3,77.5,0.5,23,74.42
310,G#3,78.0,0.5,23,74.42
311,G#3,78.5,0.5,19,74.42
312,B-4,79.0,1.0,49,74.42
313,F4,79.0,0.5,24,74.42
314,C#4,79.0,0.5,24,74.42
315,G#3,79.5,0.5,28,74.42
316,C5,80.0,3.0,49,74.42
317,F#4,80.0,3.0,35,74.42
318,E-4,80.0,3.0,35,74.42
319,G#3,80.5,0.5,26,74.42
320,G#3,81.0,0.5,28,74.42
321,G#3,81.5,0.5,32,74.42
322,B-3,82.0,0.5,35,74.42
323,G#3,82.5,0.5,32,74.42
324,C#5,83.0,1.0,51,74.42
325,F4,83.0,0.5,35,74.42
326,C#4,83.0,0.5,35,74.42
327,G#3,83.5,0.5,29,74.42
328,C4,84.0,3.0,45,74.42
329,F#4,84.0,0.75,50,74.42
330,E-5,84.0,0.75,50,74.42
331,G#3,84.5,1.0,32,74.42
332,F5,84.75,0.25,52,74.42
333,G#4,84.75,0.25,52,74.42
334,B-4,85.0,2.0,53,74.42
335,F#5,85.0,2.0,53,74.42
336,G#3,85.5,19/40,35,74.42
337,G#3,86.0,19/40,32,74.42
338,G#3,86.5,1.0,32,74.42
339,F5,87.0,1.0,53,74.42
340,C#4,87.0,0.5,44,74.42
341,G#4,87.0,0.5,44,74.42
342,G#3,87.5,0.5,29,74.42
343,F5,88.0,1.5,53,74.42
344,C4,88.0,0.5,44,74.42
345,G#4,88.0,0.5,44,74.42
346,G#3,88.5,0.5,31,74.42
347,F#4,89.0,0.5,37,74.42
348,C4,89.0,0.5,37,74.42
349,E-5,89.5,0.5,49,74.42
350,G#3,89.5,0.5,27,74.42
351,C#5,90.0,1.0,46,74.42
352,F4,90.0,0.5,32,74.42
353,C#4,90.0,0.5,32,74.42
354,G#3,90.5,0.5,27,74.42
355,D5,91.0,71/500,51,74.42
356,F#4,91.0,0.5,30,74.42
357,C4,91.0,0.5,30,74.42
358,E-5,91.142,71/500,50,74.42
359,E5,91.283,71/500,52,74.42
360,F5,91.425,71/500,56,74.42
361,G#3,91.5,0.5,31,74.42
362,G#5,91.567,71/500,54,74.42
363,G5,91.708,71/500,53,74.42
364,F#5,91.85,3/20,52,74.42
365,F5,92.0,0.75,49,74.42
366,C#3,92.0,0.5,35,74.42
367,G#3,92.5,0.5,30,74.42
368,C#5,92.75,0.25,44,74.42
369,G#4,93.0,2.0,46,74.42
370,F4,93.0,3.0,22,74.42
371,C#4,93.0,3.0,22,74.42
372,G#3,93.5,19/40,23,74.42
373,G#3,94.0,19/40,24,74.42
374,G#3,94.5,19/40,21,74.42
375,B-4,95.0,1.0,48,74.42
376,G#3,95.0,19/40,30,74.42
377,G#3,95.5,19/40,28,74.42
378,C5,96.0,3.0,49,74.42
379,F#4,96.0,3.0,35,74.42
380,E-4,96.0,3.0,35,74.42
381,G#3,96.5,19/40,31,74.42
382,G#3,97.0,19/40,29,74.42
383,G#3,97.5,19/40,32,74.42
384,B-3,98.0,0.5,35,74.42
385,G#3,98.5,0.5,32,74.42
386,C#5,99.0,1.0,51,74.42
387,F4,99.0,0.5,35,74.42
388,C#4,99.0,0.5,35,74.42
389,G#3,99.5,0.5,31,74.42
390,C4,100.0,3.0,45,74.42
391,F#4,100.0,0.75,50,74.42
392,E-5,100.0,0.75,50,74.42
393,G#3,100.5,1.0,32,74.42
394,F5,100.75,0.25,52,74.42
395,G#4,100.75,0.25,52,74.42
396,B-4,101.0,2.0,53,74.42
397,F#5,101.0,2.0,53,74.42
398,G#3,101.5,0.5,35,74.42
399,G#3,102.0,0.5,32,74.42
400,G#3,102.5,1.0,32,74.42
401,E-4,103.0,0.5,39,74.42
402,C5,103.0,1.0,46,74.42
403,G#3,103.5,0.5,29,74.42
404,E-5,104.0,2.0,42,74.42
405,F#4,104.0,2.0,42,74.42
406,G#3,104.5,19/40,26,74.42
407,G#3,105.0,19/40,29,74.42
408,G#3,105.5,19/40,27,74.42
409,G#3,106.0,19/40,30,74.42
410,G#3,106.5,19/40,27,74.42
411,G#3,107.0,19/40,30,74.42
412,G#3,107.5,19/40,26,74.42
413,G#3,108.0,19/40,31,74.42
414,C#2,108.0,1.0,28,74.42
415,G#2,108.0,1.0,28,74.42
416,G#3,108.5,19/40,30,74.42
417,G#3,109.0,19/40,31,74.42
418,E-2,109.0,1.0,26,74.42
419,G#2,109.0,1.0,26,74.42
420,G#3,109.5,19/40,32,74.42
421,G#3,110.0,19/40,35,74.42
422,E2,110.0,1.0,32,74.42
423,C#3,110.0,1.0,32,74.42
424,G#3,110.5,19/40,33,74.42
425,G#3,111.0,19/40,31,74.42
426,E-2,111.0,1.0,30,74.42
427,C3,111.0,1.0,30,74.42
428,G#3,111.5,19/40,31,74.42
429,G#3,112.0,19/40,39,74.42
430,E-2,112.0,1.0,36,74.42
431,G#2,112.0,1.0,36,74.42
432,G#3,112.5,19/40,36,74.42
433,G#3,113.0,19/40,37,74.42
434,E2,113.0,1.0,32,74.42
435,G#2,113.0,1.0,32,74.42
436,G#3,113.5,19/40,37,74.42
437,G#3,114.0,19/40,45,74.42
438,F#2,114.0,1.0,38,74.42
439,E-3,114.0,1.0,38,74.42
440,G#3,114.5,19/40,38,74.42
441,G#3,115.0,19/40,35,74.42
442,E2,115.0,1.0,34,74.42
443,C#3,115.0,1.0,34,74.42
444,G#3,115.5,19/40,36,74.42
445,G#3,116.0,19/40,49,74.42
446,E2,116.0,1.0,42,74.42
447,C#3,116.0,1.0,42,74.42
448,G#3,116.5,19/40,42,74.42
449,G#3,117.0,19/40,42,74.42
450,G#2,117.0,1.0,42,74.42
451,E-3,117.0,1.0,42,74.42
452,G#3,117.5,19/40,42,74.42
453,G#3,118.0,19/40,49,74.42
454,C#3,118.0,1.0,45,74.42
455,E3,118.0,1.0,45,74.42
456,G#3,118.5,19/40,40,74.42
457,G#3,119.0,19/40,39,74.42
458,G#2,119.0,1.0,42,74.42
459,E-3,119.0,1.0,42,74.42
460,G#3,119.5,19/40,39,74.42
461,G#3,120.0,19/40,49,74.42
462,G#2,120.0,4.0,43,74.42
463,E-3,120.0,4.0,43,74.42
464,G#3,120.5,19/40,40,74.42
465,G#3,121.0,19/40,42,74.42
466,G#3,121.5,19/40,41,74.42
467,G#3,122.0,19/40,42,74.42
468,G#3,122.5,19/40,41,74.42
469,G#3,123.0,19/40,40,74.42
470,G#3,123.5,19/40,40,74.42
471,G#3,124.0,19/40,44,74.42
472,G#3,124.5,19/40,39,74.42
473,G#3,125.0,19/40,39,74.42
474,G#2,125.0,1.0,43,74.42
475,E-3,125.0,1.0,43,74.42
476,G#3,125.5,19/40,37,74.42
477,G#3,126.0,19/40,41,74.42
478,C#3,126.0,1.0,36,74.42
479,E3,126.0,1.0,36,74.42
480,G#3,126.5,19/40,37,74.42
481,G#3,127.0,19/40,35,74.42
482,G#2,127.0,1.0,38,74.42
483,E-3,127.0,1.0,38,74.42
484,G#3,127.5,19/40,35,74.42
485,G#3,128.0,19/40,40,74.42
486,E2,128.0,1.0,34,74.42
487,C#3,128.0,1.0,34,74.42
488,G#3,128.5,19/40,35,74.42
489,G#3,129.0,19/40,35,74.42
490,G#2,129.0,1.0,38,74.42
491,E-3,129.0,1.0,38,74.42
492,G#3,129.5,19/40,31,74.42
493,G#3,130.0,19/40,38,74.42
494,E2,130.0,1.0,34,74.42
495,C#3,130.0,1.0,34,74.42
496,G#3,130.5,19/40,35,74.42
497,G#3,131.0,19/40,35,74.42
498,E-2,131.0,1.0,34,74.42
499,C3,131.0,1.0,34,74.42
500,G#3,131.5,19/40,33,74.42
501,G#3,132.0,19/40,38,74.42
502,E2,132.0,1.0,32,74.42
503,C#3,132.0,1.0,32,74.42
504,G#3,132.5,19/40,40,74.42
505,G#3,133.0,19/40,41,74.42
506,E-2,133.0,1.0,36,74.42
507,C3,133.0,1.0,36,74.42
508,G#3,133.5,19/40,44,74.42
509,G#3,134.0,19/40,46,74.42
510,E2,134.0,1.0,34,74.42
511,C#3,134.0,1.0,34,74.42
512,G#3,134.5,19/40,48,74.42
513,G#3,135.0,19/40,49,74.42
514,E-2,135.0,1.0,37,74.42
515,E-3,135.0,1.0,37,74.42
516,G#3,135.5,19/40,51,74.42
517,G#3,136.0,19/40,53,74.42
518,C#2,136.0,1.0,41,74.42
519,E3,136.0,1.0,41,74.42
520,G#4,136.5,19/40,49,74.42
521,G#3,136.5,19/40,49,74.42
522,G#4,137.0,19/40,50,74.42
523,G#3,137.0,19/40,50,74.42
524,G#2,137.0,4.0,44,74.42
525,E-3,137.0,4.0,44,74.42
526,G#4,137.5,19/40,52,74.42
527,G#3,137.5,19/40,52,74.42
528,G#4,138.0,19/40,52,74.42
529,G#3,138.0,19/40,52,74.42
530,G#4,138.5,19/40,54,74.42
531,G#3,138.5,19/40,54,74.42
532,G#4,139.0,19/40,55,74.42
533,G#3,139.0,19/40,55,74.42
534,G#4,139.5,19/40,56,74.42
535,G#3,139.5,19/40,56,74.42
536,G#4,140.0,19/40,56,74.42
537,G#3,140.0,19/40,56,74.42
538,G#4,140.5,19/40,54,74.42
539,G#3,140.5,19/40,54,74.42
540,G#4,141.0,19/40,54,74.42
541,G#3,141.0,19/40,54,74.42
542,C#2,141.0,1.0,57,74.42
543,G#2,141.0,1.0,57,74.42
544,G#4,141.5,19/40,54,74.42
545,G#3,141.5,19/40,54,74.42
546,C#4,142.0,1.0,67,74.42
547,G#4,142.0,19/40,56,74.42
548,G#3,142.0,19/40,56,74.42
549,E-2,142.0,1.0,56,74.42
550,G#2,142.0,1.0,56,74.42
551,G#4,142.5,19/40,55,74.42
552,G#3,142.5,19/40,55,74.42
553,C4,143.0,1.0,59,74.42
554,G#4,143.0,19/40,53,74.42
555,G#3,143.0,19/40,53,74.42
556,E2,143.0,1.0,62,74.42
557,C#3,143.0,1.0,62,74.42
558,G#4,143.5,19/40,53,74.42
559,G#3,143.5,19/40,53,74.42
560,G#4,144.0,19/40,60,74.42
561,G#3,144.0,19/40,60,74.42
562,E-2,144.0,1.0,57,74.42
563,C3,144.0,1.0,57,74.42
564,G#4,144.5,19/40,56,74.42
565,G#3,144.5,19/40,56,74.42
566,G#4,145.0,19/40,56,74.42
567,G#3,145.0,19/40,56,74.42
568,E-2,145.0,1.0,62,74.42
569,G#2,145.0,1.0,62,74.42
570,G#4,145.5,19/40,56,74.42
571,G#3,145.5,19/40,56,74.42
572,E-4,146.0,1.0,71,74.42
573,G#4,146.0,19/40,61,74.42
574,G#3,146.0,19/40,61,74.42
575,E2,146.0,1.0,61,74.42
576,G#2,146.0,1.0,61,74.42
577,G#4,146.5,19/40,56,74.42
578,G#3,146.5,19/40,56,74.42
579,C#4,147.0,1.0,68,74.42
580,G#4,147.0,19/40,56,74.42
581,G#3,147.0,19/40,56,74.42
582,F#2,147.0,1.0,66,74.42
583,E-3,147.0,1.0,66,74.42
584,G#4,147.5,19/40,56,74.42
585,G#3,147.5,19/40,56,74.42
586,C#4,148.0,1.0,68,74.42
587,G#4,148.0,19/40,68,74.42
588,G#3,148.0,19/40,68,74.42
589,E2,148.0,1.0,62,74.42
590,C#3,148.0,1.0,62,74.42
591,G#4,148.5,19/40,62,74.42
592,G#3,148.5,19/40,62,74.42
593,E-4,149.0,1.0,73,74.42
594,G#4,149.0,19/40,62,74.42
595,G#3,149.0,19/40,62,74.42
596,E2,149.0,1.0,64,74.42
597,C#3,149.0,1.0,64,74.42
598,G#4,149.5,19/40,62,74.42
599,G#3,149.5,19/40,62,74.42
600,E4,150.0,1.0,78,74.42
601,G#4,150.0,19/40,64,74.42
602,G#3,150.0,19/40,64,74.42
603,G#2,150.0,1.0,67,74.42
604,E-3,150.0,1.0,67,74.42
605,G#4,150.5,19/40,62,74.42
606,G#3,150.5,19/40,62,74.42
607,E-4,151.0,1.0,73,74.42
608,G#4,151.0,19/40,62,74.42
609,G#3,151.0,19/40,62,74.42
610,C#3,151.0,1.0,72,74.42
611,E3,151.0,1.0,72,74.42
612,G#4,151.5,19/40,62,74.42
613,G#3,151.5,19/40,62,74.42
614,E-4,152.0,4.0,74,74.42
615,G#4,152.0,19/40,73,74.42
616,G#3,152.0,19/40,73,74.42
617,G#2,152.0,0.75,67,74.42
618,E-3,152.0,0.75,67,74.42
619,G#4,152.5,19/40,68,74.42
620,G#3,152.5,19/40,68,74.42
621,G#1,152.75,0.25,82,74.42
622,G#4,153.0,19/40,70,74.42
623,G#3,153.0,19/40,70,74.42
624,G#2,153.0,4.0,68,74.42
625,E-3,153.0,4.0,68,74.42
626,G#4,153.5,19/40,71,74.42
627,G#3,153.5,19/40,71,74.42
628,G#4,154.0,19/40,72,74.42
629,G#3,154.0,19/40,72,74.42
630,G#4,154.5,19/40,72,74.42
631,G#3,154.5,19/40,72,74.42
632,G#4,155.0,19/40,73,74.42
633,G#3,155.0,19/40,73,74.42
634,G#4,155.5,19/40,74,74.42
635,G#3,155.5,19/40,74,74.42
636,E4,156.0,2.0,90,74.42
637,G#4,156.0,2.0,90,74.42
638,B3,156.0,19/40,81,74.42
639,B4,156.0,19/40,81,74.42
640,B3,156.5,19/40,76,74.42
641,B4,156.5,19/40,76,74.42
642,B3,157.0,19/40,76,74.42
643,B4,157.0,19/40,76,74.42
644,E1,157.0,2.0,81,74.42
645,E2,157.0,2.0,81,74.42
646,B3,157.5,19/40,72,74.42
647,B4,157.5,19/40,72,74.42
648,E-4,158.0,2.0,90,74.42
649,G#4,158.0,2.0,90,74.42
650,B3,158.0,19/40,81,74.42
651,B4,158.0,19/40,81,74.42
652,B3,158.5,19/40,76,74.42
653,B4,158.5,19/40,76,74.42
654,B3,159.0,19/40,76,74.42
655,B4,159.0,19/40,76,74.42
656,B1,159.0,2.0,76,74.42
657,B2,159.0,2.0,76,74.42
658,B3,159.5,19/40,72,74.42
659,B4,159.5,19/40,72,74.42
660,E4,160.0,2.0,90,74.42
661,G#4,160.0,2.0,90,74.42
662,B3,160.0,19/40,81,74.42
663,B4,160.0,19/40,81,74.42
664,B3,160.5,19/40,76,74.42
665,B4,160.5,19/40,76,74.42
666,B3,161.0,19/40,76,74.42
667,B4,161.0,19/40,76,74.42
668,E1,161.0,2.0,81,74.42
669,E2,161.0,2.0,81,74.42
670,B3,161.5,19/40,72,74.42
671,B4,161.5,19/40,72,74.42
672,E-4,162.0,2.0,90,74.42
673,G#4,162.0,2.0,90,74.42
674,B3,162.0,19/40,81,74.42
675,B4,162.0,19/40,81,74.42
676,B3,162.5,19/40,76,74.42
677,B4,162.5,19/40,76,74.42
678,B3,163.0,19/40,76,74.42
679,B4,163.0,19/40,76,74.42
680,B1,163.0,1.5,78,74.42
681,B2,163.0,1.5,78,74.42
682,B3,163.5,19/40,76,74.42
683,B4,163.5,19/40,76,74.42
684,E-4,164.0,2.0,90,74.42
685,G#4,164.0,2.0,90,74.42
686,B3,164.0,19/40,81,74.42
687,B4,164.0,19/40,81,74.42
688,B3,164.5,19/40,76,74.42
689,B4,164.5,19/40,76,74.42
690,B-1,164.5,0.5,81,74.42
691,B-2,164.5,0.5,81,74.42
692,B3,165.0,19/40,76,74.42
693,B4,165.0,19/40,76,74.42
694,G#1,165.0,2.0,81,74.42
695,G#2,165.0,2.0,81,74.42
696,B3,165.5,19/40,72,74.42
697,B4,165.5,19/40,72,74.42
698,E-4,166.0,2.0,90,74.42
699,G4,166.0,2.0,90,74.42
700,B3,166.0,19/40,81,74.42
701,B4,166.0,19/40,81,74.42
702,B3,166.5,19/40,76,74.42
703,B4,166.5,19/40,76,74.42
704,B3,167.0,19/40,76,74.42
705,B4,167.0,19/40,76,74.42
706,E-2,167.0,2.0,78,74.42
707,E-3,167.0,2.0,78,74.42
708,B3,167.5,19/40,72,74.42
709,B4,167.5,19/40,72,74.42
710,E-4,168.0,0.5,74,74.42
711,G#4,168.0,0.5,74,74.42
712,B3,168.0,0.5,74,74.42
713,B4,168.0,0.5,74,74.42
714,G#3,168.5,19/40,63,74.42
715,G#3,169.0,19/40,57,74.42
716,G#1,169.0,2.0,73,74.42
717,G#2,169.0,2.0,73,74.42
718,G#3,169.5,19/40,49,74.42
719,G#3,170.0,19/40,46,74.42
720,G#3,170.5,19/40,42,74.42
721,G#3,171.0,19/40,39,74.42
722,G#3,171.5,19/40,36,74.42
723,G#3,172.0,19/40,35,74.42
724,G#3,172.5,19/40,33,74.42
725,G#3,173.0,19/40,33,74.42
726,C#2,173.0,1.0,32,74.42
727,G#2,173.0,1.0,32,74.42
728,G#3,173.5,19/40,33,74.42
729,G#3,174.0,19/40,35,74.42
730,E-2,174.0,1.0,28,74.42
731,G#2,174.0,1.0,28,74.42
732,G#3,174.5,19/40,33,74.42
733,G#3,175.0,19/40,31,74.42
734,E2,175.0,1.0,32,74.42
735,C#3,175.0,1.0,32,74.42
736,G#3,175.5,19/40,31,74.42
737,G#3,176.0,19/40,39,74.42
738,E-2,176.0,1.0,30,74.42
739,C3,176.0,1.0,30,74.42
740,G#3,176.5,19/40,36,74.42
741,G#3,177.0,19/40,37,74.42
742,E-2,177.0,1.0,36,74.42
743,G#2,177.0,1.0,36,74.42
744,G#3,177.5,19/40,37,74.42
745,G#3,178.0,19/40,45,74.42
746,E2,178.0,1.0,32,74.42
747,G#2,178.0,1.0,32,74.42
748,G#3,178.5,19/40,38,74.42
749,G#3,179.0,19/40,35,74.42
750,F#2,179.0,1.0,38,74.42
751,E-3,179.0,1.0,38,74.42
752,G#3,179.5,19/40,36,74.42
753,G#3,180.0,19/40,49,74.42
754,E2,180.0,1.0,34,74.42
755,C#3,180.0,1.0,34,74.42
756,G#3,180.5,19/40,42,74.42
757,G#3,181.0,19/40,42,74.42
758,E2,181.0,1.0,42,74.42
759,C#3,181.0,1.0,42,74.42
760,G#3,181.5,19/40,42,74.42
761,G#3,182.0,19/40,49,74.42
762,G#2,182.0,1.0,42,74.42
763,E-3,182.0,1.0,42,74.42
764,G#3,182.5,19/40,40,74.42
765,G#3,183.0,19/40,39,74.42
766,C#3,183.0,1.0,45,74.42
767,E3,183.0,1.0,45,74.42
768,G#3,183.5,19/40,39,74.42
769,G#3,184.0,19/40,49,74.42
770,G#2,184.0,1.0,42,74.42
771,E-3,184.0,1.0,42,74.42
772,G#3,184.5,19/40,40,74.42
773,G#3,185.0,19/40,42,74.42
774,G#2,185.0,4.0,43,74.42
775,E-3,185.0,4.0,43,74.42
776,G#3,185.5,19/40,41,74.42
777,G#3,186.0,19/40,42,74.42
778,G#3,186.5,19/40,41,74.42
779,G#3,187.0,19/40,40,74.42
780,G#3,187.5,19/40,40,74.42
781,G#3,188.0,19/40,44,74.42
782,G#3,188.5,19/40,39,74.42
783,G#3,189.0,19/40,39,74.42
784,G#3,189.5,19/40,37,74.42
785,G#3,190.0,19/40,41,74.42
786,G#2,190.0,1.0,43,74.42
787,E-3,190.0,1.0,43,74.42
788,G#3,190.5,19/40,37,74.42
789,G#3,191.0,19/40,35,74.42
790,C#3,191.0,1.0,36,74.42
791,E3,191.0,1.0,36,74.42
792,G#3,191.5,19/40,35,74.42
793,G#3,192.0,19/40,40,74.42
794,G#2,192.0,1.0,38,74.42
795,E-3,192.0,1.0,38,74.42
796,G#3,192.5,19/40,35,74.42
797,G#3,193.0,19/40,35,74.42
798,E2,193.0,1.0,34,74.42
799,C#3,193.0,1.0,34,74.42
800,G#3,193.5,19/40,31,74.42
801,G#3,194.0,19/40,38,74.42
802,G#2,194.0,1.0,38,74.42
803,E-3,194.0,1.0,38,74.42
804,G#3,194.5,19/40,35,74.42
805,G#3,195.0,19/40,35,74.42
806,E2,195.0,1.0,34,74.42
807,C#3,195.0,1.0,34,74.42
808,G#3,195.5,19/40,33,74.42
809,G#3,196.0,19/40,38,74.42
810,E-2,196.0,1.0,34,74.42
811,C3,196.0,1.0,34,74.42
812,G#3,196.5,19/40,40,74.42
813,G#3,197.0,19/40,41,74.42
814,E2,197.0,1.0,32,74.42
815,C#3,197.0,1.0,32,74.42
816,G#3,197.5,19/40,44,74.42
817,G#3,198.0,19/40,46,74.42
818,E-2,198.0,1.0,36,74.42
819,C3,198.0,1.0,36,74.42
820,G#3,198.5,19/40,48,74.42
821,G#3,199.0,19/40,49,74.42
822,E2,199.0,1.0,34,74.42
823,C#3,199.0,1.0,34,74.42
824,G#3,199.5,19/40,51,74.42
825,G#3,200.0,19/40,53,74.42
826,E-2,200.0,1.0,37,74.42
827,E-3,200.0,1.0,37,74.42
828,G#4,200.5,19/40,49,74.42
829,G#3,200.5,19/40,49,74.42
830,G#4,201.0,19/40,50,74.42
831,G#3,201.0,19/40,50,74.42
832,C#2,201.0,1.0,41,74.42
833,E3,201.0,1.0,41,74.42
834,G#4,201.5,19/40,52,74.42
835,G#3,201.5,19/40,52,74.42
836,G#4,202.0,19/40,52,74.42
837,G#3,202.0,19/40,52,74.42
838,G#2,202.0,4.0,44,74.42
839,E-3,202.0,4.0,44,74.42
840,G#4,202.5,19/40,54,74.42
841,G#3,202.5,19/40,54,74.42
842,G#4,203.0,19/40,55,74.42
843,G#3,203.0,19/40,55,74.42
844,G#4,203.5,19/40,56,74.42
845,G#3,203.5,19/40,56,74.42
846,G#4,204.0,19/40,56,74.42
847,G#3,204.0,19/40,56,74.42
848,G#4,204.5,19/40,54,74.42
849,G#3,204.5,19/40,54,74.42
850,G#4,205.0,19/40,54,74.42
851,G#3,205.0,19/40,54,74.42
852,G#4,205.5,19/40,54,74.42
853,G#3,205.5,19/40,54,74.42
854,C#4,206.0,1.0,67,74.42
855,G#4,206.0,19/40,56,74.42
856,G#3,206.0,19/40,56,74.42
857,C#2,206.0,1.0,57,74.42
858,G#2,206.0,1.0,57,74.42
859,G#4,206.5,19/40,55,74.42
860,G#3,206.5,19/40,55,74.42
861,C4,207.0,1.0,59,74.42
862,G#4,207.0,19/40,53,74.42
863,G#3,207.0,19/40,53,74.42
864,E-2,207.0,1.0,56,74.42
865,G#2,207.0,1.0,56,74.42
866,G#4,207.5,19/40,53,74.42
867,G#3,207.5,19/40,53,74.42
868,G#4,208.0,19/40,60,74.42
869,G#3,208.0,19/40,60,74.42
870,E2,208.0,1.0,62,74.42
871,C#3,208.0,1.0,62,74.42
872,G#4,208.5,19/40,56,74.42
873,G#3,208.5,19/40,56,74.42
874,G#4,209.0,19/40,56,74.42
875,G#3,209.0,19/40,56,74.42
876,E-2,209.0,1.0,57,74.42
877,C3,209.0,1.0,57,74.42
878,G#4,209.5,19/40,56,74.42
879,G#3,209.5,19/40,56,74.42
880,E-4,210.0,1.0,71,74.42
881,G#4,210.0,19/40,61,74.42
882,G#3,210.0,19/40,61,74.42
883,E-2,210.0,1.0,62,74.42
884,G#2,210.0,1.0,62,74.42
885,G#4,210.5,19/40,56,74.42
886,G#3,210.5,19/40,56,74.42
887,C#4,211.0,1.0,68,74.42
888,G#4,211.0,19/40,56,74.42
889,G#3,211.0,19/40,56,74.42
890,E2,211.0,1.0,61,74.42
891,G#2,211.0,1.0,61,74.42
892,G#4,211.5,19/40,56,74.42
893,G#3,211.5,19/40,56,74.42
894,C#4,212.0,1.0,68,74.42
895,G#4,212.0,19/40,68,74.42
896,G#3,212.0,19/40,68,74.42
897,F#2,212.0,1.0,66,74.42
898,E-3,212.0,1.0,66,74.42
899,G#4,212.5,19/40,62,74.42
900,G#3,212.5,19/40,62,74.42
901,E-4,213.0,1.0,73,74.42
902,G#4,213.0,19/40,62,74.42
903,G#3,213.0,19/40,62,74.42
904,E2,213.0,1.0,62,74.42
905,C#3,213.0,1.0,62,74.42
906,G#4,213.5,19/40,62,74.42
907,G#3,213.5,19/40,62,74.42
908,E4,214.0,1.0,78,74.42
909,G#4,214.0,19/40,64,74.42
910,G#3,214.0,19/40,64,74.42
911,E2,214.0,1.0,64,74.42
912,C#3,214.0,1.0,64,74.42
913,G#4,214.5,19/40,62,74.42
914,G#3,214.5,19/40,62,74.42
915,E-4,215.0,1.0,73,74.42
916,G#4,215.0,19/40,62,74.42
917,G#3,215.0,19/40,62,74.42
918,G#2,215.0,1.0,67,74.42
919,E-3,215.0,1.0,67,74.42
920,G#4,215.5,19/40,62,74.42
921,G#3,215.5,19/40,62,74.42
922,E-4,216.0,4.0,74,74.42
923,G#4,216.0,19/40,73,74.42
924,G#3,216.0,19/40,73,74.42
925,C#3,216.0,1.0,72,74.42
926,E3,216.0,1.0,72,74.42
927,G#4,216.5,19/40,68,74.42
928,G#3,216.5,19/40,68,74.42
929,G#4,217.0,19/40,70,74.42
930,G#3,217.0,19/40,70,74.42
931,G#2,217.0,0.75,67,74.42
932,E-3,217.0,0.75,67,74.42
933,G#4,217.5,19/40,71,74.42
934,G#3,217.5,19/40,71,74.42
935,G#1,217.75,0.25,82,74.42
936,G#4,218.0,19/40,72,74.42
937,G#3,218.0,19/40,72,74.42
938,G#2,218.0,4.0,68,74.42
939,E-3,218.0,4.0,68,74.42
940,G#4,218.5,19/40,72,74.42
941,G#3,218.5,19/40,72,74.42
942,G#4,219.0,19/40,73,74.42
943,G#3,219.0,19/40,73,74.42
944,G#4,219.5,19/40,74,74.42
945,G#3,219.5,19/40,74,74.42
946,E4,220.0,2.0,90,74.42
947,G#4,220.0,2.0,90,74.42
948,B3,220.0,19/40,81,74.42
949,B4,220.0,19/40,81,74.42
950,B3,220.5,19/40,76,74.42
951,B4,220.5,19/40,76,74.42
952,B3,221.0,19/40,76,74.42
953,B4,221.0,19/40,76,74.42
954,B3,221.5,19/40,72,74.42
955,B4,221.5,19/40,72,74.42
956,E-4,222.0,2.0,90,74.42
957,G#4,222.0,2.0,90,74.42
958,B3,222.0,19/40,81,74.42
959,B4,222.0,19/40,81,74.42
960,E1,222.0,2.0,81,74.42
961,E2,222.0,2.0,81,74.42
962,B3,222.5,19/40,76,74.42
963,B4,222.5,19/40,76,74.42
964,B3,223.0,19/40,76,74.42
965,B4,223.0,19/40,76,74.42
966,B3,223.5,19/40,72,74.42
967,B4,223.5,19/40,72,74.42
968,E4,224.0,2.0,90,74.42
969,G#4,224.0,2.0,90,74.42
970,B3,224.0,19/40,81,74.42
971,B4,224.0,19/40,81,74.42
972,B1,224.0,2.0,76,74.42
973,B2,224.0,2.0,76,74.42
974,B3,224.5,19/40,76,74.42
975,B4,224.5,19/40,76,74.42
976,B3,225.0,19/40,76,74.42
977,B4,225.0,19/40,76,74.42
978,B3,225.5,19/40,72,74.42
979,B4,225.5,19/40,72,74.42
980,E-4,226.0,2.0,90,74.42
981,G#4,226.0,2.0,90,74.42
982,B3,226.0,19/40,81,74.42
983,B4,226.0,19/40,81,74.42
984,E1,226.0,2.0,81,74.42
985,E2,226.0,2.0,81,74.42
986,B3,226.5,19/40,76,74.42
987,B4,226.5,19/40,76,74.42
988,B3,227.0,19/40,76,74.42
989,B4,227.0,19/40,76,74.42
990,B3,227.5,19/40,76,74.42
991,B4,227.5,19/40,76,74.42
992,E-4,228.0,2.0,90,74.42
993,G#4,228.0,2.0,90,74.42
994,B3,228.0,19/40,81,74.42
995,B4,228.0,19/40,81,74.42
996,B1,228.0,1.5,78,74.42
997,B2,228.0,1.5,78,74.42
998,B3,228.5,19/40,76,74.42
999,B4,228.5,19/40,76,74.42
1000,B3,229.0,19/40,76,74.42
1001,B4,229.0,19/40,76,74.42
1002,B3,229.5,19/40,72,74.42
1003,B4,229.5,19/40,72,74.42
1004,B-1,229.5,0.5,81,74.42
1005,B-2,229.5,0.5,81,74.42
1006,E-4,230.0,2.0,90,74.42
1007,G4,230.0,2.0,90,74.42
1008,B3,230.0,19/40,81,74.42
1009,B4,230.0,19/40,81,74.42
1010,G#1,230.0,2.0,81,74.42
1011,G#2,230.0,2.0,81,74.42
1012,B3,230.5,19/40,76,74.42
1013,B4,230.5,19/40,76,74.42
1014,B3,231.0,19/40,76,74.42
1015,B4,231.0,19/40,76,74.42
1016,B3,231.5,19/40,72,74.42
1017,B4,231.5,19/40,72,74.42
1018,E-4,232.0,0.5,74,74.42
1019,G#4,232.0,0.5,74,74.42
1020,B3,232.0,0.5,74,74.42
1021,B4,232.0,0.5,74,74.42
1022,E-2,232.0,2.0,78,74.42
1023,E-3,232.0,2.0,78,74.42
1024,G#4,232.5,19/40,63,74.42
1025,G#4,233.0,19/40,57,74.42
1026,G#4,233.5,19/40,55,74.42
1027,G#4,234.0,19/40,52,74.42
1028,G#1,234.0,2.0,73,74.42
1029,G#2,234.0,2.0,73,74.42
1030,G#4,234.5,19/40,50,74.42
1031,G#4,235.0,19/40,48,74.42
1032,G#4,235.5,19/40,48,74.42
1033,G#4,236.0,19/40,44,74.42
1034,C4,236.0,2.0,52,74.42
1035,C5,236.0,2.0,52,74.42
1036,G#4,236.5,19/40,44,74.42
1037,G#4,237.0,19/40,44,74.42
1038,G#4,237.5,19/40,44,74.42
1039,G#4,238.0,19/40,46,74.42
1040,C#4,238.0,2.0,54,74.42
1041,C#5,238.0,2.0,54,74.42
1042,G#2,238.0,2.0,39,74.42
1043,F#2,238.0,2.0,39,74.42
1044,F#3,238.0,2.0,39,74.42
1045,G#4,238.5,19/40,46,74.42
1046,G#4,239.0,19/40,46,74.42
1047,G#4,239.5,19/40,46,74.42
1048,G#4,240.0,19/40,46,74.42
1049,G#2,240.0,2.0,33,74.42
1050,E-4,240.0,3.0,58,74.42
1051,C#5,240.0,3.0,58,74.42
1052,E-5,240.0,3.0,58,74.42
1053,E2,240.0,1.0,36,74.42
1054,E3,240.0,1.0,36,74.42
1055,G#4,240.5,19/40,46,74.42
1056,G#4,241.0,19/40,46,74.42
1057,C#2,241.0,1.0,34,74.42
1058,C#3,241.0,1.0,34,74.42
1059,G#4,241.5,19/40,46,74.42
1060,G#4,242.0,19/40,46,74.42
1061,G#1,242.0,3.0,40,74.42
1062,G#2,242.0,3.0,40,74.42
1063,G#4,242.5,19/40,47,74.42
1064,G#4,243.0,19/40,47,74.42
1065,E-4,243.0,1.0,57,74.42
1066,C5,243.0,1.0,57,74.42
1067,E-5,243.0,1.0,57,74.42
1068,G#4,243.5,19/40,48,74.42
1069,G#4,244.0,19/40,48,74.42
1070,E4,244.0,1.0,60,74.42
1071,E-5,244.0,1.0,60,74.42
1072,E5,244.0,1.0,60,74.42
1073,G#4,244.5,19/40,48,74.42
1074,G#4,245.0,19/40,48,74.42
1075,E4,245.0,1.0,56,74.42
1076,C#5,245.0,1.0,56,74.42
1077,E5,245.0,1.0,56,74.42
1078,G#2,245.0,1.0,40,74.42
1079,G#3,245.0,1.0,40,74.42
1080,G#4,245.5,19/40,48,74.42
1081,G#4,246.0,19/40,46,74.42
1082,E-4,246.0,1.0,58,74.42
1083,C#5,246.0,1.0,58,74.42
1084,E-5,246.0,1.0,58,74.42
1085,C#3,246.0,2.0,45,74.42
1086,G#3,246.0,2.0,45,74.42
1087,G#4,246.5,19/40,46,74.42
1088,G#4,247.0,19/40,46,74.42
1089,E-4,247.0,1.0,52,74.42
1090,C5,247.0,1.0,52,74.42
1091,E-5,247.0,1.0,52,74.42
1092,G#4,247.5,19/40,46,74.42
1093,G#4,248.0,19/40,46,74.42
1094,C#4,248.0,4.0,55,74.42
1095,C#5,248.0,4.0,55,74.42
1096,G#2,248.0,2.0,40,74.42
1097,G#3,248.0,2.0,40,74.42
1098,G#4,248.5,19/40,46,74.42
1099,F#4,249.0,19/40,45,74.42
1100,F#4,249.5,19/40,41,74.42
1101,G#4,250.0,19/40,45,74.42
1102,A2,250.0,2.0,49,74.42
1103,A3,250.0,2.0,49,74.42
1104,G#4,250.5,19/40,41,74.42
1105,A4,251.0,19/40,44,74.42
1106,A4,251.5,19/40,40,74.42
1107,G#3,252.0,19/40,39,74.42
1108,C4,252.0,2.0,50,74.42
1109,E-4,252.0,2.0,50,74.42
1110,G#4,252.0,2.0,50,74.42
1111,G#2,252.0,1.0,46,74.42
1112,G#3,252.0,1.0,46,74.42
1113,G#3,252.5,19/40,39,74.42
1114,G#3,253.0,19/40,39,74.42
1115,F#2,253.0,1.0,40,74.42
1116,F#3,253.0,1.0,40,74.42
1117,G#3,253.5,19/40,39,74.42
1118,G#3,254.0,19/40,38,74.42
1119,G#2,254.0,2.0,49,74.42
1120,C#4,254.0,1.0,49,74.42
1121,E4,254.0,1.0,49,74.42
1122,G#4,254.0,1.0,49,74.42
1123,G#3,254.5,19/40,38,74.42
1124,G#3,255.0,19/40,38,74.42
1125,B-3,255.0,1.0,49,74.42
1126,C#4,255.0,1.0,49,74.42
1127,G#4,255.0,1.0,49,74.42
1128,G#3,255.5,19/40,38,74.42
1129,G#3,256.0,19/40,39,74.42
1130,C4,256.0,1.0,50,74.42
1131,E-4,256.0,1.0,50,74.42
1132,G#4,256.0,1.0,50,74.42
1133,C#2,256.0,2.0,40,74.42
1134,G#2,256.0,2.0,40,74.42
1135,G#3,256.5,19/40,39,74.42
1136,G#3,257.0,19/40,38,74.42
1137,C#4,257.0,1.0,49,74.42
1138,E4,257.0,1.0,49,74.42
1139,G#4,257.0,1.0,49,74.42
1140,G#3,257.5,19/40,38,74.42
1141,G#3,258.0,19/40,38,74.42
1142,B-3,258.0,1.0,49,74.42
1143,C#4,258.0,1.0,49,74.42
1144,G#4,258.0,1.0,49,74.42
1145,G#1,258.0,1.0,39,74.42
1146,G#2,258.0,1.0,39,74.42
1147,G#3,258.5,19/40,38,74.42
1148,G#3,259.0,19/40,38,74.42
1149,C#4,259.0,1.0,49,74.42
1150,E4,259.0,1.0,49,74.42
1151,G#4,259.0,1.0,49,74.42
1152,C#2,259.0,3.0,45,74.42
1153,G#2,259.0,3.0,45,74.42
1154,G#3,259.5,19/40,38,74.42
1155,G#3,260.0,19/40,42,74.42
1156,C#4,260.0,1.0,53,74.42
1157,E4,260.0,1.0,53,74.42
1158,G#4,260.0,1.0,53,74.42
1159,G#3,260.5,19/40,42,74.42
1160,G#3,261.0,19/40,39,74.42
1161,C4,261.0,1.0,50,74.42
1162,E-4,261.0,1.0,50,74.42
1163,G#4,261.0,1.0,50,74.42
1164,G#3,261.5,19/40,39,74.42
1165,G#3,262.0,19/40,41,74.42
1166,E-4,262.0,1.0,52,74.42
1167,F#4,262.0,1.0,52,74.42
1168,G#4,262.0,1.0,52,74.42
1169,C#2,262.0,1.0,41,74.42
1170,G#2,262.0,1.0,41,74.42
1171,G#3,262.5,19/40,41,74.42
1172,G#3,263.0,19/40,39,74.42
1173,C#4,263.0,1.0,50,74.42
1174,E4,263.0,1.0,50,74.42
1175,G#4,263.0,1.0,50,74.42
1176,G#1,263.0,2.0,36,74.42
1177,G#2,263.0,2.0,36,74.42
1178,G#3,263.5,19/40,39,74.42
1179,G#3,264.0,19/40,39,74.42
1180,C4,264.0,4.0,50,74.42
1181,E-4,264.0,4.0,50,74.42
1182,G#4,264.0,4.0,50,74.42
1183,G#3,264.5,19/40,39,74.42
1184,G#3,265.0,19/40,39,74.42
1185,C#2,265.0,1.0,38,74.42
1186,G#2,265.0,1.0,38,74.42
1187,G#3,265.5,19/40,39,74.42
1188,G#3,266.0,19/40,39,74.42
1189,G#1,266.0,4.0,38,74.42
1190,G#2,266.0,4.0,38,74.42
1191,G#3,266.5,19/40,39,74.42
1192,G#3,267.0,19/40,39,74.42
1193,G#3,267.5,19/40,39,74.42
1194,G#4,268.0,19/40,48,74.42
1195,E-4,268.0,2.0,54,74.42
1196,C4,268.0,2.0,54,74.42
1197,C5,268.0,2.0,54,74.42
1198,G#4,268.5,19/40,53,74.42
1199,G#4,269.0,19/40,57,74.42
1200,G#4,269.5,19/40,57,74.42
1201,G#4,270.0,19/40,53,74.42
1202,G#2,270.0,19/40,40,74.42
1203,C#4,270.0,2.0,64,74.42
1204,C#5,270.0,2.0,64,74.42
1205,F#2,270.0,2.0,44,74.42
1206,F#3,270.0,2.0,44,74.42
1207,G#4,270.5,19/40,58,74.42
1208,G#2,270.5,19/40,40,74.42
1209,G#4,271.0,19/40,59,74.42
1210,G#2,271.0,19/40,40,74.42
1211,G#4,271.5,19/40,61,74.42
1212,G#2,271.5,19/40,40,74.42
1213,G#4,272.0,19/40,57,74.42
1214,G#2,272.0,2.0,41,74.42
1215,E-4,272.0,3.0,72,74.42
1216,C#5,272.0,3.0,72,74.42
1217,E-5,272.0,3.0,72,74.42
1218,E2,272.0,1.0,46,74.42
1219,E3,272.0,1.0,46,74.42
1220,G#4,272.5,19/40,66,74.42
1221,G#4,273.0,19/40,68,74.42
1222,C#2,273.0,1.0,46,74.42
1223,C#3,273.0,1.0,46,74.42
1224,G#4,273.5,19/40,69,74.42
1225,G#4,274.0,19/40,71,74.42
1226,G#1,274.0,4.0,55,74.42
1227,G#2,274.0,4.0,55,74.42
1228,G#4,274.5,19/40,73,74.42
1229,G#4,275.0,19/40,63,74.42
1230,E-4,275.0,1.0,77,74.42
1231,C5,275.0,1.0,77,74.42
1232,E-5,275.0,1.0,77,74.42
1233,G#4,275.5,19/40,73,74.42
1234,G#4,276.0,19/40,67,74.42
1235,E4,276.0,1.0,84,74.42
1236,E-5,276.0,1.0,84,74.42
1237,E5,276.0,1.0,84,74.42
1238,G#4,276.5,19/40,67,74.42
1239,G#4,277.0,19/40,67,74.42
1240,E4,277.0,1.0,78,74.42
1241,C#5,277.0,1.0,78,74.42
1242,E5,277.0,1.0,78,74.42
1243,G#4,277.5,19/40,67,74.42
1244,G#4,278.0,19/40,63,74.42
1245,E-4,278.0,1.0,80,74.42
1246,C#5,278.0,1.0,80,74.42
1247,E-5,278.0,1.0,80,74.42
1248,C#2,278.0,2.0,64,74.42
1249,G#2,278.0,2.0,64,74.42
1250,G#4,278.5,19/40,63,74.42
1251,G#4,279.0,19/40,63,74.42
1252,E-4,279.0,1.0,72,74.42
1253,C5,279.0,1.0,72,74.42
1254,E-5,279.0,1.0,72,74.42
1255,G#4,279.5,19/40,63,74.42
1256,C#4,280.0,19/40,59,74.42
1257,B4,280.0,2.0,70,74.42
1258,G#4,280.0,2.0,70,74.42
1259,C#5,280.0,2.0,70,74.42
1260,G#2,280.0,2.0,56,74.42
1261,G#3,280.0,2.0,56,74.42
1262,C#4,280.5,19/40,59,74.42
1263,C#4,281.0,19/40,58,74.42
1264,C#4,281.5,19/40,58,74.42
1265,C#4,282.0,19/40,55,74.42
1266,G#4,282.0,1.0,65,74.42
1267,A4,282.0,1.0,65,74.42
1268,C#5,282.0,1.0,65,74.42
1269,F2,282.0,2.0,64,74.42
1270,F3,282.0,2.0,64,74.42
1271,C#4,282.5,19/40,53,74.42
1272,C#4,283.0,19/40,53,74.42
1273,F#4,283.0,1.0,65,74.42
1274,A4,283.0,1.0,65,74.42
1275,C#5,283.0,1.0,65,74.42
1276,C#4,283.5,19/40,53,74.42
1277,G#3,284.0,19/40,47,74.42
1278,E-4,284.0,2.0,60,74.42
1279,F#4,284.0,2.0,60,74.42
1280,G#4,284.0,2.0,60,74.42
1281,F#2,284.0,2.0,56,74.42
1282,F#3,284.0,2.0,56,74.42
1283,G#3,284.5,19/40,47,74.42
1284,G#3,285.0,19/40,47,74.42
1285,G#3,285.5,19/40,48,74.42
1286,G#3,286.0,19/40,47,74.42
1287,C#4,286.0,1.0,58,74.42
1288,F#4,286.0,1.0,58,74.42
1289,G#4,286.0,1.0,58,74.42
1290,C2,286.0,2.0,56,74.42
1291,C3,286.0,2.0,56,74.42
1292,G#3,286.5,19/40,48,74.42
1293,G#3,287.0,19/40,48,74.42
1294,C#4,287.0,1.0,59,74.42
1295,E4,287.0,1.0,59,74.42
1296,B-4,287.0,1.0,59,74.42
1297,G#3,287.5,19/40,48,74.42
1298,G#3,288.0,19/40,50,74.42
1299,C#4,288.0,2.0,60,74.42
1300,E4,288.0,2.0,60,74.42
1301,B-4,288.0,2.0,60,74.42
1302,C#2,288.0,2.0,48,74.42
1303,C#3,288.0,2.0,48,74.42
1304,G#3,288.5,19/40,50,74.42
1305,G#3,289.0,19/40,48,74.42
1306,G#3,289.5,19/40,48,74.42
1307,G#3,290.0,19/40,47,74.42
1308,C4,290.0,1.0,58,74.42
1309,E-4,290.0,1.0,58,74.42
1310,G#4,290.0,1.0,58,74.42
1311,G#1,290.0,3.0,48,74.42
1312,G#2,290.0,3.0,48,74.42
1313,G#3,290.5,19/40,47,74.42
1314,G#3,291.0,19/40,47,74.42
1315,C#4,291.0,1.0,57,74.42
1316,E4,291.0,1.0,57,74.42
1317,B-4,291.0,1.0,57,74.42
1318,G#3,291.5,19/40,46,74.42
1319,G#3,292.0,19/40,47,74.42
1320,C#4,292.0,2.0,57,74.42
1321,E4,292.0,2.0,57,74.42
1322,B-4,292.0,2.0,57,74.42
1323,G#3,292.5,19/40,46,74.42
1324,G#3,293.0,19/40,44,74.42
1325,C#2,293.0,1.0,53,74.42
1326,G#2,293.0,1.0,53,74.42
1327,G#3,293.5,19/40,42,74.42
1328,G#3,294.0,19/40,41,74.42
1329,C4,294.0,1.0,51,74.42
1330,E-4,294.0,1.0,51,74.42
1331,G#4,294.0,1.0,51,74.42
1332,G#1,294.0,3.0,46,74.42
1333,G#2,294.0,3.0,46,74.42
1334,G#3,294.5,19/40,40,74.42
1335,G#3,295.0,19/40,39,74.42
1336,C#4,295.0,1.0,51,74.42
1337,E4,295.0,1.0,51,74.42
1338,B-4,295.0,1.0,51,74.42
1339,G#3,295.5,19/40,39,74.42
1340,G#3,296.0,19/40,38,74.42
1341,C#4,296.0,1.0,49,74.42
1342,E4,296.0,1.0,49,74.42
1343,B-4,296.0,1.0,49,74.42
1344,G#3,296.5,19/40,38,74.42
1345,G#3,297.0,19/40,34,74.42
1346,C4,297.0,1.0,43,74.42
1347,E-4,297.0,1.0,43,74.42
1348,G#4,297.0,1.0,43,74.42
1349,C#2,297.0,1.0,46,74.42
1350,G#2,297.0,1.0,46,74.42
1351,G#3,297.5,19/40,34,74.42
1352,G#3,298.0,19/40,37,74.42
1353,G#1,298.0,3.0,41,74.42
1354,G#2,298.0,1.0,49,74.42
1355,G#3,298.5,19/40,37,74.42
1356,G#3,299.0,19/40,40,74.42
1357,G#2,299.0,1.0,44,74.42
1358,G#3,299.5,19/40,37,74.42
1359,F5,300.0,0.75,53,74.42
1360,F3,300.5,0.5,33,74.42
1361,C#5,300.75,0.25,45,74.42
1362,G#4,301.0,2.0,51,74.42
1363,F#3,301.0,0.5,37,74.42
1364,E-3,301.5,0.5,34,74.42
1365,C#3,302.0,0.5,35,74.42
1366,G#3,302.5,0.5,30,74.42
1367,B-4,303.0,1.0,50,74.42
1368,F4,303.0,3.0,22,74.42
1369,C#4,303.0,3.0,22,74.42
1370,G#3,303.5,19/40,19,74.42
1371,C5,304.0,3.0,51,74.42
1372,G#3,304.0,19/40,23,74.42
1373,G#3,304.5,19/40,19,74.42
1374,G#3,305.0,19/40,27,74.42
1375,G#3,305.5,19/40,28,74.42
1376,F#4,306.0,3.0,35,74.42
1377,E-4,306.0,3.0,35,74.42
1378,G#3,306.5,19/40,26,74.42
1379,C#5,307.0,1.0,51,74.42
1380,G#3,307.0,19/40,28,74.42
1381,G#3,307.5,19/40,32,74.42
1382,C4,308.0,3.0,45,74.42
1383,B-3,308.0,0.5,35,74.42
1384,F#4,308.0,0.75,50,74.42
1385,E-5,308.0,0.75,50,74.42
1386,G#3,308.5,0.5,32,74.42
1387,G#4,308.75,0.25,52,74.42
1388,F5,308.75,0.25,52,74.42
1389,B-4,309.0,2.0,53,74.42
1390,F#5,309.0,2.0,53,74.42
1391,F4,309.0,0.5,35,74.42
1392,C#4,309.0,0.5,35,74.42
1393,G#3,309.5,0.5,31,74.42
1394,G#3,310.5,1.0,32,74.42
1395,F5,311.0,1.0,53,74.42
1396,C#4,311.0,0.5,44,74.42
1397,G#4,311.0,0.5,44,74.42
1398,G#3,311.5,19/40,35,74.42
1399,C4,312.0,2.0,44,74.42
1400,G#4,312.0,0.5,44,74.42
1401,F5,312.0,1.5,53,74.42
1402,G#3,312.0,19/40,32,74.42
1403,G#3,312.5,1.0,32,74.42
1404,F#4,313.0,0.5,34,74.42
1405,E-5,313.5,0.5,49,74.42
1406,G#3,313.5,0.5,29,74.42
1407,C#5,314.0,0.75,46,74.42
1408,G#3,314.5,0.5,31,74.42
1409,D5,314.75,0.25,45,74.42
1410,E-5,315.0,1/10,51,74.42
1411,F5,315.1,1/10,45,74.42
1412,E-5,315.2,1/10,46,74.42
1413,D5,315.3,1/10,44,74.42
1414,E-5,315.4,1/10,45,74.42
1415,E5,315.5,1/10,46,74.42
1416,G#3,315.5,0.5,31,74.42
1417,F5,315.6,1/10,51,74.42
1418,G#5,315.7,1/10,55,74.42
1419,G5,315.8,1/10,53,74.42
1420,F#5,315.9,1/10,51,74.42
1421,F5,316.0,0.75,49,74.42
1422,F4,316.0,0.5,32,74.42
1423,C#4,316.0,0.5,32,74.42
1424,G#3,316.5,0.5,31,74.42
1425,C#5,316.75,0.25,44,74.42
1426,G#4,317.0,2.0,46,74.42
1427,F#4,317.0,0.5,30,74.42
1428,C4,317.0,0.5,30,74.42
1429,G#3,317.5,0.5,31,74.42
1430,C#3,318.0,0.5,35,74.42
1431,G#3,318.5,0.5,30,74.42
1432,B-4,319.0,1.0,51,74.42
1433,F4,319.0,3.0,22,74.42
1434,C#4,319.0,3.0,22,74.42
1435,G#3,319.5,19/40,20,74.42
1436,C5,320.0,3.0,49,74.42
1437,G#3,320.0,19/40,24,74.42
1438,G#3,320.5,19/40,21,74.42
1439,G#3,321.0,19/40,30,74.42
1440,G#3,321.5,19/40,28,74.42
1441,F#4,322.0,0.5,35,74.42
1442,E-4,322.0,0.5,35,74.42
1443,G#3,322.5,19/40,31,74.42
1444,B-5,323.0,1.0,63,74.42
1445,G#3,323.0,19/40,29,74.42
1446,G#3,323.5,19/40,33,74.42
1447,B-5,324.0,1.0,63,74.42
1448,B-3,324.0,0.5,38,74.42
1449,G#3,324.5,0.5,35,74.42
1450,G#5,325.0,1.0,55,74.42
1451,F#5,326.0,1.0,54,74.42
1452,C5,327.0,1.0,47,74.42
1453,F5,328.0,1.0,53,74.42
1454,E-5,329.0,1.0,50,74.42
1455,C#5,330.0,1.0,46,74.42
1456,B-4,331.0,1.0,44,74.42
1457,B-3,332.0,2.0,37,74.42
1458,E-4,332.0,4.0,37,74.42
1459,F#4,332.0,4.0,37,74.42
1460,C4,334.0,2.0,37,74.42
1461,G#2,334.0,4.0,36,74.42
1462,G#3,334.5,19/40,29,74.42
1463,G#3,335.0,19/40,29,74.42
1464,G#3,335.5,19/40,29,74.42
1465,C#4,336.0,2.5,37,74.42
1466,F4,336.0,4.0,37,74.42
1467,G#3,336.0,19/40,29,74.42
1468,G#3,336.5,19/40,29,74.42
1469,G#3,337.0,19/40,29,74.42
1470,G#3,337.5,19/40,29,74.42
1471,G#3,338.0,19/40,36,74.42
1472,C#3,338.0,4.0,36,74.42
1473,C#4,338.5,0.5,41,74.42
1474,G#3,338.5,19/40,29,74.42
1475,E-4,339.0,0.75,44,74.42
1476,G#3,339.0,19/40,29,74.42
1477,G#3,339.5,19/40,29,74.42
1478,C#4,339.75,0.25,41,74.42
1479,C#4,340.0,1.0,45,74.42
1480,G#3,340.0,19/40,29,74.42
1481,E-4,340.0,4.0,36,74.42
1482,F#4,340.0,4.0,36,74.42
1483,G#3,340.5,19/40,29,74.42
1484,C4,341.0,1.0,44,74.42
1485,G#3,341.0,19/40,29,74.42
1486,G#3,341.5,19/40,29,74.42
1487,B-4,342.0,1.0,46,74.42
1488,G#3,342.0,19/40,36,74.42
1489,G#2,342.0,4.0,36,74.42
1490,G#3,342.5,19/40,29,74.42
1491,C4,343.0,1.0,40,74.42
1492,G#3,343.0,19/40,29,74.42
1493,G#3,343.5,19/40,29,74.42
1494,G#3,344.0,19/40,27,74.42
1495,C4,344.0,4.0,33,74.42
1496,E-4,344.0,4.0,33,74.42
1497,F#4,344.0,4.0,33,74.42
1498,G#3,344.5,19/40,27,74.42
1499,G#3,345.0,19/40,26,74.42
1500,G#3,345.5,19/40,26,74.42
1501,G#3,346.0,19/40,26,74.42
1502,G#2,346.0,4.0,29,74.42
1503,G#3,346.5,19/40,26,74.42
1504,G#3,347.0,19/40,26,74.42
1505,G#3,347.5,19/40,26,74.42
1506,G#3,348.0,19/40,26,74.42
1507,C#4,348.0,4.0,30,74.42
1508,F4,348.0,4.0,30,74.42
1509,G#3,348.5,19/40,26,74.42
1510,G#3,349.0,19/40,26,74.42
1511,G#3,349.5,19/40,26,74.42
1512,G#3,350.0,19/40,26,74.42
1513,C#3,350.0,2.0,30,74.42
1514,G#3,350.5,19/40,26,74.42
1515,G#3,351.0,19/40,26,74.42
1516,G#3,351.5,19/40,26,74.42
1517,G#3,352.0,19/40,26,74.42
1518,G#2,352.0,2.0,26,74.42
1519,G#3,352.0,4.0,24,74.42
1520,C#4,352.0,4.0,24,74.42
1521,F4,352.0,4.0,24,74.42
1522,G#3,352.5,19/40,26,74.42
1523,G#3,353.0,19/40,26,74.42
1524,G#3,353.5,471/1000,26,74.42
1525,C#2,354.0,4.0,24,74.42
