,note_name,start_time,duration,velocity,tempo
0,C5,2.0,1.0,61,144.75
1,F4,3.0,0.5,50,144.75
2,D5,3.0,0.25,73,144.75
3,A3,3.0,0.25,38,144.75
4,C3,3.0,0.5,31,144.75
5,C5,3.25,0.5,52,144.75
6,F3,3.25,0.25,35,144.75
7,F5,3.5,0.25,64,144.75
8,F2,3.5,0.25,31,144.75
9,C4,4.0,0.5,46,144.75
10,G4,4.0,0.25,67,144.75
11,A3,4.0,0.25,36,144.75
12,C3,4.0,0.5,29,144.75
13,F4,4.25,0.5,47,144.75
14,F3,4.25,0.25,33,144.75
15,C5,4.5,0.25,63,144.75
16,F2,4.5,0.25,29,144.75
17,F4,5.0,0.5,48,144.75
18,D5,5.0,0.25,69,144.75
19,A3,5.0,0.25,36,144.75
20,C3,5.0,0.5,29,144.75
21,C5,5.25,0.5,49,144.75
22,F3,5.25,0.25,33,144.75
23,F5,5.5,0.25,63,144.75
24,F2,5.5,0.25,28,144.75
25,G4,6.0,0.5,50,144.75
26,D5,6.0,0.25,73,144.75
27,B-3,6.0,0.25,38,144.75
28,C3,6.0,0.5,31,144.75
29,C5,6.25,0.5,51,144.75
30,E3,6.25,0.25,35,144.75
31,G5,6.5,0.25,61,144.75
32,F2,6.5,0.25,30,144.75
33,C4,7.0,0.5,44,144.75
34,A4,7.0,0.25,64,144.75
35,B-3,7.0,0.25,32,144.75
36,C3,7.0,0.5,29,144.75
37,G4,7.25,0.5,47,144.75
38,E3,7.25,0.25,33,144.75
39,C5,7.5,0.25,59,144.75
40,F2,7.5,0.25,28,144.75
41,G4,8.0,0.5,48,144.75
42,D5,8.0,0.25,69,144.75
43,B-3,8.0,0.25,36,144.75
44,C3,8.0,0.5,29,144.75
45,C5,8.25,0.5,52,144.75
46,E3,8.25,0.25,33,144.75
47,G5,8.5,0.25,66,144.75
48,F2,8.5,0.25,28,144.75
49,A4,9.0,0.5,52,144.75
50,D5,9.0,0.25,76,144.75
51,A3,9.0,0.25,39,144.75
52,C3,9.0,0.5,32,144.75
53,C5,9.25,0.5,53,144.75
54,F3,9.25,0.25,36,144.75
55,A5,9.5,0.25,65,144.75
56,F2,9.5,0.25,32,144.75
57,F4,10.0,0.5,49,144.75
58,D5,10.0,0.25,71,144.75
59,A3,10.0,0.25,37,144.75
60,D3,10.0,0.5,30,144.75
61,C5,10.25,0.5,49,144.75
62,F3,10.25,0.25,34,144.75
63,F5,10.5,0.25,63,144.75
64,F2,10.5,0.25,29,144.75
65,D5,11.0,0.5,50,144.75
66,A5,11.0,0.25,72,144.75
67,B3,11.0,0.25,37,144.75
68,D3,11.0,0.5,30,144.75
69,G5,11.25,0.5,54,144.75
70,F3,11.25,0.25,34,144.75
71,D6,11.5,0.25,66,144.75
72,G2,11.5,0.25,30,144.75
73,G4,12.0,0.5,52,144.75
74,D5,12.0,0.25,76,144.75
75,E4,12.0,0.25,40,144.75
76,G3,12.0,0.5,33,144.75
77,C5,12.25,0.5,57,144.75
78,B-3,12.25,0.25,37,144.75
79,G5,12.5,0.25,66,144.75
80,C3,12.5,0.25,32,144.75
81,C5,13.0,0.5,51,144.75
82,A5,13.0,0.25,72,144.75
83,B-4,13.0,0.25,38,144.75
84,C4,13.0,0.5,31,144.75
85,G5,13.25,0.5,51,144.75
86,E4,13.25,0.25,35,144.75
87,C6,13.5,0.25,64,144.75
88,G3,13.5,0.25,28,144.75
89,C6,14.0,0.5,51,144.75
90,A6,14.0,0.25,75,144.75
91,E5,14.0,0.25,38,144.75
92,G4,14.0,0.5,31,144.75
93,G6,14.25,0.5,53,144.75
94,B-4,14.25,0.25,35,144.75
95,C7,14.5,0.25,69,144.75
96,C4,14.5,0.25,30,144.75
97,F4,15.0,0.5,50,144.75
98,D5,15.0,0.25,73,144.75
99,A3,15.0,0.25,38,144.75
100,C3,15.0,0.5,31,144.75
101,C5,15.25,0.5,51,144.75
102,F3,15.25,0.25,35,144.75
103,F5,15.5,0.25,69,144.75
104,F2,15.5,0.25,31,144.75
105,C4,16.0,0.5,46,144.75
106,G4,16.0,0.25,67,144.75
107,A3,16.0,0.25,36,144.75
108,C3,16.0,0.5,29,144.75
109,F4,16.25,0.5,47,144.75
110,F3,16.25,0.25,33,144.75
111,C5,16.5,0.25,65,144.75
112,F2,16.5,0.25,29,144.75
113,F4,17.0,0.5,48,144.75
114,D5,17.0,0.25,69,144.75
115,A3,17.0,0.25,36,144.75
116,C3,17.0,0.5,29,144.75
117,C5,17.25,0.5,53,144.75
118,F3,17.25,0.25,33,144.75
119,F5,17.5,0.25,67,144.75
120,F2,17.5,0.25,28,144.75
121,G4,18.0,0.5,50,144.75
122,D5,18.0,0.25,73,144.75
123,B-3,18.0,0.25,38,144.75
124,C3,18.0,0.5,31,144.75
125,C5,18.25,0.5,51,144.75
126,E3,18.25,0.25,35,144.75
127,G5,18.5,0.25,65,144.75
128,F2,18.5,0.25,30,144.75
129,C4,19.0,0.5,40,144.75
130,A4,19.0,0.25,64,144.75
131,B-3,19.0,0.25,32,144.75
132,C3,19.0,0.5,29,144.75
133,G4,19.25,0.5,47,144.75
134,E3,19.25,0.25,33,144.75
135,C5,19.5,0.25,63,144.75
136,F2,19.5,0.25,28,144.75
137,G4,20.0,0.5,48,144.75
138,D5,20.0,0.25,69,144.75
139,B-3,20.0,0.25,36,144.75
140,C3,20.0,0.5,29,144.75
141,C5,20.25,0.5,49,144.75
142,E3,20.25,0.25,33,144.75
143,G5,20.5,0.25,66,144.75
144,F2,20.5,0.25,28,144.75
145,A4,21.0,0.5,52,144.75
146,D5,21.0,0.25,76,144.75
147,A3,21.0,0.25,39,144.75
148,C3,21.0,0.5,32,144.75
149,C5,21.25,0.5,53,144.75
150,F3,21.25,0.25,36,144.75
151,A5,21.5,0.25,70,144.75
152,F2,21.5,0.25,32,144.75
153,A4,22.0,0.5,49,144.75
154,E5,22.0,0.25,71,144.75
155,B3,22.0,0.25,37,144.75
156,D3,22.0,0.5,30,144.75
157,D5,22.25,0.5,49,144.75
158,F3,22.25,0.25,34,144.75
159,A5,22.5,0.25,66,144.75
160,G2,22.5,0.25,29,144.75
161,G4,23.0,0.5,50,144.75
162,D5,23.0,0.25,72,144.75
163,E4,23.0,0.25,37,144.75
164,G3,23.0,0.5,30,144.75
165,C5,23.25,0.5,53,144.75
166,B-3,23.25,0.25,34,144.75
167,G5,23.5,0.25,65,144.75
168,C3,23.5,0.25,30,144.75
169,F4,24.0,0.5,54,144.75
170,D5,24.0,0.25,80,144.75
171,A3,24.0,0.25,40,144.75
172,C3,24.0,0.5,33,144.75
173,C5,24.25,0.5,57,144.75
174,F3,24.25,0.25,37,144.75
175,F5,24.5,0.25,71,144.75
176,F2,24.5,0.25,32,144.75
177,F5,25.0,0.5,51,144.75
178,D6,25.0,0.25,72,144.75
179,A4,25.0,0.25,38,144.75
180,C4,25.0,0.5,31,144.75
181,C6,25.25,0.5,51,144.75
182,F4,25.25,0.25,35,144.75
183,F6,25.5,0.25,65,144.75
184,F3,25.5,0.25,28,144.75
185,F6,26.0,0.5,51,144.75
186,D7,26.0,0.25,75,144.75
187,A5,26.0,0.25,38,144.75
188,C5,26.0,0.5,31,144.75
189,C7,26.25,0.5,58,144.75
190,F5,26.25,0.25,35,144.75
191,F7,26.5,0.25,71,144.75
192,F4,26.5,0.25,30,144.75
193,F4,27.0,0.5,50,144.75
194,D5,27.0,0.125,73,144.75
195,A3,27.0,0.25,38,144.75
196,C3,27.0,0.5,31,144.75
197,C5,27.125,0.125,58,144.75
198,D5,27.25,0.125,63,144.75
199,F3,27.25,0.25,35,144.75
200,C5,27.375,0.375,52,144.75
201,F5,27.5,0.25,67,144.75
202,F2,27.5,0.25,31,144.75
203,C4,28.0,0.5,46,144.75
204,G4,28.0,0.125,67,144.75
205,A3,28.0,0.25,36,144.75
206,C3,28.0,0.5,29,144.75
207,F4,28.125,0.125,53,144.75
208,G4,28.25,0.125,57,144.75
209,F3,28.25,0.25,33,144.75
210,F4,28.375,0.375,47,144.75
211,C5,28.5,0.25,66,144.75
212,F2,28.5,0.25,29,144.75
213,F4,29.0,0.5,48,144.75
214,D5,29.0,0.125,69,144.75
215,A3,29.0,0.25,36,144.75
216,C3,29.0,0.5,29,144.75
217,C5,29.125,0.125,55,144.75
218,D5,29.25,0.125,59,144.75
219,F3,29.25,0.25,33,144.75
220,C5,29.375,0.375,49,144.75
221,F5,29.5,0.25,66,144.75
222,F2,29.5,0.25,28,144.75
223,G4,30.0,0.5,50,144.75
224,D5,30.0,0.125,73,144.75
225,B-3,30.0,0.25,38,144.75
226,C3,30.0,0.5,31,144.75
227,C5,30.125,0.125,57,144.75
228,D5,30.25,0.125,63,144.75
229,E3,30.25,0.25,35,144.75
230,C5,30.375,0.375,51,144.75
231,G5,30.5,0.25,66,144.75
232,F2,30.5,0.25,30,144.75
233,C4,31.0,0.5,40,144.75
234,A4,31.0,0.125,64,144.75
235,B-3,31.0,0.25,32,144.75
236,C3,31.0,0.5,29,144.75
237,G4,31.125,0.125,53,144.75
238,A4,31.25,0.125,57,144.75
239,E3,31.25,0.25,33,144.75
240,G4,31.375,0.375,57,144.75
241,C5,31.5,0.25,64,144.75
242,F2,31.5,0.25,28,144.75
243,G4,32.0,0.5,48,144.75
244,D5,32.0,0.125,69,144.75
245,B-3,32.0,0.25,36,144.75
246,C3,32.0,0.5,29,144.75
247,C5,32.125,0.125,59,144.75
248,D5,32.25,0.125,61,144.75
249,E3,32.25,0.25,33,144.75
250,C5,32.375,0.375,52,144.75
251,G5,32.5,0.25,65,144.75
252,F2,32.5,0.25,28,144.75
253,A4,33.0,0.5,52,144.75
254,D5,33.0,0.125,76,144.75
255,A3,33.0,0.25,39,144.75
256,C3,33.0,0.5,32,144.75
257,C5,33.125,0.125,57,144.75
258,D5,33.25,0.125,64,144.75
259,F3,33.25,0.25,36,144.75
260,C5,33.375,0.375,53,144.75
261,A5,33.5,0.25,66,144.75
262,F2,33.5,0.25,32,144.75
263,F4,34.0,0.5,49,144.75
264,D5,34.0,0.125,71,144.75
265,A3,34.0,0.25,37,144.75
266,D3,34.0,0.5,30,144.75
267,C5,34.125,0.125,57,144.75
268,D5,34.25,0.125,63,144.75
269,F3,34.25,0.25,34,144.75
270,C5,34.375,0.375,49,144.75
271,F5,34.5,0.25,67,144.75
272,F2,34.5,0.25,29,144.75
273,D5,35.0,0.5,50,144.75
274,A5,35.0,0.125,72,144.75
275,B3,35.0,0.25,37,144.75
276,D3,35.0,0.5,30,144.75
277,G5,35.125,0.125,58,144.75
278,A5,35.25,0.125,64,144.75
279,F3,35.25,0.25,34,144.75
280,G5,35.375,0.375,54,144.75
281,D6,35.5,0.25,71,144.75
282,G2,35.5,0.25,30,144.75
283,G4,36.0,0.5,52,144.75
284,D5,36.0,0.125,76,144.75
285,E4,36.0,0.25,40,144.75
286,G3,36.0,0.5,33,144.75
287,C5,36.125,0.125,57,144.75
288,D5,36.25,0.125,65,144.75
289,B-3,36.25,0.25,37,144.75
290,C5,36.375,0.375,57,144.75
291,G5,36.5,0.25,70,144.75
292,C3,36.5,0.25,32,144.75
293,C5,37.0,0.5,51,144.75
294,A5,37.0,0.125,72,144.75
295,B-4,37.0,0.25,38,144.75
296,C4,37.0,0.5,31,144.75
297,G5,37.125,0.125,55,144.75
298,A5,37.25,0.125,61,144.75
299,E4,37.25,0.25,35,144.75
300,G5,37.375,0.375,51,144.75
301,C6,37.5,0.25,64,144.75
302,G3,37.5,0.25,28,144.75
303,C6,38.0,0.5,51,144.75
304,A6,38.0,0.125,75,144.75
305,E5,38.0,0.25,38,144.75
306,G4,38.0,0.5,31,144.75
307,G6,38.125,0.125,59,144.75
308,A6,38.25,0.125,63,144.75
309,B-4,38.25,0.25,35,144.75
310,G6,38.375,0.375,53,144.75
311,C7,38.5,0.25,72,144.75
312,C4,38.5,0.25,30,144.75
313,F4,39.0,0.5,50,144.75
314,D5,39.0,0.125,73,144.75
315,A3,39.0,0.25,38,144.75
316,C3,39.0,0.5,31,144.75
317,C5,39.125,0.125,53,144.75
318,D5,39.25,0.125,61,144.75
319,F3,39.25,0.25,35,144.75
320,C5,39.375,0.375,51,144.75
321,F5,39.5,0.25,69,144.75
322,F2,39.5,0.25,31,144.75
323,C4,40.0,0.5,46,144.75
324,G4,40.0,0.125,67,144.75
325,A3,40.0,0.25,36,144.75
326,C3,40.0,0.5,29,144.75
327,F4,40.125,0.125,51,144.75
328,G4,40.25,0.125,59,144.75
329,F3,40.25,0.25,33,144.75
330,F4,40.375,0.375,47,144.75
331,C5,40.5,0.25,65,144.75
332,F2,40.5,0.25,29,144.75
333,F4,41.0,0.5,48,144.75
334,D5,41.0,0.125,69,144.75
335,A3,41.0,0.25,36,144.75
336,C3,41.0,0.5,29,144.75
337,C5,41.125,0.125,54,144.75
338,D5,41.25,0.125,61,144.75
339,F3,41.25,0.25,33,144.75
340,C5,41.375,0.375,53,144.75
341,F5,41.5,0.25,67,144.75
342,F2,41.5,0.25,28,144.75
343,G4,42.0,0.5,50,144.75
344,D5,42.0,0.125,73,144.75
345,B-3,42.0,0.25,38,144.75
346,C3,42.0,0.5,31,144.75
347,C5,42.125,0.125,58,144.75
348,D5,42.25,0.125,65,144.75
349,E3,42.25,0.25,35,144.75
350,C5,42.375,0.375,51,144.75
351,G5,42.5,0.25,65,144.75
352,F2,42.5,0.25,30,144.75
353,C4,43.0,0.5,40,144.75
354,A4,43.0,0.125,64,144.75
355,B-3,43.0,0.25,32,144.75
356,C3,43.0,0.5,29,144.75
357,G4,43.125,0.125,51,144.75
358,A4,43.25,0.125,57,144.75
359,E3,43.25,0.25,33,144.75
360,G4,43.375,0.375,47,144.75
361,C5,43.5,0.25,63,144.75
362,F2,43.5,0.25,28,144.75
363,G4,44.0,0.5,48,144.75
364,D5,44.0,0.125,69,144.75
365,B-3,44.0,0.25,36,144.75
366,C3,44.0,0.5,29,144.75
367,C5,44.125,0.125,54,144.75
368,D5,44.25,0.125,61,144.75
369,E3,44.25,0.25,33,144.75
370,C5,44.375,0.375,49,144.75
371,G5,44.5,0.25,66,144.75
372,F2,44.5,0.25,28,144.75
373,A4,45.0,0.5,52,144.75
374,D5,45.0,0.125,76,144.75
375,A3,45.0,0.25,39,144.75
376,C3,45.0,0.5,32,144.75
377,C5,45.125,0.125,59,144.75
378,D5,45.25,0.125,67,144.75
379,F3,45.25,0.25,36,144.75
380,C5,45.375,0.375,53,144.75
381,A5,45.5,0.25,70,144.75
382,F2,45.5,0.25,32,144.75
383,A4,46.0,0.5,49,144.75
384,E5,46.0,0.125,71,144.75
385,B3,46.0,0.25,37,144.75
386,D3,46.0,0.5,30,144.75
387,D5,46.125,0.125,58,144.75
388,E5,46.25,0.125,65,144.75
389,F3,46.25,0.25,34,144.75
390,D5,46.375,0.375,49,144.75
391,A5,46.5,0.25,66,144.75
392,G2,46.5,0.25,29,144.75
393,G4,47.0,0.5,50,144.75
394,D5,47.0,0.125,72,144.75
395,B-3,47.0,0.25,37,144.75
396,C3,47.0,0.5,30,144.75
397,C5,47.125,0.125,58,144.75
398,D5,47.25,0.125,64,144.75
399,E3,47.25,0.25,34,144.75
400,C5,47.375,0.375,53,144.75
401,G5,47.5,0.25,65,144.75
402,C2,47.5,0.25,30,144.75
403,F4,48.0,0.5,54,144.75
404,D5,48.0,0.125,80,144.75
405,A3,48.0,0.25,40,144.75
406,C3,48.0,0.5,33,144.75
407,C5,48.125,0.125,59,144.75
408,D5,48.25,0.125,66,144.75
409,F3,48.25,0.25,37,144.75
410,C5,48.375,0.375,57,144.75
411,F5,48.5,0.25,71,144.75
412,F2,48.5,0.25,32,144.75
413,F5,49.0,0.5,51,144.75
414,D6,49.0,0.125,72,144.75
415,A4,49.0,0.25,38,144.75
416,C4,49.0,0.5,31,144.75
417,C6,49.125,0.125,55,144.75
418,D6,49.25,0.125,61,144.75
419,F4,49.25,0.25,35,144.75
420,C6,49.375,0.375,51,144.75
421,F6,49.5,0.25,65,144.75
422,F3,49.5,0.25,28,144.75
423,F6,50.0,0.5,51,144.75
424,D7,50.0,0.125,75,144.75
425,A5,50.0,0.25,38,144.75
426,C5,50.0,0.5,31,144.75
427,C7,50.125,0.125,60,144.75
428,D7,50.25,0.125,66,144.75
429,F5,50.25,0.25,35,144.75
430,C7,50.375,0.375,58,144.75
431,F7,50.5,0.25,71,144.75
432,F4,50.5,0.25,30,144.75
433,G4,51.0,0.5,39,144.75
434,D5,51.0,0.25,58,144.75
435,E4,51.0,0.25,30,144.75
436,G3,51.0,0.5,25,144.75
437,C5,51.25,0.75,47,144.75
438,C4,51.25,0.25,31,144.75
439,G5,51.5,0.5,65,144.75
440,C3,51.5,0.5,31,144.75
441,G4,52.0,0.5,37,144.75
442,D5,52.0,0.25,56,144.75
443,E-4,52.0,0.25,29,144.75
444,G3,52.0,0.5,24,144.75
445,C5,52.25,0.75,44,144.75
446,C4,52.25,0.25,30,144.75
447,G5,52.5,0.5,66,144.75
448,C3,52.5,0.5,30,144.75
449,A4,53.0,0.5,38,144.75
450,D5,53.0,0.25,58,144.75
451,F4,53.0,0.25,31,144.75
452,C4,53.0,0.5,25,144.75
453,C5,53.25,0.75,47,144.75
454,E-4,53.25,0.25,32,144.75
455,A5,53.5,0.5,70,144.75
456,F3,53.5,0.5,31,144.75
457,F4,54.0,0.5,42,144.75
458,C5,54.0,0.25,61,144.75
459,E-4,54.0,0.25,31,144.75
460,F3,54.0,0.5,26,144.75
461,B-4,54.25,0.75,47,144.75
462,B-3,54.25,0.25,32,144.75
463,B-5,54.5,0.5,64,144.75
464,B-2,54.5,0.5,31,144.75
465,F4,55.0,0.5,34,144.75
466,C5,55.0,0.25,52,144.75
467,D4,55.0,0.25,29,144.75
468,F3,55.0,0.5,23,144.75
469,B-4,55.25,0.75,44,144.75
470,B-3,55.25,0.25,30,144.75
471,F5,55.5,0.5,59,144.75
472,B-2,55.5,0.5,29,144.75
473,F4,56.0,0.5,32,144.75
474,C5,56.0,0.25,50,144.75
475,D4,56.0,0.25,29,144.75
476,F3,56.0,0.5,24,144.75
477,B-4,56.25,0.75,44,144.75
478,B-3,56.25,0.25,30,144.75
479,F5,56.5,0.5,59,144.75
480,B-2,56.5,0.5,29,144.75
481,F4,57.0,0.5,38,144.75
482,C5,57.0,0.25,56,144.75
483,C#4,57.0,0.25,30,144.75
484,F3,57.0,0.5,24,144.75
485,B-4,57.25,0.75,47,144.75
486,B-3,57.25,0.25,31,144.75
487,F5,57.5,0.5,65,144.75
488,B-2,57.5,0.5,31,144.75
489,F4,58.0,0.5,37,144.75
490,C5,58.0,0.25,56,144.75
491,C#4,58.0,0.25,29,144.75
492,F3,58.0,0.5,24,144.75
493,B-4,58.25,0.75,44,144.75
494,B-3,58.25,0.25,30,144.75
495,F5,58.5,0.5,66,144.75
496,B-2,58.5,0.5,30,144.75
497,G4,59.0,0.5,38,144.75
498,C5,59.0,0.25,58,144.75
499,C#4,59.0,0.25,31,144.75
500,E-3,59.0,0.5,25,144.75
501,B-4,59.25,0.75,47,144.75
502,B-3,59.25,0.25,32,144.75
503,G5,59.5,0.5,70,144.75
504,E-2,59.5,0.5,31,144.75
505,E-4,60.0,0.5,42,144.75
506,B-4,60.0,0.25,61,144.75
507,C#4,60.0,0.25,31,144.75
508,E-3,60.0,0.5,26,144.75
509,G#4,60.25,0.75,47,144.75
510,G#3,60.25,0.25,32,144.75
511,G#5,60.5,0.5,64,144.75
512,G#2,60.5,0.5,31,144.75
513,E-4,61.0,0.5,34,144.75
514,B-4,61.0,0.25,52,144.75
515,C4,61.0,0.25,29,144.75
516,E-3,61.0,0.5,23,144.75
517,G#4,61.25,0.75,44,144.75
518,G#3,61.25,0.25,30,144.75
519,E-5,61.5,0.5,59,144.75
520,G#2,61.5,0.5,29,144.75
521,E-4,62.0,0.5,32,144.75
522,B-4,62.0,0.25,50,144.75
523,C4,62.0,0.25,29,144.75
524,E-3,62.0,0.5,24,144.75
525,G#4,62.25,0.75,44,144.75
526,G#3,62.25,0.25,30,144.75
527,E-5,62.5,0.5,59,144.75
528,G#2,62.5,0.5,29,144.75
529,E-4,63.0,0.5,38,144.75
530,B-4,63.0,0.25,56,144.75
531,C4,63.0,0.25,30,144.75
532,E-3,63.0,0.5,24,144.75
533,G#4,63.25,0.75,47,144.75
534,G#3,63.25,0.25,31,144.75
535,E-5,63.5,0.5,65,144.75
536,G2,63.5,0.5,31,144.75
537,E-4,64.0,0.5,37,144.75
538,B-4,64.0,0.25,56,144.75
539,C4,64.0,0.25,29,144.75
540,E-3,64.0,0.5,24,144.75
541,G#4,64.25,0.75,44,144.75
542,G#3,64.25,0.25,30,144.75
543,E-5,64.5,0.5,66,144.75
544,G2,64.5,0.5,30,144.75
545,E-4,65.0,0.5,40,144.75
546,B-4,65.0,0.25,59,144.75
547,C4,65.0,0.25,31,144.75
548,E-3,65.0,0.5,25,144.75
549,G#4,65.25,0.75,47,144.75
550,G#3,65.25,0.25,32,144.75
551,F5,65.5,0.5,68,144.75
552,G2,65.5,0.5,31,144.75
553,E-4,66.0,0.5,33,144.75
554,G#4,66.0,0.25,58,144.75
555,C4,66.0,0.25,27,144.75
556,D3,66.0,0.5,23,144.75
557,G4,66.25,0.75,46,144.75
558,G3,66.25,0.25,31,144.75
559,E-5,66.5,0.5,61,144.75
560,G2,66.5,0.5,30,144.75
561,D4,67.0,0.5,30,144.75
562,G#4,67.0,0.25,52,144.75
563,B3,67.0,0.25,29,144.75
564,D3,67.0,0.5,23,144.75
565,G4,67.25,0.75,44,144.75
566,G3,67.25,0.25,30,144.75
567,D5,67.5,0.5,59,144.75
568,G2,67.5,0.5,29,144.75
569,D4,68.0,0.5,27,144.75
570,G#4,68.0,0.25,50,144.75
571,B3,68.0,0.25,29,144.75
572,D3,68.0,0.5,24,144.75
573,G4,68.25,0.75,44,144.75
574,G3,68.25,0.25,30,144.75
575,D5,68.5,0.5,59,144.75
576,G2,68.5,0.5,29,144.75
577,E-4,69.0,0.5,28,144.75
578,B-4,69.0,0.25,48,144.75
579,C4,69.0,0.25,25,144.75
580,E-3,69.0,0.5,18,144.75
581,G#4,69.25,0.75,38,144.75
582,G#3,69.25,0.25,26,144.75
583,E-5,69.5,0.5,55,144.75
584,G2,69.5,0.5,26,144.75
585,E-5,70.0,0.5,34,144.75
586,B-5,70.0,0.25,52,144.75
587,C5,70.0,0.25,28,144.75
588,E-4,70.0,0.5,22,144.75
589,G#5,70.25,0.75,42,144.75
590,G#4,70.25,0.25,29,144.75
591,E-6,70.5,0.5,64,144.75
592,G3,70.5,0.5,28,144.75
593,E-5,71.0,0.5,38,144.75
594,B-5,71.0,0.25,58,144.75
595,C5,71.0,0.25,29,144.75
596,E-4,71.0,0.5,23,144.75
597,G#5,71.25,0.75,45,144.75
598,G#4,71.25,0.25,30,144.75
599,F6,71.5,0.5,66,144.75
600,G3,71.5,0.5,29,144.75
601,E-5,72.0,0.5,37,144.75
602,G#5,72.0,0.25,56,144.75
603,C5,72.0,0.25,28,144.75
604,D4,72.0,0.5,23,144.75
605,G5,72.25,0.75,44,144.75
606,G4,72.25,0.25,29,144.75
607,E-6,72.5,0.5,58,144.75
608,G3,72.5,0.5,28,144.75
609,D5,73.0,0.5,33,144.75
610,G#5,73.0,0.25,50,144.75
611,B4,73.0,0.25,28,144.75
612,D4,73.0,0.5,21,144.75
613,G5,73.25,0.75,42,144.75
614,G4,73.25,0.25,29,144.75
615,D6,73.5,0.5,57,144.75
616,G3,73.5,0.5,27,144.75
617,D5,74.0,0.5,29,144.75
618,G#5,74.0,0.25,49,144.75
619,B4,74.0,0.25,28,144.75
620,D4,74.0,0.5,22,144.75
621,G5,74.25,0.75,42,144.75
622,G4,74.25,0.25,29,144.75
623,D6,74.5,0.5,57,144.75
624,G3,74.5,0.5,27,144.75
625,D5,75.0,0.5,34,144.75
626,G5,75.0,0.25,50,144.75
627,B4,75.0,0.25,27,144.75
628,D4,75.0,0.5,19,144.75
629,F#5,75.25,0.75,42,144.75
630,F#4,75.25,0.25,28,144.75
631,D6,75.5,0.5,59,144.75
632,F#3,75.5,0.5,27,144.75
633,D4,76.0,0.5,30,144.75
634,G4,76.0,0.25,47,144.75
635,B3,76.0,0.25,25,144.75
636,D3,76.0,0.5,18,144.75
637,F#4,76.25,0.75,36,144.75
638,F#3,76.25,0.25,26,144.75
639,D5,76.5,0.5,57,144.75
640,F#2,76.5,0.5,25,144.75
641,E4,77.0,0.5,33,144.75
642,G4,77.0,0.25,51,144.75
643,C#4,77.0,0.25,26,144.75
644,D3,77.0,0.5,19,144.75
645,F#4,77.25,0.75,38,144.75
646,F#3,77.25,0.25,27,144.75
647,E5,77.5,0.5,59,144.75
648,F#2,77.5,0.5,26,144.75
649,D4,78.0,0.5,33,144.75
650,G4,78.0,0.25,50,144.75
651,B3,78.0,0.25,25,144.75
652,C#3,78.0,0.5,19,144.75
653,F#4,78.25,0.75,37,144.75
654,F#3,78.25,0.25,26,144.75
655,D5,78.5,0.5,51,144.75
656,F#2,78.5,0.5,25,144.75
657,C#4,79.0,0.5,29,144.75
658,G4,79.0,0.25,46,144.75
659,B-3,79.0,0.25,25,144.75
660,C#3,79.0,0.5,18,144.75
661,F#4,79.25,0.75,36,144.75
662,F#3,79.25,0.25,26,144.75
663,C#5,79.5,0.5,51,144.75
664,F#2,79.5,0.5,24,144.75
665,C#4,80.0,0.5,27,144.75
666,G4,80.0,0.25,43,144.75
667,B-3,80.0,0.25,25,144.75
668,C#3,80.0,0.5,18,144.75
669,F#4,80.25,0.75,36,144.75
670,F#3,80.25,0.25,26,144.75
671,C#5,80.5,0.5,51,144.75
672,F#2,80.5,0.5,24,144.75
673,B3,81.0,0.5,37,144.75
674,G4,81.0,0.25,56,144.75
675,G3,81.0,0.25,29,144.75
676,D3,81.0,0.5,23,144.75
677,F#4,81.25,0.75,47,144.75
678,F#3,81.25,0.25,30,144.75
679,B4,81.5,0.5,65,144.75
680,F#2,81.5,0.5,30,144.75
681,B3,82.0,0.5,36,144.75
682,G4,82.0,0.25,56,144.75
683,G3,82.0,0.25,29,144.75
684,D3,82.0,0.5,23,144.75
685,F#4,82.25,0.75,44,144.75
686,F#3,82.25,0.25,31,144.75
687,B4,82.5,0.5,67,144.75
688,F#2,82.5,0.5,29,144.75
689,C#4,83.0,0.5,38,144.75
690,G4,83.0,0.25,60,144.75
691,G3,83.0,0.25,31,144.75
692,E3,83.0,0.5,25,144.75
693,F#4,83.25,0.75,47,144.75
694,F#3,83.25,0.25,32,144.75
695,C#5,83.5,0.5,72,144.75
696,F#2,83.5,0.5,31,144.75
697,B3,84.0,0.5,40,144.75
698,G4,84.0,0.25,61,144.75
699,G3,84.0,0.25,31,144.75
700,D3,84.0,0.5,25,144.75
701,F#4,84.25,0.75,47,144.75
702,F#3,84.25,0.25,32,144.75
703,B4,84.5,0.5,63,144.75
704,F#2,84.5,0.5,29,144.75
705,B-3,85.0,0.5,35,144.75
706,G4,85.0,0.25,54,144.75
707,G3,85.0,0.25,29,144.75
708,C#3,85.0,0.5,22,144.75
709,F#4,85.25,0.75,44,144.75
710,F#3,85.25,0.25,30,144.75
711,B-4,85.5,0.5,59,144.75
712,F#2,85.5,0.5,28,144.75
713,B-3,86.0,0.5,31,144.75
714,G#4,86.0,0.25,50,144.75
715,F#3,86.0,0.25,29,144.75
716,C#3,86.0,0.5,23,144.75
717,F#4,86.25,0.75,43,144.75
718,E3,86.25,0.25,30,144.75
719,B-4,86.5,0.5,59,144.75
720,F#2,86.5,0.5,27,144.75
721,B3,87.0,0.5,48,144.75
722,G#4,87.0,0.25,72,144.75
723,E-3,87.0,0.25,42,144.75
724,F#4,87.25,0.75,57,144.75
725,F#2,87.25,0.25,38,144.75
726,B4,87.5,0.5,78,144.75
727,B1,87.5,0.5,34,144.75
728,F#3,88.0,0.5,45,144.75
729,C#4,88.0,0.25,66,144.75
730,E-3,88.0,0.25,39,144.75
731,B3,88.25,0.75,51,144.75
732,F#2,88.25,0.25,36,144.75
733,F#4,88.5,0.5,74,144.75
734,B1,88.5,0.5,31,144.75
735,B3,89.0,0.5,46,144.75
736,G#4,89.0,0.25,67,144.75
737,E-3,89.0,0.25,39,144.75
738,F#4,89.25,0.75,53,144.75
739,F#2,89.25,0.25,36,144.75
740,B4,89.5,0.5,78,144.75
741,B1,89.5,0.5,30,144.75
742,C#4,90.0,0.5,48,144.75
743,G#4,90.0,0.25,72,144.75
744,E3,90.0,0.25,42,144.75
745,F#4,90.25,0.75,55,144.75
746,F#2,90.25,0.25,38,144.75
747,C#5,90.5,0.5,81,144.75
748,B1,90.5,0.5,32,144.75
749,F#3,91.0,0.5,47,144.75
750,E-4,91.0,0.25,66,144.75
751,E3,91.0,0.25,40,144.75
752,C#4,91.25,0.75,53,144.75
753,F#2,91.25,0.25,37,144.75
754,F#4,91.5,0.5,75,144.75
755,B1,91.5,0.5,31,144.75
756,C#4,92.0,0.5,46,144.75
757,G#4,92.0,0.25,67,144.75
758,E3,92.0,0.25,39,144.75
759,F#4,92.25,0.75,57,144.75
760,F#2,92.25,0.25,36,144.75
761,C#5,92.5,0.5,76,144.75
762,B1,92.5,0.5,30,144.75
763,E-4,93.0,0.5,51,144.75
764,G#4,93.0,0.25,75,144.75
765,E-3,93.0,0.25,43,144.75
766,F#4,93.25,0.75,58,144.75
767,F#2,93.25,0.25,39,144.75
768,E-5,93.5,0.5,78,144.75
769,B1,93.5,0.5,35,144.75
770,B3,94.0,0.5,47,144.75
771,G#4,94.0,0.25,69,144.75
772,E-3,94.0,0.25,40,144.75
773,F#4,94.25,0.75,53,144.75
774,F#2,94.25,0.25,37,144.75
775,B4,94.5,0.5,76,144.75
776,B1,94.5,0.5,31,144.75
777,G#4,95.0,0.5,48,144.75
778,E-5,95.0,0.25,70,144.75
779,F3,95.0,0.25,40,144.75
780,C#5,95.25,0.75,59,144.75
781,B2,95.25,0.25,37,144.75
782,G#5,95.5,0.5,76,144.75
783,C#2,95.5,0.5,32,144.75
784,C#4,96.0,0.5,51,144.75
785,G#4,96.0,0.25,75,144.75
786,B-3,96.0,0.25,44,144.75
787,C#3,96.0,0.5,36,144.75
788,F#4,96.25,0.75,63,144.75
789,E3,96.25,0.25,40,144.75
790,C#5,96.5,0.5,81,144.75
791,F#2,96.5,0.5,35,144.75
792,F#4,97.0,0.5,49,144.75
793,E-5,97.0,0.25,70,144.75
794,E4,97.0,0.25,42,144.75
795,F#3,97.0,0.5,34,144.75
796,C#5,97.25,0.75,55,144.75
797,B-3,97.25,0.25,38,144.75
798,F#5,97.5,0.5,76,144.75
799,C#3,97.5,0.5,30,144.75
800,F#5,98.0,0.5,49,144.75
801,E-6,98.0,0.25,74,144.75
802,B-4,98.0,0.25,42,144.75
803,C#4,98.0,0.5,34,144.75
804,C#6,98.25,0.75,58,144.75
805,E4,98.25,0.25,38,144.75
806,F#6,98.5,0.438,82,144.75
807,F#3,98.5,0.438,32,144.75
808,B3,99.0,0.5,48,144.75
809,G#4,99.0,0.25,72,144.75
810,E-3,99.0,0.25,42,144.75
811,F#4,99.25,0.75,57,144.75
812,F#2,99.25,0.25,38,144.75
813,B4,99.5,0.5,78,144.75
814,B1,99.5,0.5,34,144.75
815,F#3,100.0,0.5,45,144.75
816,C#4,100.0,0.25,66,144.75
817,E-3,100.0,0.25,39,144.75
818,B3,100.25,0.75,46,144.75
819,F#2,100.25,0.25,36,144.75
820,F#4,100.5,0.5,74,144.75
821,B1,100.5,0.5,31,144.75
822,B3,101.0,0.5,46,144.75
823,G#4,101.0,0.25,67,144.75
824,E-3,101.0,0.25,39,144.75
825,F#4,101.25,0.75,53,144.75
826,F#2,101.25,0.25,36,144.75
827,B4,101.5,0.5,78,144.75
828,B1,101.5,0.5,30,144.75
829,C#4,102.0,0.5,48,144.75
830,G#4,102.0,0.25,72,144.75
831,E3,102.0,0.25,42,144.75
832,F#4,102.25,0.75,55,144.75
833,F#2,102.25,0.25,38,144.75
834,C#5,102.5,0.5,81,144.75
835,B1,102.5,0.5,32,144.75
836,F#3,103.0,0.5,47,144.75
837,E-4,103.0,0.25,66,144.75
838,E3,103.0,0.25,40,144.75
839,C#4,103.25,0.75,53,144.75
840,F#2,103.25,0.25,37,144.75
841,F#4,103.5,0.5,75,144.75
842,B1,103.5,0.5,31,144.75
843,C#4,104.0,0.5,46,144.75
844,G#4,104.0,0.25,67,144.75
845,E3,104.0,0.25,39,144.75
846,F#4,104.25,0.75,57,144.75
847,F#2,104.25,0.25,36,144.75
848,C#5,104.5,0.5,76,144.75
849,B1,104.5,0.5,30,144.75
850,E-4,105.0,0.5,51,144.75
851,G#4,105.0,0.25,75,144.75
852,E-3,105.0,0.25,43,144.75
853,F#4,105.25,0.75,58,144.75
854,F#2,105.25,0.25,39,144.75
855,E-5,105.5,0.5,78,144.75
856,B1,105.5,0.5,35,144.75
857,E-4,106.0,0.5,47,144.75
858,B-4,106.0,0.25,69,144.75
859,F3,106.0,0.25,40,144.75
860,G#4,106.25,0.75,53,144.75
861,B2,106.25,0.25,37,144.75
862,E-5,106.5,0.5,76,144.75
863,C#2,106.5,0.5,31,144.75
864,C#4,107.0,0.5,48,144.75
865,G#4,107.0,0.25,70,144.75
866,B-3,107.0,0.25,40,144.75
867,F#4,107.25,0.75,59,144.75
868,E3,107.25,0.25,37,144.75
869,C#5,107.5,0.5,76,144.75
870,F#2,107.5,0.5,32,144.75
871,B3,108.0,0.5,51,144.75
872,G#4,108.0,0.25,75,144.75
873,E-3,108.0,0.25,44,144.75
874,F#4,108.25,0.75,63,144.75
875,F#2,108.25,0.25,40,144.75
876,B4,108.5,0.5,81,144.75
877,B1,108.5,0.5,35,144.75
878,B4,109.0,0.5,49,144.75
879,G#5,109.0,0.25,70,144.75
880,E-4,109.0,0.25,42,144.75
881,F#5,109.25,0.75,55,144.75
882,F#3,109.25,0.25,38,144.75
883,B5,109.5,0.5,76,144.75
884,B2,109.5,0.5,30,144.75
885,B5,110.0,0.5,49,144.75
886,G#6,110.0,0.25,74,144.75
887,E-5,110.0,0.25,42,144.75
888,F#6,110.25,0.75,58,144.75
889,F#4,110.25,0.25,38,144.75
890,B6,110.5,0.438,82,144.75
891,B3,110.5,0.438,32,144.75
892,C#4,111.0,0.5,44,144.75
893,G#4,111.0,0.25,65,144.75
894,B-3,111.0,0.25,33,144.75
895,F#4,111.25,0.75,51,144.75
896,C#3,111.25,0.25,34,144.75
897,C#5,111.5,0.5,71,144.75
898,F#2,111.5,0.5,31,144.75
899,C#4,112.0,0.5,40,144.75
900,G#4,112.0,0.25,59,144.75
901,A3,112.0,0.25,32,144.75
902,F#4,112.25,0.75,48,144.75
903,C#3,112.25,0.25,33,144.75
904,C#5,112.5,0.5,70,144.75
905,F#2,112.5,0.5,29,144.75
906,E-4,113.0,0.5,44,144.75
907,G#4,113.0,0.25,65,144.75
908,A3,113.0,0.25,33,144.75
909,F#4,113.25,0.75,51,144.75
910,B2,113.25,0.25,34,144.75
911,E-5,113.5,0.5,76,144.75
912,F#2,113.5,0.5,29,144.75
913,E4,114.0,0.5,46,144.75
914,A4,114.0,0.25,68,144.75
915,A3,114.0,0.25,35,144.75
916,G#4,114.25,0.75,52,144.75
917,B2,114.25,0.25,36,144.75
918,E5,114.5,0.5,76,144.75
919,E2,114.5,0.5,29,144.75
920,B3,115.0,0.5,39,144.75
921,F#4,115.0,0.25,56,144.75
922,G#3,115.0,0.25,31,144.75
923,E4,115.25,0.75,46,144.75
924,B2,115.25,0.25,32,144.75
925,B4,115.5,0.5,63,144.75
926,E2,115.5,0.5,26,144.75
927,B3,116.0,0.5,39,144.75
928,F#4,116.0,0.25,59,144.75
929,G#3,116.0,0.25,30,144.75
930,E4,116.25,0.75,49,144.75
931,B2,116.25,0.25,31,144.75
932,B4,116.5,0.5,66,144.75
933,E2,116.5,0.5,25,144.75
934,B3,117.0,0.5,44,144.75
935,F#4,117.0,0.25,65,144.75
936,G3,117.0,0.25,33,144.75
937,E4,117.25,0.75,51,144.75
938,B2,117.25,0.25,34,144.75
939,B4,117.5,0.5,71,144.75
940,E2,117.5,0.5,31,144.75
941,B3,118.0,0.5,40,144.75
942,F#4,118.0,0.25,59,144.75
943,G3,118.0,0.25,32,144.75
944,E4,118.25,0.75,48,144.75
945,B2,118.25,0.25,33,144.75
946,B4,118.5,0.5,70,144.75
947,E2,118.5,0.5,29,144.75
948,C#4,119.0,0.5,44,144.75
949,F#4,119.0,0.25,65,144.75
950,G3,119.0,0.25,33,144.75
951,E4,119.25,0.75,51,144.75
952,A2,119.25,0.25,34,144.75
953,C#5,119.5,0.5,76,144.75
954,E2,119.5,0.5,29,144.75
955,D4,120.0,0.5,46,144.75
956,G4,120.0,0.25,68,144.75
957,G3,120.0,0.25,35,144.75
958,F#4,120.25,0.75,52,144.75
959,A2,120.25,0.25,36,144.75
960,D5,120.5,0.5,76,144.75
961,D2,120.5,0.5,29,144.75
962,A3,121.0,0.5,39,144.75
963,E4,121.0,0.25,56,144.75
964,F#3,121.0,0.25,31,144.75
965,D4,121.25,0.75,46,144.75
966,A2,121.25,0.25,32,144.75
967,A4,121.5,0.5,63,144.75
968,D2,121.5,0.5,26,144.75
969,A3,122.0,0.5,39,144.75
970,E4,122.0,0.25,59,144.75
971,F#3,122.0,0.25,30,144.75
972,D4,122.25,0.75,49,144.75
973,A2,122.25,0.25,31,144.75
974,A4,122.5,0.5,66,144.75
975,D2,122.5,0.5,25,144.75
976,A3,123.0,0.5,40,144.75
977,D4,123.0,0.25,60,144.75
978,F#3,123.0,0.25,31,144.75
979,C#4,123.25,0.75,48,144.75
980,A2,123.25,0.25,32,144.75
981,A4,123.5,0.5,67,144.75
982,C#2,123.5,0.5,29,144.75
983,A4,124.0,0.5,37,144.75
984,D5,124.0,0.25,56,144.75
985,A3,124.0,0.5,24,144.75
986,F#4,124.0,0.25,30,144.75
987,C#5,124.25,0.75,45,144.75
988,C#4,124.25,0.25,31,144.75
989,A5,124.5,0.5,66,144.75
990,C#3,124.5,0.5,27,144.75
991,B4,125.0,0.5,40,144.75
992,D5,125.0,0.25,60,144.75
993,A3,125.0,0.5,24,144.75
994,G#4,125.0,0.25,31,144.75
995,C#5,125.25,0.75,48,144.75
996,C#4,125.25,0.25,32,144.75
997,B5,125.5,0.5,70,144.75
998,C#3,125.5,0.5,27,144.75
999,A4,126.0,0.5,46,144.75
1000,D5,126.0,0.25,68,144.75
1001,G#3,126.0,0.5,24,144.75
1002,F#4,126.0,0.25,35,144.75
1003,C#5,126.25,0.75,52,144.75
1004,C#4,126.25,0.25,36,144.75
1005,A5,126.5,0.5,72,144.75
1006,C#3,126.5,0.5,29,144.75
1007,G#4,127.0,0.5,39,144.75
1008,D5,127.0,0.25,52,144.75
1009,G#3,127.0,0.5,24,144.75
1010,F4,127.0,0.25,31,144.75
1011,C#5,127.25,0.75,46,144.75
1012,C#4,127.25,0.25,32,144.75
1013,G#5,127.5,0.5,63,144.75
1014,C#3,127.5,0.5,26,144.75
1015,G#4,128.0,0.5,39,144.75
1016,D5,128.0,0.25,55,144.75
1017,G#3,128.0,0.5,24,144.75
1018,F4,128.0,0.25,30,144.75
1019,C#5,128.25,0.75,49,144.75
1020,C#4,128.25,0.25,31,144.75
1021,G#5,128.5,0.5,66,144.75
1022,C#3,128.5,0.5,25,144.75
1023,A4,129.0,0.5,34,144.75
1024,D5,129.0,0.25,51,144.75
1025,A3,129.0,0.5,19,144.75
1026,F#4,129.0,0.25,26,144.75
1027,C#5,129.25,0.75,40,144.75
1028,C#4,129.25,0.25,27,144.75
1029,A5,129.5,0.5,55,144.75
1030,C#3,129.5,0.5,25,144.75
1031,A5,130.0,0.5,36,144.75
1032,D6,130.0,0.25,53,144.75
1033,A4,130.0,0.5,23,144.75
1034,F#5,130.0,0.25,29,144.75
1035,C#6,130.25,0.75,37,144.75
1036,C#5,130.25,0.25,26,144.75
1037,A6,130.5,0.5,54,144.75
1038,C#4,130.5,0.5,23,144.75
1039,B5,131.0,0.5,38,144.75
1040,D6,131.0,0.25,57,144.75
1041,A4,131.0,0.5,23,144.75
1042,G#5,131.0,0.25,29,144.75
1043,C#6,131.25,0.75,40,144.75
1044,C#5,131.25,0.25,27,144.75
1045,B6,131.5,0.5,60,144.75
1046,C#4,131.5,0.5,23,144.75
1047,A5,132.0,0.5,43,144.75
1048,D6,132.0,0.25,64,144.75
1049,G#4,132.0,0.5,23,144.75
1050,F#5,132.0,0.25,33,144.75
1051,C#6,132.25,0.75,44,144.75
1052,C#5,132.25,0.25,30,144.75
1053,A6,132.5,0.5,64,144.75
1054,C#4,132.5,0.5,25,144.75
1055,G#5,133.0,0.5,37,144.75
1056,D6,133.0,0.25,53,144.75
1057,G#4,133.0,0.5,23,144.75
1058,F5,133.0,0.25,29,144.75
1059,C#6,133.25,0.75,38,144.75
1060,C#5,133.25,0.25,27,144.75
1061,G#6,133.5,0.5,53,144.75
1062,C#4,133.5,0.5,22,144.75
1063,G#5,134.0,0.5,37,144.75
1064,D6,134.0,0.25,55,144.75
1065,G#4,134.0,0.5,23,144.75
1066,F5,134.0,0.25,29,144.75
1067,C#6,134.25,0.75,40,144.75
1068,C#5,134.25,0.25,26,144.75
1069,G#6,134.5,0.5,54,144.75
1070,C#4,134.5,0.5,21,144.75
1071,G#5,135.0,0.5,38,144.75
1072,C#6,135.0,0.25,57,144.75
1073,G#4,135.0,0.5,23,144.75
1074,F5,135.0,0.25,29,144.75
1075,C6,135.25,0.75,40,144.75
1076,C5,135.25,0.25,27,144.75
1077,G#6,135.5,0.5,55,144.75
1078,C4,135.5,0.5,25,144.75
1079,G#4,136.0,0.5,35,144.75
1080,C#5,136.0,0.25,52,144.75
1081,G#3,136.0,0.5,22,144.75
1082,F4,136.0,0.25,28,144.75
1083,C5,136.25,0.75,36,144.75
1084,C4,136.25,0.25,25,144.75
1085,G#5,136.5,0.5,53,144.75
1086,C3,136.5,0.5,22,144.75
1087,B-4,137.0,0.5,37,144.75
1088,C#5,137.0,0.25,55,144.75
1089,G#3,137.0,0.5,22,144.75
1090,G4,137.0,0.25,28,144.75
1091,C5,137.25,0.75,39,144.75
1092,C4,137.25,0.25,26,144.75
1093,B-5,137.5,0.5,58,144.75
1094,C3,137.5,0.5,22,144.75
1095,G#4,138.0,0.5,40,144.75
1096,C#5,138.0,0.25,61,144.75
1097,G3,138.0,0.5,22,144.75
1098,F4,138.0,0.25,32,144.75
1099,C5,138.25,0.75,42,144.75
1100,C4,138.25,0.25,28,144.75
1101,G#5,138.5,0.5,60,144.75
1102,C3,138.5,0.5,24,144.75
1103,G4,139.0,0.5,35,144.75
1104,C#5,139.0,0.25,50,144.75
1105,G3,139.0,0.5,21,144.75
1106,E4,139.0,0.25,27,144.75
1107,C5,139.25,0.75,36,144.75
1108,C4,139.25,0.25,25,144.75
1109,G5,139.5,0.5,50,144.75
1110,C3,139.5,0.5,19,144.75
1111,G4,140.0,0.5,35,144.75
1112,C#5,140.0,0.25,52,144.75
1113,G3,140.0,0.5,21,144.75
1114,E4,140.0,0.25,27,144.75
1115,C5,140.25,0.75,37,144.75
1116,C4,140.25,0.25,24,144.75
1117,G5,140.5,0.5,51,144.75
1118,C3,140.5,0.5,18,144.75
1119,F4,141.0,0.5,35,144.75
1120,D5,141.0,0.25,52,144.75
1121,G3,141.0,0.5,21,144.75
1122,D4,141.0,0.25,27,144.75
1123,C5,141.25,0.75,37,144.75
1124,C4,141.25,0.25,25,144.75
1125,F5,141.5,0.5,51,144.75
1126,C3,141.5,0.5,23,144.75
1127,F4,142.0,0.5,32,144.75
1128,D5,142.0,0.25,49,144.75
1129,G3,142.0,0.5,21,144.75
1130,D4,142.0,0.25,26,144.75
1131,C5,142.25,0.75,34,144.75
1132,C4,142.25,0.25,23,144.75
1133,F5,142.5,0.5,49,144.75
1134,C3,142.5,0.5,21,144.75
1135,G4,143.0,0.5,34,144.75
1136,D5,143.0,0.25,51,144.75
1137,G3,143.0,0.5,19,144.75
1138,E4,143.0,0.25,26,144.75
1139,C5,143.25,0.75,36,144.75
1140,C4,143.25,0.25,24,144.75
1141,G5,143.5,0.5,53,144.75
1142,C3,143.5,0.5,19,144.75
1143,F4,144.0,0.5,37,144.75
1144,D5,144.0,0.25,55,144.75
1145,G3,144.0,0.5,19,144.75
1146,D4,144.0,0.25,29,144.75
1147,C5,144.25,0.75,38,144.75
1148,C4,144.25,0.25,26,144.75
1149,F5,144.5,0.5,55,144.75
1150,C3,144.5,0.5,22,144.75
1151,E4,145.0,0.5,32,144.75
1152,D5,145.0,0.25,47,144.75
1153,G3,145.0,0.5,19,144.75
1154,D4,145.0,0.25,25,144.75
1155,C5,145.25,0.75,32,144.75
1156,C4,145.25,0.25,23,144.75
1157,E5,145.5,0.5,46,144.75
1158,C3,145.5,0.5,18,144.75
1159,E4,146.0,0.5,31,144.75
1160,D5,146.0,0.25,48,144.75
1161,G3,146.0,0.5,19,144.75
1162,C4,146.0,0.25,25,144.75
1163,C5,146.25,0.75,34,144.75
1164,B-3,146.25,0.25,22,144.75
1165,E5,146.5,0.438,47,144.75
1166,C3,146.5,0.438,17,144.75
1167,F4,147.0,0.5,59,144.75
1168,D5,147.0,0.25,87,144.75
1169,A3,147.0,0.25,46,144.75
1170,C3,147.0,0.5,37,144.75
1171,C5,147.25,0.25,63,144.75
1172,F3,147.25,0.25,42,144.75
1173,F5,147.5,0.125,76,144.75
1174,F2,147.5,0.125,37,144.75
1175,C4,148.0,0.5,54,144.75
1176,G4,148.0,0.25,80,144.75
1177,A3,148.0,0.25,44,144.75
1178,C3,148.0,0.5,34,144.75
1179,F4,148.25,0.25,55,144.75
1180,F3,148.25,0.25,39,144.75
1181,C5,148.5,0.125,75,144.75
1182,F2,148.5,0.125,34,144.75
1183,F4,149.0,0.5,57,144.75
1184,D5,149.0,0.25,82,144.75
1185,A3,149.0,0.25,44,144.75
1186,C3,149.0,0.5,34,144.75
1187,C5,149.25,0.25,58,144.75
1188,F3,149.25,0.25,39,144.75
1189,F5,149.5,0.125,75,144.75
1190,F2,149.5,0.125,33,144.75
1191,G4,150.0,0.5,59,144.75
1192,D5,150.0,0.25,87,144.75
1193,B-3,150.0,0.25,46,144.75
1194,C3,150.0,0.5,37,144.75
1195,C5,150.25,0.25,61,144.75
1196,E3,150.25,0.25,42,144.75
1197,G5,150.5,0.125,73,144.75
1198,F2,150.5,0.125,35,144.75
1199,C4,151.0,0.5,54,144.75
1200,A4,151.0,0.25,76,144.75
1201,B-3,151.0,0.25,44,144.75
1202,C3,151.0,0.5,34,144.75
1203,G4,151.25,0.25,55,144.75
1204,E3,151.25,0.25,39,144.75
1205,C5,151.5,0.125,71,144.75
1206,F2,151.5,0.125,33,144.75
1207,G4,152.0,0.5,57,144.75
1208,D5,152.0,0.25,82,144.75
1209,B-3,152.0,0.25,44,144.75
1210,C3,152.0,0.5,34,144.75
1211,C5,152.25,0.25,63,144.75
1212,E3,152.25,0.25,39,144.75
1213,G5,152.5,0.125,78,144.75
1214,F2,152.5,0.125,33,144.75
1215,A4,153.0,0.5,63,144.75
1216,D5,153.0,0.25,92,144.75
1217,A3,153.0,0.25,47,144.75
1218,C3,153.0,0.5,38,144.75
1219,C5,153.25,0.25,64,144.75
1220,F3,153.25,0.25,44,144.75
1221,A5,153.5,0.125,77,144.75
1222,F2,153.5,0.125,38,144.75
1223,F4,154.0,0.5,58,144.75
1224,D5,154.0,0.25,85,144.75
1225,A3,154.0,0.25,45,144.75
1226,D3,154.0,0.5,35,144.75
1227,C5,154.25,0.25,58,144.75
1228,F3,154.25,0.25,40,144.75
1229,F5,154.5,0.125,75,144.75
1230,F2,154.5,0.125,34,144.75
1231,D5,155.0,0.5,59,144.75
1232,A5,155.0,0.25,86,144.75
1233,B3,155.0,0.25,45,144.75
1234,D3,155.0,0.5,35,144.75
1235,G5,155.25,0.25,65,144.75
1236,F3,155.25,0.25,40,144.75
1237,D6,155.5,0.125,78,144.75
1238,G2,155.5,0.125,35,144.75
1239,G4,156.0,0.5,63,144.75
1240,D5,156.0,0.25,92,144.75
1241,E4,156.0,0.25,48,144.75
1242,G3,156.0,0.5,39,144.75
1243,C5,156.25,0.375,69,144.75
1244,B-3,156.25,0.25,45,144.75
1245,G5,156.5,0.125,78,144.75
1246,C3,156.5,0.125,38,144.75
1247,C5,157.0,0.5,61,144.75
1248,A5,157.0,0.25,86,144.75
1249,B-4,157.0,0.25,46,144.75
1250,C4,157.0,0.5,37,144.75
1251,G5,157.25,0.25,61,144.75
1252,E4,157.25,0.25,42,144.75
1253,C6,157.5,0.125,76,144.75
1254,G3,157.5,0.125,33,144.75
1255,C6,158.0,0.5,61,144.75
1256,A6,158.0,0.25,90,144.75
1257,E5,158.0,0.25,46,144.75
1258,G4,158.0,0.5,37,144.75
1259,G6,158.25,0.25,64,144.75
1260,B-4,158.25,0.25,42,144.75
1261,C7,158.5,0.125,82,144.75
1262,C4,158.5,0.125,35,144.75
1263,F4,159.0,0.5,59,144.75
1264,D5,159.0,0.25,87,144.75
1265,A3,159.0,0.25,46,144.75
1266,C3,159.0,0.5,37,144.75
1267,C5,159.25,0.25,61,144.75
1268,F3,159.25,0.25,42,144.75
1269,F5,159.5,0.125,82,144.75
1270,F2,159.5,0.125,37,144.75
1271,C4,160.0,0.5,54,144.75
1272,G4,160.0,0.25,80,144.75
1273,A3,160.0,0.25,44,144.75
1274,C3,160.0,0.5,34,144.75
1275,F4,160.25,0.25,55,144.75
1276,F3,160.25,0.25,39,144.75
1277,C5,160.5,0.125,77,144.75
1278,F2,160.5,0.125,34,144.75
1279,F4,161.0,0.5,57,144.75
1280,D5,161.0,0.25,82,144.75
1281,A3,161.0,0.25,44,144.75
1282,C3,161.0,0.5,34,144.75
1283,C5,161.25,0.25,64,144.75
1284,F3,161.25,0.25,39,144.75
1285,F5,161.5,0.125,80,144.75
1286,F2,161.5,0.125,33,144.75
1287,G4,162.0,0.5,59,144.75
1288,D5,162.0,0.25,87,144.75
1289,B-3,162.0,0.25,46,144.75
1290,C3,162.0,0.5,37,144.75
1291,C5,162.25,0.25,61,144.75
1292,E3,162.25,0.25,42,144.75
1293,G5,162.5,0.125,77,144.75
1294,F2,162.5,0.125,35,144.75
1295,C4,163.0,0.5,54,144.75
1296,A4,163.0,0.25,76,144.75
1297,B-3,163.0,0.25,44,144.75
1298,C3,163.0,0.5,34,144.75
1299,G4,163.25,0.25,55,144.75
1300,E3,163.25,0.25,39,144.75
1301,C5,163.5,0.125,75,144.75
1302,F2,163.5,0.125,33,144.75
1303,G4,164.0,0.5,57,144.75
1304,D5,164.0,0.25,82,144.75
1305,B-3,164.0,0.25,44,144.75
1306,C3,164.0,0.5,34,144.75
1307,C5,164.25,0.25,58,144.75
1308,E3,164.25,0.25,39,144.75
1309,G5,164.5,0.125,78,144.75
1310,F2,164.5,0.125,33,144.75
1311,A4,165.0,0.5,63,144.75
1312,D5,165.0,0.25,92,144.75
1313,A3,165.0,0.25,47,144.75
1314,C3,165.0,0.5,38,144.75
1315,C5,165.25,0.25,64,144.75
1316,F3,165.25,0.25,44,144.75
1317,A5,165.5,0.125,84,144.75
1318,F2,165.5,0.125,38,144.75
1319,A4,166.0,0.5,58,144.75
1320,E5,166.0,0.25,85,144.75
1321,B3,166.0,0.25,45,144.75
1322,D3,166.0,0.5,35,144.75
1323,D5,166.25,0.25,58,144.75
1324,F3,166.25,0.25,40,144.75
1325,A5,166.5,0.125,78,144.75
1326,G2,166.5,0.125,34,144.75
1327,G4,167.0,0.5,59,144.75
1328,D5,167.0,0.25,86,144.75
1329,E4,167.0,0.25,45,144.75
1330,G3,167.0,0.5,35,144.75
1331,C5,167.25,0.25,64,144.75
1332,B-3,167.25,0.25,40,144.75
1333,G5,167.5,0.125,77,144.75
1334,C3,167.5,0.125,35,144.75
1335,F4,168.0,0.5,65,144.75
1336,D5,168.0,0.25,96,144.75
1337,A3,168.0,0.25,48,144.75
1338,C3,168.0,0.5,35,144.75
1339,C5,168.25,0.25,69,144.75
1340,F3,168.25,0.25,45,144.75
1341,F5,168.5,0.125,85,144.75
1342,F2,168.5,0.125,38,144.75
1343,C5,169.0,0.5,61,144.75
1344,G5,169.0,0.25,86,144.75
1345,A4,169.0,0.25,46,144.75
1346,C4,169.0,0.5,33,144.75
1347,F5,169.25,0.25,61,144.75
1348,F4,169.25,0.25,42,144.75
1349,C6,169.5,0.125,77,144.75
1350,F3,169.5,0.125,33,144.75
1351,C5,170.0,0.5,55,144.75
1352,A5,170.0,0.25,80,144.75
1353,B-4,170.0,0.25,37,144.75
1354,C4,170.0,0.5,30,144.75
1355,G5,170.25,0.25,63,144.75
1356,E4,170.25,0.25,37,144.75
1357,C6,170.5,0.125,73,144.75
1358,F3,170.5,0.125,29,144.75
1359,F4,171.0,0.5,57,144.75
1360,G5,171.0,0.25,86,144.75
1361,A4,171.0,0.25,43,144.75
1362,C4,171.0,0.5,32,144.75
1363,F5,171.25,0.25,61,144.75
1364,F4,171.25,0.25,39,144.75
1365,C6,171.5,0.125,75,144.75
1366,F3,171.5,0.125,34,144.75
1367,C6,172.0,0.5,54,144.75
1368,G6,172.0,0.25,76,144.75
1369,A5,172.0,0.25,40,144.75
1370,C5,172.0,0.5,28,144.75
1371,F6,172.25,0.25,54,144.75
1372,F5,172.25,0.25,37,144.75
1373,C7,172.5,0.125,70,144.75
1374,F4,172.5,0.125,29,144.75
1375,C6,173.0,0.5,49,144.75
1376,A6,173.0,0.25,77,144.75
1377,B-5,173.0,0.25,36,144.75
1378,C5,173.0,0.5,24,144.75
1379,G6,173.25,0.25,58,144.75
1380,E5,173.25,0.25,35,144.75
1381,C7,173.5,0.125,69,144.75
1382,F4,173.5,0.125,27,144.75
1383,C6,174.0,0.5,58,144.75
1384,G6,174.0,0.25,86,144.75
1385,A5,174.0,0.25,43,144.75
1386,C5,174.0,0.5,35,144.75
1387,F6,174.25,0.25,61,144.75
1388,F5,174.25,0.25,39,144.75
1389,C7,174.5,0.125,75,144.75
1390,F4,174.5,0.125,34,144.75
1391,C5,175.0,0.5,44,144.75
1392,G5,175.0,0.25,61,144.75
1393,A4,175.0,0.25,36,144.75
1394,C4,175.0,0.5,29,144.75
1395,F5,175.25,0.25,49,144.75
1396,F4,175.25,0.25,33,144.75
1397,C6,175.5,0.5,61,144.75
1398,F3,175.5,0.5,26,144.75
1399,C5,176.0,0.5,44,144.75
1400,A5,176.0,0.25,65,144.75
1401,B-4,176.0,0.25,36,144.75
1402,C4,176.0,0.5,29,144.75
1403,G5,176.25,0.25,54,144.75
1404,E4,176.25,0.25,33,144.75
1405,C6,176.5,0.5,65,144.75
1406,F3,176.5,0.5,26,144.75
1407,F4,177.0,0.5,46,144.75
1408,G5,177.0,0.25,68,144.75
1409,A4,177.0,0.25,37,144.75
1410,C4,177.0,0.5,31,144.75
1411,F5,177.25,0.25,54,144.75
1412,F4,177.25,0.25,35,144.75
1413,C6,177.5,0.5,67,144.75
1414,F3,177.5,0.5,30,144.75
1415,C6,178.0,0.5,44,144.75
1416,G6,178.0,0.25,61,144.75
1417,A5,178.0,0.25,36,144.75
1418,C5,178.0,0.5,29,144.75
1419,F6,178.25,0.25,49,144.75
1420,F5,178.25,0.25,33,144.75
1421,C7,178.5,0.5,61,144.75
1422,F4,178.5,0.5,26,144.75
1423,C6,179.0,0.5,42,144.75
1424,A6,179.0,0.25,65,144.75
1425,B-5,179.0,0.25,33,144.75
1426,C5,179.0,0.5,27,144.75
1427,G6,179.25,0.25,54,144.75
1428,E5,179.25,0.25,33,144.75
1429,C7,179.5,0.5,65,144.75
1430,F4,179.5,0.5,26,144.75
1431,C6,180.0,0.5,46,144.75
1432,G6,180.0,0.25,68,144.75
1433,A5,180.0,0.25,37,144.75
1434,C5,180.0,0.5,31,144.75
1435,F6,180.25,0.25,54,144.75
1436,F5,180.25,0.25,35,144.75
1437,C7,180.5,0.5,67,144.75
1438,F4,180.5,0.125,30,144.75
1439,B5,181.0,0.5,46,144.75
1440,G6,181.0,0.25,65,144.75
1441,A5,181.0,0.25,37,144.75
1442,B4,181.0,0.5,30,144.75
1443,F#6,181.25,0.25,46,144.75
1444,E-5,181.25,0.25,34,144.75
1445,B6,181.5,0.125,56,144.75
1446,B3,181.5,0.125,27,144.75
1447,B5,182.0,0.5,45,144.75
1448,F6,182.0,0.25,66,144.75
1449,G#5,182.0,0.25,37,144.75
1450,B4,182.0,0.5,29,144.75
1451,E6,182.25,0.25,49,144.75
1452,D5,182.25,0.25,33,144.75
1453,B6,182.5,0.125,61,144.75
1454,E4,182.5,0.125,28,144.75
1455,A5,183.0,0.5,46,144.75
1456,F6,183.0,0.25,68,144.75
1457,G5,183.0,0.25,37,144.75
1458,A4,183.0,0.5,31,144.75
1459,E6,183.25,0.25,48,144.75
1460,C#5,183.25,0.25,35,144.75
1461,A6,183.5,0.125,59,144.75
1462,A3,183.5,0.125,30,144.75
1463,A5,184.0,0.5,45,144.75
1464,E6,184.0,0.25,61,144.75
1465,D5,184.0,0.25,36,144.75
1466,G4,184.0,0.5,29,144.75
1467,D6,184.25,0.25,45,144.75
1468,B-4,184.25,0.25,33,144.75
1469,A6,184.5,0.125,55,144.75
1470,B-3,184.5,0.125,26,144.75
1471,G5,185.0,0.5,42,144.75
1472,D6,185.0,0.25,63,144.75
1473,E5,185.0,0.25,34,144.75
1474,G4,185.0,0.5,28,144.75
1475,C6,185.25,0.25,47,144.75
1476,B-4,185.25,0.25,32,144.75
1477,G6,185.5,0.125,56,144.75
1478,C4,185.5,0.125,26,144.75
1479,F5,186.0,0.5,43,144.75
1480,D6,186.0,0.25,65,144.75
1481,A4,186.0,0.25,35,144.75
1482,C4,186.0,0.5,29,144.75
1483,C6,186.25,0.25,46,144.75
1484,F4,186.25,0.25,33,144.75
1485,F6,186.5,0.125,56,144.75
1486,F3,186.5,0.125,28,144.75
1487,B4,187.0,0.5,43,144.75
1488,G5,187.0,0.25,59,144.75
1489,A4,187.0,0.25,35,144.75
1490,B3,187.0,0.5,28,144.75
1491,F#5,187.25,0.25,43,144.75
1492,E-4,187.25,0.25,32,144.75
1493,B5,187.5,0.125,54,144.75
1494,B2,187.5,0.125,25,144.75
1495,B4,188.0,0.5,39,144.75
1496,F5,188.0,0.25,58,144.75
1497,G#4,188.0,0.25,33,144.75
1498,B3,188.0,0.5,25,144.75
1499,E5,188.25,0.25,44,144.75
1500,D4,188.25,0.25,29,144.75
1501,B5,188.5,0.125,54,144.75
1502,E3,188.5,0.125,24,144.75
1503,A4,189.0,0.5,39,144.75
1504,F5,189.0,0.25,60,144.75
1505,G4,189.0,0.25,33,144.75
1506,A3,189.0,0.5,27,144.75
1507,E5,189.25,0.25,43,144.75
1508,C#4,189.25,0.25,31,144.75
1509,A5,189.5,0.125,53,144.75
1510,A2,189.5,0.125,26,144.75
1511,A4,190.0,0.5,39,144.75
1512,E5,190.0,0.25,58,144.75
1513,D4,190.0,0.25,34,144.75
1514,G3,190.0,0.5,27,144.75
1515,D5,190.25,0.25,39,144.75
1516,B-3,190.25,0.25,31,144.75
1517,A5,190.5,0.125,51,144.75
1518,B-2,190.5,0.125,24,144.75
1519,G4,191.0,0.5,37,144.75
1520,D5,191.0,0.25,57,144.75
1521,E4,191.0,0.25,32,144.75
1522,G3,191.0,0.5,26,144.75
1523,C5,191.25,0.25,44,144.75
1524,B-3,191.25,0.25,30,144.75
1525,G5,191.5,0.125,54,144.75
1526,C3,191.5,0.125,24,144.75
1527,F4,192.0,0.5,39,144.75
1528,D5,192.0,0.25,60,144.75
1529,A3,192.0,0.25,33,144.75
1530,C3,192.0,0.5,27,144.75
1531,C5,192.25,0.25,43,144.75
1532,F3,192.25,0.25,31,144.75
1533,F5,192.5,0.5,54,144.75
1534,F2,192.5,0.5,26,144.75
1535,C5,193.0,0.5,43,144.75
1536,G5,193.0,0.25,61,144.75
1537,A3,193.0,0.25,35,144.75
1538,C3,193.0,0.5,27,144.75
1539,F5,193.25,0.25,44,144.75
1540,F3,193.25,0.25,33,144.75
1541,C6,193.5,0.5,55,144.75
1542,F2,193.5,0.5,25,144.75
1543,C5,194.0,0.5,39,144.75
1544,A5,194.0,0.25,61,144.75
1545,B-3,194.0,0.25,34,144.75
1546,C3,194.0,0.5,27,144.75
1547,G5,194.25,0.25,46,144.75
1548,E3,194.25,0.25,32,144.75
1549,C6,194.5,0.5,59,144.75
1550,F2,194.5,0.5,25,144.75
1551,C5,195.0,0.5,43,144.75
1552,G5,195.0,0.25,63,144.75
1553,A3,195.0,0.25,35,144.75
1554,C3,195.0,0.5,29,144.75
1555,F5,195.25,0.25,46,144.75
1556,F3,195.25,0.25,33,144.75
1557,C6,195.5,0.5,56,144.75
1558,F2,195.5,0.5,27,144.75
1559,C5,196.0,0.5,43,144.75
1560,G5,196.0,0.25,63,144.75
1561,A3,196.0,0.25,34,144.75
1562,C3,196.0,0.5,27,144.75
1563,F5,196.25,0.25,44,144.75
1564,F3,196.25,0.25,32,144.75
1565,C6,196.5,0.5,54,144.75
1566,F2,196.5,0.5,24,144.75
1567,C5,197.0,0.5,37,144.75
1568,A5,197.0,0.25,58,144.75
1569,B-3,197.0,0.25,32,144.75
1570,C3,197.0,0.5,26,144.75
1571,G5,197.25,0.25,44,144.75
1572,E3,197.25,0.25,30,144.75
1573,C6,197.5,0.5,54,144.75
1574,F2,197.5,0.5,23,144.75
1575,C5,198.0,0.5,38,144.75
1576,G5,198.0,0.25,59,144.75
1577,A3,198.0,0.25,33,144.75
1578,C3,198.0,0.5,27,144.75
1579,F5,198.25,0.25,43,144.75
1580,F3,198.25,0.25,31,144.75
1581,C6,198.5,0.5,54,144.75
1582,F2,198.5,0.5,25,144.75
1583,C5,199.0,0.5,40,144.75
1584,G5,199.0,0.25,58,144.75
1585,F1,199.0,0.5,27,144.75
1586,F5,199.25,0.25,40,144.75
1587,C6,199.5,0.5,52,144.75
1588,C5,200.0,0.5,35,144.75
1589,G5,200.0,0.25,56,144.75
1590,F2,200.0,1.0,23,144.75
1591,C3,200.0,1.0,23,144.75
1592,A3,200.0,1.0,23,144.75
1593,F5,200.25,0.25,42,144.75
1594,C6,200.5,0.5,51,144.75
1595,C5,201.0,0.5,37,144.75
1596,G5,201.0,0.125,56,144.75
1597,F3,201.0,1.0,23,144.75
1598,C4,201.0,1.0,23,144.75
1599,A4,201.0,1.0,23,144.75
1600,F5,201.125,0.125,40,144.75
1601,G5,201.25,0.125,46,144.75
1602,F5,201.375,0.125,38,144.75
1603,C6,201.5,0.5,49,144.75
1604,C5,202.0,0.5,37,144.75
1605,G5,202.0,0.125,54,144.75
1606,F1,202.0,0.5,25,144.75
1607,F5,202.125,0.125,37,144.75
1608,G5,202.25,0.125,40,144.75
1609,F5,202.375,0.125,37,144.75
1610,C6,202.5,0.5,47,144.75
1611,C5,203.0,0.5,32,144.75
1612,G5,203.0,0.125,51,144.75
1613,F2,203.0,1.0,21,144.75
1614,C3,203.0,1.0,21,144.75
1615,A3,203.0,1.0,21,144.75
1616,F5,203.125,0.125,37,144.75
1617,G5,203.25,0.125,38,144.75
1618,F5,203.375,0.125,37,144.75
1619,C6,203.5,0.5,46,144.75
1620,C5,204.0,0.5,33,144.75
1621,G5,204.0,0.125,51,144.75
1622,F3,204.0,1.0,20,144.75
1623,C4,204.0,1.0,20,144.75
1624,A4,204.0,1.0,20,144.75
1625,F5,204.125,0.125,36,144.75
1626,G5,204.25,0.125,40,144.75
1627,F5,204.375,0.125,34,144.75
1628,G5,204.5,0.125,48,144.75
1629,C6,204.5,0.5,45,144.75
1630,F5,204.625,0.125,34,144.75
1631,G5,204.75,0.125,48,144.75
1632,F5,204.875,0.125,34,144.75
1633,C5,205.0,0.5,33,144.75
1634,G5,205.0,0.125,47,144.75
1635,F5,205.125,0.125,33,144.75
1636,G5,205.25,0.125,35,144.75
1637,F5,205.375,0.125,33,144.75
1638,G5,205.5,0.125,35,144.75
1639,C6,205.5,0.5,42,144.75
1640,F5,205.625,0.125,33,144.75
1641,G5,205.75,0.125,35,144.75
1642,F5,205.875,0.125,32,144.75
1643,C5,206.0,0.5,28,144.75
1644,G5,206.0,0.125,45,144.75
1645,F5,206.125,0.125,32,144.75
1646,G5,206.25,0.125,34,144.75
1647,F5,206.375,0.125,32,144.75
1648,G5,206.5,0.125,33,144.75
1649,C6,206.5,0.5,40,144.75
1650,F5,206.625,0.125,32,144.75
1651,G5,206.75,0.125,33,144.75
1652,F5,206.875,0.125,31,144.75
1653,C5,207.0,0.5,28,144.75
1654,F5,207.0,0.125,45,144.75
1655,G5,207.125,0.125,32,144.75
1656,F5,207.25,0.125,34,144.75
1657,G5,207.375,0.125,32,144.75
1658,F5,207.5,0.125,33,144.75
1659,G5,207.625,0.125,32,144.75
1660,E5,207.75,0.25,33,144.75
1661,F5,208.0,0.125,44,144.75
1662,G#5,208.125,0.125,44,144.75
1663,B-5,208.25,0.125,45,144.75
1664,A5,208.375,0.125,46,144.75
1665,B5,208.5,0.125,46,144.75
1666,D6,208.625,0.125,47,144.75
1667,C6,208.75,0.125,48,144.75
1668,E6,208.875,0.125,48,144.75
1669,G6,209.0,0.125,49,144.75
1670,F6,209.125,0.125,50,144.75
1671,G#6,209.25,0.125,50,144.75
1672,B-6,209.375,0.125,51,144.75
1673,A6,209.5,0.125,51,144.75
1674,B6,209.625,0.125,52,144.75
1675,D7,209.75,0.125,53,144.75
1676,C7,209.875,0.125,53,144.75
1677,F7,210.0,1.0,60,144.75
1678,A3,212.0,1.0,33,144.75
1679,C4,212.0,1.0,33,144.75
1680,A4,212.0,1.0,33,144.75
1681,C2,212.0,1.0,26,144.75
1682,C3,212.0,1.0,26,144.75
1683,A3,213.0,3.0,33,144.75
1684,F4,213.0,3.0,33,144.75
1685,A4,213.0,3.0,33,144.75
1686,F1,213.0,3.0,26,144.75
1687,F2,213.0,3.0,26,144.75
1688,A3,216.0,2.0,33,144.75
1689,F4,216.0,2.0,33,144.75
1690,A4,216.0,2.0,33,144.75
1691,F2,216.0,2.0,26,144.75
1692,C3,216.0,2.0,26,144.75
