,note_name,start_time,duration,velocity,tempo
0,C3,0.002,1249/500,90,69.03
1,C2,0.002,1249/500,74,69.03
2,E-3,2.5,0.5,79,69.03
3,E-2,2.5,0.5,66,69.03
4,G#3,3.0,0.5,83,69.03
5,G#2,3.0,0.5,70,69.03
6,B-3,3.5,0.5,76,69.03
7,B-2,3.5,0.5,64,69.03
8,C4,4.0,0.5,83,69.03
9,C3,4.0,0.5,70,69.03
10,G#3,4.5,0.5,75,69.03
11,G#2,4.5,0.5,63,69.03
12,E-4,5.0,0.5,76,69.03
13,E-3,5.0,0.5,63,69.03
14,B-4,5.5,0.5,72,69.03
15,B-3,5.5,0.5,55,69.03
16,C5,6.0,0.5,73,69.03
17,C4,6.0,0.5,58,69.03
18,G#4,6.5,0.5,68,69.03
19,G#3,6.5,0.5,54,69.03
20,E-5,7.0,0.5,76,69.03
21,E-4,7.0,0.5,62,69.03
22,B-5,7.5,0.5,68,69.03
23,B-4,7.5,0.5,54,69.03
24,C6,8.0,0.5,69,69.03
25,C5,8.0,0.5,57,69.03
26,G5,8.5,0.5,58,69.03
27,G4,8.5,0.5,48,69.03
28,B-5,9.0,0.5,59,69.03
29,B-4,9.0,0.5,53,69.03
30,G#5,9.5,0.5,53,69.03
31,G#4,9.5,0.5,35,69.03
32,G5,10.0,1.0,49,69.03
33,G4,10.0,1.0,32,69.03
34,F#5,11.0,0.5,44,69.03
35,F#4,11.0,0.5,27,69.03
36,F#5,12.5,0.5,40,69.03
37,F#4,12.5,0.5,34,69.03
38,G5,13.0,0.5,44,69.03
39,G4,13.0,0.5,37,69.03
40,F#5,13.5,0.5,41,69.03
41,F#4,13.5,0.5,34,69.03
42,F5,14.0,0.5,44,69.03
43,F4,14.0,0.5,37,69.03
44,F#5,14.5,0.5,41,69.03
45,F#4,14.5,0.5,34,69.03
46,A5,15.0,333/1000,45,69.03
47,A4,15.0,333/1000,38,69.03
48,G5,15.333,333/1000,41,69.03
49,G4,15.333,333/1000,34,69.03
50,E-5,15.667,333/1000,44,69.03
51,E-4,15.667,333/1000,37,69.03
52,E-5,16.0,0.75,43,69.03
53,E-4,16.0,0.75,36,69.03
54,D5,16.75,0.25,39,69.03
55,D4,16.75,0.25,33,69.03
56,F5,17.0,333/1000,40,69.03
57,F4,17.0,333/1000,34,69.03
58,E-5,17.333,333/1000,39,69.03
59,E-4,17.333,333/1000,33,69.03
60,D5,17.667,3/10,33,69.03
61,D4,17.667,3/10,26,69.03
62,D5,18.0,1.0,31,69.03
63,D4,18.0,1.0,24,69.03
64,C5,22.0,1.5,43,69.03
65,G3,22.0,2.0,42,69.03
66,E-3,22.0,2.0,42,69.03
67,C4,22.0,2.0,42,69.03
68,G4,23.5,0.5,46,69.03
69,D3,24.0,4.0,44,69.03
70,G3,24.25,3.75,48,69.03
71,B-4,24.5,3.5,62,69.03
72,E-4,24.5,3.5,56,69.03
73,B-4,28.0,4.5,62,69.03
74,D2,31.0,0.5,46,69.03
75,C4,31.5,2.5,48,69.03
76,D4,32.0,2.0,44,69.03
77,F#4,32.5,0.5,44,69.03
78,B-4,33.0,0.5,49,69.03
79,A4,33.5,0.5,47,69.03
80,G4,34.0,3.0,44,69.03
81,G2,35.0,99/100,27,69.03
82,B-3,35.0,99/100,30,69.03
83,D4,35.0,99/100,30,69.03
84,G2,36.0,99/100,27,69.03
85,B-3,36.0,99/100,30,69.03
86,D4,36.0,99/100,30,69.03
87,D5,37.0,3.0,47,69.03
88,B-3,38.0,99/100,25,69.03
89,D4,38.0,99/100,30,69.03
90,G4,38.0,99/100,30,69.03
91,B-3,39.0,99/100,25,69.03
92,D4,39.0,99/100,30,69.03
93,G4,39.0,99/100,30,69.03
94,C5,40.0,3.0,47,69.03
95,A3,41.0,99/100,22,69.03
96,C4,41.0,99/100,24,69.03
97,E-4,41.0,99/100,24,69.03
98,G4,41.0,99/100,24,69.03
99,A3,42.0,99/100,22,69.03
100,C4,42.0,99/100,24,69.03
101,E-4,42.0,99/100,24,69.03
102,G4,42.0,99/100,24,69.03
103,C4,43.5,2.5,48,69.03
104,D4,44.0,2.0,44,69.03
105,D2,44.0,0.5,46,69.03
106,F#4,44.5,0.5,44,69.03
107,B-4,45.0,0.5,49,69.03
108,D2,45.0,0.5,46,69.03
109,A4,45.5,0.5,47,69.03
110,G4,46.0,3.0,44,69.03
111,G2,47.0,99/100,27,69.03
112,B-3,47.0,99/100,30,69.03
113,D4,47.0,99/100,30,69.03
114,G2,48.0,99/100,27,69.03
115,B-3,48.0,99/100,30,69.03
116,D4,48.0,99/100,30,69.03
117,E4,49.0,3.0,44,69.03
118,A2,50.0,99/100,25,69.03
119,A3,50.0,99/100,30,69.03
120,G3,50.0,99/100,30,69.03
121,C#4,50.0,99/100,30,69.03
122,A2,51.0,99/100,25,69.03
123,A3,51.0,99/100,30,69.03
124,G3,51.0,99/100,30,69.03
125,C#4,51.0,99/100,30,69.03
126,F#4,52.0,3.0,44,69.03
127,D2,53.0,99/100,19,69.03
128,F#3,53.0,99/100,24,69.03
129,A3,53.0,99/100,24,69.03
130,D4,53.0,99/100,24,69.03
131,D2,54.0,99/100,19,69.03
132,F#3,54.0,99/100,24,69.03
133,A3,54.0,99/100,24,69.03
134,D4,54.0,99/100,24,69.03
135,C4,55.5,2.5,48,69.03
136,D4,56.0,2.0,44,69.03
137,D3,56.0,99/100,46,69.03
138,F#4,56.5,0.5,44,69.03
139,B-4,57.0,0.5,49,69.03
140,D3,57.0,99/100,46,69.03
141,A4,57.5,0.5,47,69.03
142,G4,58.0,3.0,44,69.03
143,G2,59.0,99/100,27,69.03
144,B-3,59.0,99/100,30,69.03
145,D4,59.0,99/100,30,69.03
146,G2,60.0,99/100,27,69.03
147,B-3,60.0,99/100,30,69.03
148,D4,60.0,99/100,30,69.03
149,G5,61.0,3.0,53,69.03
150,E4,62.0,99/100,25,69.03
151,B-4,62.0,99/100,30,69.03
152,G4,62.0,99/100,30,69.03
153,C#5,62.0,99/100,30,69.03
154,E4,63.0,99/100,25,69.03
155,B-4,63.0,99/100,30,69.03
156,G4,63.0,99/100,30,69.03
157,C#5,63.0,99/100,30,69.03
158,F5,64.0,3.0,50,69.03
159,F4,65.0,99/100,28,69.03
160,B-4,65.0,99/100,32,69.03
161,C5,65.0,99/100,32,69.03
162,F4,66.0,99/100,28,69.03
163,B-4,66.0,99/100,32,69.03
164,C5,66.0,99/100,32,69.03
165,E-4,67.0,3.0,48,69.03
166,F4,67.5,0.5,48,69.03
167,A4,68.0,2.0,44,69.03
168,F2,68.0,99/100,46,69.03
169,E-5,68.5,0.5,46,69.03
170,D5,69.0,0.5,51,69.03
171,F2,69.0,99/100,46,69.03
172,C#5,69.75,229/1000,49,69.03
173,C#5,70.0,3.0,46,69.03
174,B-2,71.0,99/100,19,69.03
175,E-4,71.0,99/100,24,69.03
176,F4,71.0,99/100,24,69.03
177,A4,71.0,99/100,24,69.03
178,B-2,72.0,99/100,19,69.03
179,E-4,72.0,99/100,24,69.03
180,F4,72.0,99/100,24,69.03
181,A4,72.0,99/100,24,69.03
182,D5,73.0,3.0,46,69.03
183,B-3,74.0,99/100,21,69.03
184,F4,74.0,99/100,23,69.03
185,D4,74.0,99/100,23,69.03
186,B-4,74.0,99/100,23,69.03
187,B-3,75.0,99/100,21,69.03
188,F4,75.0,99/100,23,69.03
189,D4,75.0,99/100,23,69.03
190,B-4,75.0,99/100,23,69.03
191,C5,76.0,3.0,47,69.03
192,A3,77.0,99/100,27,69.03
193,E-4,77.0,99/100,30,69.03
194,G4,77.0,99/100,30,69.03
195,A3,78.0,99/100,27,69.03
196,E-4,78.0,99/100,31,69.03
197,G4,78.0,99/100,31,69.03
198,C4,79.5,2.5,48,69.03
199,D4,80.0,2.0,44,69.03
200,D2,80.0,99/100,46,69.03
201,F#4,80.5,0.5,44,69.03
202,B-4,81.0,0.5,49,69.03
203,D2,81.0,99/100,46,69.03
204,A4,81.5,0.5,47,69.03
205,G4,82.0,3.0,44,69.03
206,G2,83.0,99/100,27,69.03
207,B-3,83.0,99/100,30,69.03
208,D4,83.0,99/100,30,69.03
209,G2,84.0,99/100,27,69.03
210,B-3,84.0,99/100,30,69.03
211,D4,84.0,99/100,30,69.03
212,D5,85.0,3.0,47,69.03
213,B-3,86.0,99/100,25,69.03
214,D4,86.0,99/100,30,69.03
215,G4,86.0,99/100,30,69.03
216,B-3,87.0,99/100,25,69.03
217,D4,87.0,99/100,30,69.03
218,G4,87.0,99/100,30,69.03
219,C5,88.0,3.0,47,69.03
220,A3,89.0,99/100,22,69.03
221,C4,89.0,99/100,25,69.03
222,E-4,89.0,99/100,25,69.03
223,G4,89.0,99/100,25,69.03
224,A3,90.0,99/100,22,69.03
225,C4,90.0,99/100,25,69.03
226,E-4,90.0,99/100,25,69.03
227,G4,90.0,99/100,25,69.03
228,C4,91.5,2.5,48,69.03
229,D4,92.0,2.0,44,69.03
230,D2,92.0,99/100,46,69.03
231,F#4,92.5,0.5,44,69.03
232,B-4,93.0,0.5,49,69.03
233,D2,93.0,99/100,46,69.03
234,A4,93.5,0.5,47,69.03
235,G4,94.0,3.0,44,69.03
236,G2,95.0,99/100,27,69.03
237,B-3,95.0,99/100,30,69.03
238,D4,95.0,99/100,30,69.03
239,G2,96.0,99/100,27,69.03
240,B-3,96.0,99/100,30,69.03
241,D4,96.0,99/100,30,69.03
242,E4,97.0,3.0,44,69.03
243,A2,98.0,99/100,21,69.03
244,A3,98.0,99/100,25,69.03
245,G3,98.0,99/100,25,69.03
246,C#4,98.0,99/100,25,69.03
247,A2,99.0,99/100,21,69.03
248,A3,99.0,99/100,25,69.03
249,G3,99.0,99/100,25,69.03
250,C#4,99.0,99/100,25,69.03
251,F#4,100.0,3.0,44,69.03
252,D2,101.0,99/100,17,69.03
253,F#3,101.0,99/100,20,69.03
254,A3,101.0,99/100,20,69.03
255,D4,101.0,99/100,20,69.03
256,D2,102.0,99/100,17,69.03
257,F#3,102.0,99/100,20,69.03
258,A3,102.0,99/100,20,69.03
259,D4,102.0,99/100,20,69.03
260,C4,103.5,2.5,48,69.03
261,D4,104.0,2.0,44,69.03
262,D3,104.0,99/100,46,69.03
263,F#4,104.5,0.5,44,69.03
264,B-4,105.0,0.5,49,69.03
265,D3,105.0,99/100,46,69.03
266,A4,105.5,0.5,47,69.03
267,G4,106.0,3.0,44,69.03
268,G3,107.0,99/100,27,69.03
269,D4,107.0,99/100,30,69.03
270,B3,107.0,99/100,30,69.03
271,F4,107.0,99/100,30,69.03
272,G3,108.0,99/100,27,69.03
273,D4,108.0,99/100,30,69.03
274,B3,108.0,99/100,30,69.03
275,F4,108.0,99/100,30,69.03
276,G5,109.0,3.0,58,69.03
277,G2,110.0,99/100,28,69.03
278,F4,110.0,99/100,32,69.03
279,B4,110.0,99/100,32,69.03
280,G4,110.0,99/100,32,69.03
281,D5,110.0,99/100,32,69.03
282,G2,111.0,99/100,28,69.03
283,F4,111.0,99/100,32,69.03
284,B4,111.0,99/100,32,69.03
285,G4,111.0,99/100,32,69.03
286,D5,111.0,99/100,32,69.03
287,G5,112.0,3.0,62,69.03
288,C3,113.0,2.0,32,69.03
289,C2,113.0,99/100,35,69.03
290,G4,113.0,99/100,35,69.03
291,C5,113.0,99/100,35,69.03
292,E-5,113.0,99/100,35,69.03
293,G3,114.0,99/100,43,69.03
294,G4,114.0,99/100,36,69.03
295,C5,114.0,99/100,36,69.03
296,E-5,114.0,99/100,36,69.03
297,D5,115.0,3.0,66,69.03
298,D3,116.0,2.0,31,69.03
299,D2,116.0,99/100,34,69.03
300,D4,116.0,99/100,38,69.03
301,G4,116.0,99/100,38,69.03
302,G3,117.0,99/100,44,69.03
303,D4,117.0,99/100,39,69.03
304,G4,117.0,99/100,39,69.03
305,C5,118.0,3.0,58,69.03
306,E-3,119.0,2.0,33,69.03
307,E-2,119.0,99/100,36,69.03
308,C4,119.0,99/100,38,69.03
309,G4,119.0,99/100,38,69.03
310,G3,120.0,99/100,43,69.03
311,C4,120.0,99/100,37,69.03
312,G4,120.0,99/100,37,69.03
313,G4,121.0,3.0,62,69.03
314,D3,122.0,2.0,28,69.03
315,D2,122.0,99/100,31,69.03
316,B-3,122.0,99/100,34,69.03
317,D4,122.0,99/100,34,69.03
318,G3,123.0,99/100,36,69.03
319,B-3,123.0,99/100,33,69.03
320,D4,123.0,99/100,33,69.03
321,G5,124.0,3.0,62,69.03
322,B2,124.0,0.5,52,69.03
323,C3,124.5,0.5,42,69.03
324,D3,125.0,0.5,42,69.03
325,G4,125.0,99/100,35,69.03
326,C5,125.0,99/100,35,69.03
327,E-5,125.0,99/100,35,69.03
328,C3,125.5,0.5,42,69.03
329,G3,126.0,1.0,51,69.03
330,G4,126.0,99/100,36,69.03
331,C5,126.0,99/100,36,69.03
332,E-5,126.0,99/100,36,69.03
333,D5,127.0,3.0,59,69.03
334,C#3,127.0,0.5,53,69.03
335,D3,127.5,0.5,43,69.03
336,E-3,128.0,0.5,47,69.03
337,D4,128.0,99/100,38,69.03
338,G4,128.0,99/100,38,69.03
339,D3,128.5,0.5,42,69.03
340,G3,129.0,1.0,52,69.03
341,D4,129.0,99/100,39,69.03
342,G4,129.0,99/100,39,69.03
343,C5,130.0,3.0,64,69.03
344,D3,130.0,0.5,57,69.03
345,E-3,130.5,0.5,48,69.03
346,F3,131.0,0.5,48,69.03
347,C4,131.0,99/100,38,69.03
348,G4,131.0,99/100,38,69.03
349,E-3,131.5,0.5,48,69.03
350,G3,132.0,0.75,54,69.03
351,C4,132.0,99/100,37,69.03
352,G4,132.0,99/100,37,69.03
353,E-3,132.75,1/125,36,69.03
354,E3,132.833,83/1000,36,69.03
355,F3,132.917,83/1000,35,69.03
356,G4,133.0,3.0,62,69.03
357,E3,133.0,0.125,35,69.03
358,F3,133.125,0.125,36,69.03
359,E3,133.25,0.125,36,69.03
360,F3,133.375,0.125,37,69.03
361,E3,133.5,0.125,37,69.03
362,F3,133.625,0.125,38,69.03
363,E3,133.75,0.125,38,69.03
364,F3,133.875,0.125,39,69.03
365,E3,134.0,0.125,39,69.03
366,B-3,134.0,99/100,34,69.03
367,C#4,134.0,99/100,34,69.03
368,F3,134.125,0.125,39,69.03
369,E3,134.25,0.125,40,69.03
370,F3,134.375,0.125,40,69.03
371,E3,134.5,0.125,42,69.03
372,F3,134.625,0.125,42,69.03
373,E3,134.75,0.125,43,69.03
374,F3,134.875,0.125,43,69.03
375,E3,135.0,0.125,44,69.03
376,B-3,135.0,99/100,33,69.03
377,C#4,135.0,99/100,33,69.03
378,F3,135.125,0.125,44,69.03
379,E3,135.25,0.125,46,69.03
380,F3,135.375,0.125,46,69.03
381,E3,135.5,0.125,47,69.03
382,E-3,135.625,0.188,47,69.03
383,E3,135.812,0.188,48,69.03
384,F4,136.0,3.0,57,69.03
385,F3,136.0,4.0,55,69.03
386,B-3,137.0,99/100,38,69.03
387,D4,137.0,99/100,38,69.03
388,B-3,138.0,99/100,38,69.03
389,D4,138.0,99/100,38,69.03
390,D5,139.0,3.0,60,69.03
391,F4,140.0,99/100,40,69.03
392,D4,140.0,99/100,40,69.03
393,B-4,140.0,99/100,40,69.03
394,E2,140.0,1.0,42,69.03
395,E3,140.0,1.0,42,69.03
396,F4,141.0,99/100,40,69.03
397,D4,141.0,99/100,40,69.03
398,B-4,141.0,99/100,40,69.03
399,F2,141.0,1.0,42,69.03
400,F3,141.0,1.0,42,69.03
401,D5,142.0,0.875,60,69.03
402,E-4,142.0,1.0,51,69.03
403,A4,142.0,1.0,51,69.03
404,F#2,142.0,4.0,46,69.03
405,F#3,142.0,4.0,46,69.03
406,D5,142.875,0.125,55,69.03
407,E-4,143.0,1.0,53,69.03
408,A4,143.0,1.0,53,69.03
409,C5,143.0,1.0,53,69.03
410,E-4,144.0,1.0,49,69.03
411,A4,144.0,1.0,49,69.03
412,B4,144.0,1.0,49,69.03
413,E-4,145.0,1.0,55,69.03
414,A4,145.0,1.0,55,69.03
415,C5,145.0,1.0,55,69.03
416,E-4,146.0,1.0,54,69.03
417,A4,146.0,1.0,54,69.03
418,D5,146.0,1.0,54,69.03
419,F2,146.0,1.0,37,69.03
420,F3,146.0,1.0,37,69.03
421,E-4,147.0,1.0,56,69.03
422,A4,147.0,1.0,56,69.03
423,E-5,147.0,1.0,56,69.03
424,F#2,147.0,1.0,40,69.03
425,F#3,147.0,1.0,40,69.03
426,E-5,148.0,3.0,71,69.03
427,G2,148.0,6.0,44,69.03
428,G3,148.0,6.0,44,69.03
429,E-4,149.0,1.0,49,69.03
430,B-4,149.0,1.0,49,69.03
431,E-4,150.0,1.0,49,69.03
432,B-4,150.0,1.0,49,69.03
433,D5,151.0,3.0,56,69.03
434,D4,151.0,1.0,43,69.03
435,B-4,151.0,1.0,43,69.03
436,D4,152.0,1.0,43,69.03
437,B-4,152.0,1.0,43,69.03
438,D4,153.0,1.0,43,69.03
439,B-4,153.0,1.0,43,69.03
440,C4,154.0,1.0,51,69.03
441,F#4,154.0,1.0,51,69.03
442,D2,154.0,6.0,35,69.03
443,D3,154.0,6.0,35,69.03
444,B-4,154.875,0.125,50,69.03
445,C4,155.0,1.0,51,69.03
446,F#4,155.0,1.0,51,69.03
447,A4,155.0,1.0,51,69.03
448,C4,156.0,1.0,47,69.03
449,F#4,156.0,1.0,47,69.03
450,G#4,156.0,1.0,47,69.03
451,C4,157.0,1.0,51,69.03
452,F#4,157.0,1.0,51,69.03
453,A4,157.0,1.0,51,69.03
454,C4,158.0,1.0,50,69.03
455,F#4,158.0,1.0,50,69.03
456,B-4,158.0,1.0,50,69.03
457,C4,159.0,1.0,52,69.03
458,F#4,159.0,1.0,52,69.03
459,C5,159.0,1.0,52,69.03
460,C5,160.0,3.0,67,69.03
461,E-2,160.0,6.0,36,69.03
462,E-3,160.0,6.0,36,69.03
463,C4,161.0,1.0,49,69.03
464,G4,161.0,1.0,49,69.03
465,C4,162.0,1.0,49,69.03
466,G4,162.0,1.0,49,69.03
467,B-4,163.0,3.0,51,69.03
468,B-3,163.0,1.0,43,69.03
469,G4,163.0,1.0,43,69.03
470,B-3,164.0,1.0,43,69.03
471,G4,164.0,1.0,43,69.03
472,B-3,165.0,1.0,43,69.03
473,G4,165.0,1.0,43,69.03
474,A4,166.0,3.0,56,69.03
475,E-4,166.0,1.0,50,69.03
476,G4,166.0,1.0,50,69.03
477,C2,166.0,3.0,39,69.03
478,C3,166.0,3.0,39,69.03
479,E-4,167.0,1.0,50,69.03
480,G4,167.0,1.0,50,69.03
481,E-4,168.0,1.0,50,69.03
482,G4,168.0,1.0,50,69.03
483,A4,169.0,2.5,51,69.03
484,D4,169.0,1.0,42,69.03
485,F#4,169.0,1.0,42,69.03
486,D2,169.0,3.0,36,69.03
487,D3,169.0,3.0,36,69.03
488,D4,170.0,1.0,42,69.03
489,F#4,170.0,1.0,42,69.03
490,D4,171.0,1.0,42,69.03
491,F#4,171.0,1.0,42,69.03
492,A4,171.5,0.25,51,69.03
493,A3,171.75,0.25,51,69.03
494,E4,171.875,0.125,51,69.03
495,A4,172.0,5.0,51,69.03
496,A3,172.0,1.0,51,69.03
497,E4,172.0,1.0,51,69.03
498,C#2,172.0,1.0,36,69.03
499,C#3,172.0,1.0,36,69.03
500,E3,173.0,99/100,32,69.03
501,A3,173.0,99/100,32,69.03
502,E4,173.0,99/100,32,69.03
503,E3,174.0,99/100,30,69.03
504,A3,174.0,99/100,30,69.03
505,E4,174.0,99/100,30,69.03
506,E3,175.0,99/100,30,69.03
507,A3,175.0,99/100,30,69.03
508,E4,175.0,99/100,30,69.03
509,E3,176.0,99/100,30,69.03
510,A3,176.0,99/100,30,69.03
511,E4,176.0,99/100,30,69.03
512,A4,177.0,1.0,66,69.03
513,E3,177.0,99/100,31,69.03
514,A3,177.0,99/100,31,69.03
515,E4,177.0,99/100,31,69.03
516,A4,178.0,0.25,66,69.03
517,C2,178.0,1.0,39,69.03
518,C3,178.0,1.0,39,69.03
519,B-4,178.25,0.25,56,69.03
520,A4,178.5,0.25,56,69.03
521,G#4,178.75,0.25,57,69.03
522,A4,179.0,0.25,58,69.03
523,F3,179.0,99/100,34,69.03
524,A3,179.0,99/100,34,69.03
525,E-4,179.0,99/100,34,69.03
526,F4,179.0,99/100,34,69.03
527,G5,179.25,0.25,60,69.03
528,E5,179.5,0.25,61,69.03
529,F5,179.75,0.25,62,69.03
530,F5,180.0,0.25,63,69.03
531,F3,180.0,99/100,34,69.03
532,A3,180.0,99/100,34,69.03
533,E-4,180.0,99/100,34,69.03
534,F4,180.0,99/100,34,69.03
535,G6,180.25,0.25,64,69.03
536,F6,180.5,0.25,66,69.03
537,E6,180.75,0.25,66,69.03
538,E-6,181.0,167/1000,67,69.03
539,F3,181.0,99/100,34,69.03
540,A3,181.0,99/100,34,69.03
541,E-4,181.0,99/100,34,69.03
542,F4,181.0,99/100,34,69.03
543,C6,181.167,167/1000,58,69.03
544,A5,181.333,167/1000,58,69.03
545,B-5,181.5,167/1000,62,69.03
546,D6,181.667,167/1000,58,69.03
547,C6,181.833,167/1000,58,69.03
548,B-5,182.0,167/1000,66,69.03
549,F3,182.0,99/100,34,69.03
550,A3,182.0,99/100,34,69.03
551,E-4,182.0,99/100,34,69.03
552,F4,182.0,99/100,34,69.03
553,G5,182.167,167/1000,58,69.03
554,F5,182.333,167/1000,58,69.03
555,D5,182.5,167/1000,62,69.03
556,E-5,182.667,167/1000,58,69.03
557,E5,182.833,167/1000,58,69.03
558,F5,183.0,167/1000,63,69.03
559,F3,183.0,99/100,34,69.03
560,A3,183.0,99/100,34,69.03
561,E-4,183.0,99/100,34,69.03
562,F4,183.0,99/100,34,69.03
563,F#5,183.167,167/1000,58,69.03
564,A5,183.333,167/1000,58,69.03
565,G5,183.5,167/1000,58,69.03
566,F5,183.667,167/1000,56,69.03
567,E-5,183.833,167/1000,56,69.03
568,C#5,184.0,0.5,64,69.03
569,B-1,184.0,1.0,42,69.03
570,B-2,184.0,1.0,42,69.03
571,D5,185.0,3.0,66,69.03
572,D3,185.0,1.0,34,69.03
573,F3,185.0,1.0,34,69.03
574,B-3,185.0,1.0,34,69.03
575,F3,186.0,1.0,35,69.03
576,B-3,186.0,1.0,35,69.03
577,D4,186.0,1.0,35,69.03
578,E-2,187.0,1.0,40,69.03
579,C5,188.0,1.0,56,69.03
580,E-3,188.0,1.0,33,69.03
581,G3,188.0,1.0,33,69.03
582,C4,188.0,1.0,33,69.03
583,G4,189.0,1.0,57,69.03
584,G3,189.0,1.0,33,69.03
585,C4,189.0,1.0,33,69.03
586,E-4,189.0,1.0,33,69.03
587,B-4,190.0,3.0,62,69.03
588,D2,190.0,1.0,42,69.03
589,G3,191.0,1.0,31,69.03
590,B-3,191.0,1.0,31,69.03
591,E-4,191.0,1.0,31,69.03
592,G3,192.0,1.0,29,69.03
593,D4,192.0,2.0,32,69.03
594,B-3,192.0,2.0,32,69.03
595,F#4,193.0,3.0,53,69.03
596,D3,193.0,3.0,39,69.03
597,C#4,194.0,1.0,32,69.03
598,B-3,194.0,1.0,32,69.03
599,A3,195.0,1.0,33,69.03
600,C4,195.0,1.0,33,69.03
601,G4,196.0,1.0,47,69.03
602,G2,196.0,0.5,36,69.03
603,F4,197.0,1.0,28,69.03
604,B-4,197.0,0.5,39,69.03
605,B-5,197.0,0.5,39,69.03
606,B-3,197.0,2.0,19,69.03
607,G3,197.0,2.0,19,69.03
608,D5,197.5,0.5,45,69.03
609,F5,198.0,0.5,48,69.03
610,E-4,198.0,1.0,29,69.03
611,E-5,198.5,1.5,45,69.03
612,F#2,199.0,0.5,38,69.03
613,E-4,200.0,1.0,28,69.03
614,A4,200.0,0.5,40,69.03
615,A5,200.0,0.5,40,69.03
616,F#3,200.0,2.0,19,69.03
617,A3,200.0,2.0,19,69.03
618,C#5,200.5,0.5,44,69.03
619,E-5,201.0,0.5,49,69.03
620,D4,201.0,1.0,29,69.03
621,D5,201.5,0.5,45,69.03
622,D5,202.0,1.0,45,69.03
623,G2,202.0,0.5,38,69.03
624,F4,203.0,1.0,30,69.03
625,B-4,203.0,0.5,40,69.03
626,B-5,203.0,0.5,40,69.03
627,B-3,203.0,2.0,20,69.03
628,G3,203.0,2.0,20,69.03
629,D5,203.5,0.5,48,69.03
630,F5,204.0,0.5,50,69.03
631,E-4,204.0,1.0,30,69.03
632,E-5,204.5,1.5,47,69.03
633,F2,205.0,0.5,40,69.03
634,E-4,206.0,1.0,30,69.03
635,G#4,206.0,0.5,42,69.03
636,G#5,206.0,0.5,42,69.03
637,B3,206.0,2.0,20,69.03
638,F3,206.0,2.0,20,69.03
639,G#3,206.0,2.0,20,69.03
640,C#5,206.5,0.5,47,69.03
641,E-5,207.0,0.5,52,69.03
642,D4,207.0,1.0,30,69.03
643,D5,207.5,0.5,47,69.03
644,D5,208.0,1.0,47,69.03
645,E-2,208.0,0.5,41,69.03
646,D4,209.0,1.0,32,69.03
647,G4,209.0,0.5,42,69.03
648,G5,209.0,0.5,42,69.03
649,G3,209.0,2.0,21,69.03
650,E-3,209.0,2.0,21,69.03
651,B4,209.5,0.5,50,69.03
652,D5,210.0,0.5,53,69.03
653,C4,210.0,1.0,32,69.03
654,C5,210.5,1.5,49,69.03
655,C2,211.0,0.5,42,69.03
656,B-3,212.0,1.0,31,69.03
657,E-3,212.0,2.0,26,69.03
658,C4,212.0,0.5,48,69.03
659,C5,212.0,0.5,48,69.03
660,G#4,212.5,0.5,49,69.03
661,B-4,213.0,0.5,55,69.03
662,A3,213.0,1.0,32,69.03
663,A4,213.5,0.5,49,69.03
664,A4,214.0,1.0,49,69.03
665,D2,214.0,0.5,43,69.03
666,G3,215.0,1.0,33,69.03
667,E-4,215.0,0.5,49,69.03
668,E-5,215.0,0.5,49,69.03
669,C4,215.0,2.0,28,69.03
670,D3,215.0,2.0,28,69.03
671,B4,215.5,0.5,53,69.03
672,D5,216.0,0.5,56,69.03
673,F#3,216.0,1.0,33,69.03
674,C5,216.5,1.5,52,69.03
675,D2,217.0,0.5,44,69.03
676,E-4,218.0,0.5,48,69.03
677,G4,218.0,1.0,57,69.03
678,A3,218.0,1.0,37,69.03
679,D4,218.5,0.5,51,69.03
680,C#4,219.0,0.5,52,69.03
681,D3,219.0,1.0,38,69.03
682,F#4,219.0,1.0,52,69.03
683,A4,219.0,1.0,52,69.03
684,C4,219.5,0.5,52,69.03
685,B-3,220.0,1.0,64,69.03
686,G4,220.0,1.0,64,69.03
687,B-4,220.0,1.0,64,69.03
688,G3,220.0,0.5,59,69.03
689,G2,220.0,0.5,59,69.03
690,F4,221.0,1.0,43,69.03
691,G3,221.0,2.0,36,69.03
692,B-4,221.0,2.0,62,69.03
693,B-5,221.0,2.0,62,69.03
694,D5,221.5,0.5,67,69.03
695,F5,222.0,0.5,71,69.03
696,B-3,222.0,1.0,40,69.03
697,E-4,222.0,1.0,40,69.03
698,E-5,222.5,1.5,66,69.03
699,F#3,223.0,0.5,62,69.03
700,F#2,223.0,0.5,62,69.03
701,E-4,224.0,1.0,41,69.03
702,F#3,224.0,2.0,35,69.03
703,A4,224.0,2.0,64,69.03
704,A5,224.0,2.0,64,69.03
705,C#5,224.5,0.5,65,69.03
706,E-5,225.0,0.5,72,69.03
707,A3,225.0,1.0,38,69.03
708,D4,225.0,1.0,38,69.03
709,D5,225.5,0.5,66,69.03
710,D5,226.0,1.0,66,69.03
711,G3,226.0,0.5,61,69.03
712,G2,226.0,0.5,61,69.03
713,F4,227.0,1.0,44,69.03
714,G3,227.0,2.0,36,69.03
715,B-4,227.0,2.0,64,69.03
716,B-5,227.0,2.0,64,69.03
717,D5,227.5,0.5,69,69.03
718,F5,228.0,0.5,73,69.03
719,B-3,228.0,1.0,40,69.03
720,E-4,228.0,1.0,40,69.03
721,E-5,228.5,0.5,67,69.03
722,F3,229.0,0.5,63,69.03
723,F2,229.0,0.5,63,69.03
724,E-4,230.0,1.0,43,69.03
725,F3,230.0,2.0,36,69.03
726,G#4,230.0,2.0,66,69.03
727,G#5,230.0,2.0,66,69.03
728,C#5,230.5,0.5,67,69.03
729,E-5,231.0,0.5,74,69.03
730,G#3,231.0,1.0,38,69.03
731,B3,231.0,1.0,38,69.03
732,D4,231.0,1.0,38,69.03
733,D5,231.5,0.5,67,69.03
734,E-3,232.0,0.5,62,69.03
735,E-2,232.0,0.5,62,69.03
736,D4,233.0,1.0,45,69.03
737,E-3,233.0,2.0,38,69.03
738,G4,233.0,2.0,66,69.03
739,G5,233.0,2.0,66,69.03
740,B4,233.5,0.5,71,69.03
741,D5,234.0,0.5,75,69.03
742,G3,234.0,1.0,42,69.03
743,C4,234.0,1.0,42,69.03
744,C5,234.5,0.5,70,69.03
745,C3,235.0,0.5,66,69.03
746,C2,235.0,0.5,66,69.03
747,B-3,236.0,1.0,44,69.03
748,C3,236.0,2.0,37,69.03
749,C4,236.0,2.0,66,69.03
750,C5,236.0,2.0,66,69.03
751,G#4,236.5,0.5,69,69.03
752,B-4,237.0,0.5,76,69.03
753,E-3,237.0,1.0,40,69.03
754,A3,237.0,1.0,40,69.03
755,A4,237.5,0.5,69,69.03
756,D2,238.0,0.5,64,69.03
757,E-4,239.0,2.0,68,69.03
758,E-5,239.0,2.0,68,69.03
759,A2,239.0,1.0,46,69.03
760,G3,239.0,1.0,46,69.03
761,B4,239.5,0.5,73,69.03
762,D5,240.0,0.5,77,69.03
763,C3,240.0,1.0,43,69.03
764,F#3,240.0,1.0,43,69.03
765,C5,240.5,0.5,71,69.03
766,D2,241.0,0.5,67,69.03
767,F#3,242.0,2.0,78,69.03
768,F#4,242.0,2.0,78,69.03
769,A2,242.0,1.0,51,69.03
770,E-3,242.0,1.0,51,69.03
771,C#4,242.5,0.5,71,69.03
772,E-4,243.0,0.5,71,69.03
773,C3,243.0,1.0,51,69.03
774,D3,243.0,1.0,51,69.03
775,D4,243.5,0.5,71,69.03
776,G2,244.0,0.5,51,69.03
777,D3,244.0,0.5,51,69.03
778,G4,244.0,0.5,73,69.03
779,B-3,244.0,0.5,73,69.03
780,C4,244.5,0.25,66,69.03
781,G3,244.5,0.25,66,69.03
782,G1,244.5,0.5,35,69.03
783,G2,244.5,0.5,35,69.03
784,B-3,244.75,0.25,65,69.03
785,A3,245.0,0.25,64,69.03
786,G3,245.25,0.25,65,69.03
787,B-3,245.5,0.5,77,69.03
788,G4,245.5,0.5,77,69.03
789,D3,245.5,0.5,44,69.03
790,G2,245.5,0.5,44,69.03
791,G2,246.0,1.0,32,69.03
792,E-3,246.0,0.25,43,69.03
793,C4,246.0,0.25,64,69.03
794,G3,246.0,0.25,64,69.03
795,B-3,246.25,0.25,64,69.03
796,D3,246.25,0.25,45,69.03
797,A3,246.5,0.25,64,69.03
798,G3,246.75,0.25,63,69.03
799,F4,247.0,0.25,69,69.03
800,C3,247.0,2.0,46,69.03
801,G2,247.0,2.0,46,69.03
802,E-3,247.0,2.0,46,69.03
803,C4,247.25,0.25,52,69.03
804,E-4,247.5,0.25,54,69.03
805,A3,247.5,1.5,49,69.03
806,F#3,247.75,0.25,55,69.03
807,C4,248.0,0.25,57,69.03
808,E-4,248.25,0.25,58,69.03
809,F#4,248.5,0.25,60,69.03
810,C5,248.75,0.25,62,69.03
811,F5,249.0,0.25,63,69.03
812,G2,249.0,0.5,47,69.03
813,G3,249.0,0.5,47,69.03
814,E-5,249.25,0.25,65,69.03
815,D5,249.5,0.25,67,69.03
816,E-4,249.5,0.5,50,69.03
817,E-3,249.5,0.5,50,69.03
818,C5,249.75,0.25,68,69.03
819,G5,250.0,0.25,73,69.03
820,B-4,250.0,0.25,73,69.03
821,D3,250.0,0.25,48,69.03
822,D4,250.0,0.25,48,69.03
823,G4,250.5,0.25,66,69.03
824,C5,250.5,0.25,66,69.03
825,G2,250.5,1.0,35,69.03
826,G3,250.5,1.0,35,69.03
827,B-4,250.75,0.25,65,69.03
828,A4,251.0,0.25,64,69.03
829,G4,251.25,0.25,65,69.03
830,B-4,251.5,0.5,73,69.03
831,G5,251.5,0.5,73,69.03
832,D4,251.5,0.5,42,69.03
833,G3,251.5,0.5,42,69.03
834,G3,252.0,1.0,32,69.03
835,E-4,252.0,0.25,43,69.03
836,C5,252.0,0.25,64,69.03
837,G4,252.0,0.25,64,69.03
838,B-4,252.25,0.25,64,69.03
839,D4,252.25,0.25,45,69.03
840,A4,252.5,0.25,64,69.03
841,G4,252.75,0.25,63,69.03
842,F5,253.0,0.25,69,69.03
843,C4,253.0,2.0,46,69.03
844,G3,253.0,2.0,46,69.03
845,E-4,253.0,2.0,46,69.03
846,C5,253.25,0.25,52,69.03
847,E-5,253.5,0.25,54,69.03
848,A4,253.5,1.5,49,69.03
849,F#4,253.75,0.25,55,69.03
850,C5,254.0,0.25,57,69.03
851,E-5,254.25,0.25,58,69.03
852,F#5,254.5,0.25,60,69.03
853,C6,254.75,0.25,62,69.03
854,F6,255.0,0.25,63,69.03
855,G3,255.0,0.5,47,69.03
856,G4,255.0,0.5,47,69.03
857,E-6,255.25,0.25,65,69.03
858,D6,255.5,0.25,67,69.03
859,E-5,255.5,0.5,50,69.03
860,E-4,255.5,0.5,50,69.03
861,C6,255.75,0.25,68,69.03
862,G6,256.0,0.25,70,69.03
863,B-5,256.0,0.25,70,69.03
864,G4,256.0,0.25,55,69.03
865,D5,256.0,0.25,55,69.03
866,G6,256.75,0.25,69,69.03
867,C7,256.75,0.25,69,69.03
868,B-6,257.0,0.25,68,69.03
869,D6,257.25,0.25,68,69.03
870,B-6,257.5,0.25,68,69.03
871,F#6,257.5,0.25,68,69.03
872,E-5,257.5,0.5,48,69.03
873,E-4,257.5,0.5,48,69.03
874,F#4,257.5,0.5,48,69.03
875,A4,257.5,0.5,48,69.03
876,A6,257.75,0.25,67,69.03
877,D6,258.0,0.25,66,69.03
878,D5,258.0,0.5,52,69.03
879,F#5,258.25,0.25,66,69.03
880,B-5,258.25,0.25,66,69.03
881,A5,258.5,0.25,64,69.03
882,D4,258.5,0.5,52,69.03
883,D5,258.75,0.25,64,69.03
884,G3,259.0,0.25,55,69.03
885,C6,259.0,0.25,61,69.03
886,G5,259.0,0.25,61,69.03
887,B-5,259.25,0.25,60,69.03
888,D6,259.5,0.25,60,69.03
889,D4,259.5,1.0,51,69.03
890,G6,259.75,0.25,68,69.03
891,C7,259.75,0.25,68,69.03
892,B-6,260.0,0.25,68,69.03
893,D5,260.0,0.5,51,69.03
894,D6,260.25,0.25,69,69.03
895,B-6,260.5,0.25,66,69.03
896,F#6,260.5,0.25,66,69.03
897,F#4,260.5,0.5,48,69.03
898,E-4,260.5,0.5,48,69.03
899,E-5,260.5,0.5,48,69.03
900,A4,260.5,0.5,48,69.03
901,A6,260.75,0.25,64,69.03
902,D6,261.0,0.25,63,69.03
903,D5,261.0,0.5,50,69.03
904,F#5,261.25,0.25,61,69.03
905,B-5,261.25,0.25,61,69.03
906,A5,261.5,0.25,60,69.03
907,D4,261.5,0.5,53,69.03
908,D5,261.75,0.25,60,69.03
909,G3,262.0,0.5,55,69.03
910,G5,262.0,0.25,61,69.03
911,C6,262.0,0.25,61,69.03
912,B-5,262.25,0.25,60,69.03
913,D6,262.5,0.25,60,69.03
914,G6,262.75,0.25,68,69.03
915,C7,262.75,0.25,68,69.03
916,B-6,263.0,0.25,68,69.03
917,D3,263.0,0.5,51,69.03
918,D6,263.25,0.25,69,69.03
919,B-6,263.5,0.25,66,69.03
920,F#6,263.5,0.25,66,69.03
921,F#3,263.5,0.5,48,69.03
922,E-4,263.5,0.5,48,69.03
923,A3,263.5,0.5,48,69.03
924,E-3,263.5,0.5,48,69.03
925,A6,263.75,0.25,64,69.03
926,D6,264.0,0.25,63,69.03
927,D4,264.0,0.5,50,69.03
928,F#5,264.25,0.25,61,69.03
929,B-5,264.25,0.25,61,69.03
930,A5,264.5,0.25,60,69.03
931,D3,264.5,0.5,53,69.03
932,D5,264.75,0.25,60,69.03
933,G2,265.0,0.25,49,69.03
934,C5,265.0,0.25,54,69.03
935,G4,265.0,0.25,54,69.03
936,B-4,265.25,0.25,54,69.03
937,D5,265.5,0.25,54,69.03
938,D3,265.5,1.0,45,69.03
939,C6,265.75,0.25,60,69.03
940,G5,265.75,0.25,60,69.03
941,B-5,266.0,0.25,61,69.03
942,D4,266.0,0.5,45,69.03
943,D5,266.25,0.25,62,69.03
944,B-5,266.5,0.25,58,69.03
945,F#5,266.5,0.25,58,69.03
946,E-4,266.5,0.5,42,69.03
947,E-3,266.5,0.5,42,69.03
948,F#3,266.5,0.5,42,69.03
949,A3,266.5,0.5,42,69.03
950,A5,266.75,0.25,57,69.03
951,D5,267.0,0.25,56,69.03
952,D4,267.0,0.5,45,69.03
953,B-4,267.25,0.25,54,69.03
954,F#4,267.25,0.25,54,69.03
955,A4,267.5,0.25,54,69.03
956,D3,267.5,0.5,47,69.03
957,D4,267.75,0.25,54,69.03
958,G2,268.0,0.5,58,69.03
959,C5,268.0,0.25,54,69.03
960,G4,268.0,0.25,54,69.03
961,B-4,268.25,0.25,54,69.03
962,D5,268.5,0.25,54,69.03
963,B-3,268.5,0.5,45,69.03
964,D3,268.5,0.5,45,69.03
965,C6,268.75,0.25,54,69.03
966,G5,268.75,0.25,54,69.03
967,B-5,269.0,0.25,54,69.03
968,D5,269.25,0.25,55,69.03
969,A5,269.5,0.25,52,69.03
970,D5,269.5,0.25,52,69.03
971,C#2,269.5,0.5,52,69.03
972,C#3,269.5,0.5,52,69.03
973,G5,269.75,0.25,51,69.03
974,B-4,270.0,0.25,50,69.03
975,D2,270.0,0.5,42,69.03
976,D3,270.0,0.5,42,69.03
977,E-5,270.25,0.25,49,69.03
978,B-4,270.25,0.25,49,69.03
979,D5,270.5,0.25,48,69.03
980,G4,270.75,0.25,48,69.03
981,C5,271.0,0.25,42,69.03
982,G4,271.0,0.25,42,69.03
983,G2,271.0,0.5,49,69.03
984,G1,271.0,0.5,49,69.03
985,B-4,271.25,0.25,40,69.03
986,D4,271.5,0.25,40,69.03
987,B-2,271.5,0.5,38,69.03
988,D4,271.75,0.25,46,69.03
989,A4,271.75,0.25,46,69.03
990,G4,272.0,0.25,45,69.03
991,B-3,272.25,0.25,46,69.03
992,C#2,272.5,0.5,49,69.03
993,E-4,272.5,0.25,44,69.03
994,B-3,272.5,0.25,44,69.03
995,D4,272.75,0.25,43,69.03
996,G3,273.0,0.25,42,69.03
997,D2,273.0,0.5,38,69.03
998,G3,273.25,0.25,42,69.03
999,C4,273.25,0.25,42,69.03
1000,B-3,273.5,0.25,40,69.03
1001,D3,273.75,0.25,40,69.03
1002,G3,274.0,0.25,49,69.03
1003,C4,274.0,0.25,49,69.03
1004,G2,274.0,0.5,49,69.03
1005,G1,274.0,0.5,49,69.03
1006,B-3,274.25,0.25,48,69.03
1007,D3,274.5,0.25,48,69.03
1008,G3,274.75,0.25,50,69.03
1009,D4,274.75,0.25,50,69.03
1010,C4,275.0,0.25,50,69.03
1011,C2,275.0,0.5,45,69.03
1012,E-3,275.25,0.25,51,69.03
1013,G3,275.5,0.25,50,69.03
1014,C4,275.5,0.25,50,69.03
1015,G1,275.5,0.5,49,69.03
1016,G2,275.5,0.5,49,69.03
1017,B-3,275.75,0.25,50,69.03
1018,D3,276.0,0.25,50,69.03
1019,G3,276.25,0.25,49,69.03
1020,D4,276.25,0.25,49,69.03
1021,C4,276.5,0.25,48,69.03
1022,C2,276.5,0.5,45,69.03
1023,E-3,276.75,0.25,48,69.03
1024,G3,277.0,0.25,49,69.03
1025,C4,277.0,0.25,49,69.03
1026,G1,277.0,0.5,49,69.03
1027,G2,277.0,0.5,49,69.03
1028,B-3,277.25,0.25,48,69.03
1029,D3,277.5,0.25,48,69.03
1030,D4,277.75,0.25,50,69.03
1031,G3,277.75,0.25,50,69.03
1032,C4,278.0,0.25,50,69.03
1033,C2,278.0,0.5,45,69.03
1034,E-3,278.25,0.25,51,69.03
1035,G3,278.5,0.25,50,69.03
1036,C4,278.5,0.25,50,69.03
1037,G2,278.5,0.5,49,69.03
1038,G1,278.5,0.5,49,69.03
1039,B-3,278.75,0.25,50,69.03
1040,D3,279.0,0.25,50,69.03
1041,D4,279.25,0.25,49,69.03
1042,G3,279.25,0.25,49,69.03
1043,C4,279.5,0.25,48,69.03
1044,C2,279.5,0.5,45,69.03
1045,E-3,279.75,0.25,48,69.03
1046,G3,280.0,0.25,50,69.03
1047,G1,280.0,1.5,45,69.03
1048,G2,280.0,1.5,45,69.03
1049,D4,280.25,0.25,51,69.03
1050,B-3,280.5,0.25,52,69.03
1051,D4,280.75,0.25,53,69.03
1052,G4,281.0,0.25,55,69.03
1053,B-4,281.25,0.25,56,69.03
1054,D5,281.5,0.25,57,69.03
1055,G5,281.75,0.25,58,69.03
1056,B-5,282.0,0.25,59,69.03
1057,D4,282.0,229/500,52,69.03
1058,G4,282.0,229/500,52,69.03
1059,D6,282.25,0.25,61,69.03
1060,G6,282.5,0.25,62,69.03
1061,D4,282.5,229/500,49,69.03
1062,G3,282.5,229/500,49,69.03
1063,D7,282.75,0.25,63,69.03
1064,B-6,283.0,0.25,63,69.03
1065,D4,283.0,1.0,52,69.03
1066,G4,283.0,1.0,52,69.03
1067,D7,283.25,0.25,60,69.03
1068,G6,283.5,0.25,59,69.03
1069,D6,283.75,0.25,58,69.03
1070,B-5,284.0,0.25,58,69.03
1071,G5,284.25,0.25,57,69.03
1072,D5,284.5,0.25,56,69.03
1073,B-4,284.75,0.25,56,69.03
1074,G4,285.0,0.25,55,69.03
1075,D4,285.25,0.25,54,69.03
1076,B-3,285.5,0.25,53,69.03
1077,D2,285.5,0.5,49,69.03
1078,D3,285.75,0.25,53,69.03
1079,G3,286.0,0.25,49,69.03
1080,G1,286.0,2.5,48,69.03
1081,G2,286.0,2.5,48,69.03
1082,D4,286.25,0.25,50,69.03
1083,B-3,286.5,0.25,52,69.03
1084,D4,286.75,0.25,54,69.03
1085,G4,287.0,0.25,55,69.03
1086,D5,287.25,0.25,57,69.03
1087,B-4,287.5,0.25,57,69.03
1088,D5,287.75,0.25,56,69.03
1089,G4,288.0,0.25,54,69.03
1090,D4,288.25,0.25,53,69.03
1091,B-3,288.5,0.25,51,69.03
1092,D2,288.5,0.5,47,69.03
1093,D3,288.75,0.25,49,69.03
1094,F#3,289.0,0.25,49,69.03
1095,F#1,289.0,2.5,48,69.03
1096,F#2,289.0,2.5,48,69.03
1097,D4,289.25,0.25,50,69.03
1098,B-3,289.5,0.25,52,69.03
1099,D4,289.75,0.25,54,69.03
1100,F#4,290.0,0.25,55,69.03
1101,D5,290.25,0.25,57,69.03
1102,B-4,290.5,0.25,57,69.03
1103,D5,290.75,0.25,56,69.03
1104,F#4,291.0,0.25,54,69.03
1105,D4,291.25,0.25,53,69.03
1106,B-3,291.5,0.25,51,69.03
1107,D2,291.5,0.5,47,69.03
1108,D3,291.75,0.25,49,69.03
1109,G3,292.0,0.25,50,69.03
1110,G2,292.0,1.5,45,69.03
1111,G1,292.0,1.5,45,69.03
1112,D4,292.25,0.25,51,69.03
1113,B-3,292.5,0.25,52,69.03
1114,D4,292.75,0.25,53,69.03
1115,G4,293.0,0.25,55,69.03
1116,B-4,293.25,0.25,56,69.03
1117,D5,293.5,0.25,57,69.03
1118,G5,293.75,0.25,58,69.03
1119,B-5,294.0,0.25,59,69.03
1120,G3,294.0,229/500,52,69.03
1121,D3,294.0,229/500,52,69.03
1122,D6,294.25,0.25,61,69.03
1123,G6,294.5,0.25,62,69.03
1124,G2,294.5,229/500,49,69.03
1125,D3,294.5,229/500,49,69.03
1126,D7,294.75,0.25,63,69.03
1127,B-6,295.0,0.25,63,69.03
1128,D3,295.0,1.0,52,69.03
1129,G3,295.0,1.0,52,69.03
1130,D7,295.25,0.25,60,69.03
1131,G6,295.5,0.25,59,69.03
1132,D6,295.75,0.25,58,69.03
1133,B-5,296.0,0.25,58,69.03
1134,G5,296.25,0.25,57,69.03
1135,D5,296.5,0.25,56,69.03
1136,B-4,296.75,0.25,56,69.03
1137,G4,297.0,0.25,55,69.03
1138,D4,297.25,0.25,54,69.03
1139,B-3,297.5,0.25,53,69.03
1140,D2,297.5,0.5,49,69.03
1141,D3,297.75,0.25,53,69.03
1142,F#3,298.0,0.25,49,69.03
1143,F#2,298.0,2.5,48,69.03
1144,F#1,298.0,2.5,48,69.03
1145,D4,298.25,0.25,50,69.03
1146,B-3,298.5,0.25,52,69.03
1147,D4,298.75,0.25,54,69.03
1148,F#4,299.0,0.25,55,69.03
1149,D5,299.25,0.25,57,69.03
1150,B-4,299.5,0.25,57,69.03
1151,D5,299.75,0.25,56,69.03
1152,F#4,300.0,0.25,54,69.03
1153,D4,300.25,0.25,53,69.03
1154,B-3,300.5,0.25,51,69.03
1155,D2,300.5,0.5,47,69.03
1156,D3,300.75,0.25,49,69.03
1157,F3,301.0,0.25,49,69.03
1158,F2,301.0,2.5,52,69.03
1159,F1,301.0,3.0,44,69.03
1160,D4,301.25,0.25,50,69.03
1161,B-3,301.5,0.25,52,69.03
1162,D4,301.75,0.25,54,69.03
1163,F4,302.0,0.25,55,69.03
1164,D5,302.25,0.25,57,69.03
1165,B-4,302.5,0.25,57,69.03
1166,D5,302.75,0.25,56,69.03
1167,F4,303.0,0.25,54,69.03
1168,D4,303.25,0.25,53,69.03
1169,B-3,303.5,0.25,51,69.03
1170,G2,303.5,0.5,47,69.03
1171,D3,303.75,0.25,49,69.03
1172,F3,304.0,0.25,50,69.03
1173,A2,304.0,1.0,49,69.03
1174,F1,304.0,1.0,44,69.03
1175,C4,304.25,0.25,51,69.03
1176,A3,304.5,0.25,52,69.03
1177,C4,304.75,0.25,53,69.03
1178,F4,305.0,0.25,55,69.03
1179,A4,305.25,0.25,56,69.03
1180,C5,305.5,0.25,57,69.03
1181,F5,305.75,0.25,58,69.03
1182,A5,306.0,0.25,59,69.03
1183,C4,306.0,229/500,48,69.03
1184,F4,306.0,229/500,48,69.03
1185,C6,306.25,0.25,61,69.03
1186,F6,306.5,0.25,62,69.03
1187,C4,306.5,229/500,40,69.03
1188,F3,306.5,229/500,40,69.03
1189,A6,306.75,0.25,63,69.03
1190,F7,307.0,0.5,63,69.03
1191,F4,307.0,2.5,48,69.03
1192,C4,307.0,2.5,48,69.03
1193,F3,309.5,0.5,38,69.03
1194,C4,309.5,0.5,38,69.03
1195,F4,310.0,2.5,42,69.03
1196,C4,310.0,2.5,42,69.03
1197,F3,312.5,0.5,34,69.03
1198,C4,312.5,0.5,34,69.03
1199,C4,313.0,1.0,37,69.03
1200,F4,313.0,1.0,37,69.03
1201,F3,314.0,0.5,31,69.03
1202,C4,314.0,0.5,31,69.03
1203,F4,314.5,0.5,34,69.03
1204,C4,314.5,0.5,34,69.03
1205,F3,315.0,479/1000,33,69.03
1206,C4,315.0,479/1000,33,69.03
1207,C4,315.5,0.5,33,69.03
1208,F4,315.5,0.5,33,69.03
1209,B-1,316.0,1.0,36,69.03
1210,C4,316.0,3.0,33,69.03
1211,F4,316.0,3.0,33,69.03
1212,B-2,317.0,1.0,29,69.03
1213,G#3,318.0,1.0,29,69.03
1214,D4,319.0,3.0,34,69.03
1215,G4,319.0,2.0,42,69.03
1216,F3,319.0,1.0,31,69.03
1217,C4,320.0,1.0,31,69.03
1218,G4,321.0,1.0,37,69.03
1219,B-3,321.0,1.0,31,69.03
1220,E-4,322.0,4.0,42,69.03
1221,E-2,322.0,1.0,36,69.03
1222,B-2,323.0,1.0,27,69.03
1223,E-3,324.0,1.0,26,69.03
1224,G3,325.0,1.0,32,69.03
1225,E-5,326.0,1.5,50,69.03
1226,B-3,326.0,1.0,31,69.03
1227,E-4,327.0,1.0,31,69.03
1228,D5,327.5,0.5,40,69.03
1229,C4,328.0,1.0,33,69.03
1230,G4,328.0,3.0,41,69.03
1231,C5,328.0,3.0,41,69.03
1232,E-4,329.0,1.0,30,69.03
1233,F3,330.0,1.0,25,69.03
1234,D5,331.0,2.0,48,69.03
1235,A4,331.0,3.0,37,69.03
1236,E-4,331.0,1.0,33,69.03
1237,G4,332.0,1.0,30,69.03
1238,D5,333.0,1.0,37,69.03
1239,F4,333.0,1.0,30,69.03
1240,B-4,334.0,3.0,40,69.03
1241,B-2,334.0,1.0,36,69.03
1242,F3,335.0,1.0,29,69.03
1243,B-3,336.0,1.0,29,69.03
1244,B-5,337.0,2.0,60,69.03
1245,D4,337.0,1.0,32,69.03
1246,F4,338.0,1.0,32,69.03
1247,B-5,339.0,1.0,56,69.03
1248,B-4,339.0,1.0,32,69.03
1249,B-5,340.0,2.0,59,69.03
1250,C4,340.0,1.0,36,69.03
1251,E-4,341.0,1.0,30,69.03
1252,G#5,342.0,473/500,55,69.03
1253,F3,342.0,1.0,30,69.03
1254,G#5,343.0,1.0,59,69.03
1255,B-3,343.0,1.0,33,69.03
1256,G5,344.0,1.0,56,69.03
1257,D4,344.0,1.0,26,69.03
1258,F#5,345.0,479/500,55,69.03
1259,G#4,345.0,1.0,28,69.03
1260,F#5,346.0,2.0,58,69.03
1261,B-3,346.0,1.0,36,69.03
1262,D4,347.0,1.0,29,69.03
1263,G5,348.0,2.0,56,69.03
1264,E-3,348.0,1.0,29,69.03
1265,G#3,349.0,1.0,28,69.03
1266,G#5,350.0,1.5,62,69.03
1267,C4,350.0,1.0,29,69.03
1268,G4,351.0,1.0,29,69.03
1269,E-5,351.5,0.5,56,69.03
1270,G5,352.0,2.0,59,69.03
1271,G#3,352.0,1.0,36,69.03
1272,C4,353.0,1.0,31,69.03
1273,F5,354.0,2.0,50,69.03
1274,D3,354.0,1.0,32,69.03
1275,G3,355.0,1.0,30,69.03
1276,G5,356.0,1.5,59,69.03
1277,B3,356.0,1.0,36,69.03
1278,F4,357.0,1.0,30,69.03
1279,D5,357.5,0.5,53,69.03
1280,F5,358.0,1.0,59,69.03
1281,G3,358.0,1.0,36,69.03
1282,E-5,359.0,1.0,55,69.03
1283,C4,359.0,1.0,31,69.03
1284,D5,360.0,1.0,55,69.03
1285,C3,360.0,1.0,31,69.03
1286,C5,361.0,333/1000,55,69.03
1287,F3,361.0,1.0,33,69.03
1288,D5,361.333,333/1000,50,69.03
1289,C5,361.667,333/1000,50,69.03
1290,B4,362.0,0.5,53,69.03
1291,A3,362.0,1.0,33,69.03
1292,C5,362.5,0.5,50,69.03
1293,D5,363.0,0.5,50,69.03
1294,E-4,363.0,1.0,33,69.03
1295,E-5,363.5,0.375,50,69.03
1296,C4,363.875,0.125,30,69.03
1297,F4,364.0,3.0,36,69.03
1298,C4,364.0,3.0,30,69.03
1299,F3,364.0,1.0,36,69.03
1300,G#3,365.0,1.0,29,69.03
1301,B-2,366.0,1.0,29,69.03
1302,D4,367.0,3.0,34,69.03
1303,G4,367.0,2.0,42,69.03
1304,G#3,367.0,1.0,31,69.03
1305,C4,368.0,1.0,31,69.03
1306,G4,369.0,1.0,37,69.03
1307,B-3,369.0,1.0,31,69.03
1308,E-4,370.0,4.0,42,69.03
1309,E-2,370.0,1.0,36,69.03
1310,B-2,371.0,1.0,30,69.03
1311,E-3,372.0,1.0,27,69.03
1312,G3,373.0,1.0,31,69.03
1313,E-5,374.0,1.5,55,69.03
1314,B-3,374.0,1.0,31,69.03
1315,E-4,375.0,1.0,28,69.03
1316,D5,375.5,0.5,44,69.03
1317,C4,376.0,1.0,30,69.03
1318,G4,376.0,3.0,44,69.03
1319,C5,376.0,3.0,44,69.03
1320,E-4,377.0,1.0,30,69.03
1321,F3,378.0,1.0,25,69.03
1322,A4,379.0,3.0,40,69.03
1323,D5,379.0,1979/1000,52,69.03
1324,E-4,379.0,1.0,33,69.03
1325,G4,380.0,1.0,30,69.03
1326,D5,381.0,1.0,47,69.03
1327,F4,381.0,1.0,30,69.03
1328,B-4,382.0,3.0,49,69.03
1329,B-2,382.0,1.0,36,69.03
1330,F3,383.0,1.0,32,69.03
1331,B-3,384.0,1.0,32,69.03
1332,B-5,385.0,1979/1000,66,69.03
1333,D4,385.0,1.0,34,69.03
1334,F4,386.0,1.0,37,69.03
1335,B-5,387.0,479/500,60,69.03
1336,B-4,387.0,1.0,42,69.03
1337,B-5,388.0,3.0,68,69.03
1338,C2,388.0,1.0,44,69.03
1339,E4,389.0,1.0,30,69.03
1340,B-3,390.0,1.0,26,69.03
1341,C5,391.0,2.0,61,69.03
1342,G3,391.0,3.0,30,69.03
1343,E4,392.0,1.0,27,69.03
1344,D5,393.0,1.0,55,69.03
1345,B-3,393.0,1.0,27,69.03
1346,E-5,394.0,333/1000,60,69.03
1347,F3,394.0,3.0,36,69.03
1348,F5,394.333,333/1000,53,69.03
1349,E-5,394.667,333/1000,53,69.03
1350,D5,395.0,1.0,52,69.03
1351,E-4,395.0,1.0,31,69.03
1352,E-5,396.0,1.0,55,69.03
1353,A3,396.0,1.0,31,69.03
1354,G5,397.0,247/250,56,69.03
1355,B-2,397.0,1.0,36,69.03
1356,G5,398.0,1333/1000,61,69.03
1357,D4,398.0,1.0,31,69.03
1358,G#3,399.0,1.0,31,69.03
1359,F5,399.333,333/1000,48,69.03
1360,E-5,399.667,73/250,48,69.03
1361,E-5,400.0,3.0,50,69.03
1362,E-2,400.0,0.5,38,69.03
1363,B-2,400.5,0.5,26,69.03
1364,G3,401.0,0.5,31,69.03
1365,E-3,401.5,0.5,27,69.03
1366,B-3,402.0,0.5,31,69.03
1367,G3,402.5,0.5,27,69.03
1368,E-4,403.0,1.0,32,69.03
1369,G4,404.0,0.5,36,69.03
1370,G#4,404.5,0.5,34,69.03
1371,B-4,405.0,333/1000,37,69.03
1372,D5,405.333,333/1000,34,69.03
1373,C5,405.667,333/1000,34,69.03
1374,B-4,406.0,3.0,42,69.03
1375,E-2,406.0,0.5,32,69.03
1376,B-2,406.5,0.5,22,69.03
1377,G3,407.0,0.5,26,69.03
1378,E-3,407.5,0.5,22,69.03
1379,B-3,408.0,0.5,26,69.03
1380,G3,408.5,0.5,22,69.03
1381,E-4,409.0,1.0,27,69.03
1382,G4,410.0,0.5,36,69.03
1383,G#4,410.5,0.5,34,69.03
1384,B-4,411.0,333/1000,37,69.03
1385,D5,411.333,333/1000,34,69.03
1386,C5,411.667,333/1000,34,69.03
1387,B-4,412.0,3.0,42,69.03
1388,E-2,412.0,0.5,32,69.03
1389,B-2,412.5,0.5,22,69.03
1390,G#3,413.0,0.5,26,69.03
1391,F3,413.5,0.5,22,69.03
1392,B-3,414.0,0.5,26,69.03
1393,G#3,414.5,0.5,22,69.03
1394,D4,415.0,1.0,27,69.03
1395,F4,416.0,0.5,36,69.03
1396,G#4,416.5,0.5,34,69.03
1397,B-4,417.0,333/1000,37,69.03
1398,D5,417.333,333/1000,34,69.03
1399,C5,417.667,333/1000,34,69.03
1400,B-4,418.0,1333/1000,42,69.03
1401,E-2,418.0,0.5,32,69.03
1402,B-2,418.5,0.5,25,69.03
1403,G3,419.0,1.0,28,69.03
1404,C#4,419.333,1.0,34,69.03
1405,E-4,419.667,333/1000,34,69.03
1406,G4,420.0,333/1000,39,69.03
1407,C5,420.333,333/1000,34,69.03
1408,B-4,420.667,333/1000,35,69.03
1409,G#4,421.0,1.5,38,69.03
1410,E-2,421.0,0.5,32,69.03
1411,E-3,421.5,0.5,25,69.03
1412,G#3,422.0,1.0,29,69.03
1413,B3,422.5,1.0,37,69.03
1414,E-4,423.0,0.5,38,69.03
1415,F4,423.5,0.5,35,69.03
1416,G4,424.0,3.0,46,69.03
1417,E-2,424.0,0.5,32,69.03
1418,B-2,424.5,0.5,22,69.03
1419,G3,425.0,0.5,26,69.03
1420,E-3,425.5,0.5,22,69.03
1421,B-3,426.0,0.5,26,69.03
1422,G3,426.5,0.5,22,69.03
1423,E-4,427.0,1.0,27,69.03
1424,G4,428.0,0.5,36,69.03
1425,G#4,428.5,0.5,34,69.03
1426,B-4,429.0,333/1000,37,69.03
1427,D5,429.333,333/1000,34,69.03
1428,C5,429.667,333/1000,34,69.03
1429,B-4,430.0,1.0,42,69.03
1430,E-2,430.0,0.5,32,69.03
1431,B-2,430.5,0.5,22,69.03
1432,B-5,431.0,3.0,51,69.03
1433,G3,431.0,0.5,26,69.03
1434,E-3,431.5,0.5,22,69.03
1435,B-3,432.0,0.5,26,69.03
1436,G3,432.5,0.5,22,69.03
1437,E-4,433.0,1.0,27,69.03
1438,G4,434.333,333/1000,36,69.03
1439,G#4,434.667,333/1000,34,69.03
1440,B-4,435.0,333/1000,37,69.03
1441,D5,435.333,333/1000,34,69.03
1442,C5,435.667,333/1000,34,69.03
1443,B-4,436.0,1.0,42,69.03
1444,E-2,436.0,0.5,32,69.03
1445,B-2,436.5,0.5,22,69.03
1446,B-5,437.0,3.0,50,69.03
1447,G#3,437.0,0.5,26,69.03
1448,F3,437.5,0.5,22,69.03
1449,B-3,438.0,0.5,26,69.03
1450,G#3,438.5,0.5,22,69.03
1451,D4,439.0,1.0,27,69.03
1452,F4,440.333,333/1000,36,69.03
1453,G#4,440.667,333/1000,34,69.03
1454,B-4,441.0,333/1000,37,69.03
1455,D5,441.333,333/1000,34,69.03
1456,C5,441.667,333/1000,34,69.03
1457,B-4,442.0,1333/1000,42,69.03
1458,E-2,442.0,0.5,32,69.03
1459,B-2,442.5,0.5,25,69.03
1460,G3,443.0,1.0,28,69.03
1461,C#4,443.333,1.0,34,69.03
1462,E-4,443.667,333/1000,34,69.03
1463,G4,444.0,333/1000,39,69.03
1464,C5,444.333,333/1000,34,69.03
1465,B-4,444.667,333/1000,35,69.03
1466,G#4,445.0,1.5,38,69.03
1467,E-2,445.0,0.5,32,69.03
1468,E-3,445.5,0.5,25,69.03
1469,G#3,446.0,1.0,29,69.03
1470,B3,446.5,1.0,37,69.03
1471,E-4,447.0,0.5,38,69.03
1472,F4,447.5,0.5,35,69.03
1473,G4,448.0,3.5,46,69.03
1474,E-2,448.0,0.5,32,69.03
1475,B-2,448.5,0.5,22,69.03
1476,G3,449.0,0.5,26,69.03
1477,E-3,449.5,0.5,22,69.03
1478,B-3,450.0,0.5,26,69.03
1479,G3,450.5,0.5,22,69.03
1480,E-4,451.0,1.0,27,69.03
1481,G4,451.5,0.5,34,69.03
1482,B-4,452.0,0.5,36,69.03
1483,G5,452.5,0.5,37,69.03
1484,F5,453.0,0.5,40,69.03
1485,E-5,453.5,0.5,37,69.03
1486,D5,454.0,3.5,46,69.03
1487,G2,454.0,0.5,32,69.03
1488,D3,454.5,0.5,22,69.03
1489,B-3,455.0,0.5,26,69.03
1490,G3,455.5,0.5,22,69.03
1491,D4,456.0,0.5,26,69.03
1492,B-3,456.5,0.5,22,69.03
1493,G4,457.0,1.0,27,69.03
1494,B-4,457.5,0.5,34,69.03
1495,D5,458.0,0.5,36,69.03
1496,B-5,458.5,0.5,37,69.03
1497,D5,459.0,0.5,40,69.03
1498,E-5,459.5,0.5,37,69.03
1499,E5,460.0,1.0,46,69.03
1500,B-2,460.0,0.5,32,69.03
1501,F3,460.5,0.5,22,69.03
1502,F5,461.0,2.5,46,69.03
1503,D4,461.0,0.5,26,69.03
1504,B-3,461.5,0.5,22,69.03
1505,F4,462.0,0.5,26,69.03
1506,D4,462.5,0.5,22,69.03
1507,B-4,463.0,1.0,27,69.03
1508,D5,463.5,0.5,39,69.03
1509,F5,464.0,0.5,43,69.03
1510,D6,464.5,0.5,50,69.03
1511,C6,465.0,0.5,46,69.03
1512,B-5,465.5,0.5,41,69.03
1513,G#5,466.0,0.5,45,69.03
1514,D3,466.0,0.5,31,69.03
1515,A5,466.5,0.5,40,69.03
1516,A3,466.5,0.5,26,69.03
1517,F6,467.0,0.5,51,69.03
1518,F4,467.0,0.5,31,69.03
1519,E6,467.5,0.5,46,69.03
1520,D4,467.5,0.5,26,69.03
1521,D6,468.0,0.5,45,69.03
1522,A4,468.0,0.5,31,69.03
1523,A5,468.5,0.5,40,69.03
1524,F4,468.5,0.5,26,69.03
1525,D5,469.0,0.5,40,69.03
1526,A4,469.5,0.5,36,69.03
1527,F4,470.0,0.5,39,69.03
1528,D4,470.5,0.5,34,69.03
1529,E4,471.0,0.375,39,69.03
1530,G4,471.375,0.125,31,69.03
1531,F4,471.5,0.5,36,69.03
1532,E3,472.0,3.0,28,69.03
1533,E2,473.0,1.0,25,69.03
1534,E2,474.0,1.0,25,69.03
1535,D4,475.5,2.5,38,69.03
1536,E4,476.0,2.0,37,69.03
1537,E2,476.0,0.5,39,69.03
1538,G#4,476.5,0.5,37,69.03
1539,C5,477.0,0.5,41,69.03
1540,E2,477.0,0.5,39,69.03
1541,B4,477.5,0.5,39,69.03
1542,A4,478.0,3.0,37,69.03
1543,E2,479.0,99/100,22,69.03
1544,C4,479.0,99/100,26,69.03
1545,E4,479.0,99/100,26,69.03
1546,E2,480.0,99/100,22,69.03
1547,C4,480.0,99/100,26,69.03
1548,E4,480.0,99/100,26,69.03
1549,E5,481.0,3.0,41,69.03
1550,E4,481.0,3.0,34,69.03
1551,A4,482.0,99/100,28,69.03
1552,E3,482.0,99/100,21,69.03
1553,A3,482.0,99/100,21,69.03
1554,A4,483.0,99/100,28,69.03
1555,A3,483.0,99/100,21,69.03
1556,E3,483.0,99/100,21,69.03
1557,D5,484.0,3.0,39,69.03
1558,D4,484.0,3.0,34,69.03
1559,A4,485.0,99/100,26,69.03
1560,F4,485.0,99/100,26,69.03
1561,A3,485.0,99/100,22,69.03
1562,E3,485.0,99/100,22,69.03
1563,F4,486.0,99/100,26,69.03
1564,A4,486.0,99/100,26,69.03
1565,E3,486.0,99/100,22,69.03
1566,A3,486.0,99/100,22,69.03
1567,D4,487.5,2.5,40,69.03
1568,E4,488.0,2.0,37,69.03
1569,E2,488.0,0.5,39,69.03
1570,G#4,488.5,0.5,37,69.03
1571,C5,489.0,0.5,41,69.03
1572,E2,489.0,0.5,39,69.03
1573,B4,489.5,0.5,39,69.03
1574,A4,490.0,3.0,37,69.03
1575,E2,491.0,99/100,22,69.03
1576,C4,491.0,99/100,26,69.03
1577,E4,491.0,99/100,26,69.03
1578,E2,492.0,99/100,22,69.03
1579,C4,492.0,99/100,26,69.03
1580,E4,492.0,99/100,26,69.03
1581,F#4,493.0,3.0,37,69.03
1582,F#3,493.0,3.0,31,69.03
1583,E2,494.0,99/100,21,69.03
1584,E4,494.0,99/100,25,69.03
1585,A3,494.0,99/100,25,69.03
1586,C4,494.0,99/100,25,69.03
1587,E2,495.0,99/100,21,69.03
1588,E4,495.0,99/100,25,69.03
1589,A3,495.0,99/100,25,69.03
1590,C4,495.0,99/100,25,69.03
1591,G#4,496.0,3.0,37,69.03
1592,G#3,496.0,3.0,31,69.03
1593,E2,497.0,99/100,16,69.03
1594,B3,497.0,99/100,21,69.03
1595,E4,497.0,99/100,21,69.03
1596,E2,498.0,99/100,16,69.03
1597,B3,498.0,99/100,21,69.03
1598,E4,498.0,99/100,21,69.03
1599,D4,499.5,2.5,40,69.03
1600,E4,500.0,2.0,37,69.03
1601,E2,500.0,99/100,39,69.03
1602,G#4,500.5,0.5,37,69.03
1603,C5,501.0,0.5,41,69.03
1604,E2,501.0,99/100,39,69.03
1605,B4,501.5,0.5,39,69.03
1606,A4,502.0,3.0,37,69.03
1607,E2,503.0,99/100,22,69.03
1608,C4,503.0,99/100,26,69.03
1609,E4,503.0,99/100,26,69.03
1610,E2,504.0,99/100,22,69.03
1611,C4,504.0,99/100,26,69.03
1612,E4,504.0,99/100,26,69.03
1613,E5,505.0,3.0,53,69.03
1614,E4,505.0,3.0,41,69.03
1615,C5,506.0,99/100,29,69.03
1616,A4,506.0,99/100,29,69.03
1617,C4,506.0,99/100,21,69.03
1618,E3,506.0,99/100,21,69.03
1619,A3,506.0,99/100,21,69.03
1620,A4,507.0,99/100,29,69.03
1621,C5,507.0,99/100,29,69.03
1622,E3,507.0,99/100,21,69.03
1623,C4,507.0,99/100,21,69.03
1624,A3,507.0,99/100,21,69.03
1625,F#5,508.0,3.0,53,69.03
1626,F#4,508.0,3.0,41,69.03
1627,E4,509.0,99/100,28,69.03
1628,A4,509.0,99/100,28,69.03
1629,C5,509.0,99/100,28,69.03
1630,E3,509.0,99/100,21,69.03
1631,C4,509.0,99/100,21,69.03
1632,A3,509.0,99/100,21,69.03
1633,A4,510.0,99/100,28,69.03
1634,C5,510.0,99/100,28,69.03
1635,E4,510.0,99/100,28,69.03
1636,C4,510.0,99/100,21,69.03
1637,E3,510.0,99/100,21,69.03
1638,A3,510.0,99/100,21,69.03
1639,C4,511.5,2.5,40,69.03
1640,E4,512.0,2.0,37,69.03
1641,E2,512.0,99/100,39,69.03
1642,G#4,512.5,0.5,37,69.03
1643,B4,513.0,0.5,41,69.03
1644,E2,513.0,99/100,39,69.03
1645,A4,513.5,0.5,39,69.03
1646,A4,514.0,3.0,37,69.03
1647,E2,515.0,99/100,22,69.03
1648,E4,515.0,99/100,26,69.03
1649,C4,515.0,99/100,26,69.03
1650,E2,516.0,99/100,22,69.03
1651,C4,516.0,99/100,26,69.03
1652,E4,516.0,99/100,26,69.03
1653,F#5,517.0,3.0,55,69.03
1654,F#4,517.0,3.0,45,69.03
1655,E4,518.0,99/100,30,69.03
1656,A4,518.0,99/100,30,69.03
1657,C5,518.0,99/100,30,69.03
1658,E3,518.0,99/100,23,69.03
1659,C4,518.0,99/100,23,69.03
1660,A3,518.0,99/100,23,69.03
1661,E4,519.0,99/100,31,69.03
1662,A4,519.0,99/100,31,69.03
1663,C5,519.0,99/100,31,69.03
1664,A3,519.0,99/100,23,69.03
1665,E3,519.0,99/100,23,69.03
1666,C4,519.0,99/100,23,69.03
1667,G#5,520.0,3.0,58,69.03
1668,G#4,520.0,3.0,47,69.03
1669,A4,521.0,99/100,32,69.03
1670,C5,521.0,99/100,32,69.03
1671,E-5,521.0,99/100,32,69.03
1672,E3,521.0,99/100,23,69.03
1673,C4,521.0,99/100,23,69.03
1674,A3,521.0,99/100,23,69.03
1675,E-5,522.0,99/100,32,69.03
1676,C5,522.0,99/100,32,69.03
1677,A4,522.0,99/100,32,69.03
1678,A3,522.0,99/100,23,69.03
1679,E3,522.0,99/100,23,69.03
1680,C4,522.0,99/100,23,69.03
1681,F#5,523.0,2.0,62,69.03
1682,F#4,523.0,2.0,50,69.03
1683,A4,524.0,1.0,34,69.03
1684,E-5,524.0,1.0,34,69.03
1685,C5,524.0,1.0,34,69.03
1686,A3,524.0,1.0,25,69.03
1687,E3,524.0,1.0,25,69.03
1688,C4,524.0,1.0,25,69.03
1689,G#5,525.5,229/500,65,69.03
1690,G#4,525.5,229/500,53,69.03
1691,G#5,526.0,3.0,66,69.03
1692,G#4,526.0,3.0,53,69.03
1693,E-5,527.0,99/100,38,69.03
1694,C5,527.0,99/100,38,69.03
1695,A4,527.0,99/100,38,69.03
1696,E3,527.0,99/100,27,69.03
1697,C4,527.0,99/100,27,69.03
1698,A3,527.0,99/100,27,69.03
1699,E-5,528.0,99/100,38,69.03
1700,C5,528.0,99/100,38,69.03
1701,A4,528.0,99/100,38,69.03
1702,E3,528.0,99/100,28,69.03
1703,C4,528.0,99/100,28,69.03
1704,A3,528.0,99/100,28,69.03
1705,F#5,529.0,2.0,69,69.03
1706,F#4,529.0,2.0,57,69.03
1707,A4,530.0,1.0,41,69.03
1708,C5,530.0,1.0,41,69.03
1709,E-5,530.0,1.0,41,69.03
1710,C4,530.0,1.0,29,69.03
1711,E3,530.0,1.0,29,69.03
1712,A3,530.0,1.0,29,69.03
1713,G#5,531.5,229/500,71,69.03
1714,G#4,531.5,229/500,59,69.03
1715,G#5,532.0,3.0,74,69.03
1716,G#4,532.0,3.0,59,69.03
1717,E-5,533.0,99/100,43,69.03
1718,C5,533.0,99/100,43,69.03
1719,A4,533.0,99/100,43,69.03
1720,E3,533.0,99/100,31,69.03
1721,A3,533.0,99/100,31,69.03
1722,C4,533.0,99/100,31,69.03
1723,E-5,534.0,99/100,43,69.03
1724,C5,534.0,99/100,43,69.03
1725,A4,534.0,99/100,43,69.03
1726,E3,534.0,99/100,32,69.03
1727,C4,534.0,99/100,32,69.03
1728,A3,534.0,99/100,32,69.03
1729,F#5,535.0,2.0,81,69.03
1730,F#4,535.0,2.0,65,69.03
1731,E-5,536.0,1.0,46,69.03
1732,A4,536.0,1.0,46,69.03
1733,C5,536.0,1.0,46,69.03
1734,A3,536.0,1.0,34,69.03
1735,E3,536.0,1.0,34,69.03
1736,C4,536.0,1.0,34,69.03
1737,G#5,537.5,0.5,77,69.03
1738,G#4,537.5,0.5,61,69.03
1739,A5,538.0,3.0,78,69.03
1740,A4,538.0,3.0,63,69.03
1741,F#5,539.0,99/100,50,69.03
1742,C5,539.0,99/100,50,69.03
1743,E-5,539.0,99/100,50,69.03
1744,A3,539.0,99/100,36,69.03
1745,E3,539.0,99/100,36,69.03
1746,C4,539.0,99/100,36,69.03
1747,F#5,540.0,99/100,52,69.03
1748,E-5,540.0,99/100,52,69.03
1749,C5,540.0,99/100,52,69.03
1750,C4,540.0,99/100,38,69.03
1751,E3,540.0,99/100,38,69.03
1752,A3,540.0,99/100,38,69.03
1753,G#5,541.0,2.0,94,69.03
1754,G#4,541.0,1.625,74,69.03
1755,F#5,542.0,99/100,54,69.03
1756,E-5,542.0,99/100,54,69.03
1757,C5,542.0,99/100,54,69.03
1758,A3,542.0,0.625,39,69.03
1759,E3,542.0,0.625,39,69.03
1760,C4,542.0,0.625,39,69.03
1761,E3,542.625,1.375,35,69.03
1762,A3,542.75,1.25,36,69.03
1763,C4,542.875,1.125,46,69.03
1764,A4,543.0,1.0,80,69.03
1765,E-5,543.0,99/100,65,69.03
1766,C5,543.0,99/100,65,69.03
1767,F#5,543.0,99/100,65,69.03
1768,A5,543.0,99/100,65,69.03
1769,B4,544.0,3.0,85,69.03
1770,D5,544.0,3.0,85,69.03
1771,B5,544.0,3.0,85,69.03
1772,G#5,544.0,3.0,85,69.03
1773,E5,544.0,3.0,85,69.03
1774,E1,544.0,1.0,77,69.03
1775,E2,544.0,1.0,77,69.03
1776,E3,545.0,1.0,65,69.03
1777,D4,545.0,1.0,65,69.03
1778,G#3,545.0,1.0,65,69.03
1779,D4,546.0,1.0,65,69.03
1780,E4,546.0,1.0,65,69.03
1781,G#3,546.0,1.0,65,69.03
1782,E5,547.0,2.0,85,69.03
1783,D5,547.0,2.0,85,69.03
1784,G#5,547.0,2.0,85,69.03
1785,C#6,547.0,2.0,85,69.03
1786,G#4,547.0,1.0,75,69.03
1787,B3,547.0,1.0,75,69.03
1788,D4,547.0,1.0,75,69.03
1789,E4,548.0,1.0,65,69.03
1790,G#3,548.0,1.0,65,69.03
1791,D4,548.0,1.0,65,69.03
1792,D5,549.0,1.0,80,69.03
1793,E5,549.0,1.0,80,69.03
1794,G#5,549.0,1.0,80,69.03
1795,C#6,549.0,1.0,80,69.03
1796,D4,549.0,1.0,65,69.03
1797,E3,549.0,1.0,65,69.03
1798,G#3,549.0,1.0,65,69.03
1799,A5,550.0,3.0,86,69.03
1800,C#5,550.0,3.0,86,69.03
1801,A4,550.0,3.0,86,69.03
1802,A2,550.0,1.0,77,69.03
1803,A1,550.0,1.0,77,69.03
1804,E3,551.0,1.0,67,69.03
1805,C#4,551.0,1.0,67,69.03
1806,A3,552.0,1.0,68,69.03
1807,E4,552.0,1.0,68,69.03
1808,A5,553.0,2.0,94,69.03
1809,C#6,553.0,2.0,94,69.03
1810,A6,553.0,2.0,94,69.03
1811,C#4,553.0,1.0,77,69.03
1812,A4,553.0,1.0,77,69.03
1813,E4,554.0,1.0,67,69.03
1814,A3,554.0,1.0,67,69.03
1815,G#5,555.0,1.0,90,69.03
1816,C#6,555.0,1.0,90,69.03
1817,G#6,555.0,1.0,90,69.03
1818,C#4,555.0,1.0,67,69.03
1819,E3,555.0,1.0,67,69.03
1820,F#5,556.0,3.0,92,69.03
1821,C#6,556.0,3.0,92,69.03
1822,F#6,556.0,3.0,92,69.03
1823,B2,556.0,1.0,77,69.03
1824,B1,556.0,1.0,77,69.03
1825,B3,557.0,1.0,67,69.03
1826,F#3,557.0,1.0,67,69.03
1827,E-4,558.0,1.0,67,69.03
1828,A3,558.0,1.0,67,69.03
1829,B5,559.0,2.0,91,69.03
1830,E-6,559.0,2.0,91,69.03
1831,G#6,559.0,2.0,91,69.03
1832,F#4,559.0,1.0,77,69.03
1833,B3,559.0,1.0,77,69.03
1834,A3,560.0,1.0,66,69.03
1835,E-4,560.0,1.0,66,69.03
1836,G#6,561.0,1.0,84,69.03
1837,E-6,561.0,1.0,84,69.03
1838,A5,561.0,1.0,84,69.03
1839,B3,561.0,1.0,66,69.03
1840,F#3,561.0,1.0,66,69.03
1841,E6,562.0,3.0,93,69.03
1842,G#5,562.0,3.0,93,69.03
1843,E5,562.0,3.0,93,69.03
1844,E3,562.0,1.0,77,69.03
1845,E2,562.0,1.0,77,69.03
1846,E3,563.0,1.0,68,69.03
1847,B3,563.0,1.0,68,69.03
1848,G#3,564.0,1.0,68,69.03
1849,E4,564.0,1.0,68,69.03
1850,E6,565.0,2.0,104,69.03
1851,E5,565.0,2.0,104,69.03
1852,G#4,565.0,1.0,77,69.03
1853,B3,565.0,1.0,77,69.03
1854,G#3,566.0,1.0,68,69.03
1855,E4,566.0,1.0,68,69.03
1856,E5,567.0,1.0,104,69.03
1857,E6,567.0,1.0,104,69.03
1858,B3,567.0,1.0,68,69.03
1859,E3,567.0,1.0,68,69.03
1860,A5,568.0,3.0,86,69.03
1861,E5,568.0,2.0,104,69.03
1862,E6,568.0,2.0,104,69.03
1863,F#2,568.0,1.0,77,69.03
1864,F#3,568.0,1.0,77,69.03
1865,F#3,569.0,1.0,68,69.03
1866,D4,569.0,1.0,68,69.03
1867,D5,570.0,1.0,90,69.03
1868,D6,570.0,1.0,90,69.03
1869,A4,570.0,1.0,68,69.03
1870,A3,570.0,1.0,68,69.03
1871,D6,571.0,333/1000,88,69.03
1872,D5,571.0,333/1000,88,69.03
1873,B1,571.0,1.0,77,69.03
1874,B2,571.0,1.0,77,69.03
1875,E5,571.333,333/1000,86,69.03
1876,E6,571.333,333/1000,86,69.03
1877,D5,571.667,333/1000,82,69.03
1878,D6,571.667,333/1000,82,69.03
1879,F#3,572.0,1.0,62,69.03
1880,D4,572.0,2.0,74,69.03
1881,C#5,572.0,0.5,90,69.03
1882,C#6,572.0,0.5,90,69.03
1883,D6,572.5,0.5,86,69.03
1884,D5,572.5,0.5,86,69.03
1885,F#6,573.0,0.5,90,69.03
1886,F#5,573.0,0.5,90,69.03
1887,A4,573.0,1.0,68,69.03
1888,B3,573.0,1.0,68,69.03
1889,E6,573.5,0.5,85,69.03
1890,E5,573.5,0.5,85,69.03
1891,G#5,574.0,3.0,86,69.03
1892,D5,574.0,2.0,104,69.03
1893,D6,574.0,2.0,104,69.03
1894,E3,574.0,1.0,77,69.03
1895,E2,574.0,1.0,77,69.03
1896,E3,575.0,1.0,68,69.03
1897,C#4,575.0,1.0,68,69.03
1898,C#5,576.0,1.0,90,69.03
1899,C#6,576.0,1.0,90,69.03
1900,G#3,576.0,1.0,68,69.03
1901,G#4,576.0,1.0,68,69.03
1902,C#6,577.0,333/1000,88,69.03
1903,C#5,577.0,333/1000,88,69.03
1904,A2,577.0,1.0,77,69.03
1905,A1,577.0,1.0,77,69.03
1906,D5,577.333,333/1000,86,69.03
1907,D6,577.333,333/1000,86,69.03
1908,C#5,577.667,333/1000,82,69.03
1909,C#6,577.667,333/1000,82,69.03
1910,C#4,578.0,2.0,74,69.03
1911,E3,578.0,1.0,62,69.03
1912,C5,578.0,0.5,90,69.03
1913,C6,578.0,0.5,90,69.03
1914,C#6,578.5,0.5,86,69.03
1915,C#5,578.5,0.5,86,69.03
1916,E5,579.0,0.5,90,69.03
1917,E6,579.0,0.5,90,69.03
1918,G#4,579.0,1.0,68,69.03
1919,A3,579.0,1.0,68,69.03
1920,D5,579.5,0.5,85,69.03
1921,D6,579.5,0.5,85,69.03
1922,F#5,580.0,3.0,86,69.03
1923,C#5,580.0,1.0,102,69.03
1924,C#6,580.0,1.0,102,69.03
1925,D2,580.0,1.0,77,69.03
1926,D3,580.0,1.0,77,69.03
1927,B4,581.0,1.5,90,69.03
1928,B5,581.0,1.5,90,69.03
1929,D3,581.0,1.0,68,69.03
1930,B3,581.0,1.0,68,69.03
1931,F#3,582.0,1.0,68,69.03
1932,F#4,582.0,1.0,68,69.03
1933,B-4,582.5,0.5,90,69.03
1934,B-5,582.5,0.5,90,69.03
1935,F5,583.0,3.0,86,69.03
1936,B5,583.0,0.75,90,69.03
1937,B4,583.0,0.75,90,69.03
1938,C#2,583.0,1.0,77,69.03
1939,C#3,583.0,1.0,77,69.03
1940,C5,583.75,0.75,86,69.03
1941,C6,583.75,0.75,86,69.03
1942,C#4,584.0,1.0,68,69.03
1943,G#3,584.0,1.0,68,69.03
1944,C#6,584.5,0.75,90,69.03
1945,C#5,584.5,0.75,90,69.03
1946,F4,585.0,1.0,68,69.03
1947,B3,585.0,1.0,68,69.03
1948,G#4,585.25,0.75,85,69.03
1949,G#5,585.25,0.75,85,69.03
1950,C#5,586.0,2.0,79,69.03
1951,F#5,586.0,2.0,79,69.03
1952,B4,586.0,1.0,104,69.03
1953,B5,586.0,1.0,104,69.03
1954,F#2,586.0,1.0,77,69.03
1955,F#1,586.0,1.0,77,69.03
1956,A5,587.0,1.5,97,69.03
1957,A4,587.0,2.0,82,69.03
1958,F#3,587.0,2.0,62,69.03
1959,C#4,587.0,1.0,74,69.03
1960,A3,588.0,1.0,68,69.03
1961,F#4,588.0,1.0,68,69.03
1962,G#5,588.5,0.25,97,69.03
1963,F#5,588.75,0.125,80,69.03
1964,G#5,588.875,0.125,79,69.03
1965,A4,589.0,1.0,86,69.03
1966,F#5,589.0,1.0,86,69.03
1967,E-5,589.0,1.0,86,69.03
1968,B4,589.0,1.0,86,69.03
1969,B1,589.0,1.0,77,69.03
1970,B2,589.0,1.0,77,69.03
1971,B3,590.0,1.0,74,69.03
1972,F3,590.0,2.0,62,69.03
1973,A4,590.0,229/500,74,69.03
1974,F5,590.0,229/500,74,69.03
1975,E-5,590.0,229/500,74,69.03
1976,B4,590.0,229/500,74,69.03
1977,B4,590.5,229/500,78,69.03
1978,A4,590.5,229/500,78,69.03
1979,E-5,590.5,229/500,78,69.03
1980,F#5,590.5,229/500,78,69.03
1981,A4,591.0,229/500,80,69.03
1982,B4,591.0,229/500,80,69.03
1983,E-5,591.0,229/500,80,69.03
1984,G#5,591.0,229/500,80,69.03
1985,E-4,591.0,1.0,68,69.03
1986,A3,591.0,1.0,68,69.03
1987,B4,591.5,229/500,84,69.03
1988,E-5,591.5,229/500,84,69.03
1989,A4,591.5,229/500,84,69.03
1990,A5,591.5,229/500,84,69.03
1991,G#4,592.0,3.0,86,69.03
1992,E4,592.0,3.0,86,69.03
1993,D4,592.0,3.0,86,69.03
1994,B4,592.0,3.0,86,69.03
1995,E2,592.0,1.0,77,69.03
1996,E1,592.0,1.0,77,69.03
1997,G#3,593.0,1.0,66,69.03
1998,B2,593.0,1.0,66,69.03
1999,B3,594.0,1.0,67,69.03
2000,E3,594.0,1.0,67,69.03
2001,C#5,595.0,2.0,85,69.03
2002,E5,595.0,2.0,85,69.03
2003,E4,595.0,2.0,85,69.03
2004,G#4,595.0,2.0,85,69.03
2005,G#3,595.0,1.0,77,69.03
2006,D4,595.0,1.0,77,69.03
2007,B3,596.0,1.0,66,69.03
2008,E3,596.0,1.0,66,69.03
2009,D4,597.0,1.0,80,69.03
2010,E5,597.0,1.0,80,69.03
2011,E4,597.0,1.0,80,69.03
2012,G#4,597.0,1.0,80,69.03
2013,C#5,597.0,1.0,80,69.03
2014,B2,597.0,1.0,67,69.03
2015,G#3,597.0,1.0,67,69.03
2016,C#4,598.0,1.0,86,69.03
2017,A3,598.0,1.0,86,69.03
2018,A4,598.0,1.0,86,69.03
2019,A1,598.0,1.0,77,69.03
2020,A2,598.0,1.0,77,69.03
2021,E3,599.0,1.0,67,69.03
2022,C#4,599.0,1.0,67,69.03
2023,C#5,600.0,1.0,86,69.03
2024,A4,600.0,1.0,86,69.03
2025,A5,600.0,1.0,86,69.03
2026,A3,600.0,1.0,68,69.03
2027,E4,600.0,1.0,68,69.03
2028,A6,601.0,2.0,94,69.03
2029,A5,601.0,2.0,94,69.03
2030,C#6,601.0,2.0,94,69.03
2031,C#4,601.0,1.0,77,69.03
2032,A4,601.0,1.0,77,69.03
2033,E4,602.0,1.0,67,69.03
2034,A3,602.0,1.0,67,69.03
2035,G#6,603.0,1.0,90,69.03
2036,C#6,603.0,1.0,90,69.03
2037,G#5,603.0,1.0,90,69.03
2038,C#4,603.0,1.0,67,69.03
2039,E3,603.0,1.0,67,69.03
2040,C#6,604.0,3.0,93,69.03
2041,F#5,604.0,3.0,93,69.03
2042,F#6,604.0,3.0,93,69.03
2043,B1,604.0,1.0,77,69.03
2044,B2,604.0,1.0,77,69.03
2045,B3,605.0,1.0,67,69.03
2046,F#3,605.0,1.0,67,69.03
2047,E-4,606.0,1.0,67,69.03
2048,A3,606.0,1.0,67,69.03
2049,G#6,607.0,2.0,91,69.03
2050,E-6,607.0,2.0,91,69.03
2051,B5,607.0,2.0,91,69.03
2052,B3,607.0,1.0,77,69.03
2053,F#4,607.0,1.0,77,69.03
2054,A3,608.0,1.0,66,69.03
2055,E-4,608.0,1.0,66,69.03
2056,G#6,609.0,1.0,84,69.03
2057,E-6,609.0,1.0,84,69.03
2058,A5,609.0,1.0,84,69.03
2059,B3,609.0,1.0,66,69.03
2060,F#3,609.0,1.0,66,69.03
2061,G#5,610.0,3.0,93,69.03
2062,E5,610.0,3.0,93,69.03
2063,E6,610.0,3.0,93,69.03
2064,E3,610.0,1.0,77,69.03
2065,E2,610.0,1.0,77,69.03
2066,E3,611.0,1.0,68,69.03
2067,B3,611.0,1.0,68,69.03
2068,G#3,612.0,1.0,68,69.03
2069,E4,612.0,1.0,68,69.03
2070,E6,613.0,2.75,96,69.03
2071,E7,613.0,2.75,96,69.03
2072,B3,613.0,1.0,77,69.03
2073,G#4,613.0,1.0,77,69.03
2074,G#3,614.0,1.0,68,69.03
2075,E4,614.0,1.0,68,69.03
2076,B3,615.0,1.0,68,69.03
2077,E3,615.0,1.0,68,69.03
2078,E6,615.75,0.25,96,69.03
2079,E7,615.75,0.25,96,69.03
2080,E6,616.0,0.5,96,69.03
2081,E7,616.0,0.5,96,69.03
2082,E3,616.0,1.0,77,69.03
2083,E2,616.0,1.0,77,69.03
2084,B-3,617.0,1.0,68,69.03
2085,E3,617.0,1.0,68,69.03
2086,C#4,618.0,1.0,68,69.03
2087,F#3,618.0,1.0,68,69.03
2088,F#4,619.0,3.0,87,69.03
2089,F#5,619.0,3.0,87,69.03
2090,B-3,619.0,1.0,77,69.03
2091,E4,619.0,1.0,77,69.03
2092,F#3,620.0,1.0,68,69.03
2093,C#4,620.0,1.0,68,69.03
2094,E3,621.0,1.0,68,69.03
2095,B-3,621.0,1.0,68,69.03
2096,F#4,622.0,1.0,87,69.03
2097,F#5,622.0,1.0,87,69.03
2098,E1,622.0,1.0,77,69.03
2099,E2,622.0,1.0,77,69.03
2100,F#5,623.0,0.25,73,69.03
2101,F#4,623.0,0.25,73,69.03
2102,E3,623.0,1.0,68,69.03
2103,B-3,623.0,1.0,68,69.03
2104,G#4,623.25,0.25,73,69.03
2105,G#5,623.25,0.25,73,69.03
2106,F#4,623.5,0.5,76,69.03
2107,F#5,623.5,0.5,76,69.03
2108,F4,624.0,0.5,70,69.03
2109,F5,624.0,0.5,70,69.03
2110,F#3,624.0,1.0,68,69.03
2111,C#4,624.0,1.0,68,69.03
2112,F#4,624.5,0.5,73,69.03
2113,F#5,624.5,0.5,73,69.03
2114,G#4,625.0,0.5,74,69.03
2115,G#5,625.0,0.5,74,69.03
2116,E4,625.0,1.0,77,69.03
2117,B-3,625.0,1.0,77,69.03
2118,B-4,625.5,0.5,78,69.03
2119,B-5,625.5,0.5,78,69.03
2120,B4,626.0,0.5,80,69.03
2121,B5,626.0,0.5,80,69.03
2122,C#4,626.0,1.0,68,69.03
2123,F#3,626.0,1.0,68,69.03
2124,C#5,626.5,0.5,82,69.03
2125,C#6,626.5,0.5,82,69.03
2126,D6,627.0,0.5,84,69.03
2127,D5,627.0,0.5,84,69.03
2128,E3,627.0,1.0,68,69.03
2129,B-3,627.0,1.0,68,69.03
2130,E5,627.5,0.5,87,69.03
2131,E6,627.5,0.5,87,69.03
2132,F#5,628.0,0.5,104,69.03
2133,F#6,628.0,0.5,104,69.03
2134,E2,628.0,1.0,77,69.03
2135,E3,628.0,1.0,77,69.03
2136,E3,629.0,1.0,68,69.03
2137,C4,629.0,1.0,68,69.03
2138,G#3,630.0,1.0,68,69.03
2139,E-4,630.0,1.0,68,69.03
2140,G#4,631.0,2.0,87,69.03
2141,G#5,631.0,2.0,87,69.03
2142,F#4,631.0,1.0,77,69.03
2143,C4,631.0,1.0,77,69.03
2144,G#3,632.0,1.0,68,69.03
2145,E-4,632.0,1.0,68,69.03
2146,G#5,633.0,1.0,87,69.03
2147,G#4,633.0,1.0,87,69.03
2148,E3,633.0,1.0,68,69.03
2149,C4,633.0,1.0,68,69.03
2150,G#4,634.0,2.0,79,69.03
2151,E2,634.0,1.0,77,69.03
2152,E1,634.0,1.0,77,69.03
2153,G#5,634.5,0.5,74,69.03
2154,A5,635.0,0.5,79,69.03
2155,E3,635.0,1.0,68,69.03
2156,B3,635.0,1.0,68,69.03
2157,G#5,635.5,0.5,74,69.03
2158,G4,636.0,0.5,70,69.03
2159,G5,636.0,0.5,70,69.03
2160,G#3,636.0,1.0,68,69.03
2161,E-4,636.0,1.0,68,69.03
2162,G#4,636.5,0.5,73,69.03
2163,G#5,636.5,0.5,73,69.03
2164,B-4,637.0,0.5,74,69.03
2165,B-5,637.0,0.5,74,69.03
2166,C4,637.0,1.0,77,69.03
2167,F#4,637.0,1.0,77,69.03
2168,C5,637.5,0.5,78,69.03
2169,C6,637.5,0.5,78,69.03
2170,C#5,638.0,0.5,80,69.03
2171,C#6,638.0,0.5,80,69.03
2172,E-4,638.0,1.0,68,69.03
2173,G#3,638.0,1.0,68,69.03
2174,E-5,638.5,0.5,82,69.03
2175,E-6,638.5,0.5,82,69.03
2176,E5,639.0,0.5,84,69.03
2177,E6,639.0,0.5,84,69.03
2178,C4,639.0,1.0,68,69.03
2179,E3,639.0,1.0,68,69.03
2180,F#6,639.5,0.5,87,69.03
2181,F#5,639.5,0.5,87,69.03
2182,G#5,640.0,0.5,104,69.03
2183,G#6,640.0,0.5,104,69.03
2184,E2,640.0,1.0,77,69.03
2185,E3,640.0,1.0,77,69.03
2186,E3,641.0,1.0,68,69.03
2187,C#4,641.0,1.0,68,69.03
2188,G#3,642.0,1.0,68,69.03
2189,E4,642.0,1.0,68,69.03
2190,G#4,643.0,2.0,87,69.03
2191,G#5,643.0,2.0,87,69.03
2192,E-2,643.0,1.0,77,69.03
2193,E-3,643.0,1.0,77,69.03
2194,E-3,644.0,1.0,68,69.03
2195,B3,644.0,1.0,68,69.03
2196,G#4,645.0,1.0,87,69.03
2197,G#5,645.0,1.0,87,69.03
2198,E-4,645.0,1.0,68,69.03
2199,G#3,645.0,1.0,68,69.03
2200,G#5,646.0,0.25,74,69.03
2201,G#4,646.0,0.25,74,69.03
2202,C#2,646.0,1.0,77,69.03
2203,C#3,646.0,1.0,77,69.03
2204,B-4,646.25,0.25,68,69.03
2205,B-5,646.25,0.25,68,69.03
2206,G#4,646.5,0.5,68,69.03
2207,G#5,646.5,0.5,68,69.03
2208,G4,647.0,0.5,70,69.03
2209,G5,647.0,0.5,70,69.03
2210,G#3,647.0,1.0,68,69.03
2211,C#3,647.0,1.0,68,69.03
2212,G#4,647.5,0.5,73,69.03
2213,G#5,647.5,0.5,73,69.03
2214,B-5,648.0,0.5,76,69.03
2215,B-4,648.0,0.5,76,69.03
2216,C#4,648.0,1.0,69,69.03
2217,E3,648.0,1.0,69,69.03
2218,B4,648.5,0.5,79,69.03
2219,B5,648.5,0.5,79,69.03
2220,C#5,649.0,0.5,82,69.03
2221,C#6,649.0,0.5,82,69.03
2222,G#1,649.0,1.0,80,69.03
2223,G#2,649.0,1.0,80,69.03
2224,E-5,649.5,0.5,86,69.03
2225,E-6,649.5,0.5,86,69.03
2226,F6,650.0,0.5,88,69.03
2227,F5,650.0,0.5,88,69.03
2228,B2,650.0,1.0,72,69.03
2229,G#3,650.0,1.0,72,69.03
2230,G5,650.5,0.5,93,69.03
2231,G6,650.5,0.5,93,69.03
2232,G#5,651.0,0.5,93,69.03
2233,G#6,651.0,0.5,93,69.03
2234,E-3,651.0,1.0,74,69.03
2235,B3,651.0,1.0,74,69.03
2236,B-5,651.5,0.5,94,69.03
2237,B-6,651.5,0.5,94,69.03
2238,B5,652.0,0.25,103,69.03
2239,B6,652.0,0.25,103,69.03
2240,F2,652.0,0.5,80,69.03
2241,F1,652.0,0.5,80,69.03
2242,G#6,652.5,0.25,85,69.03
2243,B6,652.5,0.25,85,69.03
2244,F6,652.75,0.25,79,69.03
2245,E-6,653.0,0.25,78,69.03
2246,B5,653.25,0.25,77,69.03
2247,F3,653.312,1.188,52,69.03
2248,B3,653.375,1.125,54,69.03
2249,E-4,653.438,1.062,56,69.03
2250,G#4,653.5,1.0,59,69.03
2251,G#5,653.5,0.25,80,69.03
2252,B5,653.5,0.25,80,69.03
2253,F5,653.75,0.25,78,69.03
2254,E-5,654.0,0.25,73,69.03
2255,B4,654.25,0.25,73,69.03
2256,B4,654.5,0.25,74,69.03
2257,G#4,654.5,0.25,74,69.03
2258,F4,654.75,0.25,64,69.03
2259,E-4,655.0,0.25,64,69.03
2260,B3,655.25,0.25,63,69.03
2261,G#3,655.5,0.25,69,69.03
2262,B3,655.5,0.25,69,69.03
2263,F3,655.75,0.25,61,69.03
2264,E-3,656.0,0.25,60,69.03
2265,B2,656.25,0.25,60,69.03
2266,B3,656.5,0.25,60,69.03
2267,G#3,656.5,0.25,60,69.03
2268,F3,656.75,0.25,62,69.03
2269,E-3,657.0,0.25,52,69.03
2270,B2,657.25,0.25,52,69.03
2271,G#3,657.5,0.25,52,69.03
2272,B3,657.5,0.5,52,69.03
2273,F3,657.75,0.25,51,69.03
2274,B-3,658.0,271/1000,52,69.03
2275,B-1,658.0,0.5,44,69.03
2276,G#3,658.25,271/1000,48,69.03
2277,B3,658.5,271/1000,52,69.03
2278,D3,658.5,0.5,34,69.03
2279,F3,658.75,271/1000,47,69.03
2280,B-3,659.0,271/1000,47,69.03
2281,G#3,659.25,271/1000,47,69.03
2282,B3,659.5,271/1000,52,69.03
2283,B-1,659.5,0.5,44,69.03
2284,F3,659.75,271/1000,47,69.03
2285,B-3,660.0,271/1000,52,69.03
2286,D3,660.0,0.5,34,69.03
2287,G#3,660.25,271/1000,47,69.03
2288,B3,660.5,271/1000,47,69.03
2289,F3,660.75,0.25,47,69.03
2290,B-3,661.0,271/1000,52,69.03
2291,F3,661.0,21/1000,47,69.03
2292,B-1,661.0,0.5,46,69.03
2293,G#3,661.25,271/1000,48,69.03
2294,B3,661.5,271/1000,52,69.03
2295,D3,661.5,0.5,34,69.03
2296,F3,661.75,271/1000,47,69.03
2297,B-3,662.0,271/1000,47,69.03
2298,G#3,662.25,271/1000,47,69.03
2299,B3,662.5,271/1000,52,69.03
2300,B-1,662.5,0.5,48,69.03
2301,F3,662.75,271/1000,47,69.03
2302,B-3,663.0,271/1000,52,69.03
2303,D3,663.0,0.5,34,69.03
2304,G#3,663.25,271/1000,47,69.03
2305,B3,663.5,271/1000,47,69.03
2306,F3,663.75,0.25,47,69.03
2307,B-3,664.0,271/1000,52,69.03
2308,F3,664.0,21/1000,47,69.03
2309,D3,664.0,0.5,49,69.03
2310,G#3,664.25,271/1000,48,69.03
2311,B3,664.5,271/1000,53,69.03
2312,F4,664.5,0.5,34,69.03
2313,F3,664.75,271/1000,48,69.03
2314,B-3,665.0,271/1000,48,69.03
2315,G#3,665.25,271/1000,49,69.03
2316,B3,665.5,271/1000,55,69.03
2317,D3,665.5,0.5,52,69.03
2318,F3,665.75,271/1000,50,69.03
2319,B-3,666.0,271/1000,56,69.03
2320,F4,666.0,0.5,36,69.03
2321,G#3,666.25,271/1000,51,69.03
2322,B3,666.5,271/1000,51,69.03
2323,F3,666.75,0.25,52,69.03
2324,B-3,667.0,271/1000,58,69.03
2325,F3,667.0,21/1000,52,69.03
2326,D3,667.0,0.5,53,69.03
2327,G#3,667.25,271/1000,54,69.03
2328,B3,667.5,271/1000,59,69.03
2329,F4,667.5,0.5,38,69.03
2330,F3,667.75,271/1000,54,69.03
2331,B-3,668.0,271/1000,54,69.03
2332,G#3,668.25,271/1000,54,69.03
2333,B3,668.5,271/1000,61,69.03
2334,D3,668.5,0.5,55,69.03
2335,F3,668.75,271/1000,55,69.03
2336,B-3,669.0,271/1000,62,69.03
2337,F4,669.0,0.5,40,69.03
2338,G#3,669.25,271/1000,56,69.03
2339,B3,669.5,271/1000,57,69.03
2340,F3,669.75,0.25,57,69.03
2341,B-3,670.0,0.5,65,69.03
2342,F3,670.0,21/1000,57,69.03
2343,B-1,670.0,0.5,50,69.03
2344,B-3,670.5,271/1000,65,69.03
2345,D4,670.75,271/1000,56,69.03
2346,B3,671.0,271/1000,65,69.03
2347,D4,671.25,271/1000,58,69.03
2348,C#4,671.5,271/1000,65,69.03
2349,G#3,671.5,0.5,40,69.03
2350,F3,671.5,0.5,40,69.03
2351,B-2,671.5,0.5,40,69.03
2352,F4,671.75,271/1000,58,69.03
2353,D4,672.0,271/1000,65,69.03
2354,G#4,672.25,271/1000,58,69.03
2355,E4,672.5,271/1000,65,69.03
2356,G#4,672.75,0.25,58,69.03
2357,F4,673.0,271/1000,65,69.03
2358,G#4,673.0,21/1000,58,69.03
2359,F3,673.0,0.5,40,69.03
2360,D4,673.0,0.5,40,69.03
2361,G#3,673.0,0.5,40,69.03
2362,B4,673.25,271/1000,58,69.03
2363,G4,673.5,271/1000,65,69.03
2364,B4,673.75,271/1000,58,69.03
2365,G#4,674.0,271/1000,64,69.03
2366,D5,674.25,271/1000,57,69.03
2367,B-4,674.5,271/1000,63,69.03
2368,D4,674.5,0.5,39,69.03
2369,G#3,674.5,0.5,39,69.03
2370,F4,674.5,0.5,39,69.03
2371,D5,674.75,271/1000,56,69.03
2372,B4,675.0,271/1000,63,69.03
2373,D5,675.25,271/1000,57,69.03
2374,C#5,675.5,271/1000,62,69.03
2375,F5,675.75,0.25,56,69.03
2376,D5,676.0,271/1000,62,69.03
2377,F5,676.0,21/1000,56,69.03
2378,G#4,676.0,0.5,38,69.03
2379,B-3,676.0,0.5,38,69.03
2380,F4,676.0,0.5,38,69.03
2381,G#5,676.25,271/1000,56,69.03
2382,E5,676.5,271/1000,62,69.03
2383,G#5,676.75,271/1000,55,69.03
2384,F5,677.0,271/1000,61,69.03
2385,B5,677.25,271/1000,55,69.03
2386,G5,677.5,271/1000,61,69.03
2387,F4,677.5,0.5,37,69.03
2388,G#4,677.5,0.5,37,69.03
2389,D5,677.5,0.5,37,69.03
2390,B5,677.75,271/1000,54,69.03
2391,G#5,678.0,271/1000,60,69.03
2392,D6,678.25,271/1000,54,69.03
2393,B-5,678.5,271/1000,60,69.03
2394,D6,678.75,0.25,54,69.03
2395,B5,679.0,271/1000,59,69.03
2396,D6,679.0,21/1000,54,69.03
2397,G#4,679.0,0.5,41,69.03
2398,D5,679.0,0.5,41,69.03
2399,F5,679.0,0.5,41,69.03
2400,D6,679.25,271/1000,52,69.03
2401,C#6,679.5,271/1000,59,69.03
2402,F6,679.75,271/1000,53,69.03
2403,D6,680.0,271/1000,59,69.03
2404,G#6,680.25,271/1000,54,69.03
2405,E6,680.5,271/1000,58,69.03
2406,G#5,680.5,0.5,40,69.03
2407,F5,680.5,0.5,40,69.03
2408,B-4,680.5,0.5,40,69.03
2409,G#6,680.75,271/1000,54,69.03
2410,F6,681.0,271/1000,58,69.03
2411,B6,681.25,271/1000,53,69.03
2412,G6,681.5,271/1000,57,69.03
2413,B6,681.75,0.25,54,69.03
2414,B-6,682.0,271/1000,57,69.03
2415,B6,682.0,21/1000,54,69.03
2416,F5,682.0,3.0,39,69.03
2417,G#5,682.0,3.0,39,69.03
2418,D6,682.0,3.0,39,69.03
2419,G#6,682.25,271/1000,51,69.03
2420,B6,682.5,271/1000,57,69.03
2421,F6,682.75,271/1000,51,69.03
2422,B-6,683.0,271/1000,57,69.03
2423,G#6,683.25,271/1000,51,69.03
2424,C7,683.5,271/1000,57,69.03
2425,F6,683.75,271/1000,50,69.03
2426,B-6,684.0,271/1000,57,69.03
2427,G#6,684.25,271/1000,52,69.03
2428,C#7,684.5,271/1000,60,69.03
2429,F6,684.75,0.25,51,69.03
2430,B-6,685.0,271/1000,61,69.03
2431,F6,685.0,21/1000,51,69.03
2432,G#6,685.25,271/1000,51,69.03
2433,D7,685.5,271/1000,63,69.03
2434,F6,685.75,271/1000,51,69.03
2435,B-6,686.0,271/1000,57,69.03
2436,G#6,686.25,271/1000,52,69.03
2437,E-7,686.5,271/1000,63,69.03
2438,F5,686.5,1.5,39,69.03
2439,G#5,686.5,1.5,39,69.03
2440,D6,686.5,1.5,39,69.03
2441,F6,686.75,271/1000,52,69.03
2442,B-6,687.0,271/1000,61,69.03
2443,G#6,687.25,271/1000,52,69.03
2444,E7,687.5,271/1000,59,69.03
2445,F6,687.75,0.25,51,69.03
2446,F7,688.0,271/1000,63,69.03
2447,F6,688.0,21/1000,51,69.03
2448,C6,688.0,1.5,39,69.03
2449,E-5,688.0,1.5,39,69.03
2450,G#5,688.0,1.5,39,69.03
2451,D7,688.25,271/1000,51,69.03
2452,C#7,688.5,271/1000,52,69.03
2453,E7,688.75,271/1000,52,69.03
2454,E-7,689.0,271/1000,57,69.03
2455,C7,689.25,271/1000,53,69.03
2456,B6,689.5,271/1000,57,69.03
2457,G#5,689.5,2.0,37,69.03
2458,E-5,689.5,1.5,40,69.03
2459,C6,689.5,1.5,40,69.03
2460,D7,689.75,271/1000,52,69.03
2461,C#7,690.0,271/1000,52,69.03
2462,B-6,690.25,271/1000,52,69.03
2463,A6,690.5,271/1000,57,69.03
2464,C7,690.75,0.25,52,69.03
2465,B6,691.0,271/1000,57,69.03
2466,C7,691.0,21/1000,52,69.03
2467,D5,691.0,0.5,40,69.03
2468,B-5,691.0,0.5,40,69.03
2469,G#6,691.25,271/1000,52,69.03
2470,G6,691.5,271/1000,52,69.03
2471,B-6,691.75,271/1000,53,69.03
2472,G#6,692.0,271/1000,57,69.03
2473,F6,692.25,271/1000,55,69.03
2474,D6,692.5,271/1000,57,69.03
2475,B-5,692.75,271/1000,52,69.03
2476,A5,693.0,271/1000,52,69.03
2477,B-5,693.25,271/1000,52,69.03
2478,G#5,693.5,271/1000,57,69.03
2479,B-5,693.75,0.25,52,69.03
2480,F#5,694.0,271/1000,56,69.03
2481,B-5,694.0,21/1000,52,69.03
2482,G5,694.25,271/1000,48,69.03
2483,G6,694.5,271/1000,47,69.03
2484,D6,694.75,271/1000,47,69.03
2485,E-6,695.0,271/1000,51,69.03
2486,B5,695.25,271/1000,44,69.03
2487,C6,695.5,271/1000,49,69.03
2488,E-3,695.5,0.25,42,69.03
2489,G5,695.75,271/1000,46,69.03
2490,B-5,696.0,271/1000,50,69.03
2491,C5,696.0,0.5,48,69.03
2492,E-4,696.0,1.0,28,69.03
2493,G4,696.0,1.0,28,69.03
2494,G#5,696.25,271/1000,48,69.03
2495,G5,696.5,271/1000,47,69.03
2496,B-4,696.5,0.5,35,69.03
2497,F5,696.75,0.25,48,69.03
2498,F#5,697.0,271/1000,52,69.03
2499,B-2,697.0,0.25,41,69.03
2500,G5,697.25,271/1000,45,69.03
2501,G6,697.5,271/1000,47,69.03
2502,A3,697.5,0.5,33,69.03
2503,D4,697.5,1.0,25,69.03
2504,G#4,697.5,1.0,25,69.03
2505,D6,697.75,271/1000,45,69.03
2506,E-6,698.0,271/1000,50,69.03
2507,B-3,698.0,0.5,33,69.03
2508,B5,698.25,271/1000,45,69.03
2509,C6,698.5,271/1000,49,69.03
2510,E-3,698.5,0.25,42,69.03
2511,G5,698.75,271/1000,46,69.03
2512,B-5,699.0,271/1000,48,69.03
2513,C5,699.0,0.5,48,69.03
2514,G4,699.0,1.0,28,69.03
2515,E-4,699.0,1.0,28,69.03
2516,G#5,699.25,271/1000,48,69.03
2517,G5,699.5,271/1000,47,69.03
2518,B-4,699.5,0.5,35,69.03
2519,F5,699.75,0.25,48,69.03
2520,F#5,700.0,271/1000,52,69.03
2521,B-2,700.0,0.25,41,69.03
2522,G5,700.25,271/1000,45,69.03
2523,G6,700.5,271/1000,47,69.03
2524,A3,700.5,0.5,33,69.03
2525,D4,700.5,1.0,25,69.03
2526,G#4,700.5,1.0,25,69.03
2527,D6,700.75,271/1000,46,69.03
2528,E-6,701.0,271/1000,52,69.03
2529,B-3,701.0,0.5,33,69.03
2530,B5,701.25,271/1000,47,69.03
2531,C6,701.5,271/1000,52,69.03
2532,E-3,701.5,0.25,42,69.03
2533,G5,701.75,271/1000,49,69.03
2534,B-5,702.0,271/1000,52,69.03
2535,G#4,702.0,0.5,48,69.03
2536,B-3,702.0,1.0,28,69.03
2537,E-4,702.0,1.0,28,69.03
2538,G#5,702.25,271/1000,53,69.03
2539,G5,702.5,271/1000,52,69.03
2540,G4,702.5,0.5,36,69.03
2541,F5,702.75,0.25,54,69.03
2542,E-5,703.0,0.5,64,69.03
2543,G#2,703.0,0.25,43,69.03
2544,A5,703.25,0.25,49,69.03
2545,F5,703.5,0.25,48,69.03
2546,G4,703.5,0.5,50,69.03
2547,C4,703.5,1.0,29,69.03
2548,G#3,703.5,1.0,29,69.03
2549,D5,703.75,0.5,58,69.03
2550,A5,704.0,0.25,48,69.03
2551,F4,704.0,0.5,37,69.03
2552,F5,704.25,0.25,48,69.03
2553,C5,704.5,0.5,56,69.03
2554,B-2,704.5,0.25,45,69.03
2555,A5,704.75,0.25,48,69.03
2556,F5,705.0,0.25,48,69.03
2557,E-4,705.0,0.5,50,69.03
2558,F3,705.0,1.0,29,69.03
2559,G#3,705.0,1.0,29,69.03
2560,B-4,705.25,0.5,54,69.03
2561,A5,705.5,0.25,47,69.03
2562,D4,705.5,0.5,36,69.03
2563,F5,705.75,0.25,47,69.03
2564,F#5,706.0,271/1000,56,69.03
2565,B-2,706.0,0.25,41,69.03
2566,G5,706.25,271/1000,48,69.03
2567,G6,706.5,271/1000,47,69.03
2568,C4,706.5,0.5,46,69.03
2569,F3,706.5,1.0,27,69.03
2570,G#3,706.5,1.0,27,69.03
2571,D6,706.75,271/1000,47,69.03
2572,E-6,707.0,271/1000,51,69.03
2573,B-3,707.0,0.5,34,69.03
2574,B5,707.25,271/1000,44,69.03
2575,C6,707.5,271/1000,51,69.03
2576,E-3,707.5,0.25,42,69.03
2577,G5,707.75,271/1000,46,69.03
2578,B-5,708.0,271/1000,50,69.03
2579,C5,708.0,0.5,48,69.03
2580,E-4,708.0,1.0,28,69.03
2581,G4,708.0,1.0,28,69.03
2582,G#5,708.25,271/1000,48,69.03
2583,G5,708.5,271/1000,47,69.03
2584,B-4,708.5,0.5,35,69.03
2585,F5,708.75,0.25,48,69.03
2586,F#5,709.0,271/1000,52,69.03
2587,B-2,709.0,0.25,41,69.03
2588,G5,709.25,271/1000,45,69.03
2589,G6,709.5,271/1000,47,69.03
2590,A3,709.5,0.5,33,69.03
2591,G#4,709.5,1.0,25,69.03
2592,D4,709.5,1.0,25,69.03
2593,D6,709.75,271/1000,45,69.03
2594,E-6,710.0,271/1000,50,69.03
2595,B-3,710.0,0.5,33,69.03
2596,B5,710.25,271/1000,45,69.03
2597,C6,710.5,271/1000,49,69.03
2598,E-3,710.5,0.25,42,69.03
2599,G5,710.75,271/1000,46,69.03
2600,B-5,711.0,271/1000,48,69.03
2601,C5,711.0,0.5,48,69.03
2602,E-4,711.0,1.0,28,69.03
2603,G4,711.0,1.0,28,69.03
2604,G#5,711.25,271/1000,48,69.03
2605,G5,711.5,271/1000,47,69.03
2606,B-4,711.5,0.5,35,69.03
2607,F5,711.75,0.25,48,69.03
2608,F#5,712.0,271/1000,52,69.03
2609,B-2,712.0,0.25,41,69.03
2610,G5,712.25,271/1000,45,69.03
2611,G6,712.5,271/1000,47,69.03
2612,A3,712.5,0.5,33,69.03
2613,D4,712.5,1.0,25,69.03
2614,G#4,712.5,1.0,25,69.03
2615,D6,712.75,271/1000,46,69.03
2616,E-6,713.0,271/1000,52,69.03
2617,B-3,713.0,0.5,33,69.03
2618,B5,713.25,271/1000,47,69.03
2619,C6,713.5,271/1000,52,69.03
2620,E-3,713.5,0.25,42,69.03
2621,G5,713.75,271/1000,49,69.03
2622,B-5,714.0,271/1000,52,69.03
2623,F5,714.0,0.5,48,69.03
2624,G4,714.0,1.0,28,69.03
2625,B-4,714.0,1.0,28,69.03
2626,G#5,714.25,271/1000,53,69.03
2627,G5,714.5,271/1000,52,69.03
2628,E-5,714.5,0.5,36,69.03
2629,F5,714.75,0.25,54,69.03
2630,E5,715.0,0.25,56,69.03
2631,G#2,715.0,0.25,43,69.03
2632,E-5,715.25,0.25,56,69.03
2633,D5,715.5,0.25,55,69.03
2634,G4,715.5,0.5,50,69.03
2635,C4,715.5,1.0,29,69.03
2636,G#3,715.5,1.0,29,69.03
2637,C#5,715.75,0.25,54,69.03
2638,C5,716.0,0.25,52,69.03
2639,F4,716.0,0.5,37,69.03
2640,B4,716.25,0.25,51,69.03
2641,B-4,716.5,0.25,50,69.03
2642,B-2,716.5,0.5,48,69.03
2643,A4,716.75,0.25,49,69.03
2644,C5,717.0,0.25,50,69.03
2645,B-4,717.25,0.25,50,69.03
2646,A4,717.5,0.25,48,69.03
2647,D4,717.5,0.5,38,69.03
2648,G#3,717.5,0.5,38,69.03
2649,F3,717.5,0.5,38,69.03
2650,G#4,717.75,0.25,48,69.03
2651,G4,718.0,271/1000,49,69.03
2652,G#3,718.0,0.5,38,69.03
2653,F3,718.0,0.5,38,69.03
2654,D4,718.0,0.5,38,69.03
2655,G#4,718.25,271/1000,49,69.03
2656,A4,718.5,271/1000,50,69.03
2657,F3,718.5,0.5,38,69.03
2658,G#3,718.5,0.5,38,69.03
2659,D4,718.5,0.5,38,69.03
2660,B-4,718.75,271/1000,52,69.03
2661,C5,719.0,271/1000,52,69.03
2662,G#3,719.0,0.5,38,69.03
2663,D4,719.0,0.5,38,69.03
2664,F3,719.0,0.5,38,69.03
2665,B-4,719.25,271/1000,53,69.03
2666,G#4,719.5,271/1000,52,69.03
2667,B-3,719.5,0.5,52,69.03
2668,C#4,719.5,0.5,52,69.03
2669,E-3,719.5,0.5,52,69.03
2670,B-4,719.75,271/1000,53,69.03
2671,B4,720.0,271/1000,56,69.03
2672,C5,720.25,271/1000,58,69.03
2673,E-3,720.25,0.25,45,69.03
2674,E-2,720.25,0.25,45,69.03
2675,C#5,720.5,271/1000,59,69.03
2676,E-3,720.5,0.25,46,69.03
2677,E-2,720.5,0.25,46,69.03
2678,C5,720.75,0.25,57,69.03
2679,A4,721.0,271/1000,49,69.03
2680,G#3,721.0,0.25,46,69.03
2681,C4,721.0,0.25,46,69.03
2682,B-4,721.25,271/1000,49,69.03
2683,B4,721.5,271/1000,50,69.03
2684,G2,721.5,0.25,46,69.03
2685,G3,721.5,0.25,46,69.03
2686,C5,721.75,271/1000,52,69.03
2687,D5,722.0,271/1000,52,69.03
2688,F#2,722.0,0.25,48,69.03
2689,F#3,722.0,0.25,48,69.03
2690,C5,722.25,271/1000,53,69.03
2691,B-4,722.5,271/1000,52,69.03
2692,A3,722.5,0.5,54,69.03
2693,E-4,722.5,0.5,54,69.03
2694,C5,722.75,271/1000,53,69.03
2695,C#5,723.0,271/1000,56,69.03
2696,D5,723.25,271/1000,58,69.03
2697,F3,723.25,0.25,45,69.03
2698,F2,723.25,0.25,45,69.03
2699,E-5,723.5,271/1000,59,69.03
2700,F2,723.5,0.25,46,69.03
2701,F3,723.5,0.25,46,69.03
2702,D5,723.75,0.25,57,69.03
2703,B4,724.0,271/1000,49,69.03
2704,D5,724.0,21/1000,57,69.03
2705,D4,724.0,0.25,46,69.03
2706,B-3,724.0,0.25,46,69.03
2707,C5,724.25,271/1000,49,69.03
2708,C#5,724.5,271/1000,50,69.03
2709,A2,724.5,0.25,46,69.03
2710,A3,724.5,0.25,46,69.03
2711,D5,724.75,271/1000,52,69.03
2712,E-5,725.0,271/1000,52,69.03
2713,G#2,725.0,0.25,48,69.03
2714,G#3,725.0,0.25,48,69.03
2715,D5,725.25,271/1000,53,69.03
2716,C5,725.5,271/1000,52,69.03
2717,B3,725.5,0.5,54,69.03
2718,F4,725.5,0.5,54,69.03
2719,C#5,725.75,271/1000,53,69.03
2720,D5,726.0,271/1000,56,69.03
2721,E-5,726.25,271/1000,58,69.03
2722,G2,726.25,0.25,45,69.03
2723,G3,726.25,0.25,45,69.03
2724,E5,726.5,271/1000,59,69.03
2725,G2,726.5,0.25,46,69.03
2726,G3,726.5,0.25,46,69.03
2727,F5,726.75,0.25,57,69.03
2728,G5,727.0,271/1000,65,69.03
2729,F5,727.0,21/1000,57,69.03
2730,E-4,727.0,0.25,46,69.03
2731,C4,727.0,0.25,46,69.03
2732,F5,727.25,271/1000,64,69.03
2733,E5,727.5,271/1000,62,69.03
2734,C3,727.5,0.5,46,69.03
2735,C2,727.5,0.5,46,69.03
2736,E-5,727.75,271/1000,61,69.03
2737,D5,728.0,271/1000,58,69.03
2738,C#5,728.25,271/1000,56,69.03
2739,C5,728.5,271/1000,55,69.03
2740,G#3,728.5,0.5,50,69.03
2741,E-4,728.5,0.5,50,69.03
2742,B4,728.75,271/1000,53,69.03
2743,B-4,729.0,271/1000,54,69.03
2744,B2,729.0,0.5,62,69.03
2745,A4,729.25,271/1000,54,69.03
2746,B-4,729.5,271/1000,51,69.03
2747,G#4,729.75,0.25,50,69.03
2748,G4,730.0,0.5,53,69.03
2749,G#4,730.0,21/1000,50,69.03
2750,G#3,730.0,0.5,46,69.03
2751,D4,730.0,0.5,46,69.03
2752,B-3,730.5,0.25,53,69.03
2753,B-2,730.5,0.5,60,69.03
2754,B-4,730.75,0.25,49,69.03
2755,D4,731.0,0.25,54,69.03
2756,B4,731.25,0.25,50,69.03
2757,B-3,731.5,0.25,55,69.03
2758,E-3,731.5,0.5,34,69.03
2759,E-2,731.5,0.5,34,69.03
2760,B-4,731.75,0.25,51,69.03
2761,E-4,732.0,0.5,60,69.03
2762,G2,732.0,0.5,34,69.03
2763,G3,732.0,0.5,34,69.03
2764,G4,732.25,0.25,54,69.03
2765,E4,732.5,0.5,63,69.03
2766,G#3,732.5,0.5,35,69.03
2767,G#2,732.5,0.5,35,69.03
2768,C#5,732.75,0.25,53,69.03
2769,C4,733.0,0.25,59,69.03
2770,G3,733.0,0.5,42,69.03
2771,G2,733.0,0.5,42,69.03
2772,C5,733.25,0.25,52,69.03
2773,F4,733.5,0.5,66,69.03
2774,E-2,733.5,0.5,36,69.03
2775,E-3,733.5,0.5,36,69.03
2776,A4,733.75,0.25,52,69.03
2777,E4,734.0,0.25,61,69.03
2778,B-2,734.0,0.5,38,69.03
2779,B-3,734.0,0.5,38,69.03
2780,C#5,734.25,0.25,55,69.03
2781,C4,734.5,0.25,63,69.03
2782,A2,734.5,0.5,44,69.03
2783,A3,734.5,0.5,44,69.03
2784,C5,734.75,0.25,56,69.03
2785,F4,735.0,0.5,70,69.03
2786,F2,735.0,0.5,40,69.03
2787,F3,735.0,0.5,40,69.03
2788,A4,735.25,0.25,61,69.03
2789,F#4,735.5,0.5,68,69.03
2790,B-2,735.5,0.5,45,69.03
2791,B-3,735.5,0.5,45,69.03
2792,E-5,735.75,0.25,61,69.03
2793,D4,736.0,0.25,70,69.03
2794,A2,736.0,0.5,48,69.03
2795,A3,736.0,0.5,48,69.03
2796,D5,736.25,0.25,61,69.03
2797,G4,736.5,0.5,75,69.03
2798,F2,736.5,0.5,42,69.03
2799,F3,736.5,0.5,42,69.03
2800,B4,736.75,0.25,67,69.03
2801,F#4,737.0,0.5,76,69.03
2802,C4,737.0,0.5,44,69.03
2803,C3,737.0,0.5,44,69.03
2804,E-5,737.25,0.25,68,69.03
2805,D4,737.5,0.25,75,69.03
2806,B3,737.5,0.5,56,69.03
2807,B2,737.5,0.5,56,69.03
2808,D5,737.75,0.25,68,69.03
2809,G4,738.0,0.5,80,69.03
2810,G2,738.0,0.5,48,69.03
2811,G3,738.0,0.5,48,69.03
2812,B-4,738.25,0.25,69,69.03
2813,G#4,738.5,0.5,80,69.03
2814,C4,738.5,0.5,48,69.03
2815,C3,738.5,0.5,48,69.03
2816,F5,738.75,0.25,71,69.03
2817,E4,739.0,0.25,80,69.03
2818,B3,739.0,0.5,58,69.03
2819,B2,739.0,0.5,58,69.03
2820,E5,739.25,0.25,75,69.03
2821,A4,739.5,0.5,86,69.03
2822,G3,739.5,0.5,50,69.03
2823,G2,739.5,0.5,50,69.03
2824,C#5,739.75,0.25,73,69.03
2825,B-4,740.0,0.5,89,69.03
2826,D4,740.0,0.5,51,69.03
2827,D3,740.0,0.5,51,69.03
2828,G5,740.25,0.25,76,69.03
2829,F#4,740.5,0.25,89,69.03
2830,C#3,740.5,0.5,62,69.03
2831,C#4,740.5,0.5,62,69.03
2832,F#5,740.75,0.25,79,69.03
2833,B4,741.0,0.5,91,69.03
2834,A2,741.0,0.5,52,69.03
2835,A3,741.0,0.5,52,69.03
2836,E-5,741.25,0.25,82,69.03
2837,C5,741.5,0.5,93,69.03
2838,E3,741.5,0.5,68,69.03
2839,E4,741.5,0.5,68,69.03
2840,A5,741.75,0.25,85,69.03
2841,A5,742.0,0.5,85,69.03
2842,C#5,742.0,0.5,87,69.03
2843,C#6,742.0,0.5,87,69.03
2844,F#5,742.0,0.5,87,69.03
2845,E-3,742.0,0.5,54,69.03
2846,E-4,742.0,0.5,54,69.03
2847,C5,742.5,0.25,64,69.03
2848,B2,742.5,0.5,67,69.03
2849,B3,742.5,0.5,67,69.03
2850,C#5,742.75,0.25,64,69.03
2851,E-5,743.0,0.25,65,69.03
2852,D3,743.0,0.5,58,69.03
2853,D4,743.0,0.5,58,69.03
2854,F5,743.25,0.25,66,69.03
2855,F#5,743.5,0.25,67,69.03
2856,C#2,743.5,0.5,67,69.03
2857,C#3,743.5,0.5,67,69.03
2858,G#5,743.75,0.25,67,69.03
2859,A5,744.0,0.25,68,69.03
2860,B5,744.25,0.25,69,69.03
2861,C#4,744.25,0.25,48,69.03
2862,A3,744.25,0.25,48,69.03
2863,A4,744.25,0.25,48,69.03
2864,F#4,744.25,0.25,48,69.03
2865,C#6,744.5,0.25,70,69.03
2866,A4,744.5,0.5,50,69.03
2867,F#4,744.5,0.5,50,69.03
2868,C#4,744.5,0.5,50,69.03
2869,A3,744.5,0.5,50,69.03
2870,E-6,744.75,0.25,71,69.03
2871,F6,745.0,0.25,71,69.03
2872,F#4,745.0,0.5,52,69.03
2873,A4,745.0,0.5,52,69.03
2874,A3,745.0,0.5,52,69.03
2875,C#4,745.0,0.5,52,69.03
2876,F#6,745.25,0.25,72,69.03
2877,G#6,745.5,0.25,73,69.03
2878,A4,745.5,0.5,54,69.03
2879,C#4,745.5,0.5,54,69.03
2880,A3,745.5,0.5,54,69.03
2881,F#4,745.5,0.5,54,69.03
2882,A6,745.75,0.25,74,69.03
2883,F#6,746.0,0.25,75,69.03
2884,A3,746.0,0.5,54,69.03
2885,F#4,746.0,0.5,54,69.03
2886,A4,746.0,0.5,54,69.03
2887,C#4,746.0,0.5,54,69.03
2888,C#6,746.25,0.25,75,69.03
2889,A5,746.5,0.25,76,69.03
2890,A3,746.5,1.5,66,69.03
2891,A4,746.5,1.5,66,69.03
2892,C#4,746.5,1.5,66,69.03
2893,F#4,746.5,1.5,66,69.03
2894,F#5,746.75,0.25,76,69.03
2895,C#5,747.0,0.25,74,69.03
2896,A4,747.25,0.25,72,69.03
2897,F#4,747.5,0.25,71,69.03
2898,C#4,747.75,0.25,69,69.03
2899,A3,748.0,0.25,66,69.03
2900,F#4,748.25,0.25,67,69.03
2901,E-4,748.5,0.25,68,69.03
2902,A4,748.75,229/1000,69,69.03
2903,A4,749.0,0.25,70,69.03
2904,C#2,749.0,0.5,64,69.03
2905,C#3,749.0,0.5,64,69.03
2906,F#5,749.25,0.25,72,69.03
2907,E-5,749.5,0.25,73,69.03
2908,C3,749.5,0.5,80,69.03
2909,C2,749.5,0.5,80,69.03
2910,A5,749.75,229/1000,74,69.03
2911,A5,750.0,0.25,75,69.03
2912,F#6,750.25,0.25,76,69.03
2913,F#3,750.25,0.25,48,69.03
2914,E-4,750.25,0.25,48,69.03
2915,A3,750.25,0.25,48,69.03
2916,E-6,750.5,0.25,77,69.03
2917,E-4,750.5,0.5,50,69.03
2918,F#3,750.5,0.5,50,69.03
2919,A3,750.5,0.5,50,69.03
2920,A6,750.75,0.25,79,69.03
2921,F#6,751.0,0.25,80,69.03
2922,F#3,751.0,0.5,58,69.03
2923,A3,751.0,0.5,58,69.03
2924,E-4,751.0,0.5,58,69.03
2925,A6,751.25,0.25,78,69.03
2926,E-6,751.5,0.25,77,69.03
2927,A5,751.75,0.25,76,69.03
2928,F#5,752.0,0.25,75,69.03
2929,C2,752.0,0.5,66,69.03
2930,C3,752.0,0.5,66,69.03
2931,A5,752.25,0.25,75,69.03
2932,E-5,752.5,0.25,74,69.03
2933,B1,752.5,0.5,81,69.03
2934,B2,752.5,0.5,81,69.03
2935,A4,752.75,0.25,73,69.03
2936,F#4,753.0,0.25,72,69.03
2937,A4,753.25,0.25,72,69.03
2938,E-4,753.25,0.25,53,69.03
2939,F#3,753.25,0.25,53,69.03
2940,A3,753.25,0.25,53,69.03
2941,E-4,753.5,0.25,71,69.03
2942,E-4,753.5,0.5,52,69.03
2943,F#3,753.5,0.5,52,69.03
2944,A3,753.5,0.5,52,69.03
2945,A3,753.75,0.25,70,69.03
2946,B-4,754.0,0.5,71,69.03
2947,B-3,754.0,0.5,71,69.03
2948,G4,754.0,0.5,71,69.03
2949,E-4,754.0,0.5,71,69.03
2950,A3,754.0,0.5,51,69.03
2951,F#3,754.0,0.5,51,69.03
2952,E-4,754.0,0.5,51,69.03
2953,A3,754.5,271/1000,46,69.03
2954,B-3,754.75,271/1000,46,69.03
2955,C4,755.0,271/1000,47,69.03
2956,B2,755.0,0.5,66,69.03
2957,B1,755.0,0.5,66,69.03
2958,D4,755.25,271/1000,47,69.03
2959,E-4,755.5,271/1000,48,69.03
2960,B-2,755.5,0.5,81,69.03
2961,B-1,755.5,0.5,81,69.03
2962,E4,755.75,271/1000,49,69.03
2963,G4,756.0,271/1000,49,69.03
2964,F4,756.25,271/1000,50,69.03
2965,G4,756.5,271/1000,50,69.03
2966,F4,756.75,0.25,51,69.03
2967,C5,757.0,271/1000,52,69.03
2968,F4,757.0,21/1000,51,69.03
2969,B-4,757.25,271/1000,52,69.03
2970,A4,757.5,271/1000,53,69.03
2971,E-4,757.5,0.5,44,69.03
2972,A3,757.5,0.5,44,69.03
2973,C4,757.5,0.5,44,69.03
2974,B-4,757.75,271/1000,53,69.03
2975,C5,758.0,271/1000,54,69.03
2976,B-3,758.0,0.5,43,69.03
2977,D4,758.0,0.5,43,69.03
2978,G#3,758.0,0.5,43,69.03
2979,D5,758.25,271/1000,54,69.03
2980,E-5,758.5,271/1000,55,69.03
2981,B-3,758.5,0.5,47,69.03
2982,G3,758.5,0.5,47,69.03
2983,E-4,758.5,0.5,47,69.03
2984,E5,758.75,271/1000,56,69.03
2985,G5,759.0,271/1000,56,69.03
2986,F5,759.25,271/1000,57,69.03
2987,G5,759.5,271/1000,57,69.03
2988,F5,759.75,0.25,58,69.03
2989,C6,760.0,271/1000,59,69.03
2990,F5,760.0,21/1000,58,69.03
2991,B-5,760.25,271/1000,59,69.03
2992,A5,760.5,271/1000,60,69.03
2993,A4,760.5,0.5,46,69.03
2994,C5,760.5,0.5,46,69.03
2995,E-5,760.5,0.5,46,69.03
2996,B-5,760.75,271/1000,60,69.03
2997,C6,761.0,271/1000,61,69.03
2998,B-4,761.0,0.5,46,69.03
2999,D5,761.0,0.5,46,69.03
3000,G#4,761.0,0.5,46,69.03
3001,D6,761.25,271/1000,61,69.03
3002,E-6,761.5,271/1000,62,69.03
3003,G4,761.5,0.5,46,69.03
3004,E-5,761.5,0.5,46,69.03
3005,B-4,761.5,0.5,46,69.03
3006,E6,761.75,271/1000,63,69.03
3007,G6,762.0,271/1000,63,69.03
3008,F6,762.25,271/1000,64,69.03
3009,G6,762.5,271/1000,64,69.03
3010,F6,762.75,0.25,65,69.03
3011,B-6,763.0,0.5,66,69.03
3012,F6,763.0,21/1000,65,69.03
3013,A5,763.5,271/1000,64,69.03
3014,E-6,763.5,0.5,56,69.03
3015,A5,763.5,0.5,56,69.03
3016,C6,763.5,0.5,56,69.03
3017,B-5,763.75,271/1000,65,69.03
3018,C6,764.0,271/1000,65,69.03
3019,B-5,764.0,0.5,56,69.03
3020,G#5,764.0,0.5,56,69.03
3021,D6,764.0,0.5,56,69.03
3022,D6,764.25,271/1000,66,69.03
3023,E-6,764.5,271/1000,67,69.03
3024,B-5,764.5,0.5,57,69.03
3025,G5,764.5,0.5,57,69.03
3026,E-6,764.5,0.5,57,69.03
3027,E6,764.75,271/1000,68,69.03
3028,G6,765.0,271/1000,71,69.03
3029,F6,765.25,271/1000,68,69.03
3030,G6,765.5,271/1000,71,69.03
3031,F6,765.75,0.25,68,69.03
3032,B-6,766.0,0.25,68,69.03
3033,F6,766.0,21/1000,68,69.03
3034,A5,766.5,0.5,58,69.03
3035,C6,766.5,0.5,58,69.03
3036,E-6,766.5,0.5,58,69.03
3037,B-5,767.0,0.5,58,69.03
3038,G#5,767.0,0.5,58,69.03
3039,D6,767.0,0.5,58,69.03
3040,F6,767.375,0.125,77,69.03
3041,F7,767.5,0.25,89,69.03
3042,B-5,767.5,0.5,59,69.03
3043,E-6,767.5,0.5,59,69.03
3044,G5,767.5,0.5,59,69.03
3045,E7,767.75,0.25,84,69.03
3046,E-7,768.0,0.25,83,69.03
3047,D7,768.25,0.25,82,69.03
3048,C7,768.5,0.25,81,69.03
3049,B-6,768.75,0.25,79,69.03
3050,A6,769.0,0.25,78,69.03
3051,A4,769.0,0.5,72,69.03
3052,C4,769.0,0.5,72,69.03
3053,E-4,769.0,0.5,72,69.03
3054,F4,769.0,0.5,72,69.03
3055,G6,769.25,0.25,77,69.03
3056,F6,769.5,0.25,76,69.03
3057,E6,769.75,0.25,75,69.03
3058,E-6,770.0,0.25,74,69.03
3059,D6,770.25,0.25,73,69.03
3060,C6,770.5,0.25,72,69.03
3061,B-5,770.75,0.25,71,69.03
3062,A5,771.0,0.25,70,69.03
3063,G5,771.25,0.25,69,69.03
3064,F5,771.5,0.25,68,69.03
3065,E5,771.75,0.25,67,69.03
3066,E-5,772.0,0.25,66,69.03
3067,C#5,772.25,0.25,65,69.03
3068,B4,772.5,0.25,64,69.03
3069,B-4,772.75,0.25,63,69.03
3070,G#4,773.0,0.25,62,69.03
3071,F#4,773.25,0.25,61,69.03
3072,B2,773.312,0.188,69,69.03
3073,E-3,773.375,0.125,73,69.03
3074,G#3,773.438,0.062,77,69.03
3075,F4,773.5,0.25,60,69.03
3076,E-4,773.5,0.5,80,69.03
3077,B2,773.5,0.5,69,69.03
3078,E-3,773.5,0.5,73,69.03
3079,G#3,773.5,0.5,77,69.03
3080,E-4,773.75,0.25,59,69.03
3081,C#4,774.0,0.25,58,69.03
3082,B3,774.25,0.25,57,69.03
3083,B-3,774.5,0.25,56,69.03
3084,G#3,774.75,0.25,55,69.03
3085,F#3,775.0,0.25,57,69.03
3086,F3,775.25,0.25,59,69.03
3087,E-3,775.5,0.25,62,69.03
3088,C#3,775.75,0.25,64,69.03
3089,B2,776.0,0.25,66,69.03
3090,B-2,776.25,0.25,68,69.03
3091,G#2,776.5,0.25,70,69.03
3092,B1,776.5,0.5,91,69.03
3093,F#2,776.75,0.25,72,69.03
3094,F2,777.0,0.25,75,69.03
3095,E-2,777.25,0.25,77,69.03
3096,C#2,777.5,0.25,79,69.03
3097,B1,777.75,0.25,81,69.03
3098,B-1,779.5,0.5,80,69.03
3099,F2,780.0,0.5,55,69.03
3100,B-2,780.5,0.5,55,69.03
3101,D3,781.0,0.5,55,69.03
3102,G4,781.0,2.0,70,69.03
3103,D4,781.0,2.0,70,69.03
3104,B-3,781.0,2.0,70,69.03
3105,B-2,781.5,0.5,55,69.03
3106,F2,782.0,0.5,55,69.03
3107,B-1,782.5,0.5,66,69.03
3108,F2,783.0,0.5,55,69.03
3109,D4,783.0,1.0,65,69.03
3110,G#3,783.0,1.0,65,69.03
3111,G4,783.0,1.0,65,69.03
3112,B-2,783.5,0.5,55,69.03
3113,F3,784.0,0.5,55,69.03
3114,G3,784.0,1.0,70,69.03
3115,E-4,784.0,1.0,70,69.03
3116,B-2,784.5,0.5,55,69.03
3117,F2,785.0,0.5,55,69.03
3118,E-2,785.5,0.5,60,69.03
3119,B-2,786.0,0.5,54,69.03
3120,E-4,786.0,3.0,70,69.03
3121,G4,786.0,3.0,70,69.03
3122,E-5,786.0,3.0,70,69.03
3123,E-3,786.5,0.5,54,69.03
3124,G3,787.0,0.5,54,69.03
3125,E-3,787.5,0.5,54,69.03
3126,B-2,788.0,0.5,53,69.03
3127,E-2,788.5,0.5,60,69.03
3128,C3,789.0,0.5,53,69.03
3129,D5,789.0,1.0,65,69.03
3130,B-4,789.0,1.0,65,69.03
3131,E-4,789.0,1.0,65,69.03
3132,E-3,789.5,0.5,53,69.03
3133,B-3,790.0,0.5,53,69.03
3134,E-4,790.0,3.0,69,69.03
3135,B-4,790.0,3.0,69,69.03
3136,C5,790.0,3.0,69,69.03
3137,E-3,790.5,0.5,53,69.03
3138,C3,791.0,0.5,53,69.03
3139,F2,791.5,0.5,60,69.03
3140,C3,792.0,0.5,52,69.03
3141,E-3,792.5,0.5,52,69.03
3142,B-3,793.0,0.5,53,69.03
3143,F4,793.0,2.0,71,69.03
3144,D5,793.0,2.0,71,69.03
3145,A4,793.0,2.0,71,69.03
3146,E-3,793.5,0.5,53,69.03
3147,C3,794.0,0.5,53,69.03
3148,F2,794.5,0.5,60,69.03
3149,C3,795.0,0.5,53,69.03
3150,E-4,795.0,1.0,67,69.03
3151,A4,795.0,1.0,67,69.03
3152,D5,795.0,1.0,67,69.03
3153,E-3,795.5,0.5,53,69.03
3154,A3,796.0,0.5,54,69.03
3155,D4,796.0,1.0,65,69.03
3156,B-4,796.0,1.0,65,69.03
3157,E-3,796.5,0.5,54,69.03
3158,C3,797.0,0.5,54,69.03
3159,B-2,797.5,0.5,59,69.03
3160,F3,798.0,0.5,51,69.03
3161,B-3,798.5,0.5,51,69.03
3162,D4,799.0,0.5,51,69.03
3163,B-4,799.0,2.0,70,69.03
3164,B-5,799.0,2.0,70,69.03
3165,B-3,799.5,0.5,51,69.03
3166,F3,800.0,0.5,51,69.03
3167,B-2,800.5,0.5,54,69.03
3168,F3,801.0,0.5,51,69.03
3169,B4,801.0,1.0,71,69.03
3170,B5,801.0,1.0,71,69.03
3171,B-3,801.5,0.5,51,69.03
3172,F4,802.0,0.5,51,69.03
3173,C5,802.0,0.375,71,69.03
3174,C6,802.0,0.375,71,69.03
3175,B-3,802.5,0.5,51,69.03
3176,C#6,802.6,0.375,66,69.03
3177,B-5,802.6,0.375,66,69.03
3178,F3,803.0,0.5,51,69.03
3179,E5,803.2,0.375,67,69.03
3180,C6,803.2,0.375,67,69.03
3181,B-2,803.5,0.5,58,69.03
3182,B-5,803.8,0.375,68,69.03
3183,B5,803.8,0.375,68,69.03
3184,G3,804.0,0.5,47,69.03
3185,E5,804.4,7/20,73,69.03
3186,C6,804.4,7/20,73,69.03
3187,C4,804.5,0.5,48,69.03
3188,G#5,804.75,0.25,63,69.03
3189,C6,804.75,0.25,63,69.03
3190,E4,805.0,0.5,50,69.03
3191,G#5,805.0,0.5,80,69.03
3192,G#6,805.0,0.5,80,69.03
3193,C4,805.5,0.5,51,69.03
3194,G3,806.0,0.5,53,69.03
3195,B-2,806.5,0.5,54,69.03
3196,G#3,807.0,0.5,51,69.03
3197,C4,807.5,0.5,51,69.03
3198,C6,807.5,0.5,75,69.03
3199,E-5,807.5,0.5,75,69.03
3200,F4,808.0,0.5,51,69.03
3201,D5,808.0,0.375,71,69.03
3202,B-5,808.0,0.375,71,69.03
3203,C4,808.5,0.5,51,69.03
3204,G#5,808.6,0.375,66,69.03
3205,C6,808.6,0.375,66,69.03
3206,G#3,809.0,0.5,51,69.03
3207,B-5,809.2,0.375,67,69.03
3208,D5,809.2,0.375,67,69.03
3209,B-2,809.5,0.5,58,69.03
3210,A5,809.8,0.375,68,69.03
3211,G#5,809.8,0.375,68,69.03
3212,F3,810.0,0.5,47,69.03
3213,B-5,810.4,7/20,73,69.03
3214,D5,810.4,7/20,73,69.03
3215,G#3,810.5,0.5,48,69.03
3216,B-5,810.75,0.25,63,69.03
3217,G5,810.75,0.25,63,69.03
3218,D4,811.0,0.5,50,69.03
3219,G5,811.0,0.5,80,69.03
3220,G6,811.0,0.5,80,69.03
3221,G#3,811.5,0.5,51,69.03
3222,F3,812.0,0.5,53,69.03
3223,B-2,812.5,0.5,54,69.03
3224,E-3,813.0,0.5,51,69.03
3225,G3,813.5,0.5,51,69.03
3226,D5,813.5,0.5,75,69.03
3227,B-5,813.5,0.5,75,69.03
3228,E-4,814.0,0.5,51,69.03
3229,C5,814.0,0.375,71,69.03
3230,G#5,814.0,0.375,71,69.03
3231,G3,814.5,0.5,51,69.03
3232,E-5,814.6,0.375,66,69.03
3233,B-5,814.6,0.375,66,69.03
3234,E-3,815.0,0.5,51,69.03
3235,C5,815.2,0.375,67,69.03
3236,G#5,815.2,0.375,67,69.03
3237,B-2,815.5,0.5,58,69.03
3238,E-5,815.8,0.375,68,69.03
3239,G5,815.8,0.375,68,69.03
3240,E-3,816.0,0.5,47,69.03
3241,G#5,816.4,7/20,73,69.03
3242,C5,816.4,7/20,73,69.03
3243,G#3,816.5,0.5,48,69.03
3244,F5,816.75,0.25,63,69.03
3245,G#5,816.75,0.25,63,69.03
3246,C4,817.0,0.5,50,69.03
3247,F6,817.0,0.5,80,69.03
3248,F5,817.0,0.5,80,69.03
3249,G#3,817.5,0.5,51,69.03
3250,E-3,818.0,0.5,53,69.03
3251,B-2,818.5,0.5,54,69.03
3252,F3,819.0,0.5,51,69.03
3253,G#5,819.0,1.0,78,69.03
3254,F5,819.0,1.0,78,69.03
3255,G#3,819.5,0.5,51,69.03
3256,D4,820.0,0.5,51,69.03
3257,G5,820.0,0.75,72,69.03
3258,F5,820.0,0.75,72,69.03
3259,G#3,820.5,0.5,51,69.03
3260,B-5,820.75,0.25,71,69.03
3261,F3,821.0,0.5,51,69.03
3262,F5,821.0,1.5,75,69.03
3263,G#5,821.0,1.5,75,69.03
3264,B2,821.5,0.5,54,69.03
3265,F3,822.0,0.5,48,69.03
3266,G3,822.5,0.5,48,69.03
3267,G5,822.5,0.5,70,69.03
3268,F5,822.5,0.5,70,69.03
3269,D4,823.0,0.5,48,69.03
3270,E-5,823.0,479/500,68,69.03
3271,G5,823.0,479/500,68,69.03
3272,G3,823.5,0.5,48,69.03
3273,F3,824.0,0.5,48,69.03
3274,E-5,824.0,479/500,73,69.03
3275,G#5,824.0,479/500,73,69.03
3276,C3,824.5,0.5,54,69.03
3277,E-3,825.0,0.5,46,69.03
3278,A5,825.0,479/500,78,69.03
3279,E-5,825.0,479/500,78,69.03
3280,G3,825.5,0.5,48,69.03
3281,E-4,826.0,0.5,51,69.03
3282,G#4,826.0,3.0,74,69.03
3283,B-4,826.0,3.0,74,69.03
3284,F5,826.0,3.0,74,69.03
3285,B-5,826.0,3.0,74,69.03
3286,F#3,826.5,0.5,53,69.03
3287,E-3,827.0,0.5,49,69.03
3288,D3,827.5,0.5,80,69.03
3289,G#3,828.0,0.5,55,69.03
3290,B-3,828.5,0.5,55,69.03
3291,F4,829.0,0.5,55,69.03
3292,G#4,829.0,2.0,68,69.03
3293,B-4,829.0,2.0,68,69.03
3294,D5,829.0,2.0,68,69.03
3295,G5,829.0,2.0,68,69.03
3296,B-5,829.0,2.0,68,69.03
3297,B-3,829.5,0.5,55,69.03
3298,G#3,830.0,0.5,55,69.03
3299,B-2,830.5,0.5,66,69.03
3300,F3,831.0,0.5,55,69.03
3301,G#4,831.0,1.0,63,69.03
3302,G5,831.0,1.0,63,69.03
3303,B-5,831.0,1.0,63,69.03
3304,B-4,831.0,1.0,63,69.03
3305,D5,831.0,1.0,63,69.03
3306,B-3,831.5,0.5,55,69.03
3307,D4,832.0,0.5,55,69.03
3308,G4,832.0,1.0,70,69.03
3309,E-5,832.0,1.0,70,69.03
3310,B-3,832.5,0.5,55,69.03
3311,F3,833.0,0.5,55,69.03
3312,E-2,833.5,0.5,60,69.03
3313,B-2,834.0,0.5,54,69.03
3314,E-3,834.5,0.5,54,69.03
3315,G3,835.0,0.5,54,69.03
3316,G5,835.0,2.0,77,69.03
3317,E-6,835.0,2.0,77,69.03
3318,E-5,835.0,2.0,77,69.03
3319,B-3,835.5,0.5,54,69.03
3320,E-4,836.0,0.5,53,69.03
3321,G4,836.5,0.5,60,69.03
3322,E-4,837.0,0.5,53,69.03
3323,D6,837.0,1.0,71,69.03
3324,B-5,837.0,1.0,71,69.03
3325,E-5,837.0,1.0,71,69.03
3326,B-3,837.5,0.5,53,69.03
3327,G3,838.0,0.5,53,69.03
3328,B-5,838.0,3.0,76,69.03
3329,E-5,838.0,3.0,76,69.03
3330,C6,838.0,3.0,76,69.03
3331,E-3,838.5,0.5,53,69.03
3332,B-2,839.0,0.5,53,69.03
3333,F2,839.5,0.5,60,69.03
3334,C3,840.0,0.5,52,69.03
3335,E-3,840.5,0.5,52,69.03
3336,B-3,841.0,0.5,53,69.03
3337,D6,841.0,2.0,78,69.03
3338,A5,841.0,2.0,78,69.03
3339,F5,841.0,2.0,78,69.03
3340,E-3,841.5,0.5,53,69.03
3341,C3,842.0,0.5,53,69.03
3342,F2,842.5,0.5,60,69.03
3343,C3,843.0,0.5,53,69.03
3344,D6,843.0,1.0,73,69.03
3345,A5,843.0,1.0,73,69.03
3346,E-5,843.0,1.0,73,69.03
3347,E-3,843.5,0.5,53,69.03
3348,A3,844.0,0.5,54,69.03
3349,D5,844.0,1.0,71,69.03
3350,B-5,844.0,1.0,71,69.03
3351,E-3,844.5,0.5,54,69.03
3352,C3,845.0,0.5,54,69.03
3353,B-1,845.5,0.5,59,69.03
3354,B-2,846.0,0.5,53,69.03
3355,F3,846.5,0.5,55,69.03
3356,B-3,847.0,0.5,57,69.03
3357,B-5,847.0,2.0,86,69.03
3358,B-6,847.0,2.0,86,69.03
3359,D4,847.5,0.5,58,69.03
3360,F4,848.0,0.5,60,69.03
3361,D5,848.5,0.5,61,69.03
3362,B-4,849.0,0.5,59,69.03
3363,F4,849.5,0.5,57,69.03
3364,B-5,849.5,479/1000,81,69.03
3365,B-6,849.5,479/1000,81,69.03
3366,D4,850.0,0.5,55,69.03
3367,B-5,850.0,2.0,86,69.03
3368,B-6,850.0,2.0,86,69.03
3369,B-3,850.5,0.5,53,69.03
3370,F3,851.0,0.5,51,69.03
3371,B-2,851.5,0.5,57,69.03
3372,E3,852.0,0.5,49,69.03
3373,G3,852.5,0.5,49,69.03
3374,C4,853.0,1.0,65,69.03
3375,C5,853.0,2.0,77,69.03
3376,C4,853.0,0.5,49,69.03
3377,G3,853.5,0.5,49,69.03
3378,E3,854.0,0.5,49,69.03
3379,B-2,854.5,0.5,47,69.03
3380,E3,855.0,0.5,47,69.03
3381,D4,855.0,1.0,67,69.03
3382,D5,855.0,1.0,67,69.03
3383,G3,855.5,0.5,53,69.03
3384,E-4,856.0,0.75,57,69.03
3385,E-5,856.0,0.188,69,69.03
3386,C4,856.0,0.5,47,69.03
3387,F5,856.188,0.188,69,69.03
3388,E-5,856.375,0.375,69,69.03
3389,G3,856.5,0.5,47,69.03
3390,D4,856.75,0.75,58,69.03
3391,D5,856.75,0.75,58,69.03
3392,E3,857.0,0.5,47,69.03
3393,B-2,857.5,0.5,55,69.03
3394,E-4,857.5,0.75,58,69.03
3395,E-5,857.5,0.75,58,69.03
3396,F3,858.0,0.5,46,69.03
3397,G5,858.25,0.75,57,69.03
3398,G4,858.25,0.75,57,69.03
3399,D5,858.25,0.75,57,69.03
3400,A3,858.5,0.5,46,69.03
3401,D5,859.0,2.0,60,69.03
3402,G#4,859.0,1.0,66,69.03
3403,G5,859.0,2333/1000,72,69.03
3404,C4,859.0,0.5,46,69.03
3405,A3,859.5,0.5,47,69.03
3406,B-4,860.0,1.0,66,69.03
3407,F3,860.0,0.5,47,69.03
3408,B-2,860.5,0.5,52,69.03
3409,G#4,861.0,1.0,61,69.03
3410,F3,861.0,0.5,47,69.03
3411,F5,861.333,333/1000,61,69.03
3412,G#3,861.5,0.5,47,69.03
3413,E-5,861.667,73/250,61,69.03
3414,D4,862.0,0.5,47,69.03
3415,G4,862.0,3.0,68,69.03
3416,E-5,862.0,3.0,68,69.03
3417,G#3,862.5,0.5,47,69.03
3418,F3,863.0,0.5,47,69.03
3419,E-2,863.5,0.5,57,69.03
3420,B-2,864.0,0.5,40,69.03
3421,E-3,864.5,0.5,48,69.03
3422,G3,865.0,0.5,42,69.03
3423,E-3,865.5,0.5,54,69.03
3424,B-2,866.0,0.5,50,69.03
3425,G4,866.333,333/1000,61,69.03
3426,E-2,866.5,0.5,55,69.03
3427,G#4,866.667,333/1000,57,69.03
3428,B-4,867.0,333/1000,63,69.03
3429,B-2,867.0,0.5,45,69.03
3430,D5,867.333,333/1000,68,69.03
3431,E-3,867.5,0.5,45,69.03
3432,C5,867.667,333/1000,63,69.03
3433,B-4,868.0,3.0,70,69.03
3434,B-3,868.0,0.5,45,69.03
3435,E-3,868.5,0.5,45,69.03
3436,B-2,869.0,0.5,45,69.03
3437,E-2,869.5,0.5,50,69.03
3438,B-2,870.0,0.5,37,69.03
3439,E-3,870.5,0.5,51,69.03
3440,G3,871.0,0.5,46,69.03
3441,E-3,871.5,0.5,55,69.03
3442,B-2,872.0,0.5,49,69.03
3443,G4,872.333,333/1000,57,69.03
3444,E-2,872.5,0.5,50,69.03
3445,G#4,872.667,333/1000,60,69.03
3446,B-4,873.0,333/1000,65,69.03
3447,B-2,873.0,0.5,40,69.03
3448,D5,873.333,333/1000,68,69.03
3449,E-3,873.5,0.5,40,69.03
3450,C5,873.667,333/1000,61,69.03
3451,B-4,874.0,3.0,70,69.03
3452,B-3,874.0,0.5,40,69.03
3453,E-3,874.5,0.5,40,69.03
3454,B-2,875.0,0.5,40,69.03
3455,E-2,875.5,0.5,54,69.03
3456,B-2,876.0,0.5,37,69.03
3457,D3,876.5,0.5,47,69.03
3458,G#3,877.0,0.5,37,69.03
3459,D3,877.5,0.5,50,69.03
3460,B-2,878.0,0.5,46,69.03
3461,F4,878.333,333/1000,54,69.03
3462,E-2,878.5,0.5,47,69.03
3463,G#4,878.667,333/1000,59,69.03
3464,B-4,879.0,333/1000,64,69.03
3465,B-2,879.0,0.5,40,69.03
3466,D5,879.333,333/1000,68,69.03
3467,D3,879.5,0.5,40,69.03
3468,C5,879.667,333/1000,63,69.03
3469,B-4,880.0,1.0,70,69.03
3470,B-3,880.0,0.5,40,69.03
3471,D3,880.5,0.5,40,69.03
3472,B-2,881.0,0.5,40,69.03
3473,C#4,881.333,1.0,57,69.03
3474,E-2,881.5,0.5,54,69.03
3475,E-4,881.667,333/1000,56,69.03
3476,G4,882.0,333/1000,60,69.03
3477,B-2,882.0,0.5,42,69.03
3478,C5,882.333,333/1000,65,69.03
3479,E-3,882.5,0.5,49,69.03
3480,B-4,882.667,333/1000,59,69.03
3481,G#4,883.0,1.5,65,69.03
3482,G3,883.0,0.5,42,69.03
3483,E-3,883.5,0.5,42,69.03
3484,B-2,884.0,0.5,42,69.03
3485,B3,884.5,1.0,60,69.03
3486,E-2,884.5,0.5,46,69.03
3487,E-4,885.0,0.5,62,69.03
3488,B2,885.0,0.5,42,69.03
3489,F4,885.5,0.5,57,69.03
3490,E-3,885.5,0.5,42,69.03
3491,G4,886.0,1.0,70,69.03
3492,G#3,886.0,0.5,42,69.03
3493,E-3,886.5,0.5,42,69.03
3494,B2,887.0,0.5,42,69.03
3495,E-2,887.5,0.5,54,69.03
3496,B-2,888.0,0.5,37,69.03
3497,E-3,888.5,0.5,44,69.03
3498,G3,889.0,0.5,37,69.03
3499,E-3,889.5,0.5,44,69.03
3500,B-2,890.0,0.5,37,69.03
3501,G4,890.333,333/1000,61,69.03
3502,E-2,890.5,0.5,47,69.03
3503,G#4,890.667,333/1000,58,69.03
3504,B-4,891.0,333/1000,64,69.03
3505,B-2,891.0,0.5,37,69.03
3506,D5,891.333,333/1000,68,69.03
3507,E-3,891.5,0.5,37,69.03
3508,C5,891.667,333/1000,58,69.03
3509,B-4,892.0,0.25,72,69.03
3510,B-3,892.0,0.5,37,69.03
3511,B-5,892.5,0.25,72,69.03
3512,E-3,892.5,0.5,37,69.03
3513,B-6,893.0,0.5,87,69.03
3514,B-2,893.0,0.5,37,69.03
3515,E-2,893.5,0.5,54,69.03
3516,B-2,894.0,0.5,37,69.03
3517,E-3,894.5,0.5,44,69.03
3518,G3,895.0,0.5,37,69.03
3519,E-3,895.5,0.5,44,69.03
3520,B-2,896.0,0.5,37,69.03
3521,G4,896.333,333/1000,38,69.03
3522,E-2,896.5,0.5,41,69.03
3523,G#4,896.667,333/1000,42,69.03
3524,B-4,897.0,333/1000,46,69.03
3525,B-2,897.0,0.5,29,69.03
3526,D5,897.333,333/1000,50,69.03
3527,E-3,897.5,0.5,29,69.03
3528,C5,897.667,333/1000,45,69.03
3529,B-4,898.0,0.25,56,69.03
3530,B-3,898.0,0.5,29,69.03
3531,B-5,898.5,0.25,56,69.03
3532,E-3,898.5,0.5,29,69.03
3533,B-6,899.0,0.5,67,69.03
3534,B-2,899.0,0.5,29,69.03
3535,E-2,899.5,0.5,43,69.03
3536,B-2,900.0,0.5,29,69.03
3537,D3,900.5,0.5,35,69.03
3538,G#3,901.0,0.5,29,69.03
3539,D3,901.5,0.5,35,69.03
3540,B-2,902.0,0.5,29,69.03
3541,F4,902.333,333/1000,39,69.03
3542,E-2,902.5,0.5,37,69.03
3543,G#4,902.667,333/1000,42,69.03
3544,B-4,903.0,333/1000,45,69.03
3545,B-2,903.0,0.5,29,69.03
3546,D5,903.333,333/1000,48,69.03
3547,D3,903.5,0.5,29,69.03
3548,C5,903.667,333/1000,45,69.03
3549,B-4,904.0,1333/1000,56,69.03
3550,B-3,904.0,0.5,29,69.03
3551,D3,904.5,0.5,29,69.03
3552,B-2,905.0,0.5,29,69.03
3553,C#4,905.333,1.0,39,69.03
3554,E-2,905.5,0.5,43,69.03
3555,E-4,905.667,333/1000,43,69.03
3556,G4,906.0,333/1000,46,69.03
3557,B-2,906.0,0.5,33,69.03
3558,C5,906.333,333/1000,50,69.03
3559,E-3,906.5,0.5,33,69.03
3560,B-4,906.667,333/1000,46,69.03
3561,G#4,907.0,1.5,51,69.03
3562,G3,907.0,0.5,33,69.03
3563,E-3,907.5,0.5,33,69.03
3564,B-2,908.0,0.5,33,69.03
3565,B3,908.5,1.0,49,69.03
3566,E-2,908.5,0.5,38,69.03
3567,E-4,909.0,0.5,51,69.03
3568,B2,909.0,0.5,33,69.03
3569,F4,909.5,0.5,46,69.03
3570,E-3,909.5,0.5,33,69.03
3571,G4,910.0,3.5,62,69.03
3572,G#3,910.0,0.5,33,69.03
3573,E-3,910.5,0.5,33,69.03
3574,B2,911.0,0.5,33,69.03
3575,E-2,911.5,0.5,43,69.03
3576,B-2,912.0,0.5,29,69.03
3577,E-3,912.5,0.5,35,69.03
3578,G3,913.0,0.5,29,69.03
3579,G4,913.5,0.5,51,69.03
3580,E-3,913.5,0.5,35,69.03
3581,B-4,914.0,0.5,54,69.03
3582,B-2,914.0,0.5,29,69.03
3583,G5,914.5,0.5,55,69.03
3584,E-2,914.5,0.5,41,69.03
3585,F5,915.0,0.5,60,69.03
3586,B-2,915.0,0.5,33,69.03
3587,E-5,915.5,0.5,55,69.03
3588,E-3,915.5,0.5,33,69.03
3589,B-4,916.0,3.5,66,69.03
3590,B-3,916.0,0.5,33,69.03
3591,E-3,916.5,0.5,33,69.03
3592,B-2,917.0,0.5,33,69.03
3593,E-2,917.5,0.5,45,69.03
3594,B-2,918.0,0.5,33,69.03
3595,E-3,918.5,0.5,35,69.03
3596,G3,919.0,0.5,35,69.03
3597,G4,919.5,0.5,51,69.03
3598,E-3,919.5,0.5,35,69.03
3599,B-4,920.0,0.5,54,69.03
3600,B-2,920.0,0.5,33,69.03
3601,G5,920.5,0.5,55,69.03
3602,E-2,920.5,0.5,41,69.03
3603,F5,921.0,0.5,60,69.03
3604,B-2,921.0,0.5,33,69.03
3605,E-5,921.5,0.5,55,69.03
3606,E-3,921.5,0.5,33,69.03
3607,D5,922.0,3.5,66,69.03
3608,B-3,922.0,0.5,33,69.03
3609,E-3,922.5,0.5,26,69.03
3610,B-2,923.0,0.5,25,69.03
3611,G2,923.5,0.5,48,69.03
3612,D3,924.0,0.5,33,69.03
3613,G3,924.5,0.5,31,69.03
3614,B-3,925.0,0.5,34,69.03
3615,B-4,925.5,0.5,51,69.03
3616,D4,925.5,0.5,37,69.03
3617,D5,926.0,0.5,54,69.03
3618,B-3,926.0,0.5,40,69.03
3619,B-5,926.5,0.5,55,69.03
3620,G4,926.5,0.5,45,69.03
3621,A5,927.0,0.5,60,69.03
3622,D4,927.0,0.5,40,69.03
3623,G5,927.5,0.5,55,69.03
3624,B-3,927.5,0.5,39,69.03
3625,D5,928.0,3.5,69,69.03
3626,G3,928.0,0.5,38,69.03
3627,D3,928.5,0.5,37,69.03
3628,G2,929.0,0.5,35,69.03
3629,G1,929.5,0.5,42,69.03
3630,G2,930.0,0.5,32,69.03
3631,D3,930.5,0.5,34,69.03
3632,G3,931.0,0.5,37,69.03
3633,B-4,931.5,0.5,51,69.03
3634,B-3,931.5,0.5,39,69.03
3635,D5,932.0,0.5,54,69.03
3636,D4,932.0,0.5,41,69.03
3637,B-5,932.5,0.5,55,69.03
3638,B-4,932.5,0.5,42,69.03
3639,A5,933.0,0.5,60,69.03
3640,G4,933.0,0.5,41,69.03
3641,G5,933.5,0.5,55,69.03
3642,D4,933.5,0.5,39,69.03
3643,D5,934.0,0.5,59,69.03
3644,B-3,934.0,0.5,38,69.03
3645,B-4,934.5,0.5,55,69.03
3646,G3,934.5,0.5,36,69.03
3647,D5,935.0,0.5,54,69.03
3648,D3,935.0,0.5,35,69.03
3649,B-5,935.5,0.5,53,69.03
3650,G2,935.5,0.5,37,69.03
3651,A5,936.0,0.5,56,69.03
3652,D3,936.0,0.5,33,69.03
3653,G5,936.5,0.5,51,69.03
3654,D4,936.5,1.0,33,69.03
3655,D5,937.0,0.5,56,69.03
3656,B-4,937.5,0.5,51,69.03
3657,D5,938.0,0.5,51,69.03
3658,B-5,938.5,0.5,54,69.03
3659,A5,939.0,0.5,50,69.03
3660,G5,939.5,0.5,49,69.03
3661,D5,940.0,0.5,48,69.03
3662,A5,940.5,0.5,45,69.03
3663,C6,941.0,0.5,52,69.03
3664,B-5,941.5,0.5,47,69.03
3665,G5,942.0,0.5,50,69.03
3666,E-5,942.5,0.5,46,69.03
3667,B-4,943.0,0.5,45,69.03
3668,G4,943.5,0.5,45,69.03
3669,C4,944.0,0.5,43,69.03
3670,D4,944.5,0.5,42,69.03
3671,F4,945.0,0.5,41,69.03
3672,E-4,945.5,0.5,39,69.03
3673,D3,947.5,3.0,28,69.03
3674,D2,948.5,99/100,25,69.03
3675,C4,949.5,2.5,38,69.03
3676,D2,949.5,99/100,25,69.03
3677,D4,950.0,2.0,37,69.03
3678,F#4,950.5,0.5,37,69.03
3679,B-4,951.0,0.5,41,69.03
3680,A4,951.5,0.5,39,69.03
3681,D2,951.5,99/100,39,69.03
3682,G4,952.0,3.0,37,69.03
3683,D2,952.5,99/100,39,69.03
3684,D4,953.0,99/100,26,69.03
3685,B-3,953.0,99/100,26,69.03
3686,B-3,954.0,99/100,26,69.03
3687,D4,954.0,99/100,26,69.03
3688,D2,954.5,99/100,22,69.03
3689,D5,955.0,3.0,41,69.03
3690,D2,955.5,99/100,22,69.03
3691,G4,956.0,99/100,28,69.03
3692,D4,956.5,3.0,34,69.03
3693,G4,957.0,99/100,28,69.03
3694,D3,957.5,99/100,21,69.03
3695,G3,957.5,99/100,21,69.03
3696,C5,958.0,3.0,39,69.03
3697,G3,958.5,99/100,21,69.03
3698,D3,958.5,99/100,21,69.03
3699,G4,959.0,99/100,26,69.03
3700,E-4,959.0,99/100,26,69.03
3701,C4,959.5,3.0,34,69.03
3702,G4,960.0,99/100,26,69.03
3703,E-4,960.0,99/100,26,69.03
3704,G3,960.5,99/100,22,69.03
3705,D3,960.5,99/100,22,69.03
3706,C4,961.5,2.5,40,69.03
3707,D3,961.5,99/100,22,69.03
3708,G3,961.5,99/100,22,69.03
3709,D4,962.0,2.0,37,69.03
3710,F#4,962.5,0.5,37,69.03
3711,B-4,963.0,0.5,41,69.03
3712,A4,963.5,0.5,39,69.03
3713,D2,963.5,99/100,39,69.03
3714,G4,964.0,3.0,37,69.03
3715,D2,964.5,99/100,39,69.03
3716,D4,965.0,99/100,26,69.03
3717,B-3,965.0,99/100,26,69.03
3718,B-3,966.0,99/100,26,69.03
3719,D4,966.0,99/100,26,69.03
3720,D2,966.5,99/100,22,69.03
3721,E4,967.0,3.0,37,69.03
3722,D2,967.5,99/100,22,69.03
3723,A3,968.0,99/100,25,69.03
3724,G3,968.0,99/100,25,69.03
3725,C#4,968.0,99/100,25,69.03
3726,A3,969.0,99/100,25,69.03
3727,C#4,969.0,99/100,25,69.03
3728,G3,969.0,99/100,25,69.03
3729,D2,969.5,99/100,21,69.03
3730,F#4,970.0,3.0,37,69.03
3731,D2,970.5,99/100,21,69.03
3732,D4,971.0,99/100,20,69.03
3733,A3,971.0,99/100,20,69.03
3734,F#3,971.0,99/100,20,69.03
3735,F#3,972.0,99/100,20,69.03
3736,A3,972.0,99/100,20,69.03
3737,D4,972.0,99/100,20,69.03
3738,D2,972.5,99/100,16,69.03
3739,C4,973.5,2.5,40,69.03
3740,D2,973.5,99/100,16,69.03
3741,D4,974.0,2.0,37,69.03
3742,F#4,974.5,0.5,37,69.03
3743,B-4,975.0,0.5,41,69.03
3744,A4,975.5,0.5,39,69.03
3745,D2,975.5,99/100,39,69.03
3746,G4,976.0,3.0,37,69.03
3747,D2,976.5,99/100,39,69.03
3748,B-3,977.0,99/100,26,69.03
3749,D4,977.0,99/100,26,69.03
3750,B-3,978.0,99/100,26,69.03
3751,D4,978.0,99/100,26,69.03
3752,D2,978.5,99/100,22,69.03
3753,D5,979.0,3.0,58,69.03
3754,D2,979.5,99/100,22,69.03
3755,G4,980.0,99/100,32,69.03
3756,B-4,980.0,99/100,32,69.03
3757,D4,980.5,3.0,43,69.03
3758,G4,981.0,99/100,32,69.03
3759,B-4,981.0,99/100,32,69.03
3760,G3,981.5,99/100,23,69.03
3761,B-3,981.5,99/100,23,69.03
3762,D3,981.5,99/100,23,69.03
3763,E5,982.0,3.0,59,69.03
3764,B-3,982.5,99/100,23,69.03
3765,G3,982.5,99/100,23,69.03
3766,D3,982.5,99/100,23,69.03
3767,G4,983.0,99/100,32,69.03
3768,B-4,983.0,99/100,32,69.03
3769,E4,983.5,3.0,45,69.03
3770,G4,984.0,99/100,32,69.03
3771,B-4,984.0,99/100,32,69.03
3772,B-3,984.5,99/100,23,69.03
3773,D3,984.5,99/100,23,69.03
3774,G3,984.5,99/100,23,69.03
3775,B-3,985.5,2.5,40,69.03
3776,G3,985.5,99/100,23,69.03
3777,D3,985.5,99/100,23,69.03
3778,B-3,985.5,99/100,23,69.03
3779,C#4,986.0,2.0,37,69.03
3780,E4,986.5,0.5,37,69.03
3781,A4,987.0,0.5,41,69.03
3782,G4,987.5,0.5,39,69.03
3783,D2,987.5,99/100,39,69.03
3784,G4,988.0,3.0,37,69.03
3785,D2,988.5,99/100,39,69.03
3786,C#4,989.0,99/100,29,69.03
3787,B-3,989.0,99/100,29,69.03
3788,E4,989.0,99/100,29,69.03
3789,B-3,990.0,99/100,29,69.03
3790,E4,990.0,99/100,29,69.03
3791,C#4,990.0,99/100,29,69.03
3792,D2,990.5,99/100,26,69.03
3793,E5,991.0,3.0,62,69.03
3794,D2,991.5,99/100,26,69.03
3795,C#5,992.0,99/100,34,69.03
3796,B-4,992.0,99/100,34,69.03
3797,G4,992.0,99/100,34,69.03
3798,E4,992.5,3.0,48,69.03
3799,C#5,993.0,99/100,35,69.03
3800,B-4,993.0,99/100,35,69.03
3801,G4,993.0,99/100,35,69.03
3802,B-3,993.5,99/100,26,69.03
3803,G3,993.5,99/100,26,69.03
3804,D3,993.5,99/100,26,69.03
3805,F#5,994.0,3.0,64,69.03
3806,G3,994.5,99/100,26,69.03
3807,D3,994.5,99/100,26,69.03
3808,B-3,994.5,99/100,26,69.03
3809,G4,995.0,99/100,37,69.03
3810,B-4,995.0,99/100,37,69.03
3811,C#5,995.0,99/100,37,69.03
3812,F#4,995.5,3.0,52,69.03
3813,G4,996.0,99/100,38,69.03
3814,B-4,996.0,99/100,38,69.03
3815,C#5,996.0,99/100,38,69.03
3816,B-3,996.5,99/100,27,69.03
3817,D3,996.5,99/100,27,69.03
3818,G3,996.5,99/100,27,69.03
3819,E5,997.0,2.0,63,69.03
3820,G3,997.5,99/100,27,69.03
3821,B-3,997.5,99/100,27,69.03
3822,D3,997.5,99/100,27,69.03
3823,C#5,998.0,99/100,39,69.03
3824,B-4,998.0,99/100,39,69.03
3825,G4,998.0,99/100,39,69.03
3826,E4,998.5,2.0,51,69.03
3827,F#5,999.5,229/500,67,69.03
3828,G3,999.5,99/100,28,69.03
3829,B-3,999.5,99/100,28,69.03
3830,D3,999.5,99/100,28,69.03
3831,F#5,1000.0,3.0,67,69.03
3832,F#4,1001.0,229/500,53,69.03
3833,C#5,1001.0,99/100,40,69.03
3834,G4,1001.0,99/100,40,69.03
3835,B-4,1001.0,99/100,40,69.03
3836,F#4,1001.5,3.0,53,69.03
3837,B-4,1002.0,99/100,40,69.03
3838,G4,1002.0,99/100,40,69.03
3839,C#5,1002.0,99/100,40,69.03
3840,D3,1002.5,99/100,29,69.03
3841,G3,1002.5,99/100,29,69.03
3842,B-3,1002.5,99/100,29,69.03
3843,E5,1003.0,2.0,73,69.03
3844,G3,1003.5,99/100,30,69.03
3845,B-3,1003.5,99/100,30,69.03
3846,D3,1003.5,99/100,30,69.03
3847,G4,1004.0,1.0,43,69.03
3848,B-4,1004.0,1.0,43,69.03
3849,C#5,1004.0,1.0,43,69.03
3850,E4,1004.5,2.0,56,69.03
3851,F#5,1005.5,229/500,73,69.03
3852,D3,1005.5,1.0,30,69.03
3853,B-3,1005.5,1.0,30,69.03
3854,G3,1005.5,1.0,30,69.03
3855,F#5,1006.0,3.0,73,69.03
3856,F#4,1007.0,229/500,56,69.03
3857,C#5,1007.0,99/100,45,69.03
3858,B-4,1007.0,99/100,45,69.03
3859,G4,1007.0,99/100,45,69.03
3860,F#4,1007.5,3.0,56,69.03
3861,B-4,1008.0,99/100,46,69.03
3862,G4,1008.0,99/100,46,69.03
3863,C#5,1008.0,99/100,46,69.03
3864,B-3,1008.5,99/100,32,69.03
3865,G3,1008.5,99/100,32,69.03
3866,D3,1008.5,99/100,32,69.03
3867,E5,1009.0,2.0,75,69.03
3868,D3,1009.5,99/100,32,69.03
3869,G3,1009.5,99/100,32,69.03
3870,B-3,1009.5,99/100,32,69.03
3871,G4,1010.0,1.0,51,69.03
3872,B-4,1010.0,1.0,51,69.03
3873,C#5,1010.0,1.0,51,69.03
3874,E4,1010.5,2.0,60,69.03
3875,F#5,1011.5,0.5,77,69.03
3876,G3,1011.5,1.0,38,69.03
3877,B-3,1011.5,1.0,38,69.03
3878,D3,1011.5,1.0,38,69.03
3879,A5,1012.0,3.0,80,69.03
3880,F#4,1013.0,0.5,66,69.03
3881,C#5,1013.0,99/100,63,69.03
3882,B-4,1013.0,99/100,63,69.03
3883,E5,1013.0,99/100,63,69.03
3884,A4,1013.5,3.0,69,69.03
3885,E5,1014.0,99/100,63,69.03
3886,C#5,1014.0,99/100,63,69.03
3887,B-4,1014.0,99/100,63,69.03
3888,E4,1014.5,99/100,45,69.03
3889,B-3,1014.5,99/100,45,69.03
3890,C#4,1014.5,99/100,45,69.03
3891,G5,1015.0,2.0,85,69.03
3892,B-3,1015.5,99/100,46,69.03
3893,E4,1015.5,99/100,46,69.03
3894,C#4,1015.5,99/100,46,69.03
3895,B-4,1016.0,1.0,68,69.03
3896,E5,1016.0,1.0,68,69.03
3897,C#5,1016.0,1.0,68,69.03
3898,G4,1016.5,2.0,68,69.03
3899,A5,1017.0,1.0,93,69.03
3900,E4,1017.5,1.0,49,69.03
3901,B-3,1017.5,1.0,49,69.03
3902,C#4,1017.5,1.0,49,69.03
3903,D5,1018.0,1.0,91,69.03
3904,B-4,1018.0,1.0,91,69.03
3905,B-5,1018.0,1.0,91,69.03
3906,A4,1018.5,1.0,75,69.03
3907,D6,1019.5,229/500,88,69.03
3908,B-6,1019.5,229/500,88,69.03
3909,D1,1019.5,1.0,76,69.03
3910,D2,1019.5,1.0,76,69.03
3911,C7,1020.0,229/500,94,69.03
3912,E-6,1020.0,229/500,94,69.03
3913,D6,1020.5,229/500,88,69.03
3914,B-6,1020.5,229/500,88,69.03
3915,D3,1020.5,1.0,61,69.03
3916,B-3,1020.5,1.0,61,69.03
3917,A6,1021.0,229/500,90,69.03
3918,C6,1021.0,229/500,90,69.03
3919,B-5,1021.5,229/500,88,69.03
3920,G6,1021.5,229/500,88,69.03
3921,D4,1021.5,1.0,61,69.03
3922,G3,1021.5,1.0,61,69.03
3923,A5,1022.0,229/500,87,69.03
3924,F#6,1022.0,229/500,87,69.03
3925,B-5,1022.5,229/500,86,69.03
3926,G6,1022.5,229/500,86,69.03
3927,B-3,1022.5,1.0,61,69.03
3928,G4,1022.5,1.0,61,69.03
3929,F6,1023.0,229/500,86,69.03
3930,A5,1023.0,229/500,86,69.03
3931,G3,1023.5,1.0,61,69.03
3932,D4,1023.5,1.0,61,69.03
3933,E-6,1023.75,0.188,85,69.03
3934,G5,1023.75,0.188,85,69.03
3935,E-6,1024.0,229/500,84,69.03
3936,G5,1024.0,229/500,84,69.03
3937,D6,1024.5,229/500,82,69.03
3938,F#5,1024.5,229/500,82,69.03
3939,B-3,1024.5,1.0,73,69.03
3940,D3,1024.5,1.0,73,69.03
3941,C6,1025.0,229/500,82,69.03
3942,E-5,1025.0,229/500,82,69.03
3943,D5,1025.5,229/500,80,69.03
3944,B-5,1025.5,229/500,80,69.03
3945,D1,1025.5,1.0,61,69.03
3946,D2,1025.5,1.0,61,69.03
3947,A5,1026.0,229/500,78,69.03
3948,C5,1026.0,229/500,78,69.03
3949,G5,1026.5,229/500,76,69.03
3950,B-4,1026.5,229/500,76,69.03
3951,D3,1026.5,1.0,59,69.03
3952,C4,1026.5,1.0,59,69.03
3953,F#3,1026.5,1.0,59,69.03
3954,A4,1027.0,73/250,78,69.03
3955,F#5,1027.0,73/250,78,69.03
3956,E-5,1027.333,73/250,78,69.03
3957,C5,1027.333,73/250,78,69.03
3958,D4,1027.5,1.0,52,69.03
3959,F#3,1027.5,1.0,52,69.03
3960,C4,1027.5,1.0,52,69.03
3961,D5,1027.667,73/250,80,69.03
3962,C5,1027.667,73/250,80,69.03
3963,D5,1028.0,0.188,81,69.03
3964,B4,1028.0,0.188,81,69.03
3965,D5,1028.2,0.188,81,69.03
3966,B-4,1028.2,0.188,81,69.03
3967,D5,1028.4,0.188,81,69.03
3968,A4,1028.4,0.188,81,69.03
3969,C4,1028.5,1.0,60,69.03
3970,F#4,1028.5,1.0,60,69.03
3971,D5,1028.6,0.188,82,69.03
3972,G#4,1028.6,0.188,82,69.03
3973,A4,1028.8,0.188,82,69.03
3974,D5,1028.8,0.188,82,69.03
3975,B-4,1029.0,26/125,82,69.03
3976,D5,1029.0,26/125,82,69.03
3977,A4,1029.25,26/125,82,69.03
3978,D5,1029.25,26/125,82,69.03
3979,C5,1029.5,26/125,84,69.03
3980,D5,1029.5,26/125,84,69.03
3981,C4,1029.5,1.0,62,69.03
3982,F#3,1029.5,1.0,62,69.03
3983,D4,1029.5,1.0,62,69.03
3984,D5,1029.75,26/125,84,69.03
3985,B-4,1029.75,26/125,84,69.03
3986,G4,1030.0,26/125,88,69.03
3987,D5,1030.0,26/125,88,69.03
3988,D6,1030.5,26/125,78,69.03
3989,G6,1030.5,26/125,78,69.03
3990,B-6,1030.5,26/125,78,69.03
3991,D3,1030.5,1.0,65,69.03
3992,F#3,1030.5,1.0,65,69.03
3993,C4,1030.5,1.0,65,69.03
3994,A5,1030.75,26/125,76,69.03
3995,D6,1031.25,26/125,71,69.03
3996,G6,1031.25,26/125,71,69.03
3997,B-5,1031.25,26/125,71,69.03
3998,G6,1031.5,26/125,78,69.03
3999,D6,1031.5,26/125,78,69.03
4000,B-5,1031.5,26/125,78,69.03
4001,G2,1031.5,0.5,73,69.03
4002,G1,1031.5,0.5,73,69.03
4003,F#5,1031.75,26/125,75,69.03
4004,G5,1032.25,26/125,71,69.03
4005,B-5,1032.25,26/125,71,69.03
4006,D6,1032.25,26/125,71,69.03
4007,B-5,1032.5,26/125,78,69.03
4008,G5,1032.5,26/125,78,69.03
4009,D6,1032.5,26/125,78,69.03
4010,D4,1032.5,0.5,59,69.03
4011,G4,1032.5,0.5,59,69.03
4012,B-3,1032.5,0.5,59,69.03
4013,C#5,1032.75,26/125,78,69.03
4014,B-2,1033.0,0.25,53,69.03
4015,B-5,1033.25,26/125,70,69.03
4016,G5,1033.25,26/125,70,69.03
4017,D5,1033.25,26/125,70,69.03
4018,D5,1033.5,26/125,78,69.03
4019,G5,1033.5,26/125,78,69.03
4020,B-5,1033.5,26/125,78,69.03
4021,G4,1033.5,0.5,57,69.03
4022,B-3,1033.5,0.5,57,69.03
4023,D4,1033.5,0.5,57,69.03
4024,B-4,1033.75,26/125,75,69.03
4025,D3,1034.0,0.25,57,69.03
4026,C6,1034.25,26/125,70,69.03
4027,G5,1034.25,26/125,70,69.03
4028,E-5,1034.25,26/125,70,69.03
4029,C6,1034.5,26/125,78,69.03
4030,G5,1034.5,26/125,78,69.03
4031,E-5,1034.5,26/125,78,69.03
4032,G4,1034.5,0.5,57,69.03
4033,D4,1034.5,0.5,57,69.03
4034,B-3,1034.5,0.5,57,69.03
4035,D5,1034.75,26/125,75,69.03
4036,C#5,1035.0,26/125,75,69.03
4037,G3,1035.0,0.25,54,69.03
4038,C5,1035.25,26/125,75,69.03
4039,G5,1035.5,26/125,78,69.03
4040,C6,1035.5,26/125,78,69.03
4041,E-5,1035.5,26/125,78,69.03
4042,E-4,1035.5,0.5,56,69.03
4043,C4,1035.5,0.5,56,69.03
4044,A3,1035.5,0.5,56,69.03
4045,G4,1035.5,0.5,56,69.03
4046,D5,1035.75,26/125,74,69.03
4047,C#5,1036.0,26/125,76,69.03
4048,A2,1036.0,0.25,55,69.03
4049,C5,1036.25,26/125,76,69.03
4050,E-5,1036.5,26/125,78,69.03
4051,F#5,1036.5,26/125,78,69.03
4052,C6,1036.5,26/125,78,69.03
4053,C4,1036.5,0.5,57,69.03
4054,G4,1036.5,0.5,57,69.03
4055,E-4,1036.5,0.5,57,69.03
4056,D5,1036.75,26/125,76,69.03
4057,C#5,1037.0,26/125,76,69.03
4058,A3,1037.0,0.25,55,69.03
4059,C5,1037.25,26/125,76,69.03
4060,D5,1037.5,26/125,78,69.03
4061,F#5,1037.5,26/125,78,69.03
4062,A5,1037.5,26/125,78,69.03
4063,F#4,1037.5,0.5,57,69.03
4064,D4,1037.5,0.5,57,69.03
4065,C4,1037.5,0.5,57,69.03
4066,C5,1037.75,26/125,76,69.03
4067,D3,1038.0,0.25,56,69.03
4068,G5,1038.0,0.5,76,69.03
4069,B-5,1038.0,0.5,76,69.03
4070,B-4,1038.0,0.5,76,69.03
4071,D5,1038.0,0.5,76,69.03
4072,D6,1038.5,26/125,78,69.03
4073,B-6,1038.5,26/125,78,69.03
4074,G6,1038.5,26/125,78,69.03
4075,C4,1038.5,0.5,56,69.03
4076,F#4,1038.5,0.5,56,69.03
4077,D4,1038.5,0.5,56,69.03
4078,A5,1038.75,26/125,76,69.03
4079,A3,1039.0,0.25,56,69.03
4080,B-5,1039.25,26/125,71,69.03
4081,G6,1039.25,26/125,71,69.03
4082,D6,1039.25,26/125,71,69.03
4083,G6,1039.5,26/125,78,69.03
4084,B-5,1039.5,26/125,78,69.03
4085,D6,1039.5,26/125,78,69.03
4086,G3,1039.5,0.5,59,69.03
4087,D4,1039.5,0.5,59,69.03
4088,G4,1039.5,0.5,59,69.03
4089,F#5,1039.75,26/125,75,69.03
4090,G2,1040.0,0.25,53,69.03
4091,G5,1040.25,26/125,71,69.03
4092,B-5,1040.25,26/125,71,69.03
4093,D6,1040.25,26/125,71,69.03
4094,G5,1040.5,26/125,78,69.03
4095,B-5,1040.5,26/125,78,69.03
4096,D6,1040.5,26/125,78,69.03
4097,D4,1040.5,0.5,59,69.03
4098,G4,1040.5,0.5,59,69.03
4099,B-3,1040.5,0.5,59,69.03
4100,C#5,1040.75,26/125,78,69.03
4101,B-2,1041.0,0.25,53,69.03
4102,B-5,1041.25,26/125,70,69.03
4103,G5,1041.25,26/125,70,69.03
4104,D5,1041.25,26/125,70,69.03
4105,D5,1041.5,26/125,78,69.03
4106,G5,1041.5,26/125,78,69.03
4107,B-5,1041.5,26/125,78,69.03
4108,B-3,1041.5,0.5,57,69.03
4109,G4,1041.5,0.5,57,69.03
4110,D4,1041.5,0.5,57,69.03
4111,B-4,1041.75,26/125,75,69.03
4112,D3,1042.0,0.25,57,69.03
4113,G5,1042.25,26/125,70,69.03
4114,E-5,1042.25,26/125,70,69.03
4115,C6,1042.25,26/125,70,69.03
4116,C6,1042.5,26/125,78,69.03
4117,G5,1042.5,26/125,78,69.03
4118,E-5,1042.5,26/125,78,69.03
4119,G4,1042.5,0.5,57,69.03
4120,D4,1042.5,0.5,57,69.03
4121,B-3,1042.5,0.5,57,69.03
4122,D5,1042.75,26/125,75,69.03
4123,C#5,1043.0,26/125,75,69.03
4124,G3,1043.0,0.25,54,69.03
4125,C5,1043.25,26/125,75,69.03
4126,E-5,1043.5,26/125,78,69.03
4127,G5,1043.5,26/125,78,69.03
4128,C6,1043.5,26/125,78,69.03
4129,E-4,1043.5,0.5,56,69.03
4130,C4,1043.5,0.5,56,69.03
4131,A3,1043.5,0.5,56,69.03
4132,G4,1043.5,0.5,56,69.03
4133,D5,1043.75,26/125,74,69.03
4134,C#5,1044.0,26/125,76,69.03
4135,A2,1044.0,0.25,55,69.03
4136,C5,1044.25,26/125,76,69.03
4137,C6,1044.5,26/125,78,69.03
4138,F#5,1044.5,26/125,78,69.03
4139,E-5,1044.5,26/125,78,69.03
4140,G4,1044.5,0.5,57,69.03
4141,E-4,1044.5,0.5,57,69.03
4142,C4,1044.5,0.5,57,69.03
4143,D5,1044.75,26/125,76,69.03
4144,C#5,1045.0,26/125,76,69.03
4145,A3,1045.0,0.25,55,69.03
4146,C5,1045.25,26/125,76,69.03
4147,A5,1045.5,26/125,78,69.03
4148,F#5,1045.5,26/125,78,69.03
4149,D5,1045.5,26/125,78,69.03
4150,D4,1045.5,0.5,57,69.03
4151,F#4,1045.5,0.5,57,69.03
4152,C4,1045.5,0.5,57,69.03
4153,C5,1045.75,26/125,76,69.03
4154,D3,1046.0,0.25,56,69.03
4155,D5,1046.0,0.5,76,69.03
4156,B-4,1046.0,0.5,76,69.03
4157,G5,1046.0,0.5,76,69.03
4158,B-5,1046.0,0.5,76,69.03
4159,G#5,1046.5,0.25,70,69.03
4160,D4,1046.5,0.5,56,69.03
4161,C4,1046.5,0.5,56,69.03
4162,F#4,1046.5,0.5,56,69.03
4163,G#6,1046.75,0.25,66,69.03
4164,E-6,1046.75,0.25,66,69.03
4165,G#5,1047.0,0.25,72,69.03
4166,A3,1047.0,0.25,56,69.03
4167,E-5,1047.25,0.25,69,69.03
4168,G#5,1047.25,0.25,69,69.03
4169,G4,1047.5,0.5,77,69.03
4170,D4,1047.5,0.5,56,69.03
4171,G3,1047.5,0.5,56,69.03
4172,G4,1047.5,0.5,56,69.03
4173,G5,1047.75,0.25,71,69.03
4174,E-5,1047.75,0.25,71,69.03
4175,F#4,1048.0,0.5,87,69.03
4176,C3,1048.0,1.5,65,69.03
4177,A4,1048.25,0.25,71,69.03
4178,F#5,1048.25,0.25,71,69.03
4179,F#5,1048.5,0.25,77,69.03
4180,F#6,1048.75,0.25,71,69.03
4181,A5,1048.75,0.25,71,69.03
4182,G5,1049.0,0.5,87,69.03
4183,G#3,1049.0,0.5,52,69.03
4184,E-4,1049.0,0.5,52,69.03
4185,G6,1049.25,0.25,70,69.03
4186,B-5,1049.25,0.25,70,69.03
4187,G5,1049.5,0.25,75,69.03
4188,D3,1049.5,0.25,63,69.03
4189,B-4,1049.75,0.25,70,69.03
4190,G5,1049.75,0.25,70,69.03
4191,G#4,1050.0,0.5,77,69.03
4192,A3,1050.0,0.5,51,69.03
4193,D4,1050.0,0.5,51,69.03
4194,C4,1050.0,0.5,51,69.03
4195,G#5,1050.25,0.25,66,69.03
4196,E-5,1050.25,0.25,66,69.03
4197,G#5,1050.5,0.5,74,69.03
4198,G2,1050.5,0.25,63,69.03
4199,E-6,1050.75,0.25,70,69.03
4200,G#6,1050.75,0.25,70,69.03
4201,G#5,1051.0,0.25,76,69.03
4202,B-3,1051.0,0.5,50,69.03
4203,G3,1051.0,0.5,50,69.03
4204,D4,1051.0,0.5,50,69.03
4205,G#5,1051.25,0.25,72,69.03
4206,E-5,1051.25,0.25,72,69.03
4207,G4,1051.5,0.5,77,69.03
4208,C3,1051.5,2.0,65,69.03
4209,G5,1051.75,0.25,71,69.03
4210,E-5,1051.75,0.25,71,69.03
4211,F#4,1052.0,0.5,87,69.03
4212,E-4,1052.0,1.0,48,69.03
4213,G#3,1052.0,1.0,48,69.03
4214,F#5,1052.25,0.25,71,69.03
4215,A4,1052.25,0.25,71,69.03
4216,F#5,1052.5,0.25,77,69.03
4217,A5,1052.75,0.25,71,69.03
4218,F#6,1052.75,0.25,71,69.03
4219,G5,1053.0,0.5,87,69.03
4220,G#3,1053.0,0.5,52,69.03
4221,E-4,1053.0,0.5,52,69.03
4222,G6,1053.25,0.25,70,69.03
4223,B-5,1053.25,0.25,70,69.03
4224,G5,1053.5,0.25,75,69.03
4225,D3,1053.5,0.25,63,69.03
4226,B-4,1053.75,0.25,70,69.03
4227,G5,1053.75,0.25,70,69.03
4228,F4,1054.0,0.5,77,69.03
4229,D4,1054.0,0.5,51,69.03
4230,C4,1054.0,0.5,51,69.03
4231,A3,1054.0,0.5,51,69.03
4232,F5,1054.25,0.25,65,69.03
4233,G#4,1054.25,0.25,65,69.03
4234,F5,1054.5,0.25,70,69.03
4235,G2,1054.5,0.25,63,69.03
4236,G#5,1054.75,0.25,65,69.03
4237,F6,1054.75,0.25,65,69.03
4238,F5,1055.0,0.25,68,69.03
4239,B-3,1055.0,0.5,50,69.03
4240,G3,1055.0,0.5,50,69.03
4241,D4,1055.0,0.5,50,69.03
4242,G#4,1055.25,0.25,72,69.03
4243,E-5,1055.25,0.25,72,69.03
4244,E-4,1055.5,0.5,69,69.03
4245,B2,1055.5,0.25,65,69.03
4246,G#4,1055.75,0.25,63,69.03
4247,E-5,1055.75,0.25,63,69.03
4248,D4,1056.0,0.5,77,69.03
4249,G#3,1056.0,0.5,46,69.03
4250,F3,1056.0,0.5,46,69.03
4251,D4,1056.0,0.5,46,69.03
4252,G#4,1056.25,0.25,63,69.03
4253,D5,1056.25,0.25,63,69.03
4254,D5,1056.5,0.25,69,69.03
4255,C3,1056.5,1.0,60,69.03
4256,D6,1056.75,0.25,63,69.03
4257,G#5,1056.75,0.25,63,69.03
4258,D5,1057.0,0.25,77,69.03
4259,G#3,1057.0,0.5,45,69.03
4260,E-3,1057.0,0.5,45,69.03
4261,C4,1057.0,0.5,45,69.03
4262,C5,1057.25,0.25,62,69.03
4263,G#4,1057.25,0.25,62,69.03
4264,C4,1057.5,0.25,67,69.03
4265,D3,1057.5,1.0,56,69.03
4266,G#4,1057.75,0.25,62,69.03
4267,C5,1057.75,0.25,62,69.03
4268,C4,1058.0,0.5,77,69.03
4269,G#3,1058.0,0.5,46,69.03
4270,F3,1058.0,0.5,46,69.03
4271,B3,1058.0,0.5,46,69.03
4272,C5,1058.25,0.25,63,69.03
4273,E-4,1058.25,0.25,63,69.03
4274,C5,1058.5,0.5,69,69.03
4275,E-3,1058.5,1.0,56,69.03
4276,C6,1058.75,0.25,63,69.03
4277,E-5,1058.75,0.25,63,69.03
4278,C5,1059.0,0.5,77,69.03
4279,G#3,1059.0,0.5,49,69.03
4280,E-5,1059.25,0.25,62,69.03
4281,C6,1059.25,0.25,62,69.03
4282,B-4,1059.5,0.5,67,69.03
4283,F#2,1059.5,0.25,56,69.03
4284,D5,1059.75,0.25,62,69.03
4285,B-5,1059.75,0.25,62,69.03
4286,B-4,1060.0,0.5,77,69.03
4287,C4,1060.0,0.5,46,69.03
4288,F#3,1060.0,0.5,46,69.03
4289,E-4,1060.0,0.5,46,69.03
4290,B-5,1060.25,0.25,63,69.03
4291,D5,1060.25,0.25,63,69.03
4292,A4,1060.5,0.5,69,69.03
4293,G3,1060.5,0.5,46,69.03
4294,D4,1060.5,0.5,46,69.03
4295,B-3,1060.5,0.5,46,69.03
4296,C5,1060.75,0.25,63,69.03
4297,A5,1060.75,0.25,63,69.03
4298,G4,1061.0,0.5,77,69.03
4299,G2,1061.0,0.25,56,69.03
4300,G5,1061.25,0.25,62,69.03
4301,B-4,1061.25,0.25,62,69.03
4302,F#4,1061.5,0.5,67,69.03
4303,C3,1061.5,0.25,56,69.03
4304,A4,1061.75,0.25,62,69.03
4305,F#5,1061.75,0.25,62,69.03
4306,G5,1062.0,0.25,78,69.03
4307,G4,1062.0,0.25,78,69.03
4308,B-4,1062.0,0.25,78,69.03
4309,G4,1062.0,0.5,46,69.03
4310,A3,1062.0,0.5,46,69.03
4311,E-4,1062.0,0.5,46,69.03
4312,G#5,1062.5,0.5,70,69.03
4313,D3,1062.5,1.0,56,69.03
4314,G#6,1062.75,0.25,66,69.03
4315,E-6,1062.75,0.25,66,69.03
4316,G#5,1063.0,0.25,72,69.03
4317,A3,1063.0,0.5,46,69.03
4318,C4,1063.0,0.5,46,69.03
4319,D4,1063.0,0.5,46,69.03
4320,E-5,1063.25,0.25,69,69.03
4321,G#5,1063.25,0.25,69,69.03
4322,G4,1063.5,0.5,77,69.03
4323,G3,1063.5,0.25,56,69.03
4324,D4,1063.5,0.25,56,69.03
4325,B-3,1063.5,0.25,56,69.03
4326,E-5,1063.75,0.25,71,69.03
4327,G5,1063.75,0.25,71,69.03
4328,F#4,1064.0,0.5,87,69.03
4329,C3,1064.0,1.5,65,69.03
4330,F#5,1064.25,0.25,71,69.03
4331,A4,1064.25,0.25,71,69.03
4332,F#5,1064.5,0.25,77,69.03
4333,F#6,1064.75,0.25,71,69.03
4334,A5,1064.75,0.25,71,69.03
4335,G5,1065.0,0.5,87,69.03
4336,G#3,1065.0,0.5,52,69.03
4337,E-4,1065.0,0.5,52,69.03
4338,B-5,1065.25,0.25,70,69.03
4339,G6,1065.25,0.25,70,69.03
4340,G5,1065.5,0.25,75,69.03
4341,D3,1065.5,0.25,63,69.03
4342,B-4,1065.75,0.25,70,69.03
4343,G5,1065.75,0.25,70,69.03
4344,G#4,1066.0,0.5,77,69.03
4345,D4,1066.0,0.5,51,69.03
4346,A3,1066.0,0.5,51,69.03
4347,C4,1066.0,0.5,51,69.03
4348,E-5,1066.25,0.25,66,69.03
4349,G#5,1066.25,0.25,66,69.03
4350,G#5,1066.5,0.5,74,69.03
4351,G2,1066.5,0.25,63,69.03
4352,G#6,1066.75,0.25,70,69.03
4353,E-6,1066.75,0.25,70,69.03
4354,G#5,1067.0,0.25,76,69.03
4355,B-3,1067.0,0.5,50,69.03
4356,G3,1067.0,0.5,50,69.03
4357,D4,1067.0,0.5,50,69.03
4358,E-5,1067.25,0.25,72,69.03
4359,G#5,1067.25,0.25,72,69.03
4360,G4,1067.5,0.5,77,69.03
4361,C3,1067.5,2.0,65,69.03
4362,G5,1067.75,0.25,71,69.03
4363,C5,1067.75,0.25,71,69.03
4364,F#4,1068.0,0.5,87,69.03
4365,G#3,1068.0,1.5,48,69.03
4366,E-4,1068.0,1.5,48,69.03
4367,A4,1068.25,0.25,71,69.03
4368,F#5,1068.25,0.25,71,69.03
4369,F#5,1068.5,0.25,77,69.03
4370,D3,1068.5,0.5,72,69.03
4371,A5,1068.75,0.25,71,69.03
4372,F#6,1068.75,0.25,71,69.03
4373,G5,1069.0,0.5,87,69.03
4374,E-3,1069.0,0.5,72,69.03
4375,G6,1069.25,0.25,70,69.03
4376,B-5,1069.25,0.25,70,69.03
4377,G5,1069.5,0.25,75,69.03
4378,D3,1069.5,0.25,63,69.03
4379,B-4,1069.75,0.25,70,69.03
4380,G5,1069.75,0.25,70,69.03
4381,F4,1070.0,0.5,77,69.03
4382,D4,1070.0,0.5,51,69.03
4383,A3,1070.0,0.5,51,69.03
4384,C4,1070.0,0.5,51,69.03
4385,G#4,1070.25,0.25,65,69.03
4386,F5,1070.25,0.25,65,69.03
4387,F5,1070.5,0.25,70,69.03
4388,G2,1070.5,0.25,63,69.03
4389,G#5,1070.75,0.25,65,69.03
4390,F6,1070.75,0.25,65,69.03
4391,F5,1071.0,0.25,68,69.03
4392,D4,1071.0,0.5,50,69.03
4393,G3,1071.0,0.5,50,69.03
4394,B-3,1071.0,0.5,50,69.03
4395,G4,1071.25,0.25,72,69.03
4396,E-5,1071.25,0.25,72,69.03
4397,E-4,1071.5,0.5,69,69.03
4398,B2,1071.5,0.25,60,69.03
4399,B1,1071.5,0.25,60,69.03
4400,G4,1071.75,0.25,63,69.03
4401,E-5,1071.75,0.25,63,69.03
4402,D4,1072.0,0.5,77,69.03
4403,F3,1072.0,0.5,46,69.03
4404,D4,1072.0,0.5,46,69.03
4405,G#3,1072.0,0.5,46,69.03
4406,F#4,1072.25,0.25,65,69.03
4407,D5,1072.25,0.25,65,69.03
4408,D5,1072.5,0.25,70,69.03
4409,C3,1072.5,0.25,56,69.03
4410,C2,1072.5,0.25,56,69.03
4411,F#5,1072.75,0.25,65,69.03
4412,D6,1072.75,0.25,65,69.03
4413,D5,1073.0,0.25,68,69.03
4414,C4,1073.0,0.5,45,69.03
4415,E-3,1073.0,0.5,45,69.03
4416,G3,1073.0,0.5,45,69.03
4417,C#5,1073.25,0.25,72,69.03
4418,E4,1073.25,0.25,72,69.03
4419,C#4,1073.5,0.5,69,69.03
4420,D2,1073.5,0.25,60,69.03
4421,D3,1073.5,0.25,60,69.03
4422,C#5,1073.75,0.25,63,69.03
4423,E4,1073.75,0.25,63,69.03
4424,C4,1074.0,0.5,77,69.03
4425,F#3,1074.0,0.5,47,69.03
4426,A3,1074.0,0.5,47,69.03
4427,E-4,1074.25,0.25,65,69.03
4428,C5,1074.25,0.25,65,69.03
4429,C5,1074.5,0.5,70,69.03
4430,E2,1074.5,0.25,56,69.03
4431,E3,1074.5,0.25,56,69.03
4432,E-5,1074.75,0.25,65,69.03
4433,C6,1074.75,0.25,65,69.03
4434,B4,1075.0,0.5,68,69.03
4435,B-3,1075.0,0.5,46,69.03
4436,G3,1075.0,0.5,46,69.03
4437,B5,1075.25,0.25,68,69.03
4438,E-5,1075.25,0.25,68,69.03
4439,C5,1075.5,0.5,70,69.03
4440,F#3,1075.5,0.25,60,69.03
4441,F#2,1075.5,0.25,60,69.03
4442,C6,1075.75,0.25,64,69.03
4443,E-5,1075.75,0.25,64,69.03
4444,C5,1076.0,0.5,79,69.03
4445,C4,1076.0,0.5,46,69.03
4446,E-4,1076.0,0.5,46,69.03
4447,F#3,1076.0,0.5,46,69.03
4448,C6,1076.25,0.25,67,69.03
4449,E-5,1076.25,0.25,67,69.03
4450,E-5,1076.5,0.5,72,69.03
4451,G3,1076.5,0.5,46,69.03
4452,C4,1076.5,0.5,46,69.03
4453,E-4,1076.5,0.5,46,69.03
4454,F#5,1076.75,0.25,68,69.03
4455,E-6,1076.75,0.25,68,69.03
4456,D5,1077.0,0.5,71,69.03
4457,G2,1077.0,0.25,53,69.03
4458,G3,1077.0,0.25,53,69.03
4459,F#5,1077.25,0.25,75,69.03
4460,D6,1077.25,0.25,75,69.03
4461,E-5,1077.5,0.5,72,69.03
4462,G#2,1077.5,0.25,60,69.03
4463,G#3,1077.5,0.25,60,69.03
4464,F#5,1077.75,0.25,66,69.03
4465,E-6,1077.75,0.25,66,69.03
4466,E-5,1078.0,0.5,82,69.03
4467,E-4,1078.0,0.5,47,69.03
4468,G4,1078.0,0.5,47,69.03
4469,G#3,1078.0,0.5,47,69.03
4470,F#5,1078.25,0.25,69,69.03
4471,E-6,1078.25,0.25,69,69.03
4472,F#5,1078.5,0.5,75,69.03
4473,A3,1078.5,0.5,48,69.03
4474,G4,1078.5,0.5,48,69.03
4475,E-4,1078.5,0.5,48,69.03
4476,B-5,1078.75,0.25,70,69.03
4477,F#6,1078.75,0.25,70,69.03
4478,F5,1079.0,0.5,73,69.03
4479,A2,1079.0,0.25,55,69.03
4480,A3,1079.0,0.25,55,69.03
4481,F6,1079.25,0.25,78,69.03
4482,G#5,1079.25,0.25,78,69.03
4483,F#5,1079.5,0.5,75,69.03
4484,B-3,1079.5,0.25,63,69.03
4485,B-2,1079.5,0.25,63,69.03
4486,F#6,1079.75,0.25,69,69.03
4487,A5,1079.75,0.25,69,69.03
4488,F#5,1080.0,0.5,86,69.03
4489,E-4,1080.0,0.5,49,69.03
4490,B-3,1080.0,0.5,49,69.03
4491,F#4,1080.0,0.5,49,69.03
4492,A5,1080.25,0.25,72,69.03
4493,F#6,1080.25,0.25,72,69.03
4494,A5,1080.5,0.5,78,69.03
4495,A4,1080.5,0.5,49,69.03
4496,B3,1080.5,0.5,49,69.03
4497,E-4,1080.5,0.5,49,69.03
4498,A6,1080.75,0.25,72,69.03
4499,C6,1080.75,0.25,72,69.03
4500,B-5,1081.0,0.5,76,69.03
4501,B2,1081.0,0.25,58,69.03
4502,B3,1081.0,0.25,58,69.03
4503,B-6,1081.25,0.25,80,69.03
4504,D6,1081.25,0.25,80,69.03
4505,C6,1081.5,0.5,78,69.03
4506,C3,1081.5,0.25,65,69.03
4507,C4,1081.5,0.25,65,69.03
4508,C7,1081.75,0.25,72,69.03
4509,E-6,1081.75,0.25,72,69.03
4510,C6,1082.0,0.5,89,69.03
4511,F#4,1082.0,1.0,49,69.03
4512,D4,1082.0,1.0,49,69.03
4513,C4,1082.0,1.0,49,69.03
4514,A4,1082.0,1.0,49,69.03
4515,E-6,1082.25,0.25,74,69.03
4516,C7,1082.25,0.25,74,69.03
4517,B-5,1082.5,0.5,80,69.03
4518,D6,1082.75,0.25,74,69.03
4519,B-6,1082.75,0.25,74,69.03
4520,B-5,1083.0,0.5,77,69.03
4521,C4,1083.0,0.5,55,69.03
4522,F#4,1083.0,0.5,55,69.03
4523,D4,1083.0,0.5,55,69.03
4524,A4,1083.0,0.5,55,69.03
4525,D6,1083.25,0.25,82,69.03
4526,B-6,1083.25,0.25,82,69.03
4527,A5,1083.5,0.5,78,69.03
4528,B-3,1083.5,0.25,68,69.03
4529,B-2,1083.5,0.25,68,69.03
4530,A6,1083.75,0.25,72,69.03
4531,C6,1083.75,0.25,72,69.03
4532,A5,1084.0,0.5,89,69.03
4533,G3,1084.0,0.5,52,69.03
4534,D4,1084.0,0.5,52,69.03
4535,G4,1084.0,0.5,52,69.03
4536,A6,1084.25,0.25,74,69.03
4537,C6,1084.25,0.25,74,69.03
4538,G5,1084.5,0.5,80,69.03
4539,C3,1084.5,0.25,60,69.03
4540,C4,1084.5,0.25,60,69.03
4541,B-5,1084.75,0.25,74,69.03
4542,G6,1084.75,0.25,74,69.03
4543,G5,1085.0,0.5,77,69.03
4544,A3,1085.0,0.5,58,69.03
4545,G4,1085.0,0.5,58,69.03
4546,E-4,1085.0,0.5,58,69.03
4547,B-5,1085.25,0.25,82,69.03
4548,G6,1085.25,0.25,82,69.03
4549,D5,1085.5,0.5,78,69.03
4550,D4,1085.5,0.25,68,69.03
4551,D3,1085.5,0.25,68,69.03
4552,F#5,1085.75,0.25,72,69.03
4553,D6,1085.75,0.25,72,69.03
4554,B-4,1086.0,0.5,52,69.03
4555,G4,1086.0,0.5,52,69.03
4556,D4,1086.0,0.5,52,69.03
4557,B-5,1086.25,0.25,77,69.03
4558,D6,1086.5,0.25,78,69.03
4559,B-6,1086.5,0.25,78,69.03
4560,C3,1086.5,0.25,60,69.03
4561,C4,1086.5,0.25,60,69.03
4562,B-5,1086.75,0.25,80,69.03
4563,B-6,1087.0,0.25,76,69.03
4564,C#6,1087.0,0.25,76,69.03
4565,F#4,1087.0,0.5,57,69.03
4566,A4,1087.0,0.5,57,69.03
4567,D4,1087.0,0.5,57,69.03
4568,C4,1087.0,0.5,57,69.03
4569,B-5,1087.25,0.25,79,69.03
4570,A6,1087.5,0.25,78,69.03
4571,C6,1087.5,0.25,78,69.03
4572,B-2,1087.5,0.25,56,69.03
4573,B-3,1087.5,0.25,56,69.03
4574,A5,1087.75,0.25,81,69.03
4575,A6,1088.0,0.25,81,69.03
4576,C6,1088.0,0.25,81,69.03
4577,D4,1088.0,0.5,49,69.03
4578,G3,1088.0,0.5,49,69.03
4579,G4,1088.0,0.5,49,69.03
4580,A5,1088.25,0.25,79,69.03
4581,B-5,1088.5,0.25,80,69.03
4582,G6,1088.5,0.25,80,69.03
4583,C4,1088.5,0.25,53,69.03
4584,C3,1088.5,0.25,53,69.03
4585,G5,1088.75,0.25,80,69.03
4586,B-5,1089.0,0.25,82,69.03
4587,G6,1089.0,0.25,82,69.03
4588,A3,1089.0,0.5,51,69.03
4589,E-4,1089.0,0.5,51,69.03
4590,G4,1089.0,0.5,51,69.03
4591,G5,1089.25,0.25,79,69.03
4592,D6,1089.5,0.25,82,69.03
4593,F#5,1089.5,0.25,82,69.03
4594,D3,1089.5,0.25,62,69.03
4595,D4,1089.5,0.25,62,69.03
4596,D5,1089.75,0.25,81,69.03
4597,G4,1090.0,0.5,52,69.03
4598,B-4,1090.0,0.5,52,69.03
4599,D4,1090.0,0.5,52,69.03
4600,D6,1090.25,0.25,87,69.03
4601,G6,1090.5,0.25,85,69.03
4602,B-6,1090.5,0.25,85,69.03
4603,D7,1090.5,0.25,85,69.03
4604,C3,1090.5,0.25,56,69.03
4605,C4,1090.5,0.25,56,69.03
4606,D6,1090.75,0.25,86,69.03
4607,D4,1091.0,0.5,49,69.03
4608,A4,1091.0,0.5,49,69.03
4609,F#4,1091.0,0.5,49,69.03
4610,C4,1091.0,0.5,49,69.03
4611,D6,1091.5,0.25,79,69.03
4612,B-5,1091.5,0.25,79,69.03
4613,G5,1091.5,0.25,79,69.03
4614,B-3,1091.5,0.25,80,69.03
4615,B-2,1091.5,0.25,80,69.03
4616,D5,1091.75,0.25,78,69.03
4617,G4,1092.5,0.25,74,69.03
4618,B-4,1092.5,0.25,74,69.03
4619,D5,1092.5,0.25,74,69.03
4620,B-5,1092.5,0.25,77,69.03
4621,D6,1092.5,0.25,77,69.03
4622,G5,1092.5,0.25,77,69.03
4623,D4,1092.75,0.25,76,69.03
4624,D5,1092.75,0.25,78,69.03
4625,B-3,1093.5,0.25,74,69.03
4626,D4,1093.5,0.25,74,69.03
4627,G3,1093.5,0.25,74,69.03
4628,B-4,1093.5,0.25,73,69.03
4629,D5,1093.5,0.25,73,69.03
4630,G4,1093.5,0.25,73,69.03
4631,D3,1093.75,0.25,64,69.03
4632,D4,1093.75,0.25,77,69.03
4633,E4,1094.5,0.25,80,69.03
4634,B-3,1094.5,0.25,80,69.03
4635,G3,1094.5,0.25,80,69.03
4636,D4,1094.5,0.25,74,69.03
4637,B-3,1094.5,0.25,74,69.03
4638,G3,1094.5,0.25,74,69.03
4639,D3,1094.75,0.25,77,69.03
4640,D3,1094.75,0.25,74,69.03
4641,G3,1095.5,0.25,80,69.03
4642,B-3,1095.5,0.25,80,69.03
4643,E4,1095.5,0.25,80,69.03
4644,F#2,1095.5,0.25,86,69.03
4645,F#1,1095.5,0.25,86,69.03
4646,D3,1095.75,0.25,81,69.03
4647,G2,1095.75,0.25,75,69.03
4648,G1,1095.75,0.25,75,69.03
4649,B-3,1096.5,0.25,80,69.03
4650,G3,1096.5,0.25,80,69.03
4651,E4,1096.5,0.25,80,69.03
4652,C#2,1096.5,0.25,86,69.03
4653,C#3,1096.5,0.25,86,69.03
4654,D3,1096.75,0.25,77,69.03
4655,D2,1096.75,0.25,78,69.03
4656,D3,1096.75,0.25,78,69.03
4657,B-3,1097.5,0.25,80,69.03
4658,G3,1097.5,0.25,80,69.03
4659,E4,1097.5,0.25,80,69.03
4660,F#2,1097.5,0.25,86,69.03
4661,F#1,1097.5,0.25,86,69.03
4662,D3,1097.75,0.25,81,69.03
4663,G2,1097.75,0.25,75,69.03
4664,G1,1097.75,0.25,75,69.03
4665,C#3,1098.5,0.25,86,69.03
4666,C#2,1098.5,0.25,86,69.03
4667,D3,1098.75,0.25,78,69.03
4668,D2,1098.75,0.25,78,69.03
4669,G3,1099.0,167/1000,54,69.03
4670,G#3,1099.167,167/1000,54,69.03
4671,A3,1099.333,167/1000,55,69.03
4672,B-3,1099.5,167/1000,55,69.03
4673,D2,1099.5,1.0,89,69.03
4674,D1,1099.5,1.0,89,69.03
4675,B3,1099.667,167/1000,56,69.03
4676,C4,1099.833,167/1000,56,69.03
4677,C#4,1100.0,167/1000,56,69.03
4678,D4,1100.167,167/1000,57,69.03
4679,E-4,1100.333,167/1000,57,69.03
4680,E4,1100.5,167/1000,58,69.03
4681,F4,1100.667,167/1000,58,69.03
4682,F#4,1100.833,167/1000,58,69.03
4683,G4,1101.0,167/1000,59,69.03
4684,G#4,1101.167,167/1000,59,69.03
4685,A4,1101.333,167/1000,60,69.03
4686,B-4,1101.5,167/1000,60,69.03
4687,B4,1101.667,167/1000,60,69.03
4688,C5,1101.833,167/1000,61,69.03
4689,C#5,1102.0,167/1000,61,69.03
4690,D5,1102.167,167/1000,63,69.03
4691,E-5,1102.333,167/1000,63,69.03
4692,E5,1102.5,167/1000,64,69.03
4693,E4,1102.5,0.75,69,69.03
4694,C#4,1102.5,0.75,69,69.03
4695,B-3,1102.5,0.75,69,69.03
4696,G3,1102.5,0.75,69,69.03
4697,F5,1102.667,167/1000,64,69.03
4698,F#5,1102.833,167/1000,64,69.03
4699,G5,1103.0,167/1000,65,69.03
4700,G#5,1103.167,167/1000,65,69.03
4701,B-3,1103.25,0.25,62,69.03
4702,G3,1103.25,0.25,62,69.03
4703,E4,1103.25,0.25,62,69.03
4704,C#4,1103.25,0.25,62,69.03
4705,A5,1103.333,167/1000,66,69.03
4706,B-5,1103.5,167/1000,66,69.03
4707,F#4,1103.5,1.0,69,69.03
4708,B-3,1103.5,1.0,69,69.03
4709,G3,1103.5,1.0,69,69.03
4710,C#4,1103.5,1.0,69,69.03
4711,B5,1103.667,167/1000,66,69.03
4712,C6,1103.833,167/1000,67,69.03
4713,C#6,1104.0,167/1000,67,69.03
4714,D6,1104.167,167/1000,68,69.03
4715,E-6,1104.333,167/1000,68,69.03
4716,E6,1104.5,167/1000,68,69.03
4717,C#4,1104.5,0.75,69,69.03
4718,G3,1104.5,0.75,69,69.03
4719,B-3,1104.5,0.75,69,69.03
4720,E4,1104.5,0.75,69,69.03
4721,F6,1104.667,167/1000,69,69.03
4722,F#6,1104.833,167/1000,69,69.03
4723,G6,1105.0,167/1000,70,69.03
4724,G#6,1105.167,167/1000,70,69.03
4725,E4,1105.25,0.25,62,69.03
4726,C#4,1105.25,0.25,62,69.03
4727,G3,1105.25,0.25,62,69.03
4728,B-3,1105.25,0.25,62,69.03
4729,A6,1105.333,167/1000,70,69.03
4730,B-6,1105.5,167/1000,71,69.03
4731,B-3,1105.5,1.0,69,69.03
4732,C#4,1105.5,1.0,69,69.03
4733,G3,1105.5,1.0,69,69.03
4734,F#4,1105.5,1.0,69,69.03
4735,B6,1105.667,167/1000,71,69.03
4736,C#7,1105.833,167/1000,72,69.03
4737,E-7,1106.0,0.25,88,69.03
4738,D7,1106.25,0.25,80,69.03
4739,F7,1106.5,0.25,80,69.03
4740,C#4,1106.5,0.625,69,69.03
4741,G3,1106.5,0.625,69,69.03
4742,B-3,1106.5,0.625,69,69.03
4743,E4,1106.5,0.625,69,69.03
4744,E-7,1106.75,0.25,81,69.03
4745,D7,1107.0,0.25,79,69.03
4746,D3,1107.125,0.375,67,69.03
4747,C7,1107.25,0.25,79,69.03
4748,A3,1107.25,0.25,68,69.03
4749,C4,1107.375,0.125,70,69.03
4750,B6,1107.5,0.25,79,69.03
4751,G4,1107.5,3.75,78,69.03
4752,D3,1107.5,3.75,67,69.03
4753,A3,1107.5,3.75,68,69.03
4754,C4,1107.5,3.75,70,69.03
4755,D7,1107.75,0.25,79,69.03
4756,C7,1108.0,0.25,79,69.03
4757,B-6,1108.25,0.25,79,69.03
4758,A6,1108.5,0.25,79,69.03
4759,G6,1108.75,0.25,79,69.03
4760,F#6,1109.0,0.25,79,69.03
4761,A6,1109.25,0.25,79,69.03
4762,G6,1109.5,0.25,79,69.03
4763,F#6,1109.75,0.25,84,69.03
4764,E-6,1110.0,0.25,80,69.03
4765,D6,1110.25,0.25,80,69.03
4766,E-6,1110.5,0.25,80,69.03
4767,D6,1110.75,0.25,79,69.03
4768,F6,1111.0,0.25,79,69.03
4769,E-6,1111.25,0.25,79,69.03
4770,G4,1111.25,3.5,78,69.03
4771,D3,1111.25,3.5,67,69.03
4772,A3,1111.25,3.5,68,69.03
4773,C4,1111.25,3.5,70,69.03
4774,D6,1111.5,0.25,78,69.03
4775,C6,1111.75,0.25,77,69.03
4776,B5,1112.0,0.25,77,69.03
4777,D6,1112.25,0.25,76,69.03
4778,C6,1112.5,0.25,76,69.03
4779,B-5,1112.75,0.25,75,69.03
4780,A5,1113.0,0.25,75,69.03
4781,G5,1113.25,0.25,75,69.03
4782,F#5,1113.5,0.25,75,69.03
4783,A5,1113.75,0.25,75,69.03
4784,G5,1114.0,0.25,75,69.03
4785,F#5,1114.25,0.25,75,69.03
4786,E-5,1114.5,0.25,75,69.03
4787,D5,1114.75,0.25,75,69.03
4788,F#4,1114.75,2373/500,80,69.03
4789,D3,1114.75,4.75,67,69.03
4790,A3,1114.75,4.75,68,69.03
4791,C4,1114.75,4.75,70,69.03
4792,E-5,1115.0,0.25,74,69.03
4793,D5,1115.25,0.25,74,69.03
4794,F5,1115.5,0.25,74,69.03
4795,E-5,1115.75,0.25,74,69.03
4796,D5,1116.0,0.25,74,69.03
4797,C5,1116.25,0.25,74,69.03
4798,B4,1116.5,0.25,74,69.03
4799,D5,1116.75,0.25,73,69.03
4800,C5,1117.0,0.25,73,69.03
4801,B-4,1117.25,0.25,73,69.03
4802,A4,1117.5,0.25,73,69.03
4803,G4,1117.75,0.25,73,69.03
4804,F#4,1118.0,0.25,74,69.03
4805,E-4,1118.25,0.25,75,69.03
4806,D4,1118.5,0.25,76,69.03
4807,C4,1118.75,0.25,76,69.03
4808,B-3,1119.0,0.25,76,69.03
4809,A3,1119.25,0.25,79,69.03
4810,G3,1119.5,0.25,81,69.03
4811,F#3,1119.75,0.25,83,69.03
4812,E-3,1120.0,0.25,84,69.03
4813,D3,1120.25,0.25,84,69.03
4814,C3,1120.5,0.25,85,69.03
4815,B-2,1120.75,0.25,86,69.03
4816,A2,1121.0,0.25,88,69.03
4817,G2,1121.25,0.25,89,69.03
4818,F#2,1121.5,0.25,91,69.03
4819,E-2,1121.75,0.25,93,69.03
4820,D2,1122.0,0.25,94,69.03
4821,C2,1122.25,0.25,94,69.03
4822,B-1,1122.5,0.25,95,69.03
4823,A1,1122.75,0.25,97,69.03
4824,G1,1124.5,2.0,115,69.03
4825,A2,1125.25,0.25,75,69.03
4826,B-2,1125.5,0.25,75,69.03
4827,C3,1125.75,0.25,76,69.03
4828,D3,1126.0,0.25,77,69.03
4829,E3,1126.25,0.25,77,69.03
4830,F#3,1126.5,0.25,78,69.03
4831,G1,1126.5,0.25,115,69.03
4832,G3,1126.75,0.25,78,69.03
4833,A1,1126.75,0.25,65,69.03
4834,A3,1127.0,0.25,79,69.03
4835,B-1,1127.0,0.25,65,69.03
4836,B-3,1127.25,0.25,80,69.03
4837,C2,1127.25,0.25,66,69.03
4838,C4,1127.5,0.25,80,69.03
4839,D2,1127.5,0.25,67,69.03
4840,D4,1127.75,0.25,81,69.03
4841,E2,1127.75,0.25,67,69.03
4842,E4,1128.0,0.25,81,69.03
4843,F#2,1128.0,0.25,68,69.03
4844,F#4,1128.25,0.25,82,69.03
4845,G2,1128.25,0.25,68,69.03
4846,G4,1128.5,0.25,83,69.03
4847,A2,1128.5,0.25,69,69.03
4848,A4,1128.75,0.25,83,69.03
4849,B-2,1128.75,0.25,69,69.03
4850,B-4,1129.0,0.25,84,69.03
4851,C3,1129.0,0.25,70,69.03
4852,C5,1129.25,0.25,84,69.03
4853,D3,1129.25,0.25,70,69.03
4854,D5,1129.5,0.25,85,69.03
4855,E3,1129.5,0.25,71,69.03
4856,E5,1129.75,0.25,86,69.03
4857,F#3,1129.75,0.25,72,69.03
4858,F#5,1130.0,0.25,86,69.03
4859,G3,1130.0,0.25,72,69.03
4860,G5,1130.25,0.25,89,69.03
4861,A3,1130.25,0.25,73,69.03
4862,B-3,1130.5,0.25,73,69.03
4863,C4,1130.75,0.25,74,69.03
4864,D4,1131.0,0.25,74,69.03
4865,E4,1131.25,0.25,75,69.03
4866,F#4,1131.5,0.25,76,69.03
4867,G4,1131.75,0.25,83,69.03
4868,D3,1132.75,0.75,30,69.03
4869,G2,1132.75,0.75,30,69.03
4870,G1,1132.75,0.75,30,69.03
4871,G3,1132.75,0.75,30,69.03
4872,B-3,1132.75,0.75,30,69.03
4873,G1,1133.5,0.25,30,69.03
4874,G3,1133.5,0.25,30,69.03
4875,B-3,1133.5,0.25,30,69.03
4876,G2,1133.5,0.25,30,69.03
4877,D3,1133.5,0.25,30,69.03
4878,G1,1133.75,1.0,30,69.03
4879,G2,1133.75,1.0,30,69.03
4880,G3,1133.75,1.0,30,69.03
4881,B-3,1133.75,1.0,30,69.03
4882,D3,1133.75,1.0,30,69.03
4883,D3,1134.917,167/1000,80,69.03
4884,D2,1134.917,167/1000,80,69.03
4885,G2,1135.083,167/1000,76,69.03
4886,G3,1135.083,167/1000,76,69.03
4887,B-2,1135.25,1.0,85,69.03
4888,A2,1135.25,167/1000,81,69.03
4889,A3,1135.25,167/1000,81,69.03
4890,C3,1135.417,167/1000,84,69.03
4891,C4,1135.417,167/1000,84,69.03
4892,B-2,1135.583,73/500,78,69.03
4893,B-3,1135.583,73/500,78,69.03
4894,B-2,1135.75,0.25,87,69.03
4895,B-3,1135.75,0.25,87,69.03
4896,B-2,1136.25,0.25,85,69.03
4897,C3,1136.5,0.25,71,69.03
4898,D3,1136.75,0.25,71,69.03
4899,G1,1136.75,1.0,79,69.03
4900,E3,1137.0,0.25,71,69.03
4901,F#3,1137.25,0.25,72,69.03
4902,G3,1137.5,0.25,72,69.03
4903,A3,1137.75,0.25,72,69.03
4904,G1,1137.75,0.25,79,69.03
4905,B-3,1138.0,0.25,73,69.03
4906,A1,1138.0,0.25,52,69.03
4907,C4,1138.25,0.25,73,69.03
4908,B-1,1138.25,0.25,52,69.03
4909,D4,1138.5,0.25,73,69.03
4910,C2,1138.5,0.25,53,69.03
4911,E4,1138.75,0.25,74,69.03
4912,D2,1138.75,0.25,53,69.03
4913,F#4,1139.0,0.25,74,69.03
4914,E2,1139.0,0.25,54,69.03
4915,G4,1139.25,0.25,74,69.03
4916,F#2,1139.25,0.25,54,69.03
4917,A4,1139.5,0.25,75,69.03
4918,G2,1139.5,0.25,55,69.03
4919,B-4,1139.75,0.25,75,69.03
4920,A2,1139.75,0.25,55,69.03
4921,C5,1140.0,0.25,75,69.03
4922,B-2,1140.0,0.25,56,69.03
4923,D5,1140.25,0.25,76,69.03
4924,C3,1140.25,0.25,56,69.03
4925,E5,1140.5,0.25,76,69.03
4926,D3,1140.5,0.25,57,69.03
4927,F#5,1140.75,0.25,76,69.03
4928,E3,1140.75,0.25,57,69.03
4929,G5,1141.0,0.25,77,69.03
4930,F#3,1141.0,0.25,58,69.03
4931,A5,1141.25,0.25,77,69.03
4932,G3,1141.25,0.25,58,69.03
4933,B-5,1141.5,0.25,77,69.03
4934,A3,1141.5,0.25,59,69.03
4935,C6,1141.75,0.25,78,69.03
4936,B-3,1141.75,0.25,60,69.03
4937,D6,1142.0,0.25,78,69.03
4938,C4,1142.0,0.25,60,69.03
4939,E6,1142.25,0.25,78,69.03
4940,D4,1142.25,0.25,61,69.03
4941,F#6,1142.5,0.25,79,69.03
4942,E4,1142.5,0.25,61,69.03
4943,G6,1142.75,0.25,79,69.03
4944,F#4,1142.75,0.25,62,69.03
4945,A6,1143.0,0.25,79,69.03
4946,G4,1143.0,0.25,62,69.03
4947,B-6,1143.25,0.25,87,69.03
4948,A4,1143.25,0.25,63,69.03
4949,B-4,1143.5,0.25,63,69.03
4950,C5,1143.75,0.25,64,69.03
4951,D5,1144.0,0.25,64,69.03
4952,E5,1144.25,0.25,65,69.03
4953,D3,1144.25,0.75,39,69.03
4954,D4,1144.25,0.75,39,69.03
4955,B-3,1144.25,0.75,39,69.03
4956,G3,1144.25,0.75,39,69.03
4957,F#5,1144.5,0.25,65,69.03
4958,G5,1144.75,0.25,70,69.03
4959,D3,1145.0,0.25,39,69.03
4960,D4,1145.0,0.25,39,69.03
4961,B-3,1145.0,0.25,39,69.03
4962,G3,1145.0,0.25,39,69.03
4963,G3,1145.25,1.0,39,69.03
4964,D3,1145.25,1.0,39,69.03
4965,B-3,1145.25,1.0,39,69.03
4966,D4,1145.25,1.0,39,69.03
4967,G2,1145.75,0.75,26,69.03
4968,G1,1145.75,0.75,26,69.03
4969,D4,1146.417,167/1000,94,69.03
4970,G1,1146.5,0.25,26,69.03
4971,G2,1146.5,0.25,26,69.03
4972,G4,1146.583,167/1000,94,69.03
4973,B-4,1146.75,167/1000,99,69.03
4974,G1,1146.75,1.0,26,69.03
4975,G2,1146.75,1.0,26,69.03
4976,E-5,1146.917,167/1000,100,69.03
4977,D5,1147.083,73/500,94,69.03
4978,D5,1147.25,0.25,94,69.03
4979,D3,1147.917,167/1000,86,69.03
4980,G3,1148.083,167/1000,86,69.03
4981,E7,1148.188,271/1000,104,69.03
4982,E6,1148.25,26/125,109,69.03
4983,B-3,1148.25,167/1000,89,69.03
4984,E-4,1148.417,167/1000,90,69.03
4985,E-7,1148.521,271/1000,106,69.03
4986,E-6,1148.583,26/125,108,69.03
4987,D4,1148.583,73/500,86,69.03
4988,D4,1148.75,0.25,86,69.03
4989,D7,1148.854,271/1000,104,69.03
4990,D6,1148.917,26/125,107,69.03
4991,C#7,1149.188,0.062,100,69.03
4992,C#6,1149.25,26/125,106,69.03
4993,C#7,1149.25,26/125,100,69.03
4994,C7,1149.521,271/1000,102,69.03
4995,C6,1149.583,26/125,103,69.03
4996,B-1,1149.688,67/200,74,69.03
4997,B-2,1149.75,26/125,77,69.03
4998,B6,1149.854,271/1000,103,69.03
4999,B5,1149.917,26/125,102,69.03
5000,B1,1150.021,271/1000,76,69.03
5001,B2,1150.083,26/125,76,69.03
5002,B-6,1150.188,271/1000,102,69.03
5003,B-5,1150.25,26/125,101,69.03
5004,C2,1150.354,271/1000,75,69.03
5005,C3,1150.417,26/125,75,69.03
5006,A6,1150.521,271/1000,101,69.03
5007,A5,1150.583,26/125,100,69.03
5008,C#2,1150.688,0.062,74,69.03
5009,C#3,1150.75,26/125,74,69.03
5010,C#2,1150.75,26/125,74,69.03
5011,G#6,1150.854,271/1000,99,69.03
5012,G#5,1150.917,26/125,99,69.03
5013,D2,1151.021,271/1000,73,69.03
5014,D3,1151.083,26/125,73,69.03
5015,G5,1151.25,0.25,93,69.03
5016,G6,1151.25,0.25,93,69.03
5017,E-2,1151.354,271/1000,75,69.03
5018,E-3,1151.417,26/125,72,69.03
5019,F#6,1151.583,0.25,92,69.03
5020,F#5,1151.583,0.25,92,69.03
5021,E2,1151.688,271/1000,74,69.03
5022,E3,1151.75,26/125,73,69.03
5023,F6,1151.917,0.25,92,69.03
5024,F5,1151.917,0.25,92,69.03
5025,F2,1152.021,271/1000,72,69.03
5026,F3,1152.083,26/125,72,69.03
5027,E5,1152.25,0.25,91,69.03
5028,E6,1152.25,0.25,91,69.03
5029,F#2,1152.354,271/1000,72,69.03
5030,F#3,1152.417,26/125,72,69.03
5031,E-6,1152.583,0.25,90,69.03
5032,E-5,1152.583,0.25,90,69.03
5033,G3,1152.75,0.25,69,69.03
5034,G2,1152.75,0.25,69,69.03
5035,D5,1152.917,0.25,89,69.03
5036,D6,1152.917,0.25,89,69.03
5037,F#2,1153.083,0.25,69,69.03
5038,F#3,1153.083,0.25,69,69.03
5039,C#6,1153.25,0.25,88,69.03
5040,C#5,1153.25,0.25,88,69.03
5041,F2,1153.417,0.25,68,69.03
5042,F3,1153.417,0.25,68,69.03
5043,C6,1153.583,0.25,86,69.03
5044,C5,1153.583,0.25,86,69.03
5045,E3,1153.75,0.25,67,69.03
5046,E2,1153.75,0.25,67,69.03
5047,B5,1153.917,0.25,90,69.03
5048,B4,1153.917,0.25,90,69.03
5049,E-3,1154.083,0.25,66,69.03
5050,E-2,1154.083,0.25,66,69.03
5051,B-4,1154.25,0.25,94,69.03
5052,B-5,1154.25,0.25,94,69.03
5053,D3,1154.417,0.25,64,69.03
5054,D2,1154.417,0.25,64,69.03
5055,A5,1154.583,0.25,98,69.03
5056,A4,1154.583,0.25,98,69.03
5057,C#3,1154.75,0.25,63,69.03
5058,C#2,1154.75,0.25,63,69.03
5059,G#4,1154.917,0.25,102,69.03
5060,G#5,1154.917,0.25,102,69.03
5061,C3,1155.083,0.25,63,69.03
5062,C2,1155.083,0.25,63,69.03
5063,G4,1155.25,1.0,104,69.03
5064,G5,1155.25,1.0,104,69.03
5065,B1,1155.417,0.25,63,69.03
5066,B2,1155.417,0.25,63,69.03
5067,B-1,1155.75,0.25,70,69.03
5068,B-2,1155.75,0.25,70,69.03
5069,A1,1156.083,0.25,76,69.03
5070,A2,1156.083,0.25,76,69.03
5071,G#1,1156.417,0.25,80,69.03
5072,G#2,1156.417,0.25,80,69.03
5073,G1,1156.75,1.0,77,69.03
5074,G2,1156.75,1.0,77,69.03
5075,D6,1157.25,2.0,100,69.03
5076,B-5,1157.25,2.0,100,69.03
5077,G6,1157.25,2.0,100,69.03
5078,B-6,1157.25,2.0,100,69.03
5079,G4,1158.75,2.0,85,69.03
5080,G3,1158.75,2.0,85,69.03
5081,D4,1158.75,2.0,85,69.03
5082,G3,1159.25,2.0,117,69.03
5083,G2,1160.75,2.0,88,69.03
5084,G1,1160.75,2.0,88,69.03
