,note_name,start_time,duration,velocity,tempo
0,F1,0.002,0.5,87,91.5
1,F2,0.5,0.5,78,91.5
2,C3,1.0,229/500,81,91.5
3,C3,1.5,2.5,81,91.5
4,G5,2.0,2.0,83,91.5
5,G4,2.0,2.0,70,91.5
6,B-4,2.0,2.0,70,91.5
7,D5,2.0,2.0,70,91.5
8,D4,2.0,2.0,62,91.5
9,B-3,2.0,2.0,62,91.5
10,G3,2.0,2.0,62,91.5
11,G5,4.0,0.25,83,91.5
12,C3,4.0,1.0,81,91.5
13,G4,4.0,1.0,70,91.5
14,B-4,4.0,1.0,70,91.5
15,D5,4.0,1.0,70,91.5
16,D4,4.0,1.0,62,91.5
17,B-3,4.0,1.0,62,91.5
18,G3,4.0,1.0,62,91.5
19,A5,4.25,0.25,53,91.5
20,B-5,4.5,0.25,53,91.5
21,A5,4.75,0.25,53,91.5
22,G5,5.0,0.25,56,91.5
23,A5,5.25,0.25,54,91.5
24,G5,5.5,0.25,54,91.5
25,F5,5.75,0.25,54,91.5
26,D5,6.0,0.25,57,91.5
27,F5,6.25,0.25,54,91.5
28,D5,6.5,0.25,54,91.5
29,C5,6.75,0.25,54,91.5
30,B-4,7.0,0.25,58,91.5
31,G4,7.25,0.25,54,91.5
32,D4,7.5,0.25,53,91.5
33,E4,7.75,0.25,53,91.5
34,G4,8.0,0.25,52,91.5
35,C4,8.0,2.0,44,91.5
36,A3,8.0,4.0,44,91.5
37,F2,8.0,2.0,36,91.5
38,C3,8.0,2.0,36,91.5
39,F4,8.25,0.25,48,91.5
40,G4,8.5,0.25,48,91.5
41,A4,8.75,0.25,47,91.5
42,G4,9.0,1.25,47,91.5
43,D4,10.0,2.0,44,91.5
44,F3,10.0,2.0,37,91.5
45,B-2,10.0,2.0,37,91.5
46,F4,10.25,0.25,48,91.5
47,G4,10.5,0.25,49,91.5
48,A4,10.75,0.25,52,91.5
49,C5,11.0,0.25,53,91.5
50,A4,11.25,0.25,53,91.5
51,G4,11.5,0.25,53,91.5
52,F4,11.75,0.25,53,91.5
53,E4,12.0,2.0,45,91.5
54,G4,12.0,0.25,54,91.5
55,A3,12.0,4.0,37,91.5
56,C3,12.0,2.0,37,91.5
57,F4,12.25,0.25,49,91.5
58,G4,12.5,0.25,51,91.5
59,A4,12.75,0.25,49,91.5
60,G4,13.0,1.25,48,91.5
61,D4,14.0,2.0,45,91.5
62,D3,14.0,2.0,45,91.5
63,F4,14.25,0.25,49,91.5
64,G4,14.5,0.25,51,91.5
65,A4,14.75,0.25,52,91.5
66,D5,15.0,0.25,56,91.5
67,A4,15.25,0.25,54,91.5
68,G4,15.5,0.25,54,91.5
69,F4,15.75,0.25,54,91.5
70,D4,16.0,1.0,49,91.5
71,F4,16.0,0.25,54,91.5
72,B-2,16.0,1.0,41,91.5
73,F3,16.0,1.0,41,91.5
74,B-3,16.0,1.0,41,91.5
75,B-4,16.25,0.25,52,91.5
76,D5,16.5,0.25,54,91.5
77,F5,16.75,0.25,57,91.5
78,D5,17.0,1.0,47,91.5
79,A5,17.0,1.5,60,91.5
80,B-3,17.0,3.0,42,91.5
81,F4,17.0,1.0,47,91.5
82,C5,18.0,2.0,52,91.5
83,E4,18.0,1.0,47,91.5
84,G5,18.5,0.5,54,91.5
85,F5,19.0,0.5,52,91.5
86,D4,19.0,0.5,51,91.5
87,G5,19.5,0.5,54,91.5
88,E4,19.5,0.5,53,91.5
89,C5,20.0,1.5,52,91.5
90,G5,20.0,0.25,54,91.5
91,A3,20.0,2.0,53,91.5
92,E4,20.0,0.25,53,91.5
93,F5,20.25,0.25,49,91.5
94,F4,20.25,0.25,45,91.5
95,E5,20.5,0.25,51,91.5
96,G4,20.5,0.25,45,91.5
97,G5,20.75,0.25,51,91.5
98,A4,20.75,0.25,45,91.5
99,F5,21.0,1.5,54,91.5
100,D4,21.0,1.5,45,91.5
101,B-4,21.5,0.25,49,91.5
102,A4,21.75,0.25,49,91.5
103,B-4,22.0,2.0,51,91.5
104,G3,22.0,1.0,46,91.5
105,E5,22.5,0.5,46,91.5
106,E4,22.5,0.5,45,91.5
107,C3,23.0,1.0,41,91.5
108,D5,23.0,0.5,41,91.5
109,F4,23.0,0.5,41,91.5
110,C5,23.5,0.5,40,91.5
111,E4,23.5,0.5,40,91.5
112,F1,24.002,0.5,89,91.5
113,F2,24.5,0.5,77,91.5
114,C3,25.0,229/500,81,91.5
115,C3,25.5,2.5,81,91.5
116,G5,26.0,2.0,83,91.5
117,D5,26.0,2.0,70,91.5
118,B-4,26.0,2.0,70,91.5
119,G4,26.0,2.0,70,91.5
120,D4,26.0,2.0,64,91.5
121,B-3,26.0,2.0,64,91.5
122,G3,26.0,2.0,64,91.5
123,G5,28.0,0.25,83,91.5
124,C3,28.0,1.0,81,91.5
125,D5,28.0,1.0,70,91.5
126,B-4,28.0,1.0,70,91.5
127,G4,28.0,1.0,70,91.5
128,D4,28.0,1.0,64,91.5
129,B-3,28.0,1.0,64,91.5
130,G3,28.0,1.0,64,91.5
131,A5,28.25,0.25,53,91.5
132,B-5,28.5,0.25,53,91.5
133,A5,28.75,0.25,53,91.5
134,G5,29.0,0.25,56,91.5
135,A5,29.25,0.25,54,91.5
136,G5,29.5,0.25,54,91.5
137,F5,29.75,0.25,54,91.5
138,D5,30.0,0.25,57,91.5
139,F5,30.25,0.25,54,91.5
140,D5,30.5,0.25,54,91.5
141,C5,30.75,0.25,54,91.5
142,B-4,31.0,0.25,58,91.5
143,G4,31.25,0.25,54,91.5
144,D4,31.5,0.25,53,91.5
145,E4,31.75,0.25,53,91.5
146,G4,32.0,0.25,51,91.5
147,B-3,32.0,2.0,43,91.5
148,E-4,32.0,4.0,36,91.5
149,C4,32.0,4.0,36,91.5
150,F4,32.25,0.25,47,91.5
151,G4,32.5,0.25,48,91.5
152,A4,32.75,0.25,47,91.5
153,G4,33.0,1.25,46,91.5
154,A3,34.0,2.0,38,91.5
155,F4,34.25,0.25,48,91.5
156,G4,34.5,0.25,49,91.5
157,A4,34.75,0.25,52,91.5
158,C5,35.0,0.25,53,91.5
159,A4,35.25,0.25,53,91.5
160,G4,35.5,0.25,53,91.5
161,F4,35.75,0.25,53,91.5
162,G4,36.0,0.25,52,91.5
163,D4,36.0,2.0,37,91.5
164,B-3,36.0,2.0,37,91.5
165,E-3,36.0,2.0,37,91.5
166,F4,36.25,0.25,49,91.5
167,G4,36.5,0.25,51,91.5
168,A4,36.75,0.25,49,91.5
169,G4,37.0,1.25,48,91.5
170,E-4,38.0,2.0,45,91.5
171,F2,38.0,2.0,34,91.5
172,C3,38.0,2.0,34,91.5
173,A3,38.0,2.0,34,91.5
174,F4,38.25,0.25,49,91.5
175,G4,38.5,0.25,51,91.5
176,A4,38.75,0.25,52,91.5
177,D5,39.0,0.25,56,91.5
178,A4,39.25,0.25,54,91.5
179,G4,39.5,0.25,54,91.5
180,F4,39.75,0.25,54,91.5
181,B-1,40.0,0.5,72,91.5
182,B-2,40.0,0.5,72,91.5
183,F3,40.5,0.5,72,91.5
184,D5,41.0,1.5,58,91.5
185,F5,41.0,1.5,58,91.5
186,D4,41.0,1.5,46,91.5
187,F4,41.0,1.5,46,91.5
188,C5,42.5,0.25,56,91.5
189,E5,42.5,0.25,56,91.5
190,E4,42.5,0.25,40,91.5
191,G4,42.5,0.25,40,91.5
192,D5,42.75,0.25,54,91.5
193,F5,42.75,0.25,54,91.5
194,F4,42.75,0.25,40,91.5
195,A4,42.75,0.25,40,91.5
196,C5,43.0,0.5,59,91.5
197,E5,43.0,0.5,59,91.5
198,E4,43.0,0.5,45,91.5
199,G4,43.0,0.5,45,91.5
200,D5,43.5,0.25,50,91.5
201,B-4,43.5,0.25,50,91.5
202,D4,43.5,0.25,38,91.5
203,F4,43.5,0.25,38,91.5
204,E5,43.75,0.25,50,91.5
205,C5,43.75,0.25,50,91.5
206,E4,43.75,0.25,38,91.5
207,G4,43.75,0.25,38,91.5
208,D5,44.0,49/100,57,91.5
209,B-4,44.0,49/100,57,91.5
210,D4,44.0,49/100,44,91.5
211,F4,44.0,49/100,44,91.5
212,C5,44.5,9/20,52,91.5
213,G4,44.5,9/20,52,91.5
214,C4,44.5,9/20,40,91.5
215,E4,44.5,9/20,40,91.5
216,C5,45.0,229/500,52,91.5
217,G4,45.0,229/500,52,91.5
218,C4,45.0,229/500,42,91.5
219,E4,45.0,229/500,42,91.5
220,D5,45.5,0.5,54,91.5
221,B-4,45.5,0.5,54,91.5
222,B-3,45.5,0.5,42,91.5
223,F4,45.5,0.5,42,91.5
224,C5,46.0,479/1000,51,91.5
225,A4,46.0,479/1000,51,91.5
226,E5,46.0,479/1000,51,91.5
227,E4,46.0,479/1000,39,91.5
228,C4,46.0,479/1000,39,91.5
229,A3,46.0,479/1000,39,91.5
230,D5,46.5,9/20,55,91.5
231,G5,46.5,9/20,55,91.5
232,B-4,46.5,9/20,55,91.5
233,G3,46.5,9/20,41,91.5
234,B-3,46.5,9/20,41,91.5
235,D4,46.5,9/20,41,91.5
236,D5,47.0,0.5,58,91.5
237,G5,47.0,0.5,58,91.5
238,B-4,47.0,0.5,58,91.5
239,G3,47.0,0.5,45,91.5
240,B-3,47.0,0.5,45,91.5
241,D4,47.0,0.5,45,91.5
242,A4,47.5,0.5,57,91.5
243,C#5,47.5,0.5,57,91.5
244,A5,47.5,0.5,57,91.5
245,F3,47.5,0.5,43,91.5
246,A3,47.5,0.5,43,91.5
247,C#4,47.5,0.5,43,91.5
248,B-1,48.0,0.5,66,91.5
249,B-2,48.0,0.5,66,91.5
250,F3,48.5,0.5,72,91.5
251,D5,49.0,1.5,58,91.5
252,F5,49.0,1.5,58,91.5
253,D4,49.0,1.5,49,91.5
254,F4,49.0,1.5,49,91.5
255,C5,50.5,0.25,56,91.5
256,E5,50.5,0.25,56,91.5
257,E4,50.5,0.25,44,91.5
258,G4,50.5,0.25,44,91.5
259,D5,50.75,0.25,54,91.5
260,F5,50.75,0.25,54,91.5
261,F4,50.75,0.25,42,91.5
262,A4,50.75,0.25,42,91.5
263,C5,51.0,0.5,59,91.5
264,E5,51.0,0.5,59,91.5
265,E4,51.0,0.5,47,91.5
266,G4,51.0,0.5,47,91.5
267,B-4,51.5,0.25,50,91.5
268,D5,51.5,0.25,50,91.5
269,D4,51.5,0.25,42,91.5
270,F4,51.5,0.25,42,91.5
271,C5,51.75,0.25,51,91.5
272,E5,51.75,0.25,51,91.5
273,E4,51.75,0.25,42,91.5
274,G4,51.75,0.25,42,91.5
275,D5,52.0,49/100,57,91.5
276,B-4,52.0,49/100,57,91.5
277,D4,52.0,49/100,46,91.5
278,F4,52.0,49/100,46,91.5
279,C5,52.5,9/20,52,91.5
280,G4,52.5,9/20,52,91.5
281,C4,52.5,9/20,44,91.5
282,E4,52.5,9/20,44,91.5
283,C5,53.0,229/500,52,91.5
284,G4,53.0,229/500,52,91.5
285,C4,53.0,229/500,44,91.5
286,E4,53.0,229/500,44,91.5
287,D5,53.5,0.5,56,91.5
288,B-4,53.5,0.5,56,91.5
289,B-3,53.5,0.5,44,91.5
290,F4,53.5,0.5,44,91.5
291,C5,54.0,479/1000,55,91.5
292,A4,54.0,479/1000,55,91.5
293,E5,54.0,479/1000,55,91.5
294,E4,54.0,479/1000,43,91.5
295,C4,54.0,479/1000,43,91.5
296,A3,54.0,479/1000,43,91.5
297,G5,54.5,9/20,56,91.5
298,B-4,54.5,9/20,56,91.5
299,D5,54.5,9/20,56,91.5
300,G3,54.5,9/20,43,91.5
301,B-3,54.5,9/20,43,91.5
302,D4,54.5,9/20,43,91.5
303,G5,55.0,0.5,59,91.5
304,D5,55.0,0.5,59,91.5
305,B-4,55.0,0.5,59,91.5
306,G3,55.0,0.5,48,91.5
307,B-3,55.0,0.5,48,91.5
308,D4,55.0,0.5,48,91.5
309,A4,55.5,0.5,56,91.5
310,C#5,55.5,0.5,56,91.5
311,A5,55.5,0.5,56,91.5
312,F3,55.5,0.5,47,91.5
313,A3,55.5,0.5,47,91.5
314,C#4,55.5,0.5,47,91.5
315,G1,56.0,417/1000,56,91.5
316,G2,56.0,417/1000,56,91.5
317,C6,56.5,0.5,62,91.5
318,F3,56.5,0.5,37,91.5
319,D5,56.5,1.5,45,91.5
320,F5,56.5,1.5,45,91.5
321,B-5,57.0,0.25,57,91.5
322,G3,57.0,0.5,37,91.5
323,A5,57.25,0.25,54,91.5
324,G5,57.5,0.75,57,91.5
325,B-3,57.5,0.5,37,91.5
326,D4,58.0,0.5,39,91.5
327,F5,58.25,0.25,54,91.5
328,G5,58.5,0.25,52,91.5
329,F4,58.5,0.5,36,91.5
330,A5,58.75,0.25,52,91.5
331,E5,59.0,0.5,57,91.5
332,B-4,59.0,1.0,45,91.5
333,G4,59.0,0.5,36,91.5
334,D5,59.5,0.5,54,91.5
335,F4,59.5,62/125,36,91.5
336,F4,60.0,1.5,56,91.5
337,C5,60.5,0.5,53,91.5
338,E4,60.5,0.5,48,91.5
339,B-4,61.0,0.25,52,91.5
340,D4,61.0,0.25,46,91.5
341,A4,61.25,0.25,52,91.5
342,C4,61.25,0.25,46,91.5
343,G4,61.5,0.25,54,91.5
344,D4,61.5,1.0,54,91.5
345,B-3,61.5,0.5,48,91.5
346,F4,61.75,0.25,52,91.5
347,G4,62.0,0.25,53,91.5
348,A3,62.0,229/500,49,91.5
349,A4,62.25,26/125,53,91.5
350,B-3,62.5,1.5,56,91.5
351,E4,62.5,229/500,66,91.5
352,G3,62.5,229/500,58,91.5
353,D4,63.0,229/500,63,91.5
354,F3,63.0,229/500,56,91.5
355,F4,63.5,417/1000,68,91.5
356,D3,63.5,417/1000,58,91.5
357,C4,64.5,0.25,54,91.5
358,E3,64.5,0.25,54,91.5
359,A3,64.5,0.25,54,91.5
360,A1,64.5,0.25,52,91.5
361,A2,64.5,0.25,52,91.5
362,A3,65.0,0.25,53,91.5
363,D3,65.0,0.25,53,91.5
364,F3,65.0,0.25,53,91.5
365,B-1,65.0,0.25,52,91.5
366,B-2,65.0,0.25,52,91.5
367,G3,65.5,0.25,54,91.5
368,C4,65.5,0.25,54,91.5
369,E3,65.5,0.25,54,91.5
370,C2,65.5,0.25,52,91.5
371,C3,65.5,0.25,52,91.5
372,A3,66.5,0.5,53,91.5
373,C4,66.5,167/1000,63,91.5
374,E3,66.5,0.5,58,91.5
375,A2,66.5,0.5,58,91.5
376,D4,66.667,167/1000,63,91.5
377,C4,66.833,167/1000,63,91.5
378,D3,67.0,0.5,63,91.5
379,F3,67.0,0.5,60,91.5
380,A3,67.0,0.5,60,91.5
381,G3,67.5,0.5,60,91.5
382,C4,67.5,0.5,60,91.5
383,C3,67.5,0.5,58,91.5
384,E3,67.5,0.5,58,91.5
385,D4,68.0,0.5,54,91.5
386,B-3,68.0,0.5,54,91.5
387,B-2,68.0,0.5,52,91.5
388,F3,68.0,0.5,52,91.5
389,F4,68.5,0.5,52,91.5
390,C4,68.5,0.5,52,91.5
391,A2,68.5,0.5,49,91.5
392,A3,68.5,0.5,49,91.5
393,G4,69.0,1.5,54,91.5
394,D4,69.0,2.0,45,91.5
395,G2,69.0,2.0,46,91.5
396,D3,69.0,2.0,46,91.5
397,B-3,69.0,2.0,46,91.5
398,G4,70.5,167/1000,49,91.5
399,A4,70.667,167/1000,49,91.5
400,G4,70.833,167/1000,49,91.5
401,D4,71.0,1.0,45,91.5
402,F4,71.0,0.5,54,91.5
403,C3,71.0,1.0,43,91.5
404,B-3,71.0,1.0,43,91.5
405,E4,71.5,0.5,51,91.5
406,F4,72.0,3.0,51,91.5
407,F2,72.0,0.5,51,91.5
408,F1,72.0,4.0,40,91.5
409,B-3,72.0,1.0,43,91.5
410,D4,72.0,1.0,43,91.5
411,C3,72.5,1.0,46,91.5
412,C4,73.0,0.5,36,91.5
413,A3,73.0,0.5,36,91.5
414,F3,73.5,1.0,42,91.5
415,B-3,73.5,0.5,33,91.5
416,G3,73.5,0.5,33,91.5
417,C4,74.0,62/125,33,91.5
418,A3,74.0,2.0,27,91.5
419,C4,74.5,1.0,33,91.5
420,F4,75.5,333/1000,30,91.5
421,A3,75.875,0.125,28,91.5
422,E4,75.938,0.062,28,91.5
423,E6,76.0,0.5,48,91.5
424,E5,76.0,3.0,33,91.5
425,C5,76.0,3.0,33,91.5
426,A3,76.0,3.0,28,91.5
427,E4,76.0,3.0,28,91.5
428,B5,76.5,1.0,43,91.5
429,A5,77.5,1.0,45,91.5
430,E5,78.5,0.5,42,91.5
431,F4,79.0,0.5,32,91.5
432,B4,79.0,0.125,39,91.5
433,A3,79.0,0.5,32,91.5
434,D3,79.0,0.5,32,91.5
435,A4,79.125,0.125,39,91.5
436,B4,79.25,0.125,39,91.5
437,D5,79.375,0.125,39,91.5
438,B5,79.5,0.5,37,91.5
439,A5,79.5,0.5,37,91.5
440,F5,79.5,0.5,37,91.5
441,E6,80.0,0.5,48,91.5
442,E5,80.0,3.0,33,91.5
443,A3,80.0,3.0,29,91.5
444,E4,80.0,3.0,29,91.5
445,C5,80.0,3.0,29,91.5
446,B5,80.5,1.0,43,91.5
447,A5,81.5,1.0,45,91.5
448,E5,82.5,0.5,42,91.5
449,F4,83.0,1.0,39,91.5
450,B4,83.0,0.5,39,91.5
451,C4,83.0,1.0,30,91.5
452,D3,83.0,1.0,30,91.5
453,A4,83.5,0.5,39,91.5
454,A4,84.0,0.125,39,91.5
455,G2,84.0,0.5,31,91.5
456,D3,84.0,0.5,31,91.5
457,B3,84.0,0.5,31,91.5
458,B4,84.125,0.125,35,91.5
459,A4,84.25,0.125,37,91.5
460,G4,84.375,0.125,39,91.5
461,C4,84.5,1.0,33,91.5
462,E4,84.5,1.0,33,91.5
463,C3,84.5,1.0,38,91.5
464,G3,84.5,1.0,38,91.5
465,A3,85.5,2.5,32,91.5
466,D4,85.5,1.0,38,91.5
467,F2,85.5,1.0,31,91.5
468,C3,85.5,2.5,37,91.5
469,E4,86.5,0.5,41,91.5
470,E2,86.5,0.5,35,91.5
471,F4,87.0,0.5,45,91.5
472,D2,87.0,1.0,35,91.5
473,A4,87.5,229/500,41,91.5
474,E4,88.0,0.5,38,91.5
475,B3,88.0,2.0,32,91.5
476,G2,88.0,3.5,34,91.5
477,F3,88.0,3.5,34,91.5
478,D4,88.5,0.25,36,91.5
479,E4,88.75,0.25,34,91.5
480,D4,89.0,417/1000,37,91.5
481,E4,89.5,1.0,38,91.5
482,A3,90.0,1.5,28,91.5
483,D4,90.5,0.25,32,91.5
484,E4,90.75,0.25,30,91.5
485,D4,91.0,417/1000,31,91.5
486,B3,91.5,0.5,22,91.5
487,E4,91.5,0.5,22,91.5
488,G3,91.5,0.5,22,91.5
489,E2,91.5,0.5,22,91.5
490,B2,91.5,0.5,22,91.5
491,E3,91.5,0.5,22,91.5
492,E6,92.0,0.5,45,91.5
493,E5,92.0,3.0,30,91.5
494,A3,92.0,3.0,30,91.5
495,E4,92.0,3.0,30,91.5
496,C5,92.0,3.0,30,91.5
497,B5,92.5,1.0,43,91.5
498,A5,93.5,1.0,45,91.5
499,E5,94.5,0.5,42,91.5
500,F4,95.0,0.5,32,91.5
501,B4,95.0,0.125,39,91.5
502,A3,95.0,0.5,30,91.5
503,D3,95.0,0.5,30,91.5
504,A4,95.125,0.125,39,91.5
505,B4,95.25,0.125,39,91.5
506,D5,95.375,0.125,39,91.5
507,B5,95.5,0.5,37,91.5
508,A5,95.5,0.5,37,91.5
509,F5,95.5,0.5,37,91.5
510,E6,96.0,0.5,48,91.5
511,E5,96.0,2.0,33,91.5
512,A3,96.0,2.0,29,91.5
513,E4,96.0,2.0,29,91.5
514,C5,96.0,2.0,29,91.5
515,B5,96.5,1.0,43,91.5
516,A5,97.5,0.5,43,91.5
517,A6,98.0,0.5,53,91.5
518,A5,98.0,2.0,36,91.5
519,D4,98.0,2.0,35,91.5
520,A4,98.0,2.0,35,91.5
521,F5,98.0,2.0,35,91.5
522,E6,98.5,1.0,46,91.5
523,D6,99.5,0.5,46,91.5
524,D5,100.0,167/1000,35,91.5
525,B4,100.0,0.5,29,91.5
526,G3,100.0,2.0,30,91.5
527,F4,100.0,2.0,30,91.5
528,E5,100.125,167/1000,36,91.5
529,G5,100.25,167/1000,38,91.5
530,A5,100.375,167/1000,39,91.5
531,D6,100.5,1.0,46,91.5
532,E6,101.5,0.5,43,91.5
533,G4,102.0,0.5,21,91.5
534,A4,102.0,167/1000,36,91.5
535,C3,102.0,2.0,23,91.5
536,E4,102.0,2.0,23,91.5
537,G3,102.0,2.0,23,91.5
538,C5,102.125,167/1000,36,91.5
539,D5,102.25,167/1000,37,91.5
540,E5,102.375,167/1000,38,91.5
541,A5,102.5,0.75,45,91.5
542,G5,103.25,0.25,39,91.5
543,A5,103.5,0.25,44,91.5
544,C6,103.75,0.25,42,91.5
545,B4,104.0,0.5,29,91.5
546,D5,104.0,167/1000,35,91.5
547,F4,104.0,2.0,30,91.5
548,G3,104.0,2.0,30,91.5
549,E5,104.125,167/1000,36,91.5
550,F5,104.25,167/1000,38,91.5
551,A5,104.375,167/1000,39,91.5
552,D6,104.5,1.0,46,91.5
553,E6,105.5,0.5,43,91.5
554,A4,106.0,167/1000,36,91.5
555,G4,106.0,0.5,21,91.5
556,E4,106.0,2.0,25,91.5
557,G3,106.0,2.0,25,91.5
558,C3,106.0,2.0,25,91.5
559,C5,106.125,167/1000,36,91.5
560,D5,106.25,167/1000,37,91.5
561,E5,106.375,167/1000,38,91.5
562,A5,106.5,0.75,45,91.5
563,B5,107.25,0.25,44,91.5
564,A5,107.5,0.25,44,91.5
565,G5,107.75,0.25,43,91.5
566,C#4,108.0,167/1000,28,91.5
567,B3,108.0,0.5,24,91.5
568,F#2,108.0,2.0,24,91.5
569,B2,108.0,2.0,24,91.5
570,A3,108.0,2.0,24,91.5
571,E-4,108.125,167/1000,30,91.5
572,F#4,108.25,167/1000,32,91.5
573,A4,108.375,167/1000,33,91.5
574,C#5,108.5,1.0,38,91.5
575,E-5,109.5,0.5,34,91.5
576,B3,110.0,0.5,18,91.5
577,C#4,110.0,167/1000,30,91.5
578,E2,110.0,2.0,24,91.5
579,B2,110.0,2.0,24,91.5
580,G#3,110.0,2.0,24,91.5
581,E-4,110.125,167/1000,30,91.5
582,E4,110.25,167/1000,31,91.5
583,F#4,110.375,167/1000,32,91.5
584,G#4,110.5,0.75,38,91.5
585,B4,111.25,0.25,33,91.5
586,G#4,111.5,0.25,36,91.5
587,B4,111.75,0.25,34,91.5
588,C#4,112.0,167/1000,28,91.5
589,B3,112.0,0.5,24,91.5
590,F#2,112.0,2.0,30,91.5
591,B2,112.0,2.0,30,91.5
592,A3,112.0,2.0,30,91.5
593,E-4,112.125,167/1000,30,91.5
594,F#4,112.25,167/1000,32,91.5
595,A4,112.375,167/1000,33,91.5
596,C#5,112.5,0.75,38,91.5
597,E-5,113.25,0.25,35,91.5
598,C#5,113.5,0.25,38,91.5
599,E-5,113.75,0.25,36,91.5
600,B4,114.0,0.5,27,91.5
601,C#5,114.0,167/1000,37,91.5
602,G#4,114.0,2.0,37,91.5
603,B3,114.0,2.0,37,91.5
604,E3,114.0,2.0,37,91.5
605,E-5,114.125,167/1000,37,91.5
606,E5,114.25,167/1000,38,91.5
607,F#5,114.375,167/1000,39,91.5
608,G#5,114.5,0.75,47,91.5
609,B5,115.25,0.25,47,91.5
610,G#5,115.5,0.25,54,91.5
611,B5,115.75,0.25,53,91.5
612,D6,116.0,0.5,53,91.5
613,F5,116.0,1.0,45,91.5
614,D4,116.0,1.0,42,91.5
615,A4,116.0,1.0,42,91.5
616,C6,116.5,0.25,52,91.5
617,B5,116.75,0.25,52,91.5
618,D5,117.0,1.0,42,91.5
619,A5,117.0,0.25,53,91.5
620,F4,117.0,1.0,38,91.5
621,B4,117.0,1.0,38,91.5
622,G5,117.25,0.25,51,91.5
623,A5,117.5,0.25,51,91.5
624,B5,117.75,26/125,51,91.5
625,E5,118.0,0.25,53,91.5
626,B4,118.0,0.5,42,91.5
627,G4,118.0,0.5,42,91.5
628,C4,118.0,1.0,35,91.5
629,F5,118.25,0.25,51,91.5
630,A4,118.5,1.0,39,91.5
631,G5,118.5,0.25,51,91.5
632,F4,118.5,1.0,39,91.5
633,A5,118.75,26/125,51,91.5
634,D5,119.0,0.25,53,91.5
635,B3,119.0,1.0,42,91.5
636,E5,119.25,0.25,49,91.5
637,F5,119.5,0.25,49,91.5
638,G4,119.5,0.5,39,91.5
639,E4,119.5,0.5,39,91.5
640,G5,119.75,26/125,49,91.5
641,C5,120.0,0.25,53,91.5
642,G4,120.0,0.5,39,91.5
643,A3,120.0,1.0,42,91.5
644,E4,120.0,0.5,39,91.5
645,D5,120.25,0.25,52,91.5
646,E5,120.5,0.25,52,91.5
647,F4,120.5,1.0,39,91.5
648,D4,120.5,1.5,39,91.5
649,F5,120.75,0.25,52,91.5
650,B4,121.0,151/125,56,91.5
651,A3,121.0,0.5,42,91.5
652,G4,121.5,0.5,45,91.5
653,G3,121.5,0.5,44,91.5
654,A4,122.0,0.5,41,91.5
655,F3,122.0,0.5,36,91.5
656,D4,122.0,0.5,36,91.5
657,C5,122.25,0.25,51,91.5
658,G4,122.5,0.5,33,91.5
659,D5,122.5,0.25,48,91.5
660,E3,122.5,0.5,30,91.5
661,B3,122.5,0.5,30,91.5
662,E5,122.75,0.25,46,91.5
663,F4,123.0,0.5,45,91.5
664,A4,123.0,1.0,45,91.5
665,D3,123.0,0.5,35,91.5
666,C4,123.0,0.5,35,91.5
667,E4,123.5,0.5,38,91.5
668,C3,123.5,0.5,33,91.5
669,E3,123.5,0.5,33,91.5
670,E-4,124.0,4.0,35,91.5
671,A4,124.0,0.5,45,91.5
672,B2,124.0,4.0,33,91.5
673,F#3,124.0,4.0,33,91.5
674,B4,124.5,0.25,43,91.5
675,A4,124.75,0.25,43,91.5
676,G#4,125.0,0.25,45,91.5
677,A4,125.25,0.25,43,91.5
678,F#4,125.5,0.25,45,91.5
679,G#4,125.75,0.25,43,91.5
680,A4,126.0,229/500,45,91.5
681,B4,126.5,0.25,43,91.5
682,A4,126.75,0.25,43,91.5
683,F#4,127.0,0.5,45,91.5
684,G#4,127.5,0.5,43,91.5
685,E4,128.0,229/500,43,91.5
686,A4,128.0,4.0,24,91.5
687,A3,128.0,4.0,24,91.5
688,C3,128.0,4.0,24,91.5
689,F#3,128.0,4.0,24,91.5
690,F#4,128.5,0.25,38,91.5
691,E4,128.75,0.25,38,91.5
692,C4,129.0,0.25,38,91.5
693,D4,129.25,0.25,37,91.5
694,E4,129.5,479/500,36,91.5
695,F#4,130.5,0.25,38,91.5
696,E4,130.75,0.25,38,91.5
697,C4,131.0,0.25,38,91.5
698,D4,131.25,0.25,37,91.5
699,E4,131.5,0.5,36,91.5
700,B-3,132.0,4.0,25,91.5
701,E4,132.0,479/1000,36,91.5
702,F#4,132.5,0.25,37,91.5
703,E4,132.75,0.25,37,91.5
704,C4,133.0,0.25,37,91.5
705,D4,133.25,0.25,35,91.5
706,E4,133.5,479/500,34,91.5
707,F#4,134.5,0.25,35,91.5
708,E4,134.75,0.25,35,91.5
709,C4,135.0,0.25,34,91.5
710,D4,135.25,0.25,31,91.5
711,E4,135.5,0.5,28,91.5
712,D4,136.0,0.375,38,91.5
713,E4,136.0,0.5,28,91.5
714,C3,136.0,4.0,24,91.5
715,F#3,136.0,4.0,24,91.5
716,E4,136.5,0.25,41,91.5
717,F#4,136.75,0.125,41,91.5
718,G#4,137.0,0.125,41,91.5
719,A4,137.25,0.125,41,91.5
720,B4,137.5,0.125,41,91.5
721,C5,137.75,0.125,41,91.5
722,D5,138.0,0.125,39,91.5
723,E5,138.25,0.125,39,91.5
724,F#5,138.5,0.125,38,91.5
725,G#5,138.75,0.125,37,91.5
726,A5,139.0,0.125,37,91.5
727,B5,139.25,0.125,36,91.5
728,C6,139.5,0.125,35,91.5
729,D6,139.75,0.125,35,91.5
730,E6,140.0,0.5,45,91.5
731,E5,140.0,3.0,30,91.5
732,B2,140.0,0.375,32,91.5
733,G#3,140.0,0.375,32,91.5
734,B5,140.5,1.0,41,91.5
735,E2,140.5,0.375,38,91.5
736,A5,141.5,1.0,45,91.5
737,E5,142.5,0.5,42,91.5
738,B4,143.0,0.125,39,91.5
739,F4,143.0,0.5,39,91.5
740,A4,143.125,0.125,39,91.5
741,B4,143.25,0.125,39,91.5
742,D5,143.375,0.125,39,91.5
743,E5,144.0,3.0,33,91.5
744,E6,144.0,0.5,48,91.5
745,A3,144.0,3.0,27,91.5
746,E4,144.0,3.0,27,91.5
747,C5,144.0,3.0,27,91.5
748,B5,144.5,1.0,43,91.5
749,A5,145.5,1.0,45,91.5
750,E5,146.5,0.5,42,91.5
751,B4,147.0,0.5,36,91.5
752,F#4,147.0,0.5,36,91.5
753,A3,147.0,0.5,30,91.5
754,D3,147.0,0.5,30,91.5
755,A4,147.5,0.5,39,91.5
756,B5,147.5,0.5,37,91.5
757,A5,147.5,0.5,37,91.5
758,F5,147.5,0.5,37,91.5
759,F4,148.0,0.5,39,91.5
760,A4,148.0,0.125,39,91.5
761,A3,148.0,3.0,29,91.5
762,E4,148.0,3.0,29,91.5
763,C5,148.0,3.0,29,91.5
764,B4,148.125,0.125,35,91.5
765,A4,148.25,0.125,37,91.5
766,G4,148.375,0.125,39,91.5
767,C4,148.5,1.0,33,91.5
768,E4,148.5,1.0,33,91.5
769,A3,149.5,2.5,32,91.5
770,D4,149.5,1.0,38,91.5
771,E4,150.5,0.5,41,91.5
772,F4,151.0,0.5,45,91.5
773,C4,151.0,1.0,30,91.5
774,D3,151.0,1.0,30,91.5
775,A4,151.5,229/500,41,91.5
776,E4,152.0,0.5,38,91.5
777,B3,152.0,2.0,32,91.5
778,G2,152.0,0.5,31,91.5
779,D3,152.0,0.5,31,91.5
780,B3,152.0,0.5,31,91.5
781,D4,152.5,0.25,36,91.5
782,C3,152.5,1.0,38,91.5
783,G3,152.5,1.0,38,91.5
784,E4,152.75,0.25,34,91.5
785,D4,153.0,417/1000,37,91.5
786,E4,153.5,1.0,38,91.5
787,F2,153.5,1.0,31,91.5
788,C3,153.5,2.5,37,91.5
789,D4,154.5,0.25,32,91.5
790,E2,154.5,0.5,35,91.5
791,E4,154.75,0.25,30,91.5
792,D2,155.0,1.0,35,91.5
793,D4,155.0,417/1000,28,91.5
794,A3,155.0,417/1000,28,91.5
795,B3,155.5,0.5,21,91.5
796,G3,155.5,0.5,21,91.5
797,E4,155.5,0.5,21,91.5
798,E6,156.0,0.5,45,91.5
799,E5,156.0,3.0,30,91.5
800,G2,156.0,3.0,34,91.5
801,F3,156.0,3.0,34,91.5
802,B5,156.5,1.0,43,91.5
803,A5,157.5,1.0,45,91.5
804,E5,158.5,0.5,42,91.5
805,F4,159.0,0.5,33,91.5
806,B4,159.0,0.125,39,91.5
807,B2,159.0,1.0,31,91.5
808,F2,159.0,417/1000,26,91.5
809,A4,159.125,0.125,39,91.5
810,B4,159.25,0.125,39,91.5
811,D5,159.375,0.125,39,91.5
812,E2,159.5,0.5,25,91.5
813,E6,160.0,0.5,48,91.5
814,E5,160.0,2.0,33,91.5
815,A3,160.0,3.0,27,91.5
816,E4,160.0,3.0,27,91.5
817,C5,160.0,3.0,27,91.5
818,B5,160.5,1.0,43,91.5
819,A5,161.5,0.5,43,91.5
820,E4,162.0,2.0,31,91.5
821,E5,162.0,0.5,42,91.5
822,B4,162.5,1.0,37,91.5
823,A3,163.0,0.5,30,91.5
824,D3,163.0,0.5,30,91.5
825,A4,163.5,0.5,36,91.5
826,B5,163.5,0.5,37,91.5
827,A5,163.5,0.5,37,91.5
828,F5,163.5,0.5,37,91.5
829,A3,164.0,0.5,37,91.5
830,A4,164.0,0.5,36,91.5
831,A3,164.0,2.0,29,91.5
832,E4,164.0,2.0,29,91.5
833,C5,164.0,2.0,29,91.5
834,E4,164.5,1.0,36,91.5
835,B3,164.5,1.5,25,91.5
836,D4,165.5,0.625,35,91.5
837,A3,166.0,0.5,32,91.5
838,A2,166.0,2.0,29,91.5
839,E3,166.0,2.0,29,91.5
840,C#4,166.0,2.0,29,91.5
841,C4,166.125,0.125,32,91.5
842,D4,166.25,0.125,32,91.5
843,E4,166.375,0.125,32,91.5
844,F3,166.5,1.0,29,91.5
845,A3,166.5,1.0,29,91.5
846,B3,167.5,0.5,27,91.5
847,E3,167.5,0.5,27,91.5
848,F2,168.0,0.5,23,91.5
849,C3,168.0,0.5,23,91.5
850,E3,168.5,0.188,24,91.5
851,A3,168.5,0.188,24,91.5
852,G2,168.5,1.5,27,91.5
853,F3,168.5,1.5,27,91.5
854,D3,169.5,0.125,22,91.5
855,F3,169.5,0.125,22,91.5
856,E3,170.0,0.125,24,91.5
857,A3,170.0,0.125,24,91.5
858,A2,170.0,0.5,28,91.5
859,E3,170.0,0.5,28,91.5
860,D3,170.5,1.0,33,91.5
861,E3,170.5,0.125,24,91.5
862,A3,170.5,0.125,24,91.5
863,G3,171.5,0.5,31,91.5
864,C3,172.5,0.25,36,91.5
865,A2,172.5,0.188,22,91.5
866,C3,172.5,0.188,22,91.5
867,D3,172.75,0.25,36,91.5
868,C3,173.0,3.0,32,91.5
869,E3,173.0,1.5,38,91.5
870,G2,173.5,0.125,19,91.5
871,B2,173.5,0.125,19,91.5
872,A2,174.0,0.125,22,91.5
873,C3,174.0,0.125,22,91.5
874,D3,174.5,0.5,35,91.5
875,F3,174.5,0.5,35,91.5
876,A2,174.5,0.125,22,91.5
877,C3,174.5,0.125,22,91.5
878,E3,175.0,0.5,35,91.5
879,G3,175.0,0.5,35,91.5
880,A3,175.5,0.5,35,91.5
881,F3,175.5,0.5,35,91.5
882,C3,176.0,1.0,36,91.5
883,G3,176.0,0.5,36,91.5
884,B-3,176.0,0.5,36,91.5
885,B-1,176.0,1.0,28,91.5
886,B-2,176.0,1.0,28,91.5
887,A3,176.5,0.5,37,91.5
888,C4,176.5,0.5,37,91.5
889,D4,177.0,0.5,34,91.5
890,F3,177.0,0.5,34,91.5
891,B-3,177.0,0.5,34,91.5
892,A1,177.0,1.0,31,91.5
893,A2,177.0,1.0,31,91.5
894,F4,177.5,0.5,37,91.5
895,A3,177.5,0.5,37,91.5
896,C4,177.5,0.5,37,91.5
897,G4,178.0,479/1000,37,91.5
898,B-3,178.0,479/1000,37,91.5
899,D4,178.0,479/1000,37,91.5
900,G1,178.0,1.0,33,91.5
901,G2,178.0,1.0,33,91.5
902,F4,178.5,1.0,34,91.5
903,A3,178.5,1.0,34,91.5
904,C4,178.5,1.0,34,91.5
905,F1,179.0,1.0,31,91.5
906,F2,179.0,1.0,31,91.5
907,B-3,179.5,0.5,32,91.5
908,F3,179.5,0.5,32,91.5
909,D4,179.5,0.5,32,91.5
910,E1,180.0,1.0,28,91.5
911,E2,180.0,1.0,28,91.5
912,C3,180.5,0.25,36,91.5
913,D3,180.75,0.25,36,91.5
914,E3,181.0,1.5,38,91.5
915,C3,181.0,3.0,32,91.5
916,D1,181.0,1.0,32,91.5
917,D2,181.0,1.0,32,91.5
918,C1,182.0,1.0,35,91.5
919,C2,182.0,1.0,35,91.5
920,F3,182.5,0.5,38,91.5
921,D3,182.5,0.5,38,91.5
922,G3,183.0,0.5,38,91.5
923,E3,183.0,0.5,38,91.5
924,D1,183.0,1.0,31,91.5
925,D2,183.0,1.0,31,91.5
926,A3,183.5,0.5,38,91.5
927,F3,183.5,0.5,38,91.5
928,C3,184.0,1.0,36,91.5
929,G3,184.0,0.5,33,91.5
930,B-3,184.0,0.5,33,91.5
931,B-1,184.0,1.0,34,91.5
932,B-2,184.0,1.0,34,91.5
933,A3,184.5,0.5,34,91.5
934,C4,184.5,0.5,34,91.5
935,B-3,185.0,0.5,36,91.5
936,F3,185.0,0.5,36,91.5
937,D4,185.0,0.5,36,91.5
938,A1,185.0,1.0,31,91.5
939,A2,185.0,1.0,31,91.5
940,C4,185.5,0.5,37,91.5
941,A3,185.5,0.5,37,91.5
942,F4,185.5,0.5,37,91.5
943,D4,186.0,479/1000,39,91.5
944,G4,186.0,479/1000,39,91.5
945,B-3,186.0,479/1000,39,91.5
946,G1,186.0,1.0,33,91.5
947,G2,186.0,1.0,33,91.5
948,F4,186.5,1.0,35,91.5
949,A3,186.5,1.0,35,91.5
950,C4,186.5,1.0,35,91.5
951,F1,187.0,1.0,31,91.5
952,F2,187.0,1.0,31,91.5
953,D4,187.5,479/1000,35,91.5
954,G4,187.5,479/1000,35,91.5
955,B-3,187.5,479/1000,35,91.5
956,E1,188.0,1.0,28,91.5
957,E2,188.0,1.0,28,91.5
958,F4,188.5,0.25,39,91.5
959,G4,188.75,0.25,39,91.5
960,A4,189.0,1.5,42,91.5
961,F4,189.0,3.0,35,91.5
962,D1,189.0,1.0,32,91.5
963,D2,189.0,1.0,32,91.5
964,C1,190.0,1.0,35,91.5
965,C2,190.0,1.0,35,91.5
966,B-4,190.5,0.5,38,91.5
967,G4,190.5,0.5,38,91.5
968,C3,191.0,1.0,41,91.5
969,C5,191.0,0.5,38,91.5
970,A4,191.0,0.5,38,91.5
971,D5,191.5,0.5,38,91.5
972,B-4,191.5,0.5,38,91.5
973,F4,192.0,1.0,30,91.5
974,E-4,192.0,4.0,46,91.5
975,C5,192.0,0.5,36,91.5
976,E-5,192.0,0.5,36,91.5
977,D5,192.5,0.5,38,91.5
978,F5,192.5,0.5,38,91.5
979,C5,193.0,1.0,30,91.5
980,D4,193.0,1.0,45,91.5
981,E-5,193.0,0.5,38,91.5
982,G5,193.0,0.5,38,91.5
983,G5,193.5,0.5,42,91.5
984,B-5,193.5,0.5,42,91.5
985,C5,194.0,1.0,32,91.5
986,C4,194.0,1.0,42,91.5
987,A5,194.0,0.5,49,91.5
988,C6,194.0,0.5,49,91.5
989,A5,194.5,0.5,46,91.5
990,F5,194.5,0.5,46,91.5
991,C5,195.0,1.0,27,91.5
992,B-3,195.0,1.0,42,91.5
993,E-5,195.0,0.5,43,91.5
994,G5,195.0,0.5,43,91.5
995,C5,195.5,0.5,38,91.5
996,E-5,195.5,0.5,38,91.5
997,E-4,196.0,1.0,32,91.5
998,C4,196.0,1.0,32,91.5
999,A3,196.0,1.0,32,91.5
1000,F4,196.5,0.25,39,91.5
1001,G4,196.75,0.25,39,91.5
1002,F4,197.0,3.0,35,91.5
1003,A4,197.0,729/500,42,91.5
1004,G4,197.0,1.0,32,91.5
1005,E-4,197.0,1.0,32,91.5
1006,C4,197.0,1.0,32,91.5
1007,G3,197.0,1.0,32,91.5
1008,A4,198.0,1.0,34,91.5
1009,E-4,198.0,1.0,34,91.5
1010,C4,198.0,1.0,34,91.5
1011,F3,198.0,1.0,34,91.5
1012,B-4,198.5,0.5,38,91.5
1013,G4,198.5,0.5,38,91.5
1014,C5,199.0,0.5,38,91.5
1015,A4,199.0,0.5,38,91.5
1016,G4,199.0,1.0,28,91.5
1017,E-4,199.0,1.0,28,91.5
1018,C4,199.0,1.0,28,91.5
1019,G3,199.0,1.0,28,91.5
1020,B-4,199.5,0.5,38,91.5
1021,D5,199.5,0.5,38,91.5
1022,F4,200.0,1.0,30,91.5
1023,E-4,200.0,4.0,46,91.5
1024,E-5,200.0,0.5,36,91.5
1025,C5,200.0,0.5,36,91.5
1026,F5,200.5,0.5,38,91.5
1027,D5,200.5,0.5,38,91.5
1028,C5,201.0,1.0,30,91.5
1029,D4,201.0,1.0,45,91.5
1030,E-5,201.0,0.5,42,91.5
1031,G5,201.0,0.5,42,91.5
1032,B-5,201.5,0.5,47,91.5
1033,G5,201.5,0.5,47,91.5
1034,C6,202.0,229/500,52,91.5
1035,C4,202.0,1.0,42,91.5
1036,E5,202.0,2.0,35,91.5
1037,C5,202.0,2.0,35,91.5
1038,A5,202.5,0.5,56,91.5
1039,B-5,203.0,0.5,58,91.5
1040,B-3,203.0,1.0,42,91.5
1041,C6,203.5,0.5,60,91.5
1042,C6,204.0,229/500,60,91.5
1043,F5,204.0,4.0,58,91.5
1044,D5,204.0,4.0,58,91.5
1045,E-4,204.0,1.0,32,91.5
1046,C4,204.0,1.0,32,91.5
1047,A3,204.0,1.0,32,91.5
1048,A5,204.5,0.5,59,91.5
1049,B-5,205.0,0.5,60,91.5
1050,G4,205.0,1.0,32,91.5
1051,E-4,205.0,1.0,32,91.5
1052,C4,205.0,1.0,32,91.5
1053,G3,205.0,1.0,32,91.5
1054,C6,205.5,479/500,60,91.5
1055,A4,206.0,229/500,52,91.5
1056,E-4,206.0,2.0,37,91.5
1057,C4,206.0,2.0,37,91.5
1058,F3,206.0,2.0,37,91.5
1059,A5,206.5,0.5,57,91.5
1060,F4,206.5,0.5,54,91.5
1061,B-5,207.0,0.5,58,91.5
1062,G4,207.0,0.5,56,91.5
1063,C6,207.5,0.5,60,91.5
1064,A4,207.5,0.5,59,91.5
1065,C6,208.0,0.5,60,91.5
1066,E5,208.0,4.0,42,91.5
1067,C#5,208.0,4.0,42,91.5
1068,B-1,208.0,4.0,59,91.5
1069,F2,208.0,4.0,59,91.5
1070,B-5,208.5,0.25,53,91.5
1071,A5,208.75,0.25,53,91.5
1072,G5,209.0,0.5,56,91.5
1073,A5,209.5,0.5,54,91.5
1074,B-5,210.0,229/500,53,91.5
1075,F3,210.0,0.375,54,91.5
1076,G5,210.5,0.5,51,91.5
1077,F4,210.5,0.375,46,91.5
1078,A5,211.0,0.5,51,91.5
1079,B-5,211.5,0.5,51,91.5
1080,C6,212.0,229/500,60,91.5
1081,F5,212.0,4.0,58,91.5
1082,D5,212.0,4.0,58,91.5
1083,A5,212.5,0.5,57,91.5
1084,B-5,213.0,0.5,58,91.5
1085,C6,213.5,479/500,60,91.5
1086,A5,214.5,0.5,54,91.5
1087,B-5,215.0,0.5,54,91.5
1088,C6,215.5,0.5,54,91.5
1089,C6,216.0,229/500,54,91.5
1090,F4,216.0,0.375,53,91.5
1091,E5,216.0,4.0,42,91.5
1092,C#5,216.0,4.0,42,91.5
1093,B-1,216.0,4.0,59,91.5
1094,F2,216.0,4.0,59,91.5
1095,B-5,216.5,0.25,53,91.5
1096,F5,216.5,0.375,51,91.5
1097,A5,216.75,0.25,53,91.5
1098,G5,217.0,0.5,56,91.5
1099,A5,217.5,0.5,54,91.5
1100,B-5,218.0,0.375,54,91.5
1101,F3,218.0,0.375,51,91.5
1102,G4,218.5,0.5,42,91.5
1103,F4,218.5,0.375,46,91.5
1104,A4,219.0,0.5,38,91.5
1105,B-4,219.5,0.5,36,91.5
1106,B4,220.0,0.5,35,91.5
1107,E5,220.0,4.0,35,91.5
1108,C#5,220.0,4.0,35,91.5
1109,B-1,220.0,4.0,59,91.5
1110,F2,220.0,4.0,59,91.5
1111,G#4,220.5,0.5,35,91.5
1112,A4,221.0,0.5,35,91.5
1113,B4,221.5,479/500,36,91.5
1114,F3,222.0,0.375,54,91.5
1115,G#4,222.5,0.5,35,91.5
1116,F4,222.5,0.375,47,91.5
1117,A4,223.0,0.5,35,91.5
1118,B4,223.5,0.5,36,91.5
1119,B4,224.0,0.5,36,91.5
1120,E-5,224.0,4.0,28,91.5
1121,C5,224.0,4.0,28,91.5
1122,A4,224.5,0.25,35,91.5
1123,G#4,224.75,0.25,35,91.5
1124,F#4,225.0,0.5,35,91.5
1125,G#4,225.5,0.5,36,91.5
1126,A4,226.0,229/500,37,91.5
1127,F#4,226.5,0.5,36,91.5
1128,G#4,227.0,0.5,36,91.5
1129,A4,227.5,0.5,37,91.5
1130,B4,228.0,0.5,35,91.5
1131,F4,228.0,0.375,53,91.5
1132,E5,228.0,4.0,38,91.5
1133,C#5,228.0,4.0,38,91.5
1134,B-1,228.0,4.0,59,91.5
1135,F2,228.0,4.0,59,91.5
1136,G#4,228.5,0.5,35,91.5
1137,F5,228.5,0.375,47,91.5
1138,A4,229.0,0.5,35,91.5
1139,B4,229.5,479/500,36,91.5
1140,G#4,230.5,0.5,35,91.5
1141,A4,231.0,0.5,35,91.5
1142,B4,231.5,0.5,36,91.5
1143,B4,232.0,0.5,36,91.5
1144,C5,232.0,4.0,30,91.5
1145,E-5,232.0,4.0,30,91.5
1146,A1,232.0,4.0,36,91.5
1147,E2,232.0,4.0,36,91.5
1148,A4,232.5,0.25,35,91.5
1149,G#4,232.75,0.25,35,91.5
1150,F#4,233.0,0.5,35,91.5
1151,G#4,233.5,0.5,36,91.5
1152,A4,234.0,229/500,37,91.5
1153,E3,234.0,0.375,33,91.5
1154,F#4,234.5,0.5,36,91.5
1155,E4,234.5,0.375,27,91.5
1156,G#4,235.0,0.5,36,91.5
1157,A4,235.5,0.5,37,91.5
1158,F#6,236.0,0.375,44,91.5
1159,B-5,236.0,0.5,38,91.5
1160,B-4,236.0,0.5,38,91.5
1161,D5,236.0,1.0,30,91.5
1162,E5,236.0,1.0,30,91.5
1163,G4,236.5,0.5,34,91.5
1164,G5,236.5,0.5,34,91.5
1165,E-6,237.0,0.375,44,91.5
1166,C5,237.0,1.0,28,91.5
1167,E5,237.0,1.0,28,91.5
1168,A5,237.0,0.5,34,91.5
1169,A4,237.0,0.5,34,91.5
1170,B-5,237.5,1.0,38,91.5
1171,B-4,237.5,1.0,38,91.5
1172,C6,238.0,0.375,43,91.5
1173,E5,238.0,1.0,35,91.5
1174,D5,238.0,1.0,35,91.5
1175,G5,238.5,0.5,36,91.5
1176,G4,238.5,0.5,36,91.5
1177,A5,239.0,0.375,39,91.5
1178,A5,239.0,0.5,36,91.5
1179,A4,239.0,0.5,36,91.5
1180,C5,239.0,1.0,30,91.5
1181,E5,239.0,1.0,30,91.5
1182,B-5,239.5,0.5,36,91.5
1183,B-4,239.5,0.5,36,91.5
1184,B-4,240.0,3.5,35,91.5
1185,D5,240.0,229/500,45,91.5
1186,B-5,240.0,4.0,42,91.5
1187,A1,240.0,4.0,39,91.5
1188,E2,240.0,4.0,39,91.5
1189,F5,240.5,1.0,47,91.5
1190,E5,241.5,0.25,46,91.5
1191,F5,241.75,0.25,46,91.5
1192,D5,242.0,0.5,52,91.5
1193,E3,242.0,0.375,33,91.5
1194,C5,242.5,0.25,48,91.5
1195,E4,242.5,0.375,27,91.5
1196,D5,242.75,0.25,48,91.5
1197,B-4,243.0,1.0,54,91.5
1198,D5,243.5,0.5,52,91.5
1199,F#4,244.0,0.5,37,91.5
1200,B-4,244.0,0.5,44,91.5
1201,B-5,244.0,0.5,44,91.5
1202,D5,244.0,1.0,36,91.5
1203,E5,244.0,1.0,36,91.5
1204,G5,244.5,0.5,41,91.5
1205,G4,244.5,0.5,41,91.5
1206,E-4,245.0,0.5,37,91.5
1207,E5,245.0,1.0,33,91.5
1208,C5,245.0,1.0,33,91.5
1209,A5,245.0,0.5,41,91.5
1210,A4,245.0,0.5,41,91.5
1211,B-5,245.5,1.0,45,91.5
1212,B-4,245.5,1.0,45,91.5
1213,C4,246.0,0.5,37,91.5
1214,E5,246.0,1.0,44,91.5
1215,D5,246.0,1.0,44,91.5
1216,G5,246.5,0.5,42,91.5
1217,G4,246.5,0.5,42,91.5
1218,A3,247.0,0.5,35,91.5
1219,E5,247.0,1.0,35,91.5
1220,C5,247.0,1.0,35,91.5
1221,A5,247.0,0.5,42,91.5
1222,A4,247.0,0.5,42,91.5
1223,B-5,247.5,0.5,42,91.5
1224,B-4,247.5,0.5,42,91.5
1225,B-4,248.0,3.5,41,91.5
1226,D5,248.0,229/500,54,91.5
1227,B-5,248.0,4.0,49,91.5
1228,G1,248.0,1.0,28,91.5
1229,G2,248.0,1.0,28,91.5
1230,F5,248.5,1.0,58,91.5
1231,C2,249.0,1.0,28,91.5
1232,C3,249.0,1.0,28,91.5
1233,E5,249.5,0.25,57,91.5
1234,F5,249.75,0.25,57,91.5
1235,D5,250.0,0.5,63,91.5
1236,G2,250.0,1.0,34,91.5
1237,G3,250.0,1.0,34,91.5
1238,C5,250.5,0.25,59,91.5
1239,D5,250.75,0.25,59,91.5
1240,B-4,251.0,1.0,64,91.5
1241,C3,251.0,1.0,30,91.5
1242,C4,251.0,1.0,30,91.5
1243,D5,251.5,229/500,63,91.5
1244,B-4,252.0,4.0,45,91.5
1245,F5,252.0,229/500,58,91.5
1246,D5,252.0,3.5,53,91.5
1247,D4,252.0,229/500,45,91.5
1248,B-3,252.0,3.5,35,91.5
1249,G3,252.0,4.0,35,91.5
1250,A5,252.5,1.0,62,91.5
1251,F4,252.5,1.0,47,91.5
1252,G5,253.5,0.25,60,91.5
1253,E4,253.5,0.25,45,91.5
1254,A5,253.75,0.25,60,91.5
1255,F4,253.75,0.25,45,91.5
1256,F5,254.0,0.5,67,91.5
1257,D4,254.0,0.5,49,91.5
1258,E5,254.5,0.25,63,91.5
1259,C4,254.5,0.25,46,91.5
1260,F5,254.75,0.25,63,91.5
1261,D4,254.75,0.25,46,91.5
1262,D5,255.0,1.0,69,91.5
1263,B-3,255.0,1.0,52,91.5
1264,F5,255.5,0.5,67,91.5
1265,D4,255.5,0.5,49,91.5
1266,C6,256.0,133/1000,54,91.5
1267,G1,256.0,1.0,34,91.5
1268,G2,256.0,1.0,34,91.5
1269,D6,256.125,133/1000,48,91.5
1270,C6,256.25,133/1000,54,91.5
1271,D6,256.375,133/1000,49,91.5
1272,C6,256.5,133/1000,54,91.5
1273,D6,256.625,133/1000,49,91.5
1274,C6,256.75,133/1000,54,91.5
1275,D6,256.875,133/1000,49,91.5
1276,C6,257.0,0.125,54,91.5
1277,C2,257.0,1.0,34,91.5
1278,C3,257.0,1.0,34,91.5
1279,D6,257.125,133/1000,52,91.5
1280,C6,257.25,133/1000,47,91.5
1281,D6,257.375,133/1000,52,91.5
1282,C6,257.5,133/1000,48,91.5
1283,D6,257.625,133/1000,53,91.5
1284,C6,257.75,133/1000,49,91.5
1285,D6,257.875,133/1000,51,91.5
1286,C6,258.0,0.125,54,91.5
1287,G2,258.0,1.0,40,91.5
1288,G3,258.0,1.0,40,91.5
1289,D6,258.125,0.125,51,91.5
1290,C6,258.25,0.125,56,91.5
1291,D6,258.375,0.125,53,91.5
1292,C6,258.5,0.125,58,91.5
1293,D6,258.625,0.125,56,91.5
1294,C6,258.75,0.125,64,91.5
1295,D6,258.875,0.125,60,91.5
1296,C6,259.0,0.125,68,91.5
1297,C3,259.0,1.0,36,91.5
1298,C4,259.0,1.0,36,91.5
1299,D6,259.125,0.125,65,91.5
1300,C6,259.25,0.125,77,91.5
1301,D6,259.375,0.125,71,91.5
1302,C6,259.5,0.125,86,91.5
1303,D6,259.625,0.125,90,91.5
1304,E6,259.75,0.125,96,91.5
1305,F6,259.875,0.125,100,91.5
1306,G6,260.0,1.0,108,91.5
1307,D4,260.0,229/500,54,91.5
1308,B-3,260.0,3.5,41,91.5
1309,G3,260.0,4.0,41,91.5
1310,F4,260.5,1.0,58,91.5
1311,E4,261.5,0.25,54,91.5
1312,F4,261.75,0.25,54,91.5
1313,G5,262.0,2.0,83,91.5
1314,D4,262.0,0.5,60,91.5
1315,G4,262.0,2.0,70,91.5
1316,B-4,262.0,2.0,70,91.5
1317,D5,262.0,2.0,70,91.5
1318,C4,262.5,0.25,57,91.5
1319,D4,262.75,0.25,57,91.5
1320,B-3,263.0,1.0,63,91.5
1321,D4,263.5,229/500,60,91.5
1322,G5,264.0,0.25,83,91.5
1323,F4,264.0,229/500,58,91.5
1324,B-3,264.0,4.0,45,91.5
1325,D4,264.0,3.5,53,91.5
1326,G4,264.0,1.0,70,91.5
1327,B-4,264.0,1.0,70,91.5
1328,D5,264.0,1.0,70,91.5
1329,A5,264.25,0.25,53,91.5
1330,B-5,264.5,0.25,53,91.5
1331,A4,264.5,1.0,62,91.5
1332,A5,264.75,0.25,53,91.5
1333,G5,265.0,0.25,56,91.5
1334,A5,265.25,0.25,54,91.5
1335,G5,265.5,0.25,54,91.5
1336,G4,265.5,0.25,58,91.5
1337,F5,265.75,0.25,54,91.5
1338,A4,265.75,0.25,58,91.5
1339,D5,266.0,0.25,57,91.5
1340,F4,266.0,0.5,63,91.5
1341,F5,266.25,0.25,54,91.5
1342,D5,266.5,0.25,54,91.5
1343,E4,266.5,0.25,60,91.5
1344,C5,266.75,0.25,54,91.5
1345,F4,266.75,0.25,60,91.5
1346,B-4,267.0,0.25,58,91.5
1347,D4,267.0,1.0,67,91.5
1348,G4,267.25,0.25,54,91.5
1349,D4,267.5,0.25,53,91.5
1350,F4,267.5,0.5,63,91.5
1351,E4,267.75,0.25,53,91.5
1352,C#4,268.0,2.0,42,91.5
1353,G4,268.0,0.25,52,91.5
1354,C4,268.0,1.0,57,91.5
1355,D4,268.0,1.0,57,91.5
1356,G4,268.0,1.0,57,91.5
1357,F4,268.0,1.0,57,91.5
1358,B-4,268.0,1.0,57,91.5
1359,F4,268.25,0.25,48,91.5
1360,G4,268.5,0.25,48,91.5
1361,A4,268.75,0.25,47,91.5
1362,G4,269.0,1.25,47,91.5
1363,G3,269.0,1.0,62,91.5
1364,D4,270.0,2.0,44,91.5
1365,C4,270.0,1.0,80,91.5
1366,F4,270.25,0.25,48,91.5
1367,G4,270.5,0.25,49,91.5
1368,A4,270.75,0.25,52,91.5
1369,C5,271.0,0.25,53,91.5
1370,C3,271.0,1.0,77,91.5
1371,A4,271.25,0.25,53,91.5
1372,G4,271.5,0.25,53,91.5
1373,F4,271.75,0.25,53,91.5
1374,G4,272.0,0.25,54,91.5
1375,E-4,272.0,2.0,43,91.5
1376,F1,272.002,0.5,97,91.5
1377,F4,272.25,0.25,49,91.5
1378,G4,272.5,0.25,51,91.5
1379,F2,272.5,0.5,78,91.5
1380,A4,272.75,0.25,49,91.5
1381,G4,273.0,1.25,48,91.5
1382,C3,273.0,229/500,81,91.5
1383,C3,273.5,2.5,81,91.5
1384,D4,274.0,2.0,45,91.5
1385,D4,274.0,2.0,66,91.5
1386,B-3,274.0,2.0,66,91.5
1387,G3,274.0,2.0,66,91.5
1388,F4,274.25,0.25,49,91.5
1389,G4,274.5,0.25,51,91.5
1390,A4,274.75,0.25,52,91.5
1391,D5,275.0,0.25,56,91.5
1392,A4,275.25,0.25,54,91.5
1393,G4,275.5,0.25,54,91.5
1394,F4,275.75,0.25,54,91.5
1395,D4,276.0,1.0,49,91.5
1396,F4,276.0,0.25,54,91.5
1397,C3,276.0,1.0,81,91.5
1398,D4,276.0,1.0,66,91.5
1399,B-3,276.0,1.0,66,91.5
1400,G3,276.0,1.0,66,91.5
1401,B-4,276.25,0.25,52,91.5
1402,D5,276.5,0.25,54,91.5
1403,F5,276.75,0.25,57,91.5
1404,D5,277.0,1.0,40,91.5
1405,A5,277.0,1.5,60,91.5
1406,C5,278.0,2.0,44,91.5
1407,G5,278.5,0.5,54,91.5
1408,F5,279.0,0.5,52,91.5
1409,G5,279.5,0.5,54,91.5
1410,C5,280.0,1.5,44,91.5
1411,G5,280.0,0.25,54,91.5
1412,F2,280.0,2.0,39,91.5
1413,C#3,280.0,2.0,39,91.5
1414,A3,280.0,2.0,39,91.5
1415,F5,280.25,0.25,49,91.5
1416,E5,280.5,0.25,51,91.5
1417,G5,280.75,0.25,51,91.5
1418,F5,281.0,1.5,54,91.5
1419,B-4,281.5,0.25,49,91.5
1420,A4,281.75,0.25,49,91.5
1421,B-4,282.0,2.0,51,91.5
1422,F3,282.0,2.0,42,91.5
1423,B-2,282.0,2.0,42,91.5
1424,E5,282.5,0.5,46,91.5
1425,D5,283.0,0.5,45,91.5
1426,F4,283.0,0.5,45,91.5
1427,C5,283.5,0.5,43,91.5
1428,E4,283.5,0.5,43,91.5
1429,A3,284.0,4.0,45,91.5
1430,C3,284.0,2.0,40,91.5
1431,G5,286.0,2.0,83,91.5
1432,D3,286.0,2.0,40,91.5
1433,G4,286.0,2.0,70,91.5
1434,D5,286.0,2.0,70,91.5
1435,B-4,286.0,2.0,70,91.5
1436,G5,288.0,0.25,83,91.5
1437,G4,288.0,1.0,70,91.5
1438,D5,288.0,1.0,70,91.5
1439,B-4,288.0,1.0,70,91.5
1440,B-2,288.0,1.0,44,91.5
1441,F3,288.0,1.0,44,91.5
1442,B-3,288.0,1.0,44,91.5
1443,A5,288.25,0.25,53,91.5
1444,B-5,288.5,0.25,53,91.5
1445,A5,288.75,0.25,53,91.5
1446,G5,289.0,0.25,56,91.5
1447,B-3,289.0,3.0,39,91.5
1448,F4,289.0,1.0,47,91.5
1449,A5,289.25,0.25,54,91.5
1450,G5,289.5,0.25,54,91.5
1451,F5,289.75,0.25,54,91.5
1452,D5,290.0,0.25,57,91.5
1453,E4,290.0,1.0,47,91.5
1454,F5,290.25,0.25,54,91.5
1455,D5,290.5,0.25,54,91.5
1456,C5,290.75,0.25,54,91.5
1457,B-4,291.0,0.25,58,91.5
1458,D4,291.0,0.5,51,91.5
1459,G4,291.25,0.25,54,91.5
1460,D4,291.5,0.25,53,91.5
1461,E4,291.5,0.5,53,91.5
1462,E4,291.75,0.25,53,91.5
1463,D4,292.0,4.0,43,91.5
1464,G4,292.0,0.25,51,91.5
1465,A3,292.0,2.0,53,91.5
1466,E4,292.0,0.25,53,91.5
1467,F4,292.25,0.25,47,91.5
1468,F4,292.25,0.25,53,91.5
1469,G4,292.5,0.25,48,91.5
1470,G4,292.5,0.25,53,91.5
1471,A4,292.75,0.25,47,91.5
1472,A4,292.75,0.25,53,91.5
1473,G4,293.0,1.25,46,91.5
1474,D4,293.0,1.5,54,91.5
1475,G3,294.0,1.0,46,91.5
1476,F4,294.25,0.25,45,91.5
1477,G4,294.5,0.25,46,91.5
1478,E4,294.5,0.5,45,91.5
1479,A4,294.75,0.25,48,91.5
1480,C5,295.0,0.25,49,91.5
1481,C3,295.0,1.0,41,91.5
1482,A4,295.25,0.25,49,91.5
1483,G4,295.5,0.25,49,91.5
1484,F4,295.75,0.25,49,91.5
1485,G4,296.0,0.25,48,91.5
1486,D4,296.0,4.0,43,91.5
1487,F1,296.002,0.5,89,91.5
1488,F4,296.25,0.25,46,91.5
1489,G4,296.5,0.25,47,91.5
1490,F2,296.5,0.5,77,91.5
1491,A4,296.75,0.25,46,91.5
1492,G4,297.0,1.25,45,91.5
1493,C3,297.0,229/500,81,91.5
1494,C3,297.5,2.5,81,91.5
1495,D4,298.0,2.0,67,91.5
1496,B-3,298.0,2.0,67,91.5
1497,G3,298.0,2.0,67,91.5
1498,F4,298.25,0.25,46,91.5
1499,G4,298.5,0.25,47,91.5
1500,A4,298.75,0.25,48,91.5
1501,D5,299.0,0.25,52,91.5
1502,A4,299.25,0.25,51,91.5
1503,G4,299.5,0.25,51,91.5
1504,F4,299.75,0.25,51,91.5
1505,E5,300.0,0.25,51,91.5
1506,C3,300.0,1.0,81,91.5
1507,D4,300.0,1.0,67,91.5
1508,B-3,300.0,1.0,67,91.5
1509,G3,300.0,1.0,67,91.5
1510,B-4,300.25,0.25,49,91.5
1511,A4,300.5,0.25,49,91.5
1512,G4,300.75,229/1000,49,91.5
1513,F5,301.0,0.25,52,91.5
1514,C5,301.25,0.25,51,91.5
1515,B-4,301.5,0.25,51,91.5
1516,A4,301.75,229/1000,51,91.5
1517,G5,302.0,0.25,53,91.5
1518,D5,302.25,0.25,51,91.5
1519,C5,302.5,0.25,51,91.5
1520,B-4,302.75,229/1000,51,91.5
1521,A5,303.0,0.25,54,91.5
1522,E5,303.25,0.25,52,91.5
1523,D5,303.5,0.25,52,91.5
1524,C5,303.75,229/1000,52,91.5
1525,B-5,304.0,0.25,56,91.5
1526,D3,304.0,1.75,40,91.5
1527,A3,304.0,1.75,40,91.5
1528,F5,304.25,0.25,54,91.5
1529,E5,304.5,0.25,54,91.5
1530,D5,304.75,229/1000,54,91.5
1531,C6,305.0,0.25,58,91.5
1532,G5,305.25,0.25,56,91.5
1533,F5,305.5,0.25,56,91.5
1534,E5,305.75,229/1000,57,91.5
1535,G2,305.75,2.25,28,91.5
1536,D3,305.875,2.125,33,91.5
1537,D6,306.0,0.25,60,91.5
1538,B-3,306.0,2.0,38,91.5
1539,A5,306.25,0.25,58,91.5
1540,G5,306.5,0.25,59,91.5
1541,F5,306.75,229/1000,59,91.5
1542,E6,307.0,0.25,63,91.5
1543,B-5,307.25,0.25,60,91.5
1544,A5,307.5,0.25,60,91.5
1545,G5,307.75,229/1000,60,91.5
1546,G6,308.0,229/1000,87,91.5
1547,A3,308.0,1.75,38,91.5
1548,D3,308.0,1.75,38,91.5
1549,D6,308.25,229/1000,67,91.5
1550,C6,308.5,229/1000,67,91.5
1551,B-5,308.75,229/1000,67,91.5
1552,G2,309.75,2.25,32,91.5
1553,D3,309.875,2.125,35,91.5
1554,F5,310.0,229/1000,63,91.5
1555,B3,310.0,2.0,38,91.5
1556,G5,310.25,229/1000,65,91.5
1557,A5,310.5,229/1000,67,91.5
1558,B-5,310.75,229/1000,69,91.5
1559,C6,311.0,229/1000,72,91.5
1560,D6,311.25,229/1000,72,91.5
1561,E6,311.5,229/1000,75,91.5
1562,F6,311.75,229/1000,77,91.5
1563,G6,312.0,229/1000,87,91.5
1564,C2,312.0,4.0,47,91.5
1565,C3,312.0,4.0,47,91.5
1566,D6,312.25,229/1000,67,91.5
1567,C6,312.5,229/1000,67,91.5
1568,B-5,312.75,229/1000,67,91.5
1569,A3,313.0,0.5,42,91.5
1570,C4,313.0,0.5,42,91.5
1571,D4,313.5,229/500,35,91.5
1572,F4,313.5,229/500,35,91.5
1573,F5,314.0,229/1000,64,91.5
1574,B-3,314.0,0.5,44,91.5
1575,D4,314.0,0.5,44,91.5
1576,G5,314.25,229/1000,66,91.5
1577,A5,314.5,229/1000,69,91.5
1578,G4,314.5,229/500,35,91.5
1579,E4,314.5,229/500,35,91.5
1580,B-5,314.75,229/1000,72,91.5
1581,C6,315.0,229/1000,73,91.5
1582,C4,315.0,0.5,45,91.5
1583,E4,315.0,0.5,45,91.5
1584,D6,315.25,229/1000,76,91.5
1585,E6,315.5,229/1000,78,91.5
1586,F4,315.5,229/500,38,91.5
1587,A4,315.5,229/500,38,91.5
1588,F6,315.75,229/1000,80,91.5
1589,G6,316.0,229/1000,89,91.5
1590,D4,316.0,0.5,47,91.5
1591,F4,316.0,0.5,47,91.5
1592,D6,316.25,229/1000,72,91.5
1593,C6,316.5,229/1000,72,91.5
1594,G4,316.5,229/500,38,91.5
1595,B-4,316.5,229/500,38,91.5
1596,B-5,316.75,229/1000,72,91.5
1597,E4,317.0,0.5,49,91.5
1598,G4,317.0,0.5,49,91.5
1599,C5,317.5,229/500,40,91.5
1600,A4,317.5,229/500,40,91.5
1601,G5,318.0,229/1000,72,91.5
1602,A4,318.0,0.5,50,91.5
1603,F4,318.0,0.5,50,91.5
1604,A5,318.25,229/1000,73,91.5
1605,B-5,318.5,229/1000,76,91.5
1606,B-4,318.5,229/500,41,91.5
1607,D5,318.5,229/500,41,91.5
1608,C6,318.75,229/1000,78,91.5
1609,D6,319.0,229/1000,80,91.5
1610,B-4,319.0,0.5,52,91.5
1611,G4,319.0,0.5,52,91.5
1612,E6,319.25,229/1000,83,91.5
1613,F6,319.5,229/1000,85,91.5
1614,C5,319.5,271/1000,44,91.5
1615,E5,319.5,271/1000,44,91.5
1616,G6,319.75,229/1000,87,91.5
1617,B-3,319.812,0.188,40,91.5
1618,F4,319.875,0.125,52,91.5
1619,G4,319.938,0.062,54,91.5
1620,D5,320.0,1479/1000,58,91.5
1621,B-3,320.0,4.0,40,91.5
1622,F4,320.0,4.0,52,91.5
1623,G4,320.0,4.0,54,91.5
1624,F6,320.0,0.5,80,91.5
1625,A5,320.0,0.5,80,91.5
1626,A6,320.0,0.5,80,91.5
1627,G5,321.0,229/1000,60,91.5
1628,E-4,321.0,1.5,64,91.5
1629,G4,321.0,1.5,64,91.5
1630,D5,321.25,2.75,57,91.5
1631,C5,321.5,229/1000,57,91.5
1632,B-4,321.75,229/1000,57,91.5
1633,D4,322.5,0.25,58,91.5
1634,F4,322.5,0.25,58,91.5
1635,E-4,322.75,0.25,58,91.5
1636,G4,322.75,0.25,58,91.5
1637,D4,323.0,0.5,62,91.5
1638,F4,323.0,0.5,62,91.5
1639,C4,323.5,0.25,60,91.5
1640,E-4,323.5,0.25,60,91.5
1641,F4,323.75,0.25,60,91.5
1642,D4,323.75,0.25,60,91.5
1643,B-4,324.0,1979/1000,58,91.5
1644,E-4,324.0,229/500,64,91.5
1645,C4,324.0,229/500,64,91.5
1646,G3,324.0,4.0,52,91.5
1647,C4,324.0,4.0,52,91.5
1648,D4,324.0,4.0,52,91.5
1649,C4,324.5,1.5,79,91.5
1650,D4,325.0,0.5,79,91.5
1651,G5,325.0,229/1000,60,91.5
1652,D5,325.25,229/1000,57,91.5
1653,E-4,325.5,0.5,79,91.5
1654,C5,325.5,229/1000,57,91.5
1655,B-4,325.75,2.25,57,91.5
1656,G5,326.0,229/1000,72,91.5
1657,A5,326.25,229/1000,73,91.5
1658,B-5,326.5,229/1000,76,91.5
1659,C6,326.75,229/1000,78,91.5
1660,D6,327.0,229/1000,80,91.5
1661,E6,327.25,229/1000,83,91.5
1662,F6,327.5,229/1000,85,91.5
1663,G6,327.75,229/1000,87,91.5
1664,A6,328.0,0.5,84,91.5
1665,A5,328.0,0.5,84,91.5
1666,F6,328.0,0.5,84,91.5
1667,C3,328.0,4.0,58,91.5
1668,G3,328.0,4.0,58,91.5
1669,B-3,328.0,4.0,58,91.5
1670,E4,328.0,4.0,58,91.5
1671,G5,329.0,229/1000,64,91.5
1672,G4,329.0,1.5,64,91.5
1673,E-4,329.0,1.5,64,91.5
1674,D5,329.25,229/1000,59,91.5
1675,C5,329.5,229/1000,59,91.5
1676,B-4,329.75,229/1000,59,91.5
1677,F4,330.5,0.25,58,91.5
1678,D4,330.5,0.25,58,91.5
1679,G4,330.75,0.25,58,91.5
1680,E-4,330.75,0.25,58,91.5
1681,F4,331.0,0.5,62,91.5
1682,D4,331.0,0.5,62,91.5
1683,E-4,331.5,0.25,60,91.5
1684,C4,331.5,0.25,60,91.5
1685,F4,331.75,0.25,60,91.5
1686,D4,331.75,0.25,60,91.5
1687,E-4,332.0,229/500,70,91.5
1688,C4,332.0,229/500,70,91.5
1689,F1,332.0,0.5,74,91.5
1690,F2,332.0,0.5,74,91.5
1691,C4,332.5,1.5,79,91.5
1692,C3,332.5,3.5,81,91.5
1693,D4,333.0,0.5,79,91.5
1694,C4,333.0,2.5,64,91.5
1695,A3,333.0,2.5,64,91.5
1696,E-4,333.5,0.5,79,91.5
1697,G5,334.0,229/1000,75,91.5
1698,A5,334.25,229/1000,77,91.5
1699,B-5,334.5,229/1000,80,91.5
1700,C6,334.75,229/1000,83,91.5
1701,D6,335.0,229/1000,85,91.5
1702,E6,335.25,229/1000,88,91.5
1703,F6,335.5,229/1000,90,91.5
1704,F3,335.5,0.5,46,91.5
1705,A3,335.5,0.5,46,91.5
1706,G6,335.75,229/1000,94,91.5
1707,C3,336.0,1.812,81,91.5
1708,D6,336.0,0.5,92,91.5
1709,B-5,336.0,0.5,92,91.5
1710,B-6,336.0,0.5,92,91.5
1711,F3,336.0,237/125,46,91.5
1712,A3,336.0,237/125,46,91.5
1713,B-4,337.0,1.5,81,91.5
1714,F4,337.0,2.5,68,91.5
1715,C3,337.812,2.188,50,91.5
1716,G3,337.875,2.125,63,91.5
1717,B-3,337.938,2.062,56,91.5
1718,E4,338.0,1.0,72,91.5
1719,A4,338.5,0.25,76,91.5
1720,B-4,338.75,0.25,76,91.5
1721,A4,339.0,0.5,81,91.5
1722,D4,339.0,1.0,72,91.5
1723,D4,339.5,0.5,65,91.5
1724,G4,339.5,0.25,77,91.5
1725,A4,339.75,0.25,77,91.5
1726,G4,340.0,0.5,81,91.5
1727,D4,340.0,1.0,64,91.5
1728,F1,340.0,0.5,74,91.5
1729,F2,340.0,0.5,74,91.5
1730,F4,340.5,0.5,72,91.5
1731,C3,340.5,3.5,81,91.5
1732,G4,341.0,0.5,76,91.5
1733,C4,341.0,2.5,64,91.5
1734,A3,341.0,2.5,64,91.5
1735,A4,341.5,0.5,79,91.5
1736,B-4,342.0,0.5,83,91.5
1737,C5,342.5,0.5,86,91.5
1738,D5,343.0,0.5,90,91.5
1739,F5,343.5,0.5,94,91.5
1740,F3,343.5,0.5,47,91.5
1741,A3,343.5,0.5,47,91.5
1742,C6,344.0,4.0,94,91.5
1743,C3,344.0,2.0,81,91.5
1744,F5,344.0,2.0,80,91.5
1745,B-5,344.0,2.0,80,91.5
1746,F3,344.0,2.0,47,91.5
1747,A3,344.0,2.0,47,91.5
1748,C3,345.812,2.188,59,91.5
1749,G3,345.875,2.125,54,91.5
1750,B-3,345.938,2.062,67,91.5
1751,E4,346.0,1.0,72,91.5
1752,A5,346.0,1.0,87,91.5
1753,F5,346.0,1.0,87,91.5
1754,D4,347.0,1.0,72,91.5
1755,G5,347.0,167/1000,80,91.5
1756,D5,347.0,167/1000,80,91.5
1757,A5,347.167,167/1000,76,91.5
1758,G5,347.333,167/1000,76,91.5
1759,F5,347.5,167/1000,80,91.5
1760,D5,347.667,167/1000,76,91.5
1761,F5,347.833,167/1000,76,91.5
1762,C5,348.0,1.0,76,91.5
1763,C6,348.0,1.0,76,91.5
1764,A5,348.0,1.0,76,91.5
1765,F5,348.0,1.0,76,91.5
1766,B-1,348.0,0.5,74,91.5
1767,B-2,348.0,0.5,74,91.5
1768,F3,348.5,0.5,81,91.5
1769,B-3,349.0,1.5,57,91.5
1770,D4,349.0,2.5,68,91.5
1771,A3,350.5,0.25,65,91.5
1772,B-3,350.75,0.25,65,91.5
1773,A3,351.0,0.5,68,91.5
1774,G3,351.5,0.25,64,91.5
1775,B-3,351.5,0.5,54,91.5
1776,A3,351.75,0.25,64,91.5
1777,B-3,352.0,1.0,54,91.5
1778,G3,352.0,0.5,68,91.5
1779,F5,352.0,1.0,87,91.5
1780,F6,352.0,1.0,87,91.5
1781,C6,352.0,1.0,87,91.5
1782,A5,352.0,1.0,87,91.5
1783,F3,352.5,0.5,63,91.5
1784,G3,353.0,0.5,65,91.5
1785,A3,353.5,0.5,68,91.5
1786,B-3,354.0,0.5,71,91.5
1787,C4,354.5,0.5,73,91.5
1788,D4,355.0,0.5,76,91.5
1789,F4,355.5,0.5,80,91.5
1790,D4,356.0,2.0,66,91.5
1791,F4,356.0,2.0,66,91.5
1792,C5,356.0,2.0,66,91.5
1793,B-4,356.0,2.0,66,91.5
1794,C4,358.0,1.0,63,91.5
1795,F4,358.0,1.0,63,91.5
1796,A4,358.0,1.0,63,91.5
1797,C5,358.0,1.0,63,91.5
1798,B-3,359.0,1.0,58,91.5
1799,D4,359.0,1.0,58,91.5
1800,G4,359.0,1.0,58,91.5
1801,F4,359.0,1.0,58,91.5
1802,F3,360.0,1.0,66,91.5
1803,C4,360.0,1.0,66,91.5
1804,F4,360.0,1.0,66,91.5
1805,A4,360.0,1.0,66,91.5
1806,F1,364.0,1.0,61,91.5
1807,C2,364.0,1.0,61,91.5
1808,F2,364.0,1.0,61,91.5
