,note_name,start_time,duration,velocity,tempo
0,D3,0.0,0.062,48,72.1
1,A3,0.0,0.062,48,72.1
2,B3,0.25,0.062,45,72.1
3,F4,0.25,0.062,45,72.1
4,C4,0.5,0.062,48,72.1
5,F3,0.5,0.062,48,72.1
6,A4,0.75,0.062,45,72.1
7,D4,0.75,0.062,45,72.1
8,B3,1.0,26/125,48,72.1
9,D3,1.0,0.25,48,72.1
10,B3,1.25,0.125,44,72.1
11,C4,1.375,0.125,44,72.1
12,A4,1.5,0.25,45,72.1
13,F4,1.5,0.25,45,72.1
14,B3,1.5,0.25,45,72.1
15,A3,1.75,0.188,45,72.1
16,B3,2.0,0.094,48,72.1
17,D3,2.0,0.094,48,72.1
18,F4,2.5,0.188,43,72.1
19,A4,2.5,0.188,43,72.1
20,C4,2.5,0.188,43,72.1
21,B3,3.0,0.25,48,72.1
22,A2,3.0,0.5,48,72.1
23,C4,3.25,0.25,45,72.1
24,D4,3.5,0.125,48,72.1
25,C5,3.5,0.5,48,72.1
26,A4,3.5,0.5,48,72.1
27,E4,3.75,0.125,45,72.1
28,F#4,4.0,0.125,48,72.1
29,D2,4.0,0.5,45,72.1
30,F#4,4.25,83/1000,45,72.1
31,G4,4.333,83/1000,44,72.1
32,F#4,4.417,83/1000,44,72.1
33,E4,4.5,0.25,48,72.1
34,C5,4.5,0.5,42,72.1
35,A4,4.5,0.5,42,72.1
36,D4,4.75,0.25,45,72.1
37,C4,5.0,26/125,48,72.1
38,A2,5.0,0.5,48,72.1
39,D4,5.25,26/125,44,72.1
40,C5,5.5,229/500,44,72.1
41,A4,5.5,229/500,44,72.1
42,E4,5.5,229/500,44,72.1
43,E4,6.0,0.25,48,72.1
44,E2,6.0,0.5,48,72.1
45,F#4,6.25,0.25,45,72.1
46,G#4,6.5,0.125,45,72.1
47,B3,6.5,0.5,48,72.1
48,A4,6.75,0.125,45,72.1
49,F#4,7.0,26/125,48,72.1
50,E3,7.0,0.5,48,72.1
51,F#4,7.25,0.125,49,72.1
52,G#4,7.375,0.125,51,72.1
53,A3,7.5,0.5,51,72.1
54,F#4,7.5,0.25,52,72.1
55,D4,7.5,0.25,52,72.1
56,C4,7.75,0.188,46,72.1
57,E4,7.75,0.188,46,72.1
58,E2,8.0,0.25,48,72.1
59,F#4,8.0,0.25,52,72.1
60,D4,8.0,0.25,52,72.1
61,D4,8.5,0.25,57,72.1
62,F#4,8.5,0.25,57,72.1
63,A4,8.5,0.25,57,72.1
64,B3,9.0,0.75,54,72.1
65,E3,9.0,3.0,54,72.1
66,G#4,9.0,0.25,49,72.1
67,E4,9.0,0.25,49,72.1
68,F#4,9.25,0.25,46,72.1
69,A4,9.25,0.25,46,72.1
70,E4,9.5,177/250,49,72.1
71,G#4,9.5,177/250,49,72.1
72,C4,9.75,0.25,54,72.1
73,B3,10.0,0.75,51,72.1
74,F#4,10.25,0.25,48,72.1
75,A4,10.25,0.25,48,72.1
76,G#4,10.5,177/250,51,72.1
77,B4,10.5,177/250,51,72.1
78,C4,10.75,0.25,48,72.1
79,D4,11.0,0.75,51,72.1
80,A4,11.25,0.25,50,72.1
81,C5,11.25,0.25,50,72.1
82,E4,11.5,0.5,45,72.1
83,G#4,11.5,0.5,45,72.1
84,E4,11.75,0.25,48,72.1
85,E5,12.0,0.25,45,72.1
86,G5,12.0,0.25,45,72.1
87,A4,12.0,1.0,42,72.1
88,C4,12.0,1.0,42,72.1
89,F3,12.0,1.0,42,72.1
90,D5,12.25,0.125,43,72.1
91,F5,12.25,0.125,43,72.1
92,E5,12.375,0.125,43,72.1
93,G5,12.375,0.125,43,72.1
94,D5,12.5,0.25,45,72.1
95,F5,12.5,0.25,45,72.1
96,C5,12.75,0.25,42,72.1
97,E5,12.75,0.25,42,72.1
98,D5,13.0,0.25,45,72.1
99,B-4,13.0,0.25,45,72.1
100,F4,13.0,1.0,34,72.1
101,D4,13.0,1.0,34,72.1
102,G3,13.0,1.0,34,72.1
103,A4,13.25,0.25,43,72.1
104,C5,13.25,0.25,43,72.1
105,B-4,13.5,0.75,44,72.1
106,D5,13.5,0.75,44,72.1
107,C3,14.0,1.0,38,72.1
108,G3,14.0,1.0,38,72.1
109,E4,14.0,1.0,38,72.1
110,A4,14.25,0.125,42,72.1
111,C5,14.25,0.125,42,72.1
112,B-4,14.375,0.125,42,72.1
113,D5,14.375,0.125,42,72.1
114,C5,14.5,0.25,44,72.1
115,A4,14.5,0.25,44,72.1
116,B-4,14.75,0.25,42,72.1
117,G4,14.75,0.25,42,72.1
118,F4,15.0,0.25,44,72.1
119,A4,15.0,0.25,44,72.1
120,F3,15.0,0.5,36,72.1
121,A3,15.0,0.5,36,72.1
122,C4,15.0,0.5,36,72.1
123,E4,15.25,0.25,43,72.1
124,G4,15.25,0.25,43,72.1
125,F4,15.5,229/500,43,72.1
126,A4,15.5,229/500,43,72.1
127,D3,15.5,229/500,34,72.1
128,A3,15.5,229/500,34,72.1
129,D4,15.5,229/500,34,72.1
130,A4,16.0,1.0,48,72.1
131,E5,16.0,0.25,51,72.1
132,G5,16.0,0.25,51,72.1
133,F2,16.0,1.0,48,72.1
134,A3,16.0,1.0,48,72.1
135,C3,16.0,1.0,48,72.1
136,D5,16.25,0.125,49,72.1
137,F5,16.25,0.125,49,72.1
138,E5,16.375,0.125,49,72.1
139,G5,16.375,0.125,49,72.1
140,D5,16.5,0.25,51,72.1
141,F5,16.5,0.25,51,72.1
142,C5,16.75,0.25,48,72.1
143,E5,16.75,0.25,48,72.1
144,F4,17.0,1.0,39,72.1
145,B-4,17.0,0.25,51,72.1
146,D5,17.0,0.25,51,72.1
147,G2,17.0,1.0,39,72.1
148,B-3,17.0,1.0,39,72.1
149,D3,17.0,1.0,39,72.1
150,A4,17.25,0.25,49,72.1
151,C5,17.25,0.25,49,72.1
152,B-4,17.5,0.5,50,72.1
153,D5,17.5,0.5,50,72.1
154,E4,18.0,1.0,43,72.1
155,B-4,18.0,0.25,50,72.1
156,D5,18.0,0.25,50,72.1
157,C3,18.0,1.0,43,72.1
158,G3,18.0,1.0,43,72.1
159,C4,18.0,1.0,43,72.1
160,A4,18.25,0.125,46,72.1
161,C5,18.25,0.125,46,72.1
162,B-4,18.375,0.125,46,72.1
163,D5,18.375,0.125,46,72.1
164,C5,18.5,0.25,49,72.1
165,A4,18.5,0.25,49,72.1
166,B-4,18.75,0.25,45,72.1
167,G4,18.75,0.25,45,72.1
168,F4,19.0,0.25,46,72.1
169,A4,19.0,0.25,46,72.1
170,F3,19.0,0.75,38,72.1
171,C4,19.0,0.75,38,72.1
172,E4,19.25,0.25,45,72.1
173,G4,19.25,0.25,45,72.1
174,F4,19.5,1.25,49,72.1
175,A4,19.5,0.75,49,72.1
176,E3,19.75,0.25,43,72.1
177,D3,20.0,0.75,45,72.1
178,F3,20.0,1.0,45,72.1
179,G4,20.25,0.25,48,72.1
180,A4,20.5,0.5,49,72.1
181,E4,20.75,0.25,46,72.1
182,C3,20.75,0.25,45,72.1
183,D4,21.0,3.0,46,72.1
184,A4,21.0,0.25,49,72.1
185,F3,21.0,2.5,48,72.1
186,B2,21.0,0.75,48,72.1
187,G4,21.25,0.25,46,72.1
188,A4,21.5,0.75,49,72.1
189,A2,21.75,0.25,50,72.1
190,G2,22.0,0.75,54,72.1
191,B4,22.25,0.25,52,72.1
192,D5,22.5,0.25,56,72.1
193,B4,22.75,0.25,52,72.1
194,A2,22.75,0.25,57,72.1
195,A4,23.0,0.25,50,72.1
196,B2,23.0,1.0,62,72.1
197,B4,23.25,0.25,49,72.1
198,E4,23.5,0.25,50,72.1
199,G3,23.5,0.25,48,72.1
200,G4,23.75,0.25,49,72.1
201,E3,23.75,0.25,48,72.1
202,D4,24.0,3.0,52,72.1
203,A4,24.0,0.25,52,72.1
204,B2,24.0,0.75,52,72.1
205,F3,24.0,2.75,52,72.1
206,G4,24.25,0.25,49,72.1
207,A4,24.5,0.75,52,72.1
208,A2,24.75,0.25,49,72.1
209,G2,25.0,0.75,54,72.1
210,B4,25.25,0.25,54,72.1
211,D5,25.5,0.25,56,72.1
212,B4,25.75,0.25,52,72.1
213,A2,25.75,0.25,55,72.1
214,A4,26.0,0.25,55,72.1
215,B2,26.0,1.0,61,72.1
216,B4,26.25,0.25,50,72.1
217,A4,26.5,0.25,49,72.1
218,F4,26.75,0.25,48,72.1
219,G3,26.75,0.25,52,72.1
220,E4,27.0,2.344,39,72.1
221,C4,27.0,1.844,39,72.1
222,G#3,27.0,0.25,45,72.1
223,C3,27.0,3.0,45,72.1
224,F#3,27.25,0.25,43,72.1
225,E3,27.5,0.25,43,72.1
226,F#3,27.75,0.25,43,72.1
227,G#3,28.0,0.25,46,72.1
228,A3,28.25,0.094,44,72.1
229,B3,28.5,0.094,44,72.1
230,C4,28.75,1.25,44,72.1
231,D4,29.0,0.094,46,72.1
232,E4,29.25,0.75,42,72.1
233,F#4,29.5,0.094,42,72.1
234,G#4,29.75,0.094,42,72.1
235,D4,30.0,2.094,40,72.1
236,E4,30.0,2.344,40,72.1
237,B2,30.0,3.0,44,72.1
238,G#3,30.0,0.25,44,72.1
239,F#3,30.25,0.25,40,72.1
240,E3,30.5,0.25,40,72.1
241,F#3,30.75,0.25,40,72.1
242,G#3,31.0,0.25,44,72.1
243,A3,31.25,0.094,40,72.1
244,B3,31.5,0.094,40,72.1
245,C4,31.75,0.094,40,72.1
246,D4,32.0,1.0,44,72.1
247,E4,32.25,0.75,38,72.1
248,F#4,32.5,0.094,37,72.1
249,G#4,32.75,0.094,34,72.1
250,A3,33.0,0.062,44,72.1
251,D2,33.0,0.062,44,72.1
252,B3,33.25,0.062,42,72.1
253,F4,33.5,0.062,41,72.1
254,A4,33.5,0.062,41,72.1
255,C4,33.5,0.062,41,72.1
256,A2,33.5,0.062,39,72.1
257,F3,33.5,0.062,39,72.1
258,D4,33.75,0.062,42,72.1
259,B3,34.0,26/125,44,72.1
260,D2,34.0,0.25,44,72.1
261,B3,34.25,0.125,40,72.1
262,C4,34.375,0.125,40,72.1
263,A4,34.5,0.25,40,72.1
264,F4,34.5,0.25,40,72.1
265,B3,34.5,0.25,40,72.1
266,F3,34.5,0.062,39,72.1
267,A2,34.5,0.062,39,72.1
268,A3,34.75,0.188,42,72.1
269,B3,35.0,0.094,44,72.1
270,D2,35.0,0.094,44,72.1
271,F4,35.5,0.062,39,72.1
272,A4,35.5,0.062,39,72.1
273,C4,35.5,0.062,39,72.1
274,F3,35.5,0.062,44,72.1
275,A2,35.5,0.062,44,72.1
276,B3,36.0,0.25,44,72.1
277,D2,36.0,0.062,44,72.1
278,C4,36.25,0.25,42,72.1
279,D4,36.5,0.125,44,72.1
280,C5,36.5,0.5,39,72.1
281,A4,36.5,0.5,39,72.1
282,F#3,36.5,0.062,39,72.1
283,A2,36.5,0.062,39,72.1
284,E4,36.75,0.125,42,72.1
285,F#4,37.0,0.125,44,72.1
286,D2,37.0,0.25,44,72.1
287,F#4,37.25,83/1000,42,72.1
288,G4,37.333,83/1000,40,72.1
289,F#4,37.417,83/1000,40,72.1
290,E4,37.5,0.25,44,72.1
291,C5,37.5,0.5,38,72.1
292,A4,37.5,0.5,38,72.1
293,F#3,37.5,0.062,39,72.1
294,A2,37.5,0.062,39,72.1
295,D4,37.75,0.25,42,72.1
296,C4,38.0,26/125,44,72.1
297,D2,38.0,0.25,44,72.1
298,D4,38.25,26/125,40,72.1
299,E4,38.5,0.5,40,72.1
300,C5,38.5,0.5,40,72.1
301,A4,38.5,0.5,40,72.1
302,F#3,38.5,0.062,39,72.1
303,A2,38.5,0.062,39,72.1
304,A4,39.0,0.062,44,72.1
305,D2,39.0,0.062,44,72.1
306,B4,39.25,0.062,42,72.1
307,F4,39.5,0.062,41,72.1
308,D4,39.5,0.062,41,72.1
309,C5,39.5,0.062,41,72.1
310,A2,39.5,0.062,39,72.1
311,F3,39.5,0.062,39,72.1
312,D5,39.75,0.062,43,72.1
313,B4,40.0,26/125,45,72.1
314,D2,40.0,0.25,45,72.1
315,B4,40.25,0.125,43,72.1
316,C5,40.375,0.125,43,72.1
317,D4,40.5,0.25,43,72.1
318,F4,40.5,0.25,43,72.1
319,B4,40.5,0.25,43,72.1
320,F3,40.5,0.062,42,72.1
321,A2,40.5,0.062,42,72.1
322,A4,40.75,0.188,44,72.1
323,B4,41.0,0.094,48,72.1
324,D2,41.0,0.094,48,72.1
325,F4,41.5,0.062,43,72.1
326,D4,41.5,0.062,43,72.1
327,C5,41.5,0.062,43,72.1
328,F3,41.5,0.062,49,72.1
329,A2,41.5,0.062,49,72.1
330,B4,42.0,0.25,50,72.1
331,D2,42.0,0.062,50,72.1
332,C5,42.25,0.25,48,72.1
333,D5,42.5,0.125,52,72.1
334,D4,42.5,0.125,50,72.1
335,C5,42.5,0.5,44,72.1
336,A4,42.5,0.5,44,72.1
337,E5,42.75,0.125,50,72.1
338,E4,42.75,0.125,48,72.1
339,F#5,43.0,0.125,52,72.1
340,F#4,43.0,0.125,50,72.1
341,F#5,43.25,83/1000,48,72.1
342,F#4,43.25,83/1000,48,72.1
343,G5,43.333,83/1000,48,72.1
344,G4,43.333,83/1000,46,72.1
345,F#5,43.417,83/1000,48,72.1
346,F#4,43.417,83/1000,46,72.1
347,E5,43.5,0.25,52,72.1
348,E4,43.5,0.25,50,72.1
349,D5,43.75,0.25,50,72.1
350,D4,43.75,0.25,48,72.1
351,C5,44.0,0.25,52,72.1
352,C4,44.0,0.25,50,72.1
353,D5,44.25,0.25,48,72.1
354,D4,44.25,0.25,46,72.1
355,E5,44.5,0.5,48,72.1
356,E4,44.5,0.5,46,72.1
357,E5,45.0,0.5,48,72.1
358,E4,45.0,0.5,46,72.1
359,A4,45.0,0.25,48,72.1
360,C5,45.0,0.25,48,72.1
361,A3,45.0,0.25,48,72.1
362,C4,45.0,0.25,48,72.1
363,D5,45.25,0.25,48,72.1
364,D4,45.25,0.25,46,72.1
365,G4,45.5,229/500,43,72.1
366,B4,45.5,229/500,43,72.1
367,E5,45.5,229/500,43,72.1
368,G3,45.5,229/500,42,72.1
369,B3,45.5,229/500,42,72.1
370,E4,45.5,229/500,42,72.1
371,F#4,46.0,0.5,40,72.1
372,A4,46.0,0.25,46,72.1
373,F#3,46.0,0.5,40,72.1
374,A3,46.0,0.25,44,72.1
375,B4,46.25,0.25,45,72.1
376,B3,46.25,0.25,43,72.1
377,C5,46.5,479/500,46,72.1
378,C4,46.5,479/500,44,72.1
379,F4,46.5,0.5,39,72.1
380,G#4,46.5,0.5,39,72.1
381,F3,46.5,0.5,39,72.1
382,G#3,46.5,0.5,39,72.1
383,E4,47.0,0.5,38,72.1
384,G4,47.0,0.5,38,72.1
385,E3,47.0,0.5,39,72.1
386,G3,47.0,0.5,39,72.1
387,G#4,47.5,0.5,37,72.1
388,G#3,47.5,0.5,38,72.1
389,E-4,47.5,0.5,34,72.1
390,F#4,47.5,0.5,34,72.1
391,E-3,47.5,0.5,34,72.1
392,F#3,47.5,0.5,34,72.1
393,G#4,48.0,0.5,37,72.1
394,G#3,48.0,0.5,38,72.1
395,F4,48.0,0.5,31,72.1
396,D4,48.0,0.5,31,72.1
397,D3,48.0,0.5,33,72.1
398,F3,48.0,0.5,33,72.1
399,E4,48.5,2.5,32,72.1
400,C#4,48.5,0.5,32,72.1
401,E3,48.5,2.5,33,72.1
402,C#3,48.5,0.5,33,72.1
403,C4,49.0,0.188,32,72.1
404,C3,49.0,0.188,33,72.1
405,B3,49.5,0.188,31,72.1
406,B2,49.5,0.188,32,72.1
407,D4,50.0,0.188,31,72.1
408,B-3,50.0,0.188,31,72.1
409,B-2,50.0,0.188,31,72.1
410,D3,50.0,0.188,31,72.1
411,E2,50.5,0.188,37,72.1
412,A1,51.0,229/500,34,72.1
413,A3,51.5,0.094,44,72.1
414,C4,51.5,0.094,40,72.1
415,E4,51.5,0.094,40,72.1
416,A4,51.5,0.094,40,72.1
417,E3,51.75,0.094,38,72.1
418,B3,51.75,0.094,35,72.1
419,D4,51.75,0.094,35,72.1
420,E4,51.75,0.094,35,72.1
421,E3,52.0,71/1000,38,72.1
422,B3,52.0,71/1000,35,72.1
423,D4,52.0,71/1000,35,72.1
424,E4,52.0,71/1000,35,72.1
425,A3,52.25,0.094,38,72.1
426,C4,52.25,0.094,35,72.1
427,E4,52.25,0.094,35,72.1
428,A4,52.25,0.094,35,72.1
429,A3,52.5,0.094,44,72.1
430,C4,52.5,0.094,39,72.1
431,E4,52.5,0.094,39,72.1
432,A4,52.5,0.094,39,72.1
433,E3,52.75,0.094,44,72.1
434,E4,52.75,0.094,39,72.1
435,B3,52.75,0.094,39,72.1
436,D4,52.75,0.094,39,72.1
437,E3,53.0,71/1000,39,72.1
438,B3,53.0,71/1000,36,72.1
439,E4,53.0,71/1000,36,72.1
440,D4,53.0,71/1000,36,72.1
441,A2,53.25,0.094,42,72.1
442,C4,53.25,0.094,38,72.1
443,E4,53.25,0.094,38,72.1
444,A4,53.25,0.094,38,72.1
445,E2,53.5,71/1000,49,72.1
446,D4,53.5,71/1000,44,72.1
447,G4,53.5,71/1000,44,72.1
448,B4,53.5,71/1000,44,72.1
449,A1,54.0,479/1000,68,72.1
450,A5,54.0,479/1000,73,72.1
451,A4,54.0,479/1000,73,72.1
452,A3,54.5,0.094,44,72.1
453,C4,54.5,0.094,40,72.1
454,E4,54.5,0.094,40,72.1
455,A4,54.5,0.094,40,72.1
456,E3,54.75,0.094,38,72.1
457,B3,54.75,0.094,35,72.1
458,D4,54.75,0.094,35,72.1
459,E4,54.75,0.094,35,72.1
460,E3,55.0,71/1000,38,72.1
461,B3,55.0,71/1000,35,72.1
462,D4,55.0,71/1000,35,72.1
463,E4,55.0,71/1000,35,72.1
464,A3,55.25,0.094,38,72.1
465,C4,55.25,0.094,35,72.1
466,E4,55.25,0.094,35,72.1
467,A4,55.25,0.094,35,72.1
468,A3,55.5,0.094,44,72.1
469,E4,55.5,0.094,39,72.1
470,A4,55.5,0.094,39,72.1
471,C4,55.5,0.094,39,72.1
472,E3,55.75,0.094,44,72.1
473,D4,55.75,0.094,39,72.1
474,B3,55.75,0.094,39,72.1
475,E4,55.75,0.094,39,72.1
476,E3,56.0,71/1000,39,72.1
477,B3,56.0,71/1000,36,72.1
478,E4,56.0,71/1000,36,72.1
479,D4,56.0,71/1000,36,72.1
480,A2,56.25,0.094,46,72.1
481,C4,56.25,0.094,41,72.1
482,E4,56.25,0.094,41,72.1
483,A4,56.25,0.094,41,72.1
484,G2,56.5,71/1000,51,72.1
485,D4,56.5,71/1000,46,72.1
486,G4,56.5,71/1000,46,72.1
487,B4,56.5,71/1000,46,72.1
488,C2,57.0,479/1000,69,72.1
489,C6,57.0,479/1000,74,72.1
490,C5,57.0,479/1000,74,72.1
491,C4,57.5,0.094,49,72.1
492,E4,57.5,0.094,45,72.1
493,G4,57.5,0.094,45,72.1
494,C5,57.5,0.094,45,72.1
495,G3,57.75,0.094,42,72.1
496,D4,57.75,0.094,38,72.1
497,F4,57.75,0.094,38,72.1
498,G4,57.75,0.094,38,72.1
499,G3,58.0,71/1000,42,72.1
500,D4,58.0,71/1000,38,72.1
501,F4,58.0,71/1000,38,72.1
502,G4,58.0,71/1000,38,72.1
503,C4,58.25,0.094,42,72.1
504,C5,58.25,0.094,38,72.1
505,E4,58.25,0.094,38,72.1
506,G4,58.25,0.094,38,72.1
507,C4,58.5,0.094,49,72.1
508,E4,58.5,0.094,44,72.1
509,G4,58.5,0.094,44,72.1
510,C5,58.5,0.094,44,72.1
511,G3,58.75,0.094,49,72.1
512,D4,58.75,0.094,44,72.1
513,F4,58.75,0.094,44,72.1
514,G4,58.75,0.094,44,72.1
515,G3,59.0,71/1000,43,72.1
516,D4,59.0,71/1000,39,72.1
517,G4,59.0,71/1000,39,72.1
518,F4,59.0,71/1000,39,72.1
519,C3,59.25,0.094,51,72.1
520,E4,59.25,0.094,46,72.1
521,G4,59.25,0.094,46,72.1
522,C5,59.25,0.094,46,72.1
523,G2,59.5,71/1000,56,72.1
524,F4,59.5,71/1000,50,72.1
525,B-4,59.5,71/1000,50,72.1
526,D5,59.5,71/1000,50,72.1
527,C2,60.0,479/1000,75,72.1
528,C6,60.0,479/1000,82,72.1
529,C5,60.0,479/1000,82,72.1
530,C4,60.5,0.094,56,72.1
531,E4,60.5,0.094,51,72.1
532,G4,60.5,0.094,51,72.1
533,C5,60.5,0.094,51,72.1
534,G3,60.75,0.094,48,72.1
535,D4,60.75,0.094,44,72.1
536,F4,60.75,0.094,44,72.1
537,G4,60.75,0.094,44,72.1
538,G3,61.0,71/1000,48,72.1
539,G4,61.0,71/1000,44,72.1
540,F4,61.0,71/1000,44,72.1
541,D4,61.0,71/1000,44,72.1
542,C4,61.25,0.094,48,72.1
543,E4,61.25,0.094,44,72.1
544,G4,61.25,0.094,44,72.1
545,C5,61.25,0.094,44,72.1
546,C4,61.5,0.094,56,72.1
547,E4,61.5,0.094,50,72.1
548,G4,61.5,0.094,50,72.1
549,C5,61.5,0.094,50,72.1
550,G3,61.75,0.094,56,72.1
551,D4,61.75,0.094,50,72.1
552,F4,61.75,0.094,50,72.1
553,G4,61.75,0.094,50,72.1
554,G3,62.0,71/1000,49,72.1
555,D4,62.0,71/1000,45,72.1
556,G4,62.0,71/1000,45,72.1
557,F4,62.0,71/1000,45,72.1
558,C4,62.25,0.094,58,72.1
559,E4,62.25,0.094,52,72.1
560,G4,62.25,0.094,52,72.1
561,C5,62.25,0.094,52,72.1
562,B-3,62.5,0.5,65,72.1
563,F4,62.5,0.5,58,72.1
564,B-4,62.5,0.5,58,72.1
565,D5,62.5,0.5,58,72.1
566,E-5,63.0,0.25,62,72.1
567,B-4,63.0,3.0,57,72.1
568,G4,63.0,0.75,57,72.1
569,E-4,63.0,0.75,57,72.1
570,D5,63.25,0.25,60,72.1
571,E-5,63.5,0.75,63,72.1
572,B-3,63.75,0.25,52,72.1
573,F4,63.75,0.25,52,72.1
574,E-4,64.0,0.75,57,72.1
575,G4,64.0,0.75,57,72.1
576,D5,64.25,0.25,60,72.1
577,E-5,64.5,0.75,63,72.1
578,F4,64.75,0.25,52,72.1
579,A4,64.75,0.25,52,72.1
580,E-4,65.0,0.75,58,72.1
581,G4,65.0,0.75,58,72.1
582,D5,65.25,0.25,61,72.1
583,E-5,65.5,0.5,64,72.1
584,F4,65.75,0.25,54,72.1
585,B-3,65.75,0.25,54,72.1
586,E-5,66.0,0.25,64,72.1
587,A3,66.0,1.0,57,72.1
588,G4,66.0,1.0,57,72.1
589,D5,66.25,0.25,60,72.1
590,E-5,66.5,0.25,60,72.1
591,G5,66.75,0.25,62,72.1
592,G4,67.0,0.25,48,72.1
593,D5,67.0,979/500,62,72.1
594,D3,67.0,979/500,52,72.1
595,A3,67.0,979/500,52,72.1
596,A4,67.25,0.25,52,72.1
597,G4,67.5,0.25,51,72.1
598,E4,67.75,0.25,46,72.1
599,G4,68.0,0.25,48,72.1
600,A4,68.25,0.25,45,72.1
601,G4,68.5,0.25,44,72.1
602,E4,68.75,26/125,38,72.1
603,D5,69.0,0.25,55,72.1
604,A4,69.0,3.0,50,72.1
605,F4,69.0,0.75,51,72.1
606,D4,69.0,0.75,51,72.1
607,C5,69.25,0.25,54,72.1
608,D5,69.5,0.75,56,72.1
609,A3,69.75,0.25,46,72.1
610,E4,69.75,0.25,46,72.1
611,D4,70.0,0.75,51,72.1
612,F4,70.0,0.75,51,72.1
613,C5,70.25,0.25,54,72.1
614,D5,70.5,0.75,56,72.1
615,E4,70.75,0.25,46,72.1
616,G4,70.75,0.25,46,72.1
617,D4,71.0,0.75,52,72.1
618,F4,71.0,0.75,52,72.1
619,C5,71.25,0.25,54,72.1
620,D5,71.5,0.5,57,72.1
621,E4,71.75,0.25,48,72.1
622,A3,71.75,0.25,48,72.1
623,B-4,72.0,1.0,51,72.1
624,D5,72.0,0.25,57,72.1
625,G3,72.0,1.0,51,72.1
626,F4,72.0,1.0,51,72.1
627,C5,72.25,0.25,55,72.1
628,D5,72.5,0.25,55,72.1
629,F5,72.75,0.25,57,72.1
630,F4,73.0,0.25,43,72.1
631,B-4,73.0,2.0,55,72.1
632,C3,73.0,2.0,46,72.1
633,G3,73.0,2.0,46,72.1
634,E-4,73.25,0.25,46,72.1
635,D4,73.5,0.25,45,72.1
636,E-4,73.75,0.25,44,72.1
637,F4,74.0,0.25,43,72.1
638,E-4,74.25,0.25,40,72.1
639,D4,74.5,0.25,39,72.1
640,E-4,74.75,0.25,38,72.1
641,E-4,75.0,0.25,38,72.1
642,B-4,75.0,1.0,55,72.1
643,F2,75.0,3.0,46,72.1
644,G3,75.0,1.0,46,72.1
645,D4,75.25,0.25,46,72.1
646,C4,75.5,0.25,46,72.1
647,E-4,75.75,0.5,46,72.1
648,A4,76.0,521/500,55,72.1
649,F3,76.0,521/500,38,72.1
650,D4,76.25,0.25,34,72.1
651,C4,76.5,0.25,34,72.1
652,E-4,76.75,0.25,34,72.1
653,C4,77.0,0.25,38,72.1
654,G4,77.0,1.0,54,72.1
655,E-3,77.0,1.0,38,72.1
656,B-3,77.25,0.25,36,72.1
657,A3,77.5,0.25,36,72.1
658,C4,77.75,0.25,36,72.1
659,F4,78.0,1.5,54,72.1
660,C4,78.0,0.25,36,72.1
661,G4,78.0,21/500,54,72.1
662,D3,78.0,1.5,38,72.1
663,F2,78.0,3.0,46,72.1
664,E-3,78.0,21/500,38,72.1
665,B-3,78.25,0.25,34,72.1
666,A3,78.5,0.25,34,72.1
667,C4,78.75,0.25,34,72.1
668,B-3,79.0,0.25,34,72.1
669,D4,79.25,0.25,34,72.1
670,F4,79.5,0.25,38,72.1
671,G4,79.5,271/500,52,72.1
672,F3,79.5,271/500,39,72.1
673,D4,79.75,0.25,36,72.1
674,G4,80.0,0.25,39,72.1
675,B-4,80.0,271/500,57,72.1
676,G3,80.0,271/500,40,72.1
677,F4,80.25,0.25,36,72.1
678,B-4,80.5,0.25,40,72.1
679,D5,80.5,0.5,55,72.1
680,B-3,80.5,0.5,38,72.1
681,G4,80.75,0.25,37,72.1
682,E-4,81.0,0.25,30,72.1
683,B-4,81.0,521/500,55,72.1
684,F2,81.0,3.0,46,72.1
685,D4,81.25,0.25,37,72.1
686,C4,81.5,0.25,37,72.1
687,E-4,81.75,0.5,37,72.1
688,A4,82.0,521/500,55,72.1
689,F3,82.0,521/500,38,72.1
690,D4,82.25,0.25,34,72.1
691,C4,82.5,0.25,34,72.1
692,E-4,82.75,0.25,34,72.1
693,C4,83.0,0.25,38,72.1
694,G4,83.0,1.0,54,72.1
695,E-3,83.0,1.0,38,72.1
696,B-3,83.25,0.25,36,72.1
697,A3,83.5,0.25,36,72.1
698,C4,83.75,0.25,36,72.1
699,F4,84.0,1.5,54,72.1
700,C4,84.0,0.25,36,72.1
701,G4,84.0,21/500,54,72.1
702,D3,84.0,1.5,38,72.1
703,F2,84.0,3.0,46,72.1
704,E-3,84.0,21/500,38,72.1
705,B-3,84.25,0.25,34,72.1
706,A3,84.5,0.25,34,72.1
707,C4,84.75,0.25,34,72.1
708,B-3,85.0,0.25,34,72.1
709,D4,85.25,0.25,34,72.1
710,F4,85.5,0.25,38,72.1
711,G4,85.5,271/500,54,72.1
712,F3,85.5,271/500,39,72.1
713,D4,85.75,0.25,36,72.1
714,G4,86.0,0.25,39,72.1
715,B-4,86.0,271/500,57,72.1
716,G3,86.0,271/500,40,72.1
717,F4,86.25,0.25,36,72.1
718,D5,86.5,0.5,55,72.1
719,B-4,86.5,0.25,40,72.1
720,B-3,86.5,0.5,39,72.1
721,G4,86.75,0.25,37,72.1
722,B-4,87.0,0.25,42,72.1
723,E5,87.0,271/500,58,72.1
724,D5,87.0,21/500,55,72.1
725,G2,87.0,1.5,50,72.1
726,G4,87.25,0.25,37,72.1
727,C5,87.5,0.25,39,72.1
728,F5,87.5,0.5,54,72.1
729,A3,87.5,0.5,39,72.1
730,C4,87.5,0.5,39,72.1
731,F4,87.5,0.5,39,72.1
732,A4,87.75,0.25,37,72.1
733,B-4,88.0,0.25,39,72.1
734,D5,88.0,1.0,55,72.1
735,B-3,88.0,1.0,39,72.1
736,D4,88.0,1.0,39,72.1
737,G3,88.0,1.0,39,72.1
738,G4,88.25,0.25,37,72.1
739,B-4,88.5,0.25,39,72.1
740,F2,88.5,0.5,48,72.1
741,G4,88.75,0.25,37,72.1
742,B-4,89.0,0.25,42,72.1
743,C5,89.0,271/500,55,72.1
744,E2,89.0,0.5,50,72.1
745,G4,89.25,0.25,37,72.1
746,B-4,89.5,0.25,42,72.1
747,D5,89.5,0.5,55,72.1
748,D2,89.5,0.5,52,72.1
749,G4,89.75,0.25,37,72.1
750,G5,90.0,0.5,63,72.1
751,D5,90.0,0.25,45,72.1
752,D5,90.0,21/500,55,72.1
753,C2,90.0,3.0,57,72.1
754,B-4,90.25,0.25,40,72.1
755,E5,90.5,0.25,44,72.1
756,A5,90.5,0.5,57,72.1
757,A4,90.5,0.5,40,72.1
758,E4,90.5,0.5,40,72.1
759,C4,90.5,0.5,40,72.1
760,C5,90.75,0.25,40,72.1
761,E5,91.0,0.25,46,72.1
762,A5,91.0,0.5,63,72.1
763,C4,91.0,0.5,44,72.1
764,E4,91.0,0.5,44,72.1
765,A4,91.0,0.5,44,72.1
766,C5,91.25,0.25,40,72.1
767,C5,91.5,0.25,44,72.1
768,E5,91.5,0.5,57,72.1
769,E4,91.5,0.5,40,72.1
770,A3,91.5,0.5,40,72.1
771,C4,91.5,0.5,40,72.1
772,A4,91.75,0.25,38,72.1
773,C5,92.0,0.25,44,72.1
774,E5,92.0,1.0,57,72.1
775,A3,92.0,1.0,40,72.1
776,C4,92.0,1.0,40,72.1
777,E4,92.0,1.0,40,72.1
778,A4,92.25,0.25,36,72.1
779,C5,92.5,0.25,44,72.1
780,A4,92.75,0.25,36,72.1
781,B-4,93.0,0.25,44,72.1
782,E5,93.0,271/500,61,72.1
783,G2,93.0,1.5,52,72.1
784,G4,93.25,0.25,38,72.1
785,C5,93.5,0.25,40,72.1
786,F5,93.5,0.5,56,72.1
787,A3,93.5,0.5,40,72.1
788,C4,93.5,0.5,40,72.1
789,F4,93.5,0.5,40,72.1
790,A4,93.75,0.25,38,72.1
791,B-4,94.0,0.25,40,72.1
792,D5,94.0,1.0,57,72.1
793,B-3,94.0,1.0,40,72.1
794,D4,94.0,1.0,40,72.1
795,G3,94.0,1.0,40,72.1
796,G4,94.25,0.25,38,72.1
797,B-4,94.5,0.25,40,72.1
798,F2,94.5,0.5,50,72.1
799,G4,94.75,0.25,38,72.1
800,B-4,95.0,0.25,44,72.1
801,C5,95.0,271/500,57,72.1
802,E2,95.0,0.5,52,72.1
803,G4,95.25,0.25,38,72.1
804,B-4,95.5,0.25,44,72.1
805,D5,95.5,0.5,57,72.1
806,D2,95.5,0.5,55,72.1
807,G4,95.75,0.25,38,72.1
808,D5,96.0,0.25,48,72.1
809,G5,96.0,0.5,67,72.1
810,D5,96.0,21/500,57,72.1
811,C2,96.0,3.0,60,72.1
812,B-4,96.25,0.25,43,72.1
813,E5,96.5,0.25,46,72.1
814,A5,96.5,0.5,60,72.1
815,A4,96.5,0.5,43,72.1
816,E4,96.5,0.5,43,72.1
817,C4,96.5,0.5,43,72.1
818,C5,96.75,0.25,43,72.1
819,E5,97.0,0.25,49,72.1
820,A5,97.0,0.5,67,72.1
821,C4,97.0,0.5,46,72.1
822,E4,97.0,0.5,46,72.1
823,A4,97.0,0.5,46,72.1
824,C5,97.25,0.25,43,72.1
825,C5,97.5,0.25,46,72.1
826,E5,97.5,0.5,60,72.1
827,E4,97.5,0.5,43,72.1
828,A3,97.5,0.5,43,72.1
829,C4,97.5,0.5,43,72.1
830,A4,97.75,0.25,39,72.1
831,C5,98.0,0.25,46,72.1
832,E5,98.0,0.5,60,72.1
833,A3,98.0,0.5,45,72.1
834,C4,98.0,0.5,45,72.1
835,E4,98.0,0.5,45,72.1
836,A4,98.25,0.25,37,72.1
837,B-5,98.5,0.5,70,72.1
838,F5,98.5,0.25,52,72.1
839,B-4,98.5,0.5,48,72.1
840,D4,98.5,0.5,48,72.1
841,F4,98.5,0.5,48,72.1
842,D5,98.75,0.25,44,72.1
843,F5,99.0,0.25,58,72.1
844,B-5,99.0,0.5,76,72.1
845,C2,99.0,3.0,60,72.1
846,D4,99.0,0.5,52,72.1
847,F4,99.0,0.5,52,72.1
848,B-4,99.0,0.5,52,72.1
849,D5,99.25,0.25,40,72.1
850,G5,99.5,0.25,58,72.1
851,C6,99.5,0.5,70,72.1
852,E4,99.5,0.5,48,72.1
853,G4,99.5,0.5,48,72.1
854,C5,99.5,0.5,48,72.1
855,E5,99.75,0.25,40,72.1
856,G5,100.0,0.25,58,72.1
857,C6,100.0,0.5,78,72.1
858,E4,100.0,0.5,52,72.1
859,G4,100.0,0.5,52,72.1
860,C5,100.0,0.5,52,72.1
861,E5,100.25,0.25,40,72.1
862,E5,100.5,0.25,58,72.1
863,A5,100.5,0.5,70,72.1
864,C4,100.5,0.5,48,72.1
865,E4,100.5,0.5,48,72.1
866,A4,100.5,0.5,48,72.1
867,C5,100.75,0.25,40,72.1
868,E5,101.0,0.25,58,72.1
869,A5,101.0,0.5,76,72.1
870,C4,101.0,0.5,52,72.1
871,E4,101.0,0.5,52,72.1
872,A4,101.0,0.5,52,72.1
873,C5,101.25,0.25,40,72.1
874,A5,101.5,0.25,58,72.1
875,C6,101.5,0.5,79,72.1
876,E4,101.5,0.5,56,72.1
877,A4,101.5,0.5,56,72.1
878,C5,101.5,0.5,56,72.1
879,E5,101.75,0.25,40,72.1
880,B-5,102.0,0.25,78,72.1
881,D6,102.0,0.5,78,72.1
882,B-1,102.0,3.0,66,72.1
883,F2,102.0,3.0,66,72.1
884,E5,102.25,0.25,44,72.1
885,B-5,102.5,0.25,76,72.1
886,D6,102.5,0.5,76,72.1
887,F4,102.5,0.5,71,72.1
888,F5,102.75,0.25,44,72.1
889,D4,103.0,1.0,74,72.1
890,B-5,103.0,0.25,66,72.1
891,D6,103.0,0.25,66,72.1
892,G3,103.0,2.0,44,72.1
893,B-3,103.0,2.0,44,72.1
894,D5,103.25,0.25,51,72.1
895,B-5,103.5,0.25,65,72.1
896,D6,103.5,0.25,65,72.1
897,D5,103.75,0.25,51,72.1
898,C4,104.0,0.5,68,72.1
899,B-5,104.0,0.25,63,72.1
900,D6,104.0,0.25,63,72.1
901,C5,104.25,0.25,50,72.1
902,D4,104.5,0.5,63,72.1
903,B-5,104.5,0.25,60,72.1
904,D6,104.5,0.25,60,72.1
905,D5,104.75,0.25,52,72.1
906,G4,105.0,0.5,67,72.1
907,B-5,105.0,0.25,60,72.1
908,D6,105.0,0.25,60,72.1
909,B-3,105.0,3.0,44,72.1
910,D4,105.0,3.0,44,72.1
911,G5,105.25,0.25,53,72.1
912,A4,105.5,0.5,58,72.1
913,B-5,105.5,0.25,60,72.1
914,D6,105.5,0.25,60,72.1
915,A5,105.75,0.25,52,72.1
916,A4,106.0,0.5,60,72.1
917,B-5,106.0,0.25,59,72.1
918,D6,106.0,0.25,59,72.1
919,A5,106.25,0.25,45,72.1
920,E4,106.5,0.5,58,72.1
921,B-5,106.5,0.25,57,72.1
922,D6,106.5,0.25,57,72.1
923,E5,106.75,0.25,43,72.1
924,E4,107.0,1.0,57,72.1
925,B-5,107.0,0.25,49,72.1
926,D6,107.0,0.25,49,72.1
927,E5,107.25,0.25,39,72.1
928,B-5,107.5,0.25,47,72.1
929,D6,107.5,0.25,47,72.1
930,E5,107.75,0.25,38,72.1
931,B-5,108.0,0.25,50,72.1
932,D6,108.0,0.5,69,72.1
933,B-1,108.0,3.0,52,72.1
934,F2,108.0,3.0,52,72.1
935,E5,108.25,0.25,34,72.1
936,B-5,108.5,0.25,49,72.1
937,D6,108.5,0.5,67,72.1
938,F4,108.5,0.5,49,72.1
939,F5,108.75,0.25,34,72.1
940,D4,109.0,1.0,49,72.1
941,B-5,109.0,0.25,58,72.1
942,D6,109.0,0.25,58,72.1
943,F3,109.0,2.0,29,72.1
944,B-3,109.0,2.0,29,72.1
945,D5,109.25,0.25,37,72.1
946,B-5,109.5,0.25,57,72.1
947,D6,109.5,0.25,57,72.1
948,D5,109.75,0.25,37,72.1
949,C4,110.0,0.5,47,72.1
950,B-5,110.0,0.25,51,72.1
951,D6,110.0,0.25,51,72.1
952,C5,110.25,0.25,35,72.1
953,D4,110.5,229/500,44,72.1
954,B-5,110.5,0.25,48,72.1
955,D6,110.5,0.25,48,72.1
956,D5,110.75,26/125,33,72.1
957,B5,111.0,0.25,44,72.1
958,E6,111.0,0.25,44,72.1
959,E1,111.0,1.0,40,72.1
960,E2,111.0,1.0,40,72.1
961,E5,111.25,0.25,38,72.1
962,B4,111.5,0.25,38,72.1
963,E5,111.5,0.25,38,72.1
964,E4,111.75,0.25,38,72.1
965,E5,112.0,0.25,45,72.1
966,A4,112.0,0.25,45,72.1
967,F1,112.0,1.0,42,72.1
968,F2,112.0,1.0,42,72.1
969,E4,112.25,0.25,42,72.1
970,A3,112.5,0.25,45,72.1
971,E4,112.5,0.25,45,72.1
972,E3,112.75,0.25,42,72.1
973,B3,113.0,0.25,47,72.1
974,E4,113.0,0.25,47,72.1
975,G1,113.0,1.0,45,72.1
976,G2,113.0,1.0,45,72.1
977,E3,113.25,0.25,45,72.1
978,B3,113.5,0.25,48,72.1
979,E4,113.5,0.25,48,72.1
980,E3,113.75,0.25,46,72.1
981,C4,114.0,0.25,50,72.1
982,E4,114.0,0.25,50,72.1
983,A1,114.0,1.0,47,72.1
984,A2,114.0,1.0,47,72.1
985,E3,114.25,0.25,47,72.1
986,C4,114.5,0.25,50,72.1
987,E4,114.5,0.25,50,72.1
988,E3,114.75,0.25,48,72.1
989,E4,115.0,0.25,49,72.1
990,D4,115.0,0.25,49,72.1
991,B1,115.0,0.5,42,72.1
992,B2,115.0,0.5,42,72.1
993,E3,115.25,0.25,47,72.1
994,C4,115.5,0.25,49,72.1
995,E4,115.5,0.25,49,72.1
996,A1,115.5,0.5,42,72.1
997,A2,115.5,0.5,42,72.1
998,E3,115.75,0.25,47,72.1
999,F4,116.0,0.5,41,72.1
1000,B3,116.0,1.0,41,72.1
1001,D4,116.0,1.0,41,72.1
1002,G1,116.0,0.5,40,72.1
1003,G2,116.0,0.5,40,72.1
1004,A4,116.5,0.5,39,72.1
1005,F1,116.5,0.5,39,72.1
1006,F2,116.5,0.5,39,72.1
1007,B5,117.0,0.25,44,72.1
1008,E6,117.0,0.25,44,72.1
1009,E1,117.0,1.0,40,72.1
1010,E2,117.0,1.0,40,72.1
1011,E5,117.25,0.25,38,72.1
1012,B4,117.5,0.25,38,72.1
1013,E5,117.5,0.25,38,72.1
1014,E4,117.75,0.25,38,72.1
1015,A4,118.0,0.25,45,72.1
1016,E5,118.0,0.25,45,72.1
1017,F1,118.0,1.0,42,72.1
1018,F2,118.0,1.0,42,72.1
1019,E4,118.25,0.25,42,72.1
1020,E4,118.5,0.25,45,72.1
1021,A3,118.5,0.25,45,72.1
1022,E3,118.75,0.25,42,72.1
1023,B3,119.0,0.25,46,72.1
1024,E4,119.0,0.25,46,72.1
1025,G1,119.0,1.0,42,72.1
1026,G2,119.0,1.0,42,72.1
1027,E3,119.25,0.25,43,72.1
1028,B3,119.5,0.25,46,72.1
1029,E4,119.5,0.25,46,72.1
1030,E3,119.75,0.25,43,72.1
1031,C4,120.0,0.25,45,72.1
1032,E4,120.0,0.25,45,72.1
1033,A1,120.0,1.0,36,72.1
1034,A2,120.0,1.0,36,72.1
1035,E3,120.25,0.25,41,72.1
1036,C4,120.5,0.25,44,72.1
1037,E4,120.5,0.25,44,72.1
1038,E3,120.75,0.25,41,72.1
1039,D4,121.0,0.25,41,72.1
1040,E4,121.0,0.25,41,72.1
1041,B2,121.0,1.0,32,72.1
1042,B1,121.0,1.0,32,72.1
1043,E3,121.25,0.25,39,72.1
1044,E4,121.5,0.25,40,72.1
1045,D4,121.5,0.25,40,72.1
1046,E3,121.75,0.25,38,72.1
1047,E4,122.0,0.25,39,72.1
1048,C2,122.0,1.0,29,72.1
1049,C3,122.0,1.0,29,72.1
1050,E3,122.25,0.25,34,72.1
1051,E4,122.5,0.25,36,72.1
1052,E3,122.75,0.25,32,72.1
1053,D2,122.875,0.125,29,72.1
1054,A2,122.938,0.062,33,72.1
1055,F#3,123.0,0.062,37,72.1
1056,D2,123.0,0.062,29,72.1
1057,A2,123.0,0.062,33,72.1
1058,A4,123.0,0.062,39,72.1
1059,C4,123.0,0.062,39,72.1
1060,E4,123.0,0.062,39,72.1
1061,B4,123.25,0.062,42,72.1
1062,C5,123.5,0.062,44,72.1
1063,D5,123.75,0.062,43,72.1
1064,B4,124.0,26/125,44,72.1
1065,B4,124.25,0.125,39,72.1
1066,C5,124.375,0.125,39,72.1
1067,B4,124.5,0.25,44,72.1
1068,A4,124.75,0.188,44,72.1
1069,D2,124.875,0.375,27,72.1
1070,A2,124.938,0.312,32,72.1
1071,B4,125.0,0.094,48,72.1
1072,F#3,125.0,0.25,35,72.1
1073,C4,125.0,0.188,34,72.1
1074,E4,125.0,0.188,34,72.1
1075,C5,125.5,0.188,43,72.1
1076,D2,125.875,0.125,37,72.1
1077,A2,125.938,0.062,37,72.1
1078,B4,126.0,0.25,45,72.1
1079,F#3,126.0,0.062,37,72.1
1080,D2,126.0,0.062,37,72.1
1081,A2,126.0,0.062,37,72.1
1082,E4,126.0,0.5,37,72.1
1083,C4,126.0,0.5,37,72.1
1084,C5,126.25,0.25,43,72.1
1085,D5,126.5,0.125,45,72.1
1086,E5,126.75,0.125,43,72.1
1087,F#5,127.0,0.125,45,72.1
1088,A4,127.0,0.062,39,72.1
1089,F#5,127.25,83/1000,43,72.1
1090,G5,127.333,83/1000,41,72.1
1091,F#5,127.417,83/1000,41,72.1
1092,E5,127.5,0.25,45,72.1
1093,D5,127.75,0.25,43,72.1
1094,C5,128.0,0.25,45,72.1
1095,D4,128.0,0.062,39,72.1
1096,D5,128.25,0.25,41,72.1
1097,E5,128.5,0.5,41,72.1
1098,D5,129.0,3.0,37,72.1
1099,A5,129.0,0.062,44,72.1
1100,F4,129.0,3.0,37,72.1
1101,C4,129.0,3.0,33,72.1
1102,D4,129.0,3.0,33,72.1
1103,B5,129.25,0.062,42,72.1
1104,C6,129.5,0.062,44,72.1
1105,D6,129.75,0.062,43,72.1
1106,B5,130.0,26/125,44,72.1
1107,B5,130.25,0.125,39,72.1
1108,C6,130.375,0.125,39,72.1
1109,B5,130.5,0.25,44,72.1
1110,A5,130.75,0.188,44,72.1
1111,B5,131.0,0.094,48,72.1
1112,C6,131.5,0.188,43,72.1
1113,D5,132.0,3.0,37,72.1
1114,B5,132.0,0.25,45,72.1
1115,C6,132.25,0.25,43,72.1
1116,D6,132.5,0.125,45,72.1
1117,E6,132.75,0.125,43,72.1
1118,F#6,133.0,0.125,45,72.1
1119,F#6,133.25,83/1000,43,72.1
1120,G6,133.333,83/1000,41,72.1
1121,F#6,133.417,83/1000,41,72.1
1122,E6,133.5,0.25,45,72.1
1123,D6,133.75,0.25,43,72.1
1124,C6,134.0,0.25,45,72.1
1125,F#4,134.0,1.0,37,72.1
1126,C4,134.0,2.0,33,72.1
1127,D4,134.0,2.0,33,72.1
1128,D6,134.25,0.25,41,72.1
1129,E6,134.5,0.5,41,72.1
1130,B5,135.0,0.625,30,72.1
1131,E6,135.0,0.25,41,72.1
1132,A4,135.0,1.0,37,72.1
1133,D5,135.0,1.0,30,72.1
1134,G5,135.0,1.0,30,72.1
1135,D6,135.25,0.125,42,72.1
1136,B5,135.5,0.5,41,72.1
1137,A5,135.75,0.125,41,72.1
1138,B5,136.0,0.125,44,72.1
1139,D3,136.0,0.25,37,72.1
1140,G5,136.25,0.125,41,72.1
1141,E5,136.5,0.125,41,72.1
1142,D5,136.75,0.125,41,72.1
1143,G3,136.875,0.125,31,72.1
1144,D4,136.938,0.062,35,72.1
1145,C5,137.0,0.5,46,72.1
1146,G4,137.0,1.0,31,72.1
1147,E5,137.0,1.0,31,72.1
1148,B4,137.0,0.5,37,72.1
1149,G3,137.0,0.5,31,72.1
1150,D4,137.0,0.438,35,72.1
1151,A4,137.5,0.5,38,72.1
1152,B4,138.0,0.625,30,72.1
1153,E5,138.0,0.25,31,72.1
1154,G4,138.0,1.0,30,72.1
1155,D4,138.0,1.0,30,72.1
1156,D5,138.25,0.125,42,72.1
1157,B4,138.5,0.5,41,72.1
1158,A4,138.75,0.125,41,72.1
1159,B4,139.0,0.125,44,72.1
1160,C3,139.0,1.0,32,72.1
1161,E4,139.0,1.0,32,72.1
1162,G3,139.0,1.0,32,72.1
1163,G4,139.25,0.125,41,72.1
1164,E4,139.5,0.125,41,72.1
1165,D4,139.75,0.125,41,72.1
1166,G2,139.875,0.125,37,72.1
1167,D3,139.938,0.062,37,72.1
1168,E4,140.0,1.0,30,72.1
1169,C4,140.0,0.5,44,72.1
1170,B3,140.0,0.5,37,72.1
1171,G2,140.0,0.5,37,72.1
1172,D3,140.0,0.5,37,72.1
1173,A3,140.5,0.5,38,72.1
1174,G3,141.0,3.0,35,72.1
1175,E4,141.0,0.25,30,72.1
1176,F#4,141.25,0.25,40,72.1
1177,G4,141.5,0.125,40,72.1
1178,A4,141.75,0.125,40,72.1
1179,E4,142.0,26/125,43,72.1
1180,A2,142.0,0.5,32,72.1
1181,C3,142.0,1.0,32,72.1
1182,E4,142.25,0.125,39,72.1
1183,F#4,142.375,0.125,39,72.1
1184,E4,142.5,0.25,43,72.1
1185,F#2,142.5,0.5,32,72.1
1186,D4,142.75,0.188,39,72.1
1187,E4,143.0,0.156,44,72.1
1188,E2,143.0,3.0,32,72.1
1189,C3,143.0,2.0,32,72.1
1190,G4,143.5,0.156,44,72.1
1191,B4,144.0,0.156,44,72.1
1192,D4,144.0,0.156,44,72.1
1193,G4,144.0,0.156,44,72.1
1194,C4,144.5,0.156,41,72.1
1195,E4,144.5,0.156,41,72.1
1196,A4,144.5,0.156,41,72.1
1197,B2,145.0,1.0,32,72.1
1198,A1,146.0,0.5,39,72.1
1199,A2,146.0,0.5,39,72.1
1200,A4,147.0,1.0,77,72.1
1201,A5,147.0,0.25,77,72.1
1202,A3,147.0,0.156,44,72.1
1203,G5,147.25,0.125,70,72.1
1204,F5,147.375,0.125,70,72.1
1205,E5,147.5,0.125,70,72.1
1206,E3,147.5,0.156,41,72.1
1207,D5,147.625,0.125,70,72.1
1208,C5,147.75,0.125,70,72.1
1209,B4,147.875,0.125,70,72.1
1210,A4,148.0,1271/1000,77,72.1
1211,A2,148.0,0.188,51,72.1
1212,G2,148.5,0.188,50,72.1
1213,F1,149.0,3.0,77,72.1
1214,F2,149.0,3.0,77,72.1
1215,C5,149.25,26/125,65,72.1
1216,B4,149.5,271/1000,68,72.1
1217,D5,149.75,26/125,65,72.1
1218,F4,150.0,2.0,58,72.1
1219,C5,150.0,271/1000,68,72.1
1220,E5,150.25,26/125,65,72.1
1221,G4,150.25,0.125,69,72.1
1222,F4,150.375,0.125,69,72.1
1223,D5,150.5,271/1000,67,72.1
1224,E4,150.5,0.125,69,72.1
1225,D4,150.625,0.125,69,72.1
1226,F5,150.75,26/125,68,72.1
1227,C4,150.75,0.125,69,72.1
1228,B3,150.875,0.125,69,72.1
1229,E5,151.0,271/1000,71,72.1
1230,A3,151.0,0.5,77,72.1
1231,C5,151.25,271/1000,61,72.1
1232,B4,151.5,271/1000,59,72.1
1233,G3,151.5,0.5,68,72.1
1234,G4,151.75,0.25,55,72.1
1235,A3,152.0,0.5,71,72.1
1236,F4,152.0,0.5,55,72.1
1237,D4,152.0,0.5,55,72.1
1238,B3,152.5,0.5,66,72.1
1239,E4,152.5,0.438,55,72.1
1240,G4,152.5,0.438,55,72.1
1241,A4,153.0,1.0,77,72.1
1242,A5,153.0,0.25,77,72.1
1243,C4,153.0,0.5,63,72.1
1244,G5,153.25,0.125,70,72.1
1245,F5,153.375,0.125,70,72.1
1246,E5,153.5,0.125,70,72.1
1247,D4,153.5,0.5,62,72.1
1248,D5,153.625,0.125,70,72.1
1249,C5,153.75,0.125,70,72.1
1250,B4,153.875,0.125,70,72.1
1251,A4,154.0,1271/1000,77,72.1
1252,B3,154.0,0.5,55,72.1
1253,A3,154.5,0.25,53,72.1
1254,G3,154.75,0.25,50,72.1
1255,F1,155.0,3.0,77,72.1
1256,F2,155.0,3.0,77,72.1
1257,C5,155.25,26/125,65,72.1
1258,B4,155.5,271/1000,68,72.1
1259,D5,155.75,26/125,65,72.1
1260,F4,156.0,2.0,58,72.1
1261,C5,156.0,271/1000,68,72.1
1262,E5,156.25,26/125,65,72.1
1263,G4,156.25,0.125,69,72.1
1264,F4,156.375,0.125,69,72.1
1265,D5,156.5,271/1000,67,72.1
1266,E4,156.5,0.125,69,72.1
1267,D4,156.625,0.125,69,72.1
1268,F5,156.75,26/125,68,72.1
1269,C4,156.75,0.125,69,72.1
1270,B3,156.875,0.125,69,72.1
1271,E5,157.0,271/1000,71,72.1
1272,A3,157.0,0.5,77,72.1
1273,C5,157.25,271/1000,59,72.1
1274,B4,157.5,271/1000,59,72.1
1275,G3,157.5,0.5,68,72.1
1276,G4,157.75,0.25,57,72.1
1277,A3,158.0,0.5,71,72.1
1278,F4,158.0,0.5,55,72.1
1279,D4,158.0,0.5,55,72.1
1280,B3,158.5,0.5,66,72.1
1281,A4,158.5,0.438,55,72.1
1282,F4,158.5,0.438,55,72.1
1283,G4,159.0,1.0,77,72.1
1284,G5,159.0,0.25,79,72.1
1285,C4,159.0,0.5,63,72.1
1286,F5,159.25,0.125,70,72.1
1287,E-5,159.375,0.125,70,72.1
1288,D5,159.5,0.125,70,72.1
1289,D4,159.5,0.5,62,72.1
1290,C5,159.625,0.125,70,72.1
1291,B-4,159.75,0.125,70,72.1
1292,A4,159.875,0.125,70,72.1
1293,G4,160.0,1271/1000,77,72.1
1294,A3,160.0,0.5,55,72.1
1295,G3,160.5,0.25,53,72.1
1296,F3,160.75,0.25,50,72.1
1297,E-1,161.0,3.0,81,72.1
1298,E-2,161.0,3.0,81,72.1
1299,B-4,161.25,26/125,65,72.1
1300,A4,161.5,271/1000,68,72.1
1301,C5,161.75,26/125,65,72.1
1302,E-4,162.0,2.0,58,72.1
1303,B-4,162.0,271/1000,68,72.1
1304,D5,162.25,26/125,65,72.1
1305,F4,162.25,0.125,69,72.1
1306,E-4,162.375,0.125,69,72.1
1307,C5,162.5,271/1000,67,72.1
1308,D4,162.5,0.125,69,72.1
1309,C4,162.625,0.125,69,72.1
1310,E-5,162.75,26/125,68,72.1
1311,B-3,162.75,0.125,69,72.1
1312,A3,162.875,0.125,69,72.1
1313,D5,163.0,271/1000,71,72.1
1314,G3,163.0,0.5,77,72.1
1315,B-4,163.25,271/1000,58,72.1
1316,A4,163.5,271/1000,59,72.1
1317,F3,163.5,0.5,68,72.1
1318,F4,163.75,0.25,55,72.1
1319,G3,164.0,0.5,71,72.1
1320,C4,164.0,0.5,55,72.1
1321,E-4,164.0,0.5,55,72.1
1322,A3,164.5,0.5,66,72.1
1323,F4,164.5,0.438,55,72.1
1324,D4,164.5,0.438,55,72.1
1325,G4,165.0,1.0,77,72.1
1326,G5,165.0,0.25,79,72.1
1327,B-3,165.0,0.5,63,72.1
1328,F5,165.25,0.125,70,72.1
1329,E-5,165.375,0.125,70,72.1
1330,D5,165.5,0.125,70,72.1
1331,C4,165.5,0.5,62,72.1
1332,C5,165.625,0.125,70,72.1
1333,B-4,165.75,0.125,70,72.1
1334,A4,165.875,0.125,70,72.1
1335,G4,166.0,1271/1000,77,72.1
1336,A3,166.0,0.5,55,72.1
1337,G3,166.5,0.25,53,72.1
1338,F3,166.75,0.25,50,72.1
1339,E-1,167.0,3.0,81,72.1
1340,E-2,167.0,3.0,81,72.1
1341,B-4,167.25,26/125,65,72.1
1342,A4,167.5,271/1000,68,72.1
1343,C5,167.75,26/125,65,72.1
1344,E-4,168.0,2.0,58,72.1
1345,B-4,168.0,271/1000,68,72.1
1346,D5,168.25,26/125,65,72.1
1347,F4,168.25,0.125,69,72.1
1348,E-4,168.375,0.125,69,72.1
1349,C5,168.5,271/1000,67,72.1
1350,D4,168.5,0.125,69,72.1
1351,C4,168.625,0.125,69,72.1
1352,E-5,168.75,26/125,68,72.1
1353,B-3,168.75,0.125,69,72.1
1354,A3,168.875,0.125,69,72.1
1355,D5,169.0,271/1000,71,72.1
1356,G3,169.0,0.5,77,72.1
1357,B-4,169.25,271/1000,58,72.1
1358,A4,169.5,271/1000,63,72.1
1359,F3,169.5,0.5,68,72.1
1360,F4,169.75,0.25,54,72.1
1361,G3,170.0,0.5,71,72.1
1362,C4,170.0,0.5,55,72.1
1363,E-4,170.0,0.5,55,72.1
1364,A3,170.5,0.5,66,72.1
1365,G4,170.5,0.375,48,72.1
1366,E-4,170.5,0.375,48,72.1
1367,B-3,171.0,0.5,63,72.1
1368,F#4,171.0,0.75,48,72.1
1369,D4,171.0,0.75,48,72.1
1370,C4,171.5,0.5,62,72.1
1371,C4,171.75,0.188,37,72.1
1372,E-4,171.75,0.188,37,72.1
1373,G4,171.75,0.188,37,72.1
1374,A3,172.0,0.5,55,72.1
1375,F#4,172.0,0.75,48,72.1
1376,D4,172.0,0.75,48,72.1
1377,B-3,172.5,0.25,53,72.1
1378,C4,172.75,0.25,50,72.1
1379,C4,172.75,0.188,37,72.1
1380,E-4,172.75,0.188,37,72.1
1381,G4,172.75,0.188,37,72.1
1382,D4,173.0,0.5,47,72.1
1383,F#4,173.0,0.5,47,72.1
1384,D3,173.0,0.75,46,72.1
1385,A3,173.0,0.75,46,72.1
1386,C4,173.5,0.5,42,72.1
1387,E-4,173.5,0.5,42,72.1
1388,A4,173.5,0.5,42,72.1
1389,A2,173.75,0.188,41,72.1
1390,B-3,174.0,0.5,48,72.1
1391,D4,174.0,0.5,48,72.1
1392,G4,174.0,0.5,48,72.1
1393,D3,174.0,0.75,46,72.1
1394,A3,174.0,0.75,46,72.1
1395,A3,174.5,0.25,43,72.1
1396,D4,174.5,0.25,43,72.1
1397,F#4,174.5,0.25,43,72.1
1398,G4,174.75,0.25,46,72.1
1399,A2,174.75,0.25,42,72.1
1400,E4,175.0,1.0,45,72.1
1401,G3,175.0,2.0,45,72.1
1402,D4,175.0,1.25,45,72.1
1403,D3,175.0,0.5,45,72.1
1404,A3,175.0,0.5,45,72.1
1405,F#2,175.5,0.5,49,72.1
1406,G2,176.0,0.5,52,72.1
1407,C#4,176.25,0.25,44,72.1
1408,B3,176.5,0.25,44,72.1
1409,A2,176.5,0.5,45,72.1
1410,C#4,176.75,0.25,44,72.1
1411,B-2,177.0,1.0,42,72.1
1412,F#4,177.0,0.5,44,72.1
1413,A3,177.0,0.5,44,72.1
1414,D4,177.0,0.5,44,72.1
1415,C4,177.5,0.5,51,72.1
1416,A4,177.5,0.5,51,72.1
1417,A2,178.0,1.0,43,72.1
1418,E4,178.0,1.0,48,72.1
1419,F#4,178.0,1.0,48,72.1
1420,C5,178.0,1.0,48,72.1
1421,D3,179.0,1.875,45,72.1
1422,D4,179.0,0.5,46,72.1
1423,G4,179.0,0.5,46,72.1
1424,B4,179.0,0.5,46,72.1
1425,F#4,179.5,0.5,49,72.1
1426,B4,179.5,0.5,49,72.1
1427,D5,179.5,0.5,49,72.1
1428,B4,180.0,1.0,52,72.1
1429,A4,180.0,1.0,52,72.1
1430,F#5,180.0,1.0,52,72.1
1431,G2,180.875,1.0,36,72.1
1432,D3,180.938,0.938,39,72.1
1433,B4,181.0,1.0,42,72.1
1434,B3,181.0,0.875,44,72.1
1435,G4,181.0,0.5,49,72.1
1436,E5,181.0,0.5,49,72.1
1437,D5,181.5,0.5,49,72.1
1438,F#4,181.5,0.5,49,72.1
1439,E2,181.875,0.125,40,72.1
1440,G3,181.938,0.062,44,72.1
1441,E4,182.0,0.25,46,72.1
1442,B2,182.0,2.0,48,72.1
1443,E2,182.0,2.0,40,72.1
1444,G3,182.0,2.0,44,72.1
1445,G4,182.0,0.5,46,72.1
1446,B4,182.0,0.5,46,72.1
1447,D4,182.25,0.25,45,72.1
1448,C#4,182.5,0.25,43,72.1
1449,E4,182.5,0.5,43,72.1
1450,G4,182.5,0.5,43,72.1
1451,B3,182.75,0.25,42,72.1
1452,F#4,183.0,0.75,48,72.1
1453,D4,183.0,0.75,48,72.1
1454,C4,183.75,0.188,37,72.1
1455,E-4,183.75,0.188,37,72.1
1456,G4,183.75,0.188,37,72.1
1457,A2,184.0,1.0,40,72.1
1458,F#4,184.0,0.75,48,72.1
1459,D4,184.0,0.75,48,72.1
1460,C4,184.75,0.188,37,72.1
1461,E-4,184.75,0.188,37,72.1
1462,G4,184.75,0.188,37,72.1
1463,D4,185.0,0.5,47,72.1
1464,F#4,185.0,0.5,47,72.1
1465,D3,185.0,0.75,46,72.1
1466,A3,185.0,0.75,46,72.1
1467,C4,185.5,0.5,42,72.1
1468,E-4,185.5,0.5,42,72.1
1469,A4,185.5,0.5,42,72.1
1470,A2,185.75,0.188,41,72.1
1471,D4,186.0,0.5,48,72.1
1472,G4,186.0,0.5,48,72.1
1473,B3,186.0,0.5,48,72.1
1474,D3,186.0,0.75,46,72.1
1475,A3,186.0,0.75,46,72.1
1476,D4,186.5,0.25,43,72.1
1477,A3,186.5,0.25,43,72.1
1478,F#4,186.5,0.25,43,72.1
1479,G4,186.75,0.25,46,72.1
1480,A2,186.75,0.25,42,72.1
1481,D4,187.0,0.438,45,72.1
1482,G3,187.0,0.438,45,72.1
1483,E4,187.0,0.438,45,72.1
1484,D3,187.0,0.5,45,72.1
1485,A3,187.0,0.5,45,72.1
1486,F#2,187.5,0.5,49,72.1
1487,E4,187.5,0.5,46,72.1
1488,G4,187.5,0.5,46,72.1
1489,B4,187.5,0.5,46,72.1
1490,G2,188.0,0.5,52,72.1
1491,C#4,188.0,0.5,50,72.1
1492,F#4,188.0,0.5,50,72.1
1493,A4,188.0,0.5,50,72.1
1494,A2,188.5,0.5,45,72.1
1495,B3,188.5,0.5,52,72.1
1496,E4,188.5,0.5,52,72.1
1497,G4,188.5,0.5,52,72.1
1498,B2,189.0,0.438,45,72.1
1499,C#4,189.0,0.438,52,72.1
1500,B-3,189.0,0.438,52,72.1
1501,F#4,189.0,0.438,52,72.1
1502,C#3,189.5,0.5,48,72.1
1503,F#4,189.5,0.5,52,72.1
1504,B4,189.5,0.5,52,72.1
1505,D5,189.5,0.5,52,72.1
1506,D3,190.0,0.5,51,72.1
1507,E4,190.0,0.5,54,72.1
1508,G4,190.0,0.5,54,72.1
1509,C#5,190.0,0.5,54,72.1
1510,E3,190.5,0.5,51,72.1
1511,F#4,190.5,0.5,56,72.1
1512,D4,190.5,0.5,56,72.1
1513,B4,190.5,0.5,56,72.1
1514,A4,191.0,0.5,60,72.1
1515,F#3,191.0,0.438,51,72.1
1516,E4,191.0,1.0,60,72.1
1517,G4,191.0,1.0,60,72.1
1518,A5,191.5,0.375,66,72.1
1519,G3,191.5,0.5,50,72.1
1520,A5,192.0,2.438,48,72.1
1521,A3,192.0,0.5,52,72.1
1522,D5,192.0,0.75,48,72.1
1523,F#5,192.0,0.75,48,72.1
1524,B3,192.5,0.5,54,72.1
1525,E-5,192.75,0.125,38,72.1
1526,G5,192.75,0.125,38,72.1
1527,C#4,193.0,1.0,57,72.1
1528,F#5,193.0,0.75,48,72.1
1529,D5,193.0,0.75,48,72.1
1530,E-5,193.75,0.125,38,72.1
1531,G5,193.75,0.125,38,72.1
1532,D5,194.0,0.438,47,72.1
1533,F#5,194.0,0.438,47,72.1
1534,D4,194.0,0.125,43,72.1
1535,A4,194.0,0.125,43,72.1
1536,A3,194.5,0.125,35,72.1
1537,C5,194.5,0.5,49,72.1
1538,E-5,194.5,0.5,49,72.1
1539,A5,194.5,0.5,49,72.1
1540,D3,195.0,0.125,42,72.1
1541,B-4,195.0,0.5,49,72.1
1542,D5,195.0,0.5,49,72.1
1543,G5,195.0,0.5,49,72.1
1544,A3,195.5,0.125,37,72.1
1545,F#5,195.5,0.25,40,72.1
1546,D5,195.5,0.25,40,72.1
1547,A4,195.5,0.25,40,72.1
1548,G5,195.75,0.25,43,72.1
1549,D4,196.0,0.125,43,72.1
1550,D5,196.0,1.0,38,72.1
1551,G4,196.0,1.0,38,72.1
1552,E5,196.0,1.0,38,72.1
1553,A4,196.5,0.5,36,72.1
1554,E-4,196.5,0.5,36,72.1
1555,C4,196.5,0.5,36,72.1
1556,F#3,196.5,0.5,36,72.1
1557,G5,197.0,1.0,42,72.1
1558,E5,197.0,1.0,42,72.1
1559,B-4,197.0,1.0,42,72.1
1560,G4,197.0,0.5,36,72.1
1561,D4,197.0,0.5,36,72.1
1562,B-3,197.0,0.5,36,72.1
1563,G3,197.0,0.5,36,72.1
1564,F#4,197.5,0.5,35,72.1
1565,D4,197.5,0.5,35,72.1
1566,A3,197.5,0.5,35,72.1
1567,A4,198.0,1.0,44,72.1
1568,F#5,198.0,0.5,44,72.1
1569,D5,198.0,0.5,44,72.1
1570,E4,198.0,1.0,34,72.1
1571,D4,198.0,1.0,34,72.1
1572,B-3,198.0,1.0,34,72.1
1573,A5,198.5,0.5,54,72.1
1574,C5,199.0,1.0,47,72.1
1575,F#5,199.0,1.0,47,72.1
1576,C6,199.0,1.0,47,72.1
1577,G4,199.0,1.0,36,72.1
1578,E4,199.0,1.0,36,72.1
1579,C#4,199.0,1.0,36,72.1
1580,G4,200.0,1.0,52,72.1
1581,B4,200.0,0.5,52,72.1
1582,F#4,200.0,2.0,42,72.1
1583,D4,200.0,2.0,42,72.1
1584,D5,200.5,0.5,50,72.1
1585,F#5,201.0,1.0,55,72.1
1586,G4,201.0,2.0,52,72.1
1587,A3,201.0,1.0,38,72.1
1588,E5,202.0,0.5,49,72.1
1589,G3,202.0,1.0,36,72.1
1590,B3,202.0,1.0,36,72.1
1591,D5,202.5,0.5,46,72.1
1592,B3,203.0,2.0,36,72.1
1593,G4,203.0,0.5,43,72.1
1594,B4,203.0,0.5,43,72.1
1595,E3,203.0,3.0,37,72.1
1596,A2,203.0,3.0,37,72.1
1597,E4,203.5,0.5,38,72.1
1598,G4,203.5,0.5,38,72.1
1599,D4,204.0,1.0,36,72.1
1600,B3,204.0,1.0,36,72.1
1601,F#4,204.0,1.0,36,72.1
1602,C#4,205.0,1.0,38,72.1
1603,G#3,205.0,0.5,38,72.1
1604,C#4,205.0,0.5,38,72.1
1605,E4,205.0,0.5,38,72.1
1606,F#3,205.5,0.5,36,72.1
1607,B3,205.5,0.5,36,72.1
1608,D4,205.5,0.5,36,72.1
1609,G#2,206.0,1.0,38,72.1
1610,F3,206.0,0.5,38,72.1
1611,B3,206.0,0.5,38,72.1
1612,C#4,206.0,0.5,38,72.1
1613,B3,206.5,0.5,36,72.1
1614,C#4,206.5,0.5,36,72.1
1615,G#4,206.5,0.5,36,72.1
1616,D4,207.0,3.0,36,72.1
1617,B3,207.0,3.0,36,72.1
1618,G#4,207.0,0.5,36,72.1
1619,A2,207.0,0.5,39,72.1
1620,F#4,207.5,167/1000,33,72.1
1621,B2,207.5,0.5,38,72.1
1622,G#4,207.667,167/1000,37,72.1
1623,A4,207.833,167/1000,41,72.1
1624,F#4,208.0,0.5,43,72.1
1625,C#3,208.0,0.5,39,72.1
1626,E4,208.5,1.0,40,72.1
1627,E-3,208.5,0.25,37,72.1
1628,F3,208.75,0.25,40,72.1
1629,F#3,209.0,1.0,45,72.1
1630,F#4,209.5,229/500,45,72.1
1631,G#4,210.0,2.0,39,72.1
1632,G#3,210.0,1.0,36,72.1
1633,F#5,210.0,1.0,39,72.1
1634,D5,210.0,1.0,39,72.1
1635,A3,211.0,479/500,38,72.1
1636,C#5,211.0,0.5,38,72.1
1637,E5,211.0,0.5,38,72.1
1638,D5,211.5,0.5,36,72.1
1639,B4,211.5,0.5,36,72.1
1640,B3,212.0,1.0,38,72.1
1641,G#4,212.0,0.5,38,72.1
1642,B4,212.0,0.5,38,72.1
1643,C#5,212.0,0.5,38,72.1
1644,B4,212.5,0.5,44,72.1
1645,C#5,212.5,0.5,44,72.1
1646,G#5,212.5,0.5,44,72.1
1647,D5,213.0,3.0,43,72.1
1648,B4,213.0,3.0,44,72.1
1649,G#5,213.0,0.5,44,72.1
1650,C#4,213.0,0.5,39,72.1
1651,F#5,213.5,0.5,38,72.1
1652,D4,213.5,0.5,38,72.1
1653,G#5,214.0,0.5,39,72.1
1654,E4,214.0,0.5,39,72.1
1655,A5,214.5,0.5,36,72.1
1656,F4,214.5,0.5,39,72.1
1657,F#5,215.0,0.5,38,72.1
1658,F#4,215.0,3.0,39,72.1
1659,G#5,215.5,0.5,35,72.1
1660,E-3,216.0,101/125,35,72.1
1661,B-3,216.0,101/125,35,72.1
1662,G3,216.0,101/125,35,72.1
1663,B-4,216.812,1.188,32,72.1
1664,E-5,216.875,1.125,34,72.1
1665,G5,216.938,1.062,35,72.1
1666,B-5,217.0,1.0,41,72.1
1667,E-3,218.0,1.0,38,72.1
1668,G3,218.0,1.0,38,72.1
1669,B-3,218.0,1.0,38,72.1
1670,B-1,218.0,0.812,35,72.1
1671,B-2,218.0,0.812,35,72.1
1672,G3,218.812,1183/1000,31,72.1
1673,B-3,218.875,1121/1000,33,72.1
1674,E-4,218.938,527/500,35,72.1
1675,G4,219.0,197/200,40,72.1
1676,E-3,219.0,101/125,38,72.1
1677,G3,219.0,101/125,38,72.1
1678,B-3,219.0,101/125,38,72.1
1679,B-4,219.812,1.188,32,72.1
1680,E-5,219.875,1.125,33,72.1
1681,G5,219.938,1.062,35,72.1
1682,B-5,220.0,1.0,40,72.1
1683,B-2,220.0,1.0,38,72.1
1684,B-3,221.0,1.0,40,72.1
1685,B-1,221.0,0.812,44,72.1
1686,B-2,221.0,0.812,38,72.1
1687,E-3,221.0,1.0,40,72.1
1688,G3,221.0,1.0,40,72.1
1689,G3,221.812,1183/1000,31,72.1
1690,B-3,221.875,1121/1000,33,72.1
1691,E-4,221.938,132/125,35,72.1
1692,B-3,222.0,0.25,40,72.1
1693,G4,222.0,497/500,41,72.1
1694,E-3,222.0,0.5,40,72.1
1695,G3,222.0,0.5,40,72.1
1696,C4,222.25,0.25,42,72.1
1697,D4,222.5,0.25,44,72.1
1698,E-4,222.75,0.25,43,72.1
1699,C4,223.0,26/125,44,72.1
1700,B-2,223.0,1.0,41,72.1
1701,C4,223.25,0.125,39,72.1
1702,D4,223.375,0.125,39,72.1
1703,C4,223.5,0.188,44,72.1
1704,B-3,223.75,0.188,44,72.1
1705,C4,224.0,0.062,43,72.1
1706,B-1,224.0,0.5,41,72.1
1707,B-2,224.0,0.5,41,72.1
1708,E-4,224.5,0.062,39,72.1
1709,D4,225.0,0.25,42,72.1
1710,E-3,225.0,0.5,36,72.1
1711,G3,225.0,0.5,36,72.1
1712,E-4,225.25,0.25,42,72.1
1713,F4,225.5,0.25,44,72.1
1714,G4,225.75,0.25,43,72.1
1715,D4,226.0,26/125,44,72.1
1716,G4,226.0,0.125,33,72.1
1717,C5,226.0,0.125,33,72.1
1718,E-5,226.0,0.125,33,72.1
1719,D4,226.25,0.125,39,72.1
1720,E-4,226.375,0.125,39,72.1
1721,D4,226.5,0.188,44,72.1
1722,C4,226.75,0.188,42,72.1
1723,B-3,227.0,0.25,39,72.1
1724,B-2,227.0,0.5,41,72.1
1725,B-1,227.0,0.5,41,72.1
1726,C4,227.25,0.25,39,72.1
1727,D4,227.5,0.5,39,72.1
1728,C#4,228.0,1.0,36,72.1
1729,E-4,228.0,0.25,42,72.1
1730,B-3,228.0,0.5,36,72.1
1731,D3,228.0,0.5,36,72.1
1732,G3,228.0,0.5,36,72.1
1733,F4,228.25,0.25,42,72.1
1734,G4,228.5,0.25,44,72.1
1735,G#4,228.75,0.25,43,72.1
1736,F4,229.0,26/125,44,72.1
1737,G4,229.0,0.125,33,72.1
1738,B-4,229.0,0.125,33,72.1
1739,D5,229.0,0.125,33,72.1
1740,F4,229.25,0.125,39,72.1
1741,G4,229.375,0.125,39,72.1
1742,F4,229.5,0.188,44,72.1
1743,E-4,229.75,0.188,44,72.1
1744,F4,230.0,0.062,46,72.1
1745,G3,230.0,1.0,36,72.1
1746,B-2,230.0,3.0,41,72.1
1747,G#4,230.5,0.062,44,72.1
1748,C#4,231.0,1.5,39,72.1
1749,G4,231.0,0.25,46,72.1
1750,G#3,231.0,1.0,38,72.1
1751,G#4,231.25,0.25,46,72.1
1752,B-4,231.5,0.25,48,72.1
1753,C5,231.75,0.25,47,72.1
1754,G4,232.0,26/125,48,72.1
1755,G#4,232.0,0.062,36,72.1
1756,F5,232.0,0.062,36,72.1
1757,C#5,232.0,0.062,36,72.1
1758,F4,232.25,0.125,42,72.1
1759,G4,232.333,83/1000,42,72.1
1760,F4,232.417,83/1000,42,72.1
1761,E-4,232.5,0.188,48,72.1
1762,C#4,232.75,0.188,46,72.1
1763,E-4,233.0,0.25,42,72.1
1764,B-2,233.0,1.0,41,72.1
1765,E-3,233.0,1.0,41,72.1
1766,F4,233.25,0.25,42,72.1
1767,G4,233.5,0.5,42,72.1
1768,C#4,234.0,1.5,42,72.1
1769,G4,234.0,0.25,50,72.1
1770,E-5,234.0,0.5,36,72.1
1771,C#5,234.0,0.5,36,72.1
1772,G#4,234.25,0.25,50,72.1
1773,B-4,234.5,0.25,52,72.1
1774,C5,234.75,0.25,51,72.1
1775,G4,235.0,26/125,52,72.1
1776,E-3,235.0,1.0,41,72.1
1777,F4,235.25,0.125,46,72.1
1778,G4,235.333,83/1000,46,72.1
1779,F4,235.417,83/1000,46,72.1
1780,E-4,235.5,0.188,53,72.1
1781,C#4,235.75,0.188,50,72.1
1782,E-4,236.0,0.25,54,72.1
1783,B-2,236.0,1.0,45,72.1
1784,E-3,236.0,1.0,41,72.1
1785,F4,236.25,0.25,51,72.1
1786,G4,236.5,0.5,51,72.1
1787,C#4,237.0,1.5,55,72.1
1788,G#4,237.0,0.25,55,72.1
1789,E-5,237.0,0.5,40,72.1
1790,C#5,237.0,0.5,40,72.1
1791,A4,237.25,0.25,56,72.1
1792,B4,237.5,0.25,58,72.1
1793,C#5,237.75,0.25,57,72.1
1794,G#4,238.0,26/125,58,72.1
1795,E-3,238.0,1.0,47,72.1
1796,F#4,238.25,0.125,51,72.1
1797,G#4,238.333,83/1000,51,72.1
1798,F#4,238.417,83/1000,51,72.1
1799,E4,238.5,0.188,59,72.1
1800,E-4,238.75,0.188,56,72.1
1801,E4,239.0,0.25,60,72.1
1802,E3,239.0,1.0,52,72.1
1803,F#2,239.0,1.0,52,72.1
1804,F#4,239.25,0.25,57,72.1
1805,G#4,239.5,0.5,57,72.1
1806,D4,240.0,1.5,60,72.1
1807,G#4,240.0,0.25,57,72.1
1808,E5,240.0,0.5,45,72.1
1809,C#5,240.0,0.5,45,72.1
1810,A4,240.25,0.25,55,72.1
1811,B4,240.5,0.25,57,72.1
1812,C#5,240.75,0.25,60,72.1
1813,G#4,241.0,0.25,65,72.1
1814,E3,241.0,1.0,52,72.1
1815,A4,241.25,0.25,59,72.1
1816,B4,241.5,0.25,63,72.1
1817,C#5,241.75,0.25,66,72.1
1818,D5,242.0,0.25,70,72.1
1819,E2,242.0,0.5,60,72.1
1820,E3,242.0,0.5,52,72.1
1821,E5,242.25,0.25,64,72.1
1822,F#5,242.5,0.25,67,72.1
1823,G#5,242.75,0.25,69,72.1
1824,A5,243.0,0.75,76,72.1
1825,D5,243.0,0.5,46,72.1
1826,E5,243.0,0.5,46,72.1
1827,C#5,243.25,0.25,58,72.1
1828,D5,243.5,0.25,58,72.1
1829,A5,243.75,0.25,58,72.1
1830,G#5,244.0,0.75,75,72.1
1831,E3,244.0,1.0,54,72.1
1832,B4,244.25,0.25,56,72.1
1833,D5,244.5,0.25,56,72.1
1834,G#5,244.75,0.25,56,72.1
1835,E2,244.75,0.25,65,72.1
1836,F#5,245.0,0.75,72,72.1
1837,D4,245.0,1.0,56,72.1
1838,C#4,245.0,1.0,56,72.1
1839,A4,245.0,1.0,56,72.1
1840,B4,245.25,0.25,55,72.1
1841,D5,245.5,0.25,55,72.1
1842,F#5,245.75,0.25,55,72.1
1843,E5,246.0,0.75,71,72.1
1844,G#4,246.0,1.0,53,72.1
1845,D4,246.0,1.0,53,72.1
1846,B3,246.0,1.0,53,72.1
1847,A4,246.25,0.25,52,72.1
1848,C#5,246.5,0.25,52,72.1
1849,E5,246.75,0.75,52,72.1
1850,C#5,247.0,0.25,52,72.1
1851,F#4,247.0,1.0,48,72.1
1852,D4,247.0,1.0,48,72.1
1853,G#3,247.0,1.0,48,72.1
1854,A4,247.25,0.25,52,72.1
1855,F#5,247.5,0.5,67,72.1
1856,C#5,247.5,0.25,55,72.1
1857,A4,247.75,0.25,55,72.1
1858,F#5,248.0,0.25,55,72.1
1859,A5,248.0,0.5,66,72.1
1860,E4,248.0,1.5,47,72.1
1861,C#4,248.0,1.5,47,72.1
1862,A3,248.0,1.5,47,72.1
1863,C#5,248.25,0.25,55,72.1
1864,A5,248.5,0.25,55,72.1
1865,C#6,248.5,0.5,67,72.1
1866,F#5,248.75,0.25,55,72.1
1867,A5,249.0,0.75,76,72.1
1868,E2,249.0,2.0,64,72.1
1869,C#5,249.25,0.25,58,72.1
1870,D5,249.5,0.25,58,72.1
1871,A3,249.5,0.5,54,72.1
1872,C#4,249.5,0.5,54,72.1
1873,F#4,249.5,0.5,54,72.1
1874,A5,249.75,0.25,58,72.1
1875,G#5,250.0,0.75,75,72.1
1876,C#4,250.0,0.5,54,72.1
1877,F#4,250.0,0.5,54,72.1
1878,A4,250.0,0.5,54,72.1
1879,B4,250.25,0.25,56,72.1
1880,D5,250.5,0.25,56,72.1
1881,F#4,250.5,0.5,54,72.1
1882,A4,250.5,0.5,54,72.1
1883,C#5,250.5,0.5,54,72.1
1884,G#5,250.75,0.25,56,72.1
1885,F#5,251.0,0.75,72,72.1
1886,D4,251.0,1.0,56,72.1
1887,C#4,251.0,1.0,56,72.1
1888,A4,251.0,1.0,56,72.1
1889,B4,251.25,0.25,55,72.1
1890,D5,251.5,0.25,55,72.1
1891,F#5,251.75,0.25,55,72.1
1892,E5,252.0,0.75,71,72.1
1893,G#4,252.0,1.0,53,72.1
1894,D4,252.0,1.0,53,72.1
1895,B3,252.0,1.0,53,72.1
1896,A4,252.25,0.25,52,72.1
1897,C#5,252.5,0.25,52,72.1
1898,E5,252.75,0.75,52,72.1
1899,C#5,253.0,0.25,52,72.1
1900,F#4,253.0,1.0,48,72.1
1901,D4,253.0,1.0,48,72.1
1902,G#3,253.0,1.0,48,72.1
1903,A4,253.25,0.25,52,72.1
1904,C#5,253.5,0.25,61,72.1
1905,F#5,253.5,0.5,61,72.1
1906,A4,253.75,0.25,53,72.1
1907,F#5,254.0,0.25,62,72.1
1908,A5,254.0,0.5,62,72.1
1909,E4,254.0,1.5,47,72.1
1910,C#4,254.0,1.5,47,72.1
1911,A3,254.0,1.5,47,72.1
1912,C#5,254.25,0.25,54,72.1
1913,A5,254.5,0.25,64,72.1
1914,C#6,254.5,229/500,64,72.1
1915,F#5,254.75,26/125,54,72.1
1916,E4,255.0,0.25,44,72.1
1917,E2,255.0,979/500,64,72.1
1918,C#5,255.0,0.5,53,72.1
1919,E5,255.0,0.5,53,72.1
1920,F#4,255.25,0.25,44,72.1
1921,A4,255.5,0.25,44,72.1
1922,C#5,255.5,229/500,52,72.1
1923,F#3,255.5,0.5,49,72.1
1924,F#4,255.75,229/1000,44,72.1
1925,A4,256.0,0.25,44,72.1
1926,C#5,256.0,479/500,52,72.1
1927,A3,256.0,0.5,52,72.1
1928,F#4,256.25,0.25,44,72.1
1929,A4,256.5,0.25,46,72.1
1930,C#4,256.5,229/500,54,72.1
1931,F#4,256.75,229/1000,44,72.1
1932,F#4,257.0,0.25,44,72.1
1933,A4,257.0,0.5,53,72.1
1934,D2,257.0,3.0,56,72.1
1935,A2,257.0,3.0,56,72.1
1936,D4,257.25,0.25,44,72.1
1937,A4,257.5,0.25,44,72.1
1938,C#5,257.5,0.5,53,72.1
1939,C#4,257.5,0.5,56,72.1
1940,D4,257.75,0.25,44,72.1
1941,G#4,258.0,0.25,44,72.1
1942,B4,258.0,0.5,56,72.1
1943,F#3,258.0,1.0,48,72.1
1944,A3,258.0,1.0,48,72.1
1945,C#4,258.0,1.0,48,72.1
1946,D4,258.25,0.25,44,72.1
1947,G#4,258.5,0.25,48,72.1
1948,B4,258.5,0.25,48,72.1
1949,F4,258.75,0.25,44,72.1
1950,A4,258.75,0.25,44,72.1
1951,G#4,259.0,0.25,44,72.1
1952,B4,259.0,1.0,51,72.1
1953,A2,259.0,1.0,52,72.1
1954,D4,259.25,0.25,44,72.1
1955,G#4,259.5,0.25,44,72.1
1956,D4,259.75,0.25,44,72.1
1957,G#4,260.0,0.5,52,72.1
1958,G#1,260.0,1.0,53,72.1
1959,G#2,260.0,1.0,53,72.1
1960,D4,260.25,0.25,44,72.1
1961,B4,260.5,0.5,52,72.1
1962,G#4,260.5,0.25,48,72.1
1963,G#3,260.5,0.25,43,72.1
1964,B3,260.5,0.25,43,72.1
1965,D4,260.75,0.25,44,72.1
1966,F3,260.75,0.25,38,72.1
1967,A3,260.75,0.25,38,72.1
1968,E4,261.0,0.25,45,72.1
1969,C#5,261.0,0.5,54,72.1
1970,E5,261.0,0.5,54,72.1
1971,D3,261.0,1.0,43,72.1
1972,G#3,261.0,1.0,43,72.1
1973,B3,261.0,1.0,43,72.1
1974,F#4,261.25,0.25,45,72.1
1975,A4,261.5,0.25,44,72.1
1976,C#5,261.5,229/500,52,72.1
1977,F#4,261.75,229/1000,44,72.1
1978,A4,262.0,0.25,44,72.1
1979,C#5,262.0,479/500,52,72.1
1980,G#2,262.0,1.0,45,72.1
1981,F#4,262.25,0.25,44,72.1
1982,A4,262.5,0.25,46,72.1
1983,F#4,262.75,229/1000,44,72.1
1984,A4,263.0,0.5,53,72.1
1985,F#4,263.0,0.25,44,72.1
1986,D2,263.0,1.0,57,72.1
1987,A2,263.0,1.0,57,72.1
1988,D4,263.25,0.25,44,72.1
1989,A4,263.5,0.25,44,72.1
1990,C#5,263.5,0.5,53,72.1
1991,C#4,263.5,0.5,56,72.1
1992,D4,263.75,0.25,44,72.1
1993,B4,264.0,0.25,44,72.1
1994,D5,264.0,2.0,56,72.1
1995,F#3,264.0,1.0,48,72.1
1996,A3,264.0,1.0,48,72.1
1997,C#4,264.0,1.0,48,72.1
1998,F#4,264.25,0.25,44,72.1
1999,B4,264.5,0.25,47,72.1
2000,F#4,264.75,0.25,43,72.1
2001,B4,265.0,0.25,46,72.1
2002,A2,265.0,1.0,52,72.1
2003,F#4,265.25,0.25,43,72.1
2004,B4,265.5,0.25,46,72.1
2005,F#4,265.75,0.25,43,72.1
2006,F#4,266.0,0.25,56,72.1
2007,B4,266.0,0.5,56,72.1
2008,B1,266.0,1.0,53,72.1
2009,B2,266.0,1.0,53,72.1
2010,D4,266.25,0.25,47,72.1
2011,B4,266.5,0.25,59,72.1
2012,D5,266.5,229/500,59,72.1
2013,F#4,266.75,26/125,51,72.1
2014,D5,267.0,0.25,48,72.1
2015,F#5,267.0,0.5,60,72.1
2016,F#3,267.0,1.0,47,72.1
2017,B3,267.0,1.0,47,72.1
2018,D4,267.0,1.0,47,72.1
2019,B4,267.25,0.25,47,72.1
2020,F#4,267.5,0.25,45,72.1
2021,D5,267.5,229/500,56,72.1
2022,B4,267.75,229/1000,47,72.1
2023,D5,268.0,479/500,56,72.1
2024,A2,268.0,1.0,45,72.1
2025,A1,268.0,1.0,45,72.1
2026,B4,268.25,0.25,47,72.1
2027,F#4,268.5,0.25,50,72.1
2028,B4,268.75,229/1000,47,72.1
2029,C#5,269.0,0.25,56,72.1
2030,E5,269.0,0.5,56,72.1
2031,G#1,269.0,1.0,57,72.1
2032,G#2,269.0,1.0,57,72.1
2033,B4,269.25,0.25,47,72.1
2034,D5,269.5,0.25,57,72.1
2035,F#5,269.5,0.5,57,72.1
2036,D4,269.5,0.5,56,72.1
2037,B4,269.75,0.25,47,72.1
2038,F5,270.0,0.25,61,72.1
2039,G#5,270.0,0.5,61,72.1
2040,D4,270.0,1.0,48,72.1
2041,G#3,270.0,2.0,48,72.1
2042,B3,270.0,2.0,48,72.1
2043,B4,270.25,0.75,57,72.1
2044,F5,270.5,0.25,57,72.1
2045,G#5,270.5,0.25,57,72.1
2046,E-5,270.75,0.25,57,72.1
2047,F#5,270.75,0.25,57,72.1
2048,F5,271.0,0.25,55,72.1
2049,G#5,271.0,229/500,60,72.1
2050,E4,271.0,0.5,47,72.1
2051,C#4,271.0,0.5,47,72.1
2052,B4,271.25,26/125,50,72.1
2053,C#5,271.5,0.25,55,72.1
2054,F5,271.5,0.5,61,72.1
2055,D4,271.5,0.5,47,72.1
2056,F#4,271.5,0.5,47,72.1
2057,B4,271.75,0.25,50,72.1
2058,E-5,272.0,0.25,58,72.1
2059,F#5,272.0,0.5,65,72.1
2060,C#2,272.0,1.0,53,72.1
2061,C#3,272.0,1.0,53,72.1
2062,B4,272.25,0.25,50,72.1
2063,F5,272.5,0.25,58,72.1
2064,G#5,272.5,0.5,69,72.1
2065,F4,272.5,0.25,51,72.1
2066,G#4,272.5,0.25,51,72.1
2067,B4,272.75,0.25,50,72.1
2068,E-4,272.75,0.25,51,72.1
2069,F#4,272.75,0.25,51,72.1
2070,F#5,273.0,0.25,59,72.1
2071,A5,273.0,0.5,74,72.1
2072,B3,273.0,2.0,53,72.1
2073,F4,273.0,229/500,54,72.1
2074,G#4,273.0,229/500,54,72.1
2075,C#5,273.25,0.25,51,72.1
2076,C#5,273.5,0.25,50,72.1
2077,F#5,273.5,229/500,73,72.1
2078,C#4,273.5,0.5,54,72.1
2079,F4,273.5,0.5,54,72.1
2080,A4,273.75,229/1000,51,72.1
2081,C#5,274.0,0.25,56,72.1
2082,F#5,274.0,479/500,73,72.1
2083,E-4,274.0,0.5,58,72.1
2084,F#4,274.0,0.5,58,72.1
2085,A4,274.25,0.25,51,72.1
2086,C#5,274.5,0.25,56,72.1
2087,F4,274.5,0.5,62,72.1
2088,G#4,274.5,0.5,62,72.1
2089,A4,274.75,229/1000,51,72.1
2090,F#5,275.0,0.25,78,72.1
2091,A5,275.0,0.5,78,72.1
2092,F#2,275.0,1.0,74,72.1
2093,C#3,275.0,1.0,74,72.1
2094,C#5,275.25,0.25,65,72.1
2095,A5,275.5,0.25,79,72.1
2096,C#6,275.5,0.5,79,72.1
2097,F#4,275.5,0.5,73,72.1
2098,F#5,275.75,0.25,65,72.1
2099,D6,276.0,3.0,89,72.1
2100,F#5,276.0,0.25,63,72.1
2101,A5,276.0,0.25,63,72.1
2102,A3,276.0,1.0,71,72.1
2103,C#4,276.0,1.0,71,72.1
2104,F#4,276.0,1.0,71,72.1
2105,D5,276.25,0.25,45,72.1
2106,F#5,276.5,0.25,45,72.1
2107,A5,276.5,0.25,45,72.1
2108,D5,276.75,0.25,46,72.1
2109,F#5,277.0,0.25,47,72.1
2110,A5,277.0,0.25,47,72.1
2111,F#3,277.0,1.0,66,72.1
2112,A3,277.0,1.0,66,72.1
2113,C#4,277.0,1.0,66,72.1
2114,D5,277.25,0.25,48,72.1
2115,A5,277.5,0.25,48,72.1
2116,F#5,277.5,0.25,48,72.1
2117,D5,277.75,0.25,48,72.1
2118,A5,278.0,0.25,49,72.1
2119,F#5,278.0,0.25,49,72.1
2120,D2,278.0,3.0,74,72.1
2121,A2,278.0,3.0,74,72.1
2122,D5,278.25,0.25,50,72.1
2123,F#5,278.5,0.25,50,72.1
2124,A5,278.5,0.25,50,72.1
2125,D3,278.5,0.5,57,72.1
2126,F#3,278.5,0.5,57,72.1
2127,A3,278.5,0.5,57,72.1
2128,D5,278.75,0.25,51,72.1
2129,D6,279.0,1.0,89,72.1
2130,F#5,279.0,0.25,46,72.1
2131,A5,279.0,0.25,46,72.1
2132,F#3,279.0,1.0,57,72.1
2133,A3,279.0,1.0,57,72.1
2134,D4,279.0,1.0,57,72.1
2135,D5,279.25,0.25,43,72.1
2136,F#5,279.5,0.25,48,72.1
2137,A5,279.5,0.25,48,72.1
2138,D5,279.75,0.25,43,72.1
2139,E6,280.0,1.0,59,72.1
2140,A5,280.0,0.25,41,72.1
2141,D6,280.0,0.25,41,72.1
2142,F#4,280.0,0.5,60,72.1
2143,D4,280.0,0.5,60,72.1
2144,A3,280.0,0.5,60,72.1
2145,E5,280.25,0.25,37,72.1
2146,A5,280.5,0.25,43,72.1
2147,D6,280.5,0.25,43,72.1
2148,A4,280.5,0.5,59,72.1
2149,F#4,280.5,0.5,59,72.1
2150,D4,280.5,0.5,59,72.1
2151,E5,280.75,0.25,40,72.1
2152,F#6,281.0,1.0,67,72.1
2153,A5,281.0,0.25,45,72.1
2154,D6,281.0,0.25,45,72.1
2155,D4,281.0,3.0,64,72.1
2156,F#4,281.0,3.0,64,72.1
2157,A4,281.0,3.0,64,72.1
2158,F#5,281.25,0.25,42,72.1
2159,D6,281.5,0.25,48,72.1
2160,A5,281.5,0.25,48,72.1
2161,F#5,281.75,0.25,44,72.1
2162,F#6,282.0,3.0,69,72.1
2163,A5,282.0,0.25,42,72.1
2164,D6,282.0,0.25,42,72.1
2165,F#5,282.25,0.25,38,72.1
2166,A5,282.5,0.25,42,72.1
2167,D6,282.5,0.25,42,72.1
2168,F#5,282.75,0.25,37,72.1
2169,A5,283.0,0.25,39,72.1
2170,D6,283.0,0.25,39,72.1
2171,F#5,283.25,0.25,36,72.1
2172,A5,283.5,0.25,38,72.1
2173,D6,283.5,0.25,38,72.1
2174,F#5,283.75,0.25,34,72.1
2175,A5,284.0,0.25,36,72.1
2176,D6,284.0,0.25,36,72.1
2177,B1,284.0,3.0,52,72.1
2178,B2,284.0,3.0,52,72.1
2179,F#5,284.25,0.25,32,72.1
2180,A5,284.5,0.25,34,72.1
2181,D6,284.5,0.25,34,72.1
2182,D3,284.5,0.5,45,72.1
2183,A3,284.5,0.5,45,72.1
2184,F#3,284.5,0.5,45,72.1
2185,F#5,284.75,0.25,31,72.1
2186,F#6,285.0,1.0,69,72.1
2187,D6,285.0,0.25,35,72.1
2188,A5,285.0,0.25,35,72.1
2189,F#3,285.0,1.0,44,72.1
2190,A3,285.0,1.0,44,72.1
2191,D4,285.0,1.0,44,72.1
2192,F#5,285.25,0.25,34,72.1
2193,D6,285.5,0.25,33,72.1
2194,A5,285.5,0.25,33,72.1
2195,F#5,285.75,0.25,34,72.1
2196,D6,286.0,1.0,49,72.1
2197,F#5,286.0,0.25,33,72.1
2198,A5,286.0,0.25,33,72.1
2199,F#4,286.0,0.5,44,72.1
2200,D4,286.0,0.5,44,72.1
2201,A3,286.0,0.5,44,72.1
2202,D5,286.25,0.25,30,72.1
2203,F#5,286.5,0.25,28,72.1
2204,A5,286.5,0.25,28,72.1
2205,A4,286.5,0.5,41,72.1
2206,F#4,286.5,0.5,41,72.1
2207,D4,286.5,0.5,41,72.1
2208,D5,286.75,0.25,30,72.1
2209,F#6,287.0,1.0,52,72.1
2210,B5,287.0,0.25,33,72.1
2211,D6,287.0,0.25,33,72.1
2212,A4,287.0,1.0,41,72.1
2213,F#4,287.0,1.0,41,72.1
2214,D4,287.0,1.0,41,72.1
2215,F#5,287.25,0.25,30,72.1
2216,B5,287.5,0.25,28,72.1
2217,D6,287.5,0.25,28,72.1
2218,F#5,287.75,0.25,30,72.1
2219,A6,288.0,0.188,41,72.1
2220,E6,288.0,0.188,41,72.1
2221,A5,288.0,0.188,41,72.1
2222,E4,288.5,0.25,33,72.1
2223,A4,288.5,0.25,33,72.1
2224,D4,288.75,0.25,33,72.1
2225,A4,289.0,0.062,37,72.1
2226,E4,289.0,0.062,37,72.1
2227,B4,289.0,0.25,35,72.1
2228,F#4,289.0,0.25,35,72.1
2229,D4,289.0,0.25,35,72.1
2230,B3,289.0,0.25,35,72.1
2231,E4,289.5,0.125,33,72.1
2232,A4,289.5,0.125,33,72.1
2233,A1,290.0,0.188,38,72.1
2234,E2,290.0,0.188,38,72.1
2235,A2,290.0,0.188,38,72.1
2236,B5,290.5,0.125,34,72.1
2237,G5,290.5,0.125,34,72.1
2238,B4,290.5,0.125,34,72.1
2239,C4,290.5,0.25,34,72.1
2240,A3,290.5,0.25,34,72.1
2241,E3,290.75,0.25,34,72.1
2242,B3,290.75,0.25,34,72.1
2243,C6,291.0,0.125,41,72.1
2244,G5,291.0,0.125,41,72.1
2245,C5,291.0,0.125,41,72.1
2246,C4,291.0,0.062,37,72.1
2247,A3,291.0,0.062,37,72.1
2248,G4,291.5,0.25,33,72.1
2249,C5,291.5,0.25,33,72.1
2250,C4,291.5,0.125,33,72.1
2251,A3,291.5,0.125,33,72.1
2252,F4,291.75,0.25,33,72.1
2253,G4,292.0,0.062,36,72.1
2254,C5,292.0,0.062,36,72.1
2255,G4,292.5,0.125,33,72.1
2256,C5,292.5,0.125,33,72.1
2257,G2,292.5,0.125,33,72.1
2258,D3,292.5,0.125,33,72.1
2259,G3,292.5,0.125,33,72.1
2260,C2,293.0,0.125,36,72.1
2261,G2,293.0,0.125,36,72.1
2262,C3,293.0,0.125,36,72.1
2263,B5,293.5,0.125,34,72.1
2264,G5,293.5,0.125,34,72.1
2265,B4,293.5,0.125,34,72.1
2266,E4,293.5,0.25,34,72.1
2267,C4,293.5,0.25,34,72.1
2268,G3,293.75,0.25,34,72.1
2269,D4,293.75,0.25,34,72.1
2270,A5,294.0,0.125,40,72.1
2271,E5,294.0,0.125,40,72.1
2272,A4,294.0,0.125,40,72.1
2273,C4,294.0,0.062,36,72.1
2274,E4,294.0,0.062,36,72.1
2275,E4,294.5,0.25,33,72.1
2276,A4,294.5,0.25,33,72.1
2277,C4,294.5,0.125,33,72.1
2278,E4,294.5,0.125,33,72.1
2279,E4,294.75,0.25,33,72.1
2280,E4,295.0,0.062,36,72.1
2281,A4,295.0,0.062,36,72.1
2282,E4,295.5,0.125,32,72.1
2283,A4,295.5,0.125,32,72.1
2284,G2,295.5,0.125,33,72.1
2285,D3,295.5,0.125,33,72.1
2286,G3,295.5,0.125,33,72.1
2287,A2,296.0,0.125,35,72.1
2288,E3,296.0,0.125,35,72.1
2289,A3,296.0,0.125,35,72.1
2290,B5,296.5,0.125,37,72.1
2291,G5,296.5,0.125,37,72.1
2292,B4,296.5,0.125,37,72.1
2293,A3,296.5,0.25,34,72.1
2294,C4,296.5,0.25,34,72.1
2295,E3,296.75,0.25,34,72.1
2296,B3,296.75,0.25,34,72.1
2297,C6,297.0,0.125,41,72.1
2298,G5,297.0,0.125,41,72.1
2299,C5,297.0,0.125,41,72.1
2300,C4,297.0,0.062,36,72.1
2301,A3,297.0,0.062,36,72.1
2302,G4,297.5,0.25,32,72.1
2303,C5,297.5,0.25,32,72.1
2304,C4,297.5,0.125,32,72.1
2305,A3,297.5,0.125,32,72.1
2306,F4,297.75,0.25,32,72.1
2307,G4,298.0,0.062,35,72.1
2308,C5,298.0,0.062,35,72.1
2309,G4,298.5,0.125,32,72.1
2310,C5,298.5,0.125,32,72.1
2311,G2,298.5,0.125,32,72.1
2312,D3,298.5,0.125,32,72.1
2313,G3,298.5,0.125,32,72.1
2314,C2,299.0,0.125,37,72.1
2315,G2,299.0,0.125,37,72.1
2316,C3,299.0,0.125,37,72.1
2317,B5,299.5,0.125,33,72.1
2318,G5,299.5,0.125,33,72.1
2319,B4,299.5,0.125,33,72.1
2320,E4,299.5,0.25,33,72.1
2321,C4,299.5,0.25,33,72.1
2322,G3,299.75,0.25,33,72.1
2323,D4,299.75,0.25,33,72.1
2324,B4,300.0,0.125,35,72.1
2325,G5,300.0,0.125,35,72.1
2326,B5,300.0,0.125,35,72.1
2327,C4,300.0,0.062,35,72.1
2328,E4,300.0,0.062,35,72.1
2329,C4,300.5,0.125,32,72.1
2330,E4,300.5,0.125,32,72.1
2331,E4,301.5,0.125,32,72.1
2332,B3,301.5,0.125,32,72.1
2333,E3,301.5,0.125,32,72.1
2334,E3,302.0,0.125,34,72.1
2335,B3,302.0,0.125,34,72.1
2336,E4,302.0,0.125,34,72.1
2337,E4,303.0,1083/1000,51,72.1
2338,E2,303.0,0.5,40,72.1
2339,E3,304.0,0.5,44,72.1
2340,F4,304.083,83/1000,33,72.1
2341,G4,304.167,83/1000,33,72.1
2342,A4,304.25,83/1000,33,72.1
2343,B4,304.333,83/1000,33,72.1
2344,C5,304.417,83/1000,33,72.1
2345,D5,304.5,83/1000,33,72.1
2346,E5,304.583,83/1000,33,72.1
2347,F5,304.667,83/1000,33,72.1
2348,G5,304.75,83/1000,33,72.1
2349,A5,304.833,83/1000,33,72.1
2350,B5,304.917,83/1000,33,72.1
2351,C6,305.0,83/1000,33,72.1
2352,D6,305.083,83/1000,33,72.1
2353,E6,305.167,83/1000,33,72.1
2354,F6,305.25,83/1000,33,72.1
2355,G6,305.333,83/1000,33,72.1
2356,A6,305.417,83/1000,33,72.1
2357,B6,305.5,83/1000,33,72.1
2358,C7,305.583,83/1000,33,72.1
2359,D7,305.667,83/1000,33,72.1
2360,E7,305.75,83/1000,33,72.1
2361,F7,305.833,83/1000,33,72.1
2362,G7,305.917,83/1000,33,72.1
2363,A7,306.0,0.5,38,72.1
2364,C2,306.0,0.5,38,72.1
2365,B1,307.0,0.5,36,72.1
2366,A1,308.0,0.5,36,72.1
2367,A3,309.0,0.25,27,72.1
2368,A1,311.0,0.25,24,72.1
2369,A2,311.0,0.25,24,72.1
