,note_name,start_time,duration,velocity,tempo
0,F4,0.5,4.0,40,100.0
1,G#4,0.5,4.0,40,100.0
2,G#5,1.0,2.0,40,100.0
3,F5,1.0,2.0,40,100.0
4,F5,3.0,1.5,36,100.0
5,C#5,3.0,1.5,36,100.0
6,F5,4.5,0.5,36,100.0
7,C#5,4.5,0.5,36,100.0
8,A4,4.5,4.5,33,100.0
9,F#4,4.5,4.5,33,100.0
10,C5,5.0,0.5,34,100.0
11,E-5,5.0,0.5,34,100.0
12,C#5,5.5,0.5,30,100.0
13,F5,5.5,0.5,30,100.0
14,E-5,6.0,3.0,28,100.0
15,C5,6.0,3.0,28,100.0
16,F4,9.0,4.5,36,100.0
17,G#4,9.0,4.5,36,100.0
18,E-5,9.5,0.5,28,100.0
19,C5,9.5,0.5,28,100.0
20,C#5,10.0,0.5,37,100.0
21,B-4,10.0,0.5,37,100.0
22,E-5,10.5,0.5,31,100.0
23,C5,10.5,0.5,31,100.0
24,B-4,11.0,3.0,27,100.0
25,C#5,11.0,0.75,32,100.0
26,F5,11.75,1.5,46,100.0
27,C#5,13.25,0.75,45,100.0
28,E-4,13.5,1123/250,35,100.0
29,F#4,13.5,1123/250,35,100.0
30,B-4,14.0,0.5,27,100.0
31,C#5,14.0,0.5,45,100.0
32,C5,14.5,0.5,31,100.0
33,G#4,14.5,0.5,31,100.0
34,B-4,15.0,0.5,28,100.0
35,C#5,15.0,0.5,28,100.0
36,C5,15.5,3.0,24,100.0
37,G#4,15.5,3.0,24,100.0
38,E-4,18.0,3.0,34,100.0
39,C#4,18.0,3.0,34,100.0
40,F#4,18.5,3.0,33,100.0
41,C5,18.5,0.5,24,100.0
42,G#4,18.5,0.5,24,100.0
43,B-4,19.0,0.5,39,100.0
44,C5,19.5,0.5,36,100.0
45,B-4,20.0,0.5,36,100.0
46,E-5,20.5,0.5,39,100.0
47,B-4,21.0,0.5,37,100.0
48,C4,21.0,187/125,30,100.0
49,E-4,21.0,187/125,30,100.0
50,G#4,21.5,0.5,40,100.0
51,F#4,21.5,1.5,28,100.0
52,B-4,22.0,0.5,37,100.0
53,G#4,22.5,0.5,36,100.0
54,B-3,22.5,3.0,32,100.0
55,C#4,22.5,3.0,32,100.0
56,E-4,23.0,3.0,30,100.0
57,G#4,23.0,0.5,36,100.0
58,F#4,23.5,0.5,34,100.0
59,G#4,24.0,0.5,33,100.0
60,F#4,24.5,1.5,33,100.0
61,A3,25.5,1.5,30,100.0
62,C4,25.5,1.5,30,100.0
63,E-4,26.0,1.5,30,100.0
64,F4,26.0,1.5,34,100.0
65,G#3,27.0,3.0,28,100.0
66,B-3,27.0,562/125,33,100.0
67,C#4,27.5,3.0,28,100.0
68,F4,27.5,0.5,34,100.0
69,F4,28.0,0.5,38,100.0
70,F#4,28.5,0.5,37,100.0
71,F4,29.0,0.5,37,100.0
72,B-4,29.5,0.5,39,100.0
73,F4,30.0,0.5,37,100.0
74,F#3,30.0,1.5,38,100.0
75,E-4,30.5,0.5,39,100.0
76,F4,31.0,0.5,37,100.0
77,E-4,31.5,0.5,37,100.0
78,F3,31.5,3.0,26,100.0
79,G#3,31.5,187/125,31,100.0
80,B-3,32.0,3.0,28,100.0
81,E-4,32.0,0.5,37,100.0
82,C#4,32.5,0.5,34,100.0
83,E-4,33.0,0.5,34,100.0
84,C#4,33.5,1.5,34,100.0
85,E-3,34.5,0.75,23,100.0
86,F#3,34.5,1.5,28,100.0
87,G#3,35.0,1.5,24,100.0
88,C4,35.0,1.5,24,100.0
89,G#2,35.25,0.75,28,100.0
90,C#2,36.0,0.5,30,100.0
91,G#2,36.0,0.5,28,100.0
92,G#3,37.0,0.5,26,100.0
93,F3,37.0,0.5,26,100.0
94,F4,37.0,3.5,33,100.0
95,G#4,37.0,3.5,33,100.0
96,G#5,38.0,1.5,36,100.0
97,F5,38.0,1.5,36,100.0
98,C#5,39.5,1.5,32,100.0
99,F5,39.5,1.5,32,100.0
100,F#2,40.5,3.0,30,100.0
101,C#3,40.5,3.0,30,100.0
102,C#5,41.0,0.5,32,100.0
103,F5,41.0,0.5,32,100.0
104,C#4,41.0,4.0,23,100.0
105,B-3,41.0,4.0,23,100.0
106,F#3,41.0,4.0,23,100.0
107,C#3,41.0,4.0,23,100.0
108,E-5,41.5,0.5,42,100.0
109,F#4,41.5,4.0,27,100.0
110,B-4,41.5,4.0,27,100.0
111,F5,42.0,0.5,37,100.0
112,E-5,42.5,3.0,31,100.0
113,F2,45.0,3.0,33,100.0
114,C#3,45.0,3.0,33,100.0
115,E-5,45.5,0.5,31,100.0
116,F3,45.5,1.0,30,100.0
117,G#3,45.5,1.0,30,100.0
118,G#4,46.0,1.0,39,100.0
119,C#5,46.0,0.5,36,100.0
120,C#4,46.0,0.5,36,100.0
121,E-5,46.5,0.5,37,100.0
122,E-4,46.5,0.5,37,100.0
123,F4,46.5,1.5,30,100.0
124,C#4,46.5,1.5,30,100.0
125,G#4,47.0,1.5,36,100.0
126,C#5,47.0,1.5,36,100.0
127,G#5,47.0,1.5,36,100.0
128,G#3,48.0,1.5,30,100.0
129,C#4,48.0,1.5,30,100.0
130,F5,48.5,1.5,38,100.0
131,C#5,48.5,1.5,32,100.0
132,F4,48.5,1.5,32,100.0
133,F#2,49.5,3.0,30,100.0
134,C#3,49.5,3.0,30,100.0
135,F5,50.0,0.5,38,100.0
136,C#4,50.0,4.0,23,100.0
137,B-3,50.0,4.0,23,100.0
138,F#3,50.0,4.0,23,100.0
139,C#3,50.0,4.0,23,100.0
140,E-5,50.5,0.5,42,100.0
141,F#4,50.5,4.0,27,100.0
142,B-4,50.5,4.0,27,100.0
143,F5,51.0,0.5,37,100.0
144,E-5,51.5,1.5,31,100.0
145,C#5,53.0,1.5,37,100.0
146,G#2,54.0,4.5,36,100.0
147,C#5,54.5,0.5,37,100.0
148,F3,54.5,1.0,30,100.0
149,B3,54.5,1.0,30,100.0
150,G#4,55.0,1.0,33,100.0
151,C#5,55.0,0.5,36,100.0
152,C#4,55.0,0.5,36,100.0
153,E-4,55.5,0.5,37,100.0
154,E-5,55.5,0.5,37,100.0
155,F4,55.5,2.0,30,100.0
156,C#4,55.5,2.0,30,100.0
157,B3,55.5,2.0,30,100.0
158,F5,56.0,3.0,45,100.0
159,B-4,56.0,0.75,44,100.0
160,B-5,56.0,0.75,44,100.0
161,G#5,56.75,1.5,42,100.0
162,G#4,56.75,1.5,42,100.0
163,F4,58.25,0.75,40,100.0
164,F5,58.25,0.75,40,100.0
165,B-2,58.5,3.0,39,100.0
166,E-4,59.0,1.75,40,100.0
167,F4,59.0,0.5,40,100.0
168,F5,59.0,0.5,40,100.0
169,F3,59.0,4.0,32,100.0
170,B-3,59.0,4.0,32,100.0
171,E-5,59.5,0.5,40,100.0
172,F4,59.5,4.0,32,100.0
173,B-4,59.5,4.0,32,100.0
174,F5,60.0,0.5,37,100.0
175,E-5,60.5,0.75,33,100.0
176,C#4,60.75,2.25,37,100.0
177,C#5,61.25,1.5,37,100.0
178,B-4,62.75,0.75,33,100.0
179,E-1,63.0,3.0,33,100.0
180,E-2,63.0,3.0,33,100.0
181,F4,63.75,2.25,32,100.0
182,B-4,63.75,1.75,32,100.0
183,F#4,63.75,1.75,32,100.0
184,B-5,64.25,1.75,37,100.0
185,F5,64.25,2.25,38,100.0
186,F6,64.25,2.25,38,100.0
187,E-4,65.0,0.5,31,100.0
188,F#4,65.0,479/500,31,100.0
189,B-4,65.0,479/500,31,100.0
190,B-5,65.5,479/500,36,100.0
191,E-6,65.5,0.5,38,100.0
192,E-5,65.5,0.5,38,100.0
193,E-4,65.5,0.5,31,100.0
194,F#4,65.5,0.5,31,100.0
195,B-4,65.5,0.5,31,100.0
196,B-5,66.0,229/500,37,100.0
197,E-6,66.0,229/500,37,100.0
198,E-5,66.0,229/500,37,100.0
199,E-4,66.0,0.5,32,100.0
200,F#4,66.0,0.5,32,100.0
201,B-4,66.0,0.5,32,100.0
202,E-5,66.5,0.5,39,100.0
203,E-6,66.5,0.5,39,100.0
204,B-5,66.5,0.5,39,100.0
205,C#4,66.5,0.5,31,100.0
206,F#4,66.5,0.5,31,100.0
207,B-4,66.5,0.5,31,100.0
208,B-5,67.0,0.5,38,100.0
209,C#5,67.0,0.5,38,100.0
210,C#6,67.0,0.5,38,100.0
211,C#4,67.0,229/500,31,100.0
212,F#4,67.0,229/500,31,100.0
213,B-4,67.0,229/500,31,100.0
214,C#5,67.5,229/500,38,100.0
215,C#6,67.5,229/500,38,100.0
216,B-5,67.5,229/500,38,100.0
217,C#4,67.5,0.5,34,100.0
218,F#4,67.5,0.5,34,100.0
219,B-4,67.5,0.5,34,100.0
220,C#6,68.0,0.5,39,100.0
221,C#5,68.0,0.5,39,100.0
222,B-5,68.0,0.5,39,100.0
223,C4,68.0,0.5,32,100.0
224,F#4,68.0,0.5,32,100.0
225,B-4,68.0,0.5,32,100.0
226,B-5,68.5,0.5,37,100.0
227,F#5,68.5,0.5,37,100.0
228,C5,68.5,0.5,37,100.0
229,C6,68.5,0.5,37,100.0
230,C4,68.5,229/500,32,100.0
231,F#4,68.5,229/500,32,100.0
232,B-4,68.5,229/500,32,100.0
233,C5,69.0,229/500,37,100.0
234,B-5,69.0,229/500,37,100.0
235,C6,69.0,229/500,37,100.0
236,F#5,69.0,229/500,37,100.0
237,C4,69.0,0.75,31,100.0
238,F#4,69.0,0.75,31,100.0
239,B-4,69.0,0.75,31,100.0
240,C6,69.5,0.75,37,100.0
241,C5,69.5,0.75,37,100.0
242,B-5,69.5,0.75,37,100.0
243,F#5,69.5,0.75,37,100.0
244,C#4,69.75,0.75,30,100.0
245,F#4,69.75,0.75,30,100.0
246,B-4,69.75,0.75,30,100.0
247,B-5,70.25,0.75,34,100.0
248,C#5,70.25,0.75,34,100.0
249,C#6,70.25,0.75,34,100.0
250,B-3,70.5,1.5,28,100.0
251,C#4,70.5,1.5,28,100.0
252,F#4,70.5,1.5,28,100.0
253,B-4,71.0,1.5,34,100.0
254,B-5,71.0,1.5,34,100.0
255,F#5,71.0,1.5,34,100.0
256,B-2,72.0,3.0,32,100.0
257,E-1,72.0,3.0,32,100.0
258,E-2,72.0,3.0,32,100.0
259,F4,72.75,276/125,34,100.0
260,B-4,72.75,1.75,34,100.0
261,F#4,72.75,1.75,34,100.0
262,B-5,73.25,1.75,46,100.0
263,F6,73.25,276/125,47,100.0
264,F5,73.25,276/125,47,100.0
265,E-5,74.0,0.5,34,100.0
266,F#4,74.0,479/500,34,100.0
267,B-4,74.0,479/500,34,100.0
268,B-5,74.5,479/500,40,100.0
269,F#5,74.5,0.5,41,100.0
270,F#6,74.5,0.5,41,100.0
271,F4,74.5,0.5,32,100.0
272,F#4,74.5,0.5,32,100.0
273,B-4,74.5,0.5,32,100.0
274,B-5,75.0,0.5,37,100.0
275,F6,75.0,0.5,37,100.0
276,F5,75.0,0.5,37,100.0
277,E-4,75.0,229/500,33,100.0
278,F#4,75.0,229/500,33,100.0
279,B-4,75.0,229/500,33,100.0
280,E-6,75.5,229/500,39,100.0
281,E-5,75.5,229/500,39,100.0
282,B-5,75.5,229/500,39,100.0
283,F4,75.5,0.5,32,100.0
284,F#4,75.5,0.5,32,100.0
285,B-4,75.5,0.5,32,100.0
286,F5,76.0,0.5,38,100.0
287,F6,76.0,0.5,38,100.0
288,B-5,76.0,0.5,38,100.0
289,E-4,76.0,0.5,32,100.0
290,F#4,76.0,0.5,32,100.0
291,B-4,76.0,0.5,32,100.0
292,B-5,76.5,0.5,38,100.0
293,E-6,76.5,0.5,38,100.0
294,E-5,76.5,0.5,38,100.0
295,C#4,76.5,229/500,35,100.0
296,F#4,76.5,229/500,35,100.0
297,B-4,76.5,229/500,35,100.0
298,C#6,77.0,229/500,39,100.0
299,B-5,77.0,229/500,39,100.0
300,C#5,77.0,229/500,39,100.0
301,E-4,77.0,0.5,33,100.0
302,F#4,77.0,0.5,33,100.0
303,B-4,77.0,0.5,33,100.0
304,B-5,77.5,0.5,37,100.0
305,E-5,77.5,0.5,37,100.0
306,E-6,77.5,0.5,37,100.0
307,C#4,77.5,229/500,33,100.0
308,F#4,77.5,229/500,33,100.0
309,B-4,77.5,229/500,33,100.0
310,C#5,78.0,229/500,37,100.0
311,B-5,78.0,229/500,37,100.0
312,C#6,78.0,229/500,37,100.0
313,C4,78.0,0.75,32,100.0
314,F#4,78.0,0.75,32,100.0
315,B-4,78.0,0.75,32,100.0
316,B-5,78.5,0.688,37,100.0
317,C5,78.5,0.688,37,100.0
318,C6,78.5,0.688,37,100.0
319,C#4,78.75,0.75,31,100.0
320,F#4,78.75,0.75,31,100.0
321,B-4,78.75,0.75,31,100.0
322,E-6,79.188,0.062,43,100.0
323,C#6,79.25,0.75,35,100.0
324,C#5,79.25,0.75,35,100.0
325,B-5,79.25,0.75,35,100.0
326,B-3,79.5,1.5,30,100.0
327,E-4,79.5,1.5,30,100.0
328,F#4,79.5,1.5,30,100.0
329,B-4,80.0,1.5,34,100.0
330,F#5,80.0,1.5,34,100.0
331,B-5,80.0,1.5,34,100.0
332,G#1,81.0,3.0,38,100.0
333,G#2,81.0,3.0,38,100.0
334,B-4,81.5,0.75,34,100.0
335,F#5,81.5,0.75,34,100.0
336,B-5,81.5,0.75,34,100.0
337,F#3,81.75,0.75,48,100.0
338,F#5,82.25,0.75,50,100.0
339,F#4,82.25,0.75,50,100.0
340,G#3,82.5,0.75,38,100.0
341,E-4,82.5,1.5,36,100.0
342,C4,82.5,1.5,36,100.0
343,E-5,83.0,0.75,46,100.0
344,G#5,83.0,0.75,46,100.0
345,G#4,83.0,0.75,46,100.0
346,C4,83.25,0.75,50,100.0
347,C5,83.75,0.75,50,100.0
348,C6,83.75,0.75,50,100.0
349,B-3,84.0,0.75,39,100.0
350,F#4,84.0,1.5,37,100.0
351,E-4,84.0,1.5,37,100.0
352,B-4,84.5,0.75,47,100.0
353,B-5,84.5,0.75,47,100.0
354,F#5,84.5,0.75,47,100.0
355,F#3,84.75,0.75,44,100.0
356,F#4,85.25,0.75,45,100.0
357,F#5,85.25,0.75,45,100.0
358,A1,85.5,3.0,38,100.0
359,A2,85.5,3.0,38,100.0
360,E-4,86.0,0.5,30,100.0
361,C4,86.0,0.5,30,100.0
362,F#3,86.0,0.5,30,100.0
363,E-5,86.5,0.5,37,100.0
364,F#4,86.5,0.5,37,100.0
365,F#5,86.5,0.5,37,100.0
366,C5,86.5,0.5,37,100.0
367,E-4,86.5,479/1000,30,100.0
368,C4,86.5,479/1000,30,100.0
369,F#3,86.5,479/1000,30,100.0
370,F#4,87.0,479/1000,37,100.0
371,C5,87.0,479/1000,37,100.0
372,E-5,87.0,479/1000,37,100.0
373,F#5,87.0,479/1000,37,100.0
374,E-4,87.0,0.5,33,100.0
375,C4,87.0,0.5,33,100.0
376,F#3,87.0,0.5,33,100.0
377,E-5,87.5,0.5,40,100.0
378,F#5,87.5,0.5,40,100.0
379,F#4,87.5,0.5,40,100.0
380,C5,87.5,0.5,40,100.0
381,E-4,87.5,229/500,31,100.0
382,C4,87.5,229/500,31,100.0
383,F#3,87.5,229/500,31,100.0
384,C5,88.0,229/500,38,100.0
385,E-5,88.0,229/500,38,100.0
386,F#5,88.0,229/500,38,100.0
387,F#4,88.0,229/500,38,100.0
388,G#3,88.0,0.5,34,100.0
389,C4,88.0,0.5,34,100.0
390,E-4,88.0,0.5,34,100.0
391,G#5,88.5,0.5,41,100.0
392,C5,88.5,0.5,41,100.0
393,G#4,88.5,0.5,41,100.0
394,E-5,88.5,0.5,41,100.0
395,F#3,88.5,1.5,33,100.0
396,C4,88.5,1.5,33,100.0
397,E-4,88.5,1.5,33,100.0
398,F#4,89.0,1.5,40,100.0
399,F#5,89.0,1.5,40,100.0
400,C5,89.0,1.5,40,100.0
401,E-5,89.0,1.5,40,100.0
402,B-1,90.0,3.0,42,100.0
403,B-2,90.0,3.0,42,100.0
404,F#3,90.75,0.75,40,100.0
405,C#4,90.75,1.5,38,100.0
406,B-3,90.75,1.5,38,100.0
407,C#5,91.25,1.5,45,100.0
408,F#4,91.25,0.75,47,100.0
409,F#5,91.25,0.75,47,100.0
410,G#3,91.5,0.75,45,100.0
411,G#4,92.0,0.75,58,100.0
412,G#5,92.0,0.75,58,100.0
413,C#4,92.25,0.75,44,100.0
414,C#6,92.75,0.75,58,100.0
415,C#5,92.75,0.75,58,100.0
416,B-3,93.0,0.75,43,100.0
417,F#4,93.0,1.5,43,100.0
418,C#4,93.0,1.5,43,100.0
419,F#5,93.5,1.5,52,100.0
420,B-4,93.5,0.75,50,100.0
421,B-5,93.5,0.75,50,100.0
422,F#3,93.75,0.75,41,100.0
423,F#5,94.25,0.75,50,100.0
424,F#4,94.25,0.75,50,100.0
425,C2,94.5,3.0,42,100.0
426,C3,94.5,3.0,42,100.0
427,E-4,95.0,0.5,33,100.0
428,B-3,95.0,0.5,33,100.0
429,F#3,95.0,0.5,33,100.0
430,B-4,95.5,0.5,40,100.0
431,F#4,95.5,0.5,40,100.0
432,E-5,95.5,0.5,40,100.0
433,F#5,95.5,0.5,40,100.0
434,E-4,95.5,479/1000,33,100.0
435,B-3,95.5,479/1000,33,100.0
436,F#3,95.5,479/1000,33,100.0
437,B-4,96.0,479/1000,40,100.0
438,E-5,96.0,479/1000,40,100.0
439,F#4,96.0,479/1000,40,100.0
440,F#5,96.0,479/1000,40,100.0
441,E-4,96.0,0.5,35,100.0
442,B-3,96.0,0.5,35,100.0
443,F#3,96.0,0.5,35,100.0
444,B-4,96.5,0.5,43,100.0
445,F#5,96.5,0.5,43,100.0
446,F#4,96.5,0.5,43,100.0
447,E-5,96.5,0.5,43,100.0
448,E-4,96.5,229/500,34,100.0
449,B-3,96.5,229/500,34,100.0
450,F#3,96.5,229/500,34,100.0
451,F#4,97.0,229/500,41,100.0
452,B-4,97.0,229/500,41,100.0
453,E-5,97.0,229/500,41,100.0
454,F#5,97.0,229/500,41,100.0
455,G#3,97.0,0.5,36,100.0
456,C4,97.0,0.5,36,100.0
457,F4,97.0,0.5,36,100.0
458,C5,97.5,0.5,44,100.0
459,G#4,97.5,0.5,44,100.0
460,G#5,97.5,0.5,44,100.0
461,F5,97.5,0.5,44,100.0
462,F#3,97.5,1.5,35,100.0
463,B-3,97.5,1.5,35,100.0
464,E-4,97.5,1.5,35,100.0
465,B-4,98.0,1.5,43,100.0
466,E-5,98.0,1.5,43,100.0
467,F#5,98.0,1.5,43,100.0
468,F#4,98.0,1.5,43,100.0
469,C#2,99.0,3.0,47,100.0
470,C#3,99.0,3.0,47,100.0
471,F#3,99.75,0.75,44,100.0
472,C#4,99.75,1.5,41,100.0
473,B-3,99.75,1.5,41,100.0
474,F#5,100.25,0.75,58,100.0
475,F#4,100.25,0.75,58,100.0
476,C#5,100.25,1.5,49,100.0
477,B-4,100.25,1.5,49,100.0
478,G#3,100.5,0.75,49,100.0
479,G#4,101.0,0.75,66,100.0
480,G#5,101.0,0.75,66,100.0
481,E-4,101.25,0.75,51,100.0
482,E-6,101.75,0.75,66,100.0
483,E-5,101.75,0.75,66,100.0
484,C#4,102.0,0.75,47,100.0
485,B-4,102.0,1.5,47,100.0
486,F#4,102.0,1.5,47,100.0
487,C#5,102.5,0.75,56,100.0
488,C#6,102.5,0.75,56,100.0
489,F#5,102.5,1.5,49,100.0
490,B-5,102.5,1.5,49,100.0
491,B-3,102.75,0.75,49,100.0
492,B-4,103.25,0.75,61,100.0
493,B-5,103.25,0.75,61,100.0
494,E-2,103.5,3.0,45,100.0
495,E-3,103.5,3.0,45,100.0
496,E-4,104.0,0.5,40,100.0
497,B-3,104.0,0.5,40,100.0
498,F#3,104.0,0.5,40,100.0
499,B-5,104.5,0.5,49,100.0
500,B-4,104.5,0.5,49,100.0
501,F#5,104.5,0.5,49,100.0
502,E-4,104.5,479/1000,40,100.0
503,B-3,104.5,479/1000,40,100.0
504,F#3,104.5,479/1000,40,100.0
505,B-5,105.0,0.5,49,100.0
506,F#5,105.0,0.5,49,100.0
507,B-4,105.0,0.5,49,100.0
508,E-4,105.0,0.5,43,100.0
509,B-3,105.0,0.5,43,100.0
510,F#3,105.0,0.5,43,100.0
511,B-5,105.5,0.5,52,100.0
512,B-4,105.5,0.5,52,100.0
513,F#5,105.5,0.5,52,100.0
514,E-4,105.5,229/500,41,100.0
515,B-3,105.5,229/500,41,100.0
516,F#3,105.5,229/500,41,100.0
517,B-4,106.0,229/500,50,100.0
518,B-5,106.0,229/500,50,100.0
519,F#5,106.0,229/500,50,100.0
520,G#3,106.0,0.5,42,100.0
521,C4,106.0,0.5,42,100.0
522,F4,106.0,0.5,42,100.0
523,G#5,106.5,0.5,51,100.0
524,C5,106.5,0.5,51,100.0
525,C6,106.5,0.5,51,100.0
526,E-4,106.5,229/500,42,100.0
527,B-3,106.5,229/500,42,100.0
528,F#3,106.5,229/500,42,100.0
529,F#5,107.0,229/500,51,100.0
530,B-4,107.0,229/500,51,100.0
531,B-5,107.0,229/500,51,100.0
532,C#4,107.0,0.5,43,100.0
533,F#4,107.0,0.5,43,100.0
534,B-4,107.0,0.5,43,100.0
535,B-5,107.5,0.5,52,100.0
536,C#5,107.5,0.5,52,100.0
537,C#6,107.5,0.5,52,100.0
538,E-4,107.5,0.25,45,100.0
539,F#4,107.5,0.25,45,100.0
540,B-4,107.5,0.25,45,100.0
541,F4,107.75,0.25,38,100.0
542,G#4,107.75,0.25,38,100.0
543,C#5,107.833,167/1000,41,100.0
544,F5,107.833,167/1000,41,100.0
545,E-6,108.0,0.25,56,100.0
546,E-5,108.0,0.25,56,100.0
547,B-5,108.0,0.25,56,100.0
548,F4,108.0,677/250,38,100.0
549,G#4,108.0,677/250,38,100.0
550,C#5,108.0,677/250,41,100.0
551,F5,108.0,677/250,41,100.0
552,G#5,108.417,83/1000,54,100.0
553,C#6,108.417,83/1000,54,100.0
554,G#6,108.5,2.75,65,100.0
555,G#5,108.5,677/250,54,100.0
556,C#6,108.5,677/250,54,100.0
557,E4,110.75,293/200,34,100.0
558,G#4,110.75,293/200,34,100.0
559,B-4,110.821,697/500,35,100.0
560,C#5,110.821,697/500,35,100.0
561,E5,110.892,679/500,37,100.0
562,G#5,111.427,161/125,48,100.0
563,C#6,111.427,161/125,48,100.0
564,G#6,111.5,1.25,55,100.0
565,E-4,112.25,0.25,34,100.0
566,F#4,112.25,0.25,34,100.0
567,G#4,112.321,179/1000,35,100.0
568,C#5,112.321,179/1000,35,100.0
569,E-5,112.392,27/250,37,100.0
570,E-5,112.5,2.75,37,100.0
571,E-4,112.5,543/200,34,100.0
572,F#4,112.5,543/200,34,100.0
573,G#4,112.5,543/200,35,100.0
574,C#5,112.5,543/200,35,100.0
575,G#5,112.927,73/1000,48,100.0
576,C#6,112.927,73/1000,48,100.0
577,G#6,113.0,2.75,55,100.0
578,G#5,113.0,543/200,48,100.0
579,C#6,113.0,543/200,48,100.0
580,G#3,115.25,427/250,28,100.0
581,E-4,115.25,427/250,28,100.0
582,F#4,115.333,1.625,30,100.0
583,C5,115.333,1.625,30,100.0
584,G#4,115.917,771/500,32,100.0
585,E-5,115.917,771/500,32,100.0
586,G#5,116.0,1.5,39,100.0
587,C#2,117.0,0.75,32,100.0
588,G#2,117.25,0.25,30,100.0
589,C#3,117.5,0.25,30,100.0
590,G#4,117.5,3.0,38,100.0
591,F4,117.5,3.0,38,100.0
592,F3,117.75,0.25,30,100.0
593,G#3,118.0,0.25,30,100.0
594,C#4,118.25,0.25,30,100.0
595,F2,118.5,0.75,33,100.0
596,C3,118.75,0.25,26,100.0
597,F3,119.0,0.25,27,100.0
598,G#3,119.25,0.25,28,100.0
599,C4,119.5,0.25,30,100.0
600,F4,119.75,0.25,31,100.0
601,G#2,120.0,0.75,34,100.0
602,E3,120.25,0.25,32,100.0
603,G#4,120.5,1.5,36,100.0
604,B4,120.5,1.0,39,100.0
605,G#3,120.5,0.25,32,100.0
606,B3,120.75,0.25,32,100.0
607,E4,121.0,0.25,32,100.0
608,G#4,121.25,123/500,32,100.0
609,C#5,121.5,0.5,37,100.0
610,C#2,121.5,0.75,33,100.0
611,G#2,121.75,0.25,30,100.0
612,F4,122.0,2729/1000,37,100.0
613,G#4,122.0,3.0,40,100.0
614,C#3,122.0,0.25,30,100.0
615,F3,122.25,0.25,30,100.0
616,G#3,122.5,0.25,30,100.0
617,C#4,122.75,0.25,30,100.0
618,F2,123.0,0.75,33,100.0
619,C3,123.25,0.25,30,100.0
620,F3,123.5,0.25,30,100.0
621,G#3,123.75,0.25,31,100.0
622,C4,124.0,0.25,32,100.0
623,F4,124.25,0.25,32,100.0
624,G#2,124.5,0.75,34,100.0
625,E3,124.75,0.25,32,100.0
626,G#3,125.0,0.25,32,100.0
627,G#4,125.0,1.0,38,100.0
628,B4,125.0,1.0,38,100.0
629,B3,125.25,0.25,32,100.0
630,E4,125.75,0.25,32,100.0
631,G#4,126.0,0.5,40,100.0
632,C#2,126.0,0.25,33,100.0
633,G#2,126.25,0.25,33,100.0
634,C#3,126.5,0.25,33,100.0
635,F4,126.5,1.0,44,100.0
636,C#5,126.5,1.0,44,100.0
637,F3,126.75,0.25,33,100.0
638,G#3,127.0,0.25,33,100.0
639,C#4,127.25,0.25,33,100.0
640,F4,127.5,0.25,34,100.0
641,E-5,127.5,0.5,42,100.0
642,G#4,127.5,0.5,42,100.0
643,G#4,127.75,0.25,34,100.0
644,F4,128.0,0.25,34,100.0
645,F5,128.0,1.5,46,100.0
646,C#5,128.0,1.5,46,100.0
647,C#4,128.25,0.25,34,100.0
648,G#3,128.5,0.25,34,100.0
649,F3,128.75,0.25,36,100.0
650,G#3,129.0,0.25,36,100.0
651,F3,129.25,0.25,36,100.0
652,C#3,129.5,0.25,36,100.0
653,F4,129.5,1.0,45,100.0
654,C#5,129.5,1.0,45,100.0
655,G#2,129.75,0.25,36,100.0
656,C#3,130.0,0.25,36,100.0
657,G#2,130.25,0.25,37,100.0
658,E-2,130.5,0.25,37,100.0
659,C#5,130.5,0.5,46,100.0
660,F5,130.5,0.5,46,100.0
661,B-2,130.75,0.25,37,100.0
662,E-3,131.0,0.25,37,100.0
663,G5,131.0,0.5,51,100.0
664,E-5,131.0,0.5,51,100.0
665,G3,131.25,0.25,37,100.0
666,B-3,131.5,0.25,37,100.0
667,F5,131.5,0.5,45,100.0
668,C#5,131.5,0.5,45,100.0
669,E-4,131.75,0.25,37,100.0
670,C#5,132.0,0.5,45,100.0
671,B-4,132.0,0.5,45,100.0
672,E-4,132.25,0.25,36,100.0
673,G4,132.5,0.5,43,100.0
674,B-3,132.5,0.25,36,100.0
675,B-4,132.5,1.5,40,100.0
676,C#5,132.5,1.5,40,100.0
677,G3,132.75,0.25,34,100.0
678,F4,133.0,0.5,36,100.0
679,E-3,133.0,0.25,34,100.0
680,B-2,133.25,0.25,34,100.0
681,C#4,133.5,0.5,34,100.0
682,E-2,133.5,0.25,33,100.0
683,B-2,133.75,0.25,33,100.0
684,C#4,134.0,0.75,38,100.0
685,E-3,134.0,0.25,33,100.0
686,G3,134.25,0.25,33,100.0
687,E-3,134.5,0.25,33,100.0
688,B-3,134.75,0.75,36,100.0
689,B-2,134.75,0.25,33,100.0
690,G#2,135.0,1.5,37,100.0
691,E-3,135.25,0.25,33,100.0
692,B-4,135.5,3.0,52,100.0
693,F#3,135.5,0.25,33,100.0
694,B-3,135.75,0.25,33,100.0
695,C4,136.0,0.25,33,100.0
696,F#4,136.25,0.25,33,100.0
697,F#2,136.5,1.5,38,100.0
698,C#3,136.75,0.25,32,100.0
699,F#3,137.0,0.25,33,100.0
700,B-3,137.25,0.25,34,100.0
701,C#4,137.5,0.25,34,100.0
702,F#4,137.75,0.25,36,100.0
703,F2,138.0,1.5,40,100.0
704,C3,138.25,0.25,36,100.0
705,C5,138.5,1.0,51,100.0
706,F3,138.5,0.25,37,100.0
707,G#3,138.75,0.25,38,100.0
708,C4,139.0,0.5,39,100.0
709,F5,139.5,0.5,56,100.0
710,G#4,139.515,0.25,38,100.0
711,G#2,139.531,1.5,37,100.0
712,F4,139.735,0.25,38,100.0
713,E-3,139.781,0.25,33,100.0
714,B-4,140.031,3.0,52,100.0
715,F#3,140.031,0.25,33,100.0
716,B-3,140.281,0.25,33,100.0
717,C4,140.531,0.25,33,100.0
718,F#4,140.781,0.25,34,100.0
719,F#2,141.031,1.5,39,100.0
720,C#3,141.281,0.25,34,100.0
721,F#3,141.531,0.25,37,100.0
722,B-3,141.781,0.25,38,100.0
723,C#4,142.031,0.25,38,100.0
724,F#4,142.281,0.25,39,100.0
725,F2,142.531,1.469,44,100.0
726,C3,142.781,0.25,39,100.0
727,C5,143.031,1.0,56,100.0
728,F3,143.031,0.25,40,100.0
729,G#3,143.281,0.25,43,100.0
730,C4,143.531,0.469,44,100.0
731,E-2,144.0,1.5,45,100.0
732,F2,144.0,0.031,44,100.0
733,C4,144.0,0.031,44,100.0
734,F5,144.031,0.469,60,100.0
735,G#4,144.046,0.25,38,100.0
736,B-2,144.25,0.25,40,100.0
737,F4,144.267,233/1000,38,100.0
738,F#5,144.5,2.25,64,100.0
739,F5,144.5,0.031,60,100.0
740,F4,144.5,17/1000,38,100.0
741,E-3,144.5,0.25,40,100.0
742,F#3,144.75,0.25,40,100.0
743,B-3,145.0,0.25,40,100.0
744,E-4,145.25,0.25,40,100.0
745,F#4,145.5,123/500,60,100.0
746,F#4,146.25,0.5,46,100.0
747,F4,146.25,0.75,58,100.0
748,B-4,146.5,0.25,46,100.0
749,F5,146.75,0.75,58,100.0
750,F#4,147.0,0.25,46,100.0
751,D4,147.0,0.75,57,100.0
752,B-4,147.25,0.25,46,100.0
753,D5,147.5,0.75,58,100.0
754,F#4,147.75,0.25,46,100.0
755,E-4,147.75,0.75,58,100.0
756,B-4,148.0,0.25,46,100.0
757,E-5,148.25,0.75,60,100.0
758,F#4,148.5,0.25,49,100.0
759,D4,148.5,0.75,55,100.0
760,B-4,148.75,0.25,49,100.0
761,F#4,148.75,0.25,43,100.0
762,B-5,149.0,31/25,67,100.0
763,B-4,149.0,0.25,43,100.0
764,B-4,149.25,0.25,43,100.0
765,F#5,149.5,0.25,43,100.0
766,B-5,149.75,1.5,43,100.0
767,E-4,150.0,0.75,50,100.0
768,F#4,150.25,0.25,38,100.0
769,B-4,150.5,0.25,38,100.0
770,B-4,150.75,0.25,38,100.0
771,F#5,151.0,0.25,38,100.0
772,B-5,151.25,0.25,38,100.0
773,C4,151.5,0.25,44,100.0
774,G#3,151.5,0.75,44,100.0
775,E4,151.75,0.25,37,100.0
776,G#5,152.0,31/25,51,100.0
777,G#4,152.0,0.25,36,100.0
778,C5,152.25,0.25,34,100.0
779,E5,152.5,0.25,34,100.0
780,G#5,152.75,123/500,33,100.0
781,C#3,153.0,1.5,43,100.0
782,G#3,153.25,0.25,37,100.0
783,C#4,153.5,0.25,37,100.0
784,G#5,153.5,3.0,51,100.0
785,F5,153.5,3.0,51,100.0
786,F4,153.75,0.25,37,100.0
787,G#4,154.0,0.25,37,100.0
788,C#5,154.25,0.25,37,100.0
789,G#3,154.5,0.25,46,100.0
790,F3,154.5,1.5,39,100.0
791,C4,154.75,0.25,38,100.0
792,F4,155.0,0.25,40,100.0
793,G#4,155.25,0.25,42,100.0
794,C5,155.5,0.25,44,100.0
795,F5,155.75,0.25,46,100.0
796,B3,156.0,0.25,50,100.0
797,G#3,156.0,1.5,42,100.0
798,E4,156.25,0.25,43,100.0
799,G#4,156.5,0.25,43,100.0
800,G#5,156.5,1.0,57,100.0
801,B5,156.5,1.0,57,100.0
802,B4,156.75,0.25,43,100.0
803,E5,157.0,0.25,43,100.0
804,G#5,157.25,123/500,43,100.0
805,C#6,157.5,0.5,60,100.0
806,C#3,157.5,1.5,48,100.0
807,G#3,157.75,0.25,43,100.0
808,C#4,158.0,0.25,43,100.0
809,F5,158.0,3.0,57,100.0
810,G#5,158.0,3.0,57,100.0
811,F4,158.25,0.25,43,100.0
812,G#4,158.5,0.25,43,100.0
813,C#5,158.75,0.25,43,100.0
814,G#3,159.0,0.25,51,100.0
815,F3,159.0,1.5,43,100.0
816,C4,159.25,0.25,40,100.0
817,F4,159.5,0.25,42,100.0
818,G#4,159.75,0.25,43,100.0
819,C5,160.0,0.25,44,100.0
820,F5,160.25,0.25,45,100.0
821,B3,160.5,0.25,54,100.0
822,G#3,160.5,1.5,45,100.0
823,E4,160.75,0.25,45,100.0
824,G#4,161.0,0.25,45,100.0
825,B5,161.0,1.0,62,100.0
826,G#5,161.0,1.0,62,100.0
827,B4,161.25,0.25,45,100.0
828,G#5,161.5,0.25,45,100.0
829,E5,161.75,0.25,45,100.0
830,G#5,162.0,0.5,70,100.0
831,B3,162.0,0.75,44,100.0
832,C#4,162.0,0.25,52,100.0
833,E4,162.25,0.25,50,100.0
834,C#6,162.5,1.5,87,100.0
835,G#4,162.5,0.25,50,100.0
836,B4,162.75,0.75,50,100.0
837,C#5,163.25,0.25,51,100.0
838,G#5,163.5,0.5,73,100.0
839,C#4,163.5,0.75,44,100.0
840,E4,163.5,0.25,52,100.0
841,E5,163.75,0.25,51,100.0
842,G#4,163.75,0.25,50,100.0
843,E6,164.0,1.5,86,100.0
844,B4,164.0,0.25,50,100.0
845,C#5,164.25,0.75,50,100.0
846,E5,164.75,0.25,54,100.0
847,C#6,165.0,0.5,70,100.0
848,E4,165.0,0.75,46,100.0
849,G#4,165.0,0.25,55,100.0
850,G#5,165.25,0.25,54,100.0
851,B4,165.25,0.25,52,100.0
852,G#6,165.5,1.5,90,100.0
853,C#5,165.5,0.25,52,100.0
854,E5,165.75,0.75,52,100.0
855,G#5,166.25,0.25,56,100.0
856,E6,166.5,0.5,70,100.0
857,G#4,166.5,0.75,57,100.0
858,B5,166.75,0.25,56,100.0
859,A4,166.75,0.25,54,100.0
860,G#6,167.0,1.5,92,100.0
861,C#5,167.0,0.25,54,100.0
862,G#5,167.75,0.25,56,100.0
863,C#6,168.0,0.25,56,100.0
864,F#4,168.0,0.75,56,100.0
865,A5,168.25,0.25,56,100.0
866,A4,168.25,0.25,52,100.0
867,F#6,168.5,3.0,91,100.0
868,C#5,168.5,0.25,52,100.0
869,F#5,169.25,0.25,52,100.0
870,C#6,169.5,0.25,52,100.0
871,F#4,169.5,0.25,56,100.0
872,F4,169.5,0.75,47,100.0
873,A5,169.75,0.25,52,100.0
874,A4,169.75,0.25,52,100.0
875,C#5,170.0,0.25,52,100.0
876,F#5,170.75,0.25,52,100.0
877,C#6,171.0,0.25,52,100.0
878,E4,171.0,0.75,56,100.0
879,A5,171.25,0.25,52,100.0
880,F#4,171.25,0.25,52,100.0
881,F#6,171.5,3.0,91,100.0
882,A4,171.5,0.25,52,100.0
883,F#5,172.25,0.25,52,100.0
884,C#6,172.5,0.25,52,100.0
885,F#4,172.5,0.25,56,100.0
886,E-4,172.5,0.75,47,100.0
887,A5,172.75,0.25,52,100.0
888,A4,172.75,0.25,52,100.0
889,C#5,173.0,0.25,52,100.0
890,F#5,173.75,0.25,52,100.0
891,C#6,174.0,0.25,52,100.0
892,E4,174.0,0.25,56,100.0
893,C#4,174.0,0.75,47,100.0
894,A5,174.25,0.25,52,100.0
895,A4,174.25,0.25,52,100.0
896,A6,174.5,1.0,91,100.0
897,C#5,174.5,0.25,52,100.0
898,E5,174.75,0.25,52,100.0
899,C#7,175.5,0.5,91,100.0
900,B3,175.5,0.75,56,100.0
901,C#6,175.75,0.25,52,100.0
902,E-4,175.75,0.25,52,100.0
903,F#5,176.0,3.0,82,100.0
904,F#4,176.0,0.25,52,100.0
905,F#4,176.75,0.25,52,100.0
906,C#5,177.0,0.25,52,100.0
907,A3,177.0,0.75,56,100.0
908,A4,177.25,0.25,52,100.0
909,C#4,177.25,0.25,52,100.0
910,E4,177.5,0.25,52,100.0
911,F#4,178.25,0.25,52,100.0
912,C#5,178.5,0.25,52,100.0
913,G#3,178.5,0.75,56,100.0
914,A4,178.75,0.25,52,100.0
915,C#4,178.75,0.25,52,100.0
916,A5,179.0,1.0,84,100.0
917,E4,179.0,0.25,52,100.0
918,A4,179.25,0.25,52,100.0
919,E5,180.0,0.25,52,100.0
920,C#6,180.0,0.5,79,100.0
921,F#3,180.0,4.5,56,100.0
922,A5,180.25,0.25,52,100.0
923,C#4,180.25,0.25,43,100.0
924,E4,180.5,0.25,45,100.0
925,E6,180.5,0.5,79,100.0
926,C#6,180.5,0.5,79,100.0
927,F#4,180.75,0.25,46,100.0
928,A4,181.0,0.25,49,100.0
929,E-6,181.0,0.5,69,100.0
930,B5,181.0,0.5,69,100.0
931,C#5,181.25,0.25,50,100.0
932,E5,181.5,0.25,50,100.0
933,C#6,181.5,0.5,69,100.0
934,A5,181.5,0.5,69,100.0
935,F#5,181.75,0.25,50,100.0
936,E5,182.0,0.25,49,100.0
937,G#5,182.0,0.75,74,100.0
938,B5,182.0,0.75,74,100.0
939,C#5,182.25,0.25,48,100.0
940,A4,182.5,0.25,46,100.0
941,F#4,182.75,0.25,46,100.0
942,F#5,182.75,1.25,67,100.0
943,A5,182.75,1.25,67,100.0
944,E4,183.0,0.25,43,100.0
945,F#4,183.25,0.25,42,100.0
946,E4,183.5,0.25,40,100.0
947,C#4,183.75,0.25,39,100.0
948,A3,184.0,0.25,38,100.0
949,G#5,184.0,0.5,60,100.0
950,E5,184.0,0.5,60,100.0
951,F#3,184.25,0.25,37,100.0
952,F#2,184.5,0.25,43,100.0
953,F#5,184.5,0.5,60,100.0
954,E-5,184.5,0.5,60,100.0
955,C#3,184.75,0.25,38,100.0
956,E3,185.0,0.25,39,100.0
957,C#5,185.0,0.5,62,100.0
958,E5,185.0,0.5,62,100.0
959,F#3,185.25,0.25,40,100.0
960,A3,185.5,0.25,42,100.0
961,E-5,185.5,0.5,58,100.0
962,B4,185.5,0.5,58,100.0
963,C#4,185.75,0.25,43,100.0
964,E4,186.0,0.25,42,100.0
965,A4,186.0,0.5,56,100.0
966,C#5,186.0,0.5,56,100.0
967,C#4,186.25,0.25,42,100.0
968,A3,186.5,0.25,40,100.0
969,B4,186.5,0.5,57,100.0
970,G#4,186.5,0.5,57,100.0
971,F#3,186.75,0.25,40,100.0
972,E3,187.0,0.25,39,100.0
973,F#4,187.0,0.5,52,100.0
974,A4,187.0,0.5,52,100.0
975,C#3,187.25,0.25,38,100.0
976,F#2,187.5,0.25,37,100.0
977,G#4,187.5,1.0,49,100.0
978,E4,187.5,1.0,49,100.0
979,C#3,187.75,0.25,34,100.0
980,A3,188.0,1.5,46,100.0
981,F#2,188.0,0.25,37,100.0
982,C#3,188.25,0.25,34,100.0
983,F#2,188.5,0.25,37,100.0
984,F#4,188.5,0.5,43,100.0
985,E-4,188.5,0.5,43,100.0
986,C#3,188.75,0.25,34,100.0
987,G#2,189.0,0.25,32,100.0
988,C#4,189.0,0.5,40,100.0
989,E4,189.0,0.5,40,100.0
990,E-3,189.25,0.25,31,100.0
991,F#3,189.5,1.0,37,100.0
992,G#2,189.5,0.25,33,100.0
993,C#4,189.5,3.0,38,100.0
994,E-4,189.5,3.0,38,100.0
995,E-3,189.75,0.25,31,100.0
996,G#2,190.0,0.25,33,100.0
997,E-3,190.25,0.25,32,100.0
998,G#3,190.5,0.5,36,100.0
999,G#2,190.5,0.25,34,100.0
1000,E-3,190.75,0.25,32,100.0
1001,B-3,191.0,1.0,38,100.0
1002,G#2,191.0,0.25,34,100.0
1003,E-3,191.25,0.25,34,100.0
1004,G#2,191.5,0.25,36,100.0
1005,E-3,191.75,0.25,34,100.0
1006,C#4,192.0,0.5,37,100.0
1007,G#2,192.0,0.25,33,100.0
1008,E-3,192.25,0.25,31,100.0
1009,C4,192.5,1.5,37,100.0
1010,G#2,192.5,0.25,33,100.0
1011,F#4,192.5,1.0,40,100.0
1012,E-4,192.5,1.0,40,100.0
1013,E-3,192.75,0.25,31,100.0
1014,G#2,193.0,0.25,33,100.0
1015,E-3,193.25,0.25,31,100.0
1016,G#2,193.5,0.25,32,100.0
1017,E-4,193.5,0.5,40,100.0
1018,F#4,193.5,0.5,40,100.0
1019,B-4,193.5,0.5,40,100.0
1020,E-3,193.75,0.25,31,100.0
1021,F#3,194.0,1.0,37,100.0
1022,G#2,194.0,0.25,33,100.0
1023,C#4,194.0,3.0,38,100.0
1024,E-4,194.0,3.0,38,100.0
1025,E-3,194.25,0.25,31,100.0
1026,G#2,194.5,0.25,33,100.0
1027,E-3,194.75,0.25,32,100.0
1028,G#3,195.0,0.5,34,100.0
1029,G#2,195.0,0.25,34,100.0
1030,E-3,195.25,0.25,32,100.0
1031,B-3,195.5,1.0,38,100.0
1032,G#2,195.5,0.25,34,100.0
1033,E-3,195.75,0.25,33,100.0
1034,G#2,196.0,0.25,36,100.0
1035,E-3,196.25,0.25,34,100.0
1036,C#4,196.5,0.5,37,100.0
1037,G#2,196.5,0.25,33,100.0
1038,E-3,196.75,0.25,31,100.0
1039,C4,197.0,1.5,37,100.0
1040,G#2,197.0,0.25,33,100.0
1041,F#4,197.0,1.0,38,100.0
1042,E-4,197.0,1.0,38,100.0
1043,E-3,197.25,0.25,31,100.0
1044,G#2,197.5,0.25,33,100.0
1045,E-3,197.75,0.25,31,100.0
1046,E-4,198.0,0.5,36,100.0
1047,G#2,198.0,0.25,37,100.0
1048,F#4,198.0,0.5,38,100.0
1049,B-4,198.0,0.5,38,100.0
1050,E-2,198.25,0.25,33,100.0
1051,C#4,198.5,229/500,34,100.0
1052,G#2,198.5,0.25,37,100.0
1053,F#4,198.5,229/500,38,100.0
1054,B-4,198.5,229/500,38,100.0
1055,E-3,198.75,0.25,36,100.0
1056,G#2,199.0,0.25,37,100.0
1057,G#4,199.0,0.5,40,100.0
1058,F5,199.0,0.5,40,100.0
1059,C5,199.0,0.5,40,100.0
1060,E-3,199.25,0.25,36,100.0
1061,G#3,199.5,0.25,39,100.0
1062,B-4,199.5,0.5,39,100.0
1063,E-5,199.5,0.5,39,100.0
1064,F#4,199.5,0.5,39,100.0
1065,E-3,199.75,0.25,34,100.0
1066,C#4,200.0,0.5,36,100.0
1067,G#3,200.0,0.25,37,100.0
1068,F#4,200.0,1.5,38,100.0
1069,B-4,200.0,1.5,38,100.0
1070,E-4,200.25,0.25,34,100.0
1071,B-3,200.5,0.5,34,100.0
1072,G#3,200.5,0.25,36,100.0
1073,E-3,200.75,0.25,34,100.0
1074,C#4,201.0,0.5,34,100.0
1075,G#3,201.0,0.25,37,100.0
1076,E-3,201.25,0.25,34,100.0
1077,B-3,201.5,0.5,31,100.0
1078,G#2,201.5,0.25,34,100.0
1079,G#4,201.5,1.5,34,100.0
1080,F#4,201.5,1.5,34,100.0
1081,E-3,201.75,0.25,33,100.0
1082,C4,202.0,0.5,34,100.0
1083,G#2,202.0,0.25,34,100.0
1084,E-2,202.25,0.25,33,100.0
1085,E-4,202.5,0.5,34,100.0
1086,G#2,202.5,0.25,37,100.0
1087,E-2,202.75,0.25,33,100.0
1088,G#2,203.0,0.25,37,100.0
1089,F#4,203.0,229/500,34,100.0
1090,B-4,203.0,229/500,34,100.0
1091,C#4,203.0,229/500,34,100.0
1092,E-3,203.25,0.25,36,100.0
1093,G#2,203.5,0.25,37,100.0
1094,G#4,203.5,0.5,40,100.0
1095,F5,203.5,0.5,40,100.0
1096,C5,203.5,0.5,40,100.0
1097,E-3,203.75,0.25,36,100.0
1098,G#3,204.0,0.25,39,100.0
1099,F#4,204.0,0.5,39,100.0
1100,E-5,204.0,0.5,39,100.0
1101,B-4,204.0,0.5,39,100.0
1102,E-3,204.25,0.25,34,100.0
1103,C#4,204.5,0.5,36,100.0
1104,G#3,204.5,0.25,37,100.0
1105,F#4,204.5,1.5,38,100.0
1106,B-4,204.5,1.5,38,100.0
1107,E-4,204.75,0.25,34,100.0
1108,B-3,205.0,0.5,34,100.0
1109,G#3,205.0,0.25,36,100.0
1110,E-3,205.25,0.25,34,100.0
1111,C#4,205.5,0.5,34,100.0
1112,G#3,205.5,0.25,37,100.0
1113,E-3,205.75,0.25,37,100.0
1114,B-3,206.0,0.5,31,100.0
1115,G#3,206.0,0.25,34,100.0
1116,G#4,206.0,1.5,34,100.0
1117,F#4,206.0,1.5,34,100.0
1118,E-3,206.25,0.25,33,100.0
1119,C4,206.5,0.5,34,100.0
1120,G#3,206.5,0.25,34,100.0
1121,E-3,206.75,0.25,33,100.0
1122,E-4,207.0,0.5,34,100.0
1123,C#4,207.0,3.0,40,100.0
1124,F#3,207.0,1.0,40,100.0
1125,E-5,207.5,3.0,48,100.0
1126,E-4,207.75,0.25,32,100.0
1127,F#4,208.0,0.25,34,100.0
1128,G#3,208.0,0.5,39,100.0
1129,B-4,208.25,0.25,32,100.0
1130,F#4,208.5,0.25,34,100.0
1131,B-3,208.5,1.0,42,100.0
1132,E-4,208.75,0.25,32,100.0
1133,E-4,209.25,0.25,32,100.0
1134,F#4,209.5,0.25,36,100.0
1135,C#4,209.5,0.5,40,100.0
1136,B-4,209.75,0.25,32,100.0
1137,F#4,210.0,0.25,36,100.0
1138,C4,210.0,1.5,40,100.0
1139,E-4,210.25,0.25,32,100.0
1140,E-4,210.25,0.25,30,100.0
1141,F#5,210.5,1.0,53,100.0
1142,F#4,210.5,0.25,30,100.0
1143,B-4,210.75,0.25,30,100.0
1144,B-5,211.5,0.5,50,100.0
1145,C5,211.5,0.25,30,100.0
1146,C#4,211.5,3.0,40,100.0
1147,F#3,211.5,1.0,40,100.0
1148,E-5,211.75,0.25,32,100.0
1149,E-5,212.0,3.0,48,100.0
1150,E-4,212.25,0.25,32,100.0
1151,F#4,212.5,0.25,34,100.0
1152,G#3,212.5,0.5,39,100.0
1153,B-4,212.75,0.25,32,100.0
1154,F#4,213.0,0.25,34,100.0
1155,B-3,213.0,1.0,42,100.0
1156,E-4,213.25,0.25,32,100.0
1157,E-4,213.75,0.25,32,100.0
1158,F#4,214.0,0.25,36,100.0
1159,C#4,214.0,0.5,40,100.0
1160,B-4,214.25,0.25,32,100.0
1161,F#4,214.5,0.25,36,100.0
1162,C4,214.5,1.5,40,100.0
1163,E-4,214.75,0.25,32,100.0
1164,E-4,214.75,0.25,30,100.0
1165,F#5,215.0,1.0,53,100.0
1166,F#4,215.0,0.25,30,100.0
1167,B-4,215.25,0.25,30,100.0
1168,C5,216.0,0.25,32,100.0
1169,B-5,216.0,0.5,52,100.0
1170,F#4,216.0,1.75,44,100.0
1171,E-5,216.25,0.25,32,100.0
1172,B-4,216.25,0.25,37,100.0
1173,E-6,216.5,4.5,52,100.0
1174,C#5,216.5,0.25,37,100.0
1175,E-5,217.25,0.25,36,100.0
1176,F#5,217.5,0.25,33,100.0
1177,F#4,217.5,1.75,36,100.0
1178,B-5,217.75,0.25,32,100.0
1179,B-4,217.75,0.25,32,100.0
1180,C#5,218.0,0.25,32,100.0
1181,E-5,218.75,0.25,36,100.0
1182,F#5,219.0,0.25,33,100.0
1183,F#4,219.0,1.5,37,100.0
1184,C6,219.25,0.25,32,100.0
1185,B-4,219.25,0.25,31,100.0
1186,C#5,219.5,0.25,31,100.0
1187,E-5,220.25,0.25,33,100.0
1188,F#5,220.5,0.25,32,100.0
1189,F#4,220.5,1.75,39,100.0
1190,B-5,220.75,0.25,31,100.0
1191,A4,220.75,0.25,30,100.0
1192,E-6,221.0,1.5,52,100.0
1193,C#5,221.0,0.25,30,100.0
1194,E-5,221.75,0.25,32,100.0
1195,F#5,222.0,0.25,31,100.0
1196,F#4,222.0,1.75,34,100.0
1197,A5,222.25,0.25,31,100.0
1198,A4,222.25,0.25,30,100.0
1199,C#6,222.5,1.5,52,100.0
1200,C#5,222.5,0.25,28,100.0
1201,E-5,223.25,0.25,31,100.0
1202,F#5,223.5,0.25,30,100.0
1203,F#4,223.5,1.5,34,100.0
1204,B5,223.75,0.25,28,100.0
1205,A4,223.75,0.25,28,100.0
1206,E-6,224.0,1.5,52,100.0
1207,C#5,224.0,0.25,28,100.0
1208,E-5,224.75,0.25,28,100.0
1209,F#5,225.0,0.25,28,100.0
1210,F4,225.0,3.0,32,100.0
1211,A5,225.25,0.25,27,100.0
1212,G#4,225.25,0.25,32,100.0
1213,C5,225.5,0.25,32,100.0
1214,F5,225.75,0.25,32,100.0
1215,G#5,226.0,0.25,32,100.0
1216,C6,226.25,0.25,32,100.0
1217,F6,227.0,1.5,38,100.0
1218,G#6,227.0,1.5,38,100.0
1219,F4,228.0,1.5,29,100.0
1220,F6,228.5,1.5,39,100.0
1221,F4,229.5,3.0,30,100.0
1222,A4,229.75,0.25,30,100.0
1223,F6,230.0,0.5,39,100.0
1224,C5,230.0,0.25,29,100.0
1225,E-5,230.25,0.25,28,100.0
1226,F5,230.5,0.25,27,100.0
1227,C6,230.5,0.5,34,100.0
1228,E-6,230.5,0.5,34,100.0
1229,A5,230.75,0.25,27,100.0
1230,F6,231.0,0.5,30,100.0
1231,C#6,231.0,0.5,30,100.0
1232,E-6,231.5,3.0,28,100.0
1233,C6,231.5,3.0,28,100.0
1234,F4,232.5,1.5,28,100.0
1235,F4,234.0,3.0,29,100.0
1236,G#4,234.25,0.25,29,100.0
1237,B-4,234.5,0.25,28,100.0
1238,C#5,234.75,0.25,28,100.0
1239,F5,235.0,0.25,27,100.0
1240,E-6,235.0,0.5,28,100.0
1241,C6,235.0,0.5,28,100.0
1242,G#5,235.25,0.25,27,100.0
1243,B-5,235.5,0.5,38,100.0
1244,C#6,235.5,0.5,38,100.0
1245,C6,236.0,0.5,32,100.0
1246,E-6,236.0,0.5,32,100.0
1247,C#6,236.5,0.75,29,100.0
1248,B-5,236.5,0.75,29,100.0
1249,F4,237.0,1.5,28,100.0
1250,F6,237.25,1.5,40,100.0
1251,C#6,237.25,1.5,40,100.0
1252,E-4,238.5,3.0,28,100.0
1253,F#4,238.75,0.25,28,100.0
1254,C#6,238.75,0.75,34,100.0
1255,B-5,238.75,0.75,34,100.0
1256,G#4,239.0,0.25,26,100.0
1257,C5,239.25,0.25,25,100.0
1258,E-5,239.5,0.25,25,100.0
1259,F#5,239.75,0.25,23,100.0
1260,C#6,240.0,0.5,34,100.0
1261,B-5,240.0,0.5,34,100.0
1262,C6,240.5,0.5,29,100.0
1263,G#5,240.5,0.5,29,100.0
1264,B-5,241.0,0.5,28,100.0
1265,C#6,241.0,0.5,28,100.0
1266,E-4,241.5,1.5,27,100.0
1267,C6,241.5,3.0,25,100.0
1268,G#5,241.5,3.0,25,100.0
1269,C#4,243.0,3.0,32,100.0
1270,E-4,243.25,0.25,32,100.0
1271,F#4,243.5,0.25,32,100.0
1272,B-4,243.75,0.25,32,100.0
1273,C#5,244.0,0.25,32,100.0
1274,E-5,244.25,0.25,32,100.0
1275,F#5,245.0,0.5,36,100.0
1276,B-5,245.0,0.5,36,100.0
1277,C4,245.5,2.0,24,100.0
1278,C6,245.5,0.5,34,100.0
1279,G#5,245.5,0.5,34,100.0
1280,E-4,245.625,1.875,24,100.0
1281,F4,245.75,1.75,24,100.0
1282,G#4,245.875,1.625,24,100.0
1283,B-5,246.0,0.5,35,100.0
1284,F#5,246.0,1.5,29,100.0
1285,C5,246.0,1.5,24,100.0
1286,E-6,246.5,0.5,38,100.0
1287,B-5,247.0,0.5,36,100.0
1288,F5,247.5,1.5,29,100.0
1289,G#5,247.5,0.5,39,100.0
1290,C3,247.5,3.0,30,100.0
1291,F#3,247.75,0.25,30,100.0
1292,B-5,248.0,0.5,36,100.0
1293,B-3,248.0,0.25,29,100.0
1294,C4,248.25,0.25,29,100.0
1295,G#5,248.5,0.5,35,100.0
1296,E-4,248.5,0.25,28,100.0
1297,F#4,248.75,0.25,28,100.0
1298,F5,249.0,0.5,29,100.0
1299,G#5,249.0,0.5,35,100.0
1300,B-4,249.0,1.5,29,100.0
1301,F#5,249.5,0.5,32,100.0
1302,E-5,249.5,0.5,32,100.0
1303,G#5,250.0,0.5,30,100.0
1304,F5,250.0,0.5,30,100.0
1305,F#5,250.5,1.5,30,100.0
1306,E-5,250.5,1.5,30,100.0
1307,E-4,250.5,1.5,29,100.0
1308,C4,250.5,1.5,29,100.0
1309,F3,250.5,1.5,29,100.0
1310,A4,252.0,1.5,32,100.0
1311,F5,252.0,1.5,33,100.0
1312,G#3,252.0,3.0,30,100.0
1313,B-3,252.25,0.25,28,100.0
1314,C#4,252.5,0.25,28,100.0
1315,F4,252.75,0.25,27,100.0
1316,G#4,253.0,0.25,27,100.0
1317,B-4,253.25,0.25,27,100.0
1318,F5,253.5,0.5,33,100.0
1319,F5,254.0,0.5,36,100.0
1320,C#5,254.0,0.5,36,100.0
1321,E-5,254.5,0.5,34,100.0
1322,F#5,254.5,0.5,34,100.0
1323,F#3,254.625,1.875,27,100.0
1324,B-3,254.75,1.75,27,100.0
1325,C#4,254.875,1.625,27,100.0
1326,F5,255.0,0.5,36,100.0
1327,C#5,255.0,1.5,29,100.0
1328,E-4,255.0,1.5,27,100.0
1329,B-5,255.5,0.5,38,100.0
1330,F5,256.0,0.5,36,100.0
1331,C#5,256.5,1.5,28,100.0
1332,E-5,256.5,0.5,37,100.0
1333,F3,256.5,3.0,29,100.0
1334,G#3,256.75,0.25,29,100.0
1335,F5,257.0,0.5,36,100.0
1336,B-3,257.0,0.25,28,100.0
1337,C#4,257.25,0.25,28,100.0
1338,E-5,257.5,0.5,36,100.0
1339,F4,257.5,0.25,27,100.0
1340,G#4,257.75,0.25,27,100.0
1341,E-5,258.0,0.5,36,100.0
1342,C#5,258.5,0.5,32,100.0
1343,B-4,258.5,0.5,32,100.0
1344,E-5,259.0,0.5,30,100.0
1345,C5,259.0,0.5,30,100.0
1346,E-3,259.5,0.75,32,100.0
1347,C#5,259.5,1.5,30,100.0
1348,B-4,259.5,1.5,30,100.0
1349,F#3,259.5,1.5,32,100.0
1350,C4,259.5,1.5,32,100.0
1351,G#2,260.25,0.75,32,100.0
1352,C#2,261.0,3.0,28,100.0
1353,G#2,261.0,3.0,32,100.0
1354,C5,261.0,1.5,25,100.0
1355,G#4,261.0,1.5,25,100.0
1356,F4,262.0,3.5,33,100.0
1357,G#4,262.0,3.5,33,100.0
1358,B3,262.5,3.0,28,100.0
1359,F3,263.0,0.5,26,100.0
1360,G#3,263.0,0.5,26,100.0
1361,G#5,264.0,1.5,36,100.0
1362,F5,264.0,1.5,36,100.0
1363,C#5,265.5,1.5,33,100.0
1364,F5,265.5,1.5,33,100.0
1365,F#2,265.5,3.0,28,100.0
1366,C#3,265.5,3.0,28,100.0
1367,C#4,266.0,4.0,22,100.0
1368,B-3,266.0,4.0,22,100.0
1369,F#3,266.0,4.0,22,100.0
1370,C#3,266.0,4.0,22,100.0
1371,C#5,267.0,0.5,33,100.0
1372,F5,267.0,0.5,33,100.0
1373,E-5,267.5,0.5,39,100.0
1374,B-4,267.5,4.0,25,100.0
1375,F#4,267.5,4.0,25,100.0
1376,F5,268.0,0.5,34,100.0
1377,E-5,268.5,3.0,29,100.0
1378,G#2,270.0,3.0,33,100.0
1379,F3,270.5,1.0,31,100.0
1380,G#3,270.5,1.0,31,100.0
1381,E-5,271.5,0.5,29,100.0
1382,B3,271.5,3.0,26,100.0
1383,F4,271.5,1.5,31,100.0
1384,C#4,271.5,1.5,31,100.0
1385,G#4,272.0,1.0,36,100.0
1386,C#4,272.0,0.5,36,100.0
1387,C#5,272.0,0.5,36,100.0
1388,E-5,272.5,0.5,37,100.0
1389,E-4,272.5,0.5,37,100.0
1390,C#4,273.0,1.5,30,100.0
1391,G#4,273.0,1.5,37,100.0
1392,G#5,273.0,1.5,37,100.0
1393,F5,273.0,1.5,37,100.0
1394,F5,274.5,1.5,33,100.0
1395,B-2,274.5,3.0,31,100.0
1396,C#5,274.5,1.5,33,100.0
1397,F4,274.5,1.5,33,100.0
1398,E-4,275.0,2.5,25,100.0
1399,B-3,275.0,4.0,23,100.0
1400,F3,275.0,4.0,23,100.0
1401,F5,276.0,0.5,33,100.0
1402,E-5,276.5,0.5,39,100.0
1403,F4,276.5,4.0,25,100.0
1404,B-4,276.5,4.0,25,100.0
1405,F5,277.0,0.5,34,100.0
1406,E-5,277.5,1.5,29,100.0
1407,C#4,277.5,1.5,30,100.0
1408,C#5,279.0,1.5,29,100.0
1409,F2,279.0,4.5,34,100.0
1410,C#4,281.0,0.5,37,100.0
1411,G#3,281.0,1.0,33,100.0
1412,E-4,281.5,0.5,40,100.0
1413,F4,282.0,1.5,34,100.0
1414,B-4,282.0,1.5,34,100.0
1415,C#4,282.0,1.5,34,100.0
1416,E-2,283.5,3.0,34,100.0
1417,G#3,283.5,1.5,28,100.0
1418,C#4,283.5,1.5,28,100.0
1419,F4,283.5,1.5,28,100.0
1420,E-3,285.0,1.5,25,100.0
1421,F#4,285.5,0.5,37,100.0
1422,B-3,285.5,1.0,33,100.0
1423,C#4,285.5,1.0,33,100.0
1424,G#4,286.0,0.5,40,100.0
1425,E-4,286.5,1.5,26,100.0
1426,F#4,286.5,1.5,30,100.0
1427,B-4,286.5,1.5,30,100.0
1428,C#5,286.5,1.5,30,100.0
1429,G#2,288.0,3.0,34,100.0
1430,B-4,288.0,1.5,27,100.0
1431,C#4,288.0,1.5,27,100.0
1432,F#4,288.0,1.5,27,100.0
1433,E-3,288.75,0.75,31,100.0
1434,G#5,289.5,1.5,25,100.0
1435,B-4,290.0,0.5,35,100.0
1436,C4,290.0,1.0,35,100.0
1437,F#4,290.0,1.0,35,100.0
1438,C5,290.5,0.5,37,100.0
1439,G#3,291.0,1.5,25,100.0
1440,C5,291.0,1.5,27,100.0
1441,F5,291.0,1.5,27,100.0
1442,G#4,291.0,1.5,27,100.0
1443,C#2,292.5,1.5,31,100.0
1444,C4,292.5,1.5,24,100.0
1445,G#4,292.5,1.5,24,100.0
1446,F#4,292.5,1.5,24,100.0
1447,G#2,292.75,0.25,27,100.0
1448,C#3,293.0,0.25,26,100.0
1449,F3,293.25,0.25,26,100.0
1450,F2,294.0,1.5,31,100.0
1451,C3,294.25,0.25,28,100.0
1452,F3,294.5,0.25,27,100.0
1453,G#3,295.0,0.25,25,100.0
1454,C#4,295.25,0.25,25,100.0
1455,C#2,295.5,1.5,31,100.0
1456,G#2,295.75,0.25,28,100.0
1457,C#3,296.0,0.25,28,100.0
1458,G#3,296.25,0.25,26,100.0
1459,F3,296.25,0.25,27,100.0
1460,C4,296.5,0.25,26,100.0
1461,F4,296.75,0.25,26,100.0
1462,F2,297.0,1.5,31,100.0
1463,C3,297.25,0.25,28,100.0
1464,F3,297.5,0.25,28,100.0
1465,G#3,298.0,0.25,28,100.0
1466,C#4,298.25,0.25,26,100.0
1467,G#2,298.5,3.0,31,100.0
1468,E3,298.75,0.25,28,100.0
1469,G#3,299.0,0.25,28,100.0
1470,G#3,299.25,0.25,27,100.0
1471,B3,299.25,0.25,27,100.0
1472,C4,299.5,0.25,27,100.0
1473,E4,299.5,0.25,27,100.0
1474,F4,299.75,0.25,27,100.0
1475,F#4,299.75,0.25,27,100.0
1476,G#4,300.0,1.5,27,100.0
1477,G#4,300.0,1.5,32,100.0
1478,B4,300.0,1.5,32,100.0
1479,C#3,301.5,1.5,31,100.0
1480,C#5,301.5,1.5,28,100.0
1481,E4,301.5,1.5,28,100.0
1482,G#3,301.75,0.25,30,100.0
1483,C#4,302.0,0.25,26,100.0
1484,F4,302.25,0.25,26,100.0
1485,F3,303.0,1.5,31,100.0
1486,C4,303.25,0.25,28,100.0
1487,F4,303.5,0.25,27,100.0
1488,G#4,304.0,0.25,25,100.0
1489,C#5,304.25,0.25,25,100.0
1490,C#3,304.5,1.5,31,100.0
1491,G#3,304.75,0.25,28,100.0
1492,C#4,305.0,0.25,28,100.0
1493,G#4,305.25,0.25,26,100.0
1494,F4,305.25,0.25,27,100.0
1495,C5,305.5,0.25,26,100.0
1496,F5,305.75,0.25,26,100.0
1497,F3,306.0,1.5,31,100.0
1498,C4,306.25,0.25,28,100.0
1499,F4,306.5,0.25,28,100.0
1500,G#4,307.0,0.25,28,100.0
1501,C#5,307.25,0.25,26,100.0
1502,G#3,307.5,3.0,31,100.0
1503,B3,307.75,0.25,25,100.0
1504,E4,308.0,0.25,25,100.0
1505,G#4,308.25,0.25,27,100.0
1506,G#4,308.25,0.25,24,100.0
1507,C5,308.5,0.25,27,100.0
1508,B4,308.5,0.25,24,100.0
1509,F5,308.75,0.25,27,100.0
1510,E5,308.75,1.75,22,100.0
1511,B5,309.0,1.5,33,100.0
1512,G#5,309.0,3.0,30,100.0
1513,C#6,310.5,1.5,34,100.0
1514,G#3,310.5,3.0,31,100.0
1515,B3,310.75,0.25,25,100.0
1516,E4,311.0,0.25,25,100.0
1517,G#4,311.25,0.25,24,100.0
1518,B4,311.5,0.25,24,100.0
1519,E5,311.75,1.75,22,100.0
1520,B5,312.0,1.5,33,100.0
1521,G#5,312.0,4.5,30,100.0
1522,C#6,313.5,1.5,34,100.0
1523,G#2,313.5,1.5,30,100.0
1524,E6,315.0,1.5,37,100.0
1525,C#2,315.0,3.0,33,100.0
1526,G#2,315.25,0.25,26,100.0
1527,C#3,315.5,0.25,24,100.0
1528,F3,315.75,0.25,22,100.0
1529,G#3,316.0,0.25,21,100.0
1530,C#4,316.25,0.25,20,100.0
1531,F4,316.5,0.5,27,100.0
1532,F6,316.5,4.5,38,100.0
1533,G#6,316.5,4.5,38,100.0
1534,G#4,317.0,0.5,22,100.0
1535,C#5,317.5,0.5,22,100.0
1536,F5,318.0,0.5,27,100.0
1537,G#5,318.5,0.5,22,100.0
1538,C#6,319.0,177/500,22,100.0
1539,C#4,319.354,73/500,21,100.0
1540,G#4,319.354,73/500,21,100.0
1541,C#5,319.354,73/500,21,100.0
1542,F5,319.417,83/1000,25,100.0
1543,G#5,320.938,0.062,26,100.0
1544,C#6,320.938,0.062,26,100.0
1545,F6,320.938,0.062,26,100.0
1546,G#6,321.0,3.0,34,100.0
1547,G#5,321.0,1479/500,26,100.0
1548,C#6,321.0,1479/500,26,100.0
1549,F6,321.0,1479/500,26,100.0
1550,F5,322.458,3.0,25,100.0
1551,C#4,322.458,1479/500,21,100.0
1552,G#4,322.458,1479/500,21,100.0
1553,C#5,322.458,1479/500,21,100.0
