,note_name,start_time,duration,velocity,tempo
0,F#2,0.0,0.188,38,170.5
1,C#3,0.5,0.188,32,170.5
2,A3,1.0,0.188,34,170.5
3,C#3,1.5,0.188,33,170.5
4,G#2,2.0,0.188,42,170.5
5,C#3,2.5,0.188,34,170.5
6,B3,3.0,0.188,38,170.5
7,C#3,3.5,0.188,36,170.5
8,A2,4.0,0.188,44,170.5
9,F#3,4.5,0.188,40,170.5
10,C#4,5.0,0.188,44,170.5
11,F#3,5.5,0.188,40,170.5
12,B2,6.0,0.188,44,170.5
13,F#3,6.5,0.188,38,170.5
14,D4,7.0,0.188,41,170.5
15,F#3,7.5,0.188,38,170.5
16,F#4,8.0,0.75,55,170.5
17,F#2,8.0,0.188,46,170.5
18,C#3,8.5,0.188,36,170.5
19,C#5,9.0,0.5,55,170.5
20,A3,9.0,0.188,41,170.5
21,C#3,9.5,0.188,36,170.5
22,B4,10.0,2.0,56,170.5
23,G#2,10.0,0.188,46,170.5
24,C#3,10.5,0.188,36,170.5
25,B3,11.0,0.188,42,170.5
26,C#3,11.5,0.188,36,170.5
27,B4,12.0,1.0,56,170.5
28,A2,12.0,0.188,46,170.5
29,F#3,12.5,0.188,35,170.5
30,A4,13.0,0.375,54,170.5
31,C#4,13.0,0.188,39,170.5
32,G#4,13.5,0.375,54,170.5
33,F#3,13.5,0.188,34,170.5
34,F#4,14.0,833/1000,56,170.5
35,B2,14.0,0.188,43,170.5
36,F#3,14.5,0.188,34,170.5
37,E4,15.0,0.375,54,170.5
38,D4,15.0,0.188,36,170.5
39,D4,15.5,0.375,53,170.5
40,F#3,15.5,0.188,33,170.5
41,C#4,16.0,979/1000,56,170.5
42,F#2,16.0,0.188,41,170.5
43,C#3,16.5,0.188,33,170.5
44,D4,17.0,0.5,53,170.5
45,A3,17.0,0.188,37,170.5
46,E4,17.5,0.5,53,170.5
47,C#3,17.5,0.188,34,170.5
48,F#4,18.0,1.0,57,170.5
49,A2,18.0,0.188,43,170.5
50,F#3,18.5,0.188,34,170.5
51,A4,19.0,1.0,55,170.5
52,C#4,19.0,0.188,39,170.5
53,F#3,19.5,0.188,35,170.5
54,G#4,20.0,4.0,57,170.5
55,C#3,20.0,0.188,46,170.5
56,G#3,20.5,0.188,36,170.5
57,E4,21.0,0.188,41,170.5
58,G#3,21.5,0.188,36,170.5
59,B2,22.0,0.188,43,170.5
60,G#3,22.5,0.188,34,170.5
61,C#4,23.0,0.188,40,170.5
62,G#3,23.5,0.188,35,170.5
63,G#4,24.0,229/500,57,170.5
64,A2,24.0,0.188,44,170.5
65,F#4,24.5,0.375,50,170.5
66,F#3,24.5,0.188,39,170.5
67,G#4,25.0,0.375,50,170.5
68,C#4,25.0,0.188,39,170.5
69,A4,25.5,0.375,50,170.5
70,F#3,25.5,0.188,39,170.5
71,F#4,26.0,1.0,55,170.5
72,B4,26.0,2.0,55,170.5
73,G#2,26.0,0.188,43,170.5
74,C#3,26.5,0.188,39,170.5
75,F4,27.0,1.0,50,170.5
76,B3,27.0,0.188,39,170.5
77,C#3,27.5,0.188,39,170.5
78,C#4,28.0,1.0,50,170.5
79,B4,28.0,229/500,55,170.5
80,F#2,28.0,0.188,45,170.5
81,A4,28.5,0.5,52,170.5
82,C#3,28.5,0.188,41,170.5
83,B4,29.0,0.5,52,170.5
84,A3,29.0,0.188,41,170.5
85,C#5,29.5,0.5,52,170.5
86,C#3,29.5,0.188,42,170.5
87,D5,30.0,2.0,56,170.5
88,A4,30.0,1.0,56,170.5
89,B2,30.0,0.188,47,170.5
90,E3,30.5,0.188,45,170.5
91,G#4,31.0,1.0,50,170.5
92,D4,31.0,0.188,45,170.5
93,E3,31.5,0.188,45,170.5
94,E4,32.0,1.0,50,170.5
95,D5,32.0,229/500,56,170.5
96,A2,32.0,0.188,47,170.5
97,C#5,32.5,0.5,54,170.5
98,E3,32.5,0.188,46,170.5
99,D5,33.0,0.5,58,170.5
100,A3,33.0,0.188,49,170.5
101,E5,33.5,0.5,63,170.5
102,C#4,33.5,0.188,51,170.5
103,D5,34.0,2.0,64,170.5
104,F#5,34.0,2.0,71,170.5
105,D3,34.0,0.188,53,170.5
106,A3,34.5,0.188,39,170.5
107,D4,35.0,0.188,38,170.5
108,F#4,35.5,0.188,38,170.5
109,D5,36.0,1.0,64,170.5
110,F#5,36.0,2.0,71,170.5
111,A3,36.0,0.188,42,170.5
112,D4,36.5,0.188,37,170.5
113,F#4,37.0,0.188,37,170.5
114,A4,37.5,0.25,37,170.5
115,F#4,38.0,2.0,56,170.5
116,D4,38.5,0.25,37,170.5
117,C#4,39.0,0.25,36,170.5
118,B3,39.5,0.25,36,170.5
119,F#4,40.0,0.75,56,170.5
120,A3,40.0,0.188,46,170.5
121,C#4,40.5,0.188,36,170.5
122,C#5,41.0,0.25,53,170.5
123,A3,41.0,0.188,41,170.5
124,F#3,41.5,0.188,36,170.5
125,B4,42.0,2.0,56,170.5
126,G#3,42.0,0.188,46,170.5
127,B3,42.5,0.188,36,170.5
128,E4,43.0,0.188,42,170.5
129,F#3,43.5,0.188,36,170.5
130,B4,44.0,1.0,56,170.5
131,E3,44.0,0.188,46,170.5
132,B3,44.5,0.188,35,170.5
133,A4,45.0,0.375,54,170.5
134,E4,45.0,0.188,39,170.5
135,G#4,45.5,0.375,54,170.5
136,B3,45.5,0.188,34,170.5
137,F#4,46.0,833/1000,56,170.5
138,B2,46.0,0.188,43,170.5
139,G#3,46.5,0.188,34,170.5
140,E4,47.0,0.375,54,170.5
141,D4,47.0,0.188,36,170.5
142,D4,47.5,0.375,53,170.5
143,E3,47.5,0.188,33,170.5
144,A2,48.0,0.188,41,170.5
145,C#4,48.5,0.5,56,170.5
146,E3,48.5,0.188,33,170.5
147,D4,49.0,0.5,53,170.5
148,A3,49.0,0.188,37,170.5
149,E4,49.5,0.5,53,170.5
150,E3,49.5,0.188,34,170.5
151,F#4,50.0,1.0,57,170.5
152,D3,50.0,0.188,43,170.5
153,A3,50.5,0.188,34,170.5
154,A4,51.0,1.0,55,170.5
155,D4,51.0,0.188,39,170.5
156,C#3,51.5,0.188,35,170.5
157,C3,52.0,0.188,46,170.5
158,F#4,52.0,4.0,57,170.5
159,G#4,52.0,4.0,57,170.5
160,G#3,52.5,0.188,36,170.5
161,E-4,53.0,0.188,41,170.5
162,G#3,53.5,0.188,36,170.5
163,C3,54.0,0.188,43,170.5
164,G#3,54.5,0.188,34,170.5
165,E-4,55.0,0.188,40,170.5
166,G#3,55.5,0.188,35,170.5
167,C3,56.0,0.188,46,170.5
168,G#3,56.5,0.188,36,170.5
169,E-4,57.0,0.188,41,170.5
170,G#3,57.5,0.188,36,170.5
171,C#3,58.0,0.188,49,170.5
172,F#4,58.0,2.0,57,170.5
173,G#4,58.0,2.0,57,170.5
174,A3,58.5,0.188,45,170.5
175,E4,59.0,0.188,49,170.5
176,A3,59.5,0.188,47,170.5
177,C3,60.0,0.188,49,170.5
178,F#4,60.0,1.0,60,170.5
179,A4,60.0,1.0,60,170.5
180,G#3,60.5,0.188,38,170.5
181,E-4,61.0,0.188,44,170.5
182,E5,61.0,0.25,59,170.5
183,G#5,61.0,0.25,59,170.5
184,G#3,61.5,0.188,38,170.5
185,B2,62.0,0.188,52,170.5
186,F#4,62.0,2.0,58,170.5
187,G#4,62.0,2.0,58,170.5
188,E3,62.5,0.188,48,170.5
189,G#3,63.0,0.188,52,170.5
190,D4,63.0,0.188,52,170.5
191,E3,63.5,0.188,50,170.5
192,A2,64.0,0.188,52,170.5
193,F#4,64.0,1.0,56,170.5
194,D4,64.0,1.0,56,170.5
195,E3,64.5,0.188,44,170.5
196,C#4,65.0,0.188,49,170.5
197,E5,65.0,0.25,59,170.5
198,C#5,65.0,0.25,59,170.5
199,E3,65.5,0.188,46,170.5
200,F#2,66.0,0.188,55,170.5
201,C#4,66.0,2.0,57,170.5
202,E4,66.0,2.0,57,170.5
203,B2,66.5,0.188,50,170.5
204,A3,67.0,0.188,55,170.5
205,B2,67.5,0.188,52,170.5
206,C#2,68.0,0.188,66,170.5
207,B3,68.0,1.0,66,170.5
208,E-4,68.0,1.0,66,170.5
209,G#2,68.5,0.188,57,170.5
210,F3,69.0,0.188,61,170.5
211,A4,69.0,0.312,69,170.5
212,C#5,69.0,0.312,69,170.5
213,G#2,69.5,0.188,57,170.5
214,C#2,70.0,0.188,66,170.5
215,C#4,70.0,4.0,69,170.5
216,G#3,70.0,4.0,69,170.5
217,G#2,70.5,0.188,57,170.5
218,F3,71.0,0.188,61,170.5
219,G#2,71.5,0.188,57,170.5
220,C#2,72.0,0.188,61,170.5
221,G#2,72.5,0.188,55,170.5
222,F3,73.0,0.188,58,170.5
223,G#2,73.5,0.188,55,170.5
224,B2,74.0,0.188,38,170.5
225,F#3,74.5,0.188,35,170.5
226,A3,75.0,0.188,37,170.5
227,C#4,75.5,0.188,35,170.5
228,C#4,75.958,979/500,69,170.5
229,G#3,75.958,979/500,69,170.5
230,E3,76.0,0.188,37,170.5
231,B3,76.5,0.188,34,170.5
232,D4,77.0,0.188,34,170.5
233,B3,77.5,0.188,34,170.5
234,B3,77.958,1.0,42,170.5
235,D4,77.958,1.0,42,170.5
236,E3,78.0,0.188,40,170.5
237,B3,78.5,0.188,36,170.5
238,A4,78.958,1.0,43,170.5
239,F#4,78.958,1.0,43,170.5
240,E3,79.0,0.188,37,170.5
241,B2,79.5,0.188,35,170.5
242,G#4,79.958,2.5,43,170.5
243,E4,79.958,2.5,43,170.5
244,E2,80.0,0.188,37,170.5
245,B2,80.5,0.188,34,170.5
246,E3,81.0,0.188,34,170.5
247,G#3,81.5,0.188,34,170.5
248,B2,82.0,0.188,37,170.5
249,A4,82.458,0.5,39,170.5
250,F#4,82.458,0.5,39,170.5
251,F#3,82.5,0.188,34,170.5
252,B4,82.958,1.0,44,170.5
253,G#4,82.958,1.0,44,170.5
254,A3,83.0,0.188,34,170.5
255,C#4,83.5,0.188,34,170.5
256,E3,84.0,0.188,38,170.5
257,B3,84.5,0.188,34,170.5
258,B4,84.958,1.0,44,170.5
259,G#4,84.958,1.0,44,170.5
260,D4,85.0,0.188,34,170.5
261,B3,85.5,0.188,34,170.5
262,C#5,85.958,479/500,41,170.5
263,A4,85.958,479/500,41,170.5
264,E3,86.0,0.188,41,170.5
265,B3,86.5,0.188,37,170.5
266,B3,86.958,1.0,42,170.5
267,D4,86.958,1.0,42,170.5
268,E3,87.0,0.188,37,170.5
269,B2,87.5,0.188,37,170.5
270,A4,87.958,1.0,44,170.5
271,F#4,87.958,1.0,44,170.5
272,E2,88.0,0.188,45,170.5
273,B2,88.5,0.188,38,170.5
274,G#4,88.958,2.5,43,170.5
275,E4,88.958,2.5,43,170.5
276,E3,89.0,0.188,38,170.5
277,G#3,89.5,0.188,38,170.5
278,B2,90.0,0.188,46,170.5
279,E3,90.5,0.188,39,170.5
280,D4,91.0,0.188,39,170.5
281,A4,91.458,0.5,42,170.5
282,F#4,91.458,0.5,42,170.5
283,E3,91.5,0.188,39,170.5
284,B4,91.958,1.0,46,170.5
285,G#4,91.958,1.0,46,170.5
286,A2,92.0,0.188,42,170.5
287,E3,92.5,0.188,38,170.5
288,A3,93.0,0.188,38,170.5
289,C#4,93.5,0.188,38,170.5
290,B4,93.917,479/500,46,170.5
291,G#4,93.917,479/500,46,170.5
292,D3,94.0,0.188,41,170.5
293,A3,94.5,0.188,38,170.5
294,G#4,94.917,1.0,51,170.5
295,E4,94.917,1.0,51,170.5
296,D4,95.0,0.188,38,170.5
297,A3,95.5,0.188,38,170.5
298,A4,95.917,1.0,55,170.5
299,F#4,95.917,1.0,55,170.5
300,F#3,96.0,0.188,41,170.5
301,A3,96.5,0.188,34,170.5
302,B4,96.917,1.0,59,170.5
303,G#4,96.917,1.0,59,170.5
304,C#4,97.0,0.188,35,170.5
305,A3,97.5,0.188,34,170.5
306,C#5,97.917,667/1000,59,170.5
307,B4,97.917,2.0,37,170.5
308,G4,97.917,2.0,37,170.5
309,B2,98.0,0.188,37,170.5
310,F#3,98.5,0.188,32,170.5
311,C#5,98.583,667/1000,59,170.5
312,B3,99.0,0.188,34,170.5
313,E5,99.25,667/1000,56,170.5
314,F#3,99.5,0.188,33,170.5
315,C#5,99.917,667/1000,59,170.5
316,F#4,99.917,2.0,37,170.5
317,A4,99.917,2.0,37,170.5
318,E2,100.0,0.188,35,170.5
319,B2,100.5,0.188,30,170.5
320,B4,100.583,667/1000,59,170.5
321,E3,101.0,0.188,30,170.5
322,C#5,101.25,667/1000,56,170.5
323,G3,101.5,0.188,30,170.5
324,A4,101.917,1.0,56,170.5
325,E4,101.917,2.0,37,170.5
326,F#4,101.917,2.0,37,170.5
327,E2,102.0,0.188,33,170.5
328,A2,102.5,0.188,30,170.5
329,C#5,102.917,1.0,52,170.5
330,G3,103.0,0.188,28,170.5
331,A2,103.5,0.188,28,170.5
332,B4,103.917,2.0,55,170.5
333,D4,103.917,2.0,45,170.5
334,A4,103.917,2.0,45,170.5
335,F#2,104.0,0.188,38,170.5
336,C#3,104.5,0.188,35,170.5
337,A3,105.0,0.188,35,170.5
338,F#3,105.5,0.188,35,170.5
339,G4,105.917,4.0,41,170.5
340,B4,105.917,1.0,55,170.5
341,D4,105.917,2.0,45,170.5
342,E2,106.0,0.188,38,170.5
343,A2,106.5,0.188,35,170.5
344,C#5,106.917,1.0,46,170.5
345,F#3,107.0,0.188,35,170.5
346,A2,107.5,0.188,36,170.5
347,A4,107.917,2.0,44,170.5
348,D4,107.917,1.0,37,170.5
349,D2,108.0,0.188,38,170.5
350,A2,108.5,0.188,35,170.5
351,B3,108.917,1.0,34,170.5
352,D3,109.0,0.188,35,170.5
353,F#3,109.5,0.188,35,170.5
354,A4,109.917,4.0,40,170.5
355,C#4,109.917,667/1000,50,170.5
356,F#4,109.917,4.0,40,170.5
357,A2,110.0,0.188,35,170.5
358,D3,110.5,0.188,33,170.5
359,D4,110.583,667/1000,49,170.5
360,F#3,111.0,0.188,33,170.5
361,B3,111.25,667/1000,49,170.5
362,A3,111.5,0.188,35,170.5
363,C#4,111.917,667/1000,52,170.5
364,D3,112.0,0.188,34,170.5
365,A3,112.5,0.188,31,170.5
366,D4,112.583,667/1000,49,170.5
367,D4,113.0,0.188,31,170.5
368,E4,113.25,667/1000,49,170.5
369,F#4,113.5,0.188,30,170.5
370,F#4,113.917,667/1000,52,170.5
371,A4,113.917,667/1000,40,170.5
372,C#3,114.0,0.188,31,170.5
373,F#3,114.5,0.188,30,170.5
374,G#4,114.583,667/1000,49,170.5
375,A3,115.0,0.188,29,170.5
376,E4,115.25,667/1000,49,170.5
377,D4,115.5,0.188,28,170.5
378,F#4,115.917,667/1000,51,170.5
379,B2,116.0,0.188,40,170.5
380,F#3,116.5,0.188,36,170.5
381,G#4,116.583,667/1000,48,170.5
382,B3,117.0,0.188,36,170.5
383,A4,117.25,667/1000,47,170.5
384,D4,117.5,0.188,36,170.5
385,B4,117.917,667/1000,47,170.5
386,B2,118.0,0.188,40,170.5
387,F3,118.5,0.188,36,170.5
388,C#5,118.583,667/1000,44,170.5
389,G#3,119.0,0.188,36,170.5
390,A4,119.25,667/1000,44,170.5
391,D4,119.5,0.188,36,170.5
392,B4,119.917,667/1000,44,170.5
393,B2,120.0,0.188,40,170.5
394,F#3,120.5,0.188,35,170.5
395,C#5,120.583,667/1000,41,170.5
396,B3,121.0,0.188,35,170.5
397,D5,121.25,667/1000,41,170.5
398,D4,121.5,0.188,35,170.5
399,D5,121.917,2.0,48,170.5
400,F#5,121.917,0.75,48,170.5
401,F#4,121.917,0.75,48,170.5
402,B2,122.0,0.188,39,170.5
403,F#3,122.5,0.188,34,170.5
404,C#6,122.917,0.5,48,170.5
405,C#5,122.917,0.5,48,170.5
406,G#3,123.0,0.188,34,170.5
407,F#3,123.5,0.188,34,170.5
408,F5,123.917,2.0,51,170.5
409,B4,123.917,2.0,51,170.5
410,B5,123.917,2.0,51,170.5
411,A2,124.0,0.188,41,170.5
412,F#3,124.5,0.188,35,170.5
413,A3,125.0,0.188,35,170.5
414,F#3,125.5,0.188,34,170.5
415,F#2,126.0,0.188,43,170.5
416,C#3,126.5,0.188,35,170.5
417,B4,126.917,1.0,51,170.5
418,B5,126.917,1.0,51,170.5
419,A3,127.0,0.188,35,170.5
420,C#3,127.5,0.188,35,170.5
421,A4,127.917,0.375,50,170.5
422,C3,128.0,0.188,42,170.5
423,G#4,128.417,0.375,50,170.5
424,F#3,128.5,0.188,35,170.5
425,F#4,128.917,833/1000,52,170.5
426,E-4,129.0,0.188,39,170.5
427,F#3,129.5,0.188,35,170.5
428,E4,129.917,0.375,50,170.5
429,C#3,130.0,0.188,41,170.5
430,D4,130.417,0.375,49,170.5
431,F#3,130.5,0.188,37,170.5
432,C#4,130.917,979/1000,52,170.5
433,E4,131.0,0.188,42,170.5
434,F#3,131.5,0.188,38,170.5
435,D4,131.917,0.5,49,170.5
436,E-3,132.0,0.188,44,170.5
437,E4,132.417,0.5,49,170.5
438,F#3,132.5,0.188,40,170.5
439,F#4,132.917,0.75,53,170.5
440,C4,133.0,0.188,43,170.5
441,F#3,133.5,0.188,45,170.5
442,A4,133.917,0.75,51,170.5
443,E3,134.0,0.188,47,170.5
444,F#3,134.5,0.188,41,170.5
445,F#4,134.917,4.0,53,170.5
446,G#4,134.917,4.0,53,170.5
447,C#4,135.0,0.188,41,170.5
448,F#3,135.5,0.188,41,170.5
449,E-3,136.0,0.188,47,170.5
450,F#3,136.5,0.188,45,170.5
451,C4,137.0,0.188,45,170.5
452,F#3,137.5,0.188,45,170.5
453,G#2,138.0,0.188,47,170.5
454,E-3,138.5,0.188,45,170.5
455,F#4,138.917,1.0,53,170.5
456,G#4,138.917,229/500,53,170.5
457,C4,139.0,0.188,45,170.5
458,F#4,139.417,3.5,51,170.5
459,E-3,139.5,0.188,45,170.5
460,G#4,139.917,0.5,54,170.5
461,G#2,140.0,0.188,47,170.5
462,A4,140.417,0.5,56,170.5
463,D3,140.5,0.188,44,170.5
464,B4,140.917,2.0,57,170.5
465,B3,141.0,0.188,44,170.5
466,D3,141.5,0.188,44,170.5
467,E2,142.0,0.5,47,170.5
468,D3,142.5,0.5,41,170.5
469,F#4,142.917,4.0,51,170.5
470,B4,142.917,229/500,57,170.5
471,E3,143.0,0.5,41,170.5
472,A4,143.417,0.5,55,170.5
473,G#3,143.5,0.5,41,170.5
474,B4,143.917,0.5,57,170.5
475,C#4,144.0,1997/500,45,170.5
476,A4,144.417,0.5,55,170.5
477,G#3,144.5,0.5,41,170.5
478,G#4,144.917,2.0,56,170.5
479,D3,145.0,0.5,38,170.5
480,E2,145.5,0.5,36,170.5
481,C#2,146.0,0.5,40,170.5
482,G#2,146.5,0.5,37,170.5
483,G#4,146.917,229/500,56,170.5
484,F3,147.0,0.5,38,170.5
485,F#4,147.417,0.5,54,170.5
486,B3,147.5,0.5,38,170.5
487,E4,147.917,0.5,56,170.5
488,D4,148.417,0.5,58,170.5
489,C#4,148.917,249/125,60,170.5
490,F3,149.0,0.5,39,170.5
491,G#2,149.5,0.5,39,170.5
492,F4,151.0,0.5,35,170.5
493,G#3,151.5,0.5,33,170.5
494,F#3,152.5,0.5,31,170.5
495,C#4,153.0,0.5,31,170.5
496,A4,153.5,0.5,31,170.5
497,A3,154.5,0.5,30,170.5
498,C#4,154.917,0.5,41,170.5
499,D4,155.0,0.5,30,170.5
500,F#4,155.0,0.5,30,170.5
501,B3,155.417,0.5,41,170.5
502,C5,155.5,0.5,30,170.5
503,C#4,156.5,0.5,31,170.5
504,C#5,156.917,0.5,37,170.5
505,F#4,157.0,0.5,31,170.5
506,B4,157.417,0.5,37,170.5
507,E5,157.5,0.5,31,170.5
508,B3,158.5,0.5,26,170.5
509,F#5,158.917,1.0,48,170.5
510,F#4,159.0,0.5,23,170.5
511,E-5,159.5,0.5,24,170.5
512,C#6,159.917,1.0,48,170.5
513,F#3,160.5,0.5,31,170.5
514,F#5,160.917,2.0,43,170.5
515,A5,160.917,2.0,43,170.5
516,C6,160.917,2.0,43,170.5
517,C#4,161.0,0.5,31,170.5
518,A4,161.5,0.5,31,170.5
519,A3,162.5,0.5,30,170.5
520,C#6,162.917,1.0,55,170.5
521,D4,163.0,0.5,30,170.5
522,F#4,163.0,0.5,30,170.5
523,C5,163.5,0.5,30,170.5
524,F#5,163.917,1.0,45,170.5
525,A5,163.917,1.0,45,170.5
526,E6,163.917,1.0,45,170.5
527,C#4,164.5,0.5,31,170.5
528,E-6,164.917,667/1000,57,170.5
529,F#4,165.0,0.5,31,170.5
530,E5,165.5,0.5,31,170.5
531,B5,165.583,667/1000,46,170.5
532,F#5,165.583,667/1000,46,170.5
533,A5,166.25,667/1000,51,170.5
534,B3,166.5,0.5,26,170.5
535,F#5,166.917,1.0,48,170.5
536,F#4,167.0,0.5,23,170.5
537,E-5,167.5,0.5,23,170.5
538,C#6,167.917,1.0,48,170.5
539,C#3,168.5,0.5,27,170.5
540,C6,168.917,2.0,43,170.5
541,A5,168.917,2.0,43,170.5
542,F#5,168.917,2.0,43,170.5
543,F#3,169.0,0.5,24,170.5
544,E4,169.5,0.5,24,170.5
545,B2,170.5,0.5,27,170.5
546,C#6,170.917,1.0,55,170.5
547,F#3,171.0,0.5,28,170.5
548,E-4,171.5,0.5,27,170.5
549,E6,171.917,1.0,42,170.5
550,A5,171.917,1.0,42,170.5
551,F#5,171.917,1.0,42,170.5
552,A2,172.5,0.5,36,170.5
553,E-6,172.917,667/1000,57,170.5
554,F#3,173.0,0.5,36,170.5
555,C#4,173.5,0.5,36,170.5
556,F#5,173.583,667/1000,46,170.5
557,B5,173.583,667/1000,46,170.5
558,E-6,174.25,667/1000,51,170.5
559,G#2,174.5,0.5,36,170.5
560,C#5,174.917,1.0,46,170.5
561,E3,175.0,0.5,36,170.5
562,G#2,175.5,0.5,36,170.5
563,A4,175.917,1.0,32,170.5
564,E5,175.917,1.0,32,170.5
565,F#4,175.917,1.0,32,170.5
566,F#2,176.5,0.5,35,170.5
567,E-5,176.917,667/1000,49,170.5
568,C#3,177.0,0.5,35,170.5
569,F#2,177.5,0.5,35,170.5
570,F#4,177.583,667/1000,32,170.5
571,A4,177.583,667/1000,32,170.5
572,B4,177.583,667/1000,32,170.5
573,E-5,178.25,667/1000,44,170.5
574,B1,178.5,0.5,33,170.5
575,F#4,178.917,2.0,46,170.5
576,E-4,178.917,2.0,46,170.5
577,C#5,178.917,2.0,46,170.5
578,B2,179.0,0.5,33,170.5
579,B1,179.5,0.5,33,170.5
580,E2,180.0,0.5,35,170.5
581,B2,180.5,0.5,34,170.5
582,E4,180.917,1.0,46,170.5
583,B4,180.917,1.0,46,170.5
584,G#4,180.917,1.0,46,170.5
585,E3,181.0,0.5,34,170.5
586,G#3,181.5,0.5,34,170.5
587,E4,181.917,1.0,45,170.5
588,B3,181.917,1.0,45,170.5
589,G#4,181.917,1.0,45,170.5
590,B3,182.0,0.5,37,170.5
591,E4,182.5,0.5,35,170.5
592,E4,182.917,667/1000,45,170.5
593,C#4,182.917,2.0,45,170.5
594,A3,182.917,2.0,45,170.5
595,F#4,183.583,667/1000,44,170.5
596,G#4,184.25,667/1000,44,170.5
597,G3,184.5,0.5,36,170.5
598,E4,184.917,1.0,44,170.5
599,A3,184.917,2.0,44,170.5
600,F#4,184.917,2.0,44,170.5
601,C#4,185.0,0.5,36,170.5
602,E4,185.5,0.5,36,170.5
603,E-4,185.917,1.0,43,170.5
604,G#3,186.5,0.5,32,170.5
605,E4,186.917,4.0,44,170.5
606,C#4,186.917,1.0,44,170.5
607,G#4,186.917,3.5,44,170.5
608,B3,187.0,0.5,28,170.5
609,E-4,187.5,0.5,28,170.5
610,B3,187.917,1.0,40,170.5
611,C#3,188.5,0.5,36,170.5
612,G#3,189.0,0.5,36,170.5
613,C#4,189.5,0.5,36,170.5
614,G#4,189.917,1.0,39,170.5
615,B4,190.417,0.5,40,170.5
616,G#2,190.5,0.5,36,170.5
617,C#5,190.917,1.0,46,170.5
618,B-4,190.917,2.0,32,170.5
619,G4,190.917,2.0,32,170.5
620,E-3,191.0,0.5,36,170.5
621,G#3,191.5,0.5,36,170.5
622,E5,191.917,1.0,46,170.5
623,F#2,192.5,0.5,35,170.5
624,G#4,192.917,2.0,34,170.5
625,E-5,192.917,667/1000,49,170.5
626,B4,192.917,1333/1000,34,170.5
627,C#3,193.0,0.5,35,170.5
628,F#2,193.5,0.5,35,170.5
629,B4,193.583,1333/1000,45,170.5
630,E-5,194.25,667/1000,44,170.5
631,E2,194.5,0.5,36,170.5
632,G#4,194.917,2.0,47,170.5
633,E4,194.917,2.0,47,170.5
634,C#5,194.917,2.0,47,170.5
635,C#3,195.0,0.5,36,170.5
636,E2,195.5,0.5,36,170.5
637,E-2,196.0,0.5,40,170.5
638,B2,196.5,0.5,36,170.5
639,E-4,196.917,1.0,47,170.5
640,B4,196.917,1.0,47,170.5
641,G#4,196.917,1.0,47,170.5
642,E-3,197.0,0.5,36,170.5
643,F#3,197.5,0.5,36,170.5
644,E-4,197.917,1.0,45,170.5
645,B3,197.917,1.0,45,170.5
646,G#4,197.917,1.0,45,170.5
647,B3,198.0,0.5,42,170.5
648,E-4,198.5,0.5,38,170.5
649,E4,198.917,667/1000,45,170.5
650,C#4,198.917,2.0,45,170.5
651,B-3,198.917,2.0,45,170.5
652,F#4,199.0,0.5,43,170.5
653,B4,199.5,0.5,46,170.5
654,F#4,199.583,667/1000,44,170.5
655,G#4,200.25,667/1000,45,170.5
656,C#4,200.5,0.5,38,170.5
657,E-4,200.917,1.0,46,170.5
658,F#4,200.917,2.0,46,170.5
659,B-4,200.917,2.0,46,170.5
660,E4,201.0,0.5,33,170.5
661,G#4,201.5,0.5,33,170.5
662,C#4,201.917,1.0,43,170.5
663,B3,202.5,0.5,37,170.5
664,E4,203.0,0.5,32,170.5
665,G#4,203.5,0.5,32,170.5
666,C#4,203.917,1.0,43,170.5
667,F#4,203.917,1.0,46,170.5
668,B-4,203.917,1.0,46,170.5
669,B-3,204.5,0.5,38,170.5
670,F#4,204.917,1.0,47,170.5
671,B4,204.917,1.0,47,170.5
672,B3,204.917,1.0,47,170.5
673,E4,205.0,0.5,34,170.5
674,G#4,205.5,0.5,34,170.5
675,F#4,205.917,1.0,50,170.5
676,E-5,205.917,1.0,50,170.5
677,B4,205.917,1.0,50,170.5
678,G#3,206.5,0.5,33,170.5
679,B4,206.917,1.0,54,170.5
680,E-5,206.917,1.0,54,170.5
681,F#5,206.917,1.0,54,170.5
682,E4,207.0,0.5,33,170.5
683,B4,207.5,0.5,32,170.5
684,E-5,207.917,1.0,51,170.5
685,E5,207.917,4.0,47,170.5
686,G#5,207.917,4.0,47,170.5
687,C#4,208.5,0.5,37,170.5
688,C#5,208.917,1.0,36,170.5
689,E4,209.0,0.5,33,170.5
690,G#4,209.5,0.5,33,170.5
691,E-5,209.917,1.0,42,170.5
692,B3,210.5,0.5,36,170.5
693,C#5,210.917,1.0,37,170.5
694,E4,211.0,0.5,32,170.5
695,G#4,211.5,0.5,32,170.5
696,B-3,212.5,0.5,37,170.5
697,E4,213.0,0.5,34,170.5
698,G#4,213.5,0.5,34,170.5
699,E-5,213.917,1.0,48,170.5
700,E5,213.917,2.0,47,170.5
701,G#5,213.917,2.0,47,170.5
702,F#3,214.5,0.5,38,170.5
703,C#5,214.917,1.0,41,170.5
704,C#4,215.0,0.5,33,170.5
705,F#4,215.5,0.5,33,170.5
706,B5,215.917,667/1000,57,170.5
707,G#5,215.917,2.0,34,170.5
708,E5,215.917,2.0,34,170.5
709,B3,216.5,0.5,38,170.5
710,E-6,216.583,667/1000,53,170.5
711,D4,217.0,0.5,33,170.5
712,B5,217.25,667/1000,53,170.5
713,F#4,217.5,0.5,33,170.5
714,E-5,217.917,1.0,49,170.5
715,G#5,217.917,4.0,45,170.5
716,E5,217.917,4.0,45,170.5
717,A3,218.5,0.5,37,170.5
718,C#5,218.917,1.0,36,170.5
719,D4,219.0,0.5,32,170.5
720,F#4,219.5,0.5,32,170.5
721,E-5,219.917,1.0,42,170.5
722,G#3,220.5,0.5,38,170.5
723,C#5,220.917,1.0,37,170.5
724,D4,221.0,0.5,34,170.5
725,F#4,221.5,0.5,34,170.5
726,F#3,222.5,0.5,37,170.5
727,D4,223.0,0.5,36,170.5
728,A4,223.5,0.5,34,170.5
729,E-5,223.917,1.0,48,170.5
730,G#5,223.917,2.0,45,170.5
731,E5,223.917,2.0,45,170.5
732,B3,224.5,0.5,37,170.5
733,G#5,224.917,1.0,44,170.5
734,C#6,224.917,1.0,44,170.5
735,E5,224.917,1.0,44,170.5
736,D4,225.0,0.5,33,170.5
737,F#4,225.5,0.5,33,170.5
738,C#5,225.917,1.0,41,170.5
739,B-5,225.917,1.0,41,170.5
740,F#5,225.917,1.0,41,170.5
741,A3,226.5,0.5,37,170.5
742,E5,226.917,1.0,40,170.5
743,B-4,226.917,1.0,40,170.5
744,G#5,226.917,1.0,40,170.5
745,D4,227.0,0.5,32,170.5
746,F#4,227.5,0.5,32,170.5
747,C#5,227.917,1.0,46,170.5
748,F#5,227.917,4.0,47,170.5
749,D5,227.917,4.0,47,170.5
750,G#3,228.5,0.5,39,170.5
751,B4,228.917,1.0,36,170.5
752,D4,229.0,0.5,40,170.5
753,F#4,229.5,0.5,40,170.5
754,C#5,229.917,1.0,42,170.5
755,E3,230.5,0.5,45,170.5
756,B4,230.917,1.0,37,170.5
757,B3,231.0,0.5,39,170.5
758,E3,231.5,0.5,39,170.5
759,A2,232.0,0.188,55,170.5
760,E3,232.5,0.188,51,170.5
761,A3,233.0,0.188,51,170.5
762,C#4,233.5,0.188,51,170.5
763,C#5,233.917,1.0,48,170.5
764,F#5,233.917,2.0,47,170.5
765,D5,233.917,2.0,47,170.5
766,C#4,234.0,0.188,55,170.5
767,A3,234.5,0.188,50,170.5
768,B4,234.917,1.0,41,170.5
769,E3,235.0,0.188,50,170.5
770,A2,235.5,0.188,50,170.5
771,A5,235.917,667/1000,53,170.5
772,F#5,235.917,2.0,40,170.5
773,D5,235.917,2.0,40,170.5
774,F#2,236.0,0.188,60,170.5
775,C#3,236.5,0.188,54,170.5
776,C#6,236.583,667/1000,51,170.5
777,F#3,237.0,0.188,56,170.5
778,A5,237.25,667/1000,50,170.5
779,C#4,237.5,0.188,54,170.5
780,C#5,237.917,1.0,46,170.5
781,F#5,237.917,4.0,45,170.5
782,D5,237.917,4.0,45,170.5
783,C#4,238.0,0.188,60,170.5
784,F#3,238.5,0.188,55,170.5
785,B4,238.917,1.0,36,170.5
786,C#3,239.0,0.188,57,170.5
787,F#2,239.5,0.188,55,170.5
788,C#5,239.917,1.0,42,170.5
789,A2,240.0,0.188,55,170.5
790,E3,240.5,0.188,51,170.5
791,B4,240.917,1.0,37,170.5
792,A3,241.0,0.188,51,170.5
793,C#4,241.5,0.188,51,170.5
794,C#4,242.0,0.188,57,170.5
795,A3,242.5,0.188,52,170.5
796,E3,243.0,0.188,57,170.5
797,A2,243.5,0.188,54,170.5
798,C#5,243.917,1.0,48,170.5
799,F#5,243.917,2.0,45,170.5
800,D5,243.917,2.0,45,170.5
801,D2,244.0,0.188,60,170.5
802,A2,244.5,0.188,55,170.5
803,F#5,244.917,1.0,53,170.5
804,B5,244.917,1.0,53,170.5
805,D5,244.917,1.0,53,170.5
806,D3,245.0,0.188,57,170.5
807,F#3,245.5,0.188,55,170.5
808,B4,245.917,1.0,49,170.5
809,G#5,245.917,1.0,49,170.5
810,E5,245.917,1.0,49,170.5
811,F#3,246.0,0.188,60,170.5
812,D3,246.5,0.188,56,170.5
813,D5,246.917,1.0,47,170.5
814,G#4,246.917,1.0,47,170.5
815,F#5,246.917,1.0,47,170.5
816,A2,247.0,0.188,58,170.5
817,D2,247.5,0.188,56,170.5
818,E5,247.917,1.0,60,170.5
819,A4,247.917,1.0,60,170.5
820,C#5,247.917,1.0,60,170.5
821,G2,248.0,0.188,29,170.5
822,D3,248.5,0.188,27,170.5
823,A4,248.917,0.188,56,170.5
824,E4,248.917,0.188,56,170.5
825,C#5,248.917,0.188,56,170.5
826,G3,249.0,0.188,27,170.5
827,E4,249.417,0.188,56,170.5
828,A4,249.417,0.188,56,170.5
829,C#5,249.417,0.188,56,170.5
830,D3,249.5,0.188,27,170.5
831,A4,249.917,0.75,56,170.5
832,C#5,249.917,0.75,56,170.5
833,E4,249.917,0.75,56,170.5
834,G2,250.0,0.188,29,170.5
835,D3,250.5,0.188,26,170.5
836,C#5,250.917,1.0,58,170.5
837,A4,250.917,1.0,58,170.5
838,E5,250.917,1.0,58,170.5
839,G3,251.0,0.188,26,170.5
840,D3,251.5,0.188,26,170.5
841,A4,251.917,1.0,58,170.5
842,F#5,251.917,1.0,58,170.5
843,C#5,251.917,1.0,58,170.5
844,D2,252.0,0.188,29,170.5
845,A2,252.5,0.188,27,170.5
846,C#5,252.917,0.375,54,170.5
847,A4,252.917,0.375,54,170.5
848,F#5,252.917,0.375,54,170.5
849,F3,253.0,0.188,27,170.5
850,G#5,253.417,0.375,54,170.5
851,B4,253.417,0.375,54,170.5
852,C#5,253.417,0.375,54,170.5
853,A2,253.5,0.188,27,170.5
854,C#5,253.917,0.375,54,170.5
855,A4,253.917,0.375,54,170.5
856,F#5,253.917,0.375,54,170.5
857,F2,254.0,0.188,29,170.5
858,B4,254.417,0.375,54,170.5
859,G#5,254.417,0.375,54,170.5
860,C#5,254.417,0.375,54,170.5
861,C3,254.5,0.188,27,170.5
862,C#5,254.917,1.0,57,170.5
863,A4,254.917,1.0,57,170.5
864,F#5,254.917,1.0,57,170.5
865,A3,255.0,0.188,27,170.5
866,C3,255.5,0.188,27,170.5
867,E5,255.917,1.0,62,170.5
868,A4,255.917,1.0,62,170.5
869,C#5,255.917,1.0,62,170.5
870,G2,256.0,0.188,29,170.5
871,D3,256.5,0.188,27,170.5
872,A4,256.917,0.188,56,170.5
873,G#4,256.917,0.188,56,170.5
874,C#5,256.917,0.188,56,170.5
875,G3,257.0,0.188,27,170.5
876,G#4,257.417,0.188,56,170.5
877,A4,257.417,0.188,56,170.5
878,C#5,257.417,0.188,56,170.5
879,D3,257.5,0.188,27,170.5
880,A4,257.917,0.75,56,170.5
881,C#5,257.917,0.75,56,170.5
882,F#4,257.917,0.75,56,170.5
883,F2,258.0,0.188,30,170.5
884,D3,258.5,0.188,28,170.5
885,F#4,258.917,1.0,61,170.5
886,E4,258.917,1.0,61,170.5
887,A4,258.917,1.0,61,170.5
888,G3,259.0,0.188,29,170.5
889,D3,259.5,0.188,31,170.5
890,C#5,259.917,4.0,64,170.5
891,F#4,259.917,4.0,64,170.5
892,A4,259.917,4.0,64,170.5
893,D4,259.917,4.0,64,170.5
894,E2,260.0,0.5,35,170.5
895,B2,260.5,0.5,39,170.5
896,E3,261.0,0.5,40,170.5
897,G#3,261.5,0.375,41,170.5
898,E3,262.0,0.5,46,170.5
899,G#3,262.5,0.5,50,170.5
900,B3,263.0,0.5,54,170.5
901,E4,263.5,0.5,57,170.5
902,D4,263.917,1.0,30,170.5
903,B4,263.917,1.0,30,170.5
904,G4,263.917,1.0,30,170.5
905,A3,264.0,0.188,60,170.5
906,C#4,264.5,0.188,56,170.5
907,G4,264.917,0.188,29,170.5
908,B3,264.917,0.188,29,170.5
909,D4,264.917,0.188,29,170.5
910,E4,265.0,0.188,56,170.5
911,G4,265.417,0.188,29,170.5
912,B3,265.417,0.188,29,170.5
913,D4,265.417,0.188,29,170.5
914,C#4,265.5,0.188,56,170.5
915,D4,265.917,0.5,29,170.5
916,B3,265.917,0.5,29,170.5
917,G4,265.917,0.5,29,170.5
918,G#3,266.0,0.188,60,170.5
919,C#4,266.5,0.188,55,170.5
920,D4,266.917,0.75,30,170.5
921,B4,266.917,0.75,30,170.5
922,G4,266.917,0.75,30,170.5
923,E4,267.0,0.188,55,170.5
924,C#4,267.5,0.188,55,170.5
925,F4,267.917,1.0,30,170.5
926,C4,267.917,1.0,30,170.5
927,A4,267.917,1.0,30,170.5
928,F#3,268.0,0.188,66,170.5
929,C#4,268.5,0.188,58,170.5
930,A4,268.917,0.25,28,170.5
931,C4,268.917,0.25,28,170.5
932,F4,268.917,0.25,28,170.5
933,F#4,269.0,0.188,61,170.5
934,B4,269.417,0.25,28,170.5
935,D4,269.417,0.25,28,170.5
936,F4,269.417,0.25,28,170.5
937,C#4,269.5,0.188,58,170.5
938,F4,269.917,0.25,28,170.5
939,A4,269.917,0.25,28,170.5
940,C4,269.917,0.25,28,170.5
941,F#3,270.0,0.188,66,170.5
942,F4,270.417,0.25,28,170.5
943,D4,270.417,0.25,28,170.5
944,B4,270.417,0.25,28,170.5
945,A3,270.5,0.188,60,170.5
946,E4,270.917,0.5,30,170.5
947,C5,270.917,0.5,30,170.5
948,F4,270.917,0.5,30,170.5
949,F#4,271.0,0.188,62,170.5
950,A3,271.5,0.188,60,170.5
951,G4,271.917,1.0,31,170.5
952,D4,271.917,1.0,31,170.5
953,B4,271.917,1.0,31,170.5
954,A2,272.0,0.188,60,170.5
955,E3,272.5,0.188,56,170.5
956,G4,272.917,0.188,28,170.5
957,B3,272.917,0.188,28,170.5
958,D4,272.917,0.188,28,170.5
959,C#4,273.0,0.188,56,170.5
960,D4,273.417,0.188,28,170.5
961,B3,273.417,0.188,28,170.5
962,G4,273.417,0.188,28,170.5
963,E3,273.5,0.188,56,170.5
964,B3,273.917,0.75,29,170.5
965,G4,273.917,0.75,29,170.5
966,D4,273.917,0.75,29,170.5
967,F#2,274.0,0.188,62,170.5
968,C#3,274.5,0.188,57,170.5
969,G4,274.917,1.0,32,170.5
970,D4,274.917,1.0,32,170.5
971,B4,274.917,1.0,32,170.5
972,A3,275.0,0.188,62,170.5
973,C#3,275.5,0.188,58,170.5
974,E4,275.917,2.0,35,170.5
975,B4,275.917,2.0,35,170.5
976,G#4,275.917,2.0,35,170.5
977,B1,276.0,0.188,63,170.5
978,F#2,276.5,0.188,57,170.5
979,B2,277.0,0.188,61,170.5
980,F#2,277.5,0.188,57,170.5
981,E4,277.917,187/125,48,170.5
982,F#2,278.0,0.188,62,170.5
983,B2,278.5,0.188,57,170.5
984,F#3,279.0,0.188,61,170.5
985,B2,279.5,0.188,57,170.5
986,E5,279.917,1.0,63,170.5
987,A4,279.917,1.0,63,170.5
988,C#5,279.917,1.0,63,170.5
989,B2,280.0,0.188,54,170.5
990,F#3,280.5,0.188,44,170.5
991,A4,280.917,0.188,61,170.5
992,C#5,280.917,0.188,61,170.5
993,B3,281.0,0.188,44,170.5
994,C#5,281.417,0.188,61,170.5
995,A4,281.417,0.188,61,170.5
996,F#3,281.5,0.188,44,170.5
997,A4,281.917,0.75,61,170.5
998,C#5,281.917,0.75,61,170.5
999,F#2,282.0,0.188,51,170.5
1000,C#3,282.5,0.188,45,170.5
1001,E5,282.917,1.0,63,170.5
1002,A4,282.917,1.0,63,170.5
1003,C#5,282.917,1.0,63,170.5
1004,F#3,283.0,0.188,45,170.5
1005,C#3,283.5,0.188,45,170.5
1006,C#5,283.917,1.0,63,170.5
1007,A4,283.917,1.0,63,170.5
1008,F#5,283.917,1.0,63,170.5
1009,B2,284.0,0.188,55,170.5
1010,F#3,284.5,0.188,50,170.5
1011,A4,284.917,0.375,56,170.5
1012,F#5,284.917,0.375,56,170.5
1013,C#5,284.917,0.375,56,170.5
1014,B3,285.0,0.188,50,170.5
1015,C#5,285.417,0.375,56,170.5
1016,B4,285.417,0.375,56,170.5
1017,G#5,285.417,0.375,56,170.5
1018,F#3,285.5,0.188,50,170.5
1019,F#5,285.917,0.375,58,170.5
1020,A4,285.917,0.375,58,170.5
1021,D5,285.917,0.375,58,170.5
1022,F#2,286.0,0.188,56,170.5
1023,D5,286.417,0.375,57,170.5
1024,A4,286.417,0.375,57,170.5
1025,G#5,286.417,0.375,57,170.5
1026,C#3,286.5,0.188,52,170.5
1027,A4,286.917,1.0,61,170.5
1028,F#5,286.917,1.0,61,170.5
1029,D5,286.917,1.0,61,170.5
1030,F#3,287.0,0.188,52,170.5
1031,C#3,287.5,0.188,54,170.5
1032,C#5,287.917,1.0,68,170.5
1033,A4,287.917,1.0,68,170.5
1034,E5,287.917,1.0,68,170.5
1035,B2,288.0,0.188,63,170.5
1036,F#3,288.5,0.188,57,170.5
1037,C#5,288.917,0.188,61,170.5
1038,G#4,288.917,0.188,61,170.5
1039,A4,288.917,0.188,61,170.5
1040,B3,289.0,0.188,57,170.5
1041,C#5,289.417,0.188,61,170.5
1042,A4,289.417,0.188,61,170.5
1043,G#4,289.417,0.188,61,170.5
1044,F#3,289.5,0.188,57,170.5
1045,A4,289.917,0.75,61,170.5
1046,F#4,289.917,0.75,61,170.5
1047,C#5,289.917,0.75,61,170.5
1048,F#2,290.0,0.188,68,170.5
1049,C#3,290.5,0.188,58,170.5
1050,A4,290.917,1.0,63,170.5
1051,E4,290.917,1.0,63,170.5
1052,F#4,290.917,1.0,63,170.5
1053,F#3,291.0,0.188,62,170.5
1054,C#3,291.5,0.188,66,170.5
1055,E-4,291.917,4.0,67,170.5
1056,C#5,291.917,4.0,67,170.5
1057,A4,291.917,4.0,67,170.5
1058,F#4,291.917,4.0,67,170.5
1059,G#1,293.0,0.5,64,170.5
1060,E-2,293.0,0.5,64,170.5
1061,G#2,293.5,0.5,66,170.5
1062,G#2,294.0,0.5,68,170.5
1063,E-3,294.5,0.5,69,170.5
1064,G#3,296.0,0.5,75,170.5
1065,E-4,296.5,0.5,70,170.5
1066,E-4,296.917,1.0,67,170.5
1067,C#5,296.917,1.0,67,170.5
1068,A4,296.917,1.0,67,170.5
1069,F#4,296.917,1.0,67,170.5
1070,A4,297.917,0.25,51,170.5
1071,C#4,297.917,0.25,51,170.5
1072,F#4,297.917,0.25,51,170.5
1073,G#4,298.0,0.5,70,170.5
1074,C#4,298.417,0.25,51,170.5
1075,A4,298.417,0.25,51,170.5
1076,F#4,298.417,0.25,51,170.5
1077,E-5,298.5,0.5,66,170.5
1078,E-4,298.917,0.75,51,170.5
1079,B3,298.917,0.75,51,170.5
1080,F#4,298.917,0.75,51,170.5
1081,A4,299.917,0.75,54,170.5
1082,E4,299.917,0.75,54,170.5
1083,F#4,299.917,0.75,54,170.5
1084,G#4,300.0,0.5,32,170.5
1085,C5,300.5,0.5,30,170.5
1086,A4,300.917,1.0,56,170.5
1087,E-4,300.917,1.0,56,170.5
1088,C#5,300.917,1.0,56,170.5
1089,E-5,301.0,0.5,30,170.5
1090,C5,301.5,0.5,30,170.5
1091,C#4,301.917,0.25,54,170.5
1092,A4,301.917,0.25,54,170.5
1093,F#4,301.917,0.25,54,170.5
1094,G#4,302.0,0.5,32,170.5
1095,F#4,302.417,0.25,54,170.5
1096,C#4,302.417,0.25,54,170.5
1097,A4,302.417,0.25,54,170.5
1098,B4,302.5,0.5,30,170.5
1099,B3,302.917,0.75,56,170.5
1100,F#4,302.917,0.75,56,170.5
1101,E-4,302.917,0.75,56,170.5
1102,E-5,303.0,0.5,30,170.5
1103,B4,303.5,0.5,30,170.5
1104,E4,303.917,0.75,58,170.5
1105,A4,303.917,0.75,58,170.5
1106,F#4,303.917,0.75,58,170.5
1107,G#4,304.0,0.5,32,170.5
1108,C5,304.5,0.5,30,170.5
1109,A4,304.917,1.0,67,170.5
1110,E-4,304.917,1.0,67,170.5
1111,C#5,304.917,1.0,67,170.5
1112,E-5,305.0,0.5,30,170.5
1113,C5,305.5,0.5,30,170.5
1114,A4,305.917,2.0,66,170.5
1115,C#4,305.917,2.0,66,170.5
1116,F#4,305.917,2.0,66,170.5
1117,G4,306.0,0.5,32,170.5
1118,G#4,306.5,0.5,30,170.5
1119,C5,307.0,0.5,30,170.5
1120,G4,307.5,0.5,30,170.5
1121,A4,307.917,1.0,73,170.5
1122,F#4,307.917,1.0,73,170.5
1123,C#5,307.917,1.0,73,170.5
1124,F4,308.0,0.5,32,170.5
1125,G#4,308.5,0.5,30,170.5
1126,G#4,308.917,0.5,73,170.5
1127,E-5,308.917,0.5,73,170.5
1128,C5,309.0,0.5,30,170.5
1129,E-4,309.417,0.5,66,170.5
1130,G#4,309.5,0.5,30,170.5
1131,E-4,310.0,0.5,32,170.5
1132,G4,310.5,0.5,28,170.5
1133,G#4,311.0,0.5,28,170.5
1134,G4,311.5,0.5,28,170.5
1135,E-4,311.917,0.5,72,170.5
1136,C#4,312.0,0.5,30,170.5
1137,G#3,312.417,0.5,69,170.5
1138,F4,312.5,0.5,28,170.5
1139,G#4,313.0,0.5,28,170.5
1140,F4,313.5,0.5,28,170.5
1141,E-5,313.917,0.5,74,170.5
1142,E-4,314.0,0.5,31,170.5
1143,G#4,314.417,62/125,72,170.5
1144,F4,314.5,0.5,29,170.5
1145,G#4,315.0,0.5,33,170.5
1146,F4,315.5,0.5,30,170.5
1147,E-6,315.917,0.5,67,170.5
1148,F4,316.0,2.0,34,170.5
1149,G#5,316.417,0.5,62,170.5
1150,G#4,316.5,0.5,30,170.5
1151,E-6,316.917,249/250,52,170.5
1152,C6,316.917,249/250,52,170.5
1153,B-4,317.0,0.5,30,170.5
1154,G#4,317.5,0.5,30,170.5
1155,C6,317.917,1.0,51,170.5
1156,E-4,318.0,2.0,32,170.5
1157,G4,318.5,0.5,28,170.5
1158,B5,318.917,2.0,52,170.5
1159,E-6,318.917,1.0,52,170.5
1160,G#4,319.0,0.5,30,170.5
1161,G4,319.5,0.5,28,170.5
1162,G6,319.917,1.0,51,170.5
1163,C#4,320.0,2.0,30,170.5
1164,F4,320.5,0.5,28,170.5
1165,E-6,320.917,2.0,52,170.5
1166,C6,320.917,2.0,52,170.5
1167,G4,321.0,0.5,28,170.5
1168,F4,321.5,0.5,28,170.5
1169,C4,322.0,2.0,30,170.5
1170,E-4,322.5,0.5,28,170.5
1171,G#5,322.917,2.0,47,170.5
1172,C6,322.917,1.0,52,170.5
1173,F4,323.0,0.5,28,170.5
1174,E-4,323.5,0.5,28,170.5
1175,E-6,323.917,1.0,52,170.5
1176,B-3,324.0,2.0,30,170.5
1177,C#4,324.5,0.5,26,170.5
1178,C6,324.917,667/1000,52,170.5
1179,G#5,324.917,2.0,47,170.5
1180,E-4,325.0,0.5,26,170.5
1181,C#4,325.5,0.5,26,170.5
1182,B-5,325.583,667/1000,50,170.5
1183,G#3,326.0,2.0,30,170.5
1184,C6,326.25,667/1000,50,170.5
1185,C4,326.5,0.5,26,170.5
1186,G#5,326.917,1.0,48,170.5
1187,G5,326.917,2.0,40,170.5
1188,C#4,327.0,0.5,26,170.5
1189,C4,327.5,0.5,26,170.5
1190,C6,327.917,1.0,48,170.5
1191,G3,328.0,2.0,28,170.5
1192,B-3,328.5,0.5,25,170.5
1193,F5,328.917,2.0,44,170.5
1194,B-5,328.917,2.0,44,170.5
1195,C#4,329.0,0.5,25,170.5
1196,B-3,329.5,0.5,25,170.5
1197,F3,330.0,1.0,33,170.5
1198,B-4,330.917,1.0,47,170.5
1199,E-3,331.0,1.0,31,170.5
1200,C5,331.917,1.0,49,170.5
1201,G#2,332.0,0.5,28,170.5
1202,C3,332.5,0.5,27,170.5
1203,C#5,332.917,2.0,52,170.5
1204,G#2,333.0,0.5,27,170.5
1205,C3,333.5,0.5,27,170.5
1206,G2,334.0,0.5,28,170.5
1207,E-3,334.5,0.5,27,170.5
1208,C5,334.917,1.0,47,170.5
1209,G2,335.0,0.5,27,170.5
1210,E-3,335.5,0.5,27,170.5
1211,F5,335.917,1.0,49,170.5
1212,G#2,336.0,0.5,28,170.5
1213,E-3,336.5,0.5,27,170.5
1214,B-4,336.917,2.0,45,170.5
1215,G#2,337.0,0.5,27,170.5
1216,E-3,337.5,0.5,27,170.5
1217,G2,338.0,0.5,28,170.5
1218,E-3,338.5,0.5,27,170.5
1219,G#4,338.917,1.0,47,170.5
1220,G2,339.0,0.5,27,170.5
1221,E-3,339.5,0.5,27,170.5
1222,F5,339.917,1.0,49,170.5
1223,F2,340.0,0.5,28,170.5
1224,C3,340.5,0.5,27,170.5
1225,G4,340.917,2.0,40,170.5
1226,F2,341.0,0.5,27,170.5
1227,C3,341.5,0.5,27,170.5
1228,E-2,342.0,0.5,28,170.5
1229,C3,342.5,0.5,25,170.5
1230,F4,342.917,1.0,44,170.5
1231,E-2,343.0,0.5,25,170.5
1232,C3,343.5,0.5,25,170.5
1233,F5,343.917,1.0,44,170.5
1234,G#1,344.0,0.5,27,170.5
1235,G#2,344.5,0.5,25,170.5
1236,E-4,344.917,4.0,38,170.5
1237,G#1,345.0,0.5,25,170.5
1238,G#2,345.5,0.5,25,170.5
1239,G#1,346.0,0.5,25,170.5
1240,G#2,346.5,0.5,25,170.5
1241,G#1,347.0,0.5,25,170.5
1242,B-3,347.417,0.5,28,170.5
1243,C#4,347.417,0.5,28,170.5
1244,G#2,347.5,0.5,25,170.5
1245,G#2,348.0,0.188,26,170.5
1246,B-3,348.417,0.5,28,170.5
1247,C#4,348.417,0.5,28,170.5
1248,E3,348.5,0.188,24,170.5
1249,E-4,348.917,1.0,38,170.5
1250,B3,349.0,0.188,24,170.5
1251,E3,349.5,0.188,24,170.5
1252,C4,349.917,479/500,38,170.5
1253,G#2,350.0,0.188,26,170.5
1254,E3,350.5,0.188,23,170.5
1255,E-4,350.917,1.0,39,170.5
1256,B3,350.917,2.0,39,170.5
1257,B3,351.0,0.188,23,170.5
1258,E3,351.5,0.188,23,170.5
1259,G4,351.917,1.0,36,170.5
1260,G#2,352.0,0.188,28,170.5
1261,E3,352.5,0.188,25,170.5
1262,C4,352.917,2.0,39,170.5
1263,E-4,352.917,2.0,39,170.5
1264,B-3,353.0,0.188,26,170.5
1265,E3,353.5,0.188,25,170.5
1266,G#2,354.0,0.188,28,170.5
1267,E3,354.5,0.188,26,170.5
1268,C4,354.917,1.0,39,170.5
1269,B-3,354.917,2.0,35,170.5
1270,B-3,355.0,0.188,27,170.5
1271,E3,355.5,0.188,26,170.5
1272,E-4,355.917,1.0,39,170.5
1273,G#2,356.0,0.188,26,170.5
1274,E3,356.5,0.188,24,170.5
1275,C4,356.917,667/1000,39,170.5
1276,B-3,356.917,1333/1000,35,170.5
1277,B3,357.0,0.188,24,170.5
1278,E3,357.5,0.188,24,170.5
1279,B-3,357.583,1333/1000,37,170.5
1280,G#2,358.0,0.188,26,170.5
1281,C4,358.25,667/1000,37,170.5
1282,E3,358.5,0.188,24,170.5
1283,G#3,358.917,1.0,36,170.5
1284,G3,358.917,2.0,30,170.5
1285,B3,359.0,0.188,25,170.5
1286,E3,359.5,0.188,24,170.5
1287,C4,359.917,1.0,35,170.5
1288,G#2,360.0,0.188,27,170.5
1289,F3,360.5,0.188,26,170.5
1290,B-3,360.917,2.0,34,170.5
1291,D3,360.917,4.0,25,170.5
1292,F3,360.917,4.0,25,170.5
1293,B-3,361.0,0.188,27,170.5
1294,F3,361.5,0.188,26,170.5
1295,G#3,362.0,0.188,29,170.5
1296,G#3,362.917,1.0,29,170.5
1297,B-3,363.917,1.0,27,170.5
1298,G#3,364.0,0.188,26,170.5
1299,E4,364.5,0.188,24,170.5
1300,G#4,364.917,1.0,28,170.5
1301,E4,364.917,1.0,28,170.5
1302,B4,364.917,1.0,28,170.5
1303,B4,365.0,0.188,24,170.5
1304,E4,365.5,0.188,24,170.5
1305,E4,365.917,0.188,26,170.5
1306,G#4,365.917,0.188,26,170.5
1307,G#3,366.0,0.188,26,170.5
1308,E4,366.417,0.188,26,170.5
1309,G#4,366.417,0.188,26,170.5
1310,E4,366.5,0.188,23,170.5
1311,E4,366.917,0.25,26,170.5
1312,G#4,366.917,0.25,26,170.5
1313,B4,367.0,0.188,23,170.5
1314,E4,367.5,0.188,23,170.5
1315,B4,367.917,0.25,28,170.5
1316,E4,367.917,0.25,28,170.5
1317,G#4,367.917,0.25,28,170.5
1318,G#3,368.0,0.188,28,170.5
1319,E4,368.5,0.188,25,170.5
1320,G#4,368.917,1.0,28,170.5
1321,E4,368.917,1.0,28,170.5
1322,C#5,368.917,1.0,28,170.5
1323,B-4,369.0,0.188,26,170.5
1324,E4,369.5,0.188,25,170.5
1325,E4,369.917,0.188,32,170.5
1326,C#5,369.917,0.188,32,170.5
1327,G#4,369.917,0.188,32,170.5
1328,G#3,370.0,0.188,28,170.5
1329,G#4,370.417,0.188,30,170.5
1330,E4,370.417,0.188,30,170.5
1331,E-5,370.417,0.188,30,170.5
1332,E4,370.5,0.188,26,170.5
1333,E4,370.917,0.188,32,170.5
1334,C#5,370.917,0.188,32,170.5
1335,G#4,370.917,0.188,32,170.5
1336,B-4,371.0,0.188,27,170.5
1337,E4,371.417,0.188,30,170.5
1338,E-5,371.417,0.188,30,170.5
1339,G#4,371.417,0.188,30,170.5
1340,E4,371.5,0.188,26,170.5
1341,G#4,371.917,0.25,27,170.5
1342,E4,371.917,0.25,27,170.5
1343,C#5,371.917,0.25,27,170.5
1344,G#3,372.0,0.188,26,170.5
1345,E4,372.5,0.188,24,170.5
1346,B4,372.917,1.0,29,170.5
1347,E4,372.917,1.0,29,170.5
1348,G#4,372.917,1.0,29,170.5
1349,B4,373.0,0.188,24,170.5
1350,E4,373.5,0.188,24,170.5
1351,G#4,373.917,0.188,26,170.5
1352,E4,373.917,0.188,26,170.5
1353,G#3,374.0,0.188,26,170.5
1354,G#4,374.417,0.188,26,170.5
1355,E4,374.417,0.188,26,170.5
1356,E4,374.5,0.188,24,170.5
1357,G#4,374.917,0.75,26,170.5
1358,E4,374.917,0.75,26,170.5
1359,B4,375.0,0.188,25,170.5
1360,E4,375.5,0.188,24,170.5
1361,G#4,375.917,1.0,30,170.5
1362,E4,375.917,1.0,30,170.5
1363,B4,375.917,1.0,30,170.5
1364,G#3,376.0,4.0,34,170.5
1365,F4,376.917,2.688,28,170.5
1366,B-4,376.917,3.188,28,170.5
1367,G#4,376.917,4.0,28,170.5
1368,D4,376.917,4.0,28,170.5
1369,D4,377.0,0.5,25,170.5
1370,F4,377.0,0.5,25,170.5
1371,B-4,377.5,0.5,28,170.5
1372,D4,379.0,0.5,25,170.5
1373,F4,379.0,0.5,25,170.5
1374,F4,379.417,1.188,26,170.5
1375,B-4,379.5,0.5,29,170.5
1376,B-4,379.917,1.0,28,170.5
1377,G#3,380.0,4.0,34,170.5
1378,F4,380.417,0.5,26,170.5
1379,G#5,380.917,1.0,29,170.5
1380,E5,380.917,1.0,29,170.5
1381,B5,380.917,1.0,29,170.5
1382,D4,381.0,0.5,25,170.5
1383,F4,381.0,0.5,25,170.5
1384,B-4,381.5,0.5,29,170.5
1385,E5,381.917,0.188,27,170.5
1386,G#5,381.917,0.188,27,170.5
1387,E5,382.417,0.188,27,170.5
1388,G#5,382.417,0.188,27,170.5
1389,G#5,382.917,0.25,27,170.5
1390,E5,382.917,0.25,27,170.5
1391,D4,383.0,0.5,24,170.5
1392,F4,383.0,0.5,24,170.5
1393,B-4,383.5,0.5,28,170.5
1394,G#5,383.917,1.0,29,170.5
1395,E5,383.917,1.0,29,170.5
1396,B5,383.917,1.0,29,170.5
1397,G#3,384.0,4.0,34,170.5
1398,E5,384.917,1.0,29,170.5
1399,C#6,384.917,1.0,29,170.5
1400,G#5,384.917,1.0,29,170.5
1401,D4,385.0,0.5,25,170.5
1402,F4,385.0,0.5,25,170.5
1403,B-4,385.5,0.5,29,170.5
1404,G#5,385.917,0.188,33,170.5
1405,E5,385.917,0.188,33,170.5
1406,C#6,385.917,0.188,33,170.5
1407,E-6,386.417,0.188,29,170.5
1408,E5,386.417,0.188,29,170.5
1409,G#5,386.417,0.188,29,170.5
1410,G#5,386.917,0.188,33,170.5
1411,E5,386.917,0.188,33,170.5
1412,C#6,386.917,0.188,33,170.5
1413,E-4,387.0,0.5,25,170.5
1414,F#4,387.0,0.5,25,170.5
1415,E5,387.417,0.188,31,170.5
1416,E-6,387.417,0.188,31,170.5
1417,G#5,387.417,0.188,31,170.5
1418,B4,387.5,0.5,30,170.5
1419,G#5,387.917,1.0,28,170.5
1420,E5,387.917,1.0,28,170.5
1421,C#6,387.917,1.0,28,170.5
1422,B3,388.0,4.0,37,170.5
1423,B5,388.917,1.0,30,170.5
1424,E5,388.917,1.0,30,170.5
1425,G#5,388.917,1.0,30,170.5
1426,F4,389.0,0.5,27,170.5
1427,G#4,389.0,0.5,27,170.5
1428,C#5,389.5,0.5,31,170.5
1429,G#5,389.917,0.188,27,170.5
1430,E5,389.917,0.188,27,170.5
1431,G#5,390.417,0.188,27,170.5
1432,E5,390.417,0.188,27,170.5
1433,G#5,390.917,0.75,27,170.5
1434,E5,390.917,0.75,27,170.5
1435,E-4,391.0,0.5,24,170.5
1436,F#4,391.0,0.5,24,170.5
1437,B4,391.5,0.5,28,170.5
1438,G#5,391.917,1.0,30,170.5
1439,B5,391.917,1.0,30,170.5
1440,E5,391.917,1.0,30,170.5
1441,G#3,392.0,4.0,34,170.5
1442,F5,392.917,0.5,34,170.5
1443,B-5,392.917,0.5,34,170.5
1444,D4,393.0,0.5,25,170.5
1445,F4,393.0,0.5,25,170.5
1446,D5,393.417,0.5,29,170.5
1447,B-4,393.5,0.5,29,170.5
1448,B-5,394.917,0.5,33,170.5
1449,F5,394.917,0.5,33,170.5
1450,E-4,395.0,0.5,25,170.5
1451,F#4,395.0,0.5,25,170.5
1452,D5,395.417,0.5,29,170.5
1453,B4,395.5,0.5,30,170.5
1454,B3,396.0,4.0,37,170.5
1455,F5,396.917,0.5,33,170.5
1456,B-5,396.917,0.5,33,170.5
1457,F4,397.0,0.5,27,170.5
1458,G#4,397.0,0.5,27,170.5
1459,D5,397.417,0.5,29,170.5
1460,C#5,397.5,0.5,31,170.5
1461,B-5,398.917,0.5,33,170.5
1462,F5,398.917,0.5,33,170.5
1463,E-4,399.0,0.5,24,170.5
1464,F#4,399.0,0.5,24,170.5
1465,D5,399.417,0.5,30,170.5
1466,B4,399.5,0.5,28,170.5
1467,G#3,400.0,4.0,34,170.5
1468,F5,400.917,0.5,33,170.5
1469,B-5,400.917,0.5,33,170.5
1470,D4,401.0,0.5,25,170.5
1471,F4,401.0,0.5,25,170.5
1472,D5,401.417,0.5,29,170.5
1473,B-4,401.5,0.5,29,170.5
1474,B5,402.917,0.5,34,170.5
1475,F#5,402.917,0.5,34,170.5
1476,E-4,403.0,0.5,25,170.5
1477,F#4,403.0,0.5,25,170.5
1478,E-5,403.417,0.5,31,170.5
1479,B4,403.5,0.5,30,170.5
1480,B3,404.0,4.0,37,170.5
1481,G#5,404.917,0.5,36,170.5
1482,C#6,404.917,0.5,36,170.5
1483,F4,405.0,0.5,27,170.5
1484,G#4,405.0,0.5,27,170.5
1485,F5,405.417,0.5,31,170.5
1486,C#5,405.5,0.5,31,170.5
1487,B5,406.917,0.5,34,170.5
1488,F#5,406.917,0.5,34,170.5
1489,F4,407.0,0.5,27,170.5
1490,G#4,407.0,0.5,27,170.5
1491,E-5,407.417,0.5,31,170.5
1492,C#5,407.5,0.5,31,170.5
1493,B3,408.0,4.0,37,170.5
1494,F5,408.917,0.5,33,170.5
1495,B-5,408.917,0.5,33,170.5
1496,F4,409.0,0.5,28,170.5
1497,G#4,409.0,0.5,28,170.5
1498,D5,409.417,0.5,29,170.5
1499,C#5,409.5,0.5,32,170.5
1500,B5,410.917,0.5,34,170.5
1501,F#5,410.917,0.5,34,170.5
1502,F4,411.0,0.5,28,170.5
1503,G#4,411.0,0.5,28,170.5
1504,E-5,411.417,0.5,31,170.5
1505,C#5,411.5,0.5,32,170.5
1506,G#5,412.917,0.5,36,170.5
1507,C#6,412.917,0.5,36,170.5
1508,F4,413.0,0.5,25,170.5
1509,A4,413.0,0.5,25,170.5
1510,F5,413.417,0.5,31,170.5
1511,C#5,413.5,0.5,27,170.5
1512,F#5,414.917,0.5,34,170.5
1513,B5,414.917,0.5,34,170.5
1514,F4,415.0,0.5,25,170.5
1515,A4,415.0,0.5,25,170.5
1516,E-5,415.417,0.5,31,170.5
1517,C#5,415.5,0.5,27,170.5
1518,B-5,416.917,0.5,33,170.5
1519,F5,416.917,0.5,33,170.5
1520,F4,417.0,0.5,22,170.5
1521,A4,417.0,0.5,22,170.5
1522,D5,417.417,0.5,29,170.5
1523,C#5,417.5,0.5,24,170.5
1524,F#5,418.917,0.5,34,170.5
1525,B5,418.917,0.5,34,170.5
1526,F4,419.0,0.5,21,170.5
1527,A4,419.0,0.5,21,170.5
1528,E-5,419.417,0.5,31,170.5
1529,C#5,419.5,0.5,23,170.5
1530,E4,420.0,4.0,35,170.5
1531,F#4,420.0,0.25,43,170.5
1532,C#6,420.917,0.5,36,170.5
1533,G#5,420.917,0.5,36,170.5
1534,C#5,421.0,0.375,43,170.5
1535,F5,421.417,0.5,31,170.5
1536,B4,422.0,2.0,44,170.5
1537,G#5,422.917,0.5,36,170.5
1538,C#6,422.917,0.5,36,170.5
1539,F5,423.417,0.5,31,170.5
1540,E-4,424.0,2.0,35,170.5
1541,B4,424.0,1.0,44,170.5
1542,C#6,424.917,0.5,37,170.5
1543,G#5,424.917,0.5,37,170.5
1544,A4,425.0,0.375,42,170.5
1545,F5,425.417,0.5,32,170.5
1546,G#4,425.5,0.375,42,170.5
1547,D4,426.0,1.5,35,170.5
1548,F#4,426.0,833/1000,44,170.5
1549,G#5,426.917,0.5,37,170.5
1550,C#6,426.917,0.5,37,170.5
1551,E4,427.0,0.375,42,170.5
1552,F5,427.417,0.5,32,170.5
1553,D4,427.5,0.375,42,170.5
1554,F#3,428.0,2.0,35,170.5
1555,C#4,428.0,979/1000,44,170.5
1556,C#6,428.917,0.5,33,170.5
1557,A5,428.917,0.5,33,170.5
1558,D4,429.0,0.375,42,170.5
1559,F5,429.417,0.5,28,170.5
1560,E4,429.5,0.375,42,170.5
1561,A3,430.0,0.5,41,170.5
1562,F#4,430.0,0.5,41,170.5
1563,A5,430.917,0.5,33,170.5
1564,C#6,430.917,0.5,33,170.5
1565,B3,431.0,0.5,39,170.5
1566,A4,431.0,0.5,39,170.5
1567,F5,431.417,0.5,28,170.5
1568,C#4,432.0,4.0,41,170.5
1569,G#4,432.0,4.0,41,170.5
1570,C#6,432.917,0.5,31,170.5
1571,A5,432.917,0.5,31,170.5
1572,F5,433.417,0.5,26,170.5
1573,A5,434.917,0.5,30,170.5
1574,C#6,434.917,0.5,30,170.5
1575,F5,435.417,0.5,25,170.5
1576,A2,436.0,0.188,43,170.5
1577,F#3,436.5,0.188,35,170.5
1578,C#6,436.917,0.5,31,170.5
1579,C#4,437.0,0.188,35,170.5
1580,A5,437.417,0.5,29,170.5
1581,F#3,437.5,0.188,35,170.5
1582,E5,437.917,0.5,29,170.5
1583,G#2,438.0,0.188,38,170.5
1584,C#5,438.417,0.5,31,170.5
1585,C#3,438.5,0.188,35,170.5
1586,C#6,438.917,0.5,31,170.5
1587,B3,439.0,0.188,35,170.5
1588,A5,439.417,0.5,29,170.5
1589,C#3,439.5,0.188,35,170.5
1590,E5,439.917,0.5,29,170.5
1591,F#2,440.0,0.188,40,170.5
1592,C#5,440.417,0.5,30,170.5
1593,C#3,440.5,0.188,36,170.5
1594,C#6,440.917,0.5,31,170.5
1595,A3,441.0,0.188,37,170.5
1596,A5,441.417,0.5,29,170.5
1597,C#3,441.5,0.188,38,170.5
1598,F#5,441.917,0.5,29,170.5
1599,B2,442.0,0.188,43,170.5
1600,C#5,442.417,0.5,29,170.5
1601,E3,442.5,0.188,42,170.5
1602,C#6,442.917,0.5,31,170.5
1603,D4,443.0,0.188,42,170.5
1604,A5,443.417,0.5,29,170.5
1605,E3,443.5,0.188,42,170.5
1606,F#5,443.917,0.5,29,170.5
1607,A2,444.0,0.188,45,170.5
1608,C#5,444.417,0.5,29,170.5
1609,E3,444.5,0.188,46,170.5
1610,C#6,444.917,0.5,31,170.5
1611,A3,445.0,0.188,49,170.5
1612,A5,445.417,0.5,29,170.5
1613,C#4,445.5,0.188,50,170.5
1614,F#5,445.917,0.5,29,170.5
1615,D3,446.0,0.188,54,170.5
1616,C#5,446.417,0.5,29,170.5
1617,A3,446.5,0.188,46,170.5
1618,C#6,446.917,0.5,31,170.5
1619,D4,447.0,0.188,45,170.5
1620,A5,447.417,0.5,29,170.5
1621,F#4,447.5,0.188,45,170.5
1622,F#5,447.917,0.5,29,170.5
1623,A3,448.0,0.188,42,170.5
1624,C#5,448.417,0.5,29,170.5
1625,D4,448.5,0.188,37,170.5
1626,C#6,448.917,0.5,32,170.5
1627,F#4,449.0,0.188,37,170.5
1628,B5,449.417,0.5,30,170.5
1629,A4,449.5,0.25,37,170.5
1630,F#5,449.917,0.5,30,170.5
1631,C#5,450.417,0.5,30,170.5
1632,D4,450.5,0.25,37,170.5
1633,C#6,450.917,0.5,32,170.5
1634,C#4,451.0,0.25,36,170.5
1635,B5,451.417,0.5,30,170.5
1636,B3,451.5,0.25,36,170.5
1637,F5,451.917,0.5,30,170.5
1638,A3,452.0,0.188,46,170.5
1639,C#5,452.417,0.5,30,170.5
1640,C#4,452.5,0.188,36,170.5
1641,A3,453.0,0.188,41,170.5
1642,F#4,453.417,0.375,37,170.5
1643,F#3,453.5,0.188,36,170.5
1644,G#4,453.917,0.375,38,170.5
1645,G#3,454.0,0.188,46,170.5
1646,A4,454.417,0.375,40,170.5
1647,B3,454.5,0.188,36,170.5
1648,F#4,454.917,1.0,45,170.5
1649,B4,454.917,2.0,47,170.5
1650,E4,455.0,0.188,42,170.5
1651,F#3,455.5,0.188,36,170.5
1652,F4,455.917,1.0,45,170.5
1653,E3,456.0,0.188,46,170.5
1654,B3,456.5,0.188,35,170.5
1655,C#4,456.917,1.0,45,170.5
1656,B4,456.917,229/500,47,170.5
1657,E4,457.0,0.188,39,170.5
1658,A4,457.417,0.5,46,170.5
1659,B3,457.5,0.188,34,170.5
1660,B4,457.917,0.5,47,170.5
1661,B2,458.0,0.188,43,170.5
1662,C#5,458.417,0.5,47,170.5
1663,G#3,458.5,0.188,34,170.5
1664,D5,458.917,2.0,52,170.5
1665,A4,458.917,1.0,52,170.5
1666,D4,459.0,0.188,36,170.5
1667,E3,459.5,0.188,33,170.5
1668,G#4,459.917,1.0,47,170.5
1669,A2,460.0,0.188,41,170.5
1670,E3,460.5,0.188,33,170.5
1671,E4,460.917,1.0,48,170.5
1672,D5,460.917,229/500,52,170.5
1673,A3,461.0,0.188,38,170.5
1674,C#5,461.417,0.5,53,170.5
1675,E3,461.5,0.188,36,170.5
1676,D5,461.917,0.5,57,170.5
1677,D3,462.0,0.188,47,170.5
1678,E5,462.417,0.5,63,170.5
1679,A3,462.5,0.188,38,170.5
1680,D5,462.917,2.0,64,170.5
1681,F#5,462.917,2.0,64,170.5
1682,D4,463.0,0.188,44,170.5
1683,C#3,463.5,0.188,40,170.5
1684,C3,464.0,0.188,55,170.5
1685,G#3,464.5,0.188,42,170.5
1686,E-4,465.0,0.188,48,170.5
1687,G#3,465.5,0.188,42,170.5
1688,C3,466.0,0.188,49,170.5
1689,G#3,466.5,0.188,38,170.5
1690,D5,466.917,2.0,64,170.5
1691,F#5,466.917,2.0,64,170.5
1692,E-4,467.0,0.188,45,170.5
1693,G#3,467.5,0.188,39,170.5
1694,C3,468.0,0.188,46,170.5
1695,G#3,468.5,0.188,36,170.5
1696,F#4,468.917,2.0,56,170.5
1697,E-4,469.0,0.188,41,170.5
1698,G#3,469.5,0.188,36,170.5
1699,C#3,470.0,0.188,50,170.5
1700,A3,470.5,0.188,46,170.5
1701,F#4,470.917,0.75,56,170.5
1702,E4,471.0,0.188,50,170.5
1703,A3,471.5,0.188,48,170.5
1704,C#5,471.917,0.25,53,170.5
1705,C3,472.0,0.188,50,170.5
1706,G#3,472.5,0.188,39,170.5
1707,B4,472.917,2.0,56,170.5
1708,E-4,473.0,0.188,45,170.5
1709,G#3,473.5,0.188,39,170.5
1710,B2,474.0,0.188,50,170.5
1711,E3,474.5,0.188,46,170.5
1712,B4,474.917,1.0,56,170.5
1713,G#3,475.0,0.188,50,170.5
1714,D4,475.0,0.188,50,170.5
1715,E3,475.5,0.188,48,170.5
1716,A4,475.917,0.375,54,170.5
1717,A2,476.0,0.188,50,170.5
1718,G#4,476.417,0.375,54,170.5
1719,E3,476.5,0.188,42,170.5
1720,F#4,476.917,833/1000,56,170.5
1721,A3,477.0,0.188,47,170.5
1722,E3,477.5,0.188,44,170.5
1723,E4,477.917,0.375,54,170.5
1724,F#2,478.0,0.188,55,170.5
1725,D4,478.417,0.375,53,170.5
1726,B2,478.5,0.188,50,170.5
1727,C#4,478.917,1.0,56,170.5
1728,A3,479.0,0.188,55,170.5
1729,B2,479.5,0.188,52,170.5
1730,D4,479.917,0.5,55,170.5
1731,C#2,480.0,0.188,66,170.5
1732,E4,480.417,0.5,56,170.5
1733,G#2,480.5,0.188,57,170.5
1734,F#4,480.917,1.0,62,170.5
1735,F3,481.0,0.188,61,170.5
1736,G#2,481.5,0.188,57,170.5
1737,A4,481.917,1.0,63,170.5
1738,C#2,482.0,0.188,66,170.5
1739,G#2,482.5,0.188,57,170.5
1740,F#4,482.917,4.0,68,170.5
1741,G#4,482.917,4.0,68,170.5
1742,F3,483.0,0.188,61,170.5
1743,G#2,483.5,0.188,57,170.5
1744,C#2,484.0,0.188,66,170.5
1745,G#2,484.5,0.188,57,170.5
1746,F3,485.0,0.188,61,170.5
1747,G#2,485.5,0.188,57,170.5
1748,C#2,486.0,0.188,46,170.5
1749,A2,486.5,0.188,42,170.5
1750,E3,487.0,0.188,46,170.5
1751,A2,487.5,0.188,44,170.5
1752,C#2,488.0,0.188,48,170.5
1753,G#2,488.5,0.188,40,170.5
1754,F#4,488.917,2.0,68,170.5
1755,G#4,488.917,2.0,68,170.5
1756,F3,489.0,0.188,43,170.5
1757,G#2,489.5,0.188,39,170.5
1758,C#2,490.0,0.188,45,170.5
1759,G#2,490.5,0.188,38,170.5
1760,A4,490.917,1.0,61,170.5
1761,F#4,490.917,1.0,61,170.5
1762,F3,491.0,0.188,41,170.5
1763,G#2,491.5,0.188,37,170.5
1764,E5,491.917,0.25,60,170.5
1765,G#5,491.917,0.25,60,170.5
1766,C#2,492.0,0.188,43,170.5
1767,G#2,492.5,0.188,37,170.5
1768,F#4,492.917,1.0,59,170.5
1769,G#4,492.917,1.0,59,170.5
1770,F3,493.0,0.188,39,170.5
1771,G#2,493.5,0.188,36,170.5
1772,C#2,494.0,0.188,39,170.5
1773,A2,494.5,0.188,35,170.5
1774,F#4,494.917,1.0,53,170.5
1775,D4,494.917,1.0,53,170.5
1776,E3,495.0,0.188,39,170.5
1777,A2,495.5,0.188,37,170.5
1778,E5,495.917,0.25,57,170.5
1779,C#5,495.917,0.25,57,170.5
1780,D2,496.0,0.5,28,170.5
1781,A2,496.5,0.5,27,170.5
1782,C#4,496.917,1.0,55,170.5
1783,E4,496.917,1.0,55,170.5
1784,D3,497.0,0.5,27,170.5
1785,A2,497.5,0.5,27,170.5
1786,D2,498.0,0.5,28,170.5
1787,A2,498.5,0.5,26,170.5
1788,B3,498.917,1.0,66,170.5
1789,E-4,498.917,1.0,66,170.5
1790,D3,499.0,0.5,26,170.5
1791,A2,499.5,0.5,26,170.5
1792,A4,499.917,0.312,69,170.5
1793,C#5,499.917,0.312,69,170.5
1794,D2,500.0,0.5,28,170.5
1795,G#2,500.5,0.5,25,170.5
1796,C#4,500.917,4.0,69,170.5
1797,G#3,500.917,4.0,69,170.5
1798,D3,501.0,0.5,25,170.5
1799,G#2,501.5,0.5,25,170.5
1800,D2,502.0,0.5,28,170.5
1801,G#2,502.5,0.5,25,170.5
1802,D3,503.0,0.5,25,170.5
1803,G#2,503.5,0.5,25,170.5
1804,D2,504.0,0.5,28,170.5
1805,A2,504.5,0.5,27,170.5
1806,D3,505.0,0.5,27,170.5
1807,A2,505.5,0.5,27,170.5
1808,D2,506.0,0.5,28,170.5
1809,A2,506.5,0.5,25,170.5
1810,C#4,506.875,979/500,69,170.5
1811,G#3,506.875,979/500,69,170.5
1812,D3,507.0,0.5,25,170.5
1813,A2,507.5,0.5,25,170.5
1814,D2,508.0,0.5,37,170.5
1815,B2,508.5,0.5,33,170.5
1816,B3,508.875,1.0,47,170.5
1817,G3,508.875,1.0,47,170.5
1818,D3,509.0,0.5,33,170.5
1819,F#3,509.5,0.5,33,170.5
1820,G4,509.875,0.312,51,170.5
1821,B4,509.875,0.312,51,170.5
1822,G#3,510.0,0.5,33,170.5
1823,B3,510.5,0.5,33,170.5
1824,C#4,510.875,4.0,50,170.5
1825,G#3,510.875,4.0,50,170.5
1826,D2,512.0,0.5,28,170.5
1827,A2,512.5,0.5,27,170.5
1828,D3,513.0,0.5,27,170.5
1829,F#3,513.5,0.5,27,170.5
1830,A3,514.0,0.5,28,170.5
1831,F#3,514.5,0.5,26,170.5
1832,D3,515.0,0.5,26,170.5
1833,A2,515.5,0.5,26,170.5
1834,D2,516.0,0.5,28,170.5
1835,G#2,516.5,0.5,25,170.5
1836,C#4,516.833,979/500,50,170.5
1837,G#3,516.833,979/500,50,170.5
1838,D3,517.0,0.5,25,170.5
1839,F#3,517.5,0.5,25,170.5
1840,G#3,518.0,0.5,28,170.5
1841,F#3,518.5,0.5,25,170.5
1842,B3,518.833,1.0,38,170.5
1843,G3,518.833,1.0,38,170.5
1844,D3,519.0,0.5,25,170.5
1845,G#2,519.5,0.5,25,170.5
1846,G4,519.833,0.75,39,170.5
1847,B4,519.833,0.75,39,170.5
1848,D2,520.0,0.5,28,170.5
1849,A2,520.5,0.5,27,170.5
1850,F#3,520.833,0.5,39,170.5
1851,A3,520.833,0.5,39,170.5
1852,D3,521.0,0.5,27,170.5
1853,F#3,521.5,0.5,38,170.5
1854,F#3,521.5,0.5,27,170.5
1855,A3,522.0,0.5,28,170.5
1856,F#3,522.167,0.5,38,170.5
1857,F#3,522.5,0.5,25,170.5
1858,F#3,522.833,1.0,41,170.5
1859,D3,523.0,0.5,25,170.5
1860,A2,523.5,0.5,25,170.5
1861,A3,523.833,1.0,38,170.5
1862,F#3,523.833,1.0,38,170.5
1863,E2,524.0,0.5,37,170.5
1864,B2,524.5,0.5,33,170.5
1865,F#3,524.833,0.5,39,170.5
1866,B3,524.833,0.5,39,170.5
1867,E3,525.0,0.5,33,170.5
1868,F#3,525.5,0.5,33,170.5
1869,F#3,525.5,0.5,39,170.5
1870,B3,525.5,0.5,39,170.5
1871,G#3,526.0,0.5,36,170.5
1872,F#3,526.167,0.5,39,170.5
1873,B3,526.167,0.5,39,170.5
1874,F#3,526.5,0.5,33,170.5
1875,F#3,526.833,0.5,39,170.5
1876,B3,526.833,0.5,39,170.5
1877,G#3,527.0,0.5,33,170.5
1878,B3,527.5,0.5,33,170.5
1879,F#3,527.5,0.5,38,170.5
1880,C#4,527.5,0.5,38,170.5
1881,D4,528.0,1.0,38,170.5
1882,F#3,528.167,0.5,38,170.5
1883,B3,528.167,0.5,38,170.5
1884,B3,528.5,0.5,33,170.5
1885,F#3,528.833,0.5,39,170.5
1886,A3,528.833,0.5,39,170.5
1887,D4,529.0,0.5,36,170.5
1888,F#3,529.5,0.5,38,170.5
1889,E4,529.5,0.5,36,170.5
1890,F#3,530.167,0.5,38,170.5
1891,F#3,530.833,1.0,39,170.5
1892,A3,531.833,1.0,39,170.5
1893,F#3,531.833,1.0,39,170.5
1894,G#3,532.833,4.0,39,170.5
1895,F#3,532.833,4.0,39,170.5
1896,F#4,533.5,2.5,36,170.5
1897,G#4,534.0,2.0,36,170.5
1898,D4,535.833,0.5,35,170.5
1899,F#4,536.333,0.5,35,170.5
1900,F#4,536.833,0.5,36,170.5
1901,D4,536.833,0.5,36,170.5
1902,A4,536.833,0.5,36,170.5
1903,E4,537.5,2.5,35,170.5
1904,D4,537.5,0.5,35,170.5
1905,F#4,537.5,0.5,35,170.5
1906,G#4,538.0,2.0,35,170.5
1907,D4,538.167,0.5,35,170.5
1908,F#4,538.167,0.5,35,170.5
1909,D4,538.833,1.0,38,170.5
1910,F#4,538.833,1.0,38,170.5
1911,F#4,539.833,1.0,35,170.5
1912,D4,539.833,1.0,35,170.5
1913,A4,539.833,1.0,35,170.5
1914,B4,540.833,0.5,36,170.5
1915,D4,540.833,0.5,36,170.5
1916,F#4,540.833,0.5,36,170.5
1917,F#4,541.5,2.5,33,170.5
1918,F#4,541.5,0.5,36,170.5
1919,D4,541.5,0.5,36,170.5
1920,B4,541.5,0.5,36,170.5
1921,G#4,542.0,2.0,33,170.5
1922,D4,542.167,0.5,36,170.5
1923,B4,542.167,0.5,36,170.5
1924,F#4,542.167,0.5,36,170.5
1925,F#4,542.833,0.5,36,170.5
1926,D4,542.833,0.5,36,170.5
1927,B4,542.833,0.5,36,170.5
1928,C#5,543.5,0.5,35,170.5
1929,E4,543.5,0.5,35,170.5
1930,F#4,543.5,0.5,35,170.5
1931,F#4,544.167,0.5,35,170.5
1932,D4,544.167,0.5,35,170.5
1933,B4,544.167,0.5,35,170.5
1934,D4,544.833,0.5,36,170.5
1935,A4,544.833,0.5,36,170.5
1936,F#4,544.833,0.5,36,170.5
1937,E4,545.5,2.5,30,170.5
1938,F#4,545.5,0.5,36,170.5
1939,D4,545.5,0.5,36,170.5
1940,G#4,546.0,2.0,30,170.5
1941,F#4,546.167,0.5,36,170.5
1942,D4,546.167,0.5,36,170.5
1943,F#4,546.833,1.0,36,170.5
1944,D4,546.833,1.0,36,170.5
1945,A4,547.833,1.0,36,170.5
1946,C#4,547.833,1.0,36,170.5
1947,D4,547.833,1.0,36,170.5
1948,F#4,547.833,1.0,36,170.5
1949,F#3,548.5,0.5,27,170.5
1950,B3,548.833,4.0,39,170.5
1951,F#4,548.833,4.0,39,170.5
1952,D4,548.833,4.0,39,170.5
1953,G#4,548.833,4.0,39,170.5
1954,F#4,549.0,0.5,27,170.5
1955,C#4,549.0,0.5,27,170.5
1956,A4,549.5,0.5,27,170.5
1957,A3,550.5,0.5,27,170.5
1958,D4,551.0,0.5,27,170.5
1959,F#4,551.0,0.5,27,170.5
1960,C5,551.5,0.5,27,170.5
1961,C#4,552.5,0.5,27,170.5
1962,F#4,553.0,0.5,27,170.5
1963,E5,553.5,0.5,27,170.5
1964,B3,554.5,0.5,23,170.5
1965,F#4,554.833,0.5,36,170.5
1966,F#4,555.0,0.5,20,170.5
1967,G#4,555.333,0.5,35,170.5
1968,E-5,555.5,0.5,21,170.5
1969,B4,555.833,0.5,35,170.5
1970,D5,556.333,0.5,36,170.5
1971,F#3,556.5,0.5,27,170.5
1972,F#5,556.833,0.5,43,170.5
1973,F#4,557.0,0.5,27,170.5
1974,C#4,557.0,0.5,27,170.5
1975,D5,557.333,0.5,39,170.5
1976,A4,557.5,0.5,27,170.5
1977,B4,557.833,0.5,39,170.5
1978,A3,558.5,0.5,27,170.5
1979,D4,559.0,0.5,27,170.5
1980,F#4,559.0,0.5,27,170.5
1981,B4,559.333,0.5,36,170.5
1982,C5,559.5,0.5,27,170.5
1983,D5,559.833,0.5,36,170.5
1984,E5,560.333,0.5,36,170.5
1985,C#4,560.5,0.5,27,170.5
1986,F#5,560.833,0.5,43,170.5
1987,F#4,561.0,0.5,27,170.5
1988,D5,561.333,0.5,39,170.5
1989,E5,561.5,0.5,27,170.5
1990,B4,561.833,0.5,39,170.5
1991,B3,562.5,0.5,23,170.5
1992,F#4,563.0,0.5,20,170.5
1993,B4,563.333,0.5,35,170.5
1994,E-5,563.5,0.5,20,170.5
1995,D5,563.833,0.5,35,170.5
1996,E5,564.333,0.5,35,170.5
1997,C#3,564.5,0.5,24,170.5
1998,F#5,564.833,0.5,41,170.5
1999,F#3,565.0,0.5,21,170.5
2000,D5,565.333,0.5,37,170.5
2001,E4,565.5,0.5,21,170.5
2002,B4,565.833,0.5,36,170.5
2003,B2,566.5,0.5,24,170.5
2004,F#3,567.0,0.5,25,170.5
2005,B4,567.333,0.5,32,170.5
2006,E-4,567.5,0.5,24,170.5
2007,D5,567.833,0.5,32,170.5
2008,A2,568.0,0.5,34,170.5
2009,E5,568.333,0.5,31,170.5
2010,E-3,568.5,0.5,31,170.5
2011,F#5,568.833,0.5,37,170.5
2012,F#3,569.0,0.5,31,170.5
2013,D5,569.333,0.5,34,170.5
2014,A3,569.5,0.5,30,170.5
2015,B4,569.833,0.5,33,170.5
2016,C#4,570.0,0.5,35,170.5
2017,B4,571.333,0.5,30,170.5
2018,D5,571.833,0.5,29,170.5
2019,E5,572.333,0.5,28,170.5
2020,E-5,572.5,0.5,31,170.5
2021,F#5,572.833,1.0,47,170.5
2022,F#5,573.0,0.5,30,170.5
2023,A5,573.5,0.5,30,170.5
2024,C#6,573.833,1.0,47,170.5
2025,C#6,574.0,0.5,33,170.5
2026,A5,574.833,2.0,40,170.5
2027,C6,574.833,2.0,40,170.5
2028,F#5,574.833,2.0,40,170.5
2029,G#2,576.0,0.5,32,170.5
2030,F3,576.5,0.5,30,170.5
2031,C#6,576.833,1.0,47,170.5
2032,G#3,577.0,0.5,30,170.5
2033,B3,577.5,0.5,30,170.5
2034,A5,577.833,1.0,40,170.5
2035,E6,577.833,1.0,40,170.5
2036,F#5,577.833,1.0,40,170.5
2037,C#4,578.0,0.5,34,170.5
2038,E-6,578.833,667/1000,49,170.5
2039,F#5,579.5,667/1000,40,170.5
2040,B5,579.5,667/1000,40,170.5
2041,F5,580.0,0.5,33,170.5
2042,A5,580.167,667/1000,44,170.5
2043,G#5,580.5,0.5,31,170.5
2044,F#5,580.833,1.0,47,170.5
2045,B5,581.0,0.5,30,170.5
2046,C#6,581.5,0.5,30,170.5
2047,C#6,581.833,1.0,47,170.5
2048,F#5,582.833,2.0,40,170.5
2049,A5,582.833,2.0,40,170.5
2050,C6,582.833,2.0,40,170.5
2051,F#1,584.0,2.0,30,170.5
2052,C#2,584.0,2.0,30,170.5
2053,F#2,584.0,2.0,30,170.5
2054,C#6,584.833,1.0,47,170.5
2055,F#5,585.833,1.0,36,170.5
2056,A5,585.833,1.0,36,170.5
2057,E6,585.833,1.0,36,170.5
2058,C#2,586.0,2.0,30,170.5
2059,F#2,586.0,2.0,30,170.5
2060,C#3,586.0,2.0,30,170.5
2061,E-6,586.833,667/1000,49,170.5
2062,B5,587.5,667/1000,40,170.5
2063,F#5,587.5,667/1000,40,170.5
2064,B1,588.0,4.0,30,170.5
2065,F#2,588.0,4.0,30,170.5
2066,B2,588.0,4.0,30,170.5
2067,A5,588.167,667/1000,44,170.5
2068,C#5,588.833,1.0,45,170.5
2069,F#4,589.833,1.0,30,170.5
2070,A4,589.833,1.0,30,170.5
2071,E5,589.833,1.0,30,170.5
2072,E-5,590.833,667/1000,48,170.5
2073,F#4,591.5,667/1000,38,170.5
2074,B4,591.5,667/1000,38,170.5
2075,F#1,592.0,2.0,30,170.5
2076,C#2,592.0,2.0,30,170.5
2077,F#2,592.0,2.0,30,170.5
2078,A4,592.167,667/1000,42,170.5
2079,C#5,592.833,4.0,40,170.5
2080,C#2,594.0,2.0,30,170.5
2081,F#2,594.0,2.0,30,170.5
2082,C#3,594.0,2.0,30,170.5
2083,E-4,595.333,0.5,32,170.5
2084,F#4,595.833,0.5,32,170.5
2085,B1,596.0,4.0,30,170.5
2086,F#2,596.0,4.0,30,170.5
2087,B2,596.0,4.0,30,170.5
2088,A4,596.333,0.5,32,170.5
2089,C#5,596.833,0.5,33,170.5
2090,E-6,599.333,0.5,32,170.5
2091,F#6,599.833,0.5,32,170.5
2092,F#1,600.0,2.0,30,170.5
2093,C#2,600.0,2.0,30,170.5
2094,F#2,600.0,2.0,30,170.5
2095,A6,600.333,0.5,31,170.5
2096,B6,600.833,4.0,36,170.5
2097,C#7,600.833,4.0,36,170.5
2098,F#2,602.0,2.0,30,170.5
2099,C#2,602.0,2.0,30,170.5
2100,C#3,602.0,2.0,30,170.5
2101,F4,602.833,0.5,32,170.5
2102,G#4,603.333,0.5,32,170.5
2103,B4,603.833,0.5,32,170.5
2104,B1,604.0,0.5,30,170.5
2105,C#5,604.333,0.5,32,170.5
2106,F#2,604.5,0.5,30,170.5
2107,B2,605.0,0.5,30,170.5
2108,E-3,605.5,0.5,30,170.5
2109,F#3,606.0,0.5,30,170.5
2110,B3,606.5,0.5,30,170.5
2111,F6,606.833,0.5,31,170.5
2112,E-4,607.0,0.5,30,170.5
2113,G#6,607.333,0.5,30,170.5
2114,F#4,607.5,0.5,30,170.5
2115,B6,607.833,0.5,29,170.5
2116,B4,608.0,0.5,30,170.5
2117,C#7,608.333,0.5,28,170.5
2118,C#7,608.833,0.5,32,170.5
2119,F#7,608.833,0.5,32,170.5
2120,F#6,609.333,0.5,32,170.5
2121,F#7,609.833,0.5,32,170.5
2122,C#7,609.833,0.5,32,170.5
2123,F#6,610.333,0.5,32,170.5
2124,F#6,610.833,0.5,30,170.5
2125,C#7,610.833,0.5,30,170.5
2126,C#6,611.333,0.5,30,170.5
2127,C#7,611.833,0.5,30,170.5
2128,F#6,611.833,0.5,30,170.5
2129,F#1,612.0,0.5,27,170.5
2130,C#2,612.0,0.5,27,170.5
2131,F#2,612.0,0.5,27,170.5
2132,C#6,612.333,0.5,30,170.5
2133,E-7,612.833,0.5,32,170.5
2134,F#6,612.833,0.5,32,170.5
2135,E-6,613.333,0.5,32,170.5
2136,F#6,613.833,0.5,32,170.5
2137,E-7,613.833,0.5,32,170.5
2138,E-6,614.333,0.5,32,170.5
2139,B6,614.833,0.5,30,170.5
2140,F#6,614.833,0.5,30,170.5
2141,B5,615.333,0.5,30,170.5
2142,F#6,615.833,0.5,30,170.5
2143,B6,615.833,0.5,30,170.5
2144,F#2,616.0,0.5,23,170.5
2145,C#3,616.0,0.5,23,170.5
2146,A3,616.0,0.5,23,170.5
2147,B5,616.333,0.5,30,170.5
2148,F#6,616.833,0.5,32,170.5
2149,C#6,616.833,0.5,32,170.5
2150,F#5,617.333,0.5,32,170.5
2151,C#6,617.833,0.5,32,170.5
2152,F#6,617.833,0.5,32,170.5
2153,F#5,618.333,0.5,32,170.5
2154,C#6,618.833,0.5,30,170.5
2155,F#5,618.833,0.5,30,170.5
2156,C#5,619.333,0.5,30,170.5
2157,F#5,619.833,0.5,30,170.5
2158,C#6,619.833,0.5,30,170.5
2159,F#1,620.0,0.5,25,170.5
2160,F#2,620.0,0.5,25,170.5
2161,C#5,620.333,0.5,30,170.5
2162,E-6,620.833,0.5,32,170.5
2163,F#5,620.833,0.5,32,170.5
2164,E-5,621.333,0.5,32,170.5
2165,F#5,621.833,0.5,32,170.5
2166,E-6,621.833,0.5,32,170.5
2167,E-5,622.333,0.5,32,170.5
2168,B5,622.833,0.5,29,170.5
2169,F#5,622.833,0.5,29,170.5
2170,B4,623.333,0.5,29,170.5
2171,B5,623.833,0.5,29,170.5
2172,F#5,623.833,0.5,29,170.5
2173,B4,624.333,0.5,29,170.5
2174,C#5,624.833,0.5,30,170.5
2175,F#5,624.833,0.5,30,170.5
2176,F#4,625.333,0.5,30,170.5
2177,F#5,625.833,0.5,30,170.5
2178,C#5,625.833,0.5,30,170.5
2179,F#4,626.333,0.5,30,170.5
2180,F#4,626.833,0.5,28,170.5
2181,C#5,626.833,0.5,28,170.5
2182,C#4,627.333,0.5,28,170.5
2183,C#5,627.833,0.5,28,170.5
2184,F#4,627.833,0.5,28,170.5
2185,C#4,628.333,0.5,28,170.5
2186,F#4,628.833,4.0,30,170.5
2187,E-4,628.833,4.0,30,170.5
2188,E-5,628.833,4.0,30,170.5
2189,E-5,633.333,0.5,30,170.5
2190,F#5,633.833,0.5,30,170.5
2191,B5,634.333,0.5,30,170.5
2192,E-6,634.833,0.5,29,170.5
2193,F#6,635.333,0.5,29,170.5
2194,B6,635.833,0.5,28,170.5
2195,E-7,636.333,0.5,28,170.5
2196,C#7,636.833,0.5,27,170.5
2197,F#7,636.833,0.5,27,170.5
2198,F#6,636.833,0.5,27,170.5
2199,F#4,640.833,0.5,24,170.5
2200,F#5,640.833,0.5,24,170.5
2201,C#5,640.833,0.5,24,170.5
2202,F#5,644.833,0.5,26,170.5
2203,F#6,644.833,0.5,26,170.5
