,note_name,start_time,duration,velocity,tempo
0,E4,0.0,0.25,29,133.27
1,E4,0.5,0.25,21,133.27
2,B4,0.5,0.25,21,133.27
3,E4,1.0,0.25,30,133.27
4,E4,1.5,0.25,21,133.27
5,B4,1.5,0.25,21,133.27
6,E4,2.0,0.25,30,133.27
7,E4,2.5,0.25,21,133.27
8,B4,2.5,0.25,21,133.27
9,E4,3.0,0.25,29,133.27
10,E4,3.5,0.25,21,133.27
11,B4,3.5,0.25,21,133.27
12,E4,4.0,0.25,30,133.27
13,E4,4.5,0.25,21,133.27
14,B4,4.5,0.25,21,133.27
15,E4,5.0,0.25,30,133.27
16,E4,5.5,0.25,21,133.27
17,B4,5.5,0.25,21,133.27
18,E4,6.0,0.25,29,133.27
19,E4,6.5,0.25,21,133.27
20,B4,6.5,0.25,21,133.27
21,E-4,6.875,0.125,30,133.27
22,G#4,7.0,0.25,39,133.27
23,E4,7.5,0.25,21,133.27
24,B4,7.5,0.25,21,133.27
25,G#4,7.875,0.125,31,133.27
26,C#5,8.0,0.25,42,133.27
27,E4,8.5,0.25,21,133.27
28,B4,8.5,0.25,21,133.27
29,C#4,8.875,0.125,30,133.27
30,E4,9.0,0.25,29,133.27
31,F#4,9.0,2.0,36,133.27
32,E4,9.5,0.25,21,133.27
33,B4,9.5,0.25,21,133.27
34,E4,10.5,0.25,21,133.27
35,B4,10.5,0.25,21,133.27
36,E-4,10.875,0.125,30,133.27
37,G#4,11.0,0.25,36,133.27
38,G#4,11.375,0.125,31,133.27
39,C#5,11.5,0.25,40,133.27
40,E4,11.5,0.25,21,133.27
41,B4,11.5,0.25,21,133.27
42,C#4,11.875,0.125,30,133.27
43,F#4,12.0,0.25,43,133.27
44,E4,12.5,0.25,21,133.27
45,B4,12.5,0.25,21,133.27
46,E-4,12.875,0.125,30,133.27
47,G#4,13.0,0.25,36,133.27
48,E4,13.5,0.25,21,133.27
49,B4,13.5,0.25,21,133.27
50,G#3,13.875,0.125,31,133.27
51,C#4,14.0,0.25,40,133.27
52,E4,14.5,0.25,21,133.27
53,B4,14.5,0.25,21,133.27
54,C#4,14.875,0.125,30,133.27
55,E4,15.0,0.25,29,133.27
56,F#4,15.0,3.0,36,133.27
57,C#4,15.0,3.0,30,133.27
58,E4,15.5,0.25,21,133.27
59,B4,15.5,0.25,21,133.27
60,E4,16.5,0.25,21,133.27
61,B4,16.5,0.25,21,133.27
62,E4,17.5,0.25,21,133.27
63,B4,17.5,0.25,21,133.27
64,E-4,17.875,0.125,30,133.27
65,G#4,18.0,3.0,36,133.27
66,E-4,18.0,3.0,30,133.27
67,B4,18.5,0.5,20,133.27
68,E4,18.5,0.5,20,133.27
69,B4,19.5,0.5,20,133.27
70,E4,19.5,0.5,20,133.27
71,B4,20.5,0.25,20,133.27
72,E4,20.5,0.25,20,133.27
73,B3,21.0,0.25,37,133.27
74,E2,21.0,1.0,57,133.27
75,B4,21.5,0.25,31,133.27
76,E4,21.5,0.25,31,133.27
77,E4,22.0,0.25,47,133.27
78,E4,22.5,0.25,26,133.27
79,B4,22.5,0.25,26,133.27
80,E4,23.0,0.25,44,133.27
81,E4,23.5,0.25,26,133.27
82,B4,23.5,0.25,26,133.27
83,E4,24.0,0.25,37,133.27
84,E4,24.5,0.25,26,133.27
85,B4,24.5,0.25,26,133.27
86,B-4,24.875,0.125,38,133.27
87,E-5,25.0,0.25,51,133.27
88,E4,25.5,0.25,26,133.27
89,B4,25.5,0.25,26,133.27
90,E-5,25.875,0.125,39,133.27
91,G#5,26.0,0.25,54,133.27
92,E4,26.5,0.25,26,133.27
93,B4,26.5,0.25,26,133.27
94,G#4,26.875,0.125,38,133.27
95,C#5,27.0,2.0,53,133.27
96,E4,27.5,0.25,26,133.27
97,B4,27.5,0.25,26,133.27
98,E4,28.5,0.25,26,133.27
99,B4,28.5,0.25,26,133.27
100,B-4,28.875,0.125,38,133.27
101,E-5,29.0,0.25,51,133.27
102,E-4,29.375,0.125,31,133.27
103,G#4,29.5,0.25,43,133.27
104,E4,29.5,0.25,26,133.27
105,B4,29.5,0.25,26,133.27
106,G#4,29.875,0.125,38,133.27
107,C#5,30.0,0.25,53,133.27
108,E4,30.5,0.25,28,133.27
109,B4,30.5,0.25,28,133.27
110,B-4,30.875,0.125,40,133.27
111,E-5,31.0,0.25,55,133.27
112,E4,31.5,0.25,30,133.27
113,B4,31.5,0.25,30,133.27
114,E-5,31.875,0.125,45,133.27
115,G#5,32.0,0.25,59,133.27
116,E4,32.5,0.25,32,133.27
117,B4,32.5,0.25,32,133.27
118,G#4,32.875,0.125,47,133.27
119,C#5,33.0,2.0,57,133.27
120,E4,33.5,0.25,31,133.27
121,B4,33.5,0.25,31,133.27
122,E4,34.5,0.25,30,133.27
123,B4,34.5,0.25,30,133.27
124,E-4,34.875,0.875,42,133.27
125,G#4,35.0,0.75,49,133.27
126,E4,35.5,0.25,26,133.27
127,B4,35.5,0.25,26,133.27
128,C#4,35.875,0.125,51,133.27
129,F#4,36.0,0.75,62,133.27
130,C#4,36.0,0.75,51,133.27
131,E4,36.5,0.25,34,133.27
132,B4,36.5,0.25,34,133.27
133,E-4,36.875,2.125,39,133.27
134,G#4,37.0,2.0,46,133.27
135,E4,37.5,0.25,26,133.27
136,B4,37.5,0.25,26,133.27
137,E4,38.5,0.25,23,133.27
138,B4,38.5,0.25,23,133.27
139,B2,38.875,0.125,49,133.27
140,B3,39.0,0.25,37,133.27
141,F#3,39.0,0.5,57,133.27
142,B2,39.0,177/250,49,133.27
143,B4,39.5,0.25,31,133.27
144,F#4,39.5,0.25,31,133.27
145,B3,40.0,0.25,47,133.27
146,B3,40.5,0.25,26,133.27
147,F#4,40.5,0.25,26,133.27
148,B4,40.5,0.25,26,133.27
149,B3,41.0,0.25,44,133.27
150,B3,41.5,0.25,26,133.27
151,F#4,41.5,0.25,26,133.27
152,B4,41.5,0.25,26,133.27
153,B3,42.0,0.5,47,133.27
154,B3,42.5,0.25,26,133.27
155,F#4,42.5,0.25,26,133.27
156,B4,42.5,0.25,26,133.27
157,C#4,43.0,0.5,45,133.27
158,B4,43.5,0.25,26,133.27
159,C#4,43.5,0.25,26,133.27
160,F#4,43.5,0.25,26,133.27
161,E4,44.0,0.5,45,133.27
162,E4,44.5,0.25,26,133.27
163,F#4,44.5,0.25,26,133.27
164,B4,44.5,0.25,26,133.27
165,E-4,45.0,0.375,47,133.27
166,E-4,45.5,0.25,26,133.27
167,F#4,45.5,0.25,26,133.27
168,B4,45.5,0.25,26,133.27
169,B4,46.5,0.25,26,133.27
170,E-4,46.5,0.25,26,133.27
171,F#4,46.5,0.25,26,133.27
172,D4,47.0,0.375,41,133.27
173,D4,47.5,0.25,26,133.27
174,F#4,47.5,0.25,26,133.27
175,B4,47.5,0.25,26,133.27
176,C#4,48.0,0.375,47,133.27
177,G#3,48.0,3.0,47,133.27
178,C#4,48.5,0.25,26,133.27
179,F#4,48.5,0.25,26,133.27
180,B4,48.5,0.25,26,133.27
181,C#4,49.0,0.375,30,133.27
182,C#4,49.5,0.25,26,133.27
183,F#4,49.5,0.25,26,133.27
184,B4,49.5,0.25,26,133.27
185,C#4,50.0,0.375,30,133.27
186,C#4,50.5,0.25,26,133.27
187,F#4,50.5,0.25,26,133.27
188,B4,50.5,0.25,26,133.27
189,C#4,51.0,0.375,30,133.27
190,G#3,51.0,3.0,47,133.27
191,C#4,51.5,0.25,26,133.27
192,F#4,51.5,0.25,26,133.27
193,B4,51.5,0.25,26,133.27
194,E-4,52.0,0.375,50,133.27
195,E-4,52.5,0.25,26,133.27
196,F#4,52.5,0.25,26,133.27
197,B4,52.5,0.25,26,133.27
198,F#4,53.0,0.375,50,133.27
199,F#4,53.5,0.25,26,133.27
200,B4,53.5,0.25,26,133.27
201,F4,54.0,2.0,47,133.27
202,G#4,54.5,0.25,26,133.27
203,B4,54.5,0.25,26,133.27
204,B4,55.5,0.25,26,133.27
205,G#4,55.5,0.25,26,133.27
206,E4,56.0,0.5,41,133.27
207,G#4,56.5,0.25,26,133.27
208,B4,56.5,0.25,26,133.27
209,E-4,57.0,0.375,47,133.27
210,G#3,57.0,3.0,47,133.27
211,E-4,57.5,0.25,26,133.27
212,G#4,57.5,0.25,26,133.27
213,B4,57.5,0.25,26,133.27
214,E-4,58.5,0.25,26,133.27
215,G#4,58.5,0.25,26,133.27
216,B4,58.5,0.25,26,133.27
217,C#4,59.0,0.5,46,133.27
218,E-4,59.5,0.25,27,133.27
219,G#4,59.5,0.25,27,133.27
220,B4,59.5,0.25,27,133.27
221,F4,60.0,0.375,31,133.27
222,G#3,60.0,3.0,47,133.27
223,F4,60.5,0.25,27,133.27
224,G#4,60.5,0.25,27,133.27
225,B4,60.5,0.25,27,133.27
226,C#4,61.0,0.5,47,133.27
227,F4,61.5,0.25,28,133.27
228,G#4,61.5,0.25,28,133.27
229,B4,61.5,0.25,28,133.27
230,F4,62.0,0.375,48,133.27
231,F4,62.5,0.25,28,133.27
232,G#4,62.5,0.25,28,133.27
233,B4,62.5,0.25,28,133.27
234,E-4,63.0,0.375,51,133.27
235,G#3,63.0,3.0,51,133.27
236,E-4,63.5,0.25,29,133.27
237,G#4,63.5,0.25,29,133.27
238,B4,63.5,0.25,29,133.27
239,E-4,64.5,0.25,29,133.27
240,G#4,64.5,0.25,29,133.27
241,B4,64.5,0.25,29,133.27
242,C#4,65.0,0.5,53,133.27
243,E-4,65.5,0.25,30,133.27
244,G#4,65.5,0.25,30,133.27
245,B4,65.5,0.25,30,133.27
246,F4,66.0,0.375,35,133.27
247,G#3,66.0,3.0,51,133.27
248,F4,66.5,0.25,30,133.27
249,G#4,66.5,0.25,30,133.27
250,B4,66.5,0.25,30,133.27
251,C#4,67.0,0.5,54,133.27
252,F4,67.5,0.25,31,133.27
253,G#4,67.5,0.25,31,133.27
254,B4,67.5,0.25,31,133.27
255,F4,68.0,0.375,54,133.27
256,F4,68.5,0.25,31,133.27
257,G#4,68.5,0.25,31,133.27
258,B4,68.5,0.25,31,133.27
259,G#4,69.0,2.0,57,133.27
260,B4,69.5,0.25,38,133.27
261,G#4,69.5,0.25,38,133.27
262,G#4,70.5,0.25,37,133.27
263,B4,70.5,0.25,37,133.27
264,G4,71.0,1.0,49,133.27
265,G#4,71.5,0.25,37,133.27
266,B4,71.5,0.25,37,133.27
267,F#4,72.0,2.0,50,133.27
268,G#4,72.5,0.25,37,133.27
269,B4,72.5,0.25,37,133.27
270,B4,73.5,0.25,35,133.27
271,G#4,73.5,0.25,35,133.27
272,F4,74.0,1.0,46,133.27
273,B4,74.5,0.25,35,133.27
274,G#4,74.5,0.25,35,133.27
275,G#4,75.0,2.0,57,133.27
276,B4,75.5,0.25,38,133.27
277,G#4,75.5,0.25,38,133.27
278,E-5,76.0,0.5,49,133.27
279,G#4,76.5,0.25,37,133.27
280,B4,76.5,0.25,37,133.27
281,G4,77.0,1.0,49,133.27
282,G#4,77.5,0.25,37,133.27
283,B4,77.5,0.25,37,133.27
284,F#4,78.0,2.0,50,133.27
285,G#4,78.5,0.25,37,133.27
286,B4,78.5,0.25,37,133.27
287,G#5,79.0,0.5,49,133.27
288,B4,79.5,0.25,35,133.27
289,G#4,79.5,0.25,35,133.27
290,F4,80.0,1.0,46,133.27
291,B4,80.5,0.25,35,133.27
292,G#4,80.5,0.25,35,133.27
293,G#4,81.0,2.0,42,133.27
294,B4,81.5,0.25,32,133.27
295,D5,82.0,0.5,36,133.27
296,B4,82.5,0.25,33,133.27
297,G4,83.0,1.0,36,133.27
298,B4,83.5,0.25,30,133.27
299,F#4,84.0,2.0,41,133.27
300,B4,84.5,0.25,27,133.27
301,E-5,85.0,0.5,31,133.27
302,B4,85.5,0.25,23,133.27
303,F4,86.0,1.0,25,133.27
304,B4,86.5,0.25,26,133.27
305,B3,86.875,0.125,25,133.27
306,E4,87.0,0.5,40,133.27
307,B3,87.0,0.5,25,133.27
308,E2,87.0,0.5,29,133.27
309,E3,87.0,0.5,29,133.27
310,B4,87.5,0.5,33,133.27
311,E-4,88.0,2.0,29,133.27
312,E-5,88.0,0.5,36,133.27
313,G#5,88.0,0.5,36,133.27
314,E4,88.0,0.375,22,133.27
315,B4,88.0,0.375,22,133.27
316,E-5,88.5,0.5,30,133.27
317,G#4,88.5,0.5,30,133.27
318,E4,88.5,0.75,22,133.27
319,B4,88.5,0.75,22,133.27
320,G#5,89.0,0.5,41,133.27
321,C#6,89.0,0.5,41,133.27
322,E-5,89.5,0.5,32,133.27
323,G#5,89.5,0.5,32,133.27
324,E4,89.5,0.375,22,133.27
325,B4,89.5,0.375,22,133.27
326,F#5,90.0,2.0,43,133.27
327,C#5,90.0,0.375,43,133.27
328,C#4,90.0,2.0,28,133.27
329,E4,90.0,0.375,26,133.27
330,A4,90.0,0.375,26,133.27
331,F#4,90.5,0.75,27,133.27
332,C#5,90.5,0.75,27,133.27
333,E4,90.5,0.75,22,133.27
334,A4,90.5,0.75,22,133.27
335,C#5,91.5,0.375,27,133.27
336,F#4,91.5,0.375,27,133.27
337,E4,91.5,0.375,22,133.27
338,A4,91.5,0.375,22,133.27
339,E-5,92.0,0.5,34,133.27
340,G#5,92.0,0.5,34,133.27
341,E4,92.0,1.0,25,133.27
342,B4,92.0,1.0,25,133.27
343,E-4,92.0,1.0,25,133.27
344,G#4,92.5,0.5,34,133.27
345,C#5,92.5,0.5,34,133.27
346,F#5,93.0,0.5,38,133.27
347,C#5,93.0,0.5,38,133.27
348,E4,93.0,1.0,27,133.27
349,A4,93.0,1.0,27,133.27
350,C#4,93.0,1.0,27,133.27
351,F#4,93.5,0.5,34,133.27
352,C#5,93.5,0.5,34,133.27
353,E-4,94.0,2.0,23,133.27
354,G#5,94.0,0.5,34,133.27
355,E-5,94.0,0.5,34,133.27
356,E4,94.0,0.375,22,133.27
357,B4,94.0,0.375,22,133.27
358,G#4,94.5,0.5,34,133.27
359,E-5,94.5,0.5,34,133.27
360,E4,94.5,0.75,22,133.27
361,B4,94.5,0.75,22,133.27
362,G#5,95.0,0.5,42,133.27
363,C#6,95.0,0.5,42,133.27
364,G#5,95.5,0.5,34,133.27
365,E-5,95.5,0.5,34,133.27
366,E4,95.5,0.375,22,133.27
367,B4,95.5,0.375,22,133.27
368,F#5,96.0,3.0,51,133.27
369,C#5,96.0,0.375,51,133.27
370,C#4,96.0,3.0,29,133.27
371,E4,96.0,0.375,26,133.27
372,A4,96.0,0.375,26,133.27
373,C#5,96.5,0.75,28,133.27
374,F#4,96.5,0.75,28,133.27
375,E4,96.5,0.75,22,133.27
376,A4,96.5,0.75,22,133.27
377,C#5,97.5,0.75,27,133.27
378,F#4,97.5,0.75,27,133.27
379,E4,97.5,0.75,22,133.27
380,A4,97.5,0.75,22,133.27
381,C#5,98.5,0.375,28,133.27
382,F#4,98.5,0.375,28,133.27
383,E4,98.5,0.375,22,133.27
384,A4,98.5,0.375,22,133.27
385,G#5,99.0,1.0,45,133.27
386,E-5,99.0,0.5,32,133.27
387,E4,99.0,1.0,22,133.27
388,B4,99.0,1.0,22,133.27
389,E-4,99.0,1.0,22,133.27
390,E-5,99.5,0.5,23,133.27
391,G#4,99.5,0.5,23,133.27
392,C#5,100.0,0.5,28,133.27
393,F#5,100.0,1.0,40,133.27
394,E4,100.0,1.0,21,133.27
395,A4,100.0,1.0,21,133.27
396,C#4,100.0,1.0,21,133.27
397,C#5,100.5,0.5,21,133.27
398,F#4,100.5,0.5,21,133.27
399,G#5,101.0,1.0,40,133.27
400,E-5,101.0,0.5,28,133.27
401,E4,101.0,1.0,22,133.27
402,B4,101.0,1.0,22,133.27
403,E-4,101.0,1.0,22,133.27
404,E-5,101.5,0.5,22,133.27
405,G#4,101.5,0.5,22,133.27
406,C#5,102.0,1.5,49,133.27
407,C#4,102.0,9/20,23,133.27
408,B3,102.0,3.0,23,133.27
409,E4,102.0,3.0,26,133.27
410,G#4,102.0,3.0,26,133.27
411,C#4,102.5,9/10,23,133.27
412,E-5,103.5,0.5,37,133.27
413,C#4,103.5,9/10,23,133.27
414,C#5,104.0,1.0,37,133.27
415,C#4,104.5,0.5,23,133.27
416,E-5,105.0,1.5,44,133.27
417,B-3,105.0,27/10,23,133.27
418,C#4,105.0,2/5,23,133.27
419,E4,105.0,3.0,26,133.27
420,G4,105.0,3.0,26,133.27
421,C#4,105.5,9/10,23,133.27
422,C#5,106.5,0.5,38,133.27
423,C#4,106.5,9/10,23,133.27
424,E-5,107.0,1.0,38,133.27
425,C#4,107.5,0.5,23,133.27
426,C#5,108.0,1.5,42,133.27
427,G#3,108.0,3.0,23,133.27
428,C#4,108.0,2/5,23,133.27
429,E4,108.0,3.0,27,133.27
430,B4,108.0,3.0,27,133.27
431,C#4,108.5,9/10,23,133.27
432,E-5,109.5,0.5,37,133.27
433,C#4,109.5,9/10,23,133.27
434,C#5,110.0,1.0,37,133.27
435,C#4,110.5,0.5,23,133.27
436,E-5,111.0,1.5,41,133.27
437,G3,111.0,3.0,23,133.27
438,C#4,111.0,2/5,23,133.27
439,E4,111.0,3.0,26,133.27
440,B-4,111.0,3.0,26,133.27
441,C#4,111.5,9/10,23,133.27
442,C#5,112.5,0.5,40,133.27
443,C#4,112.5,9/10,23,133.27
444,E-5,113.0,1.0,40,133.27
445,C#4,113.5,0.5,23,133.27
446,F#3,114.0,3.0,23,133.27
447,C#4,114.0,1.0,23,133.27
448,G#4,114.5,0.5,20,133.27
449,E4,114.5,0.5,20,133.27
450,B3,114.5,0.5,20,133.27
451,E-4,115.0,0.375,35,133.27
452,C#4,115.5,0.375,34,133.27
453,G#4,115.5,0.5,20,133.27
454,E4,115.5,0.5,20,133.27
455,B3,115.5,0.5,20,133.27
456,E-4,116.0,1.0,38,133.27
457,G#4,116.5,0.5,20,133.27
458,E4,116.5,0.5,20,133.27
459,B3,116.5,0.5,20,133.27
460,C#4,117.0,1.0,40,133.27
461,F#3,117.0,3.0,23,133.27
462,G4,117.5,0.5,20,133.27
463,E4,117.5,0.5,20,133.27
464,B3,117.5,0.5,20,133.27
465,E-4,118.0,0.375,31,133.27
466,C#4,118.5,0.375,26,133.27
467,G4,118.5,0.5,20,133.27
468,E4,118.5,0.5,20,133.27
469,B3,118.5,0.5,20,133.27
470,E-4,119.0,1.0,32,133.27
471,G4,119.5,0.5,20,133.27
472,E4,119.5,0.5,20,133.27
473,B3,119.5,0.5,20,133.27
474,F#3,120.0,3.0,23,133.27
475,C#4,120.0,1.0,37,133.27
476,F#4,120.5,0.5,20,133.27
477,E4,120.5,0.5,20,133.27
478,B3,120.5,0.5,20,133.27
479,E-4,121.0,0.375,26,133.27
480,C#4,121.5,0.375,27,133.27
481,F#4,121.5,0.5,20,133.27
482,E4,121.5,0.5,20,133.27
483,B3,121.5,0.5,20,133.27
484,E-4,122.0,1.0,34,133.27
485,F#4,122.5,0.5,20,133.27
486,E4,122.5,0.5,20,133.27
487,B3,122.5,0.5,20,133.27
488,C#4,123.0,1.0,37,133.27
489,F#3,123.0,1.0,23,133.27
490,F#4,123.5,0.5,20,133.27
491,E4,123.5,0.5,20,133.27
492,B-3,123.5,0.5,20,133.27
493,E-3,124.0,1.0,23,133.27
494,F#4,124.5,0.5,20,133.27
495,E4,124.5,0.5,20,133.27
496,B-3,124.5,0.5,20,133.27
497,C#3,125.0,1.0,23,133.27
498,F#4,125.5,0.5,20,133.27
499,E4,125.5,0.5,20,133.27
500,B-3,125.5,0.5,20,133.27
501,B3,126.0,0.5,34,133.27
502,B2,126.0,0.5,40,133.27
503,B4,126.5,0.25,29,133.27
504,F#4,126.5,0.25,29,133.27
505,B3,127.0,0.25,33,133.27
506,F#4,127.5,0.25,26,133.27
507,B3,127.5,0.25,26,133.27
508,B4,127.5,0.25,26,133.27
509,B3,128.0,0.25,33,133.27
510,B3,128.5,0.25,26,133.27
511,B4,128.5,0.25,26,133.27
512,F#4,128.5,0.25,26,133.27
513,B3,129.0,0.25,33,133.27
514,B3,129.5,0.25,26,133.27
515,F#4,129.5,0.25,26,133.27
516,B4,129.5,0.25,26,133.27
517,B3,130.0,0.25,33,133.27
518,B3,130.5,0.25,26,133.27
519,F#4,130.5,0.25,26,133.27
520,B4,130.5,0.25,26,133.27
521,B3,131.0,0.25,33,133.27
522,B3,131.5,0.25,26,133.27
523,F#4,131.5,0.25,26,133.27
524,B4,131.5,0.25,26,133.27
525,C#4,132.0,1.5,39,133.27
526,B3,132.0,3.0,39,133.27
527,B4,132.5,0.25,23,133.27
528,F#4,132.5,0.25,23,133.27
529,D4,133.5,0.5,27,133.27
530,F#4,133.5,0.25,24,133.27
531,B4,133.5,0.25,24,133.27
532,E4,134.0,1.0,35,133.27
533,B4,134.5,0.25,24,133.27
534,F#4,134.5,0.25,24,133.27
535,C#4,135.0,1.0,44,133.27
536,B3,135.0,3.0,39,133.27
537,F#4,135.5,0.25,26,133.27
538,B4,135.5,0.25,26,133.27
539,D4,136.0,1.0,34,133.27
540,F#4,136.5,0.25,26,133.27
541,B4,136.5,0.25,26,133.27
542,E4,137.0,1.0,34,133.27
543,B4,137.5,0.25,28,133.27
544,F#4,137.5,0.25,28,133.27
545,F4,138.0,2.0,45,133.27
546,B3,138.0,3.0,51,133.27
547,B4,138.5,0.25,28,133.27
548,G4,138.5,0.25,28,133.27
549,G4,139.5,0.25,28,133.27
550,B4,139.5,0.25,28,133.27
551,E4,140.0,1.0,39,133.27
552,B4,140.5,0.25,26,133.27
553,G4,140.5,0.25,26,133.27
554,E4,141.0,1.0,39,133.27
555,B3,141.0,3.0,51,133.27
556,G4,141.5,0.25,26,133.27
557,B4,141.5,0.25,26,133.27
558,D4,142.0,2.0,32,133.27
559,G4,142.5,0.25,24,133.27
560,B4,142.5,0.25,24,133.27
561,B4,143.5,0.25,24,133.27
562,G4,143.5,0.25,24,133.27
563,C#4,144.0,1.5,39,133.27
564,B3,144.0,3.0,39,133.27
565,B4,144.5,0.25,23,133.27
566,F#4,144.5,0.25,23,133.27
567,D4,145.5,0.5,27,133.27
568,F#4,145.5,0.25,24,133.27
569,B4,145.5,0.25,24,133.27
570,E4,146.0,1.0,35,133.27
571,B4,146.5,0.25,24,133.27
572,F#4,146.5,0.25,24,133.27
573,C#4,147.0,1.0,44,133.27
574,B3,147.0,3.0,39,133.27
575,F#4,147.5,0.25,26,133.27
576,B4,147.5,0.25,26,133.27
577,D4,148.0,1.0,34,133.27
578,F#4,148.5,0.25,26,133.27
579,B4,148.5,0.25,26,133.27
580,E4,149.0,1.0,34,133.27
581,B4,149.5,0.25,28,133.27
582,F#4,149.5,0.25,28,133.27
583,F4,150.0,2.0,45,133.27
584,G3,150.0,3.0,51,133.27
585,B4,150.5,0.25,28,133.27
586,A4,150.5,0.25,28,133.27
587,A4,151.5,0.25,28,133.27
588,B4,151.5,0.25,28,133.27
589,E4,152.0,1.0,39,133.27
590,B4,152.5,0.25,26,133.27
591,G4,152.5,0.25,26,133.27
592,E4,153.0,1.0,39,133.27
593,G3,153.0,3.0,51,133.27
594,G4,153.5,0.25,26,133.27
595,B4,153.5,0.25,26,133.27
596,D4,154.0,2.0,32,133.27
597,F4,154.5,0.25,24,133.27
598,B4,154.5,0.25,24,133.27
599,G4,155.5,0.25,24,133.27
600,F4,155.5,0.25,24,133.27
601,D4,156.0,1.5,39,133.27
602,B-3,156.0,3.0,39,133.27
603,G4,156.5,0.25,23,133.27
604,F4,156.5,0.25,23,133.27
605,E4,157.5,0.5,27,133.27
606,F4,157.5,0.25,24,133.27
607,G4,157.5,0.25,24,133.27
608,D4,158.0,1.0,35,133.27
609,G4,158.5,0.25,24,133.27
610,F4,158.5,0.25,24,133.27
611,C#4,159.0,3.0,44,133.27
612,B-3,159.0,3.0,39,133.27
613,E4,159.5,0.25,26,133.27
614,A4,159.5,0.25,26,133.27
615,A4,160.5,0.25,24,133.27
616,E4,160.5,0.25,24,133.27
617,E4,161.5,0.25,23,133.27
618,A4,161.5,0.25,23,133.27
619,D4,162.0,1.5,39,133.27
620,B-3,162.0,3.0,39,133.27
621,G4,162.5,0.25,23,133.27
622,F4,162.5,0.25,23,133.27
623,E4,163.5,0.5,35,133.27
624,F4,163.5,0.25,24,133.27
625,G4,163.5,0.25,24,133.27
626,D4,164.0,1.0,46,133.27
627,G4,164.5,0.25,24,133.27
628,F4,164.5,0.25,24,133.27
629,C#4,165.0,1.0,42,133.27
630,B-3,165.0,3.0,39,133.27
631,A4,165.5,0.25,28,133.27
632,E4,165.5,0.25,28,133.27
633,D4,166.0,1.0,47,133.27
634,A4,166.5,0.25,32,133.27
635,F4,166.5,0.25,32,133.27
636,A3,167.0,1.0,51,133.27
637,E4,167.0,1.0,51,133.27
638,G4,167.5,0.25,40,133.27
639,A4,167.5,0.25,40,133.27
640,F4,168.0,1.5,39,133.27
641,C#4,168.0,3.0,39,133.27
642,B-4,168.5,0.25,23,133.27
643,G#4,168.5,0.25,23,133.27
644,G4,169.5,0.5,27,133.27
645,G#4,169.5,0.25,24,133.27
646,B-4,169.5,0.25,24,133.27
647,F4,170.0,1.0,35,133.27
648,B-4,170.5,0.25,24,133.27
649,G#4,170.5,0.25,24,133.27
650,E4,171.0,3.0,44,133.27
651,C#4,171.0,3.0,39,133.27
652,G4,171.5,0.25,26,133.27
653,C5,171.5,0.25,26,133.27
654,C5,172.5,0.25,24,133.27
655,G4,172.5,0.25,24,133.27
656,G4,173.5,0.25,23,133.27
657,C5,173.5,0.25,23,133.27
658,F4,174.0,1.5,39,133.27
659,C#4,174.0,3.0,39,133.27
660,B-4,174.5,0.25,23,133.27
661,G#4,174.5,0.25,23,133.27
662,G4,175.5,0.5,35,133.27
663,G#4,175.5,0.25,24,133.27
664,B-4,175.5,0.25,24,133.27
665,F4,176.0,1.0,46,133.27
666,B-4,176.5,0.25,24,133.27
667,G#4,176.5,0.25,24,133.27
668,E4,177.0,1.0,42,133.27
669,C#4,177.0,3.0,39,133.27
670,C5,177.5,0.25,28,133.27
671,G4,177.5,0.25,28,133.27
672,F4,178.0,1.0,47,133.27
673,C5,178.5,0.25,32,133.27
674,G#4,178.5,0.25,32,133.27
675,C4,179.0,1.0,51,133.27
676,G4,179.0,1.0,51,133.27
677,B-4,179.5,0.25,40,133.27
678,C5,179.5,0.25,40,133.27
679,F4,180.0,0.25,35,133.27
680,G#4,180.5,0.25,33,133.27
681,C5,181.0,0.25,42,133.27
682,E-5,181.5,0.25,38,133.27
683,D5,182.0,0.25,42,133.27
684,C5,182.5,0.25,37,133.27
685,B-4,183.0,0.25,42,133.27
686,G#4,183.5,0.25,37,133.27
687,G4,184.0,0.25,41,133.27
688,F4,184.5,0.25,38,133.27
689,E-4,185.0,0.25,41,133.27
690,D4,185.5,0.25,33,133.27
691,C4,186.0,0.5,42,133.27
692,E-4,186.5,0.5,38,133.27
693,C4,187.0,0.25,36,133.27
694,E-4,187.0,0.25,34,133.27
695,G4,187.0,0.25,34,133.27
696,E-4,188.0,0.25,28,133.27
697,G4,188.0,0.25,28,133.27
698,B-3,188.0,0.25,30,133.27
699,D4,188.0,0.25,30,133.27
700,C4,189.0,0.5,42,133.27
701,E-4,189.5,0.5,37,133.27
702,E-4,190.0,0.25,26,133.27
703,G4,190.0,0.25,26,133.27
704,G#3,190.0,0.25,24,133.27
705,C4,190.0,0.25,24,133.27
706,D4,191.0,0.25,20,133.27
707,G4,191.0,0.25,20,133.27
708,G3,191.0,0.25,20,133.27
709,B-3,191.0,0.25,20,133.27
710,G#3,195.875,0.375,26,133.27
711,B-3,196.0,0.25,33,133.27
712,G#3,196.875,0.375,24,133.27
713,B-3,197.0,0.25,32,133.27
714,G#3,197.875,0.125,24,133.27
715,B-3,198.0,0.25,31,133.27
716,G#3,198.0,0.25,24,133.27
717,G#3,198.875,0.375,24,133.27
718,B-3,199.0,0.25,30,133.27
719,G#3,199.875,0.375,22,133.27
720,B-3,200.0,0.25,29,133.27
721,G#3,200.875,0.125,22,133.27
722,B-3,201.0,0.25,29,133.27
723,G#3,201.0,0.25,22,133.27
724,G#3,201.875,0.375,22,133.27
725,B-3,202.0,0.25,28,133.27
726,G#3,202.875,0.375,20,133.27
727,B-3,203.0,0.25,27,133.27
728,C4,204.0,73/200,33,133.27
729,E-4,204.0,73/200,33,133.27
730,G#3,204.0,0.25,26,133.27
731,B-3,204.0,0.25,26,133.27
732,F#4,204.5,2.5,41,133.27
733,B-4,205.0,2.0,46,133.27
734,G#3,205.0,0.25,24,133.27
735,B-3,205.0,0.25,24,133.27
736,C4,205.875,0.375,20,133.27
737,G#3,205.875,0.375,20,133.27
738,E-4,206.0,0.25,27,133.27
739,B-3,206.0,0.25,27,133.27
740,D4,207.0,73/200,33,133.27
741,F4,207.0,73/200,33,133.27
742,G#3,207.0,0.25,26,133.27
743,B-3,207.0,0.25,26,133.27
744,G#4,207.5,2.5,41,133.27
745,C5,208.0,2.0,46,133.27
746,G#3,208.0,0.25,24,133.27
747,B-3,208.0,0.25,24,133.27
748,D4,208.875,0.375,20,133.27
749,G#3,208.875,0.375,20,133.27
750,F4,209.0,0.25,27,133.27
751,B-3,209.0,0.25,27,133.27
752,C4,210.0,1.5,33,133.27
753,E-4,210.0,1.5,33,133.27
754,G#3,210.0,0.25,26,133.27
755,B-3,210.0,0.25,26,133.27
756,F#4,210.5,0.5,41,133.27
757,B-4,211.0,0.5,46,133.27
758,G#3,211.0,0.25,24,133.27
759,B-3,211.0,0.25,24,133.27
760,C4,211.5,1.5,33,133.27
761,E-4,211.5,1.5,33,133.27
762,F#4,212.0,0.5,41,133.27
763,G#3,212.0,0.25,24,133.27
764,B-3,212.0,0.25,24,133.27
765,B-4,212.5,0.5,46,133.27
766,D4,213.0,73/200,33,133.27
767,F4,213.0,73/200,33,133.27
768,G#3,213.0,0.25,26,133.27
769,B-3,213.0,0.25,26,133.27
770,G#4,213.5,0.75,41,133.27
771,C5,214.0,0.25,46,133.27
772,G#3,214.0,0.25,24,133.27
773,B-3,214.0,0.25,24,133.27
774,D4,214.812,0.438,44,133.27
775,F4,214.875,0.375,46,133.27
776,G#3,214.875,0.375,25,133.27
777,G#4,214.938,0.312,47,133.27
778,C5,215.0,0.25,50,133.27
779,B-3,215.0,0.25,32,133.27
780,B-3,216.0,0.25,26,133.27
781,C4,216.0,0.25,26,133.27
782,D4,217.0,2.0,33,133.27
783,F4,217.0,2.0,33,133.27
784,B-3,217.0,0.25,24,133.27
785,C4,217.0,0.25,24,133.27
786,G#4,217.5,1.5,41,133.27
787,C5,218.0,1.0,46,133.27
788,B-3,218.0,0.25,24,133.27
789,C4,218.0,0.25,24,133.27
790,B-3,219.0,0.25,26,133.27
791,C4,219.0,0.25,26,133.27
792,E4,220.0,2.0,33,133.27
793,G4,220.0,2.0,33,133.27
794,B-3,220.0,0.25,24,133.27
795,C4,220.0,0.25,24,133.27
796,B-4,220.5,1.5,41,133.27
797,D5,221.0,1.0,46,133.27
798,C4,221.0,0.25,24,133.27
799,B-3,221.0,0.25,24,133.27
800,D4,222.0,1.5,33,133.27
801,F4,222.0,1.5,33,133.27
802,B-3,222.0,0.25,26,133.27
803,C4,222.0,0.25,26,133.27
804,G#4,222.5,0.5,41,133.27
805,C5,223.0,0.5,46,133.27
806,B-3,223.0,0.25,24,133.27
807,C4,223.0,0.25,24,133.27
808,D4,223.5,1.5,33,133.27
809,F4,223.5,1.5,33,133.27
810,G#4,224.0,0.5,41,133.27
811,C4,224.0,0.25,24,133.27
812,B-3,224.0,0.25,24,133.27
813,C5,224.5,0.5,46,133.27
814,E4,225.0,73/200,33,133.27
815,G4,225.0,73/200,33,133.27
816,B-3,225.0,0.25,26,133.27
817,C4,225.0,0.25,26,133.27
818,B-4,225.5,0.75,41,133.27
819,D5,225.988,0.25,46,133.27
820,C4,225.994,0.25,24,133.27
821,B-3,225.994,0.25,24,133.27
822,E4,226.812,0.438,44,133.27
823,G4,226.875,0.375,46,133.27
824,B-3,226.875,0.375,25,133.27
825,B-4,226.938,0.312,47,133.27
826,D5,227.0,0.25,50,133.27
827,C4,227.0,0.25,32,133.27
828,E4,228.0,73/200,33,133.27
829,G4,228.0,73/200,33,133.27
830,B-4,228.5,0.75,41,133.27
831,D5,228.988,0.25,46,133.27
832,C4,228.994,0.25,24,133.27
833,B-3,228.994,0.25,24,133.27
834,G4,230.0,0.25,43,133.27
835,B-4,230.0,0.25,43,133.27
836,F5,230.0,0.25,43,133.27
837,C#4,230.0,0.25,25,133.27
838,E-4,230.0,0.25,25,133.27
839,B-4,230.875,0.125,46,133.27
840,E-4,230.875,0.125,25,133.27
841,C#5,230.938,0.062,47,133.27
842,G#5,231.0,0.25,50,133.27
843,B-4,231.0,0.25,46,133.27
844,C#5,231.0,0.25,47,133.27
845,F#4,231.0,0.25,32,133.27
846,E-4,231.0,0.25,25,133.27
847,C#4,232.0,0.25,32,133.27
848,F#3,233.0,0.25,32,133.27
849,E4,234.0,1.5,33,133.27
850,G4,234.0,1.5,33,133.27
851,B-4,234.5,0.5,42,133.27
852,D5,235.0,0.5,49,133.27
853,C4,235.0,0.25,24,133.27
854,B-3,235.0,0.25,24,133.27
855,G4,235.5,1.5,30,133.27
856,B-4,235.5,0.5,41,133.27
857,C#5,236.0,0.5,46,133.27
858,E-4,236.0,0.25,26,133.27
859,C#4,236.0,0.25,26,133.27
860,F5,236.5,0.375,54,133.27
861,B-4,236.875,0.125,46,133.27
862,E-4,236.875,0.125,25,133.27
863,C#5,236.938,0.062,47,133.27
864,G#5,237.0,0.25,50,133.27
865,B-4,237.0,0.25,46,133.27
866,C#5,237.0,0.25,47,133.27
867,F#4,237.0,0.25,32,133.27
868,E-4,237.0,0.25,25,133.27
869,C#4,238.0,0.25,32,133.27
870,F#3,239.0,0.25,32,133.27
871,B-4,239.875,0.125,46,133.27
872,E-4,239.875,0.125,25,133.27
873,C#5,239.938,0.062,47,133.27
874,G#5,240.0,0.25,50,133.27
875,B-4,240.0,0.25,46,133.27
876,C#5,240.0,0.25,47,133.27
877,F#4,240.0,0.25,32,133.27
878,E-4,240.0,0.25,25,133.27
879,C#4,241.0,0.25,32,133.27
880,F#3,242.0,0.25,32,133.27
881,B-4,242.875,0.125,41,133.27
882,E-4,242.875,0.125,22,133.27
883,C#5,242.938,0.062,42,133.27
884,G#5,243.0,0.25,45,133.27
885,B-4,243.0,0.25,41,133.27
886,C#5,243.0,0.25,42,133.27
887,F#4,243.0,0.25,28,133.27
888,E-4,243.0,0.25,22,133.27
889,C#4,244.0,0.25,28,133.27
890,F#3,245.0,0.25,28,133.27
891,E4,246.0,0.25,25,133.27
892,C#4,247.0,0.25,25,133.27
893,G#5,248.0,0.5,45,133.27
894,F#3,248.0,0.25,25,133.27
895,C#6,248.5,0.5,36,133.27
896,E4,248.875,0.125,19,133.27
897,F#4,248.938,0.062,16,133.27
898,C#5,249.0,0.25,34,133.27
899,F#5,249.0,2.0,44,133.27
900,A4,249.0,0.25,19,133.27
901,E4,249.0,0.25,19,133.27
902,F#4,249.0,0.25,16,133.27
903,E4,249.875,0.375,16,133.27
904,F#4,249.938,0.312,16,133.27
905,C#5,250.0,0.25,34,133.27
906,A4,250.0,0.25,19,133.27
907,E4,250.875,0.375,16,133.27
908,F#4,250.938,0.312,16,133.27
909,C#5,251.0,0.25,34,133.27
910,G#5,251.0,0.5,33,133.27
911,A4,251.0,0.25,19,133.27
912,C#6,251.5,0.5,40,133.27
913,E4,251.875,0.125,16,133.27
914,F#4,251.938,0.062,16,133.27
915,A4,252.0,0.25,19,133.27
916,E4,252.0,0.25,16,133.27
917,F#4,252.0,0.25,16,133.27
918,F#5,252.0,0.25,37,133.27
919,C#5,252.0,0.25,37,133.27
920,E4,252.875,0.375,16,133.27
921,F#4,252.938,0.312,16,133.27
922,A4,253.0,0.25,19,133.27
923,G#5,253.0,0.25,37,133.27
924,C#5,253.0,0.25,37,133.27
925,E4,253.875,0.375,16,133.27
926,F#4,253.938,0.312,16,133.27
927,C#5,254.0,0.25,34,133.27
928,A4,254.0,0.25,19,133.27
929,C#5,255.0,0.25,35,133.27
930,F#5,255.0,3.0,42,133.27
931,E4,255.0,0.25,17,133.27
932,F#4,255.0,0.25,17,133.27
933,A4,255.0,0.25,17,133.27
934,C#5,256.0,0.25,38,133.27
935,E4,256.0,0.25,17,133.27
936,F#4,256.0,0.25,17,133.27
937,A4,256.0,0.25,17,133.27
938,C#5,257.0,0.25,38,133.27
939,E4,257.0,0.25,17,133.27
940,F#4,257.0,0.25,17,133.27
941,A4,257.0,0.25,17,133.27
942,C5,258.0,0.25,35,133.27
943,G#5,258.0,0.25,35,133.27
944,E-4,258.0,0.25,17,133.27
945,F#4,258.0,0.25,17,133.27
946,A4,258.0,0.25,17,133.27
947,C#5,259.0,0.25,38,133.27
948,F#5,259.0,0.25,38,133.27
949,C#4,259.0,0.25,18,133.27
950,F#4,259.0,0.25,18,133.27
951,A4,259.0,0.25,18,133.27
952,D5,260.0,0.25,45,133.27
953,G#5,260.0,0.25,45,133.27
954,C4,260.0,0.25,18,133.27
955,F#4,260.0,0.25,18,133.27
956,A4,260.0,0.25,18,133.27
957,C#5,261.0,3.0,40,133.27
958,G#4,261.0,0.25,34,133.27
959,B3,261.0,0.25,17,133.27
960,C#4,261.0,0.25,17,133.27
961,F4,261.0,0.25,17,133.27
962,G#4,262.0,0.25,34,133.27
963,B3,262.0,0.25,17,133.27
964,C#4,262.0,0.25,17,133.27
965,F4,262.0,0.25,17,133.27
966,G#4,263.0,0.25,34,133.27
967,B3,263.0,0.25,17,133.27
968,C#4,263.0,0.25,17,133.27
969,F4,263.0,0.25,17,133.27
970,G4,264.0,0.25,43,133.27
971,E-5,264.0,0.25,43,133.27
972,B-3,264.0,0.25,17,133.27
973,C#4,264.0,0.25,17,133.27
974,E4,264.0,0.25,17,133.27
975,G#4,265.0,0.25,38,133.27
976,C#5,265.0,0.25,38,133.27
977,G#3,265.0,0.25,15,133.27
978,C#4,265.0,0.25,15,133.27
979,E4,265.0,0.25,15,133.27
980,A4,266.0,0.25,38,133.27
981,E-5,266.0,0.25,38,133.27
982,G3,266.0,0.25,14,133.27
983,C#4,266.0,0.25,14,133.27
984,E4,266.0,0.25,14,133.27
985,F#3,266.917,83/1000,58,133.27
986,B-3,266.917,83/1000,58,133.27
987,C#4,266.958,21/500,70,133.27
988,E4,266.958,21/500,70,133.27
989,G#4,266.958,21/500,70,133.27
990,C#4,267.0,26/125,70,133.27
991,E4,267.0,26/125,70,133.27
992,G#4,267.0,26/125,70,133.27
993,F#3,267.0,229/1000,58,133.27
994,B-3,267.0,229/1000,58,133.27
995,F#3,267.917,0.312,58,133.27
996,B-3,267.917,0.312,58,133.27
997,C#4,267.958,0.25,70,133.27
998,E4,267.958,0.25,70,133.27
999,G#4,267.958,0.25,70,133.27
1000,F#3,268.917,0.312,58,133.27
1001,B-3,268.917,0.312,58,133.27
1002,C#4,268.958,0.25,70,133.27
1003,E4,268.958,0.25,70,133.27
1004,G#4,268.958,0.25,70,133.27
1005,F#3,269.917,83/1000,55,133.27
1006,B-3,269.917,83/1000,55,133.27
1007,C#4,269.958,21/500,67,133.27
1008,E4,269.958,21/500,67,133.27
1009,G#4,269.958,21/500,67,133.27
1010,C#4,270.0,26/125,67,133.27
1011,E4,270.0,26/125,67,133.27
1012,G#4,270.0,26/125,67,133.27
1013,F#3,270.0,229/1000,55,133.27
1014,B-3,270.0,229/1000,55,133.27
1015,F#3,270.917,0.312,52,133.27
1016,B-3,270.917,0.312,52,133.27
1017,C#4,270.958,0.25,64,133.27
1018,E4,270.958,0.25,64,133.27
1019,G#4,270.958,0.25,64,133.27
1020,F#3,271.917,0.312,50,133.27
1021,B-3,271.917,0.312,50,133.27
1022,C#4,271.958,0.25,60,133.27
1023,E4,271.958,0.25,60,133.27
1024,G#4,271.958,0.25,60,133.27
1025,F#3,272.917,83/1000,32,133.27
1026,A3,272.917,83/1000,32,133.27
1027,C#4,272.958,21/500,40,133.27
1028,E-4,272.958,21/500,40,133.27
1029,G#4,272.958,21/500,40,133.27
1030,C#4,273.0,26/125,40,133.27
1031,E-4,273.0,26/125,40,133.27
1032,G#4,273.0,26/125,40,133.27
1033,F#3,273.0,229/1000,32,133.27
1034,A3,273.0,229/1000,32,133.27
1035,F#3,273.917,0.312,30,133.27
1036,A3,273.917,0.312,30,133.27
1037,C#4,273.958,0.25,37,133.27
1038,E-4,273.958,0.25,37,133.27
1039,G#4,273.958,0.25,37,133.27
1040,F#3,274.917,0.312,28,133.27
1041,A3,274.917,0.312,28,133.27
1042,C#4,274.958,0.25,34,133.27
1043,E-4,274.958,0.25,34,133.27
1044,G#4,274.958,0.25,34,133.27
1045,A3,275.958,21/500,30,133.27
1046,B3,275.958,21/500,30,133.27
1047,B2,276.0,3.0,37,133.27
1048,A3,276.0,26/125,30,133.27
1049,B3,276.0,26/125,30,133.27
1050,A3,276.958,0.25,30,133.27
1051,B3,276.958,0.25,30,133.27
1052,A3,277.958,0.25,30,133.27
1053,B3,277.958,0.25,30,133.27
1054,G#3,278.958,21/500,29,133.27
1055,B3,278.958,21/500,29,133.27
1056,C#4,278.958,21/500,29,133.27
1057,E2,279.0,3.0,26,133.27
1058,B2,279.0,2.5,37,133.27
1059,G#3,279.0,26/125,29,133.27
1060,B3,279.0,26/125,29,133.27
1061,C#4,279.0,26/125,29,133.27
1062,G#3,279.958,0.25,29,133.27
1063,B3,279.958,0.25,29,133.27
1064,C#4,279.958,0.25,29,133.27
1065,G#3,280.958,0.25,29,133.27
1066,B3,280.958,0.25,29,133.27
1067,C#4,280.958,0.25,29,133.27
1068,C#3,281.5,0.5,33,133.27
1069,G#3,281.958,21/500,29,133.27
1070,B3,281.958,21/500,29,133.27
1071,C#4,281.958,21/500,29,133.27
1072,E-3,282.0,2.5,40,133.27
1073,E2,282.0,3.0,26,133.27
1074,G#3,282.0,26/125,29,133.27
1075,B3,282.0,26/125,29,133.27
1076,C#4,282.0,26/125,29,133.27
1077,G#3,282.958,0.25,29,133.27
1078,B3,282.958,0.25,29,133.27
1079,C#4,282.958,0.25,29,133.27
1080,G#3,283.958,0.25,29,133.27
1081,B3,283.958,0.25,29,133.27
1082,C#4,283.958,0.25,29,133.27
1083,C#3,284.5,0.5,33,133.27
1084,G3,284.958,21/500,29,133.27
1085,B-3,284.958,21/500,29,133.27
1086,D4,284.958,21/500,29,133.27
1087,C3,285.0,1.5,40,133.27
1088,E2,285.0,3.0,26,133.27
1089,G3,285.0,26/125,29,133.27
1090,B-3,285.0,26/125,29,133.27
1091,D4,285.0,26/125,29,133.27
1092,G3,285.958,0.25,29,133.27
1093,B-3,285.958,0.25,29,133.27
1094,D4,285.958,0.25,29,133.27
1095,D3,286.5,0.5,40,133.27
1096,E3,287.0,0.5,41,133.27
1097,F#3,287.5,0.5,45,133.27
1098,G3,288.0,0.5,49,133.27
1099,A3,288.5,0.5,55,133.27
1100,B-3,289.0,0.25,33,133.27
1101,C4,290.0,0.25,33,133.27
1102,G#3,290.958,21/500,29,133.27
1103,B3,290.958,21/500,29,133.27
1104,C#4,290.958,21/500,29,133.27
1105,B2,291.0,2.5,40,133.27
1106,E2,291.0,3.0,26,133.27
1107,G#3,291.0,26/125,29,133.27
1108,B3,291.0,26/125,29,133.27
1109,C#4,291.0,26/125,29,133.27
1110,G#3,291.958,0.25,29,133.27
1111,B3,291.958,0.25,29,133.27
1112,C#4,291.958,0.25,29,133.27
1113,G#3,292.958,0.25,29,133.27
1114,B3,292.958,0.25,29,133.27
1115,C#4,292.958,0.25,29,133.27
1116,C#3,293.5,0.5,33,133.27
1117,G#3,293.958,21/500,29,133.27
1118,B3,293.958,21/500,29,133.27
1119,C#4,293.958,21/500,29,133.27
1120,E-3,294.0,2.5,40,133.27
1121,E2,294.0,3.0,26,133.27
1122,G#3,294.0,26/125,29,133.27
1123,B3,294.0,26/125,29,133.27
1124,C#4,294.0,26/125,29,133.27
1125,G#3,294.958,0.25,29,133.27
1126,B3,294.958,0.25,29,133.27
1127,C#4,294.958,0.25,29,133.27
1128,G#3,295.958,0.25,29,133.27
1129,B3,295.958,0.25,29,133.27
1130,C#4,295.958,0.25,29,133.27
1131,C#3,296.5,0.5,33,133.27
1132,G3,296.958,21/500,29,133.27
1133,B-3,296.958,21/500,29,133.27
1134,D4,296.958,21/500,29,133.27
1135,C3,297.0,1.5,40,133.27
1136,E2,297.0,3.0,26,133.27
1137,G3,297.0,26/125,29,133.27
1138,B-3,297.0,26/125,29,133.27
1139,D4,297.0,26/125,29,133.27
1140,G3,297.958,0.25,29,133.27
1141,B-3,297.958,0.25,29,133.27
1142,D4,297.958,0.25,29,133.27
1143,D3,298.5,0.5,40,133.27
1144,E3,299.0,0.5,41,133.27
1145,F#3,299.5,0.5,45,133.27
1146,G3,300.0,0.5,49,133.27
1147,A3,300.5,0.5,55,133.27
1148,B-3,301.0,0.25,33,133.27
1149,C4,302.0,0.25,33,133.27
1150,C4,304.0,0.5,45,133.27
1151,D4,304.5,0.5,41,133.27
1152,E4,305.0,0.5,41,133.27
1153,F#4,305.5,0.5,45,133.27
1154,G4,306.0,0.5,49,133.27
1155,A4,306.5,0.5,55,133.27
1156,B-4,307.0,0.25,33,133.27
1157,C5,308.0,0.25,33,133.27
1158,C5,310.0,0.5,45,133.27
1159,D5,310.5,0.5,41,133.27
1160,E5,311.0,0.5,41,133.27
1161,F#5,311.5,0.5,45,133.27
1162,G5,312.0,0.5,49,133.27
1163,A5,312.5,0.5,55,133.27
1164,B-5,313.0,0.25,33,133.27
1165,B4,313.927,0.531,47,133.27
1166,E-5,313.927,0.531,47,133.27
1167,F#5,313.927,0.531,47,133.27
1168,B5,314.0,0.5,54,133.27
1169,A4,314.0,0.5,48,133.27
1170,F#4,314.0,0.5,48,133.27
1171,B3,314.0,0.5,48,133.27
1172,E4,316.0,0.5,25,133.27
1173,B4,316.5,0.5,25,133.27
1174,E4,317.0,0.5,28,133.27
1175,B4,317.5,0.5,28,133.27
1176,E4,318.0,0.5,24,133.27
1177,B4,318.5,0.5,24,133.27
1178,E-4,318.875,0.125,32,133.27
1179,G#4,319.0,0.25,40,133.27
1180,E4,319.0,0.5,21,133.27
1181,B4,319.5,0.5,21,133.27
1182,G#4,319.875,0.125,36,133.27
1183,C#5,320.0,0.25,47,133.27
1184,E4,320.0,0.5,23,133.27
1185,B4,320.5,0.5,23,133.27
1186,C#4,320.875,0.125,37,133.27
1187,F#4,321.0,3.0,45,133.27
1188,E4,321.0,0.5,20,133.27
1189,B4,321.5,0.5,20,133.27
1190,E4,322.0,0.5,21,133.27
1191,B4,322.5,0.5,21,133.27
1192,E4,323.0,0.5,23,133.27
1193,B4,323.5,0.5,23,133.27
1194,E4,324.0,0.5,20,133.27
1195,B4,324.5,0.5,20,133.27
1196,B-4,324.875,0.125,32,133.27
1197,E-5,325.0,0.25,40,133.27
1198,E4,325.0,0.5,21,133.27
1199,B4,325.5,0.5,21,133.27
1200,E-5,325.875,0.125,36,133.27
1201,G#5,326.0,0.25,47,133.27
1202,E4,326.0,0.5,23,133.27
1203,B4,326.5,0.5,23,133.27
1204,G#4,326.875,0.125,37,133.27
1205,C#5,327.0,3.0,45,133.27
1206,E4,327.0,0.5,20,133.27
1207,B4,327.5,0.5,20,133.27
1208,E4,328.0,0.5,21,133.27
1209,B4,328.5,0.5,21,133.27
1210,E4,329.0,0.5,23,133.27
1211,B4,329.5,0.5,23,133.27
1212,E4,330.0,0.5,20,133.27
1213,B4,330.5,0.5,20,133.27
1214,E-4,330.875,0.125,32,133.27
1215,G#4,331.0,0.25,40,133.27
1216,E4,331.0,0.5,21,133.27
1217,B4,331.5,0.5,21,133.27
1218,G#4,331.875,0.125,36,133.27
1219,C#5,332.0,0.25,47,133.27
1220,E4,332.0,0.5,23,133.27
1221,B4,332.5,0.5,23,133.27
1222,C#4,332.875,0.125,37,133.27
1223,F#4,333.0,0.25,44,133.27
1224,E4,333.0,0.5,20,133.27
1225,B4,333.5,0.5,20,133.27
1226,B-4,333.875,0.125,41,133.27
1227,E-5,334.0,0.25,49,133.27
1228,E4,334.0,0.5,21,133.27
1229,B4,334.5,0.5,21,133.27
1230,E-5,334.875,0.125,46,133.27
1231,G#5,335.0,0.25,59,133.27
1232,E4,335.0,0.5,23,133.27
1233,B4,335.5,0.5,23,133.27
1234,G#4,335.875,0.125,37,133.27
1235,C#5,336.0,0.25,44,133.27
1236,E4,336.0,0.5,20,133.27
1237,B4,336.5,0.5,20,133.27
1238,E-4,336.875,0.125,32,133.27
1239,G#4,337.0,0.25,40,133.27
1240,E4,337.0,0.5,21,133.27
1241,B4,337.5,0.5,21,133.27
1242,G#4,337.875,0.125,36,133.27
1243,C#5,338.0,0.25,47,133.27
1244,E4,338.0,0.5,23,133.27
1245,B4,338.5,0.5,23,133.27
1246,C#4,338.875,0.125,37,133.27
1247,F#4,339.0,0.25,44,133.27
1248,E4,339.0,0.5,20,133.27
1249,B4,339.5,0.5,20,133.27
1250,B-4,339.875,0.125,41,133.27
1251,E-5,340.0,0.25,49,133.27
1252,E4,340.0,0.5,21,133.27
1253,B4,340.5,0.5,21,133.27
1254,E-5,340.875,0.125,46,133.27
1255,G#5,341.0,0.25,59,133.27
1256,E4,341.0,0.5,23,133.27
1257,B4,341.5,0.5,23,133.27
1258,C#5,342.0,0.5,30,133.27
1259,G#4,342.0,0.5,30,133.27
1260,E4,342.5,0.5,20,133.27
1261,B4,342.5,0.5,20,133.27
1262,E-4,343.0,0.5,28,133.27
1263,G#4,343.0,0.5,28,133.27
1264,E4,343.5,0.5,20,133.27
1265,B4,343.5,0.5,20,133.27
1266,G#4,344.0,0.5,30,133.27
1267,C#5,344.0,0.5,30,133.27
1268,E4,344.5,0.5,20,133.27
1269,B4,344.5,0.5,20,133.27
1270,G#4,345.0,0.5,30,133.27
1271,E-4,345.0,0.5,30,133.27
1272,E4,345.5,0.5,20,133.27
1273,B4,345.5,0.5,20,133.27
1274,G#4,346.0,0.5,28,133.27
1275,C#5,346.0,0.5,28,133.27
1276,E4,346.5,0.5,20,133.27
1277,B4,346.5,0.5,20,133.27
1278,E-4,347.0,0.5,30,133.27
1279,G#4,347.0,0.5,30,133.27
1280,E4,347.5,0.5,20,133.27
1281,B4,347.5,0.5,20,133.27
1282,C#5,348.0,0.5,25,133.27
1283,G#4,348.0,0.5,25,133.27
1284,E4,348.5,0.5,16,133.27
1285,B4,348.5,0.5,16,133.27
1286,E-4,349.0,0.5,24,133.27
1287,G#4,349.0,0.5,24,133.27
1288,E4,349.5,0.5,16,133.27
1289,B4,349.5,0.5,16,133.27
1290,G#4,350.0,0.5,25,133.27
1291,C#5,350.0,0.5,25,133.27
1292,E4,350.5,0.5,17,133.27
1293,B4,350.5,0.5,17,133.27
1294,G#4,351.0,0.5,25,133.27
1295,E-4,351.0,0.5,25,133.27
1296,E4,351.5,0.5,16,133.27
1297,B4,351.5,0.5,16,133.27
1298,G#4,352.0,0.5,24,133.27
1299,C#5,352.0,0.5,24,133.27
1300,E4,352.5,0.5,16,133.27
1301,B4,352.5,0.5,16,133.27
1302,E-4,353.0,0.5,25,133.27
1303,G#4,353.0,0.5,25,133.27
1304,E4,353.5,0.5,17,133.27
1305,B4,353.5,0.5,17,133.27
1306,G#4,354.0,0.5,25,133.27
1307,E-4,354.0,0.5,25,133.27
1308,E-4,357.0,0.5,23,133.27
1309,G#4,357.0,0.5,23,133.27
1310,B4,357.0,0.5,23,133.27
1311,G#3,357.0,0.5,16,133.27
1312,B3,357.0,0.5,16,133.27
1313,E3,360.0,0.5,20,133.27
1314,B3,360.5,0.5,16,133.27
1315,E4,361.0,0.5,20,133.27
1316,G#4,361.5,0.5,22,133.27
1317,E5,362.0,0.5,25,133.27
1318,G#5,362.5,0.5,25,133.27
1319,E6,363.0,0.5,29,133.27
1320,E7,366.0,0.5,32,133.27
