,note_name,start_time,duration,velocity,tempo
0,B-5,0.0,0.25,80,112.84
1,B-4,0.0,0.25,68,112.84
2,G#5,0.25,0.25,74,112.84
3,G#4,0.25,0.25,62,112.84
4,B-5,0.75,0.25,74,112.84
5,B-4,0.75,0.25,62,112.84
6,F5,1.0,0.25,76,112.84
7,F4,1.0,0.25,64,112.84
8,B-5,1.5,0.188,80,112.84
9,B-4,1.5,0.188,68,112.84
10,G#5,2.0,0.25,80,112.84
11,G#4,2.0,0.25,68,112.84
12,F5,2.25,0.25,80,112.84
13,F4,2.25,0.25,68,112.84
14,E-5,2.75,0.25,74,112.84
15,E-4,2.75,0.25,62,112.84
16,B4,3.0,1.0,80,112.84
17,B3,3.0,1.0,68,112.84
18,G#4,4.25,0.25,80,112.84
19,G#3,4.25,0.25,65,112.84
20,F4,4.5,0.25,79,112.84
21,F3,4.5,0.25,65,112.84
22,E-4,4.75,0.25,84,112.84
23,E-3,4.75,0.25,67,112.84
24,B3,5.0,1.0,86,112.84
25,B2,5.0,1.0,71,112.84
26,G#3,6.25,0.25,80,112.84
27,G#2,6.25,0.25,65,112.84
28,F3,6.5,0.25,79,112.84
29,F2,6.5,0.25,65,112.84
30,E-3,6.75,0.25,84,112.84
31,E-2,6.75,0.25,67,112.84
32,B2,7.0,0.5,86,112.84
33,B1,7.0,0.5,71,112.84
34,G3,7.5,0.5,90,112.84
35,D3,7.5,0.5,90,112.84
36,B-2,7.5,0.5,72,112.84
37,B-1,7.5,0.5,72,112.84
38,E-2,10.0,0.188,40,112.84
39,B-2,10.0,0.188,40,112.84
40,E-3,10.5,0.188,40,112.84
41,B-3,10.5,0.188,40,112.84
42,G3,10.5,0.188,33,112.84
43,F3,10.5,0.188,33,112.84
44,E-2,11.0,0.188,40,112.84
45,B-2,11.0,0.188,40,112.84
46,B-3,11.5,0.125,54,112.84
47,E-3,11.5,0.125,54,112.84
48,G3,11.5,0.188,35,112.84
49,F3,11.5,0.188,35,112.84
50,B-3,11.75,0.125,60,112.84
51,E-3,11.75,0.125,60,112.84
52,E-2,12.0,0.188,40,112.84
53,B-2,12.0,0.188,40,112.84
54,E-3,12.5,0.188,40,112.84
55,B-3,12.5,0.188,40,112.84
56,G3,12.5,0.188,33,112.84
57,F3,12.5,0.188,33,112.84
58,E-2,13.0,0.188,40,112.84
59,B-2,13.0,0.188,40,112.84
60,E-3,13.5,0.188,40,112.84
61,B-3,13.5,0.188,40,112.84
62,G3,13.5,0.188,33,112.84
63,F3,13.5,0.188,33,112.84
64,E-2,14.0,0.188,40,112.84
65,B-2,14.0,0.188,40,112.84
66,B-3,14.5,0.125,54,112.84
67,E-3,14.5,0.125,54,112.84
68,G3,14.5,0.188,35,112.84
69,F3,14.5,0.188,35,112.84
70,B-3,14.75,0.125,60,112.84
71,E-3,14.75,0.125,60,112.84
72,E-2,15.0,0.188,40,112.84
73,B-2,15.0,0.188,40,112.84
74,E-3,15.5,0.188,40,112.84
75,B-3,15.5,0.188,40,112.84
76,G3,15.5,0.188,33,112.84
77,F3,15.5,0.188,33,112.84
78,E-2,16.0,0.188,34,112.84
79,B-2,16.0,0.188,34,112.84
80,E-3,16.5,0.188,32,112.84
81,B-3,16.5,0.188,32,112.84
82,G3,16.5,0.188,27,112.84
83,F3,16.5,0.188,27,112.84
84,E-2,17.0,0.188,31,112.84
85,B-2,17.0,0.188,31,112.84
86,E-3,17.5,0.188,29,112.84
87,B-3,17.5,0.188,29,112.84
88,G3,17.5,0.188,24,112.84
89,F3,17.5,0.188,24,112.84
90,B-4,18.0,0.25,80,112.84
91,E-2,18.0,0.188,40,112.84
92,B-2,18.0,0.188,40,112.84
93,G#4,18.25,0.25,74,112.84
94,B3,18.5,0.25,45,112.84
95,E-4,18.5,0.25,45,112.84
96,G#3,18.5,0.188,33,112.84
97,F3,18.5,0.188,33,112.84
98,B-4,18.75,0.25,74,112.84
99,F4,19.0,0.25,76,112.84
100,E-2,19.0,0.188,40,112.84
101,B-2,19.0,0.188,40,112.84
102,B3,19.5,0.188,57,112.84
103,E-4,19.5,0.188,57,112.84
104,B-4,19.5,0.188,57,112.84
105,G#3,19.5,0.188,35,112.84
106,F3,19.5,0.188,35,112.84
107,G#4,20.0,0.25,80,112.84
108,E-2,20.0,0.188,40,112.84
109,B-2,20.0,0.188,40,112.84
110,F4,20.25,0.25,80,112.84
111,B3,20.5,0.188,45,112.84
112,G#3,20.5,0.188,33,112.84
113,F3,20.5,0.188,33,112.84
114,E-4,20.75,0.25,74,112.84
115,B3,21.0,0.25,80,112.84
116,E-2,21.0,0.188,40,112.84
117,B-2,21.0,0.188,40,112.84
118,B3,21.5,0.125,76,112.84
119,E-4,21.5,0.125,76,112.84
120,G#3,21.5,0.188,33,112.84
121,F3,21.5,0.188,33,112.84
122,B-3,22.0,0.188,80,112.84
123,E-2,22.0,0.188,37,112.84
124,B-2,22.0,0.188,37,112.84
125,B-3,22.25,0.25,74,112.84
126,G3,22.5,0.188,30,112.84
127,F3,22.5,0.188,30,112.84
128,C4,22.75,0.25,74,112.84
129,B-3,23.0,0.25,76,112.84
130,B-2,23.0,0.188,43,112.84
131,E-2,23.0,0.188,43,112.84
132,E-4,23.438,0.25,68,112.84
133,B-4,23.5,0.188,80,112.84
134,F3,23.5,0.188,38,112.84
135,G3,23.5,0.188,38,112.84
136,B-3,24.0,2.0,80,112.84
137,B-2,24.0,0.188,46,112.84
138,E-2,24.0,0.188,46,112.84
139,F3,24.5,0.188,37,112.84
140,G3,24.5,0.188,37,112.84
141,B-2,25.0,0.188,40,112.84
142,E-2,25.0,0.188,40,112.84
143,F3,25.5,0.188,32,112.84
144,G3,25.5,0.188,32,112.84
145,B-3,26.0,0.25,64,112.84
146,E-2,26.0,0.188,40,112.84
147,B-2,26.0,0.188,40,112.84
148,G#3,26.25,0.25,57,112.84
149,F3,26.5,0.188,33,112.84
150,E-3,26.5,0.188,33,112.84
151,B-3,26.75,0.25,56,112.84
152,C4,27.0,0.25,64,112.84
153,E-2,27.0,0.188,40,112.84
154,B-2,27.0,0.188,40,112.84
155,G#3,27.5,0.188,53,112.84
156,F3,27.5,0.188,35,112.84
157,E-3,27.5,0.188,35,112.84
158,B-3,28.0,0.25,64,112.84
159,E-2,28.0,0.188,40,112.84
160,B-2,28.0,0.188,40,112.84
161,G#3,28.25,0.25,57,112.84
162,F3,28.5,0.188,33,112.84
163,E-3,28.5,0.188,33,112.84
164,B-3,28.75,0.25,56,112.84
165,B3,29.0,0.25,64,112.84
166,E-2,29.0,0.188,40,112.84
167,B-2,29.0,0.188,40,112.84
168,G#3,29.5,0.188,53,112.84
169,F3,29.5,0.188,35,112.84
170,E-3,29.5,0.188,35,112.84
171,B-3,30.0,0.25,64,112.84
172,B-2,30.0,0.25,54,112.84
173,G#3,30.25,0.25,59,112.84
174,G#2,30.25,0.25,50,112.84
175,F3,30.75,0.188,59,112.84
176,F2,30.75,0.188,50,112.84
177,E-3,31.0,0.25,61,112.84
178,E-2,31.0,0.25,51,112.84
179,D3,31.5,0.25,65,112.84
180,D2,31.5,0.25,55,112.84
181,C3,32.0,0.25,71,112.84
182,C2,32.0,0.25,60,112.84
183,G2,32.5,0.25,68,112.84
184,G1,32.5,0.25,57,112.84
185,C3,33.0,0.25,76,112.84
186,C2,33.0,0.25,64,112.84
187,D3,33.5,0.25,80,112.84
188,D2,33.5,0.25,68,112.84
189,B-4,34.0,0.25,80,112.84
190,E-2,34.0,0.188,40,112.84
191,B-2,34.0,0.188,40,112.84
192,G#4,34.25,0.25,74,112.84
193,B3,34.5,0.25,45,112.84
194,E-4,34.5,0.25,45,112.84
195,G#3,34.5,0.188,33,112.84
196,F3,34.5,0.188,33,112.84
197,B-4,34.75,0.25,74,112.84
198,F4,35.0,0.25,76,112.84
199,E-2,35.0,0.188,40,112.84
200,B-2,35.0,0.188,40,112.84
201,B3,35.5,0.188,57,112.84
202,E-4,35.5,0.188,57,112.84
203,B-4,35.5,0.188,57,112.84
204,G#3,35.5,0.188,35,112.84
205,F3,35.5,0.188,35,112.84
206,G#4,36.0,0.25,80,112.84
207,E-2,36.0,0.188,40,112.84
208,B-2,36.0,0.188,40,112.84
209,F4,36.25,0.25,80,112.84
210,B3,36.5,0.188,45,112.84
211,G#3,36.5,0.188,33,112.84
212,F3,36.5,0.188,33,112.84
213,E-4,36.75,0.25,74,112.84
214,B3,37.0,0.25,80,112.84
215,E-2,37.0,0.188,40,112.84
216,B-2,37.0,0.188,40,112.84
217,B3,37.5,0.125,76,112.84
218,E-4,37.5,0.125,76,112.84
219,G#3,37.5,0.188,33,112.84
220,F3,37.5,0.188,33,112.84
221,B-3,38.0,0.188,80,112.84
222,E-2,38.0,0.188,37,112.84
223,B-2,38.0,0.188,37,112.84
224,B-3,38.25,0.25,74,112.84
225,G3,38.5,0.188,30,112.84
226,F3,38.5,0.188,30,112.84
227,C4,38.75,0.25,74,112.84
228,B-3,39.0,0.25,76,112.84
229,B-2,39.0,0.188,43,112.84
230,E-2,39.0,0.188,43,112.84
231,E-4,39.438,0.25,68,112.84
232,B-4,39.5,0.188,80,112.84
233,F3,39.5,0.188,38,112.84
234,G3,39.5,0.188,38,112.84
235,B-3,40.0,2.0,80,112.84
236,B-2,40.0,0.188,46,112.84
237,E-2,40.0,0.188,46,112.84
238,F3,40.5,0.188,37,112.84
239,G3,40.5,0.188,37,112.84
240,B-2,41.0,0.188,40,112.84
241,E-2,41.0,0.188,40,112.84
242,F3,41.5,0.188,32,112.84
243,G3,41.5,0.188,32,112.84
244,B-3,42.0,0.188,55,112.84
245,F#2,42.0,0.188,37,112.84
246,C#3,42.0,0.188,37,112.84
247,B-3,42.25,0.25,49,112.84
248,C#3,42.5,0.188,30,112.84
249,G#3,42.5,0.188,30,112.84
250,F#3,42.5,0.188,30,112.84
251,C4,42.75,0.25,53,112.84
252,B-3,43.0,0.25,61,112.84
253,F#2,43.0,0.188,37,112.84
254,C#3,43.0,0.188,37,112.84
255,C#4,43.5,0.188,53,112.84
256,C#3,43.5,0.188,31,112.84
257,A3,43.5,0.188,31,112.84
258,F#3,43.5,0.188,31,112.84
259,E-4,44.0,0.188,64,112.84
260,C#3,44.0,0.188,40,112.84
261,F#2,44.0,0.188,40,112.84
262,F4,44.5,0.188,61,112.84
263,F#3,44.5,0.125,33,112.84
264,B-3,44.5,0.125,33,112.84
265,C#3,44.5,0.125,33,112.84
266,E-4,45.0,0.188,65,112.84
267,C#3,45.0,0.188,42,112.84
268,F#2,45.0,0.188,42,112.84
269,F#4,45.5,0.188,71,112.84
270,F#3,45.5,0.125,37,112.84
271,B3,45.5,0.125,37,112.84
272,C#3,45.5,0.125,37,112.84
273,F4,46.0,0.188,80,112.84
274,F4,46.25,0.25,74,112.84
275,E4,46.5,0.188,54,112.84
276,C#4,46.5,0.188,54,112.84
277,G4,46.75,0.25,74,112.84
278,F4,47.0,0.438,76,112.84
279,C4,47.0,0.5,60,112.84
280,E-4,47.0,0.5,60,112.84
281,G4,47.438,0.25,68,112.84
282,D5,47.5,0.188,80,112.84
283,E-4,47.5,0.125,52,112.84
284,A3,47.5,0.125,52,112.84
285,F3,47.5,0.125,52,112.84
286,B-4,48.0,1.0,78,112.84
287,D4,48.0,1.0,78,112.84
288,F3,48.0,0.5,66,112.84
289,B-3,48.0,0.5,66,112.84
290,B-2,48.0,0.5,66,112.84
291,B-5,49.0,0.5,98,112.84
292,B-6,49.0,0.5,98,112.84
293,B-1,49.0,0.5,66,112.84
294,B-2,49.0,0.5,66,112.84
295,C4,50.0,0.25,59,112.84
296,E-4,50.0,0.25,59,112.84
297,G#3,50.0,0.188,40,112.84
298,B-3,50.0,0.188,40,112.84
299,D4,50.25,0.5,52,112.84
300,F4,50.25,0.5,52,112.84
301,B-4,50.5,0.188,33,112.84
302,G#4,50.5,0.188,33,112.84
303,E-4,50.75,0.25,52,112.84
304,G4,50.75,0.25,52,112.84
305,D4,51.0,0.188,59,112.84
306,F4,51.0,0.188,59,112.84
307,G#3,51.0,0.188,40,112.84
308,B-3,51.0,0.188,40,112.84
309,C4,51.5,0.188,49,112.84
310,E-4,51.5,0.188,49,112.84
311,B-4,51.5,0.188,35,112.84
312,G#4,51.5,0.188,35,112.84
313,F4,52.0,2.0,49,112.84
314,D4,52.0,2.0,49,112.84
315,G#3,52.0,0.188,40,112.84
316,B-3,52.0,0.188,40,112.84
317,B-4,52.5,0.188,33,112.84
318,G#4,52.5,0.188,33,112.84
319,B-6,53.0,0.5,59,112.84
320,B-5,53.0,0.5,59,112.84
321,G#3,53.0,0.188,40,112.84
322,B-3,53.0,0.188,40,112.84
323,B-4,53.5,0.188,35,112.84
324,G#4,53.5,0.188,35,112.84
325,C4,54.0,0.25,59,112.84
326,E-4,54.0,0.25,59,112.84
327,G3,54.0,0.188,40,112.84
328,B-3,54.0,0.188,40,112.84
329,D4,54.25,0.5,52,112.84
330,F4,54.25,0.5,52,112.84
331,B-4,54.5,0.188,33,112.84
332,E-4,54.75,0.25,52,112.84
333,G4,54.75,0.25,52,112.84
334,D4,55.0,0.25,59,112.84
335,F4,55.0,0.25,59,112.84
336,G3,55.0,0.188,40,112.84
337,B-3,55.0,0.188,40,112.84
338,B-4,55.5,0.188,35,112.84
339,C4,55.5,0.188,49,112.84
340,E-4,55.5,0.188,49,112.84
341,F4,56.0,0.25,49,112.84
342,D4,56.0,0.25,49,112.84
343,G3,56.0,0.25,40,112.84
344,B-3,56.0,0.25,40,112.84
345,B-4,56.5,0.188,33,112.84
346,C4,56.5,0.5,53,112.84
347,E-4,56.5,0.5,53,112.84
348,D4,57.0,0.5,53,112.84
349,F4,57.0,0.5,53,112.84
350,G3,57.0,0.5,40,112.84
351,B-3,57.0,0.5,40,112.84
352,E-4,57.5,0.188,35,112.84
353,G4,57.5,0.25,53,112.84
354,B-4,57.5,0.25,53,112.84
355,C5,57.5,0.25,53,112.84
356,B-2,58.0,0.25,44,112.84
357,G#3,58.0,2.0,38,112.84
358,C4,58.0,2.0,38,112.84
359,E-4,58.0,2.0,38,112.84
360,C3,58.25,0.25,39,112.84
361,D3,58.75,0.25,39,112.84
362,C3,59.0,0.25,44,112.84
363,B-2,59.5,0.188,37,112.84
364,B-2,60.0,0.25,44,112.84
365,C3,60.25,0.25,39,112.84
366,D3,60.75,0.25,39,112.84
367,C3,61.0,0.25,44,112.84
368,B-2,61.5,0.188,37,112.84
369,B-2,62.0,0.25,37,112.84
370,G#3,62.0,2.0,38,112.84
371,C4,62.0,2.0,38,112.84
372,E-4,62.0,2.0,38,112.84
373,C3,62.25,0.25,33,112.84
374,D3,62.75,0.25,33,112.84
375,C3,63.0,0.25,37,112.84
376,B-2,63.5,0.188,31,112.84
377,G3,64.0,2.0,32,112.84
378,C4,64.0,2.0,32,112.84
379,E-4,64.0,2.0,32,112.84
380,B-1,64.25,0.25,65,112.84
381,C2,64.5,0.25,65,112.84
382,D2,64.75,0.25,67,112.84
383,C2,65.0,0.25,68,112.84
384,B-0,65.5,0.188,58,112.84
385,B-1,65.5,0.188,58,112.84
386,G#3,66.0,0.188,40,112.84
387,B-3,66.0,0.188,40,112.84
388,B-2,66.25,0.25,65,112.84
389,C3,66.5,0.25,65,112.84
390,B-4,66.5,0.188,33,112.84
391,G#4,66.5,0.188,33,112.84
392,D3,66.75,0.25,67,112.84
393,C3,67.0,0.25,68,112.84
394,G#3,67.0,0.188,40,112.84
395,B-3,67.0,0.188,40,112.84
396,B-2,67.5,0.188,62,112.84
397,B-4,67.5,0.188,35,112.84
398,G#4,67.5,0.188,35,112.84
399,C4,68.0,0.25,59,112.84
400,E-4,68.0,0.25,59,112.84
401,G#3,68.0,0.188,40,112.84
402,B-3,68.0,0.188,40,112.84
403,D4,68.25,0.5,52,112.84
404,F4,68.25,0.5,52,112.84
405,B-4,68.5,0.188,33,112.84
406,G#4,68.5,0.188,33,112.84
407,E-4,68.75,0.25,52,112.84
408,G4,68.75,0.25,52,112.84
409,D4,69.0,0.188,59,112.84
410,F4,69.0,0.188,59,112.84
411,G#3,69.0,0.188,40,112.84
412,B-3,69.0,0.188,40,112.84
413,C4,69.5,0.188,49,112.84
414,E-4,69.5,0.188,49,112.84
415,B-4,69.5,0.188,35,112.84
416,G#4,69.5,0.188,35,112.84
417,F4,70.0,2.0,49,112.84
418,D4,70.0,2.0,49,112.84
419,G3,70.0,0.188,40,112.84
420,B-3,70.0,0.188,40,112.84
421,G4,70.5,0.188,33,112.84
422,B-4,70.5,0.188,33,112.84
423,B-6,71.0,0.5,59,112.84
424,B-5,71.0,0.5,59,112.84
425,G3,71.0,0.188,40,112.84
426,B-3,71.0,0.188,40,112.84
427,G4,71.5,0.188,34,112.84
428,B-4,71.5,0.188,34,112.84
429,C4,72.0,0.25,59,112.84
430,E-4,72.0,0.25,59,112.84
431,G3,72.0,0.25,40,112.84
432,B-3,72.0,0.25,40,112.84
433,D4,72.25,0.5,52,112.84
434,F4,72.25,0.5,52,112.84
435,G4,72.5,0.188,33,112.84
436,B-4,72.5,0.188,33,112.84
437,E-4,72.75,0.25,52,112.84
438,G4,72.75,0.25,52,112.84
439,D4,73.0,0.25,59,112.84
440,F4,73.0,0.25,59,112.84
441,G3,73.0,0.5,40,112.84
442,B-3,73.0,0.5,40,112.84
443,E-4,73.5,0.188,35,112.84
444,C4,73.5,0.188,49,112.84
445,E-4,73.5,0.188,49,112.84
446,B-4,74.0,0.25,68,112.84
447,F4,74.0,0.25,49,112.84
448,D4,74.0,0.25,49,112.84
449,B3,74.0,2.0,51,112.84
450,E-4,74.0,2.0,51,112.84
451,G#4,74.25,0.25,62,112.84
452,C4,74.5,0.5,53,112.84
453,E-4,74.5,0.5,53,112.84
454,B-4,74.75,0.25,62,112.84
455,F4,75.0,0.25,64,112.84
456,D4,75.0,0.5,53,112.84
457,F4,75.0,0.5,53,112.84
458,B-4,75.5,0.188,68,112.84
459,G4,75.5,0.25,53,112.84
460,B-4,75.5,0.25,53,112.84
461,C5,75.5,0.25,53,112.84
462,B-5,76.0,0.25,80,112.84
463,B4,76.0,2.0,60,112.84
464,E-5,76.0,2.0,60,112.84
465,G#5,76.25,0.25,74,112.84
466,B-5,76.75,0.25,74,112.84
467,F5,77.0,0.25,76,112.84
468,G#4,77.0,0.25,68,112.84
469,B3,77.0,1.0,51,112.84
470,E-4,77.0,1.0,51,112.84
471,F4,77.25,0.25,68,112.84
472,B-5,77.5,0.188,80,112.84
473,E-4,77.75,0.25,62,112.84
474,B3,78.0,1.0,68,112.84
475,G#5,79.0,0.25,80,112.84
476,B4,79.0,1.0,60,112.84
477,E-5,79.0,1.0,60,112.84
478,F5,79.25,0.25,80,112.84
479,G#3,79.25,0.25,65,112.84
480,F3,79.5,0.25,65,112.84
481,E-5,79.75,0.25,74,112.84
482,E-3,79.75,0.25,67,112.84
483,B4,80.0,1.0,80,112.84
484,B2,80.0,0.25,71,112.84
485,B-2,80.5,0.5,72,112.84
486,B-1,80.5,0.5,72,112.84
487,G#4,81.25,0.25,80,112.84
488,F4,81.5,0.25,79,112.84
489,G3,81.5,0.188,33,112.84
490,F3,81.5,0.188,33,112.84
491,E-4,81.75,0.25,84,112.84
492,B3,82.0,0.25,86,112.84
493,E-2,82.0,0.188,40,112.84
494,B-2,82.0,0.188,40,112.84
495,G3,82.5,0.5,90,112.84
496,D3,82.5,0.5,90,112.84
497,G3,82.5,0.188,33,112.84
498,F3,82.5,0.188,33,112.84
499,E-2,83.0,1.0,37,112.84
500,B-2,83.0,1.0,37,112.84
501,E-3,83.5,0.188,40,112.84
502,B-3,83.5,0.188,40,112.84
503,E-3,84.5,0.188,40,112.84
504,B-3,84.5,0.188,40,112.84
505,G3,85.5,0.188,32,112.84
506,F3,85.5,0.188,32,112.84
507,E-2,86.0,0.188,38,112.84
508,B-2,86.0,0.188,38,112.84
509,G3,86.5,0.188,29,112.84
510,F3,86.5,0.188,29,112.84
511,E-2,87.0,1.0,32,112.84
512,B-2,87.0,1.0,32,112.84
513,E-3,87.5,0.188,39,112.84
514,B-3,87.5,0.188,39,112.84
515,E-3,88.5,0.188,36,112.84
516,B-3,88.5,0.188,36,112.84
517,G3,89.5,0.188,32,112.84
518,F3,89.5,0.188,32,112.84
519,E-2,90.0,0.188,38,112.84
520,B-2,90.0,0.188,38,112.84
521,G3,90.5,0.188,30,112.84
522,F3,90.5,0.188,30,112.84
523,E-2,91.0,1.0,34,112.84
524,E-3,91.5,0.188,39,112.84
525,B-3,91.5,0.188,39,112.84
526,F2,92.0,1.0,34,112.84
527,E-3,92.5,0.188,36,112.84
528,B-3,92.5,0.188,36,112.84
529,F#2,93.0,0.25,30,112.84
530,C#3,93.0,2.0,30,112.84
531,F#2,94.0,0.25,29,112.84
532,F#2,95.0,0.25,30,112.84
533,C#3,95.0,2.0,30,112.84
534,A3,95.375,0.125,25,112.84
535,C#4,95.5,0.125,28,112.84
536,B-3,95.5,0.125,28,112.84
537,F#2,96.0,0.25,29,112.84
538,A3,96.375,0.125,25,112.84
539,C#4,96.5,0.125,28,112.84
540,B-3,96.5,0.125,28,112.84
541,E-3,96.875,0.125,24,112.84
542,F#2,97.0,0.25,30,112.84
543,C#3,97.0,2.0,30,112.84
544,G3,97.375,0.125,25,112.84
545,G#3,97.5,0.125,30,112.84
546,B3,97.5,0.125,30,112.84
547,F#2,98.0,0.25,29,112.84
548,G#3,98.375,0.125,25,112.84
549,F4,98.5,0.125,36,112.84
550,C4,98.5,0.125,36,112.84
551,A3,98.5,0.125,36,112.84
552,F#2,99.0,0.25,30,112.84
553,C#3,99.0,2.0,30,112.84
554,A3,99.375,0.125,25,112.84
555,C#4,99.5,0.125,28,112.84
556,B-3,99.5,0.125,28,112.84
557,F#2,100.0,0.25,29,112.84
558,A3,100.375,0.125,25,112.84
559,C#4,100.5,0.125,28,112.84
560,B-3,100.5,0.125,28,112.84
561,C#3,101.0,2.0,30,112.84
562,G3,101.375,0.125,25,112.84
563,F#2,101.5,0.25,29,112.84
564,G#3,101.5,0.125,30,112.84
565,B3,101.5,0.125,30,112.84
566,F2,102.0,0.25,29,112.84
567,G#3,102.375,0.125,25,112.84
568,E-2,102.5,0.25,29,112.84
569,F4,102.5,0.125,36,112.84
570,C4,102.5,0.125,36,112.84
571,A3,102.5,0.125,36,112.84
572,C#2,103.0,0.5,37,112.84
573,C#3,103.0,2.0,30,112.84
574,A3,103.375,0.125,25,112.84
575,C#4,103.5,0.125,28,112.84
576,B-3,103.5,0.125,28,112.84
577,F#2,105.5,0.25,29,112.84
578,A3,105.875,0.125,25,112.84
579,F2,106.0,0.25,29,112.84
580,B-3,106.0,0.125,30,112.84
581,C#4,106.0,0.125,30,112.84
582,E-2,106.5,0.25,29,112.84
583,C#2,107.0,0.25,37,112.84
584,B1,107.5,0.25,32,112.84
585,B-1,108.0,0.25,30,112.84
586,G#1,108.5,0.25,30,112.84
587,F#2,109.0,0.25,30,112.84
588,C#3,109.0,2.0,30,112.84
589,C3,109.875,0.125,21,112.84
590,F#2,110.0,0.25,29,112.84
591,B2,110.0,0.125,24,112.84
592,E-3,110.0,0.125,24,112.84
593,F#2,111.0,0.25,30,112.84
594,C#3,111.0,2.0,30,112.84
595,A3,111.375,0.125,25,112.84
596,C#4,111.5,0.125,28,112.84
597,B-3,111.5,0.125,28,112.84
598,F#2,112.0,0.25,29,112.84
599,A3,112.375,0.125,25,112.84
600,C#4,112.5,0.125,28,112.84
601,B-3,112.5,0.125,28,112.84
602,E-3,112.875,0.125,24,112.84
603,F#2,113.0,0.25,30,112.84
604,C#3,113.0,2.0,30,112.84
605,G3,113.375,0.125,25,112.84
606,G#3,113.5,0.125,30,112.84
607,B3,113.5,0.125,30,112.84
608,F#2,114.0,0.25,29,112.84
609,G#3,114.375,0.125,25,112.84
610,F4,114.5,0.125,36,112.84
611,C4,114.5,0.125,36,112.84
612,A3,114.5,0.125,36,112.84
613,F#2,115.0,0.25,30,112.84
614,C#3,115.0,2.0,30,112.84
615,A3,115.375,0.125,25,112.84
616,C#4,115.5,0.125,28,112.84
617,B-3,115.5,0.125,28,112.84
618,F#2,116.0,0.25,29,112.84
619,A3,116.375,0.125,25,112.84
620,C#4,116.5,0.125,28,112.84
621,B-3,116.5,0.125,28,112.84
622,C#3,117.0,2.0,30,112.84
623,G3,117.375,0.125,25,112.84
624,F#2,117.5,0.25,29,112.84
625,G#3,117.5,0.125,30,112.84
626,B3,117.5,0.125,30,112.84
627,F2,118.0,0.25,29,112.84
628,G#3,118.375,0.125,25,112.84
629,E-2,118.5,0.25,29,112.84
630,F4,118.5,0.125,36,112.84
631,C4,118.5,0.125,36,112.84
632,A3,118.5,0.125,36,112.84
633,C#2,119.0,0.5,37,112.84
634,C#3,119.0,2.0,30,112.84
635,A3,119.375,0.125,25,112.84
636,C#4,119.5,0.125,28,112.84
637,B-3,119.5,0.125,28,112.84
638,C#3,121.0,0.5,30,112.84
639,E-2,121.5,0.5,37,112.84
640,F2,122.0,0.5,41,112.84
641,F#2,122.5,0.5,38,112.84
642,A2,123.0,0.5,49,112.84
643,B-2,123.5,0.5,42,112.84
644,A3,124.0,1.0,46,112.84
645,B2,124.0,0.5,55,112.84
646,C3,124.5,0.5,46,112.84
647,F4,125.0,1.5,63,112.84
648,A3,125.0,1.5,46,112.84
649,C#3,125.0,2.0,26,112.84
650,G#2,125.0,2.0,26,112.84
651,G#3,125.5,0.125,29,112.84
652,B3,125.5,0.125,29,112.84
653,F4,125.5,0.125,29,112.84
654,G#3,126.0,0.125,29,112.84
655,B3,126.0,0.125,29,112.84
656,F4,126.0,0.125,29,112.84
657,E4,126.5,0.5,68,112.84
658,B-3,126.5,0.5,68,112.84
659,B3,126.5,0.125,29,112.84
660,G#3,126.5,0.125,29,112.84
661,F4,126.5,0.125,29,112.84
662,E-4,127.0,2.0,45,112.84
663,B3,127.0,2.0,45,112.84
664,D5,127.375,0.125,25,112.84
665,B4,127.5,0.125,30,112.84
666,E-5,127.5,0.125,30,112.84
667,G#3,127.5,0.125,29,112.84
668,B3,127.5,0.125,29,112.84
669,F4,127.5,0.125,29,112.84
670,C5,127.875,0.125,25,112.84
671,B4,128.0,0.125,30,112.84
672,C#5,128.0,0.125,30,112.84
673,G#3,128.0,0.125,29,112.84
674,B3,128.0,0.125,29,112.84
675,F4,128.0,0.125,29,112.84
676,D5,128.375,0.125,25,112.84
677,E-5,128.5,0.125,38,112.84
678,B4,128.5,0.125,38,112.84
679,B3,128.5,0.125,29,112.84
680,G#3,128.5,0.125,29,112.84
681,F4,128.5,0.125,29,112.84
682,D5,129.375,0.125,25,112.84
683,B4,129.5,0.125,30,112.84
684,E-5,129.5,0.125,30,112.84
685,C5,129.875,0.125,25,112.84
686,B4,130.0,0.125,30,112.84
687,C#5,130.0,0.125,30,112.84
688,D5,130.375,0.125,25,112.84
689,E-5,130.5,0.125,38,112.84
690,B4,130.5,0.125,38,112.84
691,C#3,131.0,2.0,29,112.84
692,A3,132.0,1.0,46,112.84
693,F4,133.0,1.5,63,112.84
694,A3,133.0,2.0,46,112.84
695,F#2,133.0,2.0,24,112.84
696,C#3,133.0,2.0,29,112.84
697,B-3,133.5,0.125,29,112.84
698,C#4,133.5,0.125,29,112.84
699,F#4,133.5,0.125,29,112.84
700,B-3,134.0,0.125,29,112.84
701,C#4,134.0,0.125,29,112.84
702,F#4,134.0,0.125,29,112.84
703,E4,134.5,0.5,68,112.84
704,C#4,134.5,0.125,29,112.84
705,B-3,134.5,0.125,29,112.84
706,F#4,134.5,0.125,29,112.84
707,E-4,135.0,2.0,45,112.84
708,B-3,135.0,2.0,45,112.84
709,D5,135.375,0.125,25,112.84
710,B-4,135.5,0.125,30,112.84
711,E-5,135.5,0.125,30,112.84
712,B-3,135.5,0.125,29,112.84
713,C#4,135.5,0.125,29,112.84
714,F#4,135.5,0.125,29,112.84
715,C5,135.875,0.125,25,112.84
716,B-4,136.0,0.125,30,112.84
717,C#5,136.0,0.125,30,112.84
718,B-3,136.0,0.125,29,112.84
719,C#4,136.0,0.125,29,112.84
720,F#4,136.0,0.125,29,112.84
721,D5,136.375,0.125,25,112.84
722,E-5,136.5,0.125,38,112.84
723,B-4,136.5,0.125,38,112.84
724,C#4,136.5,0.125,29,112.84
725,B-3,136.5,0.125,29,112.84
726,F#4,136.5,0.125,29,112.84
727,D5,137.375,0.125,25,112.84
728,B-4,137.5,0.125,30,112.84
729,E-5,137.5,0.125,30,112.84
730,C5,137.875,0.125,25,112.84
731,A3,138.0,1.0,42,112.84
732,B-4,138.0,0.125,30,112.84
733,C#5,138.0,0.125,30,112.84
734,D5,138.375,0.125,25,112.84
735,E-5,138.5,0.125,38,112.84
736,B-4,138.5,0.125,38,112.84
737,F4,139.0,0.5,53,112.84
738,G#4,139.5,1.0,62,112.84
739,A4,140.0,1.0,50,112.84
740,F#4,140.5,0.5,57,112.84
741,F5,141.0,0.5,63,112.84
742,C#3,141.0,2.0,29,112.84
743,G#5,141.5,1.0,74,112.84
744,F4,141.5,0.5,49,112.84
745,G#3,141.5,1.5,41,112.84
746,B3,141.5,1.5,41,112.84
747,E-4,142.0,0.5,49,112.84
748,F#5,142.5,0.5,68,112.84
749,C#4,142.5,0.5,41,112.84
750,B-4,143.0,0.5,57,112.84
751,E-5,143.0,0.25,68,112.84
752,F#3,143.0,0.5,41,112.84
753,B3,143.0,1.5,34,112.84
754,F#5,143.25,0.5,74,112.84
755,G#4,143.5,0.5,72,112.84
756,F3,143.5,0.5,41,112.84
757,F5,143.75,0.25,68,112.84
758,C#5,144.0,1.0,78,112.84
759,F#4,144.0,0.5,66,112.84
760,E-3,144.0,0.5,36,112.84
761,F4,144.5,0.5,57,112.84
762,C#3,144.5,0.5,34,112.84
763,E-4,145.0,0.5,48,112.84
764,G#4,145.0,0.25,57,112.84
765,F#2,145.0,2.0,29,112.84
766,C#3,145.0,0.5,34,112.84
767,B4,145.25,0.5,61,112.84
768,C#4,145.5,0.5,55,112.84
769,C#3,145.5,1.0,34,112.84
770,B-4,145.75,0.25,57,112.84
771,B3,146.0,1.0,42,112.84
772,C#4,146.0,1.0,50,112.84
773,B-3,146.5,0.5,42,112.84
774,C#3,146.5,0.5,34,112.84
775,B3,147.0,1.5,42,112.84
776,B-3,147.0,0.5,42,112.84
777,G2,147.0,2.0,29,112.84
778,C#3,147.0,0.5,34,112.84
779,C#3,147.5,1.5,42,112.84
780,A3,148.0,1.0,46,112.84
781,F4,149.0,1.5,63,112.84
782,A3,149.0,1.0,46,112.84
783,C#3,149.0,2.0,26,112.84
784,G#2,149.0,2.0,26,112.84
785,G#3,149.5,0.125,29,112.84
786,B3,149.5,0.125,29,112.84
787,F#4,149.5,0.125,29,112.84
788,B-3,150.0,1.0,68,112.84
789,G#3,150.0,0.125,29,112.84
790,B3,150.0,0.125,29,112.84
791,F4,150.0,0.125,29,112.84
792,E4,150.5,0.5,68,112.84
793,B3,150.5,0.125,29,112.84
794,G#3,150.5,0.125,29,112.84
795,E-4,150.5,0.125,29,112.84
796,E-4,151.0,2.0,45,112.84
797,B3,151.0,2.0,45,112.84
798,D5,151.375,0.125,25,112.84
799,F#3,151.5,0.5,34,112.84
800,B4,151.5,0.125,30,112.84
801,E-5,151.5,0.125,30,112.84
802,C5,151.875,0.125,25,112.84
803,F3,152.0,0.5,34,112.84
804,B4,152.0,0.125,30,112.84
805,C#5,152.0,0.125,30,112.84
806,D5,152.375,0.125,25,112.84
807,E-3,152.5,0.5,34,112.84
808,E-5,152.5,0.125,38,112.84
809,B4,152.5,0.125,38,112.84
810,E-3,153.0,1.0,34,112.84
811,A3,154.0,1.0,46,112.84
812,C3,154.0,1.0,32,112.84
813,F4,155.0,1.5,63,112.84
814,A3,155.0,2.0,46,112.84
815,C#3,155.0,2.0,26,112.84
816,F#2,155.0,2.0,26,112.84
817,B-3,155.5,0.125,29,112.84
818,C#4,155.5,0.125,29,112.84
819,F#4,155.5,0.125,29,112.84
820,B-3,156.0,0.125,29,112.84
821,C#4,156.0,0.125,29,112.84
822,F4,156.0,0.125,29,112.84
823,E4,156.5,0.5,53,112.84
824,C#4,156.5,0.125,29,112.84
825,B-3,156.5,0.125,29,112.84
826,E-4,156.5,0.125,29,112.84
827,E-4,157.0,2.0,45,112.84
828,B-3,157.0,2.0,45,112.84
829,D5,157.375,0.125,25,112.84
830,B-4,157.5,0.125,30,112.84
831,E-5,157.5,0.125,30,112.84
832,C5,157.875,0.125,25,112.84
833,C#4,158.0,1.0,42,112.84
834,B-4,158.0,0.125,30,112.84
835,C#5,158.0,0.125,30,112.84
836,D5,158.375,0.125,25,112.84
837,E-5,158.5,0.125,38,112.84
838,B-4,158.5,0.125,38,112.84
839,A4,159.0,0.5,53,112.84
840,B4,159.5,1.0,62,112.84
841,C#5,160.0,1.0,50,112.84
842,B-4,160.5,0.5,57,112.84
843,A5,161.0,0.5,63,112.84
844,B2,161.0,2.0,29,112.84
845,B5,161.5,1.0,74,112.84
846,B3,161.5,1.5,38,112.84
847,E-4,161.5,1.5,38,112.84
848,G#3,161.5,1.5,38,112.84
849,F#3,161.5,1.5,38,112.84
850,B-5,162.5,0.5,68,112.84
851,B-4,163.0,0.5,57,112.84
852,F5,163.0,0.25,68,112.84
853,E-4,163.0,0.5,41,112.84
854,G#5,163.25,0.5,74,112.84
855,G#4,163.5,0.5,72,112.84
856,C#4,163.5,0.5,41,112.84
857,F#5,163.75,0.25,68,112.84
858,E-5,164.0,1.0,78,112.84
859,F#4,164.0,0.5,66,112.84
860,B3,164.0,333/1000,36,112.84
861,B-3,164.333,333/1000,36,112.84
862,F4,164.5,0.5,57,112.84
863,G#3,164.667,333/1000,36,112.84
864,B-4,165.0,0.25,57,112.84
865,B-2,165.0,0.25,31,112.84
866,C#5,165.25,0.5,61,112.84
867,C#3,165.25,0.5,41,112.84
868,B4,165.75,0.25,57,112.84
869,B2,165.75,0.25,37,112.84
870,F4,166.0,0.75,50,112.84
871,C#2,166.0,1.0,31,112.84
872,F#4,166.75,0.25,50,112.84
873,C#2,167.0,0.25,31,112.84
874,F#3,167.0,2.0,31,112.84
875,B3,167.0,2.0,31,112.84
876,E-4,167.0,2.0,31,112.84
877,E-2,167.25,0.5,33,112.84
878,F2,167.75,0.25,27,112.84
879,E-2,168.0,0.5,34,112.84
880,C#2,168.5,0.5,31,112.84
881,C#2,169.0,2.0,31,112.84
882,C#2,171.0,2.0,31,112.84
883,B-2,173.0,0.25,31,112.84
884,C#3,173.25,0.5,41,112.84
885,B2,173.75,0.25,37,112.84
886,C#2,174.0,0.25,31,112.84
887,E-2,174.25,0.5,30,112.84
888,F2,174.75,0.25,33,112.84
889,E-2,175.0,0.5,30,112.84
890,F#3,175.0,2.0,31,112.84
891,B3,175.0,2.0,31,112.84
892,E-4,175.0,2.0,31,112.84
893,C#2,175.485,303/200,27,112.84
894,C#2,177.0,397/200,27,112.84
895,F#3,181.0,2.0,31,112.84
896,B3,181.0,2.0,31,112.84
897,E-4,181.0,2.0,31,112.84
898,B-4,181.75,0.25,43,112.84
899,G#4,182.0,0.5,47,112.84
900,B-4,182.5,0.5,41,112.84
901,E-2,183.0,0.188,37,112.84
902,B-2,183.0,0.188,37,112.84
903,G3,183.5,0.188,30,112.84
904,F3,183.5,0.188,30,112.84
905,B-2,184.0,0.188,43,112.84
906,E-2,184.0,0.188,43,112.84
907,F3,184.5,0.188,38,112.84
908,G3,184.5,0.188,38,112.84
909,F#3,185.0,2.0,31,112.84
910,B3,185.0,2.0,31,112.84
911,E-4,185.0,2.0,31,112.84
912,B-2,185.0,0.188,46,112.84
913,E-2,185.0,0.188,46,112.84
914,F3,185.5,0.188,37,112.84
915,G3,185.5,0.188,37,112.84
916,B-4,185.75,0.25,43,112.84
917,G#4,186.0,0.5,47,112.84
918,B-2,186.0,0.188,40,112.84
919,E-2,186.0,0.188,40,112.84
920,B-4,186.5,0.5,41,112.84
921,F3,186.5,0.188,32,112.84
922,G3,186.5,0.188,32,112.84
923,F#3,187.0,2.0,31,112.84
924,B3,187.0,2.0,31,112.84
925,C#4,187.0,2.0,31,112.84
926,E-2,187.0,0.188,40,112.84
927,B-2,187.0,0.188,40,112.84
928,F3,187.5,0.188,33,112.84
929,E-3,187.5,0.188,33,112.84
930,E-2,188.0,0.188,40,112.84
931,B-2,188.0,0.188,40,112.84
932,F3,188.5,0.188,35,112.84
933,E-3,188.5,0.188,35,112.84
934,E-2,189.0,0.188,40,112.84
935,B-2,189.0,0.188,40,112.84
936,F3,189.5,0.188,33,112.84
937,E-3,189.5,0.188,33,112.84
938,E-2,190.0,0.188,40,112.84
939,B-2,190.0,0.188,40,112.84
940,F3,190.5,0.188,35,112.84
941,E-3,190.5,0.188,35,112.84
942,B-2,191.0,0.25,54,112.84
943,G#2,191.25,0.25,50,112.84
944,F2,191.75,0.188,50,112.84
945,E-2,192.0,0.25,51,112.84
946,D2,192.5,0.25,55,112.84
947,F3,193.0,2.0,31,112.84
948,C2,193.0,0.25,60,112.84
949,B3,193.0,4.0,31,112.84
950,C#4,193.0,4.0,31,112.84
951,G1,193.5,0.25,57,112.84
952,B-4,193.75,0.25,34,112.84
953,G#4,194.0,0.5,39,112.84
954,C2,194.0,0.25,64,112.84
955,B-4,194.5,0.5,34,112.84
956,D2,194.5,0.25,68,112.84
957,E-2,195.0,0.188,40,112.84
958,B-2,195.0,0.188,40,112.84
959,G#3,195.5,0.188,33,112.84
960,F3,195.5,0.188,33,112.84
961,E-2,196.0,0.188,40,112.84
962,B-2,196.0,0.188,40,112.84
963,G#3,196.5,0.188,35,112.84
964,F3,196.5,0.188,35,112.84
965,F3,197.0,2.0,31,112.84
966,E-2,197.0,0.188,40,112.84
967,B-2,197.0,0.188,40,112.84
968,G#3,197.5,0.188,33,112.84
969,F3,197.5,0.188,33,112.84
970,B-4,197.75,0.25,33,112.84
971,G#4,198.0,0.5,40,112.84
972,E-2,198.0,0.188,40,112.84
973,B-2,198.0,0.188,40,112.84
974,B-4,198.5,0.5,32,112.84
975,G#3,198.5,0.125,33,112.84
976,F3,198.5,0.125,33,112.84
977,B-4,199.0,0.25,39,112.84
978,E-2,199.0,0.188,37,112.84
979,B-2,199.0,0.188,37,112.84
980,G#4,199.25,0.25,34,112.84
981,G3,199.5,0.188,30,112.84
982,F3,199.5,0.188,30,112.84
983,B-4,199.75,0.25,42,112.84
984,F4,200.0,0.25,45,112.84
985,B-2,200.0,0.188,43,112.84
986,E-2,200.0,0.188,43,112.84
987,B-4,200.5,0.188,48,112.84
988,F3,200.5,0.188,38,112.84
989,G3,200.5,0.188,38,112.84
990,G#4,201.0,0.25,39,112.84
991,B-2,201.0,0.188,46,112.84
992,E-2,201.0,0.188,46,112.84
993,F4,201.25,0.25,34,112.84
994,F3,201.5,0.188,37,112.84
995,G3,201.5,0.188,37,112.84
996,E-4,201.75,0.25,42,112.84
997,B3,202.0,0.25,45,112.84
998,B-2,202.0,0.188,40,112.84
999,E-2,202.0,0.188,40,112.84
1000,E-4,202.5,0.188,48,112.84
1001,F3,202.5,0.188,32,112.84
1002,G3,202.5,0.188,32,112.84
1003,B-3,203.0,0.188,80,112.84
1004,F#2,203.0,0.188,37,112.84
1005,C#3,203.0,0.188,37,112.84
1006,B-3,203.25,0.25,74,112.84
1007,C#3,203.5,0.188,30,112.84
1008,G#3,203.5,0.188,30,112.84
1009,F#3,203.5,0.188,30,112.84
1010,C4,203.75,0.25,74,112.84
1011,B-3,204.0,0.25,76,112.84
1012,F#2,204.0,0.188,37,112.84
1013,C#3,204.0,0.188,37,112.84
1014,E-4,204.438,0.25,68,112.84
1015,B-4,204.5,0.188,80,112.84
1016,C#3,204.5,0.188,31,112.84
1017,A3,204.5,0.188,31,112.84
1018,F#3,204.5,0.188,31,112.84
1019,B-3,205.0,2.0,80,112.84
1020,C#3,205.0,0.188,40,112.84
1021,F#2,205.0,0.188,40,112.84
1022,F#3,205.5,0.125,33,112.84
1023,B-3,205.5,0.125,33,112.84
1024,C#3,205.5,0.125,33,112.84
1025,C#3,206.0,0.188,42,112.84
1026,F#2,206.0,0.188,42,112.84
1027,F#3,206.5,0.125,37,112.84
1028,B3,206.5,0.125,37,112.84
1029,C#3,206.5,0.125,37,112.84
1030,B-3,207.0,0.25,64,112.84
1031,G#3,207.25,0.25,57,112.84
1032,E4,207.5,0.188,54,112.84
1033,C#4,207.5,0.188,54,112.84
1034,B-3,207.75,0.25,56,112.84
1035,C4,208.0,0.188,64,112.84
1036,C4,208.0,0.5,60,112.84
1037,E-4,208.0,0.5,60,112.84
1038,G#3,208.5,0.188,53,112.84
1039,E-4,208.5,0.125,52,112.84
1040,A3,208.5,0.125,52,112.84
1041,F3,208.5,0.125,52,112.84
1042,B-3,209.0,0.25,64,112.84
1043,F3,209.0,0.5,66,112.84
1044,B-3,209.0,0.5,66,112.84
1045,B-2,209.0,0.5,66,112.84
1046,G#3,209.25,0.25,57,112.84
1047,B-3,209.75,0.25,56,112.84
1048,B3,210.0,0.188,64,112.84
1049,B-1,210.0,0.5,66,112.84
1050,B-2,210.0,0.5,66,112.84
1051,G#3,210.5,0.188,53,112.84
1052,B-3,211.0,0.25,64,112.84
1053,G#3,211.0,0.188,40,112.84
1054,B-3,211.0,0.188,40,112.84
1055,G#3,211.25,0.25,59,112.84
1056,B-4,211.5,0.188,33,112.84
1057,G#4,211.5,0.188,33,112.84
1058,F3,211.75,0.188,59,112.84
1059,E-3,212.0,0.25,61,112.84
1060,G#3,212.0,0.188,40,112.84
1061,B-3,212.0,0.188,40,112.84
1062,D3,212.5,0.25,65,112.84
1063,B-4,212.5,0.188,35,112.84
1064,G#4,212.5,0.188,35,112.84
1065,C3,213.0,0.25,71,112.84
1066,G#3,213.0,0.188,40,112.84
1067,B-3,213.0,0.188,40,112.84
1068,G2,213.5,0.25,68,112.84
1069,B-4,213.5,0.188,33,112.84
1070,G#4,213.5,0.188,33,112.84
1071,C3,214.0,0.25,76,112.84
1072,G#3,214.0,0.188,40,112.84
1073,B-3,214.0,0.188,40,112.84
1074,D3,214.5,0.25,80,112.84
1075,B-4,214.5,0.188,35,112.84
1076,G#4,214.5,0.188,35,112.84
1077,B-4,215.0,0.25,80,112.84
1078,G3,215.0,0.188,40,112.84
1079,B-3,215.0,0.188,40,112.84
1080,G#4,215.25,0.25,74,112.84
1081,B-4,215.5,0.188,33,112.84
1082,E-4,215.5,0.25,45,112.84
1083,B3,215.5,0.25,45,112.84
1084,B-4,215.75,0.25,74,112.84
1085,F4,216.0,0.25,76,112.84
1086,G3,216.0,0.188,40,112.84
1087,B-3,216.0,0.188,40,112.84
1088,B-4,216.5,0.188,35,112.84
1089,B3,216.5,0.188,57,112.84
1090,E-4,216.5,0.188,57,112.84
1091,B-4,216.5,0.188,57,112.84
1092,G#4,217.0,0.25,80,112.84
1093,G3,217.0,0.25,40,112.84
1094,B-3,217.0,0.25,40,112.84
1095,F4,217.25,0.25,80,112.84
1096,B3,217.5,0.188,45,112.84
1097,B-4,217.5,0.188,33,112.84
1098,E-4,217.75,0.25,74,112.84
1099,B3,218.0,0.25,80,112.84
1100,G3,218.0,0.5,40,112.84
1101,B-3,218.0,0.5,40,112.84
1102,E-4,218.5,0.188,35,112.84
1103,E-4,218.5,0.125,76,112.84
1104,B3,218.5,0.125,76,112.84
1105,B-3,219.0,0.188,80,112.84
1106,B2,219.0,0.25,44,112.84
1107,B-3,219.25,0.25,74,112.84
1108,C#3,219.25,0.25,39,112.84
1109,C4,219.75,0.25,74,112.84
1110,E-3,219.75,0.25,39,112.84
1111,B-3,220.0,0.25,76,112.84
1112,C#3,220.0,0.25,44,112.84
1113,E-4,220.438,0.25,68,112.84
1114,B-4,220.5,0.188,80,112.84
1115,B2,220.5,0.188,37,112.84
1116,B-3,221.0,2.0,80,112.84
1117,B-2,221.0,0.25,44,112.84
1118,C3,221.25,0.25,39,112.84
1119,D3,221.75,0.25,39,112.84
1120,C3,222.0,0.25,44,112.84
1121,B-2,222.5,0.188,37,112.84
1122,B-3,223.0,0.188,55,112.84
1123,B-2,223.0,0.25,37,112.84
1124,B-3,223.25,0.25,49,112.84
1125,C3,223.25,0.25,33,112.84
1126,C4,223.75,0.25,53,112.84
1127,D3,223.75,0.25,33,112.84
1128,B-3,224.0,0.188,61,112.84
1129,C3,224.0,0.25,37,112.84
1130,C#4,224.5,0.188,53,112.84
1131,B-2,224.5,0.188,31,112.84
1132,E-4,225.0,0.188,64,112.84
1133,B-2,225.25,0.25,70,112.84
1134,B-1,225.25,0.25,70,112.84
1135,F4,225.5,0.188,61,112.84
1136,C2,225.5,0.25,70,112.84
1137,D2,225.75,0.25,73,112.84
1138,E-4,226.0,0.188,65,112.84
1139,C2,226.0,0.25,78,112.84
1140,F#4,226.5,0.188,71,112.84
1141,B-0,226.5,0.188,78,112.84
1142,B-1,226.5,0.188,78,112.84
1143,F4,227.0,0.188,80,112.84
1144,G#3,227.0,0.188,40,112.84
1145,B-3,227.0,0.188,40,112.84
1146,F4,227.25,0.25,74,112.84
1147,B-4,227.5,0.188,33,112.84
1148,G#4,227.5,0.188,33,112.84
1149,G4,227.75,0.25,74,112.84
1150,F4,228.0,0.438,76,112.84
1151,G#3,228.0,0.188,40,112.84
1152,B-3,228.0,0.188,40,112.84
1153,G4,228.438,0.25,68,112.84
1154,D5,228.5,0.188,80,112.84
1155,B-4,228.5,0.188,35,112.84
1156,G#4,228.5,0.188,35,112.84
1157,D4,229.0,1.0,78,112.84
1158,B-4,229.0,1.0,78,112.84
1159,G#3,229.0,0.188,40,112.84
1160,B-3,229.0,0.188,40,112.84
1161,B-4,229.5,0.188,33,112.84
1162,G#4,229.5,0.188,33,112.84
1163,B-6,230.0,0.5,98,112.84
1164,B-5,230.0,0.5,98,112.84
1165,G#3,230.0,0.188,40,112.84
1166,B-3,230.0,0.188,40,112.84
1167,B-4,230.5,0.188,35,112.84
1168,G#4,230.5,0.188,35,112.84
1169,E-4,231.0,0.25,59,112.84
1170,C4,231.0,0.25,59,112.84
1171,G3,231.0,0.188,40,112.84
1172,B-3,231.0,0.188,40,112.84
1173,D4,231.25,0.5,52,112.84
1174,F4,231.25,0.5,52,112.84
1175,G4,231.5,0.188,33,112.84
1176,B-4,231.5,0.188,33,112.84
1177,G4,231.75,0.25,52,112.84
1178,E-4,231.75,0.25,52,112.84
1179,D4,232.0,0.188,59,112.84
1180,F4,232.0,0.188,59,112.84
1181,G3,232.0,0.188,40,112.84
1182,B-3,232.0,0.188,40,112.84
1183,C4,232.5,0.188,49,112.84
1184,E-4,232.5,0.188,49,112.84
1185,G4,232.5,0.188,34,112.84
1186,B-4,232.5,0.188,34,112.84
1187,F4,233.0,2.0,49,112.84
1188,D4,233.0,2.0,49,112.84
1189,G3,233.0,0.25,40,112.84
1190,B-3,233.0,0.25,40,112.84
1191,G4,233.5,0.188,33,112.84
1192,B-4,233.5,0.188,33,112.84
1193,B-6,234.0,0.5,59,112.84
1194,B-5,234.0,0.5,59,112.84
1195,G3,234.0,0.5,40,112.84
1196,B-3,234.0,0.5,40,112.84
1197,E-4,234.5,0.188,35,112.84
1198,B-4,235.0,0.25,68,112.84
1199,C4,235.0,0.25,59,112.84
1200,E-4,235.0,0.25,59,112.84
1201,B3,235.0,2.0,51,112.84
1202,E-4,235.0,2.0,51,112.84
1203,G#4,235.25,0.25,62,112.84
1204,F4,235.25,0.5,52,112.84
1205,D4,235.25,0.5,52,112.84
1206,B-4,235.75,0.25,62,112.84
1207,G4,235.75,0.25,52,112.84
1208,E-4,235.75,0.25,52,112.84
1209,F4,236.0,0.25,64,112.84
1210,F4,236.0,0.188,59,112.84
1211,D4,236.0,0.188,59,112.84
1212,B-4,236.5,0.188,68,112.84
1213,C4,236.5,0.188,49,112.84
1214,E-4,236.5,0.188,49,112.84
1215,F4,237.0,0.25,49,112.84
1216,D4,237.0,0.25,49,112.84
1217,C4,237.5,0.5,53,112.84
1218,E-4,237.5,0.5,53,112.84
1219,G#4,238.0,0.25,68,112.84
1220,D4,238.0,0.5,53,112.84
1221,F4,238.0,0.5,53,112.84
1222,B3,238.0,1.0,51,112.84
1223,E-4,238.0,1.0,51,112.84
1224,F4,238.25,0.25,68,112.84
1225,B-4,238.5,0.25,53,112.84
1226,C5,238.5,0.25,53,112.84
1227,G4,238.5,0.25,53,112.84
1228,E-4,238.75,0.25,62,112.84
1229,B3,239.0,1.0,68,112.84
1230,A3,239.0,2.0,38,112.84
1231,C#4,239.0,2.0,38,112.84
1232,E4,239.0,2.0,38,112.84
1233,G#3,240.25,0.25,65,112.84
1234,F3,240.5,0.25,65,112.84
1235,E-3,240.75,0.25,67,112.84
1236,B2,241.0,0.25,71,112.84
1237,G#3,241.0,2.0,38,112.84
1238,C4,241.0,2.0,38,112.84
1239,F4,241.0,2.0,38,112.84
1240,B-2,241.5,0.5,72,112.84
1241,B-1,241.5,0.5,72,112.84
1242,G3,242.5,0.188,33,112.84
1243,F3,242.5,0.188,33,112.84
1244,F3,243.0,2.0,30,112.84
1245,G3,243.0,2.0,33,112.84
1246,B-3,243.0,2.0,33,112.84
1247,E-2,243.0,0.188,40,112.84
1248,B-2,243.0,0.188,40,112.84
1249,G3,243.5,0.188,33,112.84
1250,F3,243.5,0.188,33,112.84
1251,E-2,244.0,1.0,37,112.84
1252,B-2,244.0,1.0,37,112.84
1253,G3,246.5,0.188,27,112.84
1254,F3,246.5,0.188,27,112.84
1255,E-3,247.0,2.0,30,112.84
1256,G3,247.0,2.0,33,112.84
1257,B-3,247.0,2.0,33,112.84
1258,E-2,247.0,0.188,32,112.84
1259,B-2,247.0,0.188,32,112.84
1260,C3,247.5,0.25,69,112.84
1261,G3,247.5,0.188,24,112.84
1262,F3,247.5,0.188,24,112.84
1263,D3,247.75,0.25,73,112.84
1264,C3,248.0,0.25,76,112.84
1265,E-2,248.0,1.0,26,112.84
1266,B-2,248.0,1.0,26,112.84
1267,C4,249.0,0.25,59,112.84
1268,E-4,249.0,0.25,59,112.84
1269,D4,249.25,0.5,52,112.84
1270,F4,249.25,0.5,52,112.84
1271,G4,249.75,0.25,52,112.84
1272,E-4,249.75,0.25,52,112.84
1273,F4,250.0,0.188,59,112.84
1274,D4,250.0,0.188,59,112.84
1275,E-4,250.5,0.188,49,112.84
1276,C4,250.5,0.188,49,112.84
1277,G3,250.5,0.188,22,112.84
1278,F3,250.5,0.188,22,112.84
1279,D4,251.0,2.0,49,112.84
1280,F4,251.0,2.0,49,112.84
1281,E-2,251.0,0.188,27,112.84
1282,B-2,251.0,0.188,27,112.84
1283,G3,251.5,0.188,21,112.84
1284,F3,251.5,0.188,21,112.84
1285,B-6,252.0,0.5,59,112.84
1286,B-5,252.0,0.5,59,112.84
1287,B1,253.0,0.5,59,112.84
1288,C4,253.0,0.25,59,112.84
1289,E-4,253.0,0.25,59,112.84
1290,D4,253.25,0.5,52,112.84
1291,F4,253.25,0.5,52,112.84
1292,B-1,253.5,69/500,63,112.84
1293,G#1,253.625,69/500,65,112.84
1294,G1,253.75,69/500,67,112.84
1295,G4,253.75,0.25,52,112.84
1296,E-4,253.75,0.25,52,112.84
1297,F1,253.875,0.125,68,112.84
1298,F1,254.0,3/250,68,112.84
1299,F4,254.0,0.188,59,112.84
1300,D4,254.0,0.188,59,112.84
1301,E-1,254.0,0.5,66,112.84
1302,E-2,254.0,0.5,66,112.84
1303,E-4,254.5,0.188,49,112.84
1304,C4,254.5,0.188,49,112.84
1305,D4,255.0,0.25,49,112.84
1306,F4,255.0,0.25,49,112.84
1307,E-4,255.5,0.5,53,112.84
1308,C4,255.5,0.5,53,112.84
1309,F4,256.0,0.5,53,112.84
1310,D4,256.0,0.5,53,112.84
1311,E-1,256.0,0.5,68,112.84
1312,E-2,256.0,0.5,68,112.84
1313,B-4,256.5,0.25,53,112.84
1314,G4,256.5,0.25,53,112.84
1315,C5,256.5,0.25,53,112.84
1316,B-5,257.0,0.25,80,112.84
1317,B4,257.0,2.0,60,112.84
1318,E-5,257.0,2.0,60,112.84
1319,G#5,257.25,0.25,74,112.84
1320,B-5,257.75,0.25,74,112.84
1321,F5,258.0,0.25,76,112.84
1322,B-5,258.5,0.188,80,112.84
1323,G#5,260.0,0.25,80,112.84
1324,B4,260.0,1.0,60,112.84
1325,E-5,260.0,1.0,60,112.84
1326,F5,260.25,0.25,80,112.84
1327,E-5,260.75,0.25,74,112.84
1328,B4,261.0,1.0,80,112.84
1329,G#4,262.25,0.25,80,112.84
1330,F4,262.5,0.25,79,112.84
1331,E-4,262.75,0.25,84,112.84
1332,B3,263.0,0.25,86,112.84
1333,G3,263.5,0.5,90,112.84
1334,D3,263.5,0.5,90,112.84
1335,B-3,264.5,0.188,40,112.84
1336,E-3,264.5,0.188,40,112.84
1337,B-3,265.5,0.188,40,112.84
1338,E-3,265.5,0.188,40,112.84
1339,E-3,268.5,0.188,33,112.84
1340,B-3,268.5,0.188,33,112.84
1341,E-3,269.5,0.188,30,112.84
1342,B-3,269.5,0.188,30,112.84
1343,B-3,272.5,0.188,28,112.84
1344,E-3,272.5,0.188,28,112.84
1345,B-3,273.5,0.188,25,112.84
1346,E-3,273.5,0.188,25,112.84
1347,B2,275.0,0.5,70,112.84
1348,B-2,275.5,69/500,75,112.84
1349,G#2,275.625,69/500,77,112.84
1350,G2,275.75,69/500,79,112.84
1351,F2,275.875,0.125,81,112.84
1352,E-3,276.0,0.5,85,112.84
1353,F2,276.0,3/250,81,112.84
1354,E-3,278.0,0.5,89,112.84
