,note_name,start_time,duration,velocity,tempo
0,C2,0.0,0.125,28,122.84
1,C3,0.125,3.875,28,122.84
2,G3,0.25,0.25,25,122.84
3,C4,0.5,0.25,26,122.84
4,D4,0.75,0.25,24,122.84
5,E4,1.0,0.25,29,122.84
6,G3,1.25,0.25,27,122.84
7,C4,1.5,0.25,27,122.84
8,E4,1.75,0.25,26,122.84
9,D4,2.0,0.25,31,122.84
10,F3,2.25,0.25,29,122.84
11,C4,2.5,0.25,30,122.84
12,D4,2.75,0.25,27,122.84
13,F4,3.0,0.25,34,122.84
14,A3,3.25,0.25,31,122.84
15,B3,3.5,0.25,32,122.84
16,F4,3.75,0.25,30,122.84
17,E4,4.0,0.25,37,122.84
18,C3,4.0,4.0,28,122.84
19,G3,4.25,0.25,34,122.84
20,C4,4.5,0.25,34,122.84
21,E4,4.75,0.25,32,122.84
22,G4,5.0,0.25,37,122.84
23,B3,5.25,0.25,34,122.84
24,C4,5.5,0.25,34,122.84
25,G4,5.75,0.25,32,122.84
26,F4,6.0,0.25,38,122.84
27,A3,6.25,0.25,35,122.84
28,C4,6.5,0.25,35,122.84
29,F4,6.75,0.25,32,122.84
30,A4,7.0,0.25,38,122.84
31,B3,7.25,0.25,35,122.84
32,F4,7.5,0.25,35,122.84
33,A4,7.75,0.25,32,122.84
34,G4,8.0,0.25,42,122.84
35,C3,8.0,1.0,28,122.84
36,C4,8.25,0.25,36,122.84
37,E4,8.5,0.25,36,122.84
38,G4,8.75,0.25,30,122.84
39,C5,9.0,0.375,50,122.84
40,C4,9.0,3.0,35,122.84
41,E4,9.25,0.25,38,122.84
42,G4,9.5,0.25,38,122.84
43,C5,9.75,0.25,32,122.84
44,D5,10.0,0.375,53,122.84
45,B3,10.0,1.0,29,122.84
46,E4,10.25,0.25,42,122.84
47,G4,10.5,0.25,42,122.84
48,D5,10.75,0.25,35,122.84
49,C5,11.0,0.375,52,122.84
50,A3,11.0,1.0,29,122.84
51,E4,11.25,0.25,41,122.84
52,G4,11.5,0.25,41,122.84
53,C5,11.75,0.25,38,122.84
54,B4,12.0,0.375,47,122.84
55,B3,12.0,1.0,29,122.84
56,C4,12.0,1.0,35,122.84
57,E4,12.25,0.25,38,122.84
58,G4,12.5,0.25,38,122.84
59,B4,12.75,0.25,27,122.84
60,A4,13.0,0.375,47,122.84
61,C4,13.0,1.0,28,122.84
62,E4,13.25,0.25,35,122.84
63,G4,13.5,0.25,35,122.84
64,A4,13.75,0.25,27,122.84
65,G4,14.0,0.375,45,122.84
66,B3,14.0,1.0,28,122.84
67,C4,14.25,0.25,35,122.84
68,E4,14.5,0.25,35,122.84
69,G4,14.75,0.25,27,122.84
70,F4,15.0,0.375,46,122.84
71,A3,15.0,1.0,28,122.84
72,C4,15.25,0.25,35,122.84
73,E4,15.5,0.25,35,122.84
74,F4,15.75,0.25,27,122.84
75,E4,16.0,729/1000,41,122.84
76,G3,16.0,1.0,29,122.84
77,B3,16.25,0.25,32,122.84
78,C4,16.5,0.25,32,122.84
79,E4,16.75,0.25,27,122.84
80,D4,17.0,729/1000,35,122.84
81,F3,17.0,1.0,27,122.84
82,A3,17.25,0.25,32,122.84
83,C4,17.5,0.25,32,122.84
84,D4,17.75,0.25,27,122.84
85,G4,18.0,729/1000,41,122.84
86,E3,18.0,1.0,27,122.84
87,B3,18.25,0.25,32,122.84
88,E4,18.5,0.25,32,122.84
89,G4,18.75,0.25,33,122.84
90,A4,19.0,729/1000,47,122.84
91,A3,19.0,1.0,27,122.84
92,C4,19.25,0.25,37,122.84
93,E4,19.5,0.25,32,122.84
94,A4,19.75,0.25,27,122.84
95,E4,20.0,729/1000,40,122.84
96,G3,20.0,1.0,29,122.84
97,A3,20.25,0.25,32,122.84
98,C4,20.5,0.25,32,122.84
99,E4,20.75,0.25,27,122.84
100,D4,21.0,729/1000,39,122.84
101,F3,21.0,1.0,27,122.84
102,A3,21.25,0.25,32,122.84
103,C4,21.5,0.25,32,122.84
104,D4,21.75,0.25,27,122.84
105,C4,22.0,729/1000,35,122.84
106,E3,22.0,1.0,27,122.84
107,G3,22.25,0.25,32,122.84
108,A3,22.5,0.25,32,122.84
109,C4,22.75,0.25,27,122.84
110,B3,23.0,729/1000,35,122.84
111,D3,23.0,1.0,27,122.84
112,F3,23.25,0.25,32,122.84
113,G3,23.5,0.25,32,122.84
114,B3,23.75,0.25,27,122.84
115,F2,24.0,4.0,21,122.84
116,C3,24.25,0.25,20,122.84
117,D3,24.5,0.25,21,122.84
118,E3,24.75,0.25,23,122.84
119,F3,25.0,0.25,28,122.84
120,A3,25.25,0.25,31,122.84
121,C4,25.5,0.25,34,122.84
122,D4,25.75,0.25,36,122.84
123,E4,26.0,0.25,41,122.84
124,D4,26.25,0.25,41,122.84
125,C4,26.5,0.25,38,122.84
126,A3,26.75,0.25,35,122.84
127,F3,27.0,0.25,32,122.84
128,E3,27.25,0.25,30,122.84
129,D3,27.5,0.25,26,122.84
130,C3,27.75,0.25,24,122.84
131,F2,28.0,4.0,21,122.84
132,C3,28.25,0.25,21,122.84
133,D3,28.5,0.25,22,122.84
134,E3,28.75,0.25,25,122.84
135,F3,29.0,0.25,30,122.84
136,A3,29.25,0.25,34,122.84
137,C4,29.5,0.25,38,122.84
138,D4,29.75,0.25,42,122.84
139,E4,30.0,0.25,48,122.84
140,D4,30.25,0.25,41,122.84
141,C4,30.5,0.25,38,122.84
142,B3,30.75,0.25,35,122.84
143,A3,31.0,0.25,32,122.84
144,E3,31.25,0.25,30,122.84
145,D3,31.5,0.25,26,122.84
146,C3,31.75,0.25,24,122.84
147,F2,32.0,4.0,21,122.84
148,C3,32.25,0.25,21,122.84
149,D3,32.5,0.25,22,122.84
150,E3,32.75,0.25,25,122.84
151,F3,33.0,0.25,30,122.84
152,G#3,33.25,0.25,34,122.84
153,C4,33.5,0.25,39,122.84
154,D4,33.75,0.25,42,122.84
155,E4,34.0,0.25,48,122.84
156,D4,34.25,0.25,42,122.84
157,C4,34.5,0.25,40,122.84
158,G#3,34.75,0.25,36,122.84
159,F3,35.0,0.25,33,122.84
160,E3,35.25,0.25,30,122.84
161,D3,35.5,0.25,26,122.84
162,C3,35.75,0.25,24,122.84
163,F2,36.0,4.0,21,122.84
164,C3,36.25,0.25,21,122.84
165,D3,36.5,0.25,22,122.84
166,E3,36.75,0.25,25,122.84
167,F3,37.0,0.25,31,122.84
168,G#3,37.25,0.25,35,122.84
169,C4,37.5,0.25,39,122.84
170,D4,37.75,0.25,42,122.84
171,E4,38.0,0.25,48,122.84
172,D4,38.25,0.25,41,122.84
173,C4,38.5,0.25,40,122.84
174,B-3,38.75,0.25,35,122.84
175,G#3,39.0,0.25,33,122.84
176,E3,39.25,0.25,30,122.84
177,D3,39.5,0.25,26,122.84
178,C3,39.75,0.25,24,122.84
179,E2,40.0,0.25,28,122.84
180,B2,40.25,0.25,23,122.84
181,E3,40.5,0.25,26,122.84
182,G#3,40.75,0.25,26,122.84
183,B2,41.0,0.25,35,122.84
184,E3,41.25,0.25,30,122.84
185,G#3,41.5,0.25,31,122.84
186,B3,41.75,0.25,32,122.84
187,E3,42.0,0.25,42,122.84
188,G#3,42.25,0.25,39,122.84
189,B3,42.5,0.25,43,122.84
190,E4,42.75,0.25,43,122.84
191,G#3,43.0,0.25,49,122.84
192,B3,43.25,0.25,40,122.84
193,E4,43.5,0.25,47,122.84
194,G#4,43.75,0.25,47,122.84
195,E4,44.0,4.0,61,122.84
196,E4,48.0,0.188,32,122.84
197,A4,48.25,0.25,32,122.84
198,F4,48.5,0.25,32,122.84
199,D4,48.75,0.25,27,122.84
200,E4,49.0,0.188,34,122.84
201,F4,49.25,0.25,32,122.84
202,D4,49.5,0.25,32,122.84
203,B3,49.75,0.25,27,122.84
204,E4,50.0,0.188,34,122.84
205,A4,50.25,0.25,32,122.84
206,F4,50.5,0.25,32,122.84
207,D4,50.75,0.25,27,122.84
208,E4,51.0,0.188,31,122.84
209,F4,51.25,0.25,34,122.84
210,D4,51.5,0.25,38,122.84
211,B3,51.75,0.25,38,122.84
212,G4,52.0,0.188,53,122.84
213,C5,52.25,0.25,44,122.84
214,A4,52.5,0.25,35,122.84
215,F4,52.75,0.25,30,122.84
216,E4,53.0,0.188,37,122.84
217,A4,53.25,0.25,38,122.84
218,F4,53.5,0.25,32,122.84
219,D4,53.75,0.25,27,122.84
220,C4,54.0,0.188,33,122.84
221,F4,54.25,0.25,31,122.84
222,D4,54.5,0.25,32,122.84
223,B3,54.75,0.25,27,122.84
224,A3,55.0,0.188,30,122.84
225,D4,55.25,0.25,30,122.84
226,B3,55.5,0.25,32,122.84
227,G3,55.75,0.25,25,122.84
228,E4,56.0,0.188,32,122.84
229,A4,56.25,0.25,32,122.84
230,F4,56.5,0.25,32,122.84
231,D4,56.75,0.25,27,122.84
232,E4,57.0,0.188,34,122.84
233,F4,57.25,0.25,32,122.84
234,D4,57.5,0.25,32,122.84
235,B3,57.75,0.25,27,122.84
236,E4,58.0,0.188,34,122.84
237,A4,58.25,0.25,32,122.84
238,F4,58.5,0.25,32,122.84
239,D4,58.75,0.25,27,122.84
240,E4,59.0,0.188,31,122.84
241,F4,59.25,0.25,33,122.84
242,D4,59.5,0.25,37,122.84
243,B3,59.75,0.25,38,122.84
244,G4,60.0,0.188,48,122.84
245,C5,60.25,0.25,43,122.84
246,A4,60.5,0.25,40,122.84
247,F4,60.75,0.25,30,122.84
248,E4,61.0,0.188,37,122.84
249,A4,61.25,0.25,40,122.84
250,F4,61.5,0.25,32,122.84
251,D4,61.75,0.25,27,122.84
252,C4,62.0,0.188,33,122.84
253,F4,62.25,0.25,31,122.84
254,D4,62.5,0.25,32,122.84
255,B3,62.75,0.25,27,122.84
256,A3,63.0,0.188,30,122.84
257,D4,63.25,0.25,30,122.84
258,B3,63.5,0.25,32,122.84
259,G3,63.75,0.25,25,122.84
260,F3,64.0,0.188,32,122.84
261,B3,64.25,0.25,32,122.84
262,G#3,64.5,0.25,32,122.84
263,E3,64.75,0.25,27,122.84
264,G3,65.0,0.188,46,122.84
265,C#4,65.25,0.25,38,122.84
266,B-3,65.5,0.25,32,122.84
267,F#3,65.75,0.25,27,122.84
268,F3,66.0,0.188,32,122.84
269,B3,66.25,0.25,32,122.84
270,G#3,66.5,0.25,32,122.84
271,E3,66.75,0.25,27,122.84
272,G3,67.0,0.188,46,122.84
273,C#4,67.25,0.25,39,122.84
274,B-3,67.5,0.25,32,122.84
275,F#3,67.75,0.25,27,122.84
276,F3,68.0,0.188,32,122.84
277,B3,68.25,0.25,32,122.84
278,G#3,68.5,0.25,32,122.84
279,E3,68.75,0.25,27,122.84
280,F3,69.0,0.188,34,122.84
281,B3,69.25,0.25,32,122.84
282,G#3,69.5,0.25,32,122.84
283,E3,69.75,0.25,27,122.84
284,F3,70.0,0.188,32,122.84
285,B3,70.25,0.25,32,122.84
286,G#3,70.5,0.25,32,122.84
287,E3,70.75,0.25,27,122.84
288,F3,71.0,0.188,34,122.84
289,B3,71.25,0.25,30,122.84
290,G#3,71.5,0.25,32,122.84
291,E3,71.75,0.25,27,122.84
292,E3,72.0,0.188,32,122.84
293,A3,72.25,0.25,32,122.84
294,F3,72.5,0.25,32,122.84
295,D3,72.75,0.25,27,122.84
296,G3,73.0,0.188,46,122.84
297,C4,73.25,0.25,39,122.84
298,G#3,73.5,0.25,32,122.84
299,F3,73.75,0.25,27,122.84
300,E3,74.0,0.188,32,122.84
301,A3,74.25,0.25,32,122.84
302,F3,74.5,0.25,32,122.84
303,D3,74.75,0.25,27,122.84
304,G3,75.0,0.188,46,122.84
305,C4,75.25,0.25,38,122.84
306,G#3,75.5,0.25,32,122.84
307,F3,75.75,0.25,27,122.84
308,E3,76.0,0.188,32,122.84
309,A3,76.25,0.25,32,122.84
310,F3,76.5,0.25,32,122.84
311,D3,76.75,0.25,27,122.84
312,E3,77.0,0.188,34,122.84
313,A3,77.25,0.25,32,122.84
314,F3,77.5,0.25,32,122.84
315,D3,77.75,0.25,27,122.84
316,E3,78.0,0.188,32,122.84
317,A3,78.25,0.25,32,122.84
318,F3,78.5,0.25,32,122.84
319,D3,78.75,0.25,27,122.84
320,E3,79.0,0.188,34,122.84
321,A3,79.25,0.25,30,122.84
322,F3,79.5,0.25,32,122.84
323,D3,79.75,0.25,27,122.84
324,E3,80.0,0.188,28,122.84
325,B3,80.25,0.25,28,122.84
326,G#3,80.5,0.25,28,122.84
327,D3,80.75,0.25,23,122.84
328,E3,81.0,0.188,28,122.84
329,B3,81.25,0.25,26,122.84
330,G#3,81.5,0.25,26,122.84
331,D3,81.75,0.25,22,122.84
332,E3,82.0,0.188,25,122.84
333,B3,82.25,0.25,25,122.84
334,G#3,82.5,0.25,24,122.84
335,D3,82.75,0.25,20,122.84
336,E3,83.0,0.188,25,122.84
337,B3,83.25,0.25,22,122.84
338,G#3,83.5,0.25,23,122.84
339,D3,83.75,0.25,19,122.84
340,C2,84.0,0.125,23,122.84
341,C3,84.125,3.875,30,122.84
342,G3,84.25,0.25,24,122.84
343,C4,84.5,0.25,24,122.84
344,D4,84.75,0.25,21,122.84
345,E4,85.0,0.25,28,122.84
346,G3,85.25,0.25,24,122.84
347,C4,85.5,0.25,24,122.84
348,E4,85.75,0.25,24,122.84
349,D4,86.0,0.25,31,122.84
350,F3,86.25,0.25,29,122.84
351,C4,86.5,0.25,30,122.84
352,D4,86.75,0.25,27,122.84
353,F4,87.0,0.25,34,122.84
354,A3,87.25,0.25,31,122.84
355,B3,87.5,0.25,32,122.84
356,F4,87.75,0.25,30,122.84
357,E4,88.0,0.25,37,122.84
358,C3,88.0,1.0,30,122.84
359,G3,88.25,0.25,34,122.84
360,C4,88.5,0.25,34,122.84
361,E4,88.75,0.25,32,122.84
362,G4,89.0,0.25,37,122.84
363,A2,89.0,1.0,30,122.84
364,B3,89.25,0.25,34,122.84
365,C4,89.5,0.25,34,122.84
366,G4,89.75,0.25,32,122.84
367,F#4,90.0,0.25,38,122.84
368,D3,90.0,1.0,30,122.84
369,A3,90.25,0.25,35,122.84
370,D4,90.5,0.25,35,122.84
371,F#4,90.75,0.25,32,122.84
372,A4,91.0,0.25,38,122.84
373,B2,91.0,1.0,30,122.84
374,C4,91.25,0.25,35,122.84
375,F#4,91.5,0.25,35,122.84
376,A4,91.75,0.25,32,122.84
377,G4,92.0,0.25,39,122.84
378,E3,92.0,4.0,43,122.84
379,D4,92.25,0.25,37,122.84
380,G4,92.5,0.25,40,122.84
381,B4,92.75,0.25,42,122.84
382,E5,93.0,0.5,62,122.84
383,B4,93.25,0.25,38,122.84
384,G4,93.5,0.25,38,122.84
385,D4,93.75,0.25,32,122.84
386,C#4,94.0,0.188,50,122.84
387,E4,94.25,0.25,36,122.84
388,G4,94.5,0.25,39,122.84
389,A4,94.75,0.25,36,122.84
390,F#5,95.0,0.5,62,122.84
391,A4,95.25,0.25,40,122.84
392,G4,95.5,0.25,37,122.84
393,E4,95.75,0.25,35,122.84
394,E3,96.0,2.0,43,122.84
395,D4,96.25,0.25,37,122.84
396,G4,96.5,0.25,40,122.84
397,B4,96.75,0.25,42,122.84
398,E5,97.0,0.5,63,122.84
399,B4,97.25,0.25,38,122.84
400,G4,97.5,0.25,38,122.84
401,D4,97.75,0.25,32,122.84
402,C#4,98.0,0.188,50,122.84
403,E4,98.25,0.25,36,122.84
404,G4,98.5,0.25,39,122.84
405,B-4,98.75,0.25,36,122.84
406,F#5,99.0,0.5,61,122.84
407,B-4,99.25,0.25,40,122.84
408,G4,99.5,0.25,37,122.84
409,E4,99.75,0.25,35,122.84
410,B3,100.0,2.0,43,122.84
411,E4,100.25,0.25,37,122.84
412,G4,100.5,0.25,40,122.84
413,D5,100.75,0.25,42,122.84
414,F#5,101.0,1.0,63,122.84
415,D5,101.25,0.25,38,122.84
416,G4,101.5,0.25,38,122.84
417,E4,101.75,0.25,32,122.84
418,B-3,102.0,2.0,50,122.84
419,E4,102.25,0.25,36,122.84
420,G4,102.5,0.25,39,122.84
421,C#5,102.75,0.25,36,122.84
422,F#5,103.0,1.0,63,122.84
423,C#5,103.25,0.25,40,122.84
424,G4,103.5,0.25,37,122.84
425,E4,103.75,0.25,35,122.84
426,A3,104.0,4.0,43,122.84
427,E4,104.25,0.25,37,122.84
428,G4,104.5,0.25,40,122.84
429,C5,104.75,0.25,42,122.84
430,G5,105.0,0.75,63,122.84
431,C5,105.25,0.25,38,122.84
432,G4,105.5,0.25,38,122.84
433,E4,105.75,0.25,32,122.84
434,F#5,106.0,0.75,63,122.84
435,C5,106.25,0.25,38,122.84
436,G4,106.5,0.25,38,122.84
437,E4,106.75,0.25,32,122.84
438,E5,107.0,0.75,63,122.84
439,C5,107.25,0.25,38,122.84
440,G4,107.5,0.25,38,122.84
441,E4,107.75,0.25,32,122.84
442,B-3,108.0,4.0,43,122.84
443,E4,108.25,0.25,41,122.84
444,G4,108.5,0.25,41,122.84
445,C5,108.75,0.25,45,122.84
446,D5,109.0,0.5,58,122.84
447,C5,109.25,0.25,46,122.84
448,G4,109.5,0.25,54,122.84
449,E5,109.5,0.5,54,122.84
450,E4,109.75,0.25,47,122.84
451,F#5,110.0,2.0,63,122.84
452,C5,110.25,0.25,51,122.84
453,G4,110.5,0.25,41,122.84
454,E4,110.75,0.5,32,122.84
455,C5,111.25,0.25,41,122.84
456,G4,111.5,0.25,41,122.84
457,E4,111.75,0.25,34,122.84
458,B3,112.0,4.0,49,122.84
459,E4,112.25,0.25,41,122.84
460,G4,112.5,0.25,41,122.84
461,B4,112.75,0.25,45,122.84
462,D5,113.0,0.5,58,122.84
463,B4,113.25,0.25,46,122.84
464,G4,113.5,0.25,55,122.84
465,E5,113.5,0.5,55,122.84
466,E4,113.75,0.25,47,122.84
467,F#5,114.0,2.0,63,122.84
468,B4,114.25,0.25,51,122.84
469,G4,114.5,0.25,41,122.84
470,E4,114.75,0.5,32,122.84
471,B4,115.25,0.25,41,122.84
472,G4,115.5,0.25,41,122.84
473,E4,115.75,0.25,34,122.84
474,C4,116.0,4.0,58,122.84
475,E4,116.25,0.25,37,122.84
476,G4,116.5,0.25,40,122.84
477,B-4,116.75,0.25,42,122.84
478,D5,117.0,0.75,55,122.84
479,B-4,117.25,0.25,38,122.84
480,G4,117.5,0.25,38,122.84
481,E4,117.75,0.25,32,122.84
482,E5,118.0,0.75,57,122.84
483,B-4,118.25,0.25,37,122.84
484,G4,118.5,0.25,35,122.84
485,E4,118.75,0.25,32,122.84
486,C5,119.0,0.75,53,122.84
487,B-4,119.25,0.25,38,122.84
488,G4,119.5,0.25,38,122.84
489,E4,119.75,0.25,32,122.84
490,D5,120.0,0.25,41,122.84
491,B-4,120.25,0.25,41,122.84
492,A4,120.5,0.25,40,122.84
493,G4,120.75,0.25,40,122.84
494,F4,121.0,0.25,39,122.84
495,E4,121.25,0.25,39,122.84
496,D4,121.5,0.25,39,122.84
497,C4,121.75,0.25,38,122.84
498,D4,122.0,0.25,38,122.84
499,B-3,122.25,0.25,37,122.84
500,A3,122.5,0.25,35,122.84
501,G3,122.75,0.25,31,122.84
502,F3,123.0,0.25,37,122.84
503,E3,123.25,0.25,34,122.84
504,D3,123.5,0.25,34,122.84
505,C3,123.75,0.25,34,122.84
506,B-2,124.0,0.25,33,122.84
507,A2,124.25,0.25,33,122.84
508,G2,124.5,0.25,33,122.84
509,F2,124.75,0.25,33,122.84
510,D4,125.0,1.0,38,122.84
511,E2,125.0,1.0,31,122.84
512,B-3,125.25,0.25,30,122.84
513,G3,125.5,0.25,30,122.84
514,B-3,125.75,0.25,30,122.84
515,E4,126.0,1.0,38,122.84
516,D2,126.0,1.0,35,122.84
517,B-3,126.25,0.25,31,122.84
518,G3,126.5,0.25,31,122.84
519,B-3,126.75,0.25,31,122.84
520,C4,127.0,1.0,39,122.84
521,C2,127.0,1.0,29,122.84
522,B-3,127.25,0.25,32,122.84
523,G3,127.5,0.25,32,122.84
524,B-3,127.75,0.25,32,122.84
525,B-1,128.0,4.0,26,122.84
526,F3,128.5,0.5,25,122.84
527,B-3,129.0,0.5,25,122.84
528,C4,129.5,0.5,29,122.84
529,D4,130.0,1.0,32,122.84
530,F4,130.5,0.5,25,122.84
531,B-4,131.0,0.5,29,122.84
532,C5,131.5,0.5,32,122.84
533,D5,132.0,1.0,37,122.84
534,B-1,132.0,4.0,26,122.84
535,F3,132.5,0.5,25,122.84
536,B-3,133.0,0.5,25,122.84
537,D4,133.5,0.5,29,122.84
538,C4,134.0,0.5,33,122.84
539,F#3,134.5,1.5,32,122.84
540,B-3,135.0,1.0,32,122.84
541,C4,135.5,0.5,31,122.84
542,E-4,136.0,4.0,33,122.84
543,F#3,136.0,4.0,32,122.84
544,B-3,136.0,4.0,32,122.84
545,C4,136.0,4.0,31,122.84
546,B-1,136.0,2.0,26,122.84
547,E-2,138.0,1.0,23,122.84
548,B-1,139.0,1.0,26,122.84
549,E-4,140.0,4.0,33,122.84
550,F#3,140.0,4.0,32,122.84
551,B-3,140.0,4.0,32,122.84
552,C4,140.0,4.0,31,122.84
553,B-1,140.0,1.0,26,122.84
554,E-2,141.0,2.0,22,122.84
555,B-1,143.0,1.0,23,122.84
556,G#1,144.029,3971/1000,26,122.84
557,E-3,144.5,0.5,22,122.84
558,G#3,145.0,0.5,22,122.84
559,B-3,145.5,0.5,26,122.84
560,C4,146.0,0.5,33,122.84
561,E-3,146.5,0.5,28,122.84
562,G#3,147.0,0.5,28,122.84
563,C4,147.5,0.5,28,122.84
564,B-3,148.0,0.5,31,122.84
565,G#1,148.0,4.0,26,122.84
566,E-3,148.5,0.5,28,122.84
567,F#3,149.0,0.5,28,122.84
568,B-4,149.0,2.0,41,122.84
569,F#4,149.0,2.0,41,122.84
570,B-3,149.5,0.5,28,122.84
571,C#4,150.0,0.5,33,122.84
572,E-3,150.5,0.5,28,122.84
573,F#3,151.0,0.5,28,122.84
574,G#4,151.0,1.0,35,122.84
575,F4,151.0,1.0,35,122.84
576,C#4,151.5,0.5,28,122.84
577,G#1,152.0,29/1000,26,122.84
578,G#1,152.029,3971/1000,26,122.84
579,E-3,152.5,0.5,22,122.84
580,G#3,153.0,0.5,22,122.84
581,B-3,153.5,0.5,26,122.84
582,C4,154.0,0.5,33,122.84
583,E-4,154.0,2.0,41,122.84
584,F#4,154.0,2.0,41,122.84
585,E-3,154.5,0.5,28,122.84
586,G#3,155.0,0.5,28,122.84
587,C4,155.5,0.5,28,122.84
588,B-3,156.0,0.5,31,122.84
589,G#1,156.0,4.0,26,122.84
590,E-3,156.5,0.5,28,122.84
591,F#3,157.0,0.5,28,122.84
592,B-4,157.0,2.0,41,122.84
593,F#4,157.0,2.0,41,122.84
594,B-3,157.5,0.5,28,122.84
595,C#4,158.0,0.5,33,122.84
596,E-3,158.5,0.5,28,122.84
597,F#3,159.0,0.5,28,122.84
598,G#4,159.0,1.0,35,122.84
599,F4,159.0,1.0,35,122.84
600,C#4,159.5,0.5,28,122.84
601,G#1,160.0,29/1000,26,122.84
602,G#1,160.029,3971/1000,26,122.84
603,F#3,160.5,0.5,22,122.84
604,C4,161.0,0.5,22,122.84
605,C#4,161.5,0.5,26,122.84
606,E-4,162.0,0.5,33,122.84
607,F#3,162.5,0.5,29,122.84
608,C4,163.0,0.5,29,122.84
609,E-4,163.5,0.5,29,122.84
610,C#4,164.0,0.5,41,122.84
611,G#1,164.0,4.0,26,122.84
612,F#3,164.5,0.5,34,122.84
613,B-3,165.0,0.5,34,122.84
614,C#4,165.5,0.5,41,122.84
615,F4,166.0,0.5,31,122.84
616,F#3,166.5,0.5,37,122.84
617,B-3,167.0,0.5,43,122.84
618,F4,167.5,0.5,49,122.84
619,F4,168.0,0.5,49,122.84
620,G#4,168.0,4.0,60,122.84
621,G#1,168.0,4.0,26,122.84
622,F#3,168.5,0.5,29,122.84
623,C4,169.0,0.5,29,122.84
624,C#4,169.5,0.5,29,122.84
625,E-4,170.0,0.5,35,122.84
626,F#3,170.5,0.5,27,122.84
627,C4,171.0,0.5,27,122.84
628,E-4,171.5,0.5,26,122.84
629,C#4,172.0,0.5,30,122.84
630,E-3,172.0,2.0,27,122.84
631,G#1,172.0,4.0,26,122.84
632,F#3,172.5,0.5,25,122.84
633,B-3,173.0,0.5,24,122.84
634,C#4,173.5,0.5,24,122.84
635,F4,174.0,0.5,30,122.84
636,G#2,174.0,2.0,26,122.84
637,F#3,174.5,0.5,23,122.84
638,B-3,175.0,0.5,23,122.84
639,F4,175.5,0.5,22,122.84
640,G1,176.0,4.0,24,122.84
641,G2,176.0,4.0,28,122.84
642,G#1,176.0,29/1000,26,122.84
643,G3,176.25,0.25,25,122.84
644,C4,176.5,0.25,26,122.84
645,D4,176.75,0.25,24,122.84
646,E4,177.0,0.25,29,122.84
647,G3,177.25,0.25,27,122.84
648,C4,177.5,0.25,27,122.84
649,E4,177.75,0.25,26,122.84
650,D4,178.0,0.25,31,122.84
651,F3,178.25,0.25,29,122.84
652,C4,178.5,0.25,30,122.84
653,D4,178.75,0.25,27,122.84
654,F4,179.0,0.25,34,122.84
655,A3,179.25,0.25,31,122.84
656,B3,179.5,0.25,32,122.84
657,F4,179.75,0.25,30,122.84
658,E4,180.0,0.25,37,122.84
659,G1,180.0,4.0,24,122.84
660,G2,180.0,4.0,28,122.84
661,G3,180.25,0.25,34,122.84
662,C4,180.5,0.25,34,122.84
663,E4,180.75,0.25,32,122.84
664,G4,181.0,0.25,37,122.84
665,B3,181.25,0.25,34,122.84
666,C4,181.5,0.25,34,122.84
667,G4,181.75,0.25,32,122.84
668,F4,182.0,0.25,38,122.84
669,A3,182.25,0.25,35,122.84
670,C4,182.5,0.25,35,122.84
671,F4,182.75,0.25,32,122.84
672,A4,183.0,0.25,38,122.84
673,B3,183.25,0.25,35,122.84
674,F4,183.5,0.25,35,122.84
675,A4,183.75,0.25,32,122.84
676,G4,184.0,0.25,42,122.84
677,C2,184.0,1.0,28,122.84
678,G2,184.0,1.0,28,122.84
679,C4,184.25,0.25,36,122.84
680,E4,184.5,0.25,36,122.84
681,G4,184.75,0.25,30,122.84
682,C5,185.0,0.375,50,122.84
683,C4,185.0,3.0,35,122.84
684,E4,185.25,0.25,38,122.84
685,G4,185.5,0.25,38,122.84
686,C5,185.75,0.25,32,122.84
687,D5,186.0,0.375,53,122.84
688,B3,186.0,1.0,29,122.84
689,E4,186.25,0.25,42,122.84
690,G4,186.5,0.25,42,122.84
691,D5,186.75,0.25,35,122.84
692,C5,187.0,0.375,52,122.84
693,A3,187.0,1.0,29,122.84
694,E4,187.25,0.25,41,122.84
695,G4,187.5,0.25,41,122.84
696,C5,187.75,0.25,38,122.84
697,B4,188.0,0.375,47,122.84
698,B3,188.0,1.0,29,122.84
699,C4,188.0,1.0,35,122.84
700,E4,188.25,0.25,38,122.84
701,G4,188.5,0.25,38,122.84
702,B4,188.75,0.25,27,122.84
703,A4,189.0,0.375,47,122.84
704,C4,189.0,1.0,28,122.84
705,E4,189.25,0.25,35,122.84
706,G4,189.5,0.25,35,122.84
707,A4,189.75,0.25,27,122.84
708,G4,190.0,0.375,45,122.84
709,B3,190.0,1.0,28,122.84
710,C4,190.25,0.25,35,122.84
711,E4,190.5,0.25,35,122.84
712,G4,190.75,0.25,27,122.84
713,F4,191.0,0.375,46,122.84
714,A3,191.0,1.0,28,122.84
715,C4,191.25,0.25,35,122.84
716,E4,191.5,0.25,35,122.84
717,F4,191.75,0.25,27,122.84
718,E4,192.0,729/1000,41,122.84
719,G3,192.0,1.0,29,122.84
720,A3,192.25,0.25,32,122.84
721,C4,192.5,0.25,32,122.84
722,E4,192.75,0.25,27,122.84
723,D4,193.0,729/1000,35,122.84
724,F3,193.0,1.0,27,122.84
725,A3,193.25,0.25,32,122.84
726,C4,193.5,0.25,32,122.84
727,D4,193.75,0.25,27,122.84
728,G4,194.0,729/1000,41,122.84
729,E3,194.0,1.0,27,122.84
730,B3,194.25,0.25,32,122.84
731,E4,194.5,0.25,32,122.84
732,G4,194.75,0.25,33,122.84
733,A4,195.0,729/1000,47,122.84
734,A3,195.0,1.0,27,122.84
735,C4,195.25,0.25,37,122.84
736,E4,195.5,0.25,32,122.84
737,A4,195.75,0.25,27,122.84
738,E4,196.0,729/1000,40,122.84
739,G3,196.0,1.0,29,122.84
740,A3,196.25,0.25,32,122.84
741,C4,196.5,0.25,32,122.84
742,E4,196.75,0.25,27,122.84
743,D4,197.0,729/1000,39,122.84
744,F3,197.0,1.0,27,122.84
745,A3,197.25,0.25,32,122.84
746,C4,197.5,0.25,32,122.84
747,D4,197.75,0.25,27,122.84
748,C4,198.0,729/1000,35,122.84
749,E3,198.0,1.0,27,122.84
750,G3,198.25,0.25,32,122.84
751,A3,198.5,0.25,32,122.84
752,C4,198.75,0.25,27,122.84
753,B3,199.0,729/1000,35,122.84
754,D3,199.0,1.0,27,122.84
755,F3,199.25,0.25,32,122.84
756,G3,199.5,0.25,32,122.84
757,B3,199.75,0.25,27,122.84
758,F2,200.0,4.0,21,122.84
759,C3,200.25,0.25,20,122.84
760,D3,200.5,0.25,21,122.84
761,E3,200.75,0.25,23,122.84
762,F3,201.0,0.25,28,122.84
763,A3,201.25,0.25,31,122.84
764,C4,201.5,0.25,34,122.84
765,D4,201.75,0.25,36,122.84
766,E4,202.0,0.25,41,122.84
767,D4,202.25,0.25,41,122.84
768,C4,202.5,0.25,38,122.84
769,A3,202.75,0.25,35,122.84
770,F3,203.0,0.25,32,122.84
771,E3,203.25,0.25,30,122.84
772,D3,203.5,0.25,26,122.84
773,C3,203.75,0.25,24,122.84
774,F2,204.0,4.0,21,122.84
775,C3,204.25,0.25,21,122.84
776,D3,204.5,0.25,22,122.84
777,E3,204.75,0.25,25,122.84
778,F3,205.0,0.25,30,122.84
779,A3,205.25,0.25,34,122.84
780,C4,205.5,0.25,38,122.84
781,D4,205.75,0.25,42,122.84
782,E4,206.0,0.25,48,122.84
783,D4,206.25,0.25,41,122.84
784,C4,206.5,0.25,38,122.84
785,B3,206.75,0.25,35,122.84
786,A3,207.0,0.25,32,122.84
787,E3,207.25,0.25,30,122.84
788,D3,207.5,0.25,26,122.84
789,C3,207.75,0.25,24,122.84
790,F2,208.0,4.0,21,122.84
791,C3,208.25,0.25,21,122.84
792,D3,208.5,0.25,22,122.84
793,E3,208.75,0.25,25,122.84
794,F3,209.0,0.25,30,122.84
795,G#3,209.25,0.25,34,122.84
796,C4,209.5,0.25,39,122.84
797,D4,209.75,0.25,42,122.84
798,E4,210.0,0.25,48,122.84
799,D4,210.25,0.25,42,122.84
800,C4,210.5,0.25,40,122.84
801,G#3,210.75,0.25,36,122.84
802,F3,211.0,0.25,33,122.84
803,E3,211.25,0.25,30,122.84
804,D3,211.5,0.25,26,122.84
805,C3,211.75,0.25,24,122.84
806,F2,212.0,4.0,21,122.84
807,C3,212.25,0.25,21,122.84
808,D3,212.5,0.25,22,122.84
809,E3,212.75,0.25,25,122.84
810,F3,213.0,0.25,31,122.84
811,G#3,213.25,0.25,35,122.84
812,C4,213.5,0.25,39,122.84
813,D4,213.75,0.25,42,122.84
814,E4,214.0,0.25,48,122.84
815,D4,214.25,0.25,41,122.84
816,C4,214.5,0.25,40,122.84
817,B-3,214.75,0.25,35,122.84
818,G#3,215.0,0.25,33,122.84
819,E3,215.25,0.25,30,122.84
820,D3,215.5,0.25,26,122.84
821,C3,215.75,0.25,24,122.84
822,E2,216.0,0.25,28,122.84
823,C3,216.25,0.25,23,122.84
824,E3,216.5,0.25,26,122.84
825,G#3,216.75,0.25,26,122.84
826,C3,217.0,0.25,35,122.84
827,E3,217.25,0.25,30,122.84
828,G#3,217.5,0.25,31,122.84
829,C4,217.75,0.25,32,122.84
830,E3,218.0,0.25,42,122.84
831,G#3,218.25,0.25,39,122.84
832,C4,218.5,0.25,43,122.84
833,E4,218.75,0.25,43,122.84
834,G#3,219.0,0.25,49,122.84
835,C4,219.25,0.25,40,122.84
836,E4,219.5,0.25,47,122.84
837,G#4,219.75,0.25,47,122.84
838,G#3,220.0,0.25,52,122.84
839,C4,220.25,0.25,45,122.84
840,E4,220.5,0.25,50,122.84
841,G#4,220.75,0.25,50,122.84
842,C4,221.0,0.25,55,122.84
843,E4,221.25,0.25,46,122.84
844,G#4,221.5,0.25,55,122.84
845,C5,221.75,0.25,53,122.84
846,E4,222.0,0.25,67,122.84
847,G#4,222.25,0.25,56,122.84
848,C5,222.5,0.25,65,122.84
849,E5,222.75,0.25,62,122.84
850,G#4,223.0,0.25,71,122.84
851,C5,223.25,0.25,64,122.84
852,E5,223.5,0.25,68,122.84
853,G#5,223.75,0.25,63,122.84
854,C5,224.0,1.0,79,122.84
855,E5,224.25,0.25,72,122.84
856,G5,224.5,0.25,68,122.84
857,C6,224.75,0.25,64,122.84
858,C5,225.0,1.0,71,122.84
859,E5,225.25,0.25,64,122.84
860,G5,225.5,0.25,68,122.84
861,C6,225.75,0.25,67,122.84
862,D5,226.0,1.0,74,122.84
863,E5,226.25,0.25,68,122.84
864,G5,226.5,0.25,68,122.84
865,D6,226.75,0.25,64,122.84
866,C5,227.0,1.0,71,122.84
867,E5,227.25,0.25,64,122.84
868,G5,227.5,0.25,68,122.84
869,C6,227.75,0.25,64,122.84
870,F5,228.0,1.0,63,122.84
871,G#5,228.25,0.25,57,122.84
872,C6,228.5,0.25,54,122.84
873,F6,228.75,0.25,51,122.84
874,E-5,229.0,1.0,57,122.84
875,G#5,229.25,0.25,51,122.84
876,C6,229.5,0.25,54,122.84
877,E-6,229.75,0.25,53,122.84
878,D5,230.0,1.0,58,122.84
879,E-5,230.25,0.25,54,122.84
880,G#5,230.5,0.25,54,122.84
881,D6,230.75,0.25,51,122.84
882,C5,231.0,1.0,57,122.84
883,E-5,231.25,0.25,51,122.84
884,G#5,231.5,0.25,54,122.84
885,C6,231.75,0.25,51,122.84
886,D5,232.0,1.0,63,122.84
887,E5,232.25,0.25,57,122.84
888,G5,232.5,0.25,54,122.84
889,D6,232.75,0.25,51,122.84
890,C5,233.0,1.0,57,122.84
891,E5,233.25,0.25,51,122.84
892,G5,233.5,0.25,54,122.84
893,C6,233.75,0.25,53,122.84
894,B4,234.0,1.0,58,122.84
895,C5,234.25,0.25,54,122.84
896,E5,234.5,0.25,54,122.84
897,B5,234.75,0.25,51,122.84
898,A4,235.0,1.0,57,122.84
899,C5,235.25,0.25,51,122.84
900,E5,235.5,0.25,54,122.84
901,A5,235.75,0.25,51,122.84
902,G4,236.0,1.0,63,122.84
903,A4,236.25,0.25,57,122.84
904,C5,236.5,0.25,53,122.84
905,G5,236.75,0.25,49,122.84
906,F4,237.0,1.0,55,122.84
907,A4,237.25,0.25,48,122.84
908,C5,237.5,0.25,51,122.84
909,F5,237.75,0.25,49,122.84
910,E4,238.0,1.0,54,122.84
911,F4,238.25,0.25,49,122.84
912,G#4,238.5,0.25,48,122.84
913,E5,238.75,0.25,45,122.84
914,D4,239.0,1.0,50,122.84
915,F4,239.25,0.25,44,122.84
916,G#4,239.5,0.25,46,122.84
917,D5,239.75,0.25,43,122.84
918,D4,240.0,1.0,48,122.84
919,E4,240.25,0.25,45,122.84
920,G4,240.5,0.25,48,122.84
921,D5,240.75,0.25,45,122.84
922,C4,241.0,1.0,63,122.84
923,E4,241.25,0.25,57,122.84
924,G4,241.5,0.25,61,122.84
925,C5,241.75,0.25,60,122.84
926,D4,242.0,1.0,66,122.84
927,E4,242.25,0.25,61,122.84
928,G4,242.5,0.25,61,122.84
929,D5,242.75,0.25,57,122.84
930,C4,243.0,1.0,63,122.84
931,E4,243.25,0.25,57,122.84
932,G4,243.5,0.25,61,122.84
933,C5,243.75,0.25,57,122.84
934,F4,244.0,1.0,63,122.84
935,G#4,244.25,0.25,57,122.84
936,C5,244.5,0.25,61,122.84
937,F5,244.74,0.25,60,122.84
938,E-4,245.0,1.0,63,122.84
939,G#4,245.25,0.25,57,122.84
940,C5,245.5,0.25,61,122.84
941,E-5,245.75,0.25,60,122.84
942,D4,246.0,1.0,66,122.84
943,E-4,246.25,0.25,61,122.84
944,G#4,246.5,0.25,61,122.84
945,D5,246.75,0.25,57,122.84
946,C4,247.0,1.0,63,122.84
947,E-4,247.25,0.25,57,122.84
948,G#4,247.5,0.25,61,122.84
949,C5,247.75,0.25,57,122.84
950,D4,248.0,1.0,63,122.84
951,E4,248.25,0.25,57,122.84
952,G4,248.5,0.25,61,122.84
953,D5,248.75,0.25,60,122.84
954,C4,249.0,1.0,63,122.84
955,E4,249.25,0.25,57,122.84
956,G4,249.5,0.25,61,122.84
957,C5,249.75,0.25,60,122.84
958,B3,250.0,1.0,66,122.84
959,C4,250.25,0.25,61,122.84
960,E4,250.485,0.25,61,122.84
961,B4,250.75,0.25,57,122.84
962,A3,251.0,1.0,63,122.84
963,C4,251.25,0.25,57,122.84
964,E4,251.485,0.25,61,122.84
965,A4,251.75,0.25,57,122.84
966,G3,252.0,1.0,59,122.84
967,A3,252.25,0.25,53,122.84
968,C4,252.5,0.25,56,122.84
969,G4,252.75,0.25,55,122.84
970,F3,253.0,1.0,56,122.84
971,A3,253.25,0.25,50,122.84
972,C4,253.5,0.25,53,122.84
973,F4,253.75,0.25,52,122.84
974,E3,254.0,1.0,56,122.84
975,F3,254.25,0.25,51,122.84
976,G#3,254.5,0.25,50,122.84
977,E4,254.75,0.25,46,122.84
978,D3,255.0,1.0,50,122.84
979,F3,255.25,0.25,45,122.84
980,G#3,255.5,0.25,47,122.84
981,D4,255.75,0.25,43,122.84
982,D3,256.0,1.0,66,122.84
983,E3,256.25,0.25,59,122.84
984,G3,256.5,0.25,56,122.84
985,D4,256.75,0.25,51,122.84
986,C3,257.0,1.0,55,122.84
987,E3,257.25,0.25,48,122.84
988,G3,257.5,0.25,53,122.84
989,C4,257.75,0.25,48,122.84
990,D3,258.0,1.0,61,122.84
991,F2,258.0,2.0,61,122.84
992,F3,258.25,0.25,46,122.84
993,A3,258.5,0.25,48,122.84
994,D4,258.75,0.25,50,122.84
995,C3,259.0,1.0,55,122.84
996,F3,259.25,0.25,56,122.84
997,A3,259.5,0.25,60,122.84
998,C4,259.75,0.25,63,122.84
999,D4,260.0,1.0,66,122.84
1000,E4,260.25,0.25,59,122.84
1001,G4,260.5,0.25,56,122.84
1002,D5,260.75,0.25,51,122.84
1003,C4,261.0,1.0,55,122.84
1004,E4,261.25,0.25,48,122.84
1005,G4,261.5,0.25,53,122.84
1006,C5,261.75,0.25,48,122.84
1007,F3,262.0,2.0,57,122.84
1008,D4,262.0,1.0,66,122.84
1009,F4,262.25,0.25,47,122.84
1010,A4,262.5,0.25,50,122.84
1011,D5,262.75,0.25,54,122.84
1012,C4,263.0,1.0,55,122.84
1013,F4,263.25,0.25,57,122.84
1014,A4,263.5,0.25,61,122.84
1015,C5,263.75,0.25,62,122.84
1016,C4,264.0,2.0,57,122.84
1017,G4,264.0,1.0,55,122.84
1018,E5,264.25,0.25,50,122.84
1019,C5,264.5,0.25,57,122.84
1020,E4,264.75,0.25,61,122.84
1021,A4,265.0,0.5,61,122.84
1022,E5,265.25,0.25,55,122.84
1023,B4,265.5,0.5,62,122.84
1024,E4,265.75,0.25,54,122.84
1025,C4,266.0,2.0,57,122.84
1026,G4,266.0,1.0,55,122.84
1027,E5,266.25,0.25,50,122.84
1028,C5,266.5,0.25,57,122.84
1029,E4,266.75,0.25,61,122.84
1030,A4,267.0,0.5,61,122.84
1031,E5,267.25,0.25,55,122.84
1032,B4,267.5,0.5,62,122.84
1033,E4,267.75,0.25,54,122.84
1034,C4,268.0,1.0,52,122.84
1035,G4,268.0,1.0,52,122.84
1036,E5,268.25,0.25,55,122.84
1037,C5,268.5,0.25,50,122.84
1038,E4,268.75,0.25,50,122.84
1039,E-4,269.0,1.0,56,122.84
1040,B-4,269.0,1.0,56,122.84
1041,G5,269.25,0.25,59,122.84
1042,E-5,269.5,0.25,50,122.84
1043,G4,269.75,0.25,55,122.84
1044,C#5,270.0,1.0,59,122.84
1045,F#4,270.0,1.0,59,122.84
1046,B-5,270.25,0.25,61,122.84
1047,F#5,270.5,0.25,56,122.84
1048,B-4,270.75,0.25,55,122.84
1049,G4,271.0,1.0,62,122.84
1050,D5,271.0,1.0,62,122.84
1051,B5,271.25,0.25,64,122.84
1052,G5,271.5,0.25,55,122.84
1053,B4,271.75,0.25,55,122.84
1054,C4,272.0,2.0,57,122.84
1055,G4,272.0,1.0,55,122.84
1056,E5,272.25,0.25,50,122.84
1057,C5,272.5,0.25,57,122.84
1058,E4,272.75,0.25,61,122.84
1059,A4,273.0,0.5,61,122.84
1060,E5,273.25,0.25,55,122.84
1061,B4,273.5,0.5,62,122.84
1062,E4,273.75,0.25,54,122.84
1063,C4,274.0,2.0,57,122.84
1064,G4,274.0,1.0,55,122.84
1065,E5,274.25,0.25,50,122.84
1066,C5,274.5,0.25,57,122.84
1067,E4,274.75,0.25,61,122.84
1068,A4,275.0,0.5,61,122.84
1069,E5,275.25,0.25,55,122.84
1070,B4,275.5,0.5,62,122.84
1071,E4,275.75,0.25,54,122.84
1072,C4,276.0,1.0,52,122.84
1073,G4,276.0,1.0,52,122.84
1074,E5,276.25,0.25,55,122.84
1075,C5,276.5,0.25,50,122.84
1076,E4,276.75,0.25,50,122.84
1077,E-4,277.0,1.0,56,122.84
1078,B-4,277.0,1.0,56,122.84
1079,G5,277.25,0.25,59,122.84
1080,E-5,277.5,0.25,50,122.84
1081,G4,277.75,0.25,55,122.84
1082,C#5,278.0,1.0,59,122.84
1083,F#4,278.0,1.0,59,122.84
1084,B-5,278.25,0.25,61,122.84
1085,F#5,278.5,0.25,56,122.84
1086,B-4,278.75,0.25,55,122.84
1087,G4,279.0,1.0,62,122.84
1088,D5,279.0,1.0,62,122.84
1089,B5,279.25,0.25,64,122.84
1090,G5,279.5,0.25,55,122.84
1091,B4,279.75,0.25,55,122.84
1092,G5,280.0,2.0,70,122.84
1093,E6,280.25,0.25,73,122.84
1094,C6,280.5,0.25,59,122.84
1095,E5,280.75,0.25,59,122.84
1096,C5,281.0,1.0,65,122.84
1097,E6,281.25,0.25,72,122.84
1098,C6,281.5,0.25,60,122.84
1099,E5,281.75,0.25,60,122.84
1100,G4,282.0,2.0,67,122.84
1101,E5,282.25,0.25,71,122.84
1102,C5,282.5,0.25,58,122.84
1103,E4,282.75,0.25,58,122.84
1104,C4,283.0,1.0,64,122.84
1105,E5,283.25,0.25,71,122.84
1106,C5,283.5,0.25,59,122.84
1107,E4,283.75,0.25,59,122.84
1108,G3,284.0,1.0,70,122.84
1109,E4,284.25,0.25,73,122.84
1110,C4,284.5,0.25,60,122.84
1111,E3,284.75,0.25,60,122.84
1112,C3,285.0,1.0,66,122.84
1113,E4,285.25,0.25,73,122.84
1114,C4,285.5,0.25,61,122.84
1115,E3,285.75,0.25,61,122.84
1116,G2,286.0,1.0,73,122.84
1117,E4,286.25,0.25,76,122.84
1118,C4,286.5,0.25,62,122.84
1119,E3,286.75,0.25,62,122.84
1120,C2,287.0,1.0,68,122.84
1121,E4,287.25,0.25,75,122.84
1122,C4,287.5,0.25,63,122.84
1123,E3,287.75,0.25,63,122.84
1124,E3,288.0,4.0,78,122.84
1125,C3,288.0,4.0,78,122.84
1126,F2,288.0,4.0,70,122.84
1127,A2,288.0,4.0,70,122.84
1128,E3,294.0,2.0,78,122.84
1129,C3,294.0,2.0,78,122.84
1130,B2,296.0,2.0,79,122.84
1131,D3,296.0,2.0,79,122.84
1132,F2,296.0,4.0,70,122.84
1133,A2,296.0,4.0,70,122.84
1134,E3,298.0,0.5,81,122.84
1135,C3,298.0,0.5,81,122.84
1136,G2,300.0,0.5,61,122.84
1137,C2,300.0,0.5,61,122.84
1138,C2,302.0,0.5,92,122.84
1139,C1,303.998,1/500,69,122.84
1140,C1,304.0,249/500,69,122.84
