,note_name,start_time,duration,velocity,tempo
0,E5,0.0,0.25,32,120.36
1,F5,0.5,0.25,26,120.36
2,G5,1.0,0.25,26,120.36
3,A5,1.5,0.25,26,120.36
4,E5,2.0,0.25,32,120.36
5,F5,2.5,0.25,28,120.36
6,G5,3.0,0.25,28,120.36
7,A5,3.5,0.25,28,120.36
8,E4,4.0,0.188,33,120.36
9,E5,4.25,0.188,36,120.36
10,F4,4.5,0.188,29,120.36
11,F5,4.75,0.188,30,120.36
12,G4,5.0,0.188,29,120.36
13,G5,5.25,0.188,30,120.36
14,A4,5.5,0.188,29,120.36
15,A5,5.75,0.188,30,120.36
16,E4,6.0,0.188,33,120.36
17,E5,6.25,0.188,36,120.36
18,F4,6.5,0.188,30,120.36
19,F5,6.75,0.188,29,120.36
20,G4,7.0,0.188,30,120.36
21,G5,7.25,0.188,29,120.36
22,A4,7.5,0.188,30,120.36
23,A5,7.75,0.188,29,120.36
24,B-4,8.0,4.0,45,120.36
25,E4,8.0,0.188,37,120.36
26,E5,8.25,0.188,40,120.36
27,F4,8.5,0.188,33,120.36
28,F5,8.75,0.188,34,120.36
29,G4,9.0,0.188,33,120.36
30,G5,9.25,0.188,34,120.36
31,A4,9.5,0.188,33,120.36
32,A5,9.75,0.188,34,120.36
33,E4,10.0,0.188,37,120.36
34,E5,10.25,0.188,40,120.36
35,F4,10.5,0.188,34,120.36
36,F5,10.75,0.188,33,120.36
37,G4,11.0,0.188,34,120.36
38,G5,11.25,0.188,33,120.36
39,A4,11.5,0.188,34,120.36
40,A5,11.75,0.188,33,120.36
41,C5,12.0,4.0,45,120.36
42,E4,12.0,0.188,37,120.36
43,E5,12.25,0.188,40,120.36
44,F4,12.5,0.188,33,120.36
45,F5,12.75,0.188,34,120.36
46,G4,13.0,0.188,33,120.36
47,G5,13.25,0.188,34,120.36
48,A4,13.5,0.188,33,120.36
49,A5,13.75,0.188,34,120.36
50,E4,14.0,0.188,37,120.36
51,E5,14.25,0.188,40,120.36
52,F4,14.5,0.188,34,120.36
53,F5,14.75,0.188,33,120.36
54,G4,15.0,0.188,34,120.36
55,G5,15.25,0.188,33,120.36
56,A4,15.5,0.188,34,120.36
57,A5,15.75,0.188,33,120.36
58,B-4,16.0,4.0,45,120.36
59,E4,16.0,0.188,37,120.36
60,E5,16.25,0.188,40,120.36
61,F4,16.5,0.188,33,120.36
62,F5,16.75,0.188,34,120.36
63,G4,17.0,0.188,33,120.36
64,G5,17.25,0.188,34,120.36
65,A4,17.5,0.188,33,120.36
66,A5,17.75,0.188,34,120.36
67,E4,18.0,0.188,37,120.36
68,E5,18.25,0.188,40,120.36
69,F4,18.5,0.188,34,120.36
70,F5,18.75,0.188,33,120.36
71,G4,19.0,0.188,34,120.36
72,G5,19.25,0.188,33,120.36
73,A4,19.5,0.188,34,120.36
74,A5,19.75,0.188,33,120.36
75,C#5,20.0,4.0,45,120.36
76,E4,20.0,0.188,37,120.36
77,E5,20.25,0.188,40,120.36
78,F4,20.5,0.188,33,120.36
79,F5,20.75,0.188,34,120.36
80,G4,21.0,0.188,33,120.36
81,G5,21.25,0.188,34,120.36
82,A4,21.5,0.188,33,120.36
83,A5,21.75,0.188,34,120.36
84,E4,22.0,0.188,37,120.36
85,E5,22.25,0.188,40,120.36
86,F4,22.5,0.188,34,120.36
87,F5,22.75,0.188,33,120.36
88,G4,23.0,0.188,34,120.36
89,G5,23.25,0.188,33,120.36
90,A4,23.5,0.188,34,120.36
91,A5,23.75,0.188,33,120.36
92,D5,24.0,0.188,39,120.36
93,D4,24.0,4.0,39,120.36
94,E5,24.25,0.188,36,120.36
95,C5,24.5,0.188,29,120.36
96,F5,24.75,0.188,30,120.36
97,B-4,25.0,0.188,29,120.36
98,G5,25.25,0.188,30,120.36
99,A4,25.5,0.188,29,120.36
100,A5,25.75,0.188,30,120.36
101,C5,26.0,0.188,36,120.36
102,D5,26.25,0.188,36,120.36
103,B-4,26.5,0.188,30,120.36
104,E5,26.75,0.188,29,120.36
105,A4,27.0,0.188,30,120.36
106,F5,27.25,0.188,29,120.36
107,G4,27.5,0.188,30,120.36
108,G5,27.75,0.188,29,120.36
109,D4,28.0,4.0,40,120.36
110,D5,28.0,0.188,33,120.36
111,E5,28.25,0.188,36,120.36
112,C5,28.5,0.188,29,120.36
113,F5,28.75,0.188,30,120.36
114,B-4,29.0,0.188,29,120.36
115,G5,29.25,0.188,30,120.36
116,A4,29.5,0.188,29,120.36
117,A5,29.75,0.188,30,120.36
118,C5,30.0,0.188,33,120.36
119,D5,30.25,0.188,36,120.36
120,B-4,30.5,0.188,30,120.36
121,E5,30.75,0.188,29,120.36
122,A4,31.0,0.188,30,120.36
123,F5,31.25,0.188,29,120.36
124,G4,31.5,0.188,30,120.36
125,G5,31.75,0.188,29,120.36
126,D4,32.0,4.0,40,120.36
127,A4,32.0,0.188,33,120.36
128,E5,32.25,0.188,36,120.36
129,C5,32.5,0.188,29,120.36
130,F5,32.75,0.188,30,120.36
131,B-4,33.0,0.188,29,120.36
132,D5,33.25,0.188,30,120.36
133,G4,33.5,0.188,29,120.36
134,E5,33.75,0.188,30,120.36
135,A4,34.0,0.188,33,120.36
136,C5,34.25,0.188,36,120.36
137,F4,34.5,0.188,30,120.36
138,D5,34.75,0.188,29,120.36
139,G4,35.0,0.188,30,120.36
140,B-4,35.25,0.188,29,120.36
141,E4,35.5,0.188,30,120.36
142,C5,35.75,0.188,29,120.36
143,D4,36.0,4.0,40,120.36
144,A4,36.0,0.188,33,120.36
145,E5,36.25,0.188,36,120.36
146,C5,36.5,0.188,29,120.36
147,F5,36.75,0.188,30,120.36
148,B-4,37.0,0.188,29,120.36
149,D5,37.25,0.188,30,120.36
150,G4,37.5,0.188,29,120.36
151,E5,37.75,0.188,30,120.36
152,A4,38.0,0.188,33,120.36
153,C5,38.25,0.188,36,120.36
154,F4,38.5,0.188,30,120.36
155,D5,38.75,0.188,29,120.36
156,A4,39.0,0.188,32,120.36
157,E5,39.25,0.188,29,120.36
158,D5,39.5,0.188,33,120.36
159,F5,39.75,0.188,29,120.36
160,C#5,40.0,0.25,51,120.36
161,F5,40.25,0.25,40,120.36
162,A5,40.5,0.25,43,120.36
163,E5,40.75,0.25,38,120.36
164,C#5,41.0,0.25,37,120.36
165,F5,41.25,0.25,43,120.36
166,A5,41.5,0.25,39,120.36
167,E5,41.75,0.25,41,120.36
168,C#5,42.0,0.25,49,120.36
169,F5,42.25,0.25,46,120.36
170,G5,42.5,0.25,48,120.36
171,E5,42.75,0.25,44,120.36
172,C#5,43.0,0.25,43,120.36
173,F5,43.25,0.25,50,120.36
174,G5,43.5,0.25,45,120.36
175,E5,43.75,0.25,47,120.36
176,B-4,44.0,4.0,46,120.36
177,C#5,44.0,0.25,54,120.36
178,F5,44.25,0.25,42,120.36
179,B-5,44.5,0.25,44,120.36
180,E5,44.75,0.25,38,120.36
181,C#5,45.0,0.25,37,120.36
182,F5,45.25,0.25,41,120.36
183,B-5,45.5,0.25,36,120.36
184,E5,45.75,0.25,37,120.36
185,C#5,46.0,0.25,44,120.36
186,F5,46.25,0.25,40,120.36
187,B-5,46.5,0.25,41,120.36
188,E5,46.75,0.25,37,120.36
189,C#5,47.0,0.25,35,120.36
190,F5,47.25,0.25,39,120.36
191,B-5,47.5,0.25,35,120.36
192,E5,47.75,0.25,36,120.36
193,C#5,48.0,0.25,51,120.36
194,F5,48.25,0.25,40,120.36
195,A5,48.5,0.25,43,120.36
196,E5,48.75,0.25,38,120.36
197,C#5,49.0,0.25,37,120.36
198,F5,49.25,0.25,42,120.36
199,A5,49.5,0.25,37,120.36
200,E5,49.75,0.25,39,120.36
201,C#5,50.0,0.25,46,120.36
202,F5,50.25,0.25,43,120.36
203,G5,50.5,0.25,45,120.36
204,E5,50.75,0.25,40,120.36
205,C#5,51.0,0.25,39,120.36
206,F5,51.25,0.25,45,120.36
207,G5,51.5,0.25,40,120.36
208,E5,51.75,0.25,42,120.36
209,C#5,52.0,0.25,54,120.36
210,F#4,52.0,2.0,42,120.36
211,B-4,52.0,2.0,42,120.36
212,E-5,52.25,0.25,42,120.36
213,B-5,52.5,0.25,44,120.36
214,F5,52.75,0.25,38,120.36
215,C#5,53.0,0.25,36,120.36
216,E-5,53.25,0.25,41,120.36
217,B-5,53.5,0.25,36,120.36
218,F5,53.75,0.25,37,120.36
219,B-4,54.0,0.25,43,120.36
220,E-4,54.0,2.0,40,120.36
221,F#4,54.0,2.0,40,120.36
222,B4,54.25,0.25,39,120.36
223,F#5,54.5,0.25,40,120.36
224,C#5,54.75,0.25,35,120.36
225,B-4,55.0,0.25,34,120.36
226,B4,55.25,0.25,38,120.36
227,F#5,55.5,0.25,33,120.36
228,C#5,55.75,0.25,34,120.36
229,C#5,56.0,0.25,54,120.36
230,F#4,56.0,2.0,42,120.36
231,B-4,56.0,2.0,42,120.36
232,E-5,56.25,0.25,42,120.36
233,B-5,56.5,0.25,44,120.36
234,F5,56.75,0.25,38,120.36
235,C#5,57.0,0.25,36,120.36
236,E-5,57.25,0.25,41,120.36
237,B-5,57.5,0.25,36,120.36
238,F5,57.75,0.25,37,120.36
239,B-4,58.0,0.25,43,120.36
240,E-4,58.0,2.0,40,120.36
241,F#4,58.0,2.0,40,120.36
242,B4,58.25,0.25,39,120.36
243,F#5,58.5,0.25,40,120.36
244,C#5,58.75,0.25,35,120.36
245,B-4,59.0,0.25,34,120.36
246,B4,59.25,0.25,38,120.36
247,F#5,59.5,0.25,33,120.36
248,C#5,59.75,0.25,34,120.36
249,F#4,60.0,0.25,47,120.36
250,B3,60.0,4.0,40,120.36
251,E-4,60.0,4.0,40,120.36
252,G#4,60.25,0.25,37,120.36
253,E-5,60.5,0.25,39,120.36
254,B-4,60.75,0.25,34,120.36
255,F#4,61.0,0.25,33,120.36
256,G#4,61.25,0.25,37,120.36
257,E-5,61.5,0.25,33,120.36
258,B-4,61.75,0.25,34,120.36
259,F#4,62.0,0.25,40,120.36
260,G#4,62.25,0.25,37,120.36
261,E-5,62.5,0.25,38,120.36
262,B-4,62.75,0.25,34,120.36
263,F#4,63.0,0.25,33,120.36
264,G#4,63.25,0.25,37,120.36
265,E-5,63.5,0.25,33,120.36
266,B-4,63.75,0.25,34,120.36
267,E-4,64.0,2.0,46,120.36
268,F#4,64.0,0.25,54,120.36
269,G#4,64.25,0.25,41,120.36
270,E-5,64.5,0.25,42,120.36
271,B-4,64.75,0.25,36,120.36
272,F#4,65.0,0.25,33,120.36
273,G#4,65.25,0.25,37,120.36
274,E-5,65.5,0.25,32,120.36
275,B-4,65.75,0.25,32,120.36
276,F#4,66.0,0.25,36,120.36
277,C#4,66.0,2.0,33,120.36
278,E-4,66.0,2.0,33,120.36
279,G#4,66.25,0.25,33,120.36
280,E-5,66.5,0.25,34,120.36
281,B-4,66.75,0.25,29,120.36
282,F#4,67.0,0.25,28,120.36
283,G#4,67.25,0.25,32,120.36
284,E-5,67.5,0.25,28,120.36
285,B-4,67.75,0.25,28,120.36
286,F#4,68.0,0.25,45,120.36
287,B3,68.0,4.0,36,120.36
288,E-4,68.0,4.0,36,120.36
289,G#4,68.25,0.25,35,120.36
290,E-5,68.5,0.25,33,120.36
291,B-4,68.75,0.25,32,120.36
292,F#4,69.0,0.25,27,120.36
293,G#4,69.25,0.25,34,120.36
294,E-5,69.5,0.25,27,120.36
295,B-4,69.75,0.25,31,120.36
296,F#4,70.0,0.25,32,120.36
297,G#4,70.25,0.25,33,120.36
298,E-5,70.5,0.25,30,120.36
299,B-4,70.75,0.25,29,120.36
300,F#4,71.0,0.25,25,120.36
301,G#4,71.25,0.25,32,120.36
302,E-5,71.5,0.25,25,120.36
303,B-4,71.75,0.25,28,120.36
304,E-4,72.0,2.0,46,120.36
305,F#4,72.0,0.25,54,120.36
306,G#4,72.25,0.25,41,120.36
307,E-5,72.5,0.25,42,120.36
308,B-4,72.75,0.25,36,120.36
309,F#4,73.0,0.25,33,120.36
310,G#4,73.25,0.25,37,120.36
311,E-5,73.5,0.25,32,120.36
312,B-4,73.75,0.25,32,120.36
313,F#4,74.0,0.25,36,120.36
314,C#4,74.0,2.0,33,120.36
315,E-4,74.0,2.0,33,120.36
316,G#4,74.25,0.25,33,120.36
317,E-5,74.5,0.25,34,120.36
318,B-4,74.75,0.25,29,120.36
319,F#4,75.0,0.25,28,120.36
320,G#4,75.25,0.25,32,120.36
321,E-5,75.5,0.25,28,120.36
322,B-4,75.75,0.25,28,120.36
323,F#4,76.0,0.25,38,120.36
324,C4,76.0,2.0,30,120.36
325,E-4,76.0,2.0,30,120.36
326,G#4,76.25,0.25,36,120.36
327,E-5,76.5,0.25,36,120.36
328,B-4,76.75,0.25,37,120.36
329,F#4,77.0,0.25,41,120.36
330,G#4,77.25,0.25,43,120.36
331,E-5,77.5,0.25,44,120.36
332,B-4,77.75,0.25,43,120.36
333,F#4,78.0,0.25,43,120.36
334,C#4,78.0,1.0,39,120.36
335,E-4,78.0,1.0,39,120.36
336,G#4,78.25,0.25,38,120.36
337,F5,78.5,0.25,39,120.36
338,B-4,78.75,0.25,32,120.36
339,B-3,79.0,1.0,36,120.36
340,F#4,79.0,0.25,30,120.36
341,G#4,79.25,0.25,34,120.36
342,F5,79.5,0.25,29,120.36
343,B-4,79.75,0.25,28,120.36
344,F#4,80.0,0.25,40,120.36
345,C4,80.0,2.0,32,120.36
346,E-4,80.0,2.0,32,120.36
347,G#4,80.25,0.25,36,120.36
348,E-5,80.5,0.25,40,120.36
349,B-4,80.75,0.25,37,120.36
350,F#4,81.0,0.25,36,120.36
351,G#4,81.25,0.25,43,120.36
352,E-5,81.5,0.25,40,120.36
353,B-4,81.75,0.25,43,120.36
354,F#4,82.0,0.25,43,120.36
355,C#4,82.0,1.0,39,120.36
356,E-4,82.0,1.0,39,120.36
357,G#4,82.25,0.25,38,120.36
358,F5,82.5,0.25,39,120.36
359,B-4,82.75,0.25,32,120.36
360,B-3,83.0,1.0,36,120.36
361,F#4,83.0,0.25,30,120.36
362,G#4,83.25,0.25,34,120.36
363,F5,83.5,0.25,29,120.36
364,B-4,83.75,0.25,28,120.36
365,F#5,84.0,2.0,39,120.36
366,F#3,84.0,1.0,34,120.36
367,C4,84.0,0.25,47,120.36
368,F#4,84.25,0.25,37,120.36
369,D4,84.5,0.25,35,120.36
370,G#4,84.75,0.25,34,120.36
371,C4,85.0,0.25,33,120.36
372,F#4,85.25,0.25,37,120.36
373,D4,85.5,0.25,33,120.36
374,G#4,85.75,0.25,34,120.36
375,D5,86.0,2.0,39,120.36
376,D3,86.0,1.0,34,120.36
377,C4,86.0,0.25,40,120.36
378,F#4,86.25,0.25,37,120.36
379,D4,86.5,0.25,37,120.36
380,G#4,86.75,0.25,34,120.36
381,C4,87.0,0.25,33,120.36
382,F#4,87.25,0.25,37,120.36
383,D4,87.5,0.25,33,120.36
384,G#4,87.75,0.25,34,120.36
385,E5,88.0,3.0,39,120.36
386,E3,88.0,1.0,34,120.36
387,C4,88.0,0.25,47,120.36
388,F#4,88.25,0.25,37,120.36
389,D4,88.5,0.25,35,120.36
390,G#4,88.75,0.25,34,120.36
391,C4,89.0,0.25,33,120.36
392,F#4,89.25,0.25,37,120.36
393,D4,89.5,0.25,33,120.36
394,G#4,89.75,0.25,34,120.36
395,C4,90.0,0.25,40,120.36
396,F#4,90.25,0.25,37,120.36
397,D4,90.5,0.25,37,120.36
398,G#4,90.75,0.25,34,120.36
399,E5,91.0,1.0,39,120.36
400,E3,91.0,1.0,34,120.36
401,C4,91.0,0.25,33,120.36
402,F#4,91.25,0.25,37,120.36
403,D4,91.5,0.25,33,120.36
404,G#4,91.75,0.25,34,120.36
405,F#5,92.0,1.0,39,120.36
406,F#3,92.0,1.0,34,120.36
407,C4,92.0,0.25,47,120.36
408,F#4,92.25,0.25,37,120.36
409,D4,92.5,0.25,35,120.36
410,G#4,92.75,0.25,34,120.36
411,F#5,93.0,1.0,39,120.36
412,C4,93.0,0.25,33,120.36
413,F#4,93.25,0.25,37,120.36
414,D4,93.5,0.25,33,120.36
415,G#4,93.75,0.25,34,120.36
416,D5,94.0,1.0,39,120.36
417,D3,94.0,1.0,34,120.36
418,C4,94.0,0.25,40,120.36
419,F#4,94.25,0.25,37,120.36
420,D4,94.5,0.25,37,120.36
421,G#4,94.75,0.25,34,120.36
422,D5,95.0,1.0,39,120.36
423,C4,95.0,0.25,33,120.36
424,F#4,95.25,0.25,37,120.36
425,D4,95.5,0.25,33,120.36
426,G#4,95.75,0.25,34,120.36
427,E5,96.0,4.0,39,120.36
428,E3,96.0,1.0,34,120.36
429,C4,96.0,0.25,47,120.36
430,F#4,96.25,0.25,36,120.36
431,D4,96.5,0.25,34,120.36
432,G#4,96.75,0.25,32,120.36
433,C4,97.0,0.25,31,120.36
434,F#4,97.25,0.25,34,120.36
435,D4,97.5,0.25,30,120.36
436,G#4,97.75,0.25,31,120.36
437,C4,98.0,0.25,36,120.36
438,F#4,98.25,0.25,32,120.36
439,D4,98.5,0.25,32,120.36
440,G#4,98.75,0.25,29,120.36
441,C4,99.0,0.25,28,120.36
442,F#4,99.25,0.25,31,120.36
443,D4,99.5,0.25,27,120.36
444,G#4,99.75,0.25,27,120.36
445,E5,100.0,2.0,39,120.36
446,E3,100.0,1.0,34,120.36
447,C4,100.0,0.25,47,120.36
448,F#4,100.25,0.25,37,120.36
449,D4,100.5,0.25,35,120.36
450,G#4,100.75,0.25,34,120.36
451,C4,101.0,0.25,33,120.36
452,F#4,101.25,0.25,37,120.36
453,D4,101.5,0.25,33,120.36
454,G#4,101.75,0.25,34,120.36
455,C5,102.0,2.0,39,120.36
456,C3,102.0,1.0,34,120.36
457,C4,102.0,0.25,40,120.36
458,F#4,102.25,0.25,37,120.36
459,D4,102.5,0.25,37,120.36
460,G#4,102.75,0.25,34,120.36
461,C4,103.0,0.25,33,120.36
462,F#4,103.25,0.25,37,120.36
463,D4,103.5,0.25,33,120.36
464,G#4,103.75,0.25,34,120.36
465,D5,104.0,3.0,39,120.36
466,D3,104.0,1.0,34,120.36
467,B-3,104.0,0.25,47,120.36
468,F4,104.25,0.25,37,120.36
469,C4,104.5,0.25,33,120.36
470,G4,104.75,0.25,34,120.36
471,B-3,105.0,0.25,38,120.36
472,F4,105.25,0.25,37,120.36
473,C4,105.5,0.25,33,120.36
474,G4,105.75,0.25,34,120.36
475,B-3,106.0,0.25,43,120.36
476,F4,106.25,0.25,37,120.36
477,C4,106.5,0.25,32,120.36
478,G4,106.75,0.25,34,120.36
479,D5,107.0,1.0,39,120.36
480,B-3,107.0,0.25,40,120.36
481,D3,107.0,1.0,40,120.36
482,F4,107.25,0.25,37,120.36
483,C4,107.5,0.25,33,120.36
484,G4,107.75,0.25,34,120.36
485,E5,108.0,1.0,39,120.36
486,E3,108.0,1.0,34,120.36
487,C4,108.0,0.25,47,120.36
488,F#4,108.25,0.25,37,120.36
489,D4,108.5,0.25,35,120.36
490,G#4,108.75,0.25,34,120.36
491,E5,109.0,1.0,39,120.36
492,C4,109.0,0.25,33,120.36
493,F#4,109.25,0.25,37,120.36
494,D4,109.5,0.25,33,120.36
495,G#4,109.75,0.25,34,120.36
496,C5,110.0,1.0,39,120.36
497,C3,110.0,1.0,34,120.36
498,C4,110.0,0.25,40,120.36
499,F#4,110.25,0.25,37,120.36
500,D4,110.5,0.25,37,120.36
501,G#4,110.75,0.25,34,120.36
502,C5,111.0,1.0,39,120.36
503,C4,111.0,0.25,33,120.36
504,F#4,111.25,0.25,37,120.36
505,D4,111.5,0.25,33,120.36
506,G#4,111.75,0.25,34,120.36
507,D5,112.0,4.0,39,120.36
508,D3,112.0,4.0,34,120.36
509,B-3,112.0,0.25,47,120.36
510,F4,112.25,0.25,36,120.36
511,C4,112.5,0.25,34,120.36
512,G4,112.75,0.25,32,120.36
513,B-3,113.0,0.25,31,120.36
514,F4,113.25,0.25,34,120.36
515,C4,113.5,0.25,30,120.36
516,G4,113.75,0.25,31,120.36
517,B-3,114.0,0.25,36,120.36
518,F4,114.25,0.25,32,120.36
519,C4,114.5,0.25,32,120.36
520,G4,114.75,0.25,29,120.36
521,B-3,115.0,0.25,28,120.36
522,F4,115.25,0.25,31,120.36
523,C4,115.5,0.25,27,120.36
524,G4,115.75,0.25,27,120.36
525,D3,116.0,4.0,28,120.36
526,D4,116.0,0.188,42,120.36
527,E4,116.25,0.188,40,120.36
528,C4,116.5,0.188,33,120.36
529,F4,116.75,0.188,34,120.36
530,B-3,117.0,0.188,33,120.36
531,G4,117.25,0.188,34,120.36
532,A3,117.5,0.188,33,120.36
533,A4,117.75,0.188,34,120.36
534,C4,118.0,0.188,37,120.36
535,D4,118.25,0.188,44,120.36
536,B-3,118.5,0.188,34,120.36
537,E4,118.75,0.188,33,120.36
538,A3,119.0,0.188,34,120.36
539,F4,119.25,0.188,33,120.36
540,G3,119.5,0.188,34,120.36
541,G4,119.75,0.188,33,120.36
542,D3,120.0,4.0,35,120.36
543,D4,120.0,0.188,42,120.36
544,E4,120.25,0.188,40,120.36
545,C4,120.5,0.188,33,120.36
546,F4,120.75,0.188,34,120.36
547,B-3,121.0,0.188,33,120.36
548,G4,121.25,0.188,34,120.36
549,A3,121.5,0.188,33,120.36
550,A4,121.75,0.188,34,120.36
551,C4,122.0,0.188,37,120.36
552,D4,122.25,0.188,44,120.36
553,B-3,122.5,0.188,34,120.36
554,E4,122.75,0.188,33,120.36
555,A3,123.0,0.188,34,120.36
556,F4,123.25,0.188,33,120.36
557,G3,123.5,0.188,34,120.36
558,G4,123.75,0.188,33,120.36
559,C4,124.0,4.0,45,120.36
560,G3,124.0,0.25,37,120.36
561,D4,124.25,0.188,40,120.36
562,C3,124.5,0.25,32,120.36
563,E-4,124.75,0.188,34,120.36
564,G2,125.0,0.25,32,120.36
565,F4,125.25,0.188,34,120.36
566,C2,125.5,0.25,32,120.36
567,G4,125.75,0.188,34,120.36
568,G2,126.0,0.25,32,120.36
569,D4,126.25,0.188,43,120.36
570,C3,126.5,0.25,32,120.36
571,E-4,126.75,0.188,35,120.36
572,A3,127.0,0.25,33,120.36
573,F4,127.25,0.188,39,120.36
574,F3,127.5,0.25,36,120.36
575,G4,127.75,0.188,41,120.36
576,C4,128.0,4.0,45,120.36
577,G3,128.0,0.25,37,120.36
578,D4,128.25,0.188,40,120.36
579,C3,128.5,0.25,32,120.36
580,E-4,128.75,0.188,34,120.36
581,G2,129.0,0.25,32,120.36
582,F4,129.25,0.188,34,120.36
583,C2,129.5,0.25,32,120.36
584,G4,129.75,0.188,34,120.36
585,G2,130.0,0.25,32,120.36
586,D4,130.25,0.188,43,120.36
587,C3,130.5,0.25,32,120.36
588,E-4,130.75,0.188,35,120.36
589,A3,131.0,0.25,33,120.36
590,F4,131.25,0.188,39,120.36
591,F3,131.5,0.25,36,120.36
592,G4,131.75,0.188,41,120.36
593,D4,132.0,0.188,36,120.36
594,C4,132.25,0.25,27,120.36
595,E-4,132.5,0.188,30,120.36
596,C4,132.75,0.25,27,120.36
597,B-5,133.0,0.25,53,120.36
598,F4,133.0,0.188,30,120.36
599,C4,133.25,0.25,27,120.36
600,B-5,133.333,0.25,47,120.36
601,G4,133.5,0.188,30,120.36
602,B-5,133.667,0.25,47,120.36
603,C4,133.75,0.25,27,120.36
604,B-5,134.0,0.25,54,120.36
605,D4,134.0,0.188,38,120.36
606,C4,134.25,0.25,27,120.36
607,B-5,134.333,0.25,46,120.36
608,E-4,134.5,0.188,31,120.36
609,B-5,134.667,0.25,46,120.36
610,C4,134.75,0.25,27,120.36
611,B-5,135.0,0.25,54,120.36
612,F4,135.0,0.188,35,120.36
613,C4,135.25,0.25,27,120.36
614,B-5,135.333,0.25,47,120.36
615,G4,135.5,0.188,36,120.36
616,B-5,135.667,0.25,47,120.36
617,C4,135.75,0.25,27,120.36
618,B-5,136.0,0.5,54,120.36
619,D4,136.0,0.188,40,120.36
620,C4,136.25,0.25,30,120.36
621,A5,136.5,0.5,50,120.36
622,E-4,136.5,0.188,34,120.36
623,C4,136.75,0.25,30,120.36
624,G5,137.0,2.0,48,120.36
625,F4,137.0,0.188,34,120.36
626,C4,137.25,0.25,30,120.36
627,G4,137.5,0.188,36,120.36
628,C4,137.75,0.25,32,120.36
629,D4,138.0,0.188,48,120.36
630,C4,138.25,0.25,34,120.36
631,E-4,138.5,0.188,41,120.36
632,C4,138.75,0.25,36,120.36
633,B-5,139.0,333/1000,58,120.36
634,F4,139.0,0.188,48,120.36
635,C4,139.25,0.25,37,120.36
636,A5,139.333,333/1000,63,120.36
637,G4,139.5,0.188,51,120.36
638,G5,139.667,333/1000,67,120.36
639,C4,139.75,0.25,37,120.36
640,G5,140.0,1.0,70,120.36
641,D4,140.0,0.188,50,120.36
642,C4,140.25,0.25,37,120.36
643,E-4,140.5,0.188,42,120.36
644,C4,140.75,0.25,37,120.36
645,F5,141.0,333/1000,71,120.36
646,F4,141.0,0.188,50,120.36
647,C4,141.25,0.25,46,120.36
648,E5,141.333,333/1000,67,120.36
649,G4,141.5,0.188,46,120.36
650,D5,141.667,333/1000,62,120.36
651,C4,141.75,0.25,45,120.36
652,C#5,142.0,0.375,64,120.36
653,G4,142.0,0.188,49,120.36
654,B-3,142.25,0.25,37,120.36
655,B-4,142.5,1.5,49,120.36
656,G4,142.5,0.188,43,120.36
657,B-3,142.75,0.25,35,120.36
658,G4,143.0,0.188,39,120.36
659,B-3,143.25,0.25,30,120.36
660,G4,143.5,0.188,41,120.36
661,B-3,143.75,0.25,30,120.36
662,G4,144.0,0.188,40,120.36
663,B-3,144.25,0.25,30,120.36
664,G4,144.5,0.188,34,120.36
665,B-3,144.75,0.25,30,120.36
666,F5,145.0,333/1000,68,120.36
667,F4,145.0,0.5,48,120.36
668,B-3,145.25,0.25,43,120.36
669,E5,145.333,333/1000,61,120.36
670,F4,145.5,0.188,37,120.36
671,D5,145.667,333/1000,57,120.36
672,B-3,145.75,0.25,40,120.36
673,C#5,146.0,0.375,61,120.36
674,E4,146.0,0.5,49,120.36
675,B-3,146.25,0.25,32,120.36
676,B-4,146.5,0.5,49,120.36
677,E4,146.5,0.188,38,120.36
678,B-3,146.75,0.25,35,120.36
679,F5,147.0,333/1000,63,120.36
680,F4,147.0,0.5,39,120.36
681,B-3,147.25,0.25,30,120.36
682,E5,147.333,333/1000,54,120.36
683,F4,147.5,0.188,41,120.36
684,D5,147.667,26/125,50,120.36
685,B-3,147.75,0.125,30,120.36
686,C#4,147.875,0.125,37,120.36
687,C#5,147.875,0.125,52,120.36
688,E5,147.875,0.125,52,120.36
689,E4,147.938,0.062,37,120.36
690,F#5,147.958,21/500,57,120.36
691,C#6,148.0,0.5,74,120.36
692,F#5,148.0,3.875,57,120.36
693,B-3,148.0,0.25,39,120.36
694,F#4,148.0,4.0,44,120.36
695,C#4,148.0,4.0,37,120.36
696,E4,148.0,4.0,37,120.36
697,C#5,148.0,474/125,52,120.36
698,E5,148.0,474/125,52,120.36
699,C4,148.25,0.25,37,120.36
700,B-5,148.5,0.5,54,120.36
701,B-3,148.5,0.25,34,120.36
702,C4,148.75,0.25,32,120.36
703,B-3,149.0,0.25,34,120.36
704,C4,149.25,0.25,30,120.36
705,B-3,149.5,0.25,33,120.36
706,C4,149.75,0.25,30,120.36
707,B-3,150.0,0.25,33,120.36
708,C4,150.25,0.25,30,120.36
709,B-3,150.5,0.25,33,120.36
710,C4,150.75,0.25,31,120.36
711,B-3,151.0,0.25,32,120.36
712,C4,151.25,0.25,31,120.36
713,B-3,151.5,0.25,35,120.36
714,C4,151.75,0.25,31,120.36
715,C#4,151.875,0.125,39,120.36
716,E4,151.875,0.125,39,120.36
717,F#4,151.958,21/500,45,120.36
718,C#5,152.0,0.5,62,120.36
719,F#4,152.0,479/500,45,120.36
720,B-3,152.0,0.25,37,120.36
721,C#4,152.0,479/500,39,120.36
722,E4,152.0,479/500,39,120.36
723,C4,152.25,0.25,31,120.36
724,B-4,152.5,0.5,46,120.36
725,B-3,152.5,0.25,31,120.36
726,C4,152.75,0.25,32,120.36
727,B-3,153.0,0.25,34,120.36
728,C4,153.25,0.25,30,120.36
729,B-3,153.5,0.25,32,120.36
730,C4,153.75,0.25,31,120.36
731,B-3,154.0,0.25,33,120.36
732,C4,154.25,0.25,30,120.36
733,B-3,154.5,0.25,33,120.36
734,C4,154.75,0.25,31,120.36
735,B-3,155.0,0.25,32,120.36
736,C4,155.25,0.25,25,120.36
737,B-3,155.5,0.25,31,120.36
738,C4,155.75,0.25,26,120.36
739,B-3,156.0,0.25,29,120.36
740,C4,156.25,0.25,25,120.36
741,B-3,156.5,0.25,29,120.36
742,B-2,156.5,0.25,35,120.36
743,C4,156.75,0.25,24,120.36
744,A2,156.75,0.25,35,120.36
745,B-3,157.0,0.25,29,120.36
746,B-2,157.0,0.25,40,120.36
747,C4,157.25,0.25,24,120.36
748,B-3,157.5,0.25,29,120.36
749,F#2,157.5,0.25,37,120.36
750,C4,157.75,0.25,24,120.36
751,B-2,157.75,0.25,31,120.36
752,B-3,158.0,0.25,30,120.36
753,A2,158.0,0.25,38,120.36
754,C4,158.25,0.25,24,120.36
755,B-2,158.25,0.25,41,120.36
756,B-3,158.5,0.25,30,120.36
757,C3,158.5,1.25,46,120.36
758,C4,158.75,0.25,24,120.36
759,B-3,159.0,0.25,33,120.36
760,C4,159.25,0.25,24,120.36
761,B-3,159.5,0.25,30,120.36
762,C4,159.75,0.25,25,120.36
763,C#3,159.75,0.25,41,120.36
764,B-3,160.0,0.25,35,120.36
765,D3,160.0,0.75,48,120.36
766,C4,160.25,0.25,26,120.36
767,B-3,160.5,0.25,26,120.36
768,C4,160.75,0.25,36,120.36
769,E-3,160.75,0.25,44,120.36
770,B-3,161.0,0.25,27,120.36
771,E3,161.0,3.0,56,120.36
772,C#4,161.25,0.25,32,120.36
773,B-3,161.5,0.25,34,120.36
774,C#4,161.75,0.25,39,120.36
775,B-3,161.952,0.25,63,120.36
776,C#4,162.25,0.25,51,120.36
777,B-4,162.5,0.25,55,120.36
778,C#5,162.75,0.25,48,120.36
779,B-3,163.0,0.25,52,120.36
780,C#4,163.25,0.25,46,120.36
781,B-3,163.5,0.25,45,120.36
782,C#4,163.75,0.25,40,120.36
783,B-3,164.0,0.25,29,120.36
784,C4,164.25,0.25,25,120.36
785,B-3,164.5,0.25,29,120.36
786,B-2,164.5,0.25,35,120.36
787,C4,164.75,0.25,24,120.36
788,A2,164.75,0.25,35,120.36
789,B-3,165.0,0.25,29,120.36
790,B-2,165.0,0.25,40,120.36
791,C4,165.25,0.25,24,120.36
792,B-3,165.5,0.25,29,120.36
793,F#2,165.5,0.25,37,120.36
794,C4,165.75,0.25,24,120.36
795,B-2,165.75,0.25,31,120.36
796,B-3,166.0,0.25,30,120.36
797,A2,166.0,0.25,38,120.36
798,C4,166.25,0.25,24,120.36
799,B-2,166.25,0.25,41,120.36
800,B-3,166.5,0.25,30,120.36
801,C3,166.5,1.25,46,120.36
802,C4,166.75,0.25,24,120.36
803,B-3,167.0,0.25,33,120.36
804,C4,167.25,0.25,24,120.36
805,B-3,167.5,0.25,30,120.36
806,C4,167.75,0.25,25,120.36
807,C#3,167.75,0.25,41,120.36
808,B-3,168.0,0.25,35,120.36
809,E-3,168.0,0.75,48,120.36
810,C4,168.25,0.25,26,120.36
811,B-3,168.5,0.25,26,120.36
812,C4,168.75,0.25,36,120.36
813,F3,168.75,0.25,44,120.36
814,B-3,169.0,0.25,27,120.36
815,F#3,169.0,3.0,56,120.36
816,C#4,169.25,0.25,32,120.36
817,B-3,169.5,0.25,34,120.36
818,C#4,169.75,0.25,39,120.36
819,B-3,169.952,0.25,63,120.36
820,C#4,170.25,0.25,51,120.36
821,B-4,170.5,0.25,55,120.36
822,C#5,170.75,0.25,48,120.36
823,B-4,171.0,0.25,54,120.36
824,C#5,171.25,0.25,49,120.36
825,B-4,171.5,0.25,55,120.36
826,C#5,171.75,0.25,44,120.36
827,B-4,172.0,0.5,48,120.36
828,C#5,172.25,0.25,37,120.36
829,B-4,172.5,0.5,41,120.36
830,C#5,172.75,0.25,35,120.36
831,B-5,173.0,0.25,53,120.36
832,G#4,173.0,1.0,36,120.36
833,B-4,173.0,0.25,30,120.36
834,C#5,173.25,0.25,27,120.36
835,B-5,173.333,0.25,47,120.36
836,B-4,173.5,0.25,30,120.36
837,B-5,173.667,0.25,47,120.36
838,C#5,173.75,0.25,27,120.36
839,B-5,174.0,0.25,54,120.36
840,F#4,174.0,1.0,36,120.36
841,B-4,174.0,0.25,38,120.36
842,C#5,174.25,0.25,27,120.36
843,B-5,174.333,0.25,46,120.36
844,B-4,174.5,0.25,31,120.36
845,B-5,174.667,0.25,46,120.36
846,C#5,174.75,0.25,27,120.36
847,B-5,175.0,0.25,54,120.36
848,F4,175.0,1.0,36,120.36
849,B-4,175.0,0.25,35,120.36
850,C#5,175.25,0.25,27,120.36
851,B-5,175.333,0.25,47,120.36
852,B-4,175.5,0.25,36,120.36
853,B-5,175.667,0.25,47,120.36
854,C#5,175.75,0.25,27,120.36
855,B-5,176.0,0.5,54,120.36
856,B-4,176.0,0.25,34,120.36
857,E4,176.0,2.0,32,120.36
858,C#5,176.25,0.25,30,120.36
859,A5,176.5,0.5,50,120.36
860,B-4,176.5,0.25,34,120.36
861,C#5,176.75,0.25,30,120.36
862,G5,177.0,2.0,48,120.36
863,B-4,177.0,0.25,40,120.36
864,C#5,177.25,0.25,34,120.36
865,B-4,177.5,0.25,40,120.36
866,C#5,177.75,0.25,35,120.36
867,F4,178.0,2.0,40,120.36
868,B-4,178.0,0.25,43,120.36
869,C#5,178.25,0.25,35,120.36
870,B-4,178.5,0.25,41,120.36
871,C#5,178.75,0.25,30,120.36
872,B-5,179.0,333/1000,69,120.36
873,B-4,179.0,0.25,49,120.36
874,C#5,179.25,0.25,40,120.36
875,A5,179.333,333/1000,65,120.36
876,B-4,179.5,0.25,46,120.36
877,G5,179.667,333/1000,57,120.36
878,C#5,179.75,0.25,39,120.36
879,G5,180.0,1.0,64,120.36
880,B-4,180.0,0.5,40,120.36
881,C#5,180.25,0.25,35,120.36
882,B-4,180.5,0.5,39,120.36
883,C#5,180.75,0.25,35,120.36
884,F5,181.0,333/1000,66,120.36
885,G4,181.0,0.5,40,120.36
886,B-4,181.25,0.25,30,120.36
887,E5,181.333,333/1000,59,120.36
888,G4,181.5,0.5,34,120.36
889,D5,181.667,333/1000,55,120.36
890,B-4,181.75,0.25,30,120.36
891,C#5,182.0,0.375,61,120.36
892,E4,182.0,0.5,38,120.36
893,G4,182.25,0.25,30,120.36
894,B-4,182.5,1.5,49,120.36
895,E4,182.5,0.5,35,120.36
896,G4,182.75,0.25,30,120.36
897,C#4,183.0,0.5,40,120.36
898,F4,183.25,0.25,30,120.36
899,C#4,183.5,0.25,41,120.36
900,F4,183.75,0.25,30,120.36
901,B-3,184.0,0.5,40,120.36
902,C#4,184.25,0.25,30,120.36
903,B-3,184.5,0.5,34,120.36
904,C#4,184.75,0.25,30,120.36
905,F5,185.0,333/1000,66,120.36
906,G#4,185.0,1.0,66,120.36
907,E-3,185.0,2.0,40,120.36
908,B3,185.0,0.25,40,120.36
909,D4,185.25,0.25,40,120.36
910,E5,185.333,333/1000,59,120.36
911,B3,185.5,0.25,37,120.36
912,D5,185.667,333/1000,56,120.36
913,D4,185.75,0.25,40,120.36
914,G4,186.0,1.0,44,120.36
915,C#5,186.0,0.375,61,120.36
916,B-3,186.0,0.25,49,120.36
917,E-4,186.25,0.25,32,120.36
918,B-4,186.5,0.375,49,120.36
919,B-3,186.5,0.25,38,120.36
920,E-4,186.75,0.25,35,120.36
921,F5,187.0,333/1000,63,120.36
922,G#4,187.0,1.0,63,120.36
923,E-3,187.0,1.0,40,120.36
924,B3,187.0,0.188,39,120.36
925,D4,187.25,0.25,30,120.36
926,E5,187.333,333/1000,54,120.36
927,B3,187.5,0.25,41,120.36
928,D5,187.667,333/1000,50,120.36
929,D4,187.75,0.25,30,120.36
930,G4,188.0,1.0,44,120.36
931,C#5,188.0,0.375,61,120.36
932,B-3,188.0,0.25,49,120.36
933,E-3,188.0,1.0,40,120.36
934,E-4,188.25,0.25,32,120.36
935,B-4,188.5,0.375,49,120.36
936,B-3,188.5,0.25,38,120.36
937,E-4,188.75,0.25,35,120.36
938,G#4,189.0,1.0,51,120.36
939,F5,189.0,333/1000,63,120.36
940,B3,189.0,0.188,39,120.36
941,D4,189.25,0.25,44,120.36
942,E5,189.333,333/1000,54,120.36
943,E4,189.5,0.25,48,120.36
944,D5,189.667,333/1000,50,120.36
945,F4,189.75,0.25,50,120.36
946,B-4,190.0,0.25,75,120.36
947,C#5,190.0,0.25,75,120.36
948,F#3,190.0,0.25,75,120.36
949,C#4,190.0,0.25,75,120.36
950,F#4,190.25,0.25,69,120.36
951,E-4,190.5,0.125,58,120.36
952,E-4,190.75,0.125,63,120.36
953,E-4,191.0,0.125,63,120.36
954,E-4,191.25,0.125,66,120.36
955,E-4,191.5,0.125,68,120.36
956,E-4,191.75,0.125,72,120.36
957,B-4,192.0,0.25,75,120.36
958,C#5,192.0,0.25,75,120.36
959,C#4,192.0,0.25,74,120.36
960,B-3,192.0,0.25,74,120.36
961,F4,192.25,0.25,68,120.36
962,E-4,192.5,0.125,66,120.36
963,E-4,192.75,0.125,68,120.36
964,E-4,193.0,0.125,73,120.36
965,E-4,193.25,0.125,75,120.36
966,E-4,193.5,0.125,78,120.36
967,E-4,193.75,0.125,78,120.36
968,B-4,194.0,0.25,75,120.36
969,C#5,194.0,0.25,75,120.36
970,G3,194.0,0.25,75,120.36
971,C#4,194.0,0.25,75,120.36
972,E-4,194.25,0.188,69,120.36
973,E-4,194.5,0.125,69,120.36
974,E-4,194.75,0.125,67,120.36
975,E-4,195.0,0.125,67,120.36
976,E-4,195.25,0.125,67,120.36
977,E-4,195.5,0.125,67,120.36
978,E-4,195.75,0.125,64,120.36
979,E-4,196.0,0.125,61,120.36
980,E-4,196.25,0.125,61,120.36
981,E-4,196.5,0.125,61,120.36
982,E-4,196.75,0.125,61,120.36
983,E-4,197.0,0.125,61,120.36
984,E-4,197.25,0.125,60,120.36
985,E-4,197.5,0.125,57,120.36
986,E-4,197.75,0.125,57,120.36
987,B-4,198.0,0.25,75,120.36
988,C#5,198.0,0.25,75,120.36
989,F#3,198.0,0.25,75,120.36
990,C#4,198.0,0.25,75,120.36
991,F#4,198.25,0.25,69,120.36
992,E-4,198.5,0.125,58,120.36
993,E-4,198.75,0.125,63,120.36
994,E-4,199.0,0.125,63,120.36
995,E-4,199.25,0.125,66,120.36
996,E-4,199.5,0.125,68,120.36
997,E-4,199.75,0.125,72,120.36
998,B-4,200.0,0.25,75,120.36
999,C#5,200.0,0.25,75,120.36
1000,C#4,200.0,0.25,74,120.36
1001,B-3,200.0,0.25,74,120.36
1002,F4,200.25,0.25,68,120.36
1003,E-4,200.5,0.125,66,120.36
1004,E-4,200.75,0.125,68,120.36
1005,E-4,201.0,0.125,73,120.36
1006,E-4,201.25,0.125,75,120.36
1007,E-4,201.5,0.125,78,120.36
1008,E-4,201.75,0.125,78,120.36
1009,B-4,202.0,0.25,75,120.36
1010,C#5,202.0,0.25,75,120.36
1011,G3,202.0,0.25,75,120.36
1012,C#4,202.0,0.25,75,120.36
1013,E-4,202.25,0.188,69,120.36
1014,E-4,202.5,0.125,64,120.36
1015,E-4,202.75,0.125,61,120.36
1016,E-4,203.0,0.125,57,120.36
1017,E-4,203.25,0.125,55,120.36
1018,E-4,203.5,0.125,51,120.36
1019,E-4,203.75,0.125,50,120.36
1020,E-4,204.0,0.188,42,120.36
1021,D4,204.25,0.188,35,120.36
1022,F#4,204.5,0.188,42,120.36
1023,F4,204.75,0.188,37,120.36
1024,E-4,205.0,0.188,42,120.36
1025,F4,205.25,0.188,37,120.36
1026,F#4,205.5,0.188,37,120.36
1027,G4,205.75,0.188,37,120.36
1028,E-4,206.0,0.188,42,120.36
1029,D4,206.25,0.188,35,120.36
1030,F#4,206.5,0.188,42,120.36
1031,F4,206.75,0.188,36,120.36
1032,E-4,207.0,0.188,42,120.36
1033,F4,207.25,0.188,37,120.36
1034,F#4,207.5,0.188,37,120.36
1035,G4,207.75,0.188,37,120.36
1036,F#4,208.0,0.188,42,120.36
1037,F4,208.25,0.188,35,120.36
1038,B-4,208.5,0.188,42,120.36
1039,A4,208.75,0.188,37,120.36
1040,F#4,209.0,0.188,42,120.36
1041,G#4,209.25,0.188,37,120.36
1042,B-4,209.5,0.188,37,120.36
1043,B4,209.75,0.188,37,120.36
1044,F#4,210.0,0.188,42,120.36
1045,F4,210.25,0.188,35,120.36
1046,B-4,210.5,0.188,42,120.36
1047,A4,210.75,0.188,36,120.36
1048,F#4,211.0,0.188,42,120.36
1049,A4,211.25,0.188,37,120.36
1050,B-4,211.5,0.188,37,120.36
1051,B4,211.75,0.188,37,120.36
1052,B-4,212.0,0.188,42,120.36
1053,A4,212.25,0.188,35,120.36
1054,C#5,212.5,0.188,42,120.36
1055,C5,212.75,0.188,37,120.36
1056,B-4,213.0,0.188,42,120.36
1057,B4,213.25,0.188,37,120.36
1058,C#5,213.5,0.188,37,120.36
1059,D5,213.75,0.188,37,120.36
1060,B-4,214.0,0.188,42,120.36
1061,A4,214.25,0.188,35,120.36
1062,C#5,214.5,0.188,42,120.36
1063,C5,214.75,0.188,36,120.36
1064,B-4,215.0,0.188,42,120.36
1065,B4,215.25,0.188,37,120.36
1066,C#5,215.5,0.188,37,120.36
1067,D5,215.75,0.188,37,120.36
1068,B-4,216.0,0.25,42,120.36
1069,B4,216.25,0.25,41,120.36
1070,C#5,216.5,0.25,41,120.36
1071,D5,216.75,0.25,40,120.36
1072,B-4,217.0,0.25,39,120.36
1073,B4,217.25,0.25,39,120.36
1074,C#5,217.5,0.25,39,120.36
1075,D5,217.75,0.25,38,120.36
1076,B-4,218.0,0.25,37,120.36
1077,B4,218.25,0.25,37,120.36
1078,C#5,218.5,0.25,36,120.36
1079,D5,218.75,0.25,36,120.36
1080,B-4,219.0,0.25,35,120.36
1081,B4,219.25,0.25,35,120.36
1082,C#5,219.5,0.25,34,120.36
1083,D5,219.75,0.25,34,120.36
1084,D4,220.0,4.0,40,120.36
1085,D5,220.0,0.188,33,120.36
1086,E5,220.25,0.188,36,120.36
1087,C5,220.5,0.188,29,120.36
1088,F5,220.75,0.188,30,120.36
1089,B-4,221.0,0.188,29,120.36
1090,G5,221.25,0.188,30,120.36
1091,A4,221.5,0.188,29,120.36
1092,A5,221.75,0.188,30,120.36
1093,C5,222.0,0.188,33,120.36
1094,D5,222.25,0.188,36,120.36
1095,B-4,222.5,0.188,30,120.36
1096,E5,222.75,0.188,29,120.36
1097,A4,223.0,0.188,30,120.36
1098,F5,223.25,0.188,29,120.36
1099,G4,223.5,0.188,30,120.36
1100,G5,223.75,0.188,29,120.36
1101,D4,224.0,4.0,40,120.36
1102,D5,224.0,0.188,33,120.36
1103,E5,224.25,0.188,36,120.36
1104,C5,224.5,0.188,29,120.36
1105,F5,224.75,0.188,30,120.36
1106,B-4,225.0,0.188,29,120.36
1107,G5,225.25,0.188,30,120.36
1108,A4,225.5,0.188,29,120.36
1109,A5,225.75,0.188,30,120.36
1110,C5,226.0,0.188,33,120.36
1111,D5,226.25,0.188,36,120.36
1112,B-4,226.5,0.188,30,120.36
1113,E5,226.75,0.188,29,120.36
1114,A4,227.0,0.188,30,120.36
1115,F5,227.25,0.188,29,120.36
1116,G4,227.5,0.188,30,120.36
1117,G5,227.75,0.188,29,120.36
1118,D4,228.0,4.0,40,120.36
1119,A4,228.0,0.188,33,120.36
1120,E5,228.25,0.188,36,120.36
1121,C5,228.5,0.188,29,120.36
1122,F5,228.75,0.188,30,120.36
1123,B-4,229.0,0.188,29,120.36
1124,D5,229.25,0.188,30,120.36
1125,G4,229.5,0.188,29,120.36
1126,E5,229.75,0.188,30,120.36
1127,A4,230.0,0.188,33,120.36
1128,C5,230.25,0.188,36,120.36
1129,F4,230.5,0.188,30,120.36
1130,D5,230.75,0.188,29,120.36
1131,G4,231.0,0.188,30,120.36
1132,B-4,231.25,0.188,29,120.36
1133,E4,231.5,0.188,30,120.36
1134,C5,231.75,0.188,29,120.36
1135,D4,232.0,4.0,40,120.36
1136,A4,232.0,0.188,33,120.36
1137,E5,232.25,0.188,36,120.36
1138,C5,232.5,0.188,29,120.36
1139,F5,232.75,0.188,30,120.36
1140,B-4,233.0,0.188,29,120.36
1141,D5,233.25,0.188,30,120.36
1142,G4,233.5,0.188,29,120.36
1143,E5,233.75,0.188,30,120.36
1144,A4,234.0,0.188,33,120.36
1145,C5,234.25,0.188,36,120.36
1146,F4,234.5,0.188,30,120.36
1147,D5,234.75,0.188,29,120.36
1148,A4,235.0,0.188,30,120.36
1149,E5,235.25,0.188,29,120.36
1150,D5,235.5,0.188,30,120.36
1151,F5,235.75,0.188,29,120.36
1152,C#5,236.0,0.25,47,120.36
1153,F5,236.25,0.25,37,120.36
1154,A5,236.5,0.25,39,120.36
1155,E5,236.75,0.25,34,120.36
1156,C#5,237.0,0.25,33,120.36
1157,F5,237.25,0.25,38,120.36
1158,A5,237.5,0.25,34,120.36
1159,E5,237.75,0.25,36,120.36
1160,C#5,238.0,0.25,42,120.36
1161,F5,238.25,0.25,39,120.36
1162,G5,238.5,0.25,41,120.36
1163,E5,238.75,0.25,37,120.36
1164,C#5,239.0,0.25,36,120.36
1165,F5,239.25,0.25,41,120.36
1166,G5,239.5,0.25,37,120.36
1167,E5,239.75,0.25,38,120.36
1168,B-4,240.0,4.0,46,120.36
1169,C#5,240.0,0.25,54,120.36
1170,F5,240.25,0.25,42,120.36
1171,B-5,240.5,0.25,44,120.36
1172,E5,240.75,0.25,38,120.36
1173,C#5,241.0,0.25,37,120.36
1174,F5,241.25,0.25,41,120.36
1175,B-5,241.5,0.25,36,120.36
1176,E5,241.75,0.25,37,120.36
1177,C#5,242.0,0.25,44,120.36
1178,F5,242.25,0.25,40,120.36
1179,B-5,242.5,0.25,41,120.36
1180,E5,242.75,0.25,37,120.36
1181,C#5,243.0,0.25,35,120.36
1182,F5,243.25,0.25,39,120.36
1183,B-5,243.5,0.25,35,120.36
1184,E5,243.75,0.25,36,120.36
1185,C#5,244.0,0.25,47,120.36
1186,F5,244.25,0.25,37,120.36
1187,A5,244.5,0.25,39,120.36
1188,E5,244.75,0.25,34,120.36
1189,C#5,245.0,0.25,33,120.36
1190,F5,245.25,0.25,37,120.36
1191,A5,245.5,0.25,33,120.36
1192,E5,245.75,0.25,34,120.36
1193,C#5,246.0,0.25,40,120.36
1194,F5,246.25,0.25,37,120.36
1195,G5,246.5,0.25,38,120.36
1196,E5,246.75,0.25,34,120.36
1197,C#5,247.0,0.25,33,120.36
1198,F5,247.25,0.25,37,120.36
1199,G5,247.5,0.25,33,120.36
1200,E5,247.75,0.25,34,120.36
1201,B-4,248.0,2.0,46,120.36
1202,C#5,248.0,0.25,54,120.36
1203,F5,248.25,0.25,42,120.36
1204,B-5,248.5,0.25,44,120.36
1205,E5,248.75,0.25,38,120.36
1206,C#5,249.0,0.25,36,120.36
1207,F5,249.25,0.25,41,120.36
1208,B-5,249.5,0.25,36,120.36
1209,E5,249.75,0.25,37,120.36
1210,G4,250.0,2.0,43,120.36
1211,B-4,250.0,0.25,43,120.36
1212,E-5,250.25,0.25,39,120.36
1213,G5,250.5,0.25,40,120.36
1214,C#5,250.75,0.25,35,120.36
1215,B-4,251.0,0.25,34,120.36
1216,E-5,251.25,0.25,38,120.36
1217,G5,251.5,0.25,33,120.36
1218,C#5,251.75,0.25,34,120.36
1219,E4,252.0,2.0,46,120.36
1220,G4,252.0,0.25,54,120.36
1221,C5,252.25,0.25,42,120.36
1222,E5,252.5,0.25,44,120.36
1223,B-4,252.75,0.25,38,120.36
1224,G4,253.0,0.25,36,120.36
1225,C5,253.25,0.25,41,120.36
1226,E5,253.5,0.25,36,120.36
1227,B-4,253.75,0.25,37,120.36
1228,C#4,254.0,2.0,43,120.36
1229,E4,254.0,0.25,43,120.36
1230,A4,254.25,0.25,39,120.36
1231,C#5,254.5,0.25,40,120.36
1232,G4,254.75,0.25,35,120.36
1233,E4,255.0,0.25,34,120.36
1234,A4,255.25,0.25,38,120.36
1235,C#5,255.5,0.25,33,120.36
1236,G4,255.75,0.25,34,120.36
1237,G3,256.0,4.0,43,120.36
1238,E-4,256.25,0.25,37,120.36
1239,C#4,256.5,0.25,39,120.36
1240,E-4,256.75,0.25,34,120.36
1241,C#4,257.0,0.25,33,120.36
1242,E-4,257.25,0.25,37,120.36
1243,C#4,257.5,0.25,33,120.36
1244,E-4,257.75,0.25,34,120.36
1245,A4,258.0,0.25,46,120.36
1246,E-4,258.25,0.25,37,120.36
1247,C#4,258.5,0.25,38,120.36
1248,E-4,258.75,0.25,34,120.36
1249,G4,259.0,0.25,41,120.36
1250,E4,259.25,0.25,37,120.36
1251,C#4,259.5,0.25,33,120.36
1252,E4,259.75,0.25,34,120.36
1253,C#4,260.0,0.25,40,120.36
1254,G3,260.25,0.25,39,120.36
1255,C#4,260.5,0.25,35,120.36
1256,G3,260.75,0.25,34,120.36
1257,C#4,261.0,0.25,34,120.36
1258,G3,261.25,0.25,33,120.36
1259,C#4,261.5,0.25,33,120.36
1260,G3,261.75,0.25,33,120.36
1261,C#4,262.0,0.25,33,120.36
1262,G3,262.25,0.25,32,120.36
1263,C#4,262.5,0.25,31,120.36
1264,G3,262.75,0.25,30,120.36
1265,C#4,263.0,0.25,30,120.36
1266,G3,263.25,0.25,30,120.36
1267,C#4,263.5,0.25,30,120.36
1268,G3,263.75,0.188,30,120.36
1269,F#3,264.0,0.25,29,120.36
1270,C#4,264.25,0.25,23,120.36
1271,B-5,264.5,0.25,35,120.36
1272,F#3,264.5,0.25,25,120.36
1273,A5,264.75,0.25,35,120.36
1274,C#4,264.75,0.25,23,120.36
1275,B-5,265.0,0.25,40,120.36
1276,F#3,265.0,0.25,29,120.36
1277,C#4,265.25,0.25,23,120.36
1278,F#5,265.5,0.25,37,120.36
1279,F#3,265.5,0.25,25,120.36
1280,B-5,265.75,0.25,31,120.36
1281,C#4,265.75,0.25,23,120.36
1282,A5,266.0,0.25,38,120.36
1283,F#3,266.0,0.25,29,120.36
1284,B-5,266.25,0.25,41,120.36
1285,C#4,266.25,0.25,23,120.36
1286,C6,266.5,1.25,46,120.36
1287,F#3,266.5,0.25,25,120.36
1288,C#4,266.75,0.25,23,120.36
1289,F#3,267.0,0.25,29,120.36
1290,C#4,267.25,0.25,23,120.36
1291,F#3,267.5,0.25,25,120.36
1292,C#6,267.75,0.25,42,120.36
1293,C#4,267.75,0.25,23,120.36
1294,D6,268.0,0.75,51,120.36
1295,F#3,268.0,0.25,29,120.36
1296,C#4,268.25,0.25,23,120.36
1297,F#3,268.5,0.25,25,120.36
1298,E-6,268.75,0.25,51,120.36
1299,C#4,268.75,0.25,23,120.36
1300,E6,269.0,1.75,57,120.36
1301,F#4,269.0,0.25,29,120.36
1302,C#5,269.25,0.25,23,120.36
1303,F#4,269.5,0.25,25,120.36
1304,C#5,269.75,0.25,23,120.36
1305,F#4,270.0,0.5,36,120.36
1306,F6,270.75,0.25,49,120.36
1307,F#6,271.0,0.75,57,120.36
1308,G#6,271.75,0.25,46,120.36
1309,A6,272.0,0.25,32,120.36
1310,B-6,272.25,0.25,27,120.36
1311,A6,272.5,0.25,32,120.36
1312,B-6,272.75,0.25,28,120.36
1313,A6,273.0,0.25,32,120.36
1314,B-6,273.25,0.25,29,120.36
1315,A6,273.5,0.25,32,120.36
1316,B-6,273.75,0.25,28,120.36
1317,A6,274.0,0.25,32,120.36
1318,E4,274.0,0.5,26,120.36
1319,D4,274.0,2.0,26,120.36
1320,B6,274.25,0.25,29,120.36
1321,A6,274.5,0.25,32,120.36
1322,F4,274.5,0.5,23,120.36
1323,B6,274.75,0.25,28,120.36
1324,A6,275.0,0.25,32,120.36
1325,G4,275.0,0.5,20,120.36
1326,B6,275.25,0.25,28,120.36
1327,A6,275.5,0.25,32,120.36
1328,A4,275.5,0.5,20,120.36
1329,B6,275.75,0.25,28,120.36
1330,A6,276.0,0.25,32,120.36
1331,B-6,276.25,0.25,27,120.36
1332,A6,276.5,0.25,32,120.36
1333,B-6,276.75,0.25,28,120.36
1334,A6,277.0,0.25,32,120.36
1335,B-6,277.25,0.25,29,120.36
1336,A6,277.5,0.25,32,120.36
1337,B-6,277.75,0.25,28,120.36
1338,A6,278.0,0.25,32,120.36
1339,E5,278.0,0.5,26,120.36
1340,D5,278.0,2.0,26,120.36
1341,B6,278.25,0.25,29,120.36
1342,A6,278.5,0.25,32,120.36
1343,F5,278.5,0.5,23,120.36
1344,B6,278.75,0.25,28,120.36
1345,A6,279.0,0.25,32,120.36
1346,G5,279.0,0.5,20,120.36
1347,B6,279.25,0.25,28,120.36
1348,A6,279.5,0.25,32,120.36
1349,A5,279.5,0.5,20,120.36
1350,B6,279.75,0.25,28,120.36
1351,A6,280.0,0.25,32,120.36
1352,B-6,280.25,0.25,27,120.36
1353,A6,280.5,0.25,32,120.36
1354,B6,280.75,0.25,28,120.36
1355,A6,281.0,0.25,32,120.36
1356,A5,281.0,0.5,23,120.36
1357,D5,281.0,0.5,23,120.36
1358,B-6,281.25,0.25,29,120.36
1359,A6,281.5,0.25,32,120.36
1360,B6,281.75,0.25,28,120.36
1361,A6,282.0,0.25,32,120.36
1362,D6,282.0,0.5,23,120.36
1363,B-6,282.25,0.25,29,120.36
1364,A6,282.5,0.25,32,120.36
1365,B6,282.75,0.25,28,120.36
1366,A6,283.0,0.25,32,120.36
1367,D5,283.0,0.5,23,120.36
1368,A5,283.0,0.5,23,120.36
1369,B-6,283.25,0.25,28,120.36
1370,A6,283.5,0.25,32,120.36
1371,B6,283.75,0.25,28,120.36
1372,A6,284.0,0.25,32,120.36
1373,D6,284.0,0.5,23,120.36
1374,B-6,284.25,0.25,27,120.36
1375,A6,284.5,0.25,32,120.36
1376,B6,284.75,0.25,28,120.36
1377,A6,285.0,0.25,32,120.36
1378,A5,285.0,0.5,23,120.36
1379,D5,285.0,0.5,23,120.36
1380,B-6,285.25,0.25,29,120.36
1381,A6,285.5,0.25,32,120.36
1382,B6,285.75,0.25,28,120.36
1383,A6,286.0,0.25,32,120.36
1384,D6,286.0,0.5,23,120.36
1385,B-6,286.25,0.25,29,120.36
1386,A6,286.5,0.25,32,120.36
1387,B6,286.75,0.25,28,120.36
1388,A6,287.0,0.25,32,120.36
1389,D5,287.0,0.5,23,120.36
1390,A5,287.0,0.5,23,120.36
1391,B-6,287.25,0.25,28,120.36
1392,A6,287.5,0.25,32,120.36
1393,B6,287.75,0.25,28,120.36
1394,D6,288.0,4.0,23,120.36
1395,A6,288.125,3.875,30,120.36
1396,D7,288.25,3.75,36,120.36
1397,A7,288.375,3.625,40,120.36
