,note_name,start_time,duration,velocity,tempo
0,E5,1.0,0.25,36,69.18
1,E-5,1.25,0.25,33,69.18
2,E5,1.5,0.25,39,69.18
3,E-5,1.75,0.25,36,69.18
4,E5,2.0,0.25,45,69.18
5,B4,2.25,0.25,40,69.18
6,D5,2.5,0.25,47,69.18
7,C5,2.75,0.25,39,69.18
8,A4,3.0,0.5,51,69.18
9,A2,3.0,0.25,37,69.18
10,E3,3.25,0.25,33,69.18
11,A3,3.5,0.25,33,69.18
12,C4,3.75,0.25,34,69.18
13,E4,4.0,0.25,38,69.18
14,A4,4.25,0.25,42,69.18
15,B4,4.5,0.5,46,69.18
16,E2,4.5,0.25,40,69.18
17,E3,4.75,0.25,33,69.18
18,G#3,5.0,0.25,34,69.18
19,E4,5.25,0.25,36,69.18
20,G#4,5.5,0.25,39,69.18
21,B4,5.75,0.25,42,69.18
22,C5,6.0,0.5,45,69.18
23,A2,6.0,0.25,38,69.18
24,E3,6.25,0.25,35,69.18
25,A3,6.5,0.25,35,69.18
26,E4,6.75,0.25,35,69.18
27,E5,7.0,0.25,38,69.18
28,E-5,7.25,0.25,34,69.18
29,E5,7.5,0.25,41,69.18
30,E-5,7.75,0.25,37,69.18
31,E5,8.0,0.25,46,69.18
32,B4,8.25,0.25,39,69.18
33,D5,8.5,0.25,48,69.18
34,C5,8.75,0.25,39,69.18
35,A4,9.0,0.5,48,69.18
36,A2,9.0,0.25,36,69.18
37,E3,9.25,0.25,35,69.18
38,A3,9.5,0.25,34,69.18
39,C4,9.75,0.25,34,69.18
40,E4,10.0,0.25,37,69.18
41,A4,10.25,0.25,41,69.18
42,B4,10.5,0.5,45,69.18
43,E2,10.5,0.25,38,69.18
44,E3,10.75,0.25,35,69.18
45,G#3,11.0,0.25,36,69.18
46,E4,11.25,0.25,37,69.18
47,C5,11.5,0.25,40,69.18
48,B4,11.75,0.25,38,69.18
49,A4,12.0,0.5,40,69.18
50,A2,12.0,0.25,38,69.18
51,E3,12.25,0.25,32,69.18
52,A3,12.5,0.25,32,69.18
53,E5,13.0,0.25,36,69.18
54,E-5,13.25,0.25,33,69.18
55,E5,13.5,0.25,39,69.18
56,E-5,13.75,0.25,36,69.18
57,E5,14.0,0.25,45,69.18
58,B4,14.25,0.25,40,69.18
59,D5,14.5,0.25,47,69.18
60,C5,14.75,0.25,39,69.18
61,A4,15.0,0.5,51,69.18
62,A2,15.0,0.25,37,69.18
63,E3,15.25,0.25,33,69.18
64,A3,15.5,0.25,33,69.18
65,C4,15.75,0.25,34,69.18
66,E4,16.0,0.25,38,69.18
67,A4,16.25,0.25,42,69.18
68,B4,16.5,0.5,46,69.18
69,E2,16.5,0.25,40,69.18
70,E3,16.75,0.25,33,69.18
71,G#3,17.0,0.25,34,69.18
72,E4,17.25,0.25,36,69.18
73,G#4,17.5,0.25,39,69.18
74,B4,17.75,0.25,42,69.18
75,C5,18.0,0.5,45,69.18
76,A2,18.0,0.25,38,69.18
77,E3,18.25,0.25,35,69.18
78,A3,18.5,0.25,35,69.18
79,E4,18.75,0.25,35,69.18
80,E5,19.0,0.25,38,69.18
81,E-5,19.25,0.25,34,69.18
82,E5,19.5,0.25,41,69.18
83,E-5,19.75,0.25,37,69.18
84,E5,20.0,0.25,46,69.18
85,B4,20.25,0.25,39,69.18
86,D5,20.5,0.25,48,69.18
87,C5,20.75,0.25,39,69.18
88,A4,21.0,0.5,48,69.18
89,A2,21.0,0.25,38,69.18
90,E3,21.25,0.25,35,69.18
91,A3,21.5,0.25,34,69.18
92,C4,21.75,0.25,34,69.18
93,E4,22.0,0.25,37,69.18
94,A4,22.25,0.25,41,69.18
95,B4,22.5,0.5,45,69.18
96,E2,22.5,0.25,38,69.18
97,E3,22.75,0.25,37,69.18
98,G#3,23.0,0.25,37,69.18
99,E4,23.25,0.25,37,69.18
100,C5,23.5,0.25,40,69.18
101,B4,23.75,0.25,38,69.18
102,A4,24.0,0.5,40,69.18
103,A2,24.0,0.25,38,69.18
104,E3,24.25,0.25,32,69.18
105,A3,24.5,0.25,32,69.18
106,B4,24.75,0.25,42,69.18
107,C5,25.0,0.25,45,69.18
108,D5,25.25,0.25,48,69.18
109,E5,25.5,0.75,51,69.18
110,C3,25.5,0.25,44,69.18
111,G3,25.75,0.25,38,69.18
112,C4,26.0,0.25,39,69.18
113,G4,26.25,0.25,40,69.18
114,F5,26.5,0.25,46,69.18
115,E5,26.75,0.25,43,69.18
116,D5,27.0,0.75,50,69.18
117,G2,27.0,0.25,44,69.18
118,G3,27.25,0.25,38,69.18
119,B3,27.5,0.25,39,69.18
120,F4,27.75,0.25,40,69.18
121,E5,28.0,0.25,46,69.18
122,D5,28.25,0.25,43,69.18
123,C5,28.5,0.75,50,69.18
124,A2,28.5,0.25,44,69.18
125,E3,28.75,0.25,38,69.18
126,A3,29.0,0.25,39,69.18
127,E4,29.25,0.25,40,69.18
128,D5,29.5,0.25,46,69.18
129,C5,29.75,0.25,43,69.18
130,B4,30.0,0.5,50,69.18
131,E2,30.0,0.25,44,69.18
132,E3,30.25,0.25,38,69.18
133,E4,30.5,0.188,39,69.18
134,E4,30.75,0.25,39,69.18
135,E5,31.0,0.188,45,69.18
136,E4,31.25,0.25,39,69.18
137,E5,31.5,0.188,44,69.18
138,E5,31.75,0.25,43,69.18
139,E6,32.0,0.188,48,69.18
140,E-5,32.25,0.25,42,69.18
141,E5,32.5,0.188,50,69.18
142,E-5,32.75,0.25,42,69.18
143,E5,33.0,0.188,48,69.18
144,E-5,33.25,0.25,39,69.18
145,E5,33.5,0.188,41,69.18
146,E-5,33.75,0.25,35,69.18
147,E5,34.0,0.25,37,69.18
148,E-5,34.25,0.25,34,69.18
149,E5,34.5,0.25,40,69.18
150,E-5,34.75,0.25,36,69.18
151,E5,35.0,0.25,40,69.18
152,B4,35.25,0.25,35,69.18
153,D5,35.5,0.25,42,69.18
154,C5,35.75,0.25,37,69.18
155,A4,36.0,0.5,45,69.18
156,A2,36.0,0.25,36,69.18
157,E3,36.25,0.25,33,69.18
158,A3,36.5,0.25,33,69.18
159,C4,36.75,0.25,34,69.18
160,E4,37.0,0.25,38,69.18
161,A4,37.25,0.25,42,69.18
162,B4,37.5,0.5,46,69.18
163,E2,37.5,0.25,40,69.18
164,E3,37.75,0.25,33,69.18
165,G#3,38.0,0.25,34,69.18
166,E4,38.25,0.25,36,69.18
167,G#4,38.5,0.25,39,69.18
168,B4,38.75,0.25,42,69.18
169,C5,39.0,0.5,45,69.18
170,A2,39.0,0.25,38,69.18
171,E3,39.25,0.25,35,69.18
172,A3,39.5,0.25,35,69.18
173,E4,39.75,0.25,35,69.18
174,E5,40.0,0.25,38,69.18
175,E-5,40.25,0.25,34,69.18
176,E5,40.5,0.25,41,69.18
177,E-5,40.75,0.25,37,69.18
178,E5,41.0,0.25,46,69.18
179,B4,41.25,0.25,39,69.18
180,D5,41.5,0.25,48,69.18
181,C5,41.75,0.25,39,69.18
182,A4,42.0,0.5,46,69.18
183,A2,42.0,0.25,38,69.18
184,E3,42.25,0.25,35,69.18
185,A3,42.5,0.25,34,69.18
186,C4,42.75,0.25,34,69.18
187,E4,43.0,0.25,37,69.18
188,A4,43.25,0.25,41,69.18
189,B4,43.5,0.5,45,69.18
190,E2,43.5,0.25,38,69.18
191,E3,43.75,0.25,37,69.18
192,G#3,44.0,0.25,37,69.18
193,E4,44.25,0.25,37,69.18
194,C5,44.5,0.25,40,69.18
195,B4,44.75,0.25,38,69.18
196,A4,45.0,0.5,40,69.18
197,A2,45.0,0.25,38,69.18
198,E3,45.25,0.25,32,69.18
199,A3,45.5,0.25,32,69.18
200,B4,45.75,0.25,43,69.18
201,C5,46.0,0.25,45,69.18
202,D5,46.25,0.25,47,69.18
203,E5,46.5,0.75,50,69.18
204,C3,46.5,0.25,44,69.18
205,G3,46.75,0.25,38,69.18
206,C4,47.0,0.25,39,69.18
207,G4,47.25,0.25,40,69.18
208,F5,47.5,0.25,46,69.18
209,E5,47.75,0.25,43,69.18
210,D5,48.0,0.75,50,69.18
211,G2,48.0,0.25,44,69.18
212,G3,48.25,0.25,38,69.18
213,B3,48.5,0.25,39,69.18
214,F4,48.75,0.25,40,69.18
215,E5,49.0,0.25,46,69.18
216,D5,49.25,0.25,43,69.18
217,C5,49.5,0.75,50,69.18
218,A2,49.5,0.25,44,69.18
219,E3,49.75,0.25,38,69.18
220,A3,50.0,0.25,39,69.18
221,E4,50.25,0.25,40,69.18
222,D5,50.5,0.25,46,69.18
223,C5,50.75,0.25,43,69.18
224,B4,51.0,0.5,50,69.18
225,E2,51.0,0.25,44,69.18
226,E3,51.25,0.25,38,69.18
227,E4,51.5,0.188,39,69.18
228,E4,51.75,0.25,39,69.18
229,E5,52.0,0.188,45,69.18
230,E4,52.25,0.25,39,69.18
231,E5,52.5,0.188,44,69.18
232,E5,52.75,0.25,43,69.18
233,E6,53.0,0.188,48,69.18
234,E-5,53.25,0.25,42,69.18
235,E5,53.5,0.188,50,69.18
236,E-5,53.75,0.25,42,69.18
237,E5,54.0,0.188,48,69.18
238,E-5,54.25,0.25,39,69.18
239,E5,54.5,0.188,41,69.18
240,E-5,54.75,0.25,35,69.18
241,E5,55.0,0.25,37,69.18
242,E-5,55.25,0.25,34,69.18
243,E5,55.5,0.25,39,69.18
244,E-5,55.75,0.25,36,69.18
245,E5,56.0,0.25,39,69.18
246,B4,56.25,0.25,35,69.18
247,D5,56.5,0.25,40,69.18
248,C5,56.75,0.25,33,69.18
249,A4,57.0,0.5,46,69.18
250,A2,57.0,0.25,34,69.18
251,E3,57.25,0.25,32,69.18
252,A3,57.5,0.25,32,69.18
253,C4,57.75,0.25,34,69.18
254,E4,58.0,0.25,38,69.18
255,A4,58.25,0.25,42,69.18
256,B4,58.5,0.5,46,69.18
257,E2,58.5,0.25,38,69.18
258,E3,58.75,0.25,33,69.18
259,G#3,59.0,0.25,34,69.18
260,E4,59.25,0.25,36,69.18
261,G#4,59.5,0.25,39,69.18
262,B4,59.75,0.25,42,69.18
263,C5,60.0,0.5,45,69.18
264,A2,60.0,0.25,38,69.18
265,E3,60.25,0.25,35,69.18
266,A3,60.5,0.25,35,69.18
267,E4,60.75,0.25,35,69.18
268,E5,61.0,0.25,38,69.18
269,E-5,61.25,0.25,34,69.18
270,E5,61.5,0.25,41,69.18
271,E-5,61.75,0.25,37,69.18
272,E5,62.0,0.25,46,69.18
273,B4,62.25,0.25,39,69.18
274,D5,62.5,0.25,48,69.18
275,C5,62.75,0.25,39,69.18
276,A4,63.0,0.5,48,69.18
277,A2,63.0,0.25,38,69.18
278,E3,63.25,0.25,35,69.18
279,A3,63.5,0.25,34,69.18
280,C4,63.75,0.25,34,69.18
281,E4,64.0,0.25,37,69.18
282,A4,64.25,0.25,41,69.18
283,B4,64.5,0.5,45,69.18
284,E2,64.5,0.25,38,69.18
285,E3,64.75,0.25,37,69.18
286,G#3,65.0,0.25,37,69.18
287,E4,65.25,0.25,37,69.18
288,C5,65.5,0.25,40,69.18
289,B4,65.75,0.25,38,69.18
290,A4,66.0,0.5,40,69.18
291,A2,66.0,0.25,38,69.18
292,E3,66.25,0.25,32,69.18
293,A3,66.5,0.25,32,69.18
294,E4,66.75,0.188,43,69.18
295,C5,66.75,0.188,43,69.18
296,B-3,66.75,0.188,34,69.18
297,C4,66.75,0.188,34,69.18
298,F4,67.0,0.188,44,69.18
299,C5,67.0,0.188,44,69.18
300,A3,67.0,0.188,34,69.18
301,C4,67.0,0.188,34,69.18
302,E4,67.25,0.125,45,69.18
303,G4,67.25,0.125,45,69.18
304,C5,67.25,0.125,45,69.18
305,G3,67.25,0.125,34,69.18
306,B-3,67.25,0.125,34,69.18
307,C4,67.25,0.125,34,69.18
308,F4,67.375,0.062,43,69.18
309,A4,67.438,0.062,41,69.18
310,C5,67.5,1.0,55,69.18
311,F3,67.5,0.25,44,69.18
312,A3,67.75,0.25,38,69.18
313,C4,68.0,0.25,36,69.18
314,A3,68.25,0.25,37,69.18
315,F5,68.5,0.375,57,69.18
316,C4,68.5,0.25,37,69.18
317,A3,68.75,0.25,37,69.18
318,E5,68.875,121/1000,52,69.18
319,E5,69.0,0.5,57,69.18
320,F3,69.0,0.25,44,69.18
321,B-3,69.25,0.25,38,69.18
322,D5,69.5,0.5,51,69.18
323,D4,69.5,0.25,37,69.18
324,B-3,69.75,0.25,37,69.18
325,B-5,70.0,0.375,62,69.18
326,D4,70.0,0.25,37,69.18
327,B-3,70.25,0.25,38,69.18
328,A5,70.375,121/1000,56,69.18
329,A5,70.5,0.25,56,69.18
330,F3,70.5,0.25,44,69.18
331,G5,70.75,0.25,56,69.18
332,E4,70.75,0.25,37,69.18
333,F5,71.0,0.25,55,69.18
334,F3,71.0,0.25,36,69.18
335,B-3,71.0,0.25,36,69.18
336,G3,71.0,0.25,36,69.18
337,E5,71.25,0.25,55,69.18
338,E4,71.25,0.25,36,69.18
339,D5,71.5,0.25,55,69.18
340,F3,71.5,0.25,36,69.18
341,G3,71.5,0.25,36,69.18
342,B-3,71.5,0.25,36,69.18
343,C5,71.75,0.25,54,69.18
344,E4,71.75,0.25,36,69.18
345,B-4,72.0,0.5,54,69.18
346,F3,72.0,0.25,44,69.18
347,A3,72.25,0.25,36,69.18
348,A4,72.5,0.438,51,69.18
349,C4,72.5,0.25,36,69.18
350,A3,72.75,0.25,36,69.18
351,B-4,72.938,0.062,44,69.18
352,A4,73.0,0.125,49,69.18
353,C4,73.0,0.25,36,69.18
354,G4,73.125,0.125,50,69.18
355,A4,73.25,0.125,51,69.18
356,A3,73.25,0.25,36,69.18
357,B-4,73.375,0.125,52,69.18
358,C5,73.5,1.0,54,69.18
359,F3,73.5,0.25,42,69.18
360,A3,73.75,0.25,34,69.18
361,C4,74.0,0.25,35,69.18
362,A3,74.25,0.25,36,69.18
363,D5,74.5,0.25,55,69.18
364,C4,74.5,0.25,38,69.18
365,E-5,74.75,0.25,57,69.18
366,A3,74.75,0.25,39,69.18
367,E5,75.0,0.75,59,69.18
368,E3,75.0,0.25,49,69.18
369,A3,75.25,0.25,38,69.18
370,C4,75.5,0.25,38,69.18
371,E5,75.75,0.25,58,69.18
372,A3,75.75,0.25,38,69.18
373,F5,76.0,0.25,63,69.18
374,D3,76.0,0.25,38,69.18
375,D4,76.0,0.25,38,69.18
376,A4,76.25,0.25,58,69.18
377,F3,76.25,0.25,38,69.18
378,C5,76.5,1.0,64,69.18
379,G3,76.5,0.25,47,69.18
380,E4,76.75,0.25,38,69.18
381,G3,77.0,0.25,40,69.18
382,E4,77.25,0.25,38,69.18
383,D5,77.5,0.375,64,69.18
384,G3,77.5,0.25,41,69.18
385,F4,77.75,0.25,38,69.18
386,B4,77.875,0.125,57,69.18
387,C5,78.0,0.125,64,69.18
388,C4,78.0,0.5,45,69.18
389,E4,78.0,0.5,45,69.18
390,G5,78.125,0.125,57,69.18
391,G4,78.25,0.125,64,69.18
392,G5,78.375,0.125,57,69.18
393,A4,78.5,0.125,64,69.18
394,G5,78.625,0.125,63,69.18
395,B4,78.75,0.125,66,69.18
396,F4,78.75,0.188,40,69.18
397,G4,78.75,0.188,40,69.18
398,G5,78.875,0.125,63,69.18
399,C5,79.0,0.125,68,69.18
400,E4,79.0,0.188,43,69.18
401,G4,79.0,0.188,43,69.18
402,G5,79.125,0.125,66,69.18
403,D5,79.25,0.125,70,69.18
404,D4,79.25,0.188,46,69.18
405,F4,79.25,0.188,46,69.18
406,G4,79.25,0.188,46,69.18
407,G5,79.375,0.125,65,69.18
408,E5,79.5,0.125,72,69.18
409,C4,79.5,0.5,49,69.18
410,E4,79.5,0.5,49,69.18
411,G4,79.5,0.5,49,69.18
412,G5,79.625,0.125,63,69.18
413,C6,79.75,0.125,67,69.18
414,B5,79.875,0.125,62,69.18
415,A5,80.0,0.125,67,69.18
416,F3,80.0,0.5,42,69.18
417,A3,80.0,0.5,42,69.18
418,G5,80.125,0.125,62,69.18
419,F5,80.25,0.125,67,69.18
420,E5,80.375,0.125,61,69.18
421,D5,80.5,0.125,69,69.18
422,G3,80.5,0.5,42,69.18
423,B3,80.5,0.5,42,69.18
424,G5,80.625,0.125,63,69.18
425,F5,80.75,0.125,69,69.18
426,D5,80.875,0.125,64,69.18
427,C5,81.0,0.125,64,69.18
428,C4,81.0,0.5,45,69.18
429,G5,81.125,0.125,57,69.18
430,G4,81.25,0.125,64,69.18
431,G5,81.375,0.125,57,69.18
432,A4,81.5,0.125,64,69.18
433,G5,81.625,0.125,63,69.18
434,B4,81.75,0.125,66,69.18
435,F4,81.75,0.188,40,69.18
436,G4,81.75,0.188,40,69.18
437,G5,81.875,0.125,63,69.18
438,C5,82.0,0.125,68,69.18
439,E4,82.0,0.188,43,69.18
440,G4,82.0,0.188,43,69.18
441,G5,82.125,0.125,66,69.18
442,D5,82.25,0.125,70,69.18
443,D4,82.25,0.188,46,69.18
444,F4,82.25,0.188,46,69.18
445,G4,82.25,0.188,46,69.18
446,G5,82.375,0.125,65,69.18
447,E5,82.5,0.125,72,69.18
448,C4,82.5,0.5,49,69.18
449,E4,82.5,0.5,49,69.18
450,G4,82.5,0.5,49,69.18
451,G5,82.625,0.125,65,69.18
452,C6,82.75,0.125,69,69.18
453,B5,82.875,0.125,64,69.18
454,A5,83.0,0.125,70,69.18
455,F3,83.0,0.5,42,69.18
456,A3,83.0,0.5,42,69.18
457,G5,83.125,0.125,60,69.18
458,F5,83.25,0.125,64,69.18
459,E5,83.375,0.125,55,69.18
460,D5,83.5,0.125,65,69.18
461,G3,83.5,0.5,42,69.18
462,B3,83.5,0.5,42,69.18
463,G5,83.625,0.125,57,69.18
464,F5,83.75,0.125,63,69.18
465,D5,83.875,0.125,53,69.18
466,E5,84.0,0.125,57,69.18
467,B3,84.0,0.5,42,69.18
468,G#3,84.0,0.5,42,69.18
469,F5,84.125,0.125,50,69.18
470,E5,84.25,0.125,50,69.18
471,E-5,84.375,0.125,50,69.18
472,E5,84.5,0.125,57,69.18
473,B4,84.625,0.125,49,69.18
474,E5,84.75,0.125,54,69.18
475,E-5,84.875,0.125,52,69.18
476,E5,85.0,0.125,57,69.18
477,B4,85.125,0.125,51,69.18
478,E5,85.25,0.125,54,69.18
479,E-5,85.375,0.125,49,69.18
480,E5,85.5,0.75,57,69.18
481,B4,86.25,0.25,52,69.18
482,E5,86.5,0.25,57,69.18
483,E-5,86.75,0.25,49,69.18
484,E5,87.0,0.75,56,69.18
485,B4,87.75,0.25,42,69.18
486,E5,88.0,0.188,50,69.18
487,E-5,88.25,0.25,42,69.18
488,E5,88.5,0.188,48,69.18
489,E-5,88.75,0.25,39,69.18
490,E5,89.0,0.188,41,69.18
491,E-5,89.25,0.25,35,69.18
492,E5,89.5,0.188,37,69.18
493,E-5,89.75,0.25,34,69.18
494,E5,90.0,0.25,40,69.18
495,E-5,90.25,0.25,36,69.18
496,E5,90.5,0.25,40,69.18
497,B4,90.75,0.25,36,69.18
498,D5,91.0,0.25,43,69.18
499,C5,91.25,0.25,35,69.18
500,A4,91.5,0.5,45,69.18
501,A2,91.5,0.25,35,69.18
502,E3,91.75,0.25,31,69.18
503,A3,92.0,0.25,31,69.18
504,C4,92.25,0.25,34,69.18
505,E4,92.5,0.25,38,69.18
506,A4,92.75,0.25,42,69.18
507,B4,93.0,0.5,46,69.18
508,E2,93.0,0.25,40,69.18
509,E3,93.25,0.25,33,69.18
510,G#3,93.5,0.25,34,69.18
511,E4,93.75,0.25,36,69.18
512,G#4,94.0,0.25,39,69.18
513,B4,94.25,0.25,42,69.18
514,C5,94.5,0.5,45,69.18
515,A2,94.5,0.25,38,69.18
516,E3,94.75,0.25,35,69.18
517,A3,95.0,0.25,35,69.18
518,E4,95.25,0.25,35,69.18
519,E5,95.5,0.25,38,69.18
520,E-5,95.75,0.25,34,69.18
521,E5,96.0,0.25,41,69.18
522,E-5,96.25,0.25,37,69.18
523,E5,96.5,0.25,46,69.18
524,B4,96.75,0.25,39,69.18
525,D5,97.0,0.25,48,69.18
526,C5,97.25,0.25,39,69.18
527,A4,97.5,0.5,48,69.18
528,A2,97.5,0.25,38,69.18
529,E3,97.75,0.25,35,69.18
530,A3,98.0,0.25,34,69.18
531,C4,98.25,0.25,34,69.18
532,E4,98.5,0.25,37,69.18
533,A4,98.75,0.25,41,69.18
534,B4,99.0,0.5,45,69.18
535,E2,99.0,0.25,38,69.18
536,E3,99.25,0.25,37,69.18
537,G#3,99.5,0.25,37,69.18
538,E4,99.75,0.25,37,69.18
539,C5,100.0,0.25,40,69.18
540,B4,100.25,0.25,38,69.18
541,A4,100.5,0.5,40,69.18
542,A2,100.5,0.25,38,69.18
543,E3,100.75,0.25,32,69.18
544,A3,101.0,0.25,32,69.18
545,B4,101.25,0.25,44,69.18
546,C5,101.5,0.25,46,69.18
547,D5,101.75,0.25,48,69.18
548,E5,102.0,0.75,52,69.18
549,C3,102.0,0.25,44,69.18
550,G3,102.25,0.25,38,69.18
551,C4,102.5,0.25,39,69.18
552,G4,102.75,0.25,40,69.18
553,F5,103.0,0.25,46,69.18
554,E5,103.25,0.25,43,69.18
555,D5,103.5,0.75,50,69.18
556,G2,103.5,0.25,44,69.18
557,G3,103.75,0.25,38,69.18
558,B3,104.0,0.25,39,69.18
559,F4,104.25,0.25,40,69.18
560,E5,104.5,0.25,46,69.18
561,D5,104.75,0.25,43,69.18
562,C5,105.0,0.75,50,69.18
563,A2,105.0,0.25,44,69.18
564,E3,105.25,0.25,38,69.18
565,A3,105.5,0.25,39,69.18
566,E4,105.75,0.25,40,69.18
567,D5,106.0,0.25,46,69.18
568,C5,106.25,0.25,43,69.18
569,B4,106.5,0.5,50,69.18
570,E2,106.5,0.25,44,69.18
571,E3,106.75,0.25,38,69.18
572,E4,107.0,0.188,39,69.18
573,E4,107.25,0.25,39,69.18
574,E5,107.5,0.188,45,69.18
575,E4,107.75,0.25,39,69.18
576,E5,108.0,0.188,44,69.18
577,E5,108.25,0.25,43,69.18
578,E6,108.5,0.188,48,69.18
579,E-5,108.75,0.25,42,69.18
580,E5,109.0,0.188,50,69.18
581,E-5,109.25,0.25,42,69.18
582,E5,109.5,0.188,48,69.18
583,E-5,109.75,0.25,39,69.18
584,E5,110.0,0.188,41,69.18
585,E-5,110.25,0.25,35,69.18
586,E5,110.5,0.25,37,69.18
587,E-5,110.75,0.25,34,69.18
588,E5,111.0,0.25,40,69.18
589,E-5,111.25,0.25,36,69.18
590,E5,111.5,0.25,43,69.18
591,B4,111.75,0.25,38,69.18
592,D5,112.0,0.25,44,69.18
593,C5,112.25,0.25,38,69.18
594,A4,112.5,0.5,47,69.18
595,A2,112.5,0.25,35,69.18
596,E3,112.75,0.25,33,69.18
597,A3,113.0,0.25,33,69.18
598,C4,113.25,0.25,34,69.18
599,E4,113.5,0.25,38,69.18
600,A4,113.75,0.25,42,69.18
601,B4,114.0,0.5,46,69.18
602,E2,114.0,0.25,37,69.18
603,E3,114.25,0.25,33,69.18
604,G#3,114.5,0.25,34,69.18
605,E4,114.75,0.25,36,69.18
606,G#4,115.0,0.25,39,69.18
607,B4,115.25,0.25,42,69.18
608,C5,115.5,0.5,45,69.18
609,A2,115.5,0.25,38,69.18
610,E3,115.75,0.25,33,69.18
611,A3,116.0,0.25,33,69.18
612,E4,116.25,0.25,35,69.18
613,E5,116.5,0.25,38,69.18
614,E-5,116.75,0.25,34,69.18
615,E5,117.0,0.25,41,69.18
616,E-5,117.25,0.25,37,69.18
617,E5,117.5,0.25,41,69.18
618,B4,117.75,0.25,34,69.18
619,D5,118.0,0.25,45,69.18
620,C5,118.25,0.25,36,69.18
621,A4,118.5,0.5,46,69.18
622,A2,118.5,0.25,36,69.18
623,E3,118.75,0.25,35,69.18
624,A3,119.0,0.25,34,69.18
625,C4,119.25,0.25,34,69.18
626,E4,119.5,0.25,37,69.18
627,A4,119.75,0.25,41,69.18
628,B4,120.0,0.5,45,69.18
629,E2,120.0,0.25,38,69.18
630,E3,120.25,0.25,37,69.18
631,G#3,120.5,0.25,37,69.18
632,E4,120.75,0.25,37,69.18
633,C5,121.0,0.25,40,69.18
634,B4,121.25,0.25,38,69.18
635,A4,121.5,0.5,40,69.18
636,A2,121.5,0.188,38,69.18
637,A2,121.75,0.188,35,69.18
638,A2,122.0,0.188,38,69.18
639,A2,122.25,0.188,34,69.18
640,A2,122.5,0.188,38,69.18
641,A2,122.75,0.188,35,69.18
642,A2,123.0,0.188,44,69.18
643,E4,123.0,1.5,47,69.18
644,G4,123.0,1.5,47,69.18
645,B-4,123.0,1.5,47,69.18
646,C#5,123.0,1.5,47,69.18
647,A2,123.25,0.188,38,69.18
648,A2,123.5,0.188,45,69.18
649,A2,123.75,0.188,39,69.18
650,A2,124.0,0.188,46,69.18
651,A2,124.25,0.188,40,69.18
652,A2,124.5,0.188,47,69.18
653,F4,124.5,1.0,52,69.18
654,A4,124.5,1.0,52,69.18
655,D5,124.5,1.0,52,69.18
656,A2,124.75,0.188,42,69.18
657,A2,125.0,0.188,48,69.18
658,A2,125.25,0.188,43,69.18
659,A2,125.5,0.188,50,69.18
660,C#5,125.5,0.188,59,69.18
661,E5,125.5,0.188,59,69.18
662,A2,125.75,0.188,47,69.18
663,D5,125.75,0.188,64,69.18
664,F5,125.75,0.188,64,69.18
665,A2,126.0,0.188,53,69.18
666,G#4,126.0,1.0,69,69.18
667,D5,126.0,1.0,69,69.18
668,F5,126.0,1.0,69,69.18
669,A2,126.25,0.188,48,69.18
670,A2,126.5,0.188,53,69.18
671,A2,126.75,0.188,50,69.18
672,A2,127.0,0.188,54,69.18
673,G#4,127.0,0.5,67,69.18
674,D5,127.0,0.5,67,69.18
675,F5,127.0,0.5,67,69.18
676,A2,127.25,0.188,50,69.18
677,A2,127.5,0.188,55,69.18
678,A4,127.5,1.5,64,69.18
679,C5,127.5,1.5,64,69.18
680,E5,127.5,1.5,64,69.18
681,A2,127.75,0.188,49,69.18
682,A2,128.0,0.188,55,69.18
683,A2,128.25,0.188,51,69.18
684,A2,128.5,0.188,55,69.18
685,A2,128.75,0.188,52,69.18
686,F4,129.0,1.0,76,69.18
687,D5,129.0,1.0,76,69.18
688,D2,129.0,0.188,55,69.18
689,A2,129.0,0.188,55,69.18
690,D2,129.25,0.188,50,69.18
691,A2,129.25,0.188,50,69.18
692,D2,129.5,0.188,54,69.18
693,A2,129.5,0.188,54,69.18
694,D2,129.75,0.188,50,69.18
695,A2,129.75,0.188,50,69.18
696,E4,130.0,0.188,67,69.18
697,C5,130.0,0.188,67,69.18
698,D2,130.0,0.188,52,69.18
699,A2,130.0,0.188,52,69.18
700,D4,130.25,0.188,67,69.18
701,B4,130.25,0.188,67,69.18
702,D2,130.25,0.188,48,69.18
703,A2,130.25,0.188,48,69.18
704,C4,130.5,1.0,71,69.18
705,F#4,130.5,1.0,71,69.18
706,A4,130.5,1.0,71,69.18
707,E-2,130.5,0.188,50,69.18
708,A2,130.5,0.188,50,69.18
709,E-2,130.75,0.188,46,69.18
710,A2,130.75,0.188,46,69.18
711,E-2,131.0,0.188,49,69.18
712,A2,131.0,0.188,49,69.18
713,E-2,131.25,0.188,45,69.18
714,A2,131.25,0.188,45,69.18
715,C4,131.5,0.5,72,69.18
716,A4,131.5,0.5,72,69.18
717,E-2,131.5,0.188,46,69.18
718,A2,131.5,0.188,46,69.18
719,E-2,131.75,0.188,46,69.18
720,A2,131.75,0.188,46,69.18
721,C4,132.0,0.5,74,69.18
722,A4,132.0,0.5,74,69.18
723,E2,132.0,0.188,52,69.18
724,A2,132.0,0.188,52,69.18
725,E2,132.25,0.188,45,69.18
726,A2,132.25,0.188,45,69.18
727,E4,132.5,0.5,72,69.18
728,C5,132.5,0.5,72,69.18
729,E2,132.5,0.188,48,69.18
730,A2,132.5,0.188,48,69.18
731,E2,132.75,0.188,45,69.18
732,A2,132.75,0.188,45,69.18
733,D4,133.0,0.5,67,69.18
734,B4,133.0,0.5,67,69.18
735,G#2,133.0,0.188,46,69.18
736,E2,133.0,0.188,46,69.18
737,G#2,133.25,0.188,46,69.18
738,E2,133.25,0.188,46,69.18
739,C4,133.5,1.5,62,69.18
740,A4,133.5,1.5,62,69.18
741,A1,133.5,0.188,46,69.18
742,A2,133.5,0.188,46,69.18
743,A2,133.75,0.188,42,69.18
744,A2,134.0,0.188,45,69.18
745,A2,134.25,0.188,42,69.18
746,A2,134.5,0.188,44,69.18
747,A2,134.75,0.188,42,69.18
748,A2,135.0,0.188,44,69.18
749,E4,135.0,1.5,47,69.18
750,G4,135.0,1.5,47,69.18
751,B-4,135.0,1.5,47,69.18
752,C#5,135.0,1.5,47,69.18
753,A2,135.25,0.188,38,69.18
754,A2,135.5,0.188,45,69.18
755,A2,135.75,0.188,39,69.18
756,A2,136.0,0.188,46,69.18
757,A2,136.25,0.188,40,69.18
758,A2,136.5,0.188,47,69.18
759,F4,136.5,1.0,52,69.18
760,A4,136.5,1.0,52,69.18
761,D5,136.5,1.0,52,69.18
762,A2,136.75,0.188,42,69.18
763,A2,137.0,0.188,48,69.18
764,A2,137.25,0.188,43,69.18
765,A2,137.5,0.188,50,69.18
766,C#5,137.5,0.188,59,69.18
767,E5,137.5,0.188,59,69.18
768,A2,137.75,0.188,47,69.18
769,D5,137.75,0.188,64,69.18
770,F5,137.75,0.188,64,69.18
771,A2,138.0,0.188,53,69.18
772,D5,138.0,1.0,71,69.18
773,F5,138.0,1.0,71,69.18
774,A2,138.25,0.188,48,69.18
775,A2,138.5,0.188,53,69.18
776,A2,138.75,0.188,50,69.18
777,A2,139.0,0.188,54,69.18
778,D5,139.0,0.5,69,69.18
779,F5,139.0,0.5,69,69.18
780,A2,139.25,0.188,50,69.18
781,B-2,139.5,0.188,55,69.18
782,D5,139.5,1.5,66,69.18
783,F5,139.5,1.5,66,69.18
784,B-2,139.75,0.188,49,69.18
785,B-2,140.0,0.188,55,69.18
786,B-2,140.25,0.188,51,69.18
787,B-2,140.5,0.188,55,69.18
788,B-2,140.75,0.188,52,69.18
789,B-2,141.0,0.188,60,69.18
790,G4,141.0,1.0,76,69.18
791,E-5,141.0,1.0,76,69.18
792,B-2,141.25,0.188,55,69.18
793,B-2,141.5,0.188,58,69.18
794,B-2,141.75,0.188,55,69.18
795,B-2,142.0,0.188,57,69.18
796,F4,142.0,0.188,67,69.18
797,D5,142.0,0.188,67,69.18
798,B-2,142.25,0.188,52,69.18
799,E-4,142.25,0.188,67,69.18
800,C5,142.25,0.188,67,69.18
801,B-2,142.5,0.188,55,69.18
802,D4,142.5,1.0,71,69.18
803,F4,142.5,1.0,71,69.18
804,B-4,142.5,1.0,71,69.18
805,B-2,142.75,0.188,50,69.18
806,B-2,143.0,0.188,53,69.18
807,B-2,143.25,0.188,49,69.18
808,B-2,143.5,0.188,51,69.18
809,F4,143.5,0.5,70,69.18
810,D4,143.5,0.5,70,69.18
811,A4,143.5,0.5,70,69.18
812,B-2,143.75,0.188,50,69.18
813,B2,144.0,0.188,56,69.18
814,F4,144.0,1.0,72,69.18
815,D4,144.0,1.0,72,69.18
816,G#4,144.0,1.0,72,69.18
817,B2,144.25,0.188,49,69.18
818,B2,144.5,0.188,52,69.18
819,B2,144.75,0.188,49,69.18
820,B2,145.0,0.188,50,69.18
821,F4,145.0,0.5,65,69.18
822,D4,145.0,0.5,65,69.18
823,G#4,145.0,0.5,65,69.18
824,B2,145.25,0.188,50,69.18
825,C3,145.5,1.0,55,69.18
826,E4,145.5,1.0,65,69.18
827,C4,145.5,1.0,65,69.18
828,A4,145.5,1.0,65,69.18
829,E4,147.0,0.5,54,69.18
830,B4,147.0,0.5,54,69.18
831,E3,147.0,0.5,42,69.18
832,G#3,147.0,0.5,42,69.18
833,A3,148.5,167/1000,42,69.18
834,A1,148.5,0.5,35,69.18
835,C4,148.667,167/1000,44,69.18
836,E4,148.833,167/1000,45,69.18
837,A4,149.0,167/1000,47,69.18
838,C5,149.167,167/1000,43,69.18
839,E5,149.333,167/1000,43,69.18
840,D5,149.5,167/1000,47,69.18
841,E4,149.5,0.5,29,69.18
842,C4,149.5,0.5,29,69.18
843,A3,149.5,0.5,29,69.18
844,C5,149.667,167/1000,43,69.18
845,B4,149.833,167/1000,43,69.18
846,A4,150.0,167/1000,45,69.18
847,E4,150.0,0.5,30,69.18
848,C4,150.0,0.5,30,69.18
849,A3,150.0,0.5,30,69.18
850,C5,150.167,167/1000,47,69.18
851,E5,150.333,167/1000,48,69.18
852,A5,150.5,167/1000,50,69.18
853,C6,150.667,167/1000,47,69.18
854,E6,150.833,167/1000,47,69.18
855,D6,151.0,167/1000,52,69.18
856,E4,151.0,0.5,29,69.18
857,C4,151.0,0.5,29,69.18
858,A3,151.0,0.5,29,69.18
859,C6,151.167,167/1000,47,69.18
860,B5,151.333,167/1000,47,69.18
861,A5,151.5,167/1000,49,69.18
862,E4,151.5,0.5,30,69.18
863,C4,151.5,0.5,30,69.18
864,A3,151.5,0.5,30,69.18
865,C6,151.667,167/1000,51,69.18
866,E6,151.833,167/1000,53,69.18
867,A6,152.0,167/1000,53,69.18
868,C7,152.167,167/1000,50,69.18
869,E7,152.333,167/1000,50,69.18
870,D7,152.5,167/1000,54,69.18
871,E4,152.5,0.5,29,69.18
872,C4,152.5,0.5,29,69.18
873,A3,152.5,0.5,29,69.18
874,C7,152.667,167/1000,49,69.18
875,B6,152.833,167/1000,50,69.18
876,B-6,153.0,167/1000,54,69.18
877,E4,153.0,0.5,30,69.18
878,C4,153.0,0.5,30,69.18
879,A3,153.0,0.5,30,69.18
880,A6,153.167,167/1000,50,69.18
881,G#6,153.333,167/1000,49,69.18
882,G6,153.5,167/1000,51,69.18
883,F#6,153.667,167/1000,49,69.18
884,F6,153.833,167/1000,48,69.18
885,E6,154.0,167/1000,51,69.18
886,E-6,154.167,167/1000,49,69.18
887,D6,154.333,167/1000,50,69.18
888,C#6,154.5,167/1000,50,69.18
889,C6,154.667,167/1000,49,69.18
890,B5,154.833,167/1000,49,69.18
891,B-5,155.0,167/1000,48,69.18
892,A5,155.167,167/1000,48,69.18
893,G#5,155.333,167/1000,47,69.18
894,G5,155.5,167/1000,47,69.18
895,F#5,155.667,167/1000,46,69.18
896,F5,155.833,167/1000,46,69.18
897,E5,156.0,0.25,39,69.18
898,E-5,156.25,0.25,36,69.18
899,E5,156.5,0.25,41,69.18
900,B4,156.75,0.25,35,69.18
901,D5,157.0,0.25,43,69.18
902,C5,157.25,0.25,39,69.18
903,A4,157.5,0.5,46,69.18
904,A2,157.5,0.25,37,69.18
905,E3,157.75,0.25,33,69.18
906,A3,158.0,0.25,33,69.18
907,C4,158.25,0.25,34,69.18
908,E4,158.5,0.25,38,69.18
909,A4,158.75,0.25,42,69.18
910,B4,159.0,0.5,46,69.18
911,E2,159.0,0.25,40,69.18
912,E3,159.25,0.25,33,69.18
913,G#3,159.5,0.25,34,69.18
914,E4,159.75,0.25,36,69.18
915,G#4,160.0,0.25,39,69.18
916,B4,160.25,0.25,42,69.18
917,C5,160.5,0.5,45,69.18
918,A2,160.5,0.25,38,69.18
919,E3,160.75,0.25,35,69.18
920,A3,161.0,0.25,35,69.18
921,E4,161.25,0.25,35,69.18
922,E5,161.5,0.25,38,69.18
923,E-5,161.75,0.25,34,69.18
924,E5,162.0,0.25,41,69.18
925,E-5,162.25,0.25,37,69.18
926,E5,162.5,0.25,46,69.18
927,B4,162.75,0.25,39,69.18
928,D5,163.0,0.25,48,69.18
929,C5,163.25,0.25,39,69.18
930,A4,163.5,0.5,48,69.18
931,A2,163.5,0.25,38,69.18
932,E3,163.75,0.25,35,69.18
933,A3,164.0,0.25,34,69.18
934,C4,164.25,0.25,34,69.18
935,E4,164.5,0.25,37,69.18
936,A4,164.75,0.25,41,69.18
937,B4,165.0,0.5,45,69.18
938,E2,165.0,0.25,38,69.18
939,E3,165.25,0.25,37,69.18
940,G#3,165.5,0.25,37,69.18
941,E4,165.75,0.25,37,69.18
942,C5,166.0,0.25,40,69.18
943,B4,166.25,0.25,38,69.18
944,A4,166.5,0.5,40,69.18
945,A2,166.5,0.25,38,69.18
946,E3,166.75,0.25,32,69.18
947,A3,167.0,0.25,32,69.18
948,B4,167.25,0.25,38,69.18
949,C5,167.5,0.25,42,69.18
950,D5,167.75,0.25,46,69.18
951,E5,168.0,0.75,50,69.18
952,C3,168.0,0.25,44,69.18
953,G3,168.25,0.25,38,69.18
954,C4,168.5,0.25,39,69.18
955,G4,168.75,0.25,40,69.18
956,F5,169.0,0.25,46,69.18
957,E5,169.25,0.25,43,69.18
958,D5,169.5,0.75,50,69.18
959,G2,169.5,0.25,44,69.18
960,G3,169.75,0.25,38,69.18
961,B3,170.0,0.25,39,69.18
962,F4,170.25,0.25,40,69.18
963,E5,170.5,0.25,46,69.18
964,D5,170.75,0.25,43,69.18
965,C5,171.0,0.75,50,69.18
966,A2,171.0,0.25,44,69.18
967,E3,171.25,0.25,38,69.18
968,A3,171.5,0.25,39,69.18
969,E4,171.75,0.25,40,69.18
970,D5,172.0,0.25,46,69.18
971,C5,172.25,0.25,43,69.18
972,B4,172.5,0.5,50,69.18
973,E2,172.5,0.25,44,69.18
974,E3,172.75,0.25,38,69.18
975,E4,173.0,0.188,39,69.18
976,E4,173.25,0.25,39,69.18
977,E5,173.5,0.188,45,69.18
978,E4,173.75,0.25,39,69.18
979,E5,174.0,0.188,44,69.18
980,E5,174.25,0.25,43,69.18
981,E6,174.5,0.188,48,69.18
982,E-5,174.75,0.25,42,69.18
983,E5,175.0,0.188,50,69.18
984,E-5,175.25,0.25,42,69.18
985,E5,175.5,0.188,48,69.18
986,E-5,175.75,0.25,39,69.18
987,E5,176.0,0.188,41,69.18
988,E-5,176.25,0.25,35,69.18
989,E5,176.5,0.25,37,69.18
990,E-5,176.75,0.25,34,69.18
991,E5,177.0,0.25,40,69.18
992,E-5,177.25,0.25,36,69.18
993,E5,177.5,0.25,42,69.18
994,B4,177.75,0.25,36,69.18
995,D5,178.0,0.25,43,69.18
996,C5,178.25,0.25,35,69.18
997,A4,178.5,0.5,48,69.18
998,A2,178.5,0.25,36,69.18
999,E3,178.75,0.25,33,69.18
1000,A3,179.0,0.25,33,69.18
1001,C4,179.25,0.25,34,69.18
1002,E4,179.5,0.25,38,69.18
1003,A4,179.75,0.25,42,69.18
1004,B4,180.0,0.5,46,69.18
1005,E2,180.0,0.25,40,69.18
1006,E3,180.25,0.25,33,69.18
1007,G#3,180.5,0.25,34,69.18
1008,E4,180.75,0.25,36,69.18
1009,G#4,181.0,0.25,39,69.18
1010,B4,181.25,0.25,42,69.18
1011,C5,181.5,0.5,45,69.18
1012,A2,181.5,0.25,38,69.18
1013,E3,181.75,0.25,35,69.18
1014,A3,182.0,0.25,35,69.18
1015,E4,182.25,0.25,35,69.18
1016,E5,182.5,0.25,38,69.18
1017,E-5,182.75,0.25,34,69.18
1018,E5,183.0,0.25,41,69.18
1019,E-5,183.25,0.25,37,69.18
1020,E5,183.5,0.25,46,69.18
1021,B4,183.75,0.25,39,69.18
1022,D5,184.0,0.25,48,69.18
1023,C5,184.25,0.25,39,69.18
1024,A4,184.5,0.5,48,69.18
1025,A2,184.5,0.25,38,69.18
1026,E3,184.75,0.25,35,69.18
1027,A3,185.0,0.25,34,69.18
1028,C4,185.25,0.25,34,69.18
1029,E4,185.5,0.25,37,69.18
1030,A4,185.75,0.25,41,69.18
1031,B4,186.0,0.5,45,69.18
1032,E2,186.0,0.25,38,69.18
1033,E3,186.25,0.25,37,69.18
1034,G#3,186.5,0.25,37,69.18
1035,E4,186.75,0.25,37,69.18
1036,C5,187.0,0.25,40,69.18
1037,B4,187.25,0.25,38,69.18
1038,A4,187.5,0.5,36,69.18
1039,A1,187.5,0.5,21,69.18
1040,A2,187.5,0.5,21,69.18
