,note_name,start_time,duration,velocity,tempo
0,D4,0.0,1.0,82,200.0
1,D2,0.0,1.0,55,200.0
2,D3,0.0,1.0,55,200.0
3,E4,1.0,0.25,78,200.0
4,E3,1.0,0.25,52,200.0
5,E2,1.0,0.25,52,200.0
6,D4,1.5,0.25,75,200.0
7,D3,1.5,0.25,50,200.0
8,D2,1.5,0.25,50,200.0
9,C#4,2.0,0.25,79,200.0
10,C#2,2.0,0.25,54,200.0
11,C#3,2.0,0.25,54,200.0
12,D4,2.5,0.25,73,200.0
13,D2,2.5,0.25,49,200.0
14,D3,2.5,0.25,49,200.0
15,E4,3.0,0.25,81,200.0
16,E3,3.0,0.25,54,200.0
17,E2,3.0,0.25,54,200.0
18,G4,4.0,0.25,75,200.0
19,G3,4.0,0.25,44,200.0
20,G2,4.0,0.25,44,200.0
21,F#4,5.0,0.25,73,200.0
22,F#2,5.0,0.25,49,200.0
23,F#3,5.0,0.25,49,200.0
24,D4,6.0,0.875,82,200.0
25,D2,6.0,0.875,55,200.0
26,D3,6.0,0.875,55,200.0
27,F#4,6.875,0.125,71,200.0
28,F#3,6.875,0.125,48,200.0
29,F#2,6.875,0.125,48,200.0
30,E4,7.0,0.25,75,200.0
31,E3,7.0,0.25,50,200.0
32,E2,7.0,0.25,50,200.0
33,D4,7.5,0.25,73,200.0
34,D2,7.5,0.25,48,200.0
35,D3,7.5,0.25,48,200.0
36,C#4,8.0,0.25,77,200.0
37,C#2,8.0,0.25,52,200.0
38,C#3,8.0,0.25,52,200.0
39,D4,8.5,0.25,71,200.0
40,D3,8.5,0.25,48,200.0
41,D2,8.5,0.25,48,200.0
42,E4,9.0,0.25,80,200.0
43,E2,9.0,0.25,54,200.0
44,E3,9.0,0.25,54,200.0
45,G4,10.0,0.25,74,200.0
46,G2,10.0,0.25,44,200.0
47,G3,10.0,0.25,44,200.0
48,F#4,11.0,0.25,73,200.0
49,F#2,11.0,0.25,49,200.0
50,F#3,11.0,0.25,49,200.0
51,D4,12.0,1.0,80,200.0
52,D3,12.0,1.0,61,200.0
53,D2,12.0,1.0,61,200.0
54,E4,13.0,0.5,73,200.0
55,E3,13.0,0.5,58,200.0
56,F#4,13.5,0.5,74,200.0
57,F#3,13.5,0.5,59,200.0
58,A4,14.0,0.5,77,200.0
59,A3,14.0,0.5,60,200.0
60,C5,14.5,0.5,78,200.0
61,C4,14.5,0.5,61,200.0
62,E5,15.0,1.0,79,200.0
63,E4,15.0,1.0,62,200.0
64,G5,16.0,1.0,78,200.0
65,G4,16.0,1.0,61,200.0
66,F#5,17.0,1.0,78,200.0
67,F#4,17.0,1.0,60,200.0
68,D4,18.0,1.0,66,200.0
69,F#4,18.0,1.0,66,200.0
70,F#5,18.0,1.0,66,200.0
71,B3,18.0,3.0,56,200.0
72,G3,18.0,3.0,56,200.0
73,G5,19.0,0.5,64,200.0
74,G4,19.0,0.5,64,200.0
75,F#4,19.5,0.5,64,200.0
76,F#5,19.5,0.5,64,200.0
77,E5,20.0,0.5,64,200.0
78,E4,20.0,0.5,64,200.0
79,D4,20.5,0.5,64,200.0
80,D5,20.5,0.5,64,200.0
81,G4,21.0,0.875,74,200.0
82,C#5,21.0,0.875,74,200.0
83,G3,21.0,0.875,59,200.0
84,C#4,21.0,0.875,59,200.0
85,A3,21.0,0.875,59,200.0
86,D5,21.875,0.125,64,200.0
87,C#5,22.0,0.5,73,200.0
88,C#4,22.0,0.5,58,200.0
89,A4,22.5,0.5,67,200.0
90,A3,22.5,0.5,53,200.0
91,B4,23.0,0.5,72,200.0
92,B3,23.0,0.5,57,200.0
93,C#5,23.5,0.5,69,200.0
94,C#4,23.5,0.5,55,200.0
95,F#4,24.0,1.0,74,200.0
96,D5,24.0,1.0,74,200.0
97,F#3,24.0,1.0,59,200.0
98,A3,24.0,1.0,59,200.0
99,D4,24.0,1.0,59,200.0
100,E4,25.0,0.25,78,200.0
101,E2,25.0,0.25,52,200.0
102,E3,25.0,0.25,52,200.0
103,D4,25.5,0.25,75,200.0
104,D3,25.5,0.25,50,200.0
105,D2,25.5,0.25,50,200.0
106,C#4,26.0,0.25,79,200.0
107,C#2,26.0,0.25,54,200.0
108,C#3,26.0,0.25,54,200.0
109,D4,26.5,0.25,73,200.0
110,D2,26.5,0.25,49,200.0
111,D3,26.5,0.25,49,200.0
112,E4,27.0,0.25,81,200.0
113,E3,27.0,0.25,54,200.0
114,E2,27.0,0.25,54,200.0
115,G4,28.0,0.25,74,200.0
116,G3,28.0,0.25,44,200.0
117,G2,28.0,0.25,44,200.0
118,F#4,29.0,0.25,73,200.0
119,F#2,29.0,0.25,49,200.0
120,F#3,29.0,0.25,49,200.0
121,D4,30.0,0.875,82,200.0
122,D2,30.0,0.875,55,200.0
123,D3,30.0,0.875,55,200.0
124,F#4,30.875,0.125,71,200.0
125,F#3,30.875,0.125,48,200.0
126,F#2,30.875,0.125,48,200.0
127,E4,31.0,0.25,75,200.0
128,E3,31.0,0.25,50,200.0
129,E2,31.0,0.25,50,200.0
130,D4,31.5,0.25,73,200.0
131,D2,31.5,0.25,48,200.0
132,D3,31.5,0.25,48,200.0
133,C#4,32.0,0.25,77,200.0
134,C#2,32.0,0.25,52,200.0
135,C#3,32.0,0.25,52,200.0
136,D4,32.5,0.25,71,200.0
137,D3,32.5,0.25,48,200.0
138,D2,32.5,0.25,48,200.0
139,E4,33.0,0.25,80,200.0
140,E2,33.0,0.25,54,200.0
141,E3,33.0,0.25,54,200.0
142,G4,34.0,0.25,74,200.0
143,G2,34.0,0.25,44,200.0
144,G3,34.0,0.25,44,200.0
145,F#4,35.0,0.25,73,200.0
146,F#2,35.0,0.25,49,200.0
147,F#3,35.0,0.25,49,200.0
148,D4,36.0,1.0,80,200.0
149,D3,36.0,1.0,60,200.0
150,D2,36.0,1.0,60,200.0
151,E4,37.0,0.5,73,200.0
152,E3,37.0,0.5,58,200.0
153,F#4,37.5,0.5,74,200.0
154,F#3,37.5,0.5,59,200.0
155,A4,38.0,0.5,77,200.0
156,A3,38.0,0.5,60,200.0
157,C5,38.5,0.5,78,200.0
158,C4,38.5,0.5,61,200.0
159,E5,39.0,1.0,79,200.0
160,E4,39.0,1.0,62,200.0
161,G5,40.0,1.0,78,200.0
162,G4,40.0,1.0,61,200.0
163,F#5,41.0,1.0,78,200.0
164,F#4,41.0,1.0,60,200.0
165,D4,42.0,1.0,66,200.0
166,F#5,42.0,1.0,66,200.0
167,F#4,42.0,1.0,66,200.0
168,B3,42.0,3.0,56,200.0
169,G3,42.0,3.0,56,200.0
170,G4,43.0,0.5,64,200.0
171,G5,43.0,0.5,64,200.0
172,F#4,43.5,0.5,64,200.0
173,F#5,43.5,0.5,64,200.0
174,E5,44.0,0.5,64,200.0
175,E4,44.0,0.5,64,200.0
176,D4,44.5,0.5,64,200.0
177,D5,44.5,0.5,64,200.0
178,C#5,45.0,0.875,74,200.0
179,G4,45.0,0.875,74,200.0
180,G3,45.0,0.875,59,200.0
181,C#4,45.0,0.875,59,200.0
182,A3,45.0,0.875,59,200.0
183,D5,45.875,0.125,64,200.0
184,C#5,46.0,0.5,73,200.0
185,C#4,46.0,0.5,58,200.0
186,A4,46.5,0.5,67,200.0
187,A3,46.5,0.5,53,200.0
188,B4,47.0,0.5,72,200.0
189,B3,47.0,0.5,57,200.0
190,C#5,47.5,0.5,69,200.0
191,C#4,47.5,0.5,55,200.0
192,F#4,48.0,0.875,74,200.0
193,D5,48.0,0.875,74,200.0
194,F#3,48.0,1.0,59,200.0
195,A3,48.0,1.0,59,200.0
196,D4,48.0,1.0,59,200.0
197,E4,48.875,0.125,73,200.0
198,D4,49.0,0.25,78,200.0
199,D2,49.0,0.25,52,200.0
200,D3,49.0,0.25,52,200.0
201,C#4,49.5,0.25,75,200.0
202,C#3,49.5,0.25,50,200.0
203,C#2,49.5,0.25,50,200.0
204,D4,50.0,0.25,79,200.0
205,D2,50.0,0.25,54,200.0
206,D3,50.0,0.25,54,200.0
207,D4,51.0,0.25,74,200.0
208,D2,51.0,0.25,56,200.0
209,D3,51.0,0.25,56,200.0
210,A4,52.0,0.25,78,200.0
211,A2,52.0,0.25,52,200.0
212,A3,52.0,0.25,52,200.0
213,F#4,52.5,0.25,75,200.0
214,F#3,52.5,0.25,50,200.0
215,F#2,52.5,0.25,50,200.0
216,D4,53.0,0.25,79,200.0
217,D2,53.0,0.25,54,200.0
218,D3,53.0,0.25,54,200.0
219,E5,53.875,0.125,64,200.0
220,D6,54.0,0.25,60,200.0
221,D5,54.0,0.25,60,200.0
222,C4,54.0,0.25,46,200.0
223,F#4,54.0,0.25,46,200.0
224,A4,54.0,0.25,46,200.0
225,D4,54.0,0.25,46,200.0
226,C#5,54.5,0.25,55,200.0
227,C#6,54.5,0.25,55,200.0
228,D4,54.5,0.25,42,200.0
229,F#4,54.5,0.25,42,200.0
230,C4,54.5,0.25,42,200.0
231,A4,54.5,0.25,42,200.0
232,D6,55.0,0.25,58,200.0
233,D5,55.0,0.25,58,200.0
234,C4,55.0,0.25,45,200.0
235,D4,55.0,0.25,45,200.0
236,A4,55.0,0.25,45,200.0
237,F#4,55.0,0.25,45,200.0
238,D5,56.0,0.25,57,200.0
239,D6,56.0,0.25,57,200.0
240,C4,56.0,0.25,44,200.0
241,F#4,56.0,0.25,44,200.0
242,A4,56.0,0.25,44,200.0
243,D4,56.0,0.25,44,200.0
244,C#5,56.5,0.25,54,200.0
245,C#6,56.5,0.25,54,200.0
246,D4,56.5,0.25,41,200.0
247,F#4,56.5,0.25,41,200.0
248,C4,56.5,0.25,41,200.0
249,A4,56.5,0.25,41,200.0
250,D5,57.0,0.25,57,200.0
251,D6,57.0,0.25,57,200.0
252,B3,57.0,0.25,44,200.0
253,D4,57.0,0.25,44,200.0
254,B4,57.0,0.25,44,200.0
255,G4,57.0,0.25,44,200.0
256,B5,58.0,0.5,59,200.0
257,B3,58.0,0.5,45,200.0
258,G4,58.0,0.5,45,200.0
259,B4,58.0,0.5,45,200.0
260,D4,58.0,0.5,45,200.0
261,G5,58.5,0.5,56,200.0
262,B3,58.5,0.5,43,200.0
263,D4,58.5,0.5,43,200.0
264,B4,58.5,0.5,43,200.0
265,G4,58.5,0.5,43,200.0
266,D5,59.0,0.75,59,200.0
267,B3,59.0,0.75,45,200.0
268,G4,59.0,0.75,45,200.0
269,B4,59.0,0.75,45,200.0
270,D4,59.0,0.75,45,200.0
271,D5,60.0,0.5,59,200.0
272,B-3,60.0,3.0,53,200.0
273,G4,60.0,3.0,53,200.0
274,E5,60.5,0.5,59,200.0
275,F5,61.0,0.75,63,200.0
276,D4,61.0,2.0,53,200.0
277,E5,61.75,0.125,52,200.0
278,F5,61.875,0.125,49,200.0
279,E5,62.0,0.5,59,200.0
280,E4,62.0,0.5,48,200.0
281,D5,62.5,0.5,59,200.0
282,F4,62.5,0.5,49,200.0
283,C5,63.0,0.25,58,200.0
284,D4,63.0,0.25,56,200.0
285,F#4,63.0,0.25,56,200.0
286,A3,63.0,0.25,56,200.0
287,A5,64.0,0.5,63,200.0
288,D3,64.0,0.25,59,200.0
289,F#5,64.5,0.5,57,200.0
290,C5,65.0,0.25,59,200.0
291,A3,65.0,0.25,52,200.0
292,F#4,65.0,0.25,52,200.0
293,D4,65.0,0.25,52,200.0
294,B-4,66.0,0.25,59,200.0
295,D4,66.0,0.25,55,200.0
296,G4,66.0,0.25,55,200.0
297,B-3,66.0,0.25,55,200.0
298,G5,67.0,0.5,63,200.0
299,D3,67.0,0.25,59,200.0
300,D5,67.5,0.5,57,200.0
301,B-4,68.0,0.25,59,200.0
302,B-3,68.0,0.25,51,200.0
303,G4,68.0,0.25,51,200.0
304,D4,68.0,0.25,51,200.0
305,A4,69.0,3.0,59,200.0
306,F#4,69.0,0.25,55,200.0
307,D4,69.0,0.25,55,200.0
308,F#2,70.0,0.25,61,200.0
309,F#3,70.0,0.25,61,200.0
310,E2,70.5,0.25,57,200.0
311,E3,70.5,0.25,57,200.0
312,D3,71.0,0.25,62,200.0
313,D2,71.0,0.25,62,200.0
314,F#4,72.0,0.875,74,200.0
315,D5,72.0,0.875,74,200.0
316,A3,72.0,1.0,59,200.0
317,D4,72.0,1.0,59,200.0
318,F#3,72.0,1.0,59,200.0
319,E4,72.875,0.125,73,200.0
320,D4,73.0,0.25,78,200.0
321,D3,73.0,0.25,52,200.0
322,D2,73.0,0.25,52,200.0
323,C#4,73.5,0.25,75,200.0
324,C#2,73.5,0.25,50,200.0
325,C#3,73.5,0.25,50,200.0
326,D4,74.0,0.25,79,200.0
327,D2,74.0,0.25,54,200.0
328,D3,74.0,0.25,54,200.0
329,D4,75.0,0.25,74,200.0
330,D2,75.0,0.25,56,200.0
331,D3,75.0,0.25,56,200.0
332,A4,76.0,0.25,78,200.0
333,A3,76.0,0.25,52,200.0
334,A2,76.0,0.25,52,200.0
335,F#4,76.5,0.25,75,200.0
336,F#2,76.5,0.25,50,200.0
337,F#3,76.5,0.25,50,200.0
338,D4,77.0,0.25,79,200.0
339,D2,77.0,0.25,54,200.0
340,D3,77.0,0.25,54,200.0
341,E5,77.875,0.125,64,200.0
342,D6,78.0,0.25,60,200.0
343,D5,78.0,0.25,60,200.0
344,C4,78.0,0.25,46,200.0
345,D4,78.0,0.25,46,200.0
346,A4,78.0,0.25,46,200.0
347,F#4,78.0,0.25,46,200.0
348,C#5,78.5,0.25,55,200.0
349,C#6,78.5,0.25,55,200.0
350,C4,78.5,0.25,42,200.0
351,F#4,78.5,0.25,42,200.0
352,A4,78.5,0.25,42,200.0
353,D4,78.5,0.25,42,200.0
354,D5,79.0,0.25,58,200.0
355,D6,79.0,0.25,58,200.0
356,D4,79.0,0.25,45,200.0
357,F#4,79.0,0.25,45,200.0
358,C4,79.0,0.25,45,200.0
359,A4,79.0,0.25,45,200.0
360,D6,80.0,0.25,57,200.0
361,D5,80.0,0.25,57,200.0
362,C4,80.0,0.25,44,200.0
363,D4,80.0,0.25,44,200.0
364,A4,80.0,0.25,44,200.0
365,F#4,80.0,0.25,44,200.0
366,C#5,80.5,0.25,54,200.0
367,C#6,80.5,0.25,54,200.0
368,C4,80.5,0.25,41,200.0
369,F#4,80.5,0.25,41,200.0
370,A4,80.5,0.25,41,200.0
371,D4,80.5,0.25,41,200.0
372,D6,81.0,0.25,57,200.0
373,D5,81.0,0.25,57,200.0
374,D4,81.0,0.25,44,200.0
375,G4,81.0,0.25,44,200.0
376,B3,81.0,0.25,44,200.0
377,B4,81.0,0.25,44,200.0
378,B5,82.0,0.5,59,200.0
379,B3,82.0,0.5,45,200.0
380,D4,82.0,0.5,45,200.0
381,B4,82.0,0.5,45,200.0
382,G4,82.0,0.5,45,200.0
383,G5,82.5,0.5,56,200.0
384,D4,82.5,0.5,43,200.0
385,G4,82.5,0.5,43,200.0
386,B4,82.5,0.5,43,200.0
387,B3,82.5,0.5,43,200.0
388,D5,83.0,0.75,59,200.0
389,B3,83.0,0.75,45,200.0
390,D4,83.0,0.75,45,200.0
391,B4,83.0,0.75,45,200.0
392,G4,83.0,0.75,45,200.0
393,D5,84.0,0.5,59,200.0
394,G4,84.0,3.0,53,200.0
395,B-3,84.0,3.0,53,200.0
396,E5,84.5,0.5,59,200.0
397,F5,85.0,0.75,63,200.0
398,D4,85.0,2.0,53,200.0
399,E5,85.75,0.125,52,200.0
400,F5,85.875,0.125,49,200.0
401,E5,86.0,0.5,59,200.0
402,E4,86.0,0.5,48,200.0
403,D5,86.5,0.5,59,200.0
404,F4,86.5,0.5,49,200.0
405,C5,87.0,0.25,58,200.0
406,A3,87.0,0.25,56,200.0
407,D4,87.0,0.25,56,200.0
408,F#4,87.0,0.25,56,200.0
409,A5,88.0,0.5,63,200.0
410,D3,88.0,0.25,59,200.0
411,F#5,88.5,0.5,57,200.0
412,C5,89.0,0.25,59,200.0
413,A3,89.0,0.25,52,200.0
414,D4,89.0,0.25,52,200.0
415,F#4,89.0,0.25,52,200.0
416,B-4,90.0,0.25,59,200.0
417,B-3,90.0,0.25,55,200.0
418,G4,90.0,0.25,55,200.0
419,D4,90.0,0.25,55,200.0
420,G5,91.0,0.5,63,200.0
421,D3,91.0,0.25,59,200.0
422,D5,91.5,0.5,57,200.0
423,B-4,92.0,0.25,59,200.0
424,B-3,92.0,0.25,51,200.0
425,D4,92.0,0.25,51,200.0
426,G4,92.0,0.25,51,200.0
427,A4,93.0,3.0,59,200.0
428,D4,93.0,0.25,55,200.0
429,F#4,93.0,0.25,55,200.0
430,F#3,94.0,0.25,59,200.0
431,F#2,94.0,0.25,59,200.0
432,E3,94.5,0.25,55,200.0
433,E2,94.5,0.25,55,200.0
434,D2,95.0,0.25,60,200.0
435,D3,95.0,0.25,60,200.0
436,F#3,96.0,3.0,52,200.0
437,A3,96.0,3.0,52,200.0
438,F#2,97.0,0.25,52,200.0
439,E2,97.5,0.25,49,200.0
440,D2,98.0,0.25,53,200.0
441,F#3,99.0,3.0,49,200.0
442,A3,99.0,3.0,49,200.0
443,F#2,100.0,0.25,49,200.0
444,E2,100.5,0.25,46,200.0
445,D2,101.0,0.25,50,200.0
446,F#2,102.0,0.25,49,200.0
447,F#3,102.0,0.25,49,200.0
448,E3,102.5,0.25,45,200.0
449,E2,102.5,0.25,45,200.0
450,D2,103.0,0.25,48,200.0
451,D3,103.0,0.25,48,200.0
452,F#2,104.0,0.25,45,200.0
453,F#3,104.0,0.25,45,200.0
454,E2,104.5,0.25,41,200.0
455,E3,104.5,0.25,41,200.0
456,D2,105.0,0.25,44,200.0
457,D3,105.0,0.25,44,200.0
458,A2,106.0,0.25,41,200.0
459,D2,107.0,0.25,40,200.0
460,D4,108.0,0.5,59,200.0
461,D2,108.0,3.0,55,200.0
462,F#3,108.5,2.5,46,200.0
463,F#4,108.875,0.125,49,200.0
464,E4,109.0,0.5,55,200.0
465,D4,109.5,0.5,53,200.0
466,C#4,110.0,0.5,56,200.0
467,D4,110.5,0.5,51,200.0
468,E4,111.0,0.25,58,200.0
469,C#2,111.0,0.25,55,200.0
470,C#3,111.5,0.25,55,200.0
471,G3,112.0,0.25,50,200.0
472,B3,112.0,0.25,50,200.0
473,E4,112.0,0.25,50,200.0
474,G4,112.0,0.25,50,200.0
475,F#3,113.0,0.25,44,200.0
476,C#4,113.0,0.25,44,200.0
477,E4,113.0,0.25,44,200.0
478,F#4,113.0,0.25,44,200.0
479,B-2,113.0,1.0,50,200.0
480,B-1,113.0,1.0,50,200.0
481,D4,114.0,0.25,58,200.0
482,B1,114.0,0.25,55,200.0
483,B2,114.5,0.25,55,200.0
484,F#3,115.0,0.25,48,200.0
485,B3,115.0,0.25,48,200.0
486,D4,115.0,0.25,48,200.0
487,F#4,115.0,0.25,48,200.0
488,E3,116.0,0.25,42,200.0
489,B3,116.0,0.25,45,200.0
490,D4,116.0,0.25,45,200.0
491,E4,116.0,0.25,45,200.0
492,G#1,116.0,1.0,50,200.0
493,G#2,116.0,1.0,50,200.0
494,C#4,117.0,0.5,59,200.0
495,A1,117.0,1.0,55,200.0
496,A2,117.0,1.0,55,200.0
497,E3,117.5,2.5,55,200.0
498,D4,117.875,0.125,49,200.0
499,C#4,118.0,0.5,55,200.0
500,B3,118.5,0.5,53,200.0
501,C#4,119.0,0.5,56,200.0
502,A3,119.0,0.5,56,200.0
503,A2,119.0,1.0,55,200.0
504,G3,119.5,0.5,51,200.0
505,D4,119.967,33/1000,59,200.0
506,D2,119.967,33/1000,55,200.0
507,D4,120.0,467/1000,59,200.0
508,D2,120.0,2967/1000,55,200.0
509,F#3,120.467,2.5,46,200.0
510,F#4,120.842,0.125,49,200.0
511,E4,120.967,0.5,55,200.0
512,D4,121.467,0.5,53,200.0
513,C#4,121.967,0.5,56,200.0
514,D4,122.467,0.5,51,200.0
515,E4,122.967,33/1000,58,200.0
516,C#2,122.967,33/1000,55,200.0
517,E4,123.0,217/1000,58,200.0
518,C#2,123.0,217/1000,55,200.0
519,C#3,123.467,0.25,48,200.0
520,G3,123.967,0.25,50,200.0
521,B3,123.967,0.25,50,200.0
522,E4,123.967,0.25,50,200.0
523,G4,123.967,0.25,50,200.0
524,F#3,124.967,0.25,44,200.0
525,C#4,124.967,0.25,44,200.0
526,E4,124.967,0.25,44,200.0
527,F#4,124.967,0.25,44,200.0
528,B-2,124.967,1.0,50,200.0
529,B-1,124.967,1.0,50,200.0
530,D4,126.0,0.25,58,200.0
531,B3,126.0,0.25,58,200.0
532,B2,126.0,1.0,50,200.0
533,B1,126.0,1.0,50,200.0
534,F#3,126.5,0.25,47,200.0
535,D4,127.0,0.25,50,200.0
536,B3,127.0,0.25,50,200.0
537,G2,127.0,0.5,50,200.0
538,G1,127.0,0.5,50,200.0
539,E4,127.5,0.25,50,200.0
540,C#4,128.0,1.0,59,200.0
541,A3,128.0,0.25,59,200.0
542,E3,128.0,0.25,51,200.0
543,A2,128.0,0.5,46,200.0
544,A1,128.0,0.5,46,200.0
545,G3,128.5,0.25,52,200.0
546,D4,129.0,0.5,64,200.0
547,D2,129.0,0.5,54,200.0
548,F#3,129.0,0.5,54,200.0
549,D5,130.0,0.5,70,200.0
550,F#4,130.0,0.5,70,200.0
551,A3,130.0,0.5,65,200.0
552,D3,130.0,0.5,65,200.0
553,D4,132.0,0.5,59,200.0
554,D2,132.0,3.0,55,200.0
555,F#3,132.5,2.5,46,200.0
556,F#4,132.875,0.125,49,200.0
557,E4,133.0,0.5,55,200.0
558,D4,133.5,0.5,53,200.0
559,C#4,134.0,0.5,56,200.0
560,D4,134.5,0.5,51,200.0
561,E4,135.0,0.25,58,200.0
562,C#2,135.0,0.25,55,200.0
563,C#3,135.5,0.25,55,200.0
564,G3,136.0,0.25,50,200.0
565,B3,136.0,0.25,50,200.0
566,E4,136.0,0.25,50,200.0
567,G4,136.0,0.25,50,200.0
568,F#3,137.0,0.25,44,200.0
569,C#4,137.0,0.25,44,200.0
570,E4,137.0,0.25,44,200.0
571,F#4,137.0,0.25,44,200.0
572,B-2,137.0,1.0,50,200.0
573,B-1,137.0,1.0,50,200.0
574,D4,138.0,0.25,58,200.0
575,B1,138.0,0.25,55,200.0
576,B2,138.5,0.25,55,200.0
577,F#3,139.0,0.25,48,200.0
578,B3,139.0,0.25,48,200.0
579,D4,139.0,0.25,48,200.0
580,F#4,139.0,0.25,48,200.0
581,E3,140.0,0.25,42,200.0
582,B3,140.0,0.25,45,200.0
583,D4,140.0,0.25,45,200.0
584,E4,140.0,0.25,45,200.0
585,G#1,140.0,1.0,50,200.0
586,G#2,140.0,1.0,50,200.0
587,C#4,141.0,0.5,59,200.0
588,A1,141.0,1.0,55,200.0
589,A2,141.0,1.0,55,200.0
590,E3,141.5,2.5,55,200.0
591,D4,141.875,0.125,49,200.0
592,C#4,142.0,0.5,55,200.0
593,B3,142.5,0.5,53,200.0
594,C#4,143.0,0.5,56,200.0
595,A3,143.0,0.5,56,200.0
596,A2,143.0,1.0,55,200.0
597,G3,143.5,0.5,51,200.0
598,D4,143.967,33/1000,59,200.0
599,D2,143.967,33/1000,55,200.0
600,D4,144.0,467/1000,59,200.0
601,D2,144.0,2967/1000,55,200.0
602,F#3,144.467,2.5,46,200.0
603,F#4,144.842,0.125,49,200.0
604,E4,144.967,0.5,55,200.0
605,D4,145.467,0.5,53,200.0
606,C#4,145.967,0.5,56,200.0
607,D4,146.467,0.5,51,200.0
608,E4,146.967,33/1000,58,200.0
609,C#2,146.967,33/1000,55,200.0
610,E4,147.0,217/1000,58,200.0
611,C#2,147.0,217/1000,55,200.0
612,C#3,147.467,0.25,48,200.0
613,G3,147.967,0.25,50,200.0
614,B3,147.967,0.25,50,200.0
615,E4,147.967,0.25,50,200.0
616,G4,147.967,0.25,50,200.0
617,F#3,148.967,0.25,44,200.0
618,C#4,148.967,0.25,44,200.0
619,E4,148.967,0.25,44,200.0
620,F#4,148.967,0.25,44,200.0
621,B-2,148.967,1.0,50,200.0
622,B-1,148.967,1.0,50,200.0
623,D4,150.0,0.25,58,200.0
624,B3,150.0,0.25,58,200.0
625,B2,150.0,1.0,50,200.0
626,B1,150.0,1.0,50,200.0
627,F#3,150.5,0.25,47,200.0
628,D4,151.0,0.25,50,200.0
629,B3,151.0,0.25,50,200.0
630,G2,151.0,0.5,50,200.0
631,G1,151.0,0.5,50,200.0
632,E4,151.5,0.25,50,200.0
633,C#4,152.0,1.0,59,200.0
634,A3,152.0,0.25,59,200.0
635,E3,152.0,0.25,51,200.0
636,A2,152.0,0.5,46,200.0
637,A1,152.0,0.5,46,200.0
638,G3,152.5,0.25,52,200.0
639,D4,153.0,0.5,64,200.0
640,D2,153.0,0.5,54,200.0
641,F#3,153.0,0.5,54,200.0
642,D5,154.0,0.5,70,200.0
643,F#4,154.0,0.5,70,200.0
644,A3,154.0,0.5,65,200.0
645,D3,154.0,0.5,65,200.0
646,D5,156.0,3.0,57,200.0
647,A5,156.0,1.0,67,200.0
648,D4,156.0,3.0,42,200.0
649,F#4,156.0,1.0,52,200.0
650,B5,157.0,0.5,59,200.0
651,G4,157.0,0.5,47,200.0
652,A5,157.5,0.5,55,200.0
653,F#4,157.5,0.5,44,200.0
654,G5,158.0,0.5,57,200.0
655,E4,158.0,0.5,45,200.0
656,A5,158.5,0.5,53,200.0
657,F#4,158.5,0.5,42,200.0
658,B5,159.0,1.0,60,200.0
659,D5,159.0,3.0,57,200.0
660,G4,159.0,1.0,48,200.0
661,D4,159.0,3.0,42,200.0
662,B5,160.0,0.5,59,200.0
663,G4,160.0,0.5,47,200.0
664,D6,160.5,0.5,55,200.0
665,B4,160.5,0.5,44,200.0
666,B5,161.0,1.0,58,200.0
667,G4,161.0,1.0,46,200.0
668,D5,162.0,3.0,57,200.0
669,A5,162.0,1.0,67,200.0
670,D4,162.0,2.5,42,200.0
671,F#4,162.0,1.0,52,200.0
672,B5,163.0,0.5,59,200.0
673,G4,163.0,0.5,47,200.0
674,A5,163.5,0.5,55,200.0
675,F#4,163.5,0.5,44,200.0
676,G5,164.0,0.5,57,200.0
677,E4,164.0,0.5,45,200.0
678,F#5,164.5,0.5,53,200.0
679,D4,164.5,0.5,42,200.0
680,C#5,165.0,1.0,54,200.0
681,E5,165.0,1.0,54,200.0
682,A3,165.0,1.0,43,200.0
683,E4,165.0,1.0,43,200.0
684,G4,166.0,0.5,47,200.0
685,C#5,166.0,0.5,51,200.0
686,E5,166.0,0.5,51,200.0
687,F#4,166.5,0.5,41,200.0
688,B4,166.5,0.5,50,200.0
689,D5,166.5,0.5,50,200.0
690,C#5,167.0,1.0,52,200.0
691,E5,167.0,1.0,52,200.0
692,A3,167.0,1.0,41,200.0
693,G4,167.0,1.0,41,200.0
694,D5,168.0,3.0,57,200.0
695,A5,168.0,1.0,67,200.0
696,D4,168.0,3.0,42,200.0
697,F#4,168.0,1.0,52,200.0
698,B5,169.0,0.5,59,200.0
699,G4,169.0,0.5,47,200.0
700,A5,169.5,0.5,55,200.0
701,F#4,169.5,0.5,44,200.0
702,G5,170.0,0.5,57,200.0
703,E4,170.0,0.5,45,200.0
704,A5,170.5,0.5,53,200.0
705,F#4,170.5,0.5,42,200.0
706,B5,171.0,1.0,60,200.0
707,D5,171.0,3.0,57,200.0
708,G4,171.0,1.0,48,200.0
709,D4,171.0,3.0,42,200.0
710,B5,172.0,0.5,59,200.0
711,G4,172.0,0.5,47,200.0
712,D6,172.5,0.5,55,200.0
713,B4,172.5,0.5,44,200.0
714,B5,173.0,1.0,58,200.0
715,G4,173.0,1.0,46,200.0
716,D5,174.0,3.0,57,200.0
717,A5,174.0,1.0,67,200.0
718,D4,174.0,2.5,42,200.0
719,F#4,174.0,1.0,52,200.0
720,B5,175.0,0.5,59,200.0
721,G4,175.0,0.5,47,200.0
722,A5,175.5,0.5,55,200.0
723,F#4,175.5,0.5,44,200.0
724,G5,176.0,0.5,57,200.0
725,E4,176.0,0.5,45,200.0
726,F#5,176.5,0.5,53,200.0
727,D4,176.5,0.5,42,200.0
728,A4,177.0,3.0,52,200.0
729,C#5,177.0,3.0,52,200.0
730,E5,177.0,3.0,52,200.0
731,A3,177.0,3.0,43,200.0
732,E4,177.0,3.0,43,200.0
733,D4,180.0,0.5,59,200.0
734,D2,180.0,3.0,55,200.0
735,F#3,180.5,2.5,46,200.0
736,F#4,180.875,0.125,49,200.0
737,E4,181.0,0.5,55,200.0
738,A2,181.0,2.0,55,200.0
739,D4,181.5,0.5,53,200.0
740,C#4,182.0,0.5,56,200.0
741,D4,182.5,0.5,51,200.0
742,E4,183.0,0.25,58,200.0
743,C#2,183.0,0.25,55,200.0
744,C#3,183.5,0.25,55,200.0
745,G3,184.0,0.25,50,200.0
746,B3,184.0,0.25,50,200.0
747,E4,184.0,0.25,50,200.0
748,G4,184.0,0.25,50,200.0
749,F#3,185.0,0.25,44,200.0
750,C#4,185.0,0.25,44,200.0
751,E4,185.0,0.25,44,200.0
752,F#4,185.0,0.25,44,200.0
753,B-2,185.0,1.0,50,200.0
754,B-1,185.0,1.0,50,200.0
755,D4,186.0,0.25,58,200.0
756,B1,186.0,0.25,55,200.0
757,B2,186.5,0.25,55,200.0
758,F#3,187.0,0.25,48,200.0
759,B3,187.0,0.25,48,200.0
760,D4,187.0,0.25,48,200.0
761,F#4,187.0,0.25,48,200.0
762,E3,188.0,0.25,42,200.0
763,B3,188.0,0.25,45,200.0
764,D4,188.0,0.25,45,200.0
765,E4,188.0,0.25,45,200.0
766,G#1,188.0,1.0,50,200.0
767,G#2,188.0,1.0,50,200.0
768,C#4,189.0,0.5,59,200.0
769,A1,189.0,1.0,55,200.0
770,A2,189.0,1.0,55,200.0
771,E3,189.5,2.5,55,200.0
772,D4,189.875,0.125,49,200.0
773,C#4,190.0,0.5,55,200.0
774,B3,190.5,0.5,53,200.0
775,C#4,191.0,0.5,56,200.0
776,A3,191.0,0.5,56,200.0
777,A2,191.0,1.0,55,200.0
778,G3,191.5,0.5,51,200.0
779,D4,191.967,33/1000,59,200.0
780,D2,191.967,33/1000,55,200.0
781,D4,192.0,467/1000,59,200.0
782,D2,192.0,2967/1000,55,200.0
783,F#3,192.467,2.5,46,200.0
784,F#4,192.842,0.125,49,200.0
785,E4,192.967,0.5,55,200.0
786,A2,193.0,2.0,55,200.0
787,D4,193.467,0.5,53,200.0
788,C#4,193.967,0.5,56,200.0
789,D4,194.467,0.5,51,200.0
790,E4,194.967,33/1000,58,200.0
791,C#2,194.967,33/1000,55,200.0
792,E4,195.0,217/1000,58,200.0
793,C#2,195.0,217/1000,55,200.0
794,C#3,195.467,0.25,48,200.0
795,G3,195.967,0.25,50,200.0
796,B3,195.967,0.25,50,200.0
797,E4,195.967,0.25,50,200.0
798,G4,195.967,0.25,50,200.0
799,F#3,196.967,0.25,44,200.0
800,C#4,196.967,0.25,44,200.0
801,E4,196.967,0.25,44,200.0
802,F#4,196.967,0.25,44,200.0
803,B-2,196.967,1.0,50,200.0
804,B-1,196.967,1.0,50,200.0
805,D4,198.0,0.25,58,200.0
806,B3,198.0,0.25,58,200.0
807,B2,198.0,1.0,50,200.0
808,B1,198.0,1.0,50,200.0
809,F#3,198.5,0.25,47,200.0
810,D4,199.0,0.25,50,200.0
811,B3,199.0,0.25,50,200.0
812,G2,199.0,0.5,50,200.0
813,G1,199.0,0.5,50,200.0
814,E4,199.5,0.25,50,200.0
815,C#4,200.0,1.0,59,200.0
816,A3,200.0,0.25,59,200.0
817,E3,200.0,0.25,51,200.0
818,A2,200.0,0.5,46,200.0
819,A1,200.0,0.5,46,200.0
820,G3,200.5,0.25,52,200.0
821,D4,201.0,0.5,64,200.0
822,A2,201.0,0.5,53,200.0
823,D2,201.0,0.5,53,200.0
824,F#3,201.0,0.5,53,200.0
825,D5,202.0,0.5,70,200.0
826,F#4,202.0,0.5,70,200.0
827,A3,202.0,0.5,65,200.0
828,D3,202.0,0.5,65,200.0
829,F#5,204.0,1.0,59,200.0
830,B2,204.0,3.0,38,200.0
831,D4,204.0,1.0,47,200.0
832,B4,204.5,1.0,39,200.0
833,G5,205.0,0.5,52,200.0
834,E4,205.0,0.5,41,200.0
835,B4,205.5,1.0,35,200.0
836,F#5,205.5,0.5,47,200.0
837,D4,205.5,0.5,39,200.0
838,E5,206.0,0.5,50,200.0
839,C#4,206.0,0.5,39,200.0
840,D4,206.5,0.5,38,200.0
841,B4,206.5,0.5,42,200.0
842,F#5,206.5,0.5,42,200.0
843,G5,207.0,1.0,53,200.0
844,E4,207.0,1.0,42,200.0
845,B2,207.0,3.0,38,200.0
846,B4,207.5,1.0,37,200.0
847,B5,208.0,1.0,52,200.0
848,C#4,208.0,1.0,41,200.0
849,B4,208.5,1.0,36,200.0
850,E5,209.0,1.0,51,200.0
851,E4,209.0,1.0,40,200.0
852,B4,209.5,0.5,28,200.0
853,F#5,210.0,1.0,59,200.0
854,B2,210.0,3.0,38,200.0
855,D4,210.0,1.0,47,200.0
856,B4,210.5,1.0,39,200.0
857,G5,211.0,0.5,52,200.0
858,E4,211.0,0.5,41,200.0
859,B4,211.5,1.0,35,200.0
860,F#5,211.5,0.5,47,200.0
861,D4,211.5,0.5,39,200.0
862,E5,212.0,0.5,50,200.0
863,C#4,212.0,0.5,39,200.0
864,D4,212.5,0.5,38,200.0
865,B4,212.5,0.5,42,200.0
866,F#5,212.5,0.5,42,200.0
867,G5,213.0,1.0,53,200.0
868,E3,213.0,2.0,38,200.0
869,E4,213.0,1.0,42,200.0
870,G4,213.5,0.5,37,200.0
871,E5,214.0,1.0,52,200.0
872,C#4,214.0,1.0,41,200.0
873,G4,214.5,1.0,36,200.0
874,C#5,215.0,1.0,51,200.0
875,F#3,215.0,1.0,40,200.0
876,B-3,215.0,1.0,40,200.0
877,E4,215.5,0.5,28,200.0
878,D4,216.0,3.0,44,200.0
879,B4,216.0,3.0,44,200.0
880,B2,216.0,0.5,34,200.0
881,B3,216.0,0.5,34,200.0
882,F#3,216.5,1.0,38,200.0
883,F#3,217.5,1.0,33,200.0
884,F#3,218.5,0.5,33,200.0
885,D5,219.0,0.25,52,200.0
886,G4,219.0,3.0,52,200.0
887,A2,219.0,3.0,38,200.0
888,E3,219.0,1.0,38,200.0
889,C#5,219.25,0.25,48,200.0
890,D5,219.5,0.25,53,200.0
891,C#5,219.75,0.25,49,200.0
892,D5,220.0,0.25,56,200.0
893,E3,220.0,1.0,39,200.0
894,C#5,220.25,0.25,50,200.0
895,D5,220.5,0.25,57,200.0
896,C#5,220.75,0.25,51,200.0
897,D5,221.0,0.25,57,200.0
898,E3,221.0,1.0,41,200.0
899,C#5,221.25,0.25,52,200.0
900,B4,221.5,0.25,58,200.0
901,C#5,221.75,0.25,51,200.0
902,F#4,222.0,1.0,57,200.0
903,D5,222.0,1.0,57,200.0
904,F#3,222.0,1.0,42,200.0
905,D3,222.0,1.0,42,200.0
906,D5,223.0,0.5,55,200.0
907,F#3,223.0,1.0,38,200.0
908,E5,223.5,0.5,49,200.0
909,E4,224.0,1.0,52,200.0
910,C#5,224.0,1.0,52,200.0
911,F#3,224.0,1.0,31,200.0
912,B-3,224.0,1.0,31,200.0
913,D4,225.0,3.0,46,200.0
914,B4,225.0,3.0,46,200.0
915,B2,225.0,1.0,38,200.0
916,G3,225.0,1.0,38,200.0
917,B3,225.0,1.0,38,200.0
918,B2,226.0,0.5,47,200.0
919,B-2,226.5,0.5,41,200.0
920,B2,227.0,1.0,38,200.0
921,D5,228.0,0.25,52,200.0
922,G4,228.0,3.0,52,200.0
923,A2,228.0,3.0,38,200.0
924,E3,228.0,0.5,38,200.0
925,C#5,228.25,0.25,48,200.0
926,D5,228.5,0.25,53,200.0
927,E3,228.5,1.0,45,200.0
928,C#5,228.75,0.25,49,200.0
929,D5,229.0,0.25,56,200.0
930,C#5,229.25,0.25,50,200.0
931,D5,229.5,0.25,57,200.0
932,E3,229.5,1.0,38,200.0
933,C#5,229.75,0.25,51,200.0
934,D5,230.0,0.25,57,200.0
935,C#5,230.25,0.25,52,200.0
936,B4,230.5,0.25,58,200.0
937,E3,230.5,0.5,38,200.0
938,C#5,230.75,0.25,51,200.0
939,D5,231.0,1.0,57,200.0
940,F#3,231.0,1.0,42,200.0
941,D3,231.0,1.0,42,200.0
942,F#4,231.5,0.5,57,200.0
943,D5,232.0,0.5,55,200.0
944,F#3,232.0,1.0,38,200.0
945,F#4,232.5,1.0,57,200.0
946,E5,232.5,0.5,49,200.0
947,C#5,233.0,1.0,52,200.0
948,F#3,233.0,1.0,31,200.0
949,B-3,233.0,1.0,31,200.0
950,E4,233.5,0.5,45,200.0
951,B4,234.0,3.0,46,200.0
952,B2,234.0,0.5,38,200.0
953,F#3,234.5,1.0,28,200.0
954,D4,235.0,1.0,29,200.0
955,F#4,235.0,1.0,29,200.0
956,F#3,235.5,1.0,26,200.0
957,D4,236.0,1.0,27,200.0
958,F#4,236.0,1.0,27,200.0
959,F#3,236.5,0.5,25,200.0
960,B2,237.0,3.0,23,200.0
961,D4,237.0,1.0,26,200.0
962,F#4,237.0,1.0,26,200.0
963,F#3,237.5,1.0,23,200.0
964,D4,238.0,1.0,25,200.0
965,F#4,238.0,1.0,25,200.0
966,F#3,238.5,1.0,20,200.0
967,D4,239.0,1.0,23,200.0
968,F#4,239.0,1.0,23,200.0
969,F#3,239.5,0.5,19,200.0
970,F#5,240.0,1.0,59,200.0
971,B2,240.0,3.0,38,200.0
972,D4,240.0,1.0,47,200.0
973,B4,240.5,1.0,39,200.0
974,G5,241.0,0.5,52,200.0
975,E4,241.0,0.5,41,200.0
976,B4,241.5,1.0,35,200.0
977,F#5,241.5,0.5,47,200.0
978,D4,241.5,0.5,39,200.0
979,E5,242.0,0.5,50,200.0
980,C#4,242.0,0.5,39,200.0
981,D4,242.5,0.5,38,200.0
982,B4,242.5,0.5,42,200.0
983,F#5,242.5,0.5,42,200.0
984,G5,243.0,1.0,53,200.0
985,E4,243.0,1.0,42,200.0
986,B2,243.0,3.0,38,200.0
987,B4,243.5,1.0,37,200.0
988,B5,244.0,1.0,52,200.0
989,C#4,244.0,1.0,41,200.0
990,B4,244.5,1.0,36,200.0
991,E5,245.0,1.0,51,200.0
992,E4,245.0,1.0,40,200.0
993,B4,245.5,0.5,28,200.0
994,F#5,246.0,1.0,59,200.0
995,B2,246.0,3.0,38,200.0
996,D4,246.0,1.0,47,200.0
997,B4,246.5,0.5,39,200.0
998,G5,247.0,0.5,52,200.0
999,E4,247.0,0.5,41,200.0
1000,B4,247.5,1.0,35,200.0
1001,F#5,247.5,0.5,47,200.0
1002,D4,247.5,0.5,39,200.0
1003,E5,248.0,0.5,50,200.0
1004,C#4,248.0,0.5,39,200.0
1005,D4,248.5,0.5,38,200.0
1006,B4,248.5,0.5,42,200.0
1007,F#5,248.5,0.5,42,200.0
1008,G5,249.0,1.0,53,200.0
1009,E3,249.0,2.0,38,200.0
1010,E4,249.0,1.0,42,200.0
1011,G4,249.5,1.0,37,200.0
1012,E5,250.0,1.0,52,200.0
1013,C#4,250.0,1.0,41,200.0
1014,G4,250.5,1.0,36,200.0
1015,C#5,251.0,1.0,51,200.0
1016,F#3,251.0,1.0,40,200.0
1017,B-3,251.0,1.0,40,200.0
1018,E4,251.5,0.5,28,200.0
1019,D4,252.0,3.0,44,200.0
1020,B4,252.0,3.0,44,200.0
1021,B2,252.0,0.5,34,200.0
1022,B3,252.0,0.5,34,200.0
1023,F#3,252.5,1.0,38,200.0
1024,F#3,253.5,1.0,33,200.0
1025,F#3,254.5,0.5,33,200.0
1026,D5,255.0,0.25,52,200.0
1027,G4,255.0,3.0,52,200.0
1028,A2,255.0,3.0,38,200.0
1029,E3,255.0,1.0,38,200.0
1030,C#5,255.25,0.25,48,200.0
1031,D5,255.5,0.25,53,200.0
1032,C#5,255.75,0.25,49,200.0
1033,D5,256.0,0.25,56,200.0
1034,E3,256.0,1.0,39,200.0
1035,C#5,256.25,0.25,50,200.0
1036,D5,256.5,0.25,57,200.0
1037,C#5,256.75,0.25,51,200.0
1038,D5,257.0,0.25,57,200.0
1039,E3,257.0,1.0,41,200.0
1040,C#5,257.25,0.25,52,200.0
1041,B4,257.5,0.25,58,200.0
1042,C#5,257.75,0.25,51,200.0
1043,F#4,258.0,1.0,57,200.0
1044,D5,258.0,1.0,57,200.0
1045,F#3,258.0,1.0,42,200.0
1046,D3,258.0,1.0,42,200.0
1047,D5,259.0,0.5,55,200.0
1048,F#3,259.0,1.0,38,200.0
1049,E5,259.5,0.5,49,200.0
1050,E4,260.0,1.0,52,200.0
1051,C#5,260.0,1.0,52,200.0
1052,F#3,260.0,1.0,31,200.0
1053,B-3,260.0,1.0,31,200.0
1054,D4,261.0,3.0,46,200.0
1055,B4,261.0,3.0,46,200.0
1056,B2,261.0,1.0,38,200.0
1057,G3,261.0,1.0,38,200.0
1058,B3,261.0,1.0,38,200.0
1059,B2,262.0,0.5,49,200.0
1060,B-2,262.5,0.5,40,200.0
1061,B2,263.0,1.0,38,200.0
1062,D5,264.0,0.25,52,200.0
1063,G4,264.0,3.0,52,200.0
1064,A2,264.0,3.0,38,200.0
1065,E3,264.0,0.5,38,200.0
1066,C#5,264.25,0.25,48,200.0
1067,D5,264.5,0.25,53,200.0
1068,E3,264.5,1.0,46,200.0
1069,C#5,264.75,0.25,49,200.0
1070,D5,265.0,0.25,56,200.0
1071,C#5,265.25,0.25,50,200.0
1072,D5,265.5,0.25,57,200.0
1073,E3,265.5,1.0,38,200.0
1074,C#5,265.75,0.25,51,200.0
1075,D5,266.0,0.25,57,200.0
1076,C#5,266.25,0.25,52,200.0
1077,B4,266.5,0.25,58,200.0
1078,E3,266.5,0.5,38,200.0
1079,C#5,266.75,0.25,51,200.0
1080,D5,267.0,1.0,57,200.0
1081,F#3,267.0,1.0,42,200.0
1082,D3,267.0,1.0,42,200.0
1083,F#4,267.5,0.5,57,200.0
1084,D5,268.0,0.5,55,200.0
1085,F#3,268.0,1.0,38,200.0
1086,F#4,268.5,1.0,57,200.0
1087,E5,268.5,0.5,49,200.0
1088,C#5,269.0,1.0,52,200.0
1089,F#3,269.0,1.0,31,200.0
1090,B-3,269.0,1.0,31,200.0
1091,E4,269.5,0.5,45,200.0
1092,B4,270.0,3.0,46,200.0
1093,B2,270.0,0.5,38,200.0
1094,F#3,270.5,1.0,28,200.0
1095,D4,271.0,1.0,29,200.0
1096,F#4,271.0,1.0,29,200.0
1097,F#3,271.5,1.0,26,200.0
1098,D4,272.0,1.0,27,200.0
1099,F#4,272.0,1.0,27,200.0
1100,F#3,272.5,0.5,25,200.0
1101,B2,273.0,3.0,23,200.0
1102,D4,273.0,1.0,26,200.0
1103,F#4,273.0,1.0,26,200.0
1104,F#3,273.5,1.0,23,200.0
1105,D4,274.0,1.0,25,200.0
1106,F#4,274.0,1.0,25,200.0
1107,F#3,274.5,1.0,20,200.0
1108,D4,275.0,1.0,23,200.0
1109,F#4,275.0,1.0,23,200.0
1110,F#3,275.5,0.5,19,200.0
1111,D4,276.0,1.0,82,200.0
1112,D2,276.0,1.0,55,200.0
1113,D3,276.0,1.0,55,200.0
1114,E4,277.0,0.25,78,200.0
1115,E2,277.0,0.25,52,200.0
1116,E3,277.0,0.25,52,200.0
1117,D4,277.5,0.25,75,200.0
1118,D2,277.5,0.25,50,200.0
1119,D3,277.5,0.25,50,200.0
1120,C#4,278.0,0.25,79,200.0
1121,C#2,278.0,0.25,54,200.0
1122,C#3,278.0,0.25,54,200.0
1123,D4,278.5,0.25,73,200.0
1124,D2,278.5,0.25,49,200.0
1125,D3,278.5,0.25,49,200.0
1126,E4,279.0,0.25,81,200.0
1127,E2,279.0,0.25,54,200.0
1128,E3,279.0,0.25,54,200.0
1129,G4,280.0,0.25,75,200.0
1130,G2,280.0,0.25,44,200.0
1131,G3,280.0,0.25,44,200.0
1132,F#4,281.0,0.25,73,200.0
1133,F#2,281.0,0.25,49,200.0
1134,F#3,281.0,0.25,49,200.0
1135,D4,282.0,0.875,82,200.0
1136,D2,282.0,0.875,55,200.0
1137,D3,282.0,0.875,55,200.0
1138,F#4,282.875,0.125,71,200.0
1139,F#2,282.875,0.125,48,200.0
1140,F#3,282.875,0.125,48,200.0
1141,E4,283.0,0.25,75,200.0
1142,E2,283.0,0.25,50,200.0
1143,E3,283.0,0.25,50,200.0
1144,D4,283.5,0.25,73,200.0
1145,D2,283.5,0.25,48,200.0
1146,D3,283.5,0.25,48,200.0
1147,C#4,284.0,0.25,77,200.0
1148,C#2,284.0,0.25,52,200.0
1149,C#3,284.0,0.25,52,200.0
1150,D4,284.5,0.25,71,200.0
1151,D2,284.5,0.25,48,200.0
1152,D3,284.5,0.25,48,200.0
1153,E4,285.0,0.25,80,200.0
1154,E2,285.0,0.25,54,200.0
1155,E3,285.0,0.25,54,200.0
1156,G4,286.0,0.25,74,200.0
1157,G2,286.0,0.25,44,200.0
1158,G3,286.0,0.25,44,200.0
1159,F#4,287.0,0.25,73,200.0
1160,F#2,287.0,0.25,49,200.0
1161,F#3,287.0,0.25,49,200.0
1162,D4,288.0,1.0,80,200.0
1163,D2,288.0,1.0,61,200.0
1164,D3,288.0,1.0,61,200.0
1165,E4,289.0,0.5,73,200.0
1166,E3,289.0,0.5,58,200.0
1167,F#4,289.5,0.5,74,200.0
1168,F#3,289.5,0.5,59,200.0
1169,A4,290.0,0.5,77,200.0
1170,A3,290.0,0.5,60,200.0
1171,C5,290.5,0.5,78,200.0
1172,C4,290.5,0.5,61,200.0
1173,E5,291.0,1.0,79,200.0
1174,E4,291.0,1.0,62,200.0
1175,G5,292.0,1.0,78,200.0
1176,G4,292.0,1.0,61,200.0
1177,F#5,293.0,1.0,78,200.0
1178,F#4,293.0,1.0,60,200.0
1179,D4,294.0,1.0,66,200.0
1180,F#4,294.0,1.0,66,200.0
1181,F#5,294.0,1.0,66,200.0
1182,B3,294.0,3.0,56,200.0
1183,G3,294.0,3.0,56,200.0
1184,G4,295.0,0.5,64,200.0
1185,G5,295.0,0.5,64,200.0
1186,F#4,295.5,0.5,64,200.0
1187,F#5,295.5,0.5,64,200.0
1188,E4,296.0,0.5,64,200.0
1189,E5,296.0,0.5,64,200.0
1190,D4,296.5,0.5,64,200.0
1191,D5,296.5,0.5,64,200.0
1192,G4,297.0,0.875,74,200.0
1193,C#5,297.0,0.875,74,200.0
1194,G3,297.0,0.875,59,200.0
1195,A3,297.0,0.875,59,200.0
1196,C#4,297.0,0.875,59,200.0
1197,D5,297.875,0.125,64,200.0
1198,C#5,298.0,0.5,73,200.0
1199,C#4,298.0,0.5,58,200.0
1200,A4,298.5,0.5,67,200.0
1201,A3,298.5,0.5,53,200.0
1202,B4,299.0,0.5,72,200.0
1203,B3,299.0,0.5,57,200.0
1204,C#5,299.5,0.5,69,200.0
1205,C#4,299.5,0.5,55,200.0
1206,F#4,300.0,1.0,74,200.0
1207,D5,300.0,1.0,74,200.0
1208,F#3,300.0,1.0,59,200.0
1209,A3,300.0,1.0,59,200.0
1210,D4,300.0,1.0,59,200.0
1211,E4,301.0,0.25,78,200.0
1212,E3,301.0,0.25,52,200.0
1213,E2,301.0,0.25,52,200.0
1214,D4,301.5,0.25,75,200.0
1215,D2,301.5,0.25,50,200.0
1216,D3,301.5,0.25,50,200.0
1217,C#4,302.0,0.25,79,200.0
1218,C#2,302.0,0.25,54,200.0
1219,C#3,302.0,0.25,54,200.0
1220,D4,302.5,0.25,73,200.0
1221,D2,302.5,0.25,49,200.0
1222,D3,302.5,0.25,49,200.0
1223,E4,303.0,0.25,81,200.0
1224,E2,303.0,0.25,54,200.0
1225,E3,303.0,0.25,54,200.0
1226,G4,304.0,0.25,74,200.0
1227,G2,304.0,0.25,44,200.0
1228,G3,304.0,0.25,44,200.0
1229,F#4,305.0,0.25,73,200.0
1230,F#2,305.0,0.25,49,200.0
1231,F#3,305.0,0.25,49,200.0
1232,D4,306.0,0.875,82,200.0
1233,D2,306.0,0.875,55,200.0
1234,D3,306.0,0.875,55,200.0
1235,F#4,306.875,0.125,71,200.0
1236,F#2,306.875,0.125,48,200.0
1237,F#3,306.875,0.125,48,200.0
1238,E4,307.0,0.25,75,200.0
1239,E2,307.0,0.25,50,200.0
1240,E3,307.0,0.25,50,200.0
1241,D4,307.5,0.25,73,200.0
1242,D2,307.5,0.25,48,200.0
1243,D3,307.5,0.25,48,200.0
1244,C#4,308.0,0.25,77,200.0
1245,C#2,308.0,0.25,52,200.0
1246,C#3,308.0,0.25,52,200.0
1247,D4,308.5,0.25,71,200.0
1248,D2,308.5,0.25,48,200.0
1249,D3,308.5,0.25,48,200.0
1250,E4,309.0,0.25,80,200.0
1251,E2,309.0,0.25,54,200.0
1252,E3,309.0,0.25,54,200.0
1253,G4,310.0,0.25,74,200.0
1254,G2,310.0,0.25,44,200.0
1255,G3,310.0,0.25,44,200.0
1256,F#4,311.0,0.25,73,200.0
1257,F#2,311.0,0.25,49,200.0
1258,F#3,311.0,0.25,49,200.0
1259,D4,312.0,1.0,80,200.0
1260,D2,312.0,1.0,61,200.0
1261,D3,312.0,1.0,61,200.0
1262,E4,313.0,0.5,73,200.0
1263,E3,313.0,0.5,58,200.0
1264,F#4,313.5,0.5,74,200.0
1265,F#3,313.5,0.5,59,200.0
1266,A4,314.0,0.5,77,200.0
1267,A3,314.0,0.5,60,200.0
1268,C5,314.5,0.5,78,200.0
1269,C4,314.5,0.5,61,200.0
1270,E5,315.0,1.0,79,200.0
1271,E4,315.0,1.0,62,200.0
1272,G5,316.0,1.0,78,200.0
1273,G4,316.0,1.0,61,200.0
1274,F#5,317.0,1.0,78,200.0
1275,F#4,317.0,1.0,60,200.0
1276,D4,318.0,1.0,66,200.0
1277,F#4,318.0,1.0,66,200.0
1278,F#5,318.0,1.0,66,200.0
1279,B3,318.0,3.0,56,200.0
1280,G3,318.0,3.0,56,200.0
1281,G4,319.0,0.5,64,200.0
1282,G5,319.0,0.5,64,200.0
1283,F#4,319.5,0.5,64,200.0
1284,F#5,319.5,0.5,64,200.0
1285,E4,320.0,0.5,64,200.0
1286,E5,320.0,0.5,64,200.0
1287,D4,320.5,0.5,64,200.0
1288,D5,320.5,0.5,64,200.0
1289,G4,321.0,0.875,72,200.0
1290,C#5,321.0,0.875,72,200.0
1291,G3,321.0,0.875,59,200.0
1292,A3,321.0,0.875,59,200.0
1293,C#4,321.0,0.875,59,200.0
1294,D5,321.875,0.125,64,200.0
1295,C#5,322.0,0.5,73,200.0
1296,C#4,322.0,0.5,58,200.0
1297,A4,322.5,0.5,67,200.0
1298,A3,322.5,0.5,53,200.0
1299,B4,323.0,0.5,72,200.0
1300,B3,323.0,0.5,57,200.0
1301,C#5,323.5,0.5,69,200.0
1302,C#4,323.5,0.5,55,200.0
1303,F#4,324.0,0.875,74,200.0
1304,D5,324.0,0.875,74,200.0
1305,F#3,324.0,1.0,59,200.0
1306,A3,324.0,1.0,59,200.0
1307,D4,324.0,1.0,59,200.0
1308,E4,324.875,0.125,73,200.0
1309,D4,325.0,0.25,78,200.0
1310,D3,325.0,0.25,52,200.0
1311,D2,325.0,0.25,52,200.0
1312,C#4,325.5,0.25,75,200.0
1313,C#2,325.5,0.25,50,200.0
1314,C#3,325.5,0.25,50,200.0
1315,D4,326.0,0.25,79,200.0
1316,D2,326.0,0.25,54,200.0
1317,D3,326.0,0.25,54,200.0
1318,D4,327.0,0.25,74,200.0
1319,D2,327.0,0.25,56,200.0
1320,D3,327.0,0.25,56,200.0
1321,A4,328.0,0.25,78,200.0
1322,A3,328.0,0.25,52,200.0
1323,A2,328.0,0.25,52,200.0
1324,F#4,328.5,0.25,75,200.0
1325,F#2,328.5,0.25,50,200.0
1326,F#3,328.5,0.25,50,200.0
1327,D4,329.0,0.25,79,200.0
1328,D2,329.0,0.25,54,200.0
1329,D3,329.0,0.25,54,200.0
1330,E5,329.875,0.125,64,200.0
1331,D5,330.0,0.25,60,200.0
1332,D6,330.0,0.25,60,200.0
1333,C4,330.0,0.25,46,200.0
1334,D4,330.0,0.25,46,200.0
1335,F#4,330.0,0.25,46,200.0
1336,A4,330.0,0.25,46,200.0
1337,C#5,330.5,0.25,55,200.0
1338,C#6,330.5,0.25,55,200.0
1339,C4,330.5,0.25,42,200.0
1340,D4,330.5,0.25,42,200.0
1341,F#4,330.5,0.25,42,200.0
1342,A4,330.5,0.25,42,200.0
1343,D5,331.0,0.25,58,200.0
1344,D6,331.0,0.25,58,200.0
1345,C4,331.0,0.25,45,200.0
1346,D4,331.0,0.25,45,200.0
1347,F#4,331.0,0.25,45,200.0
1348,A4,331.0,0.25,45,200.0
1349,D5,332.0,0.25,57,200.0
1350,D6,332.0,0.25,57,200.0
1351,C4,332.0,0.25,44,200.0
1352,D4,332.0,0.25,44,200.0
1353,F#4,332.0,0.25,44,200.0
1354,A4,332.0,0.25,44,200.0
1355,C#5,332.5,0.25,54,200.0
1356,C#6,332.5,0.25,54,200.0
1357,C4,332.5,0.25,41,200.0
1358,D4,332.5,0.25,41,200.0
1359,F#4,332.5,0.25,41,200.0
1360,A4,332.5,0.25,41,200.0
1361,D5,333.0,0.25,57,200.0
1362,D6,333.0,0.25,57,200.0
1363,B3,333.0,0.25,44,200.0
1364,D4,333.0,0.25,44,200.0
1365,G4,333.0,0.25,44,200.0
1366,B4,333.0,0.25,44,200.0
1367,B5,334.0,0.5,59,200.0
1368,B3,334.0,0.5,45,200.0
1369,D4,334.0,0.5,45,200.0
1370,G4,334.0,0.5,45,200.0
1371,B4,334.0,0.5,45,200.0
1372,G5,334.5,0.5,56,200.0
1373,B3,334.5,0.5,43,200.0
1374,D4,334.5,0.5,43,200.0
1375,G4,334.5,0.5,43,200.0
1376,B4,334.5,0.5,43,200.0
1377,D5,335.0,0.75,59,200.0
1378,B3,335.0,0.75,45,200.0
1379,D4,335.0,0.75,45,200.0
1380,G4,335.0,0.75,45,200.0
1381,B4,335.0,0.75,45,200.0
1382,D5,336.0,0.5,59,200.0
1383,B-3,336.0,3.0,53,200.0
1384,G4,336.0,3.0,53,200.0
1385,E5,336.5,0.5,59,200.0
1386,F5,337.0,0.75,63,200.0
1387,D4,337.0,2.0,53,200.0
1388,E5,337.75,0.125,52,200.0
1389,F5,337.875,0.125,49,200.0
1390,E5,338.0,0.5,59,200.0
1391,E4,338.0,0.5,48,200.0
1392,D5,338.5,0.5,59,200.0
1393,F4,338.5,0.5,49,200.0
1394,C5,339.0,0.25,58,200.0
1395,A3,339.0,0.25,56,200.0
1396,D4,339.0,0.25,56,200.0
1397,F#4,339.0,0.25,56,200.0
1398,A5,340.0,0.5,63,200.0
1399,D3,340.0,0.25,59,200.0
1400,F#5,340.5,0.5,57,200.0
1401,C5,341.0,0.25,59,200.0
1402,A3,341.0,0.25,52,200.0
1403,D4,341.0,0.25,52,200.0
1404,F#4,341.0,0.25,52,200.0
1405,B-4,342.0,0.25,59,200.0
1406,B-3,342.0,0.25,55,200.0
1407,D4,342.0,0.25,55,200.0
1408,G4,342.0,0.25,55,200.0
1409,G5,343.0,0.5,63,200.0
1410,D3,343.0,0.25,59,200.0
1411,D5,343.5,0.5,57,200.0
1412,B-4,344.0,0.25,59,200.0
1413,B-3,344.0,0.25,51,200.0
1414,D4,344.0,0.25,51,200.0
1415,G4,344.0,0.25,51,200.0
1416,A4,345.0,3.0,59,200.0
1417,D4,345.0,0.25,55,200.0
1418,F#4,345.0,0.25,55,200.0
1419,F#2,346.0,0.25,61,200.0
1420,F#3,346.0,0.25,61,200.0
1421,E2,346.5,0.25,57,200.0
1422,E3,346.5,0.25,57,200.0
1423,D2,347.0,0.25,62,200.0
1424,D3,347.0,0.25,62,200.0
1425,F#4,348.0,0.875,74,200.0
1426,D5,348.0,0.875,74,200.0
1427,F#3,348.0,1.0,59,200.0
1428,A3,348.0,1.0,59,200.0
1429,D4,348.0,1.0,59,200.0
1430,E4,348.875,0.125,73,200.0
1431,D4,349.0,0.25,78,200.0
1432,D3,349.0,0.25,52,200.0
1433,D2,349.0,0.25,52,200.0
1434,C#4,349.5,0.25,75,200.0
1435,C#2,349.5,0.25,50,200.0
1436,C#3,349.5,0.25,50,200.0
1437,D4,350.0,0.25,79,200.0
1438,D2,350.0,0.25,54,200.0
1439,D3,350.0,0.25,54,200.0
1440,D4,351.0,0.25,74,200.0
1441,D2,351.0,0.25,56,200.0
1442,D3,351.0,0.25,56,200.0
1443,A4,352.0,0.25,78,200.0
1444,A3,352.0,0.25,52,200.0
1445,A2,352.0,0.25,52,200.0
1446,F#4,352.5,0.25,75,200.0
1447,F#2,352.5,0.25,50,200.0
1448,F#3,352.5,0.25,50,200.0
1449,D4,353.0,0.25,79,200.0
1450,D2,353.0,0.25,54,200.0
1451,D3,353.0,0.25,54,200.0
1452,E5,353.875,0.125,64,200.0
1453,D5,354.0,0.25,60,200.0
1454,D6,354.0,0.25,60,200.0
1455,C4,354.0,0.25,46,200.0
1456,D4,354.0,0.25,46,200.0
1457,F#4,354.0,0.25,46,200.0
1458,A4,354.0,0.25,46,200.0
1459,C#5,354.5,0.25,55,200.0
1460,C#6,354.5,0.25,55,200.0
1461,C4,354.5,0.25,42,200.0
1462,D4,354.5,0.25,42,200.0
1463,F#4,354.5,0.25,42,200.0
1464,A4,354.5,0.25,42,200.0
1465,D5,355.0,0.25,58,200.0
1466,D6,355.0,0.25,58,200.0
1467,C4,355.0,0.25,45,200.0
1468,D4,355.0,0.25,45,200.0
1469,F#4,355.0,0.25,45,200.0
1470,A4,355.0,0.25,45,200.0
1471,D5,356.0,0.25,57,200.0
1472,D6,356.0,0.25,57,200.0
1473,C4,356.0,0.25,44,200.0
1474,D4,356.0,0.25,44,200.0
1475,F#4,356.0,0.25,44,200.0
1476,A4,356.0,0.25,44,200.0
1477,C#5,356.5,0.25,54,200.0
1478,C#6,356.5,0.25,54,200.0
1479,C4,356.5,0.25,41,200.0
1480,D4,356.5,0.25,41,200.0
1481,F#4,356.5,0.25,41,200.0
1482,A4,356.5,0.25,41,200.0
1483,D5,357.0,0.25,57,200.0
1484,D6,357.0,0.25,57,200.0
1485,B3,357.0,0.25,44,200.0
1486,D4,357.0,0.25,44,200.0
1487,G4,357.0,0.25,44,200.0
1488,B4,357.0,0.25,44,200.0
1489,B5,358.0,0.5,59,200.0
1490,B3,358.0,0.5,45,200.0
1491,D4,358.0,0.5,45,200.0
1492,G4,358.0,0.5,45,200.0
1493,B4,358.0,0.5,45,200.0
1494,G5,358.5,0.5,56,200.0
1495,B3,358.5,0.5,43,200.0
1496,D4,358.5,0.5,43,200.0
1497,G4,358.5,0.5,43,200.0
1498,B4,358.5,0.5,43,200.0
1499,D5,359.0,0.75,59,200.0
1500,B3,359.0,0.75,45,200.0
1501,D4,359.0,0.75,45,200.0
1502,G4,359.0,0.75,45,200.0
1503,B4,359.0,0.75,45,200.0
1504,D5,360.0,0.5,59,200.0
1505,B-3,360.0,3.0,53,200.0
1506,G4,360.0,3.0,53,200.0
1507,E5,360.5,0.5,59,200.0
1508,F5,361.0,0.75,63,200.0
1509,D4,361.0,2.0,53,200.0
1510,E5,361.75,0.125,52,200.0
1511,F5,361.875,0.125,49,200.0
1512,E5,362.0,0.5,59,200.0
1513,E4,362.0,0.5,48,200.0
1514,D5,362.5,0.5,59,200.0
1515,F4,362.5,0.5,49,200.0
1516,C5,363.0,0.25,58,200.0
1517,A3,363.0,0.25,56,200.0
1518,D4,363.0,0.25,56,200.0
1519,F#4,363.0,0.25,56,200.0
1520,A5,364.0,0.5,63,200.0
1521,D3,364.0,0.25,59,200.0
1522,F#5,364.5,0.5,57,200.0
1523,C5,365.0,0.25,59,200.0
1524,A3,365.0,0.25,52,200.0
1525,D4,365.0,0.25,52,200.0
1526,F#4,365.0,0.25,52,200.0
1527,B-4,366.0,0.25,59,200.0
1528,B-3,366.0,0.25,55,200.0
1529,D4,366.0,0.25,55,200.0
1530,G4,366.0,0.25,55,200.0
1531,G5,367.0,0.5,63,200.0
1532,D3,367.0,0.25,59,200.0
1533,D5,367.5,0.5,57,200.0
1534,B-4,368.0,0.25,59,200.0
1535,B-3,368.0,0.25,51,200.0
1536,D4,368.0,0.25,51,200.0
1537,G4,368.0,0.25,51,200.0
1538,A4,369.0,3.0,59,200.0
1539,D4,369.0,0.25,55,200.0
1540,F#4,369.0,0.25,55,200.0
1541,F#2,370.0,0.25,59,200.0
1542,F#3,370.0,0.25,59,200.0
1543,E2,370.5,0.25,55,200.0
1544,E3,370.5,0.25,55,200.0
1545,D2,371.0,0.25,60,200.0
1546,D3,371.0,0.25,60,200.0
1547,F#3,372.0,3.0,52,200.0
1548,A3,372.0,3.0,52,200.0
1549,F#2,373.0,0.25,52,200.0
1550,E2,373.5,0.25,49,200.0
1551,D2,374.0,0.25,53,200.0
1552,A3,375.0,3.0,49,200.0
1553,F#3,375.0,3.0,49,200.0
1554,F#2,376.0,0.25,49,200.0
1555,E2,376.5,0.25,46,200.0
1556,D2,377.0,0.25,50,200.0
1557,F#2,378.0,0.25,49,200.0
1558,F#3,378.0,0.25,49,200.0
1559,E2,378.5,0.25,45,200.0
1560,E3,378.5,0.25,45,200.0
1561,D2,379.0,0.25,48,200.0
1562,D3,379.0,0.25,48,200.0
1563,F#2,380.0,0.25,45,200.0
1564,F#3,380.0,0.25,45,200.0
1565,E3,380.5,0.25,41,200.0
1566,E2,380.5,0.25,41,200.0
1567,D2,381.0,0.25,44,200.0
1568,D3,381.0,0.25,44,200.0
1569,A2,382.0,0.25,41,200.0
1570,D2,383.0,0.25,40,200.0
1571,D4,384.0,0.5,59,200.0
1572,D2,384.0,3.0,55,200.0
1573,F#3,384.5,2.5,46,200.0
1574,F#4,384.875,0.125,49,200.0
1575,E4,385.0,0.5,55,200.0
1576,D4,385.5,0.5,53,200.0
1577,C#4,386.0,0.5,56,200.0
1578,D4,386.5,0.5,51,200.0
1579,E4,387.0,0.25,58,200.0
1580,C#2,387.0,0.25,55,200.0
1581,C#3,387.5,0.25,55,200.0
1582,G3,388.0,0.25,50,200.0
1583,B3,388.0,0.25,50,200.0
1584,E4,388.0,0.25,50,200.0
1585,G4,388.0,0.25,50,200.0
1586,F#3,389.0,0.25,44,200.0
1587,C#4,389.0,0.25,44,200.0
1588,E4,389.0,0.25,44,200.0
1589,F#4,389.0,0.25,44,200.0
1590,B-2,389.0,1.0,50,200.0
1591,B-1,389.0,1.0,50,200.0
1592,D4,390.0,0.25,58,200.0
1593,B1,390.0,0.25,55,200.0
1594,B2,390.5,0.25,55,200.0
1595,F#3,391.0,0.25,48,200.0
1596,B3,391.0,0.25,48,200.0
1597,D4,391.0,0.25,48,200.0
1598,F#4,391.0,0.25,48,200.0
1599,E3,392.0,0.25,42,200.0
1600,B3,392.0,0.25,45,200.0
1601,D4,392.0,0.25,45,200.0
1602,E4,392.0,0.25,45,200.0
1603,G#1,392.0,1.0,50,200.0
1604,G#2,392.0,1.0,50,200.0
1605,C#4,393.0,0.5,59,200.0
1606,A1,393.0,1.0,55,200.0
1607,A2,393.0,1.0,55,200.0
1608,E3,393.5,2.5,55,200.0
1609,D4,393.875,0.125,49,200.0
1610,C#4,394.0,0.5,55,200.0
1611,B3,394.5,0.5,53,200.0
1612,C#4,395.0,0.5,56,200.0
1613,A3,395.0,0.5,56,200.0
1614,A2,395.0,1.0,55,200.0
1615,G3,395.5,0.5,51,200.0
1616,D4,395.967,33/1000,59,200.0
1617,D2,395.967,33/1000,55,200.0
1618,D4,396.0,467/1000,59,200.0
1619,D2,396.0,2967/1000,55,200.0
1620,F#3,396.467,2.5,46,200.0
1621,F#4,396.842,0.125,49,200.0
1622,E4,396.967,0.5,55,200.0
1623,D4,397.467,0.5,53,200.0
1624,C#4,397.967,0.5,56,200.0
1625,D4,398.467,0.5,51,200.0
1626,E4,398.967,33/1000,58,200.0
1627,C#2,398.967,33/1000,55,200.0
1628,E4,399.0,217/1000,58,200.0
1629,C#2,399.0,217/1000,55,200.0
1630,C#3,399.467,0.25,48,200.0
1631,G3,399.967,0.25,50,200.0
1632,B3,399.967,0.25,50,200.0
1633,E4,399.967,0.25,50,200.0
1634,G4,399.967,0.25,50,200.0
1635,F#3,400.967,0.25,44,200.0
1636,C#4,400.967,0.25,44,200.0
1637,E4,400.967,0.25,44,200.0
1638,F#4,400.967,0.25,44,200.0
1639,B-2,400.967,1.0,50,200.0
1640,B-1,400.967,1.0,50,200.0
1641,D4,402.0,0.25,58,200.0
1642,B3,402.0,0.25,58,200.0
1643,B2,402.0,1.0,50,200.0
1644,B1,402.0,1.0,50,200.0
1645,F#3,402.5,0.25,47,200.0
1646,D4,403.0,0.25,50,200.0
1647,B3,403.0,0.25,50,200.0
1648,G2,403.0,0.5,50,200.0
1649,G1,403.0,0.5,50,200.0
1650,E4,403.5,0.25,50,200.0
1651,C#4,404.0,1.0,59,200.0
1652,A3,404.0,0.5,59,200.0
1653,E3,404.0,0.25,51,200.0
1654,A2,404.0,1.0,51,200.0
1655,A1,404.0,0.5,42,200.0
1656,G3,404.5,0.5,52,200.0
1657,D4,405.0,0.5,64,200.0
1658,A2,405.0,1.0,51,200.0
1659,D2,405.0,0.5,54,200.0
1660,F#3,405.0,0.5,54,200.0
1661,D5,406.0,0.5,70,200.0
1662,F#4,406.0,0.5,70,200.0
1663,A3,406.0,0.5,65,200.0
1664,D3,406.0,0.5,65,200.0
1665,D4,408.0,0.5,59,200.0
1666,D2,408.0,3.0,55,200.0
1667,F#3,408.5,2.5,46,200.0
1668,F#4,408.875,0.125,49,200.0
1669,E4,409.0,0.5,55,200.0
1670,D4,409.5,0.5,53,200.0
1671,C#4,410.0,0.5,56,200.0
1672,D4,410.5,0.5,51,200.0
1673,E4,411.0,0.25,58,200.0
1674,C#2,411.0,0.25,55,200.0
1675,C#3,411.5,0.25,55,200.0
1676,G3,412.0,0.25,50,200.0
1677,B3,412.0,0.25,50,200.0
1678,E4,412.0,0.25,50,200.0
1679,G4,412.0,0.25,50,200.0
1680,F#3,413.0,0.25,44,200.0
1681,C#4,413.0,0.25,44,200.0
1682,E4,413.0,0.25,44,200.0
1683,F#4,413.0,0.25,44,200.0
1684,B-2,413.0,1.0,50,200.0
1685,B-1,413.0,1.0,50,200.0
1686,D4,414.0,0.25,58,200.0
1687,B1,414.0,0.25,55,200.0
1688,B2,414.5,0.25,55,200.0
1689,F#3,415.0,0.25,48,200.0
1690,B3,415.0,0.25,48,200.0
1691,D4,415.0,0.25,48,200.0
1692,F#4,415.0,0.25,48,200.0
1693,E3,416.0,0.25,42,200.0
1694,B3,416.0,0.25,45,200.0
1695,D4,416.0,0.25,45,200.0
1696,E4,416.0,0.25,45,200.0
1697,G#1,416.0,1.0,50,200.0
1698,G#2,416.0,1.0,50,200.0
1699,C#4,417.0,0.5,59,200.0
1700,A1,417.0,1.0,55,200.0
1701,A2,417.0,1.0,55,200.0
1702,E3,417.5,2.5,55,200.0
1703,D4,417.875,0.125,49,200.0
1704,C#4,418.0,0.5,55,200.0
1705,B3,418.5,0.5,53,200.0
1706,C#4,419.0,0.5,56,200.0
1707,A3,419.0,0.5,56,200.0
1708,A2,419.0,1.0,55,200.0
1709,G3,419.5,0.5,51,200.0
1710,D4,419.967,33/1000,59,200.0
1711,D2,419.967,33/1000,55,200.0
1712,D4,420.0,467/1000,59,200.0
1713,D2,420.0,2967/1000,55,200.0
1714,F#3,420.467,2.5,46,200.0
1715,F#4,420.842,0.125,49,200.0
1716,E4,420.967,0.5,55,200.0
1717,D4,421.467,0.5,53,200.0
1718,C#4,421.967,0.5,56,200.0
1719,D4,422.467,0.5,51,200.0
1720,E4,422.967,33/1000,58,200.0
1721,C#2,422.967,33/1000,55,200.0
1722,E4,423.0,217/1000,58,200.0
1723,C#2,423.0,217/1000,55,200.0
1724,C#3,423.467,0.25,48,200.0
1725,G3,423.967,0.25,50,200.0
1726,B3,423.967,0.25,50,200.0
1727,E4,423.967,0.25,50,200.0
1728,G4,423.967,0.25,50,200.0
1729,F#3,424.967,0.25,44,200.0
1730,C#4,424.967,0.25,44,200.0
1731,E4,424.967,0.25,44,200.0
1732,F#4,424.967,0.25,44,200.0
1733,B-2,424.967,1.0,50,200.0
1734,B-1,424.967,1.0,50,200.0
1735,D4,426.0,0.25,58,200.0
1736,B3,426.0,0.25,58,200.0
1737,B2,426.0,1.0,50,200.0
1738,B1,426.0,1.0,50,200.0
1739,F#3,426.5,0.25,47,200.0
1740,D4,427.0,0.25,50,200.0
1741,B3,427.0,0.25,50,200.0
1742,G2,427.0,0.5,50,200.0
1743,G1,427.0,0.5,50,200.0
1744,E4,427.5,0.25,50,200.0
1745,C#4,428.0,1.0,59,200.0
1746,A3,428.0,0.5,59,200.0
1747,E3,428.0,0.25,51,200.0
1748,A2,428.0,1.0,51,200.0
1749,A1,428.0,0.5,42,200.0
1750,G3,428.5,0.5,52,200.0
1751,D4,429.0,0.5,64,200.0
1752,A2,429.0,1.0,51,200.0
1753,D2,429.0,0.5,54,200.0
1754,F#3,429.0,0.5,54,200.0
1755,D5,430.0,0.5,70,200.0
1756,F#4,430.0,0.5,70,200.0
1757,A3,430.0,0.5,65,200.0
1758,D3,430.0,0.5,65,200.0
1759,D5,432.0,3.0,57,200.0
1760,A5,432.0,1.0,67,200.0
1761,D4,432.0,3.0,42,200.0
1762,F#4,432.0,1.0,52,200.0
1763,B5,433.0,0.5,59,200.0
1764,G4,433.0,0.5,47,200.0
1765,A5,433.5,0.5,55,200.0
1766,F#4,433.5,0.5,44,200.0
1767,G5,434.0,0.5,57,200.0
1768,E4,434.0,0.5,45,200.0
1769,A5,434.5,0.5,53,200.0
1770,F#4,434.5,0.5,42,200.0
1771,B5,435.0,1.0,60,200.0
1772,D5,435.0,3.0,57,200.0
1773,G4,435.0,1.0,48,200.0
1774,D4,435.0,3.0,42,200.0
1775,B5,436.0,0.5,59,200.0
1776,G4,436.0,0.5,47,200.0
1777,D6,436.5,0.5,55,200.0
1778,B4,436.5,0.5,44,200.0
1779,B5,437.0,1.0,58,200.0
1780,G4,437.0,1.0,46,200.0
1781,D5,438.0,3.0,57,200.0
1782,A5,438.0,1.0,67,200.0
1783,D4,438.0,2.5,42,200.0
1784,F#4,438.0,1.0,52,200.0
1785,B5,439.0,0.5,59,200.0
1786,G4,439.0,0.5,47,200.0
1787,A5,439.5,0.5,55,200.0
1788,F#4,439.5,0.5,44,200.0
1789,G5,440.0,0.5,57,200.0
1790,E4,440.0,0.5,45,200.0
1791,F#5,440.5,0.5,53,200.0
1792,D4,440.5,0.5,42,200.0
1793,C#5,441.0,1.0,54,200.0
1794,E5,441.0,1.0,54,200.0
1795,A3,441.0,1.0,43,200.0
1796,E4,441.0,1.0,43,200.0
1797,G4,442.0,0.5,47,200.0
1798,C#5,442.0,0.5,51,200.0
1799,E5,442.0,0.5,51,200.0
1800,F#4,442.5,0.5,41,200.0
1801,B4,442.5,0.5,50,200.0
1802,D5,442.5,0.5,50,200.0
1803,C#5,443.0,1.0,52,200.0
1804,E5,443.0,1.0,52,200.0
1805,A3,443.0,1.0,41,200.0
1806,G4,443.0,1.0,41,200.0
1807,D5,444.0,3.0,57,200.0
1808,A5,444.0,1.0,67,200.0
1809,D4,444.0,3.0,42,200.0
1810,F#4,444.0,1.0,52,200.0
1811,B5,445.0,0.5,59,200.0
1812,G4,445.0,0.5,47,200.0
1813,A5,445.5,0.5,55,200.0
1814,F#4,445.5,0.5,44,200.0
1815,G5,446.0,0.5,57,200.0
1816,E4,446.0,0.5,45,200.0
1817,A5,446.5,0.5,53,200.0
1818,F#4,446.5,0.5,42,200.0
1819,B5,447.0,1.0,60,200.0
1820,D5,447.0,3.0,57,200.0
1821,G4,447.0,1.0,48,200.0
1822,D4,447.0,3.0,42,200.0
1823,B5,448.0,0.5,59,200.0
1824,G4,448.0,0.5,47,200.0
1825,D6,448.5,0.5,55,200.0
1826,B4,448.5,0.5,44,200.0
1827,B5,449.0,1.0,58,200.0
1828,G4,449.0,1.0,46,200.0
1829,D5,450.0,3.0,57,200.0
1830,A5,450.0,1.0,67,200.0
1831,D4,450.0,2.5,42,200.0
1832,F#4,450.0,1.0,52,200.0
1833,B5,451.0,0.5,59,200.0
1834,G4,451.0,0.5,47,200.0
1835,A5,451.5,0.5,55,200.0
1836,F#4,451.5,0.5,44,200.0
1837,G5,452.0,0.5,57,200.0
1838,E4,452.0,0.5,45,200.0
1839,F#5,452.5,0.5,53,200.0
1840,D4,452.5,0.5,42,200.0
1841,A4,453.0,3.0,52,200.0
1842,C#5,453.0,3.0,52,200.0
1843,E5,453.0,3.0,52,200.0
1844,A3,453.0,3.0,43,200.0
1845,E4,453.0,3.0,43,200.0
1846,D4,456.0,0.5,59,200.0
1847,D2,456.0,3.0,55,200.0
1848,F#3,456.5,2.5,46,200.0
1849,F#4,456.875,0.125,49,200.0
1850,E4,457.0,0.5,55,200.0
1851,A2,457.0,2.0,55,200.0
1852,D4,457.5,0.5,53,200.0
1853,C#4,458.0,0.5,56,200.0
1854,D4,458.5,0.5,51,200.0
1855,E4,459.0,0.25,58,200.0
1856,C#2,459.0,0.25,55,200.0
1857,C#3,459.5,0.25,55,200.0
1858,G3,460.0,0.25,50,200.0
1859,B3,460.0,0.25,50,200.0
1860,E4,460.0,0.25,50,200.0
1861,G4,460.0,0.25,50,200.0
1862,F#3,461.0,0.25,44,200.0
1863,C#4,461.0,0.25,44,200.0
1864,E4,461.0,0.25,44,200.0
1865,F#4,461.0,0.25,44,200.0
1866,B-2,461.0,1.0,50,200.0
1867,B-1,461.0,1.0,50,200.0
1868,D4,462.0,0.25,58,200.0
1869,B1,462.0,0.25,55,200.0
1870,B2,462.5,0.25,55,200.0
1871,F#3,463.0,0.25,48,200.0
1872,B3,463.0,0.25,48,200.0
1873,D4,463.0,0.25,48,200.0
1874,F#4,463.0,0.25,48,200.0
1875,E3,464.0,0.25,42,200.0
1876,B3,464.0,0.25,45,200.0
1877,D4,464.0,0.25,45,200.0
1878,E4,464.0,0.25,45,200.0
1879,G#1,464.0,1.0,50,200.0
1880,G#2,464.0,1.0,50,200.0
1881,C#4,465.0,0.5,59,200.0
1882,A1,465.0,1.0,55,200.0
1883,A2,465.0,1.0,55,200.0
1884,E3,465.5,2.5,55,200.0
1885,D4,465.875,0.125,49,200.0
1886,C#4,466.0,0.5,55,200.0
1887,B3,466.5,0.5,53,200.0
1888,C#4,467.0,0.5,56,200.0
1889,A3,467.0,0.5,56,200.0
1890,A2,467.0,1.0,55,200.0
1891,G3,467.5,0.5,51,200.0
1892,D4,468.0,0.5,59,200.0
1893,D2,468.0,3.0,55,200.0
1894,F#3,468.467,2.5,46,200.0
1895,F#4,468.842,0.125,49,200.0
1896,E4,469.0,0.5,55,200.0
1897,A2,469.0,2.0,55,200.0
1898,D4,469.5,0.5,53,200.0
1899,C#4,470.0,0.5,56,200.0
1900,D4,470.583,417/1000,51,200.0
1901,E4,471.0,0.25,58,200.0
1902,D4,471.0,83/1000,51,200.0
1903,C#2,471.0,0.25,55,200.0
1904,C#3,471.5,0.25,48,200.0
1905,G3,472.0,0.25,50,200.0
1906,B3,472.0,0.25,50,200.0
1907,E4,472.0,0.25,50,200.0
1908,G4,472.0,0.25,50,200.0
1909,F#3,473.0,0.25,44,200.0
1910,C#4,473.0,0.25,44,200.0
1911,E4,473.0,0.25,44,200.0
1912,F#4,473.0,0.25,44,200.0
1913,B-1,473.0,1.0,50,200.0
1914,B-2,473.0,1.0,50,200.0
1915,D4,474.0,0.25,58,200.0
1916,B3,474.0,0.25,58,200.0
1917,B2,474.0,1.0,50,200.0
1918,B1,474.0,1.0,50,200.0
1919,F#3,474.5,0.25,47,200.0
1920,D4,475.0,0.25,50,200.0
1921,B3,475.0,0.25,50,200.0
1922,G2,475.0,0.5,50,200.0
1923,G1,475.0,0.5,50,200.0
1924,E4,475.5,0.25,50,200.0
1925,C#4,476.0,1.0,59,200.0
1926,A3,476.0,0.5,59,200.0
1927,E3,476.0,0.25,51,200.0
1928,A2,476.0,1.0,51,200.0
1929,A1,476.0,0.5,42,200.0
1930,G3,476.5,0.5,52,200.0
1931,D4,477.0,0.5,64,200.0
1932,A2,477.0,1.0,51,200.0
1933,D2,477.0,0.5,54,200.0
1934,F#3,477.0,0.5,54,200.0
1935,D5,478.0,0.5,70,200.0
1936,F#4,478.0,0.5,70,200.0
1937,A3,478.0,0.5,65,200.0
1938,D3,478.0,0.5,65,200.0
1939,F#5,480.0,1.0,59,200.0
1940,B2,480.0,3.0,38,200.0
1941,D4,480.0,1.0,47,200.0
1942,B4,480.5,1.0,39,200.0
1943,G5,481.0,0.5,52,200.0
1944,E4,481.0,0.5,41,200.0
1945,B4,481.5,1.0,35,200.0
1946,F#5,481.5,0.5,47,200.0
1947,D4,481.5,0.5,39,200.0
1948,E5,482.0,0.5,50,200.0
1949,C#4,482.0,0.5,39,200.0
1950,D4,482.5,0.5,38,200.0
1951,B4,482.5,0.5,42,200.0
1952,F#5,482.5,0.5,42,200.0
1953,G5,483.0,1.0,53,200.0
1954,E4,483.0,1.0,42,200.0
1955,B2,483.0,3.0,38,200.0
1956,B4,483.5,1.0,37,200.0
1957,B5,484.0,1.0,52,200.0
1958,C#4,484.0,1.0,41,200.0
1959,B4,484.5,1.0,36,200.0
1960,E5,485.0,1.0,51,200.0
1961,E4,485.0,1.0,40,200.0
1962,B4,485.5,0.5,28,200.0
1963,F#5,486.0,1.0,59,200.0
1964,B2,486.0,3.0,38,200.0
1965,D4,486.0,1.0,47,200.0
1966,B4,486.5,0.5,39,200.0
1967,G5,487.0,0.5,52,200.0
1968,E4,487.0,0.5,41,200.0
1969,D4,487.5,0.5,39,200.0
1970,B4,487.5,0.5,41,200.0
1971,F#5,487.5,0.5,41,200.0
1972,E5,488.0,0.5,50,200.0
1973,C#4,488.0,0.5,39,200.0
1974,D4,488.5,0.5,38,200.0
1975,B4,488.5,0.5,42,200.0
1976,F#5,488.5,0.5,42,200.0
1977,G5,489.0,1.0,53,200.0
1978,E3,489.0,2.0,38,200.0
1979,E4,489.0,1.0,42,200.0
1980,G4,489.5,0.5,37,200.0
1981,E5,490.0,1.0,52,200.0
1982,C#4,490.0,1.0,41,200.0
1983,G4,490.5,0.5,36,200.0
1984,C#5,491.0,1.0,51,200.0
1985,F#3,491.0,1.0,40,200.0
1986,B-3,491.0,1.0,40,200.0
1987,E4,491.5,0.5,28,200.0
1988,D4,492.0,3.0,44,200.0
1989,B4,492.0,3.0,44,200.0
1990,B2,492.0,0.5,34,200.0
1991,B3,492.0,0.5,34,200.0
1992,F#3,492.5,1.0,38,200.0
1993,F#3,493.5,1.0,33,200.0
1994,F#3,494.5,0.5,33,200.0
1995,D5,495.0,0.25,52,200.0
1996,G4,495.0,3.0,52,200.0
1997,A2,495.0,3.0,38,200.0
1998,E3,495.0,1.0,38,200.0
1999,C#5,495.25,0.25,48,200.0
2000,D5,495.5,0.25,53,200.0
2001,C#5,495.75,0.25,49,200.0
2002,D5,496.0,0.25,56,200.0
2003,E3,496.0,1.0,39,200.0
2004,C#5,496.25,0.25,50,200.0
2005,D5,496.5,0.25,57,200.0
2006,C#5,496.75,0.25,51,200.0
2007,D5,497.0,0.25,57,200.0
2008,E3,497.0,1.0,41,200.0
2009,C#5,497.25,0.25,52,200.0
2010,B4,497.5,0.25,58,200.0
2011,C#5,497.75,0.25,51,200.0
2012,F#4,498.0,1.0,57,200.0
2013,D5,498.0,1.0,57,200.0
2014,F#3,498.0,1.0,42,200.0
2015,D3,498.0,1.0,42,200.0
2016,D5,499.0,0.5,55,200.0
2017,F#3,499.0,1.0,38,200.0
2018,E5,499.5,0.5,49,200.0
2019,E4,500.0,1.0,52,200.0
2020,C#5,500.0,1.0,52,200.0
2021,F#3,500.0,1.0,31,200.0
2022,B-3,500.0,1.0,31,200.0
2023,D4,501.0,3.0,46,200.0
2024,B4,501.0,3.0,46,200.0
2025,B2,501.0,1.0,38,200.0
2026,G3,501.0,1.0,38,200.0
2027,B3,501.0,1.0,38,200.0
2028,B2,502.0,0.5,48,200.0
2029,B-2,502.5,0.5,41,200.0
2030,B2,503.0,1.0,38,200.0
2031,D5,504.0,0.25,52,200.0
2032,G4,504.0,3.0,52,200.0
2033,A2,504.0,3.0,38,200.0
2034,E3,504.0,0.5,38,200.0
2035,C#5,504.25,0.25,48,200.0
2036,D5,504.5,0.25,53,200.0
2037,E3,504.5,1.0,45,200.0
2038,C#5,504.75,0.25,49,200.0
2039,D5,505.0,0.25,56,200.0
2040,C#5,505.25,0.25,50,200.0
2041,D5,505.5,0.25,57,200.0
2042,E3,505.5,1.0,38,200.0
2043,C#5,505.75,0.25,51,200.0
2044,D5,506.0,0.25,57,200.0
2045,C#5,506.25,0.25,52,200.0
2046,B4,506.5,0.25,58,200.0
2047,E3,506.5,0.5,38,200.0
2048,C#5,506.75,0.25,51,200.0
2049,D5,507.0,1.0,57,200.0
2050,F#3,507.0,1.0,42,200.0
2051,D3,507.0,1.0,42,200.0
2052,F#4,507.5,0.5,57,200.0
2053,D5,508.0,0.5,55,200.0
2054,F#3,508.0,1.0,38,200.0
2055,F#4,508.5,1.0,57,200.0
2056,E5,508.5,0.5,49,200.0
2057,C#5,509.0,1.0,52,200.0
2058,F#3,509.0,1.0,31,200.0
2059,B-3,509.0,1.0,31,200.0
2060,E4,509.5,0.5,45,200.0
2061,B4,510.0,3.0,46,200.0
2062,B2,510.0,0.5,38,200.0
2063,F#3,510.5,1.0,28,200.0
2064,D4,511.0,1.0,29,200.0
2065,F#4,511.0,1.0,29,200.0
2066,F#3,511.5,1.0,26,200.0
2067,D4,512.0,1.0,27,200.0
2068,F#4,512.0,1.0,27,200.0
2069,F#3,512.5,0.5,25,200.0
2070,B2,513.0,3.0,23,200.0
2071,D4,513.0,1.0,26,200.0
2072,F#4,513.0,1.0,26,200.0
2073,F#3,513.5,1.0,23,200.0
2074,D4,514.0,1.0,25,200.0
2075,F#4,514.0,1.0,25,200.0
2076,F#3,514.5,1.0,20,200.0
2077,D4,515.0,1.0,23,200.0
2078,F#4,515.0,1.0,23,200.0
2079,F#3,515.5,0.5,19,200.0
2080,F#5,516.0,1.0,59,200.0
2081,B2,516.0,3.0,38,200.0
2082,D4,516.0,1.0,47,200.0
2083,B4,516.5,1.0,39,200.0
2084,G5,517.0,0.5,52,200.0
2085,E4,517.0,0.5,41,200.0
2086,B4,517.5,1.0,35,200.0
2087,F#5,517.5,0.5,47,200.0
2088,D4,517.5,0.5,39,200.0
2089,E5,518.0,0.5,50,200.0
2090,C#4,518.0,0.5,39,200.0
2091,D4,518.5,0.5,38,200.0
2092,B4,518.5,0.5,42,200.0
2093,F#5,518.5,0.5,42,200.0
2094,G5,519.0,1.0,53,200.0
2095,E4,519.0,1.0,42,200.0
2096,B2,519.0,3.0,38,200.0
2097,B4,519.5,1.0,37,200.0
2098,B5,520.0,1.0,52,200.0
2099,C#4,520.0,1.0,41,200.0
2100,B4,520.5,1.0,36,200.0
2101,E5,521.0,1.0,51,200.0
2102,E4,521.0,1.0,40,200.0
2103,B4,521.5,0.5,28,200.0
2104,F#5,522.0,1.0,59,200.0
2105,B2,522.0,3.0,38,200.0
2106,D4,522.0,1.0,47,200.0
2107,B4,522.5,0.5,39,200.0
2108,G5,523.0,0.5,52,200.0
2109,E4,523.0,0.5,41,200.0
2110,D4,523.5,0.5,39,200.0
2111,B4,523.5,0.5,41,200.0
2112,F#5,523.5,0.5,41,200.0
2113,E5,524.0,0.5,50,200.0
2114,C#4,524.0,0.5,39,200.0
2115,D4,524.5,0.5,38,200.0
2116,B4,524.5,0.5,42,200.0
2117,F#5,524.5,0.5,42,200.0
2118,G5,525.0,1.0,53,200.0
2119,E3,525.0,2.0,38,200.0
2120,E4,525.0,1.0,42,200.0
2121,G4,525.5,0.5,37,200.0
2122,E5,526.0,1.0,52,200.0
2123,C#4,526.0,1.0,41,200.0
2124,G4,526.5,0.5,36,200.0
2125,C#5,527.0,1.0,51,200.0
2126,F#3,527.0,1.0,40,200.0
2127,B-3,527.0,1.0,40,200.0
2128,E4,527.5,0.5,28,200.0
2129,D4,528.0,3.0,44,200.0
2130,B4,528.0,3.0,44,200.0
2131,B2,528.0,0.5,34,200.0
2132,B3,528.0,0.5,34,200.0
2133,F#3,528.5,1.0,38,200.0
2134,F#3,529.5,1.0,33,200.0
2135,F#3,530.5,0.5,33,200.0
2136,D5,531.0,0.25,52,200.0
2137,G4,531.0,3.0,52,200.0
2138,A2,531.0,3.0,38,200.0
2139,E3,531.0,1.0,38,200.0
2140,C#5,531.25,0.25,48,200.0
2141,D5,531.5,0.25,53,200.0
2142,C#5,531.75,0.25,49,200.0
2143,D5,532.0,0.25,56,200.0
2144,E3,532.0,1.0,39,200.0
2145,C#5,532.25,0.25,50,200.0
2146,D5,532.5,0.25,57,200.0
2147,C#5,532.75,0.25,51,200.0
2148,D5,533.0,0.25,57,200.0
2149,E3,533.0,1.0,41,200.0
2150,C#5,533.25,0.25,52,200.0
2151,B4,533.5,0.25,58,200.0
2152,C#5,533.75,0.25,51,200.0
2153,F#4,534.0,1.0,57,200.0
2154,D5,534.0,1.0,57,200.0
2155,F#3,534.0,1.0,42,200.0
2156,D3,534.0,1.0,42,200.0
2157,D5,535.0,0.5,55,200.0
2158,F#3,535.0,1.0,38,200.0
2159,E5,535.5,0.5,49,200.0
2160,E4,536.0,1.0,52,200.0
2161,C#5,536.0,1.0,52,200.0
2162,F#3,536.0,1.0,31,200.0
2163,B-3,536.0,1.0,31,200.0
2164,D4,537.0,3.0,46,200.0
2165,B4,537.0,3.0,46,200.0
2166,B2,537.0,1.0,38,200.0
2167,G3,537.0,1.0,38,200.0
2168,B3,537.0,1.0,38,200.0
2169,B2,538.0,0.5,47,200.0
2170,B-2,538.5,0.5,41,200.0
2171,B2,539.0,1.0,38,200.0
2172,D5,540.0,0.25,52,200.0
2173,G4,540.0,3.0,52,200.0
2174,A2,540.0,3.0,38,200.0
2175,E3,540.0,0.5,38,200.0
2176,C#5,540.25,0.25,48,200.0
2177,D5,540.5,0.25,53,200.0
2178,E3,540.5,1.0,47,200.0
2179,C#5,540.75,0.25,49,200.0
2180,D5,541.0,0.25,56,200.0
2181,C#5,541.25,0.25,50,200.0
2182,D5,541.5,0.25,57,200.0
2183,E3,541.5,1.0,38,200.0
2184,C#5,541.75,0.25,51,200.0
2185,D5,542.0,0.25,57,200.0
2186,C#5,542.25,0.25,52,200.0
2187,B4,542.5,0.25,58,200.0
2188,E3,542.5,0.5,38,200.0
2189,C#5,542.75,0.25,51,200.0
2190,D5,543.0,1.0,57,200.0
2191,F#3,543.0,1.0,42,200.0
2192,D3,543.0,1.0,42,200.0
2193,F#4,543.5,0.5,57,200.0
2194,D5,544.0,0.5,55,200.0
2195,F#3,544.0,1.0,38,200.0
2196,F#4,544.5,1.0,57,200.0
2197,E5,544.5,0.5,49,200.0
2198,C#5,545.0,1.0,52,200.0
2199,F#3,545.0,1.0,31,200.0
2200,B-3,545.0,1.0,31,200.0
2201,E4,545.5,0.5,45,200.0
2202,B4,546.0,3.0,46,200.0
2203,B2,546.0,0.5,38,200.0
2204,F#3,546.5,1.0,28,200.0
2205,D4,547.0,1.0,29,200.0
2206,F#4,547.0,1.0,29,200.0
2207,F#3,547.5,1.0,26,200.0
2208,D4,548.0,1.0,27,200.0
2209,F#4,548.0,1.0,27,200.0
2210,F#3,548.5,0.5,25,200.0
2211,B2,549.0,3.0,23,200.0
2212,D4,549.0,1.0,26,200.0
2213,F#4,549.0,1.0,26,200.0
2214,F#3,549.5,1.0,23,200.0
2215,D4,550.0,1.0,25,200.0
2216,F#4,550.0,1.0,25,200.0
2217,F#3,550.5,1.0,20,200.0
2218,D4,551.0,1.0,23,200.0
2219,F#4,551.0,1.0,23,200.0
2220,F#3,551.5,0.5,19,200.0
2221,D6,552.0,1.0,90,200.0
2222,D5,552.0,1.0,90,200.0
2223,D2,552.0,3.0,67,200.0
2224,A2,552.0,3.0,67,200.0
2225,E6,553.0,0.5,86,200.0
2226,E5,553.0,0.5,86,200.0
2227,D3,553.0,2.0,73,200.0
2228,F#3,553.0,2.0,73,200.0
2229,A3,553.0,2.0,73,200.0
2230,D6,553.5,0.5,82,200.0
2231,D5,553.5,0.5,82,200.0
2232,C#6,554.0,0.5,81,200.0
2233,C#5,554.0,0.5,81,200.0
2234,D6,554.5,0.5,80,200.0
2235,D5,554.5,0.5,80,200.0
2236,E6,555.0,1.0,89,200.0
2237,E5,555.0,1.0,89,200.0
2238,D2,555.0,3.0,67,200.0
2239,A2,555.0,3.0,67,200.0
2240,G6,556.0,1.0,82,200.0
2241,G5,556.0,1.0,82,200.0
2242,C#3,556.0,2.0,71,200.0
2243,A3,556.0,2.0,71,200.0
2244,G3,556.0,2.0,71,200.0
2245,F#6,557.0,1.0,80,200.0
2246,F#5,557.0,1.0,80,200.0
2247,D6,558.0,1.0,90,200.0
2248,D5,558.0,1.0,90,200.0
2249,D2,558.0,3.0,67,200.0
2250,A2,558.0,3.0,67,200.0
2251,E6,559.0,0.5,82,200.0
2252,E5,559.0,0.5,82,200.0
2253,D3,559.0,2.0,70,200.0
2254,F#3,559.0,2.0,70,200.0
2255,A3,559.0,2.0,70,200.0
2256,D6,559.5,0.5,80,200.0
2257,D5,559.5,0.5,80,200.0
2258,C#6,560.0,0.5,79,200.0
2259,C#5,560.0,0.5,79,200.0
2260,D6,560.5,0.5,78,200.0
2261,D5,560.5,0.5,78,200.0
2262,E6,561.0,1.0,88,200.0
2263,E5,561.0,1.0,88,200.0
2264,D2,561.0,3.0,67,200.0
2265,A2,561.0,3.0,67,200.0
2266,G6,562.0,1.0,81,200.0
2267,G5,562.0,1.0,81,200.0
2268,C#3,562.0,2.0,69,200.0
2269,G3,562.0,2.0,69,200.0
2270,A3,562.0,2.0,69,200.0
2271,F#6,563.0,1.0,80,200.0
2272,F#5,563.0,1.0,80,200.0
2273,D6,564.0,1.0,88,200.0
2274,D5,564.0,1.0,88,200.0
2275,D2,564.0,3.0,67,200.0
2276,A2,564.0,3.0,67,200.0
2277,E5,565.0,0.5,80,200.0
2278,E6,565.0,0.5,80,200.0
2279,D3,565.0,2.0,77,200.0
2280,F#3,565.0,2.0,77,200.0
2281,A3,565.0,2.0,77,200.0
2282,F#5,565.5,0.5,81,200.0
2283,F#6,565.5,0.5,81,200.0
2284,A5,566.0,0.5,84,200.0
2285,A6,566.0,0.5,84,200.0
2286,C6,566.5,0.5,86,200.0
2287,C7,566.5,0.5,86,200.0
2288,E6,567.0,1.0,87,200.0
2289,E7,567.0,1.0,87,200.0
2290,D2,567.0,3.0,67,200.0
2291,A2,567.0,3.0,67,200.0
2292,G6,568.0,1.0,86,200.0
2293,G7,568.0,1.0,86,200.0
2294,E4,568.0,1.0,73,200.0
2295,C4,568.0,1.0,73,200.0
2296,G3,568.0,1.0,73,200.0
2297,F#6,569.0,1.0,86,200.0
2298,F#7,569.0,1.0,86,200.0
2299,D4,569.0,1.0,65,200.0
2300,C4,569.0,1.0,65,200.0
2301,F#3,569.0,1.0,65,200.0
2302,F#6,570.0,1.0,77,200.0
2303,F#7,570.0,1.0,77,200.0
2304,D2,570.0,3.0,67,200.0
2305,A2,570.0,3.0,67,200.0
2306,G6,571.0,0.5,72,200.0
2307,G7,571.0,0.5,72,200.0
2308,D4,571.0,2.0,71,200.0
2309,B3,571.0,2.0,71,200.0
2310,G3,571.0,2.0,71,200.0
2311,F#6,571.5,0.5,72,200.0
2312,F#7,571.5,0.5,72,200.0
2313,E6,572.0,0.5,70,200.0
2314,E7,572.0,0.5,70,200.0
2315,D6,572.5,0.5,70,200.0
2316,D7,572.5,0.5,70,200.0
2317,C#6,573.0,0.875,84,200.0
2318,C#7,573.0,0.875,84,200.0
2319,D2,573.0,3.0,67,200.0
2320,A2,573.0,3.0,67,200.0
2321,D7,573.875,0.125,76,200.0
2322,C#6,574.0,0.5,80,200.0
2323,C#7,574.0,0.5,80,200.0
2324,E4,574.0,2.0,74,200.0
2325,A3,574.0,2.0,74,200.0
2326,G3,574.0,2.0,74,200.0
2327,A5,574.5,0.5,73,200.0
2328,A6,574.5,0.5,73,200.0
2329,B5,575.0,0.5,80,200.0
2330,B6,575.0,0.5,80,200.0
2331,C#6,575.5,0.5,76,200.0
2332,C#7,575.5,0.5,76,200.0
2333,D6,576.0,0.875,81,200.0
2334,D7,576.0,0.875,81,200.0
2335,D2,576.0,0.875,65,200.0
2336,A2,576.0,0.875,65,200.0
2337,F#3,576.0,0.875,65,200.0
2338,E4,576.875,0.125,64,200.0
2339,D4,577.0,0.25,69,200.0
2340,D2,577.0,0.25,46,200.0
2341,D3,577.0,0.25,46,200.0
2342,C#4,577.5,0.25,66,200.0
2343,C#2,577.5,0.25,44,200.0
2344,C#3,577.5,0.25,44,200.0
2345,D4,578.0,0.25,70,200.0
2346,D2,578.0,0.25,46,200.0
2347,D3,578.0,0.25,46,200.0
2348,D4,579.0,0.25,65,200.0
2349,D2,579.0,0.25,48,200.0
2350,D3,579.0,0.25,48,200.0
2351,A4,580.0,0.25,69,200.0
2352,A3,580.0,0.25,46,200.0
2353,A2,580.0,0.25,46,200.0
2354,F#4,580.5,0.25,66,200.0
2355,F#2,580.5,0.25,44,200.0
2356,F#3,580.5,0.25,44,200.0
2357,D4,581.0,0.25,70,200.0
2358,D2,581.0,0.25,46,200.0
2359,D3,581.0,0.25,46,200.0
2360,D4,582.0,0.25,69,200.0
2361,D2,582.0,0.25,46,200.0
2362,D3,582.0,0.25,46,200.0
2363,C#4,582.5,0.25,66,200.0
2364,C#2,582.5,0.25,44,200.0
2365,C#3,582.5,0.25,44,200.0
2366,D4,583.0,0.25,70,200.0
2367,D2,583.0,0.25,46,200.0
2368,D3,583.0,0.25,46,200.0
2369,D4,584.0,0.25,69,200.0
2370,D2,584.0,0.25,46,200.0
2371,D3,584.0,0.25,46,200.0
2372,C#4,584.5,0.25,66,200.0
2373,C#2,584.5,0.25,44,200.0
2374,C#3,584.5,0.25,44,200.0
2375,D4,585.0,0.25,70,200.0
2376,D2,585.0,0.25,46,200.0
2377,D3,585.0,0.25,46,200.0
2378,A4,586.0,0.25,72,200.0
2379,A3,586.0,0.25,47,200.0
2380,A2,586.0,0.25,47,200.0
2381,F#4,586.5,0.25,69,200.0
2382,F#2,586.5,0.25,45,200.0
2383,F#3,586.5,0.25,45,200.0
2384,D4,587.0,0.25,73,200.0
2385,D2,587.0,0.25,48,200.0
2386,D3,587.0,0.25,48,200.0
2387,A4,588.0,0.25,75,200.0
2388,A3,588.0,0.25,50,200.0
2389,A2,588.0,0.25,50,200.0
2390,F#4,588.5,0.25,72,200.0
2391,F#2,588.5,0.25,47,200.0
2392,F#3,588.5,0.25,47,200.0
2393,D4,589.0,0.25,76,200.0
2394,D2,589.0,0.25,50,200.0
2395,D3,589.0,0.25,50,200.0
2396,A4,590.0,0.25,78,200.0
2397,A3,590.0,0.25,52,200.0
2398,A2,590.0,0.25,52,200.0
2399,F#4,590.5,0.25,75,200.0
2400,F#2,590.5,0.25,49,200.0
2401,F#3,590.5,0.25,49,200.0
2402,D4,591.0,0.25,71,200.0
2403,D3,591.0,0.25,65,200.0
2404,A4,591.5,0.25,66,200.0
2405,A3,591.5,0.25,63,200.0
2406,F#4,592.0,0.25,72,200.0
2407,F#3,592.0,0.25,67,200.0
2408,D4,592.5,0.25,69,200.0
2409,D3,592.5,0.25,61,200.0
2410,A4,593.0,0.25,72,200.0
2411,A3,593.0,0.25,65,200.0
2412,F#4,593.5,0.25,70,200.0
2413,F#3,593.5,0.25,61,200.0
2414,D4,594.0,0.25,78,200.0
2415,D5,594.0,0.25,78,200.0
2416,D3,594.0,0.25,60,200.0
2417,D2,594.0,0.25,60,200.0
2418,A4,594.5,0.25,70,200.0
2419,A5,594.5,0.25,70,200.0
2420,A3,594.5,0.25,55,200.0
2421,A2,594.5,0.25,55,200.0
2422,F#5,595.0,0.25,80,200.0
2423,F#4,595.0,0.25,80,200.0
2424,F#2,595.0,0.25,64,200.0
2425,F#3,595.0,0.25,64,200.0
2426,D4,595.5,0.25,78,200.0
2427,D5,595.5,0.25,78,200.0
2428,D2,595.5,0.25,58,200.0
2429,D3,595.5,0.25,58,200.0
2430,A5,596.0,0.25,80,200.0
2431,A4,596.0,0.25,80,200.0
2432,A2,596.0,0.25,60,200.0
2433,A3,596.0,0.25,60,200.0
2434,F#5,596.5,0.25,81,200.0
2435,F#4,596.5,0.25,81,200.0
2436,F#3,596.5,0.25,60,200.0
2437,F#2,596.5,0.25,60,200.0
2438,D4,597.0,1.0,86,200.0
2439,D5,597.0,1.0,86,200.0
2440,F#4,597.0,1.0,86,200.0
2441,D3,597.0,1.0,66,200.0
2442,D2,597.0,1.0,66,200.0
2443,F#4,598.0,1.0,86,200.0
2444,D5,598.0,1.0,86,200.0
2445,D4,598.0,1.0,86,200.0
2446,D3,598.0,1.0,66,200.0
2447,D2,598.0,1.0,66,200.0
2448,D5,600.0,1.0,99,200.0
2449,D6,600.0,1.0,99,200.0
2450,F#5,600.0,1.0,99,200.0
2451,A3,600.0,1.0,74,200.0
2452,D4,600.0,1.0,74,200.0
2453,D3,600.0,1.0,74,200.0
2454,F#5,601.0,1.0,99,200.0
2455,D6,601.0,1.0,99,200.0
2456,D5,601.0,1.0,99,200.0
2457,A3,601.0,1.0,74,200.0
2458,D4,601.0,1.0,74,200.0
2459,D3,601.0,1.0,74,200.0
2460,D6,603.0,1.0,107,200.0
2461,D7,603.0,1.0,107,200.0
2462,F#6,603.0,1.0,107,200.0
2463,A3,603.0,1.0,74,200.0
2464,D4,603.0,1.0,74,200.0
2465,D3,603.0,1.0,74,200.0
