,note_name,start_time,duration,velocity,tempo
0,C4,0.0,0.5,37,121.0
1,D4,0.5,0.5,30,121.0
2,E-4,1.0,0.5,37,121.0
3,G4,1.5,0.5,29,121.0
4,E-4,2.0,0.5,33,121.0
5,D4,2.5,0.5,30,121.0
6,C4,3.0,0.5,37,121.0
7,D4,3.5,0.5,31,121.0
8,E-4,4.0,0.5,37,121.0
9,G4,4.5,0.5,31,121.0
10,E-4,5.0,0.5,35,121.0
11,D4,5.5,0.5,30,121.0
12,C4,6.0,0.5,35,121.0
13,G6,6.0,1.0,54,121.0
14,E-6,6.0,1.0,54,121.0
15,D4,6.5,0.5,31,121.0
16,E-4,7.0,0.5,35,121.0
17,E-6,7.0,1.0,51,121.0
18,C6,7.0,1.0,51,121.0
19,G4,7.5,0.5,30,121.0
20,E-4,8.0,0.5,33,121.0
21,E-6,8.0,1.0,54,121.0
22,G6,8.0,1.0,54,121.0
23,D4,8.5,0.5,29,121.0
24,C4,9.0,0.5,35,121.0
25,D4,9.5,0.5,29,121.0
26,C4,10.0,0.5,31,121.0
27,E-6,10.0,1.0,54,121.0
28,G6,10.0,1.0,54,121.0
29,D4,10.5,0.5,27,121.0
30,E-4,11.0,0.5,31,121.0
31,D6,11.0,1.0,54,121.0
32,F6,11.0,1.0,54,121.0
33,G4,11.5,0.5,27,121.0
34,C4,12.0,0.5,35,121.0
35,C6,12.0,1.0,52,121.0
36,E-6,12.0,1.0,52,121.0
37,D4,12.5,0.5,31,121.0
38,F4,13.0,0.5,34,121.0
39,D6,13.0,1.0,56,121.0
40,F6,13.0,1.0,56,121.0
41,B-4,13.5,0.5,29,121.0
42,F4,14.0,0.5,31,121.0
43,D6,14.0,0.5,52,121.0
44,F6,14.0,0.5,52,121.0
45,D4,14.5,0.5,29,121.0
46,C6,14.5,0.5,48,121.0
47,E-6,14.5,0.5,48,121.0
48,C4,15.0,0.5,33,121.0
49,D6,15.0,1.0,54,121.0
50,B-5,15.0,1.0,54,121.0
51,D4,15.5,0.5,28,121.0
52,F4,16.0,0.5,35,121.0
53,B-4,16.5,0.5,30,121.0
54,F4,17.0,0.5,34,121.0
55,D6,17.0,1.0,54,121.0
56,B-5,17.0,1.0,54,121.0
57,B-3,17.5,0.5,29,121.0
58,C6,18.0,167/1000,51,121.0
59,D5,18.0,2.0,45,121.0
60,G#3,18.0,0.5,39,121.0
61,B-5,18.167,167/1000,47,121.0
62,C6,18.333,167/1000,51,121.0
63,B-5,18.5,167/1000,47,121.0
64,B-3,18.5,0.5,33,121.0
65,C6,18.667,167/1000,50,121.0
66,B-5,18.833,167/1000,46,121.0
67,C6,19.0,167/1000,50,121.0
68,C4,19.0,0.5,36,121.0
69,B-5,19.167,167/1000,45,121.0
70,C6,19.333,167/1000,48,121.0
71,B-5,19.5,167/1000,46,121.0
72,E-4,19.5,0.5,32,121.0
73,G#5,19.667,167/1000,49,121.0
74,B-5,19.833,167/1000,50,121.0
75,F4,20.0,0.5,35,121.0
76,G#5,20.0,1.0,58,121.0
77,C6,20.0,1.0,58,121.0
78,G4,20.5,0.5,29,121.0
79,G#4,21.0,0.5,34,121.0
80,E-6,21.0,1.0,52,121.0
81,C6,21.0,1.0,52,121.0
82,B-4,21.5,0.5,31,121.0
83,G#4,22.0,0.5,34,121.0
84,B-5,22.0,1.0,51,121.0
85,D6,22.0,1.0,51,121.0
86,B-4,22.5,0.5,31,121.0
87,G#3,23.0,0.5,32,121.0
88,G#5,23.0,1.0,54,121.0
89,C6,23.0,1.0,54,121.0
90,B-3,23.5,0.5,31,121.0
91,C4,24.0,0.5,37,121.0
92,B-5,24.0,1.0,51,121.0
93,D6,24.0,1.0,51,121.0
94,D4,24.5,0.5,31,121.0
95,E-4,25.0,0.5,37,121.0
96,D5,25.0,1.0,48,121.0
97,B-5,25.0,1.0,48,121.0
98,G4,25.5,0.5,29,121.0
99,E-4,26.0,0.5,35,121.0
100,E-5,26.0,3.0,49,121.0
101,G5,26.0,3.0,49,121.0
102,D4,26.5,0.5,30,121.0
103,C4,27.0,0.5,37,121.0
104,D4,27.5,0.5,30,121.0
105,E-4,28.0,0.5,35,121.0
106,G4,28.5,0.5,29,121.0
107,E-4,29.0,0.5,35,121.0
108,D4,29.5,0.5,31,121.0
109,C4,30.0,0.5,32,121.0
110,D4,30.5,0.5,29,121.0
111,E-4,31.0,0.5,32,121.0
112,G4,31.5,0.5,28,121.0
113,E-4,32.0,0.5,30,121.0
114,E-5,32.0,3.0,49,121.0
115,G5,32.0,3.0,49,121.0
116,D4,32.5,0.5,27,121.0
117,C4,33.0,0.5,32,121.0
118,D4,33.5,0.5,27,121.0
119,C4,34.0,0.5,29,121.0
120,D4,34.5,0.5,25,121.0
121,E-4,35.0,0.5,28,121.0
122,E-6,35.0,1.0,50,121.0
123,G6,35.0,1.0,50,121.0
124,G4,35.5,0.5,25,121.0
125,C4,36.0,0.5,32,121.0
126,E-6,36.0,1.0,47,121.0
127,C6,36.0,1.0,47,121.0
128,D4,36.5,0.5,29,121.0
129,F4,37.0,0.5,31,121.0
130,E-6,37.0,1.0,50,121.0
131,G6,37.0,1.0,50,121.0
132,B-4,37.5,0.5,27,121.0
133,F4,38.0,0.5,29,121.0
134,D4,38.5,0.5,27,121.0
135,C4,39.0,0.5,30,121.0
136,E-6,39.0,1.0,50,121.0
137,G6,39.0,1.0,50,121.0
138,D4,39.5,0.5,26,121.0
139,F4,40.0,0.5,32,121.0
140,F6,40.0,1.0,52,121.0
141,D6,40.0,1.0,52,121.0
142,B-4,40.5,0.5,28,121.0
143,F4,41.0,0.5,31,121.0
144,C6,41.0,1.0,49,121.0
145,E-6,41.0,1.0,49,121.0
146,B-3,41.5,0.5,27,121.0
147,G#3,42.0,0.5,36,121.0
148,D6,42.0,1.0,51,121.0
149,F6,42.0,1.0,51,121.0
150,B-3,42.5,0.5,30,121.0
151,C4,43.0,0.5,33,121.0
152,D6,43.0,0.5,48,121.0
153,F6,43.0,0.5,48,121.0
154,E-4,43.5,0.5,32,121.0
155,C6,43.5,0.5,44,121.0
156,E-6,43.5,0.5,44,121.0
157,F4,44.0,0.5,32,121.0
158,B-5,44.0,1.0,49,121.0
159,D6,44.0,1.0,49,121.0
160,G4,44.5,0.5,27,121.0
161,G#4,45.0,0.5,33,121.0
162,B-4,45.5,0.5,30,121.0
163,G#4,46.0,0.5,33,121.0
164,B-5,46.0,1.0,49,121.0
165,D6,46.0,1.0,49,121.0
166,B-4,46.5,0.5,29,121.0
167,C6,47.0,167/1000,47,121.0
168,D5,47.0,2.0,41,121.0
169,G#3,47.0,0.5,31,121.0
170,B-5,47.167,167/1000,43,121.0
171,C6,47.333,167/1000,47,121.0
172,B-5,47.5,167/1000,42,121.0
173,B-3,47.5,0.5,29,121.0
174,C6,47.667,167/1000,46,121.0
175,B-5,47.833,167/1000,41,121.0
176,C6,48.0,167/1000,46,121.0
177,C4,48.0,0.5,34,121.0
178,B-5,48.167,167/1000,41,121.0
179,C6,48.333,167/1000,44,121.0
180,B-5,48.5,167/1000,42,121.0
181,D4,48.5,0.5,29,121.0
182,G#5,48.667,167/1000,45,121.0
183,B-5,48.833,167/1000,46,121.0
184,E-4,49.0,0.5,33,121.0
185,G#5,49.0,1.0,52,121.0
186,C6,49.0,1.0,52,121.0
187,G4,49.5,0.5,27,121.0
188,E-4,50.0,0.5,32,121.0
189,C6,50.0,1.0,50,121.0
190,E-6,50.0,1.0,50,121.0
191,D4,50.5,0.5,28,121.0
192,C4,51.0,0.5,34,121.0
193,B-5,51.0,1.0,49,121.0
194,D6,51.0,1.0,49,121.0
195,D4,51.5,0.5,28,121.0
196,E-4,52.0,0.5,32,121.0
197,G#5,52.0,1.0,51,121.0
198,C6,52.0,1.0,51,121.0
199,G4,52.5,0.5,27,121.0
200,E-4,53.0,0.5,32,121.0
201,D6,53.0,1.0,50,121.0
202,B-5,53.0,1.0,50,121.0
203,D4,53.5,0.5,29,121.0
204,B-3,54.0,0.5,47,121.0
205,D5,54.0,1.0,46,121.0
206,B-5,54.0,1.0,46,121.0
207,G#3,54.5,0.5,41,121.0
208,B-3,55.0,0.5,47,121.0
209,E-5,55.0,3.0,45,121.0
210,G5,55.0,3.0,45,121.0
211,G#3,55.5,0.5,39,121.0
212,F3,56.0,0.5,44,121.0
213,E-3,56.5,0.5,39,121.0
214,D3,57.0,0.5,48,121.0
215,C3,57.5,0.5,44,121.0
216,B2,58.0,0.5,47,121.0
217,G#2,58.5,0.5,49,121.0
218,F2,59.0,0.5,50,121.0
219,E-2,59.5,0.5,49,121.0
220,D2,60.0,0.5,57,121.0
221,C2,60.5,0.5,52,121.0
222,D2,61.0,0.5,52,121.0
223,E-5,61.0,3.0,45,121.0
224,G5,61.0,3.0,45,121.0
225,E-2,61.5,0.5,48,121.0
226,G2,62.0,0.5,52,121.0
227,C3,62.5,0.5,47,121.0
228,D3,63.0,0.5,52,121.0
229,E-3,63.5,0.5,46,121.0
230,F3,64.0,0.5,47,121.0
231,D4,64.0,0.5,44,121.0
232,F4,64.0,0.5,44,121.0
233,E-3,64.5,0.5,47,121.0
234,E-4,64.5,0.5,44,121.0
235,G4,64.5,0.5,44,121.0
236,D3,65.0,0.5,45,121.0
237,D4,65.0,0.5,45,121.0
238,F4,65.0,0.5,45,121.0
239,E-3,65.5,0.5,44,121.0
240,E-4,65.5,0.5,46,121.0
241,G4,65.5,0.5,46,121.0
242,B-3,66.0,0.5,39,121.0
243,F4,66.0,1.0,50,121.0
244,G#4,66.0,1.0,50,121.0
245,G#3,66.5,0.5,34,121.0
246,B-3,67.0,0.5,39,121.0
247,G4,67.0,1.0,51,121.0
248,B4,67.0,1.0,51,121.0
249,G#3,67.5,0.5,33,121.0
250,F3,68.0,0.5,37,121.0
251,D5,68.0,2.0,58,121.0
252,F4,68.0,2.0,58,121.0
253,E-3,68.5,0.5,33,121.0
254,D3,69.0,0.5,43,121.0
255,C3,69.5,0.5,39,121.0
256,B2,70.0,0.5,42,121.0
257,E-4,70.0,3.0,55,121.0
258,G4,70.0,3.0,55,121.0
259,G#2,70.5,0.5,44,121.0
260,F2,71.0,0.5,45,121.0
261,E-2,71.5,0.5,44,121.0
262,D2,72.0,0.5,51,121.0
263,C2,72.5,0.5,46,121.0
264,D2,73.0,0.5,46,121.0
265,E-2,73.5,0.5,43,121.0
266,G2,74.0,0.5,46,121.0
267,C3,74.5,0.5,42,121.0
268,D3,75.0,0.5,46,121.0
269,E-3,75.5,0.5,41,121.0
270,F3,76.0,0.5,42,121.0
271,E-4,76.0,3.0,55,121.0
272,G4,76.0,3.0,55,121.0
273,E-3,76.5,0.5,42,121.0
274,D3,77.0,0.5,40,121.0
275,E-3,77.5,0.5,39,121.0
276,C4,78.0,0.5,32,121.0
277,D4,78.5,0.5,29,121.0
278,E-4,79.0,0.5,30,121.0
279,D4,79.0,0.5,37,121.0
280,F4,79.0,0.5,37,121.0
281,G4,79.5,0.5,28,121.0
282,E-4,79.5,0.5,38,121.0
283,G4,79.5,0.5,38,121.0
284,E-4,80.0,0.5,29,121.0
285,D4,80.0,0.5,38,121.0
286,F4,80.0,0.5,38,121.0
287,D4,80.5,0.5,27,121.0
288,E-4,80.5,0.5,38,121.0
289,G4,80.5,0.5,38,121.0
290,C4,81.0,0.5,32,121.0
291,F4,81.0,1.0,42,121.0
292,G#4,81.0,1.0,42,121.0
293,D4,81.5,0.5,27,121.0
294,C4,82.0,0.5,29,121.0
295,G4,82.0,1.0,46,121.0
296,B4,82.0,1.0,46,121.0
297,D4,82.5,0.5,25,121.0
298,E-4,83.0,0.5,30,121.0
299,D5,83.0,2.0,48,121.0
300,F4,83.0,2.0,48,121.0
301,G4,83.5,0.5,25,121.0
302,C4,84.0,0.5,32,121.0
303,D4,84.5,0.5,29,121.0
304,F4,85.0,0.5,31,121.0
305,E-4,85.0,3.0,46,121.0
306,G4,85.0,3.0,46,121.0
307,B-4,85.5,0.5,27,121.0
308,F4,86.0,0.5,29,121.0
309,D4,86.5,0.5,27,121.0
310,C4,87.0,0.5,30,121.0
311,D4,87.5,0.5,26,121.0
312,F4,88.0,0.5,32,121.0
313,B-4,88.5,0.5,28,121.0
314,F4,89.0,0.5,31,121.0
315,B-3,89.5,0.5,27,121.0
316,G#3,90.0,0.5,36,121.0
317,B-3,90.5,0.5,30,121.0
318,C4,91.0,0.5,33,121.0
319,E-4,91.0,3.0,46,121.0
320,G4,91.0,3.0,46,121.0
321,E-4,91.5,0.5,32,121.0
322,F4,92.0,0.5,32,121.0
323,G4,92.5,0.5,27,121.0
324,G#4,93.0,0.5,33,121.0
325,B-4,93.5,0.5,30,121.0
326,G#4,94.0,0.5,33,121.0
327,E-6,94.0,1.0,50,121.0
328,G6,94.0,1.0,50,121.0
329,B-4,94.5,0.5,29,121.0
330,G#3,95.0,0.5,32,121.0
331,E-6,95.0,1.0,47,121.0
332,C6,95.0,1.0,47,121.0
333,B-3,95.5,0.5,31,121.0
334,C4,96.0,0.5,34,121.0
335,E-6,96.0,1.0,50,121.0
336,G6,96.0,1.0,50,121.0
337,D4,96.5,0.5,29,121.0
338,E-4,97.0,0.5,32,121.0
339,G4,97.5,0.5,27,121.0
340,E-4,98.0,0.5,32,121.0
341,E-6,98.0,1.0,50,121.0
342,G6,98.0,1.0,50,121.0
343,D4,98.5,0.5,28,121.0
344,C4,99.0,0.5,34,121.0
345,D6,99.0,1.0,52,121.0
346,F6,99.0,1.0,52,121.0
347,D4,99.5,0.5,28,121.0
348,E-4,100.0,0.5,32,121.0
349,C6,100.0,1.0,49,121.0
350,E-6,100.0,1.0,49,121.0
351,G4,100.5,0.5,27,121.0
352,E-4,101.0,0.5,32,121.0
353,D6,101.0,1.0,51,121.0
354,F6,101.0,1.0,51,121.0
355,G3,101.5,0.5,29,121.0
356,D6,102.0,0.5,48,121.0
357,F6,102.0,0.5,48,121.0
358,B3,102.0,3.0,36,121.0
359,G2,102.0,3.0,36,121.0
360,E-6,102.5,0.5,44,121.0
361,C6,102.5,0.5,44,121.0
362,B-5,103.0,1.0,49,121.0
363,D6,103.0,1.0,49,121.0
364,B-5,105.0,1.0,49,121.0
365,D6,105.0,1.0,49,121.0
366,C3,105.0,3.0,32,121.0
367,G3,105.0,3.0,32,121.0
368,C6,106.0,167/1000,47,121.0
369,D5,106.0,2.0,41,121.0
370,B-5,106.167,167/1000,45,121.0
371,C6,106.333,167/1000,47,121.0
372,B-5,106.5,167/1000,43,121.0
373,C6,106.667,167/1000,46,121.0
374,B-5,106.833,167/1000,43,121.0
375,C6,107.0,167/1000,46,121.0
376,B-5,107.167,167/1000,41,121.0
377,C6,107.333,167/1000,44,121.0
378,B-5,107.5,167/1000,42,121.0
379,G#5,107.667,167/1000,45,121.0
380,B-5,107.833,167/1000,46,121.0
381,C6,108.0,1.0,52,121.0
382,G#5,108.0,1.0,52,121.0
383,B3,108.0,3.0,36,121.0
384,G2,108.0,3.0,36,121.0
385,C6,109.0,1.0,50,121.0
386,E-6,109.0,1.0,50,121.0
387,B-5,110.0,1.0,49,121.0
388,D6,110.0,1.0,49,121.0
389,G#5,111.0,1.0,51,121.0
390,C6,111.0,1.0,51,121.0
391,G3,111.0,3.0,32,121.0
392,C3,111.0,3.0,32,121.0
393,B-5,112.0,1.0,50,121.0
394,D6,112.0,1.0,50,121.0
395,D5,113.0,1.0,46,121.0
396,B-5,113.0,1.0,46,121.0
397,B-2,114.0,3.0,45,121.0
398,E-5,114.0,3.0,45,121.0
399,G5,114.0,3.0,45,121.0
400,F2,117.0,3.0,49,121.0
401,G2,120.0,3.0,38,121.0
402,E-5,120.0,3.0,45,121.0
403,G5,120.0,3.0,45,121.0
404,F4,123.0,3.0,45,121.0
405,D5,123.0,1.0,56,121.0
406,B3,123.0,3.0,32,121.0
407,G2,123.0,3.0,32,121.0
408,D5,124.0,0.5,56,121.0
409,E-5,124.5,0.5,51,121.0
410,D5,125.0,0.5,56,121.0
411,E-5,125.5,0.5,51,121.0
412,E-4,126.0,3.0,45,121.0
413,C5,126.0,1.0,56,121.0
414,C3,126.0,3.0,26,121.0
415,G3,126.0,3.0,26,121.0
416,C4,126.0,3.0,26,121.0
417,C5,127.0,0.5,49,121.0
418,G#4,127.5,0.5,47,121.0
419,G4,128.0,1.0,47,121.0
420,F4,129.0,3.0,45,121.0
421,D5,129.0,1.0,51,121.0
422,C3,129.0,0.5,32,121.0
423,D3,129.5,0.5,29,121.0
424,D5,130.0,0.5,51,121.0
425,E-3,130.0,0.5,32,121.0
426,E-5,130.5,0.5,46,121.0
427,G3,130.5,0.5,28,121.0
428,D5,131.0,0.5,51,121.0
429,E-3,131.0,0.5,30,121.0
430,E-5,131.5,0.5,44,121.0
431,D3,131.5,0.5,27,121.0
432,C3,132.0,0.5,32,121.0
433,E-4,132.0,3.0,48,121.0
434,C5,132.0,3.0,48,121.0
435,D3,132.5,0.5,27,121.0
436,C3,133.0,0.5,29,121.0
437,D3,133.5,0.5,25,121.0
438,E-3,134.0,0.5,28,121.0
439,G3,134.5,0.5,25,121.0
440,D5,135.0,1.0,61,121.0
441,F4,135.0,3.0,49,121.0
442,C3,135.0,0.5,32,121.0
443,D3,135.5,0.5,29,121.0
444,D5,136.0,0.5,61,121.0
445,F3,136.0,0.5,31,121.0
446,E-5,136.5,0.5,56,121.0
447,B-3,136.5,0.5,27,121.0
448,D5,137.0,0.5,61,121.0
449,F3,137.0,0.5,29,121.0
450,E-5,137.5,0.5,56,121.0
451,D3,137.5,0.5,27,121.0
452,C5,138.0,1.0,61,121.0
453,C3,138.0,0.5,30,121.0
454,G#4,138.0,3.0,49,121.0
455,E-4,138.0,3.0,49,121.0
456,D3,138.5,0.5,26,121.0
457,F3,139.0,0.5,32,121.0
458,C5,139.029,0.5,61,121.0
459,D5,139.5,0.5,56,121.0
460,B-3,139.5,0.5,28,121.0
461,C5,140.0,0.5,61,121.0
462,F3,140.0,0.5,31,121.0
463,D5,140.5,0.5,56,121.0
464,B-2,140.5,0.5,27,121.0
465,D4,141.0,3.0,55,121.0
466,B4,141.0,0.875,60,121.0
467,G#2,141.0,0.5,36,121.0
468,B-2,141.5,0.5,30,121.0
469,C5,141.875,0.125,49,121.0
470,B4,142.0,0.5,56,121.0
471,C3,142.0,0.5,33,121.0
472,A4,142.5,0.5,48,121.0
473,E-3,142.5,0.5,32,121.0
474,G4,143.0,1.0,53,121.0
475,F3,143.0,0.5,32,121.0
476,G3,143.5,0.5,27,121.0
477,F4,144.0,3.0,40,121.0
478,D5,144.0,1.0,45,121.0
479,G#3,144.0,0.5,33,121.0
480,B-3,144.5,0.5,30,121.0
481,D5,145.0,0.5,45,121.0
482,G#3,145.0,0.5,33,121.0
483,E-5,145.5,0.5,42,121.0
484,B-3,145.5,0.5,29,121.0
485,D5,146.0,0.5,45,121.0
486,G#2,146.0,0.5,31,121.0
487,E-5,146.5,0.5,42,121.0
488,B-2,146.5,0.5,29,121.0
489,C3,147.0,0.5,37,121.0
490,E-4,147.0,3.0,40,121.0
491,C5,147.0,3.0,40,121.0
492,D3,147.5,0.5,32,121.0
493,C3,148.0,0.5,36,121.0
494,D3,148.5,0.5,31,121.0
495,C3,149.0,0.5,39,121.0
496,B-2,149.5,0.5,34,121.0
497,G#2,150.0,0.5,44,121.0
498,E-5,150.0,1.0,50,121.0
499,G5,150.0,1.0,50,121.0
500,B-2,150.5,0.5,37,121.0
501,G#2,151.0,0.5,42,121.0
502,E-5,151.0,1.0,47,121.0
503,C5,151.0,1.0,47,121.0
504,B-2,151.5,0.5,37,121.0
505,G#2,152.0,0.5,45,121.0
506,E-5,152.0,1.0,50,121.0
507,G5,152.0,1.0,50,121.0
508,G2,152.5,0.5,42,121.0
509,F2,153.0,3.0,50,121.0
510,E-5,154.0,1.0,50,121.0
511,G5,154.0,1.0,50,121.0
512,D5,155.0,1.0,52,121.0
513,F5,155.0,1.0,52,121.0
514,F2,156.0,3.0,50,121.0
515,E-5,156.0,1.0,49,121.0
516,C5,156.0,1.0,49,121.0
517,D5,157.0,1.0,51,121.0
518,F5,157.0,1.0,51,121.0
519,D3,158.0,1.0,33,121.0
520,D5,158.0,0.5,48,121.0
521,F5,158.0,0.5,48,121.0
522,C5,158.5,0.5,44,121.0
523,E-5,158.5,0.5,44,121.0
524,B-4,159.0,1.0,49,121.0
525,D5,159.0,1.0,49,121.0
526,C2,159.0,3.0,33,121.0
527,E-3,159.0,3.0,33,121.0
528,G3,159.0,3.0,33,121.0
529,B-4,161.0,1.0,49,121.0
530,D5,161.0,1.0,49,121.0
531,C6,162.0,167/1000,47,121.0
532,D5,162.0,2.0,41,121.0
533,G4,162.0,3.0,27,121.0
534,C4,162.0,3.0,27,121.0
535,B-5,162.167,167/1000,44,121.0
536,C6,162.333,167/1000,47,121.0
537,B-5,162.5,167/1000,44,121.0
538,C6,162.667,167/1000,46,121.0
539,B-5,162.833,167/1000,46,121.0
540,C6,163.0,167/1000,46,121.0
541,B-5,163.167,167/1000,42,121.0
542,C6,163.333,167/1000,44,121.0
543,B-5,163.5,167/1000,42,121.0
544,G#5,163.667,167/1000,45,121.0
545,B-5,163.833,167/1000,46,121.0
546,G#4,164.0,1.0,52,121.0
547,C5,164.0,1.0,52,121.0
548,C2,165.0,3.0,33,121.0
549,C5,165.0,1.0,52,121.0
550,E-5,165.0,1.0,52,121.0
551,G3,165.25,0.25,29,121.0
552,E-4,165.5,0.25,26,121.0
553,C4,165.5,0.25,26,121.0
554,G3,165.75,0.25,25,121.0
555,B-4,166.0,1.0,49,121.0
556,D5,166.0,1.0,49,121.0
557,C4,166.0,0.25,26,121.0
558,E-4,166.0,0.25,26,121.0
559,G3,166.25,0.25,25,121.0
560,C4,166.5,0.25,26,121.0
561,E-4,166.5,0.25,26,121.0
562,G3,166.75,0.25,25,121.0
563,G#4,167.0,1.0,51,121.0
564,C5,167.0,1.0,51,121.0
565,C4,167.0,0.25,26,121.0
566,E-4,167.0,0.25,26,121.0
567,G3,167.25,0.25,24,121.0
568,C4,167.5,0.25,26,121.0
569,E-4,167.5,0.25,26,121.0
570,G3,167.75,0.25,25,121.0
571,C2,168.0,0.25,33,121.0
572,B-4,168.0,1.0,50,121.0
573,D5,168.0,1.0,50,121.0
574,G3,168.25,0.25,29,121.0
575,C4,168.5,0.25,26,121.0
576,E-4,168.5,0.25,26,121.0
577,G3,168.75,0.25,25,121.0
578,B-4,169.0,1.0,44,121.0
579,D4,169.0,1.0,44,121.0
580,C4,169.0,0.25,26,121.0
581,E-4,169.0,0.25,26,121.0
582,G3,169.25,0.25,25,121.0
583,C4,169.5,0.25,26,121.0
584,E-4,169.5,0.25,26,121.0
585,G3,169.75,0.5,35,121.0
586,E-4,170.0,0.25,29,121.0
587,E-4,170.0,3.0,45,121.0
588,G4,170.0,3.0,45,121.0
589,G#3,170.25,0.5,35,121.0
590,F4,170.5,0.25,29,121.0
591,F3,170.75,0.25,29,121.0
592,C2,171.0,0.25,33,121.0
593,G3,171.25,0.25,27,121.0
594,B-3,171.5,0.25,26,121.0
595,D4,171.5,0.25,26,121.0
596,G3,171.75,0.25,26,121.0
597,D4,172.0,0.25,26,121.0
598,B-3,172.0,0.25,26,121.0
599,G3,172.25,0.25,25,121.0
600,D4,172.5,0.25,26,121.0
601,B-3,172.5,0.25,26,121.0
602,F3,172.75,0.5,34,121.0
603,B-3,173.0,0.25,26,121.0
604,D4,173.0,0.25,26,121.0
605,G3,173.25,0.5,35,121.0
606,D4,173.5,0.25,26,121.0
607,B-3,173.5,0.25,26,121.0
608,E-3,173.75,0.25,31,121.0
609,C2,174.0,0.25,33,121.0
610,F3,174.25,0.25,29,121.0
611,G#3,174.5,0.25,26,121.0
612,C4,174.5,0.25,26,121.0
613,F3,174.75,0.25,25,121.0
614,G#3,175.0,0.25,26,121.0
615,C4,175.0,0.25,26,121.0
616,F3,175.25,0.25,25,121.0
617,G#3,175.5,0.25,26,121.0
618,C4,175.5,0.25,26,121.0
619,E-3,175.75,0.5,32,121.0
620,E-4,176.0,3.0,45,121.0
621,G4,176.0,3.0,45,121.0
622,G#3,176.0,0.25,26,121.0
623,C4,176.0,0.25,26,121.0
624,F3,176.25,0.5,30,121.0
625,G#3,176.5,0.25,22,121.0
626,C4,176.5,0.25,22,121.0
627,D3,176.75,0.25,28,121.0
628,C2,177.0,0.25,33,121.0
629,E-3,177.25,0.25,30,121.0
630,G3,177.5,0.25,26,121.0
631,C4,177.5,0.25,26,121.0
632,E-3,177.75,0.25,26,121.0
633,C4,178.0,0.25,26,121.0
634,G3,178.0,0.25,26,121.0
635,E-3,178.25,0.25,25,121.0
636,C4,178.5,0.25,30,121.0
637,G3,178.5,0.25,30,121.0
638,D3,178.75,0.5,41,121.0
639,G#3,179.0,1.0,54,121.0
640,C4,179.0,1.0,54,121.0
641,G3,179.0,0.25,40,121.0
642,C4,179.0,0.25,40,121.0
643,E-3,179.25,0.5,52,121.0
644,C4,179.5,0.25,48,121.0
645,G3,179.5,0.25,48,121.0
646,C3,179.75,0.25,51,121.0
647,G2,180.0,0.25,48,121.0
648,C4,180.0,1.0,50,121.0
649,E-4,180.0,1.0,50,121.0
650,G3,180.25,0.25,43,121.0
651,F4,180.5,0.25,41,121.0
652,C4,180.5,0.25,41,121.0
653,G3,180.75,0.25,37,121.0
654,B-3,181.0,1.0,42,121.0
655,D4,181.0,1.0,42,121.0
656,F4,181.0,0.25,44,121.0
657,B3,181.0,0.25,44,121.0
658,G3,181.25,0.25,38,121.0
659,F4,181.5,0.25,42,121.0
660,A3,181.5,0.25,42,121.0
661,G3,181.75,0.25,35,121.0
662,G#3,182.0,1.0,45,121.0
663,C4,182.0,1.0,45,121.0
664,F4,182.0,0.25,36,121.0
665,B3,182.0,0.25,36,121.0
666,G3,182.25,0.25,30,121.0
667,F4,182.5,0.25,36,121.0
668,G3,182.75,0.25,33,121.0
669,C2,183.0,3.0,33,121.0
670,B-3,183.0,1.0,38,121.0
671,D4,183.0,1.0,38,121.0
672,G3,183.25,0.25,29,121.0
673,E-4,183.5,0.25,26,121.0
674,C4,183.5,0.25,26,121.0
675,G3,183.75,0.25,25,121.0
676,B-3,184.0,1.0,39,121.0
677,C4,184.0,0.25,26,121.0
678,E-4,184.0,0.25,26,121.0
679,G3,184.25,0.25,25,121.0
680,C4,184.5,0.25,28,121.0
681,E-4,184.5,0.25,28,121.0
682,G3,184.75,0.25,28,121.0
683,C4,185.0,0.25,32,121.0
684,E-4,185.0,0.25,32,121.0
685,G3,185.25,0.25,31,121.0
686,C4,185.5,0.25,37,121.0
687,E-4,185.5,0.25,37,121.0
688,G3,185.75,0.25,37,121.0
689,C2,186.0,0.25,53,121.0
690,G3,186.25,0.25,41,121.0
691,C4,186.5,0.25,38,121.0
692,E-4,186.5,0.25,38,121.0
693,G3,186.75,0.25,36,121.0
694,C4,187.0,0.25,38,121.0
695,E-4,187.0,0.25,38,121.0
696,G3,187.25,0.25,36,121.0
697,C4,187.5,0.25,38,121.0
698,E-4,187.5,0.25,38,121.0
699,G3,187.75,0.5,52,121.0
700,E-5,188.0,3.0,42,121.0
701,G5,188.0,3.0,42,121.0
702,C4,188.0,0.25,39,121.0
703,E-4,188.0,0.25,39,121.0
704,B-3,188.25,0.5,52,121.0
705,C4,188.5,0.25,39,121.0
706,E-4,188.5,0.25,39,121.0
707,A3,188.75,0.25,41,121.0
708,C2,189.0,0.25,49,121.0
709,F#3,189.25,0.25,38,121.0
710,A3,189.5,0.25,38,121.0
711,D4,189.5,0.25,38,121.0
712,F#3,189.75,0.25,37,121.0
713,D4,190.0,0.25,38,121.0
714,A3,190.0,0.25,38,121.0
715,F#3,190.25,0.25,36,121.0
716,D4,190.5,0.25,38,121.0
717,A3,190.5,0.25,38,121.0
718,F#3,190.75,0.5,50,121.0
719,A3,191.0,0.25,38,121.0
720,D4,191.0,0.25,38,121.0
721,E3,191.25,0.5,52,121.0
722,D4,191.5,0.25,38,121.0
723,A3,191.5,0.25,38,121.0
724,F#3,191.75,0.25,46,121.0
725,C2,192.0,0.25,51,121.0
726,G3,192.25,0.25,40,121.0
727,C4,192.5,0.25,36,121.0
728,E-4,192.5,0.25,36,121.0
729,G3,192.75,0.25,35,121.0
730,C4,193.0,0.25,36,121.0
731,E-4,193.0,0.25,36,121.0
732,G3,193.25,0.25,35,121.0
733,C4,193.5,0.25,36,121.0
734,E-4,193.5,0.25,36,121.0
735,B-3,193.75,0.5,47,121.0
736,E-5,194.0,1.0,51,121.0
737,C4,194.0,0.25,38,121.0
738,E-4,194.0,0.25,38,121.0
739,A3,194.25,0.5,42,121.0
740,C4,194.5,0.25,38,121.0
741,F#4,194.5,0.25,38,121.0
742,F#3,194.75,0.25,39,121.0
743,E-5,195.0,0.625,51,121.0
744,C2,195.0,0.25,42,121.0
745,G#3,195.25,0.25,37,121.0
746,C4,195.5,0.25,36,121.0
747,F4,195.5,0.25,36,121.0
748,D5,195.625,0.125,46,121.0
749,E-5,195.75,0.125,46,121.0
750,G#3,195.75,0.25,35,121.0
751,F5,195.875,0.125,46,121.0
752,E-5,196.0,0.5,51,121.0
753,C4,196.0,0.25,36,121.0
754,G4,196.0,0.25,36,121.0
755,G3,196.25,0.25,35,121.0
756,D5,196.5,0.5,48,121.0
757,C4,196.5,0.25,28,121.0
758,G4,196.5,0.25,28,121.0
759,G3,196.75,0.5,35,121.0
760,B-4,197.0,0.875,48,121.0
761,A3,197.0,0.25,28,121.0
762,F#4,197.0,0.25,28,121.0
763,G3,197.25,0.5,28,121.0
764,C4,197.5,0.25,27,121.0
765,F#4,197.5,0.25,27,121.0
766,G3,197.75,0.25,25,121.0
767,G#4,197.875,0.125,31,121.0
768,B-4,198.0,2.0,49,121.0
769,G2,198.0,0.25,34,121.0
770,G3,198.25,0.25,28,121.0
771,F4,198.5,0.25,28,121.0
772,D4,198.5,0.25,28,121.0
773,G3,198.75,0.25,25,121.0
774,F4,199.0,0.25,28,121.0
775,C4,199.0,0.25,28,121.0
776,G3,199.25,0.25,27,121.0
777,F4,199.5,0.25,23,121.0
778,B3,199.5,0.25,23,121.0
779,G3,199.75,0.25,24,121.0
780,G#4,200.0,0.5,51,121.0
781,F4,200.0,0.25,24,121.0
782,B3,200.0,0.25,24,121.0
783,G3,200.25,0.25,25,121.0
784,C5,200.5,0.375,51,121.0
785,F4,200.5,0.25,27,121.0
786,G3,200.75,0.25,25,121.0
787,B-4,200.875,0.125,32,121.0
788,C5,201.0,0.625,52,121.0
789,C2,201.0,3.0,29,121.0
790,G3,201.25,0.25,26,121.0
791,E-4,201.5,0.25,24,121.0
792,C4,201.5,0.25,24,121.0
793,B4,201.625,0.125,46,121.0
794,C5,201.75,0.125,46,121.0
795,G3,201.75,0.25,22,121.0
796,D5,201.875,0.125,46,121.0
797,C5,202.0,0.5,51,121.0
798,C4,202.0,0.25,24,121.0
799,E-4,202.0,0.25,24,121.0
800,G3,202.25,0.25,22,121.0
801,B4,202.5,0.5,49,121.0
802,C4,202.5,0.25,24,121.0
803,E-4,202.5,0.25,24,121.0
804,G3,202.75,0.25,23,121.0
805,G4,203.0,1.0,51,121.0
806,C4,203.0,0.25,25,121.0
807,E-4,203.0,0.25,25,121.0
808,G3,203.25,0.25,23,121.0
809,C4,203.5,0.25,26,121.0
810,E-4,203.5,0.25,26,121.0
811,G3,203.75,0.25,24,121.0
812,G4,204.0,2.0,49,121.0
813,C2,204.0,0.25,29,121.0
814,G3,204.25,0.25,26,121.0
815,C4,204.5,0.25,24,121.0
816,E-4,204.5,0.25,24,121.0
817,G3,204.75,0.25,22,121.0
818,C4,205.0,0.25,24,121.0
819,E-4,205.0,0.25,24,121.0
820,G3,205.25,0.25,22,121.0
821,C4,205.5,0.25,24,121.0
822,E-4,205.5,0.25,24,121.0
823,G3,205.75,0.5,31,121.0
824,E-4,206.0,0.25,26,121.0
825,G4,206.0,2.5,66,121.0
826,G5,206.0,2.5,66,121.0
827,G#3,206.25,0.5,34,121.0
828,F4,206.5,0.25,26,121.0
829,F3,206.75,0.25,24,121.0
830,C2,207.0,0.25,29,121.0
831,G3,207.25,0.25,24,121.0
832,B-3,207.5,0.25,24,121.0
833,D4,207.5,0.25,24,121.0
834,G3,207.75,0.25,23,121.0
835,D4,208.0,0.25,24,121.0
836,B-3,208.0,0.25,24,121.0
837,G3,208.25,0.25,22,121.0
838,A4,208.5,0.125,45,121.0
839,D4,208.5,0.25,24,121.0
840,B-3,208.5,0.25,24,121.0
841,B4,208.625,0.125,45,121.0
842,C5,208.75,0.125,45,121.0
843,F3,208.75,0.5,30,121.0
844,D5,208.875,0.125,45,121.0
845,C5,209.0,3.0,48,121.0
846,B-3,209.0,0.25,24,121.0
847,D4,209.0,0.25,24,121.0
848,G3,209.25,0.5,31,121.0
849,D4,209.5,0.25,24,121.0
850,B-3,209.5,0.25,24,121.0
851,E-3,209.75,0.25,28,121.0
852,C2,210.0,0.25,29,121.0
853,F3,210.25,0.25,26,121.0
854,G#3,210.5,0.25,24,121.0
855,C4,210.5,0.25,24,121.0
856,F3,210.75,0.25,22,121.0
857,G#3,211.0,0.25,24,121.0
858,C4,211.0,0.25,24,121.0
859,F3,211.25,0.25,22,121.0
860,G#3,211.5,0.25,24,121.0
861,C4,211.5,0.25,24,121.0
862,E-3,211.75,0.5,28,121.0
863,G5,212.0,1.0,78,121.0
864,G#3,212.0,0.25,24,121.0
865,C4,212.0,0.25,24,121.0
866,F3,212.25,0.5,28,121.0
867,G#3,212.5,0.25,24,121.0
868,C4,212.5,0.25,24,121.0
869,D3,212.75,0.25,25,121.0
870,G5,213.0,0.625,79,121.0
871,C2,213.0,0.25,29,121.0
872,E-3,213.25,0.25,27,121.0
873,G3,213.5,0.25,24,121.0
874,C4,213.5,0.25,24,121.0
875,F#5,213.625,0.125,67,121.0
876,G5,213.75,0.125,67,121.0
877,E-3,213.75,0.25,23,121.0
878,A5,213.875,0.125,62,121.0
879,G5,214.0,0.5,75,121.0
880,C4,214.0,0.25,24,121.0
881,G3,214.0,0.25,24,121.0
882,E-3,214.25,0.25,22,121.0
883,F#5,214.5,0.5,70,121.0
884,C4,214.5,0.25,26,121.0
885,G3,214.5,0.25,26,121.0
886,D3,214.75,0.5,31,121.0
887,D5,215.0,0.875,70,121.0
888,G3,215.0,0.25,32,121.0
889,C4,215.0,0.25,32,121.0
890,E-3,215.25,0.5,39,121.0
891,C4,215.5,0.25,35,121.0
892,G3,215.5,0.25,35,121.0
893,C3,215.75,0.25,36,121.0
894,C5,215.875,0.125,46,121.0
895,D5,216.0,2.0,64,121.0
896,G2,216.0,0.25,47,121.0
897,G3,216.25,0.25,37,121.0
898,F4,216.5,0.25,39,121.0
899,C4,216.5,0.25,39,121.0
900,G3,216.75,0.25,36,121.0
901,F4,217.0,0.25,43,121.0
902,B3,217.0,0.25,43,121.0
903,G3,217.25,0.25,37,121.0
904,F4,217.5,0.25,40,121.0
905,A3,217.5,0.25,40,121.0
906,G3,217.75,0.25,33,121.0
907,E-5,218.0,1.0,72,121.0
908,F4,218.0,0.25,33,121.0
909,B3,218.0,0.25,33,121.0
910,G3,218.25,0.25,27,121.0
911,F4,218.5,0.25,32,121.0
912,G3,218.75,0.25,29,121.0
913,E-5,219.0,0.625,70,121.0
914,C2,219.0,3.0,29,121.0
915,G3,219.25,0.25,26,121.0
916,E-4,219.5,0.25,24,121.0
917,C4,219.5,0.25,24,121.0
918,E-5,219.625,0.125,60,121.0
919,F#5,219.75,0.125,60,121.0
920,G3,219.75,0.25,22,121.0
921,E-5,219.875,0.125,56,121.0
922,F#5,220.0,0.5,64,121.0
923,C4,220.0,0.25,24,121.0
924,E-4,220.0,0.25,24,121.0
925,G3,220.25,0.25,22,121.0
926,D5,220.5,0.5,58,121.0
927,C4,220.5,0.25,24,121.0
928,E-4,220.5,0.25,24,121.0
929,G3,220.75,0.25,23,121.0
930,F5,221.0,1.0,61,121.0
931,C4,221.0,0.25,25,121.0
932,E-4,221.0,0.25,25,121.0
933,G3,221.25,0.25,23,121.0
934,C4,221.5,0.25,26,121.0
935,E-4,221.5,0.25,26,121.0
936,G3,221.75,0.25,25,121.0
937,E5,222.0,0.5,58,121.0
938,C4,222.0,0.5,37,121.0
939,C5,222.5,13/125,42,121.0
940,D4,222.5,0.5,30,121.0
941,C5,222.625,0.125,46,121.0
942,E-5,222.75,0.125,46,121.0
943,D5,222.875,0.125,42,121.0
944,E-5,223.0,0.5,48,121.0
945,E-4,223.0,0.5,37,121.0
946,D5,223.5,0.5,43,121.0
947,G4,223.5,0.5,29,121.0
948,B4,224.0,1.0,48,121.0
949,E-4,224.0,0.5,33,121.0
950,D4,224.5,0.5,30,121.0
951,G4,225.0,1.5,45,121.0
952,C4,225.0,0.5,37,121.0
953,D4,225.5,0.5,31,121.0
954,E-4,226.0,0.5,37,121.0
955,A4,226.5,0.125,37,121.0
956,G4,226.5,0.5,31,121.0
957,B4,226.625,0.125,36,121.0
958,C5,226.75,0.125,36,121.0
959,D5,226.875,0.125,37,121.0
960,C5,227.0,3.0,44,121.0
961,E-4,227.0,0.5,35,121.0
962,D4,227.5,0.5,30,121.0
963,C4,228.0,0.5,35,121.0
964,D4,228.5,0.5,31,121.0
965,E-4,229.0,0.5,35,121.0
966,G4,229.5,0.5,30,121.0
967,E-5,230.0,1.0,46,121.0
968,E-4,230.0,0.5,33,121.0
969,D4,230.5,0.5,29,121.0
970,E-5,231.0,0.625,46,121.0
971,C4,231.0,0.5,35,121.0
972,D4,231.5,0.5,29,121.0
973,D5,231.625,0.125,40,121.0
974,E-5,231.75,0.125,40,121.0
975,F5,231.875,0.125,40,121.0
976,E-5,232.0,0.5,46,121.0
977,C4,232.0,0.5,31,121.0
978,D5,232.5,0.5,43,121.0
979,D4,232.5,0.5,27,121.0
980,B-4,233.0,0.875,43,121.0
981,E-4,233.0,0.5,31,121.0
982,G4,233.5,0.5,27,121.0
983,G#4,233.875,0.125,28,121.0
984,B-4,234.0,2.0,44,121.0
985,C4,234.0,0.5,35,121.0
986,D4,234.5,0.5,29,121.0
987,F4,235.0,0.5,34,121.0
988,B-4,235.5,0.5,29,121.0
989,G#4,236.0,0.5,46,121.0
990,F4,236.0,0.5,31,121.0
991,C5,236.5,0.375,46,121.0
992,D4,236.5,0.5,29,121.0
993,B-4,236.875,0.125,42,121.0
994,C5,237.0,0.625,47,121.0
995,C4,237.0,0.5,33,121.0
996,D4,237.5,0.5,28,121.0
997,B4,237.625,0.125,40,121.0
998,C5,237.75,0.125,40,121.0
999,D5,237.875,0.125,40,121.0
1000,C5,238.0,0.5,46,121.0
1001,F4,238.0,0.5,35,121.0
1002,B4,238.5,0.5,44,121.0
1003,B-4,238.5,0.5,30,121.0
1004,G4,239.0,1.0,46,121.0
1005,F4,239.0,0.5,34,121.0
1006,B-3,239.5,0.5,29,121.0
1007,G4,240.0,2.0,44,121.0
1008,G#3,240.0,0.5,39,121.0
1009,B-3,240.5,0.5,33,121.0
1010,C4,241.0,0.5,36,121.0
1011,E-4,241.5,0.5,35,121.0
1012,F4,242.0,0.5,35,121.0
1013,G4,242.0,2.5,64,121.0
1014,G5,242.0,2.5,64,121.0
1015,G4,242.5,0.5,29,121.0
1016,G#4,243.0,0.5,36,121.0
1017,B-4,243.5,0.5,33,121.0
1018,G#4,244.0,0.5,36,121.0
1019,A4,244.5,0.125,43,121.0
1020,B-4,244.5,0.5,31,121.0
1021,B4,244.625,0.125,37,121.0
1022,C5,244.75,0.125,43,121.0
1023,D5,244.875,0.125,37,121.0
1024,C5,245.0,3.0,46,121.0
1025,G#3,245.0,0.5,32,121.0
1026,B-3,245.5,0.5,29,121.0
1027,C4,246.0,0.5,37,121.0
1028,D4,246.5,0.5,31,121.0
1029,E-4,247.0,0.5,37,121.0
1030,G4,247.5,0.5,29,121.0
1031,E-4,248.0,0.5,35,121.0
1032,D4,248.5,0.5,30,121.0
1033,C4,249.0,0.5,37,121.0
1034,D4,249.5,0.5,30,121.0
1035,E-4,250.0,0.5,35,121.0
1036,G4,250.5,0.5,29,121.0
1037,E-4,251.0,0.5,35,121.0
1038,D4,251.5,0.5,31,121.0
1039,B-3,252.0,0.5,47,121.0
1040,G#3,252.5,0.5,41,121.0
1041,B-3,253.0,0.5,47,121.0
1042,G#3,253.5,0.5,39,121.0
1043,F3,254.0,0.5,44,121.0
1044,E-6,254.0,1.0,54,121.0
1045,G6,254.0,1.0,54,121.0
1046,E-3,254.5,0.5,39,121.0
1047,D3,255.0,0.5,48,121.0
1048,E-6,255.0,1.0,51,121.0
1049,C6,255.0,1.0,51,121.0
1050,C3,255.5,0.5,44,121.0
1051,B2,256.0,0.5,47,121.0
1052,E-6,256.0,1.0,54,121.0
1053,G6,256.0,1.0,54,121.0
1054,G#2,256.5,0.5,49,121.0
1055,F2,257.0,0.5,50,121.0
1056,E-2,257.5,0.5,52,121.0
1057,D2,258.0,0.5,57,121.0
1058,E-6,258.0,1.0,54,121.0
1059,G6,258.0,1.0,54,121.0
1060,C2,258.5,0.5,52,121.0
1061,D2,259.0,0.5,52,121.0
1062,D6,259.0,1.0,54,121.0
1063,F6,259.0,1.0,54,121.0
1064,E-2,259.5,0.5,48,121.0
1065,G2,260.0,0.5,52,121.0
1066,C6,260.0,1.0,52,121.0
1067,E-6,260.0,1.0,52,121.0
1068,C3,260.5,0.5,47,121.0
1069,D3,261.0,0.5,52,121.0
1070,D6,261.0,1.0,56,121.0
1071,F6,261.0,1.0,56,121.0
1072,E-3,261.5,0.5,46,121.0
1073,F3,262.0,0.5,47,121.0
1074,D6,262.0,0.5,52,121.0
1075,F6,262.0,0.5,52,121.0
1076,E-3,262.5,0.5,47,121.0
1077,C6,262.5,0.5,48,121.0
1078,E-6,262.5,0.5,48,121.0
1079,D3,263.0,0.5,45,121.0
1080,B-5,263.0,1.0,54,121.0
1081,D6,263.0,1.0,54,121.0
1082,E-3,263.5,0.5,44,121.0
1083,B-3,264.0,0.5,39,121.0
1084,G#3,264.5,0.5,34,121.0
1085,B-3,265.0,0.5,39,121.0
1086,B-5,265.0,1.0,54,121.0
1087,D6,265.0,1.0,54,121.0
1088,G#3,265.5,0.5,33,121.0
1089,C6,266.0,167/1000,51,121.0
1090,D5,266.0,2.0,45,121.0
1091,F3,266.0,0.5,37,121.0
1092,B-5,266.167,167/1000,47,121.0
1093,C6,266.333,167/1000,51,121.0
1094,B-5,266.5,167/1000,47,121.0
1095,E-3,266.5,0.5,33,121.0
1096,C6,266.667,167/1000,50,121.0
1097,B-5,266.833,167/1000,47,121.0
1098,C6,267.0,167/1000,50,121.0
1099,D3,267.0,0.5,43,121.0
1100,B-5,267.167,167/1000,47,121.0
1101,C6,267.333,167/1000,48,121.0
1102,B-5,267.5,167/1000,46,121.0
1103,C3,267.5,0.5,39,121.0
1104,G#5,267.667,167/1000,49,121.0
1105,B-5,267.833,167/1000,50,121.0
1106,B2,268.0,0.5,42,121.0
1107,G#5,268.0,1.0,58,121.0
1108,C6,268.0,1.0,58,121.0
1109,G#2,268.5,0.5,44,121.0
1110,F2,269.0,0.5,45,121.0
1111,C6,269.0,1.0,52,121.0
1112,E-6,269.0,1.0,52,121.0
1113,E-2,269.5,0.5,46,121.0
1114,D2,270.0,0.5,51,121.0
1115,B-5,270.0,1.0,51,121.0
1116,D6,270.0,1.0,51,121.0
1117,C2,270.5,0.5,46,121.0
1118,D2,271.0,0.5,46,121.0
1119,G#5,271.0,1.0,54,121.0
1120,C6,271.0,1.0,54,121.0
1121,E-2,271.5,0.5,43,121.0
1122,G2,272.0,0.5,46,121.0
1123,B-5,272.0,1.0,51,121.0
1124,D6,272.0,1.0,51,121.0
1125,C3,272.5,0.5,42,121.0
1126,D3,273.0,0.5,46,121.0
1127,D5,273.0,1.0,49,121.0
1128,B-5,273.0,1.0,49,121.0
1129,E-3,273.5,0.5,41,121.0
1130,F3,274.0,0.5,42,121.0
1131,E-5,274.0,3.0,49,121.0
1132,G5,274.0,3.0,49,121.0
1133,E-3,274.5,0.5,42,121.0
1134,D3,275.0,0.5,40,121.0
1135,E-3,275.5,0.5,39,121.0
1136,C4,276.0,0.5,32,121.0
1137,D4,276.5,0.5,29,121.0
1138,E-4,277.0,0.5,32,121.0
1139,G4,277.5,0.5,28,121.0
1140,E-4,278.0,0.5,30,121.0
1141,D4,278.5,0.5,27,121.0
1142,C4,279.0,0.5,32,121.0
1143,D4,279.5,0.5,27,121.0
1144,C4,280.0,0.5,29,121.0
1145,E-5,280.0,3.0,49,121.0
1146,G5,280.0,3.0,49,121.0
1147,D4,280.5,0.5,25,121.0
1148,E-4,281.0,0.5,30,121.0
1149,G4,281.5,0.5,25,121.0
1150,C4,282.0,0.5,32,121.0
1151,D4,282.5,0.5,29,121.0
1152,F4,283.0,0.5,31,121.0
1153,D4,283.0,0.5,44,121.0
1154,F4,283.0,0.5,44,121.0
1155,B-4,283.5,0.5,27,121.0
1156,E-4,283.5,0.5,44,121.0
1157,G4,283.5,0.5,44,121.0
1158,F4,284.0,0.5,29,121.0
1159,D4,284.0,0.5,45,121.0
1160,F4,284.0,0.5,45,121.0
1161,D4,284.5,0.5,27,121.0
1162,E-4,284.5,0.5,46,121.0
1163,G4,284.5,0.5,46,121.0
1164,C4,285.0,0.5,30,121.0
1165,F4,285.0,1.0,50,121.0
1166,G#4,285.0,1.0,50,121.0
1167,D4,285.5,0.5,26,121.0
1168,F4,286.0,0.5,32,121.0
1169,G4,286.0,1.0,51,121.0
1170,B4,286.0,1.0,51,121.0
1171,B-4,286.5,0.5,28,121.0
1172,F4,287.0,0.5,31,121.0
1173,F4,287.0,2.0,58,121.0
1174,D5,287.0,2.0,58,121.0
1175,B-3,287.5,0.5,27,121.0
1176,G#3,288.0,0.5,36,121.0
1177,B-3,288.5,0.5,30,121.0
1178,C4,289.0,0.5,33,121.0
1179,E-4,289.0,3.0,55,121.0
1180,G4,289.0,3.0,55,121.0
1181,E-4,289.5,0.5,32,121.0
1182,F4,290.0,0.5,32,121.0
1183,G4,290.5,0.5,27,121.0
1184,G#4,291.0,0.5,33,121.0
1185,B-4,291.5,0.5,30,121.0
1186,G#4,292.0,0.5,33,121.0
1187,B-4,292.5,0.5,29,121.0
1188,G#3,293.0,0.5,32,121.0
1189,B-3,293.5,0.5,29,121.0
1190,C4,294.0,0.5,34,121.0
1191,D4,294.5,0.5,29,121.0
1192,E-4,295.0,0.5,34,121.0
1193,E-4,295.0,3.0,55,121.0
1194,G4,295.0,3.0,55,121.0
1195,G4,295.5,0.5,27,121.0
1196,E-4,296.0,0.5,32,121.0
1197,D4,296.5,0.5,28,121.0
1198,C4,297.0,0.5,34,121.0
1199,D4,297.5,0.5,28,121.0
1200,E-4,298.0,0.5,32,121.0
1201,D4,298.0,0.5,37,121.0
1202,F4,298.0,0.5,37,121.0
1203,G4,298.5,0.5,27,121.0
1204,E-4,298.5,0.5,38,121.0
1205,G4,298.5,0.5,38,121.0
1206,E-4,299.0,0.5,32,121.0
1207,D4,299.0,0.5,38,121.0
1208,F4,299.0,0.5,38,121.0
1209,G3,299.5,0.5,29,121.0
1210,E-4,299.5,0.5,38,121.0
1211,G4,299.5,0.5,38,121.0
1212,F4,300.0,1.0,42,121.0
1213,G#4,300.0,1.0,42,121.0
1214,G2,300.0,3.0,36,121.0
1215,B3,300.0,3.0,36,121.0
1216,G4,301.0,1.0,46,121.0
1217,B4,301.0,1.0,46,121.0
1218,F4,302.0,2.0,48,121.0
1219,D5,302.0,2.0,48,121.0
1220,C3,303.0,3.0,32,121.0
1221,G3,303.0,3.0,32,121.0
1222,E-4,304.0,3.0,46,121.0
1223,G4,304.0,3.0,46,121.0
1224,G2,306.0,3.0,36,121.0
1225,B3,306.0,3.0,36,121.0
1226,C3,309.0,3.0,32,121.0
1227,G3,309.0,3.0,32,121.0
1228,E-4,310.0,3.0,46,121.0
1229,G4,310.0,3.0,46,121.0
1230,B-2,312.0,3.0,45,121.0
1231,E-6,313.0,1.0,50,121.0
1232,G6,313.0,1.0,50,121.0
1233,E-6,314.0,1.0,47,121.0
1234,C6,314.0,1.0,47,121.0
1235,F2,315.0,3.0,49,121.0
1236,E-6,315.0,1.0,50,121.0
1237,G6,315.0,1.0,50,121.0
1238,E-6,317.0,1.0,50,121.0
1239,G6,317.0,1.0,50,121.0
1240,G2,318.0,3.0,38,121.0
1241,D6,318.0,1.0,52,121.0
1242,F6,318.0,1.0,52,121.0
1243,C6,319.0,1.0,49,121.0
1244,E-6,319.0,1.0,49,121.0
1245,D6,320.0,1.0,51,121.0
1246,F6,320.0,1.0,51,121.0
1247,D6,321.0,0.5,48,121.0
1248,F6,321.0,0.5,48,121.0
1249,G2,321.0,3.0,32,121.0
1250,B3,321.0,3.0,32,121.0
1251,C6,321.5,0.5,44,121.0
1252,E-6,321.5,0.5,44,121.0
1253,B-5,322.0,1.0,49,121.0
1254,D6,322.0,1.0,49,121.0
1255,B-5,324.0,1.0,49,121.0
1256,D6,324.0,1.0,49,121.0
1257,C4,324.0,3.0,26,121.0
1258,C3,324.0,3.0,26,121.0
1259,G3,324.0,3.0,26,121.0
1260,C6,325.0,167/1000,47,121.0
1261,D5,325.0,2.0,41,121.0
1262,B-5,325.167,167/1000,44,121.0
1263,C6,325.333,167/1000,47,121.0
1264,B-5,325.5,167/1000,43,121.0
1265,C6,325.667,167/1000,46,121.0
1266,B-5,325.833,167/1000,42,121.0
1267,C6,326.0,167/1000,46,121.0
1268,B-5,326.167,167/1000,42,121.0
1269,C6,326.333,167/1000,44,121.0
1270,B-5,326.5,167/1000,42,121.0
1271,G#5,326.667,167/1000,45,121.0
1272,B-5,326.833,167/1000,46,121.0
1273,C3,327.0,0.5,32,121.0
1274,G#5,327.0,1.0,52,121.0
1275,C6,327.0,1.0,52,121.0
1276,D3,327.5,0.5,29,121.0
1277,E-3,328.0,0.5,32,121.0
1278,C6,328.0,1.0,50,121.0
1279,E-6,328.0,1.0,50,121.0
1280,G3,328.5,0.5,28,121.0
1281,E-3,329.0,0.5,30,121.0
1282,B-5,329.0,1.0,49,121.0
1283,D6,329.0,1.0,49,121.0
1284,D3,329.5,0.5,27,121.0
1285,C3,330.0,0.5,32,121.0
1286,G#5,330.0,1.0,51,121.0
1287,C6,330.0,1.0,51,121.0
1288,D3,330.5,0.5,27,121.0
1289,C3,331.0,0.5,28,121.0
1290,B-5,331.0,1.0,50,121.0
1291,D6,331.0,1.0,50,121.0
1292,D3,331.5,0.5,25,121.0
1293,E-3,332.0,0.5,30,121.0
1294,D5,332.0,1.0,46,121.0
1295,B-5,332.0,1.0,46,121.0
1296,G3,332.5,0.5,25,121.0
1297,C3,333.0,0.5,32,121.0
1298,E-5,333.0,3.0,45,121.0
1299,G5,333.0,3.0,45,121.0
1300,D3,333.5,0.5,29,121.0
1301,F3,334.0,0.5,31,121.0
1302,B-3,334.5,0.5,27,121.0
1303,F3,335.0,0.5,29,121.0
1304,D3,335.5,0.5,27,121.0
1305,C3,336.0,0.5,30,121.0
1306,D3,336.5,0.5,26,121.0
1307,F3,337.0,0.5,32,121.0
1308,B-3,337.5,0.5,28,121.0
1309,F3,338.0,0.5,31,121.0
1310,B-2,338.5,0.5,27,121.0
1311,G#2,339.0,0.5,36,121.0
1312,E-5,339.0,3.0,45,121.0
1313,G5,339.0,3.0,45,121.0
1314,B-2,339.5,0.5,30,121.0
1315,C3,340.0,0.5,33,121.0
1316,E-3,340.5,0.5,32,121.0
1317,F3,341.0,0.5,32,121.0
1318,G3,341.5,0.5,27,121.0
1319,F4,342.0,3.0,45,121.0
1320,D5,342.0,1.0,56,121.0
1321,G#3,342.0,0.5,33,121.0
1322,B-3,342.5,0.5,30,121.0
1323,D5,343.0,0.5,56,121.0
1324,G#3,343.0,0.5,33,121.0
1325,E-5,343.5,0.5,51,121.0
1326,B-3,343.5,0.5,29,121.0
1327,D5,344.0,0.5,56,121.0
1328,G#2,344.0,0.5,33,121.0
1329,E-5,344.5,0.5,51,121.0
1330,B-2,344.5,0.5,29,121.0
1331,E-4,345.0,3.0,45,121.0
1332,C5,345.0,1.0,56,121.0
1333,C3,345.0,0.5,37,121.0
1334,D3,345.5,0.5,32,121.0
1335,C5,346.0,0.5,49,121.0
1336,C3,346.0,0.5,39,121.0
1337,G#4,346.5,0.5,47,121.0
1338,D3,346.5,0.5,31,121.0
1339,G4,347.0,1.0,47,121.0
1340,C3,347.0,0.5,39,121.0
1341,B-2,347.5,0.5,34,121.0
1342,F4,348.0,3.0,45,121.0
1343,D5,348.0,1.0,51,121.0
1344,G#2,348.0,0.5,44,121.0
1345,B-2,348.5,0.5,37,121.0
1346,D5,349.0,0.5,51,121.0
1347,G#2,349.0,0.5,42,121.0
1348,E-5,349.5,0.5,47,121.0
1349,B-2,349.5,0.5,37,121.0
1350,D5,350.0,0.5,51,121.0
1351,G#2,350.0,0.5,45,121.0
1352,E-5,350.5,0.5,45,121.0
1353,G2,350.5,0.5,42,121.0
1354,F2,351.0,3.0,50,121.0
1355,E-4,351.0,3.0,48,121.0
1356,C5,351.0,3.0,48,121.0
1357,F4,354.0,3.0,49,121.0
1358,D5,354.0,1.0,61,121.0
1359,F2,354.0,3.0,50,121.0
1360,D5,355.0,0.5,61,121.0
1361,E-5,355.5,0.5,56,121.0
1362,D5,356.0,0.5,61,121.0
1363,D3,356.0,1.0,37,121.0
1364,E-5,356.5,0.5,56,121.0
1365,C5,357.0,1.0,61,121.0
1366,E-4,357.0,3.0,49,121.0
1367,G#4,357.0,3.0,49,121.0
1368,C2,357.0,3.0,33,121.0
1369,E-3,357.0,3.0,33,121.0
1370,G3,357.0,3.0,33,121.0
1371,C5,358.029,0.5,61,121.0
1372,D5,358.5,0.5,56,121.0
1373,C5,359.0,0.5,61,121.0
1374,D5,359.5,0.5,56,121.0
1375,D4,360.0,3.0,55,121.0
1376,B4,360.0,0.875,60,121.0
1377,G4,360.0,3.0,27,121.0
1378,C4,360.0,3.0,27,121.0
1379,C5,360.875,0.125,49,121.0
1380,B4,361.0,0.5,56,121.0
1381,A4,361.5,0.5,49,121.0
1382,G4,362.0,1.0,52,121.0
1383,F4,363.0,3.0,40,121.0
1384,D5,363.0,1.0,45,121.0
1385,D5,364.0,0.5,45,121.0
1386,E-5,364.5,0.5,42,121.0
1387,D5,365.0,0.5,45,121.0
1388,E-5,365.5,0.5,42,121.0
1389,E-4,366.0,3.0,40,121.0
1390,C5,366.0,3.0,40,121.0
1391,E-5,369.0,1.0,50,121.0
1392,G5,369.0,1.0,50,121.0
1393,E-5,370.0,1.0,47,121.0
1394,C5,370.0,1.0,47,121.0
1395,E-5,371.0,1.0,50,121.0
1396,G5,371.0,1.0,50,121.0
1397,E-5,373.0,1.0,50,121.0
1398,G5,373.0,1.0,50,121.0
1399,D5,374.0,1.0,52,121.0
1400,F5,374.0,1.0,52,121.0
1401,C5,375.0,1.0,49,121.0
1402,E-5,375.0,1.0,49,121.0
1403,D5,376.0,1.0,51,121.0
1404,F5,376.0,1.0,51,121.0
1405,D5,377.0,0.5,48,121.0
1406,F5,377.0,0.5,48,121.0
1407,C5,377.5,0.5,44,121.0
1408,E-5,377.5,0.5,44,121.0
1409,B-4,378.0,1.0,49,121.0
1410,D5,378.0,1.0,49,121.0
1411,B-4,380.0,1.0,49,121.0
1412,D5,380.0,1.0,49,121.0
1413,C5,381.0,167/1000,47,121.0
1414,D4,381.0,2.0,41,121.0
1415,B-4,381.167,167/1000,41,121.0
1416,C5,381.333,167/1000,47,121.0
1417,B-4,381.5,167/1000,39,121.0
1418,C5,381.667,167/1000,46,121.0
1419,B-4,381.833,167/1000,40,121.0
1420,C5,382.0,167/1000,46,121.0
1421,B-4,382.167,167/1000,39,121.0
1422,C5,382.333,167/1000,44,121.0
1423,B-4,382.5,167/1000,38,121.0
1424,G#4,382.667,167/1000,45,121.0
1425,B-4,382.833,167/1000,46,121.0
1426,G#4,383.0,1.0,52,121.0
1427,C5,383.0,1.0,52,121.0
1428,C5,384.0,1.0,52,121.0
1429,E-5,384.0,1.0,52,121.0
1430,B-4,385.0,1.0,49,121.0
1431,D5,385.0,1.0,49,121.0
1432,G#4,386.0,1.0,51,121.0
1433,C5,386.0,1.0,51,121.0
1434,B-4,387.0,1.0,50,121.0
1435,D5,387.0,1.0,50,121.0
1436,D4,388.0,1.0,46,121.0
1437,B-4,388.0,1.0,46,121.0
1438,E-4,389.0,3.0,45,121.0
1439,G4,389.0,3.0,45,121.0
1440,E-4,395.0,3.0,45,121.0
1441,G4,395.0,3.0,45,121.0
1442,G#3,398.0,1.0,54,121.0
1443,C4,398.0,1.0,54,121.0
1444,C4,399.0,1.0,50,121.0
1445,E-4,399.0,1.0,50,121.0
1446,B-3,400.0,1.0,42,121.0
1447,D4,400.0,1.0,42,121.0
1448,G#3,401.0,1.0,45,121.0
1449,C4,401.0,1.0,45,121.0
1450,B-3,402.0,1.0,36,121.0
1451,D4,402.0,1.0,36,121.0
1452,B-3,403.0,1.0,41,121.0
1453,E-5,407.0,3.0,42,121.0
1454,G5,407.0,3.0,42,121.0
