,note_name,start_time,duration,velocity,tempo
0,B3,0.0,1.0,70,82.0
1,D4,0.0,1.0,70,82.0
2,G2,0.0,2.0,48,82.0
3,D3,0.0,2.0,48,82.0
4,D6,1.0,0.5,70,82.0
5,B3,2.0,1.0,60,82.0
6,D4,2.0,1.0,60,82.0
7,D3,2.0,2.0,41,82.0
8,G2,2.0,2.0,41,82.0
9,D6,3.0,0.5,62,82.0
10,D4,4.0,1.0,54,82.0
11,B3,4.0,1.0,54,82.0
12,D3,4.0,2.0,32,82.0
13,G2,4.0,2.0,32,82.0
14,D6,5.0,0.5,57,82.0
15,B3,6.0,1.0,47,82.0
16,D4,6.0,1.0,47,82.0
17,G2,6.0,2.0,28,82.0
18,D3,6.0,2.0,28,82.0
19,D6,7.0,0.5,49,82.0
20,D4,7.75,0.25,46,82.0
21,B3,8.0,0.5,47,82.0
22,G4,8.0,0.5,47,82.0
23,G2,8.0,2.0,31,82.0
24,D3,8.0,2.0,31,82.0
25,G4,8.5,0.5,44,82.0
26,D6,9.0,1.0,47,82.0
27,B3,9.0,0.25,46,82.0
28,G4,9.0,0.25,46,82.0
29,A4,9.25,0.25,40,82.0
30,B4,9.5,0.25,45,82.0
31,C5,9.75,177/1000,40,82.0
32,C5,9.938,0.062,44,82.0
33,C5,10.0,0.062,44,82.0
34,D4,10.0,0.5,47,82.0
35,B4,10.0,0.5,47,82.0
36,G2,10.0,2.0,33,82.0
37,D3,10.0,2.0,33,82.0
38,A4,10.5,0.25,39,82.0
39,B4,10.75,0.25,35,82.0
40,D6,11.0,1.0,45,82.0
41,B3,11.0,0.75,42,82.0
42,G4,11.0,0.75,42,82.0
43,E4,11.75,0.25,47,82.0
44,C4,12.0,0.5,47,82.0
45,A4,12.0,0.5,47,82.0
46,G2,12.0,2.0,31,82.0
47,D3,12.0,2.0,31,82.0
48,A4,12.5,0.5,45,82.0
49,D6,13.0,1.0,47,82.0
50,C4,13.0,0.25,46,82.0
51,A4,13.0,0.25,46,82.0
52,B4,13.25,0.25,40,82.0
53,C5,13.5,0.25,45,82.0
54,D5,13.75,177/1000,40,82.0
55,D5,13.938,0.062,44,82.0
56,D5,14.0,0.062,44,82.0
57,E4,14.0,0.5,47,82.0
58,C5,14.0,0.5,47,82.0
59,G2,14.0,2.0,33,82.0
60,D3,14.0,2.0,33,82.0
61,B4,14.5,0.25,41,82.0
62,C5,14.75,0.25,38,82.0
63,D6,15.0,1.0,45,82.0
64,C4,15.0,0.75,42,82.0
65,A4,15.0,0.75,42,82.0
66,G4,15.75,0.25,47,82.0
67,C4,16.0,0.5,47,82.0
68,F#4,16.0,0.5,47,82.0
69,G2,16.0,2.0,31,82.0
70,D3,16.0,2.0,31,82.0
71,F#4,16.5,0.438,48,82.0
72,G4,16.938,0.062,42,82.0
73,D6,17.0,1.0,47,82.0
74,C4,17.0,0.25,46,82.0
75,F#4,17.0,0.25,46,82.0
76,D4,17.25,0.25,40,82.0
77,E4,17.5,0.25,45,82.0
78,F#4,17.75,0.25,40,82.0
79,B3,18.0,1.0,47,82.0
80,G4,18.0,1.0,47,82.0
81,G2,18.0,2.0,31,82.0
82,D3,18.0,2.0,31,82.0
83,D6,19.0,1.0,47,82.0
84,D4,19.75,0.25,44,82.0
85,G4,20.0,0.5,44,82.0
86,B3,20.0,0.5,44,82.0
87,G2,20.0,2.0,30,82.0
88,D3,20.0,2.0,30,82.0
89,G4,20.5,0.5,45,82.0
90,D6,21.0,1.0,44,82.0
91,B3,21.0,0.25,44,82.0
92,G4,21.0,0.25,44,82.0
93,A4,21.25,0.25,38,82.0
94,B4,21.5,0.25,43,82.0
95,C5,21.75,177/1000,38,82.0
96,C5,21.938,0.062,41,82.0
97,C5,22.0,0.062,41,82.0
98,D4,22.0,0.5,44,82.0
99,B4,22.0,0.5,44,82.0
100,G2,22.0,2.0,31,82.0
101,D3,22.0,2.0,31,82.0
102,A4,22.5,0.25,39,82.0
103,B4,22.75,0.25,33,82.0
104,D6,23.0,1.0,42,82.0
105,G4,23.0,0.75,39,82.0
106,B3,23.0,0.75,39,82.0
107,E4,23.75,0.25,44,82.0
108,A4,24.0,0.5,44,82.0
109,C4,24.0,0.5,44,82.0
110,D3,24.0,2.0,30,82.0
111,G2,24.0,2.0,30,82.0
112,A4,24.5,0.5,42,82.0
113,D6,25.0,1.0,44,82.0
114,C4,25.0,0.25,44,82.0
115,A4,25.0,0.25,44,82.0
116,B4,25.25,0.25,38,82.0
117,C5,25.5,0.25,43,82.0
118,D5,25.75,177/1000,38,82.0
119,D5,25.938,0.062,41,82.0
120,D5,26.0,0.062,41,82.0
121,C5,26.0,0.5,44,82.0
122,E4,26.0,0.5,44,82.0
123,D3,26.0,2.0,31,82.0
124,G2,26.0,2.0,31,82.0
125,B4,26.5,0.25,38,82.0
126,C5,26.75,0.25,36,82.0
127,D6,27.0,1.0,42,82.0
128,C4,27.0,0.75,39,82.0
129,A4,27.0,0.75,39,82.0
130,G4,27.75,0.25,44,82.0
131,C4,28.0,0.5,44,82.0
132,F#4,28.0,0.5,44,82.0
133,G2,28.0,2.0,30,82.0
134,D3,28.0,2.0,30,82.0
135,F#4,28.5,0.438,45,82.0
136,G4,28.938,0.062,40,82.0
137,D6,29.0,1.0,44,82.0
138,C4,29.0,0.25,44,82.0
139,F#4,29.0,0.25,44,82.0
140,D4,29.25,0.25,38,82.0
141,E4,29.5,0.25,43,82.0
142,F#4,29.75,0.25,38,82.0
143,G4,30.0,1.0,44,82.0
144,B3,30.0,1.0,44,82.0
145,G2,30.0,2.0,30,82.0
146,D3,30.0,2.0,30,82.0
147,D6,31.0,1.0,44,82.0
148,D4,31.75,0.25,46,82.0
149,G4,32.0,0.5,47,82.0
150,B3,32.0,0.5,47,82.0
151,G2,32.0,2.0,31,82.0
152,D3,32.0,2.0,31,82.0
153,G4,32.5,0.5,44,82.0
154,F5,33.0,1.0,45,82.0
155,B3,33.0,0.25,46,82.0
156,G4,33.0,0.25,46,82.0
157,A4,33.25,0.25,40,82.0
158,B4,33.5,0.25,45,82.0
159,C5,33.75,177/1000,37,82.0
160,C5,33.938,0.062,44,82.0
161,C5,34.0,0.062,44,82.0
162,B4,34.0,0.5,47,82.0
163,D4,34.0,0.5,47,82.0
164,G2,34.0,2.0,33,82.0
165,D3,34.0,2.0,33,82.0
166,A4,34.5,0.25,41,82.0
167,B4,34.75,0.25,37,82.0
168,F5,35.0,1.0,42,82.0
169,B3,35.0,0.75,41,82.0
170,G4,35.0,0.75,41,82.0
171,E4,35.75,0.25,47,82.0
172,A4,36.0,0.5,47,82.0
173,C4,36.0,0.5,47,82.0
174,E3,36.0,2.0,31,82.0
175,G2,36.0,2.0,31,82.0
176,A4,36.5,0.5,45,82.0
177,E5,37.0,1.0,46,82.0
178,C4,37.0,0.25,48,82.0
179,A4,37.0,0.25,48,82.0
180,B4,37.25,0.25,42,82.0
181,C5,37.5,0.25,48,82.0
182,D5,37.75,177/1000,43,82.0
183,D5,37.938,0.062,47,82.0
184,D5,38.0,0.062,47,82.0
185,C5,38.0,0.5,50,82.0
186,E4,38.0,0.5,50,82.0
187,G2,38.0,2.0,35,82.0
188,E3,38.0,2.0,35,82.0
189,B4,38.5,0.25,45,82.0
190,C5,38.75,0.25,38,82.0
191,E5,39.0,1.0,47,82.0
192,C4,39.0,0.75,46,82.0
193,A4,39.0,0.75,46,82.0
194,G4,39.75,0.25,56,82.0
195,C5,40.0,0.5,57,82.0
196,E4,40.0,0.5,57,82.0
197,D3,40.0,2.0,38,82.0
198,G2,40.0,2.0,38,82.0
199,C5,40.5,0.5,55,82.0
200,A5,41.0,1.0,55,82.0
201,E4,41.0,0.25,58,82.0
202,C5,41.0,0.25,58,82.0
203,D5,41.25,0.25,51,82.0
204,E5,41.5,0.25,58,82.0
205,F#5,41.75,177/1000,52,82.0
206,F#5,41.938,0.062,56,82.0
207,F#5,42.0,0.062,56,82.0
208,E5,42.0,0.5,60,82.0
209,G4,42.0,0.5,60,82.0
210,G2,42.0,2.0,42,82.0
211,D3,42.0,2.0,42,82.0
212,D5,42.5,0.25,54,82.0
213,E5,42.75,0.25,50,82.0
214,A5,43.0,1.0,55,82.0
215,F#4,43.0,0.75,56,82.0
216,C5,43.0,0.75,56,82.0
217,B4,43.75,0.25,67,82.0
218,G5,44.0,0.5,68,82.0
219,B4,44.0,0.5,68,82.0
220,D3,44.0,2.0,48,82.0
221,G2,44.0,2.0,48,82.0
222,G5,44.5,0.5,68,82.0
223,D6,45.0,1.0,72,82.0
224,B4,45.0,0.25,70,82.0
225,G5,45.0,0.25,70,82.0
226,A5,45.25,0.25,62,82.0
227,B5,45.5,0.25,70,82.0
228,C6,45.75,177/1000,62,82.0
229,C6,45.938,0.062,67,82.0
230,C6,46.0,0.062,67,82.0
231,B5,46.0,0.5,72,82.0
232,D5,46.0,0.5,72,82.0
233,G2,46.0,2.0,50,82.0
234,D3,46.0,2.0,50,82.0
235,A5,46.5,0.25,73,82.0
236,B5,46.75,0.25,69,82.0
237,G6,47.0,1.0,81,82.0
238,B4,47.0,0.75,76,82.0
239,G5,47.0,0.75,76,82.0
240,D4,47.75,0.25,64,82.0
241,G4,48.0,0.5,63,82.0
242,B3,48.0,0.5,63,82.0
243,G2,48.0,2.0,42,82.0
244,D3,48.0,2.0,42,82.0
245,G4,48.5,0.5,59,82.0
246,F5,49.0,1.0,59,82.0
247,B3,49.0,0.25,62,82.0
248,G4,49.0,0.25,62,82.0
249,A4,49.25,0.25,54,82.0
250,B4,49.5,0.25,60,82.0
251,C5,49.75,177/1000,54,82.0
252,C5,49.938,0.062,59,82.0
253,C5,50.0,0.062,59,82.0
254,B4,50.0,0.5,63,82.0
255,D4,50.0,0.5,63,82.0
256,G2,50.0,2.0,44,82.0
257,D3,50.0,2.0,44,82.0
258,A4,50.5,0.25,53,82.0
259,B4,50.75,0.25,51,82.0
260,F5,51.0,1.0,56,82.0
261,B3,51.0,0.75,56,82.0
262,G4,51.0,0.75,56,82.0
263,E4,51.75,0.25,64,82.0
264,A4,52.0,0.5,63,82.0
265,C4,52.0,0.5,63,82.0
266,E3,52.0,2.0,42,82.0
267,G2,52.0,2.0,42,82.0
268,A4,52.5,0.5,60,82.0
269,E5,53.0,1.0,61,82.0
270,C4,53.0,0.25,64,82.0
271,A4,53.0,0.25,64,82.0
272,B4,53.25,0.25,56,82.0
273,C5,53.5,0.25,65,82.0
274,D5,53.75,177/1000,57,82.0
275,D5,53.938,0.062,62,82.0
276,D5,54.0,0.062,62,82.0
277,C5,54.0,0.5,66,82.0
278,E4,54.0,0.5,66,82.0
279,G2,54.0,2.0,48,82.0
280,E3,54.0,2.0,48,82.0
281,B4,54.5,0.25,60,82.0
282,C5,54.75,0.25,55,82.0
283,E5,55.0,1.0,64,82.0
284,C4,55.0,0.75,62,82.0
285,A4,55.0,0.75,62,82.0
286,G4,55.75,0.25,65,82.0
287,C5,56.0,0.5,65,82.0
288,E4,56.0,0.5,65,82.0
289,D3,56.0,2.0,44,82.0
290,G2,56.0,2.0,44,82.0
291,C5,56.5,0.5,63,82.0
292,A5,57.0,1.0,65,82.0
293,E4,57.0,0.25,66,82.0
294,C5,57.0,0.25,66,82.0
295,D5,57.25,0.25,58,82.0
296,E5,57.5,0.25,67,82.0
297,F#5,57.75,177/1000,59,82.0
298,F#5,57.938,0.062,65,82.0
299,F#5,58.0,0.062,65,82.0
300,E5,58.0,0.5,69,82.0
301,G4,58.0,0.5,69,82.0
302,G2,58.0,2.0,48,82.0
303,D3,58.0,2.0,48,82.0
304,D5,58.5,0.25,62,82.0
305,E5,58.75,0.25,57,82.0
306,A5,59.0,1.0,65,82.0
307,F#4,59.0,0.75,64,82.0
308,C5,59.0,0.75,64,82.0
309,D5,59.75,0.25,68,82.0
310,G5,60.0,0.5,69,82.0
311,B4,60.0,0.5,69,82.0
312,D3,60.0,2.0,50,82.0
313,G2,60.0,2.0,50,82.0
314,G5,60.5,0.5,70,82.0
315,D6,61.0,1.0,70,82.0
316,B4,61.0,0.25,72,82.0
317,G5,61.0,0.25,72,82.0
318,A5,61.25,0.25,63,82.0
319,B5,61.5,0.25,69,82.0
320,C6,61.75,177/1000,63,82.0
321,C6,61.938,0.062,68,82.0
322,C6,62.0,0.062,68,82.0
323,B5,62.0,0.5,74,82.0
324,D5,62.0,0.5,74,82.0
325,G2,62.0,2.0,52,82.0
326,D3,62.0,2.0,52,82.0
327,A5,62.5,0.25,75,82.0
328,B5,62.75,0.25,71,82.0
329,B4,63.0,1.0,79,82.0
330,G5,63.0,1.0,79,82.0
331,G6,63.0,1.0,79,82.0
332,A3,64.0,0.25,66,82.0
333,D4,64.0,0.25,66,82.0
334,G2,64.0,2.0,43,82.0
335,D3,64.0,2.0,43,82.0
336,B3,64.25,0.25,56,82.0
337,C4,64.5,0.25,59,82.0
338,D4,64.75,0.25,54,82.0
339,D5,65.0,1.0,68,82.0
340,G2,66.0,0.5,47,82.0
341,E4,66.0,0.5,64,82.0
342,C5,66.0,0.5,64,82.0
343,G2,66.5,0.25,40,82.0
344,D4,66.5,0.25,57,82.0
345,B4,66.5,0.25,57,82.0
346,D3,66.75,0.25,40,82.0
347,E4,66.75,0.25,50,82.0
348,C5,66.75,0.25,50,82.0
349,G2,67.0,0.5,47,82.0
350,C4,67.0,1.0,57,82.0
351,A4,67.0,1.0,57,82.0
352,D2,67.5,0.5,41,82.0
353,A3,68.0,0.25,66,82.0
354,D4,68.0,0.25,66,82.0
355,G2,68.0,2.0,43,82.0
356,D3,68.0,2.0,43,82.0
357,B3,68.25,0.25,58,82.0
358,C4,68.5,0.25,59,82.0
359,D4,68.75,0.25,53,82.0
360,D5,69.0,1.0,68,82.0
361,G2,70.0,0.5,47,82.0
362,D4,70.0,0.5,64,82.0
363,B4,70.0,0.5,64,82.0
364,G2,70.5,0.25,40,82.0
365,C4,70.5,0.25,57,82.0
366,A4,70.5,0.25,57,82.0
367,D3,70.75,0.25,40,82.0
368,D4,70.75,0.25,50,82.0
369,B4,70.75,0.25,50,82.0
370,B3,71.0,1.0,57,82.0
371,G4,71.0,1.0,57,82.0
372,G2,71.0,0.5,44,82.0
373,G3,71.0,0.5,44,82.0
374,D2,71.5,0.5,39,82.0
375,A3,72.0,0.25,54,82.0
376,D4,72.0,0.25,54,82.0
377,G2,72.0,2.0,35,82.0
378,D3,72.0,2.0,35,82.0
379,B3,72.25,0.25,47,82.0
380,C4,72.5,0.25,48,82.0
381,D4,72.75,0.25,45,82.0
382,D5,73.0,1.0,55,82.0
383,G2,74.0,0.5,38,82.0
384,E4,74.0,0.5,52,82.0
385,C5,74.0,0.5,52,82.0
386,G2,74.5,0.25,33,82.0
387,D4,74.5,0.25,47,82.0
388,B4,74.5,0.25,47,82.0
389,D3,74.75,0.25,33,82.0
390,E4,74.75,0.25,41,82.0
391,C5,74.75,0.25,41,82.0
392,G2,75.0,0.5,38,82.0
393,C4,75.0,1.0,47,82.0
394,A4,75.0,1.0,47,82.0
395,D2,75.5,0.5,33,82.0
396,A3,76.0,0.25,52,82.0
397,D4,76.0,0.25,52,82.0
398,G2,76.0,2.0,33,82.0
399,D3,76.0,2.0,33,82.0
400,B3,76.25,0.25,40,82.0
401,C4,76.5,0.25,45,82.0
402,D4,76.75,0.25,40,82.0
403,D5,77.0,1.0,52,82.0
404,G2,78.0,0.5,36,82.0
405,D4,78.0,0.5,50,82.0
406,B4,78.0,0.5,50,82.0
407,G2,78.5,0.25,31,82.0
408,C4,78.5,0.25,44,82.0
409,A4,78.5,0.25,44,82.0
410,D3,78.75,0.25,31,82.0
411,D4,78.75,0.25,38,82.0
412,B4,78.75,0.25,38,82.0
413,G2,79.0,0.5,31,82.0
414,B3,79.0,0.5,44,82.0
415,G4,79.0,0.5,44,82.0
416,D2,79.5,0.5,29,82.0
417,D4,79.5,0.5,37,82.0
418,B4,79.5,0.5,37,82.0
419,C4,80.0,0.5,42,82.0
420,A4,80.0,0.5,42,82.0
421,G2,80.0,2.0,33,82.0
422,D3,80.0,2.0,33,82.0
423,B3,80.5,0.5,40,82.0
424,G4,80.5,0.5,40,82.0
425,G5,81.0,1.0,45,82.0
426,B3,81.0,1.0,45,82.0
427,G4,81.0,1.0,45,82.0
428,B3,82.0,1.0,37,82.0
429,D4,82.0,1.0,37,82.0
430,G2,82.0,2.0,26,82.0
431,D3,82.0,2.0,26,82.0
432,G5,83.0,1.0,48,82.0
433,B3,84.0,1.0,36,82.0
434,D4,84.0,1.0,36,82.0
435,G2,84.0,2.0,26,82.0
436,D3,84.0,2.0,26,82.0
437,G5,85.0,1.0,48,82.0
438,G5,86.0,1.0,48,82.0
439,F#5,87.0,73/250,45,82.0
440,B3,87.0,1.0,36,82.0
441,D4,87.0,1.0,36,82.0
442,G2,87.0,1.0,26,82.0
443,D3,87.0,1.0,26,82.0
444,E5,87.25,73/250,41,82.0
445,D5,87.5,73/250,44,82.0
446,C5,87.75,73/250,40,82.0
447,B4,88.0,1.0,48,82.0
448,C4,89.0,1.0,36,82.0
449,F#4,89.0,1.0,36,82.0
450,A4,89.0,1.0,36,82.0
451,D2,90.0,1.0,24,82.0
452,G4,90.0,1.0,36,82.0
453,B3,90.0,1.0,36,82.0
454,D4,90.0,1.0,36,82.0
455,D6,91.0,1.0,43,82.0
456,G2,91.0,2.0,28,82.0
457,D3,91.0,2.0,28,82.0
458,G4,92.0,1.0,34,82.0
459,B3,92.0,1.0,34,82.0
460,D4,92.0,1.0,34,82.0
461,D6,93.0,1.0,39,82.0
462,G2,93.0,2.0,24,82.0
463,D3,93.0,2.0,24,82.0
464,G4,94.0,1.0,34,82.0
465,B3,94.0,1.0,34,82.0
466,D4,94.0,1.0,34,82.0
467,D6,95.0,1.0,39,82.0
468,G2,95.0,2.0,26,82.0
469,D3,95.0,2.0,26,82.0
470,B3,96.0,1.0,36,82.0
471,D4,96.0,1.0,36,82.0
472,D6,97.0,1.0,42,82.0
473,G2,97.0,2.0,24,82.0
474,D3,97.0,2.0,24,82.0
475,D4,97.75,0.25,46,82.0
476,B3,98.0,0.5,47,82.0
477,G4,98.0,0.5,47,82.0
478,G4,98.5,0.5,44,82.0
479,D6,99.0,1.0,47,82.0
480,B3,99.0,0.25,46,82.0
481,G4,99.0,0.25,46,82.0
482,D3,99.0,2.0,31,82.0
483,G2,99.0,2.0,31,82.0
484,A4,99.25,0.25,40,82.0
485,B4,99.5,0.25,43,82.0
486,C5,99.75,177/1000,39,82.0
487,C5,99.938,0.062,44,82.0
488,C5,100.0,0.062,44,82.0
489,D4,100.0,0.5,47,82.0
490,B4,100.0,0.5,47,82.0
491,A4,100.5,0.25,39,82.0
492,B4,100.75,0.25,38,82.0
493,D6,101.0,1.0,45,82.0
494,B3,101.0,0.75,42,82.0
495,G4,101.0,0.75,42,82.0
496,G2,101.0,2.0,33,82.0
497,D3,101.0,2.0,33,82.0
498,E4,101.75,0.25,47,82.0
499,C4,102.0,0.5,47,82.0
500,A4,102.0,0.5,47,82.0
501,A4,102.5,0.5,45,82.0
502,D6,103.0,1.0,47,82.0
503,C4,103.0,0.25,46,82.0
504,A4,103.0,0.25,46,82.0
505,G2,103.0,2.0,31,82.0
506,D3,103.0,2.0,31,82.0
507,B4,103.25,0.25,40,82.0
508,C5,103.5,0.25,45,82.0
509,D5,103.75,177/1000,40,82.0
510,D5,103.938,0.062,44,82.0
511,D5,104.0,0.062,44,82.0
512,E4,104.0,0.5,47,82.0
513,C5,104.0,0.5,47,82.0
514,B4,104.5,0.25,41,82.0
515,C5,104.75,0.25,38,82.0
516,D6,105.0,1.0,45,82.0
517,C4,105.0,0.75,42,82.0
518,A4,105.0,0.75,42,82.0
519,G2,105.0,2.0,33,82.0
520,D3,105.0,2.0,33,82.0
521,G4,105.75,0.25,47,82.0
522,A3,106.0,0.5,47,82.0
523,F#4,106.0,0.5,47,82.0
524,C4,106.5,0.438,44,82.0
525,F#4,106.5,0.438,44,82.0
526,G4,106.938,0.062,42,82.0
527,D6,107.0,1.0,47,82.0
528,A3,107.0,0.25,46,82.0
529,F#4,107.0,0.25,46,82.0
530,G2,107.0,2.0,31,82.0
531,D3,107.0,2.0,31,82.0
532,D4,107.25,0.25,40,82.0
533,C4,107.5,0.25,44,82.0
534,E4,107.5,0.25,44,82.0
535,F#4,107.75,0.25,40,82.0
536,B3,108.0,1.0,47,82.0
537,G4,108.0,1.0,47,82.0
538,D6,109.0,1.0,47,82.0
539,G2,109.0,2.0,31,82.0
540,D3,109.0,2.0,31,82.0
541,D4,109.75,0.25,41,82.0
542,G4,110.0,0.5,47,82.0
543,B3,110.0,0.5,47,82.0
544,G4,110.5,0.5,44,82.0
545,F5,111.0,1.0,44,82.0
546,B3,111.0,0.25,46,82.0
547,G4,111.0,0.25,46,82.0
548,G2,111.0,2.0,31,82.0
549,D3,111.0,2.0,31,82.0
550,A4,111.25,0.25,40,82.0
551,B4,111.5,0.25,45,82.0
552,C5,111.75,177/1000,40,82.0
553,C5,111.938,0.062,44,82.0
554,C5,112.0,0.062,44,82.0
555,B4,112.0,0.5,47,82.0
556,D4,112.0,0.5,47,82.0
557,A4,112.5,0.25,41,82.0
558,B4,112.75,0.25,38,82.0
559,F5,113.0,1.0,42,82.0
560,B3,113.0,0.75,42,82.0
561,G4,113.0,0.75,42,82.0
562,G2,113.0,2.0,33,82.0
563,D3,113.0,2.0,33,82.0
564,E4,113.75,0.25,47,82.0
565,A4,114.0,0.5,47,82.0
566,C4,114.0,0.5,47,82.0
567,A4,114.5,0.5,45,82.0
568,E5,115.0,1.0,46,82.0
569,C4,115.0,0.25,48,82.0
570,A4,115.0,0.25,48,82.0
571,E3,115.0,2.0,31,82.0
572,G2,115.0,2.0,31,82.0
573,B4,115.25,0.25,42,82.0
574,C5,115.5,0.25,48,82.0
575,D5,115.75,177/1000,43,82.0
576,D5,115.938,0.062,47,82.0
577,D5,116.0,0.062,47,82.0
578,C5,116.0,0.5,50,82.0
579,E4,116.0,0.5,50,82.0
580,B4,116.5,0.25,45,82.0
581,C5,116.75,0.25,41,82.0
582,E5,117.0,1.0,47,82.0
583,C4,117.0,0.75,46,82.0
584,A4,117.0,0.75,46,82.0
585,G2,117.0,2.0,36,82.0
586,E3,117.0,2.0,36,82.0
587,G4,117.75,0.25,50,82.0
588,C5,118.0,0.5,50,82.0
589,E4,118.0,0.5,50,82.0
590,C5,118.5,0.5,49,82.0
591,A5,119.0,1.0,53,82.0
592,E4,119.0,0.25,52,82.0
593,C5,119.0,0.25,52,82.0
594,D3,119.0,2.0,34,82.0
595,G2,119.0,2.0,34,82.0
596,D5,119.25,0.25,45,82.0
597,E5,119.5,0.25,52,82.0
598,F#5,119.75,177/1000,46,82.0
599,F#5,119.938,0.062,50,82.0
600,F#5,120.0,0.062,50,82.0
601,E5,120.0,0.5,54,82.0
602,G4,120.0,0.5,54,82.0
603,D5,120.5,0.25,48,82.0
604,E5,120.75,0.25,40,82.0
605,A5,121.0,1.0,53,82.0
606,F#4,121.0,0.75,49,82.0
607,C5,121.0,0.75,49,82.0
608,G2,121.0,2.0,38,82.0
609,D3,121.0,2.0,38,82.0
610,D5,121.75,0.25,53,82.0
611,G5,122.0,0.5,54,82.0
612,B4,122.0,0.5,54,82.0
613,G5,122.5,0.5,54,82.0
614,D6,123.0,1.0,57,82.0
615,B4,123.0,0.25,56,82.0
616,G5,123.0,0.25,56,82.0
617,D3,123.0,2.0,38,82.0
618,G2,123.0,2.0,38,82.0
619,A5,123.25,0.25,49,82.0
620,B5,123.5,0.25,56,82.0
621,C6,123.75,177/1000,49,82.0
622,C6,123.938,0.062,53,82.0
623,C6,124.0,0.062,53,82.0
624,B5,124.0,0.5,58,82.0
625,D5,124.0,0.5,58,82.0
626,A5,124.5,0.25,58,82.0
627,B5,124.75,0.25,55,82.0
628,B4,125.0,1.0,62,82.0
629,G5,125.0,1.0,62,82.0
630,G6,125.0,1.0,62,82.0
631,G2,125.0,2.0,40,82.0
632,D3,125.0,2.0,40,82.0
633,A3,126.0,0.25,54,82.0
634,D4,126.0,0.25,54,82.0
635,B3,126.25,0.25,46,82.0
636,C4,126.5,0.25,48,82.0
637,D4,126.75,0.25,45,82.0
638,D5,127.0,1.0,55,82.0
639,G2,127.0,2.0,35,82.0
640,D3,127.0,2.0,35,82.0
641,E4,128.0,0.5,52,82.0
642,C5,128.0,0.5,52,82.0
643,D4,128.5,0.25,47,82.0
644,B4,128.5,0.25,47,82.0
645,E4,128.75,0.25,41,82.0
646,C5,128.75,0.25,41,82.0
647,G2,129.0,0.5,38,82.0
648,C4,129.0,1.0,47,82.0
649,A4,129.0,1.0,47,82.0
650,G2,129.5,0.25,33,82.0
651,D3,129.75,0.25,33,82.0
652,G2,130.0,0.5,38,82.0
653,A3,130.0,0.25,54,82.0
654,D4,130.0,0.25,54,82.0
655,B3,130.25,0.25,46,82.0
656,C4,130.5,0.25,48,82.0
657,D2,130.5,0.5,34,82.0
658,D4,130.75,0.25,45,82.0
659,D5,131.0,1.0,55,82.0
660,G2,131.0,2.0,35,82.0
661,D3,131.0,2.0,35,82.0
662,D4,132.0,0.5,52,82.0
663,B4,132.0,0.5,52,82.0
664,C4,132.5,0.25,47,82.0
665,A4,132.5,0.25,47,82.0
666,D4,132.75,0.25,41,82.0
667,B4,132.75,0.25,41,82.0
668,G2,133.0,0.5,38,82.0
669,B3,133.0,1.0,47,82.0
670,G4,133.0,1.0,47,82.0
671,G2,133.5,0.25,33,82.0
672,D3,133.75,0.25,33,82.0
673,G2,134.0,0.5,33,82.0
674,A3,134.0,0.25,54,82.0
675,D4,134.0,0.25,54,82.0
676,B3,134.25,0.25,46,82.0
677,C4,134.5,0.25,48,82.0
678,D2,134.5,0.5,32,82.0
679,D4,134.75,0.25,46,82.0
680,D5,135.0,1.0,55,82.0
681,G2,135.0,2.0,35,82.0
682,D3,135.0,2.0,35,82.0
683,E4,136.0,0.5,52,82.0
684,C5,136.0,0.5,52,82.0
685,D4,136.5,0.25,47,82.0
686,B4,136.5,0.25,47,82.0
687,E4,136.75,0.25,41,82.0
688,C5,136.75,0.25,41,82.0
689,G2,137.0,0.5,38,82.0
690,C4,137.0,1.0,47,82.0
691,A4,137.0,1.0,47,82.0
692,G2,137.5,0.25,33,82.0
693,D3,137.75,0.25,33,82.0
694,G2,138.0,0.5,38,82.0
695,A3,138.0,0.25,52,82.0
696,D4,138.0,0.25,52,82.0
697,B3,138.25,0.25,44,82.0
698,C4,138.5,0.25,45,82.0
699,D2,138.5,0.5,33,82.0
700,D4,138.75,0.25,41,82.0
701,D5,139.0,1.0,52,82.0
702,G2,139.0,2.0,33,82.0
703,D3,139.0,2.0,33,82.0
704,D4,140.0,0.5,50,82.0
705,B4,140.0,0.5,50,82.0
706,C4,140.5,0.25,44,82.0
707,A4,140.5,0.25,44,82.0
708,D4,140.75,0.25,38,82.0
709,B4,140.75,0.25,38,82.0
710,G2,141.0,0.5,36,82.0
711,B3,141.0,0.5,44,82.0
712,G4,141.0,0.5,44,82.0
713,G2,141.5,0.25,31,82.0
714,D4,141.5,0.5,37,82.0
715,B4,141.5,0.5,37,82.0
716,D3,141.75,0.25,31,82.0
717,G2,142.0,0.5,31,82.0
718,C4,142.0,0.5,42,82.0
719,A4,142.0,0.5,42,82.0
720,D2,142.5,0.5,29,82.0
721,B3,142.5,0.5,40,82.0
722,G4,142.5,0.5,40,82.0
723,G5,143.0,1.0,45,82.0
724,B3,143.0,1.0,45,82.0
725,G4,143.0,1.0,45,82.0
726,G2,143.0,2.0,33,82.0
727,D3,143.0,2.0,33,82.0
728,B3,144.0,1.0,37,82.0
729,D4,144.0,1.0,37,82.0
730,G5,145.0,1.0,48,82.0
731,G2,145.0,2.0,26,82.0
732,D3,145.0,2.0,26,82.0
733,B3,146.0,1.0,36,82.0
734,D4,146.0,1.0,36,82.0
735,G5,147.0,1.0,48,82.0
736,G2,147.0,2.0,26,82.0
737,D3,147.0,2.0,26,82.0
738,G5,148.0,1.0,48,82.0
739,F#5,149.0,73/250,45,82.0
740,E5,149.25,73/250,40,82.0
741,D5,149.5,73/250,44,82.0
742,C5,149.75,73/250,39,82.0
743,B4,150.0,1.0,48,82.0
744,B3,150.0,1.0,36,82.0
745,D4,150.0,1.0,36,82.0
746,G2,150.0,1.0,26,82.0
747,D3,150.0,1.0,26,82.0
748,C4,151.0,1.0,36,82.0
749,F#4,151.0,1.0,36,82.0
750,A4,151.0,1.0,36,82.0
751,G4,152.0,1.0,38,82.0
752,B3,152.0,1.0,38,82.0
753,D4,152.0,1.0,38,82.0
754,D6,153.0,1.0,43,82.0
755,D2,153.0,1.0,24,82.0
756,B3,154.0,1.0,38,82.0
757,D4,154.0,1.0,38,82.0
758,G2,154.0,2.0,28,82.0
759,D3,154.0,2.0,28,82.0
760,D6,155.0,1.0,41,82.0
761,B3,156.0,1.0,38,82.0
762,D4,156.0,1.0,38,82.0
763,G2,156.0,2.0,27,82.0
764,D3,156.0,2.0,27,82.0
765,D6,157.0,1.0,42,82.0
766,B3,158.0,1.0,37,82.0
767,D4,158.0,1.0,37,82.0
768,G2,158.0,2.0,28,82.0
769,D3,158.0,2.0,28,82.0
770,D6,159.0,0.75,41,82.0
771,D4,159.75,0.25,38,82.0
772,B-3,160.0,1.0,37,82.0
773,D4,160.0,1.0,37,82.0
774,G2,160.0,2.0,26,82.0
775,D3,160.0,2.0,26,82.0
776,D6,161.0,1.0,36,82.0
777,B-3,162.0,1.0,33,82.0
778,D4,162.0,1.0,33,82.0
779,G2,162.0,2.0,28,82.0
780,D3,162.0,2.0,28,82.0
781,D6,163.0,1.0,34,82.0
782,B-3,164.0,1.0,30,82.0
783,D4,164.0,1.0,30,82.0
784,G2,164.0,2.0,26,82.0
785,D3,164.0,2.0,26,82.0
786,D6,165.0,1.0,34,82.0
787,B-3,166.0,1.0,28,82.0
788,D4,166.0,1.0,28,82.0
789,G2,166.0,2.0,23,82.0
790,D3,166.0,2.0,23,82.0
791,D6,167.0,0.75,33,82.0
792,D4,167.75,0.25,48,82.0
793,G4,168.0,1.0,56,82.0
794,G2,168.0,2.0,22,82.0
795,D3,168.0,2.0,22,82.0
796,F4,168.5,0.5,52,82.0
797,G4,169.0,0.25,56,82.0
798,C4,169.0,0.5,47,82.0
799,E-4,169.0,0.5,47,82.0
800,A4,169.25,0.25,51,82.0
801,B-4,169.5,0.25,53,82.0
802,B-3,169.5,0.5,36,82.0
803,D4,169.5,0.5,36,82.0
804,C5,169.75,0.25,51,82.0
805,B-4,170.0,0.5,55,82.0
806,E-4,170.0,0.5,55,82.0
807,A4,170.5,0.25,56,82.0
808,F4,170.5,0.5,44,82.0
809,B-4,170.75,0.25,51,82.0
810,G4,171.0,0.5,51,82.0
811,B-3,171.0,0.5,51,82.0
812,D4,171.0,0.5,51,82.0
813,A4,171.5,0.5,48,82.0
814,C4,171.5,0.5,48,82.0
815,E-4,171.5,0.5,48,82.0
816,G3,172.0,0.5,40,82.0
817,F4,172.0,0.5,54,82.0
818,B-4,172.0,0.5,54,82.0
819,A3,172.5,0.5,39,82.0
820,A4,172.5,0.5,50,82.0
821,C5,172.5,0.5,50,82.0
822,A4,173.0,1.0,54,82.0
823,C5,173.0,1.0,54,82.0
824,B-4,174.0,1.0,46,82.0
825,D5,174.0,1.0,46,82.0
826,D4,174.0,0.5,37,82.0
827,B-3,174.0,0.5,37,82.0
828,F3,174.5,0.5,33,82.0
829,C4,174.5,0.5,33,82.0
830,F3,175.0,1.0,37,82.0
831,C4,175.0,1.0,37,82.0
832,F4,175.5,0.5,52,82.0
833,B-4,176.0,1.0,58,82.0
834,B-2,176.0,1.0,32,82.0
835,F3,176.0,1.0,32,82.0
836,A4,176.5,0.5,52,82.0
837,B-4,177.0,0.25,56,82.0
838,E-4,177.0,0.5,47,82.0
839,G4,177.0,0.5,47,82.0
840,C5,177.25,0.25,51,82.0
841,D5,177.5,0.25,53,82.0
842,D4,177.5,0.5,37,82.0
843,F4,177.5,0.5,37,82.0
844,E-5,177.75,0.25,51,82.0
845,B-3,178.0,0.5,50,82.0
846,D5,178.0,0.5,50,82.0
847,G4,178.0,0.5,50,82.0
848,C5,178.5,0.25,56,82.0
849,E-4,178.5,0.5,42,82.0
850,C4,178.5,0.5,42,82.0
851,A4,178.5,0.5,42,82.0
852,D5,178.75,0.25,51,82.0
853,B-4,179.0,0.5,51,82.0
854,D4,179.0,0.5,51,82.0
855,F4,179.0,0.5,51,82.0
856,A4,179.5,0.5,47,82.0
857,C5,179.5,0.5,47,82.0
858,C4,179.5,0.5,47,82.0
859,E-4,179.5,0.5,47,82.0
860,F4,180.0,0.5,54,82.0
861,D5,180.0,0.5,54,82.0
862,G4,180.5,0.5,55,82.0
863,E5,180.5,0.5,55,82.0
864,G4,181.0,1.0,58,82.0
865,E5,181.0,1.0,58,82.0
866,F#4,182.0,1.0,48,82.0
867,D5,182.0,1.0,48,82.0
868,F#5,182.0,1.0,48,82.0
869,D4,182.0,0.5,37,82.0
870,B-3,182.0,0.5,37,82.0
871,A3,182.5,0.5,36,82.0
872,C#4,182.5,0.5,36,82.0
873,D5,183.0,1.0,67,82.0
874,A3,183.0,1.0,40,82.0
875,C#4,183.0,1.0,40,82.0
876,C5,183.5,0.5,63,82.0
877,G5,184.0,1.0,69,82.0
878,C5,184.0,0.5,63,82.0
879,D3,184.0,1.0,35,82.0
880,A3,184.0,1.0,35,82.0
881,B-4,184.5,0.5,62,82.0
882,F5,185.0,0.25,64,82.0
883,A4,185.0,0.5,56,82.0
884,G5,185.25,0.25,57,82.0
885,F5,185.5,0.25,63,82.0
886,F4,185.5,0.5,42,82.0
887,E-5,185.75,0.25,61,82.0
888,D5,186.0,0.5,65,82.0
889,B-4,186.0,0.5,65,82.0
890,D5,186.5,0.5,54,82.0
891,A4,186.5,0.5,54,82.0
892,B-4,187.0,0.5,62,82.0
893,G4,187.0,0.5,62,82.0
894,F4,187.5,0.5,58,82.0
895,C5,187.5,0.5,58,82.0
896,B-4,188.0,0.5,62,82.0
897,D5,188.0,0.5,62,82.0
898,B-4,188.5,1.0,58,82.0
899,D5,188.5,1.0,58,82.0
900,B-4,189.5,0.5,58,82.0
901,D5,189.5,0.5,58,82.0
902,B-3,190.0,0.5,53,82.0
903,G4,190.0,1.0,62,82.0
904,B-4,190.0,1.0,62,82.0
905,G5,190.0,1.0,62,82.0
906,A3,190.5,0.5,53,82.0
907,C5,191.0,1.0,58,82.0
908,G3,191.0,0.5,49,82.0
909,F4,191.0,0.25,54,82.0
910,F5,191.0,0.25,54,82.0
911,G4,191.25,0.25,49,82.0
912,G5,191.25,0.25,49,82.0
913,F3,191.5,0.5,46,82.0
914,F4,191.5,0.25,51,82.0
915,F5,191.5,0.25,51,82.0
916,E-4,191.75,0.25,48,82.0
917,E-5,191.75,0.25,48,82.0
918,E-3,192.0,1.0,53,82.0
919,D4,192.0,0.5,54,82.0
920,B-4,192.0,0.5,54,82.0
921,D5,192.0,0.5,54,82.0
922,D4,192.5,0.5,49,82.0
923,G4,192.5,0.5,49,82.0
924,D5,192.5,0.5,49,82.0
925,A2,193.0,1.0,41,82.0
926,G4,193.0,0.5,54,82.0
927,B-4,193.0,0.5,54,82.0
928,F4,193.5,0.25,53,82.0
929,C5,193.5,0.5,53,82.0
930,E-4,193.75,0.25,42,82.0
931,B-2,194.0,1.0,49,82.0
932,D4,194.0,0.5,54,82.0
933,D5,194.0,0.5,54,82.0
934,D4,194.5,0.5,50,82.0
935,G4,194.5,0.5,50,82.0
936,E-3,195.0,0.5,46,82.0
937,C4,195.0,0.5,50,82.0
938,E-4,195.0,0.5,50,82.0
939,A4,195.0,0.5,50,82.0
940,A2,195.5,0.5,41,82.0
941,D4,195.5,0.5,48,82.0
942,G4,195.5,0.5,48,82.0
943,B-4,195.5,0.5,48,82.0
944,B-2,196.0,1.0,49,82.0
945,C4,196.0,0.5,53,82.0
946,E-4,196.0,0.5,53,82.0
947,A4,196.0,0.5,53,82.0
948,B-3,196.5,0.5,48,82.0
949,G4,196.5,0.5,48,82.0
950,G4,197.0,0.062,46,82.0
951,C4,197.0,1.0,30,82.0
952,C3,197.0,0.5,48,82.0
953,F#4,197.062,0.062,40,82.0
954,G4,197.125,0.062,47,82.0
955,F#4,197.188,0.062,42,82.0
956,E4,197.25,0.25,44,82.0
957,F#4,197.5,0.25,55,82.0
958,B-2,197.5,0.5,42,82.0
959,G4,197.75,0.25,49,82.0
960,C3,198.0,0.5,49,82.0
961,B-3,198.0,1.0,50,82.0
962,G4,198.0,1.0,50,82.0
963,E-3,198.5,0.5,38,82.0
964,D4,199.0,1.0,49,82.0
965,D2,199.0,1.0,46,82.0
966,C4,199.5,0.5,46,82.0
967,G1,200.0,1.0,40,82.0
968,B-3,200.0,1.0,46,82.0
969,G4,200.0,1.0,46,82.0
970,F4,200.5,0.5,45,82.0
971,G4,201.0,0.25,48,82.0
972,C4,201.0,0.5,40,82.0
973,E-4,201.0,0.5,40,82.0
974,A4,201.25,0.25,44,82.0
975,B-4,201.5,0.25,46,82.0
976,B-3,201.5,0.5,31,82.0
977,D4,201.5,0.5,31,82.0
978,C5,201.75,0.25,44,82.0
979,B-4,202.0,0.5,48,82.0
980,E-4,202.0,0.5,48,82.0
981,A4,202.5,0.25,48,82.0
982,F4,202.5,0.5,40,82.0
983,B-4,202.75,0.25,44,82.0
984,G4,203.0,0.5,44,82.0
985,B-3,203.0,0.5,44,82.0
986,D4,203.0,0.5,44,82.0
987,A4,203.5,0.5,41,82.0
988,C4,203.5,0.5,41,82.0
989,E-4,203.5,0.5,41,82.0
990,G3,204.0,0.5,35,82.0
991,F4,204.0,0.5,46,82.0
992,B-4,204.0,0.5,46,82.0
993,A3,204.5,0.5,35,82.0
994,A4,204.5,0.5,43,82.0
995,C5,204.5,0.5,43,82.0
996,A4,205.0,0.5,46,82.0
997,C5,205.0,0.5,46,82.0
998,B-4,205.5,0.125,39,82.0
999,D5,205.5,0.125,39,82.0
1000,A4,205.625,0.125,34,82.0
1001,C5,205.625,0.125,34,82.0
1002,G4,205.75,0.125,37,82.0
1003,B-4,205.75,0.125,37,82.0
1004,A4,205.875,0.125,33,82.0
1005,C5,205.875,0.125,33,82.0
1006,B-4,206.0,1.0,37,82.0
1007,D5,206.0,1.0,37,82.0
1008,D4,206.0,0.5,32,82.0
1009,B-3,206.0,0.5,32,82.0
1010,F3,206.5,0.5,28,82.0
1011,C4,206.5,0.5,28,82.0
1012,F4,207.0,1.0,45,82.0
1013,F3,207.0,1.0,32,82.0
1014,C4,207.0,1.0,32,82.0
1015,E-4,207.5,0.5,45,82.0
1016,D4,208.0,1.0,46,82.0
1017,B-4,208.0,1.0,46,82.0
1018,B-2,208.0,1.0,26,82.0
1019,F3,208.0,1.0,26,82.0
1020,A4,208.5,0.5,45,82.0
1021,B-4,209.0,0.25,48,82.0
1022,E-4,209.0,0.5,40,82.0
1023,G4,209.0,0.5,40,82.0
1024,C5,209.25,0.25,44,82.0
1025,D5,209.5,0.25,46,82.0
1026,D4,209.5,0.5,32,82.0
1027,F4,209.5,0.5,32,82.0
1028,E-5,209.75,0.25,44,82.0
1029,B-3,210.0,0.5,43,82.0
1030,D5,210.0,0.5,43,82.0
1031,G4,210.0,0.5,43,82.0
1032,C5,210.5,0.25,48,82.0
1033,E-4,210.5,0.5,37,82.0
1034,C4,210.5,0.5,37,82.0
1035,A4,210.5,0.5,37,82.0
1036,D5,210.75,0.25,44,82.0
1037,B-4,211.0,0.5,44,82.0
1038,D4,211.0,0.5,44,82.0
1039,F4,211.0,0.5,44,82.0
1040,A4,211.5,0.5,40,82.0
1041,C5,211.5,0.5,40,82.0
1042,C4,211.5,0.5,40,82.0
1043,E-4,211.5,0.5,40,82.0
1044,F4,212.0,0.5,46,82.0
1045,D5,212.0,0.5,46,82.0
1046,G4,212.5,0.5,48,82.0
1047,E5,212.5,0.5,48,82.0
1048,C#5,213.0,0.5,50,82.0
1049,E5,213.0,0.5,50,82.0
1050,D5,213.5,0.125,40,82.0
1051,F#5,213.5,0.125,40,82.0
1052,C#5,213.625,0.125,37,82.0
1053,E5,213.625,0.125,37,82.0
1054,B4,213.75,0.125,40,82.0
1055,D5,213.75,0.125,40,82.0
1056,C#5,213.875,0.125,37,82.0
1057,E5,213.875,0.125,37,82.0
1058,F#4,214.0,1.0,37,82.0
1059,D5,214.0,1.0,37,82.0
1060,F#5,214.0,1.0,37,82.0
1061,D4,214.0,0.5,32,82.0
1062,B-3,214.0,0.5,32,82.0
1063,A3,214.5,0.5,31,82.0
1064,C#4,214.5,0.5,31,82.0
1065,D5,215.0,1.0,60,82.0
1066,G4,215.0,1.0,36,82.0
1067,A3,215.0,1.0,36,82.0
1068,C#4,215.0,1.0,36,82.0
1069,C5,215.5,0.5,55,82.0
1070,B-5,216.0,0.25,60,82.0
1071,C5,216.0,0.5,55,82.0
1072,D3,216.0,1.0,27,82.0
1073,A3,216.0,1.0,27,82.0
1074,A5,216.25,0.25,57,82.0
1075,G5,216.5,0.5,56,82.0
1076,B-4,216.5,0.5,56,82.0
1077,F5,217.0,0.25,56,82.0
1078,A4,217.0,0.5,48,82.0
1079,G5,217.25,0.25,49,82.0
1080,F5,217.5,0.25,55,82.0
1081,F4,217.5,0.5,37,82.0
1082,E-5,217.75,0.25,52,82.0
1083,D5,218.0,0.5,56,82.0
1084,B-4,218.0,0.5,56,82.0
1085,D5,218.5,0.5,46,82.0
1086,A4,218.5,0.5,46,82.0
1087,B-4,219.0,0.5,54,82.0
1088,G4,219.0,0.5,54,82.0
1089,F4,219.5,0.5,50,82.0
1090,C5,219.5,0.5,50,82.0
1091,B-4,220.0,0.25,53,82.0
1092,D5,220.0,0.25,53,82.0
1093,C5,220.25,0.25,42,82.0
1094,E-5,220.25,0.25,42,82.0
1095,B-4,220.5,1.0,48,82.0
1096,D5,220.5,1.0,48,82.0
1097,B-4,221.5,0.5,50,82.0
1098,D5,221.5,0.5,50,82.0
1099,B-3,222.0,0.5,46,82.0
1100,G4,222.0,1.0,53,82.0
1101,D5,222.0,1.0,53,82.0
1102,G5,222.0,1.0,53,82.0
1103,A3,222.5,0.5,46,82.0
1104,C5,223.0,1.0,50,82.0
1105,G3,223.0,0.5,41,82.0
1106,F4,223.0,0.25,46,82.0
1107,F5,223.0,0.25,46,82.0
1108,G5,223.25,0.25,44,82.0
1109,F5,223.5,0.25,50,82.0
1110,F3,223.5,0.5,40,82.0
1111,B4,223.75,0.25,42,82.0
1112,F4,224.0,0.5,48,82.0
1113,B4,224.0,0.5,48,82.0
1114,B-3,224.0,1.0,46,82.0
1115,E3,224.0,1.0,46,82.0
1116,G4,224.5,0.5,43,82.0
1117,C5,224.5,0.5,43,82.0
1118,A4,225.0,0.5,46,82.0
1119,D5,225.0,0.5,46,82.0
1120,E-3,225.0,1.0,36,82.0
1121,A3,225.0,1.0,36,82.0
1122,D4,225.5,0.5,44,82.0
1123,G4,225.5,0.5,44,82.0
1124,E-4,226.0,1.0,42,82.0
1125,A4,226.0,0.5,50,82.0
1126,D3,226.0,0.5,39,82.0
1127,G#3,226.0,0.5,39,82.0
1128,B-4,226.5,0.5,47,82.0
1129,E-3,226.5,0.5,36,82.0
1130,G3,226.5,0.5,36,82.0
1131,D4,227.0,1.0,42,82.0
1132,A4,227.0,0.5,50,82.0
1133,D3,227.0,0.5,36,82.0
1134,F#3,227.0,0.5,36,82.0
1135,G4,227.5,0.5,46,82.0
1136,B-2,227.5,0.5,33,82.0
1137,G3,227.5,0.5,33,82.0
1138,C4,228.0,0.5,47,82.0
1139,E-4,228.0,0.5,47,82.0
1140,A4,228.0,0.5,47,82.0
1141,C3,228.0,1.0,39,82.0
1142,G3,228.0,1.0,39,82.0
1143,B-3,228.5,0.5,42,82.0
1144,G4,228.5,0.5,42,82.0
1145,G4,229.0,0.062,40,82.0
1146,C4,229.0,1.5,32,82.0
1147,B-2,229.0,1.0,37,82.0
1148,G3,229.0,1.0,37,82.0
1149,F#4,229.062,0.062,34,82.0
1150,G4,229.125,0.062,41,82.0
1151,F#4,229.188,0.062,36,82.0
1152,E4,229.25,0.25,37,82.0
1153,F#4,229.5,0.25,47,82.0
1154,G4,229.75,0.25,42,82.0
1155,G4,230.0,1.0,47,82.0
1156,C3,230.0,0.5,42,82.0
1157,A3,230.5,0.5,31,82.0
1158,E-3,230.5,0.5,33,82.0
1159,G5,231.0,0.5,30,82.0
1160,B-3,231.0,0.75,30,82.0
1161,D2,231.0,1.0,39,82.0
1162,D4,231.75,0.25,41,82.0
1163,G1,232.0,1.0,35,82.0
1164,B3,232.0,0.5,42,82.0
1165,G4,232.0,0.5,42,82.0
1166,G4,232.5,0.5,39,82.0
1167,D6,233.0,1.0,42,82.0
1168,B3,233.0,0.25,41,82.0
1169,G4,233.0,0.25,41,82.0
1170,A4,233.25,0.25,36,82.0
1171,B4,233.5,0.25,40,82.0
1172,C5,233.75,177/1000,36,82.0
1173,C5,233.938,0.062,39,82.0
1174,C5,234.0,0.062,39,82.0
1175,D4,234.0,0.5,42,82.0
1176,B4,234.0,0.5,42,82.0
1177,G2,234.0,2.0,28,82.0
1178,D3,234.0,2.0,28,82.0
1179,A4,234.5,0.25,35,82.0
1180,B4,234.75,0.25,34,82.0
1181,D6,235.0,1.0,40,82.0
1182,B3,235.0,0.75,37,82.0
1183,G4,235.0,0.75,37,82.0
1184,E4,235.75,0.25,42,82.0
1185,C4,236.0,0.5,42,82.0
1186,A4,236.0,0.5,42,82.0
1187,G2,236.0,2.0,30,82.0
1188,D3,236.0,2.0,30,82.0
1189,A4,236.5,0.5,40,82.0
1190,D6,237.0,1.0,42,82.0
1191,C4,237.0,0.25,41,82.0
1192,A4,237.0,0.25,41,82.0
1193,B4,237.25,0.25,35,82.0
1194,C5,237.5,0.25,40,82.0
1195,D5,237.75,177/1000,36,82.0
1196,D5,237.938,0.062,39,82.0
1197,D5,238.0,0.062,39,82.0
1198,E4,238.0,0.5,42,82.0
1199,C5,238.0,0.5,42,82.0
1200,G2,238.0,2.0,28,82.0
1201,D3,238.0,2.0,28,82.0
1202,B4,238.5,0.25,36,82.0
1203,C5,238.75,0.25,34,82.0
1204,D6,239.0,1.0,40,82.0
1205,C4,239.0,0.75,37,82.0
1206,A4,239.0,0.75,37,82.0
1207,G4,239.75,0.25,42,82.0
1208,C4,240.0,0.5,42,82.0
1209,F#4,240.0,0.5,42,82.0
1210,G2,240.0,2.0,30,82.0
1211,D3,240.0,2.0,30,82.0
1212,F#4,240.5,0.438,43,82.0
1213,G4,240.938,0.062,37,82.0
1214,D6,241.0,1.0,42,82.0
1215,C4,241.0,0.25,41,82.0
1216,F#4,241.0,0.25,41,82.0
1217,D4,241.25,0.25,36,82.0
1218,E4,241.5,0.25,40,82.0
1219,F#4,241.75,0.25,36,82.0
1220,B3,242.0,1.0,42,82.0
1221,G4,242.0,1.0,42,82.0
1222,G2,242.0,2.0,28,82.0
1223,D3,242.0,2.0,28,82.0
1224,D6,243.0,1.0,42,82.0
1225,D4,243.75,0.25,44,82.0
1226,G4,244.0,0.5,44,82.0
1227,B3,244.0,0.5,44,82.0
1228,G2,244.0,2.0,28,82.0
1229,D3,244.0,2.0,28,82.0
1230,G4,244.5,0.5,45,82.0
1231,D6,245.0,1.0,44,82.0
1232,B3,245.0,0.25,44,82.0
1233,G4,245.0,0.25,44,82.0
1234,A4,245.25,0.25,38,82.0
1235,B4,245.5,0.25,43,82.0
1236,C5,245.75,177/1000,38,82.0
1237,C5,245.938,0.062,41,82.0
1238,C5,246.0,0.062,41,82.0
1239,D4,246.0,0.5,44,82.0
1240,B4,246.0,0.5,44,82.0
1241,G2,246.0,2.0,30,82.0
1242,D3,246.0,2.0,30,82.0
1243,A4,246.5,0.25,38,82.0
1244,B4,246.75,0.25,36,82.0
1245,D6,247.0,1.0,42,82.0
1246,G4,247.0,0.75,39,82.0
1247,B3,247.0,0.75,39,82.0
1248,E4,247.75,0.25,44,82.0
1249,A4,248.0,0.5,44,82.0
1250,C4,248.0,0.5,44,82.0
1251,G2,248.0,2.0,31,82.0
1252,D3,248.0,2.0,31,82.0
1253,A4,248.5,0.5,42,82.0
1254,D6,249.0,1.0,44,82.0
1255,C4,249.0,0.25,44,82.0
1256,A4,249.0,0.25,44,82.0
1257,B4,249.25,0.25,38,82.0
1258,C5,249.5,0.25,43,82.0
1259,D5,249.75,177/1000,38,82.0
1260,D5,249.938,0.062,41,82.0
1261,D5,250.0,0.062,41,82.0
1262,C5,250.0,0.5,44,82.0
1263,E4,250.0,0.5,44,82.0
1264,D3,250.0,2.0,30,82.0
1265,G2,250.0,2.0,30,82.0
1266,B4,250.5,0.25,38,82.0
1267,C5,250.75,0.25,36,82.0
1268,D6,251.0,1.0,42,82.0
1269,C4,251.0,0.75,39,82.0
1270,A4,251.0,0.75,39,82.0
1271,G4,251.75,0.25,44,82.0
1272,C4,252.0,0.5,44,82.0
1273,F#4,252.0,0.5,44,82.0
1274,D3,252.0,2.0,31,82.0
1275,G2,252.0,2.0,31,82.0
1276,F#4,252.5,0.438,45,82.0
1277,G4,252.938,0.062,40,82.0
1278,D6,253.0,1.0,44,82.0
1279,C4,253.0,0.25,44,82.0
1280,F#4,253.0,0.25,44,82.0
1281,D4,253.25,0.25,38,82.0
1282,E4,253.5,0.25,43,82.0
1283,F#4,253.75,0.25,38,82.0
1284,G4,254.0,1.0,44,82.0
1285,B3,254.0,1.0,44,82.0
1286,G2,254.0,2.0,30,82.0
1287,D3,254.0,2.0,30,82.0
1288,D6,255.0,1.0,44,82.0
1289,D4,255.75,0.25,46,82.0
1290,G4,256.0,0.5,47,82.0
1291,B3,256.0,0.5,47,82.0
1292,G2,256.0,2.0,30,82.0
1293,D3,256.0,2.0,30,82.0
1294,G4,256.5,0.5,44,82.0
1295,F5,257.0,1.0,45,82.0
1296,B3,257.0,0.25,46,82.0
1297,G4,257.0,0.25,46,82.0
1298,A4,257.25,0.25,40,82.0
1299,B4,257.5,0.25,45,82.0
1300,C5,257.75,177/1000,35,82.0
1301,C5,257.938,0.062,44,82.0
1302,C5,258.0,0.062,44,82.0
1303,B4,258.0,0.5,47,82.0
1304,D4,258.0,0.5,47,82.0
1305,G2,258.0,2.0,31,82.0
1306,D3,258.0,2.0,31,82.0
1307,A4,258.5,0.25,41,82.0
1308,B4,258.75,0.25,37,82.0
1309,F5,259.0,1.0,42,82.0
1310,B3,259.0,0.75,41,82.0
1311,G4,259.0,0.75,41,82.0
1312,E4,259.75,0.25,47,82.0
1313,A4,260.0,0.5,47,82.0
1314,C4,260.0,0.5,47,82.0
1315,G2,260.0,2.0,33,82.0
1316,D3,260.0,2.0,33,82.0
1317,A4,260.5,0.5,45,82.0
1318,E5,261.0,1.0,46,82.0
1319,C4,261.0,0.25,48,82.0
1320,A4,261.0,0.25,48,82.0
1321,B4,261.25,0.25,42,82.0
1322,C5,261.5,0.25,48,82.0
1323,D5,261.75,177/1000,39,82.0
1324,D5,261.938,0.062,47,82.0
1325,D5,262.0,0.062,47,82.0
1326,C5,262.0,0.5,50,82.0
1327,E4,262.0,0.5,50,82.0
1328,E3,262.0,2.0,31,82.0
1329,G2,262.0,2.0,31,82.0
1330,B4,262.5,0.25,45,82.0
1331,C5,262.75,0.25,41,82.0
1332,E5,263.0,1.0,47,82.0
1333,C4,263.0,0.75,46,82.0
1334,A4,263.0,0.75,46,82.0
1335,G4,263.75,0.25,56,82.0
1336,C5,264.0,0.5,57,82.0
1337,E4,264.0,0.5,57,82.0
1338,G2,264.0,2.0,35,82.0
1339,E3,264.0,2.0,35,82.0
1340,C5,264.5,0.5,55,82.0
1341,A5,265.0,1.0,55,82.0
1342,E4,265.0,0.25,58,82.0
1343,C5,265.0,0.25,58,82.0
1344,D5,265.25,0.25,51,82.0
1345,E5,265.5,0.25,58,82.0
1346,F#5,265.75,177/1000,52,82.0
1347,F#5,265.938,0.062,56,82.0
1348,F#5,266.0,0.062,56,82.0
1349,E5,266.0,0.5,60,82.0
1350,G4,266.0,0.5,60,82.0
1351,D3,266.0,2.0,38,82.0
1352,G2,266.0,2.0,38,82.0
1353,D5,266.5,0.25,54,82.0
1354,E5,266.75,0.25,50,82.0
1355,A5,267.0,1.0,55,82.0
1356,F#4,267.0,0.75,56,82.0
1357,C5,267.0,0.75,56,82.0
1358,D5,267.75,0.25,67,82.0
1359,G5,268.0,0.5,68,82.0
1360,B4,268.0,0.5,68,82.0
1361,G2,268.0,2.0,42,82.0
1362,D3,268.0,2.0,42,82.0
1363,G5,268.5,0.5,68,82.0
1364,D6,269.0,1.0,72,82.0
1365,B4,269.0,0.25,70,82.0
1366,G5,269.0,0.25,70,82.0
1367,A5,269.25,0.25,62,82.0
1368,B5,269.5,0.25,70,82.0
1369,C6,269.75,177/1000,57,82.0
1370,C6,269.938,0.062,67,82.0
1371,C6,270.0,0.062,67,82.0
1372,B5,270.0,0.5,72,82.0
1373,D5,270.0,0.5,72,82.0
1374,D3,270.0,2.0,48,82.0
1375,G2,270.0,2.0,48,82.0
1376,A5,270.5,0.25,73,82.0
1377,B5,270.75,0.25,69,82.0
1378,G6,271.0,1.0,81,82.0
1379,B4,271.0,0.75,76,82.0
1380,G5,271.0,0.75,76,82.0
1381,D4,271.75,0.25,64,82.0
1382,G4,272.0,0.5,63,82.0
1383,B3,272.0,0.5,63,82.0
1384,G2,272.0,2.0,50,82.0
1385,D3,272.0,2.0,50,82.0
1386,G4,272.5,0.5,59,82.0
1387,F5,273.0,1.0,59,82.0
1388,B3,273.0,0.25,62,82.0
1389,G4,273.0,0.25,62,82.0
1390,A4,273.25,0.25,54,82.0
1391,B4,273.5,0.25,60,82.0
1392,C5,273.75,177/1000,49,82.0
1393,C5,273.938,0.062,59,82.0
1394,C5,274.0,0.062,59,82.0
1395,B4,274.0,0.5,63,82.0
1396,D4,274.0,0.5,63,82.0
1397,G2,274.0,2.0,42,82.0
1398,D3,274.0,2.0,42,82.0
1399,A4,274.5,0.25,55,82.0
1400,B4,274.75,0.25,51,82.0
1401,F5,275.0,1.0,56,82.0
1402,B3,275.0,0.75,56,82.0
1403,G4,275.0,0.75,56,82.0
1404,E4,275.75,0.25,64,82.0
1405,A4,276.0,0.5,63,82.0
1406,C4,276.0,0.5,63,82.0
1407,G2,276.0,2.0,44,82.0
1408,D3,276.0,2.0,44,82.0
1409,A4,276.5,0.5,60,82.0
1410,E5,277.0,1.0,61,82.0
1411,C4,277.0,0.25,62,82.0
1412,A4,277.0,0.25,62,82.0
1413,B4,277.25,0.25,56,82.0
1414,C5,277.5,0.25,60,82.0
1415,D5,277.75,177/1000,53,82.0
1416,D5,277.938,0.062,64,82.0
1417,D5,278.0,0.062,64,82.0
1418,C5,278.0,0.5,66,82.0
1419,E4,278.0,0.5,66,82.0
1420,E3,278.0,2.0,42,82.0
1421,G2,278.0,2.0,42,82.0
1422,B4,278.5,0.25,60,82.0
1423,C5,278.75,0.25,55,82.0
1424,E5,279.0,1.0,64,82.0
1425,C4,279.0,0.75,62,82.0
1426,A4,279.0,0.75,62,82.0
1427,G4,279.75,0.25,65,82.0
1428,C5,280.0,0.5,65,82.0
1429,E4,280.0,0.5,65,82.0
1430,G2,280.0,2.0,48,82.0
1431,E3,280.0,2.0,48,82.0
1432,C5,280.5,0.5,63,82.0
1433,A5,281.0,1.0,65,82.0
1434,E4,281.0,0.25,66,82.0
1435,C5,281.0,0.25,66,82.0
1436,D5,281.25,0.25,58,82.0
1437,E5,281.5,0.25,67,82.0
1438,F#5,281.75,177/1000,59,82.0
1439,F#5,281.938,0.062,65,82.0
1440,F#5,282.0,0.062,65,82.0
1441,E5,282.0,0.5,69,82.0
1442,G4,282.0,0.5,69,82.0
1443,D3,282.0,2.0,44,82.0
1444,G2,282.0,2.0,44,82.0
1445,D5,282.5,0.25,62,82.0
1446,E5,282.75,0.25,57,82.0
1447,A5,283.0,1.0,65,82.0
1448,F#4,283.0,0.75,64,82.0
1449,C5,283.0,0.75,64,82.0
1450,D5,283.75,0.25,68,82.0
1451,G5,284.0,0.5,69,82.0
1452,B4,284.0,0.5,69,82.0
1453,G2,284.0,2.0,48,82.0
1454,D3,284.0,2.0,48,82.0
1455,G5,284.5,0.5,70,82.0
1456,D6,285.0,1.0,70,82.0
1457,B4,285.0,0.25,72,82.0
1458,G5,285.0,0.25,72,82.0
1459,A5,285.25,0.25,63,82.0
1460,B5,285.5,0.25,70,82.0
1461,C6,285.75,177/1000,63,82.0
1462,C6,285.938,0.062,68,82.0
1463,C6,286.0,0.062,68,82.0
1464,B5,286.0,0.5,74,82.0
1465,D5,286.0,0.5,74,82.0
1466,D3,286.0,2.0,50,82.0
1467,G2,286.0,2.0,50,82.0
1468,A5,286.5,0.25,75,82.0
1469,B5,286.75,0.25,71,82.0
1470,B4,287.0,1.0,79,82.0
1471,G5,287.0,1.0,79,82.0
1472,G6,287.0,1.0,79,82.0
1473,A3,288.0,0.25,66,82.0
1474,D4,288.0,0.25,66,82.0
1475,G2,288.0,2.0,52,82.0
1476,D3,288.0,2.0,52,82.0
1477,B3,288.25,0.25,60,82.0
1478,C4,288.5,0.25,59,82.0
1479,D4,288.75,0.25,54,82.0
1480,D5,289.0,1.0,68,82.0
1481,E4,290.0,0.5,64,82.0
1482,C5,290.0,0.5,64,82.0
1483,G2,290.0,2.0,43,82.0
1484,D3,290.0,2.0,43,82.0
1485,D4,290.5,0.25,57,82.0
1486,B4,290.5,0.25,57,82.0
1487,E4,290.75,0.25,50,82.0
1488,C5,290.75,0.25,50,82.0
1489,C4,291.0,1.0,57,82.0
1490,A4,291.0,1.0,57,82.0
1491,G2,292.0,0.5,47,82.0
1492,A3,292.0,0.25,66,82.0
1493,D4,292.0,0.25,66,82.0
1494,B3,292.25,0.25,60,82.0
1495,C4,292.5,0.25,59,82.0
1496,G2,292.5,0.25,40,82.0
1497,D4,292.75,0.25,56,82.0
1498,D3,292.75,0.25,40,82.0
1499,D5,293.0,1.0,68,82.0
1500,G2,293.0,0.5,47,82.0
1501,D2,293.5,0.5,41,82.0
1502,D4,294.0,0.5,64,82.0
1503,B4,294.0,0.5,64,82.0
1504,G2,294.0,2.0,43,82.0
1505,D3,294.0,2.0,43,82.0
1506,C4,294.5,0.25,57,82.0
1507,A4,294.5,0.25,57,82.0
1508,D4,294.75,0.25,50,82.0
1509,B4,294.75,0.25,50,82.0
1510,B3,295.0,1.0,57,82.0
1511,G4,295.0,1.0,57,82.0
1512,G2,296.0,0.5,47,82.0
1513,A3,296.0,0.25,54,82.0
1514,D4,296.0,0.25,54,82.0
1515,B3,296.25,0.25,47,82.0
1516,C4,296.5,0.25,48,82.0
1517,G2,296.5,0.25,40,82.0
1518,D4,296.75,0.25,46,82.0
1519,D3,296.75,0.25,40,82.0
1520,D5,297.0,1.0,55,82.0
1521,G2,297.0,0.5,44,82.0
1522,G3,297.0,0.5,44,82.0
1523,D2,297.5,0.5,39,82.0
1524,E4,298.0,0.5,52,82.0
1525,C5,298.0,0.5,52,82.0
1526,G2,298.0,2.0,35,82.0
1527,D3,298.0,2.0,35,82.0
1528,D4,298.5,0.25,47,82.0
1529,B4,298.5,0.25,47,82.0
1530,E4,298.75,0.25,41,82.0
1531,C5,298.75,0.25,41,82.0
1532,C4,299.0,1.0,47,82.0
1533,A4,299.0,1.0,47,82.0
1534,G2,300.0,0.5,38,82.0
1535,A3,300.0,0.25,52,82.0
1536,D4,300.0,0.25,52,82.0
1537,B3,300.25,0.25,43,82.0
1538,C4,300.5,0.25,45,82.0
1539,G2,300.5,0.25,33,82.0
1540,D4,300.75,0.25,42,82.0
1541,D3,300.75,0.25,33,82.0
1542,D5,301.0,1.0,52,82.0
1543,G2,301.0,0.5,38,82.0
1544,D2,301.5,0.5,33,82.0
1545,D4,302.0,0.5,50,82.0
1546,B4,302.0,0.5,50,82.0
1547,G2,302.0,2.0,33,82.0
1548,D3,302.0,2.0,33,82.0
1549,C4,302.5,0.25,44,82.0
1550,A4,302.5,0.25,44,82.0
1551,D4,302.75,0.25,38,82.0
1552,B4,302.75,0.25,38,82.0
1553,B3,303.0,0.5,44,82.0
1554,G4,303.0,0.5,44,82.0
1555,D4,303.5,0.5,37,82.0
1556,B4,303.5,0.5,37,82.0
1557,G2,304.0,0.5,36,82.0
1558,C4,304.0,0.5,42,82.0
1559,A4,304.0,0.5,42,82.0
1560,G2,304.5,0.25,31,82.0
1561,B3,304.5,0.5,40,82.0
1562,G4,304.5,0.5,40,82.0
1563,D3,304.75,0.25,31,82.0
1564,G2,305.0,0.5,31,82.0
1565,G5,305.0,1.0,45,82.0
1566,B3,305.0,1.0,45,82.0
1567,G4,305.0,1.0,45,82.0
1568,D2,305.5,0.5,29,82.0
1569,B3,306.0,1.0,37,82.0
1570,D4,306.0,1.0,37,82.0
1571,G2,306.0,2.0,33,82.0
1572,D3,306.0,2.0,33,82.0
1573,G5,307.0,1.0,48,82.0
1574,B3,308.0,1.0,36,82.0
1575,D4,308.0,1.0,36,82.0
1576,G2,308.0,2.0,26,82.0
1577,D3,308.0,2.0,26,82.0
1578,G5,309.0,1.0,48,82.0
1579,G5,310.0,1.0,48,82.0
1580,G2,310.0,2.0,26,82.0
1581,D3,310.0,2.0,26,82.0
1582,F#5,311.0,73/250,45,82.0
1583,E5,311.25,73/250,41,82.0
1584,D5,311.5,73/250,40,82.0
1585,C5,311.75,0.25,37,82.0
1586,B4,312.0,1.0,48,82.0
1587,C5,312.0,21/500,37,82.0
1588,C4,313.0,1.0,36,82.0
1589,F#4,313.0,1.0,36,82.0
1590,A4,313.0,1.0,36,82.0
1591,B3,313.0,1.0,36,82.0
1592,D4,313.0,1.0,36,82.0
1593,G2,313.0,1.0,26,82.0
1594,D3,313.0,1.0,26,82.0
1595,G4,314.0,1.0,36,82.0
1596,B3,314.0,1.0,36,82.0
1597,D4,314.0,1.0,36,82.0
1598,D6,315.0,1.0,43,82.0
1599,D2,316.0,1.0,24,82.0
1600,G4,316.0,1.0,34,82.0
1601,B3,316.0,1.0,34,82.0
1602,D4,316.0,1.0,34,82.0
1603,D6,317.0,1.0,39,82.0
1604,G2,317.0,2.0,28,82.0
1605,D3,317.0,2.0,28,82.0
1606,G4,318.0,1.0,34,82.0
1607,B3,318.0,1.0,34,82.0
1608,D4,318.0,1.0,34,82.0
1609,D6,319.0,1.0,39,82.0
1610,G2,319.0,2.0,24,82.0
1611,D3,319.0,2.0,24,82.0
1612,B3,320.0,1.0,36,82.0
1613,D4,320.0,1.0,36,82.0
1614,D6,321.0,0.75,42,82.0
1615,G2,321.0,2.0,26,82.0
1616,D3,321.0,2.0,26,82.0
1617,D4,321.75,0.25,46,82.0
1618,B3,322.0,0.5,47,82.0
1619,G4,322.0,0.5,47,82.0
1620,G4,322.5,0.5,44,82.0
1621,D6,323.0,1.0,47,82.0
1622,B3,323.0,0.25,46,82.0
1623,G4,323.0,0.25,46,82.0
1624,G2,323.0,2.0,24,82.0
1625,D3,323.0,2.0,24,82.0
1626,A4,323.25,0.25,40,82.0
1627,B4,323.5,0.25,45,82.0
1628,C5,323.75,177/1000,40,82.0
1629,C5,323.938,0.062,44,82.0
1630,C5,324.0,0.062,44,82.0
1631,D4,324.0,0.5,47,82.0
1632,B4,324.0,0.5,47,82.0
1633,A4,324.5,0.25,39,82.0
1634,B4,324.75,0.25,38,82.0
1635,D6,325.0,1.0,45,82.0
1636,B3,325.0,0.75,42,82.0
1637,G4,325.0,0.75,42,82.0
1638,D3,325.0,2.0,31,82.0
1639,G2,325.0,2.0,31,82.0
1640,E4,325.75,0.25,47,82.0
1641,C4,326.0,0.5,47,82.0
1642,A4,326.0,0.5,47,82.0
1643,A4,326.5,0.5,45,82.0
1644,D6,327.0,1.0,47,82.0
1645,C4,327.0,0.25,46,82.0
1646,A4,327.0,0.25,46,82.0
1647,G2,327.0,2.0,33,82.0
1648,D3,327.0,2.0,33,82.0
1649,B4,327.25,0.25,40,82.0
1650,C5,327.5,0.25,45,82.0
1651,D5,327.75,177/1000,40,82.0
1652,D5,327.938,0.062,44,82.0
1653,D5,328.0,0.062,44,82.0
1654,E4,328.0,0.5,47,82.0
1655,C5,328.0,0.5,47,82.0
1656,B4,328.5,0.25,41,82.0
1657,C5,328.75,0.25,38,82.0
1658,D6,329.0,1.0,45,82.0
1659,C4,329.0,0.75,42,82.0
1660,A4,329.0,0.75,42,82.0
1661,G2,329.0,2.0,31,82.0
1662,D3,329.0,2.0,31,82.0
1663,G4,329.75,0.25,47,82.0
1664,A3,330.0,0.5,47,82.0
1665,F#4,330.0,0.5,47,82.0
1666,C4,330.5,0.438,43,82.0
1667,F#4,330.5,0.438,43,82.0
1668,G4,330.938,0.062,42,82.0
1669,D6,331.0,1.0,47,82.0
1670,A3,331.0,0.25,46,82.0
1671,F#4,331.0,0.25,46,82.0
1672,G2,331.0,2.0,33,82.0
1673,D3,331.0,2.0,33,82.0
1674,D4,331.25,0.25,40,82.0
1675,C4,331.5,0.25,43,82.0
1676,E4,331.5,0.25,43,82.0
1677,F#4,331.75,0.25,40,82.0
1678,B3,332.0,1.0,47,82.0
1679,G4,332.0,1.0,47,82.0
1680,D6,333.0,1.0,47,82.0
1681,G2,333.0,2.0,31,82.0
1682,D3,333.0,2.0,31,82.0
1683,D4,333.75,0.25,41,82.0
1684,G4,334.0,0.5,47,82.0
1685,B3,334.0,0.5,47,82.0
1686,G4,334.5,0.5,44,82.0
1687,F5,335.0,1.0,44,82.0
1688,B3,335.0,0.25,46,82.0
1689,G4,335.0,0.25,46,82.0
1690,G2,335.0,2.0,31,82.0
1691,D3,335.0,2.0,31,82.0
1692,A4,335.25,0.25,40,82.0
1693,B4,335.5,0.25,45,82.0
1694,C5,335.75,177/1000,40,82.0
1695,C5,335.938,0.062,44,82.0
1696,C5,336.0,0.062,44,82.0
1697,B4,336.0,0.5,47,82.0
1698,D4,336.0,0.5,47,82.0
1699,A4,336.5,0.25,41,82.0
1700,B4,336.75,0.25,38,82.0
1701,F5,337.0,1.0,42,82.0
1702,B3,337.0,0.75,42,82.0
1703,G4,337.0,0.75,42,82.0
1704,G2,337.0,2.0,31,82.0
1705,D3,337.0,2.0,31,82.0
1706,E4,337.75,0.25,47,82.0
1707,A4,338.0,0.5,47,82.0
1708,C4,338.0,0.5,47,82.0
1709,A4,338.5,0.5,45,82.0
1710,E5,339.0,1.0,46,82.0
1711,C4,339.0,0.25,48,82.0
1712,A4,339.0,0.25,48,82.0
1713,G2,339.0,2.0,33,82.0
1714,D3,339.0,2.0,33,82.0
1715,B4,339.25,0.25,42,82.0
1716,C5,339.5,0.25,48,82.0
1717,D5,339.75,177/1000,43,82.0
1718,D5,339.938,0.062,47,82.0
1719,D5,340.0,0.062,47,82.0
1720,C5,340.0,0.5,50,82.0
1721,E4,340.0,0.5,50,82.0
1722,B4,340.5,0.25,45,82.0
1723,C5,340.75,0.25,41,82.0
1724,E5,341.0,1.0,47,82.0
1725,C4,341.0,0.75,46,82.0
1726,A4,341.0,0.75,46,82.0
1727,E3,341.0,2.0,31,82.0
1728,G2,341.0,2.0,31,82.0
1729,G4,341.75,0.25,50,82.0
1730,C5,342.0,0.5,50,82.0
1731,E4,342.0,0.5,50,82.0
1732,C5,342.5,0.5,49,82.0
1733,A5,343.0,1.0,53,82.0
1734,E4,343.0,0.25,52,82.0
1735,C5,343.0,0.25,52,82.0
1736,G2,343.0,2.0,36,82.0
1737,E3,343.0,2.0,36,82.0
1738,D5,343.25,0.25,45,82.0
1739,E5,343.5,0.25,52,82.0
1740,F#5,343.75,177/1000,46,82.0
1741,F#5,343.938,0.062,50,82.0
1742,F#5,344.0,0.062,50,82.0
1743,E5,344.0,0.5,54,82.0
1744,G4,344.0,0.5,54,82.0
1745,D5,344.5,0.25,48,82.0
1746,E5,344.75,0.25,44,82.0
1747,A5,345.0,1.0,53,82.0
1748,F#4,345.0,0.75,49,82.0
1749,C5,345.0,0.75,49,82.0
1750,D3,345.0,2.0,34,82.0
1751,G2,345.0,2.0,34,82.0
1752,B4,345.75,0.25,53,82.0
1753,G5,346.0,0.5,54,82.0
1754,B4,346.0,0.5,54,82.0
1755,G5,346.5,0.5,54,82.0
1756,D6,347.0,1.0,57,82.0
1757,B4,347.0,0.25,56,82.0
1758,G5,347.0,0.25,56,82.0
1759,G2,347.0,2.0,38,82.0
1760,D3,347.0,2.0,38,82.0
1761,A5,347.25,0.25,49,82.0
1762,B5,347.5,0.25,56,82.0
1763,C6,347.75,177/1000,49,82.0
1764,C6,347.938,0.062,53,82.0
1765,C6,348.0,0.062,53,82.0
1766,B5,348.0,0.5,58,82.0
1767,D5,348.0,0.5,58,82.0
1768,A5,348.5,0.25,58,82.0
1769,B5,348.75,0.25,55,82.0
1770,B4,349.0,1.0,62,82.0
1771,G5,349.0,1.0,62,82.0
1772,G6,349.0,1.0,62,82.0
1773,D3,349.0,2.0,38,82.0
1774,G2,349.0,2.0,38,82.0
1775,A3,350.0,0.25,54,82.0
1776,D4,350.0,0.25,54,82.0
1777,B3,350.25,0.25,49,82.0
1778,C4,350.5,0.25,48,82.0
1779,D4,350.75,0.25,46,82.0
1780,D5,351.0,1.0,55,82.0
1781,G2,351.0,2.0,40,82.0
1782,D3,351.0,2.0,40,82.0
1783,E4,352.0,0.5,52,82.0
1784,C5,352.0,0.5,52,82.0
1785,D4,352.5,0.25,47,82.0
1786,B4,352.5,0.25,47,82.0
1787,E4,352.75,0.25,41,82.0
1788,C5,352.75,0.25,41,82.0
1789,C4,353.0,1.0,47,82.0
1790,A4,353.0,1.0,47,82.0
1791,G2,353.0,2.0,35,82.0
1792,D3,353.0,2.0,35,82.0
1793,A3,354.0,0.25,54,82.0
1794,D4,354.0,0.25,54,82.0
1795,B3,354.25,0.25,47,82.0
1796,C4,354.5,0.25,48,82.0
1797,D4,354.75,0.25,45,82.0
1798,D5,355.0,1.0,55,82.0
1799,G2,355.0,0.5,38,82.0
1800,G2,355.5,0.25,33,82.0
1801,D3,355.75,0.25,33,82.0
1802,G2,356.0,0.5,38,82.0
1803,D4,356.0,0.5,52,82.0
1804,B4,356.0,0.5,52,82.0
1805,D2,356.5,0.5,34,82.0
1806,C4,356.5,0.25,47,82.0
1807,A4,356.5,0.25,47,82.0
1808,D4,356.75,0.25,41,82.0
1809,B4,356.75,0.25,41,82.0
1810,B3,357.0,1.0,47,82.0
1811,G4,357.0,1.0,47,82.0
1812,G2,357.0,2.0,35,82.0
1813,D3,357.0,2.0,35,82.0
1814,A3,358.0,0.25,54,82.0
1815,D4,358.0,0.25,54,82.0
1816,B3,358.25,0.25,46,82.0
1817,C4,358.5,0.25,48,82.0
1818,D4,358.75,0.25,46,82.0
1819,D5,359.0,1.0,55,82.0
1820,G2,359.0,0.5,38,82.0
1821,G2,359.5,0.25,33,82.0
1822,D3,359.75,0.25,33,82.0
1823,G2,360.0,0.5,33,82.0
1824,E4,360.0,0.5,52,82.0
1825,C5,360.0,0.5,52,82.0
1826,D2,360.5,0.5,32,82.0
1827,D4,360.5,0.25,47,82.0
1828,B4,360.5,0.25,47,82.0
1829,E4,360.75,0.25,41,82.0
1830,C5,360.75,0.25,41,82.0
1831,C4,361.0,1.0,47,82.0
1832,A4,361.0,1.0,47,82.0
1833,G2,361.0,2.0,35,82.0
1834,D3,361.0,2.0,35,82.0
1835,A3,362.0,0.25,52,82.0
1836,D4,362.0,0.25,52,82.0
1837,B3,362.25,0.25,43,82.0
1838,C4,362.5,0.25,45,82.0
1839,D4,362.75,0.25,43,82.0
1840,D5,363.0,1.0,52,82.0
1841,G2,363.0,0.5,38,82.0
1842,G2,363.5,0.25,33,82.0
1843,D3,363.75,0.25,33,82.0
1844,G2,364.0,0.5,38,82.0
1845,D4,364.0,0.5,50,82.0
1846,B4,364.0,0.5,50,82.0
1847,D2,364.5,0.5,33,82.0
1848,C4,364.5,0.25,44,82.0
1849,A4,364.5,0.25,44,82.0
1850,D4,364.75,0.25,38,82.0
1851,B4,364.75,0.25,38,82.0
1852,B3,365.0,0.5,44,82.0
1853,G4,365.0,0.5,44,82.0
1854,G2,365.0,2.0,33,82.0
1855,D3,365.0,2.0,33,82.0
1856,D4,365.5,0.5,37,82.0
1857,B4,365.5,0.5,37,82.0
1858,C4,366.0,0.5,42,82.0
1859,A4,366.0,0.5,42,82.0
1860,B3,366.5,0.5,40,82.0
1861,G4,366.5,0.5,40,82.0
1862,G2,367.0,0.5,36,82.0
1863,G5,367.0,1.0,45,82.0
1864,B3,367.0,1.0,45,82.0
1865,G4,367.0,1.0,45,82.0
1866,G2,367.5,0.25,31,82.0
1867,D3,367.75,0.25,31,82.0
1868,G2,368.0,0.5,31,82.0
1869,B3,368.0,1.0,37,82.0
1870,D4,368.0,1.0,37,82.0
1871,D2,368.5,0.5,29,82.0
1872,G5,369.0,1.0,48,82.0
1873,G2,369.0,2.0,33,82.0
1874,D3,369.0,2.0,33,82.0
1875,B3,370.0,1.0,36,82.0
1876,D4,370.0,1.0,36,82.0
1877,G5,371.0,1.0,48,82.0
1878,G2,371.0,2.0,26,82.0
1879,D3,371.0,2.0,26,82.0
1880,G5,372.0,1.0,48,82.0
1881,F#5,373.0,73/250,45,82.0
1882,G2,373.0,2.0,26,82.0
1883,D3,373.0,2.0,26,82.0
1884,E5,373.25,73/250,41,82.0
1885,D5,373.5,73/250,44,82.0
1886,C5,373.75,0.25,36,82.0
1887,B4,374.0,1.0,47,82.0
1888,C5,374.0,21/500,36,82.0
1889,C4,375.0,1.0,36,82.0
1890,F#4,375.0,1.0,36,82.0
1891,A4,375.0,1.0,36,82.0
1892,G4,376.0,1.0,34,82.0
1893,B3,376.0,1.0,34,82.0
1894,D4,376.0,1.0,34,82.0
1895,B3,376.0,1.0,36,82.0
1896,D4,376.0,1.0,36,82.0
1897,G2,376.0,1.0,26,82.0
1898,D3,376.0,1.0,26,82.0
1899,D6,377.0,1.0,43,82.0
1900,B3,378.0,1.0,34,82.0
1901,D4,378.0,1.0,34,82.0
1902,D6,379.0,1.0,41,82.0
1903,D2,379.0,1.0,24,82.0
1904,B3,380.0,1.0,34,82.0
1905,D4,380.0,1.0,34,82.0
1906,G2,380.0,2.0,25,82.0
1907,D3,380.0,2.0,25,82.0
1908,D6,381.0,1.0,42,82.0
1909,B3,382.0,1.0,33,82.0
1910,D4,382.0,1.0,33,82.0
1911,G2,382.0,2.0,24,82.0
1912,D3,382.0,2.0,24,82.0
1913,D6,383.0,1.0,41,82.0
1914,B3,384.0,2.0,30,82.0
1915,D4,384.0,2.0,30,82.0
1916,G2,384.0,2.0,24,82.0
1917,D3,384.0,2.0,24,82.0
1918,D6,386.0,2.0,36,82.0
1919,G2,386.0,2.0,23,82.0
1920,D3,386.0,2.0,23,82.0
1921,G2,388.0,2.0,20,82.0
1922,D3,388.0,2.0,20,82.0
1923,G2,392.0,2.0,20,82.0
1924,D3,392.0,2.0,20,82.0
