,note_name,start_time,duration,velocity,tempo
0,E-2,0.002,0.25,36,193.0
1,B-2,0.5,0.25,32,193.0
2,E-2,1.0,0.25,32,193.0
3,B-1,1.5,0.25,32,193.0
4,E-2,2.0,0.25,36,193.0
5,B-2,2.5,0.25,32,193.0
6,E-2,3.0,0.25,32,193.0
7,E-4,3.5,0.25,36,193.0
8,B-1,3.5,0.25,32,193.0
9,F4,3.75,0.25,36,193.0
10,E-2,4.0,0.25,36,193.0
11,F#4,4.0,0.25,39,193.0
12,B-4,4.0,0.25,39,193.0
13,F4,4.25,0.25,36,193.0
14,E-4,4.5,0.25,36,193.0
15,B-2,4.5,0.25,33,193.0
16,F4,4.75,0.25,36,193.0
17,E-2,5.0,0.25,33,193.0
18,F#4,5.0,0.25,37,193.0
19,B-4,5.0,0.25,37,193.0
20,F4,5.25,0.25,36,193.0
21,E-4,5.5,0.25,36,193.0
22,B-1,5.5,0.25,33,193.0
23,F4,5.75,0.25,36,193.0
24,E-2,6.0,0.25,36,193.0
25,B-4,6.0,0.25,39,193.0
26,F#4,6.0,0.25,39,193.0
27,B-2,6.5,0.25,33,193.0
28,F#4,6.5,0.25,36,193.0
29,E-4,6.5,0.25,36,193.0
30,E-2,7.0,0.25,33,193.0
31,F#4,7.0,0.25,36,193.0
32,E-4,7.0,0.25,36,193.0
33,B-1,7.5,0.25,33,193.0
34,F#4,7.5,0.25,36,193.0
35,B-4,7.5,0.25,36,193.0
36,E-2,8.0,0.25,36,193.0
37,F4,8.0,0.25,40,193.0
38,A4,8.0,0.25,40,193.0
39,B-2,8.5,0.25,33,193.0
40,C4,8.5,0.25,36,193.0
41,F4,8.5,0.25,36,193.0
42,E-2,9.0,0.25,33,193.0
43,F4,9.0,0.25,36,193.0
44,C4,9.0,0.25,36,193.0
45,B-1,9.5,0.25,33,193.0
46,F4,9.5,0.25,36,193.0
47,A4,9.5,0.25,36,193.0
48,E-2,10.0,0.25,36,193.0
49,A4,10.0,1.5,43,193.0
50,F4,10.0,1.5,43,193.0
51,B-2,10.5,0.25,32,193.0
52,E-2,11.0,0.25,32,193.0
53,G#4,11.5,0.25,36,193.0
54,B-1,11.5,0.25,32,193.0
55,B-4,11.75,0.25,39,193.0
56,E-2,12.0,0.25,39,193.0
57,B4,12.0,0.25,43,193.0
58,E-5,12.0,0.25,43,193.0
59,B-4,12.25,0.25,40,193.0
60,G#4,12.5,0.25,40,193.0
61,B-2,12.5,0.25,36,193.0
62,B-4,12.75,0.25,40,193.0
63,E-2,13.0,0.25,36,193.0
64,E-5,13.0,0.25,43,193.0
65,B4,13.0,0.25,43,193.0
66,B-4,13.25,0.25,40,193.0
67,G#4,13.5,0.25,40,193.0
68,B-1,13.5,0.25,36,193.0
69,B-4,13.75,0.25,40,193.0
70,E-2,14.0,0.25,39,193.0
71,B4,14.0,0.25,43,193.0
72,E-5,14.0,0.25,43,193.0
73,B-2,14.5,0.25,36,193.0
74,B4,14.5,0.25,40,193.0
75,G#4,14.5,0.25,40,193.0
76,E-2,15.0,0.25,36,193.0
77,G#4,15.0,0.25,40,193.0
78,B4,15.0,0.25,40,193.0
79,B-1,15.5,0.25,36,193.0
80,E-5,15.5,0.25,40,193.0
81,B4,15.5,0.25,40,193.0
82,E-2,16.0,0.25,39,193.0
83,B-4,16.0,0.25,43,193.0
84,D5,16.0,0.25,43,193.0
85,B-2,16.5,0.25,36,193.0
86,B-4,16.5,0.25,40,193.0
87,F4,16.5,0.25,40,193.0
88,E-2,17.0,0.25,36,193.0
89,B-4,17.0,0.25,40,193.0
90,F4,17.0,0.25,40,193.0
91,B-1,17.5,0.25,36,193.0
92,D5,17.5,0.25,40,193.0
93,B-4,17.5,0.25,40,193.0
94,E-2,18.0,0.25,39,193.0
95,B-4,18.0,0.75,46,193.0
96,D5,18.0,0.75,46,193.0
97,B-2,18.5,0.25,36,193.0
98,E-2,19.0,0.25,36,193.0
99,F#5,19.5,0.25,74,193.0
100,G#5,19.75,0.25,74,193.0
101,B-5,20.0,0.25,86,193.0
102,C#6,20.0,0.25,86,193.0
103,F#4,20.0,1.5,67,193.0
104,C#5,20.0,1.5,67,193.0
105,G#5,20.25,0.25,73,193.0
106,F#5,20.5,0.25,73,193.0
107,G#5,20.75,0.25,73,193.0
108,C#6,21.0,229/500,79,193.0
109,B-5,21.0,229/500,79,193.0
110,C#5,21.5,0.25,73,193.0
111,E-5,21.75,0.25,73,193.0
112,F5,22.0,0.25,85,193.0
113,G#5,22.0,0.25,85,193.0
114,G#4,22.0,1.5,67,193.0
115,C#4,22.0,1.5,67,193.0
116,E-5,22.25,0.25,73,193.0
117,C#5,22.5,0.25,71,193.0
118,E-5,22.75,0.25,71,193.0
119,F5,23.0,229/500,80,193.0
120,G#5,23.0,229/500,80,193.0
121,B4,23.5,0.25,73,193.0
122,C#5,23.75,0.25,73,193.0
123,F#5,24.0,0.25,86,193.0
124,E-5,24.0,0.25,86,193.0
125,F#4,24.0,1.5,67,193.0
126,B3,24.0,1.5,67,193.0
127,C#5,24.25,0.25,71,193.0
128,B4,24.5,0.25,71,193.0
129,C#5,24.75,0.25,71,193.0
130,F#5,25.0,229/500,80,193.0
131,E-5,25.0,229/500,80,193.0
132,F#4,25.5,0.25,74,193.0
133,G#4,25.75,0.25,74,193.0
134,C#5,26.0,0.25,89,193.0
135,B-4,26.0,0.25,89,193.0
136,C#4,26.0,1.5,67,193.0
137,F#3,26.0,1.5,67,193.0
138,G#4,26.25,0.25,71,193.0
139,F#4,26.5,0.25,71,193.0
140,G#4,26.75,0.25,71,193.0
141,C#5,27.0,229/500,79,193.0
142,B-4,27.0,229/500,79,193.0
143,F3,27.5,0.25,69,193.0
144,F2,27.5,0.25,67,193.0
145,F#3,27.75,0.25,69,193.0
146,F#2,27.75,0.25,67,193.0
147,G#3,28.0,0.25,79,193.0
148,G#2,28.0,0.25,79,193.0
149,F#3,28.25,0.25,67,193.0
150,F#2,28.25,0.25,67,193.0
151,F3,28.5,0.25,67,193.0
152,F2,28.5,0.25,67,193.0
153,F#3,29.0,0.25,73,193.0
154,F#2,29.0,0.25,70,193.0
155,F3,29.25,0.25,63,193.0
156,F2,29.25,0.25,64,193.0
157,E-3,29.5,0.25,63,193.0
158,E-2,29.5,0.25,64,193.0
159,F3,30.0,0.25,69,193.0
160,F2,30.0,0.25,69,193.0
161,E-3,30.25,0.25,61,193.0
162,E-2,30.25,0.25,60,193.0
163,C#3,30.5,0.25,61,193.0
164,C#2,30.5,0.25,60,193.0
165,E-3,31.0,0.25,66,193.0
166,E-2,31.0,0.25,67,193.0
167,C#3,31.25,0.25,59,193.0
168,C#2,31.25,0.25,59,193.0
169,C3,31.5,0.25,59,193.0
170,C2,31.5,0.25,59,193.0
171,E-3,34.0,0.25,45,193.0
172,E-2,34.0,0.25,45,193.0
173,C#3,34.25,0.25,40,193.0
174,C#2,34.25,0.25,41,193.0
175,B2,34.5,0.25,40,193.0
176,B1,34.5,0.25,41,193.0
177,B-2,36.0,0.25,73,193.0
178,B-1,36.0,2.0,67,193.0
179,F2,36.0,2.0,67,193.0
180,F3,36.25,0.25,67,193.0
181,B-3,36.5,0.188,67,193.0
182,B-3,36.75,0.25,67,193.0
183,F4,37.0,0.25,72,193.0
184,B-4,37.25,0.188,74,193.0
185,B-4,37.5,0.25,78,193.0
186,F5,37.75,0.188,81,193.0
187,F5,38.0,0.5,85,193.0
188,B-4,38.0,0.5,85,193.0
189,B-5,38.0,0.5,85,193.0
190,F4,38.0,0.5,81,193.0
191,B-3,38.0,0.5,81,193.0
192,G#1,39.5,0.25,48,193.0
193,B-1,39.75,0.25,48,193.0
194,B1,40.0,0.25,54,193.0
195,B2,40.0,2.0,36,193.0
196,D3,40.0,2.0,36,193.0
197,F3,40.0,2.0,36,193.0
198,B-1,40.25,0.25,48,193.0
199,G#1,40.5,0.25,48,193.0
200,B-1,40.75,0.25,48,193.0
201,B1,41.0,0.25,51,193.0
202,B-1,41.25,0.25,48,193.0
203,G#1,41.5,0.25,48,193.0
204,B-1,41.75,0.25,48,193.0
205,B1,42.0,0.25,58,193.0
206,G#1,42.5,0.25,53,193.0
207,B2,42.5,0.5,36,193.0
208,D3,42.5,0.5,36,193.0
209,F3,42.5,0.5,36,193.0
210,G#1,43.0,0.25,53,193.0
211,D3,44.0,0.25,45,193.0
212,F3,44.0,0.25,45,193.0
213,B3,44.0,0.25,45,193.0
214,B-2,44.5,0.25,52,193.0
215,D3,44.5,0.25,49,193.0
216,F3,44.5,0.25,49,193.0
217,B3,44.5,0.25,49,193.0
218,B-2,45.0,0.25,52,193.0
219,D3,45.0,0.25,45,193.0
220,F3,45.0,0.25,45,193.0
221,B-3,45.0,0.25,45,193.0
222,B2,45.5,0.25,54,193.0
223,D3,45.5,0.25,45,193.0
224,F3,45.5,0.25,45,193.0
225,B-3,45.5,0.25,45,193.0
226,B2,46.0,0.25,56,193.0
227,D3,46.0,0.25,49,193.0
228,F3,46.0,0.25,49,193.0
229,A3,46.0,0.25,49,193.0
230,D3,46.5,0.25,52,193.0
231,F3,46.5,0.25,52,193.0
232,A3,46.5,0.25,52,193.0
233,D3,47.0,0.25,51,193.0
234,F3,47.0,0.25,51,193.0
235,G#3,47.0,0.25,51,193.0
236,B1,47.5,0.25,54,193.0
237,D3,47.5,0.25,49,193.0
238,F3,47.5,0.25,49,193.0
239,G#3,47.5,0.25,49,193.0
240,C#2,47.75,0.25,54,193.0
241,D2,48.0,0.25,61,193.0
242,C#2,48.25,0.25,54,193.0
243,B1,48.5,0.25,54,193.0
244,D3,48.5,2.0,41,193.0
245,F3,48.5,2.0,41,193.0
246,G#3,48.5,2.0,41,193.0
247,C#2,48.75,0.25,54,193.0
248,D2,49.0,0.25,57,193.0
249,C#2,49.25,0.25,54,193.0
250,B1,49.5,0.25,54,193.0
251,C#2,49.75,0.25,54,193.0
252,D2,50.0,0.25,65,193.0
253,B1,50.5,0.25,60,193.0
254,B1,51.0,0.25,60,193.0
255,D3,51.0,0.5,41,193.0
256,F3,51.0,0.5,41,193.0
257,G#3,51.0,0.5,41,193.0
258,C#3,52.5,0.25,54,193.0
259,F3,52.5,0.25,43,193.0
260,G#3,52.5,0.25,43,193.0
261,D4,52.5,0.25,43,193.0
262,C#3,53.0,0.25,54,193.0
263,F3,53.0,0.25,44,193.0
264,G#3,53.0,0.25,44,193.0
265,D4,53.0,0.25,44,193.0
266,D3,53.5,0.25,56,193.0
267,F3,53.5,0.25,43,193.0
268,G#3,53.5,0.25,43,193.0
269,C#4,53.5,0.25,43,193.0
270,D3,54.0,0.25,61,193.0
271,F3,54.0,0.25,43,193.0
272,G#3,54.0,0.25,43,193.0
273,C#4,54.0,0.25,43,193.0
274,F3,54.5,0.25,46,193.0
275,G#3,54.5,0.25,46,193.0
276,C4,54.5,0.25,46,193.0
277,F3,55.0,0.25,51,193.0
278,G#3,55.0,0.25,51,193.0
279,C4,55.0,0.25,51,193.0
280,F3,55.5,0.25,48,193.0
281,G#3,55.5,0.25,48,193.0
282,B3,55.5,0.25,48,193.0
283,F3,56.0,0.25,47,193.0
284,G#3,56.0,0.25,47,193.0
285,B3,56.0,0.25,47,193.0
286,E3,56.5,0.25,58,193.0
287,G#3,56.5,0.25,43,193.0
288,B3,56.5,0.25,43,193.0
289,F4,56.5,0.25,43,193.0
290,E3,57.0,0.25,58,193.0
291,G#3,57.0,0.25,46,193.0
292,B3,57.0,0.25,46,193.0
293,F4,57.0,0.25,46,193.0
294,F3,57.5,0.25,63,193.0
295,G#3,57.5,0.25,43,193.0
296,B3,57.5,0.25,43,193.0
297,E4,57.5,0.25,43,193.0
298,F3,58.0,0.25,67,193.0
299,G#3,58.0,0.25,43,193.0
300,B3,58.0,0.25,43,193.0
301,E4,58.0,0.25,43,193.0
302,G#3,58.5,0.25,48,193.0
303,C4,58.5,0.25,48,193.0
304,E-4,58.5,0.25,48,193.0
305,G#3,59.0,0.25,54,193.0
306,B3,59.0,0.25,54,193.0
307,E-4,59.0,0.25,54,193.0
308,G#3,59.5,0.25,50,193.0
309,B3,59.5,0.25,50,193.0
310,D4,59.5,0.25,50,193.0
311,G#3,60.0,0.25,48,193.0
312,B3,60.0,0.25,48,193.0
313,D4,60.0,0.25,48,193.0
314,G3,60.5,0.25,63,193.0
315,B3,60.5,0.25,53,193.0
316,D4,60.5,0.25,53,193.0
317,G#4,60.5,0.25,53,193.0
318,G3,61.0,0.25,63,193.0
319,B3,61.0,0.25,56,193.0
320,D4,61.0,0.25,56,193.0
321,G#4,61.0,0.25,56,193.0
322,G#3,61.5,0.25,68,193.0
323,B3,61.5,0.25,53,193.0
324,D4,61.5,0.25,53,193.0
325,G4,61.5,0.25,53,193.0
326,G#3,62.0,0.25,69,193.0
327,B3,62.0,0.25,53,193.0
328,D4,62.0,0.25,53,193.0
329,G4,62.0,0.25,53,193.0
330,B3,62.5,0.25,58,193.0
331,D4,62.5,0.25,58,193.0
332,F#4,62.5,0.25,58,193.0
333,B3,63.0,0.25,61,193.0
334,D4,63.0,0.25,61,193.0
335,F#4,63.0,0.25,61,193.0
336,B3,63.5,0.25,58,193.0
337,D4,63.5,0.25,58,193.0
338,F4,63.5,0.25,58,193.0
339,B3,64.0,0.25,56,193.0
340,D4,64.0,0.25,56,193.0
341,F4,64.0,0.25,56,193.0
342,B-3,64.5,0.25,70,193.0
343,D4,64.5,0.25,60,193.0
344,F4,64.5,0.25,60,193.0
345,B4,64.5,0.25,60,193.0
346,B-3,65.0,0.25,76,193.0
347,D4,65.0,0.25,66,193.0
348,F4,65.0,0.25,66,193.0
349,B4,65.0,0.25,66,193.0
350,D4,65.5,0.25,64,193.0
351,F4,65.5,0.25,64,193.0
352,B-4,65.5,0.25,64,193.0
353,D4,66.0,0.25,61,193.0
354,F4,66.0,0.25,61,193.0
355,B-4,66.0,0.25,61,193.0
356,C#4,66.5,0.25,74,193.0
357,F4,66.5,0.25,63,193.0
358,G#4,66.5,0.25,63,193.0
359,D5,66.5,0.25,63,193.0
360,C#4,67.0,0.25,78,193.0
361,F4,67.0,0.25,69,193.0
362,G#4,67.0,0.25,69,193.0
363,D5,67.0,0.25,69,193.0
364,F4,67.5,0.25,66,193.0
365,G#4,67.5,0.25,66,193.0
366,C#5,67.5,0.25,66,193.0
367,F4,68.0,0.25,64,193.0
368,G#4,68.0,0.25,64,193.0
369,C#5,68.0,0.25,64,193.0
370,E4,68.5,0.25,76,193.0
371,G#4,68.5,0.25,65,193.0
372,B4,68.5,0.25,65,193.0
373,F5,68.5,0.25,65,193.0
374,E4,69.0,0.25,82,193.0
375,G#4,69.0,0.25,78,193.0
376,B4,69.0,0.25,78,193.0
377,F5,69.0,0.25,78,193.0
378,G#4,69.5,0.25,69,193.0
379,B4,69.5,0.25,69,193.0
380,E5,69.5,0.25,69,193.0
381,G#4,70.0,0.25,66,193.0
382,B4,70.0,0.25,66,193.0
383,E5,70.0,0.25,66,193.0
384,G4,70.5,0.25,80,193.0
385,B4,70.5,0.25,76,193.0
386,D5,70.5,0.25,76,193.0
387,G#5,70.5,0.25,76,193.0
388,G4,71.0,0.25,85,193.0
389,B4,71.0,0.25,84,193.0
390,D5,71.0,0.25,84,193.0
391,G#5,71.0,0.25,84,193.0
392,B4,71.5,0.25,80,193.0
393,D5,71.5,0.25,80,193.0
394,G5,71.5,0.25,80,193.0
395,B4,72.0,0.25,77,193.0
396,D5,72.0,0.25,77,193.0
397,G5,72.0,0.25,77,193.0
398,G4,72.0,0.25,36,193.0
399,C4,72.0,0.25,36,193.0
400,C5,72.5,0.25,37,193.0
401,G4,72.5,0.25,32,193.0
402,C4,72.5,0.25,32,193.0
403,D5,72.75,0.25,36,193.0
404,G5,73.0,0.25,39,193.0
405,E5,73.0,0.25,39,193.0
406,G4,73.0,0.25,32,193.0
407,C4,73.0,0.25,32,193.0
408,D5,73.25,0.25,36,193.0
409,C5,73.5,0.25,36,193.0
410,G4,73.5,0.25,32,193.0
411,C4,73.5,0.25,32,193.0
412,D5,73.75,0.25,36,193.0
413,E5,74.0,0.25,37,193.0
414,G5,74.0,0.25,37,193.0
415,G4,74.0,0.25,36,193.0
416,C4,74.0,0.25,36,193.0
417,D5,74.25,0.25,36,193.0
418,C5,74.5,0.25,36,193.0
419,G4,74.5,0.25,32,193.0
420,C4,74.5,0.25,32,193.0
421,D5,74.75,0.25,36,193.0
422,G5,75.0,0.25,39,193.0
423,E5,75.0,0.25,39,193.0
424,G4,75.0,0.25,32,193.0
425,C4,75.0,0.25,32,193.0
426,E5,75.5,0.25,36,193.0
427,C5,75.5,0.25,36,193.0
428,G4,75.5,0.25,32,193.0
429,C4,75.5,0.25,32,193.0
430,E5,76.0,0.25,36,193.0
431,C5,76.0,0.25,36,193.0
432,G4,76.0,0.25,36,193.0
433,C4,76.0,0.25,36,193.0
434,G5,76.5,0.25,36,193.0
435,E5,76.5,0.25,36,193.0
436,G4,76.5,0.25,32,193.0
437,C4,76.5,0.25,32,193.0
438,F5,77.0,0.25,40,193.0
439,A5,77.0,0.25,40,193.0
440,G4,77.0,0.25,32,193.0
441,C4,77.0,0.25,32,193.0
442,B4,77.5,0.25,36,193.0
443,D5,77.5,0.25,36,193.0
444,G4,77.5,0.25,32,193.0
445,C4,77.5,0.25,32,193.0
446,B4,78.0,0.25,36,193.0
447,D5,78.0,0.25,36,193.0
448,G4,78.0,0.25,36,193.0
449,C4,78.0,0.25,36,193.0
450,F5,78.5,0.25,40,193.0
451,A5,78.5,0.25,40,193.0
452,G4,78.5,0.25,32,193.0
453,C4,78.5,0.25,32,193.0
454,F5,79.0,1.5,44,193.0
455,A5,79.0,1.5,44,193.0
456,G4,79.0,0.25,32,193.0
457,C4,79.0,0.25,32,193.0
458,C4,79.5,0.25,34,193.0
459,G4,79.5,0.25,34,193.0
460,G4,80.0,0.25,38,193.0
461,C4,80.0,0.25,38,193.0
462,C5,80.5,0.25,38,193.0
463,G4,80.5,0.25,34,193.0
464,C4,80.5,0.25,34,193.0
465,D5,80.75,0.25,38,193.0
466,G5,81.0,0.25,41,193.0
467,E5,81.0,0.25,41,193.0
468,C4,81.0,0.25,34,193.0
469,G4,81.0,0.25,34,193.0
470,E5,81.5,0.25,38,193.0
471,C5,81.5,0.25,38,193.0
472,G4,81.5,0.25,34,193.0
473,C4,81.5,0.25,34,193.0
474,E5,82.0,0.25,39,193.0
475,C5,82.0,0.25,39,193.0
476,C4,82.0,0.25,38,193.0
477,G4,82.0,0.25,38,193.0
478,G5,82.5,0.25,38,193.0
479,E5,82.5,0.25,38,193.0
480,G4,82.5,0.25,34,193.0
481,C4,82.5,0.25,34,193.0
482,F5,83.0,0.25,42,193.0
483,A5,83.0,0.25,42,193.0
484,G4,83.0,0.25,34,193.0
485,C4,83.0,0.25,34,193.0
486,B4,83.5,0.25,38,193.0
487,D5,83.5,0.25,38,193.0
488,C4,83.5,0.25,40,193.0
489,G4,83.5,0.25,40,193.0
490,B4,84.0,0.25,39,193.0
491,D5,84.0,0.25,39,193.0
492,G4,84.0,0.25,45,193.0
493,C4,84.0,0.25,45,193.0
494,F5,84.5,0.25,51,193.0
495,A5,84.5,0.25,51,193.0
496,G4,84.5,0.25,40,193.0
497,C4,84.5,0.25,40,193.0
498,E5,85.0,0.25,55,193.0
499,G5,85.0,0.25,55,193.0
500,C4,85.0,0.25,41,193.0
501,G4,85.0,0.25,41,193.0
502,C5,85.5,0.25,50,193.0
503,E5,85.5,0.25,50,193.0
504,G4,85.5,0.25,42,193.0
505,C4,85.5,0.25,42,193.0
506,F5,86.0,0.25,58,193.0
507,A5,86.0,0.25,58,193.0
508,G4,86.0,0.25,47,193.0
509,C4,86.0,0.25,47,193.0
510,B4,86.5,0.25,52,193.0
511,D5,86.5,0.25,52,193.0
512,G4,86.5,0.25,43,193.0
513,C4,86.5,0.25,43,193.0
514,E5,87.0,0.25,60,193.0
515,G5,87.0,0.25,60,193.0
516,C4,87.0,0.25,45,193.0
517,G4,87.0,0.25,45,193.0
518,C5,87.5,0.25,54,193.0
519,E5,87.5,0.25,54,193.0
520,G4,87.5,0.25,45,193.0
521,C4,87.5,0.25,45,193.0
522,F5,88.0,0.25,63,193.0
523,A5,88.0,0.25,63,193.0
524,G4,88.0,0.25,51,193.0
525,C4,88.0,0.25,51,193.0
526,B4,88.5,0.25,56,193.0
527,D5,88.5,0.25,56,193.0
528,G4,88.5,0.25,46,193.0
529,C4,88.5,0.25,46,193.0
530,E5,89.0,0.25,64,193.0
531,G5,89.0,0.25,64,193.0
532,B4,89.0,0.25,63,193.0
533,E4,89.0,0.25,63,193.0
534,C5,89.5,0.25,59,193.0
535,E5,89.5,0.25,59,193.0
536,B4,89.5,0.25,58,193.0
537,E4,89.5,0.25,58,193.0
538,C#6,90.0,0.25,78,193.0
539,A5,90.0,0.25,78,193.0
540,E4,90.0,0.25,63,193.0
541,B4,90.0,0.25,63,193.0
542,E-5,90.5,0.25,72,193.0
543,F#5,90.5,0.25,72,193.0
544,E4,90.5,0.25,58,193.0
545,B4,90.5,0.25,58,193.0
546,B5,91.0,0.25,79,193.0
547,G#5,91.0,0.25,79,193.0
548,E4,91.0,0.25,63,193.0
549,B4,91.0,0.25,63,193.0
550,E5,91.5,0.25,73,193.0
551,G#5,91.5,0.25,73,193.0
552,E4,91.5,0.25,58,193.0
553,B4,91.5,0.25,58,193.0
554,C#6,92.0,0.25,79,193.0
555,A5,92.0,0.25,79,193.0
556,E4,92.0,0.25,63,193.0
557,B4,92.0,0.25,63,193.0
558,E-5,92.5,0.25,72,193.0
559,F#5,92.5,0.25,72,193.0
560,E4,92.5,0.25,59,193.0
561,B4,92.5,0.25,59,193.0
562,B5,93.0,0.25,79,193.0
563,G#5,93.0,0.25,79,193.0
564,E4,93.0,0.25,64,193.0
565,B4,93.0,0.25,64,193.0
566,E5,93.5,0.25,76,193.0
567,G#5,93.5,0.25,76,193.0
568,E4,93.5,0.25,61,193.0
569,B4,93.5,0.25,61,193.0
570,G#5,94.0,0.25,82,193.0
571,B5,94.0,0.25,82,193.0
572,E4,94.0,0.25,68,193.0
573,B4,94.0,0.25,68,193.0
574,E5,94.5,0.25,79,193.0
575,G#5,94.5,0.25,79,193.0
576,E4,94.5,0.25,64,193.0
577,B4,94.5,0.25,64,193.0
578,B5,95.0,0.25,87,193.0
579,G#5,95.0,0.25,87,193.0
580,E4,95.0,0.25,72,193.0
581,B4,95.0,0.25,72,193.0
582,E5,95.5,0.25,83,193.0
583,G#5,95.5,0.25,83,193.0
584,E4,95.5,0.25,67,193.0
585,B4,95.5,0.25,67,193.0
586,G#5,96.0,0.25,90,193.0
587,B5,96.0,0.25,90,193.0
588,E5,96.5,0.25,87,193.0
589,G#5,96.5,0.25,87,193.0
590,B-3,97.0,2.0,79,193.0
591,E4,98.0,0.25,68,193.0
592,B4,98.0,0.25,68,193.0
593,E4,98.5,0.25,64,193.0
594,B4,98.5,0.25,64,193.0
595,B5,99.0,0.25,87,193.0
596,G#5,99.0,0.25,87,193.0
597,E4,99.0,0.25,72,193.0
598,B4,99.0,0.25,72,193.0
599,E5,99.5,0.25,83,193.0
600,G#5,99.5,0.25,83,193.0
601,E4,99.5,0.25,67,193.0
602,B4,99.5,0.25,67,193.0
603,G#5,100.0,0.25,90,193.0
604,B5,100.0,0.25,90,193.0
605,E5,100.5,0.25,87,193.0
606,G#5,100.5,0.25,87,193.0
607,B-3,101.0,2.0,76,193.0
608,E4,102.0,0.25,64,193.0
609,B4,102.0,0.25,64,193.0
610,E4,102.5,0.25,61,193.0
611,B4,102.5,0.25,61,193.0
612,B5,103.0,0.25,85,193.0
613,G#5,103.0,0.25,85,193.0
614,E4,103.0,0.25,64,193.0
615,B4,103.0,0.25,64,193.0
616,E5,103.5,0.25,79,193.0
617,G#5,103.5,0.25,79,193.0
618,E4,103.5,0.25,59,193.0
619,B4,103.5,0.25,59,193.0
620,G#5,104.0,0.25,85,193.0
621,B5,104.0,0.25,85,193.0
622,A3,104.5,0.25,45,193.0
623,E5,104.5,0.25,81,193.0
624,G#5,104.5,0.25,81,193.0
625,B-3,105.0,2.0,72,193.0
626,G#3,105.0,0.25,45,193.0
627,G3,105.5,0.25,45,193.0
628,F#3,106.0,0.25,45,193.0
629,F3,106.5,0.25,45,193.0
630,B-3,107.0,2.0,72,193.0
631,E3,107.0,0.25,45,193.0
632,E-3,107.5,0.25,45,193.0
633,D3,108.5,0.25,45,193.0
634,B-3,109.0,2.0,72,193.0
635,C#3,109.0,0.25,45,193.0
636,C3,109.5,0.25,45,193.0
637,B2,110.0,0.25,45,193.0
638,B-2,110.5,0.25,45,193.0
639,B-3,111.0,2.0,72,193.0
640,A2,111.0,0.25,45,193.0
641,G#2,111.5,0.25,45,193.0
642,B-3,113.0,2.0,72,193.0
643,G2,113.0,0.5,41,193.0
644,B-3,115.0,2.0,72,193.0
645,F#2,115.0,0.5,40,193.0
646,B-3,117.0,2.0,72,193.0
647,F2,117.0,0.5,37,193.0
648,B-3,119.0,2.0,72,193.0
649,E2,119.0,0.5,36,193.0
650,B-3,121.0,1.0,72,193.0
651,E-2,122.0,0.25,36,193.0
652,E-4,122.5,0.25,36,193.0
653,B-2,122.5,0.25,33,193.0
654,F4,122.75,0.25,36,193.0
655,E-2,123.0,0.25,33,193.0
656,B-4,123.0,0.25,39,193.0
657,F#4,123.0,0.25,39,193.0
658,F4,123.25,0.25,36,193.0
659,E-4,123.5,0.25,36,193.0
660,B-1,123.5,0.25,33,193.0
661,F4,123.75,0.25,36,193.0
662,E-2,124.0,0.25,36,193.0
663,F#4,124.0,0.25,37,193.0
664,B-4,124.0,0.25,37,193.0
665,F4,124.25,0.25,36,193.0
666,E-4,124.5,0.25,36,193.0
667,B-2,124.5,0.25,33,193.0
668,F4,124.75,0.25,36,193.0
669,E-2,125.0,0.25,33,193.0
670,B-4,125.0,0.25,39,193.0
671,F#4,125.0,0.25,39,193.0
672,B-1,125.5,0.25,33,193.0
673,F#4,125.5,0.25,36,193.0
674,E-4,125.5,0.25,36,193.0
675,E-2,126.0,0.25,36,193.0
676,F#4,126.0,0.25,36,193.0
677,E-4,126.0,0.25,36,193.0
678,B-2,126.5,0.25,33,193.0
679,B-4,126.5,0.25,36,193.0
680,F#4,126.5,0.25,36,193.0
681,E-2,127.0,0.25,33,193.0
682,F4,127.0,0.25,40,193.0
683,A4,127.0,0.25,40,193.0
684,B-1,127.5,0.25,33,193.0
685,C4,127.5,0.25,36,193.0
686,F4,127.5,0.25,36,193.0
687,E-2,128.0,0.25,36,193.0
688,C4,128.0,0.25,36,193.0
689,F4,128.0,0.25,36,193.0
690,B-2,128.5,0.25,32,193.0
691,F4,128.5,0.25,36,193.0
692,A4,128.5,0.25,36,193.0
693,E-2,129.0,0.25,32,193.0
694,F4,129.0,1.5,43,193.0
695,A4,129.0,1.5,43,193.0
696,B-1,129.5,0.25,32,193.0
697,E-2,130.0,0.25,39,193.0
698,G#4,130.5,0.25,36,193.0
699,B-2,130.5,0.25,36,193.0
700,B-4,130.75,0.25,39,193.0
701,E-2,131.0,0.25,36,193.0
702,B4,131.0,0.25,43,193.0
703,E-5,131.0,0.25,43,193.0
704,B-4,131.25,0.25,40,193.0
705,G#4,131.5,0.25,40,193.0
706,B-1,131.5,0.25,36,193.0
707,B-4,131.75,0.25,40,193.0
708,E-2,132.0,0.25,39,193.0
709,B4,132.0,0.25,43,193.0
710,E-5,132.0,0.25,43,193.0
711,B-4,132.25,0.25,40,193.0
712,G#4,132.5,0.25,40,193.0
713,B-2,132.5,0.25,36,193.0
714,B-4,132.75,0.25,40,193.0
715,E-2,133.0,0.25,36,193.0
716,B4,133.0,0.25,43,193.0
717,E-5,133.0,0.25,43,193.0
718,B-1,133.5,0.25,36,193.0
719,G#4,133.5,0.25,40,193.0
720,B4,133.5,0.25,40,193.0
721,E-2,134.0,0.25,39,193.0
722,B4,134.0,0.25,40,193.0
723,G#4,134.0,0.25,40,193.0
724,B-2,134.5,0.25,36,193.0
725,B4,134.5,0.25,40,193.0
726,E-5,134.5,0.25,40,193.0
727,E-2,135.0,0.25,36,193.0
728,B-4,135.0,0.25,43,193.0
729,D5,135.0,0.25,43,193.0
730,B-1,135.5,0.25,36,193.0
731,F4,135.5,0.25,40,193.0
732,B-4,135.5,0.25,40,193.0
733,E-2,136.0,0.25,39,193.0
734,F4,136.0,0.25,40,193.0
735,B-4,136.0,0.25,40,193.0
736,B-2,136.5,0.25,36,193.0
737,B-4,136.5,0.25,40,193.0
738,D5,136.5,0.25,40,193.0
739,E-2,137.0,0.25,36,193.0
740,B-4,137.0,0.75,46,193.0
741,D5,137.0,0.75,46,193.0
742,F#5,138.0,1.5,70,193.0
743,B4,138.0,1.5,70,193.0
744,B5,138.5,0.25,78,193.0
745,C#6,138.75,0.25,78,193.0
746,E-6,139.0,0.25,90,193.0
747,F#6,139.0,0.25,90,193.0
748,C#6,139.25,0.25,77,193.0
749,B5,139.5,0.25,77,193.0
750,C#6,139.75,0.25,77,193.0
751,F#6,140.0,229/500,81,193.0
752,E-6,140.0,229/500,81,193.0
753,F#4,140.0,1.5,70,193.0
754,C#5,140.0,1.5,70,193.0
755,F#5,140.5,0.25,77,193.0
756,G#5,140.75,0.25,77,193.0
757,C#6,141.0,0.25,90,193.0
758,B-5,141.0,0.25,90,193.0
759,G#5,141.25,0.25,77,193.0
760,F#5,141.5,0.25,74,193.0
761,G#5,141.75,0.25,74,193.0
762,C#6,142.0,229/500,83,193.0
763,B-5,142.0,229/500,83,193.0
764,E4,142.0,1.5,70,193.0
765,B4,142.0,1.5,70,193.0
766,E5,142.5,0.25,77,193.0
767,F#5,142.75,0.25,77,193.0
768,G#5,143.0,0.25,90,193.0
769,B5,143.0,0.25,90,193.0
770,F#5,143.25,0.25,74,193.0
771,E5,143.5,0.25,74,193.0
772,F#5,143.75,0.25,74,193.0
773,B5,144.0,229/500,83,193.0
774,G#5,144.0,229/500,83,193.0
775,B3,144.0,1.5,70,193.0
776,F#4,144.0,1.5,70,193.0
777,B4,144.5,0.25,78,193.0
778,C#5,144.75,0.25,78,193.0
779,F#5,145.0,0.25,91,193.0
780,E-5,145.0,0.25,91,193.0
781,C#5,145.25,0.25,74,193.0
782,B4,145.5,0.25,74,193.0
783,B-2,145.5,0.25,70,193.0
784,C#5,145.75,0.25,74,193.0
785,B2,145.75,0.25,70,193.0
786,C#3,146.0,0.25,81,193.0
787,F#5,146.0,229/500,81,193.0
788,E-5,146.0,229/500,81,193.0
789,B2,146.25,0.25,70,193.0
790,B-3,146.5,0.25,72,193.0
791,B-2,146.5,0.25,70,193.0
792,B3,146.75,0.25,72,193.0
793,C#4,147.0,0.25,81,193.0
794,B2,147.0,0.25,73,193.0
795,B3,147.25,0.25,70,193.0
796,B-2,147.25,0.25,67,193.0
797,B-3,147.5,0.25,70,193.0
798,G#2,147.5,0.25,67,193.0
799,B3,148.0,0.25,77,193.0
800,B-2,148.0,0.25,72,193.0
801,B-3,148.25,0.25,65,193.0
802,G#2,148.25,0.25,63,193.0
803,G#3,148.5,0.25,65,193.0
804,F#2,148.5,0.25,63,193.0
805,B-3,149.0,0.25,72,193.0
806,G#2,149.0,0.25,70,193.0
807,G#3,149.25,0.25,64,193.0
808,F#2,149.25,0.25,63,193.0
809,F#3,149.5,0.25,64,193.0
810,F2,149.5,0.25,63,193.0
811,G#3,150.0,0.25,69,193.0
812,F#3,150.25,0.25,63,193.0
813,F3,150.5,0.25,63,193.0
814,G#2,152.0,0.25,45,193.0
815,F#2,152.25,0.25,41,193.0
816,E2,152.5,0.25,41,193.0
817,G#3,153.0,0.25,45,193.0
818,F#3,153.25,0.25,42,193.0
819,E3,153.5,0.25,42,193.0
820,E-2,154.0,2.0,77,193.0
821,B-2,154.0,2.0,77,193.0
822,E-3,155.0,0.25,78,193.0
823,B-3,155.25,0.25,73,193.0
824,E-4,155.5,0.188,73,193.0
825,E-4,155.75,0.25,73,193.0
826,B-4,156.0,0.25,76,193.0
827,B-4,156.0,0.5,92,193.0
828,E-4,156.0,0.5,92,193.0
829,E-5,156.25,0.188,81,193.0
830,E-5,156.5,0.25,85,193.0
831,B-5,156.75,0.188,87,193.0
832,E-5,157.0,0.5,92,193.0
833,E-6,157.0,0.5,92,193.0
834,B-5,157.0,0.5,92,193.0
835,G#1,157.5,0.25,48,193.0
836,B-1,157.75,0.25,48,193.0
837,B1,158.0,0.25,54,193.0
838,B-1,158.25,0.25,48,193.0
839,G#1,158.5,0.25,48,193.0
840,B-1,158.75,0.25,48,193.0
841,B1,159.0,0.25,51,193.0
842,B2,159.0,2.0,36,193.0
843,D3,159.0,2.0,36,193.0
844,F3,159.0,2.0,36,193.0
845,B-1,159.25,0.25,48,193.0
846,G#1,159.5,0.25,48,193.0
847,B-1,159.75,0.25,48,193.0
848,B1,160.0,0.25,58,193.0
849,G#1,160.5,0.25,53,193.0
850,G#1,161.0,0.25,53,193.0
851,B2,161.5,0.5,36,193.0
852,D3,161.5,0.5,36,193.0
853,F3,161.5,0.5,36,193.0
854,B-2,162.5,0.25,52,193.0
855,B-2,163.0,0.25,52,193.0
856,D3,163.0,0.25,41,193.0
857,F3,163.0,0.25,41,193.0
858,B3,163.0,0.25,41,193.0
859,B2,163.5,0.25,54,193.0
860,D3,163.5,0.25,44,193.0
861,F3,163.5,0.25,44,193.0
862,B3,163.5,0.25,44,193.0
863,B2,164.0,0.25,56,193.0
864,D3,164.0,0.25,41,193.0
865,F3,164.0,0.25,41,193.0
866,B-3,164.0,0.25,41,193.0
867,D3,164.5,0.25,41,193.0
868,F3,164.5,0.25,41,193.0
869,B-3,164.5,0.25,41,193.0
870,D3,165.0,0.25,44,193.0
871,F3,165.0,0.25,44,193.0
872,A3,165.0,0.25,44,193.0
873,B1,165.5,0.25,54,193.0
874,D3,165.5,0.25,47,193.0
875,F3,165.5,0.25,47,193.0
876,A3,165.5,0.25,47,193.0
877,C#2,165.75,0.25,54,193.0
878,D2,166.0,0.25,61,193.0
879,D3,166.0,0.25,46,193.0
880,F3,166.0,0.25,46,193.0
881,G#3,166.0,0.25,46,193.0
882,C#2,166.25,0.25,54,193.0
883,B1,166.5,0.25,54,193.0
884,D3,166.5,0.25,44,193.0
885,F3,166.5,0.25,44,193.0
886,G#3,166.5,0.25,44,193.0
887,C#2,166.75,0.25,54,193.0
888,D2,167.0,0.25,57,193.0
889,C#2,167.25,0.25,54,193.0
890,B1,167.5,0.25,54,193.0
891,D3,167.5,2.0,41,193.0
892,F3,167.5,2.0,41,193.0
893,G#3,167.5,2.0,41,193.0
894,C#2,167.75,0.25,54,193.0
895,D2,168.0,0.25,65,193.0
896,B1,168.5,0.25,60,193.0
897,B1,169.0,0.25,60,193.0
898,D3,170.0,0.5,41,193.0
899,F3,170.0,0.5,41,193.0
900,G#3,170.0,0.5,41,193.0
901,C#3,170.5,0.25,54,193.0
902,C#3,171.0,0.25,54,193.0
903,D3,171.5,0.25,56,193.0
904,F3,171.5,0.25,52,193.0
905,G#3,171.5,0.25,52,193.0
906,D4,171.5,0.25,52,193.0
907,D3,172.0,0.25,61,193.0
908,F3,172.0,0.25,53,193.0
909,G#3,172.0,0.25,53,193.0
910,D4,172.0,0.25,53,193.0
911,F3,172.5,0.25,52,193.0
912,G#3,172.5,0.25,52,193.0
913,C#4,172.5,0.25,52,193.0
914,F3,173.0,0.25,52,193.0
915,G#3,173.0,0.25,52,193.0
916,C#4,173.0,0.25,52,193.0
917,F3,173.5,0.25,56,193.0
918,G#3,173.5,0.25,56,193.0
919,C4,173.5,0.25,56,193.0
920,F3,174.0,0.25,63,193.0
921,G#3,174.0,0.25,63,193.0
922,C4,174.0,0.25,63,193.0
923,E3,174.5,0.25,58,193.0
924,F3,174.5,0.25,60,193.0
925,G#3,174.5,0.25,60,193.0
926,B3,174.5,0.25,60,193.0
927,E3,175.0,0.25,58,193.0
928,F3,175.0,0.25,58,193.0
929,G#3,175.0,0.25,58,193.0
930,B3,175.0,0.25,58,193.0
931,F3,175.5,0.25,63,193.0
932,G#3,175.5,0.25,54,193.0
933,B3,175.5,0.25,54,193.0
934,F4,175.5,0.25,54,193.0
935,F3,176.0,0.25,67,193.0
936,G#3,176.0,0.25,57,193.0
937,B3,176.0,0.25,57,193.0
938,F4,176.0,0.25,57,193.0
939,G#3,176.5,0.25,54,193.0
940,B3,176.5,0.25,54,193.0
941,E4,176.5,0.25,54,193.0
942,G#3,177.0,0.25,54,193.0
943,B3,177.0,0.25,54,193.0
944,E4,177.0,0.25,54,193.0
945,G#3,177.5,0.25,59,193.0
946,C4,177.5,0.25,59,193.0
947,E-4,177.5,0.25,59,193.0
948,G#3,178.0,0.25,65,193.0
949,B3,178.0,0.25,65,193.0
950,E-4,178.0,0.25,65,193.0
951,G3,178.5,0.25,63,193.0
952,G#3,178.5,0.25,62,193.0
953,B3,178.5,0.25,62,193.0
954,D4,178.5,0.25,62,193.0
955,G3,179.0,0.25,63,193.0
956,G#3,179.0,0.25,60,193.0
957,B3,179.0,0.25,60,193.0
958,D4,179.0,0.25,60,193.0
959,G#3,179.5,0.25,68,193.0
960,B3,179.5,0.25,62,193.0
961,D4,179.5,0.25,62,193.0
962,G#4,179.5,0.25,62,193.0
963,G#3,180.0,0.25,69,193.0
964,B3,180.0,0.25,62,193.0
965,D4,180.0,0.25,62,193.0
966,G#4,180.0,0.25,62,193.0
967,B3,180.5,0.25,59,193.0
968,D4,180.5,0.25,59,193.0
969,G4,180.5,0.25,59,193.0
970,B3,181.0,0.25,59,193.0
971,D4,181.0,0.25,59,193.0
972,G4,181.0,0.25,59,193.0
973,B3,181.5,0.25,64,193.0
974,D4,181.5,0.25,64,193.0
975,F#4,181.5,0.25,64,193.0
976,B3,182.0,0.25,69,193.0
977,D4,182.0,0.25,69,193.0
978,F#4,182.0,0.25,69,193.0
979,B-3,182.5,0.25,70,193.0
980,B3,182.5,0.25,64,193.0
981,D4,182.5,0.25,64,193.0
982,F4,182.5,0.25,64,193.0
983,B-3,183.0,0.25,76,193.0
984,B3,183.0,0.25,62,193.0
985,D4,183.0,0.25,62,193.0
986,F4,183.0,0.25,62,193.0
987,D4,183.5,0.25,60,193.0
988,F4,183.5,0.25,60,193.0
989,B4,183.5,0.25,60,193.0
990,D4,184.0,0.25,66,193.0
991,F4,184.0,0.25,66,193.0
992,B4,184.0,0.25,66,193.0
993,C#4,184.5,0.25,74,193.0
994,D4,184.5,0.25,64,193.0
995,F4,184.5,0.25,64,193.0
996,B-4,184.5,0.25,64,193.0
997,C#4,185.0,0.25,78,193.0
998,D4,185.0,0.25,61,193.0
999,F4,185.0,0.25,61,193.0
1000,B-4,185.0,0.25,61,193.0
1001,F4,185.5,0.25,63,193.0
1002,G#4,185.5,0.25,63,193.0
1003,D5,185.5,0.25,63,193.0
1004,F4,186.0,0.25,69,193.0
1005,G#4,186.0,0.25,69,193.0
1006,D5,186.0,0.25,69,193.0
1007,E4,186.5,0.25,76,193.0
1008,F4,186.5,0.25,66,193.0
1009,G#4,186.5,0.25,66,193.0
1010,C#5,186.5,0.25,66,193.0
1011,E4,187.0,0.25,82,193.0
1012,F4,187.0,0.25,64,193.0
1013,G#4,187.0,0.25,64,193.0
1014,C#5,187.0,0.25,64,193.0
1015,G#4,187.5,0.25,65,193.0
1016,B4,187.5,0.25,65,193.0
1017,F5,187.5,0.25,65,193.0
1018,G#4,188.0,0.25,70,193.0
1019,B4,188.0,0.25,70,193.0
1020,F5,188.0,0.25,70,193.0
1021,G4,188.5,0.25,80,193.0
1022,G#4,188.5,0.25,69,193.0
1023,B4,188.5,0.25,69,193.0
1024,E5,188.5,0.25,69,193.0
1025,G4,189.0,0.25,85,193.0
1026,G#4,189.0,0.25,66,193.0
1027,B4,189.0,0.25,66,193.0
1028,E5,189.0,0.25,66,193.0
1029,B4,189.5,0.25,76,193.0
1030,D5,189.5,0.25,76,193.0
1031,G#5,189.5,0.25,76,193.0
1032,B4,190.0,0.25,84,193.0
1033,D5,190.0,0.25,84,193.0
1034,G#5,190.0,0.25,84,193.0
1035,G4,190.0,0.25,36,193.0
1036,C4,190.0,0.25,36,193.0
1037,B4,190.5,0.25,80,193.0
1038,D5,190.5,0.25,80,193.0
1039,G5,190.5,0.25,80,193.0
1040,G4,190.5,0.25,32,193.0
1041,C4,190.5,0.25,32,193.0
1042,B4,191.0,0.25,77,193.0
1043,D5,191.0,0.25,77,193.0
1044,G5,191.0,0.25,77,193.0
1045,G4,191.0,0.25,32,193.0
1046,C4,191.0,0.25,32,193.0
1047,C5,191.5,0.25,36,193.0
1048,G4,191.5,0.25,32,193.0
1049,C4,191.5,0.25,32,193.0
1050,D5,191.75,0.25,36,193.0
1051,G5,192.0,0.25,39,193.0
1052,E5,192.0,0.25,39,193.0
1053,G4,192.0,0.25,36,193.0
1054,C4,192.0,0.25,36,193.0
1055,D5,192.25,0.25,36,193.0
1056,C5,192.5,0.25,36,193.0
1057,G4,192.5,0.25,32,193.0
1058,C4,192.5,0.25,32,193.0
1059,D5,192.75,0.25,36,193.0
1060,E5,193.0,0.25,37,193.0
1061,G5,193.0,0.25,37,193.0
1062,G4,193.0,0.25,32,193.0
1063,C4,193.0,0.25,32,193.0
1064,D5,193.25,0.25,36,193.0
1065,C5,193.5,0.25,36,193.0
1066,G4,193.5,0.25,32,193.0
1067,C4,193.5,0.25,32,193.0
1068,D5,193.75,0.25,36,193.0
1069,G5,194.0,0.25,39,193.0
1070,E5,194.0,0.25,39,193.0
1071,G4,194.0,0.25,36,193.0
1072,C4,194.0,0.25,36,193.0
1073,E5,194.5,0.25,36,193.0
1074,C5,194.5,0.25,36,193.0
1075,G4,194.5,0.25,32,193.0
1076,C4,194.5,0.25,32,193.0
1077,E5,195.0,0.25,36,193.0
1078,C5,195.0,0.25,36,193.0
1079,G4,195.0,0.25,32,193.0
1080,C4,195.0,0.25,32,193.0
1081,G5,195.5,0.25,36,193.0
1082,E5,195.5,0.25,36,193.0
1083,G4,195.5,0.25,32,193.0
1084,C4,195.5,0.25,32,193.0
1085,F5,196.0,0.25,40,193.0
1086,A5,196.0,0.25,40,193.0
1087,G4,196.0,0.25,36,193.0
1088,C4,196.0,0.25,36,193.0
1089,B4,196.5,0.25,36,193.0
1090,D5,196.5,0.25,36,193.0
1091,G4,196.5,0.25,32,193.0
1092,C4,196.5,0.25,32,193.0
1093,B4,197.0,0.25,36,193.0
1094,D5,197.0,0.25,36,193.0
1095,G4,197.0,0.25,32,193.0
1096,C4,197.0,0.25,32,193.0
1097,F5,197.5,0.25,40,193.0
1098,A5,197.5,0.25,40,193.0
1099,C4,197.5,0.25,34,193.0
1100,G4,197.5,0.25,34,193.0
1101,F5,198.0,1.5,44,193.0
1102,A5,198.0,1.5,44,193.0
1103,G4,198.0,0.25,38,193.0
1104,C4,198.0,0.25,38,193.0
1105,G4,198.5,0.25,34,193.0
1106,C4,198.5,0.25,34,193.0
1107,C4,199.0,0.25,34,193.0
1108,G4,199.0,0.25,34,193.0
1109,C5,199.5,0.25,38,193.0
1110,G4,199.5,0.25,34,193.0
1111,C4,199.5,0.25,34,193.0
1112,D5,199.75,0.25,38,193.0
1113,G5,200.0,0.25,41,193.0
1114,E5,200.0,0.25,41,193.0
1115,C4,200.0,0.25,38,193.0
1116,G4,200.0,0.25,38,193.0
1117,E5,200.5,0.25,38,193.0
1118,C5,200.5,0.25,38,193.0
1119,G4,200.5,0.25,34,193.0
1120,C4,200.5,0.25,34,193.0
1121,E5,201.0,0.25,39,193.0
1122,C5,201.0,0.25,39,193.0
1123,G4,201.0,0.25,34,193.0
1124,C4,201.0,0.25,34,193.0
1125,G5,201.5,0.25,38,193.0
1126,E5,201.5,0.25,38,193.0
1127,C4,201.5,0.25,40,193.0
1128,G4,201.5,0.25,40,193.0
1129,F5,202.0,0.25,42,193.0
1130,A5,202.0,0.25,42,193.0
1131,G4,202.0,0.25,45,193.0
1132,C4,202.0,0.25,45,193.0
1133,B4,202.5,0.25,38,193.0
1134,D5,202.5,0.25,38,193.0
1135,G4,202.5,0.25,40,193.0
1136,C4,202.5,0.25,40,193.0
1137,B4,203.0,0.25,39,193.0
1138,D5,203.0,0.25,39,193.0
1139,C4,203.0,0.25,41,193.0
1140,G4,203.0,0.25,41,193.0
1141,F5,203.5,0.25,51,193.0
1142,A5,203.5,0.25,51,193.0
1143,G4,203.5,0.25,42,193.0
1144,C4,203.5,0.25,42,193.0
1145,E5,204.0,0.25,55,193.0
1146,G5,204.0,0.25,55,193.0
1147,G4,204.0,0.25,47,193.0
1148,C4,204.0,0.25,47,193.0
1149,C5,204.5,0.25,50,193.0
1150,E5,204.5,0.25,50,193.0
1151,G4,204.5,0.25,43,193.0
1152,C4,204.5,0.25,43,193.0
1153,F5,205.0,0.25,58,193.0
1154,A5,205.0,0.25,58,193.0
1155,C4,205.0,0.25,45,193.0
1156,G4,205.0,0.25,45,193.0
1157,B4,205.5,0.25,52,193.0
1158,D5,205.5,0.25,52,193.0
1159,G4,205.5,0.25,45,193.0
1160,C4,205.5,0.25,45,193.0
1161,E5,206.0,0.25,60,193.0
1162,G5,206.0,0.25,60,193.0
1163,G4,206.0,0.25,51,193.0
1164,C4,206.0,0.25,51,193.0
1165,C5,206.5,0.25,54,193.0
1166,E5,206.5,0.25,54,193.0
1167,G4,206.5,0.25,46,193.0
1168,C4,206.5,0.25,46,193.0
1169,F5,207.0,0.25,63,193.0
1170,A5,207.0,0.25,63,193.0
1171,B4,207.0,0.25,63,193.0
1172,E4,207.0,0.25,63,193.0
1173,B4,207.5,0.25,56,193.0
1174,D5,207.5,0.25,56,193.0
1175,B4,207.5,0.25,58,193.0
1176,E4,207.5,0.25,58,193.0
1177,E5,208.0,0.25,64,193.0
1178,G5,208.0,0.25,64,193.0
1179,E4,208.0,0.25,63,193.0
1180,B4,208.0,0.25,63,193.0
1181,C5,208.5,0.25,59,193.0
1182,E5,208.5,0.25,59,193.0
1183,E4,208.5,0.25,58,193.0
1184,B4,208.5,0.25,58,193.0
1185,C#6,209.0,0.25,78,193.0
1186,A5,209.0,0.25,78,193.0
1187,E4,209.0,0.25,63,193.0
1188,B4,209.0,0.25,63,193.0
1189,E-5,209.5,0.25,72,193.0
1190,F#5,209.5,0.25,72,193.0
1191,E4,209.5,0.25,58,193.0
1192,B4,209.5,0.25,58,193.0
1193,B5,210.0,0.25,79,193.0
1194,G#5,210.0,0.25,79,193.0
1195,E4,210.0,0.25,63,193.0
1196,B4,210.0,0.25,63,193.0
1197,E5,210.5,0.25,73,193.0
1198,G#5,210.5,0.25,73,193.0
1199,E4,210.5,0.25,59,193.0
1200,B4,210.5,0.25,59,193.0
1201,C#6,211.0,0.25,79,193.0
1202,A5,211.0,0.25,79,193.0
1203,E4,211.0,0.25,64,193.0
1204,B4,211.0,0.25,64,193.0
1205,E-5,211.5,0.25,72,193.0
1206,F#5,211.5,0.25,72,193.0
1207,E4,211.5,0.25,61,193.0
1208,B4,211.5,0.25,61,193.0
1209,B5,212.0,0.25,79,193.0
1210,G#5,212.0,0.25,79,193.0
1211,E4,212.0,0.25,68,193.0
1212,B4,212.0,0.25,68,193.0
1213,E5,212.5,0.25,76,193.0
1214,G#5,212.5,0.25,76,193.0
1215,E4,212.5,0.25,64,193.0
1216,B4,212.5,0.25,64,193.0
1217,G#5,213.0,0.25,82,193.0
1218,B5,213.0,0.25,82,193.0
1219,E4,213.0,0.25,72,193.0
1220,B4,213.0,0.25,72,193.0
1221,E5,213.5,0.25,79,193.0
1222,G#5,213.5,0.25,79,193.0
1223,E4,213.5,0.25,67,193.0
1224,B4,213.5,0.25,67,193.0
1225,B5,214.0,0.25,87,193.0
1226,G#5,214.0,0.25,87,193.0
1227,E5,214.5,0.25,83,193.0
1228,G#5,214.5,0.25,83,193.0
1229,G#5,215.0,0.25,90,193.0
1230,B5,215.0,0.25,90,193.0
1231,E5,215.5,0.25,87,193.0
1232,G#5,215.5,0.25,87,193.0
1233,B-3,216.0,2.0,79,193.0
1234,E4,216.0,0.25,68,193.0
1235,B4,216.0,0.25,68,193.0
1236,E4,216.5,0.25,64,193.0
1237,B4,216.5,0.25,64,193.0
1238,E4,217.0,0.25,72,193.0
1239,B4,217.0,0.25,72,193.0
1240,E4,217.5,0.25,67,193.0
1241,B4,217.5,0.25,67,193.0
1242,B5,218.0,0.25,87,193.0
1243,G#5,218.0,0.25,87,193.0
1244,E5,218.5,0.25,83,193.0
1245,G#5,218.5,0.25,83,193.0
1246,G#5,219.0,0.25,90,193.0
1247,B5,219.0,0.25,90,193.0
1248,E5,219.5,0.25,87,193.0
1249,G#5,219.5,0.25,87,193.0
1250,B-3,220.0,2.0,76,193.0
1251,E4,220.0,0.25,64,193.0
1252,B4,220.0,0.25,64,193.0
1253,E4,220.5,0.25,61,193.0
1254,B4,220.5,0.25,61,193.0
1255,E4,221.0,0.25,64,193.0
1256,B4,221.0,0.25,64,193.0
1257,E4,221.5,0.25,59,193.0
1258,B4,221.5,0.25,59,193.0
1259,B5,222.0,0.25,85,193.0
1260,G#5,222.0,0.25,85,193.0
1261,A3,222.5,0.25,45,193.0
1262,E5,222.5,0.25,79,193.0
1263,G#5,222.5,0.25,79,193.0
1264,G#3,223.0,0.25,45,193.0
1265,G#5,223.0,0.25,85,193.0
1266,B5,223.0,0.25,85,193.0
1267,G3,223.5,0.25,45,193.0
1268,E5,223.5,0.25,81,193.0
1269,G#5,223.5,0.25,81,193.0
1270,B-3,224.0,2.0,72,193.0
1271,F#3,224.0,0.25,45,193.0
1272,F3,224.5,0.25,45,193.0
1273,E3,225.0,0.25,45,193.0
1274,E-3,225.5,0.25,45,193.0
1275,B-3,226.0,2.0,72,193.0
1276,D3,226.5,0.25,45,193.0
1277,C#3,227.0,0.25,45,193.0
1278,C3,227.5,0.25,45,193.0
1279,B-3,228.0,2.0,72,193.0
1280,B2,228.0,0.25,45,193.0
1281,B-2,228.5,0.25,45,193.0
1282,A2,229.0,0.25,45,193.0
1283,G#2,229.5,0.25,45,193.0
1284,B-3,230.0,2.0,72,193.0
1285,G2,231.0,0.5,41,193.0
1286,B-3,232.0,2.0,72,193.0
1287,F#2,233.0,0.5,40,193.0
1288,B-3,234.0,2.0,72,193.0
1289,F2,235.0,0.5,37,193.0
1290,B-3,236.0,2.0,72,193.0
1291,E2,237.0,0.5,36,193.0
1292,B-3,238.0,2.0,72,193.0
1293,B-3,240.0,1.0,72,193.0
1294,E-2,240.0,0.25,36,193.0
1295,B-2,240.5,0.25,33,193.0
1296,E-2,241.0,0.25,33,193.0
1297,E-4,241.5,0.25,36,193.0
1298,B-1,241.5,0.25,33,193.0
1299,F4,241.75,0.25,36,193.0
1300,E-2,242.0,0.25,36,193.0
1301,B-4,242.0,0.25,39,193.0
1302,F#4,242.0,0.25,39,193.0
1303,F4,242.25,0.25,36,193.0
1304,E-4,242.5,0.25,36,193.0
1305,B-2,242.5,0.25,33,193.0
1306,F4,242.75,0.25,36,193.0
1307,E-2,243.0,0.25,33,193.0
1308,F#4,243.0,0.25,37,193.0
1309,B-4,243.0,0.25,37,193.0
1310,F4,243.25,0.25,36,193.0
1311,E-4,243.5,0.25,36,193.0
1312,B-1,243.5,0.25,33,193.0
1313,F4,243.75,0.25,36,193.0
1314,E-2,244.0,0.25,36,193.0
1315,B-4,244.0,0.25,39,193.0
1316,F#4,244.0,0.25,39,193.0
1317,B-2,244.5,0.25,33,193.0
1318,F#4,244.5,0.25,36,193.0
1319,E-4,244.5,0.25,36,193.0
1320,E-2,245.0,0.25,33,193.0
1321,F#4,245.0,0.25,36,193.0
1322,E-4,245.0,0.25,36,193.0
1323,B-1,245.5,0.25,33,193.0
1324,B-4,245.5,0.25,36,193.0
1325,F#4,245.5,0.25,36,193.0
1326,E-2,246.0,0.25,36,193.0
1327,F4,246.0,0.25,40,193.0
1328,A4,246.0,0.25,40,193.0
1329,B-2,246.5,0.25,32,193.0
1330,C4,246.5,0.25,36,193.0
1331,F4,246.5,0.25,36,193.0
1332,E-2,247.0,0.25,32,193.0
1333,C4,247.0,0.25,36,193.0
1334,F4,247.0,0.25,36,193.0
1335,B-1,247.5,0.25,32,193.0
1336,F4,247.5,0.25,36,193.0
1337,A4,247.5,0.25,36,193.0
1338,E-2,248.0,0.25,39,193.0
1339,F4,248.0,1.5,43,193.0
1340,A4,248.0,1.5,43,193.0
1341,B-2,248.5,0.25,36,193.0
1342,E-2,249.0,0.25,36,193.0
1343,G#4,249.5,0.25,36,193.0
1344,B-1,249.5,0.25,36,193.0
1345,B-4,249.75,0.25,39,193.0
1346,E-2,250.0,0.25,39,193.0
1347,B4,250.0,0.25,43,193.0
1348,E-5,250.0,0.25,43,193.0
1349,B-4,250.25,0.25,40,193.0
1350,G#4,250.5,0.25,40,193.0
1351,B-2,250.5,0.25,36,193.0
1352,B-4,250.75,0.25,40,193.0
1353,E-2,251.0,0.25,36,193.0
1354,B4,251.0,0.25,43,193.0
1355,E-5,251.0,0.25,43,193.0
1356,B-4,251.25,0.25,40,193.0
1357,G#4,251.5,0.25,40,193.0
1358,B-1,251.5,0.25,36,193.0
1359,B-4,251.75,0.25,40,193.0
1360,E-2,252.0,0.25,39,193.0
1361,B4,252.0,0.25,43,193.0
1362,E-5,252.0,0.25,43,193.0
1363,B-2,252.5,0.25,36,193.0
1364,G#4,252.5,0.25,40,193.0
1365,B4,252.5,0.25,40,193.0
1366,E-2,253.0,0.25,36,193.0
1367,B4,253.0,0.25,40,193.0
1368,G#4,253.0,0.25,40,193.0
1369,B-1,253.5,0.25,36,193.0
1370,B4,253.5,0.25,40,193.0
1371,E-5,253.5,0.25,40,193.0
1372,E-2,254.0,0.25,39,193.0
1373,B-4,254.0,0.25,43,193.0
1374,D5,254.0,0.25,43,193.0
1375,B-2,254.5,0.25,36,193.0
1376,F4,254.5,0.25,40,193.0
1377,B-4,254.5,0.25,40,193.0
1378,E-2,255.0,0.25,36,193.0
1379,F4,255.0,0.25,40,193.0
1380,B-4,255.0,0.25,40,193.0
1381,B-4,255.5,0.25,40,193.0
1382,D5,255.5,0.25,40,193.0
1383,B-4,256.0,0.75,46,193.0
1384,D5,256.0,0.75,46,193.0
1385,F#5,256.0,1.5,70,193.0
1386,B4,256.0,1.5,70,193.0
1387,B5,257.5,0.25,78,193.0
1388,C#6,257.75,0.25,78,193.0
1389,E-6,258.0,0.25,90,193.0
1390,F#6,258.0,0.25,90,193.0
1391,F#4,258.0,1.5,70,193.0
1392,C#5,258.0,1.5,70,193.0
1393,C#6,258.25,0.25,77,193.0
1394,B5,258.5,0.25,77,193.0
1395,C#6,258.75,0.25,77,193.0
1396,F#6,259.0,229/500,81,193.0
1397,E-6,259.0,229/500,81,193.0
1398,F#5,259.5,0.25,77,193.0
1399,G#5,259.75,0.25,77,193.0
1400,C#6,260.0,0.25,90,193.0
1401,B-5,260.0,0.25,90,193.0
1402,E4,260.0,1.5,70,193.0
1403,B4,260.0,1.5,70,193.0
1404,G#5,260.25,0.25,77,193.0
1405,F#5,260.5,0.25,74,193.0
1406,G#5,260.75,0.25,74,193.0
1407,C#6,261.0,229/500,83,193.0
1408,B-5,261.0,229/500,83,193.0
1409,E5,261.5,0.25,77,193.0
1410,F#5,261.75,0.25,77,193.0
1411,G#5,262.0,0.25,90,193.0
1412,B5,262.0,0.25,90,193.0
1413,B3,262.0,1.5,70,193.0
1414,F#4,262.0,1.5,70,193.0
1415,F#5,262.25,0.25,74,193.0
1416,E5,262.5,0.25,74,193.0
1417,F#5,262.75,0.25,74,193.0
1418,B5,263.0,229/500,83,193.0
1419,G#5,263.0,229/500,83,193.0
1420,B4,263.5,0.25,78,193.0
1421,B-2,263.5,0.25,70,193.0
1422,C#5,263.75,0.25,78,193.0
1423,B2,263.75,0.25,70,193.0
1424,C#3,264.0,0.25,81,193.0
1425,F#5,264.0,0.25,91,193.0
1426,E-5,264.0,0.25,91,193.0
1427,C#5,264.25,0.25,74,193.0
1428,B2,264.25,0.25,70,193.0
1429,B4,264.5,0.25,74,193.0
1430,B-2,264.5,0.25,70,193.0
1431,C#5,264.75,0.25,74,193.0
1432,B2,265.0,0.25,73,193.0
1433,F#5,265.0,229/500,81,193.0
1434,E-5,265.0,229/500,81,193.0
1435,B-2,265.25,0.25,67,193.0
1436,B-3,265.5,0.25,72,193.0
1437,G#2,265.5,0.25,67,193.0
1438,B3,265.75,0.25,72,193.0
1439,C#4,266.0,0.25,81,193.0
1440,B-2,266.0,0.25,72,193.0
1441,B3,266.25,0.25,70,193.0
1442,G#2,266.25,0.25,63,193.0
1443,B-3,266.5,0.25,70,193.0
1444,F#2,266.5,0.25,63,193.0
1445,B3,267.0,0.25,77,193.0
1446,G#2,267.0,0.25,70,193.0
1447,B-3,267.25,0.25,65,193.0
1448,F#2,267.25,0.25,63,193.0
1449,G#3,267.5,0.25,65,193.0
1450,F2,267.5,0.25,63,193.0
1451,B-3,268.0,0.25,72,193.0
1452,G#3,268.25,0.25,64,193.0
1453,F#3,268.5,0.25,64,193.0
1454,G#3,269.0,0.25,69,193.0
1455,F#3,269.25,0.25,63,193.0
1456,F3,269.5,0.25,63,193.0
1457,G#2,270.0,0.25,45,193.0
1458,F#2,270.25,0.25,41,193.0
1459,E2,270.5,0.25,41,193.0
1460,G#3,272.0,0.25,45,193.0
1461,E-2,272.0,2.0,81,193.0
1462,B-2,272.0,2.0,81,193.0
1463,F#3,272.25,0.25,42,193.0
1464,E3,272.5,0.25,42,193.0
1465,E-3,274.0,0.25,82,193.0
1466,B-4,274.0,0.5,97,193.0
1467,E-4,274.0,0.5,97,193.0
1468,B-3,274.25,0.25,76,193.0
1469,E-4,274.5,0.188,76,193.0
1470,E-4,274.75,0.25,76,193.0
1471,B-4,275.0,0.25,80,193.0
1472,E-5,275.25,0.188,85,193.0
1473,E-5,275.5,0.25,89,193.0
1474,B-5,275.75,0.188,92,193.0
1475,E-5,276.0,0.5,95,193.0
1476,E-6,276.0,0.5,95,193.0
1477,B-5,276.0,0.5,95,193.0
