,note_name,start_time,duration,velocity,tempo
0,F#5,1.0,19/20,17,229.95
1,C#6,1.0,19/20,17,229.95
2,B-5,1.0,19/20,17,229.95
3,F#5,2.0,19/20,17,229.95
4,C#6,2.0,19/20,17,229.95
5,B-5,2.0,19/20,17,229.95
6,F#5,3.0,19/20,19,229.95
7,C#6,3.0,19/20,19,229.95
8,B-5,3.0,19/20,19,229.95
9,F#5,4.0,19/20,17,229.95
10,C#6,4.0,19/20,17,229.95
11,B-5,4.0,19/20,17,229.95
12,F#5,5.0,19/20,17,229.95
13,C#6,5.0,19/20,17,229.95
14,B-5,5.0,19/20,17,229.95
15,F#5,7.0,19/20,17,229.95
16,C#6,7.0,19/20,17,229.95
17,B-5,7.0,19/20,17,229.95
18,F#5,8.0,19/20,17,229.95
19,C#6,8.0,19/20,17,229.95
20,B-5,8.0,19/20,17,229.95
21,F#5,9.0,19/20,19,229.95
22,C#6,9.0,19/20,19,229.95
23,B-5,9.0,19/20,19,229.95
24,F#5,10.0,19/20,16,229.95
25,C#6,10.0,19/20,16,229.95
26,B-5,10.0,19/20,16,229.95
27,F#5,11.0,19/20,16,229.95
28,C#6,11.0,19/20,16,229.95
29,B-5,11.0,19/20,16,229.95
30,C#5,12.0,4.5,35,229.95
31,F#5,13.0,19/20,17,229.95
32,C#6,13.0,19/20,17,229.95
33,B-5,13.0,19/20,17,229.95
34,F#5,14.0,19/20,17,229.95
35,C#6,14.0,19/20,17,229.95
36,B-5,14.0,19/20,17,229.95
37,F#5,15.0,19/20,19,229.95
38,C#6,15.0,19/20,19,229.95
39,B-5,15.0,19/20,19,229.95
40,F#5,16.0,19/20,16,229.95
41,C#6,16.0,19/20,16,229.95
42,B-5,16.0,19/20,16,229.95
43,E-5,16.5,1.5,34,229.95
44,F#5,17.0,19/20,16,229.95
45,E-6,17.0,19/20,16,229.95
46,B-5,17.0,19/20,16,229.95
47,E-5,18.0,3.0,38,229.95
48,F#5,19.0,19/20,19,229.95
49,B-5,19.0,19/20,19,229.95
50,E-6,19.0,19/20,19,229.95
51,F#5,20.0,19/20,19,229.95
52,B-5,20.0,19/20,19,229.95
53,E-6,20.0,19/20,19,229.95
54,C#5,21.0,1.5,35,229.95
55,F#5,22.0,19/20,19,229.95
56,B-5,22.0,19/20,19,229.95
57,C#6,22.0,19/20,19,229.95
58,B-4,22.5,1.5,33,229.95
59,C#5,23.0,19/20,19,229.95
60,B-5,23.0,19/20,19,229.95
61,F#5,23.0,19/20,19,229.95
62,F#4,24.0,3.0,37,229.95
63,B4,25.0,19/20,22,229.95
64,E-5,25.0,19/20,22,229.95
65,F#5,25.0,19/20,22,229.95
66,B4,26.0,19/20,22,229.95
67,E-5,26.0,19/20,22,229.95
68,F#5,26.0,19/20,22,229.95
69,G#4,27.0,3.0,35,229.95
70,B4,28.0,19/20,21,229.95
71,E-5,28.0,19/20,21,229.95
72,G#5,28.0,19/20,21,229.95
73,B4,29.0,19/20,21,229.95
74,E-5,29.0,19/20,21,229.95
75,G#5,29.0,19/20,21,229.95
76,B-4,30.0,6.0,38,229.95
77,C#5,31.0,19/20,19,229.95
78,F#5,31.0,19/20,19,229.95
79,B-5,31.0,19/20,19,229.95
80,C#5,32.0,19/20,19,229.95
81,F#5,32.0,19/20,19,229.95
82,B-5,32.0,19/20,19,229.95
83,C#5,33.0,19/20,21,229.95
84,F#5,33.0,19/20,21,229.95
85,B-5,33.0,19/20,21,229.95
86,C#5,34.0,19/20,19,229.95
87,F#5,34.0,19/20,19,229.95
88,B-5,34.0,19/20,19,229.95
89,C#5,35.0,19/20,19,229.95
90,F#5,35.0,19/20,19,229.95
91,B-5,35.0,19/20,19,229.95
92,C#5,36.0,3.0,39,229.95
93,F#5,37.0,19/20,23,229.95
94,C#6,37.0,19/20,23,229.95
95,B-5,37.0,19/20,23,229.95
96,F#5,38.0,19/20,23,229.95
97,B-5,38.0,19/20,23,229.95
98,C#6,38.0,19/20,23,229.95
99,F5,39.0,1.0,41,229.95
100,F#5,39.0,19/20,27,229.95
101,B-5,39.0,19/20,27,229.95
102,F6,39.0,19/20,27,229.95
103,E-5,40.0,1.0,39,229.95
104,E-6,40.0,19/20,25,229.95
105,B-5,40.0,19/20,25,229.95
106,F#5,40.0,19/20,25,229.95
107,C#5,41.0,1.0,39,229.95
108,F#5,41.0,19/20,25,229.95
109,B-5,41.0,19/20,25,229.95
110,C#6,41.0,19/20,25,229.95
111,E-5,42.0,1.5,44,229.95
112,F#5,43.0,19/20,27,229.95
113,E-6,43.0,19/20,27,229.95
114,B-5,43.0,19/20,27,229.95
115,C#5,43.5,1.5,42,229.95
116,F#5,44.0,19/20,25,229.95
117,B-5,44.0,19/20,25,229.95
118,C#6,44.0,19/20,25,229.95
119,B-4,45.0,1.5,41,229.95
120,C#5,46.0,19/20,29,229.95
121,B-5,46.0,19/20,29,229.95
122,F#5,46.0,19/20,29,229.95
123,F#4,46.5,1.5,39,229.95
124,B-4,47.0,19/20,25,229.95
125,C#5,47.0,19/20,25,229.95
126,F#5,47.0,19/20,25,229.95
127,F#4,48.0,3.0,42,229.95
128,B4,49.0,19/20,23,229.95
129,E-5,49.0,19/20,23,229.95
130,F#5,49.0,19/20,23,229.95
131,B4,50.0,19/20,23,229.95
132,E-5,50.0,19/20,23,229.95
133,F#5,50.0,19/20,23,229.95
134,B-4,51.0,1.0,42,229.95
135,B4,51.0,19/20,27,229.95
136,E-5,51.0,19/20,27,229.95
137,B-5,51.0,19/20,27,229.95
138,G#4,52.0,1.0,37,229.95
139,B4,52.0,19/20,24,229.95
140,E-5,52.0,19/20,24,229.95
141,G#5,52.0,19/20,24,229.95
142,F#4,53.0,1.0,37,229.95
143,B4,53.0,19/20,24,229.95
144,E-5,53.0,19/20,24,229.95
145,F#5,53.0,19/20,24,229.95
146,B-4,54.0,5.0,42,229.95
147,C#5,55.0,19/20,23,229.95
148,F#5,55.0,19/20,23,229.95
149,B-5,55.0,19/20,23,229.95
150,C#5,56.0,19/20,23,229.95
151,F#5,56.0,19/20,23,229.95
152,B-5,56.0,19/20,23,229.95
153,C#5,57.0,19/20,25,229.95
154,F#5,57.0,19/20,25,229.95
155,B-5,57.0,19/20,25,229.95
156,C#5,58.0,19/20,23,229.95
157,F#5,58.0,19/20,23,229.95
158,B-5,58.0,19/20,23,229.95
159,C#5,59.0,19/20,23,229.95
160,F#5,59.0,19/20,23,229.95
161,B-5,59.0,19/20,23,229.95
162,B-4,60.0,4.5,42,229.95
163,D5,61.0,19/20,29,229.95
164,F#5,61.0,19/20,29,229.95
165,B-5,61.0,19/20,29,229.95
166,D5,62.0,19/20,29,229.95
167,F#5,62.0,19/20,29,229.95
168,B-5,62.0,19/20,29,229.95
169,D4,63.0,1.0,38,229.95
170,F#3,63.0,1.0,38,229.95
171,D5,64.0,19/20,32,229.95
172,F#5,64.0,19/20,32,229.95
173,B-5,64.0,19/20,32,229.95
174,B-4,64.5,1.5,49,229.95
175,D5,65.0,19/20,35,229.95
176,F#5,65.0,19/20,35,229.95
177,B-5,65.0,19/20,35,229.95
178,B-4,66.0,3.0,52,229.95
179,E-5,67.0,19/20,34,229.95
180,F#5,67.0,19/20,34,229.95
181,B-5,67.0,19/20,34,229.95
182,E-5,68.0,19/20,34,229.95
183,F#5,68.0,19/20,34,229.95
184,B-5,68.0,19/20,34,229.95
185,E-4,69.0,3.0,48,229.95
186,F#4,70.0,19/20,29,229.95
187,B-4,70.0,19/20,29,229.95
188,E-5,70.0,19/20,29,229.95
189,F#4,71.0,19/20,29,229.95
190,B-4,71.0,19/20,29,229.95
191,E-5,71.0,19/20,29,229.95
192,B-4,72.0,4.0,42,229.95
193,D5,73.0,19/20,29,229.95
194,F#5,73.0,19/20,29,229.95
195,B-5,73.0,19/20,29,229.95
196,D5,74.0,19/20,29,229.95
197,F#5,74.0,19/20,29,229.95
198,B-5,74.0,19/20,29,229.95
199,F#3,75.0,1.0,38,229.95
200,D4,75.0,1.0,38,229.95
201,B4,76.0,1.0,49,229.95
202,D5,76.0,19/20,32,229.95
203,F#5,76.0,19/20,32,229.95
204,B5,76.0,19/20,32,229.95
205,C#5,77.0,1.0,49,229.95
206,D5,77.0,19/20,35,229.95
207,F#5,77.0,19/20,35,229.95
208,C#6,77.0,19/20,35,229.95
209,B-4,78.0,6.0,52,229.95
210,E-5,79.0,19/20,37,229.95
211,F#5,79.0,19/20,37,229.95
212,B-5,79.0,19/20,37,229.95
213,E-5,80.0,19/20,38,229.95
214,F#5,80.0,19/20,38,229.95
215,B-5,80.0,19/20,38,229.95
216,E-5,81.0,19/20,40,229.95
217,F#5,81.0,19/20,40,229.95
218,B-5,81.0,19/20,40,229.95
219,E-5,82.0,19/20,41,229.95
220,F#5,82.0,19/20,41,229.95
221,B-5,82.0,19/20,41,229.95
222,E-5,83.0,19/20,43,229.95
223,F#5,83.0,19/20,43,229.95
224,B-5,83.0,19/20,43,229.95
225,B-4,84.0,4.5,54,229.95
226,D5,85.0,19/20,35,229.95
227,F#5,85.0,19/20,35,229.95
228,B-5,85.0,19/20,35,229.95
229,D5,86.0,19/20,35,229.95
230,F#5,86.0,19/20,35,229.95
231,B-5,86.0,19/20,35,229.95
232,D5,87.0,19/20,35,229.95
233,F#5,87.0,19/20,35,229.95
234,B-5,87.0,19/20,35,229.95
235,D5,88.0,19/20,36,229.95
236,F#5,88.0,19/20,36,229.95
237,B-5,88.0,19/20,36,229.95
238,A4,88.5,1.5,48,229.95
239,D5,89.0,19/20,36,229.95
240,F#5,89.0,19/20,36,229.95
241,A5,89.0,19/20,36,229.95
242,A4,90.0,3.0,45,229.95
243,C#5,91.0,19/20,35,229.95
244,F5,91.0,19/20,35,229.95
245,A5,91.0,19/20,35,229.95
246,C#5,92.0,19/20,34,229.95
247,F5,92.0,19/20,34,229.95
248,A5,92.0,19/20,34,229.95
249,G#4,93.0,3.0,44,229.95
250,C#5,94.0,19/20,33,229.95
251,F5,94.0,19/20,33,229.95
252,G#5,94.0,19/20,33,229.95
253,C#5,95.0,19/20,33,229.95
254,F5,95.0,19/20,33,229.95
255,G#5,95.0,19/20,33,229.95
256,G#4,96.0,3.0,48,229.95
257,C5,97.0,19/20,35,229.95
258,E5,97.0,19/20,35,229.95
259,G#5,97.0,19/20,35,229.95
260,C5,98.0,19/20,35,229.95
261,E5,98.0,19/20,35,229.95
262,G#5,98.0,19/20,35,229.95
263,B-4,99.0,1.5,51,229.95
264,C5,100.0,62/125,33,229.95
265,E5,100.0,19/20,36,229.95
266,B-5,100.0,19/20,36,229.95
267,C5,100.5,1.5,50,229.95
268,E5,101.0,19/20,38,229.95
269,C6,101.0,19/20,38,229.95
270,G#4,102.0,3.0,57,229.95
271,C#5,103.0,19/20,36,229.95
272,F5,103.0,19/20,36,229.95
273,G#5,103.0,19/20,36,229.95
274,C#5,104.0,19/20,36,229.95
275,F5,104.0,19/20,36,229.95
276,G#5,104.0,19/20,36,229.95
277,F6,105.0,19/20,53,229.95
278,F5,105.0,249/250,58,229.95
279,C#5,106.0,1.0,56,229.95
280,F5,106.0,19/20,42,229.95
281,G#5,106.0,19/20,42,229.95
282,C#6,106.0,19/20,42,229.95
283,C5,107.0,1.0,56,229.95
284,F5,107.0,19/20,42,229.95
285,G#5,107.0,19/20,42,229.95
286,C6,107.0,19/20,42,229.95
287,B4,108.0,4.0,57,229.95
288,C#5,109.0,19/20,40,229.95
289,F5,109.0,19/20,40,229.95
290,B5,109.0,19/20,40,229.95
291,C#5,110.0,19/20,40,229.95
292,F5,110.0,19/20,40,229.95
293,B5,110.0,19/20,40,229.95
294,C#5,111.0,19/20,42,229.95
295,F5,111.0,19/20,42,229.95
296,B5,111.0,19/20,42,229.95
297,B-4,112.0,1.0,53,229.95
298,C#5,112.0,19/20,39,229.95
299,F5,112.0,19/20,39,229.95
300,B-5,112.0,19/20,39,229.95
301,A4,113.0,1.0,53,229.95
302,C#5,113.0,19/20,39,229.95
303,F5,113.0,19/20,39,229.95
304,A5,113.0,19/20,39,229.95
305,A4,114.0,3.0,55,229.95
306,C#5,115.0,19/20,39,229.95
307,F5,115.0,19/20,39,229.95
308,A5,115.0,19/20,39,229.95
309,C#5,116.0,19/20,39,229.95
310,F5,116.0,19/20,39,229.95
311,A5,116.0,19/20,39,229.95
312,G#4,117.0,2.0,56,229.95
313,C#5,118.0,19/20,39,229.95
314,F5,118.0,19/20,39,229.95
315,G#5,118.0,19/20,39,229.95
316,A4,119.0,1.0,58,229.95
317,C#5,119.0,19/20,39,229.95
318,F5,119.0,19/20,39,229.95
319,A5,119.0,19/20,39,229.95
320,B-4,120.0,3.0,57,229.95
321,E-5,121.0,19/20,39,229.95
322,F#5,121.0,19/20,39,229.95
323,B-5,121.0,19/20,39,229.95
324,E-5,122.0,19/20,41,229.95
325,F#5,122.0,19/20,41,229.95
326,B-5,122.0,19/20,41,229.95
327,C#5,123.0,249/250,60,229.95
328,F#5,123.0,19/20,47,229.95
329,E-5,123.0,19/20,47,229.95
330,C#6,123.0,19/20,47,229.95
331,C5,124.0,1.0,54,229.95
332,E-5,124.0,19/20,43,229.95
333,F#5,124.0,19/20,43,229.95
334,C6,124.0,19/20,43,229.95
335,B-4,125.0,1.0,54,229.95
336,E-5,125.0,19/20,43,229.95
337,F#5,125.0,19/20,43,229.95
338,B-5,125.0,19/20,43,229.95
339,C#5,126.0,6.0,60,229.95
340,F5,127.0,19/20,43,229.95
341,G#5,127.0,19/20,43,229.95
342,C#6,127.0,19/20,43,229.95
343,F5,128.0,19/20,39,229.95
344,G#5,128.0,19/20,39,229.95
345,C#6,128.0,19/20,39,229.95
346,F5,129.0,19/20,35,229.95
347,G#5,129.0,19/20,35,229.95
348,C#6,129.0,19/20,35,229.95
349,F5,130.0,19/20,31,229.95
350,G#5,130.0,19/20,31,229.95
351,C#6,130.0,19/20,31,229.95
352,F5,131.0,19/20,28,229.95
353,G#5,131.0,19/20,28,229.95
354,C#6,131.0,19/20,28,229.95
355,C#5,132.0,4.5,35,229.95
356,F#5,133.0,19/20,17,229.95
357,C#6,133.0,19/20,17,229.95
358,B-5,133.0,19/20,17,229.95
359,F#5,134.0,19/20,17,229.95
360,C#6,134.0,19/20,17,229.95
361,B-5,134.0,19/20,17,229.95
362,F#5,135.0,19/20,19,229.95
363,C#6,135.0,19/20,19,229.95
364,B-5,135.0,19/20,19,229.95
365,F#5,136.0,19/20,16,229.95
366,C#6,136.0,19/20,16,229.95
367,B-5,136.0,19/20,16,229.95
368,E-5,136.5,1.5,34,229.95
369,F#5,137.0,19/20,16,229.95
370,E-6,137.0,19/20,16,229.95
371,B-5,137.0,19/20,16,229.95
372,E-5,138.0,3.0,38,229.95
373,F#5,139.0,19/20,19,229.95
374,B-5,139.0,19/20,19,229.95
375,E-6,139.0,19/20,19,229.95
376,F#5,140.0,19/20,19,229.95
377,B-5,140.0,19/20,19,229.95
378,E-6,140.0,19/20,19,229.95
379,C#5,141.0,1.5,35,229.95
380,F#5,142.0,19/20,19,229.95
381,B-5,142.0,19/20,19,229.95
382,C#6,142.0,19/20,19,229.95
383,B-4,142.5,1.5,33,229.95
384,C#5,143.0,19/20,19,229.95
385,B-5,143.0,19/20,19,229.95
386,F#5,143.0,19/20,19,229.95
387,F#4,144.0,3.0,37,229.95
388,B4,145.0,19/20,22,229.95
389,E-5,145.0,19/20,22,229.95
390,F#5,145.0,19/20,22,229.95
391,B4,146.0,19/20,22,229.95
392,E-5,146.0,19/20,22,229.95
393,F#5,146.0,19/20,22,229.95
394,G#4,147.0,3.0,35,229.95
395,B4,148.0,19/20,21,229.95
396,E-5,148.0,19/20,21,229.95
397,G#5,148.0,19/20,21,229.95
398,B4,149.0,19/20,21,229.95
399,E-5,149.0,19/20,21,229.95
400,G#5,149.0,19/20,21,229.95
401,B-4,150.0,6.0,38,229.95
402,C#5,151.0,19/20,19,229.95
403,F#5,151.0,19/20,19,229.95
404,B-5,151.0,19/20,19,229.95
405,C#5,152.0,19/20,19,229.95
406,F#5,152.0,19/20,19,229.95
407,B-5,152.0,19/20,19,229.95
408,C#5,153.0,19/20,21,229.95
409,F#5,153.0,19/20,21,229.95
410,B-5,153.0,19/20,21,229.95
411,C#5,154.0,19/20,19,229.95
412,F#5,154.0,19/20,19,229.95
413,B-5,154.0,19/20,19,229.95
414,C#5,155.0,19/20,19,229.95
415,F#5,155.0,19/20,19,229.95
416,B-5,155.0,19/20,19,229.95
417,C#5,156.0,3.0,39,229.95
418,F#5,157.0,19/20,23,229.95
419,C#6,157.0,19/20,23,229.95
420,B-5,157.0,19/20,23,229.95
421,F#5,158.0,19/20,23,229.95
422,B-5,158.0,19/20,23,229.95
423,C#6,158.0,19/20,23,229.95
424,F5,159.0,1.0,41,229.95
425,F#5,159.0,19/20,27,229.95
426,B-5,159.0,19/20,27,229.95
427,F6,159.0,19/20,27,229.95
428,E-5,160.0,1.0,39,229.95
429,E-6,160.0,19/20,25,229.95
430,B-5,160.0,19/20,25,229.95
431,F#5,160.0,19/20,25,229.95
432,C#5,161.0,1.0,39,229.95
433,F#5,161.0,19/20,25,229.95
434,B-5,161.0,19/20,25,229.95
435,C#6,161.0,19/20,25,229.95
436,E-5,162.0,1.5,44,229.95
437,F#5,163.0,19/20,27,229.95
438,E-6,163.0,19/20,27,229.95
439,B-5,163.0,19/20,27,229.95
440,C#5,163.5,1.5,42,229.95
441,F#5,164.0,19/20,25,229.95
442,B-5,164.0,19/20,25,229.95
443,C#6,164.0,19/20,25,229.95
444,B-4,165.0,1.5,41,229.95
445,C#5,166.0,19/20,27,229.95
446,B-5,166.0,19/20,27,229.95
447,F#5,166.0,19/20,27,229.95
448,F#4,166.5,1.5,39,229.95
449,B-4,167.0,19/20,25,229.95
450,C#5,167.0,19/20,25,229.95
451,F#5,167.0,19/20,25,229.95
452,F#4,168.0,3.0,42,229.95
453,B4,169.0,19/20,23,229.95
454,E-5,169.0,19/20,23,229.95
455,F#5,169.0,19/20,23,229.95
456,B4,170.0,19/20,23,229.95
457,E-5,170.0,19/20,23,229.95
458,F#5,170.0,19/20,23,229.95
459,B-4,171.0,1.0,42,229.95
460,B4,171.0,19/20,27,229.95
461,E-5,171.0,19/20,27,229.95
462,B-5,171.0,19/20,27,229.95
463,G#4,172.0,1.0,37,229.95
464,B4,172.0,19/20,24,229.95
465,E-5,172.0,19/20,24,229.95
466,G#5,172.0,19/20,24,229.95
467,F#4,173.0,1.0,37,229.95
468,B4,173.0,19/20,24,229.95
469,E-5,173.0,19/20,24,229.95
470,F#5,173.0,19/20,24,229.95
471,B-4,174.0,5.0,42,229.95
472,C#5,175.0,19/20,23,229.95
473,F#5,175.0,19/20,23,229.95
474,B-5,175.0,19/20,23,229.95
475,C#5,176.0,19/20,23,229.95
476,F#5,176.0,19/20,23,229.95
477,B-5,176.0,19/20,23,229.95
478,C#5,177.0,19/20,25,229.95
479,F#5,177.0,19/20,25,229.95
480,B-5,177.0,19/20,25,229.95
481,C#5,178.0,19/20,23,229.95
482,F#5,178.0,19/20,23,229.95
483,B-5,178.0,19/20,23,229.95
484,C#5,179.0,19/20,23,229.95
485,F#5,179.0,19/20,23,229.95
486,B-5,179.0,19/20,23,229.95
487,B-4,180.0,4.5,42,229.95
488,D5,181.0,19/20,29,229.95
489,F#5,181.0,19/20,29,229.95
490,B-5,181.0,19/20,29,229.95
491,D5,182.0,19/20,29,229.95
492,F#5,182.0,19/20,29,229.95
493,B-5,182.0,19/20,29,229.95
494,F#3,183.0,1.0,34,229.95
495,D4,183.0,1.0,34,229.95
496,D5,184.0,19/20,32,229.95
497,F#5,184.0,19/20,32,229.95
498,B-5,184.0,19/20,32,229.95
499,B-4,184.5,1.5,49,229.95
500,D5,185.0,19/20,35,229.95
501,F#5,185.0,19/20,35,229.95
502,B-5,185.0,19/20,35,229.95
503,B-4,186.0,3.0,52,229.95
504,E-5,187.0,19/20,34,229.95
505,F#5,187.0,19/20,34,229.95
506,B-5,187.0,19/20,34,229.95
507,E-5,188.0,19/20,34,229.95
508,F#5,188.0,19/20,34,229.95
509,B-5,188.0,19/20,34,229.95
510,E-4,189.0,3.0,48,229.95
511,F#4,190.0,19/20,29,229.95
512,B-4,190.0,19/20,29,229.95
513,E-5,190.0,19/20,29,229.95
514,F#4,191.0,19/20,29,229.95
515,B-4,191.0,19/20,29,229.95
516,E-5,191.0,19/20,29,229.95
517,B-4,192.0,4.0,42,229.95
518,D5,193.0,19/20,29,229.95
519,F#5,193.0,19/20,29,229.95
520,B-5,193.0,19/20,29,229.95
521,D5,194.0,19/20,29,229.95
522,F#5,194.0,19/20,29,229.95
523,B-5,194.0,19/20,29,229.95
524,F#3,195.0,1.0,34,229.95
525,D4,195.0,1.0,34,229.95
526,B4,196.0,1.0,49,229.95
527,D5,196.0,19/20,32,229.95
528,F#5,196.0,19/20,32,229.95
529,B5,196.0,19/20,32,229.95
530,C#5,197.0,1.0,49,229.95
531,D5,197.0,19/20,35,229.95
532,F#5,197.0,19/20,35,229.95
533,C#6,197.0,19/20,35,229.95
534,B-4,198.0,6.0,52,229.95
535,E-5,199.0,19/20,37,229.95
536,F#5,199.0,19/20,37,229.95
537,B-5,199.0,19/20,37,229.95
538,E-5,200.0,19/20,38,229.95
539,F#5,200.0,19/20,38,229.95
540,B-5,200.0,19/20,38,229.95
541,E-5,201.0,19/20,40,229.95
542,F#5,201.0,19/20,40,229.95
543,B-5,201.0,19/20,40,229.95
544,E-5,202.0,19/20,41,229.95
545,F#5,202.0,19/20,41,229.95
546,B-5,202.0,19/20,41,229.95
547,E-5,203.0,19/20,43,229.95
548,F#5,203.0,19/20,43,229.95
549,B-5,203.0,19/20,43,229.95
550,B-4,204.0,4.5,54,229.95
551,D5,205.0,19/20,35,229.95
552,F#5,205.0,19/20,35,229.95
553,B-5,205.0,19/20,35,229.95
554,D5,206.0,19/20,35,229.95
555,F#5,206.0,19/20,35,229.95
556,B-5,206.0,19/20,35,229.95
557,D5,207.0,19/20,35,229.95
558,F#5,207.0,19/20,35,229.95
559,B-5,207.0,19/20,35,229.95
560,D5,208.0,19/20,36,229.95
561,F#5,208.0,19/20,36,229.95
562,B-5,208.0,19/20,36,229.95
563,A4,208.5,1.5,48,229.95
564,D5,209.0,19/20,36,229.95
565,F#5,209.0,19/20,36,229.95
566,A5,209.0,19/20,36,229.95
567,A4,210.0,3.0,45,229.95
568,C#5,211.0,19/20,35,229.95
569,F5,211.0,19/20,35,229.95
570,A5,211.0,19/20,35,229.95
571,C#5,212.0,19/20,34,229.95
572,F5,212.0,19/20,34,229.95
573,A5,212.0,19/20,34,229.95
574,G#4,213.0,3.0,44,229.95
575,C#5,214.0,19/20,33,229.95
576,F5,214.0,19/20,33,229.95
577,G#5,214.0,19/20,33,229.95
578,C#5,215.0,19/20,33,229.95
579,F5,215.0,19/20,33,229.95
580,G#5,215.0,19/20,33,229.95
581,G#4,216.0,3.0,48,229.95
582,C5,217.0,19/20,35,229.95
583,E5,217.0,19/20,35,229.95
584,G#5,217.0,19/20,35,229.95
585,C5,218.0,19/20,35,229.95
586,E5,218.0,19/20,35,229.95
587,G#5,218.0,19/20,35,229.95
588,B-4,219.0,1.5,51,229.95
589,C5,220.0,62/125,33,229.95
590,E5,220.0,19/20,36,229.95
591,B-5,220.0,19/20,36,229.95
592,C5,220.5,1.5,50,229.95
593,E5,221.0,19/20,38,229.95
594,C6,221.0,19/20,38,229.95
595,G#4,222.0,3.0,57,229.95
596,C#5,223.0,19/20,36,229.95
597,F5,223.0,19/20,36,229.95
598,G#5,223.0,19/20,36,229.95
599,C#5,224.0,19/20,36,229.95
600,F5,224.0,19/20,36,229.95
601,G#5,224.0,19/20,36,229.95
602,F6,225.0,19/20,53,229.95
603,F5,225.0,249/250,58,229.95
604,C#5,226.0,1.0,56,229.95
605,F5,226.0,19/20,42,229.95
606,G#5,226.0,19/20,42,229.95
607,C#6,226.0,19/20,42,229.95
608,C5,227.0,1.0,56,229.95
609,F5,227.0,19/20,42,229.95
610,G#5,227.0,19/20,42,229.95
611,C6,227.0,19/20,42,229.95
612,B4,228.0,4.0,57,229.95
613,C#5,229.0,19/20,40,229.95
614,F5,229.0,19/20,40,229.95
615,B5,229.0,19/20,40,229.95
616,C#5,230.0,19/20,40,229.95
617,F5,230.0,19/20,40,229.95
618,B5,230.0,19/20,40,229.95
619,C#5,231.0,19/20,42,229.95
620,F5,231.0,19/20,42,229.95
621,B5,231.0,19/20,42,229.95
622,B-4,232.0,1.0,53,229.95
623,C#5,232.0,19/20,39,229.95
624,F5,232.0,19/20,39,229.95
625,B-5,232.0,19/20,39,229.95
626,A4,233.0,1.0,53,229.95
627,C#5,233.0,19/20,39,229.95
628,F5,233.0,19/20,39,229.95
629,A5,233.0,19/20,39,229.95
630,A4,234.0,3.0,55,229.95
631,C#5,235.0,19/20,39,229.95
632,F5,235.0,19/20,39,229.95
633,A5,235.0,19/20,39,229.95
634,C#5,236.0,19/20,39,229.95
635,F5,236.0,19/20,39,229.95
636,A5,236.0,19/20,39,229.95
637,G#4,237.0,2.0,56,229.95
638,C#5,238.0,19/20,39,229.95
639,F5,238.0,19/20,39,229.95
640,G#5,238.0,19/20,39,229.95
641,A4,239.0,1.0,58,229.95
642,C#5,239.0,19/20,39,229.95
643,F5,239.0,19/20,39,229.95
644,A5,239.0,19/20,39,229.95
645,B-4,240.0,3.0,57,229.95
646,E-5,241.0,19/20,39,229.95
647,F#5,241.0,19/20,39,229.95
648,B-5,241.0,19/20,39,229.95
649,E-5,242.0,19/20,41,229.95
650,F#5,242.0,19/20,41,229.95
651,B-5,242.0,19/20,41,229.95
652,C#5,243.0,249/250,60,229.95
653,F#5,243.0,19/20,47,229.95
654,E-5,243.0,19/20,47,229.95
655,C#6,243.0,19/20,47,229.95
656,C5,244.0,1.0,54,229.95
657,E-5,244.0,19/20,43,229.95
658,F#5,244.0,19/20,43,229.95
659,C6,244.0,19/20,43,229.95
660,B-4,245.0,1.0,54,229.95
661,E-5,245.0,19/20,43,229.95
662,F#5,245.0,19/20,43,229.95
663,B-5,245.0,19/20,43,229.95
664,C#5,246.0,6.0,60,229.95
665,F5,247.0,19/20,43,229.95
666,G#5,247.0,19/20,43,229.95
667,C#6,247.0,19/20,43,229.95
668,F5,248.0,19/20,39,229.95
669,G#5,248.0,19/20,39,229.95
670,C#6,248.0,19/20,39,229.95
671,F5,249.0,19/20,35,229.95
672,G#5,249.0,19/20,35,229.95
673,C#6,249.0,19/20,35,229.95
674,F5,250.0,19/20,32,229.95
675,G#5,250.0,19/20,32,229.95
676,C#6,250.0,19/20,32,229.95
677,F5,251.0,0.75,29,229.95
678,G#5,251.0,0.75,29,229.95
679,C#6,251.0,0.75,29,229.95
680,C#2,251.75,0.25,35,229.95
681,C#4,252.0,5.0,40,229.95
682,C#3,252.0,5.0,37,229.95
683,F3,253.0,1.0,22,229.95
684,G#3,253.0,1.0,22,229.95
685,B3,253.0,1.0,22,229.95
686,F3,254.0,1.0,22,229.95
687,G#3,254.0,1.0,22,229.95
688,B3,254.0,1.0,22,229.95
689,F3,255.0,1.0,22,229.95
690,G#3,255.0,1.0,22,229.95
691,B3,255.0,1.0,22,229.95
692,F3,256.0,1.0,22,229.95
693,G#3,256.0,1.0,22,229.95
694,B3,256.0,1.0,22,229.95
695,D4,257.0,1.0,39,229.95
696,D3,257.0,1.0,37,229.95
697,D4,258.0,3.0,43,229.95
698,D3,258.0,3.0,44,229.95
699,F3,259.0,1.0,22,229.95
700,G#3,259.0,1.0,22,229.95
701,B3,259.0,1.0,22,229.95
702,F3,260.0,1.0,22,229.95
703,G#3,260.0,1.0,22,229.95
704,B3,260.0,1.0,22,229.95
705,C#4,261.0,3.0,37,229.95
706,C#3,261.0,3.0,37,229.95
707,F3,262.0,1.0,22,229.95
708,G#3,262.0,1.0,22,229.95
709,B3,262.0,1.0,22,229.95
710,F3,263.0,1.0,22,229.95
711,G#3,263.0,1.0,22,229.95
712,B3,263.0,1.0,22,229.95
713,D4,264.0,3.0,41,229.95
714,D3,264.0,3.0,37,229.95
715,G#3,265.0,1.0,22,229.95
716,B3,265.0,1.0,22,229.95
717,G#3,266.0,1.0,22,229.95
718,B3,266.0,1.0,22,229.95
719,F#4,267.0,1.0,45,229.95
720,F#3,267.0,1.0,43,229.95
721,D3,268.0,1.0,39,229.95
722,G#3,268.0,1.0,29,229.95
723,B3,268.0,1.0,29,229.95
724,D4,268.0,1.0,29,229.95
725,E4,269.0,1.0,44,229.95
726,E3,269.0,1.0,41,229.95
727,C#4,270.0,6.0,40,229.95
728,C#3,270.0,6.0,39,229.95
729,F3,271.0,1.0,22,229.95
730,G#3,271.0,1.0,22,229.95
731,B3,271.0,1.0,22,229.95
732,F3,272.0,1.0,22,229.95
733,G#3,272.0,1.0,22,229.95
734,B3,272.0,1.0,22,229.95
735,F3,273.0,1.0,22,229.95
736,G#3,273.0,1.0,22,229.95
737,B3,273.0,1.0,22,229.95
738,F3,274.0,1.0,22,229.95
739,G#3,274.0,1.0,22,229.95
740,B3,274.0,1.0,22,229.95
741,F3,275.0,0.75,22,229.95
742,G#3,275.0,0.75,22,229.95
743,B3,275.0,0.75,22,229.95
744,F2,275.75,0.25,40,229.95
745,F4,276.0,5.0,55,229.95
746,F3,276.0,5.0,51,229.95
747,G#3,277.0,1.0,34,229.95
748,B3,277.0,1.0,34,229.95
749,D4,277.0,1.0,34,229.95
750,G#3,278.0,1.0,34,229.95
751,B3,278.0,1.0,34,229.95
752,D4,278.0,1.0,34,229.95
753,G#3,279.0,1.0,34,229.95
754,B3,279.0,1.0,34,229.95
755,D4,279.0,1.0,34,229.95
756,G#3,280.0,1.0,34,229.95
757,B3,280.0,1.0,34,229.95
758,D4,280.0,1.0,34,229.95
759,F#4,281.0,1.0,55,229.95
760,F#3,281.0,1.0,53,229.95
761,F#4,282.0,3.0,61,229.95
762,F#3,282.0,3.0,62,229.95
763,G#3,283.0,1.0,35,229.95
764,B3,283.0,1.0,35,229.95
765,D4,283.0,1.0,35,229.95
766,G#3,284.0,1.0,35,229.95
767,B3,284.0,1.0,35,229.95
768,D4,284.0,1.0,35,229.95
769,F4,285.0,3.0,54,229.95
770,F3,285.0,3.0,54,229.95
771,G#3,286.0,1.0,36,229.95
772,B3,286.0,1.0,36,229.95
773,D4,286.0,1.0,36,229.95
774,G#3,287.0,1.0,36,229.95
775,B3,287.0,1.0,36,229.95
776,D4,287.0,1.0,36,229.95
777,F#4,288.0,3.0,60,229.95
778,F#3,288.0,3.0,54,229.95
779,B3,289.0,1.0,38,229.95
780,D4,289.0,1.0,38,229.95
781,B3,290.0,1.0,38,229.95
782,D4,290.0,1.0,38,229.95
783,A4,291.0,1.0,67,229.95
784,A3,291.0,1.0,64,229.95
785,F#3,292.0,1.0,58,229.95
786,B3,292.0,1.0,47,229.95
787,D4,292.0,1.0,47,229.95
788,F#4,292.0,1.0,47,229.95
789,G#4,293.0,1.0,66,229.95
790,G#3,293.0,1.0,62,229.95
791,F4,294.0,6.0,65,229.95
792,F3,294.0,6.0,59,229.95
793,B3,295.0,1.0,44,229.95
794,D4,295.0,1.0,44,229.95
795,B3,296.0,1.0,44,229.95
796,D4,296.0,1.0,44,229.95
797,B3,297.0,1.0,44,229.95
798,D4,297.0,1.0,44,229.95
799,B3,298.0,1.0,44,229.95
800,D4,298.0,1.0,44,229.95
801,B3,299.0,1.0,44,229.95
802,D4,299.0,1.0,44,229.95
803,A4,300.0,1.0,70,229.95
804,A3,300.0,1.0,67,229.95
805,F#3,301.0,1.0,60,229.95
806,B3,301.0,1.0,52,229.95
807,D4,301.0,1.0,52,229.95
808,F#4,301.0,1.0,52,229.95
809,G#4,302.0,1.0,69,229.95
810,G#3,302.0,1.0,65,229.95
811,F4,303.0,3.0,63,229.95
812,F3,303.0,3.0,61,229.95
813,B3,304.0,1.0,45,229.95
814,D4,304.0,1.0,45,229.95
815,B3,305.0,1.0,46,229.95
816,D4,305.0,1.0,46,229.95
817,A4,306.0,1.0,71,229.95
818,A3,306.0,1.0,68,229.95
819,F#3,307.0,1.0,61,229.95
820,B3,307.0,1.0,52,229.95
821,D4,307.0,1.0,52,229.95
822,F#4,307.0,1.0,52,229.95
823,G#4,308.0,1.0,71,229.95
824,G#3,308.0,1.0,66,229.95
825,F4,309.0,3.0,64,229.95
826,F3,309.0,3.0,62,229.95
827,B3,310.0,1.0,46,229.95
828,D4,310.0,1.0,46,229.95
829,B3,311.0,1.0,46,229.95
830,D4,311.0,1.0,46,229.95
831,C#5,312.0,1.0,80,229.95
832,C#4,312.0,1.0,76,229.95
833,A3,313.0,1.0,69,229.95
834,D4,313.0,1.0,59,229.95
835,F4,313.0,1.0,59,229.95
836,A4,313.0,1.0,59,229.95
837,B4,314.0,1.0,76,229.95
838,B3,314.0,1.0,69,229.95
839,G#4,315.0,3.0,73,229.95
840,G#3,315.0,3.0,71,229.95
841,D4,316.0,1.0,52,229.95
842,F4,316.0,1.0,52,229.95
843,D4,317.0,1.0,52,229.95
844,F4,317.0,1.0,52,229.95
845,C#5,318.0,1.0,82,229.95
846,C#4,318.0,1.0,78,229.95
847,A3,319.0,1.0,70,229.95
848,D4,319.0,1.0,60,229.95
849,F4,319.0,1.0,60,229.95
850,A4,319.0,1.0,60,229.95
851,B4,320.0,1.0,78,229.95
852,B3,320.0,1.0,71,229.95
853,G#4,321.0,3.0,74,229.95
854,G#3,321.0,3.0,72,229.95
855,D4,322.0,1.0,53,229.95
856,F4,322.0,1.0,53,229.95
857,D4,323.0,1.0,53,229.95
858,F4,323.0,1.0,53,229.95
859,E5,324.0,1.0,80,229.95
860,E4,324.0,1.0,69,229.95
861,C#4,325.0,1.0,64,229.95
862,F4,325.0,1.0,51,229.95
863,G#4,325.0,1.0,51,229.95
864,C#5,325.0,1.0,51,229.95
865,D5,326.0,1.0,81,229.95
866,D4,326.0,1.0,71,229.95
867,B3,327.0,1.0,67,229.95
868,F4,327.0,1.0,57,229.95
869,G#4,327.0,1.0,57,229.95
870,B4,327.0,1.0,57,229.95
871,E5,328.0,1.0,86,229.95
872,E4,328.0,1.0,76,229.95
873,C#4,329.0,1.0,72,229.95
874,F4,329.0,1.0,59,229.95
875,G#4,329.0,1.0,59,229.95
876,C#5,329.0,1.0,59,229.95
877,D5,330.0,1.0,94,229.95
878,D4,330.0,1.0,81,229.95
879,B3,331.0,1.0,75,229.95
880,F4,331.0,1.0,62,229.95
881,G#4,331.0,1.0,62,229.95
882,B4,331.0,1.0,62,229.95
883,E5,332.0,1.0,98,229.95
884,E4,332.0,1.0,85,229.95
885,C#4,333.0,1.0,80,229.95
886,F4,333.0,1.0,66,229.95
887,G#4,333.0,1.0,66,229.95
888,C#5,333.0,1.0,66,229.95
889,D5,334.0,1.0,103,229.95
890,D4,334.0,1.0,90,229.95
891,B3,335.0,1.0,85,229.95
892,F4,335.0,1.0,69,229.95
893,G#4,335.0,1.0,69,229.95
894,B4,335.0,1.0,69,229.95
895,F4,336.0,6.0,94,229.95
896,F5,336.0,6.0,94,229.95
897,C#3,337.0,1.0,58,229.95
898,F3,337.0,1.0,58,229.95
899,C#4,337.0,1.0,58,229.95
900,G#3,337.0,1.0,58,229.95
901,C#3,338.0,1.0,57,229.95
902,F3,338.0,1.0,57,229.95
903,G#3,338.0,1.0,57,229.95
904,C#4,338.0,1.0,57,229.95
905,C#4,339.0,1.0,56,229.95
906,C#3,339.0,1.0,56,229.95
907,F3,339.0,1.0,56,229.95
908,G#3,339.0,1.0,56,229.95
909,C#4,340.0,1.0,54,229.95
910,C#3,340.0,1.0,54,229.95
911,F3,340.0,1.0,54,229.95
912,G#3,340.0,1.0,54,229.95
913,C#4,341.0,1.0,54,229.95
914,C#3,341.0,1.0,54,229.95
915,F3,341.0,1.0,54,229.95
916,G#3,341.0,1.0,54,229.95
917,C#4,342.0,1.0,53,229.95
918,C#3,342.0,1.0,53,229.95
919,F3,342.0,1.0,53,229.95
920,G#3,342.0,1.0,53,229.95
921,C#4,343.0,1.0,52,229.95
922,C#3,343.0,1.0,52,229.95
923,F3,343.0,1.0,52,229.95
924,G#3,343.0,1.0,52,229.95
925,C#4,344.0,1.0,51,229.95
926,C#3,344.0,1.0,51,229.95
927,F3,344.0,1.0,51,229.95
928,G#3,344.0,1.0,51,229.95
929,C#3,345.0,1.0,50,229.95
930,F3,345.0,1.0,50,229.95
931,G#3,345.0,1.0,50,229.95
932,C#4,345.0,1.0,50,229.95
933,F4,346.0,4.0,94,229.95
934,F5,346.0,4.0,94,229.95
935,C#3,346.0,1.0,49,229.95
936,F3,346.0,1.0,49,229.95
937,G#3,346.0,1.0,49,229.95
938,C#4,346.0,1.0,49,229.95
939,B2,349.0,1.0,58,229.95
940,D4,349.0,1.0,58,229.95
941,F#3,349.0,1.0,58,229.95
942,B3,349.0,1.0,58,229.95
943,B2,350.0,1.0,57,229.95
944,B3,350.0,1.0,57,229.95
945,F#3,350.0,1.0,57,229.95
946,D4,350.0,1.0,57,229.95
947,B2,351.0,1.0,56,229.95
948,B3,351.0,1.0,56,229.95
949,F#3,351.0,1.0,56,229.95
950,D4,351.0,1.0,56,229.95
951,F4,351.5,0.5,94,229.95
952,F5,351.5,0.5,94,229.95
953,B2,352.0,1.0,54,229.95
954,B3,352.0,1.0,54,229.95
955,F#3,352.0,1.0,54,229.95
956,D4,352.0,1.0,54,229.95
957,F#4,352.056,743/125,94,229.95
958,F#5,352.056,743/125,94,229.95
959,B2,353.0,1.0,54,229.95
960,B3,353.0,1.0,54,229.95
961,F#3,353.0,1.0,54,229.95
962,D4,353.0,1.0,54,229.95
963,B2,354.0,1.0,53,229.95
964,B3,354.0,1.0,53,229.95
965,F#3,354.0,1.0,53,229.95
966,D4,354.0,1.0,53,229.95
967,F#3,355.0,1.0,52,229.95
968,B2,355.0,1.0,52,229.95
969,B3,355.0,1.0,52,229.95
970,D4,355.0,1.0,52,229.95
971,B2,356.0,1.0,51,229.95
972,F#3,356.0,1.0,51,229.95
973,B3,356.0,1.0,51,229.95
974,D4,356.0,1.0,51,229.95
975,B2,357.0,1.0,50,229.95
976,F#3,357.0,1.0,50,229.95
977,D4,357.0,1.0,50,229.95
978,B3,357.0,1.0,50,229.95
979,F#4,358.0,507/125,94,229.95
980,F#5,358.0,507/125,94,229.95
981,F#3,358.0,1.0,49,229.95
982,B2,358.0,1.0,49,229.95
983,D4,358.0,1.0,49,229.95
984,B3,358.0,1.0,49,229.95
985,F#3,361.0,1.0,58,229.95
986,A2,361.0,1.0,58,229.95
987,A3,361.0,1.0,58,229.95
988,D4,361.0,1.0,58,229.95
989,F#3,362.0,1.0,57,229.95
990,A2,362.0,1.0,57,229.95
991,D4,362.0,1.0,57,229.95
992,A3,362.0,1.0,57,229.95
993,F#3,363.0,1.0,56,229.95
994,A2,363.0,1.0,56,229.95
995,D4,363.0,1.0,56,229.95
996,A3,363.0,1.0,56,229.95
997,F#4,363.5,0.5,94,229.95
998,F#5,363.5,0.5,94,229.95
999,A4,364.0,6.0,94,229.95
1000,A5,364.0,6.0,94,229.95
1001,F#3,364.0,1.0,54,229.95
1002,A2,364.0,1.0,54,229.95
1003,D4,364.0,1.0,54,229.95
1004,A3,364.0,1.0,54,229.95
1005,D4,365.0,1.0,54,229.95
1006,A2,365.0,1.0,54,229.95
1007,F#3,365.0,1.0,54,229.95
1008,A3,365.0,1.0,54,229.95
1009,F#3,366.0,1.0,53,229.95
1010,A3,366.0,1.0,53,229.95
1011,D4,366.0,1.0,53,229.95
1012,A2,366.0,1.0,53,229.95
1013,F#3,367.0,1.0,52,229.95
1014,A3,367.0,1.0,52,229.95
1015,D4,367.0,1.0,52,229.95
1016,A2,367.0,1.0,52,229.95
1017,D4,368.0,1.0,51,229.95
1018,A2,368.0,1.0,51,229.95
1019,F#3,368.0,1.0,51,229.95
1020,A3,368.0,1.0,51,229.95
1021,D4,369.0,1.0,50,229.95
1022,A2,369.0,1.0,50,229.95
1023,F#3,369.0,1.0,50,229.95
1024,A3,369.0,1.0,50,229.95
1025,D4,370.0,1.0,49,229.95
1026,A2,370.0,1.0,49,229.95
1027,F#3,370.0,1.0,49,229.95
1028,A3,370.0,1.0,49,229.95
1029,F#4,373.0,1.0,62,229.95
1030,D4,373.0,1.0,62,229.95
1031,G#2,373.0,1.0,62,229.95
1032,F#3,373.0,1.0,62,229.95
1033,B3,373.0,1.0,62,229.95
1034,A4,374.0,4.0,94,229.95
1035,A5,374.0,4.0,94,229.95
1036,F#3,374.0,1.0,62,229.95
1037,D4,374.0,1.0,62,229.95
1038,G#2,374.0,1.0,62,229.95
1039,F#4,374.0,1.0,62,229.95
1040,B3,374.0,1.0,62,229.95
1041,F#3,375.0,1.0,62,229.95
1042,D4,375.0,1.0,62,229.95
1043,G#2,375.0,1.0,62,229.95
1044,B3,375.0,1.0,62,229.95
1045,F#4,375.0,1.0,62,229.95
1046,D4,376.0,1.0,61,229.95
1047,G#2,376.0,1.0,61,229.95
1048,F#3,376.0,1.0,61,229.95
1049,B3,376.0,1.0,61,229.95
1050,F#4,376.0,1.0,61,229.95
1051,D4,377.0,1.0,61,229.95
1052,F#4,377.0,1.0,61,229.95
1053,G#2,377.0,1.0,61,229.95
1054,F#3,377.0,1.0,61,229.95
1055,B3,377.0,1.0,61,229.95
1056,B3,379.0,1.0,72,229.95
1057,C#4,379.0,1.0,72,229.95
1058,G2,379.0,1.0,72,229.95
1059,F3,379.0,1.0,72,229.95
1060,F4,379.0,1.0,72,229.95
1061,A4,379.5,0.5,94,229.95
1062,A5,379.5,0.5,94,229.95
1063,B4,380.0,6.0,98,229.95
1064,B5,380.0,6.0,98,229.95
1065,F3,380.0,1.0,74,229.95
1066,C#4,380.0,1.0,74,229.95
1067,G2,380.0,1.0,74,229.95
1068,F4,380.0,1.0,74,229.95
1069,B3,380.0,1.0,74,229.95
1070,G2,381.0,1.0,76,229.95
1071,C#4,381.0,1.0,76,229.95
1072,B3,381.0,1.0,76,229.95
1073,F3,381.0,1.0,76,229.95
1074,F4,381.0,1.0,76,229.95
1075,F4,382.0,1.0,77,229.95
1076,C#4,382.0,1.0,77,229.95
1077,G2,382.0,1.0,77,229.95
1078,F3,382.0,1.0,77,229.95
1079,B3,382.0,1.0,77,229.95
1080,F#2,384.5,0.5,27,229.95
1081,C#3,385.0,0.5,29,229.95
1082,F#5,385.0,19/20,30,229.95
1083,B-5,385.0,19/20,30,229.95
1084,F#3,385.5,0.5,31,229.95
1085,B-3,386.0,0.5,32,229.95
1086,C5,386.0,5.0,102,229.95
1087,C6,386.0,5.0,102,229.95
1088,F#5,386.0,19/20,32,229.95
1089,B-5,386.0,19/20,32,229.95
1090,C#4,386.5,0.5,34,229.95
1091,F#4,387.0,0.5,35,229.95
1092,F#5,387.0,19/20,30,229.95
1093,B-5,387.0,19/20,30,229.95
1094,C#4,387.5,0.5,31,229.95
1095,F#4,388.0,0.5,36,229.95
1096,F#5,388.0,19/20,30,229.95
1097,B-5,388.0,19/20,30,229.95
1098,B-4,388.5,0.5,31,229.95
1099,F#2,390.5,0.5,27,229.95
1100,C#3,391.0,0.5,29,229.95
1101,C#6,391.0,0.75,89,229.95
1102,C#5,391.0,0.75,89,229.95
1103,F#5,391.0,19/20,33,229.95
1104,B-5,391.0,19/20,33,229.95
1105,F#3,391.5,0.5,31,229.95
1106,C#5,391.75,0.25,50,229.95
1107,C#6,392.0,4.75,57,229.95
1108,C#5,392.0,4.75,50,229.95
1109,B-3,392.0,0.5,32,229.95
1110,F#5,392.0,19/20,33,229.95
1111,B-5,392.0,19/20,33,229.95
1112,C#4,392.5,0.5,34,229.95
1113,F#4,393.0,0.5,35,229.95
1114,C#4,393.5,0.5,31,229.95
1115,F#4,394.0,0.5,36,229.95
1116,F#5,394.0,19/20,32,229.95
1117,B-5,394.0,19/20,32,229.95
1118,B-4,394.5,0.5,31,229.95
1119,F#2,396.5,0.5,27,229.95
1120,E-5,396.75,1.25,49,229.95
1121,E-6,397.0,1.0,59,229.95
1122,E-3,397.0,0.5,29,229.95
1123,B4,397.0,19/20,30,229.95
1124,E-5,397.0,19/20,30,229.95
1125,F#3,397.5,0.5,31,229.95
1126,B3,398.0,0.5,32,229.95
1127,E-6,398.0,3.0,60,229.95
1128,E-5,398.0,3.0,60,229.95
1129,B4,398.0,19/20,32,229.95
1130,E-5,398.0,19/20,32,229.95
1131,E-4,398.5,0.5,34,229.95
1132,E-5,400.0,19/20,30,229.95
1133,B4,400.0,19/20,30,229.95
1134,C#6,401.0,2.0,54,229.95
1135,C#5,401.0,2.0,54,229.95
1136,E-5,401.0,19/20,30,229.95
1137,B4,401.0,19/20,30,229.95
1138,F#2,402.5,0.5,27,229.95
1139,C#3,403.0,0.5,29,229.95
1140,B-5,403.0,0.75,50,229.95
1141,B-4,403.0,0.75,50,229.95
1142,C#5,403.0,19/20,30,229.95
1143,F#5,403.0,19/20,30,229.95
1144,F#3,403.5,0.5,31,229.95
1145,F#4,403.75,0.25,54,229.95
1146,F#5,404.0,3.0,61,229.95
1147,F#4,404.0,3.0,54,229.95
1148,B-3,404.0,0.5,32,229.95
1149,C#5,404.0,19/20,32,229.95
1150,F#5,404.0,19/20,32,229.95
1151,C#4,404.5,0.5,34,229.95
1152,F#4,405.0,0.5,35,229.95
1153,C#5,405.0,19/20,30,229.95
1154,F#5,405.0,19/20,30,229.95
1155,C#4,405.5,0.5,31,229.95
1156,F#4,406.0,0.5,36,229.95
1157,C#5,406.0,19/20,30,229.95
1158,F#5,406.0,19/20,30,229.95
1159,B-4,406.5,0.5,31,229.95
1160,C#5,407.0,729/1000,27,229.95
1161,F#5,407.0,19/20,32,229.95
1162,G#5,407.0,2.75,54,229.95
1163,G#4,407.0,2.75,54,229.95
1164,F#2,408.5,0.5,31,229.95
1165,C#3,409.0,0.5,33,229.95
1166,B-5,409.0,19/20,38,229.95
1167,F#5,409.0,19/20,38,229.95
1168,F#3,409.5,0.5,35,229.95
1169,B-4,409.75,0.25,54,229.95
1170,B-5,410.0,5.75,62,229.95
1171,B-4,410.0,5.75,54,229.95
1172,B-3,410.0,0.5,36,229.95
1173,F#5,410.0,19/20,38,229.95
1174,B-5,410.0,19/20,38,229.95
1175,C#4,410.5,0.5,39,229.95
1176,F4,411.0,1.0,35,229.95
1177,F#4,411.0,1.0,35,229.95
1178,B-4,411.0,1.0,35,229.95
1179,E-4,412.0,1.0,34,229.95
1180,F#4,412.0,1.0,34,229.95
1181,B-4,412.0,1.0,34,229.95
1182,C#4,413.0,1.0,32,229.95
1183,F#4,413.0,1.0,32,229.95
1184,B-4,413.0,1.0,32,229.95
1185,F#2,414.5,0.5,31,229.95
1186,C#3,415.0,0.5,33,229.95
1187,F#5,415.0,2.0,38,229.95
1188,B-5,415.0,2.0,38,229.95
1189,F#3,415.5,0.5,35,229.95
1190,C#5,415.75,0.25,55,229.95
1191,C#6,416.0,3.0,63,229.95
1192,C#5,416.0,3.0,55,229.95
1193,B-3,416.0,0.5,36,229.95
1194,C#4,416.5,0.5,39,229.95
1195,C#5,418.0,2.0,38,229.95
1196,F#5,418.0,2.0,38,229.95
1197,F6,419.0,1.0,61,229.95
1198,F5,419.0,1.0,61,229.95
1199,E-6,420.0,1.0,60,229.95
1200,E-5,420.0,1.0,60,229.95
1201,F#2,420.5,0.5,27,229.95
1202,E-3,421.0,0.5,29,229.95
1203,C#6,421.0,0.75,60,229.95
1204,C#5,421.0,0.75,60,229.95
1205,B4,421.0,19/20,38,229.95
1206,E-5,421.0,19/20,38,229.95
1207,F#3,421.5,0.5,31,229.95
1208,E-5,421.75,0.25,63,229.95
1209,E-6,422.0,2.0,72,229.95
1210,E-5,422.0,2.0,63,229.95
1211,B3,422.0,0.5,32,229.95
1212,E-5,422.0,19/20,38,229.95
1213,B4,422.0,19/20,38,229.95
1214,E-4,422.5,0.5,34,229.95
1215,B-3,423.0,1.0,35,229.95
1216,B3,423.0,1.0,35,229.95
1217,E-4,423.0,1.0,35,229.95
1218,C#6,424.0,1.0,61,229.95
1219,C#5,424.0,1.0,61,229.95
1220,G#3,424.0,1.0,34,229.95
1221,B3,424.0,1.0,34,229.95
1222,E-4,424.0,1.0,34,229.95
1223,B-5,425.0,2.0,63,229.95
1224,B-4,425.0,2.0,63,229.95
1225,F#3,425.0,1.0,32,229.95
1226,B3,425.0,1.0,32,229.95
1227,E-4,425.0,1.0,32,229.95
1228,F#2,426.5,0.5,27,229.95
1229,C#3,427.0,0.5,29,229.95
1230,F#5,427.0,0.75,59,229.95
1231,F#4,427.0,0.75,59,229.95
1232,F#5,427.0,19/20,34,229.95
1233,C#5,427.0,19/20,34,229.95
1234,F#3,427.5,0.5,31,229.95
1235,F#4,427.75,0.25,60,229.95
1236,F#5,428.0,3.0,68,229.95
1237,F#4,428.0,3.0,60,229.95
1238,B-3,428.0,0.5,32,229.95
1239,F#5,428.0,19/20,36,229.95
1240,C#5,428.0,19/20,36,229.95
1241,C#4,428.5,0.5,34,229.95
1242,F#4,429.0,0.5,35,229.95
1243,F#5,429.0,19/20,34,229.95
1244,C#5,429.0,19/20,34,229.95
1245,C#4,429.5,0.5,31,229.95
1246,F#4,430.0,0.5,36,229.95
1247,F#5,430.0,19/20,34,229.95
1248,C#5,430.0,19/20,34,229.95
1249,B-4,430.5,0.5,31,229.95
1250,B-5,431.0,1.0,64,229.95
1251,B-4,431.0,1.0,64,229.95
1252,F#5,431.0,19/20,34,229.95
1253,C#5,431.0,19/20,34,229.95
1254,G#5,432.0,1.0,58,229.95
1255,G#4,432.0,1.0,58,229.95
1256,F#2,432.5,0.5,33,229.95
1257,D3,433.0,0.5,34,229.95
1258,F#5,433.0,0.75,58,229.95
1259,F#4,433.0,0.75,58,229.95
1260,F5,433.0,19/20,34,229.95
1261,D5,433.0,19/20,34,229.95
1262,F3,433.5,0.5,35,229.95
1263,B-4,433.75,0.25,60,229.95
1264,B-5,434.0,5.75,68,229.95
1265,B-4,434.0,5.75,60,229.95
1266,B-3,434.0,0.5,36,229.95
1267,F5,434.0,19/20,36,229.95
1268,D5,434.0,19/20,36,229.95
1269,D4,434.5,0.5,37,229.95
1270,F5,435.0,19/20,34,229.95
1271,D5,435.0,19/20,34,229.95
1272,F5,436.0,19/20,34,229.95
1273,D5,436.0,19/20,34,229.95
1274,F#2,438.5,0.5,36,229.95
1275,E-3,439.0,0.5,38,229.95
1276,F#5,439.0,19/20,38,229.95
1277,E-5,439.0,19/20,38,229.95
1278,F#3,439.5,0.5,41,229.95
1279,B-4,439.75,0.25,60,229.95
1280,B-5,440.0,5.0,68,229.95
1281,B-4,440.0,5.0,60,229.95
1282,B-3,440.0,0.5,43,229.95
1283,F#5,440.0,19/20,38,229.95
1284,E-5,440.0,19/20,38,229.95
1285,E-4,440.5,0.5,45,229.95
1286,B-4,442.0,19/20,36,229.95
1287,F#4,442.0,19/20,36,229.95
1288,B-4,443.0,19/20,36,229.95
1289,F#4,443.0,19/20,36,229.95
1290,F#2,444.5,0.5,37,229.95
1291,D3,445.0,0.5,39,229.95
1292,B-5,445.0,0.75,68,229.95
1293,B-4,445.0,0.75,68,229.95
1294,F5,445.0,19/20,40,229.95
1295,D5,445.0,19/20,40,229.95
1296,F3,445.5,0.5,41,229.95
1297,B-4,445.75,0.25,67,229.95
1298,B-5,446.0,3.0,77,229.95
1299,B-4,446.0,3.0,67,229.95
1300,B-3,446.0,0.5,43,229.95
1301,F5,446.0,19/20,40,229.95
1302,D5,446.0,19/20,40,229.95
1303,D4,446.5,0.5,44,229.95
1304,F5,447.0,19/20,33,229.95
1305,D5,447.0,19/20,33,229.95
1306,B3,448.0,1.0,50,229.95
1307,D4,448.0,19/20,38,229.95
1308,F4,448.0,19/20,38,229.95
1309,C#4,449.0,1.0,54,229.95
1310,E-5,449.0,2.75,66,229.95
1311,E-4,449.0,2.75,66,229.95
1312,D4,449.0,19/20,31,229.95
1313,F4,449.0,19/20,31,229.95
1314,F#2,450.5,0.5,36,229.95
1315,E-3,451.0,0.5,37,229.95
1316,F#5,451.0,19/20,45,229.95
1317,E-5,451.0,19/20,45,229.95
1318,F#3,451.5,0.5,38,229.95
1319,B-4,451.75,0.25,72,229.95
1320,B-5,452.0,4.0,82,229.95
1321,B-4,452.0,4.0,72,229.95
1322,B-3,452.0,0.5,39,229.95
1323,F#5,452.0,19/20,46,229.95
1324,E-5,452.0,19/20,46,229.95
1325,E-4,452.5,0.5,41,229.95
1326,F#4,453.0,0.5,42,229.95
1327,F#5,453.0,19/20,50,229.95
1328,E-5,453.0,19/20,50,229.95
1329,F#3,453.5,0.5,44,229.95
1330,B-3,454.0,0.5,45,229.95
1331,F#5,454.0,19/20,52,229.95
1332,E-5,454.0,19/20,52,229.95
1333,E-4,454.5,0.5,45,229.95
1334,F#5,455.0,19/20,55,229.95
1335,E-5,455.0,729/1000,55,229.95
1336,F#4,455.0,0.5,47,229.95
1337,B-4,455.5,0.5,48,229.95
1338,B5,456.0,1.0,72,229.95
1339,B4,456.0,1.0,72,229.95
1340,C3,456.5,1.0,58,229.95
1341,C#6,457.0,0.75,70,229.95
1342,C#5,457.0,0.75,70,229.95
1343,B-5,457.0,19/20,64,229.95
1344,F#5,457.0,19/20,64,229.95
1345,F#3,457.5,0.5,48,229.95
1346,B-4,457.75,0.25,75,229.95
1347,B-5,458.0,5.75,86,229.95
1348,B-4,458.0,5.75,75,229.95
1349,B-3,458.0,0.5,50,229.95
1350,B-5,458.0,19/20,66,229.95
1351,F#5,458.0,19/20,66,229.95
1352,E-4,458.5,2.5,52,229.95
1353,B-5,459.0,19/20,66,229.95
1354,F#5,459.0,19/20,66,229.95
1355,B-5,460.0,19/20,66,229.95
1356,F#5,460.0,19/20,66,229.95
1357,F#4,460.0,1.0,54,229.95
1358,B-4,460.0,1.0,54,229.95
1359,D4,461.0,1.0,53,229.95
1360,F#4,461.0,1.0,53,229.95
1361,B-4,461.0,1.0,53,229.95
1362,C#3,462.5,0.5,47,229.95
1363,B-3,463.0,0.5,50,229.95
1364,B-5,463.0,19/20,61,229.95
1365,F#5,463.0,19/20,61,229.95
1366,C#4,463.5,0.5,52,229.95
1367,E-5,463.75,0.25,86,229.95
1368,E-6,464.0,5.0,102,229.95
1369,E-5,464.0,3.0,86,229.95
1370,F#4,464.0,0.5,55,229.95
1371,F#5,464.0,19/20,61,229.95
1372,B-5,464.0,19/20,61,229.95
1373,B-4,464.5,0.5,57,229.95
1374,F#5,466.0,19/20,62,229.95
1375,B-5,466.0,19/20,62,229.95
1376,F#5,467.0,19/20,62,229.95
1377,B-5,467.0,19/20,62,229.95
1378,C#3,468.5,0.5,45,229.95
1379,A3,469.0,0.5,47,229.95
1380,D6,469.0,0.75,76,229.95
1381,D5,469.0,0.75,76,229.95
1382,F5,469.0,19/20,50,229.95
1383,A5,469.0,19/20,50,229.95
1384,C#4,469.5,0.5,49,229.95
1385,D5,469.75,0.25,78,229.95
1386,D6,470.0,3.0,95,229.95
1387,D5,470.0,3.0,78,229.95
1388,F4,470.0,0.5,52,229.95
1389,F5,470.0,19/20,50,229.95
1390,A5,470.0,19/20,50,229.95
1391,A4,470.5,0.5,54,229.95
1392,A5,472.0,19/20,58,229.95
1393,F5,472.0,19/20,58,229.95
1394,E-4,472.0,1.0,50,229.95
1395,F4,472.0,1.0,50,229.95
1396,A4,472.0,1.0,50,229.95
1397,F4,473.0,1.0,60,229.95
1398,C#6,473.0,2.75,76,229.95
1399,C#5,473.0,2.75,76,229.95
1400,F#2,474.5,0.5,53,229.95
1401,C#3,475.0,0.5,56,229.95
1402,F#5,475.0,19/20,55,229.95
1403,B-5,475.0,19/20,55,229.95
1404,F#3,475.5,0.5,60,229.95
1405,C#5,475.75,0.25,76,229.95
1406,C#6,476.0,2.75,88,229.95
1407,C#5,476.0,2.75,76,229.95
1408,B-3,476.0,0.5,64,229.95
1409,F#5,476.0,19/20,63,229.95
1410,B-5,476.0,19/20,63,229.95
1411,C#4,476.5,0.5,67,229.95
1412,B-4,477.0,1.0,68,229.95
1413,F#4,478.0,1.0,66,229.95
1414,B-4,478.0,1.0,66,229.95
1415,E-5,478.75,2.25,74,229.95
1416,E-6,479.0,2.0,85,229.95
1417,F4,479.0,1.0,66,229.95
1418,F#4,479.0,1.0,66,229.95
1419,B-4,479.0,1.0,66,229.95
1420,C3,480.5,1.0,54,229.95
1421,F6,481.0,0.75,80,229.95
1422,F5,481.0,0.75,80,229.95
1423,F#5,481.0,1.0,66,229.95
1424,B-5,481.0,1.0,66,229.95
1425,F#3,481.5,0.5,56,229.95
1426,C#5,481.75,0.25,83,229.95
1427,C#6,482.0,3.0,94,229.95
1428,C#5,482.0,3.0,83,229.95
1429,B-3,482.0,0.5,60,229.95
1430,F#5,482.0,1.0,66,229.95
1431,B-5,482.0,1.0,66,229.95
1432,E4,482.5,2.5,64,229.95
1433,F#5,483.0,1.0,64,229.95
1434,B-5,483.0,1.0,64,229.95
1435,F#5,484.0,1.0,64,229.95
1436,B-5,484.0,1.0,64,229.95
1437,E-4,484.0,1.0,62,229.95
1438,F#4,484.0,1.0,62,229.95
1439,B-4,484.0,1.0,62,229.95
1440,B-6,485.0,1.0,90,229.95
1441,B-5,485.0,1.0,90,229.95
1442,F#5,485.0,1.0,64,229.95
1443,B-5,485.0,1.0,64,229.95
1444,D4,485.0,1.0,59,229.95
1445,F#4,485.0,1.0,59,229.95
1446,B-4,485.0,1.0,59,229.95
1447,F#6,486.0,1.0,82,229.95
1448,F#5,486.0,1.0,82,229.95
1449,C#3,486.5,0.5,58,229.95
1450,B-3,487.0,0.5,61,229.95
1451,F6,487.0,0.75,80,229.95
1452,F5,487.0,0.75,80,229.95
1453,F#5,487.0,19/20,58,229.95
1454,B-5,487.0,19/20,58,229.95
1455,C#4,487.5,0.5,63,229.95
1456,E5,487.75,0.25,90,229.95
1457,E6,488.0,4.0,98,229.95
1458,E5,488.0,4.0,90,229.95
1459,F#4,488.0,0.5,66,229.95
1460,F#5,488.0,19/20,66,229.95
1461,B-5,488.0,19/20,66,229.95
1462,B-4,488.5,0.5,69,229.95
1463,B-5,490.0,19/20,60,229.95
1464,F#5,490.0,19/20,60,229.95
1465,C#4,490.0,1.0,66,229.95
1466,F#4,490.0,1.0,66,229.95
1467,B-4,490.0,1.0,66,229.95
1468,B-5,491.0,1.0,60,229.95
1469,F#5,491.0,1.0,60,229.95
1470,D4,491.0,1.0,66,229.95
1471,F#4,491.0,1.0,66,229.95
1472,B-4,491.0,1.0,66,229.95
1473,E-5,492.0,1.0,78,229.95
1474,E-6,492.0,1.0,78,229.95
1475,C#3,492.5,0.5,63,229.95
1476,D5,493.0,729/1000,71,229.95
1477,D6,493.0,1.0,84,229.95
1478,G#3,493.0,0.5,65,229.95
1479,G#5,493.0,19/20,58,229.95
1480,B5,493.0,19/20,58,229.95
1481,B3,493.5,0.5,66,229.95
1482,D5,493.75,0.25,82,229.95
1483,D6,494.0,3.0,97,229.95
1484,D5,494.0,3.0,82,229.95
1485,E-4,494.0,0.5,68,229.95
1486,G#5,494.0,19/20,61,229.95
1487,B5,494.0,19/20,61,229.95
1488,G#4,494.5,0.5,70,229.95
1489,G#5,495.0,1.0,56,229.95
1490,B5,495.0,1.0,56,229.95
1491,G#4,495.0,1.0,52,229.95
1492,F#4,495.0,1.0,52,229.95
1493,B4,495.0,1.0,52,229.95
1494,G#5,496.0,1.0,67,229.95
1495,B5,496.0,1.0,67,229.95
1496,G#4,496.0,1.0,49,229.95
1497,F4,496.0,1.0,49,229.95
1498,B4,496.0,1.0,49,229.95
1499,C#5,497.0,2.0,80,229.95
1500,C#6,497.0,2.0,80,229.95
1501,B5,497.0,1.0,56,229.95
1502,G#5,497.0,1.0,56,229.95
1503,E-4,497.0,1.0,48,229.95
1504,G#4,497.0,1.0,48,229.95
1505,B4,497.0,1.0,48,229.95
1506,B2,498.5,0.5,30,229.95
1507,F#3,499.0,0.5,32,229.95
1508,D6,499.0,0.75,76,229.95
1509,D5,499.0,0.75,76,229.95
1510,D6,499.0,19/20,33,229.95
1511,B5,499.0,19/20,33,229.95
1512,B3,499.5,0.5,34,229.95
1513,E-5,499.75,0.25,84,229.95
1514,E-6,500.0,3.0,99,229.95
1515,E-5,500.0,3.0,84,229.95
1516,D4,500.0,0.5,35,229.95
1517,D6,500.0,19/20,35,229.95
1518,B5,500.0,19/20,35,229.95
1519,F#4,500.5,0.5,36,229.95
1520,B4,501.0,0.5,37,229.95
1521,D6,501.0,19/20,32,229.95
1522,B5,501.0,19/20,32,229.95
1523,D5,501.5,0.5,33,229.95
1524,D6,502.0,19/20,32,229.95
1525,B5,502.0,19/20,32,229.95
1526,F#6,503.0,1.0,90,229.95
1527,F#5,503.0,1.0,90,229.95
1528,D6,503.0,19/20,32,229.95
1529,B5,503.0,19/20,32,229.95
1530,F6,504.0,1.0,80,229.95
1531,F5,504.0,1.0,80,229.95
1532,G2,504.5,0.5,29,229.95
1533,D3,505.0,0.5,31,229.95
1534,E-6,505.0,0.75,76,229.95
1535,E-5,505.0,0.75,76,229.95
1536,D6,505.0,19/20,32,229.95
1537,B5,505.0,19/20,32,229.95
1538,G3,505.5,0.5,32,229.95
1539,F#5,505.75,0.25,60,229.95
1540,F#6,506.0,5.75,67,229.95
1541,F#5,506.0,5.75,60,229.95
1542,B3,506.0,0.5,33,229.95
1543,D6,506.0,19/20,32,229.95
1544,B5,506.0,19/20,32,229.95
1545,D4,506.5,0.5,34,229.95
1546,G4,507.0,0.5,35,229.95
1547,D6,507.0,19/20,31,229.95
1548,B5,507.0,19/20,31,229.95
1549,B4,507.5,0.5,31,229.95
1550,D6,508.0,19/20,30,229.95
1551,B5,508.0,19/20,30,229.95
1552,D6,509.0,19/20,30,229.95
1553,B5,509.0,19/20,30,229.95
1554,E2,510.5,0.5,26,229.95
1555,B2,511.0,0.5,28,229.95
1556,E6,511.0,19/20,29,229.95
1557,B5,511.0,19/20,29,229.95
1558,E3,511.5,0.5,30,229.95
1559,G5,511.75,0.25,58,229.95
1560,G6,512.0,5.75,66,229.95
1561,G5,512.0,5.75,58,229.95
1562,G#3,512.0,0.5,31,229.95
1563,B5,512.0,19/20,30,229.95
1564,E6,512.0,19/20,30,229.95
1565,B3,512.5,0.5,31,229.95
1566,E4,513.0,0.5,32,229.95
1567,B5,513.0,19/20,28,229.95
1568,E6,513.0,19/20,28,229.95
1569,G#4,513.5,0.5,28,229.95
1570,B5,514.0,19/20,27,229.95
1571,E6,514.0,19/20,27,229.95
1572,B5,515.0,19/20,27,229.95
1573,E6,515.0,19/20,27,229.95
1574,D2,516.5,0.5,24,229.95
1575,A2,517.0,0.5,25,229.95
1576,D6,517.0,19/20,26,229.95
1577,F#6,517.0,19/20,26,229.95
1578,D3,517.5,0.5,27,229.95
1579,G#5,517.75,0.25,54,229.95
1580,G#6,518.0,5.75,60,229.95
1581,G#5,518.0,5.75,54,229.95
1582,F#3,518.0,0.5,27,229.95
1583,D6,518.0,19/20,28,229.95
1584,F#6,518.0,19/20,28,229.95
1585,A3,518.5,0.5,29,229.95
1586,D4,519.0,0.5,30,229.95
1587,D6,519.0,19/20,26,229.95
1588,F#6,519.0,19/20,26,229.95
1589,F#4,519.5,0.5,27,229.95
1590,D6,520.0,19/20,24,229.95
1591,F#6,520.0,19/20,24,229.95
1592,D6,521.0,19/20,24,229.95
1593,F#6,521.0,19/20,24,229.95
1594,F#1,522.5,0.5,21,229.95
1595,C#2,523.0,0.5,21,229.95
1596,C#6,523.0,19/20,22,229.95
1597,F#6,523.0,19/20,22,229.95
1598,F#2,523.5,0.5,23,229.95
1599,A5,523.75,0.25,49,229.95
1600,A6,524.0,5.75,56,229.95
1601,A5,524.0,5.75,49,229.95
1602,B-2,524.0,0.5,24,229.95
1603,C#6,524.0,19/20,24,229.95
1604,F#6,524.0,19/20,24,229.95
1605,C#3,524.5,0.5,25,229.95
1606,F#3,525.0,0.5,27,229.95
1607,C#6,525.0,19/20,22,229.95
1608,F#6,525.0,19/20,22,229.95
1609,C#3,525.5,0.5,27,229.95
1610,F#3,526.0,0.5,27,229.95
1611,C#6,526.0,19/20,22,229.95
1612,F#6,526.0,19/20,22,229.95
1613,B-3,526.5,0.5,27,229.95
1614,C#4,527.0,0.5,28,229.95
1615,C#6,527.0,19/20,22,229.95
1616,F#6,527.0,19/20,22,229.95
1617,E-4,527.5,0.5,28,229.95
1618,F#4,528.0,0.5,29,229.95
1619,C#6,528.0,19/20,22,229.95
1620,F#6,528.0,19/20,22,229.95
1621,B-4,528.5,0.5,29,229.95
1622,C#5,529.0,0.5,30,229.95
1623,C#6,529.0,19/20,22,229.95
1624,F#6,529.0,19/20,22,229.95
1625,E-5,529.5,0.5,30,229.95
1626,B-5,529.75,0.25,45,229.95
1627,B-6,530.0,6.0,47,229.95
1628,B-5,530.0,6.0,45,229.95
1629,F#5,530.0,0.5,30,229.95
1630,F#6,530.0,19/20,22,229.95
1631,C#6,530.0,19/20,22,229.95
1632,B-5,530.5,0.5,31,229.95
1633,C#6,531.0,0.5,31,229.95
1634,E-6,531.5,9/20,34,229.95
1635,F#6,532.0,9/20,36,229.95
1636,B-6,532.5,9/20,37,229.95
1637,C#7,533.0,9/20,39,229.95
1638,E-7,533.5,9/20,41,229.95
1639,F#7,534.0,2.0,42,229.95
1640,B-6,536.0,3.0,47,229.95
1641,B-5,536.0,3.0,45,229.95
1642,B1,539.375,0.625,27,229.95
1643,B2,539.5,0.5,29,229.95
1644,A3,539.625,0.375,30,229.95
1645,B1,540.0,6.0,27,229.95
1646,B2,540.0,6.0,29,229.95
1647,A3,540.0,6.0,30,229.95
1648,F#1,546.0,6.0,30,229.95
1649,F#2,547.0,5.0,25,229.95
1650,E-4,547.75,0.25,33,229.95
1651,F#4,547.875,0.125,36,229.95
1652,A4,548.0,6.0,39,229.95
1653,E-4,548.0,3.0,33,229.95
1654,F#4,548.0,6.0,36,229.95
1655,C#3,548.0,4.0,25,229.95
1656,F#5,548.125,5.875,44,229.95
1657,F#3,549.0,3.0,25,229.95
1658,B-3,550.0,2.0,25,229.95
1659,D4,551.0,3.0,33,229.95
1660,C#4,551.0,1.0,24,229.95
1661,F#1,552.0,6.0,30,229.95
1662,F#2,552.0,6.0,25,229.95
1663,C#3,552.0,6.0,25,229.95
1664,F#3,552.0,6.0,25,229.95
1665,B-3,552.0,6.0,25,229.95
1666,C#4,552.0,6.0,24,229.95
1667,F#4,560.0,6.0,36,229.95
