,note_name,start_time,duration,velocity,tempo
0,G4,0.0,1.0,40,64.1
1,G2,0.0,0.5,28,64.1
2,B3,0.5,1.0,18,64.1
3,D3,0.5,1.0,18,64.1
4,D4,1.0,1.0,32,64.1
5,B3,1.5,0.5,18,64.1
6,D3,1.5,0.5,18,64.1
7,G4,2.0,1.0,38,64.1
8,G2,2.0,0.5,28,64.1
9,B3,2.5,1.0,19,64.1
10,D3,2.5,1.0,19,64.1
11,D4,3.0,1.0,30,64.1
12,B3,3.5,0.5,19,64.1
13,D3,3.5,0.5,19,64.1
14,G4,4.0,333/1000,37,64.1
15,G2,4.0,0.5,28,64.1
16,F#4,4.333,333/1000,33,64.1
17,D4,4.5,0.5,28,64.1
18,B3,4.5,1.0,22,64.1
19,D3,4.5,1.0,22,64.1
20,G4,4.667,333/1000,35,64.1
21,E4,5.0,0.5,28,64.1
22,A4,5.0,333/1000,39,64.1
23,B4,5.333,333/1000,32,64.1
24,F#4,5.5,0.5,23,64.1
25,C4,5.5,0.5,21,64.1
26,D3,5.5,0.5,21,64.1
27,A4,5.667,333/1000,32,64.1
28,G4,6.0,1.0,38,64.1
29,G2,6.0,0.5,28,64.1
30,B3,6.5,1.0,22,64.1
31,D3,6.5,1.0,22,64.1
32,D4,7.0,0.75,34,64.1
33,B3,7.5,0.25,22,64.1
34,D3,7.5,0.25,22,64.1
35,F#4,7.75,0.25,33,64.1
36,B4,7.875,0.125,36,64.1
37,D5,8.0,2.0,38,64.1
38,F#4,8.0,1.0,33,64.1
39,B4,8.0,1.0,36,64.1
40,G2,8.0,0.5,28,64.1
41,C4,8.5,1.0,22,64.1
42,D3,8.5,1.0,22,64.1
43,A4,9.0,0.75,30,64.1
44,D4,9.0,0.75,30,64.1
45,C4,9.5,0.25,21,64.1
46,D3,9.5,0.25,21,64.1
47,F#4,9.75,0.25,33,64.1
48,B4,9.875,0.125,36,64.1
49,D5,10.0,2.0,38,64.1
50,F#4,10.0,1.0,33,64.1
51,B4,10.0,1.0,36,64.1
52,G2,10.0,0.5,28,64.1
53,C4,10.5,1.0,22,64.1
54,D3,10.5,1.0,22,64.1
55,A4,11.0,0.75,30,64.1
56,D4,11.0,0.75,30,64.1
57,C4,11.5,0.25,21,64.1
58,D3,11.5,0.25,21,64.1
59,F#4,11.75,0.25,33,64.1
60,B4,11.875,0.125,36,64.1
61,D5,12.0,333/1000,38,64.1
62,F#4,12.0,333/1000,33,64.1
63,B4,12.0,333/1000,36,64.1
64,G2,12.0,0.5,28,64.1
65,D4,12.333,333/1000,28,64.1
66,A4,12.333,333/1000,28,64.1
67,C4,12.5,1.0,22,64.1
68,D3,12.5,1.0,22,64.1
69,D5,12.667,333/1000,27,64.1
70,F#4,12.667,333/1000,27,64.1
71,E5,13.0,333/1000,36,64.1
72,G4,13.0,333/1000,36,64.1
73,C5,13.333,333/1000,32,64.1
74,F#5,13.333,333/1000,32,64.1
75,C4,13.5,0.25,21,64.1
76,D3,13.5,0.25,21,64.1
77,G4,13.667,83/1000,24,64.1
78,E5,13.667,167/1000,32,64.1
79,F#4,13.833,167/1000,33,64.1
80,B4,13.917,83/1000,36,64.1
81,D5,14.0,2.0,38,64.1
82,F#4,14.0,1.0,33,64.1
83,B4,14.0,1.0,36,64.1
84,G2,14.0,0.5,28,64.1
85,C4,14.5,1.0,22,64.1
86,D3,14.5,1.0,22,64.1
87,A4,15.0,0.75,30,64.1
88,D4,15.0,0.75,30,64.1
89,C4,15.5,0.25,21,64.1
90,D3,15.5,0.25,21,64.1
91,E5,15.875,0.125,38,64.1
92,G5,16.0,1.0,44,64.1
93,E5,16.0,1.0,38,64.1
94,G3,16.0,0.5,28,64.1
95,B4,16.5,1.0,22,64.1
96,D4,16.5,1.0,22,64.1
97,D5,17.0,1.0,31,64.1
98,G4,17.0,1.0,31,64.1
99,B4,17.5,0.25,21,64.1
100,D4,17.5,0.25,21,64.1
101,E5,17.875,0.125,38,64.1
102,G5,18.0,1.0,44,64.1
103,E5,18.0,1.0,38,64.1
104,G3,18.0,0.5,28,64.1
105,B4,18.5,1.0,22,64.1
106,D4,18.5,1.0,22,64.1
107,D5,19.0,0.875,31,64.1
108,G4,19.0,0.875,31,64.1
109,B4,19.5,0.25,21,64.1
110,D4,19.5,0.25,21,64.1
111,E5,19.875,0.125,34,64.1
112,G5,20.0,333/1000,37,64.1
113,E5,20.0,333/1000,34,64.1
114,G3,20.0,0.5,28,64.1
115,G4,20.333,0.25,28,64.1
116,D5,20.333,333/1000,33,64.1
117,B4,20.5,1.0,22,64.1
118,D4,20.5,1.0,22,64.1
119,G5,20.667,333/1000,40,64.1
120,E5,21.0,0.5,28,64.1
121,A5,21.0,333/1000,44,64.1
122,B5,21.333,333/1000,39,64.1
123,F#5,21.5,0.5,23,64.1
124,C5,21.5,0.375,21,64.1
125,D4,21.5,0.375,21,64.1
126,A5,21.667,26/125,38,64.1
127,E5,21.875,0.125,38,64.1
128,G5,22.0,1.0,44,64.1
129,E5,22.0,1.0,38,64.1
130,G3,22.0,0.5,28,64.1
131,B4,22.5,1.0,22,64.1
132,D4,22.5,1.0,22,64.1
133,D5,23.0,1.0,31,64.1
134,G4,23.0,1.0,31,64.1
135,B4,23.5,0.25,21,64.1
136,D4,23.5,0.25,21,64.1
137,A5,23.75,0.25,36,64.1
138,B5,23.875,0.125,41,64.1
139,D6,24.0,1.75,52,64.1
140,A5,24.0,1.0,36,64.1
141,B5,24.0,1.75,41,64.1
142,D3,24.0,0.5,28,64.1
143,B3,24.5,1.0,18,64.1
144,A4,24.5,1.0,18,64.1
145,D4,24.5,1.0,18,64.1
146,G5,25.0,0.75,30,64.1
147,D5,25.0,0.75,30,64.1
148,B3,25.5,0.25,17,64.1
149,G4,25.5,0.25,17,64.1
150,D4,25.5,0.25,17,64.1
151,B-5,25.75,0.25,36,64.1
152,D6,25.875,0.125,41,64.1
153,E6,26.0,1.75,52,64.1
154,B-5,26.0,1.0,36,64.1
155,D6,26.0,1.0,41,64.1
156,D3,26.0,0.5,28,64.1
157,B-3,26.5,1.0,18,64.1
158,A4,26.5,1.0,18,64.1
159,E4,26.5,1.0,18,64.1
160,C#6,27.0,0.75,30,64.1
161,E5,27.0,0.75,30,64.1
162,B-3,27.5,0.25,17,64.1
163,G4,27.5,0.25,17,64.1
164,E4,27.5,0.25,17,64.1
165,C6,27.75,0.25,36,64.1
166,E6,27.875,0.125,42,64.1
167,F#6,28.0,1.75,52,64.1
168,C6,28.0,1.0,36,64.1
169,E6,28.0,1.0,42,64.1
170,D3,28.0,0.5,28,64.1
171,C4,28.5,1.0,18,64.1
172,B4,28.5,1.0,18,64.1
173,F#4,28.5,1.0,18,64.1
174,D6,29.0,0.75,30,64.1
175,F#5,29.0,0.75,30,64.1
176,C4,29.5,0.25,17,64.1
177,A4,29.5,0.25,17,64.1
178,F#4,29.5,0.25,17,64.1
179,B5,29.75,0.25,41,64.1
180,D6,29.875,0.125,44,64.1
181,G6,30.0,2.0,48,64.1
182,B5,30.0,1.0,41,64.1
183,D6,30.0,1.0,44,64.1
184,G2,30.0,0.5,21,64.1
185,D3,30.0,0.5,21,64.1
186,B3,30.5,1.375,18,64.1
187,G4,30.5,1.375,18,64.1
188,D4,30.5,1.375,18,64.1
189,G5,31.0,0.875,33,64.1
190,G4,32.0,1.0,36,64.1
191,G2,32.0,0.5,25,64.1
192,B3,32.5,1.0,16,64.1
193,D3,32.5,1.0,16,64.1
194,D4,33.0,1.0,28,64.1
195,B3,33.5,0.5,16,64.1
196,D3,33.5,0.5,16,64.1
197,G4,34.0,1.0,34,64.1
198,G2,34.0,0.5,25,64.1
199,B3,34.5,1.0,16,64.1
200,D3,34.5,1.0,16,64.1
201,D4,35.0,1.0,27,64.1
202,B3,35.5,0.5,16,64.1
203,D3,35.5,0.5,16,64.1
204,G4,36.0,333/1000,33,64.1
205,G2,36.0,0.5,25,64.1
206,F#4,36.333,333/1000,29,64.1
207,D4,36.5,0.5,25,64.1
208,B3,36.5,1.0,20,64.1
209,D3,36.5,1.0,20,64.1
210,G4,36.667,333/1000,31,64.1
211,E4,37.0,0.5,25,64.1
212,A4,37.0,333/1000,35,64.1
213,B4,37.333,333/1000,28,64.1
214,F#4,37.5,0.5,20,64.1
215,C4,37.5,0.5,18,64.1
216,D3,37.5,0.5,18,64.1
217,A4,37.667,333/1000,28,64.1
218,G4,38.0,1.0,34,64.1
219,G2,38.0,0.5,25,64.1
220,B3,38.5,1.0,20,64.1
221,D3,38.5,1.0,20,64.1
222,D4,39.0,0.75,30,64.1
223,B3,39.5,0.25,20,64.1
224,D3,39.5,0.25,20,64.1
225,F#4,39.75,0.25,29,64.1
226,B4,39.875,0.125,32,64.1
227,D5,40.0,2.0,34,64.1
228,F#4,40.0,1.0,29,64.1
229,B4,40.0,1.0,32,64.1
230,G2,40.0,0.5,25,64.1
231,C4,40.5,1.0,20,64.1
232,D3,40.5,1.0,20,64.1
233,A4,41.0,0.75,27,64.1
234,D4,41.0,0.75,27,64.1
235,C4,41.5,0.25,18,64.1
236,D3,41.5,0.25,18,64.1
237,F#4,41.75,0.25,33,64.1
238,B4,41.875,0.125,36,64.1
239,D5,42.0,2.0,38,64.1
240,F#4,42.0,1.0,33,64.1
241,B4,42.0,1.0,36,64.1
242,G2,42.0,0.5,28,64.1
243,C4,42.5,1.0,22,64.1
244,D3,42.5,1.0,22,64.1
245,A4,43.0,0.75,30,64.1
246,D4,43.0,0.75,30,64.1
247,C4,43.5,0.25,21,64.1
248,D3,43.5,0.25,21,64.1
249,F#4,43.75,0.25,33,64.1
250,B4,43.875,0.125,36,64.1
251,D5,44.0,333/1000,38,64.1
252,F#4,44.0,333/1000,33,64.1
253,B4,44.0,333/1000,36,64.1
254,G2,44.0,0.5,28,64.1
255,D4,44.333,333/1000,28,64.1
256,A4,44.333,333/1000,28,64.1
257,C4,44.5,1.0,22,64.1
258,D3,44.5,1.0,22,64.1
259,D5,44.667,333/1000,27,64.1
260,F#4,44.667,333/1000,27,64.1
261,E5,45.0,333/1000,36,64.1
262,G4,45.0,333/1000,36,64.1
263,C5,45.333,333/1000,32,64.1
264,F#5,45.333,333/1000,32,64.1
265,C4,45.5,0.25,21,64.1
266,D3,45.5,0.25,21,64.1
267,G4,45.667,83/1000,24,64.1
268,E5,45.667,167/1000,32,64.1
269,F#4,45.833,167/1000,33,64.1
270,B4,45.917,83/1000,36,64.1
271,D5,46.0,2.0,38,64.1
272,F#4,46.0,1.0,33,64.1
273,B4,46.0,1.0,36,64.1
274,G2,46.0,0.5,28,64.1
275,C4,46.5,1.0,22,64.1
276,D3,46.5,1.0,22,64.1
277,A4,47.0,0.75,30,64.1
278,D4,47.0,0.75,30,64.1
279,C4,47.5,0.25,21,64.1
280,D3,47.5,0.25,21,64.1
281,E5,47.875,0.125,38,64.1
282,G5,48.0,1.0,44,64.1
283,E5,48.0,1.0,38,64.1
284,G3,48.0,0.5,28,64.1
285,B4,48.5,1.0,22,64.1
286,D4,48.5,1.0,22,64.1
287,D5,49.0,1.0,31,64.1
288,G4,49.0,1.0,31,64.1
289,B4,49.5,0.25,21,64.1
290,D4,49.5,0.25,21,64.1
291,E5,49.875,0.125,38,64.1
292,G5,50.0,1.0,44,64.1
293,E5,50.0,1.0,38,64.1
294,G3,50.0,0.5,28,64.1
295,B4,50.5,1.0,22,64.1
296,D4,50.5,1.0,22,64.1
297,D5,51.0,0.875,31,64.1
298,G4,51.0,0.875,31,64.1
299,B4,51.5,0.25,21,64.1
300,D4,51.5,0.25,21,64.1
301,E5,51.875,0.125,34,64.1
302,G5,52.0,333/1000,37,64.1
303,E5,52.0,333/1000,34,64.1
304,G3,52.0,0.5,28,64.1
305,G4,52.333,0.25,28,64.1
306,D5,52.333,333/1000,33,64.1
307,B4,52.5,1.0,22,64.1
308,D4,52.5,1.0,22,64.1
309,G5,52.667,333/1000,40,64.1
310,E5,53.0,0.5,28,64.1
311,A5,53.0,333/1000,44,64.1
312,B5,53.333,333/1000,39,64.1
313,F#5,53.5,0.5,23,64.1
314,C5,53.5,0.375,21,64.1
315,D4,53.5,0.375,21,64.1
316,A5,53.667,26/125,38,64.1
317,E5,53.875,0.125,38,64.1
318,G5,54.0,1.0,44,64.1
319,E5,54.0,1.0,38,64.1
320,G3,54.0,0.5,28,64.1
321,B4,54.5,1.0,22,64.1
322,D4,54.5,1.0,22,64.1
323,D5,55.0,1.0,31,64.1
324,G4,55.0,1.0,31,64.1
325,B4,55.5,0.25,21,64.1
326,D4,55.5,0.25,21,64.1
327,A5,55.75,0.25,36,64.1
328,B5,55.875,0.125,41,64.1
329,D6,56.0,1.75,52,64.1
330,A5,56.0,1.0,36,64.1
331,B5,56.0,1.75,41,64.1
332,D3,56.0,0.5,28,64.1
333,B3,56.5,1.0,18,64.1
334,A4,56.5,1.0,18,64.1
335,D4,56.5,1.0,18,64.1
336,G5,57.0,0.75,30,64.1
337,D5,57.0,0.75,30,64.1
338,B3,57.5,0.25,17,64.1
339,G4,57.5,0.25,17,64.1
340,D4,57.5,0.25,17,64.1
341,B-5,57.75,0.25,36,64.1
342,D6,57.875,0.125,41,64.1
343,E6,58.0,1.75,52,64.1
344,B-5,58.0,1.0,36,64.1
345,D6,58.0,1.0,41,64.1
346,D3,58.0,0.5,28,64.1
347,B-3,58.5,1.0,18,64.1
348,A4,58.5,1.0,18,64.1
349,E4,58.5,1.0,18,64.1
350,C#6,59.0,0.75,30,64.1
351,E5,59.0,0.75,30,64.1
352,B-3,59.5,0.25,17,64.1
353,G4,59.5,0.25,17,64.1
354,E4,59.5,0.25,17,64.1
355,C6,59.75,0.25,36,64.1
356,E6,59.875,0.125,42,64.1
357,F#6,60.0,1.75,52,64.1
358,C6,60.0,1.0,36,64.1
359,E6,60.0,1.0,42,64.1
360,D3,60.0,0.5,28,64.1
361,C4,60.5,1.0,18,64.1
362,B4,60.5,1.0,18,64.1
363,F#4,60.5,1.0,18,64.1
364,D6,61.0,0.75,30,64.1
365,F#5,61.0,0.75,30,64.1
366,C4,61.5,0.25,17,64.1
367,A4,61.5,0.25,17,64.1
368,F#4,61.5,0.25,17,64.1
369,B5,61.75,0.25,41,64.1
370,D6,61.875,0.125,44,64.1
371,G6,62.0,2.0,48,64.1
372,B5,62.0,1.0,41,64.1
373,D6,62.0,1.0,44,64.1
374,G2,62.0,0.5,21,64.1
375,D3,62.0,0.5,21,64.1
376,B3,62.5,1.375,18,64.1
377,G4,62.5,1.375,18,64.1
378,D4,62.5,1.375,18,64.1
379,G5,63.0,0.875,33,64.1
380,G4,64.0,0.125,38,64.1
381,B-3,64.0,0.125,38,64.1
382,D3,64.0,0.125,30,64.1
383,G2,64.0,0.125,30,64.1
384,F#4,64.5,0.25,39,64.1
385,B-3,64.5,0.5,33,64.1
386,G2,64.5,0.25,26,64.1
387,D3,64.5,0.25,26,64.1
388,G4,64.75,0.25,35,64.1
389,A4,65.0,0.75,46,64.1
390,F#4,65.0,1.0,39,64.1
391,C4,65.0,1.0,39,64.1
392,E-3,65.0,1.0,28,64.1
393,G2,65.0,1.0,28,64.1
394,B-4,65.75,0.25,38,64.1
395,G4,66.0,0.125,38,64.1
396,B-3,66.0,0.125,38,64.1
397,D3,66.0,0.125,30,64.1
398,G2,66.0,0.125,30,64.1
399,F#4,66.5,0.25,39,64.1
400,B-3,66.5,0.5,33,64.1
401,G2,66.5,0.25,26,64.1
402,D3,66.5,0.25,26,64.1
403,G4,66.75,0.25,35,64.1
404,A4,67.0,0.75,46,64.1
405,F#4,67.0,1.0,39,64.1
406,C4,67.0,1.0,39,64.1
407,E-3,67.0,1.0,28,64.1
408,G2,67.0,1.0,28,64.1
409,B-4,67.75,0.25,38,64.1
410,G4,68.0,0.125,38,64.1
411,B-3,68.0,0.125,38,64.1
412,D3,68.0,0.125,30,64.1
413,G2,68.0,0.125,30,64.1
414,A4,68.5,0.25,42,64.1
415,F#4,68.5,0.5,36,64.1
416,C4,68.5,0.5,36,64.1
417,G2,68.5,0.25,28,64.1
418,E-3,68.5,0.25,28,64.1
419,B-4,68.75,0.25,38,64.1
420,G4,69.0,0.125,43,64.1
421,B-3,69.0,0.125,43,64.1
422,D3,69.0,0.125,32,64.1
423,G2,69.0,0.125,32,64.1
424,A4,69.5,0.25,48,64.1
425,F#4,69.5,0.5,44,64.1
426,C4,69.5,0.5,44,64.1
427,G2,69.5,0.25,32,64.1
428,E-3,69.5,0.25,32,64.1
429,B-4,69.75,0.25,44,64.1
430,G4,70.0,0.125,48,64.1
431,B-3,70.0,0.125,48,64.1
432,D3,70.0,0.125,37,64.1
433,G2,70.0,0.125,37,64.1
434,A4,70.5,0.25,54,64.1
435,F#4,70.5,0.5,45,64.1
436,C4,70.5,0.5,45,64.1
437,G2,70.5,0.25,35,64.1
438,E-3,70.5,0.25,35,64.1
439,B-4,70.75,0.25,49,64.1
440,G4,71.0,0.125,54,64.1
441,B-3,71.0,0.125,54,64.1
442,D3,71.0,0.125,41,64.1
443,G2,71.0,0.125,41,64.1
444,A4,71.5,0.25,66,64.1
445,F#4,71.5,0.5,49,64.1
446,C4,71.5,0.5,49,64.1
447,G2,71.5,0.25,38,64.1
448,E-3,71.5,0.25,38,64.1
449,B-4,71.75,0.25,61,64.1
450,B-3,72.0,2.0,56,64.1
451,G4,72.0,1.0,66,64.1
452,G2,72.0,2.0,46,64.1
453,D3,72.0,2.0,46,64.1
454,A4,73.0,0.5,62,64.1
455,B-4,73.5,0.25,57,64.1
456,A4,73.75,0.125,45,64.1
457,B-4,73.875,0.125,45,64.1
458,B-3,74.0,2.0,42,64.1
459,A4,74.0,1.0,58,64.1
460,D2,74.0,2.0,42,64.1
461,F3,74.0,2.0,42,64.1
462,G4,75.0,0.5,48,64.1
463,F4,75.5,0.5,41,64.1
464,B-3,76.0,2.0,29,64.1
465,D4,76.0,1.0,35,64.1
466,G1,76.0,2.0,30,64.1
467,D3,76.0,2.0,30,64.1
468,D4,77.0,1.0,27,64.1
469,B-3,78.0,1.0,29,64.1
470,D4,78.0,1.0,27,64.1
471,G1,79.0,1.0,30,64.1
472,D3,79.0,1.0,30,64.1
473,B-4,80.0,0.125,38,64.1
474,C#4,80.0,0.125,38,64.1
475,A4,80.5,0.25,39,64.1
476,C#4,80.5,0.5,33,64.1
477,B-4,80.75,0.25,35,64.1
478,C5,81.0,0.75,46,64.1
479,A4,81.0,1.0,39,64.1
480,E-4,81.0,1.0,39,64.1
481,F3,81.0,0.125,30,64.1
482,B-2,81.0,0.125,30,64.1
483,B-2,81.5,0.25,26,64.1
484,F3,81.5,0.25,26,64.1
485,C#5,81.75,0.25,38,64.1
486,B-4,82.0,0.125,38,64.1
487,C#4,82.0,0.125,38,64.1
488,F#3,82.0,1.0,28,64.1
489,B-2,82.0,1.0,28,64.1
490,A4,82.5,0.25,39,64.1
491,C#4,82.5,0.5,33,64.1
492,B-4,82.75,0.25,35,64.1
493,C5,83.0,0.75,46,64.1
494,A4,83.0,1.0,39,64.1
495,E-4,83.0,1.0,39,64.1
496,F3,83.0,0.125,30,64.1
497,B-2,83.0,0.125,30,64.1
498,B-2,83.5,0.25,26,64.1
499,F3,83.5,0.25,26,64.1
500,C#5,83.75,0.25,38,64.1
501,B-4,84.0,0.125,38,64.1
502,C#4,84.0,0.125,38,64.1
503,F#3,84.0,1.0,28,64.1
504,B-2,84.0,1.0,28,64.1
505,C5,84.5,0.25,42,64.1
506,A4,84.5,0.5,36,64.1
507,E-4,84.5,0.5,36,64.1
508,C#5,84.75,0.25,38,64.1
509,B-4,85.0,0.125,43,64.1
510,C#4,85.0,0.125,43,64.1
511,F3,85.0,0.125,30,64.1
512,B-2,85.0,0.125,30,64.1
513,C5,85.5,0.25,48,64.1
514,A4,85.5,0.5,44,64.1
515,E-4,85.5,0.5,44,64.1
516,B-2,85.5,0.25,28,64.1
517,F#3,85.5,0.25,28,64.1
518,C#5,85.75,0.25,44,64.1
519,B-4,86.0,0.125,48,64.1
520,C#4,86.0,0.125,48,64.1
521,F3,86.0,0.125,32,64.1
522,B-2,86.0,0.125,32,64.1
523,C5,86.5,0.25,54,64.1
524,A4,86.5,0.5,45,64.1
525,E-4,86.5,0.5,45,64.1
526,B-2,86.5,0.25,32,64.1
527,F#3,86.5,0.25,32,64.1
528,C#5,86.75,0.25,49,64.1
529,B-4,87.0,0.125,54,64.1
530,C#4,87.0,0.125,54,64.1
531,F3,87.0,0.125,37,64.1
532,B-2,87.0,0.125,37,64.1
533,C5,87.5,0.25,66,64.1
534,A4,87.5,0.5,49,64.1
535,E-4,87.5,0.5,49,64.1
536,B-2,87.5,0.25,35,64.1
537,F#3,87.5,0.25,35,64.1
538,C#5,87.75,0.25,61,64.1
539,C#4,88.0,2.0,56,64.1
540,B-4,88.0,1.0,66,64.1
541,F3,88.0,0.125,41,64.1
542,B-2,88.0,0.125,41,64.1
543,B-2,88.5,0.25,38,64.1
544,F#3,88.5,0.25,38,64.1
545,C5,89.0,0.5,62,64.1
546,B-2,89.0,2.0,46,64.1
547,F3,89.0,2.0,46,64.1
548,C#5,89.5,0.25,57,64.1
549,C5,89.75,0.125,45,64.1
550,C#5,89.875,0.125,45,64.1
551,C#4,90.0,2.0,42,64.1
552,C5,90.0,1.0,58,64.1
553,B-4,91.0,0.5,48,64.1
554,F2,91.0,2.0,42,64.1
555,G#3,91.0,2.0,42,64.1
556,G#4,91.5,0.5,41,64.1
557,C#4,92.0,2.0,29,64.1
558,F4,92.0,1.0,35,64.1
559,F4,93.0,1.0,27,64.1
560,B-1,93.0,2.0,30,64.1
561,F3,93.0,2.0,30,64.1
562,C#4,94.0,1.0,29,64.1
563,F4,94.0,1.0,27,64.1
564,B-1,96.0,1.0,30,64.1
565,F3,96.0,1.0,30,64.1
566,E4,98.0,1.0,35,64.1
567,C#2,98.0,4.0,24,64.1
568,G#2,98.333,3667/1000,24,64.1
569,C#3,98.667,3333/1000,25,64.1
570,E4,99.0,1.0,27,64.1
571,E3,99.0,3.0,29,64.1
572,G#3,99.333,2667/1000,27,64.1
573,C#4,99.667,2333/1000,29,64.1
574,E4,100.0,1.0,27,64.1
575,E5,102.0,1.0,36,64.1
576,C#2,102.0,1.0,24,64.1
577,G#2,102.0,1.0,24,64.1
578,C#3,102.0,1.0,25,64.1
579,E3,102.0,1.0,29,64.1
580,G#3,102.0,1.0,27,64.1
581,C#4,102.0,1.0,29,64.1
582,A4,103.0,1.0,28,64.1
583,E5,104.0,1.0,34,64.1
584,G3,104.0,2.0,21,64.1
585,C#4,104.5,1.0,13,64.1
586,E4,104.5,1.0,13,64.1
587,A3,104.5,1.0,13,64.1
588,A4,105.0,1.0,27,64.1
589,C#4,105.5,0.5,13,64.1
590,E4,105.5,0.5,13,64.1
591,A3,105.5,0.5,13,64.1
592,E5,106.0,333/1000,33,64.1
593,G3,106.0,2.0,21,64.1
594,A4,106.333,333/1000,29,64.1
595,C#4,106.5,1.0,13,64.1
596,E4,106.5,1.0,13,64.1
597,A3,106.5,1.0,13,64.1
598,E5,106.667,333/1000,31,64.1
599,F5,107.0,333/1000,35,64.1
600,G5,107.333,333/1000,28,64.1
601,C#4,107.5,0.5,13,64.1
602,E4,107.5,0.5,13,64.1
603,A3,107.5,0.5,13,64.1
604,F5,107.667,333/1000,28,64.1
605,E5,108.0,1.0,34,64.1
606,G3,108.0,2.0,21,64.1
607,C#4,108.5,1.0,16,64.1
608,E4,108.5,1.0,16,64.1
609,A3,108.5,1.0,16,64.1
610,A4,109.0,0.75,30,64.1
611,D4,109.5,0.5,15,64.1
612,F4,109.5,0.5,15,64.1
613,B-3,109.5,0.5,15,64.1
614,C#5,109.75,0.25,29,64.1
615,F5,109.875,0.125,32,64.1
616,A5,110.0,2.0,34,64.1
617,C#5,110.0,1.0,29,64.1
618,F5,110.0,1.0,32,64.1
619,G3,110.0,2.0,21,64.1
620,C#4,110.5,1.0,16,64.1
621,E4,110.5,1.0,16,64.1
622,A3,110.5,1.0,16,64.1
623,E5,111.0,0.75,27,64.1
624,A4,111.0,0.75,27,64.1
625,C#4,111.5,0.25,16,64.1
626,E4,111.5,0.25,16,64.1
627,A3,111.5,0.25,16,64.1
628,C#5,111.75,0.25,33,64.1
629,F5,111.875,0.125,36,64.1
630,A5,112.0,2.0,38,64.1
631,C#5,112.0,1.0,33,64.1
632,F5,112.0,1.0,36,64.1
633,G3,112.0,2.0,21,64.1
634,C#4,112.5,1.0,16,64.1
635,E4,112.5,1.0,16,64.1
636,A3,112.5,1.0,16,64.1
637,E5,113.0,1.0,30,64.1
638,A4,113.0,1.0,30,64.1
639,C#4,113.5,0.25,15,64.1
640,E4,113.5,0.25,15,64.1
641,A3,113.5,0.25,15,64.1
642,G3,114.0,2.0,23,64.1
643,C#5,114.0,333/1000,37,64.1
644,A5,114.0,333/1000,37,64.1
645,A4,114.333,333/1000,28,64.1
646,E5,114.333,333/1000,28,64.1
647,C#4,114.5,1.0,18,64.1
648,E4,114.5,1.0,18,64.1
649,A3,114.5,1.0,18,64.1
650,A5,114.667,333/1000,27,64.1
651,C#5,114.667,333/1000,27,64.1
652,B-5,115.0,333/1000,36,64.1
653,D5,115.0,333/1000,36,64.1
654,G5,115.333,333/1000,32,64.1
655,C6,115.333,333/1000,32,64.1
656,C#4,115.5,0.5,17,64.1
657,E4,115.5,0.5,17,64.1
658,A3,115.5,0.5,17,64.1
659,D5,115.667,83/1000,24,64.1
660,B-5,115.667,167/1000,32,64.1
661,C#5,115.833,167/1000,33,64.1
662,F5,115.917,83/1000,36,64.1
663,A5,116.0,2.0,38,64.1
664,C#5,116.0,1.0,33,64.1
665,F5,116.0,1.0,36,64.1
666,G3,116.0,2.0,23,64.1
667,C#4,116.5,1.0,18,64.1
668,E4,116.5,1.0,18,64.1
669,A3,116.5,1.0,18,64.1
670,E5,117.0,1.0,30,64.1
671,A4,117.0,1.0,30,64.1
672,D4,117.5,0.25,17,64.1
673,E4,117.5,0.25,17,64.1
674,B-3,117.5,0.25,17,64.1
675,G3,118.0,2.0,23,64.1
676,E-5,118.0,333/1000,42,64.1
677,B-5,118.0,333/1000,42,64.1
678,B-4,118.333,333/1000,32,64.1
679,G5,118.333,333/1000,32,64.1
680,C#4,118.5,1.0,18,64.1
681,E4,118.5,1.0,18,64.1
682,A3,118.5,1.0,18,64.1
683,B-5,118.667,333/1000,30,64.1
684,E-5,118.667,333/1000,30,64.1
685,C6,119.0,333/1000,41,64.1
686,G5,119.0,333/1000,41,64.1
687,B-5,119.333,333/1000,36,64.1
688,D6,119.333,333/1000,36,64.1
689,C#4,119.5,0.5,17,64.1
690,E4,119.5,0.5,17,64.1
691,A3,119.5,0.5,17,64.1
692,G5,119.667,83/1000,27,64.1
693,C6,119.667,167/1000,36,64.1
694,F5,119.833,167/1000,37,64.1
695,B-5,120.0,2.0,43,64.1
696,F5,120.0,1.0,37,64.1
697,G3,120.0,2.0,28,64.1
698,E-4,120.5,1.0,21,64.1
699,G4,120.5,1.0,21,64.1
700,B-3,120.5,1.0,21,64.1
701,E-5,121.0,1.0,34,64.1
702,B-4,121.0,1.0,34,64.1
703,E-4,121.5,0.25,20,64.1
704,G4,121.5,0.25,20,64.1
705,B-3,121.5,0.25,20,64.1
706,G3,122.0,2.0,28,64.1
707,E-5,122.0,333/1000,48,64.1
708,C6,122.0,333/1000,48,64.1
709,C5,122.333,333/1000,36,64.1
710,G5,122.333,333/1000,36,64.1
711,E-4,122.5,1.0,21,64.1
712,G4,122.5,1.0,21,64.1
713,B-3,122.5,1.0,21,64.1
714,C6,122.667,333/1000,34,64.1
715,E-5,122.667,333/1000,34,64.1
716,E-6,123.0,333/1000,47,64.1
717,G5,123.0,333/1000,47,64.1
718,C6,123.333,333/1000,41,64.1
719,F6,123.333,333/1000,41,64.1
720,E-4,123.5,0.5,20,64.1
721,G4,123.5,0.5,20,64.1
722,B-3,123.5,0.5,20,64.1
723,G5,123.667,83/1000,31,64.1
724,E-6,123.667,167/1000,41,64.1
725,E-5,123.833,167/1000,42,64.1
726,C6,124.0,2.0,56,64.1
727,E-5,124.0,1.0,42,64.1
728,G3,124.0,2.0,36,64.1
729,E-4,124.5,1.0,28,64.1
730,G#4,124.5,1.0,28,64.1
731,C4,124.5,1.0,28,64.1
732,C5,125.0,0.875,45,64.1
733,G5,125.0,0.875,45,64.1
734,E-4,125.5,0.25,26,64.1
735,A4,125.5,0.25,26,64.1
736,C4,125.5,0.25,26,64.1
737,C6,125.875,0.125,51,64.1
738,F#6,126.0,1.0,66,64.1
739,C6,126.0,1.0,51,64.1
740,G3,126.0,2.0,36,64.1
741,E-4,126.5,1.0,28,64.1
742,G#4,126.5,1.0,28,64.1
743,C4,126.5,1.0,28,64.1
744,E-6,127.0,0.875,59,64.1
745,F#5,127.0,0.875,59,64.1
746,E-4,127.5,0.375,26,64.1
747,A4,127.5,0.375,26,64.1
748,C4,127.5,0.375,26,64.1
749,C6,127.875,0.125,51,64.1
750,F#6,128.0,1.0,66,64.1
751,C6,128.0,1.0,51,64.1
752,G3,128.0,0.5,54,64.1
753,B-4,128.5,1.0,40,64.1
754,F#4,128.5,1.0,40,64.1
755,C5,128.5,1.0,40,64.1
756,E-4,128.5,1.0,40,64.1
757,E-6,129.0,0.875,60,64.1
758,F#5,129.0,0.875,60,64.1
759,E-4,129.5,0.375,40,64.1
760,C5,129.5,0.375,40,64.1
761,F#4,129.5,0.375,40,64.1
762,A4,129.5,0.375,40,64.1
763,C6,129.875,0.125,51,64.1
764,F#6,130.0,0.5,69,64.1
765,C6,130.0,0.5,51,64.1
766,G3,130.0,0.5,54,64.1
767,E-6,130.5,0.5,60,64.1
768,F#5,130.5,0.5,60,64.1
769,B-4,130.5,1.0,40,64.1
770,F#4,130.5,1.0,40,64.1
771,C5,130.5,1.0,40,64.1
772,E-4,130.5,1.0,40,64.1
773,F#6,131.0,0.5,68,64.1
774,C6,131.0,0.5,68,64.1
775,E-6,131.5,0.5,64,64.1
776,F#5,131.5,0.5,64,64.1
777,E-4,131.5,0.375,40,64.1
778,C5,131.5,0.375,40,64.1
779,F#4,131.5,0.375,40,64.1
780,A4,131.5,0.375,40,64.1
781,G3,132.0,0.5,54,64.1
782,F#6,132.0,0.5,70,64.1
783,C6,132.0,0.5,70,64.1
784,F#5,132.5,0.5,58,64.1
785,E-6,132.5,0.5,58,64.1
786,B-4,132.5,1.0,40,64.1
787,F#4,132.5,1.0,40,64.1
788,C5,132.5,1.0,40,64.1
789,E-4,132.5,1.0,40,64.1
790,F#6,133.0,0.5,74,64.1
791,C6,133.0,0.5,74,64.1
792,E-6,133.5,0.375,66,64.1
793,F#5,133.5,0.375,66,64.1
794,E-4,133.5,0.5,44,64.1
795,C5,133.5,0.5,44,64.1
796,F#4,133.5,0.5,44,64.1
797,A4,133.5,0.5,44,64.1
798,C6,133.875,0.125,46,64.1
799,G6,134.0,1.0,64,64.1
800,G3,134.0,0.5,65,64.1
801,B-4,134.5,1.0,47,64.1
802,F#4,134.5,1.0,47,64.1
803,C5,134.5,1.0,47,64.1
804,E-4,134.5,1.0,47,64.1
805,G5,135.0,833/1000,60,64.1
806,E-4,135.5,0.375,48,64.1
807,C5,135.5,0.375,48,64.1
808,F#4,135.5,0.375,48,64.1
809,A4,135.5,0.375,48,64.1
810,G5,135.875,0.125,48,64.1
811,D6,136.0,1.0,62,64.1
812,C3,136.0,2.0,39,64.1
813,G3,136.5,1.0,40,64.1
814,E-4,136.5,1.0,40,64.1
815,D5,137.0,833/1000,54,64.1
816,E-4,137.5,0.375,40,64.1
817,G3,137.5,0.375,40,64.1
818,D5,137.875,0.125,40,64.1
819,G5,138.0,1.0,52,64.1
820,B2,138.0,2.0,43,64.1
821,G3,138.5,1.0,36,64.1
822,D4,138.5,1.0,36,64.1
823,G4,139.0,833/1000,45,64.1
824,D4,139.5,0.375,36,64.1
825,G3,139.5,0.375,36,64.1
826,G4,139.875,0.125,32,64.1
827,D5,140.0,1.0,41,64.1
828,B-2,140.0,2.0,39,64.1
829,E3,140.5,1.0,31,64.1
830,G3,140.5,1.0,31,64.1
831,C#4,140.5,1.0,31,64.1
832,D4,141.0,833/1000,29,64.1
833,E3,141.5,0.375,31,64.1
834,C#4,141.5,0.375,31,64.1
835,G3,141.5,0.375,31,64.1
836,D4,141.875,0.125,29,64.1
837,G4,142.0,1.0,35,64.1
838,A2,142.0,2.0,31,64.1
839,D3,142.5,1.0,19,64.1
840,F#3,142.5,1.0,19,64.1
841,C4,142.5,1.0,19,64.1
842,D4,143.0,1.0,26,64.1
843,D3,143.5,0.375,19,64.1
844,C4,143.5,0.375,19,64.1
845,F#3,143.5,0.375,19,64.1
846,G4,144.0,1.0,35,64.1
847,G2,144.0,0.5,28,64.1
848,B3,144.5,1.0,18,64.1
849,D3,144.5,1.0,18,64.1
850,D4,145.0,1.0,27,64.1
851,B3,145.5,0.5,18,64.1
852,D3,145.5,0.5,18,64.1
853,G4,146.0,333/1000,37,64.1
854,G2,146.0,0.5,28,64.1
855,F#4,146.333,333/1000,33,64.1
856,D4,146.5,0.5,28,64.1
857,B3,146.5,1.0,19,64.1
858,D3,146.5,1.0,19,64.1
859,G4,146.667,333/1000,35,64.1
860,E4,147.0,0.5,28,64.1
861,A4,147.0,333/1000,39,64.1
862,B4,147.333,333/1000,32,64.1
863,F#4,147.5,0.5,23,64.1
864,B3,147.5,0.5,19,64.1
865,D3,147.5,0.5,19,64.1
866,A4,147.667,333/1000,32,64.1
867,G4,148.0,1.0,38,64.1
868,G2,148.0,0.5,28,64.1
869,B3,148.5,1.0,22,64.1
870,D3,148.5,1.0,22,64.1
871,D4,149.0,0.75,34,64.1
872,C4,149.5,0.5,21,64.1
873,D3,149.5,0.5,21,64.1
874,F#4,149.75,0.25,33,64.1
875,B4,149.875,0.125,36,64.1
876,D5,150.0,2.0,38,64.1
877,F#4,150.0,1.0,33,64.1
878,B4,150.0,1.0,36,64.1
879,G2,150.0,0.5,28,64.1
880,B3,150.5,1.0,22,64.1
881,D3,150.5,1.0,22,64.1
882,A4,151.0,0.75,30,64.1
883,D4,151.0,0.75,30,64.1
884,B3,151.5,0.25,22,64.1
885,D3,151.5,0.25,22,64.1
886,F#4,151.75,0.25,33,64.1
887,B4,151.875,0.125,36,64.1
888,D5,152.0,2.0,38,64.1
889,F#4,152.0,1.0,33,64.1
890,B4,152.0,1.0,36,64.1
891,G2,152.0,0.5,28,64.1
892,C4,152.5,1.0,22,64.1
893,D3,152.5,1.0,22,64.1
894,A4,153.0,0.75,30,64.1
895,D4,153.0,0.75,30,64.1
896,C4,153.5,0.25,21,64.1
897,D3,153.5,0.25,21,64.1
898,F#4,153.75,0.25,33,64.1
899,B4,153.875,0.125,36,64.1
900,D5,154.0,333/1000,38,64.1
901,F#4,154.0,333/1000,33,64.1
902,B4,154.0,333/1000,36,64.1
903,G2,154.0,0.5,28,64.1
904,D4,154.333,333/1000,28,64.1
905,A4,154.333,333/1000,28,64.1
906,C4,154.5,1.0,22,64.1
907,D3,154.5,1.0,22,64.1
908,D5,154.667,333/1000,27,64.1
909,F#4,154.667,333/1000,27,64.1
910,E5,155.0,333/1000,36,64.1
911,G4,155.0,333/1000,36,64.1
912,C5,155.333,333/1000,32,64.1
913,F#5,155.333,333/1000,32,64.1
914,C4,155.5,0.25,21,64.1
915,D3,155.5,0.25,21,64.1
916,G4,155.667,83/1000,24,64.1
917,E5,155.667,167/1000,32,64.1
918,F#4,155.833,167/1000,33,64.1
919,B4,155.917,83/1000,36,64.1
920,D5,156.0,2.0,38,64.1
921,F#4,156.0,1.0,33,64.1
922,B4,156.0,1.0,36,64.1
923,G2,156.0,0.5,28,64.1
924,C4,156.5,1.0,22,64.1
925,D3,156.5,1.0,22,64.1
926,A4,157.0,0.75,30,64.1
927,D4,157.0,0.75,30,64.1
928,C4,157.5,0.25,21,64.1
929,D3,157.5,0.25,21,64.1
930,E5,157.875,0.125,38,64.1
931,G5,158.0,1.0,44,64.1
932,E5,158.0,1.0,38,64.1
933,G2,158.0,0.5,28,64.1
934,C4,158.5,1.0,22,64.1
935,D3,158.5,1.0,22,64.1
936,D5,159.0,1.0,31,64.1
937,G4,159.0,1.0,31,64.1
938,C4,159.5,0.25,21,64.1
939,D3,159.5,0.25,21,64.1
940,E5,159.875,0.125,38,64.1
941,G5,160.0,1.0,44,64.1
942,E5,160.0,1.0,38,64.1
943,G3,160.0,0.5,28,64.1
944,B4,160.5,1.0,22,64.1
945,D4,160.5,1.0,22,64.1
946,D5,161.0,0.875,31,64.1
947,G4,161.0,0.875,31,64.1
948,B4,161.5,0.25,21,64.1
949,D4,161.5,0.25,21,64.1
950,E5,161.875,0.125,34,64.1
951,G5,162.0,333/1000,37,64.1
952,E5,162.0,333/1000,34,64.1
953,G3,162.0,0.5,28,64.1
954,G4,162.333,0.25,28,64.1
955,D5,162.333,333/1000,33,64.1
956,B4,162.5,1.0,22,64.1
957,D4,162.5,1.0,22,64.1
958,G5,162.667,333/1000,40,64.1
959,E5,163.0,0.5,28,64.1
960,A5,163.0,333/1000,44,64.1
961,B5,163.333,333/1000,39,64.1
962,F#5,163.5,0.5,23,64.1
963,B4,163.5,0.25,21,64.1
964,D4,163.5,0.25,21,64.1
965,A5,163.667,26/125,38,64.1
966,E5,163.875,0.125,38,64.1
967,G5,164.0,1.0,44,64.1
968,E5,164.0,1.0,38,64.1
969,G3,164.0,0.5,28,64.1
970,B4,164.5,1.0,22,64.1
971,D4,164.5,1.0,22,64.1
972,D5,165.0,1.0,31,64.1
973,G4,165.0,1.0,31,64.1
974,C5,165.5,0.375,21,64.1
975,D4,165.5,0.375,21,64.1
976,A5,165.75,0.25,36,64.1
977,B5,165.875,0.125,41,64.1
978,D6,166.0,1.75,52,64.1
979,A5,166.0,1.0,36,64.1
980,B5,166.0,1.75,41,64.1
981,G3,166.0,0.5,28,64.1
982,B4,166.5,1.0,22,64.1
983,D4,166.5,1.0,22,64.1
984,G5,167.0,0.75,30,64.1
985,D5,167.0,0.75,30,64.1
986,B4,167.5,0.25,21,64.1
987,D4,167.5,0.25,21,64.1
988,B-5,167.75,0.25,36,64.1
989,D6,167.875,0.125,41,64.1
990,E6,168.0,1.75,52,64.1
991,B-5,168.0,1.0,36,64.1
992,D6,168.0,1.0,41,64.1
993,D3,168.0,0.5,28,64.1
994,B3,168.5,1.0,18,64.1
995,A4,168.5,1.0,18,64.1
996,D4,168.5,1.0,18,64.1
997,C#6,169.0,0.75,30,64.1
998,E5,169.0,0.75,30,64.1
999,B3,169.5,0.25,17,64.1
1000,G4,169.5,0.25,17,64.1
1001,D4,169.5,0.25,17,64.1
1002,C6,169.75,0.25,32,64.1
1003,E6,169.875,0.125,37,64.1
1004,F#6,170.0,1.75,46,64.1
1005,C6,170.0,1.0,32,64.1
1006,E6,170.0,1.0,37,64.1
1007,D3,170.0,0.5,28,64.1
1008,B-3,170.5,1.0,18,64.1
1009,A4,170.5,1.0,18,64.1
1010,E4,170.5,1.0,18,64.1
1011,D6,171.0,0.75,27,64.1
1012,F#5,171.0,0.75,27,64.1
1013,B-3,171.5,0.25,17,64.1
1014,G4,171.5,0.25,17,64.1
1015,E4,171.5,0.25,17,64.1
1016,B5,171.75,0.25,32,64.1
1017,D6,171.875,0.125,35,64.1
1018,G6,172.0,2.0,38,64.1
1019,B5,172.0,1.0,32,64.1
1020,D6,172.0,1.0,35,64.1
1021,D3,172.0,0.5,25,64.1
1022,C4,172.5,1.0,16,64.1
1023,B4,172.5,1.0,16,64.1
1024,F#4,172.5,1.0,16,64.1
1025,G5,173.0,0.875,26,64.1
1026,C4,173.5,0.25,15,64.1
1027,A4,173.5,0.25,15,64.1
1028,F#4,173.5,0.25,15,64.1
1029,G2,174.0,0.5,16,64.1
1030,D3,174.0,0.5,16,64.1
1031,B3,174.5,1.375,14,64.1
1032,G4,174.5,1.375,14,64.1
1033,D4,174.5,1.375,14,64.1
