,note_name,start_time,duration,velocity,tempo
0,B4,3.0,1.0,39,101.1
1,E4,4.0,99/100,42,101.1
2,F#4,4.75,0.25,36,101.1
3,G4,5.0,0.75,43,101.1
4,E4,5.0,2.0,30,101.1
5,D4,5.0,1.0,25,101.1
6,A4,5.75,0.25,33,101.1
7,F#4,5.75,0.25,33,101.1
8,G4,6.0,1.0,36,101.1
9,B4,6.0,0.75,45,101.1
10,C#4,6.0,1.0,30,101.1
11,E5,6.75,0.25,37,101.1
12,C5,7.0,1.0,36,101.1
13,G5,7.0,0.75,45,101.1
14,C4,7.0,1.0,24,101.1
15,E4,7.0,1.0,24,101.1
16,F#5,7.75,0.25,37,101.1
17,F#4,8.0,1.0,40,101.1
18,D5,8.0,0.75,50,101.1
19,B3,8.0,1.0,28,101.1
20,D4,8.0,1.0,28,101.1
21,C5,8.75,0.25,43,101.1
22,E5,9.0,0.75,54,101.1
23,A4,9.0,1.0,43,101.1
24,A3,9.0,1.0,30,101.1
25,C4,9.0,1.0,30,101.1
26,D5,9.75,0.25,46,101.1
27,B4,10.0,1.5,40,101.1
28,E-4,10.0,2.0,32,101.1
29,G3,10.0,1.0,28,101.1
30,B3,10.0,1.0,28,101.1
31,F#3,11.0,1.0,24,101.1
32,A3,11.0,1.0,24,101.1
33,C5,11.5,0.5,36,101.1
34,A4,12.0,0.75,43,101.1
35,F4,12.0,1.0,34,101.1
36,F3,12.0,1.0,28,101.1
37,C4,12.0,1.0,28,101.1
38,B4,12.75,0.25,36,101.1
39,E4,13.0,1.0,36,101.1
40,G4,13.0,0.75,45,101.1
41,B3,13.0,1.0,24,101.1
42,C3,13.0,1.0,24,101.1
43,A4,13.75,0.25,39,101.1
44,D4,14.0,1.0,36,101.1
45,F#4,14.0,0.75,45,101.1
46,D3,14.0,1.0,28,101.1
47,A3,14.0,1.0,28,101.1
48,G4,14.75,0.25,36,101.1
49,E4,15.0,0.75,43,101.1
50,C4,15.0,1.0,34,101.1
51,G3,15.0,1.0,24,101.1
52,A2,15.0,1.0,24,101.1
53,F#4,15.75,0.25,35,101.1
54,E-4,16.0,1.0,36,101.1
55,B3,16.0,1.0,36,101.1
56,F#3,16.0,1.0,24,101.1
57,B2,16.0,1.0,24,101.1
58,E2,17.0,1.0,25,101.1
59,E4,17.0,1.5,31,101.1
60,B3,17.0,1.5,31,101.1
61,G3,17.0,1.5,31,101.1
62,E3,18.0,2.0,46,101.1
63,F#3,19.0,1.0,25,101.1
64,E-4,19.0,1.0,35,101.1
65,B4,19.0,1.0,35,101.1
66,C4,19.938,0.062,38,101.1
67,E4,20.0,0.75,42,101.1
68,C4,20.0,1.0,38,101.1
69,B3,20.0,0.75,35,101.1
70,E3,20.0,3.0,46,101.1
71,F#4,20.75,0.25,36,101.1
72,A3,20.75,0.25,30,101.1
73,D4,21.0,0.75,30,101.1
74,E4,21.0,0.75,40,101.1
75,G4,21.0,0.75,40,101.1
76,C4,21.75,0.25,24,101.1
77,A4,21.75,0.25,33,101.1
78,F#4,21.75,0.25,33,101.1
79,G4,22.0,1.0,36,101.1
80,B4,22.0,0.75,45,101.1
81,B3,22.0,1.0,30,101.1
82,E5,22.75,0.25,37,101.1
83,A4,23.0,1.0,36,101.1
84,G5,23.0,0.75,45,101.1
85,F#3,23.0,1.0,24,101.1
86,E4,23.0,1.0,24,101.1
87,F#5,23.75,0.25,37,101.1
88,F#4,24.0,1.0,40,101.1
89,D5,24.0,0.75,50,101.1
90,G3,24.0,1.0,28,101.1
91,B3,24.0,1.0,28,101.1
92,C5,24.75,0.25,43,101.1
93,E5,25.0,0.75,54,101.1
94,G4,25.0,1.0,43,101.1
95,A3,25.0,1.0,30,101.1
96,C4,25.0,1.0,30,101.1
97,D5,25.75,0.25,46,101.1
98,B4,26.0,1.5,40,101.1
99,F#4,26.0,1.0,32,101.1
100,B3,26.0,1.0,25,101.1
101,D4,26.0,2.0,30,101.1
102,F4,27.0,1.0,32,101.1
103,G3,27.0,1.0,26,101.1
104,C5,27.5,0.5,27,101.1
105,A4,28.0,0.75,32,101.1
106,C4,28.0,0.5,25,101.1
107,F3,28.0,1.0,18,101.1
108,A3,28.0,0.5,22,101.1
109,D4,28.5,0.5,18,101.1
110,B3,28.5,0.5,16,101.1
111,B4,28.75,0.25,27,101.1
112,E4,29.0,1.0,27,101.1
113,G4,29.0,0.75,33,101.1
114,C4,29.0,1.0,18,101.1
115,C3,29.0,1.0,18,101.1
116,A4,29.75,0.25,29,101.1
117,A3,30.0,0.5,27,101.1
118,F#4,30.0,0.75,33,101.1
119,D3,30.0,1.0,18,101.1
120,F#3,30.0,0.5,22,101.1
121,B3,30.5,0.5,20,101.1
122,G3,30.5,0.5,16,101.1
123,G4,30.75,0.25,27,101.1
124,E4,31.0,0.75,32,101.1
125,C4,31.0,1.0,25,101.1
126,A3,31.0,1.0,18,101.1
127,A2,31.0,1.0,18,101.1
128,F#4,31.75,0.25,26,101.1
129,E-4,32.0,1.0,27,101.1
130,B3,32.0,1.0,27,101.1
131,F#3,32.0,1.0,18,101.1
132,B2,32.0,1.0,18,101.1
133,E2,33.0,2.0,18,101.1
134,E4,33.0,2.0,23,101.1
135,B3,33.0,2.0,23,101.1
136,G3,33.0,2.0,23,101.1
137,D4,35.0,1.0,58,101.1
138,F#4,35.0,1.0,58,101.1
139,D3,35.0,1.0,52,101.1
140,A3,35.0,1.0,52,101.1
141,D4,36.0,1.0,43,101.1
142,G4,36.0,0.75,63,101.1
143,G3,36.0,2.0,55,101.1
144,B3,36.0,1.0,55,101.1
145,A4,36.75,0.25,54,101.1
146,E4,37.0,1.0,43,101.1
147,B4,37.0,0.5,64,101.1
148,C#4,37.0,1.0,49,101.1
149,G4,37.5,0.5,55,101.1
150,F#4,37.938,0.562,54,101.1
151,B4,38.0,0.5,67,101.1
152,D4,38.0,0.5,53,101.1
153,D3,38.0,2.0,53,101.1
154,A3,38.5,0.5,45,101.1
155,E4,38.5,0.5,55,101.1
156,A4,38.5,0.5,55,101.1
157,F#3,39.0,1.0,39,101.1
158,D4,39.0,0.5,60,101.1
159,A4,39.0,0.5,60,101.1
160,D4,39.5,0.5,55,101.1
161,E4,40.0,1.0,43,101.1
162,C5,40.0,0.75,63,101.1
163,C3,40.0,2.0,55,101.1
164,G3,40.0,1.0,55,101.1
165,D5,40.75,0.25,56,101.1
166,F#4,41.0,1.0,46,101.1
167,E5,41.0,0.5,68,101.1
168,A3,41.0,1.0,52,101.1
169,C5,41.5,0.5,61,101.1
170,G4,41.938,1.062,61,101.1
171,D5,42.0,1.5,77,101.1
172,B3,42.0,1.0,60,101.1
173,G2,42.0,2.0,60,101.1
174,A4,43.0,1.0,62,101.1
175,D4,43.0,1.0,44,101.1
176,D5,43.5,0.5,77,101.1
177,B4,44.0,1.0,49,101.1
178,E5,44.0,0.75,72,101.1
179,G3,44.0,4.0,63,101.1
180,G4,44.0,1.0,63,101.1
181,F#5,44.75,0.25,62,101.1
182,A4,45.0,1.0,49,101.1
183,D5,45.0,0.5,73,101.1
184,F#4,45.0,1.0,56,101.1
185,B4,45.5,0.5,63,101.1
186,C5,46.0,0.75,70,101.1
187,G4,46.0,1.0,59,101.1
188,E4,46.0,1.0,60,101.1
189,D5,46.75,0.25,56,101.1
190,B4,47.0,0.5,68,101.1
191,F#4,47.0,1.0,57,101.1
192,D4,47.0,1.0,44,101.1
193,G4,47.5,0.5,57,101.1
194,C4,48.0,1.0,44,101.1
195,G3,48.0,2.0,63,101.1
196,E4,48.0,1.0,64,101.1
197,A4,48.0,1.0,64,101.1
198,E-4,48.938,2.062,48,101.1
199,B4,49.0,2.0,57,101.1
200,B3,49.0,1.0,44,101.1
201,B-3,50.0,1.0,30,101.1
202,F#3,50.0,1.0,30,101.1
203,F3,51.0,1.0,27,101.1
204,A3,51.0,0.5,32,101.1
205,B4,51.0,1.0,42,101.1
206,E-4,51.0,1.0,42,101.1
207,G#3,51.5,0.5,29,101.1
208,B3,52.0,1.0,36,101.1
209,E4,52.0,0.75,42,101.1
210,E3,52.0,1.0,28,101.1
211,G3,52.0,1.0,28,101.1
212,F#4,52.75,0.25,36,101.1
213,G4,53.0,0.75,43,101.1
214,B3,53.0,1.0,29,101.1
215,E4,53.0,1.0,29,101.1
216,D4,53.0,1.0,28,101.1
217,D3,53.0,1.0,28,101.1
218,A4,53.75,0.25,37,101.1
219,B4,54.0,0.75,45,101.1
220,E4,54.0,1.0,36,101.1
221,G4,54.0,1.0,36,101.1
222,C#3,54.0,1.0,28,101.1
223,C#4,54.0,1.0,28,101.1
224,E5,54.75,0.25,37,101.1
225,G5,55.0,0.75,45,101.1
226,E4,55.0,1.0,36,101.1
227,C5,55.0,1.0,36,101.1
228,C3,55.0,1.0,24,101.1
229,C4,55.0,1.0,24,101.1
230,F#5,55.75,0.25,37,101.1
231,D5,56.0,0.75,50,101.1
232,B4,56.0,1.0,40,101.1
233,F#4,56.0,1.0,40,101.1
234,B2,56.0,1.0,28,101.1
235,B3,56.0,1.0,28,101.1
236,C5,56.75,0.25,43,101.1
237,E5,57.0,0.75,54,101.1
238,C4,57.0,1.0,43,101.1
239,A4,57.0,1.0,43,101.1
240,A2,57.0,1.0,30,101.1
241,A3,57.0,1.0,30,101.1
242,D5,57.75,0.25,46,101.1
243,B3,58.0,1.0,43,101.1
244,B4,58.0,1.5,40,101.1
245,E-4,58.0,2.0,32,101.1
246,G2,58.0,1.0,28,101.1
247,G3,58.0,1.0,28,101.1
248,A3,59.0,1.0,43,101.1
249,F#2,59.0,1.0,24,101.1
250,F#3,59.0,1.0,24,101.1
251,C5,59.5,0.5,36,101.1
252,A4,60.0,0.75,32,101.1
253,C4,60.0,1.0,25,101.1
254,F4,60.0,1.0,25,101.1
255,F2,60.0,1.0,20,101.1
256,F3,60.0,1.0,20,101.1
257,B4,60.75,0.25,27,101.1
258,G4,61.0,0.75,33,101.1
259,B3,61.0,1.0,27,101.1
260,E4,61.0,1.0,27,101.1
261,C3,61.0,1.0,18,101.1
262,C2,61.0,1.0,18,101.1
263,A4,61.75,0.25,29,101.1
264,F#4,62.0,0.75,33,101.1
265,A3,62.0,1.0,27,101.1
266,D4,62.0,1.0,27,101.1
267,D2,62.0,1.0,20,101.1
268,D3,62.0,1.0,20,101.1
269,G4,62.75,0.25,27,101.1
270,E4,63.0,0.75,32,101.1
271,G3,63.0,1.0,25,101.1
272,C4,63.0,1.0,25,101.1
273,A2,63.0,1.0,18,101.1
274,A1,63.0,1.0,18,101.1
275,F#4,63.75,0.25,26,101.1
276,F#3,64.0,1.0,26,101.1
277,E-4,64.0,1.0,26,101.1
278,B3,64.0,1.0,26,101.1
279,B2,64.0,1.0,18,101.1
280,B1,64.0,1.0,18,101.1
281,E4,65.0,2.0,23,101.1
282,B3,65.0,2.0,23,101.1
283,G3,65.0,2.0,23,101.1
284,E1,65.0,2.0,16,101.1
285,E2,65.0,2.0,16,101.1
286,D4,67.0,1.0,58,101.1
287,F#4,67.0,1.0,58,101.1
288,D3,67.0,1.0,52,101.1
289,A3,67.0,1.0,52,101.1
290,D4,68.0,1.0,43,101.1
291,G4,68.0,0.75,63,101.1
292,G3,68.0,2.0,55,101.1
293,B3,68.0,1.0,55,101.1
294,A4,68.75,0.25,54,101.1
295,E4,69.0,1.0,43,101.1
296,B4,69.0,0.5,64,101.1
297,C#4,69.0,1.0,49,101.1
298,G4,69.5,0.5,55,101.1
299,F#4,69.938,0.562,54,101.1
300,B4,70.0,0.5,67,101.1
301,D4,70.0,0.5,53,101.1
302,D3,70.0,2.0,53,101.1
303,A3,70.5,0.5,45,101.1
304,E4,70.5,0.5,55,101.1
305,A4,70.5,0.5,55,101.1
306,F#3,71.0,1.0,39,101.1
307,D4,71.0,0.5,60,101.1
308,A4,71.0,0.5,60,101.1
309,D4,71.5,0.5,55,101.1
310,E4,72.0,1.0,43,101.1
311,C5,72.0,0.75,63,101.1
312,C3,72.0,2.0,55,101.1
313,G3,72.0,1.0,55,101.1
314,D5,72.75,0.25,56,101.1
315,F#4,73.0,1.0,46,101.1
316,E5,73.0,0.5,68,101.1
317,A3,73.0,1.0,52,101.1
318,C5,73.5,0.5,61,101.1
319,G4,73.938,1.062,61,101.1
320,D5,74.0,1.5,77,101.1
321,B3,74.0,1.0,60,101.1
322,G2,74.0,2.0,60,101.1
323,A4,75.0,1.0,62,101.1
324,D4,75.0,1.0,44,101.1
325,D5,75.5,0.5,77,101.1
326,B4,76.0,1.0,49,101.1
327,E5,76.0,0.75,72,101.1
328,G3,76.0,4.0,63,101.1
329,G4,76.0,1.0,63,101.1
330,F#5,76.75,0.25,62,101.1
331,A4,77.0,1.0,49,101.1
332,D5,77.0,0.5,73,101.1
333,F#4,77.0,1.0,56,101.1
334,B4,77.5,0.5,63,101.1
335,C5,78.0,0.75,70,101.1
336,G4,78.0,1.0,59,101.1
337,E4,78.0,1.0,60,101.1
338,D5,78.75,0.25,56,101.1
339,B4,79.0,0.5,68,101.1
340,F#4,79.0,1.0,57,101.1
341,D4,79.0,1.0,44,101.1
342,G4,79.5,0.5,57,101.1
343,C4,80.0,1.0,44,101.1
344,G3,80.0,2.0,63,101.1
345,E4,80.0,1.0,64,101.1
346,A4,80.0,1.0,64,101.1
347,E-4,80.938,2.062,48,101.1
348,B4,81.0,2.0,57,101.1
349,B3,81.0,1.0,44,101.1
350,B-3,82.0,1.0,30,101.1
351,F#3,82.0,1.0,30,101.1
352,F3,83.0,1.0,27,101.1
353,A3,83.0,0.5,32,101.1
354,B4,83.0,1.0,42,101.1
355,E-4,83.0,1.0,42,101.1
356,G#3,83.5,0.5,29,101.1
357,B3,84.0,1.0,36,101.1
358,E4,84.0,0.75,42,101.1
359,E3,84.0,1.0,28,101.1
360,G3,84.0,1.0,28,101.1
361,F#4,84.75,0.25,36,101.1
362,G4,85.0,0.75,43,101.1
363,B3,85.0,1.0,29,101.1
364,E4,85.0,1.0,29,101.1
365,D4,85.0,1.0,28,101.1
366,D3,85.0,1.0,28,101.1
367,A4,85.75,0.25,37,101.1
368,B4,86.0,0.75,45,101.1
369,E4,86.0,1.0,36,101.1
370,G4,86.0,1.0,36,101.1
371,C#3,86.0,1.0,28,101.1
372,C#4,86.0,1.0,28,101.1
373,E5,86.75,0.25,37,101.1
374,G5,87.0,0.75,45,101.1
375,E4,87.0,1.0,36,101.1
376,C5,87.0,1.0,36,101.1
377,C3,87.0,1.0,24,101.1
378,C4,87.0,1.0,24,101.1
379,F#5,87.75,0.25,37,101.1
380,D5,88.0,0.75,50,101.1
381,B4,88.0,1.0,40,101.1
382,F#4,88.0,1.0,40,101.1
383,B2,88.0,1.0,28,101.1
384,B3,88.0,1.0,28,101.1
385,C5,88.75,0.25,43,101.1
386,E5,89.0,0.75,54,101.1
387,C4,89.0,1.0,43,101.1
388,A4,89.0,1.0,43,101.1
389,A2,89.0,1.0,30,101.1
390,A3,89.0,1.0,30,101.1
391,D5,89.75,0.25,46,101.1
392,B3,90.0,1.0,43,101.1
393,B4,90.0,1.5,40,101.1
394,E-4,90.0,2.0,32,101.1
395,G2,90.0,1.0,28,101.1
396,G3,90.0,1.0,28,101.1
397,A3,91.0,1.0,43,101.1
398,F#2,91.0,1.0,24,101.1
399,F#3,91.0,1.0,24,101.1
400,C5,91.5,0.5,36,101.1
401,A4,92.0,0.75,32,101.1
402,C4,92.0,1.0,25,101.1
403,F4,92.0,1.0,25,101.1
404,F2,92.0,1.0,20,101.1
405,F3,92.0,1.0,20,101.1
406,B4,92.75,0.25,27,101.1
407,G4,93.0,0.75,33,101.1
408,B3,93.0,1.0,27,101.1
409,E4,93.0,1.0,27,101.1
410,C3,93.0,1.0,18,101.1
411,C2,93.0,1.0,18,101.1
412,A4,93.75,0.25,29,101.1
413,F#4,94.0,0.75,33,101.1
414,A3,94.0,1.0,27,101.1
415,D4,94.0,1.0,27,101.1
416,D2,94.0,1.0,20,101.1
417,D3,94.0,1.0,20,101.1
418,G4,94.75,0.25,27,101.1
419,E4,95.0,0.75,32,101.1
420,G3,95.0,1.0,25,101.1
421,C4,95.0,1.0,25,101.1
422,A2,95.0,1.0,18,101.1
423,A1,95.0,1.0,18,101.1
424,F#4,95.75,0.25,26,101.1
425,F#3,97.0,1.0,19,101.1
426,E-4,97.0,1.0,19,101.1
427,B3,97.0,1.0,19,101.1
428,B2,97.0,1.0,14,101.1
429,B1,97.0,1.0,14,101.1
430,B2,100.0,3.0,24,101.1
431,E2,100.0,3.0,24,101.1
432,B2,103.0,3.0,21,101.1
433,E2,103.0,3.0,21,101.1
434,B2,106.0,3.0,21,101.1
435,E2,106.0,3.0,21,101.1
436,G#4,107.0,0.5,34,101.1
437,E4,107.0,1.0,30,101.1
438,B4,107.5,0.5,28,101.1
439,E4,108.0,1.0,29,101.1
440,G#4,108.0,0.5,33,101.1
441,B4,108.5,0.5,25,101.1
442,C#5,109.0,0.5,43,101.1
443,E2,109.0,3.0,21,101.1
444,B2,109.0,3.0,21,101.1
445,A4,109.5,0.5,25,101.1
446,C#4,110.0,1.0,32,101.1
447,C#5,110.0,0.5,36,101.1
448,A4,110.5,0.5,25,101.1
449,C#4,111.0,0.25,34,101.1
450,F#4,111.0,0.25,34,101.1
451,E2,112.0,3.0,21,101.1
452,B2,112.0,3.0,21,101.1
453,F#4,113.0,0.5,34,101.1
454,C#4,113.0,1.0,30,101.1
455,A4,113.5,0.5,28,101.1
456,C#4,114.0,1.0,29,101.1
457,F#4,114.0,0.5,33,101.1
458,A4,114.5,0.5,25,101.1
459,B4,115.0,3.0,42,101.1
460,E2,115.0,3.0,21,101.1
461,B2,115.0,3.0,21,101.1
462,E-4,116.0,0.25,30,101.1
463,G#4,116.0,0.25,30,101.1
464,E-4,117.0,0.25,30,101.1
465,G#4,117.0,0.25,30,101.1
466,B2,118.0,3.0,21,101.1
467,E2,118.0,3.0,21,101.1
468,E4,119.0,0.5,34,101.1
469,E-4,119.0,1.0,30,101.1
470,G#4,119.5,0.5,28,101.1
471,E-4,120.0,1.0,29,101.1
472,E4,120.0,0.5,33,101.1
473,G#4,120.5,0.5,25,101.1
474,A4,121.0,0.5,46,101.1
475,E2,121.0,3.0,21,101.1
476,B2,121.0,3.0,21,101.1
477,F#4,121.5,0.5,25,101.1
478,A3,122.0,1.0,32,101.1
479,A4,122.0,0.5,36,101.1
480,F#4,122.5,0.5,25,101.1
481,A3,123.0,0.25,34,101.1
482,C#4,123.0,0.25,34,101.1
483,E2,124.0,3.0,21,101.1
484,B2,124.0,3.0,21,101.1
485,B3,125.0,0.5,34,101.1
486,F#3,125.0,1.0,30,101.1
487,E-4,125.5,0.5,28,101.1
488,F#3,126.0,1.0,29,101.1
489,B3,126.0,0.5,33,101.1
490,E-4,126.5,0.5,25,101.1
491,E4,127.0,3.0,42,101.1
492,E2,127.0,3.0,21,101.1
493,B2,127.0,3.0,21,101.1
494,G#3,128.0,0.25,30,101.1
495,B3,128.0,0.25,30,101.1
496,G#3,129.0,0.25,30,101.1
497,B3,129.0,0.25,30,101.1
498,B1,130.0,3.0,21,101.1
499,E-4,131.0,0.5,39,101.1
500,B3,131.0,1.0,30,101.1
501,F#2,131.0,1.0,21,101.1
502,F#4,131.5,0.5,32,101.1
503,B3,132.0,1.0,29,101.1
504,E-4,132.0,0.5,37,101.1
505,F#2,132.0,1.0,21,101.1
506,F#4,132.471,0.5,28,101.1
507,G#4,133.0,0.5,49,101.1
508,B1,133.0,3.0,21,101.1
509,E4,133.5,0.5,28,101.1
510,G#3,134.0,1.0,32,101.1
511,G#4,134.0,0.5,41,101.1
512,F#2,134.0,1.0,21,101.1
513,E4,134.5,0.5,28,101.1
514,F#2,135.0,0.25,21,101.1
515,G#3,135.0,0.25,36,101.1
516,C#4,135.0,0.25,36,101.1
517,B1,136.0,3.0,21,101.1
518,C#4,137.0,0.5,39,101.1
519,G#3,137.0,1.0,30,101.1
520,F#2,137.0,1.0,21,101.1
521,E4,137.5,0.5,32,101.1
522,G#3,138.0,1.0,29,101.1
523,C#4,138.0,0.5,37,101.1
524,F#2,138.0,1.0,21,101.1
525,E4,138.5,0.5,28,101.1
526,F#4,139.0,3.0,48,101.1
527,B1,139.0,3.0,21,101.1
528,F#2,140.0,0.25,21,101.1
529,B-3,140.0,0.25,30,101.1
530,E-4,140.0,0.25,30,101.1
531,F#2,141.0,0.25,21,101.1
532,B-3,141.0,0.25,30,101.1
533,E-4,141.0,0.25,30,101.1
534,B1,142.0,3.0,21,101.1
535,B3,143.0,0.5,39,101.1
536,B-3,143.0,1.0,30,101.1
537,F#2,143.0,1.0,21,101.1
538,E-4,143.5,0.5,32,101.1
539,B-3,144.0,1.0,29,101.1
540,B3,144.0,0.5,37,101.1
541,F#2,144.0,1.0,21,101.1
542,E-4,144.5,0.5,28,101.1
543,E4,145.0,0.5,49,101.1
544,B1,145.0,3.0,21,101.1
545,C#4,145.5,0.5,28,101.1
546,E3,146.0,1.0,32,101.1
547,E4,146.0,0.5,41,101.1
548,F#2,146.0,1.0,21,101.1
549,C#4,146.5,0.5,28,101.1
550,F#2,147.0,0.25,21,101.1
551,E3,147.0,0.25,36,101.1
552,G#3,147.0,0.25,36,101.1
553,B1,148.0,3.0,21,101.1
554,F#3,149.0,0.5,39,101.1
555,C#3,149.0,1.0,30,101.1
556,F#2,149.0,1.0,21,101.1
557,B-3,149.5,0.5,32,101.1
558,C#3,150.0,1.0,29,101.1
559,F#3,150.0,0.5,37,101.1
560,F#2,150.0,1.0,21,101.1
561,B-3,150.5,0.5,28,101.1
562,B3,151.0,3.0,48,101.1
563,B1,151.0,3.0,21,101.1
564,F#2,152.0,0.25,21,101.1
565,E-3,152.0,0.25,30,101.1
566,F#3,152.0,0.25,30,101.1
567,F#2,153.0,0.25,21,101.1
568,E-3,153.0,0.25,30,101.1
569,F#3,153.0,0.25,30,101.1
570,B-4,154.0,3.0,21,101.1
571,E-4,154.0,3.0,21,101.1
572,F#5,155.0,0.5,30,101.1
573,E-5,155.0,1.0,30,101.1
574,B-5,155.5,0.5,25,101.1
575,E-5,156.0,1.0,29,101.1
576,F#5,156.0,0.5,29,101.1
577,B-5,156.5,0.5,22,101.1
578,C6,157.0,0.5,38,101.1
579,G#3,157.0,3.0,21,101.1
580,E-4,157.0,3.0,21,101.1
581,G#5,157.5,0.5,22,101.1
582,C5,158.0,1.0,32,101.1
583,C6,158.0,0.5,32,101.1
584,G#5,158.5,0.5,22,101.1
585,C5,159.0,0.25,32,101.1
586,E-5,159.0,0.25,32,101.1
587,E-4,160.0,3.0,21,101.1
588,B-4,160.0,3.0,21,101.1
589,F#5,161.0,0.5,30,101.1
590,E-5,161.0,1.0,30,101.1
591,B-5,161.5,0.5,25,101.1
592,E-5,162.0,1.0,29,101.1
593,F#5,162.0,0.5,29,101.1
594,B-5,162.5,0.5,22,101.1
595,F5,163.0,3.0,37,101.1
596,B-3,163.0,3.0,21,101.1
597,F4,163.0,3.0,21,101.1
598,B-4,164.0,0.25,30,101.1
599,D5,164.0,0.25,30,101.1
600,B-4,165.0,0.25,30,101.1
601,D5,165.0,0.25,30,101.1
602,F5,166.0,3.0,21,101.1
603,B-4,166.0,3.0,21,101.1
604,C#6,167.0,0.5,33,101.1
605,B-5,167.0,1.0,33,101.1
606,F6,167.5,0.5,27,101.1
607,B-5,168.0,1.0,31,101.1
608,C#6,168.0,0.5,31,101.1
609,F6,168.5,0.5,24,101.1
610,G6,169.0,0.5,44,101.1
611,E-4,169.0,3.0,21,101.1
612,B-4,169.0,3.0,21,101.1
613,E-6,169.5,0.5,24,101.1
614,G5,170.0,1.0,35,101.1
615,G6,170.0,0.5,35,101.1
616,E-6,170.5,0.5,24,101.1
617,G5,171.0,0.25,35,101.1
618,B-5,171.0,0.25,35,101.1
619,B-4,172.0,3.0,21,101.1
620,F5,172.0,3.0,21,101.1
621,C#6,173.0,0.5,33,101.1
622,B-5,173.0,1.0,33,101.1
623,F6,173.5,0.5,27,101.1
624,B-5,174.0,1.0,31,101.1
625,C#6,174.0,0.5,31,101.1
626,F6,174.5,0.5,24,101.1
627,C6,175.0,3.0,40,101.1
628,F4,175.0,3.0,21,101.1
629,C5,175.0,3.0,21,101.1
630,F5,176.0,0.25,33,101.1
631,A5,176.0,0.25,33,101.1
632,F5,177.0,0.25,33,101.1
633,A5,177.0,0.25,33,101.1
634,C4,178.0,3.0,21,101.1
635,F3,178.0,3.0,21,101.1
636,G#4,179.0,0.5,30,101.1
637,F4,179.0,1.0,30,101.1
638,C5,179.5,0.5,25,101.1
639,F4,180.0,1.0,29,101.1
640,G#4,180.0,0.5,29,101.1
641,C5,180.5,0.5,22,101.1
642,D5,181.0,0.5,38,101.1
643,B-2,181.0,3.0,21,101.1
644,F3,181.0,3.0,21,101.1
645,B-4,181.5,0.5,22,101.1
646,D4,182.0,1.0,32,101.1
647,D5,182.0,0.5,32,101.1
648,B-4,182.5,0.5,22,101.1
649,D4,183.0,0.25,32,101.1
650,F4,183.0,0.25,32,101.1
651,F3,184.0,3.0,21,101.1
652,C4,184.0,3.0,21,101.1
653,G#4,185.0,0.5,30,101.1
654,F4,185.0,1.0,30,101.1
655,C5,185.5,0.5,25,101.1
656,F4,186.0,1.0,29,101.1
657,G#4,186.0,0.5,29,101.1
658,C5,186.5,0.5,22,101.1
659,G4,187.0,3.0,37,101.1
660,C3,187.0,3.0,21,101.1
661,G3,187.0,3.0,21,101.1
662,C4,188.0,0.25,30,101.1
663,E4,188.0,0.25,30,101.1
664,C4,189.0,0.25,30,101.1
665,E4,189.0,0.25,30,101.1
666,G4,190.0,3.0,28,101.1
667,C4,190.0,3.0,28,101.1
668,E-5,191.0,0.5,41,101.1
669,C5,191.0,1.0,41,101.1
670,G5,191.5,0.5,35,101.1
671,C5,192.0,1.0,40,101.1
672,E-5,192.0,0.5,40,101.1
673,G5,192.5,0.5,31,101.1
674,A5,193.0,0.5,59,101.1
675,F3,193.0,3.0,30,101.1
676,C4,193.0,3.0,30,101.1
677,F5,193.5,0.5,32,101.1
678,A4,194.0,1.0,48,101.1
679,A5,194.0,0.5,48,101.1
680,F5,194.5,0.5,33,101.1
681,A4,195.0,0.25,49,101.1
682,C5,195.0,0.25,49,101.1
683,G5,196.0,3.0,35,101.1
684,C5,196.0,3.0,35,101.1
685,E-6,197.0,0.5,53,101.1
686,C6,197.0,1.0,53,101.1
687,G6,197.5,0.5,43,101.1
688,C6,198.0,1.0,51,101.1
689,E-6,198.0,0.5,51,101.1
690,G6,198.5,0.5,38,101.1
691,A6,199.0,0.5,74,101.1
692,F4,199.0,3.0,38,101.1
693,C5,199.0,3.0,38,101.1
694,F6,199.5,0.5,39,101.1
695,A5,200.0,1.0,59,101.1
696,A6,200.0,0.5,59,101.1
697,F6,200.5,0.5,40,101.1
698,A5,201.0,0.25,61,101.1
699,C6,201.0,0.25,61,101.1
700,E-5,202.0,0.5,63,101.1
701,C5,202.0,1.0,53,101.1
702,G4,202.0,1.0,49,101.1
703,C4,202.0,1.0,49,101.1
704,G5,202.5,0.5,70,101.1
705,C5,203.0,2.0,67,101.1
706,F5,203.0,2.0,67,101.1
707,A5,203.0,2.0,67,101.1
708,A4,203.0,2.0,46,101.1
709,F4,203.0,2.0,46,101.1
710,E-6,205.0,0.5,72,101.1
711,C6,205.0,1.0,61,101.1
712,G5,205.0,1.0,56,101.1
713,C5,205.0,1.0,56,101.1
714,G6,205.5,0.5,80,101.1
715,C6,206.0,2.0,77,101.1
716,F6,206.0,2.0,77,101.1
717,A6,206.0,2.0,77,101.1
718,A5,206.0,2.0,52,101.1
719,F5,206.0,2.0,52,101.1
720,E-5,208.0,0.5,70,101.1
721,C5,208.0,1.0,58,101.1
722,G4,208.0,1.0,52,101.1
723,C4,208.0,1.0,52,101.1
724,G5,208.5,0.5,76,101.1
725,C5,209.0,2.0,73,101.1
726,F5,209.0,2.0,73,101.1
727,A5,209.0,2.0,73,101.1
728,A4,209.0,2.0,49,101.1
729,F4,209.0,2.0,49,101.1
730,E-6,211.0,0.5,78,101.1
731,C6,211.0,1.0,66,101.1
732,G5,211.0,1.0,62,101.1
733,C5,211.0,1.0,62,101.1
734,G6,211.5,0.5,87,101.1
735,C6,212.0,1981/1000,84,101.1
736,F6,212.0,1981/1000,84,101.1
737,A6,212.0,1981/1000,84,101.1
738,A5,212.0,1981/1000,56,101.1
739,F5,212.0,1981/1000,56,101.1
740,C5,214.0,1981/1000,85,101.1
741,F5,214.0,1981/1000,85,101.1
742,A5,214.0,1981/1000,85,101.1
743,F4,214.0,1981/1000,52,101.1
744,A4,214.0,1981/1000,52,101.1
745,C6,216.0,1.0,88,101.1
746,F6,216.0,1.0,88,101.1
747,A6,216.0,1.0,88,101.1
748,F5,216.0,1.0,56,101.1
749,A5,216.0,1.0,56,101.1
750,C6,217.0,981/1000,88,101.1
751,F6,217.0,981/1000,88,101.1
752,A6,217.0,981/1000,88,101.1
753,F5,217.0,981/1000,56,101.1
754,A5,217.0,981/1000,56,101.1
755,C5,218.0,1981/1000,85,101.1
756,F5,218.0,1981/1000,85,101.1
757,A5,218.0,1981/1000,85,101.1
758,F4,218.0,1981/1000,52,101.1
759,A4,218.0,1981/1000,52,101.1
760,C6,220.0,1981/1000,88,101.1
761,F6,220.0,1981/1000,88,101.1
762,A6,220.0,1981/1000,88,101.1
763,F5,220.0,1981/1000,56,101.1
764,A5,220.0,1981/1000,56,101.1
765,C5,222.0,1.0,85,101.1
766,F5,222.0,1.0,85,101.1
767,A5,222.0,1.0,85,101.1
768,F4,222.0,1.0,52,101.1
769,A4,222.0,1.0,52,101.1
770,C5,223.0,981/1000,85,101.1
771,F5,223.0,981/1000,85,101.1
772,A5,223.0,981/1000,85,101.1
773,F4,223.0,981/1000,52,101.1
774,A4,223.0,981/1000,52,101.1
775,C6,224.0,1981/1000,88,101.1
776,F6,224.0,1981/1000,88,101.1
777,A6,224.0,1981/1000,88,101.1
778,F5,224.0,1981/1000,56,101.1
779,A5,224.0,1981/1000,56,101.1
780,B4,226.0,1981/1000,92,101.1
781,F#5,226.0,1981/1000,92,101.1
782,B5,226.0,1981/1000,92,101.1
783,B3,226.0,1981/1000,46,101.1
784,F#4,226.0,1981/1000,46,101.1
785,B5,228.0,1.0,97,101.1
786,F#6,228.0,1.0,97,101.1
787,B6,228.0,1.0,97,101.1
788,B4,228.0,1.0,49,101.1
789,F#5,228.0,1.0,49,101.1
790,B5,229.0,981/1000,97,101.1
791,F#6,229.0,981/1000,97,101.1
792,B6,229.0,981/1000,97,101.1
793,B4,229.0,981/1000,49,101.1
794,F#5,229.0,981/1000,49,101.1
795,B4,230.0,1981/1000,92,101.1
796,F#5,230.0,1981/1000,92,101.1
797,B5,230.0,1981/1000,92,101.1
798,B3,230.0,1981/1000,46,101.1
799,F#4,230.0,1981/1000,46,101.1
800,B5,232.0,1981/1000,97,101.1
801,F#6,232.0,1981/1000,97,101.1
802,B6,232.0,1981/1000,97,101.1
803,B4,232.0,1981/1000,49,101.1
804,F#5,232.0,1981/1000,49,101.1
805,B4,234.0,1.0,92,101.1
806,F#5,234.0,1.0,92,101.1
807,B5,234.0,1.0,92,101.1
808,B3,234.0,1.0,46,101.1
809,F#4,234.0,1.0,46,101.1
810,B4,235.0,981/1000,92,101.1
811,F#5,235.0,981/1000,92,101.1
812,B5,235.0,981/1000,92,101.1
813,B3,235.0,981/1000,46,101.1
814,F#4,235.0,981/1000,46,101.1
815,B5,236.0,1981/1000,97,101.1
816,F#6,236.0,1981/1000,97,101.1
817,B6,236.0,1981/1000,97,101.1
818,B4,236.0,1981/1000,49,101.1
819,F#5,236.0,1981/1000,49,101.1
820,B2,238.0,0.5,86,101.1
821,E2,238.0,0.5,86,101.1
822,E5,239.0,1.0,76,101.1
823,G#5,239.0,0.5,92,101.1
824,B3,239.0,2.0,66,101.1
825,E3,239.0,2.0,66,101.1
826,B5,239.5,0.5,76,101.1
827,G#5,240.0,0.5,90,101.1
828,E5,240.0,1.0,75,101.1
829,B5,240.5,0.5,76,101.1
830,C#6,241.0,0.5,92,101.1
831,B2,241.0,0.5,74,101.1
832,E2,241.0,0.5,74,101.1
833,A5,241.5,0.5,77,101.1
834,C#5,242.0,1.0,55,101.1
835,C#6,242.0,0.5,75,101.1
836,B3,242.0,2.0,64,101.1
837,E3,242.0,2.0,64,101.1
838,A5,242.5,0.5,72,101.1
839,C#5,243.0,0.25,76,101.1
840,F#5,243.0,0.25,76,101.1
841,B2,244.0,0.5,69,101.1
842,E2,244.0,0.5,69,101.1
843,F#5,245.0,0.5,87,101.1
844,C#5,245.0,1.0,87,101.1
845,B3,245.0,2.0,66,101.1
846,E3,245.0,2.0,66,101.1
847,A5,245.5,0.5,76,101.1
848,C#5,246.0,1.0,86,101.1
849,F#5,246.0,0.5,86,101.1
850,A5,246.5,0.5,75,101.1
851,B5,247.0,3.0,88,101.1
852,B2,247.0,0.5,74,101.1
853,E2,247.0,0.5,74,101.1
854,G#5,248.0,0.25,72,101.1
855,E-5,248.0,0.25,72,101.1
856,B3,248.0,2.0,64,101.1
857,E3,248.0,2.0,64,101.1
858,E-5,249.0,0.25,72,101.1
859,G#5,249.0,0.25,72,101.1
860,B2,250.0,0.5,58,101.1
861,E2,250.0,0.5,58,101.1
862,E5,251.0,0.5,75,101.1
863,E-5,251.0,1.0,75,101.1
864,B3,251.0,2.0,54,101.1
865,E3,251.0,2.0,54,101.1
866,G#5,251.5,0.5,63,101.1
867,E-5,252.0,1.0,74,101.1
868,E5,252.0,0.5,74,101.1
869,G#5,252.5,0.5,63,101.1
870,A5,253.0,0.5,73,101.1
871,B2,253.0,0.5,60,101.1
872,E2,253.0,0.5,60,101.1
873,F#5,253.5,0.5,63,101.1
874,A5,254.0,0.5,65,101.1
875,A4,254.0,1.0,62,101.1
876,B3,254.0,2.0,53,101.1
877,E3,254.0,2.0,53,101.1
878,F#5,254.5,0.5,58,101.1
879,A4,255.0,0.25,65,101.1
880,C#5,255.0,0.25,65,101.1
881,B2,256.0,0.5,58,101.1
882,E2,256.0,0.5,58,101.1
883,F#4,257.0,1.0,53,101.1
884,B4,257.0,0.5,63,101.1
885,B3,257.0,2.0,54,101.1
886,E3,257.0,2.0,54,101.1
887,E-5,257.5,0.5,53,101.1
888,B4,258.0,0.5,63,101.1
889,F#4,258.0,1.0,52,101.1
890,E-5,258.5,0.5,53,101.1
891,E5,259.0,3.0,65,101.1
892,B2,259.0,0.5,60,101.1
893,E2,259.0,0.5,60,101.1
894,B4,260.0,0.25,47,101.1
895,G#4,260.0,0.25,47,101.1
896,B3,260.0,2.0,48,101.1
897,E3,260.0,2.0,48,101.1
898,G#4,261.0,0.25,45,101.1
899,B4,261.0,0.25,45,101.1
900,B1,262.0,3.0,21,101.1
901,E-4,263.0,0.5,39,101.1
902,B3,263.0,1.0,30,101.1
903,F#2,263.0,1.0,21,101.1
904,F#4,263.5,0.5,32,101.1
905,B3,264.0,1.0,29,101.1
906,E-4,264.0,0.5,37,101.1
907,F#2,264.0,1.0,21,101.1
908,F#4,264.5,0.5,28,101.1
909,G#4,265.0,0.5,49,101.1
910,B1,265.0,3.0,21,101.1
911,E4,265.5,0.5,28,101.1
912,G#3,266.0,1.0,32,101.1
913,G#4,266.0,0.5,41,101.1
914,F#2,266.0,1.0,21,101.1
915,E4,266.5,0.5,28,101.1
916,F#2,267.0,0.25,21,101.1
917,G#3,267.0,0.25,36,101.1
918,C#4,267.0,0.25,36,101.1
919,B1,268.0,3.0,21,101.1
920,C#4,269.0,0.5,39,101.1
921,G#3,269.0,1.0,30,101.1
922,F#2,269.0,1.0,21,101.1
923,E4,269.5,0.5,32,101.1
924,G#3,270.0,1.0,29,101.1
925,C#4,270.0,0.5,37,101.1
926,F#2,270.0,1.0,21,101.1
927,E4,270.5,0.5,28,101.1
928,F#4,271.0,3.0,48,101.1
929,B1,271.0,3.0,21,101.1
930,F#2,272.0,0.25,21,101.1
931,B-3,272.0,0.25,30,101.1
932,E-4,272.0,0.25,30,101.1
933,F#2,273.0,0.25,21,101.1
934,B-3,273.0,0.25,30,101.1
935,E-4,273.0,0.25,30,101.1
936,B1,274.0,3.0,21,101.1
937,B3,275.0,0.5,39,101.1
938,B-3,275.0,1.0,30,101.1
939,F#2,275.0,1.0,21,101.1
940,E-4,275.5,0.5,32,101.1
941,B-3,276.0,1.0,29,101.1
942,B3,276.0,0.5,37,101.1
943,F#2,276.0,1.0,21,101.1
944,E-4,276.5,0.5,28,101.1
945,E4,277.0,0.5,49,101.1
946,B1,277.0,3.0,21,101.1
947,C#4,277.5,0.5,28,101.1
948,E3,278.0,1.0,32,101.1
949,E4,278.0,0.5,41,101.1
950,F#2,278.0,1.0,21,101.1
951,C#4,278.5,0.5,28,101.1
952,F#2,279.0,0.25,21,101.1
953,E3,279.0,0.25,36,101.1
954,G#3,279.0,0.25,36,101.1
955,B1,280.0,3.0,21,101.1
956,F#3,281.0,0.5,39,101.1
957,C#3,281.0,1.0,30,101.1
958,F#2,281.0,1.0,21,101.1
959,B-3,281.5,0.5,32,101.1
960,C#3,282.0,1.0,29,101.1
961,F#3,282.0,0.5,37,101.1
962,F#2,282.0,1.0,21,101.1
963,B-3,282.5,0.5,28,101.1
964,B3,283.0,3.0,48,101.1
965,B1,283.0,3.0,21,101.1
966,F#2,284.0,0.25,21,101.1
967,E-3,284.0,0.25,30,101.1
968,F#3,284.0,0.25,30,101.1
969,F#2,285.0,0.25,21,101.1
970,E-3,285.0,0.25,30,101.1
971,F#3,285.0,0.25,30,101.1
972,B-4,286.0,3.0,21,101.1
973,E-4,286.0,3.0,21,101.1
974,F#5,287.0,0.5,30,101.1
975,E-5,287.0,1.0,30,101.1
976,B-5,287.5,0.5,25,101.1
977,E-5,288.0,1.0,29,101.1
978,F#5,288.0,0.5,29,101.1
979,B-5,288.5,0.5,22,101.1
980,C6,289.0,0.5,38,101.1
981,G#3,289.0,3.0,21,101.1
982,E-4,289.0,3.0,21,101.1
983,G#5,289.5,0.5,22,101.1
984,C5,290.0,1.0,32,101.1
985,C6,290.0,0.5,32,101.1
986,G#5,290.5,0.5,22,101.1
987,C5,291.0,0.25,32,101.1
988,E-5,291.0,0.25,32,101.1
989,E-4,292.0,3.0,21,101.1
990,B-4,292.0,3.0,21,101.1
991,F#5,293.0,0.5,30,101.1
992,E-5,293.0,1.0,30,101.1
993,B-5,293.5,0.5,25,101.1
994,E-5,294.0,1.0,29,101.1
995,F#5,294.0,0.5,29,101.1
996,B-5,294.5,0.5,22,101.1
997,F5,295.0,3.0,37,101.1
998,B-3,295.0,3.0,21,101.1
999,F4,295.0,3.0,21,101.1
1000,B-4,296.0,0.25,30,101.1
1001,D5,296.0,0.25,30,101.1
1002,B-4,297.0,0.25,30,101.1
1003,D5,297.0,0.25,30,101.1
1004,F5,298.0,3.0,21,101.1
1005,B-4,298.0,3.0,21,101.1
1006,C#6,299.0,0.5,33,101.1
1007,B-5,299.0,1.0,33,101.1
1008,F6,299.5,0.5,27,101.1
1009,B-5,300.0,1.0,31,101.1
1010,C#6,300.0,0.5,31,101.1
1011,F6,300.5,0.5,24,101.1
1012,G6,301.0,0.5,44,101.1
1013,E-4,301.0,3.0,21,101.1
1014,B-4,301.0,3.0,21,101.1
1015,E-6,301.5,0.5,24,101.1
1016,G5,302.0,1.0,35,101.1
1017,G6,302.0,0.5,35,101.1
1018,E-6,302.5,0.5,24,101.1
1019,G5,303.0,0.25,35,101.1
1020,B-5,303.0,0.25,35,101.1
1021,B-4,304.0,3.0,21,101.1
1022,F5,304.0,3.0,21,101.1
1023,C#6,305.0,0.5,33,101.1
1024,B-5,305.0,1.0,33,101.1
1025,F6,305.5,0.5,27,101.1
1026,B-5,306.0,1.0,31,101.1
1027,C#6,306.0,0.5,31,101.1
1028,F6,306.5,0.5,24,101.1
1029,C6,307.0,3.0,40,101.1
1030,F4,307.0,3.0,21,101.1
1031,C5,307.0,3.0,21,101.1
1032,F5,308.0,0.25,33,101.1
1033,A5,308.0,0.25,33,101.1
1034,F5,309.0,0.25,33,101.1
1035,A5,309.0,0.25,33,101.1
1036,C4,310.0,3.0,21,101.1
1037,F3,310.0,3.0,21,101.1
1038,G#4,311.0,0.5,30,101.1
1039,F4,311.0,1.0,30,101.1
1040,C5,311.5,0.5,25,101.1
1041,F4,312.0,1.0,29,101.1
1042,G#4,312.0,0.5,29,101.1
1043,C5,312.5,0.5,22,101.1
1044,D5,313.0,0.5,38,101.1
1045,B-2,313.0,3.0,21,101.1
1046,F3,313.0,3.0,21,101.1
1047,B-4,313.5,0.5,22,101.1
1048,D4,314.0,1.0,32,101.1
1049,D5,314.0,0.5,32,101.1
1050,B-4,314.5,0.5,22,101.1
1051,D4,315.0,0.25,32,101.1
1052,F4,315.0,0.25,32,101.1
1053,F3,316.0,3.0,21,101.1
1054,C4,316.0,3.0,21,101.1
1055,G#4,317.0,0.5,30,101.1
1056,F4,317.0,1.0,30,101.1
1057,C5,317.5,0.5,25,101.1
1058,F4,318.0,1.0,29,101.1
1059,G#4,318.0,0.5,29,101.1
1060,C5,318.5,0.5,22,101.1
1061,G4,319.0,3.0,37,101.1
1062,C3,319.0,3.0,21,101.1
1063,G3,319.0,3.0,21,101.1
1064,C4,320.0,0.25,30,101.1
1065,E4,320.0,0.25,30,101.1
1066,C4,321.0,0.25,30,101.1
1067,E4,321.0,0.25,30,101.1
1068,G4,322.0,3.0,28,101.1
1069,C4,322.0,3.0,28,101.1
1070,E-5,323.0,0.5,41,101.1
1071,C5,323.0,1.0,41,101.1
1072,G5,323.5,0.5,35,101.1
1073,C5,324.0,1.0,40,101.1
1074,E-5,324.0,0.5,40,101.1
1075,G5,324.5,0.5,31,101.1
1076,A5,325.0,0.5,59,101.1
1077,F3,325.0,3.0,30,101.1
1078,C4,325.0,3.0,30,101.1
1079,F5,325.5,0.5,32,101.1
1080,A4,326.0,1.0,48,101.1
1081,A5,326.0,0.5,48,101.1
1082,F5,326.5,0.5,33,101.1
1083,A4,327.0,0.25,49,101.1
1084,C5,327.0,0.25,49,101.1
1085,G5,328.0,3.0,35,101.1
1086,C5,328.0,3.0,35,101.1
1087,E-6,329.0,0.5,53,101.1
1088,C6,329.0,1.0,53,101.1
1089,G6,329.5,0.5,43,101.1
1090,C6,330.0,1.0,51,101.1
1091,E-6,330.0,0.5,51,101.1
1092,G6,330.5,0.5,38,101.1
1093,A6,331.0,0.5,74,101.1
1094,F4,331.0,3.0,38,101.1
1095,C5,331.0,3.0,38,101.1
1096,F6,331.5,0.5,39,101.1
1097,A5,332.0,1.0,59,101.1
1098,A6,332.0,0.5,59,101.1
1099,F6,332.5,0.5,40,101.1
1100,A5,333.0,0.25,61,101.1
1101,C6,333.0,0.25,61,101.1
1102,E-5,334.0,0.5,63,101.1
1103,C5,334.0,1.0,53,101.1
1104,G4,334.0,1.0,49,101.1
1105,C4,334.0,1.0,49,101.1
1106,G5,334.5,0.5,70,101.1
1107,C5,335.0,2.0,67,101.1
1108,F5,335.0,2.0,67,101.1
1109,A5,335.0,2.0,67,101.1
1110,A4,335.0,2.0,46,101.1
1111,F4,335.0,2.0,46,101.1
1112,E-6,337.0,0.5,72,101.1
1113,C6,337.0,1.0,61,101.1
1114,G5,337.0,1.0,56,101.1
1115,C5,337.0,1.0,56,101.1
1116,G6,337.5,0.5,80,101.1
1117,C6,338.0,2.0,77,101.1
1118,F6,338.0,2.0,77,101.1
1119,A6,338.0,2.0,77,101.1
1120,A5,338.0,2.0,52,101.1
1121,F5,338.0,2.0,52,101.1
1122,E-5,340.0,0.5,70,101.1
1123,C5,340.0,1.0,58,101.1
1124,G4,340.0,1.0,52,101.1
1125,C4,340.0,1.0,52,101.1
1126,G5,340.5,0.5,76,101.1
1127,C5,341.0,2.0,73,101.1
1128,F5,341.0,2.0,73,101.1
1129,A5,341.0,2.0,73,101.1
1130,A4,341.0,2.0,49,101.1
1131,F4,341.0,2.0,49,101.1
1132,E-6,343.0,0.5,78,101.1
1133,C6,343.0,1.0,66,101.1
1134,G5,343.0,1.0,62,101.1
1135,C5,343.0,1.0,62,101.1
1136,G6,343.5,0.5,87,101.1
1137,C6,344.0,1981/1000,84,101.1
1138,F6,344.0,1981/1000,84,101.1
1139,A6,344.0,1981/1000,84,101.1
1140,A5,344.0,1981/1000,56,101.1
1141,F5,344.0,1981/1000,56,101.1
1142,C5,346.0,1981/1000,85,101.1
1143,F5,346.0,1981/1000,85,101.1
1144,A5,346.0,1981/1000,85,101.1
1145,F4,346.0,1981/1000,52,101.1
1146,A4,346.0,1981/1000,52,101.1
1147,C6,348.0,1.0,88,101.1
1148,F6,348.0,1.0,88,101.1
1149,A6,348.0,1.0,88,101.1
1150,F5,348.0,1.0,56,101.1
1151,A5,348.0,1.0,56,101.1
1152,C6,349.0,981/1000,88,101.1
1153,F6,349.0,981/1000,88,101.1
1154,A6,349.0,981/1000,88,101.1
1155,F5,349.0,981/1000,56,101.1
1156,A5,349.0,981/1000,56,101.1
1157,C5,350.0,1981/1000,85,101.1
1158,F5,350.0,1981/1000,85,101.1
1159,A5,350.0,1981/1000,85,101.1
1160,F4,350.0,1981/1000,52,101.1
1161,A4,350.0,1981/1000,52,101.1
1162,C6,352.0,1981/1000,88,101.1
1163,F6,352.0,1981/1000,88,101.1
1164,A6,352.0,1981/1000,88,101.1
1165,F5,352.0,1981/1000,56,101.1
1166,A5,352.0,1981/1000,56,101.1
1167,C5,354.0,1.0,85,101.1
1168,F5,354.0,1.0,85,101.1
1169,A5,354.0,1.0,85,101.1
1170,F4,354.0,1.0,52,101.1
1171,A4,354.0,1.0,52,101.1
1172,C5,355.0,981/1000,85,101.1
1173,F5,355.0,981/1000,85,101.1
1174,A5,355.0,981/1000,85,101.1
1175,F4,355.0,981/1000,52,101.1
1176,A4,355.0,981/1000,52,101.1
1177,C6,356.0,1981/1000,88,101.1
1178,F6,356.0,1981/1000,88,101.1
1179,A6,356.0,1981/1000,88,101.1
1180,F5,356.0,1981/1000,56,101.1
1181,A5,356.0,1981/1000,56,101.1
1182,B4,358.0,1981/1000,92,101.1
1183,F#5,358.0,1981/1000,92,101.1
1184,B5,358.0,1981/1000,92,101.1
1185,B3,358.0,1981/1000,46,101.1
1186,F#4,358.0,1981/1000,46,101.1
1187,B5,360.0,1.0,97,101.1
1188,F#6,360.0,1.0,97,101.1
1189,B6,360.0,1.0,97,101.1
1190,B4,360.0,1.0,49,101.1
1191,F#5,360.0,1.0,49,101.1
1192,B5,361.0,981/1000,97,101.1
1193,F#6,361.0,981/1000,97,101.1
1194,B6,361.0,981/1000,97,101.1
1195,B4,361.0,981/1000,49,101.1
1196,F#5,361.0,981/1000,49,101.1
1197,B4,362.0,1981/1000,92,101.1
1198,F#5,362.0,1981/1000,92,101.1
1199,B5,362.0,1981/1000,92,101.1
1200,B3,362.0,1981/1000,46,101.1
1201,F#4,362.0,1981/1000,46,101.1
1202,B5,364.0,1981/1000,97,101.1
1203,F#6,364.0,1981/1000,97,101.1
1204,B6,364.0,1981/1000,97,101.1
1205,B4,364.0,1981/1000,49,101.1
1206,F#5,364.0,1981/1000,49,101.1
1207,B4,366.0,1.0,92,101.1
1208,F#5,366.0,1.0,92,101.1
1209,B5,366.0,1.0,92,101.1
1210,B3,366.0,1.0,46,101.1
1211,F#4,366.0,1.0,46,101.1
1212,B4,367.0,981/1000,92,101.1
1213,F#5,367.0,981/1000,92,101.1
1214,B5,367.0,981/1000,92,101.1
1215,B3,367.0,981/1000,46,101.1
1216,F#4,367.0,981/1000,46,101.1
1217,B5,368.0,1981/1000,97,101.1
1218,F#6,368.0,1981/1000,97,101.1
1219,B6,368.0,1981/1000,97,101.1
1220,B4,368.0,1981/1000,49,101.1
1221,F#5,368.0,1981/1000,49,101.1
1222,B2,370.0,0.5,86,101.1
1223,E2,370.0,0.5,86,101.1
1224,E5,371.0,1.0,76,101.1
1225,G#5,371.0,0.5,92,101.1
1226,B3,371.0,2.0,66,101.1
1227,E3,371.0,2.0,66,101.1
1228,B5,371.5,0.5,76,101.1
1229,G#5,372.0,0.5,90,101.1
1230,E5,372.0,1.0,75,101.1
1231,B5,372.5,0.5,76,101.1
1232,C#6,373.0,0.5,92,101.1
1233,B2,373.0,0.5,74,101.1
1234,E2,373.0,0.5,74,101.1
1235,A5,373.5,0.5,77,101.1
1236,C#5,374.0,1.0,55,101.1
1237,C#6,374.0,0.5,75,101.1
1238,B3,374.0,2.0,64,101.1
1239,E3,374.0,2.0,64,101.1
1240,A5,374.5,0.5,72,101.1
1241,C#5,375.0,0.25,76,101.1
1242,F#5,375.0,0.25,76,101.1
1243,B2,376.0,0.5,69,101.1
1244,E2,376.0,0.5,69,101.1
1245,F#5,377.0,0.5,87,101.1
1246,C#5,377.0,1.0,87,101.1
1247,B3,377.0,2.0,66,101.1
1248,E3,377.0,2.0,66,101.1
1249,A5,377.5,0.5,76,101.1
1250,C#5,378.0,1.0,86,101.1
1251,F#5,378.0,0.5,86,101.1
1252,A5,378.5,0.5,75,101.1
1253,B5,379.0,3.0,88,101.1
1254,B2,379.0,0.5,74,101.1
1255,E2,379.0,0.5,74,101.1
1256,G#5,380.0,0.25,72,101.1
1257,E-5,380.0,0.25,72,101.1
1258,B3,380.0,2.0,64,101.1
1259,E3,380.0,2.0,64,101.1
1260,E-5,381.0,0.25,72,101.1
1261,G#5,381.0,0.25,72,101.1
1262,B2,382.0,0.5,58,101.1
1263,E2,382.0,0.5,58,101.1
1264,E5,383.0,0.5,75,101.1
1265,E-5,383.0,1.0,75,101.1
1266,B3,383.0,2.0,54,101.1
1267,E3,383.0,2.0,54,101.1
1268,G#5,383.5,0.5,63,101.1
1269,E-5,384.0,1.0,74,101.1
1270,E5,384.0,0.5,74,101.1
1271,G#5,384.5,0.5,63,101.1
1272,A5,385.0,0.5,73,101.1
1273,B2,385.0,0.5,60,101.1
1274,E2,385.0,0.5,60,101.1
1275,F#5,385.5,0.5,63,101.1
1276,A5,386.0,0.5,64,101.1
1277,A4,386.0,1.0,62,101.1
1278,B3,386.0,2.0,53,101.1
1279,E3,386.0,2.0,53,101.1
1280,F#5,386.5,0.5,58,101.1
1281,A4,387.0,0.25,65,101.1
1282,C#5,387.0,0.25,65,101.1
1283,B2,388.0,0.5,58,101.1
1284,E2,388.0,0.5,58,101.1
1285,F#4,389.0,1.0,53,101.1
1286,B4,389.0,0.5,63,101.1
1287,B3,389.0,2.0,54,101.1
1288,E3,389.0,2.0,54,101.1
1289,E-5,389.5,0.5,53,101.1
1290,B4,390.0,0.5,63,101.1
1291,F#4,390.0,1.0,52,101.1
1292,E-5,390.5,0.5,53,101.1
1293,E5,391.0,3.0,65,101.1
1294,B2,391.0,0.5,60,101.1
1295,E2,391.0,0.5,60,101.1
1296,B4,392.0,0.25,47,101.1
1297,G#4,392.0,0.25,47,101.1
1298,B3,392.0,2.0,48,101.1
1299,E3,392.0,2.0,48,101.1
1300,G#4,393.0,0.25,45,101.1
1301,B4,393.0,0.25,45,101.1
1302,E2,397.0,3.0,30,101.1
1303,F#3,398.0,1.0,31,101.1
1304,B3,398.0,0.5,37,101.1
1305,B2,398.0,2.0,35,101.1
1306,E-4,398.5,0.5,31,101.1
1307,B3,399.0,0.5,37,101.1
1308,F#3,399.0,1.0,30,101.1
1309,E-4,399.5,0.5,31,101.1
1310,E4,400.0,3.0,38,101.1
1311,E2,400.0,3.0,33,101.1
1312,B2,401.0,2.0,30,101.1
1313,B3,401.0,0.25,26,101.1
1314,G#3,401.0,0.25,26,101.1
1315,G#3,402.0,0.25,25,101.1
1316,B3,402.0,0.25,25,101.1
1317,E2,406.0,3.0,25,101.1
1318,F#3,407.0,1.0,26,101.1
1319,B3,407.0,0.5,31,101.1
1320,B2,407.0,2.0,29,101.1
1321,E-4,407.5,0.5,26,101.1
1322,B3,408.0,0.5,31,101.1
1323,F#3,408.0,1.0,25,101.1
1324,E-4,408.5,0.5,26,101.1
1325,E2,412.0,3.0,21,101.1
1326,F#3,413.0,1.0,22,101.1
1327,B3,413.0,0.5,26,101.1
1328,B2,413.0,2.0,24,101.1
1329,E-4,413.5,0.5,22,101.1
1330,B3,414.0,0.5,26,101.1
1331,F#3,414.0,1.0,21,101.1
1332,E-4,414.5,0.5,22,101.1
1333,B4,416.0,1.0,39,101.1
1334,E4,417.0,99/100,42,101.1
1335,F#4,417.75,0.25,36,101.1
1336,G4,418.0,0.75,43,101.1
1337,E4,418.0,2.0,30,101.1
1338,D4,418.0,1.0,25,101.1
1339,A4,418.75,0.25,33,101.1
1340,F#4,418.75,0.25,33,101.1
1341,G4,419.0,1.0,36,101.1
1342,B4,419.0,0.75,45,101.1
1343,C#4,419.0,1.0,30,101.1
1344,E5,419.75,0.25,37,101.1
1345,C5,420.0,1.0,36,101.1
1346,G5,420.0,0.75,45,101.1
1347,C4,420.0,1.0,24,101.1
1348,E4,420.0,1.0,24,101.1
1349,F#5,420.75,0.25,37,101.1
1350,F#4,421.0,1.0,40,101.1
1351,D5,421.0,0.75,50,101.1
1352,B3,421.0,1.0,28,101.1
1353,D4,421.0,1.0,28,101.1
1354,C5,421.75,0.25,43,101.1
1355,E5,422.0,0.75,54,101.1
1356,A4,422.0,1.0,43,101.1
1357,A3,422.0,1.0,30,101.1
1358,C4,422.0,1.0,30,101.1
1359,D5,422.75,0.25,46,101.1
1360,B4,423.0,1.5,40,101.1
1361,E-4,423.0,2.0,32,101.1
1362,G3,423.0,1.0,28,101.1
1363,B3,423.0,1.0,28,101.1
1364,F#3,424.0,1.0,24,101.1
1365,A3,424.0,1.0,24,101.1
1366,C5,424.5,0.5,36,101.1
1367,A4,425.0,0.75,43,101.1
1368,F4,425.0,1.0,34,101.1
1369,F3,425.0,1.0,28,101.1
1370,C4,425.0,1.0,28,101.1
1371,B4,425.75,0.25,36,101.1
1372,E4,426.0,1.0,36,101.1
1373,G4,426.0,0.75,45,101.1
1374,B3,426.0,1.0,24,101.1
1375,C3,426.0,1.0,24,101.1
1376,A4,426.75,0.25,39,101.1
1377,D4,427.0,1.0,36,101.1
1378,F#4,427.0,0.75,45,101.1
1379,D3,427.0,1.0,28,101.1
1380,A3,427.0,1.0,28,101.1
1381,G4,427.75,0.25,36,101.1
1382,E4,428.0,0.75,43,101.1
1383,C4,428.0,1.0,34,101.1
1384,G3,428.0,1.0,24,101.1
1385,A2,428.0,1.0,24,101.1
1386,F#4,428.75,0.25,35,101.1
1387,E-4,429.0,1.0,36,101.1
1388,B3,429.0,1.0,36,101.1
1389,F#3,429.0,1.0,24,101.1
1390,B2,429.0,1.0,24,101.1
1391,E2,430.0,1.0,25,101.1
1392,E4,430.0,1.5,31,101.1
1393,B3,430.0,1.5,31,101.1
1394,G3,430.0,1.5,31,101.1
1395,E3,431.0,2.0,46,101.1
1396,F#3,432.0,1.0,25,101.1
1397,E-4,432.0,1.0,35,101.1
1398,B4,432.0,1.0,35,101.1
1399,C4,432.938,0.062,38,101.1
1400,E4,433.0,0.75,42,101.1
1401,C4,433.0,1.0,38,101.1
1402,B3,433.0,0.5,35,101.1
1403,E3,433.0,3.0,46,101.1
1404,A3,433.5,0.5,30,101.1
1405,F#4,433.75,0.25,36,101.1
1406,D4,434.0,0.5,30,101.1
1407,E4,434.0,0.75,40,101.1
1408,G4,434.0,0.75,40,101.1
1409,C4,434.5,0.5,24,101.1
1410,A4,434.75,0.25,33,101.1
1411,F#4,434.75,0.25,33,101.1
1412,G4,435.0,1.0,36,101.1
1413,B4,435.0,0.75,45,101.1
1414,B3,435.0,1.0,30,101.1
1415,E5,435.75,0.25,37,101.1
1416,A4,436.0,1.0,36,101.1
1417,G5,436.0,0.75,45,101.1
1418,F#3,436.0,1.0,24,101.1
1419,E4,436.0,1.0,24,101.1
1420,F#5,436.75,0.25,37,101.1
1421,F#4,437.0,1.0,40,101.1
1422,D5,437.0,0.75,50,101.1
1423,G3,437.0,1.0,28,101.1
1424,B3,437.0,1.0,28,101.1
1425,C5,437.75,0.25,43,101.1
1426,E5,438.0,0.75,54,101.1
1427,G4,438.0,1.0,43,101.1
1428,A3,438.0,1.0,30,101.1
1429,C4,438.0,1.0,30,101.1
1430,D5,438.75,0.25,46,101.1
1431,B4,439.0,1.5,40,101.1
1432,F#4,439.0,1.0,32,101.1
1433,B3,439.0,1.0,25,101.1
1434,D4,439.0,2.0,30,101.1
1435,F4,440.0,1.0,32,101.1
1436,G3,440.0,1.0,26,101.1
1437,C5,440.5,0.5,27,101.1
1438,A4,441.0,0.75,32,101.1
1439,C4,441.0,0.5,25,101.1
1440,F3,441.0,1.0,18,101.1
1441,A3,441.0,0.5,22,101.1
1442,D4,441.5,0.5,18,101.1
1443,B3,441.5,0.5,16,101.1
1444,B4,441.75,0.25,27,101.1
1445,E4,442.0,1.0,27,101.1
1446,G4,442.0,0.75,33,101.1
1447,C4,442.0,1.0,18,101.1
1448,C3,442.0,1.0,18,101.1
1449,A4,442.75,0.25,29,101.1
1450,A3,443.0,0.5,27,101.1
1451,F#4,443.0,0.75,33,101.1
1452,D3,443.0,1.0,18,101.1
1453,F#3,443.0,0.5,22,101.1
1454,B3,443.5,0.5,20,101.1
1455,G3,443.5,0.5,16,101.1
1456,G4,443.75,0.25,27,101.1
1457,E4,444.0,0.75,32,101.1
1458,C4,444.0,1.0,25,101.1
1459,A3,444.0,1.0,18,101.1
1460,A2,444.0,1.0,18,101.1
1461,F#4,444.75,0.25,26,101.1
1462,E-4,445.0,1.0,27,101.1
1463,B3,445.0,1.0,27,101.1
1464,F#3,445.0,1.0,18,101.1
1465,B2,445.0,1.0,18,101.1
1466,E2,446.0,2.0,18,101.1
1467,E4,446.0,2.0,23,101.1
1468,B3,446.0,2.0,23,101.1
1469,G3,446.0,2.0,23,101.1
1470,D4,448.0,1.0,58,101.1
1471,F#4,448.0,1.0,58,101.1
1472,D3,448.0,1.0,52,101.1
1473,A3,448.0,1.0,52,101.1
1474,D4,449.0,1.0,43,101.1
1475,G4,449.0,0.75,63,101.1
1476,G3,449.0,2.0,55,101.1
1477,B3,449.0,1.0,55,101.1
1478,A4,449.75,0.25,54,101.1
1479,E4,450.0,1.0,43,101.1
1480,B4,450.0,0.5,64,101.1
1481,C#4,450.0,1.0,49,101.1
1482,G4,450.5,0.5,55,101.1
1483,F#4,450.938,0.562,54,101.1
1484,B4,451.0,0.5,67,101.1
1485,D4,451.0,0.5,53,101.1
1486,D3,451.0,2.0,53,101.1
1487,A3,451.5,0.5,45,101.1
1488,E4,451.5,0.5,55,101.1
1489,A4,451.5,0.5,55,101.1
1490,F#3,452.0,1.0,39,101.1
1491,D4,452.0,0.5,60,101.1
1492,A4,452.0,0.5,60,101.1
1493,D4,452.5,0.5,55,101.1
1494,E4,453.0,1.0,43,101.1
1495,C5,453.0,0.75,63,101.1
1496,C3,453.0,2.0,55,101.1
1497,G3,453.0,1.0,55,101.1
1498,D5,453.75,0.25,56,101.1
1499,F#4,454.0,1.0,46,101.1
1500,E5,454.0,0.5,68,101.1
1501,A3,454.0,1.0,52,101.1
1502,C5,454.5,0.5,61,101.1
1503,G4,454.938,1.062,61,101.1
1504,D5,455.0,1.5,77,101.1
1505,B3,455.0,1.0,60,101.1
1506,G2,455.0,2.0,60,101.1
1507,A4,456.0,1.0,62,101.1
1508,D4,456.0,1.0,44,101.1
1509,D5,456.5,0.5,77,101.1
1510,B4,457.0,1.0,49,101.1
1511,E5,457.0,0.75,72,101.1
1512,G3,457.0,4.0,63,101.1
1513,G4,457.0,1.0,63,101.1
1514,F#5,457.75,0.25,62,101.1
1515,A4,458.0,1.0,49,101.1
1516,D5,458.0,0.5,73,101.1
1517,F#4,458.0,1.0,56,101.1
1518,B4,458.5,0.5,63,101.1
1519,C5,459.0,0.75,70,101.1
1520,G4,459.0,1.0,59,101.1
1521,E4,459.0,1.0,60,101.1
1522,D5,459.75,0.25,56,101.1
1523,B4,460.0,0.5,68,101.1
1524,F#4,460.0,1.0,57,101.1
1525,D4,460.0,1.0,44,101.1
1526,G4,460.5,0.5,57,101.1
1527,C4,461.0,1.0,44,101.1
1528,G3,461.0,2.0,63,101.1
1529,E4,461.0,1.0,64,101.1
1530,A4,461.0,1.0,64,101.1
1531,E-4,461.938,2.062,48,101.1
1532,B4,462.0,2.0,57,101.1
1533,B3,462.0,1.0,44,101.1
1534,B-3,463.0,1.0,30,101.1
1535,F#3,463.0,1.0,30,101.1
1536,F3,464.0,1.0,27,101.1
1537,A3,464.0,0.5,32,101.1
1538,B4,464.0,1.0,42,101.1
1539,E-4,464.0,1.0,42,101.1
1540,G#3,464.5,0.5,29,101.1
1541,B3,465.0,1.0,36,101.1
1542,E4,465.0,0.75,42,101.1
1543,E3,465.0,1.0,28,101.1
1544,G3,465.0,1.0,28,101.1
1545,F#4,465.75,0.25,36,101.1
1546,G4,466.0,0.75,43,101.1
1547,B3,466.0,1.0,29,101.1
1548,E4,466.0,1.0,29,101.1
1549,D4,466.0,1.0,28,101.1
1550,D3,466.0,1.0,28,101.1
1551,A4,466.75,0.25,37,101.1
1552,B4,467.0,0.75,45,101.1
1553,E4,467.0,1.0,36,101.1
1554,G4,467.0,1.0,36,101.1
1555,C#3,467.0,1.0,28,101.1
1556,C#4,467.0,1.0,28,101.1
1557,E5,467.75,0.25,37,101.1
1558,G5,468.0,0.75,45,101.1
1559,E4,468.0,1.0,36,101.1
1560,C5,468.0,1.0,36,101.1
1561,C3,468.0,1.0,24,101.1
1562,C4,468.0,1.0,24,101.1
1563,F#5,468.75,0.25,37,101.1
1564,D5,469.0,0.75,50,101.1
1565,B4,469.0,1.0,40,101.1
1566,F#4,469.0,1.0,40,101.1
1567,B2,469.0,1.0,28,101.1
1568,B3,469.0,1.0,28,101.1
1569,C5,469.75,0.25,43,101.1
1570,E5,470.0,0.75,54,101.1
1571,C4,470.0,1.0,43,101.1
1572,A4,470.0,1.0,43,101.1
1573,A2,470.0,1.0,30,101.1
1574,A3,470.0,1.0,30,101.1
1575,D5,470.75,0.25,46,101.1
1576,B3,471.0,1.0,43,101.1
1577,B4,471.0,1.5,40,101.1
1578,E-4,471.0,2.0,32,101.1
1579,G2,471.0,1.0,28,101.1
1580,G3,471.0,1.0,28,101.1
1581,A3,472.0,1.0,43,101.1
1582,F#2,472.0,1.0,24,101.1
1583,F#3,472.0,1.0,24,101.1
1584,C5,472.5,0.5,36,101.1
1585,A4,473.0,0.75,32,101.1
1586,C4,473.0,1.0,25,101.1
1587,F4,473.0,1.0,25,101.1
1588,F2,473.0,1.0,20,101.1
1589,F3,473.0,1.0,20,101.1
1590,B4,473.75,0.25,27,101.1
1591,G4,474.0,0.75,33,101.1
1592,B3,474.0,1.0,27,101.1
1593,E4,474.0,1.0,27,101.1
1594,C3,474.0,1.0,18,101.1
1595,C2,474.0,1.0,18,101.1
1596,A4,474.75,0.25,29,101.1
1597,F#4,475.0,0.75,33,101.1
1598,A3,475.0,1.0,27,101.1
1599,D4,475.0,1.0,27,101.1
1600,D2,475.0,1.0,20,101.1
1601,D3,475.0,1.0,20,101.1
1602,G4,475.75,0.25,27,101.1
1603,E4,476.0,0.75,32,101.1
1604,G3,476.0,1.0,25,101.1
1605,C4,476.0,1.0,25,101.1
1606,A2,476.0,1.0,18,101.1
1607,A1,476.0,1.0,18,101.1
1608,F#4,476.75,0.25,26,101.1
1609,F#3,478.0,1.0,22,101.1
1610,E-4,478.0,1.0,22,101.1
1611,B3,478.0,1.0,22,101.1
1612,B2,478.0,1.0,15,101.1
1613,B1,478.0,1.0,15,101.1
1614,E4,480.0,1.0,19,101.1
1615,B3,480.0,1.0,19,101.1
1616,G3,480.0,1.0,19,101.1
1617,E1,480.0,1.0,13,101.1
1618,E2,480.0,1.0,13,101.1
1619,E4,481.0,2.0,19,101.1
1620,B3,481.0,2.0,19,101.1
1621,G3,481.0,2.0,19,101.1
1622,E1,481.0,2.0,13,101.1
1623,E2,481.0,2.0,13,101.1
