,note_name,start_time,duration,velocity,tempo
0,A3,0.0,1.5,34,143.38
1,A4,0.0,0.75,42,143.38
2,F2,0.0,3.0,24,143.38
3,C3,0.0,1.5,28,143.38
4,G4,0.75,0.25,31,143.38
5,F4,1.0,0.25,31,143.38
6,G4,1.25,0.25,31,143.38
7,B-3,1.5,1.5,30,143.38
8,A4,1.5,1.0,36,143.38
9,D3,1.5,1.5,24,143.38
10,F4,2.5,0.5,36,143.38
11,C4,3.0,1.5,34,143.38
12,A4,3.0,0.75,42,143.38
13,E3,3.0,1.5,28,143.38
14,F2,3.0,3.0,24,143.38
15,G4,3.75,0.25,32,143.38
16,F4,4.0,0.25,32,143.38
17,G4,4.25,0.25,32,143.38
18,D3,4.5,1.375,24,143.38
19,B-3,4.5,1.375,33,143.38
20,A4,4.5,1.375,33,143.38
21,F2,5.875,0.125,25,143.38
22,C3,5.938,0.062,29,143.38
23,F4,6.0,1.5,36,143.38
24,C5,6.0,0.75,45,143.38
25,A3,6.0,1.5,30,143.38
26,F2,6.0,3.0,25,143.38
27,C3,6.0,2.938,29,143.38
28,D5,6.75,0.25,38,143.38
29,E5,7.0,0.25,42,143.38
30,D5,7.25,0.25,38,143.38
31,B-3,7.5,1.5,30,143.38
32,C5,7.5,1.0,42,143.38
33,F4,7.5,1.0,42,143.38
34,E4,8.5,0.5,42,143.38
35,G#4,8.5,0.5,42,143.38
36,F2,8.875,0.125,23,143.38
37,C3,8.938,0.062,27,143.38
38,C5,9.0,1.5,48,143.38
39,F4,9.0,2.5,40,143.38
40,A3,9.0,1.5,32,143.38
41,F2,9.0,2.5,23,143.38
42,C3,9.0,2.438,27,143.38
43,F5,10.5,1.0,52,143.38
44,C4,12.0,1.5,40,143.38
45,C5,12.0,0.75,50,143.38
46,A2,12.0,3.0,29,143.38
47,E3,12.0,1.5,34,143.38
48,B4,12.75,0.25,37,143.38
49,A4,13.0,0.25,37,143.38
50,B4,13.25,0.25,37,143.38
51,D4,13.5,1.5,36,143.38
52,C5,13.5,1.0,43,143.38
53,F3,13.5,1.5,29,143.38
54,A4,14.5,0.5,43,143.38
55,E4,15.0,1.5,40,143.38
56,C5,15.0,0.75,50,143.38
57,G3,15.0,1.5,34,143.38
58,A2,15.0,3.0,29,143.38
59,B4,15.75,0.25,38,143.38
60,A4,16.0,0.25,38,143.38
61,B4,16.25,0.25,38,143.38
62,F3,16.5,1.375,29,143.38
63,D4,16.5,1.375,40,143.38
64,C5,16.5,1.375,40,143.38
65,A2,17.875,0.125,25,143.38
66,E3,17.938,0.062,29,143.38
67,A4,18.0,1.5,40,143.38
68,E5,18.0,0.75,50,143.38
69,C4,18.0,1.5,34,143.38
70,A2,18.0,3.0,25,143.38
71,E3,18.0,2.938,29,143.38
72,F5,18.75,0.25,42,143.38
73,G5,19.0,0.25,46,143.38
74,F5,19.25,0.25,42,143.38
75,D4,19.5,1.5,33,143.38
76,E5,19.5,1.0,46,143.38
77,A4,19.5,1.0,46,143.38
78,G#4,20.5,0.5,45,143.38
79,C5,20.5,0.5,45,143.38
80,E5,21.0,1.5,51,143.38
81,A4,21.0,2.0,42,143.38
82,A2,21.0,3.0,29,143.38
83,E3,21.0,3.0,29,143.38
84,C4,21.0,3.0,29,143.38
85,A5,22.5,1.5,53,143.38
86,G#4,23.0,0.5,57,143.38
87,G4,23.5,0.5,61,143.38
88,F#4,24.0,3.0,70,143.38
89,A5,24.0,1.0,53,143.38
90,D3,24.0,2.875,32,143.38
91,C4,24.0,2.875,32,143.38
92,F#5,25.0,0.5,53,143.38
93,D5,25.5,0.5,53,143.38
94,E-5,26.0,0.5,53,143.38
95,E5,26.5,0.5,53,143.38
96,G2,26.875,0.125,34,143.38
97,D3,26.938,0.062,34,143.38
98,F4,27.0,2.5,42,143.38
99,F5,27.0,1.0,53,143.38
100,B3,27.0,2.5,34,143.38
101,G2,27.0,2.5,34,143.38
102,D3,27.0,2.375,34,143.38
103,D5,28.0,0.5,49,143.38
104,B4,28.5,1.0,41,143.38
105,F#4,30.0,3.0,64,143.38
106,D3,30.0,2.875,32,143.38
107,C4,30.0,2.875,32,143.38
108,A5,30.5,0.5,53,143.38
109,F#5,31.0,0.5,47,143.38
110,D5,31.5,0.5,49,143.38
111,E-5,32.0,0.5,53,143.38
112,E5,32.5,0.5,54,143.38
113,G2,32.875,0.125,38,143.38
114,D3,32.938,0.062,40,143.38
115,F4,33.0,2.812,42,143.38
116,E5,33.0,0.5,54,143.38
117,B3,33.0,2.5,43,143.38
118,G2,33.0,2.5,38,143.38
119,D3,33.0,2.375,40,143.38
120,F5,33.5,0.5,62,143.38
121,D5,34.0,0.5,53,143.38
122,A4,34.5,0.5,56,143.38
123,B-4,35.0,0.5,58,143.38
124,B4,35.5,0.5,63,143.38
125,G2,35.812,0.188,40,143.38
126,D3,35.875,0.125,43,143.38
127,A3,35.938,0.062,46,143.38
128,B4,36.0,0.5,63,143.38
129,C4,36.0,3.0,48,143.38
130,G2,36.0,3.0,40,143.38
131,D3,36.0,3.0,43,143.38
132,A3,36.0,3.0,46,143.38
133,C5,36.5,0.5,58,143.38
134,A4,37.0,0.5,53,143.38
135,C#4,37.5,0.5,47,143.38
136,D4,38.0,0.5,43,143.38
137,E4,38.5,0.5,44,143.38
138,F4,39.0,0.5,46,143.38
139,C4,39.0,1.0,48,143.38
140,G2,39.0,1.0,40,143.38
141,D3,39.0,1.0,43,143.38
142,A3,39.0,1.0,46,143.38
143,G#4,39.5,0.5,42,143.38
144,A4,40.0,0.5,39,143.38
145,C#5,40.5,0.5,31,143.38
146,F4,41.0,0.125,27,143.38
147,A4,41.0,0.125,27,143.38
148,D5,41.0,0.125,27,143.38
149,A4,41.5,0.125,28,143.38
150,D5,41.5,0.125,28,143.38
151,F5,41.5,0.125,28,143.38
152,A5,42.0,0.125,35,143.38
153,F5,42.0,0.125,35,143.38
154,D5,42.0,0.125,35,143.38
155,E4,45.0,3.0,40,143.38
156,G#2,45.0,2.5,44,143.38
157,B3,45.0,3.0,36,143.38
158,F3,45.0,3.0,36,143.38
159,G2,47.5,0.5,32,143.38
160,C4,48.0,0.75,40,143.38
161,C2,48.0,1.5,27,143.38
162,E3,48.0,1.5,27,143.38
163,G2,48.0,1.5,27,143.38
164,B3,48.75,0.25,30,143.38
165,C4,49.0,0.25,30,143.38
166,D4,49.25,0.25,30,143.38
167,E4,49.5,1.5,34,143.38
168,F3,49.5,1.5,34,143.38
169,B3,49.5,1.5,34,143.38
170,G#2,49.5,1.5,34,143.38
171,G#3,49.5,1.5,34,143.38
172,C4,51.0,0.75,40,143.38
173,C2,51.0,1.5,27,143.38
174,E3,51.0,1.5,27,143.38
175,G2,51.0,1.5,27,143.38
176,B3,51.75,0.25,30,143.38
177,C4,52.0,0.25,30,143.38
178,D4,52.25,0.25,30,143.38
179,E4,52.5,1.5,34,143.38
180,F3,52.5,1.5,34,143.38
181,B3,52.5,1.5,34,143.38
182,G#2,52.5,1.5,34,143.38
183,G#3,52.5,1.5,34,143.38
184,C4,54.0,0.5,26,143.38
185,E3,54.0,0.5,26,143.38
186,C2,54.0,0.5,24,143.38
187,G2,54.0,0.5,24,143.38
188,E4,55.494,0.5,24,143.38
189,C5,55.494,0.5,24,143.38
190,C3,55.5,0.5,24,143.38
191,G3,55.5,0.5,24,143.38
192,C6,57.0,2.5,26,143.38
193,E5,57.0,2.5,26,143.38
194,C4,57.0,2.5,26,143.38
195,G4,57.0,2.5,26,143.38
196,A3,60.0,1.5,34,143.38
197,A4,60.0,0.75,42,143.38
198,F2,60.0,3.0,24,143.38
199,C3,60.0,1.5,28,143.38
200,G4,60.75,0.25,31,143.38
201,F4,61.0,0.25,31,143.38
202,G4,61.25,0.25,31,143.38
203,B-3,61.5,1.5,30,143.38
204,A4,61.5,1.0,36,143.38
205,D3,61.5,1.5,24,143.38
206,F4,62.5,0.5,36,143.38
207,C4,63.0,1.5,34,143.38
208,A4,63.0,0.75,42,143.38
209,E3,63.0,1.5,28,143.38
210,F2,63.0,3.0,24,143.38
211,G4,63.75,0.25,32,143.38
212,F4,64.0,0.25,32,143.38
213,G4,64.25,0.25,32,143.38
214,D3,64.5,1.375,24,143.38
215,B-3,64.5,1.375,33,143.38
216,A4,64.5,1.375,33,143.38
217,F2,65.875,0.125,22,143.38
218,C3,65.938,0.062,26,143.38
219,F4,66.0,1.5,36,143.38
220,C5,66.0,0.75,45,143.38
221,A3,66.0,1.5,30,143.38
222,F2,66.0,3.0,22,143.38
223,C3,66.0,2.938,26,143.38
224,D5,66.75,0.25,38,143.38
225,E5,67.0,0.25,42,143.38
226,D5,67.25,0.25,38,143.38
227,B-3,67.5,1.5,30,143.38
228,C5,67.5,1.0,42,143.38
229,F4,67.5,1.0,42,143.38
230,E4,68.5,0.5,42,143.38
231,G#4,68.5,0.5,42,143.38
232,F2,68.875,0.125,23,143.38
233,C3,68.938,0.062,27,143.38
234,C5,69.0,1.5,48,143.38
235,F4,69.0,2.5,39,143.38
236,A3,69.0,1.5,32,143.38
237,F2,69.0,2.5,23,143.38
238,C3,69.0,2.438,27,143.38
239,F5,70.5,1.0,51,143.38
240,C4,72.0,1.5,40,143.38
241,C5,72.0,0.75,50,143.38
242,A2,72.0,3.0,29,143.38
243,E3,72.0,1.5,34,143.38
244,B4,72.75,0.25,37,143.38
245,A4,73.0,0.25,37,143.38
246,B4,73.25,0.25,37,143.38
247,D4,73.5,1.5,36,143.38
248,C5,73.5,1.0,43,143.38
249,F3,73.5,1.5,29,143.38
250,A4,74.5,0.5,43,143.38
251,E4,75.0,1.5,40,143.38
252,C5,75.0,0.75,50,143.38
253,G3,75.0,1.5,34,143.38
254,A2,75.0,3.0,29,143.38
255,B4,75.75,0.25,38,143.38
256,A4,76.0,0.25,38,143.38
257,B4,76.25,0.25,38,143.38
258,F3,76.5,1.375,29,143.38
259,D4,76.5,1.375,40,143.38
260,C5,76.5,1.375,40,143.38
261,A2,77.875,0.125,25,143.38
262,E3,77.938,0.062,29,143.38
263,A4,78.0,1.5,40,143.38
264,E5,78.0,0.75,50,143.38
265,C4,78.0,1.5,34,143.38
266,A2,78.0,3.0,25,143.38
267,E3,78.0,2.938,29,143.38
268,F5,78.75,0.25,42,143.38
269,G5,79.0,0.25,46,143.38
270,F5,79.25,0.25,42,143.38
271,D4,79.5,1.5,33,143.38
272,E5,79.5,1.0,46,143.38
273,A4,79.5,1.0,46,143.38
274,G#4,80.5,0.5,45,143.38
275,C5,80.5,0.5,45,143.38
276,E5,81.0,1.5,51,143.38
277,A4,81.0,2.0,42,143.38
278,A2,81.0,3.0,29,143.38
279,E3,81.0,3.0,29,143.38
280,C4,81.0,3.0,29,143.38
281,A5,82.5,1.5,53,143.38
282,G#4,83.0,0.5,57,143.38
283,G4,83.5,0.5,61,143.38
284,F#4,84.0,3.0,70,143.38
285,A5,84.0,1.0,53,143.38
286,D3,84.0,2.875,32,143.38
287,C4,84.0,2.875,32,143.38
288,F#5,85.0,0.5,53,143.38
289,D5,85.5,0.5,53,143.38
290,E-5,86.0,0.5,53,143.38
291,E5,86.5,0.5,53,143.38
292,G2,86.875,0.125,34,143.38
293,D3,86.938,0.062,34,143.38
294,F4,87.0,2.5,42,143.38
295,F5,87.0,1.0,53,143.38
296,B3,87.0,2.5,34,143.38
297,G2,87.0,2.5,34,143.38
298,D3,87.0,2.375,34,143.38
299,D5,88.0,0.5,50,143.38
300,B4,88.5,1.0,46,143.38
301,F#4,90.0,3.0,64,143.38
302,D3,90.0,2.875,32,143.38
303,C4,90.0,2.875,32,143.38
304,A5,90.5,0.5,53,143.38
305,F#5,91.0,0.5,47,143.38
306,D5,91.5,0.5,49,143.38
307,E-5,92.0,0.5,53,143.38
308,E5,92.5,0.5,54,143.38
309,G2,92.875,0.125,38,143.38
310,D3,92.938,0.062,40,143.38
311,F4,93.0,2.812,42,143.38
312,E5,93.0,0.5,54,143.38
313,B3,93.0,2.5,43,143.38
314,G2,93.0,2.5,38,143.38
315,D3,93.0,2.375,40,143.38
316,F5,93.5,0.5,60,143.38
317,D5,94.0,0.5,53,143.38
318,A4,94.5,0.5,56,143.38
319,B-4,95.0,0.5,58,143.38
320,B4,95.5,0.5,63,143.38
321,G2,95.812,0.188,40,143.38
322,D3,95.875,0.125,43,143.38
323,A3,95.938,0.062,46,143.38
324,B4,96.0,0.5,63,143.38
325,C4,96.0,3.0,48,143.38
326,G2,96.0,3.0,40,143.38
327,D3,96.0,3.0,43,143.38
328,A3,96.0,3.0,46,143.38
329,C5,96.5,0.5,58,143.38
330,A4,97.0,0.5,53,143.38
331,C#4,97.5,0.5,47,143.38
332,D4,98.0,0.5,43,143.38
333,E4,98.5,0.5,44,143.38
334,F4,99.0,0.5,46,143.38
335,C4,99.0,1.0,48,143.38
336,G2,99.0,1.0,40,143.38
337,D3,99.0,1.0,43,143.38
338,A3,99.0,1.0,46,143.38
339,G#4,99.5,0.5,42,143.38
340,A4,100.0,0.5,39,143.38
341,C#5,100.5,0.5,31,143.38
342,F4,101.0,0.125,27,143.38
343,A4,101.0,0.125,27,143.38
344,D5,101.0,0.125,27,143.38
345,A4,101.5,0.125,28,143.38
346,D5,101.5,0.125,28,143.38
347,F5,101.5,0.125,28,143.38
348,A5,102.0,0.125,35,143.38
349,F5,102.0,0.125,35,143.38
350,D5,102.0,0.125,35,143.38
351,E4,105.0,3.0,40,143.38
352,G#2,105.0,2.5,44,143.38
353,B3,105.0,3.0,36,143.38
354,F3,105.0,3.0,36,143.38
355,G2,107.5,0.5,32,143.38
356,C4,108.0,0.75,40,143.38
357,C2,108.0,1.5,27,143.38
358,E3,108.0,1.5,27,143.38
359,G2,108.0,1.5,27,143.38
360,B3,108.75,0.25,30,143.38
361,C4,109.0,0.25,30,143.38
362,D4,109.25,0.25,30,143.38
363,E4,109.5,1.5,34,143.38
364,F3,109.5,1.5,34,143.38
365,B3,109.5,1.5,34,143.38
366,G#2,109.5,1.5,34,143.38
367,G#3,109.5,1.5,34,143.38
368,C4,111.0,0.75,40,143.38
369,C2,111.0,1.5,27,143.38
370,E3,111.0,1.5,27,143.38
371,G2,111.0,1.5,27,143.38
372,B3,111.75,0.25,30,143.38
373,C4,112.0,0.25,30,143.38
374,D4,112.25,0.25,30,143.38
375,E4,112.5,1.5,34,143.38
376,F3,112.5,1.5,34,143.38
377,B3,112.5,1.5,34,143.38
378,G#2,112.5,1.5,34,143.38
379,G#3,112.5,1.5,34,143.38
380,C4,114.0,0.5,26,143.38
381,E3,114.0,0.5,26,143.38
382,C2,114.0,0.5,24,143.38
383,G2,114.0,0.5,24,143.38
384,E4,115.494,0.5,24,143.38
385,C5,115.494,0.5,24,143.38
386,C3,115.5,0.5,24,143.38
387,G3,115.5,0.5,24,143.38
388,C6,117.0,2.5,26,143.38
389,E5,117.0,2.5,26,143.38
390,C4,117.0,2.5,26,143.38
391,G4,117.0,2.5,26,143.38
392,D4,120.0,2.5,34,143.38
393,G4,120.0,0.75,42,143.38
394,C3,120.0,3.0,24,143.38
395,B-3,120.0,2.5,28,143.38
396,F#4,120.75,0.25,31,143.38
397,G4,121.0,0.25,31,143.38
398,A4,121.25,0.25,31,143.38
399,B-4,121.5,1.5,36,143.38
400,E4,122.5,0.5,36,143.38
401,C4,122.5,0.5,34,143.38
402,F4,123.0,2.5,34,143.38
403,B-4,123.0,0.75,36,143.38
404,D4,123.0,2.5,37,143.38
405,C3,123.0,3.0,24,143.38
406,A4,123.75,0.25,36,143.38
407,B-4,124.0,0.25,38,143.38
408,C5,124.25,0.25,40,143.38
409,D5,124.5,1.5,44,143.38
410,F#4,125.5,0.5,42,143.38
411,E-4,125.5,0.375,37,143.38
412,C3,125.875,0.125,37,143.38
413,B-3,125.938,0.062,41,143.38
414,D5,126.0,0.75,44,143.38
415,E4,126.0,0.5,47,143.38
416,C3,126.0,0.5,37,143.38
417,B-3,126.0,0.5,41,143.38
418,G4,126.5,0.25,48,143.38
419,C#5,126.75,0.25,42,143.38
420,B-4,126.75,0.25,42,143.38
421,G4,127.0,0.25,46,143.38
422,B-4,127.25,0.25,42,143.38
423,D5,127.25,0.25,42,143.38
424,B-4,127.5,0.188,47,143.38
425,D5,127.75,0.188,41,143.38
426,F#5,127.75,0.188,41,143.38
427,B-4,128.0,0.188,45,143.38
428,G5,128.25,0.188,39,143.38
429,D5,128.25,0.188,39,143.38
430,D5,128.5,0.188,43,143.38
431,A5,128.75,0.188,37,143.38
432,G5,128.75,0.188,37,143.38
433,D5,129.0,0.188,43,143.38
434,B-5,129.25,0.188,36,143.38
435,G5,129.25,0.188,36,143.38
436,G5,129.5,0.188,41,143.38
437,C#6,129.75,0.188,34,143.38
438,B-5,129.75,0.188,34,143.38
439,G5,130.0,0.188,38,143.38
440,D6,130.25,0.188,33,143.38
441,B-5,130.25,0.188,33,143.38
442,G6,130.5,0.25,48,143.38
443,G4,132.0,2.5,37,143.38
444,C5,132.0,0.75,46,143.38
445,F3,132.0,3.0,26,143.38
446,E-4,132.0,2.5,30,143.38
447,B4,132.75,0.25,34,143.38
448,C5,133.0,0.25,35,143.38
449,D5,133.25,0.25,35,143.38
450,E-5,133.5,1.5,41,143.38
451,A4,134.5,0.5,42,143.38
452,F4,134.5,0.5,40,143.38
453,B-4,135.0,2.5,41,143.38
454,E-5,135.0,0.75,41,143.38
455,G4,135.0,2.5,44,143.38
456,F3,135.0,3.0,26,143.38
457,D5,135.75,0.25,44,143.38
458,E-5,136.0,0.25,47,143.38
459,F5,136.25,0.25,50,143.38
460,G5,136.5,1.5,55,143.38
461,B4,137.5,0.5,42,143.38
462,G#4,137.5,0.375,37,143.38
463,F3,137.875,0.125,37,143.38
464,E-4,137.938,0.062,41,143.38
465,G5,138.0,0.75,55,143.38
466,A4,138.0,0.5,47,143.38
467,F3,138.0,0.5,37,143.38
468,E-4,138.0,0.5,41,143.38
469,C5,138.5,0.25,48,143.38
470,F#5,138.75,0.25,42,143.38
471,E-5,138.75,0.25,42,143.38
472,C5,139.0,0.25,46,143.38
473,E-5,139.25,0.25,42,143.38
474,G5,139.25,0.25,42,143.38
475,E-5,139.5,0.188,47,143.38
476,G5,139.75,0.188,41,143.38
477,B5,139.75,0.188,41,143.38
478,E-5,140.0,0.188,45,143.38
479,C6,140.25,0.188,39,143.38
480,G5,140.25,0.188,39,143.38
481,G5,140.5,0.188,43,143.38
482,D6,140.75,0.188,37,143.38
483,C6,140.75,0.188,37,143.38
484,G5,141.0,0.188,43,143.38
485,E-6,141.25,0.188,36,143.38
486,C6,141.25,0.188,36,143.38
487,C6,141.5,0.188,41,143.38
488,F#6,141.75,0.188,34,143.38
489,E-6,141.75,0.188,34,143.38
490,C6,142.0,0.188,38,143.38
491,G6,142.25,0.188,33,143.38
492,E-6,142.25,0.188,33,143.38
493,C7,142.5,0.25,48,143.38
494,B-2,144.0,1.0,58,143.38
495,B-5,144.25,0.25,31,143.38
496,D6,144.25,0.25,31,143.38
497,E6,144.5,0.25,35,143.38
498,B-5,144.75,0.25,30,143.38
499,D6,144.75,0.25,30,143.38
500,F6,145.0,0.25,35,143.38
501,F3,145.0,0.5,52,143.38
502,D6,145.25,0.25,31,143.38
503,B-5,145.25,0.25,31,143.38
504,B-3,145.5,1.0,58,143.38
505,D6,145.75,0.25,30,143.38
506,B-5,145.75,0.25,30,143.38
507,E6,146.0,0.25,35,143.38
508,D6,146.25,0.25,32,143.38
509,B-5,146.25,0.25,32,143.38
510,F6,146.5,0.25,35,143.38
511,C4,146.5,0.5,53,143.38
512,B-5,146.75,0.25,31,143.38
513,D6,146.75,0.25,31,143.38
514,D4,147.0,1.0,63,143.38
515,B-5,147.25,0.25,34,143.38
516,D6,147.25,0.25,34,143.38
517,E6,147.5,0.25,39,143.38
518,B-5,147.75,0.25,34,143.38
519,D6,147.75,0.25,34,143.38
520,F6,148.0,0.25,41,143.38
521,F4,148.0,0.5,65,143.38
522,D6,148.25,0.25,37,143.38
523,B-5,148.25,0.25,37,143.38
524,B-4,148.5,1.0,74,143.38
525,D6,148.75,0.25,37,143.38
526,B-5,148.75,0.25,37,143.38
527,E6,149.0,0.25,45,143.38
528,D6,149.25,0.25,41,143.38
529,B-5,149.25,0.25,41,143.38
530,F6,149.5,0.25,46,143.38
531,A4,149.5,0.312,58,143.38
532,B-5,149.75,0.25,42,143.38
533,D6,149.75,0.25,42,143.38
534,E3,149.812,0.188,41,143.38
535,B3,149.875,0.125,47,143.38
536,D4,149.938,0.062,53,143.38
537,A4,150.0,3.0,81,143.38
538,E3,150.0,3.0,41,143.38
539,B3,150.0,3.0,47,143.38
540,D4,150.0,3.0,53,143.38
541,B5,150.25,0.25,42,143.38
542,D6,150.25,0.25,42,143.38
543,E6,150.5,0.25,47,143.38
544,B5,150.75,0.25,39,143.38
545,D6,150.75,0.25,39,143.38
546,F6,151.0,0.25,45,143.38
547,D6,151.25,0.25,39,143.38
548,B5,151.25,0.25,39,143.38
549,D6,151.75,0.25,36,143.38
550,B5,151.75,0.25,36,143.38
551,E6,152.0,0.25,42,143.38
552,D6,152.25,0.25,37,143.38
553,B5,152.25,0.25,37,143.38
554,F6,152.5,0.25,40,143.38
555,B5,152.75,0.25,35,143.38
556,D6,152.75,0.25,35,143.38
557,G#4,153.0,1.0,52,143.38
558,E3,153.0,1.0,41,143.38
559,B3,153.0,1.0,47,143.38
560,D4,153.0,1.0,53,143.38
561,B5,153.25,0.25,31,143.38
562,D6,153.25,0.25,31,143.38
563,E6,153.5,0.25,35,143.38
564,B5,153.75,0.25,30,143.38
565,D6,153.75,0.25,30,143.38
566,F6,154.0,0.25,35,143.38
567,D6,154.25,0.25,31,143.38
568,B5,154.25,0.25,31,143.38
569,D6,154.75,0.25,30,143.38
570,B5,154.75,0.25,30,143.38
571,E6,155.0,0.25,35,143.38
572,D6,155.25,0.25,32,143.38
573,B5,155.25,0.25,32,143.38
574,F6,155.5,0.25,35,143.38
575,B5,155.75,0.25,31,143.38
576,D6,155.75,0.25,31,143.38
577,B-2,156.0,1.0,58,143.38
578,B-5,156.25,0.25,31,143.38
579,C#6,156.25,0.25,31,143.38
580,E6,156.5,0.25,35,143.38
581,B-5,156.75,0.25,30,143.38
582,C#6,156.75,0.25,30,143.38
583,F6,157.0,0.25,35,143.38
584,F3,157.0,0.5,52,143.38
585,C#6,157.25,0.25,31,143.38
586,B-5,157.25,0.25,31,143.38
587,B-3,157.5,1.0,58,143.38
588,C#6,157.75,0.25,30,143.38
589,B-5,157.75,0.25,30,143.38
590,E6,158.0,0.25,36,143.38
591,C#6,158.25,0.25,32,143.38
592,B-5,158.25,0.25,32,143.38
593,F6,158.5,0.25,36,143.38
594,C4,158.5,0.5,53,143.38
595,B-5,158.75,0.25,32,143.38
596,C#6,158.75,0.25,32,143.38
597,C#4,159.0,1.0,63,143.38
598,B-5,159.25,0.25,35,143.38
599,C#6,159.25,0.25,35,143.38
600,E6,159.5,0.25,40,143.38
601,B-5,159.75,0.25,36,143.38
602,C#6,159.75,0.25,36,143.38
603,F6,160.0,0.25,44,143.38
604,F4,160.0,0.5,70,143.38
605,C#6,160.25,0.25,40,143.38
606,B-5,160.25,0.25,40,143.38
607,B-4,160.5,1.0,76,143.38
608,C#6,160.75,0.25,40,143.38
609,B-5,160.75,0.25,40,143.38
610,E6,161.0,0.25,50,143.38
611,C#6,161.25,0.25,46,143.38
612,B-5,161.25,0.25,46,143.38
613,F6,161.5,0.25,53,143.38
614,G#4,161.5,0.312,62,143.38
615,B-5,161.75,0.25,49,143.38
616,C#6,161.75,0.25,49,143.38
617,E-3,161.812,0.188,43,143.38
618,B-3,161.875,0.125,51,143.38
619,C#4,161.938,0.062,57,143.38
620,G#4,162.0,3.0,86,143.38
621,E-3,162.0,3.0,43,143.38
622,B-3,162.0,3.0,51,143.38
623,C#4,162.0,3.0,57,143.38
624,B-5,162.25,0.25,46,143.38
625,C#6,162.25,0.25,46,143.38
626,E6,162.5,0.25,52,143.38
627,B-5,162.75,0.25,43,143.38
628,C#6,162.75,0.25,43,143.38
629,F6,163.0,0.25,50,143.38
630,C#6,163.25,0.25,44,143.38
631,B-5,163.25,0.25,44,143.38
632,B-5,163.75,0.25,43,143.38
633,C#6,163.75,0.25,43,143.38
634,E6,164.0,0.25,53,143.38
635,B-5,164.25,0.25,46,143.38
636,C#6,164.25,0.25,46,143.38
637,F6,164.5,0.25,53,143.38
638,C#6,164.75,0.25,46,143.38
639,B-5,164.75,0.25,46,143.38
640,G4,165.0,1.0,62,143.38
641,E-3,165.0,1.0,43,143.38
642,B-3,165.0,1.0,51,143.38
643,C#4,165.0,1.0,57,143.38
644,B-5,165.25,0.25,43,143.38
645,C#6,165.25,0.25,43,143.38
646,E6,165.5,0.25,53,143.38
647,B-5,165.75,0.25,45,143.38
648,C#6,165.75,0.25,45,143.38
649,F6,166.0,0.25,53,143.38
650,C#6,166.25,0.25,44,143.38
651,B-5,166.25,0.25,44,143.38
652,C#3,166.375,0.125,60,143.38
653,F#4,166.5,1.0,80,143.38
654,C#6,166.75,0.25,45,143.38
655,B-5,166.75,0.25,45,143.38
656,F6,167.0,0.25,49,143.38
657,B-5,167.25,0.25,43,143.38
658,C#6,167.25,0.25,43,143.38
659,F#6,167.5,0.25,49,143.38
660,F4,167.5,0.5,76,143.38
661,C#6,167.75,0.25,42,143.38
662,B-5,167.75,0.25,42,143.38
663,C3,167.875,0.125,73,143.38
664,C2,167.875,0.125,73,143.38
665,F4,168.0,3.0,69,143.38
666,G3,168.0,3.0,64,143.38
667,B-3,168.0,3.0,64,143.38
668,C3,168.0,11.5,73,143.38
669,C2,168.0,11.5,73,143.38
670,C#6,168.25,0.25,56,143.38
671,B-5,168.25,0.25,56,143.38
672,F#6,168.5,0.25,63,143.38
673,B-5,168.75,0.25,53,143.38
674,C#6,168.75,0.25,53,143.38
675,G6,169.0,0.25,62,143.38
676,C#6,169.25,0.25,52,143.38
677,B-5,169.25,0.25,52,143.38
678,C#6,169.75,0.25,56,143.38
679,B-5,169.75,0.25,56,143.38
680,F#6,170.0,0.25,61,143.38
681,B-5,170.25,0.25,53,143.38
682,C#6,170.25,0.25,53,143.38
683,G6,170.5,0.25,61,143.38
684,C#6,170.75,0.25,52,143.38
685,B-5,170.75,0.25,52,143.38
686,C#6,171.25,0.25,51,143.38
687,B-5,171.25,0.25,51,143.38
688,F#6,171.5,0.25,58,143.38
689,B-5,171.75,0.25,49,143.38
690,C#6,171.75,0.25,49,143.38
691,G6,172.0,0.25,57,143.38
692,C#6,172.25,0.25,48,143.38
693,B-5,172.25,0.25,48,143.38
694,B-5,172.75,0.25,51,143.38
695,G5,172.75,0.25,51,143.38
696,E-6,173.0,0.25,56,143.38
697,G5,173.25,0.25,49,143.38
698,B-5,173.25,0.25,49,143.38
699,E6,173.5,0.25,56,143.38
700,B-5,173.75,0.25,48,143.38
701,G5,173.75,0.25,48,143.38
702,G5,174.25,0.25,45,143.38
703,E5,174.25,0.25,45,143.38
704,C6,174.5,0.25,50,143.38
705,E5,174.75,0.25,42,143.38
706,G5,174.75,0.25,42,143.38
707,C#6,175.0,0.25,48,143.38
708,G5,175.25,0.25,39,143.38
709,E5,175.25,0.25,39,143.38
710,E5,175.75,0.25,41,143.38
711,C#5,175.75,0.25,41,143.38
712,A5,176.0,0.25,44,143.38
713,C#5,176.25,0.25,38,143.38
714,E5,176.25,0.25,38,143.38
715,B-5,176.5,0.25,43,143.38
716,E5,176.75,0.25,36,143.38
717,C#5,176.75,0.25,36,143.38
718,C#5,177.25,0.25,38,143.38
719,B-4,177.25,0.25,38,143.38
720,F#5,177.5,0.25,42,143.38
721,B-4,177.75,0.25,35,143.38
722,C#5,177.75,0.25,35,143.38
723,G5,178.0,0.25,40,143.38
724,C#5,178.25,0.25,33,143.38
725,B-4,178.25,0.25,33,143.38
726,B-4,178.75,0.25,34,143.38
727,G4,178.75,0.25,34,143.38
728,E-5,179.0,0.25,37,143.38
729,G4,179.25,0.25,31,143.38
730,B-4,179.25,0.25,31,143.38
731,E5,179.5,0.25,35,143.38
732,E4,179.5,3.0,66,143.38
733,G3,179.5,3.0,64,143.38
734,B-3,179.5,3.0,64,143.38
735,B-4,179.75,0.25,30,143.38
736,G4,179.75,0.25,30,143.38
737,E4,182.5,3.0,66,143.38
738,G3,182.5,3.0,64,143.38
739,B-3,182.5,3.0,64,143.38
740,G4,183.25,0.25,29,143.38
741,B-4,183.25,0.25,29,143.38
742,C5,183.5,0.25,35,143.38
743,G4,183.75,0.25,30,143.38
744,B-4,183.75,0.25,30,143.38
745,C#5,184.0,0.25,35,143.38
746,G4,184.25,0.25,31,143.38
747,B-4,184.25,0.25,31,143.38
748,G4,184.75,0.25,29,143.38
749,B-4,184.75,0.25,29,143.38
750,C5,185.0,0.25,35,143.38
751,G4,185.25,0.25,31,143.38
752,B-4,185.25,0.25,31,143.38
753,C#5,185.5,0.25,35,143.38
754,E4,185.5,2.5,66,143.38
755,G3,185.5,2.5,64,143.38
756,B-3,185.5,2.5,64,143.38
757,G4,185.75,0.25,30,143.38
758,B-4,185.75,0.25,30,143.38
759,F#5,186.0,3.0,47,143.38
760,E4,189.25,0.25,29,143.38
761,B-4,189.25,0.25,29,143.38
762,C#5,189.5,0.25,37,143.38
763,E4,189.75,0.25,32,143.38
764,B-4,189.75,0.25,32,143.38
765,D5,190.0,0.25,38,143.38
766,E4,190.25,0.25,35,143.38
767,B-4,190.25,0.25,35,143.38
768,E4,190.75,0.25,34,143.38
769,B-4,190.75,0.25,34,143.38
770,C#5,191.0,0.25,42,143.38
771,E4,191.25,0.25,37,143.38
772,B-4,191.25,0.25,37,143.38
773,C#3,191.375,0.125,29,143.38
774,D5,191.5,0.25,43,143.38
775,B-3,191.5,0.5,37,143.38
776,C#3,191.5,0.5,29,143.38
777,E4,191.75,0.25,38,143.38
778,B-4,191.75,0.25,38,143.38
779,G5,192.0,3.0,62,143.38
780,C#2,193.0,0.5,29,143.38
781,G5,195.0,1.0,62,143.38
782,A4,196.0,0.5,43,143.38
783,B-4,196.5,1.0,50,143.38
784,C3,197.375,0.125,29,143.38
785,C5,197.5,0.5,43,143.38
786,B-3,197.5,0.5,37,143.38
787,C3,197.5,0.5,29,143.38
788,C#5,198.0,1.0,52,143.38
789,D5,199.0,0.5,43,143.38
790,C2,199.0,0.5,33,143.38
791,F#4,199.5,1.0,51,143.38
792,G4,200.5,0.5,37,143.38
793,A4,201.0,1.0,48,143.38
794,B-4,202.0,0.5,39,143.38
795,C#4,202.5,1.0,35,143.38
796,D4,203.5,0.5,26,143.38
797,E4,204.0,1.0,39,143.38
798,F4,205.0,0.375,25,143.38
799,G4,205.5,1.0,34,143.38
800,G#4,206.5,0.5,27,143.38
801,A3,207.0,1.5,30,143.38
802,A4,207.0,0.75,37,143.38
803,G4,207.75,0.25,27,143.38
804,F4,208.0,0.25,27,143.38
805,G4,208.25,0.25,27,143.38
806,B-3,208.5,1.5,27,143.38
807,A4,208.5,1.0,32,143.38
808,F4,209.5,0.5,32,143.38
809,C4,210.0,1.5,30,143.38
810,A4,210.0,0.75,37,143.38
811,G4,210.75,0.25,28,143.38
812,F4,211.0,0.25,28,143.38
813,G4,211.25,0.25,28,143.38
814,B-3,211.5,1.375,30,143.38
815,A4,211.5,1.375,30,143.38
816,F4,213.0,1.5,36,143.38
817,C5,213.0,0.75,45,143.38
818,D5,213.75,0.25,38,143.38
819,C2,213.875,1.625,24,143.38
820,E5,214.0,0.25,42,143.38
821,E3,214.0,1.0,31,143.38
822,D5,214.25,0.25,38,143.38
823,C5,214.5,1.0,42,143.38
824,F4,214.5,1.0,42,143.38
825,D3,215.0,0.5,27,143.38
826,F2,215.5,3.0,21,143.38
827,C3,215.5,1.5,25,143.38
828,E4,215.5,0.5,42,143.38
829,G#4,215.5,0.5,42,143.38
830,C5,216.0,1.5,48,143.38
831,F4,216.0,2.5,40,143.38
832,D3,217.0,1.5,21,143.38
833,F5,217.5,1.0,52,143.38
834,E3,218.5,1.5,25,143.38
835,F2,218.5,3.0,21,143.38
836,C4,219.0,1.5,40,143.38
837,C5,219.0,0.75,50,143.38
838,B4,219.75,0.25,37,143.38
839,A4,220.0,0.25,37,143.38
840,D3,220.0,1.375,21,143.38
841,B4,220.25,0.25,37,143.38
842,D4,220.5,1.5,36,143.38
843,C5,220.5,1.0,43,143.38
844,F2,221.375,0.125,25,143.38
845,C3,221.438,0.062,29,143.38
846,A4,221.5,0.5,43,143.38
847,A3,221.5,1.5,30,143.38
848,F2,221.5,3.0,25,143.38
849,C3,221.5,2.938,29,143.38
850,E4,222.0,1.5,40,143.38
851,C5,222.0,0.75,50,143.38
852,B4,222.75,0.25,38,143.38
853,A4,223.0,0.25,38,143.38
854,B-3,223.0,1.5,30,143.38
855,B4,223.25,0.25,38,143.38
856,D4,223.5,1.375,40,143.38
857,C5,223.5,1.375,40,143.38
858,F2,224.375,0.125,23,143.38
859,C3,224.438,0.062,27,143.38
860,A3,224.5,1.5,32,143.38
861,F2,224.5,2.5,23,143.38
862,C3,224.5,2.438,27,143.38
863,A4,225.0,1.5,40,143.38
864,E5,225.0,0.75,50,143.38
865,F5,225.75,0.25,42,143.38
866,G5,226.0,0.25,46,143.38
867,F5,226.25,0.25,42,143.38
868,E5,226.5,1.0,46,143.38
869,A4,226.5,1.0,46,143.38
870,A2,227.5,3.0,29,143.38
871,E3,227.5,1.5,34,143.38
872,G#4,227.5,0.5,45,143.38
873,C5,227.5,0.5,45,143.38
874,E5,228.0,1.5,51,143.38
875,A4,228.0,2.0,42,143.38
876,F3,229.0,1.5,29,143.38
877,A5,229.5,1.5,53,143.38
878,G#4,230.0,0.5,57,143.38
879,G4,230.5,0.5,61,143.38
880,G3,230.5,1.5,34,143.38
881,A2,230.5,3.0,29,143.38
882,F#4,231.0,3.0,70,143.38
883,A5,231.0,1.0,53,143.38
884,F#5,232.0,0.5,53,143.38
885,F3,232.0,1.375,29,143.38
886,D5,232.5,0.5,53,143.38
887,E-5,233.0,0.5,53,143.38
888,A2,233.375,0.125,25,143.38
889,E3,233.438,0.062,29,143.38
890,E5,233.5,0.5,53,143.38
891,C4,233.5,1.5,34,143.38
892,A2,233.5,3.0,25,143.38
893,E3,233.5,2.938,29,143.38
894,F4,234.0,2.5,42,143.38
895,F5,234.0,1.0,53,143.38
896,D5,235.0,0.5,50,143.38
897,D4,235.0,1.5,33,143.38
898,B4,235.5,1.0,49,143.38
899,A2,236.375,0.125,25,143.38
900,E3,236.438,0.062,29,143.38
901,C4,236.5,3.0,34,143.38
902,A2,236.5,3.0,25,143.38
903,E3,236.5,2.938,29,143.38
904,F#4,237.0,3.0,64,143.38
905,A5,237.5,0.5,53,143.38
906,F#5,238.0,0.5,47,143.38
907,D5,238.5,0.5,49,143.38
908,E-5,239.0,0.5,53,143.38
909,E5,239.5,0.5,54,143.38
910,D3,239.5,2.875,32,143.38
911,C4,239.5,2.875,32,143.38
912,F4,240.0,2.812,42,143.38
913,E5,240.0,0.5,54,143.38
914,F5,240.5,0.5,62,143.38
915,D5,241.0,0.5,53,143.38
916,B4,241.5,1.312,56,143.38
917,G2,242.375,0.125,34,143.38
918,D3,242.438,0.062,34,143.38
919,B3,242.5,2.5,34,143.38
920,G2,242.5,2.5,34,143.38
921,D3,242.5,2.375,34,143.38
922,D5,243.0,3.0,57,143.38
923,D6,243.0,1.0,80,143.38
924,B-5,244.0,0.5,62,143.38
925,F#5,244.5,0.5,53,143.38
926,G5,245.0,0.5,60,143.38
927,A5,245.5,0.5,63,143.38
928,D3,245.5,2.875,32,143.38
929,C4,245.5,2.875,32,143.38
930,B-5,246.0,1.0,71,143.38
931,B-4,246.0,3.0,60,143.38
932,G5,247.0,0.5,57,143.38
933,E5,247.5,1.5,53,143.38
934,G2,248.375,0.125,38,143.38
935,D3,248.438,0.062,40,143.38
936,B3,248.5,2.812,43,143.38
937,G2,248.5,2.812,38,143.38
938,D3,248.5,2.812,40,143.38
939,D5,249.0,3.0,68,143.38
940,D6,249.5,0.5,70,143.38
941,B-5,250.0,0.5,62,143.38
942,F#5,250.5,0.5,53,143.38
943,G5,251.0,0.5,60,143.38
944,G3,251.312,0.188,38,143.38
945,D4,251.375,0.125,40,143.38
946,F4,251.438,0.062,44,143.38
947,A5,251.5,0.5,63,143.38
948,B-4,251.5,2.812,57,143.38
949,G3,251.5,2.812,38,143.38
950,D4,251.5,2.812,40,143.38
951,F4,251.5,2.812,44,143.38
952,B-4,252.0,3.0,59,143.38
953,A5,252.0,0.5,63,143.38
954,B-5,252.5,0.5,62,143.38
955,G5,253.0,0.5,57,143.38
956,C#5,253.5,0.5,56,143.38
957,D5,254.0,0.5,58,143.38
958,C3,254.312,0.188,40,143.38
959,G3,254.375,0.125,41,143.38
960,B-3,254.438,0.062,42,143.38
961,E5,254.5,0.5,63,143.38
962,E4,254.5,2.812,54,143.38
963,C3,254.5,2.812,40,143.38
964,G3,254.5,651/250,41,143.38
965,B-3,254.5,2.812,42,143.38
966,E5,255.0,0.5,63,143.38
967,F5,255.5,0.5,58,143.38
968,D5,256.0,0.5,53,143.38
969,F#4,256.5,0.5,47,143.38
970,G4,257.0,0.5,43,143.38
971,G3,257.312,0.188,38,143.38
972,D4,257.375,0.125,40,143.38
973,F4,257.438,0.062,44,143.38
974,A4,257.5,0.5,44,143.38
975,B-4,257.5,2.812,57,143.38
976,G3,257.5,2.812,38,143.38
977,D4,257.5,2.812,40,143.38
978,F4,257.5,2.812,44,143.38
979,B-4,258.0,0.5,46,143.38
980,C#5,258.5,0.5,42,143.38
981,D5,259.0,0.5,39,143.38
982,F#5,259.5,0.5,31,143.38
983,B-4,260.0,0.125,27,143.38
984,D5,260.0,0.125,27,143.38
985,G5,260.0,0.125,27,143.38
986,C3,260.312,0.188,40,143.38
987,G3,260.375,0.125,41,143.38
988,B-3,260.438,0.062,42,143.38
989,E4,260.5,2.812,57,143.38
990,C3,260.5,2.812,40,143.38
991,G3,260.5,651/250,41,143.38
992,B-3,260.5,2.812,42,143.38
993,D5,260.5,0.125,28,143.38
994,G5,260.5,0.125,28,143.38
995,B-5,260.5,0.125,28,143.38
996,D6,261.0,0.125,35,143.38
997,B-5,261.0,0.125,35,143.38
998,G5,261.0,0.125,35,143.38
999,B-2,263.312,0.188,40,143.38
1000,G3,263.375,0.125,43,143.38
1001,D4,263.438,0.062,46,143.38
1002,F4,263.5,3.0,48,143.38
1003,B-2,263.5,3.0,40,143.38
1004,G3,263.5,3.0,43,143.38
1005,D4,263.5,3.0,46,143.38
1006,B-3,264.0,3.0,37,143.38
1007,E4,264.0,3.0,37,143.38
1008,A4,264.0,3.0,37,143.38
1009,F4,266.5,1.0,48,143.38
1010,B-2,266.5,1.0,40,143.38
1011,G3,266.5,1.0,43,143.38
1012,D4,266.5,1.0,46,143.38
1013,A3,267.0,1.5,32,143.38
1014,F4,267.0,0.75,40,143.38
1015,E4,267.75,0.25,30,143.38
1016,F4,268.0,0.25,30,143.38
1017,G4,268.25,0.25,30,143.38
1018,B-3,268.5,1.5,34,143.38
1019,E4,268.5,1.5,34,143.38
1020,A4,268.5,1.5,34,143.38
1021,F4,270.0,0.75,40,143.38
1022,E4,270.75,0.25,30,143.38
1023,F4,271.0,0.25,30,143.38
1024,G4,271.25,0.25,30,143.38
1025,E4,271.5,1.5,34,143.38
1026,B-3,271.5,1.5,34,143.38
1027,A4,271.5,1.5,34,143.38
1028,C#3,272.5,2.5,44,143.38
1029,F4,273.0,0.5,26,143.38
1030,A3,273.0,0.5,26,143.38
1031,A4,274.5,0.5,24,143.38
1032,F5,274.5,0.5,24,143.38
1033,C3,275.0,0.5,32,143.38
1034,F2,275.5,1.5,24,143.38
1035,C3,275.5,1.5,24,143.38
1036,F6,276.0,2.5,26,143.38
1037,A5,276.0,2.5,26,143.38
1038,C#3,277.0,1.5,34,143.38
1039,C#4,277.0,1.5,34,143.38
1040,F2,278.5,1.5,27,143.38
1041,A3,278.5,1.5,27,143.38
1042,C3,278.5,1.5,27,143.38
1043,D4,279.0,2.5,34,143.38
1044,G4,279.0,0.75,42,143.38
1045,F#4,279.75,0.25,31,143.38
1046,G4,280.0,0.25,31,143.38
1047,C#3,280.0,1.5,34,143.38
1048,C#4,280.0,1.5,34,143.38
1049,A4,280.25,0.25,31,143.38
1050,B-4,280.5,1.5,36,143.38
1051,E4,281.5,0.5,36,143.38
1052,F2,281.5,0.5,24,143.38
1053,C3,281.5,0.5,24,143.38
1054,F4,282.0,2.5,34,143.38
1055,B-4,282.0,0.75,36,143.38
1056,A4,282.75,0.25,36,143.38
1057,B-4,283.0,0.25,38,143.38
1058,F3,283.0,0.5,24,143.38
1059,C4,283.0,0.5,24,143.38
1060,C5,283.25,0.25,40,143.38
1061,D5,283.5,1.5,44,143.38
1062,F#4,284.5,0.5,42,143.38
1063,F4,284.5,2.5,26,143.38
1064,C5,284.5,2.5,26,143.38
1065,D5,285.0,0.75,44,143.38
1066,G4,285.5,0.25,48,143.38
1067,C#5,285.75,0.25,42,143.38
1068,B-4,285.75,0.25,42,143.38
1069,G4,286.0,0.25,46,143.38
1070,B-4,286.25,0.25,42,143.38
1071,D5,286.25,0.25,42,143.38
1072,B-4,286.5,0.188,47,143.38
1073,D5,286.75,0.188,41,143.38
1074,F#5,286.75,0.188,41,143.38
1075,B-4,287.0,0.188,45,143.38
1076,G5,287.25,0.188,39,143.38
1077,D5,287.25,0.188,39,143.38
1078,D5,287.5,0.188,43,143.38
1079,C3,287.5,3.0,24,143.38
1080,B-3,287.5,2.5,28,143.38
1081,A5,287.75,0.188,37,143.38
1082,G5,287.75,0.188,37,143.38
1083,D5,288.0,0.188,43,143.38
1084,B-5,288.25,0.188,36,143.38
1085,G5,288.25,0.188,36,143.38
1086,G5,288.5,0.188,41,143.38
1087,C#6,288.75,0.188,34,143.38
1088,B-5,288.75,0.188,34,143.38
1089,G5,289.0,0.188,38,143.38
1090,D6,289.25,0.188,33,143.38
1091,B-5,289.25,0.188,33,143.38
1092,G6,289.5,0.25,48,143.38
1093,C4,290.0,0.5,34,143.38
1094,D4,290.5,2.5,37,143.38
1095,C3,290.5,3.0,24,143.38
1096,G4,291.0,2.5,37,143.38
1097,C5,291.0,0.75,46,143.38
1098,B4,291.75,0.25,34,143.38
1099,C5,292.0,0.25,35,143.38
1100,D5,292.25,0.25,35,143.38
1101,E-5,292.5,1.5,41,143.38
1102,E-4,293.0,0.375,37,143.38
1103,C3,293.375,0.125,37,143.38
1104,B-3,293.438,0.062,41,143.38
1105,A4,293.5,0.5,42,143.38
1106,E4,293.5,0.5,47,143.38
1107,C3,293.5,0.5,37,143.38
1108,B-3,293.5,0.5,41,143.38
1109,B-4,294.0,2.5,41,143.38
1110,E-5,294.0,0.75,41,143.38
1111,D5,294.75,0.25,44,143.38
1112,E-5,295.0,0.25,47,143.38
1113,F5,295.25,0.25,50,143.38
1114,G5,295.5,1.5,55,143.38
1115,B4,296.5,0.5,42,143.38
1116,G5,297.0,0.75,55,143.38
1117,C5,297.5,0.25,48,143.38
1118,F#5,297.75,0.25,42,143.38
1119,E-5,297.75,0.25,42,143.38
1120,C5,298.0,0.25,46,143.38
1121,E-5,298.25,0.25,42,143.38
1122,G5,298.25,0.25,42,143.38
1123,E-5,298.5,0.188,47,143.38
1124,G5,298.75,0.188,41,143.38
1125,B5,298.75,0.188,41,143.38
1126,E-5,299.0,0.188,45,143.38
1127,C6,299.25,0.188,39,143.38
1128,G5,299.25,0.188,39,143.38
1129,G5,299.5,0.188,43,143.38
1130,F3,299.5,3.0,26,143.38
1131,E-4,299.5,2.5,30,143.38
1132,D6,299.75,0.188,37,143.38
1133,C6,299.75,0.188,37,143.38
1134,G5,300.0,0.188,43,143.38
1135,E-6,300.25,0.188,36,143.38
1136,C6,300.25,0.188,36,143.38
1137,C6,300.5,0.188,41,143.38
1138,F#6,300.75,0.188,34,143.38
1139,E-6,300.75,0.188,34,143.38
1140,C6,301.0,0.188,38,143.38
1141,G6,301.25,0.188,33,143.38
1142,E-6,301.25,0.188,33,143.38
1143,C7,301.5,0.25,48,143.38
1144,F4,302.0,0.5,40,143.38
1145,G4,302.5,2.5,44,143.38
1146,F3,302.5,3.0,26,143.38
1147,B-5,303.25,0.25,31,143.38
1148,D6,303.25,0.25,31,143.38
1149,E6,303.5,0.25,35,143.38
1150,B-5,303.75,0.25,30,143.38
1151,D6,303.75,0.25,30,143.38
1152,F6,304.0,0.25,35,143.38
1153,D6,304.25,0.25,31,143.38
1154,B-5,304.25,0.25,31,143.38
1155,D6,304.75,0.25,30,143.38
1156,B-5,304.75,0.25,30,143.38
1157,E6,305.0,0.25,35,143.38
1158,G#4,305.0,0.375,37,143.38
1159,D6,305.25,0.25,32,143.38
1160,B-5,305.25,0.25,32,143.38
1161,F3,305.375,0.125,37,143.38
1162,E-4,305.438,0.062,41,143.38
1163,F6,305.5,0.25,35,143.38
1164,A4,305.5,0.5,47,143.38
1165,F3,305.5,0.5,37,143.38
1166,E-4,305.5,0.5,41,143.38
1167,B-5,305.75,0.25,31,143.38
1168,D6,305.75,0.25,31,143.38
1169,B-5,306.25,0.25,34,143.38
1170,D6,306.25,0.25,34,143.38
1171,E6,306.5,0.25,39,143.38
1172,B-5,306.75,0.25,34,143.38
1173,D6,306.75,0.25,34,143.38
1174,F6,307.0,0.25,41,143.38
1175,D6,307.25,0.25,37,143.38
1176,B-5,307.25,0.25,37,143.38
1177,D6,307.75,0.25,37,143.38
1178,B-5,307.75,0.25,37,143.38
1179,E6,308.0,0.25,45,143.38
1180,D6,308.25,0.25,41,143.38
1181,B-5,308.25,0.25,41,143.38
1182,F6,308.5,0.25,46,143.38
1183,B-5,308.75,0.25,42,143.38
1184,D6,308.75,0.25,42,143.38
1185,B5,309.25,0.25,42,143.38
1186,D6,309.25,0.25,42,143.38
1187,E6,309.5,0.25,47,143.38
1188,B5,309.75,0.25,39,143.38
1189,D6,309.75,0.25,39,143.38
1190,F6,310.0,0.25,45,143.38
1191,D6,310.25,0.25,39,143.38
1192,B5,310.25,0.25,39,143.38
1193,D6,310.75,0.25,36,143.38
1194,B5,310.75,0.25,36,143.38
1195,E6,311.0,0.25,42,143.38
1196,D6,311.25,0.25,37,143.38
1197,B5,311.25,0.25,37,143.38
1198,F6,311.5,0.25,40,143.38
1199,B-2,311.5,1.0,58,143.38
1200,B5,311.75,0.25,35,143.38
1201,D6,311.75,0.25,35,143.38
1202,B5,312.25,0.25,31,143.38
1203,D6,312.25,0.25,31,143.38
1204,E6,312.5,0.25,35,143.38
1205,F3,312.5,0.5,52,143.38
1206,B5,312.75,0.25,30,143.38
1207,D6,312.75,0.25,30,143.38
1208,F6,313.0,0.25,35,143.38
1209,B-3,313.0,1.0,58,143.38
1210,D6,313.25,0.25,31,143.38
1211,B5,313.25,0.25,31,143.38
1212,D6,313.75,0.25,30,143.38
1213,B5,313.75,0.25,30,143.38
1214,E6,314.0,0.25,35,143.38
1215,C4,314.0,0.5,53,143.38
1216,D6,314.25,0.25,32,143.38
1217,B5,314.25,0.25,32,143.38
1218,F6,314.5,0.25,35,143.38
1219,D4,314.5,1.0,63,143.38
1220,B5,314.75,0.25,31,143.38
1221,D6,314.75,0.25,31,143.38
1222,B-5,315.25,0.25,31,143.38
1223,C#6,315.25,0.25,31,143.38
1224,E6,315.5,0.25,35,143.38
1225,F4,315.5,0.5,68,143.38
1226,B-5,315.75,0.25,30,143.38
1227,C#6,315.75,0.25,30,143.38
1228,F6,316.0,0.25,35,143.38
1229,B-4,316.0,1.0,73,143.38
1230,C#6,316.25,0.25,31,143.38
1231,B-5,316.25,0.25,31,143.38
1232,C#6,316.75,0.25,30,143.38
1233,B-5,316.75,0.25,30,143.38
1234,E6,317.0,0.25,36,143.38
1235,A4,317.0,0.312,58,143.38
1236,C#6,317.25,0.25,32,143.38
1237,B-5,317.25,0.25,32,143.38
1238,E3,317.312,0.188,41,143.38
1239,B3,317.375,0.125,47,143.38
1240,D4,317.438,0.062,53,143.38
1241,F6,317.5,0.25,36,143.38
1242,A4,317.5,3.0,81,143.38
1243,E3,317.5,3.0,41,143.38
1244,B3,317.5,3.0,47,143.38
1245,D4,317.5,3.0,53,143.38
1246,B-5,317.75,0.25,32,143.38
1247,C#6,317.75,0.25,32,143.38
1248,B-5,318.25,0.25,35,143.38
1249,C#6,318.25,0.25,35,143.38
1250,E6,318.5,0.25,40,143.38
1251,B-5,318.75,0.25,36,143.38
1252,C#6,318.75,0.25,36,143.38
1253,F6,319.0,0.25,44,143.38
1254,C#6,319.25,0.25,40,143.38
1255,B-5,319.25,0.25,40,143.38
1256,C#6,319.75,0.25,40,143.38
1257,B-5,319.75,0.25,40,143.38
1258,E6,320.0,0.25,50,143.38
1259,C#6,320.25,0.25,46,143.38
1260,B-5,320.25,0.25,46,143.38
1261,F6,320.5,0.25,53,143.38
1262,G#4,320.5,1.0,52,143.38
1263,E3,320.5,1.0,41,143.38
1264,B3,320.5,1.0,47,143.38
1265,D4,320.5,1.0,53,143.38
1266,B-5,320.75,0.25,49,143.38
1267,C#6,320.75,0.25,49,143.38
1268,B-5,321.25,0.25,46,143.38
1269,C#6,321.25,0.25,46,143.38
1270,E6,321.5,0.25,52,143.38
1271,B-5,321.75,0.25,43,143.38
1272,C#6,321.75,0.25,43,143.38
1273,F6,322.0,0.25,50,143.38
1274,C#6,322.25,0.25,44,143.38
1275,B-5,322.25,0.25,44,143.38
1276,B-5,322.75,0.25,43,143.38
1277,C#6,322.75,0.25,43,143.38
1278,E6,323.0,0.25,53,143.38
1279,B-5,323.25,0.25,46,143.38
1280,C#6,323.25,0.25,46,143.38
1281,F6,323.5,0.25,53,143.38
1282,B-2,323.5,1.0,58,143.38
1283,C#6,323.75,0.25,46,143.38
1284,B-5,323.75,0.25,46,143.38
1285,B-5,324.25,0.25,43,143.38
1286,C#6,324.25,0.25,43,143.38
1287,E6,324.5,0.25,53,143.38
1288,F3,324.5,0.5,52,143.38
1289,B-5,324.75,0.25,45,143.38
1290,C#6,324.75,0.25,45,143.38
1291,F6,325.0,0.25,53,143.38
1292,B-3,325.0,1.0,58,143.38
1293,C#6,325.25,0.25,44,143.38
1294,B-5,325.25,0.25,44,143.38
1295,C#6,325.75,0.25,45,143.38
1296,B-5,325.75,0.25,45,143.38
1297,F6,326.0,0.25,49,143.38
1298,C4,326.0,0.5,53,143.38
1299,B-5,326.25,0.25,43,143.38
1300,C#6,326.25,0.25,43,143.38
1301,F#6,326.5,0.25,49,143.38
1302,C#4,326.5,1.0,63,143.38
1303,C#6,326.75,0.25,42,143.38
1304,B-5,326.75,0.25,42,143.38
1305,C#6,327.25,0.25,56,143.38
1306,B-5,327.25,0.25,56,143.38
1307,F#6,327.5,0.25,63,143.38
1308,F4,327.5,0.5,70,143.38
1309,B-5,327.75,0.25,53,143.38
1310,C#6,327.75,0.25,53,143.38
1311,G6,328.0,0.25,62,143.38
1312,B-4,328.0,1.0,77,143.38
1313,C#6,328.25,0.25,52,143.38
1314,B-5,328.25,0.25,52,143.38
1315,C#6,328.75,0.25,56,143.38
1316,B-5,328.75,0.25,56,143.38
1317,F#6,329.0,0.25,61,143.38
1318,G#4,329.0,0.312,62,143.38
1319,B-5,329.25,0.25,53,143.38
1320,C#6,329.25,0.25,53,143.38
1321,E-3,329.312,0.188,43,143.38
1322,B-3,329.375,0.125,51,143.38
1323,C#4,329.438,0.062,57,143.38
1324,G6,329.5,0.25,61,143.38
1325,G#4,329.5,3.0,81,143.38
1326,E-3,329.5,3.0,43,143.38
1327,B-3,329.5,3.0,51,143.38
1328,C#4,329.5,3.0,57,143.38
1329,C#6,329.75,0.25,52,143.38
1330,B-5,329.75,0.25,52,143.38
1331,C#6,330.25,0.25,51,143.38
1332,B-5,330.25,0.25,51,143.38
1333,F#6,330.5,0.25,58,143.38
1334,B-5,330.75,0.25,49,143.38
1335,C#6,330.75,0.25,49,143.38
1336,G6,331.0,0.25,57,143.38
1337,C#6,331.25,0.25,48,143.38
1338,B-5,331.25,0.25,48,143.38
1339,B-5,331.75,0.25,51,143.38
1340,G5,331.75,0.25,51,143.38
1341,E-6,332.0,0.25,56,143.38
1342,G5,332.25,0.25,49,143.38
1343,B-5,332.25,0.25,49,143.38
1344,E6,332.5,0.25,56,143.38
1345,G4,332.5,1.0,62,143.38
1346,E-3,332.5,1.0,43,143.38
1347,B-3,332.5,1.0,51,143.38
1348,C#4,332.5,1.0,57,143.38
1349,B-5,332.75,0.25,48,143.38
1350,G5,332.75,0.25,48,143.38
1351,G5,333.25,0.25,45,143.38
1352,E5,333.25,0.25,45,143.38
1353,C6,333.5,0.25,50,143.38
1354,E5,333.75,0.25,42,143.38
1355,G5,333.75,0.25,42,143.38
1356,C#3,333.875,0.125,60,143.38
1357,C#6,334.0,0.25,48,143.38
1358,F#4,334.0,1.0,80,143.38
1359,G5,334.25,0.25,39,143.38
1360,E5,334.25,0.25,39,143.38
1361,E5,334.75,0.25,41,143.38
1362,C#5,334.75,0.25,41,143.38
1363,A5,335.0,0.25,44,143.38
1364,F4,335.0,0.5,76,143.38
1365,C#5,335.25,0.25,38,143.38
1366,E5,335.25,0.25,38,143.38
1367,C3,335.375,0.125,77,143.38
1368,C2,335.375,0.125,77,143.38
1369,B-5,335.5,0.25,43,143.38
1370,F4,335.5,3.0,69,143.38
1371,G3,335.5,3.0,64,143.38
1372,B-3,335.5,3.0,64,143.38
1373,C3,335.5,11.5,77,143.38
1374,C2,335.5,11.5,77,143.38
1375,E5,335.75,0.25,36,143.38
1376,C#5,335.75,0.25,36,143.38
1377,C#5,336.25,0.25,38,143.38
1378,B-4,336.25,0.25,38,143.38
1379,F#5,336.5,0.25,42,143.38
1380,B-4,336.75,0.25,35,143.38
1381,C#5,336.75,0.25,35,143.38
1382,G5,337.0,0.25,40,143.38
1383,C#5,337.25,0.25,33,143.38
1384,B-4,337.25,0.25,33,143.38
1385,B-4,337.75,0.25,34,143.38
1386,G4,337.75,0.25,34,143.38
1387,E-5,338.0,0.25,37,143.38
1388,G4,338.25,0.25,31,143.38
1389,B-4,338.25,0.25,31,143.38
1390,E5,338.5,0.25,35,143.38
1391,B-4,338.75,0.25,30,143.38
1392,G4,338.75,0.25,30,143.38
1393,G4,342.25,0.25,29,143.38
1394,B-4,342.25,0.25,29,143.38
1395,C5,342.5,0.25,35,143.38
1396,G4,342.75,0.25,30,143.38
1397,B-4,342.75,0.25,30,143.38
1398,C#5,343.0,0.25,35,143.38
1399,G4,343.25,0.25,31,143.38
1400,B-4,343.25,0.25,31,143.38
1401,G4,343.75,0.25,29,143.38
1402,B-4,343.75,0.25,29,143.38
1403,C5,344.0,0.25,35,143.38
1404,G4,344.25,0.25,31,143.38
1405,B-4,344.25,0.25,31,143.38
1406,C#5,344.5,0.25,35,143.38
1407,G4,344.75,0.25,30,143.38
1408,B-4,344.75,0.25,30,143.38
1409,F#5,345.0,3.0,47,143.38
1410,E4,347.0,3.0,66,143.38
1411,G3,347.0,3.0,64,143.38
1412,B-3,347.0,3.0,64,143.38
1413,E4,348.25,0.25,29,143.38
1414,B-4,348.25,0.25,29,143.38
1415,C#5,348.5,0.25,37,143.38
1416,E4,348.75,0.25,32,143.38
1417,B-4,348.75,0.25,32,143.38
1418,D5,349.0,0.25,38,143.38
1419,E4,349.25,0.25,35,143.38
1420,B-4,349.25,0.25,35,143.38
1421,E4,349.75,0.25,34,143.38
1422,B-4,349.75,0.25,34,143.38
1423,C#5,350.0,0.25,42,143.38
1424,E4,350.0,3.0,66,143.38
1425,G3,350.0,3.0,64,143.38
1426,B-3,350.0,3.0,64,143.38
1427,E4,350.25,0.25,37,143.38
1428,B-4,350.25,0.25,37,143.38
1429,D5,350.5,0.25,43,143.38
1430,E4,350.75,0.25,38,143.38
1431,B-4,350.75,0.25,38,143.38
1432,G5,351.0,3.0,62,143.38
1433,E4,353.0,2.5,66,143.38
1434,G3,353.0,2.5,64,143.38
1435,B-3,353.0,2.5,64,143.38
1436,G5,354.0,1.0,62,143.38
1437,A4,355.0,0.5,43,143.38
1438,B-4,355.5,1.0,50,143.38
1439,C5,356.5,0.5,43,143.38
1440,C#5,357.0,1.0,52,143.38
1441,D5,358.0,0.5,43,143.38
1442,F#4,358.5,1.0,51,143.38
1443,C#3,358.875,0.125,29,143.38
1444,B-3,359.0,0.5,37,143.38
1445,C#3,359.0,0.5,29,143.38
1446,G4,359.5,0.5,37,143.38
1447,A4,360.0,1.0,48,143.38
1448,C#2,360.5,0.5,29,143.38
1449,B-4,361.0,0.5,39,143.38
1450,C#4,361.5,1.0,35,143.38
1451,D4,362.5,0.5,26,143.38
1452,E4,363.0,1.0,39,143.38
1453,F4,364.0,0.375,25,143.38
1454,G4,364.5,1.0,34,143.38
1455,C3,364.875,0.125,29,143.38
1456,B-3,365.0,0.5,37,143.38
1457,C3,365.0,0.5,29,143.38
1458,G#4,365.5,0.5,27,143.38
1459,A3,366.0,1.5,30,143.38
1460,A4,366.0,0.75,37,143.38
1461,C2,366.5,0.5,33,143.38
1462,G4,366.75,0.25,27,143.38
1463,F4,367.0,0.25,27,143.38
1464,G4,367.25,0.25,27,143.38
1465,B-3,367.5,1.5,27,143.38
1466,A4,367.5,1.0,32,143.38
1467,F4,368.5,0.5,32,143.38
1468,C4,369.0,1.5,30,143.38
1469,A4,369.0,0.75,37,143.38
1470,G4,369.75,0.25,28,143.38
1471,F4,370.0,0.25,28,143.38
1472,G4,370.25,0.25,28,143.38
1473,B-3,370.5,1.375,30,143.38
1474,A4,370.5,1.375,30,143.38
1475,F4,372.0,1.5,36,143.38
1476,C5,372.0,0.75,45,143.38
1477,D5,372.75,0.25,38,143.38
1478,E5,373.0,0.25,42,143.38
1479,D5,373.25,0.25,38,143.38
1480,C5,373.5,1.0,42,143.38
1481,F4,373.5,1.0,42,143.38
1482,E4,374.5,0.5,42,143.38
1483,G#4,374.5,0.5,42,143.38
1484,C5,375.0,1.5,48,143.38
1485,F4,375.0,2.5,40,143.38
1486,F5,376.5,1.0,48,143.38
1487,C4,378.0,1.5,40,143.38
1488,C5,378.0,0.75,50,143.38
1489,B4,378.75,0.25,37,143.38
1490,A4,379.0,0.25,37,143.38
1491,B4,379.25,0.25,37,143.38
1492,D4,379.5,1.5,36,143.38
1493,C5,379.5,1.0,43,143.38
1494,A4,380.5,0.5,43,143.38
1495,E4,381.0,1.5,40,143.38
1496,C5,381.0,0.75,50,143.38
1497,C2,381.375,1.625,24,143.38
1498,E3,381.5,1.0,31,143.38
1499,B4,381.75,0.25,38,143.38
1500,A4,382.0,0.25,38,143.38
1501,B4,382.25,0.25,38,143.38
1502,D3,382.5,0.5,27,143.38
1503,D4,382.5,1.375,40,143.38
1504,C5,382.5,1.375,40,143.38
1505,F2,383.0,3.0,21,143.38
1506,C3,383.0,1.5,25,143.38
1507,A4,384.0,1.5,40,143.38
1508,E5,384.0,0.75,50,143.38
1509,D3,384.5,1.5,21,143.38
1510,F5,384.75,0.25,42,143.38
1511,G5,385.0,0.25,46,143.38
1512,F5,385.25,0.25,42,143.38
1513,E5,385.5,1.0,46,143.38
1514,A4,385.5,1.0,46,143.38
1515,E3,386.0,1.5,25,143.38
1516,F2,386.0,3.0,21,143.38
1517,G#4,386.5,0.5,45,143.38
1518,C5,386.5,0.5,45,143.38
1519,E5,387.0,1.5,51,143.38
1520,A4,387.0,2.0,42,143.38
1521,D3,387.5,1.375,21,143.38
1522,A5,388.5,1.5,53,143.38
1523,F2,388.875,0.125,25,143.38
1524,C3,388.938,0.062,29,143.38
1525,G#4,389.0,0.5,57,143.38
1526,A3,389.0,1.5,30,143.38
1527,F2,389.0,3.0,25,143.38
1528,C3,389.0,2.938,29,143.38
1529,G4,389.5,0.5,61,143.38
1530,F#4,390.0,3.0,70,143.38
1531,A5,390.0,1.0,53,143.38
1532,B-3,390.5,1.5,30,143.38
1533,F#5,391.0,0.5,53,143.38
1534,D5,391.5,0.5,53,143.38
1535,F2,391.875,0.125,23,143.38
1536,C3,391.938,0.062,27,143.38
1537,E-5,392.0,0.5,53,143.38
1538,A3,392.0,1.5,32,143.38
1539,F2,392.0,2.5,23,143.38
1540,C3,392.0,2.438,27,143.38
1541,E5,392.5,0.5,53,143.38
1542,F4,393.0,2.5,44,143.38
1543,F5,393.0,1.0,53,143.38
1544,D5,394.0,0.5,50,143.38
1545,B4,394.5,1.0,47,143.38
1546,A2,395.0,3.0,29,143.38
1547,E3,395.0,1.5,34,143.38
1548,F#4,396.0,3.0,64,143.38
1549,A5,396.5,0.5,53,143.38
1550,F3,396.5,1.5,29,143.38
1551,F#5,397.0,0.5,47,143.38
1552,D5,397.5,0.5,49,143.38
1553,E-5,398.0,0.5,53,143.38
1554,G3,398.0,1.5,34,143.38
1555,A2,398.0,3.0,29,143.38
1556,E5,398.5,0.5,54,143.38
1557,F4,399.0,2.812,44,143.38
1558,E5,399.0,0.5,54,143.38
1559,F5,399.5,0.5,62,143.38
1560,F3,399.5,1.375,29,143.38
1561,D5,400.0,0.5,53,143.38
1562,B4,400.5,1.312,56,143.38
1563,A2,400.875,0.125,25,143.38
1564,E3,400.938,0.062,29,143.38
1565,C4,401.0,1.5,34,143.38
1566,A2,401.0,3.0,25,143.38
1567,E3,401.0,2.938,29,143.38
1568,D5,402.0,3.0,57,143.38
1569,D6,402.0,1.0,80,143.38
1570,D4,402.5,1.5,33,143.38
1571,B-5,403.0,0.5,62,143.38
1572,F#5,403.5,0.5,53,143.38
1573,A2,403.875,0.125,25,143.38
1574,E3,403.938,0.062,29,143.38
1575,G5,404.0,0.5,60,143.38
1576,C4,404.0,3.0,34,143.38
1577,A2,404.0,3.0,25,143.38
1578,E3,404.0,2.938,29,143.38
1579,A5,404.5,0.5,63,143.38
1580,B-5,405.0,1.0,71,143.38
1581,B-4,405.0,3.0,60,143.38
1582,G5,406.0,0.5,55,143.38
1583,E5,406.5,1.5,50,143.38
1584,D3,407.0,2.875,32,143.38
1585,C4,407.0,2.875,32,143.38
1586,D5,408.0,3.0,68,143.38
1587,D6,408.5,0.5,70,143.38
1588,B-5,409.0,0.5,62,143.38
1589,F#5,409.5,0.5,53,143.38
1590,G2,409.875,0.125,34,143.38
1591,D3,409.938,0.062,34,143.38
1592,G5,410.0,0.5,60,143.38
1593,B3,410.0,2.5,34,143.38
1594,G2,410.0,2.5,34,143.38
1595,D3,410.0,2.375,34,143.38
1596,A5,410.5,0.5,63,143.38
1597,B-4,411.0,3.0,59,143.38
1598,A5,411.0,0.5,63,143.38
1599,B-5,411.5,0.5,62,143.38
1600,G5,412.0,0.5,57,143.38
1601,C#5,412.5,0.5,56,143.38
1602,D5,413.0,0.5,58,143.38
1603,D3,413.0,2.875,32,143.38
1604,C4,413.0,2.875,32,143.38
1605,E5,413.5,0.5,63,143.38
1606,E5,414.0,0.5,63,143.38
1607,F5,414.5,0.5,58,143.38
1608,D5,415.0,0.5,53,143.38
1609,F#4,415.5,0.5,47,143.38
1610,G2,415.875,0.125,38,143.38
1611,D3,415.938,0.062,40,143.38
1612,G4,416.0,0.5,43,143.38
1613,B3,416.0,2.812,43,143.38
1614,G2,416.0,2.812,38,143.38
1615,D3,416.0,2.812,40,143.38
1616,A4,416.5,0.5,44,143.38
1617,B-4,417.0,0.5,46,143.38
1618,C#5,417.5,0.5,42,143.38
1619,D5,418.0,0.5,39,143.38
1620,F#5,418.5,0.5,31,143.38
1621,G3,418.812,0.188,38,143.38
1622,D4,418.875,0.125,40,143.38
1623,F4,418.938,0.062,44,143.38
1624,B-4,419.0,2.812,57,143.38
1625,G3,419.0,2.812,38,143.38
1626,D4,419.0,2.812,40,143.38
1627,F4,419.0,2.812,44,143.38
1628,B-4,419.0,0.125,27,143.38
1629,D5,419.0,0.125,27,143.38
1630,G5,419.0,0.125,27,143.38
1631,D5,419.5,0.125,28,143.38
1632,G5,419.5,0.125,28,143.38
1633,B-5,419.5,0.125,28,143.38
1634,D6,420.0,0.125,35,143.38
1635,B-5,420.0,0.125,35,143.38
1636,G5,420.0,0.125,35,143.38
1637,C3,421.812,0.188,40,143.38
1638,G3,421.875,0.125,41,143.38
1639,B-3,421.938,0.062,42,143.38
1640,E4,422.0,2.812,57,143.38
1641,C3,422.0,2.812,40,143.38
1642,G3,422.0,651/250,41,143.38
1643,B-3,422.0,2.812,42,143.38
1644,B-3,423.0,3.0,37,143.38
1645,E4,423.0,3.0,37,143.38
1646,A4,423.0,3.0,37,143.38
1647,G3,424.812,0.188,38,143.38
1648,D4,424.875,0.125,40,143.38
1649,F4,424.938,0.062,44,143.38
1650,B-4,425.0,2.812,57,143.38
1651,G3,425.0,2.812,38,143.38
1652,D4,425.0,2.812,40,143.38
1653,F4,425.0,2.812,44,143.38
1654,A3,426.0,1.5,32,143.38
1655,F4,426.0,0.75,40,143.38
1656,E4,426.75,0.25,30,143.38
1657,F4,427.0,0.25,30,143.38
1658,G4,427.25,0.25,30,143.38
1659,B-3,427.5,1.5,34,143.38
1660,E4,427.5,1.5,34,143.38
1661,A4,427.5,1.5,34,143.38
1662,C3,427.812,0.188,40,143.38
1663,G3,427.875,0.125,41,143.38
1664,B-3,427.938,0.062,42,143.38
1665,E4,428.0,2.812,57,143.38
1666,C3,428.0,2.812,40,143.38
1667,G3,428.0,651/250,41,143.38
1668,B-3,428.0,2.812,42,143.38
1669,F4,429.0,0.75,40,143.38
1670,E4,429.75,0.25,30,143.38
1671,F4,430.0,0.25,30,143.38
1672,G4,430.25,0.25,30,143.38
1673,E4,430.5,1.5,34,143.38
1674,B-3,430.5,1.5,34,143.38
1675,A4,430.5,1.5,34,143.38
1676,B-2,430.812,0.188,40,143.38
1677,G3,430.875,0.125,43,143.38
1678,D4,430.938,0.062,46,143.38
1679,F4,431.0,3.0,48,143.38
1680,B-2,431.0,3.0,40,143.38
1681,G3,431.0,3.0,43,143.38
1682,D4,431.0,3.0,46,143.38
1683,A3,432.0,0.5,26,143.38
1684,F4,432.0,0.5,26,143.38
1685,A4,433.5,0.5,22,143.38
1686,F5,433.5,0.5,22,143.38
1687,F4,434.0,1.0,48,143.38
1688,B-2,434.0,1.0,40,143.38
1689,G3,434.0,1.0,43,143.38
1690,D4,434.0,1.0,46,143.38
1691,F6,435.0,2.5,22,143.38
1692,A5,435.0,2.5,22,143.38
1693,C#3,440.0,2.5,44,143.38
1694,C3,442.5,0.5,32,143.38
1695,F2,443.0,1.5,24,143.38
1696,C3,443.0,1.5,24,143.38
1697,C#3,444.5,1.5,34,143.38
1698,C#4,444.5,1.5,34,143.38
1699,F2,446.0,1.5,27,143.38
1700,A3,446.0,1.5,27,143.38
1701,C3,446.0,1.5,27,143.38
1702,C#3,447.5,1.5,34,143.38
1703,C#4,447.5,1.5,34,143.38
1704,F2,449.0,0.5,24,143.38
1705,C3,449.0,0.5,24,143.38
1706,F3,450.5,0.5,21,143.38
1707,C4,450.5,0.5,21,143.38
1708,F4,452.0,2.5,22,143.38
1709,C5,452.0,2.5,22,143.38
