,note_name,start_time,duration,velocity,tempo
0,D2,0.002,0.25,32,162.0
1,A2,0.5,0.25,31,162.0
2,D2,1.0,0.25,32,162.0
3,A2,1.5,0.25,31,162.0
4,D2,2.0,0.25,32,162.0
5,A2,2.5,0.25,31,162.0
6,D2,3.0,0.25,32,162.0
7,D4,3.5,0.125,36,162.0
8,A2,3.5,0.25,31,162.0
9,E4,3.625,0.125,36,162.0
10,F4,3.75,0.125,36,162.0
11,G4,3.875,0.125,36,162.0
12,A4,4.0,0.25,38,162.0
13,D2,4.0,0.25,32,162.0
14,A2,4.5,0.25,31,162.0
15,D5,4.5,0.25,34,162.0
16,D4,4.5,0.25,34,162.0
17,F4,4.5,0.25,34,162.0
18,D2,5.0,0.25,32,162.0
19,D4,5.0,0.25,34,162.0
20,D5,5.0,0.25,34,162.0
21,F4,5.0,0.25,34,162.0
22,A2,5.5,0.25,31,162.0
23,C#5,5.5,0.25,34,162.0
24,D4,5.5,0.25,34,162.0
25,F4,5.5,0.25,34,162.0
26,D2,6.0,0.25,32,162.0
27,C#5,6.0,0.25,36,162.0
28,D4,6.0,0.25,36,162.0
29,F4,6.0,0.25,36,162.0
30,A2,6.5,0.25,31,162.0
31,F4,6.5,0.25,34,162.0
32,D4,6.5,0.25,34,162.0
33,C5,6.5,0.25,34,162.0
34,D2,7.0,0.25,32,162.0
35,C5,7.0,0.25,34,162.0
36,D4,7.0,0.25,34,162.0
37,F4,7.0,0.25,34,162.0
38,A2,7.5,0.25,31,162.0
39,D4,7.5,0.25,34,162.0
40,B4,7.5,0.25,34,162.0
41,F4,7.5,0.25,34,162.0
42,D2,8.0,0.25,32,162.0
43,B4,8.0,0.25,36,162.0
44,D4,8.0,0.25,36,162.0
45,F4,8.0,0.25,36,162.0
46,A2,8.5,0.25,29,162.0
47,B-4,8.5,0.25,33,162.0
48,D4,8.5,0.25,33,162.0
49,F4,8.5,0.25,33,162.0
50,D2,9.0,0.25,32,162.0
51,F4,9.0,0.25,33,162.0
52,D4,9.0,0.25,33,162.0
53,B-4,9.0,0.25,33,162.0
54,A2,9.5,0.25,29,162.0
55,A4,9.5,0.25,32,162.0
56,D4,9.5,0.25,32,162.0
57,F4,9.5,0.25,32,162.0
58,D2,10.0,0.25,32,162.0
59,B3,10.0,0.25,43,162.0
60,G#4,10.0,0.25,43,162.0
61,E4,10.0,0.25,43,162.0
62,A2,10.5,0.25,31,162.0
63,E4,10.5,1.0,43,162.0
64,G#4,10.5,1.0,43,162.0
65,B3,10.5,1.0,43,162.0
66,D2,11.0,0.25,32,162.0
67,G4,11.5,0.125,36,162.0
68,A2,11.5,0.25,31,162.0
69,A4,11.625,0.125,36,162.0
70,B-4,11.75,0.125,36,162.0
71,C5,11.875,0.125,36,162.0
72,D5,12.0,0.25,38,162.0
73,D2,12.0,0.25,32,162.0
74,A2,12.5,0.25,31,162.0
75,G4,12.5,0.25,34,162.0
76,B-4,12.5,0.25,34,162.0
77,G5,12.5,0.25,34,162.0
78,D2,13.0,0.25,32,162.0
79,B-4,13.0,0.25,34,162.0
80,G5,13.0,0.25,34,162.0
81,G4,13.0,0.25,34,162.0
82,A2,13.5,0.25,31,162.0
83,F#5,13.5,0.25,34,162.0
84,G4,13.5,0.25,34,162.0
85,B-4,13.5,0.25,34,162.0
86,D2,14.0,0.25,32,162.0
87,B-4,14.0,0.25,36,162.0
88,F#5,14.0,0.25,36,162.0
89,G4,14.0,0.25,36,162.0
90,A2,14.5,0.25,31,162.0
91,F5,14.5,0.25,34,162.0
92,B-4,14.5,0.25,34,162.0
93,G4,14.5,0.25,34,162.0
94,D2,15.0,0.25,32,162.0
95,B-4,15.0,0.25,34,162.0
96,F5,15.0,0.25,34,162.0
97,G4,15.0,0.25,34,162.0
98,A2,15.5,0.25,31,162.0
99,B-4,15.5,0.25,34,162.0
100,G4,15.5,0.25,34,162.0
101,E5,15.5,0.25,34,162.0
102,D2,16.0,0.25,32,162.0
103,E5,16.0,0.25,36,162.0
104,B-4,16.0,0.25,36,162.0
105,G4,16.0,0.25,36,162.0
106,A2,16.5,0.25,29,162.0
107,E-5,16.5,0.25,32,162.0
108,G4,16.5,0.25,32,162.0
109,B-4,16.5,0.25,32,162.0
110,D2,17.0,0.25,32,162.0
111,E-5,17.0,0.25,32,162.0
112,G4,17.0,0.25,32,162.0
113,B-4,17.0,0.25,32,162.0
114,A2,17.5,0.25,29,162.0
115,D5,17.5,0.25,32,162.0
116,G4,17.5,0.25,32,162.0
117,B-4,17.5,0.25,32,162.0
118,D2,18.0,0.25,32,162.0
119,E4,18.0,0.25,44,162.0
120,C#5,18.0,0.25,44,162.0
121,A4,18.0,0.25,44,162.0
122,A2,18.5,0.25,31,162.0
123,E4,18.5,1.0,44,162.0
124,C#5,18.5,1.0,44,162.0
125,A4,18.5,1.0,44,162.0
126,D2,19.0,0.25,32,162.0
127,A2,19.5,0.25,31,162.0
128,D5,20.0,0.125,46,162.0
129,E5,20.125,0.125,35,162.0
130,F5,20.25,0.125,35,162.0
131,G5,20.375,0.125,35,162.0
132,A5,20.5,0.25,40,162.0
133,B-3,20.5,0.25,32,162.0
134,F4,20.5,0.25,32,162.0
135,G5,21.0,0.125,46,162.0
136,F5,21.125,0.125,36,162.0
137,E5,21.25,0.125,36,162.0
138,D5,21.375,0.125,36,162.0
139,C5,21.5,0.25,40,162.0
140,F3,21.5,0.25,32,162.0
141,C4,21.5,0.25,32,162.0
142,B-4,22.0,0.125,45,162.0
143,C5,22.125,0.125,36,162.0
144,D5,22.25,0.125,36,162.0
145,E5,22.375,0.125,36,162.0
146,F5,22.5,0.25,41,162.0
147,D4,22.5,0.25,32,162.0
148,G3,22.5,0.25,32,162.0
149,E5,23.0,0.125,46,162.0
150,D5,23.125,0.125,37,162.0
151,C5,23.25,0.125,37,162.0
152,B-4,23.375,0.125,37,162.0
153,A4,23.5,0.25,43,162.0
154,D3,23.5,0.25,32,162.0
155,A3,23.5,0.25,32,162.0
156,G4,24.0,0.125,46,162.0
157,A4,24.125,0.125,37,162.0
158,B-4,24.25,0.125,37,162.0
159,C5,24.375,0.125,37,162.0
160,D5,24.5,0.25,44,162.0
161,B-3,24.5,0.25,32,162.0
162,E-3,24.5,0.25,32,162.0
163,C5,25.0,0.125,47,162.0
164,B-4,25.125,0.125,37,162.0
165,A4,25.25,0.125,37,162.0
166,G4,25.375,0.125,37,162.0
167,F4,25.5,0.25,43,162.0
168,F3,25.5,0.25,32,162.0
169,B-2,25.5,0.25,32,162.0
170,A2,26.0,0.25,37,162.0
171,E3,26.5,0.25,32,162.0
172,E4,26.5,1.5,45,162.0
173,A3,26.5,1.5,45,162.0
174,A2,27.0,0.25,38,162.0
175,E3,27.5,0.25,32,162.0
176,D6,28.0,0.125,47,162.0
177,E-2,28.0,0.25,37,162.0
178,C6,28.125,0.125,37,162.0
179,B-5,28.25,0.125,37,162.0
180,A5,28.375,0.125,37,162.0
181,G5,28.5,0.25,40,162.0
182,B-2,28.5,0.25,32,162.0
183,D5,29.0,0.125,48,162.0
184,E-2,29.0,0.25,37,162.0
185,C5,29.125,0.125,37,162.0
186,B-4,29.25,0.125,37,162.0
187,A4,29.375,0.125,37,162.0
188,G4,29.5,0.25,40,162.0
189,B-2,29.5,0.25,32,162.0
190,A2,30.0,0.25,37,162.0
191,E3,30.5,0.25,32,162.0
192,E4,30.5,1.5,45,162.0
193,A3,30.5,1.5,45,162.0
194,A2,31.0,0.25,38,162.0
195,E3,31.5,0.25,32,162.0
196,D6,32.0,0.125,47,162.0
197,E-2,32.0,0.25,37,162.0
198,C6,32.125,0.125,37,162.0
199,B-5,32.25,0.125,37,162.0
200,A5,32.375,0.125,37,162.0
201,G5,32.5,0.25,40,162.0
202,B-2,32.5,0.25,32,162.0
203,D5,33.0,0.125,48,162.0
204,E-2,33.0,0.25,37,162.0
205,C5,33.125,0.125,37,162.0
206,B-4,33.25,0.125,37,162.0
207,A4,33.375,0.125,37,162.0
208,G4,33.5,0.25,40,162.0
209,B-2,33.5,0.25,32,162.0
210,A2,34.0,0.25,37,162.0
211,E3,34.5,0.25,32,162.0
212,A3,34.5,0.5,45,162.0
213,E4,34.5,0.5,45,162.0
214,D5,35.0,0.125,40,162.0
215,E-2,35.0,0.25,38,162.0
216,C5,35.125,0.125,36,162.0
217,B-4,35.25,0.125,36,162.0
218,A4,35.375,0.125,36,162.0
219,G4,35.5,0.25,40,162.0
220,B-2,35.5,0.25,31,162.0
221,A2,36.0,0.25,34,162.0
222,E3,36.5,0.25,32,162.0
223,E4,36.5,0.5,38,162.0
224,A3,36.5,0.5,38,162.0
225,D5,37.0,0.125,34,162.0
226,E-2,37.0,0.25,34,162.0
227,C5,37.125,0.125,34,162.0
228,B-4,37.25,0.125,34,162.0
229,A4,37.375,0.125,34,162.0
230,G4,37.5,0.25,32,162.0
231,B-2,37.5,0.25,29,162.0
232,A2,38.0,0.25,35,162.0
233,E3,38.5,0.25,32,162.0
234,E4,38.5,0.5,37,162.0
235,A3,38.5,0.5,37,162.0
236,D5,39.0,0.125,32,162.0
237,E-2,39.0,0.25,34,162.0
238,C5,39.125,0.125,32,162.0
239,B-4,39.25,0.125,32,162.0
240,A4,39.375,0.125,32,162.0
241,G4,39.5,0.25,29,162.0
242,B-2,39.5,0.25,28,162.0
243,A2,40.0,0.25,32,162.0
244,E3,40.5,0.25,29,162.0
245,E4,40.5,0.5,35,162.0
246,A3,40.5,0.5,35,162.0
247,D5,41.0,0.125,32,162.0
248,E-2,41.0,0.25,32,162.0
249,C5,41.125,0.125,32,162.0
250,B-4,41.25,0.125,32,162.0
251,A4,41.375,0.125,32,162.0
252,G4,41.5,0.25,29,162.0
253,B-2,41.5,0.25,27,162.0
254,A2,42.0,0.25,46,162.0
255,E3,42.5,0.25,41,162.0
256,A3,42.5,0.25,37,162.0
257,E4,42.5,0.25,37,162.0
258,C#4,42.5,0.25,37,162.0
259,B-2,43.0,0.25,46,162.0
260,E3,43.5,0.25,41,162.0
261,E4,43.5,0.25,37,162.0
262,B-3,43.5,0.25,37,162.0
263,C#4,43.5,0.25,37,162.0
264,G#2,44.0,0.25,44,162.0
265,E3,44.5,0.25,42,162.0
266,E4,44.5,0.25,34,162.0
267,G#3,44.5,0.25,34,162.0
268,C#4,44.5,0.25,34,162.0
269,A2,45.0,0.25,46,162.0
270,E3,45.5,0.25,43,162.0
271,C#4,45.5,0.25,35,162.0
272,A3,45.5,0.25,35,162.0
273,E4,45.5,0.25,35,162.0
274,B-2,46.0,0.25,48,162.0
275,E3,46.5,0.25,43,162.0
276,E4,46.5,0.25,36,162.0
277,B-3,46.5,0.25,36,162.0
278,C#4,46.5,0.25,36,162.0
279,B2,47.0,0.25,51,162.0
280,E3,47.5,0.25,45,162.0
281,B3,47.5,0.25,40,162.0
282,E4,47.5,0.25,40,162.0
283,C#4,47.5,0.25,40,162.0
284,C3,48.0,0.25,53,162.0
285,E3,48.5,0.25,49,162.0
286,E4,48.5,0.25,41,162.0
287,C4,48.5,0.25,41,162.0
288,C#4,48.5,0.25,41,162.0
289,B2,49.0,0.25,57,162.0
290,E3,49.5,0.25,50,162.0
291,E4,49.5,0.25,43,162.0
292,B3,49.5,0.25,43,162.0
293,C#4,49.5,0.25,43,162.0
294,B-2,50.0,0.25,58,162.0
295,E3,50.5,0.25,53,162.0
296,C#4,50.5,0.25,45,162.0
297,B-3,50.5,0.25,45,162.0
298,E4,50.5,0.25,45,162.0
299,A2,51.0,0.25,60,162.0
300,E3,51.5,0.25,54,162.0
301,E4,51.5,0.25,48,162.0
302,A3,51.5,0.25,48,162.0
303,C#4,51.5,0.25,48,162.0
304,G#2,52.0,0.25,63,162.0
305,E3,52.5,0.25,58,162.0
306,G#3,52.5,0.25,49,162.0
307,E4,52.5,0.25,49,162.0
308,C#4,52.5,0.25,49,162.0
309,G2,53.0,0.25,66,162.0
310,C#3,53.5,0.25,60,162.0
311,C#4,53.5,0.25,51,162.0
312,G3,53.5,0.25,51,162.0
313,B-3,53.5,0.25,51,162.0
314,F#2,54.0,0.25,69,162.0
315,C#3,54.5,0.25,64,162.0
316,C#4,54.5,0.25,53,162.0
317,B-3,54.5,0.25,53,162.0
318,F#3,54.5,0.25,53,162.0
319,F2,55.0,0.25,77,162.0
320,C#3,55.5,0.25,69,162.0
321,C#4,55.5,0.25,55,162.0
322,B-3,55.5,0.25,55,162.0
323,F3,55.5,0.25,55,162.0
324,E2,56.0,0.25,83,162.0
325,C#3,56.5,0.25,76,162.0
326,C#4,56.5,0.25,58,162.0
327,E3,56.5,0.25,58,162.0
328,A3,56.5,0.25,58,162.0
329,E-2,57.0,0.25,86,162.0
330,C#3,57.5,0.25,79,162.0
331,G3,57.5,0.25,59,162.0
332,C#4,57.5,0.25,59,162.0
333,E-3,57.5,0.25,59,162.0
334,A3,57.5,0.25,59,162.0
335,D3,58.0,0.25,87,162.0
336,D2,58.0,0.25,87,162.0
337,A2,58.5,0.25,74,162.0
338,A1,58.5,0.25,74,162.0
339,D3,59.0,0.25,87,162.0
340,D2,59.0,0.25,87,162.0
341,A1,59.5,0.25,74,162.0
342,A2,59.5,0.25,74,162.0
343,D2,60.0,0.25,87,162.0
344,D3,60.0,0.25,87,162.0
345,A1,60.5,0.25,74,162.0
346,A2,60.5,0.25,74,162.0
347,D3,61.0,0.25,87,162.0
348,D2,61.0,0.25,87,162.0
349,D5,61.5,0.125,86,162.0
350,A1,61.5,0.25,74,162.0
351,A2,61.5,0.25,74,162.0
352,E5,61.625,0.125,86,162.0
353,F5,61.75,0.125,86,162.0
354,G5,61.875,0.125,86,162.0
355,A5,62.0,0.25,90,162.0
356,D2,62.0,0.25,78,162.0
357,D3,62.0,0.25,78,162.0
358,D6,62.5,0.25,72,162.0
359,D5,62.5,0.25,72,162.0
360,F5,62.5,0.25,72,162.0
361,A1,62.5,0.25,66,162.0
362,A2,62.5,0.25,66,162.0
363,D6,63.0,0.25,72,162.0
364,D5,63.0,0.25,72,162.0
365,F5,63.0,0.25,72,162.0
366,D2,63.0,0.25,78,162.0
367,D3,63.0,0.25,78,162.0
368,F5,63.5,0.25,72,162.0
369,D5,63.5,0.25,72,162.0
370,C#6,63.5,0.25,72,162.0
371,A1,63.5,0.25,66,162.0
372,A2,63.5,0.25,66,162.0
373,C#6,64.0,0.25,77,162.0
374,D5,64.0,0.25,77,162.0
375,F5,64.0,0.25,77,162.0
376,D3,64.0,0.25,78,162.0
377,D2,64.0,0.25,78,162.0
378,D5,64.5,0.25,72,162.0
379,C6,64.5,0.25,72,162.0
380,F5,64.5,0.25,72,162.0
381,A1,64.5,0.25,66,162.0
382,A2,64.5,0.25,66,162.0
383,C6,65.0,0.25,72,162.0
384,D5,65.0,0.25,72,162.0
385,F5,65.0,0.25,72,162.0
386,D2,65.0,0.25,78,162.0
387,D3,65.0,0.25,78,162.0
388,B5,65.5,0.25,72,162.0
389,D5,65.5,0.25,72,162.0
390,F5,65.5,0.25,72,162.0
391,A1,65.5,0.25,66,162.0
392,A2,65.5,0.25,66,162.0
393,F5,66.0,0.25,77,162.0
394,D5,66.0,0.25,77,162.0
395,B5,66.0,0.25,77,162.0
396,D3,66.0,0.25,78,162.0
397,D2,66.0,0.25,78,162.0
398,F5,66.5,0.25,73,162.0
399,D5,66.5,0.25,73,162.0
400,B-5,66.5,0.25,73,162.0
401,A2,66.5,0.25,66,162.0
402,A1,66.5,0.25,66,162.0
403,B-5,67.0,0.25,73,162.0
404,F5,67.0,0.25,73,162.0
405,D5,67.0,0.25,73,162.0
406,D3,67.0,0.25,78,162.0
407,D2,67.0,0.25,78,162.0
408,A5,67.5,0.25,78,162.0
409,D5,67.5,0.25,78,162.0
410,F5,67.5,0.25,78,162.0
411,A2,67.5,0.25,66,162.0
412,A1,67.5,0.25,66,162.0
413,E5,68.0,0.25,84,162.0
414,B4,68.0,0.25,84,162.0
415,G#5,68.0,0.25,84,162.0
416,D2,68.0,0.25,78,162.0
417,D3,68.0,0.25,78,162.0
418,G#5,68.5,1.0,87,162.0
419,B4,68.5,1.0,87,162.0
420,E5,68.5,1.0,87,162.0
421,A1,68.5,0.25,66,162.0
422,A2,68.5,0.25,66,162.0
423,D2,69.0,0.25,78,162.0
424,D3,69.0,0.25,78,162.0
425,G5,69.5,0.125,86,162.0
426,A1,69.5,0.25,66,162.0
427,A2,69.5,0.25,66,162.0
428,A5,69.625,0.125,86,162.0
429,B-5,69.75,0.125,86,162.0
430,C6,69.875,0.125,86,162.0
431,D6,70.0,0.25,90,162.0
432,D3,70.0,0.25,78,162.0
433,D2,70.0,0.25,78,162.0
434,G5,70.5,0.25,72,162.0
435,B-5,70.5,0.25,72,162.0
436,G6,70.5,0.25,72,162.0
437,A2,70.5,0.25,66,162.0
438,A1,70.5,0.25,66,162.0
439,B-5,71.0,0.25,72,162.0
440,G6,71.0,0.25,72,162.0
441,G5,71.0,0.25,72,162.0
442,D3,71.0,0.25,78,162.0
443,D2,71.0,0.25,78,162.0
444,F#6,71.5,0.25,72,162.0
445,G5,71.5,0.25,72,162.0
446,B-5,71.5,0.25,72,162.0
447,A2,71.5,0.25,66,162.0
448,A1,71.5,0.25,66,162.0
449,B-5,72.0,0.25,77,162.0
450,F#6,72.0,0.25,77,162.0
451,G5,72.0,0.25,77,162.0
452,D2,72.0,0.25,78,162.0
453,D3,72.0,0.25,78,162.0
454,F6,72.5,0.25,72,162.0
455,B-5,72.5,0.25,72,162.0
456,G5,72.5,0.25,72,162.0
457,A2,72.5,0.25,66,162.0
458,A1,72.5,0.25,66,162.0
459,B-5,73.0,0.25,72,162.0
460,F6,73.0,0.25,72,162.0
461,G5,73.0,0.25,72,162.0
462,D3,73.0,0.25,78,162.0
463,D2,73.0,0.25,78,162.0
464,B-5,73.5,0.25,72,162.0
465,G5,73.5,0.25,72,162.0
466,E6,73.5,0.25,72,162.0
467,A2,73.5,0.25,66,162.0
468,A1,73.5,0.25,66,162.0
469,E6,74.0,0.25,77,162.0
470,G5,74.0,0.25,77,162.0
471,B-5,74.0,0.25,77,162.0
472,D2,74.0,0.25,78,162.0
473,D3,74.0,0.25,78,162.0
474,B-5,74.5,0.25,73,162.0
475,E-6,74.5,0.25,73,162.0
476,G5,74.5,0.25,73,162.0
477,A1,74.5,0.25,66,162.0
478,A2,74.5,0.25,66,162.0
479,E-6,75.0,0.25,73,162.0
480,G5,75.0,0.25,73,162.0
481,B-5,75.0,0.25,73,162.0
482,D3,75.0,0.25,78,162.0
483,D2,75.0,0.25,78,162.0
484,B-5,75.5,0.25,73,162.0
485,D6,75.5,0.25,73,162.0
486,G5,75.5,0.25,73,162.0
487,A1,75.5,0.25,66,162.0
488,A2,75.5,0.25,66,162.0
489,A5,76.0,0.25,84,162.0
490,E5,76.0,0.25,84,162.0
491,C#6,76.0,0.25,84,162.0
492,D2,76.0,0.25,78,162.0
493,D3,76.0,0.25,78,162.0
494,C#6,76.5,1.0,87,162.0
495,A5,76.5,1.0,87,162.0
496,E5,76.5,1.0,87,162.0
497,A1,76.5,0.25,66,162.0
498,A2,76.5,0.25,66,162.0
499,D2,77.0,0.25,78,162.0
500,D3,77.0,0.25,78,162.0
501,A1,77.5,0.25,66,162.0
502,A2,77.5,0.25,66,162.0
503,D6,78.0,0.125,106,162.0
504,F3,78.0,0.25,78,162.0
505,F4,78.0,0.25,78,162.0
506,E6,78.125,0.125,83,162.0
507,F6,78.25,0.125,83,162.0
508,G6,78.375,0.125,83,162.0
509,A6,78.5,0.25,83,162.0
510,D3,78.5,0.25,60,162.0
511,D2,78.5,0.25,60,162.0
512,G6,79.0,0.125,104,162.0
513,E4,79.0,0.25,78,162.0
514,E3,79.0,0.25,78,162.0
515,F6,79.125,0.125,84,162.0
516,E6,79.25,0.125,84,162.0
517,D6,79.375,0.125,84,162.0
518,C6,79.5,0.25,85,162.0
519,D2,79.5,0.25,60,162.0
520,D3,79.5,0.25,60,162.0
521,B-5,80.0,0.125,104,162.0
522,D4,80.0,0.25,78,162.0
523,D3,80.0,0.25,78,162.0
524,C6,80.125,0.125,84,162.0
525,D6,80.25,0.125,84,162.0
526,E6,80.375,0.125,84,162.0
527,F6,80.5,0.25,84,162.0
528,D3,80.5,0.25,60,162.0
529,D2,80.5,0.25,60,162.0
530,E6,81.0,0.125,104,162.0
531,C4,81.0,0.25,78,162.0
532,C3,81.0,0.25,78,162.0
533,D6,81.125,0.125,84,162.0
534,C6,81.25,0.125,84,162.0
535,B-5,81.375,0.125,84,162.0
536,A5,81.5,0.25,84,162.0
537,D2,81.5,0.25,60,162.0
538,D3,81.5,0.25,60,162.0
539,G5,82.0,0.125,104,162.0
540,B-2,82.0,0.25,72,162.0
541,B-3,82.0,0.25,72,162.0
542,A5,82.125,0.125,86,162.0
543,B-5,82.25,0.125,86,162.0
544,C6,82.375,0.125,86,162.0
545,D6,82.5,0.25,86,162.0
546,D2,82.5,0.25,60,162.0
547,D3,82.5,0.25,60,162.0
548,C6,83.0,0.125,104,162.0
549,A3,83.0,0.25,72,162.0
550,A2,83.0,0.25,72,162.0
551,B-5,83.125,0.125,86,162.0
552,A5,83.25,0.125,85,162.0
553,G5,83.375,0.125,85,162.0
554,F5,83.5,0.25,85,162.0
555,D3,83.5,0.25,60,162.0
556,D2,83.5,0.25,60,162.0
557,E5,84.0,0.25,94,162.0
558,A5,84.0,0.25,94,162.0
559,E6,84.0,0.25,94,162.0
560,G2,84.0,0.25,72,162.0
561,G3,84.0,0.25,72,162.0
562,E5,84.5,1.0,94,162.0
563,E6,84.5,1.0,94,162.0
564,A5,84.5,1.0,94,162.0
565,D3,84.5,0.25,60,162.0
566,D2,84.5,0.25,60,162.0
567,G3,85.0,0.25,72,162.0
568,G2,85.0,0.25,72,162.0
569,D2,85.5,0.25,60,162.0
570,D3,85.5,0.25,60,162.0
571,B-5,86.0,0.125,92,162.0
572,D4,86.0,0.25,78,162.0
573,D3,86.0,0.25,78,162.0
574,C6,86.125,0.125,83,162.0
575,D6,86.25,0.125,83,162.0
576,E6,86.375,0.125,83,162.0
577,F6,86.5,0.25,83,162.0
578,D2,86.5,0.25,66,162.0
579,D3,86.5,0.25,66,162.0
580,E6,87.0,0.125,92,162.0
581,C4,87.0,0.25,78,162.0
582,C3,87.0,0.25,78,162.0
583,D6,87.125,0.125,84,162.0
584,C6,87.25,0.125,84,162.0
585,B-5,87.375,0.125,84,162.0
586,A5,87.5,0.25,85,162.0
587,D3,87.5,0.25,66,162.0
588,D2,87.5,0.25,66,162.0
589,G5,88.0,0.125,92,162.0
590,B-3,88.0,0.25,78,162.0
591,B-2,88.0,0.25,78,162.0
592,A5,88.125,0.125,84,162.0
593,B-5,88.25,0.125,84,162.0
594,C6,88.375,0.125,84,162.0
595,D6,88.5,0.25,84,162.0
596,D2,88.5,0.25,66,162.0
597,D3,88.5,0.25,66,162.0
598,C6,89.0,0.125,92,162.0
599,A3,89.0,0.25,78,162.0
600,A2,89.0,0.25,78,162.0
601,B-5,89.125,0.125,84,162.0
602,A5,89.25,0.125,84,162.0
603,G5,89.375,0.125,84,162.0
604,F5,89.5,0.25,84,162.0
605,D3,89.5,0.25,66,162.0
606,D2,89.5,0.25,66,162.0
607,E-5,90.0,0.125,94,162.0
608,G3,90.0,0.25,78,162.0
609,G2,90.0,0.25,78,162.0
610,F5,90.125,0.125,83,162.0
611,G5,90.25,0.125,83,162.0
612,A5,90.375,0.125,83,162.0
613,B-5,90.5,0.25,83,162.0
614,D3,90.5,0.25,66,162.0
615,D2,90.5,0.25,66,162.0
616,A5,91.0,0.125,92,162.0
617,F2,91.0,0.25,78,162.0
618,F3,91.0,0.25,78,162.0
619,G5,91.125,0.125,83,162.0
620,F5,91.25,0.125,83,162.0
621,E-5,91.375,0.125,83,162.0
622,D5,91.5,0.25,83,162.0
623,D2,91.5,0.25,66,162.0
624,D3,91.5,0.25,66,162.0
625,A4,92.0,0.25,86,162.0
626,A5,92.0,0.25,86,162.0
627,E5,92.0,0.25,86,162.0
628,E2,92.0,0.25,78,162.0
629,E3,92.0,0.25,78,162.0
630,E5,92.5,1.0,86,162.0
631,A5,92.5,1.0,86,162.0
632,A4,92.5,1.0,86,162.0
633,D3,92.5,0.25,66,162.0
634,D2,92.5,0.25,66,162.0
635,E3,93.0,0.25,78,162.0
636,E2,93.0,0.25,78,162.0
637,D2,93.5,0.25,66,162.0
638,D3,93.5,0.25,66,162.0
639,D5,94.0,0.125,75,162.0
640,F3,94.0,0.25,62,162.0
641,E5,94.125,0.125,66,162.0
642,F5,94.25,0.125,66,162.0
643,G5,94.375,0.125,66,162.0
644,A5,94.5,0.25,66,162.0
645,D2,94.5,0.25,52,162.0
646,G5,95.0,0.125,77,162.0
647,E3,95.0,0.25,60,162.0
648,F5,95.125,0.125,65,162.0
649,E5,95.25,0.125,65,162.0
650,D5,95.375,0.125,65,162.0
651,C5,95.5,0.25,65,162.0
652,D2,95.5,0.25,51,162.0
653,B-4,96.0,0.125,73,162.0
654,D3,96.0,0.25,59,162.0
655,C5,96.125,0.125,65,162.0
656,D5,96.25,0.125,64,162.0
657,E5,96.375,0.125,64,162.0
658,F5,96.5,0.25,64,162.0
659,D2,96.5,0.25,50,162.0
660,E5,97.0,0.125,72,162.0
661,C3,97.0,0.25,58,162.0
662,D5,97.125,0.125,64,162.0
663,C5,97.25,0.125,63,162.0
664,B-4,97.375,0.125,63,162.0
665,A4,97.5,0.25,63,162.0
666,D2,97.5,0.25,49,162.0
667,G4,98.0,0.125,71,162.0
668,B-2,98.0,0.25,57,162.0
669,A4,98.125,0.125,63,162.0
670,B-4,98.25,0.125,63,162.0
671,C5,98.375,0.125,62,162.0
672,D5,98.5,0.25,62,162.0
673,D2,98.5,0.25,48,162.0
674,C5,99.0,0.125,71,162.0
675,A2,99.0,0.25,56,162.0
676,B-4,99.125,0.125,62,162.0
677,A4,99.25,0.125,62,162.0
678,G4,99.375,0.125,60,162.0
679,F4,99.5,0.25,60,162.0
680,D2,99.5,0.25,48,162.0
681,G2,100.0,0.25,55,162.0
682,E4,100.0,0.25,64,162.0
683,E5,100.0,0.25,64,162.0
684,A4,100.0,0.25,64,162.0
685,D2,100.5,0.25,47,162.0
686,A4,100.5,1.0,65,162.0
687,E4,100.5,1.0,65,162.0
688,E5,100.5,1.0,65,162.0
689,G2,101.0,0.25,54,162.0
690,D2,101.5,0.25,46,162.0
691,B-4,102.0,0.125,58,162.0
692,D3,102.0,0.25,49,162.0
693,C5,102.125,0.125,54,162.0
694,D5,102.25,0.125,54,162.0
695,E5,102.375,0.125,54,162.0
696,F5,102.5,0.25,54,162.0
697,D2,102.5,0.25,41,162.0
698,E5,103.0,0.125,60,162.0
699,C3,103.0,0.25,48,162.0
700,D5,103.125,0.125,54,162.0
701,C5,103.25,0.125,54,162.0
702,B-4,103.375,0.125,54,162.0
703,A4,103.5,0.25,55,162.0
704,D2,103.5,0.25,41,162.0
705,G4,104.0,0.125,59,162.0
706,B-2,104.0,0.25,48,162.0
707,A4,104.125,0.125,54,162.0
708,B-4,104.25,0.125,54,162.0
709,C5,104.375,0.125,54,162.0
710,D5,104.5,0.25,52,162.0
711,D2,104.5,0.25,40,162.0
712,C5,105.0,0.125,56,162.0
713,A2,105.0,0.25,47,162.0
714,B-4,105.125,0.125,52,162.0
715,A4,105.25,0.125,52,162.0
716,G4,105.375,0.125,52,162.0
717,F4,105.5,0.25,52,162.0
718,D2,105.5,0.25,40,162.0
719,E-4,106.0,0.125,56,162.0
720,G2,106.0,0.25,47,162.0
721,F4,106.125,0.125,51,162.0
722,G4,106.25,0.125,51,162.0
723,A4,106.375,0.125,51,162.0
724,B-4,106.5,0.25,51,162.0
725,D2,106.5,0.25,40,162.0
726,A4,107.0,0.125,55,162.0
727,F2,107.0,0.25,46,162.0
728,G4,107.125,0.125,50,162.0
729,F4,107.25,0.125,50,162.0
730,E-4,107.375,0.125,50,162.0
731,D4,107.5,0.25,50,162.0
732,D2,107.5,0.25,39,162.0
733,E2,108.0,0.25,46,162.0
734,A3,108.0,0.25,46,162.0
735,E4,108.0,0.25,46,162.0
736,A4,108.0,0.25,46,162.0
737,D2,108.5,0.25,37,162.0
738,A3,108.5,1.0,47,162.0
739,A4,108.5,1.0,47,162.0
740,E4,108.5,1.0,47,162.0
741,E2,109.0,0.25,44,162.0
742,D2,109.5,0.25,37,162.0
743,D6,110.0,0.125,59,162.0
744,E-2,110.0,0.25,47,162.0
745,C6,110.125,0.125,47,162.0
746,B-5,110.25,0.125,47,162.0
747,A5,110.375,0.125,47,162.0
748,G5,110.5,0.25,51,162.0
749,A2,110.5,0.25,41,162.0
750,D5,111.0,0.125,60,162.0
751,E-2,111.0,0.25,47,162.0
752,C5,111.125,0.125,47,162.0
753,B-4,111.25,0.125,47,162.0
754,A4,111.375,0.125,47,162.0
755,G4,111.5,0.25,51,162.0
756,A2,111.5,0.25,41,162.0
757,D2,112.0,0.25,47,162.0
758,A2,112.5,0.25,41,162.0
759,A4,112.5,1.5,46,162.0
760,A3,112.5,1.5,46,162.0
761,E4,112.5,1.5,46,162.0
762,D2,113.0,0.25,48,162.0
763,A2,113.5,0.25,41,162.0
764,D6,114.0,0.125,59,162.0
765,E-2,114.0,0.25,47,162.0
766,C6,114.125,0.125,47,162.0
767,B-5,114.25,0.125,47,162.0
768,A5,114.375,0.125,47,162.0
769,G5,114.5,0.25,51,162.0
770,A2,114.5,0.25,41,162.0
771,D5,115.0,0.125,60,162.0
772,E-2,115.0,0.25,47,162.0
773,C5,115.125,0.125,47,162.0
774,B-4,115.25,0.125,47,162.0
775,A4,115.375,0.125,47,162.0
776,G4,115.5,0.25,51,162.0
777,A2,115.5,0.25,41,162.0
778,D2,116.0,0.25,47,162.0
779,A2,116.5,0.25,41,162.0
780,A4,116.5,0.25,38,162.0
781,E4,116.5,0.25,38,162.0
782,A3,116.5,0.25,38,162.0
783,D5,117.0,0.125,51,162.0
784,E-2,117.0,0.25,48,162.0
785,C5,117.125,0.125,46,162.0
786,B-4,117.25,0.125,46,162.0
787,A4,117.375,0.125,46,162.0
788,G4,117.5,0.25,50,162.0
789,A2,117.5,0.25,39,162.0
790,D2,118.0,0.25,43,162.0
791,A2,118.5,0.25,41,162.0
792,A4,118.5,0.25,38,162.0
793,E4,118.5,0.25,38,162.0
794,A3,118.5,0.25,38,162.0
795,D5,119.0,0.125,42,162.0
796,E-2,119.0,0.25,43,162.0
797,C5,119.125,0.125,42,162.0
798,B-4,119.25,0.125,42,162.0
799,A4,119.375,0.125,42,162.0
800,G4,119.5,0.25,40,162.0
801,A2,119.5,0.25,36,162.0
802,D2,120.0,0.25,43,162.0
803,A2,120.5,0.25,39,162.0
804,A3,120.5,0.25,36,162.0
805,A4,120.5,0.25,36,162.0
806,E4,120.5,0.25,36,162.0
807,D5,121.0,0.125,40,162.0
808,E-2,121.0,0.25,42,162.0
809,C5,121.125,0.125,40,162.0
810,B-4,121.25,0.125,40,162.0
811,A4,121.375,0.125,39,162.0
812,G4,121.5,0.25,36,162.0
813,A2,121.5,0.25,34,162.0
814,D2,122.0,0.25,39,162.0
815,A2,122.5,0.25,36,162.0
816,A3,122.5,0.25,32,162.0
817,E4,122.5,0.25,32,162.0
818,A4,122.5,0.25,32,162.0
819,D5,123.0,0.125,37,162.0
820,E-2,123.0,0.25,37,162.0
821,C5,123.125,0.125,37,162.0
822,B-4,123.25,0.125,37,162.0
823,A4,123.375,0.125,37,162.0
824,G4,123.5,0.25,35,162.0
825,A2,123.5,0.25,32,162.0
826,D2,124.0,0.25,41,162.0
827,A2,124.5,0.25,39,162.0
828,D2,125.0,0.25,41,162.0
829,D3,125.5,0.125,46,162.0
830,A2,125.5,0.25,39,162.0
831,E3,125.625,0.125,46,162.0
832,F3,125.75,0.125,46,162.0
833,G3,125.875,0.125,46,162.0
834,A3,126.0,0.25,50,162.0
835,D2,126.0,0.25,41,162.0
836,A2,126.5,0.25,39,162.0
837,F3,126.5,0.25,38,162.0
838,D3,126.5,0.25,38,162.0
839,D4,126.5,0.25,38,162.0
840,D2,127.0,0.25,41,162.0
841,D3,127.0,0.25,38,162.0
842,F3,127.0,0.25,38,162.0
843,D4,127.0,0.25,38,162.0
844,A2,127.5,0.25,39,162.0
845,D3,127.5,0.25,38,162.0
846,C#4,127.5,0.25,38,162.0
847,F3,127.5,0.25,38,162.0
848,D2,128.0,0.25,41,162.0
849,D3,128.0,0.25,41,162.0
850,C#4,128.0,0.25,41,162.0
851,F3,128.0,0.25,41,162.0
852,A2,128.5,0.25,39,162.0
853,F3,128.5,0.25,38,162.0
854,D3,128.5,0.25,38,162.0
855,C4,128.5,0.25,38,162.0
856,D2,129.0,0.25,41,162.0
857,F3,129.0,0.25,38,162.0
858,D3,129.0,0.25,38,162.0
859,C4,129.0,0.25,38,162.0
860,A2,129.5,0.25,39,162.0
861,D3,129.5,0.25,38,162.0
862,F3,129.5,0.25,38,162.0
863,B3,129.5,0.25,38,162.0
864,D2,130.0,0.25,41,162.0
865,D3,130.0,0.25,41,162.0
866,B3,130.0,0.25,41,162.0
867,F3,130.0,0.25,41,162.0
868,A2,130.5,0.25,37,162.0
869,D3,130.5,0.25,37,162.0
870,B-3,130.5,0.25,37,162.0
871,F3,130.5,0.25,37,162.0
872,D2,131.0,0.25,41,162.0
873,F3,131.0,0.25,37,162.0
874,D3,131.0,0.25,37,162.0
875,B-3,131.0,0.25,37,162.0
876,A2,131.5,0.25,37,162.0
877,F3,131.5,0.5,36,162.0
878,A3,131.5,0.5,36,162.0
879,D3,131.5,0.5,36,162.0
880,D2,132.0,0.25,43,162.0
881,F3,132.0,2.0,36,162.0
882,A3,132.0,2.0,36,162.0
883,D3,132.0,2.0,36,162.0
884,A2,132.5,0.25,40,162.0
885,D2,133.0,0.25,43,162.0
886,A2,133.5,0.25,41,162.0
887,D2,134.0,0.25,42,162.0
888,A2,134.5,0.25,40,162.0
889,D3,135.0,0.25,42,162.0
890,A3,135.5,0.25,40,162.0
891,D4,136.0,0.25,40,162.0
892,A4,136.5,0.25,39,162.0
893,D5,137.0,0.25,36,162.0
894,A5,137.5,0.5,42,162.0
895,A5,138.0,2.0,42,162.0
896,A5,140.0,1.0,42,162.0
897,D5,140.0,2.0,27,162.0
898,F#5,140.0,2.0,27,162.0
899,D4,140.0,2.0,27,162.0
900,A4,140.0,2.0,27,162.0
901,B5,141.0,0.5,48,162.0
902,C#6,141.5,0.5,48,162.0
903,D5,142.0,2.0,27,162.0
904,D6,142.0,1.0,52,162.0
905,F#4,142.0,2.0,27,162.0
906,B4,142.0,2.0,27,162.0
907,B3,142.0,2.0,27,162.0
908,C#6,143.0,0.5,48,162.0
909,B5,143.5,0.5,48,162.0
910,C#6,144.0,0.5,50,162.0
911,D5,144.0,2.0,26,162.0
912,F#5,144.0,2.0,26,162.0
913,D4,144.0,2.0,27,162.0
914,A4,144.0,2.0,27,162.0
915,A5,144.5,1.0,48,162.0
916,C#6,145.5,0.375,46,162.0
917,C#6,145.875,0.125,39,162.0
918,D5,146.0,2.0,32,162.0
919,F#5,146.0,2.0,32,162.0
920,B4,146.0,2.0,23,162.0
921,B3,146.0,2.0,23,162.0
922,F#4,146.0,2.0,23,162.0
923,A5,148.0,1.0,48,162.0
924,D4,148.0,1.0,36,162.0
925,A4,148.0,2.0,27,162.0
926,D5,148.0,2.0,27,162.0
927,F#5,148.0,2.0,27,162.0
928,B5,149.0,0.5,48,162.0
929,C#4,149.0,1.0,36,162.0
930,C#6,149.5,0.5,48,162.0
931,D5,150.0,2.0,27,162.0
932,D6,150.0,1.0,52,162.0
933,F#4,150.0,1.0,37,162.0
934,B4,150.0,2.0,27,162.0
935,B3,150.0,2.0,27,162.0
936,C#6,151.0,0.5,48,162.0
937,F4,151.0,1.0,35,162.0
938,B5,151.5,0.5,48,162.0
939,D5,152.0,2.0,26,162.0
940,C#6,152.0,0.5,50,162.0
941,A4,152.0,1.0,40,162.0
942,E4,152.0,2.0,27,162.0
943,F#5,152.5,1.0,48,162.0
944,G#4,153.0,1.0,37,162.0
945,C#6,153.5,0.375,46,162.0
946,C#6,153.875,0.125,39,162.0
947,E4,154.0,1.0,35,162.0
948,C#5,154.0,2.0,32,162.0
949,A5,154.0,2.0,32,162.0
950,A4,154.0,2.0,23,162.0
951,A3,154.0,2.0,23,162.0
952,F4,155.0,1.0,33,162.0
953,A4,156.0,1.0,42,162.0
954,D4,156.5,1.5,27,162.0
955,F#4,156.5,1.5,27,162.0
956,A3,156.5,1.5,24,162.0
957,D3,156.5,1.5,24,162.0
958,B4,157.0,0.5,42,162.0
959,C#5,157.5,0.5,42,162.0
960,D5,158.0,1.0,47,162.0
961,D4,158.5,1.5,27,162.0
962,B2,158.5,1.5,23,162.0
963,B3,158.5,1.5,23,162.0
964,F#3,158.5,1.5,23,162.0
965,C#5,159.0,0.5,42,162.0
966,B4,159.5,0.5,42,162.0
967,C#5,160.0,0.5,44,162.0
968,F#4,160.5,1.5,26,162.0
969,D4,160.5,1.5,26,162.0
970,A3,160.5,1.5,24,162.0
971,D3,160.5,1.5,24,162.0
972,A4,161.0,0.5,42,162.0
973,C#5,161.5,0.375,41,162.0
974,C#5,161.875,0.125,34,162.0
975,F#4,162.0,2.0,37,162.0
976,D4,162.5,1.5,23,162.0
977,B3,162.5,1.5,20,162.0
978,B2,162.5,1.5,20,162.0
979,F#3,162.5,1.5,20,162.0
980,A4,164.0,1.0,42,162.0
981,A3,164.5,1.5,27,162.0
982,D3,164.5,1.0,35,162.0
983,D4,164.5,1.5,27,162.0
984,F#4,164.5,1.5,27,162.0
985,B4,165.0,0.5,42,162.0
986,C#5,165.5,0.5,42,162.0
987,C#3,165.5,0.5,34,162.0
988,D5,166.0,1.0,47,162.0
989,D4,166.5,1.5,27,162.0
990,F#3,166.5,1.0,39,162.0
991,B2,166.5,1.5,31,162.0
992,B3,166.5,1.5,31,162.0
993,C#5,167.0,0.5,44,162.0
994,B4,167.5,0.5,46,162.0
995,F3,167.5,0.5,35,162.0
996,C#5,168.0,1.0,51,162.0
997,E2,168.375,1.625,27,162.0
998,D4,168.5,1.5,35,162.0
999,A3,168.5,1.0,35,162.0
1000,F#4,169.0,0.5,42,162.0
1001,C#5,169.5,0.375,41,162.0
1002,G#3,169.5,0.5,34,162.0
1003,C#5,169.875,0.125,34,162.0
1004,A4,170.0,2.0,37,162.0
1005,C#4,170.5,1.5,23,162.0
1006,E3,170.5,1.5,20,162.0
1007,A3,170.5,1.5,20,162.0
1008,A2,170.5,1.5,20,162.0
1009,A3,172.0,167/1000,35,162.0
1010,G4,172.167,167/1000,35,162.0
1011,C#5,172.333,167/1000,35,162.0
1012,E5,172.5,167/1000,35,162.0
1013,G5,172.667,167/1000,35,162.0
1014,E6,172.833,167/1000,35,162.0
1015,B5,173.0,1.0,41,162.0
1016,G5,173.0,1.0,40,162.0
1017,A3,174.0,167/1000,35,162.0
1018,G4,174.167,167/1000,35,162.0
1019,C#5,174.333,167/1000,35,162.0
1020,E5,174.5,167/1000,35,162.0
1021,G5,174.667,167/1000,35,162.0
1022,E6,174.833,167/1000,35,162.0
1023,B5,175.0,1.0,41,162.0
1024,G5,175.0,1.0,40,162.0
1025,A3,176.0,0.25,40,162.0
1026,G4,176.5,0.25,40,162.0
1027,E4,176.5,0.25,40,162.0
1028,C#5,176.75,0.25,36,162.0
1029,B4,177.0,0.25,40,162.0
1030,G4,177.0,0.25,39,162.0
1031,E5,177.25,0.25,36,162.0
1032,D5,177.5,0.25,40,162.0
1033,B4,177.5,0.25,39,162.0
1034,G5,177.75,0.25,36,162.0
1035,E5,178.0,0.25,39,162.0
1036,C#5,178.0,0.25,37,162.0
1037,A5,178.25,0.25,36,162.0
1038,G5,178.5,0.25,39,162.0
1039,E5,178.5,0.25,36,162.0
1040,C#6,178.75,0.25,35,162.0
1041,B5,179.0,0.25,39,162.0
1042,G5,179.0,0.25,36,162.0
1043,E6,179.25,0.25,36,162.0
1044,F3,180.0,167/1000,35,162.0
1045,E-4,180.167,167/1000,35,162.0
1046,A4,180.333,167/1000,35,162.0
1047,C5,180.5,167/1000,35,162.0
1048,E-5,180.66,167/1000,35,162.0
1049,C6,180.833,167/1000,35,162.0
1050,G5,181.0,1.0,40,162.0
1051,E-5,181.0,1.0,39,162.0
1052,F3,182.0,167/1000,35,162.0
1053,E-4,182.167,167/1000,35,162.0
1054,A4,182.333,167/1000,35,162.0
1055,C5,182.5,167/1000,35,162.0
1056,E-5,182.667,167/1000,35,162.0
1057,C6,182.833,167/1000,35,162.0
1058,G5,183.0,1.0,40,162.0
1059,E-5,183.0,1.0,41,162.0
1060,F3,184.0,0.25,40,162.0
1061,E-4,184.5,0.25,40,162.0
1062,C4,184.5,0.25,40,162.0
1063,A4,184.75,0.25,36,162.0
1064,G4,185.0,0.25,40,162.0
1065,E-4,185.0,0.25,39,162.0
1066,C5,185.25,0.25,36,162.0
1067,B-4,185.5,0.25,40,162.0
1068,G4,185.5,0.25,39,162.0
1069,E-5,185.75,0.25,36,162.0
1070,C5,186.0,0.25,39,162.0
1071,A4,186.0,0.25,37,162.0
1072,F5,186.25,0.25,36,162.0
1073,E-5,186.5,0.25,39,162.0
1074,C5,186.5,0.25,36,162.0
1075,A5,186.75,0.25,35,162.0
1076,G5,187.0,0.25,39,162.0
1077,E-5,187.0,0.25,36,162.0
1078,C6,187.25,0.25,36,162.0
1079,D3,188.0,0.25,33,162.0
1080,C4,188.5,0.25,33,162.0
1081,A3,188.5,0.25,33,162.0
1082,F#4,188.75,0.25,31,162.0
1083,E4,189.0,0.25,33,162.0
1084,C4,189.0,0.25,32,162.0
1085,A4,189.25,0.25,31,162.0
1086,G4,189.5,0.25,33,162.0
1087,E4,189.5,0.25,32,162.0
1088,C5,189.75,0.25,31,162.0
1089,A4,190.0,0.25,32,162.0
1090,F#4,190.0,0.25,31,162.0
1091,D5,190.25,0.25,29,162.0
1092,C5,190.5,0.25,31,162.0
1093,A4,190.5,0.25,29,162.0
1094,F#5,190.75,0.25,27,162.0
1095,E5,191.0,0.25,29,162.0
1096,C5,191.0,0.25,28,162.0
1097,A5,191.25,0.25,25,162.0
1098,D6,192.0,1.0,44,162.0
1099,G5,192.0,2.0,24,162.0
1100,B5,192.0,2.0,24,162.0
1101,D5,192.0,2.0,24,162.0
1102,G4,192.0,2.0,24,162.0
1103,E6,193.0,0.5,42,162.0
1104,F#6,193.5,0.5,42,162.0
1105,G5,194.0,2.0,24,162.0
1106,G6,194.0,1.0,47,162.0
1107,E5,194.0,2.0,24,162.0
1108,B4,194.0,2.0,24,162.0
1109,E4,194.0,2.0,24,162.0
1110,F#6,195.0,0.5,42,162.0
1111,E6,195.5,0.5,42,162.0
1112,F#6,196.0,0.5,44,162.0
1113,G5,196.0,2.0,23,162.0
1114,B5,196.0,2.0,23,162.0
1115,G4,196.0,2.0,24,162.0
1116,D5,196.0,2.0,24,162.0
1117,D6,196.5,1.0,42,162.0
1118,F#6,197.5,0.375,41,162.0
1119,F#6,197.875,0.125,34,162.0
1120,G5,198.0,2.0,28,162.0
1121,B5,198.0,2.0,28,162.0
1122,E4,198.0,2.0,20,162.0
1123,B4,198.0,2.0,20,162.0
1124,E5,198.0,2.0,20,162.0
1125,D6,200.0,1.0,42,162.0
1126,G4,200.0,1.0,32,162.0
1127,D5,200.0,2.0,24,162.0
1128,G5,200.0,2.0,24,162.0
1129,B5,200.0,2.0,24,162.0
1130,E6,201.0,0.5,42,162.0
1131,F#4,201.0,1.0,32,162.0
1132,F#6,201.5,0.5,42,162.0
1133,G5,202.0,2.0,24,162.0
1134,G6,202.0,1.0,47,162.0
1135,B4,202.0,1.0,33,162.0
1136,E5,202.0,2.0,24,162.0
1137,E4,202.0,2.0,24,162.0
1138,F#6,203.0,0.5,42,162.0
1139,B-4,203.0,1.0,31,162.0
1140,E6,203.5,0.5,42,162.0
1141,G5,204.0,2.0,23,162.0
1142,F#6,204.0,0.5,44,162.0
1143,A4,204.0,2.0,24,162.0
1144,D5,204.0,1.0,35,162.0
1145,B5,204.5,1.0,42,162.0
1146,C#5,205.0,1.0,33,162.0
1147,F#6,205.5,0.375,41,162.0
1148,F#6,205.875,0.125,34,162.0
1149,A4,206.0,1.0,31,162.0
1150,F#5,206.0,2.0,28,162.0
1151,D6,206.0,2.0,28,162.0
1152,D4,206.0,499/250,20,162.0
1153,D5,206.0,499/250,20,162.0
1154,B-4,207.0,1.0,27,162.0
1155,D5,208.0,1.0,41,162.0
1156,B4,208.5,1.5,26,162.0
1157,G4,208.5,1.5,26,162.0
1158,G3,208.5,1.5,26,162.0
1159,D4,208.5,1.5,26,162.0
1160,E5,209.0,0.5,41,162.0
1161,F#5,209.5,0.5,41,162.0
1162,G5,210.0,1.0,44,162.0
1163,G4,210.5,1.5,26,162.0
1164,E3,210.5,1.5,26,162.0
1165,B3,210.5,1.5,26,162.0
1166,E4,210.5,1.5,26,162.0
1167,F#5,211.0,0.5,41,162.0
1168,E5,211.5,0.5,41,162.0
1169,F#5,212.0,0.5,43,162.0
1170,G4,212.5,1.5,25,162.0
1171,B4,212.5,1.5,25,162.0
1172,G3,212.5,1.5,26,162.0
1173,D4,212.5,1.5,26,162.0
1174,D5,213.0,0.5,41,162.0
1175,F#5,213.5,0.375,40,162.0
1176,F#5,213.875,0.125,33,162.0
1177,B4,214.0,2.0,35,162.0
1178,G4,214.5,1.5,21,162.0
1179,E4,214.5,1.5,21,162.0
1180,E3,214.5,1.5,21,162.0
1181,B3,214.5,1.5,21,162.0
1182,D5,216.0,1.0,43,162.0
1183,G3,216.5,1.0,33,162.0
1184,D4,216.5,1.5,26,162.0
1185,G4,216.5,1.5,26,162.0
1186,B4,216.5,1.5,26,162.0
1187,E5,217.0,0.5,43,162.0
1188,F#5,217.5,0.5,43,162.0
1189,F#3,217.5,0.5,33,162.0
1190,G5,218.0,1.0,47,162.0
1191,G4,218.5,1.5,26,162.0
1192,B3,218.5,1.0,37,162.0
1193,E3,218.5,1.5,29,162.0
1194,E4,218.5,1.5,29,162.0
1195,F#5,219.0,0.5,42,162.0
1196,E5,219.5,0.5,44,162.0
1197,B-3,219.5,0.5,33,162.0
1198,F#5,220.0,1.0,50,162.0
1199,A2,220.375,1.625,26,162.0
1200,G4,220.5,1.5,33,162.0
1201,D4,220.5,1.0,33,162.0
1202,B4,221.0,0.5,41,162.0
1203,F#5,221.5,0.375,40,162.0
1204,C#4,221.5,0.5,33,162.0
1205,F#5,221.875,0.125,33,162.0
1206,D5,222.0,2.0,35,162.0
1207,F#4,222.5,1.5,21,162.0
1208,D4,222.5,1.5,21,162.0
1209,D3,222.5,1.5,21,162.0
1210,A3,222.5,1.5,21,162.0
1211,D4,224.0,167/1000,35,162.0
1212,C5,224.167,167/1000,35,162.0
1213,F#5,224.333,167/1000,35,162.0
1214,A5,224.5,167/1000,35,162.0
1215,C6,224.667,167/1000,35,162.0
1216,A6,224.833,167/1000,35,162.0
1217,E6,225.0,1.0,41,162.0
1218,C6,225.0,1.0,40,162.0
1219,D4,226.0,0.25,40,162.0
1220,G5,226.5,0.25,40,162.0
1221,B4,226.5,0.25,40,162.0
1222,D6,226.75,0.25,36,162.0
1223,B5,227.0,0.25,40,162.0
1224,D5,227.0,0.25,39,162.0
1225,G6,227.25,0.25,36,162.0
1226,D6,227.5,0.25,40,162.0
1227,G5,227.5,0.25,39,162.0
1228,B6,227.75,0.25,36,162.0
1229,D4,228.0,167/1000,35,162.0
1230,A4,228.167,167/1000,35,162.0
1231,C#5,228.333,167/1000,35,162.0
1232,E5,228.5,167/1000,35,162.0
1233,G5,228.667,167/1000,35,162.0
1234,E6,228.833,167/1000,35,162.0
1235,B5,229.0,1.0,41,162.0
1236,G5,229.0,1.0,40,162.0
1237,D4,230.0,0.25,40,162.0
1238,F#5,230.5,0.25,40,162.0
1239,A4,230.5,0.25,40,162.0
1240,D6,230.75,0.25,36,162.0
1241,A5,231.0,0.25,40,162.0
1242,D5,231.0,0.25,39,162.0
1243,F#6,231.25,0.25,36,162.0
1244,D6,231.5,0.25,40,162.0
1245,F#5,231.5,0.25,39,162.0
1246,A6,231.75,0.25,36,162.0
1247,D3,232.0,167/1000,35,162.0
1248,C4,232.169,167/1000,35,162.0
1249,F#4,232.333,167/1000,35,162.0
1250,A4,232.5,167/1000,35,162.0
1251,C5,232.667,167/1000,35,162.0
1252,A5,232.833,167/1000,34,162.0
1253,E5,233.0,1.0,40,162.0
1254,C5,233.0,1.0,39,162.0
1255,D3,234.0,0.25,39,162.0
1256,B4,234.5,0.25,37,162.0
1257,B3,234.5,0.25,37,162.0
1258,D5,234.75,0.25,35,162.0
1259,B4,235.0,0.25,37,162.0
1260,D4,235.0,0.25,36,162.0
1261,G5,235.25,0.25,34,162.0
1262,D5,235.5,0.25,37,162.0
1263,G4,235.5,0.25,36,162.0
1264,B5,235.75,0.25,34,162.0
1265,D3,236.0,167/1000,33,162.0
1266,A3,236.167,167/1000,33,162.0
1267,C#4,236.333,167/1000,33,162.0
1268,E4,236.5,167/1000,33,162.0
1269,G4,236.667,167/1000,33,162.0
1270,E5,236.833,167/1000,33,162.0
1271,B4,237.0,1.0,39,162.0
1272,G4,237.0,1.0,37,162.0
1273,D3,238.0,0.25,35,162.0
1274,F#4,238.5,0.25,37,162.0
1275,A3,238.5,0.25,37,162.0
1276,D5,238.75,0.25,35,162.0
1277,A4,239.0,0.25,39,162.0
1278,D4,239.0,0.25,40,162.0
1279,F#5,239.25,0.25,35,162.0
1280,D5,239.5,0.25,39,162.0
1281,A4,239.5,0.25,42,162.0
1282,A5,239.75,0.25,35,162.0
1283,D5,240.0,0.25,46,162.0
1284,A4,240.5,0.25,43,162.0
1285,D4,241.0,0.25,43,162.0
1286,A4,241.5,0.25,43,162.0
1287,D4,242.0,0.25,43,162.0
1288,A3,242.5,0.25,43,162.0
1289,D4,243.0,0.25,42,162.0
1290,A3,243.5,0.25,41,162.0
1291,D3,244.0,0.25,42,162.0
1292,A3,244.5,0.25,40,162.0
1293,D3,245.0,0.25,42,162.0
1294,A2,245.5,0.25,41,162.0
1295,D2,246.0,0.25,41,162.0
1296,A2,246.5,0.25,31,162.0
1297,D2,247.0,0.25,32,162.0
1298,A2,247.5,0.25,31,162.0
1299,D2,248.0,0.25,32,162.0
1300,A2,248.5,0.25,31,162.0
1301,D2,249.0,0.25,32,162.0
1302,D4,249.5,0.125,36,162.0
1303,A2,249.5,0.25,31,162.0
1304,E4,249.625,0.125,36,162.0
1305,F4,249.75,0.125,36,162.0
1306,G4,249.875,0.125,36,162.0
1307,A4,250.0,0.25,38,162.0
1308,D2,250.0,0.25,32,162.0
1309,A2,250.5,0.25,31,162.0
1310,D4,250.5,0.25,34,162.0
1311,F4,250.5,0.25,34,162.0
1312,D5,250.5,0.25,34,162.0
1313,D2,251.0,0.25,32,162.0
1314,D4,251.0,0.25,34,162.0
1315,D5,251.0,0.25,34,162.0
1316,F4,251.0,0.25,34,162.0
1317,A2,251.5,0.25,31,162.0
1318,D4,251.5,0.25,34,162.0
1319,C#5,251.5,0.25,34,162.0
1320,F4,251.5,0.25,34,162.0
1321,D2,252.0,0.25,32,162.0
1322,F4,252.0,0.25,36,162.0
1323,C#5,252.0,0.25,36,162.0
1324,D4,252.0,0.25,36,162.0
1325,A2,252.5,0.25,31,162.0
1326,D4,252.5,0.25,34,162.0
1327,C5,252.5,0.25,34,162.0
1328,F4,252.5,0.25,34,162.0
1329,D2,253.0,0.25,32,162.0
1330,F4,253.0,0.25,34,162.0
1331,D4,253.0,0.25,34,162.0
1332,C5,253.0,0.25,34,162.0
1333,A2,253.5,0.25,31,162.0
1334,F4,253.5,0.25,34,162.0
1335,D4,253.5,0.25,34,162.0
1336,B4,253.5,0.25,34,162.0
1337,D2,254.0,0.25,32,162.0
1338,D4,254.0,0.25,36,162.0
1339,F4,254.0,0.25,36,162.0
1340,B4,254.0,0.25,36,162.0
1341,A2,254.5,0.25,29,162.0
1342,D4,254.5,0.25,33,162.0
1343,B-4,254.5,0.25,33,162.0
1344,F4,254.5,0.25,33,162.0
1345,D2,255.0,0.25,32,162.0
1346,D4,255.0,0.25,33,162.0
1347,B-4,255.0,0.25,33,162.0
1348,F4,255.0,0.25,33,162.0
1349,A2,255.5,0.25,29,162.0
1350,F4,255.5,0.25,32,162.0
1351,D4,255.5,0.25,32,162.0
1352,A4,255.5,0.25,32,162.0
1353,D2,256.0,0.25,32,162.0
1354,E4,256.0,0.25,43,162.0
1355,B3,256.0,0.25,43,162.0
1356,G#4,256.0,0.25,43,162.0
1357,A2,256.5,0.25,31,162.0
1358,B3,256.5,1.0,43,162.0
1359,E4,256.5,1.0,43,162.0
1360,G#4,256.5,1.0,43,162.0
1361,D2,257.0,0.25,32,162.0
1362,G4,257.5,0.125,36,162.0
1363,A2,257.5,0.25,31,162.0
1364,A4,257.625,0.125,36,162.0
1365,B-4,257.75,0.125,36,162.0
1366,C5,257.875,0.125,36,162.0
1367,D5,258.0,0.25,38,162.0
1368,D2,258.0,0.25,32,162.0
1369,A2,258.5,0.25,31,162.0
1370,G4,258.5,0.25,34,162.0
1371,B-4,258.5,0.25,34,162.0
1372,G5,258.5,0.25,34,162.0
1373,D2,259.0,0.25,32,162.0
1374,G5,259.0,0.25,34,162.0
1375,B-4,259.0,0.25,34,162.0
1376,G4,259.0,0.25,34,162.0
1377,A2,259.5,0.25,31,162.0
1378,B-4,259.5,0.25,34,162.0
1379,F#5,259.5,0.25,34,162.0
1380,G4,259.5,0.25,34,162.0
1381,D2,260.0,0.25,32,162.0
1382,B-4,260.0,0.25,36,162.0
1383,F#5,260.0,0.25,36,162.0
1384,G4,260.0,0.25,36,162.0
1385,A2,260.5,0.25,31,162.0
1386,G4,260.5,0.25,34,162.0
1387,B-4,260.5,0.25,34,162.0
1388,F5,260.5,0.25,34,162.0
1389,D2,261.0,0.25,32,162.0
1390,B-4,261.0,0.25,34,162.0
1391,G4,261.0,0.25,34,162.0
1392,F5,261.0,0.25,34,162.0
1393,A2,261.5,0.25,31,162.0
1394,G4,261.5,0.25,34,162.0
1395,B-4,261.5,0.25,34,162.0
1396,E5,261.5,0.25,34,162.0
1397,D2,262.0,0.25,32,162.0
1398,B-4,262.0,0.25,36,162.0
1399,E5,262.0,0.25,36,162.0
1400,G4,262.0,0.25,36,162.0
1401,A2,262.5,0.25,29,162.0
1402,E-5,262.5,0.25,32,162.0
1403,G4,262.5,0.25,32,162.0
1404,B-4,262.5,0.25,32,162.0
1405,D2,263.0,0.25,32,162.0
1406,B-4,263.0,0.25,32,162.0
1407,G4,263.0,0.25,32,162.0
1408,E-5,263.0,0.25,32,162.0
1409,A2,263.5,0.25,29,162.0
1410,D5,263.5,0.25,32,162.0
1411,B-4,263.5,0.25,32,162.0
1412,G4,263.5,0.25,32,162.0
1413,D2,264.0,0.25,32,162.0
1414,E4,264.0,0.25,44,162.0
1415,A4,264.0,0.25,44,162.0
1416,C#5,264.0,0.25,44,162.0
1417,A2,264.5,0.25,31,162.0
1418,C#5,264.5,1.0,44,162.0
1419,A4,264.5,1.0,44,162.0
1420,E4,264.5,1.0,44,162.0
1421,D2,265.0,0.25,32,162.0
1422,A2,265.5,0.25,31,162.0
1423,D5,266.0,0.125,46,162.0
1424,E5,266.125,0.125,35,162.0
1425,F5,266.25,0.125,35,162.0
1426,G5,266.375,0.125,35,162.0
1427,A5,266.5,0.25,40,162.0
1428,F4,266.5,0.25,32,162.0
1429,B-3,266.5,0.25,32,162.0
1430,G5,267.0,0.125,46,162.0
1431,F5,267.125,0.125,36,162.0
1432,E5,267.25,0.125,36,162.0
1433,D5,267.375,0.125,36,162.0
1434,C5,267.5,0.25,40,162.0
1435,C4,267.5,0.25,32,162.0
1436,F3,267.5,0.25,32,162.0
1437,B-4,268.0,0.125,45,162.0
1438,C5,268.125,0.125,36,162.0
1439,D5,268.25,0.125,36,162.0
1440,E5,268.375,0.125,36,162.0
1441,F5,268.5,0.25,41,162.0
1442,D4,268.5,0.25,32,162.0
1443,G3,268.5,0.25,32,162.0
1444,E5,269.0,0.125,46,162.0
1445,D5,269.125,0.125,37,162.0
1446,C5,269.25,0.125,37,162.0
1447,B-4,269.375,0.125,37,162.0
1448,A4,269.5,0.25,43,162.0
1449,D3,269.5,0.25,32,162.0
1450,A3,269.5,0.25,32,162.0
1451,G4,270.0,0.125,46,162.0
1452,A4,270.125,0.125,37,162.0
1453,B-4,270.25,0.125,37,162.0
1454,C5,270.375,0.125,37,162.0
1455,D5,270.5,0.25,44,162.0
1456,E-3,270.5,0.25,32,162.0
1457,B-3,270.5,0.25,32,162.0
1458,C5,271.0,0.125,47,162.0
1459,B-4,271.125,0.125,37,162.0
1460,A4,271.25,0.125,37,162.0
1461,G4,271.375,0.125,37,162.0
1462,F4,271.5,0.25,43,162.0
1463,B-2,271.5,0.25,32,162.0
1464,F3,271.5,0.25,32,162.0
1465,A2,272.0,0.25,37,162.0
1466,E3,272.5,0.25,32,162.0
1467,A3,272.5,1.5,45,162.0
1468,E4,272.5,1.5,45,162.0
1469,A2,273.0,0.25,38,162.0
1470,E3,273.5,0.25,32,162.0
1471,D6,274.0,0.125,47,162.0
1472,E-2,274.0,0.25,37,162.0
1473,C6,274.125,0.125,37,162.0
1474,B-5,274.25,0.125,37,162.0
1475,A5,274.375,0.125,37,162.0
1476,G5,274.5,0.25,40,162.0
1477,B-2,274.5,0.25,32,162.0
1478,D5,275.0,0.125,48,162.0
1479,E-2,275.0,0.25,37,162.0
1480,C5,275.125,0.125,37,162.0
1481,B-4,275.25,0.125,37,162.0
1482,A4,275.375,0.125,37,162.0
1483,G4,275.5,0.25,40,162.0
1484,B-2,275.5,0.25,32,162.0
1485,A2,276.0,0.25,37,162.0
1486,E3,276.5,0.25,32,162.0
1487,A3,276.5,1.5,45,162.0
1488,E4,276.5,1.5,45,162.0
1489,A2,277.0,0.25,38,162.0
1490,E3,277.5,0.25,32,162.0
1491,D6,278.0,0.125,47,162.0
1492,E-2,278.0,0.25,37,162.0
1493,C6,278.125,0.125,37,162.0
1494,B-5,278.25,0.125,37,162.0
1495,A5,278.375,0.125,37,162.0
1496,G5,278.5,0.25,40,162.0
1497,B-2,278.5,0.25,32,162.0
1498,D5,279.0,0.125,48,162.0
1499,E-2,279.0,0.25,37,162.0
1500,C5,279.125,0.125,37,162.0
1501,B-4,279.25,0.125,37,162.0
1502,A4,279.375,0.125,37,162.0
1503,G4,279.5,0.25,40,162.0
1504,B-2,279.5,0.25,32,162.0
1505,A2,280.0,0.25,37,162.0
1506,E3,280.5,0.25,32,162.0
1507,A3,280.5,0.5,45,162.0
1508,E4,280.5,0.5,45,162.0
1509,D5,281.0,0.125,40,162.0
1510,E-2,281.0,0.25,38,162.0
1511,C5,281.125,0.125,36,162.0
1512,B-4,281.25,0.125,36,162.0
1513,A4,281.375,0.125,36,162.0
1514,G4,281.5,0.25,40,162.0
1515,B-2,281.5,0.25,31,162.0
1516,A2,282.0,0.25,34,162.0
1517,E3,282.5,0.25,32,162.0
1518,E4,282.5,0.5,38,162.0
1519,A3,282.5,0.5,38,162.0
1520,D5,283.0,0.125,34,162.0
1521,E-2,283.0,0.25,34,162.0
1522,C5,283.125,0.125,34,162.0
1523,B-4,283.25,0.125,34,162.0
1524,A4,283.375,0.125,34,162.0
1525,G4,283.5,0.25,32,162.0
1526,B-2,283.5,0.25,29,162.0
1527,A2,284.0,0.25,35,162.0
1528,E3,284.5,0.25,32,162.0
1529,E4,284.5,0.5,37,162.0
1530,A3,284.5,0.5,37,162.0
1531,D5,285.0,0.125,32,162.0
1532,E-2,285.0,0.25,34,162.0
1533,C5,285.125,0.125,32,162.0
1534,B-4,285.25,0.125,32,162.0
1535,A4,285.375,0.125,32,162.0
1536,G4,285.5,0.25,29,162.0
1537,B-2,285.5,0.25,28,162.0
1538,A2,286.0,0.25,32,162.0
1539,E3,286.5,0.25,29,162.0
1540,A3,286.5,0.5,35,162.0
1541,E4,286.5,0.5,35,162.0
1542,D5,287.0,0.125,32,162.0
1543,E-2,287.0,0.25,32,162.0
1544,C5,287.125,0.125,32,162.0
1545,B-4,287.25,0.125,32,162.0
1546,A4,287.375,0.125,32,162.0
1547,G4,287.5,0.25,29,162.0
1548,B-2,287.5,0.25,27,162.0
1549,A2,288.0,0.25,46,162.0
1550,E3,288.5,0.25,41,162.0
1551,A3,288.5,0.25,37,162.0
1552,E4,288.5,0.25,37,162.0
1553,C#4,288.5,0.25,37,162.0
1554,B-2,289.0,0.25,46,162.0
1555,E3,289.5,0.25,41,162.0
1556,B-3,289.5,0.25,37,162.0
1557,E4,289.5,0.25,37,162.0
1558,C#4,289.5,0.25,37,162.0
1559,G#2,290.0,0.25,44,162.0
1560,E3,290.5,0.25,42,162.0
1561,C#4,290.5,0.25,34,162.0
1562,G#3,290.5,0.25,34,162.0
1563,E4,290.5,0.25,34,162.0
1564,A2,291.0,0.25,46,162.0
1565,E3,291.5,0.25,43,162.0
1566,C#4,291.5,0.25,35,162.0
1567,E4,291.5,0.25,35,162.0
1568,A3,291.5,0.25,35,162.0
1569,B-2,292.0,0.25,48,162.0
1570,E3,292.5,0.25,43,162.0
1571,C#4,292.5,0.25,36,162.0
1572,B-3,292.5,0.25,36,162.0
1573,E4,292.5,0.25,36,162.0
1574,B2,293.0,0.25,51,162.0
1575,E3,293.5,0.25,45,162.0
1576,C#4,293.5,0.25,40,162.0
1577,B3,293.5,0.25,40,162.0
1578,E4,293.5,0.25,40,162.0
1579,C3,294.0,0.25,53,162.0
1580,E3,294.5,0.25,49,162.0
1581,C4,294.5,0.25,41,162.0
1582,C#4,294.5,0.25,41,162.0
1583,E4,294.5,0.25,41,162.0
1584,B2,295.0,0.25,57,162.0
1585,E3,295.5,0.25,50,162.0
1586,B3,295.5,0.25,43,162.0
1587,E4,295.5,0.25,43,162.0
1588,C#4,295.5,0.25,43,162.0
1589,B-2,296.0,0.25,58,162.0
1590,E3,296.5,0.25,53,162.0
1591,B-3,296.5,0.25,45,162.0
1592,E4,296.5,0.25,45,162.0
1593,C#4,296.5,0.25,45,162.0
1594,A2,297.0,0.25,60,162.0
1595,E3,297.5,0.25,54,162.0
1596,C#4,297.5,0.25,48,162.0
1597,A3,297.5,0.25,48,162.0
1598,E4,297.5,0.25,48,162.0
1599,G#2,298.0,0.25,63,162.0
1600,E3,298.5,0.25,58,162.0
1601,C#4,298.5,0.25,49,162.0
1602,G#3,298.5,0.25,49,162.0
1603,E4,298.5,0.25,49,162.0
1604,G2,299.0,0.25,66,162.0
1605,C#3,299.5,0.25,60,162.0
1606,G3,299.5,0.25,51,162.0
1607,B-3,299.5,0.25,51,162.0
1608,C#4,299.5,0.25,51,162.0
1609,F#2,300.0,0.25,69,162.0
1610,C#3,300.5,0.25,64,162.0
1611,F#3,300.5,0.25,53,162.0
1612,C#4,300.5,0.25,53,162.0
1613,B-3,300.5,0.25,53,162.0
1614,F2,301.0,0.25,77,162.0
1615,C#3,301.5,0.25,69,162.0
1616,F3,301.5,0.25,55,162.0
1617,C#4,301.5,0.25,55,162.0
1618,B-3,301.5,0.25,55,162.0
1619,E2,302.0,0.25,83,162.0
1620,C#3,302.5,0.25,76,162.0
1621,A3,302.5,0.25,58,162.0
1622,E3,302.5,0.25,58,162.0
1623,C#4,302.5,0.25,58,162.0
1624,E-2,303.0,0.25,86,162.0
1625,C#3,303.5,0.25,79,162.0
1626,G3,303.5,0.25,59,162.0
1627,A3,303.5,0.25,59,162.0
1628,C#4,303.5,0.25,59,162.0
1629,E-3,303.5,0.25,59,162.0
1630,D2,304.0,0.25,94,162.0
1631,D3,304.0,0.25,94,162.0
1632,A1,304.5,0.25,74,162.0
1633,A2,304.5,0.25,74,162.0
1634,D2,305.0,0.25,87,162.0
1635,D3,305.0,0.25,87,162.0
1636,A1,305.5,0.25,74,162.0
1637,A2,305.5,0.25,74,162.0
1638,D2,306.0,0.25,87,162.0
1639,D3,306.0,0.25,87,162.0
1640,A1,306.5,0.25,74,162.0
1641,A2,306.5,0.25,74,162.0
1642,D2,307.0,0.25,87,162.0
1643,D3,307.0,0.25,87,162.0
1644,D5,307.5,0.125,86,162.0
1645,A2,307.5,0.25,74,162.0
1646,A1,307.5,0.25,74,162.0
1647,E5,307.625,0.125,86,162.0
1648,F5,307.75,0.125,86,162.0
1649,G5,307.875,0.125,86,162.0
1650,A5,308.0,0.25,90,162.0
1651,D2,308.0,0.25,78,162.0
1652,D3,308.0,0.25,78,162.0
1653,D5,308.5,0.25,72,162.0
1654,F5,308.5,0.25,72,162.0
1655,D6,308.5,0.25,72,162.0
1656,A1,308.5,0.25,66,162.0
1657,A2,308.5,0.25,66,162.0
1658,D5,309.0,0.25,72,162.0
1659,F5,309.0,0.25,72,162.0
1660,D6,309.0,0.25,72,162.0
1661,D2,309.0,0.25,78,162.0
1662,D3,309.0,0.25,78,162.0
1663,D5,309.5,0.25,72,162.0
1664,F5,309.5,0.25,72,162.0
1665,C#6,309.5,0.25,72,162.0
1666,A2,309.5,0.25,66,162.0
1667,A1,309.5,0.25,66,162.0
1668,D5,310.0,0.25,77,162.0
1669,F5,310.0,0.25,77,162.0
1670,C#6,310.0,0.25,77,162.0
1671,D2,310.0,0.25,78,162.0
1672,D3,310.0,0.25,78,162.0
1673,D5,310.5,0.25,72,162.0
1674,F5,310.5,0.25,72,162.0
1675,C6,310.5,0.25,72,162.0
1676,A1,310.5,0.25,66,162.0
1677,A2,310.5,0.25,66,162.0
1678,F5,311.0,0.25,72,162.0
1679,C6,311.0,0.25,72,162.0
1680,D5,311.0,0.25,72,162.0
1681,D2,311.0,0.25,78,162.0
1682,D3,311.0,0.25,78,162.0
1683,D5,311.5,0.25,72,162.0
1684,F5,311.5,0.25,72,162.0
1685,B5,311.5,0.25,72,162.0
1686,A2,311.5,0.25,66,162.0
1687,A1,311.5,0.25,66,162.0
1688,D5,312.0,0.25,77,162.0
1689,F5,312.0,0.25,77,162.0
1690,B5,312.0,0.25,77,162.0
1691,D2,312.0,0.25,78,162.0
1692,D3,312.0,0.25,78,162.0
1693,D5,312.5,0.25,73,162.0
1694,F5,312.5,0.25,73,162.0
1695,B-5,312.5,0.25,73,162.0
1696,A1,312.5,0.25,66,162.0
1697,A2,312.5,0.25,66,162.0
1698,D5,313.0,0.25,73,162.0
1699,F5,313.0,0.25,73,162.0
1700,B-5,313.0,0.25,73,162.0
1701,D2,313.0,0.25,78,162.0
1702,D3,313.0,0.25,78,162.0
1703,F5,313.5,0.25,73,162.0
1704,A5,313.5,0.25,73,162.0
1705,D5,313.5,0.25,73,162.0
1706,A2,313.5,0.25,66,162.0
1707,A1,313.5,0.25,66,162.0
1708,B4,314.0,0.25,84,162.0
1709,E5,314.0,0.25,84,162.0
1710,G#5,314.0,0.25,84,162.0
1711,D2,314.0,0.25,78,162.0
1712,D3,314.0,0.25,78,162.0
1713,B4,314.5,1.0,87,162.0
1714,E5,314.5,1.0,87,162.0
1715,G#5,314.5,1.0,87,162.0
1716,A1,314.5,0.25,66,162.0
1717,A2,314.5,0.25,66,162.0
1718,D2,315.0,0.25,78,162.0
1719,D3,315.0,0.25,78,162.0
1720,G5,315.5,0.125,86,162.0
1721,A2,315.5,0.25,66,162.0
1722,A1,315.5,0.25,66,162.0
1723,A5,315.625,0.125,86,162.0
1724,B-5,315.75,0.125,86,162.0
1725,C6,315.875,0.125,86,162.0
1726,D6,316.0,0.25,90,162.0
1727,D2,316.0,0.25,78,162.0
1728,D3,316.0,0.25,78,162.0
1729,G5,316.5,0.25,72,162.0
1730,G6,316.5,0.25,72,162.0
1731,B-5,316.5,0.25,72,162.0
1732,A1,316.5,0.25,66,162.0
1733,A2,316.5,0.25,66,162.0
1734,G6,317.0,0.25,72,162.0
1735,G5,317.0,0.25,72,162.0
1736,B-5,317.0,0.25,72,162.0
1737,D2,317.0,0.25,78,162.0
1738,D3,317.0,0.25,78,162.0
1739,G5,317.5,0.25,72,162.0
1740,B-5,317.5,0.25,72,162.0
1741,F#6,317.5,0.25,72,162.0
1742,A2,317.5,0.25,66,162.0
1743,A1,317.5,0.25,66,162.0
1744,F#6,318.0,0.25,77,162.0
1745,B-5,318.0,0.25,77,162.0
1746,G5,318.0,0.25,77,162.0
1747,D2,318.0,0.25,78,162.0
1748,D3,318.0,0.25,78,162.0
1749,G5,318.5,0.25,72,162.0
1750,F6,318.5,0.25,72,162.0
1751,B-5,318.5,0.25,72,162.0
1752,A1,318.5,0.25,66,162.0
1753,A2,318.5,0.25,66,162.0
1754,B-5,319.0,0.25,72,162.0
1755,G5,319.0,0.25,72,162.0
1756,F6,319.0,0.25,72,162.0
1757,D2,319.0,0.25,78,162.0
1758,D3,319.0,0.25,78,162.0
1759,G5,319.5,0.25,72,162.0
1760,E6,319.5,0.25,72,162.0
1761,B-5,319.5,0.25,72,162.0
1762,A2,319.5,0.25,66,162.0
1763,A1,319.5,0.25,66,162.0
1764,B-5,320.0,0.25,77,162.0
1765,G5,320.0,0.25,77,162.0
1766,E6,320.0,0.25,77,162.0
1767,D2,320.0,0.25,78,162.0
1768,D3,320.0,0.25,78,162.0
1769,G5,320.5,0.25,73,162.0
1770,E-6,320.5,0.25,73,162.0
1771,B-5,320.5,0.25,73,162.0
1772,A1,320.5,0.25,66,162.0
1773,A2,320.5,0.25,66,162.0
1774,B-5,321.0,0.25,73,162.0
1775,E-6,321.0,0.25,73,162.0
1776,G5,321.0,0.25,73,162.0
1777,D2,321.0,0.25,78,162.0
1778,D3,321.0,0.25,78,162.0
1779,D6,321.5,0.25,73,162.0
1780,B-5,321.5,0.25,73,162.0
1781,G5,321.5,0.25,73,162.0
1782,A2,321.5,0.25,66,162.0
1783,A1,321.5,0.25,66,162.0
1784,E5,322.0,0.25,84,162.0
1785,C#6,322.0,0.25,84,162.0
1786,A5,322.0,0.25,84,162.0
1787,D2,322.0,0.25,78,162.0
1788,D3,322.0,0.25,78,162.0
1789,C#6,322.5,1.0,87,162.0
1790,E5,322.5,1.0,87,162.0
1791,A5,322.5,1.0,87,162.0
1792,A1,322.5,0.25,66,162.0
1793,A2,322.5,0.25,66,162.0
1794,D2,323.0,0.25,78,162.0
1795,D3,323.0,0.25,78,162.0
1796,A2,323.5,0.25,66,162.0
1797,A1,323.5,0.25,66,162.0
1798,D6,324.0,0.125,106,162.0
1799,F4,324.0,0.25,78,162.0
1800,F3,324.0,0.25,78,162.0
1801,E6,324.125,0.125,83,162.0
1802,F6,324.25,0.125,83,162.0
1803,G6,324.375,0.125,83,162.0
1804,A6,324.5,0.25,83,162.0
1805,D2,324.5,0.25,66,162.0
1806,D3,324.5,0.25,66,162.0
1807,G6,325.0,0.125,104,162.0
1808,E3,325.0,0.25,78,162.0
1809,E4,325.0,0.25,78,162.0
1810,F6,325.125,0.125,84,162.0
1811,E6,325.25,0.125,84,162.0
1812,D6,325.375,0.125,84,162.0
1813,C6,325.5,0.25,85,162.0
1814,D2,325.5,0.25,66,162.0
1815,D3,325.5,0.25,66,162.0
1816,B-5,326.0,0.125,104,162.0
1817,D4,326.0,0.25,78,162.0
1818,D3,326.0,0.25,78,162.0
1819,C6,326.125,0.125,84,162.0
1820,D6,326.25,0.125,84,162.0
1821,E6,326.375,0.125,84,162.0
1822,F6,326.5,0.25,84,162.0
1823,D2,326.5,0.25,66,162.0
1824,D3,326.5,0.25,66,162.0
1825,E6,327.0,0.125,104,162.0
1826,C3,327.0,0.25,78,162.0
1827,C4,327.0,0.25,78,162.0
1828,D6,327.125,0.125,84,162.0
1829,C6,327.25,0.125,84,162.0
1830,B-5,327.375,0.125,84,162.0
1831,A5,327.5,0.25,84,162.0
1832,D2,327.5,0.25,66,162.0
1833,D3,327.5,0.25,66,162.0
1834,G5,328.0,0.125,104,162.0
1835,B-2,328.0,0.25,78,162.0
1836,B-3,328.0,0.25,78,162.0
1837,A5,328.125,0.125,86,162.0
1838,B-5,328.25,0.125,86,162.0
1839,C6,328.375,0.125,86,162.0
1840,D6,328.5,0.25,86,162.0
1841,D2,328.5,0.25,66,162.0
1842,D3,328.5,0.25,66,162.0
1843,C6,329.0,0.125,104,162.0
1844,A2,329.0,0.25,78,162.0
1845,A3,329.0,0.25,78,162.0
1846,B-5,329.125,0.125,86,162.0
1847,A5,329.25,0.125,85,162.0
1848,G5,329.375,0.125,85,162.0
1849,F5,329.5,0.25,85,162.0
1850,D2,329.5,0.25,66,162.0
1851,D3,329.5,0.25,66,162.0
1852,A5,330.0,0.25,94,162.0
1853,E6,330.0,0.25,94,162.0
1854,E5,330.0,0.25,94,162.0
1855,G2,330.0,0.25,78,162.0
1856,G3,330.0,0.25,78,162.0
1857,E5,330.5,1.0,94,162.0
1858,A5,330.5,1.0,94,162.0
1859,E6,330.5,1.0,94,162.0
1860,D2,330.5,0.25,66,162.0
1861,D3,330.5,0.25,66,162.0
1862,G2,331.0,0.25,78,162.0
1863,G3,331.0,0.25,78,162.0
1864,D2,331.5,0.25,66,162.0
1865,D3,331.5,0.25,66,162.0
1866,B-5,332.0,0.125,92,162.0
1867,D4,332.0,0.25,78,162.0
1868,D3,332.0,0.25,78,162.0
1869,C6,332.125,0.125,83,162.0
1870,D6,332.25,0.125,83,162.0
1871,E6,332.375,0.125,83,162.0
1872,F6,332.5,0.25,83,162.0
1873,D2,332.5,0.25,66,162.0
1874,D3,332.5,0.25,66,162.0
1875,E6,333.0,0.125,92,162.0
1876,C3,333.0,0.25,78,162.0
1877,C4,333.0,0.25,78,162.0
1878,D6,333.125,0.125,84,162.0
1879,C6,333.25,0.125,84,162.0
1880,B-5,333.375,0.125,84,162.0
1881,A5,333.5,0.25,85,162.0
1882,D2,333.5,0.25,66,162.0
1883,D3,333.5,0.25,66,162.0
1884,G5,334.0,0.125,92,162.0
1885,B-3,334.0,0.25,78,162.0
1886,B-2,334.0,0.25,78,162.0
1887,A5,334.125,0.125,84,162.0
1888,B-5,334.25,0.125,84,162.0
1889,C6,334.375,0.125,84,162.0
1890,D6,334.5,0.25,84,162.0
1891,D2,334.5,0.25,66,162.0
1892,D3,334.5,0.25,66,162.0
1893,C6,335.0,0.125,92,162.0
1894,A2,335.0,0.25,78,162.0
1895,A3,335.0,0.25,78,162.0
1896,B-5,335.125,0.125,84,162.0
1897,A5,335.25,0.125,84,162.0
1898,G5,335.375,0.125,84,162.0
1899,F5,335.5,0.25,84,162.0
1900,D2,335.5,0.25,66,162.0
1901,D3,335.5,0.25,66,162.0
1902,E-5,336.0,0.125,94,162.0
1903,G2,336.0,0.25,78,162.0
1904,G3,336.0,0.25,78,162.0
1905,F5,336.125,0.125,83,162.0
1906,G5,336.25,0.125,83,162.0
1907,A5,336.375,0.125,83,162.0
1908,B-5,336.5,0.25,83,162.0
1909,D2,336.5,0.25,66,162.0
1910,D3,336.5,0.25,66,162.0
1911,A5,337.0,0.125,92,162.0
1912,F2,337.0,0.25,78,162.0
1913,F3,337.0,0.25,78,162.0
1914,G5,337.125,0.125,83,162.0
1915,F5,337.25,0.125,83,162.0
1916,E-5,337.375,0.125,83,162.0
1917,D5,337.5,0.25,83,162.0
1918,D2,337.5,0.25,66,162.0
1919,D3,337.5,0.25,66,162.0
1920,E5,338.0,0.25,86,162.0
1921,A5,338.0,0.25,86,162.0
1922,A4,338.0,0.25,86,162.0
1923,E2,338.0,0.25,78,162.0
1924,E3,338.0,0.25,78,162.0
1925,A4,338.5,1.0,86,162.0
1926,E5,338.5,1.0,86,162.0
1927,A5,338.5,1.0,86,162.0
1928,D2,338.5,0.25,66,162.0
1929,D3,338.5,0.25,66,162.0
1930,E2,339.0,0.25,78,162.0
1931,E3,339.0,0.25,78,162.0
1932,D2,339.5,0.25,66,162.0
1933,D3,339.5,0.25,66,162.0
1934,D5,340.0,0.125,75,162.0
1935,F3,340.0,0.25,62,162.0
1936,E5,340.125,0.125,66,162.0
1937,F5,340.25,0.125,66,162.0
1938,G5,340.375,0.125,66,162.0
1939,A5,340.5,0.25,66,162.0
1940,D2,340.5,0.25,52,162.0
1941,G5,341.0,0.125,77,162.0
1942,E3,341.0,0.25,60,162.0
1943,F5,341.125,0.125,65,162.0
1944,E5,341.25,0.125,65,162.0
1945,D5,341.375,0.125,65,162.0
1946,C5,341.5,0.25,65,162.0
1947,D2,341.5,0.25,51,162.0
1948,B-4,342.0,0.125,73,162.0
1949,D3,342.0,0.25,59,162.0
1950,C5,342.125,0.125,65,162.0
1951,D5,342.25,0.125,64,162.0
1952,E5,342.375,0.125,64,162.0
1953,F5,342.5,0.25,64,162.0
1954,D2,342.5,0.25,50,162.0
1955,E5,343.0,0.125,72,162.0
1956,C3,343.0,0.25,58,162.0
1957,D5,343.125,0.125,64,162.0
1958,C5,343.25,0.125,63,162.0
1959,B-4,343.375,0.125,63,162.0
1960,A4,343.5,0.25,63,162.0
1961,D2,343.5,0.25,49,162.0
1962,G4,344.0,0.125,71,162.0
1963,B-2,344.0,0.25,57,162.0
1964,A4,344.125,0.125,63,162.0
1965,B-4,344.25,0.125,63,162.0
1966,C5,344.375,0.125,62,162.0
1967,D5,344.5,0.25,62,162.0
1968,D2,344.5,0.25,48,162.0
1969,C5,345.0,0.125,71,162.0
1970,A2,345.0,0.25,56,162.0
1971,B-4,345.125,0.125,62,162.0
1972,A4,345.25,0.125,62,162.0
1973,G4,345.375,0.125,60,162.0
1974,F4,345.5,0.25,60,162.0
1975,D2,345.5,0.25,48,162.0
1976,G2,346.0,0.25,55,162.0
1977,E4,346.0,0.25,71,162.0
1978,A4,346.0,0.25,71,162.0
1979,E5,346.0,0.25,71,162.0
1980,D2,346.5,0.25,47,162.0
1981,E4,346.5,1.0,72,162.0
1982,A4,346.5,1.0,72,162.0
1983,E5,346.5,1.0,72,162.0
1984,G2,347.0,0.25,54,162.0
1985,D2,347.5,0.25,46,162.0
1986,B-4,348.0,0.125,58,162.0
1987,D3,348.0,0.25,49,162.0
1988,C5,348.125,0.125,54,162.0
1989,D5,348.25,0.125,54,162.0
1990,E5,348.375,0.125,54,162.0
1991,F5,348.5,0.25,54,162.0
1992,D2,348.5,0.25,41,162.0
1993,E5,349.0,0.125,60,162.0
1994,C3,349.0,0.25,48,162.0
1995,D5,349.125,0.125,54,162.0
1996,C5,349.25,0.125,54,162.0
1997,B-4,349.375,0.125,54,162.0
1998,A4,349.5,0.25,55,162.0
1999,D2,349.5,0.25,41,162.0
2000,G4,350.0,0.125,59,162.0
2001,B-2,350.0,0.25,48,162.0
2002,A4,350.125,0.125,54,162.0
2003,B-4,350.25,0.125,54,162.0
2004,C5,350.375,0.125,54,162.0
2005,D5,350.5,0.25,52,162.0
2006,D2,350.5,0.25,40,162.0
2007,C5,351.0,0.125,56,162.0
2008,A2,351.0,0.25,47,162.0
2009,B-4,351.125,0.125,52,162.0
2010,A4,351.25,0.125,52,162.0
2011,G4,351.375,0.125,52,162.0
2012,F4,351.5,0.25,52,162.0
2013,D2,351.5,0.25,40,162.0
2014,E-4,352.0,0.125,56,162.0
2015,G2,352.0,0.25,47,162.0
2016,F4,352.125,0.125,51,162.0
2017,G4,352.25,0.125,51,162.0
2018,A4,352.375,0.125,51,162.0
2019,B-4,352.5,0.25,51,162.0
2020,D2,352.5,0.25,40,162.0
2021,A4,353.0,0.125,55,162.0
2022,F2,353.0,0.25,46,162.0
2023,G4,353.125,0.125,50,162.0
2024,F4,353.25,0.125,50,162.0
2025,E-4,353.375,0.125,50,162.0
2026,D4,353.5,0.25,50,162.0
2027,D2,353.5,0.25,39,162.0
2028,E2,354.0,0.25,46,162.0
2029,A3,354.0,0.25,46,162.0
2030,E4,354.0,0.25,46,162.0
2031,A4,354.0,0.25,46,162.0
2032,D2,354.5,0.25,37,162.0
2033,A3,354.5,1.0,47,162.0
2034,E4,354.5,1.0,47,162.0
2035,A4,354.5,1.0,47,162.0
2036,E2,355.0,0.25,44,162.0
2037,D2,355.5,0.25,37,162.0
2038,D6,356.0,0.125,59,162.0
2039,E-2,356.0,0.25,47,162.0
2040,C6,356.125,0.125,47,162.0
2041,B-5,356.25,0.125,47,162.0
2042,A5,356.375,0.125,47,162.0
2043,G5,356.5,0.25,51,162.0
2044,A2,356.5,0.25,41,162.0
2045,D5,357.0,0.125,60,162.0
2046,E-2,357.0,0.25,47,162.0
2047,C5,357.125,0.125,47,162.0
2048,B-4,357.25,0.125,47,162.0
2049,A4,357.375,0.125,47,162.0
2050,G4,357.5,0.25,51,162.0
2051,A2,357.5,0.25,41,162.0
2052,D2,358.0,0.25,47,162.0
2053,A2,358.5,0.25,41,162.0
2054,A4,358.5,1.5,46,162.0
2055,A3,358.5,1.5,46,162.0
2056,E4,358.5,1.5,46,162.0
2057,D2,359.0,0.25,48,162.0
2058,A2,359.5,0.25,41,162.0
2059,D6,360.0,0.125,59,162.0
2060,E-2,360.0,0.25,47,162.0
2061,C6,360.125,0.125,47,162.0
2062,B-5,360.25,0.125,47,162.0
2063,A5,360.375,0.125,47,162.0
2064,G5,360.5,0.25,51,162.0
2065,A2,360.5,0.25,41,162.0
2066,D5,361.0,0.125,60,162.0
2067,E-2,361.0,0.25,47,162.0
2068,C5,361.125,0.125,47,162.0
2069,B-4,361.25,0.125,47,162.0
2070,A4,361.375,0.125,47,162.0
2071,G4,361.5,0.25,51,162.0
2072,A2,361.5,0.25,41,162.0
2073,D2,362.0,0.25,47,162.0
2074,A2,362.5,0.25,41,162.0
2075,A4,362.5,0.25,38,162.0
2076,A3,362.5,0.25,38,162.0
2077,E4,362.5,0.25,38,162.0
2078,D5,363.0,0.125,51,162.0
2079,E-2,363.0,0.25,48,162.0
2080,C5,363.125,0.125,46,162.0
2081,B-4,363.25,0.125,46,162.0
2082,A4,363.375,0.125,46,162.0
2083,G4,363.5,0.25,50,162.0
2084,A2,363.5,0.25,39,162.0
2085,D2,364.0,0.25,43,162.0
2086,A2,364.5,0.25,41,162.0
2087,A4,364.5,0.25,38,162.0
2088,A3,364.5,0.25,38,162.0
2089,E4,364.5,0.25,38,162.0
2090,D5,365.0,0.125,42,162.0
2091,E-2,365.0,0.25,43,162.0
2092,C5,365.125,0.125,42,162.0
2093,B-4,365.25,0.125,42,162.0
2094,A4,365.375,0.125,42,162.0
2095,G4,365.5,0.25,40,162.0
2096,A2,365.5,0.25,36,162.0
2097,D2,366.0,0.25,43,162.0
2098,A2,366.5,0.25,39,162.0
2099,A4,366.5,0.25,36,162.0
2100,A3,366.5,0.25,36,162.0
2101,E4,366.5,0.25,36,162.0
2102,D5,367.0,0.125,40,162.0
2103,E-2,367.0,0.25,42,162.0
2104,C5,367.125,0.125,40,162.0
2105,B-4,367.25,0.125,40,162.0
2106,A4,367.375,0.125,39,162.0
2107,G4,367.5,0.25,36,162.0
2108,A2,367.5,0.25,34,162.0
2109,D2,368.0,0.25,39,162.0
2110,A2,368.5,0.25,36,162.0
2111,A4,368.5,0.25,36,162.0
2112,A3,368.5,0.25,36,162.0
2113,E4,368.5,0.25,36,162.0
2114,D5,369.0,0.125,37,162.0
2115,E-2,369.0,0.25,37,162.0
2116,C5,369.125,0.125,37,162.0
2117,B-4,369.25,0.125,37,162.0
2118,A4,369.375,0.125,37,162.0
2119,G4,369.5,0.25,35,162.0
2120,A2,369.5,0.25,32,162.0
2121,D2,370.0,0.25,41,162.0
2122,A2,370.5,0.25,39,162.0
2123,D2,371.0,0.25,41,162.0
2124,D3,371.5,0.125,46,162.0
2125,A2,371.5,0.25,39,162.0
2126,E3,371.625,0.125,46,162.0
2127,F3,371.75,0.125,46,162.0
2128,G3,371.875,0.125,46,162.0
2129,A3,372.0,0.25,50,162.0
2130,D2,372.0,0.25,41,162.0
2131,A2,372.5,0.25,39,162.0
2132,D3,372.5,0.25,38,162.0
2133,F3,372.5,0.25,38,162.0
2134,D4,372.5,0.25,38,162.0
2135,D2,373.0,0.25,41,162.0
2136,D3,373.0,0.25,38,162.0
2137,F3,373.0,0.25,38,162.0
2138,D4,373.0,0.25,38,162.0
2139,A2,373.5,0.25,39,162.0
2140,D3,373.5,0.25,38,162.0
2141,F3,373.5,0.25,38,162.0
2142,C#4,373.5,0.25,38,162.0
2143,D2,374.0,0.25,41,162.0
2144,F3,374.0,0.25,41,162.0
2145,C#4,374.0,0.25,41,162.0
2146,D3,374.0,0.25,41,162.0
2147,A2,374.5,0.25,39,162.0
2148,D3,374.5,0.25,38,162.0
2149,F3,374.5,0.25,38,162.0
2150,C4,374.5,0.25,38,162.0
2151,D2,375.0,0.25,41,162.0
2152,D3,375.0,0.25,38,162.0
2153,F3,375.0,0.25,38,162.0
2154,C4,375.0,0.25,38,162.0
2155,A2,375.5,0.25,39,162.0
2156,D3,375.5,0.25,38,162.0
2157,F3,375.5,0.25,38,162.0
2158,B3,375.5,0.25,38,162.0
2159,D2,376.0,0.25,41,162.0
2160,D3,376.0,0.25,41,162.0
2161,F3,376.0,0.25,41,162.0
2162,B3,376.0,0.25,41,162.0
2163,A2,376.5,0.25,37,162.0
2164,F3,376.5,0.25,37,162.0
2165,B-3,376.5,0.25,37,162.0
2166,D3,376.5,0.25,37,162.0
2167,D2,377.0,0.25,41,162.0
2168,D3,377.0,0.25,37,162.0
2169,F3,377.0,0.25,37,162.0
2170,B-3,377.0,0.25,37,162.0
2171,A2,377.5,0.25,37,162.0
2172,D3,377.5,0.5,36,162.0
2173,F3,377.5,0.5,36,162.0
2174,A3,377.5,0.5,36,162.0
2175,D2,378.0,0.25,43,162.0
2176,D3,378.0,2.0,36,162.0
2177,F3,378.0,2.0,36,162.0
2178,A3,378.0,2.0,36,162.0
2179,A2,378.5,0.25,40,162.0
2180,D2,379.0,0.25,43,162.0
2181,A2,379.5,0.25,41,162.0
2182,D2,380.0,0.25,42,162.0
2183,A2,380.5,0.25,40,162.0
2184,D3,381.0,0.25,42,162.0
2185,A3,381.5,0.25,40,162.0
2186,D4,382.0,0.25,40,162.0
2187,A4,382.5,0.25,39,162.0
2188,D5,383.0,0.25,36,162.0
2189,A5,383.5,0.5,42,162.0
2190,A5,384.0,2.0,42,162.0
2191,D6,386.0,0.25,101,162.0
2192,A5,386.0,0.25,101,162.0
2193,D5,386.0,0.25,101,162.0
2194,D3,386.0,0.25,80,162.0
2195,D2,386.0,0.25,80,162.0
2196,A2,386.0,0.25,80,162.0
2197,D5,386.25,0.25,91,162.0
2198,A5,386.25,0.25,91,162.0
2199,D6,386.25,0.25,91,162.0
2200,D2,386.25,0.25,72,162.0
2201,D3,386.25,0.25,72,162.0
2202,A2,386.25,0.25,72,162.0
