,note_name,start_time,duration,velocity,tempo
0,D2,0.0,0.5,36,114.28
1,A2,0.0,0.5,36,114.28
2,A3,1.0,0.5,31,114.28
3,D3,1.0,0.5,31,114.28
4,D3,1.5,0.5,31,114.28
5,A3,1.5,0.5,31,114.28
6,D3,2.0,0.5,36,114.28
7,A3,2.0,0.5,36,114.28
8,D2,3.0,0.5,31,114.28
9,A2,3.0,0.5,31,114.28
10,A2,3.5,0.5,31,114.28
11,D2,3.5,0.5,31,114.28
12,D2,4.0,0.5,36,114.28
13,A2,4.0,0.5,36,114.28
14,D3,5.0,0.5,31,114.28
15,A3,5.0,0.5,31,114.28
16,D3,5.5,0.5,31,114.28
17,A3,5.5,0.5,31,114.28
18,D3,6.0,0.5,35,114.28
19,A3,6.0,0.5,35,114.28
20,D2,7.0,0.5,31,114.28
21,A2,7.0,0.5,31,114.28
22,A4,7.5,167/1000,39,114.28
23,A2,7.5,0.5,31,114.28
24,D2,7.5,0.5,31,114.28
25,B4,7.667,167/1000,39,114.28
26,A4,7.833,167/1000,41,114.28
27,F#4,8.0,1.0,44,114.28
28,A2,8.0,0.5,35,114.28
29,D2,8.0,0.5,35,114.28
30,A4,8.5,0.5,44,114.28
31,F#4,9.0,0.125,44,114.28
32,D5,9.0,0.125,44,114.28
33,D3,9.0,0.125,31,114.28
34,A3,9.0,0.125,31,114.28
35,F#5,9.5,0.125,44,114.28
36,F#4,9.5,0.125,44,114.28
37,D3,9.5,0.125,31,114.28
38,A3,9.5,0.125,31,114.28
39,E5,10.0,0.5,45,114.28
40,F#4,10.0,1.0,37,114.28
41,D3,10.0,0.5,35,114.28
42,A3,10.0,0.5,35,114.28
43,D5,10.5,0.5,42,114.28
44,F#4,11.0,0.125,42,114.28
45,D2,11.0,0.125,31,114.28
46,A2,11.0,0.125,31,114.28
47,A4,11.5,0.125,41,114.28
48,F#4,11.5,0.125,41,114.28
49,D2,11.5,0.125,31,114.28
50,A2,11.5,0.125,31,114.28
51,B4,12.0,0.5,45,114.28
52,A4,12.0,0.5,45,114.28
53,F#4,12.0,0.5,45,114.28
54,A2,12.0,1.0,35,114.28
55,D2,12.0,1.0,35,114.28
56,F#4,13.0,0.5,41,114.28
57,A4,13.0,0.5,41,114.28
58,B4,13.0,0.5,41,114.28
59,D3,13.0,0.5,33,114.28
60,A3,13.0,0.5,33,114.28
61,F#4,13.75,0.25,41,114.28
62,B4,13.75,0.25,41,114.28
63,A4,13.75,0.25,41,114.28
64,D3,13.75,0.25,33,114.28
65,A3,13.75,0.25,33,114.28
66,B4,14.0,1.0,41,114.28
67,A4,14.0,1.0,41,114.28
68,F#4,14.0,1.0,41,114.28
69,A3,14.0,1.0,33,114.28
70,D3,14.0,1.0,33,114.28
71,D4,15.0,0.125,42,114.28
72,F#4,15.0,0.125,42,114.28
73,D4,15.5,0.125,42,114.28
74,G#4,15.5,0.125,42,114.28
75,F#4,15.5,0.125,42,114.28
76,A4,16.0,0.5,45,114.28
77,D4,16.0,1.0,45,114.28
78,F#4,16.0,1.0,45,114.28
79,B1,16.0,1.0,34,114.28
80,F#2,16.0,1.0,34,114.28
81,B4,16.5,0.5,42,114.28
82,F#4,17.0,0.125,44,114.28
83,D4,17.0,0.125,44,114.28
84,F#3,17.0,0.125,31,114.28
85,B2,17.0,0.125,31,114.28
86,D4,17.5,0.125,44,114.28
87,G#4,17.5,0.125,44,114.28
88,F#4,17.5,0.125,44,114.28
89,B2,17.5,0.125,31,114.28
90,F#3,17.5,0.125,31,114.28
91,A4,18.0,0.5,45,114.28
92,D4,18.0,1.0,45,114.28
93,F#4,18.0,1.0,45,114.28
94,E2,18.0,1.0,34,114.28
95,B2,18.0,1.0,34,114.28
96,B4,18.5,0.5,42,114.28
97,D4,19.0,0.25,44,114.28
98,F#4,19.0,0.25,44,114.28
99,E3,19.0,0.25,31,114.28
100,B3,19.0,0.25,31,114.28
101,F#4,19.5,0.125,44,114.28
102,D4,19.5,0.125,44,114.28
103,G#4,19.5,0.125,44,114.28
104,E3,19.5,0.125,31,114.28
105,B3,19.5,0.125,31,114.28
106,D4,20.0,0.5,47,114.28
107,E4,20.0,0.5,47,114.28
108,A4,20.0,0.5,47,114.28
109,A1,20.0,1.0,35,114.28
110,E2,20.0,1.0,35,114.28
111,C#4,21.0,0.5,42,114.28
112,A4,21.0,0.5,42,114.28
113,A3,21.0,0.5,33,114.28
114,E4,21.0,0.5,33,114.28
115,A4,21.75,0.25,42,114.28
116,C#4,21.75,0.25,42,114.28
117,E4,21.75,0.25,33,114.28
118,A3,21.75,0.25,33,114.28
119,A4,22.0,0.5,42,114.28
120,C#4,22.0,0.5,42,114.28
121,E4,22.0,0.5,33,114.28
122,A3,22.0,0.5,33,114.28
123,C#5,23.5,167/1000,44,114.28
124,D5,23.667,167/1000,44,114.28
125,C#5,23.833,167/1000,44,114.28
126,B4,24.0,1.0,47,114.28
127,G2,24.0,1.0,39,114.28
128,D3,24.0,1.0,39,114.28
129,D5,24.5,0.5,47,114.28
130,G5,25.0,0.125,49,114.28
131,B4,25.0,0.125,49,114.28
132,D4,25.0,0.125,38,114.28
133,G3,25.0,0.125,38,114.28
134,B5,25.5,0.125,45,114.28
135,B4,25.5,0.125,45,114.28
136,G3,25.5,0.125,38,114.28
137,D4,25.5,0.125,38,114.28
138,A5,26.0,0.5,48,114.28
139,B4,26.0,1.0,41,114.28
140,G3,26.0,1.0,41,114.28
141,D4,26.0,1.0,41,114.28
142,G5,26.5,0.5,42,114.28
143,B4,27.0,0.125,42,114.28
144,G4,27.0,0.125,42,114.28
145,G4,27.5,0.125,42,114.28
146,B4,27.5,0.125,42,114.28
147,D5,27.5,0.125,42,114.28
148,F#5,28.0,0.5,46,114.28
149,D5,28.0,0.5,46,114.28
150,B4,28.0,0.5,46,114.28
151,G4,28.0,0.5,46,114.28
152,E2,28.0,1.0,36,114.28
153,B2,28.0,1.0,36,114.28
154,F#5,29.0,0.5,42,114.28
155,D5,29.0,0.5,42,114.28
156,B4,29.0,0.5,42,114.28
157,G4,29.0,0.5,42,114.28
158,B3,29.0,0.5,34,114.28
159,E3,29.0,0.5,34,114.28
160,F#5,29.75,0.25,42,114.28
161,D5,29.75,0.25,42,114.28
162,B4,29.75,0.25,42,114.28
163,G4,29.75,0.25,42,114.28
164,E3,29.75,0.25,34,114.28
165,B3,29.75,0.25,34,114.28
166,F#5,30.0,1.0,42,114.28
167,D5,30.0,1.0,42,114.28
168,G4,30.0,1.0,42,114.28
169,B4,30.0,1.0,42,114.28
170,E3,30.0,1.0,36,114.28
171,B3,30.0,1.0,36,114.28
172,B4,31.0,0.125,42,114.28
173,G4,31.0,0.125,42,114.28
174,C#5,31.5,0.125,42,114.28
175,B4,31.5,0.125,42,114.28
176,G4,31.5,0.125,42,114.28
177,D5,32.0,0.5,46,114.28
178,G4,32.0,1.0,46,114.28
179,B4,32.0,1.0,46,114.28
180,A2,32.0,1.0,39,114.28
181,E3,32.0,1.0,39,114.28
182,E5,32.5,0.5,42,114.28
183,B4,33.0,0.125,45,114.28
184,G4,33.0,0.125,45,114.28
185,E4,33.0,0.125,36,114.28
186,A3,33.0,0.125,36,114.28
187,G4,33.5,0.125,45,114.28
188,B4,33.5,0.125,45,114.28
189,C#5,33.5,0.125,45,114.28
190,A3,33.5,0.125,36,114.28
191,E4,33.5,0.125,36,114.28
192,D5,34.0,0.5,47,114.28
193,G4,34.0,1.0,47,114.28
194,B4,34.0,1.0,47,114.28
195,A3,34.0,1.0,39,114.28
196,E4,34.0,1.0,39,114.28
197,E5,34.5,0.5,44,114.28
198,B4,35.0,0.125,45,114.28
199,G4,35.0,0.125,45,114.28
200,G4,35.5,0.125,45,114.28
201,B4,35.5,0.125,45,114.28
202,C#5,35.5,0.125,45,114.28
203,D5,36.0,0.5,49,114.28
204,A4,36.0,0.5,49,114.28
205,G4,36.0,0.5,49,114.28
206,A2,36.0,1.0,39,114.28
207,D2,36.0,1.0,39,114.28
208,D5,37.0,0.5,45,114.28
209,F#4,37.0,0.5,45,114.28
210,A4,37.0,0.5,36,114.28
211,D4,37.0,0.5,36,114.28
212,D5,37.75,0.25,45,114.28
213,F#4,37.75,0.25,45,114.28
214,A4,37.75,0.25,36,114.28
215,D4,37.75,0.25,36,114.28
216,D5,38.0,0.5,45,114.28
217,F#4,38.0,0.5,45,114.28
218,D4,38.0,1.0,36,114.28
219,A4,38.0,1.0,36,114.28
220,D3,39.0,0.5,27,114.28
221,A3,39.0,0.5,27,114.28
222,D3,39.5,0.5,27,114.28
223,A3,39.5,0.5,27,114.28
224,D3,40.0,0.5,31,114.28
225,A3,40.0,0.5,31,114.28
226,D4,41.0,0.5,27,114.28
227,A4,41.0,0.5,27,114.28
228,D4,41.5,0.5,27,114.28
229,A4,41.5,0.5,27,114.28
230,D4,42.0,0.5,33,114.28
231,A4,42.0,0.5,33,114.28
232,D3,43.0,0.5,27,114.28
233,A3,43.0,0.5,27,114.28
234,D3,43.5,0.5,27,114.28
235,A3,43.5,0.5,27,114.28
236,A3,44.0,0.5,30,114.28
237,D3,44.0,0.5,30,114.28
238,D4,45.0,0.5,27,114.28
239,A4,45.0,0.5,27,114.28
240,D4,45.5,0.5,27,114.28
241,A4,45.5,0.5,27,114.28
242,D4,46.0,0.5,31,114.28
243,A4,46.0,0.5,31,114.28
244,D3,47.0,0.5,27,114.28
245,A3,47.0,0.5,27,114.28
246,A5,47.5,167/1000,35,114.28
247,D3,47.5,0.5,27,114.28
248,A3,47.5,0.5,27,114.28
249,B5,47.667,167/1000,35,114.28
250,A5,47.833,167/1000,36,114.28
251,F#5,48.0,1.0,39,114.28
252,D3,48.0,0.5,31,114.28
253,A3,48.0,0.5,31,114.28
254,A5,48.5,0.5,39,114.28
255,F#5,49.0,0.125,39,114.28
256,D6,49.0,0.125,39,114.28
257,D4,49.0,0.125,27,114.28
258,A4,49.0,0.125,27,114.28
259,F#6,49.5,0.125,37,114.28
260,F#5,49.5,0.125,37,114.28
261,A4,49.5,0.125,27,114.28
262,D4,49.5,0.125,27,114.28
263,E6,50.0,0.5,41,114.28
264,F#5,50.0,1.0,33,114.28
265,D4,50.0,0.5,31,114.28
266,A4,50.0,0.5,31,114.28
267,D6,50.5,0.5,37,114.28
268,F#5,51.0,0.125,37,114.28
269,A3,51.0,0.125,27,114.28
270,D3,51.0,0.125,27,114.28
271,A5,51.5,0.125,36,114.28
272,F#5,51.5,0.125,36,114.28
273,A3,51.5,0.125,27,114.28
274,D3,51.5,0.125,27,114.28
275,F#5,52.0,0.5,39,114.28
276,A5,52.0,0.5,39,114.28
277,B5,52.0,0.5,39,114.28
278,D3,52.0,1.0,31,114.28
279,A3,52.0,1.0,31,114.28
280,F#5,53.0,0.5,37,114.28
281,A5,53.0,0.5,37,114.28
282,B5,53.0,0.5,37,114.28
283,D4,53.0,0.5,30,114.28
284,A4,53.0,0.5,30,114.28
285,B5,53.75,0.25,37,114.28
286,F#5,53.75,0.25,37,114.28
287,A5,53.75,0.25,37,114.28
288,D4,53.75,0.25,30,114.28
289,A4,53.75,0.25,30,114.28
290,F#5,54.0,1.0,37,114.28
291,A5,54.0,1.0,37,114.28
292,B5,54.0,1.0,37,114.28
293,A4,54.0,1.0,30,114.28
294,D4,54.0,1.0,30,114.28
295,D5,55.0,0.125,38,114.28
296,F#5,55.0,0.125,38,114.28
297,D5,55.5,0.125,38,114.28
298,G#5,55.5,0.125,38,114.28
299,F#5,55.5,0.125,38,114.28
300,A5,56.0,0.5,41,114.28
301,F#5,56.0,1.0,41,114.28
302,D5,56.0,1.0,41,114.28
303,B2,56.0,1.0,30,114.28
304,F#3,56.0,1.0,30,114.28
305,B5,56.5,0.5,37,114.28
306,F#5,57.0,0.125,39,114.28
307,D5,57.0,0.125,39,114.28
308,F#4,57.0,0.125,27,114.28
309,B3,57.0,0.125,27,114.28
310,G#5,57.5,0.125,38,114.28
311,D5,57.5,0.125,38,114.28
312,F#5,57.5,0.125,38,114.28
313,B3,57.5,0.125,27,114.28
314,F#4,57.5,0.125,27,114.28
315,A5,58.0,0.5,41,114.28
316,F#5,58.0,1.0,41,114.28
317,D5,58.0,1.0,41,114.28
318,E3,58.0,1.0,30,114.28
319,B3,58.0,1.0,30,114.28
320,B5,58.5,0.5,37,114.28
321,D5,59.0,0.125,39,114.28
322,F#5,59.0,0.125,39,114.28
323,E4,59.0,0.125,27,114.28
324,B4,59.0,0.125,27,114.28
325,G#5,59.5,0.125,39,114.28
326,D5,59.5,0.125,39,114.28
327,F#5,59.5,0.125,39,114.28
328,B4,59.5,0.125,27,114.28
329,E4,59.5,0.125,27,114.28
330,D5,60.0,0.5,41,114.28
331,E5,60.0,0.5,41,114.28
332,A5,60.0,0.5,41,114.28
333,A3,60.0,1.0,30,114.28
334,E4,60.0,1.0,30,114.28
335,C#5,61.0,0.5,38,114.28
336,A5,61.0,0.5,38,114.28
337,A4,61.0,0.5,28,114.28
338,E5,61.0,0.5,28,114.28
339,C#5,61.75,0.25,38,114.28
340,A5,61.75,0.25,38,114.28
341,E5,61.75,0.25,28,114.28
342,A4,61.75,0.25,28,114.28
343,C#5,62.0,0.5,38,114.28
344,A5,62.0,0.5,38,114.28
345,E5,62.0,0.5,28,114.28
346,A4,62.0,0.5,28,114.28
347,C#6,63.5,167/1000,39,114.28
348,D6,63.667,167/1000,39,114.28
349,C#6,63.833,167/1000,39,114.28
350,B5,64.0,1.0,42,114.28
351,G3,64.0,1.0,35,114.28
352,D4,64.0,1.0,35,114.28
353,D6,64.5,0.5,42,114.28
354,G6,65.0,0.125,44,114.28
355,B5,65.0,0.125,44,114.28
356,G4,65.0,0.125,33,114.28
357,D5,65.0,0.125,33,114.28
358,B6,65.5,0.125,39,114.28
359,B5,65.5,0.125,39,114.28
360,D5,65.5,0.125,33,114.28
361,G4,65.5,0.125,33,114.28
362,A6,66.0,0.5,42,114.28
363,B5,66.0,1.0,37,114.28
364,G4,66.0,1.0,36,114.28
365,D5,66.0,1.0,36,114.28
366,G6,66.5,0.5,38,114.28
367,B5,67.0,0.125,38,114.28
368,G5,67.0,0.125,38,114.28
369,B5,67.5,0.125,38,114.28
370,G5,67.5,0.125,38,114.28
371,D6,67.5,0.125,38,114.28
372,B5,68.0,0.5,42,114.28
373,D6,68.0,0.5,42,114.28
374,F#6,68.0,0.5,42,114.28
375,G5,68.0,0.5,42,114.28
376,E3,68.0,1.0,33,114.28
377,B3,68.0,1.0,33,114.28
378,B5,69.0,0.5,37,114.28
379,D6,69.0,0.5,37,114.28
380,F#6,69.0,0.5,37,114.28
381,G5,69.0,0.5,37,114.28
382,B4,69.0,0.5,29,114.28
383,E4,69.0,0.5,29,114.28
384,B5,69.75,0.25,37,114.28
385,D6,69.75,0.25,37,114.28
386,F#6,69.75,0.25,37,114.28
387,G5,69.75,0.25,37,114.28
388,E4,69.75,0.25,29,114.28
389,B4,69.75,0.25,29,114.28
390,B5,70.0,1.0,37,114.28
391,D6,70.0,1.0,37,114.28
392,F#6,70.0,1.0,37,114.28
393,G5,70.0,1.0,37,114.28
394,B4,70.0,1.0,33,114.28
395,E4,70.0,1.0,33,114.28
396,G5,71.0,0.125,38,114.28
397,B5,71.0,0.125,38,114.28
398,C#6,71.5,0.125,38,114.28
399,B5,71.5,0.125,38,114.28
400,G5,71.5,0.125,38,114.28
401,D6,72.0,0.5,42,114.28
402,B5,72.0,1.0,42,114.28
403,G5,72.0,1.0,42,114.28
404,A3,72.0,1.0,34,114.28
405,E4,72.0,1.0,34,114.28
406,E6,72.5,0.5,38,114.28
407,B5,73.0,0.125,39,114.28
408,G5,73.0,0.125,39,114.28
409,E5,73.0,0.125,33,114.28
410,A4,73.0,0.125,33,114.28
411,C#6,73.5,0.125,39,114.28
412,B5,73.5,0.125,39,114.28
413,G5,73.5,0.125,39,114.28
414,A4,73.5,0.125,33,114.28
415,E5,73.5,0.125,33,114.28
416,D6,74.0,0.5,42,114.28
417,B5,74.0,1.0,42,114.28
418,G5,74.0,1.0,42,114.28
419,A4,74.0,1.0,35,114.28
420,E5,74.0,1.0,35,114.28
421,E6,74.5,0.5,39,114.28
422,B5,75.0,0.125,39,114.28
423,G5,75.0,0.125,39,114.28
424,C#6,75.5,0.125,39,114.28
425,B5,75.5,0.125,39,114.28
426,G5,75.5,0.125,39,114.28
427,D6,76.0,0.5,44,114.28
428,A5,76.0,0.5,44,114.28
429,G5,76.0,0.5,44,114.28
430,A4,76.0,1.0,34,114.28
431,D4,76.0,1.0,34,114.28
432,D6,77.0,0.5,39,114.28
433,F#5,77.0,0.5,39,114.28
434,A5,77.0,0.5,33,114.28
435,D5,77.0,0.5,33,114.28
436,D6,77.75,0.25,39,114.28
437,F#5,77.75,0.25,39,114.28
438,A5,77.75,0.25,33,114.28
439,D5,77.75,0.25,33,114.28
440,D6,78.0,0.5,39,114.28
441,F#5,78.0,0.5,39,114.28
442,D5,78.0,1.0,33,114.28
443,A5,78.0,1.0,33,114.28
444,A2,80.0,1.0,80,114.28
445,E3,80.0,1.0,80,114.28
446,A2,81.0,0.25,72,114.28
447,E3,81.0,0.25,72,114.28
448,E3,81.5,0.25,72,114.28
449,A2,81.5,0.25,72,114.28
450,A2,82.0,1.0,80,114.28
451,E3,82.0,1.0,80,114.28
452,A2,83.0,0.25,72,114.28
453,E3,83.0,0.25,72,114.28
454,A2,83.5,0.25,72,114.28
455,E3,83.5,0.25,72,114.28
456,C#4,84.0,0.25,75,114.28
457,E4,84.0,1.0,75,114.28
458,A2,84.0,1.0,71,114.28
459,E3,84.0,1.0,71,114.28
460,B3,84.25,0.25,68,114.28
461,C#4,84.5,0.25,68,114.28
462,A3,84.75,0.125,68,114.28
463,D4,85.0,0.25,68,114.28
464,F#4,85.0,1.0,71,114.28
465,A2,85.0,0.5,64,114.28
466,E3,85.0,0.5,64,114.28
467,B3,85.5,0.25,68,114.28
468,A2,85.5,0.25,64,114.28
469,E3,85.5,0.25,64,114.28
470,C#4,86.0,0.25,75,114.28
471,E4,86.0,1.0,75,114.28
472,A2,86.0,1.0,71,114.28
473,E3,86.0,1.0,71,114.28
474,B3,86.25,0.25,69,114.28
475,C#4,86.5,0.25,69,114.28
476,A3,86.75,0.125,69,114.28
477,D4,87.0,0.25,68,114.28
478,F#4,87.0,1.0,71,114.28
479,A2,87.0,0.5,64,114.28
480,E3,87.0,0.5,64,114.28
481,B3,87.5,0.25,68,114.28
482,A2,87.5,0.25,64,114.28
483,E3,87.5,0.25,64,114.28
484,F#5,88.5,167/1000,56,114.28
485,D5,88.5,0.5,56,114.28
486,G#4,88.5,0.5,56,114.28
487,G#5,88.667,167/1000,56,114.28
488,F#5,88.833,167/1000,56,114.28
489,E5,89.0,0.25,60,114.28
490,C#5,89.0,0.25,60,114.28
491,A4,89.0,0.25,60,114.28
492,C#5,89.5,0.25,59,114.28
493,E5,89.5,0.25,59,114.28
494,A4,89.5,0.25,59,114.28
495,E5,90.0,2.0,59,114.28
496,C#5,90.0,2.0,59,114.28
497,A4,90.0,2.0,59,114.28
498,G#3,92.0,1.0,59,114.28
499,C4,92.0,1.0,52,114.28
500,E4,92.0,1.0,52,114.28
501,G#4,93.0,0.5,48,114.28
502,C5,93.0,0.5,48,114.28
503,E5,93.0,0.5,48,114.28
504,G#4,93.5,0.5,47,114.28
505,C5,93.5,0.5,47,114.28
506,E5,93.5,0.5,47,114.28
507,G#4,94.0,1.0,46,114.28
508,C5,94.0,1.0,46,114.28
509,E5,94.0,1.0,46,114.28
510,C5,95.0,0.125,34,114.28
511,E5,95.0,0.125,34,114.28
512,E5,95.5,0.125,34,114.28
513,C5,95.5,0.125,34,114.28
514,F5,95.5,0.125,34,114.28
515,G5,96.0,0.5,37,114.28
516,C5,96.0,1.0,37,114.28
517,E5,96.0,1.0,37,114.28
518,G2,96.0,0.25,33,114.28
519,E3,96.0,0.25,33,114.28
520,G3,96.25,0.25,33,114.28
521,A5,96.5,0.5,34,114.28
522,C4,96.5,0.25,33,114.28
523,E4,96.75,0.25,33,114.28
524,C5,97.0,0.125,34,114.28
525,E5,97.0,0.125,34,114.28
526,C5,97.5,0.125,34,114.28
527,E5,97.5,0.125,34,114.28
528,F5,97.5,0.125,34,114.28
529,G5,98.0,0.5,38,114.28
530,B4,98.0,1.0,38,114.28
531,F5,98.0,1.0,38,114.28
532,G2,98.0,0.25,33,114.28
533,D3,98.0,0.25,33,114.28
534,G3,98.25,0.25,33,114.28
535,A5,98.5,0.5,34,114.28
536,B3,98.5,0.25,33,114.28
537,F4,98.75,0.25,33,114.28
538,G4,99.0,0.25,34,114.28
539,B4,99.0,0.25,34,114.28
540,E5,99.0,0.25,34,114.28
541,G4,99.5,0.25,34,114.28
542,B4,99.5,0.25,34,114.28
543,D5,99.5,0.25,34,114.28
544,D5,99.75,0.125,35,114.28
545,E5,99.875,0.125,35,114.28
546,E4,100.0,1.0,39,114.28
547,D5,100.0,0.5,39,114.28
548,C2,100.0,1.0,33,114.28
549,G2,100.0,1.0,33,114.28
550,C5,100.5,0.5,34,114.28
551,E4,101.0,0.25,34,114.28
552,C5,101.0,0.25,34,114.28
553,C3,101.0,0.25,30,114.28
554,G3,101.0,0.25,30,114.28
555,E4,101.5,0.25,34,114.28
556,C5,101.5,0.25,34,114.28
557,C3,101.5,0.25,30,114.28
558,G3,101.5,0.25,30,114.28
559,E4,102.0,0.75,39,114.28
560,C5,102.0,0.75,39,114.28
561,C3,102.0,0.75,33,114.28
562,G3,102.0,0.75,33,114.28
563,G3,103.0,0.25,72,114.28
564,C3,103.0,0.25,72,114.28
565,C3,103.5,0.25,72,114.28
566,G3,103.5,0.25,72,114.28
567,E4,104.0,0.25,75,114.28
568,G4,104.0,1.0,75,114.28
569,C3,104.0,1.0,71,114.28
570,G3,104.0,1.0,71,114.28
571,D4,104.25,0.25,68,114.28
572,E4,104.5,0.25,68,114.28
573,C4,104.75,0.125,68,114.28
574,F4,105.0,0.25,68,114.28
575,A4,105.0,1.0,71,114.28
576,G3,105.0,0.5,64,114.28
577,C3,105.0,0.5,64,114.28
578,D4,105.5,0.25,68,114.28
579,C3,105.5,0.25,64,114.28
580,G3,105.5,0.25,64,114.28
581,E4,106.0,0.25,75,114.28
582,G4,106.0,1.0,75,114.28
583,G3,106.0,1.0,71,114.28
584,C3,106.0,1.0,71,114.28
585,D4,106.25,0.25,69,114.28
586,E4,106.5,0.25,69,114.28
587,C4,106.75,0.125,69,114.28
588,F4,107.0,0.25,68,114.28
589,A4,107.0,1.0,71,114.28
590,G3,107.0,0.5,64,114.28
591,C3,107.0,0.5,64,114.28
592,D4,107.5,0.25,68,114.28
593,G3,107.5,0.25,64,114.28
594,C3,107.5,0.25,64,114.28
595,A5,108.5,167/1000,56,114.28
596,F5,108.5,0.5,56,114.28
597,B4,108.5,0.5,56,114.28
598,B5,108.667,167/1000,56,114.28
599,A5,108.833,167/1000,56,114.28
600,G5,109.0,0.25,60,114.28
601,E5,109.0,0.25,60,114.28
602,C5,109.0,0.25,60,114.28
603,E5,109.5,0.25,59,114.28
604,G5,109.5,0.25,59,114.28
605,C5,109.5,0.25,59,114.28
606,G5,110.0,2.0,59,114.28
607,E5,110.0,2.0,59,114.28
608,C5,110.0,2.0,59,114.28
609,B3,112.0,1.0,59,114.28
610,E-4,112.0,1.0,52,114.28
611,G4,112.0,1.0,52,114.28
612,B4,113.0,0.5,48,114.28
613,E-5,113.0,0.5,48,114.28
614,G5,113.0,0.5,48,114.28
615,B4,113.5,0.5,47,114.28
616,E-5,113.5,0.5,47,114.28
617,G5,113.5,0.5,47,114.28
618,B4,114.0,1.0,46,114.28
619,E-5,114.0,1.0,46,114.28
620,G5,114.0,1.0,46,114.28
621,E-5,115.0,0.125,34,114.28
622,G5,115.0,0.125,34,114.28
623,G5,115.5,0.25,34,114.28
624,E-5,115.5,0.25,34,114.28
625,G#5,115.5,0.25,34,114.28
626,B-5,116.0,0.5,37,114.28
627,E-5,116.0,1.0,37,114.28
628,G5,116.0,1.0,37,114.28
629,B-2,116.0,0.25,33,114.28
630,G3,116.0,0.25,33,114.28
631,B-3,116.25,0.25,33,114.28
632,C6,116.5,0.5,34,114.28
633,E-4,116.5,0.25,33,114.28
634,G4,116.75,0.25,33,114.28
635,E-5,117.0,0.125,34,114.28
636,G5,117.0,0.125,34,114.28
637,E-5,117.5,0.125,34,114.28
638,G5,117.5,0.125,34,114.28
639,G#5,117.5,0.125,34,114.28
640,B-5,118.0,0.5,38,114.28
641,D5,118.0,1.0,38,114.28
642,G#5,118.0,1.0,38,114.28
643,F3,118.0,0.25,33,114.28
644,B-2,118.0,0.25,33,114.28
645,B-3,118.25,0.25,33,114.28
646,C6,118.5,0.5,34,114.28
647,D4,118.5,0.25,33,114.28
648,G#4,118.75,0.25,33,114.28
649,B-4,119.0,0.25,34,114.28
650,D5,119.0,0.25,34,114.28
651,G5,119.0,0.25,34,114.28
652,B-4,119.5,0.25,34,114.28
653,D5,119.5,0.25,34,114.28
654,F5,119.5,0.25,34,114.28
655,F5,119.75,0.125,35,114.28
656,G5,119.875,0.125,35,114.28
657,G4,120.0,1.0,39,114.28
658,F5,120.0,0.5,39,114.28
659,B-2,120.0,1.0,33,114.28
660,E-2,120.0,1.0,33,114.28
661,E-5,120.5,0.5,34,114.28
662,G4,121.0,0.25,34,114.28
663,E-5,121.0,0.25,34,114.28
664,B-3,121.0,0.25,30,114.28
665,E-3,121.0,0.25,30,114.28
666,G4,121.5,0.25,34,114.28
667,E-5,121.5,0.25,34,114.28
668,B-3,121.5,0.25,30,114.28
669,E-3,121.5,0.25,30,114.28
670,G4,122.0,1.0,39,114.28
671,E-5,122.0,1.0,39,114.28
672,B-3,122.0,1.0,33,114.28
673,E-3,122.0,1.0,33,114.28
674,B-2,123.0,0.25,27,114.28
675,E-3,123.0,0.25,27,114.28
676,G3,123.25,0.25,26,114.28
677,C#4,123.25,0.25,26,114.28
678,E-2,123.5,0.25,23,114.28
679,E-4,123.75,0.25,26,114.28
680,C#4,123.75,0.25,26,114.28
681,G3,123.75,0.25,26,114.28
682,B-2,124.0,0.25,23,114.28
683,E-3,124.0,0.25,23,114.28
684,G3,124.25,0.25,28,114.28
685,C#4,124.25,0.25,28,114.28
686,F4,124.25,0.25,28,114.28
687,E-2,124.5,0.25,26,114.28
688,G3,124.75,0.25,28,114.28
689,C#4,124.75,0.25,28,114.28
690,G4,124.75,0.25,28,114.28
691,B-2,125.0,0.25,29,114.28
692,E-3,125.0,0.25,29,114.28
693,G3,125.25,0.25,29,114.28
694,C#4,125.25,0.25,29,114.28
695,E-2,125.5,0.25,27,114.28
696,E-4,125.75,0.25,28,114.28
697,G3,125.75,0.25,28,114.28
698,C#4,125.75,0.25,28,114.28
699,B-2,126.0,0.25,27,114.28
700,E-3,126.0,0.25,27,114.28
701,G3,126.25,0.25,31,114.28
702,C#4,126.25,0.25,31,114.28
703,F4,126.25,0.25,31,114.28
704,E-2,126.5,0.25,28,114.28
705,G3,126.75,0.25,30,114.28
706,C#4,126.75,0.25,30,114.28
707,G4,126.75,0.25,30,114.28
708,B-2,127.0,0.25,35,114.28
709,E-3,127.0,0.25,35,114.28
710,G3,127.25,0.25,32,114.28
711,C#4,127.25,0.25,32,114.28
712,E-2,127.5,0.25,30,114.28
713,E-4,127.75,0.25,31,114.28
714,G3,127.75,0.25,31,114.28
715,C#4,127.75,0.25,31,114.28
716,B-2,128.0,0.25,30,114.28
717,E-3,128.0,0.25,30,114.28
718,G3,128.25,0.25,32,114.28
719,C#4,128.25,0.25,32,114.28
720,F4,128.25,0.25,32,114.28
721,E-2,128.5,0.25,30,114.28
722,G#4,128.75,0.25,42,114.28
723,B-2,129.0,0.25,36,114.28
724,E-3,129.0,0.25,36,114.28
725,G3,129.25,0.25,33,114.28
726,C#4,129.25,0.25,33,114.28
727,G4,129.25,0.25,33,114.28
728,E-2,129.5,0.25,33,114.28
729,E-4,129.75,0.25,33,114.28
730,G3,129.75,0.25,33,114.28
731,C#4,129.75,0.25,33,114.28
732,B-2,130.0,0.25,33,114.28
733,E-3,130.0,0.25,33,114.28
734,G3,130.25,0.25,34,114.28
735,C#4,130.25,0.25,34,114.28
736,F4,130.25,0.25,34,114.28
737,E-2,130.5,0.25,33,114.28
738,G3,130.75,0.25,35,114.28
739,C#4,130.75,0.25,35,114.28
740,C3,131.0,0.25,33,114.28
741,E-3,131.0,0.25,33,114.28
742,G#3,131.25,0.25,36,114.28
743,E-4,131.25,0.25,36,114.28
744,E-2,131.5,0.25,30,114.28
745,E-4,131.75,0.25,35,114.28
746,F4,131.75,0.25,35,114.28
747,G#3,131.75,0.25,35,114.28
748,C3,132.0,0.25,31,114.28
749,E-3,132.0,0.25,31,114.28
750,G#3,132.25,0.25,33,114.28
751,E-4,132.25,0.25,33,114.28
752,G4,132.25,0.25,33,114.28
753,E-2,132.5,0.25,30,114.28
754,G#3,132.75,0.25,34,114.28
755,E-4,132.75,0.25,34,114.28
756,G#4,132.75,0.25,34,114.28
757,C3,133.0,0.25,34,114.28
758,E-3,133.0,0.25,34,114.28
759,G#3,133.25,0.25,34,114.28
760,E-4,133.25,0.25,34,114.28
761,E-2,133.5,0.25,31,114.28
762,E-4,133.75,0.25,33,114.28
763,G#3,133.75,0.25,33,114.28
764,F4,133.75,0.25,33,114.28
765,C3,134.0,0.25,32,114.28
766,E-3,134.0,0.25,32,114.28
767,G#3,134.25,0.25,35,114.28
768,E-4,134.25,0.25,35,114.28
769,G4,134.25,0.25,35,114.28
770,E-2,134.5,0.25,32,114.28
771,G#3,134.75,0.25,34,114.28
772,E-4,134.75,0.25,34,114.28
773,G#4,134.75,0.25,34,114.28
774,C3,135.0,0.25,40,114.28
775,E-3,135.0,0.25,40,114.28
776,G#3,135.25,0.25,36,114.28
777,E-4,135.25,0.25,36,114.28
778,E-2,135.5,0.25,34,114.28
779,E-4,135.75,0.25,36,114.28
780,G#3,135.75,0.25,36,114.28
781,F4,135.75,0.25,36,114.28
782,C3,136.0,0.25,35,114.28
783,E-3,136.0,0.25,35,114.28
784,G#3,136.25,0.25,37,114.28
785,E-4,136.25,0.25,37,114.28
786,G4,136.25,0.25,37,114.28
787,E-2,136.5,0.25,35,114.28
788,B-4,136.75,0.25,48,114.28
789,C3,137.0,0.25,42,114.28
790,E-3,137.0,0.25,42,114.28
791,G#3,137.25,0.25,39,114.28
792,E-4,137.25,0.25,39,114.28
793,G#4,137.25,0.25,39,114.28
794,E-2,137.5,0.25,37,114.28
795,E-4,137.75,0.25,39,114.28
796,G#3,137.75,0.25,39,114.28
797,F4,137.75,0.25,39,114.28
798,C3,138.0,0.25,38,114.28
799,E-3,138.0,0.25,38,114.28
800,G#3,138.25,0.25,39,114.28
801,E-4,138.25,0.25,39,114.28
802,G4,138.25,0.25,39,114.28
803,E-2,138.5,0.25,38,114.28
804,G#3,138.75,0.25,40,114.28
805,E-4,138.75,0.25,40,114.28
806,G#2,139.0,0.25,44,114.28
807,F#3,139.0,0.25,44,114.28
808,C4,139.25,0.25,48,114.28
809,F#4,139.25,0.25,48,114.28
810,E-2,139.5,0.25,42,114.28
811,F#4,139.75,0.25,44,114.28
812,G#4,139.75,0.25,44,114.28
813,C4,139.75,0.25,44,114.28
814,G#2,140.0,0.25,44,114.28
815,F#3,140.0,0.25,44,114.28
816,C4,140.25,0.25,47,114.28
817,F#4,140.25,0.25,47,114.28
818,B-4,140.25,0.25,47,114.28
819,E-2,140.5,0.25,39,114.28
820,C4,140.75,0.25,40,114.28
821,F#4,140.75,0.25,40,114.28
822,C5,140.75,0.25,40,114.28
823,G#2,141.0,0.25,45,114.28
824,F#3,141.0,0.25,45,114.28
825,C4,141.25,0.25,48,114.28
826,F#4,141.25,0.25,48,114.28
827,E-2,141.5,0.25,42,114.28
828,F#4,141.75,0.25,39,114.28
829,C4,141.75,0.25,39,114.28
830,G#4,141.75,0.25,39,114.28
831,G#2,142.0,0.25,42,114.28
832,F#3,142.0,0.25,42,114.28
833,C4,142.25,0.25,47,114.28
834,F#4,142.25,0.25,47,114.28
835,B-4,142.25,0.25,47,114.28
836,E-2,142.5,0.25,44,114.28
837,C4,142.75,0.25,40,114.28
838,F#4,142.75,0.25,40,114.28
839,C5,142.75,0.25,40,114.28
840,G#2,143.0,0.25,48,114.28
841,F#3,143.0,0.25,48,114.28
842,C4,143.25,0.25,47,114.28
843,F#4,143.25,0.25,47,114.28
844,E-2,143.5,0.25,42,114.28
845,F#4,143.75,0.25,46,114.28
846,C4,143.75,0.25,46,114.28
847,G#4,143.75,0.25,46,114.28
848,G#2,144.0,0.25,47,114.28
849,F#3,144.0,0.25,47,114.28
850,C4,144.25,0.25,56,114.28
851,F#4,144.25,0.25,56,114.28
852,B-4,144.25,0.25,56,114.28
853,E-2,144.5,0.25,44,114.28
854,C#5,144.75,0.25,50,114.28
855,G#2,145.0,0.25,50,114.28
856,F#3,145.0,0.25,50,114.28
857,C4,145.25,0.25,55,114.28
858,F#4,145.25,0.25,55,114.28
859,C5,145.25,0.25,55,114.28
860,E-2,145.5,0.25,46,114.28
861,G#4,145.75,0.25,43,114.28
862,C4,145.75,0.25,43,114.28
863,F#4,145.75,0.25,43,114.28
864,G#2,146.0,0.25,46,114.28
865,F#3,146.0,0.25,46,114.28
866,C4,146.25,0.25,43,114.28
867,F#4,146.25,0.25,43,114.28
868,B-4,146.25,0.25,43,114.28
869,E-2,146.5,0.25,46,114.28
870,C4,146.75,0.25,44,114.28
871,F#4,146.75,0.25,44,114.28
872,G#2,147.0,0.25,50,114.28
873,F3,147.0,0.25,50,114.28
874,C#4,147.25,0.25,59,114.28
875,G#4,147.25,0.25,59,114.28
876,E-2,147.5,0.25,46,114.28
877,G#4,147.75,0.25,52,114.28
878,B-4,147.75,0.25,52,114.28
879,C#4,147.75,0.25,52,114.28
880,G#2,148.0,0.25,48,114.28
881,F3,148.0,0.25,48,114.28
882,C#4,148.25,0.25,57,114.28
883,G#4,148.25,0.25,57,114.28
884,C5,148.25,0.25,57,114.28
885,E-2,148.5,0.25,46,114.28
886,C#4,148.75,0.25,55,114.28
887,G#4,148.75,0.25,55,114.28
888,C#5,148.75,0.25,55,114.28
889,G#2,149.0,0.25,51,114.28
890,F3,149.0,0.25,51,114.28
891,C#4,149.25,0.25,59,114.28
892,G#4,149.25,0.25,59,114.28
893,E-2,149.5,0.25,47,114.28
894,G#4,149.75,0.25,53,114.28
895,C#4,149.75,0.25,53,114.28
896,B-4,149.75,0.25,53,114.28
897,G#2,150.0,0.25,50,114.28
898,F3,150.0,0.25,50,114.28
899,C#4,150.25,0.25,59,114.28
900,G#4,150.25,0.25,59,114.28
901,C5,150.25,0.25,59,114.28
902,E-2,150.5,0.25,47,114.28
903,C#4,150.75,0.25,55,114.28
904,G#4,150.75,0.25,55,114.28
905,C#5,150.75,0.25,55,114.28
906,G#2,151.0,0.25,60,114.28
907,F3,151.0,0.25,60,114.28
908,C#4,151.25,0.25,59,114.28
909,G#4,151.25,0.25,59,114.28
910,E-2,151.5,0.25,50,114.28
911,G#4,151.75,0.25,57,114.28
912,C#4,151.75,0.25,57,114.28
913,B-4,151.75,0.25,57,114.28
914,G#2,152.0,0.25,56,114.28
915,F3,152.0,0.25,56,114.28
916,C#4,152.25,0.25,64,114.28
917,G#4,152.25,0.25,64,114.28
918,C5,152.25,0.25,64,114.28
919,E-2,152.5,0.25,51,114.28
920,E-5,152.75,0.25,64,114.28
921,G#2,153.0,0.25,59,114.28
922,F3,153.0,0.25,59,114.28
923,C#4,153.25,0.25,62,114.28
924,G#4,153.25,0.25,62,114.28
925,C#5,153.25,0.25,62,114.28
926,E-2,153.5,0.25,53,114.28
927,B-4,153.75,0.25,52,114.28
928,C#4,153.75,0.25,52,114.28
929,G#4,153.75,0.25,52,114.28
930,G#2,154.0,0.25,57,114.28
931,F3,154.0,0.25,57,114.28
932,C#4,154.25,0.25,52,114.28
933,G#4,154.25,0.25,52,114.28
934,C5,154.25,0.25,52,114.28
935,E-2,154.5,0.25,53,114.28
936,C#4,154.75,0.25,52,114.28
937,G#4,154.75,0.25,52,114.28
938,E-2,155.0,0.5,60,114.28
939,B-2,155.0,0.5,60,114.28
940,F3,155.0,0.5,60,114.28
941,D4,155.25,0.25,71,114.28
942,G#4,155.25,0.25,71,114.28
943,E-2,155.5,0.5,55,114.28
944,B-2,155.5,0.5,55,114.28
945,F3,155.5,0.5,55,114.28
946,G#4,155.75,0.25,63,114.28
947,D4,155.75,0.25,63,114.28
948,B-4,155.75,0.25,63,114.28
949,E-2,156.0,1.0,57,114.28
950,B-2,156.0,1.0,57,114.28
951,F3,156.0,1.0,57,114.28
952,D4,156.25,0.25,70,114.28
953,G#4,156.25,0.25,70,114.28
954,C5,156.25,0.25,70,114.28
955,E-5,156.75,0.25,75,114.28
956,E-3,157.0,0.5,53,114.28
957,B-3,157.0,0.5,53,114.28
958,F4,157.0,0.5,53,114.28
959,D4,157.25,0.25,69,114.28
960,G#4,157.25,0.25,69,114.28
961,D5,157.25,0.25,69,114.28
962,E-3,157.5,0.5,53,114.28
963,B-3,157.5,0.5,53,114.28
964,F4,157.5,0.5,53,114.28
965,B-4,157.75,0.25,56,114.28
966,D4,157.75,0.25,56,114.28
967,G#4,157.75,0.25,56,114.28
968,E-3,158.0,1.0,61,114.28
969,B-3,158.0,1.0,61,114.28
970,F4,158.0,1.0,61,114.28
971,D4,158.25,0.25,57,114.28
972,G#4,158.25,0.25,57,114.28
973,C5,158.25,0.25,57,114.28
974,G#4,158.75,0.25,62,114.28
975,E-2,159.0,0.5,59,114.28
976,B-2,159.0,0.5,59,114.28
977,F3,159.0,0.5,59,114.28
978,D5,159.25,0.25,70,114.28
979,C5,159.25,0.25,70,114.28
980,G#4,159.25,0.25,70,114.28
981,E-2,159.5,0.5,55,114.28
982,B-2,159.5,0.5,55,114.28
983,F3,159.5,0.5,55,114.28
984,G#4,159.75,0.25,66,114.28
985,E-5,159.75,0.25,66,114.28
986,C5,159.75,0.25,66,114.28
987,E-2,160.0,1.0,59,114.28
988,B-2,160.0,1.0,59,114.28
989,F3,160.0,1.0,59,114.28
990,F5,160.25,0.25,72,114.28
991,G#4,160.25,0.25,72,114.28
992,C5,160.25,0.25,72,114.28
993,G#5,160.75,0.25,81,114.28
994,E-3,161.0,0.5,61,114.28
995,B-3,161.0,0.5,61,114.28
996,F4,161.0,0.5,61,114.28
997,G5,161.25,0.25,80,114.28
998,G#4,161.25,0.25,80,114.28
999,C5,161.25,0.25,80,114.28
1000,E-3,161.5,0.5,56,114.28
1001,B-3,161.5,0.5,56,114.28
1002,F4,161.5,0.5,56,114.28
1003,C5,161.75,0.25,72,114.28
1004,E-5,161.75,0.25,72,114.28
1005,G#4,161.75,0.25,72,114.28
1006,E-3,162.0,1.0,64,114.28
1007,B-3,162.0,1.0,64,114.28
1008,F4,162.0,1.0,64,114.28
1009,F5,162.25,0.25,80,114.28
1010,G#4,162.25,0.25,80,114.28
1011,C5,162.25,0.25,80,114.28
1012,D5,162.75,0.25,66,114.28
1013,F4,163.0,0.25,75,114.28
1014,F3,163.0,0.25,75,114.28
1015,F5,163.25,0.25,75,114.28
1016,G3,163.5,0.25,75,114.28
1017,G4,163.5,0.25,75,114.28
1018,G5,163.75,0.25,75,114.28
1019,G#4,164.0,0.25,82,114.28
1020,G#3,164.0,0.25,82,114.28
1021,G#5,164.25,0.25,81,114.28
1022,C5,164.5,0.25,75,114.28
1023,C4,164.5,0.25,75,114.28
1024,C6,164.75,0.25,75,114.28
1025,G#4,165.0,0.25,75,114.28
1026,G#3,165.0,0.25,75,114.28
1027,G#5,165.25,0.25,75,114.28
1028,F4,165.5,0.25,75,114.28
1029,F3,165.5,0.25,75,114.28
1030,F5,165.75,0.25,75,114.28
1031,G#4,166.0,0.5,82,114.28
1032,G#3,166.0,0.5,82,114.28
1033,G#5,166.25,0.25,81,114.28
1034,F4,166.5,0.5,75,114.28
1035,F3,166.5,0.5,75,114.28
1036,F5,166.75,0.25,75,114.28
1037,D4,167.0,0.5,75,114.28
1038,D3,167.0,0.5,75,114.28
1039,D5,167.25,0.25,75,114.28
1040,F3,167.5,0.5,75,114.28
1041,F4,167.5,0.5,75,114.28
1042,F5,167.75,0.25,75,114.28
1043,D3,168.0,0.5,82,114.28
1044,D4,168.0,0.5,82,114.28
1045,D5,168.25,0.25,81,114.28
1046,B-2,168.5,0.5,75,114.28
1047,B-3,168.5,0.5,75,114.28
1048,B-4,168.75,0.25,75,114.28
1049,D4,169.0,0.5,75,114.28
1050,D3,169.0,0.5,75,114.28
1051,D5,169.25,0.25,75,114.28
1052,B-2,169.5,0.5,75,114.28
1053,B-3,169.5,0.5,75,114.28
1054,B-4,169.75,0.25,75,114.28
1055,G2,170.0,0.5,82,114.28
1056,G3,170.0,0.5,82,114.28
1057,G4,170.25,0.25,81,114.28
1058,B-2,170.5,0.5,75,114.28
1059,B-3,170.5,0.5,75,114.28
1060,B-4,170.75,0.25,75,114.28
1061,G2,171.0,0.5,75,114.28
1062,G3,171.0,0.5,75,114.28
1063,G4,171.25,0.25,75,114.28
1064,E-2,171.5,0.5,75,114.28
1065,E-3,171.5,0.5,75,114.28
1066,E-4,171.75,0.25,75,114.28
1067,G2,172.0,0.5,85,114.28
1068,G3,172.0,0.5,85,114.28
1069,G4,172.25,0.25,85,114.28
1070,E-2,172.5,0.5,79,114.28
1071,E-3,172.5,0.5,79,114.28
1072,E-4,172.75,0.25,80,114.28
1073,C2,173.0,0.5,79,114.28
1074,C3,173.0,0.5,79,114.28
1075,C4,173.25,0.25,80,114.28
1076,E-2,173.5,0.5,79,114.28
1077,E-3,173.5,0.5,79,114.28
1078,E-4,173.75,0.25,80,114.28
1079,C2,174.0,0.5,85,114.28
1080,C3,174.0,0.5,85,114.28
1081,C4,174.25,0.25,93,114.28
1082,G#1,174.5,0.5,81,114.28
1083,G#2,174.5,0.5,81,114.28
1084,G#3,174.75,0.25,86,114.28
1085,C2,175.0,0.5,86,114.28
1086,C3,175.0,0.5,86,114.28
1087,C4,175.25,0.25,89,114.28
1088,G#1,175.5,0.5,95,114.28
1089,G#2,175.5,0.5,95,114.28
1090,G#3,175.75,0.25,103,114.28
1091,G3,176.0,4.0,108,114.28
1092,G1,176.0,4.0,98,114.28
1093,G2,176.0,4.0,98,114.28
1094,G#4,177.0,1.0,86,114.28
1095,G#3,177.0,1.0,86,114.28
1096,C4,177.0,1.0,86,114.28
1097,E-4,177.0,1.0,86,114.28
1098,E-3,177.0,1.0,79,114.28
1099,C3,177.0,1.0,79,114.28
1100,G#2,177.0,1.0,79,114.28
1101,G#5,178.0,1.0,86,114.28
1102,E-5,178.0,1.0,86,114.28
1103,G#4,178.0,1.0,86,114.28
1104,C5,178.0,1.0,86,114.28
1105,E-4,178.0,1.0,79,114.28
1106,C4,178.0,1.0,79,114.28
1107,G#3,178.0,1.0,79,114.28
1108,G#6,179.0,1.0,84,114.28
1109,E-6,179.0,1.0,84,114.28
1110,C6,179.0,1.0,84,114.28
1111,G#5,179.0,1.0,84,114.28
1112,E-5,179.0,1.0,79,114.28
1113,C5,179.0,1.0,79,114.28
1114,G#4,179.0,1.0,79,114.28
1115,F#3,180.0,4.0,108,114.28
1116,F#1,180.0,4.0,98,114.28
1117,F#2,180.0,4.0,98,114.28
1118,G#4,181.0,1.0,86,114.28
1119,G#3,181.0,1.0,86,114.28
1120,C4,181.0,1.0,86,114.28
1121,E-4,181.0,1.0,86,114.28
1122,E-3,181.0,1.0,79,114.28
1123,C3,181.0,1.0,79,114.28
1124,G#2,181.0,1.0,79,114.28
1125,G#5,182.0,1.0,86,114.28
1126,E-5,182.0,1.0,86,114.28
1127,G#4,182.0,1.0,86,114.28
1128,C5,182.0,1.0,86,114.28
1129,E-4,182.0,1.0,79,114.28
1130,C4,182.0,1.0,79,114.28
1131,G#3,182.0,1.0,79,114.28
1132,G#6,183.0,1.0,84,114.28
1133,E-6,183.0,1.0,84,114.28
1134,C6,183.0,1.0,84,114.28
1135,G#5,183.0,1.0,84,114.28
1136,E-5,183.0,1.0,79,114.28
1137,C5,183.0,1.0,79,114.28
1138,G#4,183.0,1.0,79,114.28
1139,F3,184.0,4.0,111,114.28
1140,F1,184.0,4.0,102,114.28
1141,F2,184.0,4.0,102,114.28
1142,G#4,185.0,1.0,86,114.28
1143,G#3,185.0,1.0,86,114.28
1144,B3,185.0,1.0,86,114.28
1145,E-4,185.0,1.0,86,114.28
1146,E-3,185.0,1.0,79,114.28
1147,B2,185.0,1.0,79,114.28
1148,G#2,185.0,1.0,79,114.28
1149,G#5,186.0,1.0,86,114.28
1150,E-5,186.0,1.0,86,114.28
1151,G#4,186.0,1.0,86,114.28
1152,B4,186.0,1.0,86,114.28
1153,E-4,186.0,1.0,79,114.28
1154,B3,186.0,1.0,79,114.28
1155,G#3,186.0,1.0,79,114.28
1156,G#6,187.0,1.0,84,114.28
1157,E-6,187.0,1.0,84,114.28
1158,B5,187.0,1.0,84,114.28
1159,G#5,187.0,1.0,84,114.28
1160,E-5,187.0,1.0,79,114.28
1161,B4,187.0,1.0,79,114.28
1162,G#4,187.0,1.0,79,114.28
1163,E3,188.0,4.0,111,114.28
1164,E1,188.0,4.0,93,114.28
1165,E2,188.0,2.0,110,114.28
1166,E2,189.0,3.0,74,114.28
1167,A3,189.0,1.0,87,114.28
1168,A4,189.0,1.0,87,114.28
1169,G3,189.0,1.0,87,114.28
1170,C#4,189.0,1.0,87,114.28
1171,G4,189.0,1.0,87,114.28
1172,C#3,189.0,1.0,81,114.28
1173,A2,189.0,1.0,81,114.28
1174,G4,190.0,1.0,87,114.28
1175,A5,190.0,1.0,87,114.28
1176,G5,190.0,1.0,87,114.28
1177,A4,190.0,1.0,87,114.28
1178,C#5,190.0,1.0,87,114.28
1179,A3,190.0,1.0,79,114.28
1180,C#4,190.0,1.0,79,114.28
1181,E3,190.0,1.0,79,114.28
1182,A5,191.0,0.5,81,114.28
1183,A6,191.0,0.5,81,114.28
1184,G6,191.0,0.5,81,114.28
1185,C#6,191.0,0.5,81,114.28
1186,G5,191.0,0.5,81,114.28
1187,C#5,191.0,0.5,79,114.28
1188,A4,191.0,0.5,79,114.28
1189,E4,191.0,0.5,79,114.28
1190,A5,191.5,167/1000,88,114.28
1191,B5,191.667,167/1000,88,114.28
1192,A5,191.833,167/1000,88,114.28
1193,F#5,192.0,1.0,97,114.28
1194,D2,192.0,0.25,79,114.28
1195,A2,192.0,0.25,79,114.28
1196,D3,192.25,0.25,68,114.28
1197,A5,192.5,0.5,97,114.28
1198,F#3,192.5,0.25,68,114.28
1199,A3,192.75,0.25,68,114.28
1200,D4,193.0,1/5,70,114.28
1201,A5,193.0,0.25,94,114.28
1202,D6,193.0,0.25,94,114.28
1203,F#5,193.0,0.25,94,114.28
1204,A3,193.2,1/5,70,114.28
1205,F#3,193.4,1/5,69,114.28
1206,A5,193.5,0.25,86,114.28
1207,F#6,193.5,0.25,86,114.28
1208,F#5,193.5,0.25,86,114.28
1209,D3,193.6,1/5,68,114.28
1210,A2,193.8,1/5,68,114.28
1211,E6,194.0,0.5,102,114.28
1212,D2,194.0,1/5,64,114.28
1213,A5,194.0,1.0,75,114.28
1214,F#5,194.0,1.0,75,114.28
1215,A2,194.2,1/5,69,114.28
1216,D3,194.4,1/5,70,114.28
1217,D6,194.5,0.5,93,114.28
1218,F#3,194.6,1/5,71,114.28
1219,A3,194.8,1/5,73,114.28
1220,D4,195.0,0.5,75,114.28
1221,D5,195.0,0.25,91,114.28
1222,F#5,195.0,0.25,91,114.28
1223,D5,195.5,0.25,84,114.28
1224,A5,195.5,0.25,84,114.28
1225,F#5,195.5,0.25,84,114.28
1226,D5,196.0,0.5,88,114.28
1227,B5,196.0,0.5,88,114.28
1228,A5,196.0,0.5,88,114.28
1229,F#5,196.0,0.5,88,114.28
1230,D2,196.0,0.5,77,114.28
1231,A2,196.0,0.5,77,114.28
1232,D3,196.0,0.5,77,114.28
1233,D4,196.5,1.0,68,114.28
1234,A3,196.5,1.0,68,114.28
1235,F#3,196.5,1.0,68,114.28
1236,D5,197.0,0.5,79,114.28
1237,B5,197.0,0.5,79,114.28
1238,A5,197.0,0.5,79,114.28
1239,F#5,197.0,0.5,79,114.28
1240,F#4,197.5,1.0,68,114.28
1241,D4,197.5,1.0,68,114.28
1242,A3,197.5,1.0,68,114.28
1243,D5,197.75,0.25,79,114.28
1244,B5,197.75,0.25,79,114.28
1245,A5,197.75,0.25,79,114.28
1246,F#5,197.75,0.25,79,114.28
1247,D5,198.0,1.0,82,114.28
1248,B5,198.0,1.0,82,114.28
1249,A5,198.0,1.0,82,114.28
1250,F#5,198.0,1.0,82,114.28
1251,A4,198.5,0.5,68,114.28
1252,F#4,198.5,0.5,68,114.28
1253,D4,198.5,0.5,68,114.28
1254,D5,199.0,0.25,90,114.28
1255,F#5,199.0,0.25,90,114.28
1256,D5,199.5,0.25,90,114.28
1257,G#5,199.5,0.25,90,114.28
1258,F#5,199.5,0.25,90,114.28
1259,A5,200.0,0.5,97,114.28
1260,B1,200.0,167/1000,66,114.28
1261,D5,200.0,1.0,87,114.28
1262,F#5,200.0,1.0,87,114.28
1263,F#2,200.167,167/1000,59,114.28
1264,B2,200.333,167/1000,59,114.28
1265,B5,200.5,0.5,89,114.28
1266,D3,200.5,167/1000,59,114.28
1267,F#3,200.667,167/1000,59,114.28
1268,B3,200.833,167/1000,59,114.28
1269,D4,201.0,0.5,59,114.28
1270,F#5,201.0,0.25,93,114.28
1271,D5,201.0,0.25,93,114.28
1272,G#5,201.5,0.25,90,114.28
1273,F#5,201.5,0.25,90,114.28
1274,D5,201.5,0.25,90,114.28
1275,A5,202.0,0.5,97,114.28
1276,E2,202.0,1/5,66,114.28
1277,D5,202.0,1.0,87,114.28
1278,F#5,202.0,1.0,87,114.28
1279,B2,202.2,1/5,59,114.28
1280,E3,202.4,1/5,59,114.28
1281,B5,202.5,0.5,89,114.28
1282,G#3,202.6,1/5,59,114.28
1283,D4,202.8,1/5,59,114.28
1284,F#4,203.0,0.5,59,114.28
1285,D5,203.0,0.25,93,114.28
1286,F#5,203.0,0.25,93,114.28
1287,G#5,203.5,0.25,93,114.28
1288,D5,203.5,0.25,93,114.28
1289,F#5,203.5,0.25,93,114.28
1290,A4,204.0,0.5,90,114.28
1291,D5,204.0,0.5,90,114.28
1292,E5,204.0,0.5,90,114.28
1293,A5,204.0,0.5,90,114.28
1294,A1,204.0,0.5,75,114.28
1295,E2,204.0,0.5,75,114.28
1296,A2,204.0,0.5,75,114.28
1297,C#4,204.5,1.0,64,114.28
1298,A3,204.5,1.0,64,114.28
1299,E3,204.5,1.0,64,114.28
1300,E5,205.0,0.5,77,114.28
1301,A4,205.0,0.5,77,114.28
1302,C#5,205.0,0.5,77,114.28
1303,A5,205.0,0.5,77,114.28
1304,E4,205.5,1.0,64,114.28
1305,C#4,205.5,1.0,64,114.28
1306,A3,205.5,1.0,64,114.28
1307,A4,205.75,0.25,77,114.28
1308,E5,205.75,0.25,77,114.28
1309,C#5,205.75,0.25,77,114.28
1310,A5,205.75,0.25,77,114.28
1311,A4,206.0,1.0,77,114.28
1312,E5,206.0,1.0,77,114.28
1313,C#5,206.0,1.0,77,114.28
1314,A5,206.0,1.0,77,114.28
1315,A4,206.5,0.5,64,114.28
1316,E4,206.5,0.5,64,114.28
1317,C#4,206.5,0.5,64,114.28
1318,C#6,207.5,167/1000,89,114.28
1319,D6,207.667,167/1000,89,114.28
1320,C#6,207.833,167/1000,89,114.28
1321,B5,208.0,1.0,96,114.28
1322,G2,208.0,0.25,65,114.28
1323,D3,208.0,0.25,65,114.28
1324,G3,208.25,0.25,57,114.28
1325,D6,208.5,0.5,96,114.28
1326,B3,208.5,0.25,57,114.28
1327,D4,208.75,0.25,57,114.28
1328,G4,209.0,1/5,65,114.28
1329,D6,209.0,0.25,92,114.28
1330,G6,209.0,0.25,92,114.28
1331,B5,209.0,0.25,92,114.28
1332,D4,209.2,1/5,59,114.28
1333,B3,209.4,1/5,58,114.28
1334,D6,209.5,0.25,84,114.28
1335,B6,209.5,0.25,84,114.28
1336,B5,209.5,0.25,84,114.28
1337,G3,209.6,1/5,58,114.28
1338,D3,209.8,1/5,57,114.28
1339,A6,210.0,0.5,97,114.28
1340,B5,210.0,1.0,76,114.28
1341,G2,210.0,1/5,56,114.28
1342,B2,210.2,1/5,56,114.28
1343,G3,210.4,1/5,57,114.28
1344,G6,210.5,0.5,86,114.28
1345,B3,210.6,1/5,57,114.28
1346,D4,210.8,1/5,57,114.28
1347,G4,211.0,0.5,57,114.28
1348,B5,211.0,0.25,81,114.28
1349,G5,211.0,0.25,81,114.28
1350,B5,211.5,0.25,79,114.28
1351,D6,211.5,0.25,79,114.28
1352,G5,211.5,0.25,79,114.28
1353,F#6,212.0,0.5,82,114.28
1354,D6,212.0,0.5,82,114.28
1355,B5,212.0,0.5,82,114.28
1356,G5,212.0,0.5,82,114.28
1357,E2,212.0,0.5,73,114.28
1358,B2,212.0,0.5,73,114.28
1359,E3,212.0,0.5,73,114.28
1360,F#4,212.5,1.0,62,114.28
1361,D4,212.5,1.0,62,114.28
1362,B3,212.5,1.0,62,114.28
1363,G3,212.5,1.0,62,114.28
1364,F#6,213.0,0.5,74,114.28
1365,D6,213.0,0.5,74,114.28
1366,B5,213.0,0.5,74,114.28
1367,G5,213.0,0.5,74,114.28
1368,G4,213.5,1.0,62,114.28
1369,F#4,213.5,1.0,62,114.28
1370,D4,213.5,1.0,62,114.28
1371,B3,213.5,1.0,62,114.28
1372,F#6,213.75,0.25,74,114.28
1373,D6,213.75,0.25,74,114.28
1374,B5,213.75,0.25,74,114.28
1375,G5,213.75,0.25,74,114.28
1376,F#6,214.0,1.0,74,114.28
1377,D6,214.0,1.0,74,114.28
1378,B5,214.0,1.0,74,114.28
1379,G5,214.0,1.0,74,114.28
1380,B4,214.5,0.5,62,114.28
1381,G4,214.5,0.5,62,114.28
1382,F#4,214.5,0.5,62,114.28
1383,D4,214.5,0.5,62,114.28
1384,B5,215.0,0.25,86,114.28
1385,G5,215.0,0.25,86,114.28
1386,C#6,215.5,0.25,86,114.28
1387,B5,215.5,0.25,86,114.28
1388,G5,215.5,0.25,86,114.28
1389,D6,216.0,0.5,96,114.28
1390,A2,216.0,1/5,69,114.28
1391,G5,216.0,1.0,86,114.28
1392,B5,216.0,1.0,86,114.28
1393,E3,216.2,1/5,60,114.28
1394,A3,216.4,1/5,60,114.28
1395,E6,216.5,0.5,86,114.28
1396,D4,216.6,1/5,60,114.28
1397,G4,216.8,1/5,60,114.28
1398,B4,217.0,0.5,60,114.28
1399,B5,217.0,0.25,91,114.28
1400,G5,217.0,0.25,91,114.28
1401,C#6,217.5,0.25,89,114.28
1402,B5,217.5,0.25,89,114.28
1403,G5,217.5,0.25,89,114.28
1404,D6,218.0,0.5,96,114.28
1405,A2,218.0,1/5,69,114.28
1406,B5,218.0,1.0,86,114.28
1407,G5,218.0,1.0,86,114.28
1408,E3,218.2,1/5,60,114.28
1409,A3,218.4,1/5,60,114.28
1410,E6,218.5,0.5,89,114.28
1411,D4,218.6,1/5,60,114.28
1412,G4,218.8,1/5,60,114.28
1413,B4,219.0,0.5,60,114.28
1414,B5,219.0,0.25,91,114.28
1415,G5,219.0,0.25,91,114.28
1416,C#6,219.5,0.25,91,114.28
1417,B5,219.5,0.25,91,114.28
1418,G5,219.5,0.25,91,114.28
1419,D5,220.0,0.5,86,114.28
1420,D6,220.0,0.5,86,114.28
1421,A5,220.0,0.5,86,114.28
1422,G5,220.0,0.5,86,114.28
1423,D2,220.0,0.5,75,114.28
1424,A2,220.0,0.5,75,114.28
1425,D3,220.0,0.5,75,114.28
1426,F#4,220.5,1.0,64,114.28
1427,D4,220.5,1.0,64,114.28
1428,A3,220.5,1.0,64,114.28
1429,A5,221.0,0.5,75,114.28
1430,D5,221.0,0.5,75,114.28
1431,D6,221.0,0.5,75,114.28
1432,F#5,221.0,0.5,75,114.28
1433,A4,221.5,1.0,64,114.28
1434,F#4,221.5,1.0,64,114.28
1435,D4,221.5,1.0,64,114.28
1436,A5,221.75,0.25,75,114.28
1437,D5,221.75,0.25,75,114.28
1438,D6,221.75,0.25,75,114.28
1439,F#5,221.75,0.25,75,114.28
1440,A5,222.0,0.5,75,114.28
1441,D5,222.0,0.5,75,114.28
1442,D6,222.0,0.5,75,114.28
1443,F#5,222.0,0.5,75,114.28
1444,F#4,222.5,0.5,62,114.28
1445,A4,222.5,0.5,62,114.28
1446,D5,222.5,0.5,62,114.28
1447,G2,224.0,2.0,44,114.28
1448,D3,224.0,2.0,44,114.28
1449,G2,226.0,2.0,44,114.28
1450,D3,226.0,2.0,44,114.28
1451,B4,228.0,0.5,44,114.28
1452,B3,228.0,2.0,30,114.28
1453,D4,228.0,2.0,30,114.28
1454,G2,228.0,2.0,30,114.28
1455,D3,228.0,2.0,30,114.28
1456,A4,228.5,1.0,46,114.28
1457,G4,229.5,0.5,42,114.28
1458,B3,230.0,0.5,44,114.28
1459,B3,230.0,2.0,35,114.28
1460,D4,230.0,2.0,35,114.28
1461,F#4,230.0,2.0,35,114.28
1462,G2,230.0,2.0,30,114.28
1463,D3,230.0,2.0,30,114.28
1464,A3,230.5,1.0,45,114.28
1465,G3,231.5,0.5,40,114.28
1466,A4,232.0,0.5,44,114.28
1467,A3,232.0,2.0,30,114.28
1468,C4,232.0,2.0,30,114.28
1469,G2,232.0,2.0,32,114.28
1470,D3,232.0,2.0,32,114.28
1471,F#3,232.0,2.0,32,114.28
1472,G4,232.5,1.0,46,114.28
1473,F#4,233.5,0.5,40,114.28
1474,A3,234.0,0.5,44,114.28
1475,A3,234.0,2.0,35,114.28
1476,C4,234.0,2.0,35,114.28
1477,E4,234.0,2.0,35,114.28
1478,G2,234.0,2.0,30,114.28
1479,D3,234.0,2.0,30,114.28
1480,G3,234.5,1.0,46,114.28
1481,F#3,235.5,0.5,40,114.28
1482,G4,236.0,0.5,45,114.28
1483,G3,236.0,2.0,31,114.28
1484,B3,236.0,2.0,31,114.28
1485,E3,236.0,2.0,32,114.28
1486,G2,236.0,2.0,32,114.28
1487,D3,236.0,2.0,32,114.28
1488,F#4,236.5,1.0,46,114.28
1489,E4,237.5,0.5,40,114.28
1490,G3,238.0,0.5,44,114.28
1491,E2,238.0,2.0,37,114.28
1492,G3,238.0,2.0,37,114.28
1493,D4,238.0,2.0,37,114.28
1494,G4,238.0,2.0,37,114.28
1495,F#3,238.5,1.0,46,114.28
1496,E3,239.5,0.5,42,114.28
1497,F#4,240.0,0.5,45,114.28
1498,G3,240.0,2.0,44,114.28
1499,C#4,240.0,2.0,44,114.28
1500,A1,240.0,2.0,44,114.28
1501,A2,240.0,2.0,44,114.28
1502,E4,240.5,1.0,46,114.28
1503,F#4,241.5,0.5,42,114.28
1504,F#3,242.0,2.0,44,114.28
1505,D4,242.0,2.0,44,114.28
1506,D2,242.0,0.5,50,114.28
1507,A2,242.0,0.5,50,114.28
1508,D4,242.5,1.0,55,114.28
1509,D3,242.5,1.0,55,114.28
1510,C#3,243.5,0.5,55,114.28
1511,C#4,243.5,0.5,55,114.28
1512,E5,244.0,0.5,56,114.28
1513,E4,244.0,2.0,40,114.28
1514,B4,244.0,2.0,40,114.28
1515,C3,244.0,2.0,40,114.28
1516,G3,244.0,2.0,40,114.28
1517,C4,244.0,2.0,40,114.28
1518,D5,244.5,1.0,55,114.28
1519,C5,245.5,0.5,44,114.28
1520,G3,246.0,2.0,34,114.28
1521,E4,246.0,2.0,42,114.28
1522,G4,246.0,2.0,42,114.28
1523,B4,246.0,2.0,42,114.28
1524,E3,246.0,0.5,31,114.28
1525,E4,246.0,0.5,31,114.28
1526,D3,246.5,1.0,36,114.28
1527,D4,246.5,1.0,36,114.28
1528,C3,247.5,0.5,28,114.28
1529,C4,247.5,0.5,28,114.28
1530,D5,248.0,0.5,51,114.28
1531,D4,248.0,2.0,36,114.28
1532,A4,248.0,2.0,36,114.28
1533,B2,248.0,2.0,31,114.28
1534,F#3,248.0,2.0,31,114.28
1535,B3,248.0,2.0,31,114.28
1536,C5,248.5,1.0,55,114.28
1537,B4,249.5,0.5,44,114.28
1538,F#3,250.0,2.0,36,114.28
1539,D4,250.0,2.0,40,114.28
1540,F#4,250.0,2.0,40,114.28
1541,A4,250.0,2.0,40,114.28
1542,D3,250.0,0.5,31,114.28
1543,D4,250.0,0.5,31,114.28
1544,C3,250.5,1.0,36,114.28
1545,C4,250.5,1.0,36,114.28
1546,B2,251.5,0.5,29,114.28
1547,B3,251.5,0.5,29,114.28
1548,C5,252.0,0.5,52,114.28
1549,C4,252.0,2.0,36,114.28
1550,G4,252.0,2.0,36,114.28
1551,A2,252.0,2.0,30,114.28
1552,E3,252.0,2.0,30,114.28
1553,A3,252.0,2.0,30,114.28
1554,B4,252.5,1.0,55,114.28
1555,A4,253.5,0.5,47,114.28
1556,F#5,254.0,1.25,61,114.28
1557,A1,254.0,2.0,55,114.28
1558,C4,254.0,0.5,57,114.28
1559,G4,254.0,2.0,35,114.28
1560,C5,254.0,2.0,35,114.28
1561,B3,254.5,1.0,51,114.28
1562,A5,255.25,0.25,55,114.28
1563,G5,255.5,167/1000,44,114.28
1564,A3,255.5,0.5,45,114.28
1565,E5,255.667,167/1000,44,114.28
1566,C5,255.833,167/1000,44,114.28
1567,B4,256.0,0.5,46,114.28
1568,C4,256.0,2.0,37,114.28
1569,F#4,256.0,2.0,37,114.28
1570,D2,256.0,2.0,40,114.28
1571,D3,256.0,2.0,40,114.28
1572,A4,256.5,1.0,48,114.28
1573,B4,257.5,0.5,39,114.28
1574,C4,258.0,0.5,40,114.28
1575,G4,258.0,2.0,30,114.28
1576,G2,258.0,1.375,30,114.28
1577,D3,258.0,1.375,30,114.28
1578,B3,258.5,0.875,37,114.28
1579,F#3,259.375,0.625,27,114.28
1580,E-4,259.5,0.5,27,114.28
1581,F#4,259.625,0.375,27,114.28
1582,B4,259.75,0.25,27,114.28
1583,E-5,259.875,0.125,27,114.28
1584,B5,260.0,0.5,42,114.28
1585,B4,260.0,2.0,27,114.28
1586,E-5,260.0,2.0,27,114.28
1587,F#3,260.0,2.0,27,114.28
1588,E-4,260.0,2.0,27,114.28
1589,F#4,260.0,2.0,27,114.28
1590,B-5,260.5,1.0,45,114.28
1591,G#5,261.5,0.25,40,114.28
1592,B4,261.75,0.25,27,114.28
1593,E-5,261.875,0.125,27,114.28
1594,B-5,262.0,1.75,44,114.28
1595,B4,262.0,2.0,27,114.28
1596,E-5,262.0,2.0,27,114.28
1597,B4,262.0,0.5,29,114.28
1598,F#3,262.0,2.0,27,114.28
1599,E-4,262.0,2.0,27,114.28
1600,F#4,262.0,2.0,27,114.28
1601,B-4,262.5,1.0,29,114.28
1602,G#4,263.5,0.5,27,114.28
1603,B4,263.75,0.25,27,114.28
1604,E-5,263.875,0.125,27,114.28
1605,B-5,264.0,0.5,42,114.28
1606,B4,264.0,2.0,27,114.28
1607,E-5,264.0,2.0,27,114.28
1608,B-4,264.0,2.0,27,114.28
1609,F#3,264.0,2.0,27,114.28
1610,E-4,264.0,2.0,27,114.28
1611,F#4,264.0,2.0,27,114.28
1612,G#5,264.5,1.0,45,114.28
1613,F#5,265.5,0.25,40,114.28
1614,B4,265.75,0.25,27,114.28
1615,E-5,265.875,0.125,27,114.28
1616,G#5,266.0,2.0,42,114.28
1617,B4,266.0,2.0,27,114.28
1618,E-5,266.0,2.0,27,114.28
1619,B-4,266.0,0.5,29,114.28
1620,F#3,266.0,2.0,27,114.28
1621,E-4,266.0,2.0,27,114.28
1622,F#4,266.0,2.0,27,114.28
1623,G#4,266.5,1.0,29,114.28
1624,F#4,267.5,0.5,27,114.28
1625,C5,268.0,2.0,29,114.28
1626,G#5,268.0,0.5,42,114.28
1627,E-4,268.0,2.0,29,114.28
1628,F#4,268.0,2.0,29,114.28
1629,G5,268.5,1.0,47,114.28
1630,F#5,269.5,0.5,42,114.28
1631,C#5,270.0,0.5,37,114.28
1632,F5,270.0,1.0,50,114.28
1633,C#4,270.0,2.0,34,114.28
1634,G#4,270.0,2.0,34,114.28
1635,C5,270.5,1.0,39,114.28
1636,E5,271.0,1.0,44,114.28
1637,B4,271.5,0.5,35,114.28
1638,B-4,272.0,2.0,31,114.28
1639,E-5,272.0,0.5,38,114.28
1640,E4,272.0,2.0,31,114.28
1641,F#3,272.0,2.0,31,114.28
1642,C#5,272.5,1.0,42,114.28
1643,E-5,273.5,0.5,42,114.28
1644,E4,274.0,0.5,31,114.28
1645,B3,274.0,2.0,25,114.28
1646,F#4,274.0,1.375,30,114.28
1647,B4,274.0,1.375,30,114.28
1648,E-4,274.5,0.875,31,114.28
1649,D3,275.375,0.625,23,114.28
1650,B3,275.5,0.5,23,114.28
1651,D4,275.625,0.375,23,114.28
1652,G4,275.75,0.25,23,114.28
1653,B4,275.875,0.125,23,114.28
1654,G5,276.0,0.5,37,114.28
1655,G4,276.0,2.0,23,114.28
1656,B4,276.0,2.0,23,114.28
1657,D3,276.0,2.0,23,114.28
1658,B3,276.0,2.0,23,114.28
1659,D4,276.0,2.0,23,114.28
1660,F#5,276.5,1.0,39,114.28
1661,E5,277.5,0.25,36,114.28
1662,G4,277.75,0.25,23,114.28
1663,B4,277.875,0.125,23,114.28
1664,F#5,278.0,1.75,38,114.28
1665,G4,278.0,2.0,23,114.28
1666,B4,278.0,2.0,23,114.28
1667,G4,278.0,0.5,29,114.28
1668,D3,278.0,2.0,23,114.28
1669,B3,278.0,2.0,23,114.28
1670,D4,278.0,2.0,23,114.28
1671,F#4,278.5,1.0,29,114.28
1672,E4,279.5,0.5,27,114.28
1673,G4,279.75,0.25,23,114.28
1674,B4,279.875,0.125,23,114.28
1675,F#5,280.0,0.5,37,114.28
1676,G4,280.0,2.0,23,114.28
1677,B4,280.0,2.0,23,114.28
1678,F#4,280.0,2.0,27,114.28
1679,D3,280.0,2.0,23,114.28
1680,B3,280.0,2.0,23,114.28
1681,D4,280.0,2.0,23,114.28
1682,E5,280.5,1.0,39,114.28
1683,D5,281.5,0.25,36,114.28
1684,G4,281.75,0.25,23,114.28
1685,B4,281.875,0.125,23,114.28
1686,E5,282.0,2.0,38,114.28
1687,G4,282.0,2.0,23,114.28
1688,B4,282.0,2.0,23,114.28
1689,F#4,282.0,0.5,29,114.28
1690,D3,282.0,2.0,23,114.28
1691,B3,282.0,2.0,23,114.28
1692,D4,282.0,2.0,23,114.28
1693,E4,282.5,1.0,29,114.28
1694,D4,283.5,0.5,27,114.28
1695,G#4,284.0,2.0,27,114.28
1696,E5,284.0,0.5,39,114.28
1697,B3,284.0,2.0,27,114.28
1698,D4,284.0,2.0,27,114.28
1699,E-5,284.5,1.0,45,114.28
1700,D5,285.5,0.5,39,114.28
1701,A4,286.0,0.5,35,114.28
1702,C#5,286.0,1.0,47,114.28
1703,A3,286.0,2.0,30,114.28
1704,E4,286.0,2.0,30,114.28
1705,G#4,286.5,1.0,37,114.28
1706,C5,287.0,1.0,40,114.28
1707,G4,287.5,0.5,31,114.28
1708,F#4,288.0,2.0,29,114.28
1709,B4,288.0,0.5,36,114.28
1710,C4,288.0,2.0,29,114.28
1711,D3,288.0,2.0,29,114.28
1712,A4,288.5,1.0,39,114.28
1713,F#4,289.5,0.5,39,114.28
1714,D4,290.0,2.0,28,114.28
1715,B3,290.0,0.5,29,114.28
1716,A3,290.5,1.0,29,114.28
1717,F#3,291.5,0.5,29,114.28
1718,B4,292.0,0.5,35,114.28
1719,B3,292.0,2.0,26,114.28
1720,D4,292.0,2.0,26,114.28
1721,G2,292.0,1.0,23,114.28
1722,D3,292.0,1.0,23,114.28
1723,A4,292.5,1.0,36,114.28
1724,D5,293.0,1.0,34,114.28
1725,G4,293.5,0.5,34,114.28
1726,B3,294.0,0.5,29,114.28
1727,B3,294.0,2.0,29,114.28
1728,D4,294.0,2.0,29,114.28
1729,F#4,294.0,2.0,29,114.28
1730,G2,294.0,2.0,26,114.28
1731,D3,294.0,2.0,26,114.28
1732,A3,294.5,1.0,35,114.28
1733,G3,295.5,0.5,31,114.28
1734,A4,296.0,0.5,36,114.28
1735,A3,296.0,2.0,26,114.28
1736,C4,296.0,2.0,26,114.28
1737,G2,296.0,1.0,22,114.28
1738,D3,296.0,1.0,22,114.28
1739,F#3,296.0,1.0,22,114.28
1740,G4,296.5,1.0,38,114.28
1741,D5,297.0,1.0,35,114.28
1742,F#4,297.5,0.5,35,114.28
1743,A3,298.0,0.5,29,114.28
1744,A3,298.0,2.0,29,114.28
1745,C4,298.0,2.0,29,114.28
1746,E4,298.0,2.0,29,114.28
1747,G2,298.0,2.0,26,114.28
1748,D3,298.0,2.0,26,114.28
1749,G3,298.5,1.0,36,114.28
1750,F#3,299.5,0.5,31,114.28
1751,G4,300.0,0.5,37,114.28
1752,G3,300.0,2.0,27,114.28
1753,B3,300.0,2.0,27,114.28
1754,E3,300.0,1.0,22,114.28
1755,G2,300.0,1.0,22,114.28
1756,D3,300.0,1.0,22,114.28
1757,F#4,300.5,1.0,38,114.28
1758,D5,301.0,0.75,34,114.28
1759,E4,301.5,0.5,35,114.28
1760,E2,301.75,0.25,30,114.28
1761,G3,302.0,0.5,34,114.28
1762,E2,302.0,2.0,30,114.28
1763,G3,302.0,2.0,27,114.28
1764,D4,302.0,2.0,27,114.28
1765,G4,302.0,2.0,27,114.28
1766,F#3,302.5,1.0,36,114.28
1767,E3,303.5,0.5,31,114.28
1768,F#4,304.0,0.5,37,114.28
1769,G3,304.0,2.0,36,114.28
1770,C#4,304.0,2.0,36,114.28
1771,A1,304.0,1.0,36,114.28
1772,A2,304.0,1.0,36,114.28
1773,E4,304.5,1.0,38,114.28
1774,A4,305.0,1.0,36,114.28
1775,F#4,305.5,0.5,35,114.28
1776,F#3,306.0,2.0,36,114.28
1777,D4,306.0,2.0,36,114.28
1778,D2,306.0,0.5,42,114.28
1779,A2,306.0,0.5,42,114.28
1780,D4,306.5,1.0,46,114.28
1781,D3,306.5,1.0,46,114.28
1782,C#3,307.5,0.5,46,114.28
1783,C#4,307.5,0.5,46,114.28
1784,E5,308.0,0.5,47,114.28
1785,E4,308.0,2.0,35,114.28
1786,B4,308.0,2.0,35,114.28
1787,C3,308.0,1.0,35,114.28
1788,G3,308.0,1.0,35,114.28
1789,C4,308.0,1.0,35,114.28
1790,D5,308.5,1.0,46,114.28
1791,G5,309.0,1.0,46,114.28
1792,C5,309.5,0.5,36,114.28
1793,G3,310.0,2.0,22,114.28
1794,E4,310.0,2.0,36,114.28
1795,G4,310.0,2.0,36,114.28
1796,B4,310.0,2.0,36,114.28
1797,E3,310.0,0.5,23,114.28
1798,E4,310.0,0.5,23,114.28
1799,D3,310.5,1.0,31,114.28
1800,D4,310.5,1.0,31,114.28
1801,C3,311.5,0.5,25,114.28
1802,C4,311.5,0.5,25,114.28
1803,D5,312.0,0.5,42,114.28
1804,D4,312.0,2.0,29,114.28
1805,A4,312.0,2.0,29,114.28
1806,B2,312.0,1.0,27,114.28
1807,F#3,312.0,1.0,27,114.28
1808,B3,312.0,1.0,27,114.28
1809,C5,312.5,1.0,46,114.28
1810,F#5,313.0,1.0,46,114.28
1811,B4,313.5,0.5,36,114.28
1812,F#3,314.0,2.0,22,114.28
1813,D4,314.0,2.0,33,114.28
1814,F#4,314.0,2.0,33,114.28
1815,A4,314.0,2.0,33,114.28
1816,D3,314.0,0.5,23,114.28
1817,D4,314.0,0.5,23,114.28
1818,C3,314.5,1.0,31,114.28
1819,C4,314.5,1.0,31,114.28
1820,B2,315.5,0.5,25,114.28
1821,B3,315.5,0.5,25,114.28
1822,C5,316.0,0.5,44,114.28
1823,C4,316.0,2.0,29,114.28
1824,G4,316.0,2.0,29,114.28
1825,A2,316.0,1.0,26,114.28
1826,E3,316.0,1.0,26,114.28
1827,A3,316.0,1.0,26,114.28
1828,B4,316.5,1.0,46,114.28
1829,E5,317.0,0.75,44,114.28
1830,A4,317.5,0.5,39,114.28
1831,A1,317.75,0.25,56,114.28
1832,F#5,318.0,1.25,51,114.28
1833,C4,318.0,0.5,55,114.28
1834,A1,318.0,2.0,56,114.28
1835,G4,318.0,2.0,28,114.28
1836,C5,318.0,2.0,28,114.28
1837,B3,318.5,1.0,42,114.28
1838,A5,319.25,0.25,46,114.28
1839,G5,319.5,167/1000,36,114.28
1840,A3,319.5,0.5,37,114.28
1841,E5,319.667,167/1000,36,114.28
1842,C5,319.833,167/1000,36,114.28
1843,B4,320.0,0.5,38,114.28
1844,C4,320.0,2.0,30,114.28
1845,F#4,320.0,2.0,30,114.28
1846,D2,320.0,1.0,35,114.28
1847,D3,320.0,1.0,35,114.28
1848,A4,320.5,1.0,40,114.28
1849,D5,321.0,1.0,38,114.28
1850,B4,321.5,0.5,34,114.28
1851,C4,322.0,0.5,35,114.28
1852,G4,322.0,2.0,26,114.28
1853,G2,322.0,1.5,26,114.28
1854,D3,322.0,1.5,26,114.28
1855,B3,322.5,1.0,30,114.28
1856,F#3,323.375,0.625,27,114.28
1857,E-4,323.5,0.5,27,114.28
1858,F#4,323.625,0.375,27,114.28
1859,B4,323.75,0.25,27,114.28
1860,E-5,323.875,0.125,27,114.28
1861,B5,324.0,0.5,42,114.28
1862,B4,324.0,2.0,27,114.28
1863,E-5,324.0,2.0,27,114.28
1864,E-4,324.0,2.0,27,114.28
1865,F#3,324.0,2.0,27,114.28
1866,F#4,324.0,2.0,27,114.28
1867,B-5,324.5,1.0,45,114.28
1868,G#5,325.5,0.25,40,114.28
1869,B4,325.75,0.25,27,114.28
1870,E-5,325.875,0.125,27,114.28
1871,B-5,326.0,1.75,42,114.28
1872,B4,326.0,2.0,27,114.28
1873,E-5,326.0,2.0,27,114.28
1874,B4,326.0,0.5,29,114.28
1875,E-4,326.0,2.0,27,114.28
1876,F#3,326.0,2.0,27,114.28
1877,F#4,326.0,2.0,27,114.28
1878,B-4,326.5,1.0,29,114.28
1879,G#4,327.5,0.5,27,114.28
1880,B4,327.75,0.25,27,114.28
1881,E-5,327.875,0.125,27,114.28
1882,B-5,328.0,0.5,42,114.28
1883,B4,328.0,2.0,27,114.28
1884,E-5,328.0,2.0,27,114.28
1885,B-4,328.0,2.0,27,114.28
1886,E-4,328.0,2.0,27,114.28
1887,F#3,328.0,2.0,27,114.28
1888,F#4,328.0,2.0,27,114.28
1889,G#5,328.5,1.0,45,114.28
1890,F#5,329.5,0.25,40,114.28
1891,B4,329.75,0.25,27,114.28
1892,E-5,329.875,0.125,27,114.28
1893,G#5,330.0,2.0,42,114.28
1894,B4,330.0,2.0,27,114.28
1895,E-5,330.0,2.0,27,114.28
1896,B-4,330.0,0.5,29,114.28
1897,E-4,330.0,2.0,27,114.28
1898,F#3,330.0,2.0,27,114.28
1899,F#4,330.0,2.0,27,114.28
1900,G#4,330.5,1.0,29,114.28
1901,F#4,331.5,0.5,27,114.28
1902,C5,332.0,2.0,29,114.28
1903,G#5,332.0,0.5,42,114.28
1904,E-4,332.0,2.0,29,114.28
1905,F#4,332.0,2.0,29,114.28
1906,G5,332.5,1.0,47,114.28
1907,F#5,333.5,0.5,42,114.28
1908,C#5,334.0,0.5,37,114.28
1909,F5,334.0,1.0,50,114.28
1910,C#4,334.0,2.0,34,114.28
1911,G#4,334.0,2.0,34,114.28
1912,C5,334.5,1.0,39,114.28
1913,E5,335.0,1.0,44,114.28
1914,B4,335.5,0.5,35,114.28
1915,B-4,336.0,2.0,31,114.28
1916,E-5,336.0,0.5,38,114.28
1917,E4,336.0,2.0,31,114.28
1918,F#3,336.0,2.0,31,114.28
1919,C#5,336.5,1.0,42,114.28
1920,E-5,337.5,0.5,42,114.28
1921,E4,338.0,0.5,31,114.28
1922,B3,338.0,2.0,25,114.28
1923,F#4,338.0,1.375,30,114.28
1924,B4,338.0,1.375,30,114.28
1925,E-4,338.5,0.875,31,114.28
1926,D3,339.375,0.625,23,114.28
1927,B3,339.5,0.5,23,114.28
1928,D4,339.625,0.375,23,114.28
1929,G4,339.75,0.25,23,114.28
1930,B4,339.875,0.125,23,114.28
1931,G5,340.0,0.5,37,114.28
1932,G4,340.0,2.0,23,114.28
1933,B4,340.0,2.0,23,114.28
1934,D3,340.0,2.0,23,114.28
1935,B3,340.0,2.0,23,114.28
1936,D4,340.0,2.0,23,114.28
1937,F#5,340.5,1.0,39,114.28
1938,E5,341.5,0.25,36,114.28
1939,G4,341.75,0.25,23,114.28
1940,B4,341.875,0.125,23,114.28
1941,F#5,342.0,1.75,38,114.28
1942,G4,342.0,2.0,23,114.28
1943,B4,342.0,2.0,23,114.28
1944,G4,342.0,0.5,29,114.28
1945,D3,342.0,2.0,23,114.28
1946,B3,342.0,2.0,23,114.28
1947,D4,342.0,2.0,23,114.28
1948,F#4,342.5,1.0,29,114.28
1949,E4,343.5,0.5,27,114.28
1950,G4,343.75,0.25,23,114.28
1951,B4,343.875,0.125,23,114.28
1952,F#5,344.0,0.5,37,114.28
1953,G4,344.0,2.0,23,114.28
1954,B4,344.0,2.0,23,114.28
1955,F#4,344.0,2.0,27,114.28
1956,D3,344.0,2.0,23,114.28
1957,B3,344.0,2.0,23,114.28
1958,D4,344.0,2.0,23,114.28
1959,E5,344.5,1.0,39,114.28
1960,D5,345.5,0.25,36,114.28
1961,G4,345.75,0.25,23,114.28
1962,B4,345.875,0.125,23,114.28
1963,E5,346.0,2.0,38,114.28
1964,G4,346.0,2.0,23,114.28
1965,B4,346.0,2.0,23,114.28
1966,F#4,346.0,0.5,29,114.28
1967,D3,346.0,2.0,23,114.28
1968,B3,346.0,2.0,23,114.28
1969,D4,346.0,2.0,23,114.28
1970,E4,346.5,1.0,29,114.28
1971,D4,347.5,0.5,27,114.28
1972,G#4,348.0,2.0,27,114.28
1973,E5,348.0,0.5,39,114.28
1974,B3,348.0,2.0,27,114.28
1975,D4,348.0,2.0,27,114.28
1976,E-5,348.5,1.0,45,114.28
1977,D5,349.5,0.5,39,114.28
1978,A4,350.0,0.5,35,114.28
1979,C#5,350.0,1.0,47,114.28
1980,A3,350.0,2.0,30,114.28
1981,E4,350.0,2.0,30,114.28
1982,G#4,350.5,1.0,37,114.28
1983,C5,351.0,1.0,40,114.28
1984,G4,351.5,0.5,31,114.28
1985,F#4,352.0,2.0,29,114.28
1986,B4,352.0,0.5,36,114.28
1987,C4,352.0,2.0,29,114.28
1988,D3,352.0,2.0,29,114.28
1989,A4,352.5,1.0,39,114.28
1990,F#4,353.5,0.5,39,114.28
1991,D4,354.0,2.0,28,114.28
1992,B3,354.0,0.5,29,114.28
1993,A3,354.5,1.0,29,114.28
1994,F#3,355.5,0.5,29,114.28
1995,B4,356.0,0.5,35,114.28
1996,B3,356.0,2.0,26,114.28
1997,D4,356.0,2.0,26,114.28
1998,G2,356.0,1.0,23,114.28
1999,D3,356.0,1.0,23,114.28
2000,A4,356.5,1.0,36,114.28
2001,D5,357.0,1.0,34,114.28
2002,G4,357.5,0.5,34,114.28
2003,B3,358.0,0.5,29,114.28
2004,B3,358.0,2.0,29,114.28
2005,D4,358.0,2.0,29,114.28
2006,F#4,358.0,2.0,29,114.28
2007,G2,358.0,2.0,26,114.28
2008,D3,358.0,2.0,26,114.28
2009,A3,358.5,1.0,35,114.28
2010,G3,359.5,0.5,31,114.28
2011,A4,360.0,0.5,36,114.28
2012,A3,360.0,2.0,26,114.28
2013,C4,360.0,2.0,26,114.28
2014,G2,360.0,1.0,22,114.28
2015,D3,360.0,1.0,22,114.28
2016,F#3,360.0,1.0,22,114.28
2017,G4,360.5,1.0,38,114.28
2018,D5,361.0,1.0,35,114.28
2019,F#4,361.5,0.5,35,114.28
2020,A3,362.0,0.5,29,114.28
2021,A3,362.0,2.0,30,114.28
2022,C4,362.0,2.0,30,114.28
2023,E4,362.0,2.0,30,114.28
2024,G2,362.0,2.0,26,114.28
2025,D3,362.0,2.0,26,114.28
2026,G3,362.5,1.0,36,114.28
2027,F#3,363.5,0.5,31,114.28
2028,G4,364.0,0.5,37,114.28
2029,G3,364.0,2.0,27,114.28
2030,B3,364.0,2.0,27,114.28
2031,E3,364.0,1.0,22,114.28
2032,G2,364.0,1.0,22,114.28
2033,D3,364.0,1.0,22,114.28
2034,F#4,364.5,1.0,38,114.28
2035,D5,365.0,0.75,35,114.28
2036,E4,365.5,0.5,35,114.28
2037,E2,365.75,0.25,30,114.28
2038,G3,366.0,0.5,34,114.28
2039,E2,366.0,2.0,30,114.28
2040,G3,366.0,2.0,27,114.28
2041,D4,366.0,2.0,27,114.28
2042,G4,366.0,2.0,27,114.28
2043,F#3,366.5,1.0,36,114.28
2044,E3,367.5,0.5,31,114.28
2045,F#4,368.0,0.5,37,114.28
2046,G3,368.0,2.0,36,114.28
2047,C#4,368.0,2.0,36,114.28
2048,A1,368.0,1.0,36,114.28
2049,A2,368.0,1.0,36,114.28
2050,E4,368.5,1.0,38,114.28
2051,A4,369.0,1.0,36,114.28
2052,F#4,369.5,0.5,35,114.28
2053,F#3,370.0,2.0,36,114.28
2054,D4,370.0,2.0,36,114.28
2055,D2,370.0,0.5,42,114.28
2056,A2,370.0,0.5,42,114.28
2057,D4,370.5,1.0,46,114.28
2058,D3,370.5,1.0,46,114.28
2059,C#3,371.5,0.5,46,114.28
2060,C#4,371.5,0.5,46,114.28
2061,E5,372.0,0.5,47,114.28
2062,E4,372.0,2.0,35,114.28
2063,B4,372.0,2.0,35,114.28
2064,C3,372.0,1.0,35,114.28
2065,G3,372.0,1.0,35,114.28
2066,C4,372.0,1.0,35,114.28
2067,D5,372.5,1.0,46,114.28
2068,G5,373.0,1.0,47,114.28
2069,C5,373.5,0.5,36,114.28
2070,G3,374.0,2.0,22,114.28
2071,E4,374.0,2.0,36,114.28
2072,G4,374.0,2.0,36,114.28
2073,B4,374.0,2.0,36,114.28
2074,E3,374.0,0.5,23,114.28
2075,E4,374.0,0.5,23,114.28
2076,D3,374.5,1.0,31,114.28
2077,D4,374.5,1.0,31,114.28
2078,C3,375.5,0.5,25,114.28
2079,C4,375.5,0.5,25,114.28
2080,D5,376.0,0.5,42,114.28
2081,D4,376.0,2.0,29,114.28
2082,A4,376.0,2.0,29,114.28
2083,B2,376.0,1.0,27,114.28
2084,F#3,376.0,1.0,27,114.28
2085,B3,376.0,1.0,27,114.28
2086,C5,376.5,1.0,46,114.28
2087,F#5,377.0,1.0,46,114.28
2088,B4,377.5,0.5,36,114.28
2089,F#3,378.0,2.0,22,114.28
2090,D4,378.0,2.0,33,114.28
2091,F#4,378.0,2.0,33,114.28
2092,A4,378.0,2.0,33,114.28
2093,D3,378.0,0.5,23,114.28
2094,D4,378.0,0.5,23,114.28
2095,C3,378.5,1.0,31,114.28
2096,C4,378.5,1.0,31,114.28
2097,B2,379.5,0.5,25,114.28
2098,B3,379.5,0.5,25,114.28
2099,C5,380.0,0.5,44,114.28
2100,C4,380.0,2.0,29,114.28
2101,G4,380.0,2.0,29,114.28
2102,A2,380.0,1.0,26,114.28
2103,E3,380.0,1.0,26,114.28
2104,A3,380.0,1.0,26,114.28
2105,B4,380.5,1.0,46,114.28
2106,E5,381.0,0.75,42,114.28
2107,A4,381.5,0.5,39,114.28
2108,A1,381.75,0.25,56,114.28
2109,F#5,382.0,1.25,51,114.28
2110,C4,382.0,0.5,55,114.28
2111,A1,382.0,2.0,56,114.28
2112,G4,382.0,2.0,28,114.28
2113,C5,382.0,2.0,28,114.28
2114,B3,382.5,1.0,42,114.28
2115,A5,383.25,0.25,46,114.28
2116,G5,383.5,167/1000,36,114.28
2117,A3,383.5,0.5,37,114.28
2118,E5,383.667,167/1000,36,114.28
2119,C5,383.833,167/1000,36,114.28
2120,B4,384.0,0.5,38,114.28
2121,C4,384.0,2.0,30,114.28
2122,F#4,384.0,2.0,30,114.28
2123,D2,384.0,1.0,35,114.28
2124,D3,384.0,1.0,35,114.28
2125,A4,384.5,1.0,40,114.28
2126,D5,385.0,1.0,35,114.28
2127,B4,385.5,0.5,34,114.28
2128,C4,386.0,0.5,35,114.28
2129,G4,386.0,2.0,26,114.28
2130,G2,386.0,1.5,26,114.28
2131,D3,386.0,1.5,26,114.28
2132,B3,386.5,1.0,30,114.28
2133,D2,388.0,0.5,36,114.28
2134,A2,388.0,0.5,36,114.28
2135,D3,389.0,0.5,31,114.28
2136,A3,389.0,0.5,31,114.28
2137,D3,389.5,0.5,31,114.28
2138,A3,389.5,0.5,31,114.28
2139,D3,390.0,0.5,36,114.28
2140,A3,390.0,0.5,36,114.28
2141,D2,391.0,0.5,31,114.28
2142,A2,391.0,0.5,31,114.28
2143,D2,391.5,0.5,31,114.28
2144,A2,391.5,0.5,31,114.28
2145,D2,392.0,0.5,36,114.28
2146,A2,392.0,0.5,36,114.28
2147,D3,393.0,0.5,31,114.28
2148,A3,393.0,0.5,31,114.28
2149,D3,393.5,0.5,31,114.28
2150,A3,393.5,0.5,31,114.28
2151,D3,394.0,0.5,35,114.28
2152,A3,394.0,0.5,35,114.28
2153,D2,395.0,0.5,31,114.28
2154,A2,395.0,0.5,31,114.28
2155,A4,395.5,167/1000,39,114.28
2156,D2,395.5,0.5,31,114.28
2157,A2,395.5,0.5,31,114.28
2158,B4,395.667,167/1000,39,114.28
2159,A4,395.833,167/1000,41,114.28
2160,F#4,396.0,1.0,44,114.28
2161,D2,396.0,0.5,35,114.28
2162,A2,396.0,0.5,35,114.28
2163,A4,396.5,0.5,44,114.28
2164,D5,397.0,0.125,44,114.28
2165,F#4,397.0,0.125,44,114.28
2166,D3,397.0,0.125,31,114.28
2167,A3,397.0,0.125,31,114.28
2168,F#5,397.5,0.125,44,114.28
2169,F#4,397.5,0.125,44,114.28
2170,D3,397.5,0.125,31,114.28
2171,A3,397.5,0.125,31,114.28
2172,E5,398.0,0.5,45,114.28
2173,F#4,398.0,1.0,37,114.28
2174,A3,398.0,0.5,35,114.28
2175,D3,398.0,0.5,35,114.28
2176,D5,398.5,0.5,42,114.28
2177,F#4,399.0,0.125,42,114.28
2178,D2,399.0,0.125,31,114.28
2179,A2,399.0,0.125,31,114.28
2180,A4,399.5,0.125,41,114.28
2181,F#4,399.5,0.125,41,114.28
2182,D2,399.5,0.125,31,114.28
2183,A2,399.5,0.125,31,114.28
2184,B4,400.0,0.5,45,114.28
2185,A4,400.0,0.5,45,114.28
2186,F#4,400.0,0.5,45,114.28
2187,D2,400.0,1.0,35,114.28
2188,A2,400.0,1.0,35,114.28
2189,B4,401.0,0.5,41,114.28
2190,A4,401.0,0.5,41,114.28
2191,F#4,401.0,0.5,41,114.28
2192,D3,401.0,0.5,33,114.28
2193,A3,401.0,0.5,33,114.28
2194,B4,401.75,0.25,41,114.28
2195,A4,401.75,0.25,41,114.28
2196,F#4,401.75,0.25,41,114.28
2197,D3,401.75,0.25,33,114.28
2198,A3,401.75,0.25,33,114.28
2199,B4,402.0,1.0,41,114.28
2200,A4,402.0,1.0,41,114.28
2201,F#4,402.0,1.0,41,114.28
2202,D3,402.0,1.0,33,114.28
2203,A3,402.0,1.0,33,114.28
2204,D4,403.0,0.125,42,114.28
2205,F#4,403.0,0.125,42,114.28
2206,D4,403.5,0.125,42,114.28
2207,G#4,403.5,0.125,42,114.28
2208,F#4,403.5,0.125,42,114.28
2209,A4,404.0,0.5,45,114.28
2210,D4,404.0,1.0,45,114.28
2211,F#4,404.0,1.0,45,114.28
2212,B1,404.0,1.0,34,114.28
2213,F#2,404.0,1.0,34,114.28
2214,B4,404.5,0.5,42,114.28
2215,F#4,405.0,0.125,44,114.28
2216,D4,405.0,0.125,44,114.28
2217,B2,405.0,0.125,31,114.28
2218,F#3,405.0,0.125,31,114.28
2219,G#4,405.5,0.125,44,114.28
2220,F#4,405.5,0.125,44,114.28
2221,D4,405.5,0.125,44,114.28
2222,B2,405.5,0.125,31,114.28
2223,F#3,405.5,0.125,31,114.28
2224,A4,406.0,0.5,45,114.28
2225,D4,406.0,1.0,45,114.28
2226,F#4,406.0,1.0,45,114.28
2227,E2,406.0,1.0,34,114.28
2228,B2,406.0,1.0,34,114.28
2229,B4,406.5,0.5,42,114.28
2230,D4,407.0,0.125,44,114.28
2231,F#4,407.0,0.125,44,114.28
2232,E3,407.0,0.125,31,114.28
2233,B3,407.0,0.125,31,114.28
2234,G#4,407.5,0.125,44,114.28
2235,D4,407.5,0.125,44,114.28
2236,F#4,407.5,0.125,44,114.28
2237,E3,407.5,0.125,31,114.28
2238,B3,407.5,0.125,31,114.28
2239,D4,408.0,0.5,47,114.28
2240,E4,408.0,0.5,47,114.28
2241,A4,408.0,0.5,47,114.28
2242,A1,408.0,1.0,35,114.28
2243,E2,408.0,1.0,35,114.28
2244,C#4,409.0,0.5,42,114.28
2245,A4,409.0,0.5,42,114.28
2246,E4,409.0,0.5,33,114.28
2247,A3,409.0,0.5,33,114.28
2248,C#4,409.75,0.25,42,114.28
2249,A4,409.75,0.25,42,114.28
2250,E4,409.75,0.25,33,114.28
2251,A3,409.75,0.25,33,114.28
2252,C#4,410.0,0.5,42,114.28
2253,A4,410.0,0.5,42,114.28
2254,E4,410.0,0.5,33,114.28
2255,A3,410.0,0.5,33,114.28
2256,C#5,411.5,167/1000,44,114.28
2257,D5,411.667,167/1000,44,114.28
2258,C#5,411.833,167/1000,44,114.28
2259,B4,412.0,1.0,47,114.28
2260,G2,412.0,1.0,39,114.28
2261,D3,412.0,1.0,39,114.28
2262,D5,412.5,0.5,47,114.28
2263,G5,413.0,0.125,49,114.28
2264,B4,413.0,0.125,49,114.28
2265,D4,413.0,0.125,38,114.28
2266,G3,413.0,0.125,38,114.28
2267,B5,413.5,0.125,45,114.28
2268,B4,413.5,0.125,45,114.28
2269,D4,413.5,0.125,38,114.28
2270,G3,413.5,0.125,38,114.28
2271,A5,414.0,0.5,48,114.28
2272,B4,414.0,1.0,41,114.28
2273,G3,414.0,1.0,41,114.28
2274,D4,414.0,1.0,41,114.28
2275,G5,414.5,0.5,42,114.28
2276,B4,415.0,0.125,42,114.28
2277,G4,415.0,0.125,42,114.28
2278,B4,415.5,0.125,42,114.28
2279,D5,415.5,0.125,42,114.28
2280,G4,415.5,0.125,42,114.28
2281,F#5,416.0,0.5,46,114.28
2282,D5,416.0,0.5,46,114.28
2283,B4,416.0,0.5,46,114.28
2284,G4,416.0,0.5,46,114.28
2285,E2,416.0,1.0,36,114.28
2286,B2,416.0,1.0,36,114.28
2287,F#5,417.0,0.5,42,114.28
2288,D5,417.0,0.5,42,114.28
2289,B4,417.0,0.5,42,114.28
2290,G4,417.0,0.5,42,114.28
2291,B3,417.0,0.5,34,114.28
2292,E3,417.0,0.5,34,114.28
2293,F#5,417.75,0.25,42,114.28
2294,D5,417.75,0.25,42,114.28
2295,B4,417.75,0.25,42,114.28
2296,G4,417.75,0.25,42,114.28
2297,B3,417.75,0.25,34,114.28
2298,E3,417.75,0.25,34,114.28
2299,F#5,418.0,1.0,42,114.28
2300,D5,418.0,1.0,42,114.28
2301,B4,418.0,1.0,42,114.28
2302,G4,418.0,1.0,42,114.28
2303,E3,418.0,1.0,36,114.28
2304,B3,418.0,1.0,36,114.28
2305,B4,419.0,0.125,42,114.28
2306,G4,419.0,0.125,42,114.28
2307,C#5,419.5,0.125,42,114.28
2308,B4,419.5,0.125,42,114.28
2309,G4,419.5,0.125,42,114.28
2310,D5,420.0,0.5,46,114.28
2311,G4,420.0,1.0,46,114.28
2312,B4,420.0,1.0,46,114.28
2313,A2,420.0,1.0,39,114.28
2314,E3,420.0,1.0,39,114.28
2315,E5,420.5,0.5,42,114.28
2316,B4,421.0,0.125,45,114.28
2317,G4,421.0,0.125,45,114.28
2318,E4,421.0,0.125,36,114.28
2319,A3,421.0,0.125,36,114.28
2320,C#5,421.5,0.125,45,114.28
2321,B4,421.5,0.125,45,114.28
2322,G4,421.5,0.125,45,114.28
2323,E4,421.5,0.125,36,114.28
2324,A3,421.5,0.125,36,114.28
2325,D5,422.0,0.5,47,114.28
2326,B4,422.0,1.0,47,114.28
2327,G4,422.0,1.0,47,114.28
2328,A3,422.0,1.0,39,114.28
2329,E4,422.0,1.0,39,114.28
2330,E5,422.5,0.5,44,114.28
2331,B4,423.0,0.125,45,114.28
2332,G4,423.0,0.125,45,114.28
2333,C#5,423.5,0.125,45,114.28
2334,B4,423.5,0.125,45,114.28
2335,G4,423.5,0.125,45,114.28
2336,D5,424.0,0.5,49,114.28
2337,A4,424.0,0.5,49,114.28
2338,G4,424.0,0.5,49,114.28
2339,D2,424.0,1.0,39,114.28
2340,A2,424.0,1.0,39,114.28
2341,D5,425.0,0.5,45,114.28
2342,F#4,425.0,0.5,45,114.28
2343,A4,425.0,0.5,36,114.28
2344,D4,425.0,0.5,36,114.28
2345,D5,425.75,0.25,45,114.28
2346,F#4,425.75,0.25,45,114.28
2347,A4,425.75,0.25,36,114.28
2348,D4,425.75,0.25,36,114.28
2349,D5,426.0,0.5,45,114.28
2350,F#4,426.0,0.5,45,114.28
2351,A4,426.0,1.0,36,114.28
2352,D4,426.0,1.0,36,114.28
2353,D3,427.0,0.5,27,114.28
2354,A3,427.0,0.5,27,114.28
2355,D3,427.5,0.5,27,114.28
2356,A3,427.5,0.5,27,114.28
2357,D3,428.0,0.5,31,114.28
2358,A3,428.0,0.5,31,114.28
2359,D4,429.0,0.5,27,114.28
2360,A4,429.0,0.5,27,114.28
2361,D4,429.5,0.5,27,114.28
2362,A4,429.5,0.5,27,114.28
2363,D4,430.0,0.5,33,114.28
2364,A4,430.0,0.5,33,114.28
2365,D3,431.0,0.5,27,114.28
2366,A3,431.0,0.5,27,114.28
2367,D3,431.5,0.5,27,114.28
2368,A3,431.5,0.5,27,114.28
2369,D3,432.0,0.5,30,114.28
2370,A3,432.0,0.5,30,114.28
2371,D4,433.0,0.5,27,114.28
2372,A4,433.0,0.5,27,114.28
2373,D4,433.5,0.5,27,114.28
2374,A4,433.5,0.5,27,114.28
2375,D4,434.0,0.5,31,114.28
2376,A4,434.0,0.5,31,114.28
2377,D3,435.0,0.5,27,114.28
2378,A3,435.0,0.5,27,114.28
2379,A5,435.5,167/1000,35,114.28
2380,D3,435.5,0.5,27,114.28
2381,A3,435.5,0.5,27,114.28
2382,B5,435.667,167/1000,35,114.28
2383,A5,435.833,167/1000,36,114.28
2384,F#5,436.0,1.0,39,114.28
2385,D3,436.0,0.5,31,114.28
2386,A3,436.0,0.5,31,114.28
2387,A5,436.5,0.5,39,114.28
2388,D6,437.0,0.125,39,114.28
2389,F#5,437.0,0.125,39,114.28
2390,D4,437.0,0.125,27,114.28
2391,A4,437.0,0.125,27,114.28
2392,F#6,437.5,0.125,37,114.28
2393,F#5,437.5,0.125,37,114.28
2394,D4,437.5,0.125,27,114.28
2395,A4,437.5,0.125,27,114.28
2396,E6,438.0,0.5,41,114.28
2397,F#5,438.0,1.0,33,114.28
2398,A4,438.0,0.5,31,114.28
2399,D4,438.0,0.5,31,114.28
2400,D6,438.5,0.5,37,114.28
2401,F#5,439.0,0.125,37,114.28
2402,D3,439.0,0.125,27,114.28
2403,A3,439.0,0.125,27,114.28
2404,A5,439.5,0.125,36,114.28
2405,F#5,439.5,0.125,36,114.28
2406,D3,439.5,0.125,27,114.28
2407,A3,439.5,0.125,27,114.28
2408,B5,440.0,0.5,39,114.28
2409,A5,440.0,0.5,39,114.28
2410,F#5,440.0,0.5,39,114.28
2411,D3,440.0,1.0,31,114.28
2412,A3,440.0,1.0,31,114.28
2413,B5,441.0,0.5,37,114.28
2414,A5,441.0,0.5,37,114.28
2415,F#5,441.0,0.5,37,114.28
2416,D4,441.0,0.5,30,114.28
2417,A4,441.0,0.5,30,114.28
2418,B5,441.75,0.25,37,114.28
2419,A5,441.75,0.25,37,114.28
2420,F#5,441.75,0.25,37,114.28
2421,D4,441.75,0.25,30,114.28
2422,A4,441.75,0.25,30,114.28
2423,B5,442.0,1.0,37,114.28
2424,A5,442.0,1.0,37,114.28
2425,F#5,442.0,1.0,37,114.28
2426,D4,442.0,1.0,30,114.28
2427,A4,442.0,1.0,30,114.28
2428,D5,443.0,0.125,38,114.28
2429,F#5,443.0,0.125,38,114.28
2430,D5,443.5,0.125,38,114.28
2431,G#5,443.5,0.125,38,114.28
2432,F#5,443.5,0.125,38,114.28
2433,A5,444.0,0.5,41,114.28
2434,D5,444.0,1.0,41,114.28
2435,F#5,444.0,1.0,41,114.28
2436,B2,444.0,1.0,30,114.28
2437,F#3,444.0,1.0,30,114.28
2438,B5,444.5,0.5,37,114.28
2439,F#5,445.0,0.125,39,114.28
2440,D5,445.0,0.125,39,114.28
2441,B3,445.0,0.125,27,114.28
2442,F#4,445.0,0.125,27,114.28
2443,G#5,445.5,0.125,38,114.28
2444,F#5,445.5,0.125,38,114.28
2445,D5,445.5,0.125,38,114.28
2446,B3,445.5,0.125,27,114.28
2447,F#4,445.5,0.125,27,114.28
2448,A5,446.0,0.5,41,114.28
2449,D5,446.0,1.0,41,114.28
2450,F#5,446.0,1.0,41,114.28
2451,E3,446.0,1.0,30,114.28
2452,B3,446.0,1.0,30,114.28
2453,B5,446.5,0.5,37,114.28
2454,D5,447.0,0.125,39,114.28
2455,F#5,447.0,0.125,39,114.28
2456,E4,447.0,0.125,27,114.28
2457,B4,447.0,0.125,27,114.28
2458,G#5,447.5,0.125,39,114.28
2459,D5,447.5,0.125,39,114.28
2460,F#5,447.5,0.125,39,114.28
2461,E4,447.5,0.125,27,114.28
2462,B4,447.5,0.125,27,114.28
2463,D5,448.0,0.5,41,114.28
2464,E5,448.0,0.5,41,114.28
2465,A5,448.0,0.5,41,114.28
2466,A3,448.0,1.0,30,114.28
2467,E4,448.0,1.0,30,114.28
2468,C#5,449.0,0.5,38,114.28
2469,A5,449.0,0.5,38,114.28
2470,E5,449.0,0.5,28,114.28
2471,A4,449.0,0.5,28,114.28
2472,C#5,449.75,0.25,38,114.28
2473,A5,449.75,0.25,38,114.28
2474,E5,449.75,0.25,28,114.28
2475,A4,449.75,0.25,28,114.28
2476,C#5,450.0,0.5,38,114.28
2477,A5,450.0,0.5,38,114.28
2478,E5,450.0,0.5,28,114.28
2479,A4,450.0,0.5,28,114.28
2480,C#6,451.5,167/1000,39,114.28
2481,D6,451.667,167/1000,39,114.28
2482,C#6,451.833,167/1000,39,114.28
2483,B5,452.0,1.0,42,114.28
2484,G3,452.0,1.0,35,114.28
2485,D4,452.0,1.0,35,114.28
2486,D6,452.5,0.5,42,114.28
2487,G6,453.0,0.125,44,114.28
2488,B5,453.0,0.125,44,114.28
2489,D5,453.0,0.125,33,114.28
2490,G4,453.0,0.125,33,114.28
2491,B6,453.5,0.125,39,114.28
2492,B5,453.5,0.125,39,114.28
2493,D5,453.5,0.125,33,114.28
2494,G4,453.5,0.125,33,114.28
2495,A6,454.0,0.5,42,114.28
2496,B5,454.0,1.0,37,114.28
2497,G4,454.0,1.0,36,114.28
2498,D5,454.0,1.0,36,114.28
2499,G6,454.5,0.5,38,114.28
2500,B5,455.0,0.125,38,114.28
2501,G5,455.0,0.125,38,114.28
2502,B5,455.5,0.125,38,114.28
2503,D6,455.5,0.125,38,114.28
2504,G5,455.5,0.125,38,114.28
2505,F#6,456.0,0.5,42,114.28
2506,D6,456.0,0.5,42,114.28
2507,B5,456.0,0.5,42,114.28
2508,G5,456.0,0.5,42,114.28
2509,E3,456.0,1.0,33,114.28
2510,B3,456.0,1.0,33,114.28
2511,F#6,457.0,0.5,37,114.28
2512,D6,457.0,0.5,37,114.28
2513,B5,457.0,0.5,37,114.28
2514,G5,457.0,0.5,37,114.28
2515,B4,457.0,0.5,29,114.28
2516,E4,457.0,0.5,29,114.28
2517,F#6,457.75,0.25,37,114.28
2518,D6,457.75,0.25,37,114.28
2519,B5,457.75,0.25,37,114.28
2520,G5,457.75,0.25,37,114.28
2521,B4,457.75,0.25,29,114.28
2522,E4,457.75,0.25,29,114.28
2523,F#6,458.0,1.0,37,114.28
2524,D6,458.0,1.0,37,114.28
2525,B5,458.0,1.0,37,114.28
2526,G5,458.0,1.0,37,114.28
2527,E4,458.0,1.0,33,114.28
2528,B4,458.0,1.0,33,114.28
2529,B5,459.0,0.125,38,114.28
2530,G5,459.0,0.125,38,114.28
2531,C#6,459.5,0.125,38,114.28
2532,B5,459.5,0.125,38,114.28
2533,G5,459.5,0.125,38,114.28
2534,D6,460.0,0.5,42,114.28
2535,G5,460.0,1.0,42,114.28
2536,B5,460.0,1.0,42,114.28
2537,A3,460.0,1.0,34,114.28
2538,E4,460.0,1.0,34,114.28
2539,E6,460.5,0.5,38,114.28
2540,B5,461.0,0.125,39,114.28
2541,G5,461.0,0.125,39,114.28
2542,E5,461.0,0.125,33,114.28
2543,A4,461.0,0.125,33,114.28
2544,C#6,461.5,0.125,39,114.28
2545,B5,461.5,0.125,39,114.28
2546,G5,461.5,0.125,39,114.28
2547,E5,461.5,0.125,33,114.28
2548,A4,461.5,0.125,33,114.28
2549,D6,462.0,0.5,42,114.28
2550,B5,462.0,1.0,42,114.28
2551,G5,462.0,1.0,42,114.28
2552,A4,462.0,1.0,35,114.28
2553,E5,462.0,1.0,35,114.28
2554,E6,462.5,0.5,39,114.28
2555,B5,463.0,0.125,39,114.28
2556,G5,463.0,0.125,39,114.28
2557,C#6,463.5,0.125,39,114.28
2558,B5,463.5,0.125,39,114.28
2559,G5,463.5,0.125,39,114.28
2560,D6,464.0,0.5,44,114.28
2561,A5,464.0,0.5,44,114.28
2562,G5,464.0,0.5,44,114.28
2563,D4,464.0,1.0,34,114.28
2564,A4,464.0,1.0,34,114.28
2565,D6,465.0,0.5,39,114.28
2566,F#5,465.0,0.5,39,114.28
2567,A5,465.0,0.5,33,114.28
2568,D5,465.0,0.5,33,114.28
2569,D6,465.75,0.25,39,114.28
2570,F#5,465.75,0.25,39,114.28
2571,A5,465.75,0.25,33,114.28
2572,D5,465.75,0.25,33,114.28
2573,D6,466.0,0.5,39,114.28
2574,F#5,466.0,0.5,39,114.28
2575,A5,466.0,1.0,33,114.28
2576,D5,466.0,1.0,33,114.28
2577,A2,468.0,1.0,80,114.28
2578,E3,468.0,1.0,80,114.28
2579,A2,469.0,0.25,72,114.28
2580,E3,469.0,0.25,72,114.28
2581,E3,469.5,0.25,72,114.28
2582,A2,469.5,0.25,72,114.28
2583,A2,470.0,1.0,80,114.28
2584,E3,470.0,1.0,80,114.28
2585,A2,471.0,0.25,72,114.28
2586,E3,471.0,0.25,72,114.28
2587,A2,471.5,0.25,72,114.28
2588,E3,471.5,0.25,72,114.28
2589,C#4,472.0,0.25,75,114.28
2590,E4,472.0,1.0,75,114.28
2591,A2,472.0,1.0,71,114.28
2592,E3,472.0,1.0,71,114.28
2593,B3,472.25,0.25,68,114.28
2594,C#4,472.5,0.25,68,114.28
2595,A3,472.75,0.125,68,114.28
2596,D4,473.0,0.25,68,114.28
2597,F#4,473.0,1.0,71,114.28
2598,A2,473.0,0.5,64,114.28
2599,E3,473.0,0.5,64,114.28
2600,B3,473.5,0.25,68,114.28
2601,A2,473.5,0.25,64,114.28
2602,E3,473.5,0.25,64,114.28
2603,C#4,474.0,0.25,75,114.28
2604,E4,474.0,1.0,75,114.28
2605,A2,474.0,1.0,71,114.28
2606,E3,474.0,1.0,71,114.28
2607,B3,474.25,0.25,69,114.28
2608,C#4,474.5,0.25,69,114.28
2609,A3,474.75,0.125,69,114.28
2610,D4,475.0,0.25,68,114.28
2611,F#4,475.0,1.0,71,114.28
2612,A2,475.0,0.5,64,114.28
2613,E3,475.0,0.5,64,114.28
2614,B3,475.5,0.25,68,114.28
2615,A2,475.5,0.25,64,114.28
2616,E3,475.5,0.25,64,114.28
2617,F#5,476.5,167/1000,56,114.28
2618,D5,476.5,0.5,56,114.28
2619,G#4,476.5,0.5,56,114.28
2620,G#5,476.667,167/1000,56,114.28
2621,F#5,476.833,167/1000,56,114.28
2622,E5,477.0,0.25,60,114.28
2623,C#5,477.0,0.25,60,114.28
2624,A4,477.0,0.25,60,114.28
2625,C#5,477.5,0.25,59,114.28
2626,E5,477.5,0.25,59,114.28
2627,A4,477.5,0.25,59,114.28
2628,E5,478.0,2.0,59,114.28
2629,C#5,478.0,2.0,59,114.28
2630,A4,478.0,2.0,59,114.28
2631,G#3,480.0,1.0,59,114.28
2632,C4,480.0,1.0,52,114.28
2633,E4,480.0,1.0,52,114.28
2634,G#4,481.0,0.5,48,114.28
2635,C5,481.0,0.5,48,114.28
2636,E5,481.0,0.5,48,114.28
2637,G#4,481.5,0.5,47,114.28
2638,C5,481.5,0.5,47,114.28
2639,E5,481.5,0.5,47,114.28
2640,G#4,482.0,1.0,46,114.28
2641,C5,482.0,1.0,46,114.28
2642,E5,482.0,1.0,46,114.28
2643,C5,483.0,0.25,34,114.28
2644,E5,483.0,0.25,34,114.28
2645,E5,483.5,0.25,34,114.28
2646,C5,483.5,0.25,34,114.28
2647,F5,483.5,0.25,34,114.28
2648,G5,484.0,0.5,37,114.28
2649,C5,484.0,1.0,37,114.28
2650,E5,484.0,1.0,37,114.28
2651,G2,484.0,0.25,33,114.28
2652,E3,484.0,0.25,33,114.28
2653,G3,484.25,0.25,33,114.28
2654,A5,484.5,0.5,34,114.28
2655,C4,484.5,0.25,33,114.28
2656,E4,484.75,0.25,33,114.28
2657,C5,485.0,0.25,34,114.28
2658,E5,485.0,0.25,34,114.28
2659,C5,485.5,0.25,34,114.28
2660,E5,485.5,0.25,34,114.28
2661,F5,485.5,0.25,34,114.28
2662,G5,486.0,0.5,38,114.28
2663,B4,486.0,1.0,38,114.28
2664,F5,486.0,1.0,38,114.28
2665,G2,486.0,0.25,33,114.28
2666,D3,486.0,0.25,33,114.28
2667,G3,486.25,0.25,33,114.28
2668,A5,486.5,0.5,34,114.28
2669,B3,486.5,0.25,33,114.28
2670,F4,486.75,0.25,33,114.28
2671,G4,487.0,0.25,34,114.28
2672,B4,487.0,0.25,34,114.28
2673,E5,487.0,0.25,34,114.28
2674,G4,487.5,0.25,34,114.28
2675,B4,487.5,0.25,34,114.28
2676,D5,487.5,0.25,34,114.28
2677,D5,487.75,0.125,35,114.28
2678,E5,487.875,0.125,35,114.28
2679,E4,488.0,1.0,39,114.28
2680,D5,488.0,0.5,39,114.28
2681,C2,488.0,1.0,33,114.28
2682,G2,488.0,1.0,33,114.28
2683,C5,488.5,0.5,34,114.28
2684,E4,489.0,0.25,34,114.28
2685,C5,489.0,0.25,34,114.28
2686,C3,489.0,0.25,30,114.28
2687,G3,489.0,0.25,30,114.28
2688,E4,489.5,0.25,34,114.28
2689,C5,489.5,0.25,34,114.28
2690,C3,489.5,0.25,30,114.28
2691,G3,489.5,0.25,30,114.28
2692,E4,490.0,0.75,39,114.28
2693,C5,490.0,0.75,39,114.28
2694,C3,490.0,0.75,33,114.28
2695,G3,490.0,0.75,33,114.28
2696,G3,491.0,0.25,72,114.28
2697,C3,491.0,0.25,72,114.28
2698,C3,491.5,0.25,72,114.28
2699,G3,491.5,0.25,72,114.28
2700,E4,492.0,0.25,75,114.28
2701,G4,492.0,1.0,75,114.28
2702,C3,492.0,1.0,71,114.28
2703,G3,492.0,1.0,71,114.28
2704,D4,492.25,0.25,68,114.28
2705,E4,492.5,0.25,68,114.28
2706,C4,492.75,0.125,68,114.28
2707,F4,493.0,0.25,68,114.28
2708,A4,493.0,1.0,71,114.28
2709,G3,493.0,0.5,64,114.28
2710,C3,493.0,0.5,64,114.28
2711,D4,493.5,0.25,68,114.28
2712,C3,493.5,0.25,64,114.28
2713,G3,493.5,0.25,64,114.28
2714,E4,494.0,0.25,75,114.28
2715,G4,494.0,1.0,75,114.28
2716,G3,494.0,1.0,71,114.28
2717,C3,494.0,1.0,71,114.28
2718,D4,494.25,0.25,69,114.28
2719,E4,494.5,0.25,69,114.28
2720,C4,494.75,0.125,69,114.28
2721,F4,495.0,0.25,68,114.28
2722,A4,495.0,1.0,71,114.28
2723,G3,495.0,0.5,64,114.28
2724,C3,495.0,0.5,64,114.28
2725,D4,495.5,0.25,68,114.28
2726,G3,495.5,0.25,64,114.28
2727,C3,495.5,0.25,64,114.28
2728,A5,496.5,167/1000,56,114.28
2729,F5,496.5,0.5,56,114.28
2730,B4,496.5,0.5,56,114.28
2731,B5,496.667,167/1000,56,114.28
2732,A5,496.833,167/1000,56,114.28
2733,G5,497.0,0.25,60,114.28
2734,E5,497.0,0.25,60,114.28
2735,C5,497.0,0.25,60,114.28
2736,E5,497.5,0.25,59,114.28
2737,G5,497.5,0.25,59,114.28
2738,C5,497.5,0.25,59,114.28
2739,G5,498.0,2.0,59,114.28
2740,E5,498.0,2.0,59,114.28
2741,C5,498.0,2.0,59,114.28
2742,B3,500.0,1.0,59,114.28
2743,E-4,500.0,1.0,52,114.28
2744,G4,500.0,1.0,52,114.28
2745,B4,501.0,0.5,48,114.28
2746,E-5,501.0,0.5,48,114.28
2747,G5,501.0,0.5,48,114.28
2748,B4,501.5,0.5,47,114.28
2749,E-5,501.5,0.5,47,114.28
2750,G5,501.5,0.5,47,114.28
2751,B4,502.0,1.0,46,114.28
2752,E-5,502.0,1.0,46,114.28
2753,G5,502.0,1.0,46,114.28
2754,E-5,503.0,0.125,34,114.28
2755,G5,503.0,0.125,34,114.28
2756,G5,503.5,0.125,34,114.28
2757,E-5,503.5,0.125,34,114.28
2758,G#5,503.5,0.125,34,114.28
2759,B-5,504.0,0.5,37,114.28
2760,E-5,504.0,1.0,37,114.28
2761,G5,504.0,1.0,37,114.28
2762,B-2,504.0,0.25,33,114.28
2763,G3,504.0,0.25,33,114.28
2764,B-3,504.25,0.25,33,114.28
2765,C6,504.5,0.5,34,114.28
2766,E-4,504.5,0.25,33,114.28
2767,G4,504.75,0.25,33,114.28
2768,E-5,505.0,0.125,34,114.28
2769,G5,505.0,0.125,34,114.28
2770,E-5,505.5,0.125,34,114.28
2771,G5,505.5,0.125,34,114.28
2772,G#5,505.5,0.125,34,114.28
2773,B-5,506.0,0.5,38,114.28
2774,D5,506.0,1.0,38,114.28
2775,G#5,506.0,1.0,38,114.28
2776,F3,506.0,0.25,33,114.28
2777,B-2,506.0,0.25,33,114.28
2778,B-3,506.25,0.25,33,114.28
2779,C6,506.5,0.5,34,114.28
2780,D4,506.5,0.25,33,114.28
2781,G#4,506.75,0.25,33,114.28
2782,B-4,507.0,0.25,34,114.28
2783,D5,507.0,0.25,34,114.28
2784,G5,507.0,0.25,34,114.28
2785,B-4,507.5,0.25,34,114.28
2786,D5,507.5,0.25,34,114.28
2787,F5,507.5,0.25,34,114.28
2788,F5,507.75,0.125,35,114.28
2789,G5,507.875,0.125,35,114.28
2790,G4,508.0,1.0,39,114.28
2791,F5,508.0,0.5,39,114.28
2792,B-2,508.0,1.0,33,114.28
2793,E-2,508.0,1.0,33,114.28
2794,E-5,508.5,0.5,34,114.28
2795,G4,509.0,0.25,34,114.28
2796,E-5,509.0,0.25,34,114.28
2797,B-3,509.0,0.25,30,114.28
2798,E-3,509.0,0.25,30,114.28
2799,G4,509.5,0.25,34,114.28
2800,E-5,509.5,0.25,34,114.28
2801,B-3,509.5,0.25,30,114.28
2802,E-3,509.5,0.25,30,114.28
2803,G4,510.0,1.0,39,114.28
2804,E-5,510.0,1.0,39,114.28
2805,B-3,510.0,1.0,33,114.28
2806,E-3,510.0,1.0,33,114.28
2807,B-2,511.0,0.25,27,114.28
2808,E-3,511.0,0.25,27,114.28
2809,G3,511.25,0.25,26,114.28
2810,C#4,511.25,0.25,26,114.28
2811,E-2,511.5,0.25,23,114.28
2812,E-4,511.75,0.25,26,114.28
2813,C#4,511.75,0.25,26,114.28
2814,G3,511.75,0.25,26,114.28
2815,B-2,512.0,0.25,23,114.28
2816,E-3,512.0,0.25,23,114.28
2817,G3,512.25,0.25,28,114.28
2818,B-3,512.25,0.25,28,114.28
2819,F4,512.25,0.25,28,114.28
2820,E-2,512.5,0.25,26,114.28
2821,G3,512.75,0.25,28,114.28
2822,C#4,512.75,0.25,28,114.28
2823,G4,512.75,0.25,28,114.28
2824,B-2,513.0,0.25,29,114.28
2825,E-3,513.0,0.25,29,114.28
2826,G3,513.25,0.25,29,114.28
2827,C#4,513.25,0.25,29,114.28
2828,E-2,513.5,0.25,27,114.28
2829,E-4,513.75,0.25,28,114.28
2830,G3,513.75,0.25,28,114.28
2831,C#4,513.75,0.25,28,114.28
2832,B-2,514.0,0.25,27,114.28
2833,E-3,514.0,0.25,27,114.28
2834,G3,514.25,0.25,31,114.28
2835,C#4,514.25,0.25,31,114.28
2836,F4,514.25,0.25,31,114.28
2837,E-2,514.5,0.25,28,114.28
2838,G3,514.75,0.25,30,114.28
2839,C#4,514.75,0.25,30,114.28
2840,G4,514.75,0.25,30,114.28
2841,B-2,515.0,0.25,35,114.28
2842,E-3,515.0,0.25,35,114.28
2843,G3,515.25,0.25,32,114.28
2844,C#4,515.25,0.25,32,114.28
2845,E-2,515.5,0.25,30,114.28
2846,E-4,515.75,0.25,31,114.28
2847,G3,515.75,0.25,31,114.28
2848,C#4,515.75,0.25,31,114.28
2849,B-2,516.0,0.25,30,114.28
2850,E-3,516.0,0.25,30,114.28
2851,G3,516.25,0.25,32,114.28
2852,C#4,516.25,0.25,32,114.28
2853,F4,516.25,0.25,32,114.28
2854,E-2,516.5,0.25,30,114.28
2855,G#4,516.75,0.25,42,114.28
2856,B-2,517.0,0.25,36,114.28
2857,E-3,517.0,0.25,36,114.28
2858,G3,517.25,0.25,33,114.28
2859,C#4,517.25,0.25,33,114.28
2860,G4,517.25,0.25,33,114.28
2861,E-2,517.5,0.25,33,114.28
2862,E-4,517.75,0.25,33,114.28
2863,G3,517.75,0.25,33,114.28
2864,C#4,517.75,0.25,33,114.28
2865,B-2,518.0,0.25,33,114.28
2866,E-3,518.0,0.25,33,114.28
2867,G3,518.25,0.25,34,114.28
2868,C#4,518.25,0.25,34,114.28
2869,F4,518.25,0.25,34,114.28
2870,E-2,518.5,0.25,33,114.28
2871,G3,518.75,0.25,35,114.28
2872,C#4,518.75,0.25,35,114.28
2873,C3,519.0,0.25,33,114.28
2874,E-3,519.0,0.25,33,114.28
2875,G#3,519.25,0.25,36,114.28
2876,E-4,519.25,0.25,36,114.28
2877,E-2,519.5,0.25,30,114.28
2878,E-4,519.75,0.25,35,114.28
2879,F4,519.75,0.25,35,114.28
2880,G#3,519.75,0.25,35,114.28
2881,C3,520.0,0.25,31,114.28
2882,E-3,520.0,0.25,31,114.28
2883,G#3,520.25,0.25,33,114.28
2884,E-4,520.25,0.25,33,114.28
2885,G4,520.25,0.25,33,114.28
2886,E-2,520.5,0.25,30,114.28
2887,G#3,520.75,0.25,34,114.28
2888,E-4,520.75,0.25,34,114.28
2889,G#4,520.75,0.25,34,114.28
2890,C3,521.0,0.25,34,114.28
2891,E-3,521.0,0.25,34,114.28
2892,G#3,521.25,0.25,34,114.28
2893,E-4,521.25,0.25,34,114.28
2894,E-2,521.5,0.25,31,114.28
2895,E-4,521.75,0.25,33,114.28
2896,G#3,521.75,0.25,33,114.28
2897,F4,521.75,0.25,33,114.28
2898,C3,522.0,0.25,32,114.28
2899,E-3,522.0,0.25,32,114.28
2900,G#3,522.25,0.25,35,114.28
2901,E-4,522.25,0.25,35,114.28
2902,G4,522.25,0.25,35,114.28
2903,E-2,522.5,0.25,32,114.28
2904,G#3,522.75,0.25,34,114.28
2905,E-4,522.75,0.25,34,114.28
2906,G#4,522.75,0.25,34,114.28
2907,C3,523.0,0.25,40,114.28
2908,E-3,523.0,0.25,40,114.28
2909,G#3,523.25,0.25,36,114.28
2910,E-4,523.25,0.25,36,114.28
2911,E-2,523.5,0.25,34,114.28
2912,E-4,523.75,0.25,36,114.28
2913,G#3,523.75,0.25,36,114.28
2914,F4,523.75,0.25,36,114.28
2915,C3,524.0,0.25,35,114.28
2916,E-3,524.0,0.25,35,114.28
2917,G#3,524.25,0.25,37,114.28
2918,E-4,524.25,0.25,37,114.28
2919,G4,524.25,0.25,37,114.28
2920,E-2,524.5,0.25,35,114.28
2921,B-4,524.75,0.25,48,114.28
2922,C3,525.0,0.25,42,114.28
2923,E-3,525.0,0.25,42,114.28
2924,G#3,525.25,0.25,39,114.28
2925,E-4,525.25,0.25,39,114.28
2926,G#4,525.25,0.25,39,114.28
2927,E-2,525.5,0.25,37,114.28
2928,E-4,525.75,0.25,39,114.28
2929,G#3,525.75,0.25,39,114.28
2930,F4,525.75,0.25,39,114.28
2931,C3,526.0,0.25,38,114.28
2932,E-3,526.0,0.25,38,114.28
2933,G#3,526.25,0.25,39,114.28
2934,E-4,526.25,0.25,39,114.28
2935,G4,526.25,0.25,39,114.28
2936,E-2,526.5,0.25,38,114.28
2937,G#3,526.75,0.25,40,114.28
2938,E-4,526.75,0.25,40,114.28
2939,G#2,527.0,0.25,44,114.28
2940,F#3,527.0,0.25,44,114.28
2941,C4,527.25,0.25,48,114.28
2942,F#4,527.25,0.25,48,114.28
2943,E-2,527.5,0.25,42,114.28
2944,F#4,527.75,0.25,44,114.28
2945,G#4,527.75,0.25,44,114.28
2946,C4,527.75,0.25,44,114.28
2947,G#2,528.0,0.25,44,114.28
2948,F#3,528.0,0.25,44,114.28
2949,C4,528.25,0.25,47,114.28
2950,F#4,528.25,0.25,47,114.28
2951,B-4,528.25,0.25,47,114.28
2952,E-2,528.5,0.25,39,114.28
2953,C4,528.75,0.25,40,114.28
2954,F#4,528.75,0.25,40,114.28
2955,C5,528.75,0.25,40,114.28
2956,G#2,529.0,0.25,45,114.28
2957,F#3,529.0,0.25,45,114.28
2958,C4,529.25,0.25,48,114.28
2959,F#4,529.25,0.25,48,114.28
2960,E-2,529.5,0.25,42,114.28
2961,F#4,529.75,0.25,39,114.28
2962,C4,529.75,0.25,39,114.28
2963,G#4,529.75,0.25,39,114.28
2964,G#2,530.0,0.25,42,114.28
2965,F#3,530.0,0.25,42,114.28
2966,C4,530.25,0.25,47,114.28
2967,F#4,530.25,0.25,47,114.28
2968,B-4,530.25,0.25,47,114.28
2969,E-2,530.5,0.25,44,114.28
2970,C4,530.75,0.25,40,114.28
2971,F#4,530.75,0.25,40,114.28
2972,C5,530.75,0.25,40,114.28
2973,G#2,531.0,0.25,48,114.28
2974,F#3,531.0,0.25,48,114.28
2975,C4,531.25,0.25,47,114.28
2976,F#4,531.25,0.25,47,114.28
2977,E-2,531.5,0.25,42,114.28
2978,F#4,531.75,0.25,46,114.28
2979,C4,531.75,0.25,46,114.28
2980,G#4,531.75,0.25,46,114.28
2981,G#2,532.0,0.25,47,114.28
2982,F#3,532.0,0.25,47,114.28
2983,C4,532.25,0.25,56,114.28
2984,F#4,532.25,0.25,56,114.28
2985,B-4,532.25,0.25,56,114.28
2986,E-2,532.5,0.25,44,114.28
2987,C#5,532.75,0.25,50,114.28
2988,G#2,533.0,0.25,50,114.28
2989,F#3,533.0,0.25,50,114.28
2990,C4,533.25,0.25,55,114.28
2991,F#4,533.25,0.25,55,114.28
2992,C5,533.25,0.25,55,114.28
2993,E-2,533.5,0.25,46,114.28
2994,G#4,533.75,0.25,43,114.28
2995,C4,533.75,0.25,43,114.28
2996,F#4,533.75,0.25,43,114.28
2997,G#2,534.0,0.25,46,114.28
2998,F#3,534.0,0.25,46,114.28
2999,C4,534.25,0.25,43,114.28
3000,F#4,534.25,0.25,43,114.28
3001,B-4,534.25,0.25,43,114.28
3002,E-2,534.5,0.25,46,114.28
3003,C4,534.75,0.25,44,114.28
3004,F#4,534.75,0.25,44,114.28
3005,G#2,535.0,0.25,50,114.28
3006,F3,535.0,0.25,50,114.28
3007,C#4,535.25,0.25,59,114.28
3008,G#4,535.25,0.25,59,114.28
3009,E-2,535.5,0.25,46,114.28
3010,G#4,535.75,0.25,52,114.28
3011,B-4,535.75,0.25,52,114.28
3012,C#4,535.75,0.25,52,114.28
3013,G#2,536.0,0.25,48,114.28
3014,F3,536.0,0.25,48,114.28
3015,C#4,536.25,0.25,57,114.28
3016,G#4,536.25,0.25,57,114.28
3017,C5,536.25,0.25,57,114.28
3018,E-2,536.5,0.25,46,114.28
3019,C#4,536.75,0.25,55,114.28
3020,G#4,536.75,0.25,55,114.28
3021,C#5,536.75,0.25,55,114.28
3022,G#2,537.0,0.25,51,114.28
3023,F3,537.0,0.25,51,114.28
3024,C#4,537.25,0.25,59,114.28
3025,G#4,537.25,0.25,59,114.28
3026,E-2,537.5,0.25,47,114.28
3027,G#4,537.75,0.25,53,114.28
3028,C#4,537.75,0.25,53,114.28
3029,B-4,537.75,0.25,53,114.28
3030,G#2,538.0,0.25,50,114.28
3031,F3,538.0,0.25,50,114.28
3032,C#4,538.25,0.25,59,114.28
3033,G#4,538.25,0.25,59,114.28
3034,C5,538.25,0.25,59,114.28
3035,E-2,538.5,0.25,47,114.28
3036,C#4,538.75,0.25,55,114.28
3037,G#4,538.75,0.25,55,114.28
3038,C#5,538.75,0.25,55,114.28
3039,G#2,539.0,0.25,60,114.28
3040,F3,539.0,0.25,60,114.28
3041,C#4,539.25,0.25,59,114.28
3042,G#4,539.25,0.25,59,114.28
3043,E-2,539.5,0.25,50,114.28
3044,G#4,539.75,0.25,57,114.28
3045,C#4,539.75,0.25,57,114.28
3046,B-4,539.75,0.25,57,114.28
3047,G#2,540.0,0.25,56,114.28
3048,F3,540.0,0.25,56,114.28
3049,C#4,540.25,0.25,64,114.28
3050,G#4,540.25,0.25,64,114.28
3051,C5,540.25,0.25,64,114.28
3052,E-2,540.5,0.25,51,114.28
3053,E-5,540.75,0.25,64,114.28
3054,G#2,541.0,0.25,59,114.28
3055,F3,541.0,0.25,59,114.28
3056,C#4,541.25,0.25,62,114.28
3057,G#4,541.25,0.25,62,114.28
3058,C#5,541.25,0.25,62,114.28
3059,E-2,541.5,0.25,53,114.28
3060,B-4,541.75,0.25,52,114.28
3061,C#4,541.75,0.25,52,114.28
3062,G#4,541.75,0.25,52,114.28
3063,G#2,542.0,0.25,57,114.28
3064,F3,542.0,0.25,57,114.28
3065,C#4,542.25,0.25,52,114.28
3066,G#4,542.25,0.25,52,114.28
3067,C5,542.25,0.25,52,114.28
3068,E-2,542.5,0.25,53,114.28
3069,C#4,542.75,0.25,52,114.28
3070,G#4,542.75,0.25,52,114.28
3071,E-2,543.0,0.5,60,114.28
3072,B-2,543.0,0.5,60,114.28
3073,F3,543.0,0.5,60,114.28
3074,D4,543.25,0.25,71,114.28
3075,G#4,543.25,0.25,71,114.28
3076,E-2,543.5,0.5,55,114.28
3077,B-2,543.5,0.5,55,114.28
3078,F3,543.5,0.5,55,114.28
3079,G#4,543.75,0.25,63,114.28
3080,D4,543.75,0.25,63,114.28
3081,B-4,543.75,0.25,63,114.28
3082,E-2,544.0,1.0,57,114.28
3083,B-2,544.0,1.0,57,114.28
3084,F3,544.0,1.0,57,114.28
3085,D4,544.25,0.25,70,114.28
3086,G#4,544.25,0.25,70,114.28
3087,C5,544.25,0.25,70,114.28
3088,E-5,544.75,0.25,75,114.28
3089,E-3,545.0,0.5,53,114.28
3090,B-3,545.0,0.5,53,114.28
3091,F4,545.0,0.5,53,114.28
3092,D4,545.25,0.25,69,114.28
3093,G#4,545.25,0.25,69,114.28
3094,D5,545.25,0.25,69,114.28
3095,E-3,545.5,0.5,53,114.28
3096,B-3,545.5,0.5,53,114.28
3097,F4,545.5,0.5,53,114.28
3098,B-4,545.75,0.25,56,114.28
3099,D4,545.75,0.25,56,114.28
3100,G#4,545.75,0.25,56,114.28
3101,E-3,546.0,1.0,61,114.28
3102,B-3,546.0,1.0,61,114.28
3103,F4,546.0,1.0,61,114.28
3104,D4,546.25,0.25,57,114.28
3105,G#4,546.25,0.25,57,114.28
3106,C5,546.25,0.25,57,114.28
3107,G#4,546.75,0.25,62,114.28
3108,E-2,547.0,0.5,59,114.28
3109,B-2,547.0,0.5,59,114.28
3110,F3,547.0,0.5,59,114.28
3111,D5,547.25,0.25,70,114.28
3112,C5,547.25,0.25,70,114.28
3113,G#4,547.25,0.25,70,114.28
3114,E-2,547.5,0.5,55,114.28
3115,B-2,547.5,0.5,55,114.28
3116,F3,547.5,0.5,55,114.28
3117,G#4,547.75,0.25,66,114.28
3118,E-5,547.75,0.25,66,114.28
3119,C5,547.75,0.25,66,114.28
3120,E-2,548.0,1.0,59,114.28
3121,B-2,548.0,1.0,59,114.28
3122,F3,548.0,1.0,59,114.28
3123,F5,548.25,0.25,72,114.28
3124,G#4,548.25,0.25,72,114.28
3125,C5,548.25,0.25,72,114.28
3126,G#5,548.75,0.25,81,114.28
3127,E-3,549.0,0.5,61,114.28
3128,B-3,549.0,0.5,61,114.28
3129,F4,549.0,0.5,61,114.28
3130,G5,549.25,0.25,80,114.28
3131,G#4,549.25,0.25,80,114.28
3132,C5,549.25,0.25,80,114.28
3133,E-3,549.5,0.5,56,114.28
3134,B-3,549.5,0.5,56,114.28
3135,F4,549.5,0.5,56,114.28
3136,C5,549.75,0.25,72,114.28
3137,E-5,549.75,0.25,72,114.28
3138,G#4,549.75,0.25,72,114.28
3139,E-3,550.0,1.0,64,114.28
3140,B-3,550.0,1.0,64,114.28
3141,F4,550.0,1.0,64,114.28
3142,F5,550.25,0.25,80,114.28
3143,G#4,550.25,0.25,80,114.28
3144,C5,550.25,0.25,80,114.28
3145,D5,550.75,0.25,66,114.28
3146,F4,551.0,0.25,75,114.28
3147,F3,551.0,0.25,75,114.28
3148,F5,551.25,0.25,75,114.28
3149,G3,551.5,0.25,75,114.28
3150,G4,551.5,0.25,75,114.28
3151,G5,551.75,0.25,75,114.28
3152,G#4,552.0,0.25,82,114.28
3153,G#3,552.0,0.25,82,114.28
3154,G#5,552.25,0.25,81,114.28
3155,C5,552.5,0.25,75,114.28
3156,C4,552.5,0.25,75,114.28
3157,C6,552.75,0.25,75,114.28
3158,G#4,553.0,0.25,75,114.28
3159,G#3,553.0,0.25,75,114.28
3160,G#5,553.25,0.25,75,114.28
3161,F4,553.5,0.25,75,114.28
3162,F3,553.5,0.25,75,114.28
3163,F5,553.75,0.25,75,114.28
3164,G#4,554.0,0.5,82,114.28
3165,G#3,554.0,0.5,82,114.28
3166,G#5,554.25,0.25,81,114.28
3167,F4,554.5,0.5,75,114.28
3168,F3,554.5,0.5,75,114.28
3169,F5,554.75,0.25,75,114.28
3170,D4,555.0,0.5,75,114.28
3171,D3,555.0,0.5,75,114.28
3172,D5,555.25,0.25,75,114.28
3173,F3,555.5,0.5,75,114.28
3174,F4,555.5,0.5,75,114.28
3175,F5,555.75,0.25,75,114.28
3176,D3,556.0,0.5,82,114.28
3177,D4,556.0,0.5,82,114.28
3178,D5,556.25,0.25,81,114.28
3179,B-2,556.5,0.5,75,114.28
3180,B-3,556.5,0.5,75,114.28
3181,B-4,556.75,0.25,75,114.28
3182,D4,557.0,0.5,75,114.28
3183,D3,557.0,0.5,75,114.28
3184,D5,557.25,0.25,75,114.28
3185,B-2,557.5,0.5,75,114.28
3186,B-3,557.5,0.5,75,114.28
3187,B-4,557.75,0.25,75,114.28
3188,G2,558.0,0.5,82,114.28
3189,G3,558.0,0.5,82,114.28
3190,G4,558.25,0.25,81,114.28
3191,B-2,558.5,0.5,75,114.28
3192,B-3,558.5,0.5,75,114.28
3193,B-4,558.75,0.25,75,114.28
3194,G2,559.0,0.5,75,114.28
3195,G3,559.0,0.5,75,114.28
3196,G4,559.25,0.25,75,114.28
3197,E-2,559.5,0.5,75,114.28
3198,E-3,559.5,0.5,75,114.28
3199,E-4,559.75,0.25,75,114.28
3200,G2,560.0,0.5,85,114.28
3201,G3,560.0,0.5,85,114.28
3202,G4,560.25,0.25,85,114.28
3203,E-2,560.5,0.5,79,114.28
3204,E-3,560.5,0.5,79,114.28
3205,E-4,560.75,0.25,80,114.28
3206,C2,561.0,0.5,79,114.28
3207,C3,561.0,0.5,79,114.28
3208,C4,561.25,0.25,80,114.28
3209,E-2,561.5,0.5,79,114.28
3210,E-3,561.5,0.5,79,114.28
3211,E-4,561.75,0.25,80,114.28
3212,C2,562.0,0.5,85,114.28
3213,C3,562.0,0.5,85,114.28
3214,C4,562.25,0.25,93,114.28
3215,G#1,562.5,0.5,81,114.28
3216,G#2,562.5,0.5,81,114.28
3217,G#3,562.75,0.25,86,114.28
3218,C2,563.0,0.5,86,114.28
3219,C3,563.0,0.5,86,114.28
3220,C4,563.25,0.25,89,114.28
3221,G#1,563.5,0.5,95,114.28
3222,G#2,563.5,0.5,95,114.28
3223,G#3,563.75,0.25,103,114.28
3224,G3,564.0,4.0,108,114.28
3225,G1,564.0,4.0,98,114.28
3226,G2,564.0,4.0,98,114.28
3227,G#4,565.0,1.0,86,114.28
3228,G#3,565.0,1.0,86,114.28
3229,C4,565.0,1.0,86,114.28
3230,E-4,565.0,1.0,86,114.28
3231,E-3,565.0,1.0,79,114.28
3232,C3,565.0,1.0,79,114.28
3233,G#2,565.0,1.0,79,114.28
3234,G#5,566.0,1.0,86,114.28
3235,E-5,566.0,1.0,86,114.28
3236,G#4,566.0,1.0,86,114.28
3237,C5,566.0,1.0,86,114.28
3238,E-4,566.0,1.0,79,114.28
3239,C4,566.0,1.0,79,114.28
3240,G#3,566.0,1.0,79,114.28
3241,G#6,567.0,1.0,84,114.28
3242,E-6,567.0,1.0,84,114.28
3243,C6,567.0,1.0,84,114.28
3244,G#5,567.0,1.0,84,114.28
3245,E-5,567.0,1.0,79,114.28
3246,C5,567.0,1.0,79,114.28
3247,G#4,567.0,1.0,79,114.28
3248,F#3,568.0,4.0,108,114.28
3249,F#1,568.0,4.0,98,114.28
3250,F#2,568.0,4.0,98,114.28
3251,G#4,569.0,1.0,86,114.28
3252,G#3,569.0,1.0,86,114.28
3253,C4,569.0,1.0,86,114.28
3254,E-4,569.0,1.0,86,114.28
3255,E-3,569.0,1.0,79,114.28
3256,C3,569.0,1.0,79,114.28
3257,G#2,569.0,1.0,79,114.28
3258,G#5,570.0,1.0,86,114.28
3259,E-5,570.0,1.0,86,114.28
3260,G#4,570.0,1.0,86,114.28
3261,C5,570.0,1.0,86,114.28
3262,E-4,570.0,1.0,79,114.28
3263,C4,570.0,1.0,79,114.28
3264,G#3,570.0,1.0,79,114.28
3265,G#6,571.0,1.0,84,114.28
3266,E-6,571.0,1.0,84,114.28
3267,C6,571.0,1.0,84,114.28
3268,G#5,571.0,1.0,84,114.28
3269,E-5,571.0,1.0,79,114.28
3270,C5,571.0,1.0,79,114.28
3271,G#4,571.0,1.0,79,114.28
3272,F3,572.0,4.0,111,114.28
3273,F1,572.0,4.0,102,114.28
3274,F2,572.0,4.0,102,114.28
3275,G#4,573.0,1.0,86,114.28
3276,G#3,573.0,1.0,86,114.28
3277,B3,573.0,1.0,86,114.28
3278,E-4,573.0,1.0,86,114.28
3279,E-3,573.0,1.0,79,114.28
3280,B2,573.0,1.0,79,114.28
3281,G#2,573.0,1.0,79,114.28
3282,G#5,574.0,1.0,86,114.28
3283,E-5,574.0,1.0,86,114.28
3284,G#4,574.0,1.0,86,114.28
3285,B4,574.0,1.0,86,114.28
3286,E-4,574.0,1.0,79,114.28
3287,B3,574.0,1.0,79,114.28
3288,G#3,574.0,1.0,79,114.28
3289,G#6,575.0,1.0,84,114.28
3290,E-6,575.0,1.0,84,114.28
3291,B5,575.0,1.0,84,114.28
3292,G#5,575.0,1.0,84,114.28
3293,E-5,575.0,1.0,79,114.28
3294,B4,575.0,1.0,79,114.28
3295,G#4,575.0,1.0,79,114.28
3296,E3,576.0,4.0,111,114.28
3297,E1,576.0,4.0,93,114.28
3298,E2,576.0,2.0,110,114.28
3299,E2,577.0,3.0,74,114.28
3300,A3,577.0,1.0,87,114.28
3301,A4,577.0,1.0,87,114.28
3302,G3,577.0,1.0,87,114.28
3303,C#4,577.0,1.0,87,114.28
3304,G4,577.0,1.0,87,114.28
3305,C#3,577.0,1.0,81,114.28
3306,A2,577.0,1.0,81,114.28
3307,G4,578.0,1.0,87,114.28
3308,A5,578.0,1.0,87,114.28
3309,G5,578.0,1.0,87,114.28
3310,A4,578.0,1.0,87,114.28
3311,C#5,578.0,1.0,87,114.28
3312,A3,578.0,1.0,79,114.28
3313,C#4,578.0,1.0,79,114.28
3314,E3,578.0,1.0,79,114.28
3315,A5,579.0,0.5,81,114.28
3316,A6,579.0,0.5,81,114.28
3317,G6,579.0,0.5,81,114.28
3318,C#6,579.0,0.5,81,114.28
3319,G5,579.0,0.5,81,114.28
3320,C#5,579.0,0.5,79,114.28
3321,A4,579.0,0.5,79,114.28
3322,E4,579.0,0.5,79,114.28
3323,A5,579.5,167/1000,88,114.28
3324,B5,579.667,167/1000,88,114.28
3325,A5,579.833,167/1000,88,114.28
3326,F#5,580.0,1.0,97,114.28
3327,D2,580.0,0.25,79,114.28
3328,A2,580.0,0.25,79,114.28
3329,D3,580.25,0.25,68,114.28
3330,A5,580.5,0.5,97,114.28
3331,F#3,580.5,0.25,68,114.28
3332,A3,580.75,0.25,68,114.28
3333,D4,581.0,1/5,70,114.28
3334,A5,581.0,0.25,94,114.28
3335,D6,581.0,0.25,94,114.28
3336,F#5,581.0,0.25,94,114.28
3337,A3,581.2,1/5,70,114.28
3338,F#3,581.4,1/5,69,114.28
3339,A5,581.5,0.25,86,114.28
3340,F#6,581.5,0.25,86,114.28
3341,F#5,581.5,0.25,86,114.28
3342,D3,581.6,1/5,68,114.28
3343,A2,581.8,1/5,68,114.28
3344,E6,582.0,0.5,102,114.28
3345,D2,582.0,1/5,64,114.28
3346,A5,582.0,1.0,75,114.28
3347,F#5,582.0,1.0,75,114.28
3348,A2,582.2,1/5,69,114.28
3349,D3,582.4,1/5,70,114.28
3350,D6,582.5,0.5,93,114.28
3351,F#3,582.6,1/5,71,114.28
3352,A3,582.8,1/5,73,114.28
3353,D4,583.0,0.5,75,114.28
3354,D5,583.0,0.25,92,114.28
3355,F#5,583.0,0.25,92,114.28
3356,D5,583.5,0.25,84,114.28
3357,A5,583.5,0.25,84,114.28
3358,F#5,583.5,0.25,84,114.28
3359,D5,584.0,0.5,90,114.28
3360,B5,584.0,0.5,90,114.28
3361,A5,584.0,0.5,90,114.28
3362,F#5,584.0,0.5,90,114.28
3363,D2,584.0,0.5,77,114.28
3364,A2,584.0,0.5,77,114.28
3365,D3,584.0,0.5,77,114.28
3366,D4,584.5,1.0,68,114.28
3367,A3,584.5,1.0,68,114.28
3368,F#3,584.5,1.0,68,114.28
3369,D5,585.0,0.5,82,114.28
3370,B5,585.0,0.5,82,114.28
3371,A5,585.0,0.5,82,114.28
3372,F#5,585.0,0.5,82,114.28
3373,F#4,585.5,1.0,68,114.28
3374,D4,585.5,1.0,68,114.28
3375,A3,585.5,1.0,68,114.28
3376,D5,585.75,0.25,82,114.28
3377,B5,585.75,0.25,82,114.28
3378,A5,585.75,0.25,82,114.28
3379,F#5,585.75,0.25,82,114.28
3380,D5,586.0,1.0,82,114.28
3381,B5,586.0,1.0,82,114.28
3382,A5,586.0,1.0,82,114.28
3383,F#5,586.0,1.0,82,114.28
3384,A4,586.5,0.5,68,114.28
3385,F#4,586.5,0.5,68,114.28
3386,D4,586.5,0.5,68,114.28
3387,D5,587.0,0.25,90,114.28
3388,F#5,587.0,0.25,90,114.28
3389,D5,587.5,0.25,90,114.28
3390,G#5,587.5,0.25,90,114.28
3391,F#5,587.5,0.25,90,114.28
3392,A5,588.0,0.5,97,114.28
3393,B1,588.0,167/1000,66,114.28
3394,D5,588.0,1.0,87,114.28
3395,F#5,588.0,1.0,87,114.28
3396,F#2,588.167,167/1000,59,114.28
3397,B2,588.333,167/1000,59,114.28
3398,B5,588.5,0.5,89,114.28
3399,D3,588.5,167/1000,59,114.28
3400,F#3,588.667,167/1000,59,114.28
3401,B3,588.833,167/1000,59,114.28
3402,D4,589.0,0.5,59,114.28
3403,F#5,589.0,0.25,93,114.28
3404,D5,589.0,0.25,93,114.28
3405,G#5,589.5,0.25,90,114.28
3406,F#5,589.5,0.25,90,114.28
3407,D5,589.5,0.25,90,114.28
3408,A5,590.0,0.5,97,114.28
3409,E2,590.0,1/5,66,114.28
3410,D5,590.0,1.0,87,114.28
3411,F#5,590.0,1.0,87,114.28
3412,B2,590.2,1/5,59,114.28
3413,E3,590.4,1/5,59,114.28
3414,B5,590.5,0.5,89,114.28
3415,G#3,590.6,1/5,59,114.28
3416,D4,590.8,1/5,59,114.28
3417,F#4,591.0,0.5,59,114.28
3418,D5,591.0,0.25,93,114.28
3419,F#5,591.0,0.25,93,114.28
3420,G#5,591.5,0.25,93,114.28
3421,D5,591.5,0.25,93,114.28
3422,F#5,591.5,0.25,93,114.28
3423,A4,592.0,0.5,90,114.28
3424,D5,592.0,0.5,90,114.28
3425,E5,592.0,0.5,90,114.28
3426,A5,592.0,0.5,90,114.28
3427,A1,592.0,0.5,75,114.28
3428,E2,592.0,0.5,75,114.28
3429,A2,592.0,0.5,75,114.28
3430,C#4,592.5,1.0,64,114.28
3431,A3,592.5,1.0,64,114.28
3432,E3,592.5,1.0,64,114.28
3433,E5,593.0,0.5,77,114.28
3434,A4,593.0,0.5,77,114.28
3435,C#5,593.0,0.5,77,114.28
3436,A5,593.0,0.5,77,114.28
3437,E4,593.5,1.0,64,114.28
3438,C#4,593.5,1.0,64,114.28
3439,A3,593.5,1.0,64,114.28
3440,A4,593.75,0.25,77,114.28
3441,E5,593.75,0.25,77,114.28
3442,C#5,593.75,0.25,77,114.28
3443,A5,593.75,0.25,77,114.28
3444,A4,594.0,1.0,77,114.28
3445,E5,594.0,1.0,77,114.28
3446,C#5,594.0,1.0,77,114.28
3447,A5,594.0,1.0,77,114.28
3448,A4,594.5,0.5,64,114.28
3449,E4,594.5,0.5,64,114.28
3450,C#4,594.5,0.5,64,114.28
3451,C#6,595.5,167/1000,89,114.28
3452,D6,595.667,167/1000,89,114.28
3453,C#6,595.833,167/1000,89,114.28
3454,B5,596.0,1.0,96,114.28
3455,G2,596.0,0.25,65,114.28
3456,D3,596.0,0.25,65,114.28
3457,G3,596.25,0.25,57,114.28
3458,D6,596.5,0.5,96,114.28
3459,B3,596.5,0.25,57,114.28
3460,D4,596.75,0.25,57,114.28
3461,G4,597.0,1/5,65,114.28
3462,D6,597.0,0.25,92,114.28
3463,G6,597.0,0.25,92,114.28
3464,B5,597.0,0.25,92,114.28
3465,D4,597.2,1/5,59,114.28
3466,B3,597.4,1/5,58,114.28
3467,D6,597.5,0.25,84,114.28
3468,B6,597.5,0.25,84,114.28
3469,B5,597.5,0.25,84,114.28
3470,G3,597.6,1/5,58,114.28
3471,D3,597.8,1/5,57,114.28
3472,A6,598.0,0.5,97,114.28
3473,B5,598.0,1.0,76,114.28
3474,G2,598.0,1/5,56,114.28
3475,B2,598.2,1/5,56,114.28
3476,G3,598.4,1/5,57,114.28
3477,G6,598.5,0.5,86,114.28
3478,B3,598.6,1/5,57,114.28
3479,D4,598.8,1/5,57,114.28
3480,G4,599.0,0.5,57,114.28
3481,B5,599.0,0.25,86,114.28
3482,G5,599.0,0.25,86,114.28
3483,B5,599.5,0.25,83,114.28
3484,D6,599.5,0.25,83,114.28
3485,G5,599.5,0.25,83,114.28
3486,F#6,600.0,0.5,82,114.28
3487,D6,600.0,0.5,82,114.28
3488,B5,600.0,0.5,82,114.28
3489,G5,600.0,0.5,82,114.28
3490,E2,600.0,0.5,73,114.28
3491,B2,600.0,0.5,73,114.28
3492,E3,600.0,0.5,73,114.28
3493,F#4,600.5,1.0,62,114.28
3494,D4,600.5,1.0,62,114.28
3495,B3,600.5,1.0,62,114.28
3496,G3,600.5,1.0,62,114.28
3497,F#6,601.0,0.5,74,114.28
3498,D6,601.0,0.5,74,114.28
3499,B5,601.0,0.5,74,114.28
3500,G5,601.0,0.5,74,114.28
3501,G4,601.5,1.0,62,114.28
3502,F#4,601.5,1.0,62,114.28
3503,D4,601.5,1.0,62,114.28
3504,B3,601.5,1.0,62,114.28
3505,F#6,601.75,0.25,74,114.28
3506,D6,601.75,0.25,74,114.28
3507,B5,601.75,0.25,74,114.28
3508,G5,601.75,0.25,74,114.28
3509,F#6,602.0,1.0,74,114.28
3510,D6,602.0,1.0,74,114.28
3511,B5,602.0,1.0,74,114.28
3512,G5,602.0,1.0,74,114.28
3513,B4,602.5,0.5,62,114.28
3514,G4,602.5,0.5,62,114.28
3515,F#4,602.5,0.5,62,114.28
3516,D4,602.5,0.5,62,114.28
3517,B5,603.0,0.25,86,114.28
3518,G5,603.0,0.25,86,114.28
3519,C#6,603.5,0.25,86,114.28
3520,B5,603.5,0.25,86,114.28
3521,G5,603.5,0.25,86,114.28
3522,D6,604.0,0.5,96,114.28
3523,A2,604.0,1/5,69,114.28
3524,G5,604.0,1.0,86,114.28
3525,B5,604.0,1.0,86,114.28
3526,E3,604.2,1/5,60,114.28
3527,A3,604.4,1/5,60,114.28
3528,E6,604.5,0.5,86,114.28
3529,D4,604.6,1/5,60,114.28
3530,G4,604.8,1/5,60,114.28
3531,B4,605.0,0.5,60,114.28
3532,B5,605.0,0.25,91,114.28
3533,G5,605.0,0.25,91,114.28
3534,C#6,605.5,0.25,89,114.28
3535,B5,605.5,0.25,89,114.28
3536,G5,605.5,0.25,89,114.28
3537,D6,606.0,0.5,96,114.28
3538,A2,606.0,1/5,69,114.28
3539,B5,606.0,1.0,86,114.28
3540,G5,606.0,1.0,86,114.28
3541,E3,606.2,1/5,60,114.28
3542,A3,606.4,1/5,60,114.28
3543,E6,606.5,0.5,89,114.28
3544,D4,606.6,1/5,60,114.28
3545,G4,606.8,1/5,60,114.28
3546,B4,607.0,0.5,60,114.28
3547,B5,607.0,0.25,91,114.28
3548,G5,607.0,0.25,91,114.28
3549,C#6,607.5,0.25,91,114.28
3550,B5,607.5,0.25,91,114.28
3551,G5,607.5,0.25,91,114.28
3552,D5,608.0,0.5,86,114.28
3553,D6,608.0,0.5,86,114.28
3554,A5,608.0,0.5,86,114.28
3555,G5,608.0,0.5,86,114.28
3556,D2,608.0,0.5,75,114.28
3557,A2,608.0,0.5,75,114.28
3558,D3,608.0,0.5,75,114.28
3559,F#4,608.5,1.0,64,114.28
3560,D4,608.5,1.0,64,114.28
3561,A3,608.5,1.0,64,114.28
3562,A5,609.0,0.5,75,114.28
3563,D5,609.0,0.5,75,114.28
3564,D6,609.0,0.5,75,114.28
3565,F#5,609.0,0.5,75,114.28
3566,A4,609.5,1.0,64,114.28
3567,F#4,609.5,1.0,64,114.28
3568,D4,609.5,1.0,64,114.28
3569,A5,609.75,0.25,75,114.28
3570,D5,609.75,0.25,75,114.28
3571,D6,609.75,0.25,75,114.28
3572,F#5,609.75,0.25,75,114.28
3573,A5,610.0,0.5,75,114.28
3574,D5,610.0,0.5,75,114.28
3575,D6,610.0,0.5,75,114.28
3576,F#5,610.0,0.5,75,114.28
3577,F#4,610.5,0.5,62,114.28
3578,A4,610.5,0.5,62,114.28
3579,D5,610.5,0.5,62,114.28
3580,D6,611.5,167/1000,71,114.28
3581,E6,611.667,167/1000,71,114.28
3582,D6,611.833,167/1000,71,114.28
3583,D2,612.0,0.375,55,114.28
3584,A2,612.0,0.375,55,114.28
3585,C6,612.25,0.25,72,114.28
3586,F#5,612.25,0.25,72,114.28
3587,A1,612.5,0.375,48,114.28
3588,A2,612.5,0.375,48,114.28
3589,E6,612.75,0.25,72,114.28
3590,C6,612.75,0.25,72,114.28
3591,F#5,612.75,0.25,72,114.28
3592,D2,613.0,0.375,55,114.28
3593,A2,613.0,0.375,55,114.28
3594,D6,613.25,0.25,72,114.28
3595,C6,613.25,0.25,72,114.28
3596,F#5,613.25,0.25,72,114.28
3597,A1,613.5,0.375,48,114.28
3598,A2,613.5,0.375,48,114.28
3599,F#6,613.75,0.25,72,114.28
3600,C6,613.75,0.25,72,114.28
3601,F#5,613.75,0.25,72,114.28
3602,D2,614.0,0.375,52,114.28
3603,A2,614.0,0.375,52,114.28
3604,C6,614.25,0.25,72,114.28
3605,F#5,614.25,0.25,72,114.28
3606,A1,614.5,0.375,48,114.28
3607,A2,614.5,0.375,48,114.28
3608,E6,614.75,0.25,72,114.28
3609,C6,614.75,0.25,72,114.28
3610,F#5,614.75,0.25,72,114.28
3611,D2,615.0,0.375,55,114.28
3612,A2,615.0,0.375,55,114.28
3613,D6,615.25,0.25,72,114.28
3614,C6,615.25,0.25,72,114.28
3615,F#5,615.25,0.25,72,114.28
3616,A1,615.5,0.375,46,114.28
3617,A2,615.5,0.375,46,114.28
3618,F#6,615.75,0.25,72,114.28
3619,C6,615.75,0.25,72,114.28
3620,F#5,615.75,0.25,72,114.28
3621,B5,616.0,0.5,84,114.28
3622,A5,616.0,0.5,84,114.28
3623,D6,616.0,0.5,84,114.28
3624,D2,616.0,0.375,51,114.28
3625,A2,616.0,0.375,51,114.28
3626,A1,616.5,0.375,52,114.28
3627,B5,617.0,0.5,72,114.28
3628,G5,617.0,0.5,72,114.28
3629,D6,617.0,0.5,72,114.28
3630,D2,617.0,0.375,51,114.28
3631,A2,617.0,0.375,51,114.28
3632,A1,617.5,0.375,52,114.28
3633,B5,617.75,0.25,72,114.28
3634,D6,617.75,0.25,72,114.28
3635,G5,617.75,0.25,72,114.28
3636,B5,618.0,1.0,72,114.28
3637,D6,618.0,1.0,72,114.28
3638,G5,618.0,1.0,72,114.28
3639,D2,618.0,0.375,51,114.28
3640,A2,618.0,0.375,51,114.28
3641,A1,618.5,0.375,51,114.28
3642,D2,619.0,0.375,51,114.28
3643,A2,619.0,0.375,51,114.28
3644,A5,619.5,167/1000,63,114.28
3645,A1,619.5,0.375,52,114.28
3646,B5,619.669,167/1000,63,114.28
3647,A5,619.831,167/1000,63,114.28
3648,D2,620.0,0.375,55,114.28
3649,A2,620.0,0.375,55,114.28
3650,G5,620.25,0.25,64,114.28
3651,C#5,620.25,0.25,64,114.28
3652,A1,620.5,0.375,48,114.28
3653,A2,620.5,0.375,48,114.28
3654,B5,620.75,0.25,64,114.28
3655,G5,620.75,0.25,64,114.28
3656,C#5,620.75,0.25,64,114.28
3657,D2,621.0,0.375,55,114.28
3658,A2,621.0,0.375,55,114.28
3659,G5,621.25,0.25,64,114.28
3660,A5,621.25,0.25,64,114.28
3661,C#5,621.25,0.25,64,114.28
3662,A1,621.5,0.375,48,114.28
3663,A2,621.5,0.375,48,114.28
3664,C#6,621.75,0.25,64,114.28
3665,G5,621.75,0.25,64,114.28
3666,C#5,621.75,0.25,64,114.28
3667,D2,622.0,0.375,53,114.28
3668,A2,622.0,0.375,53,114.28
3669,C#5,622.25,0.25,63,114.28
3670,G5,622.25,0.25,63,114.28
3671,A1,622.5,0.375,48,114.28
3672,A2,622.5,0.375,48,114.28
3673,B5,622.75,0.25,63,114.28
3674,G5,622.75,0.25,63,114.28
3675,C#5,622.75,0.25,63,114.28
3676,D2,623.0,0.375,53,114.28
3677,A2,623.0,0.375,53,114.28
3678,C#5,623.25,0.25,63,114.28
3679,G5,623.25,0.25,63,114.28
3680,A5,623.25,0.25,63,114.28
3681,A1,623.5,0.375,46,114.28
3682,A2,623.5,0.375,46,114.28
3683,G5,623.75,0.25,63,114.28
3684,C#6,623.75,0.25,63,114.28
3685,C#5,623.75,0.25,63,114.28
3686,A5,624.0,0.5,70,114.28
3687,F#5,624.0,0.5,70,114.28
3688,E5,624.0,0.5,70,114.28
3689,D2,624.0,0.375,51,114.28
3690,A2,624.0,0.375,51,114.28
3691,A1,624.5,0.375,52,114.28
3692,A5,625.0,0.5,64,114.28
3693,F#5,625.0,0.5,64,114.28
3694,D5,625.0,0.5,64,114.28
3695,D2,625.0,0.375,51,114.28
3696,A2,625.0,0.375,51,114.28
3697,A1,625.5,0.375,52,114.28
3698,A5,625.75,0.25,64,114.28
3699,F#5,625.75,0.25,64,114.28
3700,D5,625.75,0.25,64,114.28
3701,A5,626.0,1.0,64,114.28
3702,F#5,626.0,1.0,64,114.28
3703,D5,626.0,1.0,64,114.28
3704,D2,626.0,0.375,51,114.28
3705,A2,626.0,0.375,51,114.28
3706,A1,626.5,0.375,51,114.28
3707,D2,627.0,0.375,51,114.28
3708,A2,627.0,0.375,51,114.28
3709,D5,627.5,167/1000,50,114.28
3710,A1,627.5,0.375,40,114.28
3711,E5,627.667,167/1000,50,114.28
3712,D5,627.833,167/1000,50,114.28
3713,D2,628.0,0.375,44,114.28
3714,A2,628.0,0.375,44,114.28
3715,C5,628.25,0.25,51,114.28
3716,F#4,628.25,0.25,51,114.28
3717,A1,628.5,0.375,38,114.28
3718,A2,628.5,0.375,38,114.28
3719,E5,628.75,0.25,51,114.28
3720,C5,628.75,0.25,51,114.28
3721,F#4,628.75,0.25,51,114.28
3722,D2,629.0,0.375,44,114.28
3723,A2,629.0,0.375,44,114.28
3724,C5,629.25,0.25,51,114.28
3725,D5,629.25,0.25,51,114.28
3726,F#4,629.25,0.25,51,114.28
3727,A1,629.5,0.375,38,114.28
3728,A2,629.5,0.375,38,114.28
3729,F#5,629.75,0.25,51,114.28
3730,C5,629.75,0.25,51,114.28
3731,F#4,629.75,0.25,51,114.28
3732,D2,630.0,0.375,42,114.28
3733,A2,630.0,0.375,42,114.28
3734,F#4,630.25,0.25,50,114.28
3735,C5,630.25,0.25,50,114.28
3736,A1,630.5,0.375,38,114.28
3737,A2,630.5,0.375,38,114.28
3738,E5,630.75,0.25,50,114.28
3739,C5,630.75,0.25,50,114.28
3740,F#4,630.75,0.25,50,114.28
3741,D2,631.0,0.375,42,114.28
3742,A2,631.0,0.375,42,114.28
3743,F#4,631.25,0.25,50,114.28
3744,C5,631.25,0.25,50,114.28
3745,D5,631.25,0.25,50,114.28
3746,A1,631.5,0.375,36,114.28
3747,C5,631.75,0.25,50,114.28
3748,F#5,631.75,0.25,50,114.28
3749,F#4,631.75,0.25,50,114.28
3750,D5,632.0,0.5,60,114.28
3751,B4,632.0,0.5,60,114.28
3752,A4,632.0,0.5,60,114.28
3753,D2,632.0,0.375,39,114.28
3754,A2,632.0,0.375,39,114.28
3755,A1,632.5,0.375,40,114.28
3756,D5,633.0,0.5,51,114.28
3757,B4,633.0,0.5,51,114.28
3758,G4,633.0,0.5,51,114.28
3759,D2,633.0,0.375,39,114.28
3760,A2,633.0,0.375,39,114.28
3761,A1,633.5,0.375,40,114.28
3762,D5,633.75,0.25,51,114.28
3763,B4,633.75,0.25,51,114.28
3764,G4,633.75,0.25,51,114.28
3765,D5,634.0,1.0,51,114.28
3766,B4,634.0,1.0,51,114.28
3767,G4,634.0,1.0,51,114.28
3768,D2,634.0,0.375,39,114.28
3769,A2,634.0,0.375,39,114.28
3770,A1,634.5,0.375,39,114.28
3771,D2,635.0,0.375,39,114.28
3772,A2,635.0,0.375,39,114.28
3773,A4,635.5,167/1000,47,114.28
3774,A1,635.5,0.375,39,114.28
3775,B4,635.669,167/1000,47,114.28
3776,A4,635.831,167/1000,47,114.28
3777,D2,636.0,0.375,44,114.28
3778,A2,636.0,0.375,44,114.28
3779,G4,636.25,0.25,47,114.28
3780,C#4,636.25,0.25,47,114.28
3781,A1,636.5,0.375,38,114.28
3782,B4,636.75,0.25,47,114.28
3783,G4,636.75,0.25,47,114.28
3784,C#4,636.75,0.25,47,114.28
3785,D2,637.0,0.375,44,114.28
3786,A2,637.0,0.375,44,114.28
3787,G4,637.25,0.25,47,114.28
3788,A4,637.25,0.25,47,114.28
3789,C#4,637.25,0.25,47,114.28
3790,A1,637.5,0.375,38,114.28
3791,C#5,637.75,0.25,47,114.28
3792,G4,637.75,0.25,47,114.28
3793,C#4,637.75,0.25,47,114.28
3794,D2,638.0,0.375,42,114.28
3795,A2,638.0,0.375,42,114.28
3796,C#4,638.25,0.25,47,114.28
3797,G4,638.25,0.25,47,114.28
3798,A1,638.5,0.375,38,114.28
3799,B4,638.75,0.25,47,114.28
3800,G4,638.75,0.25,47,114.28
3801,C#4,638.75,0.25,47,114.28
3802,D2,639.0,0.375,42,114.28
3803,A2,639.0,0.375,42,114.28
3804,C#4,639.25,0.25,47,114.28
3805,G4,639.25,0.25,47,114.28
3806,A4,639.25,0.25,47,114.28
3807,A1,639.5,0.375,36,114.28
3808,G4,639.75,0.25,47,114.28
3809,C#5,639.75,0.25,47,114.28
3810,C#4,639.75,0.25,47,114.28
3811,A4,640.0,0.5,55,114.28
3812,F#4,640.0,0.5,55,114.28
3813,E4,640.0,0.5,55,114.28
3814,D2,640.0,0.375,39,114.28
3815,A2,640.0,0.375,39,114.28
3816,A1,640.5,0.375,40,114.28
3817,A4,641.0,0.5,47,114.28
3818,F#4,641.0,0.5,47,114.28
3819,D4,641.0,0.5,47,114.28
3820,D2,641.0,0.375,39,114.28
3821,A2,641.0,0.375,39,114.28
3822,A1,641.5,0.375,40,114.28
3823,A4,641.75,0.25,47,114.28
3824,F#4,641.75,0.25,47,114.28
3825,D4,641.75,0.25,47,114.28
3826,A4,642.0,1.0,47,114.28
3827,F#4,642.0,1.0,47,114.28
3828,D4,642.0,1.0,47,114.28
3829,D2,642.0,0.375,39,114.28
3830,A2,642.0,0.375,39,114.28
3831,A1,642.5,0.375,39,114.28
3832,D2,643.0,0.375,39,114.28
3833,A2,643.0,0.375,39,114.28
3834,A1,643.5,0.375,39,114.28
3835,D4,644.0,0.5,45,114.28
3836,B3,644.0,0.5,45,114.28
3837,A3,644.0,0.5,45,114.28
3838,D2,644.0,0.375,35,114.28
3839,A2,644.0,0.375,35,114.28
3840,A1,644.5,0.375,36,114.28
3841,D4,645.0,0.5,42,114.28
3842,B3,645.0,0.5,42,114.28
3843,G3,645.0,0.5,42,114.28
3844,D2,645.0,0.375,35,114.28
3845,A2,645.0,0.375,35,114.28
3846,A1,645.5,0.375,36,114.28
3847,D4,645.75,0.25,42,114.28
3848,B3,645.75,0.25,42,114.28
3849,G3,645.75,0.25,42,114.28
3850,D4,646.0,1.0,42,114.28
3851,B3,646.0,1.0,42,114.28
3852,G3,646.0,1.0,42,114.28
3853,D2,646.0,0.375,35,114.28
3854,A2,646.0,0.375,35,114.28
3855,A1,646.5,0.375,35,114.28
3856,D2,647.0,0.375,35,114.28
3857,A2,647.0,0.375,35,114.28
3858,A1,647.5,0.375,35,114.28
3859,D2,648.0,0.25,35,114.28
3860,A2,648.0,0.25,35,114.28
3861,A1,649.0,0.25,36,114.28
3862,E3,649.0,0.25,35,114.28
3863,A3,649.0,0.25,35,114.28
3864,F#3,649.0,0.25,35,114.28
3865,D2,650.0,0.25,35,114.28
3866,A2,650.0,0.25,35,114.28
3867,A1,651.0,0.25,35,114.28
3868,D3,651.0,0.25,35,114.28
3869,A3,651.0,0.25,35,114.28
3870,F#3,651.0,0.25,35,114.28
3871,D2,652.0,0.25,35,114.28
3872,A2,652.0,0.25,35,114.28
3873,A1,653.0,0.25,34,114.28
3874,A2,653.0,0.25,35,114.28
3875,B2,653.0,0.25,35,114.28
3876,D3,653.0,0.25,35,114.28
3877,D2,654.0,0.25,35,114.28
3878,A2,654.0,0.25,35,114.28
3879,A1,655.0,0.25,35,114.28
3880,G2,655.0,0.25,35,114.28
3881,B2,655.0,0.25,35,114.28
3882,D3,655.0,0.25,35,114.28
3883,D2,656.0,0.5,35,114.28
3884,A2,656.0,0.5,35,114.28
3885,D3,657.0,0.5,35,114.28
3886,G2,657.0,0.5,35,114.28
3887,A3,658.0,0.5,35,114.28
3888,D3,658.0,0.5,35,114.28
3889,D4,659.0,0.5,35,114.28
3890,G3,659.0,0.5,35,114.28
3891,D4,660.0,0.5,35,114.28
3892,A4,660.0,0.5,35,114.28
3893,D5,661.0,0.5,37,114.28
3894,G4,661.0,0.5,37,114.28
3895,A5,662.0,0.5,38,114.28
3896,D5,662.0,0.5,38,114.28
3897,D6,663.0,0.5,39,114.28
3898,G5,663.0,0.5,39,114.28
3899,A6,664.0,0.5,42,114.28
3900,D6,664.0,0.5,42,114.28
3901,D6,665.0,0.5,39,114.28
3902,G5,665.0,0.5,39,114.28
3903,A5,666.0,0.5,39,114.28
3904,D5,666.0,0.5,39,114.28
3905,G4,667.0,0.5,37,114.28
3906,D5,667.0,0.5,37,114.28
3907,D4,668.0,0.5,35,114.28
3908,A4,668.0,0.5,35,114.28
3909,G3,669.0,0.5,35,114.28
3910,D4,669.0,0.5,35,114.28
3911,D3,670.0,0.5,31,114.28
3912,A3,670.0,0.5,31,114.28
3913,G2,671.0,0.5,34,114.28
3914,D3,671.0,0.5,34,114.28
3915,D2,672.0,0.5,31,114.28
3916,A2,672.0,0.5,31,114.28
3917,G1,674.0,0.5,30,114.28
3918,D2,674.0,0.5,30,114.28
3919,D6,676.0,0.75,102,114.28
3920,A5,676.0,0.75,102,114.28
3921,F#5,676.0,0.75,102,114.28
3922,D5,676.0,0.75,102,114.28
3923,D1,676.0,0.75,82,114.28
3924,A1,676.0,0.75,82,114.28
3925,D2,676.0,0.75,82,114.28
