,note_name,start_time,duration,velocity,tempo
0,B4,0.0,0.25,45,170.2
1,B3,0.0,2.25,27,170.2
2,F#4,0.0,0.25,36,170.2
3,D5,0.25,0.25,34,170.2
4,G4,0.25,0.25,28,170.2
5,C#5,0.5,0.25,38,170.2
6,F#4,0.5,0.25,33,170.2
7,E5,0.75,0.25,32,170.2
8,G4,0.75,0.25,27,170.2
9,D5,1.0,0.25,35,170.2
10,F#4,1.0,0.25,30,170.2
11,F#5,1.25,0.25,29,170.2
12,G4,1.25,0.25,25,170.2
13,E5,1.5,0.25,31,170.2
14,F#4,1.5,0.25,27,170.2
15,G5,1.75,0.25,26,170.2
16,G4,1.75,0.25,22,170.2
17,F#4,2.0,0.25,24,170.2
18,D5,2.0,0.25,30,170.2
19,F#5,2.0,0.25,30,170.2
20,B4,3.0,0.25,45,170.2
21,B3,3.0,2.25,27,170.2
22,F#4,3.0,0.25,36,170.2
23,D5,3.25,0.25,34,170.2
24,G4,3.25,0.25,28,170.2
25,C#5,3.5,0.25,38,170.2
26,F#4,3.5,0.25,33,170.2
27,E5,3.75,0.25,32,170.2
28,G4,3.75,0.25,27,170.2
29,D5,4.0,0.25,36,170.2
30,F#4,4.0,0.25,31,170.2
31,F#5,4.25,0.25,29,170.2
32,G4,4.25,0.25,25,170.2
33,E5,4.5,0.25,32,170.2
34,F#4,4.5,0.25,28,170.2
35,G5,4.75,0.25,27,170.2
36,G4,4.75,0.25,23,170.2
37,F#4,5.0,0.25,25,170.2
38,D5,5.0,0.25,32,170.2
39,F#5,5.0,0.25,32,170.2
40,G5,6.0,0.25,49,170.2
41,B3,6.0,2.25,27,170.2
42,F#4,6.0,0.25,36,170.2
43,B5,6.25,0.25,39,170.2
44,G4,6.25,0.25,29,170.2
45,F#5,6.5,0.25,44,170.2
46,F#4,6.5,0.25,36,170.2
47,A5,6.75,0.25,38,170.2
48,G4,6.75,0.25,31,170.2
49,E5,7.0,0.25,43,170.2
50,F#4,7.0,0.25,36,170.2
51,G5,7.25,0.25,36,170.2
52,G4,7.25,0.25,31,170.2
53,D5,7.5,0.25,41,170.2
54,F#4,7.5,0.25,36,170.2
55,F#5,7.75,0.25,36,170.2
56,G4,7.75,0.25,31,170.2
57,F#4,8.0,0.25,35,170.2
58,C#5,8.0,0.25,44,170.2
59,E5,8.0,0.25,44,170.2
60,F#5,9.0,0.25,49,170.2
61,B3,9.0,2.25,27,170.2
62,F#4,9.0,0.25,36,170.2
63,A5,9.25,0.25,39,170.2
64,G4,9.25,0.25,29,170.2
65,E5,9.5,0.25,44,170.2
66,F#4,9.5,0.25,36,170.2
67,G5,9.75,0.25,38,170.2
68,G4,9.75,0.25,31,170.2
69,D5,10.0,0.25,43,170.2
70,F#4,10.0,0.25,36,170.2
71,F#5,10.25,0.25,36,170.2
72,G4,10.25,0.25,31,170.2
73,C#5,10.5,0.25,41,170.2
74,F#4,10.5,0.25,36,170.2
75,E5,10.75,0.25,36,170.2
76,G4,10.75,0.25,31,170.2
77,F#4,11.0,0.25,35,170.2
78,B4,11.0,0.25,44,170.2
79,D5,11.0,0.25,44,170.2
80,B-3,12.0,2.25,33,170.2
81,F#4,12.0,0.25,44,170.2
82,D5,12.25,0.25,45,170.2
83,G4,12.25,0.25,36,170.2
84,C#5,12.5,0.25,50,170.2
85,F#4,12.5,0.25,44,170.2
86,E5,12.75,0.25,45,170.2
87,G4,12.75,0.25,38,170.2
88,D5,13.0,0.25,51,170.2
89,F#4,13.0,0.25,44,170.2
90,F#5,13.25,0.25,45,170.2
91,G4,13.25,0.25,38,170.2
92,E5,13.5,0.25,52,170.2
93,F#4,13.5,0.25,46,170.2
94,G5,13.75,0.25,47,170.2
95,G4,13.75,0.25,40,170.2
96,F#4,14.0,0.25,42,170.2
97,D5,14.0,0.25,53,170.2
98,F#5,14.0,0.25,53,170.2
99,A3,15.0,2.25,33,170.2
100,F#4,15.0,0.25,44,170.2
101,D5,15.25,0.25,45,170.2
102,G4,15.25,0.25,36,170.2
103,C#5,15.5,0.25,50,170.2
104,F#4,15.5,0.25,44,170.2
105,E5,15.75,0.25,45,170.2
106,G4,15.75,0.25,38,170.2
107,D5,16.0,0.25,51,170.2
108,F#4,16.0,0.25,44,170.2
109,F#5,16.25,0.25,45,170.2
110,G4,16.25,0.25,38,170.2
111,E5,16.5,0.25,52,170.2
112,F#4,16.5,0.25,46,170.2
113,G5,16.75,0.25,47,170.2
114,G4,16.75,0.25,40,170.2
115,F#4,17.0,0.25,42,170.2
116,D5,17.0,0.25,53,170.2
117,F#5,17.0,0.25,53,170.2
118,D5,18.0,0.25,61,170.2
119,G#3,18.0,0.25,44,170.2
120,F#5,18.25,0.25,54,170.2
121,F#4,18.25,0.25,44,170.2
122,C#5,18.5,0.25,61,170.2
123,G#3,18.5,0.25,46,170.2
124,E5,18.75,0.25,58,170.2
125,F#4,18.75,0.25,48,170.2
126,B4,19.0,0.25,65,170.2
127,G#3,19.0,0.25,49,170.2
128,D5,19.25,0.25,59,170.2
129,F#4,19.25,0.25,52,170.2
130,B-4,19.5,0.25,70,170.2
131,G#3,19.5,0.25,53,170.2
132,C#5,19.75,0.25,58,170.2
133,F#4,19.75,0.25,55,170.2
134,B4,20.0,0.25,72,170.2
135,G3,20.0,0.25,57,170.2
136,D5,20.25,0.25,64,170.2
137,F#4,20.25,0.25,59,170.2
138,C#5,20.5,0.25,72,170.2
139,G3,20.5,0.25,61,170.2
140,E5,20.75,0.25,65,170.2
141,F#4,20.75,0.25,66,170.2
142,B4,21.0,1.0,68,170.2
143,F#3,21.0,0.25,72,170.2
144,F#5,21.0,2.5,80,170.2
145,C#5,21.0,2.5,80,170.2
146,F#4,21.25,0.25,52,170.2
147,F#3,21.5,0.25,56,170.2
148,F#4,21.75,0.25,47,170.2
149,B-4,22.0,1.5,52,170.2
150,F#3,22.0,0.25,55,170.2
151,F#4,22.25,0.25,40,170.2
152,F#3,22.5,0.25,46,170.2
153,F#4,22.75,0.25,40,170.2
154,F#3,23.0,0.5,51,170.2
155,B4,24.0,0.25,45,170.2
156,B3,24.0,2.25,27,170.2
157,F#4,24.0,0.25,36,170.2
158,D5,24.25,0.25,34,170.2
159,G4,24.25,0.25,28,170.2
160,C#5,24.5,0.25,38,170.2
161,F#4,24.5,0.25,33,170.2
162,E5,24.75,0.25,32,170.2
163,G4,24.75,0.25,27,170.2
164,D5,25.0,0.25,35,170.2
165,F#4,25.0,0.25,30,170.2
166,F#5,25.25,0.25,29,170.2
167,G4,25.25,0.25,25,170.2
168,E5,25.5,0.25,31,170.2
169,F#4,25.5,0.25,28,170.2
170,G5,25.75,0.25,26,170.2
171,G4,25.75,0.25,22,170.2
172,F#4,26.0,0.25,24,170.2
173,D5,26.0,0.25,30,170.2
174,F#5,26.0,0.25,30,170.2
175,B4,27.0,0.25,45,170.2
176,B3,27.0,2.25,27,170.2
177,F#4,27.0,0.25,36,170.2
178,D5,27.25,0.25,34,170.2
179,G4,27.25,0.25,28,170.2
180,C#5,27.5,0.25,38,170.2
181,F#4,27.5,0.25,33,170.2
182,E5,27.75,0.25,32,170.2
183,G4,27.75,0.25,27,170.2
184,D5,28.0,0.25,35,170.2
185,F#4,28.0,0.25,30,170.2
186,F#5,28.25,0.25,29,170.2
187,G4,28.25,0.25,25,170.2
188,E5,28.5,0.25,31,170.2
189,F#4,28.5,0.25,28,170.2
190,G5,28.75,0.25,26,170.2
191,G4,28.75,0.25,22,170.2
192,F#4,29.0,0.25,24,170.2
193,D5,29.0,0.25,30,170.2
194,F#5,29.0,0.25,30,170.2
195,G5,30.0,0.25,49,170.2
196,B3,30.0,2.25,27,170.2
197,F#4,30.0,0.25,36,170.2
198,B5,30.25,0.25,39,170.2
199,G4,30.25,0.25,29,170.2
200,F#5,30.5,0.25,44,170.2
201,F#4,30.5,0.25,36,170.2
202,A5,30.75,0.25,38,170.2
203,G4,30.75,0.25,31,170.2
204,E5,31.0,0.25,43,170.2
205,F#4,31.0,0.25,36,170.2
206,G5,31.25,0.25,36,170.2
207,G4,31.25,0.25,31,170.2
208,D5,31.5,0.25,41,170.2
209,F#4,31.5,0.25,36,170.2
210,F#5,31.75,0.25,36,170.2
211,G4,31.75,0.25,31,170.2
212,F#4,32.0,0.25,35,170.2
213,C#5,32.0,0.25,44,170.2
214,E5,32.0,0.25,44,170.2
215,F#5,33.0,0.25,49,170.2
216,B3,33.0,2.25,27,170.2
217,F#4,33.0,0.25,36,170.2
218,A5,33.25,0.25,39,170.2
219,G4,33.25,0.25,29,170.2
220,E5,33.5,0.25,44,170.2
221,F#4,33.5,0.25,36,170.2
222,G5,33.75,0.25,38,170.2
223,G4,33.75,0.25,31,170.2
224,D5,34.0,0.25,43,170.2
225,F#4,34.0,0.25,36,170.2
226,F#5,34.25,0.25,36,170.2
227,G4,34.25,0.25,31,170.2
228,C#5,34.5,0.25,41,170.2
229,F#4,34.5,0.25,36,170.2
230,E5,34.75,0.25,36,170.2
231,G4,34.75,0.25,31,170.2
232,F#4,35.0,0.25,35,170.2
233,B4,35.0,0.25,44,170.2
234,D5,35.0,0.25,44,170.2
235,B-3,36.0,2.25,33,170.2
236,F#4,36.0,0.25,44,170.2
237,D5,36.25,0.25,45,170.2
238,G4,36.25,0.25,36,170.2
239,C#5,36.5,0.25,50,170.2
240,F#4,36.5,0.25,44,170.2
241,E5,36.75,0.25,45,170.2
242,G4,36.75,0.25,38,170.2
243,D5,37.0,0.25,51,170.2
244,F#4,37.0,0.25,44,170.2
245,F#5,37.25,0.25,45,170.2
246,G4,37.25,0.25,38,170.2
247,E5,37.5,0.25,52,170.2
248,F#4,37.5,0.25,46,170.2
249,G5,37.75,0.25,47,170.2
250,G4,37.75,0.25,40,170.2
251,F#4,38.0,0.25,42,170.2
252,D5,38.0,0.25,53,170.2
253,F#5,38.0,0.25,53,170.2
254,A3,39.0,2.25,33,170.2
255,F#4,39.0,0.25,44,170.2
256,D5,39.25,0.25,45,170.2
257,G4,39.25,0.25,36,170.2
258,C#5,39.5,0.25,50,170.2
259,F#4,39.5,0.25,44,170.2
260,E5,39.75,0.25,45,170.2
261,G4,39.75,0.25,38,170.2
262,D5,40.0,0.25,51,170.2
263,F#4,40.0,0.25,44,170.2
264,F#5,40.25,0.25,45,170.2
265,G4,40.25,0.25,38,170.2
266,E5,40.5,0.25,52,170.2
267,F#4,40.5,0.25,46,170.2
268,G5,40.75,0.25,47,170.2
269,G4,40.75,0.25,40,170.2
270,F#4,41.0,0.25,42,170.2
271,D5,41.0,0.25,53,170.2
272,F#5,41.0,0.25,53,170.2
273,D5,42.0,0.25,61,170.2
274,G#3,42.0,0.25,44,170.2
275,F#5,42.25,0.25,54,170.2
276,F#4,42.25,0.25,44,170.2
277,C#5,42.5,0.25,61,170.2
278,G#3,42.5,0.25,46,170.2
279,E5,42.75,0.25,58,170.2
280,F#4,42.75,0.25,48,170.2
281,B4,43.0,0.25,65,170.2
282,G#3,43.0,0.25,49,170.2
283,D5,43.25,0.25,59,170.2
284,F#4,43.25,0.25,52,170.2
285,B-4,43.5,0.25,70,170.2
286,G#3,43.5,0.25,53,170.2
287,C#5,43.75,0.25,58,170.2
288,F#4,43.75,0.25,55,170.2
289,B4,44.0,0.25,72,170.2
290,G3,44.0,0.25,57,170.2
291,D5,44.25,0.25,64,170.2
292,F#4,44.25,0.25,59,170.2
293,C#5,44.5,0.25,72,170.2
294,G3,44.5,0.25,61,170.2
295,E5,44.75,0.25,65,170.2
296,F#4,44.75,0.25,66,170.2
297,B4,45.0,1.0,68,170.2
298,F#3,45.0,0.25,72,170.2
299,F#5,45.0,2.5,80,170.2
300,C#5,45.0,2.5,80,170.2
301,F#4,45.25,0.25,52,170.2
302,F#3,45.5,0.25,56,170.2
303,F#4,45.75,0.25,47,170.2
304,B-4,46.0,1.5,52,170.2
305,F#3,46.0,0.25,55,170.2
306,F#4,46.25,0.25,40,170.2
307,F#3,46.5,0.25,46,170.2
308,F#4,46.75,0.25,40,170.2
309,F#3,47.0,0.5,51,170.2
310,A5,48.0,0.25,40,170.2
311,E4,48.0,0.25,32,170.2
312,C#5,48.25,0.25,32,170.2
313,F#4,48.25,0.25,24,170.2
314,B-4,48.25,0.25,24,170.2
315,G5,48.5,0.25,36,170.2
316,E4,48.5,0.25,32,170.2
317,C#5,48.75,0.25,32,170.2
318,F#4,48.75,0.25,24,170.2
319,B-4,48.75,0.25,24,170.2
320,F#5,49.0,0.25,29,170.2
321,E4,49.0,0.25,25,170.2
322,C#5,49.25,0.25,25,170.2
323,F#4,49.25,0.25,19,170.2
324,B-4,49.25,0.25,19,170.2
325,F#5,49.5,0.25,28,170.2
326,E4,49.5,0.25,25,170.2
327,C#5,49.75,0.25,25,170.2
328,F#4,49.75,0.25,19,170.2
329,B-4,49.75,0.25,19,170.2
330,F#5,50.0,0.25,39,170.2
331,E4,50.0,0.25,31,170.2
332,A5,51.0,0.25,40,170.2
333,D4,51.0,0.25,32,170.2
334,D5,51.25,0.25,32,170.2
335,F#4,51.25,0.25,24,170.2
336,B4,51.25,0.25,24,170.2
337,G5,51.5,0.25,36,170.2
338,D4,51.5,0.25,32,170.2
339,D5,51.75,0.25,32,170.2
340,F#4,51.75,0.25,24,170.2
341,B4,51.75,0.25,24,170.2
342,F#5,52.0,0.25,29,170.2
343,D4,52.0,0.25,25,170.2
344,D5,52.25,0.25,25,170.2
345,F#4,52.25,0.25,19,170.2
346,B4,52.25,0.25,19,170.2
347,F#5,52.5,0.25,28,170.2
348,D4,52.5,0.25,25,170.2
349,D5,52.75,0.25,25,170.2
350,F#4,52.75,0.25,19,170.2
351,B4,52.75,0.25,19,170.2
352,F#5,53.0,0.25,39,170.2
353,D4,53.0,0.25,31,170.2
354,B5,54.0,0.25,40,170.2
355,F4,54.0,0.25,32,170.2
356,E-5,54.25,0.25,32,170.2
357,G4,54.25,0.25,24,170.2
358,B4,54.25,0.25,24,170.2
359,A5,54.5,0.25,36,170.2
360,F4,54.5,0.25,32,170.2
361,E-5,54.75,0.25,32,170.2
362,G4,54.75,0.25,24,170.2
363,B4,54.75,0.25,24,170.2
364,G5,55.0,0.25,29,170.2
365,F4,55.0,0.25,25,170.2
366,E-5,55.25,0.25,25,170.2
367,G4,55.25,0.25,19,170.2
368,B4,55.25,0.25,19,170.2
369,G5,55.5,0.25,28,170.2
370,F4,55.5,0.25,25,170.2
371,E-5,55.75,0.25,25,170.2
372,G4,55.75,0.25,19,170.2
373,B4,55.75,0.25,19,170.2
374,G5,56.0,0.25,39,170.2
375,F4,56.0,0.25,31,170.2
376,B5,57.0,0.25,40,170.2
377,E4,57.0,0.25,32,170.2
378,E5,57.25,0.25,32,170.2
379,G4,57.25,0.25,24,170.2
380,C5,57.25,0.25,24,170.2
381,A5,57.5,0.25,36,170.2
382,E4,57.5,0.25,32,170.2
383,E5,57.75,0.25,32,170.2
384,G4,57.75,0.25,24,170.2
385,C5,57.75,0.25,24,170.2
386,G5,58.0,0.25,29,170.2
387,E4,58.0,0.25,25,170.2
388,E5,58.25,0.25,25,170.2
389,G4,58.25,0.25,19,170.2
390,C5,58.25,0.25,19,170.2
391,G5,58.5,0.25,28,170.2
392,E4,58.5,0.25,25,170.2
393,E5,58.75,0.25,25,170.2
394,G4,58.75,0.25,19,170.2
395,C5,58.75,0.25,19,170.2
396,G5,59.0,0.25,39,170.2
397,E4,59.0,0.25,31,170.2
398,C6,60.0,0.25,50,170.2
399,G4,60.0,0.25,39,170.2
400,E5,60.25,0.25,39,170.2
401,A4,60.25,0.25,29,170.2
402,C#5,60.25,0.25,29,170.2
403,B-5,60.5,0.25,45,170.2
404,G4,60.5,0.25,39,170.2
405,E5,60.75,0.25,39,170.2
406,A4,60.75,0.25,30,170.2
407,C#5,60.75,0.25,30,170.2
408,A5,61.0,0.25,36,170.2
409,G4,61.0,0.25,30,170.2
410,E5,61.25,0.25,30,170.2
411,A4,61.25,0.25,23,170.2
412,C#5,61.25,0.25,23,170.2
413,A5,61.5,0.25,35,170.2
414,G4,61.5,0.25,30,170.2
415,E5,61.75,0.25,30,170.2
416,A4,61.75,0.25,23,170.2
417,C#5,61.75,0.25,23,170.2
418,A5,62.0,0.25,48,170.2
419,G4,62.0,0.25,38,170.2
420,C6,63.0,0.25,55,170.2
421,F4,63.0,0.25,42,170.2
422,F5,63.25,0.25,42,170.2
423,A4,63.25,0.25,32,170.2
424,D5,63.25,0.25,32,170.2
425,B-5,63.5,0.25,49,170.2
426,F4,63.5,0.25,42,170.2
427,F5,63.75,0.25,42,170.2
428,A4,63.75,0.25,33,170.2
429,D5,63.75,0.25,33,170.2
430,A5,64.0,0.25,39,170.2
431,F4,64.0,0.25,33,170.2
432,F5,64.25,0.25,33,170.2
433,A4,64.25,0.25,25,170.2
434,D5,64.25,0.25,25,170.2
435,A5,64.5,0.25,38,170.2
436,F4,64.5,0.25,33,170.2
437,F5,64.75,0.25,33,170.2
438,A4,64.75,0.25,25,170.2
439,D5,64.75,0.25,25,170.2
440,A5,65.0,0.25,52,170.2
441,F4,65.0,0.25,41,170.2
442,D6,66.0,0.25,60,170.2
443,G#4,66.0,0.25,46,170.2
444,F#5,66.25,0.25,46,170.2
445,B-4,66.25,0.25,34,170.2
446,D5,66.25,0.25,34,170.2
447,C6,66.5,0.25,53,170.2
448,G#4,66.5,0.25,46,170.2
449,F#5,66.75,0.25,46,170.2
450,B-4,66.75,0.25,36,170.2
451,D5,66.75,0.25,36,170.2
452,B-5,67.0,0.25,42,170.2
453,G#4,67.0,0.25,36,170.2
454,F#5,67.25,0.25,36,170.2
455,B-4,67.25,0.25,27,170.2
456,D5,67.25,0.25,27,170.2
457,B-5,67.5,0.25,41,170.2
458,G#4,67.5,0.25,36,170.2
459,F#5,67.75,0.25,36,170.2
460,B-4,67.75,0.25,27,170.2
461,D5,67.75,0.25,27,170.2
462,B-5,68.0,0.25,57,170.2
463,G#4,68.0,0.25,45,170.2
464,D6,69.0,0.25,66,170.2
465,G4,69.0,0.25,50,170.2
466,G5,69.25,0.25,50,170.2
467,B-4,69.25,0.25,37,170.2
468,E-5,69.25,0.25,37,170.2
469,C6,69.5,0.25,58,170.2
470,G4,69.5,0.25,50,170.2
471,G5,69.75,0.25,50,170.2
472,B-4,69.75,0.25,39,170.2
473,E-5,69.75,0.25,39,170.2
474,B-5,70.0,0.25,46,170.2
475,G4,70.0,0.25,39,170.2
476,G5,70.25,0.25,39,170.2
477,B-4,70.25,0.25,30,170.2
478,E-5,70.25,0.25,30,170.2
479,B-5,70.5,0.25,45,170.2
480,G4,70.5,0.25,39,170.2
481,G5,70.75,0.25,39,170.2
482,B-4,70.75,0.25,30,170.2
483,E-5,70.75,0.25,30,170.2
484,B-5,71.0,0.25,62,170.2
485,G4,71.0,0.25,49,170.2
486,C6,72.0,0.25,66,170.2
487,F#4,72.0,0.25,50,170.2
488,G5,72.25,0.25,50,170.2
489,B-4,72.25,0.25,37,170.2
490,C#5,72.25,0.25,37,170.2
491,B-5,72.5,0.25,58,170.2
492,F#4,72.5,0.25,50,170.2
493,G5,72.75,0.25,50,170.2
494,B-4,72.75,0.25,39,170.2
495,C#5,72.75,0.25,39,170.2
496,C6,73.0,0.25,66,170.2
497,F4,73.0,0.25,50,170.2
498,G#5,73.25,0.25,50,170.2
499,B-4,73.25,0.25,37,170.2
500,C#5,73.25,0.25,37,170.2
501,B-5,73.5,0.25,58,170.2
502,F4,73.5,0.25,50,170.2
503,G#5,73.75,0.25,50,170.2
504,B-4,73.75,0.25,39,170.2
505,C#5,73.75,0.25,39,170.2
506,C6,74.0,0.25,66,170.2
507,E4,74.0,0.25,50,170.2
508,G5,74.25,0.25,50,170.2
509,B-4,74.25,0.25,37,170.2
510,C#5,74.25,0.25,37,170.2
511,B-5,74.5,0.25,58,170.2
512,E4,74.5,0.25,50,170.2
513,G5,74.75,0.25,50,170.2
514,B-4,74.75,0.25,39,170.2
515,C#5,74.75,0.25,39,170.2
516,A5,75.0,0.25,66,170.2
517,E-4,75.0,0.25,50,170.2
518,C#5,75.25,0.25,50,170.2
519,G4,75.25,0.25,37,170.2
520,B-4,75.25,0.25,37,170.2
521,G5,75.5,0.25,58,170.2
522,E-4,75.5,0.25,50,170.2
523,C#5,75.75,0.25,50,170.2
524,G4,75.75,0.25,39,170.2
525,B-4,75.75,0.25,39,170.2
526,A5,76.0,0.25,66,170.2
527,D4,76.0,0.25,50,170.2
528,F5,76.25,0.25,50,170.2
529,G4,76.25,0.25,37,170.2
530,B-4,76.25,0.25,37,170.2
531,G5,76.5,0.25,58,170.2
532,D4,76.5,0.25,50,170.2
533,F5,76.75,0.25,50,170.2
534,G4,76.75,0.25,39,170.2
535,B-4,76.75,0.25,39,170.2
536,A5,77.0,0.25,66,170.2
537,C#4,77.0,0.25,50,170.2
538,E5,77.25,0.25,50,170.2
539,G4,77.25,0.25,37,170.2
540,B-4,77.25,0.25,37,170.2
541,G5,77.5,0.25,58,170.2
542,C#4,77.5,0.25,50,170.2
543,E5,77.75,0.25,50,170.2
544,G4,77.75,0.25,39,170.2
545,B-4,77.75,0.25,39,170.2
546,F#5,78.0,0.25,66,170.2
547,C4,78.0,0.25,50,170.2
548,B-4,78.25,0.25,50,170.2
549,E4,78.25,0.25,37,170.2
550,G4,78.25,0.25,37,170.2
551,F#5,78.5,0.25,58,170.2
552,C4,78.5,0.25,50,170.2
553,B-4,78.75,0.25,50,170.2
554,E4,78.75,0.25,39,170.2
555,G4,78.75,0.25,39,170.2
556,F#5,79.0,0.25,67,170.2
557,B3,79.0,0.25,51,170.2
558,D5,79.25,0.25,51,170.2
559,E4,79.25,0.25,38,170.2
560,G4,79.25,0.25,38,170.2
561,E5,79.5,0.25,59,170.2
562,B3,79.5,0.25,51,170.2
563,D5,79.75,0.25,52,170.2
564,E4,79.75,0.25,40,170.2
565,G4,79.75,0.25,40,170.2
566,F#5,80.0,0.25,69,170.2
567,B-3,80.0,0.25,52,170.2
568,C#5,80.25,0.25,52,170.2
569,E4,80.25,0.25,38,170.2
570,G4,80.25,0.25,38,170.2
571,E5,80.5,0.25,61,170.2
572,B-3,80.5,0.25,53,170.2
573,C#5,80.75,0.25,53,170.2
574,E4,80.75,0.25,41,170.2
575,G4,80.75,0.25,41,170.2
576,F#5,81.0,0.25,70,170.2
577,A3,81.0,0.25,53,170.2
578,C5,81.25,0.25,54,170.2
579,E4,81.25,0.25,40,170.2
580,G4,81.25,0.25,40,170.2
581,E5,81.5,0.25,62,170.2
582,A3,81.5,0.25,54,170.2
583,C5,81.75,0.25,54,170.2
584,E4,81.75,0.25,42,170.2
585,G4,81.75,0.25,42,170.2
586,F#5,82.0,0.25,70,170.2
587,G#3,82.0,0.25,55,170.2
588,B4,82.25,0.25,55,170.2
589,E4,82.25,0.25,40,170.2
590,F#4,82.25,0.25,40,170.2
591,E5,82.5,0.25,64,170.2
592,G#3,82.5,0.25,55,170.2
593,B4,82.75,0.25,55,170.2
594,E4,82.75,0.25,42,170.2
595,F#4,82.75,0.25,42,170.2
596,F#5,83.0,0.25,69,170.2
597,G3,83.0,0.25,56,170.2
598,B4,83.25,0.25,56,170.2
599,E4,83.25,0.25,42,170.2
600,F#4,83.25,0.25,42,170.2
601,E5,83.5,0.25,65,170.2
602,G3,83.5,0.25,56,170.2
603,B4,83.75,0.25,57,170.2
604,E4,83.75,0.25,44,170.2
605,F#4,83.75,0.25,44,170.2
606,F#5,84.0,0.25,74,170.2
607,A3,84.0,0.5,63,170.2
608,B-4,84.25,0.25,54,170.2
609,E5,84.5,0.25,66,170.2
610,G4,84.75,0.25,55,170.2
611,D5,85.0,0.25,65,170.2
612,G4,85.25,0.25,53,170.2
613,C#5,85.5,0.25,62,170.2
614,E4,85.75,0.25,55,170.2
615,B4,86.0,0.25,66,170.2
616,E4,86.25,0.25,50,170.2
617,B-4,86.5,0.25,58,170.2
618,C#4,86.75,0.25,50,170.2
619,G4,87.0,0.25,74,170.2
620,C#4,87.275,0.25,54,170.2
621,F#4,87.5,0.25,66,170.2
622,B-3,87.75,0.25,55,170.2
623,D4,88.0,0.25,65,170.2
624,B-3,88.25,0.25,53,170.2
625,C#4,88.5,0.25,62,170.2
626,F#3,88.75,0.25,55,170.2
627,B3,89.0,0.25,66,170.2
628,F#3,89.25,0.25,50,170.2
629,B-3,89.5,0.25,58,170.2
630,C#3,89.75,0.25,50,170.2
631,G3,90.0,0.25,74,170.2
632,C#3,90.25,0.25,54,170.2
633,F#3,90.5,0.25,66,170.2
634,B-2,90.75,0.25,55,170.2
635,F3,91.0,0.25,71,170.2
636,E3,91.25,0.25,64,170.2
637,E-3,91.5,0.25,59,170.2
638,D3,91.75,0.25,57,170.2
639,C#3,92.0,0.25,56,170.2
640,C3,92.25,0.25,51,170.2
641,B2,92.5,0.25,48,170.2
642,B-2,92.75,0.25,48,170.2
643,A2,93.0,0.25,48,170.2
644,G#2,93.25,0.25,44,170.2
645,G2,93.5,0.25,42,170.2
646,F#2,93.75,0.25,42,170.2
647,F2,94.0,167/1000,40,170.2
648,E2,94.333,167/1000,36,170.2
649,E-2,94.667,167/1000,33,170.2
650,D2,95.0,167/1000,32,170.2
651,C#2,95.333,167/1000,31,170.2
652,C2,95.667,167/1000,29,170.2
653,B3,96.0,0.25,33,170.2
654,B1,96.0,2.25,20,170.2
655,F#2,96.0,0.25,27,170.2
656,D4,96.25,0.25,25,170.2
657,G2,96.25,0.25,20,170.2
658,C#4,96.5,0.25,27,170.2
659,F#2,96.5,0.25,24,170.2
660,E4,96.75,0.25,23,170.2
661,G2,96.75,0.25,20,170.2
662,D4,97.0,0.25,25,170.2
663,F#2,97.0,0.25,22,170.2
664,F#4,97.25,0.25,21,170.2
665,G2,97.25,0.25,18,170.2
666,E4,97.5,0.25,22,170.2
667,F#2,97.5,0.25,20,170.2
668,G4,97.75,0.25,18,170.2
669,G2,97.75,0.25,16,170.2
670,F#2,98.0,0.25,17,170.2
671,D4,98.0,0.25,21,170.2
672,F#4,98.0,0.25,21,170.2
673,B3,99.0,0.25,33,170.2
674,B1,99.0,2.25,20,170.2
675,F#2,99.0,0.25,27,170.2
676,D4,99.25,0.25,25,170.2
677,G2,99.25,0.25,20,170.2
678,C#4,99.5,0.25,27,170.2
679,F#2,99.5,0.25,24,170.2
680,E4,99.75,0.25,23,170.2
681,G2,99.75,0.25,20,170.2
682,D4,100.0,0.25,25,170.2
683,F#2,100.0,0.25,22,170.2
684,F#4,100.25,0.25,21,170.2
685,G2,100.25,0.25,18,170.2
686,E4,100.5,0.25,22,170.2
687,F#2,100.5,0.25,20,170.2
688,G4,100.75,0.25,18,170.2
689,G2,100.75,0.25,16,170.2
690,F#2,101.0,0.25,17,170.2
691,D4,101.0,0.25,21,170.2
692,F#4,101.0,0.25,21,170.2
693,G4,102.0,0.25,36,170.2
694,B1,102.0,2.25,20,170.2
695,F#2,102.0,0.25,27,170.2
696,B4,102.25,0.25,29,170.2
697,G2,102.25,0.25,21,170.2
698,F#4,102.5,0.25,33,170.2
699,F#2,102.5,0.25,27,170.2
700,A4,102.75,0.25,28,170.2
701,G2,102.75,0.25,23,170.2
702,E4,103.0,0.25,32,170.2
703,F#2,103.0,0.25,27,170.2
704,G4,103.25,0.25,27,170.2
705,G2,103.25,0.25,23,170.2
706,D4,103.5,0.25,30,170.2
707,F#2,103.5,0.25,27,170.2
708,F#4,103.75,0.25,27,170.2
709,G2,103.75,0.25,23,170.2
710,F#2,104.0,0.25,26,170.2
711,C#4,104.0,0.25,33,170.2
712,E4,104.0,0.25,33,170.2
713,F#4,105.0,0.25,36,170.2
714,B1,105.0,2.25,20,170.2
715,F#2,105.0,0.25,27,170.2
716,A4,105.25,0.25,29,170.2
717,G2,105.25,0.25,21,170.2
718,E4,105.5,0.25,33,170.2
719,F#2,105.5,0.25,27,170.2
720,G4,105.75,0.25,28,170.2
721,G2,105.75,0.25,23,170.2
722,D4,106.0,0.25,32,170.2
723,F#2,106.0,0.25,27,170.2
724,F#4,106.25,0.25,27,170.2
725,G2,106.25,0.25,23,170.2
726,C#4,106.5,0.25,30,170.2
727,F#2,106.5,0.25,27,170.2
728,E4,106.75,0.25,27,170.2
729,G2,106.75,0.25,23,170.2
730,F#2,107.0,0.25,26,170.2
731,B3,107.0,0.25,33,170.2
732,D4,107.0,0.25,33,170.2
733,G3,108.0,0.25,36,170.2
734,G2,108.0,0.25,44,170.2
735,B3,108.25,0.25,45,170.2
736,D3,108.25,0.25,36,170.2
737,A3,108.5,0.25,50,170.2
738,G2,108.5,0.25,44,170.2
739,C#4,108.75,0.25,45,170.2
740,D3,108.75,0.25,38,170.2
741,B3,109.0,0.25,51,170.2
742,G2,109.0,0.25,44,170.2
743,D4,109.25,0.25,45,170.2
744,D3,109.25,0.25,38,170.2
745,C#4,109.5,0.25,52,170.2
746,G2,109.5,0.25,46,170.2
747,E4,109.75,0.25,47,170.2
748,D3,109.75,0.25,40,170.2
749,G2,110.0,0.25,42,170.2
750,D4,110.0,0.25,53,170.2
751,B3,110.0,0.25,53,170.2
752,C4,111.0,0.25,36,170.2
753,C2,111.0,0.25,44,170.2
754,E4,111.25,0.25,45,170.2
755,G2,111.25,0.25,36,170.2
756,D4,111.5,0.25,50,170.2
757,C2,111.5,0.25,44,170.2
758,F#4,111.75,0.25,45,170.2
759,G2,111.75,0.25,38,170.2
760,E4,112.0,0.25,51,170.2
761,C2,112.0,0.25,44,170.2
762,G4,112.25,0.25,45,170.2
763,G2,112.25,0.25,38,170.2
764,F#4,112.5,0.25,52,170.2
765,C2,112.5,0.25,46,170.2
766,A4,112.75,0.25,47,170.2
767,G2,112.75,0.25,40,170.2
768,C2,113.0,0.25,42,170.2
769,E4,113.0,0.25,53,170.2
770,G4,113.0,0.25,53,170.2
771,F#4,114.25,0.25,27,170.2
772,B-3,114.5,0.25,28,170.2
773,E4,114.5,0.25,28,170.2
774,E2,114.5,0.25,20,170.2
775,F#2,114.5,0.25,20,170.2
776,F#4,114.75,0.25,28,170.2
777,B-3,115.0,0.25,30,170.2
778,E-4,115.0,0.25,30,170.2
779,E-2,115.0,0.25,24,170.2
780,F#2,115.0,0.25,24,170.2
781,F#4,115.25,0.25,29,170.2
782,B-3,115.5,0.25,32,170.2
783,D4,115.5,0.25,32,170.2
784,D2,115.5,0.25,24,170.2
785,F#2,115.5,0.25,24,170.2
786,F#4,115.75,0.25,28,170.2
787,B-3,116.0,0.25,33,170.2
788,C#4,116.0,0.25,33,170.2
789,C#2,116.0,0.25,26,170.2
790,F#2,116.0,0.25,26,170.2
791,F#4,116.25,0.25,32,170.2
792,A3,116.5,0.25,33,170.2
793,C4,116.5,0.25,33,170.2
794,C2,116.5,0.25,28,170.2
795,F#2,116.5,0.25,28,170.2
796,F#4,116.75,0.25,33,170.2
797,B3,117.0,2.5,35,170.2
798,B1,117.0,0.25,29,170.2
799,F#2,117.25,0.25,19,170.2
800,B1,117.5,0.25,19,170.2
801,F#2,117.75,0.25,19,170.2
802,B1,118.0,0.25,27,170.2
803,F#2,118.25,0.25,20,170.2
804,B1,118.5,0.25,22,170.2
805,F#2,118.75,0.25,20,170.2
806,B1,119.0,0.5,28,170.2
807,A5,120.0,0.25,40,170.2
808,E4,120.0,0.25,32,170.2
809,C#5,120.25,0.25,32,170.2
810,F#4,120.25,0.25,24,170.2
811,B-4,120.25,0.25,24,170.2
812,G5,120.5,0.25,36,170.2
813,E4,120.5,0.25,32,170.2
814,C#5,120.75,0.25,32,170.2
815,F#4,120.75,0.25,24,170.2
816,B-4,120.75,0.25,24,170.2
817,F#5,121.0,0.25,29,170.2
818,E4,121.0,0.25,25,170.2
819,C#5,121.25,0.25,25,170.2
820,F#4,121.25,0.25,19,170.2
821,B-4,121.25,0.25,19,170.2
822,F#5,121.5,0.25,28,170.2
823,E4,121.5,0.25,25,170.2
824,C#5,121.75,0.25,25,170.2
825,F#4,121.75,0.25,19,170.2
826,B-4,121.75,0.25,19,170.2
827,F#5,122.0,0.25,39,170.2
828,E4,122.0,0.25,31,170.2
829,A5,123.0,0.25,40,170.2
830,D4,123.0,0.25,32,170.2
831,D5,123.25,0.25,32,170.2
832,F#4,123.25,0.25,24,170.2
833,B4,123.25,0.25,24,170.2
834,G5,123.5,0.25,36,170.2
835,D4,123.5,0.25,32,170.2
836,D5,123.75,0.25,32,170.2
837,F#4,123.75,0.25,24,170.2
838,B4,123.75,0.25,24,170.2
839,F#5,124.0,0.25,29,170.2
840,D4,124.0,0.25,25,170.2
841,D5,124.25,0.25,25,170.2
842,F#4,124.25,0.25,19,170.2
843,B4,124.25,0.25,19,170.2
844,F#5,124.5,0.25,28,170.2
845,D4,124.5,0.25,25,170.2
846,D5,124.75,0.25,25,170.2
847,F#4,124.75,0.25,19,170.2
848,B4,124.75,0.25,19,170.2
849,F#5,125.0,0.25,39,170.2
850,D4,125.0,0.25,31,170.2
851,B5,126.0,0.25,40,170.2
852,F4,126.0,0.25,32,170.2
853,E-5,126.25,0.25,32,170.2
854,G4,126.25,0.25,24,170.2
855,B4,126.25,0.25,24,170.2
856,A5,126.5,0.25,36,170.2
857,F4,126.5,0.25,32,170.2
858,E-5,126.75,0.25,32,170.2
859,G4,126.75,0.25,24,170.2
860,B4,126.75,0.25,24,170.2
861,G5,127.0,0.25,29,170.2
862,F4,127.0,0.25,25,170.2
863,E-5,127.25,0.25,25,170.2
864,G4,127.25,0.25,19,170.2
865,B4,127.25,0.25,19,170.2
866,G5,127.5,0.25,28,170.2
867,F4,127.5,0.25,25,170.2
868,E-5,127.75,0.25,25,170.2
869,G4,127.75,0.25,19,170.2
870,B4,127.75,0.25,19,170.2
871,G5,128.0,0.25,39,170.2
872,F4,128.0,0.25,31,170.2
873,B5,129.0,0.25,40,170.2
874,E4,129.0,0.25,32,170.2
875,E5,129.25,0.25,32,170.2
876,G4,129.25,0.25,24,170.2
877,C5,129.25,0.25,24,170.2
878,A5,129.5,0.25,36,170.2
879,E4,129.5,0.25,32,170.2
880,E5,129.75,0.25,32,170.2
881,G4,129.75,0.25,24,170.2
882,C5,129.75,0.25,24,170.2
883,G5,130.0,0.25,29,170.2
884,E4,130.0,0.25,25,170.2
885,E5,130.25,0.25,25,170.2
886,G4,130.25,0.25,19,170.2
887,C5,130.25,0.25,19,170.2
888,G5,130.5,0.25,28,170.2
889,E4,130.5,0.25,25,170.2
890,E5,130.75,0.25,25,170.2
891,G4,130.75,0.25,19,170.2
892,C5,130.75,0.25,19,170.2
893,G5,131.0,0.25,39,170.2
894,E4,131.0,0.25,31,170.2
895,C6,132.0,0.25,50,170.2
896,G4,132.0,0.25,39,170.2
897,E5,132.25,0.25,39,170.2
898,A4,132.25,0.25,29,170.2
899,C#5,132.25,0.25,29,170.2
900,B-5,132.5,0.25,45,170.2
901,G4,132.5,0.25,39,170.2
902,E5,132.75,0.25,39,170.2
903,A4,132.75,0.25,30,170.2
904,C#5,132.75,0.25,30,170.2
905,A5,133.0,0.25,36,170.2
906,G4,133.0,0.25,30,170.2
907,E5,133.25,0.25,30,170.2
908,A4,133.25,0.25,23,170.2
909,C#5,133.25,0.25,23,170.2
910,A5,133.5,0.25,35,170.2
911,G4,133.5,0.25,30,170.2
912,E5,133.75,0.25,30,170.2
913,A4,133.75,0.25,23,170.2
914,C#5,133.75,0.25,23,170.2
915,A5,134.0,0.25,48,170.2
916,G4,134.0,0.25,38,170.2
917,C6,135.0,0.25,55,170.2
918,F4,135.0,0.25,42,170.2
919,F5,135.25,0.25,42,170.2
920,A4,135.25,0.25,32,170.2
921,D5,135.25,0.25,32,170.2
922,B-5,135.5,0.25,49,170.2
923,F4,135.5,0.25,42,170.2
924,F5,135.75,0.25,42,170.2
925,A4,135.75,0.25,33,170.2
926,D5,135.75,0.25,33,170.2
927,A5,136.0,0.25,39,170.2
928,F4,136.0,0.25,33,170.2
929,F5,136.25,0.25,33,170.2
930,A4,136.25,0.25,25,170.2
931,D5,136.25,0.25,25,170.2
932,A5,136.5,0.25,38,170.2
933,F4,136.5,0.25,33,170.2
934,F5,136.75,0.25,33,170.2
935,A4,136.75,0.25,25,170.2
936,D5,136.75,0.25,25,170.2
937,A5,137.0,0.25,52,170.2
938,F4,137.0,0.25,41,170.2
939,D6,138.0,0.25,60,170.2
940,G#4,138.0,0.25,46,170.2
941,F#5,138.25,0.25,46,170.2
942,B-4,138.25,0.25,34,170.2
943,D5,138.25,0.25,34,170.2
944,C6,138.5,0.25,53,170.2
945,G#4,138.5,0.25,46,170.2
946,F#5,138.75,0.25,46,170.2
947,B-4,138.75,0.25,36,170.2
948,D5,138.75,0.25,36,170.2
949,B-5,139.0,0.25,42,170.2
950,G#4,139.0,0.25,36,170.2
951,F#5,139.25,0.25,36,170.2
952,B-4,139.25,0.25,27,170.2
953,D5,139.25,0.25,27,170.2
954,B-5,139.5,0.25,41,170.2
955,G#4,139.5,0.25,36,170.2
956,F#5,139.75,0.25,36,170.2
957,B-4,139.75,0.25,27,170.2
958,D5,139.75,0.25,27,170.2
959,B-5,140.0,0.25,57,170.2
960,G#4,140.0,0.25,45,170.2
961,D6,141.0,0.25,66,170.2
962,G4,141.0,0.25,50,170.2
963,G5,141.25,0.25,50,170.2
964,B-4,141.25,0.25,37,170.2
965,E-5,141.25,0.25,37,170.2
966,C6,141.5,0.25,58,170.2
967,G4,141.5,0.25,50,170.2
968,G5,141.75,0.25,50,170.2
969,B-4,141.75,0.25,39,170.2
970,E-5,141.75,0.25,39,170.2
971,B-5,142.0,0.25,46,170.2
972,G4,142.0,0.25,39,170.2
973,G5,142.25,0.25,39,170.2
974,B-4,142.25,0.25,30,170.2
975,E-5,142.25,0.25,30,170.2
976,B-5,142.5,0.25,45,170.2
977,G4,142.5,0.25,39,170.2
978,G5,142.75,0.25,39,170.2
979,B-4,142.75,0.25,30,170.2
980,E-5,142.75,0.25,30,170.2
981,B-5,143.0,0.25,62,170.2
982,G4,143.0,0.25,49,170.2
983,C6,144.0,0.25,66,170.2
984,F#4,144.0,0.25,50,170.2
985,G5,144.25,0.25,50,170.2
986,B-4,144.25,0.25,37,170.2
987,C#5,144.25,0.25,37,170.2
988,B-5,144.5,0.25,58,170.2
989,F#4,144.5,0.25,50,170.2
990,G5,144.75,0.25,50,170.2
991,B-4,144.75,0.25,39,170.2
992,C#5,144.75,0.25,39,170.2
993,C6,145.0,0.25,66,170.2
994,F4,145.0,0.25,50,170.2
995,G#5,145.25,0.25,50,170.2
996,B-4,145.25,0.25,37,170.2
997,C#5,145.25,0.25,37,170.2
998,B-5,145.5,0.25,58,170.2
999,F4,145.5,0.25,50,170.2
1000,G#5,145.75,0.25,50,170.2
1001,B-4,145.75,0.25,39,170.2
1002,C#5,145.75,0.25,39,170.2
1003,C6,146.0,0.25,66,170.2
1004,E4,146.0,0.25,50,170.2
1005,G5,146.25,0.25,50,170.2
1006,B-4,146.25,0.25,37,170.2
1007,C#5,146.25,0.25,37,170.2
1008,B-5,146.5,0.25,58,170.2
1009,E4,146.5,0.25,50,170.2
1010,G5,146.75,0.25,50,170.2
1011,B-4,146.75,0.25,39,170.2
1012,C#5,146.75,0.25,39,170.2
1013,A5,147.0,0.25,66,170.2
1014,E-4,147.0,0.25,50,170.2
1015,C#5,147.25,0.25,50,170.2
1016,G4,147.25,0.25,37,170.2
1017,B-4,147.25,0.25,37,170.2
1018,G5,147.5,0.25,58,170.2
1019,E-4,147.5,0.25,50,170.2
1020,C#5,147.75,0.25,50,170.2
1021,G4,147.75,0.25,39,170.2
1022,B-4,147.75,0.25,39,170.2
1023,A5,148.0,0.25,66,170.2
1024,D4,148.0,0.25,50,170.2
1025,F5,148.25,0.25,50,170.2
1026,G4,148.25,0.25,37,170.2
1027,B-4,148.25,0.25,37,170.2
1028,G5,148.5,0.25,58,170.2
1029,D4,148.5,0.25,50,170.2
1030,F5,148.75,0.25,50,170.2
1031,G4,148.75,0.25,39,170.2
1032,B-4,148.75,0.25,39,170.2
1033,A5,149.0,0.25,66,170.2
1034,C#4,149.0,0.25,50,170.2
1035,E5,149.25,0.25,50,170.2
1036,G4,149.25,0.25,37,170.2
1037,B-4,149.25,0.25,37,170.2
1038,G5,149.5,0.25,58,170.2
1039,C#4,149.5,0.25,50,170.2
1040,E5,149.75,0.25,50,170.2
1041,G4,149.75,0.25,39,170.2
1042,B-4,149.75,0.25,39,170.2
1043,F#5,150.0,0.25,66,170.2
1044,C4,150.0,0.25,50,170.2
1045,B-4,150.25,0.25,50,170.2
1046,E4,150.25,0.25,37,170.2
1047,G4,150.25,0.25,37,170.2
1048,F#5,150.5,0.25,58,170.2
1049,C4,150.5,0.25,50,170.2
1050,B-4,150.75,0.25,50,170.2
1051,E4,150.75,0.25,39,170.2
1052,G4,150.75,0.25,39,170.2
1053,F#5,151.0,0.25,67,170.2
1054,B3,151.0,0.25,51,170.2
1055,D5,151.25,0.25,51,170.2
1056,E4,151.25,0.25,38,170.2
1057,G4,151.25,0.25,38,170.2
1058,E5,151.5,0.25,59,170.2
1059,B3,151.5,0.25,51,170.2
1060,D5,151.75,0.25,52,170.2
1061,E4,151.75,0.25,40,170.2
1062,G4,151.75,0.25,40,170.2
1063,F#5,152.0,0.25,69,170.2
1064,B-3,152.0,0.25,52,170.2
1065,C#5,152.25,0.25,52,170.2
1066,E4,152.25,0.25,38,170.2
1067,G4,152.25,0.25,38,170.2
1068,E5,152.5,0.25,61,170.2
1069,B-3,152.5,0.25,53,170.2
1070,C#5,152.75,0.25,53,170.2
1071,E4,152.75,0.25,41,170.2
1072,G4,152.75,0.25,41,170.2
1073,F#5,153.0,0.25,70,170.2
1074,A3,153.0,0.25,53,170.2
1075,C5,153.25,0.25,54,170.2
1076,E4,153.25,0.25,40,170.2
1077,G4,153.25,0.25,40,170.2
1078,E5,153.5,0.25,62,170.2
1079,A3,153.5,0.25,54,170.2
1080,C5,153.75,0.25,54,170.2
1081,E4,153.75,0.25,42,170.2
1082,G4,153.75,0.25,42,170.2
1083,F#5,154.0,0.25,70,170.2
1084,G#3,154.0,0.25,55,170.2
1085,B4,154.25,0.25,55,170.2
1086,E4,154.25,0.25,40,170.2
1087,F#4,154.25,0.25,40,170.2
1088,E5,154.5,0.25,64,170.2
1089,G#3,154.5,0.25,55,170.2
1090,B4,154.75,0.25,55,170.2
1091,E4,154.75,0.25,42,170.2
1092,F#4,154.75,0.25,42,170.2
1093,F#5,155.0,0.25,69,170.2
1094,G3,155.0,0.25,56,170.2
1095,B4,155.25,0.25,56,170.2
1096,E4,155.25,0.25,42,170.2
1097,F#4,155.25,0.25,42,170.2
1098,E5,155.5,0.25,65,170.2
1099,G3,155.5,0.25,56,170.2
1100,B4,155.75,0.25,57,170.2
1101,E4,155.75,0.25,44,170.2
1102,F#4,155.75,0.25,44,170.2
1103,F#5,156.0,0.25,74,170.2
1104,A3,156.0,0.5,63,170.2
1105,B-4,156.25,0.25,54,170.2
1106,E5,156.5,0.25,66,170.2
1107,G4,156.75,0.25,55,170.2
1108,D5,157.0,0.25,65,170.2
1109,G4,157.25,0.25,53,170.2
1110,C#5,157.5,0.25,62,170.2
1111,E4,157.75,0.25,55,170.2
1112,B4,158.0,0.25,66,170.2
1113,E4,158.25,0.25,50,170.2
1114,B-4,158.5,0.25,58,170.2
1115,C#4,158.75,0.25,50,170.2
1116,G4,159.0,0.25,74,170.2
1117,C#4,159.275,0.25,54,170.2
1118,F#4,159.5,0.25,66,170.2
1119,B-3,159.75,0.25,55,170.2
1120,D4,160.0,0.25,65,170.2
1121,B-3,160.25,0.25,53,170.2
1122,C#4,160.5,0.25,62,170.2
1123,F#3,160.75,0.25,55,170.2
1124,B3,161.0,0.25,66,170.2
1125,F#3,161.25,0.25,50,170.2
1126,B-3,161.5,0.25,58,170.2
1127,C#3,161.75,0.25,50,170.2
1128,G3,162.0,0.25,74,170.2
1129,C#3,162.25,0.25,54,170.2
1130,F#3,162.5,0.25,66,170.2
1131,B-2,162.75,0.25,55,170.2
1132,F3,163.0,0.25,71,170.2
1133,E3,163.25,0.25,64,170.2
1134,E-3,163.5,0.25,59,170.2
1135,D3,163.75,0.25,57,170.2
1136,C#3,164.0,0.25,56,170.2
1137,C3,164.25,0.25,51,170.2
1138,B2,164.5,0.25,48,170.2
1139,B-2,164.75,0.25,48,170.2
1140,A2,165.0,0.25,48,170.2
1141,G#2,165.25,0.25,44,170.2
1142,G2,165.5,0.25,42,170.2
1143,F#2,165.75,0.25,42,170.2
1144,F2,166.0,167/1000,40,170.2
1145,E2,166.333,167/1000,36,170.2
1146,E-2,166.667,167/1000,33,170.2
1147,D2,167.0,167/1000,30,170.2
1148,C#2,167.333,167/1000,26,170.2
1149,C2,167.667,167/1000,25,170.2
1150,B3,168.0,0.25,33,170.2
1151,B1,168.0,2.25,20,170.2
1152,F#2,168.0,0.25,27,170.2
1153,D4,168.25,0.25,25,170.2
1154,G2,168.25,0.25,20,170.2
1155,C#4,168.5,0.25,27,170.2
1156,F#2,168.5,0.25,24,170.2
1157,E4,168.75,0.25,23,170.2
1158,G2,168.75,0.25,20,170.2
1159,D4,169.0,0.25,26,170.2
1160,F#2,169.0,0.25,22,170.2
1161,F#4,169.25,0.25,21,170.2
1162,G2,169.25,0.25,18,170.2
1163,E4,169.5,0.25,22,170.2
1164,F#2,169.5,0.25,20,170.2
1165,G4,169.75,0.25,19,170.2
1166,G2,169.75,0.25,16,170.2
1167,F#2,170.0,0.25,17,170.2
1168,D4,170.0,0.25,22,170.2
1169,F#4,170.0,0.25,22,170.2
1170,B3,171.0,0.25,33,170.2
1171,B1,171.0,2.25,20,170.2
1172,F#2,171.0,0.25,27,170.2
1173,D4,171.25,0.25,25,170.2
1174,G2,171.25,0.25,20,170.2
1175,C#4,171.5,0.25,27,170.2
1176,F#2,171.5,0.25,24,170.2
1177,E4,171.75,0.25,23,170.2
1178,G2,171.75,0.25,20,170.2
1179,D4,172.0,0.25,26,170.2
1180,F#2,172.0,0.25,22,170.2
1181,F#4,172.25,0.25,21,170.2
1182,G2,172.25,0.25,18,170.2
1183,E4,172.5,0.25,22,170.2
1184,F#2,172.5,0.25,20,170.2
1185,G4,172.75,0.25,19,170.2
1186,G2,172.75,0.25,16,170.2
1187,F#2,173.0,0.25,17,170.2
1188,D4,173.0,0.25,22,170.2
1189,F#4,173.0,0.25,22,170.2
1190,G4,174.0,0.25,36,170.2
1191,B1,174.0,2.25,20,170.2
1192,F#2,174.0,0.25,27,170.2
1193,B4,174.25,0.25,29,170.2
1194,G2,174.25,0.25,21,170.2
1195,F#4,174.5,0.25,33,170.2
1196,F#2,174.5,0.25,27,170.2
1197,A4,174.75,0.25,28,170.2
1198,G2,174.75,0.25,23,170.2
1199,E4,175.0,0.25,32,170.2
1200,F#2,175.0,0.25,27,170.2
1201,G4,175.25,0.25,27,170.2
1202,G2,175.25,0.25,23,170.2
1203,D4,175.5,0.25,30,170.2
1204,F#2,175.5,0.25,27,170.2
1205,F#4,175.75,0.25,27,170.2
1206,G2,175.75,0.25,23,170.2
1207,F#2,176.0,0.25,26,170.2
1208,C#4,176.0,0.25,33,170.2
1209,E4,176.0,0.25,33,170.2
1210,F#4,177.0,0.25,36,170.2
1211,B1,177.0,2.25,20,170.2
1212,F#2,177.0,0.25,27,170.2
1213,A4,177.25,0.25,29,170.2
1214,G2,177.25,0.25,21,170.2
1215,E4,177.5,0.25,33,170.2
1216,F#2,177.5,0.25,27,170.2
1217,G4,177.75,0.25,28,170.2
1218,G2,177.75,0.25,23,170.2
1219,D4,178.0,0.25,32,170.2
1220,F#2,178.0,0.25,27,170.2
1221,F#4,178.25,0.25,27,170.2
1222,G2,178.25,0.25,23,170.2
1223,C#4,178.5,0.25,30,170.2
1224,F#2,178.5,0.25,27,170.2
1225,E4,178.75,0.25,27,170.2
1226,G2,178.75,0.25,23,170.2
1227,F#2,179.0,0.25,26,170.2
1228,B3,179.0,0.25,33,170.2
1229,D4,179.0,0.25,33,170.2
1230,G3,180.0,0.25,36,170.2
1231,G2,180.0,0.25,44,170.2
1232,B3,180.25,0.25,45,170.2
1233,D3,180.25,0.25,36,170.2
1234,A3,180.5,0.25,50,170.2
1235,G2,180.5,0.25,44,170.2
1236,C#4,180.75,0.25,45,170.2
1237,D3,180.75,0.25,38,170.2
1238,B3,181.0,0.25,51,170.2
1239,G2,181.0,0.25,44,170.2
1240,D4,181.25,0.25,45,170.2
1241,D3,181.25,0.25,38,170.2
1242,C#4,181.5,0.25,52,170.2
1243,G2,181.5,0.25,46,170.2
1244,E4,181.75,0.25,47,170.2
1245,D3,181.75,0.25,40,170.2
1246,G2,182.0,0.25,42,170.2
1247,D4,182.0,0.25,53,170.2
1248,B3,182.0,0.25,53,170.2
1249,C4,183.0,0.25,36,170.2
1250,C2,183.0,0.25,44,170.2
1251,E4,183.25,0.25,45,170.2
1252,G2,183.25,0.25,36,170.2
1253,D4,183.5,0.25,50,170.2
1254,C2,183.5,0.25,44,170.2
1255,F#4,183.75,0.25,45,170.2
1256,G2,183.75,0.25,38,170.2
1257,E4,184.0,0.25,51,170.2
1258,C2,184.0,0.25,44,170.2
1259,G4,184.25,0.25,45,170.2
1260,G2,184.25,0.25,38,170.2
1261,F#4,184.5,0.25,52,170.2
1262,C2,184.5,0.25,46,170.2
1263,A4,184.75,0.25,47,170.2
1264,G2,184.75,0.25,40,170.2
1265,C2,185.0,0.25,42,170.2
1266,E4,185.0,0.25,53,170.2
1267,G4,185.0,0.25,53,170.2
1268,F#4,186.25,0.25,27,170.2
1269,B-3,186.5,0.25,28,170.2
1270,E4,186.5,0.25,28,170.2
1271,E2,186.5,0.25,20,170.2
1272,F#2,186.5,0.25,20,170.2
1273,F#4,186.75,0.25,28,170.2
1274,B-3,187.0,0.25,30,170.2
1275,E-4,187.0,0.25,30,170.2
1276,E-2,187.0,0.25,24,170.2
1277,F#2,187.0,0.25,24,170.2
1278,F#4,187.25,0.25,29,170.2
1279,B-3,187.5,0.25,32,170.2
1280,D4,187.5,0.25,32,170.2
1281,D2,187.5,0.25,24,170.2
1282,F#2,187.5,0.25,24,170.2
1283,F#4,187.75,0.25,28,170.2
1284,B-3,188.0,0.25,33,170.2
1285,C#4,188.0,0.25,33,170.2
1286,C#2,188.0,0.25,26,170.2
1287,F#2,188.0,0.25,26,170.2
1288,F#4,188.25,0.25,32,170.2
1289,A3,188.5,0.25,33,170.2
1290,C4,188.5,0.25,33,170.2
1291,C2,188.5,0.25,28,170.2
1292,F#2,188.5,0.25,28,170.2
1293,F#4,188.75,0.25,33,170.2
1294,B3,189.0,2.5,35,170.2
1295,B1,189.0,0.25,29,170.2
1296,F#2,189.25,0.25,19,170.2
1297,B1,189.5,0.25,19,170.2
1298,F#2,189.75,0.25,19,170.2
1299,B1,190.0,0.25,27,170.2
1300,F#2,190.25,0.25,20,170.2
1301,B1,190.5,0.25,22,170.2
1302,F#2,190.75,0.25,20,170.2
1303,B1,191.0,0.25,27,170.2
1304,F#2,191.25,0.25,20,170.2
1305,B1,191.5,0.25,22,170.2
1306,F#2,191.75,0.25,20,170.2
1307,G3,192.0,0.25,42,170.2
1308,E2,192.0,0.25,34,170.2
1309,B3,192.25,0.25,37,170.2
1310,B2,192.25,0.25,29,170.2
1311,G#3,192.5,0.25,45,170.2
1312,E2,192.5,0.25,35,170.2
1313,C4,192.75,0.25,39,170.2
1314,B2,192.75,0.25,31,170.2
1315,A3,193.0,0.25,46,170.2
1316,C#4,193.25,0.25,41,170.2
1317,B-3,193.5,0.25,49,170.2
1318,D4,193.75,0.25,42,170.2
1319,B3,194.0,0.25,51,170.2
1320,E-4,194.25,0.25,45,170.2
1321,C4,194.5,0.25,52,170.2
1322,E4,194.75,0.25,47,170.2
1323,B1,195.0,0.25,36,170.2
1324,C#4,195.0,0.25,52,170.2
1325,F3,195.0,0.25,52,170.2
1326,F#2,195.25,0.25,22,170.2
1327,B1,195.5,0.25,22,170.2
1328,F#2,195.75,0.25,22,170.2
1329,B1,196.0,0.25,32,170.2
1330,F#3,196.0,2.0,33,170.2
1331,D4,196.0,2.0,33,170.2
1332,F#2,196.25,0.25,25,170.2
1333,B1,196.5,0.25,25,170.2
1334,F#2,196.75,0.25,25,170.2
1335,B1,197.0,0.25,33,170.2
1336,F#2,197.25,0.25,20,170.2
1337,B1,197.5,0.25,22,170.2
1338,F#2,197.75,0.25,20,170.2
1339,G3,198.0,0.25,42,170.2
1340,E2,198.0,0.25,34,170.2
1341,B3,198.25,0.25,37,170.2
1342,B2,198.25,0.25,29,170.2
1343,G#3,198.5,0.25,45,170.2
1344,E2,198.5,0.25,35,170.2
1345,C4,198.75,0.25,39,170.2
1346,B2,198.75,0.25,31,170.2
1347,A3,199.0,0.25,46,170.2
1348,C#4,199.25,0.25,41,170.2
1349,B-3,199.5,0.25,49,170.2
1350,D4,199.75,0.25,42,170.2
1351,B3,200.0,0.25,51,170.2
1352,E-4,200.25,0.25,45,170.2
1353,C4,200.5,0.25,52,170.2
1354,E4,200.75,0.25,47,170.2
1355,B1,201.0,0.25,36,170.2
1356,F4,201.0,0.25,52,170.2
1357,C#4,201.0,0.25,52,170.2
1358,F#2,201.25,0.25,22,170.2
1359,B1,201.5,0.25,22,170.2
1360,F#2,201.75,0.25,22,170.2
1361,B1,202.0,0.25,32,170.2
1362,D4,202.0,2.0,33,170.2
1363,F#4,202.0,2.0,33,170.2
1364,F#2,202.25,0.25,25,170.2
1365,B1,202.5,0.25,25,170.2
1366,F#2,202.75,0.25,25,170.2
1367,B1,203.0,0.25,33,170.2
1368,F#2,203.25,0.25,20,170.2
1369,B1,203.5,0.25,22,170.2
1370,F#2,203.75,0.25,20,170.2
1371,G3,204.0,0.25,42,170.2
1372,E2,204.0,0.25,34,170.2
1373,B3,204.25,0.25,37,170.2
1374,B2,204.25,0.25,29,170.2
1375,B-3,204.5,0.25,45,170.2
1376,E2,204.5,0.25,35,170.2
1377,C#4,204.75,0.25,39,170.2
1378,B2,204.75,0.25,31,170.2
1379,B3,205.0,0.25,46,170.2
1380,D4,205.25,0.25,41,170.2
1381,C#4,205.5,0.25,49,170.2
1382,E4,205.75,0.25,42,170.2
1383,D4,206.0,0.25,42,170.2
1384,B2,206.0,0.25,34,170.2
1385,F#4,206.25,0.25,37,170.2
1386,F#3,206.25,0.25,29,170.2
1387,E4,206.5,0.25,45,170.2
1388,B2,206.5,0.25,35,170.2
1389,G#4,206.75,0.25,39,170.2
1390,F#3,206.75,0.25,31,170.2
1391,F#4,207.0,0.25,46,170.2
1392,B-4,207.25,0.25,41,170.2
1393,G#4,207.5,0.25,49,170.2
1394,B4,207.75,0.25,42,170.2
1395,G4,208.0,0.25,42,170.2
1396,E3,208.0,0.25,34,170.2
1397,B4,208.25,0.25,37,170.2
1398,B3,208.25,0.25,29,170.2
1399,B-4,208.5,0.25,45,170.2
1400,E3,208.5,0.25,35,170.2
1401,C#5,208.75,0.25,39,170.2
1402,B3,208.75,0.25,31,170.2
1403,B4,209.0,0.25,46,170.2
1404,D5,209.25,0.25,41,170.2
1405,C#5,209.5,0.25,49,170.2
1406,E5,209.75,0.25,42,170.2
1407,D5,210.0,0.25,42,170.2
1408,B3,210.0,0.25,34,170.2
1409,F#5,210.25,0.25,37,170.2
1410,F#4,210.25,0.25,29,170.2
1411,E5,210.5,0.25,45,170.2
1412,B3,210.5,0.25,35,170.2
1413,G#5,210.75,0.25,39,170.2
1414,F#4,210.75,0.25,31,170.2
1415,F#5,211.0,0.25,46,170.2
1416,B-5,211.25,0.25,41,170.2
1417,G#5,211.5,0.25,49,170.2
1418,B5,211.75,0.25,42,170.2
1419,G5,212.0,0.25,42,170.2
1420,E4,212.0,0.25,34,170.2
1421,B5,212.25,0.25,37,170.2
1422,B4,212.25,0.25,29,170.2
1423,B-5,212.5,0.25,45,170.2
1424,E4,212.5,0.25,35,170.2
1425,C#6,212.75,0.25,39,170.2
1426,B4,212.75,0.25,31,170.2
1427,B5,213.0,0.25,46,170.2
1428,D6,213.25,0.25,41,170.2
1429,C#6,213.5,0.25,49,170.2
1430,E6,213.75,0.25,42,170.2
1431,D6,214.0,0.25,42,170.2
1432,B4,214.0,0.25,34,170.2
1433,F#6,214.25,0.25,37,170.2
1434,F#5,214.25,0.25,29,170.2
1435,E6,214.5,0.25,45,170.2
1436,B4,214.5,0.25,35,170.2
1437,G#6,214.75,0.25,39,170.2
1438,F#5,214.75,0.25,31,170.2
1439,F#6,215.0,0.25,50,170.2
1440,B-6,215.25,0.25,45,170.2
1441,G#6,215.5,0.25,51,170.2
1442,B6,215.75,0.25,45,170.2
1443,F#6,216.0,0.25,56,170.2
1444,B-6,216.25,0.25,47,170.2
1445,G#6,216.5,0.25,53,170.2
1446,B6,216.75,0.25,49,170.2
1447,F#6,217.0,0.25,55,170.2
1448,B-6,217.25,0.25,49,170.2
1449,G#6,217.5,0.25,54,170.2
1450,B6,217.75,0.25,53,170.2
1451,F#6,218.0,0.25,60,170.2
1452,B-6,218.25,0.25,55,170.2
1453,G#6,218.5,0.25,61,170.2
1454,B6,218.75,0.25,58,170.2
1455,F#6,219.0,0.25,66,170.2
1456,B-6,219.25,0.25,60,170.2
1457,G#6,219.5,0.25,67,170.2
1458,B6,219.75,0.25,64,170.2
1459,F#6,220.0,0.25,70,170.2
1460,B-6,220.25,0.25,61,170.2
1461,G#6,220.5,0.25,68,170.2
1462,B6,220.75,0.25,61,170.2
1463,G#6,221.0,0.25,70,170.2
1464,F#6,221.25,0.25,59,170.2
1465,D6,221.5,0.25,59,170.2
1466,B5,221.75,0.25,54,170.2
1467,G#5,222.0,0.25,69,170.2
1468,F#5,222.25,0.25,54,170.2
1469,D5,222.5,0.25,54,170.2
1470,B4,222.75,0.25,49,170.2
1471,G#4,223.0,0.25,65,170.2
1472,F#4,223.25,0.25,50,170.2
1473,D4,223.5,0.25,50,170.2
1474,B3,223.75,0.25,50,170.2
1475,G#3,224.0,0.25,57,170.2
1476,F#3,224.25,0.25,50,170.2
1477,B2,224.5,0.25,45,170.2
1478,F#3,224.75,0.25,45,170.2
1479,G#3,225.0,0.25,50,170.2
1480,B3,225.25,0.25,42,170.2
1481,D4,225.5,167/1000,47,170.2
1482,F#4,225.667,167/1000,52,170.2
1483,G#4,225.833,167/1000,55,170.2
1484,D5,226.0,0.25,67,170.2
1485,B2,228.688,0.312,28,170.2
1486,G3,228.75,0.25,32,170.2
1487,B3,228.812,0.188,37,170.2
1488,D4,228.875,0.125,36,170.2
1489,G4,228.938,0.062,41,170.2
1490,D5,229.0,0.25,46,170.2
1491,D4,229.0,0.25,36,170.2
1492,G4,229.0,0.25,41,170.2
1493,B2,229.0,0.25,28,170.2
1494,G3,229.0,0.25,32,170.2
1495,B3,229.0,0.25,37,170.2
1496,B4,233.0,0.25,30,170.2
1497,D4,233.0,0.25,30,170.2
1498,F#3,233.0,0.25,26,170.2
1499,B2,233.0,0.25,26,170.2
1500,B5,234.0,0.25,28,170.2
1501,D5,234.0,0.25,28,170.2
1502,F#4,234.0,0.25,22,170.2
1503,B3,234.0,0.25,22,170.2
1504,D6,235.0,0.25,31,170.2
1505,B6,235.0,0.25,31,170.2
1506,F#5,235.0,0.25,26,170.2
1507,B4,235.0,0.25,26,170.2
