,note_name,start_time,duration,velocity,tempo
0,A2,0.0,1.0,36,140.0
1,C4,1.0,1.0,26,140.0
2,E3,1.0,1.0,26,140.0
3,E3,2.0,1.0,26,140.0
4,C4,2.0,1.0,26,140.0
5,A2,3.0,1.0,36,140.0
6,E3,4.0,1.0,26,140.0
7,C4,4.0,1.0,26,140.0
8,C4,5.0,1.0,26,140.0
9,E3,5.0,1.0,26,140.0
10,E4,6.0,1.0,50,140.0
11,A2,6.0,1.0,36,140.0
12,F#4,7.0,0.25,49,140.0
13,E3,7.0,1.0,26,140.0
14,C4,7.0,1.0,26,140.0
15,G#4,7.5,0.125,49,140.0
16,A4,8.0,0.5,53,140.0
17,C4,8.0,1.0,26,140.0
18,E3,8.0,1.0,26,140.0
19,A4,9.0,1.0,56,140.0
20,A2,9.0,1.0,36,140.0
21,B4,10.0,0.25,58,140.0
22,D4,10.0,1.0,26,140.0
23,E3,10.0,1.0,26,140.0
24,G#4,10.5,0.125,50,140.0
25,F#4,11.0,0.25,48,140.0
26,D4,11.0,1.0,26,140.0
27,E3,11.0,1.0,26,140.0
28,A4,11.875,0.125,39,140.0
29,F#4,12.0,0.25,50,140.0
30,A2,12.0,1.0,36,140.0
31,E4,13.0,2.0,47,140.0
32,C4,13.0,1.0,24,140.0
33,E3,13.0,1.0,24,140.0
34,C4,14.0,1.0,24,140.0
35,E3,14.0,1.0,24,140.0
36,E4,15.0,1.0,47,140.0
37,A2,15.0,1.0,36,140.0
38,E3,16.0,1.0,23,140.0
39,C4,16.0,1.0,23,140.0
40,C4,17.0,1.0,24,140.0
41,E3,17.0,1.0,24,140.0
42,A2,18.0,1.0,36,140.0
43,E4,18.5,0.25,43,140.0
44,F#4,19.0,0.125,46,140.0
45,C4,19.0,1.0,26,140.0
46,E3,19.0,1.0,26,140.0
47,G#4,19.5,0.125,49,140.0
48,G#4,20.0,0.5,54,140.0
49,E3,20.0,1.0,26,140.0
50,C4,20.0,1.0,26,140.0
51,A4,20.5,0.5,51,140.0
52,A2,21.0,1.0,36,140.0
53,A4,21.5,0.125,51,140.0
54,B4,22.0,0.125,56,140.0
55,E3,22.0,1.0,26,140.0
56,D4,22.0,1.0,26,140.0
57,G#4,22.5,0.125,50,140.0
58,G#4,23.0,0.5,48,140.0
59,D4,23.0,1.0,26,140.0
60,E3,23.0,1.0,26,140.0
61,F#4,23.5,0.25,50,140.0
62,A4,23.875,0.125,39,140.0
63,F#4,24.0,0.25,50,140.0
64,A2,24.0,1.0,36,140.0
65,E4,25.0,2.0,47,140.0
66,C4,25.0,1.0,24,140.0
67,E3,25.0,1.0,24,140.0
68,C4,26.0,1.0,24,140.0
69,E3,26.0,1.0,24,140.0
70,E4,27.0,1.0,47,140.0
71,A2,27.0,1.0,36,140.0
72,C4,28.0,1.0,23,140.0
73,E3,28.0,1.0,23,140.0
74,E3,29.0,1.0,24,140.0
75,C4,29.0,1.0,24,140.0
76,G4,30.0,251/500,40,140.0
77,E5,30.0,251/500,40,140.0
78,C4,30.0,251/500,30,140.0
79,E4,30.0,251/500,30,140.0
80,E5,31.0,251/500,44,140.0
81,G#4,31.0,251/500,44,140.0
82,F4,31.0,251/500,33,140.0
83,C4,31.0,251/500,33,140.0
84,A4,32.0,251/500,48,140.0
85,E5,32.0,251/500,48,140.0
86,C4,32.0,251/500,36,140.0
87,F#4,32.0,251/500,36,140.0
88,B4,33.0,3.0,45,140.0
89,E5,33.0,333/1000,54,140.0
90,D4,33.0,3.0,40,140.0
91,G4,33.0,3.0,40,140.0
92,G3,33.0,3.0,40,140.0
93,D5,33.333,333/1000,44,140.0
94,C5,33.667,333/1000,44,140.0
95,D5,34.0,2.0,48,140.0
96,C5,36.0,63/125,40,140.0
97,E4,36.0,63/125,40,140.0
98,C4,36.0,63/125,30,140.0
99,A3,36.0,63/125,30,140.0
100,C5,37.0,63/125,44,140.0
101,F4,37.0,63/125,44,140.0
102,A3,37.0,63/125,33,140.0
103,D4,37.0,63/125,33,140.0
104,F#4,38.0,63/125,48,140.0
105,C5,38.0,63/125,48,140.0
106,E-4,38.0,63/125,36,140.0
107,A3,38.0,63/125,36,140.0
108,G4,39.0,3.0,45,140.0
109,C5,39.0,333/1000,54,140.0
110,B3,39.0,3.0,40,140.0
111,E4,39.0,3.0,40,140.0
112,E3,39.0,3.0,40,140.0
113,B4,39.333,333/1000,44,140.0
114,A4,39.667,333/1000,44,140.0
115,B4,40.0,2.0,48,140.0
116,F4,42.0,3.0,45,140.0
117,B4,42.0,333/1000,54,140.0
118,C4,42.0,3.0,42,140.0
119,F3,42.0,3.0,42,140.0
120,A4,42.333,333/1000,44,140.0
121,G4,42.667,333/1000,44,140.0
122,A4,43.0,2.0,48,140.0
123,F4,45.0,333/1000,59,140.0
124,G4,45.0,3.0,43,140.0
125,G3,45.0,3.0,44,140.0
126,C4,45.0,3.0,44,140.0
127,C3,45.0,3.0,44,140.0
128,E4,45.34,333/1000,48,140.0
129,D4,45.663,333/1000,48,140.0
130,E4,46.0,2.0,52,140.0
131,C4,48.0,1.0,56,140.0
132,F4,48.0,1.0,56,140.0
133,A3,48.0,1.0,48,140.0
134,D3,48.0,1.0,48,140.0
135,G4,49.0,0.25,56,140.0
136,C4,49.0,0.25,56,140.0
137,E3,49.0,0.25,46,140.0
138,A3,49.0,0.25,46,140.0
139,A4,49.5,0.25,52,140.0
140,C4,49.5,0.25,52,140.0
141,A3,49.5,0.25,44,140.0
142,F3,49.5,0.25,44,140.0
143,F4,50.0,0.375,61,140.0
144,C4,50.0,0.375,61,140.0
145,D3,50.0,0.375,52,140.0
146,A3,50.0,0.375,52,140.0
147,D4,51.0,0.375,44,140.0
148,B3,51.0,0.375,44,140.0
149,A3,51.0,0.375,38,140.0
150,F3,51.0,0.375,38,140.0
151,E4,52.0,2.0,38,140.0
152,B3,52.0,2.0,38,140.0
153,E3,52.0,2.0,38,140.0
154,G#3,52.0,2.0,38,140.0
155,A2,54.0,1.0,36,140.0
156,C4,55.0,1.0,26,140.0
157,E3,55.0,1.0,26,140.0
158,C4,56.0,1.0,26,140.0
159,E3,56.0,1.0,26,140.0
160,A2,57.0,1.0,36,140.0
161,E3,58.0,1.0,26,140.0
162,C4,58.0,1.0,26,140.0
163,E3,59.0,1.0,26,140.0
164,C4,59.0,1.0,26,140.0
165,E4,60.0,1.0,50,140.0
166,A2,60.0,1.0,36,140.0
167,F#4,61.0,0.25,48,140.0
168,E3,61.0,1.0,26,140.0
169,C4,61.0,1.0,26,140.0
170,G#4,61.5,0.125,46,140.0
171,A4,62.0,0.5,53,140.0
172,E3,62.0,1.0,26,140.0
173,C4,62.0,1.0,26,140.0
174,A4,63.0,1.0,54,140.0
175,A2,63.0,1.0,36,140.0
176,B4,64.0,0.25,58,140.0
177,E3,64.0,1.0,26,140.0
178,D4,64.0,1.0,26,140.0
179,G#4,64.5,0.125,53,140.0
180,F#4,65.0,0.5,48,140.0
181,E3,65.0,1.0,26,140.0
182,D4,65.0,1.0,26,140.0
183,A4,65.875,0.125,39,140.0
184,F#4,66.0,0.25,50,140.0
185,A2,66.0,1.0,36,140.0
186,E4,67.0,2.0,47,140.0
187,C4,67.0,1.0,24,140.0
188,E3,67.0,1.0,24,140.0
189,E3,68.0,1.0,24,140.0
190,C4,68.0,1.0,24,140.0
191,E4,69.0,1.0,47,140.0
192,A2,69.0,1.0,36,140.0
193,C4,70.0,1.0,23,140.0
194,E3,70.0,1.0,23,140.0
195,C4,71.0,1.0,24,140.0
196,E3,71.0,1.0,24,140.0
197,A2,72.0,1.0,36,140.0
198,E4,72.5,0.125,43,140.0
199,F#4,73.0,0.125,48,140.0
200,E3,73.0,1.0,26,140.0
201,C4,73.0,1.0,26,140.0
202,G#4,73.5,0.125,44,140.0
203,G#4,74.0,0.5,54,140.0
204,E3,74.0,1.0,26,140.0
205,C4,74.0,1.0,26,140.0
206,A4,74.5,0.5,50,140.0
207,A2,75.0,1.0,36,140.0
208,A4,75.5,0.125,52,140.0
209,B4,76.0,0.125,56,140.0
210,E3,76.0,1.0,26,140.0
211,D4,76.0,1.0,26,140.0
212,G#4,76.5,0.125,50,140.0
213,G#4,77.0,0.5,48,140.0
214,E3,77.0,1.0,26,140.0
215,D4,77.0,1.0,26,140.0
216,F#4,77.5,0.25,50,140.0
217,A4,77.875,0.125,39,140.0
218,F#4,78.0,0.25,50,140.0
219,A2,78.0,1.0,36,140.0
220,E4,79.0,2.0,47,140.0
221,E3,79.0,1.0,24,140.0
222,C4,79.0,1.0,24,140.0
223,C4,80.0,1.0,24,140.0
224,E3,80.0,1.0,24,140.0
225,E4,81.0,1.0,47,140.0
226,A2,81.0,1.0,36,140.0
227,C4,82.0,1.0,23,140.0
228,E3,82.0,1.0,23,140.0
229,C4,83.0,1.0,24,140.0
230,E3,83.0,1.0,24,140.0
231,G4,84.0,63/125,40,140.0
232,E5,84.0,63/125,40,140.0
233,C4,84.0,63/125,30,140.0
234,E4,84.0,63/125,30,140.0
235,G#4,85.0,63/125,44,140.0
236,E5,85.0,63/125,44,140.0
237,F4,85.0,63/125,33,140.0
238,C4,85.0,63/125,33,140.0
239,A4,86.0,63/125,48,140.0
240,E5,86.0,63/125,48,140.0
241,F#4,86.0,63/125,36,140.0
242,C4,86.0,63/125,36,140.0
243,E5,87.0,333/1000,54,140.0
244,B4,87.0,3.0,45,140.0
245,G3,87.0,3.0,40,140.0
246,G4,87.0,3.0,40,140.0
247,D4,87.0,3.0,40,140.0
248,D5,87.333,333/1000,44,140.0
249,C5,87.667,333/1000,44,140.0
250,D5,88.0,2.0,48,140.0
251,E4,90.0,63/125,40,140.0
252,C5,90.0,63/125,40,140.0
253,C4,90.0,63/125,30,140.0
254,A3,90.0,63/125,30,140.0
255,C5,91.0,63/125,44,140.0
256,F4,91.0,63/125,44,140.0
257,D4,91.0,63/125,33,140.0
258,A3,91.0,63/125,33,140.0
259,C5,92.0,63/125,48,140.0
260,F#4,92.0,63/125,48,140.0
261,E-4,92.0,63/125,36,140.0
262,A3,92.0,63/125,36,140.0
263,C5,93.0,333/1000,54,140.0
264,G4,93.0,3.0,45,140.0
265,E3,93.0,3.0,40,140.0
266,E4,93.0,3.0,40,140.0
267,B3,93.0,3.0,40,140.0
268,B4,93.333,333/1000,44,140.0
269,A4,93.667,333/1000,44,140.0
270,B4,94.0,2.0,48,140.0
271,F4,96.0,3.0,45,140.0
272,B4,96.0,333/1000,54,140.0
273,F3,96.0,3.0,42,140.0
274,C4,96.0,3.0,42,140.0
275,A4,96.333,333/1000,44,140.0
276,G4,96.667,333/1000,44,140.0
277,A4,97.0,2.0,48,140.0
278,F4,99.0,333/1000,59,140.0
279,G4,99.0,3.0,44,140.0
280,C4,99.0,3.0,44,140.0
281,G3,99.0,3.0,44,140.0
282,C3,99.0,3.0,44,140.0
283,E4,99.34,333/1000,48,140.0
284,D4,99.662,333/1000,48,140.0
285,E4,100.0,2.0,52,140.0
286,C4,102.0,1.0,56,140.0
287,F4,102.0,1.0,56,140.0
288,D3,102.0,1.0,48,140.0
289,A3,102.0,1.0,48,140.0
290,C4,103.0,0.25,56,140.0
291,G4,103.0,0.25,56,140.0
292,A3,103.0,0.25,46,140.0
293,E3,103.0,0.25,46,140.0
294,C4,103.5,0.25,52,140.0
295,A4,103.5,0.25,52,140.0
296,F3,103.5,0.25,44,140.0
297,A3,103.5,0.25,44,140.0
298,C4,104.0,0.375,61,140.0
299,F4,104.0,0.375,61,140.0
300,D3,104.0,0.375,52,140.0
301,A3,104.0,0.375,52,140.0
302,D4,105.0,0.375,44,140.0
303,B3,105.0,0.375,44,140.0
304,F3,105.0,0.375,38,140.0
305,A3,105.0,0.375,38,140.0
306,B3,106.0,2.0,38,140.0
307,E4,106.0,2.0,38,140.0
308,E3,106.0,2.0,38,140.0
309,G#3,106.0,2.0,38,140.0
310,A4,108.0,2.0,52,140.0
311,C#5,109.0,1.0,43,140.0
312,E5,109.0,1.0,43,140.0
313,B4,110.0,0.5,54,140.0
314,C#5,110.0,1.0,43,140.0
315,E5,110.0,1.0,43,140.0
316,G#4,110.5,0.375,50,140.0
317,A4,110.875,0.125,39,140.0
318,F#4,111.0,0.5,50,140.0
319,E4,111.5,0.25,50,140.0
320,E4,112.0,2.0,47,140.0
321,E5,112.0,1.0,42,140.0
322,G#4,112.0,1.0,42,140.0
323,D5,112.0,1.0,42,140.0
324,G#4,113.0,1.0,42,140.0
325,D5,113.0,1.0,42,140.0
326,E5,113.0,1.0,42,140.0
327,A4,114.0,1.0,52,140.0
328,B4,115.0,0.5,54,140.0
329,C#5,115.0,1.0,43,140.0
330,E5,115.0,1.0,43,140.0
331,C#5,115.5,0.5,54,140.0
332,A4,116.0,0.5,54,140.0
333,C#5,116.0,1.0,43,140.0
334,E5,116.0,1.0,43,140.0
335,F#4,116.5,0.375,50,140.0
336,G#4,116.875,0.125,39,140.0
337,F#4,117.0,0.5,50,140.0
338,E4,117.5,0.25,50,140.0
339,E4,118.0,2.0,47,140.0
340,D5,118.0,1.0,37,140.0
341,G#4,118.0,1.0,37,140.0
342,E5,118.0,1.0,37,140.0
343,G#4,119.0,1.0,37,140.0
344,D5,119.0,1.0,37,140.0
345,E5,119.0,1.0,37,140.0
346,A4,120.0,2.0,52,140.0
347,C#5,121.0,1.0,43,140.0
348,E5,121.0,1.0,43,140.0
349,E4,122.0,0.5,54,140.0
350,E5,122.0,1.0,43,140.0
351,C#5,122.0,1.0,43,140.0
352,F#4,122.5,0.5,50,140.0
353,F#4,123.0,0.5,54,140.0
354,G#4,123.5,0.5,50,140.0
355,G#4,124.0,2.0,52,140.0
356,C#5,124.0,1.0,43,140.0
357,E5,124.0,1.0,43,140.0
358,C#5,125.0,1.0,43,140.0
359,E5,125.0,1.0,43,140.0
360,G#4,126.0,0.5,54,140.0
361,B4,126.5,0.5,57,140.0
362,B4,127.0,0.5,61,140.0
363,C#5,127.0,1.0,44,140.0
364,E5,127.0,1.0,44,140.0
365,A4,127.5,0.5,54,140.0
366,E4,128.0,0.5,61,140.0
367,C#5,128.0,1.0,44,140.0
368,E5,128.0,1.0,44,140.0
369,F#4,128.5,0.5,56,140.0
370,F#4,129.0,0.5,57,140.0
371,G#4,129.5,0.5,45,140.0
372,G#4,130.0,2.0,51,140.0
373,E5,130.0,1.0,38,140.0
374,C#5,130.0,1.0,38,140.0
375,C#5,131.0,1.0,38,140.0
376,E5,131.0,1.0,38,140.0
377,A4,132.0,2.0,52,140.0
378,C#5,133.0,1.0,43,140.0
379,E5,133.0,1.0,43,140.0
380,B4,134.0,0.5,54,140.0
381,C#5,134.0,1.0,43,140.0
382,E5,134.0,1.0,43,140.0
383,G#4,134.5,0.375,50,140.0
384,A4,134.875,0.125,39,140.0
385,F#4,135.0,0.5,50,140.0
386,E4,135.5,0.25,50,140.0
387,E4,136.0,2.0,47,140.0
388,E5,136.0,1.0,42,140.0
389,G#4,136.0,1.0,42,140.0
390,D5,136.0,1.0,42,140.0
391,G#4,137.0,1.0,42,140.0
392,D5,137.0,1.0,42,140.0
393,E5,137.0,1.0,42,140.0
394,A4,138.0,1.0,52,140.0
395,B4,139.0,0.5,54,140.0
396,C#5,139.0,1.0,43,140.0
397,E5,139.0,1.0,43,140.0
398,C#5,139.5,0.5,54,140.0
399,A4,140.0,0.5,54,140.0
400,C#5,140.0,1.0,43,140.0
401,E5,140.0,1.0,43,140.0
402,F#4,140.5,0.375,50,140.0
403,G#4,140.875,0.125,39,140.0
404,F#4,141.0,0.5,50,140.0
405,E4,141.5,0.25,50,140.0
406,E4,142.0,2.0,47,140.0
407,D5,142.0,1.0,37,140.0
408,G#4,142.0,1.0,37,140.0
409,E5,142.0,1.0,37,140.0
410,G#4,143.0,1.0,37,140.0
411,D5,143.0,1.0,37,140.0
412,E5,143.0,1.0,37,140.0
413,A4,144.0,2.0,52,140.0
414,C#5,145.0,1.0,43,140.0
415,E5,145.0,1.0,43,140.0
416,E4,146.0,0.5,54,140.0
417,E5,146.0,1.0,43,140.0
418,C#5,146.0,1.0,43,140.0
419,F#4,146.5,0.5,50,140.0
420,F#4,147.0,0.5,59,140.0
421,G4,147.5,0.25,48,140.0
422,G4,148.0,2.0,57,140.0
423,C#5,148.0,1.0,46,140.0
424,E5,148.0,1.0,46,140.0
425,C#5,149.0,1.0,46,140.0
426,E5,149.0,1.0,46,140.0
427,G4,150.0,0.5,64,140.0
428,G#4,150.5,0.25,53,140.0
429,G#4,151.0,2.0,62,140.0
430,C#5,151.0,1.0,51,140.0
431,E5,151.0,1.0,51,140.0
432,C#5,152.0,1.0,51,140.0
433,E5,152.0,1.0,51,140.0
434,G#4,153.0,0.5,70,140.0
435,A4,153.5,0.25,60,140.0
436,A4,154.0,2.0,68,140.0
437,E5,154.0,1.0,56,140.0
438,C#5,154.0,1.0,56,140.0
439,C#5,155.0,1.0,56,140.0
440,E5,155.0,1.0,56,140.0
441,A2,156.0,1.0,32,140.0
442,E3,157.0,1.0,23,140.0
443,C4,157.0,1.0,23,140.0
444,C4,158.0,1.0,24,140.0
445,E3,158.0,1.0,24,140.0
446,A2,159.0,1.0,32,140.0
447,E3,160.0,1.0,23,140.0
448,C4,160.0,1.0,23,140.0
449,C4,161.0,1.0,24,140.0
450,E3,161.0,1.0,24,140.0
451,E4,162.0,1.0,45,140.0
452,A2,162.0,1.0,32,140.0
453,F#4,163.0,0.25,42,140.0
454,C4,163.0,1.0,24,140.0
455,E3,163.0,1.0,24,140.0
456,G#4,163.5,0.125,39,140.0
457,A4,164.0,0.5,47,140.0
458,E3,164.0,1.0,24,140.0
459,C4,164.0,1.0,24,140.0
460,A4,165.0,1.0,49,140.0
461,A2,165.0,1.0,32,140.0
462,B4,166.0,0.25,52,140.0
463,E3,166.0,1.0,23,140.0
464,D4,166.0,1.0,23,140.0
465,G#4,166.5,0.125,45,140.0
466,F#4,167.0,0.5,43,140.0
467,D4,167.0,1.0,24,140.0
468,E3,167.0,1.0,24,140.0
469,A4,167.875,0.125,35,140.0
470,F#4,168.0,0.25,45,140.0
471,A2,168.0,1.0,32,140.0
472,E4,169.0,2.0,42,140.0
473,E3,169.0,1.0,21,140.0
474,C4,169.0,1.0,21,140.0
475,C4,170.0,1.0,21,140.0
476,E3,170.0,1.0,21,140.0
477,E4,171.0,1.0,42,140.0
478,A2,171.0,1.0,32,140.0
479,E3,172.0,1.0,20,140.0
480,C4,172.0,1.0,20,140.0
481,C4,173.0,1.0,21,140.0
482,E3,173.0,1.0,21,140.0
483,A2,174.0,1.0,32,140.0
484,E4,174.5,0.125,38,140.0
485,F#4,175.0,0.125,43,140.0
486,C4,175.0,1.0,24,140.0
487,E3,175.0,1.0,24,140.0
488,G#4,175.5,0.125,39,140.0
489,G#4,176.0,0.5,45,140.0
490,E3,176.0,1.0,24,140.0
491,C4,176.0,1.0,24,140.0
492,A4,176.5,0.5,45,140.0
493,A2,177.0,1.0,32,140.0
494,A4,177.5,0.125,46,140.0
495,B4,178.0,0.125,51,140.0
496,D4,178.0,1.0,23,140.0
497,E3,178.0,1.0,23,140.0
498,G#4,178.5,0.125,45,140.0
499,G#4,179.0,0.5,43,140.0
500,D4,179.0,1.0,24,140.0
501,E3,179.0,1.0,24,140.0
502,F#4,179.5,0.25,45,140.0
503,A4,179.875,0.125,35,140.0
504,F#4,180.0,0.25,45,140.0
505,A2,180.0,1.0,32,140.0
506,E4,181.0,2.0,42,140.0
507,E3,181.0,1.0,21,140.0
508,C4,181.0,1.0,21,140.0
509,E3,182.0,1.0,21,140.0
510,C4,182.0,1.0,21,140.0
511,E4,183.0,1.0,42,140.0
512,A2,183.0,1.0,32,140.0
513,E3,184.0,1.0,20,140.0
514,C4,184.0,1.0,20,140.0
515,C4,185.0,1.0,21,140.0
516,E3,185.0,1.0,21,140.0
517,G4,186.0,63/125,40,140.0
518,E5,186.0,63/125,40,140.0
519,E4,186.0,63/125,30,140.0
520,C4,186.0,63/125,30,140.0
521,G#4,187.0,63/125,44,140.0
522,E5,187.0,63/125,44,140.0
523,F4,187.0,63/125,33,140.0
524,C4,187.0,63/125,33,140.0
525,E5,188.0,63/125,48,140.0
526,A4,188.0,63/125,48,140.0
527,C4,188.0,63/125,36,140.0
528,F#4,188.0,63/125,36,140.0
529,B4,189.0,3.0,45,140.0
530,E5,189.0,333/1000,54,140.0
531,D4,189.0,3.0,40,140.0
532,G4,189.0,3.0,40,140.0
533,G3,189.0,3.0,40,140.0
534,D5,189.333,333/1000,44,140.0
535,C5,189.667,333/1000,44,140.0
536,D5,190.0,2.0,48,140.0
537,C5,192.0,63/125,40,140.0
538,E4,192.0,63/125,40,140.0
539,A3,192.0,63/125,30,140.0
540,C4,192.0,63/125,30,140.0
541,C5,193.0,63/125,44,140.0
542,F4,193.0,63/125,44,140.0
543,A3,193.0,63/125,33,140.0
544,D4,193.0,63/125,33,140.0
545,C5,194.0,63/125,48,140.0
546,F#4,194.0,63/125,48,140.0
547,E-4,194.0,63/125,36,140.0
548,A3,194.0,63/125,36,140.0
549,G4,195.0,3.0,45,140.0
550,C5,195.0,333/1000,54,140.0
551,E3,195.0,3.0,40,140.0
552,E4,195.0,3.0,40,140.0
553,B3,195.0,3.0,40,140.0
554,B4,195.333,333/1000,44,140.0
555,A4,195.667,333/1000,44,140.0
556,B4,196.0,2.0,48,140.0
557,B4,198.0,333/1000,54,140.0
558,F4,198.0,3.0,45,140.0
559,F3,198.0,3.0,42,140.0
560,C4,198.0,3.0,42,140.0
561,A4,198.333,333/1000,44,140.0
562,G4,198.667,333/1000,44,140.0
563,A4,199.0,2.0,48,140.0
564,G4,201.0,3.0,49,140.0
565,F4,201.0,333/1000,59,140.0
566,G3,201.0,3.0,44,140.0
567,C4,201.0,3.0,44,140.0
568,C3,201.0,3.0,44,140.0
569,E4,201.34,333/1000,48,140.0
570,D4,201.662,333/1000,48,140.0
571,E4,202.0,2.0,52,140.0
572,C4,204.0,1.0,56,140.0
573,F4,204.0,1.0,56,140.0
574,A3,204.0,1.0,48,140.0
575,D3,204.0,1.0,48,140.0
576,C4,205.0,0.25,56,140.0
577,G4,205.0,0.25,56,140.0
578,A3,205.0,0.25,46,140.0
579,E3,205.0,0.25,46,140.0
580,C4,205.5,0.25,52,140.0
581,A4,205.5,0.25,52,140.0
582,A3,205.5,0.25,44,140.0
583,F3,205.5,0.25,44,140.0
584,C4,206.0,0.375,61,140.0
585,F4,206.0,0.375,61,140.0
586,D3,206.0,0.375,52,140.0
587,A3,206.0,0.375,52,140.0
588,B3,207.0,0.375,44,140.0
589,D4,207.0,0.375,44,140.0
590,A3,207.0,0.375,38,140.0
591,F3,207.0,0.375,38,140.0
592,E4,208.0,2.0,38,140.0
593,B3,208.0,2.0,38,140.0
594,G#3,208.0,2.0,38,140.0
595,E3,208.0,2.0,38,140.0
596,A4,210.0,2.0,46,140.0
597,C#4,210.0,3.0,36,140.0
598,E3,210.0,3.0,29,140.0
599,A2,210.0,3.0,29,140.0
600,B4,212.0,0.5,48,140.0
601,G#4,212.5,0.375,45,140.0
602,A4,212.875,0.125,35,140.0
603,D4,213.0,3.0,36,140.0
604,F#4,213.0,0.5,45,140.0
605,E4,213.5,0.25,45,140.0
606,E4,214.0,2.0,42,140.0
607,A4,216.0,1.0,46,140.0
608,C#4,216.0,3.0,36,140.0
609,E3,216.0,3.0,29,140.0
610,A2,216.0,3.0,29,140.0
611,B4,217.0,0.5,48,140.0
612,C#5,217.5,0.5,48,140.0
613,A4,218.0,0.5,48,140.0
614,F#4,218.5,0.375,45,140.0
615,G#4,218.875,0.125,35,140.0
616,D4,219.0,2.875,36,140.0
617,F#4,219.0,0.5,45,140.0
618,E3,219.0,3.0,29,140.0
619,A2,219.0,3.0,29,140.0
620,E4,219.5,0.25,45,140.0
621,E4,220.0,1.875,42,140.0
622,A4,221.875,0.125,35,140.0
623,C#4,222.0,3.0,36,140.0
624,F#4,222.0,0.25,45,140.0
625,E4,223.0,2.0,42,140.0
626,C#4,225.0,1.0,36,140.0
627,E4,225.0,1.0,42,140.0
628,E3,225.0,3.0,29,140.0
629,A2,225.0,3.0,29,140.0
630,A4,227.875,0.125,31,140.0
631,C4,228.0,3.0,32,140.0
632,F4,228.0,0.25,40,140.0
633,E3,228.0,3.0,29,140.0
634,A2,228.0,3.0,29,140.0
635,E4,229.0,2.0,37,140.0
636,C4,231.0,3.0,32,140.0
637,E4,231.0,3.0,37,140.0
638,E3,232.0,1.0,29,140.0
639,A2,232.0,1.0,29,140.0
640,E3,235.0,3.0,26,140.0
641,A2,235.0,3.0,26,140.0
642,E3,241.0,3.0,26,140.0
643,A2,241.0,3.0,26,140.0
644,A1,244.0,1.0,24,140.0
