,note_name,start_time,duration,velocity,tempo
0,C3,0.0,3.0,40,156.6
1,C4,0.0,1.5,96,156.6
2,B3,1.5,1.5,32,156.6
3,C5,2.0,0.5,40,156.6
4,D5,2.5,0.5,37,156.6
5,F4,3.0,1.5,34,156.6
6,E5,3.0,0.5,45,156.6
7,A3,3.0,1.5,33,156.6
8,C3,3.0,3.0,40,156.6
9,C5,3.5,0.5,38,156.6
10,E5,4.0,0.75,38,156.6
11,G4,4.5,1.5,34,156.6
12,B3,4.5,1.5,27,156.6
13,D5,4.75,0.125,34,156.6
14,E5,4.875,0.125,34,156.6
15,D5,5.0,0.5,43,156.6
16,B4,5.5,0.5,38,156.6
17,E4,6.0,1.5,34,156.6
18,D5,6.0,0.25,40,156.6
19,G3,6.0,1.5,31,156.6
20,C3,6.0,3.0,40,156.6
21,D5,7.0,1.0,49,156.6
22,F4,7.5,1.5,34,156.6
23,A3,7.5,1.5,29,156.6
24,C5,8.0,0.5,40,156.6
25,A4,8.5,0.5,37,156.6
26,D4,9.0,1.5,34,156.6
27,C5,9.0,0.5,45,156.6
28,F3,9.0,1.5,33,156.6
29,C3,9.0,3.0,40,156.6
30,A4,9.5,0.5,38,156.6
31,C5,10.0,0.5,38,156.6
32,B4,10.5,0.5,45,156.6
33,C4,10.5,1.5,34,156.6
34,E3,10.5,1.5,27,156.6
35,G4,11.0,0.5,43,156.6
36,B4,11.5,0.5,38,156.6
37,B3,12.0,1.5,34,156.6
38,A4,12.0,0.25,40,156.6
39,D3,12.0,1.5,31,156.6
40,C3,12.0,3.0,40,156.6
41,A4,13.0,1.0,46,156.6
42,C4,13.5,1.5,34,156.6
43,E3,13.5,1.5,27,156.6
44,G4,14.0,0.5,40,156.6
45,E4,14.5,0.5,37,156.6
46,B3,15.0,1.5,34,156.6
47,G4,15.0,0.5,45,156.6
48,G2,15.0,3.0,28,156.6
49,D3,15.0,1.5,33,156.6
50,D4,15.5,0.5,38,156.6
51,G4,16.0,0.75,38,156.6
52,A3,16.5,1.5,34,156.6
53,C3,16.5,1.5,27,156.6
54,E4,16.75,0.125,34,156.6
55,F#4,16.875,0.125,34,156.6
56,E4,17.0,0.5,43,156.6
57,D4,17.5,0.5,38,156.6
58,B3,18.0,1.5,30,156.6
59,G4,18.0,0.5,40,156.6
60,D3,18.0,1.5,29,156.6
61,G2,18.0,3.0,28,156.6
62,D4,18.5,0.5,33,156.6
63,G4,19.0,0.75,32,156.6
64,A3,19.5,1.5,28,156.6
65,C3,19.5,1.5,22,156.6
66,E4,19.75,0.125,27,156.6
67,F#4,19.875,0.125,27,156.6
68,E4,20.0,0.5,34,156.6
69,D4,20.5,0.5,29,156.6
70,B3,21.0,0.25,28,156.6
71,G4,21.0,0.25,28,156.6
72,G2,21.0,1.5,21,156.6
73,D3,21.0,1.5,21,156.6
74,B3,22.0,2.0,26,156.6
75,G4,22.0,2.0,26,156.6
76,G1,22.5,1.5,21,156.6
77,D2,22.5,1.5,21,156.6
78,C3,24.0,3.0,40,156.6
79,C4,24.0,1.5,96,156.6
80,B3,25.5,1.5,32,156.6
81,C5,26.0,0.5,40,156.6
82,D5,26.5,0.5,37,156.6
83,F4,27.0,1.5,34,156.6
84,E5,27.0,0.5,45,156.6
85,A3,27.0,1.5,33,156.6
86,C3,27.0,3.0,40,156.6
87,C5,27.5,0.5,38,156.6
88,E5,28.0,0.75,38,156.6
89,G4,28.5,1.5,34,156.6
90,B3,28.5,1.5,27,156.6
91,D5,28.75,0.125,34,156.6
92,E5,28.875,0.125,34,156.6
93,D5,29.0,0.5,43,156.6
94,B4,29.5,0.5,38,156.6
95,E4,30.0,1.5,34,156.6
96,D5,30.0,0.25,40,156.6
97,G3,30.0,1.5,31,156.6
98,C3,30.0,3.0,40,156.6
99,D5,31.0,1.0,49,156.6
100,F4,31.5,1.5,34,156.6
101,A3,31.5,1.5,29,156.6
102,C5,32.0,0.5,40,156.6
103,A4,32.5,0.5,37,156.6
104,D4,33.0,1.5,34,156.6
105,C5,33.0,0.5,45,156.6
106,F3,33.0,1.5,33,156.6
107,C3,33.0,3.0,40,156.6
108,A4,33.5,0.5,38,156.6
109,C5,34.0,0.5,38,156.6
110,B4,34.5,0.5,45,156.6
111,C4,34.5,1.5,34,156.6
112,E3,34.5,1.5,27,156.6
113,G4,35.0,0.5,43,156.6
114,B4,35.5,0.5,38,156.6
115,B3,36.0,1.5,34,156.6
116,A4,36.0,0.25,40,156.6
117,D3,36.0,1.5,31,156.6
118,C3,36.0,3.0,40,156.6
119,A4,37.0,1.0,46,156.6
120,C4,37.5,1.5,34,156.6
121,E3,37.5,1.5,27,156.6
122,G4,38.0,0.5,40,156.6
123,E4,38.5,0.5,37,156.6
124,B3,39.0,1.5,34,156.6
125,G4,39.0,0.5,45,156.6
126,G2,39.0,3.0,28,156.6
127,D3,39.0,1.5,33,156.6
128,D4,39.5,0.5,38,156.6
129,G4,40.0,0.75,38,156.6
130,A3,40.5,1.5,34,156.6
131,C3,40.5,1.5,27,156.6
132,E4,40.75,0.125,34,156.6
133,F#4,40.875,0.125,34,156.6
134,E4,41.0,0.5,43,156.6
135,D4,41.5,0.5,38,156.6
136,B3,42.0,1.5,30,156.6
137,G4,42.0,0.5,40,156.6
138,D3,42.0,1.5,29,156.6
139,G2,42.0,3.0,28,156.6
140,D4,42.5,0.5,33,156.6
141,G4,43.0,0.75,32,156.6
142,A3,43.5,1.5,28,156.6
143,C3,43.5,1.5,22,156.6
144,E4,43.75,0.125,27,156.6
145,F#4,43.875,0.125,27,156.6
146,E4,44.0,0.5,34,156.6
147,D4,44.5,0.5,29,156.6
148,B3,45.0,0.25,28,156.6
149,G4,45.0,0.25,28,156.6
150,G2,45.0,1.5,21,156.6
151,D3,45.0,1.5,21,156.6
152,B3,46.0,2.0,26,156.6
153,G4,46.0,2.0,26,156.6
154,G1,46.5,1.5,21,156.6
155,D2,46.5,1.5,21,156.6
156,B3,48.0,1.0,26,156.6
157,G4,48.0,1.0,26,156.6
158,G2,48.0,2.0,24,156.6
159,D3,48.0,2.0,24,156.6
160,B3,49.0,1.0,18,156.6
161,G4,49.0,1.0,18,156.6
162,D4,50.0,0.25,79,156.6
163,E4,50.5,0.25,73,156.6
164,F4,51.0,0.25,89,156.6
165,G#4,51.0,1.5,74,156.6
166,B4,51.0,1.5,74,156.6
167,D4,51.5,0.25,74,156.6
168,F4,52.0,0.75,74,156.6
169,A4,52.5,1.5,68,156.6
170,C5,52.5,1.5,68,156.6
171,E4,52.75,0.125,67,156.6
172,F4,52.875,0.125,67,156.6
173,E4,53.0,0.25,84,156.6
174,E-4,53.5,0.25,74,156.6
175,E4,54.0,1.5,74,156.6
176,G#4,54.0,0.25,74,156.6
177,B4,54.0,0.25,74,156.6
178,G#4,55.0,1.0,62,156.6
179,B4,55.0,1.0,62,156.6
180,B3,55.5,0.5,52,156.6
181,E3,55.5,0.5,52,156.6
182,B4,56.0,0.5,40,156.6
183,C#5,56.5,0.5,37,156.6
184,E4,57.0,1.5,34,156.6
185,E-5,57.0,0.5,45,156.6
186,B2,57.0,3.0,28,156.6
187,G#3,57.0,1.5,33,156.6
188,B4,57.5,0.5,38,156.6
189,E-5,58.0,0.75,38,156.6
190,E-4,58.5,1.5,34,156.6
191,A3,58.5,1.5,27,156.6
192,C#5,58.75,0.125,34,156.6
193,E-5,58.875,0.125,34,156.6
194,C#5,59.0,0.5,43,156.6
195,A4,59.5,0.5,38,156.6
196,E4,60.0,0.25,29,156.6
197,G#4,60.0,0.25,29,156.6
198,B4,60.0,0.25,29,156.6
199,E3,60.0,1.5,24,156.6
200,B3,60.0,1.5,24,156.6
201,E4,61.0,1.0,36,156.6
202,G#4,61.0,1.0,36,156.6
203,B4,61.0,1.0,36,156.6
204,E2,61.5,0.5,24,156.6
205,B2,61.5,0.5,24,156.6
206,F4,62.0,0.25,79,156.6
207,G4,62.5,0.25,73,156.6
208,G#4,63.0,0.25,89,156.6
209,B4,63.0,1.5,74,156.6
210,D5,63.0,1.5,74,156.6
211,F4,63.5,0.25,74,156.6
212,G#4,64.0,0.75,74,156.6
213,C5,64.5,1.5,68,156.6
214,E-5,64.5,1.5,68,156.6
215,G4,64.75,0.125,67,156.6
216,G#4,64.875,0.125,67,156.6
217,G4,65.0,0.25,84,156.6
218,F#4,65.5,0.25,74,156.6
219,G4,66.0,1.5,74,156.6
220,B4,66.0,0.25,74,156.6
221,D5,66.0,0.25,74,156.6
222,B4,67.0,1.0,62,156.6
223,D5,67.0,1.0,62,156.6
224,D4,67.5,0.5,52,156.6
225,G3,67.5,0.5,52,156.6
226,D5,68.0,0.5,40,156.6
227,E5,68.5,0.5,37,156.6
228,G4,69.0,1.5,34,156.6
229,F#5,69.0,0.5,45,156.6
230,D3,69.0,3.0,28,156.6
231,B3,69.0,1.5,33,156.6
232,D5,69.5,0.5,38,156.6
233,F#5,70.0,0.75,38,156.6
234,F#4,70.5,1.5,34,156.6
235,C4,70.5,1.5,27,156.6
236,E5,70.75,0.125,34,156.6
237,F#5,70.875,0.125,34,156.6
238,E5,71.0,0.5,43,156.6
239,C5,71.5,0.5,38,156.6
240,G4,72.0,0.25,29,156.6
241,B4,72.0,0.25,29,156.6
242,D5,72.0,0.25,29,156.6
243,G3,72.0,1.5,24,156.6
244,D4,72.0,1.5,24,156.6
245,G4,73.0,1.0,36,156.6
246,B4,73.0,1.0,36,156.6
247,D5,73.0,1.0,36,156.6
248,G2,73.5,1.0,24,156.6
249,D3,73.5,1.0,24,156.6
250,D5,74.0,0.25,43,156.6
251,E5,74.25,0.25,43,156.6
252,A4,74.5,0.5,33,156.6
253,C5,74.5,0.5,33,156.6
254,F#5,74.5,0.5,33,156.6
255,G4,75.029,0.25,29,156.6
256,B4,75.029,0.25,29,156.6
257,D5,75.029,0.25,29,156.6
258,G3,75.029,1.5,24,156.6
259,D4,75.029,1.5,24,156.6
260,G4,76.0,1.0,36,156.6
261,B4,76.0,1.0,36,156.6
262,D5,76.0,1.0,36,156.6
263,G2,76.529,1.0,24,156.6
264,D3,76.529,1.0,24,156.6
265,D5,77.0,0.25,43,156.6
266,E5,77.25,0.25,43,156.6
267,A4,77.5,0.5,33,156.6
268,C5,77.5,0.5,33,156.6
269,F5,77.5,0.5,33,156.6
270,G3,78.029,1.0,24,156.6
271,D4,78.029,1.0,24,156.6
272,D5,78.5,0.25,43,156.6
273,E5,78.75,0.25,43,156.6
274,A4,79.0,0.25,33,156.6
275,C5,79.0,0.25,33,156.6
276,F#5,79.0,0.25,33,156.6
277,G2,79.529,1.0,24,156.6
278,D3,79.529,1.0,24,156.6
279,D5,80.0,0.25,43,156.6
280,E5,80.25,0.25,43,156.6
281,A4,80.5,0.25,33,156.6
282,C5,80.5,0.25,33,156.6
283,F5,80.5,0.25,33,156.6
284,G3,81.029,1.0,24,156.6
285,D4,81.029,1.0,24,156.6
286,D5,81.5,0.25,43,156.6
287,E5,81.75,0.25,43,156.6
288,A4,82.0,0.25,33,156.6
289,C5,82.0,0.25,33,156.6
290,F#5,82.0,0.25,33,156.6
291,G2,82.529,1.0,24,156.6
292,D3,82.529,1.0,24,156.6
293,D5,83.0,0.25,43,156.6
294,E5,83.25,0.25,43,156.6
295,A4,83.5,0.25,33,156.6
296,C5,83.5,0.25,33,156.6
297,F5,83.5,0.25,33,156.6
298,G3,84.029,1.0,24,156.6
299,D4,84.029,1.0,24,156.6
300,F5,84.5,0.25,43,156.6
301,G5,84.75,0.25,43,156.6
302,C5,85.0,0.25,33,156.6
303,D5,85.0,0.25,33,156.6
304,A5,85.0,0.25,33,156.6
305,G2,85.529,1.0,24,156.6
306,D3,85.529,1.0,24,156.6
307,F5,86.0,0.25,43,156.6
308,G5,86.25,0.25,43,156.6
309,B4,86.5,0.25,33,156.6
310,D5,86.5,0.25,33,156.6
311,A5,86.5,0.25,33,156.6
312,G3,87.0,1.0,24,156.6
313,C3,87.0,1.0,24,156.6
314,E5,87.5,0.25,43,156.6
315,F5,87.75,0.25,43,156.6
316,B4,88.0,0.25,33,156.6
317,C5,88.0,0.25,33,156.6
318,G5,88.0,0.25,33,156.6
319,G2,88.5,1.0,24,156.6
320,C2,88.5,1.0,24,156.6
321,E5,89.0,0.25,43,156.6
322,F5,89.25,0.25,43,156.6
323,B4,89.5,0.25,32,156.6
324,C5,89.5,0.25,32,156.6
325,G5,89.5,0.25,32,156.6
326,C4,90.0,1.0,23,156.6
327,F3,90.0,1.0,23,156.6
328,E5,90.5,0.25,41,156.6
329,F5,90.75,0.25,41,156.6
330,A4,91.0,0.25,31,156.6
331,C5,91.0,0.25,31,156.6
332,G5,91.0,0.25,31,156.6
333,C3,91.5,1.0,22,156.6
334,F2,91.5,1.0,22,156.6
335,E5,92.0,0.25,39,156.6
336,F5,92.25,0.25,39,156.6
337,A4,92.5,0.25,29,156.6
338,C5,92.5,0.25,29,156.6
339,G5,92.5,0.25,29,156.6
340,F3,93.0,1.0,21,156.6
341,B2,93.0,1.0,21,156.6
342,D5,93.5,0.25,37,156.6
343,E5,93.75,0.25,37,156.6
344,A4,94.0,0.25,28,156.6
345,B4,94.0,0.25,28,156.6
346,F5,94.0,0.25,28,156.6
347,F2,94.5,1.0,20,156.6
348,B1,94.5,1.0,20,156.6
349,D5,95.0,0.25,36,156.6
350,E5,95.25,0.25,36,156.6
351,A4,95.5,0.25,26,156.6
352,B4,95.5,0.25,26,156.6
353,F5,95.5,0.25,26,156.6
354,B3,96.0,1.0,20,156.6
355,E3,96.0,1.0,20,156.6
356,D5,96.5,0.25,34,156.6
357,E5,96.75,0.25,34,156.6
358,G4,97.0,0.25,25,156.6
359,B4,97.0,0.25,25,156.6
360,F5,97.0,0.25,25,156.6
361,B2,97.5,1.0,18,156.6
362,E2,97.5,1.0,18,156.6
363,D5,98.0,0.25,32,156.6
364,E5,98.25,0.25,32,156.6
365,G4,98.5,0.25,24,156.6
366,B4,98.5,0.25,24,156.6
367,F5,98.5,0.25,24,156.6
368,E3,99.0,1.0,18,156.6
369,A2,99.0,1.0,18,156.6
370,C5,99.5,0.25,30,156.6
371,D5,99.75,0.25,30,156.6
372,G4,100.0,0.25,23,156.6
373,A4,100.0,0.25,23,156.6
374,E5,100.0,0.25,23,156.6
375,E2,100.5,1.0,16,156.6
376,A1,100.5,1.0,16,156.6
377,C5,101.0,0.25,29,156.6
378,D5,101.25,0.25,29,156.6
379,G4,101.5,0.25,22,156.6
380,A4,101.5,0.25,22,156.6
381,E5,101.5,0.25,22,156.6
382,A3,102.0,1.0,15,156.6
383,D3,102.0,1.0,15,156.6
384,C5,102.5,0.25,27,156.6
385,D5,102.75,0.25,27,156.6
386,F4,103.0,0.25,21,156.6
387,A4,103.0,0.25,21,156.6
388,E5,103.0,0.25,21,156.6
389,A2,103.5,1.0,15,156.6
390,D2,103.5,1.0,15,156.6
391,A3,105.0,1.0,15,156.6
392,D3,105.0,1.0,15,156.6
393,A2,106.5,1.0,15,156.6
394,D2,106.5,1.0,15,156.6
395,D3,108.0,1.0,15,156.6
396,G2,108.0,1.0,15,156.6
397,B4,108.5,0.25,27,156.6
398,C5,108.75,0.25,27,156.6
399,F4,109.0,0.25,21,156.6
400,A4,109.0,0.25,21,156.6
401,D5,109.0,0.25,21,156.6
402,D2,109.5,0.5,15,156.6
403,G1,109.5,0.5,15,156.6
404,D3,111.0,0.5,15,156.6
405,G2,111.0,0.5,15,156.6
406,D2,112.5,0.5,15,156.6
407,G1,112.5,0.5,15,156.6
408,D3,114.0,0.5,15,156.6
409,G2,114.0,0.5,15,156.6
410,D4,115.5,0.5,15,156.6
411,G3,115.5,0.5,15,156.6
412,G4,117.0,0.5,15,156.6
413,D5,117.0,0.5,15,156.6
414,D6,118.5,0.5,15,156.6
415,G5,118.5,0.5,15,156.6
416,C6,119.0,0.5,32,156.6
417,D6,119.5,0.5,29,156.6
418,E6,120.0,0.5,36,156.6
419,G5,120.0,0.25,26,156.6
420,C6,120.5,0.5,30,156.6
421,E6,121.0,0.75,30,156.6
422,G5,121.5,0.25,21,156.6
423,D6,121.75,0.125,27,156.6
424,E6,121.875,0.125,27,156.6
425,D6,122.0,0.5,34,156.6
426,C6,122.5,0.5,30,156.6
427,E6,123.0,0.25,32,156.6
428,G5,123.0,0.25,24,156.6
429,E6,124.0,1.0,39,156.6
430,G5,124.5,0.25,24,156.6
431,C6,125.0,0.5,32,156.6
432,D6,125.5,0.5,29,156.6
433,E6,126.0,0.5,36,156.6
434,G6,126.0,0.25,26,156.6
435,C6,126.5,0.5,30,156.6
436,E6,127.0,0.75,30,156.6
437,G6,127.5,0.25,21,156.6
438,D6,127.75,0.125,27,156.6
439,E6,127.875,0.125,27,156.6
440,D6,128.0,0.5,34,156.6
441,C6,128.5,0.5,30,156.6
442,E6,129.0,0.25,32,156.6
443,G6,129.0,0.25,24,156.6
444,E6,130.0,1.0,39,156.6
445,G6,130.5,0.25,24,156.6
446,C6,131.0,0.5,35,156.6
447,D6,131.5,0.5,31,156.6
448,E6,132.0,0.5,39,156.6
449,C7,132.0,0.5,25,156.6
450,A6,132.0,0.5,25,156.6
451,F6,132.0,0.5,25,156.6
452,C6,132.5,0.5,33,156.6
453,E6,133.0,0.75,33,156.6
454,F6,133.5,0.5,25,156.6
455,B6,133.5,0.5,25,156.6
456,G6,133.5,0.5,25,156.6
457,D6,133.75,0.125,29,156.6
458,E6,133.875,0.125,29,156.6
459,D6,134.0,0.5,37,156.6
460,B5,134.5,0.5,33,156.6
461,D6,135.0,0.25,35,156.6
462,B6,135.0,0.5,25,156.6
463,G6,135.0,0.5,25,156.6
464,E6,135.0,0.5,25,156.6
465,C6,136.0,1.0,42,156.6
466,A6,136.5,0.5,25,156.6
467,F6,136.5,0.5,25,156.6
468,E6,136.5,0.5,25,156.6
469,A5,137.0,0.5,35,156.6
470,B5,137.5,0.5,31,156.6
471,C6,138.0,0.5,39,156.6
472,A6,138.0,0.5,25,156.6
473,F6,138.0,0.5,25,156.6
474,D6,138.0,0.5,25,156.6
475,A5,138.5,0.5,33,156.6
476,C6,139.0,0.75,33,156.6
477,D6,139.5,0.5,25,156.6
478,G6,139.5,0.5,25,156.6
479,E6,139.5,0.5,25,156.6
480,B5,139.75,0.125,29,156.6
481,C6,139.875,0.125,29,156.6
482,B5,140.0,0.5,37,156.6
483,G5,140.5,0.5,33,156.6
484,B5,141.0,0.25,35,156.6
485,G6,141.0,0.5,25,156.6
486,E6,141.0,0.5,25,156.6
487,C6,141.0,0.5,25,156.6
488,A5,142.0,1.0,42,156.6
489,F6,142.5,0.5,25,156.6
490,D6,142.5,0.5,25,156.6
491,C6,142.5,0.5,25,156.6
492,F5,143.0,0.5,35,156.6
493,G5,143.5,0.5,31,156.6
494,A5,144.0,0.5,39,156.6
495,F6,144.0,0.5,25,156.6
496,D6,144.0,0.5,25,156.6
497,B5,144.0,0.5,25,156.6
498,F5,144.5,0.5,33,156.6
499,A5,145.0,0.75,33,156.6
500,B5,145.5,0.5,25,156.6
501,E6,145.5,0.5,25,156.6
502,C6,145.5,0.5,25,156.6
503,G5,145.75,0.125,29,156.6
504,A5,145.875,0.125,29,156.6
505,G5,146.0,0.5,37,156.6
506,E5,146.5,0.5,33,156.6
507,G5,147.0,0.5,39,156.6
508,E6,147.0,0.5,25,156.6
509,C6,147.0,0.5,25,156.6
510,A5,147.0,0.5,25,156.6
511,E5,147.5,0.5,33,156.6
512,G5,148.0,0.75,33,156.6
513,A5,148.5,0.5,25,156.6
514,D6,148.5,0.5,25,156.6
515,B5,148.5,0.5,25,156.6
516,F5,148.75,0.125,29,156.6
517,G5,148.875,0.125,29,156.6
518,F5,149.0,0.5,37,156.6
519,D5,149.5,0.5,33,156.6
520,F5,150.0,0.5,39,156.6
521,D6,150.0,0.5,25,156.6
522,B5,150.0,0.5,25,156.6
523,G5,150.0,0.5,25,156.6
524,D5,150.5,0.5,33,156.6
525,F5,151.0,0.75,33,156.6
526,G5,151.5,0.5,25,156.6
527,C6,151.5,0.5,25,156.6
528,A5,151.5,0.5,25,156.6
529,E5,151.75,0.125,29,156.6
530,F5,151.875,0.125,29,156.6
531,E5,152.0,0.5,37,156.6
532,C5,152.5,0.5,33,156.6
533,E5,153.0,0.25,35,156.6
534,C6,153.0,0.5,25,156.6
535,A5,153.0,0.5,25,156.6
536,F5,153.0,0.5,25,156.6
537,D5,154.0,1.0,42,156.6
538,F5,154.5,0.5,25,156.6
539,B5,154.5,0.5,25,156.6
540,G5,154.5,0.5,25,156.6
541,C5,155.0,0.5,37,156.6
542,D5,155.5,0.5,33,156.6
543,E5,156.0,0.5,41,156.6
544,C6,156.0,0.5,26,156.6
545,A5,156.0,0.5,26,156.6
546,F5,156.0,0.5,26,156.6
547,C5,156.5,0.5,34,156.6
548,E5,157.0,0.75,34,156.6
549,F5,157.5,0.5,27,156.6
550,B5,157.5,0.5,27,156.6
551,G5,157.5,0.5,27,156.6
552,D5,157.75,0.125,31,156.6
553,E5,157.875,0.125,31,156.6
554,D5,158.0,0.5,39,156.6
555,B4,158.5,0.5,34,156.6
556,D5,159.0,0.25,38,156.6
557,B5,159.0,0.5,27,156.6
558,G5,159.0,0.5,27,156.6
559,E5,159.0,0.5,27,156.6
560,C5,160.0,1.0,46,156.6
561,E5,160.5,0.5,28,156.6
562,A5,160.5,0.5,28,156.6
563,F5,160.5,0.5,28,156.6
564,A4,161.0,0.5,42,156.6
565,B4,161.5,0.5,37,156.6
566,C5,162.0,0.5,44,156.6
567,A5,162.0,0.5,28,156.6
568,F5,162.0,0.5,28,156.6
569,D5,162.0,0.5,28,156.6
570,A4,162.5,0.5,37,156.6
571,C5,163.0,0.75,37,156.6
572,D5,163.5,0.5,30,156.6
573,G5,163.5,0.5,30,156.6
574,E5,163.5,0.5,30,156.6
575,B4,163.75,0.125,34,156.6
576,C5,163.875,0.125,34,156.6
577,B4,164.0,0.5,43,156.6
578,G4,164.5,0.5,39,156.6
579,B4,165.0,0.25,41,156.6
580,G5,165.0,0.5,30,156.6
581,E5,165.0,0.5,30,156.6
582,C5,165.0,0.5,30,156.6
583,A4,166.0,1.0,51,156.6
584,C5,166.5,0.5,30,156.6
585,F5,166.5,0.5,30,156.6
586,D5,166.5,0.5,30,156.6
587,F4,167.0,0.5,45,156.6
588,G4,167.5,0.5,40,156.6
589,A4,168.0,0.5,49,156.6
590,F5,168.0,0.5,32,156.6
591,D5,168.0,0.5,32,156.6
592,B4,168.0,0.5,32,156.6
593,F4,168.5,0.5,40,156.6
594,A4,169.0,0.75,41,156.6
595,B4,169.5,0.5,32,156.6
596,E5,169.5,0.5,32,156.6
597,C5,169.5,0.5,32,156.6
598,G4,169.75,0.125,37,156.6
599,A4,169.875,0.125,37,156.6
600,G4,170.0,0.5,48,156.6
601,E4,170.5,0.5,42,156.6
602,G4,171.0,0.5,52,156.6
603,E5,171.0,0.5,33,156.6
604,C5,171.0,0.5,33,156.6
605,A4,171.0,0.5,33,156.6
606,E4,171.5,0.5,44,156.6
607,G4,172.0,0.75,44,156.6
608,A4,172.5,0.5,35,156.6
609,D5,172.5,0.5,35,156.6
610,B4,172.5,0.5,35,156.6
611,F4,172.75,0.125,41,156.6
612,G4,172.875,0.125,41,156.6
613,F4,173.0,0.5,53,156.6
614,D4,173.5,0.5,47,156.6
615,F4,174.0,0.5,58,156.6
616,E5,174.0,0.5,37,156.6
617,C5,174.0,0.5,37,156.6
618,A4,174.0,0.5,37,156.6
619,D4,174.5,0.5,50,156.6
620,F4,175.0,0.75,50,156.6
621,A4,175.5,0.5,39,156.6
622,D5,175.5,0.5,39,156.6
623,B4,175.5,0.5,39,156.6
624,E4,175.75,0.125,47,156.6
625,F4,175.875,0.125,47,156.6
626,E4,176.0,0.5,59,156.6
627,C4,176.5,0.5,54,156.6
628,E4,177.0,0.25,58,156.6
629,C5,177.0,0.5,42,156.6
630,A4,177.0,0.5,42,156.6
631,F4,177.0,0.5,42,156.6
632,D4,178.0,1.0,75,156.6
633,F4,178.5,0.5,45,156.6
634,B4,178.5,0.5,45,156.6
635,G4,178.5,0.5,45,156.6
636,C3,179.0,7/40,68,156.6
637,C4,179.0,7/40,68,156.6
638,D3,179.5,7/40,61,156.6
639,D4,179.5,7/40,61,156.6
640,C5,180.0,0.5,47,156.6
641,A4,180.0,0.5,47,156.6
642,F4,180.0,0.5,47,156.6
643,E3,180.0,7/40,73,156.6
644,E4,180.0,7/40,73,156.6
645,C3,180.5,7/40,61,156.6
646,C4,180.5,7/40,61,156.6
647,E3,181.0,1.0,61,156.6
648,E4,181.0,1.0,61,156.6
649,F4,181.5,0.5,47,156.6
650,B4,181.5,0.5,47,156.6
651,G4,181.5,0.5,47,156.6
652,D3,182.0,7/40,68,156.6
653,D4,182.0,7/40,68,156.6
654,B2,182.5,7/40,61,156.6
655,B3,182.5,7/40,61,156.6
656,B4,183.0,0.5,47,156.6
657,G4,183.0,0.5,47,156.6
658,E4,183.0,0.5,47,156.6
659,D3,183.0,0.25,64,156.6
660,D4,183.0,0.25,64,156.6
661,C3,184.0,1.0,78,156.6
662,C4,184.0,1.0,78,156.6
663,E4,184.5,0.5,47,156.6
664,A4,184.5,0.5,47,156.6
665,F4,184.5,0.5,47,156.6
666,A2,185.0,7/40,68,156.6
667,A3,185.0,7/40,68,156.6
668,B2,185.5,7/40,61,156.6
669,B3,185.5,7/40,61,156.6
670,A4,186.0,0.5,47,156.6
671,F4,186.0,0.5,47,156.6
672,D4,186.0,0.5,47,156.6
673,C3,186.0,7/40,73,156.6
674,C4,186.0,7/40,73,156.6
675,A2,186.5,7/40,61,156.6
676,A3,186.5,7/40,61,156.6
677,C3,187.0,1.0,61,156.6
678,C4,187.0,1.0,61,156.6
679,D4,187.5,0.5,47,156.6
680,G4,187.5,0.5,47,156.6
681,E4,187.5,0.5,47,156.6
682,B2,188.0,7/40,68,156.6
683,B3,188.0,7/40,68,156.6
684,G2,188.5,7/40,61,156.6
685,G3,188.5,7/40,61,156.6
686,G4,189.0,0.5,47,156.6
687,E4,189.0,0.5,47,156.6
688,C4,189.0,0.5,47,156.6
689,B2,189.0,0.25,64,156.6
690,B3,189.0,0.25,64,156.6
691,A2,190.0,1.0,76,156.6
692,A3,190.0,1.0,76,156.6
693,C4,190.5,0.5,47,156.6
694,F4,190.5,0.5,47,156.6
695,D4,190.5,0.5,47,156.6
696,F2,191.0,7/40,68,156.6
697,F3,191.0,7/40,68,156.6
698,G2,191.5,7/40,61,156.6
699,G3,191.5,7/40,61,156.6
700,F4,192.0,0.5,47,156.6
701,D4,192.0,0.5,47,156.6
702,B3,192.0,0.5,47,156.6
703,A2,192.0,7/40,73,156.6
704,A3,192.0,7/40,73,156.6
705,F2,192.5,7/40,61,156.6
706,F3,192.5,7/40,61,156.6
707,A2,193.0,1.0,61,156.6
708,A3,193.0,1.0,61,156.6
709,B3,193.5,0.5,47,156.6
710,E4,193.5,0.5,47,156.6
711,C4,193.5,0.5,47,156.6
712,G2,194.0,7/40,68,156.6
713,G3,194.0,7/40,68,156.6
714,E2,194.5,7/40,61,156.6
715,E3,194.5,7/40,61,156.6
716,E4,195.0,0.5,47,156.6
717,C4,195.0,0.5,47,156.6
718,A3,195.0,0.5,47,156.6
719,G2,195.0,7/40,73,156.6
720,G3,195.0,7/40,73,156.6
721,E2,195.5,7/40,61,156.6
722,E3,195.5,7/40,61,156.6
723,G2,196.0,1.0,61,156.6
724,G3,196.0,1.0,61,156.6
725,A3,196.5,0.5,47,156.6
726,D4,196.5,0.5,47,156.6
727,B3,196.5,0.5,47,156.6
728,F2,197.0,7/40,68,156.6
729,F3,197.0,7/40,68,156.6
730,D2,197.5,7/40,61,156.6
731,D3,197.5,7/40,61,156.6
732,D4,198.0,0.5,47,156.6
733,B3,198.0,0.5,47,156.6
734,G3,198.0,0.5,47,156.6
735,F2,198.0,7/40,73,156.6
736,F3,198.0,7/40,73,156.6
737,D2,198.5,7/40,61,156.6
738,D3,198.5,7/40,61,156.6
739,F2,199.0,1.0,61,156.6
740,F3,199.0,1.0,61,156.6
741,G3,199.5,0.5,47,156.6
742,C4,199.5,0.5,47,156.6
743,A3,199.5,0.5,47,156.6
744,E2,200.0,7/40,68,156.6
745,E3,200.0,7/40,68,156.6
746,C2,200.5,7/40,61,156.6
747,C3,200.5,7/40,61,156.6
748,E4,201.0,0.5,47,156.6
749,C4,201.0,0.5,47,156.6
750,A3,201.0,0.5,47,156.6
751,E2,201.0,0.25,64,156.6
752,E3,201.0,0.25,64,156.6
753,D2,202.0,1.0,78,156.6
754,D3,202.0,1.0,78,156.6
755,A3,202.5,0.5,47,156.6
756,D4,202.5,0.5,47,156.6
757,B3,202.5,0.5,47,156.6
758,C3,203.0,7/40,74,156.6
759,C4,203.0,7/40,74,156.6
760,C#3,203.5,7/40,66,156.6
761,C#4,203.5,7/40,66,156.6
762,C4,204.0,7/40,76,156.6
763,G#3,204.0,7/40,76,156.6
764,E-3,204.0,7/40,76,156.6
765,E-4,204.0,7/40,76,156.6
766,G#1,204.0,0.5,53,156.6
767,E-2,204.0,0.5,53,156.6
768,G#2,204.0,0.5,53,156.6
769,C3,204.5,7/40,73,156.6
770,C4,204.5,7/40,73,156.6
771,E-3,205.0,1.0,70,156.6
772,E-4,205.0,1.0,70,156.6
773,F3,205.5,0.5,61,156.6
774,G#3,205.5,0.5,61,156.6
775,F2,205.5,0.5,48,156.6
776,G#1,205.5,0.5,48,156.6
777,F1,205.5,0.5,48,156.6
778,C#3,206.0,7/40,74,156.6
779,C#4,206.0,7/40,74,156.6
780,C3,206.5,7/40,66,156.6
781,C4,206.5,7/40,66,156.6
782,C4,207.0,0.25,67,156.6
783,G#3,207.0,0.25,67,156.6
784,E-3,207.0,0.25,67,156.6
785,E-4,207.0,0.25,67,156.6
786,G#1,207.0,0.5,53,156.6
787,E-2,207.0,0.5,53,156.6
788,G#2,207.0,0.5,53,156.6
789,E-3,208.0,1.0,86,156.6
790,E-4,208.0,1.0,86,156.6
791,F3,208.5,0.5,61,156.6
792,G#3,208.5,0.5,61,156.6
793,F2,208.5,0.5,49,156.6
794,G#1,208.5,0.5,49,156.6
795,F1,208.5,0.5,49,156.6
796,C3,209.0,7/40,74,156.6
797,C4,209.0,7/40,74,156.6
798,C#3,209.5,7/40,66,156.6
799,C#4,209.5,7/40,66,156.6
800,C4,210.0,7/40,76,156.6
801,G#3,210.0,7/40,76,156.6
802,E-3,210.0,7/40,76,156.6
803,E-4,210.0,7/40,76,156.6
804,G#1,210.0,0.5,53,156.6
805,E-2,210.0,0.5,53,156.6
806,G#2,210.0,0.5,53,156.6
807,C3,210.5,7/40,73,156.6
808,C4,210.5,7/40,73,156.6
809,E-3,211.0,1.0,70,156.6
810,E-4,211.0,1.0,70,156.6
811,F3,211.5,0.5,61,156.6
812,G#3,211.5,0.5,61,156.6
813,F2,211.5,0.5,48,156.6
814,G#1,211.5,0.5,48,156.6
815,F1,211.5,0.5,48,156.6
816,C#3,212.0,7/40,74,156.6
817,C#4,212.0,7/40,74,156.6
818,C3,212.5,7/40,66,156.6
819,C4,212.5,7/40,66,156.6
820,C4,213.0,0.25,67,156.6
821,G#3,213.0,0.25,67,156.6
822,E-3,213.0,0.25,67,156.6
823,E-4,213.0,0.25,67,156.6
824,G#1,213.0,0.5,53,156.6
825,E-2,213.0,0.5,53,156.6
826,G#2,213.0,0.5,53,156.6
827,E-3,214.0,1.0,86,156.6
828,E-4,214.0,1.0,86,156.6
829,F3,214.5,0.5,61,156.6
830,G#3,214.5,0.5,61,156.6
831,F2,214.5,0.5,49,156.6
832,G#1,214.5,0.5,49,156.6
833,F1,214.5,0.5,49,156.6
834,C3,215.0,7/40,82,156.6
835,C4,215.0,7/40,82,156.6
836,D3,215.5,7/40,73,156.6
837,D4,215.5,7/40,73,156.6
838,C4,216.0,7/40,78,156.6
839,G3,216.0,7/40,78,156.6
840,E3,216.0,7/40,78,156.6
841,E4,216.0,7/40,78,156.6
842,C2,216.0,0.5,58,156.6
843,G2,216.0,0.5,58,156.6
844,C3,216.0,0.5,58,156.6
845,C3,216.5,7/40,80,156.6
846,C4,216.5,7/40,80,156.6
847,E3,217.0,1.0,76,156.6
848,E4,217.0,1.0,76,156.6
849,F3,217.5,0.5,67,156.6
850,A3,217.5,0.5,67,156.6
851,F2,217.5,0.5,52,156.6
852,C2,217.5,0.5,52,156.6
853,F1,217.5,0.5,52,156.6
854,D3,218.0,7/40,82,156.6
855,D4,218.0,7/40,82,156.6
856,C3,218.5,7/40,73,156.6
857,C4,218.5,7/40,73,156.6
858,C4,219.0,0.25,74,156.6
859,G3,219.0,0.25,74,156.6
860,E3,219.0,0.25,74,156.6
861,E4,219.0,0.25,74,156.6
862,C2,219.0,0.5,58,156.6
863,G2,219.0,0.5,58,156.6
864,C3,219.0,0.5,58,156.6
865,E3,220.0,1.0,90,156.6
866,E4,220.0,1.0,90,156.6
867,F3,220.5,0.5,67,156.6
868,A3,220.5,0.5,67,156.6
869,F2,220.5,0.5,53,156.6
870,C2,220.5,0.5,53,156.6
871,F1,220.5,0.5,53,156.6
872,C3,221.0,7/40,82,156.6
873,C4,221.0,7/40,82,156.6
874,D3,221.5,7/40,73,156.6
875,D4,221.5,7/40,73,156.6
876,C4,222.0,7/40,84,156.6
877,G3,222.0,7/40,84,156.6
878,E3,222.0,7/40,84,156.6
879,E4,222.0,7/40,84,156.6
880,C2,222.0,0.5,58,156.6
881,G2,222.0,0.5,58,156.6
882,C3,222.0,0.5,58,156.6
883,C3,222.5,7/40,80,156.6
884,C4,222.5,7/40,80,156.6
885,E3,223.0,1.0,76,156.6
886,E4,223.0,1.0,76,156.6
887,F3,223.5,0.5,67,156.6
888,A3,223.5,0.5,67,156.6
889,F2,223.5,0.5,52,156.6
890,C2,223.5,0.5,52,156.6
891,F1,223.5,0.5,52,156.6
892,D3,224.0,7/40,82,156.6
893,D4,224.0,7/40,82,156.6
894,C3,224.5,7/40,73,156.6
895,C4,224.5,7/40,73,156.6
896,C4,225.0,0.25,74,156.6
897,G3,225.0,0.25,74,156.6
898,E3,225.0,0.25,74,156.6
899,E4,225.0,0.25,74,156.6
900,C2,225.0,0.5,58,156.6
901,G2,225.0,0.5,58,156.6
902,C3,225.0,0.5,58,156.6
903,E3,226.0,1.0,90,156.6
904,E4,226.0,1.0,90,156.6
905,F3,226.5,0.5,67,156.6
906,A3,226.5,0.5,67,156.6
907,F2,226.5,0.5,53,156.6
908,C2,226.5,0.5,53,156.6
909,F1,226.5,0.5,53,156.6
910,C3,227.0,0.125,70,156.6
911,C4,227.0,0.125,70,156.6
912,D3,227.5,0.125,70,156.6
913,D4,227.5,0.125,70,156.6
914,C2,228.0,0.5,49,156.6
915,G2,228.0,0.5,49,156.6
916,C3,228.0,0.5,49,156.6
917,F2,229.5,0.5,45,156.6
918,C2,229.5,0.5,45,156.6
919,F1,229.5,0.5,45,156.6
920,C2,231.0,0.5,40,156.6
921,G2,231.0,0.5,40,156.6
922,C3,231.0,0.5,40,156.6
923,E3,232.0,1.0,58,156.6
924,F2,232.5,0.5,37,156.6
925,C2,232.5,0.5,37,156.6
926,F1,232.5,0.5,37,156.6
927,C3,233.0,7/40,62,156.6
928,D3,233.5,7/40,55,156.6
929,C2,234.0,0.5,29,156.6
930,G2,234.0,0.5,29,156.6
931,C3,234.0,0.5,29,156.6
932,F2,235.5,0.5,26,156.6
933,C2,235.5,0.5,26,156.6
934,F1,235.5,0.5,26,156.6
935,C2,237.0,3.0,40,156.6
936,C3,237.0,1.5,35,156.6
937,B2,238.5,1.5,32,156.6
938,C4,239.0,0.5,40,156.6
939,D4,239.5,0.5,37,156.6
940,F3,240.0,1.5,34,156.6
941,E4,240.0,0.5,45,156.6
942,A2,240.0,1.5,33,156.6
943,C2,240.0,3.0,40,156.6
944,C4,240.5,0.5,38,156.6
945,E4,241.0,0.75,38,156.6
946,G3,241.5,1.5,34,156.6
947,B2,241.5,1.5,27,156.6
948,D4,241.75,0.125,34,156.6
949,E4,241.875,0.125,34,156.6
950,D4,242.0,0.5,43,156.6
951,B3,242.5,0.5,42,156.6
952,C4,243.0,0.25,47,156.6
953,C2,243.0,3.0,40,156.6
954,C3,243.0,1.5,31,156.6
955,C4,244.0,0.875,49,156.6
956,B2,244.5,1.5,27,156.6
957,C4,245.0,0.5,40,156.6
958,D4,245.5,0.5,37,156.6
959,F3,246.0,1.5,34,156.6
960,E4,246.0,0.5,45,156.6
961,A2,246.0,1.5,33,156.6
962,C2,246.0,3.0,40,156.6
963,C4,246.5,0.5,38,156.6
964,E4,247.0,0.75,38,156.6
965,G3,247.5,1.5,34,156.6
966,B2,247.5,1.5,27,156.6
967,D4,247.75,0.125,34,156.6
968,E4,247.875,0.125,34,156.6
969,D4,248.0,0.5,43,156.6
970,B3,248.5,0.5,42,156.6
971,C4,249.0,0.25,47,156.6
972,C2,249.0,2.0,36,156.6
973,C3,249.0,2.0,36,156.6
974,C4,250.0,1.0,49,156.6
975,D4,251.0,0.25,79,156.6
976,E4,251.5,0.25,73,156.6
977,F4,252.0,0.25,89,156.6
978,G#4,252.0,1.5,74,156.6
979,B4,252.0,1.5,74,156.6
980,D4,252.5,0.25,74,156.6
981,F4,253.0,0.75,74,156.6
982,A4,253.5,1.5,68,156.6
983,C5,253.5,1.5,68,156.6
984,E4,253.75,0.125,67,156.6
985,F4,253.875,0.125,67,156.6
986,E4,254.0,0.25,84,156.6
987,E-4,254.5,0.25,74,156.6
988,E4,255.0,1.5,74,156.6
989,G#4,255.0,0.25,74,156.6
990,B4,255.0,0.25,74,156.6
991,G#4,256.0,1.0,62,156.6
992,B4,256.0,1.0,62,156.6
993,B3,256.5,0.5,52,156.6
994,E3,256.5,0.5,52,156.6
995,B4,257.0,0.5,40,156.6
996,C#5,257.5,0.5,37,156.6
997,E4,258.0,1.5,34,156.6
998,E-5,258.0,0.5,45,156.6
999,B2,258.0,3.0,28,156.6
1000,G#3,258.0,1.5,33,156.6
1001,B4,258.5,0.5,38,156.6
1002,E-5,259.0,0.75,38,156.6
1003,E-4,259.5,1.5,34,156.6
1004,A3,259.5,1.5,27,156.6
1005,C#5,259.75,0.125,34,156.6
1006,E-5,259.875,0.125,34,156.6
1007,C#5,260.0,0.5,43,156.6
1008,A4,260.5,0.5,38,156.6
1009,E4,261.0,0.25,29,156.6
1010,G#4,261.0,0.25,29,156.6
1011,B4,261.0,0.25,29,156.6
1012,E3,261.0,1.5,24,156.6
1013,B3,261.0,1.5,24,156.6
1014,E4,262.0,1.0,36,156.6
1015,G#4,262.0,1.0,36,156.6
1016,B4,262.0,1.0,36,156.6
1017,E2,262.5,0.5,24,156.6
1018,B2,262.5,0.5,24,156.6
1019,F4,263.0,0.25,79,156.6
1020,G4,263.5,0.25,73,156.6
1021,G#4,264.0,0.25,89,156.6
1022,B4,264.0,1.5,74,156.6
1023,D5,264.0,1.5,74,156.6
1024,F4,264.5,0.25,74,156.6
1025,G#4,265.0,0.75,74,156.6
1026,C5,265.5,1.5,68,156.6
1027,E-5,265.5,1.5,68,156.6
1028,G4,265.75,0.125,67,156.6
1029,G#4,265.875,0.125,67,156.6
1030,G4,266.0,0.25,84,156.6
1031,F#4,266.5,0.25,74,156.6
1032,G4,267.0,1.5,74,156.6
1033,B4,267.0,0.25,74,156.6
1034,D5,267.0,0.25,74,156.6
1035,B4,268.0,1.0,62,156.6
1036,D5,268.0,1.0,62,156.6
1037,D4,268.5,0.5,52,156.6
1038,G3,268.5,0.5,52,156.6
1039,D5,269.0,0.5,40,156.6
1040,E5,269.5,0.5,37,156.6
1041,G4,270.0,1.5,34,156.6
1042,F#5,270.0,0.5,45,156.6
1043,D3,270.0,3.0,28,156.6
1044,B3,270.0,1.5,33,156.6
1045,D5,270.5,0.5,38,156.6
1046,F#5,271.0,0.75,38,156.6
1047,F#4,271.5,1.5,34,156.6
1048,C4,271.5,1.5,27,156.6
1049,E5,271.75,0.125,34,156.6
1050,F#5,271.875,0.125,34,156.6
1051,E5,272.0,0.5,43,156.6
1052,C5,272.5,0.5,38,156.6
1053,G4,273.0,0.25,29,156.6
1054,B4,273.0,0.25,29,156.6
1055,D5,273.0,0.25,29,156.6
1056,G3,273.0,1.5,24,156.6
1057,D4,273.0,1.5,24,156.6
1058,G4,274.0,1.0,36,156.6
1059,B4,274.0,1.0,36,156.6
1060,D5,274.0,1.0,36,156.6
1061,G2,274.5,1.0,24,156.6
1062,D3,274.5,1.0,24,156.6
1063,D5,275.0,0.25,43,156.6
1064,E5,275.25,0.25,43,156.6
1065,A4,275.5,0.5,33,156.6
1066,C5,275.5,0.5,33,156.6
1067,F#5,275.5,0.5,33,156.6
1068,G4,276.029,0.25,29,156.6
1069,B4,276.029,0.25,29,156.6
1070,D5,276.029,0.25,29,156.6
1071,G3,276.029,1.5,24,156.6
1072,D4,276.029,1.5,24,156.6
1073,D5,277.0,1.0,36,156.6
1074,G4,277.0,1.0,36,156.6
1075,B4,277.0,1.0,36,156.6
1076,G2,277.529,1.0,24,156.6
1077,D3,277.529,1.0,24,156.6
1078,D5,278.0,0.25,43,156.6
1079,E5,278.25,0.25,43,156.6
1080,A4,278.5,0.5,33,156.6
1081,C5,278.5,0.5,33,156.6
1082,F5,278.5,0.5,33,156.6
1083,G3,279.029,1.0,24,156.6
1084,D4,279.029,1.0,24,156.6
1085,D5,279.5,0.25,43,156.6
1086,E5,279.75,0.25,43,156.6
1087,A4,280.0,0.25,33,156.6
1088,C5,280.0,0.25,33,156.6
1089,F#5,280.0,0.25,33,156.6
1090,G2,280.529,1.0,24,156.6
1091,D3,280.529,1.0,24,156.6
1092,D5,281.0,0.25,43,156.6
1093,E5,281.25,0.25,43,156.6
1094,A4,281.5,0.25,33,156.6
1095,C5,281.5,0.25,33,156.6
1096,F5,281.5,0.25,33,156.6
1097,G3,282.029,1.0,24,156.6
1098,D4,282.029,1.0,24,156.6
1099,D5,282.5,0.25,43,156.6
1100,E5,282.75,0.25,43,156.6
1101,A4,283.0,0.25,33,156.6
1102,C5,283.0,0.25,33,156.6
1103,F#5,283.0,0.25,33,156.6
1104,G2,283.529,1.0,24,156.6
1105,D3,283.529,1.0,24,156.6
1106,D5,284.0,0.25,43,156.6
1107,E5,284.25,0.25,43,156.6
1108,A4,284.5,0.25,33,156.6
1109,C5,284.5,0.25,33,156.6
1110,F5,284.5,0.25,33,156.6
1111,G3,285.029,1.0,24,156.6
1112,D4,285.029,1.0,24,156.6
1113,F5,285.5,0.25,43,156.6
1114,G5,285.75,0.25,43,156.6
1115,C5,286.0,0.25,33,156.6
1116,D5,286.0,0.25,33,156.6
1117,A5,286.0,0.25,33,156.6
1118,G2,286.529,1.0,24,156.6
1119,D3,286.529,1.0,24,156.6
1120,F5,287.0,0.25,43,156.6
1121,G5,287.25,0.25,43,156.6
1122,B4,287.5,0.25,33,156.6
1123,D5,287.5,0.25,33,156.6
1124,A5,287.5,0.25,33,156.6
1125,G3,288.0,1.0,24,156.6
1126,C3,288.0,1.0,24,156.6
1127,E5,288.5,0.25,43,156.6
1128,F5,288.75,0.25,43,156.6
1129,B4,289.0,0.25,33,156.6
1130,C5,289.0,0.25,33,156.6
1131,G5,289.0,0.25,33,156.6
1132,G2,289.5,1.0,24,156.6
1133,C2,289.5,1.0,24,156.6
1134,E5,290.0,0.25,43,156.6
1135,F5,290.25,0.25,43,156.6
1136,B4,290.5,0.25,32,156.6
1137,C5,290.5,0.25,32,156.6
1138,G5,290.5,0.25,32,156.6
1139,C4,291.0,1.0,23,156.6
1140,F3,291.0,1.0,23,156.6
1141,E5,291.5,0.25,41,156.6
1142,F5,291.75,0.25,41,156.6
1143,A4,292.0,0.25,31,156.6
1144,C5,292.0,0.25,31,156.6
1145,G5,292.0,0.25,31,156.6
1146,C3,292.5,1.0,22,156.6
1147,F2,292.5,1.0,22,156.6
1148,E5,293.0,0.25,39,156.6
1149,F5,293.25,0.25,39,156.6
1150,A4,293.5,0.25,29,156.6
1151,C5,293.5,0.25,29,156.6
1152,G5,293.5,0.25,29,156.6
1153,F3,294.0,1.0,21,156.6
1154,B2,294.0,1.0,21,156.6
1155,D5,294.5,0.25,37,156.6
1156,E5,294.75,0.25,37,156.6
1157,A4,295.0,0.25,28,156.6
1158,B4,295.0,0.25,28,156.6
1159,F5,295.0,0.25,28,156.6
1160,F2,295.5,1.0,20,156.6
1161,B1,295.5,1.0,20,156.6
1162,D5,296.0,0.25,36,156.6
1163,E5,296.25,0.25,36,156.6
1164,A4,296.5,0.25,26,156.6
1165,B4,296.5,0.25,26,156.6
1166,F5,296.5,0.25,26,156.6
1167,B3,297.0,1.0,20,156.6
1168,E3,297.0,1.0,20,156.6
1169,D5,297.5,0.25,34,156.6
1170,E5,297.75,0.25,34,156.6
1171,G4,298.0,0.25,25,156.6
1172,B4,298.0,0.25,25,156.6
1173,F5,298.0,0.25,25,156.6
1174,B2,298.5,1.0,18,156.6
1175,E2,298.5,1.0,18,156.6
1176,D5,299.0,0.25,32,156.6
1177,E5,299.25,0.25,32,156.6
1178,G4,299.5,0.25,24,156.6
1179,B4,299.5,0.25,24,156.6
1180,F5,299.5,0.25,24,156.6
1181,E3,300.0,1.0,18,156.6
1182,A2,300.0,1.0,18,156.6
1183,C5,300.5,0.25,30,156.6
1184,D5,300.75,0.25,30,156.6
1185,G4,301.0,0.25,23,156.6
1186,A4,301.0,0.25,23,156.6
1187,E5,301.0,0.25,23,156.6
1188,E2,301.5,1.0,16,156.6
1189,A1,301.5,1.0,16,156.6
1190,C5,302.0,0.25,29,156.6
1191,D5,302.25,0.25,29,156.6
1192,G4,302.5,0.25,22,156.6
1193,A4,302.5,0.25,22,156.6
1194,E5,302.5,0.25,22,156.6
1195,A3,303.0,1.0,15,156.6
1196,D3,303.0,1.0,15,156.6
1197,C5,303.5,0.25,27,156.6
1198,D5,303.75,0.25,27,156.6
1199,F4,304.0,0.25,21,156.6
1200,A4,304.0,0.25,21,156.6
1201,E5,304.0,0.25,21,156.6
1202,A2,304.5,1.0,15,156.6
1203,D2,304.5,1.0,15,156.6
1204,A3,306.0,1.0,15,156.6
1205,D3,306.0,1.0,15,156.6
1206,A2,307.5,1.0,15,156.6
1207,D2,307.5,1.0,15,156.6
1208,D3,309.0,1.0,15,156.6
1209,G2,309.0,1.0,15,156.6
1210,B4,309.5,0.25,27,156.6
1211,C5,309.75,0.25,27,156.6
1212,F4,310.0,0.25,21,156.6
1213,A4,310.0,0.25,21,156.6
1214,D5,310.0,0.25,21,156.6
1215,D2,310.5,0.5,15,156.6
1216,G1,310.5,0.5,15,156.6
1217,D3,312.0,0.5,15,156.6
1218,G2,312.0,0.5,15,156.6
1219,D2,313.5,0.5,15,156.6
1220,G1,313.5,0.5,15,156.6
1221,D3,315.0,0.5,15,156.6
1222,G2,315.0,0.5,15,156.6
1223,D4,316.5,0.5,15,156.6
1224,G3,316.5,0.5,15,156.6
1225,G4,318.0,0.5,15,156.6
1226,D5,318.0,0.5,15,156.6
1227,D6,319.5,0.5,15,156.6
1228,G5,319.5,0.5,15,156.6
1229,C6,320.0,0.5,32,156.6
1230,D6,320.5,0.5,29,156.6
1231,E6,321.0,0.5,36,156.6
1232,G5,321.0,0.25,26,156.6
1233,C6,321.5,0.5,30,156.6
1234,E6,322.0,0.75,30,156.6
1235,G5,322.5,0.25,21,156.6
1236,D6,322.75,0.125,27,156.6
1237,E6,322.875,0.125,27,156.6
1238,D6,323.0,0.5,34,156.6
1239,C6,323.5,0.5,30,156.6
1240,E6,324.0,0.25,32,156.6
1241,G5,324.0,0.25,24,156.6
1242,E6,325.0,1.0,39,156.6
1243,G5,325.5,0.25,24,156.6
1244,C6,326.0,0.5,32,156.6
1245,D6,326.5,0.5,29,156.6
1246,E6,327.0,0.5,36,156.6
1247,G6,327.0,0.25,26,156.6
1248,C6,327.5,0.5,30,156.6
1249,E6,328.0,0.75,30,156.6
1250,G6,328.5,0.25,21,156.6
1251,D6,328.75,0.125,27,156.6
1252,E6,328.875,0.125,27,156.6
1253,D6,329.0,0.5,34,156.6
1254,C6,329.5,0.5,30,156.6
1255,E6,330.0,0.25,32,156.6
1256,G6,330.0,0.25,24,156.6
1257,E6,331.0,1.0,39,156.6
1258,G6,331.5,0.25,24,156.6
1259,C6,332.0,0.5,35,156.6
1260,D6,332.5,0.5,31,156.6
1261,E6,333.0,0.5,39,156.6
1262,C7,333.0,0.5,25,156.6
1263,A6,333.0,0.5,25,156.6
1264,F6,333.0,0.5,25,156.6
1265,C6,333.5,0.5,33,156.6
1266,E6,334.0,0.75,33,156.6
1267,F6,334.5,0.5,25,156.6
1268,B6,334.5,0.5,25,156.6
1269,G6,334.5,0.5,25,156.6
1270,D6,334.75,0.125,29,156.6
1271,E6,334.875,0.125,29,156.6
1272,D6,335.0,0.5,37,156.6
1273,B5,335.5,0.5,33,156.6
1274,D6,336.0,0.25,35,156.6
1275,B6,336.0,0.5,25,156.6
1276,G6,336.0,0.5,25,156.6
1277,E6,336.0,0.5,25,156.6
1278,C6,337.0,1.0,42,156.6
1279,A6,337.5,0.5,25,156.6
1280,F6,337.5,0.5,25,156.6
1281,E6,337.5,0.5,25,156.6
1282,A5,338.0,0.5,35,156.6
1283,B5,338.5,0.5,31,156.6
1284,C6,339.0,0.5,39,156.6
1285,A6,339.0,0.5,25,156.6
1286,F6,339.0,0.5,25,156.6
1287,D6,339.0,0.5,25,156.6
1288,A5,339.5,0.5,33,156.6
1289,C6,340.0,0.75,33,156.6
1290,D6,340.5,0.5,25,156.6
1291,G6,340.5,0.5,25,156.6
1292,E6,340.5,0.5,25,156.6
1293,B5,340.75,0.125,29,156.6
1294,C6,340.875,0.125,29,156.6
1295,B5,341.0,0.5,37,156.6
1296,G5,341.5,0.5,33,156.6
1297,B5,342.0,0.25,35,156.6
1298,G6,342.0,0.5,25,156.6
1299,E6,342.0,0.5,25,156.6
1300,C6,342.0,0.5,25,156.6
1301,A5,343.0,1.0,42,156.6
1302,F6,343.5,0.5,25,156.6
1303,D6,343.5,0.5,25,156.6
1304,C6,343.5,0.5,25,156.6
1305,F5,344.0,0.5,35,156.6
1306,G5,344.5,0.5,31,156.6
1307,A5,345.0,0.5,39,156.6
1308,F6,345.0,0.5,25,156.6
1309,D6,345.0,0.5,25,156.6
1310,B5,345.0,0.5,25,156.6
1311,F5,345.5,0.5,33,156.6
1312,A5,346.0,0.75,33,156.6
1313,B5,346.5,0.5,25,156.6
1314,E6,346.5,0.5,25,156.6
1315,C6,346.5,0.5,25,156.6
1316,G5,346.75,0.125,29,156.6
1317,A5,346.875,0.125,29,156.6
1318,G5,347.0,0.5,37,156.6
1319,E5,347.5,0.5,33,156.6
1320,G5,348.0,0.5,39,156.6
1321,E6,348.0,0.5,25,156.6
1322,C6,348.0,0.5,25,156.6
1323,A5,348.0,0.5,25,156.6
1324,E5,348.5,0.5,33,156.6
1325,G5,349.0,0.75,33,156.6
1326,A5,349.5,0.5,25,156.6
1327,D6,349.5,0.5,25,156.6
1328,B5,349.5,0.5,25,156.6
1329,F5,349.75,0.125,29,156.6
1330,G5,349.875,0.125,29,156.6
1331,F5,350.0,0.5,37,156.6
1332,D5,350.5,0.5,33,156.6
1333,F5,351.0,0.5,39,156.6
1334,D6,351.0,0.5,25,156.6
1335,B5,351.0,0.5,25,156.6
1336,G5,351.0,0.5,25,156.6
1337,D5,351.5,0.5,33,156.6
1338,F5,352.0,0.75,33,156.6
1339,G5,352.5,0.5,25,156.6
1340,C6,352.5,0.5,25,156.6
1341,A5,352.5,0.5,25,156.6
1342,E5,352.75,0.125,29,156.6
1343,F5,352.875,0.125,29,156.6
1344,E5,353.0,0.5,37,156.6
1345,C5,353.5,0.5,33,156.6
1346,E5,354.0,0.25,35,156.6
1347,C6,354.0,0.5,25,156.6
1348,A5,354.0,0.5,25,156.6
1349,F5,354.0,0.5,25,156.6
1350,D5,355.0,1.0,42,156.6
1351,F5,355.5,0.5,25,156.6
1352,B5,355.5,0.5,25,156.6
1353,G5,355.5,0.5,25,156.6
1354,C5,356.0,0.5,37,156.6
1355,D5,356.5,0.5,33,156.6
1356,E5,357.0,0.5,41,156.6
1357,C6,357.0,0.5,26,156.6
1358,A5,357.0,0.5,26,156.6
1359,F5,357.0,0.5,26,156.6
1360,C5,357.5,0.5,34,156.6
1361,E5,358.0,0.75,34,156.6
1362,F5,358.5,0.5,27,156.6
1363,B5,358.5,0.5,27,156.6
1364,G5,358.5,0.5,27,156.6
1365,D5,358.75,0.125,31,156.6
1366,E5,358.875,0.125,31,156.6
1367,D5,359.0,0.5,39,156.6
1368,B4,359.5,0.5,34,156.6
1369,D5,360.0,0.25,38,156.6
1370,B5,360.0,0.5,27,156.6
1371,G5,360.0,0.5,27,156.6
1372,E5,360.0,0.5,27,156.6
1373,C5,361.0,1.0,46,156.6
1374,E5,361.5,0.5,28,156.6
1375,A5,361.5,0.5,28,156.6
1376,F5,361.5,0.5,28,156.6
1377,A4,362.0,0.5,42,156.6
1378,B4,362.5,0.5,37,156.6
1379,C5,363.0,0.5,44,156.6
1380,A5,363.0,0.5,28,156.6
1381,F5,363.0,0.5,28,156.6
1382,D5,363.0,0.5,28,156.6
1383,A4,363.5,0.5,37,156.6
1384,C5,364.0,0.75,37,156.6
1385,D5,364.5,0.5,30,156.6
1386,G5,364.5,0.5,30,156.6
1387,E5,364.5,0.5,30,156.6
1388,B4,364.75,0.125,34,156.6
1389,C5,364.875,0.125,34,156.6
1390,B4,365.0,0.5,43,156.6
1391,G4,365.5,0.5,39,156.6
1392,B4,366.0,0.25,41,156.6
1393,G5,366.0,0.5,30,156.6
1394,E5,366.0,0.5,30,156.6
1395,C5,366.0,0.5,30,156.6
1396,A4,367.0,1.0,51,156.6
1397,C5,367.5,0.5,30,156.6
1398,F5,367.5,0.5,30,156.6
1399,D5,367.5,0.5,30,156.6
1400,F4,368.0,0.5,45,156.6
1401,G4,368.5,0.5,40,156.6
1402,A4,369.0,0.5,49,156.6
1403,F5,369.0,0.5,32,156.6
1404,D5,369.0,0.5,32,156.6
1405,B4,369.0,0.5,32,156.6
1406,F4,369.5,0.5,40,156.6
1407,A4,370.0,0.75,41,156.6
1408,B4,370.5,0.5,32,156.6
1409,E5,370.5,0.5,32,156.6
1410,C5,370.5,0.5,32,156.6
1411,G4,370.75,0.125,37,156.6
1412,A4,370.875,0.125,37,156.6
1413,G4,371.0,0.5,48,156.6
1414,E4,371.5,0.5,42,156.6
1415,G4,372.0,0.5,52,156.6
1416,E5,372.0,0.5,33,156.6
1417,C5,372.0,0.5,33,156.6
1418,A4,372.0,0.5,33,156.6
1419,E4,372.5,0.5,44,156.6
1420,G4,373.0,0.75,44,156.6
1421,A4,373.5,0.5,35,156.6
1422,D5,373.5,0.5,35,156.6
1423,B4,373.5,0.5,35,156.6
1424,F4,373.75,0.125,41,156.6
1425,G4,373.875,0.125,41,156.6
1426,F4,374.0,0.5,53,156.6
1427,D4,374.5,0.5,47,156.6
1428,F4,375.0,0.5,58,156.6
1429,E5,375.0,0.5,37,156.6
1430,C5,375.0,0.5,37,156.6
1431,A4,375.0,0.5,37,156.6
1432,D4,375.5,0.5,50,156.6
1433,F4,376.0,0.75,50,156.6
1434,A4,376.5,0.5,39,156.6
1435,D5,376.5,0.5,39,156.6
1436,B4,376.5,0.5,39,156.6
1437,E4,376.75,0.125,47,156.6
1438,F4,376.875,0.125,47,156.6
1439,E4,377.0,0.5,59,156.6
1440,C4,377.5,0.5,54,156.6
1441,E4,378.0,0.25,58,156.6
1442,C5,378.0,0.5,42,156.6
1443,A4,378.0,0.5,42,156.6
1444,F4,378.0,0.5,42,156.6
1445,D4,379.0,1.0,75,156.6
1446,F4,379.5,0.5,45,156.6
1447,B4,379.5,0.5,45,156.6
1448,G4,379.5,0.5,45,156.6
1449,C3,380.0,7/40,68,156.6
1450,C4,380.0,7/40,68,156.6
1451,D3,380.5,7/40,61,156.6
1452,D4,380.5,7/40,61,156.6
1453,C5,381.0,0.5,47,156.6
1454,A4,381.0,0.5,47,156.6
1455,F4,381.0,0.5,47,156.6
1456,E3,381.0,7/40,73,156.6
1457,E4,381.0,7/40,73,156.6
1458,C3,381.5,7/40,61,156.6
1459,C4,381.5,7/40,61,156.6
1460,E3,382.0,1.0,61,156.6
1461,E4,382.0,1.0,61,156.6
1462,F4,382.5,0.5,47,156.6
1463,B4,382.5,0.5,47,156.6
1464,G4,382.5,0.5,47,156.6
1465,D3,383.0,7/40,68,156.6
1466,D4,383.0,7/40,68,156.6
1467,B2,383.5,7/40,61,156.6
1468,B3,383.5,7/40,61,156.6
1469,B4,384.0,0.5,47,156.6
1470,G4,384.0,0.5,47,156.6
1471,E4,384.0,0.5,47,156.6
1472,D3,384.0,0.25,64,156.6
1473,D4,384.0,0.25,64,156.6
1474,C3,385.0,1.0,78,156.6
1475,C4,385.0,1.0,78,156.6
1476,E4,385.5,0.5,47,156.6
1477,A4,385.5,0.5,47,156.6
1478,F4,385.5,0.5,47,156.6
1479,A2,386.0,7/40,68,156.6
1480,A3,386.0,7/40,68,156.6
1481,B2,386.5,7/40,61,156.6
1482,B3,386.5,7/40,61,156.6
1483,A4,387.0,0.5,47,156.6
1484,F4,387.0,0.5,47,156.6
1485,D4,387.0,0.5,47,156.6
1486,C3,387.0,7/40,73,156.6
1487,C4,387.0,7/40,73,156.6
1488,A2,387.5,7/40,61,156.6
1489,A3,387.5,7/40,61,156.6
1490,C3,388.0,1.0,61,156.6
1491,C4,388.0,1.0,61,156.6
1492,D4,388.5,0.5,47,156.6
1493,G4,388.5,0.5,47,156.6
1494,E4,388.5,0.5,47,156.6
1495,B2,389.0,7/40,68,156.6
1496,B3,389.0,7/40,68,156.6
1497,G2,389.5,7/40,61,156.6
1498,G3,389.5,7/40,61,156.6
1499,G4,390.0,0.5,47,156.6
1500,E4,390.0,0.5,47,156.6
1501,C4,390.0,0.5,47,156.6
1502,B2,390.0,0.25,64,156.6
1503,B3,390.0,0.25,64,156.6
1504,A2,391.0,1.0,76,156.6
1505,A3,391.0,1.0,76,156.6
1506,C4,391.5,0.5,47,156.6
1507,F4,391.5,0.5,47,156.6
1508,D4,391.5,0.5,47,156.6
1509,F2,392.0,7/40,68,156.6
1510,F3,392.0,7/40,68,156.6
1511,G2,392.5,7/40,61,156.6
1512,G3,392.5,7/40,61,156.6
1513,F4,393.0,0.5,47,156.6
1514,D4,393.0,0.5,47,156.6
1515,B3,393.0,0.5,47,156.6
1516,A2,393.0,7/40,73,156.6
1517,A3,393.0,7/40,73,156.6
1518,F2,393.5,7/40,61,156.6
1519,F3,393.5,7/40,61,156.6
1520,A2,394.0,1.0,61,156.6
1521,A3,394.0,1.0,61,156.6
1522,B3,394.5,0.5,47,156.6
1523,E4,394.5,0.5,47,156.6
1524,C4,394.5,0.5,47,156.6
1525,G2,395.0,7/40,68,156.6
1526,G3,395.0,7/40,68,156.6
1527,E2,395.5,7/40,61,156.6
1528,E3,395.5,7/40,61,156.6
1529,E4,396.0,0.5,47,156.6
1530,C4,396.0,0.5,47,156.6
1531,A3,396.0,0.5,47,156.6
1532,G2,396.0,7/40,73,156.6
1533,G3,396.0,7/40,73,156.6
1534,E2,396.5,7/40,61,156.6
1535,E3,396.5,7/40,61,156.6
1536,G2,397.0,1.0,61,156.6
1537,G3,397.0,1.0,61,156.6
1538,A3,397.5,0.5,47,156.6
1539,D4,397.5,0.5,47,156.6
1540,B3,397.5,0.5,47,156.6
1541,F2,398.0,7/40,68,156.6
1542,F3,398.0,7/40,68,156.6
1543,D2,398.5,7/40,61,156.6
1544,D3,398.5,7/40,61,156.6
1545,D4,399.0,0.5,47,156.6
1546,B3,399.0,0.5,47,156.6
1547,G3,399.0,0.5,47,156.6
1548,F2,399.0,7/40,73,156.6
1549,F3,399.0,7/40,73,156.6
1550,D2,399.5,7/40,61,156.6
1551,D3,399.5,7/40,61,156.6
1552,F2,400.0,1.0,61,156.6
1553,F3,400.0,1.0,61,156.6
1554,G3,400.5,0.5,47,156.6
1555,C4,400.5,0.5,47,156.6
1556,A3,400.5,0.5,47,156.6
1557,E2,401.0,7/40,68,156.6
1558,E3,401.0,7/40,68,156.6
1559,C2,401.5,7/40,61,156.6
1560,C3,401.5,7/40,61,156.6
1561,E4,402.0,0.5,47,156.6
1562,C4,402.0,0.5,47,156.6
1563,A3,402.0,0.5,47,156.6
1564,E2,402.0,0.25,64,156.6
1565,E3,402.0,0.25,64,156.6
1566,D2,403.0,1.0,78,156.6
1567,D3,403.0,1.0,78,156.6
1568,A3,403.5,0.5,47,156.6
1569,D4,403.5,0.5,47,156.6
1570,B3,403.5,0.5,47,156.6
1571,C3,404.0,7/40,74,156.6
1572,C4,404.0,7/40,74,156.6
1573,C#3,404.5,7/40,66,156.6
1574,C#4,404.5,7/40,66,156.6
1575,C4,405.0,7/40,76,156.6
1576,G#3,405.0,7/40,76,156.6
1577,E-3,405.0,7/40,76,156.6
1578,E-4,405.0,7/40,76,156.6
1579,G#1,405.0,0.5,53,156.6
1580,E-2,405.0,0.5,53,156.6
1581,G#2,405.0,0.5,53,156.6
1582,C3,405.5,7/40,73,156.6
1583,C4,405.5,7/40,73,156.6
1584,E-3,406.0,1.0,70,156.6
1585,E-4,406.0,1.0,70,156.6
1586,F3,406.5,0.5,61,156.6
1587,G#3,406.5,0.5,61,156.6
1588,F2,406.5,0.5,48,156.6
1589,G#1,406.5,0.5,48,156.6
1590,F1,406.5,0.5,48,156.6
1591,C#3,407.0,7/40,74,156.6
1592,C#4,407.0,7/40,74,156.6
1593,C3,407.5,7/40,66,156.6
1594,C4,407.5,7/40,66,156.6
1595,C4,408.0,0.25,67,156.6
1596,G#3,408.0,0.25,67,156.6
1597,E-3,408.0,0.25,67,156.6
1598,E-4,408.0,0.25,67,156.6
1599,G#1,408.0,0.5,53,156.6
1600,E-2,408.0,0.5,53,156.6
1601,G#2,408.0,0.5,53,156.6
1602,E-3,409.0,1.0,86,156.6
1603,E-4,409.0,1.0,86,156.6
1604,F3,409.5,0.5,61,156.6
1605,G#3,409.5,0.5,61,156.6
1606,F2,409.5,0.5,49,156.6
1607,G#1,409.5,0.5,49,156.6
1608,F1,409.5,0.5,49,156.6
1609,C3,410.0,7/40,74,156.6
1610,C4,410.0,7/40,74,156.6
1611,C#3,410.5,7/40,66,156.6
1612,C#4,410.5,7/40,66,156.6
1613,C4,411.0,7/40,76,156.6
1614,G#3,411.0,7/40,76,156.6
1615,E-3,411.0,7/40,76,156.6
1616,E-4,411.0,7/40,76,156.6
1617,G#1,411.0,0.5,53,156.6
1618,E-2,411.0,0.5,53,156.6
1619,G#2,411.0,0.5,53,156.6
1620,C3,411.5,7/40,73,156.6
1621,C4,411.5,7/40,73,156.6
1622,E-3,412.0,1.0,70,156.6
1623,E-4,412.0,1.0,70,156.6
1624,F3,412.5,0.5,61,156.6
1625,G#3,412.5,0.5,61,156.6
1626,F2,412.5,0.5,48,156.6
1627,G#1,412.5,0.5,48,156.6
1628,F1,412.5,0.5,48,156.6
1629,C#3,413.0,7/40,74,156.6
1630,C#4,413.0,7/40,74,156.6
1631,C3,413.5,7/40,66,156.6
1632,C4,413.5,7/40,66,156.6
1633,C4,414.0,0.25,67,156.6
1634,G#3,414.0,0.25,67,156.6
1635,E-3,414.0,0.25,67,156.6
1636,E-4,414.0,0.25,67,156.6
1637,G#1,414.0,0.5,53,156.6
1638,E-2,414.0,0.5,53,156.6
1639,G#2,414.0,0.5,53,156.6
1640,E-3,415.0,1.0,86,156.6
1641,E-4,415.0,1.0,86,156.6
1642,F3,415.5,0.5,61,156.6
1643,G#3,415.5,0.5,61,156.6
1644,F2,415.5,0.5,49,156.6
1645,G#1,415.5,0.5,49,156.6
1646,F1,415.5,0.5,49,156.6
1647,C3,416.0,7/40,82,156.6
1648,C4,416.0,7/40,82,156.6
1649,D3,416.5,7/40,73,156.6
1650,D4,416.5,7/40,73,156.6
1651,C4,417.0,7/40,78,156.6
1652,G3,417.0,7/40,78,156.6
1653,E3,417.0,7/40,78,156.6
1654,E4,417.0,7/40,78,156.6
1655,C2,417.0,0.5,58,156.6
1656,G2,417.0,0.5,58,156.6
1657,C3,417.0,0.5,58,156.6
1658,C3,417.5,7/40,80,156.6
1659,C4,417.5,7/40,80,156.6
1660,E3,418.0,1.0,76,156.6
1661,E4,418.0,1.0,76,156.6
1662,F3,418.5,0.5,67,156.6
1663,A3,418.5,0.5,67,156.6
1664,F2,418.5,0.5,52,156.6
1665,C2,418.5,0.5,52,156.6
1666,F1,418.5,0.5,52,156.6
1667,D3,419.0,7/40,82,156.6
1668,D4,419.0,7/40,82,156.6
1669,C3,419.5,7/40,73,156.6
1670,C4,419.5,7/40,73,156.6
1671,C4,420.0,0.25,74,156.6
1672,G3,420.0,0.25,74,156.6
1673,E3,420.0,0.25,74,156.6
1674,E4,420.0,0.25,74,156.6
1675,C2,420.0,0.5,58,156.6
1676,G2,420.0,0.5,58,156.6
1677,C3,420.0,0.5,58,156.6
1678,E3,421.0,1.0,90,156.6
1679,E4,421.0,1.0,90,156.6
1680,F3,421.5,0.5,67,156.6
1681,A3,421.5,0.5,67,156.6
1682,F2,421.5,0.5,53,156.6
1683,C2,421.5,0.5,53,156.6
1684,F1,421.5,0.5,53,156.6
1685,C3,422.0,7/40,82,156.6
1686,C4,422.0,7/40,82,156.6
1687,D3,422.5,7/40,73,156.6
1688,D4,422.5,7/40,73,156.6
1689,C4,423.0,7/40,84,156.6
1690,G3,423.0,7/40,84,156.6
1691,E3,423.0,7/40,84,156.6
1692,E4,423.0,7/40,84,156.6
1693,C2,423.0,0.5,58,156.6
1694,G2,423.0,0.5,58,156.6
1695,C3,423.0,0.5,58,156.6
1696,C3,423.5,7/40,80,156.6
1697,C4,423.5,7/40,80,156.6
1698,E3,424.0,1.0,76,156.6
1699,E4,424.0,1.0,76,156.6
1700,F3,424.5,0.5,67,156.6
1701,A3,424.5,0.5,67,156.6
1702,F2,424.5,0.5,52,156.6
1703,C2,424.5,0.5,52,156.6
1704,F1,424.5,0.5,52,156.6
1705,D3,425.0,7/40,82,156.6
1706,D4,425.0,7/40,82,156.6
1707,C3,425.5,7/40,73,156.6
1708,C4,425.5,7/40,73,156.6
1709,C4,426.0,0.25,74,156.6
1710,G3,426.0,0.25,74,156.6
1711,E3,426.0,0.25,74,156.6
1712,E4,426.0,0.25,74,156.6
1713,C2,426.0,0.5,58,156.6
1714,G2,426.0,0.5,58,156.6
1715,C3,426.0,0.5,58,156.6
1716,E3,427.0,1.0,90,156.6
1717,E4,427.0,1.0,90,156.6
1718,F3,427.5,0.5,67,156.6
1719,A3,427.5,0.5,67,156.6
1720,F2,427.5,0.5,53,156.6
1721,C2,427.5,0.5,53,156.6
1722,F1,427.5,0.5,53,156.6
1723,C3,428.0,0.125,70,156.6
1724,C4,428.0,0.125,70,156.6
1725,D3,428.5,0.125,70,156.6
1726,D4,428.5,0.125,70,156.6
1727,C2,429.0,0.5,49,156.6
1728,G2,429.0,0.5,49,156.6
1729,C3,429.0,0.5,49,156.6
1730,F2,430.5,0.5,45,156.6
1731,C2,430.5,0.5,45,156.6
1732,F1,430.5,0.5,45,156.6
1733,C2,432.0,0.5,40,156.6
1734,G2,432.0,0.5,40,156.6
1735,C3,432.0,0.5,40,156.6
1736,E3,433.0,1.0,58,156.6
1737,F2,433.5,0.5,37,156.6
1738,C2,433.5,0.5,37,156.6
1739,F1,433.5,0.5,37,156.6
1740,C3,434.0,7/40,62,156.6
1741,D3,434.5,7/40,55,156.6
1742,C2,435.0,0.5,29,156.6
1743,G2,435.0,0.5,29,156.6
1744,C3,435.0,0.5,29,156.6
1745,F2,436.5,0.5,26,156.6
1746,C2,436.5,0.5,26,156.6
1747,F1,436.5,0.5,26,156.6
1748,C2,438.0,3.0,40,156.6
1749,C3,438.0,1.5,35,156.6
1750,B2,439.5,1.5,32,156.6
1751,C4,440.0,0.5,40,156.6
1752,D4,440.5,0.5,37,156.6
1753,F3,441.0,1.5,34,156.6
1754,E4,441.0,0.5,45,156.6
1755,A2,441.0,1.5,33,156.6
1756,C2,441.0,3.0,40,156.6
1757,C4,441.5,0.5,38,156.6
1758,E4,442.0,0.75,38,156.6
1759,G3,442.5,1.5,34,156.6
1760,B2,442.5,1.5,27,156.6
1761,D4,442.75,0.125,34,156.6
1762,E4,442.875,0.125,34,156.6
1763,D4,443.0,0.5,43,156.6
1764,B3,443.5,0.5,42,156.6
1765,C4,444.0,0.25,47,156.6
1766,C2,444.0,3.0,40,156.6
1767,C3,444.0,1.5,31,156.6
1768,C4,445.0,0.875,49,156.6
1769,B2,445.5,1.5,27,156.6
1770,C4,446.0,0.5,40,156.6
1771,D4,446.5,0.5,37,156.6
1772,F3,447.0,1.5,34,156.6
1773,E4,447.0,0.5,45,156.6
1774,A2,447.0,1.5,33,156.6
1775,C2,447.0,3.0,40,156.6
1776,C4,447.5,0.5,38,156.6
1777,E4,448.0,0.75,38,156.6
1778,G3,448.5,1.5,34,156.6
1779,B2,448.5,1.5,27,156.6
1780,D4,448.75,0.125,34,156.6
1781,E4,448.875,0.125,34,156.6
1782,D4,449.0,0.5,43,156.6
1783,B3,449.5,0.5,42,156.6
1784,C4,450.0,0.25,47,156.6
1785,C2,450.0,1.5,36,156.6
1786,C3,450.0,1.5,36,156.6
1787,C4,451.0,1.0,49,156.6
1788,A4,451.5,1.5,30,156.6
1789,C5,451.5,1.5,30,156.6
1790,F5,451.5,1.5,30,156.6
1791,D4,452.0,0.5,43,156.6
1792,E4,452.5,0.5,42,156.6
1793,C4,453.0,0.25,47,156.6
1794,G4,453.0,1.5,34,156.6
1795,C5,453.0,1.5,34,156.6
1796,E5,453.0,1.5,34,156.6
1797,C4,454.0,1.0,49,156.6
1798,F4,454.5,1.5,30,156.6
1799,C5,454.5,1.5,30,156.6
1800,D5,454.5,1.5,30,156.6
1801,B3,455.0,0.5,43,156.6
1802,G3,455.5,0.5,42,156.6
1803,C4,456.0,0.25,47,156.6
1804,E4,456.0,1.5,36,156.6
1805,C5,456.0,1.5,36,156.6
1806,C4,457.0,1.0,41,156.6
1807,F3,457.5,1.5,34,156.6
1808,C2,457.5,1.5,22,156.6
1809,A2,457.5,1.5,30,156.6
1810,D4,458.0,0.5,36,156.6
1811,E4,458.5,0.5,35,156.6
1812,E3,459.0,1.5,34,156.6
1813,C4,459.0,0.25,39,156.6
1814,G2,459.0,1.5,34,156.6
1815,C2,459.0,3.0,22,156.6
1816,C4,460.0,1.0,34,156.6
1817,D3,460.5,1.5,28,156.6
1818,F2,460.5,1.5,25,156.6
1819,B3,461.0,0.5,30,156.6
1820,G3,461.5,0.5,29,156.6
1821,G2,462.0,1.5,28,156.6
1822,C2,462.0,1.5,22,156.6
1823,E3,462.0,0.25,30,156.6
1824,C4,462.0,0.25,30,156.6
1825,E3,463.0,2.0,30,156.6
1826,C4,463.0,2.0,30,156.6
1827,C2,463.5,1.5,22,156.6
1828,G2,463.5,1.5,22,156.6
1829,C5,465.0,0.25,26,156.6
1830,E4,465.0,0.25,26,156.6
1831,C2,465.0,1.5,22,156.6
1832,G2,465.0,1.5,22,156.6
1833,C5,466.0,2.0,26,156.6
1834,E4,466.0,2.0,26,156.6
1835,C3,466.5,1.5,18,156.6
1836,G3,466.5,1.5,18,156.6
1837,E5,468.0,0.25,21,156.6
1838,C6,468.0,0.25,21,156.6
1839,C3,468.0,1.5,18,156.6
1840,G3,468.0,1.5,18,156.6
1841,E5,469.0,2.0,21,156.6
1842,C6,469.0,2.0,21,156.6
1843,C4,469.5,1.5,15,156.6
1844,G4,469.5,1.5,15,156.6
1845,E5,471.0,3.0,21,156.6
1846,C6,471.0,3.0,21,156.6
1847,C4,471.0,3.0,15,156.6
1848,G4,471.0,3.0,15,156.6
1849,C4,474.0,1.0,15,156.6
1850,G4,474.0,1.0,15,156.6
1851,E5,475.0,1.0,21,156.6
1852,C6,475.0,1.0,21,156.6
