,note_name,start_time,duration,velocity,tempo
0,G4,2.5,0.5,46,95.0
1,B3,2.5,0.5,38,95.0
2,G3,2.5,0.5,38,95.0
3,G4,3.0,0.875,49,95.0
4,G3,3.0,1.0,40,95.0
5,B3,3.0,1.0,40,95.0
6,B4,3.875,0.125,47,95.0
7,A4,4.0,0.5,47,95.0
8,G3,4.0,0.5,38,95.0
9,C4,4.0,0.5,38,95.0
10,D4,4.5,0.5,49,95.0
11,G3,4.5,1.0,40,95.0
12,C4,4.5,1.0,40,95.0
13,E4,5.0,0.5,45,95.0
14,F#4,5.5,0.25,45,95.0
15,G3,5.5,0.5,38,95.0
16,C4,5.5,0.5,38,95.0
17,G4,5.75,0.062,45,95.0
18,F#4,5.812,0.062,45,95.0
19,E4,5.875,0.062,45,95.0
20,F#4,5.938,0.062,45,95.0
21,G4,6.0,0.188,46,95.0
22,G3,6.0,0.188,37,95.0
23,B3,6.0,0.188,37,95.0
24,G4,6.5,0.188,45,95.0
25,G3,6.5,0.188,36,95.0
26,B3,6.5,0.188,36,95.0
27,G4,7.0,0.188,45,95.0
28,G3,7.0,0.188,36,95.0
29,B3,7.0,0.188,36,95.0
30,G4,7.5,1.0,45,95.0
31,G3,7.5,1.0,36,95.0
32,B3,7.5,1.0,36,95.0
33,D4,8.5,0.5,45,95.0
34,A4,8.5,0.375,45,95.0
35,F#3,8.5,0.375,36,95.0
36,C5,8.875,0.125,45,95.0
37,A3,8.875,0.125,36,95.0
38,D4,9.0,1.5,41,95.0
39,B4,9.0,0.5,49,95.0
40,G3,9.0,0.5,39,95.0
41,A4,9.5,0.5,45,95.0
42,F#3,9.5,0.5,36,95.0
43,B4,10.0,0.5,45,95.0
44,G3,10.0,0.5,36,95.0
45,F#4,10.5,1.0,44,95.0
46,D4,10.5,1.5,36,95.0
47,D5,10.5,0.5,49,95.0
48,A3,10.5,1.0,38,95.0
49,C5,11.0,0.5,45,95.0
50,G3,11.5,0.5,36,95.0
51,G4,11.5,0.5,45,95.0
52,B4,11.5,0.5,45,95.0
53,D3,12.0,0.5,38,95.0
54,G4,12.0,0.5,47,95.0
55,B4,12.0,0.5,47,95.0
56,D4,12.5,0.5,36,95.0
57,F#4,12.5,0.5,45,95.0
58,A4,12.5,0.5,45,95.0
59,D4,13.0,0.5,36,95.0
60,F#4,13.0,0.5,45,95.0
61,A4,13.0,0.5,45,95.0
62,D4,13.5,0.5,36,95.0
63,F#4,13.5,1.0,45,95.0
64,A4,13.5,1.0,45,95.0
65,C4,14.0,0.5,36,95.0
66,B3,14.5,0.5,37,95.0
67,G#4,14.5,0.5,46,95.0
68,B4,14.5,0.5,46,95.0
69,A3,15.0,1.0,40,95.0
70,A4,15.0,0.5,49,95.0
71,C5,15.0,0.5,49,95.0
72,B4,15.5,0.5,51,95.0
73,D5,15.5,0.5,51,95.0
74,G3,16.0,0.5,39,95.0
75,C5,16.0,0.5,51,95.0
76,E5,16.0,0.5,51,95.0
77,F#3,16.5,0.5,40,95.0
78,C5,16.5,1.0,51,95.0
79,E5,16.5,1.0,51,95.0
80,A3,17.0,0.5,39,95.0
81,C5,17.5,167/1000,52,95.0
82,A4,17.5,0.5,52,95.0
83,D4,17.5,0.5,39,95.0
84,B4,17.667,167/1000,42,95.0
85,C5,17.833,167/1000,44,95.0
86,G3,18.0,3.0,46,95.0
87,G4,18.0,0.5,50,95.0
88,B4,18.0,0.5,50,95.0
89,A4,18.5,0.5,49,95.0
90,C5,18.5,0.5,49,95.0
91,F4,19.0,0.5,46,95.0
92,B4,19.0,0.5,49,95.0
93,D5,19.0,0.5,49,95.0
94,G4,19.5,1.5,51,95.0
95,C5,19.5,0.5,51,95.0
96,E4,19.5,0.5,46,95.0
97,D5,20.0,0.5,51,95.0
98,D4,20.0,0.5,46,95.0
99,E5,20.5,0.5,51,95.0
100,C4,20.5,0.5,46,95.0
101,D5,21.0,0.5,53,95.0
102,G4,21.0,0.5,51,95.0
103,B3,21.0,0.5,42,95.0
104,G3,21.0,0.5,46,95.0
105,G5,21.5,0.5,57,95.0
106,F#3,21.5,0.5,40,95.0
107,A3,21.5,0.5,40,95.0
108,G5,22.0,0.5,57,95.0
109,E3,22.0,0.5,40,95.0
110,G3,22.0,0.5,40,95.0
111,A5,22.5,0.25,60,95.0
112,E3,22.5,1.0,43,95.0
113,G3,22.5,0.5,43,95.0
114,G5,22.75,0.25,53,95.0
115,F#5,23.0,0.25,57,95.0
116,B3,23.0,0.5,42,95.0
117,E5,23.25,0.25,50,95.0
118,D5,23.5,0.25,55,95.0
119,A3,23.5,0.5,40,95.0
120,G4,23.5,0.5,40,95.0
121,C#5,23.75,0.25,49,95.0
122,E5,24.0,0.5,47,95.0
123,D4,24.0,1.5,40,95.0
124,G4,24.0,0.5,40,95.0
125,D5,24.5,0.5,44,95.0
126,F#4,24.5,0.5,36,95.0
127,D5,25.0,0.5,44,95.0
128,F#4,25.0,0.5,36,95.0
129,D5,25.5,0.75,44,95.0
130,D4,25.5,1.0,32,95.0
131,F#4,25.5,1.0,32,95.0
132,B4,26.25,0.25,44,95.0
133,C5,26.5,0.25,44,95.0
134,A4,26.75,0.25,44,95.0
135,G4,27.0,0.875,49,95.0
136,G3,27.0,1.0,40,95.0
137,B3,27.0,1.0,40,95.0
138,B4,27.875,0.125,47,95.0
139,A4,28.0,0.5,47,95.0
140,G3,28.0,0.5,38,95.0
141,C4,28.0,0.5,38,95.0
142,D4,28.5,0.5,49,95.0
143,G3,28.5,1.0,40,95.0
144,C4,28.5,1.0,40,95.0
145,E4,29.0,0.5,45,95.0
146,F#4,29.5,0.25,45,95.0
147,G3,29.5,0.5,38,95.0
148,C4,29.5,0.5,38,95.0
149,G4,29.75,0.062,45,95.0
150,F#4,29.812,0.062,45,95.0
151,E4,29.875,0.062,45,95.0
152,F#4,29.938,0.062,45,95.0
153,G4,30.0,0.188,46,95.0
154,G3,30.0,0.188,37,95.0
155,B3,30.0,0.188,37,95.0
156,G4,30.5,0.188,45,95.0
157,G3,30.5,0.188,36,95.0
158,B3,30.5,0.188,36,95.0
159,G4,31.0,0.188,45,95.0
160,G3,31.0,0.188,36,95.0
161,B3,31.0,0.188,36,95.0
162,G4,31.5,1.0,45,95.0
163,G3,31.5,1.0,36,95.0
164,B3,31.5,1.0,36,95.0
165,D4,32.5,0.5,45,95.0
166,A4,32.5,0.375,45,95.0
167,F#3,32.5,0.375,36,95.0
168,C5,32.875,0.125,45,95.0
169,A3,32.875,0.125,36,95.0
170,D4,33.0,1.5,41,95.0
171,B4,33.0,0.5,49,95.0
172,G3,33.0,0.5,39,95.0
173,A4,33.5,0.5,45,95.0
174,F#3,33.5,0.5,36,95.0
175,B4,34.0,0.5,45,95.0
176,G3,34.0,0.5,36,95.0
177,F#4,34.5,1.0,44,95.0
178,D4,34.5,1.5,36,95.0
179,D5,34.5,0.5,49,95.0
180,A3,34.5,1.0,38,95.0
181,C5,35.0,0.5,45,95.0
182,G3,35.5,0.5,36,95.0
183,G4,35.5,0.5,45,95.0
184,B4,35.5,0.5,45,95.0
185,D3,36.0,0.5,38,95.0
186,G4,36.0,0.5,47,95.0
187,B4,36.0,0.5,47,95.0
188,D4,36.5,0.5,36,95.0
189,F#4,36.5,0.5,45,95.0
190,A4,36.5,0.5,45,95.0
191,D4,37.0,0.5,36,95.0
192,F#4,37.0,0.5,45,95.0
193,A4,37.0,0.5,45,95.0
194,D4,37.5,0.5,36,95.0
195,F#4,37.5,1.0,45,95.0
196,A4,37.5,1.0,45,95.0
197,C4,38.0,0.5,36,95.0
198,B3,38.5,0.5,37,95.0
199,G#4,38.5,0.5,46,95.0
200,B4,38.5,0.5,46,95.0
201,A3,39.0,1.0,40,95.0
202,A4,39.0,0.5,49,95.0
203,C5,39.0,0.5,49,95.0
204,B4,39.5,0.5,51,95.0
205,D5,39.5,0.5,51,95.0
206,G3,40.0,0.5,39,95.0
207,C5,40.0,0.5,51,95.0
208,E5,40.0,0.5,51,95.0
209,F#3,40.5,0.5,40,95.0
210,C5,40.5,1.0,51,95.0
211,E5,40.5,1.0,51,95.0
212,A3,41.0,0.5,39,95.0
213,C5,41.5,167/1000,53,95.0
214,A4,41.5,0.5,53,95.0
215,D4,41.5,0.5,39,95.0
216,B4,41.667,167/1000,46,95.0
217,C5,41.833,167/1000,46,95.0
218,G3,42.0,3.0,46,95.0
219,G4,42.0,0.5,50,95.0
220,B4,42.0,0.5,50,95.0
221,A4,42.5,0.5,49,95.0
222,C5,42.5,0.5,49,95.0
223,F4,43.0,0.5,46,95.0
224,B4,43.0,0.5,49,95.0
225,D5,43.0,0.5,49,95.0
226,G4,43.5,1.5,51,95.0
227,C5,43.5,0.5,51,95.0
228,E4,43.5,0.5,46,95.0
229,D5,44.0,0.5,51,95.0
230,D4,44.0,0.5,46,95.0
231,E5,44.5,0.5,51,95.0
232,C4,44.5,0.5,46,95.0
233,D5,45.0,0.5,53,95.0
234,G4,45.0,0.5,51,95.0
235,B3,45.0,0.5,42,95.0
236,G3,45.0,0.5,46,95.0
237,G5,45.5,0.5,57,95.0
238,F#3,45.5,0.5,40,95.0
239,A3,45.5,0.5,40,95.0
240,G5,46.0,0.5,57,95.0
241,E3,46.0,0.5,40,95.0
242,G3,46.0,0.5,40,95.0
243,A5,46.5,0.25,60,95.0
244,E3,46.5,1.0,43,95.0
245,G3,46.5,0.5,43,95.0
246,G5,46.75,0.25,53,95.0
247,F#5,47.0,0.25,57,95.0
248,B3,47.0,0.5,42,95.0
249,E5,47.25,0.25,52,95.0
250,D5,47.5,0.25,55,95.0
251,A3,47.5,0.5,40,95.0
252,G4,47.5,0.5,40,95.0
253,C#5,47.75,0.25,47,95.0
254,E5,48.0,0.5,47,95.0
255,D4,48.0,1.5,40,95.0
256,G4,48.0,0.5,40,95.0
257,D5,48.5,0.5,44,95.0
258,F#4,48.5,0.5,36,95.0
259,D5,49.0,0.5,44,95.0
260,F#4,49.0,0.5,36,95.0
261,D5,49.5,1.0,44,95.0
262,D4,49.5,1.0,32,95.0
263,F#4,49.5,1.0,32,95.0
264,G5,50.5,0.5,53,95.0
265,D4,50.5,0.5,34,95.0
266,B3,50.5,0.5,34,95.0
267,G5,51.0,0.875,53,95.0
268,D4,51.0,1.0,36,95.0
269,B3,51.0,1.0,36,95.0
270,B5,51.875,0.125,47,95.0
271,A5,52.0,0.5,51,95.0
272,E4,52.0,0.5,34,95.0
273,C4,52.0,0.5,34,95.0
274,G5,52.5,0.5,53,95.0
275,B3,52.5,0.5,36,95.0
276,D4,52.5,0.5,36,95.0
277,F#5,53.0,0.5,49,95.0
278,C4,53.0,0.5,36,95.0
279,A3,53.0,0.5,36,95.0
280,E5,53.5,0.5,49,95.0
281,G3,53.5,0.5,34,95.0
282,B3,53.5,0.5,34,95.0
283,D5,54.0,0.188,50,95.0
284,F#3,54.0,0.188,33,95.0
285,A3,54.0,0.188,33,95.0
286,D5,54.5,0.188,47,95.0
287,F#3,54.5,0.188,32,95.0
288,A3,54.5,0.188,32,95.0
289,D5,55.0,0.188,47,95.0
290,F#3,55.0,0.188,32,95.0
291,A3,55.0,0.188,32,95.0
292,D5,55.5,1.0,47,95.0
293,F#3,55.5,1.5,32,95.0
294,A3,55.5,0.5,32,95.0
295,B3,56.0,0.5,39,95.0
296,E-5,56.5,0.5,51,95.0
297,C4,56.5,0.5,43,95.0
298,E5,57.0,0.5,52,95.0
299,G3,57.0,0.5,36,95.0
300,B3,57.0,0.5,36,95.0
301,F#5,57.5,0.25,54,95.0
302,F#3,57.5,0.5,37,95.0
303,A3,57.5,0.5,37,95.0
304,G5,57.75,0.062,45,95.0
305,F#5,57.812,0.062,45,95.0
306,E5,57.875,0.062,45,95.0
307,F#5,57.938,0.062,45,95.0
308,G5,58.0,0.5,57,95.0
309,E3,58.0,0.5,37,95.0
310,G3,58.0,0.5,37,95.0
311,A4,58.5,0.5,52,95.0
312,G4,58.5,0.5,33,95.0
313,A3,58.5,1.5,33,95.0
314,B4,59.0,0.5,50,95.0
315,F#4,59.0,0.5,33,95.0
316,C#5,59.5,0.25,46,95.0
317,E4,59.5,0.5,33,95.0
318,D5,59.75,0.062,39,95.0
319,C#5,59.812,0.062,39,95.0
320,B4,59.875,0.062,39,95.0
321,C#5,59.938,0.062,39,95.0
322,D5,60.0,0.25,46,95.0
323,D3,60.5,0.5,23,95.0
324,F#3,60.5,0.5,23,95.0
325,D5,61.0,0.25,42,95.0
326,E3,61.0,0.375,23,95.0
327,G3,61.0,0.375,23,95.0
328,D5,61.5,0.25,43,95.0
329,F#3,62.0,0.5,24,95.0
330,A3,62.0,0.5,24,95.0
331,D5,62.5,0.25,42,95.0
332,G3,62.5,0.375,24,95.0
333,B3,62.5,0.375,24,95.0
334,D5,63.0,0.25,45,95.0
335,A3,63.5,0.5,30,95.0
336,C4,63.5,0.5,30,95.0
337,D5,64.0,0.25,44,95.0
338,G3,64.0,0.375,28,95.0
339,B3,64.0,0.375,28,95.0
340,D5,64.5,0.25,45,95.0
341,F#3,65.0,0.5,28,95.0
342,A3,65.0,0.5,28,95.0
343,D5,65.5,0.25,41,95.0
344,E3,65.5,0.375,26,95.0
345,G3,65.5,0.375,26,95.0
346,D5,66.0,0.25,43,95.0
347,D3,66.0,0.5,32,95.0
348,F#3,66.0,0.5,32,95.0
349,D5,66.5,0.5,37,95.0
350,F#5,66.5,0.5,37,95.0
351,D4,67.0,0.25,35,95.0
352,E5,67.0,0.5,36,95.0
353,G5,67.0,0.5,36,95.0
354,D4,67.5,0.25,36,95.0
355,A5,68.0,0.5,37,95.0
356,F#5,68.0,0.5,37,95.0
357,D4,68.5,0.25,35,95.0
358,G5,68.5,0.5,36,95.0
359,B5,68.5,0.5,36,95.0
360,D4,69.0,0.25,36,95.0
361,A5,69.5,0.5,40,95.0
362,C6,69.5,0.5,40,95.0
363,D4,70.0,0.25,36,95.0
364,B5,70.0,0.5,36,95.0
365,G5,70.0,0.5,36,95.0
366,D4,70.5,0.75,48,95.0
367,F#4,71.0,0.5,43,95.0
368,C5,71.0,0.5,47,95.0
369,A5,71.0,0.5,47,95.0
370,G4,71.5,0.5,43,95.0
371,B4,71.5,0.5,47,95.0
372,G5,71.5,0.5,47,95.0
373,C5,72.0,2.25,45,95.0
374,F#5,72.0,2.25,45,95.0
375,D4,72.0,2.25,41,95.0
376,A4,72.0,2.25,41,95.0
377,B4,74.25,0.125,43,95.0
378,C5,74.375,0.125,45,95.0
379,D5,74.5,0.125,47,95.0
380,C5,74.625,0.125,45,95.0
381,B4,74.75,0.125,45,95.0
382,A4,74.875,0.125,44,95.0
383,G4,75.0,0.875,49,95.0
384,G3,75.0,1.0,40,95.0
385,B3,75.0,1.0,40,95.0
386,B4,75.875,0.125,47,95.0
387,A4,76.0,0.5,47,95.0
388,G3,76.0,0.5,38,95.0
389,C4,76.0,0.5,38,95.0
390,D4,76.5,0.5,49,95.0
391,G3,76.5,1.0,40,95.0
392,C4,76.5,1.0,40,95.0
393,E4,77.0,0.5,45,95.0
394,F#4,77.5,0.25,45,95.0
395,G3,77.5,0.5,38,95.0
396,C4,77.5,0.5,38,95.0
397,G4,77.75,83/1000,45,95.0
398,F#4,77.812,83/1000,45,95.0
399,E4,77.875,83/1000,45,95.0
400,F#4,77.938,0.062,45,95.0
401,G4,78.0,0.188,46,95.0
402,G3,78.0,0.188,37,95.0
403,B3,78.0,0.188,37,95.0
404,G4,78.5,0.188,45,95.0
405,G3,78.5,0.188,36,95.0
406,B3,78.5,0.188,36,95.0
407,G4,79.0,0.188,45,95.0
408,G3,79.0,0.188,36,95.0
409,B3,79.0,0.188,36,95.0
410,G4,79.5,1.0,45,95.0
411,G3,79.5,1.0,36,95.0
412,B3,79.5,1.0,36,95.0
413,D4,80.5,0.5,45,95.0
414,A4,80.5,0.375,45,95.0
415,F#3,80.5,0.375,36,95.0
416,C5,80.875,0.125,45,95.0
417,A3,80.875,0.125,36,95.0
418,D4,81.0,1.5,41,95.0
419,B4,81.0,0.5,49,95.0
420,G3,81.0,0.5,39,95.0
421,A4,81.5,0.5,45,95.0
422,F#3,81.5,0.5,36,95.0
423,B4,82.0,0.5,45,95.0
424,G3,82.0,0.5,36,95.0
425,F#4,82.5,1.0,44,95.0
426,D4,82.5,1.5,36,95.0
427,D5,82.5,0.5,49,95.0
428,A3,82.5,1.0,38,95.0
429,C5,83.0,0.5,45,95.0
430,G3,83.5,0.5,36,95.0
431,G4,83.5,0.5,45,95.0
432,B4,83.5,0.5,45,95.0
433,D3,84.0,0.5,38,95.0
434,G4,84.0,0.5,47,95.0
435,B4,84.0,0.5,47,95.0
436,D4,84.5,0.5,36,95.0
437,F#4,84.5,0.5,45,95.0
438,A4,84.5,0.5,45,95.0
439,D4,85.0,0.5,36,95.0
440,F#4,85.0,0.5,45,95.0
441,A4,85.0,0.5,45,95.0
442,D4,85.5,0.5,36,95.0
443,F#4,85.5,1.0,45,95.0
444,A4,85.5,1.0,45,95.0
445,C4,86.0,0.5,36,95.0
446,B3,86.5,0.5,37,95.0
447,G#4,86.5,0.5,46,95.0
448,B4,86.5,0.5,46,95.0
449,A3,87.0,1.0,40,95.0
450,A4,87.0,0.5,49,95.0
451,C5,87.0,0.5,49,95.0
452,B4,87.5,0.5,51,95.0
453,D5,87.5,0.5,51,95.0
454,G3,88.0,0.5,39,95.0
455,C5,88.0,0.5,51,95.0
456,E5,88.0,0.5,51,95.0
457,F#3,88.5,0.5,40,95.0
458,C5,88.5,1.0,51,95.0
459,E5,88.5,1.0,51,95.0
460,A3,89.0,0.5,39,95.0
461,C5,89.5,0.25,45,95.0
462,A4,89.5,0.5,45,95.0
463,D4,89.5,0.5,39,95.0
464,D5,89.75,83/1000,43,95.0
465,C5,89.812,83/1000,43,95.0
466,B4,89.875,83/1000,43,95.0
467,C5,89.938,0.062,43,95.0
468,C5,90.0,21/1000,43,95.0
469,G3,90.0,1.5,39,95.0
470,G4,90.0,0.5,46,95.0
471,B4,90.0,0.5,46,95.0
472,A4,90.5,0.5,45,95.0
473,C5,90.5,0.5,45,95.0
474,B4,91.0,0.25,45,95.0
475,D5,91.0,0.25,45,95.0
476,C#5,91.25,83/1000,45,95.0
477,D5,91.333,83/1000,45,95.0
478,E5,91.417,83/1000,45,95.0
479,G2,91.5,0.5,41,95.0
480,B4,91.5,1.0,47,95.0
481,D5,91.5,1.0,47,95.0
482,B2,92.0,0.5,40,95.0
483,B3,92.5,0.5,40,95.0
484,G4,92.5,0.25,40,95.0
485,E3,92.5,0.5,36,95.0
486,A4,92.75,83/1000,36,95.0
487,G4,92.812,83/1000,36,95.0
488,F#4,92.875,83/1000,36,95.0
489,G4,92.938,0.062,36,95.0
490,C3,93.0,1.5,39,95.0
491,C4,93.0,0.5,44,95.0
492,A4,93.0,0.5,44,95.0
493,E4,93.5,0.5,41,95.0
494,C5,93.5,0.5,41,95.0
495,D4,94.0,0.5,41,95.0
496,B4,94.0,0.5,41,95.0
497,C4,94.5,0.5,44,95.0
498,A4,94.5,0.25,44,95.0
499,D3,94.5,1.5,37,95.0
500,B4,94.75,0.062,36,95.0
501,A4,94.812,0.062,36,95.0
502,G4,94.875,0.062,36,95.0
503,A4,94.938,0.062,36,95.0
504,B3,95.0,0.5,40,95.0
505,G4,95.0,0.5,40,95.0
506,A3,95.5,0.5,35,95.0
507,F#4,95.5,0.25,35,95.0
508,G4,95.75,83/1000,35,95.0
509,F#4,95.812,83/1000,35,95.0
510,E4,95.875,83/1000,35,95.0
511,F#4,95.938,0.062,35,95.0
512,F#4,96.0,21/1000,35,95.0
513,G2,96.0,0.5,32,95.0
514,C4,96.0,0.5,39,95.0
515,A4,96.0,0.5,39,95.0
516,B2,96.5,0.5,26,95.0
517,B3,96.5,0.5,30,95.0
518,G4,96.5,0.5,30,95.0
519,D3,97.0,0.5,26,95.0
520,B3,97.0,0.5,30,95.0
521,G4,97.0,0.5,30,95.0
522,G3,97.5,1.0,26,95.0
523,B3,97.5,1.0,30,95.0
524,G4,97.5,1.0,30,95.0
525,G5,98.5,0.5,53,95.0
526,D4,98.5,0.5,34,95.0
527,B3,98.5,0.5,34,95.0
528,G5,99.0,0.875,53,95.0
529,D4,99.0,1.0,36,95.0
530,B3,99.0,1.0,36,95.0
531,B5,99.875,0.125,51,95.0
532,A5,100.0,0.5,51,95.0
533,E4,100.0,0.5,34,95.0
534,C4,100.0,0.5,34,95.0
535,G5,100.5,0.5,53,95.0
536,B3,100.5,0.5,36,95.0
537,D4,100.5,0.5,36,95.0
538,F#5,101.0,0.5,49,95.0
539,C4,101.0,0.5,36,95.0
540,A3,101.0,0.5,36,95.0
541,E5,101.5,0.5,49,95.0
542,G3,101.5,0.5,34,95.0
543,B3,101.5,0.5,34,95.0
544,D5,102.0,0.188,50,95.0
545,F#3,102.0,0.188,33,95.0
546,A3,102.0,0.188,33,95.0
547,D5,102.5,0.188,47,95.0
548,F#3,102.5,0.188,32,95.0
549,A3,102.5,0.188,32,95.0
550,D5,103.0,0.188,47,95.0
551,F#3,103.0,0.188,32,95.0
552,A3,103.0,0.188,32,95.0
553,D5,103.5,1.0,47,95.0
554,F#3,103.5,1.5,32,95.0
555,A3,103.5,0.5,32,95.0
556,B3,104.0,0.5,39,95.0
557,E-5,104.5,0.5,51,95.0
558,C4,104.5,0.5,43,95.0
559,E5,105.0,0.5,52,95.0
560,G3,105.0,0.5,36,95.0
561,B3,105.0,0.5,36,95.0
562,F#5,105.5,0.25,54,95.0
563,F#3,105.5,0.5,37,95.0
564,A3,105.5,0.5,37,95.0
565,G5,105.75,83/1000,45,95.0
566,F#5,105.812,83/1000,45,95.0
567,E5,105.875,83/1000,45,95.0
568,F#5,105.938,83/1000,45,95.0
569,G5,106.0,0.5,57,95.0
570,E3,106.0,0.5,37,95.0
571,G3,106.0,0.5,37,95.0
572,A4,106.5,0.5,52,95.0
573,G4,106.5,0.5,33,95.0
574,A3,106.5,1.5,33,95.0
575,B4,107.0,0.5,50,95.0
576,F#4,107.0,0.5,33,95.0
577,C#5,107.5,0.25,46,95.0
578,E4,107.5,0.5,33,95.0
579,D5,107.75,83/1000,39,95.0
580,C#5,107.812,83/1000,39,95.0
581,B4,107.875,83/1000,39,95.0
582,C#5,107.938,0.062,39,95.0
583,D5,108.0,0.25,46,95.0
584,C#5,108.0,21/1000,39,95.0
585,D3,108.5,0.5,24,95.0
586,F#3,108.5,0.5,24,95.0
587,D5,109.0,0.25,42,95.0
588,E3,109.0,0.375,24,95.0
589,G3,109.0,0.375,24,95.0
590,D5,109.5,0.25,43,95.0
591,F#3,110.0,0.5,26,95.0
592,A3,110.0,0.5,26,95.0
593,D5,110.5,0.25,42,95.0
594,G3,110.5,0.375,24,95.0
595,B3,110.5,0.375,24,95.0
596,D5,111.0,0.25,45,95.0
597,A3,111.5,0.5,30,95.0
598,C4,111.5,0.5,30,95.0
599,D5,112.0,0.25,44,95.0
600,G3,112.0,0.375,28,95.0
601,B3,112.0,0.375,28,95.0
602,D5,112.5,0.25,45,95.0
603,F#3,113.0,0.5,28,95.0
604,A3,113.0,0.5,28,95.0
605,D5,113.5,0.25,41,95.0
606,E3,113.5,0.375,28,95.0
607,G3,113.5,0.375,28,95.0
608,D5,114.0,0.25,43,95.0
609,D3,114.0,0.5,32,95.0
610,F#3,114.0,0.5,32,95.0
611,D5,114.5,0.5,37,95.0
612,F#5,114.5,0.5,37,95.0
613,D4,115.0,0.25,35,95.0
614,E5,115.0,0.5,36,95.0
615,G5,115.0,0.5,36,95.0
616,D4,115.5,0.25,36,95.0
617,A5,116.0,0.5,37,95.0
618,F#5,116.0,0.5,37,95.0
619,D4,116.5,0.25,35,95.0
620,G5,116.5,0.5,36,95.0
621,B5,116.5,0.5,36,95.0
622,D4,117.0,0.25,36,95.0
623,A5,117.5,0.5,40,95.0
624,C6,117.5,0.5,40,95.0
625,D4,118.0,0.25,36,95.0
626,B5,118.0,0.5,36,95.0
627,G5,118.0,0.5,36,95.0
628,D4,118.5,0.75,48,95.0
629,F#4,119.0,0.5,43,95.0
630,C5,119.0,0.5,47,95.0
631,A5,119.0,0.5,47,95.0
632,G4,119.5,0.5,43,95.0
633,B4,119.5,0.5,47,95.0
634,G5,119.5,0.5,47,95.0
635,C5,120.0,2.25,45,95.0
636,F#5,120.0,2.25,45,95.0
637,D4,120.0,2.25,41,95.0
638,A4,120.0,2.25,41,95.0
639,B4,122.25,0.125,43,95.0
640,C5,122.375,0.125,45,95.0
641,D5,122.5,0.125,47,95.0
642,C5,122.625,0.125,45,95.0
643,B4,122.75,0.125,45,95.0
644,A4,122.875,0.125,44,95.0
645,G4,123.0,0.875,49,95.0
646,G3,123.0,1.0,40,95.0
647,B3,123.0,1.0,40,95.0
648,B4,123.875,0.125,47,95.0
649,A4,124.0,0.5,47,95.0
650,G3,124.0,0.5,38,95.0
651,C4,124.0,0.5,38,95.0
652,D4,124.5,0.5,49,95.0
653,G3,124.5,1.0,40,95.0
654,C4,124.5,1.0,40,95.0
655,E4,125.0,0.5,45,95.0
656,F#4,125.5,0.25,45,95.0
657,G3,125.5,0.5,38,95.0
658,C4,125.5,0.5,38,95.0
659,G4,125.75,83/1000,45,95.0
660,F#4,125.812,83/1000,45,95.0
661,E4,125.875,83/1000,45,95.0
662,F#4,125.938,0.062,45,95.0
663,G4,126.0,0.188,46,95.0
664,F#4,126.0,21/1000,45,95.0
665,G3,126.0,0.188,37,95.0
666,B3,126.0,0.188,37,95.0
667,G4,126.5,0.188,45,95.0
668,G3,126.5,0.188,36,95.0
669,B3,126.5,0.188,36,95.0
670,G4,127.0,0.188,45,95.0
671,G3,127.0,0.188,36,95.0
672,B3,127.0,0.188,36,95.0
673,G4,127.5,1.0,45,95.0
674,G3,127.5,1.0,36,95.0
675,B3,127.5,1.0,36,95.0
676,D4,128.5,0.5,45,95.0
677,A4,128.5,0.375,45,95.0
678,F#3,128.5,0.375,36,95.0
679,C5,128.875,0.125,45,95.0
680,A3,128.875,0.125,36,95.0
681,D4,129.0,1.5,41,95.0
682,B4,129.0,0.5,49,95.0
683,G3,129.0,0.5,39,95.0
684,A4,129.5,0.5,45,95.0
685,F#3,129.5,0.5,36,95.0
686,B4,130.0,0.5,45,95.0
687,G3,130.0,0.5,36,95.0
688,F#4,130.5,1.0,44,95.0
689,D4,130.5,1.5,36,95.0
690,D5,130.5,0.5,49,95.0
691,A3,130.5,1.0,38,95.0
692,C5,131.0,0.5,45,95.0
693,G3,131.5,0.5,36,95.0
694,G4,131.5,0.5,45,95.0
695,B4,131.5,0.5,45,95.0
696,D3,132.0,0.5,38,95.0
697,G4,132.0,0.5,47,95.0
698,B4,132.0,0.5,47,95.0
699,D4,132.5,0.5,36,95.0
700,F#4,132.5,0.5,45,95.0
701,A4,132.5,0.5,45,95.0
702,D4,133.0,0.5,36,95.0
703,F#4,133.0,0.5,45,95.0
704,A4,133.0,0.5,45,95.0
705,D4,133.5,0.5,36,95.0
706,F#4,133.5,1.0,45,95.0
707,A4,133.5,1.0,45,95.0
708,C4,134.0,0.5,36,95.0
709,B3,134.5,0.5,37,95.0
710,G#4,134.5,0.5,46,95.0
711,B4,134.5,0.5,46,95.0
712,A3,135.0,1.0,40,95.0
713,A4,135.0,0.5,49,95.0
714,C5,135.0,0.5,49,95.0
715,B4,135.5,0.5,51,95.0
716,D5,135.5,0.5,51,95.0
717,G3,136.0,0.5,39,95.0
718,C5,136.0,0.5,51,95.0
719,E5,136.0,0.5,51,95.0
720,F#3,136.5,0.5,40,95.0
721,C5,136.5,1.0,51,95.0
722,E5,136.5,1.0,51,95.0
723,A3,137.0,0.5,39,95.0
724,C5,137.5,0.25,45,95.0
725,A4,137.5,0.5,45,95.0
726,D4,137.5,0.5,39,95.0
727,D5,137.75,83/1000,43,95.0
728,C5,137.812,83/1000,43,95.0
729,B4,137.875,83/1000,43,95.0
730,C5,137.938,0.062,43,95.0
731,C5,138.0,21/1000,43,95.0
732,G3,138.0,1.5,39,95.0
733,G4,138.0,0.5,46,95.0
734,B4,138.0,0.5,46,95.0
735,A4,138.5,0.5,45,95.0
736,C5,138.5,0.5,45,95.0
737,B4,139.0,0.25,45,95.0
738,D5,139.0,0.25,45,95.0
739,C#5,139.25,83/1000,45,95.0
740,D5,139.333,83/1000,45,95.0
741,E5,139.417,83/1000,45,95.0
742,G2,139.5,0.5,41,95.0
743,B4,139.5,1.0,47,95.0
744,D5,139.5,1.0,47,95.0
745,B2,140.0,0.5,40,95.0
746,B3,140.5,0.5,40,95.0
747,G4,140.5,0.25,40,95.0
748,E3,140.5,0.5,36,95.0
749,A4,140.75,83/1000,36,95.0
750,G4,140.812,83/1000,36,95.0
751,F#4,140.875,83/1000,36,95.0
752,G4,140.938,0.062,36,95.0
753,G4,141.0,21/1000,36,95.0
754,C3,141.0,1.5,39,95.0
755,C4,141.0,0.5,44,95.0
756,A4,141.0,0.5,44,95.0
757,E4,141.5,0.5,41,95.0
758,C5,141.5,0.5,41,95.0
759,D4,142.0,0.5,41,95.0
760,B4,142.0,0.5,41,95.0
761,C4,142.5,0.5,44,95.0
762,A4,142.5,0.25,44,95.0
763,D3,142.5,1.5,37,95.0
764,B4,142.75,0.062,36,95.0
765,A4,142.812,0.062,36,95.0
766,G4,142.875,0.062,36,95.0
767,A4,142.938,0.062,36,95.0
768,B3,143.0,0.5,40,95.0
769,G4,143.0,0.5,40,95.0
770,A3,143.5,0.5,35,95.0
771,F#4,143.5,0.25,35,95.0
772,G4,143.75,83/1000,35,95.0
773,F#4,143.812,83/1000,35,95.0
774,E4,143.875,83/1000,35,95.0
775,F#4,143.938,0.062,35,95.0
776,F#4,144.0,21/1000,35,95.0
777,G2,144.0,0.5,32,95.0
778,C4,144.0,0.5,39,95.0
779,A4,144.0,0.5,39,95.0
780,B2,144.5,0.5,26,95.0
781,B3,144.5,0.5,30,95.0
782,G4,144.5,0.5,30,95.0
783,D3,145.0,0.5,26,95.0
784,B3,145.0,0.5,30,95.0
785,G4,145.0,0.5,30,95.0
786,G3,145.5,1.0,26,95.0
787,B3,145.5,1.0,30,95.0
788,G4,145.5,1.0,30,95.0
789,D5,146.5,0.25,41,95.0
790,D5,147.0,0.25,41,95.0
791,G3,147.5,0.5,26,95.0
792,B-3,147.5,0.5,26,95.0
793,E-5,148.0,0.25,44,95.0
794,E-5,148.5,0.25,44,95.0
795,C4,149.0,0.5,30,95.0
796,G3,149.0,0.5,30,95.0
797,F#5,149.5,0.25,46,95.0
798,F#5,150.0,0.25,46,95.0
799,G3,150.5,0.5,31,95.0
800,C4,150.5,0.5,31,95.0
801,G5,151.0,0.25,56,95.0
802,G5,151.5,0.25,56,95.0
803,G3,152.0,0.5,50,95.0
804,B-3,152.0,0.5,50,95.0
805,B-5,152.5,0.5,72,95.0
806,C#5,152.5,0.5,72,95.0
807,G3,152.5,0.5,57,95.0
808,E4,152.5,0.5,57,95.0
809,D5,153.0,1.0,72,95.0
810,B-5,153.0,0.5,72,95.0
811,F4,153.0,1.0,52,95.0
812,F3,153.0,1.0,52,95.0
813,A5,153.5,0.5,69,95.0
814,C#5,154.0,0.5,72,95.0
815,B-5,154.0,1.0,72,95.0
816,E4,154.0,0.5,57,95.0
817,G3,154.0,0.5,57,95.0
818,D5,154.5,1.0,72,95.0
819,F3,154.5,1.0,51,95.0
820,F4,154.5,1.0,51,95.0
821,A5,155.0,0.5,68,95.0
822,G#5,155.5,0.25,77,95.0
823,D4,155.5,0.5,54,95.0
824,B-3,155.5,0.5,54,95.0
825,F4,155.5,0.5,54,95.0
826,A5,155.75,13/125,67,95.0
827,G#5,155.833,13/125,69,95.0
828,F#5,155.917,83/1000,69,95.0
829,G#5,156.0,0.5,79,95.0
830,F#5,156.0,21/1000,69,95.0
831,F4,156.0,1.5,52,95.0
832,D4,156.0,1.5,52,95.0
833,A3,156.0,1.5,52,95.0
834,A5,156.5,0.25,69,95.0
835,A5,157.0,0.25,69,95.0
836,F4,157.5,1.5,51,95.0
837,D4,157.5,1.5,51,95.0
838,G#3,157.5,1.5,51,95.0
839,B5,158.0,0.25,69,95.0
840,B5,158.5,0.25,69,95.0
841,F4,159.0,1.5,40,95.0
842,D4,159.0,1.5,40,95.0
843,A3,159.0,1.5,40,95.0
844,A4,159.5,0.5,44,95.0
845,A4,160.0,0.5,44,95.0
846,A4,160.5,0.5,45,95.0
847,B4,161.0,0.5,39,95.0
848,G4,161.0,0.5,31,95.0
849,C#5,161.5,0.5,39,95.0
850,G4,161.5,0.5,31,95.0
851,C#5,162.0,1.5,35,95.0
852,G4,162.0,0.5,28,95.0
853,F4,162.5,0.5,22,95.0
854,E4,163.0,0.5,21,95.0
855,D5,163.5,0.5,33,95.0
856,D4,163.5,0.5,22,95.0
857,D5,164.5,0.25,41,95.0
858,D5,165.0,0.25,41,95.0
859,G3,165.5,0.5,26,95.0
860,B-3,165.5,0.5,26,95.0
861,E-5,166.0,0.25,44,95.0
862,E-5,166.5,0.25,44,95.0
863,C4,167.0,0.5,28,95.0
864,G3,167.0,0.5,28,95.0
865,F#5,167.5,0.25,46,95.0
866,F#5,168.0,0.25,46,95.0
867,G3,168.5,0.5,28,95.0
868,C4,168.5,0.5,28,95.0
869,G5,169.0,0.25,56,95.0
870,G5,169.5,0.25,56,95.0
871,G3,170.0,0.5,50,95.0
872,B-3,170.0,0.5,50,95.0
873,B-5,170.5,0.5,72,95.0
874,C#5,170.5,0.5,72,95.0
875,G3,170.5,0.5,57,95.0
876,E4,170.5,0.5,57,95.0
877,D5,171.0,1.0,72,95.0
878,B-5,171.0,0.5,72,95.0
879,F4,171.0,1.0,52,95.0
880,F3,171.0,1.0,52,95.0
881,A5,171.5,0.5,66,95.0
882,C#5,172.0,0.5,72,95.0
883,B-5,172.0,1.0,72,95.0
884,E4,172.0,0.5,57,95.0
885,G3,172.0,0.5,57,95.0
886,D5,172.5,1.0,72,95.0
887,F3,172.5,1.0,51,95.0
888,F4,172.5,1.0,51,95.0
889,A5,173.0,0.5,66,95.0
890,G#5,173.5,0.25,77,95.0
891,D4,173.5,0.5,54,95.0
892,B-3,173.5,0.5,54,95.0
893,F4,173.5,0.5,54,95.0
894,A5,173.75,13/125,64,95.0
895,G#5,173.833,13/125,64,95.0
896,F#5,173.917,83/1000,65,95.0
897,G#5,174.0,0.5,81,95.0
898,F#5,174.0,21/1000,65,95.0
899,F4,174.0,1.5,52,95.0
900,D4,174.0,1.5,52,95.0
901,A3,174.0,1.5,52,95.0
902,A5,174.5,0.25,67,95.0
903,A5,175.0,0.25,67,95.0
904,F4,175.5,1.5,51,95.0
905,D4,175.5,1.5,51,95.0
906,G#3,175.5,1.5,51,95.0
907,B5,176.0,0.25,77,95.0
908,B5,176.5,0.25,77,95.0
909,F4,177.0,1.5,40,95.0
910,D4,177.0,1.5,40,95.0
911,A3,177.0,1.5,40,95.0
912,A4,177.5,0.5,44,95.0
913,A4,178.0,0.5,44,95.0
914,A4,178.5,0.5,45,95.0
915,B4,179.0,0.5,39,95.0
916,G4,179.0,0.5,31,95.0
917,C#5,179.5,0.5,39,95.0
918,G4,179.5,0.5,31,95.0
919,C#5,180.0,1.5,35,95.0
920,G4,180.0,0.5,29,95.0
921,F4,180.5,0.5,24,95.0
922,E4,181.0,0.5,22,95.0
923,D5,181.5,0.5,33,95.0
924,D4,181.5,0.5,22,95.0
925,D5,182.5,0.5,36,95.0
926,D5,183.0,0.5,37,95.0
927,B-3,183.5,0.5,23,95.0
928,D4,183.5,0.5,23,95.0
929,G4,184.0,0.5,37,95.0
930,C5,184.5,0.5,39,95.0
931,E-4,185.0,0.5,27,95.0
932,A3,185.0,0.5,27,95.0
933,F#4,185.5,0.5,37,95.0
934,B-4,186.0,0.5,39,95.0
935,G3,186.5,0.5,27,95.0
936,B-3,186.5,0.5,27,95.0
937,C#4,187.0,0.5,44,95.0
938,D4,187.5,0.5,45,95.0
939,D3,188.0,0.5,45,95.0
940,D2,188.0,0.5,45,95.0
941,G5,188.5,0.5,70,95.0
942,G4,188.5,0.5,70,95.0
943,B-3,188.5,0.5,50,95.0
944,D4,188.5,0.5,50,95.0
945,A4,189.0,1.0,58,95.0
946,G5,189.0,0.5,70,95.0
947,E-4,189.0,1.0,46,95.0
948,C4,189.0,1.0,46,95.0
949,F#5,189.5,0.5,69,95.0
950,G4,190.0,0.5,58,95.0
951,G5,190.0,1.0,70,95.0
952,D4,190.0,0.5,50,95.0
953,B-3,190.0,0.5,50,95.0
954,A4,190.5,1.0,58,95.0
955,C4,190.5,1.0,45,95.0
956,E-4,190.5,1.0,45,95.0
957,F#5,191.0,0.5,67,95.0
958,G4,191.5,0.5,66,95.0
959,G5,191.5,0.5,66,95.0
960,D4,191.5,0.5,48,95.0
961,B-3,191.5,0.5,48,95.0
962,C5,192.0,2.0,68,95.0
963,E-5,192.0,2.0,68,95.0
964,F#5,192.0,2.0,68,95.0
965,A5,192.0,2.0,68,95.0
966,E-4,192.0,1.5,42,95.0
967,C4,192.0,1.5,42,95.0
968,F#3,192.0,1.5,42,95.0
969,A3,192.0,1.5,42,95.0
970,G3,193.5,1.5,36,95.0
971,D5,194.0,0.5,44,95.0
972,B-5,194.0,0.5,44,95.0
973,B-5,194.5,0.5,44,95.0
974,D5,194.5,0.5,44,95.0
975,E-5,195.0,2.0,44,95.0
976,B-5,195.0,0.5,44,95.0
977,C4,195.0,1.5,38,95.0
978,A5,195.5,0.5,44,95.0
979,C5,195.5,0.5,33,95.0
980,A5,196.0,1.0,44,95.0
981,C5,196.0,1.0,33,95.0
982,D4,196.5,1.5,38,95.0
983,B-4,197.0,0.5,36,95.0
984,D5,197.0,0.5,41,95.0
985,G5,197.0,0.5,41,95.0
986,A4,197.5,0.5,34,95.0
987,C5,197.5,0.5,37,95.0
988,F#5,197.5,0.5,37,95.0
989,G3,198.0,2.0,26,95.0
990,A4,198.0,1.5,26,95.0
991,C5,198.0,1.5,35,95.0
992,F#5,198.0,1.5,35,95.0
993,G4,199.5,0.5,27,95.0
994,B-4,199.5,0.5,33,95.0
995,G5,199.5,0.5,33,95.0
996,D5,200.5,0.5,36,95.0
997,D5,201.0,0.5,37,95.0
998,B-3,201.5,0.5,24,95.0
999,D4,201.5,0.5,24,95.0
1000,G4,202.0,0.5,37,95.0
1001,C5,202.5,0.5,39,95.0
1002,E-4,203.0,0.5,27,95.0
1003,A3,203.0,0.5,27,95.0
1004,F#4,203.5,0.5,37,95.0
1005,B-4,204.0,0.5,39,95.0
1006,G3,204.5,0.5,27,95.0
1007,B-3,204.5,0.5,27,95.0
1008,C#4,205.0,0.5,44,95.0
1009,D4,205.5,0.5,45,95.0
1010,D3,206.0,0.5,45,95.0
1011,D2,206.0,0.5,45,95.0
1012,G5,206.5,0.5,70,95.0
1013,G4,206.5,0.5,58,95.0
1014,B-3,206.5,0.5,50,95.0
1015,D4,206.5,0.5,50,95.0
1016,A4,207.0,1.0,58,95.0
1017,G5,207.0,0.5,70,95.0
1018,E-4,207.0,1.0,46,95.0
1019,C4,207.0,1.0,46,95.0
1020,F#5,207.5,0.5,69,95.0
1021,G4,208.0,0.5,58,95.0
1022,G5,208.0,1.0,70,95.0
1023,D4,208.0,0.5,50,95.0
1024,B-3,208.0,0.5,50,95.0
1025,A4,208.5,1.0,58,95.0
1026,C4,208.5,1.0,45,95.0
1027,E-4,208.5,1.0,45,95.0
1028,F#5,209.0,0.5,67,95.0
1029,G4,209.5,0.5,66,95.0
1030,G5,209.5,0.5,66,95.0
1031,D4,209.5,0.5,48,95.0
1032,B-3,209.5,0.5,48,95.0
1033,C5,210.0,2.0,68,95.0
1034,E-5,210.0,2.0,68,95.0
1035,F#5,210.0,2.0,68,95.0
1036,A5,210.0,2.0,68,95.0
1037,E-4,210.0,1.5,42,95.0
1038,C4,210.0,1.5,42,95.0
1039,F#3,210.0,1.5,42,95.0
1040,A3,210.0,1.5,42,95.0
1041,G3,211.5,1.5,36,95.0
1042,D5,212.0,0.5,44,95.0
1043,B-5,212.0,0.5,44,95.0
1044,B-5,212.5,0.5,44,95.0
1045,D5,212.5,0.5,44,95.0
1046,E-5,213.0,2.0,44,95.0
1047,B-5,213.0,0.5,44,95.0
1048,C4,213.0,1.5,38,95.0
1049,A5,213.5,0.5,44,95.0
1050,C5,213.5,0.5,33,95.0
1051,A5,214.0,1.0,44,95.0
1052,C5,214.0,1.0,33,95.0
1053,D4,214.5,1.5,38,95.0
1054,B-4,215.0,0.5,36,95.0
1055,D5,215.0,0.5,41,95.0
1056,G5,215.0,0.5,41,95.0
1057,A4,215.5,0.5,34,95.0
1058,C5,215.5,0.5,37,95.0
1059,F#5,215.5,0.5,37,95.0
1060,G3,216.0,2.0,26,95.0
1061,A4,216.0,1.5,26,95.0
1062,C5,216.0,1.5,35,95.0
1063,F#5,216.0,1.5,35,95.0
1064,G4,217.5,0.5,27,95.0
1065,B-4,217.5,0.5,33,95.0
1066,G5,217.5,0.5,33,95.0
1067,G4,218.5,0.5,46,95.0
1068,B3,218.5,0.5,38,95.0
1069,G3,218.5,0.5,38,95.0
1070,G4,219.0,0.875,49,95.0
1071,G3,219.0,1.0,40,95.0
1072,B3,219.0,1.0,40,95.0
1073,B4,219.875,0.125,47,95.0
1074,A4,220.0,0.5,47,95.0
1075,G3,220.0,0.5,38,95.0
1076,C4,220.0,0.5,38,95.0
1077,D4,220.5,0.5,49,95.0
1078,G3,220.5,1.0,40,95.0
1079,C4,220.5,1.0,40,95.0
1080,E-4,221.0,0.25,45,95.0
1081,E4,221.25,0.25,45,95.0
1082,F4,221.5,0.25,45,95.0
1083,G3,221.5,0.5,38,95.0
1084,C4,221.5,0.5,38,95.0
1085,F#4,221.75,0.25,45,95.0
1086,G4,222.0,0.5,46,95.0
1087,G3,222.0,2.5,34,95.0
1088,B3,222.0,271/1000,34,95.0
1089,B-3,222.25,0.25,30,95.0
1090,G4,222.5,0.5,45,95.0
1091,B3,222.5,271/1000,33,95.0
1092,B-3,222.75,0.25,30,95.0
1093,G4,223.0,0.5,45,95.0
1094,B3,223.0,271/1000,32,95.0
1095,B-3,223.25,0.25,31,95.0
1096,G4,223.5,1.0,45,95.0
1097,B3,223.5,1.0,36,95.0
1098,D4,224.5,0.5,45,95.0
1099,A4,224.5,0.375,45,95.0
1100,F#3,224.5,0.375,36,95.0
1101,C5,224.875,0.125,45,95.0
1102,A3,224.875,0.125,41,95.0
1103,D4,225.0,1.5,49,95.0
1104,B4,225.0,0.25,49,95.0
1105,G3,225.0,0.25,39,95.0
1106,B-4,225.25,0.25,47,95.0
1107,F#3,225.25,0.25,36,95.0
1108,B4,225.5,0.25,49,95.0
1109,G3,225.5,0.25,39,95.0
1110,B-4,225.75,0.25,46,95.0
1111,F#3,225.75,0.25,36,95.0
1112,B4,226.0,0.25,49,95.0
1113,G3,226.0,0.25,39,95.0
1114,D5,226.25,0.25,46,95.0
1115,B3,226.25,0.25,36,95.0
1116,F#4,226.5,1.0,44,95.0
1117,D4,226.5,1.5,44,95.0
1118,D5,226.5,0.5,49,95.0
1119,A3,226.5,1.0,38,95.0
1120,C5,227.0,0.5,45,95.0
1121,G3,227.5,0.5,36,95.0
1122,G4,227.5,0.5,45,95.0
1123,B4,227.5,0.5,45,95.0
1124,D3,228.0,0.25,38,95.0
1125,G4,228.0,0.5,47,95.0
1126,B4,228.0,0.5,47,95.0
1127,C#4,228.25,0.25,32,95.0
1128,D4,228.5,0.25,37,95.0
1129,F#4,228.5,0.5,45,95.0
1130,A4,228.5,0.5,45,95.0
1131,C#4,228.75,0.25,33,95.0
1132,D4,229.0,0.25,37,95.0
1133,F#4,229.0,0.5,45,95.0
1134,A4,229.0,0.5,45,95.0
1135,C#4,229.25,0.25,33,95.0
1136,D4,229.5,0.25,38,95.0
1137,F#4,229.5,1.0,45,95.0
1138,A4,229.5,1.0,45,95.0
1139,E4,229.75,0.25,36,95.0
1140,C4,230.0,0.25,38,95.0
1141,D4,230.25,0.25,36,95.0
1142,B3,230.5,0.25,39,95.0
1143,G#4,230.5,0.5,46,95.0
1144,B4,230.5,0.5,46,95.0
1145,C4,230.75,0.25,36,95.0
1146,A3,231.0,0.25,40,95.0
1147,A4,231.0,0.5,49,95.0
1148,C5,231.0,0.5,49,95.0
1149,E4,231.25,0.25,37,95.0
1150,C4,231.5,0.25,37,95.0
1151,B4,231.5,0.5,51,95.0
1152,D5,231.5,0.5,51,95.0
1153,B3,231.75,0.25,36,95.0
1154,A3,232.0,0.25,36,95.0
1155,C5,232.0,0.5,51,95.0
1156,E5,232.0,0.5,51,95.0
1157,G3,232.25,0.25,36,95.0
1158,F#3,232.5,0.25,36,95.0
1159,C5,232.5,1.0,51,95.0
1160,E5,232.5,1.0,51,95.0
1161,A3,232.75,0.25,35,95.0
1162,C4,233.0,0.25,36,95.0
1163,D4,233.25,0.25,37,95.0
1164,E4,233.5,0.25,39,95.0
1165,B4,233.5,0.25,47,95.0
1166,D5,233.5,0.25,47,95.0
1167,F#4,233.75,0.25,40,95.0
1168,A4,233.75,0.25,47,95.0
1169,C5,233.75,0.25,47,95.0
1170,B4,234.0,0.25,49,95.0
1171,G4,234.0,1.0,46,95.0
1172,C5,234.25,0.25,45,95.0
1173,B4,234.5,0.25,49,95.0
1174,C5,234.75,0.25,45,95.0
1175,B4,235.0,0.25,49,95.0
1176,F4,235.0,0.5,45,95.0
1177,D5,235.25,0.25,45,95.0
1178,C5,235.5,0.5,51,95.0
1179,E4,235.5,0.25,45,95.0
1180,G4,235.75,0.25,42,95.0
1181,D5,236.0,0.5,51,95.0
1182,D4,236.0,0.25,44,95.0
1183,F4,236.25,0.25,40,95.0
1184,E5,236.5,0.5,51,95.0
1185,C4,236.5,0.25,43,95.0
1186,E4,236.75,0.25,38,95.0
1187,D5,237.0,0.5,53,95.0
1188,B3,237.0,0.25,42,95.0
1189,D4,237.25,0.25,39,95.0
1190,G5,237.5,0.5,57,95.0
1191,G3,237.5,0.25,42,95.0
1192,B3,237.75,0.25,39,95.0
1193,G5,238.0,0.5,57,95.0
1194,F#3,238.0,0.25,42,95.0
1195,A3,238.25,0.25,39,95.0
1196,A5,238.5,0.25,60,95.0
1197,E3,238.5,0.25,43,95.0
1198,G5,238.75,0.25,59,95.0
1199,G3,238.75,0.25,42,95.0
1200,F#5,239.0,0.25,57,95.0
1201,A3,239.0,0.25,41,95.0
1202,E5,239.25,0.25,56,95.0
1203,C#4,239.25,0.25,41,95.0
1204,D5,239.5,0.25,55,95.0
1205,E4,239.5,0.25,40,95.0
1206,C#5,239.75,0.25,54,95.0
1207,G4,239.75,0.25,39,95.0
1208,E5,240.0,0.5,47,95.0
1209,D4,240.0,1.0,40,95.0
1210,G4,240.0,0.5,39,95.0
1211,D5,240.5,0.5,44,95.0
1212,D4,240.5,1.0,34,95.0
1213,F#4,240.5,0.5,34,95.0
1214,D5,241.0,0.5,41,95.0
1215,D4,241.0,0.5,34,95.0
1216,F#4,241.0,0.5,34,95.0
1217,D5,241.5,0.75,41,95.0
1218,D4,241.5,1.0,32,95.0
1219,F#4,241.5,1.0,32,95.0
1220,B4,242.25,0.25,44,95.0
1221,C5,242.5,0.25,44,95.0
1222,A4,242.75,0.25,44,95.0
1223,G4,243.0,0.875,49,95.0
1224,G3,243.0,1.0,40,95.0
1225,B3,243.0,1.0,40,95.0
1226,B4,243.875,0.125,47,95.0
1227,A4,244.0,0.5,47,95.0
1228,G3,244.0,0.5,38,95.0
1229,C4,244.0,0.5,38,95.0
1230,D4,244.5,0.5,49,95.0
1231,G3,244.5,1.0,40,95.0
1232,C4,244.5,1.0,40,95.0
1233,E-4,245.0,0.25,45,95.0
1234,E4,245.25,0.25,45,95.0
1235,F4,245.5,0.25,45,95.0
1236,G3,245.5,0.5,38,95.0
1237,C4,245.5,0.5,38,95.0
1238,F#4,245.75,0.25,45,95.0
1239,G4,246.0,0.5,46,95.0
1240,G3,246.0,2.5,37,95.0
1241,B3,246.0,271/1000,37,95.0
1242,B-3,246.25,0.25,32,95.0
1243,G4,246.5,0.5,45,95.0
1244,B3,246.5,271/1000,36,95.0
1245,B-3,246.75,0.25,33,95.0
1246,G4,247.0,0.5,45,95.0
1247,B3,247.0,271/1000,35,95.0
1248,B-3,247.25,0.25,32,95.0
1249,G4,247.5,1.0,45,95.0
1250,B3,247.5,1.0,36,95.0
1251,D4,248.5,0.5,45,95.0
1252,A4,248.5,0.375,45,95.0
1253,F#3,248.5,0.375,36,95.0
1254,C5,248.875,0.125,45,95.0
1255,A3,248.875,0.125,41,95.0
1256,D4,249.0,1.5,49,95.0
1257,B4,249.0,0.25,49,95.0
1258,G3,249.0,0.25,39,95.0
1259,B-4,249.25,0.25,47,95.0
1260,F#3,249.25,0.25,36,95.0
1261,B4,249.5,0.25,49,95.0
1262,G3,249.5,0.25,39,95.0
1263,B-4,249.75,0.25,46,95.0
1264,F#3,249.75,0.25,36,95.0
1265,B4,250.0,0.25,49,95.0
1266,G3,250.0,0.25,39,95.0
1267,D5,250.25,0.25,46,95.0
1268,B3,250.25,0.25,36,95.0
1269,F#4,250.5,1.0,44,95.0
1270,D4,250.5,1.5,44,95.0
1271,D5,250.5,0.5,49,95.0
1272,A3,250.5,1.0,38,95.0
1273,C5,251.0,0.5,45,95.0
1274,G3,251.5,0.5,36,95.0
1275,G4,251.5,0.5,45,95.0
1276,B4,251.5,0.5,45,95.0
1277,D3,252.0,0.25,38,95.0
1278,G4,252.0,0.5,47,95.0
1279,B4,252.0,0.5,47,95.0
1280,C#4,252.25,0.25,36,95.0
1281,D4,252.5,0.25,37,95.0
1282,F#4,252.5,0.5,45,95.0
1283,A4,252.5,0.5,45,95.0
1284,C#4,252.75,0.25,36,95.0
1285,D4,253.0,0.25,37,95.0
1286,F#4,253.0,0.5,45,95.0
1287,A4,253.0,0.5,45,95.0
1288,C#4,253.25,0.25,36,95.0
1289,D4,253.5,0.25,38,95.0
1290,F#4,253.5,1.0,45,95.0
1291,A4,253.5,1.0,45,95.0
1292,E4,253.75,0.25,36,95.0
1293,C4,254.0,0.25,38,95.0
1294,D4,254.25,0.25,36,95.0
1295,B3,254.5,0.25,39,95.0
1296,G#4,254.5,0.5,46,95.0
1297,B4,254.5,0.5,46,95.0
1298,C4,254.75,0.25,36,95.0
1299,A3,255.0,0.25,40,95.0
1300,A4,255.0,0.5,49,95.0
1301,C5,255.0,0.5,49,95.0
1302,E4,255.25,0.25,37,95.0
1303,C4,255.5,0.25,37,95.0
1304,B4,255.5,0.5,51,95.0
1305,D5,255.5,0.5,51,95.0
1306,B3,255.75,0.25,36,95.0
1307,A3,256.0,0.25,36,95.0
1308,C5,256.0,0.5,51,95.0
1309,E5,256.0,0.5,51,95.0
1310,G3,256.25,0.25,36,95.0
1311,F#3,256.5,0.25,36,95.0
1312,C5,256.5,1.0,51,95.0
1313,E5,256.5,1.0,51,95.0
1314,A3,256.75,0.25,35,95.0
1315,C4,257.0,0.25,36,95.0
1316,D4,257.25,0.25,37,95.0
1317,E4,257.5,0.25,39,95.0
1318,B4,257.5,0.25,47,95.0
1319,D5,257.5,0.25,47,95.0
1320,F#4,257.75,0.25,40,95.0
1321,A4,257.75,0.25,47,95.0
1322,C5,257.75,0.25,47,95.0
1323,B4,258.0,0.25,49,95.0
1324,G4,258.0,1.0,46,95.0
1325,C5,258.25,0.25,45,95.0
1326,B4,258.5,0.25,49,95.0
1327,C5,258.75,0.25,45,95.0
1328,B4,259.0,0.25,49,95.0
1329,F4,259.0,0.5,45,95.0
1330,D5,259.25,0.25,45,95.0
1331,C5,259.5,0.5,51,95.0
1332,E4,259.5,0.25,45,95.0
1333,G4,259.75,0.25,42,95.0
1334,D5,260.0,0.5,51,95.0
1335,D4,260.0,0.25,44,95.0
1336,F4,260.25,0.25,40,95.0
1337,E5,260.5,0.5,51,95.0
1338,C4,260.5,0.25,43,95.0
1339,E4,260.75,0.25,38,95.0
1340,D5,261.0,0.5,53,95.0
1341,B3,261.0,0.25,42,95.0
1342,D4,261.25,0.25,39,95.0
1343,G5,261.5,0.5,57,95.0
1344,G3,261.5,0.25,42,95.0
1345,B3,261.75,0.25,39,95.0
1346,G5,262.0,0.5,57,95.0
1347,F#3,262.0,0.25,42,95.0
1348,A3,262.25,0.25,39,95.0
1349,A5,262.5,0.25,60,95.0
1350,E3,262.5,0.25,43,95.0
1351,G5,262.75,0.25,59,95.0
1352,G3,262.75,0.25,42,95.0
1353,F#5,263.0,0.25,57,95.0
1354,A3,263.0,0.25,41,95.0
1355,E5,263.25,0.25,56,95.0
1356,C#4,263.25,0.25,41,95.0
1357,D5,263.5,0.25,55,95.0
1358,E4,263.5,0.25,40,95.0
1359,C#5,263.75,0.25,54,95.0
1360,G4,263.75,0.25,39,95.0
1361,E5,264.0,0.5,47,95.0
1362,D4,264.0,1.0,40,95.0
1363,G4,264.0,0.5,39,95.0
1364,D5,264.5,0.5,44,95.0
1365,D4,264.5,1.0,34,95.0
1366,F#4,264.5,0.5,34,95.0
1367,D5,265.0,0.5,41,95.0
1368,D4,265.0,0.5,34,95.0
1369,F#4,265.0,0.5,34,95.0
1370,D5,265.5,0.5,41,95.0
1371,D4,265.5,1.0,32,95.0
1372,F#4,265.5,1.0,32,95.0
1373,G5,266.5,0.5,53,95.0
1374,B4,266.5,0.25,34,95.0
1375,D5,266.75,0.25,34,95.0
1376,G5,267.0,0.875,53,95.0
1377,B4,267.0,0.25,34,95.0
1378,D5,267.25,0.25,32,95.0
1379,B4,267.5,0.25,34,95.0
1380,D5,267.75,0.25,31,95.0
1381,B5,267.875,0.125,51,95.0
1382,A5,268.0,0.5,51,95.0
1383,C5,268.0,0.25,34,95.0
1384,E5,268.25,0.25,31,95.0
1385,G5,268.5,0.5,53,95.0
1386,B4,268.5,0.25,34,95.0
1387,D5,268.75,0.25,32,95.0
1388,F#5,269.0,0.5,49,95.0
1389,A4,269.0,0.25,34,95.0
1390,C5,269.25,0.25,32,95.0
1391,E5,269.5,0.5,49,95.0
1392,G4,269.5,0.25,34,95.0
1393,B4,269.75,0.25,31,95.0
1394,D5,270.0,0.5,50,95.0
1395,F#4,270.0,0.25,33,95.0
1396,A4,270.25,0.25,31,95.0
1397,D5,270.5,0.5,47,95.0
1398,F#4,270.5,0.25,33,95.0
1399,A4,270.75,0.25,32,95.0
1400,D5,271.0,0.5,47,95.0
1401,F#4,271.0,0.25,33,95.0
1402,A4,271.25,0.25,31,95.0
1403,D5,271.5,1.0,47,95.0
1404,F#4,271.5,0.25,33,95.0
1405,A4,271.75,0.25,31,95.0
1406,F#4,272.0,0.25,33,95.0
1407,A4,272.25,0.25,32,95.0
1408,E-5,272.5,0.5,51,95.0
1409,F#4,272.5,0.25,33,95.0
1410,A4,272.75,0.25,31,95.0
1411,E5,273.0,0.25,52,95.0
1412,G4,273.0,1.0,36,95.0
1413,E-5,273.25,0.25,50,95.0
1414,F#5,273.5,0.25,52,95.0
1415,E5,273.75,0.25,51,95.0
1416,G5,274.0,0.25,52,95.0
1417,F#5,274.25,0.25,51,95.0
1418,A5,274.5,0.25,52,95.0
1419,G4,274.5,1.0,33,95.0
1420,E4,274.5,1.0,33,95.0
1421,C#4,274.5,1.0,33,95.0
1422,A3,274.5,1.0,33,95.0
1423,G5,274.75,0.25,51,95.0
1424,F#5,275.0,0.25,51,95.0
1425,E5,275.25,0.25,50,95.0
1426,D5,275.5,0.25,49,95.0
1427,C#5,275.75,0.25,47,95.0
1428,D5,276.0,0.5,53,95.0
1429,D3,276.25,0.25,32,95.0
1430,F#3,276.5,0.25,33,95.0
1431,D3,276.75,0.25,31,95.0
1432,D5,277.0,0.5,46,95.0
1433,E3,277.0,0.25,32,95.0
1434,G3,277.25,0.25,35,95.0
1435,D5,277.5,0.5,51,95.0
1436,F#3,277.75,0.25,35,95.0
1437,A3,278.0,0.25,38,95.0
1438,F#3,278.25,0.25,33,95.0
1439,D5,278.5,0.5,46,95.0
1440,G3,278.5,0.25,35,95.0
1441,B3,278.75,0.25,37,95.0
1442,D5,279.0,0.5,53,95.0
1443,A3,279.25,0.25,36,95.0
1444,C4,279.5,0.25,39,95.0
1445,A3,279.75,0.25,36,95.0
1446,D5,280.0,0.5,46,95.0
1447,B3,280.0,0.25,38,95.0
1448,G3,280.25,0.25,36,95.0
1449,D5,280.5,0.5,50,95.0
1450,F#3,280.75,0.25,33,95.0
1451,A3,281.0,0.25,36,95.0
1452,F#3,281.25,0.25,33,95.0
1453,D5,281.5,0.5,41,95.0
1454,G3,281.5,0.25,36,95.0
1455,E3,281.75,0.25,33,95.0
1456,D3,282.0,0.5,34,95.0
1457,D5,282.25,0.25,41,95.0
1458,F#5,282.5,0.25,43,95.0
1459,D5,282.75,0.25,39,95.0
1460,E5,283.0,0.25,41,95.0
1461,D3,283.0,0.5,32,95.0
1462,G5,283.25,0.25,43,95.0
1463,D3,283.5,0.5,34,95.0
1464,F#5,283.75,0.25,41,95.0
1465,A5,284.0,0.25,43,95.0
1466,F#5,284.25,0.25,40,95.0
1467,G5,284.5,0.25,42,95.0
1468,D2,284.5,0.5,50,95.0
1469,B5,284.75,0.25,44,95.0
1470,D2,285.0,3.0,57,95.0
1471,A5,285.25,0.25,57,95.0
1472,C6,285.5,0.25,59,95.0
1473,F#5,285.75,0.25,54,95.0
1474,A5,286.0,0.25,57,95.0
1475,C5,286.25,0.25,53,95.0
1476,F#5,286.5,0.25,56,95.0
1477,A4,286.75,0.25,51,95.0
1478,C5,287.0,0.25,54,95.0
1479,F#4,287.25,0.25,49,95.0
1480,A4,287.5,0.25,52,95.0
1481,C4,287.75,0.25,48,95.0
1482,E5,288.0,2.5,50,95.0
1483,C3,288.25,0.25,39,95.0
1484,A3,288.5,0.25,42,95.0
1485,F#3,288.75,0.25,36,95.0
1486,C4,289.0,0.25,37,95.0
1487,A3,289.25,0.25,33,95.0
1488,F#4,289.5,1.5,36,95.0
1489,D5,290.5,0.125,44,95.0
1490,C5,290.625,0.125,44,95.0
1491,B4,290.75,0.125,44,95.0
1492,A4,290.875,0.125,44,95.0
1493,G4,291.0,0.875,49,95.0
1494,G3,291.0,1.0,40,95.0
1495,B3,291.0,1.0,40,95.0
1496,B4,291.875,0.125,47,95.0
1497,A4,292.0,0.5,47,95.0
1498,G3,292.0,0.5,38,95.0
1499,C4,292.0,0.5,38,95.0
1500,D4,292.5,0.5,49,95.0
1501,G3,292.5,1.0,40,95.0
1502,C4,292.5,1.0,40,95.0
1503,E-4,293.0,0.25,45,95.0
1504,E4,293.25,0.25,45,95.0
1505,F4,293.5,0.25,45,95.0
1506,G3,293.5,0.5,38,95.0
1507,C4,293.5,0.5,38,95.0
1508,F#4,293.75,0.25,45,95.0
1509,G4,294.0,0.5,46,95.0
1510,G3,294.0,2.5,37,95.0
1511,B3,294.0,271/1000,37,95.0
1512,B-3,294.25,0.25,33,95.0
1513,G4,294.5,0.5,45,95.0
1514,B3,294.5,271/1000,36,95.0
1515,B-3,294.75,0.25,33,95.0
1516,G4,295.0,0.5,45,95.0
1517,B3,295.0,271/1000,36,95.0
1518,B-3,295.25,0.25,33,95.0
1519,G4,295.5,1.0,45,95.0
1520,B3,295.5,1.0,36,95.0
1521,D4,296.5,0.5,45,95.0
1522,A4,296.5,0.375,45,95.0
1523,F#3,296.5,0.375,36,95.0
1524,C5,296.875,0.125,45,95.0
1525,A3,296.875,0.125,41,95.0
1526,D4,297.0,1.5,49,95.0
1527,B4,297.0,0.25,49,95.0
1528,G3,297.0,0.25,39,95.0
1529,B-4,297.25,0.25,47,95.0
1530,F#3,297.25,0.25,36,95.0
1531,B4,297.5,0.25,49,95.0
1532,G3,297.5,0.25,39,95.0
1533,B-4,297.75,0.25,46,95.0
1534,F#3,297.75,0.25,36,95.0
1535,B4,298.0,0.25,49,95.0
1536,G3,298.0,0.25,39,95.0
1537,D5,298.25,0.25,46,95.0
1538,B3,298.25,0.25,36,95.0
1539,F#4,298.5,1.0,44,95.0
1540,D4,298.5,1.5,44,95.0
1541,D5,298.5,0.5,49,95.0
1542,A3,298.5,1.0,38,95.0
1543,C5,299.0,0.5,45,95.0
1544,G3,299.5,0.5,36,95.0
1545,G4,299.5,0.5,45,95.0
1546,B4,299.5,0.5,45,95.0
1547,D3,300.0,0.25,38,95.0
1548,G4,300.0,0.5,47,95.0
1549,B4,300.0,0.5,47,95.0
1550,C#4,300.25,0.25,36,95.0
1551,D4,300.5,0.25,37,95.0
1552,F#4,300.5,0.5,45,95.0
1553,A4,300.5,0.5,45,95.0
1554,C#4,300.75,0.25,36,95.0
1555,D4,301.0,0.25,37,95.0
1556,F#4,301.0,0.5,45,95.0
1557,A4,301.0,0.5,45,95.0
1558,C#4,301.25,0.25,36,95.0
1559,D4,301.5,0.25,38,95.0
1560,F#4,301.5,1.0,45,95.0
1561,A4,301.5,1.0,45,95.0
1562,E4,301.75,0.25,36,95.0
1563,C4,302.0,0.25,38,95.0
1564,D4,302.25,0.25,36,95.0
1565,B3,302.5,0.25,39,95.0
1566,G#4,302.5,0.5,46,95.0
1567,B4,302.5,0.5,46,95.0
1568,C4,302.75,0.25,36,95.0
1569,A3,303.0,0.25,40,95.0
1570,A4,303.0,0.5,49,95.0
1571,C5,303.0,0.5,49,95.0
1572,E4,303.25,0.25,37,95.0
1573,C4,303.5,0.25,37,95.0
1574,B4,303.5,0.5,51,95.0
1575,D5,303.5,0.5,51,95.0
1576,B3,303.75,0.25,36,95.0
1577,A3,304.0,0.25,36,95.0
1578,C5,304.0,0.5,51,95.0
1579,E5,304.0,0.5,51,95.0
1580,G3,304.25,0.25,36,95.0
1581,F#3,304.5,0.25,36,95.0
1582,C5,304.5,1.0,51,95.0
1583,E5,304.5,1.0,51,95.0
1584,G3,304.75,0.25,35,95.0
1585,A3,305.0,0.25,36,95.0
1586,D3,305.25,0.25,37,95.0
1587,E3,305.5,0.25,39,95.0
1588,B4,305.5,0.25,47,95.0
1589,D5,305.5,0.25,47,95.0
1590,F#3,305.75,0.25,40,95.0
1591,A4,305.75,0.25,47,95.0
1592,C5,305.75,0.25,47,95.0
1593,G3,306.0,0.25,39,95.0
1594,G4,306.0,0.5,49,95.0
1595,B4,306.0,0.5,49,95.0
1596,F#3,306.25,0.25,38,95.0
1597,E3,306.5,0.25,37,95.0
1598,A4,306.5,0.5,46,95.0
1599,C5,306.5,0.5,46,95.0
1600,D3,306.75,0.25,36,95.0
1601,C3,307.0,0.25,35,95.0
1602,B4,307.0,0.5,46,95.0
1603,D5,307.0,0.5,46,95.0
1604,B2,307.25,0.25,34,95.0
1605,E3,307.5,0.25,38,95.0
1606,B3,307.5,0.5,47,95.0
1607,G4,307.5,0.5,47,95.0
1608,D3,307.75,0.25,37,95.0
1609,C3,308.0,0.25,36,95.0
1610,C4,308.0,0.5,45,95.0
1611,A4,308.0,0.5,45,95.0
1612,B2,308.25,0.25,35,95.0
1613,A2,308.5,0.25,33,95.0
1614,D4,308.5,0.5,45,95.0
1615,B4,308.5,0.5,45,95.0
1616,G2,308.75,0.25,32,95.0
1617,A4,309.0,0.5,46,95.0
1618,C3,309.0,0.5,39,95.0
1619,E4,309.25,0.5,46,95.0
1620,B4,309.5,0.5,45,95.0
1621,B2,309.5,0.5,36,95.0
1622,D4,309.75,0.5,45,95.0
1623,C5,310.0,0.5,45,95.0
1624,A2,310.0,0.5,36,95.0
1625,C4,310.25,0.5,45,95.0
1626,C5,310.5,0.5,45,95.0
1627,D3,310.5,1.5,39,95.0
1628,C4,310.75,0.5,45,95.0
1629,A4,311.0,0.5,45,95.0
1630,C4,311.25,0.5,45,95.0
1631,F#4,311.5,0.5,43,95.0
1632,C4,311.75,0.25,45,95.0
1633,A4,312.0,1.5,41,95.0
1634,C4,312.0,1.5,45,95.0
1635,G2,312.0,0.25,32,95.0
1636,F#3,312.25,0.25,29,95.0
1637,G3,312.5,0.25,32,95.0
1638,F#3,312.75,0.25,29,95.0
1639,G3,313.0,0.25,30,95.0
1640,F#3,313.25,0.25,27,95.0
1641,G3,313.5,0.5,26,95.0
1642,B3,313.5,0.5,31,95.0
1643,G4,313.5,0.5,31,95.0
1644,G5,314.5,0.5,53,95.0
1645,B4,314.5,0.25,34,95.0
1646,D5,314.75,0.25,34,95.0
1647,G5,315.0,0.875,53,95.0
1648,B4,315.0,0.25,34,95.0
1649,D5,315.25,0.25,32,95.0
1650,B4,315.5,0.25,34,95.0
1651,D5,315.75,0.25,31,95.0
1652,B5,315.875,0.125,51,95.0
1653,A5,316.0,0.5,51,95.0
1654,C5,316.0,0.25,34,95.0
1655,E5,316.25,0.25,31,95.0
1656,G5,316.5,0.5,53,95.0
1657,B4,316.5,0.25,34,95.0
1658,D5,316.75,0.25,32,95.0
1659,F#5,317.0,0.5,49,95.0
1660,A4,317.0,0.25,34,95.0
1661,C5,317.25,0.25,32,95.0
1662,E5,317.5,0.5,49,95.0
1663,G4,317.5,0.25,34,95.0
1664,B4,317.75,0.25,31,95.0
1665,D5,318.0,0.5,50,95.0
1666,F#4,318.0,0.25,33,95.0
1667,A4,318.25,0.25,31,95.0
1668,D5,318.5,0.5,47,95.0
1669,F#4,318.5,0.25,33,95.0
1670,A4,318.75,0.25,32,95.0
1671,D5,319.0,0.5,47,95.0
1672,F#4,319.0,0.25,33,95.0
1673,A4,319.25,0.25,31,95.0
1674,D5,319.5,1.0,47,95.0
1675,F#4,319.5,0.25,33,95.0
1676,A4,319.75,0.25,31,95.0
1677,F#4,320.0,0.25,33,95.0
1678,A4,320.25,0.25,32,95.0
1679,E-5,320.5,0.5,51,95.0
1680,F#4,320.5,0.25,33,95.0
1681,A4,320.75,0.25,31,95.0
1682,E5,321.0,0.25,52,95.0
1683,G4,321.0,1.0,36,95.0
1684,E-5,321.25,0.25,50,95.0
1685,F#5,321.5,0.25,52,95.0
1686,E5,321.75,0.25,51,95.0
1687,G5,322.0,0.25,52,95.0
1688,F#5,322.25,0.25,51,95.0
1689,A5,322.5,0.25,52,95.0
1690,G4,322.5,1.0,33,95.0
1691,E4,322.5,1.0,33,95.0
1692,C#4,322.5,1.0,33,95.0
1693,A3,322.5,1.0,33,95.0
1694,G5,322.75,0.25,51,95.0
1695,F#5,323.0,0.25,51,95.0
1696,E5,323.25,0.25,50,95.0
1697,D5,323.5,0.25,49,95.0
1698,C#5,323.75,0.25,47,95.0
1699,D5,324.0,0.5,52,95.0
1700,D3,324.25,0.25,32,95.0
1701,F#3,324.5,0.25,33,95.0
1702,D3,324.75,0.25,31,95.0
1703,D5,325.0,0.5,45,95.0
1704,E3,325.0,0.25,32,95.0
1705,G3,325.25,0.25,35,95.0
1706,D5,325.5,0.5,49,95.0
1707,F#3,325.75,0.25,35,95.0
1708,A3,326.0,0.25,38,95.0
1709,F#3,326.25,0.25,33,95.0
1710,D5,326.5,0.5,46,95.0
1711,G3,326.5,0.25,35,95.0
1712,B3,326.75,0.25,37,95.0
1713,D5,327.0,0.5,51,95.0
1714,A3,327.25,0.25,36,95.0
1715,C4,327.5,0.25,39,95.0
1716,A3,327.75,0.25,36,95.0
1717,D5,328.0,0.5,45,95.0
1718,B3,328.0,0.25,38,95.0
1719,G3,328.25,0.25,36,95.0
1720,D5,328.5,0.5,50,95.0
1721,F#3,328.75,0.25,33,95.0
1722,A3,329.0,0.25,36,95.0
1723,F#3,329.25,0.25,33,95.0
1724,D5,329.5,0.5,41,95.0
1725,G3,329.5,0.25,36,95.0
1726,E3,329.75,0.25,33,95.0
1727,D3,330.0,0.5,34,95.0
1728,D5,330.25,0.25,41,95.0
1729,F#5,330.5,0.25,43,95.0
1730,D5,330.75,0.25,39,95.0
1731,E5,331.0,0.25,41,95.0
1732,D3,331.0,0.5,32,95.0
1733,G5,331.25,0.25,43,95.0
1734,D3,331.5,0.5,34,95.0
1735,F#5,331.75,0.25,41,95.0
1736,A5,332.0,0.25,43,95.0
1737,F#5,332.25,0.25,40,95.0
1738,G5,332.5,0.25,42,95.0
1739,D2,332.5,0.5,51,95.0
1740,B5,332.75,0.25,44,95.0
1741,D2,333.0,3.0,62,95.0
1742,A5,333.25,0.25,57,95.0
1743,C6,333.5,0.25,59,95.0
1744,F#5,333.75,0.25,54,95.0
1745,A5,334.0,0.25,57,95.0
1746,C5,334.25,0.25,53,95.0
1747,F#5,334.5,0.25,56,95.0
1748,A4,334.75,0.25,51,95.0
1749,C5,335.0,0.25,54,95.0
1750,F#4,335.25,0.25,49,95.0
1751,A4,335.5,0.25,52,95.0
1752,C4,335.75,0.25,48,95.0
1753,E5,336.0,2.5,50,95.0
1754,C3,336.25,0.25,39,95.0
1755,A3,336.5,0.25,42,95.0
1756,F#3,336.75,0.25,36,95.0
1757,C4,337.0,0.25,37,95.0
1758,A3,337.25,0.25,33,95.0
1759,F#4,337.5,1.5,36,95.0
1760,D5,338.5,0.125,44,95.0
1761,C5,338.625,0.125,44,95.0
1762,B4,338.75,0.125,44,95.0
1763,A4,338.875,0.125,44,95.0
1764,G4,339.0,0.875,49,95.0
1765,G3,339.0,1.0,40,95.0
1766,B3,339.0,1.0,40,95.0
1767,B4,339.875,0.125,47,95.0
1768,A4,340.0,0.5,47,95.0
1769,G3,340.0,0.5,38,95.0
1770,C4,340.0,0.5,38,95.0
1771,D4,340.5,0.5,49,95.0
1772,G3,340.5,1.0,40,95.0
1773,C4,340.5,1.0,40,95.0
1774,E-4,341.0,0.25,45,95.0
1775,E4,341.25,0.25,45,95.0
1776,F4,341.5,0.25,45,95.0
1777,G3,341.5,0.5,38,95.0
1778,C4,341.5,0.5,38,95.0
1779,F#4,341.75,0.25,45,95.0
1780,G4,342.0,0.5,46,95.0
1781,G3,342.0,2.5,37,95.0
1782,B3,342.0,271/1000,37,95.0
1783,B-3,342.25,0.25,34,95.0
1784,G4,342.5,0.5,45,95.0
1785,B3,342.5,271/1000,36,95.0
1786,B-3,342.75,0.25,32,95.0
1787,G4,343.0,0.5,45,95.0
1788,B3,343.0,271/1000,36,95.0
1789,B-3,343.25,0.25,33,95.0
1790,G4,343.5,1.0,45,95.0
1791,B3,343.5,1.0,36,95.0
1792,D4,344.5,0.5,45,95.0
1793,A4,344.5,0.375,45,95.0
1794,F#3,344.5,0.375,36,95.0
1795,C5,344.875,0.125,45,95.0
1796,A3,344.875,0.125,41,95.0
1797,D4,345.0,1.5,49,95.0
1798,B4,345.0,0.25,49,95.0
1799,G3,345.0,0.25,39,95.0
1800,B-4,345.25,0.25,47,95.0
1801,F#3,345.25,0.25,36,95.0
1802,B4,345.5,0.25,49,95.0
1803,G3,345.5,0.25,39,95.0
1804,B-4,345.75,0.25,46,95.0
1805,F#3,345.75,0.25,36,95.0
1806,B4,346.0,0.25,49,95.0
1807,G3,346.0,0.25,39,95.0
1808,D5,346.25,0.25,46,95.0
1809,B3,346.25,0.25,36,95.0
1810,F#4,346.5,1.0,44,95.0
1811,D4,346.5,1.5,44,95.0
1812,D5,346.5,0.5,49,95.0
1813,A3,346.5,1.0,38,95.0
1814,C5,347.0,0.5,45,95.0
1815,G3,347.5,0.5,36,95.0
1816,G4,347.5,0.5,45,95.0
1817,B4,347.5,0.5,45,95.0
1818,D3,348.0,0.25,38,95.0
1819,G4,348.0,0.5,47,95.0
1820,B4,348.0,0.5,47,95.0
1821,C#4,348.25,0.25,36,95.0
1822,D4,348.5,0.25,37,95.0
1823,F#4,348.5,0.5,45,95.0
1824,A4,348.5,0.5,45,95.0
1825,C#4,348.75,0.25,36,95.0
1826,D4,349.0,0.25,37,95.0
1827,F#4,349.0,0.5,45,95.0
1828,A4,349.0,0.5,45,95.0
1829,C#4,349.25,0.25,36,95.0
1830,D4,349.5,0.25,38,95.0
1831,F#4,349.5,1.0,45,95.0
1832,A4,349.5,1.0,45,95.0
1833,E4,349.75,0.25,36,95.0
1834,C4,350.0,0.25,38,95.0
1835,D4,350.25,0.25,36,95.0
1836,B3,350.5,0.25,39,95.0
1837,G#4,350.5,0.5,46,95.0
1838,B4,350.5,0.5,46,95.0
1839,C4,350.75,0.25,36,95.0
1840,A3,351.0,0.25,40,95.0
1841,A4,351.0,0.5,49,95.0
1842,C5,351.0,0.5,49,95.0
1843,E4,351.25,0.25,37,95.0
1844,C4,351.5,0.25,37,95.0
1845,B4,351.5,0.5,51,95.0
1846,D5,351.5,0.5,51,95.0
1847,B3,351.75,0.25,36,95.0
1848,A3,352.0,0.25,36,95.0
1849,C5,352.0,0.5,51,95.0
1850,E5,352.0,0.5,51,95.0
1851,G3,352.25,0.25,36,95.0
1852,F#3,352.5,0.25,36,95.0
1853,C5,352.5,1.0,51,95.0
1854,E5,352.5,1.0,51,95.0
1855,G3,352.75,0.25,35,95.0
1856,A3,353.0,0.25,36,95.0
1857,D3,353.25,0.25,37,95.0
1858,E3,353.5,0.25,39,95.0
1859,B4,353.5,0.25,47,95.0
1860,D5,353.5,0.25,47,95.0
1861,F#3,353.75,0.25,40,95.0
1862,A4,353.75,0.25,47,95.0
1863,C5,353.75,0.25,47,95.0
1864,G3,354.0,0.25,39,95.0
1865,G4,354.0,0.5,49,95.0
1866,B4,354.0,0.5,49,95.0
1867,F#3,354.25,0.25,38,95.0
1868,E3,354.5,0.25,37,95.0
1869,A4,354.5,0.5,46,95.0
1870,C5,354.5,0.5,46,95.0
1871,D3,354.75,0.25,36,95.0
1872,C3,355.0,0.25,35,95.0
1873,B4,355.0,0.5,46,95.0
1874,D5,355.0,0.5,46,95.0
1875,B2,355.25,0.25,34,95.0
1876,E3,355.5,0.25,38,95.0
1877,B3,355.5,0.5,47,95.0
1878,G4,355.5,0.5,47,95.0
1879,D3,355.75,0.25,37,95.0
1880,C3,356.0,0.25,36,95.0
1881,C4,356.0,0.5,45,95.0
1882,A4,356.0,0.5,45,95.0
1883,B2,356.25,0.25,35,95.0
1884,A2,356.5,0.25,33,95.0
1885,D4,356.5,0.5,45,95.0
1886,B4,356.5,0.5,45,95.0
1887,G2,356.75,0.25,32,95.0
1888,A4,357.0,0.5,46,95.0
1889,C3,357.0,0.5,39,95.0
1890,E4,357.25,0.5,46,95.0
1891,B4,357.5,0.5,45,95.0
1892,B2,357.5,0.5,36,95.0
1893,D4,357.75,0.5,45,95.0
1894,C5,358.0,0.5,45,95.0
1895,A2,358.0,0.5,36,95.0
1896,C4,358.25,0.5,45,95.0
1897,C5,358.5,0.5,45,95.0
1898,D3,358.5,1.5,39,95.0
1899,C4,358.75,0.5,45,95.0
1900,A4,359.0,0.5,45,95.0
1901,C4,359.25,0.5,45,95.0
1902,F#4,359.5,0.5,43,95.0
1903,C4,359.75,0.25,45,95.0
1904,A4,360.0,1.5,41,95.0
1905,C4,360.0,1.5,45,95.0
1906,G2,360.0,0.25,32,95.0
1907,F#3,360.25,0.25,29,95.0
1908,G3,360.5,0.25,32,95.0
1909,F#3,360.75,0.25,29,95.0
1910,G3,361.0,0.25,30,95.0
1911,F#3,361.25,0.25,27,95.0
1912,G3,361.5,0.5,26,95.0
1913,B3,361.5,0.5,31,95.0
1914,G4,361.5,0.5,31,95.0
1915,D5,362.5,0.25,41,95.0
1916,D5,363.0,0.25,41,95.0
1917,G3,363.5,0.5,22,95.0
1918,B-3,363.5,0.5,22,95.0
1919,D5,364.0,0.25,44,95.0
1920,E-5,364.25,0.25,44,95.0
1921,E-5,364.5,0.25,45,95.0
1922,C4,365.0,0.5,24,95.0
1923,G3,365.0,0.5,24,95.0
1924,G5,365.5,0.25,49,95.0
1925,F#5,365.75,0.25,46,95.0
1926,F#5,366.0,0.25,46,95.0
1927,G3,366.5,0.5,26,95.0
1928,C4,366.5,0.5,26,95.0
1929,B-5,367.0,0.25,59,95.0
1930,F#5,367.25,0.25,56,95.0
1931,G5,367.5,0.25,56,95.0
1932,G3,368.0,0.5,42,95.0
1933,B-3,368.0,0.5,42,95.0
1934,B-5,368.5,0.25,63,95.0
1935,A5,368.75,0.25,66,95.0
1936,C6,369.0,0.75,74,95.0
1937,B-5,369.75,0.25,62,95.0
1938,A5,370.0,0.125,62,95.0
1939,G5,370.125,0.125,62,95.0
1940,F5,370.25,0.125,62,95.0
1941,E5,370.375,0.062,62,95.0
1942,D5,370.438,0.062,62,95.0
1943,G4,370.5,1.5,59,95.0
1944,B-4,370.5,1.5,59,95.0
1945,C#5,370.5,1.5,59,95.0
1946,E6,371.0,1.0,81,95.0
1947,C#6,371.0,1.0,81,95.0
1948,B-5,371.0,1.0,81,95.0
1949,G5,371.0,1.0,81,95.0
1950,F4,372.0,1.0,61,95.0
1951,A4,372.0,1.0,61,95.0
1952,F5,372.125,0.125,67,95.0
1953,A5,372.25,0.125,70,95.0
1954,C#6,372.375,0.125,71,95.0
1955,D6,372.5,0.125,72,95.0
1956,G5,372.625,0.125,71,95.0
1957,C#6,372.75,0.125,72,95.0
1958,D6,372.875,0.125,74,95.0
1959,E6,373.0,0.125,76,95.0
1960,E4,373.0,0.5,58,95.0
1961,G4,373.0,0.5,58,95.0
1962,A5,373.125,0.125,73,95.0
1963,D6,373.25,0.125,75,95.0
1964,E6,373.375,0.125,77,95.0
1965,F6,373.5,0.5,89,95.0
1966,D4,373.5,0.5,58,95.0
1967,F4,373.5,0.5,58,95.0
1968,D5,374.0,1.0,79,95.0
1969,F5,374.0,1.0,79,95.0
1970,B5,374.0,1.0,79,95.0
1971,G#4,374.0,1.0,62,95.0
1972,B4,374.0,1.0,62,95.0
1973,A3,375.0,1.5,58,95.0
1974,D4,375.0,1.5,58,95.0
1975,F4,375.0,1.5,58,95.0
1976,A4,375.5,0.5,64,95.0
1977,A5,375.5,0.5,64,95.0
1978,F5,376.0,0.25,57,95.0
1979,D5,376.25,0.25,57,95.0
1980,A3,376.5,1.5,49,95.0
1981,E4,376.5,1.5,49,95.0
1982,G4,376.5,1.5,49,95.0
1983,A4,377.0,0.5,60,95.0
1984,G5,377.0,0.5,60,95.0
1985,E5,377.5,0.25,54,95.0
1986,C#5,377.75,26/125,46,95.0
1987,C#5,378.0,1.0,53,95.0
1988,D5,379.0,0.375,36,95.0
1989,D3,379.0,0.375,27,95.0
1990,D4,379.0,0.375,27,95.0
1991,D5,379.5,0.5,36,95.0
1992,D3,379.5,0.5,27,95.0
1993,D4,379.5,0.5,27,95.0
1994,D5,380.5,0.25,41,95.0
1995,D5,381.0,0.25,41,95.0
1996,G3,381.5,0.5,22,95.0
1997,B-3,381.5,0.5,22,95.0
1998,D5,382.0,0.25,44,95.0
1999,E-5,382.25,0.25,44,95.0
2000,E-5,382.5,0.25,45,95.0
2001,C4,383.0,0.5,26,95.0
2002,G3,383.0,0.5,26,95.0
2003,G5,383.5,0.25,49,95.0
2004,F#5,383.75,0.25,46,95.0
2005,F#5,384.0,0.25,46,95.0
2006,G3,384.5,0.5,28,95.0
2007,C4,384.5,0.5,28,95.0
2008,B-5,385.0,0.25,59,95.0
2009,F#5,385.25,0.25,56,95.0
2010,G5,385.5,0.25,56,95.0
2011,G3,386.0,0.5,42,95.0
2012,B-3,386.0,0.5,42,95.0
2013,B-5,386.5,0.25,63,95.0
2014,A5,386.75,0.25,66,95.0
2015,C6,387.0,0.75,74,95.0
2016,B-5,387.75,0.25,62,95.0
2017,A5,388.0,0.125,62,95.0
2018,G5,388.125,0.125,62,95.0
2019,F5,388.25,0.125,62,95.0
2020,E5,388.375,0.062,62,95.0
2021,D5,388.438,0.062,62,95.0
2022,G4,388.5,1.5,59,95.0
2023,B-4,388.5,1.5,59,95.0
2024,C#5,388.5,1.5,59,95.0
2025,E6,389.0,1.0,80,95.0
2026,C#6,389.0,1.0,80,95.0
2027,B-5,389.0,1.0,80,95.0
2028,G5,389.0,1.0,80,95.0
2029,F4,390.0,1.0,61,95.0
2030,A4,390.0,1.0,61,95.0
2031,F5,390.125,0.125,67,95.0
2032,A5,390.25,0.125,70,95.0
2033,C#6,390.375,0.125,71,95.0
2034,D6,390.5,0.125,72,95.0
2035,G5,390.625,0.125,71,95.0
2036,C#6,390.75,0.125,72,95.0
2037,D6,390.875,0.125,74,95.0
2038,E6,391.0,0.125,76,95.0
2039,E4,391.0,0.5,58,95.0
2040,G4,391.0,0.5,58,95.0
2041,A5,391.125,0.125,73,95.0
2042,D6,391.25,0.125,75,95.0
2043,E6,391.375,0.125,77,95.0
2044,F6,391.5,0.5,89,95.0
2045,D4,391.5,0.5,58,95.0
2046,F4,391.5,0.5,58,95.0
2047,D5,392.0,1.0,79,95.0
2048,F5,392.0,1.0,79,95.0
2049,B5,392.0,1.0,79,95.0
2050,G#4,392.0,1.0,62,95.0
2051,B4,392.0,1.0,62,95.0
2052,A3,393.0,1.5,57,95.0
2053,D4,393.0,1.5,57,95.0
2054,F4,393.0,1.5,57,95.0
2055,A4,393.5,0.5,64,95.0
2056,A5,393.5,0.5,64,95.0
2057,F5,394.0,0.25,57,95.0
2058,D5,394.25,0.25,57,95.0
2059,A3,394.5,1.5,45,95.0
2060,E4,394.5,1.5,45,95.0
2061,G4,394.5,1.5,45,95.0
2062,A4,395.0,0.5,59,95.0
2063,G5,395.0,0.5,59,95.0
2064,E5,395.5,0.25,54,95.0
2065,C#5,395.75,0.25,48,95.0
2066,C#5,396.0,1.0,55,95.0
2067,D5,397.0,0.375,36,95.0
2068,D3,397.0,0.375,27,95.0
2069,D4,397.0,0.375,27,95.0
2070,D5,397.5,0.5,36,95.0
2071,D3,397.5,0.5,27,95.0
2072,D4,397.5,0.5,27,95.0
2073,D5,398.5,0.25,36,95.0
2074,D5,399.0,0.25,37,95.0
2075,B-3,399.5,0.5,24,95.0
2076,D4,399.5,0.5,24,95.0
2077,G4,400.0,0.5,37,95.0
2078,C5,400.5,0.5,39,95.0
2079,E-4,401.0,0.5,27,95.0
2080,A3,401.0,0.5,27,95.0
2081,F#4,401.5,0.5,37,95.0
2082,B-4,402.0,0.5,39,95.0
2083,G3,402.5,0.5,27,95.0
2084,B-3,402.5,0.5,27,95.0
2085,C#4,403.0,0.5,44,95.0
2086,D4,403.5,0.5,45,95.0
2087,D3,404.0,0.5,45,95.0
2088,D2,404.0,0.5,45,95.0
2089,G4,404.5,0.25,70,95.0
2090,B-3,404.5,0.5,55,95.0
2091,D4,404.5,0.5,55,95.0
2092,G5,404.75,0.25,63,95.0
2093,A4,405.0,0.25,68,95.0
2094,E-4,405.0,1.0,50,95.0
2095,C4,405.0,1.0,50,95.0
2096,G5,405.25,0.25,63,95.0
2097,F#5,405.5,0.25,63,95.0
2098,A4,405.75,0.25,63,95.0
2099,G4,406.0,0.25,67,95.0
2100,D4,406.0,0.5,55,95.0
2101,B-3,406.0,0.5,55,95.0
2102,G5,406.25,0.25,63,95.0
2103,A4,406.5,0.25,64,95.0
2104,C4,406.5,1.0,49,95.0
2105,E-4,406.5,1.0,49,95.0
2106,G5,406.75,0.25,64,95.0
2107,F#5,407.0,0.25,64,95.0
2108,A4,407.25,0.25,64,95.0
2109,G4,407.5,0.25,70,95.0
2110,D4,407.5,0.5,52,95.0
2111,B-3,407.5,0.5,52,95.0
2112,G5,407.75,0.25,70,95.0
2113,E-5,408.0,0.25,77,95.0
2114,C4,408.0,0.5,55,95.0
2115,F#3,408.0,1.5,46,95.0
2116,E-6,408.25,0.25,69,95.0
2117,D5,408.5,0.25,74,95.0
2118,D4,408.5,0.5,44,95.0
2119,D6,408.75,0.25,66,95.0
2120,C5,409.0,0.25,66,95.0
2121,E-4,409.0,0.5,44,95.0
2122,C6,409.25,0.5,63,95.0
2123,G3,409.5,0.5,45,95.0
2124,D4,409.5,1.5,45,95.0
2125,B-5,409.75,0.25,61,95.0
2126,A5,410.0,0.25,61,95.0
2127,A3,410.0,0.5,36,95.0
2128,G5,410.25,0.25,61,95.0
2129,F#5,410.5,0.25,61,95.0
2130,B-3,410.5,0.5,37,95.0
2131,G5,410.75,0.25,59,95.0
2132,F5,411.0,0.25,57,95.0
2133,E-4,411.0,1.5,38,95.0
2134,C4,411.0,1.5,38,95.0
2135,E-5,411.25,0.25,54,95.0
2136,D5,411.5,0.25,53,95.0
2137,C5,411.75,0.25,51,95.0
2138,B-4,412.0,0.25,48,95.0
2139,A4,412.25,0.25,46,95.0
2140,G4,412.5,0.75,42,95.0
2141,B-3,412.5,1.0,35,95.0
2142,D3,412.5,1.5,35,95.0
2143,A4,413.25,0.25,39,95.0
2144,F#4,413.5,0.5,39,95.0
2145,A3,413.5,0.5,29,95.0
2146,G4,415.0,0.25,31,95.0
2147,G2,415.0,0.25,26,95.0
2148,G3,415.0,0.25,26,95.0
2149,G4,415.5,0.25,31,95.0
2150,G2,415.5,0.25,26,95.0
2151,G3,415.5,0.25,26,95.0
2152,D5,416.5,0.25,36,95.0
2153,D5,417.0,0.25,37,95.0
2154,B-3,417.5,0.5,24,95.0
2155,D4,417.5,0.5,24,95.0
2156,G4,418.0,0.5,37,95.0
2157,C5,418.5,0.5,39,95.0
2158,E-4,419.0,0.5,27,95.0
2159,A3,419.0,0.5,27,95.0
2160,F#4,419.5,0.5,37,95.0
2161,B-4,420.0,0.5,39,95.0
2162,G3,420.5,0.5,27,95.0
2163,B-3,420.5,0.5,27,95.0
2164,C#4,421.0,0.5,44,95.0
2165,D4,421.5,0.5,45,95.0
2166,D3,422.0,0.5,45,95.0
2167,D2,422.0,0.5,45,95.0
2168,G4,422.5,0.25,70,95.0
2169,B-3,422.5,0.5,55,95.0
2170,D4,422.5,0.5,55,95.0
2171,G5,422.75,0.25,63,95.0
2172,A4,423.0,0.25,68,95.0
2173,E-4,423.0,1.0,50,95.0
2174,C4,423.0,1.0,50,95.0
2175,G5,423.25,0.25,63,95.0
2176,F#5,423.5,0.25,63,95.0
2177,A4,423.75,0.25,63,95.0
2178,G4,424.0,0.25,67,95.0
2179,D4,424.0,0.5,55,95.0
2180,B-3,424.0,0.5,55,95.0
2181,G5,424.25,0.25,67,95.0
2182,A4,424.5,0.25,64,95.0
2183,C4,424.5,1.0,49,95.0
2184,E-4,424.5,1.0,49,95.0
2185,G5,424.75,0.25,64,95.0
2186,F#5,425.0,0.25,64,95.0
2187,A4,425.25,0.25,64,95.0
2188,G4,425.5,0.25,70,95.0
2189,D4,425.5,0.5,52,95.0
2190,B-3,425.5,0.5,52,95.0
2191,G5,425.75,0.25,70,95.0
2192,E-5,426.0,0.25,75,95.0
2193,C4,426.0,0.5,57,95.0
2194,F#3,426.0,1.5,48,95.0
2195,E-6,426.25,0.25,67,95.0
2196,D5,426.5,0.25,74,95.0
2197,D4,426.5,0.5,45,95.0
2198,D6,426.75,0.25,64,95.0
2199,C5,427.0,0.25,64,95.0
2200,E-4,427.0,0.5,45,95.0
2201,C6,427.25,0.5,60,95.0
2202,G3,427.5,0.5,46,95.0
2203,D4,427.5,1.5,46,95.0
2204,B-5,427.75,0.25,57,95.0
2205,A5,428.0,0.25,57,95.0
2206,A3,428.0,0.5,36,95.0
2207,G5,428.25,0.25,57,95.0
2208,F#5,428.5,0.25,57,95.0
2209,B-3,428.5,0.5,36,95.0
2210,G5,428.75,0.25,56,95.0
2211,F5,429.0,0.25,55,95.0
2212,E-4,429.0,1.5,38,95.0
2213,C4,429.0,1.5,38,95.0
2214,E-5,429.25,0.25,54,95.0
2215,D5,429.5,0.25,52,95.0
2216,C5,429.75,0.25,49,95.0
2217,B-4,430.0,0.25,45,95.0
2218,A4,430.25,0.25,44,95.0
2219,G4,430.5,0.75,42,95.0
2220,B-3,430.5,1.0,35,95.0
2221,D3,430.5,1.5,35,95.0
2222,A4,431.25,0.25,39,95.0
2223,F#4,431.5,0.5,39,95.0
2224,A3,431.5,0.5,29,95.0
2225,G4,433.0,0.25,31,95.0
2226,G2,433.0,0.25,26,95.0
2227,G3,433.0,0.25,26,95.0
2228,G4,433.5,0.25,31,95.0
2229,G2,433.5,0.25,26,95.0
2230,G3,433.5,0.25,26,95.0
2231,G4,434.5,0.5,44,95.0
2232,G3,434.5,0.5,34,95.0
2233,B3,434.5,0.5,34,95.0
2234,G4,435.0,0.875,45,95.0
2235,G3,435.0,1.0,36,95.0
2236,B3,435.0,1.0,36,95.0
2237,B4,435.875,0.125,42,95.0
2238,A4,436.0,0.5,45,95.0
2239,G3,436.0,0.5,32,95.0
2240,C4,436.0,0.5,32,95.0
2241,D4,436.5,0.5,45,95.0
2242,G3,436.5,1.0,34,95.0
2243,C4,436.5,1.0,34,95.0
2244,F#4,437.0,0.25,48,95.0
2245,E4,437.25,229/1000,43,95.0
2246,G4,437.5,0.25,50,95.0
2247,G3,437.5,0.5,36,95.0
2248,C4,437.5,0.5,36,95.0
2249,F#4,437.75,229/1000,45,95.0
2250,A4,438.0,0.25,52,95.0
2251,G3,438.0,1.0,37,95.0
2252,B3,438.0,1.0,37,95.0
2253,G4,438.25,229/1000,48,95.0
2254,C5,438.5,0.25,54,95.0
2255,B4,438.75,229/1000,50,95.0
2256,D5,439.0,0.25,55,95.0
2257,G3,439.0,0.5,30,95.0
2258,B3,439.0,0.5,30,95.0
2259,B4,439.25,229/1000,51,95.0
2260,G4,439.5,1.0,49,95.0
2261,G3,439.5,1.0,33,95.0
2262,B3,439.5,1.0,33,95.0
2263,F#3,440.5,0.5,44,95.0
2264,D4,440.5,0.5,51,95.0
2265,A4,440.5,0.5,51,95.0
2266,D4,441.0,1.5,51,95.0
2267,B-4,441.0,0.25,51,95.0
2268,G3,441.0,0.25,40,95.0
2269,B4,441.25,0.25,54,95.0
2270,G#3,441.25,0.25,44,95.0
2271,C5,441.5,0.25,58,95.0
2272,A3,441.5,0.25,47,95.0
2273,C#5,441.75,0.25,61,95.0
2274,B-3,441.75,0.25,50,95.0
2275,D5,442.0,0.5,64,95.0
2276,B3,442.0,0.5,55,95.0
2277,F#4,442.5,1.0,55,95.0
2278,D4,442.5,1.5,55,95.0
2279,D5,442.5,0.5,55,95.0
2280,A3,442.5,1.0,50,95.0
2281,C5,443.0,0.5,56,95.0
2282,G3,443.5,0.5,48,95.0
2283,G4,443.5,0.5,50,95.0
2284,B4,443.5,0.5,50,95.0
2285,D3,444.0,0.75,51,95.0
2286,G4,444.0,0.5,56,95.0
2287,B4,444.0,0.5,56,95.0
2288,F#4,444.5,0.5,54,95.0
2289,A4,444.5,0.5,54,95.0
2290,E3,444.75,0.125,50,95.0
2291,F#3,444.875,0.125,51,95.0
2292,G3,445.0,0.125,54,95.0
2293,F#4,445.0,0.5,54,95.0
2294,A4,445.0,0.5,54,95.0
2295,A3,445.125,0.125,54,95.0
2296,B3,445.25,0.125,55,95.0
2297,C#4,445.375,0.125,56,95.0
2298,D4,445.5,0.5,59,95.0
2299,F#4,445.5,1.0,54,95.0
2300,A4,445.5,1.0,54,95.0
2301,C4,446.0,0.5,52,95.0
2302,B3,446.5,0.5,52,95.0
2303,G#4,446.5,0.5,55,95.0
2304,B4,446.5,0.5,55,95.0
2305,C5,447.0,0.125,57,95.0
2306,A3,447.0,1.0,48,95.0
2307,A4,447.125,0.125,59,95.0
2308,B4,447.25,0.125,60,95.0
2309,C5,447.375,0.125,61,95.0
2310,D5,447.5,0.125,63,95.0
2311,E5,447.625,0.125,63,95.0
2312,F#5,447.75,0.125,65,95.0
2313,G#5,447.875,0.125,66,95.0
2314,A5,448.0,0.125,67,95.0
2315,G3,448.0,0.5,46,95.0
2316,B5,448.125,0.125,68,95.0
2317,C6,448.25,0.125,70,95.0
2318,D6,448.375,0.125,71,95.0
2319,F#3,448.5,1.5,48,95.0
2320,C6,448.5,0.5,72,95.0
2321,E6,448.5,0.5,72,95.0
2322,B5,449.0,0.5,61,95.0
2323,D6,449.0,0.5,61,95.0
2324,A5,449.5,0.5,61,95.0
2325,C6,449.5,0.25,61,95.0
2326,D4,449.5,0.5,46,95.0
2327,D6,449.75,83/1000,61,95.0
2328,C6,449.833,83/1000,61,95.0
2329,B5,449.917,83/1000,61,95.0
2330,C6,450.0,0.5,63,95.0
2331,A5,450.0,0.5,61,95.0
2332,G3,450.0,3.0,48,95.0
2333,D4,450.0,1.0,46,95.0
2334,G5,450.5,0.5,60,95.0
2335,B5,450.5,0.5,60,95.0
2336,D6,451.0,0.375,59,95.0
2337,F4,451.0,0.5,44,95.0
2338,E6,451.375,0.125,50,95.0
2339,D6,451.5,0.25,59,95.0
2340,E4,451.5,0.5,41,95.0
2341,C6,451.75,0.094,55,95.0
2342,D6,451.875,0.125,49,95.0
2343,C6,452.0,0.25,59,95.0
2344,D4,452.0,0.5,41,95.0
2345,B5,452.25,0.094,55,95.0
2346,C6,452.375,0.125,50,95.0
2347,B5,452.5,0.25,59,95.0
2348,C4,452.5,0.5,41,95.0
2349,A5,452.75,0.094,55,95.0
2350,B5,452.875,0.125,50,95.0
2351,A5,453.0,0.25,59,95.0
2352,G3,453.0,2.5,41,95.0
2353,B3,453.0,0.5,41,95.0
2354,G5,453.25,0.094,55,95.0
2355,A5,453.375,0.125,50,95.0
2356,G5,453.5,0.25,59,95.0
2357,A3,453.5,0.5,39,95.0
2358,F#5,453.75,0.5,54,95.0
2359,C4,454.0,0.5,39,95.0
2360,A5,454.25,0.5,59,95.0
2361,B3,454.5,0.5,36,95.0
2362,G5,454.75,0.5,56,95.0
2363,G4,455.0,1.0,35,95.0
2364,E5,455.25,0.5,52,95.0
2365,A3,455.5,0.5,32,95.0
2366,C#5,455.75,0.25,47,95.0
2367,C#5,456.0,0.25,47,95.0
2368,D4,456.0,2.0,34,95.0
2369,G4,456.0,0.5,35,95.0
2370,D5,456.25,0.25,39,95.0
2371,E5,456.5,0.25,43,95.0
2372,F#4,456.5,0.5,32,95.0
2373,D5,456.75,0.25,39,95.0
2374,E5,457.0,0.25,43,95.0
2375,F#4,457.0,0.5,32,95.0
2376,D5,457.25,0.25,39,95.0
2377,D5,457.5,0.5,39,95.0
2378,F#4,457.5,0.5,29,95.0
2379,G4,458.5,0.5,44,95.0
2380,G3,458.5,0.5,34,95.0
2381,B3,458.5,0.5,34,95.0
2382,G4,459.0,0.875,45,95.0
2383,G3,459.0,1.0,36,95.0
2384,B3,459.0,1.0,36,95.0
2385,B4,459.875,0.125,42,95.0
2386,A4,460.0,0.5,45,95.0
2387,G3,460.0,0.5,32,95.0
2388,C4,460.0,0.5,32,95.0
2389,D4,460.5,0.5,45,95.0
2390,G3,460.5,1.0,34,95.0
2391,C4,460.5,1.0,34,95.0
2392,F#4,461.0,0.25,48,95.0
2393,E4,461.25,229/1000,45,95.0
2394,G4,461.5,0.25,52,95.0
2395,G3,461.5,0.5,36,95.0
2396,C4,461.5,0.5,36,95.0
2397,F#4,461.75,229/1000,46,95.0
2398,A4,462.0,0.25,52,95.0
2399,G3,462.0,1.0,37,95.0
2400,B3,462.0,1.0,37,95.0
2401,G4,462.25,229/1000,46,95.0
2402,C5,462.5,0.25,54,95.0
2403,B4,462.75,229/1000,51,95.0
2404,D5,463.0,0.25,55,95.0
2405,G3,463.0,0.5,30,95.0
2406,B3,463.0,0.5,30,95.0
2407,B4,463.25,229/1000,51,95.0
2408,G4,463.5,1.0,49,95.0
2409,G3,463.5,1.0,33,95.0
2410,B3,463.5,1.0,33,95.0
2411,F#3,464.5,0.5,44,95.0
2412,D4,464.5,0.5,51,95.0
2413,A4,464.5,0.5,51,95.0
2414,D4,465.0,1.5,51,95.0
2415,B-4,465.0,0.25,51,95.0
2416,G3,465.0,0.25,40,95.0
2417,B4,465.25,0.25,54,95.0
2418,G#3,465.25,0.25,44,95.0
2419,C5,465.5,0.25,58,95.0
2420,A3,465.5,0.25,47,95.0
2421,C#5,465.75,0.25,61,95.0
2422,B-3,465.75,0.25,50,95.0
2423,D5,466.0,0.5,64,95.0
2424,B3,466.0,0.5,55,95.0
2425,F#4,466.5,1.0,55,95.0
2426,D4,466.5,1.5,55,95.0
2427,D5,466.5,0.5,55,95.0
2428,A3,466.5,1.0,50,95.0
2429,C5,467.0,0.5,56,95.0
2430,G3,467.5,0.5,48,95.0
2431,G4,467.5,0.5,51,95.0
2432,B4,467.5,0.5,51,95.0
2433,D3,468.0,0.75,51,95.0
2434,G4,468.0,0.5,56,95.0
2435,B4,468.0,0.5,56,95.0
2436,F#4,468.5,0.5,54,95.0
2437,A4,468.5,0.5,54,95.0
2438,E3,468.75,0.125,49,95.0
2439,F#3,468.875,0.125,50,95.0
2440,G3,469.0,0.125,52,95.0
2441,F#4,469.0,0.5,54,95.0
2442,A4,469.0,0.5,54,95.0
2443,A3,469.125,0.125,54,95.0
2444,B3,469.25,0.125,55,95.0
2445,C#4,469.375,0.125,55,95.0
2446,D4,469.5,0.5,57,95.0
2447,F#4,469.5,1.0,54,95.0
2448,A4,469.5,1.0,54,95.0
2449,C4,470.0,0.5,52,95.0
2450,B3,470.5,0.5,52,95.0
2451,G#4,470.5,0.5,55,95.0
2452,B4,470.5,0.5,55,95.0
2453,C5,471.0,0.125,61,95.0
2454,A3,471.0,1.0,48,95.0
2455,A4,471.125,0.125,61,95.0
2456,B4,471.25,0.125,62,95.0
2457,C5,471.375,0.125,63,95.0
2458,D5,471.5,0.125,64,95.0
2459,E5,471.625,0.125,65,95.0
2460,F#5,471.75,0.125,66,95.0
2461,G#5,471.875,0.125,66,95.0
2462,A5,472.0,0.125,67,95.0
2463,G3,472.0,0.5,46,95.0
2464,B5,472.125,0.125,68,95.0
2465,C6,472.25,0.125,70,95.0
2466,D6,472.375,0.125,71,95.0
2467,F#3,472.5,1.5,48,95.0
2468,C6,472.5,0.5,72,95.0
2469,E6,472.5,0.5,72,95.0
2470,B5,473.0,0.5,61,95.0
2471,D6,473.0,0.5,61,95.0
2472,A5,473.5,0.5,61,95.0
2473,C6,473.5,0.25,61,95.0
2474,D4,473.5,0.5,46,95.0
2475,D6,473.75,83/1000,61,95.0
2476,C6,473.833,83/1000,61,95.0
2477,B5,473.917,83/1000,61,95.0
2478,C6,474.0,0.5,63,95.0
2479,A5,474.0,0.5,61,95.0
2480,G3,474.0,3.0,48,95.0
2481,D4,474.0,1.0,46,95.0
2482,G5,474.5,0.5,60,95.0
2483,B5,474.5,0.5,60,95.0
2484,D6,475.0,0.375,59,95.0
2485,F4,475.0,0.5,44,95.0
2486,E6,475.375,0.125,50,95.0
2487,D6,475.5,0.25,59,95.0
2488,E4,475.5,0.5,41,95.0
2489,C6,475.75,0.094,55,95.0
2490,D6,475.875,0.125,49,95.0
2491,C6,476.0,0.25,59,95.0
2492,D4,476.0,0.5,41,95.0
2493,B5,476.25,0.094,55,95.0
2494,C6,476.375,0.125,50,95.0
2495,B5,476.5,0.25,59,95.0
2496,C4,476.5,0.5,41,95.0
2497,A5,476.75,0.094,55,95.0
2498,B5,476.875,0.125,50,95.0
2499,A5,477.0,0.25,59,95.0
2500,G3,477.0,2.5,41,95.0
2501,B3,477.0,0.5,41,95.0
2502,G5,477.25,0.094,55,95.0
2503,A5,477.375,0.125,50,95.0
2504,G5,477.5,0.25,59,95.0
2505,A3,477.5,0.5,39,95.0
2506,F#5,477.75,0.5,54,95.0
2507,C4,478.0,0.5,39,95.0
2508,A5,478.25,0.5,59,95.0
2509,B3,478.5,0.5,36,95.0
2510,G5,478.75,0.5,56,95.0
2511,G4,479.0,1.0,35,95.0
2512,E5,479.25,0.5,52,95.0
2513,A3,479.5,0.5,32,95.0
2514,C#5,479.75,0.25,47,95.0
2515,C#5,480.0,0.25,47,95.0
2516,D4,480.0,2.0,34,95.0
2517,G4,480.0,0.5,35,95.0
2518,D5,480.25,0.25,39,95.0
2519,E5,480.5,0.25,43,95.0
2520,F#4,480.5,0.5,32,95.0
2521,D5,480.75,0.25,39,95.0
2522,E5,481.0,0.25,43,95.0
2523,F#4,481.0,0.5,32,95.0
2524,D5,481.25,0.25,39,95.0
2525,D5,481.5,0.5,39,95.0
2526,F#4,481.5,0.5,29,95.0
2527,G5,482.5,0.5,43,95.0
2528,B4,482.5,0.5,36,95.0
2529,D5,482.5,0.5,36,95.0
2530,F#5,483.0,0.25,43,95.0
2531,B4,483.0,1.0,39,95.0
2532,D5,483.0,1.0,39,95.0
2533,G5,483.25,0.188,43,95.0
2534,A5,483.5,0.25,45,95.0
2535,G5,483.75,0.188,43,95.0
2536,A5,484.0,0.25,46,95.0
2537,C5,484.0,0.5,36,95.0
2538,E5,484.0,0.5,36,95.0
2539,G5,484.25,0.188,43,95.0
2540,A5,484.5,0.25,46,95.0
2541,B4,484.5,0.5,40,95.0
2542,D5,484.5,0.5,40,95.0
2543,G5,484.75,0.188,43,95.0
2544,G5,485.0,0.25,46,95.0
2545,A4,485.0,0.5,36,95.0
2546,C5,485.0,0.5,36,95.0
2547,F#5,485.25,0.188,43,95.0
2548,F#5,485.5,0.25,45,95.0
2549,G4,485.5,0.5,36,95.0
2550,B4,485.5,0.5,36,95.0
2551,E5,485.75,0.188,43,95.0
2552,E5,486.0,0.25,47,95.0
2553,F#4,486.0,1.0,41,95.0
2554,A4,486.0,1.0,41,95.0
2555,D5,486.25,0.188,45,95.0
2556,D5,486.5,0.125,44,95.0
2557,D5,486.75,0.125,45,95.0
2558,D5,487.0,0.125,45,95.0
2559,F#4,487.0,0.5,36,95.0
2560,A4,487.0,0.5,36,95.0
2561,D5,487.25,0.125,46,95.0
2562,E5,487.5,0.25,51,95.0
2563,F#4,487.5,1.0,45,95.0
2564,A4,487.5,1.0,45,95.0
2565,E-5,487.75,0.25,47,95.0
2566,E-5,488.0,0.125,47,95.0
2567,E-5,488.25,0.125,47,95.0
2568,E-5,488.5,0.125,47,95.0
2569,F#4,488.5,0.5,43,95.0
2570,A4,488.5,0.5,43,95.0
2571,E-5,488.75,0.125,47,95.0
2572,E-5,489.0,0.25,52,95.0
2573,G4,489.0,1.5,49,95.0
2574,B4,489.0,1.5,49,95.0
2575,E5,489.25,0.25,49,95.0
2576,F#5,489.5,0.25,49,95.0
2577,E5,489.75,0.25,49,95.0
2578,G5,490.0,0.25,52,95.0
2579,F#5,490.25,0.25,49,95.0
2580,A5,490.5,0.25,50,95.0
2581,A3,490.5,1.5,44,95.0
2582,E4,490.5,1.5,44,95.0
2583,G4,490.5,1.5,44,95.0
2584,G5,490.75,0.25,51,95.0
2585,F#5,491.0,0.25,53,95.0
2586,E5,491.25,0.25,54,95.0
2587,D5,491.5,0.25,56,95.0
2588,C#5,491.75,0.25,59,95.0
2589,D5,492.0,0.25,79,95.0
2590,D6,492.25,0.25,65,95.0
2591,D5,492.5,0.125,60,95.0
2592,F#3,492.5,0.5,46,95.0
2593,D3,492.5,0.5,46,95.0
2594,D5,492.75,0.125,60,95.0
2595,D5,493.0,0.125,60,95.0
2596,G3,493.0,0.25,47,95.0
2597,E3,493.0,0.25,47,95.0
2598,D5,493.25,0.125,60,95.0
2599,D5,493.5,0.25,81,95.0
2600,D6,493.75,0.25,65,95.0
2601,D5,494.0,0.125,60,95.0
2602,A3,494.0,0.5,45,95.0
2603,F#3,494.0,0.5,45,95.0
2604,D5,494.25,0.125,60,95.0
2605,D5,494.5,0.125,60,95.0
2606,G3,494.5,0.25,46,95.0
2607,B3,494.5,0.25,46,95.0
2608,D5,494.75,0.125,60,95.0
2609,D5,495.0,0.125,79,95.0
2610,F#5,495.125,0.125,57,95.0
2611,A5,495.25,0.125,61,95.0
2612,D6,495.375,0.125,55,95.0
2613,D5,495.5,0.125,62,95.0
2614,A3,495.5,0.5,46,95.0
2615,C4,495.5,0.5,46,95.0
2616,D5,495.75,0.125,57,95.0
2617,D5,496.0,0.125,57,95.0
2618,G3,496.0,0.25,47,95.0
2619,B3,496.0,0.25,47,95.0
2620,D5,496.25,0.125,57,95.0
2621,D5,496.5,0.125,76,95.0
2622,F#5,496.625,0.125,54,95.0
2623,A5,496.75,0.125,59,95.0
2624,D6,496.875,0.125,52,95.0
2625,D5,497.0,0.125,57,95.0
2626,F#3,497.0,0.5,44,95.0
2627,A3,497.0,0.5,44,95.0
2628,D5,497.25,0.125,57,95.0
2629,D5,497.5,0.125,57,95.0
2630,G3,497.5,0.25,44,95.0
2631,E3,497.5,0.25,44,95.0
2632,D5,497.75,0.125,57,95.0
2633,D5,498.0,0.25,75,95.0
2634,D3,498.0,0.5,44,95.0
2635,F#3,498.0,0.5,44,95.0
2636,D6,498.25,0.25,59,95.0
2637,D6,498.5,0.125,57,95.0
2638,F#4,498.5,0.5,43,95.0
2639,D4,498.5,0.5,43,95.0
2640,D6,498.75,0.125,57,95.0
2641,D6,499.0,0.125,57,95.0
2642,G4,499.0,0.5,41,95.0
2643,E4,499.0,0.5,41,95.0
2644,D6,499.25,0.125,57,95.0
2645,C#6,499.5,0.25,68,95.0
2646,D6,499.75,0.25,59,95.0
2647,D6,500.0,0.125,57,95.0
2648,A4,500.0,0.5,42,95.0
2649,F#4,500.0,0.5,42,95.0
2650,D6,500.25,0.125,57,95.0
2651,D6,500.5,0.125,57,95.0
2652,G4,500.5,0.5,41,95.0
2653,B-4,500.5,0.5,41,95.0
2654,D6,500.75,0.125,57,95.0
2655,E-6,501.0,0.25,73,95.0
2656,D6,501.25,0.25,59,95.0
2657,D6,501.5,0.125,57,95.0
2658,C5,501.5,0.5,40,95.0
2659,A4,501.5,0.5,40,95.0
2660,D6,501.75,0.125,57,95.0
2661,D6,502.0,0.125,57,95.0
2662,B-4,502.0,0.5,36,95.0
2663,G4,502.0,0.5,36,95.0
2664,D6,502.25,0.125,57,95.0
2665,C#6,502.5,0.25,67,95.0
2666,D6,502.75,0.25,59,95.0
2667,D6,503.0,0.125,57,95.0
2668,A4,503.0,0.5,37,95.0
2669,F#4,503.0,0.5,37,95.0
2670,D6,503.25,0.125,57,95.0
2671,D6,503.5,0.125,57,95.0
2672,E4,503.5,0.5,36,95.0
2673,G4,503.5,0.5,36,95.0
2674,D6,503.75,0.125,57,95.0
2675,D6,504.0,0.125,58,95.0
2676,D4,504.0,1.0,37,95.0
2677,F#4,504.0,1.0,37,95.0
2678,D6,504.25,0.125,58,95.0
2679,D6,504.5,0.125,58,95.0
2680,D6,504.75,0.125,57,95.0
2681,D6,505.0,0.125,55,95.0
2682,D6,505.25,0.125,55,95.0
2683,D6,505.5,0.25,54,95.0
2684,D6,506.0,0.25,52,95.0
2685,D6,506.5,0.25,52,95.0
2686,C6,507.0,0.25,51,95.0
2687,D6,507.0,0.25,51,95.0
2688,C6,507.5,0.25,49,95.0
2689,D6,507.5,0.25,49,95.0
2690,C6,508.0,0.25,49,95.0
2691,D6,508.0,0.25,49,95.0
2692,A5,508.5,0.375,33,95.0
2693,C6,508.5,0.375,46,95.0
2694,D6,508.5,0.375,46,95.0
2695,A5,509.0,0.375,31,95.0
2696,C6,509.0,0.375,45,95.0
2697,D6,509.0,0.375,45,95.0
2698,A5,509.5,0.375,31,95.0
2699,C6,509.5,0.375,45,95.0
2700,D6,509.5,0.375,45,95.0
2701,C6,510.0,0.5,42,95.0
2702,D6,510.0,0.5,42,95.0
2703,F#5,510.0,0.5,26,95.0
2704,A5,510.0,0.5,26,95.0
2705,C6,510.5,0.5,40,95.0
2706,D6,510.5,0.5,40,95.0
2707,F#5,510.5,0.5,25,95.0
2708,A5,510.5,0.5,25,95.0
2709,C6,511.0,0.5,37,95.0
2710,D6,511.0,0.5,37,95.0
2711,F#5,511.0,0.5,23,95.0
2712,A5,511.0,0.5,23,95.0
2713,C6,511.5,1.5,36,95.0
2714,D6,511.5,1.5,36,95.0
2715,F#5,511.5,1.5,21,95.0
2716,A5,511.5,1.5,21,95.0
2717,C5,514.0,0.5,31,95.0
2718,D5,514.0,0.5,31,95.0
2719,F#4,514.0,0.5,21,95.0
2720,A4,514.0,0.5,21,95.0
2721,D5,514.5,1.0,31,95.0
2722,C5,514.5,1.0,31,95.0
2723,F#4,514.5,1.0,21,95.0
2724,A4,514.5,1.0,21,95.0
2725,G4,515.5,0.5,46,95.0
2726,G3,515.5,0.5,38,95.0
2727,B3,515.5,0.5,38,95.0
2728,G4,516.0,0.875,49,95.0
2729,G3,516.0,1.0,40,95.0
2730,B3,516.0,1.0,40,95.0
2731,B4,516.875,0.125,47,95.0
2732,A4,517.0,0.5,47,95.0
2733,G3,517.0,0.5,38,95.0
2734,C4,517.0,0.5,38,95.0
2735,D4,517.5,0.5,49,95.0
2736,G3,517.5,1.0,40,95.0
2737,C4,517.5,1.0,40,95.0
2738,E4,518.0,0.5,45,95.0
2739,F#4,518.5,0.25,45,95.0
2740,G3,518.5,0.5,38,95.0
2741,C4,518.5,0.5,38,95.0
2742,G4,518.75,83/1000,45,95.0
2743,F#4,518.812,83/1000,45,95.0
2744,E4,518.875,83/1000,45,95.0
2745,F#4,518.938,0.062,45,95.0
2746,G4,519.0,0.188,46,95.0
2747,F#4,519.0,21/1000,45,95.0
2748,G3,519.0,0.188,37,95.0
2749,B3,519.0,0.188,37,95.0
2750,G4,519.5,0.188,45,95.0
2751,G3,519.5,0.188,36,95.0
2752,B3,519.5,0.188,36,95.0
2753,G4,520.0,0.188,45,95.0
2754,G3,520.0,0.188,36,95.0
2755,B3,520.0,0.188,36,95.0
2756,G4,520.5,1.0,45,95.0
2757,G3,520.5,1.0,36,95.0
2758,B3,520.5,1.0,36,95.0
2759,D3,521.5,0.5,52,95.0
2760,D4,521.5,0.5,56,95.0
2761,F#4,521.5,0.5,56,95.0
2762,A4,521.5,0.5,56,95.0
2763,D4,522.0,0.5,60,95.0
2764,G4,522.0,0.5,60,95.0
2765,B4,522.0,0.5,60,95.0
2766,G3,522.0,0.5,55,95.0
2767,B3,522.0,0.5,55,95.0
2768,G2,522.854,229/500,43,95.0
2769,B2,522.854,229/500,43,95.0
2770,D3,522.854,229/500,43,95.0
2771,G3,522.917,0.438,49,95.0
2772,D4,522.938,0.375,54,95.0
2773,G4,522.938,0.375,54,95.0
2774,B4,522.938,0.375,54,95.0
2775,D5,523.0,177/500,60,95.0
2776,A2,523.354,138/125,43,95.0
2777,C3,523.354,138/125,43,95.0
2778,F#3,523.354,138/125,43,95.0
2779,A3,523.417,1083/1000,49,95.0
2780,D4,523.438,1021/1000,56,95.0
2781,F#4,523.438,1021/1000,56,95.0
2782,A4,523.438,1021/1000,56,95.0
2783,C5,523.5,1.0,61,95.0
2784,D4,524.5,0.5,54,95.0
2785,G4,524.5,0.5,54,95.0
2786,B4,524.5,0.5,54,95.0
2787,B2,524.5,0.5,48,95.0
2788,D3,524.5,0.5,48,95.0
2789,G3,524.5,0.5,48,95.0
2790,D4,525.0,0.125,54,95.0
2791,E4,525.125,0.125,54,95.0
2792,F#4,525.25,0.125,54,95.0
2793,G4,525.375,0.125,54,95.0
2794,A4,525.5,0.125,56,95.0
2795,B4,525.625,0.125,59,95.0
2796,C#5,525.75,0.125,60,95.0
2797,D5,525.875,0.125,61,95.0
2798,E5,526.0,0.125,63,95.0
2799,F#5,526.125,0.125,63,95.0
2800,G5,526.25,0.062,64,95.0
2801,A5,526.312,0.062,65,95.0
2802,B5,526.375,0.062,66,95.0
2803,C#6,526.438,0.062,69,95.0
2804,D6,526.5,1.0,84,95.0
2805,D2,526.5,1.0,47,95.0
2806,F#2,526.5,1.0,47,95.0
2807,A2,526.5,1.0,47,95.0
2808,D3,526.5,1.0,47,95.0
2809,E4,527.5,0.5,26,95.0
2810,G#4,527.5,0.5,43,95.0
2811,B4,527.5,0.5,43,95.0
2812,C4,528.0,0.5,27,95.0
2813,A4,528.0,0.5,45,95.0
2814,C5,528.0,0.5,45,95.0
2815,B3,528.5,0.5,27,95.0
2816,B4,528.5,0.5,45,95.0
2817,D5,528.5,0.5,45,95.0
2818,A3,529.0,0.25,27,95.0
2819,C5,529.0,0.25,40,95.0
2820,E5,529.0,0.25,40,95.0
2821,A3,529.5,0.5,25,95.0
2822,C5,529.5,0.5,36,95.0
2823,E5,529.5,0.5,36,95.0
2824,D4,530.5,0.5,28,95.0
2825,F#4,530.5,0.5,45,95.0
2826,A4,530.5,0.5,45,95.0
2827,B3,531.0,0.5,29,95.0
2828,G4,531.0,0.5,47,95.0
2829,B4,531.0,0.5,47,95.0
2830,A3,531.5,0.5,29,95.0
2831,A4,531.5,0.5,46,95.0
2832,C5,531.5,0.5,46,95.0
2833,G3,532.0,0.25,26,95.0
2834,B4,532.0,0.25,41,95.0
2835,D5,532.0,0.25,41,95.0
2836,G3,532.5,0.5,26,95.0
2837,B4,532.5,0.5,37,95.0
2838,D5,532.5,0.5,37,95.0
2839,G4,533.5,0.5,39,95.0
2840,E3,533.5,0.5,31,95.0
2841,A4,534.0,0.25,43,95.0
2842,C3,534.0,0.25,31,95.0
2843,B4,534.5,0.25,44,95.0
2844,C5,535.0,0.25,44,95.0
2845,D4,535.5,0.25,44,95.0
2846,D3,535.5,0.25,27,95.0
2847,E4,536.0,0.25,42,95.0
2848,F#4,536.5,0.25,42,95.0
2849,G3,537.0,0.25,36,95.0
2850,D3,537.5,0.25,33,95.0
2851,B2,538.0,0.25,33,95.0
2852,G2,538.375,151/250,40,95.0
2853,B2,538.375,151/250,40,95.0
2854,D3,538.417,417/1000,45,95.0
2855,G3,538.438,0.562,47,95.0
2856,B3,538.458,0.5,51,95.0
2857,D4,538.458,0.5,51,95.0
2858,G4,538.458,0.5,51,95.0
2859,G5,539.5,0.5,43,95.0
2860,B4,539.5,0.5,36,95.0
2861,D5,539.5,0.5,36,95.0
2862,F#5,540.0,0.25,43,95.0
2863,B4,540.0,1.0,39,95.0
2864,D5,540.0,1.0,39,95.0
2865,G5,540.25,0.188,43,95.0
2866,A5,540.5,0.25,45,95.0
2867,G5,540.75,0.188,43,95.0
2868,A5,541.0,0.25,46,95.0
2869,C5,541.0,0.5,36,95.0
2870,E5,541.0,0.5,36,95.0
2871,G5,541.25,0.188,43,95.0
2872,A5,541.5,0.25,46,95.0
2873,B4,541.5,0.5,40,95.0
2874,D5,541.5,0.5,40,95.0
2875,G5,541.75,0.188,43,95.0
2876,G5,542.0,0.25,46,95.0
2877,A4,542.0,0.5,36,95.0
2878,C5,542.0,0.5,36,95.0
2879,F#5,542.25,0.188,43,95.0
2880,F#5,542.5,0.25,45,95.0
2881,G4,542.5,0.5,36,95.0
2882,B4,542.5,0.5,36,95.0
2883,E5,542.75,0.188,43,95.0
2884,E5,543.0,0.25,47,95.0
2885,F#4,543.0,1.0,41,95.0
2886,A4,543.0,1.0,41,95.0
2887,D5,543.25,0.188,45,95.0
2888,D5,543.5,0.125,44,95.0
2889,D5,543.75,0.125,45,95.0
2890,D5,544.0,0.125,45,95.0
2891,F#4,544.0,0.5,36,95.0
2892,A4,544.0,0.5,36,95.0
2893,D5,544.25,0.125,46,95.0
2894,E5,544.5,0.25,51,95.0
2895,F#4,544.5,1.0,45,95.0
2896,A4,544.5,1.0,45,95.0
2897,E-5,544.75,0.25,47,95.0
2898,E-5,545.0,0.125,47,95.0
2899,E-5,545.25,0.125,47,95.0
2900,E-5,545.5,0.125,47,95.0
2901,F#4,545.5,0.5,43,95.0
2902,A4,545.5,0.5,43,95.0
2903,E-5,545.75,0.125,47,95.0
2904,E-5,546.0,0.25,52,95.0
2905,G4,546.0,1.5,49,95.0
2906,B4,546.0,1.5,49,95.0
2907,E5,546.25,0.25,49,95.0
2908,F#5,546.5,0.25,49,95.0
2909,E5,546.75,0.25,49,95.0
2910,G5,547.0,0.25,52,95.0
2911,F#5,547.25,0.25,49,95.0
2912,A5,547.5,0.25,50,95.0
2913,A3,547.5,1.5,44,95.0
2914,E4,547.5,1.5,44,95.0
2915,G4,547.5,1.5,44,95.0
2916,G5,547.75,0.25,51,95.0
2917,F#5,548.0,0.25,52,95.0
2918,E5,548.25,0.25,52,95.0
2919,D5,548.5,0.25,53,95.0
2920,C#5,548.75,0.25,54,95.0
2921,D5,549.0,0.25,76,95.0
2922,D6,549.25,0.25,61,95.0
2923,D5,549.5,0.125,57,95.0
2924,F#3,549.5,0.5,46,95.0
2925,D3,549.5,0.5,46,95.0
2926,D5,549.75,0.125,57,95.0
2927,D5,550.0,0.125,57,95.0
2928,G3,550.0,0.25,47,95.0
2929,E3,550.0,0.25,47,95.0
2930,D5,550.25,0.125,57,95.0
2931,D5,550.5,0.25,77,95.0
2932,D6,550.75,0.25,61,95.0
2933,D5,551.0,0.125,57,95.0
2934,A3,551.0,0.5,45,95.0
2935,F#3,551.0,0.5,45,95.0
2936,D5,551.25,0.125,57,95.0
2937,D5,551.5,0.125,57,95.0
2938,G3,551.5,0.25,46,95.0
2939,B3,551.5,0.25,46,95.0
2940,D5,551.75,0.125,57,95.0
2941,D5,552.0,0.125,75,95.0
2942,F#5,552.125,0.125,55,95.0
2943,A5,552.25,0.125,61,95.0
2944,D6,552.375,0.125,55,95.0
2945,D5,552.5,0.125,57,95.0
2946,A3,552.5,0.5,46,95.0
2947,C4,552.5,0.5,46,95.0
2948,D5,552.75,0.125,57,95.0
2949,D5,553.0,0.125,57,95.0
2950,G3,553.0,0.25,47,95.0
2951,B3,553.0,0.25,47,95.0
2952,D5,553.25,0.125,57,95.0
2953,D5,553.5,0.125,73,95.0
2954,F#5,553.625,0.125,54,95.0
2955,A5,553.75,0.125,60,95.0
2956,D6,553.875,0.125,54,95.0
2957,D5,554.0,0.125,57,95.0
2958,F#3,554.0,0.5,44,95.0
2959,A3,554.0,0.5,44,95.0
2960,D5,554.25,0.125,57,95.0
2961,D5,554.5,0.125,57,95.0
2962,G3,554.5,0.25,44,95.0
2963,E3,554.5,0.25,44,95.0
2964,D5,554.75,0.125,57,95.0
2965,D5,555.0,0.25,72,95.0
2966,D3,555.0,0.5,44,95.0
2967,F#3,555.0,0.5,44,95.0
2968,D6,555.25,0.25,59,95.0
2969,D6,555.5,0.125,57,95.0
2970,F#4,555.5,0.5,43,95.0
2971,D4,555.5,0.5,43,95.0
2972,D6,555.75,0.125,57,95.0
2973,D6,556.0,0.125,57,95.0
2974,G4,556.0,0.5,41,95.0
2975,E4,556.0,0.5,41,95.0
2976,D6,556.25,0.125,57,95.0
2977,C#6,556.5,0.25,65,95.0
2978,D6,556.75,0.25,59,95.0
2979,D6,557.0,0.125,57,95.0
2980,A4,557.0,0.5,42,95.0
2981,F#4,557.0,0.5,42,95.0
2982,D6,557.25,0.125,57,95.0
2983,D6,557.5,0.125,57,95.0
2984,G4,557.5,0.5,41,95.0
2985,B-4,557.5,0.5,41,95.0
2986,D6,557.75,0.125,57,95.0
2987,E-6,558.0,0.25,72,95.0
2988,D6,558.25,0.25,59,95.0
2989,D6,558.5,0.125,57,95.0
2990,C5,558.5,0.5,40,95.0
2991,A4,558.5,0.5,40,95.0
2992,D6,558.75,0.125,57,95.0
2993,D6,559.0,0.125,57,95.0
2994,B-4,559.0,0.5,36,95.0
2995,G4,559.0,0.5,36,95.0
2996,D6,559.25,0.125,57,95.0
2997,C#6,559.5,0.25,68,95.0
2998,D6,559.75,0.25,59,95.0
2999,D6,560.0,0.125,57,95.0
3000,A4,560.0,0.5,37,95.0
3001,F#4,560.0,0.5,37,95.0
3002,D6,560.25,0.125,57,95.0
3003,D6,560.5,0.125,57,95.0
3004,E4,560.5,0.5,36,95.0
3005,G4,560.5,0.5,36,95.0
3006,D6,560.75,0.125,57,95.0
3007,D6,561.0,0.125,58,95.0
3008,D4,561.0,1.0,37,95.0
3009,F#4,561.0,1.0,37,95.0
3010,D6,561.25,0.125,57,95.0
3011,D6,561.5,0.125,56,95.0
3012,D6,561.75,0.125,55,95.0
3013,D6,562.0,0.125,54,95.0
3014,D6,562.25,0.125,54,95.0
3015,D6,562.5,0.25,54,95.0
3016,D6,563.0,0.25,52,95.0
3017,D6,563.5,0.25,52,95.0
3018,C6,564.0,0.25,51,95.0
3019,D6,564.0,0.25,51,95.0
3020,C6,564.5,0.25,49,95.0
3021,D6,564.5,0.25,49,95.0
3022,C6,565.0,0.25,49,95.0
3023,D6,565.0,0.25,49,95.0
3024,A5,565.5,0.375,33,95.0
3025,C6,565.5,0.375,46,95.0
3026,D6,565.5,0.375,46,95.0
3027,A5,566.0,0.375,31,95.0
3028,C6,566.0,0.375,45,95.0
3029,D6,566.0,0.375,45,95.0
3030,A5,566.5,0.375,31,95.0
3031,C6,566.5,0.375,45,95.0
3032,D6,566.5,0.375,45,95.0
3033,C6,567.0,0.5,42,95.0
3034,D6,567.0,0.5,42,95.0
3035,F#5,567.0,0.5,26,95.0
3036,A5,567.0,0.5,26,95.0
3037,C6,567.5,0.5,40,95.0
3038,D6,567.5,0.5,40,95.0
3039,F#5,567.5,0.5,25,95.0
3040,A5,567.5,0.5,25,95.0
3041,C6,568.0,0.5,37,95.0
3042,D6,568.0,0.5,37,95.0
3043,F#5,568.0,0.5,23,95.0
3044,A5,568.0,0.5,23,95.0
3045,C6,568.5,1.5,36,95.0
3046,D6,568.5,1.5,36,95.0
3047,F#5,568.5,1.5,21,95.0
3048,A5,568.5,1.5,21,95.0
3049,C5,571.0,0.5,31,95.0
3050,D5,571.0,0.5,31,95.0
3051,F#4,571.0,0.5,21,95.0
3052,A4,571.0,0.5,21,95.0
3053,D5,571.5,1.0,31,95.0
3054,C5,571.5,1.0,31,95.0
3055,F#4,571.5,1.0,21,95.0
3056,A4,571.5,1.0,21,95.0
3057,G4,572.5,0.5,46,95.0
3058,G3,572.5,0.5,38,95.0
3059,B3,572.5,0.5,38,95.0
3060,G4,573.0,0.875,49,95.0
3061,G3,573.0,1.0,40,95.0
3062,B3,573.0,1.0,40,95.0
3063,B4,573.875,0.125,47,95.0
3064,A4,574.0,0.5,47,95.0
3065,G3,574.0,0.5,38,95.0
3066,C4,574.0,0.5,38,95.0
3067,D4,574.5,0.5,49,95.0
3068,G3,574.5,1.0,40,95.0
3069,C4,574.5,1.0,40,95.0
3070,E4,575.0,0.5,45,95.0
3071,F#4,575.5,0.25,45,95.0
3072,G3,575.5,0.5,38,95.0
3073,C4,575.5,0.5,38,95.0
3074,G4,575.75,0.062,45,95.0
3075,F#4,575.812,0.062,45,95.0
3076,E4,575.875,0.062,45,95.0
3077,F#4,575.938,0.062,45,95.0
3078,G4,576.0,0.188,46,95.0
3079,G3,576.0,0.188,37,95.0
3080,B3,576.0,0.188,37,95.0
3081,G4,576.5,0.188,45,95.0
3082,G3,576.5,0.188,36,95.0
3083,B3,576.5,0.188,36,95.0
3084,G4,577.0,0.188,45,95.0
3085,G3,577.0,0.188,36,95.0
3086,B3,577.0,0.188,36,95.0
3087,G4,577.5,1.0,45,95.0
3088,G3,577.5,1.0,36,95.0
3089,B3,577.5,1.0,36,95.0
3090,D3,578.5,0.5,52,95.0
3091,D4,578.5,0.5,56,95.0
3092,F#4,578.5,0.5,56,95.0
3093,A4,578.5,0.5,56,95.0
3094,D4,579.0,0.5,60,95.0
3095,G4,579.0,0.5,60,95.0
3096,B4,579.0,0.5,60,95.0
3097,G3,579.0,0.5,55,95.0
3098,B3,579.0,0.5,55,95.0
3099,G2,579.854,229/500,45,95.0
3100,B2,579.854,229/500,45,95.0
3101,D3,579.854,229/500,45,95.0
3102,G3,579.917,0.438,51,95.0
3103,D4,579.938,0.375,54,95.0
3104,G4,579.938,0.375,54,95.0
3105,B4,579.938,0.375,54,95.0
3106,D5,580.0,177/500,61,95.0
3107,A2,580.354,138/125,44,95.0
3108,C3,580.354,138/125,44,95.0
3109,F#3,580.354,138/125,44,95.0
3110,A3,580.417,1083/1000,51,95.0
3111,D4,580.438,1021/1000,55,95.0
3112,F#4,580.438,1021/1000,55,95.0
3113,A4,580.438,1021/1000,55,95.0
3114,C5,580.5,1.0,61,95.0
3115,D4,581.5,0.5,54,95.0
3116,G4,581.5,0.5,54,95.0
3117,B4,581.5,0.5,54,95.0
3118,B2,581.5,0.5,48,95.0
3119,D3,581.5,0.5,48,95.0
3120,G3,581.5,0.5,48,95.0
3121,D4,582.0,0.125,54,95.0
3122,E4,582.125,0.125,54,95.0
3123,F#4,582.25,0.125,54,95.0
3124,G4,582.375,0.125,54,95.0
3125,A4,582.5,0.125,56,95.0
3126,B4,582.625,0.125,59,95.0
3127,C#5,582.75,0.125,60,95.0
3128,D5,582.875,0.125,61,95.0
3129,E5,583.0,0.125,63,95.0
3130,F#5,583.125,0.125,63,95.0
3131,G5,583.25,0.062,64,95.0
3132,A5,583.312,0.062,65,95.0
3133,B5,583.375,0.062,66,95.0
3134,C#6,583.438,0.062,69,95.0
3135,D6,583.5,1.0,84,95.0
3136,D2,583.5,1.0,47,95.0
3137,F#2,583.5,1.0,47,95.0
3138,A2,583.5,1.0,47,95.0
3139,D3,583.5,1.0,47,95.0
3140,E4,584.5,0.5,26,95.0
3141,G#4,584.5,0.5,43,95.0
3142,B4,584.5,0.5,43,95.0
3143,C4,585.0,0.5,27,95.0
3144,A4,585.0,0.5,45,95.0
3145,C5,585.0,0.5,45,95.0
3146,B3,585.5,0.5,27,95.0
3147,B4,585.5,0.5,45,95.0
3148,D5,585.5,0.5,45,95.0
3149,A3,586.0,0.25,27,95.0
3150,C5,586.0,0.25,40,95.0
3151,E5,586.0,0.25,40,95.0
3152,A3,586.5,0.5,25,95.0
3153,C5,586.5,0.5,36,95.0
3154,E5,586.5,0.5,36,95.0
3155,D4,587.5,0.5,28,95.0
3156,F#4,587.5,0.5,45,95.0
3157,A4,587.5,0.5,45,95.0
3158,B3,588.0,0.5,29,95.0
3159,G4,588.0,0.5,47,95.0
3160,B4,588.0,0.5,47,95.0
3161,A3,588.5,0.5,29,95.0
3162,A4,588.5,0.5,46,95.0
3163,C5,588.5,0.5,46,95.0
3164,G3,589.0,0.25,26,95.0
3165,B4,589.0,0.25,41,95.0
3166,D5,589.0,0.25,41,95.0
3167,G3,589.5,0.5,26,95.0
3168,B4,589.5,0.5,37,95.0
3169,D5,589.5,0.5,37,95.0
3170,G4,590.5,0.5,39,95.0
3171,E3,590.5,0.5,31,95.0
3172,A4,591.0,0.25,43,95.0
3173,C3,591.0,0.25,31,95.0
3174,B4,591.5,0.25,44,95.0
3175,C5,592.0,0.25,44,95.0
3176,D4,592.5,0.25,44,95.0
3177,D3,592.5,0.25,27,95.0
3178,E4,593.0,0.25,42,95.0
3179,F#4,593.5,0.25,42,95.0
3180,G3,594.0,0.25,36,95.0
3181,D3,594.5,0.25,33,95.0
3182,B2,595.0,0.25,33,95.0
3183,G2,595.375,151/250,40,95.0
3184,B2,595.375,151/250,40,95.0
3185,D3,595.417,417/1000,45,95.0
3186,G3,595.438,0.562,47,95.0
3187,B3,595.458,0.5,52,95.0
3188,D4,595.458,0.5,52,95.0
3189,G4,595.458,0.5,52,95.0
