,note_name,start_time,duration,velocity,tempo
0,G4,0.002,0.75,60,160.0
1,B3,0.002,0.5,37,160.0
2,G3,0.002,0.5,37,160.0
3,G3,0.5,0.5,37,160.0
4,B3,0.5,0.5,37,160.0
5,B4,0.75,0.125,48,160.0
6,A4,0.875,0.125,48,160.0
7,G4,1.0,0.5,56,160.0
8,B3,1.0,0.5,37,160.0
9,G3,1.0,0.5,37,160.0
10,B3,1.5,0.5,36,160.0
11,G3,1.5,0.5,36,160.0
12,B3,2.0,0.5,37,160.0
13,G3,2.0,0.5,37,160.0
14,D4,2.5,0.5,53,160.0
15,B3,2.5,0.5,38,160.0
16,G3,2.5,0.5,38,160.0
17,G4,3.0,0.5,53,160.0
18,B3,3.0,0.5,38,160.0
19,G3,3.0,0.5,38,160.0
20,B4,3.5,0.5,53,160.0
21,B3,3.5,0.5,38,160.0
22,G3,3.5,0.5,38,160.0
23,B4,4.0,0.25,57,160.0
24,C4,4.0,1.0,40,160.0
25,G3,4.0,1.0,40,160.0
26,A4,4.25,0.25,54,160.0
27,G4,4.5,0.25,54,160.0
28,A4,4.75,0.25,54,160.0
29,G4,5.0,0.5,57,160.0
30,G3,5.0,0.5,38,160.0
31,B3,5.0,0.5,38,160.0
32,D5,5.5,0.5,54,160.0
33,D5,6.0,0.25,54,160.0
34,F4,6.0,0.25,41,160.0
35,G4,6.0,0.25,41,160.0
36,D5,6.5,0.25,54,160.0
37,F4,6.5,0.25,41,160.0
38,G4,6.5,0.25,41,160.0
39,D5,7.0,0.25,54,160.0
40,G4,7.0,0.25,41,160.0
41,F4,7.0,0.25,41,160.0
42,D5,7.5,0.25,54,160.0
43,F4,7.5,0.25,41,160.0
44,G4,7.5,0.25,41,160.0
45,D5,8.0,0.75,57,160.0
46,G4,8.0,1.5,46,160.0
47,E4,8.0,1.5,46,160.0
48,E5,8.75,0.125,47,160.0
49,D5,8.875,0.125,47,160.0
50,C5,9.0,0.5,52,160.0
51,B4,9.5,0.5,50,160.0
52,F4,9.5,0.5,41,160.0
53,D4,9.5,0.5,41,160.0
54,A4,10.0,0.5,52,160.0
55,E4,10.0,1.0,49,160.0
56,C4,10.0,1.0,49,160.0
57,A5,10.5,1.0,68,160.0
58,C#4,11.0,1.0,50,160.0
59,E4,11.0,1.0,50,160.0
60,G5,11.5,0.5,65,160.0
61,G5,12.0,0.25,63,160.0
62,D4,12.0,1.0,46,160.0
63,F#5,12.25,0.25,54,160.0
64,E5,12.5,0.25,54,160.0
65,D5,12.75,0.25,54,160.0
66,D5,13.0,0.5,54,160.0
67,D5,13.5,0.5,56,160.0
68,D5,14.0,0.25,54,160.0
69,E5,14.25,0.25,52,160.0
70,C5,14.5,0.25,54,160.0
71,D5,14.75,0.25,52,160.0
72,B4,15.0,0.25,54,160.0
73,C5,15.25,0.25,51,160.0
74,A4,15.5,0.25,54,160.0
75,B4,15.75,0.25,52,160.0
76,G4,16.002,0.75,60,160.0
77,G3,16.002,0.5,37,160.0
78,B3,16.002,0.5,37,160.0
79,B3,16.5,0.5,37,160.0
80,G3,16.5,0.5,37,160.0
81,B4,16.75,0.125,46,160.0
82,A4,16.875,0.125,47,160.0
83,G4,17.0,0.5,56,160.0
84,G3,17.0,0.5,37,160.0
85,B3,17.0,0.5,37,160.0
86,G3,17.5,0.5,36,160.0
87,B3,17.5,0.5,36,160.0
88,G3,18.0,0.5,37,160.0
89,B3,18.0,0.5,37,160.0
90,D4,18.5,0.5,53,160.0
91,B3,18.5,0.5,38,160.0
92,G3,18.5,0.5,38,160.0
93,G4,19.0,0.5,53,160.0
94,G3,19.0,0.5,38,160.0
95,B3,19.0,0.5,38,160.0
96,B4,19.5,0.5,53,160.0
97,G3,19.5,0.5,38,160.0
98,B3,19.5,0.5,38,160.0
99,B4,20.0,0.25,57,160.0
100,C4,20.0,1.0,44,160.0
101,G3,20.0,1.0,44,160.0
102,A4,20.25,0.25,54,160.0
103,G4,20.5,0.25,54,160.0
104,A4,20.75,0.25,54,160.0
105,G4,21.0,0.5,57,160.0
106,B3,21.0,0.5,41,160.0
107,G3,21.0,0.5,41,160.0
108,E5,21.5,0.5,54,160.0
109,E5,22.0,0.25,54,160.0
110,B4,22.0,0.25,41,160.0
111,G4,22.0,0.25,41,160.0
112,E5,22.5,0.25,54,160.0
113,B4,22.5,0.25,41,160.0
114,G4,22.5,0.25,41,160.0
115,E5,23.0,0.25,54,160.0
116,B4,23.0,0.25,41,160.0
117,G4,23.0,0.25,41,160.0
118,E5,23.5,0.25,54,160.0
119,G4,23.5,0.25,41,160.0
120,B4,23.5,0.25,41,160.0
121,E5,24.0,0.75,57,160.0
122,G4,24.0,0.5,42,160.0
123,B4,24.0,0.5,42,160.0
124,G4,24.5,0.5,42,160.0
125,B4,24.5,0.5,42,160.0
126,G5,24.75,0.125,50,160.0
127,A5,24.875,0.125,52,160.0
128,B5,25.0,0.75,60,160.0
129,B4,25.0,0.5,42,160.0
130,G4,25.0,0.5,42,160.0
131,B4,25.5,0.5,42,160.0
132,G4,25.5,0.5,42,160.0
133,G5,25.75,0.125,49,160.0
134,E5,25.875,0.125,49,160.0
135,D5,26.0,1.0,60,160.0
136,A3,26.0,0.5,42,160.0
137,F#4,26.0,0.5,42,160.0
138,A3,26.5,0.5,42,160.0
139,F#4,26.5,0.5,42,160.0
140,C#5,27.0,167/1000,52,160.0
141,A3,27.0,0.5,42,160.0
142,E4,27.0,0.5,42,160.0
143,D5,27.167,167/1000,43,160.0
144,C#5,27.333,167/1000,48,160.0
145,D5,27.5,0.125,43,160.0
146,E4,27.5,0.5,42,160.0
147,A3,27.5,0.5,42,160.0
148,C#5,27.625,0.125,48,160.0
149,D5,27.75,0.125,42,160.0
150,C#5,27.875,0.125,47,160.0
151,D5,28.0,0.25,52,160.0
152,D4,28.0,0.5,40,160.0
153,F#4,28.0,0.5,40,160.0
154,E5,28.25,0.25,49,160.0
155,F#5,28.5,0.25,50,160.0
156,D4,28.5,0.5,35,160.0
157,F#4,28.5,0.5,35,160.0
158,G5,28.75,0.25,51,160.0
159,A5,29.0,0.25,51,160.0
160,F#4,29.0,0.5,35,160.0
161,D4,29.0,0.5,35,160.0
162,F#5,29.25,0.25,51,160.0
163,E5,29.5,0.25,50,160.0
164,D4,29.5,0.5,35,160.0
165,F#4,29.5,0.5,35,160.0
166,D5,29.75,0.25,50,160.0
167,C#5,30.0,0.25,53,160.0
168,D4,30.0,0.5,40,160.0
169,G4,30.0,0.5,40,160.0
170,D5,30.25,0.25,48,160.0
171,E5,30.5,0.25,49,160.0
172,D4,30.5,0.5,35,160.0
173,G4,30.5,0.5,35,160.0
174,F#5,30.75,0.25,49,160.0
175,G5,31.0,0.25,49,160.0
176,D4,31.0,0.5,35,160.0
177,G4,31.0,0.5,35,160.0
178,E5,31.25,0.25,49,160.0
179,D5,31.5,0.25,48,160.0
180,G4,31.5,0.5,35,160.0
181,D4,31.5,0.5,35,160.0
182,C#5,31.75,0.25,48,160.0
183,D5,32.0,0.25,52,160.0
184,F#4,32.0,0.5,40,160.0
185,D4,32.0,0.5,40,160.0
186,E5,32.25,0.25,47,160.0
187,F#5,32.5,0.25,48,160.0
188,F#4,32.5,0.5,35,160.0
189,D4,32.5,0.5,35,160.0
190,G5,32.75,0.25,49,160.0
191,A5,33.0,0.25,50,160.0
192,F#4,33.0,0.5,35,160.0
193,D4,33.0,0.5,35,160.0
194,F#5,33.25,0.25,49,160.0
195,E5,33.5,0.25,48,160.0
196,F#4,33.5,0.5,35,160.0
197,D4,33.5,0.5,35,160.0
198,D5,33.75,0.25,47,160.0
199,C#5,34.0,0.25,53,160.0
200,G4,34.0,0.5,40,160.0
201,D4,34.0,0.5,40,160.0
202,D5,34.25,0.25,47,160.0
203,E5,34.5,0.25,47,160.0
204,G4,34.5,0.5,35,160.0
205,D4,34.5,0.5,35,160.0
206,F#5,34.75,0.25,48,160.0
207,G5,35.0,0.25,49,160.0
208,G4,35.0,0.5,35,160.0
209,D4,35.0,0.5,35,160.0
210,E5,35.25,0.25,49,160.0
211,D5,35.5,0.25,48,160.0
212,G4,35.5,0.5,35,160.0
213,D4,35.5,0.5,35,160.0
214,C#5,35.75,0.25,48,160.0
215,D5,36.0,0.875,58,160.0
216,F#4,36.0,1.0,42,160.0
217,D4,36.0,1.0,42,160.0
218,C#6,36.875,0.125,77,160.0
219,D6,37.0,1.0,87,160.0
220,D2,38.0,1.0,69,160.0
221,D3,38.0,1.0,69,160.0
222,G4,40.002,0.75,60,160.0
223,G3,40.002,0.5,37,160.0
224,B3,40.002,0.5,37,160.0
225,G3,40.5,0.5,37,160.0
226,B3,40.5,0.5,37,160.0
227,B4,40.75,0.125,48,160.0
228,A4,40.875,0.125,48,160.0
229,G4,41.0,0.5,56,160.0
230,G3,41.0,0.5,37,160.0
231,B3,41.0,0.5,37,160.0
232,G3,41.5,0.5,36,160.0
233,B3,41.5,0.5,36,160.0
234,G3,42.0,0.5,37,160.0
235,B3,42.0,0.5,37,160.0
236,D4,42.5,0.5,53,160.0
237,G3,42.5,0.5,38,160.0
238,B3,42.5,0.5,38,160.0
239,G4,43.0,0.5,53,160.0
240,G3,43.0,0.5,38,160.0
241,B3,43.0,0.5,38,160.0
242,B4,43.5,0.5,53,160.0
243,G3,43.5,0.5,38,160.0
244,B3,43.5,0.5,38,160.0
245,B4,44.0,0.25,57,160.0
246,G3,44.0,1.0,40,160.0
247,C4,44.0,1.0,40,160.0
248,A4,44.25,0.25,54,160.0
249,G4,44.5,0.25,54,160.0
250,A4,44.75,0.25,54,160.0
251,G4,45.0,0.5,57,160.0
252,G3,45.0,0.5,38,160.0
253,B3,45.0,0.5,38,160.0
254,D5,45.5,0.5,54,160.0
255,D5,46.0,0.25,54,160.0
256,F4,46.0,0.25,41,160.0
257,G4,46.0,0.25,41,160.0
258,D5,46.5,0.25,54,160.0
259,F4,46.5,0.25,41,160.0
260,G4,46.5,0.25,41,160.0
261,D5,47.0,0.25,54,160.0
262,F4,47.0,0.25,41,160.0
263,G4,47.0,0.25,41,160.0
264,D5,47.5,0.25,54,160.0
265,G4,47.5,0.25,41,160.0
266,F4,47.5,0.25,41,160.0
267,D5,48.0,0.75,57,160.0
268,E4,48.0,1.5,46,160.0
269,G4,48.0,1.5,46,160.0
270,E5,48.75,0.125,47,160.0
271,D5,48.875,0.125,47,160.0
272,C5,49.0,0.5,52,160.0
273,B4,49.5,0.5,50,160.0
274,D4,49.5,0.5,41,160.0
275,F4,49.5,0.5,41,160.0
276,A4,50.0,0.5,52,160.0
277,C4,50.0,1.0,49,160.0
278,E4,50.0,1.0,49,160.0
279,A5,50.5,1.0,68,160.0
280,C#4,51.0,1.0,50,160.0
281,E4,51.0,1.0,50,160.0
282,G5,51.5,0.5,65,160.0
283,G5,52.0,0.25,63,160.0
284,D4,52.0,1.0,46,160.0
285,F#5,52.25,0.25,54,160.0
286,E5,52.5,0.25,54,160.0
287,D5,52.75,0.25,54,160.0
288,D5,53.0,0.5,54,160.0
289,D5,53.5,0.5,56,160.0
290,D5,54.0,0.25,54,160.0
291,E5,54.25,0.25,52,160.0
292,C5,54.5,0.25,54,160.0
293,D5,54.75,0.25,52,160.0
294,B4,55.0,0.25,54,160.0
295,C5,55.25,0.25,51,160.0
296,A4,55.5,0.25,54,160.0
297,B4,55.75,0.25,52,160.0
298,G4,56.002,0.75,60,160.0
299,G3,56.002,0.5,37,160.0
300,B3,56.002,0.5,37,160.0
301,G3,56.5,0.5,37,160.0
302,B3,56.5,0.5,37,160.0
303,B4,56.75,0.125,46,160.0
304,A4,56.875,0.125,47,160.0
305,G4,57.0,0.5,56,160.0
306,G3,57.0,0.5,37,160.0
307,B3,57.0,0.5,37,160.0
308,G3,57.5,0.5,36,160.0
309,B3,57.5,0.5,36,160.0
310,G3,58.0,0.5,37,160.0
311,B3,58.0,0.5,37,160.0
312,D4,58.5,0.5,53,160.0
313,G3,58.5,0.5,38,160.0
314,B3,58.5,0.5,38,160.0
315,G4,59.0,0.5,53,160.0
316,G3,59.0,0.5,38,160.0
317,B3,59.0,0.5,38,160.0
318,B4,59.5,0.5,53,160.0
319,G3,59.5,0.5,38,160.0
320,B3,59.5,0.5,38,160.0
321,B4,60.0,0.25,57,160.0
322,G3,60.0,1.0,40,160.0
323,C4,60.0,1.0,40,160.0
324,A4,60.25,0.25,54,160.0
325,G4,60.5,0.25,54,160.0
326,A4,60.75,0.25,54,160.0
327,G4,61.0,0.5,57,160.0
328,G3,61.0,0.5,38,160.0
329,B3,61.0,0.5,38,160.0
330,E5,61.5,0.5,54,160.0
331,E5,62.0,0.25,54,160.0
332,B4,62.0,0.25,41,160.0
333,G4,62.0,0.25,41,160.0
334,E5,62.5,0.25,54,160.0
335,B4,62.5,0.25,41,160.0
336,G4,62.5,0.25,41,160.0
337,E5,63.0,0.25,54,160.0
338,B4,63.0,0.25,41,160.0
339,G4,63.0,0.25,41,160.0
340,E5,63.5,0.25,54,160.0
341,G4,63.5,0.25,41,160.0
342,B4,63.5,0.25,41,160.0
343,E5,64.0,0.75,57,160.0
344,B4,64.0,0.5,42,160.0
345,G4,64.0,0.5,42,160.0
346,G4,64.5,0.5,42,160.0
347,B4,64.5,0.5,42,160.0
348,G5,64.75,0.125,50,160.0
349,A5,64.875,0.125,52,160.0
350,B5,65.0,0.75,60,160.0
351,G4,65.0,0.5,42,160.0
352,B4,65.0,0.5,42,160.0
353,G4,65.5,0.5,42,160.0
354,B4,65.5,0.5,42,160.0
355,G5,65.75,0.125,49,160.0
356,E5,65.875,0.125,49,160.0
357,D5,66.0,1.0,60,160.0
358,F#4,66.0,0.5,42,160.0
359,A3,66.0,0.5,42,160.0
360,A3,66.5,0.5,42,160.0
361,F#4,66.5,0.5,42,160.0
362,C#5,67.0,167/1000,52,160.0
363,A3,67.0,0.5,42,160.0
364,E4,67.0,0.5,42,160.0
365,D5,67.167,167/1000,43,160.0
366,C#5,67.333,167/1000,48,160.0
367,D5,67.5,0.125,43,160.0
368,A3,67.5,0.5,42,160.0
369,E4,67.5,0.5,42,160.0
370,C#5,67.625,0.125,48,160.0
371,D5,67.75,0.125,42,160.0
372,C#5,67.875,0.125,47,160.0
373,D5,68.0,0.25,54,160.0
374,D4,68.0,0.5,40,160.0
375,F#4,68.0,0.5,40,160.0
376,E5,68.25,0.25,49,160.0
377,F#5,68.5,0.25,50,160.0
378,D4,68.5,0.5,35,160.0
379,F#4,68.5,0.5,35,160.0
380,G5,68.75,0.25,51,160.0
381,A5,69.0,0.25,51,160.0
382,D4,69.0,0.5,35,160.0
383,F#4,69.0,0.5,35,160.0
384,F#5,69.25,0.25,51,160.0
385,E5,69.5,0.25,50,160.0
386,D4,69.5,0.5,35,160.0
387,F#4,69.5,0.5,35,160.0
388,D5,69.75,0.25,50,160.0
389,C#5,70.0,0.25,53,160.0
390,D4,70.0,0.5,40,160.0
391,G4,70.0,0.5,40,160.0
392,D5,70.25,0.25,48,160.0
393,E5,70.5,0.25,49,160.0
394,D4,70.5,0.5,35,160.0
395,G4,70.5,0.5,35,160.0
396,F#5,70.75,0.25,49,160.0
397,G5,71.0,0.25,49,160.0
398,D4,71.0,0.5,35,160.0
399,G4,71.0,0.5,35,160.0
400,E5,71.25,0.25,49,160.0
401,D5,71.5,0.25,48,160.0
402,D4,71.5,0.5,35,160.0
403,G4,71.5,0.5,35,160.0
404,C#5,71.75,0.25,48,160.0
405,D5,72.0,0.25,52,160.0
406,D4,72.0,0.5,40,160.0
407,F#4,72.0,0.5,40,160.0
408,E5,72.25,0.25,47,160.0
409,F#5,72.5,0.25,48,160.0
410,D4,72.5,0.5,35,160.0
411,F#4,72.5,0.5,35,160.0
412,G5,72.75,0.25,49,160.0
413,A5,73.0,0.25,50,160.0
414,D4,73.0,0.5,35,160.0
415,F#4,73.0,0.5,35,160.0
416,F#5,73.25,0.25,49,160.0
417,E5,73.5,0.25,48,160.0
418,D4,73.5,0.5,35,160.0
419,F#4,73.5,0.5,35,160.0
420,D5,73.75,0.25,47,160.0
421,C#5,74.0,0.25,53,160.0
422,D4,74.0,0.5,40,160.0
423,G4,74.0,0.5,40,160.0
424,D5,74.25,0.25,47,160.0
425,E5,74.5,0.25,47,160.0
426,D4,74.5,0.5,35,160.0
427,G4,74.5,0.5,35,160.0
428,F#5,74.75,0.25,48,160.0
429,G5,75.0,0.25,49,160.0
430,D4,75.0,0.5,35,160.0
431,G4,75.0,0.5,35,160.0
432,E5,75.25,0.25,49,160.0
433,D5,75.5,0.25,48,160.0
434,D4,75.5,0.5,35,160.0
435,G4,75.5,0.5,35,160.0
436,C#5,75.75,0.25,48,160.0
437,D5,76.0,0.875,58,160.0
438,D4,76.0,1.0,42,160.0
439,F#4,76.0,1.0,42,160.0
440,C#6,76.875,0.125,77,160.0
441,D6,77.0,1.0,87,160.0
442,D2,78.0,1.0,69,160.0
443,D3,78.0,1.0,69,160.0
444,F5,80.0,0.75,53,160.0
445,D4,80.0,1.0,42,160.0
446,B-3,80.0,1.0,42,160.0
447,D5,80.75,0.125,45,160.0
448,E-5,80.875,0.125,45,160.0
449,F5,81.0,0.5,54,160.0
450,D4,81.5,0.5,38,160.0
451,B-3,81.5,0.5,38,160.0
452,E-4,82.0,1.0,42,160.0
453,C4,82.0,1.0,42,160.0
454,A4,82.5,0.5,50,160.0
455,A4,83.0,0.5,50,160.0
456,A4,83.5,0.5,50,160.0
457,C4,83.5,0.5,38,160.0
458,E-4,83.5,0.5,38,160.0
459,B-4,84.0,0.75,53,160.0
460,D4,84.0,1.0,42,160.0
461,F4,84.0,1.0,42,160.0
462,B-4,84.75,0.125,45,160.0
463,C5,84.875,0.125,45,160.0
464,D5,85.0,0.5,54,160.0
465,D4,85.5,0.5,38,160.0
466,B-3,85.5,0.5,38,160.0
467,A3,86.0,1.0,42,160.0
468,C4,86.0,1.0,42,160.0
469,F#4,86.5,0.5,50,160.0
470,F#4,87.0,0.5,50,160.0
471,F#4,87.5,0.5,50,160.0
472,C4,87.5,0.5,38,160.0
473,A3,87.5,0.5,38,160.0
474,G4,88.0,0.75,57,160.0
475,D4,88.0,1.0,45,160.0
476,B-3,88.0,1.0,45,160.0
477,G4,88.75,0.125,45,160.0
478,A4,88.875,0.125,45,160.0
479,B-4,89.0,0.5,57,160.0
480,B-3,89.5,0.5,40,160.0
481,G3,89.5,0.5,40,160.0
482,G3,90.0,1.0,44,160.0
483,E-3,90.0,1.0,44,160.0
484,C#4,90.5,0.5,55,160.0
485,C#4,91.0,0.5,57,160.0
486,C#4,91.5,0.5,60,160.0
487,E-3,91.5,0.5,55,160.0
488,G3,91.5,0.5,55,160.0
489,D4,92.0,0.75,68,160.0
490,D3,92.0,0.75,58,160.0
491,F#3,92.0,0.75,58,160.0
492,F#3,92.75,0.125,51,160.0
493,F#2,92.75,0.125,51,160.0
494,G3,92.875,0.125,51,160.0
495,G2,92.875,0.125,51,160.0
496,A3,93.0,0.5,75,160.0
497,A2,93.0,0.5,61,160.0
498,F#3,93.5,0.5,68,160.0
499,F#2,93.5,0.5,56,160.0
500,D3,94.0,1.0,68,160.0
501,D2,94.0,1.0,56,160.0
502,G4,96.002,0.75,60,160.0
503,G3,96.002,0.5,37,160.0
504,B3,96.002,0.5,37,160.0
505,G3,96.5,0.5,37,160.0
506,B3,96.5,0.5,37,160.0
507,B4,96.75,0.125,46,160.0
508,A4,96.875,0.125,47,160.0
509,G4,97.0,0.5,56,160.0
510,G3,97.0,0.5,37,160.0
511,B3,97.0,0.5,37,160.0
512,G3,97.5,0.5,36,160.0
513,B3,97.5,0.5,36,160.0
514,G3,98.0,0.5,37,160.0
515,B3,98.0,0.5,37,160.0
516,D4,98.5,0.5,53,160.0
517,G3,98.5,0.5,38,160.0
518,B3,98.5,0.5,38,160.0
519,G4,99.0,0.5,53,160.0
520,G3,99.0,0.5,38,160.0
521,B3,99.0,0.5,38,160.0
522,B4,99.5,0.5,53,160.0
523,G3,99.5,0.5,38,160.0
524,B3,99.5,0.5,38,160.0
525,B4,100.0,0.25,57,160.0
526,G3,100.0,1.0,40,160.0
527,C4,100.0,1.0,40,160.0
528,A4,100.25,0.25,54,160.0
529,G4,100.5,0.25,54,160.0
530,A4,100.75,0.25,54,160.0
531,G4,101.0,0.5,57,160.0
532,G3,101.0,0.5,38,160.0
533,B3,101.0,0.5,38,160.0
534,E5,101.5,0.5,54,160.0
535,E5,102.0,0.25,54,160.0
536,D5,102.0,0.25,36,160.0
537,G#4,102.0,0.25,36,160.0
538,E5,102.5,0.25,54,160.0
539,D5,102.5,0.25,36,160.0
540,G#4,102.5,0.25,36,160.0
541,E5,103.0,0.25,54,160.0
542,D5,103.0,0.25,36,160.0
543,G#4,103.0,0.25,36,160.0
544,E5,103.5,0.25,54,160.0
545,G#4,103.5,0.25,36,160.0
546,D5,103.5,0.25,36,160.0
547,E5,104.0,0.75,57,160.0
548,C5,104.0,1.0,41,160.0
549,A4,104.0,1.0,41,160.0
550,A5,104.75,0.125,52,160.0
551,B5,104.875,0.125,52,160.0
552,C6,105.0,0.5,50,160.0
553,E5,105.5,0.5,54,160.0
554,D5,106.0,0.25,54,160.0
555,F#4,106.0,0.25,36,160.0
556,C5,106.0,0.25,36,160.0
557,D5,106.5,0.25,54,160.0
558,F#4,106.5,0.25,36,160.0
559,C5,106.5,0.25,36,160.0
560,D5,107.0,0.25,54,160.0
561,F#4,107.0,0.25,36,160.0
562,C5,107.0,0.25,36,160.0
563,D5,107.5,0.25,54,160.0
564,F#4,107.5,0.25,36,160.0
565,C5,107.5,0.25,36,160.0
566,D5,108.0,0.75,57,160.0
567,B4,108.0,1.0,41,160.0
568,G4,108.0,1.0,41,160.0
569,G5,108.75,0.125,49,160.0
570,A5,108.875,0.125,48,160.0
571,B5,109.0,0.5,45,160.0
572,B5,113.75,0.125,39,160.0
573,A5,113.875,0.125,39,160.0
574,G5,114.0,0.25,47,160.0
575,G5,114.75,0.125,39,160.0
576,F#5,114.875,0.125,39,160.0
577,E5,115.0,0.25,50,160.0
578,E5,115.75,0.125,38,160.0
579,D5,115.875,0.125,38,160.0
580,C5,116.0,0.5,50,160.0
581,E4,116.0,0.5,34,160.0
582,G4,116.0,0.5,34,160.0
583,E-5,117.75,0.125,51,160.0
584,G4,117.75,0.125,44,160.0
585,D5,117.875,0.125,51,160.0
586,F4,117.875,0.125,44,160.0
587,C5,118.0,0.5,59,160.0
588,E-4,118.0,1.0,55,160.0
589,C5,118.5,0.5,55,160.0
590,C5,119.0,0.5,55,160.0
591,C5,119.5,0.5,55,160.0
592,A4,119.75,0.125,49,160.0
593,G4,119.875,0.125,49,160.0
594,C5,120.0,0.75,58,160.0
595,D4,120.0,1.0,56,160.0
596,F#4,120.0,1.0,56,160.0
597,D5,120.75,0.125,46,160.0
598,C5,120.875,0.125,46,160.0
599,B4,121.0,0.5,56,160.0
600,E4,121.0,1.0,46,160.0
601,G4,121.0,1.0,46,160.0
602,B4,121.5,0.5,57,160.0
603,A4,122.0,0.5,60,160.0
604,C4,122.0,1.0,46,160.0
605,E4,122.0,1.0,46,160.0
606,E5,122.5,0.5,56,160.0
607,D5,123.0,0.5,56,160.0
608,D4,123.0,1.0,46,160.0
609,F#4,123.5,0.5,56,160.0
610,G4,124.0,0.25,54,160.0
611,G3,124.0,0.5,40,160.0
612,B3,124.0,0.5,40,160.0
613,A4,124.25,0.25,49,160.0
614,B4,124.5,0.25,50,160.0
615,G3,124.5,0.5,35,160.0
616,B3,124.5,0.5,35,160.0
617,C5,124.75,0.25,51,160.0
618,D5,125.0,0.25,51,160.0
619,G3,125.0,0.5,35,160.0
620,B3,125.0,0.5,35,160.0
621,B4,125.25,0.25,51,160.0
622,A4,125.5,0.25,50,160.0
623,G3,125.5,0.5,35,160.0
624,B3,125.5,0.5,35,160.0
625,G4,125.75,0.25,50,160.0
626,F#4,126.0,0.25,53,160.0
627,G3,126.0,0.5,40,160.0
628,C4,126.0,0.5,40,160.0
629,G4,126.25,0.25,48,160.0
630,A4,126.5,0.25,49,160.0
631,G3,126.5,0.5,35,160.0
632,C4,126.5,0.5,35,160.0
633,B4,126.75,0.25,49,160.0
634,C5,127.0,0.25,49,160.0
635,G3,127.0,0.5,35,160.0
636,C4,127.0,0.5,35,160.0
637,A4,127.25,0.25,49,160.0
638,G4,127.5,0.25,48,160.0
639,G3,127.5,0.5,35,160.0
640,C4,127.5,0.5,35,160.0
641,F#4,127.75,0.25,48,160.0
642,G4,128.0,0.25,52,160.0
643,G3,128.0,0.5,40,160.0
644,B3,128.0,0.5,40,160.0
645,A4,128.25,0.25,47,160.0
646,B4,128.5,0.25,48,160.0
647,G3,128.5,0.5,35,160.0
648,B3,128.5,0.5,35,160.0
649,C5,128.75,0.25,49,160.0
650,D5,129.0,0.25,50,160.0
651,G3,129.0,0.5,35,160.0
652,B3,129.0,0.5,35,160.0
653,B4,129.25,0.25,49,160.0
654,A4,129.5,0.25,48,160.0
655,G3,129.5,0.5,35,160.0
656,B3,129.5,0.5,35,160.0
657,G4,129.75,0.25,47,160.0
658,F#4,130.0,0.25,53,160.0
659,G3,130.0,0.5,40,160.0
660,C4,130.0,0.5,40,160.0
661,G4,130.25,0.25,47,160.0
662,A4,130.5,0.25,47,160.0
663,G3,130.5,0.5,35,160.0
664,C4,130.5,0.5,35,160.0
665,B4,130.75,0.25,48,160.0
666,C5,131.0,0.25,49,160.0
667,G3,131.0,0.5,35,160.0
668,C4,131.0,0.5,35,160.0
669,A4,131.25,0.25,49,160.0
670,G4,131.5,0.25,48,160.0
671,G3,131.5,0.5,35,160.0
672,C4,131.5,0.5,35,160.0
673,F#4,131.75,0.25,48,160.0
674,G4,132.0,0.875,58,160.0
675,G3,132.0,1.0,42,160.0
676,B3,132.0,1.0,42,160.0
677,F#5,132.875,0.125,65,160.0
678,G5,133.0,1.0,76,160.0
679,G1,134.0,1.0,69,160.0
680,G2,134.0,1.0,69,160.0
681,F5,136.0,0.75,53,160.0
682,D4,136.0,1.0,42,160.0
683,B-3,136.0,1.0,42,160.0
684,D5,136.75,0.125,45,160.0
685,E-5,136.875,0.125,45,160.0
686,F5,137.0,0.5,54,160.0
687,D4,137.5,0.5,38,160.0
688,B-3,137.5,0.5,38,160.0
689,E-4,138.0,1.0,42,160.0
690,C4,138.0,1.0,42,160.0
691,A4,138.5,0.5,50,160.0
692,A4,139.0,0.5,50,160.0
693,A4,139.5,0.5,50,160.0
694,C4,139.5,0.5,38,160.0
695,E-4,139.5,0.5,38,160.0
696,B-4,140.0,0.75,53,160.0
697,D4,140.0,1.0,42,160.0
698,F4,140.0,1.0,42,160.0
699,B-4,140.75,0.125,45,160.0
700,C5,140.875,0.125,45,160.0
701,D5,141.0,0.5,54,160.0
702,D4,141.5,0.5,38,160.0
703,B-3,141.5,0.5,38,160.0
704,A3,142.0,1.0,42,160.0
705,C4,142.0,1.0,42,160.0
706,F#4,142.5,0.5,50,160.0
707,F#4,143.0,0.5,50,160.0
708,F#4,143.5,0.5,50,160.0
709,C4,143.5,0.5,38,160.0
710,A3,143.5,0.5,38,160.0
711,G4,144.0,0.75,57,160.0
712,D4,144.0,1.0,45,160.0
713,B-3,144.0,1.0,45,160.0
714,G4,144.75,0.125,45,160.0
715,A4,144.875,0.125,45,160.0
716,B-4,145.0,0.5,57,160.0
717,B-3,145.5,0.5,40,160.0
718,G3,145.5,0.5,40,160.0
719,G3,146.0,1.0,44,160.0
720,E-3,146.0,1.0,44,160.0
721,C#4,146.5,0.5,54,160.0
722,C#4,147.0,0.5,57,160.0
723,C#4,147.5,0.5,60,160.0
724,E-3,147.5,0.5,55,160.0
725,G3,147.5,0.5,55,160.0
726,D4,148.0,0.75,68,160.0
727,D3,148.0,0.75,58,160.0
728,F#3,148.0,0.75,58,160.0
729,F#3,148.75,0.125,51,160.0
730,F#2,148.75,0.125,51,160.0
731,G3,148.875,0.125,51,160.0
732,G2,148.875,0.125,51,160.0
733,A3,149.0,0.5,75,160.0
734,A2,149.0,0.5,61,160.0
735,F#3,149.5,0.5,68,160.0
736,F#2,149.5,0.5,56,160.0
737,D3,150.0,1.0,68,160.0
738,D2,150.0,1.0,56,160.0
739,G4,152.002,0.75,60,160.0
740,G3,152.002,0.5,37,160.0
741,B3,152.002,0.5,37,160.0
742,G3,152.5,0.5,37,160.0
743,B3,152.5,0.5,37,160.0
744,B4,152.75,0.125,46,160.0
745,A4,152.875,0.125,47,160.0
746,G4,153.0,0.5,56,160.0
747,G3,153.0,0.5,37,160.0
748,B3,153.0,0.5,37,160.0
749,G3,153.5,0.5,36,160.0
750,B3,153.5,0.5,36,160.0
751,G3,154.0,0.5,37,160.0
752,B3,154.0,0.5,37,160.0
753,D4,154.5,0.5,53,160.0
754,G3,154.5,0.5,38,160.0
755,B3,154.5,0.5,38,160.0
756,G4,155.0,0.5,53,160.0
757,G3,155.0,0.5,38,160.0
758,B3,155.0,0.5,38,160.0
759,B4,155.5,0.5,53,160.0
760,G3,155.5,0.5,38,160.0
761,B3,155.5,0.5,38,160.0
762,B4,156.0,0.25,57,160.0
763,G3,156.0,1.0,40,160.0
764,C4,156.0,1.0,40,160.0
765,A4,156.25,0.25,54,160.0
766,G4,156.5,0.25,54,160.0
767,A4,156.75,0.25,54,160.0
768,G4,157.0,0.5,57,160.0
769,G3,157.0,0.5,38,160.0
770,B3,157.0,0.5,38,160.0
771,E5,157.5,0.5,54,160.0
772,E5,158.0,0.25,54,160.0
773,D5,158.0,0.25,36,160.0
774,G#4,158.0,0.25,36,160.0
775,E5,158.5,0.25,54,160.0
776,D5,158.5,0.25,36,160.0
777,G#4,158.5,0.25,36,160.0
778,E5,159.0,0.25,54,160.0
779,D5,159.0,0.25,36,160.0
780,G#4,159.0,0.25,36,160.0
781,E5,159.5,0.25,54,160.0
782,G#4,159.5,0.25,36,160.0
783,D5,159.5,0.25,36,160.0
784,E5,160.0,0.75,57,160.0
785,C5,160.0,1.0,41,160.0
786,A4,160.0,1.0,41,160.0
787,A5,160.75,0.125,52,160.0
788,B5,160.875,0.125,52,160.0
789,C6,161.0,0.5,50,160.0
790,E5,161.5,0.5,54,160.0
791,D5,162.0,0.25,54,160.0
792,F#4,162.0,0.25,36,160.0
793,C5,162.0,0.25,36,160.0
794,D5,162.5,0.25,54,160.0
795,F#4,162.5,0.25,36,160.0
796,C5,162.5,0.25,36,160.0
797,D5,163.0,0.25,54,160.0
798,F#4,163.0,0.25,36,160.0
799,C5,163.0,0.25,36,160.0
800,D5,163.5,0.25,54,160.0
801,F#4,163.5,0.25,36,160.0
802,C5,163.5,0.25,36,160.0
803,D5,164.0,0.75,57,160.0
804,B4,164.0,1.0,41,160.0
805,G4,164.0,1.0,41,160.0
806,G5,164.75,0.125,49,160.0
807,A5,164.875,0.125,48,160.0
808,B5,165.0,0.5,45,160.0
809,B5,169.75,0.125,39,160.0
810,A5,169.875,0.125,39,160.0
811,G5,170.0,0.25,47,160.0
812,G5,170.75,0.125,39,160.0
813,F#5,170.875,0.125,39,160.0
814,E5,171.0,0.25,50,160.0
815,E5,171.75,0.125,38,160.0
816,D5,171.875,0.125,38,160.0
817,C5,172.0,0.5,50,160.0
818,E4,172.0,0.5,34,160.0
819,G4,172.0,0.5,34,160.0
820,E-5,173.75,0.125,51,160.0
821,G4,173.75,0.125,44,160.0
822,D5,173.875,0.125,51,160.0
823,F4,173.875,0.125,44,160.0
824,C5,174.0,0.5,59,160.0
825,E-4,174.0,1.0,55,160.0
826,C5,174.5,0.5,55,160.0
827,C5,175.0,0.5,55,160.0
828,C5,175.5,0.5,55,160.0
829,A4,175.75,0.125,47,160.0
830,G4,175.875,0.125,47,160.0
831,C5,176.0,0.75,60,160.0
832,D4,176.0,1.0,56,160.0
833,F#4,176.0,1.0,56,160.0
834,D5,176.75,0.125,46,160.0
835,C5,176.875,0.125,46,160.0
836,B4,177.0,0.5,56,160.0
837,E4,177.0,1.0,46,160.0
838,G4,177.0,1.0,46,160.0
839,B4,177.5,0.5,57,160.0
840,A4,178.0,0.5,60,160.0
841,C4,178.0,1.0,46,160.0
842,E4,178.0,1.0,46,160.0
843,E5,178.5,0.5,56,160.0
844,D5,179.0,0.5,56,160.0
845,D4,179.0,1.0,46,160.0
846,F#4,179.5,0.5,56,160.0
847,G4,180.0,0.25,54,160.0
848,G3,180.0,0.5,40,160.0
849,B3,180.0,0.5,40,160.0
850,A4,180.25,0.25,49,160.0
851,B4,180.5,0.25,50,160.0
852,G3,180.5,0.5,35,160.0
853,B3,180.5,0.5,35,160.0
854,C5,180.75,0.25,51,160.0
855,D5,181.0,0.25,51,160.0
856,G3,181.0,0.5,35,160.0
857,B3,181.0,0.5,35,160.0
858,B4,181.25,0.25,51,160.0
859,A4,181.5,0.25,50,160.0
860,G3,181.5,0.5,35,160.0
861,B3,181.5,0.5,35,160.0
862,G4,181.75,0.25,50,160.0
863,F#4,182.0,0.25,53,160.0
864,G3,182.0,0.5,40,160.0
865,C4,182.0,0.5,40,160.0
866,G4,182.25,0.25,48,160.0
867,A4,182.5,0.25,49,160.0
868,G3,182.5,0.5,35,160.0
869,C4,182.5,0.5,35,160.0
870,B4,182.75,0.25,49,160.0
871,C5,183.0,0.25,49,160.0
872,G3,183.0,0.5,35,160.0
873,C4,183.0,0.5,35,160.0
874,A4,183.25,0.25,49,160.0
875,G4,183.5,0.25,48,160.0
876,G3,183.5,0.5,35,160.0
877,C4,183.5,0.5,35,160.0
878,F#4,183.75,0.25,48,160.0
879,G4,184.0,0.25,52,160.0
880,G3,184.0,0.5,40,160.0
881,B3,184.0,0.5,40,160.0
882,A4,184.25,0.25,47,160.0
883,B4,184.5,0.25,48,160.0
884,G3,184.5,0.5,35,160.0
885,B3,184.5,0.5,35,160.0
886,C5,184.75,0.25,49,160.0
887,D5,185.0,0.25,50,160.0
888,G3,185.0,0.5,35,160.0
889,B3,185.0,0.5,35,160.0
890,B4,185.25,0.25,49,160.0
891,A4,185.5,0.25,48,160.0
892,G3,185.5,0.5,35,160.0
893,B3,185.5,0.5,35,160.0
894,G4,185.75,0.25,47,160.0
895,F#4,186.0,0.25,53,160.0
896,G3,186.0,0.5,40,160.0
897,C4,186.0,0.5,40,160.0
898,G4,186.25,0.25,47,160.0
899,A4,186.5,0.25,47,160.0
900,G3,186.5,0.5,35,160.0
901,C4,186.5,0.5,35,160.0
902,B4,186.75,0.25,48,160.0
903,C5,187.0,0.25,49,160.0
904,G3,187.0,0.5,35,160.0
905,C4,187.0,0.5,35,160.0
906,A4,187.25,0.25,49,160.0
907,G4,187.5,0.25,48,160.0
908,G3,187.5,0.5,35,160.0
909,C4,187.5,0.5,35,160.0
910,F#4,187.75,0.25,48,160.0
911,G4,188.0,0.875,58,160.0
912,G3,188.0,1.0,42,160.0
913,B3,188.0,1.0,42,160.0
914,F#5,188.875,0.125,65,160.0
915,G5,189.0,1.0,76,160.0
916,G1,190.0,1.0,69,160.0
917,G2,190.0,1.0,69,160.0
918,E2,192.0,1.0,60,160.0
919,E3,192.0,1.0,60,160.0
920,E4,192.5,0.5,57,160.0
921,E5,193.0,1.5,65,160.0
922,G4,193.5,0.5,39,160.0
923,B4,193.5,0.5,39,160.0
924,F#4,194.0,1.5,45,160.0
925,A4,194.0,1.5,45,160.0
926,E-5,194.5,0.5,56,160.0
927,F#5,195.0,1.0,70,160.0
928,A4,195.5,0.5,39,160.0
929,C5,195.5,0.5,39,160.0
930,F#5,196.0,0.5,70,160.0
931,G4,196.0,1.5,45,160.0
932,B4,196.0,1.5,45,160.0
933,E5,196.5,0.5,55,160.0
934,G5,197.0,1.5,72,160.0
935,E4,197.5,0.5,40,160.0
936,B-4,197.5,0.5,40,160.0
937,D4,198.0,1.5,45,160.0
938,B4,198.0,1.5,45,160.0
939,F#5,198.5,0.5,63,160.0
940,B5,199.0,1.0,78,160.0
941,D4,199.5,0.5,45,160.0
942,F#4,199.5,0.5,45,160.0
943,B5,200.0,0.5,78,160.0
944,C#4,200.0,1.5,48,160.0
945,E4,200.0,1.5,48,160.0
946,B-5,200.5,0.5,66,160.0
947,E6,201.0,1.5,72,160.0
948,C#6,201.0,1.5,72,160.0
949,B-3,201.5,0.5,48,160.0
950,B3,202.0,1.0,54,160.0
951,B5,202.5,1.0,60,160.0
952,D6,202.5,1.0,60,160.0
953,E4,203.0,1.0,49,160.0
954,C#6,203.5,0.5,56,160.0
955,E5,203.5,0.5,56,160.0
956,F#4,204.0,1.0,49,160.0
957,C#6,204.5,0.5,56,160.0
958,E5,204.5,0.5,56,160.0
959,F#4,205.0,1.0,49,160.0
960,D5,205.0,1.0,57,160.0
961,B5,205.0,1.0,57,160.0
962,B3,206.0,1.0,49,160.0
963,C#5,206.0,0.5,57,160.0
964,B-5,206.0,0.5,57,160.0
965,B4,207.0,0.5,56,160.0
966,B5,207.5,0.5,66,160.0
967,E-2,207.5,0.5,56,160.0
968,E-3,207.5,0.5,56,160.0
969,E2,208.0,1.0,60,160.0
970,E3,208.0,1.0,60,160.0
971,E4,209.0,0.5,57,160.0
972,E5,209.5,1.5,65,160.0
973,G4,209.5,0.5,39,160.0
974,B4,209.5,0.5,39,160.0
975,F#4,210.0,1.5,45,160.0
976,A4,210.0,1.5,45,160.0
977,E-5,211.0,0.5,56,160.0
978,F#5,211.5,1.0,70,160.0
979,A4,211.5,0.5,39,160.0
980,C5,211.5,0.5,39,160.0
981,G4,212.0,1.5,45,160.0
982,B4,212.0,1.5,45,160.0
983,F#5,212.5,0.5,70,160.0
984,E5,213.0,0.5,55,160.0
985,G5,213.5,1.5,72,160.0
986,E4,213.5,0.5,40,160.0
987,B-4,213.5,0.5,40,160.0
988,D4,214.0,1.5,45,160.0
989,B4,214.0,1.5,45,160.0
990,F#5,215.0,0.5,63,160.0
991,B5,215.5,1.0,76,160.0
992,D4,215.5,0.5,45,160.0
993,F#4,215.5,0.5,45,160.0
994,C#4,216.0,1.5,48,160.0
995,E4,216.0,1.5,48,160.0
996,B5,216.5,0.5,76,160.0
997,B-5,217.0,0.5,66,160.0
998,B-3,217.5,0.5,48,160.0
999,E6,217.5,1.5,72,160.0
1000,C#6,217.5,1.5,72,160.0
1001,B3,218.0,1.0,54,160.0
1002,E4,219.0,1.0,49,160.0
1003,B5,219.0,1.0,60,160.0
1004,D6,219.0,1.0,60,160.0
1005,F#4,220.0,1.0,49,160.0
1006,C#6,220.0,0.5,56,160.0
1007,E5,220.0,0.5,56,160.0
1008,F#4,221.0,1.0,49,160.0
1009,C#6,221.0,0.5,56,160.0
1010,E5,221.0,0.5,56,160.0
1011,D5,221.5,1.0,57,160.0
1012,B5,221.5,1.0,57,160.0
1013,B3,222.0,1.0,49,160.0
1014,C#5,222.5,0.5,57,160.0
1015,B-5,222.5,0.5,57,160.0
1016,B4,223.5,0.5,56,160.0
1017,B1,223.5,0.5,56,160.0
1018,B2,223.5,0.5,56,160.0
1019,B5,224.0,0.5,66,160.0
1020,C2,224.0,1.0,60,160.0
1021,C3,224.0,1.0,60,160.0
1022,A4,225.5,0.5,57,160.0
1023,C4,225.5,0.5,38,160.0
1024,E4,225.5,0.5,38,160.0
1025,A5,226.0,1.5,68,160.0
1026,B3,226.0,1.5,44,160.0
1027,D4,226.0,1.5,44,160.0
1028,G#5,227.5,0.5,56,160.0
1029,B3,227.5,0.5,37,160.0
1030,G#3,227.5,0.5,37,160.0
1031,D6,228.0,1.0,70,160.0
1032,A3,228.0,1.0,42,160.0
1033,C4,228.0,1.0,42,160.0
1034,D6,229.0,0.5,70,160.0
1035,D4,229.0,1.0,40,160.0
1036,B3,229.0,1.0,40,160.0
1037,C6,229.5,1.0,61,160.0
1038,E4,230.0,1.0,37,160.0
1039,C4,230.0,1.0,37,160.0
1040,B5,230.5,1.0,59,160.0
1041,A5,231.5,0.5,57,160.0
1042,F#5,232.5,0.5,43,160.0
1043,B4,232.5,0.5,30,160.0
1044,D5,232.5,0.5,30,160.0
1045,G5,233.0,1.5,49,160.0
1046,A4,233.0,1.0,35,160.0
1047,C5,233.0,1.0,35,160.0
1048,F#5,234.5,0.5,45,160.0
1049,F#4,234.5,0.5,31,160.0
1050,G4,235.0,1.0,36,160.0
1051,C6,235.0,1.5,49,160.0
1052,A5,235.0,1.5,49,160.0
1053,E-4,236.0,1.0,36,160.0
1054,G5,236.5,0.5,45,160.0
1055,B5,236.5,0.5,45,160.0
1056,E4,237.0,1.0,30,160.0
1057,G5,237.5,0.5,45,160.0
1058,B5,237.5,0.5,45,160.0
1059,B3,238.0,1.0,35,160.0
1060,F#5,238.0,1.0,43,160.0
1061,A5,238.0,1.0,43,160.0
1062,E5,239.0,1.0,42,160.0
1063,G5,239.0,1.0,42,160.0
1064,E-5,240.0,0.5,44,160.0
1065,F#5,240.0,0.5,44,160.0
1066,B5,240.5,0.25,58,160.0
1067,E3,240.5,0.5,55,160.0
1068,A5,240.75,0.25,58,160.0
1069,G5,241.0,0.25,58,160.0
1070,E4,241.0,1.5,62,160.0
1071,F#5,241.25,0.25,58,160.0
1072,E5,241.5,1.0,66,160.0
1073,E-4,242.5,0.5,47,160.0
1074,F#4,243.0,1.0,51,160.0
1075,G4,243.0,0.5,55,160.0
1076,E5,243.0,0.5,55,160.0
1077,A4,243.5,1.5,60,160.0
1078,F#5,243.5,1.5,60,160.0
1079,F#4,244.0,0.5,51,160.0
1080,E4,244.5,0.5,49,160.0
1081,G4,245.0,1.5,54,160.0
1082,A4,245.0,0.5,55,160.0
1083,F#5,245.0,0.5,55,160.0
1084,B4,245.5,1.5,60,160.0
1085,G5,245.5,1.5,60,160.0
1086,F#4,246.5,0.5,47,160.0
1087,A4,247.0,1.0,51,160.0
1088,B4,247.0,0.5,58,160.0
1089,G5,247.0,0.5,58,160.0
1090,C5,247.5,1.5,66,160.0
1091,A5,247.5,1.5,66,160.0
1092,A4,248.0,0.5,51,160.0
1093,F#4,248.5,0.5,53,160.0
1094,F#5,249.0,0.5,55,160.0
1095,E-4,249.0,1.5,58,160.0
1096,E-5,249.5,1.5,60,160.0
1097,C4,250.5,0.5,54,160.0
1098,C5,251.0,0.5,56,160.0
1099,A3,251.0,1.0,58,160.0
1100,A4,251.5,1.5,60,160.0
1101,A3,252.0,0.5,58,160.0
1102,F#3,252.5,0.5,52,160.0
1103,F#4,253.0,0.5,56,160.0
1104,E-3,253.0,0.5,50,160.0
1105,E-4,253.5,1.5,61,160.0
1106,E-3,253.5,0.25,42,160.0
1107,C3,253.75,0.25,42,160.0
1108,A2,254.0,0.25,55,160.0
1109,C3,254.5,0.25,42,160.0
1110,A2,254.75,0.25,42,160.0
1111,E-4,255.0,0.25,49,160.0
1112,F#2,255.0,0.25,56,160.0
1113,C4,255.25,0.25,49,160.0
1114,A3,255.5,0.25,58,160.0
1115,A2,255.5,0.25,49,160.0
1116,F#2,255.75,0.25,49,160.0
1117,C4,256.0,0.25,49,160.0
1118,E-2,256.0,0.5,63,160.0
1119,A3,256.25,0.25,49,160.0
1120,F#3,256.5,0.25,58,160.0
1121,A3,257.0,0.25,54,160.0
1122,F#3,257.25,0.25,54,160.0
1123,E-3,257.5,0.5,75,160.0
1124,C6,259.0,0.25,40,160.0
1125,A5,259.25,0.25,40,160.0
1126,F#5,259.5,0.25,44,160.0
1127,A5,260.0,0.25,40,160.0
1128,F#5,260.25,0.25,40,160.0
1129,E-5,260.5,0.25,44,160.0
1130,F#5,261.0,0.25,36,160.0
1131,E-5,261.25,0.25,36,160.0
1132,C5,261.5,0.5,43,160.0
1133,E-3,263.0,1.0,52,160.0
1134,C4,264.0,0.5,57,160.0
1135,E3,264.0,0.5,54,160.0
1136,B3,264.5,0.5,60,160.0
1137,A4,265.0,0.5,58,160.0
1138,A2,265.0,0.5,51,160.0
1139,B2,266.0,0.5,51,160.0
1140,B3,266.0,0.5,56,160.0
1141,G4,266.0,0.5,56,160.0
1142,B2,267.0,0.5,51,160.0
1143,A3,267.0,0.5,55,160.0
1144,F#4,267.0,0.5,55,160.0
1145,G3,268.0,0.5,55,160.0
1146,E4,268.0,0.5,55,160.0
1147,E3,268.5,0.5,48,160.0
1148,E2,269.0,0.5,53,160.0
1149,F#3,269.0,0.5,55,160.0
1150,E-4,269.0,0.5,55,160.0
1151,G3,269.5,1.0,66,160.0
1152,E4,269.5,1.0,66,160.0
1153,E3,270.5,0.5,38,160.0
1154,E-6,271.0,0.5,50,160.0
1155,E2,271.0,0.5,43,160.0
1156,E6,271.5,1.0,55,160.0
1157,E3,272.5,0.5,43,160.0
1158,E4,273.0,0.5,50,160.0
1159,E2,273.0,0.5,47,160.0
1160,D4,273.5,1.0,54,160.0
1161,F4,273.5,1.0,54,160.0
1162,E3,274.5,0.5,48,160.0
1163,E2,275.0,0.5,52,160.0
1164,D4,275.0,0.5,46,160.0
1165,F4,275.0,0.5,46,160.0
1166,B3,275.5,1.0,52,160.0
1167,G#4,275.5,1.0,52,160.0
1168,E3,276.5,0.5,51,160.0
1169,E2,277.0,0.5,59,160.0
1170,B3,277.0,0.5,50,160.0
1171,G#4,277.0,0.5,50,160.0
1172,C4,277.5,1.0,54,160.0
1173,A4,277.5,1.0,54,160.0
1174,E-3,278.5,0.5,52,160.0
1175,E-2,279.0,0.5,55,160.0
1176,C4,279.0,0.5,51,160.0
1177,A4,279.0,0.5,51,160.0
1178,C#4,279.5,1.0,54,160.0
1179,G4,279.5,1.0,54,160.0
1180,D3,280.5,0.5,47,160.0
1181,D2,281.0,0.5,52,160.0
1182,C#4,281.0,0.5,52,160.0
1183,G4,281.0,0.5,52,160.0
1184,D4,281.5,1.0,56,160.0
1185,F#4,281.5,1.0,56,160.0
1186,D3,282.5,0.5,35,160.0
1187,C#6,283.0,0.5,53,160.0
1188,D2,283.0,0.5,40,160.0
1189,D6,283.5,1.0,59,160.0
1190,D3,284.5,0.5,38,160.0
1191,D4,285.0,0.5,43,160.0
1192,D2,285.0,0.5,43,160.0
1193,C#4,285.5,1.0,46,160.0
1194,E4,285.5,1.0,46,160.0
1195,D3,286.5,0.5,36,160.0
1196,D2,287.0,0.5,41,160.0
1197,C#4,287.0,0.5,38,160.0
1198,E4,287.0,0.5,38,160.0
1199,C4,287.5,1.0,43,160.0
1200,F#4,287.5,1.0,43,160.0
1201,G3,288.002,0.5,37,160.0
1202,B3,288.002,0.5,37,160.0
1203,G3,288.5,0.5,37,160.0
1204,B3,288.5,0.5,37,160.0
1205,D4,289.0,0.5,51,160.0
1206,G3,289.0,0.5,37,160.0
1207,B3,289.0,0.5,37,160.0
1208,G3,289.5,0.5,36,160.0
1209,B3,289.5,0.5,36,160.0
1210,G4,289.502,0.75,60,160.0
1211,G3,290.0,0.5,37,160.0
1212,B3,290.0,0.5,37,160.0
1213,B4,290.25,0.125,48,160.0
1214,A4,290.375,0.125,48,160.0
1215,G4,290.5,0.5,56,160.0
1216,G3,290.5,0.5,38,160.0
1217,B3,290.5,0.5,38,160.0
1218,G3,291.0,0.5,38,160.0
1219,B3,291.0,0.5,38,160.0
1220,G3,291.5,0.5,38,160.0
1221,B3,291.5,0.5,38,160.0
1222,D4,292.0,0.5,53,160.0
1223,G3,292.0,1.0,40,160.0
1224,C4,292.0,1.0,40,160.0
1225,G4,292.5,0.5,53,160.0
1226,B4,293.0,0.5,53,160.0
1227,G3,293.0,0.5,41,160.0
1228,B3,293.0,0.5,41,160.0
1229,B4,293.5,0.25,57,160.0
1230,A4,293.75,0.25,54,160.0
1231,G4,294.0,0.25,54,160.0
1232,F4,294.0,0.25,41,160.0
1233,G4,294.0,0.25,41,160.0
1234,A4,294.25,0.25,54,160.0
1235,G4,294.5,0.5,57,160.0
1236,F4,294.5,0.25,41,160.0
1237,G4,294.5,0.25,41,160.0
1238,D5,295.0,0.5,54,160.0
1239,F4,295.0,0.25,41,160.0
1240,G4,295.0,0.25,41,160.0
1241,D5,295.5,0.25,54,160.0
1242,G4,295.5,0.25,41,160.0
1243,F4,295.5,0.25,41,160.0
1244,D5,296.0,0.25,54,160.0
1245,E4,296.0,1.5,46,160.0
1246,G4,296.0,1.5,46,160.0
1247,D5,296.5,0.25,54,160.0
1248,D5,297.0,0.25,54,160.0
1249,D5,297.5,0.75,57,160.0
1250,D4,297.5,0.5,41,160.0
1251,F4,297.5,0.5,41,160.0
1252,C4,298.0,1.0,49,160.0
1253,E4,298.0,1.0,49,160.0
1254,E5,298.25,0.125,47,160.0
1255,D5,298.375,0.125,47,160.0
1256,C5,298.5,0.5,52,160.0
1257,B4,299.0,0.5,50,160.0
1258,C#4,299.0,1.0,50,160.0
1259,E4,299.0,1.0,50,160.0
1260,A4,299.5,0.5,52,160.0
1261,A5,300.0,1.0,69,160.0
1262,D4,300.0,1.0,46,160.0
1263,G5,301.0,0.5,65,160.0
1264,G5,301.5,0.25,63,160.0
1265,F#5,301.75,0.25,54,160.0
1266,E5,302.0,0.25,54,160.0
1267,D5,302.25,0.25,54,160.0
1268,D5,302.5,0.5,54,160.0
1269,D5,303.0,0.5,56,160.0
1270,D5,303.5,0.25,54,160.0
1271,E5,303.75,0.25,52,160.0
1272,C5,304.0,0.25,54,160.0
1273,G3,304.002,0.5,37,160.0
1274,B3,304.002,0.5,37,160.0
1275,D5,304.25,0.25,52,160.0
1276,B4,304.5,0.25,54,160.0
1277,G3,304.5,0.5,33,160.0
1278,B3,304.5,0.5,33,160.0
1279,C5,304.75,0.25,51,160.0
1280,A4,305.0,0.25,54,160.0
1281,G3,305.0,0.5,33,160.0
1282,B3,305.0,0.5,33,160.0
1283,B4,305.25,0.25,52,160.0
1284,G3,305.5,0.5,33,160.0
1285,B3,305.5,0.5,33,160.0
1286,G4,305.502,0.75,60,160.0
1287,G3,306.0,0.5,37,160.0
1288,B3,306.0,0.5,37,160.0
1289,B4,306.25,0.125,46,160.0
1290,A4,306.375,0.125,47,160.0
1291,G4,306.5,0.25,56,160.0
1292,G3,306.5,0.5,35,160.0
1293,B3,306.5,0.5,35,160.0
1294,D4,306.75,0.25,48,160.0
1295,B4,307.0,0.25,48,160.0
1296,G3,307.0,0.5,35,160.0
1297,B3,307.0,0.5,35,160.0
1298,A4,307.25,0.25,48,160.0
1299,G4,307.5,0.25,56,160.0
1300,G3,307.5,0.5,35,160.0
1301,B3,307.5,0.5,35,160.0
1302,D4,307.75,0.25,48,160.0
1303,G4,308.0,0.25,48,160.0
1304,G3,308.0,1.0,40,160.0
1305,C4,308.0,1.0,40,160.0
1306,B4,308.25,0.25,48,160.0
1307,D5,308.5,0.25,56,160.0
1308,B4,308.75,0.25,52,160.0
1309,A4,309.0,0.25,52,160.0
1310,G3,309.0,0.5,38,160.0
1311,B3,309.0,0.5,38,160.0
1312,G4,309.25,0.25,52,160.0
1313,B4,309.5,0.25,59,160.0
1314,A4,309.75,0.25,52,160.0
1315,G4,310.0,0.25,52,160.0
1316,B4,310.0,0.5,41,160.0
1317,G4,310.0,0.5,41,160.0
1318,A4,310.25,0.25,52,160.0
1319,G4,310.5,0.5,54,160.0
1320,B4,310.5,0.5,38,160.0
1321,G4,310.5,0.5,38,160.0
1322,E5,311.0,0.5,54,160.0
1323,B4,311.0,0.5,44,160.0
1324,G4,311.0,0.5,44,160.0
1325,E-5,311.5,0.25,51,160.0
1326,G4,311.5,0.5,41,160.0
1327,B4,311.5,0.5,41,160.0
1328,E5,311.75,0.25,52,160.0
1329,F5,312.0,0.25,53,160.0
1330,B4,312.0,0.5,42,160.0
1331,G4,312.0,0.5,42,160.0
1332,F#5,312.25,0.25,54,160.0
1333,G5,312.5,0.25,56,160.0
1334,G4,312.5,0.5,42,160.0
1335,B4,312.5,0.5,42,160.0
1336,G#5,312.75,0.25,57,160.0
1337,A5,313.0,0.25,58,160.0
1338,G4,313.0,0.5,42,160.0
1339,B4,313.0,0.5,42,160.0
1340,B-5,313.25,0.25,59,160.0
1341,B5,313.5,1.0,68,160.0
1342,G4,313.5,0.5,42,160.0
1343,B4,313.5,0.5,42,160.0
1344,F#4,314.0,0.5,42,160.0
1345,A3,314.0,0.5,42,160.0
1346,A5,314.5,0.25,60,160.0
1347,A3,314.5,0.5,42,160.0
1348,F#4,314.5,0.5,42,160.0
1349,G5,314.75,0.25,56,160.0
1350,F#5,315.0,0.25,56,160.0
1351,A3,315.0,0.5,42,160.0
1352,E4,315.0,0.5,42,160.0
1353,E5,315.25,0.25,56,160.0
1354,D5,315.5,1.0,60,160.0
1355,A3,315.5,0.5,42,160.0
1356,E4,315.5,0.5,42,160.0
1357,D4,316.0,0.5,40,160.0
1358,F#4,316.0,0.5,40,160.0
1359,C#5,316.5,167/1000,52,160.0
1360,D4,316.5,0.5,35,160.0
1361,F#4,316.5,0.5,35,160.0
1362,D5,316.667,167/1000,43,160.0
1363,C#5,316.833,167/1000,48,160.0
1364,D5,317.0,0.125,43,160.0
1365,D4,317.0,0.5,35,160.0
1366,F#4,317.0,0.5,35,160.0
1367,C#5,317.125,0.125,48,160.0
1368,D5,317.25,0.125,42,160.0
1369,C#5,317.375,0.125,47,160.0
1370,D5,317.5,0.25,54,160.0
1371,D4,317.5,0.5,35,160.0
1372,F#4,317.5,0.5,35,160.0
1373,E5,317.75,0.25,50,160.0
1374,F#5,318.0,0.25,51,160.0
1375,D4,318.0,0.5,40,160.0
1376,G4,318.0,0.5,40,160.0
1377,G5,318.25,0.25,52,160.0
1378,A5,318.5,0.25,53,160.0
1379,D4,318.5,0.5,35,160.0
1380,G4,318.5,0.5,35,160.0
1381,B5,318.75,0.25,54,160.0
1382,C#6,319.0,0.25,55,160.0
1383,D4,319.0,0.5,35,160.0
1384,G4,319.0,0.5,35,160.0
1385,D6,319.25,0.25,56,160.0
1386,C#6,319.5,0.25,59,160.0
1387,D4,319.5,0.5,35,160.0
1388,G4,319.5,0.5,35,160.0
1389,E6,319.75,0.25,55,160.0
1390,C#6,320.0,0.25,55,160.0
1391,D4,320.0,0.5,40,160.0
1392,F#4,320.0,0.5,40,160.0
1393,A5,320.25,0.25,55,160.0
1394,G5,320.5,0.25,58,160.0
1395,D4,320.5,0.5,35,160.0
1396,F#4,320.5,0.5,35,160.0
1397,B5,320.75,0.25,55,160.0
1398,G5,321.0,0.25,55,160.0
1399,D4,321.0,0.5,35,160.0
1400,F#4,321.0,0.5,35,160.0
1401,E5,321.25,0.25,55,160.0
1402,F#5,321.5,0.25,57,160.0
1403,D4,321.5,0.5,35,160.0
1404,F#4,321.5,0.5,35,160.0
1405,A5,321.75,0.25,53,160.0
1406,G5,322.0,0.25,53,160.0
1407,D4,322.0,0.5,40,160.0
1408,G4,322.0,0.5,40,160.0
1409,F#5,322.25,0.25,53,160.0
1410,E5,322.5,0.25,55,160.0
1411,D4,322.5,0.5,35,160.0
1412,G4,322.5,0.5,35,160.0
1413,D5,322.75,0.25,53,160.0
1414,C#5,323.0,0.25,53,160.0
1415,D4,323.0,0.5,35,160.0
1416,G4,323.0,0.5,35,160.0
1417,B4,323.25,0.25,53,160.0
1418,A4,323.5,0.25,56,160.0
1419,D4,323.5,0.5,35,160.0
1420,G4,323.5,0.5,35,160.0
1421,B4,323.75,0.25,52,160.0
1422,C#5,324.0,0.25,52,160.0
1423,D4,324.0,0.5,42,160.0
1424,F#4,324.0,0.5,42,160.0
1425,D5,324.25,0.25,52,160.0
1426,E5,324.5,0.25,55,160.0
1427,D4,324.5,0.5,38,160.0
1428,F#4,324.5,0.5,38,160.0
1429,F#5,324.75,0.25,51,160.0
1430,G5,325.0,0.25,53,160.0
1431,D4,325.0,0.5,42,160.0
1432,F#4,325.0,0.5,42,160.0
1433,E5,325.25,0.25,54,160.0
1434,D5,325.5,0.25,56,160.0
1435,D4,325.5,0.25,37,160.0
1436,F#4,325.5,0.25,37,160.0
1437,E5,325.75,0.25,56,160.0
1438,F#5,326.0,0.25,59,160.0
1439,D4,326.0,1.0,44,160.0
1440,F#4,326.0,1.0,44,160.0
1441,G5,326.25,0.25,61,160.0
1442,A5,326.5,0.25,61,160.0
1443,B5,326.75,0.25,64,160.0
1444,C#6,327.0,0.25,66,160.0
1445,D6,327.25,0.125,66,160.0
1446,D5,327.5,1.0,64,160.0
1447,G3,328.002,0.5,37,160.0
1448,B3,328.002,0.5,37,160.0
1449,G3,328.5,0.5,33,160.0
1450,B3,328.5,0.5,33,160.0
1451,G3,329.0,0.5,33,160.0
1452,B3,329.0,0.5,33,160.0
1453,G3,329.5,0.5,33,160.0
1454,B3,329.5,0.5,33,160.0
1455,G4,329.502,0.75,60,160.0
1456,G3,330.0,0.5,37,160.0
1457,B3,330.0,0.5,37,160.0
1458,B4,330.25,0.125,46,160.0
1459,A4,330.375,0.125,47,160.0
1460,G4,330.5,0.25,56,160.0
1461,G3,330.5,0.5,35,160.0
1462,B3,330.5,0.5,35,160.0
1463,D4,330.75,0.25,48,160.0
1464,B4,331.0,0.25,48,160.0
1465,G3,331.0,0.5,35,160.0
1466,B3,331.0,0.5,35,160.0
1467,A4,331.25,0.25,48,160.0
1468,G4,331.5,0.25,56,160.0
1469,G3,331.5,0.5,35,160.0
1470,B3,331.5,0.5,35,160.0
1471,D4,331.75,0.25,48,160.0
1472,G4,332.0,0.25,48,160.0
1473,G3,332.0,1.0,40,160.0
1474,C4,332.0,1.0,40,160.0
1475,B4,332.25,0.25,48,160.0
1476,D5,332.5,0.25,56,160.0
1477,B4,332.75,0.25,52,160.0
1478,A4,333.0,0.25,52,160.0
1479,G3,333.0,0.5,38,160.0
1480,B3,333.0,0.5,38,160.0
1481,G4,333.25,0.25,52,160.0
1482,B4,333.5,0.25,59,160.0
1483,A4,333.75,0.25,52,160.0
1484,G4,334.0,0.25,52,160.0
1485,F4,334.0,0.25,38,160.0
1486,A4,334.25,0.25,52,160.0
1487,G4,334.25,0.25,33,160.0
1488,G4,334.5,0.5,54,160.0
1489,F4,334.5,0.25,38,160.0
1490,G4,334.75,0.25,33,160.0
1491,D5,335.0,0.5,52,160.0
1492,F4,335.0,0.25,38,160.0
1493,G4,335.25,0.25,34,160.0
1494,D5,335.5,0.5,54,160.0
1495,F4,335.5,0.25,38,160.0
1496,G4,335.75,0.25,33,160.0
1497,D5,336.0,0.5,52,160.0
1498,E4,336.0,1.0,52,160.0
1499,D5,336.5,0.5,52,160.0
1500,D5,337.0,0.5,52,160.0
1501,D5,337.5,0.25,57,160.0
1502,E4,337.5,0.25,48,160.0
1503,G5,337.75,0.25,54,160.0
1504,D4,337.75,0.25,48,160.0
1505,E5,338.0,0.25,54,160.0
1506,C4,338.0,1.0,52,160.0
1507,D5,338.25,0.25,54,160.0
1508,C5,338.5,0.25,57,160.0
1509,E5,338.75,0.25,54,160.0
1510,C5,339.0,0.25,54,160.0
1511,B4,339.25,0.25,54,160.0
1512,A4,339.5,0.25,57,160.0
1513,C#4,339.5,0.5,52,160.0
1514,E6,339.75,0.25,57,160.0
1515,C6,340.0,0.25,57,160.0
1516,D4,340.0,2.0,58,160.0
1517,B5,340.25,0.25,57,160.0
1518,A5,340.5,0.25,57,160.0
1519,C6,340.75,0.25,54,160.0
1520,A5,341.0,0.25,54,160.0
1521,G5,341.25,0.25,54,160.0
1522,F#5,341.5,0.25,57,160.0
1523,G5,341.75,0.25,54,160.0
1524,A5,342.0,0.25,54,160.0
1525,D3,342.0,1.0,52,160.0
1526,G5,342.25,0.25,54,160.0
1527,F#5,342.5,0.25,56,160.0
1528,E5,342.75,0.25,54,160.0
1529,D5,343.0,0.25,54,160.0
1530,C#5,343.25,0.25,54,160.0
1531,D5,343.5,0.25,58,160.0
1532,D6,343.75,0.25,54,160.0
1533,C5,344.0,0.25,58,160.0
1534,G3,344.0,0.5,37,160.0
1535,B3,344.0,0.5,37,160.0
1536,C6,344.25,0.25,53,160.0
1537,B4,344.5,0.25,61,160.0
1538,G3,344.5,0.5,33,160.0
1539,B3,344.5,0.5,33,160.0
1540,B5,344.75,0.25,56,160.0
1541,A4,345.0,0.25,61,160.0
1542,G3,345.0,0.5,33,160.0
1543,B3,345.0,0.5,33,160.0
1544,A5,345.25,0.25,56,160.0
1545,G3,345.5,0.5,33,160.0
1546,B3,345.5,0.5,33,160.0
1547,G4,345.502,0.75,66,160.0
1548,G3,346.0,0.5,37,160.0
1549,B3,346.0,0.5,37,160.0
1550,B4,346.25,0.125,46,160.0
1551,A4,346.375,0.125,47,160.0
1552,G4,346.5,0.25,56,160.0
1553,G3,346.5,0.5,35,160.0
1554,B3,346.5,0.5,35,160.0
1555,D4,346.75,0.25,48,160.0
1556,B4,347.0,0.25,48,160.0
1557,G3,347.0,0.5,35,160.0
1558,B3,347.0,0.5,35,160.0
1559,A4,347.25,0.25,48,160.0
1560,G4,347.5,0.25,56,160.0
1561,G3,347.5,0.5,35,160.0
1562,B3,347.5,0.5,35,160.0
1563,D4,347.75,0.25,48,160.0
1564,G4,348.0,0.25,48,160.0
1565,G3,348.0,1.0,40,160.0
1566,C4,348.0,1.0,40,160.0
1567,B4,348.25,0.25,48,160.0
1568,D5,348.5,0.25,56,160.0
1569,B4,348.75,0.25,52,160.0
1570,A4,349.0,0.25,52,160.0
1571,G3,349.0,0.5,38,160.0
1572,B3,349.0,0.5,38,160.0
1573,G4,349.25,0.25,52,160.0
1574,B4,349.5,0.25,59,160.0
1575,A4,349.75,0.25,52,160.0
1576,G4,350.0,0.25,52,160.0
1577,B4,350.0,0.5,41,160.0
1578,G4,350.0,0.5,41,160.0
1579,A4,350.25,0.25,52,160.0
1580,G4,350.5,0.5,54,160.0
1581,B4,350.5,0.5,38,160.0
1582,G4,350.5,0.5,38,160.0
1583,E5,351.0,0.5,54,160.0
1584,B4,351.0,0.5,44,160.0
1585,G4,351.0,0.5,44,160.0
1586,E-5,351.5,0.25,51,160.0
1587,G4,351.5,0.5,41,160.0
1588,B4,351.5,0.5,41,160.0
1589,E5,351.75,0.25,52,160.0
1590,F5,352.0,0.25,53,160.0
1591,B4,352.0,0.5,42,160.0
1592,G4,352.0,0.5,42,160.0
1593,F#5,352.25,0.25,54,160.0
1594,G5,352.5,0.25,56,160.0
1595,G4,352.5,0.5,42,160.0
1596,B4,352.5,0.5,42,160.0
1597,G#5,352.75,0.25,57,160.0
1598,A5,353.0,0.25,58,160.0
1599,G4,353.0,0.5,42,160.0
1600,B4,353.0,0.5,42,160.0
1601,B-5,353.25,0.25,59,160.0
1602,B5,353.5,1.0,68,160.0
1603,G4,353.5,0.5,42,160.0
1604,B4,353.5,0.5,42,160.0
1605,F#4,354.0,0.5,42,160.0
1606,A3,354.0,0.5,42,160.0
1607,A5,354.5,0.25,60,160.0
1608,A3,354.5,0.5,42,160.0
1609,F#4,354.5,0.5,42,160.0
1610,G5,354.75,0.25,56,160.0
1611,F#5,355.0,0.25,56,160.0
1612,A3,355.0,0.5,42,160.0
1613,E4,355.0,0.5,42,160.0
1614,E5,355.25,0.25,56,160.0
1615,D5,355.5,1.0,60,160.0
1616,A3,355.5,0.5,42,160.0
1617,E4,355.5,0.5,42,160.0
1618,D4,356.0,0.5,40,160.0
1619,F#4,356.0,0.5,40,160.0
1620,C#5,356.5,167/1000,52,160.0
1621,D4,356.5,0.5,35,160.0
1622,F#4,356.5,0.5,35,160.0
1623,D5,356.667,167/1000,43,160.0
1624,C#5,356.833,167/1000,48,160.0
1625,D5,357.0,0.125,43,160.0
1626,D4,357.0,0.5,35,160.0
1627,F#4,357.0,0.5,35,160.0
1628,C#5,357.125,0.125,48,160.0
1629,D5,357.25,0.125,42,160.0
1630,C#5,357.375,0.125,47,160.0
1631,D5,357.5,0.25,54,160.0
1632,D4,357.5,0.5,35,160.0
1633,F#4,357.5,0.5,35,160.0
1634,E5,357.75,0.25,50,160.0
1635,F#5,358.0,0.25,51,160.0
1636,D4,358.0,0.5,40,160.0
1637,G4,358.0,0.5,40,160.0
1638,G5,358.25,0.25,52,160.0
1639,A5,358.5,0.25,53,160.0
1640,D4,358.5,0.5,35,160.0
1641,G4,358.5,0.5,35,160.0
1642,B5,358.75,0.25,54,160.0
1643,C#6,359.0,0.25,55,160.0
1644,D4,359.0,0.5,35,160.0
1645,G4,359.0,0.5,35,160.0
1646,D6,359.25,0.25,56,160.0
1647,C#6,359.5,0.25,59,160.0
1648,D4,359.5,0.5,35,160.0
1649,G4,359.5,0.5,35,160.0
1650,E6,359.75,0.25,55,160.0
1651,C#6,360.0,0.25,55,160.0
1652,D4,360.0,0.5,40,160.0
1653,F#4,360.0,0.5,40,160.0
1654,A5,360.25,0.25,55,160.0
1655,G5,360.5,0.25,58,160.0
1656,D4,360.5,0.5,35,160.0
1657,F#4,360.5,0.5,35,160.0
1658,B5,360.75,0.25,55,160.0
1659,G5,361.0,0.25,55,160.0
1660,D4,361.0,0.5,35,160.0
1661,F#4,361.0,0.5,35,160.0
1662,E5,361.25,0.25,55,160.0
1663,F#5,361.5,0.25,57,160.0
1664,D4,361.5,0.5,35,160.0
1665,F#4,361.5,0.5,35,160.0
1666,A5,361.75,0.25,53,160.0
1667,G5,362.0,0.25,53,160.0
1668,D4,362.0,0.5,40,160.0
1669,G4,362.0,0.5,40,160.0
1670,F#5,362.25,0.25,53,160.0
1671,E5,362.5,0.25,55,160.0
1672,D4,362.5,0.5,35,160.0
1673,G4,362.5,0.5,35,160.0
1674,D5,362.75,0.25,53,160.0
1675,C#5,363.0,0.25,53,160.0
1676,D4,363.0,0.5,35,160.0
1677,G4,363.0,0.5,35,160.0
1678,B4,363.25,0.25,53,160.0
1679,A4,363.5,0.25,56,160.0
1680,D4,363.5,0.5,35,160.0
1681,G4,363.5,0.5,35,160.0
1682,B4,363.75,0.25,52,160.0
1683,C#5,364.0,0.25,52,160.0
1684,D4,364.0,0.5,42,160.0
1685,F#4,364.0,0.5,42,160.0
1686,D5,364.25,0.25,52,160.0
1687,E5,364.5,0.25,55,160.0
1688,D4,364.5,0.5,38,160.0
1689,F#4,364.5,0.5,38,160.0
1690,F#5,364.75,0.25,51,160.0
1691,G5,365.0,0.25,53,160.0
1692,D4,365.0,0.5,42,160.0
1693,F#4,365.0,0.5,42,160.0
1694,E5,365.25,0.25,54,160.0
1695,D5,365.5,0.25,56,160.0
1696,D4,365.5,0.25,37,160.0
1697,F#4,365.5,0.25,37,160.0
1698,E5,365.75,0.25,56,160.0
1699,F#5,366.0,0.25,59,160.0
1700,D4,366.0,1.0,44,160.0
1701,F#4,366.0,1.0,44,160.0
1702,G5,366.25,0.25,61,160.0
1703,A5,366.5,0.25,61,160.0
1704,B5,366.75,0.25,63,160.0
1705,C#6,367.0,0.25,66,160.0
1706,D6,367.25,0.125,69,160.0
1707,D5,367.5,1.0,66,160.0
1708,B-3,368.0,0.25,45,160.0
1709,F4,368.25,0.25,39,160.0
1710,D4,368.5,0.25,45,160.0
1711,F4,368.75,0.25,38,160.0
1712,B-3,369.0,0.25,45,160.0
1713,F4,369.25,0.25,41,160.0
1714,F5,369.5,0.75,54,160.0
1715,D4,369.5,0.25,45,160.0
1716,F4,369.75,0.25,39,160.0
1717,C4,370.0,0.25,45,160.0
1718,D5,370.25,0.125,47,160.0
1719,F4,370.25,0.25,39,160.0
1720,E-5,370.375,0.125,47,160.0
1721,F5,370.5,0.5,55,160.0
1722,E-4,370.5,0.25,45,160.0
1723,F4,370.75,0.25,39,160.0
1724,F6,371.0,1.0,84,160.0
1725,C4,371.0,0.25,45,160.0
1726,F4,371.25,0.25,41,160.0
1727,E-4,371.5,0.25,45,160.0
1728,F4,371.75,0.25,40,160.0
1729,A4,372.0,0.5,51,160.0
1730,B-3,372.0,0.25,45,160.0
1731,F4,372.25,0.25,40,160.0
1732,A4,372.5,0.5,51,160.0
1733,D4,372.5,0.25,45,160.0
1734,F4,372.75,0.25,40,160.0
1735,A4,373.0,0.5,51,160.0
1736,B-3,373.0,0.25,45,160.0
1737,F4,373.25,0.25,40,160.0
1738,B-4,373.5,0.75,54,160.0
1739,D4,373.5,0.25,45,160.0
1740,F4,373.75,0.25,39,160.0
1741,A3,374.0,0.25,45,160.0
1742,B-4,374.25,0.125,47,160.0
1743,D4,374.25,0.25,39,160.0
1744,C5,374.375,0.125,47,160.0
1745,D5,374.5,0.5,55,160.0
1746,C4,374.5,0.25,45,160.0
1747,D4,374.75,0.25,41,160.0
1748,D6,375.0,1.0,79,160.0
1749,A3,375.0,0.25,45,160.0
1750,D4,375.25,0.25,40,160.0
1751,C4,375.5,0.25,45,160.0
1752,D4,375.75,0.25,40,160.0
1753,F#4,376.0,0.5,51,160.0
1754,G3,376.0,0.25,45,160.0
1755,D4,376.25,0.25,40,160.0
1756,F#4,376.5,0.5,51,160.0
1757,B-3,376.5,0.25,45,160.0
1758,D4,376.75,0.25,39,160.0
1759,F#4,377.0,0.5,51,160.0
1760,G3,377.0,0.25,45,160.0
1761,D4,377.25,0.25,40,160.0
1762,G4,377.5,0.75,59,160.0
1763,B-3,377.5,0.25,45,160.0
1764,D4,377.75,0.25,40,160.0
1765,E-3,378.0,0.25,45,160.0
1766,G4,378.25,0.125,47,160.0
1767,G3,378.25,0.25,39,160.0
1768,A4,378.375,0.125,47,160.0
1769,B-4,378.5,0.5,59,160.0
1770,F#3,378.5,0.25,45,160.0
1771,G3,378.75,0.25,39,160.0
1772,B-5,379.0,1.0,78,160.0
1773,E-3,379.0,0.25,45,160.0
1774,G3,379.25,0.25,39,160.0
1775,F#3,379.5,0.25,45,160.0
1776,G3,379.75,0.25,39,160.0
1777,C#4,380.0,0.5,55,160.0
1778,D3,380.0,1.0,58,160.0
1779,C#4,380.5,0.5,55,160.0
1780,C#4,381.0,0.5,55,160.0
1781,D4,381.5,0.25,54,160.0
1782,E4,381.75,0.25,56,160.0
1783,F#4,382.0,0.25,57,160.0
1784,D2,382.0,0.25,60,160.0
1785,G4,382.25,0.25,59,160.0
1786,D3,382.25,0.25,60,160.0
1787,A4,382.5,0.25,60,160.0
1788,C2,382.5,0.25,60,160.0
1789,F#4,382.75,0.25,57,160.0
1790,C3,382.75,0.25,59,160.0
1791,G4,383.0,0.25,60,160.0
1792,B1,383.0,0.25,58,160.0
1793,E4,383.25,0.25,56,160.0
1794,B2,383.25,0.25,57,160.0
1795,D4,383.5,1.0,68,160.0
1796,A1,383.5,0.25,56,160.0
1797,A2,383.75,0.25,56,160.0
1798,G1,384.0,1.0,65,160.0
1799,G3,385.0,0.5,33,160.0
1800,B3,385.0,0.5,33,160.0
1801,G3,385.5,0.5,33,160.0
1802,B3,385.5,0.5,33,160.0
1803,G4,385.502,0.75,60,160.0
1804,G3,386.0,0.5,37,160.0
1805,B3,386.0,0.5,37,160.0
1806,B4,386.25,0.125,46,160.0
1807,A4,386.375,0.125,47,160.0
1808,G4,386.5,0.25,56,160.0
1809,G3,386.5,0.5,35,160.0
1810,B3,386.5,0.5,35,160.0
1811,D4,386.75,0.25,48,160.0
1812,B4,387.0,0.25,48,160.0
1813,G3,387.0,0.5,35,160.0
1814,B3,387.0,0.5,35,160.0
1815,A4,387.25,0.25,48,160.0
1816,G4,387.5,0.25,56,160.0
1817,G3,387.5,0.5,35,160.0
1818,B3,387.5,0.5,35,160.0
1819,D4,387.75,0.25,48,160.0
1820,G4,388.0,0.25,48,160.0
1821,G3,388.0,1.0,40,160.0
1822,C4,388.0,1.0,40,160.0
1823,B4,388.25,0.25,48,160.0
1824,D5,388.5,0.25,56,160.0
1825,B4,388.75,0.25,52,160.0
1826,A4,389.0,0.25,52,160.0
1827,G3,389.0,0.5,38,160.0
1828,B3,389.0,0.5,38,160.0
1829,G4,389.25,0.25,52,160.0
1830,B4,389.5,0.25,59,160.0
1831,A4,389.75,0.25,52,160.0
1832,G4,390.0,0.25,52,160.0
1833,D5,390.0,0.5,41,160.0
1834,G#4,390.0,0.5,41,160.0
1835,A4,390.25,0.25,52,160.0
1836,G4,390.5,0.5,54,160.0
1837,D5,390.5,0.5,38,160.0
1838,G#4,390.5,0.5,38,160.0
1839,E6,391.0,0.25,46,160.0
1840,D5,391.0,0.5,44,160.0
1841,G#4,391.0,0.5,44,160.0
1842,E5,391.25,0.25,44,160.0
1843,E6,391.5,0.25,47,160.0
1844,G#4,391.5,0.5,41,160.0
1845,D5,391.5,0.5,41,160.0
1846,E5,391.75,0.25,44,160.0
1847,E6,392.0,0.25,49,160.0
1848,A4,392.0,1.0,50,160.0
1849,C5,392.0,1.0,50,160.0
1850,E5,392.25,0.25,45,160.0
1851,E6,392.5,0.25,51,160.0
1852,E5,392.75,0.25,46,160.0
1853,E6,393.0,0.25,52,160.0
1854,E5,393.25,0.25,49,160.0
1855,E6,393.5,0.625,54,160.0
1856,C5,394.0,0.5,41,160.0
1857,F#4,394.0,0.5,41,160.0
1858,D6,394.125,0.125,48,160.0
1859,C6,394.25,0.125,48,160.0
1860,B5,394.375,0.125,47,160.0
1861,A5,394.5,0.5,47,160.0
1862,C5,394.5,0.5,38,160.0
1863,F#4,394.5,0.5,38,160.0
1864,D6,395.0,0.25,46,160.0
1865,C5,395.0,0.5,44,160.0
1866,F#4,395.0,0.5,44,160.0
1867,D5,395.25,0.25,44,160.0
1868,D6,395.5,0.25,47,160.0
1869,F#4,395.5,0.5,41,160.0
1870,C5,395.5,0.5,41,160.0
1871,D5,395.75,0.25,44,160.0
1872,D6,396.0,0.25,49,160.0
1873,G4,396.0,1.0,50,160.0
1874,B4,396.0,1.0,50,160.0
1875,D5,396.25,0.25,45,160.0
1876,D6,396.5,0.25,51,160.0
1877,D5,396.75,0.25,46,160.0
1878,D6,397.0,0.25,52,160.0
1879,D5,397.25,0.25,49,160.0
1880,D6,397.5,0.625,54,160.0
1881,C6,398.125,0.125,48,160.0
1882,B5,398.25,0.125,48,160.0
1883,A5,398.375,0.125,47,160.0
1884,G5,398.5,0.5,47,160.0
1885,D6,403.0,0.125,39,160.0
1886,C6,403.125,0.125,39,160.0
1887,B5,403.25,0.125,39,160.0
1888,A5,403.375,0.125,39,160.0
1889,G5,403.5,0.25,47,160.0
1890,B5,404.0,0.125,39,160.0
1891,E4,404.0,1.0,34,160.0
1892,G4,404.0,1.0,34,160.0
1893,A5,404.125,0.125,39,160.0
1894,G5,404.25,0.125,39,160.0
1895,F#5,404.375,0.125,39,160.0
1896,E5,404.5,0.25,50,160.0
1897,G5,405.0,0.125,38,160.0
1898,F#5,405.125,0.125,38,160.0
1899,E5,405.25,0.125,38,160.0
1900,D5,405.375,0.125,38,160.0
1901,C5,405.5,1.0,50,160.0
1902,E-4,406.0,0.25,45,160.0
1903,G4,406.25,0.25,38,160.0
1904,E-4,406.5,0.25,45,160.0
1905,G4,406.75,0.25,38,160.0
1906,G5,407.0,0.125,52,160.0
1907,E-4,407.0,0.25,45,160.0
1908,F5,407.125,0.125,52,160.0
1909,E-5,407.25,0.125,52,160.0
1910,G4,407.25,0.25,39,160.0
1911,D5,407.375,0.125,52,160.0
1912,C5,407.5,0.5,63,160.0
1913,E-4,407.5,0.25,45,160.0
1914,G4,407.75,0.25,39,160.0
1915,B5,408.0,0.5,63,160.0
1916,D4,408.0,1.0,50,160.0
1917,F#4,408.0,1.0,50,160.0
1918,C6,408.5,0.5,71,160.0
1919,C6,409.0,0.5,66,160.0
1920,G4,409.0,1.0,46,160.0
1921,C6,409.5,0.25,64,160.0
1922,B5,409.75,0.25,57,160.0
1923,C6,410.0,0.25,57,160.0
1924,C4,410.0,1.0,49,160.0
1925,C5,410.0,1.0,49,160.0
1926,A5,410.25,0.25,57,160.0
1927,B5,410.5,0.25,64,160.0
1928,A5,410.75,0.25,57,160.0
1929,B5,411.0,0.25,57,160.0
1930,D4,411.0,1.0,47,160.0
1931,C5,411.0,1.0,47,160.0
1932,G5,411.25,0.25,57,160.0
1933,A5,411.5,0.25,63,160.0
1934,G#5,411.75,0.25,57,160.0
1935,A5,412.0,0.25,57,160.0
1936,G4,412.0,0.5,43,160.0
1937,B4,412.0,0.5,43,160.0
1938,E5,412.25,0.25,57,160.0
1939,G5,412.5,0.25,63,160.0
1940,G4,412.5,0.5,37,160.0
1941,B4,412.5,0.5,37,160.0
1942,F#5,412.75,0.25,57,160.0
1943,E5,413.0,0.25,57,160.0
1944,G4,413.0,0.5,40,160.0
1945,B4,413.0,0.5,40,160.0
1946,D5,413.25,0.25,57,160.0
1947,G5,413.5,0.25,65,160.0
1948,G4,413.5,0.5,37,160.0
1949,B4,413.5,0.5,37,160.0
1950,D5,413.75,0.25,56,160.0
1951,G5,414.0,0.25,58,160.0
1952,G4,414.0,0.5,40,160.0
1953,C5,414.0,0.5,40,160.0
1954,B5,414.25,0.25,61,160.0
1955,D6,414.5,0.25,68,160.0
1956,G4,414.5,0.5,34,160.0
1957,C5,414.5,0.5,34,160.0
1958,B5,414.75,0.25,62,160.0
1959,A5,415.0,0.25,60,160.0
1960,G4,415.0,0.5,40,160.0
1961,C5,415.0,0.5,40,160.0
1962,G5,415.25,0.25,57,160.0
1963,F#5,415.5,0.25,64,160.0
1964,G4,415.5,0.5,34,160.0
1965,C5,415.5,0.5,34,160.0
1966,D5,415.75,0.25,56,160.0
1967,F#5,416.0,0.25,56,160.0
1968,G4,416.0,0.5,43,160.0
1969,B4,416.0,0.5,43,160.0
1970,A5,416.25,0.25,56,160.0
1971,C6,416.5,0.25,64,160.0
1972,G4,416.5,0.5,37,160.0
1973,B4,416.5,0.5,37,160.0
1974,A5,416.75,0.25,57,160.0
1975,G5,417.0,0.25,57,160.0
1976,G4,417.0,0.5,40,160.0
1977,B4,417.0,0.5,40,160.0
1978,F#5,417.25,0.25,57,160.0
1979,G5,417.5,0.25,65,160.0
1980,G4,417.5,0.5,37,160.0
1981,B4,417.5,0.5,37,160.0
1982,D5,417.75,0.25,56,160.0
1983,G5,418.0,0.25,58,160.0
1984,G4,418.0,0.5,40,160.0
1985,C5,418.0,0.5,40,160.0
1986,B5,418.25,0.25,61,160.0
1987,D6,418.5,0.25,68,160.0
1988,G4,418.5,0.5,34,160.0
1989,C5,418.5,0.5,34,160.0
1990,B5,418.75,0.25,62,160.0
1991,A5,419.0,0.25,60,160.0
1992,G4,419.0,0.5,40,160.0
1993,C5,419.0,0.5,40,160.0
1994,G5,419.25,0.25,57,160.0
1995,F#5,419.5,0.25,64,160.0
1996,G4,419.5,0.5,34,160.0
1997,C5,419.5,0.5,34,160.0
1998,D5,419.75,0.25,56,160.0
1999,F#5,420.0,0.25,56,160.0
2000,G4,420.0,1.0,43,160.0
2001,B4,420.0,1.0,43,160.0
2002,A5,420.25,0.25,56,160.0
2003,C6,420.5,0.25,64,160.0
2004,A5,420.75,0.25,57,160.0
2005,G5,421.0,0.25,57,160.0
2006,F#5,421.25,0.25,57,160.0
2007,G4,421.25,0.25,56,160.0
2008,G5,421.5,0.25,65,160.0
2009,D4,421.5,0.25,55,160.0
2010,B5,421.75,0.25,59,160.0
2011,B3,421.75,0.25,54,160.0
2012,G5,422.0,0.25,59,160.0
2013,G3,422.0,0.5,60,160.0
2014,D5,422.25,0.25,59,160.0
2015,B4,422.5,0.25,65,160.0
2016,B-3,424.0,0.25,45,160.0
2017,F4,424.25,0.25,39,160.0
2018,D4,424.5,0.25,45,160.0
2019,F4,424.75,0.25,38,160.0
2020,B-3,425.0,0.25,45,160.0
2021,F4,425.25,0.25,41,160.0
2022,F5,425.5,0.75,54,160.0
2023,D4,425.5,0.25,45,160.0
2024,F4,425.75,0.25,39,160.0
2025,C4,426.0,0.25,45,160.0
2026,D5,426.25,0.125,47,160.0
2027,F4,426.25,0.25,39,160.0
2028,E-5,426.375,0.125,47,160.0
2029,F5,426.5,0.5,55,160.0
2030,E-4,426.5,0.25,45,160.0
2031,F4,426.75,0.25,39,160.0
2032,F6,427.0,1.0,84,160.0
2033,C4,427.0,0.25,45,160.0
2034,F4,427.25,0.25,41,160.0
2035,E-4,427.5,0.25,45,160.0
2036,F4,427.75,0.25,40,160.0
2037,A4,428.0,0.5,51,160.0
2038,B-3,428.0,0.25,45,160.0
2039,F4,428.25,0.25,40,160.0
2040,A4,428.5,0.5,51,160.0
2041,D4,428.5,0.25,45,160.0
2042,F4,428.75,0.25,40,160.0
2043,A4,429.0,0.5,51,160.0
2044,B-3,429.0,0.25,45,160.0
2045,F4,429.25,0.25,40,160.0
2046,B-4,429.5,0.75,54,160.0
2047,D4,429.5,0.25,45,160.0
2048,F4,429.75,0.25,39,160.0
2049,A3,430.0,0.25,45,160.0
2050,B-4,430.25,0.125,47,160.0
2051,D4,430.25,0.25,39,160.0
2052,C5,430.375,0.125,47,160.0
2053,D5,430.5,0.5,55,160.0
2054,C4,430.5,0.25,45,160.0
2055,D4,430.75,0.25,41,160.0
2056,D6,431.0,1.0,79,160.0
2057,A3,431.0,0.25,45,160.0
2058,D4,431.25,0.25,40,160.0
2059,C4,431.5,0.25,45,160.0
2060,D4,431.75,0.25,40,160.0
2061,F#4,432.0,0.5,51,160.0
2062,G3,432.0,0.25,45,160.0
2063,D4,432.25,0.25,40,160.0
2064,F#4,432.5,0.5,51,160.0
2065,B-3,432.5,0.25,45,160.0
2066,D4,432.75,0.25,39,160.0
2067,F#4,433.0,0.5,51,160.0
2068,G3,433.0,0.25,45,160.0
2069,D4,433.25,0.25,40,160.0
2070,G4,433.5,0.75,59,160.0
2071,B-3,433.5,0.25,45,160.0
2072,D4,433.75,0.25,40,160.0
2073,E-3,434.0,0.25,45,160.0
2074,G4,434.25,0.125,47,160.0
2075,G3,434.25,0.25,39,160.0
2076,A4,434.375,0.125,47,160.0
2077,B-4,434.5,0.5,59,160.0
2078,F#3,434.5,0.25,45,160.0
2079,G3,434.75,0.25,39,160.0
2080,B-5,435.0,1.0,78,160.0
2081,E-3,435.0,0.25,45,160.0
2082,G3,435.25,0.25,39,160.0
2083,F#3,435.5,0.25,45,160.0
2084,G3,435.75,0.25,39,160.0
2085,C#4,436.0,0.5,55,160.0
2086,D3,436.0,1.0,58,160.0
2087,C#4,436.5,0.5,55,160.0
2088,C#4,437.0,0.5,55,160.0
2089,D4,437.5,0.25,54,160.0
2090,E4,437.75,0.25,56,160.0
2091,F#4,438.0,0.25,57,160.0
2092,D2,438.0,0.25,58,160.0
2093,G4,438.25,0.25,59,160.0
2094,D3,438.25,0.25,57,160.0
2095,A4,438.5,0.25,60,160.0
2096,C2,438.5,0.25,57,160.0
2097,F#4,438.75,0.25,57,160.0
2098,C3,438.75,0.25,56,160.0
2099,G4,439.0,0.25,60,160.0
2100,B1,439.0,0.25,56,160.0
2101,E4,439.25,0.25,56,160.0
2102,B2,439.25,0.25,55,160.0
2103,D4,439.5,1.0,68,160.0
2104,A1,439.5,0.25,55,160.0
2105,A2,439.75,0.25,56,160.0
2106,G1,440.0,1.0,65,160.0
2107,G3,441.0,0.5,33,160.0
2108,B3,441.0,0.5,33,160.0
2109,G3,441.5,0.5,33,160.0
2110,B3,441.5,0.5,33,160.0
2111,G4,441.502,0.75,60,160.0
2112,G3,442.0,0.5,37,160.0
2113,B3,442.0,0.5,37,160.0
2114,B4,442.25,0.125,46,160.0
2115,A4,442.375,0.125,47,160.0
2116,G4,442.5,0.25,56,160.0
2117,G3,442.5,0.5,35,160.0
2118,B3,442.5,0.5,35,160.0
2119,D4,442.75,0.25,48,160.0
2120,B4,443.0,0.25,48,160.0
2121,G3,443.0,0.5,35,160.0
2122,B3,443.0,0.5,35,160.0
2123,A4,443.25,0.25,48,160.0
2124,G4,443.5,0.25,56,160.0
2125,G3,443.5,0.5,35,160.0
2126,B3,443.5,0.5,35,160.0
2127,D4,443.75,0.25,48,160.0
2128,G4,444.0,0.25,48,160.0
2129,G3,444.0,1.0,40,160.0
2130,C4,444.0,1.0,40,160.0
2131,B4,444.25,0.25,48,160.0
2132,D5,444.5,0.25,56,160.0
2133,B4,444.75,0.25,52,160.0
2134,A4,445.0,0.25,52,160.0
2135,G3,445.0,0.5,38,160.0
2136,B3,445.0,0.5,38,160.0
2137,G4,445.25,0.25,52,160.0
2138,B4,445.5,0.25,59,160.0
2139,A4,445.75,0.25,52,160.0
2140,G4,446.0,0.25,52,160.0
2141,D5,446.0,0.25,41,160.0
2142,G#4,446.0,0.25,41,160.0
2143,A4,446.25,0.25,52,160.0
2144,G4,446.5,0.5,54,160.0
2145,D5,446.5,0.25,38,160.0
2146,G#4,446.5,0.25,38,160.0
2147,E6,447.0,0.25,46,160.0
2148,D5,447.0,0.25,44,160.0
2149,G#4,447.0,0.25,44,160.0
2150,E5,447.25,0.25,44,160.0
2151,E6,447.5,0.25,47,160.0
2152,G#4,447.5,0.25,41,160.0
2153,D5,447.5,0.25,41,160.0
2154,E5,447.75,0.25,44,160.0
2155,E6,448.0,0.25,49,160.0
2156,A4,448.0,1.0,50,160.0
2157,C5,448.0,1.0,50,160.0
2158,E5,448.25,0.25,45,160.0
2159,E6,448.5,0.25,51,160.0
2160,E5,448.75,0.25,46,160.0
2161,E6,449.0,0.25,52,160.0
2162,E5,449.25,0.25,49,160.0
2163,E6,449.5,0.625,54,160.0
2164,C5,450.0,0.25,41,160.0
2165,F#4,450.0,0.25,41,160.0
2166,D6,450.125,0.125,48,160.0
2167,C6,450.25,0.125,48,160.0
2168,B5,450.375,0.125,47,160.0
2169,A5,450.5,0.5,47,160.0
2170,C5,450.5,0.25,38,160.0
2171,F#4,450.5,0.25,38,160.0
2172,D6,451.0,0.25,46,160.0
2173,C5,451.0,0.25,44,160.0
2174,F#4,451.0,0.25,44,160.0
2175,D5,451.25,0.25,44,160.0
2176,D6,451.5,0.25,47,160.0
2177,F#4,451.5,0.25,41,160.0
2178,C5,451.5,0.25,41,160.0
2179,D5,451.75,0.25,44,160.0
2180,D6,452.0,0.25,49,160.0
2181,G4,452.0,1.0,50,160.0
2182,B4,452.0,1.0,50,160.0
2183,D5,452.25,0.25,45,160.0
2184,D6,452.5,0.25,51,160.0
2185,D5,452.75,0.25,46,160.0
2186,D6,453.0,0.25,52,160.0
2187,D5,453.25,0.25,49,160.0
2188,D6,453.5,0.625,54,160.0
2189,C6,454.125,0.125,48,160.0
2190,B5,454.25,0.125,48,160.0
2191,A5,454.375,0.125,47,160.0
2192,G5,454.5,0.5,47,160.0
2193,D6,459.0,0.125,39,160.0
2194,C6,459.125,0.125,39,160.0
2195,B5,459.25,0.125,39,160.0
2196,A5,459.375,0.125,39,160.0
2197,G5,459.5,0.25,47,160.0
2198,B5,460.0,0.125,39,160.0
2199,E4,460.0,1.0,34,160.0
2200,G4,460.0,1.0,34,160.0
2201,A5,460.125,0.125,39,160.0
2202,G5,460.25,0.125,39,160.0
2203,F#5,460.375,0.125,39,160.0
2204,E5,460.5,0.25,50,160.0
2205,G5,461.0,0.125,38,160.0
2206,F#5,461.125,0.125,38,160.0
2207,E5,461.25,0.125,38,160.0
2208,D5,461.375,0.125,38,160.0
2209,C5,461.5,1.0,50,160.0
2210,E-4,462.0,0.25,45,160.0
2211,G4,462.25,0.25,38,160.0
2212,E-4,462.5,0.25,45,160.0
2213,G4,462.75,0.25,38,160.0
2214,G5,463.0,0.125,52,160.0
2215,E-4,463.0,0.25,45,160.0
2216,F5,463.125,0.125,52,160.0
2217,E-5,463.25,0.125,52,160.0
2218,G4,463.25,0.25,39,160.0
2219,D5,463.375,0.125,52,160.0
2220,C5,463.5,0.5,63,160.0
2221,E-4,463.5,0.25,45,160.0
2222,G4,463.75,0.25,39,160.0
2223,B5,464.0,0.5,63,160.0
2224,D4,464.0,1.0,50,160.0
2225,F#4,464.0,1.0,50,160.0
2226,C6,464.5,0.5,71,160.0
2227,C6,465.0,0.5,66,160.0
2228,G4,465.0,1.0,46,160.0
2229,C6,465.5,0.25,64,160.0
2230,B5,465.75,0.25,57,160.0
2231,C6,466.0,0.25,57,160.0
2232,C4,466.0,1.0,49,160.0
2233,C5,466.0,1.0,49,160.0
2234,A5,466.25,0.25,57,160.0
2235,B5,466.5,0.25,64,160.0
2236,A5,466.75,0.25,57,160.0
2237,B5,467.0,0.25,57,160.0
2238,D4,467.0,1.0,47,160.0
2239,C5,467.0,1.0,47,160.0
2240,G5,467.25,0.25,57,160.0
2241,A5,467.5,0.25,63,160.0
2242,G#5,467.75,0.25,57,160.0
2243,A5,468.0,0.25,57,160.0
2244,G4,468.0,0.5,43,160.0
2245,B4,468.0,0.5,43,160.0
2246,E5,468.25,0.25,57,160.0
2247,G5,468.5,0.25,63,160.0
2248,G4,468.5,0.5,37,160.0
2249,B4,468.5,0.5,37,160.0
2250,F#5,468.75,0.25,57,160.0
2251,E5,469.0,0.25,57,160.0
2252,G4,469.0,0.5,40,160.0
2253,B4,469.0,0.5,40,160.0
2254,D5,469.25,0.25,57,160.0
2255,G5,469.5,0.25,65,160.0
2256,G4,469.5,0.5,37,160.0
2257,B4,469.5,0.5,37,160.0
2258,D5,469.75,0.25,56,160.0
2259,G5,470.0,0.25,58,160.0
2260,G4,470.0,0.5,40,160.0
2261,C5,470.0,0.5,40,160.0
2262,B5,470.25,0.25,61,160.0
2263,D6,470.5,0.25,68,160.0
2264,G4,470.5,0.5,34,160.0
2265,C5,470.5,0.5,34,160.0
2266,B5,470.75,0.25,62,160.0
2267,A5,471.0,0.25,60,160.0
2268,G4,471.0,0.5,40,160.0
2269,C5,471.0,0.5,40,160.0
2270,G5,471.25,0.25,57,160.0
2271,F#5,471.5,0.25,64,160.0
2272,G4,471.5,0.5,34,160.0
2273,C5,471.5,0.5,34,160.0
2274,D5,471.75,0.25,56,160.0
2275,F#5,472.0,0.25,56,160.0
2276,G4,472.0,0.5,43,160.0
2277,B4,472.0,0.5,43,160.0
2278,A5,472.25,0.25,56,160.0
2279,C6,472.5,0.25,64,160.0
2280,G4,472.5,0.5,37,160.0
2281,B4,472.5,0.5,37,160.0
2282,A5,472.75,0.25,57,160.0
2283,G5,473.0,0.25,57,160.0
2284,G4,473.0,0.5,40,160.0
2285,B4,473.0,0.5,40,160.0
2286,F#5,473.25,0.25,57,160.0
2287,G5,473.5,0.25,65,160.0
2288,G4,473.5,0.5,37,160.0
2289,B4,473.5,0.5,37,160.0
2290,D5,473.75,0.25,56,160.0
2291,G5,474.0,0.25,58,160.0
2292,G4,474.0,0.5,40,160.0
2293,C5,474.0,0.5,40,160.0
2294,B5,474.25,0.25,61,160.0
2295,D6,474.5,0.25,68,160.0
2296,G4,474.5,0.5,34,160.0
2297,C5,474.5,0.5,34,160.0
2298,B5,474.75,0.25,62,160.0
2299,A5,475.0,0.25,60,160.0
2300,G4,475.0,0.5,40,160.0
2301,C5,475.0,0.5,40,160.0
2302,G5,475.25,0.25,57,160.0
2303,F#5,475.5,0.25,64,160.0
2304,G4,475.5,0.5,34,160.0
2305,C5,475.5,0.5,34,160.0
2306,D5,475.75,0.25,56,160.0
2307,F#5,476.0,0.25,56,160.0
2308,G4,476.0,1.0,43,160.0
2309,B4,476.0,1.0,43,160.0
2310,A5,476.25,0.25,56,160.0
2311,C6,476.5,0.25,64,160.0
2312,A5,476.75,0.25,57,160.0
2313,G5,477.0,0.25,57,160.0
2314,F#5,477.25,0.25,57,160.0
2315,G4,477.25,0.25,56,160.0
2316,G5,477.5,0.25,65,160.0
2317,D4,477.5,0.25,55,160.0
2318,B5,477.75,0.25,59,160.0
2319,B3,477.75,0.25,54,160.0
2320,G5,478.0,0.25,59,160.0
2321,G3,478.0,0.5,60,160.0
2322,D5,478.25,0.25,59,160.0
2323,B4,478.5,0.25,65,160.0
