,note_name,start_time,duration,velocity,tempo
0,F2,3.906,0.094,46,120.0
1,A2,3.906,0.094,46,120.0
2,C3,3.969,0.031,52,120.0
3,F3,3.969,0.031,52,120.0
4,F4,4.0,0.75,60,120.0
5,A3,4.0,0.25,51,120.0
6,C4,4.0,0.25,51,120.0
7,F2,4.0,0.219,46,120.0
8,A2,4.0,0.219,46,120.0
9,C3,4.0,0.219,52,120.0
10,F3,4.0,0.219,52,120.0
11,C4,4.75,0.25,56,120.0
12,B-4,5.0,0.25,60,120.0
13,A4,5.25,0.25,54,120.0
14,G4,5.5,0.25,54,120.0
15,F4,5.75,0.25,54,120.0
16,E4,6.0,0.25,60,120.0
17,G3,6.0,0.25,45,120.0
18,C3,6.0,0.25,45,120.0
19,B-3,6.0,0.25,45,120.0
20,F4,6.5,0.25,57,120.0
21,G4,7.0,0.25,60,120.0
22,A4,7.5,0.25,55,120.0
23,E3,7.906,0.094,46,120.0
24,G3,7.906,0.094,46,120.0
25,B-3,7.969,0.031,52,120.0
26,C4,7.969,0.031,52,120.0
27,B-4,8.0,0.75,60,120.0
28,G4,8.0,0.25,51,120.0
29,E4,8.0,0.25,51,120.0
30,E3,8.0,0.219,46,120.0
31,G3,8.0,0.219,46,120.0
32,B-3,8.0,0.219,52,120.0
33,C4,8.0,0.219,52,120.0
34,G4,8.75,0.25,56,120.0
35,E5,9.0,0.25,60,120.0
36,D5,9.25,0.25,54,120.0
37,C5,9.5,0.25,54,120.0
38,B-4,9.75,0.25,54,120.0
39,A4,10.0,0.25,60,120.0
40,C4,10.0,0.25,46,120.0
41,F3,10.0,0.25,46,120.0
42,B-4,10.5,0.25,57,120.0
43,C5,11.0,0.25,60,120.0
44,C#5,11.5,0.25,61,120.0
45,D5,12.0,0.75,55,120.0
46,F4,12.0,2.5,44,120.0
47,B-3,12.0,2.0,44,120.0
48,E5,12.75,0.25,48,120.0
49,G5,13.0,0.25,55,120.0
50,F5,13.25,0.25,51,120.0
51,E5,13.5,0.25,51,120.0
52,D5,13.75,0.25,51,120.0
53,C5,14.0,0.375,55,120.0
54,A3,14.0,0.5,44,120.0
55,C5,14.5,0.5,49,120.0
56,B-4,15.0,0.062,49,120.0
57,C5,15.062,0.062,44,120.0
58,B-4,15.125,0.062,49,120.0
59,C5,15.188,0.062,42,120.0
60,B-4,15.25,83/1000,49,120.0
61,C5,15.333,83/1000,45,120.0
62,B-4,15.417,83/1000,45,120.0
63,A4,15.5,0.5,49,120.0
64,G4,16.0,0.375,54,120.0
65,B-3,16.0,2.0,43,120.0
66,B-2,16.0,2.0,43,120.0
67,A4,16.5,0.125,49,120.0
68,G4,16.625,0.125,43,120.0
69,F#4,16.75,0.125,44,120.0
70,G4,16.875,0.125,44,120.0
71,B-4,17.0,0.5,49,120.0
72,D5,17.5,0.5,44,120.0
73,F4,18.0,1.5,44,120.0
74,C3,18.0,1.875,37,120.0
75,A3,18.0,1.0,37,120.0
76,G3,19.0,0.875,33,120.0
77,E4,19.5,0.125,42,120.0
78,F4,19.625,0.125,38,120.0
79,E4,19.75,0.25,42,120.0
80,F2,19.906,0.094,46,120.0
81,A2,19.906,0.094,46,120.0
82,C3,19.969,0.031,52,120.0
83,F3,19.969,0.031,52,120.0
84,F4,20.0,0.75,60,120.0
85,A3,20.0,0.25,51,120.0
86,C4,20.0,0.25,51,120.0
87,F2,20.0,0.219,46,120.0
88,A2,20.0,0.219,46,120.0
89,C3,20.0,0.219,52,120.0
90,F3,20.0,0.219,52,120.0
91,C4,20.75,0.25,56,120.0
92,B-4,21.0,0.25,60,120.0
93,A4,21.25,0.25,54,120.0
94,G4,21.5,0.25,54,120.0
95,F4,21.75,0.25,54,120.0
96,E4,22.0,0.375,60,120.0
97,B-3,22.0,0.5,50,120.0
98,C3,22.0,2.0,42,120.0
99,C4,22.375,0.125,53,120.0
100,F4,22.5,0.375,57,120.0
101,A3,22.5,0.5,50,120.0
102,C4,22.875,0.125,53,120.0
103,G4,23.0,0.375,60,120.0
104,G3,23.0,0.5,50,120.0
105,C4,23.375,0.125,53,120.0
106,A4,23.5,0.375,55,120.0
107,F3,23.5,0.5,50,120.0
108,C4,23.875,0.125,53,120.0
109,B-4,24.0,0.75,60,120.0
110,C3,24.0,2.0,42,120.0
111,G3,24.0,2.0,50,120.0
112,E3,24.0,2.0,50,120.0
113,G4,24.75,0.25,56,120.0
114,E5,25.0,0.25,60,120.0
115,D5,25.25,0.25,54,120.0
116,C5,25.5,0.25,54,120.0
117,B-4,25.75,0.25,54,120.0
118,A4,26.0,0.5,60,120.0
119,F3,26.0,0.25,46,120.0
120,F2,26.0,0.25,46,120.0
121,B-4,26.5,0.5,57,120.0
122,C5,27.0,0.5,60,120.0
123,C#5,27.5,0.5,61,120.0
124,B-3,28.0,1.0,44,120.0
125,B-2,28.0,1.0,44,120.0
126,C#5,28.25,0.25,55,120.0
127,D5,28.5,0.25,58,120.0
128,E5,28.75,0.25,55,120.0
129,F5,29.0,0.25,57,120.0
130,F#5,29.25,0.25,59,120.0
131,G5,29.5,0.25,61,120.0
132,A5,29.75,0.25,63,120.0
133,B-5,30.0,0.25,65,120.0
134,B5,30.25,0.25,68,120.0
135,C6,30.5,0.25,70,120.0
136,C#6,30.75,0.25,68,120.0
137,D6,31.0,0.25,75,120.0
138,B-3,31.0,1.0,33,120.0
139,B-4,31.0,1.0,33,120.0
140,A5,31.25,0.25,63,120.0
141,B-5,31.5,0.25,66,120.0
142,G5,31.75,0.25,61,120.0
143,F5,32.0,1.5,71,120.0
144,A4,32.0,2.0,40,120.0
145,C4,32.0,3.0,34,120.0
146,G5,33.5,0.25,41,120.0
147,F5,33.75,0.25,35,120.0
148,E5,34.0,1.0,39,120.0
149,G4,34.0,1.0,32,120.0
150,G5,36.0,1.0,60,120.0
151,C4,36.0,0.25,40,120.0
152,G4,36.25,0.25,32,120.0
153,E4,36.5,0.25,32,120.0
154,G4,36.75,0.25,32,120.0
155,F5,37.0,0.25,55,120.0
156,C4,37.0,0.25,40,120.0
157,E5,37.25,0.25,50,120.0
158,G4,37.25,0.25,31,120.0
159,D5,37.5,0.25,55,120.0
160,E4,37.5,0.25,31,120.0
161,C5,37.75,0.188,49,120.0
162,G4,37.75,0.25,31,120.0
163,C5,38.0,1.0,55,120.0
164,D4,38.0,0.25,40,120.0
165,G4,38.25,0.25,30,120.0
166,F4,38.5,0.25,30,120.0
167,G4,38.75,0.25,30,120.0
168,B4,39.0,0.125,55,120.0
169,D4,39.0,0.25,40,120.0
170,C5,39.125,0.125,51,120.0
171,B4,39.25,0.5,57,120.0
172,G4,39.25,0.25,33,120.0
173,F4,39.5,0.25,33,120.0
174,B4,39.75,0.25,51,120.0
175,G4,39.75,0.25,33,120.0
176,C5,40.0,0.25,55,120.0
177,C4,40.0,0.25,40,120.0
178,D5,40.25,0.25,52,120.0
179,G4,40.25,0.25,32,120.0
180,E5,40.5,0.25,54,120.0
181,E4,40.5,0.25,32,120.0
182,F5,40.75,0.25,55,120.0
183,G4,40.75,0.25,32,120.0
184,G5,41.0,0.25,59,120.0
185,C4,41.0,0.25,40,120.0
186,A5,41.25,0.25,61,120.0
187,G4,41.25,0.25,33,120.0
188,B5,41.5,0.25,64,120.0
189,E4,41.5,0.25,35,120.0
190,C6,41.75,0.188,66,120.0
191,G4,41.75,0.25,37,120.0
192,C6,42.0,0.25,66,120.0
193,D4,42.0,0.25,47,120.0
194,B5,42.25,0.25,64,120.0
195,G4,42.25,0.25,35,120.0
196,A5,42.5,0.125,61,120.0
197,F4,42.5,0.125,35,120.0
198,G5,42.75,0.125,59,120.0
199,G4,42.75,0.125,35,120.0
200,G5,43.0,0.25,57,120.0
201,D4,43.0,0.25,44,120.0
202,F5,43.25,0.25,55,120.0
203,G4,43.25,0.25,33,120.0
204,E5,43.5,0.125,52,120.0
205,F4,43.5,0.125,33,120.0
206,D5,43.75,0.125,50,120.0
207,G4,43.75,0.125,33,120.0
208,G5,44.0,0.75,64,120.0
209,C4,44.0,0.25,40,120.0
210,G4,44.25,0.25,32,120.0
211,E4,44.5,0.25,32,120.0
212,A5,44.75,0.125,59,120.0
213,G4,44.75,0.25,32,120.0
214,G5,44.875,0.125,55,120.0
215,F5,45.0,0.25,62,120.0
216,C4,45.0,0.25,40,120.0
217,E5,45.25,0.25,55,120.0
218,G4,45.25,0.25,31,120.0
219,D5,45.5,0.25,57,120.0
220,E4,45.5,0.25,31,120.0
221,C5,45.75,0.188,55,120.0
222,G4,45.75,0.25,31,120.0
223,C5,46.0,1.0,61,120.0
224,D4,46.0,0.25,40,120.0
225,G4,46.25,0.25,30,120.0
226,F4,46.5,0.25,30,120.0
227,G4,46.75,0.25,30,120.0
228,B4,47.0,0.125,55,120.0
229,D4,47.0,0.25,40,120.0
230,C5,47.125,0.125,51,120.0
231,B4,47.25,0.5,55,120.0
232,G4,47.25,0.25,33,120.0
233,F4,47.5,0.25,33,120.0
234,F5,47.75,0.25,52,120.0
235,G4,47.75,0.25,33,120.0
236,E5,48.0,0.125,60,120.0
237,C4,48.0,0.125,40,120.0
238,F5,48.25,0.125,55,120.0
239,G4,48.25,0.125,32,120.0
240,G5,48.5,0.125,60,120.0
241,E4,48.5,0.125,32,120.0
242,A5,48.75,0.125,61,120.0
243,G4,48.75,0.125,32,120.0
244,B5,49.0,0.125,70,120.0
245,C4,49.0,0.125,46,120.0
246,C6,49.25,0.125,65,120.0
247,G4,49.25,0.125,35,120.0
248,B5,49.5,0.125,68,120.0
249,E4,49.5,0.125,36,120.0
250,C6,49.75,0.125,66,120.0
251,G4,49.75,0.125,38,120.0
252,C6,50.0,0.25,73,120.0
253,D4,50.0,0.25,49,120.0
254,B5,50.25,0.25,66,120.0
255,G4,50.25,0.25,39,120.0
256,A5,50.5,0.25,67,120.0
257,F4,50.5,0.25,39,120.0
258,G5,50.75,0.188,64,120.0
259,G4,50.75,0.25,39,120.0
260,G5,51.0,0.25,69,120.0
261,D4,51.0,0.25,50,120.0
262,F5,51.25,0.25,64,120.0
263,G4,51.25,0.25,40,120.0
264,E5,51.5,0.25,62,120.0
265,F4,51.5,0.25,40,120.0
266,D5,51.75,0.25,61,120.0
267,G4,51.75,0.25,40,120.0
268,E5,52.0,0.25,62,120.0
269,C4,52.0,0.25,48,120.0
270,F5,52.25,0.25,62,120.0
271,G4,52.25,0.25,32,120.0
272,E5,52.5,0.25,69,120.0
273,E4,52.5,0.25,32,120.0
274,F5,52.75,0.25,68,120.0
275,G4,52.75,0.25,32,120.0
276,G5,53.0,0.25,76,120.0
277,C4,53.0,0.25,52,120.0
278,A5,53.25,0.25,74,120.0
279,G4,53.25,0.25,39,120.0
280,G5,53.5,0.25,83,120.0
281,E4,53.5,0.25,42,120.0
282,A5,53.75,0.25,78,120.0
283,G4,53.75,0.25,45,120.0
284,E3,54.0,0.25,65,120.0
285,B-5,54.0,2.0,82,120.0
286,B-4,54.0,2.0,82,120.0
287,C4,54.25,0.25,55,120.0
288,G3,54.5,0.25,55,120.0
289,C4,54.75,0.25,55,120.0
290,E3,55.0,0.25,63,120.0
291,C4,55.25,0.25,51,120.0
292,G3,55.5,0.25,51,120.0
293,C4,55.75,0.25,51,120.0
294,F3,56.0,0.25,58,120.0
295,A5,56.25,0.25,70,120.0
296,C4,56.25,0.25,45,120.0
297,G#5,56.5,0.25,75,120.0
298,A3,56.5,0.25,45,120.0
299,A5,56.75,0.25,68,120.0
300,C4,56.75,0.25,45,120.0
301,E3,57.0,0.25,51,120.0
302,G5,57.25,0.25,67,120.0
303,C#4,57.25,0.25,44,120.0
304,F#5,57.5,0.25,76,120.0
305,G3,57.5,0.25,44,120.0
306,G5,57.75,0.25,67,120.0
307,C#4,57.75,0.25,44,120.0
308,D3,58.0,0.25,51,120.0
309,F#5,58.25,0.25,70,120.0
310,C4,58.25,0.25,43,120.0
311,F#5,58.5,0.125,69,120.0
312,A3,58.5,0.25,43,120.0
313,G5,58.625,0.125,63,120.0
314,F#5,58.75,0.25,68,120.0
315,C4,58.75,0.25,43,120.0
316,G3,59.0,0.25,51,120.0
317,F5,59.25,0.25,72,120.0
318,D4,59.25,0.25,43,120.0
319,F5,59.5,0.125,72,120.0
320,B3,59.5,0.25,43,120.0
321,G5,59.625,0.125,65,120.0
322,F5,59.75,0.25,75,120.0
323,D4,59.75,0.25,43,120.0
324,C3,60.0,0.25,47,120.0
325,E5,60.25,0.25,67,120.0
326,C4,60.25,0.25,41,120.0
327,F5,60.5,0.25,70,120.0
328,E3,60.5,0.25,41,120.0
329,G5,60.75,0.188,72,120.0
330,C4,60.75,0.25,41,120.0
331,G5,61.0,0.25,72,120.0
332,F3,61.0,0.25,47,120.0
333,A4,61.25,0.25,66,120.0
334,D4,61.25,0.25,41,120.0
335,F5,61.5,0.25,72,120.0
336,A3,61.5,0.25,41,120.0
337,D5,61.75,0.25,65,120.0
338,D4,61.75,0.25,41,120.0
339,C5,62.0,1.0,72,120.0
340,G3,62.0,0.25,47,120.0
341,E4,62.25,0.25,40,120.0
342,C4,62.5,0.25,40,120.0
343,E4,62.75,0.25,40,120.0
344,B4,63.0,83/1000,68,120.0
345,G3,63.0,0.25,47,120.0
346,C5,63.083,83/1000,60,120.0
347,B4,63.167,83/1000,68,120.0
348,C5,63.25,83/1000,61,120.0
349,F4,63.25,0.25,42,120.0
350,B4,63.333,83/1000,68,120.0
351,C5,63.417,83/1000,61,120.0
352,B4,63.5,0.5,68,120.0
353,D4,63.5,0.25,42,120.0
354,F4,63.75,0.25,42,120.0
355,E3,64.0,0.25,47,120.0
356,C6,64.25,0.25,72,120.0
357,C4,64.25,0.25,41,120.0
358,E6,64.5,0.25,78,120.0
359,G3,64.5,0.25,41,120.0
360,C6,64.75,0.25,72,120.0
361,C4,64.75,0.25,41,120.0
362,B5,65.0,0.25,77,120.0
363,F3,65.0,0.25,47,120.0
364,A5,65.25,0.25,69,120.0
365,C4,65.25,0.25,41,120.0
366,G5,65.5,0.25,76,120.0
367,A3,65.5,0.25,41,120.0
368,F5,65.75,0.25,67,120.0
369,C4,65.75,0.25,41,120.0
370,E5,66.0,1.0,75,120.0
371,G3,66.0,0.25,47,120.0
372,E4,66.25,0.25,40,120.0
373,C4,66.5,0.25,40,120.0
374,E4,66.75,0.25,40,120.0
375,D5,67.0,83/1000,68,120.0
376,G3,67.0,0.25,47,120.0
377,E5,67.083,83/1000,60,120.0
378,D5,67.167,83/1000,68,120.0
379,E5,67.25,83/1000,61,120.0
380,F4,67.25,0.25,42,120.0
381,D5,67.333,83/1000,68,120.0
382,E5,67.417,83/1000,61,120.0
383,D5,67.487,83/1000,68,120.0
384,D4,67.5,0.25,42,120.0
385,E5,67.573,83/1000,60,120.0
386,D5,67.654,83/1000,68,120.0
387,C5,67.744,0.125,63,120.0
388,F4,67.75,0.25,42,120.0
389,D5,67.869,0.125,62,120.0
390,C5,68.0,0.25,68,120.0
391,E4,68.0,1.0,43,120.0
392,C4,68.0,1.0,43,120.0
393,E5,68.5,0.25,44,120.0
394,C5,68.5,0.25,44,120.0
395,E5,69.0,0.25,44,120.0
396,C5,69.0,0.25,44,120.0
397,E5,69.5,0.25,44,120.0
398,C5,69.5,0.25,44,120.0
399,F5,70.0,0.125,52,120.0
400,C5,70.0,0.5,44,120.0
401,E5,70.125,0.125,47,120.0
402,D5,70.25,0.125,47,120.0
403,E5,70.375,0.125,48,120.0
404,G5,70.5,0.5,48,120.0
405,E5,70.5,0.5,48,120.0
406,C5,71.0,0.5,56,120.0
407,E5,71.0,0.5,56,120.0
408,C5,71.5,0.5,60,120.0
409,A4,71.5,0.5,60,120.0
410,A4,72.0,1.25,66,120.0
411,F4,72.0,1.25,66,120.0
412,F3,73.0,0.25,64,120.0
413,F2,73.0,0.25,64,120.0
414,F4,73.25,0.25,54,120.0
415,A4,73.25,0.25,54,120.0
416,G4,73.5,0.25,54,120.0
417,B4,73.5,0.25,54,120.0
418,A4,73.75,9/40,54,120.0
419,C5,73.75,9/40,54,120.0
420,A4,74.0,0.25,58,120.0
421,C5,74.0,0.25,58,120.0
422,G3,74.0,0.25,58,120.0
423,G2,74.0,0.25,58,120.0
424,G4,74.25,0.25,54,120.0
425,B4,74.25,0.25,54,120.0
426,A4,74.5,0.25,54,120.0
427,F4,74.5,0.25,54,120.0
428,E4,74.75,9/40,54,120.0
429,G4,74.75,9/40,54,120.0
430,E4,75.0,0.25,58,120.0
431,G4,75.0,0.25,58,120.0
432,G2,75.0,0.25,58,120.0
433,G3,75.0,0.25,58,120.0
434,D4,75.25,0.25,49,120.0
435,F4,75.25,0.25,49,120.0
436,C4,75.5,0.25,49,120.0
437,E4,75.5,0.25,49,120.0
438,D4,75.75,9/40,49,120.0
439,B3,75.75,9/40,49,120.0
440,C2,76.0,1.0,63,120.0
441,C3,76.0,1.0,63,120.0
442,C5,76.5,167/1000,63,120.0
443,E5,76.667,167/1000,57,120.0
444,C6,76.833,167/1000,57,120.0
445,C5,77.0,167/1000,63,120.0
446,E5,77.167,167/1000,55,120.0
447,C6,77.333,167/1000,55,120.0
448,C5,77.5,167/1000,63,120.0
449,E5,77.667,167/1000,55,120.0
450,C6,77.833,167/1000,55,120.0
451,C5,78.0,167/1000,69,120.0
452,E5,78.167,167/1000,59,120.0
453,C6,78.333,167/1000,61,120.0
454,E5,78.5,167/1000,72,120.0
455,G5,78.667,167/1000,64,120.0
456,E6,78.833,167/1000,66,120.0
457,C5,79.0,167/1000,75,120.0
458,E5,79.167,167/1000,66,120.0
459,C6,79.333,167/1000,69,120.0
460,A4,79.5,167/1000,80,120.0
461,C5,79.667,167/1000,69,120.0
462,A5,79.833,167/1000,71,120.0
463,F4,80.0,1.25,81,120.0
464,F3,81.0,0.25,64,120.0
465,F2,81.0,0.25,64,120.0
466,C5,81.25,0.25,61,120.0
467,A4,81.25,0.25,61,120.0
468,B4,81.5,0.25,62,120.0
469,G4,81.5,0.25,62,120.0
470,F4,81.75,9/40,58,120.0
471,A4,81.75,9/40,58,120.0
472,F4,82.0,0.25,62,120.0
473,A4,82.0,0.25,62,120.0
474,G3,82.0,0.25,58,120.0
475,G2,82.0,0.25,58,120.0
476,G4,82.25,0.25,60,120.0
477,E4,82.25,0.25,60,120.0
478,D4,82.5,0.25,58,120.0
479,F4,82.5,0.25,58,120.0
480,E4,82.75,9/40,56,120.0
481,C4,82.75,9/40,56,120.0
482,E4,83.0,0.25,63,120.0
483,F3,83.0,0.5,58,120.0
484,G2,83.0,0.5,58,120.0
485,D4,83.25,0.25,56,120.0
486,C4,83.5,0.25,56,120.0
487,F3,83.75,9/40,52,120.0
488,B3,83.75,9/40,52,120.0
489,C3,84.0,1.906,56,120.0
490,F3,84.0,1.906,59,120.0
491,B3,84.0,1.906,59,120.0
492,C2,85.906,521/1000,51,120.0
493,E2,85.906,521/1000,51,120.0
494,G2,85.969,0.5,58,120.0
495,C3,85.969,0.5,58,120.0
496,G3,86.0,0.5,52,120.0
497,E3,86.0,0.5,52,120.0
498,C4,86.0,0.5,52,120.0
499,F2,87.906,0.094,46,120.0
500,A2,87.906,0.094,46,120.0
501,C3,87.969,0.031,52,120.0
502,F3,87.969,0.031,52,120.0
503,F4,88.0,0.75,60,120.0
504,C4,88.0,0.25,51,120.0
505,A3,88.0,0.25,51,120.0
506,F2,88.0,0.219,46,120.0
507,A2,88.0,0.219,46,120.0
508,C3,88.0,0.219,52,120.0
509,F3,88.0,0.219,52,120.0
510,C4,88.75,0.25,56,120.0
511,B-4,89.0,0.25,60,120.0
512,A4,89.25,0.25,54,120.0
513,G4,89.5,0.25,54,120.0
514,F4,89.75,0.25,54,120.0
515,E4,90.0,0.25,60,120.0
516,G3,90.0,0.25,45,120.0
517,B-3,90.0,0.25,45,120.0
518,C3,90.0,0.25,45,120.0
519,F4,90.5,0.25,57,120.0
520,G4,91.0,0.25,60,120.0
521,A4,91.5,0.25,55,120.0
522,E3,91.906,0.094,46,120.0
523,G3,91.906,0.094,46,120.0
524,B-3,91.969,0.031,52,120.0
525,C4,91.969,0.031,52,120.0
526,B-4,92.0,0.75,60,120.0
527,G4,92.0,0.25,51,120.0
528,E4,92.0,0.25,51,120.0
529,E3,92.0,0.219,46,120.0
530,G3,92.0,0.219,46,120.0
531,B-3,92.0,0.219,52,120.0
532,C4,92.0,0.219,52,120.0
533,G4,92.75,0.25,56,120.0
534,E5,93.0,0.25,60,120.0
535,D5,93.25,0.25,54,120.0
536,C5,93.5,0.25,54,120.0
537,B-4,93.75,0.25,54,120.0
538,A4,94.0,0.25,60,120.0
539,C4,94.0,0.25,46,120.0
540,F3,94.0,0.25,46,120.0
541,B-4,94.5,0.25,57,120.0
542,C5,95.0,0.25,60,120.0
543,C#5,95.5,0.25,61,120.0
544,D5,96.0,0.75,55,120.0
545,B-3,96.0,2.0,44,120.0
546,F4,96.0,2.5,44,120.0
547,E5,96.75,0.25,48,120.0
548,G5,97.0,0.25,55,120.0
549,F5,97.25,0.25,51,120.0
550,E5,97.5,0.25,51,120.0
551,D5,97.75,0.25,51,120.0
552,C5,98.0,0.375,55,120.0
553,A3,98.0,0.5,44,120.0
554,C5,98.5,0.5,49,120.0
555,B-4,99.0,0.062,49,120.0
556,C5,99.062,0.062,44,120.0
557,B-4,99.125,0.062,49,120.0
558,C5,99.188,0.062,42,120.0
559,B-4,99.25,83/1000,49,120.0
560,C5,99.333,83/1000,45,120.0
561,B-4,99.417,83/1000,45,120.0
562,A4,99.5,0.5,49,120.0
563,G4,100.0,0.375,54,120.0
564,B-2,100.0,2.0,43,120.0
565,B-3,100.0,2.0,43,120.0
566,A4,100.5,0.125,49,120.0
567,G4,100.625,0.125,43,120.0
568,F#4,100.75,0.125,44,120.0
569,G4,100.875,0.125,44,120.0
570,B-4,101.0,0.5,49,120.0
571,D5,101.5,0.5,44,120.0
572,F4,102.0,1.5,44,120.0
573,A3,102.0,1.0,37,120.0
574,C3,102.0,1.875,37,120.0
575,G3,103.0,0.875,33,120.0
576,E4,103.5,0.125,42,120.0
577,F4,103.625,0.125,38,120.0
578,E4,103.75,0.25,42,120.0
579,F2,103.906,0.094,46,120.0
580,A2,103.906,0.094,46,120.0
581,C3,103.969,0.031,52,120.0
582,F3,103.969,0.031,52,120.0
583,F4,104.0,0.75,60,120.0
584,C4,104.0,0.25,51,120.0
585,A3,104.0,0.25,51,120.0
586,F2,104.0,0.219,46,120.0
587,A2,104.0,0.219,46,120.0
588,C3,104.0,0.219,52,120.0
589,F3,104.0,0.219,52,120.0
590,C4,104.75,0.25,56,120.0
591,B-4,105.0,0.25,60,120.0
592,A4,105.25,0.25,54,120.0
593,G4,105.5,0.25,54,120.0
594,F4,105.75,0.25,54,120.0
595,E4,106.0,0.375,60,120.0
596,B-3,106.0,0.5,50,120.0
597,C3,106.0,2.0,42,120.0
598,C4,106.375,0.125,53,120.0
599,F4,106.5,0.375,57,120.0
600,A3,106.5,0.5,50,120.0
601,C4,106.875,0.125,53,120.0
602,G4,107.0,0.375,60,120.0
603,G3,107.0,0.5,50,120.0
604,C4,107.375,0.125,53,120.0
605,A4,107.5,0.375,55,120.0
606,F3,107.5,0.5,50,120.0
607,C4,107.875,0.125,53,120.0
608,B-4,108.0,0.75,60,120.0
609,C3,108.0,2.0,42,120.0
610,G3,108.0,2.0,50,120.0
611,E3,108.0,2.0,50,120.0
612,G4,108.75,0.25,56,120.0
613,E5,109.0,0.25,60,120.0
614,D5,109.25,0.25,54,120.0
615,C5,109.5,0.25,54,120.0
616,B-4,109.75,0.25,54,120.0
617,A4,110.0,0.5,60,120.0
618,F3,110.0,0.25,46,120.0
619,F2,110.0,0.25,46,120.0
620,B-4,110.5,0.5,57,120.0
621,C5,111.0,0.5,60,120.0
622,C#5,111.5,0.5,61,120.0
623,B-3,112.0,1.0,44,120.0
624,B-2,112.0,1.0,44,120.0
625,C#5,112.25,0.25,55,120.0
626,D5,112.5,0.25,58,120.0
627,E5,112.75,0.25,55,120.0
628,F5,113.0,0.25,57,120.0
629,F#5,113.25,0.25,59,120.0
630,G5,113.5,0.25,61,120.0
631,A5,113.75,0.25,63,120.0
632,B-5,114.0,0.25,65,120.0
633,B5,114.25,0.25,68,120.0
634,C6,114.5,0.25,70,120.0
635,C#6,114.75,0.25,68,120.0
636,D6,115.0,0.25,75,120.0
637,B-4,115.0,1.0,33,120.0
638,B-3,115.0,1.0,33,120.0
639,A5,115.25,0.25,63,120.0
640,B-5,115.5,0.25,66,120.0
641,G5,115.75,0.25,61,120.0
642,F5,116.0,1.5,71,120.0
643,A4,116.0,2.0,40,120.0
644,C4,116.0,3.0,34,120.0
645,G5,117.5,0.25,41,120.0
646,F5,117.75,0.25,35,120.0
647,E5,118.0,1.0,39,120.0
648,G4,118.0,1.0,32,120.0
649,G5,120.0,1.0,60,120.0
650,C4,120.0,0.25,40,120.0
651,G4,120.25,0.25,32,120.0
652,E4,120.5,0.25,32,120.0
653,G4,120.75,0.25,32,120.0
654,F5,121.0,0.25,55,120.0
655,C4,121.0,0.25,40,120.0
656,E5,121.25,0.25,50,120.0
657,G4,121.25,0.25,31,120.0
658,D5,121.5,0.25,55,120.0
659,E4,121.5,0.25,31,120.0
660,C5,121.75,0.188,49,120.0
661,G4,121.75,0.25,31,120.0
662,C5,122.0,1.0,55,120.0
663,D4,122.0,0.25,40,120.0
664,G4,122.25,0.25,30,120.0
665,F4,122.5,0.25,30,120.0
666,G4,122.75,0.25,30,120.0
667,B4,123.0,0.125,55,120.0
668,D4,123.0,0.25,40,120.0
669,C5,123.125,0.125,51,120.0
670,B4,123.25,0.5,57,120.0
671,G4,123.25,0.25,33,120.0
672,F4,123.5,0.25,33,120.0
673,B4,123.75,0.25,51,120.0
674,G4,123.75,0.25,33,120.0
675,C5,124.0,0.25,55,120.0
676,C4,124.0,0.25,40,120.0
677,D5,124.25,0.25,52,120.0
678,G4,124.25,0.25,32,120.0
679,E5,124.5,0.25,54,120.0
680,E4,124.5,0.25,32,120.0
681,F5,124.75,0.25,55,120.0
682,G4,124.75,0.25,32,120.0
683,G5,125.0,0.25,59,120.0
684,C4,125.0,0.25,40,120.0
685,A5,125.25,0.25,61,120.0
686,G4,125.25,0.25,33,120.0
687,B5,125.5,0.25,64,120.0
688,E4,125.5,0.25,35,120.0
689,C6,125.75,0.188,66,120.0
690,G4,125.75,0.25,37,120.0
691,C6,126.0,0.25,66,120.0
692,D4,126.0,0.25,47,120.0
693,B5,126.25,0.25,64,120.0
694,G4,126.25,0.25,35,120.0
695,A5,126.5,0.125,61,120.0
696,F4,126.5,0.125,35,120.0
697,G5,126.75,0.125,59,120.0
698,G4,126.75,0.125,35,120.0
699,G5,127.0,0.25,57,120.0
700,D4,127.0,0.25,44,120.0
701,F5,127.25,0.25,55,120.0
702,G4,127.25,0.25,33,120.0
703,E5,127.5,0.125,52,120.0
704,F4,127.5,0.125,33,120.0
705,D5,127.75,0.125,50,120.0
706,G4,127.75,0.125,33,120.0
707,G5,128.0,0.75,64,120.0
708,C4,128.0,0.25,40,120.0
709,G4,128.25,0.25,32,120.0
710,E4,128.5,0.25,32,120.0
711,A5,128.75,0.125,59,120.0
712,G4,128.75,0.25,32,120.0
713,G5,128.875,0.125,55,120.0
714,F5,129.0,0.25,62,120.0
715,C4,129.0,0.25,40,120.0
716,E5,129.25,0.25,55,120.0
717,G4,129.25,0.25,31,120.0
718,D5,129.5,0.25,57,120.0
719,E4,129.5,0.25,31,120.0
720,C5,129.75,0.188,55,120.0
721,G4,129.75,0.25,31,120.0
722,C5,130.0,1.0,61,120.0
723,D4,130.0,0.25,40,120.0
724,G4,130.25,0.25,30,120.0
725,F4,130.5,0.25,30,120.0
726,G4,130.75,0.25,30,120.0
727,B4,131.0,0.125,55,120.0
728,D4,131.0,0.25,40,120.0
729,C5,131.125,0.125,51,120.0
730,B4,131.25,0.5,55,120.0
731,G4,131.25,0.25,33,120.0
732,F4,131.5,0.25,33,120.0
733,F5,131.75,0.25,52,120.0
734,G4,131.75,0.25,33,120.0
735,E5,132.0,0.125,60,120.0
736,C4,132.0,0.125,40,120.0
737,F5,132.25,0.125,55,120.0
738,G4,132.25,0.125,32,120.0
739,G5,132.5,0.125,60,120.0
740,E4,132.5,0.125,32,120.0
741,A5,132.75,0.125,61,120.0
742,G4,132.75,0.125,32,120.0
743,B5,133.0,0.125,70,120.0
744,C4,133.0,0.125,46,120.0
745,C6,133.25,0.125,65,120.0
746,G4,133.25,0.125,35,120.0
747,B5,133.5,0.125,68,120.0
748,E4,133.5,0.125,36,120.0
749,C6,133.75,0.125,66,120.0
750,G4,133.75,0.125,38,120.0
751,C6,134.0,0.25,73,120.0
752,D4,134.0,0.25,49,120.0
753,B5,134.25,0.25,66,120.0
754,G4,134.25,0.25,39,120.0
755,A5,134.5,0.25,67,120.0
756,F4,134.5,0.25,39,120.0
757,G5,134.75,0.188,64,120.0
758,G4,134.75,0.25,39,120.0
759,G5,135.0,0.25,69,120.0
760,D4,135.0,0.25,50,120.0
761,F5,135.25,0.25,64,120.0
762,G4,135.25,0.25,40,120.0
763,E5,135.5,0.25,62,120.0
764,F4,135.5,0.25,40,120.0
765,D5,135.75,0.25,61,120.0
766,G4,135.75,0.25,40,120.0
767,E5,136.0,0.25,62,120.0
768,C4,136.0,0.25,48,120.0
769,F5,136.25,0.25,62,120.0
770,G4,136.25,0.25,32,120.0
771,E5,136.5,0.25,69,120.0
772,E4,136.5,0.25,32,120.0
773,F5,136.75,0.25,68,120.0
774,G4,136.75,0.25,32,120.0
775,G5,137.0,0.25,76,120.0
776,C4,137.0,0.25,52,120.0
777,A5,137.25,0.25,74,120.0
778,G4,137.25,0.25,39,120.0
779,G5,137.5,0.25,83,120.0
780,E4,137.5,0.25,42,120.0
781,A5,137.75,0.25,78,120.0
782,G4,137.75,0.25,45,120.0
783,E3,138.0,0.25,65,120.0
784,B-4,138.0,2.0,82,120.0
785,B-5,138.0,2.0,82,120.0
786,C4,138.25,0.25,55,120.0
787,G3,138.5,0.25,55,120.0
788,C4,138.75,0.25,55,120.0
789,E3,139.0,0.25,63,120.0
790,C4,139.25,0.25,51,120.0
791,G3,139.5,0.25,51,120.0
792,C4,139.75,0.25,51,120.0
793,F3,140.0,0.25,58,120.0
794,A5,140.25,0.25,70,120.0
795,C4,140.25,0.25,45,120.0
796,G#5,140.5,0.25,75,120.0
797,A3,140.5,0.25,45,120.0
798,A5,140.75,0.25,68,120.0
799,C4,140.75,0.25,45,120.0
800,E3,141.0,0.25,51,120.0
801,G5,141.25,0.25,67,120.0
802,C#4,141.25,0.25,44,120.0
803,F#5,141.5,0.25,76,120.0
804,G3,141.5,0.25,44,120.0
805,G5,141.75,0.25,67,120.0
806,C#4,141.75,0.25,44,120.0
807,D3,142.0,0.25,51,120.0
808,F#5,142.25,0.25,70,120.0
809,C4,142.25,0.25,43,120.0
810,F#5,142.5,0.125,69,120.0
811,A3,142.5,0.25,43,120.0
812,G5,142.625,0.125,63,120.0
813,F#5,142.75,0.25,68,120.0
814,C4,142.75,0.25,43,120.0
815,G3,143.0,0.25,51,120.0
816,F5,143.25,0.25,72,120.0
817,D4,143.25,0.25,43,120.0
818,F5,143.5,0.125,72,120.0
819,B3,143.5,0.25,43,120.0
820,G5,143.625,0.125,65,120.0
821,F5,143.75,0.25,75,120.0
822,D4,143.75,0.25,43,120.0
823,C3,144.0,0.25,47,120.0
824,E5,144.25,0.25,67,120.0
825,C4,144.25,0.25,41,120.0
826,F5,144.5,0.25,70,120.0
827,E3,144.5,0.25,41,120.0
828,G5,144.75,0.188,72,120.0
829,C4,144.75,0.25,41,120.0
830,G5,145.0,0.25,72,120.0
831,F3,145.0,0.25,47,120.0
832,A4,145.25,0.25,66,120.0
833,D4,145.25,0.25,41,120.0
834,F5,145.5,0.25,72,120.0
835,A3,145.5,0.25,41,120.0
836,D5,145.75,0.25,65,120.0
837,D4,145.75,0.25,41,120.0
838,C5,146.0,1.0,72,120.0
839,G3,146.0,0.25,47,120.0
840,E4,146.25,0.25,40,120.0
841,C4,146.5,0.25,40,120.0
842,E4,146.75,0.25,40,120.0
843,B4,147.0,83/1000,68,120.0
844,G3,147.0,0.25,47,120.0
845,C5,147.083,83/1000,60,120.0
846,B4,147.167,83/1000,68,120.0
847,C5,147.25,83/1000,61,120.0
848,F4,147.25,0.25,42,120.0
849,B4,147.333,83/1000,68,120.0
850,C5,147.417,83/1000,61,120.0
851,B4,147.5,0.5,68,120.0
852,D4,147.5,0.25,42,120.0
853,F4,147.75,0.25,42,120.0
854,E3,148.0,0.25,47,120.0
855,C6,148.25,0.25,72,120.0
856,C4,148.25,0.25,41,120.0
857,E6,148.5,0.25,78,120.0
858,G3,148.5,0.25,41,120.0
859,C6,148.75,0.25,72,120.0
860,C4,148.75,0.25,41,120.0
861,B5,149.0,0.25,77,120.0
862,F3,149.0,0.25,47,120.0
863,A5,149.25,0.25,69,120.0
864,C4,149.25,0.25,41,120.0
865,G5,149.5,0.25,76,120.0
866,A3,149.5,0.25,41,120.0
867,F5,149.75,0.25,67,120.0
868,C4,149.75,0.25,41,120.0
869,E5,150.0,1.0,75,120.0
870,G3,150.0,0.25,47,120.0
871,E4,150.25,0.25,40,120.0
872,C4,150.5,0.25,40,120.0
873,E4,150.75,0.25,40,120.0
874,D5,151.0,83/1000,68,120.0
875,G3,151.0,0.25,47,120.0
876,E5,151.083,83/1000,60,120.0
877,D5,151.167,83/1000,68,120.0
878,E5,151.25,83/1000,61,120.0
879,F4,151.25,0.25,42,120.0
880,D5,151.333,83/1000,68,120.0
881,E5,151.417,83/1000,61,120.0
882,D5,151.488,83/1000,68,120.0
883,D4,151.5,0.25,42,120.0
884,E5,151.573,83/1000,60,120.0
885,D5,151.654,83/1000,68,120.0
886,C5,151.744,0.125,63,120.0
887,F4,151.75,0.25,42,120.0
888,D5,151.869,0.125,62,120.0
889,C5,152.0,0.25,68,120.0
890,C4,152.0,1.0,43,120.0
891,E4,152.0,1.0,43,120.0
892,E5,152.5,0.25,44,120.0
893,C5,152.5,0.25,44,120.0
894,E5,153.0,0.25,44,120.0
895,C5,153.0,0.25,44,120.0
896,E5,153.5,0.25,44,120.0
897,C5,153.5,0.25,44,120.0
898,F5,154.0,0.125,52,120.0
899,C5,154.0,0.5,44,120.0
900,E5,154.125,0.125,47,120.0
901,D5,154.25,0.125,47,120.0
902,E5,154.375,0.125,48,120.0
903,E5,154.5,0.5,48,120.0
904,G5,154.5,0.5,48,120.0
905,E5,155.0,0.5,56,120.0
906,C5,155.0,0.5,56,120.0
907,C5,155.5,0.5,60,120.0
908,A4,155.5,0.5,60,120.0
909,F4,156.0,1.25,66,120.0
910,A4,156.0,1.25,66,120.0
911,F2,157.0,0.25,64,120.0
912,F3,157.0,0.25,64,120.0
913,A4,157.25,0.25,54,120.0
914,F4,157.25,0.25,54,120.0
915,G4,157.5,0.25,54,120.0
916,B4,157.5,0.25,54,120.0
917,A4,157.75,9/40,54,120.0
918,C5,157.75,9/40,54,120.0
919,C5,158.0,0.25,58,120.0
920,A4,158.0,0.25,58,120.0
921,G3,158.0,0.25,58,120.0
922,G2,158.0,0.25,58,120.0
923,G4,158.25,0.25,54,120.0
924,B4,158.25,0.25,54,120.0
925,F4,158.5,0.25,54,120.0
926,A4,158.5,0.25,54,120.0
927,E4,158.75,9/40,54,120.0
928,G4,158.75,9/40,54,120.0
929,E4,159.0,0.25,58,120.0
930,G4,159.0,0.25,58,120.0
931,G2,159.0,0.25,58,120.0
932,G3,159.0,0.25,58,120.0
933,F4,159.25,0.25,49,120.0
934,D4,159.25,0.25,49,120.0
935,E4,159.5,0.25,49,120.0
936,C4,159.5,0.25,49,120.0
937,B3,159.75,9/40,49,120.0
938,D4,159.75,9/40,49,120.0
939,C2,160.0,1.0,63,120.0
940,C3,160.0,1.0,63,120.0
941,C5,160.5,167/1000,63,120.0
942,E5,160.667,167/1000,57,120.0
943,C6,160.833,167/1000,57,120.0
944,C5,161.0,167/1000,63,120.0
945,E5,161.167,167/1000,55,120.0
946,C6,161.333,167/1000,55,120.0
947,C5,161.5,167/1000,63,120.0
948,E5,161.667,167/1000,55,120.0
949,C6,161.833,167/1000,55,120.0
950,C5,162.0,167/1000,69,120.0
951,E5,162.167,167/1000,59,120.0
952,C6,162.333,167/1000,61,120.0
953,E5,162.5,167/1000,72,120.0
954,G5,162.667,167/1000,64,120.0
955,E6,162.833,167/1000,66,120.0
956,C5,163.0,167/1000,75,120.0
957,E5,163.167,167/1000,66,120.0
958,C6,163.333,167/1000,69,120.0
959,A4,163.5,167/1000,80,120.0
960,C5,163.667,167/1000,69,120.0
961,A5,163.833,167/1000,71,120.0
962,F4,164.0,1.25,81,120.0
963,F2,165.0,0.25,64,120.0
964,F3,165.0,0.25,64,120.0
965,C5,165.25,0.25,61,120.0
966,A4,165.25,0.25,61,120.0
967,G4,165.5,0.25,62,120.0
968,B4,165.5,0.25,62,120.0
969,A4,165.75,9/40,58,120.0
970,F4,165.75,9/40,58,120.0
971,A4,166.0,0.25,62,120.0
972,F4,166.0,0.25,62,120.0
973,G3,166.0,0.25,58,120.0
974,G2,166.0,0.25,58,120.0
975,G4,166.25,0.25,60,120.0
976,E4,166.25,0.25,60,120.0
977,D4,166.5,0.25,58,120.0
978,F4,166.5,0.25,58,120.0
979,C4,166.75,9/40,56,120.0
980,E4,166.75,9/40,56,120.0
981,E4,167.0,0.25,63,120.0
982,F3,167.0,0.5,58,120.0
983,G2,167.0,0.5,58,120.0
984,D4,167.25,0.25,56,120.0
985,C4,167.5,0.25,56,120.0
986,B3,167.75,9/40,52,120.0
987,F3,167.75,9/40,52,120.0
988,C3,168.0,1.906,56,120.0
989,B3,168.0,1.906,59,120.0
990,F3,168.0,1.906,59,120.0
991,C2,169.906,521/1000,51,120.0
992,E2,169.906,521/1000,51,120.0
993,G2,169.969,0.5,58,120.0
994,C3,169.969,0.5,58,120.0
995,G3,170.0,0.5,52,120.0
996,E3,170.0,0.5,52,120.0
997,C4,170.0,0.5,52,120.0
998,C3,171.906,0.094,46,120.0
999,E3,171.906,0.094,46,120.0
1000,G3,171.969,0.031,52,120.0
1001,C4,171.969,0.031,52,120.0
1002,C5,172.0,0.75,60,120.0
1003,G4,172.0,0.25,51,120.0
1004,E4,172.0,0.25,51,120.0
1005,C3,172.0,0.219,46,120.0
1006,E3,172.0,0.219,46,120.0
1007,G3,172.0,0.219,52,120.0
1008,C4,172.0,0.219,52,120.0
1009,G4,172.75,0.25,56,120.0
1010,F5,173.0,0.25,60,120.0
1011,E5,173.25,0.25,54,120.0
1012,D5,173.5,0.25,54,120.0
1013,C5,173.75,0.25,54,120.0
1014,G5,174.0,0.25,60,120.0
1015,C4,174.0,0.25,44,120.0
1016,B-4,174.25,0.25,37,120.0
1017,G4,174.5,0.25,37,120.0
1018,B-4,174.75,0.25,37,120.0
1019,C4,175.0,0.25,44,120.0
1020,B-4,175.25,0.25,39,120.0
1021,G4,175.5,0.25,39,120.0
1022,B-4,175.75,0.25,39,120.0
1023,F5,176.0,0.75,60,120.0
1024,C4,176.0,0.25,44,120.0
1025,A4,176.25,0.25,37,120.0
1026,F4,176.5,0.25,37,120.0
1027,C5,176.75,0.25,56,120.0
1028,A4,176.75,0.25,37,120.0
1029,B-5,177.0,0.25,60,120.0
1030,C4,177.0,0.25,44,120.0
1031,A5,177.25,0.25,54,120.0
1032,A4,177.25,0.25,39,120.0
1033,G5,177.5,0.25,54,120.0
1034,F4,177.5,0.25,39,120.0
1035,F5,177.75,0.25,54,120.0
1036,A4,177.75,0.25,39,120.0
1037,C6,178.0,0.25,60,120.0
1038,C4,178.0,0.25,44,120.0
1039,G4,178.25,0.25,37,120.0
1040,E4,178.5,0.25,37,120.0
1041,G4,178.75,0.25,37,120.0
1042,C4,179.0,0.25,44,120.0
1043,G4,179.25,0.25,39,120.0
1044,E4,179.5,0.25,39,120.0
1045,B5,179.75,83/1000,60,120.0
1046,G4,179.75,0.25,39,120.0
1047,C6,179.833,83/1000,62,120.0
1048,D6,179.919,81/1000,64,120.0
1049,C6,180.0,1.75,67,120.0
1050,D6,180.0,1/500,64,120.0
1051,A3,180.0,0.25,44,120.0
1052,E-4,180.25,0.25,39,120.0
1053,C4,180.5,0.25,39,120.0
1054,E-4,180.75,0.25,39,120.0
1055,A3,181.0,0.25,44,120.0
1056,E-4,181.25,0.25,39,120.0
1057,C4,181.5,0.25,39,120.0
1058,B-5,181.75,83/1000,60,120.0
1059,E-4,181.75,0.25,39,120.0
1060,A5,181.833,83/1000,60,120.0
1061,G5,181.919,83/1000,60,120.0
1062,F#5,182.0,0.25,68,120.0
1063,A3,182.0,0.25,44,120.0
1064,E-5,182.25,0.25,63,120.0
1065,E-4,182.25,0.25,40,120.0
1066,D5,182.5,0.25,63,120.0
1067,C4,182.5,0.25,41,120.0
1068,C5,182.75,0.25,64,120.0
1069,E-4,182.75,0.25,42,120.0
1070,B-4,183.0,0.25,68,120.0
1071,A3,183.0,0.25,49,120.0
1072,A4,183.25,0.25,70,120.0
1073,E-4,183.25,0.25,45,120.0
1074,G4,183.5,0.25,71,120.0
1075,C4,183.5,0.25,46,120.0
1076,F#4,183.75,0.25,73,120.0
1077,E-4,183.75,0.25,47,120.0
1078,G4,184.0,61/250,74,120.0
1079,B-3,184.0,0.25,55,120.0
1080,G4,184.25,0.25,48,120.0
1081,B-4,184.5,0.25,77,120.0
1082,D4,184.5,0.25,48,120.0
1083,G4,184.75,0.25,48,120.0
1084,D5,185.0,0.25,82,120.0
1085,B-3,185.0,0.25,55,120.0
1086,G4,185.25,0.25,48,120.0
1087,G5,185.5,0.25,84,120.0
1088,D4,185.5,0.25,48,120.0
1089,G4,185.75,0.25,48,120.0
1090,B-5,186.0,0.25,86,120.0
1091,B-3,186.0,0.25,55,120.0
1092,G4,186.25,0.25,48,120.0
1093,D4,186.5,0.25,48,120.0
1094,G4,186.75,0.25,48,120.0
1095,B-3,187.0,0.25,55,120.0
1096,G4,187.25,0.25,48,120.0
1097,D4,187.5,0.25,48,120.0
1098,G4,187.75,0.25,48,120.0
1099,D6,188.0,0.25,90,120.0
1100,B-3,188.0,0.25,55,120.0
1101,G4,188.25,0.25,45,120.0
1102,D6,188.5,1.0,90,120.0
1103,E4,188.5,0.25,45,120.0
1104,G4,188.75,0.25,45,120.0
1105,B-3,189.0,0.25,52,120.0
1106,G4,189.25,0.25,42,120.0
1107,C6,189.5,0.125,72,120.0
1108,E4,189.5,0.25,42,120.0
1109,B-5,189.625,0.125,73,120.0
1110,A5,189.75,0.125,74,120.0
1111,G4,189.75,0.25,42,120.0
1112,G5,189.875,0.125,74,120.0
1113,C6,190.0,0.25,84,120.0
1114,A3,190.0,0.25,55,120.0
1115,F4,190.25,0.25,46,120.0
1116,C6,190.5,1.0,84,120.0
1117,C4,190.5,0.25,46,120.0
1118,F4,190.75,0.25,46,120.0
1119,A3,191.0,0.25,55,120.0
1120,F4,191.25,0.25,48,120.0
1121,B-5,191.5,0.125,70,120.0
1122,C4,191.5,0.25,48,120.0
1123,A5,191.625,0.125,72,120.0
1124,G5,191.75,0.125,73,120.0
1125,F4,191.75,0.25,43,120.0
1126,F5,191.875,0.125,75,120.0
1127,C6,192.0,0.25,77,120.0
1128,E3,192.0,0.25,50,120.0
1129,B-5,192.25,0.188,68,120.0
1130,C4,192.25,0.25,38,120.0
1131,B-5,192.5,0.25,72,120.0
1132,G3,192.5,0.25,38,120.0
1133,A5,192.75,0.188,67,120.0
1134,C4,192.75,0.25,38,120.0
1135,A5,193.0,0.5,72,120.0
1136,F3,193.0,0.25,48,120.0
1137,C4,193.25,0.25,40,120.0
1138,A3,193.5,0.25,40,120.0
1139,C4,193.75,0.25,34,120.0
1140,C6,194.0,0.25,61,120.0
1141,E3,194.0,0.25,40,120.0
1142,B-5,194.25,0.188,57,120.0
1143,C4,194.25,0.25,31,120.0
1144,B-5,194.5,0.25,61,120.0
1145,G3,194.5,0.25,31,120.0
1146,A5,194.75,0.188,54,120.0
1147,C4,194.75,0.25,31,120.0
1148,A5,195.0,0.5,60,120.0
1149,F3,195.0,0.25,34,120.0
1150,C4,195.25,0.25,27,120.0
1151,A3,195.5,0.25,27,120.0
1152,C4,195.75,0.25,27,120.0
1153,C6,196.0,0.062,69,120.0
1154,E3,196.0,0.25,53,120.0
1155,D6,196.062,0.062,63,120.0
1156,C6,196.125,0.062,69,120.0
1157,D6,196.188,0.062,61,120.0
1158,B-5,196.25,0.188,68,120.0
1159,C4,196.25,0.25,40,120.0
1160,B-5,196.5,0.062,68,120.0
1161,G3,196.5,0.25,40,120.0
1162,C6,196.562,0.062,61,120.0
1163,B-5,196.625,0.062,68,120.0
1164,C6,196.688,0.062,62,120.0
1165,A5,196.75,0.188,67,120.0
1166,C4,196.75,0.25,40,120.0
1167,A5,197.0,0.5,72,120.0
1168,F3,197.0,0.25,48,120.0
1169,C4,197.25,0.25,40,120.0
1170,A3,197.5,0.25,40,120.0
1171,C4,197.75,0.25,34,120.0
1172,B-5,197.938,0.062,62,120.0
1173,A5,198.0,0.25,70,120.0
1174,B-3,198.0,0.25,46,120.0
1175,G5,198.25,0.188,65,120.0
1176,G4,198.25,0.25,35,120.0
1177,A5,198.438,0.062,62,120.0
1178,G5,198.5,0.25,70,120.0
1179,D4,198.5,0.25,35,120.0
1180,F5,198.75,0.25,62,120.0
1181,G4,198.75,0.25,35,120.0
1182,F5,199.0,0.5,69,120.0
1183,B3,199.0,0.25,45,120.0
1184,G4,199.25,0.25,36,120.0
1185,D4,199.5,0.25,36,120.0
1186,G4,199.75,0.25,36,120.0
1187,F5,200.0,0.25,65,120.0
1188,C4,200.0,0.25,43,120.0
1189,E5,200.25,0.25,57,120.0
1190,G4,200.25,0.25,34,120.0
1191,D5,200.5,0.25,61,120.0
1192,E4,200.5,0.25,34,120.0
1193,C5,200.75,0.188,54,120.0
1194,G4,200.75,0.25,34,120.0
1195,C5,201.0,0.5,60,120.0
1196,C4,201.0,0.25,42,120.0
1197,G4,201.25,0.25,32,120.0
1198,C5,201.5,0.5,54,120.0
1199,E4,201.5,0.25,32,120.0
1200,G4,201.75,0.25,32,120.0
1201,D5,202.0,0.125,54,120.0
1202,C4,202.0,0.25,37,120.0
1203,C5,202.125,0.125,54,120.0
1204,B4,202.25,0.125,54,120.0
1205,D4,202.25,0.25,29,120.0
1206,C5,202.375,417/1000,60,120.0
1207,B-3,202.5,0.25,38,120.0
1208,C4,202.75,0.25,32,120.0
1209,A3,203.0,0.25,34,120.0
1210,B-3,203.25,0.25,27,120.0
1211,G3,203.5,0.25,34,120.0
1212,A3,203.75,0.25,28,120.0
1213,C5,204.0,1.0,60,120.0
1214,F3,204.0,0.25,37,120.0
1215,C4,204.25,0.25,31,120.0
1216,A3,204.5,0.25,28,120.0
1217,C4,204.75,0.25,28,120.0
1218,B-4,205.0,0.25,55,120.0
1219,F3,205.0,0.25,40,120.0
1220,A4,205.25,0.25,50,120.0
1221,C4,205.25,0.25,31,120.0
1222,G4,205.5,0.25,55,120.0
1223,A3,205.5,0.25,31,120.0
1224,F4,205.75,0.188,49,120.0
1225,C4,205.75,0.25,31,120.0
1226,F4,206.0,1.0,55,120.0
1227,G3,206.0,0.25,40,120.0
1228,C4,206.25,0.25,30,120.0
1229,B-3,206.5,0.25,30,120.0
1230,C4,206.75,0.25,30,120.0
1231,E4,207.0,0.125,55,120.0
1232,G3,207.0,0.25,40,120.0
1233,F4,207.125,0.125,51,120.0
1234,E4,207.25,0.5,57,120.0
1235,C4,207.25,0.25,33,120.0
1236,B-3,207.5,0.25,33,120.0
1237,E4,207.75,0.25,51,120.0
1238,C4,207.75,0.25,33,120.0
1239,F4,208.0,0.25,55,120.0
1240,F3,208.0,0.25,40,120.0
1241,G4,208.25,0.25,52,120.0
1242,C4,208.25,0.25,32,120.0
1243,A4,208.5,0.25,54,120.0
1244,A3,208.5,0.25,32,120.0
1245,B-4,208.75,0.25,55,120.0
1246,C4,208.75,0.25,32,120.0
1247,C5,209.0,0.25,59,120.0
1248,F3,209.0,0.25,40,120.0
1249,D5,209.25,0.25,61,120.0
1250,C4,209.25,0.25,33,120.0
1251,E5,209.5,0.25,64,120.0
1252,A3,209.5,0.25,35,120.0
1253,F5,209.75,0.188,66,120.0
1254,C4,209.75,0.25,37,120.0
1255,F5,210.0,0.25,66,120.0
1256,G3,210.0,0.25,47,120.0
1257,E5,210.25,0.25,64,120.0
1258,C4,210.25,0.25,35,120.0
1259,D5,210.5,0.125,61,120.0
1260,B-3,210.5,0.125,35,120.0
1261,C5,210.75,0.125,59,120.0
1262,C4,210.75,0.125,35,120.0
1263,C5,211.0,0.25,57,120.0
1264,G3,211.0,0.25,44,120.0
1265,B-4,211.25,0.25,55,120.0
1266,C4,211.25,0.25,33,120.0
1267,A4,211.5,0.125,52,120.0
1268,B-3,211.5,0.125,33,120.0
1269,G4,211.75,0.125,50,120.0
1270,C4,211.75,0.125,33,120.0
1271,C6,212.0,0.75,72,120.0
1272,F3,212.0,0.25,40,120.0
1273,C4,212.25,0.25,32,120.0
1274,A3,212.5,0.25,32,120.0
1275,D6,212.75,0.125,64,120.0
1276,C4,212.75,0.25,32,120.0
1277,C6,212.875,0.125,60,120.0
1278,B-5,213.0,0.25,68,120.0
1279,F3,213.0,0.25,40,120.0
1280,A5,213.25,0.25,60,120.0
1281,C4,213.25,0.25,31,120.0
1282,G5,213.5,0.25,62,120.0
1283,A3,213.5,0.25,31,120.0
1284,F5,213.75,0.188,60,120.0
1285,C4,213.75,0.25,31,120.0
1286,F5,214.0,1.0,70,120.0
1287,G3,214.0,0.25,40,120.0
1288,C4,214.25,0.25,30,120.0
1289,B-3,214.5,0.25,30,120.0
1290,C4,214.75,0.25,30,120.0
1291,E5,215.0,0.125,60,120.0
1292,G3,215.0,0.25,40,120.0
1293,F5,215.125,0.125,56,120.0
1294,E5,215.25,0.5,60,120.0
1295,C4,215.25,0.25,33,120.0
1296,B-3,215.5,0.25,33,120.0
1297,B-5,215.75,0.25,57,120.0
1298,C4,215.75,0.25,33,120.0
1299,A5,216.0,0.125,66,120.0
1300,F3,216.0,0.125,40,120.0
1301,B-5,216.25,0.125,60,120.0
1302,C4,216.25,0.125,32,120.0
1303,C6,216.5,0.125,66,120.0
1304,A3,216.5,0.125,32,120.0
1305,D6,216.75,0.125,67,120.0
1306,C4,216.75,0.125,32,120.0
1307,E6,217.0,0.125,77,120.0
1308,F3,217.0,0.125,46,120.0
1309,F6,217.25,0.125,71,120.0
1310,C4,217.25,0.125,35,120.0
1311,E6,217.5,0.125,74,120.0
1312,A3,217.5,0.125,36,120.0
1313,F6,217.75,0.125,72,120.0
1314,C4,217.75,0.125,38,120.0
1315,F6,218.0,0.25,80,120.0
1316,G3,218.0,0.25,49,120.0
1317,E6,218.25,0.25,72,120.0
1318,C4,218.25,0.25,39,120.0
1319,D6,218.5,0.25,73,120.0
1320,B-3,218.5,0.25,39,120.0
1321,C6,218.75,0.188,70,120.0
1322,C4,218.75,0.25,39,120.0
1323,C6,219.0,0.25,75,120.0
1324,G3,219.0,0.25,50,120.0
1325,B-5,219.25,0.25,70,120.0
1326,C4,219.25,0.25,40,120.0
1327,A5,219.5,0.25,68,120.0
1328,B-3,219.5,0.25,40,120.0
1329,G5,219.75,0.25,67,120.0
1330,C4,219.75,0.25,40,120.0
1331,A5,220.0,0.25,68,120.0
1332,F3,220.0,0.25,48,120.0
1333,B-5,220.25,0.25,68,120.0
1334,C4,220.25,0.25,32,120.0
1335,A5,220.5,0.25,75,120.0
1336,A3,220.5,0.25,32,120.0
1337,B-5,220.75,0.25,74,120.0
1338,C4,220.75,0.25,32,120.0
1339,C6,221.0,0.25,83,120.0
1340,F3,221.0,0.25,52,120.0
1341,D6,221.25,0.25,81,120.0
1342,C4,221.25,0.25,39,120.0
1343,C6,221.5,0.25,91,120.0
1344,A3,221.5,0.25,42,120.0
1345,D6,221.75,0.25,85,120.0
1346,C4,221.75,0.25,45,120.0
1347,A3,222.0,0.25,65,120.0
1348,E-6,222.0,2.0,90,120.0
1349,E-5,222.0,2.0,90,120.0
1350,F4,222.25,0.25,55,120.0
1351,C4,222.5,0.25,55,120.0
1352,F4,222.75,0.25,55,120.0
1353,A3,223.0,0.25,63,120.0
1354,F4,223.25,0.25,51,120.0
1355,C4,223.5,0.25,51,120.0
1356,F4,223.75,0.25,51,120.0
1357,B-3,224.0,0.25,58,120.0
1358,D6,224.25,0.25,70,120.0
1359,F4,224.25,0.25,45,120.0
1360,C#6,224.5,0.25,75,120.0
1361,D4,224.5,0.25,45,120.0
1362,D6,224.75,0.25,68,120.0
1363,F4,224.75,0.25,45,120.0
1364,A3,225.0,0.25,51,120.0
1365,C6,225.25,0.25,67,120.0
1366,F#4,225.25,0.25,44,120.0
1367,B5,225.5,0.25,76,120.0
1368,C4,225.5,0.25,44,120.0
1369,C6,225.75,0.25,67,120.0
1370,F#4,225.75,0.25,44,120.0
1371,G3,226.0,0.25,51,120.0
1372,B5,226.25,0.25,70,120.0
1373,F4,226.25,0.25,43,120.0
1374,B5,226.5,0.125,69,120.0
1375,D4,226.5,0.25,43,120.0
1376,C6,226.625,0.125,63,120.0
1377,B5,226.75,0.25,68,120.0
1378,F4,226.75,0.25,43,120.0
1379,C4,227.0,0.25,51,120.0
1380,B-5,227.25,0.25,72,120.0
1381,G4,227.25,0.25,43,120.0
1382,B-5,227.5,0.125,72,120.0
1383,E4,227.5,0.25,43,120.0
1384,C6,227.625,0.125,65,120.0
1385,B-5,227.75,0.25,75,120.0
1386,G4,227.75,0.25,43,120.0
1387,F3,228.0,0.25,47,120.0
1388,A5,228.25,0.25,67,120.0
1389,F4,228.25,0.25,41,120.0
1390,B-5,228.5,0.25,70,120.0
1391,A3,228.5,0.25,41,120.0
1392,C6,228.75,0.188,72,120.0
1393,F4,228.75,0.25,41,120.0
1394,C6,229.0,0.25,72,120.0
1395,B-3,229.0,0.25,47,120.0
1396,D5,229.25,0.25,66,120.0
1397,G4,229.25,0.25,41,120.0
1398,B-5,229.5,0.25,72,120.0
1399,D4,229.5,0.25,41,120.0
1400,G5,229.75,0.25,65,120.0
1401,G4,229.75,0.25,41,120.0
1402,F5,230.0,1.0,72,120.0
1403,C4,230.0,0.25,47,120.0
1404,A4,230.25,0.25,40,120.0
1405,F4,230.5,0.25,40,120.0
1406,A4,230.75,0.25,40,120.0
1407,E5,231.0,83/1000,68,120.0
1408,C4,231.0,0.25,47,120.0
1409,F5,231.083,83/1000,60,120.0
1410,E5,231.167,83/1000,68,120.0
1411,F5,231.25,83/1000,61,120.0
1412,G4,231.25,0.25,42,120.0
1413,E5,231.333,83/1000,68,120.0
1414,F5,231.417,83/1000,61,120.0
1415,E5,231.5,0.5,68,120.0
1416,E4,231.5,0.25,42,120.0
1417,G4,231.75,0.25,42,120.0
1418,A3,232.0,0.25,47,120.0
1419,C6,232.25,0.25,72,120.0
1420,F4,232.25,0.25,41,120.0
1421,A5,232.5,0.25,75,120.0
1422,C4,232.5,0.25,41,120.0
1423,F5,232.75,0.25,67,120.0
1424,F4,232.75,0.25,41,120.0
1425,E-5,233.0,0.25,77,120.0
1426,B-3,233.0,0.25,47,120.0
1427,D5,233.25,0.25,69,120.0
1428,F4,233.25,0.25,41,120.0
1429,C#6,233.5,0.25,82,120.0
1430,D4,233.5,0.25,41,120.0
1431,D6,233.75,0.25,76,120.0
1432,F4,233.75,0.25,41,120.0
1433,F5,234.0,1.0,75,120.0
1434,C4,234.0,0.25,47,120.0
1435,A4,234.25,0.25,38,120.0
1436,F4,234.5,0.25,38,120.0
1437,A4,234.75,0.25,38,120.0
1438,G5,235.0,83/1000,68,120.0
1439,C4,235.0,0.25,47,120.0
1440,A5,235.083,83/1000,60,120.0
1441,G5,235.167,83/1000,68,120.0
1442,A5,235.25,83/1000,61,120.0
1443,E4,235.25,0.25,42,120.0
1444,G5,235.333,83/1000,68,120.0
1445,A5,235.417,83/1000,61,120.0
1446,G5,235.488,83/1000,68,120.0
1447,C4,235.5,0.25,42,120.0
1448,A5,235.573,83/1000,60,120.0
1449,G5,235.654,83/1000,68,120.0
1450,F5,235.744,0.125,63,120.0
1451,E4,235.75,0.25,42,120.0
1452,G5,235.869,0.125,62,120.0
1453,F5,236.0,0.25,68,120.0
1454,F3,236.0,1.0,39,120.0
1455,F4,236.0,62/125,47,120.0
1456,F4,236.5,0.25,44,120.0
1457,A4,236.5,0.25,44,120.0
1458,A4,237.0,0.25,44,120.0
1459,F4,237.0,0.25,44,120.0
1460,F4,237.5,0.25,44,120.0
1461,A4,237.5,0.25,44,120.0
1462,B-4,238.0,0.125,52,120.0
1463,F4,238.0,0.5,44,120.0
1464,A4,238.125,0.125,47,120.0
1465,G4,238.25,0.125,47,120.0
1466,A4,238.375,0.125,48,120.0
1467,A4,238.5,0.5,48,120.0
1468,C5,238.5,0.5,48,120.0
1469,F4,239.0,0.5,56,120.0
1470,A4,239.0,0.5,56,120.0
1471,D4,239.5,0.5,60,120.0
1472,F4,239.5,0.5,60,120.0
1473,D4,240.0,1.25,66,120.0
1474,B-3,240.0,1.25,66,120.0
1475,B-1,241.0,0.25,64,120.0
1476,B-2,241.0,0.25,64,120.0
1477,D4,241.25,0.25,54,120.0
1478,B-3,241.25,0.25,54,120.0
1479,E4,241.5,0.25,54,120.0
1480,C4,241.5,0.25,54,120.0
1481,F4,241.75,9/40,54,120.0
1482,D4,241.75,9/40,54,120.0
1483,D4,242.0,0.25,58,120.0
1484,F4,242.0,0.25,58,120.0
1485,C2,242.0,0.25,58,120.0
1486,C3,242.0,0.25,58,120.0
1487,C4,242.25,0.25,54,120.0
1488,E4,242.25,0.25,54,120.0
1489,D4,242.5,0.25,54,120.0
1490,B-3,242.5,0.25,54,120.0
1491,C4,242.75,9/40,54,120.0
1492,A3,242.75,9/40,54,120.0
1493,A3,243.0,0.25,58,120.0
1494,C4,243.0,0.25,58,120.0
1495,C3,243.0,0.25,58,120.0
1496,C2,243.0,0.25,58,120.0
1497,G3,243.25,0.25,49,120.0
1498,B-3,243.25,0.25,49,120.0
1499,F3,243.5,0.25,49,120.0
1500,A3,243.5,0.25,49,120.0
1501,E3,243.75,0.25,49,120.0
1502,G3,243.75,0.25,49,120.0
1503,F1,244.0,1.0,50,120.0
1504,F2,244.0,1.0,50,120.0
1505,F4,244.5,167/1000,50,120.0
1506,A4,244.667,167/1000,46,120.0
1507,F5,244.833,167/1000,46,120.0
1508,F4,245.0,167/1000,52,120.0
1509,A4,245.167,167/1000,46,120.0
1510,F5,245.333,167/1000,46,120.0
1511,F4,245.5,167/1000,54,120.0
1512,A4,245.667,167/1000,47,120.0
1513,F5,245.833,167/1000,47,120.0
1514,F4,246.0,167/1000,60,120.0
1515,A4,246.167,167/1000,52,120.0
1516,F5,246.333,167/1000,54,120.0
1517,A4,246.5,167/1000,65,120.0
1518,C5,246.667,167/1000,58,120.0
1519,A5,246.833,167/1000,61,120.0
1520,F4,247.0,167/1000,69,120.0
1521,A4,247.167,167/1000,62,120.0
1522,F5,247.333,167/1000,65,120.0
1523,D4,247.5,167/1000,76,120.0
1524,F4,247.667,167/1000,66,120.0
1525,D5,247.833,167/1000,69,120.0
1526,B-3,248.0,1.25,80,120.0
1527,B-1,249.0,0.25,64,120.0
1528,B-2,249.0,0.25,64,120.0
1529,D5,249.25,0.25,61,120.0
1530,F5,249.25,0.25,61,120.0
1531,E5,249.5,0.25,62,120.0
1532,C5,249.5,0.25,62,120.0
1533,B-4,249.75,9/40,58,120.0
1534,D5,249.75,9/40,58,120.0
1535,B-4,250.0,0.25,62,120.0
1536,D5,250.0,0.25,62,120.0
1537,C2,250.0,0.25,58,120.0
1538,C3,250.0,0.25,58,120.0
1539,A4,250.25,0.25,60,120.0
1540,C5,250.25,0.25,60,120.0
1541,G4,250.5,0.25,58,120.0
1542,B-4,250.5,0.25,58,120.0
1543,A4,250.75,9/40,56,120.0
1544,F4,250.75,9/40,56,120.0
1545,A4,251.0,0.25,63,120.0
1546,B-3,251.0,0.5,58,120.0
1547,C3,251.0,0.5,58,120.0
1548,G4,251.25,0.25,56,120.0
1549,F4,251.5,0.25,56,120.0
1550,B-3,251.75,9/40,52,120.0
1551,E4,251.75,9/40,52,120.0
1552,F3,252.0,1.906,56,120.0
1553,B-3,252.0,1.906,59,120.0
1554,E4,252.0,1.906,59,120.0
1555,F2,253.906,521/1000,51,120.0
1556,A2,253.906,521/1000,51,120.0
1557,C3,253.969,0.5,58,120.0
1558,F3,253.969,0.5,58,120.0
1559,A3,254.0,0.5,52,120.0
1560,F4,254.0,0.5,52,120.0
1561,C4,254.0,0.5,52,120.0
1562,C3,255.906,0.094,46,120.0
1563,E3,255.906,0.094,46,120.0
1564,G3,255.969,0.031,52,120.0
1565,C4,255.969,0.031,52,120.0
1566,C5,256.0,0.75,60,120.0
1567,G4,256.0,0.25,51,120.0
1568,E4,256.0,0.25,51,120.0
1569,C3,256.0,0.219,46,120.0
1570,E3,256.0,0.219,46,120.0
1571,G3,256.0,0.219,52,120.0
1572,C4,256.0,0.219,52,120.0
1573,G4,256.75,0.25,56,120.0
1574,F5,257.0,0.25,60,120.0
1575,E5,257.25,0.25,54,120.0
1576,D5,257.5,0.25,54,120.0
1577,C5,257.75,0.25,54,120.0
1578,G5,258.0,0.25,60,120.0
1579,C4,258.0,0.25,44,120.0
1580,B-4,258.25,0.25,37,120.0
1581,G4,258.5,0.25,37,120.0
1582,B-4,258.75,0.25,37,120.0
1583,C4,259.0,0.25,44,120.0
1584,B-4,259.25,0.25,39,120.0
1585,G4,259.5,0.25,39,120.0
1586,B-4,259.75,0.25,39,120.0
1587,F5,260.0,0.75,60,120.0
1588,C4,260.0,0.25,44,120.0
1589,A4,260.25,0.25,37,120.0
1590,F4,260.5,0.25,37,120.0
1591,C5,260.75,0.25,56,120.0
1592,A4,260.75,0.25,37,120.0
1593,B-5,261.0,0.25,60,120.0
1594,C4,261.0,0.25,44,120.0
1595,A5,261.25,0.25,54,120.0
1596,A4,261.25,0.25,39,120.0
1597,G5,261.5,0.25,54,120.0
1598,F4,261.5,0.25,39,120.0
1599,F5,261.75,0.25,54,120.0
1600,A4,261.75,0.25,39,120.0
1601,C6,262.0,0.25,60,120.0
1602,C4,262.0,0.25,44,120.0
1603,G4,262.25,0.25,37,120.0
1604,E4,262.5,0.25,37,120.0
1605,G4,262.75,0.25,37,120.0
1606,C4,263.0,0.25,44,120.0
1607,G4,263.25,0.25,39,120.0
1608,E4,263.5,0.25,39,120.0
1609,B5,263.75,83/1000,60,120.0
1610,G4,263.75,0.25,39,120.0
1611,C6,263.833,83/1000,62,120.0
1612,D6,263.919,81/1000,64,120.0
1613,C6,264.0,1.75,67,120.0
1614,D6,264.0,1/500,64,120.0
1615,A3,264.0,0.25,44,120.0
1616,E-4,264.25,0.25,39,120.0
1617,C4,264.5,0.25,39,120.0
1618,E-4,264.75,0.25,39,120.0
1619,A3,265.0,0.25,44,120.0
1620,E-4,265.25,0.25,39,120.0
1621,C4,265.5,0.25,39,120.0
1622,B-5,265.75,83/1000,60,120.0
1623,E-4,265.75,0.25,39,120.0
1624,A5,265.833,83/1000,60,120.0
1625,G5,265.919,83/1000,60,120.0
1626,F#5,266.0,0.25,68,120.0
1627,A3,266.0,0.25,44,120.0
1628,E-5,266.25,0.25,63,120.0
1629,E-4,266.25,0.25,40,120.0
1630,D5,266.5,0.25,63,120.0
1631,C4,266.5,0.25,41,120.0
1632,C5,266.75,0.25,64,120.0
1633,E-4,266.75,0.25,42,120.0
1634,B-4,267.0,0.25,68,120.0
1635,A3,267.0,0.25,49,120.0
1636,A4,267.25,0.25,70,120.0
1637,E-4,267.25,0.25,45,120.0
1638,G4,267.5,0.25,71,120.0
1639,C4,267.5,0.25,46,120.0
1640,F#4,267.75,0.25,73,120.0
1641,E-4,267.75,0.25,47,120.0
1642,G4,268.0,6/25,74,120.0
1643,B-3,268.0,0.25,55,120.0
1644,G4,268.25,0.25,48,120.0
1645,B-4,268.5,0.25,77,120.0
1646,D4,268.5,0.25,48,120.0
1647,G4,268.75,0.25,48,120.0
1648,D5,269.0,0.25,82,120.0
1649,B-3,269.0,0.25,55,120.0
1650,G4,269.25,0.25,48,120.0
1651,G5,269.5,0.25,84,120.0
1652,D4,269.5,0.25,48,120.0
1653,G4,269.75,0.25,48,120.0
1654,B-5,270.0,0.25,86,120.0
1655,B-3,270.0,0.25,55,120.0
1656,G4,270.25,0.25,48,120.0
1657,D4,270.5,0.25,48,120.0
1658,G4,270.75,0.25,48,120.0
1659,B-3,271.0,0.25,55,120.0
1660,G4,271.25,0.25,48,120.0
1661,D4,271.5,0.25,48,120.0
1662,G4,271.75,0.25,48,120.0
1663,D6,272.0,0.25,90,120.0
1664,B-3,272.0,0.25,55,120.0
1665,G4,272.25,0.25,45,120.0
1666,D6,272.5,1.0,90,120.0
1667,E4,272.5,0.25,45,120.0
1668,G4,272.75,0.25,45,120.0
1669,B-3,273.0,0.25,52,120.0
1670,G4,273.25,0.25,42,120.0
1671,C6,273.5,0.125,72,120.0
1672,E4,273.5,0.25,42,120.0
1673,B-5,273.625,0.125,73,120.0
1674,A5,273.75,0.125,74,120.0
1675,G4,273.75,0.25,42,120.0
1676,G5,273.875,0.125,74,120.0
1677,C6,274.0,0.25,84,120.0
1678,A3,274.0,0.25,55,120.0
1679,F4,274.25,0.25,46,120.0
1680,C6,274.5,1.0,84,120.0
1681,C4,274.5,0.25,46,120.0
1682,F4,274.75,0.25,46,120.0
1683,A3,275.0,0.25,55,120.0
1684,F4,275.25,0.25,48,120.0
1685,B-5,275.5,0.125,70,120.0
1686,C4,275.5,0.25,48,120.0
1687,A5,275.625,0.125,72,120.0
1688,G5,275.75,0.125,73,120.0
1689,F4,275.75,0.25,43,120.0
1690,F5,275.875,0.125,75,120.0
1691,C6,276.0,0.25,77,120.0
1692,E3,276.0,0.25,50,120.0
1693,B-5,276.25,0.188,68,120.0
1694,C4,276.25,0.25,38,120.0
1695,B-5,276.5,0.25,72,120.0
1696,G3,276.5,0.25,38,120.0
1697,A5,276.75,0.188,67,120.0
1698,C4,276.75,0.25,38,120.0
1699,A5,277.0,0.5,72,120.0
1700,F3,277.0,0.25,48,120.0
1701,C4,277.25,0.25,40,120.0
1702,A3,277.5,0.25,40,120.0
1703,C4,277.75,0.25,34,120.0
1704,C6,278.0,0.25,61,120.0
1705,E3,278.0,0.25,40,120.0
1706,B-5,278.25,0.188,57,120.0
1707,C4,278.25,0.25,31,120.0
1708,B-5,278.5,0.25,61,120.0
1709,G3,278.5,0.25,31,120.0
1710,A5,278.75,0.188,54,120.0
1711,C4,278.75,0.25,31,120.0
1712,A5,279.0,0.5,60,120.0
1713,F3,279.0,0.25,34,120.0
1714,C4,279.25,0.25,27,120.0
1715,A3,279.5,0.25,27,120.0
1716,C4,279.75,0.25,27,120.0
1717,C6,280.0,0.062,69,120.0
1718,E3,280.0,0.25,53,120.0
1719,D6,280.062,0.062,63,120.0
1720,C6,280.125,0.062,69,120.0
1721,D6,280.188,0.062,61,120.0
1722,B-5,280.25,0.188,68,120.0
1723,C4,280.25,0.25,40,120.0
1724,B-5,280.5,0.062,68,120.0
1725,G3,280.5,0.25,40,120.0
1726,C6,280.562,0.062,61,120.0
1727,B-5,280.625,0.062,68,120.0
1728,C6,280.688,0.062,62,120.0
1729,A5,280.75,0.188,67,120.0
1730,C4,280.75,0.25,40,120.0
1731,A5,281.0,0.5,72,120.0
1732,F3,281.0,0.25,48,120.0
1733,C4,281.25,0.25,40,120.0
1734,A3,281.5,0.25,40,120.0
1735,C4,281.75,0.25,34,120.0
1736,B-5,281.938,0.062,62,120.0
1737,A5,282.0,0.25,70,120.0
1738,B-3,282.0,0.25,46,120.0
1739,G5,282.25,0.188,65,120.0
1740,G4,282.25,0.25,35,120.0
1741,A5,282.438,0.062,62,120.0
1742,G5,282.5,0.25,70,120.0
1743,D4,282.5,0.25,35,120.0
1744,F5,282.75,0.188,62,120.0
1745,G4,282.75,0.25,35,120.0
1746,F5,283.0,0.5,69,120.0
1747,B3,283.0,0.25,45,120.0
1748,G4,283.25,0.25,36,120.0
1749,D4,283.5,0.25,36,120.0
1750,G4,283.75,0.25,36,120.0
1751,F5,284.0,0.25,65,120.0
1752,C4,284.0,0.25,43,120.0
1753,E5,284.25,0.25,57,120.0
1754,G4,284.25,0.25,34,120.0
1755,D5,284.5,0.25,61,120.0
1756,E4,284.5,0.25,34,120.0
1757,C5,284.75,0.188,54,120.0
1758,G4,284.75,0.25,34,120.0
1759,C5,285.0,0.5,60,120.0
1760,C4,285.0,0.25,42,120.0
1761,G4,285.25,0.25,32,120.0
1762,C5,285.5,0.5,54,120.0
1763,E4,285.5,0.25,32,120.0
1764,G4,285.75,0.25,32,120.0
1765,D5,286.0,0.125,54,120.0
1766,C4,286.0,0.25,37,120.0
1767,C5,286.125,0.125,54,120.0
1768,B4,286.25,0.125,54,120.0
1769,D4,286.25,0.25,29,120.0
1770,C5,286.375,417/1000,60,120.0
1771,B-3,286.5,0.25,38,120.0
1772,C4,286.75,0.25,32,120.0
1773,A3,287.0,0.25,34,120.0
1774,B-3,287.25,0.25,27,120.0
1775,G3,287.5,0.25,34,120.0
1776,A3,287.75,0.25,28,120.0
1777,C5,288.0,1.0,60,120.0
1778,F3,288.0,0.25,37,120.0
1779,C4,288.25,0.25,31,120.0
1780,A3,288.5,0.25,28,120.0
1781,C4,288.75,0.25,28,120.0
1782,B-4,289.0,0.25,55,120.0
1783,F3,289.0,0.25,40,120.0
1784,A4,289.25,0.25,50,120.0
1785,C4,289.25,0.25,31,120.0
1786,G4,289.5,0.25,55,120.0
1787,A3,289.5,0.25,31,120.0
1788,F4,289.75,0.188,49,120.0
1789,C4,289.75,0.25,31,120.0
1790,F4,290.0,1.0,55,120.0
1791,G3,290.0,0.25,40,120.0
1792,C4,290.25,0.25,30,120.0
1793,B-3,290.5,0.25,30,120.0
1794,C4,290.75,0.25,30,120.0
1795,E4,291.0,0.125,55,120.0
1796,G3,291.0,0.25,40,120.0
1797,F4,291.125,0.125,51,120.0
1798,E4,291.25,0.5,57,120.0
1799,C4,291.25,0.25,33,120.0
1800,B-3,291.5,0.25,33,120.0
1801,E4,291.75,0.25,51,120.0
1802,C4,291.75,0.25,33,120.0
1803,F4,292.0,0.25,55,120.0
1804,F3,292.0,0.25,40,120.0
1805,G4,292.25,0.25,52,120.0
1806,C4,292.25,0.25,32,120.0
1807,A4,292.5,0.25,54,120.0
1808,A3,292.5,0.25,32,120.0
1809,B-4,292.75,0.25,55,120.0
1810,C4,292.75,0.25,32,120.0
1811,C5,293.0,0.25,59,120.0
1812,F3,293.0,0.25,40,120.0
1813,D5,293.25,0.25,61,120.0
1814,C4,293.25,0.25,33,120.0
1815,E5,293.5,0.25,64,120.0
1816,A3,293.5,0.25,35,120.0
1817,F5,293.75,0.188,66,120.0
1818,C4,293.75,0.25,37,120.0
1819,F5,294.0,0.25,66,120.0
1820,G3,294.0,0.25,47,120.0
1821,E5,294.25,0.25,64,120.0
1822,C4,294.25,0.25,35,120.0
1823,D5,294.5,0.125,61,120.0
1824,B-3,294.5,0.125,35,120.0
1825,C5,294.75,0.125,59,120.0
1826,C4,294.75,0.125,35,120.0
1827,C5,295.0,0.25,57,120.0
1828,G3,295.0,0.25,44,120.0
1829,B-4,295.25,0.25,55,120.0
1830,C4,295.25,0.25,33,120.0
1831,A4,295.5,0.125,52,120.0
1832,B-3,295.5,0.125,33,120.0
1833,G4,295.75,0.125,50,120.0
1834,C4,295.75,0.125,33,120.0
1835,C6,296.0,0.75,72,120.0
1836,F3,296.0,0.25,40,120.0
1837,C4,296.25,0.25,32,120.0
1838,A3,296.5,0.25,32,120.0
1839,D6,296.75,0.125,64,120.0
1840,C4,296.75,0.25,32,120.0
1841,C6,296.875,0.125,60,120.0
1842,B-5,297.0,0.25,68,120.0
1843,F3,297.0,0.25,40,120.0
1844,A5,297.25,0.25,60,120.0
1845,C4,297.25,0.25,31,120.0
1846,G5,297.5,0.25,62,120.0
1847,A3,297.5,0.25,31,120.0
1848,F5,297.75,0.188,60,120.0
1849,C4,297.75,0.25,31,120.0
1850,F5,298.0,1.0,70,120.0
1851,G3,298.0,0.25,40,120.0
1852,C4,298.25,0.25,30,120.0
1853,B-3,298.5,0.25,30,120.0
1854,C4,298.75,0.25,30,120.0
1855,E5,299.0,0.125,60,120.0
1856,G3,299.0,0.25,40,120.0
1857,F5,299.125,0.125,56,120.0
1858,E5,299.25,0.5,60,120.0
1859,C4,299.25,0.25,33,120.0
1860,B-3,299.5,0.25,33,120.0
1861,B-5,299.75,0.25,57,120.0
1862,C4,299.75,0.25,33,120.0
1863,A5,300.0,0.125,66,120.0
1864,F3,300.0,0.125,40,120.0
1865,B-5,300.25,0.125,60,120.0
1866,C4,300.25,0.125,32,120.0
1867,C6,300.5,0.125,66,120.0
1868,A3,300.5,0.125,32,120.0
1869,D6,300.75,0.125,67,120.0
1870,C4,300.75,0.125,32,120.0
1871,E6,301.0,0.125,77,120.0
1872,F3,301.0,0.125,46,120.0
1873,F6,301.25,0.125,71,120.0
1874,C4,301.25,0.125,35,120.0
1875,E6,301.5,0.125,74,120.0
1876,A3,301.5,0.125,36,120.0
1877,F6,301.75,0.125,72,120.0
1878,C4,301.75,0.125,38,120.0
1879,F6,302.0,0.25,80,120.0
1880,G3,302.0,0.25,49,120.0
1881,E6,302.25,0.25,72,120.0
1882,C4,302.25,0.25,39,120.0
1883,D6,302.5,0.25,73,120.0
1884,B-3,302.5,0.25,39,120.0
1885,C6,302.75,0.188,70,120.0
1886,C4,302.75,0.25,39,120.0
1887,C6,303.0,0.25,75,120.0
1888,G3,303.0,0.25,50,120.0
1889,B-5,303.25,0.25,70,120.0
1890,C4,303.25,0.25,40,120.0
1891,A5,303.5,0.25,68,120.0
1892,B-3,303.5,0.25,40,120.0
1893,G5,303.75,0.25,67,120.0
1894,C4,303.75,0.25,40,120.0
1895,A5,304.0,0.25,68,120.0
1896,F3,304.0,0.25,48,120.0
1897,B-5,304.25,0.25,68,120.0
1898,C4,304.25,0.25,32,120.0
1899,A5,304.5,0.25,75,120.0
1900,A3,304.5,0.25,32,120.0
1901,B-5,304.75,0.25,74,120.0
1902,C4,304.75,0.25,32,120.0
1903,C6,305.0,0.25,83,120.0
1904,F3,305.0,0.25,52,120.0
1905,D6,305.25,0.25,81,120.0
1906,C4,305.25,0.25,39,120.0
1907,C6,305.5,0.25,91,120.0
1908,A3,305.5,0.25,42,120.0
1909,D6,305.75,0.25,85,120.0
1910,C4,305.75,0.25,45,120.0
1911,A3,306.0,0.25,65,120.0
1912,E-6,306.0,2.0,90,120.0
1913,E-5,306.0,2.0,90,120.0
1914,F4,306.25,0.25,55,120.0
1915,C4,306.5,0.25,55,120.0
1916,F4,306.75,0.25,55,120.0
1917,A3,307.0,0.25,63,120.0
1918,F4,307.25,0.25,51,120.0
1919,C4,307.5,0.25,51,120.0
1920,F4,307.75,0.25,51,120.0
1921,B-3,308.0,0.25,58,120.0
1922,D6,308.25,0.25,70,120.0
1923,F4,308.25,0.25,45,120.0
1924,C#6,308.5,0.25,75,120.0
1925,D4,308.5,0.25,45,120.0
1926,D6,308.75,0.25,68,120.0
1927,F4,308.75,0.25,45,120.0
1928,A3,309.0,0.25,51,120.0
1929,C6,309.25,0.25,67,120.0
1930,F#4,309.25,0.25,44,120.0
1931,B5,309.5,0.25,76,120.0
1932,C4,309.5,0.25,44,120.0
1933,C6,309.75,0.25,67,120.0
1934,F#4,309.75,0.25,44,120.0
1935,G3,310.0,0.25,51,120.0
1936,B5,310.25,0.25,70,120.0
1937,F4,310.25,0.25,43,120.0
1938,B5,310.5,0.125,69,120.0
1939,D4,310.5,0.25,43,120.0
1940,C6,310.625,0.125,63,120.0
1941,B5,310.75,0.25,68,120.0
1942,F4,310.75,0.25,43,120.0
1943,C4,311.0,0.25,51,120.0
1944,B-5,311.25,0.25,72,120.0
1945,G4,311.25,0.25,43,120.0
1946,B-5,311.5,0.125,72,120.0
1947,E4,311.5,0.25,43,120.0
1948,C6,311.625,0.125,65,120.0
1949,B-5,311.75,0.25,75,120.0
1950,G4,311.75,0.25,43,120.0
1951,F3,312.0,0.25,47,120.0
1952,A5,312.25,0.25,67,120.0
1953,F4,312.25,0.25,41,120.0
1954,B-5,312.5,0.25,70,120.0
1955,A3,312.5,0.25,41,120.0
1956,C6,312.75,0.188,72,120.0
1957,F4,312.75,0.25,41,120.0
1958,C6,313.0,0.25,72,120.0
1959,B-3,313.0,0.25,47,120.0
1960,D5,313.25,0.25,66,120.0
1961,G4,313.25,0.25,41,120.0
1962,B-5,313.5,0.25,72,120.0
1963,D4,313.5,0.25,41,120.0
1964,G5,313.75,0.25,65,120.0
1965,G4,313.75,0.25,41,120.0
1966,F5,314.0,1.0,72,120.0
1967,C4,314.0,0.25,47,120.0
1968,A4,314.25,0.25,40,120.0
1969,F4,314.5,0.25,40,120.0
1970,A4,314.75,0.25,40,120.0
1971,E5,315.0,83/1000,68,120.0
1972,C4,315.0,0.25,47,120.0
1973,F5,315.083,83/1000,60,120.0
1974,E5,315.167,83/1000,68,120.0
1975,F5,315.25,83/1000,61,120.0
1976,G4,315.25,0.25,42,120.0
1977,E5,315.333,83/1000,68,120.0
1978,F5,315.417,83/1000,61,120.0
1979,E5,315.5,0.5,68,120.0
1980,E4,315.5,0.25,42,120.0
1981,G4,315.75,0.25,42,120.0
1982,A3,316.0,0.25,47,120.0
1983,C6,316.25,0.25,72,120.0
1984,F4,316.25,0.25,41,120.0
1985,A5,316.5,0.25,75,120.0
1986,C4,316.5,0.25,41,120.0
1987,F5,316.75,0.25,67,120.0
1988,F4,316.75,0.25,41,120.0
1989,E-5,317.0,0.25,77,120.0
1990,B-3,317.0,0.25,47,120.0
1991,D5,317.25,0.25,69,120.0
1992,F4,317.25,0.25,41,120.0
1993,C#6,317.5,0.25,82,120.0
1994,D4,317.5,0.25,41,120.0
1995,D6,317.75,0.25,76,120.0
1996,F4,317.75,0.25,41,120.0
1997,F5,318.0,1.0,75,120.0
1998,C4,318.0,0.25,47,120.0
1999,A4,318.25,0.25,38,120.0
2000,F4,318.5,0.25,38,120.0
2001,A4,318.75,0.25,38,120.0
2002,G5,319.0,83/1000,68,120.0
2003,C4,319.0,0.25,47,120.0
2004,A5,319.083,83/1000,60,120.0
2005,G5,319.167,83/1000,68,120.0
2006,A5,319.25,83/1000,61,120.0
2007,E4,319.25,0.25,42,120.0
2008,G5,319.333,83/1000,68,120.0
2009,A5,319.417,83/1000,61,120.0
2010,G5,319.488,83/1000,68,120.0
2011,C4,319.5,0.25,42,120.0
2012,A5,319.573,83/1000,60,120.0
2013,G5,319.654,83/1000,68,120.0
2014,F5,319.744,0.125,63,120.0
2015,E4,319.75,0.25,42,120.0
2016,G5,319.869,0.125,62,120.0
2017,F5,320.0,0.25,68,120.0
2018,F4,320.0,62/125,47,120.0
2019,F3,320.0,1.0,39,120.0
2020,A4,320.5,0.25,44,120.0
2021,F4,320.5,0.25,44,120.0
2022,A4,321.0,0.25,44,120.0
2023,F4,321.0,0.25,44,120.0
2024,F4,321.5,0.25,44,120.0
2025,A4,321.5,0.25,44,120.0
2026,F4,322.0,0.5,44,120.0
2027,B-4,322.0,0.125,52,120.0
2028,A4,322.125,0.125,47,120.0
2029,G4,322.25,0.125,47,120.0
2030,A4,322.375,0.125,48,120.0
2031,A4,322.5,0.5,48,120.0
2032,C5,322.5,0.5,48,120.0
2033,F4,323.0,0.5,56,120.0
2034,A4,323.0,0.5,56,120.0
2035,F4,323.5,0.5,60,120.0
2036,D4,323.5,0.5,60,120.0
2037,D4,324.0,1.25,66,120.0
2038,B-3,324.0,1.25,66,120.0
2039,B-2,325.0,0.25,64,120.0
2040,B-1,325.0,0.25,64,120.0
2041,B-3,325.25,0.25,54,120.0
2042,D4,325.25,0.25,54,120.0
2043,E4,325.5,0.25,54,120.0
2044,C4,325.5,0.25,54,120.0
2045,F4,325.75,9/40,54,120.0
2046,D4,325.75,9/40,54,120.0
2047,F4,326.0,0.25,58,120.0
2048,D4,326.0,0.25,58,120.0
2049,C2,326.0,0.25,58,120.0
2050,C3,326.0,0.25,58,120.0
2051,E4,326.25,0.25,54,120.0
2052,C4,326.25,0.25,54,120.0
2053,D4,326.5,0.25,54,120.0
2054,B-3,326.5,0.25,54,120.0
2055,C4,326.75,9/40,54,120.0
2056,A3,326.75,9/40,54,120.0
2057,A3,327.0,0.25,58,120.0
2058,C4,327.0,0.25,58,120.0
2059,C3,327.0,0.25,58,120.0
2060,C2,327.0,0.25,58,120.0
2061,B-3,327.25,0.25,49,120.0
2062,G3,327.25,0.25,49,120.0
2063,A3,327.5,0.25,49,120.0
2064,F3,327.5,0.25,49,120.0
2065,G3,327.75,0.25,49,120.0
2066,E3,327.75,0.25,49,120.0
2067,F1,328.0,1.0,50,120.0
2068,F2,328.0,1.0,50,120.0
2069,F4,328.5,167/1000,50,120.0
2070,A4,328.667,167/1000,46,120.0
2071,F5,328.833,167/1000,46,120.0
2072,F4,329.0,167/1000,52,120.0
2073,A4,329.167,167/1000,46,120.0
2074,F5,329.333,167/1000,46,120.0
2075,F4,329.5,167/1000,54,120.0
2076,A4,329.667,167/1000,47,120.0
2077,F5,329.833,167/1000,47,120.0
2078,F4,330.0,167/1000,60,120.0
2079,A4,330.167,167/1000,52,120.0
2080,F5,330.333,167/1000,54,120.0
2081,A4,330.5,167/1000,65,120.0
2082,C5,330.667,167/1000,58,120.0
2083,A5,330.833,167/1000,61,120.0
2084,F4,331.0,167/1000,69,120.0
2085,A4,331.167,167/1000,62,120.0
2086,F5,331.333,167/1000,65,120.0
2087,D4,331.5,167/1000,76,120.0
2088,F4,331.667,167/1000,66,120.0
2089,D5,331.833,167/1000,69,120.0
2090,B-3,332.0,1.25,80,120.0
2091,B-2,333.0,0.25,64,120.0
2092,B-1,333.0,0.25,64,120.0
2093,F5,333.25,0.25,61,120.0
2094,D5,333.25,0.25,61,120.0
2095,E5,333.5,0.25,62,120.0
2096,C5,333.5,0.25,62,120.0
2097,D5,333.75,9/40,58,120.0
2098,B-4,333.75,9/40,58,120.0
2099,D5,334.0,0.25,62,120.0
2100,B-4,334.0,0.25,62,120.0
2101,C2,334.0,0.25,58,120.0
2102,C3,334.0,0.25,58,120.0
2103,A4,334.25,0.25,60,120.0
2104,C5,334.25,0.25,60,120.0
2105,G4,334.5,0.25,58,120.0
2106,B-4,334.5,0.25,58,120.0
2107,F4,334.75,9/40,56,120.0
2108,A4,334.75,9/40,56,120.0
2109,A4,335.0,0.25,63,120.0
2110,C3,335.0,0.5,58,120.0
2111,B-3,335.0,0.5,58,120.0
2112,G4,335.25,0.25,56,120.0
2113,F4,335.5,0.25,56,120.0
2114,B-3,335.75,9/40,52,120.0
2115,E4,335.75,9/40,52,120.0
2116,F3,336.0,1.906,56,120.0
2117,B-3,336.0,1.906,59,120.0
2118,E4,336.0,1.906,59,120.0
2119,F2,337.906,521/1000,51,120.0
2120,A2,337.906,521/1000,51,120.0
2121,C3,337.969,0.5,58,120.0
2122,F3,337.969,0.5,58,120.0
2123,C4,338.0,0.5,52,120.0
2124,F4,338.0,0.5,52,120.0
2125,A3,338.0,0.5,52,120.0
