,note_name,start_time,duration,velocity,tempo
0,D5,0.0,0.5,63,109.5
1,G4,0.0,0.25,40,109.5
2,B4,0.25,0.25,36,109.5
3,G5,0.5,0.5,65,109.5
4,G4,0.5,0.25,41,109.5
5,B4,0.75,0.25,38,109.5
6,B5,1.0,0.5,68,109.5
7,G4,1.0,0.25,43,109.5
8,B4,1.25,0.25,39,109.5
9,D6,1.5,1.0,71,109.5
10,G4,1.5,0.25,45,109.5
11,B4,1.75,0.25,40,109.5
12,G4,2.0,0.25,45,109.5
13,B4,2.25,0.25,41,109.5
14,D5,2.5,0.5,63,109.5
15,G4,2.5,0.25,44,109.5
16,B4,2.75,0.25,38,109.5
17,E5,3.0,0.5,68,109.5
18,G4,3.0,0.25,45,109.5
19,C5,3.25,0.25,40,109.5
20,C6,3.5,0.5,63,109.5
21,G4,3.5,0.25,45,109.5
22,C5,3.75,0.25,34,109.5
23,E5,4.0,0.5,58,109.5
24,G4,4.0,0.25,44,109.5
25,C5,4.25,0.25,34,109.5
26,D5,4.5,0.5,58,109.5
27,G4,4.5,0.25,43,109.5
28,B4,4.75,0.25,34,109.5
29,G4,5.0,0.25,38,109.5
30,B4,5.25,0.25,32,109.5
31,G4,5.5,0.25,38,109.5
32,B4,5.75,0.25,32,109.5
33,C5,6.0,0.5,51,109.5
34,D4,6.0,0.25,35,109.5
35,A4,6.25,0.25,31,109.5
36,A5,6.5,0.5,45,109.5
37,D4,6.5,0.25,35,109.5
38,A4,6.75,0.25,31,109.5
39,C5,7.0,0.5,45,109.5
40,D4,7.0,0.25,35,109.5
41,A4,7.25,0.25,31,109.5
42,B4,7.5,0.25,52,109.5
43,G4,7.5,0.25,40,109.5
44,G5,7.75,0.25,44,109.5
45,C5,8.0,0.25,54,109.5
46,A4,8.0,0.25,37,109.5
47,G5,8.25,0.25,44,109.5
48,D5,8.5,0.25,53,109.5
49,B4,8.5,0.25,41,109.5
50,G5,8.75,0.25,45,109.5
51,C5,9.0,0.25,56,109.5
52,C4,9.0,1.0,45,109.5
53,E5,9.25,0.25,41,109.5
54,D5,9.5,0.25,52,109.5
55,C5,9.75,0.25,42,109.5
56,B4,10.0,0.25,49,109.5
57,D4,10.0,0.5,32,109.5
58,A4,10.25,0.25,40,109.5
59,G4,10.5,0.5,49,109.5
60,G3,10.5,0.5,37,109.5
61,D3,11.0,0.25,35,109.5
62,G2,11.5,0.25,37,109.5
63,D5,12.0,0.5,63,109.5
64,G4,12.0,0.25,40,109.5
65,B4,12.25,0.25,36,109.5
66,G5,12.5,0.5,65,109.5
67,G4,12.5,0.25,41,109.5
68,B4,12.75,0.25,38,109.5
69,B5,13.0,0.5,68,109.5
70,G4,13.0,0.25,43,109.5
71,B4,13.25,0.25,39,109.5
72,D6,13.5,1.0,71,109.5
73,G4,13.5,0.25,45,109.5
74,B4,13.75,0.25,40,109.5
75,G4,14.0,0.25,45,109.5
76,B4,14.25,0.25,41,109.5
77,D5,14.5,0.5,63,109.5
78,G4,14.5,0.25,44,109.5
79,B4,14.75,0.25,38,109.5
80,E5,15.0,0.5,68,109.5
81,G4,15.0,0.25,45,109.5
82,C5,15.25,0.25,40,109.5
83,C6,15.5,0.5,63,109.5
84,G4,15.5,0.25,45,109.5
85,C5,15.75,0.25,38,109.5
86,E5,16.0,0.5,58,109.5
87,G4,16.0,0.25,45,109.5
88,C5,16.25,0.25,34,109.5
89,D5,16.5,0.5,58,109.5
90,G4,16.5,0.25,44,109.5
91,B4,16.75,0.25,30,109.5
92,G4,17.0,0.25,39,109.5
93,B4,17.25,0.25,32,109.5
94,G4,17.5,0.25,38,109.5
95,B4,17.75,0.25,32,109.5
96,C5,18.0,0.5,51,109.5
97,D4,18.0,0.25,35,109.5
98,A4,18.25,0.25,31,109.5
99,A5,18.5,0.5,45,109.5
100,D4,18.5,0.25,35,109.5
101,A4,18.75,0.25,31,109.5
102,C5,19.0,0.5,45,109.5
103,D4,19.0,0.25,35,109.5
104,A4,19.25,0.25,31,109.5
105,B4,19.5,0.25,52,109.5
106,G4,19.5,0.25,40,109.5
107,G5,19.75,0.25,44,109.5
108,C5,20.0,0.25,54,109.5
109,A4,20.0,0.25,37,109.5
110,G5,20.25,0.25,44,109.5
111,D5,20.5,0.25,53,109.5
112,B4,20.5,0.25,41,109.5
113,G5,20.75,0.25,45,109.5
114,C5,21.0,0.25,56,109.5
115,C4,21.0,1.0,45,109.5
116,E5,21.25,0.25,41,109.5
117,D5,21.5,0.25,52,109.5
118,C5,21.75,0.25,42,109.5
119,B4,22.0,0.25,49,109.5
120,D4,22.0,0.5,32,109.5
121,A4,22.25,0.25,40,109.5
122,G4,22.5,0.5,49,109.5
123,G3,22.5,0.5,37,109.5
124,D3,23.0,0.25,35,109.5
125,G2,23.5,0.25,37,109.5
126,F#4,24.0,0.25,56,109.5
127,D3,24.0,1.5,40,109.5
128,D4,24.25,0.25,48,109.5
129,F#4,24.5,0.25,56,109.5
130,D4,24.75,0.25,47,109.5
131,F#4,25.0,0.25,56,109.5
132,C4,25.0,0.5,39,109.5
133,D4,25.25,0.25,49,109.5
134,G4,25.5,0.25,56,109.5
135,B3,25.5,0.5,45,109.5
136,D4,25.75,0.25,50,109.5
137,A4,26.0,0.25,59,109.5
138,F#3,26.0,0.5,40,109.5
139,D4,26.25,0.25,54,109.5
140,B4,26.5,0.25,62,109.5
141,G3,26.5,0.5,42,109.5
142,D4,26.75,0.25,55,109.5
143,C5,27.0,0.25,65,109.5
144,A3,27.0,0.5,52,109.5
145,D4,27.25,0.25,56,109.5
146,C5,27.5,0.25,64,109.5
147,F#3,27.5,0.5,47,109.5
148,D4,27.75,0.25,56,109.5
149,B4,28.0,0.25,63,109.5
150,G3,28.0,0.5,47,109.5
151,D4,28.25,0.25,53,109.5
152,A4,28.5,0.25,61,109.5
153,D3,28.5,1.0,56,109.5
154,F#3,28.5,1.0,56,109.5
155,D5,28.75,0.25,47,109.5
156,F#4,29.0,0.25,59,109.5
157,A4,29.25,0.25,44,109.5
158,D4,29.5,62/125,54,109.5
159,F#4,30.0,0.25,70,109.5
160,D4,30.0,1.0,62,109.5
161,D3,30.0,1.0,62,109.5
162,D5,30.25,0.25,59,109.5
163,F#4,30.5,0.25,70,109.5
164,D5,30.75,0.25,58,109.5
165,F#4,31.0,0.25,70,109.5
166,C3,31.0,0.5,56,109.5
167,C4,31.0,0.5,56,109.5
168,D5,31.25,0.25,56,109.5
169,G4,31.5,0.25,71,109.5
170,B2,31.5,0.5,66,109.5
171,B3,31.5,0.5,66,109.5
172,D5,31.75,0.25,63,109.5
173,A4,32.0,0.25,73,109.5
174,A2,32.0,0.5,59,109.5
175,A3,32.0,0.5,59,109.5
176,D5,32.25,0.25,62,109.5
177,B4,32.5,0.25,78,109.5
178,G2,32.5,0.5,61,109.5
179,G3,32.5,0.5,61,109.5
180,D5,32.75,0.25,75,109.5
181,C5,33.0,0.25,80,109.5
182,F#2,33.0,1.0,68,109.5
183,F#3,33.0,1.0,68,109.5
184,D5,33.25,0.25,71,109.5
185,C5,33.5,0.25,75,109.5
186,D5,33.75,0.25,64,109.5
187,B4,34.0,0.25,72,109.5
188,G2,34.0,0.5,54,109.5
189,G3,34.0,0.5,54,109.5
190,D5,34.25,0.25,60,109.5
191,A4,34.5,0.25,70,109.5
192,D2,34.5,1.0,59,109.5
193,D3,34.5,1.0,59,109.5
194,D5,34.75,0.25,54,109.5
195,F#4,35.0,0.25,67,109.5
196,A4,35.25,0.25,50,109.5
197,D4,35.5,0.5,62,109.5
198,D5,36.0,0.5,50,109.5
199,G4,36.0,0.25,32,109.5
200,B4,36.25,0.25,28,109.5
201,G5,36.5,0.5,52,109.5
202,G4,36.5,0.25,32,109.5
203,B4,36.75,0.25,30,109.5
204,B5,37.0,0.5,54,109.5
205,G4,37.0,0.25,34,109.5
206,B4,37.25,0.25,31,109.5
207,D6,37.5,1.0,56,109.5
208,G4,37.5,0.25,36,109.5
209,B4,37.75,0.25,32,109.5
210,G4,38.0,0.25,36,109.5
211,B4,38.25,0.25,32,109.5
212,D5,38.5,0.5,50,109.5
213,G4,38.5,0.25,35,109.5
214,B4,38.75,0.25,30,109.5
215,E5,39.0,0.5,54,109.5
216,G4,39.0,0.25,36,109.5
217,C5,39.25,0.25,32,109.5
218,C6,39.5,0.5,50,109.5
219,G4,39.5,0.25,36,109.5
220,C5,39.75,0.25,32,109.5
221,E5,40.0,0.5,46,109.5
222,G4,40.0,0.25,39,109.5
223,C5,40.25,0.25,34,109.5
224,D5,40.5,0.5,46,109.5
225,G4,40.5,0.25,38,109.5
226,B4,40.75,0.25,27,109.5
227,G4,41.0,0.25,32,109.5
228,B4,41.25,0.25,25,109.5
229,G4,41.5,0.25,30,109.5
230,B4,41.75,0.25,25,109.5
231,C5,42.0,0.5,68,109.5
232,D4,42.0,0.25,47,109.5
233,A4,42.25,0.25,41,109.5
234,A5,42.5,0.5,60,109.5
235,D4,42.5,0.25,47,109.5
236,A4,42.75,0.25,41,109.5
237,C5,43.0,0.5,60,109.5
238,D4,43.0,0.25,47,109.5
239,A4,43.25,0.25,41,109.5
240,B4,43.5,0.25,70,109.5
241,G4,43.5,0.25,54,109.5
242,G5,43.75,0.25,59,109.5
243,C5,44.0,0.25,72,109.5
244,A4,44.0,0.25,49,109.5
245,G5,44.25,0.25,59,109.5
246,D5,44.5,0.25,71,109.5
247,B4,44.5,0.25,55,109.5
248,G5,44.75,0.25,60,109.5
249,C5,45.0,0.25,75,109.5
250,C4,45.0,1.0,60,109.5
251,E5,45.25,0.25,64,109.5
252,D5,45.5,0.25,70,109.5
253,C5,45.75,0.25,62,109.5
254,B4,46.0,0.25,66,109.5
255,D4,46.0,0.5,51,109.5
256,A4,46.25,0.25,59,109.5
257,G4,46.5,0.5,74,109.5
258,G3,46.5,0.5,57,109.5
259,D3,47.0,0.25,54,109.5
260,G2,47.5,0.25,55,109.5
261,F#4,48.0,0.25,56,109.5
262,D3,48.0,1.5,40,109.5
263,D4,48.25,0.25,48,109.5
264,F#4,48.5,0.25,56,109.5
265,D4,48.75,0.25,47,109.5
266,F#4,49.0,0.25,56,109.5
267,C4,49.0,0.5,39,109.5
268,D4,49.25,0.25,49,109.5
269,G4,49.5,0.25,56,109.5
270,B3,49.5,0.5,45,109.5
271,D4,49.75,0.25,50,109.5
272,A4,50.0,0.25,59,109.5
273,F#3,50.0,0.5,40,109.5
274,D4,50.25,0.25,54,109.5
275,B4,50.5,0.25,62,109.5
276,G3,50.5,0.5,42,109.5
277,D4,50.75,0.25,55,109.5
278,C5,51.0,0.25,65,109.5
279,A3,51.0,0.5,52,109.5
280,D4,51.25,0.25,56,109.5
281,C5,51.5,0.25,64,109.5
282,F#3,51.5,0.5,47,109.5
283,D4,51.75,0.25,56,109.5
284,B4,52.0,0.25,63,109.5
285,G3,52.0,0.5,47,109.5
286,D4,52.25,0.25,53,109.5
287,A4,52.5,0.25,61,109.5
288,D3,52.5,1.0,56,109.5
289,F#3,52.5,1.0,56,109.5
290,D5,52.75,0.25,47,109.5
291,F#4,53.0,0.25,59,109.5
292,A4,53.25,0.25,44,109.5
293,D4,53.5,62/125,54,109.5
294,F#4,54.0,0.25,70,109.5
295,D4,54.0,1.0,62,109.5
296,D3,54.0,1.0,62,109.5
297,D5,54.25,0.25,59,109.5
298,F#4,54.5,0.25,70,109.5
299,D5,54.75,0.25,58,109.5
300,F#4,55.0,0.25,70,109.5
301,C3,55.0,0.5,56,109.5
302,C4,55.0,0.5,56,109.5
303,D5,55.25,0.25,56,109.5
304,G4,55.5,0.25,71,109.5
305,B2,55.5,0.5,66,109.5
306,B3,55.5,0.5,66,109.5
307,D5,55.75,0.25,63,109.5
308,A4,56.0,0.25,73,109.5
309,A2,56.0,0.5,59,109.5
310,A3,56.0,0.5,59,109.5
311,D5,56.25,0.25,62,109.5
312,B4,56.5,0.25,78,109.5
313,G2,56.5,0.5,61,109.5
314,G3,56.5,0.5,61,109.5
315,D5,56.75,0.25,75,109.5
316,C5,57.0,0.25,80,109.5
317,F#2,57.0,1.0,68,109.5
318,F#3,57.0,1.0,68,109.5
319,D5,57.25,0.25,71,109.5
320,C5,57.5,0.25,75,109.5
321,D5,57.75,0.25,64,109.5
322,B4,58.0,0.25,72,109.5
323,G2,58.0,0.5,54,109.5
324,G3,58.0,0.5,54,109.5
325,D5,58.25,0.25,60,109.5
326,A4,58.5,0.25,70,109.5
327,D2,58.5,1.0,59,109.5
328,D3,58.5,1.0,59,109.5
329,D5,58.75,0.25,54,109.5
330,F#4,59.0,0.25,67,109.5
331,A4,59.25,0.25,50,109.5
332,D4,59.5,0.5,62,109.5
333,D5,60.0,0.5,50,109.5
334,G4,60.0,0.25,32,109.5
335,B4,60.25,0.25,28,109.5
336,G5,60.5,0.5,52,109.5
337,G4,60.5,0.25,32,109.5
338,B4,60.75,0.25,30,109.5
339,B5,61.0,0.5,54,109.5
340,G4,61.0,0.25,34,109.5
341,B4,61.25,0.25,31,109.5
342,D6,61.5,1.0,56,109.5
343,G4,61.5,0.25,36,109.5
344,B4,61.75,0.25,32,109.5
345,G4,62.0,0.25,36,109.5
346,B4,62.25,0.25,32,109.5
347,D5,62.5,0.5,50,109.5
348,G4,62.5,0.25,35,109.5
349,B4,62.75,0.25,30,109.5
350,E5,63.0,0.5,54,109.5
351,G4,63.0,0.25,36,109.5
352,C5,63.25,0.25,32,109.5
353,C6,63.5,0.5,50,109.5
354,G4,63.5,0.25,36,109.5
355,C5,63.75,0.25,32,109.5
356,E5,64.0,0.5,46,109.5
357,G4,64.0,0.25,39,109.5
358,C5,64.25,0.25,34,109.5
359,D5,64.5,0.5,46,109.5
360,G4,64.5,0.25,38,109.5
361,B4,64.75,0.25,27,109.5
362,G4,65.0,0.25,32,109.5
363,B4,65.25,0.25,25,109.5
364,G4,65.5,0.25,30,109.5
365,B4,65.75,0.25,25,109.5
366,C5,66.0,0.5,68,109.5
367,D4,66.0,0.25,47,109.5
368,A4,66.25,0.25,41,109.5
369,A5,66.5,0.5,60,109.5
370,D4,66.5,0.25,47,109.5
371,A4,66.75,0.25,41,109.5
372,C5,67.0,0.5,60,109.5
373,D4,67.0,0.25,47,109.5
374,A4,67.25,0.25,41,109.5
375,B4,67.5,0.25,70,109.5
376,G4,67.5,0.25,54,109.5
377,G5,67.75,0.25,59,109.5
378,C5,68.0,0.25,72,109.5
379,A4,68.0,0.25,49,109.5
380,G5,68.25,0.25,59,109.5
381,D5,68.5,0.25,71,109.5
382,B4,68.5,0.25,55,109.5
383,G5,68.75,0.25,60,109.5
384,C5,69.0,0.25,75,109.5
385,C4,69.0,1.0,60,109.5
386,E5,69.25,0.25,64,109.5
387,D5,69.5,0.25,70,109.5
388,C5,69.75,0.25,62,109.5
389,B4,70.0,0.25,66,109.5
390,D4,70.0,0.5,51,109.5
391,A4,70.25,0.25,59,109.5
392,G4,70.5,0.5,74,109.5
393,G3,70.5,0.5,57,109.5
394,D3,71.0,0.25,54,109.5
395,G2,71.5,0.5,55,109.5
