,note_name,start_time,duration,velocity,tempo
0,C5,1.5,0.25,60,135.41
1,C#5,1.75,0.25,55,135.41
2,E-5,2.0,0.188,60,135.41
3,E-5,2.5,0.188,61,135.41
4,E-5,3.0,0.188,63,135.41
5,G#5,3.5,0.188,69,135.41
6,E-5,4.0,1.5,61,135.41
7,C4,4.5,0.5,51,135.41
8,B-3,5.0,0.5,51,135.41
9,C#5,5.5,0.25,57,135.41
10,G#3,5.5,0.5,48,135.41
11,C5,5.75,0.25,54,135.41
12,B-4,6.0,1.0,60,135.41
13,G3,6.0,0.5,53,135.41
14,E-3,6.5,0.375,47,135.41
15,C5,7.0,1.0,59,135.41
16,G#3,7.0,0.5,49,135.41
17,E-3,7.5,0.375,45,135.41
18,E-5,8.0,0.5,59,135.41
19,B-3,8.0,0.5,49,135.41
20,C#5,8.5,0.125,51,135.41
21,E-3,8.5,0.375,45,135.41
22,E-5,8.625,0.125,46,135.41
23,C#5,8.75,0.25,51,135.41
24,C5,9.0,0.25,59,135.41
25,G#3,9.0,0.5,49,135.41
26,C5,9.5,0.25,60,135.41
27,C#5,9.75,0.25,55,135.41
28,E-5,10.0,0.188,60,135.41
29,E-5,10.5,0.188,59,135.41
30,E-5,11.0,0.188,64,135.41
31,G#5,11.5,0.188,66,135.41
32,E-5,12.0,1.5,61,135.41
33,C4,12.5,0.5,51,135.41
34,B-3,13.0,0.5,51,135.41
35,C#5,13.5,0.25,57,135.41
36,G#3,13.5,0.5,48,135.41
37,C5,13.75,0.25,54,135.41
38,B-4,14.0,0.5,60,135.41
39,C#4,14.0,0.5,53,135.41
40,C#5,14.5,0.375,51,135.41
41,B-3,14.5,0.375,47,135.41
42,G4,15.0,0.5,59,135.41
43,E-4,15.0,0.5,49,135.41
44,B-4,15.5,0.375,50,135.41
45,E-3,15.5,0.375,45,135.41
46,G#4,16.0,1.0,60,135.41
47,G#3,16.0,0.5,50,135.41
48,E-3,16.5,0.5,42,135.41
49,G#2,17.0,0.5,47,135.41
50,C5,17.5,0.25,60,135.41
51,C#5,17.75,0.25,55,135.41
52,E-5,18.0,0.188,60,135.41
53,E-5,18.5,0.188,58,135.41
54,E-5,19.0,0.188,64,135.41
55,G#5,19.5,0.188,66,135.41
56,E-5,20.0,1.5,61,135.41
57,C4,20.5,0.5,51,135.41
58,B-3,21.0,0.5,51,135.41
59,C#5,21.5,0.25,57,135.41
60,G#3,21.5,0.5,48,135.41
61,C5,21.75,0.25,54,135.41
62,B-4,22.0,1.0,60,135.41
63,G3,22.0,0.5,53,135.41
64,E-3,22.5,0.375,47,135.41
65,C5,23.0,1.0,59,135.41
66,G#3,23.0,0.5,49,135.41
67,E-3,23.5,0.375,45,135.41
68,E-5,24.0,0.5,59,135.41
69,B-3,24.0,0.5,49,135.41
70,C#5,24.5,0.125,51,135.41
71,E-3,24.5,0.375,45,135.41
72,E-5,24.625,0.125,46,135.41
73,C#5,24.75,0.25,51,135.41
74,C5,25.0,0.5,59,135.41
75,G#3,25.0,0.5,49,135.41
76,C5,25.5,0.25,60,135.41
77,C#5,25.75,0.25,55,135.41
78,E-5,26.0,0.188,60,135.41
79,E-5,26.5,0.188,61,135.41
80,E-5,27.0,0.188,61,135.41
81,G#5,27.5,0.188,66,135.41
82,E-5,28.0,1.5,61,135.41
83,C4,28.5,0.5,51,135.41
84,B-3,29.0,0.5,51,135.41
85,C#5,29.5,0.25,57,135.41
86,G#3,29.5,0.5,48,135.41
87,C5,29.75,0.25,54,135.41
88,B-4,30.0,0.5,60,135.41
89,C#4,30.0,0.5,53,135.41
90,C#5,30.5,0.375,51,135.41
91,B-3,30.5,0.375,47,135.41
92,G4,31.0,0.5,59,135.41
93,E-4,31.0,0.5,49,135.41
94,B-4,31.5,0.375,50,135.41
95,E-3,31.5,0.375,45,135.41
96,G#4,32.0,1.0,60,135.41
97,G#3,32.0,0.5,50,135.41
98,E-3,32.5,0.5,42,135.41
99,G#2,33.0,0.5,47,135.41
100,E-5,33.5,0.5,53,135.41
101,F5,34.0,0.5,59,135.41
102,E-5,34.5,0.5,56,135.41
103,D5,35.0,0.375,56,135.41
104,B5,35.5,0.5,59,135.41
105,D5,35.5,0.5,38,135.41
106,G#4,35.5,0.5,38,135.41
107,B-5,36.0,0.5,59,135.41
108,G4,36.0,497/500,42,135.41
109,E-5,36.0,497/500,42,135.41
110,G5,36.5,0.5,53,135.41
111,E-5,37.0,0.5,53,135.41
112,C5,37.5,0.375,59,135.41
113,E-5,37.875,0.125,53,135.41
114,C#5,38.0,0.5,61,135.41
115,C5,38.5,0.5,55,135.41
116,B4,39.0,0.375,55,135.41
117,G#5,39.5,0.5,59,135.41
118,B4,39.5,0.5,38,135.41
119,F4,39.5,0.5,38,135.41
120,G5,40.0,0.5,59,135.41
121,E-4,40.0,497/500,42,135.41
122,C5,40.0,497/500,42,135.41
123,E-5,40.5,0.5,53,135.41
124,C5,41.0,0.5,53,135.41
125,G#4,41.5,0.375,59,135.41
126,C5,41.875,0.125,53,135.41
127,B-4,42.0,0.5,61,135.41
128,G#4,42.5,0.5,53,135.41
129,G4,43.0,0.375,53,135.41
130,F5,43.5,0.5,59,135.41
131,G4,43.5,0.5,38,135.41
132,C#4,43.5,0.5,38,135.41
133,E-5,44.0,0.5,59,135.41
134,C4,44.0,249/250,42,135.41
135,G#4,44.0,249/250,42,135.41
136,C5,44.5,0.5,53,135.41
137,G#4,45.0,0.375,53,135.41
138,E-5,45.5,0.5,59,135.41
139,D5,46.0,0.5,59,135.41
140,B-3,46.0,1.0,42,135.41
141,G#4,46.0,1.0,42,135.41
142,F5,46.5,0.5,51,135.41
143,G#5,47.0,0.5,53,135.41
144,D5,47.5,0.5,50,135.41
145,E-5,48.0,0.5,59,135.41
146,E-4,48.0,1.0,42,135.41
147,G4,48.0,1.0,42,135.41
148,F5,48.5,167/1000,49,135.41
149,E-5,48.667,167/1000,47,135.41
150,D5,48.833,167/1000,47,135.41
151,E-5,49.0,0.188,59,135.41
152,E-5,49.5,0.188,56,135.41
153,D5,50.0,0.5,59,135.41
154,B-3,50.0,1.0,42,135.41
155,G#4,50.0,1.0,42,135.41
156,F5,50.5,0.5,48,135.41
157,G#5,51.0,0.5,51,135.41
158,D5,51.5,0.5,43,135.41
159,F5,52.0,0.5,53,135.41
160,E-5,52.5,0.25,47,135.41
161,E-2,52.5,0.5,26,135.41
162,C5,53.5,0.25,60,135.41
163,C#5,53.75,0.25,55,135.41
164,E-5,54.0,0.188,60,135.41
165,E-5,54.5,0.188,61,135.41
166,E-5,55.0,0.188,63,135.41
167,G#5,55.5,0.188,66,135.41
168,E-5,56.0,1.5,61,135.41
169,C4,56.5,0.5,51,135.41
170,B-3,57.0,0.5,51,135.41
171,C#5,57.5,0.25,57,135.41
172,G#3,57.5,0.5,48,135.41
173,C5,57.75,0.25,54,135.41
174,B-4,58.0,0.375,60,135.41
175,G3,58.0,0.5,53,135.41
176,B-4,58.5,0.5,53,135.41
177,E-3,58.5,0.375,47,135.41
178,C5,59.0,0.375,59,135.41
179,G#3,59.0,0.5,49,135.41
180,C5,59.5,0.375,53,135.41
181,E-3,59.5,0.375,45,135.41
182,E-5,60.0,0.5,59,135.41
183,B-3,60.0,0.5,49,135.41
184,C#5,60.5,0.125,51,135.41
185,E-3,60.5,0.375,45,135.41
186,E-5,60.625,0.125,46,135.41
187,C#5,60.75,0.25,51,135.41
188,C5,61.0,0.5,59,135.41
189,G#3,61.0,0.5,49,135.41
190,C5,61.5,0.25,60,135.41
191,C#5,61.75,0.25,55,135.41
192,E-5,62.0,0.188,60,135.41
193,E-5,62.5,0.188,57,135.41
194,E-5,63.0,0.188,59,135.41
195,G#5,63.5,0.188,66,135.41
196,E-5,64.0,1.5,61,135.41
197,C4,64.5,0.5,51,135.41
198,B-3,65.0,0.5,51,135.41
199,C#5,65.5,0.25,57,135.41
200,G#3,65.5,0.5,48,135.41
201,C5,65.75,0.25,54,135.41
202,B-4,66.0,0.25,62,135.41
203,C#4,66.0,0.5,53,135.41
204,C#5,66.25,0.25,43,135.41
205,B-4,66.5,0.25,55,135.41
206,B-3,66.5,0.375,47,135.41
207,C#5,66.75,0.25,43,135.41
208,G4,67.0,0.25,59,135.41
209,E-4,67.0,0.5,49,135.41
210,B-4,67.5,0.375,50,135.41
211,E-3,67.5,0.375,45,135.41
212,G#4,68.0,1.0,60,135.41
213,G#3,68.0,0.5,50,135.41
214,E-3,68.5,0.5,42,135.41
215,G#2,69.0,0.5,47,135.41
216,E-5,69.5,0.5,53,135.41
217,F5,70.0,0.5,59,135.41
218,E-5,70.5,0.5,56,135.41
219,D5,71.0,0.375,56,135.41
220,B5,71.5,0.5,59,135.41
221,D5,71.5,0.5,38,135.41
222,G#4,71.5,0.5,38,135.41
223,B-5,72.0,0.5,59,135.41
224,G4,72.0,497/500,42,135.41
225,E-5,72.0,497/500,42,135.41
226,G5,72.5,0.5,53,135.41
227,E-5,73.0,0.5,53,135.41
228,C5,73.5,0.375,59,135.41
229,E-5,73.875,0.125,53,135.41
230,C#5,74.0,0.5,61,135.41
231,C5,74.5,0.5,55,135.41
232,B4,75.0,0.375,55,135.41
233,G#5,75.5,0.5,59,135.41
234,B4,75.5,0.5,38,135.41
235,F4,75.5,0.5,38,135.41
236,G5,76.0,0.5,59,135.41
237,E-4,76.0,497/500,42,135.41
238,C5,76.0,497/500,42,135.41
239,E-5,76.5,0.5,53,135.41
240,C5,77.0,0.5,53,135.41
241,G#4,77.5,0.375,59,135.41
242,C5,77.875,0.125,53,135.41
243,B-4,78.0,0.5,61,135.41
244,G#4,78.5,0.5,53,135.41
245,G4,79.0,0.375,53,135.41
246,F5,79.5,0.5,59,135.41
247,G4,79.5,0.5,38,135.41
248,C#4,79.5,0.5,38,135.41
249,E-5,80.0,0.5,59,135.41
250,C4,80.0,249/250,42,135.41
251,G#4,80.0,249/250,42,135.41
252,C5,80.5,0.5,53,135.41
253,G#4,81.0,0.375,53,135.41
254,E-5,81.5,0.5,59,135.41
255,D5,82.0,0.5,59,135.41
256,B-3,82.0,1.0,42,135.41
257,G#4,82.0,1.0,42,135.41
258,F5,82.5,0.5,51,135.41
259,G#5,83.0,0.5,53,135.41
260,D5,83.5,0.5,50,135.41
261,E-5,84.0,0.5,59,135.41
262,E-4,84.0,1.0,42,135.41
263,G4,84.0,1.0,42,135.41
264,F5,84.5,167/1000,49,135.41
265,E-5,84.667,167/1000,47,135.41
266,D5,84.833,167/1000,47,135.41
267,E-5,85.0,0.188,59,135.41
268,E-5,85.5,0.188,56,135.41
269,D5,86.0,0.5,59,135.41
270,B-3,86.0,1.0,42,135.41
271,G#4,86.0,1.0,42,135.41
272,F5,86.5,0.5,48,135.41
273,G#5,87.0,0.5,51,135.41
274,D5,87.5,0.5,43,135.41
275,F5,88.0,0.5,53,135.41
276,E-5,88.5,0.25,47,135.41
277,E-2,88.5,0.5,26,135.41
278,C5,89.5,0.25,60,135.41
279,C#5,89.75,0.25,55,135.41
280,E-5,90.0,0.188,60,135.41
281,E-5,90.5,0.188,61,135.41
282,E-5,91.0,0.188,63,135.41
283,G#5,91.5,0.188,66,135.41
284,E-5,92.0,1.5,61,135.41
285,C4,92.5,0.5,51,135.41
286,B-3,93.0,0.5,51,135.41
287,C#5,93.5,0.25,57,135.41
288,G#3,93.5,0.5,48,135.41
289,C5,93.75,0.25,54,135.41
290,B-4,94.0,0.375,60,135.41
291,G3,94.0,0.5,53,135.41
292,B-4,94.5,0.5,53,135.41
293,E-3,94.5,0.375,47,135.41
294,C5,95.0,0.375,59,135.41
295,G#3,95.0,0.5,49,135.41
296,C5,95.5,0.375,53,135.41
297,E-3,95.5,0.375,45,135.41
298,E-5,96.0,0.5,59,135.41
299,B-3,96.0,0.5,49,135.41
300,C#5,96.5,0.125,51,135.41
301,E-3,96.5,0.375,45,135.41
302,E-5,96.625,0.125,46,135.41
303,C#5,96.75,0.25,51,135.41
304,C5,97.0,0.5,59,135.41
305,G#3,97.0,0.5,49,135.41
306,C5,97.5,0.25,60,135.41
307,C#5,97.75,0.25,55,135.41
308,E-5,98.0,0.188,60,135.41
309,E-5,98.5,0.188,57,135.41
310,E-5,99.0,0.188,59,135.41
311,G#5,99.5,0.188,66,135.41
312,E-5,100.0,1.5,61,135.41
313,C4,100.5,0.5,51,135.41
314,B-3,101.0,0.5,51,135.41
315,C#5,101.5,0.25,57,135.41
316,G#3,101.5,0.5,48,135.41
317,C5,101.75,0.25,54,135.41
318,B-4,102.0,0.25,62,135.41
319,C#4,102.0,0.5,53,135.41
320,C#5,102.25,0.25,43,135.41
321,B-4,102.5,0.25,55,135.41
322,B-3,102.5,0.375,47,135.41
323,C#5,102.75,0.25,43,135.41
324,G4,103.0,0.25,59,135.41
325,E-4,103.0,0.5,49,135.41
326,B-4,103.5,0.375,50,135.41
327,E-3,103.5,0.375,45,135.41
328,G#4,104.0,1.0,60,135.41
329,G#3,104.0,0.5,50,135.41
330,E-3,104.5,0.5,42,135.41
331,G#2,105.0,0.5,47,135.41
332,C4,105.5,0.25,57,135.41
333,C#4,105.75,0.25,52,135.41
334,E-4,106.0,0.188,57,135.41
335,E-4,106.5,0.188,57,135.41
336,E-4,107.0,0.188,59,135.41
337,G#4,107.5,0.188,65,135.41
338,E-4,108.0,1.5,57,135.41
339,C4,108.5,0.5,51,135.41
340,B-3,109.0,0.5,51,135.41
341,C5,109.5,0.5,59,135.41
342,G#3,109.5,0.5,48,135.41
343,B-4,110.0,0.5,70,135.41
344,G3,110.0,1.0,45,135.41
345,E-5,110.5,0.5,62,135.41
346,G5,111.0,0.5,68,135.41
347,G4,111.5,0.5,63,135.41
348,E-3,111.5,0.5,48,135.41
349,B-4,112.0,0.5,68,135.41
350,F3,112.0,0.5,45,135.41
351,G#4,112.5,0.5,59,135.41
352,G#3,112.5,0.5,51,135.41
353,D4,113.0,0.5,48,135.41
354,F4,113.5,0.5,59,135.41
355,D3,113.5,0.5,48,135.41
356,G4,114.0,0.5,70,135.41
357,E-3,114.0,0.5,45,135.41
358,B-4,114.5,0.5,62,135.41
359,G2,114.5,0.5,51,135.41
360,C5,115.0,0.5,70,135.41
361,G#2,115.0,0.5,51,135.41
362,E-4,115.5,0.375,66,135.41
363,A2,115.5,0.5,48,135.41
364,E-4,116.0,0.5,72,135.41
365,B-2,116.0,1.0,45,135.41
366,D4,116.5,0.5,62,135.41
367,B-4,117.5,0.5,59,135.41
368,G4,117.5,0.5,48,135.41
369,G#4,118.0,0.25,70,135.41
370,F4,118.0,0.5,45,135.41
371,B-4,118.25,0.25,63,135.41
372,G4,118.5,0.25,70,135.41
373,E-4,118.5,0.5,51,135.41
374,B-4,118.75,0.25,62,135.41
375,F4,119.0,0.5,70,135.41
376,D4,119.0,0.5,51,135.41
377,D5,119.5,0.5,75,135.41
378,G#3,119.5,0.25,56,135.41
379,B-3,119.75,0.25,48,135.41
380,E-5,120.0,0.5,81,135.41
381,G3,120.0,0.25,60,135.41
382,B-3,120.25,0.25,48,135.41
383,F5,120.5,0.5,77,135.41
384,F3,120.5,0.25,58,135.41
385,B-3,120.75,0.25,53,135.41
386,G5,121.0,0.5,82,135.41
387,E-3,121.0,0.5,59,135.41
388,B-4,121.5,0.5,75,135.41
389,G4,121.5,0.5,55,135.41
390,G#4,122.0,0.25,70,135.41
391,F4,122.0,0.5,45,135.41
392,B-4,122.25,0.25,63,135.41
393,G4,122.5,0.25,70,135.41
394,E-4,122.5,0.5,51,135.41
395,B-4,122.75,0.25,62,135.41
396,F4,123.0,0.5,70,135.41
397,D4,123.0,0.5,51,135.41
398,D5,123.5,0.5,75,135.41
399,G#3,123.5,0.25,56,135.41
400,B-3,123.75,0.25,48,135.41
401,E-5,124.0,0.5,81,135.41
402,G3,124.0,0.25,60,135.41
403,B-3,124.25,0.25,48,135.41
404,F5,124.5,0.5,77,135.41
405,F3,124.5,0.25,58,135.41
406,B-3,124.75,0.25,53,135.41
407,G5,125.0,0.5,82,135.41
408,E-3,125.0,0.5,59,135.41
409,G5,125.5,0.25,75,135.41
410,E-4,125.5,0.25,51,135.41
411,G#5,125.75,0.25,73,135.41
412,F4,125.75,0.25,49,135.41
413,B-5,126.0,0.25,81,135.41
414,G4,126.0,0.25,54,135.41
415,G5,126.5,0.25,72,135.41
416,E-4,126.5,0.25,48,135.41
417,G#5,126.75,0.25,69,135.41
418,F4,126.75,0.25,46,135.41
419,B-5,127.0,0.25,80,135.41
420,G4,127.0,0.25,54,135.41
421,G5,127.5,0.25,73,135.41
422,E-4,127.5,0.25,49,135.41
423,G#5,127.75,0.25,69,135.41
424,F4,127.75,0.25,46,135.41
425,B-5,128.0,1.0,78,135.41
426,G4,128.0,1.0,52,135.41
427,E-5,129.5,0.25,60,135.41
428,G4,129.5,0.25,40,135.41
429,F5,129.75,0.25,58,135.41
430,G#4,129.75,0.25,39,135.41
431,G5,130.0,0.25,64,135.41
432,B-4,130.0,0.25,43,135.41
433,E-5,130.5,0.25,57,135.41
434,G4,130.5,0.25,38,135.41
435,F5,130.75,0.25,55,135.41
436,G#4,130.75,0.25,36,135.41
437,G5,131.0,0.25,64,135.41
438,B-4,131.0,0.25,43,135.41
439,E-5,131.5,0.25,58,135.41
440,G4,131.5,0.25,39,135.41
441,F5,131.75,0.25,55,135.41
442,G#4,131.75,0.25,36,135.41
443,G5,132.0,1.0,62,135.41
444,B-4,132.0,1.0,41,135.41
445,G5,133.5,0.25,75,135.41
446,E-4,133.5,0.25,51,135.41
447,G#5,133.75,0.25,73,135.41
448,F4,133.75,0.25,49,135.41
449,B-5,134.0,0.25,81,135.41
450,G4,134.0,0.25,54,135.41
451,G5,134.5,0.25,72,135.41
452,E-4,134.5,0.25,48,135.41
453,G#5,134.75,0.25,69,135.41
454,F4,134.75,0.25,46,135.41
455,B-5,135.0,0.25,80,135.41
456,G4,135.0,0.25,54,135.41
457,G5,135.5,0.25,73,135.41
458,E-4,135.5,0.25,49,135.41
459,G#5,135.75,0.25,69,135.41
460,F4,135.75,0.25,46,135.41
461,B-5,136.0,0.5,78,135.41
462,G4,136.0,1.0,52,135.41
463,C6,136.5,0.25,72,135.41
464,B-5,136.75,0.25,65,135.41
465,G#5,137.0,0.25,69,135.41
466,G5,137.25,0.25,64,135.41
467,F5,137.5,0.25,62,135.41
468,G3,137.5,0.5,49,135.41
469,E-5,137.75,0.25,61,135.41
470,F5,138.0,0.5,78,135.41
471,G#3,138.0,1.0,52,135.41
472,B-5,138.5,0.25,72,135.41
473,G#5,138.75,0.25,65,135.41
474,G5,139.0,0.25,69,135.41
475,F5,139.25,0.25,64,135.41
476,E-5,139.5,0.25,62,135.41
477,B-3,139.5,0.5,49,135.41
478,D5,139.75,0.25,61,135.41
479,E-5,140.0,0.5,77,135.41
480,C4,140.0,1.0,52,135.41
481,C6,140.5,0.25,72,135.41
482,B-5,140.75,0.25,65,135.41
483,G#5,141.0,0.25,69,135.41
484,G5,141.25,0.25,64,135.41
485,F5,141.5,0.25,62,135.41
486,G3,141.5,0.5,49,135.41
487,E-5,141.75,0.25,65,135.41
488,F5,142.0,0.5,73,135.41
489,G#3,142.0,1.0,52,135.41
490,B-5,142.5,0.25,64,135.41
491,G#5,142.75,0.25,58,135.41
492,G5,143.0,0.25,62,135.41
493,F5,143.25,0.25,57,135.41
494,E-5,143.5,0.25,56,135.41
495,B-3,143.5,0.5,37,135.41
496,D5,143.75,0.25,55,135.41
497,E-5,144.0,2.0,69,135.41
498,E-4,144.0,0.5,44,135.41
499,G4,144.5,0.5,39,135.41
500,B-4,145.0,0.5,43,135.41
501,G4,145.5,0.5,38,135.41
502,E-5,146.0,0.5,69,135.41
503,E-4,146.0,2.0,44,135.41
504,G5,146.5,0.5,57,135.41
505,B-5,147.0,0.5,63,135.41
506,E-5,147.5,0.5,56,135.41
507,D5,148.0,2.0,69,135.41
508,F4,148.0,0.5,44,135.41
509,E-4,148.0,2.0,44,135.41
510,G#4,148.5,0.5,39,135.41
511,B-4,149.0,0.5,43,135.41
512,G#4,149.5,0.5,38,135.41
513,D5,150.0,0.5,69,135.41
514,F4,150.0,2.0,44,135.41
515,E-4,150.0,2.0,44,135.41
516,F5,150.5,0.5,57,135.41
517,G#5,151.0,0.5,63,135.41
518,D5,151.5,0.5,56,135.41
519,E-5,152.0,2.0,69,135.41
520,E-4,152.0,0.5,44,135.41
521,G4,152.5,0.5,39,135.41
522,B-4,153.0,0.5,43,135.41
523,G4,153.5,0.5,38,135.41
524,E-5,154.0,0.5,69,135.41
525,E-4,154.0,2.0,44,135.41
526,G5,154.5,0.5,57,135.41
527,B-5,155.0,0.5,63,135.41
528,E-5,155.5,0.5,56,135.41
529,D5,156.0,2.0,69,135.41
530,F4,156.0,0.5,44,135.41
531,E-4,156.0,2.0,44,135.41
532,G#4,156.5,0.5,39,135.41
533,B-4,157.0,0.5,43,135.41
534,G#4,157.5,0.5,38,135.41
535,D5,158.0,0.5,69,135.41
536,F4,158.0,2.0,53,135.41
537,E-4,158.0,2.0,44,135.41
538,F5,158.5,0.5,62,135.41
539,G#5,159.0,0.5,69,135.41
540,D5,159.5,0.5,70,135.41
541,C#5,160.0,2.0,81,135.41
542,E-4,160.0,199/100,54,135.41
543,G4,160.5,979/1000,46,135.41
544,B-4,161.0,1.0,55,135.41
545,G4,161.5,0.5,51,135.41
546,C#5,162.0,2.0,81,135.41
547,E-4,162.0,2.0,60,135.41
548,B-4,162.0,2.0,55,135.41
549,G4,162.0,2.0,51,135.41
550,G5,162.5,0.5,65,135.41
551,B-5,163.0,0.5,70,135.41
552,G5,163.5,0.5,65,135.41
553,C#6,164.0,1.0,74,135.41
554,C#5,164.0,1.0,81,135.41
555,E-4,164.0,1.0,60,135.41
556,B-4,164.0,1.0,55,135.41
557,G4,164.0,1.0,51,135.41
558,C5,165.5,0.25,60,135.41
559,C#5,165.75,0.25,55,135.41
560,E-5,166.0,0.188,60,135.41
561,E-5,166.5,0.188,61,135.41
562,E-5,167.0,0.188,63,135.41
563,G#5,167.5,0.188,69,135.41
564,E-5,168.0,1.5,61,135.41
565,C4,168.5,0.5,51,135.41
566,B-3,169.0,0.5,51,135.41
567,C#5,169.5,0.25,57,135.41
568,G#3,169.5,0.5,48,135.41
569,C5,169.75,0.25,54,135.41
570,B-4,170.0,0.375,60,135.41
571,G3,170.0,0.5,53,135.41
572,B-4,170.5,0.5,53,135.41
573,E-3,170.5,0.375,47,135.41
574,C5,171.0,0.375,59,135.41
575,G#3,171.0,0.5,49,135.41
576,C5,171.5,0.375,53,135.41
577,E-3,171.5,0.375,45,135.41
578,E-5,172.0,0.5,59,135.41
579,B-3,172.0,0.5,49,135.41
580,C#5,172.5,0.125,51,135.41
581,E-3,172.5,0.375,45,135.41
582,E-5,172.625,0.125,46,135.41
583,C#5,172.75,0.25,51,135.41
584,C5,173.0,0.5,59,135.41
585,G#3,173.0,0.5,49,135.41
586,C5,173.5,0.25,60,135.41
587,C#5,173.75,0.25,55,135.41
588,E-5,174.0,0.188,60,135.41
589,E-5,174.5,0.188,59,135.41
590,E-5,175.0,0.188,64,135.41
591,G#5,175.5,0.188,66,135.41
592,E-5,176.0,1.5,61,135.41
593,C4,176.5,0.5,51,135.41
594,B-3,177.0,0.5,51,135.41
595,C#5,177.5,0.25,57,135.41
596,G#3,177.5,0.5,48,135.41
597,C5,177.75,0.25,54,135.41
598,B-4,178.0,0.5,60,135.41
599,C#4,178.0,0.5,53,135.41
600,C#5,178.5,0.375,51,135.41
601,B-3,178.5,0.375,47,135.41
602,G4,179.0,0.5,59,135.41
603,E-4,179.0,0.5,49,135.41
604,B-4,179.5,0.375,50,135.41
605,E-3,179.5,0.375,45,135.41
606,G#4,180.0,1.0,60,135.41
607,G#3,180.0,0.5,50,135.41
608,E-3,180.5,0.5,42,135.41
609,G#2,181.0,0.5,47,135.41
610,C5,181.5,0.25,60,135.41
611,C#5,181.75,0.25,55,135.41
612,E-5,182.0,0.188,60,135.41
613,G#5,182.5,0.25,61,135.41
614,C6,182.75,0.25,56,135.41
615,B-5,183.0,0.25,63,135.41
616,G#5,183.25,0.25,63,135.41
617,G5,183.5,0.25,59,135.41
618,F5,183.75,0.25,61,135.41
619,E-5,184.0,1.5,61,135.41
620,C4,184.5,0.5,51,135.41
621,B-3,185.0,0.5,51,135.41
622,C#5,185.5,0.25,57,135.41
623,G#3,185.5,0.5,48,135.41
624,C5,185.75,0.25,54,135.41
625,B-4,186.0,0.25,60,135.41
626,G3,186.0,0.5,53,135.41
627,E-5,186.25,0.25,50,135.41
628,B-4,186.5,0.25,56,135.41
629,E-3,186.5,0.375,47,135.41
630,E-5,186.75,0.25,50,135.41
631,C5,187.0,0.25,56,135.41
632,G#3,187.0,0.5,49,135.41
633,E-5,187.25,0.25,47,135.41
634,C5,187.5,0.25,54,135.41
635,E-3,187.5,0.375,45,135.41
636,E-5,187.75,0.188,48,135.41
637,E-5,188.0,0.5,59,135.41
638,B-3,188.0,0.5,49,135.41
639,C#5,188.5,0.125,51,135.41
640,E-3,188.5,0.375,45,135.41
641,E-5,188.625,0.125,46,135.41
642,C#5,188.75,0.25,51,135.41
643,C5,189.0,0.5,59,135.41
644,G#3,189.0,0.5,49,135.41
645,C5,189.5,0.25,60,135.41
646,C#5,189.75,0.25,55,135.41
647,E-5,190.0,0.188,60,135.41
648,G#5,190.5,0.25,61,135.41
649,C6,190.75,0.25,56,135.41
650,B-5,191.0,0.25,63,135.41
651,G#5,191.25,0.25,63,135.41
652,G5,191.5,0.25,59,135.41
653,F5,191.75,0.25,61,135.41
654,E-5,192.0,1.5,61,135.41
655,C4,192.5,0.5,51,135.41
656,B-3,193.0,0.5,51,135.41
657,C#5,193.5,0.25,57,135.41
658,G#3,193.5,0.5,48,135.41
659,C5,193.75,0.25,54,135.41
660,B-4,194.0,0.25,60,135.41
661,C#4,194.0,0.5,53,135.41
662,C#5,194.25,0.25,50,135.41
663,B-4,194.5,0.25,56,135.41
664,B-3,194.5,0.375,47,135.41
665,C#5,194.75,0.25,50,135.41
666,G4,195.0,0.25,56,135.41
667,E-4,195.0,0.5,49,135.41
668,B-4,195.5,0.375,54,135.41
669,E-3,195.5,0.375,45,135.41
670,G#4,196.0,1.0,60,135.41
671,G#3,196.0,0.5,50,135.41
672,E-3,196.5,0.5,42,135.41
673,G#2,197.0,0.5,47,135.41
674,E-5,197.5,0.5,53,135.41
675,F5,198.0,0.25,59,135.41
676,G#5,198.25,0.25,53,135.41
677,F5,198.5,0.25,55,135.41
678,E-5,198.75,0.25,51,135.41
679,D5,199.0,0.375,56,135.41
680,B5,199.5,0.5,59,135.41
681,G#4,199.5,0.5,38,135.41
682,D5,199.5,0.5,38,135.41
683,E-5,200.0,0.5,42,135.41
684,G4,200.0,0.5,42,135.41
685,B-5,200.5,0.25,59,135.41
686,G5,200.75,0.25,53,135.41
687,E-5,201.0,0.5,53,135.41
688,C5,201.5,0.5,59,135.41
689,C#5,202.0,0.25,59,135.41
690,F5,202.25,0.25,53,135.41
691,C#5,202.5,0.25,55,135.41
692,C5,202.75,0.25,51,135.41
693,B4,203.0,0.375,55,135.41
694,G#5,203.5,0.5,59,135.41
695,F4,203.5,0.5,38,135.41
696,B4,203.5,0.5,38,135.41
697,E-4,204.0,249/500,42,135.41
698,C5,204.0,249/500,42,135.41
699,G5,204.5,0.25,59,135.41
700,E-5,204.75,0.25,53,135.41
701,C5,205.0,0.5,53,135.41
702,G#4,205.5,0.5,59,135.41
703,B-4,206.0,0.25,59,135.41
704,C#5,206.25,0.25,53,135.41
705,B-4,206.5,0.25,55,135.41
706,G#4,206.75,0.25,51,135.41
707,G4,207.0,0.375,53,135.41
708,F5,207.5,0.5,59,135.41
709,G4,207.5,0.5,38,135.41
710,C#4,207.5,0.5,38,135.41
711,C4,208.0,0.5,42,135.41
712,G#4,208.0,0.5,42,135.41
713,E-5,208.5,0.25,59,135.41
714,C5,208.75,0.25,53,135.41
715,G#4,209.0,0.5,53,135.41
716,E-5,209.5,0.5,59,135.41
717,B-3,210.0,1.0,42,135.41
718,G#4,210.0,1.0,42,135.41
719,D5,210.5,0.25,59,135.41
720,F5,210.75,0.25,51,135.41
721,G#5,211.0,0.5,53,135.41
722,D5,211.5,0.5,50,135.41
723,G4,212.0,1.0,42,135.41
724,E-4,212.0,1.0,42,135.41
725,E-5,212.5,0.25,59,135.41
726,G5,212.75,0.25,49,135.41
727,B-5,213.0,0.5,59,135.41
728,E-5,213.5,0.5,56,135.41
729,B-3,214.0,1.0,42,135.41
730,G#4,214.0,1.0,42,135.41
731,D5,214.5,0.25,59,135.41
732,F5,214.75,0.25,48,135.41
733,G#5,215.0,0.5,51,135.41
734,D5,215.5,0.5,43,135.41
735,F5,216.0,0.5,53,135.41
736,E-5,216.5,0.25,47,135.41
737,E-2,216.5,0.5,26,135.41
738,C5,217.5,0.25,60,135.41
739,C#5,217.75,0.25,55,135.41
740,E-5,218.0,0.188,60,135.41
741,G#5,218.5,0.25,61,135.41
742,C6,218.75,0.25,56,135.41
743,B-5,219.0,0.25,63,135.41
744,G#5,219.25,0.25,63,135.41
745,G5,219.5,0.25,59,135.41
746,F5,219.75,0.25,61,135.41
747,E-5,220.0,1.5,61,135.41
748,C4,220.5,0.5,51,135.41
749,B-3,221.0,0.5,51,135.41
750,C#5,221.5,0.25,57,135.41
751,G#3,221.5,0.5,48,135.41
752,C5,221.75,0.25,54,135.41
753,B-4,222.0,0.25,60,135.41
754,G3,222.0,0.5,53,135.41
755,E-5,222.25,0.25,50,135.41
756,B-4,222.5,0.25,56,135.41
757,E-3,222.5,0.375,47,135.41
758,E-5,222.75,0.25,50,135.41
759,C5,223.0,0.25,56,135.41
760,G#3,223.0,0.5,49,135.41
761,E-5,223.25,0.25,47,135.41
762,C5,223.5,0.25,54,135.41
763,E-3,223.5,0.375,45,135.41
764,E-5,223.75,0.188,48,135.41
765,E-5,224.0,0.5,59,135.41
766,B-3,224.0,0.5,49,135.41
767,C#5,224.5,0.125,51,135.41
768,E-3,224.5,0.375,45,135.41
769,E-5,224.625,0.125,46,135.41
770,C#5,224.75,0.25,51,135.41
771,C5,225.0,0.5,59,135.41
772,G#3,225.0,0.5,49,135.41
773,C5,225.5,0.25,60,135.41
774,C#5,225.75,0.25,55,135.41
775,E-5,226.0,0.188,60,135.41
776,C6,226.5,0.25,61,135.41
777,G#5,226.75,0.25,56,135.41
778,B-5,227.0,0.25,63,135.41
779,G5,227.25,0.25,63,135.41
780,G#5,227.5,0.25,59,135.41
781,F5,227.75,0.25,61,135.41
782,E-5,228.0,1.5,61,135.41
783,C4,228.5,0.5,51,135.41
784,B-3,229.0,0.5,51,135.41
785,C#5,229.5,0.25,57,135.41
786,G#3,229.5,0.5,48,135.41
787,C5,229.75,0.25,54,135.41
788,B-4,230.0,0.25,60,135.41
789,C#4,230.0,0.5,53,135.41
790,C#5,230.25,0.25,50,135.41
791,B-4,230.5,0.25,56,135.41
792,B-3,230.5,0.375,47,135.41
793,C#5,230.75,0.25,50,135.41
794,G4,231.0,0.25,56,135.41
795,E-4,231.0,0.5,49,135.41
796,B-4,231.5,0.375,54,135.41
797,E-3,231.5,0.375,45,135.41
798,G#4,232.0,1.0,60,135.41
799,G#3,232.0,0.5,50,135.41
800,E-3,232.5,0.5,42,135.41
801,G#2,233.0,0.5,47,135.41
802,E-5,233.5,0.5,53,135.41
803,F5,234.0,0.25,59,135.41
804,G#5,234.25,0.25,53,135.41
805,F5,234.5,0.25,55,135.41
806,E-5,234.75,0.25,51,135.41
807,D5,235.0,0.375,56,135.41
808,B5,235.5,0.5,59,135.41
809,D5,235.5,0.5,38,135.41
810,G#4,235.5,0.5,38,135.41
811,G4,236.0,249/500,42,135.41
812,E-5,236.0,249/500,42,135.41
813,B-5,236.5,0.25,59,135.41
814,G5,236.75,0.25,53,135.41
815,E-5,237.0,0.5,53,135.41
816,C5,237.5,0.5,59,135.41
817,C#5,238.0,0.25,59,135.41
818,F5,238.25,0.25,53,135.41
819,C#5,238.5,0.25,55,135.41
820,C5,238.75,0.25,51,135.41
821,B4,239.0,0.375,55,135.41
822,G#5,239.5,0.5,59,135.41
823,B4,239.5,0.5,38,135.41
824,F4,239.5,0.5,38,135.41
825,E-4,240.0,249/500,42,135.41
826,C5,240.0,249/500,42,135.41
827,G5,240.5,0.25,59,135.41
828,E-5,240.75,0.25,53,135.41
829,C5,241.0,0.5,53,135.41
830,G#4,241.5,0.5,59,135.41
831,B-4,242.0,0.25,59,135.41
832,C#5,242.25,0.25,53,135.41
833,B-4,242.5,0.25,55,135.41
834,G#4,242.75,0.25,51,135.41
835,G4,243.0,0.375,53,135.41
836,F5,243.5,0.5,59,135.41
837,G4,243.5,0.5,38,135.41
838,C#4,243.5,0.5,38,135.41
839,C4,244.0,249/500,42,135.41
840,G#4,244.0,249/500,42,135.41
841,E-5,244.5,0.25,59,135.41
842,C5,244.75,0.25,53,135.41
843,G#4,245.0,0.5,53,135.41
844,E-5,245.5,0.5,59,135.41
845,B-3,246.0,1.0,42,135.41
846,G#4,246.0,1.0,42,135.41
847,D5,246.5,0.25,59,135.41
848,F5,246.75,0.25,51,135.41
849,G#5,247.0,0.5,53,135.41
850,D5,247.5,0.5,50,135.41
851,E-4,248.0,1.0,42,135.41
852,G4,248.0,1.0,42,135.41
853,E-5,248.5,0.25,59,135.41
854,G5,248.75,0.25,49,135.41
855,B-5,249.0,0.5,59,135.41
856,E-5,249.5,0.5,56,135.41
857,B-3,250.0,1.0,42,135.41
858,G#4,250.0,1.0,42,135.41
859,D5,250.5,0.25,59,135.41
860,F5,250.75,0.25,48,135.41
861,G#5,251.0,0.5,51,135.41
862,D5,251.5,0.5,43,135.41
863,F5,252.0,0.5,53,135.41
864,E-5,252.5,0.25,47,135.41
865,E-2,252.5,0.5,26,135.41
866,C5,253.5,0.25,60,135.41
867,C#5,253.75,0.25,55,135.41
868,E-5,254.0,0.188,60,135.41
869,G#5,254.5,0.25,61,135.41
870,C6,254.75,0.25,56,135.41
871,B-5,255.0,0.25,63,135.41
872,G#5,255.25,0.25,63,135.41
873,G5,255.5,0.25,59,135.41
874,F5,255.75,0.25,61,135.41
875,E-5,256.0,1.5,61,135.41
876,C4,256.5,0.5,51,135.41
877,B-3,257.0,0.5,51,135.41
878,C#5,257.5,0.25,57,135.41
879,G#3,257.5,0.5,48,135.41
880,C5,257.75,0.25,54,135.41
881,B-4,258.0,0.25,60,135.41
882,G3,258.0,0.5,53,135.41
883,E-5,258.25,0.25,50,135.41
884,B-4,258.5,0.25,56,135.41
885,E-3,258.5,0.375,47,135.41
886,E-5,258.75,0.25,50,135.41
887,C5,259.0,0.25,56,135.41
888,G#3,259.0,0.5,49,135.41
889,E-5,259.25,0.25,47,135.41
890,C5,259.5,0.25,54,135.41
891,E-3,259.5,0.375,45,135.41
892,E-5,259.75,0.188,48,135.41
893,E-5,260.0,0.5,59,135.41
894,B-3,260.0,0.5,49,135.41
895,C#5,260.5,0.125,51,135.41
896,E-3,260.5,0.375,45,135.41
897,E-5,260.625,0.125,46,135.41
898,C#5,260.75,0.25,51,135.41
899,C5,261.0,0.5,59,135.41
900,G#3,261.0,0.5,49,135.41
901,C5,261.5,0.25,60,135.41
902,C#5,261.75,0.25,55,135.41
903,E-5,262.0,0.188,60,135.41
904,C6,262.5,0.25,61,135.41
905,G#5,262.75,0.25,56,135.41
906,B-5,263.0,0.25,63,135.41
907,G5,263.25,0.25,63,135.41
908,G#5,263.5,0.25,59,135.41
909,F5,263.75,0.25,61,135.41
910,E-5,264.0,1.5,61,135.41
911,C4,264.5,0.5,51,135.41
912,B-3,265.0,0.5,51,135.41
913,C#5,265.5,0.25,57,135.41
914,G#3,265.5,0.5,48,135.41
915,C5,265.75,0.25,54,135.41
916,B-4,266.0,0.25,60,135.41
917,C#4,266.0,0.5,53,135.41
918,C#5,266.25,0.25,50,135.41
919,B-4,266.5,0.25,56,135.41
920,B-3,266.5,0.375,47,135.41
921,C#5,266.75,0.25,50,135.41
922,G4,267.0,0.25,56,135.41
923,E-4,267.0,0.5,49,135.41
924,B-4,267.5,0.375,54,135.41
925,E-3,267.5,0.375,45,135.41
926,G#4,268.0,1.0,60,135.41
927,G#3,268.0,0.5,50,135.41
928,E-3,268.5,0.5,42,135.41
929,G#2,269.0,0.5,47,135.41
930,C5,269.5,0.5,53,135.41
931,F5,270.0,0.25,60,135.41
932,G#4,270.0,0.5,53,135.41
933,C5,270.25,0.25,50,135.41
934,E5,270.5,0.25,56,135.41
935,G4,270.5,0.375,47,135.41
936,C5,270.75,0.25,50,135.41
937,F5,271.0,0.25,56,135.41
938,G#4,271.0,0.5,49,135.41
939,C5,271.25,0.25,47,135.41
940,G#5,271.5,0.25,54,135.41
941,F4,271.5,0.375,45,135.41
942,C5,271.75,0.188,48,135.41
943,G5,272.0,0.25,60,135.41
944,E4,272.0,1.0,53,135.41
945,C5,272.25,0.25,50,135.41
946,B5,272.5,0.25,56,135.41
947,C5,272.75,0.25,50,135.41
948,C6,273.0,0.25,56,135.41
949,C5,273.25,0.25,47,135.41
950,B-5,273.5,0.25,54,135.41
951,C5,273.75,0.188,48,135.41
952,G#5,274.0,0.25,60,135.41
953,F4,274.0,0.5,53,135.41
954,C5,274.25,0.25,50,135.41
955,G5,274.5,0.25,56,135.41
956,G4,274.5,0.5,47,135.41
957,C5,274.75,0.25,50,135.41
958,F5,275.0,0.25,56,135.41
959,G#4,275.0,0.5,49,135.41
960,C5,275.25,0.25,47,135.41
961,G5,275.5,0.25,54,135.41
962,C5,275.75,0.188,48,135.41
963,E5,276.0,0.25,60,135.41
964,C4,276.0,0.5,53,135.41
965,C5,276.25,0.25,50,135.41
966,F5,276.5,0.25,58,135.41
967,D4,276.5,0.5,47,135.41
968,C5,276.75,0.25,52,135.41
969,G5,277.0,0.5,56,135.41
970,E4,277.0,0.5,49,135.41
971,C5,277.5,0.25,68,135.41
972,C6,277.75,0.188,55,135.41
973,C#5,278.0,0.25,70,135.41
974,C#6,278.25,0.25,58,135.41
975,C5,278.5,0.25,69,135.41
976,C6,278.75,0.25,60,135.41
977,B-4,279.0,0.25,70,135.41
978,B-5,279.25,0.25,59,135.41
979,G#4,279.5,0.25,69,135.41
980,G#5,279.75,0.25,61,135.41
981,G4,280.0,0.25,74,135.41
982,E3,280.0,2.0,46,135.41
983,G3,280.0,2.0,46,135.41
984,C4,280.0,2.0,46,135.41
985,G5,280.25,0.25,64,135.41
986,B4,280.5,0.25,75,135.41
987,B5,280.75,0.25,64,135.41
988,C5,281.0,0.25,75,135.41
989,C6,281.25,0.25,64,135.41
990,B-4,281.5,0.25,75,135.41
991,B-5,281.75,0.25,64,135.41
992,G#4,282.0,0.25,75,135.41
993,F3,282.0,1.0,49,135.41
994,C4,282.0,1.0,49,135.41
995,G#5,282.25,0.25,64,135.41
996,F4,282.5,0.25,72,135.41
997,F5,282.75,0.25,64,135.41
998,G4,283.0,0.25,74,135.41
999,C4,283.0,1.0,42,135.41
1000,C3,283.0,1.0,42,135.41
1001,G5,283.25,0.25,64,135.41
1002,E4,283.5,0.25,71,135.41
1003,E5,283.75,0.125,64,135.41
1004,F4,283.875,0.125,60,135.41
1005,F5,284.0,1.0,80,135.41
1006,F2,284.0,1.0,49,135.41
1007,F3,284.0,1.0,49,135.41
1008,C5,285.5,0.5,53,135.41
1009,F5,286.0,0.25,60,135.41
1010,G#4,286.0,0.5,53,135.41
1011,C5,286.25,0.25,50,135.41
1012,E5,286.5,0.25,56,135.41
1013,G4,286.5,0.375,47,135.41
1014,C5,286.75,0.25,50,135.41
1015,F5,287.0,0.25,56,135.41
1016,G#4,287.0,0.5,49,135.41
1017,C5,287.25,0.25,47,135.41
1018,G#5,287.5,0.25,54,135.41
1019,F4,287.5,0.375,45,135.41
1020,C5,287.75,0.188,48,135.41
1021,G5,288.0,0.25,60,135.41
1022,E4,288.0,1.0,53,135.41
1023,C5,288.25,0.25,50,135.41
1024,B5,288.5,0.25,56,135.41
1025,C5,288.75,0.25,50,135.41
1026,C6,289.0,0.25,56,135.41
1027,C5,289.25,0.25,47,135.41
1028,B-5,289.5,0.25,54,135.41
1029,C5,289.75,0.188,48,135.41
1030,G#5,290.0,0.25,60,135.41
1031,F4,290.0,0.5,53,135.41
1032,C5,290.25,0.25,50,135.41
1033,G5,290.5,0.25,56,135.41
1034,G4,290.5,0.5,47,135.41
1035,C5,290.75,0.25,50,135.41
1036,F5,291.0,0.25,56,135.41
1037,G#4,291.0,0.5,49,135.41
1038,C5,291.25,0.25,47,135.41
1039,G5,291.5,0.25,54,135.41
1040,C5,291.75,0.188,48,135.41
1041,E5,292.0,0.25,60,135.41
1042,C4,292.0,0.5,53,135.41
1043,C5,292.25,0.25,50,135.41
1044,F5,292.5,0.25,58,135.41
1045,D4,292.5,0.5,47,135.41
1046,C5,292.75,0.25,52,135.41
1047,G5,293.0,0.5,56,135.41
1048,E4,293.0,0.5,49,135.41
1049,C5,293.5,0.25,68,135.41
1050,C6,293.75,0.188,55,135.41
1051,C#5,294.0,0.25,70,135.41
1052,C#6,294.25,0.25,58,135.41
1053,C5,294.5,0.25,69,135.41
1054,C6,294.75,0.25,60,135.41
1055,B-4,295.0,0.25,70,135.41
1056,B-5,295.25,0.25,59,135.41
1057,G#4,295.5,0.25,69,135.41
1058,G#5,295.75,0.25,61,135.41
1059,G4,296.0,0.25,74,135.41
1060,E3,296.0,2.0,46,135.41
1061,G3,296.0,2.0,46,135.41
1062,C4,296.0,2.0,46,135.41
1063,G5,296.25,0.25,64,135.41
1064,B4,296.5,0.25,75,135.41
1065,B5,296.75,0.25,64,135.41
1066,C5,297.0,0.25,75,135.41
1067,C6,297.25,0.25,64,135.41
1068,B-4,297.5,0.25,75,135.41
1069,B-5,297.75,0.25,64,135.41
1070,G#4,298.0,0.25,75,135.41
1071,F3,298.0,1.0,49,135.41
1072,C4,298.0,1.0,49,135.41
1073,G#5,298.25,0.25,64,135.41
1074,F4,298.5,0.25,72,135.41
1075,F5,298.75,0.25,64,135.41
1076,G4,299.0,0.25,74,135.41
1077,C4,299.0,1.0,42,135.41
1078,C3,299.0,1.0,42,135.41
1079,G5,299.25,0.25,64,135.41
1080,E4,299.5,0.25,71,135.41
1081,E5,299.75,0.125,64,135.41
1082,F4,299.875,0.125,60,135.41
1083,F5,300.0,1.0,80,135.41
1084,F2,300.0,1.0,49,135.41
1085,F3,300.0,1.0,49,135.41
1086,C6,301.5,0.5,63,135.41
1087,B-5,302.0,0.5,69,135.41
1088,E4,302.0,0.25,48,135.41
1089,C5,302.25,0.25,40,135.41
1090,G5,302.5,0.5,60,135.41
1091,E4,302.5,0.25,44,135.41
1092,C5,302.75,0.25,40,135.41
1093,G#5,303.0,0.5,66,135.41
1094,F4,303.0,0.25,44,135.41
1095,C5,303.25,0.25,37,135.41
1096,F5,303.5,0.5,57,135.41
1097,F4,303.5,0.25,43,135.41
1098,C5,303.75,0.188,38,135.41
1099,E5,304.0,0.5,68,135.41
1100,C4,304.0,0.25,48,135.41
1101,C5,304.25,0.25,40,135.41
1102,F5,304.5,0.125,55,135.41
1103,D4,304.5,0.25,44,135.41
1104,G5,304.625,0.125,55,135.41
1105,F5,304.75,0.25,55,135.41
1106,C5,304.75,0.25,40,135.41
1107,G5,305.0,0.5,62,135.41
1108,E4,305.0,0.5,44,135.41
1109,C6,305.5,0.5,63,135.41
1110,B-5,306.0,0.5,69,135.41
1111,E4,306.0,0.25,48,135.41
1112,C5,306.25,0.25,40,135.41
1113,G5,306.5,0.5,60,135.41
1114,E4,306.5,0.25,44,135.41
1115,C5,306.75,0.25,40,135.41
1116,G#5,307.0,0.5,66,135.41
1117,F4,307.0,0.25,44,135.41
1118,C5,307.25,0.25,37,135.41
1119,F5,307.5,0.5,57,135.41
1120,F4,307.5,0.25,43,135.41
1121,C5,307.75,0.188,38,135.41
1122,C6,308.0,1.0,68,135.41
1123,C4,308.0,0.25,48,135.41
1124,E4,308.25,0.25,40,135.41
1125,G4,308.5,0.25,44,135.41
1126,C5,308.75,0.25,40,135.41
1127,C4,309.0,0.5,44,135.41
1128,C6,309.5,0.5,63,135.41
1129,B-5,310.0,0.5,69,135.41
1130,E4,310.0,0.25,48,135.41
1131,C5,310.25,0.25,40,135.41
1132,G5,310.5,0.5,60,135.41
1133,E4,310.5,0.25,44,135.41
1134,C5,310.75,0.25,40,135.41
1135,G#5,311.0,0.5,66,135.41
1136,F4,311.0,0.25,44,135.41
1137,C5,311.25,0.25,37,135.41
1138,F5,311.5,0.5,57,135.41
1139,F4,311.5,0.25,43,135.41
1140,C5,311.75,0.188,38,135.41
1141,E5,312.0,0.5,68,135.41
1142,C4,312.0,0.25,48,135.41
1143,C5,312.25,0.25,40,135.41
1144,F5,312.5,0.125,55,135.41
1145,D4,312.5,0.25,44,135.41
1146,G5,312.625,0.125,53,135.41
1147,F5,312.75,0.25,55,135.41
1148,C5,312.75,0.25,40,135.41
1149,G5,313.0,0.5,62,135.41
1150,E4,313.0,0.5,44,135.41
1151,C6,313.5,0.5,63,135.41
1152,B-5,314.0,0.5,69,135.41
1153,E4,314.0,0.25,48,135.41
1154,C5,314.25,0.25,40,135.41
1155,G5,314.5,0.5,60,135.41
1156,E4,314.5,0.25,44,135.41
1157,C5,314.75,0.25,40,135.41
1158,G#5,315.0,0.5,66,135.41
1159,F4,315.0,0.25,44,135.41
1160,C5,315.25,0.25,37,135.41
1161,F5,315.5,0.5,57,135.41
1162,F4,315.5,0.25,43,135.41
1163,C5,315.75,0.188,38,135.41
1164,C6,316.0,1.0,68,135.41
1165,C4,316.0,1.0,48,135.41
1166,C6,317.5,0.5,56,135.41
1167,G#5,317.5,0.5,47,135.41
1168,C#6,318.0,0.5,57,135.41
1169,B-5,318.0,0.5,48,135.41
1170,C6,318.5,0.5,54,135.41
1171,G#5,318.5,0.5,45,135.41
1172,B-5,319.0,0.5,57,135.41
1173,G5,319.0,0.5,48,135.41
1174,G#5,319.5,0.5,53,135.41
1175,F5,319.5,0.5,45,135.41
1176,G5,320.0,0.5,58,135.41
1177,E5,320.0,0.5,49,135.41
1178,B5,320.5,0.5,52,135.41
1179,C6,321.0,0.5,52,135.41
1180,G#4,321.5,0.25,63,135.41
1181,C5,321.75,0.25,53,135.41
1182,B-4,322.0,0.25,66,135.41
1183,C#5,322.25,0.25,56,135.41
1184,G#4,322.5,0.25,60,135.41
1185,C5,322.75,0.25,51,135.41
1186,G4,323.0,0.25,66,135.41
1187,B-4,323.25,0.25,56,135.41
1188,F4,323.5,0.25,59,135.41
1189,G#4,323.75,0.25,50,135.41
1190,C4,324.0,1.0,62,135.41
1191,E4,324.0,1.0,62,135.41
1192,G4,324.25,0.25,59,135.41
1193,G#4,324.5,0.25,69,135.41
1194,G4,324.75,0.25,59,135.41
1195,C5,325.0,0.25,67,135.41
1196,B-4,325.25,0.25,59,135.41
1197,G#4,325.5,0.25,65,135.41
1198,G4,325.75,0.25,59,135.41
1199,C4,326.0,1.0,62,135.41
1200,F4,326.0,1.0,62,135.41
1201,G#4,326.25,0.25,59,135.41
1202,B-4,326.5,0.25,69,135.41
1203,G#4,326.75,0.25,59,135.41
1204,C#5,327.0,0.25,67,135.41
1205,C5,327.25,0.25,59,135.41
1206,B-4,327.5,0.25,65,135.41
1207,G#4,327.75,0.25,59,135.41
1208,E4,328.0,1.0,62,135.41
1209,C4,328.0,1.0,62,135.41
1210,G4,328.25,0.25,59,135.41
1211,G#4,328.5,0.25,69,135.41
1212,G4,328.75,0.25,59,135.41
1213,C5,329.0,0.25,67,135.41
1214,B-4,329.25,0.25,59,135.41
1215,G#4,329.5,0.25,65,135.41
1216,G4,329.75,0.25,59,135.41
1217,F4,330.0,1.0,62,135.41
1218,C4,330.0,1.0,62,135.41
1219,G#4,330.25,0.25,59,135.41
1220,B-4,330.5,0.25,69,135.41
1221,G#4,330.75,0.25,59,135.41
1222,C#5,331.0,0.25,67,135.41
1223,C5,331.25,0.25,59,135.41
1224,B-4,331.5,0.25,65,135.41
1225,G#4,331.75,0.25,59,135.41
1226,E4,332.0,1.0,62,135.41
1227,C4,332.0,1.0,62,135.41
1228,G4,332.25,0.25,59,135.41
1229,G#4,332.5,0.25,69,135.41
1230,G4,332.75,0.25,59,135.41
1231,C5,333.0,0.25,67,135.41
1232,B-4,333.25,0.25,59,135.41
1233,G#4,333.5,0.25,65,135.41
1234,G4,333.75,0.25,59,135.41
1235,G#4,334.0,0.25,73,135.41
1236,D4,334.0,1.0,62,135.41
1237,B3,334.0,1.0,62,135.41
1238,F4,334.25,0.25,65,135.41
1239,G#4,334.5,0.25,75,135.41
1240,B4,334.75,0.25,66,135.41
1241,D5,335.0,0.25,75,135.41
1242,B4,335.25,0.25,67,135.41
1243,D5,335.5,0.25,74,135.41
1244,F5,335.75,0.25,69,135.41
1245,G#5,336.0,0.25,78,135.41
1246,D5,336.25,0.25,69,135.41
1247,F5,336.5,0.25,80,135.41
1248,G#5,336.75,0.25,70,135.41
1249,B5,337.0,0.25,81,135.41
1250,F5,337.25,0.25,72,135.41
1251,G#5,337.5,0.25,86,135.41
1252,B5,337.75,0.25,78,135.41
1253,D6,338.0,1.0,101,135.41
1254,B-1,342.0,1.0,46,135.41
1255,B-2,342.0,1.0,46,135.41
1256,E4,342.25,0.25,44,135.41
1257,G4,342.5,0.25,51,135.41
1258,B-4,342.75,0.25,44,135.41
1259,C#5,343.0,0.25,50,135.41
1260,E4,343.25,0.25,44,135.41
1261,G4,343.5,0.25,48,135.41
1262,B-4,343.75,0.25,44,135.41
1263,C#5,344.0,0.25,50,135.41
1264,E4,344.25,0.25,44,135.41
1265,G4,344.5,0.25,48,135.41
1266,B-4,344.75,0.25,44,135.41
1267,C#5,345.0,0.25,50,135.41
1268,E4,345.25,0.25,44,135.41
1269,G4,345.5,0.25,48,135.41
1270,B-4,345.75,0.25,44,135.41
1271,C#5,346.0,0.25,65,135.41
1272,G1,346.0,1.0,59,135.41
1273,G2,346.0,1.0,59,135.41
1274,E-4,346.25,0.25,57,135.41
1275,G4,346.5,0.25,66,135.41
1276,B-4,346.75,0.25,57,135.41
1277,C#5,347.0,0.25,65,135.41
1278,E-4,347.25,0.25,57,135.41
1279,G4,347.5,0.25,62,135.41
1280,B-4,347.75,0.25,57,135.41
1281,C#5,348.0,0.25,65,135.41
1282,E-4,348.25,0.25,57,135.41
1283,G4,348.5,0.25,67,135.41
1284,B-4,348.75,0.25,58,135.41
1285,C#5,349.0,0.25,74,135.41
1286,E-4,349.25,0.25,65,135.41
1287,G4,349.5,0.25,73,135.41
1288,B-4,349.75,0.25,65,135.41
1289,C#5,350.0,1.0,84,135.41
1290,C5,353.5,0.25,60,135.41
1291,C#5,353.75,0.25,55,135.41
1292,E-5,354.0,0.188,60,135.41
1293,E-5,354.5,0.188,58,135.41
1294,E-5,355.0,0.188,64,135.41
1295,G#5,355.5,0.188,66,135.41
1296,E-5,356.0,1.5,61,135.41
1297,C4,356.5,0.5,51,135.41
1298,B-3,357.0,0.5,51,135.41
1299,C#5,357.5,0.25,57,135.41
1300,G#3,357.5,0.5,48,135.41
1301,C5,357.75,0.25,54,135.41
1302,G3,358.0,0.5,53,135.41
1303,B-4,358.5,0.5,60,135.41
1304,E-3,358.5,0.375,47,135.41
1305,G#3,359.0,0.5,49,135.41
1306,C5,359.5,0.5,59,135.41
1307,E-3,359.5,0.375,45,135.41
1308,E-5,360.0,0.5,59,135.41
1309,B-3,360.0,0.5,49,135.41
1310,C#5,360.5,0.125,51,135.41
1311,E-3,360.5,0.375,45,135.41
1312,E-5,360.625,0.125,46,135.41
1313,C#5,360.75,0.25,51,135.41
1314,C5,361.0,0.5,59,135.41
1315,G#3,361.0,0.5,49,135.41
1316,C5,361.5,0.25,60,135.41
1317,C#5,361.75,0.25,55,135.41
1318,E-5,362.0,0.188,60,135.41
1319,F5,362.5,0.188,61,135.41
1320,G5,363.0,0.188,61,135.41
1321,G#5,363.5,0.188,66,135.41
1322,E-5,364.0,1.5,61,135.41
1323,C4,364.5,0.5,51,135.41
1324,B-3,365.0,0.5,51,135.41
1325,C#5,365.5,0.25,57,135.41
1326,G#3,365.5,0.5,48,135.41
1327,C5,365.75,0.25,54,135.41
1328,C#4,366.0,0.5,53,135.41
1329,B-4,366.5,0.5,60,135.41
1330,B-3,366.5,0.375,47,135.41
1331,E-4,367.0,0.5,49,135.41
1332,G4,367.5,0.5,59,135.41
1333,E-3,367.5,0.375,45,135.41
1334,G#3,368.0,0.5,50,135.41
1335,G#4,368.5,0.5,60,135.41
1336,E-3,368.5,0.5,42,135.41
1337,G#2,369.0,0.5,47,135.41
1338,E-5,369.5,0.5,53,135.41
1339,F5,370.0,0.25,59,135.41
1340,E-5,370.25,0.25,51,135.41
1341,D5,370.5,0.25,56,135.41
1342,E-5,370.75,0.25,50,135.41
1343,D5,371.0,0.25,56,135.41
1344,F5,371.25,0.25,55,135.41
1345,G#5,371.5,0.25,55,135.41
1346,G#4,371.5,0.5,41,135.41
1347,B5,371.75,0.25,55,135.41
1348,B-5,372.0,0.5,59,135.41
1349,G4,372.0,497/500,45,135.41
1350,E-5,372.5,0.375,50,135.41
1351,E-5,373.0,0.5,56,135.41
1352,C5,373.5,0.5,51,135.41
1353,C#5,374.0,0.25,59,135.41
1354,C5,374.25,0.25,51,135.41
1355,B4,374.5,0.25,56,135.41
1356,C5,374.75,0.25,50,135.41
1357,B4,375.0,0.25,56,135.41
1358,D5,375.25,0.25,55,135.41
1359,F5,375.5,0.25,55,135.41
1360,F4,375.5,0.5,41,135.41
1361,G#5,375.75,0.25,55,135.41
1362,G5,376.0,0.5,59,135.41
1363,E-4,376.0,497/500,45,135.41
1364,C5,376.5,0.375,50,135.41
1365,C5,377.0,0.5,56,135.41
1366,G#4,377.5,0.5,51,135.41
1367,B-4,378.0,0.25,59,135.41
1368,G#4,378.25,0.25,51,135.41
1369,G4,378.5,0.25,56,135.41
1370,G#4,378.75,0.25,50,135.41
1371,G4,379.0,0.25,56,135.41
1372,B-4,379.25,0.25,55,135.41
1373,C#5,379.5,0.25,55,135.41
1374,C#4,379.5,0.5,41,135.41
1375,F5,379.75,0.25,55,135.41
1376,E-5,380.0,0.5,59,135.41
1377,C4,380.0,497/500,45,135.41
1378,G#4,380.5,0.375,50,135.41
1379,G#4,381.0,0.5,56,135.41
1380,E-5,381.5,0.5,51,135.41
1381,D5,382.0,0.25,59,135.41
1382,B-3,382.0,1.0,42,135.41
1383,G#4,382.0,1.0,42,135.41
1384,F5,382.25,0.25,55,135.41
1385,G#5,382.5,0.25,62,135.41
1386,C6,382.75,0.25,59,135.41
1387,B-5,383.0,0.25,62,135.41
1388,G#5,383.25,0.25,61,135.41
1389,G5,383.5,0.25,56,135.41
1390,F5,383.75,0.25,50,135.41
1391,E-5,384.0,0.25,59,135.41
1392,E-4,384.0,1.0,42,135.41
1393,G4,384.0,1.0,42,135.41
1394,F5,384.25,0.25,55,135.41
1395,E-5,384.5,0.25,56,135.41
1396,D5,384.75,0.25,56,135.41
1397,E-5,385.0,0.25,59,135.41
1398,G5,385.25,0.25,59,135.41
1399,F5,385.5,0.25,54,135.41
1400,E-5,385.75,0.25,50,135.41
1401,D5,386.0,0.25,59,135.41
1402,G#4,386.0,1.0,42,135.41
1403,B-3,386.0,1.0,42,135.41
1404,F5,386.25,0.25,55,135.41
1405,G#5,386.5,0.25,62,135.41
1406,C6,386.75,0.25,59,135.41
1407,B-5,387.0,0.25,62,135.41
1408,G#5,387.25,0.25,61,135.41
1409,G5,387.5,0.25,56,135.41
1410,F5,387.75,0.25,50,135.41
1411,E-5,388.0,0.25,59,135.41
1412,E-4,388.0,1.0,42,135.41
1413,G4,388.0,1.0,42,135.41
1414,F5,388.25,0.25,55,135.41
1415,E-5,388.5,0.25,56,135.41
1416,D5,388.75,0.25,56,135.41
1417,E-5,389.0,0.25,59,135.41
1418,G5,389.25,0.25,59,135.41
1419,F5,389.5,0.25,54,135.41
1420,E-5,389.75,0.25,50,135.41
1421,D5,390.0,0.25,59,135.41
1422,B-3,390.0,1.0,42,135.41
1423,G#4,390.0,1.0,42,135.41
1424,F5,390.25,0.25,55,135.41
1425,G#5,390.5,0.25,62,135.41
1426,C6,390.75,0.25,59,135.41
1427,B-5,391.0,0.25,62,135.41
1428,G#5,391.25,0.25,61,135.41
1429,G5,391.5,0.25,56,135.41
1430,F5,391.75,0.25,50,135.41
1431,E-5,392.0,0.25,59,135.41
1432,E-4,392.0,1.0,42,135.41
1433,G4,392.0,1.0,42,135.41
1434,F5,392.25,0.25,50,135.41
1435,D5,392.5,0.25,56,135.41
1436,F5,392.75,0.25,50,135.41
1437,E-5,393.0,0.25,56,135.41
1438,F5,393.25,0.25,51,135.41
1439,D5,393.5,0.25,54,135.41
1440,F5,393.75,0.25,50,135.41
1441,E-5,394.0,2.0,59,135.41
1442,E-3,394.5,0.5,36,135.41
1443,G3,395.0,0.5,38,135.41
1444,B-3,395.5,0.5,35,135.41
1445,C#5,396.0,0.25,47,135.41
1446,E-4,396.0,1.0,36,135.41
1447,E-5,396.25,0.25,40,135.41
1448,C5,396.5,0.25,44,135.41
1449,E-5,396.75,0.25,40,135.41
1450,C#5,397.0,0.25,44,135.41
1451,E-5,397.25,0.25,40,135.41
1452,C5,397.5,0.25,43,135.41
1453,E-5,397.75,0.25,40,135.41
1454,C#5,398.0,1.5,47,135.41
1455,C5,399.5,0.25,60,135.41
1456,C#5,399.75,0.25,55,135.41
1457,E-5,400.0,0.188,60,135.41
1458,E-5,400.5,0.188,61,135.41
1459,E-5,401.0,0.25,63,135.41
1460,G#5,401.25,0.25,58,135.41
1461,C6,401.5,0.25,66,135.41
1462,G#5,401.75,0.25,58,135.41
1463,E-5,402.0,1.5,61,135.41
1464,C4,402.5,0.5,51,135.41
1465,B-3,403.0,0.5,51,135.41
1466,C#5,403.5,0.25,57,135.41
1467,G#3,403.5,0.5,48,135.41
1468,C5,403.75,0.25,54,135.41
1469,G3,404.0,0.5,53,135.41
1470,B-4,404.5,0.5,53,135.41
1471,E-3,404.5,0.375,47,135.41
1472,G#3,405.0,0.5,49,135.41
1473,C5,405.5,0.375,53,135.41
1474,E-3,405.5,0.375,45,135.41
1475,E-5,406.0,0.5,59,135.41
1476,B-3,406.0,0.5,49,135.41
1477,C#5,406.5,0.125,51,135.41
1478,E-3,406.5,0.375,45,135.41
1479,E-5,406.625,0.125,46,135.41
1480,C#5,406.75,0.25,51,135.41
1481,C5,407.0,0.5,59,135.41
1482,G#3,407.0,0.5,49,135.41
1483,C5,407.5,0.25,60,135.41
1484,C#5,407.75,0.25,55,135.41
1485,E-5,408.0,0.188,60,135.41
1486,F5,408.5,0.188,57,135.41
1487,G5,409.0,0.188,59,135.41
1488,G#5,409.5,0.188,66,135.41
1489,E-5,410.0,1.5,61,135.41
1490,C4,410.5,0.5,51,135.41
1491,B-3,411.0,0.5,51,135.41
1492,C#5,411.5,0.25,57,135.41
1493,G#3,411.5,0.5,48,135.41
1494,C5,411.75,0.25,54,135.41
1495,C#4,412.0,0.5,53,135.41
1496,B-4,412.5,0.375,43,135.41
1497,B-3,412.5,0.375,47,135.41
1498,E-4,413.0,0.5,49,135.41
1499,G4,413.5,0.375,50,135.41
1500,E-3,413.5,0.375,45,135.41
1501,G#3,414.0,0.5,50,135.41
1502,G#4,414.5,0.5,60,135.41
1503,E-3,414.5,0.5,42,135.41
1504,G#2,415.0,0.5,47,135.41
1505,E-5,415.5,0.5,53,135.41
1506,F5,416.0,0.25,59,135.41
1507,E-5,416.25,0.25,51,135.41
1508,D5,416.5,0.25,56,135.41
1509,E-5,416.75,0.25,50,135.41
1510,D5,417.0,0.25,56,135.41
1511,F5,417.25,0.25,55,135.41
1512,G#5,417.5,0.25,55,135.41
1513,G#4,417.5,0.5,41,135.41
1514,B5,417.75,0.25,55,135.41
1515,B-5,418.0,0.5,59,135.41
1516,G4,418.0,497/500,45,135.41
1517,E-5,418.5,0.375,50,135.41
1518,E-5,419.0,0.5,56,135.41
1519,C5,419.5,0.5,51,135.41
1520,C#5,420.0,0.25,59,135.41
1521,C5,420.25,0.25,51,135.41
1522,B4,420.5,0.25,56,135.41
1523,C5,420.75,0.25,50,135.41
1524,B4,421.0,0.25,56,135.41
1525,D5,421.25,0.25,55,135.41
1526,F5,421.5,0.25,55,135.41
1527,F4,421.5,0.5,41,135.41
1528,G#5,421.75,0.25,55,135.41
1529,G5,422.0,0.5,59,135.41
1530,E-4,422.0,497/500,45,135.41
1531,C5,422.5,0.375,50,135.41
1532,C5,423.0,0.5,56,135.41
1533,G#4,423.5,0.5,51,135.41
1534,B-4,424.0,0.25,59,135.41
1535,G#4,424.25,0.25,51,135.41
1536,G4,424.5,0.25,56,135.41
1537,G#4,424.75,0.25,50,135.41
1538,G4,425.0,0.25,56,135.41
1539,B-4,425.25,0.25,55,135.41
1540,C#5,425.5,0.25,55,135.41
1541,C#4,425.5,0.5,41,135.41
1542,F5,425.75,0.25,55,135.41
1543,E-5,426.0,0.5,59,135.41
1544,C4,426.0,497/500,45,135.41
1545,G#4,426.5,0.375,50,135.41
1546,G#4,427.0,0.5,56,135.41
1547,E-5,427.5,0.5,51,135.41
1548,D5,428.0,0.25,59,135.41
1549,B-3,428.0,1.0,42,135.41
1550,G#4,428.0,1.0,42,135.41
1551,F5,428.25,0.25,55,135.41
1552,G#5,428.5,0.25,62,135.41
1553,C6,428.75,0.25,59,135.41
1554,B-5,429.0,0.25,62,135.41
1555,G#5,429.25,0.25,61,135.41
1556,G5,429.5,0.25,56,135.41
1557,F5,429.75,0.25,50,135.41
1558,E-5,430.0,0.25,59,135.41
1559,E-4,430.0,1.0,42,135.41
1560,G4,430.0,1.0,42,135.41
1561,F5,430.25,0.25,55,135.41
1562,E-5,430.5,0.25,56,135.41
1563,D5,430.75,0.25,56,135.41
1564,E-5,431.0,0.25,59,135.41
1565,G5,431.25,0.25,59,135.41
1566,F5,431.5,0.25,54,135.41
1567,E-5,431.75,0.25,50,135.41
1568,D5,432.0,0.25,59,135.41
1569,G#4,432.0,1.0,42,135.41
1570,B-3,432.0,1.0,42,135.41
1571,F5,432.25,0.25,55,135.41
1572,G#5,432.5,0.25,62,135.41
1573,C6,432.75,0.25,59,135.41
1574,B-5,433.0,0.25,62,135.41
1575,G#5,433.25,0.25,61,135.41
1576,G5,433.5,0.25,56,135.41
1577,F5,433.75,0.25,50,135.41
1578,E-5,434.0,0.25,59,135.41
1579,E-4,434.0,1.0,42,135.41
1580,G4,434.0,1.0,42,135.41
1581,F5,434.25,0.25,55,135.41
1582,E-5,434.5,0.25,56,135.41
1583,D5,434.75,0.25,56,135.41
1584,E-5,435.0,0.25,59,135.41
1585,G5,435.25,0.25,59,135.41
1586,F5,435.5,0.25,54,135.41
1587,E-5,435.75,0.25,50,135.41
1588,D5,436.0,0.25,59,135.41
1589,B-3,436.0,1.0,42,135.41
1590,G#4,436.0,1.0,42,135.41
1591,F5,436.25,0.25,55,135.41
1592,G#5,436.5,0.25,62,135.41
1593,C6,436.75,0.25,59,135.41
1594,B-5,437.0,0.25,62,135.41
1595,G#5,437.25,0.25,61,135.41
1596,G5,437.5,0.25,56,135.41
1597,F5,437.75,0.25,50,135.41
1598,E-5,438.0,0.25,59,135.41
1599,E-4,438.0,1.0,42,135.41
1600,G4,438.0,1.0,42,135.41
1601,F5,438.25,0.25,50,135.41
1602,D5,438.5,0.25,56,135.41
1603,F5,438.75,0.25,50,135.41
1604,E-5,439.0,0.25,56,135.41
1605,F5,439.25,0.25,51,135.41
1606,D5,439.5,0.25,54,135.41
1607,F5,439.75,0.25,50,135.41
1608,E-5,440.0,2.0,59,135.41
1609,E-3,440.5,0.5,36,135.41
1610,G3,441.0,0.5,38,135.41
1611,B-3,441.5,0.5,35,135.41
1612,C#5,442.0,0.25,47,135.41
1613,E-4,442.0,1.0,36,135.41
1614,E-5,442.25,0.25,40,135.41
1615,C5,442.5,0.25,44,135.41
1616,E-5,442.75,0.25,40,135.41
1617,C#5,443.0,0.25,44,135.41
1618,E-5,443.25,0.25,40,135.41
1619,C5,443.5,0.25,43,135.41
1620,E-5,443.75,0.25,40,135.41
1621,C#5,444.0,1.5,47,135.41
1622,C5,445.5,0.25,60,135.41
1623,C#5,445.75,0.25,55,135.41
1624,E-5,446.0,0.188,60,135.41
1625,E-5,446.5,0.188,61,135.41
1626,E-5,447.0,0.25,63,135.41
1627,G#5,447.25,0.25,58,135.41
1628,C6,447.5,0.25,66,135.41
1629,G#5,447.75,0.25,58,135.41
1630,E-5,448.0,1.5,61,135.41
1631,C4,448.5,0.5,51,135.41
1632,B-3,449.0,0.5,51,135.41
1633,C#5,449.5,0.25,57,135.41
1634,G#3,449.5,0.5,48,135.41
1635,C5,449.75,0.25,54,135.41
1636,G3,450.0,0.5,53,135.41
1637,B-4,450.5,0.5,53,135.41
1638,E-3,450.5,0.375,47,135.41
1639,G#3,451.0,0.5,49,135.41
1640,C5,451.5,0.375,53,135.41
1641,E-3,451.5,0.375,45,135.41
1642,E-5,452.0,0.5,59,135.41
1643,B-3,452.0,0.5,49,135.41
1644,C#5,452.5,0.125,51,135.41
1645,E-3,452.5,0.375,45,135.41
1646,E-5,452.625,0.125,46,135.41
1647,C#5,452.75,0.25,51,135.41
1648,C5,453.0,0.5,59,135.41
1649,G#3,453.0,0.5,49,135.41
1650,C5,453.5,0.25,60,135.41
1651,C#5,453.75,0.25,55,135.41
1652,E-5,454.0,0.188,60,135.41
1653,F5,454.5,0.188,57,135.41
1654,G5,455.0,0.188,59,135.41
1655,G#5,455.5,0.188,66,135.41
1656,E-5,456.0,1.5,61,135.41
1657,C4,456.5,0.5,51,135.41
1658,B-3,457.0,0.5,51,135.41
1659,C#5,457.5,0.25,57,135.41
1660,G#3,457.5,0.5,48,135.41
1661,C5,457.75,0.25,54,135.41
1662,C#4,458.0,0.5,53,135.41
1663,B-4,458.5,0.375,43,135.41
1664,B-3,458.5,0.375,47,135.41
1665,E-4,459.0,0.5,49,135.41
1666,G4,459.5,0.375,50,135.41
1667,E-3,459.5,0.375,45,135.41
1668,G#3,460.0,0.5,50,135.41
1669,G#4,460.5,0.5,60,135.41
1670,G#2,460.5,0.5,42,135.41
1671,F5,461.0,0.25,63,135.41
1672,C#4,461.0,0.25,48,135.41
1673,G#3,461.0,0.25,48,135.41
1674,G#5,461.25,0.25,57,135.41
1675,F5,461.5,0.25,63,135.41
1676,C#4,461.5,0.25,41,135.41
1677,G#3,461.5,0.25,41,135.41
1678,G#5,461.75,0.25,56,135.41
1679,E-5,462.0,0.5,63,135.41
1680,G#3,462.0,0.25,47,135.41
1681,C4,462.0,0.25,47,135.41
1682,G#3,462.5,0.25,40,135.41
1683,C4,462.5,0.25,40,135.41
1684,C#5,463.0,0.25,63,135.41
1685,F4,463.0,0.25,48,135.41
1686,G#3,463.0,0.25,48,135.41
1687,G#5,463.25,0.25,57,135.41
1688,C#5,463.5,0.25,63,135.41
1689,F4,463.5,0.25,41,135.41
1690,G#3,463.5,0.25,41,135.41
1691,G#5,463.75,0.25,56,135.41
1692,C5,464.0,0.5,63,135.41
1693,G#3,464.0,0.25,47,135.41
1694,E-4,464.0,0.25,47,135.41
1695,G#3,464.5,0.25,40,135.41
1696,E-4,464.5,0.25,40,135.41
1697,F5,465.0,0.25,63,135.41
1698,C#4,465.0,0.25,48,135.41
1699,G#3,465.0,0.25,48,135.41
1700,G#5,465.25,0.25,57,135.41
1701,F5,465.5,0.25,63,135.41
1702,C#4,465.5,0.25,41,135.41
1703,G#3,465.5,0.25,41,135.41
1704,G#5,465.75,0.25,56,135.41
1705,E-5,466.0,0.5,63,135.41
1706,G#3,466.0,0.5,47,135.41
1707,C4,466.0,0.5,47,135.41
1708,D3,468.0,1.0,48,135.41
1709,B-3,468.0,1.0,48,135.41
1710,B-4,468.25,0.25,59,135.41
1711,A4,468.5,0.25,66,135.41
1712,B-4,468.75,0.25,58,135.41
1713,F5,469.0,0.5,67,135.41
1714,B-4,469.5,0.25,63,135.41
1715,D3,470.0,1.0,48,135.41
1716,B-3,470.0,1.0,48,135.41
1717,G#4,470.25,0.25,59,135.41
1718,G4,470.5,0.25,66,135.41
1719,G#4,470.75,0.25,58,135.41
1720,F5,471.0,0.5,67,135.41
1721,G#4,471.5,0.25,63,135.41
1722,G4,472.0,0.25,68,135.41
1723,E-3,472.0,0.5,48,135.41
1724,E-5,472.25,0.25,59,135.41
1725,G#4,472.5,0.25,65,135.41
1726,F3,472.5,0.5,48,135.41
1727,E-5,472.75,0.25,59,135.41
1728,B-4,473.0,0.25,67,135.41
1729,G3,473.0,0.5,48,135.41
1730,E-5,473.25,0.25,59,135.41
1731,C5,473.5,0.25,67,135.41
1732,G#3,473.5,0.5,56,135.41
1733,E-5,473.75,0.25,59,135.41
1734,C#5,474.0,0.25,72,135.41
1735,B-3,474.0,0.5,61,135.41
1736,E-5,474.25,0.25,59,135.41
1737,C5,474.5,0.25,65,135.41
1738,G#3,474.5,0.5,51,135.41
1739,E-5,474.75,0.25,59,135.41
1740,C#5,475.0,0.25,67,135.41
1741,B-3,475.0,0.5,58,135.41
1742,E-5,475.25,0.25,59,135.41
1743,B-4,475.5,0.25,65,135.41
1744,G3,475.5,0.5,51,135.41
1745,E-5,475.75,0.25,59,135.41
1746,C5,476.0,0.25,69,135.41
1747,G#3,476.0,0.5,53,135.41
1748,G#5,476.25,0.25,59,135.41
1749,C#5,476.5,0.25,69,135.41
1750,B-3,476.5,0.5,58,135.41
1751,G#5,476.75,0.25,60,135.41
1752,E-5,477.0,0.25,71,135.41
1753,C4,477.0,0.5,59,135.41
1754,G#5,477.25,0.25,61,135.41
1755,F5,477.5,0.25,71,135.41
1756,C#4,477.5,0.5,59,135.41
1757,G#5,477.75,0.25,64,135.41
1758,F#5,478.0,0.25,73,135.41
1759,E-4,478.0,0.5,64,135.41
1760,G#5,478.25,0.25,64,135.41
1761,F5,478.5,0.25,69,135.41
1762,C#4,478.5,0.5,56,135.41
1763,G#5,478.75,0.25,59,135.41
1764,F#5,479.0,0.25,73,135.41
1765,E-4,479.0,0.5,67,135.41
1766,G#5,479.25,0.25,64,135.41
1767,E-5,479.5,0.25,67,135.41
1768,C4,479.5,0.5,57,135.41
1769,G#5,479.75,0.25,59,135.41
1770,C#4,480.0,1.0,71,135.41
1771,F5,480.25,0.25,68,135.41
1772,G#5,480.5,0.25,75,135.41
1773,F5,480.75,0.25,67,135.41
1774,C#6,481.0,0.25,80,135.41
1775,F5,481.25,0.25,66,135.41
1776,G#5,481.5,0.25,73,135.41
1777,F5,481.75,0.25,66,135.41
1778,G#4,482.0,0.5,71,135.41
1779,E-5,482.25,0.25,68,135.41
1780,C#6,482.5,0.25,75,135.41
1781,E-5,482.75,0.25,67,135.41
1782,A4,483.0,0.5,74,135.41
1783,E-5,483.25,0.25,68,135.41
1784,C6,483.5,0.25,75,135.41
1785,E-5,483.75,0.25,67,135.41
1786,B-4,484.0,1.0,80,135.41
1787,C#5,484.25,0.25,68,135.41
1788,F5,484.5,0.25,75,135.41
1789,C#5,484.75,0.25,67,135.41
1790,B-5,485.0,0.25,79,135.41
1791,C#5,485.25,0.25,66,135.41
1792,F5,485.5,0.25,73,135.41
1793,C#5,485.75,0.25,66,135.41
1794,F4,486.0,0.5,71,135.41
1795,C5,486.25,0.25,68,135.41
1796,B-5,486.5,0.25,75,135.41
1797,C5,486.75,0.25,67,135.41
1798,F4,487.0,0.5,74,135.41
1799,B4,487.25,0.25,68,135.41
1800,G#5,487.5,0.25,75,135.41
1801,B4,487.75,0.25,67,135.41
1802,F#4,488.0,0.5,71,135.41
1803,B-4,488.25,0.25,68,135.41
1804,G#5,488.5,0.25,75,135.41
1805,B-4,488.75,0.25,67,135.41
1806,E-4,489.0,0.5,74,135.41
1807,B-4,489.25,0.25,68,135.41
1808,F#5,489.5,0.25,75,135.41
1809,B-4,489.75,0.25,67,135.41
1810,C4,490.0,0.5,71,135.41
1811,G#4,490.25,0.25,68,135.41
1812,F#5,490.5,0.25,75,135.41
1813,G#4,490.75,0.25,67,135.41
1814,C#4,491.0,0.5,74,135.41
1815,G#4,491.25,0.25,68,135.41
1816,F5,491.5,0.25,75,135.41
1817,G#4,491.75,0.25,67,135.41
1818,B-3,492.0,0.5,71,135.41
1819,F#4,492.25,0.25,68,135.41
1820,F5,492.5,0.25,75,135.41
1821,F#4,492.75,0.25,67,135.41
1822,C4,493.0,0.5,74,135.41
1823,F#4,493.25,0.25,68,135.41
1824,E-5,493.5,0.25,75,135.41
1825,F#4,493.75,0.25,67,135.41
1826,A3,494.0,0.5,71,135.41
1827,F4,494.25,0.25,68,135.41
1828,E-5,494.5,0.25,74,135.41
1829,F4,494.75,0.25,66,135.41
1830,B-3,495.0,0.5,72,135.41
1831,F4,495.25,0.25,66,135.41
1832,C#5,495.5,0.25,72,135.41
1833,F4,495.75,0.25,63,135.41
1834,G3,496.0,0.5,67,135.41
1835,E-4,496.25,0.25,63,135.41
1836,C#5,496.5,0.25,69,135.41
1837,E-4,496.75,0.25,62,135.41
1838,G#3,497.0,0.5,68,135.41
1839,E-4,497.25,0.25,62,135.41
1840,C5,497.5,0.25,68,135.41
1841,E-4,497.75,0.25,59,135.41
1842,F3,498.0,0.5,63,135.41
1843,D4,498.25,0.25,59,135.41
1844,B4,498.5,0.25,66,135.41
1845,D4,498.75,0.25,58,135.41
1846,G#3,499.0,0.5,65,135.41
1847,D4,499.25,0.25,59,135.41
1848,B4,499.5,0.25,66,135.41
1849,D4,499.75,0.25,58,135.41
1850,B3,500.0,0.5,62,135.41
1851,D4,500.25,0.25,59,135.41
1852,B4,500.5,0.25,66,135.41
1853,D4,500.75,0.25,57,135.41
1854,G#3,501.0,0.5,65,135.41
1855,D4,501.25,0.25,58,135.41
1856,B4,501.5,0.25,66,135.41
1857,D4,501.75,0.25,57,135.41
1858,F3,502.0,0.5,62,135.41
1859,D4,502.25,0.25,58,135.41
1860,B4,502.5,0.25,65,135.41
1861,D4,502.75,0.25,57,135.41
1862,G#3,503.0,0.5,64,135.41
1863,D4,503.25,0.25,58,135.41
1864,B4,503.5,0.25,65,135.41
1865,D4,503.75,0.25,57,135.41
1866,B3,504.0,0.5,61,135.41
1867,D4,504.25,0.25,58,135.41
1868,B4,504.5,0.25,65,135.41
1869,D4,504.75,0.25,56,135.41
1870,G#3,505.0,0.5,64,135.41
1871,D4,505.25,0.25,57,135.41
1872,B4,505.5,0.25,65,135.41
1873,D4,505.75,0.25,56,135.41
1874,E-2,506.0,0.5,51,135.41
1875,E-3,506.0,0.5,51,135.41
1876,C#4,506.25,0.25,51,135.41
1877,B-4,506.5,0.25,57,135.41
1878,C#4,506.75,0.25,49,135.41
1879,G3,507.0,0.5,56,135.41
1880,C#4,507.25,0.25,50,135.41
1881,B-4,507.5,0.25,57,135.41
1882,C#4,507.75,0.25,49,135.41
1883,B-3,508.0,0.5,54,135.41
1884,C#4,508.25,0.25,50,135.41
1885,B-4,508.5,0.25,57,135.41
1886,C#4,508.75,0.25,49,135.41
1887,G3,509.0,0.5,55,135.41
1888,C#4,509.25,0.25,50,135.41
1889,B-4,509.5,0.25,56,135.41
1890,C#4,509.75,0.25,49,135.41
1891,E-2,510.0,0.5,50,135.41
1892,E-3,510.0,0.5,50,135.41
1893,C#4,510.25,0.25,49,135.41
1894,B-4,510.5,0.25,54,135.41
1895,C#4,510.75,0.25,47,135.41
1896,G3,511.0,0.5,52,135.41
1897,C#4,511.25,0.25,46,135.41
1898,B-4,511.5,0.25,52,135.41
1899,C#4,511.75,0.25,44,135.41
1900,B-3,512.0,0.5,47,135.41
1901,C#4,512.25,0.25,44,135.41
1902,B-4,512.5,0.25,49,135.41
1903,C#4,512.75,0.25,42,135.41
1904,G3,513.0,0.5,47,135.41
1905,C#4,513.25,0.25,42,135.41
1906,B-4,513.5,0.25,47,135.41
1907,C#4,513.75,0.25,40,135.41
1908,E-2,514.0,0.5,40,135.41
1909,E-3,514.0,0.5,40,135.41
1910,C4,515.5,0.25,51,135.41
1911,C#4,515.75,0.25,46,135.41
1912,E-4,516.0,0.188,51,135.41
1913,E-4,516.5,0.188,51,135.41
1914,E-4,517.0,0.188,53,135.41
1915,G#4,517.5,0.188,58,135.41
1916,E-4,518.0,1.5,51,135.41
1917,C3,518.5,0.5,43,135.41
1918,B-2,519.0,0.5,43,135.41
1919,C#4,519.5,0.25,48,135.41
1920,G#2,519.5,0.5,40,135.41
1921,C4,519.75,0.25,45,135.41
1922,B-3,520.0,1.0,51,135.41
1923,G2,520.0,0.5,45,135.41
1924,E-2,520.5,0.375,39,135.41
1925,C4,521.0,1.0,50,135.41
1926,G#2,521.0,0.5,41,135.41
1927,E-2,521.5,0.375,38,135.41
1928,E-4,522.0,0.5,50,135.41
1929,B-2,522.0,0.5,41,135.41
1930,C#4,522.5,0.125,43,135.41
1931,E-2,522.5,0.375,38,135.41
1932,E-4,522.625,0.125,39,135.41
1933,C#4,522.75,0.25,43,135.41
1934,C4,523.0,0.5,50,135.41
1935,G#2,523.0,0.5,41,135.41
1936,C4,523.5,0.25,51,135.41
1937,C#4,523.75,0.25,46,135.41
1938,E-4,524.0,0.188,51,135.41
1939,E-4,524.5,0.188,50,135.41
1940,E-4,525.0,0.188,54,135.41
1941,G#4,525.5,0.188,56,135.41
1942,E-4,526.0,1.5,51,135.41
1943,C3,526.5,0.5,43,135.41
1944,B-2,527.0,0.5,43,135.41
1945,C#4,527.5,0.25,48,135.41
1946,G#2,527.5,0.5,40,135.41
1947,C4,527.75,0.25,45,135.41
1948,B-3,528.0,0.5,51,135.41
1949,C#3,528.0,0.5,45,135.41
1950,C#4,528.5,0.375,43,135.41
1951,B-2,528.5,0.375,39,135.41
1952,G3,529.0,0.5,50,135.41
1953,E-3,529.0,0.5,41,135.41
1954,B-3,529.5,0.375,42,135.41
1955,E-2,529.5,0.375,38,135.41
1956,G#3,530.0,1.0,51,135.41
1957,G#2,530.0,0.5,42,135.41
1958,E-2,530.5,0.5,35,135.41
1959,G#1,531.0,0.5,39,135.41
1960,C5,531.5,0.25,63,135.41
1961,C#5,531.75,0.25,57,135.41
1962,E-5,532.0,0.188,63,135.41
1963,E-5,532.5,0.188,64,135.41
1964,E-5,533.0,0.188,66,135.41
1965,E-6,533.5,0.188,82,135.41
1966,E-5,534.0,1.5,64,135.41
1967,C4,534.5,0.5,53,135.41
1968,B-3,535.0,0.5,53,135.41
1969,C#5,535.5,0.25,59,135.41
1970,G#3,535.5,0.5,50,135.41
1971,C5,535.75,0.25,56,135.41
1972,B-4,536.0,0.5,68,135.41
1973,G3,536.0,0.5,55,135.41
1974,E-6,536.5,0.5,74,135.41
1975,E-3,536.5,0.375,49,135.41
1976,C5,537.0,0.5,66,135.41
1977,G#3,537.0,0.5,51,135.41
1978,E-6,537.5,0.5,71,135.41
1979,E-3,537.5,0.375,47,135.41
1980,E-5,538.0,0.5,61,135.41
1981,B-3,538.0,0.5,51,135.41
1982,C#5,538.5,0.125,53,135.41
1983,E-3,538.5,0.375,47,135.41
1984,E-5,538.625,0.125,48,135.41
1985,C#5,538.75,0.25,53,135.41
1986,C5,539.0,0.5,61,135.41
1987,G#3,539.0,0.5,51,135.41
1988,C5,539.5,0.25,63,135.41
1989,C#5,539.75,0.25,57,135.41
1990,E-5,540.0,0.188,63,135.41
1991,E-5,540.5,0.188,61,135.41
1992,E-5,541.0,0.188,67,135.41
1993,E-6,541.5,0.188,82,135.41
1994,E-5,542.0,1.5,64,135.41
1995,C4,542.5,0.5,53,135.41
1996,B-3,543.0,0.5,53,135.41
1997,C#5,543.5,0.25,59,135.41
1998,G#3,543.5,0.5,50,135.41
1999,C5,543.75,0.25,56,135.41
2000,B-4,544.0,0.5,63,135.41
2001,C#4,544.0,0.5,55,135.41
2002,C#6,544.5,0.375,69,135.41
2003,B-3,544.5,0.375,49,135.41
2004,G4,545.0,0.5,61,135.41
2005,E-4,545.0,0.5,51,135.41
2006,B-4,545.5,0.375,52,135.41
2007,E-3,545.5,0.375,47,135.41
2008,G#4,546.0,1.0,63,135.41
2009,G#3,546.0,0.5,52,135.41
2010,E-3,546.5,0.5,44,135.41
2011,G#2,547.0,0.5,49,135.41
2012,E-5,547.5,0.5,53,135.41
2013,F5,548.0,0.5,59,135.41
2014,E-5,548.5,0.5,56,135.41
2015,D5,549.0,0.375,56,135.41
2016,B5,549.5,0.5,62,135.41
2017,G#4,549.5,0.5,38,135.41
2018,D5,549.5,0.5,38,135.41
2019,B5,550.0,0.5,62,135.41
2020,E-5,550.0,0.5,42,135.41
2021,G4,550.0,0.5,42,135.41
2022,A5,550.5,0.5,53,135.41
2023,B-5,551.0,0.5,53,135.41
2024,C5,551.5,0.5,59,135.41
2025,C#5,552.0,0.5,61,135.41
2026,C5,552.5,0.5,55,135.41
2027,B4,553.0,0.375,55,135.41
2028,G#5,553.5,0.5,63,135.41
2029,F4,553.5,0.5,38,135.41
2030,B4,553.5,0.5,38,135.41
2031,G#5,554.0,0.5,63,135.41
2032,C5,554.0,1.0,42,135.41
2033,E-4,554.0,1.0,42,135.41
2034,F#5,554.5,0.5,53,135.41
2035,G5,555.0,0.25,53,135.41
2036,G#4,555.5,0.5,59,135.41
2037,B-4,556.0,0.5,61,135.41
2038,G#4,556.5,0.5,53,135.41
2039,G4,557.0,0.375,53,135.41
2040,F5,557.5,0.5,63,135.41
2041,C#4,557.5,0.5,38,135.41
2042,G4,557.5,0.5,38,135.41
2043,F5,558.0,0.5,63,135.41
2044,G#4,558.0,1.0,42,135.41
2045,C4,558.0,1.0,42,135.41
2046,D5,558.5,0.5,56,135.41
2047,E-5,559.0,0.25,61,135.41
2048,E-5,559.5,0.5,64,135.41
2049,E-5,560.0,0.5,64,135.41
2050,B-3,560.0,1.0,42,135.41
2051,F4,560.0,1.0,42,135.41
2052,D5,560.5,0.5,57,135.41
2053,G#5,561.0,0.25,61,135.41
2054,G#5,561.5,0.5,57,135.41
2055,G#5,562.0,0.5,57,135.41
2056,E-4,562.0,1.0,42,135.41
2057,G4,562.0,1.0,42,135.41
2058,G5,562.5,0.5,49,135.41
2059,B-5,563.0,0.5,59,135.41
2060,E-5,563.5,0.5,56,135.41
2061,E-5,564.0,0.5,56,135.41
2062,B-3,564.0,1.0,42,135.41
2063,F4,564.0,1.0,42,135.41
2064,D5,564.5,0.5,48,135.41
2065,G#5,565.0,0.188,51,135.41
2066,G#5,565.5,0.5,43,135.41
2067,G#5,566.0,2.0,43,135.41
2068,E-4,566.5,0.125,35,135.41
2069,E-3,567.0,0.125,33,135.41
2070,E-2,567.5,0.25,33,135.41
2071,G#5,568.0,0.5,43,135.41
2072,F#5,568.5,0.5,46,135.41
2073,G5,569.0,0.5,53,135.41
2074,D5,569.5,0.5,45,135.41
2075,F5,570.0,0.5,50,135.41
2076,E-5,570.5,229/500,43,135.41
2077,E-5,571.0,229/500,43,135.41
2078,C5,571.5,0.25,63,135.41
2079,C#5,571.75,0.25,57,135.41
2080,E-5,572.0,0.188,63,135.41
2081,E-5,572.5,0.188,64,135.41
2082,E-5,573.0,0.188,66,135.41
2083,E-6,573.5,0.188,82,135.41
2084,E-5,574.0,1.5,64,135.41
2085,C4,574.5,0.5,53,135.41
2086,B-3,575.0,0.5,53,135.41
2087,C#5,575.5,0.25,59,135.41
2088,G#3,575.5,0.5,50,135.41
2089,C5,575.75,0.25,56,135.41
2090,B-4,576.0,0.5,68,135.41
2091,G3,576.0,0.5,55,135.41
2092,E-6,576.5,0.5,74,135.41
2093,E-3,576.5,0.375,49,135.41
2094,C5,577.0,0.5,66,135.41
2095,G#3,577.0,0.5,51,135.41
2096,E-6,577.5,0.5,71,135.41
2097,E-3,577.5,0.375,47,135.41
2098,E-5,578.0,0.5,61,135.41
2099,B-3,578.0,0.5,51,135.41
2100,C#5,578.5,0.125,53,135.41
2101,E-3,578.5,0.375,47,135.41
2102,E-5,578.625,0.125,48,135.41
2103,C#5,578.75,0.25,53,135.41
2104,C5,579.0,0.5,61,135.41
2105,G#3,579.0,0.5,51,135.41
2106,C5,579.5,0.25,63,135.41
2107,C#5,579.75,0.25,57,135.41
2108,E-5,580.0,0.188,63,135.41
2109,E-5,580.5,0.188,61,135.41
2110,E-5,581.0,0.188,67,135.41
2111,E-6,581.5,0.188,82,135.41
2112,E-5,582.0,1.5,64,135.41
2113,C4,582.5,0.5,53,135.41
2114,B-3,583.0,0.5,53,135.41
2115,C#5,583.5,0.25,59,135.41
2116,G#3,583.5,0.5,50,135.41
2117,C5,583.75,0.25,56,135.41
2118,B-4,584.0,0.5,63,135.41
2119,C#4,584.0,0.5,55,135.41
2120,C#6,584.5,0.375,69,135.41
2121,B-3,584.5,0.375,49,135.41
2122,G4,585.0,0.5,61,135.41
2123,E-4,585.0,0.5,51,135.41
2124,B-4,585.5,0.375,52,135.41
2125,E-3,585.5,0.375,47,135.41
2126,G#4,586.0,1.0,63,135.41
2127,G#3,586.0,0.5,52,135.41
2128,E-3,586.5,0.5,44,135.41
2129,G#2,587.0,0.5,49,135.41
2130,E-5,587.5,0.5,53,135.41
2131,F5,588.0,0.5,59,135.41
2132,E-5,588.5,0.5,56,135.41
2133,D5,589.0,0.375,56,135.41
2134,B5,589.5,0.5,62,135.41
2135,D5,589.5,0.5,38,135.41
2136,G#4,589.5,0.5,38,135.41
2137,B5,590.0,0.5,62,135.41
2138,G4,590.0,497/500,42,135.41
2139,E-5,590.0,497/500,42,135.41
2140,A5,590.5,0.5,53,135.41
2141,B-5,591.0,0.5,53,135.41
2142,C5,591.5,0.5,59,135.41
2143,C#5,592.0,0.5,61,135.41
2144,C5,592.5,0.5,55,135.41
2145,B4,593.0,0.375,55,135.41
2146,G#5,593.5,0.5,63,135.41
2147,F4,593.5,0.5,38,135.41
2148,B4,593.5,0.5,38,135.41
2149,G#5,594.0,0.5,63,135.41
2150,C5,594.0,1.0,42,135.41
2151,E-4,594.0,1.0,42,135.41
2152,F#5,594.5,0.5,53,135.41
2153,G5,595.0,0.25,53,135.41
2154,G#4,595.5,0.5,59,135.41
2155,B-4,596.0,0.5,61,135.41
2156,G#4,596.5,0.5,53,135.41
2157,G4,597.0,0.375,53,135.41
2158,F5,597.5,0.5,63,135.41
2159,C#4,597.5,0.5,38,135.41
2160,G4,597.5,0.5,38,135.41
2161,F5,598.0,0.5,63,135.41
2162,C4,598.0,249/250,42,135.41
2163,G#4,598.0,249/250,42,135.41
2164,D5,598.5,0.5,56,135.41
2165,E-5,599.0,0.25,61,135.41
2166,E-5,599.5,0.5,64,135.41
2167,E-5,600.0,0.5,64,135.41
2168,B-3,600.0,1.0,42,135.41
2169,F4,600.0,1.0,42,135.41
2170,D5,600.5,0.5,57,135.41
2171,G#5,601.0,0.25,61,135.41
2172,G#5,601.5,0.5,57,135.41
2173,G#5,602.0,0.5,57,135.41
2174,E-4,602.0,1.0,42,135.41
2175,G4,602.0,1.0,42,135.41
2176,G5,602.5,0.5,49,135.41
2177,B-5,603.0,0.5,59,135.41
2178,E-5,603.5,0.5,56,135.41
2179,E-5,604.0,0.5,56,135.41
2180,B-3,604.0,1.0,42,135.41
2181,F4,604.0,1.0,42,135.41
2182,D5,604.5,0.5,48,135.41
2183,G#5,605.0,0.188,51,135.41
2184,G#5,605.5,0.5,43,135.41
2185,G#5,606.0,2.0,43,135.41
2186,E-4,606.5,0.125,35,135.41
2187,E-3,607.0,0.125,33,135.41
2188,E-2,607.5,0.25,33,135.41
2189,G#5,608.0,0.5,43,135.41
2190,F#5,608.5,0.5,46,135.41
2191,G5,609.0,0.5,53,135.41
2192,D5,609.5,0.5,45,135.41
2193,F5,610.0,0.5,50,135.41
2194,E-5,610.5,229/500,43,135.41
2195,E-5,611.0,229/500,43,135.41
2196,C5,611.5,0.25,63,135.41
2197,C#5,611.75,0.25,57,135.41
2198,E-5,612.0,0.188,63,135.41
2199,E-5,612.5,0.188,64,135.41
2200,E-5,613.0,0.188,66,135.41
2201,E-6,613.5,0.188,82,135.41
2202,E-5,614.0,1.5,64,135.41
2203,C4,614.5,0.5,53,135.41
2204,B-3,615.0,0.5,53,135.41
2205,C#5,615.5,0.25,59,135.41
2206,G#3,615.5,0.5,50,135.41
2207,C5,615.75,0.25,56,135.41
2208,B-4,616.0,0.5,68,135.41
2209,G3,616.0,0.5,55,135.41
2210,E-6,616.5,0.5,74,135.41
2211,E-3,616.5,0.375,49,135.41
2212,C5,617.0,0.5,66,135.41
2213,G#3,617.0,0.5,51,135.41
2214,E-6,617.5,0.5,71,135.41
2215,E-3,617.5,0.375,47,135.41
2216,E-5,618.0,0.5,61,135.41
2217,B-3,618.0,0.5,51,135.41
2218,C#5,618.5,0.125,53,135.41
2219,E-3,618.5,0.375,47,135.41
2220,E-5,618.625,0.125,48,135.41
2221,C#5,618.75,0.25,53,135.41
2222,C5,619.0,0.5,61,135.41
2223,G#3,619.0,0.5,51,135.41
2224,C5,619.5,0.25,63,135.41
2225,C#5,619.75,0.25,57,135.41
2226,E-5,620.0,0.188,63,135.41
2227,E-5,620.5,0.188,61,135.41
2228,E-5,621.0,0.188,67,135.41
2229,E-6,621.5,0.188,82,135.41
2230,E-5,622.0,1.5,64,135.41
2231,C4,622.5,0.5,53,135.41
2232,B-3,623.0,0.5,53,135.41
2233,C#5,623.5,0.25,59,135.41
2234,G#3,623.5,0.5,50,135.41
2235,C5,623.75,0.25,56,135.41
2236,B-4,624.0,0.5,63,135.41
2237,C#4,624.0,0.5,55,135.41
2238,C#6,624.5,0.375,69,135.41
2239,B-3,624.5,0.375,49,135.41
2240,G4,625.0,0.5,61,135.41
2241,E-4,625.0,0.5,51,135.41
2242,B-4,625.5,0.375,52,135.41
2243,E-3,625.5,0.375,47,135.41
2244,G#4,626.0,1.0,63,135.41
2245,G#3,626.0,0.5,52,135.41
2246,G#2,626.5,0.5,44,135.41
2247,F5,627.0,0.25,69,135.41
2248,G#3,627.0,0.25,52,135.41
2249,C#4,627.0,0.25,52,135.41
2250,G#5,627.25,0.25,62,135.41
2251,F5,627.5,0.25,69,135.41
2252,C#4,627.5,0.25,44,135.41
2253,G#3,627.5,0.25,44,135.41
2254,G#5,627.75,0.25,61,135.41
2255,E-5,628.0,0.5,69,135.41
2256,G#3,628.0,0.25,52,135.41
2257,C4,628.0,0.25,52,135.41
2258,C4,628.5,0.25,44,135.41
2259,G#3,628.5,0.25,44,135.41
2260,C#5,629.0,0.25,69,135.41
2261,F4,629.0,0.25,52,135.41
2262,G#3,629.0,0.25,52,135.41
2263,G#5,629.25,0.25,62,135.41
2264,C#5,629.5,0.25,69,135.41
2265,G#3,629.5,0.25,44,135.41
2266,F4,629.5,0.25,44,135.41
2267,G#5,629.75,0.25,61,135.41
2268,C5,630.0,0.5,69,135.41
2269,G#3,630.0,0.25,52,135.41
2270,E-4,630.0,0.25,52,135.41
2271,G#3,630.5,0.25,44,135.41
2272,E-4,630.5,0.25,44,135.41
2273,F5,631.0,0.25,69,135.41
2274,G#3,631.0,0.25,52,135.41
2275,C#4,631.0,0.25,52,135.41
2276,G#5,631.25,0.25,62,135.41
2277,F5,631.5,0.25,69,135.41
2278,G#3,631.5,0.25,44,135.41
2279,C#4,631.5,0.25,44,135.41
2280,G#5,631.75,0.25,61,135.41
2281,E-5,632.0,0.5,69,135.41
2282,G#3,632.0,0.5,52,135.41
2283,C4,632.0,0.5,52,135.41
2284,C6,633.333,333/1000,56,135.41
2285,B-5,633.667,333/1000,56,135.41
2286,G#5,634.0,333/1000,61,135.41
2287,C2,634.0,1.0,28,135.41
2288,C3,634.0,1.0,28,135.41
2289,G5,634.333,333/1000,56,135.41
2290,F5,634.667,333/1000,56,135.41
2291,E-5,635.0,333/1000,61,135.41
2292,C#5,635.333,333/1000,55,135.41
2293,C5,635.667,333/1000,55,135.41
2294,B-4,636.0,0.5,61,135.41
2295,C#2,636.0,1.0,28,135.41
2296,C#3,636.0,1.0,28,135.41
2297,B-4,637.333,333/1000,47,135.41
2298,G#4,637.667,333/1000,47,135.41
2299,G4,638.0,333/1000,51,135.41
2300,E-2,638.0,1.0,28,135.41
2301,E-3,638.0,1.0,28,135.41
2302,F4,638.333,333/1000,47,135.41
2303,E-4,638.667,333/1000,47,135.41
2304,C#4,639.0,333/1000,51,135.41
2305,C4,639.333,333/1000,46,135.41
2306,B-3,639.667,333/1000,46,135.41
2307,G#3,640.0,0.188,43,135.41
2308,G#1,640.0,1.0,28,135.41
2309,G#2,640.0,1.0,28,135.41
2310,G#3,640.5,0.188,38,135.41
2311,G#3,641.0,0.25,43,135.41
2312,C4,641.25,0.25,39,135.41
2313,E-4,641.5,0.25,42,135.41
2314,C4,641.75,0.25,39,135.41
2315,G#3,642.0,0.188,43,135.41
2316,G#3,642.5,0.188,38,135.41
2317,G#3,643.0,0.25,43,135.41
2318,C4,643.25,0.25,39,135.41
2319,E-4,643.5,0.25,42,135.41
2320,C4,643.75,0.25,39,135.41
2321,G#3,644.0,0.25,49,135.41
2322,G#4,645.0,1.0,72,135.41
2323,E-4,645.0,1.0,72,135.41
2324,C4,645.0,1.0,72,135.41
2325,G#1,645.0,1.0,54,135.41
2326,G#2,645.0,1.0,54,135.41
