,note_name,start_time,duration,velocity,tempo
0,E5,0.0,1.75,45,199.5
1,C4,1.0,1.0,30,199.5
2,G4,1.0,1.0,30,199.5
3,F5,1.75,0.25,41,199.5
4,D5,2.0,0.75,45,199.5
5,G4,2.0,1.0,30,199.5
6,F4,2.0,1.0,30,199.5
7,E5,2.75,0.25,41,199.5
8,C5,3.0,0.25,45,199.5
9,E4,3.0,0.25,33,199.5
10,G4,3.0,0.25,33,199.5
11,G5,4.0,0.25,43,199.5
12,G5,5.0,0.25,43,199.5
13,G5,6.0,0.5,45,199.5
14,B3,6.0,2.0,30,199.5
15,G4,6.0,3.0,36,199.5
16,F5,6.5,0.25,41,199.5
17,F5,7.0,0.5,45,199.5
18,E5,7.5,0.25,41,199.5
19,E5,8.0,0.5,45,199.5
20,C4,8.0,1.0,33,199.5
21,D5,8.5,0.25,40,199.5
22,D5,9.0,0.25,45,199.5
23,G3,9.0,0.25,36,199.5
24,G4,9.0,1.0,36,199.5
25,B4,10.0,0.25,41,199.5
26,G4,11.0,0.25,41,199.5
27,E5,12.0,1.75,72,199.5
28,C4,13.0,1.0,44,199.5
29,G4,13.0,1.0,44,199.5
30,F5,13.75,0.25,59,199.5
31,D5,14.0,0.75,69,199.5
32,G4,14.0,1.0,44,199.5
33,F4,14.0,1.0,44,199.5
34,E5,14.75,0.25,64,199.5
35,C5,15.0,0.25,70,199.5
36,E4,15.0,0.25,48,199.5
37,G4,15.0,0.25,48,199.5
38,C6,16.0,0.25,70,199.5
39,C6,17.0,0.25,70,199.5
40,C4,17.0,0.25,44,199.5
41,E3,17.0,0.25,44,199.5
42,G#5,18.0,0.25,67,199.5
43,F3,18.0,0.25,48,199.5
44,C4,18.0,0.25,48,199.5
45,A5,18.25,0.25,59,199.5
46,E5,19.0,0.25,68,199.5
47,F5,19.25,0.25,59,199.5
48,D5,20.0,0.25,70,199.5
49,G3,20.0,0.25,44,199.5
50,F4,20.0,0.25,44,199.5
51,B4,20.25,0.25,58,199.5
52,C5,21.0,0.25,71,199.5
53,E4,21.0,0.25,48,199.5
54,C4,21.0,0.25,48,199.5
55,E5,24.0,1.75,45,199.5
56,C4,25.0,1.0,30,199.5
57,G4,25.0,1.0,30,199.5
58,F5,25.75,0.25,41,199.5
59,D5,26.0,0.75,45,199.5
60,G4,26.0,1.0,30,199.5
61,F4,26.0,1.0,30,199.5
62,E5,26.75,0.25,41,199.5
63,C5,27.0,0.25,45,199.5
64,E4,27.0,0.25,33,199.5
65,G4,27.0,0.25,33,199.5
66,G5,28.0,0.25,43,199.5
67,G5,29.0,0.25,43,199.5
68,G5,30.0,0.5,45,199.5
69,B3,30.0,2.0,30,199.5
70,G4,30.0,3.0,36,199.5
71,F5,30.5,0.25,41,199.5
72,F5,31.0,0.5,45,199.5
73,E5,31.5,0.25,41,199.5
74,E5,32.0,0.5,45,199.5
75,C4,32.0,1.0,33,199.5
76,D5,32.5,0.25,40,199.5
77,D5,33.0,0.25,45,199.5
78,G3,33.0,0.25,36,199.5
79,G4,33.0,1.0,36,199.5
80,B4,34.0,0.25,41,199.5
81,G4,35.0,0.25,41,199.5
82,E5,36.0,1.75,72,199.5
83,C4,37.0,1.0,44,199.5
84,G4,37.0,1.0,44,199.5
85,F5,37.75,0.25,59,199.5
86,D5,38.0,0.75,69,199.5
87,G4,38.0,1.0,44,199.5
88,F4,38.0,1.0,44,199.5
89,E5,38.75,0.25,64,199.5
90,C5,39.0,0.25,70,199.5
91,E4,39.0,0.25,48,199.5
92,G4,39.0,0.25,48,199.5
93,C6,40.0,0.25,70,199.5
94,C6,41.0,0.25,70,199.5
95,C4,41.0,0.25,44,199.5
96,E3,41.0,0.25,44,199.5
97,G#5,42.0,0.25,67,199.5
98,F3,42.0,0.25,48,199.5
99,C4,42.0,0.25,48,199.5
100,A5,42.25,0.25,59,199.5
101,E5,43.0,0.25,68,199.5
102,F5,43.25,0.25,59,199.5
103,D5,44.0,0.25,70,199.5
104,G3,44.0,0.25,44,199.5
105,F4,44.0,0.25,44,199.5
106,B4,44.25,0.25,58,199.5
107,C5,45.0,0.25,71,199.5
108,E4,45.0,0.25,48,199.5
109,C4,45.0,0.25,48,199.5
110,F5,48.0,1.75,45,199.5
111,B3,49.0,1.0,30,199.5
112,G4,49.0,1.0,30,199.5
113,G5,49.75,0.25,41,199.5
114,E5,50.0,0.75,45,199.5
115,G4,50.0,1.0,30,199.5
116,C4,50.0,1.0,30,199.5
117,F5,50.75,0.25,41,199.5
118,D5,51.0,0.25,45,199.5
119,G3,51.0,0.25,33,199.5
120,G4,51.0,0.25,33,199.5
121,B4,52.0,0.25,43,199.5
122,G4,53.0,0.25,43,199.5
123,C6,54.0,1.75,65,199.5
124,E4,55.0,1.0,42,199.5
125,G4,55.0,1.0,42,199.5
126,D6,55.75,0.25,57,199.5
127,B5,56.0,0.75,66,199.5
128,F#4,56.0,1.0,42,199.5
129,D4,56.0,1.0,42,199.5
130,C6,56.75,0.25,57,199.5
131,A5,57.0,1.75,65,199.5
132,C4,58.0,1.0,42,199.5
133,E4,58.0,1.0,42,199.5
134,B5,58.75,0.25,57,199.5
135,G5,59.0,0.75,66,199.5
136,D4,59.0,1.0,42,199.5
137,B3,59.0,1.0,42,199.5
138,A5,59.75,0.25,57,199.5
139,F#5,60.0,0.75,66,199.5
140,A3,60.0,2.0,50,199.5
141,C4,60.0,2.0,50,199.5
142,A5,60.692,0.25,61,199.5
143,C6,61.058,0.75,66,199.5
144,A5,61.75,0.25,62,199.5
145,F#5,62.0,0.75,66,199.5
146,D3,62.015,197/200,44,199.5
147,A5,62.75,0.25,63,199.5
148,G5,63.0,0.25,71,199.5
149,G3,63.0,0.75,56,199.5
150,D3,63.0,3/200,44,199.5
151,B3,63.75,0.25,50,199.5
152,G5,64.0,0.25,66,199.5
153,D4,64.0,0.75,57,199.5
154,G4,64.75,0.25,50,199.5
155,G5,65.0,0.25,66,199.5
156,B4,65.0,0.75,57,199.5
157,G4,65.75,0.25,53,199.5
158,F#5,66.0,0.75,66,199.5
159,A4,66.0,2.0,50,199.5
160,C5,66.0,2.0,50,199.5
161,A5,66.692,0.25,61,199.5
162,C6,67.058,0.75,66,199.5
163,A5,67.75,0.25,62,199.5
164,F#5,68.0,0.75,66,199.5
165,D4,68.015,197/200,44,199.5
166,A5,68.75,0.25,63,199.5
167,G5,69.0,0.25,71,199.5
168,G3,69.0,0.75,56,199.5
169,D4,69.0,3/200,44,199.5
170,B3,69.75,0.25,50,199.5
171,G5,70.0,0.25,66,199.5
172,D3,70.0,0.75,57,199.5
173,G3,70.75,0.25,50,199.5
174,G5,71.0,0.25,66,199.5
175,B2,71.0,0.75,57,199.5
176,D3,71.735,0.25,53,199.5
177,G5,72.0,1.75,71,199.5
178,G2,72.0,1.0,56,199.5
179,A5,73.75,0.25,41,199.5
180,F5,74.0,0.75,45,199.5
181,G5,74.75,0.25,41,199.5
182,E5,75.0,1.75,45,199.5
183,C4,76.0,1.0,30,199.5
184,G4,76.0,1.0,30,199.5
185,F5,76.75,0.25,41,199.5
186,D5,77.0,0.75,45,199.5
187,G4,77.0,1.0,30,199.5
188,F4,77.0,1.0,30,199.5
189,E5,77.75,0.25,41,199.5
190,C5,78.0,0.25,45,199.5
191,E4,78.0,0.25,33,199.5
192,G4,78.0,0.25,33,199.5
193,G5,79.0,0.25,43,199.5
194,G5,80.0,0.25,43,199.5
195,G5,81.0,0.5,45,199.5
196,B3,81.0,2.0,30,199.5
197,G4,81.0,3.0,36,199.5
198,F5,81.5,0.25,41,199.5
199,F5,82.0,0.5,45,199.5
200,E5,82.5,0.25,41,199.5
201,E5,83.0,0.5,45,199.5
202,C4,83.0,1.0,33,199.5
203,D5,83.5,0.25,40,199.5
204,D5,84.0,0.25,45,199.5
205,G3,84.0,0.25,36,199.5
206,G4,84.0,1.0,36,199.5
207,B4,85.0,0.25,41,199.5
208,G4,86.0,0.25,41,199.5
209,E5,87.0,1.75,72,199.5
210,C4,88.0,1.0,44,199.5
211,G4,88.0,1.0,44,199.5
212,F5,88.75,0.25,59,199.5
213,D5,89.0,0.75,69,199.5
214,G4,89.0,1.0,44,199.5
215,F4,89.0,1.0,44,199.5
216,E5,89.75,0.25,64,199.5
217,C5,90.0,0.25,70,199.5
218,E4,90.0,0.25,48,199.5
219,G4,90.0,0.25,48,199.5
220,C6,91.0,0.25,70,199.5
221,C6,92.0,0.25,70,199.5
222,C4,92.0,0.25,44,199.5
223,E3,92.0,0.25,44,199.5
224,G#5,93.0,0.25,67,199.5
225,F3,93.0,0.25,48,199.5
226,C4,93.0,0.25,48,199.5
227,A5,93.25,0.25,59,199.5
228,E5,94.0,0.25,68,199.5
229,F5,94.25,0.25,59,199.5
230,D5,95.0,0.25,70,199.5
231,G3,95.0,0.25,44,199.5
232,F4,95.0,0.25,44,199.5
233,B4,95.25,0.25,58,199.5
234,C5,96.0,0.25,71,199.5
235,E4,96.0,0.25,48,199.5
236,C4,96.0,0.25,48,199.5
237,F5,99.0,1.75,45,199.5
238,B3,100.0,1.0,30,199.5
239,G4,100.0,1.0,30,199.5
240,G5,100.75,0.25,41,199.5
241,E5,101.0,0.75,45,199.5
242,G4,101.0,1.0,30,199.5
243,C4,101.0,1.0,30,199.5
244,F5,101.75,0.25,41,199.5
245,D5,102.0,0.25,45,199.5
246,G3,102.0,0.25,33,199.5
247,G4,102.0,0.25,33,199.5
248,B4,103.0,0.25,43,199.5
249,G4,104.0,0.25,43,199.5
250,C6,105.0,1.75,65,199.5
251,E4,106.0,1.0,42,199.5
252,G4,106.0,1.0,42,199.5
253,D6,106.75,0.25,57,199.5
254,B5,107.0,0.75,66,199.5
255,F#4,107.0,1.0,42,199.5
256,D4,107.0,1.0,42,199.5
257,C6,107.75,0.25,57,199.5
258,A5,108.0,1.75,65,199.5
259,C4,109.0,1.0,42,199.5
260,E4,109.0,1.0,42,199.5
261,B5,109.75,0.25,57,199.5
262,G5,110.0,0.75,66,199.5
263,D4,110.0,1.0,42,199.5
264,B3,110.0,1.0,42,199.5
265,A5,110.75,0.25,57,199.5
266,F#5,111.0,0.75,66,199.5
267,A3,111.0,2.0,50,199.5
268,C4,111.0,2.0,50,199.5
269,A5,111.692,0.25,61,199.5
270,C6,112.058,0.75,66,199.5
271,A5,112.75,0.25,62,199.5
272,F#5,113.0,0.75,66,199.5
273,D3,113.015,197/200,44,199.5
274,A5,113.75,0.25,63,199.5
275,G5,114.0,0.25,71,199.5
276,G3,114.0,0.75,56,199.5
277,D3,114.0,3/200,44,199.5
278,B3,114.75,0.25,50,199.5
279,G5,115.0,0.25,66,199.5
280,D4,115.0,0.75,57,199.5
281,G4,115.75,0.25,50,199.5
282,G5,116.0,0.25,66,199.5
283,B4,116.0,0.75,57,199.5
284,G4,116.75,0.25,53,199.5
285,F#5,117.0,0.75,66,199.5
286,A4,117.0,2.0,50,199.5
287,C5,117.0,2.0,50,199.5
288,A5,117.692,0.25,61,199.5
289,C6,118.058,0.75,66,199.5
290,A5,118.75,0.25,62,199.5
291,F#5,119.0,0.75,66,199.5
292,D4,119.015,197/200,44,199.5
293,A5,119.75,0.25,63,199.5
294,G5,120.0,0.25,71,199.5
295,G3,120.0,0.75,56,199.5
296,D4,120.0,3/200,44,199.5
297,B3,120.75,0.25,50,199.5
298,G5,121.0,0.25,66,199.5
299,D3,121.0,0.75,57,199.5
300,G3,121.75,0.25,50,199.5
301,G5,122.0,0.25,66,199.5
302,B2,122.0,0.75,57,199.5
303,D3,122.735,0.25,53,199.5
304,G5,123.0,1.75,71,199.5
305,G2,123.0,1.0,56,199.5
306,A5,124.75,0.25,41,199.5
307,F5,125.0,0.75,45,199.5
308,G5,125.75,0.25,41,199.5
309,E5,126.0,1.75,45,199.5
310,C4,127.0,1.0,30,199.5
311,G4,127.0,1.0,30,199.5
312,F5,127.75,0.25,41,199.5
313,D5,128.0,0.75,45,199.5
314,G4,128.0,1.0,30,199.5
315,F4,128.0,1.0,30,199.5
316,E5,128.75,0.25,41,199.5
317,C5,129.0,0.25,45,199.5
318,E4,129.0,0.25,33,199.5
319,G4,129.0,0.25,33,199.5
320,G5,130.0,0.25,43,199.5
321,G5,131.0,0.25,43,199.5
322,G5,132.0,0.5,45,199.5
323,B3,132.0,2.0,30,199.5
324,G4,132.0,3.0,36,199.5
325,F5,132.5,0.25,41,199.5
326,F5,133.0,0.5,45,199.5
327,E5,133.5,0.25,41,199.5
328,E5,134.0,0.5,45,199.5
329,C4,134.0,1.0,33,199.5
330,D5,134.5,0.25,40,199.5
331,D5,135.0,0.25,45,199.5
332,G3,135.0,0.25,36,199.5
333,G4,135.0,1.0,36,199.5
334,B4,136.0,0.25,41,199.5
335,G4,137.0,0.25,41,199.5
336,E5,138.0,1.75,72,199.5
337,C4,139.0,1.0,44,199.5
338,G4,139.0,1.0,44,199.5
339,F5,139.75,0.25,59,199.5
340,D5,140.0,0.75,69,199.5
341,G4,140.0,1.0,44,199.5
342,F4,140.0,1.0,44,199.5
343,E5,140.75,0.25,64,199.5
344,C5,141.0,0.25,70,199.5
345,E4,141.0,0.25,48,199.5
346,G4,141.0,0.25,48,199.5
347,C6,142.0,0.25,70,199.5
348,C6,143.0,0.25,70,199.5
349,C4,143.0,0.25,44,199.5
350,E3,143.0,0.25,44,199.5
351,G#5,144.0,0.25,67,199.5
352,F3,144.0,0.25,48,199.5
353,C4,144.0,0.25,48,199.5
354,A5,144.25,0.25,59,199.5
355,E5,145.0,0.25,68,199.5
356,F5,145.25,0.25,59,199.5
357,D5,146.0,0.25,70,199.5
358,G3,146.0,0.25,44,199.5
359,F4,146.0,0.25,44,199.5
360,B4,146.25,0.25,58,199.5
361,C5,147.0,0.25,71,199.5
362,E4,147.0,0.25,48,199.5
363,C4,147.0,0.25,48,199.5
364,E5,150.0,1.75,45,199.5
365,C5,151.0,0.25,33,199.5
366,G5,151.75,0.25,41,199.5
367,F#5,152.0,0.75,45,199.5
368,A4,152.0,0.25,33,199.5
369,A5,152.75,0.25,41,199.5
370,G5,153.0,0.25,45,199.5
371,B4,153.0,0.25,36,199.5
372,D6,154.0,0.25,48,199.5
373,D6,155.0,0.25,48,199.5
374,D6,156.0,0.5,52,199.5
375,F#4,156.0,2.0,30,199.5
376,D5,156.0,3.0,36,199.5
377,C6,156.5,0.25,45,199.5
378,C6,157.0,0.5,52,199.5
379,B5,157.5,0.25,45,199.5
380,B5,158.0,0.5,52,199.5
381,G4,158.0,1.0,33,199.5
382,A5,158.5,0.25,44,199.5
383,A5,159.0,0.25,53,199.5
384,D4,159.0,0.25,36,199.5
385,D5,159.0,1.0,36,199.5
386,F#5,160.0,0.25,50,199.5
387,D5,161.0,0.25,48,199.5
388,G4,162.0,1.75,54,199.5
389,B5,163.0,0.25,45,199.5
390,G5,163.0,0.25,45,199.5
391,A4,163.75,0.25,49,199.5
392,F#4,164.0,0.75,55,199.5
393,B5,164.0,0.25,45,199.5
394,G5,164.0,0.25,45,199.5
395,G4,164.75,0.25,50,199.5
396,E4,165.0,0.75,56,199.5
397,B5,165.0,0.25,50,199.5
398,G5,165.0,0.25,50,199.5
399,F#4,165.75,0.25,52,199.5
400,D4,166.0,0.75,57,199.5
401,B5,166.0,0.25,45,199.5
402,G5,166.0,0.25,45,199.5
403,E4,166.75,0.25,53,199.5
404,C4,167.0,0.75,59,199.5
405,B5,167.0,0.25,45,199.5
406,G5,167.0,0.25,45,199.5
407,D4,167.75,0.25,54,199.5
408,B3,168.0,0.75,61,199.5
409,B5,168.0,1.0,58,199.5
410,G5,168.0,1.0,58,199.5
411,C4,168.75,0.25,56,199.5
412,A3,169.0,0.75,62,199.5
413,C6,169.0,1.0,50,199.5
414,A5,169.0,1.0,50,199.5
415,B3,169.75,0.25,57,199.5
416,G3,170.0,1.0,63,199.5
417,D6,170.0,1.0,50,199.5
418,B5,170.0,1.0,50,199.5
419,C6,171.0,333/1000,60,199.5
420,C4,171.0,1.0,61,199.5
421,A5,171.333,333/1000,51,199.5
422,E5,171.667,333/1000,51,199.5
423,B5,172.0,333/1000,59,199.5
424,D4,172.0,1.0,63,199.5
425,G5,172.333,333/1000,50,199.5
426,D5,172.667,333/1000,51,199.5
427,A5,173.0,333/1000,59,199.5
428,D4,173.0,1.0,65,199.5
429,F#5,173.333,333/1000,52,199.5
430,C5,173.667,333/1000,52,199.5
431,G4,174.0,1333/1000,74,199.5
432,B5,175.0,0.25,56,199.5
433,G5,175.0,0.25,56,199.5
434,A4,175.333,333/1000,56,199.5
435,G4,175.667,333/1000,56,199.5
436,F#4,176.0,333/1000,65,199.5
437,B5,176.0,0.25,54,199.5
438,G5,176.0,0.25,54,199.5
439,G4,176.333,333/1000,56,199.5
440,F#4,176.667,333/1000,57,199.5
441,E4,177.0,333/1000,65,199.5
442,B5,177.0,0.25,62,199.5
443,G5,177.0,0.25,62,199.5
444,F#4,177.333,333/1000,57,199.5
445,E4,177.667,333/1000,57,199.5
446,D4,178.0,333/1000,65,199.5
447,B5,178.0,0.25,56,199.5
448,G5,178.0,0.25,56,199.5
449,E4,178.333,333/1000,60,199.5
450,D4,178.667,333/1000,60,199.5
451,C4,179.0,333/1000,65,199.5
452,B5,179.0,0.25,54,199.5
453,G5,179.0,0.25,54,199.5
454,D4,179.333,333/1000,59,199.5
455,C4,179.667,333/1000,59,199.5
456,B3,180.0,333/1000,65,199.5
457,B5,180.0,1.0,68,199.5
458,G5,180.0,1.0,68,199.5
459,C4,180.333,333/1000,58,199.5
460,B3,180.667,333/1000,58,199.5
461,A3,181.0,333/1000,65,199.5
462,C6,181.0,1.0,66,199.5
463,A5,181.0,1.0,66,199.5
464,B3,181.333,333/1000,58,199.5
465,A3,181.667,333/1000,58,199.5
466,G3,182.0,1.0,65,199.5
467,D6,182.0,1.0,69,199.5
468,B5,182.0,1.0,69,199.5
469,C6,183.0,333/1000,75,199.5
470,C4,183.0,1.0,61,199.5
471,A5,183.333,333/1000,60,199.5
472,E5,183.667,333/1000,60,199.5
473,B5,184.0,333/1000,72,199.5
474,D4,184.0,1.0,63,199.5
475,G5,184.333,333/1000,57,199.5
476,D5,184.667,333/1000,57,199.5
477,A5,185.0,333/1000,70,199.5
478,D4,185.0,1.0,65,199.5
479,F#5,185.333,333/1000,58,199.5
480,C5,185.667,333/1000,58,199.5
481,B4,186.0,3.0,70,199.5
482,G5,186.0,3.0,70,199.5
483,G3,186.0,1.0,61,199.5
484,B4,189.0,2.0,70,199.5
485,G5,189.0,3.0,70,199.5
486,G4,189.0,1.75,54,199.5
487,A4,190.75,0.25,46,199.5
488,F4,191.0,0.75,52,199.5
489,G4,191.75,0.25,47,199.5
490,G5,192.0,1.75,54,199.5
491,E4,192.0,3.0,54,199.5
492,B-4,193.0,0.75,53,199.5
493,A5,193.75,0.25,49,199.5
494,C5,193.75,0.25,46,199.5
495,F5,194.0,0.75,55,199.5
496,A4,194.0,0.75,52,199.5
497,G5,194.75,0.25,50,199.5
498,B-4,194.75,0.25,52,199.5
499,E5,195.0,1.75,54,199.5
500,G4,195.0,1.0,54,199.5
501,E4,195.0,1.0,54,199.5
502,G4,196.0,1.0,46,199.5
503,B-4,196.0,1.0,46,199.5
504,F5,196.75,0.25,49,199.5
505,D5,197.0,0.75,55,199.5
506,F4,197.0,1.0,48,199.5
507,A4,197.0,1.0,48,199.5
508,E5,197.75,0.25,50,199.5
509,C#5,198.0,1.0,55,199.5
510,E4,198.0,1.0,48,199.5
511,G4,198.0,1.0,48,199.5
512,G3,199.0,0.75,53,199.5
513,B-4,199.0,1.0,55,199.5
514,C#5,199.0,1.0,55,199.5
515,A3,199.75,0.25,43,199.5
516,F3,200.0,0.75,53,199.5
517,A4,200.0,1.0,55,199.5
518,D5,200.0,1.0,55,199.5
519,G3,200.75,0.25,42,199.5
520,E3,201.0,0.75,53,199.5
521,G4,201.0,1.0,55,199.5
522,E5,201.0,1.0,55,199.5
523,F3,201.75,0.25,42,199.5
524,F5,202.0,0.75,55,199.5
525,F4,202.0,1.0,55,199.5
526,D3,202.0,1.0,53,199.5
527,G5,202.75,0.25,45,199.5
528,E5,203.0,0.75,55,199.5
529,E3,203.0,1.0,53,199.5
530,G3,203.0,1.0,53,199.5
531,F5,203.75,0.25,45,199.5
532,D5,204.0,1.75,60,199.5
533,F3,204.0,2.0,53,199.5
534,A3,204.0,3.0,53,199.5
535,E5,205.75,0.25,49,199.5
536,C5,206.0,0.75,56,199.5
537,F#3,206.0,1.0,53,199.5
538,D5,206.75,0.25,47,199.5
539,G4,207.0,1.0,55,199.5
540,B4,207.0,0.75,55,199.5
541,G3,207.0,1.0,53,199.5
542,D5,207.75,0.25,43,199.5
543,A4,208.0,1.0,52,199.5
544,C5,208.0,0.75,52,199.5
545,E5,208.75,0.25,36,199.5
546,B4,209.0,1.0,44,199.5
547,D5,209.0,0.75,44,199.5
548,F5,209.75,0.25,42,199.5
549,C5,210.0,2.0,40,199.5
550,E5,210.0,1.75,48,199.5
551,E4,211.0,1.0,30,199.5
552,C4,211.0,1.0,30,199.5
553,F5,211.75,0.25,41,199.5
554,B4,212.0,1.0,40,199.5
555,D5,212.0,0.75,45,199.5
556,G3,212.0,1.0,30,199.5
557,F4,212.0,1.0,30,199.5
558,E5,212.75,0.25,41,199.5
559,C5,213.0,0.25,45,199.5
560,C4,213.0,0.25,33,199.5
561,E4,213.0,0.25,33,199.5
562,G5,214.0,0.25,43,199.5
563,G5,215.0,0.25,43,199.5
564,G5,216.0,0.5,45,199.5
565,B3,216.0,2.0,30,199.5
566,G4,216.0,3.0,36,199.5
567,F5,216.5,0.25,41,199.5
568,F5,217.0,0.5,45,199.5
569,E5,217.5,0.25,41,199.5
570,E5,218.0,0.5,45,199.5
571,C4,218.0,1.0,33,199.5
572,D5,218.5,0.25,40,199.5
573,D5,219.0,0.25,45,199.5
574,G3,219.0,0.25,36,199.5
575,G4,219.0,1.0,36,199.5
576,B4,220.0,0.25,41,199.5
577,G4,221.0,0.25,41,199.5
578,E5,222.0,1.75,72,199.5
579,C4,223.0,1.0,44,199.5
580,G4,223.0,1.0,44,199.5
581,F5,223.75,0.25,59,199.5
582,D5,224.0,0.75,69,199.5
583,G4,224.0,1.0,44,199.5
584,F4,224.0,1.0,44,199.5
585,E5,224.75,0.25,64,199.5
586,C5,225.0,0.25,70,199.5
587,E4,225.0,0.25,48,199.5
588,G4,225.0,0.25,48,199.5
589,C6,226.0,0.25,70,199.5
590,C6,227.0,0.25,70,199.5
591,C4,227.0,0.25,44,199.5
592,E3,227.0,0.25,44,199.5
593,G#5,228.0,0.25,67,199.5
594,F3,228.0,0.25,48,199.5
595,C4,228.0,0.25,48,199.5
596,A5,228.25,0.25,59,199.5
597,E5,229.0,0.25,68,199.5
598,F5,229.25,0.25,59,199.5
599,D5,230.0,0.25,70,199.5
600,G3,230.0,0.25,44,199.5
601,F4,230.0,0.25,44,199.5
602,B4,230.25,0.25,58,199.5
603,C5,231.0,0.25,71,199.5
604,E4,231.0,0.25,48,199.5
605,C4,231.0,0.25,48,199.5
606,E5,234.0,1.75,45,199.5
607,C5,235.0,0.25,33,199.5
608,G5,235.75,0.25,41,199.5
609,F#5,236.0,0.75,45,199.5
610,A4,236.0,0.25,33,199.5
611,A5,236.75,0.25,41,199.5
612,G5,237.0,0.25,45,199.5
613,B4,237.0,0.25,36,199.5
614,D6,238.0,0.25,48,199.5
615,D6,239.0,0.25,48,199.5
616,D6,240.0,0.5,52,199.5
617,F#4,240.0,2.0,30,199.5
618,D5,240.0,3.0,36,199.5
619,C6,240.5,0.25,45,199.5
620,C6,241.0,0.5,52,199.5
621,B5,241.5,0.25,45,199.5
622,B5,242.0,0.5,52,199.5
623,G4,242.0,1.0,33,199.5
624,A5,242.5,0.25,44,199.5
625,A5,243.0,0.25,53,199.5
626,D4,243.0,0.25,36,199.5
627,D5,243.0,1.0,36,199.5
628,F#5,244.0,0.25,50,199.5
629,D5,245.0,0.25,48,199.5
630,G4,246.0,1.75,54,199.5
631,B5,247.0,0.25,45,199.5
632,G5,247.0,0.25,45,199.5
633,A4,247.75,0.25,49,199.5
634,F#4,248.0,0.75,55,199.5
635,B5,248.0,0.25,45,199.5
636,G5,248.0,0.25,45,199.5
637,G4,248.75,0.25,50,199.5
638,E4,249.0,0.75,56,199.5
639,B5,249.0,0.25,50,199.5
640,G5,249.0,0.25,50,199.5
641,F#4,249.75,0.25,52,199.5
642,D4,250.0,0.75,57,199.5
643,B5,250.0,0.25,45,199.5
644,G5,250.0,0.25,45,199.5
645,E4,250.75,0.25,53,199.5
646,C4,251.0,0.75,59,199.5
647,B5,251.0,0.25,45,199.5
648,G5,251.0,0.25,45,199.5
649,D4,251.75,0.25,54,199.5
650,B3,252.0,0.75,61,199.5
651,B5,252.0,1.0,58,199.5
652,G5,252.0,1.0,58,199.5
653,C4,252.75,0.25,56,199.5
654,A3,253.0,0.75,62,199.5
655,C6,253.0,1.0,50,199.5
656,A5,253.0,1.0,50,199.5
657,B3,253.75,0.25,57,199.5
658,G3,254.0,1.0,63,199.5
659,D6,254.0,1.0,50,199.5
660,B5,254.0,1.0,50,199.5
661,C6,255.0,333/1000,60,199.5
662,C4,255.0,1.0,61,199.5
663,A5,255.333,333/1000,51,199.5
664,E5,255.667,333/1000,51,199.5
665,B5,256.0,333/1000,59,199.5
666,D4,256.0,1.0,63,199.5
667,G5,256.333,333/1000,50,199.5
668,D5,256.667,333/1000,51,199.5
669,A5,257.0,333/1000,59,199.5
670,D4,257.0,1.0,65,199.5
671,F#5,257.333,333/1000,52,199.5
672,C5,257.667,333/1000,52,199.5
673,G4,258.0,1333/1000,74,199.5
674,B5,259.0,0.25,56,199.5
675,G5,259.0,0.25,56,199.5
676,A4,259.333,333/1000,56,199.5
677,G4,259.667,333/1000,56,199.5
678,F#4,260.0,333/1000,65,199.5
679,B5,260.0,0.25,54,199.5
680,G5,260.0,0.25,54,199.5
681,G4,260.333,333/1000,56,199.5
682,F#4,260.667,333/1000,57,199.5
683,E4,261.0,333/1000,65,199.5
684,G5,261.0,0.25,62,199.5
685,B5,261.0,0.25,62,199.5
686,F#4,261.333,333/1000,57,199.5
687,E4,261.667,333/1000,57,199.5
688,D4,262.0,333/1000,65,199.5
689,B5,262.0,0.25,56,199.5
690,G5,262.0,0.25,56,199.5
691,E4,262.333,333/1000,60,199.5
692,D4,262.667,333/1000,60,199.5
693,C4,263.0,333/1000,65,199.5
694,G5,263.0,0.25,54,199.5
695,B5,263.0,0.25,54,199.5
696,D4,263.333,333/1000,59,199.5
697,C4,263.667,333/1000,59,199.5
698,B3,264.0,333/1000,65,199.5
699,B5,264.0,1.0,68,199.5
700,G5,264.0,1.0,68,199.5
701,C4,264.333,333/1000,58,199.5
702,B3,264.667,333/1000,58,199.5
703,A3,265.0,333/1000,65,199.5
704,A5,265.0,1.0,66,199.5
705,C6,265.0,1.0,66,199.5
706,B3,265.333,333/1000,58,199.5
707,A3,265.667,333/1000,58,199.5
708,G3,266.0,1.0,65,199.5
709,D6,266.0,1.0,69,199.5
710,B5,266.0,1.0,69,199.5
711,C6,267.0,333/1000,75,199.5
712,C4,267.0,1.0,61,199.5
713,A5,267.333,333/1000,60,199.5
714,E5,267.667,333/1000,60,199.5
715,B5,268.0,333/1000,72,199.5
716,D4,268.0,1.0,63,199.5
717,G5,268.333,333/1000,57,199.5
718,D5,268.667,333/1000,57,199.5
719,A5,269.0,333/1000,70,199.5
720,D4,269.0,1.0,65,199.5
721,F#5,269.333,333/1000,58,199.5
722,C5,269.667,333/1000,58,199.5
723,G5,270.0,3.0,70,199.5
724,B4,270.0,3.0,70,199.5
725,G3,270.0,1.0,61,199.5
726,G5,273.0,3.0,70,199.5
727,B4,273.0,2.0,70,199.5
728,G4,273.0,1.75,54,199.5
729,A4,274.75,0.25,46,199.5
730,F4,275.0,0.75,52,199.5
731,G4,275.75,0.25,47,199.5
732,G5,276.0,1.75,54,199.5
733,E4,276.0,3.0,54,199.5
734,B-4,277.0,0.75,53,199.5
735,A5,277.75,0.25,49,199.5
736,C5,277.75,0.25,46,199.5
737,F5,278.0,0.75,55,199.5
738,A4,278.0,0.75,52,199.5
739,G5,278.75,0.25,50,199.5
740,B-4,278.75,0.25,52,199.5
741,E5,279.0,1.75,54,199.5
742,G4,279.0,1.0,54,199.5
743,E4,279.0,1.0,54,199.5
744,G4,280.0,1.0,46,199.5
745,B-4,280.0,1.0,46,199.5
746,F5,280.75,0.25,49,199.5
747,D5,281.0,0.75,55,199.5
748,F4,281.0,1.0,48,199.5
749,A4,281.0,1.0,48,199.5
750,E5,281.75,0.25,50,199.5
751,C#5,282.0,1.0,55,199.5
752,E4,282.0,1.0,48,199.5
753,G4,282.0,1.0,48,199.5
754,G3,283.0,0.75,53,199.5
755,B-4,283.0,1.0,55,199.5
756,C#5,283.0,1.0,55,199.5
757,A3,283.75,0.25,43,199.5
758,F3,284.0,0.75,53,199.5
759,D5,284.0,1.0,55,199.5
760,A4,284.0,1.0,55,199.5
761,G3,284.75,0.25,42,199.5
762,E3,285.0,0.75,53,199.5
763,G4,285.0,1.0,55,199.5
764,E5,285.0,1.0,55,199.5
765,F3,285.75,0.25,42,199.5
766,F4,286.0,1.0,55,199.5
767,F5,286.0,0.75,55,199.5
768,D3,286.0,1.0,53,199.5
769,G5,286.75,0.25,45,199.5
770,E5,287.0,0.75,55,199.5
771,E3,287.0,1.0,53,199.5
772,G3,287.0,1.0,53,199.5
773,F5,287.75,0.25,45,199.5
774,D5,288.0,1.75,60,199.5
775,F3,288.0,2.0,53,199.5
776,A3,288.0,3.0,53,199.5
777,E5,289.75,0.25,49,199.5
778,C5,290.0,0.75,56,199.5
779,F#3,290.0,1.0,53,199.5
780,D5,290.75,0.25,47,199.5
781,G4,291.0,1.0,55,199.5
782,B4,291.0,0.75,55,199.5
783,G3,291.0,1.0,53,199.5
784,D5,291.75,0.25,43,199.5
785,A4,292.0,1.0,52,199.5
786,C5,292.0,0.75,52,199.5
787,E5,292.75,0.25,36,199.5
788,B4,293.0,1.0,44,199.5
789,D5,293.0,0.75,44,199.5
790,F5,293.75,0.25,42,199.5
791,C5,294.0,2.0,40,199.5
792,E5,294.0,1.75,48,199.5
793,E4,295.0,1.0,30,199.5
794,C4,295.0,1.0,30,199.5
795,F5,295.75,0.25,41,199.5
796,B4,296.0,1.0,40,199.5
797,D5,296.0,0.75,45,199.5
798,G3,296.0,1.0,30,199.5
799,F4,296.0,1.0,30,199.5
800,E5,296.75,0.25,41,199.5
801,C5,297.0,0.25,45,199.5
802,C4,297.0,0.25,33,199.5
803,E4,297.0,0.25,33,199.5
804,G5,298.0,0.25,43,199.5
805,G5,299.0,0.25,43,199.5
806,G5,300.0,0.5,45,199.5
807,B3,300.0,2.0,30,199.5
808,G4,300.0,3.0,36,199.5
809,F5,300.5,0.25,41,199.5
810,F5,301.0,0.5,45,199.5
811,E5,301.5,0.25,41,199.5
812,E5,302.0,0.5,45,199.5
813,C4,302.0,1.0,33,199.5
814,D5,302.5,0.25,40,199.5
815,D5,303.0,0.25,45,199.5
816,G3,303.0,0.25,36,199.5
817,G4,303.0,1.0,36,199.5
818,B4,304.0,0.25,41,199.5
819,G4,305.0,0.25,41,199.5
820,E5,306.0,1.75,72,199.5
821,C4,307.0,1.0,44,199.5
822,G4,307.0,1.0,44,199.5
823,F5,307.75,0.25,59,199.5
824,D5,308.0,0.75,69,199.5
825,G4,308.0,1.0,44,199.5
826,F4,308.0,1.0,44,199.5
827,E5,308.75,0.25,64,199.5
828,C5,309.0,0.25,70,199.5
829,E4,309.0,0.25,48,199.5
830,G4,309.0,0.25,48,199.5
831,C6,310.0,0.25,70,199.5
832,C6,311.0,0.25,70,199.5
833,C4,311.0,0.25,44,199.5
834,E3,311.0,0.25,44,199.5
835,G#5,312.0,0.25,67,199.5
836,F3,312.0,0.25,48,199.5
837,C4,312.0,0.25,48,199.5
838,A5,312.25,0.25,59,199.5
839,E5,313.0,0.25,68,199.5
840,F5,313.25,0.25,59,199.5
841,D5,314.0,0.25,70,199.5
842,G3,314.0,0.25,44,199.5
843,F4,314.0,0.25,44,199.5
844,B4,314.25,0.25,58,199.5
845,C5,315.0,0.25,71,199.5
846,E4,315.0,0.25,48,199.5
847,C4,315.0,0.25,48,199.5
848,C5,318.0,1.0,50,199.5
849,C2,318.0,0.5,40,199.5
850,C3,318.5,0.5,28,199.5
851,B4,319.0,1.0,48,199.5
852,D2,319.0,0.5,32,199.5
853,D3,319.5,0.5,28,199.5
854,C5,320.0,1.0,48,199.5
855,E-2,320.0,0.5,32,199.5
856,E-3,320.5,0.5,28,199.5
857,C5,321.0,3.0,50,199.5
858,D5,321.0,1.0,50,199.5
859,F2,321.0,0.5,40,199.5
860,F3,321.5,0.5,30,199.5
861,E-5,322.0,1.0,49,199.5
862,G2,322.0,0.5,34,199.5
863,G3,322.5,0.5,30,199.5
864,F5,323.0,1.0,54,199.5
865,G#2,323.0,0.5,34,199.5
866,G#3,323.5,0.5,30,199.5
867,G2,324.0,0.5,40,199.5
868,C5,324.0,1.0,55,199.5
869,E-5,324.0,1.0,55,199.5
870,G3,324.5,0.5,32,199.5
871,A2,325.0,0.5,37,199.5
872,B4,325.0,1.0,45,199.5
873,D5,325.0,1.0,45,199.5
874,A3,325.5,0.5,34,199.5
875,B2,326.0,0.5,39,199.5
876,G4,326.0,1.0,54,199.5
877,G5,326.0,1.0,54,199.5
878,B3,326.5,0.5,34,199.5
879,C3,327.0,0.5,43,199.5
880,D5,327.0,1.0,52,199.5
881,F5,327.0,1.0,52,199.5
882,C4,327.5,0.5,31,199.5
883,E-3,328.0,0.5,36,199.5
884,C5,328.0,1.0,46,199.5
885,E-5,328.0,1.0,46,199.5
886,E-4,328.5,0.5,31,199.5
887,G3,329.0,0.5,31,199.5
888,B4,329.0,1.0,46,199.5
889,D5,329.0,1.0,46,199.5
890,G4,329.5,0.5,35,199.5
891,C5,330.0,0.5,59,199.5
892,G#3,330.0,3.0,37,199.5
893,G#4,330.0,3.0,37,199.5
894,F5,330.5,0.5,53,199.5
895,E5,331.0,0.5,57,199.5
896,G5,331.5,0.5,53,199.5
897,F5,332.0,0.5,57,199.5
898,C6,332.5,0.5,61,199.5
899,B-5,333.0,0.5,60,199.5
900,B-3,333.0,3.0,32,199.5
901,G#3,333.0,2.0,35,199.5
902,F4,333.0,2.0,35,199.5
903,D5,333.5,0.5,53,199.5
904,E-5,334.0,0.5,58,199.5
905,D5,334.5,0.5,53,199.5
906,E-5,335.0,0.5,58,199.5
907,G3,335.0,1.0,34,199.5
908,E-4,335.0,1.0,34,199.5
909,B-5,335.5,0.5,62,199.5
910,C5,336.0,0.5,61,199.5
911,G#3,336.0,1.0,46,199.5
912,G#5,336.5,0.5,53,199.5
913,G5,337.0,0.5,58,199.5
914,B-3,337.0,1.0,42,199.5
915,E-5,337.5,0.5,53,199.5
916,F5,338.0,0.5,59,199.5
917,B-2,338.0,1.0,44,199.5
918,D5,338.5,0.5,53,199.5
919,E-5,339.0,1.0,64,199.5
920,E-3,339.0,1.0,45,199.5
921,G3,340.0,0.5,46,199.5
922,F3,340.5,0.5,44,199.5
923,E-3,341.0,0.5,40,199.5
924,D3,341.5,0.5,36,199.5
925,C5,342.0,1.0,50,199.5
926,C2,342.0,0.5,40,199.5
927,C3,342.5,0.5,28,199.5
928,B4,343.0,1.0,48,199.5
929,D2,343.0,0.5,32,199.5
930,D3,343.5,0.5,28,199.5
931,C5,344.0,1.0,48,199.5
932,E-2,344.0,0.5,32,199.5
933,E-3,344.5,0.5,28,199.5
934,C5,345.0,3.0,50,199.5
935,D5,345.0,1.0,50,199.5
936,F2,345.0,0.5,40,199.5
937,F3,345.5,0.5,30,199.5
938,E-5,346.0,1.0,49,199.5
939,G2,346.0,0.5,34,199.5
940,G3,346.5,0.5,30,199.5
941,F5,347.0,1.0,54,199.5
942,G#2,347.0,0.5,34,199.5
943,G#3,347.5,0.5,30,199.5
944,G2,348.0,0.5,40,199.5
945,C5,348.0,1.0,55,199.5
946,E-5,348.0,1.0,55,199.5
947,G3,348.5,0.5,32,199.5
948,A2,349.0,0.5,37,199.5
949,B4,349.0,1.0,45,199.5
950,D5,349.0,1.0,45,199.5
951,A3,349.5,0.5,34,199.5
952,B2,350.0,0.5,39,199.5
953,G4,350.0,1.0,54,199.5
954,G5,350.0,1.0,54,199.5
955,B3,350.5,0.5,34,199.5
956,C3,351.0,0.5,43,199.5
957,D5,351.0,1.0,52,199.5
958,F5,351.0,1.0,52,199.5
959,C4,351.5,0.5,31,199.5
960,E-3,352.0,0.5,36,199.5
961,C5,352.0,1.0,46,199.5
962,E-5,352.0,1.0,46,199.5
963,E-4,352.5,0.5,31,199.5
964,G3,353.0,0.5,31,199.5
965,B4,353.0,1.0,46,199.5
966,D5,353.0,1.0,46,199.5
967,G4,353.5,0.5,35,199.5
968,C5,354.0,0.5,59,199.5
969,G#3,354.0,3.0,37,199.5
970,G#4,354.0,3.0,37,199.5
971,F5,354.5,0.5,53,199.5
972,E5,355.0,0.5,57,199.5
973,G5,355.5,0.5,53,199.5
974,F5,356.0,0.5,57,199.5
975,C6,356.5,0.5,61,199.5
976,B-5,357.0,0.5,60,199.5
977,B-3,357.0,3.0,32,199.5
978,G#3,357.0,2.0,35,199.5
979,F4,357.0,2.0,35,199.5
980,D5,357.5,0.5,53,199.5
981,E-5,358.0,0.5,58,199.5
982,D5,358.5,0.5,53,199.5
983,E-5,359.0,0.5,58,199.5
984,G3,359.0,1.0,34,199.5
985,E-4,359.0,1.0,34,199.5
986,B-5,359.5,0.5,62,199.5
987,C5,360.0,0.5,61,199.5
988,G#3,360.0,1.0,46,199.5
989,G#5,360.5,0.5,53,199.5
990,G5,361.0,0.5,58,199.5
991,B-3,361.0,1.0,42,199.5
992,E-5,361.5,0.5,53,199.5
993,F5,362.0,0.5,59,199.5
994,B-2,362.0,1.0,44,199.5
995,D5,362.5,0.5,53,199.5
996,E-5,363.0,1.0,64,199.5
997,E-3,363.0,1.0,45,199.5
998,B-2,364.0,1.0,46,199.5
999,E-2,365.0,1.0,41,199.5
1000,G4,366.0,3.0,55,199.5
1001,G5,366.0,0.5,67,199.5
1002,E-4,366.0,0.5,48,199.5
1003,F#5,366.5,0.5,57,199.5
1004,D4,366.5,0.5,43,199.5
1005,G5,367.0,0.5,67,199.5
1006,E-4,367.0,0.5,48,199.5
1007,E-5,367.5,0.5,57,199.5
1008,C4,367.5,0.5,43,199.5
1009,D5,368.0,0.5,67,199.5
1010,D4,368.0,0.5,48,199.5
1011,C5,368.5,0.5,60,199.5
1012,E-4,368.5,0.5,42,199.5
1013,B4,369.0,3.0,55,199.5
1014,G#4,369.0,0.5,67,199.5
1015,F4,369.0,0.5,43,199.5
1016,G4,369.5,0.5,58,199.5
1017,E4,369.5,0.5,36,199.5
1018,G#4,370.0,0.5,67,199.5
1019,F4,370.0,62/125,43,199.5
1020,F4,370.5,0.5,58,199.5
1021,D4,370.5,0.5,38,199.5
1022,G4,371.0,0.5,67,199.5
1023,E-4,371.0,0.5,43,199.5
1024,G#4,371.5,0.5,58,199.5
1025,F4,371.5,0.5,36,199.5
1026,G4,372.0,3.0,38,199.5
1027,G5,372.0,0.5,46,199.5
1028,E-4,372.0,0.5,33,199.5
1029,F#5,372.5,0.5,39,199.5
1030,D4,372.5,0.5,30,199.5
1031,G5,373.0,0.5,46,199.5
1032,E-4,373.0,0.5,33,199.5
1033,E-5,373.5,0.5,39,199.5
1034,C4,373.5,0.5,30,199.5
1035,D5,374.0,0.5,46,199.5
1036,D4,374.0,0.5,33,199.5
1037,C5,374.5,0.5,42,199.5
1038,E-4,374.5,0.5,29,199.5
1039,B4,375.0,3.0,38,199.5
1040,G#4,375.0,0.5,46,199.5
1041,F4,375.0,0.5,33,199.5
1042,G4,375.5,0.5,40,199.5
1043,E4,375.5,0.5,28,199.5
1044,G#4,376.0,0.5,47,199.5
1045,F4,376.0,62/125,33,199.5
1046,F4,376.5,0.5,42,199.5
1047,D4,376.5,0.5,31,199.5
1048,G4,377.0,0.5,49,199.5
1049,E-4,377.0,0.5,35,199.5
1050,G#4,377.5,0.5,43,199.5
1051,F4,377.5,0.5,30,199.5
1052,C5,378.0,3.0,42,199.5
1053,G4,378.0,0.5,51,199.5
1054,E-4,378.0,0.5,36,199.5
1055,F4,378.5,0.5,45,199.5
1056,D4,378.5,0.5,31,199.5
1057,G4,379.0,0.5,52,199.5
1058,E-4,379.0,62/125,37,199.5
1059,E-4,379.5,0.5,46,199.5
1060,C4,379.5,0.5,35,199.5
1061,F4,380.0,0.5,54,199.5
1062,D4,380.0,0.5,39,199.5
1063,G4,380.5,0.5,48,199.5
1064,E-4,380.5,0.5,33,199.5
1065,G4,381.0,3.0,46,199.5
1066,D5,381.0,0.5,56,199.5
1067,B3,381.0,0.5,44,199.5
1068,E-5,381.5,0.5,50,199.5
1069,C4,381.5,0.5,38,199.5
1070,F5,382.0,0.5,62,199.5
1071,D4,382.0,0.5,48,199.5
1072,D5,382.5,0.5,56,199.5
1073,B3,382.5,0.5,44,199.5
1074,E-5,383.0,0.5,67,199.5
1075,C4,383.0,0.5,54,199.5
1076,C5,383.5,0.5,63,199.5
1077,A3,383.5,0.5,48,199.5
1078,G4,384.0,3.0,73,199.5
1079,G5,384.0,3.0,73,199.5
1080,G3,384.0,3.0,62,199.5
1081,G4,387.0,1.0,73,199.5
1082,G5,387.0,1.75,73,199.5
1083,G3,387.0,1.0,62,199.5
1084,A5,388.75,0.25,41,199.5
1085,F5,389.0,0.75,45,199.5
1086,G5,389.75,0.25,41,199.5
1087,E5,390.0,1.75,45,199.5
1088,C4,391.0,1.0,30,199.5
1089,G4,391.0,1.0,30,199.5
1090,F5,391.75,0.25,41,199.5
1091,D5,392.0,0.75,45,199.5
1092,G4,392.0,1.0,30,199.5
1093,F4,392.0,1.0,30,199.5
1094,E5,392.75,0.25,41,199.5
1095,C5,393.0,0.25,45,199.5
1096,E4,393.0,0.25,33,199.5
1097,G4,393.0,0.25,33,199.5
1098,G5,394.0,0.25,43,199.5
1099,G5,395.0,0.25,43,199.5
1100,G5,396.0,0.5,45,199.5
1101,B3,396.0,2.0,30,199.5
1102,G4,396.0,3.0,36,199.5
1103,F5,396.5,0.25,41,199.5
1104,F5,397.0,0.5,45,199.5
1105,E5,397.5,0.25,41,199.5
1106,E5,398.0,0.5,45,199.5
1107,C4,398.0,1.0,33,199.5
1108,D5,398.5,0.25,40,199.5
1109,D5,399.0,0.25,45,199.5
1110,G3,399.0,0.25,36,199.5
1111,G4,399.0,1.0,36,199.5
1112,B4,400.0,0.25,41,199.5
1113,G4,401.0,0.25,41,199.5
1114,E5,402.0,1.75,72,199.5
1115,C4,403.0,1.0,44,199.5
1116,G4,403.0,1.0,44,199.5
1117,F5,403.75,0.25,59,199.5
1118,D5,404.0,0.75,69,199.5
1119,G4,404.0,1.0,44,199.5
1120,F4,404.0,1.0,44,199.5
1121,E5,404.75,0.25,64,199.5
1122,C5,405.0,0.25,70,199.5
1123,E4,405.0,0.25,48,199.5
1124,G4,405.0,0.25,48,199.5
1125,C6,406.0,0.25,70,199.5
1126,C6,407.0,0.25,70,199.5
1127,G#5,408.0,0.25,67,199.5
1128,F3,408.0,0.25,48,199.5
1129,C4,408.0,0.25,48,199.5
1130,A5,408.25,0.25,59,199.5
1131,E5,409.0,0.25,68,199.5
1132,F5,409.25,0.25,59,199.5
1133,D5,410.0,0.25,70,199.5
1134,G3,410.0,0.25,44,199.5
1135,F4,410.0,0.25,44,199.5
1136,B4,410.25,0.25,58,199.5
1137,C5,411.0,0.25,71,199.5
1138,E4,411.0,0.25,48,199.5
1139,C4,411.0,0.25,48,199.5
1140,F5,414.0,1.75,45,199.5
1141,B3,415.0,1.0,30,199.5
1142,G4,415.0,1.0,30,199.5
1143,G5,415.75,0.25,41,199.5
1144,E5,416.0,0.75,45,199.5
1145,G4,416.0,1.0,30,199.5
1146,C4,416.0,1.0,30,199.5
1147,F5,416.75,0.25,41,199.5
1148,D5,417.0,0.25,45,199.5
1149,G3,417.0,0.25,33,199.5
1150,G4,417.0,0.25,33,199.5
1151,B4,418.0,0.25,43,199.5
1152,G4,419.0,0.25,43,199.5
1153,C6,420.0,1.75,65,199.5
1154,E4,421.0,1.0,42,199.5
1155,G4,421.0,1.0,42,199.5
1156,D6,421.75,0.25,57,199.5
1157,B5,422.0,0.75,66,199.5
1158,F#4,422.0,1.0,42,199.5
1159,D4,422.0,1.0,42,199.5
1160,C6,422.75,0.25,57,199.5
1161,A5,423.0,1.75,65,199.5
1162,C4,424.0,1.0,42,199.5
1163,E4,424.0,1.0,42,199.5
1164,B5,424.75,0.25,57,199.5
1165,G5,425.0,0.75,66,199.5
1166,D4,425.0,1.0,42,199.5
1167,B3,425.0,1.0,42,199.5
1168,A5,425.75,0.25,57,199.5
1169,F#5,426.0,0.75,66,199.5
1170,A3,426.0,2.0,50,199.5
1171,C4,426.0,2.0,50,199.5
1172,A5,426.692,0.25,61,199.5
1173,C6,427.058,0.75,66,199.5
1174,A5,427.75,0.25,62,199.5
1175,F#5,428.0,0.75,66,199.5
1176,D3,428.015,197/200,44,199.5
1177,A5,428.75,0.25,63,199.5
1178,G5,429.0,0.25,71,199.5
1179,G3,429.0,0.75,56,199.5
1180,D3,429.0,3/200,44,199.5
1181,B3,429.75,0.25,50,199.5
1182,G5,430.0,0.25,66,199.5
1183,D4,430.0,0.75,57,199.5
1184,G4,430.75,0.25,50,199.5
1185,G5,431.0,0.25,66,199.5
1186,B4,431.0,0.75,57,199.5
1187,G4,431.75,0.25,53,199.5
1188,F#5,432.0,0.75,66,199.5
1189,A4,432.0,2.0,50,199.5
1190,C5,432.0,2.0,50,199.5
1191,A5,432.692,0.25,61,199.5
1192,C6,433.058,0.75,66,199.5
1193,A5,433.75,0.25,62,199.5
1194,F#5,434.0,0.75,66,199.5
1195,D4,434.015,197/200,44,199.5
1196,A5,434.75,0.25,63,199.5
1197,G5,435.0,0.25,71,199.5
1198,G3,435.0,0.75,56,199.5
1199,D4,435.0,3/200,44,199.5
1200,B3,435.75,0.25,50,199.5
1201,G5,436.0,0.25,66,199.5
1202,D3,436.0,0.75,57,199.5
1203,G3,436.75,0.25,50,199.5
1204,G5,437.0,0.25,66,199.5
1205,B2,437.0,0.75,57,199.5
1206,D3,437.735,0.25,53,199.5
1207,G5,438.0,1333/1000,71,199.5
1208,G2,438.0,1.0,56,199.5
1209,A5,439.333,333/1000,42,199.5
1210,G5,439.667,333/1000,42,199.5
1211,F5,440.0,333/1000,45,199.5
1212,G5,440.333,333/1000,40,199.5
1213,F5,440.667,333/1000,40,199.5
1214,E5,441.0,1333/1000,45,199.5
1215,C4,442.0,1.0,30,199.5
1216,G4,442.0,1.0,30,199.5
1217,F5,442.333,333/1000,41,199.5
1218,E5,442.667,333/1000,41,199.5
1219,D5,443.0,333/1000,45,199.5
1220,G4,443.0,1.0,30,199.5
1221,F4,443.0,1.0,30,199.5
1222,E5,443.333,333/1000,41,199.5
1223,D5,443.667,333/1000,41,199.5
1224,C5,444.0,0.25,45,199.5
1225,E4,444.0,0.25,33,199.5
1226,G4,444.0,0.25,33,199.5
1227,G5,444.5,0.25,44,199.5
1228,G5,445.0,0.25,46,199.5
1229,G5,445.5,0.25,48,199.5
1230,G5,446.0,0.25,51,199.5
1231,G5,446.5,0.25,53,199.5
1232,G5,447.0,0.5,55,199.5
1233,B3,447.0,2.0,30,199.5
1234,G4,447.0,3.0,36,199.5
1235,F#5,447.5,0.5,49,199.5
1236,F5,448.0,0.5,52,199.5
1237,E5,448.5,0.5,44,199.5
1238,E-5,449.0,0.5,47,199.5
1239,C4,449.0,1.0,33,199.5
1240,D5,449.5,0.5,43,199.5
1241,D5,450.0,0.25,50,199.5
1242,G3,450.0,0.25,36,199.5
1243,G4,450.0,1.0,36,199.5
1244,B4,451.0,0.25,41,199.5
1245,G4,452.0,0.25,41,199.5
1246,E5,453.0,1333/1000,72,199.5
1247,C4,454.0,1.0,44,199.5
1248,G4,454.0,1.0,44,199.5
1249,F5,454.333,333/1000,63,199.5
1250,E5,454.667,333/1000,63,199.5
1251,D5,455.0,333/1000,69,199.5
1252,G4,455.0,1.0,44,199.5
1253,F4,455.0,1.0,44,199.5
1254,E5,455.333,333/1000,65,199.5
1255,D5,455.667,333/1000,66,199.5
1256,C5,456.0,333/1000,70,199.5
1257,E4,456.0,0.25,48,199.5
1258,G4,456.0,0.25,48,199.5
1259,E5,456.333,333/1000,64,199.5
1260,G5,456.667,333/1000,65,199.5
1261,E5,457.0,333/1000,70,199.5
1262,G5,457.333,333/1000,66,199.5
1263,C6,457.667,333/1000,66,199.5
1264,G5,458.0,333/1000,70,199.5
1265,G3,458.0,0.25,44,199.5
1266,E3,458.0,0.25,44,199.5
1267,C6,458.333,333/1000,65,199.5
1268,E6,458.667,333/1000,65,199.5
1269,D5,459.0,1.0,76,199.5
1270,F3,459.0,0.25,48,199.5
1271,A3,459.0,0.25,48,199.5
1272,F5,460.0,0.75,68,199.5
1273,D5,460.75,0.25,63,199.5
1274,B4,461.0,0.75,70,199.5
1275,G3,461.0,0.25,44,199.5
1276,F4,461.0,0.25,44,199.5
1277,D5,461.75,0.25,64,199.5
1278,C5,462.0,333/1000,70,199.5
1279,E4,462.0,0.25,48,199.5
1280,G4,462.0,0.25,48,199.5
1281,E5,462.333,333/1000,64,199.5
1282,G5,462.667,333/1000,65,199.5
1283,E5,463.0,333/1000,70,199.5
1284,G5,463.333,333/1000,66,199.5
1285,C6,463.667,333/1000,66,199.5
1286,G5,464.0,333/1000,70,199.5
1287,G3,464.0,0.25,44,199.5
1288,E3,464.0,0.25,44,199.5
1289,C6,464.333,333/1000,65,199.5
1290,E6,464.667,333/1000,65,199.5
1291,D5,465.0,1.0,76,199.5
1292,F3,465.0,0.25,48,199.5
1293,A3,465.0,0.25,48,199.5
1294,F5,466.0,0.75,68,199.5
1295,D5,466.75,0.25,63,199.5
1296,B4,467.0,0.75,70,199.5
1297,G3,467.0,0.25,44,199.5
1298,F4,467.0,0.25,44,199.5
1299,D5,467.75,0.25,64,199.5
1300,C5,468.0,0.25,77,199.5
1301,E4,468.0,0.25,45,199.5
1302,C4,468.0,0.25,45,199.5
1303,C6,469.0,0.25,71,199.5
1304,E5,469.0,0.25,71,199.5
1305,C3,469.0,0.25,49,199.5
1306,C4,469.0,0.25,49,199.5
1307,C6,470.0,0.25,68,199.5
1308,E5,470.0,0.25,68,199.5
1309,C3,470.0,0.25,48,199.5
1310,C4,470.0,0.25,48,199.5
1311,C6,471.0,1.0,70,199.5
1312,E5,471.0,1.0,70,199.5
1313,C3,471.0,1.0,49,199.5
1314,C4,471.0,1.0,49,199.5
