,note_name,start_time,duration,velocity,tempo
0,F5,0.0,0.125,62,124.82
1,F2,0.0,1.0,36,124.82
2,F3,0.0,1.0,36,124.82
3,G5,0.125,0.125,48,124.82
4,F5,0.25,0.125,56,124.82
5,E5,0.375,0.125,48,124.82
6,F5,0.5,1.5,61,124.82
7,A3,1.0,1.0,31,124.82
8,A2,1.0,1.0,31,124.82
9,B-5,2.0,333/1000,55,124.82
10,C4,2.0,1.0,31,124.82
11,C3,2.0,1.0,31,124.82
12,G5,2.333,333/1000,46,124.82
13,E5,2.667,333/1000,45,124.82
14,F5,3.0,0.5,50,124.82
15,F3,3.0,1.0,38,124.82
16,F4,3.0,1.0,38,124.82
17,A5,3.5,0.5,43,124.82
18,C5,4.0,1.0,50,124.82
19,B-4,5.0,0.125,46,124.82
20,G4,5.0,1.0,34,124.82
21,C5,5.125,0.125,41,124.82
22,B-4,5.25,0.125,46,124.82
23,C5,5.375,0.125,41,124.82
24,B-4,5.5,167/1000,46,124.82
25,C5,5.667,167/1000,43,124.82
26,B-4,5.833,167/1000,43,124.82
27,A4,6.0,0.5,50,124.82
28,F4,6.0,1.0,41,124.82
29,C5,6.5,0.5,43,124.82
30,F5,7.0,333/1000,50,124.82
31,E5,7.333,333/1000,41,124.82
32,D5,7.667,333/1000,41,124.82
33,C5,8.0,333/1000,47,124.82
34,B-4,8.333,333/1000,40,124.82
35,A4,8.667,333/1000,40,124.82
36,G4,9.0,1.5,50,124.82
37,E4,9.0,1.0,41,124.82
38,C4,10.0,1.0,34,124.82
39,A4,10.5,0.25,43,124.82
40,B-4,10.75,0.25,38,124.82
41,A4,11.0,1.0,47,124.82
42,F4,11.0,1.0,41,124.82
43,F5,12.0,0.125,64,124.82
44,F3,12.0,1.0,39,124.82
45,G5,12.125,0.125,51,124.82
46,F5,12.25,0.125,56,124.82
47,E5,12.375,0.125,50,124.82
48,F5,12.5,1.5,57,124.82
49,A3,13.0,1.0,34,124.82
50,B-5,14.0,333/1000,50,124.82
51,C4,14.0,1.0,34,124.82
52,G5,14.333,333/1000,46,124.82
53,E5,14.667,333/1000,45,124.82
54,F5,15.0,0.5,50,124.82
55,F3,15.0,1.0,38,124.82
56,F4,15.0,1.0,38,124.82
57,A5,15.5,0.5,43,124.82
58,C5,16.0,1.0,50,124.82
59,A5,17.0,333/1000,50,124.82
60,F4,17.0,1.0,34,124.82
61,B5,17.333,333/1000,46,124.82
62,C6,17.667,0.312,46,124.82
63,C6,18.0,333/1000,54,124.82
64,E4,18.0,2.0,41,124.82
65,B5,18.333,333/1000,48,124.82
66,A5,18.667,333/1000,48,124.82
67,G5,19.0,1.0,53,124.82
68,A5,20.0,333/1000,50,124.82
69,F4,20.0,1.0,35,124.82
70,B5,20.333,333/1000,47,124.82
71,C6,20.667,0.312,47,124.82
72,C6,21.0,333/1000,53,124.82
73,E4,21.0,2.0,41,124.82
74,B5,21.333,333/1000,46,124.82
75,A5,21.667,333/1000,46,124.82
76,G5,22.0,333/1000,50,124.82
77,F5,22.333,333/1000,44,124.82
78,E5,22.667,333/1000,44,124.82
79,F5,23.0,333/1000,48,124.82
80,B3,23.0,1.0,35,124.82
81,B2,23.0,1.0,35,124.82
82,E5,23.333,333/1000,45,124.82
83,D5,23.667,333/1000,45,124.82
84,E5,24.0,333/1000,50,124.82
85,C3,24.0,1.0,38,124.82
86,C4,24.0,1.0,38,124.82
87,F5,24.333,333/1000,46,124.82
88,G5,24.667,333/1000,46,124.82
89,C5,25.0,1.0,50,124.82
90,E4,25.0,1.0,38,124.82
91,G3,25.0,1.0,38,124.82
92,B4,26.0,0.125,46,124.82
93,G3,26.0,1.0,31,124.82
94,D4,26.0,1.0,31,124.82
95,C5,26.125,0.125,41,124.82
96,B4,26.25,0.125,46,124.82
97,C5,26.375,0.125,41,124.82
98,B4,26.5,167/1000,46,124.82
99,C5,26.667,167/1000,43,124.82
100,B4,26.833,167/1000,43,124.82
101,C5,27.0,2.0,50,124.82
102,C4,27.0,1.0,41,124.82
103,G3,28.0,0.25,38,124.82
104,C3,29.0,1.0,39,124.82
105,F5,30.0,0.125,64,124.82
106,F2,30.0,1.0,36,124.82
107,F3,30.0,1.0,36,124.82
108,G5,30.125,0.125,51,124.82
109,F5,30.25,0.125,56,124.82
110,E5,30.375,0.125,51,124.82
111,F5,30.5,1.5,62,124.82
112,A3,31.0,1.0,31,124.82
113,A2,31.0,1.0,31,124.82
114,B-5,32.0,333/1000,50,124.82
115,C4,32.0,1.0,31,124.82
116,C3,32.0,1.0,31,124.82
117,G5,32.333,333/1000,46,124.82
118,E5,32.667,333/1000,45,124.82
119,F5,33.0,0.5,50,124.82
120,F3,33.0,1.0,38,124.82
121,F4,33.0,1.0,38,124.82
122,A5,33.5,0.5,43,124.82
123,C5,34.0,1.0,50,124.82
124,B-4,35.0,0.125,46,124.82
125,G4,35.0,1.0,34,124.82
126,C5,35.125,0.125,41,124.82
127,B-4,35.25,0.125,46,124.82
128,C5,35.375,0.125,41,124.82
129,B-4,35.5,167/1000,46,124.82
130,C5,35.667,167/1000,43,124.82
131,B-4,35.833,167/1000,43,124.82
132,A4,36.0,0.5,50,124.82
133,F4,36.0,1.0,41,124.82
134,C5,36.5,0.5,43,124.82
135,F5,37.0,333/1000,50,124.82
136,E5,37.333,333/1000,41,124.82
137,D5,37.667,333/1000,41,124.82
138,C5,38.0,333/1000,47,124.82
139,B-4,38.333,333/1000,40,124.82
140,A4,38.667,333/1000,40,124.82
141,G4,39.0,1.5,50,124.82
142,E4,39.0,1.0,41,124.82
143,C4,40.0,1.0,34,124.82
144,A4,40.5,0.25,43,124.82
145,B-4,40.75,0.25,38,124.82
146,A4,41.0,1.0,47,124.82
147,F4,41.0,1.0,41,124.82
148,F5,42.0,0.125,64,124.82
149,F3,42.0,1.0,39,124.82
150,G5,42.125,0.125,51,124.82
151,F5,42.25,0.125,56,124.82
152,E5,42.375,0.125,54,124.82
153,F5,42.5,1.5,65,124.82
154,A3,43.0,1.0,34,124.82
155,B-5,44.0,333/1000,58,124.82
156,C4,44.0,1.0,34,124.82
157,G5,44.333,333/1000,46,124.82
158,E5,44.667,333/1000,45,124.82
159,F5,45.0,0.5,50,124.82
160,F3,45.0,1.0,38,124.82
161,F4,45.0,1.0,38,124.82
162,A5,45.5,0.5,43,124.82
163,C5,46.0,1.0,50,124.82
164,A5,47.0,333/1000,50,124.82
165,F4,47.0,1.0,34,124.82
166,B5,47.333,333/1000,46,124.82
167,C6,47.667,0.312,46,124.82
168,C6,48.0,333/1000,54,124.82
169,E4,48.0,2.0,41,124.82
170,B5,48.333,333/1000,48,124.82
171,A5,48.667,333/1000,48,124.82
172,G5,49.0,1.0,53,124.82
173,A5,50.0,333/1000,50,124.82
174,F4,50.0,1.0,35,124.82
175,B5,50.333,333/1000,47,124.82
176,C6,50.667,0.312,47,124.82
177,C6,51.0,333/1000,53,124.82
178,E4,51.0,2.0,41,124.82
179,B5,51.333,333/1000,46,124.82
180,A5,51.667,333/1000,46,124.82
181,G5,52.0,333/1000,50,124.82
182,F5,52.333,333/1000,44,124.82
183,E5,52.667,333/1000,44,124.82
184,F5,53.0,333/1000,48,124.82
185,B3,53.0,1.0,35,124.82
186,B2,53.0,1.0,35,124.82
187,E5,53.333,333/1000,45,124.82
188,D5,53.667,333/1000,45,124.82
189,E5,54.0,333/1000,50,124.82
190,C3,54.0,1.0,38,124.82
191,C4,54.0,1.0,38,124.82
192,F5,54.333,333/1000,46,124.82
193,G5,54.667,333/1000,46,124.82
194,C5,55.0,1.0,50,124.82
195,E4,55.0,1.0,38,124.82
196,G3,55.0,1.0,38,124.82
197,B4,56.0,0.125,46,124.82
198,G3,56.0,1.0,31,124.82
199,D4,56.0,1.0,31,124.82
200,C5,56.125,0.125,41,124.82
201,B4,56.25,0.125,46,124.82
202,C5,56.375,0.125,41,124.82
203,B4,56.5,167/1000,46,124.82
204,C5,56.667,167/1000,43,124.82
205,B4,56.833,167/1000,43,124.82
206,C5,57.0,2.0,50,124.82
207,C4,57.0,1.0,41,124.82
208,G3,58.0,0.25,38,124.82
209,C3,59.0,1.0,39,124.82
210,C5,60.0,2.0,50,124.82
211,C4,60.0,3.0,33,124.82
212,G4,61.0,1.0,34,124.82
213,G5,62.0,333/1000,50,124.82
214,B-4,62.0,1.0,34,124.82
215,E5,62.333,333/1000,46,124.82
216,C5,62.667,333/1000,45,124.82
217,A5,63.0,333/1000,50,124.82
218,A4,63.0,1.0,46,124.82
219,C4,63.0,2.0,33,124.82
220,F5,63.333,333/1000,45,124.82
221,C5,63.667,333/1000,45,124.82
222,B-5,64.0,333/1000,55,124.82
223,E4,64.0,1.0,41,124.82
224,A5,64.333,333/1000,48,124.82
225,G5,64.667,333/1000,48,124.82
226,A5,65.0,1.0,54,124.82
227,F4,65.0,1.0,47,124.82
228,G5,66.0,333/1000,53,124.82
229,B-3,66.0,2.0,46,124.82
230,B-5,66.333,333/1000,50,124.82
231,A5,66.667,333/1000,47,124.82
232,G5,67.0,333/1000,51,124.82
233,D6,67.333,333/1000,55,124.82
234,C6,67.667,333/1000,49,124.82
235,B-5,68.0,333/1000,54,124.82
236,B3,68.0,1.0,42,124.82
237,A5,68.333,333/1000,50,124.82
238,G5,68.667,333/1000,45,124.82
239,F5,69.0,0.5,50,124.82
240,C4,69.0,1.0,46,124.82
241,E5,69.5,1.5,43,124.82
242,G3,70.0,0.25,40,124.82
243,C3,71.0,1.0,35,124.82
244,C4,72.0,1.0,40,124.82
245,C5,72.5,1.0,45,124.82
246,G#4,73.0,1.0,37,124.82
247,G#5,73.5,1.0,53,124.82
248,F4,74.0,1.0,33,124.82
249,C5,74.5,0.5,48,124.82
250,C5,75.0,0.5,48,124.82
251,G4,75.0,1.0,41,124.82
252,B-4,75.5,0.5,40,124.82
253,G5,76.0,0.5,49,124.82
254,E4,76.0,1.0,33,124.82
255,B-4,76.5,1.0,40,124.82
256,F4,77.0,1.0,33,124.82
257,G#4,77.5,0.5,40,124.82
258,G#4,78.0,0.5,40,124.82
259,B-3,78.0,2.0,42,124.82
260,G4,78.5,0.5,43,124.82
261,C#5,79.0,0.5,50,124.82
262,B-4,79.5,0.5,46,124.82
263,G4,80.0,0.5,47,124.82
264,B3,80.0,1.0,41,124.82
265,F4,80.5,0.5,43,124.82
266,F4,81.0,0.5,47,124.82
267,C4,81.0,1.0,43,124.82
268,E4,81.5,1.5,39,124.82
269,G3,82.0,0.25,34,124.82
270,C3,83.0,1.0,37,124.82
271,F5,84.0,0.125,64,124.82
272,F2,84.0,1.0,36,124.82
273,F3,84.0,1.0,36,124.82
274,G5,84.125,0.125,51,124.82
275,F5,84.25,0.125,56,124.82
276,E5,84.375,0.125,51,124.82
277,F5,84.5,1.5,64,124.82
278,A3,85.0,1.0,31,124.82
279,A2,85.0,1.0,31,124.82
280,B-5,86.0,333/1000,55,124.82
281,C4,86.0,1.0,31,124.82
282,C3,86.0,1.0,31,124.82
283,G5,86.333,333/1000,46,124.82
284,E5,86.667,333/1000,45,124.82
285,F5,87.0,0.5,50,124.82
286,F3,87.0,1.0,38,124.82
287,F4,87.0,1.0,38,124.82
288,A5,87.5,0.5,43,124.82
289,C5,88.0,1.0,50,124.82
290,B-4,89.0,0.125,46,124.82
291,G4,89.0,1.0,34,124.82
292,C5,89.125,0.125,41,124.82
293,B-4,89.25,0.125,46,124.82
294,C5,89.375,0.125,41,124.82
295,B-4,89.5,167/1000,46,124.82
296,C5,89.667,167/1000,43,124.82
297,B-4,89.833,167/1000,43,124.82
298,A4,90.0,0.5,50,124.82
299,F4,90.0,1.0,41,124.82
300,C5,90.5,0.5,43,124.82
301,F5,91.0,333/1000,50,124.82
302,E5,91.333,333/1000,41,124.82
303,D5,91.667,333/1000,41,124.82
304,C5,92.0,333/1000,47,124.82
305,B-4,92.333,333/1000,40,124.82
306,A4,92.667,333/1000,40,124.82
307,G4,93.0,1.5,50,124.82
308,E4,93.0,1.0,41,124.82
309,C4,94.0,1.0,34,124.82
310,A4,94.5,0.25,43,124.82
311,B-4,94.75,0.25,38,124.82
312,A4,95.0,1.0,47,124.82
313,F4,95.0,1.0,41,124.82
314,F5,96.0,0.125,64,124.82
315,F2,96.0,1.0,36,124.82
316,F3,96.0,1.0,36,124.82
317,G5,96.125,0.125,51,124.82
318,F5,96.25,0.125,56,124.82
319,E5,96.375,0.125,54,124.82
320,F5,96.5,1.5,63,124.82
321,A2,97.0,1.0,31,124.82
322,A3,97.0,1.0,31,124.82
323,B-5,98.0,333/1000,55,124.82
324,C3,98.0,1.0,31,124.82
325,C4,98.0,1.0,31,124.82
326,G5,98.333,333/1000,46,124.82
327,E5,98.667,333/1000,45,124.82
328,F5,99.0,0.5,50,124.82
329,F3,99.0,1.0,38,124.82
330,F4,99.0,1.0,38,124.82
331,A5,99.5,0.5,43,124.82
332,C5,100.0,1.0,50,124.82
333,D5,101.0,333/1000,50,124.82
334,B-2,101.0,1.0,31,124.82
335,B-3,101.0,1.0,31,124.82
336,E5,101.333,333/1000,46,124.82
337,F5,101.667,0.312,46,124.82
338,F5,102.0,333/1000,54,124.82
339,A3,102.0,1.0,38,124.82
340,A2,102.0,1.0,38,124.82
341,E5,102.333,333/1000,48,124.82
342,D5,102.667,333/1000,48,124.82
343,C5,103.0,1.0,51,124.82
344,F4,103.0,1.0,24,124.82
345,F3,103.0,1.0,24,124.82
346,D5,104.0,333/1000,50,124.82
347,B-3,104.0,1.0,32,124.82
348,B-2,104.0,1.0,32,124.82
349,E5,104.333,333/1000,47,124.82
350,F5,104.667,0.312,47,124.82
351,F5,105.0,333/1000,53,124.82
352,A2,105.0,1.0,38,124.82
353,A3,105.0,1.0,38,124.82
354,E5,105.333,333/1000,46,124.82
355,D5,105.667,333/1000,43,124.82
356,C5,106.0,333/1000,57,124.82
357,F3,106.0,1.0,26,124.82
358,F4,106.0,1.0,26,124.82
359,F5,106.333,333/1000,49,124.82
360,A5,106.667,333/1000,53,124.82
361,C5,107.0,333/1000,57,124.82
362,E3,107.0,1.0,33,124.82
363,E4,107.0,1.0,33,124.82
364,G5,107.333,333/1000,49,124.82
365,B-5,107.667,333/1000,55,124.82
366,A5,108.0,333/1000,57,124.82
367,F3,108.0,1.0,34,124.82
368,F4,108.0,1.0,34,124.82
369,B-5,108.333,333/1000,46,124.82
370,C6,108.667,333/1000,46,124.82
371,F5,109.0,1.0,50,124.82
372,A3,109.0,1.0,38,124.82
373,C3,109.0,1.0,38,124.82
374,E5,110.0,0.125,46,124.82
375,C3,110.0,1.0,31,124.82
376,G3,110.0,1.0,31,124.82
377,F5,110.125,0.125,41,124.82
378,E5,110.25,0.125,46,124.82
379,F5,110.375,0.125,41,124.82
380,E5,110.5,167/1000,46,124.82
381,F5,110.667,167/1000,43,124.82
382,E5,110.833,167/1000,43,124.82
383,F5,111.0,2.0,50,124.82
384,F3,111.0,1.0,41,124.82
385,C3,112.0,0.25,38,124.82
386,F2,113.0,1.0,39,124.82
387,C5,114.0,2.0,50,124.82
388,C4,114.0,3.0,33,124.82
389,G4,115.0,1.0,34,124.82
390,G5,116.0,333/1000,50,124.82
391,B-4,116.0,1.0,34,124.82
392,E5,116.333,333/1000,46,124.82
393,C5,116.667,333/1000,45,124.82
394,A5,117.0,333/1000,50,124.82
395,A4,117.0,1.0,46,124.82
396,C4,117.0,2.0,33,124.82
397,F5,117.333,333/1000,45,124.82
398,C5,117.667,333/1000,45,124.82
399,B-5,118.0,333/1000,55,124.82
400,E4,118.0,1.0,41,124.82
401,A5,118.333,333/1000,48,124.82
402,G5,118.667,333/1000,48,124.82
403,A5,119.0,1.0,54,124.82
404,F4,119.0,1.0,47,124.82
405,G5,120.0,333/1000,53,124.82
406,B-3,120.0,2.0,46,124.82
407,B-5,120.333,333/1000,50,124.82
408,A5,120.667,333/1000,47,124.82
409,G5,121.0,333/1000,51,124.82
410,D6,121.333,333/1000,54,124.82
411,C6,121.667,333/1000,49,124.82
412,B-5,122.0,333/1000,54,124.82
413,B3,122.0,1.0,42,124.82
414,A5,122.333,333/1000,50,124.82
415,G5,122.667,333/1000,45,124.82
416,F5,123.0,0.5,50,124.82
417,C4,123.0,1.0,46,124.82
418,E5,123.5,1.5,43,124.82
419,G3,124.0,0.25,37,124.82
420,C3,125.0,1.0,32,124.82
421,C4,126.0,1.0,40,124.82
422,C5,126.5,1.0,45,124.82
423,G#4,127.0,1.0,37,124.82
424,G#5,127.5,1.0,53,124.82
425,F4,128.0,1.0,33,124.82
426,C5,128.5,0.5,48,124.82
427,C5,129.0,0.5,48,124.82
428,G4,129.0,1.0,41,124.82
429,B-4,129.5,0.5,40,124.82
430,G5,130.0,0.5,49,124.82
431,E4,130.0,1.0,33,124.82
432,B-4,130.5,1.0,40,124.82
433,F4,131.0,1.0,33,124.82
434,G#4,131.5,0.5,40,124.82
435,G#4,132.0,0.5,40,124.82
436,B-3,132.0,2.0,42,124.82
437,G4,132.5,0.5,43,124.82
438,C#5,133.0,0.5,50,124.82
439,B-4,133.5,0.5,46,124.82
440,G4,134.0,0.5,47,124.82
441,B3,134.0,1.0,41,124.82
442,F4,134.5,0.5,43,124.82
443,F4,135.0,0.5,47,124.82
444,C4,135.0,1.0,43,124.82
445,E4,135.5,1.5,39,124.82
446,G3,136.0,0.25,34,124.82
447,C3,137.0,1.0,37,124.82
448,F5,138.0,0.125,65,124.82
449,F2,138.0,1.0,36,124.82
450,F3,138.0,1.0,36,124.82
451,G5,138.125,0.125,51,124.82
452,F5,138.25,0.125,56,124.82
453,E5,138.375,0.125,53,124.82
454,F5,138.5,1.5,64,124.82
455,A3,139.0,1.0,31,124.82
456,A2,139.0,1.0,31,124.82
457,B-5,140.0,333/1000,55,124.82
458,C4,140.0,1.0,31,124.82
459,C3,140.0,1.0,31,124.82
460,G5,140.333,333/1000,46,124.82
461,E5,140.667,333/1000,45,124.82
462,F5,141.0,0.5,50,124.82
463,F3,141.0,1.0,38,124.82
464,F4,141.0,1.0,38,124.82
465,A5,141.5,0.5,43,124.82
466,C5,142.0,1.0,50,124.82
467,B-4,143.0,0.125,46,124.82
468,G4,143.0,1.0,34,124.82
469,C5,143.125,0.125,41,124.82
470,B-4,143.25,0.125,46,124.82
471,C5,143.375,0.125,41,124.82
472,B-4,143.5,167/1000,46,124.82
473,C5,143.667,167/1000,43,124.82
474,B-4,143.833,167/1000,43,124.82
475,A4,144.0,0.5,50,124.82
476,F4,144.0,1.0,41,124.82
477,C5,144.5,0.5,43,124.82
478,F5,145.0,333/1000,50,124.82
479,E5,145.333,333/1000,41,124.82
480,D5,145.667,333/1000,41,124.82
481,C5,146.0,333/1000,47,124.82
482,B-4,146.333,333/1000,40,124.82
483,A4,146.667,333/1000,40,124.82
484,G4,147.0,1.5,50,124.82
485,E4,147.0,1.0,41,124.82
486,C4,148.0,1.0,34,124.82
487,A4,148.5,0.25,43,124.82
488,B-4,148.75,0.25,38,124.82
489,A4,149.0,1.0,47,124.82
490,F4,149.0,1.0,41,124.82
491,F5,150.0,0.125,66,124.82
492,F2,150.0,1.0,36,124.82
493,F3,150.0,1.0,36,124.82
494,G5,150.125,0.125,51,124.82
495,F5,150.25,0.125,56,124.82
496,E5,150.375,0.125,54,124.82
497,F5,150.5,1.5,66,124.82
498,A2,151.0,1.0,31,124.82
499,A3,151.0,1.0,31,124.82
500,B-5,152.0,333/1000,55,124.82
501,C3,152.0,1.0,31,124.82
502,C4,152.0,1.0,31,124.82
503,G5,152.333,333/1000,46,124.82
504,E5,152.667,333/1000,45,124.82
505,F5,153.0,0.5,50,124.82
506,F3,153.0,1.0,38,124.82
507,F4,153.0,1.0,38,124.82
508,A5,153.5,0.5,43,124.82
509,C5,154.0,1.0,50,124.82
510,D5,155.0,333/1000,50,124.82
511,B-2,155.0,1.0,31,124.82
512,B-3,155.0,1.0,31,124.82
513,E5,155.333,333/1000,46,124.82
514,F5,155.667,0.312,46,124.82
515,F5,156.0,333/1000,54,124.82
516,A3,156.0,1.0,38,124.82
517,A2,156.0,1.0,38,124.82
518,E5,156.333,333/1000,48,124.82
519,D5,156.667,333/1000,48,124.82
520,C5,157.0,1.0,51,124.82
521,F4,157.0,1.0,24,124.82
522,F3,157.0,1.0,24,124.82
523,D5,158.0,333/1000,50,124.82
524,B-3,158.0,1.0,32,124.82
525,B-2,158.0,1.0,32,124.82
526,E5,158.333,333/1000,47,124.82
527,F5,158.667,0.312,47,124.82
528,F5,159.0,333/1000,53,124.82
529,A2,159.0,1.0,38,124.82
530,A3,159.0,1.0,38,124.82
531,E5,159.333,333/1000,46,124.82
532,D5,159.667,333/1000,43,124.82
533,C5,160.0,333/1000,53,124.82
534,F3,160.0,1.0,26,124.82
535,F4,160.0,1.0,26,124.82
536,F5,160.333,333/1000,47,124.82
537,A5,160.667,333/1000,50,124.82
538,C5,161.0,333/1000,56,124.82
539,E3,161.0,1.0,33,124.82
540,E4,161.0,1.0,33,124.82
541,G5,161.333,333/1000,49,124.82
542,B-5,161.667,333/1000,53,124.82
543,A5,162.0,333/1000,61,124.82
544,F3,162.0,1.0,34,124.82
545,F4,162.0,1.0,34,124.82
546,B-5,162.333,333/1000,46,124.82
547,C6,162.667,333/1000,46,124.82
548,F5,163.0,1.0,50,124.82
549,A3,163.0,1.0,38,124.82
550,C3,163.0,1.0,38,124.82
551,E5,164.0,0.125,46,124.82
552,C3,164.0,1.0,31,124.82
553,G3,164.0,1.0,31,124.82
554,F5,164.125,0.125,41,124.82
555,E5,164.25,0.125,46,124.82
556,F5,164.375,0.125,41,124.82
557,E5,164.5,167/1000,46,124.82
558,F5,164.667,167/1000,43,124.82
559,E5,164.833,167/1000,43,124.82
560,F5,165.0,2.0,55,124.82
561,F3,165.0,1.0,41,124.82
562,C3,166.0,0.25,38,124.82
563,F2,167.0,1.0,39,124.82
564,B-1,168.0,2.0,42,124.82
565,B-2,168.0,2.0,42,124.82
566,D5,169.0,1.0,46,124.82
567,F5,169.0,1.0,46,124.82
568,B-5,170.0,333/1000,50,124.82
569,E-4,170.0,1.0,34,124.82
570,A5,170.333,333/1000,46,124.82
571,G5,170.667,333/1000,45,124.82
572,F5,171.0,1.0,50,124.82
573,D4,171.0,1.0,46,124.82
574,D5,172.0,333/1000,55,124.82
575,B-3,172.0,1.0,41,124.82
576,E-5,172.333,333/1000,48,124.82
577,F5,172.667,333/1000,48,124.82
578,E-5,173.0,333/1000,55,124.82
579,C4,173.0,1.0,47,124.82
580,F5,173.333,333/1000,48,124.82
581,G5,173.667,333/1000,48,124.82
582,F5,174.0,1.0,53,124.82
583,D4,174.0,1.0,46,124.82
584,B-4,175.0,0.5,44,124.82
585,B-4,176.0,0.5,45,124.82
586,A4,177.0,333/1000,46,124.82
587,F3,177.0,1.0,36,124.82
588,E-4,177.0,1.0,36,124.82
589,B-4,177.333,333/1000,40,124.82
590,C5,177.667,333/1000,40,124.82
591,B-4,178.0,1.0,45,124.82
592,B-3,178.0,1.0,36,124.82
593,D4,178.0,1.0,36,124.82
594,C5,180.0,0.125,45,124.82
595,F3,180.0,333/1000,38,124.82
596,B-4,180.125,0.125,40,124.82
597,C5,180.25,0.75,46,124.82
598,A3,180.333,333/1000,28,124.82
599,C4,180.667,333/1000,26,124.82
600,A5,181.0,1.0,46,124.82
601,F3,181.0,333/1000,29,124.82
602,A3,181.333,333/1000,27,124.82
603,C4,181.667,333/1000,27,124.82
604,A4,182.0,1.0,38,124.82
605,F3,182.0,333/1000,33,124.82
606,A3,182.333,333/1000,27,124.82
607,C4,182.667,333/1000,27,124.82
608,B-4,183.0,0.125,45,124.82
609,E3,183.0,333/1000,38,124.82
610,A4,183.125,0.125,40,124.82
611,B-4,183.25,0.75,46,124.82
612,G3,183.333,333/1000,28,124.82
613,C4,183.667,333/1000,26,124.82
614,G5,184.0,1.0,46,124.82
615,E3,184.0,333/1000,29,124.82
616,G3,184.333,333/1000,27,124.82
617,C4,184.667,333/1000,27,124.82
618,B-4,185.0,1.0,38,124.82
619,E3,185.0,333/1000,33,124.82
620,G3,185.333,333/1000,27,124.82
621,C4,185.667,333/1000,27,124.82
622,A4,186.0,333/1000,51,124.82
623,F3,186.0,1.0,36,124.82
624,B-4,186.333,333/1000,41,124.82
625,C5,186.667,333/1000,41,124.82
626,F4,187.0,1.0,45,124.82
627,A3,187.0,1.0,33,124.82
628,C3,187.0,1.0,33,124.82
629,E4,188.0,0.125,41,124.82
630,C3,188.0,1.0,28,124.82
631,G3,188.0,1.0,28,124.82
632,F4,188.125,0.125,36,124.82
633,E4,188.25,0.125,41,124.82
634,F4,188.375,0.125,36,124.82
635,E4,188.5,167/1000,41,124.82
636,F4,188.667,167/1000,38,124.82
637,E4,188.833,167/1000,38,124.82
638,F4,189.0,2.0,49,124.82
639,F3,189.0,1.0,36,124.82
640,C3,190.0,0.25,34,124.82
641,F2,191.0,1.0,35,124.82
642,B-1,192.0,2.0,42,124.82
643,B-2,192.0,2.0,42,124.82
644,D5,193.0,1.0,46,124.82
645,F5,193.0,1.0,46,124.82
646,B-5,194.0,333/1000,50,124.82
647,E-4,194.0,1.0,34,124.82
648,A5,194.333,333/1000,46,124.82
649,G5,194.667,333/1000,45,124.82
650,F5,195.0,1.0,50,124.82
651,D4,195.0,1.0,46,124.82
652,D5,196.0,333/1000,55,124.82
653,B-3,196.0,1.0,41,124.82
654,E-5,196.333,333/1000,48,124.82
655,F5,196.667,333/1000,48,124.82
656,E-5,197.0,333/1000,55,124.82
657,C4,197.0,1.0,47,124.82
658,F5,197.333,333/1000,48,124.82
659,G5,197.667,333/1000,48,124.82
660,F5,198.0,1.0,53,124.82
661,D4,198.0,1.0,46,124.82
662,B-4,199.0,0.5,44,124.82
663,B-4,200.0,0.5,45,124.82
664,A4,201.0,333/1000,46,124.82
665,F3,201.0,1.0,36,124.82
666,E-4,201.0,1.0,36,124.82
667,B-4,201.333,333/1000,40,124.82
668,C5,201.667,333/1000,40,124.82
669,B-4,202.0,1.0,45,124.82
670,B-3,202.0,1.0,36,124.82
671,D4,202.0,1.0,36,124.82
672,C5,204.0,0.125,45,124.82
673,F3,204.0,333/1000,38,124.82
674,B-4,204.125,0.125,40,124.82
675,C5,204.25,0.75,46,124.82
676,A3,204.333,333/1000,28,124.82
677,C4,204.667,333/1000,26,124.82
678,A5,205.0,1.0,46,124.82
679,F3,205.0,333/1000,29,124.82
680,A3,205.333,333/1000,27,124.82
681,C4,205.667,333/1000,27,124.82
682,A4,206.0,1.0,38,124.82
683,F3,206.0,333/1000,33,124.82
684,A3,206.333,333/1000,27,124.82
685,C4,206.667,333/1000,27,124.82
686,B-4,207.0,0.125,45,124.82
687,E3,207.0,333/1000,38,124.82
688,A4,207.125,0.125,40,124.82
689,B-4,207.25,0.75,46,124.82
690,G3,207.333,333/1000,28,124.82
691,C4,207.667,333/1000,26,124.82
692,G5,208.0,1.0,46,124.82
693,E3,208.0,333/1000,29,124.82
694,G3,208.333,333/1000,27,124.82
695,C4,208.667,333/1000,27,124.82
696,B-4,209.0,1.0,38,124.82
697,E3,209.0,333/1000,33,124.82
698,G3,209.333,333/1000,27,124.82
699,C4,209.667,333/1000,27,124.82
700,A4,210.0,333/1000,51,124.82
701,F3,210.0,1.0,36,124.82
702,B-4,210.333,333/1000,41,124.82
703,C5,210.667,333/1000,41,124.82
704,F4,211.0,1.0,45,124.82
705,A3,211.0,1.0,33,124.82
706,C3,211.0,1.0,33,124.82
707,E4,212.0,0.125,41,124.82
708,C3,212.0,1.0,28,124.82
709,G3,212.0,1.0,28,124.82
710,F4,212.125,0.125,36,124.82
711,E4,212.25,0.125,41,124.82
712,F4,212.375,0.125,36,124.82
713,E4,212.5,167/1000,41,124.82
714,F4,212.667,167/1000,38,124.82
715,E4,212.833,167/1000,38,124.82
716,F4,213.0,2.0,49,124.82
717,F3,213.0,1.0,36,124.82
718,C3,214.0,0.25,34,124.82
719,F2,215.0,1.0,35,124.82
720,F5,216.0,333/1000,50,124.82
721,D3,216.0,1.0,42,124.82
722,E-5,216.333,333/1000,46,124.82
723,D5,216.667,333/1000,40,124.82
724,F5,217.0,333/1000,50,124.82
725,B-3,217.0,1.0,37,124.82
726,E-5,217.333,333/1000,45,124.82
727,D5,217.667,333/1000,41,124.82
728,C5,218.0,333/1000,51,124.82
729,D3,218.0,1.0,38,124.82
730,B-4,218.333,333/1000,46,124.82
731,G#4,218.667,333/1000,41,124.82
732,G4,219.0,1.0,54,124.82
733,E-3,219.0,1.0,47,124.82
734,C5,220.0,333/1000,50,124.82
735,G3,220.0,1.0,37,124.82
736,B4,220.333,333/1000,45,124.82
737,C5,220.667,333/1000,41,124.82
738,E-5,221.0,333/1000,53,124.82
739,C4,221.0,1.0,38,124.82
740,D5,221.333,333/1000,47,124.82
741,E-5,221.667,333/1000,47,124.82
742,G5,222.0,333/1000,50,124.82
743,E-3,222.0,1.0,42,124.82
744,F5,222.333,333/1000,46,124.82
745,E-5,222.667,333/1000,40,124.82
746,G5,223.0,333/1000,50,124.82
747,C4,223.0,1.0,37,124.82
748,F5,223.333,333/1000,45,124.82
749,E-5,223.667,333/1000,41,124.82
750,D5,224.0,333/1000,51,124.82
751,E3,224.0,1.0,38,124.82
752,C5,224.333,333/1000,46,124.82
753,B-4,224.667,0.312,41,124.82
754,B-4,225.0,0.5,50,124.82
755,F3,225.0,1.0,42,124.82
756,A4,225.5,1.5,43,124.82
757,C3,226.0,0.25,37,124.82
758,F2,227.0,1.0,33,124.82
759,F5,228.0,0.125,47,124.82
760,B-3,228.0,333/1000,38,124.82
761,E-5,228.125,0.125,42,124.82
762,F5,228.25,0.75,48,124.82
763,D4,228.333,333/1000,28,124.82
764,F4,228.667,333/1000,26,124.82
765,D6,229.0,1.0,48,124.82
766,B-3,229.0,333/1000,40,124.82
767,D4,229.333,333/1000,27,124.82
768,F4,229.667,333/1000,27,124.82
769,D5,230.0,1.0,39,124.82
770,B-3,230.0,333/1000,33,124.82
771,D4,230.333,333/1000,27,124.82
772,F4,230.667,333/1000,27,124.82
773,E-5,231.0,0.125,47,124.82
774,A3,231.0,333/1000,38,124.82
775,D5,231.125,0.125,42,124.82
776,E-5,231.25,0.75,48,124.82
777,C4,231.333,333/1000,28,124.82
778,F4,231.667,333/1000,26,124.82
779,C6,232.0,1.0,48,124.82
780,A3,232.0,333/1000,36,124.82
781,C4,232.333,333/1000,27,124.82
782,F4,232.667,333/1000,27,124.82
783,E-5,233.0,1.0,39,124.82
784,A3,233.0,333/1000,33,124.82
785,C4,233.333,333/1000,27,124.82
786,F4,233.667,333/1000,27,124.82
787,D5,234.0,333/1000,51,124.82
788,B-3,234.0,1.0,36,124.82
789,E-5,234.333,333/1000,41,124.82
790,F5,234.667,333/1000,41,124.82
791,B-4,235.0,1.0,45,124.82
792,D4,235.0,1.0,33,124.82
793,F3,235.0,1.0,33,124.82
794,A4,236.0,0.125,41,124.82
795,F3,236.0,1.0,28,124.82
796,C4,236.0,1.0,28,124.82
797,B-4,236.125,0.125,36,124.82
798,A4,236.25,0.125,41,124.82
799,B-4,236.375,0.125,36,124.82
800,A4,236.5,167/1000,41,124.82
801,B-4,236.667,167/1000,38,124.82
802,A4,236.833,167/1000,38,124.82
803,B-4,237.0,2.0,49,124.82
804,B-3,237.0,1.0,36,124.82
805,F3,238.0,0.25,34,124.82
806,B-2,239.0,1.0,35,124.82
807,F5,240.0,333/1000,50,124.82
808,D3,240.0,1.0,42,124.82
809,E-5,240.333,333/1000,46,124.82
810,D5,240.667,333/1000,40,124.82
811,F5,241.0,333/1000,50,124.82
812,B-3,241.0,1.0,37,124.82
813,E-5,241.333,333/1000,45,124.82
814,D5,241.667,333/1000,41,124.82
815,C5,242.0,333/1000,51,124.82
816,D3,242.0,1.0,38,124.82
817,B-4,242.333,333/1000,46,124.82
818,G#4,242.667,333/1000,41,124.82
819,G4,243.0,1.0,54,124.82
820,E-3,243.0,1.0,47,124.82
821,C5,244.0,333/1000,50,124.82
822,G3,244.0,1.0,37,124.82
823,B4,244.333,333/1000,45,124.82
824,C5,244.667,333/1000,41,124.82
825,E-5,245.0,333/1000,53,124.82
826,C4,245.0,1.0,38,124.82
827,D5,245.333,333/1000,47,124.82
828,E-5,245.667,333/1000,47,124.82
829,G5,246.0,333/1000,50,124.82
830,E-3,246.0,1.0,42,124.82
831,F5,246.333,333/1000,46,124.82
832,E-5,246.667,333/1000,40,124.82
833,G5,247.0,333/1000,50,124.82
834,C4,247.0,1.0,37,124.82
835,F5,247.333,333/1000,45,124.82
836,E-5,247.667,333/1000,41,124.82
837,D5,248.0,333/1000,51,124.82
838,E3,248.0,1.0,38,124.82
839,C5,248.333,333/1000,46,124.82
840,B-4,248.667,0.312,41,124.82
841,B-4,249.0,0.5,50,124.82
842,F3,249.0,1.0,42,124.82
843,A4,249.5,1.5,43,124.82
844,C3,250.0,0.25,37,124.82
845,F2,251.0,1.0,33,124.82
846,F5,252.0,0.125,47,124.82
847,B-3,252.0,333/1000,38,124.82
848,E-5,252.125,0.125,42,124.82
849,F5,252.25,0.75,48,124.82
850,D4,252.333,333/1000,28,124.82
851,F4,252.667,333/1000,26,124.82
852,D6,253.0,1.0,48,124.82
853,B-3,253.0,333/1000,40,124.82
854,D4,253.333,333/1000,27,124.82
855,F4,253.667,333/1000,27,124.82
856,D5,254.0,1.0,39,124.82
857,B-3,254.0,333/1000,33,124.82
858,D4,254.333,333/1000,27,124.82
859,F4,254.667,333/1000,27,124.82
860,E-5,255.0,0.125,47,124.82
861,A3,255.0,333/1000,38,124.82
862,D5,255.125,0.125,42,124.82
863,E-5,255.25,0.75,48,124.82
864,C4,255.333,333/1000,28,124.82
865,F4,255.667,333/1000,26,124.82
866,C6,256.0,1.0,48,124.82
867,A3,256.0,333/1000,36,124.82
868,C4,256.333,333/1000,27,124.82
869,F4,256.667,333/1000,27,124.82
870,E-5,257.0,1.0,39,124.82
871,A3,257.0,333/1000,33,124.82
872,C4,257.333,333/1000,27,124.82
873,F4,257.667,333/1000,27,124.82
874,D5,258.0,333/1000,51,124.82
875,B-3,258.0,1.0,36,124.82
876,E-5,258.333,333/1000,41,124.82
877,F5,258.667,333/1000,41,124.82
878,B-4,259.0,1.0,45,124.82
879,D4,259.0,1.0,33,124.82
880,F3,259.0,1.0,33,124.82
881,A4,260.0,0.125,41,124.82
882,F3,260.0,1.0,28,124.82
883,C4,260.0,1.0,28,124.82
884,B-4,260.125,0.125,36,124.82
885,A4,260.25,0.125,41,124.82
886,B-4,260.375,0.125,36,124.82
887,A4,260.5,167/1000,41,124.82
888,B-4,260.667,167/1000,38,124.82
889,A4,260.833,167/1000,38,124.82
890,B-4,261.0,2.0,49,124.82
891,B-3,261.0,1.0,36,124.82
892,F3,262.0,0.25,34,124.82
893,B-2,263.0,1.0,35,124.82
894,F5,264.0,0.125,64,124.82
895,F2,264.0,1.0,36,124.82
896,F3,264.0,1.0,36,124.82
897,G5,264.125,0.125,51,124.82
898,F5,264.25,0.125,56,124.82
899,E5,264.375,0.125,51,124.82
900,F5,264.5,1.5,62,124.82
901,A3,265.0,1.0,31,124.82
902,A2,265.0,1.0,31,124.82
903,B-5,266.0,333/1000,50,124.82
904,C4,266.0,1.0,31,124.82
905,C3,266.0,1.0,31,124.82
906,G5,266.333,333/1000,46,124.82
907,E5,266.667,333/1000,45,124.82
908,F5,267.0,0.5,50,124.82
909,F3,267.0,1.0,38,124.82
910,F4,267.0,1.0,38,124.82
911,A5,267.5,0.5,43,124.82
912,C5,268.0,1.0,50,124.82
913,B-4,269.0,0.125,46,124.82
914,G4,269.0,1.0,34,124.82
915,C5,269.125,0.125,41,124.82
916,B-4,269.25,0.125,46,124.82
917,C5,269.375,0.125,41,124.82
918,B-4,269.5,167/1000,46,124.82
919,C5,269.667,167/1000,43,124.82
920,B-4,269.833,167/1000,43,124.82
921,A4,270.0,0.5,50,124.82
922,F4,270.0,1.0,41,124.82
923,C5,270.5,0.5,43,124.82
924,F5,271.0,333/1000,50,124.82
925,E5,271.333,333/1000,41,124.82
926,D5,271.667,333/1000,41,124.82
927,C5,272.0,333/1000,47,124.82
928,B-4,272.333,333/1000,40,124.82
929,A4,272.667,333/1000,40,124.82
930,G4,273.0,1.5,50,124.82
931,E4,273.0,1.0,41,124.82
932,C4,274.0,1.0,34,124.82
933,A4,274.5,0.25,43,124.82
934,B-4,274.75,0.25,38,124.82
935,A4,275.0,1.0,47,124.82
936,F4,275.0,1.0,41,124.82
937,F5,276.0,0.125,64,124.82
938,F3,276.0,1.0,39,124.82
939,G5,276.125,0.125,51,124.82
940,F5,276.25,0.125,56,124.82
941,E5,276.375,0.125,54,124.82
942,F5,276.5,1.5,65,124.82
943,A3,277.0,1.0,34,124.82
944,B-5,278.0,333/1000,58,124.82
945,C4,278.0,1.0,34,124.82
946,G5,278.333,333/1000,46,124.82
947,E5,278.667,333/1000,45,124.82
948,F5,279.0,0.5,50,124.82
949,F3,279.0,1.0,38,124.82
950,F4,279.0,1.0,38,124.82
951,A5,279.5,0.5,43,124.82
952,C5,280.0,1.0,50,124.82
953,A5,281.0,333/1000,50,124.82
954,F4,281.0,1.0,34,124.82
955,B5,281.333,333/1000,46,124.82
956,C6,281.667,0.312,46,124.82
957,C6,282.0,333/1000,54,124.82
958,E4,282.0,2.0,41,124.82
959,B5,282.333,333/1000,48,124.82
960,A5,282.667,333/1000,48,124.82
961,G5,283.0,1.0,53,124.82
962,A5,284.0,333/1000,50,124.82
963,F4,284.0,1.0,35,124.82
964,B5,284.333,333/1000,47,124.82
965,C6,284.667,0.312,47,124.82
966,C6,285.0,333/1000,53,124.82
967,E4,285.0,2.0,41,124.82
968,B5,285.333,333/1000,46,124.82
969,A5,285.667,333/1000,46,124.82
970,G5,286.0,333/1000,50,124.82
971,F5,286.333,333/1000,44,124.82
972,E5,286.667,333/1000,44,124.82
973,F5,287.0,333/1000,48,124.82
974,B3,287.0,1.0,35,124.82
975,B2,287.0,1.0,35,124.82
976,E5,287.333,333/1000,45,124.82
977,D5,287.667,333/1000,45,124.82
978,E5,288.0,333/1000,50,124.82
979,C3,288.0,1.0,38,124.82
980,C4,288.0,1.0,38,124.82
981,F5,288.333,333/1000,46,124.82
982,G5,288.667,333/1000,46,124.82
983,C5,289.0,1.0,50,124.82
984,E4,289.0,1.0,38,124.82
985,G3,289.0,1.0,38,124.82
986,B4,290.0,0.125,46,124.82
987,G3,290.0,1.0,31,124.82
988,D4,290.0,1.0,31,124.82
989,C5,290.125,0.125,41,124.82
990,B4,290.25,0.125,46,124.82
991,C5,290.375,0.125,41,124.82
992,B4,290.5,167/1000,46,124.82
993,C5,290.667,167/1000,43,124.82
994,B4,290.833,167/1000,43,124.82
995,C5,291.0,2.0,50,124.82
996,C4,291.0,1.0,41,124.82
997,G3,292.0,0.25,38,124.82
998,C3,293.0,1.0,39,124.82
999,C5,294.0,2.0,50,124.82
1000,C4,294.0,3.0,33,124.82
1001,G4,295.0,1.0,34,124.82
1002,G5,296.0,333/1000,50,124.82
1003,B-4,296.0,1.0,34,124.82
1004,E5,296.333,333/1000,46,124.82
1005,C5,296.667,333/1000,45,124.82
1006,A5,297.0,333/1000,50,124.82
1007,A4,297.0,1.0,46,124.82
1008,C4,297.0,2.0,33,124.82
1009,F5,297.333,333/1000,45,124.82
1010,C5,297.667,333/1000,45,124.82
1011,B-5,298.0,333/1000,55,124.82
1012,E4,298.0,1.0,41,124.82
1013,A5,298.333,333/1000,48,124.82
1014,G5,298.667,333/1000,48,124.82
1015,A5,299.0,1.0,54,124.82
1016,F4,299.0,1.0,47,124.82
1017,G5,300.0,333/1000,53,124.82
1018,B-3,300.0,2.0,46,124.82
1019,B-5,300.333,333/1000,50,124.82
1020,A5,300.667,333/1000,47,124.82
1021,G5,301.0,333/1000,51,124.82
1022,D6,301.333,333/1000,55,124.82
1023,C6,301.667,333/1000,49,124.82
1024,B-5,302.0,333/1000,54,124.82
1025,B3,302.0,1.0,42,124.82
1026,A5,302.333,333/1000,50,124.82
1027,G5,302.667,333/1000,45,124.82
1028,F5,303.0,0.5,50,124.82
1029,C4,303.0,1.0,46,124.82
1030,E5,303.5,1.5,43,124.82
1031,G3,304.0,0.25,41,124.82
1032,C3,305.0,1.0,35,124.82
1033,C4,306.0,1.0,40,124.82
1034,C5,306.5,1.0,45,124.82
1035,G#4,307.0,1.0,37,124.82
1036,G#5,307.5,1.0,53,124.82
1037,F4,308.0,1.0,33,124.82
1038,C5,308.5,0.5,48,124.82
1039,C5,309.0,0.5,48,124.82
1040,G4,309.0,1.0,41,124.82
1041,B-4,309.5,0.5,40,124.82
1042,G5,310.0,0.5,49,124.82
1043,E4,310.0,1.0,33,124.82
1044,B-4,310.5,1.0,40,124.82
1045,F4,311.0,1.0,33,124.82
1046,G#4,311.5,0.5,40,124.82
1047,G#4,312.0,0.5,40,124.82
1048,B-3,312.0,2.0,42,124.82
1049,G4,312.5,0.5,43,124.82
1050,C#5,313.0,0.5,50,124.82
1051,B-4,313.5,0.5,46,124.82
1052,G4,314.0,0.5,47,124.82
1053,B3,314.0,1.0,41,124.82
1054,F4,314.5,0.5,43,124.82
1055,F4,315.0,0.5,47,124.82
1056,C4,315.0,1.0,43,124.82
1057,E4,315.5,1.5,39,124.82
1058,G3,316.0,0.25,34,124.82
1059,C3,317.0,1.0,37,124.82
1060,F5,318.0,0.125,65,124.82
1061,F2,318.0,1.0,36,124.82
1062,F3,318.0,1.0,36,124.82
1063,G5,318.125,0.125,51,124.82
1064,F5,318.25,0.125,56,124.82
1065,E5,318.375,0.125,53,124.82
1066,F5,318.5,1.5,64,124.82
1067,A3,319.0,1.0,31,124.82
1068,A2,319.0,1.0,31,124.82
1069,B-5,320.0,333/1000,55,124.82
1070,C4,320.0,1.0,31,124.82
1071,C3,320.0,1.0,31,124.82
1072,G5,320.333,333/1000,46,124.82
1073,E5,320.667,333/1000,45,124.82
1074,F5,321.0,0.5,50,124.82
1075,F3,321.0,1.0,38,124.82
1076,F4,321.0,1.0,38,124.82
1077,A5,321.5,0.5,43,124.82
1078,C5,322.0,1.0,50,124.82
1079,B-4,323.0,0.125,46,124.82
1080,G4,323.0,1.0,34,124.82
1081,C5,323.125,0.125,41,124.82
1082,B-4,323.25,0.125,46,124.82
1083,C5,323.375,0.125,41,124.82
1084,B-4,323.5,167/1000,46,124.82
1085,C5,323.667,167/1000,43,124.82
1086,B-4,323.833,167/1000,43,124.82
1087,A4,324.0,0.5,50,124.82
1088,F4,324.0,1.0,41,124.82
1089,C5,324.5,0.5,43,124.82
1090,F5,325.0,333/1000,50,124.82
1091,E5,325.333,333/1000,41,124.82
1092,D5,325.667,333/1000,41,124.82
1093,C5,326.0,333/1000,47,124.82
1094,B-4,326.333,333/1000,40,124.82
1095,A4,326.667,333/1000,40,124.82
1096,G4,327.0,1.5,50,124.82
1097,E4,327.0,1.0,41,124.82
1098,C4,328.0,1.0,34,124.82
1099,A4,328.5,0.25,43,124.82
1100,B-4,328.75,0.25,38,124.82
1101,A4,329.0,1.0,47,124.82
1102,F4,329.0,1.0,41,124.82
1103,F5,330.0,0.125,66,124.82
1104,F2,330.0,1.0,36,124.82
1105,F3,330.0,1.0,36,124.82
1106,G5,330.125,0.125,51,124.82
1107,F5,330.25,0.125,56,124.82
1108,E5,330.375,0.125,54,124.82
1109,F5,330.5,1.5,66,124.82
1110,A2,331.0,1.0,31,124.82
1111,A3,331.0,1.0,31,124.82
1112,B-5,332.0,333/1000,55,124.82
1113,C3,332.0,1.0,31,124.82
1114,C4,332.0,1.0,31,124.82
1115,G5,332.333,333/1000,46,124.82
1116,E5,332.667,333/1000,45,124.82
1117,F5,333.0,0.5,50,124.82
1118,F3,333.0,1.0,38,124.82
1119,F4,333.0,1.0,38,124.82
1120,A5,333.5,0.5,43,124.82
1121,C5,334.0,1.0,50,124.82
1122,D5,335.0,333/1000,50,124.82
1123,B-2,335.0,1.0,31,124.82
1124,B-3,335.0,1.0,31,124.82
1125,E5,335.333,333/1000,46,124.82
1126,F5,335.667,0.312,46,124.82
1127,F5,336.0,333/1000,54,124.82
1128,A3,336.0,1.0,38,124.82
1129,A2,336.0,1.0,38,124.82
1130,E5,336.333,333/1000,48,124.82
1131,D5,336.667,333/1000,48,124.82
1132,C5,337.0,1.0,51,124.82
1133,F4,337.0,1.0,24,124.82
1134,F3,337.0,1.0,24,124.82
1135,D5,338.0,333/1000,50,124.82
1136,B-3,338.0,1.0,32,124.82
1137,B-2,338.0,1.0,32,124.82
1138,E5,338.333,333/1000,47,124.82
1139,F5,338.667,0.312,47,124.82
1140,F5,339.0,333/1000,53,124.82
1141,A2,339.0,1.0,38,124.82
1142,A3,339.0,1.0,38,124.82
1143,E5,339.333,333/1000,46,124.82
1144,D5,339.667,333/1000,43,124.82
1145,C5,340.0,333/1000,53,124.82
1146,F3,340.0,1.0,26,124.82
1147,F4,340.0,1.0,26,124.82
1148,F5,340.333,333/1000,47,124.82
1149,A5,340.667,333/1000,50,124.82
1150,C5,341.0,333/1000,56,124.82
1151,E3,341.0,1.0,33,124.82
1152,E4,341.0,1.0,33,124.82
1153,G5,341.333,333/1000,49,124.82
1154,B-5,341.667,333/1000,53,124.82
1155,A5,342.0,333/1000,61,124.82
1156,F3,342.0,1.0,34,124.82
1157,F4,342.0,1.0,34,124.82
1158,B-5,342.333,333/1000,46,124.82
1159,C6,342.667,333/1000,46,124.82
1160,F5,343.0,1.0,50,124.82
1161,A3,343.0,1.0,38,124.82
1162,C3,343.0,1.0,38,124.82
1163,E5,344.0,0.125,46,124.82
1164,C3,344.0,1.0,31,124.82
1165,G3,344.0,1.0,31,124.82
1166,F5,344.125,0.125,41,124.82
1167,E5,344.25,0.125,46,124.82
1168,F5,344.375,0.125,41,124.82
1169,E5,344.5,167/1000,46,124.82
1170,F5,344.667,167/1000,43,124.82
1171,E5,344.833,167/1000,43,124.82
1172,F5,345.0,2.0,55,124.82
1173,F3,345.0,1.0,41,124.82
1174,C3,346.0,0.25,38,124.82
1175,F2,347.0,1.0,39,124.82
