,note_name,start_time,duration,velocity,tempo
0,E-5,2.0,0.25,72,119.23
1,E-5,2.75,0.188,61,119.23
2,E-5,3.0,1.0,72,119.23
3,C4,4.0,1.0,51,119.23
4,G#3,4.0,1.0,51,119.23
5,G#5,5.0,0.25,72,119.23
6,G#5,5.75,0.188,64,119.23
7,G#5,6.0,1.0,72,119.23
8,E-4,7.0,1.0,52,119.23
9,C4,7.0,1.0,52,119.23
10,F4,8.0,0.25,51,119.23
11,G#4,8.0,0.25,66,119.23
12,C5,8.0,0.25,66,119.23
13,F4,8.75,0.188,42,119.23
14,G#4,8.75,0.188,56,119.23
15,C5,8.75,0.188,56,119.23
16,F4,9.0,1.0,51,119.23
17,G#4,9.0,1.0,66,119.23
18,C5,9.0,1.0,66,119.23
19,C#4,10.0,0.25,48,119.23
20,C#5,10.0,0.25,62,119.23
21,B-4,10.0,0.25,62,119.23
22,B-3,11.0,0.25,44,119.23
23,C#5,11.0,0.25,57,119.23
24,F5,11.0,0.25,57,119.23
25,E-4,12.0,1979/1000,46,119.23
26,B-4,12.0,1979/1000,60,119.23
27,G4,12.0,1979/1000,60,119.23
28,E-4,14.0,0.25,72,119.23
29,C#4,14.0,1.0,46,119.23
30,E-4,14.75,0.188,51,119.23
31,G#4,15.0,0.25,72,119.23
32,E-4,15.0,0.25,48,119.23
33,C4,15.0,0.25,48,119.23
34,G#4,16.0,0.25,64,119.23
35,B-3,16.0,0.25,42,119.23
36,C#4,16.0,0.25,42,119.23
37,G#4,17.0,0.25,64,119.23
38,G#3,17.0,0.25,42,119.23
39,C4,17.0,0.25,42,119.23
40,B-4,18.0,1.0,72,119.23
41,G3,18.0,1.0,44,119.23
42,B-3,18.0,1.0,44,119.23
43,G#3,19.0,0.25,41,119.23
44,F3,19.0,0.25,41,119.23
45,B-4,20.0,0.25,72,119.23
46,G3,20.0,0.25,41,119.23
47,E-3,20.0,0.25,41,119.23
48,B-4,20.75,0.188,63,119.23
49,C5,21.0,0.25,72,119.23
50,G#3,21.0,0.25,52,119.23
51,C5,22.0,0.25,69,119.23
52,F3,22.0,0.25,46,119.23
53,B-3,23.0,0.25,56,119.23
54,G#4,23.0,0.25,68,119.23
55,D5,23.0,0.25,68,119.23
56,E-3,24.0,1.0,60,119.23
57,E-5,24.0,1.0,76,119.23
58,G4,24.0,1.0,76,119.23
59,E-5,26.0,0.25,72,119.23
60,E-5,26.75,0.188,61,119.23
61,E-5,27.0,1.0,72,119.23
62,C4,28.0,1.0,51,119.23
63,G#3,28.0,1.0,51,119.23
64,G#5,29.0,0.25,72,119.23
65,G#5,29.75,0.188,64,119.23
66,G#5,30.0,1.0,72,119.23
67,E-4,31.0,1.0,52,119.23
68,C4,31.0,1.0,52,119.23
69,F4,32.0,0.25,51,119.23
70,G#4,32.0,0.25,66,119.23
71,C5,32.0,0.25,66,119.23
72,F4,32.75,0.188,42,119.23
73,G#4,32.75,0.188,56,119.23
74,C5,32.75,0.188,56,119.23
75,F4,33.0,1.0,51,119.23
76,G#4,33.0,1.0,66,119.23
77,C5,33.0,1.0,66,119.23
78,C#4,34.0,0.25,48,119.23
79,C#5,34.0,0.25,62,119.23
80,B-4,34.0,0.25,62,119.23
81,B-3,35.0,0.25,44,119.23
82,C#5,35.0,0.25,57,119.23
83,F5,35.0,0.25,57,119.23
84,E-4,36.0,1979/1000,46,119.23
85,B-4,36.0,1979/1000,60,119.23
86,G4,36.0,1979/1000,60,119.23
87,E-4,38.0,0.25,72,119.23
88,C#4,38.0,1.0,46,119.23
89,E-4,38.75,0.188,51,119.23
90,G#4,39.0,0.25,72,119.23
91,E-4,39.0,0.25,48,119.23
92,C4,39.0,0.25,48,119.23
93,G#4,40.0,0.25,64,119.23
94,B-3,40.0,0.25,42,119.23
95,C#4,40.0,0.25,42,119.23
96,G#4,41.0,0.25,64,119.23
97,G#3,41.0,0.25,42,119.23
98,C4,41.0,0.25,42,119.23
99,B-4,42.0,1.0,72,119.23
100,G3,42.0,1.0,44,119.23
101,B-3,42.0,1.0,44,119.23
102,G#3,43.0,0.25,41,119.23
103,F3,43.0,0.25,41,119.23
104,B-4,44.0,0.25,72,119.23
105,G3,44.0,0.25,41,119.23
106,E-3,44.0,0.25,41,119.23
107,B-4,44.75,0.188,63,119.23
108,C5,45.0,0.25,72,119.23
109,G#3,45.0,0.25,52,119.23
110,C5,46.0,0.25,69,119.23
111,F3,46.0,0.25,46,119.23
112,B-3,47.0,0.25,56,119.23
113,G#4,47.0,0.25,68,119.23
114,D5,47.0,0.25,68,119.23
115,E-3,48.0,1.0,60,119.23
116,E-5,48.0,1.0,76,119.23
117,G4,48.0,1.0,76,119.23
118,E-5,50.0,0.25,72,119.23
119,E-5,50.75,0.188,61,119.23
120,E-5,51.0,0.25,72,119.23
121,E-5,52.0,0.25,60,119.23
122,F5,53.0,0.25,67,119.23
123,A4,53.0,1.0,38,119.23
124,E-5,53.0,1.0,46,119.23
125,F5,53.75,0.188,50,119.23
126,F5,54.0,1.0,61,119.23
127,B-4,54.0,2.0,50,119.23
128,E-5,54.0,1.0,46,119.23
129,B-5,55.0,0.75,59,119.23
130,D5,55.0,0.75,46,119.23
131,E-5,56.0,0.25,67,119.23
132,G4,56.0,1.0,38,119.23
133,C#5,56.0,1.0,46,119.23
134,E-5,56.75,0.188,50,119.23
135,E-5,57.0,1.0,61,119.23
136,G#4,57.0,2.0,50,119.23
137,C#5,57.0,1.0,46,119.23
138,G#5,58.0,0.75,59,119.23
139,C5,58.0,0.75,46,119.23
140,C5,59.0,0.25,67,119.23
141,C5,59.75,0.188,50,119.23
142,C5,60.0,1.0,61,119.23
143,F4,60.0,3.0,42,119.23
144,G#4,60.0,3.0,42,119.23
145,C#5,61.0,1.0,57,119.23
146,D5,62.0,1.0,59,119.23
147,E-5,63.0,0.25,72,119.23
148,E-4,63.0,0.25,42,119.23
149,G4,63.0,0.25,42,119.23
150,E-5,64.0,0.25,60,119.23
151,F5,65.0,0.75,67,119.23
152,B-3,65.0,1.0,41,119.23
153,D4,65.0,1.0,41,119.23
154,G#4,65.0,1.0,41,119.23
155,G5,65.75,0.25,50,119.23
156,E-5,66.0,0.25,72,119.23
157,E-4,66.0,0.25,42,119.23
158,G4,66.0,0.25,42,119.23
159,E-5,67.0,0.25,60,119.23
160,B-5,68.0,0.75,67,119.23
161,B-3,68.0,1.0,41,119.23
162,D4,68.0,1.0,41,119.23
163,G#4,68.0,1.0,41,119.23
164,B-5,68.75,0.25,50,119.23
165,E-5,69.0,0.25,72,119.23
166,E-4,69.0,0.25,42,119.23
167,G4,69.0,0.25,42,119.23
168,E-5,70.0,0.25,60,119.23
169,B-5,71.0,0.75,52,119.23
170,B-3,71.0,1.0,32,119.23
171,D4,71.0,1.0,32,119.23
172,G#4,71.0,1.0,32,119.23
173,B-5,71.75,0.25,39,119.23
174,E-5,72.0,1.0,57,119.23
175,E-4,72.0,1.0,33,119.23
176,G4,72.0,1.0,33,119.23
177,E-4,74.0,0.25,76,119.23
178,C4,74.0,0.25,76,119.23
179,E-4,74.75,0.188,69,119.23
180,C4,74.75,0.188,69,119.23
181,E-4,75.0,1.0,76,119.23
182,C4,75.0,1.0,76,119.23
183,G#2,76.0,1.0,64,119.23
184,G#3,76.0,1.0,64,119.23
185,C6,77.0,0.25,85,119.23
186,G#5,77.0,0.25,85,119.23
187,G#5,77.75,0.188,80,119.23
188,C6,77.75,0.188,80,119.23
189,C6,78.0,1.0,86,119.23
190,G#5,78.0,1.0,86,119.23
191,A4,80.0,0.25,66,119.23
192,C5,80.0,0.25,66,119.23
193,E-4,80.0,0.25,46,119.23
194,F#4,80.0,0.25,46,119.23
195,A4,80.75,0.188,56,119.23
196,C5,80.75,0.188,56,119.23
197,E-4,80.75,0.188,39,119.23
198,F#4,80.75,0.188,39,119.23
199,A4,81.0,1.0,66,119.23
200,C5,81.0,1.0,66,119.23
201,E-4,81.0,1.0,46,119.23
202,F#4,81.0,1.0,46,119.23
203,C#5,82.0,0.25,62,119.23
204,B-4,82.0,0.25,62,119.23
205,C#4,82.0,0.25,44,119.23
206,F4,82.0,0.25,44,119.23
207,G4,83.0,0.25,66,119.23
208,B-4,83.0,0.25,66,119.23
209,C#4,83.0,0.25,46,119.23
210,E-4,83.0,0.25,46,119.23
211,G4,83.75,0.188,56,119.23
212,B-4,83.75,0.188,56,119.23
213,C#4,83.75,0.188,39,119.23
214,E-4,83.75,0.188,39,119.23
215,C#4,84.0,1.0,42,119.23
216,E-4,84.0,1.25,51,119.23
217,G4,84.0,1.0,66,119.23
218,B-4,84.0,1.0,66,119.23
219,C4,85.0,0.25,40,119.23
220,C5,85.0,0.25,62,119.23
221,G#4,85.0,0.25,62,119.23
222,C5,86.0,0.25,66,119.23
223,E-5,86.0,0.25,66,119.23
224,C5,86.75,0.188,56,119.23
225,E-5,86.75,0.188,56,119.23
226,C5,87.0,1.0,66,119.23
227,E-5,87.0,1.0,66,119.23
228,C#5,88.0,0.25,62,119.23
229,F5,88.0,0.25,62,119.23
230,C#4,89.0,0.25,68,119.23
231,G4,89.0,0.25,68,119.23
232,E-3,89.0,0.25,52,119.23
233,B-3,89.0,0.25,52,119.23
234,G#4,90.0,1.0,76,119.23
235,C4,90.0,1.0,76,119.23
236,G#2,90.0,1.0,55,119.23
237,G#3,90.0,1.0,55,119.23
238,E-5,92.0,0.25,72,119.23
239,E-5,92.75,0.188,61,119.23
240,E-5,93.0,0.25,72,119.23
241,E-5,94.0,0.25,60,119.23
242,F5,95.0,0.25,67,119.23
243,A4,95.0,1.0,38,119.23
244,E-5,95.0,1.0,46,119.23
245,F5,95.75,0.188,50,119.23
246,F5,96.0,1.0,61,119.23
247,B-4,96.0,2.0,50,119.23
248,E-5,96.0,1.0,46,119.23
249,B-5,97.0,0.75,59,119.23
250,D5,97.0,0.75,46,119.23
251,E-5,98.0,0.25,67,119.23
252,G4,98.0,1.0,38,119.23
253,C#5,98.0,1.0,46,119.23
254,E-5,98.75,0.188,50,119.23
255,E-5,99.0,1.0,61,119.23
256,G#4,99.0,2.0,50,119.23
257,C#5,99.0,1.0,46,119.23
258,G#5,100.0,0.75,59,119.23
259,C5,100.0,0.75,46,119.23
260,C5,101.0,0.25,67,119.23
261,C5,101.75,0.188,50,119.23
262,C5,102.0,1.0,61,119.23
263,F4,102.0,3.0,42,119.23
264,G#4,102.0,3.0,42,119.23
265,C#5,103.0,1.0,57,119.23
266,D5,104.0,1.0,59,119.23
267,E-5,105.0,0.25,72,119.23
268,E-4,105.0,0.25,42,119.23
269,G4,105.0,0.25,42,119.23
270,E-5,106.0,0.25,60,119.23
271,F5,107.0,0.75,67,119.23
272,B-3,107.0,1.0,41,119.23
273,D4,107.0,1.0,41,119.23
274,G#4,107.0,1.0,41,119.23
275,G5,107.75,0.25,50,119.23
276,E-5,108.0,0.25,72,119.23
277,E-4,108.0,0.25,42,119.23
278,G4,108.0,0.25,42,119.23
279,E-5,109.0,0.25,60,119.23
280,B-5,110.0,0.75,67,119.23
281,B-3,110.0,1.0,41,119.23
282,D4,110.0,1.0,41,119.23
283,G#4,110.0,1.0,41,119.23
284,B-5,110.75,0.25,50,119.23
285,E-5,111.0,0.25,72,119.23
286,E-4,111.0,0.25,42,119.23
287,G4,111.0,0.25,42,119.23
288,E-5,112.0,0.25,60,119.23
289,B-5,113.0,0.75,52,119.23
290,B-3,113.0,1.0,32,119.23
291,D4,113.0,1.0,32,119.23
292,G#4,113.0,1.0,32,119.23
293,B-5,113.75,0.25,39,119.23
294,E-5,114.0,1.0,57,119.23
295,E-4,114.0,1.0,33,119.23
296,G4,114.0,1.0,33,119.23
297,E-4,116.0,0.25,76,119.23
298,C4,116.0,0.25,76,119.23
299,E-4,116.75,0.188,69,119.23
300,C4,116.75,0.188,69,119.23
301,E-4,117.0,1.0,76,119.23
302,C4,117.0,1.0,76,119.23
303,G#2,118.0,1.0,64,119.23
304,G#3,118.0,1.0,64,119.23
305,C6,119.0,0.25,85,119.23
306,G#5,119.0,0.25,85,119.23
307,G#5,119.75,0.188,80,119.23
308,C6,119.75,0.188,80,119.23
309,C6,120.0,1.0,86,119.23
310,G#5,120.0,1.0,86,119.23
311,A4,122.0,0.25,66,119.23
312,C5,122.0,0.25,66,119.23
313,E-4,122.0,0.25,46,119.23
314,F#4,122.0,0.25,46,119.23
315,A4,122.75,0.188,56,119.23
316,C5,122.75,0.188,56,119.23
317,E-4,122.75,0.188,39,119.23
318,F#4,122.75,0.188,39,119.23
319,A4,123.0,1.0,66,119.23
320,C5,123.0,1.0,66,119.23
321,E-4,123.0,1.0,46,119.23
322,F#4,123.0,1.0,46,119.23
323,C#5,124.0,0.25,62,119.23
324,B-4,124.0,0.25,62,119.23
325,C#4,124.0,0.25,44,119.23
326,F4,124.0,0.25,44,119.23
327,G4,125.0,0.25,66,119.23
328,B-4,125.0,0.25,66,119.23
329,C#4,125.0,0.25,46,119.23
330,E-4,125.0,0.25,46,119.23
331,G4,125.75,0.188,56,119.23
332,B-4,125.75,0.188,56,119.23
333,C#4,125.75,0.188,39,119.23
334,E-4,125.75,0.188,39,119.23
335,C#4,126.0,1.0,42,119.23
336,E-4,126.0,1.25,51,119.23
337,G4,126.0,1.0,66,119.23
338,B-4,126.0,1.0,66,119.23
339,C4,127.0,0.25,40,119.23
340,C5,127.0,0.25,62,119.23
341,G#4,127.0,0.25,62,119.23
342,C5,128.0,0.25,66,119.23
343,E-5,128.0,0.25,66,119.23
344,C5,128.75,0.188,56,119.23
345,E-5,128.75,0.188,56,119.23
346,C5,129.0,1.0,66,119.23
347,E-5,129.0,1.0,66,119.23
348,C#5,130.0,0.25,62,119.23
349,F5,130.0,0.25,62,119.23
350,C#4,131.0,0.25,68,119.23
351,G4,131.0,0.25,68,119.23
352,E-3,131.0,0.25,52,119.23
353,B-3,131.0,0.25,52,119.23
354,G#4,132.0,1.0,76,119.23
355,C4,132.0,1.0,76,119.23
356,G#2,132.0,1.0,55,119.23
357,G#3,132.0,1.0,55,119.23
358,C5,134.0,0.5,60,119.23
359,C#5,134.5,0.5,54,119.23
360,F5,135.0,0.5,60,119.23
361,G#3,135.0,0.5,34,119.23
362,E-5,135.5,0.5,55,119.23
363,E-4,135.5,0.5,28,119.23
364,C#5,136.0,0.5,58,119.23
365,C4,136.0,0.5,32,119.23
366,C5,136.5,0.25,53,119.23
367,E-4,136.5,0.5,28,119.23
368,C5,137.0,979/1000,55,119.23
369,G#3,137.0,0.5,32,119.23
370,E-4,137.5,0.5,28,119.23
371,C5,138.0,2.0,60,119.23
372,G#3,138.0,0.5,34,119.23
373,E-4,138.5,0.5,24,119.23
374,C4,139.0,0.5,28,119.23
375,E-4,139.5,0.5,24,119.23
376,G5,140.0,0.5,60,119.23
377,G#3,140.0,0.5,28,119.23
378,G#5,140.5,0.5,54,119.23
379,E-4,140.5,0.5,24,119.23
380,C6,141.0,0.5,60,119.23
381,G#3,141.0,0.5,34,119.23
382,G#5,141.5,0.5,55,119.23
383,E-4,141.5,0.5,28,119.23
384,G5,142.0,0.5,58,119.23
385,C4,142.0,0.5,32,119.23
386,F5,142.5,0.5,53,119.23
387,E-4,142.5,0.5,28,119.23
388,E-5,143.0,49/100,55,119.23
389,G#3,143.0,0.5,32,119.23
390,E-4,143.5,0.5,28,119.23
391,E-5,144.0,2.0,60,119.23
392,G#3,144.0,0.5,34,119.23
393,E-4,144.5,0.5,24,119.23
394,C4,145.0,0.5,28,119.23
395,E-4,145.5,0.5,24,119.23
396,G5,146.0,0.5,60,119.23
397,G#3,146.0,0.5,28,119.23
398,G#5,146.5,0.5,54,119.23
399,E-4,146.5,0.5,24,119.23
400,C6,147.0,0.5,60,119.23
401,G#3,147.0,0.5,34,119.23
402,G#5,147.5,0.5,55,119.23
403,D4,147.5,0.5,28,119.23
404,G5,148.0,0.5,58,119.23
405,B-3,148.0,0.5,32,119.23
406,F5,148.5,0.5,53,119.23
407,D4,148.5,0.5,28,119.23
408,E-5,149.0,0.5,55,119.23
409,G#3,149.0,0.5,32,119.23
410,D5,149.5,0.5,52,119.23
411,D4,149.5,0.5,28,119.23
412,B-5,150.0,2.0,60,119.23
413,G3,150.0,0.5,34,119.23
414,E-4,150.5,0.5,24,119.23
415,B-3,151.0,0.5,28,119.23
416,E-4,151.5,0.5,24,119.23
417,G#5,152.0,0.5,60,119.23
418,G3,152.0,0.5,28,119.23
419,G5,152.5,229/1000,54,119.23
420,E-4,152.5,0.5,24,119.23
421,G5,153.0,0.5,60,119.23
422,G#3,153.0,1.0,40,119.23
423,F5,153.5,0.188,55,119.23
424,E-5,154.0,0.5,58,119.23
425,F5,154.5,0.188,51,119.23
426,D5,155.0,0.5,55,119.23
427,B-3,155.0,1.0,36,119.23
428,F5,155.5,0.188,47,119.23
429,E-5,156.0,1.0,60,119.23
430,E-3,156.0,1.0,40,119.23
431,C5,158.0,0.5,60,119.23
432,C#5,158.5,0.5,54,119.23
433,F5,159.0,0.5,60,119.23
434,G#3,159.0,0.5,34,119.23
435,E-5,159.5,0.5,55,119.23
436,E-4,159.5,0.5,28,119.23
437,C#5,160.0,0.5,58,119.23
438,C4,160.0,0.5,32,119.23
439,C5,160.5,229/1000,53,119.23
440,E-4,160.5,0.5,28,119.23
441,C5,161.0,979/1000,55,119.23
442,G#3,161.0,0.5,32,119.23
443,E-4,161.5,0.5,28,119.23
444,C5,162.0,2.0,60,119.23
445,G#3,162.0,0.5,34,119.23
446,E-4,162.5,0.5,24,119.23
447,C4,163.0,0.5,28,119.23
448,E-4,163.5,0.5,24,119.23
449,G5,164.0,0.5,60,119.23
450,G#3,164.0,0.5,28,119.23
451,G#5,164.5,0.5,54,119.23
452,E-4,164.5,0.5,24,119.23
453,C6,165.0,0.5,60,119.23
454,G#3,165.0,0.5,34,119.23
455,G#5,165.5,0.5,55,119.23
456,E-4,165.5,0.5,28,119.23
457,G5,166.0,0.5,58,119.23
458,C4,166.0,0.5,32,119.23
459,F5,166.5,0.5,53,119.23
460,E-4,166.5,0.5,28,119.23
461,E-5,167.0,49/100,55,119.23
462,G#3,167.0,0.5,32,119.23
463,E-4,167.5,0.5,28,119.23
464,E-5,168.0,2.0,60,119.23
465,G#3,168.0,0.5,34,119.23
466,E-4,168.5,0.5,24,119.23
467,C4,169.0,0.5,28,119.23
468,E-4,169.5,0.5,24,119.23
469,G5,170.0,0.5,60,119.23
470,G#3,170.0,0.5,28,119.23
471,G#5,170.5,0.5,54,119.23
472,E-4,170.5,0.5,24,119.23
473,C6,171.0,0.5,60,119.23
474,G#3,171.0,0.5,34,119.23
475,G#5,171.5,0.5,55,119.23
476,D4,171.5,0.5,28,119.23
477,G5,172.0,0.5,58,119.23
478,B-3,172.0,0.5,32,119.23
479,F5,172.5,0.5,53,119.23
480,D4,172.5,0.5,28,119.23
481,E-5,173.0,0.5,55,119.23
482,G#3,173.0,0.5,32,119.23
483,D5,173.5,0.5,52,119.23
484,D4,173.5,0.5,28,119.23
485,B-5,174.0,2.0,60,119.23
486,G3,174.0,0.5,34,119.23
487,E-4,174.5,0.5,24,119.23
488,B-3,175.0,0.5,28,119.23
489,E-4,175.5,0.5,24,119.23
490,G#5,176.0,0.5,60,119.23
491,G3,176.0,0.5,28,119.23
492,G5,176.5,229/1000,54,119.23
493,E-4,176.5,0.5,24,119.23
494,G5,177.0,0.5,60,119.23
495,G#3,177.0,1.0,40,119.23
496,F5,177.5,0.188,55,119.23
497,E-5,178.0,0.5,58,119.23
498,F5,178.5,0.188,51,119.23
499,D5,179.0,0.5,55,119.23
500,B-3,179.0,1.0,36,119.23
501,F5,179.5,0.188,47,119.23
502,E-5,180.0,1.0,60,119.23
503,E-3,180.0,1.0,40,119.23
504,F5,182.0,0.5,60,119.23
505,E-5,182.5,0.375,54,119.23
506,E-5,183.0,0.5,60,119.23
507,E-4,183.0,1.0,40,119.23
508,C#5,183.5,0.25,55,119.23
509,C#5,184.0,0.5,58,119.23
510,G4,184.0,1.0,36,119.23
511,E-5,184.5,0.25,51,119.23
512,C5,185.0,0.5,55,119.23
513,G#4,185.0,1.0,36,119.23
514,C#5,185.5,0.25,47,119.23
515,B-4,186.0,2.0,60,119.23
516,G4,186.0,1.0,40,119.23
517,E-4,187.0,1.0,37,119.23
518,C5,188.0,0.5,60,119.23
519,B-4,188.5,0.375,54,119.23
520,B-4,189.0,0.5,60,119.23
521,F3,189.0,3.0,40,119.23
522,G#4,189.5,0.5,55,119.23
523,G4,190.0,0.5,58,119.23
524,D4,190.0,1.0,36,119.23
525,G#4,190.5,0.5,51,119.23
526,G4,191.0,0.5,55,119.23
527,D4,191.0,1.0,36,119.23
528,G#4,191.5,0.5,47,119.23
529,E-3,192.0,2.0,40,119.23
530,D4,192.0,1.0,36,119.23
531,G#4,192.0,1.0,56,119.23
532,C5,192.0,1.0,56,119.23
533,E-4,193.0,1.0,37,119.23
534,G4,193.0,1.0,49,119.23
535,B-4,193.0,1.0,49,119.23
536,C5,194.0,0.5,57,119.23
537,C#5,194.5,0.5,48,119.23
538,F5,195.0,0.5,57,119.23
539,G#3,195.0,0.5,34,119.23
540,E-5,195.5,0.5,47,119.23
541,E-4,195.5,0.5,28,119.23
542,C#5,196.0,0.5,56,119.23
543,C4,196.0,0.5,32,119.23
544,C5,196.5,229/1000,49,119.23
545,E-4,196.5,0.5,28,119.23
546,C5,197.0,979/1000,55,119.23
547,G#3,197.0,0.5,32,119.23
548,E-4,197.5,0.5,28,119.23
549,C5,198.0,2.0,60,119.23
550,G#3,198.0,0.5,34,119.23
551,E-4,198.5,0.5,24,119.23
552,C4,199.0,0.5,28,119.23
553,E-4,199.5,0.5,24,119.23
554,G5,200.0,0.5,60,119.23
555,G#3,200.0,0.5,28,119.23
556,G#5,200.5,0.5,54,119.23
557,E-4,200.5,0.5,24,119.23
558,C6,201.0,0.5,60,119.23
559,C3,201.0,0.5,34,119.23
560,G#5,201.5,0.5,55,119.23
561,G#3,201.5,0.5,28,119.23
562,G5,202.0,0.5,58,119.23
563,E-3,202.0,0.5,32,119.23
564,F5,202.5,0.5,53,119.23
565,G#3,202.5,0.5,28,119.23
566,E-5,203.0,49/100,55,119.23
567,C3,203.0,0.5,32,119.23
568,G#3,203.5,0.5,28,119.23
569,E-5,204.0,2.0,60,119.23
570,C3,204.0,0.5,34,119.23
571,G#3,204.5,0.5,24,119.23
572,E-3,205.0,0.5,28,119.23
573,G#3,205.5,0.5,24,119.23
574,C#5,206.0,0.5,60,119.23
575,C3,206.0,0.5,28,119.23
576,C5,206.5,229/1000,54,119.23
577,G#3,206.5,0.5,24,119.23
578,C5,207.0,0.5,60,119.23
579,C#3,207.0,1.0,40,119.23
580,B-4,207.5,0.188,55,119.23
581,G#4,208.0,0.5,58,119.23
582,B-4,208.5,0.188,51,119.23
583,G4,209.0,0.5,55,119.23
584,E-3,209.0,1.0,36,119.23
585,B-4,209.5,0.188,47,119.23
586,G#4,210.0,1.0,60,119.23
587,G#3,210.0,1.0,36,119.23
588,G#2,210.0,1.0,36,119.23
589,F5,212.0,0.5,60,119.23
590,E-5,212.5,0.375,54,119.23
591,E-5,213.0,0.5,60,119.23
592,E-4,213.0,1.0,40,119.23
593,C#5,213.5,0.25,55,119.23
594,C#5,214.0,0.5,58,119.23
595,G4,214.0,1.0,36,119.23
596,E-5,214.5,0.25,51,119.23
597,C5,215.0,0.5,55,119.23
598,G#4,215.0,1.0,36,119.23
599,C#5,215.5,0.25,47,119.23
600,B-4,216.0,2.0,60,119.23
601,G4,216.0,1.0,40,119.23
602,E-4,217.0,1.0,37,119.23
603,C5,218.0,0.5,60,119.23
604,B-4,218.5,0.375,54,119.23
605,B-4,219.0,0.5,60,119.23
606,F3,219.0,3.0,40,119.23
607,G#4,219.5,0.5,55,119.23
608,G4,220.0,0.5,58,119.23
609,D4,220.0,1.0,36,119.23
610,G#4,220.5,0.5,51,119.23
611,G4,221.0,0.5,55,119.23
612,D4,221.0,1.0,36,119.23
613,G#4,221.5,0.5,47,119.23
614,E-3,222.0,2.0,40,119.23
615,D4,222.0,1.0,36,119.23
616,G#4,222.0,1.0,56,119.23
617,C5,222.0,1.0,56,119.23
618,E-4,223.0,1.0,37,119.23
619,B-4,223.0,1.0,50,119.23
620,G4,223.0,1.0,50,119.23
621,C5,224.0,0.5,50,119.23
622,C#5,224.5,0.5,45,119.23
623,F5,225.0,0.5,55,119.23
624,G#3,225.0,0.5,34,119.23
625,E-5,225.5,0.5,48,119.23
626,E-4,225.5,0.5,28,119.23
627,C#5,226.0,0.5,54,119.23
628,C4,226.0,0.5,32,119.23
629,C5,226.5,229/1000,47,119.23
630,E-4,226.5,0.5,28,119.23
631,C5,227.0,979/1000,55,119.23
632,G#3,227.0,0.5,32,119.23
633,E-4,227.5,0.5,28,119.23
634,C5,228.0,2.0,60,119.23
635,G#3,228.0,0.5,34,119.23
636,E-4,228.5,0.5,24,119.23
637,C4,229.0,0.5,28,119.23
638,E-4,229.5,0.5,24,119.23
639,G5,230.0,0.5,60,119.23
640,G#3,230.0,0.5,28,119.23
641,G#5,230.5,0.5,54,119.23
642,E-4,230.5,0.5,24,119.23
643,C6,231.0,0.5,60,119.23
644,C3,231.0,0.5,34,119.23
645,G#5,231.5,0.5,55,119.23
646,G#3,231.5,0.5,28,119.23
647,G5,232.0,0.5,58,119.23
648,E-3,232.0,0.5,32,119.23
649,F5,232.5,0.5,53,119.23
650,G#3,232.5,0.5,28,119.23
651,E-5,233.0,49/100,55,119.23
652,C3,233.0,0.5,32,119.23
653,G#3,233.5,0.5,28,119.23
654,E-5,234.0,2.0,60,119.23
655,C3,234.0,0.5,34,119.23
656,G#3,234.5,0.5,24,119.23
657,E-3,235.0,0.5,28,119.23
658,G#3,235.5,0.5,24,119.23
659,C#5,236.0,0.5,60,119.23
660,C3,236.0,0.5,28,119.23
661,C5,236.5,229/1000,54,119.23
662,G#3,236.5,0.5,24,119.23
663,C5,237.0,0.5,60,119.23
664,C#3,237.0,1.0,40,119.23
665,B-4,237.5,0.188,55,119.23
666,G#4,238.0,0.5,58,119.23
667,B-4,238.5,0.188,51,119.23
668,G4,239.0,0.5,55,119.23
669,E-3,239.0,1.0,36,119.23
670,B-4,239.5,0.188,47,119.23
671,G#4,240.0,1.0,60,119.23
672,G#3,240.0,1.0,36,119.23
673,G#2,240.0,1.0,36,119.23
674,E-5,242.0,0.25,72,119.23
675,E-5,242.75,0.188,61,119.23
676,E-5,243.0,1.0,72,119.23
677,C4,244.0,1.0,51,119.23
678,G#3,244.0,1.0,51,119.23
679,G#5,245.0,0.25,72,119.23
680,G#5,245.75,0.188,64,119.23
681,G#5,246.0,1.0,72,119.23
682,E-4,247.0,1.0,52,119.23
683,C4,247.0,1.0,52,119.23
684,F4,248.0,0.25,51,119.23
685,G#4,248.0,0.25,66,119.23
686,C5,248.0,0.25,66,119.23
687,F4,248.75,0.188,42,119.23
688,G#4,248.75,0.188,56,119.23
689,C5,248.75,0.188,56,119.23
690,F4,249.0,1.0,51,119.23
691,G#4,249.0,1.0,66,119.23
692,C5,249.0,1.0,66,119.23
693,C#4,250.0,0.25,48,119.23
694,C#5,250.0,0.25,62,119.23
695,B-4,250.0,0.25,62,119.23
696,B-3,251.0,0.25,44,119.23
697,C#5,251.0,0.25,57,119.23
698,F5,251.0,0.25,57,119.23
699,E-4,252.0,1979/1000,46,119.23
700,B-4,252.0,1979/1000,60,119.23
701,G4,252.0,1979/1000,60,119.23
702,E-4,254.0,0.25,72,119.23
703,C#4,254.0,1.0,46,119.23
704,E-4,254.75,0.188,51,119.23
705,G#4,255.0,0.25,72,119.23
706,E-4,255.0,0.25,48,119.23
707,C4,255.0,0.25,48,119.23
708,G#4,256.0,0.25,64,119.23
709,B-3,256.0,0.25,42,119.23
710,C#4,256.0,0.25,42,119.23
711,G#4,257.0,0.25,64,119.23
712,G#3,257.0,0.25,42,119.23
713,C4,257.0,0.25,42,119.23
714,B-4,258.0,1.0,72,119.23
715,G3,258.0,1.0,44,119.23
716,B-3,258.0,1.0,44,119.23
717,G#3,259.0,0.25,41,119.23
718,F3,259.0,0.25,41,119.23
719,B-4,260.0,0.25,72,119.23
720,G3,260.0,0.25,41,119.23
721,E-3,260.0,0.25,41,119.23
722,B-4,260.75,0.188,63,119.23
723,C5,261.0,0.25,72,119.23
724,G#3,261.0,0.25,52,119.23
725,C5,262.0,0.25,69,119.23
726,F3,262.0,0.25,46,119.23
727,B-3,263.0,0.25,56,119.23
728,G#4,263.0,0.25,68,119.23
729,D5,263.0,0.25,68,119.23
730,E-3,264.0,1.0,60,119.23
731,E-5,264.0,1.0,76,119.23
732,G4,264.0,1.0,76,119.23
733,E-5,266.0,0.25,72,119.23
734,E-5,266.75,0.188,61,119.23
735,E-5,267.0,0.25,72,119.23
736,E-5,268.0,0.25,60,119.23
737,F5,269.0,0.25,67,119.23
738,A4,269.0,1.0,38,119.23
739,E-5,269.0,1.0,46,119.23
740,F5,269.75,0.188,50,119.23
741,F5,270.0,1.0,61,119.23
742,B-4,270.0,2.0,50,119.23
743,E-5,270.0,1.0,46,119.23
744,B-5,271.0,0.75,59,119.23
745,D5,271.0,0.75,46,119.23
746,E-5,272.0,0.25,67,119.23
747,G4,272.0,1.0,38,119.23
748,C#5,272.0,1.0,46,119.23
749,E-5,272.75,0.188,50,119.23
750,E-5,273.0,1.0,61,119.23
751,G#4,273.0,2.0,50,119.23
752,C#5,273.0,1.0,46,119.23
753,G#5,274.0,0.75,59,119.23
754,C5,274.0,0.75,46,119.23
755,C5,275.0,0.25,67,119.23
756,C5,275.75,0.188,50,119.23
757,C5,276.0,1.0,61,119.23
758,F4,276.0,3.0,42,119.23
759,G#4,276.0,3.0,42,119.23
760,C#5,277.0,1.0,57,119.23
761,D5,278.0,1.0,59,119.23
762,E-5,279.0,0.25,72,119.23
763,E-4,279.0,0.25,42,119.23
764,G4,279.0,0.25,42,119.23
765,E-5,280.0,0.25,60,119.23
766,F5,281.0,0.75,67,119.23
767,B-3,281.0,1.0,41,119.23
768,D4,281.0,1.0,41,119.23
769,G#4,281.0,1.0,41,119.23
770,G5,281.75,0.25,50,119.23
771,E-5,282.0,0.25,72,119.23
772,E-4,282.0,0.25,42,119.23
773,G4,282.0,0.25,42,119.23
774,E-5,283.0,0.25,60,119.23
775,B-5,284.0,0.75,67,119.23
776,B-3,284.0,1.0,41,119.23
777,D4,284.0,1.0,41,119.23
778,G#4,284.0,1.0,41,119.23
779,B-5,284.75,0.25,50,119.23
780,E-5,285.0,0.25,72,119.23
781,E-4,285.0,0.25,42,119.23
782,G4,285.0,0.25,42,119.23
783,E-5,286.0,0.25,60,119.23
784,B-5,287.0,0.75,52,119.23
785,B-3,287.0,1.0,32,119.23
786,D4,287.0,1.0,32,119.23
787,G#4,287.0,1.0,32,119.23
788,B-5,287.75,0.25,39,119.23
789,E-5,288.0,1.0,57,119.23
790,E-4,288.0,1.0,33,119.23
791,G4,288.0,1.0,33,119.23
792,E-4,290.0,0.25,76,119.23
793,C4,290.0,0.25,76,119.23
794,E-4,290.75,0.188,69,119.23
795,C4,290.75,0.188,69,119.23
796,E-4,291.0,1.0,76,119.23
797,C4,291.0,1.0,76,119.23
798,G#2,292.0,1.0,64,119.23
799,G#3,292.0,1.0,64,119.23
800,C6,293.0,0.25,85,119.23
801,G#5,293.0,0.25,85,119.23
802,G#5,293.75,0.188,80,119.23
803,C6,293.75,0.188,80,119.23
804,C6,294.0,1.0,86,119.23
805,G#5,294.0,1.0,86,119.23
806,A4,296.0,0.25,66,119.23
807,C5,296.0,0.25,66,119.23
808,E-4,296.0,0.25,46,119.23
809,F#4,296.0,0.25,46,119.23
810,A4,296.75,0.188,56,119.23
811,C5,296.75,0.188,56,119.23
812,E-4,296.75,0.188,39,119.23
813,F#4,296.75,0.188,39,119.23
814,A4,297.0,1.0,66,119.23
815,C5,297.0,1.0,66,119.23
816,E-4,297.0,1.0,46,119.23
817,F#4,297.0,1.0,46,119.23
818,C#5,298.0,0.25,62,119.23
819,B-4,298.0,0.25,62,119.23
820,C#4,298.0,0.25,44,119.23
821,F4,298.0,0.25,44,119.23
822,G4,299.0,0.25,66,119.23
823,B-4,299.0,0.25,66,119.23
824,C#4,299.0,0.25,46,119.23
825,E-4,299.0,0.25,46,119.23
826,G4,299.75,0.188,56,119.23
827,B-4,299.75,0.188,56,119.23
828,C#4,299.75,0.188,39,119.23
829,E-4,299.75,0.188,39,119.23
830,C#4,300.0,1.0,42,119.23
831,E-4,300.0,1.25,51,119.23
832,G4,300.0,1.0,66,119.23
833,B-4,300.0,1.0,66,119.23
834,C4,301.0,0.25,40,119.23
835,C5,301.0,0.25,62,119.23
836,G#4,301.0,0.25,62,119.23
837,C5,302.0,0.25,66,119.23
838,E-5,302.0,0.25,66,119.23
839,C5,302.75,0.188,56,119.23
840,E-5,302.75,0.188,56,119.23
841,C5,303.0,1.0,66,119.23
842,E-5,303.0,1.0,66,119.23
843,C#5,304.0,0.25,62,119.23
844,F5,304.0,0.25,62,119.23
845,C#4,305.0,0.25,68,119.23
846,G4,305.0,0.25,68,119.23
847,E-3,305.0,0.25,52,119.23
848,B-3,305.0,0.25,52,119.23
849,G#4,306.0,1.0,76,119.23
850,C4,306.0,1.0,76,119.23
851,G#2,306.0,1.0,55,119.23
852,G#3,306.0,1.0,55,119.23
