,note_name,start_time,duration,velocity,tempo
0,A4,2.0,0.75,50,122.29
1,F#4,2.75,0.25,45,122.29
2,D5,3.0,0.25,50,122.29
3,D4,3.0,0.25,46,122.29
4,D5,4.0,0.25,47,122.29
5,F#4,4.0,0.25,41,122.29
6,D5,5.0,0.5,47,122.29
7,D4,5.0,0.5,41,122.29
8,C#5,5.5,0.125,47,122.29
9,D5,5.625,0.125,47,122.29
10,E5,5.75,0.125,47,122.29
11,D5,5.875,0.125,47,122.29
12,C#5,6.0,0.75,51,122.29
13,A4,6.0,1.0,47,122.29
14,E5,6.75,0.25,52,122.29
15,G5,7.0,1.75,56,122.29
16,A3,7.0,1.0,38,122.29
17,C#4,8.0,1.0,38,122.29
18,E5,8.75,0.25,51,122.29
19,F#5,9.0,0.75,58,122.29
20,D4,9.0,1.0,45,122.29
21,D5,9.75,0.25,53,122.29
22,A5,10.0,0.75,58,122.29
23,F#4,10.0,1.0,47,122.29
24,F#5,10.75,0.25,54,122.29
25,B5,11.0,0.75,59,122.29
26,G4,11.0,1.0,48,122.29
27,G5,11.75,0.25,48,122.29
28,F#5,12.0,1.0,51,122.29
29,A4,12.0,1.0,39,122.29
30,E5,13.0,0.75,39,122.29
31,A3,13.0,0.75,30,122.29
32,A4,14.0,0.75,50,122.29
33,F#4,14.75,0.25,45,122.29
34,D5,15.0,0.25,50,122.29
35,D4,15.0,0.25,46,122.29
36,D5,16.0,0.25,47,122.29
37,F#4,16.0,0.25,41,122.29
38,D5,17.0,0.5,47,122.29
39,D4,17.0,0.5,41,122.29
40,C#5,17.5,0.125,47,122.29
41,D5,17.625,0.125,47,122.29
42,E5,17.75,0.125,47,122.29
43,D5,17.875,0.125,47,122.29
44,C#5,18.0,0.75,58,122.29
45,A4,18.0,1.0,47,122.29
46,E5,18.75,0.25,53,122.29
47,G5,19.0,0.75,58,122.29
48,C#4,19.0,1.0,38,122.29
49,E5,19.75,0.25,54,122.29
50,F#5,20.0,0.75,59,122.29
51,D4,20.0,1.0,39,122.29
52,D5,20.75,0.25,48,122.29
53,B4,21.0,0.25,58,122.29
54,G3,21.0,2.0,43,122.29
55,G4,21.0,2.0,43,122.29
56,E5,22.0,0.25,56,122.29
57,C#5,23.0,0.5,45,122.29
58,G4,23.0,1.0,45,122.29
59,E4,23.0,1.0,37,122.29
60,A3,23.0,1.0,37,122.29
61,D5,23.5,0.125,55,122.29
62,C#5,23.625,0.125,48,122.29
63,B4,23.75,0.125,48,122.29
64,C#5,23.875,0.125,48,122.29
65,D4,24.0,1.0,46,122.29
66,D5,24.0,1.0,54,122.29
67,F#4,24.0,1.0,54,122.29
68,D3,25.0,1.0,28,122.29
69,A4,26.0,0.75,50,122.29
70,F#4,26.75,0.25,45,122.29
71,D5,27.0,0.25,50,122.29
72,D4,27.0,0.25,46,122.29
73,D5,28.0,0.25,47,122.29
74,F#4,28.0,0.25,41,122.29
75,D5,29.0,0.5,47,122.29
76,D4,29.0,0.5,41,122.29
77,C#5,29.5,0.125,47,122.29
78,D5,29.625,0.125,47,122.29
79,E5,29.75,0.125,47,122.29
80,D5,29.875,0.125,47,122.29
81,C#5,30.0,0.75,51,122.29
82,A4,30.0,1.0,47,122.29
83,E5,30.75,0.25,52,122.29
84,G5,31.0,1.75,56,122.29
85,A3,31.0,1.0,38,122.29
86,C#4,32.0,1.0,38,122.29
87,E5,32.75,0.25,51,122.29
88,F#5,33.0,0.75,58,122.29
89,D4,33.0,1.0,45,122.29
90,D5,33.75,0.25,53,122.29
91,A5,34.0,0.75,58,122.29
92,F#4,34.0,1.0,47,122.29
93,F#5,34.75,0.25,54,122.29
94,B5,35.0,0.75,59,122.29
95,G4,35.0,1.0,48,122.29
96,G5,35.75,0.25,48,122.29
97,F#5,36.0,1.0,51,122.29
98,A4,36.0,1.0,39,122.29
99,E5,37.0,0.75,39,122.29
100,A3,37.0,0.75,30,122.29
101,A4,38.0,0.75,50,122.29
102,F#4,38.75,0.25,45,122.29
103,D5,39.0,0.25,50,122.29
104,D4,39.0,0.25,46,122.29
105,D5,40.0,0.25,47,122.29
106,F#4,40.0,0.25,41,122.29
107,D5,41.0,0.5,47,122.29
108,D4,41.0,0.5,41,122.29
109,C#5,41.5,0.125,47,122.29
110,D5,41.625,0.125,47,122.29
111,E5,41.75,0.125,47,122.29
112,D5,41.875,0.125,47,122.29
113,C#5,42.0,0.75,58,122.29
114,A4,42.0,1.0,47,122.29
115,E5,42.75,0.25,53,122.29
116,G5,43.0,0.75,58,122.29
117,C#4,43.0,1.0,38,122.29
118,E5,43.75,0.25,54,122.29
119,F#5,44.0,0.75,59,122.29
120,D4,44.0,1.0,39,122.29
121,D5,44.75,0.25,48,122.29
122,B4,45.0,0.25,58,122.29
123,G3,45.0,2.0,43,122.29
124,G4,45.0,2.0,43,122.29
125,E5,46.0,0.25,56,122.29
126,C#5,47.0,0.5,45,122.29
127,G4,47.0,1.0,45,122.29
128,E4,47.0,1.0,37,122.29
129,A3,47.0,1.0,37,122.29
130,D5,47.5,0.125,55,122.29
131,C#5,47.625,0.125,48,122.29
132,B4,47.75,0.125,48,122.29
133,C#5,47.875,0.125,48,122.29
134,D4,48.0,1.0,46,122.29
135,D5,48.0,1.0,54,122.29
136,F#4,48.0,1.0,54,122.29
137,D3,49.0,1.0,34,122.29
138,A5,50.0,0.75,58,122.29
139,F#5,50.75,0.25,53,122.29
140,D6,51.0,0.75,58,122.29
141,A5,51.75,0.25,53,122.29
142,B5,52.0,0.75,58,122.29
143,D5,52.0,1.0,38,122.29
144,G#5,52.75,0.25,54,122.29
145,A5,53.0,0.75,59,122.29
146,C#5,53.0,1.0,37,122.29
147,E5,53.75,0.25,48,122.29
148,G5,54.0,0.75,58,122.29
149,B4,54.0,1.0,38,122.29
150,D5,54.75,0.25,54,122.29
151,F#5,55.0,0.75,59,122.29
152,A4,55.0,1.0,39,122.29
153,C#5,55.75,0.25,57,122.29
154,E5,56.0,0.75,63,122.29
155,G4,56.0,1.0,40,122.29
156,B4,56.75,0.25,52,122.29
157,D5,57.0,0.75,65,122.29
158,F#4,57.0,1.0,46,122.29
159,A4,57.75,0.25,61,122.29
160,C#5,58.0,1.0,50,122.29
161,G5,58.0,0.75,66,122.29
162,E4,58.0,1.0,48,122.29
163,E5,58.75,0.25,58,122.29
164,D5,59.0,1.0,56,122.29
165,F#5,59.0,0.75,65,122.29
166,D4,59.0,1.0,48,122.29
167,A5,59.75,0.25,57,122.29
168,A4,60.0,1.0,43,122.29
169,D5,60.0,1.0,52,122.29
170,F#5,60.0,1.0,52,122.29
171,A3,61.0,0.5,36,122.29
172,C#5,61.0,0.5,46,122.29
173,E5,61.0,0.5,46,122.29
174,A5,62.0,0.75,58,122.29
175,F#5,62.75,0.25,53,122.29
176,D6,63.0,0.75,58,122.29
177,A5,63.75,0.25,53,122.29
178,B5,64.0,0.75,58,122.29
179,D5,64.0,1.0,38,122.29
180,G#5,64.75,0.25,54,122.29
181,A5,65.0,0.75,59,122.29
182,C#5,65.0,1.0,37,122.29
183,E5,65.75,0.25,48,122.29
184,G5,66.0,0.75,58,122.29
185,B4,66.0,1.0,38,122.29
186,D5,66.75,0.25,54,122.29
187,F#5,67.0,0.75,60,122.29
188,A4,67.0,1.0,39,122.29
189,C#5,67.75,0.25,57,122.29
190,E5,68.0,0.75,63,122.29
191,G4,68.0,1.0,41,122.29
192,B4,68.75,0.25,53,122.29
193,D5,69.0,0.75,66,122.29
194,F#4,69.0,1.0,47,122.29
195,A4,69.75,0.25,54,122.29
196,F#5,70.0,1.0,66,122.29
197,A4,70.0,1.0,42,122.29
198,E5,71.0,0.125,47,122.29
199,A3,71.0,1.0,38,122.29
200,F#5,71.125,0.125,44,122.29
201,E5,71.25,0.125,47,122.29
202,F#5,71.375,0.125,45,122.29
203,E5,71.5,0.125,47,122.29
204,F#5,71.625,0.125,43,122.29
205,E5,71.75,83/1000,43,122.29
206,D5,71.833,83/1000,43,122.29
207,E5,71.919,81/1000,43,122.29
208,D5,72.0,1.0,66,122.29
209,E5,72.0,1/500,43,122.29
210,D4,72.0,1.0,47,122.29
211,D3,73.0,0.75,31,122.29
212,A5,74.0,0.75,58,122.29
213,F#5,74.75,0.25,53,122.29
214,D6,75.0,0.75,58,122.29
215,A5,75.75,0.25,53,122.29
216,B5,76.0,0.75,58,122.29
217,D5,76.0,1.0,38,122.29
218,G#5,76.75,0.25,54,122.29
219,A5,77.0,0.75,59,122.29
220,C#5,77.0,1.0,37,122.29
221,E5,77.75,0.25,48,122.29
222,G5,78.0,0.75,58,122.29
223,B4,78.0,1.0,38,122.29
224,D5,78.75,0.25,54,122.29
225,F#5,79.0,0.75,59,122.29
226,A4,79.0,1.0,39,122.29
227,C#5,79.75,0.25,57,122.29
228,E5,80.0,0.75,63,122.29
229,G4,80.0,1.0,40,122.29
230,B4,80.75,0.25,52,122.29
231,D5,81.0,0.75,65,122.29
232,F#4,81.0,1.0,46,122.29
233,A4,81.75,0.25,61,122.29
234,C#5,82.0,1.0,50,122.29
235,G5,82.0,0.75,66,122.29
236,E4,82.0,1.0,48,122.29
237,E5,82.75,0.25,58,122.29
238,D5,83.0,1.0,56,122.29
239,F#5,83.0,0.75,65,122.29
240,D4,83.0,1.0,48,122.29
241,A5,83.75,0.25,57,122.29
242,A4,84.0,1.0,43,122.29
243,D5,84.0,1.0,52,122.29
244,F#5,84.0,1.0,52,122.29
245,A3,85.0,0.5,36,122.29
246,C#5,85.0,0.5,46,122.29
247,E5,85.0,0.5,46,122.29
248,A5,86.0,0.75,58,122.29
249,F#5,86.75,0.25,53,122.29
250,D6,87.0,0.75,58,122.29
251,A5,87.75,0.25,53,122.29
252,B5,88.0,0.75,58,122.29
253,D5,88.0,1.0,38,122.29
254,G#5,88.75,0.25,54,122.29
255,A5,89.0,0.75,59,122.29
256,C#5,89.0,1.0,37,122.29
257,E5,89.75,0.25,48,122.29
258,G5,90.0,0.75,58,122.29
259,B4,90.0,1.0,38,122.29
260,D5,90.75,0.25,54,122.29
261,F#5,91.0,0.75,60,122.29
262,A4,91.0,1.0,39,122.29
263,C#5,91.75,0.25,57,122.29
264,E5,92.0,0.75,63,122.29
265,G4,92.0,1.0,41,122.29
266,B4,92.75,0.25,53,122.29
267,D5,93.0,0.75,66,122.29
268,F#4,93.0,1.0,47,122.29
269,A4,93.75,0.25,54,122.29
270,F#5,94.0,1.0,66,122.29
271,A4,94.0,1.0,42,122.29
272,E5,95.0,0.125,47,122.29
273,A3,95.0,1.0,38,122.29
274,F#5,95.125,0.125,44,122.29
275,E5,95.25,0.125,47,122.29
276,F#5,95.375,0.125,45,122.29
277,E5,95.5,0.125,47,122.29
278,F#5,95.625,0.125,43,122.29
279,E5,95.75,83/1000,43,122.29
280,D5,95.833,83/1000,43,122.29
281,E5,95.919,81/1000,43,122.29
282,D5,96.0,1.0,66,122.29
283,E5,96.0,1/500,43,122.29
284,D4,96.0,1.0,47,122.29
285,D3,97.0,0.75,31,122.29
286,G4,98.0,0.25,58,122.29
287,F4,98.25,0.25,58,122.29
288,E4,98.5,0.25,61,122.29
289,D4,98.75,0.25,65,122.29
290,D5,99.0,1.75,76,122.29
291,F3,100.0,1.0,47,122.29
292,A4,100.75,0.25,59,122.29
293,F5,101.0,0.75,65,122.29
294,D3,101.0,1.0,40,122.29
295,A4,101.75,229/1000,56,122.29
296,A4,102.0,0.75,63,122.29
297,E3,102.0,2.0,48,122.29
298,G#4,102.75,0.25,54,122.29
299,G4,103.0,1.75,64,122.29
300,C#3,104.0,1.0,40,122.29
301,E4,104.75,0.25,56,122.29
302,F4,105.0,0.75,65,122.29
303,D3,105.0,1.0,46,122.29
304,D4,105.75,0.25,61,122.29
305,A4,106.0,0.75,66,122.29
306,F2,106.0,1.0,48,122.29
307,F4,106.75,0.25,58,122.29
308,B-4,107.0,0.75,65,122.29
309,G2,107.0,1.0,41,122.29
310,D4,107.75,229/1000,49,122.29
311,D4,108.0,1.0,50,122.29
312,A2,108.0,1.0,43,122.29
313,C#4,109.0,0.5,45,122.29
314,A1,109.0,0.5,36,122.29
315,B-4,110.0,0.25,58,122.29
316,A4,110.25,0.25,58,122.29
317,G4,110.5,0.25,61,122.29
318,F4,110.75,0.25,65,122.29
319,C5,111.0,0.75,76,122.29
320,F3,111.0,2.0,42,122.29
321,A3,111.0,2.0,42,122.29
322,C4,111.0,2.0,42,122.29
323,A4,111.75,0.25,63,122.29
324,F5,112.0,0.75,73,122.29
325,C5,112.75,0.25,64,122.29
326,A5,113.0,0.75,74,122.29
327,E-4,113.0,1.0,37,122.29
328,F4,113.0,1.0,37,122.29
329,F5,113.75,229/1000,68,122.29
330,B-5,114.0,0.75,80,122.29
331,F4,114.0,2.0,53,122.29
332,D4,114.0,1.0,45,122.29
333,F5,114.75,0.25,70,122.29
334,D6,115.0,0.75,82,122.29
335,B-3,115.0,1.0,43,122.29
336,F5,115.75,0.25,68,122.29
337,E6,116.0,0.75,81,122.29
338,B-3,116.0,1.0,50,122.29
339,G3,116.0,1.0,50,122.29
340,G5,116.75,0.25,68,122.29
341,F6,117.0,0.75,80,122.29
342,A3,117.0,1.0,56,122.29
343,C4,117.0,1.0,56,122.29
344,F5,117.75,0.25,61,122.29
345,A5,118.0,1.0,66,122.29
346,C4,118.0,1.0,42,122.29
347,G5,119.0,0.125,47,122.29
348,C3,119.0,1.0,38,122.29
349,A5,119.125,0.125,44,122.29
350,G5,119.25,0.125,47,122.29
351,A5,119.375,0.125,45,122.29
352,G5,119.5,0.125,47,122.29
353,A5,119.625,0.125,43,122.29
354,G5,119.75,83/1000,43,122.29
355,F5,119.833,83/1000,43,122.29
356,G5,119.919,81/1000,43,122.29
357,F5,120.0,1.75,66,122.29
358,G5,120.0,1/500,43,122.29
359,F3,120.0,1.0,47,122.29
360,F2,121.0,0.75,31,122.29
361,G4,122.0,0.25,58,122.29
362,F4,122.25,0.25,58,122.29
363,E4,122.5,0.25,61,122.29
364,D4,122.75,0.25,65,122.29
365,D5,123.0,1.75,76,122.29
366,F3,124.0,1.0,47,122.29
367,A4,124.75,0.25,59,122.29
368,F5,125.0,0.75,65,122.29
369,D3,125.0,1.0,40,122.29
370,A4,125.75,229/1000,56,122.29
371,A4,126.0,0.75,63,122.29
372,E3,126.0,2.0,48,122.29
373,G#4,126.75,0.25,54,122.29
374,G4,127.0,1.75,64,122.29
375,C#3,128.0,1.0,40,122.29
376,E4,128.75,0.25,56,122.29
377,F4,129.0,0.75,65,122.29
378,D3,129.0,1.0,46,122.29
379,D4,129.75,0.25,61,122.29
380,A4,130.0,0.75,66,122.29
381,F2,130.0,1.0,48,122.29
382,F4,130.75,0.25,58,122.29
383,B-4,131.0,0.75,65,122.29
384,G2,131.0,1.0,41,122.29
385,D4,131.75,229/1000,49,122.29
386,D4,132.0,1.0,50,122.29
387,A2,132.0,1.0,43,122.29
388,C#4,133.0,0.5,45,122.29
389,A1,133.0,0.5,36,122.29
390,B-4,134.0,0.25,58,122.29
391,A4,134.25,0.25,58,122.29
392,G4,134.5,0.25,61,122.29
393,F4,134.75,0.25,65,122.29
394,C5,135.0,0.75,76,122.29
395,F3,135.0,2.0,42,122.29
396,A3,135.0,2.0,42,122.29
397,C4,135.0,2.0,42,122.29
398,A4,135.75,0.25,63,122.29
399,F5,136.0,0.75,73,122.29
400,C5,136.75,0.25,64,122.29
401,A5,137.0,0.75,74,122.29
402,E-4,137.0,1.0,37,122.29
403,F4,137.0,1.0,37,122.29
404,F5,137.75,229/1000,68,122.29
405,B-5,138.0,0.75,80,122.29
406,F4,138.0,2.0,53,122.29
407,D4,138.0,1.0,45,122.29
408,F5,138.75,0.25,70,122.29
409,D6,139.0,0.75,82,122.29
410,B-3,139.0,1.0,43,122.29
411,F5,139.75,0.25,68,122.29
412,E6,140.0,0.75,81,122.29
413,B-3,140.0,1.0,50,122.29
414,G3,140.0,1.0,50,122.29
415,G5,140.75,0.25,68,122.29
416,F6,141.0,0.75,80,122.29
417,A3,141.0,1.0,56,122.29
418,C4,141.0,1.0,56,122.29
419,F5,141.75,0.25,61,122.29
420,A5,142.0,1.0,66,122.29
421,C4,142.0,1.0,42,122.29
422,G5,143.0,0.125,47,122.29
423,C3,143.0,1.0,38,122.29
424,A5,143.125,0.125,44,122.29
425,G5,143.25,0.125,47,122.29
426,A5,143.375,0.125,45,122.29
427,G5,143.5,0.125,47,122.29
428,A5,143.625,0.125,43,122.29
429,G5,143.75,83/1000,43,122.29
430,F5,143.833,83/1000,43,122.29
431,G5,143.919,81/1000,43,122.29
432,F5,144.0,1.75,66,122.29
433,G5,144.0,1/500,43,122.29
434,F3,144.0,1.0,47,122.29
435,F2,145.0,0.75,31,122.29
436,B-5,146.0,0.25,49,122.29
437,A5,146.25,0.25,49,122.29
438,G5,146.5,0.25,51,122.29
439,F5,146.75,0.25,55,122.29
440,C6,147.0,1.75,64,122.29
441,A4,148.0,1.0,32,122.29
442,C5,148.0,1.0,32,122.29
443,E-5,148.75,0.25,46,122.29
444,F5,149.0,0.75,55,122.29
445,G4,149.0,1.0,28,122.29
446,B-4,149.0,1.0,28,122.29
447,E-5,149.75,229/1000,47,122.29
448,D5,150.0,0.75,53,122.29
449,A4,150.0,2.0,33,122.29
450,F#4,150.0,2.0,33,122.29
451,A5,150.75,0.25,45,122.29
452,D6,151.0,0.75,60,122.29
453,A5,151.75,0.25,47,122.29
454,B-5,152.0,0.75,58,122.29
455,G4,152.0,1.0,31,122.29
456,D5,152.0,1.0,31,122.29
457,G5,152.75,0.25,50,122.29
458,C6,153.0,0.75,60,122.29
459,E4,153.0,1.0,33,122.29
460,C5,153.0,2.0,39,122.29
461,G5,153.75,0.25,51,122.29
462,A5,154.0,0.75,56,122.29
463,F4,154.0,1.0,40,122.29
464,F5,154.75,0.25,49,122.29
465,B-5,155.0,0.5,55,122.29
466,G4,155.0,1.0,31,122.29
467,G3,155.0,1.0,31,122.29
468,G5,155.5,0.25,48,122.29
469,E5,155.75,229/1000,41,122.29
470,D5,156.0,1.0,42,122.29
471,A3,156.0,1.5,30,122.29
472,E4,156.0,1.5,30,122.29
473,C#5,157.0,0.5,38,122.29
474,A4,158.0,0.25,47,122.29
475,G4,158.25,0.25,49,122.29
476,F4,158.5,0.25,50,122.29
477,E4,158.75,0.25,52,122.29
478,G5,159.0,1.75,64,122.29
479,B-3,160.0,1.0,38,122.29
480,C#4,160.0,1.0,38,122.29
481,E5,160.75,0.25,64,122.29
482,C#6,161.0,0.75,74,122.29
483,G3,161.0,1.0,33,122.29
484,B-3,161.0,1.0,33,122.29
485,B-5,161.75,229/1000,68,122.29
486,D6,162.0,0.75,80,122.29
487,F3,162.0,1.0,48,122.29
488,D4,162.0,1.0,48,122.29
489,A3,162.0,1.0,48,122.29
490,A5,162.75,0.25,70,122.29
491,E6,163.0,0.75,82,122.29
492,E3,163.0,1.0,43,122.29
493,G3,163.0,1.0,43,122.29
494,C#4,163.0,1.0,43,122.29
495,A5,163.75,0.25,68,122.29
496,F6,164.0,0.75,81,122.29
497,D3,164.0,1.0,48,122.29
498,D4,164.0,1.0,48,122.29
499,F3,164.0,1.0,48,122.29
500,D6,164.75,229/1000,68,122.29
501,C6,165.0,0.25,80,122.29
502,G3,165.0,1.0,61,122.29
503,B-5,165.25,0.25,61,122.29
504,A5,165.5,0.25,68,122.29
505,G5,165.75,0.25,61,122.29
506,F5,166.0,1.0,66,122.29
507,A3,166.0,1.0,42,122.29
508,E5,167.0,0.125,47,122.29
509,A2,167.0,1.0,38,122.29
510,F5,167.125,0.125,44,122.29
511,E5,167.25,0.125,47,122.29
512,F5,167.375,0.125,45,122.29
513,E5,167.5,0.125,47,122.29
514,F5,167.625,0.125,43,122.29
515,E5,167.75,83/1000,43,122.29
516,D5,167.833,83/1000,43,122.29
517,E5,167.919,81/1000,43,122.29
518,D5,168.0,1.75,66,122.29
519,E5,168.0,1/500,43,122.29
520,D3,168.0,1.0,47,122.29
521,D2,169.0,0.75,31,122.29
522,B-5,170.0,0.25,49,122.29
523,A5,170.25,0.25,49,122.29
524,G5,170.5,0.25,51,122.29
525,F5,170.75,0.25,55,122.29
526,C6,171.0,1.75,64,122.29
527,A4,172.0,1.0,32,122.29
528,C5,172.0,1.0,32,122.29
529,E-5,172.75,0.25,46,122.29
530,F5,173.0,0.75,55,122.29
531,G4,173.0,1.0,28,122.29
532,B-4,173.0,1.0,28,122.29
533,E-5,173.75,229/1000,47,122.29
534,D5,174.0,0.75,53,122.29
535,A4,174.0,2.0,33,122.29
536,F#4,174.0,2.0,33,122.29
537,A5,174.75,0.25,45,122.29
538,D6,175.0,0.75,60,122.29
539,A5,175.75,0.25,47,122.29
540,B-5,176.0,0.75,58,122.29
541,G4,176.0,1.0,31,122.29
542,D5,176.0,1.0,31,122.29
543,G5,176.75,0.25,50,122.29
544,C6,177.0,0.75,60,122.29
545,E4,177.0,1.0,33,122.29
546,C5,177.0,2.0,39,122.29
547,G5,177.75,0.25,51,122.29
548,A5,178.0,0.75,56,122.29
549,F4,178.0,1.0,40,122.29
550,F5,178.75,0.25,49,122.29
551,B-5,179.0,0.5,55,122.29
552,G4,179.0,1.0,31,122.29
553,G3,179.0,1.0,31,122.29
554,G5,179.5,0.25,48,122.29
555,E5,179.75,229/1000,41,122.29
556,D5,180.0,1.0,42,122.29
557,A3,180.0,1.5,30,122.29
558,E4,180.0,1.5,30,122.29
559,C#5,181.0,0.5,38,122.29
560,A4,182.0,0.25,47,122.29
561,G4,182.25,0.25,49,122.29
562,F4,182.5,0.25,50,122.29
563,E4,182.75,0.25,52,122.29
564,G5,183.0,1.75,64,122.29
565,B-3,184.0,1.0,38,122.29
566,C#4,184.0,1.0,38,122.29
567,E5,184.75,0.25,64,122.29
568,C#6,185.0,0.75,74,122.29
569,G3,185.0,1.0,33,122.29
570,B-3,185.0,1.0,33,122.29
571,B-5,185.75,229/1000,68,122.29
572,D6,186.0,0.75,80,122.29
573,F3,186.0,1.0,48,122.29
574,D4,186.0,1.0,48,122.29
575,A3,186.0,1.0,48,122.29
576,A5,186.75,0.25,70,122.29
577,E6,187.0,0.75,82,122.29
578,E3,187.0,1.0,43,122.29
579,G3,187.0,1.0,43,122.29
580,C#4,187.0,1.0,43,122.29
581,A5,187.75,0.25,68,122.29
582,F6,188.0,0.75,81,122.29
583,D3,188.0,1.0,48,122.29
584,D4,188.0,1.0,48,122.29
585,F3,188.0,1.0,48,122.29
586,D6,188.75,229/1000,68,122.29
587,C6,189.0,0.25,80,122.29
588,G3,189.0,1.0,61,122.29
589,B-5,189.25,0.25,61,122.29
590,A5,189.5,0.25,68,122.29
591,G5,189.75,0.25,61,122.29
592,F5,190.0,1.0,66,122.29
593,A3,190.0,1.0,42,122.29
594,E5,191.0,0.125,47,122.29
595,A2,191.0,1.0,38,122.29
596,F5,191.125,0.125,44,122.29
597,E5,191.25,0.125,47,122.29
598,F5,191.375,0.125,45,122.29
599,E5,191.5,0.125,47,122.29
600,F5,191.625,0.125,43,122.29
601,E5,191.75,83/1000,43,122.29
602,D5,191.833,83/1000,43,122.29
603,E5,191.919,81/1000,43,122.29
604,D5,192.0,1.75,66,122.29
605,E5,192.0,1/500,43,122.29
606,D3,192.0,1.0,47,122.29
607,D2,193.0,0.75,31,122.29
608,G4,194.0,0.25,50,122.29
609,F#4,194.25,0.25,45,122.29
610,E4,194.5,0.25,45,122.29
611,D4,194.75,0.25,45,122.29
612,D5,195.0,0.125,50,122.29
613,D4,195.0,0.125,46,122.29
614,D5,195.5,0.125,50,122.29
615,F#4,196.0,0.25,41,122.29
616,D5,196.5,0.25,47,122.29
617,E5,197.0,0.25,53,122.29
618,D4,197.0,0.5,41,122.29
619,D5,197.25,0.25,48,122.29
620,C#5,197.5,0.25,48,122.29
621,D5,197.75,0.25,48,122.29
622,C#5,198.0,0.125,51,122.29
623,A4,198.0,0.5,47,122.29
624,G5,198.5,0.125,52,122.29
625,A3,199.0,1.0,38,122.29
626,G5,199.5,0.5,56,122.29
627,A5,200.0,0.25,51,122.29
628,C#4,200.0,1.0,38,122.29
629,G5,200.25,0.25,51,122.29
630,F#5,200.5,0.25,51,122.29
631,E5,200.75,0.25,51,122.29
632,G5,201.0,0.25,58,122.29
633,D4,201.0,1.0,45,122.29
634,F#5,201.25,0.25,53,122.29
635,E5,201.5,0.25,53,122.29
636,D5,201.75,0.25,49,122.29
637,B5,202.0,0.25,62,122.29
638,F#4,202.0,1.0,47,122.29
639,A5,202.25,0.25,56,122.29
640,G5,202.5,0.25,56,122.29
641,F#5,202.75,0.25,54,122.29
642,B5,203.0,0.25,65,122.29
643,G4,203.0,1.0,55,122.29
644,C#6,203.25,0.25,49,122.29
645,D6,203.5,0.25,46,122.29
646,G5,203.75,0.25,43,122.29
647,A4,204.0,1.0,39,122.29
648,D5,204.0,1.0,51,122.29
649,F#5,204.0,1.0,51,122.29
650,A3,205.0,0.75,30,122.29
651,C#5,205.0,0.75,39,122.29
652,E5,205.0,0.75,39,122.29
653,G4,206.0,0.25,50,122.29
654,F#4,206.25,0.25,45,122.29
655,E4,206.5,0.25,45,122.29
656,D4,206.75,0.25,45,122.29
657,D5,207.0,0.125,50,122.29
658,D4,207.0,0.125,46,122.29
659,D5,207.5,0.125,50,122.29
660,F#4,208.0,0.25,41,122.29
661,D5,208.5,0.25,47,122.29
662,E5,209.0,0.25,49,122.29
663,D4,209.0,0.5,41,122.29
664,D5,209.25,0.25,43,122.29
665,C#5,209.5,0.25,43,122.29
666,D5,209.75,0.25,43,122.29
667,C#5,210.0,0.125,51,122.29
668,A4,210.0,0.5,47,122.29
669,G5,210.5,0.125,52,122.29
670,A5,211.0,0.25,56,122.29
671,C#4,211.0,1.0,38,122.29
672,G5,211.25,0.25,51,122.29
673,F#5,211.5,0.25,51,122.29
674,E5,211.75,0.25,48,122.29
675,G5,212.0,0.25,58,122.29
676,D4,212.0,1.0,38,122.29
677,F#5,212.25,0.25,54,122.29
678,E5,212.5,0.25,53,122.29
679,D5,212.75,0.25,53,122.29
680,B5,213.0,0.25,69,122.29
681,G3,213.0,1.0,45,122.29
682,C#6,213.25,0.25,56,122.29
683,D6,213.5,0.25,53,122.29
684,G5,213.75,0.25,56,122.29
685,F#5,214.0,0.25,61,122.29
686,A3,214.0,1.0,47,122.29
687,G5,214.25,0.25,51,122.29
688,A5,214.5,0.25,51,122.29
689,D5,214.75,0.25,51,122.29
690,E5,215.0,0.25,59,122.29
691,A2,215.0,1.0,48,122.29
692,F#5,215.25,0.25,48,122.29
693,G5,215.5,0.25,53,122.29
694,C#5,215.75,0.25,48,122.29
695,D5,216.0,1.0,58,122.29
696,D3,216.0,1.0,46,122.29
697,D2,217.0,1.0,28,122.29
698,G4,218.0,0.25,50,122.29
699,F#4,218.25,0.25,45,122.29
700,E4,218.5,0.25,45,122.29
701,D4,218.75,0.25,45,122.29
702,D5,219.0,0.125,50,122.29
703,D4,219.0,0.125,46,122.29
704,D5,219.5,0.125,50,122.29
705,F#4,220.0,0.25,41,122.29
706,D5,220.5,0.25,47,122.29
707,E5,221.0,0.25,53,122.29
708,D4,221.0,0.5,41,122.29
709,D5,221.25,0.25,48,122.29
710,C#5,221.5,0.25,48,122.29
711,D5,221.75,0.25,48,122.29
712,C#5,222.0,0.125,51,122.29
713,A4,222.0,0.5,47,122.29
714,G5,222.5,0.125,52,122.29
715,A3,223.0,1.0,38,122.29
716,G5,223.5,0.5,56,122.29
717,A5,224.0,0.25,51,122.29
718,C#4,224.0,1.0,38,122.29
719,G5,224.25,0.25,51,122.29
720,F#5,224.5,0.25,51,122.29
721,E5,224.75,0.25,51,122.29
722,G5,225.0,0.25,58,122.29
723,D4,225.0,1.0,45,122.29
724,F#5,225.25,0.25,53,122.29
725,E5,225.5,0.25,53,122.29
726,D5,225.75,0.25,49,122.29
727,B5,226.0,0.25,59,122.29
728,F#4,226.0,1.0,47,122.29
729,A5,226.25,0.25,54,122.29
730,G5,226.5,0.25,54,122.29
731,F#5,226.75,0.25,61,122.29
732,B5,227.0,0.25,68,122.29
733,G4,227.0,1.0,48,122.29
734,C#6,227.25,0.25,60,122.29
735,D6,227.5,0.25,54,122.29
736,G5,227.75,0.25,43,122.29
737,A4,228.0,1.0,39,122.29
738,D5,228.0,1.0,51,122.29
739,F#5,228.0,1.0,51,122.29
740,A3,229.0,0.75,30,122.29
741,C#5,229.0,0.75,39,122.29
742,E5,229.0,0.75,39,122.29
743,G4,230.0,0.25,50,122.29
744,F#4,230.25,0.25,45,122.29
745,E4,230.5,0.25,45,122.29
746,D4,230.75,0.25,45,122.29
747,D5,231.0,0.125,50,122.29
748,D4,231.0,0.125,46,122.29
749,D5,231.5,0.125,50,122.29
750,F#4,232.0,0.25,41,122.29
751,D5,232.5,0.25,47,122.29
752,E5,233.0,0.25,49,122.29
753,D4,233.0,0.5,41,122.29
754,D5,233.25,0.25,43,122.29
755,C#5,233.5,0.25,43,122.29
756,D5,233.75,0.25,43,122.29
757,C#5,234.0,0.125,51,122.29
758,A4,234.0,0.5,47,122.29
759,G5,234.5,0.125,52,122.29
760,A5,235.0,0.25,56,122.29
761,C#4,235.0,1.0,43,122.29
762,G5,235.25,0.25,51,122.29
763,F#5,235.5,0.25,51,122.29
764,E5,235.75,0.25,48,122.29
765,G5,236.0,0.25,58,122.29
766,D4,236.0,1.0,48,122.29
767,F#5,236.25,0.25,52,122.29
768,E5,236.5,0.25,54,122.29
769,D5,236.75,0.25,57,122.29
770,B5,237.0,0.25,66,122.29
771,G3,237.0,1.0,45,122.29
772,C#6,237.25,0.25,57,122.29
773,D6,237.5,0.25,53,122.29
774,G5,237.75,0.25,51,122.29
775,F#5,238.0,0.25,61,122.29
776,A3,238.0,1.0,47,122.29
777,G5,238.25,0.25,51,122.29
778,A5,238.5,0.25,51,122.29
779,D5,238.75,0.25,51,122.29
780,E5,239.0,0.25,59,122.29
781,A2,239.0,1.0,48,122.29
782,F#5,239.25,0.25,48,122.29
783,G5,239.5,0.25,53,122.29
784,C#5,239.75,0.25,48,122.29
785,D5,240.0,1.0,58,122.29
786,D3,240.0,1.0,46,122.29
787,D2,241.0,1.0,28,122.29
788,G4,242.0,0.25,50,122.29
789,F#4,242.25,0.25,45,122.29
790,E4,242.5,0.25,45,122.29
791,D4,242.75,0.25,45,122.29
792,D5,243.0,0.125,50,122.29
793,D5,243.5,0.125,50,122.29
794,D4,244.0,1.0,38,122.29
795,G#4,244.5,0.25,47,122.29
796,A4,245.0,0.25,53,122.29
797,C#4,245.0,1.0,37,122.29
798,B4,245.25,0.25,48,122.29
799,A4,245.5,0.25,48,122.29
800,E4,245.75,0.25,48,122.29
801,G4,246.0,0.125,51,122.29
802,B3,246.0,1.0,38,122.29
803,G4,246.5,0.125,52,122.29
804,A3,247.0,1.0,39,122.29
805,F#4,247.5,0.5,56,122.29
806,E4,248.0,0.25,51,122.29
807,G3,248.0,1.0,40,122.29
808,F#4,248.25,0.25,47,122.29
809,E4,248.5,0.25,47,122.29
810,B3,248.75,0.25,47,122.29
811,D4,249.0,0.25,53,122.29
812,F#3,249.0,1.0,41,122.29
813,E4,249.25,0.25,46,122.29
814,D4,249.5,0.25,46,122.29
815,A3,249.75,0.25,46,122.29
816,G4,250.0,0.25,54,122.29
817,E3,250.0,1.0,39,122.29
818,A4,250.25,0.25,46,122.29
819,G4,250.5,0.25,46,122.29
820,E4,250.75,0.25,43,122.29
821,F#4,251.0,0.25,55,122.29
822,D3,251.0,1.0,39,122.29
823,G4,251.25,0.25,46,122.29
824,F#4,251.5,0.25,46,122.29
825,D4,251.75,229/1000,46,122.29
826,A3,252.0,1.0,43,122.29
827,F#4,252.0,1.0,47,122.29
828,D4,252.0,1.0,47,122.29
829,A2,253.0,0.5,36,122.29
830,C#4,253.0,0.75,39,122.29
831,E4,253.0,0.75,39,122.29
832,G5,254.0,0.25,63,122.29
833,F#5,254.25,0.25,56,122.29
834,E5,254.5,0.25,56,122.29
835,D5,254.75,0.25,56,122.29
836,D6,255.0,0.125,70,122.29
837,D6,255.5,0.125,67,122.29
838,D5,256.0,1.0,38,122.29
839,G#5,256.5,0.25,53,122.29
840,G#5,257.0,0.25,58,122.29
841,C#5,257.0,1.0,37,122.29
842,A5,257.25,0.25,48,122.29
843,B5,257.5,0.25,48,122.29
844,A5,257.75,0.188,48,122.29
845,A5,258.0,0.25,61,122.29
846,B4,258.0,1.0,38,122.29
847,G5,258.25,0.25,49,122.29
848,F#5,258.5,0.25,49,122.29
849,G5,258.75,0.188,49,122.29
850,G5,259.0,0.25,59,122.29
851,A4,259.0,1.0,39,122.29
852,F#5,259.25,0.25,48,122.29
853,E5,259.5,0.25,48,122.29
854,F#5,259.75,0.188,48,122.29
855,F#5,260.0,0.25,58,122.29
856,G4,260.0,1.0,40,122.29
857,E5,260.25,0.25,47,122.29
858,D5,260.5,0.25,47,122.29
859,E5,260.75,0.25,47,122.29
860,A5,261.0,0.5,68,122.29
861,F#4,261.0,0.5,47,122.29
862,B5,261.75,0.25,54,122.29
863,G4,261.75,0.25,44,122.29
864,D5,262.0,1.0,66,122.29
865,A4,262.0,1.0,42,122.29
866,E5,263.0,0.125,47,122.29
867,A3,263.0,1.0,38,122.29
868,F#5,263.125,0.125,44,122.29
869,E5,263.25,0.125,47,122.29
870,F#5,263.375,0.125,45,122.29
871,E5,263.5,0.125,47,122.29
872,F#5,263.625,0.125,43,122.29
873,E5,263.75,83/1000,43,122.29
874,D5,263.833,83/1000,43,122.29
875,E5,263.919,81/1000,43,122.29
876,D5,264.0,1.0,66,122.29
877,E5,264.0,1/500,43,122.29
878,D4,264.0,1.0,47,122.29
879,D3,265.0,0.75,31,122.29
880,G4,266.0,0.25,50,122.29
881,F#4,266.25,0.25,45,122.29
882,E4,266.5,0.25,45,122.29
883,D4,266.75,0.25,45,122.29
884,D5,267.0,0.125,50,122.29
885,D5,267.5,0.125,50,122.29
886,D4,268.0,1.0,38,122.29
887,G#4,268.5,0.25,47,122.29
888,A4,269.0,0.25,53,122.29
889,C#4,269.0,1.0,37,122.29
890,B4,269.25,0.25,48,122.29
891,A4,269.5,0.25,48,122.29
892,E4,269.75,0.25,48,122.29
893,G4,270.0,0.125,51,122.29
894,B3,270.0,1.0,38,122.29
895,G4,270.5,0.125,52,122.29
896,A3,271.0,1.0,39,122.29
897,F#4,271.5,0.5,56,122.29
898,E4,272.0,0.25,51,122.29
899,G3,272.0,1.0,40,122.29
900,F#4,272.25,0.25,47,122.29
901,E4,272.5,0.25,47,122.29
902,B3,272.75,0.25,47,122.29
903,D4,273.0,0.25,53,122.29
904,F#3,273.0,1.0,41,122.29
905,E4,273.25,0.25,46,122.29
906,D4,273.5,0.25,46,122.29
907,A3,273.75,0.25,46,122.29
908,G4,274.0,0.25,54,122.29
909,E3,274.0,1.0,39,122.29
910,A4,274.25,0.25,46,122.29
911,G4,274.5,0.25,46,122.29
912,E4,274.75,0.25,43,122.29
913,F#4,275.0,0.25,55,122.29
914,D3,275.0,1.0,39,122.29
915,G4,275.25,0.25,46,122.29
916,F#4,275.5,0.25,46,122.29
917,D4,275.75,229/1000,46,122.29
918,A3,276.0,1.0,43,122.29
919,F#4,276.0,1.0,47,122.29
920,D4,276.0,1.0,47,122.29
921,A2,277.0,0.5,36,122.29
922,C#4,277.0,0.75,39,122.29
923,E4,277.0,0.75,39,122.29
924,G5,278.0,0.25,63,122.29
925,F#5,278.25,0.25,56,122.29
926,E5,278.5,0.25,56,122.29
927,D5,278.75,0.25,56,122.29
928,D6,279.0,0.125,70,122.29
929,D6,279.5,0.125,67,122.29
930,D5,280.0,1.0,38,122.29
931,G#5,280.5,0.25,53,122.29
932,G#5,281.0,0.25,58,122.29
933,C#5,281.0,1.0,37,122.29
934,A5,281.25,0.25,48,122.29
935,B5,281.5,0.25,48,122.29
936,A5,281.75,0.188,48,122.29
937,A5,282.0,0.25,61,122.29
938,B4,282.0,1.0,38,122.29
939,G5,282.25,0.25,49,122.29
940,F#5,282.5,0.25,49,122.29
941,G5,282.75,0.188,49,122.29
942,G5,283.0,0.25,59,122.29
943,A4,283.0,1.0,39,122.29
944,F#5,283.25,0.25,48,122.29
945,E5,283.5,0.25,48,122.29
946,F#5,283.75,0.188,48,122.29
947,F#5,284.0,0.25,58,122.29
948,G4,284.0,1.0,40,122.29
949,E5,284.25,0.25,47,122.29
950,D5,284.5,0.25,47,122.29
951,E5,284.75,0.25,47,122.29
952,A5,285.0,0.5,67,122.29
953,F#4,285.0,0.5,47,122.29
954,B5,285.75,0.25,58,122.29
955,G4,285.75,0.25,44,122.29
956,D5,286.0,1.0,70,122.29
957,A4,286.0,1.0,42,122.29
958,E5,287.0,0.125,47,122.29
959,A3,287.0,1.0,38,122.29
960,F#5,287.125,0.125,44,122.29
961,E5,287.25,0.125,47,122.29
962,F#5,287.375,0.125,45,122.29
963,E5,287.5,0.125,47,122.29
964,F#5,287.625,0.125,43,122.29
965,E5,287.75,83/1000,43,122.29
966,D5,287.833,83/1000,43,122.29
967,E5,287.919,81/1000,43,122.29
968,D5,288.0,1.0,66,122.29
969,E5,288.0,1/500,43,122.29
970,D4,288.0,1.0,47,122.29
971,D3,289.0,0.75,31,122.29
972,G4,290.0,0.25,58,122.29
973,F4,290.25,0.25,58,122.29
974,E4,290.5,0.25,61,122.29
975,D4,290.75,0.25,65,122.29
976,D5,291.0,1.5,82,122.29
977,F3,292.0,1.0,47,122.29
978,E5,292.5,1.0,64,122.29
979,D3,293.0,1.0,40,122.29
980,F5,293.5,0.5,69,122.29
981,F5,294.0,0.5,69,122.29
982,E3,294.0,1.0,48,122.29
983,A4,294.5,1.0,69,122.29
984,B2,295.0,1.0,40,122.29
985,G#4,295.5,1.0,65,122.29
986,C#3,296.0,1.0,40,122.29
987,G4,296.5,0.5,68,122.29
988,G4,297.0,0.5,68,122.29
989,D3,297.0,1.0,46,122.29
990,F4,297.5,1.0,70,122.29
991,F2,298.0,1.0,48,122.29
992,A4,298.5,0.5,69,122.29
993,A4,299.0,0.25,70,122.29
994,G2,299.0,1.0,41,122.29
995,B-4,299.25,83/1000,55,122.29
996,A4,299.333,83/1000,43,122.29
997,G4,299.419,83/1000,39,122.29
998,A4,299.5,0.25,59,122.29
999,B-4,299.75,229/1000,49,122.29
1000,D4,300.0,1.0,50,122.29
1001,A2,300.0,1.0,43,122.29
1002,C#4,301.0,0.5,45,122.29
1003,A1,301.0,0.5,36,122.29
1004,B-4,302.0,0.25,58,122.29
1005,A4,302.25,0.25,58,122.29
1006,G4,302.5,0.25,61,122.29
1007,F4,302.75,0.25,65,122.29
1008,D5,303.0,31/125,81,122.29
1009,F3,303.0,2.0,42,122.29
1010,A3,303.0,2.0,42,122.29
1011,C4,303.0,2.0,42,122.29
1012,C5,303.25,0.25,63,122.29
1013,B-4,303.5,0.25,63,122.29
1014,A4,303.75,0.25,63,122.29
1015,G5,304.0,31/125,78,122.29
1016,F5,304.25,0.25,64,122.29
1017,E5,304.5,0.25,64,122.29
1018,F5,304.75,0.25,64,122.29
1019,B-5,305.0,31/125,79,122.29
1020,E-4,305.0,1.0,37,122.29
1021,F4,305.0,1.0,37,122.29
1022,A5,305.25,0.25,66,122.29
1023,G5,305.5,0.25,67,122.29
1024,F5,305.75,229/1000,67,122.29
1025,C6,306.0,31/125,86,122.29
1026,F4,306.0,2.0,53,122.29
1027,D4,306.0,1.0,45,122.29
1028,B-5,306.25,0.25,70,122.29
1029,A5,306.5,0.25,70,122.29
1030,B-5,306.75,0.25,70,122.29
1031,D6,307.0,31/125,86,122.29
1032,B-3,307.0,1.0,47,122.29
1033,B-5,307.25,0.25,69,122.29
1034,A5,307.5,0.25,69,122.29
1035,G5,307.75,0.25,69,122.29
1036,E6,308.0,31/125,85,122.29
1037,G3,308.0,1.0,54,122.29
1038,B-3,308.0,1.0,54,122.29
1039,B-5,308.25,0.25,68,122.29
1040,A5,308.5,0.25,68,122.29
1041,G5,308.75,0.25,68,122.29
1042,F6,309.0,31/125,80,122.29
1043,C4,309.0,1.0,62,122.29
1044,A3,309.0,1.0,62,122.29
1045,C6,309.25,0.25,61,122.29
1046,A5,309.5,0.25,61,122.29
1047,F5,309.75,0.25,61,122.29
1048,G5,310.0,0.125,45,122.29
1049,C4,310.0,1.0,42,122.29
1050,A5,310.125,0.125,39,122.29
1051,G5,310.25,0.125,46,122.29
1052,A5,310.375,0.125,40,122.29
1053,G5,310.5,0.125,48,122.29
1054,A5,310.625,0.125,45,122.29
1055,G5,310.75,0.125,51,122.29
1056,A5,310.875,0.125,46,122.29
1057,G5,311.0,0.125,51,122.29
1058,C3,311.0,1.0,38,122.29
1059,A5,311.125,0.125,47,122.29
1060,G5,311.25,0.125,47,122.29
1061,A5,311.375,0.125,45,122.29
1062,G5,311.5,0.125,47,122.29
1063,A5,311.625,0.125,43,122.29
1064,G5,311.75,83/1000,43,122.29
1065,F5,311.833,83/1000,43,122.29
1066,G5,311.919,81/1000,43,122.29
1067,F5,312.0,1.75,66,122.29
1068,G5,312.0,1/500,43,122.29
1069,F3,312.0,1.0,47,122.29
1070,F2,313.0,0.75,31,122.29
1071,G4,314.0,0.25,58,122.29
1072,F4,314.25,0.25,58,122.29
1073,E4,314.5,0.25,61,122.29
1074,D4,314.75,0.25,65,122.29
1075,D5,315.0,1.5,82,122.29
1076,F3,316.0,1.0,47,122.29
1077,E5,316.5,1.0,64,122.29
1078,D3,317.0,1.0,40,122.29
1079,F5,317.5,0.5,69,122.29
1080,F5,318.0,0.5,69,122.29
1081,E3,318.0,1.0,48,122.29
1082,A4,318.5,1.0,69,122.29
1083,B2,319.0,1.0,40,122.29
1084,G#4,319.5,1.0,65,122.29
1085,C#3,320.0,1.0,40,122.29
1086,G4,320.5,0.5,68,122.29
1087,G4,321.0,0.5,68,122.29
1088,D3,321.0,1.0,46,122.29
1089,F4,321.5,1.0,70,122.29
1090,F2,322.0,1.0,48,122.29
1091,A4,322.5,0.5,69,122.29
1092,A4,323.0,0.25,70,122.29
1093,G2,323.0,1.0,41,122.29
1094,B-4,323.25,83/1000,50,122.29
1095,A4,323.333,83/1000,42,122.29
1096,G4,323.419,83/1000,39,122.29
1097,A4,323.5,0.25,59,122.29
1098,B-4,323.75,229/1000,49,122.29
1099,D4,324.0,1.0,50,122.29
1100,A2,324.0,1.0,43,122.29
1101,C#4,325.0,0.5,45,122.29
1102,A1,325.0,0.5,36,122.29
1103,B-4,326.0,0.25,58,122.29
1104,A4,326.25,0.25,58,122.29
1105,G4,326.5,0.25,61,122.29
1106,F4,326.75,0.25,65,122.29
1107,D5,327.0,31/125,81,122.29
1108,F3,327.0,2.0,42,122.29
1109,A3,327.0,2.0,42,122.29
1110,C4,327.0,2.0,42,122.29
1111,C5,327.25,0.25,63,122.29
1112,B-4,327.5,0.25,63,122.29
1113,A4,327.75,0.25,63,122.29
1114,G5,328.0,31/125,78,122.29
1115,F5,328.25,0.25,64,122.29
1116,E5,328.5,0.25,64,122.29
1117,F5,328.75,0.25,64,122.29
1118,B-5,329.0,31/125,79,122.29
1119,E-4,329.0,1.0,37,122.29
1120,F4,329.0,1.0,37,122.29
1121,A5,329.25,0.25,66,122.29
1122,G5,329.5,0.25,67,122.29
1123,F5,329.75,229/1000,67,122.29
1124,C6,330.0,31/125,86,122.29
1125,F4,330.0,2.0,53,122.29
1126,D4,330.0,1.0,45,122.29
1127,B-5,330.25,0.25,70,122.29
1128,A5,330.5,0.25,70,122.29
1129,B-5,330.75,0.25,70,122.29
1130,D6,331.0,31/125,86,122.29
1131,B-3,331.0,1.0,47,122.29
1132,B-5,331.25,0.25,69,122.29
1133,A5,331.5,0.25,69,122.29
1134,G5,331.75,0.25,69,122.29
1135,E6,332.0,31/125,85,122.29
1136,G3,332.0,1.0,54,122.29
1137,B-3,332.0,1.0,54,122.29
1138,B-5,332.25,0.25,68,122.29
1139,A5,332.5,0.25,68,122.29
1140,G5,332.75,0.25,68,122.29
1141,F6,333.0,31/125,80,122.29
1142,C4,333.0,1.0,62,122.29
1143,A3,333.0,1.0,62,122.29
1144,C6,333.25,0.25,61,122.29
1145,A5,333.5,0.25,61,122.29
1146,F5,333.75,0.25,61,122.29
1147,G5,334.0,0.125,45,122.29
1148,C4,334.0,1.0,42,122.29
1149,A5,334.125,0.125,39,122.29
1150,G5,334.25,0.125,46,122.29
1151,A5,334.375,0.125,40,122.29
1152,G5,334.5,0.125,48,122.29
1153,A5,334.625,0.125,45,122.29
1154,G5,334.75,0.125,51,122.29
1155,A5,334.875,0.125,46,122.29
1156,G5,335.0,0.125,51,122.29
1157,C3,335.0,1.0,38,122.29
1158,A5,335.125,0.125,47,122.29
1159,G5,335.25,0.125,47,122.29
1160,A5,335.375,0.125,45,122.29
1161,G5,335.5,0.125,47,122.29
1162,A5,335.625,0.125,43,122.29
1163,G5,335.75,83/1000,43,122.29
1164,F5,335.833,83/1000,43,122.29
1165,G5,335.919,81/1000,43,122.29
1166,F5,336.0,1.75,66,122.29
1167,G5,336.0,1/500,43,122.29
1168,F3,336.0,1.0,47,122.29
1169,F2,337.0,0.75,31,122.29
1170,B-5,338.0,0.25,49,122.29
1171,A5,338.25,0.25,49,122.29
1172,G5,338.5,0.25,51,122.29
1173,F5,338.75,0.25,55,122.29
1174,C6,339.0,1.25,64,122.29
1175,A4,340.0,1.0,32,122.29
1176,C5,340.0,1.0,32,122.29
1177,E-5,340.25,0.25,46,122.29
1178,D5,340.5,0.25,49,122.29
1179,E-5,340.75,0.25,46,122.29
1180,F5,341.0,0.25,55,122.29
1181,G4,341.0,1.0,28,122.29
1182,B-4,341.0,1.0,28,122.29
1183,E-5,341.25,0.25,47,122.29
1184,D5,341.5,0.25,49,122.29
1185,E-5,341.75,229/1000,44,122.29
1186,D5,342.0,31/125,53,122.29
1187,A4,342.0,2.0,33,122.29
1188,F#4,342.0,2.0,33,122.29
1189,A5,342.25,0.25,45,122.29
1190,B-5,342.5,0.25,49,122.29
1191,A5,342.75,0.25,45,122.29
1192,D6,343.0,31/125,60,122.29
1193,C6,343.25,0.25,47,122.29
1194,B-5,343.5,0.25,51,122.29
1195,A5,343.75,0.25,47,122.29
1196,B-5,344.0,31/125,58,122.29
1197,G4,344.0,1.0,31,122.29
1198,D5,344.0,1.0,31,122.29
1199,G5,344.25,0.25,50,122.29
1200,A5,344.5,0.25,53,122.29
1201,B-5,344.75,0.25,50,122.29
1202,C6,345.0,31/125,60,122.29
1203,E4,345.0,1.0,33,122.29
1204,C5,345.0,2.0,39,122.29
1205,B-5,345.25,0.25,51,122.29
1206,A5,345.5,0.25,51,122.29
1207,G5,345.75,0.25,50,122.29
1208,A5,346.0,31/125,56,122.29
1209,F4,346.0,1.0,40,122.29
1210,F5,346.25,0.25,49,122.29
1211,E5,346.5,0.25,49,122.29
1212,D5,346.75,0.25,49,122.29
1213,B-5,347.0,0.25,55,122.29
1214,G4,347.0,1.0,31,122.29
1215,G3,347.0,1.0,31,122.29
1216,G5,347.25,0.25,48,122.29
1217,F5,347.5,0.25,48,122.29
1218,E5,347.75,229/1000,41,122.29
1219,D5,348.0,1.0,42,122.29
1220,A3,348.0,1.5,30,122.29
1221,E4,348.0,1.5,30,122.29
1222,C#5,349.0,0.5,38,122.29
1223,A4,350.0,0.25,47,122.29
1224,G4,350.25,0.25,49,122.29
1225,F4,350.5,0.25,50,122.29
1226,E4,350.75,0.25,52,122.29
1227,G5,351.0,1.25,64,122.29
1228,B-3,352.0,1.0,38,122.29
1229,C#4,352.0,1.0,38,122.29
1230,A5,352.25,0.25,64,122.29
1231,G5,352.5,0.25,64,122.29
1232,E5,352.75,0.25,64,122.29
1233,C#6,353.0,0.25,74,122.29
1234,G3,353.0,1.0,33,122.29
1235,B-3,353.0,1.0,33,122.29
1236,D6,353.25,0.25,64,122.29
1237,C#6,353.5,0.25,69,122.29
1238,B-5,353.75,229/1000,68,122.29
1239,D6,354.0,0.25,86,122.29
1240,F3,354.0,1.0,48,122.29
1241,D4,354.0,1.0,48,122.29
1242,A3,354.0,1.0,48,122.29
1243,E6,354.25,0.25,70,122.29
1244,D6,354.5,0.25,76,122.29
1245,A5,354.75,0.25,70,122.29
1246,E6,355.0,0.25,82,122.29
1247,E3,355.0,1.0,43,122.29
1248,G3,355.0,1.0,43,122.29
1249,C#4,355.0,1.0,43,122.29
1250,F6,355.25,0.25,68,122.29
1251,E6,355.5,0.25,77,122.29
1252,A5,355.75,0.25,68,122.29
1253,F6,356.0,0.25,81,122.29
1254,D3,356.0,1.0,48,122.29
1255,D4,356.0,1.0,48,122.29
1256,F3,356.0,1.0,48,122.29
1257,D6,356.25,0.25,68,122.29
1258,C#6,356.5,0.25,74,122.29
1259,D6,356.75,0.25,68,122.29
1260,C6,357.0,0.25,80,122.29
1261,G3,357.0,1.0,61,122.29
1262,B-5,357.25,0.25,61,122.29
1263,A5,357.5,0.25,68,122.29
1264,G5,357.75,0.25,61,122.29
1265,F5,358.0,1.0,66,122.29
1266,A3,358.0,1.0,42,122.29
1267,E5,359.0,0.125,47,122.29
1268,A2,359.0,1.0,38,122.29
1269,F5,359.125,0.125,44,122.29
1270,E5,359.25,0.125,47,122.29
1271,F5,359.375,0.125,45,122.29
1272,E5,359.5,0.125,47,122.29
1273,F5,359.625,0.125,43,122.29
1274,E5,359.75,83/1000,43,122.29
1275,D5,359.833,83/1000,43,122.29
1276,E5,359.919,81/1000,43,122.29
1277,D5,360.0,1.75,66,122.29
1278,E5,360.0,1/500,43,122.29
1279,D3,360.0,1.0,47,122.29
1280,D2,361.0,0.75,31,122.29
1281,B-5,362.0,0.25,49,122.29
1282,A5,362.25,0.25,49,122.29
1283,G5,362.5,0.25,51,122.29
1284,F5,362.75,0.25,55,122.29
1285,C6,363.0,1.25,64,122.29
1286,A4,364.0,1.0,32,122.29
1287,C5,364.0,1.0,32,122.29
1288,E-5,364.25,0.25,46,122.29
1289,D5,364.5,0.25,49,122.29
1290,E-5,364.75,0.25,46,122.29
1291,F5,365.0,0.25,55,122.29
1292,G4,365.0,1.0,28,122.29
1293,B-4,365.0,1.0,28,122.29
1294,E-5,365.25,0.25,47,122.29
1295,D5,365.5,0.25,49,122.29
1296,E-5,365.75,229/1000,44,122.29
1297,D5,366.0,31/125,53,122.29
1298,A4,366.0,2.0,33,122.29
1299,F#4,366.0,2.0,33,122.29
1300,A5,366.25,0.25,45,122.29
1301,B-5,366.5,0.25,49,122.29
1302,A5,366.75,0.25,45,122.29
1303,D6,367.0,31/125,60,122.29
1304,C6,367.25,0.25,47,122.29
1305,B-5,367.5,0.25,51,122.29
1306,A5,367.75,0.25,47,122.29
1307,B-5,368.0,31/125,58,122.29
1308,G4,368.0,1.0,31,122.29
1309,D5,368.0,1.0,31,122.29
1310,G5,368.25,0.25,50,122.29
1311,A5,368.5,0.25,53,122.29
1312,B-5,368.75,0.25,50,122.29
1313,C6,369.0,31/125,60,122.29
1314,E4,369.0,1.0,33,122.29
1315,C5,369.0,2.0,39,122.29
1316,B-5,369.25,0.25,51,122.29
1317,A5,369.5,0.25,51,122.29
1318,G5,369.75,0.25,50,122.29
1319,A5,370.0,31/125,56,122.29
1320,F4,370.0,1.0,40,122.29
1321,F5,370.25,0.25,49,122.29
1322,E5,370.5,0.25,49,122.29
1323,D5,370.75,0.25,49,122.29
1324,B-5,371.0,0.25,55,122.29
1325,G4,371.0,1.0,31,122.29
1326,G3,371.0,1.0,31,122.29
1327,G5,371.25,0.25,48,122.29
1328,F5,371.5,0.25,48,122.29
1329,E5,371.75,229/1000,41,122.29
1330,D5,372.0,1.0,42,122.29
1331,A3,372.0,1.5,30,122.29
1332,E4,372.0,1.5,30,122.29
1333,C#5,373.0,0.5,38,122.29
1334,A4,374.0,0.25,47,122.29
1335,G4,374.25,0.25,49,122.29
1336,F4,374.5,0.25,50,122.29
1337,E4,374.75,0.25,52,122.29
1338,G5,375.0,1.25,64,122.29
1339,B-3,376.0,1.0,38,122.29
1340,C#4,376.0,1.0,38,122.29
1341,A5,376.25,0.25,64,122.29
1342,G5,376.5,0.25,64,122.29
1343,E5,376.75,0.25,64,122.29
1344,C#6,377.0,0.25,74,122.29
1345,G3,377.0,1.0,33,122.29
1346,B-3,377.0,1.0,33,122.29
1347,D6,377.25,0.25,64,122.29
1348,C#6,377.5,0.25,69,122.29
1349,B-5,377.75,229/1000,68,122.29
1350,D6,378.0,0.25,86,122.29
1351,F3,378.0,1.0,48,122.29
1352,D4,378.0,1.0,48,122.29
1353,A3,378.0,1.0,48,122.29
1354,E6,378.25,0.25,70,122.29
1355,D6,378.5,0.25,76,122.29
1356,A5,378.75,0.25,70,122.29
1357,E6,379.0,0.25,82,122.29
1358,E3,379.0,1.0,43,122.29
1359,G3,379.0,1.0,43,122.29
1360,C#4,379.0,1.0,43,122.29
1361,F6,379.25,0.25,68,122.29
1362,E6,379.5,0.25,77,122.29
1363,A5,379.75,0.25,68,122.29
1364,F6,380.0,0.25,81,122.29
1365,D3,380.0,1.0,48,122.29
1366,D4,380.0,1.0,48,122.29
1367,F3,380.0,1.0,48,122.29
1368,D6,380.25,0.25,68,122.29
1369,C#6,380.5,0.25,74,122.29
1370,D6,380.75,0.25,68,122.29
1371,C6,381.0,0.25,80,122.29
1372,G3,381.0,1.0,61,122.29
1373,B-5,381.25,0.25,61,122.29
1374,A5,381.5,0.25,68,122.29
1375,G5,381.75,0.25,61,122.29
1376,F5,382.0,1.0,66,122.29
1377,A3,382.0,1.0,42,122.29
1378,E5,383.0,0.125,47,122.29
1379,A2,383.0,1.0,38,122.29
1380,F5,383.125,0.125,44,122.29
1381,E5,383.25,0.125,47,122.29
1382,F5,383.375,0.125,45,122.29
1383,E5,383.5,0.125,47,122.29
1384,F5,383.625,0.125,43,122.29
1385,E5,383.75,83/1000,43,122.29
1386,D5,383.833,83/1000,43,122.29
1387,E5,383.919,81/1000,43,122.29
1388,D5,384.0,1.75,66,122.29
1389,E5,384.0,1/500,43,122.29
1390,D3,384.0,1.0,47,122.29
1391,D2,385.0,0.75,31,122.29
1392,A4,386.0,0.75,50,122.29
1393,F#4,386.75,0.25,45,122.29
1394,D5,387.0,0.188,50,122.29
1395,D4,387.0,0.188,46,122.29
1396,D5,388.0,0.188,47,122.29
1397,F#4,388.0,0.188,41,122.29
1398,D5,389.0,0.5,47,122.29
1399,D4,389.0,0.5,41,122.29
1400,C#5,389.5,0.125,47,122.29
1401,D5,389.625,0.125,47,122.29
1402,E5,389.75,0.125,47,122.29
1403,D5,389.875,0.125,47,122.29
1404,C#5,390.0,0.75,51,122.29
1405,A4,390.0,1.0,47,122.29
1406,E5,390.75,0.25,52,122.29
1407,G5,391.0,1.75,56,122.29
1408,A3,391.0,1.0,38,122.29
1409,C#4,392.0,1.0,38,122.29
1410,E5,392.75,0.25,51,122.29
1411,F#5,393.0,0.75,58,122.29
1412,D4,393.0,1.0,45,122.29
1413,D5,393.75,0.25,53,122.29
1414,A5,394.0,0.75,58,122.29
1415,F#4,394.0,1.0,47,122.29
1416,F#5,394.75,0.25,54,122.29
1417,B5,395.0,0.75,59,122.29
1418,G4,395.0,1.0,48,122.29
1419,G5,395.75,0.25,48,122.29
1420,F#5,396.0,1.0,51,122.29
1421,A4,396.0,1.0,39,122.29
1422,E5,397.0,0.75,39,122.29
1423,A3,397.0,0.75,30,122.29
1424,A4,398.0,0.75,50,122.29
1425,F#4,398.75,0.25,45,122.29
1426,D5,399.0,0.188,50,122.29
1427,D4,399.0,0.188,46,122.29
1428,D5,400.0,0.188,47,122.29
1429,F#4,400.0,0.188,41,122.29
1430,D5,401.0,0.5,47,122.29
1431,D4,401.0,0.5,41,122.29
1432,C#5,401.5,0.125,47,122.29
1433,D5,401.625,0.125,47,122.29
1434,E5,401.75,0.125,47,122.29
1435,D5,401.875,0.125,47,122.29
1436,C#5,402.0,0.75,58,122.29
1437,A4,402.0,1.0,47,122.29
1438,E5,402.75,0.25,53,122.29
1439,G5,403.0,0.75,58,122.29
1440,C#4,403.0,1.0,38,122.29
1441,E5,403.75,0.25,54,122.29
1442,F#5,404.0,0.75,59,122.29
1443,D4,404.0,1.0,39,122.29
1444,D5,404.75,0.25,48,122.29
1445,B4,405.0,0.25,58,122.29
1446,G3,405.0,2.0,43,122.29
1447,G4,405.0,2.0,43,122.29
1448,E5,406.0,0.25,56,122.29
1449,C#5,407.0,0.5,45,122.29
1450,G4,407.0,1.0,45,122.29
1451,E4,407.0,1.0,37,122.29
1452,A3,407.0,1.0,37,122.29
1453,D5,407.5,0.125,55,122.29
1454,C#5,407.625,0.125,48,122.29
1455,B4,407.75,0.125,48,122.29
1456,C#5,407.875,0.125,48,122.29
1457,D4,408.0,1.0,46,122.29
1458,D5,408.0,1.0,54,122.29
1459,F#4,408.0,1.0,54,122.29
1460,D3,409.0,1.0,28,122.29
1461,F#4,410.0,0.25,50,122.29
1462,D4,410.25,0.25,45,122.29
1463,A4,410.5,0.25,45,122.29
1464,F#4,410.75,0.25,45,122.29
1465,D5,411.0,0.25,56,122.29
1466,A4,411.25,0.25,45,122.29
1467,B4,411.5,0.25,45,122.29
1468,C#5,411.75,0.25,45,122.29
1469,D5,412.0,0.25,55,122.29
1470,F#4,412.0,1.0,41,122.29
1471,E5,412.25,0.25,45,122.29
1472,F#5,412.5,0.25,45,122.29
1473,G5,412.75,0.25,45,122.29
1474,A5,413.0,0.25,61,122.29
1475,D4,413.0,1.0,37,122.29
1476,F#5,413.25,0.25,52,122.29
1477,E5,413.5,0.25,52,122.29
1478,D5,413.75,0.25,50,122.29
1479,C#5,414.0,0.25,54,122.29
1480,E4,414.0,1.0,48,122.29
1481,D5,414.25,0.25,45,122.29
1482,E5,414.5,0.25,45,122.29
1483,F#5,414.75,0.25,45,122.29
1484,G5,415.0,0.25,51,122.29
1485,C#4,415.0,1.0,41,122.29
1486,E5,415.25,0.25,47,122.29
1487,G5,415.5,0.25,48,122.29
1488,A5,415.75,0.25,49,122.29
1489,B5,416.0,0.25,55,122.29
1490,A3,416.0,1.0,46,122.29
1491,G5,416.25,0.25,45,122.29
1492,F#5,416.5,0.25,45,122.29
1493,E5,416.75,0.25,45,122.29
1494,F#5,417.0,0.25,55,122.29
1495,D4,417.0,1.0,45,122.29
1496,D5,417.25,0.25,53,122.29
1497,E5,417.5,0.25,53,122.29
1498,F#5,417.75,0.25,53,122.29
1499,G5,418.0,0.25,64,122.29
1500,B3,418.0,1.0,52,122.29
1501,A5,418.25,0.25,53,122.29
1502,B5,418.5,0.25,56,122.29
1503,C#6,418.75,0.25,58,122.29
1504,D6,419.0,0.25,65,122.29
1505,G3,419.0,1.0,47,122.29
1506,B5,419.25,0.25,57,122.29
1507,A5,419.5,0.25,45,122.29
1508,G5,419.75,0.25,45,122.29
1509,A3,420.0,1.0,43,122.29
1510,D5,420.0,1.0,52,122.29
1511,F#5,420.0,1.0,52,122.29
1512,A2,421.0,0.5,36,122.29
1513,C#5,421.0,0.5,46,122.29
1514,E5,421.0,0.5,46,122.29
1515,F#4,422.0,0.25,46,122.29
1516,D4,422.25,0.25,47,122.29
1517,A4,422.5,0.25,49,122.29
1518,F#4,422.75,0.25,53,122.29
1519,D5,423.0,0.25,62,122.29
1520,A4,423.25,0.25,49,122.29
1521,B4,423.5,0.25,49,122.29
1522,C#5,423.75,0.25,49,122.29
1523,D5,424.0,0.25,60,122.29
1524,F#4,424.0,1.0,41,122.29
1525,E5,424.25,0.25,48,122.29
1526,F#5,424.5,0.25,48,122.29
1527,G5,424.75,0.25,48,122.29
1528,A5,425.0,0.25,61,122.29
1529,D4,425.0,1.0,41,122.29
1530,F#5,425.25,0.25,52,122.29
1531,E5,425.5,0.25,52,122.29
1532,D5,425.75,0.25,50,122.29
1533,C#5,426.0,0.25,54,122.29
1534,E4,426.0,1.0,53,122.29
1535,D5,426.25,0.25,45,122.29
1536,E5,426.5,0.25,45,122.29
1537,F#5,426.75,0.25,45,122.29
1538,G5,427.0,0.25,56,122.29
1539,A3,427.0,1.0,41,122.29
1540,F#5,427.25,0.25,47,122.29
1541,E5,427.5,0.25,48,122.29
1542,D5,427.75,0.25,49,122.29
1543,C#5,428.0,0.25,55,122.29
1544,C#4,428.0,1.0,37,122.29
1545,B4,428.25,0.25,45,122.29
1546,A4,428.5,0.25,45,122.29
1547,G4,428.75,0.25,45,122.29
1548,F#4,429.0,0.25,55,122.29
1549,D4,429.0,1.0,45,122.29
1550,A4,429.25,0.25,46,122.29
1551,G4,429.5,0.25,46,122.29
1552,F#4,429.75,0.25,46,122.29
1553,E4,430.0,0.25,55,122.29
1554,G3,430.0,1.0,39,122.29
1555,B4,430.25,0.25,45,122.29
1556,A4,430.5,0.25,45,122.29
1557,G4,430.75,0.25,45,122.29
1558,F#4,431.0,0.25,53,122.29
1559,A3,431.0,1.0,39,122.29
1560,A2,431.0,1.0,39,122.29
1561,E4,431.25,0.25,42,122.29
1562,D4,431.5,0.25,45,122.29
1563,C#4,431.75,0.25,38,122.29
1564,D4,432.0,1.0,53,122.29
1565,D3,432.0,1.0,43,122.29
1566,D2,433.0,0.5,36,122.29
1567,F#5,434.0,0.25,53,122.29
1568,D5,434.25,0.25,55,122.29
1569,A5,434.5,0.25,61,122.29
1570,F#5,434.75,0.25,63,122.29
1571,D6,435.0,0.25,71,122.29
1572,A5,435.25,0.25,55,122.29
1573,F#5,435.5,0.25,55,122.29
1574,D5,435.75,0.25,55,122.29
1575,B4,436.0,0.312,69,122.29
1576,D5,436.25,0.25,56,122.29
1577,E5,436.5,0.25,56,122.29
1578,G#5,436.75,0.25,51,122.29
1579,C#5,437.0,0.312,68,122.29
1580,E5,437.25,0.25,55,122.29
1581,C#6,437.5,0.25,53,122.29
1582,E6,437.75,0.25,51,122.29
1583,B4,438.0,0.312,62,122.29
1584,D5,438.25,0.25,53,122.29
1585,G5,438.5,0.25,53,122.29
1586,B5,438.75,0.25,53,122.29
1587,A4,439.0,0.312,58,122.29
1588,C#5,439.25,0.25,47,122.29
1589,F#5,439.5,0.25,47,122.29
1590,A5,439.75,0.25,47,122.29
1591,G4,440.0,0.312,55,122.29
1592,B4,440.25,0.25,48,122.29
1593,E5,440.5,0.25,48,122.29
1594,G5,440.75,0.25,45,122.29
1595,F#4,441.0,0.312,61,122.29
1596,A4,441.25,0.25,50,122.29
1597,D5,441.5,0.25,50,122.29
1598,F#5,441.75,0.25,47,122.29
1599,E4,442.0,0.312,55,122.29
1600,G4,442.25,0.25,50,122.29
1601,C#5,442.5,0.25,50,122.29
1602,G5,442.75,0.25,48,122.29
1603,D4,443.0,0.25,54,122.29
1604,A4,443.25,0.25,46,122.29
1605,F#5,443.5,0.25,46,122.29
1606,D6,443.75,0.25,47,122.29
1607,A3,444.0,1.0,43,122.29
1608,D5,444.0,1.0,52,122.29
1609,F#5,444.0,1.0,52,122.29
1610,A2,445.0,0.5,36,122.29
1611,C#5,445.0,0.5,46,122.29
1612,E5,445.0,0.5,46,122.29
1613,F#5,446.0,0.25,52,122.29
1614,D5,446.25,0.25,57,122.29
1615,A5,446.5,0.25,61,122.29
1616,F#5,446.75,0.25,61,122.29
1617,D6,447.0,0.25,73,122.29
1618,A5,447.25,0.25,57,122.29
1619,F#5,447.5,0.25,57,122.29
1620,D5,447.75,0.25,57,122.29
1621,B4,448.0,0.312,65,122.29
1622,D5,448.25,0.25,53,122.29
1623,E5,448.5,0.25,53,122.29
1624,G#5,448.75,0.25,53,122.29
1625,C#5,449.0,0.312,64,122.29
1626,E5,449.25,0.25,53,122.29
1627,C#6,449.5,0.25,53,122.29
1628,E6,449.75,0.25,53,122.29
1629,B4,450.0,0.312,61,122.29
1630,D5,450.25,0.25,49,122.29
1631,G5,450.5,0.25,49,122.29
1632,B5,450.75,0.25,46,122.29
1633,A4,451.0,0.312,57,122.29
1634,C#5,451.25,0.25,43,122.29
1635,F#5,451.5,0.25,43,122.29
1636,A5,451.75,0.25,43,122.29
1637,G4,452.0,0.312,50,122.29
1638,B4,452.25,0.25,45,122.29
1639,E5,452.5,0.25,45,122.29
1640,G5,452.75,0.25,45,122.29
1641,F#4,453.0,0.312,61,122.29
1642,A4,453.25,0.25,50,122.29
1643,D5,453.5,0.25,50,122.29
1644,F#5,453.75,0.25,47,122.29
1645,G4,454.0,0.312,54,122.29
1646,B4,454.25,0.25,43,122.29
1647,E5,454.5,0.25,43,122.29
1648,G5,454.75,0.25,42,122.29
1649,A3,455.0,0.25,50,122.29
1650,E4,455.25,0.25,38,122.29
1651,G4,455.5,0.25,38,122.29
1652,C#5,455.75,0.25,38,122.29
1653,D4,456.0,1.0,39,122.29
1654,D5,456.0,1.0,50,122.29
1655,F#4,456.0,1.0,50,122.29
1656,D3,457.0,0.5,33,122.29
1657,F#5,458.0,0.25,39,122.29
1658,D5,458.25,0.25,41,122.29
1659,A5,458.5,0.25,45,122.29
1660,F#5,458.75,0.25,47,122.29
1661,D6,459.0,0.25,53,122.29
1662,A5,459.25,0.25,41,122.29
1663,F#5,459.5,0.25,41,122.29
1664,D5,459.75,0.25,41,122.29
1665,B4,460.0,0.312,51,122.29
1666,D5,460.25,0.25,42,122.29
1667,E5,460.5,0.25,42,122.29
1668,G#5,460.75,0.25,38,122.29
1669,C#5,461.0,0.312,51,122.29
1670,E5,461.25,0.25,41,122.29
1671,C#6,461.5,0.25,39,122.29
1672,E6,461.75,0.25,38,122.29
1673,B4,462.0,0.312,46,122.29
1674,D5,462.25,0.25,39,122.29
1675,G5,462.5,0.25,39,122.29
1676,B5,462.75,0.25,39,122.29
1677,A4,463.0,0.312,43,122.29
1678,C#5,463.25,0.25,35,122.29
1679,F#5,463.5,0.25,35,122.29
1680,A5,463.75,0.25,35,122.29
1681,G4,464.0,0.312,41,122.29
1682,B4,464.25,0.25,36,122.29
1683,E5,464.5,0.25,36,122.29
1684,G5,464.75,0.25,33,122.29
1685,F#4,465.0,0.312,45,122.29
1686,A4,465.25,0.25,37,122.29
1687,D5,465.5,0.25,37,122.29
1688,F#5,465.75,0.25,35,122.29
1689,E4,466.0,0.312,41,122.29
1690,G4,466.25,0.25,37,122.29
1691,C#5,466.5,0.25,37,122.29
1692,G5,466.75,0.25,36,122.29
1693,D4,467.0,0.25,40,122.29
1694,A4,467.25,0.25,34,122.29
1695,F#5,467.5,0.25,34,122.29
1696,D6,467.75,0.25,35,122.29
1697,A3,468.0,1.0,32,122.29
1698,D5,468.0,1.0,38,122.29
1699,F#5,468.0,1.0,38,122.29
1700,A2,469.0,0.5,27,122.29
1701,C#5,469.0,0.5,34,122.29
1702,E5,469.0,0.5,34,122.29
1703,F#5,470.0,0.25,39,122.29
1704,D5,470.25,0.25,42,122.29
1705,A5,470.5,0.25,45,122.29
1706,F#5,470.75,0.25,45,122.29
1707,D6,471.0,0.25,54,122.29
1708,A5,471.25,0.25,42,122.29
1709,F#5,471.5,0.25,42,122.29
1710,D5,471.75,0.25,42,122.29
1711,B4,472.0,0.312,48,122.29
1712,D5,472.25,0.25,39,122.29
1713,E5,472.5,0.25,39,122.29
1714,G#5,472.75,0.25,39,122.29
1715,C#5,473.0,0.312,48,122.29
1716,E5,473.25,0.25,39,122.29
1717,C#6,473.5,0.25,39,122.29
1718,E6,473.75,0.25,39,122.29
1719,B4,474.0,0.312,45,122.29
1720,D5,474.25,0.25,36,122.29
1721,G5,474.5,0.25,36,122.29
1722,B5,474.75,0.25,34,122.29
1723,A4,475.0,0.312,42,122.29
1724,C#5,475.25,0.25,32,122.29
1725,F#5,475.5,0.25,32,122.29
1726,A5,475.75,0.25,32,122.29
1727,G4,476.0,0.312,37,122.29
1728,B4,476.25,0.25,33,122.29
1729,E5,476.5,0.25,33,122.29
1730,G5,476.75,0.25,33,122.29
1731,F#4,477.0,0.312,45,122.29
1732,A4,477.25,0.25,37,122.29
1733,D5,477.5,0.25,37,122.29
1734,F#5,477.75,0.25,35,122.29
1735,G4,478.0,0.312,40,122.29
1736,B4,478.25,0.25,32,122.29
1737,E5,478.5,0.25,32,122.29
1738,G5,478.75,0.25,31,122.29
1739,A3,479.0,0.25,37,122.29
1740,E4,479.25,0.25,28,122.29
1741,G4,479.5,0.25,28,122.29
1742,C#5,479.75,0.25,28,122.29
1743,D4,480.0,1.0,29,122.29
1744,D5,480.0,1.0,37,122.29
1745,F#4,480.0,1.0,37,122.29
1746,D3,481.0,0.5,24,122.29
