,note_name,start_time,duration,velocity,tempo
0,D5,1.5,0.375,72,90.0
1,G5,1.875,0.125,66,90.0
2,D5,2.0,0.5,72,90.0
3,G3,2.0,1.0,57,90.0
4,B3,2.0,1.0,57,90.0
5,B4,2.5,0.375,72,90.0
6,D5,2.875,0.125,67,90.0
7,B4,3.0,0.5,72,90.0
8,G4,3.5,0.375,72,90.0
9,B4,3.875,0.125,66,90.0
10,G4,4.0,1.0,72,90.0
11,G3,4.5,0.5,52,90.0
12,B3,4.5,0.5,52,90.0
13,G3,5.0,1.0,57,90.0
14,B3,5.0,1.0,57,90.0
15,D5,5.5,0.5,72,90.0
16,C5,6.0,167/1000,72,90.0
17,D5,6.167,167/1000,66,90.0
18,E5,6.333,167/1000,66,90.0
19,D5,6.5,0.5,72,90.0
20,G3,6.5,0.5,52,90.0
21,B3,6.5,0.5,52,90.0
22,G3,7.0,1.0,57,90.0
23,B3,7.0,1.0,57,90.0
24,B4,7.5,0.5,72,90.0
25,A4,8.0,167/1000,72,90.0
26,B4,8.167,167/1000,63,90.0
27,C5,8.333,167/1000,64,90.0
28,B4,8.5,0.5,72,90.0
29,G3,8.5,0.5,52,90.0
30,B3,8.5,0.5,52,90.0
31,G3,9.0,1.0,57,90.0
32,B3,9.0,1.0,57,90.0
33,D5,9.5,0.5,72,90.0
34,E5,10.0,0.062,67,90.0
35,C3,10.0,1.0,57,90.0
36,C4,10.0,1.0,57,90.0
37,F#5,10.062,0.062,54,90.0
38,E5,10.125,0.125,66,90.0
39,D5,10.25,0.25,61,90.0
40,E5,10.5,0.25,64,90.0
41,F#5,10.75,0.25,69,90.0
42,G5,11.0,0.25,74,90.0
43,B2,11.0,1.0,57,90.0
44,B3,11.0,1.0,57,90.0
45,F#5,11.25,0.25,67,90.0
46,E5,11.5,0.25,67,90.0
47,D5,11.75,0.25,67,90.0
48,C5,12.0,0.25,61,90.0
49,A3,12.0,0.5,52,90.0
50,D5,12.25,0.125,59,90.0
51,C5,12.375,0.125,52,90.0
52,D5,12.5,0.125,59,90.0
53,D3,12.5,0.5,44,90.0
54,C5,12.625,0.125,52,90.0
55,B4,12.75,0.125,52,90.0
56,C5,12.875,0.125,52,90.0
57,B4,13.0,0.5,62,90.0
58,G3,13.0,1.0,52,90.0
59,B4,13.5,0.5,52,90.0
60,A4,14.0,0.25,56,90.0
61,C3,14.0,1.5,52,90.0
62,C5,14.25,0.25,47,90.0
63,B4,14.5,0.25,55,90.0
64,A4,14.75,0.25,52,90.0
65,E5,15.0,0.5,59,90.0
66,G4,15.5,0.5,54,90.0
67,C#3,15.5,0.5,47,90.0
68,G4,16.0,0.5,51,90.0
69,D3,16.0,0.5,51,90.0
70,F#4,16.5,0.5,44,90.0
71,D2,16.5,0.5,46,90.0
72,D3,17.0,0.25,51,90.0
73,A5,17.25,0.25,51,90.0
74,F#3,17.5,0.25,46,90.0
75,A5,17.75,0.25,51,90.0
76,A3,18.0,0.25,47,90.0
77,A5,18.25,0.25,53,90.0
78,D4,18.5,0.25,51,90.0
79,A5,18.75,0.25,55,90.0
80,F#4,19.0,0.25,56,90.0
81,A5,19.25,0.25,56,90.0
82,D4,19.5,0.25,50,90.0
83,A5,19.75,0.25,58,90.0
84,G5,20.0,167/1000,59,90.0
85,E4,20.0,0.5,58,90.0
86,A5,20.167,167/1000,51,90.0
87,G5,20.333,167/1000,51,90.0
88,F#5,20.5,0.5,60,90.0
89,D4,20.5,0.5,51,90.0
90,E5,21.0,167/1000,59,90.0
91,G4,21.0,0.5,58,90.0
92,F#5,21.167,167/1000,51,90.0
93,E5,21.333,167/1000,51,90.0
94,D5,21.5,0.5,59,90.0
95,F#4,21.5,0.5,52,90.0
96,C#5,22.0,167/1000,60,90.0
97,E4,22.0,0.5,57,90.0
98,B4,22.167,167/1000,51,90.0
99,A4,22.333,167/1000,51,90.0
100,D5,22.5,0.5,61,90.0
101,F#4,22.5,0.5,51,90.0
102,A2,23.0,0.25,51,90.0
103,G5,23.25,0.25,54,90.0
104,C#3,23.5,0.25,46,90.0
105,G5,23.75,0.25,56,90.0
106,E3,24.0,0.25,47,90.0
107,G5,24.25,0.25,59,90.0
108,A3,24.5,0.25,51,90.0
109,G5,24.75,0.25,62,90.0
110,C#4,25.0,0.25,56,90.0
111,G5,25.25,0.25,65,90.0
112,E4,25.5,0.25,50,90.0
113,G5,25.75,0.25,67,90.0
114,F#5,26.0,167/1000,71,90.0
115,D4,26.0,1.0,58,90.0
116,E5,26.167,167/1000,62,90.0
117,D5,26.333,167/1000,56,90.0
118,C#5,26.5,167/1000,60,90.0
119,B4,26.667,167/1000,55,90.0
120,A4,26.833,167/1000,52,90.0
121,E5,27.0,167/1000,59,90.0
122,D4,27.0,0.5,58,90.0
123,F#5,27.167,167/1000,56,90.0
124,E5,27.333,167/1000,56,90.0
125,F#5,27.5,0.125,59,90.0
126,C#4,27.5,0.5,52,90.0
127,E5,27.625,0.125,53,90.0
128,D5,27.75,0.125,59,90.0
129,E5,27.875,0.125,54,90.0
130,D5,28.0,0.5,59,90.0
131,D4,28.0,0.5,58,90.0
132,D6,28.5,0.5,62,90.0
133,B3,28.5,0.25,55,90.0
134,D4,28.75,0.25,44,90.0
135,C#6,29.0,0.5,61,90.0
136,A3,29.0,0.25,54,90.0
137,D4,29.25,0.25,50,90.0
138,B5,29.5,0.5,59,90.0
139,G3,29.5,0.25,55,90.0
140,D4,29.75,0.25,47,90.0
141,A5,30.0,0.5,63,90.0
142,F#3,30.0,0.5,55,90.0
143,B5,30.5,167/1000,70,90.0
144,G3,30.5,0.5,51,90.0
145,A5,30.667,167/1000,65,90.0
146,G5,30.833,167/1000,65,90.0
147,F#5,31.0,0.5,75,90.0
148,A3,31.0,0.5,57,90.0
149,E5,31.5,1/10,73,90.0
150,A2,31.5,0.5,55,90.0
151,F#5,31.6,1/10,66,90.0
152,E5,31.7,1/10,67,90.0
153,D5,31.8,1/10,67,90.0
154,E5,31.9,1/10,67,90.0
155,D5,32.0,1.0,76,90.0
156,D3,32.0,0.25,59,90.0
157,A2,32.5,0.25,54,90.0
158,D2,33.0,0.25,50,90.0
159,D5,33.5,0.375,72,90.0
160,G5,33.875,0.125,66,90.0
161,D5,34.0,0.5,72,90.0
162,G3,34.0,1.0,57,90.0
163,B3,34.0,1.0,57,90.0
164,B4,34.5,0.375,72,90.0
165,D5,34.875,0.125,67,90.0
166,B4,35.0,0.5,72,90.0
167,G4,35.5,0.375,72,90.0
168,B4,35.875,0.125,66,90.0
169,G4,36.0,1.0,72,90.0
170,G3,36.5,0.5,52,90.0
171,B3,36.5,0.5,52,90.0
172,G3,37.0,1.0,57,90.0
173,B3,37.0,1.0,57,90.0
174,D5,37.5,0.5,72,90.0
175,C5,38.0,167/1000,72,90.0
176,D5,38.167,167/1000,66,90.0
177,E5,38.333,167/1000,66,90.0
178,D5,38.5,0.5,72,90.0
179,G3,38.5,0.5,52,90.0
180,B3,38.5,0.5,52,90.0
181,G3,39.0,1.0,57,90.0
182,B3,39.0,1.0,57,90.0
183,B4,39.5,0.5,72,90.0
184,A4,40.0,167/1000,72,90.0
185,B4,40.167,167/1000,63,90.0
186,C5,40.333,167/1000,64,90.0
187,B4,40.5,0.5,72,90.0
188,G3,40.5,0.5,52,90.0
189,B3,40.5,0.5,52,90.0
190,G3,41.0,1.0,57,90.0
191,B3,41.0,1.0,57,90.0
192,D5,41.5,0.5,72,90.0
193,E5,42.0,0.062,67,90.0
194,C3,42.0,1.0,57,90.0
195,C4,42.0,1.0,57,90.0
196,F#5,42.062,0.062,54,90.0
197,E5,42.125,0.125,66,90.0
198,D5,42.25,0.25,61,90.0
199,E5,42.5,0.25,64,90.0
200,F#5,42.75,0.25,69,90.0
201,G5,43.0,0.25,74,90.0
202,B2,43.0,1.0,57,90.0
203,B3,43.0,1.0,57,90.0
204,F#5,43.25,0.25,67,90.0
205,E5,43.5,0.25,67,90.0
206,D5,43.75,0.25,67,90.0
207,C5,44.0,0.25,61,90.0
208,A3,44.0,0.5,52,90.0
209,D5,44.25,0.125,59,90.0
210,C5,44.375,0.125,52,90.0
211,D5,44.5,0.125,59,90.0
212,D3,44.5,0.5,44,90.0
213,C5,44.625,0.125,52,90.0
214,B4,44.75,0.125,52,90.0
215,C5,44.875,0.125,52,90.0
216,B4,45.0,0.5,62,90.0
217,G3,45.0,1.0,52,90.0
218,B4,45.5,0.5,52,90.0
219,A4,46.0,0.25,56,90.0
220,C3,46.0,1.5,52,90.0
221,C5,46.25,0.25,47,90.0
222,B4,46.5,0.25,55,90.0
223,A4,46.75,0.25,52,90.0
224,E5,47.0,0.5,59,90.0
225,G4,47.5,0.5,54,90.0
226,C#3,47.5,0.5,47,90.0
227,G4,48.0,0.5,51,90.0
228,D3,48.0,0.5,51,90.0
229,F#4,48.5,0.5,44,90.0
230,D2,48.5,0.5,46,90.0
231,D3,49.0,0.25,51,90.0
232,A5,49.25,0.25,51,90.0
233,F#3,49.5,0.25,46,90.0
234,A5,49.75,0.25,51,90.0
235,A3,50.0,0.25,47,90.0
236,A5,50.25,0.25,53,90.0
237,D4,50.5,0.25,51,90.0
238,A5,50.75,0.25,55,90.0
239,F#4,51.0,0.25,56,90.0
240,A5,51.25,0.25,56,90.0
241,D4,51.5,0.25,50,90.0
242,A5,51.75,0.25,58,90.0
243,G5,52.0,167/1000,59,90.0
244,E4,52.0,0.5,58,90.0
245,A5,52.167,167/1000,51,90.0
246,G5,52.333,167/1000,51,90.0
247,F#5,52.5,0.5,60,90.0
248,D4,52.5,0.5,51,90.0
249,E5,53.0,167/1000,59,90.0
250,G4,53.0,0.5,58,90.0
251,F#5,53.167,167/1000,51,90.0
252,E5,53.333,167/1000,51,90.0
253,D5,53.5,0.5,59,90.0
254,F#4,53.5,0.5,52,90.0
255,C#5,54.0,167/1000,60,90.0
256,E4,54.0,0.5,57,90.0
257,B4,54.167,167/1000,51,90.0
258,A4,54.333,167/1000,51,90.0
259,D5,54.5,0.5,61,90.0
260,F#4,54.5,0.5,51,90.0
261,A2,55.0,0.25,51,90.0
262,G5,55.25,0.25,54,90.0
263,C#3,55.5,0.25,46,90.0
264,G5,55.75,0.25,56,90.0
265,E3,56.0,0.25,47,90.0
266,G5,56.25,0.25,59,90.0
267,A3,56.5,0.25,51,90.0
268,G5,56.75,0.25,62,90.0
269,C#4,57.0,0.25,56,90.0
270,G5,57.25,0.25,65,90.0
271,E4,57.5,0.25,50,90.0
272,G5,57.75,0.25,67,90.0
273,F#5,58.0,167/1000,71,90.0
274,D4,58.0,1.0,58,90.0
275,E5,58.167,167/1000,62,90.0
276,D5,58.333,167/1000,56,90.0
277,C#5,58.5,167/1000,60,90.0
278,B4,58.667,167/1000,55,90.0
279,A4,58.833,167/1000,52,90.0
280,E5,59.0,167/1000,59,90.0
281,D4,59.0,0.5,58,90.0
282,F#5,59.167,167/1000,56,90.0
283,E5,59.333,167/1000,56,90.0
284,F#5,59.5,0.125,59,90.0
285,C#4,59.5,0.5,52,90.0
286,E5,59.625,0.125,53,90.0
287,D5,59.75,0.125,59,90.0
288,E5,59.875,0.125,54,90.0
289,D5,60.0,0.5,59,90.0
290,D4,60.0,0.5,58,90.0
291,D6,60.5,0.5,62,90.0
292,B3,60.5,0.25,55,90.0
293,D4,60.75,0.25,44,90.0
294,C#6,61.0,0.5,61,90.0
295,A3,61.0,0.25,54,90.0
296,D4,61.25,0.25,50,90.0
297,B5,61.5,0.5,59,90.0
298,G3,61.5,0.25,55,90.0
299,D4,61.75,0.25,47,90.0
300,A5,62.0,0.5,63,90.0
301,F#3,62.0,0.5,55,90.0
302,B5,62.5,167/1000,70,90.0
303,G3,62.5,0.5,51,90.0
304,A5,62.667,167/1000,65,90.0
305,G5,62.833,167/1000,65,90.0
306,F#5,63.0,0.5,75,90.0
307,A3,63.0,0.5,57,90.0
308,E5,63.5,1/10,73,90.0
309,A2,63.5,0.5,55,90.0
310,F#5,63.6,1/10,66,90.0
311,E5,63.7,1/10,67,90.0
312,D5,63.8,1/10,67,90.0
313,E5,63.9,1/10,67,90.0
314,D5,64.0,1.0,76,90.0
315,D3,64.0,0.25,59,90.0
316,A2,64.5,0.25,54,90.0
317,D2,65.0,0.25,50,90.0
318,D5,65.5,0.375,50,90.0
319,F#5,65.875,0.125,43,90.0
320,D5,66.0,0.5,50,90.0
321,D4,66.0,2.0,50,90.0
322,F#4,66.5,0.5,43,90.0
323,C6,66.75,0.25,50,90.0
324,A4,67.0,0.5,43,90.0
325,F#5,67.25,0.25,50,90.0
326,C5,67.5,0.5,43,90.0
327,A5,67.75,0.25,50,90.0
328,B4,68.0,0.5,50,90.0
329,D4,68.0,2.0,50,90.0
330,G5,68.25,0.25,50,90.0
331,B5,68.5,0.25,54,90.0
332,G4,68.5,0.5,46,90.0
333,D5,68.75,0.25,50,90.0
334,C5,69.0,167/1000,54,90.0
335,A4,69.0,0.5,46,90.0
336,D5,69.167,167/1000,45,90.0
337,E5,69.333,167/1000,45,90.0
338,A4,69.5,167/1000,52,90.0
339,F#4,69.5,0.5,46,90.0
340,B4,69.667,167/1000,44,90.0
341,C5,69.833,167/1000,44,90.0
342,B4,70.0,167/1000,52,90.0
343,D4,70.0,1.5,50,90.0
344,G4,70.0,0.5,50,90.0
345,C5,70.167,167/1000,45,90.0
346,D5,70.333,167/1000,45,90.0
347,C5,70.5,167/1000,52,90.0
348,A4,70.5,0.5,46,90.0
349,D5,70.667,167/1000,46,90.0
350,E5,70.833,167/1000,46,90.0
351,D5,71.0,0.5,46,90.0
352,B4,71.0,0.5,50,90.0
353,D5,71.5,0.375,55,90.0
354,G5,71.875,0.125,52,90.0
355,D5,72.0,0.5,58,90.0
356,F#4,72.5,0.5,48,90.0
357,D3,72.5,0.25,45,90.0
358,D4,72.75,0.25,39,90.0
359,G4,73.0,0.5,50,90.0
360,E3,73.0,0.25,48,90.0
361,D4,73.25,0.25,41,90.0
362,A4,73.5,0.5,53,90.0
363,F#3,73.5,0.25,49,90.0
364,D4,73.75,0.25,43,90.0
365,B4,74.0,0.5,55,90.0
366,G3,74.0,0.25,51,90.0
367,D4,74.25,0.25,45,90.0
368,C5,74.5,1/10,56,90.0
369,A3,74.5,0.25,53,90.0
370,D5,74.6,1/10,60,90.0
371,C5,74.7,1/10,50,90.0
372,D4,74.75,0.25,45,90.0
373,B4,74.8,1/10,52,90.0
374,C5,74.9,1/10,56,90.0
375,D5,75.0,0.5,59,90.0
376,B3,75.0,0.5,50,90.0
377,G5,75.5,0.375,62,90.0
378,B5,75.875,0.125,58,90.0
379,G5,76.0,0.5,65,90.0
380,B4,76.5,0.5,57,90.0
381,G2,76.5,0.25,51,90.0
382,G3,76.75,0.25,44,90.0
383,C5,77.0,0.5,60,90.0
384,A2,77.0,0.25,55,90.0
385,G3,77.25,0.25,47,90.0
386,D5,77.5,0.5,63,90.0
387,B2,77.5,0.25,56,90.0
388,G3,77.75,0.25,49,90.0
389,E5,78.0,0.5,67,90.0
390,C3,78.0,0.25,58,90.0
391,G3,78.25,0.25,51,90.0
392,F5,78.5,1/10,61,90.0
393,D3,78.5,0.25,60,90.0
394,G5,78.6,1/10,66,90.0
395,F5,78.7,1/10,58,90.0
396,G3,78.75,0.25,51,90.0
397,E5,78.8,1/10,60,90.0
398,F5,78.9,1/10,63,90.0
399,G5,79.0,0.5,66,90.0
400,E3,79.0,0.5,57,90.0
401,E5,79.5,0.375,62,90.0
402,C4,79.5,0.5,52,90.0
403,G5,79.875,0.125,55,90.0
404,D5,80.0,0.5,62,90.0
405,B3,80.0,0.5,57,90.0
406,C5,80.5,167/1000,58,90.0
407,A3,80.5,0.5,49,90.0
408,D5,80.667,167/1000,53,90.0
409,C5,80.833,167/1000,53,90.0
410,B4,81.0,0.5,58,90.0
411,G3,81.0,0.5,54,90.0
412,D5,81.5,167/1000,58,90.0
413,B3,81.5,0.5,50,90.0
414,C5,81.667,167/1000,52,90.0
415,B4,81.833,167/1000,52,90.0
416,A4,82.0,0.5,57,90.0
417,C4,82.0,1.5,54,90.0
418,C5,82.5,167/1000,54,90.0
419,B4,82.667,167/1000,49,90.0
420,A4,82.833,167/1000,49,90.0
421,E5,83.0,0.5,56,90.0
422,G4,83.5,0.25,47,90.0
423,C#4,83.5,0.25,48,90.0
424,G4,84.0,0.125,58,90.0
425,D4,84.0,0.25,51,90.0
426,A4,84.125,0.125,49,90.0
427,G4,84.25,0.25,49,90.0
428,F#4,84.5,0.5,55,90.0
429,A3,84.5,0.25,46,90.0
430,D3,85.0,0.25,46,90.0
431,D5,85.5,0.375,72,90.0
432,G5,85.875,0.125,66,90.0
433,D5,86.0,0.5,72,90.0
434,G3,86.0,1.0,62,90.0
435,B3,86.0,1.0,62,90.0
436,B4,86.5,0.375,72,90.0
437,D5,86.875,0.125,67,90.0
438,B4,87.0,0.5,72,90.0
439,G4,87.5,0.375,72,90.0
440,B4,87.875,0.125,66,90.0
441,G4,88.0,1.0,72,90.0
442,G1,88.5,0.5,62,90.0
443,G2,88.5,0.5,62,90.0
444,G1,89.0,1.0,66,90.0
445,G2,89.0,1.0,66,90.0
446,D5,89.5,0.5,72,90.0
447,C5,90.0,167/1000,72,90.0
448,D5,90.167,167/1000,66,90.0
449,E5,90.333,167/1000,66,90.0
450,D5,90.5,0.5,72,90.0
451,G3,90.5,0.5,52,90.0
452,B3,90.5,0.5,52,90.0
453,G3,91.0,1.0,57,90.0
454,B3,91.0,1.0,57,90.0
455,B4,91.5,0.5,72,90.0
456,A4,92.0,167/1000,72,90.0
457,B4,92.167,167/1000,63,90.0
458,C5,92.333,167/1000,64,90.0
459,B4,92.5,0.5,72,90.0
460,G3,92.5,0.5,52,90.0
461,B3,92.5,0.5,52,90.0
462,G3,93.0,1.0,57,90.0
463,B3,93.0,1.0,57,90.0
464,D5,93.5,0.5,72,90.0
465,E5,94.0,0.062,67,90.0
466,C3,94.0,1.0,57,90.0
467,C4,94.0,1.0,57,90.0
468,F#5,94.062,0.062,54,90.0
469,E5,94.125,0.125,66,90.0
470,D5,94.25,0.25,61,90.0
471,E5,94.5,0.25,64,90.0
472,F#5,94.75,0.25,69,90.0
473,G5,95.0,0.25,74,90.0
474,B2,95.0,1.0,57,90.0
475,B3,95.0,1.0,57,90.0
476,F#5,95.25,0.25,67,90.0
477,E5,95.5,0.25,67,90.0
478,D5,95.75,0.25,67,90.0
479,C5,96.0,0.25,61,90.0
480,A3,96.0,0.5,52,90.0
481,D5,96.25,0.125,59,90.0
482,C5,96.375,0.125,52,90.0
483,D5,96.5,0.125,59,90.0
484,D3,96.5,0.5,44,90.0
485,C5,96.625,0.125,52,90.0
486,B4,96.75,0.125,52,90.0
487,C5,96.875,0.125,52,90.0
488,B4,97.0,0.5,62,90.0
489,G3,97.0,1.0,52,90.0
490,B4,97.5,0.5,52,90.0
491,A4,98.0,0.25,56,90.0
492,C4,98.0,1.5,52,90.0
493,C5,98.25,0.25,47,90.0
494,B4,98.5,0.25,55,90.0
495,A4,98.75,0.25,52,90.0
496,E5,99.0,0.5,59,90.0
497,G4,99.5,0.5,54,90.0
498,C#4,99.5,0.5,47,90.0
499,G4,100.0,0.5,51,90.0
500,D4,100.0,0.5,51,90.0
501,F#4,100.5,0.5,44,90.0
502,D3,100.5,0.5,46,90.0
503,G3,101.0,0.25,51,90.0
504,D6,101.25,0.25,56,90.0
505,B3,101.5,0.25,46,90.0
506,D6,101.75,0.25,56,90.0
507,D4,102.0,0.25,47,90.0
508,D6,102.25,0.25,58,90.0
509,G4,102.5,0.25,51,90.0
510,D6,102.75,0.25,60,90.0
511,B4,103.0,0.25,56,90.0
512,D6,103.25,0.25,61,90.0
513,G4,103.5,0.25,50,90.0
514,D6,103.75,0.25,63,90.0
515,C6,104.0,167/1000,64,90.0
516,A4,104.0,0.5,58,90.0
517,D6,104.167,167/1000,56,90.0
518,C6,104.333,167/1000,56,90.0
519,B5,104.5,0.5,66,90.0
520,G4,104.5,0.5,51,90.0
521,A5,105.0,167/1000,59,90.0
522,C5,105.0,0.5,58,90.0
523,B5,105.167,167/1000,51,90.0
524,A5,105.333,167/1000,51,90.0
525,G5,105.5,0.5,59,90.0
526,B4,105.5,0.5,52,90.0
527,F#5,106.0,167/1000,60,90.0
528,A4,106.0,0.5,57,90.0
529,E5,106.167,167/1000,51,90.0
530,D5,106.333,167/1000,51,90.0
531,G5,106.5,0.5,61,90.0
532,B4,106.5,0.5,51,90.0
533,D3,107.0,0.25,69,90.0
534,C6,107.25,0.25,67,90.0
535,F#3,107.5,0.25,59,90.0
536,C6,107.75,0.25,68,90.0
537,A3,108.0,0.25,72,90.0
538,C6,108.25,0.25,70,90.0
539,D4,108.5,0.25,62,90.0
540,C6,108.75,0.25,72,90.0
541,F#4,109.0,0.25,71,90.0
542,C6,109.25,0.25,73,90.0
543,A4,109.5,0.25,65,90.0
544,C6,109.75,0.25,68,90.0
545,B5,110.0,167/1000,74,90.0
546,G4,110.0,1.0,80,90.0
547,A5,110.167,167/1000,65,90.0
548,G5,110.333,167/1000,65,90.0
549,F#5,110.5,167/1000,69,90.0
550,E5,110.667,167/1000,59,90.0
551,D5,110.833,167/1000,59,90.0
552,A5,111.0,167/1000,65,90.0
553,D4,111.0,1.0,59,90.0
554,G4,111.0,0.5,67,90.0
555,B5,111.167,167/1000,56,90.0
556,A5,111.333,167/1000,56,90.0
557,B5,111.5,0.125,59,90.0
558,F#4,111.5,0.5,52,90.0
559,A5,111.625,0.125,53,90.0
560,G5,111.75,0.125,59,90.0
561,A5,111.875,0.125,54,90.0
562,G5,112.0,0.5,59,90.0
563,G4,112.0,0.5,58,90.0
564,G5,112.5,0.5,68,90.0
565,E4,112.5,0.25,55,90.0
566,G4,112.75,0.25,44,90.0
567,F#5,113.0,0.5,63,90.0
568,D4,113.0,0.25,54,90.0
569,G4,113.25,0.25,50,90.0
570,E5,113.5,0.5,63,90.0
571,C4,113.5,0.25,55,90.0
572,G4,113.75,0.25,47,90.0
573,D5,114.0,0.5,70,90.0
574,B3,114.0,0.5,55,90.0
575,E5,114.5,167/1000,70,90.0
576,C4,114.5,0.5,51,90.0
577,D5,114.667,167/1000,65,90.0
578,C5,114.833,167/1000,65,90.0
579,B4,115.0,0.5,73,90.0
580,D4,115.0,0.5,57,90.0
581,A4,115.5,1/10,73,90.0
582,D3,115.5,0.5,55,90.0
583,B4,115.6,1/10,66,90.0
584,A4,115.7,1/10,67,90.0
585,G4,115.8,1/10,67,90.0
586,A4,115.9,1/10,67,90.0
587,G4,116.0,0.5,76,90.0
588,G3,116.0,0.5,59,90.0
589,G5,116.5,0.5,43,90.0
590,E4,116.5,0.25,38,90.0
591,G4,116.75,0.25,30,90.0
592,F#5,117.0,0.5,42,90.0
593,D4,117.0,0.25,37,90.0
594,G4,117.25,0.25,35,90.0
595,E5,117.5,0.5,41,90.0
596,C4,117.5,0.25,38,90.0
597,G4,117.75,0.25,32,90.0
598,D5,118.0,0.5,44,90.0
599,B3,118.0,0.5,38,90.0
600,E5,118.5,167/1000,49,90.0
601,C4,118.5,0.5,35,90.0
602,D5,118.667,167/1000,45,90.0
603,C5,118.833,167/1000,45,90.0
604,B4,119.0,0.5,52,90.0
605,D4,119.0,0.5,39,90.0
606,A4,119.5,1/10,51,90.0
607,D3,119.5,0.5,38,90.0
608,B4,119.6,1/10,46,90.0
609,A4,119.7,1/10,46,90.0
610,G4,119.8,1/10,46,90.0
611,A4,119.9,1/10,46,90.0
612,G4,120.0,1.0,53,90.0
613,G3,120.0,0.25,41,90.0
614,D3,120.5,0.25,37,90.0
615,G2,121.0,0.25,42,90.0
616,D5,121.5,0.375,50,90.0
617,F#5,121.875,0.125,43,90.0
618,D5,122.0,0.5,50,90.0
619,D4,122.0,2.0,50,90.0
620,F#4,122.5,0.5,43,90.0
621,C6,122.75,0.25,50,90.0
622,A4,123.0,0.5,43,90.0
623,F#5,123.25,0.25,50,90.0
624,C5,123.5,0.5,43,90.0
625,A5,123.75,0.25,50,90.0
626,B4,124.0,0.5,50,90.0
627,D4,124.0,2.0,50,90.0
628,G5,124.25,0.25,50,90.0
629,B5,124.5,0.25,54,90.0
630,G4,124.5,0.5,46,90.0
631,D5,124.75,0.25,50,90.0
632,C5,125.0,167/1000,54,90.0
633,A4,125.0,0.5,46,90.0
634,D5,125.167,167/1000,45,90.0
635,E5,125.333,167/1000,45,90.0
636,A4,125.5,167/1000,52,90.0
637,F#4,125.5,0.5,46,90.0
638,B4,125.667,167/1000,44,90.0
639,C5,125.833,167/1000,44,90.0
640,B4,126.0,167/1000,52,90.0
641,D4,126.0,1.5,50,90.0
642,G4,126.0,0.5,50,90.0
643,C5,126.167,167/1000,45,90.0
644,D5,126.333,167/1000,45,90.0
645,C5,126.5,167/1000,52,90.0
646,A4,126.5,0.5,46,90.0
647,D5,126.667,167/1000,46,90.0
648,E5,126.833,167/1000,46,90.0
649,D5,127.0,0.5,46,90.0
650,B4,127.0,0.5,50,90.0
651,D5,127.5,0.375,55,90.0
652,G5,127.875,0.125,52,90.0
653,D5,128.0,0.5,58,90.0
654,F#4,128.5,0.5,48,90.0
655,D3,128.5,0.25,45,90.0
656,D4,128.75,0.25,39,90.0
657,G4,129.0,0.5,50,90.0
658,E3,129.0,0.25,48,90.0
659,D4,129.25,0.25,41,90.0
660,A4,129.5,0.5,53,90.0
661,F#3,129.5,0.25,49,90.0
662,D4,129.75,0.25,43,90.0
663,B4,130.0,0.5,55,90.0
664,G3,130.0,0.25,51,90.0
665,D4,130.25,0.25,45,90.0
666,C5,130.5,1/10,56,90.0
667,A3,130.5,0.25,53,90.0
668,D5,130.6,1/10,60,90.0
669,C5,130.7,1/10,50,90.0
670,D4,130.75,0.25,45,90.0
671,B4,130.8,1/10,52,90.0
672,C5,130.9,1/10,56,90.0
673,D5,131.0,0.5,59,90.0
674,B3,131.0,0.5,50,90.0
675,G5,131.5,0.375,62,90.0
676,B5,131.875,0.125,58,90.0
677,G5,132.0,0.5,65,90.0
678,B4,132.5,0.5,57,90.0
679,G2,132.5,0.25,51,90.0
680,G3,132.75,0.25,44,90.0
681,C5,133.0,0.5,60,90.0
682,A2,133.0,0.25,55,90.0
683,G3,133.25,0.25,47,90.0
684,D5,133.5,0.5,63,90.0
685,B2,133.5,0.25,56,90.0
686,G3,133.75,0.25,49,90.0
687,E5,134.0,0.5,67,90.0
688,C3,134.0,0.25,58,90.0
689,G3,134.25,0.25,51,90.0
690,F5,134.5,1/10,61,90.0
691,D3,134.5,0.25,60,90.0
692,G5,134.6,1/10,66,90.0
693,F5,134.7,1/10,58,90.0
694,G3,134.75,0.25,51,90.0
695,E5,134.8,1/10,60,90.0
696,F5,134.9,1/10,63,90.0
697,G5,135.0,0.5,66,90.0
698,E3,135.0,0.5,57,90.0
699,E5,135.5,0.375,62,90.0
700,C4,135.5,0.5,52,90.0
701,G5,135.875,0.125,55,90.0
702,D5,136.0,0.5,62,90.0
703,B3,136.0,0.5,57,90.0
704,C5,136.5,167/1000,58,90.0
705,A3,136.5,0.5,49,90.0
706,D5,136.667,167/1000,53,90.0
707,C5,136.833,167/1000,53,90.0
708,B4,137.0,0.5,58,90.0
709,G3,137.0,0.5,54,90.0
710,D5,137.5,167/1000,58,90.0
711,B3,137.5,0.5,50,90.0
712,C5,137.667,167/1000,52,90.0
713,B4,137.833,167/1000,52,90.0
714,A4,138.0,0.5,57,90.0
715,C4,138.0,1.5,54,90.0
716,C5,138.5,167/1000,54,90.0
717,B4,138.667,167/1000,49,90.0
718,A4,138.833,167/1000,49,90.0
719,E5,139.0,0.5,56,90.0
720,G4,139.5,0.25,47,90.0
721,C#4,139.5,0.25,48,90.0
722,G4,140.0,0.125,58,90.0
723,D4,140.0,0.25,51,90.0
724,A4,140.125,0.125,49,90.0
725,G4,140.25,0.25,49,90.0
726,F#4,140.5,0.5,55,90.0
727,A3,140.5,0.25,46,90.0
728,D3,141.0,0.25,46,90.0
729,D5,141.5,0.375,72,90.0
730,G5,141.875,0.125,66,90.0
731,D5,142.0,0.5,72,90.0
732,G3,142.0,1.0,62,90.0
733,B3,142.0,1.0,62,90.0
734,B4,142.5,0.375,72,90.0
735,D5,142.875,0.125,67,90.0
736,B4,143.0,0.5,72,90.0
737,G4,143.5,0.375,72,90.0
738,B4,143.875,0.125,66,90.0
739,G4,144.0,1.0,72,90.0
740,G1,144.5,0.5,62,90.0
741,G2,144.5,0.5,62,90.0
742,G1,145.0,1.0,66,90.0
743,G2,145.0,1.0,66,90.0
744,D5,145.5,0.5,72,90.0
745,C5,146.0,167/1000,72,90.0
746,D5,146.167,167/1000,66,90.0
747,E5,146.333,167/1000,66,90.0
748,D5,146.5,0.5,72,90.0
749,G3,146.5,0.5,52,90.0
750,B3,146.5,0.5,52,90.0
751,G3,147.0,1.0,57,90.0
752,B3,147.0,1.0,57,90.0
753,B4,147.5,0.5,72,90.0
754,A4,148.0,167/1000,72,90.0
755,B4,148.167,167/1000,63,90.0
756,C5,148.333,167/1000,64,90.0
757,B4,148.5,0.5,72,90.0
758,G3,148.5,0.5,52,90.0
759,B3,148.5,0.5,52,90.0
760,G3,149.0,1.0,57,90.0
761,B3,149.0,1.0,57,90.0
762,D5,149.5,0.5,72,90.0
763,E5,150.0,0.062,67,90.0
764,C3,150.0,1.0,57,90.0
765,C4,150.0,1.0,57,90.0
766,F#5,150.062,0.062,54,90.0
767,E5,150.125,0.125,66,90.0
768,D5,150.25,0.25,61,90.0
769,E5,150.5,0.25,64,90.0
770,F#5,150.75,0.25,69,90.0
771,G5,151.0,0.25,74,90.0
772,B2,151.0,1.0,57,90.0
773,B3,151.0,1.0,57,90.0
774,F#5,151.25,0.25,67,90.0
775,E5,151.5,0.25,67,90.0
776,D5,151.75,0.25,67,90.0
777,C5,152.0,0.25,61,90.0
778,A3,152.0,0.5,52,90.0
779,D5,152.25,0.125,59,90.0
780,C5,152.375,0.125,52,90.0
781,D5,152.5,0.125,59,90.0
782,D3,152.5,0.5,44,90.0
783,C5,152.625,0.125,52,90.0
784,B4,152.75,0.125,52,90.0
785,C5,152.875,0.125,52,90.0
786,B4,153.0,0.5,62,90.0
787,G3,153.0,1.0,52,90.0
788,B4,153.5,0.5,52,90.0
789,A4,154.0,0.25,56,90.0
790,C4,154.0,1.5,52,90.0
791,C5,154.25,0.25,47,90.0
792,B4,154.5,0.25,55,90.0
793,A4,154.75,0.25,52,90.0
794,E5,155.0,0.5,59,90.0
795,G4,155.5,0.5,54,90.0
796,C#4,155.5,0.5,47,90.0
797,G4,156.0,0.5,51,90.0
798,D4,156.0,0.5,51,90.0
799,F#4,156.5,0.5,44,90.0
800,D3,156.5,0.5,46,90.0
801,G3,157.0,0.25,51,90.0
802,D6,157.25,0.25,56,90.0
803,B3,157.5,0.25,46,90.0
804,D6,157.75,0.25,56,90.0
805,D4,158.0,0.25,47,90.0
806,D6,158.25,0.25,58,90.0
807,G4,158.5,0.25,51,90.0
808,D6,158.75,0.25,60,90.0
809,B4,159.0,0.25,56,90.0
810,D6,159.25,0.25,61,90.0
811,G4,159.5,0.25,50,90.0
812,D6,159.75,0.25,63,90.0
813,C6,160.0,167/1000,64,90.0
814,A4,160.0,0.5,58,90.0
815,D6,160.167,167/1000,56,90.0
816,C6,160.333,167/1000,56,90.0
817,B5,160.5,0.5,66,90.0
818,G4,160.5,0.5,51,90.0
819,A5,161.0,167/1000,59,90.0
820,C5,161.0,0.5,58,90.0
821,B5,161.167,167/1000,51,90.0
822,A5,161.333,167/1000,51,90.0
823,G5,161.5,0.5,59,90.0
824,B4,161.5,0.5,52,90.0
825,F#5,162.0,167/1000,60,90.0
826,A4,162.0,0.5,57,90.0
827,E5,162.167,167/1000,51,90.0
828,D5,162.333,167/1000,51,90.0
829,G5,162.5,0.5,61,90.0
830,B4,162.5,0.5,51,90.0
831,D3,163.0,0.25,69,90.0
832,C6,163.25,0.25,67,90.0
833,F#3,163.5,0.25,59,90.0
834,C6,163.75,0.25,68,90.0
835,A3,164.0,0.25,72,90.0
836,C6,164.25,0.25,70,90.0
837,D4,164.5,0.25,62,90.0
838,C6,164.75,0.25,72,90.0
839,F#4,165.0,0.25,71,90.0
840,C6,165.25,0.25,73,90.0
841,A4,165.5,0.25,65,90.0
842,C6,165.75,0.25,68,90.0
843,B5,166.0,167/1000,74,90.0
844,G4,166.0,1.0,80,90.0
845,A5,166.167,167/1000,65,90.0
846,G5,166.333,167/1000,65,90.0
847,F#5,166.5,167/1000,69,90.0
848,E5,166.667,167/1000,59,90.0
849,D5,166.833,167/1000,59,90.0
850,A5,167.0,167/1000,65,90.0
851,D4,167.0,1.0,59,90.0
852,G4,167.0,0.5,67,90.0
853,B5,167.167,167/1000,56,90.0
854,A5,167.333,167/1000,56,90.0
855,B5,167.5,0.125,59,90.0
856,F#4,167.5,0.5,52,90.0
857,A5,167.625,0.125,53,90.0
858,G5,167.75,0.125,59,90.0
859,A5,167.875,0.125,54,90.0
860,G5,168.0,0.5,59,90.0
861,G4,168.0,0.5,58,90.0
862,G5,168.5,0.5,68,90.0
863,E4,168.5,0.25,55,90.0
864,G4,168.75,0.25,44,90.0
865,F#5,169.0,0.5,63,90.0
866,D4,169.0,0.25,54,90.0
867,G4,169.25,0.25,50,90.0
868,E5,169.5,0.5,63,90.0
869,C4,169.5,0.25,55,90.0
870,G4,169.75,0.25,47,90.0
871,D5,170.0,0.5,70,90.0
872,B3,170.0,0.5,55,90.0
873,E5,170.5,167/1000,70,90.0
874,C4,170.5,0.5,51,90.0
875,D5,170.667,167/1000,65,90.0
876,C5,170.833,167/1000,65,90.0
877,B4,171.0,0.5,73,90.0
878,D4,171.0,0.5,57,90.0
879,A4,171.5,1/10,73,90.0
880,D3,171.5,0.5,55,90.0
881,B4,171.6,1/10,66,90.0
882,A4,171.7,1/10,67,90.0
883,G4,171.8,1/10,67,90.0
884,A4,171.9,1/10,67,90.0
885,G4,172.0,0.5,76,90.0
886,G3,172.0,0.5,59,90.0
887,G5,172.5,0.5,43,90.0
888,E4,172.5,0.25,38,90.0
889,G4,172.75,0.25,30,90.0
890,F#5,173.0,0.5,42,90.0
891,D4,173.0,0.25,37,90.0
892,G4,173.25,0.25,35,90.0
893,E5,173.5,0.5,41,90.0
894,C4,173.5,0.25,38,90.0
895,G4,173.75,0.25,32,90.0
896,D5,174.0,0.5,44,90.0
897,B3,174.0,0.5,38,90.0
898,E5,174.5,167/1000,49,90.0
899,C4,174.5,0.5,35,90.0
900,D5,174.667,167/1000,45,90.0
901,C5,174.833,167/1000,45,90.0
902,B4,175.0,0.5,52,90.0
903,D4,175.0,0.5,39,90.0
904,A4,175.5,1/10,51,90.0
905,D3,175.5,0.5,38,90.0
906,B4,175.6,1/10,46,90.0
907,A4,175.7,1/10,46,90.0
908,G4,175.8,1/10,46,90.0
909,A4,175.9,1/10,46,90.0
910,G4,176.0,1.0,53,90.0
911,G3,176.0,0.25,41,90.0
912,D3,176.5,0.25,37,90.0
913,G2,177.0,0.25,42,90.0
