,note_name,start_time,duration,velocity,tempo
0,A3,1.5,0.125,83,114.75
1,D4,1.625,0.125,66,114.75
2,F#4,1.75,0.125,66,114.75
3,A4,1.875,0.125,66,114.75
4,F#4,2.0,0.5,86,114.75
5,D3,2.0,1.0,69,114.75
6,D2,2.0,1.0,69,114.75
7,D4,2.5,0.5,77,114.75
8,D5,3.0,0.125,56,114.75
9,A4,3.5,0.125,52,114.75
10,F#4,3.5,0.125,39,114.75
11,D4,3.5,0.125,39,114.75
12,B4,4.0,0.125,55,114.75
13,G4,4.0,0.5,44,114.75
14,D4,4.0,0.5,44,114.75
15,C#5,4.125,0.125,49,114.75
16,B4,4.25,0.25,60,114.75
17,A4,4.5,0.5,56,114.75
18,F#4,4.5,0.5,37,114.75
19,D4,4.5,0.5,37,114.75
20,A3,5.5,0.125,83,114.75
21,D4,5.625,0.125,66,114.75
22,F#4,5.75,0.125,66,114.75
23,A4,5.875,0.125,66,114.75
24,F#4,6.0,0.5,86,114.75
25,D3,6.0,1.0,69,114.75
26,D2,6.0,1.0,69,114.75
27,D4,6.5,0.5,77,114.75
28,F#5,7.0,0.125,60,114.75
29,A5,7.0,0.125,60,114.75
30,D4,7.5,0.125,42,114.75
31,D5,7.5,0.125,56,114.75
32,F#5,7.5,0.125,56,114.75
33,E5,8.0,0.5,46,114.75
34,G5,8.0,0.125,55,114.75
35,A3,8.0,0.5,48,114.75
36,A5,8.125,0.125,49,114.75
37,G5,8.25,0.25,60,114.75
38,D4,8.5,0.5,40,114.75
39,D5,8.5,0.5,52,114.75
40,F#5,8.5,0.5,52,114.75
41,D5,9.5,0.125,60,114.75
42,F#5,9.625,0.125,51,114.75
43,A5,9.75,0.125,52,114.75
44,D6,9.875,0.125,52,114.75
45,C5,10.0,1.5,67,114.75
46,D4,10.5,0.125,40,114.75
47,F#3,10.5,0.125,40,114.75
48,D4,11.0,0.125,45,114.75
49,F#3,11.0,0.125,45,114.75
50,C6,11.5,0.125,60,114.75
51,A5,11.625,0.125,51,114.75
52,F#5,11.75,0.125,52,114.75
53,C5,11.875,0.125,52,114.75
54,B4,12.0,1.5,67,114.75
55,D4,12.5,0.125,40,114.75
56,G3,12.5,0.125,40,114.75
57,D4,13.0,0.125,45,114.75
58,G3,13.0,0.125,45,114.75
59,B4,13.5,0.125,60,114.75
60,D5,13.625,0.125,51,114.75
61,G5,13.75,0.125,52,114.75
62,B5,13.875,0.125,52,114.75
63,A3,14.0,1.0,46,114.75
64,F#5,14.0,0.125,59,114.75
65,A5,14.0,0.125,59,114.75
66,D5,14.5,0.125,48,114.75
67,F#5,14.5,0.125,48,114.75
68,A2,15.0,1.0,40,114.75
69,G5,15.0,0.125,54,114.75
70,E5,15.0,0.125,54,114.75
71,C#5,15.5,0.125,44,114.75
72,E5,15.5,0.125,44,114.75
73,D3,16.0,1.0,36,114.75
74,E5,16.0,1.0,46,114.75
75,C#5,16.0,1.0,46,114.75
76,D2,17.0,0.5,32,114.75
77,F#5,17.0,0.5,36,114.75
78,D5,17.0,0.5,36,114.75
79,D5,17.5,0.125,60,114.75
80,F#5,17.625,0.125,51,114.75
81,A5,17.75,0.125,52,114.75
82,D6,17.875,0.125,52,114.75
83,C5,18.0,1.5,67,114.75
84,D4,18.5,0.125,40,114.75
85,F#3,18.5,0.125,40,114.75
86,D4,19.0,0.125,45,114.75
87,F#3,19.0,0.125,45,114.75
88,C6,19.5,0.125,60,114.75
89,A5,19.625,0.125,51,114.75
90,F#5,19.75,0.125,52,114.75
91,C5,19.875,0.125,52,114.75
92,B4,20.0,1.5,67,114.75
93,D4,20.5,0.125,40,114.75
94,G3,20.5,0.125,40,114.75
95,D4,21.0,0.125,45,114.75
96,G3,21.0,0.125,45,114.75
97,B5,21.5,167/1000,60,114.75
98,C#6,21.667,167/1000,56,114.75
99,D6,21.833,167/1000,56,114.75
100,C#6,22.0,167/1000,60,114.75
101,A3,22.0,0.5,48,114.75
102,B5,22.167,167/1000,55,114.75
103,A5,22.333,167/1000,51,114.75
104,G5,22.5,167/1000,59,114.75
105,F#5,22.667,167/1000,51,114.75
106,E5,22.833,167/1000,51,114.75
107,D5,23.0,167/1000,55,114.75
108,A2,23.0,0.5,39,114.75
109,C#5,23.167,167/1000,49,114.75
110,B4,23.333,167/1000,49,114.75
111,A4,23.5,0.125,52,114.75
112,G4,23.625,0.125,49,114.75
113,F#4,23.75,0.125,49,114.75
114,E4,23.875,0.125,48,114.75
115,D4,24.0,1.0,60,114.75
116,D2,24.0,1.0,48,114.75
117,A3,25.5,0.5,53,114.75
118,D4,26.0,0.25,60,114.75
119,C#4,26.25,0.188,52,114.75
120,E4,26.5,0.25,60,114.75
121,D4,26.75,0.188,54,114.75
122,F#4,27.0,0.25,60,114.75
123,E4,27.25,0.188,54,114.75
124,G4,27.5,0.25,60,114.75
125,F#4,27.75,0.188,49,114.75
126,F#4,28.0,1.0,52,114.75
127,D4,28.0,1.0,52,114.75
128,G#3,28.5,0.5,43,114.75
129,A3,29.0,0.375,48,114.75
130,E4,29.0,0.375,46,114.75
131,C#4,29.0,0.375,46,114.75
132,A3,29.5,0.5,53,114.75
133,E4,30.0,0.25,60,114.75
134,E-4,30.25,0.188,52,114.75
135,F#4,30.5,0.25,60,114.75
136,E4,30.75,0.188,54,114.75
137,G4,31.0,0.25,60,114.75
138,F#4,31.25,0.188,54,114.75
139,A4,31.5,0.25,60,114.75
140,G4,31.75,0.188,49,114.75
141,G4,32.0,1.0,52,114.75
142,E4,32.0,1.0,52,114.75
143,C#3,32.5,0.5,43,114.75
144,D3,33.0,0.375,48,114.75
145,F#4,33.0,0.375,46,114.75
146,D4,33.0,0.375,46,114.75
147,D4,33.5,0.5,58,114.75
148,G4,34.0,0.25,66,114.75
149,F#4,34.25,0.188,57,114.75
150,A4,34.5,0.25,66,114.75
151,G4,34.75,0.188,59,114.75
152,B4,35.0,0.25,66,114.75
153,A4,35.25,0.188,59,114.75
154,D5,35.5,0.25,66,114.75
155,C#5,35.75,0.188,53,114.75
156,B4,36.0,0.25,62,114.75
157,G3,36.0,0.25,52,114.75
158,D4,36.25,0.25,45,114.75
159,B4,36.5,0.25,62,114.75
160,G3,36.5,0.25,54,114.75
161,D5,36.75,0.25,57,114.75
162,D4,36.75,0.25,39,114.75
163,A4,37.0,0.25,62,114.75
164,F#3,37.0,0.25,49,114.75
165,D4,37.25,0.25,38,114.75
166,F#3,37.5,0.25,49,114.75
167,D4,37.75,0.25,43,114.75
168,G4,38.0,0.062,55,114.75
169,B3,38.0,0.25,52,114.75
170,F#4,38.062,0.062,48,114.75
171,G4,38.125,0.125,62,114.75
172,D4,38.25,0.25,45,114.75
173,G4,38.5,0.25,62,114.75
174,B3,38.5,0.25,54,114.75
175,B4,38.75,0.25,57,114.75
176,D4,38.75,0.25,39,114.75
177,F#4,39.0,0.25,62,114.75
178,A3,39.0,0.25,49,114.75
179,D4,39.25,0.25,38,114.75
180,A3,39.5,0.25,49,114.75
181,D4,39.75,0.25,43,114.75
182,B4,40.0,0.062,60,114.75
183,G3,40.0,0.25,52,114.75
184,A4,40.062,0.062,52,114.75
185,B4,40.125,0.125,68,114.75
186,D4,40.25,0.25,45,114.75
187,B4,40.5,0.25,68,114.75
188,G3,40.5,0.25,54,114.75
189,D5,40.75,0.25,62,114.75
190,D4,40.75,0.25,39,114.75
191,A4,41.0,0.25,68,114.75
192,F#3,41.0,0.25,49,114.75
193,D4,41.25,0.25,38,114.75
194,F#3,41.5,0.25,49,114.75
195,D4,41.75,0.25,43,114.75
196,G4,42.0,0.062,55,114.75
197,B3,42.0,0.25,52,114.75
198,F#4,42.062,0.062,48,114.75
199,G4,42.125,0.125,62,114.75
200,D4,42.25,0.25,45,114.75
201,G4,42.5,0.25,62,114.75
202,B3,42.5,0.25,54,114.75
203,B4,42.75,0.25,57,114.75
204,D4,42.75,0.25,39,114.75
205,F#4,43.0,0.25,62,114.75
206,A3,43.0,0.25,49,114.75
207,D4,43.25,0.25,38,114.75
208,A3,43.5,0.25,49,114.75
209,D4,43.75,0.25,43,114.75
210,E-4,44.0,0.25,55,114.75
211,G3,44.0,1.0,52,114.75
212,E4,44.25,0.25,55,114.75
213,F#4,44.5,0.25,58,114.75
214,G4,44.75,0.25,58,114.75
215,A4,45.0,0.25,62,114.75
216,B4,45.25,0.25,55,114.75
217,G4,45.5,0.25,61,114.75
218,G3,45.5,0.5,37,114.75
219,G2,45.5,0.5,37,114.75
220,E4,45.75,0.25,51,114.75
221,D4,46.0,2.0,57,114.75
222,F#3,46.0,2.0,48,114.75
223,A2,46.0,2.0,40,114.75
224,C#4,48.0,0.5,50,114.75
225,E3,48.0,0.5,45,114.75
226,A2,48.0,0.5,40,114.75
227,E4,49.5,0.125,83,114.75
228,A4,49.625,0.125,66,114.75
229,C#5,49.75,0.125,66,114.75
230,E5,49.875,0.125,66,114.75
231,C#5,50.0,0.5,86,114.75
232,A2,50.0,0.5,66,114.75
233,C#3,50.0,0.5,66,114.75
234,A3,50.0,0.5,66,114.75
235,E3,50.0,0.5,66,114.75
236,A4,50.5,0.125,83,114.75
237,C#5,50.625,0.125,66,114.75
238,E5,50.75,0.125,66,114.75
239,A5,50.875,0.125,66,114.75
240,E5,51.0,0.5,86,114.75
241,A2,51.0,0.5,66,114.75
242,C#3,51.0,0.5,66,114.75
243,A3,51.0,0.5,66,114.75
244,E3,51.0,0.5,66,114.75
245,E5,51.5,0.125,95,114.75
246,A5,51.625,0.125,75,114.75
247,C#6,51.75,0.125,75,114.75
248,E6,51.875,0.125,75,114.75
249,C#6,52.0,0.5,102,114.75
250,A2,52.0,0.5,66,114.75
251,C#3,52.0,0.5,66,114.75
252,A3,52.0,0.5,66,114.75
253,E3,52.0,0.5,66,114.75
254,A4,53.5,0.125,61,114.75
255,E4,53.625,0.125,50,114.75
256,C#4,53.75,0.125,50,114.75
257,A3,53.875,0.125,50,114.75
258,G3,54.0,2.0,62,114.75
259,A2,54.0,0.25,46,114.75
260,E3,54.25,0.25,38,114.75
261,D3,54.5,0.25,46,114.75
262,E3,54.75,0.25,39,114.75
263,C#3,55.0,0.25,47,114.75
264,E3,55.25,0.25,38,114.75
265,A2,55.5,0.25,49,114.75
266,C#3,55.75,0.25,41,114.75
267,F#3,56.0,0.25,61,114.75
268,D3,56.0,1.0,46,114.75
269,B3,56.25,0.25,55,114.75
270,B-3,56.5,0.25,49,114.75
271,B3,56.75,0.25,54,114.75
272,C#4,57.0,0.25,59,114.75
273,B3,57.25,0.25,55,114.75
274,B-3,57.5,0.25,47,114.75
275,B3,57.75,0.25,56,114.75
276,A3,58.0,2.0,62,114.75
277,E-3,58.0,0.25,46,114.75
278,F#3,58.25,0.25,38,114.75
279,E3,58.5,0.25,46,114.75
280,F#3,58.75,0.25,39,114.75
281,E-3,59.0,0.25,47,114.75
282,F#3,59.25,0.25,38,114.75
283,B2,59.5,0.25,49,114.75
284,E-3,59.75,0.25,41,114.75
285,G#3,60.0,0.25,61,114.75
286,E3,60.0,1.0,46,114.75
287,E4,60.25,0.25,55,114.75
288,E-4,60.5,0.25,49,114.75
289,E4,60.75,0.25,54,114.75
290,F#4,61.0,0.25,59,114.75
291,E4,61.25,0.25,55,114.75
292,E-4,61.5,0.25,47,114.75
293,E4,61.75,0.25,56,114.75
294,E-4,62.0,0.5,62,114.75
295,F#3,62.0,0.25,52,114.75
296,C4,62.25,0.25,45,114.75
297,A4,62.5,0.25,57,114.75
298,F#3,62.5,0.25,54,114.75
299,C4,62.75,0.25,38,114.75
300,F#3,63.0,0.25,45,114.75
301,C4,63.25,0.25,33,114.75
302,E-4,63.5,0.5,62,114.75
303,F#3,63.5,0.25,42,114.75
304,C4,63.75,0.25,35,114.75
305,E4,64.0,0.25,62,114.75
306,G#3,64.0,0.25,52,114.75
307,B3,64.25,0.25,45,114.75
308,E4,64.5,0.25,62,114.75
309,G#3,64.5,0.25,54,114.75
310,B4,64.75,0.25,57,114.75
311,B3,64.75,0.25,39,114.75
312,E4,65.0,0.375,62,114.75
313,G#3,65.0,0.25,49,114.75
314,B3,65.25,0.25,38,114.75
315,E4,65.5,0.5,57,114.75
316,G#3,65.5,0.25,49,114.75
317,B3,65.75,0.25,43,114.75
318,E-4,66.0,0.5,62,114.75
319,F#3,66.0,0.25,52,114.75
320,C4,66.25,0.25,45,114.75
321,A4,66.5,0.25,57,114.75
322,F#3,66.5,0.25,54,114.75
323,C4,66.75,0.25,38,114.75
324,F#3,67.0,0.25,46,114.75
325,C4,67.25,0.25,37,114.75
326,E-4,67.5,0.5,62,114.75
327,F#3,67.5,0.25,46,114.75
328,C4,67.75,0.25,37,114.75
329,E4,68.0,0.25,62,114.75
330,G#3,68.0,0.25,52,114.75
331,B3,68.25,0.25,45,114.75
332,E4,68.5,0.25,62,114.75
333,G#3,68.5,0.25,54,114.75
334,B4,68.75,0.25,57,114.75
335,B3,68.75,0.25,39,114.75
336,E4,69.0,0.375,62,114.75
337,G#3,69.0,0.25,49,114.75
338,B3,69.25,0.25,38,114.75
339,D4,69.5,0.062,47,114.75
340,G#3,69.5,0.25,49,114.75
341,E4,69.562,0.062,44,114.75
342,D4,69.625,0.375,57,114.75
343,B3,69.75,0.25,43,114.75
344,C#4,70.0,6/25,62,114.75
345,A3,70.0,0.25,52,114.75
346,C#4,70.25,0.25,45,114.75
347,E5,70.5,0.25,64,114.75
348,A3,70.5,0.25,54,114.75
349,C#4,70.75,0.25,33,114.75
350,A3,71.0,0.25,43,114.75
351,C#4,71.25,0.25,38,114.75
352,A4,71.5,0.5,62,114.75
353,A3,71.5,0.25,43,114.75
354,C#4,71.75,0.25,38,114.75
355,G#4,72.0,0.25,62,114.75
356,B3,72.0,0.25,52,114.75
357,D4,72.25,0.25,45,114.75
358,G#4,72.5,0.25,62,114.75
359,B3,72.5,0.25,54,114.75
360,E5,72.75,0.25,57,114.75
361,D4,72.75,0.25,39,114.75
362,G#4,73.0,0.375,62,114.75
363,B3,73.0,0.25,49,114.75
364,D4,73.25,0.25,38,114.75
365,G#4,73.5,0.5,57,114.75
366,B3,73.5,0.25,49,114.75
367,D4,73.75,0.25,43,114.75
368,A4,74.0,0.25,62,114.75
369,C#4,74.0,0.25,52,114.75
370,E4,74.25,0.25,45,114.75
371,A4,74.5,0.25,62,114.75
372,C#4,74.5,0.25,54,114.75
373,E5,74.75,0.25,57,114.75
374,E4,74.75,0.25,39,114.75
375,A4,75.0,0.375,62,114.75
376,C#4,75.0,0.25,49,114.75
377,E4,75.25,0.25,38,114.75
378,A4,75.5,0.5,57,114.75
379,C#4,75.5,0.25,49,114.75
380,E4,75.75,0.25,43,114.75
381,B4,76.0,0.25,62,114.75
382,G#3,76.0,0.25,52,114.75
383,E4,76.25,0.25,45,114.75
384,B4,76.5,0.25,62,114.75
385,G#3,76.5,0.25,54,114.75
386,E5,76.75,0.25,57,114.75
387,E4,76.75,0.25,39,114.75
388,B4,77.0,0.375,62,114.75
389,G#3,77.0,0.25,49,114.75
390,E4,77.25,0.25,38,114.75
391,D5,77.5,0.5,57,114.75
392,G#3,77.5,0.25,49,114.75
393,E4,77.75,0.25,43,114.75
394,C#5,78.0,0.25,64,114.75
395,A3,78.0,1.0,52,114.75
396,D5,78.25,0.25,57,114.75
397,E5,78.5,0.25,57,114.75
398,C#5,78.75,0.25,57,114.75
399,B4,79.0,0.25,62,114.75
400,A4,79.25,0.25,57,114.75
401,G#4,79.5,0.25,57,114.75
402,F#4,79.75,0.25,57,114.75
403,E4,80.0,0.25,64,114.75
404,G#3,80.0,1.0,52,114.75
405,B3,80.0,1.0,52,114.75
406,E-4,80.25,0.25,53,114.75
407,E4,80.5,0.25,57,114.75
408,F#4,80.75,0.25,53,114.75
409,E4,81.0,0.25,57,114.75
410,D4,81.25,0.25,51,114.75
411,C#4,81.5,0.25,51,114.75
412,B3,81.75,0.25,51,114.75
413,C#4,82.0,0.25,56,114.75
414,A2,82.0,1.0,52,114.75
415,A3,82.0,1.0,52,114.75
416,D4,82.25,0.25,47,114.75
417,E4,82.5,0.25,47,114.75
418,C#4,82.75,0.25,47,114.75
419,B3,83.0,0.25,55,114.75
420,A3,83.25,0.25,51,114.75
421,G#3,83.5,0.25,51,114.75
422,F#3,83.75,0.25,51,114.75
423,E3,84.0,0.25,54,114.75
424,E-3,84.25,0.25,50,114.75
425,E3,84.5,0.25,50,114.75
426,F#3,84.75,0.25,50,114.75
427,E3,85.0,0.25,55,114.75
428,D3,85.25,0.25,49,114.75
429,C#3,85.5,0.25,49,114.75
430,B2,85.75,0.25,49,114.75
431,C#5,86.0,0.25,64,114.75
432,A2,86.0,1.0,57,114.75
433,D5,86.25,0.25,57,114.75
434,E5,86.5,0.25,57,114.75
435,C#5,86.75,0.25,57,114.75
436,B4,87.0,0.25,62,114.75
437,A4,87.25,0.25,57,114.75
438,G#4,87.5,0.25,57,114.75
439,A4,87.75,0.25,57,114.75
440,F#5,88.0,0.25,64,114.75
441,D4,88.0,1.0,57,114.75
442,G#5,88.25,0.25,64,114.75
443,A5,88.5,0.25,68,114.75
444,F#5,88.75,0.25,64,114.75
445,E5,89.0,0.25,62,114.75
446,D5,89.25,0.25,61,114.75
447,C#5,89.5,0.25,58,114.75
448,B4,89.75,0.25,58,114.75
449,B-4,90.0,0.25,64,114.75
450,D2,90.0,1.0,57,114.75
451,B4,90.25,0.25,57,114.75
452,C#5,90.5,0.25,57,114.75
453,B4,90.75,0.25,57,114.75
454,D5,91.0,0.25,62,114.75
455,C#5,91.25,0.25,57,114.75
456,E5,91.5,0.25,61,114.75
457,D5,91.75,0.25,57,114.75
458,F#5,92.0,0.5,63,114.75
459,E5,93.0,0.25,62,114.75
460,D5,93.25,0.25,57,114.75
461,C#5,93.5,0.25,62,114.75
462,B4,93.75,0.25,57,114.75
463,A4,94.0,1.0,62,114.75
464,A3,94.5,1.0,39,114.75
465,C#3,94.5,0.5,32,114.75
466,B4,95.0,0.125,62,114.75
467,D3,95.0,0.5,39,114.75
468,C#5,95.125,0.125,54,114.75
469,B4,95.25,0.125,62,114.75
470,C#5,95.375,0.125,55,114.75
471,B4,95.5,167/1000,62,114.75
472,E3,95.5,0.5,36,114.75
473,G#3,95.5,0.5,36,114.75
474,C#5,95.667,167/1000,55,114.75
475,B4,95.833,167/1000,62,114.75
476,C#5,96.0,0.25,64,114.75
477,A3,96.0,0.5,52,114.75
478,A2,96.0,0.5,52,114.75
479,D5,96.25,0.25,57,114.75
480,E5,96.5,0.25,57,114.75
481,C#5,96.75,0.25,57,114.75
482,B4,97.0,0.25,62,114.75
483,C#4,97.0,0.5,39,114.75
484,A4,97.25,0.25,57,114.75
485,G#4,97.5,0.25,57,114.75
486,A4,97.75,0.25,57,114.75
487,F#5,98.0,0.25,64,114.75
488,D4,98.0,1.0,57,114.75
489,G#5,98.25,0.25,64,114.75
490,A5,98.5,0.25,68,114.75
491,F#5,98.75,0.25,64,114.75
492,E5,99.0,0.25,62,114.75
493,D5,99.25,0.25,61,114.75
494,C#5,99.5,0.25,58,114.75
495,B4,99.75,0.25,58,114.75
496,B-4,100.0,0.25,64,114.75
497,D3,100.0,1.0,57,114.75
498,B4,100.25,0.25,57,114.75
499,C#5,100.5,0.25,57,114.75
500,B4,100.75,0.25,57,114.75
501,D5,101.0,0.25,62,114.75
502,C#5,101.25,0.25,57,114.75
503,E5,101.5,0.25,61,114.75
504,D5,101.75,0.25,57,114.75
505,F#5,102.0,0.5,63,114.75
506,D5,103.0,0.25,43,114.75
507,C#5,103.25,0.25,39,114.75
508,E5,103.5,0.25,42,114.75
509,D5,103.75,0.25,39,114.75
510,F#5,104.0,0.5,44,114.75
511,D5,105.0,0.25,46,114.75
512,C#5,105.25,0.25,39,114.75
513,E5,105.5,0.25,47,114.75
514,D5,105.75,0.25,39,114.75
515,F#5,106.0,1.25,44,114.75
516,F4,107.375,0.125,64,114.75
517,F5,107.5,0.375,70,114.75
518,F#4,107.875,0.125,65,114.75
519,F#5,108.0,0.375,72,114.75
520,B-4,108.375,0.125,68,114.75
521,B-5,108.5,0.375,74,114.75
522,B4,108.875,0.125,69,114.75
523,B5,109.0,0.375,75,114.75
524,C#5,109.375,0.125,71,114.75
525,C#6,109.5,0.375,77,114.75
526,D5,109.875,0.125,71,114.75
527,D6,110.0,0.75,78,114.75
528,D4,110.0,0.25,45,114.75
529,F#4,110.0,0.25,45,114.75
530,B4,110.0,0.25,45,114.75
531,D4,110.5,0.25,40,114.75
532,F#4,110.5,0.25,40,114.75
533,B4,110.5,0.25,40,114.75
534,B5,110.75,0.25,68,114.75
535,D6,111.0,0.25,74,114.75
536,D4,111.0,0.25,40,114.75
537,F#4,111.0,0.25,40,114.75
538,B4,111.0,0.25,40,114.75
539,B5,111.25,0.25,68,114.75
540,D6,111.5,0.25,73,114.75
541,D4,111.5,0.25,40,114.75
542,F#4,111.5,0.25,40,114.75
543,B4,111.5,0.25,40,114.75
544,B5,111.75,0.25,70,114.75
545,E5,112.0,0.75,79,114.75
546,E4,112.0,0.25,45,114.75
547,A4,112.0,0.25,45,114.75
548,C#5,112.0,0.25,45,114.75
549,E4,112.5,0.25,40,114.75
550,A4,112.5,0.25,40,114.75
551,C#5,112.5,0.25,40,114.75
552,A5,112.75,0.125,72,114.75
553,C#6,112.875,0.125,75,114.75
554,E6,113.0,0.75,79,114.75
555,E4,113.0,0.25,40,114.75
556,A4,113.0,0.25,40,114.75
557,C#5,113.0,0.25,40,114.75
558,E4,113.5,0.25,40,114.75
559,A4,113.5,0.25,40,114.75
560,C#5,113.5,0.25,40,114.75
561,A5,113.75,0.125,70,114.75
562,B5,113.875,83/1000,56,114.75
563,B5,114.0,0.125,69,114.75
564,E4,114.0,0.25,50,114.75
565,G#4,114.0,0.25,50,114.75
566,C#6,114.125,0.125,49,114.75
567,B5,114.25,0.125,61,114.75
568,C#6,114.375,0.125,55,114.75
569,B5,114.5,0.125,64,114.75
570,E4,114.5,0.25,45,114.75
571,G#4,114.5,0.25,45,114.75
572,C#6,114.625,0.125,58,114.75
573,B5,114.75,0.125,67,114.75
574,C#6,114.875,0.125,62,114.75
575,B5,115.0,0.125,70,114.75
576,E4,115.0,0.25,45,114.75
577,G#4,115.0,0.25,45,114.75
578,C#6,115.125,0.125,61,114.75
579,B5,115.25,0.125,63,114.75
580,C#6,115.375,0.125,55,114.75
581,B5,115.5,0.125,66,114.75
582,E4,115.5,0.25,45,114.75
583,G#4,115.5,0.25,45,114.75
584,C#6,115.625,0.125,57,114.75
585,B5,115.75,0.125,69,114.75
586,C#6,115.875,0.125,59,114.75
587,A5,116.0,1.0,69,114.75
588,A3,116.0,0.25,57,114.75
589,A4,116.25,0.25,47,114.75
590,G#4,116.5,0.25,50,114.75
591,A4,116.75,0.25,47,114.75
592,C#4,117.0,0.25,57,114.75
593,A4,117.25,0.25,48,114.75
594,E5,117.5,0.5,69,114.75
595,G#4,117.5,0.25,50,114.75
596,A4,117.75,0.25,47,114.75
597,F#5,118.0,0.125,64,114.75
598,D4,118.0,0.25,57,114.75
599,G#5,118.125,0.125,59,114.75
600,F#5,118.25,0.25,68,114.75
601,A4,118.25,0.25,47,114.75
602,E5,118.5,0.5,62,114.75
603,C#4,118.5,0.25,50,114.75
604,A4,118.75,0.25,47,114.75
605,F#5,119.0,0.125,62,114.75
606,D4,119.0,0.25,57,114.75
607,G#5,119.125,0.125,62,114.75
608,F#5,119.25,0.25,69,114.75
609,A4,119.25,0.25,48,114.75
610,E5,119.5,0.312,63,114.75
611,C#4,119.5,0.25,50,114.75
612,A4,119.75,0.25,47,114.75
613,E5,119.812,0.188,64,114.75
614,G#5,119.875,0.125,69,114.75
615,B5,119.938,0.062,73,114.75
616,D6,120.0,1.0,77,114.75
617,E5,120.0,1.0,64,114.75
618,G#5,120.0,1.0,69,114.75
619,B5,120.0,1.0,73,114.75
620,B3,120.0,1.0,52,114.75
621,G#4,120.0,1.0,52,114.75
622,C#6,121.5,0.5,69,114.75
623,B5,122.0,0.25,64,114.75
624,D4,122.0,0.5,57,114.75
625,F#4,122.0,0.5,57,114.75
626,C#6,122.25,0.062,50,114.75
627,B5,122.312,0.062,55,114.75
628,B-5,122.375,0.062,58,114.75
629,B5,122.438,0.062,60,114.75
630,D6,122.5,0.5,62,114.75
631,E5,123.0,0.25,62,114.75
632,E3,123.0,0.5,52,114.75
633,E4,123.0,0.5,52,114.75
634,F#5,123.25,0.062,54,114.75
635,E5,123.312,0.062,55,114.75
636,E-5,123.375,0.062,59,114.75
637,E5,123.438,0.062,59,114.75
638,G#5,123.5,0.5,62,114.75
639,D5,123.5,0.5,62,114.75
640,A3,124.0,0.25,57,114.75
641,C#5,124.0,1.0,64,114.75
642,A5,124.0,1.0,64,114.75
643,A4,124.25,0.25,47,114.75
644,G#4,124.5,0.25,50,114.75
645,A4,124.75,0.25,47,114.75
646,C#4,125.0,0.25,57,114.75
647,A4,125.25,0.25,48,114.75
648,E5,125.5,0.5,69,114.75
649,G#4,125.5,0.25,50,114.75
650,A4,125.75,0.25,47,114.75
651,F#5,126.0,0.125,64,114.75
652,D4,126.0,0.25,57,114.75
653,G#5,126.125,0.125,59,114.75
654,F#5,126.25,0.25,68,114.75
655,A4,126.25,0.25,47,114.75
656,E5,126.5,0.5,62,114.75
657,C#4,126.5,0.25,50,114.75
658,A4,126.75,0.25,47,114.75
659,F#5,127.0,0.125,62,114.75
660,D4,127.0,0.25,57,114.75
661,G#5,127.125,0.125,62,114.75
662,F#5,127.25,0.25,69,114.75
663,A4,127.25,0.25,48,114.75
664,E5,127.5,0.312,63,114.75
665,C#4,127.5,0.25,50,114.75
666,A4,127.75,0.25,47,114.75
667,E5,127.812,0.188,64,114.75
668,G#5,127.875,0.125,69,114.75
669,B5,127.938,0.062,73,114.75
670,D6,128.0,1.0,77,114.75
671,E5,128.0,1.0,64,114.75
672,G#5,128.0,1.0,69,114.75
673,B5,128.0,1.0,73,114.75
674,B3,128.0,1.0,52,114.75
675,G#4,128.0,1.0,52,114.75
676,C#6,129.5,0.5,69,114.75
677,A3,129.5,0.5,54,114.75
678,A4,129.5,0.5,54,114.75
679,B5,130.0,0.25,64,114.75
680,D4,130.0,0.5,52,114.75
681,F#4,130.0,0.5,52,114.75
682,C#6,130.25,0.062,50,114.75
683,B5,130.312,0.062,55,114.75
684,B-5,130.375,0.062,58,114.75
685,B5,130.438,0.062,60,114.75
686,D6,130.5,0.5,62,114.75
687,E5,131.0,0.25,62,114.75
688,E4,131.0,0.5,36,114.75
689,E3,131.0,0.5,36,114.75
690,F#5,131.25,0.062,54,114.75
691,E5,131.312,0.062,55,114.75
692,E-5,131.375,0.062,59,114.75
693,E5,131.438,0.062,59,114.75
694,G#5,131.5,0.5,62,114.75
695,D5,131.5,0.5,62,114.75
696,C#5,132.0,1.0,64,114.75
697,A5,132.0,1.0,64,114.75
698,A2,132.0,0.5,42,114.75
699,A3,132.0,0.5,42,114.75
700,D4,133.0,0.5,38,114.75
701,E3,133.0,0.5,38,114.75
702,E4,133.25,0.25,57,114.75
703,G#4,133.5,0.25,57,114.75
704,E5,133.75,0.25,50,114.75
705,E3,134.0,0.5,42,114.75
706,C#4,134.0,0.5,42,114.75
707,E4,134.25,0.25,53,114.75
708,A4,134.5,0.25,57,114.75
709,E5,134.75,0.25,49,114.75
710,B3,135.0,6/25,39,114.75
711,E3,135.0,0.5,33,114.75
712,B3,135.25,0.25,39,114.75
713,D4,135.5,0.25,51,114.75
714,G#4,135.75,0.25,42,114.75
715,C#4,136.0,1.0,53,114.75
716,A4,136.0,1.0,53,114.75
717,A2,136.0,1.0,40,114.75
718,A3,136.0,1.0,40,114.75
719,A3,137.5,0.125,83,114.75
720,D4,137.625,0.125,66,114.75
721,F#4,137.75,0.125,66,114.75
722,A4,137.875,0.125,66,114.75
723,F#4,138.0,0.5,86,114.75
724,D3,138.0,1.0,69,114.75
725,D2,138.0,1.0,69,114.75
726,D4,138.5,0.5,77,114.75
727,D5,139.0,0.125,56,114.75
728,A4,139.5,0.125,52,114.75
729,F#4,139.5,0.125,39,114.75
730,D4,139.5,0.125,39,114.75
731,B4,140.0,0.125,55,114.75
732,G4,140.0,0.5,44,114.75
733,D4,140.0,0.5,44,114.75
734,C#5,140.125,0.125,49,114.75
735,B4,140.25,0.25,60,114.75
736,A4,140.5,0.5,56,114.75
737,F#4,140.5,0.5,37,114.75
738,D4,140.5,0.5,37,114.75
739,A3,141.5,0.125,83,114.75
740,D4,141.625,0.125,66,114.75
741,F#4,141.75,0.125,66,114.75
742,A4,141.875,0.125,66,114.75
743,F#4,142.0,0.5,86,114.75
744,D3,142.0,1.0,69,114.75
745,D2,142.0,1.0,69,114.75
746,D4,142.5,0.5,77,114.75
747,F#5,143.0,0.125,60,114.75
748,A5,143.0,0.125,60,114.75
749,D4,143.5,0.125,42,114.75
750,D5,143.5,0.125,56,114.75
751,F#5,143.5,0.125,56,114.75
752,E5,144.0,0.5,46,114.75
753,G5,144.0,0.125,55,114.75
754,A3,144.0,0.5,48,114.75
755,A5,144.125,0.125,49,114.75
756,G5,144.25,0.25,60,114.75
757,D4,144.5,0.5,40,114.75
758,D5,144.5,0.5,52,114.75
759,F#5,144.5,0.5,52,114.75
760,D5,145.5,0.125,60,114.75
761,F#5,145.625,0.125,51,114.75
762,A5,145.75,0.125,52,114.75
763,D6,145.875,0.125,52,114.75
764,C5,146.0,1.5,67,114.75
765,D4,146.5,0.125,40,114.75
766,F#3,146.5,0.125,40,114.75
767,D4,147.0,0.125,45,114.75
768,F#3,147.0,0.125,45,114.75
769,C6,147.5,0.125,60,114.75
770,A5,147.625,0.125,51,114.75
771,F#5,147.75,0.125,52,114.75
772,C5,147.875,0.125,52,114.75
773,B4,148.0,1.5,67,114.75
774,D4,148.5,0.125,40,114.75
775,G3,148.5,0.125,40,114.75
776,D4,149.0,0.125,45,114.75
777,G3,149.0,0.125,45,114.75
778,B4,149.5,0.125,60,114.75
779,D5,149.625,0.125,51,114.75
780,G5,149.75,0.125,52,114.75
781,B5,149.875,0.125,52,114.75
782,A3,150.0,1.0,46,114.75
783,F#5,150.0,0.125,59,114.75
784,A5,150.0,0.125,59,114.75
785,D5,150.5,0.125,48,114.75
786,F#5,150.5,0.125,48,114.75
787,A2,151.0,1.0,40,114.75
788,G5,151.0,0.125,54,114.75
789,E5,151.0,0.125,54,114.75
790,C#5,151.5,0.125,44,114.75
791,E5,151.5,0.125,44,114.75
792,D3,152.0,1.0,36,114.75
793,E5,152.0,1.0,46,114.75
794,C#5,152.0,1.0,46,114.75
795,D2,153.0,0.5,32,114.75
796,F#5,153.0,0.5,36,114.75
797,D5,153.0,0.5,36,114.75
798,D5,153.5,0.125,60,114.75
799,F#5,153.625,0.125,51,114.75
800,A5,153.75,0.125,52,114.75
801,D6,153.875,0.125,52,114.75
802,C5,154.0,1.5,67,114.75
803,D4,154.5,0.125,40,114.75
804,F#3,154.5,0.125,40,114.75
805,D4,155.0,0.125,45,114.75
806,F#3,155.0,0.125,45,114.75
807,C6,155.5,0.125,60,114.75
808,A5,155.625,0.125,51,114.75
809,F#5,155.75,0.125,52,114.75
810,C5,155.875,0.125,52,114.75
811,B4,156.0,1.5,67,114.75
812,D4,156.5,0.125,40,114.75
813,G3,156.5,0.125,40,114.75
814,D4,157.0,0.125,45,114.75
815,G3,157.0,0.125,45,114.75
816,B5,157.5,167/1000,60,114.75
817,C#6,157.667,167/1000,56,114.75
818,D6,157.833,167/1000,56,114.75
819,C#6,158.0,167/1000,60,114.75
820,A3,158.0,0.5,48,114.75
821,B5,158.167,167/1000,55,114.75
822,A5,158.333,167/1000,51,114.75
823,G5,158.5,167/1000,59,114.75
824,F#5,158.667,167/1000,51,114.75
825,E5,158.833,167/1000,51,114.75
826,D5,159.0,167/1000,55,114.75
827,A2,159.0,0.5,39,114.75
828,C#5,159.167,167/1000,49,114.75
829,B4,159.333,167/1000,49,114.75
830,A4,159.5,0.125,52,114.75
831,G4,159.625,0.125,49,114.75
832,F#4,159.75,0.125,49,114.75
833,E4,159.875,0.125,48,114.75
834,D4,160.0,1.0,60,114.75
835,D2,160.0,1.0,48,114.75
836,A3,161.5,0.5,53,114.75
837,D4,162.0,0.25,60,114.75
838,C#4,162.25,0.188,52,114.75
839,E4,162.5,0.25,60,114.75
840,D4,162.75,0.188,54,114.75
841,F#4,163.0,0.25,60,114.75
842,E4,163.25,0.188,54,114.75
843,G4,163.5,0.25,60,114.75
844,F#4,163.75,0.188,49,114.75
845,F#4,164.0,1.0,52,114.75
846,D4,164.0,1.0,52,114.75
847,G#3,164.5,0.5,43,114.75
848,A3,165.0,0.375,48,114.75
849,E4,165.0,0.375,46,114.75
850,C#4,165.0,0.375,46,114.75
851,A3,165.5,0.5,53,114.75
852,E4,166.0,0.25,60,114.75
853,E-4,166.25,0.188,52,114.75
854,F#4,166.5,0.25,60,114.75
855,E4,166.75,0.188,54,114.75
856,G4,167.0,0.25,60,114.75
857,F#4,167.25,0.188,54,114.75
858,A4,167.5,0.25,60,114.75
859,G4,167.75,0.188,49,114.75
860,G4,168.0,1.0,52,114.75
861,E4,168.0,1.0,52,114.75
862,C#3,168.5,0.5,43,114.75
863,D3,169.0,0.375,48,114.75
864,F#4,169.0,0.375,46,114.75
865,D4,169.0,0.375,46,114.75
866,D4,169.5,0.5,58,114.75
867,G4,170.0,0.25,66,114.75
868,F#4,170.25,0.188,57,114.75
869,A4,170.5,0.25,66,114.75
870,G4,170.75,0.188,59,114.75
871,B4,171.0,0.25,66,114.75
872,A4,171.25,0.188,59,114.75
873,D5,171.5,0.25,66,114.75
874,C#5,171.75,0.188,53,114.75
875,B4,172.0,0.25,62,114.75
876,G3,172.0,0.25,52,114.75
877,D4,172.25,0.25,45,114.75
878,B4,172.5,0.25,62,114.75
879,G3,172.5,0.25,54,114.75
880,D5,172.75,0.25,57,114.75
881,D4,172.75,0.25,39,114.75
882,A4,173.0,0.25,62,114.75
883,F#3,173.0,0.25,49,114.75
884,D4,173.25,0.25,38,114.75
885,F#3,173.5,0.25,49,114.75
886,D4,173.75,0.25,43,114.75
887,G4,174.0,0.062,55,114.75
888,B3,174.0,0.25,52,114.75
889,F#4,174.062,0.062,48,114.75
890,G4,174.125,0.125,62,114.75
891,D4,174.25,0.25,45,114.75
892,G4,174.5,0.25,62,114.75
893,B3,174.5,0.25,54,114.75
894,B4,174.75,0.25,57,114.75
895,D4,174.75,0.25,39,114.75
896,F#4,175.0,0.25,62,114.75
897,A3,175.0,0.25,49,114.75
898,D4,175.25,0.25,38,114.75
899,A3,175.5,0.25,49,114.75
900,D4,175.75,0.25,43,114.75
901,B4,176.0,0.062,60,114.75
902,G3,176.0,0.25,52,114.75
903,A4,176.062,0.062,52,114.75
904,B4,176.125,0.125,68,114.75
905,D4,176.25,0.25,45,114.75
906,B4,176.5,0.25,68,114.75
907,G3,176.5,0.25,54,114.75
908,D5,176.75,0.25,62,114.75
909,D4,176.75,0.25,39,114.75
910,A4,177.0,0.25,68,114.75
911,F#3,177.0,0.25,49,114.75
912,D4,177.25,0.25,38,114.75
913,F#3,177.5,0.25,49,114.75
914,D4,177.75,0.25,43,114.75
915,G4,178.0,0.062,55,114.75
916,B3,178.0,0.25,52,114.75
917,F#4,178.062,0.062,48,114.75
918,G4,178.125,0.125,62,114.75
919,D4,178.25,0.25,45,114.75
920,G4,178.5,0.25,62,114.75
921,B3,178.5,0.25,54,114.75
922,B4,178.75,0.25,57,114.75
923,D4,178.75,0.25,39,114.75
924,F#4,179.0,0.25,62,114.75
925,A3,179.0,0.25,49,114.75
926,D4,179.25,0.25,38,114.75
927,A3,179.5,0.25,49,114.75
928,D4,179.75,0.25,43,114.75
929,E-4,180.0,0.25,55,114.75
930,G3,180.0,1.0,52,114.75
931,E4,180.25,0.25,55,114.75
932,F#4,180.5,0.25,58,114.75
933,G4,180.75,0.25,58,114.75
934,A4,181.0,0.25,62,114.75
935,B4,181.25,0.25,55,114.75
936,G4,181.5,0.25,61,114.75
937,G3,181.5,0.5,37,114.75
938,G2,181.5,0.5,37,114.75
939,E4,181.75,0.25,51,114.75
940,D4,182.0,2.0,57,114.75
941,F#3,182.0,2.0,48,114.75
942,A2,182.0,2.0,40,114.75
943,C#4,184.0,0.5,50,114.75
944,E3,184.0,0.5,45,114.75
945,A2,184.0,0.5,40,114.75
946,E4,185.5,0.125,83,114.75
947,A4,185.625,0.125,66,114.75
948,C#5,185.75,0.125,66,114.75
949,E5,185.875,0.125,66,114.75
950,C#5,186.0,0.5,86,114.75
951,A2,186.0,0.5,66,114.75
952,C#3,186.0,0.5,66,114.75
953,A3,186.0,0.5,66,114.75
954,E3,186.0,0.5,66,114.75
955,A4,186.5,0.125,83,114.75
956,C#5,186.625,0.125,66,114.75
957,E5,186.75,0.125,66,114.75
958,A5,186.875,0.125,66,114.75
959,E5,187.0,0.5,86,114.75
960,A2,187.0,0.5,66,114.75
961,C#3,187.0,0.5,66,114.75
962,A3,187.0,0.5,66,114.75
963,E3,187.0,0.5,66,114.75
964,E5,187.5,0.125,95,114.75
965,A5,187.625,0.125,75,114.75
966,C#6,187.75,0.125,75,114.75
967,E6,187.875,0.125,75,114.75
968,C#6,188.0,0.5,102,114.75
969,A2,188.0,0.5,66,114.75
970,C#3,188.0,0.5,66,114.75
971,A3,188.0,0.5,66,114.75
972,E3,188.0,0.5,66,114.75
973,A4,189.5,0.125,61,114.75
974,E4,189.625,0.125,50,114.75
975,C#4,189.75,0.125,50,114.75
976,A3,189.875,0.125,50,114.75
977,G3,190.0,2.0,62,114.75
978,A2,190.0,0.25,46,114.75
979,E3,190.25,0.25,38,114.75
980,D3,190.5,0.25,46,114.75
981,E3,190.75,0.25,39,114.75
982,C#3,191.0,0.25,47,114.75
983,E3,191.25,0.25,38,114.75
984,A2,191.5,0.25,49,114.75
985,C#3,191.75,0.25,41,114.75
986,F#3,192.0,0.25,61,114.75
987,D3,192.0,1.0,46,114.75
988,B3,192.25,0.25,55,114.75
989,B-3,192.5,0.25,49,114.75
990,B3,192.75,0.25,54,114.75
991,C#4,193.0,0.25,59,114.75
992,B3,193.25,0.25,55,114.75
993,B-3,193.5,0.25,47,114.75
994,B3,193.75,0.25,56,114.75
995,A3,194.0,2.0,62,114.75
996,E-3,194.0,0.25,46,114.75
997,F#3,194.25,0.25,38,114.75
998,E3,194.5,0.25,46,114.75
999,F#3,194.75,0.25,39,114.75
1000,E-3,195.0,0.25,47,114.75
1001,F#3,195.25,0.25,38,114.75
1002,B2,195.5,0.25,49,114.75
1003,E-3,195.75,0.25,41,114.75
1004,G#3,196.0,0.25,61,114.75
1005,E3,196.0,1.0,46,114.75
1006,E4,196.25,0.25,55,114.75
1007,E-4,196.5,0.25,49,114.75
1008,E4,196.75,0.25,54,114.75
1009,F#4,197.0,0.25,59,114.75
1010,E4,197.25,0.25,55,114.75
1011,E-4,197.5,0.25,47,114.75
1012,E4,197.75,0.25,56,114.75
1013,E-4,198.0,0.5,62,114.75
1014,F#3,198.0,0.25,52,114.75
1015,C4,198.25,0.25,45,114.75
1016,A4,198.5,0.25,57,114.75
1017,F#3,198.5,0.25,54,114.75
1018,C4,198.75,0.25,39,114.75
1019,F#3,199.0,0.25,43,114.75
1020,C4,199.25,0.25,36,114.75
1021,E-4,199.5,0.5,62,114.75
1022,F#3,199.5,0.25,45,114.75
1023,C4,199.75,0.25,37,114.75
1024,E4,200.0,0.25,62,114.75
1025,G#3,200.0,0.25,52,114.75
1026,B3,200.25,0.25,45,114.75
1027,E4,200.5,0.25,62,114.75
1028,G#3,200.5,0.25,54,114.75
1029,B4,200.75,0.25,57,114.75
1030,B3,200.75,0.25,39,114.75
1031,E4,201.0,0.375,62,114.75
1032,G#3,201.0,0.25,49,114.75
1033,B3,201.25,0.25,38,114.75
1034,E4,201.5,0.5,57,114.75
1035,G#3,201.5,0.25,49,114.75
1036,B3,201.75,0.25,43,114.75
1037,E-4,202.0,0.5,62,114.75
1038,F#3,202.0,0.25,52,114.75
1039,C4,202.25,0.25,45,114.75
1040,A4,202.5,0.25,57,114.75
1041,F#3,202.5,0.25,54,114.75
1042,C4,202.75,0.25,39,114.75
1043,F#3,203.0,0.25,42,114.75
1044,C4,203.25,0.25,37,114.75
1045,E-4,203.5,0.5,62,114.75
1046,F#3,203.5,0.25,45,114.75
1047,C4,203.75,0.25,38,114.75
1048,E4,204.0,0.25,62,114.75
1049,G#3,204.0,0.25,52,114.75
1050,B3,204.25,0.25,45,114.75
1051,E4,204.5,0.25,62,114.75
1052,G#3,204.5,0.25,54,114.75
1053,B4,204.75,0.25,57,114.75
1054,B3,204.75,0.25,39,114.75
1055,E4,205.0,0.375,62,114.75
1056,G#3,205.0,0.25,49,114.75
1057,B3,205.25,0.25,38,114.75
1058,D4,205.5,0.062,47,114.75
1059,G#3,205.5,0.25,49,114.75
1060,E4,205.562,0.062,44,114.75
1061,D4,205.625,0.375,57,114.75
1062,B3,205.75,0.25,43,114.75
1063,C#4,206.0,6/25,62,114.75
1064,A3,206.0,0.25,52,114.75
1065,C#4,206.25,0.25,45,114.75
1066,E5,206.5,0.25,64,114.75
1067,A3,206.5,0.25,54,114.75
1068,C#4,206.75,0.25,39,114.75
1069,A3,207.0,0.25,46,114.75
1070,C#4,207.25,0.25,38,114.75
1071,A4,207.5,0.5,62,114.75
1072,A3,207.5,0.25,46,114.75
1073,C#4,207.75,0.25,39,114.75
1074,G#4,208.0,0.25,62,114.75
1075,B3,208.0,0.25,52,114.75
1076,D4,208.25,0.25,45,114.75
1077,G#4,208.5,0.25,62,114.75
1078,B3,208.5,0.25,54,114.75
1079,E5,208.75,0.25,57,114.75
1080,D4,208.75,0.25,39,114.75
1081,G#4,209.0,0.375,62,114.75
1082,B3,209.0,0.25,49,114.75
1083,D4,209.25,0.25,38,114.75
1084,G#4,209.5,0.5,57,114.75
1085,B3,209.5,0.25,49,114.75
1086,D4,209.75,0.25,43,114.75
1087,A4,210.0,0.25,62,114.75
1088,C#4,210.0,0.25,52,114.75
1089,E4,210.25,0.25,45,114.75
1090,A4,210.5,0.25,62,114.75
1091,C#4,210.5,0.25,54,114.75
1092,E5,210.75,0.25,57,114.75
1093,E4,210.75,0.25,39,114.75
1094,A4,211.0,0.375,62,114.75
1095,C#4,211.0,0.25,49,114.75
1096,E4,211.25,0.25,38,114.75
1097,A4,211.5,0.5,57,114.75
1098,C#4,211.5,0.25,49,114.75
1099,E4,211.75,0.25,43,114.75
1100,B4,212.0,0.25,62,114.75
1101,G#3,212.0,0.25,52,114.75
1102,E4,212.25,0.25,45,114.75
1103,B4,212.5,0.25,62,114.75
1104,G#3,212.5,0.25,54,114.75
1105,E5,212.75,0.25,57,114.75
1106,E4,212.75,0.25,39,114.75
1107,B4,213.0,0.375,62,114.75
1108,G#3,213.0,0.25,49,114.75
1109,E4,213.25,0.25,38,114.75
1110,D5,213.5,0.5,57,114.75
1111,G#3,213.5,0.25,49,114.75
1112,E4,213.75,0.25,43,114.75
1113,C#5,214.0,0.25,64,114.75
1114,A3,214.0,1.0,52,114.75
1115,D5,214.25,0.25,57,114.75
1116,E5,214.5,0.25,57,114.75
1117,C#5,214.75,0.25,57,114.75
1118,B4,215.0,0.25,62,114.75
1119,A4,215.25,0.25,57,114.75
1120,G#4,215.5,0.25,57,114.75
1121,F#4,215.75,0.25,57,114.75
1122,E4,216.0,0.25,64,114.75
1123,G#3,216.0,1.0,52,114.75
1124,B3,216.0,1.0,52,114.75
1125,E-4,216.25,0.25,53,114.75
1126,E4,216.5,0.25,57,114.75
1127,F#4,216.75,0.25,53,114.75
1128,E4,217.0,0.25,57,114.75
1129,D4,217.25,0.25,51,114.75
1130,C#4,217.5,0.25,51,114.75
1131,B3,217.75,0.25,51,114.75
1132,C#4,218.0,0.25,56,114.75
1133,A2,218.0,1.0,52,114.75
1134,A3,218.0,1.0,52,114.75
1135,D4,218.25,0.25,47,114.75
1136,E4,218.5,0.25,47,114.75
1137,C#4,218.75,0.25,47,114.75
1138,B3,219.0,0.25,55,114.75
1139,A3,219.25,0.25,51,114.75
1140,G#3,219.5,0.25,51,114.75
1141,F#3,219.75,0.25,51,114.75
1142,E3,220.0,0.25,54,114.75
1143,E-3,220.25,0.25,50,114.75
1144,E3,220.5,0.25,50,114.75
1145,F#3,220.75,0.25,50,114.75
1146,E3,221.0,0.25,55,114.75
1147,D3,221.25,0.25,49,114.75
1148,C#3,221.5,0.25,49,114.75
1149,B2,221.75,0.25,49,114.75
1150,C#5,222.0,0.25,64,114.75
1151,A2,222.0,1.0,57,114.75
1152,D5,222.25,0.25,57,114.75
1153,E5,222.5,0.25,57,114.75
1154,C#5,222.75,0.25,57,114.75
1155,B4,223.0,0.25,62,114.75
1156,A4,223.25,0.25,57,114.75
1157,G#4,223.5,0.25,57,114.75
1158,A4,223.75,0.25,57,114.75
1159,F#5,224.0,0.25,64,114.75
1160,D4,224.0,1.0,57,114.75
1161,G#5,224.25,0.25,64,114.75
1162,A5,224.5,0.25,68,114.75
1163,F#5,224.75,0.25,64,114.75
1164,E5,225.0,0.25,62,114.75
1165,D5,225.25,0.25,61,114.75
1166,C#5,225.5,0.25,58,114.75
1167,B4,225.75,0.25,58,114.75
1168,B-4,226.0,0.25,64,114.75
1169,D2,226.0,1.0,57,114.75
1170,B4,226.25,0.25,57,114.75
1171,C#5,226.5,0.25,57,114.75
1172,B4,226.75,0.25,57,114.75
1173,D5,227.0,0.25,62,114.75
1174,C#5,227.25,0.25,57,114.75
1175,E5,227.5,0.25,61,114.75
1176,D5,227.75,0.25,57,114.75
1177,F#5,228.0,0.5,63,114.75
1178,E5,229.0,0.25,62,114.75
1179,D5,229.25,0.25,57,114.75
1180,C#5,229.5,0.25,62,114.75
1181,B4,229.75,0.25,57,114.75
1182,A4,230.0,1.0,62,114.75
1183,A3,230.5,1.0,39,114.75
1184,C#3,230.5,0.5,32,114.75
1185,B4,231.0,0.125,62,114.75
1186,D3,231.0,0.5,39,114.75
1187,C#5,231.125,0.125,54,114.75
1188,B4,231.25,0.125,62,114.75
1189,C#5,231.375,0.125,55,114.75
1190,B4,231.5,167/1000,62,114.75
1191,E3,231.5,0.5,36,114.75
1192,G#3,231.5,0.5,36,114.75
1193,C#5,231.667,167/1000,55,114.75
1194,B4,231.833,167/1000,62,114.75
1195,C#5,232.0,0.25,64,114.75
1196,A2,232.0,0.5,52,114.75
1197,A3,232.0,0.5,52,114.75
1198,D5,232.25,0.25,57,114.75
1199,E5,232.5,0.25,57,114.75
1200,C#5,232.75,0.25,57,114.75
1201,B4,233.0,0.25,62,114.75
1202,C#4,233.0,0.5,39,114.75
1203,A4,233.25,0.25,57,114.75
1204,G#4,233.5,0.25,57,114.75
1205,A4,233.75,0.25,57,114.75
1206,F#5,234.0,0.25,64,114.75
1207,D4,234.0,1.0,57,114.75
1208,G#5,234.25,0.25,64,114.75
1209,A5,234.5,0.25,68,114.75
1210,F#5,234.75,0.25,64,114.75
1211,E5,235.0,0.25,62,114.75
1212,D5,235.25,0.25,61,114.75
1213,C#5,235.5,0.25,58,114.75
1214,B4,235.75,0.25,58,114.75
1215,B-4,236.0,0.25,64,114.75
1216,D3,236.0,1.0,57,114.75
1217,B4,236.25,0.25,57,114.75
1218,C#5,236.5,0.25,57,114.75
1219,B4,236.75,0.25,57,114.75
1220,D5,237.0,0.25,62,114.75
1221,C#5,237.25,0.25,57,114.75
1222,E5,237.5,0.25,61,114.75
1223,D5,237.75,0.25,57,114.75
1224,F#5,238.0,0.5,63,114.75
1225,D5,239.0,0.25,43,114.75
1226,C#5,239.25,0.25,39,114.75
1227,E5,239.5,0.25,42,114.75
1228,D5,239.75,0.25,39,114.75
1229,F#5,240.0,0.5,44,114.75
1230,D5,241.0,0.25,46,114.75
1231,C#5,241.25,0.25,39,114.75
1232,E5,241.5,0.25,47,114.75
1233,D5,241.75,0.25,39,114.75
1234,F#5,242.0,1.25,44,114.75
1235,F4,243.375,0.125,64,114.75
1236,F5,243.5,0.375,70,114.75
1237,F#4,243.875,0.125,65,114.75
1238,F#5,244.0,0.375,72,114.75
1239,B-4,244.375,0.125,68,114.75
1240,B-5,244.5,0.375,74,114.75
1241,B4,244.875,0.125,69,114.75
1242,B5,245.0,0.375,75,114.75
1243,C#5,245.375,0.125,71,114.75
1244,C#6,245.5,0.375,77,114.75
1245,D5,245.875,0.125,71,114.75
1246,D6,246.0,0.75,78,114.75
1247,D4,246.0,0.25,45,114.75
1248,F#4,246.0,0.25,45,114.75
1249,B4,246.0,0.25,45,114.75
1250,D4,246.5,0.25,40,114.75
1251,F#4,246.5,0.25,40,114.75
1252,B4,246.5,0.25,40,114.75
1253,B5,246.75,0.25,68,114.75
1254,D6,247.0,0.25,74,114.75
1255,D4,247.0,0.25,40,114.75
1256,F#4,247.0,0.25,40,114.75
1257,B4,247.0,0.25,40,114.75
1258,B5,247.25,0.25,68,114.75
1259,D6,247.5,0.25,73,114.75
1260,D4,247.5,0.25,40,114.75
1261,F#4,247.5,0.25,40,114.75
1262,B4,247.5,0.25,40,114.75
1263,B5,247.75,0.25,70,114.75
1264,E5,248.0,0.75,79,114.75
1265,E4,248.0,0.25,45,114.75
1266,A4,248.0,0.25,45,114.75
1267,C#5,248.0,0.25,45,114.75
1268,E4,248.5,0.25,40,114.75
1269,A4,248.5,0.25,40,114.75
1270,C#5,248.5,0.25,40,114.75
1271,A5,248.75,0.125,72,114.75
1272,C#6,248.875,0.125,75,114.75
1273,E6,249.0,0.75,79,114.75
1274,E4,249.0,0.25,40,114.75
1275,A4,249.0,0.25,40,114.75
1276,C#5,249.0,0.25,40,114.75
1277,E4,249.5,0.25,40,114.75
1278,A4,249.5,0.25,40,114.75
1279,C#5,249.5,0.25,40,114.75
1280,A5,249.75,0.125,70,114.75
1281,B5,249.875,83/1000,56,114.75
1282,B5,250.0,0.125,69,114.75
1283,E4,250.0,0.25,50,114.75
1284,G#4,250.0,0.25,50,114.75
1285,C#6,250.125,0.125,49,114.75
1286,B5,250.25,0.125,61,114.75
1287,C#6,250.375,0.125,55,114.75
1288,B5,250.5,0.125,64,114.75
1289,E4,250.5,0.25,45,114.75
1290,G#4,250.5,0.25,45,114.75
1291,C#6,250.625,0.125,58,114.75
1292,B5,250.75,0.125,67,114.75
1293,C#6,250.875,0.125,62,114.75
1294,B5,251.0,0.125,70,114.75
1295,E4,251.0,0.25,45,114.75
1296,G#4,251.0,0.25,45,114.75
1297,C#6,251.125,0.125,61,114.75
1298,B5,251.25,0.125,63,114.75
1299,C#6,251.375,0.125,55,114.75
1300,B5,251.5,0.125,66,114.75
1301,E4,251.5,0.25,45,114.75
1302,G#4,251.5,0.25,45,114.75
1303,C#6,251.625,0.125,57,114.75
1304,B5,251.75,0.125,69,114.75
1305,C#6,251.875,0.125,59,114.75
1306,A5,252.0,1.0,69,114.75
1307,A3,252.0,0.25,57,114.75
1308,A4,252.25,0.25,47,114.75
1309,G#4,252.5,0.25,50,114.75
1310,A4,252.75,0.25,47,114.75
1311,C#4,253.0,0.25,57,114.75
1312,A4,253.25,0.25,48,114.75
1313,E5,253.5,0.5,69,114.75
1314,G#4,253.5,0.25,50,114.75
1315,A4,253.75,0.25,47,114.75
1316,F#5,254.0,0.125,64,114.75
1317,D4,254.0,0.25,57,114.75
1318,G#5,254.125,0.125,59,114.75
1319,F#5,254.25,0.25,68,114.75
1320,A4,254.25,0.25,47,114.75
1321,E5,254.5,0.5,62,114.75
1322,C#4,254.5,0.25,50,114.75
1323,A4,254.75,0.25,47,114.75
1324,F#5,255.0,0.125,62,114.75
1325,D4,255.0,0.25,57,114.75
1326,G#5,255.125,0.125,62,114.75
1327,F#5,255.25,0.25,69,114.75
1328,A4,255.25,0.25,48,114.75
1329,E5,255.5,0.312,63,114.75
1330,C#4,255.5,0.25,50,114.75
1331,A4,255.75,0.25,47,114.75
1332,E5,255.812,0.188,64,114.75
1333,G#5,255.875,0.125,69,114.75
1334,B5,255.938,0.062,73,114.75
1335,D6,256.0,1.0,77,114.75
1336,E5,256.0,1.0,64,114.75
1337,G#5,256.0,1.0,69,114.75
1338,B5,256.0,1.0,73,114.75
1339,B3,256.0,1.0,52,114.75
1340,G#4,256.0,1.0,52,114.75
1341,C#6,257.5,0.5,69,114.75
1342,B5,258.0,0.25,64,114.75
1343,D4,258.0,0.5,57,114.75
1344,F#4,258.0,0.5,57,114.75
1345,C#6,258.25,0.062,50,114.75
1346,B5,258.312,0.062,55,114.75
1347,B-5,258.375,0.062,58,114.75
1348,B5,258.438,0.062,60,114.75
1349,D6,258.5,0.5,62,114.75
1350,E5,259.0,0.25,62,114.75
1351,E3,259.0,0.5,52,114.75
1352,E4,259.0,0.5,52,114.75
1353,F#5,259.25,0.062,54,114.75
1354,E5,259.312,0.062,55,114.75
1355,E-5,259.375,0.062,59,114.75
1356,E5,259.438,0.062,59,114.75
1357,G#5,259.5,0.5,62,114.75
1358,D5,259.5,0.5,62,114.75
1359,A3,260.0,0.25,57,114.75
1360,C#5,260.0,1.0,64,114.75
1361,A5,260.0,1.0,64,114.75
1362,A4,260.25,0.25,47,114.75
1363,G#4,260.5,0.25,50,114.75
1364,A4,260.75,0.25,47,114.75
1365,C#4,261.0,0.25,57,114.75
1366,A4,261.25,0.25,48,114.75
1367,E5,261.5,0.5,69,114.75
1368,G#4,261.5,0.25,50,114.75
1369,A4,261.75,0.25,47,114.75
1370,F#5,262.0,0.125,64,114.75
1371,D4,262.0,0.25,57,114.75
1372,G#5,262.125,0.125,59,114.75
1373,F#5,262.25,0.25,68,114.75
1374,A4,262.25,0.25,47,114.75
1375,E5,262.5,0.5,62,114.75
1376,C#4,262.5,0.25,50,114.75
1377,A4,262.75,0.25,47,114.75
1378,F#5,263.0,0.125,62,114.75
1379,D4,263.0,0.25,57,114.75
1380,G#5,263.125,0.125,62,114.75
1381,F#5,263.25,0.25,69,114.75
1382,A4,263.25,0.25,48,114.75
1383,E5,263.5,0.312,63,114.75
1384,C#4,263.5,0.25,50,114.75
1385,A4,263.75,0.25,47,114.75
1386,E5,263.812,0.188,64,114.75
1387,G#5,263.875,0.125,69,114.75
1388,B5,263.938,0.062,73,114.75
1389,D6,264.0,1.0,77,114.75
1390,E5,264.0,1.0,64,114.75
1391,G#5,264.0,1.0,69,114.75
1392,B5,264.0,1.0,73,114.75
1393,B3,264.0,1.0,52,114.75
1394,G#4,264.0,1.0,52,114.75
1395,C#6,265.5,0.5,69,114.75
1396,A3,265.5,0.5,45,114.75
1397,A4,265.5,0.5,45,114.75
1398,B5,266.0,0.25,64,114.75
1399,D4,266.0,0.5,52,114.75
1400,F#4,266.0,0.5,52,114.75
1401,C#6,266.25,0.062,50,114.75
1402,B5,266.312,0.062,55,114.75
1403,B-5,266.375,0.062,58,114.75
1404,B5,266.438,0.062,60,114.75
1405,D6,266.5,0.5,62,114.75
1406,E5,267.0,0.25,62,114.75
1407,E4,267.0,0.5,36,114.75
1408,E3,267.0,0.5,36,114.75
1409,F#5,267.25,0.062,54,114.75
1410,E5,267.312,0.062,55,114.75
1411,E-5,267.375,0.062,59,114.75
1412,E5,267.438,0.062,59,114.75
1413,G#5,267.5,0.5,62,114.75
1414,D5,267.5,0.5,62,114.75
1415,C#5,268.0,1.0,64,114.75
1416,A5,268.0,1.0,64,114.75
1417,A2,268.0,0.5,42,114.75
1418,A3,268.0,0.5,42,114.75
1419,D4,269.0,0.5,38,114.75
1420,E3,269.0,0.5,38,114.75
1421,E4,269.25,0.25,57,114.75
1422,G#4,269.5,0.25,57,114.75
1423,E5,269.75,0.25,50,114.75
1424,E3,270.0,0.5,42,114.75
1425,C#4,270.0,0.5,42,114.75
1426,E4,270.25,0.25,53,114.75
1427,A4,270.5,0.25,57,114.75
1428,E5,270.75,0.25,49,114.75
1429,B3,271.0,6/25,39,114.75
1430,E3,271.0,0.5,33,114.75
1431,B3,271.25,0.25,39,114.75
1432,D4,271.5,0.25,51,114.75
1433,G#4,271.75,0.25,42,114.75
1434,C#4,272.0,1.0,53,114.75
1435,A4,272.0,1.0,53,114.75
1436,A2,272.0,1.0,40,114.75
1437,A3,272.0,1.0,40,114.75
1438,F#1,274.0,2.0,34,114.75
1439,F#2,274.0,2.0,34,114.75
1440,F#3,277.0,0.25,51,114.75
1441,G3,277.25,0.062,40,114.75
1442,F#3,277.312,0.062,44,114.75
1443,F3,277.375,0.062,42,114.75
1444,F#3,277.438,0.062,42,114.75
1445,B-3,277.5,0.5,49,114.75
1446,B3,278.0,0.125,44,114.75
1447,B-3,278.125,0.125,40,114.75
1448,B3,278.25,0.25,51,114.75
1449,D4,278.5,0.5,44,114.75
1450,C#4,279.0,0.125,46,114.75
1451,B3,279.125,0.125,42,114.75
1452,C#4,279.25,0.25,51,114.75
1453,E4,279.5,0.5,48,114.75
1454,D4,280.0,0.25,51,114.75
1455,F#1,280.0,2.0,34,114.75
1456,F#2,280.0,2.0,34,114.75
1457,E4,280.25,0.062,42,114.75
1458,D4,280.312,0.062,38,114.75
1459,C#4,280.375,0.062,43,114.75
1460,D4,280.438,0.062,39,114.75
1461,F#4,280.5,0.5,49,114.75
1462,D4,281.5,0.125,70,114.75
1463,E3,281.5,0.5,40,114.75
1464,F#4,281.625,0.125,56,114.75
1465,B4,281.75,0.125,56,114.75
1466,D5,281.875,0.125,56,114.75
1467,B4,282.0,0.5,73,114.75
1468,F#4,282.5,0.5,65,114.75
1469,F#5,283.0,0.125,56,114.75
1470,B4,283.5,0.125,52,114.75
1471,C#5,284.0,0.125,55,114.75
1472,D3,284.0,0.5,46,114.75
1473,F#1,284.0,2.0,34,114.75
1474,F#2,284.0,2.0,34,114.75
1475,D5,284.125,0.125,49,114.75
1476,C#5,284.25,0.25,60,114.75
1477,B4,284.5,0.5,56,114.75
1478,B2,284.5,0.5,41,114.75
1479,B-2,285.0,0.5,46,114.75
1480,D4,285.5,0.125,70,114.75
1481,B2,285.5,0.5,39,114.75
1482,F#4,285.625,0.125,56,114.75
1483,B4,285.75,0.125,56,114.75
1484,D5,285.875,0.125,56,114.75
1485,B4,286.0,0.5,73,114.75
1486,B2,286.0,1.0,46,114.75
1487,F#4,286.5,0.5,65,114.75
1488,B5,287.0,0.125,64,114.75
1489,F#5,287.5,0.125,60,114.75
1490,G5,288.0,0.125,55,114.75
1491,A5,288.125,0.125,49,114.75
1492,G5,288.25,0.25,60,114.75
1493,F#5,288.5,0.5,56,114.75
1494,B4,289.5,0.125,70,114.75
1495,F#4,289.5,0.125,39,114.75
1496,D4,289.5,0.125,39,114.75
1497,D5,289.625,0.125,56,114.75
1498,F#5,289.75,0.125,56,114.75
1499,B5,289.875,0.125,56,114.75
1500,F#5,290.0,0.5,73,114.75
1501,E4,290.0,0.5,44,114.75
1502,G4,290.0,0.5,44,114.75
1503,D5,290.5,0.5,65,114.75
1504,F#4,290.5,0.5,37,114.75
1505,D4,290.5,0.5,37,114.75
1506,G5,291.0,0.125,64,114.75
1507,F#5,291.5,0.125,60,114.75
1508,E5,292.0,0.125,55,114.75
1509,F#5,292.125,0.125,49,114.75
1510,E5,292.25,0.25,60,114.75
1511,D5,292.5,0.5,56,114.75
1512,B4,293.5,0.125,40,114.75
1513,D5,293.5,0.125,40,114.75
1514,C#5,294.0,0.5,44,114.75
1515,B-4,294.0,0.5,44,114.75
1516,C4,294.25,0.25,34,114.75
1517,B3,294.5,0.25,41,114.75
1518,D5,294.5,0.5,37,114.75
1519,B4,294.5,0.5,37,114.75
1520,C4,294.75,0.25,34,114.75
1521,D4,295.0,0.25,40,114.75
1522,C4,295.25,0.25,34,114.75
1523,E4,295.5,0.25,41,114.75
1524,C4,295.75,0.25,37,114.75
1525,G4,296.25,0.25,39,114.75
1526,F#4,296.5,0.25,47,114.75
1527,G4,296.75,0.25,39,114.75
1528,A4,297.0,0.25,46,114.75
1529,B4,297.0,0.125,38,114.75
1530,D5,297.0,0.125,38,114.75
1531,G4,297.25,0.25,39,114.75
1532,B4,297.5,0.25,47,114.75
1533,C#5,297.5,0.125,37,114.75
1534,A4,297.5,0.125,37,114.75
1535,G4,297.75,0.25,42,114.75
1536,F#4,298.0,2.0,39,114.75
1537,G4,298.0,0.5,44,114.75
1538,B4,298.0,0.5,44,114.75
1539,F#4,298.5,0.5,37,114.75
1540,A4,298.5,0.5,37,114.75
1541,B3,300.0,0.25,52,114.75
1542,D3,300.0,2.0,34,114.75
1543,E4,300.25,0.25,44,114.75
1544,E-4,300.5,0.25,53,114.75
1545,E4,300.75,0.25,44,114.75
1546,F#4,301.0,0.25,52,114.75
1547,E4,301.25,0.25,44,114.75
1548,G4,301.5,0.25,53,114.75
1549,E4,301.75,0.25,48,114.75
1550,B3,302.0,2.0,34,114.75
1551,D3,302.0,2.0,34,114.75
1552,E5,302.0,2.0,61,114.75
1553,G4,302.0,2.0,61,114.75
1554,E-3,304.0,2.0,40,114.75
1555,B3,304.0,0.25,34,114.75
1556,E5,304.25,0.25,57,114.75
1557,A3,304.25,0.25,40,114.75
1558,E-5,304.5,0.25,72,114.75
1559,G#3,304.5,0.25,49,114.75
1560,E5,304.75,0.25,59,114.75
1561,A3,304.75,0.25,40,114.75
1562,F#5,305.0,0.25,72,114.75
1563,B3,305.0,0.25,48,114.75
1564,E5,305.25,0.25,60,114.75
1565,A3,305.25,0.25,40,114.75
1566,G5,305.5,0.25,76,114.75
1567,C4,305.5,0.25,49,114.75
1568,E5,305.75,0.25,68,114.75
1569,A3,305.75,0.25,44,114.75
1570,D5,306.0,0.25,78,114.75
1571,E3,306.0,2.0,40,114.75
1572,A3,306.0,1.0,44,114.75
1573,B5,306.25,0.25,72,114.75
1574,B-5,306.5,0.25,80,114.75
1575,B5,306.75,0.25,76,114.75
1576,C#6,307.0,0.25,84,114.75
1577,G3,307.0,1.0,40,114.75
1578,B5,307.25,0.25,78,114.75
1579,D6,307.5,0.25,94,114.75
1580,B5,307.75,0.25,86,114.75
1581,B-5,308.0,0.25,88,114.75
1582,C#6,308.25,0.25,72,114.75
1583,C#4,308.25,0.25,46,114.75
1584,F#5,308.5,0.25,78,114.75
1585,B3,308.5,0.25,56,114.75
1586,B-5,308.75,0.25,64,114.75
1587,C#4,308.75,0.25,46,114.75
1588,C#5,309.0,0.25,72,114.75
1589,D4,309.0,0.25,55,114.75
1590,F#5,309.25,0.25,55,114.75
1591,C#4,309.25,0.25,46,114.75
1592,B-4,309.5,0.25,62,114.75
1593,E4,309.5,0.25,56,114.75
1594,C#5,309.75,0.25,50,114.75
1595,B3,309.75,0.25,50,114.75
1596,F#4,310.0,1.0,62,114.75
1597,B-3,310.0,2.0,49,114.75
1598,F#4,310.0,2.0,58,114.75
1599,F#4,311.5,0.5,53,114.75
1600,B4,312.0,0.25,60,114.75
1601,B3,312.0,1.0,54,114.75
1602,F#4,312.0,1.0,58,114.75
1603,B-4,312.25,0.188,52,114.75
1604,C#5,312.5,0.25,60,114.75
1605,B4,312.75,0.188,54,114.75
1606,D5,313.0,0.25,60,114.75
1607,F4,313.0,1.0,52,114.75
1608,G3,313.0,1.0,52,114.75
1609,C#5,313.25,0.188,54,114.75
1610,E5,313.5,0.25,60,114.75
1611,D5,313.75,0.188,49,114.75
1612,D5,314.0,1.0,52,114.75
1613,B4,314.0,1.0,52,114.75
1614,F#4,314.0,1.0,50,114.75
1615,F#3,314.0,1.0,50,114.75
1616,C#5,315.0,0.375,46,114.75
1617,B-4,315.0,0.375,46,114.75
1618,F#4,315.5,0.5,53,114.75
1619,C#5,316.0,0.25,60,114.75
1620,F#2,316.0,1.0,44,114.75
1621,B4,316.25,0.188,52,114.75
1622,D5,316.5,0.25,60,114.75
1623,C#5,316.75,0.188,54,114.75
1624,E5,317.0,0.25,60,114.75
1625,D5,317.25,0.188,54,114.75
1626,F#5,317.5,0.25,60,114.75
1627,E5,317.75,0.188,49,114.75
1628,E5,318.0,1.0,52,114.75
1629,C#5,318.0,1.0,52,114.75
1630,D5,319.0,0.375,46,114.75
1631,B4,319.0,0.375,46,114.75
1632,B4,319.5,0.5,53,114.75
1633,E5,320.0,0.25,60,114.75
1634,E-5,320.25,0.188,52,114.75
1635,F#5,320.5,0.25,60,114.75
1636,F3,320.5,0.5,43,114.75
1637,E5,320.75,0.188,54,114.75
1638,G5,321.0,0.25,60,114.75
1639,F#3,321.0,0.375,48,114.75
1640,F#5,321.25,0.188,54,114.75
1641,A5,321.5,0.25,64,114.75
1642,G5,321.75,0.188,58,114.75
1643,B5,322.0,0.25,68,114.75
1644,A5,322.25,0.25,65,114.75
1645,G5,322.5,0.25,64,114.75
1646,F#5,322.75,0.25,63,114.75
1647,E5,323.0,0.25,61,114.75
1648,D5,323.25,0.25,59,114.75
1649,C#5,323.5,0.25,58,114.75
1650,B4,323.75,0.25,55,114.75
1651,C#5,324.0,0.25,60,114.75
1652,B4,324.25,0.188,52,114.75
1653,D5,324.5,0.25,60,114.75
1654,B-3,324.5,0.5,43,114.75
1655,C#5,324.75,0.188,54,114.75
1656,E5,325.0,0.25,60,114.75
1657,B3,325.0,0.375,48,114.75
1658,D5,325.25,0.188,54,114.75
1659,F#5,325.5,0.25,64,114.75
1660,E5,325.75,0.188,58,114.75
1661,G5,326.0,0.25,68,114.75
1662,F#5,326.25,0.25,65,114.75
1663,E5,326.5,0.25,64,114.75
1664,B3,326.5,0.25,48,114.75
1665,D5,326.75,0.25,63,114.75
1666,C#5,327.0,0.25,61,114.75
1667,E4,327.0,0.25,51,114.75
1668,B4,327.25,0.25,59,114.75
1669,A4,327.5,0.25,58,114.75
1670,F#4,327.5,0.25,48,114.75
1671,G4,327.75,0.25,55,114.75
1672,F#4,328.0,0.25,60,114.75
1673,G4,328.0,1.0,56,114.75
1674,E4,328.25,0.188,52,114.75
1675,G4,328.5,0.25,60,114.75
1676,F#4,328.75,0.188,54,114.75
1677,A4,329.0,0.25,60,114.75
1678,G4,329.25,0.188,54,114.75
1679,B4,329.5,0.25,64,114.75
1680,E3,329.5,0.25,48,114.75
1681,A4,329.75,0.188,58,114.75
1682,C5,330.0,0.25,68,114.75
1683,A3,330.0,0.25,51,114.75
1684,B4,330.25,0.25,65,114.75
1685,A4,330.5,0.25,64,114.75
1686,B3,330.5,0.25,48,114.75
1687,G4,330.75,0.25,63,114.75
1688,F#4,331.0,0.25,61,114.75
1689,C#4,331.0,0.25,51,114.75
1690,E4,331.25,0.25,59,114.75
1691,D4,331.5,0.25,58,114.75
1692,D4,331.5,0.25,48,114.75
1693,C4,331.75,0.25,55,114.75
1694,B3,332.0,0.25,68,114.75
1695,E4,332.0,1.0,56,114.75
1696,B4,332.25,0.25,62,114.75
1697,B-4,332.5,0.25,68,114.75
1698,B4,332.75,0.25,62,114.75
1699,A4,333.0,0.25,68,114.75
1700,G4,333.25,0.25,65,114.75
1701,F#4,333.5,0.25,65,114.75
1702,A2,333.5,0.25,48,114.75
1703,E4,333.75,0.25,65,114.75
1704,E-4,334.0,0.25,68,114.75
1705,D3,334.0,0.25,51,114.75
1706,E4,334.25,0.25,61,114.75
1707,F#4,334.5,0.25,61,114.75
1708,E3,334.5,0.25,48,114.75
1709,E4,334.75,0.25,61,114.75
1710,G4,335.0,0.25,68,114.75
1711,F#3,335.0,0.25,51,114.75
1712,F#4,335.25,0.25,66,114.75
1713,E4,335.5,0.25,63,114.75
1714,G3,335.5,0.25,48,114.75
1715,D4,335.75,229/1000,62,114.75
1716,D4,336.0,2.0,68,114.75
1717,A3,336.0,1.0,56,114.75
1718,D3,337.5,0.5,48,114.75
1719,C#4,338.0,0.25,64,114.75
1720,G3,338.0,1.0,56,114.75
1721,A3,338.25,0.25,55,114.75
1722,E4,338.5,0.25,64,114.75
1723,C#4,338.75,0.25,59,114.75
1724,G4,339.0,0.25,66,114.75
1725,E4,339.25,0.25,59,114.75
1726,C#5,339.5,0.25,66,114.75
1727,G4,339.75,0.25,59,114.75
1728,E5,340.0,0.25,69,114.75
1729,G2,340.0,1.0,56,114.75
1730,C#5,340.25,0.25,62,114.75
1731,G5,340.5,0.25,70,114.75
1732,E5,340.75,0.25,64,114.75
1733,B5,341.0,0.5,74,114.75
1734,A2,342.0,0.25,62,114.75
1735,B2,342.25,0.25,54,114.75
1736,C#3,342.5,0.25,54,114.75
1737,D3,342.75,0.25,55,114.75
1738,E3,343.0,0.25,57,114.75
1739,B-5,343.25,0.25,47,114.75
1740,F#3,343.25,0.25,55,114.75
1741,B5,343.5,0.25,50,114.75
1742,G3,343.5,0.25,55,114.75
1743,B-5,343.75,0.25,47,114.75
1744,F#3,343.75,0.25,55,114.75
1745,B5,344.0,0.25,51,114.75
1746,G3,344.0,1.0,63,114.75
1747,B-5,345.25,0.25,47,114.75
1748,B5,345.5,0.25,50,114.75
1749,B-5,345.75,0.25,47,114.75
1750,B5,346.0,0.25,51,114.75
1751,B-5,347.25,0.25,59,114.75
1752,B5,347.5,0.25,63,114.75
1753,B-5,347.75,0.25,59,114.75
1754,B5,348.0,0.25,66,114.75
1755,C#6,348.25,0.25,70,114.75
1756,D6,348.5,0.25,71,114.75
1757,C#6,348.75,0.25,69,114.75
1758,B5,349.0,0.25,70,114.75
1759,A5,349.25,0.25,68,114.75
1760,G5,349.5,0.25,66,114.75
1761,F#5,349.75,0.25,66,114.75
1762,G5,350.0,0.25,69,114.75
1763,A5,350.25,0.25,72,114.75
1764,B5,350.5,0.25,75,114.75
1765,A5,350.75,0.25,71,114.75
1766,G5,351.0,0.25,70,114.75
1767,F#5,351.25,0.25,68,114.75
1768,E5,351.5,0.25,66,114.75
1769,E-5,351.75,0.25,65,114.75
1770,E5,352.0,0.25,69,114.75
1771,F#5,352.25,0.25,72,114.75
1772,G5,352.5,0.25,75,114.75
1773,F#5,352.75,0.25,71,114.75
1774,E5,353.0,0.25,70,114.75
1775,D5,353.25,0.25,68,114.75
1776,C#5,353.5,0.25,66,114.75
1777,B4,353.75,0.25,58,114.75
1778,A4,354.0,0.25,64,114.75
1779,B4,354.25,0.25,51,114.75
1780,G#4,354.5,0.25,57,114.75
1781,B4,354.75,0.25,48,114.75
1782,A4,355.0,0.25,57,114.75
1783,B4,355.25,0.25,49,114.75
1784,G#4,355.5,0.25,56,114.75
1785,B4,355.75,0.25,49,114.75
1786,A4,356.0,0.25,66,114.75
1787,B4,356.0,0.25,58,114.75
1788,B4,356.25,0.25,56,114.75
1789,C#5,356.25,0.25,61,114.75
1790,G#4,356.5,0.25,62,114.75
1791,D5,356.5,0.25,62,114.75
1792,B4,356.75,0.25,54,114.75
1793,C#5,356.75,0.25,58,114.75
1794,A4,357.0,0.25,63,114.75
1795,B4,357.0,0.25,56,114.75
1796,B4,357.25,0.25,56,114.75
1797,A4,357.25,0.25,55,114.75
1798,F#4,357.5,0.25,63,114.75
1799,G4,357.5,0.25,56,114.75
1800,A4,357.75,0.25,56,114.75
1801,F#4,357.75,0.25,53,114.75
1802,G4,358.0,0.25,64,114.75
1803,G4,358.0,0.25,58,114.75
1804,A4,358.25,0.25,50,114.75
1805,A4,358.25,0.25,61,114.75
1806,F#4,358.5,0.25,57,114.75
1807,B4,358.5,0.25,62,114.75
1808,A4,358.75,0.25,50,114.75
1809,A4,358.75,0.25,58,114.75
1810,G4,359.0,0.25,56,114.75
1811,G4,359.0,0.25,56,114.75
1812,A4,359.25,0.25,50,114.75
1813,F#4,359.25,0.25,55,114.75
1814,F#4,359.5,0.25,57,114.75
1815,E4,359.5,0.25,56,114.75
1816,A4,359.75,0.25,49,114.75
1817,D4,359.75,0.25,53,114.75
1818,G4,360.0,0.25,66,114.75
1819,C#4,360.0,1.5,56,114.75
1820,A4,360.25,0.25,56,114.75
1821,F#4,360.5,0.25,62,114.75
1822,A4,360.75,0.25,49,114.75
1823,G4,361.0,0.25,58,114.75
1824,A4,361.25,0.25,48,114.75
1825,F#4,361.5,0.25,57,114.75
1826,D4,361.5,0.25,50,114.75
1827,A4,361.75,0.25,50,114.75
1828,G4,362.0,0.75,59,114.75
1829,C#4,362.0,0.25,56,114.75
1830,D4,362.5,0.25,51,114.75
1831,F#4,362.75,0.25,47,114.75
1832,G4,363.0,0.75,49,114.75
1833,C#4,363.0,0.25,56,114.75
1834,E-4,363.5,0.25,52,114.75
1835,F#4,363.75,0.25,41,114.75
1836,G4,364.0,0.75,46,114.75
1837,A3,364.0,2.0,48,114.75
1838,E4,364.0,1.5,56,114.75
1839,F#4,364.75,11/40,36,114.75
1840,G4,365.0,11/40,40,114.75
1841,F#4,365.25,11/40,35,114.75
1842,G4,365.5,11/40,37,114.75
1843,E-4,365.5,0.25,50,114.75
1844,F#4,365.75,0.25,33,114.75
1845,G4,366.0,1.0,35,114.75
1846,F#4,366.0,1/40,33,114.75
1847,E4,366.0,0.25,56,114.75
1848,A3,366.0,2.0,48,114.75
1849,E-4,366.5,0.25,51,114.75
1850,E4,367.0,0.25,56,114.75
1851,E-4,367.5,0.25,52,114.75
1852,A3,368.0,2.0,43,114.75
1853,E4,368.0,0.75,50,114.75
1854,A4,368.5,0.125,35,114.75
1855,C#5,368.625,0.125,38,114.75
1856,E5,368.75,0.125,40,114.75
1857,E-4,368.75,0.25,39,114.75
1858,G5,368.875,0.125,45,114.75
1859,E4,369.0,0.75,41,114.75
1860,A3,369.5,0.125,83,114.75
1861,D4,369.625,0.125,66,114.75
1862,F#4,369.75,0.125,66,114.75
1863,E-4,369.75,0.25,35,114.75
1864,A4,369.875,0.125,66,114.75
1865,F#4,370.0,0.5,86,114.75
1866,E4,370.0,0.75,39,114.75
1867,A3,370.0,3.0,43,114.75
1868,D4,370.5,0.5,77,114.75
1869,E-4,370.75,11/40,31,114.75
1870,D5,371.0,0.125,56,114.75
1871,E4,371.0,11/40,34,114.75
1872,E-4,371.25,11/40,30,114.75
1873,A4,371.5,0.125,52,114.75
1874,E4,371.5,11/40,32,114.75
1875,E-4,371.75,0.25,28,114.75
1876,B4,372.0,0.125,55,114.75
1877,C#5,372.125,0.125,49,114.75
1878,B4,372.25,0.25,60,114.75
1879,A4,372.5,0.5,56,114.75
1880,E4,373.0,1.0,30,114.75
1881,E-4,373.0,1/40,28,114.75
1882,A3,373.5,0.125,83,114.75
1883,D4,373.625,0.125,66,114.75
1884,F#4,373.75,0.125,66,114.75
1885,A4,373.875,0.125,66,114.75
1886,F#4,374.0,0.5,86,114.75
1887,D4,374.5,0.5,77,114.75
1888,A3,375.0,0.125,32,114.75
1889,F#5,375.0,0.125,60,114.75
1890,A5,375.0,0.125,60,114.75
1891,C#4,375.125,0.125,34,114.75
1892,E4,375.25,0.125,37,114.75
1893,G4,375.375,0.125,38,114.75
1894,D5,375.5,0.125,56,114.75
1895,F#5,375.5,0.125,56,114.75
1896,E5,376.0,0.5,46,114.75
1897,G5,376.0,0.125,55,114.75
1898,A5,376.125,0.125,49,114.75
1899,G5,376.25,0.25,60,114.75
1900,D5,376.5,0.5,52,114.75
1901,F#5,376.5,0.5,52,114.75
1902,D3,377.0,1.0,69,114.75
1903,D2,377.0,1.0,69,114.75
1904,D5,377.5,0.125,60,114.75
1905,F#5,377.625,0.125,51,114.75
1906,A5,377.75,0.125,52,114.75
1907,D6,377.875,0.125,52,114.75
1908,C5,378.0,1.5,67,114.75
1909,F#4,378.5,0.125,39,114.75
1910,D4,378.5,0.125,39,114.75
1911,G4,379.0,0.5,44,114.75
1912,D4,379.0,0.5,44,114.75
1913,C6,379.5,0.125,60,114.75
1914,F#4,379.5,0.5,37,114.75
1915,D4,379.5,0.5,37,114.75
1916,A5,379.625,0.125,51,114.75
1917,F#5,379.75,0.125,52,114.75
1918,C5,379.875,0.125,52,114.75
1919,B4,380.0,1.5,67,114.75
1920,D3,381.0,1.0,69,114.75
1921,D2,381.0,1.0,69,114.75
1922,B4,381.5,0.125,60,114.75
1923,D5,381.625,0.125,51,114.75
1924,G5,381.75,0.125,52,114.75
1925,B5,381.875,0.125,52,114.75
1926,F#5,382.0,0.125,59,114.75
1927,A5,382.0,0.125,59,114.75
1928,D4,382.5,0.125,42,114.75
1929,D5,382.5,0.125,48,114.75
1930,F#5,382.5,0.125,48,114.75
1931,A3,383.0,0.5,48,114.75
1932,G5,383.0,0.125,54,114.75
1933,E5,383.0,0.125,54,114.75
1934,D4,383.5,0.5,40,114.75
1935,C#5,383.5,0.125,44,114.75
1936,E5,383.5,0.125,44,114.75
1937,E5,384.0,1.0,46,114.75
1938,C#5,384.0,1.0,46,114.75
1939,F#5,385.0,0.5,36,114.75
1940,D5,385.0,0.5,36,114.75
1941,D5,385.5,0.125,60,114.75
1942,D4,385.5,0.125,40,114.75
1943,F#3,385.5,0.125,40,114.75
1944,F#5,385.625,0.125,51,114.75
1945,A5,385.75,0.125,52,114.75
1946,D6,385.875,0.125,52,114.75
1947,C5,386.0,1.5,67,114.75
1948,D4,386.0,0.125,45,114.75
1949,F#3,386.0,0.125,45,114.75
1950,C6,387.5,0.125,60,114.75
1951,D4,387.5,0.125,40,114.75
1952,G3,387.5,0.125,40,114.75
1953,A5,387.625,0.125,51,114.75
1954,F#5,387.75,0.125,52,114.75
1955,C5,387.875,0.125,52,114.75
1956,B4,388.0,1.5,67,114.75
1957,D4,388.0,0.125,45,114.75
1958,G3,388.0,0.125,45,114.75
1959,A3,389.0,1.0,46,114.75
1960,B5,389.5,167/1000,60,114.75
1961,C#6,389.667,167/1000,56,114.75
1962,D6,389.833,167/1000,56,114.75
1963,C#6,390.0,167/1000,60,114.75
1964,A2,390.0,1.0,40,114.75
1965,B5,390.167,167/1000,55,114.75
1966,A5,390.333,167/1000,51,114.75
1967,G5,390.5,167/1000,59,114.75
1968,F#5,390.667,167/1000,51,114.75
1969,E5,390.833,167/1000,51,114.75
1970,D5,391.0,167/1000,55,114.75
1971,D3,391.0,1.0,36,114.75
1972,C#5,391.167,167/1000,49,114.75
1973,B4,391.333,167/1000,49,114.75
1974,A4,391.5,0.125,52,114.75
1975,G4,391.625,0.125,49,114.75
1976,F#4,391.75,0.125,49,114.75
1977,E4,391.875,0.125,48,114.75
1978,D4,392.0,1.0,60,114.75
1979,D2,392.0,0.5,32,114.75
1980,A3,393.5,0.5,53,114.75
1981,D4,393.5,0.125,40,114.75
1982,F#3,393.5,0.125,40,114.75
1983,D4,394.0,0.25,60,114.75
1984,D4,394.0,0.125,45,114.75
1985,F#3,394.0,0.125,45,114.75
1986,C#4,394.25,0.188,52,114.75
1987,E4,394.5,0.25,60,114.75
1988,D4,394.75,0.188,54,114.75
1989,F#4,395.0,0.25,60,114.75
1990,E4,395.25,0.188,54,114.75
1991,G4,395.5,0.25,60,114.75
1992,D4,395.5,0.125,40,114.75
1993,G3,395.5,0.125,40,114.75
1994,F#4,395.75,0.188,49,114.75
1995,F#4,396.0,1.0,52,114.75
1996,D4,396.0,1.0,52,114.75
1997,D4,396.0,0.125,45,114.75
1998,G3,396.0,0.125,45,114.75
1999,A3,397.0,0.5,48,114.75
2000,E4,397.0,0.375,46,114.75
2001,C#4,397.0,0.375,46,114.75
2002,A3,397.5,0.5,53,114.75
2003,E4,398.0,0.25,60,114.75
2004,A2,398.0,0.5,39,114.75
2005,E-4,398.25,0.188,52,114.75
2006,F#4,398.5,0.25,60,114.75
2007,E4,398.75,0.188,54,114.75
2008,G4,399.0,0.25,60,114.75
2009,D2,399.0,1.0,48,114.75
2010,F#4,399.25,0.188,54,114.75
2011,A4,399.5,0.25,60,114.75
2012,G4,399.75,0.188,49,114.75
2013,G4,400.0,1.0,52,114.75
2014,E4,400.0,1.0,52,114.75
2015,F#4,401.0,0.375,46,114.75
2016,D4,401.0,0.375,46,114.75
2017,D4,401.5,0.5,58,114.75
2018,G4,402.0,0.25,66,114.75
2019,F#4,402.25,0.188,57,114.75
2020,A4,402.5,0.25,66,114.75
2021,G4,402.75,0.188,59,114.75
2022,B4,403.0,0.25,66,114.75
2023,A4,403.25,0.188,59,114.75
2024,D5,403.5,0.25,66,114.75
2025,G#3,403.5,0.5,43,114.75
2026,C#5,403.75,0.188,53,114.75
2027,B4,404.0,0.25,62,114.75
2028,A3,404.0,0.375,48,114.75
2029,B4,404.5,0.25,62,114.75
2030,D5,404.75,0.25,57,114.75
2031,A4,405.0,0.25,62,114.75
2032,G4,406.0,0.062,55,114.75
2033,F#4,406.062,0.062,48,114.75
2034,G4,406.125,0.125,62,114.75
2035,G4,406.5,0.25,62,114.75
2036,B4,406.75,0.25,57,114.75
2037,F#4,407.0,0.25,62,114.75
2038,B-3,407.5,0.5,43,114.75
2039,B4,408.0,0.062,60,114.75
2040,B3,408.0,0.375,48,114.75
2041,A4,408.062,0.062,52,114.75
2042,B4,408.125,0.125,68,114.75
2043,B4,408.5,0.25,68,114.75
2044,D5,408.75,0.25,62,114.75
2045,A4,409.0,0.25,68,114.75
2046,G4,410.0,0.062,55,114.75
2047,F#4,410.062,0.062,48,114.75
2048,G4,410.125,0.125,62,114.75
2049,G4,410.5,0.25,62,114.75
2050,B4,410.75,0.25,57,114.75
2051,F#4,411.0,0.25,62,114.75
2052,G3,411.0,0.25,52,114.75
2053,D4,411.25,0.25,45,114.75
2054,G3,411.5,0.25,54,114.75
2055,D4,411.75,0.25,39,114.75
2056,E-4,412.0,0.25,55,114.75
2057,F#3,412.0,0.25,49,114.75
2058,E4,412.25,0.25,55,114.75
2059,D4,412.25,0.25,38,114.75
2060,F#4,412.5,0.25,58,114.75
2061,F#3,412.5,0.25,49,114.75
2062,G4,412.75,0.25,58,114.75
2063,D4,412.75,0.25,43,114.75
2064,A4,413.0,0.25,62,114.75
2065,B3,413.0,0.25,52,114.75
2066,B4,413.25,0.25,55,114.75
2067,D4,413.25,0.25,45,114.75
2068,G4,413.5,0.25,61,114.75
2069,B3,413.5,0.25,54,114.75
2070,E4,413.75,0.25,51,114.75
2071,D4,413.75,0.25,39,114.75
2072,D4,414.0,2.0,57,114.75
2073,A3,414.0,0.25,49,114.75
2074,D4,414.25,0.25,38,114.75
2075,A3,414.5,0.25,49,114.75
2076,D4,414.75,0.25,43,114.75
2077,G3,415.0,0.25,52,114.75
2078,D4,415.25,0.25,45,114.75
2079,G3,415.5,0.25,54,114.75
2080,D4,415.75,0.25,39,114.75
2081,C#4,416.0,0.5,50,114.75
2082,F#3,416.0,0.25,49,114.75
2083,D4,416.25,0.25,38,114.75
2084,F#3,416.5,0.25,49,114.75
2085,D4,416.75,0.25,43,114.75
2086,B3,417.0,0.25,52,114.75
2087,D4,417.25,0.25,45,114.75
2088,A3,417.5,0.125,74,114.75
2089,B3,417.5,0.25,54,114.75
2090,C#4,417.625,0.125,59,114.75
2091,E4,417.75,0.125,59,114.75
2092,D4,417.75,0.25,39,114.75
2093,G4,417.875,0.125,59,114.75
2094,E4,418.0,0.5,77,114.75
2095,A3,418.0,0.25,49,114.75
2096,D4,418.25,0.25,38,114.75
2097,E4,418.5,0.125,79,114.75
2098,A3,418.5,0.25,49,114.75
2099,G4,418.625,0.125,70,114.75
2100,C#5,418.75,0.125,70,114.75
2101,D4,418.75,0.25,43,114.75
2102,E5,418.875,0.125,70,114.75
2103,C#5,419.0,0.5,84,114.75
2104,G3,419.0,1.0,52,114.75
2105,G4,419.5,0.125,87,114.75
2106,C#5,419.625,0.125,78,114.75
2107,E5,419.75,0.125,76,114.75
2108,G5,419.875,0.125,78,114.75
2109,E5,420.0,0.5,96,114.75
2110,G3,420.5,0.5,37,114.75
2111,G2,420.5,0.5,37,114.75
2112,F#3,421.0,2.0,48,114.75
2113,A2,421.0,2.0,40,114.75
2114,G4,421.5,0.125,61,114.75
2115,E4,421.625,0.125,50,114.75
2116,C#4,421.75,0.125,50,114.75
2117,A3,421.875,0.125,50,114.75
2118,G3,422.0,2.0,62,114.75
2119,E3,423.0,0.5,45,114.75
2120,A2,423.0,0.5,40,114.75
2121,F#3,424.0,0.25,61,114.75
2122,D4,424.25,0.25,55,114.75
2123,C#4,424.5,0.25,49,114.75
2124,D4,424.75,0.25,54,114.75
2125,E4,425.0,0.25,59,114.75
2126,A2,425.0,0.5,59,114.75
2127,C#3,425.0,0.5,59,114.75
2128,G3,425.0,0.5,59,114.75
2129,E3,425.0,0.5,59,114.75
2130,D4,425.25,0.25,55,114.75
2131,C#4,425.5,0.25,47,114.75
2132,D4,425.75,0.25,56,114.75
2133,C4,426.0,2.0,62,114.75
2134,A2,426.0,0.5,59,114.75
2135,C#3,426.0,0.5,59,114.75
2136,G3,426.0,0.5,59,114.75
2137,E3,426.0,0.5,59,114.75
2138,A2,427.0,0.5,59,114.75
2139,C#3,427.0,0.5,59,114.75
2140,G3,427.0,0.5,59,114.75
2141,E3,427.0,0.5,59,114.75
2142,B3,428.0,0.25,61,114.75
2143,E4,428.25,0.25,55,114.75
2144,E-4,428.5,0.25,49,114.75
2145,E4,428.75,0.25,54,114.75
2146,F#4,429.0,0.25,59,114.75
2147,A2,429.0,0.25,46,114.75
2148,E4,429.25,0.25,55,114.75
2149,E3,429.25,0.25,38,114.75
2150,E-4,429.5,0.25,47,114.75
2151,D3,429.5,0.25,46,114.75
2152,E4,429.75,0.25,56,114.75
2153,E3,429.75,0.25,39,114.75
2154,D4,430.0,2.0,62,114.75
2155,C#3,430.0,0.25,47,114.75
2156,E3,430.25,0.25,38,114.75
2157,A2,430.5,0.25,49,114.75
2158,C#3,430.75,0.25,41,114.75
2159,D3,431.0,1.0,46,114.75
2160,C#4,432.0,0.25,61,114.75
2161,A4,432.25,0.25,55,114.75
2162,G#4,432.5,0.25,49,114.75
2163,A4,432.75,0.25,54,114.75
2164,B4,433.0,0.25,59,114.75
2165,D3,433.0,0.25,46,114.75
2166,A4,433.25,0.25,55,114.75
2167,A3,433.25,0.25,38,114.75
2168,G#4,433.5,0.25,47,114.75
2169,G3,433.5,0.25,46,114.75
2170,A4,433.75,0.25,56,114.75
2171,A3,433.75,0.25,39,114.75
2172,G#4,434.0,0.5,62,114.75
2173,F#3,434.0,0.25,47,114.75
2174,A3,434.25,0.25,38,114.75
2175,D5,434.5,0.25,57,114.75
2176,D3,434.5,0.25,49,114.75
2177,F#3,434.75,0.25,41,114.75
2178,G3,435.0,1.0,46,114.75
2179,G#4,435.5,0.5,62,114.75
2180,A4,436.0,0.25,62,114.75
2181,A4,436.5,0.25,62,114.75
2182,E5,436.75,0.25,57,114.75
2183,A4,437.0,0.375,62,114.75
2184,E3,437.0,0.25,46,114.75
2185,B3,437.25,0.25,38,114.75
2186,A4,437.5,0.5,57,114.75
2187,A3,437.5,0.25,46,114.75
2188,B3,437.75,0.25,39,114.75
2189,G#4,438.0,0.5,62,114.75
2190,G#3,438.0,0.25,47,114.75
2191,B3,438.25,0.25,38,114.75
2192,D5,438.5,0.25,57,114.75
2193,E3,438.5,0.25,49,114.75
2194,G#3,438.75,0.25,41,114.75
2195,A3,439.0,1.0,46,114.75
2196,G#4,439.5,0.5,62,114.75
2197,A4,440.0,0.25,62,114.75
2198,A4,440.5,0.25,62,114.75
2199,E5,440.75,0.25,57,114.75
2200,A4,441.0,0.375,62,114.75
2201,B3,441.0,0.25,52,114.75
2202,F4,441.25,0.25,45,114.75
2203,G4,441.5,0.062,47,114.75
2204,B3,441.5,0.25,54,114.75
2205,A4,441.562,0.062,44,114.75
2206,G4,441.625,0.375,57,114.75
2207,F4,441.75,0.25,35,114.75
2208,F#4,442.0,6/25,62,114.75
2209,B3,442.0,0.25,45,114.75
2210,F4,442.25,0.25,38,114.75
2211,A5,442.5,0.25,64,114.75
2212,B3,442.5,0.25,46,114.75
2213,F4,442.75,0.25,40,114.75
2214,C#4,443.0,0.25,52,114.75
2215,E4,443.25,0.25,45,114.75
2216,D5,443.5,0.5,62,114.75
2217,C#4,443.5,0.25,54,114.75
2218,E4,443.75,0.25,39,114.75
2219,C#5,444.0,0.25,62,114.75
2220,C#4,444.0,0.25,49,114.75
2221,E4,444.25,0.25,38,114.75
2222,C#5,444.5,0.25,62,114.75
2223,C#4,444.5,0.25,49,114.75
2224,A5,444.75,0.25,57,114.75
2225,E4,444.75,0.25,43,114.75
2226,C#5,445.0,0.375,62,114.75
2227,B3,445.0,0.25,52,114.75
2228,F4,445.25,0.25,45,114.75
2229,C#5,445.5,0.5,57,114.75
2230,B3,445.5,0.25,54,114.75
2231,F4,445.75,0.25,37,114.75
2232,D5,446.0,0.25,62,114.75
2233,B3,446.0,0.25,47,114.75
2234,F4,446.25,0.25,37,114.75
2235,D5,446.5,0.25,62,114.75
2236,B3,446.5,0.25,46,114.75
2237,A5,446.75,0.25,57,114.75
2238,F4,446.75,0.25,39,114.75
2239,D5,447.0,0.375,62,114.75
2240,C#4,447.0,0.25,52,114.75
2241,E4,447.25,0.25,45,114.75
2242,D5,447.5,0.5,57,114.75
2243,C#4,447.5,0.25,54,114.75
2244,E4,447.75,0.25,39,114.75
2245,E5,448.0,0.25,62,114.75
2246,C#4,448.0,0.25,49,114.75
2247,E4,448.25,0.25,38,114.75
2248,E5,448.5,0.25,62,114.75
2249,C#4,448.5,0.25,49,114.75
2250,A5,448.75,0.25,57,114.75
2251,E4,448.75,0.25,43,114.75
2252,E5,449.0,0.375,62,114.75
2253,D4,449.0,0.25,52,114.75
2254,F#4,449.25,0.25,45,114.75
2255,G5,449.5,0.5,57,114.75
2256,D4,449.5,0.25,54,114.75
2257,F#4,449.75,0.25,39,114.75
2258,F#5,450.0,0.25,64,114.75
2259,D4,450.0,0.25,49,114.75
2260,G5,450.25,0.25,57,114.75
2261,F#4,450.25,0.25,38,114.75
2262,A5,450.5,0.25,57,114.75
2263,D4,450.5,0.25,49,114.75
2264,F#5,450.75,0.25,57,114.75
2265,F#4,450.75,0.25,43,114.75
2266,E5,451.0,0.25,62,114.75
2267,E4,451.0,0.25,52,114.75
2268,D5,451.25,0.25,57,114.75
2269,G4,451.25,0.25,45,114.75
2270,C#5,451.5,0.25,57,114.75
2271,E4,451.5,0.25,54,114.75
2272,B4,451.75,0.25,57,114.75
2273,G4,451.75,0.25,39,114.75
2274,A4,452.0,0.25,64,114.75
2275,E4,452.0,0.25,49,114.75
2276,G#4,452.25,0.25,53,114.75
2277,G4,452.25,0.25,38,114.75
2278,A4,452.5,0.25,57,114.75
2279,E4,452.5,0.25,49,114.75
2280,B4,452.75,0.25,53,114.75
2281,G4,452.75,0.25,43,114.75
2282,A4,453.0,0.25,57,114.75
2283,F#4,453.0,0.25,52,114.75
2284,G4,453.25,0.25,51,114.75
2285,A4,453.25,0.25,45,114.75
2286,F#4,453.5,0.25,51,114.75
2287,F#4,453.5,0.25,54,114.75
2288,E4,453.75,0.25,51,114.75
2289,A4,453.75,0.25,39,114.75
2290,F#4,454.0,0.25,56,114.75
2291,F#4,454.0,0.25,49,114.75
2292,G4,454.25,0.25,47,114.75
2293,A4,454.25,0.25,38,114.75
2294,A4,454.5,0.25,47,114.75
2295,F#4,454.5,0.25,49,114.75
2296,F#4,454.75,0.25,47,114.75
2297,A4,454.75,0.25,43,114.75
2298,E4,455.0,0.25,55,114.75
2299,C#4,455.0,0.25,52,114.75
2300,D4,455.25,0.25,51,114.75
2301,A4,455.25,0.25,45,114.75
2302,C#4,455.5,0.25,51,114.75
2303,C#4,455.5,0.25,54,114.75
2304,B3,455.75,0.25,51,114.75
2305,A4,455.75,0.25,39,114.75
2306,C#4,456.0,0.25,49,114.75
2307,A4,456.25,0.25,38,114.75
2308,C#4,456.5,0.25,49,114.75
2309,A4,456.75,0.25,43,114.75
2310,D4,457.0,1.0,52,114.75
2311,F#5,458.0,0.25,64,114.75
2312,G5,458.25,0.25,57,114.75
2313,A5,458.5,0.25,57,114.75
2314,F#5,458.75,0.25,57,114.75
2315,E5,459.0,0.25,62,114.75
2316,C#4,459.0,1.0,40,114.75
2317,E4,459.0,1.0,40,114.75
2318,D5,459.25,0.25,57,114.75
2319,C#5,459.5,0.25,57,114.75
2320,D5,459.75,0.25,57,114.75
2321,B5,460.0,0.25,64,114.75
2322,C#6,460.25,0.25,64,114.75
2323,D6,460.5,0.25,68,114.75
2324,B5,460.75,0.25,64,114.75
2325,A5,461.0,0.25,62,114.75
2326,D3,461.0,1.0,52,114.75
2327,G5,461.25,0.25,61,114.75
2328,F#5,461.5,0.25,58,114.75
2329,E5,461.75,0.25,58,114.75
2330,E-5,462.0,0.25,64,114.75
2331,E5,462.25,0.25,57,114.75
2332,F#5,462.5,0.25,57,114.75
2333,E5,462.75,0.25,57,114.75
2334,G5,463.0,0.25,62,114.75
2335,A3,463.0,0.25,54,114.75
2336,F#5,463.25,0.25,57,114.75
2337,G#3,463.25,0.25,50,114.75
2338,A5,463.5,0.25,61,114.75
2339,A3,463.5,0.25,50,114.75
2340,G5,463.75,0.25,57,114.75
2341,B3,463.75,0.25,50,114.75
2342,B5,464.0,0.5,63,114.75
2343,A3,464.0,0.25,55,114.75
2344,G3,464.25,0.25,49,114.75
2345,F#3,464.5,0.25,49,114.75
2346,E3,464.75,0.25,49,114.75
2347,A5,465.0,0.25,62,114.75
2348,D3,465.0,1.0,57,114.75
2349,G5,465.25,0.25,57,114.75
2350,F#5,465.5,0.25,62,114.75
2351,E5,465.75,0.25,57,114.75
2352,D5,466.0,1.0,62,114.75
2353,E5,467.0,0.125,62,114.75
2354,G4,467.0,1.0,57,114.75
2355,F#5,467.125,0.125,54,114.75
2356,E5,467.25,0.125,62,114.75
2357,F#5,467.375,0.125,55,114.75
2358,E5,467.5,167/1000,62,114.75
2359,F#5,467.667,167/1000,55,114.75
2360,E5,467.833,167/1000,62,114.75
2361,F#5,468.0,0.25,64,114.75
2362,G5,468.25,0.25,57,114.75
2363,A5,468.5,0.25,57,114.75
2364,F#5,468.75,0.25,57,114.75
2365,E5,469.0,0.25,62,114.75
2366,G3,469.0,1.0,57,114.75
2367,D5,469.25,0.25,57,114.75
2368,C#5,469.5,0.25,57,114.75
2369,D5,469.75,0.25,57,114.75
2370,B5,470.0,0.25,64,114.75
2371,C#6,470.25,0.25,64,114.75
2372,D6,470.5,0.25,68,114.75
2373,C#6,470.75,0.25,64,114.75
2374,B5,471.0,0.25,62,114.75
2375,A5,471.25,0.25,61,114.75
2376,G5,471.5,0.25,58,114.75
2377,F#5,471.75,0.25,58,114.75
2378,E5,472.0,0.25,64,114.75
2379,F#5,472.25,0.25,57,114.75
2380,G5,472.5,0.25,57,114.75
2381,E5,472.75,0.25,57,114.75
2382,D5,473.0,0.25,65,114.75
2383,C#5,473.25,0.25,57,114.75
2384,B4,473.5,0.25,59,114.75
2385,D4,473.5,1.0,39,114.75
2386,F#3,473.5,0.5,32,114.75
2387,C#5,473.75,0.25,57,114.75
2388,A5,474.0,0.25,64,114.75
2389,G3,474.0,0.5,39,114.75
2390,B5,474.25,0.25,64,114.75
2391,C#6,474.5,0.25,68,114.75
2392,A3,474.5,0.5,36,114.75
2393,C#4,474.5,0.5,36,114.75
2394,B5,474.75,0.25,64,114.75
2395,A5,475.0,0.25,62,114.75
2396,D4,475.0,0.5,57,114.75
2397,G5,475.25,0.25,61,114.75
2398,F#5,475.5,0.25,58,114.75
2399,E5,475.75,0.25,58,114.75
2400,D5,476.0,0.25,64,114.75
2401,F#4,476.0,0.5,39,114.75
2402,E5,476.25,0.25,57,114.75
2403,F#5,476.5,0.25,57,114.75
2404,D5,476.75,0.25,57,114.75
2405,C#5,477.0,0.25,62,114.75
2406,G4,477.0,0.25,54,114.75
2407,B4,477.25,0.25,57,114.75
2408,A4,477.25,0.25,54,114.75
2409,B-4,477.5,0.25,57,114.75
2410,B4,477.5,0.25,57,114.75
2411,B4,477.75,0.25,57,114.75
2412,A4,477.75,0.25,54,114.75
2413,G5,478.0,0.25,64,114.75
2414,G4,478.0,0.25,52,114.75
2415,A5,478.25,0.25,64,114.75
2416,F#4,478.25,0.25,51,114.75
2417,B5,478.5,0.25,68,114.75
2418,E4,478.5,0.25,49,114.75
2419,A5,478.75,0.25,64,114.75
2420,D4,478.75,0.25,49,114.75
2421,G5,479.0,0.25,62,114.75
2422,C#4,479.0,0.5,57,114.75
2423,F#5,479.25,0.25,58,114.75
2424,E5,479.5,0.25,63,114.75
2425,D5,479.75,0.25,58,114.75
2426,C#5,480.0,0.25,64,114.75
2427,E4,480.0,0.5,39,114.75
2428,D5,480.25,0.25,55,114.75
2429,E5,480.5,0.25,57,114.75
2430,D5,480.75,0.25,55,114.75
2431,C#5,481.0,0.25,62,114.75
2432,F#4,481.0,0.25,54,114.75
2433,B4,481.25,0.25,55,114.75
2434,G4,481.25,0.25,54,114.75
2435,A4,481.5,0.25,57,114.75
2436,A4,481.5,0.25,57,114.75
2437,G4,481.75,0.25,55,114.75
2438,G4,481.75,0.25,54,114.75
2439,F#4,482.0,0.25,64,114.75
2440,F#4,482.0,0.25,52,114.75
2441,G4,482.25,0.25,55,114.75
2442,E4,482.25,0.25,51,114.75
2443,A4,482.5,0.25,57,114.75
2444,D4,482.5,0.25,49,114.75
2445,F#4,482.75,0.25,55,114.75
2446,C#4,482.75,0.25,49,114.75
2447,E4,483.0,0.25,62,114.75
2448,B3,483.0,0.5,57,114.75
2449,D4,483.25,0.25,55,114.75
2450,C#4,483.5,0.25,57,114.75
2451,D4,483.75,0.25,54,114.75
2452,B4,484.0,0.25,64,114.75
2453,D4,484.0,0.5,39,114.75
2454,C#5,484.25,0.25,53,114.75
2455,D5,484.5,0.25,57,114.75
2456,B4,484.75,0.25,54,114.75
2457,A4,485.0,0.25,62,114.75
2458,E4,485.0,0.25,54,114.75
2459,G4,485.25,0.25,56,114.75
2460,F#4,485.25,0.25,54,114.75
2461,F#4,485.5,0.25,57,114.75
2462,G4,485.5,0.25,57,114.75
2463,E4,485.75,0.25,54,114.75
2464,F#4,485.75,0.25,54,114.75
2465,E-4,486.0,0.25,64,114.75
2466,E4,486.0,0.25,52,114.75
2467,E4,486.25,0.25,50,114.75
2468,D4,486.25,0.25,51,114.75
2469,F#4,486.5,0.25,57,114.75
2470,C#4,486.5,0.25,49,114.75
2471,E4,486.75,0.25,53,114.75
2472,B3,486.75,0.25,49,114.75
2473,G4,487.0,0.25,62,114.75
2474,A3,487.0,0.5,57,114.75
2475,F#4,487.25,0.25,57,114.75
2476,A4,487.5,0.25,61,114.75
2477,G4,487.75,0.25,57,114.75
2478,B4,488.0,0.5,63,114.75
2479,C#4,488.0,0.5,39,114.75
2480,G5,489.0,0.25,43,114.75
2481,D4,489.0,1.0,57,114.75
2482,F#5,489.25,0.25,39,114.75
2483,A5,489.5,0.25,42,114.75
2484,G5,489.75,0.25,39,114.75
2485,B5,490.0,0.5,44,114.75
2486,G3,491.0,0.25,33,114.75
2487,G3,491.0,1.0,57,114.75
2488,F#3,491.25,0.25,28,114.75
2489,A3,491.5,0.25,33,114.75
2490,G3,491.75,0.25,28,114.75
2491,B3,492.0,0.5,31,114.75
2492,G2,493.0,1.0,57,114.75
2493,E-4,493.375,0.125,64,114.75
2494,E-5,493.5,0.375,70,114.75
2495,E4,493.875,0.125,65,114.75
2496,E5,494.0,0.375,72,114.75
2497,F#4,494.375,0.125,68,114.75
2498,F#5,494.5,0.375,74,114.75
2499,G4,494.875,0.125,69,114.75
2500,G5,495.0,0.375,75,114.75
2501,B-4,495.375,0.125,71,114.75
2502,B-5,495.5,0.375,77,114.75
2503,B4,495.875,0.125,71,114.75
2504,B5,496.0,0.375,72,114.75
2505,C#5,496.375,0.125,68,114.75
2506,C#6,496.5,0.375,74,114.75
2507,D5,496.875,0.125,69,114.75
2508,D6,497.0,0.375,75,114.75
2509,G#4,497.375,0.125,71,114.75
2510,G#5,497.5,0.375,77,114.75
2511,A4,497.875,0.125,71,114.75
2512,A5,498.0,1.5,79,114.75
2513,G5,499.5,0.125,72,114.75
2514,F#5,499.625,0.125,72,114.75
2515,E5,499.75,0.125,72,114.75
2516,D5,499.875,0.125,72,114.75
2517,E5,500.0,0.125,69,114.75
2518,F#5,500.125,0.125,49,114.75
2519,E5,500.25,0.125,61,114.75
2520,F#5,500.375,0.125,55,114.75
2521,E5,500.5,0.125,64,114.75
2522,F#5,500.625,0.125,58,114.75
2523,E5,500.75,0.125,67,114.75
2524,F#5,500.875,0.125,62,114.75
2525,E5,501.0,0.125,70,114.75
2526,F#5,501.125,0.125,61,114.75
2527,E5,501.25,0.125,63,114.75
2528,F#5,501.375,0.125,55,114.75
2529,E5,501.5,0.125,66,114.75
2530,F#5,501.625,0.125,57,114.75
2531,E5,501.75,0.125,69,114.75
2532,F#5,501.875,0.125,59,114.75
2533,D5,502.0,1.0,69,114.75
2534,A4,503.5,0.5,69,114.75
2535,B4,504.0,0.125,64,114.75
2536,C#5,504.125,0.125,59,114.75
2537,B4,504.25,0.25,68,114.75
2538,A4,504.5,0.5,62,114.75
2539,B4,505.0,0.125,62,114.75
2540,D4,505.0,0.25,45,114.75
2541,A3,505.0,0.25,45,114.75
2542,F#4,505.0,0.25,45,114.75
2543,C#5,505.125,0.125,62,114.75
2544,B4,505.25,0.25,69,114.75
2545,A4,505.5,0.312,63,114.75
2546,A3,505.5,0.25,40,114.75
2547,D4,505.5,0.25,40,114.75
2548,F#4,505.5,0.25,40,114.75
2549,A4,505.812,0.188,64,114.75
2550,C#5,505.875,0.125,69,114.75
2551,E5,505.938,0.062,73,114.75
2552,G5,506.0,1.0,77,114.75
2553,A4,506.0,1.0,64,114.75
2554,C#5,506.0,1.0,69,114.75
2555,E5,506.0,1.0,73,114.75
2556,A3,506.0,0.25,40,114.75
2557,D4,506.0,0.25,40,114.75
2558,F#4,506.0,0.25,40,114.75
2559,A3,506.5,0.25,40,114.75
2560,D4,506.5,0.25,40,114.75
2561,F#4,506.5,0.25,40,114.75
2562,A3,507.0,0.25,50,114.75
2563,C#4,507.0,0.25,50,114.75
2564,F#5,507.5,0.5,69,114.75
2565,A3,507.5,0.25,45,114.75
2566,C#4,507.5,0.25,45,114.75
2567,E5,508.0,0.25,64,114.75
2568,A3,508.0,0.25,45,114.75
2569,C#4,508.0,0.25,45,114.75
2570,F#5,508.25,0.062,50,114.75
2571,E5,508.312,0.062,55,114.75
2572,E-5,508.375,0.062,58,114.75
2573,E5,508.438,0.062,60,114.75
2574,G5,508.5,0.5,62,114.75
2575,A3,508.5,0.25,45,114.75
2576,C#4,508.5,0.25,45,114.75
2577,A4,509.0,0.25,62,114.75
2578,D3,509.0,0.25,57,114.75
2579,B4,509.25,0.062,54,114.75
2580,D4,509.25,0.25,47,114.75
2581,A4,509.312,0.062,55,114.75
2582,G#4,509.375,0.062,59,114.75
2583,A4,509.438,0.062,59,114.75
2584,C#4,509.5,0.25,50,114.75
2585,C#5,509.5,0.5,62,114.75
2586,G4,509.5,0.5,62,114.75
2587,D4,509.75,0.25,47,114.75
2588,F#3,510.0,0.25,57,114.75
2589,F#4,510.0,1.0,64,114.75
2590,D5,510.0,1.0,64,114.75
2591,D4,510.25,0.25,48,114.75
2592,C#4,510.5,0.25,50,114.75
2593,D4,510.75,0.25,47,114.75
2594,G3,511.0,0.25,57,114.75
2595,D4,511.25,0.25,47,114.75
2596,A4,511.5,0.5,69,114.75
2597,F#3,511.5,0.25,50,114.75
2598,D4,511.75,0.25,47,114.75
2599,B4,512.0,0.125,64,114.75
2600,G3,512.0,0.25,57,114.75
2601,C#5,512.125,0.125,59,114.75
2602,B4,512.25,0.25,68,114.75
2603,D4,512.25,0.25,48,114.75
2604,A4,512.5,0.5,62,114.75
2605,F#3,512.5,0.25,50,114.75
2606,D4,512.75,0.25,47,114.75
2607,B4,513.0,0.125,62,114.75
2608,E3,513.0,1.0,52,114.75
2609,C#4,513.0,1.0,52,114.75
2610,C#5,513.125,0.125,62,114.75
2611,B4,513.25,0.25,69,114.75
2612,A4,513.5,0.312,63,114.75
2613,A4,513.812,0.188,64,114.75
2614,C#5,513.875,0.125,69,114.75
2615,E5,513.938,0.062,73,114.75
2616,G5,514.0,1.0,77,114.75
2617,A4,514.0,1.0,64,114.75
2618,C#5,514.0,1.0,69,114.75
2619,E5,514.0,1.0,73,114.75
2620,D3,514.5,0.5,54,114.75
2621,D4,514.5,0.5,54,114.75
2622,G3,515.0,0.5,57,114.75
2623,B3,515.0,0.5,57,114.75
2624,F#5,515.5,0.5,69,114.75
2625,E5,516.0,0.25,64,114.75
2626,A2,516.0,0.5,52,114.75
2627,A3,516.0,0.5,52,114.75
2628,F#5,516.25,0.062,50,114.75
2629,E5,516.312,0.062,55,114.75
2630,E-5,516.375,0.062,58,114.75
2631,E5,516.438,0.062,60,114.75
2632,G5,516.5,0.5,62,114.75
2633,A4,517.0,0.25,62,114.75
2634,D3,517.0,0.25,57,114.75
2635,B4,517.25,0.062,54,114.75
2636,D4,517.25,0.25,47,114.75
2637,A4,517.312,0.062,55,114.75
2638,G#4,517.375,0.062,59,114.75
2639,A4,517.438,0.062,59,114.75
2640,C#4,517.5,0.25,50,114.75
2641,G4,517.5,0.5,62,114.75
2642,C#5,517.5,0.5,62,114.75
2643,D4,517.75,0.25,47,114.75
2644,F#3,518.0,0.25,57,114.75
2645,F#4,518.0,0.5,64,114.75
2646,D5,518.0,0.5,64,114.75
2647,D4,518.25,0.25,48,114.75
2648,C#4,518.5,0.25,50,114.75
2649,D4,518.75,0.25,47,114.75
2650,G3,519.0,0.25,57,114.75
2651,A3,519.25,0.25,57,114.75
2652,D4,519.25,0.25,47,114.75
2653,C#4,519.5,0.25,57,114.75
2654,F#3,519.5,0.25,50,114.75
2655,A4,519.75,0.25,50,114.75
2656,D4,519.75,0.25,47,114.75
2657,G3,520.0,0.25,57,114.75
2658,A3,520.25,0.25,53,114.75
2659,D4,520.25,0.25,48,114.75
2660,D4,520.5,0.25,57,114.75
2661,F#3,520.5,0.25,50,114.75
2662,A4,520.75,0.25,49,114.75
2663,D4,520.75,0.25,47,114.75
2664,E3,521.0,1.0,52,114.75
2665,C#4,521.0,1.0,52,114.75
2666,E3,521.25,0.25,39,114.75
2667,G3,521.5,0.25,51,114.75
2668,C#4,521.75,0.25,42,114.75
2669,F#3,522.0,1.0,53,114.75
2670,D4,522.0,1.0,53,114.75
2671,D3,522.5,0.5,54,114.75
2672,D4,522.5,0.5,54,114.75
2673,G3,523.0,0.5,52,114.75
2674,B3,523.0,0.5,52,114.75
2675,A3,524.0,0.5,36,114.75
2676,A2,524.0,0.5,36,114.75
2677,D2,525.0,0.5,42,114.75
2678,D3,525.0,0.5,42,114.75
2679,G3,526.0,0.5,38,114.75
2680,A2,526.0,0.5,38,114.75
2681,A2,527.0,0.5,42,114.75
2682,F#3,527.0,0.5,42,114.75
2683,E3,528.0,6/25,39,114.75
2684,A2,528.0,0.5,33,114.75
2685,D2,529.0,1.0,40,114.75
2686,D3,529.0,1.0,40,114.75
