,note_name,start_time,duration,velocity,tempo
0,B-3,0.0,0.188,89,128.84
1,B-3,0.25,0.188,81,128.84
2,B-3,0.5,0.188,77,128.84
3,B-3,0.75,0.188,84,128.84
4,A3,1.0,0.188,77,128.84
5,B-3,1.25,0.188,73,128.84
6,F#3,1.5,0.188,82,128.84
7,F#3,1.75,0.188,84,128.84
8,A3,2.0,0.188,77,128.84
9,B-3,2.25,0.188,86,128.84
10,C#4,2.5,0.188,87,128.84
11,C4,2.75,0.188,87,128.84
12,G#3,3.0,0.188,81,128.84
13,G#3,3.25,0.188,75,128.84
14,G#3,3.5,0.188,73,128.84
15,G#3,3.75,0.188,81,128.84
16,F3,4.0,0.188,74,128.84
17,F#3,4.25,0.188,71,128.84
18,G#3,4.5,0.188,80,128.84
19,B-3,4.75,0.188,72,128.84
20,G#3,5.0,0.188,67,128.84
21,F3,5.25,0.75,90,128.84
22,B-3,6.0,0.188,53,128.84
23,B-3,6.25,0.188,49,128.84
24,B-3,6.5,0.188,47,128.84
25,B-3,6.75,0.188,50,128.84
26,A3,7.0,0.188,45,128.84
27,B-3,7.25,0.188,45,128.84
28,F#3,7.5,0.188,49,128.84
29,F#3,7.75,0.188,46,128.84
30,A3,8.0,0.188,45,128.84
31,B-3,8.25,0.188,49,128.84
32,C#4,8.5,0.188,47,128.84
33,C4,8.75,0.188,47,128.84
34,G#3,9.0,0.188,51,128.84
35,G#3,9.25,0.188,46,128.84
36,G#3,9.5,0.188,45,128.84
37,G#3,9.75,0.188,49,128.84
38,F3,10.0,0.188,45,128.84
39,F#3,10.25,0.188,45,128.84
40,G#3,10.5,0.188,49,128.84
41,B-3,10.75,0.188,43,128.84
42,G#3,11.0,0.188,43,128.84
43,F3,11.25,0.75,54,128.84
44,F#3,12.0,0.188,80,128.84
45,F#3,12.25,0.188,72,128.84
46,A3,12.5,0.188,71,128.84
47,B-3,12.75,0.188,82,128.84
48,B-3,13.0,0.188,80,128.84
49,C4,13.25,0.188,80,128.84
50,E-4,13.5,0.188,85,128.84
51,E-4,13.75,0.188,85,128.84
52,C#4,14.0,0.188,80,128.84
53,C4,14.25,0.188,81,128.84
54,C4,14.5,0.188,77,128.84
55,B-3,14.75,0.188,71,128.84
56,G#3,15.0,0.188,83,128.84
57,G#3,15.25,0.188,81,128.84
58,G#3,15.5,0.188,79,128.84
59,C#4,15.75,0.188,80,128.84
60,C#4,16.0,0.188,79,128.84
61,C4,16.25,0.188,84,128.84
62,B-3,16.5,0.188,80,128.84
63,G#3,16.75,0.188,79,128.84
64,B-3,17.0,0.188,79,128.84
65,F3,17.25,0.75,89,128.84
66,F#3,18.0,0.188,47,128.84
67,F#3,18.25,0.188,43,128.84
68,A3,18.5,0.188,43,128.84
69,B-3,18.75,0.188,49,128.84
70,B-3,19.0,0.188,45,128.84
71,C4,19.25,0.188,45,128.84
72,E-4,19.5,0.188,50,128.84
73,E-4,19.75,0.188,47,128.84
74,C#4,20.0,0.188,47,128.84
75,C4,20.25,0.188,47,128.84
76,C4,20.5,0.188,45,128.84
77,B-3,20.75,0.188,45,128.84
78,G#3,21.0,0.188,50,128.84
79,G#3,21.25,0.188,49,128.84
80,G#3,21.5,0.188,49,128.84
81,C#4,21.75,0.188,47,128.84
82,C#4,22.0,0.188,46,128.84
83,C4,22.25,0.188,46,128.84
84,B-3,22.5,0.188,47,128.84
85,G#3,22.75,0.188,46,128.84
86,B-3,23.0,0.188,46,128.84
87,F3,23.25,0.75,57,128.84
88,F#4,24.0,0.188,66,128.84
89,B-4,24.0,0.188,66,128.84
90,G#3,24.0,0.188,72,128.84
91,C#4,24.0,0.188,72,128.84
92,F#4,24.25,0.188,58,128.84
93,B-4,24.25,0.188,58,128.84
94,F#4,24.5,0.188,60,128.84
95,B-4,24.5,0.188,60,128.84
96,B-4,24.75,0.188,67,128.84
97,F#4,24.75,0.188,67,128.84
98,G#3,24.75,1.5,82,128.84
99,C#3,24.75,1.5,82,128.84
100,F4,25.0,0.188,64,128.84
101,B-4,25.25,0.188,66,128.84
102,F#4,25.25,0.188,66,128.84
103,D4,25.5,0.188,63,128.84
104,E-4,25.75,0.188,60,128.84
105,F#4,25.75,0.188,60,128.84
106,F4,26.0,0.188,64,128.84
107,F#4,26.25,0.5,62,128.84
108,B-4,26.25,0.188,70,128.84
109,C#3,26.25,0.188,66,128.84
110,C#2,26.25,0.188,66,128.84
111,C#5,26.5,0.188,69,128.84
112,G#4,26.75,0.188,62,128.84
113,C5,26.75,0.188,62,128.84
114,G#4,27.0,0.188,62,128.84
115,F4,27.0,0.188,62,128.84
116,C#4,27.0,0.188,62,128.84
117,G#3,27.0,0.188,62,128.84
118,F4,27.25,0.188,60,128.84
119,G#4,27.25,0.188,60,128.84
120,F4,27.5,0.188,63,128.84
121,G#4,27.5,0.188,63,128.84
122,G#4,27.75,0.188,69,128.84
123,F4,27.75,0.188,69,128.84
124,C#3,27.75,1.5,82,128.84
125,G#3,27.75,1.5,82,128.84
126,C#4,28.0,0.188,67,128.84
127,F#4,28.25,0.188,65,128.84
128,E-4,28.25,0.188,65,128.84
129,F4,28.5,0.188,72,128.84
130,F#4,28.75,0.188,60,128.84
131,B-4,28.75,0.188,60,128.84
132,F4,29.0,0.188,65,128.84
133,C#4,29.25,0.75,78,128.84
134,F4,29.25,0.75,78,128.84
135,C#2,29.25,0.188,66,128.84
136,C#3,29.25,0.188,66,128.84
137,F#4,30.0,0.188,43,128.84
138,B-4,30.0,0.188,43,128.84
139,G#3,30.0,0.188,39,128.84
140,C#4,30.0,0.188,39,128.84
141,F#4,30.25,0.188,31,128.84
142,B-4,30.25,0.188,31,128.84
143,F#4,30.5,0.188,33,128.84
144,B-4,30.5,0.188,33,128.84
145,B-4,30.75,0.188,38,128.84
146,F#4,30.75,0.188,38,128.84
147,C#3,30.75,1.5,46,128.84
148,G#3,30.75,1.5,46,128.84
149,F4,31.0,0.188,35,128.84
150,B-4,31.25,0.188,34,128.84
151,F#4,31.25,0.188,34,128.84
152,D4,31.5,0.188,36,128.84
153,F#4,31.75,0.188,31,128.84
154,E-4,31.75,0.188,31,128.84
155,F4,32.0,0.188,42,128.84
156,F#4,32.25,0.5,33,128.84
157,B-4,32.25,0.188,37,128.84
158,C#3,32.25,0.188,33,128.84
159,C#2,32.25,0.188,33,128.84
160,C#5,32.5,0.188,45,128.84
161,G#4,32.75,0.188,39,128.84
162,C5,32.75,0.188,39,128.84
163,F4,33.0,0.188,38,128.84
164,G#4,33.0,0.188,38,128.84
165,C#4,33.0,0.188,32,128.84
166,G#3,33.0,0.188,32,128.84
167,G#4,33.25,0.188,31,128.84
168,F4,33.25,0.188,31,128.84
169,F4,33.5,0.188,31,128.84
170,G#4,33.5,0.188,31,128.84
171,G#4,33.75,0.188,34,128.84
172,F4,33.75,0.188,34,128.84
173,G#3,33.75,1.5,44,128.84
174,C#3,33.75,1.5,44,128.84
175,C#4,34.0,0.188,36,128.84
176,F#4,34.25,0.188,36,128.84
177,E-4,34.25,0.188,36,128.84
178,F4,34.5,0.188,42,128.84
179,B-4,34.75,0.188,38,128.84
180,F#4,34.75,0.188,38,128.84
181,F4,35.0,0.188,36,128.84
182,C#4,35.25,0.75,43,128.84
183,F4,35.25,0.75,43,128.84
184,C#2,35.25,0.188,31,128.84
185,C#3,35.25,0.188,31,128.84
186,D4,36.0,0.188,72,128.84
187,F#3,36.0,0.75,60,128.84
188,B-3,36.0,0.75,60,128.84
189,C#3,36.0,0.75,60,128.84
190,F#4,36.25,0.188,69,128.84
191,E-4,36.25,0.188,69,128.84
192,F4,36.5,0.188,69,128.84
193,B-4,36.75,0.188,80,128.84
194,F#4,36.75,0.188,80,128.84
195,C#2,36.75,0.75,50,128.84
196,C#3,36.75,0.75,50,128.84
197,A4,37.0,0.188,74,128.84
198,B-4,37.25,0.188,75,128.84
199,C#5,37.25,0.188,75,128.84
200,B4,37.5,0.188,84,128.84
201,E-4,37.5,0.75,61,128.84
202,G#3,37.5,0.75,61,128.84
203,F#4,37.5,0.75,61,128.84
204,E-5,37.75,0.188,74,128.84
205,C5,37.75,0.188,74,128.84
206,C#5,38.0,0.188,75,128.84
207,B-4,38.0,0.188,75,128.84
208,C5,38.25,0.5,74,128.84
209,G#4,38.25,0.188,74,128.84
210,C#3,38.25,0.75,50,128.84
211,C#2,38.25,0.75,50,128.84
212,G4,38.5,0.188,72,128.84
213,B-4,38.75,0.25,70,128.84
214,F#4,38.75,0.188,70,128.84
215,E4,39.0,0.188,74,128.84
216,B-4,39.0,0.25,70,128.84
217,G#3,39.0,0.188,42,128.84
218,C#4,39.0,0.188,42,128.84
219,C#3,39.0,0.188,42,128.84
220,F4,39.25,0.188,71,128.84
221,G4,39.5,0.188,70,128.84
222,C#5,39.75,0.5,81,128.84
223,G#4,39.75,0.188,81,128.84
224,C#4,39.75,1.0,53,128.84
225,F#4,39.75,0.75,61,128.84
226,E-4,39.75,0.75,61,128.84
227,A4,40.0,0.5,66,128.84
228,C5,40.25,0.188,72,128.84
229,B-4,40.5,0.188,69,128.84
230,F4,40.5,0.188,50,128.84
231,G#4,40.75,0.188,65,128.84
232,B-4,41.0,0.188,63,128.84
233,D4,41.25,0.75,60,128.84
234,F4,41.25,0.75,60,128.84
235,B3,41.25,0.75,51,128.84
236,C#3,41.25,0.75,51,128.84
237,G#3,41.25,0.75,51,128.84
238,D4,42.0,0.188,40,128.84
239,C#3,42.0,0.75,32,128.84
240,B-3,42.0,0.75,32,128.84
241,F#3,42.0,0.75,32,128.84
242,F#4,42.25,0.188,38,128.84
243,E-4,42.25,0.188,38,128.84
244,F4,42.5,0.188,37,128.84
245,B-4,42.75,0.188,44,128.84
246,F#4,42.75,0.188,44,128.84
247,C#2,42.75,0.75,26,128.84
248,C#3,42.75,0.75,26,128.84
249,A4,43.0,0.188,41,128.84
250,C#5,43.25,0.188,47,128.84
251,B-4,43.25,0.188,47,128.84
252,B4,43.5,0.188,49,128.84
253,F#4,43.5,0.75,34,128.84
254,G#3,43.5,0.75,34,128.84
255,E-4,43.5,0.75,34,128.84
256,E-5,43.75,0.188,46,128.84
257,C5,43.75,0.188,46,128.84
258,C#5,44.0,0.188,44,128.84
259,B-4,44.0,0.188,44,128.84
260,G#4,44.25,0.188,41,128.84
261,C5,44.25,0.5,41,128.84
262,C#3,44.25,0.75,26,128.84
263,C#2,44.25,0.75,26,128.84
264,G4,44.5,0.188,45,128.84
265,B-4,44.75,0.25,42,128.84
266,F#4,44.75,0.188,42,128.84
267,E4,45.0,0.188,44,128.84
268,B-4,45.0,0.25,42,128.84
269,G#3,45.0,0.188,22,128.84
270,C#3,45.0,0.188,22,128.84
271,C#4,45.0,0.188,22,128.84
272,F4,45.25,0.188,41,128.84
273,G4,45.5,0.188,39,128.84
274,C#5,45.75,0.5,42,128.84
275,G#4,45.75,0.188,42,128.84
276,C#4,45.75,1.0,26,128.84
277,F#4,45.75,0.75,30,128.84
278,E-4,45.75,0.75,30,128.84
279,A4,46.0,0.5,36,128.84
280,C5,46.25,0.188,43,128.84
281,B-4,46.5,0.188,40,128.84
282,F4,46.5,0.188,26,128.84
283,G#4,46.75,0.188,36,128.84
284,B-4,47.0,0.188,37,128.84
285,C#4,47.25,0.75,40,128.84
286,F4,47.25,0.75,40,128.84
287,G3,47.25,0.75,20,128.84
288,B-2,47.25,0.75,20,128.84
289,C4,48.0,0.25,32,128.84
290,F4,48.0,0.25,32,128.84
291,F2,48.0,0.25,27,128.84
292,F3,48.0,0.25,27,128.84
293,C4,48.25,0.25,27,128.84
294,F3,48.25,0.25,27,128.84
295,F4,48.5,0.25,32,128.84
296,C4,48.5,0.25,32,128.84
297,B-3,48.75,0.25,31,128.84
298,F4,48.75,0.25,31,128.84
299,F3,49.0,0.25,29,128.84
300,B-3,49.0,0.25,29,128.84
301,C4,49.25,0.25,36,128.84
302,F4,49.25,0.25,36,128.84
303,F4,49.5,0.25,39,128.84
304,C#4,49.5,0.25,39,128.84
305,F3,49.75,0.25,30,128.84
306,C#4,49.75,0.25,30,128.84
307,F4,50.0,0.25,33,128.84
308,E-4,50.0,0.25,33,128.84
309,C4,50.25,0.25,32,128.84
310,F4,50.25,0.25,32,128.84
311,C4,50.5,0.25,27,128.84
312,F3,50.5,0.25,27,128.84
313,C#4,50.75,0.25,32,128.84
314,F4,50.75,0.25,32,128.84
315,B-3,51.0,0.25,31,128.84
316,E-4,51.0,0.25,31,128.84
317,B-3,51.25,0.25,31,128.84
318,E-3,51.25,0.25,31,128.84
319,G#3,51.5,0.25,37,128.84
320,E-4,51.5,0.25,37,128.84
321,C#4,51.75,0.25,42,128.84
322,E-4,51.75,0.25,42,128.84
323,E-3,52.0,0.25,27,128.84
324,C#4,52.0,0.25,27,128.84
325,E-4,52.25,0.25,34,128.84
326,C4,52.25,0.25,34,128.84
327,E-4,52.5,0.25,33,128.84
328,B-3,52.5,0.25,33,128.84
329,B-3,52.75,0.25,27,128.84
330,E-3,52.75,0.25,27,128.84
331,C4,53.0,0.25,31,128.84
332,E-4,53.0,0.25,31,128.84
333,C#4,53.25,0.25,32,128.84
334,E-4,53.25,0.25,32,128.84
335,E-3,53.5,0.25,27,128.84
336,C#4,53.5,0.25,27,128.84
337,B-3,53.75,0.25,32,128.84
338,E-4,53.75,0.25,32,128.84
339,F4,54.0,0.25,32,128.84
340,C4,54.0,0.25,32,128.84
341,C4,54.25,0.25,27,128.84
342,F3,54.25,0.25,27,128.84
343,C4,54.5,0.25,32,128.84
344,F4,54.5,0.25,32,128.84
345,B-3,54.75,0.25,34,128.84
346,F4,54.75,0.25,34,128.84
347,B-3,55.0,0.25,31,128.84
348,F3,55.0,0.25,31,128.84
349,C4,55.25,0.25,35,128.84
350,F4,55.25,0.25,35,128.84
351,C#4,55.5,0.25,40,128.84
352,F4,55.5,0.25,40,128.84
353,C#4,55.75,0.25,33,128.84
354,F3,55.75,0.25,33,128.84
355,E-4,56.0,0.25,34,128.84
356,F4,56.0,0.25,34,128.84
357,F4,56.25,0.25,32,128.84
358,C4,56.25,0.25,32,128.84
359,C4,56.5,0.25,29,128.84
360,F3,56.5,0.25,29,128.84
361,C#4,56.75,0.25,36,128.84
362,F4,56.75,0.25,36,128.84
363,B-3,57.0,0.25,33,128.84
364,E-4,57.0,0.25,33,128.84
365,E-3,57.25,0.25,32,128.84
366,B-3,57.25,0.25,32,128.84
367,G#3,57.5,0.25,38,128.84
368,E-4,57.5,0.25,38,128.84
369,E-4,57.75,0.25,44,128.84
370,C#4,57.75,0.25,44,128.84
371,C#4,58.0,0.25,29,128.84
372,E-3,58.0,0.25,29,128.84
373,C4,58.25,0.25,32,128.84
374,E-4,58.25,0.25,32,128.84
375,B-3,58.5,0.25,32,128.84
376,E-4,58.5,0.25,32,128.84
377,E-3,58.75,0.25,29,128.84
378,B-3,58.75,0.25,29,128.84
379,C4,59.0,0.25,32,128.84
380,E-4,59.0,0.25,32,128.84
381,C#4,59.25,0.25,32,128.84
382,E-4,59.25,0.25,32,128.84
383,C#4,59.5,0.25,29,128.84
384,E-3,59.5,0.25,29,128.84
385,B-3,59.75,0.25,32,128.84
386,E-4,59.75,0.25,32,128.84
387,F3,60.0,0.25,30,128.84
388,C4,60.0,0.25,30,128.84
389,C4,60.25,0.25,27,128.84
390,C5,60.5,0.25,32,128.84
391,F4,60.5,0.25,32,128.84
392,F3,60.75,0.25,29,128.84
393,B-3,60.75,0.25,29,128.84
394,F4,61.0,0.5,31,128.84
395,B-3,61.0,0.25,31,128.84
396,B-4,61.0,0.25,31,128.84
397,C4,61.25,0.25,36,128.84
398,C5,61.25,0.25,36,128.84
399,F3,61.5,0.25,36,128.84
400,C#4,61.5,0.25,36,128.84
401,F4,61.75,0.5,35,128.84
402,C#5,61.75,0.25,35,128.84
403,C#4,61.75,0.25,35,128.84
404,E-5,62.0,0.25,32,128.84
405,E-4,62.0,0.25,32,128.84
406,C4,62.25,0.25,27,128.84
407,F3,62.25,0.25,27,128.84
408,F4,62.5,0.5,32,128.84
409,C4,62.5,0.25,32,128.84
410,C5,62.5,0.25,32,128.84
411,C#4,62.75,0.25,32,128.84
412,C#5,62.75,0.25,32,128.84
413,B-3,63.0,0.25,32,128.84
414,E-3,63.0,0.25,32,128.84
415,E-4,63.25,0.5,33,128.84
416,B-3,63.25,0.25,33,128.84
417,B-4,63.25,0.25,33,128.84
418,G#3,63.5,0.25,38,128.84
419,G#4,63.5,0.25,38,128.84
420,E-3,63.75,0.25,48,128.84
421,C#4,63.75,0.25,48,128.84
422,E-4,64.0,0.5,37,128.84
423,C#4,64.0,0.25,33,128.84
424,C#5,64.0,0.25,33,128.84
425,C4,64.25,0.25,34,128.84
426,C5,64.25,0.25,34,128.84
427,E-3,64.5,0.25,32,128.84
428,B-3,64.5,0.25,32,128.84
429,E-4,64.75,0.5,34,128.84
430,B-4,64.75,0.25,34,128.84
431,B-3,64.75,0.25,34,128.84
432,C4,65.0,0.25,32,128.84
433,C5,65.0,0.25,32,128.84
434,E-3,65.25,0.25,31,128.84
435,C#4,65.25,0.25,31,128.84
436,E-4,65.5,0.5,32,128.84
437,C#4,65.5,0.25,32,128.84
438,C#5,65.5,0.25,32,128.84
439,B-4,65.75,0.25,32,128.84
440,B-3,65.75,0.25,32,128.84
441,C4,66.0,0.25,37,128.84
442,F3,66.0,0.5,34,128.84
443,C4,66.25,0.25,34,128.84
444,C5,66.5,0.25,37,128.84
445,F4,66.5,0.25,37,128.84
446,F3,66.5,0.25,27,128.84
447,F2,66.5,0.25,27,128.84
448,B-3,66.75,0.25,35,128.84
449,F3,66.75,0.5,35,128.84
450,F4,67.0,0.5,37,128.84
451,B-4,67.0,0.25,37,128.84
452,B-3,67.0,0.25,37,128.84
453,C4,67.25,0.25,44,128.84
454,C5,67.25,0.25,44,128.84
455,F2,67.25,0.25,27,128.84
456,F3,67.25,0.25,27,128.84
457,C#4,67.5,0.25,44,128.84
458,F3,67.5,0.5,44,128.84
459,F4,67.75,0.5,45,128.84
460,C#4,67.75,0.25,45,128.84
461,C#5,67.75,0.25,45,128.84
462,E-5,68.0,0.25,43,128.84
463,E-4,68.0,0.25,43,128.84
464,F2,68.0,0.25,35,128.84
465,F3,68.0,0.25,35,128.84
466,F3,68.25,0.5,40,128.84
467,C4,68.25,0.25,40,128.84
468,F4,68.5,0.5,45,128.84
469,C4,68.5,0.25,45,128.84
470,C5,68.5,0.25,45,128.84
471,C#5,68.75,0.25,45,128.84
472,C#4,68.75,0.25,45,128.84
473,F3,68.75,0.25,35,128.84
474,F2,68.75,0.25,35,128.84
475,E-3,69.0,0.5,50,128.84
476,B-3,69.0,0.25,50,128.84
477,E-4,69.25,0.5,49,128.84
478,B-3,69.25,0.25,49,128.84
479,B-4,69.25,0.25,49,128.84
480,G#4,69.5,0.25,58,128.84
481,G#3,69.5,0.25,58,128.84
482,E-3,69.5,0.25,29,128.84
483,E-2,69.5,0.25,29,128.84
484,C#4,69.75,0.25,56,128.84
485,E-3,69.75,0.5,56,128.84
486,E-4,70.0,0.5,53,128.84
487,C#5,70.0,0.25,48,128.84
488,C#4,70.0,0.25,48,128.84
489,C4,70.25,0.25,49,128.84
490,C5,70.25,0.25,49,128.84
491,E-3,70.25,0.25,37,128.84
492,E-2,70.25,0.25,37,128.84
493,E-3,70.5,0.5,51,128.84
494,B-3,70.5,0.25,51,128.84
495,E-4,70.75,0.5,49,128.84
496,B-4,70.75,0.25,49,128.84
497,B-3,70.75,0.25,49,128.84
498,C4,71.0,0.25,50,128.84
499,C5,71.0,0.25,50,128.84
500,E-2,71.0,0.25,42,128.84
501,E-3,71.0,0.25,42,128.84
502,C#4,71.25,0.25,50,128.84
503,A3,71.25,0.75,50,128.84
504,E-3,71.25,0.75,50,128.84
505,C#4,71.5,0.25,52,128.84
506,C#5,71.75,0.25,52,128.84
507,E-4,71.75,0.25,52,128.84
508,F#4,71.75,0.25,52,128.84
509,C#4,72.0,0.188,64,128.84
510,F#4,72.0,0.188,66,128.84
511,B-4,72.0,0.188,66,128.84
512,F#3,72.25,0.188,61,128.84
513,F#4,72.25,0.188,58,128.84
514,B-4,72.25,0.188,58,128.84
515,E-3,72.5,0.188,61,128.84
516,F#4,72.5,0.188,60,128.84
517,B-4,72.5,0.188,60,128.84
518,B-4,72.75,0.188,76,128.84
519,F#4,72.75,0.188,76,128.84
520,G#2,72.75,0.75,68,128.84
521,C#2,72.75,0.75,68,128.84
522,F4,73.0,0.188,64,128.84
523,D4,73.0,0.188,60,128.84
524,E-4,73.25,0.188,53,128.84
525,B-4,73.25,0.188,70,128.84
526,F#4,73.25,0.188,70,128.84
527,D4,73.5,0.188,63,128.84
528,B3,73.5,0.188,58,128.84
529,G#3,73.5,0.188,58,128.84
530,E-4,73.75,0.188,60,128.84
531,F#4,73.75,0.188,60,128.84
532,B-3,73.75,0.188,53,128.84
533,F#3,73.75,0.188,53,128.84
534,F4,74.0,0.188,64,128.84
535,G#3,74.0,0.188,53,128.84
536,F3,74.0,0.188,53,128.84
537,F#4,74.25,0.75,70,128.84
538,B-4,74.25,0.188,70,128.84
539,E-3,74.25,0.5,57,128.84
540,F#3,74.25,0.188,64,128.84
541,C#5,74.5,0.188,69,128.84
542,B-3,74.5,0.188,61,128.84
543,C5,74.75,0.188,65,128.84
544,G#3,74.75,0.188,61,128.84
545,C#4,75.0,0.188,64,128.84
546,F4,75.0,0.188,62,128.84
547,G#4,75.0,0.188,62,128.84
548,G#3,75.25,0.188,61,128.84
549,F4,75.25,0.188,60,128.84
550,G#4,75.25,0.188,60,128.84
551,F3,75.5,0.188,61,128.84
552,G#4,75.5,0.188,63,128.84
553,F4,75.5,0.188,63,128.84
554,G#4,75.75,0.188,69,128.84
555,F4,75.75,0.188,69,128.84
556,C#2,75.75,0.75,73,128.84
557,G#2,75.75,0.75,73,128.84
558,C#4,76.0,0.188,67,128.84
559,F3,76.0,0.188,60,128.84
560,G#3,76.25,0.188,53,128.84
561,F#4,76.25,0.188,62,128.84
562,E-4,76.25,0.188,62,128.84
563,F4,76.5,0.188,77,128.84
564,C#4,76.5,0.188,62,128.84
565,C#3,76.75,0.188,56,128.84
566,F#4,76.75,0.188,64,128.84
567,B-4,76.75,0.188,64,128.84
568,F4,77.0,0.188,71,128.84
569,G#3,77.0,0.188,56,128.84
570,C#4,77.25,0.75,89,128.84
571,F4,77.25,0.75,72,128.84
572,C#5,78.0,0.188,40,128.84
573,F#5,78.0,0.188,43,128.84
574,A5,78.0,0.188,43,128.84
575,F#4,78.25,0.188,36,128.84
576,F#5,78.25,0.188,37,128.84
577,A5,78.25,0.188,37,128.84
578,E-4,78.5,0.188,36,128.84
579,F#5,78.5,0.188,39,128.84
580,A5,78.5,0.188,39,128.84
581,A5,78.75,0.188,45,128.84
582,F#5,78.75,0.188,45,128.84
583,G#3,78.75,0.75,38,128.84
584,C#3,78.75,0.75,38,128.84
585,F5,79.0,0.188,40,128.84
586,D5,79.0,0.188,36,128.84
587,E-5,79.25,0.188,32,128.84
588,A5,79.25,0.188,43,128.84
589,F#5,79.25,0.188,43,128.84
590,D5,79.5,0.188,39,128.84
591,B4,79.5,0.188,37,128.84
592,G#4,79.5,0.188,37,128.84
593,F#5,79.75,0.188,39,128.84
594,E-5,79.75,0.188,39,128.84
595,A4,79.75,0.188,34,128.84
596,F#4,79.75,0.188,34,128.84
597,F5,80.0,0.188,40,128.84
598,G#4,80.0,0.188,34,128.84
599,F4,80.0,0.188,34,128.84
600,A5,80.25,0.188,43,128.84
601,F#5,80.25,0.75,43,128.84
602,E-4,80.25,0.5,40,128.84
603,F#4,80.25,0.188,40,128.84
604,C#6,80.5,0.188,42,128.84
605,A4,80.5,0.188,36,128.84
606,C6,80.75,0.188,40,128.84
607,G#4,80.75,0.188,36,128.84
608,C#5,81.0,0.188,40,128.84
609,E5,81.0,0.188,40,128.84
610,G#5,81.0,0.188,40,128.84
611,G#4,81.25,0.188,36,128.84
612,E5,81.25,0.188,39,128.84
613,G#5,81.25,0.188,39,128.84
614,E4,81.5,0.188,36,128.84
615,E5,81.5,0.188,39,128.84
616,G#5,81.5,0.188,39,128.84
617,G#5,81.75,0.188,44,128.84
618,E5,81.75,0.188,44,128.84
619,C#3,81.75,1.5,38,128.84
620,G#3,81.75,1.5,38,128.84
621,C#5,82.0,0.188,41,128.84
622,E4,82.0,0.188,36,128.84
623,G#4,82.25,0.188,32,128.84
624,F#5,82.25,0.188,40,128.84
625,E-5,82.25,0.188,40,128.84
626,E5,82.5,0.188,46,128.84
627,C#5,82.5,0.188,37,128.84
628,C#4,82.75,0.188,34,128.84
629,A5,82.75,0.188,43,128.84
630,F#5,82.75,0.188,43,128.84
631,E5,83.0,0.188,44,128.84
632,G#4,83.0,0.188,34,128.84
633,C#5,83.25,0.75,53,128.84
634,E5,83.25,0.75,46,128.84
635,D4,84.0,0.188,72,128.84
636,G#3,84.0,0.188,58,128.84
637,B3,84.0,0.188,58,128.84
638,E-4,84.25,0.188,69,128.84
639,F#4,84.25,0.188,69,128.84
640,F#3,84.25,0.188,53,128.84
641,B-3,84.25,0.188,53,128.84
642,F4,84.5,0.188,69,128.84
643,F3,84.5,0.188,53,128.84
644,G#3,84.5,0.188,53,128.84
645,B-4,84.75,0.188,80,128.84
646,F#4,84.75,0.188,80,128.84
647,E-3,84.75,0.75,50,128.84
648,F#3,84.75,0.75,50,128.84
649,A4,85.0,0.188,74,128.84
650,C#5,85.25,0.188,75,128.84
651,B-4,85.25,0.188,75,128.84
652,C#3,85.25,1.75,50,128.84
653,C#2,85.25,1.75,50,128.84
654,B4,85.5,0.188,84,128.84
655,G3,85.5,0.188,59,128.84
656,G#3,85.75,0.188,57,128.84
657,E-5,85.75,0.188,70,128.84
658,C5,85.75,0.188,70,128.84
659,A3,86.0,0.188,55,128.84
660,C#5,86.0,0.188,70,128.84
661,B-4,86.0,0.188,70,128.84
662,C5,86.25,0.5,74,128.84
663,G#4,86.25,0.188,74,128.84
664,B-3,86.25,0.188,54,128.84
665,G4,86.5,0.188,72,128.84
666,B3,86.5,0.188,53,128.84
667,B-4,86.75,0.25,70,128.84
668,F#4,86.75,0.188,70,128.84
669,C4,86.75,0.188,51,128.84
670,E4,87.0,0.188,74,128.84
671,B-4,87.0,0.25,70,128.84
672,C#4,87.0,0.75,53,128.84
673,F4,87.25,0.188,71,128.84
674,G#3,87.25,0.188,52,128.84
675,G4,87.5,0.188,70,128.84
676,C#3,87.5,0.188,52,128.84
677,C#5,87.75,0.5,81,128.84
678,G#4,87.75,0.188,81,128.84
679,E-4,87.75,0.75,61,128.84
680,A4,88.0,0.5,66,128.84
681,F#3,88.0,0.188,52,128.84
682,C5,88.25,0.188,72,128.84
683,C#3,88.25,0.188,53,128.84
684,B-4,88.5,0.188,69,128.84
685,F4,88.5,0.75,50,128.84
686,G#4,88.75,0.188,65,128.84
687,F3,88.75,0.188,45,128.84
688,B-4,89.0,0.188,63,128.84
689,C#3,89.0,1.0,40,128.84
690,D4,89.25,0.75,66,128.84
691,F4,89.25,0.75,66,128.84
692,G#3,89.25,0.75,44,128.84
693,B3,89.25,0.75,44,128.84
694,D5,90.0,0.188,44,128.84
695,G#4,90.0,0.188,35,128.84
696,B4,90.0,0.188,35,128.84
697,F#5,90.25,0.188,43,128.84
698,E-5,90.25,0.188,43,128.84
699,A4,90.25,0.188,33,128.84
700,F#4,90.25,0.188,33,128.84
701,F5,90.5,0.188,43,128.84
702,F4,90.5,0.188,33,128.84
703,G#4,90.5,0.188,33,128.84
704,B-5,90.75,0.188,49,128.84
705,F#5,90.75,0.188,49,128.84
706,E-4,90.75,0.75,30,128.84
707,F#4,90.75,0.75,30,128.84
708,A5,91.0,0.188,45,128.84
709,C#6,91.25,0.188,45,128.84
710,B-5,91.25,0.188,45,128.84
711,C#4,91.25,1.75,30,128.84
712,C#3,91.25,1.75,30,128.84
713,B5,91.5,0.188,52,128.84
714,G4,91.5,0.188,36,128.84
715,G#4,91.75,0.188,35,128.84
716,E-6,91.75,0.188,45,128.84
717,C6,91.75,0.188,45,128.84
718,A4,92.0,0.188,34,128.84
719,C#6,92.0,0.188,45,128.84
720,A5,92.0,0.188,45,128.84
721,C6,92.25,0.5,45,128.84
722,G#5,92.25,0.188,45,128.84
723,B-4,92.25,0.188,33,128.84
724,G5,92.5,0.188,44,128.84
725,B4,92.5,0.188,32,128.84
726,F#5,92.75,0.188,44,128.84
727,A5,92.75,0.25,44,128.84
728,C5,92.75,0.188,31,128.84
729,E-5,93.0,0.188,45,128.84
730,A5,93.0,0.25,44,128.84
731,C#5,93.0,0.75,32,128.84
732,E5,93.25,0.188,44,128.84
733,G#4,93.25,0.188,32,128.84
734,F#5,93.5,0.188,44,128.84
735,C#4,93.5,0.188,32,128.84
736,E5,93.75,0.75,50,128.84
737,C#6,93.75,0.5,50,128.84
738,G5,93.75,0.188,50,128.84
739,D5,93.75,0.75,41,128.84
740,G#5,94.0,0.5,41,128.84
741,G#4,94.0,0.188,32,128.84
742,B5,94.25,0.188,44,128.84
743,E4,94.25,0.188,32,128.84
744,A5,94.5,0.188,46,128.84
745,E5,94.5,0.75,46,128.84
746,C#5,94.5,0.75,30,128.84
747,G#5,94.75,0.188,41,128.84
748,E4,94.75,0.188,27,128.84
749,A5,95.0,0.188,39,128.84
750,A3,95.0,1.0,24,128.84
751,A4,95.25,0.75,44,128.84
752,E5,95.25,0.75,44,128.84
753,E4,95.25,0.75,34,128.84
754,C#5,95.25,0.75,34,128.84
755,A2,96.0,0.188,70,128.84
756,D3,96.0,0.188,70,128.84
757,F#3,96.0,0.188,70,128.84
758,F#2,96.0,0.188,70,128.84
759,A3,96.25,0.188,62,128.84
760,D4,96.25,0.188,62,128.84
761,A4,96.5,0.188,57,128.84
762,F#4,96.5,0.188,57,128.84
763,F#5,96.75,0.188,86,128.84
764,D5,96.75,0.188,86,128.84
765,F4,97.0,0.188,52,128.84
766,C#4,97.0,0.188,52,128.84
767,D4,97.25,0.188,47,128.84
768,F#4,97.25,0.188,47,128.84
769,C#4,97.5,0.188,62,128.84
770,B-3,97.5,0.188,62,128.84
771,B3,97.75,0.188,54,128.84
772,D4,97.75,0.188,54,128.84
773,C#4,98.0,0.188,52,128.84
774,F4,98.0,0.188,52,128.84
775,D4,98.25,0.5,62,128.84
776,F#4,98.25,0.188,69,128.84
777,A4,98.5,0.188,65,128.84
778,E4,98.75,0.188,58,128.84
779,G#4,98.75,0.188,58,128.84
780,G#2,99.0,0.188,61,128.84
781,G#3,99.0,0.188,61,128.84
782,E-3,99.0,0.188,61,128.84
783,E-4,99.25,0.188,58,128.84
784,C4,99.25,0.188,58,128.84
785,C5,99.5,0.188,52,128.84
786,F#4,99.5,0.188,52,128.84
787,E-5,99.75,0.188,86,128.84
788,F#5,99.75,0.188,86,128.84
789,C4,100.0,0.188,56,128.84
790,E-4,100.0,0.188,56,128.84
791,C#4,100.25,0.188,50,128.84
792,E4,100.25,0.188,50,128.84
793,F#4,100.5,0.188,58,128.84
794,E-4,100.5,0.188,58,128.84
795,E4,100.75,0.188,50,128.84
796,G#4,100.75,0.188,50,128.84
797,E-4,101.0,0.188,47,128.84
798,F#4,101.0,0.188,47,128.84
799,C4,101.25,0.75,66,128.84
800,E-4,101.25,0.75,66,128.84
801,F#3,102.0,0.188,47,128.84
802,D4,102.0,0.188,47,128.84
803,F#4,102.0,0.188,47,128.84
804,A3,102.0,0.188,47,128.84
805,A4,102.25,0.188,38,128.84
806,D5,102.25,0.188,38,128.84
807,A5,102.5,0.188,36,128.84
808,F#5,102.5,0.188,36,128.84
809,D6,102.75,0.188,47,128.84
810,F#6,102.75,0.188,47,128.84
811,F5,103.0,0.188,31,128.84
812,C#5,103.0,0.188,31,128.84
813,D5,103.25,0.188,28,128.84
814,F#5,103.25,0.188,28,128.84
815,B-4,103.5,0.188,38,128.84
816,C#5,103.5,0.188,38,128.84
817,D5,103.75,0.188,33,128.84
818,B4,103.75,0.188,33,128.84
819,C#5,104.0,0.188,32,128.84
820,F5,104.0,0.188,32,128.84
821,D5,104.25,0.5,43,128.84
822,F#5,104.25,0.188,43,128.84
823,A5,104.5,0.188,41,128.84
824,E5,104.75,0.188,37,128.84
825,G#5,104.75,0.188,37,128.84
826,E-4,105.0,0.188,36,128.84
827,G#4,105.0,0.188,36,128.84
828,G#3,105.0,0.188,36,128.84
829,C5,105.25,0.188,35,128.84
830,E-5,105.25,0.188,35,128.84
831,C6,105.5,0.188,32,128.84
832,F#5,105.5,0.188,32,128.84
833,F#6,105.75,0.188,52,128.84
834,E-6,105.75,0.188,52,128.84
835,E-5,106.0,0.188,34,128.84
836,C5,106.0,0.188,34,128.84
837,C#5,106.25,0.188,30,128.84
838,E5,106.25,0.188,30,128.84
839,F#5,106.5,0.188,35,128.84
840,E-5,106.5,0.188,35,128.84
841,E5,106.75,0.188,30,128.84
842,G#5,106.75,0.188,30,128.84
843,E-5,107.0,0.188,28,128.84
844,F#5,107.0,0.188,28,128.84
845,E-5,107.25,0.625,39,128.84
846,C5,107.25,0.625,39,128.84
847,F#2,107.875,0.125,65,128.84
848,D3,107.938,0.062,65,128.84
849,A3,108.0,0.188,74,128.84
850,F#2,108.0,0.188,65,128.84
851,D3,108.0,0.188,65,128.84
852,D4,108.25,0.188,68,128.84
853,A3,108.25,0.188,68,128.84
854,E4,108.5,0.188,64,128.84
855,C#4,108.5,0.188,64,128.84
856,D3,108.625,0.312,64,128.84
857,A3,108.688,0.25,64,128.84
858,D4,108.75,0.188,72,128.84
859,F#4,109.0,0.188,56,128.84
860,D4,109.0,0.188,56,128.84
861,E4,109.25,0.188,52,128.84
862,G#4,109.25,0.188,52,128.84
863,D4,109.5,0.188,62,128.84
864,F#4,109.5,0.188,62,128.84
865,F#4,109.75,0.188,53,128.84
866,A4,109.75,0.188,53,128.84
867,E4,110.0,0.188,52,128.84
868,G#4,110.0,0.188,52,128.84
869,A3,110.25,0.188,52,128.84
870,D4,110.25,0.188,52,128.84
871,D4,110.5,0.188,62,128.84
872,F#4,110.5,0.188,62,128.84
873,C#4,110.75,0.188,58,128.84
874,E4,110.75,0.188,58,128.84
875,G#2,110.875,0.125,56,128.84
876,E-3,110.938,0.062,56,128.84
877,C4,111.0,0.188,63,128.84
878,G#2,111.0,0.188,56,128.84
879,E-3,111.0,0.188,56,128.84
880,C4,111.25,0.188,60,128.84
881,G#4,111.25,0.188,60,128.84
882,B-4,111.5,0.188,57,128.84
883,E-4,111.5,0.188,57,128.84
884,G#3,111.625,0.312,54,128.84
885,E-4,111.688,0.25,54,128.84
886,G#4,111.75,0.188,62,128.84
887,C5,112.0,0.188,57,128.84
888,G#4,112.0,0.188,57,128.84
889,B-4,112.25,0.188,52,128.84
890,C#5,112.25,0.188,52,128.84
891,G#4,112.5,0.188,66,128.84
892,C5,112.5,0.188,66,128.84
893,C5,112.75,0.188,68,128.84
894,E-5,112.75,0.188,68,128.84
895,C#5,113.0,0.188,62,128.84
896,E5,113.0,0.188,62,128.84
897,F#5,113.25,0.625,68,128.84
898,E-5,113.25,0.625,68,128.84
899,F#3,113.875,0.125,49,128.84
900,D4,113.938,0.062,49,128.84
901,A4,114.0,0.188,62,128.84
902,F#3,114.0,0.188,49,128.84
903,D4,114.0,0.188,49,128.84
904,D5,114.25,0.188,56,128.84
905,A4,114.25,0.188,56,128.84
906,E5,114.5,0.188,52,128.84
907,C#5,114.5,0.188,52,128.84
908,D4,114.625,0.312,46,128.84
909,A4,114.688,0.25,46,128.84
910,D5,114.75,0.188,59,128.84
911,F#5,115.0,0.188,44,128.84
912,D5,115.0,0.188,44,128.84
913,E5,115.25,0.188,42,128.84
914,G#5,115.25,0.188,42,128.84
915,D5,115.5,0.188,50,128.84
916,F#5,115.5,0.188,50,128.84
917,F#5,115.75,0.188,43,128.84
918,A5,115.75,0.188,43,128.84
919,E5,116.0,0.188,42,128.84
920,G#5,116.0,0.188,42,128.84
921,D5,116.25,0.188,42,128.84
922,A4,116.25,0.188,42,128.84
923,F#5,116.5,0.188,50,128.84
924,D5,116.5,0.188,50,128.84
925,C#5,116.75,0.188,47,128.84
926,E5,116.75,0.188,47,128.84
927,G#3,116.875,0.125,41,128.84
928,E-4,116.938,0.062,42,128.84
929,C5,117.0,0.188,52,128.84
930,G#3,117.0,0.188,41,128.84
931,E-4,117.0,0.188,42,128.84
932,C5,117.25,0.188,50,128.84
933,G#5,117.25,0.188,50,128.84
934,B-5,117.5,0.188,45,128.84
935,E-5,117.5,0.188,45,128.84
936,G#4,117.625,0.312,41,128.84
937,E-5,117.688,0.25,41,128.84
938,G#5,117.75,0.188,50,128.84
939,C6,118.0,0.188,45,128.84
940,G#5,118.0,0.188,45,128.84
941,C#6,118.25,0.188,42,128.84
942,B-5,118.25,0.188,42,128.84
943,C6,118.5,0.188,52,128.84
944,G#5,118.5,0.188,52,128.84
945,C6,118.75,0.188,56,128.84
946,E-6,118.75,0.188,56,128.84
947,C#6,119.0,0.188,50,128.84
948,E6,119.0,0.188,50,128.84
949,F#6,119.25,0.625,56,128.84
950,E-6,119.25,0.625,56,128.84
951,F#4,119.875,0.125,37,128.84
952,D5,119.938,0.062,39,128.84
953,A5,120.0,0.188,47,128.84
954,F#4,120.0,0.188,37,128.84
955,D5,120.0,0.188,39,128.84
956,A5,120.25,0.188,45,128.84
957,D6,120.25,0.188,45,128.84
958,C#6,120.5,0.188,42,128.84
959,E6,120.5,0.188,42,128.84
960,D5,120.625,0.312,37,128.84
961,A5,120.688,0.25,37,128.84
962,D6,120.75,0.188,46,128.84
963,F#6,121.0,0.188,39,128.84
964,D6,121.0,0.188,39,128.84
965,E6,121.25,0.188,38,128.84
966,G#6,121.25,0.188,38,128.84
967,F#6,121.5,0.188,44,128.84
968,D6,121.5,0.188,44,128.84
969,F#6,121.75,0.25,38,128.84
970,A6,121.75,0.25,38,128.84
971,E6,122.0,0.25,38,128.84
972,G#6,122.0,0.25,38,128.84
973,D6,122.25,0.25,38,128.84
974,F#6,122.25,0.25,38,128.84
975,E6,122.5,0.25,43,128.84
976,C#6,122.5,0.25,43,128.84
977,B5,122.75,0.25,39,128.84
978,D6,122.75,0.25,39,128.84
979,B5,123.0,0.25,39,128.84
980,D6,123.0,0.25,39,128.84
981,G5,123.0,0.375,48,128.84
982,E5,123.0,0.375,48,128.84
983,B-5,123.25,0.25,46,128.84
984,C#6,123.25,0.25,46,128.84
985,G#5,123.375,0.375,48,128.84
986,F5,123.375,0.375,48,128.84
987,D6,123.5,0.5,47,128.84
988,B5,123.5,0.5,47,128.84
989,A5,123.75,0.375,50,128.84
990,F#5,123.75,0.375,50,128.84
991,E-6,124.0,0.25,48,128.84
992,C6,124.0,0.25,48,128.84
993,B-5,124.125,0.375,52,128.84
994,G5,124.125,0.375,52,128.84
995,E6,124.25,0.5,48,128.84
996,C#6,124.25,0.5,48,128.84
997,G#5,124.5,0.375,52,128.84
998,B5,124.5,0.375,52,128.84
999,F6,124.75,0.25,50,128.84
1000,D6,124.75,0.25,50,128.84
1001,C6,124.875,0.375,52,128.84
1002,A5,124.875,0.375,52,128.84
1003,E-6,125.0,0.5,50,128.84
1004,F#6,125.0,0.5,50,128.84
1005,B-5,125.25,0.375,53,128.84
1006,C#6,125.25,0.375,53,128.84
1007,G6,125.5,0.25,52,128.84
1008,E6,125.5,0.25,52,128.84
1009,B5,125.625,0.375,54,128.84
1010,D6,125.625,0.375,54,128.84
1011,G#6,125.75,0.25,53,128.84
1012,F6,125.75,0.25,53,128.84
1013,C6,126.0,0.375,54,128.84
1014,E-6,126.0,0.375,54,128.84
1015,G#6,126.25,0.25,53,128.84
1016,F6,126.25,0.25,53,128.84
1017,C#6,126.375,0.375,56,128.84
1018,E6,126.375,0.375,56,128.84
1019,A6,126.5,0.25,54,128.84
1020,F#6,126.5,0.25,54,128.84
1021,B-6,126.75,0.5,56,128.84
1022,G6,126.75,0.5,56,128.84
1023,D6,126.75,0.375,57,128.84
1024,F6,126.75,0.375,57,128.84
1025,E-6,127.125,0.375,58,128.84
1026,F#6,127.125,0.375,58,128.84
1027,B6,127.25,0.25,56,128.84
1028,G#6,127.25,0.25,56,128.84
1029,C7,127.5,0.25,57,128.84
1030,A6,127.5,0.25,57,128.84
1031,G6,127.5,0.25,58,128.84
1032,E6,127.5,0.25,58,128.84
1033,B-6,127.75,0.25,58,128.84
1034,C#7,127.75,0.25,58,128.84
1035,F6,127.75,0.25,58,128.84
1036,G#6,127.75,0.25,58,128.84
1037,D7,128.0,0.25,58,128.84
1038,B6,128.0,0.25,58,128.84
1039,A6,128.0,0.25,58,128.84
1040,F#6,128.0,0.25,58,128.84
1041,E-7,128.25,0.25,58,128.84
1042,C7,128.25,0.25,58,128.84
1043,G6,128.25,0.5,77,128.84
1044,B-6,128.25,0.5,77,128.84
1045,E7,128.5,0.5,69,128.84
1046,C#7,128.5,0.5,69,128.84
1047,F#2,132.0,0.25,40,128.84
1048,C4,132.25,0.5,45,128.84
1049,G#2,132.25,0.25,31,128.84
1050,G#3,132.5,0.5,36,128.84
1051,C4,132.75,0.25,42,128.84
1052,B-3,133.0,0.5,45,128.84
1053,G#2,133.0,0.25,32,128.84
1054,F#2,133.25,0.5,36,128.84
1055,C4,133.5,0.25,42,128.84
1056,C#4,133.75,0.5,47,128.84
1057,G#2,133.75,0.25,30,128.84
1058,G#3,134.0,0.5,36,128.84
1059,E-4,134.25,0.25,44,128.84
1060,C4,134.5,0.5,47,128.84
1061,G#2,134.5,0.25,33,128.84
1062,F#2,134.75,0.25,33,128.84
1063,C#4,135.0,0.25,44,128.84
1064,F#2,135.0,0.25,33,128.84
1065,B-3,135.25,0.5,45,128.84
1066,G#2,135.25,0.25,36,128.84
1067,G#3,135.5,0.5,43,128.84
1068,C#4,136.0,0.5,47,128.84
1069,G#2,136.0,0.25,36,128.84
1070,F2,136.25,0.5,32,128.84
1071,C4,136.5,0.25,44,128.84
1072,G#3,136.75,0.75,47,128.84
1073,B-3,136.75,0.5,47,128.84
1074,G#2,136.75,0.25,36,128.84
1075,G#3,137.0,0.5,31,128.84
1076,C4,137.25,0.25,44,128.84
1077,G3,137.5,0.75,47,128.84
1078,C#4,137.5,0.5,47,128.84
1079,G#2,137.5,0.25,36,128.84
1080,E2,137.75,0.25,36,128.84
1081,C#4,138.0,0.25,45,128.84
1082,E-2,138.0,0.25,40,128.84
1083,F#3,138.25,1.5,47,128.84
1084,C4,138.25,0.5,45,128.84
1085,G#2,138.25,0.25,31,128.84
1086,G#3,138.5,0.5,36,128.84
1087,C4,138.75,0.25,42,128.84
1088,B-3,139.0,0.5,45,128.84
1089,G#2,139.0,0.25,32,128.84
1090,E-2,139.25,0.5,36,128.84
1091,C4,139.5,0.25,42,128.84
1092,G#2,139.75,0.25,30,128.84
1093,F#3,139.75,0.5,42,128.84
1094,C#4,139.75,0.5,42,128.84
1095,G#3,140.0,0.5,36,128.84
1096,E-4,140.25,0.25,44,128.84
1097,G#2,140.5,0.25,33,128.84
1098,F#3,140.5,0.5,42,128.84
1099,C4,140.5,0.5,42,128.84
1100,E-2,140.75,0.25,33,128.84
1101,C#4,141.0,0.25,44,128.84
1102,C#2,141.0,0.25,41,128.84
1103,F3,141.25,1.5,47,128.84
1104,B-3,141.25,0.5,47,128.84
1105,G#2,141.25,0.25,36,128.84
1106,G#3,141.5,0.5,43,128.84
1107,C#4,142.0,0.5,47,128.84
1108,A3,142.0,0.25,36,128.84
1109,A2,142.25,0.25,32,128.84
1110,C4,142.5,0.25,44,128.84
1111,C#2,142.5,0.25,41,128.84
1112,F3,142.75,0.75,47,128.84
1113,B-3,142.75,0.5,47,128.84
1114,B-2,142.75,0.25,36,128.84
1115,B-3,143.0,0.5,31,128.84
1116,C4,143.25,0.25,44,128.84
1117,F3,143.5,0.75,47,128.84
1118,C#4,143.5,0.5,47,128.84
1119,B-2,143.5,0.25,36,128.84
1120,C#2,143.75,0.25,36,128.84
1121,E-4,144.0,0.25,45,128.84
1122,C#2,144.0,0.25,36,128.84
1123,B3,144.25,1.5,50,128.84
1124,F4,144.25,0.5,50,128.84
1125,C#3,144.25,0.25,34,128.84
1126,C#4,144.5,0.5,40,128.84
1127,F4,144.75,0.25,45,128.84
1128,E-4,145.0,0.5,50,128.84
1129,C#3,145.0,0.25,35,128.84
1130,B2,145.25,0.5,40,128.84
1131,F4,145.5,0.25,45,128.84
1132,G#3,145.75,1.5,50,128.84
1133,F#4,145.75,0.5,53,128.84
1134,C#3,145.75,0.25,33,128.84
1135,B3,146.0,0.5,40,128.84
1136,G#4,146.25,0.25,46,128.84
1137,F4,146.5,0.5,53,128.84
1138,C#3,146.5,0.25,36,128.84
1139,B2,146.75,0.25,36,128.84
1140,F#4,147.0,0.25,47,128.84
1141,B-2,147.0,0.25,41,128.84
1142,F#3,147.25,1.5,50,128.84
1143,E-4,147.25,0.5,50,128.84
1144,C#3,147.25,0.25,40,128.84
1145,B-3,147.5,0.5,35,128.84
1146,C#4,147.75,0.25,45,128.84
1147,F#4,148.0,0.5,53,128.84
1148,D3,148.0,0.25,40,128.84
1149,B-2,148.25,0.5,35,128.84
1150,F4,148.5,0.25,47,128.84
1151,F#3,148.75,0.75,53,128.84
1152,E-4,148.75,0.5,53,128.84
1153,E-3,148.75,0.25,40,128.84
1154,B-3,149.0,0.5,34,128.84
1155,F4,149.25,0.25,47,128.84
1156,E-4,149.5,0.75,53,128.84
1157,F#4,149.5,0.5,53,128.84
1158,E-3,149.5,0.25,40,128.84
1159,B-2,149.75,0.25,40,128.84
1160,F#4,150.0,0.25,50,128.84
1161,B-2,150.0,0.25,40,128.84
1162,C#4,150.25,1.5,54,128.84
1163,G4,150.25,0.5,54,128.84
1164,E3,150.25,0.25,36,128.84
1165,B-3,150.5,0.5,44,128.84
1166,G4,150.75,0.25,50,128.84
1167,F4,151.0,0.5,54,128.84
1168,E3,151.0,0.25,37,128.84
1169,B-2,151.25,0.5,44,128.84
1170,G4,151.5,0.25,50,128.84
1171,C#4,151.75,1.5,54,128.84
1172,G#4,151.75,0.5,57,128.84
1173,E3,151.75,0.25,36,128.84
1174,B-3,152.0,0.5,44,128.84
1175,B-4,152.25,0.25,52,128.84
1176,G4,152.5,0.5,57,128.84
1177,E3,152.5,0.25,40,128.84
1178,B-2,152.75,0.25,40,128.84
1179,G#4,153.0,0.25,53,128.84
1180,B-2,153.0,0.25,40,128.84
1181,C#4,153.25,1.5,54,128.84
1182,F4,153.25,0.5,54,128.84
1183,F3,153.25,0.25,44,128.84
1184,B-3,153.5,0.5,37,128.84
1185,E4,153.75,0.25,52,128.84
1186,G#4,154.0,0.5,59,128.84
1187,F3,154.0,0.25,44,128.84
1188,B-2,154.25,0.5,41,128.84
1189,G4,154.5,0.25,54,128.84
1190,C#4,154.75,0.75,61,128.84
1191,F4,154.75,0.5,61,128.84
1192,F3,154.75,0.25,45,128.84
1193,B-3,155.0,0.5,40,128.84
1194,G4,155.25,0.25,55,128.84
1195,C#4,155.5,0.75,62,128.84
1196,E3,155.5,0.25,45,128.84
1197,F4,155.5,0.5,62,128.84
1198,G#4,155.5,0.5,62,128.84
1199,B-2,155.75,0.25,45,128.84
1200,E-3,155.75,0.25,45,128.84
1201,G4,156.0,0.25,59,128.84
1202,B-4,156.0,0.25,59,128.84
1203,C#2,156.0,3.0,54,128.84
1204,G#2,156.0,3.0,54,128.84
1205,C#4,156.5,0.188,53,128.84
1206,C4,156.5,0.188,47,128.84
1207,E-4,156.5,0.188,47,128.84
1208,F#4,156.5,0.188,47,128.84
1209,C5,156.5,0.188,47,128.84
1210,B-3,157.0,0.188,53,128.84
1211,C4,157.0,0.188,47,128.84
1212,E-4,157.0,0.188,47,128.84
1213,F#4,157.0,0.188,47,128.84
1214,C5,157.0,0.188,47,128.84
1215,C#4,157.5,0.188,53,128.84
1216,C4,157.5,0.188,54,128.84
1217,E-4,157.5,0.188,54,128.84
1218,F#4,157.5,0.188,54,128.84
1219,C5,157.5,0.188,54,128.84
1220,C#4,158.0,0.188,55,128.84
1221,E-5,158.0,0.188,57,128.84
1222,F#4,158.0,0.188,57,128.84
1223,E-4,158.0,0.188,57,128.84
1224,C#4,158.5,0.188,47,128.84
1225,C4,158.5,0.188,50,128.84
1226,E-4,158.5,0.188,50,128.84
1227,F#4,158.5,0.188,50,128.84
1228,C5,158.5,0.188,50,128.84
1229,C4,159.0,0.188,43,128.84
1230,E-4,159.0,0.188,43,128.84
1231,F#4,159.0,0.188,43,128.84
1232,C5,159.0,0.188,43,128.84
1233,C#2,159.0,3.0,54,128.84
1234,G#2,159.0,3.0,54,128.84
1235,G#3,159.5,0.188,53,128.84
1236,B-3,159.5,0.188,47,128.84
1237,C#4,159.5,0.188,47,128.84
1238,F4,159.5,0.188,47,128.84
1239,B-4,159.5,0.188,47,128.84
1240,C4,160.0,0.188,53,128.84
1241,C#4,160.0,0.188,47,128.84
1242,F4,160.0,0.188,47,128.84
1243,G#4,160.0,0.188,47,128.84
1244,C#5,160.0,0.188,47,128.84
1245,A3,160.5,0.188,53,128.84
1246,C#4,160.5,0.188,47,128.84
1247,F4,160.5,0.188,47,128.84
1248,G#4,160.5,0.188,47,128.84
1249,C#5,160.5,0.188,47,128.84
1250,C4,161.0,0.188,62,128.84
1251,G4,161.0,0.188,51,128.84
1252,B-4,161.0,0.188,51,128.84
1253,E4,161.0,0.188,51,128.84
1254,B-3,161.0,0.188,51,128.84
1255,C4,161.5,0.188,52,128.84
1256,C#4,161.5,0.188,58,128.84
1257,E4,161.5,0.188,58,128.84
1258,G4,161.5,0.188,58,128.84
1259,C#5,161.5,0.188,58,128.84
1260,B-3,162.0,0.188,50,128.84
1261,E4,162.0,0.188,50,128.84
1262,G4,162.0,0.188,50,128.84
1263,B-4,162.0,0.188,50,128.84
1264,C#2,162.0,3.0,58,128.84
1265,G#2,162.0,3.0,58,128.84
1266,C#4,162.5,0.188,59,128.84
1267,C4,162.5,0.188,48,128.84
1268,E-4,162.5,0.188,48,128.84
1269,F#4,162.5,0.188,48,128.84
1270,C5,162.5,0.188,48,128.84
1271,B-3,163.0,0.188,57,128.84
1272,C4,163.0,0.188,46,128.84
1273,E-4,163.0,0.188,46,128.84
1274,F#4,163.0,0.188,46,128.84
1275,C5,163.0,0.188,46,128.84
1276,C#4,163.5,0.188,59,128.84
1277,C4,163.5,0.188,52,128.84
1278,E-4,163.5,0.188,52,128.84
1279,F#4,163.5,0.188,52,128.84
1280,C5,163.5,0.188,52,128.84
1281,C#4,164.0,0.188,62,128.84
1282,E-5,164.0,0.188,53,128.84
1283,F#4,164.0,0.188,53,128.84
1284,E-4,164.0,0.188,53,128.84
1285,C#4,164.5,0.188,53,128.84
1286,C4,164.5,0.188,46,128.84
1287,E-4,164.5,0.188,46,128.84
1288,F#4,164.5,0.188,46,128.84
1289,C5,164.5,0.188,46,128.84
1290,C4,165.0,0.188,44,128.84
1291,E-4,165.0,0.188,44,128.84
1292,F#4,165.0,0.188,44,128.84
1293,C5,165.0,0.188,44,128.84
1294,C#2,165.0,3.0,58,128.84
1295,G#2,165.0,3.0,58,128.84
1296,G#3,165.5,0.188,59,128.84
1297,B-3,165.5,0.188,48,128.84
1298,C#4,165.5,0.188,48,128.84
1299,F4,165.5,0.188,48,128.84
1300,B-4,165.5,0.188,48,128.84
1301,C4,166.0,0.188,57,128.84
1302,C#4,166.0,0.188,48,128.84
1303,F4,166.0,0.188,48,128.84
1304,G#4,166.0,0.188,48,128.84
1305,C#5,166.0,0.188,48,128.84
1306,A3,166.5,0.188,59,128.84
1307,C#4,166.5,0.188,46,128.84
1308,F4,166.5,0.188,46,128.84
1309,G#4,166.5,0.188,46,128.84
1310,C#5,166.5,0.188,46,128.84
1311,C4,167.0,0.188,61,128.84
1312,E4,167.0,0.188,48,128.84
1313,G4,167.0,0.188,48,128.84
1314,B-4,167.0,0.188,48,128.84
1315,B-3,167.0,0.188,48,128.84
1316,C4,167.5,0.188,56,128.84
1317,C#4,167.5,0.188,56,128.84
1318,F4,167.5,0.188,56,128.84
1319,C#5,167.5,0.188,56,128.84
1320,B-3,168.0,0.188,49,128.84
1321,F#4,168.0,0.188,49,128.84
1322,B-4,168.0,0.188,49,128.84
1323,G#3,168.0,3.0,66,128.84
1324,C#3,168.0,3.0,66,128.84
1325,B3,168.0,3.0,66,128.84
1326,F#4,168.5,0.188,66,128.84
1327,F4,168.5,0.188,54,128.84
1328,G#4,168.5,0.188,54,128.84
1329,B4,168.5,0.188,54,128.84
1330,F5,168.5,0.188,54,128.84
1331,E-4,169.0,0.188,66,128.84
1332,F5,169.0,0.188,53,128.84
1333,F4,169.0,0.188,53,128.84
1334,G#4,169.0,0.188,53,128.84
1335,B4,169.0,0.188,53,128.84
1336,F#4,169.5,0.188,67,128.84
1337,F4,169.5,0.188,58,128.84
1338,G#4,169.5,0.188,58,128.84
1339,B4,169.5,0.188,58,128.84
1340,F5,169.5,0.188,58,128.84
1341,F#4,170.0,0.188,70,128.84
1342,G#5,170.0,0.188,66,128.84
1343,B4,170.0,0.188,66,128.84
1344,G#4,170.0,0.188,66,128.84
1345,F#4,170.5,0.188,62,128.84
1346,F4,170.5,0.188,56,128.84
1347,G#4,170.5,0.188,56,128.84
1348,B4,170.5,0.188,56,128.84
1349,F5,170.5,0.188,56,128.84
1350,F4,171.0,0.188,50,128.84
1351,G#4,171.0,0.188,50,128.84
1352,B4,171.0,0.188,50,128.84
1353,F5,171.0,0.188,50,128.84
1354,C#3,171.0,3.0,66,128.84
1355,F#3,171.0,3.0,66,128.84
1356,B-3,171.0,3.0,66,128.84
1357,C#4,171.5,0.188,66,128.84
1358,E-4,171.5,0.188,54,128.84
1359,F#4,171.5,0.188,54,128.84
1360,B-4,171.5,0.188,54,128.84
1361,E-5,171.5,0.188,54,128.84
1362,F4,172.0,0.188,65,128.84
1363,F#4,172.0,0.188,52,128.84
1364,B-4,172.0,0.188,52,128.84
1365,C#5,172.0,0.188,52,128.84
1366,F#5,172.0,0.188,52,128.84
1367,D4,172.5,0.188,66,128.84
1368,F#4,172.5,0.188,52,128.84
1369,B-4,172.5,0.188,52,128.84
1370,C#5,172.5,0.188,52,128.84
1371,F#5,172.5,0.188,52,128.84
1372,F4,173.0,0.188,74,128.84
1373,F#4,173.0,0.188,54,128.84
1374,B-4,173.0,0.188,54,128.84
1375,E-5,173.0,0.188,54,128.84
1376,E-4,173.0,0.188,54,128.84
1377,F4,173.5,0.188,64,128.84
1378,F#4,173.5,0.188,68,128.84
1379,B-4,173.5,0.188,68,128.84
1380,F#5,173.5,0.188,68,128.84
1381,F#4,174.0,0.188,54,128.84
1382,E-4,174.0,0.188,54,128.84
1383,B-4,174.0,0.188,54,128.84
1384,E-5,174.0,0.188,54,128.84
1385,E3,174.0,3.0,72,128.84
1386,C#3,174.0,3.0,72,128.84
1387,B-3,174.0,3.0,72,128.84
1388,G#4,174.5,0.188,73,128.84
1389,G4,174.5,0.188,60,128.84
1390,B-4,174.5,0.188,60,128.84
1391,C#5,174.5,0.188,60,128.84
1392,G5,174.5,0.188,60,128.84
1393,F4,175.0,0.188,73,128.84
1394,G5,175.0,0.188,59,128.84
1395,G4,175.0,0.188,59,128.84
1396,B-4,175.0,0.188,59,128.84
1397,C#5,175.0,0.188,59,128.84
1398,G#4,175.5,0.188,74,128.84
1399,G4,175.5,0.188,66,128.84
1400,B-4,175.5,0.188,66,128.84
1401,C#5,175.5,0.188,66,128.84
1402,G5,175.5,0.188,66,128.84
1403,G#4,176.0,0.188,77,128.84
1404,B-5,176.0,0.188,72,128.84
1405,C#5,176.0,0.188,72,128.84
1406,B-4,176.0,0.188,72,128.84
1407,G#4,176.5,0.188,66,128.84
1408,G4,176.5,0.188,68,128.84
1409,B-4,176.5,0.188,68,128.84
1410,C#5,176.5,0.188,68,128.84
1411,G5,176.5,0.188,68,128.84
1412,G4,177.0,0.188,58,128.84
1413,B-4,177.0,0.188,58,128.84
1414,C#5,177.0,0.188,58,128.84
1415,G5,177.0,0.188,58,128.84
1416,C#3,177.0,3.0,75,128.84
1417,F3,177.0,3.0,75,128.84
1418,B-3,177.0,3.0,75,128.84
1419,E4,177.5,0.188,79,128.84
1420,F4,177.5,0.188,65,128.84
1421,B-4,177.5,0.188,65,128.84
1422,C#5,177.5,0.188,65,128.84
1423,F5,177.5,0.188,65,128.84
1424,G4,178.0,0.188,73,128.84
1425,G#4,178.0,0.188,62,128.84
1426,B-4,178.0,0.188,62,128.84
1427,C#5,178.0,0.188,62,128.84
1428,G#5,178.0,0.188,62,128.84
1429,E4,178.5,0.188,81,128.84
1430,G#4,178.5,0.188,62,128.84
1431,B-4,178.5,0.188,62,128.84
1432,C#5,178.5,0.188,62,128.84
1433,G#5,178.5,0.188,62,128.84
1434,F#4,179.0,0.188,81,128.84
1435,B-4,179.0,0.188,65,128.84
1436,C#5,179.0,0.188,65,128.84
1437,F5,179.0,0.188,65,128.84
1438,F#4,179.0,0.188,65,128.84
1439,G#4,179.5,0.188,75,128.84
1440,C#5,179.5,0.188,71,128.84
1441,G4,179.5,0.188,71,128.84
1442,F5,179.5,0.188,71,128.84
1443,G5,179.5,0.188,71,128.84
1444,C#5,180.0,0.188,72,128.84
1445,A4,180.0,0.188,72,128.84
1446,F5,180.0,0.188,72,128.84
1447,A5,180.0,0.188,72,128.84
1448,G#2,180.0,0.188,77,128.84
1449,C#3,180.0,0.188,77,128.84
1450,F#3,180.0,0.188,77,128.84
1451,B-3,180.5,0.188,83,128.84
1452,C#4,180.5,0.188,83,128.84
1453,B-4,180.75,0.188,76,128.84
1454,F#4,180.75,0.188,76,128.84
1455,B-5,180.75,0.188,94,128.84
1456,F#5,180.75,0.188,94,128.84
1457,A4,181.25,0.188,71,128.84
1458,F4,181.25,0.188,71,128.84
1459,B-4,181.5,0.188,63,128.84
1460,F#4,181.5,0.188,63,128.84
1461,D4,181.5,0.188,68,128.84
1462,F4,181.5,0.188,68,128.84
1463,F#4,182.0,0.188,72,128.84
1464,E-4,182.0,0.188,72,128.84
1465,F4,182.0,0.188,63,128.84
1466,A4,182.0,0.188,63,128.84
1467,F#4,182.5,0.5,75,128.84
1468,B-4,182.5,0.188,84,128.84
1469,C#5,182.75,0.188,82,128.84
1470,G#4,183.0,0.188,76,128.84
1471,C5,183.0,0.188,76,128.84
1472,G#2,183.0,0.188,65,128.84
1473,C#3,183.0,0.188,65,128.84
1474,F3,183.0,0.188,65,128.84
1475,G#3,183.5,0.188,77,128.84
1476,C#4,183.5,0.188,77,128.84
1477,G#4,183.75,0.188,70,128.84
1478,F4,183.75,0.188,70,128.84
1479,F5,183.75,0.188,96,128.84
1480,G#5,183.75,0.188,96,128.84
1481,C#4,184.25,0.188,74,128.84
1482,F4,184.25,0.188,74,128.84
1483,E-4,184.5,0.188,66,128.84
1484,F#4,184.5,0.188,66,128.84
1485,F4,184.5,0.188,69,128.84
1486,G#4,184.5,0.188,69,128.84
1487,F#4,185.0,0.188,66,128.84
1488,B-4,185.0,0.188,66,128.84
1489,F4,185.25,0.188,63,128.84
1490,G#4,185.25,0.188,63,128.84
1491,C#4,185.25,0.75,78,128.84
1492,F4,185.25,0.75,78,128.84
1493,G#3,186.0,0.188,75,128.84
1494,C#4,186.0,0.188,75,128.84
1495,F#4,186.0,0.188,75,128.84
1496,B-4,186.5,0.188,75,128.84
1497,C#5,186.5,0.188,75,128.84
1498,B-5,186.75,0.188,67,128.84
1499,F#5,186.75,0.188,67,128.84
1500,B-6,186.75,0.188,80,128.84
1501,F#6,186.75,0.188,80,128.84
1502,A5,187.25,0.188,61,128.84
1503,F5,187.25,0.188,61,128.84
1504,B-5,187.5,0.188,56,128.84
1505,F#5,187.5,0.188,56,128.84
1506,D5,187.5,0.188,67,128.84
1507,F5,187.5,0.188,67,128.84
1508,F#5,188.0,0.188,64,128.84
1509,E-5,188.0,0.188,64,128.84
1510,F5,188.0,0.188,57,128.84
1511,A5,188.0,0.188,57,128.84
1512,F#5,188.5,0.5,70,128.84
1513,B-5,188.5,0.188,79,128.84
1514,C#6,188.75,0.188,74,128.84
1515,G#5,189.0,0.188,67,128.84
1516,C6,189.0,0.188,67,128.84
1517,G#3,189.0,0.188,62,128.84
1518,C#4,189.0,0.188,62,128.84
1519,F4,189.0,0.188,62,128.84
1520,G#4,189.5,0.188,68,128.84
1521,C#5,189.5,0.188,68,128.84
1522,G#5,189.75,0.188,63,128.84
1523,F5,189.75,0.188,63,128.84
1524,F6,189.75,0.188,83,128.84
1525,G#6,189.75,0.188,83,128.84
1526,C#5,190.25,0.188,66,128.84
1527,F5,190.25,0.188,66,128.84
1528,E-5,190.5,0.188,58,128.84
1529,F#5,190.5,0.188,58,128.84
1530,F5,190.5,0.188,60,128.84
1531,G#5,190.5,0.188,60,128.84
1532,F#5,191.0,0.188,58,128.84
1533,B-5,191.0,0.188,58,128.84
1534,F5,191.25,0.188,56,128.84
1535,G#5,191.25,0.188,56,128.84
1536,C#5,191.25,0.75,69,128.84
1537,F5,191.25,0.75,69,128.84
1538,F#4,192.0,0.375,74,128.84
1539,E-4,192.0,0.375,74,128.84
1540,B-3,192.0,0.375,74,128.84
1541,C#3,192.375,0.375,71,128.84
1542,F#4,192.5,0.188,82,128.84
1543,B-4,192.5,0.188,82,128.84
1544,F#5,192.5,0.188,82,128.84
1545,E-5,192.5,0.188,82,128.84
1546,G#5,192.75,0.5,81,128.84
1547,G#4,192.75,0.5,81,128.84
1548,F#4,192.75,0.375,74,128.84
1549,E-4,192.75,0.375,74,128.84
1550,B-3,192.75,0.375,74,128.84
1551,C#2,193.125,0.375,69,128.84
1552,A5,193.25,0.188,88,128.84
1553,F#5,193.25,0.188,88,128.84
1554,E-5,193.25,0.188,88,128.84
1555,A4,193.25,0.188,88,128.84
1556,B-5,193.5,0.188,82,128.84
1557,B-4,193.5,0.188,82,128.84
1558,G#3,193.5,0.375,78,128.84
1559,E-4,193.5,0.375,78,128.84
1560,F#4,193.5,0.375,78,128.84
1561,E-6,193.75,0.188,96,128.84
1562,F#5,193.75,0.188,96,128.84
1563,E-5,193.75,0.188,96,128.84
1564,C#3,193.875,0.375,61,128.84
1565,D6,194.0,0.188,83,128.84
1566,D5,194.0,0.188,83,128.84
1567,C#6,194.25,0.188,90,128.84
1568,C#5,194.25,0.188,90,128.84
1569,G#3,194.25,0.375,66,128.84
1570,E-4,194.25,0.375,66,128.84
1571,F#4,194.25,0.375,66,128.84
1572,C5,194.5,0.188,80,128.84
1573,C6,194.5,0.188,80,128.84
1574,C#2,194.625,0.375,63,128.84
1575,B4,194.75,0.188,83,128.84
1576,B5,194.75,0.188,83,128.84
1577,B-5,195.0,0.188,83,128.84
1578,B-4,195.0,0.188,83,128.84
1579,F4,195.0,0.375,59,128.84
1580,C#4,195.0,0.375,59,128.84
1581,G#3,195.0,0.375,59,128.84
1582,A5,195.25,0.188,83,128.84
1583,F5,195.25,0.188,83,128.84
1584,A4,195.25,0.188,83,128.84
1585,C#3,195.375,0.375,54,128.84
1586,G#5,195.5,0.188,75,128.84
1587,G#4,195.5,0.188,75,128.84
1588,C#5,195.75,0.5,83,128.84
1589,C#6,195.75,0.5,83,128.84
1590,F#4,195.75,0.375,52,128.84
1591,E-4,195.75,0.375,52,128.84
1592,A3,195.75,0.375,52,128.84
1593,C#2,196.125,0.375,44,128.84
1594,C6,196.25,0.5,71,128.84
1595,F#5,196.25,0.5,71,128.84
1596,C5,196.25,0.5,71,128.84
1597,B5,196.5,0.188,73,128.84
1598,B4,196.5,0.188,73,128.84
1599,F4,196.5,0.375,47,128.84
1600,C#4,196.5,0.375,47,128.84
1601,B-3,196.5,0.375,47,128.84
1602,B-5,196.75,0.188,69,128.84
1603,F5,196.75,0.188,69,128.84
1604,B-4,196.75,0.188,69,128.84
1605,C#3,196.875,1.125,45,128.84
1606,G#5,197.0,0.188,66,128.84
1607,G#4,197.0,0.188,66,128.84
1608,B-5,197.25,0.188,62,128.84
1609,B-4,197.25,0.188,62,128.84
1610,D4,197.25,0.75,55,128.84
1611,B3,197.25,0.75,55,128.84
1612,G#3,197.25,0.75,55,128.84
1613,F5,197.5,0.75,66,128.84
1614,D5,197.5,0.75,66,128.84
1615,G#4,197.5,0.75,66,128.84
1616,F4,197.5,0.75,66,128.84
1617,F#4,198.0,0.375,74,128.84
1618,E-4,198.0,0.375,74,128.84
1619,B-3,198.0,0.375,74,128.84
1620,C#3,198.375,0.375,71,128.84
1621,F#5,198.5,0.188,77,128.84
1622,B-5,198.5,0.188,77,128.84
1623,F#6,198.5,0.188,77,128.84
1624,E-6,198.5,0.188,77,128.84
1625,G#6,198.75,0.5,72,128.84
1626,G#5,198.75,0.5,72,128.84
1627,F#4,198.75,0.375,74,128.84
1628,E-4,198.75,0.375,74,128.84
1629,B-3,198.75,0.375,74,128.84
1630,C#2,199.125,0.375,69,128.84
1631,A6,199.25,0.188,89,128.84
1632,F#6,199.25,0.188,89,128.84
1633,E-6,199.25,0.188,89,128.84
1634,A5,199.25,0.188,89,128.84
1635,B-6,199.5,0.188,77,128.84
1636,B-5,199.5,0.188,77,128.84
1637,G#3,199.5,0.375,78,128.84
1638,E-4,199.5,0.375,78,128.84
1639,F#4,199.5,0.375,78,128.84
1640,E-7,199.75,0.188,91,128.84
1641,F#6,199.75,0.188,91,128.84
1642,E-6,199.75,0.188,91,128.84
1643,C#3,199.875,0.375,64,128.84
1644,D7,200.0,0.188,78,128.84
1645,D6,200.0,0.188,78,128.84
1646,C#7,200.25,0.188,85,128.84
1647,C#6,200.25,0.188,85,128.84
1648,G#3,200.25,0.375,66,128.84
1649,E-4,200.25,0.375,66,128.84
1650,F#4,200.25,0.375,66,128.84
1651,C6,200.5,0.188,78,128.84
1652,C7,200.5,0.188,78,128.84
1653,C#2,200.625,0.375,63,128.84
1654,B5,200.75,0.188,80,128.84
1655,B6,200.75,0.188,80,128.84
1656,B-6,201.0,0.188,78,128.84
1657,B-5,201.0,0.188,78,128.84
1658,F4,201.0,0.375,59,128.84
1659,C#4,201.0,0.375,59,128.84
1660,G#3,201.0,0.375,59,128.84
1661,A6,201.25,0.188,82,128.84
1662,F6,201.25,0.188,82,128.84
1663,A5,201.25,0.188,82,128.84
1664,C#3,201.375,0.375,54,128.84
1665,G#6,201.5,0.188,71,128.84
1666,G#5,201.5,0.188,71,128.84
1667,C#6,201.75,0.5,78,128.84
1668,C#7,201.75,0.5,78,128.84
1669,F#4,201.75,0.375,52,128.84
1670,E-4,201.75,0.375,52,128.84
1671,A3,201.75,0.375,52,128.84
1672,C#2,202.125,0.375,44,128.84
1673,C7,202.25,0.5,60,128.84
1674,F#6,202.25,0.5,60,128.84
1675,C6,202.25,0.5,60,128.84
1676,B6,202.5,0.188,70,128.84
1677,B5,202.5,0.188,70,128.84
1678,F4,202.5,0.375,47,128.84
1679,C#4,202.5,0.375,47,128.84
1680,B-3,202.5,0.375,47,128.84
1681,B-6,202.75,0.188,68,128.84
1682,F6,202.75,0.188,68,128.84
1683,B-5,202.75,0.188,68,128.84
1684,C#3,202.875,0.375,45,128.84
1685,G#6,203.0,0.188,62,128.84
1686,G#5,203.0,0.188,62,128.84
1687,B-6,203.25,0.188,59,128.84
1688,B-5,203.25,0.188,59,128.84
1689,D4,203.25,0.75,54,128.84
1690,B4,203.25,0.75,54,128.84
1691,G#4,203.25,0.75,54,128.84
1692,B3,203.25,0.75,54,128.84
1693,F6,203.5,0.75,60,128.84
1694,D6,203.5,0.75,60,128.84
1695,G#5,203.5,0.75,60,128.84
1696,F5,203.5,0.75,60,128.84
1697,C#2,204.0,0.188,41,128.84
1698,D3,204.25,0.188,51,128.84
1699,G#2,204.25,0.188,36,128.84
1700,C#2,204.5,0.188,41,128.84
1701,F#3,204.5,0.188,47,128.84
1702,E-3,204.5,0.188,47,128.84
1703,F3,204.75,0.188,47,128.84
1704,G#2,204.75,0.188,36,128.84
1705,C#2,205.0,0.188,43,128.84
1706,B-3,205.0,0.188,54,128.84
1707,F#3,205.0,0.188,54,128.84
1708,A3,205.25,0.188,52,128.84
1709,G#2,205.25,0.188,40,128.84
1710,C#2,205.5,0.188,45,128.84
1711,B-3,205.5,0.188,52,128.84
1712,C#4,205.5,0.188,52,128.84
1713,B3,205.75,0.188,52,128.84
1714,G#2,205.75,0.188,41,128.84
1715,C#3,206.0,0.188,41,128.84
1716,C4,206.0,0.188,53,128.84
1717,E-4,206.0,0.188,53,128.84
1718,G#3,206.25,0.188,44,128.84
1719,B-3,206.25,0.188,46,128.84
1720,C#4,206.25,0.188,46,128.84
1721,C#3,206.5,0.188,41,128.84
1722,G#3,206.5,0.188,46,128.84
1723,C4,206.5,0.188,46,128.84
1724,G3,206.75,0.188,52,128.84
1725,G#2,206.75,0.188,41,128.84
1726,C#2,207.0,0.188,41,128.84
1727,F#3,207.0,0.188,51,128.84
1728,B-3,207.0,0.188,51,128.84
1729,E3,207.25,0.188,51,128.84
1730,G#2,207.25,0.188,36,128.84
1731,C#2,207.5,0.188,41,128.84
1732,F3,207.5,0.188,47,128.84
1733,G#3,207.5,0.188,47,128.84
1734,G3,207.75,0.188,47,128.84
1735,G#2,207.75,0.188,36,128.84
1736,C#2,208.0,0.188,43,128.84
1737,G#3,208.0,0.188,56,128.84
1738,C4,208.0,0.188,56,128.84
1739,B3,208.25,0.188,53,128.84
1740,G#2,208.25,0.188,40,128.84
1741,C#2,208.5,0.188,45,128.84
1742,C4,208.5,0.188,53,128.84
1743,E-4,208.5,0.188,53,128.84
1744,C4,208.75,0.188,52,128.84
1745,G#2,208.75,0.188,41,128.84
1746,C#3,209.0,0.188,41,128.84
1747,C#4,209.0,0.188,53,128.84
1748,F4,209.0,0.188,53,128.84
1749,G#3,209.25,0.188,44,128.84
1750,C4,209.25,0.188,50,128.84
1751,E-4,209.25,0.188,50,128.84
1752,C#3,209.5,0.188,41,128.84
1753,B-3,209.5,0.188,51,128.84
1754,C#4,209.5,0.188,51,128.84
1755,A3,209.75,0.188,53,128.84
1756,G#2,209.75,0.188,41,128.84
1757,C#2,210.0,0.188,41,128.84
1758,G#3,210.0,0.188,53,128.84
1759,C4,210.0,0.188,53,128.84
1760,F3,210.25,0.188,51,128.84
1761,G#2,210.25,0.188,36,128.84
1762,C#2,210.5,0.188,41,128.84
1763,F#3,210.5,0.188,47,128.84
1764,B-3,210.5,0.188,47,128.84
1765,A3,210.75,0.188,47,128.84
1766,G#2,210.75,0.188,36,128.84
1767,C#2,211.0,0.188,43,128.84
1768,B-3,211.0,0.188,54,128.84
1769,C#4,211.0,0.188,54,128.84
1770,C4,211.25,0.188,52,128.84
1771,G#2,211.25,0.188,40,128.84
1772,C#2,211.5,0.188,45,128.84
1773,F4,211.5,0.188,52,128.84
1774,C#4,211.5,0.188,52,128.84
1775,D4,211.75,0.188,52,128.84
1776,G#2,211.75,0.188,41,128.84
1777,C#3,212.0,0.188,41,128.84
1778,F#4,212.0,0.188,53,128.84
1779,E-4,212.0,0.188,53,128.84
1780,G#3,212.25,0.188,44,128.84
1781,F4,212.25,0.188,46,128.84
1782,C#4,212.25,0.188,46,128.84
1783,C#3,212.5,0.188,41,128.84
1784,E-4,212.5,0.188,46,128.84
1785,C4,212.5,0.188,46,128.84
1786,B3,212.75,0.188,52,128.84
1787,G#2,212.75,0.188,41,128.84
1788,C#2,213.0,0.188,45,128.84
1789,C#4,213.0,0.188,51,128.84
1790,B-3,213.0,0.188,51,128.84
1791,E4,213.25,0.188,52,128.84
1792,G#2,213.25,0.188,41,128.84
1793,C#3,213.5,0.188,41,128.84
1794,G#4,213.5,0.188,53,128.84
1795,F4,213.5,0.188,53,128.84
1796,G#3,213.75,0.188,44,128.84
1797,F#4,213.75,0.188,46,128.84
1798,E-4,213.75,0.188,46,128.84
1799,C#3,214.0,0.188,41,128.84
1800,F4,214.0,0.188,46,128.84
1801,C#4,214.0,0.188,46,128.84
1802,B3,214.25,0.188,52,128.84
1803,G#2,214.25,0.188,41,128.84
1804,C#2,214.5,0.188,45,128.84
1805,E-4,214.5,0.188,51,128.84
1806,C4,214.5,0.188,51,128.84
1807,F4,214.75,0.188,52,128.84
1808,G#2,214.75,0.188,41,128.84
1809,C#3,215.0,0.188,41,128.84
1810,B-4,215.0,0.188,53,128.84
1811,F#4,215.0,0.188,53,128.84
1812,G#3,215.25,0.188,44,128.84
1813,G#4,215.25,0.188,46,128.84
1814,F4,215.25,0.188,46,128.84
1815,C#3,215.5,0.188,41,128.84
1816,F#4,215.5,0.188,46,128.84
1817,E-4,215.5,0.188,46,128.84
1818,D4,215.75,0.188,52,128.84
1819,G#2,215.75,0.188,41,128.84
1820,C#2,216.0,0.5,43,128.84
1821,F4,216.0,0.188,51,128.84
1822,C#4,216.0,0.188,51,128.84
1823,D4,216.25,0.188,53,128.84
1824,C#3,216.25,0.188,37,128.84
1825,F#3,216.5,0.5,64,128.84
1826,F#4,216.5,0.188,50,128.84
1827,E-4,216.5,0.188,50,128.84
1828,F4,216.75,0.188,50,128.84
1829,F#2,216.75,0.188,39,128.84
1830,E-3,217.0,0.5,62,128.84
1831,B-4,217.0,0.188,57,128.84
1832,F#4,217.0,0.188,57,128.84
1833,A4,217.25,0.188,53,128.84
1834,E-2,217.25,0.188,42,128.84
1835,C#2,217.5,0.5,47,128.84
1836,B-4,217.5,0.188,54,128.84
1837,C#5,217.5,0.188,54,128.84
1838,B4,217.75,0.188,54,128.84
1839,C#3,217.75,0.188,43,128.84
1840,G#3,218.0,0.5,72,128.84
1841,C5,218.0,0.188,56,128.84
1842,E-5,218.0,0.188,56,128.84
1843,G#2,218.25,0.188,45,128.84
1844,B-4,218.25,0.188,49,128.84
1845,C#5,218.25,0.188,49,128.84
1846,C4,218.5,0.5,67,128.84
1847,G#4,218.5,0.188,49,128.84
1848,C5,218.5,0.188,49,128.84
1849,G4,218.75,0.188,55,128.84
1850,C3,218.75,0.188,46,128.84
1851,C#2,219.0,0.5,45,128.84
1852,F#4,219.0,0.188,54,128.84
1853,B-4,219.0,0.188,54,128.84
1854,E4,219.25,0.188,59,128.84
1855,C#3,219.25,0.188,42,128.84
1856,G#3,219.5,0.5,73,128.84
1857,F4,219.5,0.188,54,128.84
1858,G#4,219.5,0.188,54,128.84
1859,G4,219.75,0.188,54,128.84
1860,G#2,219.75,0.188,43,128.84
1861,F3,220.0,0.5,67,128.84
1862,G#4,220.0,0.188,65,128.84
1863,C5,220.0,0.188,65,128.84
1864,B4,220.25,0.188,62,128.84
1865,F2,220.25,0.188,45,128.84
1866,C#2,220.5,0.5,53,128.84
1867,C5,220.5,0.188,62,128.84
1868,E-5,220.5,0.188,62,128.84
1869,C5,220.75,0.188,61,128.84
1870,C#3,220.75,0.188,46,128.84
1871,B-3,221.0,0.5,80,128.84
1872,C#5,221.0,0.188,62,128.84
1873,F5,221.0,0.188,62,128.84
1874,B-2,221.25,0.188,51,128.84
1875,C5,221.25,0.188,58,128.84
1876,E-5,221.25,0.188,58,128.84
1877,C#4,221.5,0.5,72,128.84
1878,B-4,221.5,0.188,60,128.84
1879,C#5,221.5,0.188,60,128.84
1880,A4,221.75,0.188,63,128.84
1881,C#3,221.75,0.188,47,128.84
1882,C#2,222.0,0.5,51,128.84
1883,G#4,222.0,0.188,62,128.84
1884,C5,222.0,0.188,62,128.84
1885,F4,222.25,0.188,63,128.84
1886,C#3,222.25,0.188,45,128.84
1887,B-3,222.5,0.5,83,128.84
1888,F#4,222.5,0.188,61,128.84
1889,B-4,222.5,0.188,61,128.84
1890,A4,222.75,0.188,61,128.84
1891,B-2,222.75,0.188,46,128.84
1892,F#3,223.0,0.5,81,128.84
1893,B-4,223.0,0.188,70,128.84
1894,C#5,223.0,0.188,70,128.84
1895,C5,223.25,0.188,66,128.84
1896,F#2,223.25,0.188,52,128.84
1897,C#2,223.5,0.5,59,128.84
1898,F5,223.5,0.188,66,128.84
1899,C#5,223.5,0.188,66,128.84
1900,D5,223.75,0.188,66,128.84
1901,C#3,223.75,0.188,53,128.84
1902,E-4,224.0,0.5,89,128.84
1903,F#5,224.0,0.188,70,128.84
1904,E-5,224.0,0.188,70,128.84
1905,E-3,224.25,0.188,57,128.84
1906,F5,224.25,0.188,62,128.84
1907,C#5,224.25,0.188,62,128.84
1908,F#4,224.5,0.5,84,128.84
1909,E-5,224.5,0.188,62,128.84
1910,C5,224.5,0.188,62,128.84
1911,B4,224.75,0.188,70,128.84
1912,F#3,224.75,0.188,57,128.84
1913,C#2,225.0,0.5,59,128.84
1914,C#5,225.0,0.188,69,128.84
1915,B-4,225.0,0.188,69,128.84
1916,E5,225.25,0.188,74,128.84
1917,C#3,225.25,0.188,52,128.84
1918,B-3,225.5,0.5,97,128.84
1919,G#5,225.5,0.188,76,128.84
1920,F5,225.5,0.188,76,128.84
1921,B-2,225.75,0.188,53,128.84
1922,F#5,225.75,0.188,66,128.84
1923,E-5,225.75,0.188,66,128.84
1924,C4,226.0,0.5,89,128.84
1925,F5,226.0,0.188,68,128.84
1926,C#5,226.0,0.188,68,128.84
1927,B4,226.25,0.188,75,128.84
1928,C3,226.25,0.188,59,128.84
1929,C#2,226.5,0.5,70,128.84
1930,E-5,226.5,0.188,74,128.84
1931,C5,226.5,0.188,74,128.84
1932,F5,226.75,0.188,80,128.84
1933,C#3,226.75,0.188,62,128.84
1934,C4,227.0,0.5,97,128.84
1935,B-5,227.0,0.188,81,128.84
1936,F#5,227.0,0.188,81,128.84
1937,C3,227.25,0.188,66,128.84
1938,G#5,227.25,0.188,72,128.84
1939,F5,227.25,0.188,72,128.84
1940,C#4,227.5,0.5,92,128.84
1941,F#5,227.5,0.188,72,128.84
1942,E-5,227.5,0.188,72,128.84
1943,D5,227.75,0.188,81,128.84
1944,C#3,227.75,0.25,63,128.84
1945,C#3,228.0,0.75,63,128.84
1946,F5,228.0,0.188,79,128.84
1947,C#5,228.0,0.188,79,128.84
1948,D3,228.0,0.75,70,128.84
1949,D4,228.0,0.75,70,128.84
1950,A3,228.0,0.75,70,128.84
1951,F#3,228.0,0.75,70,128.84
1952,F#4,228.25,0.188,103,128.84
1953,D5,228.5,0.188,94,128.84
1954,F#5,228.5,0.188,94,128.84
1955,F#5,228.75,0.5,79,128.84
1956,C#2,228.75,0.75,69,128.84
1957,C#3,228.75,0.75,69,128.84
1958,F#6,229.0,0.188,85,128.84
1959,D6,229.0,0.188,85,128.84
1960,C#6,229.25,0.188,71,128.84
1961,F6,229.25,0.188,71,128.84
1962,F5,229.25,0.188,71,128.84
1963,D6,229.5,0.188,70,128.84
1964,F#6,229.5,0.188,70,128.84
1965,F#5,229.5,0.188,70,128.84
1966,F#4,229.5,0.75,68,128.84
1967,D4,229.5,0.75,68,128.84
1968,G#3,229.5,0.75,68,128.84
1969,C#6,229.75,0.188,87,128.84
1970,B-5,229.75,0.188,87,128.84
1971,C#5,229.75,0.188,87,128.84
1972,D5,230.0,0.188,76,128.84
1973,D6,230.0,0.188,76,128.84
1974,B5,230.0,0.188,76,128.84
1975,F6,230.25,0.188,74,128.84
1976,F5,230.25,0.188,74,128.84
1977,C#2,230.25,0.75,66,128.84
1978,C#3,230.25,0.75,66,128.84
1979,F#6,230.5,0.188,83,128.84
1980,D6,230.5,0.188,83,128.84
1981,F#5,230.5,0.188,83,128.84
1982,A6,230.75,0.188,80,128.84
1983,F#6,230.75,0.188,80,128.84
1984,A5,230.75,0.188,80,128.84
1985,E6,231.0,0.188,80,128.84
1986,G#6,231.0,0.188,80,128.84
1987,G#5,231.0,0.188,80,128.84
1988,E4,231.0,0.75,76,128.84
1989,C#4,231.0,0.75,76,128.84
1990,A3,231.0,0.75,76,128.84
1991,E4,231.25,0.188,98,128.84
1992,C#5,231.5,0.188,88,128.84
1993,E5,231.5,0.188,88,128.84
1994,E5,231.75,0.5,74,128.84
1995,C#2,231.75,0.75,66,128.84
1996,C#3,231.75,0.75,66,128.84
1997,E6,232.0,0.188,94,128.84
1998,C#6,232.0,0.188,94,128.84
1999,C#5,232.25,0.188,71,128.84
2000,A5,232.25,0.188,71,128.84
2001,C#6,232.25,0.188,71,128.84
2002,D5,232.5,0.188,67,128.84
2003,B5,232.5,0.188,67,128.84
2004,D6,232.5,0.188,67,128.84
2005,G#4,232.5,0.75,67,128.84
2006,E4,232.5,0.75,67,128.84
2007,C#4,232.5,0.75,67,128.84
2008,G#3,232.5,0.75,67,128.84
2009,E6,232.75,0.188,87,128.84
2010,C#6,232.75,0.188,87,128.84
2011,E5,232.75,0.188,87,128.84
2012,F#5,233.0,0.188,74,128.84
2013,F#6,233.0,0.188,74,128.84
2014,E5,233.25,0.188,72,128.84
2015,E6,233.25,0.188,72,128.84
2016,G4,233.25,0.75,66,128.84
2017,E4,233.25,0.75,66,128.84
2018,C#4,233.25,0.75,66,128.84
2019,A3,233.25,0.75,66,128.84
2020,C#5,233.5,0.75,78,128.84
2021,C#6,233.5,0.75,78,128.84
2022,A5,233.5,0.75,78,128.84
2023,G3,234.0,0.188,39,128.84
2024,B-3,234.0,0.188,39,128.84
2025,C#4,234.25,0.188,55,128.84
2026,F#3,234.25,0.188,36,128.84
2027,A3,234.25,0.188,36,128.84
2028,F#4,234.5,0.188,51,128.84
2029,D4,234.5,0.188,51,128.84
2030,E3,234.5,0.188,36,128.84
2031,G3,234.5,0.188,36,128.84
2032,E4,234.75,0.188,46,128.84
2033,D3,234.75,0.75,34,128.84
2034,F#3,234.75,0.75,34,128.84
2035,A4,235.0,0.188,60,128.84
2036,F#4,235.0,0.188,60,128.84
2037,G#4,235.25,0.188,56,128.84
2038,C#2,235.25,1.75,53,128.84
2039,C#3,235.25,1.75,53,128.84
2040,G3,235.5,0.188,55,128.84
2041,D5,235.5,0.188,60,128.84
2042,A4,235.5,0.188,60,128.84
2043,B4,235.75,0.188,63,128.84
2044,G#3,235.75,0.188,57,128.84
2045,A3,236.0,0.188,60,128.84
2046,E-5,236.0,0.188,60,128.84
2047,C#5,236.0,0.188,60,128.84
2048,B-3,236.25,0.188,54,128.84
2049,C#5,236.25,0.188,62,128.84
2050,B-4,236.25,0.188,62,128.84
2051,C#5,236.5,0.5,56,128.84
2052,G#4,236.5,0.188,56,128.84
2053,B3,236.5,0.188,53,128.84
2054,G4,236.75,0.188,53,128.84
2055,C#4,236.75,0.188,50,128.84
2056,B4,237.0,0.25,51,128.84
2057,F#4,237.0,0.188,51,128.84
2058,C#4,237.0,0.75,47,128.84
2059,E4,237.25,0.188,53,128.84
2060,B4,237.25,0.25,51,128.84
2061,G#3,237.25,0.188,40,128.84
2062,C#3,237.5,0.188,40,128.84
2063,G#4,237.5,0.188,53,128.84
2064,F4,237.5,0.188,53,128.84
2065,G4,237.75,0.188,52,128.84
2066,E-4,237.75,0.75,46,128.84
2067,C#5,238.0,0.5,60,128.84
2068,G#4,238.0,0.188,60,128.84
2069,F#3,238.0,0.188,40,128.84
2070,A4,238.25,0.5,50,128.84
2071,C#3,238.25,0.188,41,128.84
2072,C#5,238.5,0.188,51,128.84
2073,F4,238.5,0.75,39,128.84
2074,B-4,238.75,0.188,49,128.84
2075,F3,238.75,0.188,36,128.84
2076,G#4,239.0,0.188,46,128.84
2077,C#3,239.0,1.0,32,128.84
2078,B-4,239.25,0.188,45,128.84
2079,B3,239.25,0.75,42,128.84
2080,G#3,239.25,0.75,42,128.84
2081,D4,239.5,0.75,54,128.84
2082,F4,239.5,0.75,54,128.84
2083,F#4,240.0,0.75,70,128.84
2084,D4,240.0,0.75,70,128.84
2085,A3,240.0,0.75,70,128.84
2086,F#3,240.0,0.75,70,128.84
2087,F#5,240.25,0.188,93,128.84
2088,D6,240.5,0.188,76,128.84
2089,F#6,240.5,0.188,76,128.84
2090,F#6,240.75,0.5,74,128.84
2091,C#2,240.75,0.75,66,128.84
2092,C#3,240.75,0.75,66,128.84
2093,F#7,241.0,0.188,76,128.84
2094,D7,241.0,0.188,76,128.84
2095,C#7,241.25,0.188,62,128.84
2096,F7,241.25,0.188,62,128.84
2097,F6,241.25,0.188,62,128.84
2098,D7,241.5,0.188,60,128.84
2099,F#7,241.5,0.188,60,128.84
2100,F#6,241.5,0.188,60,128.84
2101,G#4,241.5,0.75,67,128.84
2102,F#4,241.5,0.75,67,128.84
2103,D4,241.5,0.75,67,128.84
2104,G#3,241.5,0.75,67,128.84
2105,C#7,241.75,0.188,75,128.84
2106,B-6,241.75,0.188,75,128.84
2107,C#6,241.75,0.188,75,128.84
2108,D6,242.0,0.188,66,128.84
2109,D7,242.0,0.188,66,128.84
2110,B6,242.0,0.188,66,128.84
2111,F7,242.25,0.188,62,128.84
2112,F6,242.25,0.188,62,128.84
2113,C#2,242.25,0.75,66,128.84
2114,C#3,242.25,0.75,66,128.84
2115,F#7,242.5,0.188,73,128.84
2116,D7,242.5,0.188,73,128.84
2117,F#6,242.5,0.188,73,128.84
2118,A7,242.75,0.188,70,128.84
2119,F#7,242.75,0.188,70,128.84
2120,A6,242.75,0.188,70,128.84
2121,E7,243.0,0.188,70,128.84
2122,G#7,243.0,0.188,70,128.84
2123,G#6,243.0,0.188,70,128.84
2124,A4,243.0,0.75,74,128.84
2125,E4,243.0,0.75,74,128.84
2126,C#4,243.0,0.75,74,128.84
2127,A3,243.0,0.75,74,128.84
2128,E5,243.25,0.188,93,128.84
2129,C#6,243.5,0.188,73,128.84
2130,E6,243.5,0.188,73,128.84
2131,E6,243.75,0.5,70,128.84
2132,C#2,243.75,0.75,66,128.84
2133,C#3,243.75,0.75,66,128.84
2134,E7,244.0,0.188,81,128.84
2135,C#7,244.0,0.188,81,128.84
2136,C#6,244.25,0.188,62,128.84
2137,A6,244.25,0.188,62,128.84
2138,C#7,244.25,0.188,62,128.84
2139,D6,244.5,0.188,59,128.84
2140,B6,244.5,0.188,59,128.84
2141,D7,244.5,0.188,59,128.84
2142,G#4,244.5,0.75,67,128.84
2143,E4,244.5,0.75,67,128.84
2144,C#4,244.5,0.75,67,128.84
2145,G#3,244.5,0.75,67,128.84
2146,E7,244.75,0.188,77,128.84
2147,C#7,244.75,0.188,77,128.84
2148,E6,244.75,0.188,77,128.84
2149,F#6,245.0,0.188,62,128.84
2150,F#7,245.0,0.188,62,128.84
2151,E6,245.25,0.188,60,128.84
2152,E7,245.25,0.188,60,128.84
2153,G4,245.25,0.75,66,128.84
2154,E4,245.25,0.75,66,128.84
2155,C#4,245.25,0.75,66,128.84
2156,A3,245.25,0.75,66,128.84
2157,C#6,245.5,0.75,67,128.84
2158,C#7,245.5,0.75,67,128.84
2159,A6,245.5,0.75,67,128.84
2160,G4,246.0,0.188,39,128.84
2161,B-4,246.0,0.188,39,128.84
2162,C#5,246.25,0.188,53,128.84
2163,F#4,246.25,0.188,36,128.84
2164,A4,246.25,0.188,36,128.84
2165,F#5,246.5,0.188,49,128.84
2166,D5,246.5,0.188,49,128.84
2167,E4,246.5,0.188,39,128.84
2168,G4,246.5,0.188,39,128.84
2169,E5,246.75,0.188,46,128.84
2170,D4,246.75,0.75,34,128.84
2171,F#4,246.75,0.75,34,128.84
2172,A5,247.0,0.188,61,128.84
2173,F#5,247.0,0.188,61,128.84
2174,G#5,247.25,0.188,53,128.84
2175,C#3,247.25,1.75,54,128.84
2176,C#4,247.25,1.75,54,128.84
2177,G4,247.5,0.188,56,128.84
2178,D6,247.5,0.188,55,128.84
2179,A5,247.5,0.188,55,128.84
2180,B5,247.75,0.188,62,128.84
2181,G#4,247.75,0.188,60,128.84
2182,A4,248.0,0.188,59,128.84
2183,E-6,248.0,0.188,53,128.84
2184,C6,248.0,0.188,53,128.84
2185,B-4,248.25,0.188,56,128.84
2186,C#6,248.25,0.188,60,128.84
2187,B-5,248.25,0.188,60,128.84
2188,C6,248.5,0.5,53,128.84
2189,G#5,248.5,0.188,53,128.84
2190,B4,248.5,0.188,54,128.84
2191,G5,248.75,0.188,52,128.84
2192,C#5,248.75,0.188,52,128.84
2193,B5,249.0,0.25,50,128.84
2194,F#5,249.0,0.188,50,128.84
2195,C#5,249.0,0.75,50,128.84
2196,E5,249.25,0.188,52,128.84
2197,B5,249.25,0.25,50,128.84
2198,G#4,249.25,0.188,39,128.84
2199,C#4,249.5,0.188,39,128.84
2200,G#5,249.5,0.188,46,128.84
2201,F5,249.5,0.188,46,128.84
2202,G5,249.75,0.188,47,128.84
2203,E-5,249.75,0.75,45,128.84
2204,C#6,250.0,0.5,61,128.84
2205,G#5,250.0,0.188,61,128.84
2206,F#4,250.0,0.188,39,128.84
2207,A5,250.25,0.5,55,128.84
2208,C#4,250.25,0.188,39,128.84
2209,C#6,250.5,0.188,53,128.84
2210,F5,250.5,0.75,34,128.84
2211,B-5,250.75,0.188,50,128.84
2212,F4,250.75,0.188,33,128.84
2213,G#5,251.0,0.188,49,128.84
2214,C#4,251.0,1.0,29,128.84
2215,B-5,251.25,0.188,46,128.84
2216,A4,251.25,0.75,37,128.84
2217,C#5,251.5,0.75,54,128.84
2218,F5,251.5,0.75,54,128.84
2219,B-5,252.0,0.75,48,128.84
2220,F#5,252.0,0.75,48,128.84
2221,B-6,252.25,0.25,67,128.84
2222,C#6,252.25,0.75,61,128.84
2223,G#6,252.5,0.25,56,128.84
2224,B-6,252.75,0.25,56,128.84
2225,C#5,252.75,0.75,56,128.84
2226,G#5,252.75,0.75,56,128.84
2227,F6,253.0,0.75,63,128.84
2228,C#6,253.0,0.75,63,128.84
2229,F4,253.5,0.75,48,128.84
2230,B-3,253.5,0.75,48,128.84
2231,C#4,253.75,0.75,60,128.84
2232,B-4,253.75,0.25,66,128.84
2233,G#4,254.0,0.25,59,128.84
2234,B-4,254.25,0.25,57,128.84
2235,G3,254.25,0.75,56,128.84
2236,B-3,254.25,0.75,56,128.84
2237,F4,254.5,0.75,60,128.84
2238,C#4,254.5,0.75,60,128.84
2239,F1,255.0,0.25,77,128.84
2240,F2,255.0,0.25,77,128.84
2241,F3,255.0,0.25,77,128.84
2242,E-1,255.25,0.25,73,128.84
2243,E-2,255.25,0.25,73,128.84
2244,E-3,255.25,0.25,73,128.84
2245,F1,255.5,0.25,75,128.84
2246,F2,255.5,0.25,75,128.84
2247,F3,255.5,0.25,75,128.84
2248,C#1,255.75,2.25,79,128.84
2249,C#2,255.75,2.25,79,128.84
2250,C#3,255.75,2.25,79,128.84
2251,F3,256.75,1.5,81,128.84
2252,G#3,256.75,1.5,81,128.84
2253,C#4,256.75,1.5,81,128.84
2254,F4,256.75,1.5,81,128.84
2255,C#6,256.75,1.5,81,128.84
2256,G#5,256.75,1.5,81,128.84
2257,C#5,256.75,1.5,81,128.84
2258,F3,258.25,2.5,81,128.84
2259,G#3,258.25,2.5,81,128.84
2260,C#4,258.25,2.5,81,128.84
2261,F4,258.25,2.5,81,128.84
2262,C#6,258.25,2.5,81,128.84
2263,G#5,258.25,2.5,81,128.84
2264,C#5,258.25,2.5,81,128.84
2265,C#1,260.5,2.5,79,128.84
2266,C#2,260.5,2.5,79,128.84
2267,C#3,260.5,2.5,79,128.84
2268,C#4,261.25,3.0,45,128.84
2269,B3,262.75,1.5,44,128.84
2270,C#3,263.5,3.0,42,128.84
2271,B-3,264.25,1.5,45,128.84
2272,C#4,264.25,1.5,45,128.84
2273,G#1,265.0,1.5,41,128.84
2274,G#2,265.0,1.5,41,128.84
2275,A3,265.75,1.5,44,128.84
2276,D4,265.75,1.5,44,128.84
2277,C#3,266.5,1.5,42,128.84
2278,F#1,266.5,1.5,36,128.84
2279,F#2,266.5,1.5,36,128.84
2280,B3,267.25,1.5,41,128.84
2281,G#3,267.25,3.0,41,128.84
2282,E4,267.25,3.0,41,128.84
2283,F1,268.0,1.5,43,128.84
2284,F2,268.0,1.5,43,128.84
2285,D3,268.0,1.5,43,128.84
2286,B-3,268.75,1.5,48,128.84
2287,E1,269.5,3.0,31,128.84
2288,E2,269.5,3.0,31,128.84
2289,D3,269.5,3.0,31,128.84
2290,G3,270.25,1.5,45,128.84
2291,B-3,270.25,1.5,48,128.84
2292,E4,270.25,1.5,41,128.84
2293,F4,271.75,1.5,44,128.84
2294,E1,274.0,1.5,31,128.84
2295,E2,274.0,1.5,31,128.84
2296,D3,274.0,1.5,31,128.84
2297,F#4,274.25,0.5,47,128.84
2298,A1,274.25,0.25,36,128.84
2299,A2,274.5,0.25,34,128.84
2300,A3,274.75,1.5,36,128.84
2301,E4,274.75,0.5,52,128.84
2302,C#3,274.75,0.25,36,128.84
2303,G3,275.0,0.25,36,128.84
2304,F#4,275.25,0.5,44,128.84
2305,A3,275.25,0.25,36,128.84
2306,D4,275.75,0.5,44,128.84
2307,A3,276.25,3.0,36,128.84
2308,D4,276.25,1.0,44,128.84
2309,D1,277.0,0.5,41,128.84
2310,A4,277.25,0.5,51,128.84
2311,A4,277.75,1.0,53,128.84
2312,D2,278.5,1.5,34,128.84
2313,F#3,278.5,1.5,34,128.84
2314,B4,278.75,0.25,47,128.84
2315,A4,279.0,0.125,36,128.84
2316,B4,279.125,0.125,36,128.84
2317,A4,279.25,0.75,53,128.84
2318,A3,279.25,1.5,36,128.84
2319,G4,280.0,0.25,47,128.84
2320,D2,280.0,3.0,34,128.84
2321,F#3,280.0,3.0,34,128.84
2322,F#4,280.25,0.5,47,128.84
2323,E4,280.75,0.5,52,128.84
2324,A3,280.75,1.5,36,128.84
2325,A4,280.75,1.5,36,128.84
2326,F#4,281.25,0.5,45,128.84
2327,D4,281.75,0.5,44,128.84
2328,D4,283.75,1.0,44,128.84
2329,A3,283.75,1.5,36,128.84
2330,A4,283.75,1.5,36,128.84
2331,D2,284.5,1.5,34,128.84
2332,F#3,284.5,1.5,34,128.84
2333,F#4,284.75,0.5,47,128.84
2334,B-4,285.25,1.5,36,128.84
2335,F#4,285.25,1.0,53,128.84
2336,D2,286.0,1.5,28,128.84
2337,F#3,286.0,1.5,28,128.84
2338,E4,286.25,0.5,47,128.84
2339,E4,286.75,1.0,52,128.84
2340,B-4,286.75,1.5,36,128.84
2341,C#4,287.75,0.5,47,128.84
2342,D4,288.25,0.75,52,128.84
2343,B3,288.25,1.5,36,128.84
2344,B4,288.25,1.5,36,128.84
2345,C#4,289.0,0.25,47,128.84
2346,D1,289.0,0.5,30,128.84
2347,D2,289.0,1.5,28,128.84
2348,F#3,289.0,1.5,28,128.84
2349,B3,289.25,0.5,47,128.84
2350,D2,290.5,1.5,28,128.84
2351,F#3,290.5,1.5,28,128.84
2352,F#4,290.75,0.5,47,128.84
2353,B-4,291.25,1.5,36,128.84
2354,F#4,291.25,1.0,53,128.84
2355,E4,292.25,0.5,47,128.84
2356,E4,292.75,1.0,52,128.84
2357,B-4,292.75,1.5,36,128.84
2358,D2,293.5,1.5,28,128.84
2359,F#3,293.5,1.5,28,128.84
2360,C#4,293.75,0.5,47,128.84
2361,B3,294.25,1.5,36,128.84
2362,B4,294.25,1.5,36,128.84
2363,D4,294.25,0.75,52,128.84
2364,C#4,295.0,0.25,47,128.84
2365,D2,295.0,1.5,28,128.84
2366,F#3,295.0,1.5,28,128.84
2367,B3,295.25,0.5,47,128.84
2368,B4,295.75,0.5,36,128.84
2369,B3,295.75,0.5,47,128.84
2370,D1,296.5,0.5,31,128.84
2371,A3,296.75,0.5,45,128.84
2372,B3,297.25,1.5,47,128.84
2373,D2,298.0,1.5,28,128.84
2374,F#3,298.0,1.5,28,128.84
2375,D2,299.5,1.5,28,128.84
2376,F#3,299.5,1.5,28,128.84
2377,A3,299.75,0.5,45,128.84
2378,C#4,300.25,0.75,47,128.84
2379,D4,301.0,0.25,45,128.84
2380,D2,301.0,1.5,28,128.84
2381,F#3,301.0,1.5,28,128.84
2382,E4,301.25,0.5,45,128.84
2383,C#4,301.75,1.0,50,128.84
2384,A3,302.75,0.5,44,128.84
2385,D2,303.0,0.5,28,128.84
2386,F#3,303.0,0.5,28,128.84
2387,B3,303.25,1.5,45,128.84
2388,A2,304.0,0.5,44,128.84
2389,A4,304.25,0.5,36,128.84
2390,G4,304.25,0.5,36,128.84
2391,D4,304.25,0.5,36,128.84
2392,B2,304.5,1.5,46,128.84
2393,B3,304.75,1.0,45,128.84
2394,A4,304.75,1.0,36,128.84
2395,G4,304.75,1.0,36,128.84
2396,D4,304.75,1.0,36,128.84
2397,A3,305.75,0.5,45,128.84
2398,D2,306.0,0.5,32,128.84
2399,A2,306.0,0.5,32,128.84
2400,C#4,306.25,0.75,47,128.84
2401,D4,307.0,0.25,45,128.84
2402,C#4,307.0,0.5,30,128.84
2403,A4,307.0,1.5,36,128.84
2404,G4,307.0,1.5,36,128.84
2405,E4,307.25,0.25,45,128.84
2406,C#4,307.5,0.125,43,128.84
2407,D4,307.625,0.125,36,128.84
2408,C#4,307.75,0.188,49,128.84
2409,B3,308.25,0.188,44,128.84
2410,G4,308.5,0.5,31,128.84
2411,A4,308.5,0.5,31,128.84
2412,A3,308.75,0.25,44,128.84
2413,G4,309.0,1.0,31,128.84
2414,A4,309.0,1.0,31,128.84
2415,B3,309.25,1.5,44,128.84
2416,C#4,310.0,0.5,29,128.84
2417,G4,310.0,0.5,29,128.84
2418,A4,310.0,0.5,29,128.84
2419,D4,310.25,0.5,36,128.84
2420,G4,310.25,0.5,36,128.84
2421,A4,310.25,0.5,36,128.84
2422,B3,310.75,1.0,44,128.84
2423,D4,310.75,1.0,36,128.84
2424,G4,310.75,1.0,36,128.84
2425,A4,310.75,1.0,36,128.84
2426,D2,311.5,0.5,28,128.84
2427,A2,311.5,0.5,28,128.84
2428,A3,311.75,0.5,45,128.84
2429,D1,312.0,0.5,26,128.84
2430,D2,312.0,0.5,26,128.84
2431,C#4,312.25,0.75,47,128.84
2432,D4,313.0,0.25,45,128.84
2433,C#4,313.0,0.5,30,128.84
2434,A4,313.0,1.5,36,128.84
2435,G4,313.0,1.5,36,128.84
2436,E4,313.25,0.5,45,128.84
2437,C#4,313.75,0.5,49,128.84
2438,B3,314.25,0.5,44,128.84
2439,G4,314.5,0.5,31,128.84
2440,A4,314.5,0.5,31,128.84
2441,A3,314.75,0.5,44,128.84
2442,G4,315.0,1.0,31,128.84
2443,A4,315.0,1.0,31,128.84
2444,B3,315.25,1.5,47,128.84
2445,C#4,316.0,0.5,29,128.84
2446,G4,316.0,0.5,29,128.84
2447,A4,316.0,0.5,29,128.84
2448,B3,316.75,1.0,47,128.84
2449,D2,317.5,0.5,28,128.84
2450,A2,317.5,0.5,28,128.84
2451,F#4,317.75,0.5,49,128.84
2452,B4,317.75,0.5,49,128.84
2453,D1,318.0,0.5,26,128.84
2454,D2,318.0,0.5,26,128.84
2455,E4,318.25,1.5,53,128.84
2456,G#4,318.25,1.5,53,128.84
2457,D5,318.25,1.5,53,128.84
2458,A4,319.0,0.5,34,128.84
2459,G4,319.0,0.5,34,128.84
2460,C#4,319.0,0.5,34,128.84
2461,E4,320.75,1.0,53,128.84
2462,G#4,320.75,1.0,53,128.84
2463,D5,320.75,1.0,53,128.84
2464,E4,321.75,1.125,52,128.84
2465,G4,321.75,1.125,52,128.84
2466,E5,321.75,1.125,52,128.84
2467,C#3,322.0,0.5,28,128.84
2468,E3,322.0,0.5,28,128.84
2469,B2,322.5,1.5,31,128.84
2470,D3,322.5,1.5,31,128.84
2471,F#3,322.5,1.5,31,128.84
2472,C#4,323.062,0.688,45,128.84
2473,G4,323.125,0.625,45,128.84
2474,A4,323.188,0.562,46,128.84
2475,F5,323.25,0.5,52,128.84
2476,B2,324.0,1.0,31,128.84
2477,D3,324.0,1.0,31,128.84
2478,F#3,324.0,1.0,31,128.84
2479,F#6,324.75,0.5,55,128.84
2480,F#5,324.75,0.5,55,128.84
2481,D4,325.0,0.5,38,128.84
2482,B3,325.0,0.5,38,128.84
2483,A5,325.25,1.5,40,128.84
2484,E6,325.25,0.75,59,128.84
2485,E5,325.25,0.75,59,128.84
2486,D4,325.5,1.5,40,128.84
2487,B3,325.5,1.5,40,128.84
2488,F#5,326.0,0.25,50,128.84
2489,F#6,326.0,0.25,50,128.84
2490,D6,326.25,0.5,50,128.84
2491,D5,326.25,0.5,50,128.84
2492,A5,326.75,1.0,67,128.84
2493,D6,326.75,1.0,50,128.84
2494,D5,326.75,1.0,50,128.84
2495,A6,327.75,0.5,62,128.84
2496,A5,327.75,0.312,55,128.84
2497,D5,327.938,0.062,47,128.84
2498,A5,328.0,0.188,47,128.84
2499,D4,328.0,1.0,40,128.84
2500,B3,328.0,1.0,40,128.84
2501,D6,328.062,0.062,47,128.84
2502,A5,328.125,0.125,47,128.84
2503,D6,328.188,1.438,47,128.84
2504,A6,328.25,1.0,60,128.84
2505,A5,328.25,1.0,60,128.84
2506,D4,329.0,1.125,47,128.84
2507,B-3,329.0,1.125,47,128.84
2508,B6,329.25,0.5,55,128.84
2509,B5,329.25,0.5,55,128.84
2510,A5,329.562,0.062,49,128.84
2511,D6,329.625,0.125,49,128.84
2512,B6,329.688,0.062,50,128.84
2513,D6,329.75,1.5,49,128.84
2514,A6,329.75,0.75,60,128.84
2515,A5,329.75,0.75,60,128.84
2516,A2,330.125,0.875,42,128.84
2517,G3,330.188,0.812,42,128.84
2518,A3,330.25,0.75,42,128.84
2519,G6,330.5,0.25,55,128.84
2520,G5,330.5,0.25,55,128.84
2521,F#6,330.75,0.5,55,128.84
2522,F#5,330.75,0.5,55,128.84
2523,D2,331.0,0.5,44,128.84
2524,A2,331.0,0.5,44,128.84
2525,A5,331.25,1.5,40,128.84
2526,E6,331.25,0.5,59,128.84
2527,E5,331.25,0.5,59,128.84
2528,F#4,331.5,0.5,44,128.84
2529,D4,331.667,167/1000,40,128.84
2530,F#6,331.75,0.5,52,128.84
2531,F#5,331.75,0.5,52,128.84
2532,A3,331.833,167/1000,40,128.84
2533,F#3,332.0,0.5,40,128.84
2534,F#4,332.0,0.5,40,128.84
2535,D6,332.25,0.5,49,128.84
2536,D5,332.25,0.5,49,128.84
2537,D4,332.5,0.5,41,128.84
2538,A3,332.5,0.5,41,128.84
2539,F#4,332.5,0.5,41,128.84
2540,F#3,333.0,0.5,38,128.84
2541,F#4,333.0,0.5,38,128.84
2542,D4,333.5,0.5,41,128.84
2543,A3,333.5,0.5,41,128.84
2544,F#4,333.5,0.5,41,128.84
2545,F#6,333.75,0.5,55,128.84
2546,F#5,333.75,0.5,55,128.84
2547,D2,334.0,0.5,44,128.84
2548,A2,334.0,0.5,44,128.84
2549,B-5,334.25,1.5,40,128.84
2550,F#6,334.25,1.0,60,128.84
2551,F#5,334.25,1.0,60,128.84
2552,F#4,334.5,0.5,44,128.84
2553,D4,334.667,167/1000,36,128.84
2554,A3,334.833,167/1000,36,128.84
2555,F#3,335.0,0.5,40,128.84
2556,F#4,335.0,0.5,40,128.84
2557,E6,335.25,0.5,55,128.84
2558,E5,335.25,0.5,55,128.84
2559,D4,335.5,0.5,41,128.84
2560,A3,335.5,0.5,41,128.84
2561,F#4,335.5,0.5,41,128.84
2562,B-5,335.75,0.5,40,128.84
2563,E6,335.75,1.0,59,128.84
2564,E5,335.75,1.0,59,128.84
2565,F#3,336.0,0.5,40,128.84
2566,F#4,336.0,0.5,40,128.84
2567,A3,336.5,0.5,41,128.84
2568,D4,336.5,0.5,41,128.84
2569,F#4,336.5,0.5,41,128.84
2570,C#6,336.75,0.5,55,128.84
2571,C#5,336.75,0.5,55,128.84
2572,D2,337.0,0.5,44,128.84
2573,A2,337.0,0.5,44,128.84
2574,D6,337.25,0.75,59,128.84
2575,D5,337.25,0.75,59,128.84
2576,B4,337.25,1.5,40,128.84
2577,B5,337.25,1.5,40,128.84
2578,F#4,337.5,0.5,46,128.84
2579,D4,337.667,167/1000,40,128.84
2580,A3,337.833,167/1000,40,128.84
2581,C#6,338.0,0.25,55,128.84
2582,C#5,338.0,0.25,55,128.84
2583,F#3,338.0,0.5,40,128.84
2584,F#4,338.0,0.5,40,128.84
2585,B5,338.25,0.5,55,128.84
2586,B4,338.25,0.5,55,128.84
2587,D4,338.5,0.5,41,128.84
2588,A3,338.5,0.5,41,128.84
2589,F#4,338.5,0.5,41,128.84
2590,F#3,339.0,0.5,34,128.84
2591,F#4,339.0,0.5,34,128.84
2592,D4,339.5,0.5,34,128.84
2593,A3,339.5,0.5,34,128.84
2594,F#4,339.5,0.5,34,128.84
2595,F#6,339.75,0.5,55,128.84
2596,F#5,339.75,0.5,55,128.84
2597,D2,340.0,0.5,47,128.84
2598,B-5,340.25,1.5,40,128.84
2599,F#6,340.25,1.0,60,128.84
2600,F#5,340.25,1.0,60,128.84
2601,F#4,340.5,0.5,44,128.84
2602,D4,340.667,167/1000,36,128.84
2603,B-3,340.833,167/1000,36,128.84
2604,F#3,341.0,0.5,40,128.84
2605,F#4,341.0,0.5,40,128.84
2606,E6,341.25,0.5,55,128.84
2607,E5,341.25,0.5,55,128.84
2608,D4,341.5,0.5,41,128.84
2609,B-3,341.5,0.5,41,128.84
2610,F#4,341.5,0.5,41,128.84
2611,B-5,341.75,0.5,40,128.84
2612,E6,341.75,1.0,59,128.84
2613,E5,341.75,1.0,59,128.84
2614,F#3,342.0,0.5,38,128.84
2615,F#4,342.0,0.5,38,128.84
2616,D4,342.5,0.5,41,128.84
2617,B-3,342.5,0.5,41,128.84
2618,F#4,342.5,0.5,41,128.84
2619,C#6,342.75,0.5,55,128.84
2620,C#5,342.75,0.5,55,128.84
2621,D5,343.062,0.938,49,128.84
2622,F#5,343.125,1.625,49,128.84
2623,E6,343.188,0.062,50,128.84
2624,D6,343.25,0.75,62,128.84
2625,B4,343.25,1.5,40,128.84
2626,D4,343.5,0.5,41,128.84
2627,B-3,343.5,0.5,41,128.84
2628,F#4,343.5,0.5,41,128.84
2629,F#4,344.0,0.5,44,128.84
2630,C#6,344.0,0.25,55,128.84
2631,C#5,344.0,0.25,55,128.84
2632,D4,344.167,167/1000,36,128.84
2633,B5,344.25,0.5,55,128.84
2634,B4,344.25,0.5,55,128.84
2635,B-3,344.333,167/1000,36,128.84
2636,F#3,344.5,0.5,40,128.84
2637,F#4,344.5,0.5,40,128.84
2638,D4,345.0,0.5,41,128.84
2639,B3,345.0,0.5,41,128.84
2640,F#4,345.0,0.5,41,128.84
2641,F#3,345.5,0.5,38,128.84
2642,F#4,345.5,0.5,38,128.84
2643,F#5,345.75,0.5,61,128.84
2644,A5,345.75,0.5,61,128.84
2645,A4,345.75,0.5,61,128.84
2646,D4,346.0,0.5,41,128.84
2647,B3,346.0,0.5,41,128.84
2648,F#4,346.0,0.5,41,128.84
2649,F#5,346.25,1.5,64,128.84
2650,B5,346.25,1.5,64,128.84
2651,B4,346.25,1.5,64,128.84
2652,D2,346.5,0.5,47,128.84
2653,F#4,347.0,0.5,52,128.84
2654,D4,347.167,167/1000,47,128.84
2655,B-3,347.333,167/1000,45,128.84
2656,F#3,347.5,0.5,40,128.84
2657,F#4,347.5,0.5,40,128.84
2658,F#5,347.75,0.5,64,128.84
2659,C#5,347.75,0.5,66,128.84
2660,C#6,347.75,0.5,66,128.84
2661,D4,348.0,0.5,41,128.84
2662,B-3,348.0,0.5,41,128.84
2663,F#4,348.0,0.5,41,128.84
2664,F#3,348.5,0.5,38,128.84
2665,F#4,348.5,0.5,38,128.84
2666,C#4,348.75,0.5,45,128.84
2667,B-4,348.75,1.5,30,128.84
2668,C#5,348.75,1.5,30,128.84
2669,D4,349.0,0.5,41,128.84
2670,B-3,349.0,0.5,41,128.84
2671,F#4,349.0,0.5,41,128.84
2672,F4,349.25,0.75,47,128.84
2673,F#4,350.0,0.25,45,128.84
2674,D4,350.0,0.5,41,128.84
2675,B-3,350.0,0.5,41,128.84
2676,F#4,350.0,0.5,41,128.84
2677,C#5,350.25,0.5,26,128.84
2678,G#4,350.25,0.5,45,128.84
2679,F#4,350.5,0.5,44,128.84
2680,D4,350.667,167/1000,36,128.84
2681,F4,350.75,1.0,50,128.84
2682,C#5,350.75,1.0,26,128.84
2683,B-3,350.833,167/1000,36,128.84
2684,F#3,351.0,0.5,40,128.84
2685,F#4,351.0,0.5,40,128.84
2686,D4,351.5,0.5,41,128.84
2687,B3,351.5,0.5,41,128.84
2688,F#4,351.5,0.5,41,128.84
2689,C#4,351.75,0.5,44,128.84
2690,B4,351.75,1.5,30,128.84
2691,C#5,351.75,1.5,30,128.84
2692,F#3,352.0,0.5,38,128.84
2693,F#4,352.0,0.5,38,128.84
2694,E-4,352.25,1.5,45,128.84
2695,D4,352.5,0.5,41,128.84
2696,B3,352.5,0.5,41,128.84
2697,F#4,352.5,0.5,41,128.84
2698,D3,353.0,0.5,44,128.84
2699,D2,353.0,0.5,44,128.84
2700,B4,353.25,0.5,30,128.84
2701,C#5,353.25,0.5,30,128.84
2702,G#4,353.25,0.5,30,128.84
2703,F#4,353.5,0.5,46,128.84
2704,D4,353.667,167/1000,41,128.84
2705,E-4,353.75,1.0,45,128.84
2706,A3,353.833,167/1000,41,128.84
2707,F#3,354.0,0.5,40,128.84
2708,F#4,354.0,0.5,40,128.84
2709,D4,354.5,0.5,47,128.84
2710,G#3,354.5,0.5,47,128.84
2711,F#4,354.5,0.5,47,128.84
2712,C#4,354.75,0.5,45,128.84
2713,B-4,354.75,1.5,30,128.84
2714,C#5,354.75,1.5,30,128.84
2715,F#3,355.0,0.5,43,128.84
2716,F#4,355.0,0.5,43,128.84
2717,F4,355.25,0.75,47,128.84
2718,D4,355.5,0.5,42,128.84
2719,G#3,355.5,0.5,42,128.84
2720,F#4,355.5,0.5,42,128.84
2721,F#4,356.0,0.25,45,128.84
2722,C#2,356.0,0.5,51,128.84
2723,C#3,356.0,0.5,51,128.84
2724,C#5,356.25,0.25,38,128.84
2725,G#4,356.25,0.25,38,128.84
2726,F4,356.5,0.125,43,128.84
2727,F#4,356.625,0.125,36,128.84
2728,F4,356.75,0.188,49,128.84
2729,B-3,357.0,1.5,30,128.84
2730,C#3,357.0,1.5,30,128.84
2731,E-4,357.25,0.188,44,128.84
2732,C#4,357.75,0.188,44,128.84
2733,B4,357.75,0.5,30,128.84
2734,C#5,357.75,0.5,30,128.84
2735,F4,357.75,0.5,30,128.84
2736,E-4,358.25,1.5,43,128.84
2737,C#3,358.5,0.5,26,128.84
2738,B3,358.5,0.5,26,128.84
2739,C#3,359.0,1.0,26,128.84
2740,B3,359.0,1.0,26,128.84
2741,F#4,359.25,0.5,33,128.84
2742,B4,359.25,0.5,33,128.84
2743,C#5,359.25,0.5,33,128.84
2744,E-4,359.75,1.0,43,128.84
2745,F#4,359.75,1.0,33,128.84
2746,B4,359.75,1.0,33,128.84
2747,C#5,359.75,1.0,33,128.84
2748,G#3,360.0,1.5,26,128.84
2749,C#3,360.0,1.5,26,128.84
2750,B3,360.0,1.5,26,128.84
2751,G#4,360.75,0.5,40,128.84
2752,B4,360.75,0.5,40,128.84
2753,C#5,360.75,0.5,40,128.84
2754,C#4,360.75,0.5,40,128.84
2755,F4,361.25,0.75,47,128.84
2756,F2,361.5,0.5,29,128.84
2757,C#3,361.5,0.5,29,128.84
2758,F#4,362.0,0.25,45,128.84
2759,F#2,362.0,1.0,35,128.84
2760,C#3,362.0,1.0,29,128.84
2761,G#4,362.25,0.5,45,128.84
2762,F4,362.75,0.5,49,128.84
2763,C#3,363.0,1.5,26,128.84
2764,B-3,363.0,1.5,26,128.84
2765,E-4,363.25,0.5,44,128.84
2766,G#3,363.75,0.5,40,128.84
2767,C#4,363.75,0.5,40,128.84
2768,B3,364.25,1.5,44,128.84
2769,E-4,364.25,1.5,44,128.84
2770,C#3,364.5,0.25,26,128.84
2771,B3,364.5,0.25,26,128.84
2772,B3,366.0,0.5,22,128.84
2773,C#3,366.0,0.5,22,128.84
2774,G#3,366.0,0.5,22,128.84
2775,B3,366.75,1.0,44,128.84
2776,E-4,366.75,1.0,44,128.84
2777,C#3,367.5,0.5,23,128.84
2778,F#3,367.5,0.5,23,128.84
2779,B3,367.5,0.5,23,128.84
2780,G#3,367.75,0.188,47,128.84
2781,B3,367.75,0.188,47,128.84
2782,E-4,367.75,0.188,47,128.84
2783,C#3,368.0,0.5,23,128.84
2784,F#3,368.0,0.5,23,128.84
2785,B3,368.0,0.5,23,128.84
2786,F#3,368.125,223/200,36,128.84
2787,B-3,368.188,263/250,39,128.84
2788,F#4,368.25,99/100,41,128.84
2789,C#3,369.0,0.5,25,128.84
2790,F3,369.0,0.5,25,128.84
2791,B3,369.0,0.5,25,128.84
2792,F3,372.0,0.5,28,128.84
2793,C#3,372.0,0.5,28,128.84
2794,B3,372.125,0.625,44,128.84
2795,F#4,372.188,0.562,44,128.84
2796,B4,372.25,0.5,44,128.84
2797,B2,372.5,1.5,32,128.84
2798,F#3,372.5,1.5,32,128.84
2799,G5,373.75,0.5,57,128.84
2800,G4,373.75,1.5,40,128.84
2801,B4,373.75,1.5,40,128.84
2802,B2,374.0,1.0,32,128.84
2803,F#3,374.0,1.0,32,128.84
2804,F#5,374.25,0.5,62,128.84
2805,G5,374.75,0.5,53,128.84
2806,G#2,375.0,0.188,35,128.84
2807,E-3,375.0,0.188,35,128.84
2808,E-2,375.188,651/500,25,128.84
2809,B-2,375.25,31/25,27,128.84
2810,E4,375.25,0.5,44,128.84
2811,B4,375.25,0.5,44,128.84
2812,E5,375.25,0.5,44,128.84
2813,E-3,375.312,1177/1000,29,128.84
2814,E4,375.75,1.0,44,128.84
2815,B4,375.75,1.0,44,128.84
2816,E5,375.75,1.0,44,128.84
2817,F#4,376.5,0.5,36,128.84
2818,F#3,376.5,0.5,36,128.84
2819,B5,376.75,0.5,57,128.84
2820,G4,376.75,1.5,40,128.84
2821,E5,376.75,1.5,40,128.84
2822,F#4,377.0,99/100,36,128.84
2823,F#3,377.0,99/100,36,128.84
2824,B5,377.25,1.0,63,128.84
2825,F#3,378.0,1.25,32,128.84
2826,F#4,378.0,1.25,32,128.84
2827,C#6,378.25,0.25,61,128.84
2828,B5,378.5,0.125,61,128.84
2829,C#6,378.625,0.125,62,128.84
2830,B5,378.75,0.75,67,128.84
2831,E-3,379.25,0.75,40,128.84
2832,A3,379.312,0.688,40,128.84
2833,A5,379.5,0.25,63,128.84
2834,G5,379.75,0.5,63,128.84
2835,E2,380.0,1.0,53,128.84
2836,F#5,380.25,0.5,66,128.84
2837,G5,380.75,0.5,63,128.84
2838,E3,381.0,1.5,33,128.84
2839,B3,381.0,1.5,33,128.84
2840,E4,381.0,1.5,33,128.84
2841,B4,381.25,0.5,51,128.84
2842,E5,381.25,0.5,51,128.84
2843,G4,382.5,0.5,53,128.84
2844,B3,382.5,0.5,40,128.84
2845,E3,382.5,0.5,40,128.84
2846,B4,382.75,1.0,51,128.84
2847,E5,382.75,1.0,51,128.84
2848,G5,383.75,0.5,64,128.84
2849,G4,383.75,1.5,40,128.84
2850,B4,383.75,1.5,40,128.84
2851,F#4,384.0,0.5,56,128.84
2852,B3,384.0,1.0,40,128.84
2853,E3,384.0,1.0,40,128.84
2854,G5,384.25,1.0,67,128.84
2855,G4,384.5,0.5,47,128.84
2856,E3,385.0,1.5,38,128.84
2857,B3,385.0,1.5,38,128.84
2858,E4,385.0,1.5,38,128.84
2859,G4,385.25,0.5,46,128.84
2860,B4,385.25,0.5,46,128.84
2861,F#5,385.25,0.5,46,128.84
2862,F#5,385.75,1.0,62,128.84
2863,G4,385.75,1.5,33,128.84
2864,B4,385.75,1.5,33,128.84
2865,B2,386.5,0.5,34,128.84
2866,D5,386.75,0.5,63,128.84
2867,E2,387.0,1.0,53,128.84
2868,E5,387.25,0.75,67,128.84
2869,A4,387.25,1.5,40,128.84
2870,G4,387.25,1.5,40,128.84
2871,D5,388.0,0.25,62,128.84
2872,E3,388.0,1.5,36,128.84
2873,B3,388.0,1.5,36,128.84
2874,C#5,388.25,0.5,59,128.84
2875,B4,388.5,0.75,56,128.84
2876,A4,389.25,0.25,53,128.84
2877,G4,389.5,0.5,53,128.84
2878,G5,389.75,0.5,64,128.84
2879,G4,389.75,1.5,40,128.84
2880,B4,389.75,1.5,40,128.84
2881,F#4,390.0,0.5,55,128.84
2882,G5,390.25,1.0,67,128.84
2883,G4,390.5,0.5,53,128.84
2884,E3,391.0,1.5,41,128.84
2885,B3,391.0,1.5,41,128.84
2886,E4,391.0,1.5,41,128.84
2887,G4,391.25,0.5,46,128.84
2888,B4,391.25,0.5,46,128.84
2889,F#5,391.25,0.5,46,128.84
2890,F#5,391.75,1.0,62,128.84
2891,G4,391.75,1.5,40,128.84
2892,B4,391.75,1.5,40,128.84
2893,E3,392.5,0.5,38,128.84
2894,D4,392.5,0.5,38,128.84
2895,B3,392.5,0.5,38,128.84
2896,D5,392.75,0.5,63,128.84
2897,A2,392.938,0.062,32,128.84
2898,D4,393.0,1.0,45,128.84
2899,A2,393.0,1.5,32,128.84
2900,C#5,393.25,0.75,67,128.84
2901,A4,393.25,1.5,40,128.84
2902,G4,393.25,1.5,40,128.84
2903,B4,394.0,0.25,62,128.84
2904,B3,394.0,0.5,44,128.84
2905,A4,394.25,0.5,59,128.84
2906,A3,394.5,1.5,51,128.84
2907,C#4,394.5,0.75,51,128.84
2908,B3,395.25,0.25,47,128.84
2909,A3,395.5,0.5,45,128.84
2910,A4,395.75,0.25,41,128.84
2911,G4,395.75,0.25,41,128.84
2912,E2,396.0,0.5,53,128.84
2913,B4,396.25,1.5,41,128.84
2914,G4,396.25,1.5,41,128.84
2915,E3,396.5,2.0,36,128.84
2916,B3,396.5,2.0,36,128.84
2917,E4,397.0,1.5,47,128.84
2918,E3,398.5,0.5,32,128.84
2919,D4,398.5,0.5,32,128.84
2920,B3,398.5,0.5,32,128.84
2921,A2,398.938,0.062,44,128.84
2922,D4,399.0,1.0,44,128.84
2923,A2,399.0,1.5,44,128.84
2924,B3,400.0,0.5,42,128.84
2925,A3,400.5,1.5,40,128.84
2926,E4,400.5,0.75,52,128.84
2927,A4,401.25,167/1000,46,128.84
2928,D4,401.25,0.25,47,128.84
2929,E5,401.417,167/1000,49,128.84
2930,C#4,401.5,0.5,45,128.84
2931,A5,401.583,167/1000,51,128.84
2932,G5,401.583,167/1000,51,128.84
2933,A5,401.75,167/1000,53,128.84
2934,C#6,401.917,167/1000,54,128.84
2935,A2,402.0,1.0,53,128.84
2936,A6,402.083,167/1000,50,128.84
2937,G6,402.083,167/1000,50,128.84
2938,G6,402.25,0.25,45,128.84
2939,A6,402.25,167/1000,56,128.84
2940,D6,402.417,167/1000,57,128.84
2941,B5,402.583,167/1000,56,128.84
2942,A5,402.75,167/1000,50,128.84
2943,G5,402.75,167/1000,50,128.84
2944,D5,402.917,167/1000,54,128.84
2945,E4,403.0,0.25,35,128.84
2946,C#4,403.0,0.25,35,128.84
2947,B4,403.083,167/1000,53,128.84
2948,A4,403.25,0.25,53,128.84
2949,G4,403.25,167/1000,44,128.84
2950,D4,403.417,167/1000,52,128.84
2951,E4,403.5,1.5,35,128.84
2952,D4,403.5,1.5,35,128.84
2953,B3,403.583,167/1000,51,128.84
2954,E2,404.5,0.5,37,128.84
2955,A1,405.0,0.5,34,128.84
2956,A2,405.0,0.5,34,128.84
2957,A3,406.0,0.5,53,128.84
2958,G4,406.0,1.5,42,128.84
2959,A4,406.0,1.5,42,128.84
2960,C#4,406.5,0.75,54,128.84
2961,A4,407.25,167/1000,46,128.84
2962,D4,407.25,0.25,53,128.84
2963,E5,407.417,167/1000,49,128.84
2964,E4,407.5,0.5,53,128.84
2965,G4,407.5,0.5,36,128.84
2966,A4,407.5,0.5,36,128.84
2967,A5,407.583,167/1000,51,128.84
2968,G5,407.583,167/1000,51,128.84
2969,A5,407.75,167/1000,53,128.84
2970,C#6,407.917,167/1000,54,128.84
2971,C#4,408.0,1.0,57,128.84
2972,G4,408.0,1.0,36,128.84
2973,A4,408.0,1.0,36,128.84
2974,A6,408.083,167/1000,50,128.84
2975,G6,408.083,167/1000,50,128.84
2976,G6,408.25,0.25,45,128.84
2977,A6,408.25,167/1000,56,128.84
2978,D6,408.417,167/1000,57,128.84
2979,B5,408.583,167/1000,56,128.84
2980,A5,408.75,167/1000,50,128.84
2981,G5,408.75,167/1000,50,128.84
2982,D5,408.917,167/1000,54,128.84
2983,C#4,409.0,0.5,44,128.84
2984,A4,409.0,0.5,44,128.84
2985,G4,409.0,0.5,44,128.84
2986,A3,409.0,0.5,44,128.84
2987,B4,409.083,167/1000,53,128.84
2988,A4,409.25,0.25,53,128.84
2989,G4,409.25,167/1000,43,128.84
2990,D4,409.417,167/1000,52,128.84
2991,D4,409.5,1.0,45,128.84
2992,A4,409.5,1.0,45,128.84
2993,G4,409.5,1.0,45,128.84
2994,B3,409.5,1.0,45,128.84
2995,B3,409.583,167/1000,51,128.84
2996,A3,409.75,0.5,44,128.84
2997,E2,410.5,0.5,40,128.84
2998,A4,410.75,0.5,59,128.84
2999,G4,410.75,1.5,43,128.84
3000,A2,411.0,0.5,44,128.84
3001,A1,411.0,0.5,44,128.84
3002,C#5,411.25,0.75,62,128.84
3003,A4,411.25,1.0,43,128.84
3004,D5,412.0,0.25,59,128.84
3005,A3,412.0,0.5,53,128.84
3006,G4,412.0,1.5,42,128.84
3007,A4,412.0,1.5,42,128.84
3008,G4,412.25,0.25,44,128.84
3009,E5,412.25,0.25,44,128.84
3010,A4,412.25,0.25,44,128.84
3011,C#5,412.5,0.125,53,128.84
3012,C#4,412.5,0.75,54,128.84
3013,D5,412.625,0.125,53,128.84
3014,C#5,412.75,1.0,63,128.84
3015,A4,413.25,167/1000,46,128.84
3016,D4,413.25,0.25,53,128.84
3017,E5,413.417,167/1000,49,128.84
3018,E4,413.5,0.5,53,128.84
3019,G4,413.5,0.5,36,128.84
3020,A4,413.5,0.5,36,128.84
3021,A5,413.583,167/1000,52,128.84
3022,G5,413.583,167/1000,52,128.84
3023,A5,413.75,167/1000,53,128.84
3024,C#6,413.917,167/1000,55,128.84
3025,C#4,414.0,1.0,57,128.84
3026,G4,414.0,1.0,36,128.84
3027,A4,414.0,1.0,36,128.84
3028,G6,414.083,167/1000,57,128.84
3029,A6,414.083,167/1000,57,128.84
3030,B6,414.25,167/1000,57,128.84
3031,G6,414.25,0.25,57,128.84
3032,D6,414.417,167/1000,59,128.84
3033,B5,414.583,167/1000,57,128.84
3034,B5,414.75,167/1000,55,128.84
3035,G5,414.75,167/1000,55,128.84
3036,D5,414.917,167/1000,55,128.84
3037,C#4,415.0,0.5,44,128.84
3038,A4,415.0,0.5,44,128.84
3039,G4,415.0,0.5,44,128.84
3040,A3,415.0,0.5,44,128.84
3041,B4,415.083,167/1000,54,128.84
3042,B4,415.25,0.25,53,128.84
3043,G4,415.25,167/1000,53,128.84
3044,D4,415.417,167/1000,53,128.84
3045,D4,415.5,1.0,45,128.84
3046,A4,415.5,1.0,45,128.84
3047,G4,415.5,1.0,45,128.84
3048,B3,415.5,1.0,45,128.84
3049,B3,415.583,167/1000,52,128.84
3050,B3,416.25,167/1000,57,128.84
3051,D4,416.417,167/1000,59,128.84
3052,E2,416.5,0.5,40,128.84
3053,B4,416.583,167/1000,61,128.84
3054,G4,416.583,167/1000,61,128.84
3055,B4,416.75,167/1000,62,128.84
3056,D5,416.917,167/1000,62,128.84
3057,A2,417.0,0.5,44,128.84
3058,A1,417.0,0.5,44,128.84
3059,B5,417.083,167/1000,63,128.84
3060,G5,417.083,167/1000,63,128.84
3061,D4,417.75,167/1000,61,128.84
3062,F#4,417.917,167/1000,62,128.84
3063,A2,418.0,0.5,46,128.84
3064,E3,418.0,0.5,46,128.84
3065,A3,418.0,0.5,46,128.84
3066,D5,418.083,167/1000,63,128.84
3067,B4,418.083,167/1000,63,128.84
3068,D5,418.25,167/1000,63,128.84
3069,F#5,418.417,167/1000,64,128.84
3070,A3,418.5,1.0,36,128.84
3071,C#4,418.5,0.75,49,128.84
3072,B5,418.583,167/1000,65,128.84
3073,D6,418.583,167/1000,65,128.84
3074,E4,419.25,167/1000,63,128.84
3075,D4,419.25,0.25,46,128.84
3076,G#4,419.417,167/1000,63,128.84
3077,E4,419.5,0.5,46,128.84
3078,A3,419.5,0.5,32,128.84
3079,E5,419.583,167/1000,65,128.84
3080,D5,419.583,167/1000,65,128.84
3081,E5,419.75,167/1000,66,128.84
3082,G#5,419.917,167/1000,67,128.84
3083,C#4,420.0,0.5,52,128.84
3084,A3,420.0,0.5,32,128.84
3085,E6,420.083,167/1000,69,128.84
3086,D6,420.083,167/1000,69,128.84
3087,B3,420.5,0.5,44,128.84
3088,B4,420.5,0.5,44,128.84
3089,F4,420.75,167/1000,65,128.84
3090,A4,420.917,167/1000,66,128.84
3091,C#4,421.0,0.312,46,128.84
3092,A4,421.0,0.312,46,128.84
3093,G4,421.0,0.312,46,128.84
3094,A3,421.0,0.312,46,128.84
3095,F5,421.083,167/1000,69,128.84
3096,C#5,421.083,167/1000,69,128.84
3097,F5,421.25,167/1000,70,128.84
3098,G3,421.312,0.688,43,128.84
3099,D4,421.375,0.625,43,128.84
3100,A5,421.417,167/1000,71,128.84
3101,G4,421.438,0.562,47,128.84
3102,B4,421.5,0.5,53,128.84
3103,F6,421.583,167/1000,71,128.84
3104,C#6,421.583,167/1000,71,128.84
3105,F#4,422.25,167/1000,65,128.84
3106,A4,422.417,167/1000,69,128.84
3107,F#5,422.583,167/1000,71,128.84
3108,F#5,422.75,167/1000,74,128.84
3109,A5,422.917,167/1000,77,128.84
3110,G2,423.0,167/1000,55,128.84
3111,F#6,423.083,167/1000,77,128.84
3112,D3,423.167,167/1000,55,128.84
3113,E6,423.25,0.75,81,128.84
3114,D6,423.25,0.25,77,128.84
3115,G3,423.333,167/1000,55,128.84
3116,A5,423.417,167/1000,76,128.84
3117,E5,423.583,167/1000,72,128.84
3118,E5,423.75,167/1000,79,128.84
3119,A5,423.917,167/1000,77,128.84
3120,F#6,424.0,0.25,76,128.84
3121,E5,424.083,167/1000,75,128.84
3122,D6,424.25,0.25,73,128.84
3123,A5,424.417,167/1000,72,128.84
3124,F#5,424.417,167/1000,72,128.84
3125,B2,424.5,167/1000,59,128.84
3126,D5,424.583,167/1000,71,128.84
3127,F#3,424.667,167/1000,59,128.84
3128,B3,424.833,167/1000,59,128.84
3129,A4,425.25,167/1000,65,128.84
3130,D5,425.417,167/1000,69,128.84
3131,A5,425.583,167/1000,71,128.84
3132,F#5,425.583,167/1000,71,128.84
3133,A5,425.75,167/1000,74,128.84
3134,D6,425.917,167/1000,77,128.84
3135,B-2,426.0,167/1000,62,128.84
3136,A6,426.083,167/1000,80,128.84
3137,F#6,426.083,167/1000,80,128.84
3138,G#3,426.167,167/1000,62,128.84
3139,A6,426.25,167/1000,89,128.84
3140,F#6,426.25,0.25,89,128.84
3141,D4,426.333,167/1000,62,128.84
3142,D6,426.417,167/1000,77,128.84
3143,A5,426.583,167/1000,74,128.84
3144,A5,426.75,167/1000,79,128.84
3145,D6,426.917,167/1000,77,128.84
3146,F#6,427.083,167/1000,75,128.84
3147,B6,427.25,0.25,84,128.84
3148,D6,427.417,167/1000,72,128.84
3149,A2,427.5,167/1000,63,128.84
3150,B5,427.583,167/1000,71,128.84
3151,G3,427.667,167/1000,63,128.84
3152,A6,427.75,0.5,84,128.84
3153,C#4,427.833,167/1000,63,128.84
3154,D6,427.917,167/1000,64,128.84
3155,A5,428.083,167/1000,64,128.84
3156,G6,428.25,0.5,83,128.84
3157,D6,428.417,167/1000,65,128.84
3158,G5,428.583,167/1000,71,128.84
3159,F#6,428.75,0.5,81,128.84
3160,D6,428.917,167/1000,66,128.84
3161,D3,429.0,0.5,73,128.84
3162,D2,429.0,0.5,73,128.84
3163,F#5,429.083,167/1000,70,128.84
3164,E6,429.25,0.5,86,128.84
3165,D6,429.417,167/1000,69,128.84
3166,E5,429.583,167/1000,69,128.84
3167,F#6,429.75,0.5,81,128.84
3168,A5,429.917,167/1000,63,128.84
3169,F#3,430.0,0.5,68,128.84
3170,A3,430.0,0.5,68,128.84
3171,F#4,430.0,0.5,68,128.84
3172,F#5,430.083,167/1000,64,128.84
3173,D6,430.25,0.5,84,128.84
3174,F#5,430.417,167/1000,65,128.84
3175,E3,430.5,0.75,72,128.84
3176,A3,430.5,0.75,72,128.84
3177,E4,430.5,0.75,72,128.84
3178,D5,430.583,167/1000,66,128.84
3179,F#4,431.25,167/1000,65,128.84
3180,F#3,431.25,0.25,70,128.84
3181,F#4,431.25,0.25,70,128.84
3182,A4,431.417,167/1000,69,128.84
3183,D3,431.5,0.5,70,128.84
3184,D4,431.5,0.5,70,128.84
3185,F#5,431.583,167/1000,71,128.84
3186,F#5,431.75,167/1000,74,128.84
3187,A5,431.917,167/1000,77,128.84
3188,D1,432.0,0.5,76,128.84
3189,D2,432.0,0.5,76,128.84
3190,F#6,432.083,167/1000,80,128.84
3191,F#6,432.25,0.25,89,128.84
3192,A5,432.417,167/1000,77,128.84
3193,F#5,432.583,167/1000,72,128.84
3194,F#5,432.75,167/1000,79,128.84
3195,A5,432.917,167/1000,77,128.84
3196,A4,433.0,0.5,68,128.84
3197,F#4,433.0,0.5,68,128.84
3198,D4,433.0,0.5,68,128.84
3199,A3,433.0,0.5,68,128.84
3200,F#6,433.083,167/1000,75,128.84
3201,F#6,433.25,0.25,82,128.84
3202,B-6,433.417,167/1000,72,128.84
3203,A4,433.5,1.0,67,128.84
3204,F#4,433.5,1.0,67,128.84
3205,D4,433.5,1.0,67,128.84
3206,A3,433.5,1.0,67,128.84
3207,F#7,433.583,167/1000,71,128.84
3208,F#7,433.75,167/1000,86,128.84
3209,B-6,433.917,167/1000,66,128.84
3210,D2,434.0,1.0,71,128.84
3211,D3,434.0,1.0,71,128.84
3212,F#6,434.083,167/1000,67,128.84
3213,F#6,434.25,167/1000,82,128.84
3214,F#5,434.417,167/1000,66,128.84
3215,B4,434.5,0.5,67,128.84
3216,F#4,434.5,0.5,67,128.84
3217,D4,434.5,0.5,67,128.84
3218,B3,434.5,0.5,67,128.84
3219,F#6,434.583,167/1000,71,128.84
3220,F#5,434.75,167/1000,83,128.84
3221,C#6,434.917,167/1000,67,128.84
3222,A4,435.0,0.5,79,128.84
3223,F#4,435.0,0.5,79,128.84
3224,D4,435.0,0.5,79,128.84
3225,A3,435.0,0.5,79,128.84
3226,D2,435.0,0.5,71,128.84
3227,D3,435.0,0.5,71,128.84
3228,F#6,435.083,167/1000,67,128.84
3229,F#5,435.25,167/1000,87,128.84
3230,D6,435.417,167/1000,69,128.84
3231,G4,435.5,0.5,68,128.84
3232,G3,435.5,0.5,68,128.84
3233,F#6,435.583,167/1000,69,128.84
3234,F#5,435.75,167/1000,83,128.84
3235,C#6,435.917,167/1000,66,128.84
3236,F#4,436.0,0.5,60,128.84
3237,F#3,436.0,0.5,60,128.84
3238,F#6,436.083,167/1000,66,128.84
3239,F#5,436.25,167/1000,81,128.84
3240,B5,436.417,167/1000,69,128.84
3241,E4,436.5,0.5,68,128.84
3242,A3,436.5,0.5,68,128.84
3243,E3,436.5,0.5,68,128.84
3244,F#6,436.583,167/1000,70,128.84
3245,F#4,437.0,0.5,63,128.84
3246,F#3,437.0,0.5,63,128.84
3247,F#4,437.25,167/1000,65,128.84
3248,A4,437.417,167/1000,69,128.84
3249,D3,437.5,0.5,66,128.84
3250,A3,437.5,0.5,66,128.84
3251,D4,437.5,0.5,66,128.84
3252,F#5,437.583,167/1000,71,128.84
3253,F#5,437.75,167/1000,74,128.84
3254,A5,437.917,167/1000,77,128.84
3255,D2,438.0,0.5,72,128.84
3256,D3,438.0,0.5,72,128.84
3257,F#6,438.083,167/1000,80,128.84
3258,F#6,438.25,0.25,89,128.84
3259,A5,438.417,167/1000,77,128.84
3260,F#5,438.583,167/1000,73,128.84
3261,F#5,438.75,167/1000,79,128.84
3262,A5,438.917,167/1000,77,128.84
3263,F#4,439.0,0.5,69,128.84
3264,A3,439.0,0.5,69,128.84
3265,F#3,439.0,0.5,69,128.84
3266,F#6,439.083,167/1000,75,128.84
3267,F#6,439.25,0.25,83,128.84
3268,B-6,439.417,167/1000,72,128.84
3269,F#4,439.5,1.0,68,128.84
3270,A3,439.5,1.0,68,128.84
3271,F#3,439.5,1.0,68,128.84
3272,F#7,439.583,167/1000,71,128.84
3273,F#7,439.75,167/1000,84,128.84
3274,B-6,439.917,167/1000,67,128.84
3275,D2,440.0,1.0,71,128.84
3276,D3,440.0,1.0,71,128.84
3277,F#6,440.083,167/1000,67,128.84
3278,F#6,440.25,167/1000,81,128.84
3279,F#5,440.417,167/1000,66,128.84
3280,E4,440.5,0.5,67,128.84
3281,B-3,440.5,0.5,67,128.84
3282,F#3,440.5,0.5,67,128.84
3283,E3,440.5,0.5,67,128.84
3284,F#6,440.583,167/1000,66,128.84
3285,C#6,440.75,0.5,86,128.84
3286,F#6,440.917,167/1000,70,128.84
3287,E4,441.0,0.5,79,128.84
3288,B-3,441.0,0.5,79,128.84
3289,F#3,441.0,0.5,79,128.84
3290,E3,441.0,0.5,79,128.84
3291,D2,441.0,0.5,71,128.84
3292,D3,441.0,0.5,71,128.84
3293,C#7,441.083,167/1000,69,128.84
3294,D6,441.25,0.5,90,128.84
3295,F#6,441.417,167/1000,70,128.84
3296,D3,441.5,0.5,68,128.84
3297,D2,441.5,0.5,68,128.84
3298,D7,441.583,167/1000,71,128.84
3299,C#6,441.75,0.5,89,128.84
3300,F#6,441.917,167/1000,66,128.84
3301,F#3,442.0,0.5,59,128.84
3302,C#4,442.0,0.5,59,128.84
3303,C#3,442.0,0.5,59,128.84
3304,C#7,442.083,167/1000,66,128.84
3305,B5,442.25,0.5,87,128.84
3306,F#6,442.417,167/1000,66,128.84
3307,D4,442.5,0.5,68,128.84
3308,F#3,442.5,0.5,68,128.84
3309,D3,442.5,0.5,68,128.84
3310,B6,442.583,167/1000,66,128.84
3311,F#3,443.0,0.5,62,128.84
3312,C#4,443.0,0.5,62,128.84
3313,C#3,443.0,0.5,62,128.84
3314,D6,443.25,0.25,70,128.84
3315,F#6,443.25,0.25,70,128.84
3316,F#5,443.25,0.25,70,128.84
3317,B2,443.5,0.5,66,128.84
3318,F#3,443.5,0.5,66,128.84
3319,B3,443.5,0.5,66,128.84
3320,G#6,443.75,0.25,74,128.84
3321,F#6,443.75,0.25,74,128.84
3322,G#5,443.75,0.25,74,128.84
3323,D1,444.0,0.5,72,128.84
3324,D2,444.0,0.5,72,128.84
3325,B6,444.125,0.125,83,128.84
3326,A6,444.25,0.5,79,128.84
3327,F#6,444.25,0.5,79,128.84
3328,A5,444.25,0.5,79,128.84
3329,G#5,444.75,0.5,71,128.84
3330,G#6,444.75,0.5,71,128.84
3331,F#4,445.0,0.5,69,128.84
3332,A3,445.0,0.5,69,128.84
3333,F#3,445.0,0.5,69,128.84
3334,F#5,445.25,0.25,65,128.84
3335,F#6,445.25,0.25,65,128.84
3336,F#4,445.5,1.0,68,128.84
3337,A3,445.5,1.0,68,128.84
3338,F#3,445.5,1.0,68,128.84
3339,D2,446.0,1.0,71,128.84
3340,D3,446.0,1.0,71,128.84
3341,F#4,446.25,0.125,55,128.84
3342,G4,446.375,0.125,55,128.84
3343,B-4,446.5,0.125,55,128.84
3344,E4,446.5,0.5,60,128.84
3345,B-3,446.5,0.5,60,128.84
3346,F#3,446.5,0.5,60,128.84
3347,E3,446.5,0.5,60,128.84
3348,B4,446.625,0.125,55,128.84
3349,C#5,446.75,0.125,56,128.84
3350,D5,446.875,0.125,56,128.84
3351,E5,447.0,0.125,57,128.84
3352,E4,447.0,0.5,79,128.84
3353,B-3,447.0,0.5,79,128.84
3354,F#3,447.0,0.5,79,128.84
3355,E3,447.0,0.5,79,128.84
3356,D2,447.0,0.5,71,128.84
3357,D3,447.0,0.5,71,128.84
3358,F#5,447.125,0.125,59,128.84
3359,G5,447.25,0.125,59,128.84
3360,B-5,447.375,0.125,61,128.84
3361,B5,447.5,0.125,61,128.84
3362,D3,447.5,0.5,63,128.84
3363,D2,447.5,0.5,63,128.84
3364,C#6,447.625,0.125,61,128.84
3365,D6,447.75,0.125,62,128.84
3366,E6,447.875,0.125,62,128.84
3367,F#6,448.0,0.125,62,128.84
3368,F#3,448.0,0.5,54,128.84
3369,C#4,448.0,0.5,54,128.84
3370,C#3,448.0,0.5,54,128.84
3371,G6,448.125,0.125,62,128.84
3372,B-6,448.25,1/10,63,128.84
3373,B6,448.35,1/10,63,128.84
3374,C#7,448.45,1/10,63,128.84
3375,D4,448.5,0.5,61,128.84
3376,F#3,448.5,0.5,61,128.84
3377,D3,448.5,0.5,61,128.84
3378,D7,448.55,1/10,63,128.84
3379,E7,448.658,23/250,60,128.84
3380,F#7,448.75,0.5,75,128.84
3381,E7,448.75,1/125,60,128.84
3382,F#3,449.0,0.5,55,128.84
3383,C#4,449.0,0.5,55,128.84
3384,C#3,449.0,0.5,55,128.84
3385,D6,449.25,0.25,70,128.84
3386,F#6,449.25,0.25,70,128.84
3387,F#5,449.25,0.25,70,128.84
3388,B2,449.5,0.5,59,128.84
3389,F#3,449.5,0.5,59,128.84
3390,B3,449.5,0.5,59,128.84
3391,G#6,449.75,0.25,74,128.84
3392,F#6,449.75,0.25,74,128.84
3393,G#5,449.75,0.25,74,128.84
3394,A2,450.0,167/1000,46,128.84
3395,D2,450.0,0.5,89,128.84
3396,B6,450.125,0.125,83,128.84
3397,B-2,450.167,167/1000,52,128.84
3398,A6,450.25,0.5,79,128.84
3399,F#6,450.25,0.5,79,128.84
3400,A5,450.25,0.5,79,128.84
3401,C#3,450.333,167/1000,52,128.84
3402,D3,450.5,167/1000,53,128.84
3403,E3,450.667,167/1000,53,128.84
3404,G#5,450.75,0.5,71,128.84
3405,G#6,450.75,0.5,71,128.84
3406,F3,450.833,167/1000,53,128.84
3407,F#3,451.0,167/1000,54,128.84
3408,G3,451.167,167/1000,55,128.84
3409,F#5,451.25,0.25,65,128.84
3410,F#6,451.25,0.25,65,128.84
3411,G#3,451.333,167/1000,55,128.84
3412,A3,451.5,167/1000,55,128.84
3413,B-3,451.667,167/1000,56,128.84
3414,C#4,451.833,167/1000,57,128.84
3415,D4,452.0,167/1000,57,128.84
3416,E4,452.167,167/1000,59,128.84
3417,F#4,452.25,0.125,55,128.84
3418,F4,452.333,167/1000,61,128.84
3419,G4,452.375,0.125,55,128.84
3420,B-4,452.5,0.125,55,128.84
3421,F#4,452.5,0.25,66,128.84
3422,B4,452.625,0.125,55,128.84
3423,C#5,452.75,0.125,56,128.84
3424,D5,452.875,0.125,56,128.84
3425,E5,453.0,0.125,57,128.84
3426,D2,453.0,0.5,82,128.84
3427,D3,453.0,0.5,82,128.84
3428,F#5,453.125,0.125,59,128.84
3429,G5,453.25,0.125,59,128.84
3430,B-5,453.375,0.125,61,128.84
3431,B5,453.5,0.125,61,128.84
3432,E4,453.5,0.25,70,128.84
3433,F#3,453.5,0.25,70,128.84
3434,E3,453.5,0.25,70,128.84
3435,C#6,453.625,0.125,61,128.84
3436,D6,453.75,1/10,62,128.84
3437,E6,453.85,1/10,62,128.84
3438,F#6,453.95,1/10,62,128.84
3439,C#4,454.0,0.25,70,128.84
3440,C#3,454.0,0.25,70,128.84
3441,G6,454.05,1/10,62,128.84
3442,B-6,454.158,1/10,62,128.84
3443,B6,454.25,1/10,63,128.84
3444,C#7,454.35,1/10,63,128.84
3445,D7,454.45,1/10,63,128.84
3446,F#3,454.5,1.0,63,128.84
3447,D3,454.5,0.5,72,128.84
3448,D4,454.5,0.5,72,128.84
3449,E7,454.55,1/10,63,128.84
3450,F#7,454.658,23/250,63,128.84
3451,F#7,454.75,1/125,63,128.84
3452,C#3,455.0,0.5,71,128.84
3453,C#4,455.0,0.5,71,128.84
3454,F#5,455.25,0.25,74,128.84
3455,B-5,455.25,0.25,74,128.84
3456,B-4,455.25,0.25,74,128.84
3457,B2,455.5,0.25,71,128.84
3458,F#3,455.5,0.25,71,128.84
3459,B3,455.5,0.25,71,128.84
3460,C6,455.75,0.25,78,128.84
3461,B-5,455.75,0.25,78,128.84
3462,C5,455.75,0.25,78,128.84
3463,A2,456.0,167/1000,46,128.84
3464,D2,456.0,0.5,89,128.84
3465,E-6,456.125,0.125,89,128.84
3466,B-2,456.167,167/1000,52,128.84
3467,C#6,456.25,0.5,82,128.84
3468,B-5,456.25,0.5,82,128.84
3469,C#5,456.25,0.5,82,128.84
3470,C#3,456.333,167/1000,52,128.84
3471,D3,456.5,167/1000,53,128.84
3472,E3,456.667,167/1000,53,128.84
3473,C5,456.75,0.5,74,128.84
3474,C6,456.75,0.5,74,128.84
3475,F3,456.833,167/1000,53,128.84
3476,F#3,457.0,167/1000,54,128.84
3477,G3,457.167,167/1000,55,128.84
3478,B-4,457.25,0.25,70,128.84
3479,B-5,457.25,0.25,70,128.84
3480,G#3,457.333,167/1000,55,128.84
3481,A3,457.5,167/1000,55,128.84
3482,B-3,457.667,167/1000,56,128.84
3483,C#4,457.833,167/1000,57,128.84
3484,D4,458.0,167/1000,57,128.84
3485,E4,458.167,167/1000,59,128.84
3486,B-4,458.25,0.125,55,128.84
3487,F4,458.333,167/1000,61,128.84
3488,B4,458.375,0.125,55,128.84
3489,D5,458.5,0.125,55,128.84
3490,F#4,458.5,0.25,66,128.84
3491,E-5,458.625,0.125,55,128.84
3492,F5,458.75,0.125,56,128.84
3493,F#5,458.875,0.125,56,128.84
3494,G#5,459.0,0.125,57,128.84
3495,D2,459.0,0.5,82,128.84
3496,D3,459.0,0.5,82,128.84
3497,A5,459.125,0.125,59,128.84
3498,B-5,459.25,0.125,59,128.84
3499,B5,459.375,0.125,61,128.84
3500,C6,459.5,0.125,61,128.84
3501,E4,459.5,0.25,70,128.84
3502,F#3,459.5,0.25,70,128.84
3503,E3,459.5,0.25,70,128.84
3504,C#6,459.625,0.125,61,128.84
3505,D6,459.75,0.125,62,128.84
3506,E-6,459.875,0.125,62,128.84
3507,E6,460.0,0.125,62,128.84
3508,C#4,460.0,0.25,70,128.84
3509,C#3,460.0,0.25,70,128.84
3510,F6,460.125,0.125,62,128.84
3511,F#6,460.25,1/10,63,128.84
3512,G6,460.375,1/10,63,128.84
3513,G#6,460.5,1/10,63,128.84
3514,F#3,460.5,1.0,63,128.84
3515,D3,460.5,0.5,72,128.84
3516,D4,460.5,0.5,72,128.84
3517,A6,460.625,1/10,63,128.84
3518,E-6,460.75,0.5,83,128.84
3519,B-5,460.75,0.5,83,128.84
3520,B-6,460.75,0.5,83,128.84
3521,C#3,461.0,0.5,71,128.84
3522,C#4,461.0,0.5,71,128.84
3523,B-5,461.5,0.25,73,128.84
3524,F#5,461.5,0.25,73,128.84
3525,B-4,461.5,0.25,73,128.84
3526,B2,461.5,0.25,71,128.84
3527,F#3,461.5,0.25,71,128.84
3528,B3,461.5,0.25,71,128.84
3529,C#3,462.0,167/1000,46,128.84
3530,F#2,462.0,0.5,89,128.84
3531,C6,462.0,0.25,78,128.84
3532,F#5,462.0,0.25,78,128.84
3533,C5,462.0,0.25,78,128.84
3534,D3,462.167,167/1000,52,128.84
3535,F3,462.333,167/1000,52,128.84
3536,F#3,462.5,167/1000,53,128.84
3537,C#5,462.5,0.25,81,128.84
3538,F#5,462.5,0.25,81,128.84
3539,C#6,462.5,0.25,81,128.84
3540,G#3,462.667,167/1000,53,128.84
3541,A3,462.833,167/1000,53,128.84
3542,B-3,463.0,167/1000,54,128.84
3543,C5,463.0,0.25,78,128.84
3544,F#5,463.0,0.25,78,128.84
3545,C6,463.0,0.25,78,128.84
3546,B3,463.167,167/1000,55,128.84
3547,C4,463.333,167/1000,55,128.84
3548,C#4,463.5,167/1000,55,128.84
3549,B-5,463.5,0.25,76,128.84
3550,F#5,463.5,0.25,76,128.84
3551,B-4,463.5,0.25,76,128.84
3552,D4,463.667,167/1000,56,128.84
3553,B-6,463.75,0.5,82,128.84
3554,C7,463.75,0.5,82,128.84
3555,E6,463.75,0.5,82,128.84
3556,C6,463.75,0.5,82,128.84
3557,F4,463.833,167/1000,57,128.84
3558,F#4,464.0,167/1000,57,128.84
3559,G#4,464.167,167/1000,59,128.84
3560,A4,464.333,167/1000,61,128.84
3561,B-4,464.5,0.25,66,128.84
3562,G#5,464.5,0.25,82,128.84
3563,G#4,464.5,0.25,82,128.84
3564,B5,465.0,0.25,84,128.84
3565,B4,465.0,0.25,84,128.84
3566,F#2,465.0,0.5,82,128.84
3567,F#3,465.0,0.5,82,128.84
3568,C#6,465.5,0.25,85,128.84
3569,C#5,465.5,0.25,85,128.84
3570,G#4,465.5,0.25,70,128.84
3571,B-3,465.5,0.25,70,128.84
3572,G#3,465.5,0.25,70,128.84
3573,E-6,466.0,0.25,87,128.84
3574,E-5,466.0,0.25,87,128.84
3575,B-3,466.0,0.25,67,128.84
3576,F4,466.0,0.25,67,128.84
3577,F3,466.0,0.25,67,128.84
3578,B-3,466.5,1.0,63,128.84
3579,E-3,466.5,0.5,72,128.84
3580,F#4,466.5,0.5,72,128.84
3581,F7,466.75,0.188,89,128.84
3582,A6,466.75,0.188,89,128.84
3583,F6,466.75,0.188,89,128.84
3584,F3,467.0,0.5,71,128.84
3585,F4,467.0,0.5,71,128.84
3586,E-3,467.5,0.25,71,128.84
3587,B-3,467.5,0.25,71,128.84
3588,E-4,467.5,0.25,71,128.84
3589,F6,467.75,0.188,64,128.84
3590,F7,468.0,0.188,62,128.84
3591,C#2,468.0,0.5,75,128.84
3592,F#2,468.0,0.5,75,128.84
3593,F#1,468.0,0.5,75,128.84
3594,F5,468.5,0.188,71,128.84
3595,F#4,468.5,0.25,63,128.84
3596,C#4,468.5,0.25,63,128.84
3597,F#3,468.5,0.25,63,128.84
3598,F6,468.75,0.188,64,128.84
3599,F#4,469.0,0.25,68,128.84
3600,C4,469.0,0.25,68,128.84
3601,F#3,469.0,0.25,68,128.84
3602,F4,469.25,0.188,73,128.84
3603,F5,469.5,0.188,73,128.84
3604,F#4,469.5,0.25,75,128.84
3605,B-3,469.5,0.25,75,128.84
3606,F#3,469.5,0.25,75,128.84
3607,F3,470.0,0.188,63,128.84
3608,F#4,470.0,0.25,70,128.84
3609,C4,470.0,0.25,70,128.84
3610,F#3,470.0,0.25,70,128.84
3611,F4,470.25,0.188,62,128.84
3612,F#4,470.5,0.25,66,128.84
3613,C#4,470.5,0.25,66,128.84
3614,F#3,470.5,0.25,66,128.84
3615,F2,470.75,0.188,62,128.84
3616,F3,471.0,0.188,61,128.84
3617,C2,471.0,0.5,82,128.84
3618,F#2,471.0,0.5,82,128.84
3619,F#1,471.0,0.5,82,128.84
3620,F3,471.5,0.188,62,128.84
3621,F#3,471.5,0.25,77,128.84
3622,F#4,471.5,0.25,77,128.84
3623,F4,471.75,0.188,56,128.84
3624,B-3,472.0,0.25,79,128.84
3625,B-4,472.0,0.25,79,128.84
3626,F4,472.25,0.188,62,128.84
3627,F#4,472.5,0.188,62,128.84
3628,C4,472.5,0.25,80,128.84
3629,C5,472.5,0.25,80,128.84
3630,E-4,472.75,0.188,66,128.84
3631,G4,472.75,0.188,66,128.84
3632,E-4,473.0,0.188,58,128.84
3633,G4,473.0,0.188,58,128.84
3634,D4,473.0,0.25,81,128.84
3635,D5,473.0,0.25,81,128.84
3636,E-4,473.25,0.188,60,128.84
3637,G4,473.25,0.188,60,128.84
3638,G4,473.5,0.188,67,128.84
3639,E-4,473.5,0.188,67,128.84
3640,E4,473.5,0.25,81,128.84
3641,E5,473.5,0.25,81,128.84
3642,D4,473.75,0.188,64,128.84
3643,G4,474.0,0.188,66,128.84
3644,E-4,474.0,0.188,66,128.84
3645,F1,474.0,0.188,89,128.84
3646,C2,474.0,0.188,89,128.84
3647,F2,474.0,0.188,89,128.84
3648,B3,474.25,0.188,63,128.84
3649,E-4,474.5,0.188,60,128.84
3650,C4,474.5,0.188,60,128.84
3651,D4,474.75,0.188,64,128.84
3652,F6,474.75,0.188,71,128.84
3653,E-4,475.0,0.5,62,128.84
3654,G4,475.0,0.188,70,128.84
3655,B-4,475.25,0.188,69,128.84
3656,F5,475.5,0.188,70,128.84
3657,F4,475.5,0.188,62,128.84
3658,A4,475.5,0.188,62,128.84
3659,D4,475.75,0.188,62,128.84
3660,F4,475.75,0.188,62,128.84
3661,D4,476.0,0.188,60,128.84
3662,F4,476.0,0.188,60,128.84
3663,F4,476.25,0.188,72,128.84
3664,D4,476.25,0.188,63,128.84
3665,F4,476.25,0.188,63,128.84
3666,F4,476.5,0.188,69,128.84
3667,D4,476.5,0.188,69,128.84
3668,B-3,476.75,0.188,67,128.84
3669,F3,477.0,0.188,69,128.84
3670,E-4,477.0,0.188,65,128.84
3671,C4,477.0,0.188,65,128.84
3672,D4,477.25,0.188,72,128.84
3673,G4,477.5,0.188,60,128.84
3674,E-4,477.5,0.188,60,128.84
3675,F2,477.75,0.188,69,128.84
3676,F4,477.75,0.188,65,128.84
3677,D4,477.75,0.188,65,128.84
3678,F1,478.5,0.188,66,128.84
3679,F2,478.5,0.188,66,128.84
3680,E-6,478.75,0.188,52,128.84
3681,F#6,478.75,0.188,52,128.84
3682,E-6,479.0,0.188,46,128.84
3683,F#6,479.0,0.188,46,128.84
3684,F4,479.25,0.188,69,128.84
3685,E-6,479.25,0.188,48,128.84
3686,F#6,479.25,0.188,48,128.84
3687,F#6,479.5,0.188,52,128.84
3688,E-6,479.5,0.188,52,128.84
3689,D6,479.75,0.188,51,128.84
3690,G#3,479.938,0.062,42,128.84
3691,F#6,480.0,0.188,52,128.84
3692,E-6,480.0,0.188,52,128.84
3693,A3,480.0,0.188,57,128.84
3694,C4,480.0,0.188,57,128.84
3695,B5,480.25,0.188,51,128.84
3696,E-6,480.5,0.188,48,128.84
3697,C6,480.5,0.188,48,128.84
3698,E3,480.688,0.062,46,128.84
3699,D6,480.75,0.188,51,128.84
3700,F3,480.75,0.188,58,128.84
3701,A3,480.75,0.188,58,128.84
3702,E-6,481.0,0.5,49,128.84
3703,F#6,481.0,0.188,54,128.84
3704,B-6,481.25,0.188,54,128.84
3705,G#2,481.438,0.062,45,128.84
3706,A2,481.5,0.188,53,128.84
3707,F6,481.5,0.188,48,128.84
3708,A6,481.5,0.188,48,128.84
3709,C#6,481.75,0.188,48,128.84
3710,F6,481.75,0.188,48,128.84
3711,C#6,482.0,0.188,48,128.84
3712,F6,482.0,0.188,48,128.84
3713,E2,482.188,0.062,45,128.84
3714,F2,482.25,0.188,53,128.84
3715,C#6,482.25,0.188,51,128.84
3716,F6,482.25,0.188,51,128.84
3717,F6,482.5,0.188,56,128.84
3718,C#6,482.5,0.188,56,128.84
3719,B-5,482.75,0.188,53,128.84
3720,A2,482.938,0.062,45,128.84
3721,B-2,483.0,0.5,51,128.84
3722,E-6,483.0,0.188,52,128.84
3723,C6,483.0,0.188,52,128.84
3724,C#6,483.25,0.188,57,128.84
3725,F#6,483.5,0.188,48,128.84
3726,E-6,483.5,0.188,48,128.84
3727,C#3,483.688,0.062,47,128.84
3728,D3,483.75,0.188,55,128.84
3729,F6,483.75,0.188,52,128.84
3730,C#6,483.75,0.188,52,128.84
3731,E3,484.438,0.062,50,128.84
3732,F3,484.5,0.188,54,128.84
3733,B4,484.75,0.188,72,128.84
3734,E-5,485.0,0.188,69,128.84
3735,C5,485.0,0.188,69,128.84
3736,A3,485.188,0.062,56,128.84
3737,D5,485.25,0.188,69,128.84
3738,D4,485.25,0.625,70,128.84
3739,B-3,485.25,0.625,70,128.84
3740,G5,485.5,0.188,80,128.84
3741,E-5,485.5,0.188,80,128.84
3742,F#5,485.75,0.188,74,128.84
3743,G#5,485.938,0.062,31,128.84
3744,B-5,486.0,0.188,75,128.84
3745,G5,486.0,0.188,75,128.84
3746,A5,486.0,0.188,40,128.84
3747,C6,486.0,0.188,40,128.84
3748,G#5,486.25,0.188,84,128.84
3749,C6,486.5,0.188,70,128.84
3750,A5,486.5,0.188,70,128.84
3751,E5,486.688,0.062,32,128.84
3752,B-5,486.75,0.188,70,128.84
3753,G5,486.75,0.188,70,128.84
3754,F5,486.75,0.188,42,128.84
3755,A5,486.75,0.188,42,128.84
3756,A5,487.0,0.5,74,128.84
3757,F5,487.0,0.188,74,128.84
3758,E5,487.25,0.188,72,128.84
3759,G#4,487.438,0.062,32,128.84
3760,A4,487.5,0.188,36,128.84
3761,G5,487.5,0.188,70,128.84
3762,E-5,487.5,0.188,70,128.84
3763,C#5,487.75,0.188,74,128.84
3764,F5,488.0,0.188,71,128.84
3765,D5,488.0,0.188,71,128.84
3766,E4,488.188,0.062,32,128.84
3767,E-5,488.25,0.188,70,128.84
3768,F4,488.25,0.188,36,128.84
3769,B4,488.5,0.75,61,128.84
3770,B-5,488.5,0.5,86,128.84
3771,E5,488.5,0.188,61,128.84
3772,F5,488.75,0.5,62,128.84
3773,A4,488.938,0.062,32,128.84
3774,G#5,489.0,0.188,61,128.84
3775,B-4,489.0,0.188,36,128.84
3776,C#5,489.25,0.188,64,128.84
3777,F#5,489.25,0.188,64,128.84
3778,F5,489.5,0.188,65,128.84
3779,C5,489.688,0.062,32,128.84
3780,F#5,489.75,0.188,63,128.84
3781,C#5,489.75,0.188,39,128.84
3782,F#4,490.0,0.75,66,128.84
3783,C#5,490.0,0.75,66,128.84
3784,E5,490.438,0.062,35,128.84
3785,F5,490.5,0.188,39,128.84
3786,G5,490.75,0.188,45,128.84
3787,B5,491.0,0.188,44,128.84
3788,G#5,491.0,0.188,44,128.84
3789,A5,491.188,0.062,35,128.84
3790,B-5,491.25,0.188,44,128.84
3791,C#6,491.25,0.625,43,128.84
3792,B-5,491.25,0.625,43,128.84
3793,E-6,491.5,0.188,49,128.84
3794,B5,491.5,0.188,49,128.84
3795,D6,491.75,0.188,45,128.84
3796,F#6,492.0,0.188,46,128.84
3797,E-6,492.0,0.188,46,128.84
3798,F4,492.0,0.188,58,128.84
3799,G#4,492.0,0.188,58,128.84
3800,E6,492.25,0.188,53,128.84
3801,E-4,492.25,0.188,53,128.84
3802,G4,492.25,0.188,53,128.84
3803,G#6,492.5,0.188,43,128.84
3804,F6,492.5,0.188,43,128.84
3805,D4,492.5,0.188,53,128.84
3806,F4,492.5,0.188,53,128.84
3807,F#6,492.75,0.188,44,128.84
3808,E-6,492.75,0.188,44,128.84
3809,C4,492.75,0.75,50,128.84
3810,E-4,492.75,0.75,50,128.84
3811,F6,493.0,0.5,45,128.84
3812,C#6,493.0,0.188,45,128.84
3813,C6,493.25,0.188,45,128.84
3814,E3,493.25,0.188,50,128.84
3815,C#4,493.25,0.188,50,128.84
3816,C4,493.5,0.75,53,128.84
3817,F3,493.5,0.5,59,128.84
3818,E-6,493.5,0.188,44,128.84
3819,B5,493.5,0.188,44,128.84
3820,A5,493.75,0.188,45,128.84
3821,F#3,494.0,0.188,55,128.84
3822,C#6,494.0,0.188,44,128.84
3823,B-5,494.0,0.188,44,128.84
3824,B5,494.25,0.188,44,128.84
3825,C4,494.25,0.188,54,128.84
3826,G3,494.25,0.188,54,128.84
3827,G5,494.5,0.75,36,128.84
3828,F#6,494.5,0.5,46,128.84
3829,C6,494.5,0.188,36,128.84
3830,G#3,494.5,0.188,53,128.84
3831,C#6,494.75,0.5,37,128.84
3832,A3,494.75,0.188,51,128.84
3833,E6,495.0,0.188,36,128.84
3834,E4,495.0,0.188,54,128.84
3835,B-3,495.0,0.5,53,128.84
3836,F4,495.25,0.188,54,128.84
3837,A5,495.25,0.188,40,128.84
3838,D6,495.25,0.188,40,128.84
3839,C#6,495.5,0.188,41,128.84
3840,F#4,495.5,0.188,54,128.84
3841,D6,495.75,0.188,40,128.84
3842,G4,495.75,0.188,54,128.84
3843,C#4,495.75,0.75,54,128.84
3844,G#4,496.0,0.5,54,128.84
3845,B-4,496.5,0.25,50,128.84
3846,F#4,496.5,0.75,50,128.84
3847,B3,497.0,0.188,62,128.84
3848,D4,497.0,0.188,62,128.84
3849,F#3,497.125,0.875,40,128.84
3850,C#4,497.188,0.812,42,128.84
3851,B-4,497.25,0.75,46,128.84
3852,B4,497.25,0.188,57,128.84
3853,G4,497.25,0.188,57,128.84
3854,B-4,497.75,0.188,52,128.84
3855,F#4,497.75,0.188,52,128.84
3856,G4,498.0,0.188,47,128.84
3857,B4,498.0,0.188,47,128.84
3858,C#5,498.0,0.188,36,128.84
3859,E5,498.0,0.188,36,128.84
3860,B4,498.25,0.188,33,128.84
3861,E-5,498.25,0.188,33,128.84
3862,E4,498.5,0.188,54,128.84
3863,G4,498.5,0.188,54,128.84
3864,B-4,498.5,0.188,33,128.84
3865,C#5,498.5,0.188,33,128.84
3866,G#4,498.75,0.75,30,128.84
3867,B4,498.75,0.75,30,128.84
3868,G4,499.0,0.5,62,128.84
3869,B4,499.0,0.188,69,128.84
3870,D5,499.25,0.188,65,128.84
3871,C4,499.25,0.188,30,128.84
3872,A4,499.25,0.188,30,128.84
3873,G#4,499.5,0.75,32,128.84
3874,C#4,499.5,0.5,36,128.84
3875,A4,499.5,0.188,58,128.84
3876,C#5,499.5,0.188,58,128.84
3877,D4,500.0,0.188,34,128.84
3878,A3,500.0,0.188,58,128.84
3879,D4,500.0,0.188,58,128.84
3880,A4,500.25,0.188,52,128.84
3881,F#4,500.25,0.188,52,128.84
3882,G#4,500.25,0.188,34,128.84
3883,E-4,500.25,0.188,34,128.84
3884,E4,500.5,0.188,32,128.84
3885,F4,500.75,0.188,31,128.84
3886,D4,500.75,0.188,56,128.84
3887,F#4,500.75,0.188,56,128.84
3888,C5,501.0,0.188,34,128.84
3889,F#4,501.0,0.5,32,128.84
3890,E4,501.0,0.188,50,128.84
3891,G4,501.0,0.188,50,128.84
3892,C#5,501.25,0.188,34,128.84
3893,D5,501.5,0.188,34,128.84
3894,G4,501.5,0.188,50,128.84
3895,B4,501.5,0.188,50,128.84
3896,E-5,501.75,0.188,34,128.84
3897,A4,501.75,0.75,34,128.84
3898,F#4,501.75,0.188,47,128.84
3899,A4,501.75,0.188,47,128.84
3900,E5,502.0,0.5,34,128.84
3901,F#5,502.5,0.25,31,128.84
3902,D5,502.5,0.75,31,128.84
3903,B4,503.0,0.188,38,128.84
3904,D5,503.0,0.188,38,128.84
3905,B5,503.25,0.188,36,128.84
3906,G5,503.25,0.188,36,128.84
3907,A5,503.25,0.75,42,128.84
3908,F#5,503.25,0.75,42,128.84
3909,B-5,503.75,0.188,31,128.84
3910,F#5,503.75,0.188,31,128.84
3911,G5,504.0,0.188,28,128.84
3912,B5,504.0,0.188,28,128.84
3913,A2,504.0,0.188,71,128.84
3914,D3,504.0,0.188,71,128.84
3915,G3,504.0,0.188,71,128.84
3916,E5,504.5,0.188,33,128.84
3917,G5,504.5,0.188,33,128.84
3918,B5,504.75,0.188,86,128.84
3919,G5,504.75,0.188,86,128.84
3920,G5,505.0,0.5,43,128.84
3921,B5,505.0,0.188,43,128.84
3922,D6,505.25,0.188,41,128.84
3923,A5,505.5,0.188,37,128.84
3924,C#6,505.5,0.188,37,128.84
3925,F#4,505.5,0.188,62,128.84
3926,E-4,505.5,0.188,62,128.84
3927,A4,506.0,0.188,35,128.84
3928,D5,506.0,0.188,35,128.84
3929,B-4,506.0,0.188,52,128.84
3930,F#4,506.0,0.188,52,128.84
3931,A5,506.25,0.188,32,128.84
3932,F#5,506.25,0.188,32,128.84
3933,D5,506.75,0.188,34,128.84
3934,F#5,506.75,0.188,34,128.84
3935,E5,507.0,0.188,30,128.84
3936,G5,507.0,0.188,30,128.84
3937,A2,507.0,0.188,61,128.84
3938,D3,507.0,0.188,61,128.84
3939,F#3,507.0,0.188,61,128.84
3940,G5,507.5,0.188,30,128.84
3941,B5,507.5,0.188,30,128.84
3942,F#5,507.75,0.188,28,128.84
3943,A5,507.75,0.188,28,128.84
3944,F#5,507.75,0.188,86,128.84
3945,A5,507.75,0.188,86,128.84
3946,F#4,508.5,0.188,58,128.84
3947,A4,508.5,0.188,58,128.84
3948,F#4,508.75,0.188,63,128.84
3949,E-4,508.75,0.188,63,128.84
3950,G4,509.0,0.188,60,128.84
3951,E4,509.0,0.188,60,128.84
3952,B-4,509.25,0.188,63,128.84
3953,F#4,509.25,0.188,63,128.84
3954,D4,509.25,0.75,66,128.84
3955,F#4,509.25,0.75,66,128.84
3956,B4,509.5,0.188,72,128.84
3957,G4,509.5,0.188,72,128.84
3958,C#5,509.75,0.188,65,128.84
3959,B-4,509.75,0.188,65,128.84
3960,D5,510.0,0.188,70,128.84
3961,B4,510.0,0.188,70,128.84
3962,A3,510.0,0.188,48,128.84
3963,D4,510.0,0.188,48,128.84
3964,G4,510.0,0.188,48,128.84
3965,C5,510.25,0.188,74,128.84
3966,E-5,510.25,0.188,74,128.84
3967,E5,510.5,0.188,69,128.84
3968,C#5,510.5,0.188,69,128.84
3969,D5,510.75,0.188,70,128.84
3970,B4,510.75,0.188,70,128.84
3971,G6,510.75,0.188,47,128.84
3972,B6,510.75,0.188,47,128.84
3973,C#5,511.0,0.5,69,128.84
3974,A4,511.0,0.188,69,128.84
3975,G#4,511.25,0.188,66,128.84
3976,B4,511.5,0.25,63,128.84
3977,G4,511.5,0.188,63,128.84
3978,F#5,511.5,0.188,38,128.84
3979,E-5,511.5,0.188,38,128.84
3980,F4,511.75,0.188,69,128.84
3981,B4,511.75,0.25,63,128.84
3982,A4,512.0,0.188,62,128.84
3983,F#4,512.0,0.188,62,128.84
3984,B-5,512.0,0.188,32,128.84
3985,F#5,512.0,0.188,32,128.84
3986,G#4,512.25,0.188,63,128.84
3987,D5,512.5,0.5,74,128.84
3988,A4,512.5,0.188,74,128.84
3989,B-4,512.75,0.5,62,128.84
3990,C#5,513.0,0.188,66,128.84
3991,A3,513.0,0.188,36,128.84
3992,D4,513.0,0.188,36,128.84
3993,F#4,513.0,0.188,36,128.84
3994,B4,513.25,0.188,63,128.84
3995,A4,513.5,0.188,61,128.84
3996,B4,513.75,0.188,59,128.84
3997,F#6,513.75,0.188,52,128.84
3998,A6,513.75,0.188,52,128.84
3999,D4,514.0,0.75,57,128.84
4000,F#4,514.0,0.75,57,128.84
4001,F#5,514.5,0.188,35,128.84
4002,A5,514.5,0.188,35,128.84
4003,F#5,514.75,0.188,56,128.84
4004,E-5,514.75,0.188,56,128.84
4005,G5,515.0,0.188,54,128.84
4006,E5,515.0,0.188,54,128.84
4007,B-5,515.25,0.188,56,128.84
4008,F#5,515.25,0.188,56,128.84
4009,D5,515.25,0.625,39,128.84
4010,F#5,515.25,0.625,39,128.84
4011,B5,515.5,0.188,64,128.84
4012,G5,515.5,0.188,64,128.84
4013,C#6,515.75,0.188,58,128.84
4014,B-5,515.75,0.188,58,128.84
4015,D6,516.0,0.188,62,128.84
4016,B5,516.0,0.188,62,128.84
4017,D3,516.0,0.75,55,128.84
4018,G3,516.0,0.75,55,128.84
4019,B3,516.0,0.75,55,128.84
4020,A5,516.25,0.188,70,128.84
4021,D6,516.5,0.188,62,128.84
4022,B-5,516.5,0.188,62,128.84
4023,C#6,516.75,0.188,62,128.84
4024,D2,516.75,0.75,46,128.84
4025,D3,516.75,0.75,46,128.84
4026,G6,517.0,0.5,65,128.84
4027,D6,517.0,0.188,59,128.84
4028,F#6,517.25,0.188,65,128.84
4029,B-6,517.5,0.188,65,128.84
4030,G6,517.5,0.188,65,128.84
4031,G4,517.5,0.75,58,128.84
4032,E4,517.5,0.75,58,128.84
4033,A3,517.5,0.75,58,128.84
4034,C#6,517.75,0.25,72,128.84
4035,B-6,518.0,0.25,50,128.84
4036,G6,518.0,0.25,50,128.84
4037,F#6,518.25,0.25,56,128.84
4038,D2,518.25,0.75,46,128.84
4039,D3,518.25,0.75,46,128.84
4040,B-6,518.5,0.25,50,128.84
4041,G6,518.5,0.25,50,128.84
4042,C#6,518.75,0.25,60,128.84
4043,B-6,519.0,0.25,48,128.84
4044,G6,519.0,0.25,48,128.84
4045,D3,519.0,0.188,38,128.84
4046,A3,519.0,0.188,38,128.84
4047,D4,519.0,0.188,38,128.84
4048,F#6,519.25,0.25,53,128.84
4049,B-6,519.5,0.25,48,128.84
4050,G6,519.5,0.25,48,128.84
4051,C#6,519.75,0.25,57,128.84
4052,D4,519.75,1.188,49,128.84
4053,G4,519.75,0.75,55,128.84
4054,E4,519.75,0.75,55,128.84
4055,B-6,520.0,0.25,46,128.84
4056,G6,520.0,0.25,46,128.84
4057,F#6,520.25,0.25,50,128.84
4058,F#4,520.5,0.188,45,128.84
4059,B-6,520.5,0.25,47,128.84
4060,G6,520.5,0.25,47,128.84
4061,C#6,520.75,0.25,49,128.84
4062,B-6,521.0,0.25,40,128.84
4063,G6,521.0,0.25,40,128.84
4064,F#6,521.25,0.25,44,128.84
4065,D3,521.25,0.562,46,128.84
4066,B3,521.25,0.562,46,128.84
4067,B-6,521.5,0.25,40,128.84
4068,G6,521.5,0.25,40,128.84
4069,C#6,521.75,0.25,45,128.84
4070,E3,521.812,0.188,46,128.84
4071,G3,521.875,0.125,47,128.84
4072,D4,521.938,0.062,47,128.84
4073,G4,522.0,0.75,51,128.84
4074,E3,522.0,0.75,46,128.84
4075,G3,522.0,0.75,47,128.84
4076,D4,522.0,0.75,47,128.84
4077,B-6,522.0,0.25,38,128.84
4078,G6,522.0,0.25,38,128.84
4079,F#6,522.25,0.25,42,128.84
4080,B-6,522.5,0.25,38,128.84
4081,G6,522.5,0.25,38,128.84
4082,C#6,522.75,0.25,44,128.84
4083,B1,522.75,0.75,41,128.84
4084,B2,522.75,0.75,41,128.84
4085,B-6,523.0,0.25,36,128.84
4086,G6,523.0,0.25,36,128.84
4087,F#6,523.25,0.25,39,128.84
4088,E3,523.312,0.938,44,128.84
4089,G3,523.375,0.875,44,128.84
4090,D4,523.438,0.812,44,128.84
4091,G4,523.5,0.75,53,128.84
4092,B-6,523.5,0.25,34,128.84
4093,G6,523.5,0.25,34,128.84
4094,C6,523.75,0.25,44,128.84
4095,B-6,524.0,0.25,34,128.84
4096,G6,524.0,0.25,34,128.84
4097,F#6,524.25,0.25,37,128.84
4098,B-1,524.25,0.75,41,128.84
4099,B-2,524.25,0.75,41,128.84
4100,B-6,524.5,0.25,36,128.84
4101,G6,524.5,0.25,36,128.84
4102,C6,524.75,0.25,44,128.84
4103,E3,524.812,0.188,42,128.84
4104,A3,524.875,0.125,43,128.84
4105,C#4,524.938,0.062,43,128.84
4106,G4,525.0,0.75,65,128.84
4107,E3,525.0,0.75,42,128.84
4108,A3,525.0,0.75,43,128.84
4109,C#4,525.0,0.75,43,128.84
4110,B-6,525.0,0.25,33,128.84
4111,G6,525.0,0.25,33,128.84
4112,F#6,525.25,0.25,36,128.84
4113,B-6,525.5,0.25,34,128.84
4114,G6,525.5,0.25,34,128.84
4115,C6,525.75,0.25,44,128.84
4116,A1,525.75,1.0,54,128.84
4117,B-6,526.0,0.25,34,128.84
4118,G6,526.0,0.25,34,128.84
4119,A2,526.125,0.375,53,128.84
4120,F#6,526.25,0.25,37,128.84
4121,C#3,526.5,0.375,52,128.84
4122,B-6,526.5,0.25,36,128.84
4123,G6,526.5,0.25,36,128.84
4124,C6,526.75,0.25,44,128.84
4125,E3,526.875,0.375,52,128.84
4126,B-6,527.0,0.25,33,128.84
4127,G6,527.0,0.25,33,128.84
4128,F#6,527.25,0.25,36,128.84
4129,G3,527.25,0.375,51,128.84
4130,B-6,527.5,0.25,32,128.84
4131,G6,527.5,0.25,32,128.84
4132,A3,527.625,0.375,50,128.84
4133,C6,527.75,0.25,42,128.84
4134,C#4,528.0,0.375,49,128.84
4135,B-6,528.0,0.25,32,128.84
4136,G6,528.0,0.25,32,128.84
4137,F#6,528.25,0.25,35,128.84
4138,E4,528.375,0.375,45,128.84
4139,B-6,528.5,0.25,31,128.84
4140,G6,528.5,0.25,31,128.84
4141,C6,528.75,0.25,41,128.84
4142,G4,528.75,0.375,45,128.84
4143,B-6,529.0,0.25,32,128.84
4144,G6,529.0,0.25,32,128.84
4145,C#5,529.125,0.375,44,128.84
4146,F#6,529.25,0.25,35,128.84
4147,E5,529.5,0.375,44,128.84
4148,B-6,529.5,0.25,30,128.84
4149,G6,529.5,0.25,30,128.84
4150,C6,529.75,0.25,37,128.84
4151,G5,529.875,0.375,44,128.84
4152,B-6,530.0,0.25,30,128.84
4153,F#6,530.0,0.25,30,128.84
4154,F6,530.25,0.25,33,128.84
4155,B-5,530.25,0.75,43,128.84
4156,B-6,530.5,0.25,31,128.84
4157,F#6,530.5,0.25,31,128.84
4158,C6,530.75,0.25,37,128.84
4159,B-6,531.0,0.25,30,128.84
4160,F#6,531.0,0.25,30,128.84
4161,E3,531.0,0.75,40,128.84
4162,B-3,531.0,0.75,40,128.84
4163,C4,531.0,0.75,40,128.84
4164,G4,531.0,0.75,40,128.84
4165,F6,531.25,0.25,32,128.84
4166,B-6,531.5,0.25,30,128.84
4167,F#6,531.5,0.25,30,128.84
4168,C6,531.75,0.25,37,128.84
4169,C2,531.75,1.0,40,128.84
4170,B-6,532.0,0.25,30,128.84
4171,F#6,532.0,0.25,30,128.84
4172,C3,532.125,0.375,40,128.84
4173,F6,532.25,0.25,33,128.84
4174,E3,532.5,0.375,40,128.84
4175,B-6,532.5,0.25,31,128.84
4176,F#6,532.5,0.25,31,128.84
4177,C6,532.75,0.25,37,128.84
4178,G3,532.875,0.375,40,128.84
4179,B-6,533.0,0.25,30,128.84
4180,F#6,533.0,0.25,30,128.84
4181,F6,533.25,0.25,32,128.84
4182,B-3,533.25,0.375,40,128.84
4183,B-6,533.5,0.25,30,128.84
4184,F#6,533.5,0.25,30,128.84
4185,C4,533.625,0.375,40,128.84
4186,C6,533.75,0.25,37,128.84
4187,E4,534.0,0.375,40,128.84
4188,B-6,534.0,0.25,30,128.84
4189,F#6,534.0,0.25,30,128.84
4190,F6,534.25,0.25,33,128.84
4191,G4,534.375,0.375,40,128.84
4192,B-6,534.5,0.25,30,128.84
4193,F#6,534.5,0.25,30,128.84
4194,C6,534.75,0.25,39,128.84
4195,B-4,534.75,0.375,40,128.84
4196,B-6,535.0,0.25,31,128.84
4197,F#6,535.0,0.25,31,128.84
4198,C5,535.125,0.375,40,128.84
4199,F6,535.25,0.25,35,128.84
4200,E5,535.5,0.375,40,128.84
4201,B-6,535.5,0.25,30,128.84
4202,F#6,535.5,0.25,30,128.84
4203,F6,535.75,0.25,45,128.84
4204,G5,535.875,0.375,40,128.84
4205,A6,536.0,0.25,47,128.84
4206,F#6,536.0,0.25,47,128.84
4207,D6,536.25,0.25,51,128.84
4208,B-5,536.25,0.562,40,128.84
4209,F#6,536.5,0.25,47,128.84
4210,E-6,536.5,0.25,47,128.84
4211,B5,536.75,0.25,51,128.84
4212,E-3,536.812,0.188,36,128.84
4213,G#3,536.875,0.125,36,128.84
4214,C4,536.938,0.062,36,128.84
4215,F#4,537.0,0.75,36,128.84
4216,E-3,537.0,0.75,36,128.84
4217,G#3,537.0,0.75,36,128.84
4218,C4,537.0,0.75,36,128.84
4219,E-6,537.0,0.25,47,128.84
4220,C6,537.0,0.25,47,128.84
4221,G#5,537.25,0.25,51,128.84
4222,C6,537.5,0.25,47,128.84
4223,A5,537.5,0.25,47,128.84
4224,F5,537.75,0.25,51,128.84
4225,G#1,537.75,1.0,36,128.84
4226,A5,538.0,0.25,47,128.84
4227,F#5,538.0,0.25,47,128.84
4228,G#2,538.125,0.375,36,128.84
4229,D5,538.25,0.25,51,128.84
4230,C3,538.5,0.375,36,128.84
4231,F#5,538.5,0.25,47,128.84
4232,E-5,538.5,0.25,47,128.84
4233,B4,538.75,0.25,51,128.84
4234,E-3,538.875,0.375,36,128.84
4235,E-5,539.0,0.25,47,128.84
4236,C5,539.0,0.25,47,128.84
4237,G#4,539.25,0.25,51,128.84
4238,F#3,539.25,0.375,39,128.84
4239,C5,539.5,0.25,47,128.84
4240,A4,539.5,0.25,47,128.84
4241,G#3,539.625,0.375,43,128.84
4242,F4,539.75,0.25,51,128.84
4243,C4,540.0,0.375,44,128.84
4244,B-4,540.0,0.25,47,128.84
4245,F#4,540.0,0.25,47,128.84
4246,D4,540.25,0.25,51,128.84
4247,E-4,540.375,0.375,42,128.84
4248,F#4,540.5,0.25,47,128.84
4249,E-4,540.5,0.25,47,128.84
4250,B3,540.75,0.25,51,128.84
4251,F#4,540.75,0.375,39,128.84
4252,C4,541.0,0.25,47,128.84
4253,G#3,541.0,0.25,47,128.84
4254,G#4,541.125,0.375,36,128.84
4255,G#3,541.25,0.25,51,128.84
4256,C5,541.5,0.375,36,128.84
4257,C4,541.5,0.25,47,128.84
4258,A3,541.5,0.25,47,128.84
4259,F3,541.75,0.25,51,128.84
4260,E-5,541.875,0.375,36,128.84
4261,A3,542.0,0.25,47,128.84
4262,F#3,542.0,0.25,47,128.84
4263,D3,542.25,0.25,51,128.84
4264,F#5,542.25,0.375,36,128.84
4265,F#3,542.5,0.25,47,128.84
4266,E-3,542.5,0.25,47,128.84
4267,G#5,542.625,0.375,36,128.84
4268,B2,542.75,0.25,51,128.84
4269,A5,543.0,0.25,33,128.84
4270,E-3,543.0,0.25,47,128.84
4271,C3,543.0,0.25,47,128.84
4272,G#2,543.25,0.25,51,128.84
4273,C6,543.25,0.25,41,128.84
4274,F#5,543.5,0.25,34,128.84
4275,C3,543.5,0.25,47,128.84
4276,A2,543.5,0.25,47,128.84
4277,F2,543.75,0.25,51,128.84
4278,A5,543.75,0.25,41,128.84
4279,E-5,544.0,0.25,33,128.84
4280,B-2,544.0,0.25,47,128.84
4281,F#2,544.0,0.25,47,128.84
4282,D2,544.25,0.25,51,128.84
4283,F#5,544.25,0.25,41,128.84
4284,C5,544.5,0.25,34,128.84
4285,F#2,544.5,0.25,46,128.84
4286,E-2,544.5,0.25,46,128.84
4287,E-5,544.75,0.25,41,128.84
4288,A4,545.0,0.25,34,128.84
4289,C5,545.25,0.25,41,128.84
4290,F#4,545.5,0.25,34,128.84
4291,A4,545.75,0.25,41,128.84
4292,E-4,546.0,0.25,34,128.84
4293,F#4,546.25,0.25,41,128.84
4294,C4,546.5,0.25,34,128.84
4295,E-4,546.75,0.25,42,128.84
4296,A3,547.0,0.25,35,128.84
4297,C4,547.25,0.25,42,128.84
4298,F#3,547.5,0.25,33,128.84
4299,A3,547.75,0.25,42,128.84
4300,E-3,548.0,0.25,33,128.84
4301,F#3,548.25,0.25,42,128.84
4302,C3,548.5,0.25,35,128.84
4303,E-3,548.75,0.25,43,128.84
4304,A2,549.0,0.25,36,128.84
4305,C3,549.25,0.25,44,128.84
4306,F#2,549.5,0.25,36,128.84
4307,A2,549.75,0.25,44,128.84
4308,E-2,550.0,0.25,35,128.84
4309,F#2,550.25,0.25,44,128.84
4310,C2,550.5,0.25,34,128.84
4311,C4,550.75,0.5,56,128.84
4312,E-2,550.75,0.25,44,128.84
4313,E-3,550.75,1.5,46,128.84
4314,F#3,550.75,1.5,46,128.84
4315,A1,551.0,0.25,35,128.84
4316,C4,551.25,0.25,51,128.84
4317,C2,551.25,0.25,44,128.84
4318,B-3,551.5,0.188,56,128.84
4319,F#1,551.5,0.25,34,128.84
4320,C4,551.75,0.188,51,128.84
4321,A1,551.75,0.25,44,128.84
4322,G#3,552.0,0.125,51,128.84
4323,G#1,552.0,0.25,30,128.84
4324,G1,552.25,0.25,30,128.84
4325,G#1,552.5,0.25,30,128.84
4326,E-4,552.75,0.25,49,128.84
4327,G#2,552.75,1.5,45,128.84
4328,E-4,553.0,0.5,53,128.84
4329,G#1,553.0,0.25,31,128.84
4330,F#3,553.0,0.75,44,128.84
4331,A3,553.0,0.75,44,128.84
4332,G1,553.25,0.25,31,128.84
4333,F4,553.5,0.25,49,128.84
4334,G#1,553.5,0.25,31,128.84
4335,E-4,553.75,0.25,54,128.84
4336,G1,553.75,0.25,30,128.84
4337,F#3,553.75,0.75,44,128.84
4338,A3,553.75,0.75,44,128.84
4339,C#4,554.0,0.25,46,128.84
4340,G#1,554.0,0.25,30,128.84
4341,C4,554.25,0.25,46,128.84
4342,G#2,554.25,0.75,45,128.84
4343,G#1,554.5,0.25,30,128.84
4344,F#3,554.5,0.188,48,128.84
4345,B-3,554.5,0.188,48,128.84
4346,C4,554.75,0.188,50,128.84
4347,G1,554.75,0.25,30,128.84
4348,G#3,555.0,0.125,50,128.84
4349,G#1,555.0,0.25,30,128.84
4350,G#2,555.0,0.75,45,128.84
4351,G1,555.25,0.25,30,128.84
4352,G#1,555.5,0.25,30,128.84
4353,C4,555.75,0.25,49,128.84
4354,G#2,555.75,1.5,45,128.84
4355,C4,556.0,0.5,53,128.84
4356,G#1,556.0,0.25,30,128.84
4357,E-3,556.0,0.75,44,128.84
4358,F#3,556.0,0.75,44,128.84
4359,G1,556.25,0.25,30,128.84
4360,B-3,556.5,0.25,49,128.84
4361,G#1,556.5,0.25,30,128.84
4362,E3,556.75,0.75,44,128.84
4363,G1,556.75,0.25,30,128.84
4364,G3,556.75,0.5,48,128.84
4365,B-3,556.75,0.5,48,128.84
4366,G#1,557.0,0.25,30,128.84
4367,G3,557.25,0.25,46,128.84
4368,G#2,557.25,0.75,45,128.84
4369,G#1,557.5,0.25,30,128.84
4370,F3,557.5,0.188,48,128.84
4371,G#3,557.5,0.188,48,128.84
4372,G3,557.75,0.188,49,128.84
4373,G1,557.75,0.25,30,128.84
4374,F3,558.0,0.125,49,128.84
4375,G#1,558.0,0.25,30,128.84
4376,G#2,558.0,0.75,45,128.84
4377,G1,558.25,0.25,30,128.84
4378,G#1,558.5,0.25,30,128.84
4379,C4,558.75,0.25,46,128.84
4380,G#2,558.75,1.5,45,128.84
4381,C4,559.0,0.5,51,128.84
4382,G#1,559.0,0.25,31,128.84
4383,E-3,559.0,0.75,43,128.84
4384,F#3,559.0,0.75,43,128.84
4385,G1,559.25,0.25,31,128.84
4386,B-3,559.5,0.25,46,128.84
4387,G#1,559.5,0.25,31,128.84
4388,E3,559.75,0.75,44,128.84
4389,G1,559.75,0.25,30,128.84
4390,G3,559.75,0.5,48,128.84
4391,B-3,559.75,0.5,48,128.84
4392,G#1,560.0,0.25,30,128.84
4393,G3,560.25,0.25,45,128.84
4394,G#2,560.25,0.75,46,128.84
4395,G#3,560.5,0.188,53,128.84
4396,G#1,560.5,0.25,30,128.84
4397,G3,560.75,0.188,45,128.84
4398,G1,560.75,0.25,30,128.84
4399,F3,561.0,0.188,45,128.84
4400,G#1,561.0,0.25,30,128.84
4401,G#2,561.0,0.75,46,128.84
4402,F4,561.25,0.5,62,128.84
4403,G1,561.25,0.25,30,128.84
4404,G#3,561.25,1.5,52,128.84
4405,B3,561.25,1.5,52,128.84
4406,G#1,561.5,0.25,30,128.84
4407,F4,561.75,0.25,55,128.84
4408,G#2,561.75,1.5,45,128.84
4409,E-4,562.0,0.188,62,128.84
4410,G#1,562.0,0.25,30,128.84
4411,F4,562.25,0.188,55,128.84
4412,G1,562.25,0.25,30,128.84
4413,G#1,562.5,0.25,30,128.84
4414,C#4,562.5,0.125,47,128.84
4415,F3,562.5,0.125,47,128.84
4416,G1,562.75,0.25,30,128.84
4417,G#1,563.0,0.25,30,128.84
4418,G#4,563.25,0.25,53,128.84
4419,G#2,563.25,0.75,45,128.84
4420,G#4,563.5,0.5,57,128.84
4421,G#1,563.5,0.25,30,128.84
4422,B3,563.5,1.5,47,128.84
4423,D4,563.5,1.5,47,128.84
4424,G1,563.75,0.25,30,128.84
4425,B-4,564.0,0.25,54,128.84
4426,G#1,564.0,0.25,30,128.84
4427,G#2,564.0,0.75,45,128.84
4428,G#4,564.25,0.25,62,128.84
4429,G1,564.25,0.25,30,128.84
4430,F#4,564.5,0.25,53,128.84
4431,G#1,564.5,0.25,30,128.84
4432,F4,564.75,0.25,54,128.84
4433,G#2,564.75,1.5,45,128.84
4434,G#1,565.0,0.25,31,128.84
4435,B3,565.0,0.188,56,128.84
4436,E-4,565.0,0.188,56,128.84
4437,F4,565.25,0.188,59,128.84
4438,G1,565.25,0.25,31,128.84
4439,G#1,565.5,0.25,31,128.84
4440,F3,565.5,0.125,54,128.84
4441,C#4,565.5,0.125,54,128.84
4442,G1,565.75,0.25,30,128.84
4443,G#1,566.0,0.25,30,128.84
4444,F4,566.25,0.25,59,128.84
4445,G#2,566.25,0.75,44,128.84
4446,F4,566.5,0.5,63,128.84
4447,G#1,566.5,0.25,30,128.84
4448,G#3,566.5,0.75,53,128.84
4449,B3,566.5,0.75,53,128.84
4450,G1,566.75,0.25,30,128.84
4451,E-4,567.0,0.25,59,128.84
4452,G#1,567.0,0.25,30,128.84
4453,G#2,567.0,0.75,44,128.84
4454,A3,567.25,0.75,52,128.84
4455,G1,567.25,0.25,30,128.84
4456,C4,567.25,0.5,57,128.84
4457,E-4,567.25,0.5,57,128.84
4458,G#1,567.5,0.25,30,128.84
4459,C4,567.75,0.25,56,128.84
4460,G#2,567.75,1.5,44,128.84
4461,G#1,568.0,0.25,30,128.84
4462,B-3,568.0,0.188,57,128.84
4463,C#4,568.0,0.188,57,128.84
4464,C4,568.25,0.188,59,128.84
4465,G1,568.25,0.25,30,128.84
4466,B-3,568.5,0.125,59,128.84
4467,G#1,568.5,0.25,33,128.84
4468,G1,568.75,0.25,33,128.84
4469,G#1,569.0,0.25,33,128.84
4470,F4,569.25,0.25,56,128.84
4471,G#2,569.25,0.5,50,128.84
4472,F4,569.5,0.5,62,128.84
4473,G2,569.5,0.25,34,128.84
4474,G#3,569.5,0.75,51,128.84
4475,B3,569.5,0.75,51,128.84
4476,G#2,569.75,0.25,34,128.84
4477,E-4,570.0,0.25,56,128.84
4478,E-3,570.0,0.25,34,128.84
4479,A3,570.25,0.75,52,128.84
4480,F3,570.25,0.25,33,128.84
4481,C4,570.25,0.5,57,128.84
4482,E-4,570.25,0.5,57,128.84
4483,C#3,570.5,0.25,33,128.84
4484,C4,570.75,0.25,55,128.84
4485,G#2,570.75,0.25,52,128.84
4486,C#4,571.0,0.188,63,128.84
4487,G2,571.0,0.25,33,128.84
4488,C4,571.25,0.188,55,128.84
4489,G#2,571.25,0.25,34,128.84
4490,B-3,571.5,0.125,55,128.84
4491,G#1,571.5,0.25,34,128.84
4492,G1,571.75,0.25,34,128.84
4493,D4,571.75,0.5,68,128.84
4494,F#4,571.75,0.5,68,128.84
4495,B4,571.75,0.5,68,128.84
4496,D5,571.75,0.5,68,128.84
4497,G#1,572.0,0.25,35,128.84
4498,G#2,572.25,0.25,53,128.84
4499,D4,572.25,0.25,64,128.84
4500,D5,572.25,0.25,64,128.84
4501,F#4,572.5,0.75,65,128.84
4502,G2,572.5,0.25,35,128.84
4503,C#4,572.5,0.188,72,128.84
4504,C#5,572.5,0.188,72,128.84
4505,G#2,572.75,0.25,36,128.84
4506,D4,572.75,0.188,64,128.84
4507,D5,572.75,0.188,64,128.84
4508,E-3,573.0,0.25,36,128.84
4509,B3,573.0,0.188,64,128.84
4510,B4,573.0,0.188,64,128.84
4511,F3,573.25,0.25,36,128.84
4512,C#3,573.5,0.25,36,128.84
4513,G#2,573.75,0.25,55,128.84
4514,F#4,573.75,0.25,61,128.84
4515,F#5,573.75,0.25,61,128.84
4516,B4,574.0,0.75,51,128.84
4517,G2,574.0,0.25,36,128.84
4518,F#4,574.0,0.5,66,128.84
4519,F#5,574.0,0.5,66,128.84
4520,G#2,574.25,0.25,36,128.84
4521,G#1,574.5,0.25,36,128.84
4522,G#4,574.5,0.25,63,128.84
4523,G#5,574.5,0.25,63,128.84
4524,B4,574.75,0.75,51,128.84
4525,G1,574.75,0.25,36,128.84
4526,F#4,574.75,0.25,72,128.84
4527,F#5,574.75,0.25,72,128.84
4528,G#1,575.0,0.25,36,128.84
4529,E4,575.0,0.25,61,128.84
4530,E5,575.0,0.25,61,128.84
4531,G#2,575.25,0.25,55,128.84
4532,D4,575.25,0.25,62,128.84
4533,D5,575.25,0.25,62,128.84
4534,G2,575.5,0.25,36,128.84
4535,C#4,575.5,0.188,66,128.84
4536,C#5,575.5,0.188,66,128.84
4537,G#2,575.75,0.25,36,128.84
4538,D4,575.75,0.188,64,128.84
4539,D5,575.75,0.188,64,128.84
4540,C#3,576.0,0.25,36,128.84
4541,B3,576.0,0.188,68,128.84
4542,B4,576.0,0.188,68,128.84
4543,C3,576.25,0.25,36,128.84
4544,B-2,576.5,0.25,36,128.84
4545,G#2,576.75,0.25,53,128.84
4546,D4,576.75,0.25,68,128.84
4547,D5,576.75,0.25,68,128.84
4548,G2,577.0,0.25,36,128.84
4549,F#4,577.0,0.75,66,128.84
4550,B4,577.0,0.75,66,128.84
4551,D4,577.0,0.5,73,128.84
4552,D5,577.0,0.5,73,128.84
4553,G#2,577.25,0.25,36,128.84
4554,G#1,577.5,0.25,36,128.84
4555,C#4,577.5,0.25,68,128.84
4556,C#5,577.5,0.25,68,128.84
4557,G1,577.75,0.25,36,128.84
4558,C4,577.75,0.25,68,128.84
4559,E-4,577.75,0.25,68,128.84
4560,G#4,577.75,0.25,68,128.84
4561,F#4,577.75,0.25,68,128.84
4562,C5,577.75,0.25,68,128.84
4563,G#1,578.0,0.25,36,128.84
4564,G#2,578.25,0.25,53,128.84
4565,G2,578.5,0.25,36,128.84
4566,F#3,578.5,0.25,65,128.84
4567,B-3,578.5,0.25,65,128.84
4568,C4,578.5,0.25,65,128.84
4569,G#2,578.75,0.25,36,128.84
4570,G#1,579.0,0.25,54,128.84
4571,G#2,579.25,0.25,51,128.84
4572,G#3,579.25,0.25,68,128.84
4573,C4,579.25,0.25,68,128.84
4574,F#4,579.25,0.25,68,128.84
4575,G#4,579.25,0.25,68,128.84
4576,G#2,579.5,0.25,51,128.84
4577,D3,579.75,0.25,51,128.84
4578,F#3,579.75,0.25,51,128.84
4579,B3,579.75,0.25,51,128.84
4580,G#2,580.0,0.25,52,128.84
4581,G#4,580.0,0.25,65,128.84
4582,C5,580.0,0.25,65,128.84
4583,G#5,580.0,0.25,65,128.84
4584,F#5,580.0,0.25,65,128.84
4585,G#2,580.25,0.25,52,128.84
4586,G#1,580.5,0.25,57,128.84
4587,G#2,580.75,0.25,53,128.84
4588,G#6,580.75,0.25,65,128.84
4589,F#6,580.75,0.25,65,128.84
4590,C6,580.75,0.25,65,128.84
4591,G#5,580.75,0.25,65,128.84
4592,D3,581.0,0.25,53,128.84
4593,D4,581.25,0.25,59,128.84
4594,B3,581.25,0.25,59,128.84
4595,F#3,581.25,0.25,59,128.84
4596,D3,581.5,0.25,51,128.84
4597,F#7,581.5,0.25,75,128.84
4598,G#7,581.5,0.25,75,128.84
4599,E-7,581.5,0.25,75,128.84
4600,G#6,581.5,0.25,75,128.84
4601,G#2,581.75,0.25,51,128.84
4602,G#1,582.0,0.25,54,128.84
4603,F#4,582.25,0.75,65,128.84
4604,G#2,582.25,0.25,51,128.84
4605,B-3,582.25,0.188,72,128.84
4606,B-4,582.25,0.188,72,128.84
4607,G#2,582.5,0.25,51,128.84
4608,C4,582.5,0.188,61,128.84
4609,C5,582.5,0.188,61,128.84
4610,G#3,582.75,0.188,62,128.84
4611,G#4,582.75,0.188,62,128.84
4612,D3,582.75,0.25,51,128.84
4613,B3,582.75,0.25,51,128.84
4614,F#3,582.75,0.25,51,128.84
4615,G#2,583.0,0.25,52,128.84
4616,G#2,583.25,0.25,52,128.84
4617,G#1,583.479,0.25,54,128.84
4618,G#2,583.729,0.25,51,128.84
4619,D5,583.75,0.5,84,128.84
4620,F#5,583.75,0.5,84,128.84
4621,B5,583.75,0.5,84,128.84
4622,D6,583.75,0.5,84,128.84
4623,G#2,584.0,0.25,51,128.84
4624,D5,584.25,0.25,78,128.84
4625,D6,584.25,0.25,78,128.84
4626,D3,584.25,0.25,55,128.84
4627,F#3,584.25,0.25,55,128.84
4628,B3,584.25,0.25,55,128.84
4629,F#5,584.5,0.75,80,128.84
4630,G#2,584.5,0.25,52,128.84
4631,C#5,584.5,0.188,87,128.84
4632,C#6,584.5,0.188,87,128.84
4633,G#2,584.75,0.25,52,128.84
4634,D5,584.75,0.188,76,128.84
4635,D6,584.75,0.188,76,128.84
4636,G#1,585.0,0.5,52,128.84
4637,G#2,585.0,0.5,52,128.84
4638,B4,585.0,0.188,76,128.84
4639,B5,585.0,0.188,76,128.84
4640,C3,585.5,0.25,66,128.84
4641,C2,585.5,0.25,66,128.84
4642,F#5,585.75,0.25,74,128.84
4643,F#6,585.75,0.25,74,128.84
4644,B-1,585.75,0.188,72,128.84
4645,B-2,585.75,0.188,72,128.84
4646,B5,586.0,0.75,62,128.84
4647,F#5,586.0,0.5,78,128.84
4648,F#6,586.0,0.5,78,128.84
4649,C2,586.0,0.188,68,128.84
4650,C3,586.0,0.188,68,128.84
4651,G#1,586.25,0.188,68,128.84
4652,G#2,586.25,0.188,68,128.84
4653,G#5,586.5,0.25,76,128.84
4654,G#6,586.5,0.25,76,128.84
4655,B5,586.75,0.75,62,128.84
4656,F#5,586.75,0.25,87,128.84
4657,F#6,586.75,0.25,87,128.84
4658,E5,587.0,0.25,74,128.84
4659,E6,587.0,0.25,74,128.84
4660,E-2,587.0,0.25,61,128.84
4661,E-3,587.0,0.25,61,128.84
4662,D5,587.25,0.25,74,128.84
4663,D6,587.25,0.25,74,128.84
4664,E-2,587.25,0.5,66,128.84
4665,E-3,587.25,0.5,66,128.84
4666,F#5,587.5,0.75,80,128.84
4667,C#5,587.5,0.188,78,128.84
4668,C#6,587.5,0.188,78,128.84
4669,D5,587.75,0.188,78,128.84
4670,D6,587.75,0.188,78,128.84
4671,F2,587.75,0.25,63,128.84
4672,F3,587.75,0.25,63,128.84
4673,B4,588.0,0.188,82,128.84
4674,B5,588.0,0.188,82,128.84
4675,E-2,588.0,0.188,72,128.84
4676,E-3,588.0,0.188,72,128.84
4677,C#2,588.25,0.188,61,128.84
4678,C#3,588.25,0.188,61,128.84
4679,C2,588.5,0.188,62,128.84
4680,C3,588.5,0.188,62,128.84
4681,D5,588.75,0.25,82,128.84
4682,D6,588.75,0.25,82,128.84
4683,B-1,588.75,0.188,66,128.84
4684,B-2,588.75,0.188,66,128.84
4685,F#5,589.0,0.75,80,128.84
4686,B5,589.0,0.75,80,128.84
4687,D5,589.0,0.5,88,128.84
4688,D6,589.0,0.5,88,128.84
4689,C2,589.0,0.188,64,128.84
4690,C3,589.0,0.188,64,128.84
4691,G#1,589.25,0.188,68,128.84
4692,G#2,589.25,0.188,68,128.84
4693,C#5,589.5,0.25,82,128.84
4694,C#6,589.5,0.25,82,128.84
4695,C6,589.75,0.25,77,128.84
4696,G#5,589.75,0.25,77,128.84
4697,F#5,589.75,0.25,77,128.84
4698,C5,589.75,0.25,77,128.84
4699,E-5,589.75,0.25,77,128.84
4700,F#3,590.25,0.75,65,128.84
4701,C4,590.25,0.25,78,128.84
4702,C5,590.25,0.25,78,128.84
4703,A2,590.25,0.188,66,128.84
4704,A3,590.25,0.188,66,128.84
4705,E-4,590.5,0.75,73,128.84
4706,F#4,590.5,0.75,73,128.84
4707,B-3,590.5,0.188,78,128.84
4708,B-4,590.5,0.188,78,128.84
4709,B2,590.5,0.188,64,128.84
4710,B3,590.5,0.188,64,128.84
4711,C4,590.75,0.188,78,128.84
4712,C5,590.75,0.188,78,128.84
4713,G#2,590.75,0.188,68,128.84
4714,G#3,590.75,0.188,68,128.84
4715,G#1,591.0,0.25,65,128.84
4716,G#3,591.0,0.188,78,128.84
4717,G#4,591.0,0.188,78,128.84
4718,G#2,591.25,0.25,62,128.84
4719,G#5,591.25,0.25,70,128.84
4720,F#5,591.25,0.25,70,128.84
4721,E-5,591.25,0.25,70,128.84
4722,G#4,591.25,0.25,70,128.84
4723,D3,591.5,0.75,63,128.84
4724,F#4,591.75,0.5,66,128.84
4725,F#3,591.75,0.5,66,128.84
4726,B3,591.75,0.5,66,128.84
4727,G#6,592.0,0.25,70,128.84
4728,F#6,592.0,0.25,70,128.84
4729,C6,592.0,0.25,70,128.84
4730,G#5,592.0,0.25,70,128.84
4731,D4,592.25,0.25,62,128.84
4732,D3,592.25,0.25,62,128.84
4733,F#3,592.5,0.75,70,128.84
4734,C#3,592.5,0.25,74,128.84
4735,C#4,592.5,0.25,74,128.84
4736,F#7,592.75,0.25,70,128.84
4737,G#7,592.75,0.25,70,128.84
4738,C7,592.75,0.25,70,128.84
4739,G#6,592.75,0.25,70,128.84
4740,D3,592.75,0.25,67,128.84
4741,D4,592.75,0.25,67,128.84
4742,B2,593.0,0.25,67,128.84
4743,B3,593.0,0.25,67,128.84
4744,B3,593.25,0.25,70,128.84
4745,F#3,593.25,0.25,70,128.84
4746,D3,593.25,0.25,70,128.84
4747,G#2,593.5,0.25,62,128.84
4748,F#6,593.5,0.25,70,128.84
4749,G#6,593.5,0.25,70,128.84
4750,E-6,593.5,0.25,70,128.84
4751,G#5,593.5,0.25,70,128.84
4752,G#2,593.75,0.25,62,128.84
4753,G#1,594.0,0.25,65,128.84
4754,F#5,594.25,0.75,71,128.84
4755,G#2,594.25,0.25,62,128.84
4756,B-4,594.25,0.188,76,128.84
4757,B-5,594.25,0.188,76,128.84
4758,D3,594.5,0.75,62,128.84
4759,C5,594.5,0.188,69,128.84
4760,C6,594.5,0.188,69,128.84
4761,G#4,594.75,0.188,69,128.84
4762,G#5,594.75,0.188,69,128.84
4763,F#4,594.75,0.5,66,128.84
4764,F#3,594.75,0.5,66,128.84
4765,B3,594.75,0.5,66,128.84
4766,A3,595.0,0.188,75,128.84
4767,B3,595.25,0.188,67,128.84
4768,D4,595.25,0.25,62,128.84
4769,D3,595.25,0.25,62,128.84
4770,G#3,595.5,0.188,70,128.84
4771,F#3,595.5,0.75,70,128.84
4772,C#3,595.5,0.188,74,128.84
4773,C#4,595.5,0.188,74,128.84
4774,D3,595.75,0.188,67,128.84
4775,D4,595.75,0.188,67,128.84
4776,C4,596.0,0.188,47,128.84
4777,E-4,596.0,0.188,47,128.84
4778,F#4,596.0,0.188,47,128.84
4779,C5,596.0,0.188,47,128.84
4780,B2,596.0,0.188,67,128.84
4781,B3,596.0,0.188,67,128.84
4782,B3,596.25,0.25,70,128.84
4783,F#3,596.25,0.25,70,128.84
4784,D3,596.25,0.25,70,128.84
4785,G#2,596.5,0.25,62,128.84
4786,C4,596.5,0.188,47,128.84
4787,E-4,596.5,0.188,47,128.84
4788,F#4,596.5,0.188,47,128.84
4789,C5,596.5,0.188,47,128.84
4790,G#2,596.75,0.25,62,128.84
4791,G#1,597.0,0.25,71,128.84
4792,G#2,597.0,0.25,62,128.84
4793,C4,597.0,0.188,54,128.84
4794,E-4,597.0,0.188,54,128.84
4795,F#4,597.0,0.188,54,128.84
4796,C5,597.0,0.188,54,128.84
4797,E-2,597.25,0.25,69,128.84
4798,E-3,597.25,0.25,69,128.84
4799,E-5,597.5,0.188,57,128.84
4800,F#4,597.5,0.188,57,128.84
4801,E-4,597.5,0.188,57,128.84
4802,F2,597.5,0.25,69,128.84
4803,F3,597.5,0.25,69,128.84
4804,F#2,597.75,0.5,76,128.84
4805,F#3,597.75,0.5,76,128.84
4806,C4,598.0,0.188,50,128.84
4807,E-4,598.0,0.188,50,128.84
4808,F#4,598.0,0.188,50,128.84
4809,C5,598.0,0.188,50,128.84
4810,C3,598.25,0.25,71,128.84
4811,C4,598.25,0.25,71,128.84
4812,C4,598.5,0.188,43,128.84
4813,E-4,598.5,0.188,43,128.84
4814,F#4,598.5,0.188,43,128.84
4815,C5,598.5,0.188,43,128.84
4816,E-3,598.5,0.5,69,128.84
4817,F#3,598.5,0.5,69,128.84
4818,B-2,598.5,0.188,72,128.84
4819,B-3,598.5,0.188,72,128.84
4820,C3,598.75,0.188,66,128.84
4821,C4,598.75,0.188,66,128.84
4822,B-3,599.0,0.188,47,128.84
4823,C#4,599.0,0.188,47,128.84
4824,F4,599.0,0.188,47,128.84
4825,B-4,599.0,0.188,47,128.84
4826,G#2,599.0,0.188,66,128.84
4827,G#3,599.0,0.188,66,128.84
4828,E-3,599.25,0.5,79,128.84
4829,E-4,599.25,0.5,79,128.84
4830,C#4,599.5,0.188,47,128.84
4831,F4,599.5,0.188,47,128.84
4832,G#4,599.5,0.188,47,128.84
4833,C#5,599.5,0.188,47,128.84
4834,F3,599.75,0.25,73,128.84
4835,F4,599.75,0.25,73,128.84
4836,C#4,600.0,0.188,47,128.84
4837,F4,600.0,0.188,47,128.84
4838,G#4,600.0,0.188,47,128.84
4839,C#5,600.0,0.188,47,128.84
4840,E-3,600.0,0.188,80,128.84
4841,E-4,600.0,0.188,80,128.84
4842,C#3,600.25,0.188,74,128.84
4843,C#4,600.25,0.188,74,128.84
4844,G4,600.5,0.188,51,128.84
4845,B-4,600.5,0.188,51,128.84
4846,E4,600.5,0.188,51,128.84
4847,B-3,600.5,0.188,51,128.84
4848,C3,600.5,0.188,74,128.84
4849,C4,600.5,0.188,74,128.84
4850,E-3,600.75,0.188,80,128.84
4851,F#3,600.75,0.188,80,128.84
4852,B-2,600.75,0.188,80,128.84
4853,B-3,600.75,0.188,80,128.84
4854,C#4,601.0,0.188,58,128.84
4855,E4,601.0,0.188,58,128.84
4856,G4,601.0,0.188,58,128.84
4857,C#5,601.0,0.188,58,128.84
4858,C3,601.0,0.188,72,128.84
4859,C4,601.0,0.188,72,128.84
4860,G#2,601.25,0.188,72,128.84
4861,G#3,601.25,0.188,72,128.84
4862,B-3,601.5,0.188,71,128.84
4863,B-3,601.5,0.188,50,128.84
4864,E4,601.5,0.188,50,128.84
4865,G4,601.5,0.188,50,128.84
4866,B-4,601.5,0.188,50,128.84
4867,C4,601.75,0.188,65,128.84
4868,G#3,602.0,0.188,65,128.84
4869,C4,602.0,0.188,48,128.84
4870,E-4,602.0,0.188,48,128.84
4871,F#4,602.0,0.188,48,128.84
4872,C5,602.0,0.188,48,128.84
4873,F#3,602.25,0.75,75,128.84
4874,A1,602.25,0.188,66,128.84
4875,A2,602.25,0.188,66,128.84
4876,C4,602.5,0.188,46,128.84
4877,E-4,602.5,0.188,46,128.84
4878,F#4,602.5,0.188,46,128.84
4879,C5,602.5,0.188,46,128.84
4880,B1,602.5,0.188,61,128.84
4881,B2,602.5,0.188,61,128.84
4882,G#1,602.75,0.188,62,128.84
4883,G#2,602.75,0.188,62,128.84
4884,C4,603.0,0.188,52,128.84
4885,E-4,603.0,0.188,52,128.84
4886,F#4,603.0,0.188,52,128.84
4887,C5,603.0,0.188,52,128.84
4888,C#2,603.0,3.0,54,128.84
4889,G#2,603.0,3.0,54,128.84
4890,C#4,603.5,0.188,53,128.84
4891,E-5,603.5,0.188,53,128.84
4892,F#4,603.5,0.188,53,128.84
4893,E-4,603.5,0.188,53,128.84
4894,B-3,604.0,0.188,53,128.84
4895,C4,604.0,0.188,46,128.84
4896,E-4,604.0,0.188,46,128.84
4897,F#4,604.0,0.188,46,128.84
4898,C5,604.0,0.188,46,128.84
4899,C#4,604.5,0.188,53,128.84
4900,C4,604.5,0.188,44,128.84
4901,E-4,604.5,0.188,44,128.84
4902,F#4,604.5,0.188,44,128.84
4903,C5,604.5,0.188,44,128.84
4904,C#4,605.0,0.188,55,128.84
4905,B-3,605.0,0.188,48,128.84
4906,C#4,605.0,0.188,48,128.84
4907,F4,605.0,0.188,48,128.84
4908,B-4,605.0,0.188,48,128.84
4909,C#4,605.5,0.188,47,128.84
4910,C#4,605.5,0.188,48,128.84
4911,F4,605.5,0.188,48,128.84
4912,G#4,605.5,0.188,48,128.84
4913,C#5,605.5,0.188,48,128.84
4914,C#4,606.0,0.188,46,128.84
4915,F4,606.0,0.188,46,128.84
4916,G#4,606.0,0.188,46,128.84
4917,C#5,606.0,0.188,46,128.84
4918,C#2,606.0,3.0,54,128.84
4919,G#2,606.0,3.0,54,128.84
4920,G#3,606.5,0.188,53,128.84
4921,E4,606.5,0.188,48,128.84
4922,G4,606.5,0.188,48,128.84
4923,B-4,606.5,0.188,48,128.84
4924,B-3,606.5,0.188,48,128.84
4925,C4,607.0,0.188,53,128.84
4926,C#4,607.0,0.188,56,128.84
4927,F4,607.0,0.188,56,128.84
4928,C#5,607.0,0.188,56,128.84
4929,A3,607.5,0.188,53,128.84
4930,B-3,607.5,0.188,49,128.84
4931,F#4,607.5,0.188,49,128.84
4932,B-4,607.5,0.188,49,128.84
4933,C4,608.0,0.188,62,128.84
4934,F4,608.0,0.188,54,128.84
4935,G#4,608.0,0.188,54,128.84
4936,B4,608.0,0.188,54,128.84
4937,F5,608.0,0.188,54,128.84
4938,C4,608.5,0.188,52,128.84
4939,F5,608.5,0.188,53,128.84
4940,F4,608.5,0.188,53,128.84
4941,G#4,608.5,0.188,53,128.84
4942,B4,608.5,0.188,53,128.84
4943,F4,609.0,0.188,58,128.84
4944,G#4,609.0,0.188,58,128.84
4945,B4,609.0,0.188,58,128.84
4946,F5,609.0,0.188,58,128.84
4947,C#2,609.0,3.0,58,128.84
4948,G#2,609.0,3.0,58,128.84
4949,C#4,609.5,0.188,59,128.84
4950,G#5,609.5,0.188,66,128.84
4951,B4,609.5,0.188,66,128.84
4952,G#4,609.5,0.188,66,128.84
4953,B-3,610.0,0.188,57,128.84
4954,F4,610.0,0.188,56,128.84
4955,G#4,610.0,0.188,56,128.84
4956,B4,610.0,0.188,56,128.84
4957,F5,610.0,0.188,56,128.84
4958,C#4,610.5,0.188,59,128.84
4959,F4,610.5,0.188,50,128.84
4960,G#4,610.5,0.188,50,128.84
4961,B4,610.5,0.188,50,128.84
4962,F5,610.5,0.188,50,128.84
4963,C#4,611.0,0.188,62,128.84
4964,E-4,611.0,0.188,54,128.84
4965,F#4,611.0,0.188,54,128.84
4966,B-4,611.0,0.188,54,128.84
4967,E-5,611.0,0.188,54,128.84
4968,C#4,611.5,0.188,53,128.84
4969,F#4,611.5,0.188,52,128.84
4970,B-4,611.5,0.188,52,128.84
4971,C#5,611.5,0.188,52,128.84
4972,F#5,611.5,0.188,52,128.84
4973,F#4,612.0,0.188,52,128.84
4974,B-4,612.0,0.188,52,128.84
4975,C#5,612.0,0.188,52,128.84
4976,F#5,612.0,0.188,52,128.84
4977,C#2,612.0,3.0,58,128.84
4978,G#2,612.0,3.0,58,128.84
4979,G#3,612.5,0.188,59,128.84
4980,F#4,612.5,0.188,54,128.84
4981,B-4,612.5,0.188,54,128.84
4982,E-5,612.5,0.188,54,128.84
4983,E-4,612.5,0.188,54,128.84
4984,C4,613.0,0.188,57,128.84
4985,F#4,613.0,0.188,68,128.84
4986,B-4,613.0,0.188,68,128.84
4987,F#5,613.0,0.188,68,128.84
4988,A3,613.5,0.188,59,128.84
4989,F#4,613.5,0.188,54,128.84
4990,E-4,613.5,0.188,54,128.84
4991,B-4,613.5,0.188,54,128.84
4992,E-5,613.5,0.188,54,128.84
4993,C4,614.0,0.188,61,128.84
4994,G4,614.0,0.188,60,128.84
4995,B-4,614.0,0.188,60,128.84
4996,C#5,614.0,0.188,60,128.84
4997,G5,614.0,0.188,60,128.84
4998,C4,614.5,0.188,56,128.84
4999,G5,614.5,0.188,59,128.84
5000,G4,614.5,0.188,59,128.84
5001,B-4,614.5,0.188,59,128.84
5002,C#5,614.5,0.188,59,128.84
5003,G4,615.0,0.188,66,128.84
5004,B-4,615.0,0.188,66,128.84
5005,C#5,615.0,0.188,66,128.84
5006,G5,615.0,0.188,66,128.84
5007,G#3,615.0,3.0,66,128.84
5008,C#3,615.0,3.0,66,128.84
5009,B3,615.0,3.0,66,128.84
5010,F#4,615.5,0.188,66,128.84
5011,B-5,615.5,0.188,72,128.84
5012,C#5,615.5,0.188,72,128.84
5013,B-4,615.5,0.188,72,128.84
5014,E-4,616.0,0.188,66,128.84
5015,G4,616.0,0.188,68,128.84
5016,B-4,616.0,0.188,68,128.84
5017,C#5,616.0,0.188,68,128.84
5018,G5,616.0,0.188,68,128.84
5019,F#4,616.5,0.188,67,128.84
5020,G4,616.5,0.188,58,128.84
5021,B-4,616.5,0.188,58,128.84
5022,C#5,616.5,0.188,58,128.84
5023,G5,616.5,0.188,58,128.84
5024,F#4,617.0,0.188,70,128.84
5025,F4,617.0,0.188,65,128.84
5026,B-4,617.0,0.188,65,128.84
5027,C#5,617.0,0.188,65,128.84
5028,F5,617.0,0.188,65,128.84
5029,F#4,617.5,0.188,62,128.84
5030,G#4,617.5,0.188,62,128.84
5031,B-4,617.5,0.188,62,128.84
5032,C#5,617.5,0.188,62,128.84
5033,G#5,617.5,0.188,62,128.84
5034,G#4,618.0,0.188,62,128.84
5035,B-4,618.0,0.188,62,128.84
5036,C#5,618.0,0.188,62,128.84
5037,G#5,618.0,0.188,62,128.84
5038,C#3,618.0,3.0,66,128.84
5039,F#3,618.0,3.0,66,128.84
5040,B-3,618.0,3.0,66,128.84
5041,C#4,618.5,0.188,66,128.84
5042,B-4,618.5,0.188,65,128.84
5043,C#5,618.5,0.188,65,128.84
5044,F5,618.5,0.188,65,128.84
5045,F#4,618.5,0.188,65,128.84
5046,F4,619.0,0.188,65,128.84
5047,B-4,619.0,0.188,71,128.84
5048,G#4,619.0,0.188,71,128.84
5049,C#5,619.0,0.188,71,128.84
5050,G#5,619.0,0.188,71,128.84
5051,D4,619.5,0.188,66,128.84
5052,B-4,619.5,0.188,72,128.84
5053,F4,619.5,0.188,72,128.84
5054,C#5,619.5,0.188,72,128.84
5055,F5,619.5,0.188,72,128.84
5056,F4,620.0,0.188,74,128.84
5057,E-5,620.0,0.188,64,128.84
5058,G5,620.0,0.188,64,128.84
5059,B-5,620.0,0.188,64,128.84
5060,E-6,620.0,0.188,64,128.84
5061,F4,620.5,0.188,64,128.84
5062,E-5,620.5,0.188,64,128.84
5063,G5,620.5,0.188,64,128.84
5064,B-5,620.5,0.188,64,128.84
5065,E-6,620.5,0.188,64,128.84
5066,E-5,621.0,0.188,73,128.84
5067,G5,621.0,0.188,73,128.84
5068,B-5,621.0,0.188,73,128.84
5069,E-6,621.0,0.188,73,128.84
5070,E3,621.0,3.0,72,128.84
5071,C#3,621.0,3.0,72,128.84
5072,B-3,621.0,3.0,72,128.84
5073,G#4,621.5,0.188,73,128.84
5074,C#6,621.5,0.188,68,128.84
5075,F#6,621.5,0.188,68,128.84
5076,B-5,621.5,0.188,68,128.84
5077,F#5,621.5,0.188,68,128.84
5078,F4,622.0,0.188,73,128.84
5079,E-5,622.0,0.188,69,128.84
5080,G5,622.0,0.188,69,128.84
5081,B-5,622.0,0.188,69,128.84
5082,E-6,622.0,0.188,69,128.84
5083,G#4,622.5,0.188,74,128.84
5084,E-5,622.5,0.188,58,128.84
5085,G5,622.5,0.188,58,128.84
5086,B-5,622.5,0.188,58,128.84
5087,E-6,622.5,0.188,58,128.84
5088,G#4,623.0,0.188,77,128.84
5089,C#5,623.0,0.188,64,128.84
5090,F#5,623.0,0.188,64,128.84
5091,B-5,623.0,0.188,64,128.84
5092,C#6,623.0,0.188,64,128.84
5093,G#4,623.5,0.188,66,128.84
5094,E5,623.5,0.188,64,128.84
5095,B-5,623.5,0.188,64,128.84
5096,C#6,623.5,0.188,64,128.84
5097,E6,623.5,0.188,64,128.84
5098,E5,624.0,0.188,64,128.84
5099,B-5,624.0,0.188,64,128.84
5100,C#6,624.0,0.188,64,128.84
5101,E6,624.0,0.188,64,128.84
5102,C#3,624.0,3.0,75,128.84
5103,F3,624.0,3.0,75,128.84
5104,B-3,624.0,3.0,75,128.84
5105,E4,624.5,0.188,79,128.84
5106,B-5,624.5,0.188,70,128.84
5107,C#6,624.5,0.188,70,128.84
5108,F#5,624.5,0.188,70,128.84
5109,C#5,624.5,0.188,70,128.84
5110,G4,625.0,0.188,73,128.84
5111,E5,625.0,0.188,72,128.84
5112,B-5,625.0,0.188,72,128.84
5113,C#6,625.0,0.188,72,128.84
5114,E6,625.0,0.188,72,128.84
5115,E4,625.5,0.188,81,128.84
5116,C#5,625.5,0.188,69,128.84
5117,F#5,625.5,0.188,69,128.84
5118,B-5,625.5,0.188,69,128.84
5119,C#6,625.5,0.188,69,128.84
5120,G4,626.0,0.188,81,128.84
5121,E-5,626.0,0.188,64,128.84
5122,G5,626.0,0.188,64,128.84
5123,B-5,626.0,0.188,64,128.84
5124,E-6,626.0,0.188,64,128.84
5125,G#4,626.5,0.188,75,128.84
5126,E-5,626.5,0.188,64,128.84
5127,G5,626.5,0.188,64,128.84
5128,B-5,626.5,0.188,64,128.84
5129,E-6,626.5,0.188,64,128.84
5130,E-5,627.0,0.188,73,128.84
5131,G5,627.0,0.188,73,128.84
5132,B-5,627.0,0.188,73,128.84
5133,E-6,627.0,0.188,73,128.84
5134,C#3,627.0,3.0,74,128.84
5135,G3,627.0,3.0,74,128.84
5136,B-3,627.0,3.0,74,128.84
5137,E-4,627.0,3.0,74,128.84
5138,C#6,627.5,0.188,68,128.84
5139,F#6,627.5,0.188,68,128.84
5140,B-5,627.5,0.188,68,128.84
5141,F#5,627.5,0.188,68,128.84
5142,G4,627.5,0.188,63,128.84
5143,B-4,627.5,0.188,63,128.84
5144,E5,627.5,0.188,63,128.84
5145,E-5,628.0,0.188,69,128.84
5146,G5,628.0,0.188,69,128.84
5147,B-5,628.0,0.188,69,128.84
5148,E-6,628.0,0.188,69,128.84
5149,G4,628.0,0.188,62,128.84
5150,B-4,628.0,0.188,62,128.84
5151,C#5,628.0,0.188,62,128.84
5152,E-5,628.5,0.188,58,128.84
5153,G5,628.5,0.188,58,128.84
5154,B-5,628.5,0.188,58,128.84
5155,E-6,628.5,0.188,58,128.84
5156,G4,628.5,0.188,63,128.84
5157,B-4,628.5,0.188,63,128.84
5158,E5,628.5,0.188,63,128.84
5159,C#5,629.0,0.188,64,128.84
5160,F#5,629.0,0.188,64,128.84
5161,B-5,629.0,0.188,64,128.84
5162,C#6,629.0,0.188,64,128.84
5163,G4,629.0,0.188,64,128.84
5164,B-4,629.0,0.188,64,128.84
5165,E5,629.0,0.188,64,128.84
5166,E5,629.5,0.188,64,128.84
5167,B-5,629.5,0.188,64,128.84
5168,C#6,629.5,0.188,64,128.84
5169,E6,629.5,0.188,64,128.84
5170,G4,629.5,0.188,61,128.84
5171,B-4,629.5,0.188,61,128.84
5172,E5,629.5,0.188,61,128.84
5173,E5,630.0,0.188,64,128.84
5174,B-5,630.0,0.188,64,128.84
5175,C#6,630.0,0.188,64,128.84
5176,E6,630.0,0.188,64,128.84
5177,C#3,630.0,3.0,74,128.84
5178,F#3,630.0,3.0,74,128.84
5179,B-3,630.0,3.0,74,128.84
5180,E4,630.0,3.0,74,128.84
5181,B-5,630.5,0.188,70,128.84
5182,C#6,630.5,0.188,70,128.84
5183,F#5,630.5,0.188,70,128.84
5184,C#5,630.5,0.188,70,128.84
5185,F#4,630.5,0.188,63,128.84
5186,B-4,630.5,0.188,63,128.84
5187,C5,630.5,0.188,63,128.84
5188,E5,631.0,0.188,72,128.84
5189,B-5,631.0,0.188,72,128.84
5190,C#6,631.0,0.188,72,128.84
5191,E6,631.0,0.188,72,128.84
5192,F#4,631.0,0.188,60,128.84
5193,B-4,631.0,0.188,60,128.84
5194,E-5,631.0,0.188,60,128.84
5195,C#5,631.5,0.188,69,128.84
5196,F#5,631.5,0.188,69,128.84
5197,B-5,631.5,0.188,69,128.84
5198,C#6,631.5,0.188,69,128.84
5199,F#4,631.5,0.188,63,128.84
5200,B-4,631.5,0.188,63,128.84
5201,C5,631.5,0.188,63,128.84
5202,B5,632.0,0.188,63,128.84
5203,F#6,632.0,0.188,63,128.84
5204,A6,632.0,0.188,63,128.84
5205,B6,632.0,0.188,63,128.84
5206,F#4,632.0,0.188,68,128.84
5207,B-4,632.0,0.188,68,128.84
5208,E-5,632.0,0.188,68,128.84
5209,B5,632.5,0.188,63,128.84
5210,F#6,632.5,0.188,63,128.84
5211,A6,632.5,0.188,63,128.84
5212,B6,632.5,0.188,63,128.84
5213,F#4,632.5,0.188,59,128.84
5214,B-4,632.5,0.188,59,128.84
5215,E-5,632.5,0.188,59,128.84
5216,B5,633.0,0.188,73,128.84
5217,F#6,633.0,0.188,73,128.84
5218,A6,633.0,0.188,73,128.84
5219,B6,633.0,0.188,73,128.84
5220,C#3,633.0,3.0,74,128.84
5221,G3,633.0,3.0,74,128.84
5222,B-3,633.0,3.0,74,128.84
5223,E-4,633.0,3.0,74,128.84
5224,A6,633.5,0.188,67,128.84
5225,D7,633.5,0.188,67,128.84
5226,F#6,633.5,0.188,67,128.84
5227,D6,633.5,0.188,67,128.84
5228,G4,633.5,0.188,63,128.84
5229,B-4,633.5,0.188,63,128.84
5230,E5,633.5,0.188,63,128.84
5231,B5,634.0,0.188,67,128.84
5232,F#6,634.0,0.188,67,128.84
5233,A6,634.0,0.188,67,128.84
5234,B6,634.0,0.188,67,128.84
5235,G4,634.0,0.188,62,128.84
5236,B-4,634.0,0.188,62,128.84
5237,C#5,634.0,0.188,62,128.84
5238,B5,634.5,0.188,58,128.84
5239,F#6,634.5,0.188,58,128.84
5240,A6,634.5,0.188,58,128.84
5241,B6,634.5,0.188,58,128.84
5242,G4,634.5,0.188,63,128.84
5243,B-4,634.5,0.188,63,128.84
5244,E5,634.5,0.188,63,128.84
5245,A4,635.0,0.188,83,128.84
5246,C5,635.0,0.188,83,128.84
5247,G4,635.0,0.188,64,128.84
5248,B-4,635.0,0.188,64,128.84
5249,E5,635.0,0.188,64,128.84
5250,A5,635.25,0.188,76,128.84
5251,F5,635.25,0.188,76,128.84
5252,G4,635.5,0.188,61,128.84
5253,B-4,635.5,0.188,61,128.84
5254,E5,635.5,0.188,61,128.84
5255,A5,635.75,0.188,66,128.84
5256,A6,635.75,0.188,66,128.84
5257,C6,635.75,0.188,66,128.84
5258,C#3,636.0,3.0,74,128.84
5259,F#3,636.0,3.0,74,128.84
5260,B-3,636.0,3.0,74,128.84
5261,E4,636.0,3.0,74,128.84
5262,F5,636.25,0.188,71,128.84
5263,A5,636.25,0.188,71,128.84
5264,F6,636.25,0.188,71,128.84
5265,F#4,636.5,0.188,63,128.84
5266,B-4,636.5,0.188,63,128.84
5267,C5,636.5,0.188,63,128.84
5268,C5,636.75,0.188,64,128.84
5269,F5,636.75,0.188,64,128.84
5270,C6,636.75,0.188,64,128.84
5271,F#4,637.0,0.188,60,128.84
5272,B-4,637.0,0.188,60,128.84
5273,E-5,637.0,0.188,60,128.84
5274,C5,637.25,0.5,57,128.84
5275,A4,637.25,0.188,60,128.84
5276,A5,637.25,0.188,60,128.84
5277,F5,637.5,0.188,61,128.84
5278,F#4,637.5,0.188,63,128.84
5279,B-4,637.5,0.188,63,128.84
5280,C5,637.5,0.188,63,128.84
5281,B4,638.0,0.188,67,128.84
5282,F#5,638.0,0.188,67,128.84
5283,A5,638.0,0.188,67,128.84
5284,B5,638.0,0.188,67,128.84
5285,F#4,638.0,0.188,68,128.84
5286,B-4,638.0,0.188,68,128.84
5287,E-5,638.0,0.188,68,128.84
5288,B4,638.5,0.188,67,128.84
5289,F#5,638.5,0.188,67,128.84
5290,A5,638.5,0.188,67,128.84
5291,B5,638.5,0.188,67,128.84
5292,F#4,638.5,0.188,59,128.84
5293,B-4,638.5,0.188,59,128.84
5294,E-5,638.5,0.188,59,128.84
5295,B4,639.0,0.188,77,128.84
5296,F#5,639.0,0.188,77,128.84
5297,A5,639.0,0.188,77,128.84
5298,B5,639.0,0.188,77,128.84
5299,B2,639.0,3.0,77,128.84
5300,F#3,639.0,3.0,77,128.84
5301,A3,639.0,3.0,77,128.84
5302,E-4,639.0,3.0,77,128.84
5303,A5,639.5,0.188,72,128.84
5304,D6,639.5,0.188,72,128.84
5305,F#5,639.5,0.188,72,128.84
5306,D5,639.5,0.188,72,128.84
5307,E-5,639.5,0.188,61,128.84
5308,F#5,639.5,0.188,61,128.84
5309,C6,639.5,0.188,61,128.84
5310,B4,640.0,0.188,72,128.84
5311,F#5,640.0,0.188,72,128.84
5312,A5,640.0,0.188,72,128.84
5313,B5,640.0,0.188,72,128.84
5314,E-5,640.0,0.188,61,128.84
5315,F#5,640.0,0.188,61,128.84
5316,B-5,640.0,0.188,61,128.84
5317,B4,640.5,0.188,62,128.84
5318,F#5,640.5,0.188,62,128.84
5319,A5,640.5,0.188,62,128.84
5320,B5,640.5,0.188,62,128.84
5321,E-5,640.5,0.188,61,128.84
5322,F#5,640.5,0.188,61,128.84
5323,C6,640.5,0.188,61,128.84
5324,A4,641.0,0.188,83,128.84
5325,C5,641.0,0.188,83,128.84
5326,E-5,641.0,0.188,62,128.84
5327,F#5,641.0,0.188,62,128.84
5328,C6,641.0,0.188,62,128.84
5329,A5,641.25,0.188,76,128.84
5330,F5,641.25,0.188,76,128.84
5331,E-5,641.5,0.188,58,128.84
5332,F#5,641.5,0.188,58,128.84
5333,C6,641.5,0.188,58,128.84
5334,A4,641.75,0.188,59,128.84
5335,A5,641.75,0.188,59,128.84
5336,C5,641.75,0.188,59,128.84
5337,A2,642.0,0.188,82,128.84
5338,F3,642.0,0.188,82,128.84
5339,A3,642.0,0.188,82,128.84
5340,F4,642.0,0.188,82,128.84
5341,F4,642.25,0.188,63,128.84
5342,A4,642.25,0.188,63,128.84
5343,F5,642.25,0.188,63,128.84
5344,C4,642.75,0.188,57,128.84
5345,F4,642.75,0.188,57,128.84
5346,C5,642.75,0.188,57,128.84
5347,B5,642.75,0.188,95,128.84
5348,G#5,642.75,0.188,95,128.84
5349,C4,643.25,0.5,51,128.84
5350,A3,643.25,0.188,54,128.84
5351,A4,643.25,0.188,54,128.84
5352,G#5,643.25,0.188,75,128.84
5353,E5,643.25,0.188,75,128.84
5354,F4,643.5,0.188,53,128.84
5355,B4,643.75,0.188,70,128.84
5356,D5,643.75,0.188,70,128.84
5357,B3,644.0,0.188,59,128.84
5358,F#4,644.0,0.188,59,128.84
5359,A4,644.0,0.188,59,128.84
5360,B4,644.0,0.188,59,128.84
5361,G#4,644.25,0.188,63,128.84
5362,B4,644.25,0.188,63,128.84
5363,B3,644.5,0.188,59,128.84
5364,F#4,644.5,0.188,59,128.84
5365,A4,644.5,0.188,59,128.84
5366,B4,644.5,0.188,59,128.84
5367,E-4,645.0,247/500,89,128.84
5368,B3,645.0,0.188,58,128.84
5369,F#4,645.0,0.188,58,128.84
5370,A4,645.0,0.188,58,128.84
5371,B4,645.0,0.188,58,128.84
5372,B2,645.0,3.0,73,128.84
5373,F#3,645.0,3.0,73,128.84
5374,A3,645.0,3.0,73,128.84
5375,A4,645.5,0.188,65,128.84
5376,D5,645.5,0.188,65,128.84
5377,F#4,645.5,0.188,65,128.84
5378,D4,645.5,0.188,65,128.84
5379,E-4,645.5,0.188,58,128.84
5380,F#4,645.5,0.188,58,128.84
5381,C5,645.5,0.188,58,128.84
5382,B3,646.0,0.188,54,128.84
5383,F#4,646.0,0.188,54,128.84
5384,A4,646.0,0.188,54,128.84
5385,B4,646.0,0.188,54,128.84
5386,E-4,646.0,0.188,58,128.84
5387,F#4,646.0,0.188,58,128.84
5388,B-4,646.0,0.188,58,128.84
5389,B3,646.5,0.188,55,128.84
5390,F#4,646.5,0.188,55,128.84
5391,A4,646.5,0.188,55,128.84
5392,B4,646.5,0.188,55,128.84
5393,E-4,646.5,0.188,58,128.84
5394,F#4,646.5,0.188,58,128.84
5395,C5,646.5,0.188,58,128.84
5396,A4,647.0,0.188,59,128.84
5397,E-4,647.0,0.188,58,128.84
5398,F#4,647.0,0.188,58,128.84
5399,C5,647.0,0.188,58,128.84
5400,G#4,647.5,0.188,58,128.84
5401,A4,647.5,0.188,58,128.84
5402,E-4,647.5,0.188,56,128.84
5403,F#4,647.5,0.188,56,128.84
5404,C5,647.5,0.188,56,128.84
5405,A4,648.0,0.188,62,128.84
5406,G4,648.0,0.188,62,128.84
5407,A2,648.0,0.188,82,128.84
5408,F3,648.0,0.188,82,128.84
5409,A3,648.0,0.188,82,128.84
5410,F4,648.0,0.188,82,128.84
5411,F#4,648.5,0.188,66,128.84
5412,A4,648.5,0.188,66,128.84
5413,B4,648.75,0.188,84,128.84
5414,G#4,648.75,0.188,84,128.84
5415,F4,649.0,0.188,66,128.84
5416,F#4,649.0,0.188,66,128.84
5417,A4,649.0,0.188,66,128.84
5418,G#4,649.25,0.188,66,128.84
5419,E4,649.25,0.188,66,128.84
5420,E4,649.5,0.188,70,128.84
5421,F#4,649.5,0.188,70,128.84
5422,A4,649.5,0.188,70,128.84
5423,B3,649.75,0.188,62,128.84
5424,D4,649.75,0.188,62,128.84
5425,E-4,650.0,0.188,72,128.84
5426,F#4,650.0,0.188,72,128.84
5427,A4,650.0,0.188,72,128.84
5428,G#3,650.25,0.188,56,128.84
5429,B3,650.25,0.188,56,128.84
5430,E4,650.5,0.188,68,128.84
5431,F#4,650.5,0.188,68,128.84
5432,A4,650.5,0.188,68,128.84
5433,E-4,651.0,0.188,66,128.84
5434,F#4,651.0,0.188,66,128.84
5435,A4,651.0,0.188,66,128.84
5436,B2,651.0,0.188,77,128.84
5437,F#3,651.0,0.188,77,128.84
5438,A3,651.0,0.188,77,128.84
5439,E-4,651.0,0.188,77,128.84
5440,D4,651.5,0.188,66,128.84
5441,F#4,651.5,0.188,66,128.84
5442,A4,651.5,0.188,66,128.84
5443,E-3,651.5,0.188,52,128.84
5444,F#3,651.5,0.188,52,128.84
5445,C4,651.5,0.188,52,128.84
5446,C#4,652.0,0.188,64,128.84
5447,F#4,652.0,0.188,64,128.84
5448,A4,652.0,0.188,64,128.84
5449,E-3,652.0,0.188,52,128.84
5450,F#3,652.0,0.188,52,128.84
5451,B-3,652.0,0.188,52,128.84
5452,C4,652.5,0.188,63,128.84
5453,F#4,652.5,0.188,63,128.84
5454,A4,652.5,0.188,63,128.84
5455,E-3,652.5,0.188,52,128.84
5456,F#3,652.5,0.188,52,128.84
5457,C4,652.5,0.188,52,128.84
5458,B3,653.0,0.188,58,128.84
5459,E-4,653.0,0.188,58,128.84
5460,F#4,653.0,0.188,58,128.84
5461,A4,653.0,0.188,58,128.84
5462,E-3,653.0,0.188,52,128.84
5463,F#3,653.0,0.188,52,128.84
5464,C4,653.0,0.188,52,128.84
5465,B3,653.5,0.188,62,128.84
5466,E-4,653.5,0.188,62,128.84
5467,F#4,653.5,0.188,62,128.84
5468,A4,653.5,0.188,62,128.84
5469,E-3,653.5,0.188,50,128.84
5470,F#3,653.5,0.188,50,128.84
5471,C4,653.5,0.188,50,128.84
5472,A3,654.0,0.188,62,128.84
5473,B3,654.0,0.188,65,128.84
5474,E-4,654.0,0.188,65,128.84
5475,F#4,654.0,0.188,65,128.84
5476,A4,654.0,0.188,65,128.84
5477,B3,654.5,0.188,69,128.84
5478,E-4,654.5,0.188,69,128.84
5479,F#4,654.5,0.188,69,128.84
5480,A4,654.5,0.188,69,128.84
5481,G#3,654.5,0.188,60,128.84
5482,A3,654.5,0.188,60,128.84
5483,B3,655.0,0.188,74,128.84
5484,E-4,655.0,0.188,74,128.84
5485,F#4,655.0,0.188,74,128.84
5486,A4,655.0,0.188,74,128.84
5487,A3,655.0,0.188,62,128.84
5488,G3,655.0,0.188,62,128.84
5489,B3,655.5,0.188,77,128.84
5490,E-4,655.5,0.188,77,128.84
5491,F#4,655.5,0.188,77,128.84
5492,A4,655.5,0.188,77,128.84
5493,F#3,655.5,0.188,66,128.84
5494,A3,655.5,0.188,66,128.84
5495,C4,656.0,0.188,95,128.84
5496,F3,656.0,0.188,66,128.84
5497,F#3,656.0,0.188,66,128.84
5498,A3,656.0,0.188,66,128.84
5499,E-4,656.25,0.188,84,128.84
5500,B-4,656.25,0.188,84,128.84
5501,F#4,656.25,0.188,84,128.84
5502,C5,656.5,0.188,84,128.84
5503,E-5,656.5,0.188,84,128.84
5504,F#5,656.5,0.188,84,128.84
5505,B-5,656.5,0.188,84,128.84
5506,E3,656.5,0.188,68,128.84
5507,F#3,656.5,0.188,68,128.84
5508,A3,656.5,0.188,68,128.84
5509,B-4,657.0,0.188,66,128.84
5510,F#4,657.0,0.188,66,128.84
5511,E-3,657.0,0.188,69,128.84
5512,F#3,657.0,0.188,69,128.84
5513,A3,657.0,0.188,69,128.84
5514,F#4,657.5,0.188,75,128.84
5515,E-4,657.5,0.188,75,128.84
5516,E3,657.5,0.188,68,128.84
5517,F#3,657.5,0.188,68,128.84
5518,A3,657.5,0.188,68,128.84
5519,F#4,658.0,0.5,79,128.84
5520,B-4,658.0,0.188,87,128.84
5521,E-3,658.0,0.188,67,128.84
5522,F#3,658.0,0.188,67,128.84
5523,A3,658.0,0.188,67,128.84
5524,C#5,658.25,0.188,86,128.84
5525,G#4,658.5,0.188,76,128.84
5526,C5,658.5,0.188,76,128.84
5527,D3,658.5,0.188,66,128.84
5528,F#3,658.5,0.188,66,128.84
5529,A3,658.5,0.188,66,128.84
5530,C#4,659.0,0.188,85,128.84
5531,F4,659.0,0.188,85,128.84
5532,C#3,659.0,0.188,65,128.84
5533,F#3,659.0,0.188,65,128.84
5534,A3,659.0,0.188,65,128.84
5535,C#5,659.25,0.188,77,128.84
5536,G#4,659.25,0.188,77,128.84
5537,G#4,659.5,0.188,87,128.84
5538,C5,659.5,0.188,87,128.84
5539,F5,659.5,0.188,87,128.84
5540,G#5,659.5,0.188,87,128.84
5541,C3,659.5,0.188,63,128.84
5542,F#3,659.5,0.188,63,128.84
5543,A3,659.5,0.188,63,128.84
5544,E-4,660.0,0.188,72,128.84
5545,F#4,660.0,0.188,72,128.84
5546,B2,660.0,0.188,62,128.84
5547,E-3,660.0,0.188,62,128.84
5548,F#3,660.0,0.188,62,128.84
5549,A3,660.0,0.188,62,128.84
5550,F#4,660.5,0.188,64,128.84
5551,B-4,660.5,0.188,64,128.84
5552,B2,660.5,0.188,62,128.84
5553,E-3,660.5,0.188,62,128.84
5554,F#3,660.5,0.188,62,128.84
5555,A3,660.5,0.188,62,128.84
5556,F4,660.75,0.188,62,128.84
5557,G#4,660.75,0.188,62,128.84
5558,B2,661.0,0.188,65,128.84
5559,E-3,661.0,0.188,65,128.84
5560,F#3,661.0,0.188,65,128.84
5561,A3,661.0,0.188,65,128.84
5562,B2,661.5,0.188,68,128.84
5563,E-3,661.5,0.188,68,128.84
5564,F#3,661.5,0.188,68,128.84
5565,A3,661.5,0.188,68,128.84
5566,C#5,661.75,0.188,86,128.84
5567,C#5,662.0,0.188,71,128.84
5568,F#5,662.0,0.188,71,128.84
5569,B-5,662.0,0.188,71,128.84
5570,B2,662.0,0.188,69,128.84
5571,E-3,662.0,0.188,69,128.84
5572,F#3,662.0,0.188,69,128.84
5573,A3,662.0,0.188,69,128.84
5574,B-5,662.25,0.5,96,128.84
5575,C#6,662.5,0.188,78,128.84
5576,F#6,662.5,0.188,78,128.84
5577,B-6,662.5,0.188,78,128.84
5578,B2,662.5,0.188,76,128.84
5579,E-3,662.5,0.188,76,128.84
5580,F#3,662.5,0.188,76,128.84
5581,A3,662.5,0.188,76,128.84
5582,B-4,663.0,0.188,64,128.84
5583,B-5,663.0,0.188,64,128.84
5584,C#5,663.0,0.188,64,128.84
5585,C3,663.0,0.188,78,128.84
5586,E-3,663.0,0.188,78,128.84
5587,F#3,663.0,0.188,78,128.84
5588,B-3,663.0,0.188,78,128.84
5589,F#4,663.5,0.188,74,128.84
5590,F#5,663.5,0.188,74,128.84
5591,B-4,663.5,0.188,74,128.84
5592,G#1,663.75,0.188,82,128.84
5593,G#2,663.75,0.188,82,128.84
5594,A4,664.0,0.188,79,128.84
5595,F4,664.0,0.188,79,128.84
5596,C#5,664.25,0.188,68,128.84
5597,B-5,664.25,0.188,68,128.84
5598,C#6,664.25,0.188,68,128.84
5599,C5,664.5,0.188,67,128.84
5600,G#5,664.5,0.188,67,128.84
5601,C6,664.5,0.188,67,128.84
5602,D4,664.5,0.188,70,128.84
5603,F4,664.5,0.188,70,128.84
5604,G#4,664.75,0.188,86,128.84
5605,C#5,665.0,0.188,65,128.84
5606,F5,665.0,0.188,65,128.84
5607,G#5,665.0,0.188,65,128.84
5608,F4,665.0,0.188,66,128.84
5609,A4,665.0,0.188,66,128.84
5610,G#5,665.25,0.5,95,128.84
5611,F6,665.5,0.188,83,128.84
5612,C#6,665.5,0.188,83,128.84
5613,G#6,665.5,0.188,83,128.84
5614,F#4,666.0,0.188,63,128.84
5615,E-5,666.0,0.188,63,128.84
5616,F#5,666.0,0.188,63,128.84
5617,C#3,666.0,0.188,73,128.84
5618,F3,666.0,0.188,73,128.84
5619,G#3,666.0,0.188,73,128.84
5620,F#5,666.5,0.188,72,128.84
5621,B-5,666.5,0.188,72,128.84
5622,F5,666.75,0.188,68,128.84
5623,G#5,666.75,0.188,68,128.84
5624,G#1,666.75,0.188,82,128.84
5625,G#2,666.75,0.188,82,128.84
5626,F4,667.0,0.188,72,128.84
5627,C#4,667.0,0.188,72,128.84
5628,F4,667.5,0.188,68,128.84
5629,G#4,667.5,0.188,68,128.84
5630,F#4,668.0,0.188,82,128.84
5631,B-4,668.0,0.188,82,128.84
5632,F#5,668.0,0.188,82,128.84
5633,E-5,668.0,0.188,82,128.84
5634,G#5,668.25,0.5,81,128.84
5635,G#4,668.25,0.5,81,128.84
5636,C#4,668.25,0.75,77,128.84
5637,F4,668.25,0.75,77,128.84
5638,A5,668.75,0.188,88,128.84
5639,F#5,668.75,0.188,88,128.84
5640,E-5,668.75,0.188,88,128.84
5641,A4,668.75,0.188,88,128.84
5642,B-5,669.0,0.188,82,128.84
5643,B-4,669.0,0.188,82,128.84
5644,F#3,669.0,0.188,82,128.84
5645,B-3,669.0,0.188,82,128.84
5646,E-4,669.0,0.188,82,128.84
5647,F#3,669.25,0.188,70,128.84
5648,E-6,669.25,0.188,96,128.84
5649,F#5,669.25,0.188,96,128.84
5650,E-5,669.25,0.188,96,128.84
5651,G#2,669.5,0.5,89,128.84
5652,D6,669.5,0.188,83,128.84
5653,D5,669.5,0.188,83,128.84
5654,G#1,669.75,0.188,70,128.84
5655,C#6,669.75,0.188,90,128.84
5656,C#5,669.75,0.188,90,128.84
5657,C5,670.0,0.188,80,128.84
5658,C6,670.0,0.188,80,128.84
5659,C5,670.0,0.188,79,128.84
5660,A4,670.0,0.188,79,128.84
5661,B4,670.25,0.188,83,128.84
5662,B5,670.25,0.188,83,128.84
5663,B-5,670.5,0.188,83,128.84
5664,B-4,670.5,0.188,83,128.84
5665,F4,670.5,0.188,70,128.84
5666,A4,670.5,0.188,70,128.84
5667,A5,670.75,0.188,83,128.84
5668,F5,670.75,0.188,83,128.84
5669,A4,670.75,0.188,83,128.84
5670,G#5,671.0,0.188,75,128.84
5671,G#4,671.0,0.188,75,128.84
5672,A4,671.0,0.188,66,128.84
5673,C5,671.0,0.188,66,128.84
5674,C#5,671.25,0.5,83,128.84
5675,C#6,671.25,0.5,83,128.84
5676,C#5,671.25,0.188,83,128.84
5677,B-4,671.25,0.188,83,128.84
5678,C6,671.75,0.5,71,128.84
5679,F#5,671.75,0.5,71,128.84
5680,C5,671.75,0.5,71,128.84
5681,B5,672.0,0.188,73,128.84
5682,B4,672.0,0.188,73,128.84
5683,G#3,672.0,0.188,73,128.84
5684,C#4,672.0,0.188,73,128.84
5685,F4,672.0,0.188,73,128.84
5686,F3,672.25,0.188,70,128.84
5687,B-5,672.25,0.188,69,128.84
5688,F5,672.25,0.188,69,128.84
5689,B-4,672.25,0.188,69,128.84
5690,G#2,672.5,0.5,89,128.84
5691,G#5,672.5,0.188,66,128.84
5692,G#4,672.5,0.188,66,128.84
5693,G#1,672.75,0.188,70,128.84
5694,B-5,672.75,0.188,62,128.84
5695,B-4,672.75,0.188,62,128.84
5696,F5,673.0,0.75,66,128.84
5697,D5,673.0,0.75,66,128.84
5698,G#4,673.0,0.75,66,128.84
5699,F4,673.0,0.75,66,128.84
5700,F4,673.0,0.188,80,128.84
5701,C#4,673.0,0.188,80,128.84
5702,F4,673.5,0.188,76,128.84
5703,G#4,673.5,0.188,76,128.84
5704,F#5,674.0,0.188,82,128.84
5705,B-5,674.0,0.188,82,128.84
5706,F#6,674.0,0.188,82,128.84
5707,E-6,674.0,0.188,82,128.84
5708,G#6,674.25,0.5,76,128.84
5709,G#5,674.25,0.5,76,128.84
5710,C#4,674.25,0.75,73,128.84
5711,F4,674.25,0.75,73,128.84
5712,A6,674.75,0.188,86,128.84
5713,F#6,674.75,0.188,86,128.84
5714,E-6,674.75,0.188,86,128.84
5715,A5,674.75,0.188,86,128.84
5716,B-6,675.0,0.188,82,128.84
5717,B-5,675.0,0.188,82,128.84
5718,F#4,675.0,0.375,74,128.84
5719,E-4,675.0,0.375,74,128.84
5720,B-3,675.0,0.375,74,128.84
5721,E-7,675.25,0.188,87,128.84
5722,G6,675.25,0.188,87,128.84
5723,E-6,675.25,0.188,87,128.84
5724,C#3,675.375,0.375,71,128.84
5725,D7,675.5,0.188,83,128.84
5726,D6,675.5,0.188,83,128.84
5727,C#7,675.75,0.188,90,128.84
5728,C#6,675.75,0.188,90,128.84
5729,F#4,675.75,0.375,74,128.84
5730,E-4,675.75,0.375,74,128.84
5731,B-3,675.75,0.375,74,128.84
5732,C6,676.0,0.188,84,128.84
5733,C7,676.0,0.188,84,128.84
5734,C#2,676.125,0.375,69,128.84
5735,B5,676.25,0.188,86,128.84
5736,B6,676.25,0.188,86,128.84
5737,B-6,676.5,0.188,83,128.84
5738,B-5,676.5,0.188,83,128.84
5739,G#3,676.5,0.375,78,128.84
5740,E-4,676.5,0.375,78,128.84
5741,F#4,676.5,0.375,78,128.84
5742,A6,676.75,0.188,87,128.84
5743,E6,676.75,0.188,87,128.84
5744,A5,676.75,0.188,87,128.84
5745,C#3,676.875,0.375,61,128.84
5746,G#6,677.0,0.188,76,128.84
5747,G#5,677.0,0.188,76,128.84
5748,C#6,677.25,0.5,83,128.84
5749,C#7,677.25,0.5,83,128.84
5750,G#3,677.25,0.375,66,128.84
5751,E-4,677.25,0.375,66,128.84
5752,F#4,677.25,0.375,66,128.84
5753,C#2,677.625,0.375,63,128.84
5754,B6,677.75,0.5,67,128.84
5755,E-6,677.75,0.5,67,128.84
5756,B5,677.75,0.5,67,128.84
5757,A6,678.0,0.188,74,128.84
5758,A5,678.0,0.188,74,128.84
5759,F4,678.0,0.375,59,128.84
5760,C#4,678.0,0.375,59,128.84
5761,G#3,678.0,0.375,59,128.84
5762,G#6,678.25,0.188,71,128.84
5763,E6,678.25,0.188,71,128.84
5764,G#5,678.25,0.188,71,128.84
5765,C#3,678.375,0.375,54,128.84
5766,F#6,678.5,0.188,67,128.84
5767,F#5,678.5,0.188,67,128.84
5768,G#6,678.75,0.188,64,128.84
5769,G#5,678.75,0.188,64,128.84
5770,F#4,678.75,0.375,52,128.84
5771,E-4,678.75,0.375,52,128.84
5772,A3,678.75,0.375,52,128.84
5773,E6,679.0,0.75,63,128.84
5774,G#5,679.0,0.75,63,128.84
5775,E5,679.0,0.75,63,128.84
5776,C#2,679.125,0.375,44,128.84
5777,F4,679.5,0.375,47,128.84
5778,C#4,679.5,0.375,47,128.84
5779,B-3,679.5,0.375,47,128.84
5780,C#3,679.875,1.125,45,128.84
5781,C#4,680.0,0.188,68,128.84
5782,E4,680.0,0.188,68,128.84
5783,C#5,680.25,0.188,62,128.84
5784,A4,680.25,0.188,62,128.84
5785,D4,680.25,0.75,55,128.84
5786,B3,680.25,0.75,55,128.84
5787,G#3,680.25,0.75,55,128.84
5788,C5,680.75,0.188,57,128.84
5789,G#4,680.75,0.188,57,128.84
5790,A4,681.0,0.188,50,128.84
5791,C#5,681.0,0.188,50,128.84
5792,E-4,681.0,0.375,74,128.84
5793,B-3,681.0,0.375,74,128.84
5794,F#3,681.0,0.375,74,128.84
5795,C#3,681.375,0.375,71,128.84
5796,F#4,681.5,0.188,59,128.84
5797,A4,681.5,0.188,59,128.84
5798,E-4,681.75,0.375,74,128.84
5799,B-3,681.75,0.375,74,128.84
5800,F#3,681.75,0.375,74,128.84
5801,A4,682.0,0.5,66,128.84
5802,C#5,682.0,0.188,75,128.84
5803,C#2,682.125,0.375,69,128.84
5804,E5,682.25,0.188,72,128.84
5805,B4,682.5,0.188,64,128.84
5806,E-5,682.5,0.188,64,128.84
5807,G3,682.5,0.375,70,128.84
5808,B-3,682.5,0.375,70,128.84
5809,E4,682.5,0.375,70,128.84
5810,C#3,682.875,0.375,64,128.84
5811,B3,683.0,0.188,64,128.84
5812,G#4,683.0,0.188,64,128.84
5813,B4,683.25,0.188,58,128.84
5814,G#4,683.25,0.188,58,128.84
5815,G3,683.25,0.375,66,128.84
5816,B-3,683.25,0.375,66,128.84
5817,E4,683.25,0.375,66,128.84
5818,C#2,683.625,0.375,63,128.84
5819,E4,683.75,0.188,60,128.84
5820,G#4,683.75,0.188,60,128.84
5821,F#4,684.0,0.188,54,128.84
5822,A4,684.0,0.188,54,128.84
5823,E4,684.0,0.375,59,128.84
5824,B3,684.0,0.375,59,128.84
5825,G#3,684.0,0.375,59,128.84
5826,B1,684.375,0.375,54,128.84
5827,A4,684.5,0.188,54,128.84
5828,C#5,684.5,0.188,54,128.84
5829,B4,684.75,0.188,50,128.84
5830,G#4,684.75,0.188,50,128.84
5831,E-4,684.75,0.375,52,128.84
5832,B3,684.75,0.375,52,128.84
5833,A3,684.75,0.375,52,128.84
5834,B2,685.125,0.375,44,128.84
5835,E4,685.5,0.375,47,128.84
5836,B3,685.5,0.375,47,128.84
5837,G#3,685.5,0.375,47,128.84
5838,C#3,685.875,0.375,45,128.84
5839,C#5,686.0,0.188,42,128.84
5840,E5,686.0,0.188,42,128.84
5841,C#6,686.25,0.188,41,128.84
5842,A5,686.25,0.188,41,128.84
5843,E4,686.25,0.75,54,128.84
5844,B4,686.25,0.75,54,128.84
5845,G#4,686.25,0.75,54,128.84
5846,B3,686.25,0.75,54,128.84
5847,C6,686.75,0.188,34,128.84
5848,G#5,686.75,0.188,34,128.84
5849,A5,687.0,0.188,31,128.84
5850,C#6,687.0,0.188,31,128.84
5851,B2,687.0,0.188,78,128.84
5852,E3,687.0,0.188,78,128.84
5853,A3,687.0,0.188,78,128.84
5854,F#5,687.5,0.188,36,128.84
5855,A5,687.5,0.188,36,128.84
5856,C#6,687.75,0.188,89,128.84
5857,A5,687.75,0.188,89,128.84
5858,A5,688.0,0.5,45,128.84
5859,C#6,688.0,0.188,45,128.84
5860,E6,688.25,0.188,44,128.84
5861,B5,688.5,0.188,42,128.84
5862,E-6,688.5,0.188,42,128.84
5863,G#4,688.5,0.188,68,128.84
5864,F4,688.5,0.188,68,128.84
5865,B4,689.0,0.188,39,128.84
5866,E5,689.0,0.188,39,128.84
5867,C5,689.0,0.188,58,128.84
5868,G#4,689.0,0.188,58,128.84
5869,B5,689.25,0.188,34,128.84
5870,G#5,689.25,0.188,34,128.84
5871,E5,689.75,0.188,38,128.84
5872,G#5,689.75,0.188,38,128.84
5873,F#5,690.0,0.188,33,128.84
5874,A5,690.0,0.188,33,128.84
5875,B2,690.0,0.188,67,128.84
5876,E3,690.0,0.188,67,128.84
5877,G#3,690.0,0.188,67,128.84
5878,A5,690.5,0.188,33,128.84
5879,C#6,690.5,0.188,33,128.84
5880,G#5,690.75,0.188,31,128.84
5881,B5,690.75,0.188,31,128.84
5882,G#5,690.75,0.188,89,128.84
5883,B5,690.75,0.188,89,128.84
5884,G#4,691.5,0.188,64,128.84
5885,B4,691.5,0.188,64,128.84
5886,A4,692.0,0.188,73,128.84
5887,C#5,692.0,0.188,73,128.84
5888,A5,692.0,0.188,73,128.84
5889,F#5,692.0,0.188,73,128.84
5890,B5,692.25,0.5,81,128.84
5891,B4,692.25,0.5,81,128.84
5892,E4,692.25,0.75,70,128.84
5893,G#4,692.25,0.75,70,128.84
5894,C6,692.75,0.188,84,128.84
5895,A5,692.75,0.188,84,128.84
5896,F#5,692.75,0.188,84,128.84
5897,C5,692.75,0.188,84,128.84
5898,C#6,693.0,0.188,82,128.84
5899,C#5,693.0,0.188,82,128.84
5900,B3,693.0,0.188,52,128.84
5901,E4,693.0,0.188,52,128.84
5902,A4,693.0,0.188,52,128.84
5903,F#6,693.25,0.188,90,128.84
5904,A5,693.25,0.188,90,128.84
5905,F#5,693.25,0.188,90,128.84
5906,F6,693.5,0.188,83,128.84
5907,F5,693.5,0.188,83,128.84
5908,E6,693.75,0.188,90,128.84
5909,E5,693.75,0.188,90,128.84
5910,A6,693.75,0.188,50,128.84
5911,C#7,693.75,0.188,50,128.84
5912,E-5,694.0,0.188,80,128.84
5913,E-6,694.0,0.188,80,128.84
5914,D5,694.25,0.188,83,128.84
5915,D6,694.25,0.188,83,128.84
5916,C#6,694.5,0.188,83,128.84
5917,C#5,694.5,0.188,83,128.84
5918,G#5,694.5,0.188,42,128.84
5919,F5,694.5,0.188,42,128.84
5920,C6,694.75,0.188,83,128.84
5921,G#5,694.75,0.188,83,128.84
5922,C5,694.75,0.188,83,128.84
5923,B5,695.0,0.188,75,128.84
5924,B4,695.0,0.188,75,128.84
5925,C6,695.0,0.188,34,128.84
5926,G#5,695.0,0.188,34,128.84
5927,E5,695.25,0.5,83,128.84
5928,E6,695.25,0.5,83,128.84
5929,E-6,695.75,0.5,71,128.84
5930,A5,695.75,0.5,71,128.84
5931,E-5,695.75,0.5,71,128.84
5932,D5,696.0,0.188,77,128.84
5933,D6,696.0,0.188,77,128.84
5934,B3,696.0,0.188,38,128.84
5935,E4,696.0,0.188,38,128.84
5936,G#4,696.0,0.188,38,128.84
5937,C#6,696.25,0.188,69,128.84
5938,G#5,696.25,0.188,69,128.84
5939,C#5,696.25,0.188,69,128.84
5940,B5,696.5,0.188,66,128.84
5941,B4,696.5,0.188,66,128.84
5942,C#6,696.75,0.188,62,128.84
5943,C#5,696.75,0.188,62,128.84
5944,G#6,696.75,0.188,58,128.84
5945,B6,696.75,0.188,58,128.84
5946,G#5,697.0,0.75,66,128.84
5947,F5,697.0,0.75,66,128.84
5948,B4,697.0,0.75,66,128.84
5949,G#4,697.0,0.75,66,128.84
5950,G#5,697.5,0.188,39,128.84
5951,B5,697.5,0.188,39,128.84
5952,A5,698.0,0.188,68,128.84
5953,C#6,698.0,0.188,68,128.84
5954,A6,698.0,0.188,68,128.84
5955,F#6,698.0,0.188,68,128.84
5956,B6,698.25,0.5,76,128.84
5957,B5,698.25,0.5,76,128.84
5958,E5,698.25,0.625,43,128.84
5959,G#5,698.25,0.625,43,128.84
5960,C7,698.75,0.188,78,128.84
5961,A6,698.75,0.188,78,128.84
5962,F#6,698.75,0.188,78,128.84
5963,C6,698.75,0.188,78,128.84
5964,C#7,699.0,0.188,72,128.84
5965,C#6,699.0,0.188,72,128.84
5966,F#4,699.0,0.375,74,128.84
5967,C#4,699.0,0.375,74,128.84
5968,A3,699.0,0.375,74,128.84
5969,F#7,699.25,0.188,79,128.84
5970,A6,699.25,0.188,79,128.84
5971,F#6,699.25,0.188,79,128.84
5972,E3,699.375,0.375,71,128.84
5973,F7,699.5,0.188,77,128.84
5974,F6,699.5,0.188,77,128.84
5975,E6,699.75,0.188,84,128.84
5976,E7,699.75,0.188,84,128.84
5977,F#4,699.75,0.375,74,128.84
5978,C#4,699.75,0.375,74,128.84
5979,A3,699.75,0.375,74,128.84
5980,E-6,700.0,0.188,76,128.84
5981,E-7,700.0,0.188,76,128.84
5982,E2,700.125,0.375,69,128.84
5983,D6,700.25,0.188,78,128.84
5984,D7,700.25,0.188,78,128.84
5985,C#7,700.5,0.188,78,128.84
5986,C#6,700.5,0.188,78,128.84
5987,G#3,700.5,0.375,74,128.84
5988,B3,700.5,0.375,74,128.84
5989,F#4,700.5,0.375,74,128.84
5990,C7,700.75,0.188,78,128.84
5991,G#6,700.75,0.188,78,128.84
5992,C6,700.75,0.188,78,128.84
5993,E3,700.875,0.375,61,128.84
5994,B6,701.0,0.188,70,128.84
5995,B5,701.0,0.188,70,128.84
5996,E6,701.25,0.5,78,128.84
5997,E7,701.25,0.5,78,128.84
5998,G#3,701.25,0.375,66,128.84
5999,B3,701.25,0.375,66,128.84
6000,F#4,701.25,0.375,66,128.84
6001,E2,701.625,0.375,63,128.84
6002,E-7,701.75,0.5,68,128.84
6003,A6,701.75,0.5,68,128.84
6004,E-6,701.75,0.5,68,128.84
6005,D6,702.0,0.188,73,128.84
6006,D7,702.0,0.188,73,128.84
6007,G#4,702.0,0.375,59,128.84
6008,E4,702.0,0.375,59,128.84
6009,B3,702.0,0.375,59,128.84
6010,C#7,702.25,0.188,65,128.84
6011,G#6,702.25,0.188,65,128.84
6012,C#6,702.25,0.188,65,128.84
6013,E3,702.375,0.375,54,128.84
6014,B6,702.5,0.188,61,128.84
6015,B5,702.5,0.188,61,128.84
6016,C#7,702.75,0.188,58,128.84
6017,C#6,702.75,0.188,58,128.84
6018,A4,702.75,0.375,52,128.84
6019,F#4,702.75,0.375,52,128.84
6020,C4,702.75,0.375,52,128.84
6021,G#6,703.0,0.75,56,128.84
6022,F6,703.0,0.75,56,128.84
6023,B5,703.0,0.75,56,128.84
6024,G#5,703.0,0.75,56,128.84
6025,E2,703.125,0.375,44,128.84
6026,G#4,703.5,0.375,47,128.84
6027,E4,703.5,0.375,47,128.84
6028,C#4,703.5,0.375,47,128.84
6029,G#2,703.75,0.188,47,128.84
6030,E3,703.875,1.125,45,128.84
6031,F#3,704.0,0.188,47,128.84
6032,C#3,704.0,0.188,47,128.84
6033,F3,704.25,0.188,47,128.84
6034,F4,704.25,0.75,55,128.84
6035,D4,704.25,0.75,55,128.84
6036,B3,704.25,0.75,55,128.84
6037,A3,704.5,0.188,54,128.84
6038,F#3,704.5,0.188,54,128.84
6039,G#3,704.75,0.188,52,128.84
6040,A3,705.0,0.188,52,128.84
6041,C#4,705.0,0.188,52,128.84
6042,F#4,705.0,0.375,74,128.84
6043,C#4,705.0,0.375,74,128.84
6044,A3,705.0,0.375,74,128.84
6045,B3,705.25,0.188,52,128.84
6046,E3,705.375,0.375,71,128.84
6047,C4,705.5,0.188,53,128.84
6048,E-4,705.5,0.188,53,128.84
6049,B-3,705.75,0.188,46,128.84
6050,C#4,705.75,0.188,46,128.84
6051,F#4,705.75,0.375,74,128.84
6052,C#4,705.75,0.375,74,128.84
6053,A3,705.75,0.375,74,128.84
6054,G#3,706.0,0.188,46,128.84
6055,C4,706.0,0.188,46,128.84
6056,E2,706.125,0.375,69,128.84
6057,G3,706.25,0.188,52,128.84
6058,F#3,706.5,0.188,51,128.84
6059,B-3,706.5,0.188,51,128.84
6060,B3,706.5,0.375,69,128.84
6061,E-4,706.5,0.375,69,128.84
6062,A4,706.5,0.375,69,128.84
6063,E3,706.75,0.188,51,128.84
6064,E3,706.875,0.375,61,128.84
6065,F3,707.0,0.188,47,128.84
6066,G#3,707.0,0.188,47,128.84
6067,G3,707.25,0.188,47,128.84
6068,B3,707.25,0.375,66,128.84
6069,E-4,707.25,0.375,66,128.84
6070,A4,707.25,0.375,66,128.84
6071,G#3,707.5,0.188,56,128.84
6072,C4,707.5,0.188,56,128.84
6073,E2,707.625,0.375,63,128.84
6074,B3,707.75,0.188,53,128.84
6075,C4,708.0,0.188,53,128.84
6076,E-4,708.0,0.188,53,128.84
6077,G#4,708.0,0.375,59,128.84
6078,E4,708.0,0.375,59,128.84
6079,B3,708.0,0.375,59,128.84
6080,C4,708.25,0.188,52,128.84
6081,E3,708.375,0.375,54,128.84
6082,C#4,708.5,0.188,53,128.84
6083,F4,708.5,0.188,53,128.84
6084,C4,708.75,0.188,50,128.84
6085,E-4,708.75,0.188,50,128.84
6086,A4,708.75,0.375,52,128.84
6087,F#4,708.75,0.375,52,128.84
6088,C4,708.75,0.375,52,128.84
6089,B-3,709.0,0.188,51,128.84
6090,C#4,709.0,0.188,51,128.84
6091,E2,709.125,0.375,44,128.84
6092,A3,709.25,0.188,53,128.84
6093,G#3,709.5,0.188,53,128.84
6094,C4,709.5,0.188,53,128.84
6095,G#4,709.5,0.375,47,128.84
6096,E4,709.5,0.375,47,128.84
6097,C#4,709.5,0.375,47,128.84
6098,F3,709.75,0.188,51,128.84
6099,E3,709.875,0.375,45,128.84
6100,F#3,710.0,0.188,47,128.84
6101,B-3,710.0,0.188,47,128.84
6102,A3,710.25,0.188,47,128.84
6103,D4,710.25,0.75,48,128.84
6104,D5,710.25,0.75,48,128.84
6105,B4,710.25,0.75,48,128.84
6106,F4,710.25,0.75,48,128.84
6107,B-3,710.5,0.188,54,128.84
6108,C#4,710.5,0.188,54,128.84
6109,C4,710.75,0.188,52,128.84
6110,C#2,711.0,0.188,41,128.84
6111,F4,711.0,0.188,52,128.84
6112,C#4,711.0,0.188,52,128.84
6113,D4,711.25,0.188,52,128.84
6114,A2,711.25,0.188,36,128.84
6115,C#2,711.5,0.188,41,128.84
6116,F#4,711.5,0.188,53,128.84
6117,E-4,711.5,0.188,53,128.84
6118,A2,711.75,0.188,36,128.84
6119,F4,711.75,0.188,46,128.84
6120,C#4,711.75,0.188,46,128.84
6121,C#2,712.0,0.188,43,128.84
6122,E-4,712.0,0.188,46,128.84
6123,C4,712.0,0.188,46,128.84
6124,B3,712.25,0.188,52,128.84
6125,A2,712.25,0.188,40,128.84
6126,C#2,712.5,0.188,45,128.84
6127,C#4,712.5,0.188,51,128.84
6128,B-3,712.5,0.188,51,128.84
6129,E4,712.75,0.188,52,128.84
6130,G#2,712.75,0.188,41,128.84
6131,C#3,713.0,0.188,41,128.84
6132,G#4,713.0,0.188,53,128.84
6133,F4,713.0,0.188,53,128.84
6134,G#3,713.25,0.188,44,128.84
6135,F#4,713.25,0.188,46,128.84
6136,E-4,713.25,0.188,46,128.84
6137,C#3,713.5,0.188,41,128.84
6138,F4,713.5,0.188,46,128.84
6139,C#4,713.5,0.188,46,128.84
6140,B3,713.75,0.188,52,128.84
6141,G#2,713.75,0.188,41,128.84
6142,C#2,714.0,0.188,41,128.84
6143,E-4,714.0,0.188,51,128.84
6144,C4,714.0,0.188,51,128.84
6145,F4,714.25,0.188,52,128.84
6146,G#2,714.25,0.188,36,128.84
6147,C#2,714.5,0.188,41,128.84
6148,B-4,714.5,0.188,53,128.84
6149,F#4,714.5,0.188,53,128.84
6150,G#2,714.75,0.188,36,128.84
6151,G#4,714.75,0.188,46,128.84
6152,F4,714.75,0.188,46,128.84
6153,C#2,715.0,0.188,43,128.84
6154,F#4,715.0,0.188,46,128.84
6155,E-4,715.0,0.188,46,128.84
6156,D4,715.25,0.188,52,128.84
6157,G#2,715.25,0.188,40,128.84
6158,C#2,715.5,0.188,45,128.84
6159,F4,715.5,0.188,51,128.84
6160,C#4,715.5,0.188,51,128.84
6161,D4,715.75,0.188,53,128.84
6162,G#2,715.75,0.188,41,128.84
6163,C#3,716.0,0.188,41,128.84
6164,F#4,716.0,0.188,50,128.84
6165,D4,716.0,0.188,50,128.84
6166,F4,716.25,0.188,50,128.84
6167,G#3,716.25,0.188,44,128.84
6168,C#3,716.5,0.188,41,128.84
6169,A4,716.5,0.188,57,128.84
6170,F#4,716.5,0.188,57,128.84
6171,G#4,716.75,0.188,53,128.84
6172,G#2,716.75,0.188,41,128.84
6173,C#2,717.0,0.188,41,128.84
6174,B-4,717.0,0.188,54,128.84
6175,D5,717.0,0.188,54,128.84
6176,C#5,717.25,0.188,54,128.84
6177,G#2,717.25,0.188,36,128.84
6178,C#2,717.5,0.188,41,128.84
6179,D5,717.5,0.188,56,128.84
6180,F#5,717.5,0.188,56,128.84
6181,G#2,717.75,0.188,36,128.84
6182,C#5,717.75,0.188,49,128.84
6183,E5,717.75,0.188,49,128.84
6184,C#2,718.0,0.188,43,128.84
6185,B4,718.0,0.188,49,128.84
6186,D5,718.0,0.188,49,128.84
6187,B-4,718.25,0.188,55,128.84
6188,G#2,718.25,0.188,40,128.84
6189,C#2,718.5,0.188,45,128.84
6190,A4,718.5,0.188,54,128.84
6191,C#5,718.5,0.188,54,128.84
6192,G4,718.75,0.188,59,128.84
6193,G#2,718.75,0.188,41,128.84
6194,C#3,719.0,0.188,41,128.84
6195,G#4,719.0,0.188,54,128.84
6196,B4,719.0,0.188,54,128.84
6197,B-4,719.25,0.188,54,128.84
6198,G#3,719.25,0.188,44,128.84
6199,C#3,719.5,0.188,41,128.84
6200,B4,719.5,0.188,65,128.84
6201,D5,719.5,0.188,65,128.84
6202,C#5,719.75,0.188,62,128.84
6203,G#2,719.75,0.188,41,128.84
6204,C#2,720.0,0.188,45,128.84
6205,D5,720.0,0.188,62,128.84
6206,F#5,720.0,0.188,62,128.84
6207,E5,720.25,0.188,61,128.84
6208,G#2,720.25,0.188,41,128.84
6209,C#3,720.5,0.188,41,128.84
6210,F5,720.5,0.188,62,128.84
6211,G#5,720.5,0.188,62,128.84
6212,G#3,720.75,0.188,44,128.84
6213,D5,720.75,0.188,58,128.84
6214,F#5,720.75,0.188,58,128.84
6215,C#5,721.0,0.188,53,128.84
6216,F5,721.0,0.5,67,128.84
6217,C#3,721.0,0.188,41,128.84
6218,C5,721.25,0.188,63,128.84
6219,G#2,721.25,0.188,41,128.84
6220,C#2,721.5,0.188,45,128.84
6221,B4,721.5,0.188,62,128.84
6222,D5,721.5,0.188,62,128.84
6223,G#4,721.75,0.188,59,128.84
6224,G#2,721.75,0.188,41,128.84
6225,C#3,722.0,0.188,41,128.84
6226,A4,722.0,0.188,61,128.84
6227,C#5,722.0,0.188,61,128.84
6228,C5,722.25,0.188,61,128.84
6229,G#3,722.25,0.188,44,128.84
6230,C#3,722.5,0.188,41,128.84
6231,C#5,722.5,0.188,72,128.84
6232,F#5,722.5,0.188,72,128.84
6233,F5,722.75,0.188,66,128.84
6234,G#2,722.75,0.188,41,128.84
6235,C#2,723.0,0.188,43,128.84
6236,F#5,723.0,0.188,67,128.84
6237,A5,723.0,0.188,67,128.84
6238,C#5,723.25,0.188,63,128.84
6239,C#3,723.25,0.188,37,128.84
6240,A3,723.5,0.5,64,128.84
6241,D5,723.5,0.188,61,128.84
6242,F#5,723.5,0.188,61,128.84
6243,F5,723.75,0.188,61,128.84
6244,A2,723.75,0.188,39,128.84
6245,F#3,724.0,0.5,62,128.84
6246,F#5,724.0,0.188,72,128.84
6247,B5,724.0,0.188,72,128.84
6248,B-5,724.25,0.188,66,128.84
6249,F#2,724.25,0.188,42,128.84
6250,C#2,724.5,0.188,47,128.84
6251,B5,724.5,0.188,67,128.84
6252,D6,724.5,0.188,67,128.84
6253,G5,724.75,0.188,62,128.84
6254,C#3,724.75,0.188,43,128.84
6255,D4,725.0,0.5,71,128.84
6256,G#5,725.0,0.188,63,128.84
6257,B5,725.0,0.188,63,128.84
6258,B-5,725.25,0.188,63,128.84
6259,D3,725.25,0.188,45,128.84
6260,F#4,725.5,0.5,66,128.84
6261,B5,725.5,0.188,75,128.84
6262,D6,725.5,0.188,75,128.84
6263,C#6,725.75,0.188,70,128.84
6264,F#3,725.75,0.188,46,128.84
6265,C#2,726.0,0.188,45,128.84
6266,D6,726.0,0.188,71,128.84
6267,F#6,726.0,0.188,71,128.84
6268,B5,726.25,0.188,71,128.84
6269,C#3,726.25,0.188,42,128.84
6270,B3,726.5,0.5,76,128.84
6271,E-6,726.5,0.188,65,128.84
6272,C6,726.5,0.188,65,128.84
6273,G#6,726.5,0.188,65,128.84
6274,D6,726.75,0.188,65,128.84
6275,B2,726.75,0.188,43,128.84
6276,G#3,727.0,0.5,71,128.84
6277,F#6,727.0,0.188,74,128.84
6278,E-6,727.0,0.188,74,128.84
6279,C7,727.0,0.188,74,128.84
6280,F6,727.25,0.188,70,128.84
6281,G#2,727.25,0.188,45,128.84
6282,C#2,727.5,0.188,53,128.84
6283,C7,727.5,0.188,72,128.84
6284,F#6,727.5,0.188,72,128.84
6285,E-7,727.5,0.188,72,128.84
6286,C#3,727.75,0.188,46,128.84
6287,F7,727.75,0.5,96,128.84
6288,C#7,727.75,0.5,96,128.84
6289,F6,727.75,0.5,96,128.84
6290,C#4,728.0,0.5,80,128.84
6291,F5,728.25,0.5,104,128.84
6292,C#3,728.25,0.188,51,128.84
6293,F4,728.25,1.0,82,128.84
6294,G#4,728.25,1.0,82,128.84
6295,F4,728.5,0.5,71,128.84
6296,E-5,728.75,0.188,99,128.84
6297,F3,728.75,0.188,47,128.84
6298,F5,729.0,0.188,93,128.84
6299,F#4,729.0,0.75,79,128.84
6300,A3,729.0,0.188,79,128.84
6301,C#4,729.25,0.188,71,128.84
6302,F4,729.25,0.5,77,128.84
6303,G#4,729.25,0.5,77,128.84
6304,C#5,729.25,0.5,77,128.84
6305,F#3,729.5,0.188,71,128.84
6306,C#4,729.75,0.5,93,128.84
6307,C#2,729.75,0.75,81,128.84
6308,C#3,729.75,0.75,81,128.84
6309,G#4,730.25,1.0,94,128.84
6310,C#5,730.25,1.0,94,128.84
6311,G#5,730.25,1.0,94,128.84
6312,B3,730.5,0.188,81,128.84
6313,F#4,730.5,0.75,81,128.84
6314,D4,730.75,0.188,75,128.84
6315,F#3,731.0,0.188,75,128.84
6316,B-4,731.25,0.5,88,128.84
6317,C#5,731.25,0.5,88,128.84
6318,B-5,731.25,0.5,88,128.84
6319,C#2,731.25,0.75,81,128.84
6320,C#3,731.25,0.75,81,128.84
6321,C#5,731.75,1.0,83,128.84
6322,G#5,731.75,0.188,78,128.84
6323,G#4,731.75,0.188,78,128.84
6324,B4,732.0,0.75,81,128.84
6325,D4,732.0,0.188,81,128.84
6326,G5,732.0,0.188,69,128.84
6327,G4,732.0,0.188,69,128.84
6328,F#4,732.25,0.188,74,128.84
6329,G#3,732.5,0.188,74,128.84
6330,F5,732.5,0.188,72,128.84
6331,F4,732.5,0.188,72,128.84
6332,C#2,732.75,0.75,84,128.84
6333,C#3,732.75,0.75,84,128.84
6334,E-5,733.0,0.188,70,128.84
6335,E-4,733.0,0.188,70,128.84
6336,E-4,733.5,0.188,89,128.84
6337,C5,733.5,0.75,89,128.84
6338,C#5,733.5,0.188,67,128.84
6339,C#4,733.5,0.188,67,128.84
6340,F#4,733.75,0.188,82,128.84
6341,G#3,734.0,0.188,82,128.84
6342,F4,734.25,1.0,88,128.84
6343,F5,734.25,1.0,88,128.84
6344,C#2,734.25,0.75,89,128.84
6345,C#3,734.25,0.75,89,128.84
6346,C#1,735.0,0.5,76,128.84
6347,G#1,735.0,0.5,76,128.84
6348,C#2,735.0,0.5,76,128.84
6349,F#4,735.25,0.5,83,128.84
6350,E-5,735.25,0.5,83,128.84
6351,C#4,735.5,0.5,90,128.84
6352,C#3,735.5,1.0,82,128.84
6353,G#3,735.5,1.0,82,128.84
6354,F#4,735.75,1.0,80,128.84
6355,E-5,735.75,0.188,89,128.84
6356,D5,736.0,0.188,79,128.84
6357,E-4,736.0,0.188,85,128.84
6358,C#5,736.25,0.188,79,128.84
6359,F4,736.25,0.188,79,128.84
6360,C5,736.5,0.188,74,128.84
6361,C#3,736.5,0.5,72,128.84
6362,G#3,736.5,0.5,72,128.84
6363,C#4,736.5,0.5,72,128.84
6364,F4,736.75,0.5,70,128.84
6365,C#5,736.75,0.188,80,128.84
6366,C5,737.0,0.188,70,128.84
6367,C#2,737.0,0.5,75,128.84
6368,C#3,737.0,0.5,75,128.84
6369,B-4,737.25,0.5,71,128.84
6370,F3,737.5,1.0,86,128.84
6371,C#4,737.5,1.0,86,128.84
6372,F4,737.5,1.0,86,128.84
6373,F4,738.25,1.0,72,128.84
6374,G#4,738.25,1.0,72,128.84
6375,C#4,738.5,0.5,74,128.84
6376,F#3,738.5,0.5,74,128.84
6377,F#4,738.5,0.5,74,128.84
6378,F4,739.0,0.5,79,128.84
6379,C#4,739.0,0.5,79,128.84
6380,F3,739.0,0.5,79,128.84
6381,A4,739.25,0.5,76,128.84
6382,F#4,739.5,0.188,81,128.84
6383,F4,739.75,1.0,62,128.84
6384,A4,739.75,0.25,80,128.84
6385,B-4,740.0,0.25,74,128.84
6386,E4,740.0,0.188,75,128.84
6387,B4,740.25,0.25,74,128.84
6388,C5,740.5,0.25,74,128.84
6389,D4,740.5,0.188,73,128.84
6390,F4,740.75,0.5,70,128.84
6391,B-4,740.75,0.25,81,128.84
6392,C5,741.0,0.25,74,128.84
6393,C#2,741.0,0.5,82,128.84
6394,C#3,741.0,0.5,82,128.84
6395,C#5,741.25,0.25,74,128.84
6396,F5,741.5,0.25,74,128.84
6397,C#3,741.5,1.0,76,128.84
6398,G#3,741.5,1.0,76,128.84
6399,C#4,741.5,1.0,76,128.84
6400,B-5,741.75,0.25,82,128.84
6401,C6,742.0,0.25,76,128.84
6402,C#6,742.25,0.25,76,128.84
6403,F6,742.5,0.25,76,128.84
6404,A3,742.5,0.5,59,128.84
6405,C#3,742.5,0.5,59,128.84
6406,C4,742.5,0.5,59,128.84
6407,B-6,742.75,0.25,82,128.84
6408,C7,743.0,0.25,79,128.84
6409,C#3,743.0,0.5,63,128.84
6410,C4,743.0,0.5,63,128.84
6411,A3,743.0,0.5,63,128.84
6412,C#7,743.25,0.25,79,128.84
6413,F7,743.5,0.25,79,128.84
6414,C#2,743.5,0.5,57,128.84
6415,C#3,743.5,0.5,57,128.84
6416,C#3,744.0,0.5,44,128.84
6417,B-3,744.0,0.5,44,128.84
6418,C#4,744.0,0.5,44,128.84
6419,C4,744.125,0.625,62,128.84
6420,F4,744.188,0.562,65,128.84
6421,C5,744.25,0.5,69,128.84
6422,C#2,744.5,0.312,50,128.84
6423,C#3,744.5,0.312,50,128.84
6424,C#3,744.812,0.188,57,128.84
6425,G#3,744.875,0.125,57,128.84
6426,C#4,744.938,0.062,62,128.84
6427,F4,745.0,0.5,67,128.84
6428,C#3,745.0,0.5,57,128.84
6429,G#3,745.0,0.5,57,128.84
6430,C#4,745.0,0.5,62,128.84
6431,E-5,745.0,0.25,62,128.84
6432,C5,745.0,0.25,62,128.84
6433,A4,745.0,0.25,62,128.84
6434,F4,745.0,0.25,62,128.84
6435,G5,745.5,0.25,60,128.84
6436,G4,745.5,0.25,60,128.84
6437,E4,745.75,0.25,60,128.84
6438,G4,745.75,0.25,60,128.84
6439,B-4,745.75,0.25,60,128.84
6440,E5,745.75,0.25,60,128.84
6441,D4,746.25,0.25,56,128.84
6442,G4,746.25,0.25,56,128.84
6443,B-4,746.25,0.25,56,128.84
6444,D5,746.25,0.25,56,128.84
6445,E-4,746.5,0.375,63,128.84
6446,B-4,746.75,167/1000,62,128.84
6447,D5,746.75,1.0,71,128.84
6448,C#3,746.875,0.125,52,128.84
6449,G4,746.917,167/1000,62,128.84
6450,E-4,747.0,0.25,65,128.84
6451,D4,747.083,167/1000,62,128.84
6452,D4,747.25,0.25,59,128.84
6453,C#4,747.5,0.25,53,128.84
6454,C4,747.75,0.25,53,128.84
6455,C#4,748.0,0.25,56,128.84
6456,C4,748.25,167/1000,65,128.84
6457,C4,748.25,0.25,52,128.84
6458,F4,748.417,167/1000,59,128.84
6459,B-3,748.5,0.5,70,128.84
6460,C5,748.583,167/1000,59,128.84
6461,A4,748.583,167/1000,59,128.84
6462,B-3,749.0,0.5,70,128.84
6463,F6,749.0,0.25,57,128.84
6464,C6,749.0,0.25,57,128.84
6465,A5,749.0,0.25,57,128.84
6466,F5,749.0,0.25,57,128.84
6467,G6,749.5,0.25,62,128.84
6468,G5,749.5,0.25,62,128.84
6469,G#4,749.5,0.5,59,128.84
6470,F4,749.5,0.5,59,128.84
6471,G#3,749.5,0.5,59,128.84
6472,E6,749.75,0.25,66,128.84
6473,B-5,749.75,0.25,66,128.84
6474,G5,749.75,0.25,66,128.84
6475,E5,749.75,0.25,66,128.84
6476,B-4,750.0,0.5,59,128.84
6477,G4,750.0,0.5,59,128.84
6478,F4,750.0,0.5,59,128.84
6479,B-3,750.0,0.5,59,128.84
6480,D6,750.25,0.25,54,128.84
6481,B-5,750.25,0.25,54,128.84
6482,G5,750.25,0.25,54,128.84
6483,D5,750.25,0.25,54,128.84
6484,C#2,750.5,0.5,66,128.84
6485,C#3,750.5,0.5,66,128.84
6486,B-5,750.75,167/1000,64,128.84
6487,D6,750.75,1.0,72,128.84
6488,G5,750.917,167/1000,57,128.84
6489,C2,751.0,0.25,71,128.84
6490,C3,751.0,0.25,71,128.84
6491,D5,751.083,167/1000,57,128.84
6492,C3,751.25,0.75,54,128.84
6493,A3,751.312,0.688,62,128.84
6494,C5,751.688,0.062,56,128.84
6495,A5,751.688,0.062,56,128.84
6496,C6,751.75,0.5,63,128.84
6497,C5,751.75,0.469,56,128.84
6498,A5,751.75,0.469,56,128.84
6499,E4,752.0,0.25,71,128.84
6500,A6,752.25,0.25,88,128.84
6501,F6,752.25,0.25,88,128.84
6502,C6,752.25,0.25,88,128.84
6503,A5,752.25,0.25,88,128.84
6504,F4,752.5,0.25,66,128.84
6505,G6,752.75,0.25,83,128.84
6506,G5,752.75,0.25,83,128.84
6507,D4,753.25,0.25,56,128.84
6508,F6,753.25,0.25,82,128.84
6509,F5,753.25,0.25,82,128.84
6510,C4,753.75,0.25,53,128.84
6511,D6,753.75,0.25,80,128.84
6512,D5,753.75,0.25,80,128.84
6513,C6,754.25,0.25,80,128.84
6514,C5,754.25,0.25,80,128.84
6515,B-3,754.5,167/1000,57,128.84
6516,C3,754.667,167/1000,51,128.84
6517,A5,754.75,0.25,80,128.84
6518,A4,754.75,0.25,80,128.84
6519,E2,754.833,167/1000,50,128.84
6520,F2,755.0,167/1000,63,128.84
6521,C3,755.167,167/1000,52,128.84
6522,G5,755.25,0.25,78,128.84
6523,G4,755.25,0.25,78,128.84
6524,A3,755.333,167/1000,52,128.84
6525,F4,755.75,0.25,78,128.84
6526,F5,755.75,0.25,78,128.84
6527,E5,756.0,0.25,81,128.84
6528,D4,756.25,0.25,78,128.84
6529,D5,756.25,0.25,78,128.84
6530,F5,756.5,0.25,76,128.84
6531,C4,756.75,0.25,77,128.84
6532,C5,756.75,0.25,77,128.84
6533,D5,757.25,0.25,65,128.84
6534,A3,757.25,0.25,76,128.84
6535,A4,757.25,0.25,76,128.84
6536,C5,757.75,0.25,56,128.84
6537,G3,757.75,0.25,82,128.84
6538,G4,757.75,0.25,82,128.84
6539,F3,758.125,0.125,59,128.84
6540,F4,758.125,0.125,59,128.84
6541,G3,758.25,0.125,60,128.84
6542,G4,758.25,0.125,60,128.84
6543,A3,758.375,0.125,60,128.84
6544,A4,758.375,0.125,60,128.84
6545,B-4,758.5,0.125,56,128.84
6546,B3,758.5,0.125,60,128.84
6547,B4,758.5,0.125,60,128.84
6548,C4,758.625,0.125,50,128.84
6549,C4,758.625,0.125,62,128.84
6550,C5,758.625,0.125,62,128.84
6551,E3,758.75,0.125,50,128.84
6552,D4,758.75,0.125,62,128.84
6553,D5,758.75,0.125,62,128.84
6554,F3,758.844,0.156,50,128.84
6555,C4,758.844,0.156,50,128.84
6556,E4,758.875,0.125,62,128.84
6557,E5,758.875,0.125,62,128.84
6558,A4,758.906,0.094,53,128.84
6559,A4,759.0,0.5,53,128.84
6560,F4,759.0,0.125,64,128.84
6561,F5,759.0,0.125,64,128.84
6562,F3,759.0,0.469,50,128.84
6563,C4,759.0,0.469,50,128.84
6564,G4,759.125,0.125,65,128.84
6565,G5,759.125,0.125,65,128.84
6566,A4,759.25,0.125,66,128.84
6567,A5,759.25,0.125,66,128.84
6568,B4,759.375,0.125,66,128.84
6569,B5,759.375,0.125,66,128.84
6570,C5,759.5,0.125,66,128.84
6571,C6,759.5,0.125,66,128.84
6572,D5,759.625,0.125,67,128.84
6573,D6,759.625,0.125,67,128.84
6574,E6,759.75,0.125,67,128.84
6575,E5,759.75,0.125,67,128.84
6576,G4,759.75,0.25,66,128.84
6577,G5,759.75,0.25,66,128.84
6578,F6,759.875,0.125,68,128.84
6579,F5,759.875,0.125,68,128.84
6580,G6,760.0,0.125,68,128.84
6581,G5,760.0,0.125,68,128.84
6582,A6,760.125,0.125,68,128.84
6583,A5,760.125,0.125,68,128.84
6584,B6,760.25,0.125,70,128.84
6585,B5,760.25,0.125,70,128.84
6586,F4,760.25,0.25,66,128.84
6587,F5,760.25,0.25,66,128.84
6588,C7,760.375,0.125,70,128.84
6589,C6,760.375,0.125,70,128.84
6590,D7,760.5,0.125,71,128.84
6591,D6,760.5,0.125,71,128.84
6592,E7,760.625,0.125,72,128.84
6593,E6,760.625,0.125,72,128.84
6594,F7,760.75,0.5,90,128.84
6595,F6,760.75,0.5,90,128.84
6596,D4,760.75,0.25,66,128.84
6597,D5,760.75,0.25,66,128.84
6598,G#5,761.25,0.5,92,128.84
6599,C#6,761.25,0.5,92,128.84
6600,F6,761.25,0.5,92,128.84
6601,F5,761.25,0.5,92,128.84
6602,C4,761.25,0.25,66,128.84
6603,C5,761.25,0.25,66,128.84
6604,E-6,761.75,0.188,88,128.84
6605,E-5,761.75,0.188,88,128.84
6606,A4,761.75,0.25,64,128.84
6607,A3,761.75,0.25,64,128.84
6608,F6,762.0,0.188,84,128.84
6609,F5,762.0,0.188,84,128.84
6610,C#6,762.25,0.5,84,128.84
6611,C#5,762.25,0.5,84,128.84
6612,G4,762.25,0.25,64,128.84
6613,G3,762.25,0.25,64,128.84
6614,C#4,762.75,0.5,89,128.84
6615,F4,762.75,0.25,64,128.84
6616,F3,762.75,0.25,64,128.84
6617,G#5,763.25,1.0,90,128.84
6618,C#6,763.25,1.0,90,128.84
6619,F6,763.25,1.0,90,128.84
6620,G#6,763.25,1.0,90,128.84
6621,D3,763.25,0.25,63,128.84
6622,D4,763.25,0.25,63,128.84
6623,C3,763.75,0.25,62,128.84
6624,C4,763.75,0.25,62,128.84
6625,B-5,764.25,0.5,83,128.84
6626,C#6,764.25,0.5,83,128.84
6627,F6,764.25,0.5,83,128.84
6628,B-6,764.25,0.5,83,128.84
6629,A2,764.25,0.25,60,128.84
6630,A3,764.25,0.25,60,128.84
6631,C#6,764.75,0.25,80,128.84
6632,F6,764.75,0.25,80,128.84
6633,G#5,764.75,0.25,80,128.84
6634,G#6,764.75,0.25,80,128.84
6635,G2,764.75,0.25,60,128.84
6636,G3,764.75,0.25,60,128.84
6637,G5,765.0,0.25,80,128.84
6638,G6,765.0,0.25,80,128.84
6639,F#5,765.25,0.25,79,128.84
6640,F#6,765.25,0.25,79,128.84
6641,F2,765.25,0.25,67,128.84
6642,F3,765.25,0.25,67,128.84
6643,F5,765.5,0.25,78,128.84
6644,F6,765.5,0.25,78,128.84
6645,E5,765.75,0.25,76,128.84
6646,E6,765.75,0.25,76,128.84
6647,E-5,766.0,0.25,76,128.84
6648,E-6,766.0,0.25,76,128.84
6649,D5,766.25,0.25,75,128.84
6650,D6,766.25,0.25,75,128.84
6651,C#5,766.5,0.25,74,128.84
6652,C#6,766.5,0.25,74,128.84
6653,F6,767.25,1.0,91,128.84
6654,F5,767.25,1.0,91,128.84
6655,G#5,767.25,1.0,91,128.84
6656,C#1,768.0,0.5,71,128.84
6657,C#2,768.0,0.5,71,128.84
6658,E-5,768.25,0.5,93,128.84
6659,F#5,768.25,0.5,93,128.84
6660,E-6,768.25,0.5,93,128.84
6661,G#3,768.5,0.5,81,128.84
6662,F3,768.5,0.5,81,128.84
6663,C#4,768.5,0.5,81,128.84
6664,F4,768.5,0.5,81,128.84
6665,E-5,768.75,0.25,86,128.84
6666,E-6,768.75,0.25,86,128.84
6667,D5,769.0,0.25,79,128.84
6668,D6,769.0,0.25,79,128.84
6669,E-3,769.0,0.188,76,128.84
6670,E-4,769.0,0.188,76,128.84
6671,C#5,769.25,0.25,80,128.84
6672,C#6,769.25,0.25,80,128.84
6673,F3,769.25,0.188,71,128.84
6674,F4,769.25,0.188,71,128.84
6675,C5,769.5,0.25,74,128.84
6676,C6,769.5,0.25,74,128.84
6677,C#3,769.5,0.5,67,128.84
6678,C#4,769.5,0.5,67,128.84
6679,C#5,769.75,0.25,79,128.84
6680,C#6,769.75,0.25,79,128.84
6681,C5,770.0,0.25,74,128.84
6682,C6,770.0,0.25,74,128.84
6683,C#2,770.0,0.5,72,128.84
6684,C#3,770.0,0.5,72,128.84
6685,B4,770.25,0.25,74,128.84
6686,B5,770.25,0.25,74,128.84
6687,B-4,770.5,0.25,74,128.84
6688,B-5,770.5,0.25,74,128.84
6689,C#4,770.5,1.0,78,128.84
6690,G#3,770.5,1.0,78,128.84
6691,F4,770.5,1.0,78,128.84
6692,G#4,770.5,1.0,78,128.84
6693,F5,771.25,1.0,86,128.84
6694,G#5,771.25,1.0,86,128.84
6695,G#4,771.25,1.0,86,128.84
6696,C#5,771.25,1.0,86,128.84
6697,C#4,771.5,0.5,66,128.84
6698,F4,771.5,0.5,66,128.84
6699,B-3,771.5,0.5,66,128.84
6700,B-4,771.5,0.5,66,128.84
6701,C#4,772.0,0.25,61,128.84
6702,F4,772.0,0.25,61,128.84
6703,G#4,772.0,0.25,61,128.84
6704,G#3,772.0,0.25,61,128.84
6705,F#5,772.25,0.5,80,128.84
6706,A4,772.25,0.5,80,128.84
6707,C5,772.25,0.5,80,128.84
6708,A5,772.25,0.5,80,128.84
6709,G3,772.25,0.25,64,128.84
6710,G4,772.25,0.25,64,128.84
6711,F#3,772.5,0.25,64,128.84
6712,F#4,772.5,0.25,64,128.84
6713,F#5,772.75,0.25,83,128.84
6714,C5,772.75,0.25,83,128.84
6715,A4,772.75,0.25,83,128.84
6716,A5,772.75,0.25,83,128.84
6717,F3,772.75,0.25,63,128.84
6718,F4,772.75,0.25,63,128.84
6719,B-4,773.0,0.25,79,128.84
6720,B-5,773.0,0.25,79,128.84
6721,E3,773.0,0.25,62,128.84
6722,E4,773.0,0.25,62,128.84
6723,B4,773.25,0.25,80,128.84
6724,B5,773.25,0.25,80,128.84
6725,E-3,773.25,0.25,61,128.84
6726,E-4,773.25,0.25,61,128.84
6727,C5,773.5,0.25,74,128.84
6728,C6,773.5,0.25,74,128.84
6729,D3,773.5,0.25,60,128.84
6730,D4,773.5,0.25,60,128.84
6731,F5,773.75,0.25,78,128.84
6732,B-4,773.75,0.25,78,128.84
6733,B-5,773.75,0.25,78,128.84
6734,C#3,773.75,0.25,59,128.84
6735,C#4,773.75,0.25,59,128.84
6736,C5,774.0,0.25,74,128.84
6737,C6,774.0,0.25,74,128.84
6738,C#2,774.0,0.5,88,128.84
6739,C#3,774.0,0.5,88,128.84
6740,C#5,774.25,0.25,74,128.84
6741,C#6,774.25,0.25,74,128.84
6742,F5,774.5,0.25,74,128.84
6743,F6,774.5,0.25,74,128.84
6744,C#4,774.5,1.0,82,128.84
6745,G#3,774.5,1.0,82,128.84
6746,F4,774.5,1.0,82,128.84
6747,G#4,774.5,1.0,82,128.84
6748,G#5,775.25,0.5,92,128.84
6749,F6,775.25,0.5,92,128.84
6750,G#6,775.25,0.5,92,128.84
6751,C4,775.5,0.5,76,128.84
6752,E-4,775.5,0.5,76,128.84
6753,A3,775.5,0.5,76,128.84
6754,F#4,775.5,0.5,76,128.84
6755,B-5,775.75,1.0,100,128.84
6756,E6,775.75,1.0,100,128.84
6757,B-6,775.75,1.0,100,128.84
6758,E-4,776.0,0.5,70,128.84
6759,F#4,776.0,0.5,70,128.84
6760,A3,776.0,0.5,70,128.84
6761,C#2,776.5,0.5,60,128.84
6762,C#3,776.5,0.5,60,128.84
6763,B5,776.75,0.25,95,128.84
6764,E6,776.75,0.25,95,128.84
6765,B6,776.75,0.25,95,128.84
6766,B-3,777.0,0.5,69,128.84
6767,C#4,777.0,0.5,69,128.84
6768,F4,777.0,0.5,69,128.84
6769,B3,777.125,0.625,61,128.84
6770,E4,777.188,0.562,63,128.84
6771,B4,777.25,0.5,72,128.84
6772,C#2,777.5,0.5,56,128.84
6773,C#3,777.5,0.5,56,128.84
6774,E-5,778.0,0.25,62,128.84
6775,B4,778.0,0.25,62,128.84
6776,G#4,778.0,0.25,62,128.84
6777,E4,778.0,0.25,62,128.84
6778,F1,778.0,0.5,86,128.84
6779,F2,778.0,0.5,86,128.84
6780,F#5,778.5,0.25,60,128.84
6781,F#4,778.5,0.25,60,128.84
6782,G#3,778.5,1.0,78,128.84
6783,F3,778.5,1.0,78,128.84
6784,C#4,778.5,1.0,78,128.84
6785,F4,778.5,1.0,78,128.84
6786,E-4,778.75,0.25,60,128.84
6787,F#4,778.75,0.25,60,128.84
6788,A4,778.75,0.25,60,128.84
6789,E-5,778.75,0.25,60,128.84
6790,C#4,779.25,0.25,56,128.84
6791,F#4,779.25,0.25,56,128.84
6792,A4,779.25,0.25,56,128.84
6793,C#5,779.25,0.25,56,128.84
6794,F#3,779.5,0.5,65,128.84
6795,C4,779.5,0.5,65,128.84
6796,E-3,779.5,0.5,65,128.84
6797,E-4,779.5,0.5,65,128.84
6798,A4,779.75,167/1000,62,128.84
6799,C#5,779.75,1.0,71,128.84
6800,F#4,779.917,167/1000,62,128.84
6801,C4,780.0,0.25,62,128.84
6802,F#3,780.0,0.25,62,128.84
6803,E-3,780.0,0.25,62,128.84
6804,E-4,780.0,0.25,62,128.84
6805,C#4,780.083,167/1000,62,128.84
6806,D3,780.25,0.25,60,128.84
6807,D4,780.25,0.25,60,128.84
6808,C#3,780.5,0.25,60,128.84
6809,C#4,780.5,0.25,60,128.84
6810,C3,780.75,0.25,60,128.84
6811,C4,780.75,0.25,60,128.84
6812,C#3,781.0,0.25,64,128.84
6813,C#4,781.0,0.25,64,128.84
6814,B3,781.25,167/1000,65,128.84
6815,C3,781.25,0.25,62,128.84
6816,C4,781.25,0.25,62,128.84
6817,E4,781.417,167/1000,59,128.84
6818,B-2,781.5,0.5,63,128.84
6819,B-3,781.5,0.5,63,128.84
6820,B4,781.583,167/1000,59,128.84
6821,G#4,781.583,167/1000,59,128.84
6822,E6,782.0,0.25,57,128.84
6823,B5,782.0,0.25,57,128.84
6824,G#5,782.0,0.25,57,128.84
6825,E5,782.0,0.25,57,128.84
6826,B-1,782.0,0.25,59,128.84
6827,B-2,782.0,0.25,59,128.84
6828,C2,782.25,0.25,60,128.84
6829,C3,782.25,0.25,60,128.84
6830,F#6,782.5,0.25,62,128.84
6831,F#5,782.5,0.25,62,128.84
6832,C#2,782.5,0.25,64,128.84
6833,C#3,782.5,0.25,64,128.84
6834,E-6,782.75,0.25,66,128.84
6835,A5,782.75,0.25,66,128.84
6836,F#5,782.75,0.25,66,128.84
6837,E-5,782.75,0.25,66,128.84
6838,F2,782.75,0.25,68,128.84
6839,F3,782.75,0.25,68,128.84
6840,G2,783.0,0.25,69,128.84
6841,G3,783.0,0.25,69,128.84
6842,C#6,783.25,0.25,54,128.84
6843,A5,783.25,0.25,54,128.84
6844,F#5,783.25,0.25,54,128.84
6845,C#5,783.25,0.25,54,128.84
6846,E2,783.25,0.25,69,128.84
6847,E3,783.25,0.25,69,128.84
6848,E-2,783.5,0.25,68,128.84
6849,E-3,783.5,0.25,68,128.84
6850,B-5,783.75,0.125,64,128.84
6851,C#6,783.75,1.0,72,128.84
6852,C#2,783.75,0.25,67,128.84
6853,C#3,783.75,0.25,67,128.84
6854,E5,783.875,0.125,61,128.84
6855,C#5,784.0,0.125,63,128.84
6856,B1,784.0,0.25,67,128.84
6857,B2,784.0,0.25,67,128.84
6858,B2,784.25,0.75,62,128.84
6859,G#3,784.312,0.688,63,128.84
6860,E-4,785.0,0.25,71,128.84
6861,G#2,785.25,0.25,76,128.84
6862,E4,785.5,0.25,66,128.84
6863,C#3,785.5,0.25,63,128.84
6864,G#3,785.5,0.25,63,128.84
6865,C#4,786.0,0.25,54,128.84
6866,G#3,786.0,0.25,54,128.84
6867,F3,786.0,0.25,54,128.84
6868,C#3,786.0,0.25,54,128.84
6869,C#4,786.25,0.25,56,128.84
6870,E-4,786.5,0.25,56,128.84
6871,E-3,786.5,0.25,56,128.84
6872,B3,786.75,0.25,53,128.84
6873,C4,786.75,0.25,61,128.84
6874,F#3,786.75,0.25,61,128.84
6875,E-3,786.75,0.25,61,128.84
6876,C3,786.75,0.25,61,128.84
6877,B-3,787.25,0.25,58,128.84
6878,B-2,787.25,0.25,58,128.84
6879,A3,787.5,167/1000,57,128.84
6880,B2,787.667,167/1000,51,128.84
6881,E3,787.75,0.25,63,128.84
6882,B-3,787.75,1.0,85,128.84
6883,E-2,787.833,167/1000,50,128.84
6884,B-2,788.0,0.25,59,128.84
6885,E2,788.0,167/1000,63,128.84
6886,B2,788.167,167/1000,52,128.84
6887,G#3,788.333,167/1000,52,128.84
6888,E-5,789.0,0.25,81,128.84
6889,D3,789.25,0.25,76,128.84
6890,E5,789.5,0.25,76,128.84
6891,B-3,789.5,0.25,63,128.84
6892,F4,789.5,0.25,63,128.84
6893,B-4,790.0,0.25,55,128.84
6894,F4,790.0,0.25,55,128.84
6895,D4,790.0,0.25,55,128.84
6896,B-3,790.0,0.25,55,128.84
6897,C#5,790.25,0.25,65,128.84
6898,C5,790.5,0.25,58,128.84
6899,C4,790.5,0.25,58,128.84
6900,B4,790.75,0.25,56,128.84
6901,A4,790.75,0.25,61,128.84
6902,E-4,790.75,0.25,61,128.84
6903,C4,790.75,0.25,61,128.84
6904,A3,790.75,0.25,61,128.84
6905,G4,791.25,0.25,58,128.84
6906,G3,791.25,0.25,58,128.84
6907,B-4,791.375,0.125,62,128.84
6908,E4,791.5,0.125,64,128.84
6909,C#4,791.625,0.125,66,128.84
6910,C#4,791.75,0.25,63,128.84
6911,G4,791.75,1.0,76,128.84
6912,G3,791.75,0.125,70,128.84
6913,E3,792.0,0.25,59,128.84
6914,G#1,792.0,0.25,70,128.84
6915,F2,792.25,0.25,63,128.84
6916,C3,793.0,0.25,85,128.84
6917,F3,793.25,0.25,76,128.84
6918,C#3,793.5,0.25,79,128.84
6919,C#4,793.5,0.25,63,128.84
6920,G#4,793.5,0.25,63,128.84
6921,C#5,794.0,0.25,55,128.84
6922,G#4,794.0,0.25,55,128.84
6923,F4,794.0,0.25,55,128.84
6924,C#4,794.0,0.25,55,128.84
6925,B-2,794.25,0.25,62,128.84
6926,E-5,794.5,0.25,58,128.84
6927,E-4,794.5,0.25,58,128.84
6928,G#2,794.75,0.25,58,128.84
6929,C5,794.75,0.25,61,128.84
6930,F#4,794.75,0.25,61,128.84
6931,E-4,794.75,0.25,61,128.84
6932,C4,794.75,0.25,61,128.84
6933,B-4,795.25,0.25,58,128.84
6934,B-3,795.25,0.25,58,128.84
6935,F#2,795.5,0.25,58,128.84
6936,E4,795.75,0.25,63,128.84
6937,B-4,795.75,1.0,85,128.84
6938,F#1,795.75,0.25,51,128.84
6939,B-3,796.0,0.25,59,128.84
6940,F1,796.0,0.25,70,128.84
6941,B-2,796.25,0.25,63,128.84
6942,A3,797.0,0.25,85,128.84
6943,D4,797.25,0.25,80,128.84
6944,B-3,797.5,0.25,79,128.84
6945,B-4,797.5,0.25,66,128.84
6946,F5,797.5,0.25,66,128.84
6947,B-4,798.0,0.25,60,128.84
6948,F5,798.0,0.25,60,128.84
6949,D5,798.0,0.25,60,128.84
6950,B-5,798.0,0.25,60,128.84
6951,G3,798.25,0.25,62,128.84
6952,C6,798.5,0.25,60,128.84
6953,C5,798.5,0.25,60,128.84
6954,F3,798.75,0.25,58,128.84
6955,A5,798.75,0.25,65,128.84
6956,E-5,798.75,0.25,65,128.84
6957,C5,798.75,0.25,65,128.84
6958,A4,798.75,0.25,65,128.84
6959,G5,799.25,0.25,62,128.84
6960,G4,799.25,0.25,62,128.84
6961,C#3,799.5,0.25,58,128.84
6962,C#5,799.75,0.25,67,128.84
6963,G5,799.75,1.0,90,128.84
6964,A1,799.75,0.25,51,128.84
6965,E4,800.0,0.25,61,128.84
6966,G#1,800.0,0.25,70,128.84
6967,C#3,800.25,0.25,63,128.84
6968,C4,801.0,0.25,85,128.84
6969,F4,801.25,0.25,89,128.84
6970,C#4,801.5,0.25,79,128.84
6971,C#5,801.5,0.25,73,128.84
6972,G#5,801.5,0.25,73,128.84
6973,C#5,802.0,0.25,66,128.84
6974,C#6,802.0,0.25,66,128.84
6975,B-3,802.25,0.25,62,128.84
6976,E-6,802.5,0.25,65,128.84
6977,E-5,802.5,0.25,65,128.84
6978,G#3,802.75,0.25,58,128.84
6979,C6,802.75,0.25,72,128.84
6980,F#5,802.75,0.25,72,128.84
6981,E-5,802.75,0.25,72,128.84
6982,C5,802.75,0.25,72,128.84
6983,B-5,803.25,0.25,65,128.84
6984,B-4,803.25,0.25,65,128.84
6985,F#3,803.5,0.25,58,128.84
6986,F#2,803.75,0.25,51,128.84
6987,D6,803.75,0.25,72,128.84
6988,G#5,803.75,0.25,72,128.84
6989,F5,803.75,0.25,72,128.84
6990,D5,803.75,0.25,72,128.84
6991,F2,804.0,0.25,73,128.84
6992,B-3,804.25,0.25,67,128.84
6993,C#6,804.25,0.25,66,128.84
6994,C#5,804.25,0.25,66,128.84
6995,E6,804.75,0.25,74,128.84
6996,B-5,804.75,0.25,74,128.84
6997,G5,804.75,0.25,74,128.84
6998,E5,804.75,0.25,74,128.84
6999,A4,805.0,0.25,89,128.84
7000,E-6,805.25,0.25,68,128.84
7001,E-5,805.25,0.25,68,128.84
7002,B-4,805.5,0.25,84,128.84
7003,F6,805.75,0.25,75,128.84
7004,B5,805.75,0.25,75,128.84
7005,G#5,805.75,0.25,75,128.84
7006,F5,805.75,0.25,75,128.84
7007,G4,806.25,0.25,66,128.84
7008,E-6,806.25,0.25,68,128.84
7009,E-5,806.25,0.25,68,128.84
7010,F4,806.75,0.25,60,128.84
7011,A5,806.75,0.25,76,128.84
7012,C#6,806.75,0.25,76,128.84
7013,E-6,806.75,0.25,76,128.84
7014,A6,806.75,0.25,76,128.84
7015,G#5,807.25,0.25,70,128.84
7016,G#6,807.25,0.25,70,128.84
7017,F#5,807.5,0.25,62,128.84
7018,F#6,807.5,0.25,62,128.84
7019,E3,807.5,0.25,59,128.84
7020,C#4,807.5,0.25,59,128.84
7021,A2,807.75,0.25,52,128.84
7022,C6,807.75,0.25,78,128.84
7023,E-6,807.75,0.25,78,128.84
7024,F#6,807.75,0.25,78,128.84
7025,C7,807.75,0.25,78,128.84
7026,C#3,808.0,0.25,77,128.84
7027,G#2,808.0,0.25,77,128.84
7028,C#4,808.25,0.25,75,128.84
7029,B-5,808.25,0.25,72,128.84
7030,B-6,808.25,0.25,72,128.84
7031,G#5,808.5,0.25,72,128.84
7032,G#6,808.5,0.25,72,128.84
7033,C#6,808.75,0.5,80,128.84
7034,F6,808.75,0.5,80,128.84
7035,C#7,808.75,0.5,80,128.84
7036,C5,809.0,0.25,94,128.84
7037,G#3,809.25,0.188,61,128.84
7038,C#4,809.25,0.188,61,128.84
7039,C#5,809.5,0.25,87,128.84
7040,G#3,809.5,0.188,54,128.84
7041,C#4,809.5,0.188,54,128.84
7042,G#2,810.0,0.25,61,128.84
7043,E-3,810.0,0.25,61,128.84
7044,F#3,810.0,0.25,61,128.84
7045,C4,810.0,0.25,61,128.84
7046,G#3,810.25,0.188,61,128.84
7047,C#4,810.25,0.188,61,128.84
7048,B-4,810.25,0.25,59,128.84
7049,B-3,810.25,0.25,59,128.84
7050,G#3,810.5,0.188,56,128.84
7051,C#4,810.5,0.188,56,128.84
7052,G#4,810.75,0.25,57,128.84
7053,G#3,810.75,0.25,57,128.84
7054,B3,811.25,0.188,61,128.84
7055,C#4,811.25,0.188,61,128.84
7056,C#5,811.25,0.25,59,128.84
7057,C#4,811.25,0.25,59,128.84
7058,B3,811.5,0.188,56,128.84
7059,C#4,811.5,0.188,56,128.84
7060,B4,811.75,0.25,57,128.84
7061,B3,811.75,0.25,57,128.84
7062,A3,812.25,0.188,61,128.84
7063,C#4,812.25,0.188,61,128.84
7064,E-5,812.25,0.25,59,128.84
7065,E-4,812.25,0.25,59,128.84
7066,A3,812.5,0.188,56,128.84
7067,C#4,812.5,0.188,56,128.84
7068,C#5,812.75,0.25,58,128.84
7069,C#4,812.75,0.25,58,128.84
7070,F#3,813.0,0.188,61,128.84
7071,B3,813.0,0.188,61,128.84
7072,E3,813.25,0.188,56,128.84
7073,B3,813.25,0.188,56,128.84
7074,E-5,813.25,0.25,61,128.84
7075,E-4,813.25,0.25,61,128.84
7076,D5,813.75,0.25,59,128.84
7077,D4,813.75,0.25,59,128.84
7078,A3,814.0,0.188,56,128.84
7079,B3,814.0,0.188,56,128.84
7080,G#3,814.0,0.25,63,128.84
7081,E-4,814.0,0.25,63,128.84
7082,F#4,814.0,0.25,63,128.84
7083,C#5,814.0,0.25,63,128.84
7084,G#5,814.25,0.25,67,128.84
7085,G#3,814.25,0.188,62,128.84
7086,B3,814.25,0.188,62,128.84
7087,F#3,815.0,0.188,56,128.84
7088,B3,815.0,0.188,56,128.84
7089,G#3,815.0,0.25,65,128.84
7090,E-4,815.0,0.25,65,128.84
7091,F#4,815.0,0.25,65,128.84
7092,C5,815.0,0.25,65,128.84
7093,B-5,815.25,0.25,67,128.84
7094,G#3,815.25,0.188,61,128.84
7095,B3,815.25,0.188,61,128.84
7096,A3,816.0,0.188,61,128.84
7097,B3,816.0,0.188,61,128.84
7098,F4,816.0,0.5,70,128.84
7099,B-4,816.0,0.5,70,128.84
7100,B-3,816.0,0.5,70,128.84
7101,A4,816.5,0.188,88,128.84
7102,A5,816.5,0.188,88,128.84
7103,E-5,816.5,0.188,88,128.84
7104,C#5,816.75,0.5,88,128.84
7105,F5,816.75,0.5,88,128.84
7106,C#6,816.75,0.5,88,128.84
7107,C#3,817.0,0.188,55,128.84
7108,F#3,817.0,0.188,55,128.84
7109,G#3,817.25,0.188,61,128.84
7110,C#4,817.25,0.188,61,128.84
7111,C#3,817.25,0.188,55,128.84
7112,F#3,817.25,0.188,55,128.84
7113,G#3,817.5,0.188,54,128.84
7114,C#4,817.5,0.188,54,128.84
7115,C#3,818.0,0.188,65,128.84
7116,A3,818.0,0.188,65,128.84
7117,G#3,818.25,0.188,61,128.84
7118,C#4,818.25,0.188,61,128.84
7119,C#3,818.25,0.188,61,128.84
7120,A3,818.25,0.188,61,128.84
7121,G#3,818.5,0.188,56,128.84
7122,C#4,818.5,0.188,56,128.84
7123,C#3,819.0,0.188,63,128.84
7124,G#3,819.0,0.188,63,128.84
7125,B3,819.25,0.188,61,128.84
7126,C#4,819.25,0.188,61,128.84
7127,C#3,819.25,0.188,61,128.84
7128,G#3,819.25,0.188,61,128.84
7129,B3,819.5,0.188,56,128.84
7130,C#4,819.5,0.188,56,128.84
7131,B2,820.0,0.188,63,128.84
7132,F#3,820.0,0.188,63,128.84
7133,A3,820.25,0.188,61,128.84
7134,C#4,820.25,0.188,61,128.84
7135,A3,820.5,0.188,56,128.84
7136,C#4,820.5,0.188,56,128.84
7137,B2,820.75,0.188,61,128.84
7138,E3,820.75,0.188,61,128.84
7139,F#3,821.0,0.188,61,128.84
7140,A3,821.0,0.188,61,128.84
7141,B2,821.0,0.188,63,128.84
7142,A3,821.0,0.188,63,128.84
7143,E3,821.25,0.188,56,128.84
7144,A3,821.25,0.188,56,128.84
7145,B2,821.75,0.188,61,128.84
7146,G#3,821.75,0.188,61,128.84
7147,G3,822.0,0.188,56,128.84
7148,A3,822.0,0.188,56,128.84
7149,B2,822.0,0.188,62,128.84
7150,F#3,822.0,0.188,62,128.84
7151,F#3,822.25,0.188,62,128.84
7152,A3,822.25,0.188,62,128.84
7153,B2,822.75,0.188,61,128.84
7154,G#3,822.75,0.188,61,128.84
7155,E3,823.0,0.188,56,128.84
7156,A3,823.0,0.188,56,128.84
7157,B2,823.0,0.188,61,128.84
7158,A3,823.0,0.188,61,128.84
7159,F#3,823.25,0.188,61,128.84
7160,A3,823.25,0.188,61,128.84
7161,F#2,823.5,0.188,61,128.84
7162,F#3,823.5,0.188,61,128.84
7163,G3,824.0,0.188,61,128.84
7164,A3,824.0,0.188,61,128.84
7165,C#2,824.0,0.5,73,128.84
7166,G#2,824.0,0.5,73,128.84
7167,C#3,824.0,0.5,73,128.84
7168,A3,824.5,0.188,90,128.84
7169,A4,824.5,0.188,90,128.84
7170,F#4,824.75,0.5,87,128.84
7171,A4,824.75,0.5,87,128.84
7172,D5,824.75,0.5,87,128.84
7173,F#5,824.75,0.5,87,128.84
7174,C#3,825.0,0.188,55,128.84
7175,F#3,825.0,0.188,55,128.84
7176,D4,825.25,0.188,61,128.84
7177,A4,825.25,0.188,61,128.84
7178,C#3,825.25,0.188,55,128.84
7179,F#3,825.25,0.188,55,128.84
7180,D4,825.5,0.188,54,128.84
7181,A4,825.5,0.188,54,128.84
7182,C#3,826.0,0.188,65,128.84
7183,A3,826.0,0.188,65,128.84
7184,D4,826.25,0.188,61,128.84
7185,A4,826.25,0.188,61,128.84
7186,C#3,826.25,0.188,61,128.84
7187,A3,826.25,0.188,61,128.84
7188,D4,826.5,0.188,56,128.84
7189,A4,826.5,0.188,56,128.84
7190,C#3,827.0,0.188,63,128.84
7191,G#3,827.0,0.188,63,128.84
7192,F#4,827.25,0.188,61,128.84
7193,A4,827.25,0.188,61,128.84
7194,C#3,827.25,0.188,61,128.84
7195,G#3,827.25,0.188,61,128.84
7196,F#4,827.5,0.188,56,128.84
7197,A4,827.5,0.188,56,128.84
7198,C#3,828.0,0.188,63,128.84
7199,F#3,828.0,0.188,63,128.84
7200,F#4,828.25,0.188,61,128.84
7201,C#4,828.25,0.188,61,128.84
7202,A4,828.25,0.188,61,128.84
7203,F#4,828.5,0.188,56,128.84
7204,C#4,828.5,0.188,56,128.84
7205,A4,828.5,0.188,56,128.84
7206,B4,828.75,0.5,87,128.84
7207,D5,828.75,0.5,87,128.84
7208,G5,828.75,0.5,87,128.84
7209,B5,828.75,0.5,87,128.84
7210,C#3,828.75,0.188,61,128.84
7211,E3,828.75,0.188,61,128.84
7212,C#3,829.0,0.188,63,128.84
7213,G3,829.0,0.188,63,128.84
7214,G4,829.25,0.188,61,128.84
7215,D5,829.25,0.188,61,128.84
7216,G4,829.5,0.188,54,128.84
7217,D5,829.5,0.188,54,128.84
7218,C#3,829.75,0.188,61,128.84
7219,F#3,829.75,0.188,61,128.84
7220,C#3,830.0,0.188,62,128.84
7221,E3,830.0,0.188,62,128.84
7222,G4,830.25,0.188,61,128.84
7223,D5,830.25,0.188,61,128.84
7224,G4,830.5,0.188,56,128.84
7225,D5,830.5,0.188,56,128.84
7226,C#3,830.75,0.188,61,128.84
7227,F#3,830.75,0.188,61,128.84
7228,C#3,831.0,0.188,61,128.84
7229,G3,831.0,0.188,61,128.84
7230,B4,831.25,0.188,61,128.84
7231,D5,831.25,0.188,61,128.84
7232,C#2,831.5,0.5,61,128.84
7233,C#3,831.5,0.188,61,128.84
7234,B4,831.5,0.188,56,128.84
7235,D5,831.5,0.188,56,128.84
7236,C#2,832.0,0.5,61,128.84
7237,C#3,832.0,0.5,72,128.84
7238,F#3,832.0,0.5,72,128.84
7239,A3,832.0,0.5,72,128.84
7240,D4,832.0,0.5,72,128.84
7241,B4,832.25,0.5,61,128.84
7242,F#4,832.25,0.5,61,128.84
7243,D5,832.25,0.5,61,128.84
7244,F3,832.75,0.75,65,128.84
7245,F4,832.75,0.75,65,128.84
7246,B3,833.0,0.25,62,128.84
7247,C#4,833.0,0.25,62,128.84
7248,F#3,833.0,0.188,55,128.84
7249,C#4,833.0,0.188,55,128.84
7250,F#3,833.25,0.188,55,128.84
7251,C#4,833.25,0.188,55,128.84
7252,F#3,833.5,0.25,63,128.84
7253,F#4,833.5,0.25,63,128.84
7254,G4,833.75,0.75,67,128.84
7255,G3,833.75,0.75,67,128.84
7256,C#4,834.0,0.25,63,128.84
7257,F4,834.0,0.25,63,128.84
7258,F#3,834.0,0.188,65,128.84
7259,E4,834.0,0.188,65,128.84
7260,F#3,834.25,0.188,61,128.84
7261,E4,834.25,0.188,61,128.84
7262,G#3,834.5,0.25,66,128.84
7263,G#4,834.5,0.25,66,128.84
7264,A3,834.75,0.75,72,128.84
7265,A4,834.75,0.75,72,128.84
7266,C#4,835.0,0.25,66,128.84
7267,F#4,835.0,0.25,66,128.84
7268,F#3,835.0,0.188,63,128.84
7269,D4,835.0,0.188,63,128.84
7270,F#3,835.25,0.188,61,128.84
7271,D4,835.25,0.188,61,128.84
7272,B3,835.5,0.25,71,128.84
7273,B4,835.5,0.25,71,128.84
7274,C4,835.75,0.75,76,128.84
7275,C5,835.75,0.75,76,128.84
7276,F#4,836.0,0.25,67,128.84
7277,B-4,836.0,0.25,67,128.84
7278,C#3,836.0,0.5,72,128.84
7279,G3,836.0,0.5,72,128.84
7280,B3,836.0,0.5,72,128.84
7281,D4,836.0,0.5,72,128.84
7282,C#4,836.5,0.25,74,128.84
7283,C#5,836.5,0.25,74,128.84
7284,D4,836.75,0.75,80,128.84
7285,D5,836.75,0.75,80,128.84
7286,A4,837.0,0.25,72,128.84
7287,F#4,837.0,0.25,72,128.84
7288,B3,837.0,0.188,55,128.84
7289,F#4,837.0,0.188,55,128.84
7290,B3,837.25,0.188,55,128.84
7291,F#4,837.25,0.188,55,128.84
7292,E4,837.5,0.25,76,128.84
7293,E5,837.5,0.25,76,128.84
7294,F4,837.75,0.75,84,128.84
7295,F5,837.75,0.75,84,128.84
7296,A4,838.0,0.25,75,128.84
7297,C5,838.0,0.25,75,128.84
7298,B3,838.0,0.188,65,128.84
7299,A4,838.0,0.188,65,128.84
7300,B3,838.25,0.188,61,128.84
7301,A4,838.25,0.188,61,128.84
7302,F#4,838.5,0.25,81,128.84
7303,F#5,838.5,0.25,81,128.84
7304,G#4,838.75,0.75,87,128.84
7305,G#5,838.75,0.75,87,128.84
7306,E-5,839.0,0.25,80,128.84
7307,F#5,839.0,0.25,80,128.84
7308,B3,839.0,0.188,63,128.84
7309,G4,839.0,0.188,63,128.84
7310,B3,839.25,0.188,61,128.84
7311,G4,839.25,0.188,61,128.84
7312,B-4,839.5,0.25,85,128.84
7313,B-5,839.5,0.25,85,128.84
7314,B4,839.75,0.75,92,128.84
7315,B5,839.75,0.75,92,128.84
7316,E-5,840.0,0.25,84,128.84
7317,F#5,840.0,0.25,84,128.84
7318,C5,840.5,0.25,90,128.84
7319,C6,840.5,0.25,90,128.84
7320,C#2,840.5,0.25,52,128.84
7321,G#2,840.5,0.25,52,128.84
7322,C#3,840.5,0.25,52,128.84
7323,C#5,840.75,0.5,99,128.84
7324,F5,840.75,0.5,99,128.84
7325,C#6,840.75,0.5,99,128.84
7326,C#5,841.5,0.25,50,128.84
7327,G#4,841.5,0.25,50,128.84
7328,C#4,841.5,0.25,50,128.84
7329,B4,841.5,0.25,55,128.84
7330,C#5,841.5,0.25,55,128.84
7331,F5,841.5,0.25,55,128.84
7332,B4,842.0,0.25,51,128.84
7333,G#4,842.0,0.25,51,128.84
7334,B3,842.0,0.25,51,128.84
7335,C#5,842.5,0.25,52,128.84
7336,G#4,842.5,0.25,52,128.84
7337,C#4,842.5,0.25,52,128.84
7338,C#3,842.5,0.25,54,128.84
7339,F#3,842.5,0.25,54,128.84
7340,D5,843.0,0.25,55,128.84
7341,F#4,843.0,0.25,55,128.84
7342,D4,843.0,0.25,55,128.84
7343,E5,843.5,0.25,53,128.84
7344,E4,843.5,0.25,53,128.84
7345,F#4,843.5,0.25,53,128.84
7346,A5,843.5,0.25,58,128.84
7347,F#5,843.5,0.25,58,128.84
7348,C#5,844.0,0.25,53,128.84
7349,F#4,844.0,0.25,53,128.84
7350,C#4,844.0,0.25,53,128.84
7351,D5,844.5,0.25,51,128.84
7352,F#4,844.5,0.25,51,128.84
7353,D4,844.5,0.25,51,128.84
7354,C4,844.5,0.25,56,128.84
7355,A3,844.5,0.25,56,128.84
7356,F#3,844.5,0.25,56,128.84
7357,C#3,844.5,0.25,56,128.84
7358,B4,845.0,0.25,55,128.84
7359,E4,845.0,0.25,55,128.84
7360,B3,845.0,0.25,55,128.84
7361,A4,845.25,0.25,51,128.84
7362,E4,845.25,0.25,51,128.84
7363,A3,845.25,0.25,51,128.84
7364,D6,845.5,0.25,63,128.84
7365,C6,845.5,0.25,63,128.84
7366,A5,845.5,0.25,63,128.84
7367,D4,846.0,0.25,55,128.84
7368,E4,846.0,0.25,55,128.84
7369,D5,846.0,0.25,55,128.84
7370,C#5,846.25,0.25,51,128.84
7371,E4,846.25,0.25,51,128.84
7372,C#4,846.25,0.25,51,128.84
7373,C4,846.5,0.25,59,128.84
7374,G#3,846.5,0.25,59,128.84
7375,F#3,846.5,0.25,59,128.84
7376,C#3,846.5,0.25,59,128.84
7377,B3,847.0,0.25,52,128.84
7378,E4,847.0,0.25,52,128.84
7379,B4,847.0,0.25,52,128.84
7380,C#4,847.25,0.25,49,128.84
7381,E4,847.25,0.25,49,128.84
7382,C#5,847.25,0.25,49,128.84
7383,G#6,847.5,0.25,70,128.84
7384,F#6,847.5,0.25,70,128.84
7385,E-6,847.5,0.25,70,128.84
7386,D4,848.0,0.25,55,128.84
7387,E4,848.0,0.25,55,128.84
7388,D5,848.0,0.25,55,128.84
7389,C#2,848.0,0.5,82,128.84
7390,G#2,848.0,0.5,82,128.84
7391,C#3,848.0,0.5,82,128.84
7392,G#4,848.5,0.25,73,128.84
7393,F#5,848.5,0.25,73,128.84
7394,G#5,848.5,0.25,73,128.84
7395,G#3,848.5,0.25,55,128.84
7396,C#4,848.5,0.25,55,128.84
7397,C#5,848.75,0.5,88,128.84
7398,F5,848.75,0.5,88,128.84
7399,C#6,848.75,0.5,88,128.84
7400,B3,849.0,0.25,53,128.84
7401,G#3,849.0,0.25,53,128.84
7402,C#5,849.5,0.25,50,128.84
7403,G#4,849.5,0.25,50,128.84
7404,C#4,849.5,0.25,50,128.84
7405,G#3,849.5,0.25,55,128.84
7406,C#4,849.5,0.25,55,128.84
7407,B4,850.0,0.25,51,128.84
7408,G#4,850.0,0.25,51,128.84
7409,B3,850.0,0.25,51,128.84
7410,F#3,850.0,0.25,61,128.84
7411,D4,850.0,0.25,61,128.84
7412,C#5,850.5,0.25,52,128.84
7413,G#4,850.5,0.25,52,128.84
7414,C#4,850.5,0.25,52,128.84
7415,E4,850.5,0.25,55,128.84
7416,F#3,850.5,0.25,55,128.84
7417,D5,851.0,0.25,55,128.84
7418,F#4,851.0,0.25,55,128.84
7419,D4,851.0,0.25,55,128.84
7420,C#4,851.0,0.25,61,128.84
7421,F#3,851.0,0.25,61,128.84
7422,E5,851.5,0.25,53,128.84
7423,E4,851.5,0.25,53,128.84
7424,F#4,851.5,0.25,53,128.84
7425,D4,851.5,0.25,55,128.84
7426,F#3,851.5,0.25,55,128.84
7427,C#5,852.0,0.25,53,128.84
7428,F#4,852.0,0.25,53,128.84
7429,C#4,852.0,0.25,53,128.84
7430,E3,852.0,0.25,63,128.84
7431,B3,852.0,0.25,63,128.84
7432,D5,852.5,0.25,51,128.84
7433,F#4,852.5,0.25,51,128.84
7434,D4,852.5,0.25,51,128.84
7435,E3,852.75,0.25,52,128.84
7436,A3,852.75,0.25,52,128.84
7437,B4,853.0,0.25,55,128.84
7438,E4,853.0,0.25,55,128.84
7439,B3,853.0,0.25,55,128.84
7440,E3,853.0,0.25,63,128.84
7441,D4,853.0,0.25,63,128.84
7442,A4,853.25,0.25,51,128.84
7443,E4,853.25,0.25,51,128.84
7444,A3,853.25,0.25,51,128.84
7445,E3,853.75,0.25,51,128.84
7446,C#4,853.75,0.25,51,128.84
7447,C4,854.0,0.25,55,128.84
7448,E4,854.0,0.25,55,128.84
7449,C5,854.0,0.25,55,128.84
7450,E3,854.0,0.25,62,128.84
7451,B3,854.0,0.25,62,128.84
7452,B4,854.25,0.25,51,128.84
7453,E4,854.25,0.25,51,128.84
7454,B3,854.25,0.25,51,128.84
7455,E3,854.75,0.25,55,128.84
7456,C#4,854.75,0.25,55,128.84
7457,A3,855.0,0.25,52,128.84
7458,E4,855.0,0.25,52,128.84
7459,A4,855.0,0.25,52,128.84
7460,E3,855.0,0.25,63,128.84
7461,D4,855.0,0.25,63,128.84
7462,B3,855.25,0.25,49,128.84
7463,E4,855.25,0.25,49,128.84
7464,B4,855.25,0.25,49,128.84
7465,D2,855.5,0.25,62,128.84
7466,G#2,855.5,0.25,62,128.84
7467,D3,855.5,0.25,62,128.84
7468,C4,856.0,0.25,55,128.84
7469,D4,856.0,0.25,55,128.84
7470,C5,856.0,0.25,55,128.84
7471,C#2,856.0,0.5,73,128.84
7472,G#2,856.0,0.5,73,128.84
7473,C#3,856.0,0.5,73,128.84
7474,F#4,856.5,0.25,73,128.84
7475,D4,856.5,0.25,73,128.84
7476,C5,856.5,0.25,73,128.84
7477,D5,856.5,0.25,73,128.84
7478,G#3,856.5,0.25,55,128.84
7479,C#4,856.5,0.25,55,128.84
7480,B4,856.75,0.5,87,128.84
7481,D5,856.75,0.5,87,128.84
7482,G5,856.75,0.5,87,128.84
7483,B5,856.75,0.5,87,128.84
7484,B3,857.0,0.25,53,128.84
7485,G#3,857.0,0.25,53,128.84
7486,G4,857.25,0.188,61,128.84
7487,D5,857.25,0.188,61,128.84
7488,G4,857.5,0.188,54,128.84
7489,D5,857.5,0.188,54,128.84
7490,G#3,857.5,0.25,55,128.84
7491,C#4,857.5,0.25,55,128.84
7492,F#3,858.0,0.25,61,128.84
7493,D4,858.0,0.25,61,128.84
7494,G4,858.25,0.188,61,128.84
7495,D5,858.25,0.188,61,128.84
7496,G4,858.5,0.188,56,128.84
7497,D5,858.5,0.188,56,128.84
7498,E4,858.5,0.25,55,128.84
7499,F#3,858.5,0.25,55,128.84
7500,C#4,859.0,0.25,61,128.84
7501,F#3,859.0,0.25,61,128.84
7502,B4,859.25,0.188,61,128.84
7503,D5,859.25,0.188,61,128.84
7504,B4,859.5,0.188,56,128.84
7505,D5,859.5,0.188,56,128.84
7506,D4,859.5,0.25,55,128.84
7507,F#3,859.5,0.25,55,128.84
7508,E3,860.0,0.25,63,128.84
7509,B3,860.0,0.25,63,128.84
7510,B4,860.25,0.188,61,128.84
7511,F#4,860.25,0.188,61,128.84
7512,D5,860.25,0.188,61,128.84
7513,B4,860.5,0.188,56,128.84
7514,F#4,860.5,0.188,56,128.84
7515,D5,860.5,0.188,56,128.84
7516,E5,860.75,0.5,87,128.84
7517,G5,860.75,0.5,87,128.84
7518,C6,860.75,0.5,87,128.84
7519,E6,860.75,0.5,87,128.84
7520,E3,860.75,0.25,52,128.84
7521,A3,860.75,0.25,52,128.84
7522,E3,861.0,0.25,63,128.84
7523,C4,861.0,0.25,63,128.84
7524,C5,861.25,0.188,61,128.84
7525,G5,861.25,0.188,61,128.84
7526,C5,861.5,0.188,54,128.84
7527,G5,861.5,0.188,54,128.84
7528,E3,861.75,0.25,51,128.84
7529,B3,861.75,0.25,51,128.84
7530,E3,862.0,0.25,62,128.84
7531,A3,862.0,0.25,62,128.84
7532,C5,862.25,0.188,61,128.84
7533,G5,862.25,0.188,61,128.84
7534,C5,862.5,0.188,56,128.84
7535,G5,862.5,0.188,56,128.84
7536,E3,862.75,0.25,55,128.84
7537,B3,862.75,0.25,55,128.84
7538,D3,863.0,0.25,63,128.84
7539,C4,863.0,0.25,63,128.84
7540,E5,863.25,0.188,61,128.84
7541,G5,863.25,0.188,61,128.84
7542,E5,863.5,0.188,56,128.84
7543,G5,863.5,0.188,56,128.84
7544,D2,863.5,0.25,62,128.84
7545,D3,863.5,0.25,62,128.84
7546,G1,864.0,0.5,73,128.84
7547,D2,864.0,0.5,73,128.84
7548,G2,864.0,0.5,73,128.84
7549,E5,864.25,0.5,61,128.84
7550,B4,864.25,0.5,61,128.84
7551,G5,864.25,0.5,61,128.84
7552,B-3,864.75,0.75,65,128.84
7553,B-4,864.75,0.75,65,128.84
7554,E4,865.0,0.25,62,128.84
7555,F#4,865.0,0.25,62,128.84
7556,B3,865.0,0.188,55,128.84
7557,F#4,865.0,0.188,55,128.84
7558,B3,865.25,0.188,55,128.84
7559,F#4,865.25,0.188,55,128.84
7560,B3,865.5,0.25,64,128.84
7561,B4,865.5,0.25,64,128.84
7562,C5,865.75,0.75,70,128.84
7563,C4,865.75,0.75,70,128.84
7564,F#4,866.0,0.25,65,128.84
7565,B-4,866.0,0.25,65,128.84
7566,B3,866.0,0.188,65,128.84
7567,A4,866.0,0.188,65,128.84
7568,B3,866.25,0.188,61,128.84
7569,A4,866.25,0.188,61,128.84
7570,C#4,866.5,0.25,70,128.84
7571,C#5,866.5,0.25,70,128.84
7572,D4,866.75,0.75,74,128.84
7573,D5,866.75,0.75,74,128.84
7574,F#4,867.0,0.25,70,128.84
7575,B4,867.0,0.25,70,128.84
7576,B3,867.0,0.188,63,128.84
7577,G4,867.0,0.188,63,128.84
7578,B3,867.25,0.188,61,128.84
7579,G4,867.25,0.188,61,128.84
7580,E4,867.5,0.25,73,128.84
7581,E5,867.5,0.25,73,128.84
7582,F4,867.75,0.75,80,128.84
7583,F5,867.75,0.75,80,128.84
7584,B4,868.0,0.25,73,128.84
7585,D5,868.0,0.25,73,128.84
7586,E2,868.0,0.5,72,128.84
7587,G2,868.0,0.5,72,128.84
7588,C3,868.0,0.5,72,128.84
7589,E3,868.0,0.5,72,128.84
7590,F#4,868.5,0.25,78,128.84
7591,F#5,868.5,0.25,78,128.84
7592,G#4,868.75,0.75,84,128.84
7593,G#5,868.75,0.75,84,128.84
7594,E5,869.0,0.25,78,128.84
7595,D5,869.0,0.25,78,128.84
7596,E4,869.0,0.188,55,128.84
7597,B4,869.0,0.188,55,128.84
7598,E4,869.25,0.188,55,128.84
7599,B4,869.25,0.188,55,128.84
7600,A4,869.5,0.25,81,128.84
7601,A5,869.5,0.25,81,128.84
7602,B-4,869.75,0.75,89,128.84
7603,B-5,869.75,0.75,89,128.84
7604,D5,870.0,0.25,79,128.84
7605,G#5,870.0,0.25,79,128.84
7606,E4,870.0,0.188,65,128.84
7607,D5,870.0,0.188,65,128.84
7608,E4,870.25,0.188,61,128.84
7609,D5,870.25,0.188,61,128.84
7610,B4,870.5,0.25,87,128.84
7611,B5,870.5,0.25,87,128.84
7612,C5,870.75,0.75,94,128.84
7613,C6,870.75,0.75,94,128.84
7614,F#5,871.0,0.25,86,128.84
7615,G#5,871.0,0.25,86,128.84
7616,E4,871.0,0.188,63,128.84
7617,C5,871.0,0.188,63,128.84
7618,E4,871.25,0.188,61,128.84
7619,C5,871.25,0.188,61,128.84
7620,C#5,871.5,0.25,93,128.84
7621,C#6,871.5,0.25,93,128.84
7622,E-5,871.75,0.75,100,128.84
7623,E-6,871.75,0.75,100,128.84
7624,G#5,872.0,0.25,92,128.84
7625,C6,872.0,0.25,92,128.84
7626,E5,872.5,0.25,99,128.84
7627,E6,872.5,0.25,99,128.84
7628,C#3,872.5,0.25,54,128.84
7629,F#3,872.5,0.25,54,128.84
7630,G#5,873.25,0.5,100,128.84
7631,C#6,873.25,0.5,100,128.84
7632,F6,873.25,0.5,100,128.84
7633,F5,873.25,0.5,100,128.84
7634,E5,873.5,0.25,58,128.84
7635,F#5,873.5,0.25,58,128.84
7636,B-5,873.5,0.25,58,128.84
7637,E-6,873.75,0.188,94,128.84
7638,E-5,873.75,0.188,94,128.84
7639,F6,874.0,0.188,88,128.84
7640,F5,874.0,0.188,88,128.84
7641,C#6,874.25,0.5,88,128.84
7642,C#5,874.25,0.5,88,128.84
7643,C#3,874.5,0.25,56,128.84
7644,F#3,874.5,0.25,56,128.84
7645,B3,874.5,0.25,56,128.84
7646,B-5,875.25,1.0,83,128.84
7647,E6,875.25,1.0,83,128.84
7648,B-6,875.25,1.0,83,128.84
7649,D6,875.5,0.25,63,128.84
7650,B5,875.5,0.25,63,128.84
7651,C6,876.25,0.5,75,128.84
7652,E6,876.25,0.5,75,128.84
7653,C7,876.25,0.5,75,128.84
7654,E4,876.5,0.25,60,128.84
7655,B3,876.5,0.25,60,128.84
7656,G#3,876.5,0.25,60,128.84
7657,C#3,876.5,0.25,60,128.84
7658,C#6,876.75,0.25,78,128.84
7659,F6,876.75,0.25,78,128.84
7660,G#5,876.75,0.25,78,128.84
7661,G#6,876.75,0.25,78,128.84
7662,G5,877.0,0.25,78,128.84
7663,G6,877.0,0.25,78,128.84
7664,F#5,877.25,0.25,77,128.84
7665,F#6,877.25,0.25,77,128.84
7666,F5,877.5,0.25,76,128.84
7667,F6,877.5,0.25,76,128.84
7668,E6,877.5,0.25,70,128.84
7669,D6,877.5,0.25,70,128.84
7670,E5,877.75,0.25,76,128.84
7671,E6,877.75,0.25,76,128.84
7672,F5,878.0,0.25,74,128.84
7673,F6,878.0,0.25,74,128.84
7674,E-5,878.25,0.25,74,128.84
7675,E-6,878.25,0.25,74,128.84
7676,C#5,878.5,0.25,72,128.84
7677,C#6,878.5,0.25,72,128.84
7678,E-4,878.5,0.25,66,128.84
7679,G#3,878.5,0.25,66,128.84
7680,C#3,878.5,0.25,66,128.84
7681,F5,879.25,1.0,85,128.84
7682,A5,879.25,1.0,85,128.84
7683,F6,879.25,1.0,85,128.84
7684,G#6,879.5,0.25,83,128.84
7685,F#6,879.5,0.25,83,128.84
7686,C#1,880.0,0.5,88,128.84
7687,C#2,880.0,0.5,88,128.84
7688,E-5,880.25,0.5,80,128.84
7689,E-6,880.25,0.5,80,128.84
7690,C#3,880.5,0.5,77,128.84
7691,G#2,880.5,0.5,77,128.84
7692,G#3,880.5,0.5,77,128.84
7693,F#5,880.75,0.25,78,128.84
7694,E-5,880.75,0.25,78,128.84
7695,E-6,880.75,0.25,78,128.84
7696,D5,881.0,0.25,80,128.84
7697,D6,881.0,0.25,80,128.84
7698,C#3,881.0,0.5,63,128.84
7699,G#3,881.0,0.5,63,128.84
7700,C#4,881.0,0.5,63,128.84
7701,C#5,881.25,0.25,78,128.84
7702,C#6,881.25,0.25,78,128.84
7703,C5,881.5,0.25,76,128.84
7704,C6,881.5,0.25,76,128.84
7705,G#3,881.5,0.5,63,128.84
7706,C#4,881.5,0.5,63,128.84
7707,F3,881.5,0.5,63,128.84
7708,F4,881.5,0.5,63,128.84
7709,C#5,881.75,0.25,70,128.84
7710,C#6,881.75,0.25,70,128.84
7711,C5,882.0,0.25,68,128.84
7712,C6,882.0,0.25,68,128.84
7713,C#2,882.0,0.25,69,128.84
7714,C#3,882.0,0.25,69,128.84
7715,F#5,882.25,0.5,67,128.84
7716,B-4,882.25,0.5,67,128.84
7717,B-5,882.25,0.5,67,128.84
7718,E2,882.25,0.25,66,128.84
7719,E3,882.25,0.25,66,128.84
7720,G2,882.5,0.25,66,128.84
7721,G3,882.5,0.25,66,128.84
7722,B-2,882.75,0.25,68,128.84
7723,B-3,882.75,0.25,68,128.84
7724,C#3,883.0,0.25,68,128.84
7725,C#4,883.0,0.25,68,128.84
7726,B-5,883.25,1.0,86,128.84
7727,E6,883.25,1.0,86,128.84
7728,B-6,883.25,1.0,86,128.84
7729,E3,883.25,0.25,70,128.84
7730,E4,883.25,0.25,70,128.84
7731,G3,883.5,0.5,70,128.84
7732,G4,883.5,0.5,70,128.84
7733,C#1,884.0,0.5,85,128.84
7734,C#2,884.0,0.5,85,128.84
7735,C6,884.25,0.5,78,128.84
7736,E6,884.25,0.5,78,128.84
7737,C7,884.25,0.5,78,128.84
7738,C#4,884.5,1.0,77,128.84
7739,F4,884.5,1.0,77,128.84
7740,G#4,884.5,1.0,77,128.84
7741,G#3,884.5,1.0,77,128.84
7742,C#6,884.75,0.25,78,128.84
7743,F6,884.75,0.25,78,128.84
7744,G#5,884.75,0.25,78,128.84
7745,G#6,884.75,0.25,78,128.84
7746,G5,885.0,0.25,78,128.84
7747,G6,885.0,0.25,78,128.84
7748,F#5,885.25,0.25,78,128.84
7749,F#6,885.25,0.25,78,128.84
7750,F5,885.5,0.25,77,128.84
7751,F6,885.5,0.25,77,128.84
7752,G#3,885.5,0.5,64,128.84
7753,C#4,885.5,0.5,64,128.84
7754,F3,885.5,0.5,64,128.84
7755,F4,885.5,0.5,64,128.84
7756,E5,885.75,0.25,76,128.84
7757,E6,885.75,0.25,76,128.84
7758,F5,886.0,0.25,76,128.84
7759,F6,886.0,0.25,76,128.84
7760,C#2,886.0,0.25,64,128.84
7761,C#3,886.0,0.25,64,128.84
7762,E-5,886.25,0.25,75,128.84
7763,E-6,886.25,0.25,75,128.84
7764,F#2,886.25,0.25,59,128.84
7765,F#3,886.25,0.25,59,128.84
7766,C#5,886.5,0.25,73,128.84
7767,C#6,886.5,0.25,73,128.84
7768,A2,886.5,0.25,60,128.84
7769,A3,886.5,0.25,60,128.84
7770,G4,886.75,0.25,74,128.84
7771,G5,886.75,0.25,74,128.84
7772,C3,886.75,0.25,60,128.84
7773,C4,886.75,0.25,60,128.84
7774,G#4,887.0,0.25,67,128.84
7775,G#5,887.0,0.25,67,128.84
7776,E-3,887.0,0.25,61,128.84
7777,E-4,887.0,0.25,61,128.84
7778,F#4,887.25,0.25,74,128.84
7779,F#5,887.25,0.25,74,128.84
7780,F#3,887.25,0.25,63,128.84
7781,F#4,887.25,0.25,63,128.84
7782,F4,887.5,0.25,67,128.84
7783,F5,887.5,0.25,67,128.84
7784,A3,887.5,0.5,64,128.84
7785,A4,887.5,0.5,64,128.84
7786,E4,887.75,0.25,74,128.84
7787,E5,887.75,0.25,74,128.84
7788,F4,888.0,0.25,68,128.84
7789,F5,888.0,0.25,68,128.84
7790,C#1,888.0,0.5,87,128.84
7791,C#2,888.0,0.5,87,128.84
7792,E-4,888.25,0.25,74,128.84
7793,E-5,888.25,0.25,74,128.84
7794,C#4,888.5,0.25,67,128.84
7795,C#5,888.5,0.25,67,128.84
7796,E-4,888.5,1.0,71,128.84
7797,F#4,888.5,1.0,71,128.84
7798,A3,888.5,1.0,71,128.84
7799,G4,888.75,0.25,73,128.84
7800,G#4,889.0,0.25,63,128.84
7801,F#4,889.25,0.25,71,128.84
7802,F4,889.5,0.25,64,128.84
7803,C#4,889.5,0.5,66,128.84
7804,B-3,889.5,0.5,66,128.84
7805,F#4,889.5,0.5,66,128.84
7806,E4,889.75,0.25,71,128.84
7807,F4,890.0,0.25,60,128.84
7808,C#2,890.0,0.25,69,128.84
7809,C#3,890.0,0.25,69,128.84
7810,E-4,890.25,0.25,65,128.84
7811,E2,890.25,0.25,66,128.84
7812,E3,890.25,0.25,66,128.84
7813,C#4,890.5,0.25,60,128.84
7814,G2,890.5,0.25,66,128.84
7815,G3,890.5,0.25,66,128.84
7816,B-2,890.75,0.25,68,128.84
7817,B-3,890.75,0.25,68,128.84
7818,C#3,891.0,0.25,68,128.84
7819,C#4,891.0,0.25,68,128.84
7820,F4,891.25,1.0,62,128.84
7821,F#3,891.25,1.5,51,128.84
7822,B-3,891.25,1.5,51,128.84
7823,E3,891.25,0.25,70,128.84
7824,E4,891.25,0.25,70,128.84
7825,G3,891.5,0.5,70,128.84
7826,G4,891.5,0.5,70,128.84
7827,G#3,892.0,0.5,78,128.84
7828,C#4,892.0,0.5,78,128.84
7829,F4,892.0,0.5,78,128.84
7830,G#4,892.0,0.5,78,128.84
7831,E-4,892.25,0.5,52,128.84
7832,G#2,892.5,0.5,82,128.84
7833,G#1,892.5,0.5,82,128.84
7834,F#3,892.75,0.5,52,128.84
7835,E-4,892.75,0.25,52,128.84
7836,D4,893.0,0.25,51,128.84
7837,E4,893.0,0.25,66,128.84
7838,C#4,893.25,0.25,51,128.84
7839,F4,893.25,0.25,61,128.84
7840,C4,893.5,0.25,50,128.84
7841,E-4,893.5,0.25,66,128.84
7842,F#3,893.75,0.5,53,128.84
7843,C#4,893.75,0.25,53,128.84
7844,C#4,893.75,0.25,62,128.84
7845,C4,894.0,0.25,52,128.84
7846,G3,894.0,0.25,67,128.84
7847,B3,894.25,0.25,51,128.84
7848,G#3,894.25,0.25,61,128.84
7849,B-3,894.5,0.25,50,128.84
7850,F#3,894.5,0.25,65,128.84
7851,F3,894.75,0.25,60,128.84
7852,E3,895.0,0.25,66,128.84
7853,F4,895.25,1.0,60,128.84
7854,F3,895.25,0.25,62,128.84
7855,F#3,895.25,1.5,51,128.84
7856,B-3,895.25,1.5,51,128.84
7857,E-3,895.5,0.25,64,128.84
7858,C#3,895.75,0.25,62,128.84
7859,G2,896.0,0.25,58,128.84
7860,G3,896.0,0.25,58,128.84
7861,E-4,896.25,0.5,52,128.84
7862,G#2,896.25,0.25,48,128.84
7863,G#3,896.25,0.25,48,128.84
7864,F#2,896.5,0.25,52,128.84
7865,F#3,896.5,0.25,52,128.84
7866,F3,896.75,0.5,52,128.84
7867,E-4,896.75,0.25,52,128.84
7868,F2,896.75,0.25,47,128.84
7869,F3,896.75,0.25,47,128.84
7870,D4,897.0,0.25,51,128.84
7871,E2,897.0,0.25,50,128.84
7872,E3,897.0,0.25,50,128.84
7873,C#4,897.25,0.25,51,128.84
7874,F2,897.25,0.25,42,128.84
7875,F3,897.25,0.25,42,128.84
7876,C4,897.5,0.25,50,128.84
7877,E-2,897.5,0.25,48,128.84
7878,E-3,897.5,0.25,48,128.84
7879,E3,897.75,0.5,53,128.84
7880,C#4,897.75,0.25,53,128.84
7881,C#2,897.75,0.25,42,128.84
7882,C#3,897.75,0.25,42,128.84
7883,B3,898.0,0.25,52,128.84
7884,C#2,898.0,0.5,45,128.84
7885,B-2,898.0,0.25,45,128.84
7886,B-3,898.25,0.25,51,128.84
7887,B2,898.25,0.25,47,128.84
7888,A3,898.5,0.25,50,128.84
7889,C3,898.5,0.25,51,128.84
7890,C#3,898.75,229/1000,53,128.84
7891,C#3,899.0,0.25,54,128.84
7892,C#4,899.25,1.5,53,128.84
7893,C3,899.25,0.25,53,128.84
7894,G#3,899.25,1.0,60,128.84
7895,G#4,899.25,1.0,60,128.84
7896,B2,899.5,0.25,52,128.84
7897,B-2,899.75,0.25,50,128.84
7898,C#2,900.0,0.5,47,128.84
7899,A2,900.0,0.25,47,128.84
7900,B-2,900.25,0.25,46,128.84
7901,F#3,900.25,0.5,52,128.84
7902,F#4,900.25,0.5,52,128.84
7903,B2,900.5,0.25,46,128.84
7904,F#4,900.75,0.5,61,128.84
7905,D4,900.75,0.25,61,128.84
7906,C3,900.75,0.25,45,128.84
7907,E-4,901.0,0.25,54,128.84
7908,C#2,901.0,0.5,47,128.84
7909,B-2,901.0,0.25,47,128.84
7910,C#4,901.25,0.25,54,128.84
7911,B2,901.25,0.25,47,128.84
7912,C4,901.5,0.25,53,128.84
7913,C3,901.5,0.25,46,128.84
7914,A4,901.75,0.5,64,128.84
7915,F4,901.75,0.25,64,128.84
7916,C#3,901.75,0.25,46,128.84
7917,F#4,902.0,0.25,60,128.84
7918,C#2,902.0,0.5,45,128.84
7919,B-2,902.0,0.25,45,128.84
7920,E4,902.25,0.25,61,128.84
7921,B2,902.25,0.25,47,128.84
7922,E-4,902.5,0.25,59,128.84
7923,C3,902.5,0.25,51,128.84
7924,C5,902.75,0.5,70,128.84
7925,A4,902.75,0.25,70,128.84
7926,C#3,902.75,229/1000,53,128.84
7927,B-4,903.0,0.25,63,128.84
7928,C#3,903.0,0.25,54,128.84
7929,G#4,903.25,0.25,64,128.84
7930,C3,903.25,0.25,53,128.84
7931,F#4,903.5,0.25,63,128.84
7932,B2,903.5,0.25,52,128.84
7933,E-5,903.75,0.5,75,128.84
7934,B4,903.75,0.25,75,128.84
7935,B-2,903.75,0.25,50,128.84
7936,C5,904.0,0.25,69,128.84
7937,C#2,904.0,0.5,47,128.84
7938,A2,904.0,0.25,47,128.84
7939,B-4,904.25,0.25,70,128.84
7940,B-2,904.25,0.25,46,128.84
7941,G#4,904.5,0.25,69,128.84
7942,B2,904.5,0.25,46,128.84
7943,F#5,904.75,0.5,81,128.84
7944,D5,904.75,0.25,81,128.84
7945,C3,904.75,0.25,45,128.84
7946,E-5,905.0,0.25,75,128.84
7947,C#2,905.0,0.5,47,128.84
7948,A2,905.0,0.25,47,128.84
7949,C#5,905.25,0.25,75,128.84
7950,B2,905.25,0.25,47,128.84
7951,C5,905.5,0.25,73,128.84
7952,C3,905.5,0.25,46,128.84
7953,C6,905.75,0.5,85,128.84
7954,A5,905.75,0.25,85,128.84
7955,C#3,905.75,0.25,46,128.84
7956,B-5,906.0,0.25,80,128.84
7957,C#2,906.0,0.5,47,128.84
7958,A2,906.0,0.25,47,128.84
7959,G#5,906.25,0.25,81,128.84
7960,B-2,906.25,0.25,50,128.84
7961,F#5,906.5,0.25,79,128.84
7962,B2,906.5,0.25,53,128.84
7963,C3,906.75,0.25,55,128.84
7964,F6,906.75,0.5,96,128.84
7965,C#6,906.75,0.5,96,128.84
7966,F5,906.75,0.5,96,128.84
7967,C#3,907.0,0.25,57,128.84
7968,C3,907.25,0.25,55,128.84
7969,F7,907.25,0.25,86,128.84
7970,C#7,907.25,0.25,86,128.84
7971,G#6,907.25,0.25,86,128.84
7972,B2,907.5,0.25,53,128.84
7973,B-2,907.75,0.25,52,128.84
7974,C#7,907.75,0.25,81,128.84
7975,G#6,907.75,0.25,81,128.84
7976,F6,907.75,0.25,81,128.84
7977,A2,908.0,0.25,50,128.84
7978,F#3,908.25,0.25,45,128.84
7979,C#6,908.25,0.25,77,128.84
7980,F6,908.25,0.25,77,128.84
7981,G#6,908.25,0.25,77,128.84
7982,A2,908.5,0.25,49,128.84
7983,C#2,908.75,0.25,46,128.84
7984,F6,908.75,0.25,79,128.84
7985,C#6,908.75,0.25,79,128.84
7986,G#5,908.75,0.25,79,128.84
7987,A2,909.0,0.25,53,128.84
7988,E-3,909.25,0.25,50,128.84
7989,C#6,909.25,0.25,78,128.84
7990,G#5,909.25,0.25,78,128.84
7991,F5,909.25,0.25,78,128.84
7992,A2,909.5,0.25,53,128.84
7993,C#2,909.75,0.25,50,128.84
7994,C#5,909.75,0.25,77,128.84
7995,F5,909.75,0.25,77,128.84
7996,G#5,909.75,0.25,77,128.84
7997,G#2,910.0,0.25,57,128.84
7998,F#3,910.25,0.25,53,128.84
7999,G#4,910.25,0.25,75,128.84
8000,C#5,910.25,0.25,75,128.84
8001,F5,910.25,0.25,75,128.84
8002,G#2,910.5,0.25,57,128.84
8003,C#2,910.75,0.25,55,128.84
8004,F4,910.75,0.25,75,128.84
8005,G#4,910.75,0.25,75,128.84
8006,C#5,910.75,0.25,75,128.84
8007,G#2,911.0,0.25,63,128.84
8008,E-3,911.25,0.25,57,128.84
8009,F5,911.25,0.25,76,128.84
8010,C#5,911.25,0.25,76,128.84
8011,G#4,911.25,0.25,76,128.84
8012,G#2,911.5,0.25,62,128.84
8013,C#2,911.75,0.25,59,128.84
8014,C#5,911.75,0.25,72,128.84
8015,G#4,911.75,0.25,72,128.84
8016,F4,911.75,0.25,72,128.84
8017,G#2,912.0,0.25,67,128.84
8018,F#3,912.25,0.25,63,128.84
8019,C#4,912.25,0.25,68,128.84
8020,F4,912.25,0.25,68,128.84
8021,G#4,912.25,0.25,68,128.84
8022,G#2,912.5,0.25,67,128.84
8023,C#2,912.75,0.25,63,128.84
8024,F4,912.75,0.25,70,128.84
8025,C#4,912.75,0.25,70,128.84
8026,G#3,912.75,0.25,70,128.84
8027,G#2,913.0,0.25,71,128.84
8028,E-3,913.25,0.25,66,128.84
8029,C#4,913.25,0.25,70,128.84
8030,G#3,913.25,0.25,70,128.84
8031,F3,913.25,0.25,70,128.84
8032,G#2,913.5,0.25,72,128.84
8033,C#2,913.75,0.25,67,128.84
8034,C#3,913.75,0.25,68,128.84
8035,F3,913.75,0.25,68,128.84
8036,G#3,913.75,0.25,68,128.84
8037,C#2,914.0,1.0,67,128.84
8038,G#2,914.0,0.5,80,128.84
8039,C#3,914.0,0.5,80,128.84
8040,G#2,914.25,0.25,67,128.84
8041,C#3,914.25,0.25,67,128.84
8042,F3,914.25,0.25,67,128.84
8043,F2,914.75,0.25,67,128.84
8044,G#2,914.75,0.25,67,128.84
8045,C#3,914.75,0.25,67,128.84
8046,E6,914.75,0.25,76,128.84
8047,G6,914.75,0.25,76,128.84
8048,F2,915.25,0.25,50,128.84
8049,C#3,915.25,0.25,50,128.84
8050,F3,915.25,0.25,50,128.84
8051,C6,915.25,0.25,73,128.84
8052,E6,915.25,0.25,73,128.84
8053,F2,915.75,0.25,51,128.84
8054,C#3,915.75,0.25,51,128.84
8055,F3,915.75,0.25,51,128.84
8056,G5,915.75,0.25,70,128.84
8057,B-5,915.75,0.25,70,128.84
8058,F2,916.25,0.25,53,128.84
8059,C#3,916.25,0.25,53,128.84
8060,F3,916.25,0.25,53,128.84
8061,E5,916.25,0.25,70,128.84
8062,G5,916.25,0.25,70,128.84
8063,F2,916.75,0.25,55,128.84
8064,C#3,916.75,0.25,55,128.84
8065,F3,916.75,0.25,55,128.84
8066,C5,916.75,0.25,68,128.84
8067,E5,916.75,0.25,68,128.84
8068,F2,917.25,0.25,56,128.84
8069,C#3,917.25,0.25,56,128.84
8070,F3,917.25,0.25,56,128.84
8071,G4,917.25,0.25,68,128.84
8072,B-4,917.25,0.25,68,128.84
8073,F2,917.75,0.25,59,128.84
8074,C#3,917.75,0.25,59,128.84
8075,F3,917.75,0.25,59,128.84
8076,E4,917.75,0.25,66,128.84
8077,G4,917.75,0.25,66,128.84
8078,F2,918.25,0.25,61,128.84
8079,C#3,918.25,0.25,61,128.84
8080,F3,918.25,0.25,61,128.84
8081,C#3,918.25,0.25,70,128.84
8082,C#4,918.25,0.25,70,128.84
8083,F2,918.75,0.25,62,128.84
8084,C#3,918.75,0.25,62,128.84
8085,F3,918.75,0.25,62,128.84
8086,E4,918.75,0.25,68,128.84
8087,G4,918.75,0.25,68,128.84
8088,F2,919.25,0.25,61,128.84
8089,C#3,919.25,0.25,61,128.84
8090,F3,919.25,0.25,61,128.84
8091,C4,919.25,0.25,66,128.84
8092,E4,919.25,0.25,66,128.84
8093,F2,919.75,0.25,60,128.84
8094,C#3,919.75,0.25,60,128.84
8095,F3,919.75,0.25,60,128.84
8096,G3,919.75,0.25,62,128.84
8097,B-3,919.75,0.25,62,128.84
8098,F2,920.25,0.25,58,128.84
8099,C#3,920.25,0.25,58,128.84
8100,F3,920.25,0.25,58,128.84
8101,E3,920.25,0.25,63,128.84
8102,G3,920.25,0.25,63,128.84
8103,F2,920.75,0.25,56,128.84
8104,C#3,920.75,0.25,56,128.84
8105,F3,920.75,0.25,56,128.84
8106,C3,920.75,0.25,60,128.84
8107,E3,920.75,0.25,60,128.84
8108,F2,921.25,0.25,55,128.84
8109,C#3,921.25,0.25,55,128.84
8110,F3,921.25,0.25,55,128.84
8111,G2,921.25,0.25,60,128.84
8112,B-2,921.25,0.25,60,128.84
8113,F2,921.75,0.25,54,128.84
8114,C#3,921.75,0.25,54,128.84
8115,F3,921.75,0.25,54,128.84
8116,E2,921.75,0.25,58,128.84
8117,G2,921.75,0.25,58,128.84
8118,F2,922.25,0.25,52,128.84
8119,C#3,922.25,0.25,52,128.84
8120,F3,922.25,0.25,52,128.84
8121,C#1,922.25,0.25,68,128.84
8122,C#2,922.25,0.25,68,128.84
8123,F2,922.75,0.375,51,128.84
8124,C#3,922.75,0.375,51,128.84
8125,F3,922.75,0.375,51,128.84
8126,C2,922.75,0.25,68,128.84
8127,C3,922.75,0.25,68,128.84
8128,B1,923.25,0.25,70,128.84
8129,B2,923.25,0.25,70,128.84
8130,F4,923.625,0.625,67,128.84
8131,C5,923.688,0.562,71,128.84
8132,F5,923.75,0.5,80,128.84
8133,B-1,923.75,0.25,73,128.84
8134,B-2,923.75,0.25,73,128.84
8135,A1,924.25,0.25,75,128.84
8136,A2,924.25,0.25,75,128.84
8137,C#6,924.75,0.5,73,128.84
8138,A5,924.75,0.5,73,128.84
8139,C#5,924.75,0.5,73,128.84
8140,E5,924.75,0.5,73,128.84
8141,G#1,924.75,0.25,78,128.84
8142,G#2,924.75,0.25,78,128.84
8143,A1,925.25,0.25,81,128.84
8144,A2,925.25,0.25,81,128.84
8145,A5,925.75,0.5,73,128.84
8146,C#6,925.75,0.5,73,128.84
8147,E-6,925.75,0.5,73,128.84
8148,A6,925.75,0.5,73,128.84
8149,B-1,925.75,0.25,84,128.84
8150,B-2,925.75,0.25,84,128.84
8151,A1,926.25,0.25,84,128.84
8152,A2,926.25,0.25,84,128.84
8153,F7,926.75,0.5,77,128.84
8154,C#7,926.75,0.5,77,128.84
8155,G#6,926.75,0.5,77,128.84
8156,F6,926.75,0.5,77,128.84
8157,G#1,926.75,0.25,84,128.84
8158,G#2,926.75,0.25,84,128.84
8159,G1,927.25,0.25,83,128.84
8160,G2,927.25,0.25,83,128.84
8161,F#1,927.75,0.25,82,128.84
8162,F#2,927.75,0.25,82,128.84
8163,F1,928.25,0.25,79,128.84
8164,F2,928.25,0.25,79,128.84
8165,C#7,928.75,0.5,81,128.84
8166,G#6,928.75,0.5,81,128.84
8167,C#6,928.75,0.5,81,128.84
8168,E1,928.75,0.25,77,128.84
8169,E2,928.75,0.25,77,128.84
8170,E-1,929.25,0.25,77,128.84
8171,E-2,929.25,0.25,77,128.84
8172,D1,929.75,0.25,74,128.84
8173,D2,929.75,0.25,74,128.84
8174,C#1,930.0,0.375,73,128.84
8175,C#2,930.0,0.375,73,128.84
8176,G#5,930.375,0.125,81,128.84
8177,A5,930.5,0.125,82,128.84
8178,C6,930.625,0.125,82,128.84
8179,A2,930.625,0.875,50,128.84
8180,F3,930.688,0.812,52,128.84
8181,A3,930.75,0.75,58,128.84
8182,C#5,930.75,0.25,87,128.84
8183,C#6,930.75,0.25,87,128.84
8184,E-4,930.812,0.688,61,128.84
8185,C#3,931.25,0.5,85,128.84
8186,E4,932.0,0.5,66,128.84
8187,A3,932.0,0.5,66,128.84
8188,E3,932.0,0.5,66,128.84
8189,A2,932.0,0.5,66,128.84
8190,F#2,932.938,0.562,63,128.84
8191,F#4,933.0,0.5,72,128.84
8192,C#4,933.0,0.5,72,128.84
8193,F#3,933.0,0.5,72,128.84
8194,C#2,933.938,0.062,67,128.84
8195,C#3,933.938,0.062,67,128.84
8196,G#4,934.0,0.5,77,128.84
8197,F4,934.0,0.5,77,128.84
8198,C#4,934.0,0.5,77,128.84
8199,G#3,934.0,0.5,77,128.84
8200,C#2,934.0,0.5,67,128.84
8201,C#3,934.0,0.5,67,128.84
8202,F4,936.0,0.5,77,128.84
8203,G#4,936.0,0.5,77,128.84
8204,C#5,936.0,0.5,77,128.84
8205,F5,936.0,0.5,77,128.84
8206,G#3,937.625,0.125,76,128.84
8207,A3,937.75,0.125,76,128.84
8208,C4,937.875,0.125,76,128.84
8209,C#3,938.0,0.25,78,128.84
8210,C#4,938.0,0.25,78,128.84
8211,C#1,938.5,0.5,72,128.84
8212,C#2,938.5,0.5,72,128.84
