,note_name,start_time,duration,velocity,tempo
0,C#4,1.75,121/500,77,100.0
1,C#4,2.0,1.5,85,100.0
2,G#2,2.75,0.188,62,100.0
3,C#2,2.75,0.188,62,100.0
4,G#3,2.75,0.188,62,100.0
5,F3,2.75,0.188,62,100.0
6,G#2,3.0,0.5,70,100.0
7,F3,3.0,0.5,70,100.0
8,G#3,3.0,0.5,70,100.0
9,C#2,3.0,0.5,70,100.0
10,C#4,3.5,167/1000,73,100.0
11,B3,3.667,167/1000,70,100.0
12,C#4,3.833,167/1000,68,100.0
13,B3,4.0,8/5,77,100.0
14,F#3,4.75,0.188,62,100.0
15,G#2,4.75,0.188,62,100.0
16,D3,4.75,0.188,62,100.0
17,G#1,4.75,0.188,62,100.0
18,G#1,5.0,0.5,71,100.0
19,G#2,5.0,0.5,71,100.0
20,D3,5.0,0.5,71,100.0
21,F#3,5.0,0.5,71,100.0
22,C#4,5.6,1/10,64,100.0
23,E4,5.7,1/10,70,100.0
24,D4,5.8,1/10,66,100.0
25,C#4,5.9,23/250,66,100.0
26,C#4,6.0,1667/1000,79,100.0
27,G#3,6.75,0.188,62,100.0
28,C#2,6.75,0.188,62,100.0
29,F3,6.75,0.188,62,100.0
30,G#2,6.75,0.188,62,100.0
31,C#2,7.0,0.5,70,100.0
32,G#3,7.0,0.5,70,100.0
33,G#2,7.0,0.5,70,100.0
34,F3,7.0,0.5,70,100.0
35,C#4,7.5,0.5,73,100.0
36,B3,7.667,167/1000,70,100.0
37,C#4,7.833,167/1000,68,100.0
38,B3,8.0,777/500,81,100.0
39,D3,8.75,0.188,56,100.0
40,G#1,8.75,0.188,56,100.0
41,F#3,8.75,0.188,56,100.0
42,G#2,8.75,0.188,56,100.0
43,G#2,9.0,0.5,63,100.0
44,D3,9.0,0.5,63,100.0
45,F#3,9.0,0.5,63,100.0
46,G#1,9.0,0.5,63,100.0
47,A3,9.556,81/1000,62,100.0
48,G#3,9.665,83/1000,67,100.0
49,B3,9.748,83/1000,59,100.0
50,A3,9.831,81/1000,63,100.0
51,G#3,9.912,17/200,66,100.0
52,G#3,10.0,499/250,75,100.0
53,G#2,10.75,0.188,52,100.0
54,C#3,10.75,0.188,52,100.0
55,C#2,10.75,0.188,52,100.0
56,F3,10.75,0.188,52,100.0
57,F3,11.0,0.5,60,100.0
58,C#2,11.0,0.5,60,100.0
59,G#2,11.0,0.5,60,100.0
60,C#3,11.0,0.5,60,100.0
61,G#3,11.75,0.25,46,100.0
62,G#3,12.0,777/500,54,100.0
63,G#2,12.75,0.188,41,100.0
64,E2,12.75,0.188,41,100.0
65,E3,12.75,0.188,41,100.0
66,C#3,12.75,0.188,41,100.0
67,E3,13.0,0.5,45,100.0
68,G#2,13.0,0.5,45,100.0
69,C#3,13.0,0.5,45,100.0
70,E2,13.0,0.5,45,100.0
71,A3,13.556,81/1000,48,100.0
72,G#3,13.665,83/1000,47,100.0
73,B3,13.748,83/1000,53,100.0
74,A3,13.831,81/1000,47,100.0
75,G#3,13.912,83/1000,44,100.0
76,G#3,14.0,2.0,60,100.0
77,G#2,14.75,0.188,39,100.0
78,E-3,14.75,0.188,39,100.0
79,C#3,14.75,0.188,39,100.0
80,G#2,15.0,1.0,43,100.0
81,E-3,15.0,0.5,47,100.0
82,C#3,15.0,0.5,47,100.0
83,G#3,16.0,1.0,60,100.0
84,G#2,16.0,167/1000,43,100.0
85,F#3,16.0,0.5,38,100.0
86,C3,16.0,0.5,38,100.0
87,E-3,16.0,0.5,38,100.0
88,A2,16.167,1/5,50,100.0
89,G#2,16.333,1/5,44,100.0
90,B2,16.5,1/5,50,100.0
91,A2,16.667,1/5,43,100.0
92,G#2,16.833,1/5,43,100.0
93,F#2,17.0,1/5,52,100.0
94,E2,17.167,1/5,43,100.0
95,F#2,17.333,1/5,43,100.0
96,E-2,17.5,1/5,43,100.0
97,A2,17.667,0.25,49,100.0
98,G#2,17.917,83/1000,39,100.0
99,C#2,18.0,2.0,54,100.0
100,G#2,18.75,0.25,43,100.0
101,C#3,19.0,1.0,52,100.0
102,C#2,20.0,2.0,52,100.0
103,G#2,20.75,0.25,48,100.0
104,C#3,21.0,1.0,54,100.0
105,G#3,21.75,13/125,48,100.0
106,G#3,21.875,13/125,48,100.0
107,C#4,22.0,0.25,58,100.0
108,C#2,22.0,2.0,52,100.0
109,G#2,22.75,0.25,48,100.0
110,C#4,23.0,1.0,60,100.0
111,C#3,23.0,1.0,54,100.0
112,E3,23.0,0.5,48,100.0
113,G#3,23.0,0.5,48,100.0
114,C#4,24.0,0.25,60,100.0
115,C#2,24.0,2.0,52,100.0
116,C4,24.25,0.25,48,100.0
117,C#4,24.5,0.25,58,100.0
118,E-4,24.75,0.125,62,100.0
119,A2,24.75,0.25,48,100.0
120,F#3,24.875,0.625,52,100.0
121,A3,24.938,0.562,52,100.0
122,E4,25.0,0.25,65,100.0
123,C#3,25.0,1.0,54,100.0
124,A3,25.25,0.25,55,100.0
125,E4,25.5,0.25,61,100.0
126,E-4,25.75,0.25,48,100.0
127,C#4,26.0,0.75,62,100.0
128,C#2,26.0,2.0,52,100.0
129,C#4,26.75,0.125,54,100.0
130,G#2,26.75,0.25,48,100.0
131,E-4,26.875,0.125,54,100.0
132,C#4,27.0,0.75,59,100.0
133,C#3,27.0,1.0,54,100.0
134,E3,27.0,0.5,47,100.0
135,G#3,27.0,0.5,47,100.0
136,C4,27.75,0.25,55,100.0
137,C#4,28.0,1.75,62,100.0
138,C#2,28.0,2.0,52,100.0
139,G#2,28.75,0.25,48,100.0
140,C#3,29.0,1.0,54,100.0
141,E3,29.0,0.5,47,100.0
142,G#3,29.0,0.5,47,100.0
143,E-4,29.75,0.25,60,100.0
144,E4,30.0,0.25,63,100.0
145,B1,30.0,2.0,53,100.0
146,B2,30.75,0.25,48,100.0
147,E4,31.0,1.0,66,100.0
148,E3,31.0,1.0,54,100.0
149,G#3,31.0,0.5,48,100.0
150,B3,31.0,0.5,48,100.0
151,E4,32.0,0.25,66,100.0
152,B1,32.0,2.0,53,100.0
153,E-4,32.25,0.25,52,100.0
154,E4,32.5,0.25,63,100.0
155,F#4,32.75,0.25,68,100.0
156,B2,32.75,0.25,48,100.0
157,G#4,33.0,0.25,71,100.0
158,E-3,33.0,1.0,53,100.0
159,A3,33.0,0.5,52,100.0
160,B3,33.0,0.5,52,100.0
161,E-4,33.25,0.25,60,100.0
162,G#4,33.5,0.25,67,100.0
163,F#4,33.75,0.25,52,100.0
164,E4,34.0,0.75,68,100.0
165,E2,34.0,2.0,55,100.0
166,E4,34.75,0.125,56,100.0
167,B2,34.75,0.25,48,100.0
168,F#4,34.875,0.125,56,100.0
169,E4,35.0,0.75,64,100.0
170,E3,35.0,1.0,58,100.0
171,G#3,35.0,0.5,47,100.0
172,B3,35.0,0.5,47,100.0
173,E-4,35.75,0.25,60,100.0
174,E4,36.0,1.0,68,100.0
175,E2,36.0,0.75,52,100.0
176,B2,36.75,0.125,48,100.0
177,G#1,36.875,1.125,54,100.0
178,E4,37.0,0.75,57,100.0
179,G#4,37.0,1.0,67,100.0
180,C3,37.0,1.0,54,100.0
181,C4,37.0,0.5,40,100.0
182,G#3,37.0,0.5,40,100.0
183,F#3,37.0,0.5,40,100.0
184,E-4,37.75,0.125,60,100.0
185,G#3,37.875,0.062,36,100.0
186,C#4,37.875,0.062,36,100.0
187,E4,37.938,0.062,41,100.0
188,G#4,37.938,0.062,41,100.0
189,C#5,38.0,0.5,77,100.0
190,C#2,38.0,2.0,62,100.0
191,G#2,38.75,0.25,52,100.0
192,G#4,39.0,0.5,55,100.0
193,E4,39.0,0.5,55,100.0
194,C#5,39.0,1.0,62,100.0
195,C#4,39.0,1.0,62,100.0
196,C#3,39.0,1.0,54,100.0
197,E3,39.0,1.0,54,100.0
198,F#1,40.0,2.0,59,100.0
199,C#5,40.0,0.25,62,100.0
200,C#4,40.0,0.25,62,100.0
201,C5,40.25,0.25,52,100.0
202,C4,40.25,0.25,52,100.0
203,C#5,40.5,0.25,64,100.0
204,C#4,40.5,0.25,64,100.0
205,C#3,40.75,0.25,58,100.0
206,E-4,40.75,0.25,68,100.0
207,E-5,40.75,0.25,68,100.0
208,E4,41.0,0.25,71,100.0
209,E5,41.0,0.25,71,100.0
210,F#3,41.0,1.0,58,100.0
211,A3,41.0,1.0,58,100.0
212,A4,41.25,0.25,67,100.0
213,E4,41.5,0.25,68,100.0
214,E5,41.5,0.25,68,100.0
215,E-4,41.75,0.25,54,100.0
216,E-5,41.75,0.25,54,100.0
217,C#1,42.0,2.0,64,100.0
218,C#4,42.0,0.75,66,100.0
219,C#5,42.0,0.75,66,100.0
220,C#5,42.75,0.125,64,100.0
221,G#2,42.75,0.25,57,100.0
222,E-5,42.875,0.125,64,100.0
223,G#4,43.0,0.5,61,100.0
224,C#5,43.0,0.75,66,100.0
225,C#4,43.0,0.75,66,100.0
226,C#3,43.0,1.0,62,100.0
227,E3,43.0,1.0,62,100.0
228,C5,43.75,0.25,57,100.0
229,C4,43.75,0.25,57,100.0
230,C#2,44.0,0.75,70,100.0
231,C#5,44.0,1.75,64,100.0
232,C#4,44.0,1.75,64,100.0
233,G#2,44.75,0.25,59,100.0
234,E4,45.0,0.5,62,100.0
235,G#4,45.0,0.5,62,100.0
236,C#3,45.0,0.75,68,100.0
237,G#3,45.0,0.75,68,100.0
238,G#4,45.75,0.25,65,100.0
239,E5,45.75,0.25,65,100.0
240,B4,45.75,0.25,65,100.0
241,E4,45.75,0.25,65,100.0
242,D2,45.75,0.25,54,100.0
243,D3,45.75,0.25,54,100.0
244,G#5,46.0,0.25,75,100.0
245,B4,46.0,0.25,75,100.0
246,G#4,46.0,0.25,75,100.0
247,E-3,46.0,0.75,59,100.0
248,E-2,46.0,0.75,59,100.0
249,G#3,46.75,0.25,54,100.0
250,E-3,46.75,0.25,54,100.0
251,G#4,47.0,1.0,86,100.0
252,E-4,47.0,1.0,56,100.0
253,B3,47.0,1.0,56,100.0
254,G#4,48.0,0.125,60,100.0
255,G4,48.125,0.125,54,100.0
256,G#4,48.25,0.125,54,100.0
257,G4,48.375,0.125,53,100.0
258,E-4,48.375,0.375,56,100.0
259,B3,48.375,0.375,56,100.0
260,E4,48.5,0.125,55,100.0
261,G4,48.625,0.125,57,100.0
262,G#4,48.75,0.125,59,100.0
263,E-2,48.75,1.375,59,100.0
264,E-3,48.75,1.375,59,100.0
265,B-4,48.875,0.125,61,100.0
266,B4,49.0,0.125,63,100.0
267,C#5,49.125,0.125,64,100.0
268,E-5,49.25,0.125,66,100.0
269,E5,49.375,0.125,68,100.0
270,G5,49.5,0.125,70,100.0
271,G#5,49.625,0.125,72,100.0
272,B-5,49.75,0.125,74,100.0
273,B5,49.875,0.125,76,100.0
274,C#6,50.0,0.125,81,100.0
275,E-6,50.125,0.125,84,100.0
276,B-3,50.125,0.25,54,100.0
277,E-3,50.125,0.25,54,100.0
278,E6,50.25,0.125,87,100.0
279,E-6,50.375,0.125,83,100.0
280,C#6,50.5,0.125,81,100.0
281,B5,50.625,0.125,80,100.0
282,B-3,50.625,0.25,54,100.0
283,E-3,50.625,0.25,54,100.0
284,B-5,50.75,0.125,78,100.0
285,G#5,50.875,0.125,77,100.0
286,E-4,50.875,1.0,68,100.0
287,C#4,50.875,1.0,68,100.0
288,G5,51.0,0.125,75,100.0
289,B5,51.125,0.125,80,100.0
290,B-5,51.25,0.125,78,100.0
291,G#5,51.375,0.125,75,100.0
292,G5,51.5,0.125,73,100.0
293,E5,51.625,0.125,70,100.0
294,E-5,51.75,0.125,68,100.0
295,C#5,51.875,0.125,65,100.0
296,E5,52.0,0.125,71,100.0
297,E-5,52.125,0.125,67,100.0
298,C#5,52.25,0.125,63,100.0
299,B4,52.375,0.125,58,100.0
300,B-4,52.5,0.125,54,100.0
301,G#4,52.625,0.125,50,100.0
302,G4,52.75,0.125,46,100.0
303,G#4,52.875,0.125,42,100.0
304,G4,53.0,0.125,46,100.0
305,E4,53.125,0.125,34,100.0
306,G4,53.25,0.125,33,100.0
307,B4,53.375,0.25,38,100.0
308,B4,53.625,0.094,34,100.0
309,B4,53.75,0.094,30,100.0
310,B4,53.875,0.094,34,100.0
311,B4,54.0,0.125,28,100.0
312,B4,54.125,0.75,36,100.0
313,B-4,54.875,0.125,30,100.0
314,G#4,55.0,0.75,42,100.0
315,G#2,55.625,0.75,31,100.0
316,G#1,55.625,0.75,31,100.0
317,G#4,55.75,0.125,35,100.0
318,B-4,55.875,0.125,35,100.0
319,G#4,56.0,0.75,39,100.0
320,E-4,56.0,0.5,28,100.0
321,B3,56.0,0.5,28,100.0
322,G#2,56.375,0.25,26,100.0
323,E-3,56.375,0.25,26,100.0
324,E-3,56.625,1.0,33,100.0
325,G#3,56.625,1.0,33,100.0
326,G4,56.75,0.25,37,100.0
327,G#4,57.0,1.0,35,100.0
328,G#2,57.625,0.75,26,100.0
329,G#1,57.625,0.75,26,100.0
330,E-4,58.0,0.5,23,100.0
331,B3,58.0,0.5,23,100.0
332,G#2,58.375,0.25,22,100.0
333,E-3,58.375,0.25,22,100.0
334,E-3,58.625,0.75,28,100.0
335,G#3,58.625,0.75,28,100.0
336,G#4,58.75,13/125,41,100.0
337,G#4,58.875,13/125,41,100.0
338,G#5,59.0,0.25,50,100.0
339,E5,59.0,0.25,50,100.0
340,E2,59.625,0.5,38,100.0
341,E3,59.625,0.5,38,100.0
342,B4,59.875,0.625,48,100.0
343,E5,59.938,1.062,48,100.0
344,G#5,60.0,1.0,57,100.0
345,B3,60.375,0.25,29,100.0
346,E4,60.375,0.25,29,100.0
347,G#3,60.375,0.25,29,100.0
348,B3,60.625,1.0,35,100.0
349,E4,60.625,1.0,35,100.0
350,G#4,60.625,1.0,35,100.0
351,E5,61.0,0.25,48,100.0
352,G#5,61.0,0.25,57,100.0
353,F#5,61.25,0.25,44,100.0
354,E-5,61.25,0.25,44,100.0
355,G#5,61.5,0.25,47,100.0
356,E5,61.5,0.25,47,100.0
357,E3,61.625,0.5,38,100.0
358,E2,61.625,0.5,38,100.0
359,F#5,61.75,0.25,49,100.0
360,A5,61.75,0.25,49,100.0
361,G#5,62.0,0.25,52,100.0
362,B5,62.0,0.25,52,100.0
363,E5,62.25,0.25,46,100.0
364,B4,62.25,0.25,46,100.0
365,B3,62.375,0.25,29,100.0
366,E4,62.375,0.25,29,100.0
367,G#3,62.375,0.25,29,100.0
368,F#5,62.5,0.25,50,100.0
369,A5,62.5,0.25,50,100.0
370,B3,62.625,1.0,35,100.0
371,G#4,62.625,1.0,35,100.0
372,E4,62.625,1.0,35,100.0
373,G#5,62.75,0.25,45,100.0
374,E5,62.75,0.25,45,100.0
375,F#5,63.0,0.25,50,100.0
376,E-5,63.0,0.25,50,100.0
377,B1,63.625,0.5,38,100.0
378,B2,63.625,0.5,38,100.0
379,F#5,63.75,83/1000,48,100.0
380,F#5,63.833,83/1000,44,100.0
381,G#5,63.919,83/1000,44,100.0
382,E-5,64.0,0.25,52,100.0
383,F#5,64.0,0.25,52,100.0
384,B3,64.375,0.25,29,100.0
385,E-4,64.375,0.25,29,100.0
386,F#3,64.375,0.25,29,100.0
387,E-4,64.625,1.0,35,100.0
388,F#4,64.625,1.0,35,100.0
389,B3,64.625,1.0,35,100.0
390,F5,64.875,0.125,48,100.0
391,D5,64.875,0.125,48,100.0
392,E-5,65.0,0.25,50,100.0
393,F#5,65.0,0.25,50,100.0
394,B2,65.625,0.5,42,100.0
395,G#5,66.0,1.0,52,100.0
396,G#4,66.0,1.0,52,100.0
397,E-5,66.0,1.0,52,100.0
398,F#3,66.375,0.25,31,100.0
399,E-4,66.375,0.25,31,100.0
400,B3,66.375,0.25,31,100.0
401,C3,66.625,0.5,52,100.0
402,C#5,67.0,0.25,50,100.0
403,E5,67.0,0.25,50,100.0
404,E-4,67.375,0.25,29,100.0
405,G#3,67.375,0.25,29,100.0
406,G#4,67.375,0.25,29,100.0
407,C#2,67.625,0.5,38,100.0
408,C#3,67.625,0.5,38,100.0
409,G#4,67.875,0.625,48,100.0
410,C#5,67.938,1.062,48,100.0
411,E5,68.0,1.0,57,100.0
412,G#3,68.375,0.25,29,100.0
413,C#4,68.375,0.25,29,100.0
414,E3,68.375,0.25,29,100.0
415,C#4,68.625,1.0,35,100.0
416,G#3,68.625,1.0,35,100.0
417,E4,68.625,1.0,35,100.0
418,C#5,69.0,0.25,48,100.0
419,E5,69.0,0.25,57,100.0
420,C5,69.25,0.25,44,100.0
421,E-5,69.25,0.25,44,100.0
422,E5,69.5,0.25,47,100.0
423,C#5,69.5,0.25,47,100.0
424,E3,69.625,0.5,38,100.0
425,E2,69.625,0.5,38,100.0
426,F#5,69.75,0.125,49,100.0
427,E-5,69.75,0.125,49,100.0
428,E5,69.875,0.062,44,100.0
429,C#5,69.875,0.062,44,100.0
430,E-5,69.938,0.062,44,100.0
431,F#5,69.938,0.062,44,100.0
432,G#5,70.0,0.25,52,100.0
433,E5,70.0,0.25,52,100.0
434,G#4,70.375,0.125,46,100.0
435,C#5,70.375,0.125,46,100.0
436,G#3,70.375,0.25,29,100.0
437,E4,70.375,0.25,29,100.0
438,C#4,70.375,0.25,29,100.0
439,E-5,70.5,0.25,50,100.0
440,F#5,70.5,0.25,50,100.0
441,G#4,70.625,1.0,35,100.0
442,C#4,70.625,1.0,35,100.0
443,E4,70.625,1.0,35,100.0
444,E5,70.75,0.25,45,100.0
445,C#5,70.75,0.25,45,100.0
446,C5,71.0,0.25,50,100.0
447,E-5,71.0,0.25,50,100.0
448,G#2,71.625,0.5,42,100.0
449,E-5,71.75,83/1000,48,100.0
450,E-5,71.833,83/1000,44,100.0
451,E5,71.919,83/1000,44,100.0
452,E-5,72.0,0.25,52,100.0
453,C5,72.0,0.25,52,100.0
454,E-3,72.375,0.25,29,100.0
455,G#3,72.375,0.25,29,100.0
456,C4,72.375,0.25,29,100.0
457,C4,72.625,1.0,35,100.0
458,E-4,72.625,1.0,35,100.0
459,G#3,72.625,1.0,35,100.0
460,C#5,72.875,0.125,48,100.0
461,B-4,72.875,0.125,48,100.0
462,E-5,73.0,1.0,50,100.0
463,C5,73.0,1.0,50,100.0
464,G#2,73.625,0.5,42,100.0
465,C4,74.375,0.25,29,100.0
466,E-4,74.375,0.25,29,100.0
467,G#3,74.375,0.25,29,100.0
468,E-5,74.625,13/125,42,100.0
469,G#4,74.625,1.0,33,100.0
470,C4,74.625,1.0,33,100.0
471,E-4,74.625,1.0,33,100.0
472,E-5,74.75,13/125,42,100.0
473,G#5,74.875,0.125,42,100.0
474,E-5,75.0,0.75,54,100.0
475,G#5,75.0,0.875,42,100.0
476,G#1,75.625,0.5,42,100.0
477,G#4,75.75,0.25,44,100.0
478,C5,75.833,83/1000,35,100.0
479,G#5,75.917,1.0,35,100.0
480,C5,76.0,0.75,52,100.0
481,E-3,76.375,83/1000,31,100.0
482,G#3,76.458,83/1000,31,100.0
483,E-4,76.542,83/1000,31,100.0
484,C4,76.625,1.0,42,100.0
485,C#5,76.75,0.125,36,100.0
486,E-5,76.833,83/1000,44,100.0
487,G#5,76.917,83/1000,36,100.0
488,E-5,77.0,0.75,54,100.0
489,G#5,77.0,917/1000,36,100.0
490,G#2,77.625,0.5,42,100.0
491,F#5,77.75,0.25,46,100.0
492,E5,77.833,83/1000,36,100.0
493,G#5,77.917,1.0,36,100.0
494,E5,78.0,0.75,53,100.0
495,G#3,78.375,83/1000,29,100.0
496,C4,78.458,83/1000,29,100.0
497,G#4,78.542,83/1000,29,100.0
498,E-4,78.625,1.0,42,100.0
499,E-5,78.75,0.25,49,100.0
500,C#5,78.833,83/1000,38,100.0
501,G#5,78.917,83/1000,37,100.0
502,C#5,79.0,0.75,54,100.0
503,G#5,79.0,917/1000,37,100.0
504,G#1,79.625,0.5,42,100.0
505,G#4,79.75,0.25,46,100.0
506,C#5,79.833,83/1000,37,100.0
507,G#5,79.917,1.0,37,100.0
508,C#5,80.0,0.75,53,100.0
509,E3,80.375,83/1000,30,100.0
510,G#3,80.458,83/1000,30,100.0
511,E4,80.542,83/1000,30,100.0
512,C#4,80.625,1.0,42,100.0
513,E-5,80.75,0.25,49,100.0
514,E5,80.833,83/1000,37,100.0
515,G#5,80.917,83/1000,37,100.0
516,E5,81.0,0.75,54,100.0
517,G#5,81.0,833/1000,37,100.0
518,G#2,81.625,0.5,42,100.0
519,G#5,81.75,0.25,46,100.0
520,F#5,81.833,83/1000,36,100.0
521,G#5,81.917,1.0,36,100.0
522,F#5,82.0,0.75,53,100.0
523,G#3,82.375,83/1000,30,100.0
524,C#4,82.458,83/1000,30,100.0
525,G#4,82.542,83/1000,30,100.0
526,E4,82.625,1.0,42,100.0
527,E5,82.75,0.25,49,100.0
528,E-5,82.833,83/1000,38,100.0
529,G#5,82.917,83/1000,38,100.0
530,E-5,83.0,0.5,54,100.0
531,G#5,83.0,417/1000,38,100.0
532,G#4,83.333,83/1000,38,100.0
533,G#5,83.417,0.5,38,100.0
534,G#4,83.5,0.5,46,100.0
535,G#1,83.625,0.5,42,100.0
536,C5,83.833,83/1000,38,100.0
537,G#5,83.917,0.5,38,100.0
538,C5,84.0,0.5,53,100.0
539,C#5,84.333,83/1000,38,100.0
540,E-3,84.375,83/1000,29,100.0
541,G#5,84.417,0.5,38,100.0
542,G#3,84.458,83/1000,29,100.0
543,C#5,84.5,0.5,49,100.0
544,E-4,84.542,83/1000,29,100.0
545,C4,84.625,1.0,42,100.0
546,E-5,84.833,83/1000,37,100.0
547,G#5,84.917,83/1000,37,100.0
548,E-5,85.0,0.5,54,100.0
549,G#5,85.0,417/1000,37,100.0
550,F#5,85.333,83/1000,36,100.0
551,G#5,85.417,0.5,36,100.0
552,F#5,85.5,0.5,46,100.0
553,G#2,85.625,0.5,42,100.0
554,E5,85.833,83/1000,36,100.0
555,G#5,85.917,0.5,40,100.0
556,E5,86.0,0.5,53,100.0
557,E-5,86.333,83/1000,38,100.0
558,G#3,86.375,83/1000,30,100.0
559,G#5,86.417,583/1000,38,100.0
560,C4,86.458,83/1000,30,100.0
561,E-5,86.5,0.5,49,100.0
562,G#4,86.542,83/1000,30,100.0
563,E-4,86.625,1.0,42,100.0
564,C#5,87.0,0.5,54,100.0
565,G#5,87.0,0.125,44,100.0
566,A5,87.125,0.125,39,100.0
567,G#5,87.25,0.125,44,100.0
568,A5,87.375,0.125,39,100.0
569,G#5,87.5,0.125,44,100.0
570,A5,87.625,0.125,39,100.0
571,G#1,87.625,0.5,42,100.0
572,G#5,87.75,0.125,44,100.0
573,A5,87.875,0.125,39,100.0
574,G#5,88.0,0.125,44,100.0
575,C#5,88.0,0.5,53,100.0
576,A5,88.125,0.125,39,100.0
577,G#5,88.25,0.125,44,100.0
578,A5,88.375,0.125,39,100.0
579,E3,88.375,83/1000,30,100.0
580,G#3,88.458,83/1000,30,100.0
581,G#5,88.5,0.125,44,100.0
582,E4,88.542,83/1000,30,100.0
583,A5,88.625,0.125,39,100.0
584,C#4,88.625,1.0,42,100.0
585,E-5,88.75,0.25,49,100.0
586,G#5,88.75,0.125,44,100.0
587,A5,88.875,0.125,39,100.0
588,G#5,89.0,0.125,44,100.0
589,E5,89.0,0.5,50,100.0
590,A5,89.125,0.125,39,100.0
591,G#5,89.25,0.125,44,100.0
592,A5,89.375,0.125,39,100.0
593,G#5,89.5,0.125,60,100.0
594,A5,89.625,0.125,39,100.0
595,G#2,89.625,0.5,42,100.0
596,G#5,89.75,0.125,44,100.0
597,A5,89.875,0.125,39,100.0
598,G#5,90.0,0.125,44,100.0
599,C#6,90.0,0.5,65,100.0
600,A5,90.125,0.125,39,100.0
601,G#5,90.25,0.125,44,100.0
602,A5,90.375,0.125,39,100.0
603,G#3,90.375,83/1000,30,100.0
604,C#4,90.458,83/1000,30,100.0
605,G#5,90.5,0.125,44,100.0
606,E6,90.5,0.5,66,100.0
607,G#4,90.542,83/1000,30,100.0
608,A5,90.625,0.125,39,100.0
609,E4,90.625,1.0,42,100.0
610,G#5,90.75,0.125,44,100.0
611,A5,90.875,0.125,39,100.0
612,G#5,91.0,1/10,59,100.0
613,E-6,91.1,1/10,42,100.0
614,G#6,91.2,1/10,51,100.0
615,E-6,91.3,1/10,45,100.0
616,G#5,91.4,3/40,39,100.0
617,G#5,91.5,0.094,58,100.0
618,G#5,91.625,0.125,40,100.0
619,G#1,91.625,1.0,46,100.0
620,G#6,91.75,0.125,51,100.0
621,G#5,91.875,0.125,40,100.0
622,C6,92.0,0.25,65,100.0
623,G#6,92.125,0.125,52,100.0
624,E-6,92.25,0.125,41,100.0
625,C6,92.375,0.125,41,100.0
626,G#3,92.375,83/1000,31,100.0
627,C4,92.458,83/1000,31,100.0
628,C#6,92.5,0.25,61,100.0
629,G#4,92.542,83/1000,31,100.0
630,G#6,92.625,0.125,49,100.0
631,E-4,92.625,1.0,46,100.0
632,C#6,92.75,0.125,39,100.0
633,G#5,92.875,0.125,39,100.0
634,E-6,93.0,0.125,63,100.0
635,G#6,93.125,0.125,51,100.0
636,E-6,93.25,0.125,41,100.0
637,G#5,93.375,0.125,41,100.0
638,F#6,93.5,0.125,58,100.0
639,G#6,93.625,0.125,48,100.0
640,G#2,93.625,1.0,46,100.0
641,F#6,93.75,0.125,41,100.0
642,G#5,93.875,0.125,41,100.0
643,E6,94.0,0.125,63,100.0
644,G#6,94.125,0.125,49,100.0
645,E6,94.25,0.125,40,100.0
646,G#5,94.375,0.125,40,100.0
647,E-4,94.375,83/1000,33,100.0
648,C5,94.458,83/1000,33,100.0
649,E-6,94.5,0.125,60,100.0
650,E-5,94.542,83/1000,33,100.0
651,G#6,94.625,0.125,48,100.0
652,G#4,94.625,1.0,46,100.0
653,E-6,94.75,0.125,41,100.0
654,G#5,94.875,0.094,41,100.0
655,G#5,95.0,1/10,65,100.0
656,C#6,95.1,1/10,42,100.0
657,G#6,95.2,1/10,51,100.0
658,C#6,95.3,3/40,45,100.0
659,G#5,95.4,3/40,39,100.0
660,G#5,95.5,0.094,58,100.0
661,G#5,95.625,0.125,40,100.0
662,G#1,95.625,1.0,46,100.0
663,G#6,95.75,0.125,51,100.0
664,G#5,95.875,0.125,40,100.0
665,C#6,96.0,0.25,65,100.0
666,G#6,96.125,0.125,52,100.0
667,C#6,96.25,0.125,41,100.0
668,G#5,96.375,0.125,41,100.0
669,G#3,96.375,83/1000,31,100.0
670,C#4,96.458,83/1000,31,100.0
671,E-6,96.5,0.25,63,100.0
672,G#4,96.542,83/1000,31,100.0
673,G#6,96.625,0.125,49,100.0
674,E4,96.625,1.0,46,100.0
675,E-6,96.75,0.125,39,100.0
676,G#5,96.875,0.125,39,100.0
677,E6,97.0,0.125,64,100.0
678,G#6,97.125,0.125,51,100.0
679,E6,97.25,0.125,41,100.0
680,G#5,97.375,0.125,41,100.0
681,G#6,97.5,0.125,53,100.0
682,G#5,97.625,0.125,44,100.0
683,G#2,97.625,1.0,46,100.0
684,G#6,97.75,0.125,51,100.0
685,G#5,97.875,0.125,41,100.0
686,F#6,98.0,0.125,63,100.0
687,G#6,98.125,0.125,49,100.0
688,F#6,98.25,0.125,40,100.0
689,G#5,98.375,0.125,40,100.0
690,E4,98.375,83/1000,33,100.0
691,C#5,98.458,83/1000,33,100.0
692,E6,98.5,0.125,63,100.0
693,E5,98.542,83/1000,33,100.0
694,G#6,98.625,0.125,48,100.0
695,G#4,98.625,1.0,46,100.0
696,E6,98.75,0.125,41,100.0
697,G#5,98.875,0.125,41,100.0
698,E-6,99.0,1/10,64,100.0
699,G#6,99.1,1/10,46,100.0
700,A6,99.2,1/10,51,100.0
701,G#6,99.3,1/10,45,100.0
702,E-6,99.4,1/10,39,100.0
703,G#5,99.5,1/10,63,100.0
704,G#6,99.6,1/10,46,100.0
705,G#1,99.625,1.0,46,100.0
706,A6,99.7,1/10,52,100.0
707,G#6,99.8,1/10,46,100.0
708,G#5,99.9,1/10,40,100.0
709,C6,100.0,1/10,60,100.0
710,G#6,100.1,1/10,47,100.0
711,A6,100.2,1/10,53,100.0
712,G#6,100.3,1/10,46,100.0
713,G#3,100.375,83/1000,31,100.0
714,G#5,100.4,1/10,40,100.0
715,C4,100.458,83/1000,31,100.0
716,C#6,100.5,1/10,61,100.0
717,G#4,100.542,83/1000,31,100.0
718,G#6,100.6,1/10,48,100.0
719,E-4,100.625,1.0,47,100.0
720,A6,100.7,1/10,54,100.0
721,G#6,100.8,1/10,47,100.0
722,G#5,100.9,1/10,41,100.0
723,E-6,101.0,1/10,66,100.0
724,G#6,101.1,1/10,49,100.0
725,A6,101.2,1/10,55,100.0
726,G#6,101.3,1/10,48,100.0
727,G#5,101.4,1/10,42,100.0
728,F#6,101.5,1/10,64,100.0
729,G#6,101.6,1/10,50,100.0
730,G#2,101.625,1.0,49,100.0
731,A6,101.7,1/10,56,100.0
732,G#6,101.8,1/10,49,100.0
733,G#5,101.9,1/10,42,100.0
734,E6,102.0,1/10,65,100.0
735,G#6,102.1,1/10,51,100.0
736,A6,102.2,1/10,57,100.0
737,G#6,102.3,1/10,50,100.0
738,E-4,102.375,83/1000,34,100.0
739,G#5,102.4,1/10,43,100.0
740,C5,102.458,83/1000,34,100.0
741,E-6,102.5,1/10,66,100.0
742,E-5,102.542,83/1000,34,100.0
743,G#6,102.6,1/10,51,100.0
744,G#4,102.625,1.0,51,100.0
745,A6,102.7,1/10,57,100.0
746,G#6,102.8,1/10,51,100.0
747,G#5,102.9,1/10,44,100.0
748,C#6,103.0,0.5,67,100.0
749,G#6,103.0,0.125,55,100.0
750,A6,103.125,0.125,48,100.0
751,G#6,103.25,0.125,55,100.0
752,A6,103.375,0.125,48,100.0
753,G#6,103.5,0.125,55,100.0
754,A6,103.625,0.125,48,100.0
755,G#1,103.625,1.0,48,100.0
756,G#6,103.75,0.125,55,100.0
757,A6,103.875,0.125,48,100.0
758,G#6,104.0,0.125,55,100.0
759,C#6,104.0,0.5,66,100.0
760,A6,104.125,0.125,48,100.0
761,G#6,104.25,0.125,55,100.0
762,A6,104.375,0.125,48,100.0
763,G#3,104.375,83/1000,34,100.0
764,C#4,104.458,83/1000,34,100.0
765,G#6,104.5,0.125,55,100.0
766,G#4,104.542,83/1000,34,100.0
767,A6,104.625,0.125,48,100.0
768,E4,104.625,1.0,48,100.0
769,C6,104.75,0.25,60,100.0
770,G#6,104.75,0.125,55,100.0
771,A6,104.875,0.125,48,100.0
772,C#6,105.0,1.0,63,100.0
773,G#6,105.0,0.125,55,100.0
774,A6,105.125,0.125,48,100.0
775,G#6,105.25,0.125,55,100.0
776,A6,105.375,0.125,48,100.0
777,G#6,105.5,0.125,58,100.0
778,A6,105.625,0.125,48,100.0
779,G#2,105.625,1.0,48,100.0
780,G#6,105.75,0.125,55,100.0
781,A6,105.875,0.125,48,100.0
782,E6,106.0,23/250,52,100.0
783,G#6,106.092,23/250,47,100.0
784,E7,106.183,23/250,54,100.0
785,E-7,106.275,23/250,51,100.0
786,C#7,106.365,23/250,49,100.0
787,E4,106.375,83/1000,34,100.0
788,G#6,106.456,23/250,47,100.0
789,C#5,106.458,83/1000,34,100.0
790,E5,106.542,83/1000,34,100.0
791,E6,106.548,23/250,45,100.0
792,G#4,106.625,1.0,42,100.0
793,E-6,106.64,23/250,42,100.0
794,C#6,106.731,23/250,40,100.0
795,G#5,106.821,23/250,38,100.0
796,E5,106.912,11/125,41,100.0
797,E-5,107.0,0.125,53,100.0
798,E5,107.375,0.125,37,100.0
799,F#5,107.5,0.125,47,100.0
800,G#2,107.625,0.125,42,100.0
801,G#5,107.875,0.125,43,100.0
802,E-3,107.875,0.125,34,100.0
803,A5,108.0,0.125,51,100.0
804,F#3,108.125,0.125,34,100.0
805,G#5,108.375,0.125,42,100.0
806,C4,108.375,0.125,34,100.0
807,B5,108.5,0.125,51,100.0
808,E-4,108.625,0.125,42,100.0
809,A5,108.875,0.125,46,100.0
810,G#4,108.875,0.125,35,100.0
811,G#5,109.0,0.25,54,100.0
812,E-4,109.125,0.125,35,100.0
813,G#4,109.375,0.375,51,100.0
814,G#4,109.375,0.125,35,100.0
815,G#5,109.5,0.25,55,100.0
816,G#2,109.625,0.125,42,100.0
817,B-4,109.875,0.375,53,100.0
818,E-3,109.875,0.125,34,100.0
819,G#5,110.0,0.25,58,100.0
820,F#3,110.125,0.125,34,100.0
821,C5,110.375,0.375,55,100.0
822,C4,110.375,0.125,34,100.0
823,G#5,110.5,0.25,60,100.0
824,E-4,110.625,0.125,42,100.0
825,C#5,110.875,0.062,37,100.0
826,G#4,110.875,0.125,35,100.0
827,E-5,110.938,0.062,37,100.0
828,C#5,111.0,0.125,50,100.0
829,E-4,111.125,0.125,35,100.0
830,C5,111.375,0.125,37,100.0
831,G#4,111.375,0.125,35,100.0
832,C#5,111.5,0.125,48,100.0
833,G#2,111.625,0.125,42,100.0
834,E-5,111.875,0.062,39,100.0
835,E3,111.875,0.125,34,100.0
836,E5,111.938,0.031,34,100.0
837,F#5,111.938,0.031,34,100.0
838,E5,112.0,0.125,51,100.0
839,G#3,112.125,0.125,34,100.0
840,E-5,112.375,0.125,42,100.0
841,C#4,112.375,0.125,34,100.0
842,E5,112.5,0.125,53,100.0
843,E4,112.625,0.125,42,100.0
844,F#5,112.875,0.125,42,100.0
845,G#4,112.875,0.125,35,100.0
846,G5,113.0,0.125,55,100.0
847,E4,113.125,0.125,35,100.0
848,G#5,113.375,0.125,45,100.0
849,G#4,113.375,0.125,35,100.0
850,A5,113.5,0.125,54,100.0
851,G#2,113.625,0.125,43,100.0
852,G#5,113.875,0.125,48,100.0
853,E3,113.875,0.125,34,100.0
854,F#5,114.0,0.125,55,100.0
855,G#3,114.125,0.125,39,100.0
856,E5,114.375,0.125,42,100.0
857,C#4,114.375,0.125,34,100.0
858,E-5,114.5,0.125,52,100.0
859,G#5,114.5,0.125,52,100.0
860,E4,114.625,0.125,45,100.0
861,C#5,114.875,0.062,42,100.0
862,G#4,114.875,0.125,35,100.0
863,C5,114.938,0.062,49,100.0
864,E-6,115.0,0.125,57,100.0
865,C5,115.0,1.0,49,100.0
866,E4,115.125,0.125,41,100.0
867,E6,115.375,0.125,55,100.0
868,G#4,115.375,0.125,35,100.0
869,F#6,115.5,0.125,62,100.0
870,G#2,115.625,0.125,43,100.0
871,G#6,115.875,0.125,55,100.0
872,E-3,115.875,0.125,34,100.0
873,A6,116.0,0.125,61,100.0
874,F#3,116.125,0.125,39,100.0
875,G#6,116.375,0.125,49,100.0
876,C4,116.375,0.125,34,100.0
877,B6,116.5,0.125,57,100.0
878,E-4,116.625,0.125,45,100.0
879,A6,116.875,0.125,51,100.0
880,G#4,116.875,0.125,35,100.0
881,G#6,117.0,0.25,60,100.0
882,E-4,117.125,0.125,41,100.0
883,G#4,117.375,0.375,51,100.0
884,G#4,117.375,0.125,35,100.0
885,G#5,117.5,0.25,58,100.0
886,G#2,117.625,0.125,42,100.0
887,B-4,117.875,0.375,53,100.0
888,E-3,117.875,0.125,34,100.0
889,G#5,118.0,0.25,62,100.0
890,B-5,118.0,0.25,62,100.0
891,F#3,118.125,0.125,34,100.0
892,C5,118.375,0.375,55,100.0
893,C4,118.375,0.125,34,100.0
894,C6,118.5,0.25,65,100.0
895,G#5,118.5,0.25,65,100.0
896,E-4,118.625,0.125,42,100.0
897,G#4,118.875,0.125,35,100.0
898,C#5,118.875,21/500,58,100.0
899,G#5,118.875,21/500,58,100.0
900,E-6,118.958,21/500,66,100.0
901,C#6,119.0,0.125,62,100.0
902,E-6,119.125,0.125,40,100.0
903,E-4,119.125,0.125,35,100.0
904,C#6,119.25,0.125,50,100.0
905,E-6,119.375,0.125,40,100.0
906,G#4,119.375,0.125,35,100.0
907,C#6,119.5,0.125,49,100.0
908,E-6,119.625,0.125,40,100.0
909,C#2,119.625,0.125,46,100.0
910,C#6,119.75,0.125,47,100.0
911,E-6,119.875,0.125,39,100.0
912,G#2,119.875,0.125,37,100.0
913,C#6,120.0,0.125,47,100.0
914,E-6,120.125,0.125,39,100.0
915,F3,120.125,0.125,37,100.0
916,C#6,120.25,0.125,46,100.0
917,E-6,120.375,0.125,39,100.0
918,G#3,120.375,0.125,37,100.0
919,C#6,120.5,0.125,46,100.0
920,E-6,120.625,0.125,39,100.0
921,C#4,120.625,0.125,45,100.0
922,C#6,120.75,0.125,45,100.0
923,E-6,120.875,0.125,39,100.0
924,G#4,120.875,0.125,37,100.0
925,C#6,121.0,0.125,51,100.0
926,E-6,121.125,0.125,38,100.0
927,C#4,121.125,0.125,37,100.0
928,C#6,121.25,0.125,48,100.0
929,E-6,121.375,0.125,38,100.0
930,G#4,121.375,0.125,37,100.0
931,C#6,121.5,0.125,46,100.0
932,E-6,121.625,0.125,38,100.0
933,C#3,121.625,0.125,44,100.0
934,C#6,121.75,0.125,45,100.0
935,E-6,121.875,0.125,38,100.0
936,G#3,121.875,0.125,35,100.0
937,C#6,122.0,0.125,45,100.0
938,E-6,122.125,0.125,38,100.0
939,F4,122.125,0.125,35,100.0
940,C#6,122.25,0.125,43,100.0
941,E-6,122.375,0.125,37,100.0
942,G#4,122.375,0.125,35,100.0
943,C#6,122.5,0.125,43,100.0
944,E-6,122.625,0.125,37,100.0
945,C#5,122.625,0.125,43,100.0
946,C#6,122.75,0.125,43,100.0
947,E-6,122.875,0.125,37,100.0
948,G#5,122.875,0.125,35,100.0
949,C#6,123.0,0.125,38,100.0
950,F5,123.0,0.125,38,100.0
951,E-6,123.125,0.125,33,100.0
952,C#5,123.125,0.125,35,100.0
953,C#6,123.25,0.125,36,100.0
954,F5,123.25,0.125,36,100.0
955,E-6,123.375,0.125,33,100.0
956,G#5,123.375,0.125,35,100.0
957,F5,123.5,0.125,38,100.0
958,C#6,123.5,0.125,38,100.0
959,E-6,123.625,0.125,35,100.0
960,C#5,123.625,0.125,31,100.0
961,G#5,123.75,0.125,26,100.0
962,F5,123.75,0.125,38,100.0
963,C#6,123.75,0.125,38,100.0
964,E-6,123.875,0.125,36,100.0
965,C#5,123.875,0.125,31,100.0
966,G#5,124.0,0.125,26,100.0
967,C#6,124.0,0.125,40,100.0
968,F5,124.0,0.125,40,100.0
969,E-6,124.125,0.125,37,100.0
970,C#5,124.125,0.125,33,100.0
971,G#5,124.25,0.125,27,100.0
972,C#6,124.25,0.125,40,100.0
973,F5,124.25,0.125,40,100.0
974,E-6,124.375,0.125,38,100.0
975,C#5,124.375,0.125,33,100.0
976,G#5,124.5,0.125,28,100.0
977,F5,124.5,0.125,40,100.0
978,C#6,124.5,0.125,40,100.0
979,E-6,124.625,0.125,40,100.0
980,C#5,124.625,0.125,35,100.0
981,G#5,124.75,0.125,30,100.0
982,F5,124.75,0.125,42,100.0
983,C#6,124.75,0.125,42,100.0
984,E-6,124.875,0.125,41,100.0
985,C#5,124.875,0.125,36,100.0
986,G#5,125.0,0.125,32,100.0
987,C#6,125.0,0.125,48,100.0
988,F5,125.0,0.125,48,100.0
989,E-6,125.125,0.125,42,100.0
990,C#5,125.125,0.125,36,100.0
991,G#5,125.25,0.125,33,100.0
992,F5,125.25,0.125,45,100.0
993,C#6,125.25,0.125,45,100.0
994,E-6,125.375,0.125,40,100.0
995,C#5,125.375,0.125,38,100.0
996,G#5,125.5,0.125,34,100.0
997,C#6,125.5,0.125,42,100.0
998,F5,125.5,0.125,42,100.0
999,E-6,125.625,0.125,39,100.0
1000,C#5,125.625,0.125,40,100.0
1001,G#5,125.75,0.125,33,100.0
1002,C#6,125.75,0.125,40,100.0
1003,F5,125.75,0.125,40,100.0
1004,E-6,125.875,0.125,37,100.0
1005,C#5,125.875,0.125,39,100.0
1006,G#5,126.0,0.125,31,100.0
1007,F5,126.0,0.125,40,100.0
1008,C#6,126.0,0.125,40,100.0
1009,E-6,126.125,0.125,36,100.0
1010,C#5,126.125,0.125,37,100.0
1011,G#5,126.25,0.125,30,100.0
1012,F5,126.25,0.125,37,100.0
1013,C#6,126.25,0.125,37,100.0
1014,E-6,126.375,0.125,35,100.0
1015,C#5,126.375,0.125,36,100.0
1016,G#5,126.5,0.125,29,100.0
1017,C#6,126.5,0.125,36,100.0
1018,F5,126.5,0.125,36,100.0
1019,E-6,126.625,0.125,33,100.0
1020,C#5,126.625,0.125,35,100.0
1021,G#5,126.75,0.125,29,100.0
1022,F5,126.75,0.125,34,100.0
1023,C#6,126.75,0.125,34,100.0
1024,E-6,126.875,0.125,32,100.0
1025,C#5,126.875,0.125,33,100.0
1026,G#5,127.0,0.125,29,100.0
1027,F5,127.0,0.125,39,100.0
1028,C#6,127.0,0.125,39,100.0
1029,C6,127.125,0.125,33,100.0
1030,C#5,127.125,0.125,32,100.0
1031,E-6,127.25,0.125,42,100.0
1032,G#5,127.25,0.125,28,100.0
1033,C#6,127.375,0.125,37,100.0
1034,C#5,127.375,0.125,31,100.0
1035,F6,127.5,0.125,47,100.0
1036,G#5,127.5,0.125,26,100.0
1037,E-6,127.625,0.125,44,100.0
1038,C#5,127.625,0.062,31,100.0
1039,G#5,127.688,0.125,31,100.0
1040,C#6,127.75,0.125,41,100.0
1041,G#5,127.875,0.125,39,100.0
1042,F5,128.0,0.125,44,100.0
1043,E-5,128.125,0.125,39,100.0
1044,C#5,128.25,0.125,39,100.0
1045,G#4,128.375,0.125,39,100.0
1046,F4,128.5,0.125,42,100.0
1047,G#4,128.625,0.125,36,100.0
1048,C#5,128.75,0.125,39,100.0
1049,E-5,128.875,0.125,43,100.0
1050,F5,129.0,0.125,46,100.0
1051,G#5,129.125,0.125,42,100.0
1052,C#6,129.25,0.125,44,100.0
1053,E-6,129.375,0.125,46,100.0
1054,F6,129.5,0.125,52,100.0
1055,G#6,129.625,0.125,46,100.0
1056,C#7,129.75,0.125,53,100.0
1057,G#6,129.875,0.125,46,100.0
1058,E-7,130.0,0.125,59,100.0
1059,C#7,130.125,0.125,52,100.0
1060,F7,130.25,0.125,59,100.0
1061,E-7,130.375,0.125,53,100.0
1062,C#7,130.5,0.125,59,100.0
1063,G#6,130.625,0.125,54,100.0
1064,F6,130.75,0.125,59,100.0
1065,C#7,130.875,0.125,59,100.0
1066,G#6,131.0,0.125,65,100.0
1067,F6,131.125,0.125,56,100.0
1068,E-6,131.25,0.125,56,100.0
1069,C#6,131.375,0.125,40,100.0
1070,F6,131.5,0.125,58,100.0
1071,E-6,131.625,0.125,51,100.0
1072,C#6,131.75,0.125,50,100.0
1073,G#5,131.875,0.125,50,100.0
1074,F5,132.0,0.125,62,100.0
1075,C#6,132.125,0.125,52,100.0
1076,G#5,132.25,0.125,59,100.0
1077,F5,132.375,0.125,55,100.0
1078,E-5,132.5,0.125,63,100.0
1079,C#5,132.625,0.125,56,100.0
1080,F5,132.75,0.125,57,100.0
1081,E-5,132.875,0.125,58,100.0
1082,C#5,133.0,0.125,69,100.0
1083,G#4,133.125,0.125,60,100.0
1084,F4,133.25,0.125,63,100.0
1085,C#5,133.375,0.125,58,100.0
1086,G#4,133.5,0.125,69,100.0
1087,F4,133.625,0.125,64,100.0
1088,E-4,133.75,0.125,66,100.0
1089,C#4,133.875,0.125,68,100.0
1090,F4,134.0,167/1000,70,100.0
1091,E-4,134.167,167/1000,77,100.0
1092,C#4,134.333,73/500,82,100.0
1093,C#4,134.5,1.5,85,100.0
1094,C#2,135.875,0.188,61,100.0
1095,F3,135.875,0.188,61,100.0
1096,G#2,135.875,0.188,61,100.0
1097,C#3,135.875,0.188,61,100.0
1098,G#3,135.875,0.188,61,100.0
1099,C#4,136.0,167/1000,73,100.0
1100,C#2,136.125,0.5,69,100.0
1101,G#3,136.125,0.5,69,100.0
1102,C#3,136.125,0.5,69,100.0
1103,F3,136.125,0.5,69,100.0
1104,G#2,136.125,0.5,69,100.0
1105,B3,136.167,167/1000,70,100.0
1106,C#4,136.333,167/1000,68,100.0
1107,B3,136.5,8/5,77,100.0
1108,F#3,137.875,0.188,61,100.0
1109,B2,137.875,0.188,61,100.0
1110,F#2,137.875,0.188,61,100.0
1111,D3,137.875,0.188,61,100.0
1112,D2,137.875,0.188,61,100.0
1113,C#4,138.1,1/10,64,100.0
1114,F#2,138.125,0.5,70,100.0
1115,B2,138.125,0.5,70,100.0
1116,D2,138.125,0.5,70,100.0
1117,F#3,138.125,0.5,70,100.0
1118,D3,138.125,0.5,70,100.0
1119,E4,138.2,1/10,70,100.0
1120,D4,138.3,1/10,66,100.0
1121,C#4,138.4,83/1000,66,100.0
1122,C#4,138.5,1667/1000,74,100.0
1123,C#3,139.875,0.188,61,100.0
1124,G#2,139.875,0.188,61,100.0
1125,G#3,139.875,0.188,61,100.0
1126,C#2,139.875,0.188,61,100.0
1127,F3,139.875,0.188,61,100.0
1128,C#4,140.0,0.5,73,100.0
1129,C#3,140.125,0.5,69,100.0
1130,C#2,140.125,0.5,69,100.0
1131,G#2,140.125,0.5,69,100.0
1132,G#3,140.125,0.5,69,100.0
1133,F3,140.125,0.5,69,100.0
1134,B3,140.167,167/1000,70,100.0
1135,C#4,140.333,167/1000,68,100.0
1136,B3,140.5,777/500,77,100.0
1137,F#2,141.875,0.188,55,100.0
1138,D3,141.875,0.188,55,100.0
1139,D2,141.875,0.188,55,100.0
1140,B2,141.875,0.188,55,100.0
1141,F#3,141.875,0.188,55,100.0
1142,A3,142.056,81/1000,54,100.0
1143,F#3,142.125,0.5,62,100.0
1144,D2,142.125,0.5,62,100.0
1145,B2,142.125,0.5,62,100.0
1146,F#2,142.125,0.5,62,100.0
1147,D3,142.125,0.5,62,100.0
1148,G#3,142.165,83/1000,62,100.0
1149,B3,142.248,83/1000,56,100.0
1150,A3,142.331,81/1000,56,100.0
1151,G#3,142.412,17/200,56,100.0
1152,G#3,142.5,499/250,65,100.0
1153,C#3,143.875,26/125,52,100.0
1154,G#2,143.875,26/125,52,100.0
1155,C#2,143.875,26/125,52,100.0
1156,F3,143.875,26/125,52,100.0
1157,F3,144.125,0.5,60,100.0
1158,C#2,144.125,0.5,60,100.0
1159,G#2,144.125,0.5,60,100.0
1160,C#3,144.125,0.5,60,100.0
1161,G#3,144.25,0.25,46,100.0
1162,G#3,144.5,777/500,54,100.0
1163,E3,145.875,0.188,41,100.0
1164,E2,145.875,0.188,41,100.0
1165,G#2,145.875,0.188,41,100.0
1166,C#3,145.875,0.188,41,100.0
1167,A3,146.056,81/1000,45,100.0
1168,C#3,146.125,0.5,45,100.0
1169,G#2,146.125,0.5,45,100.0
1170,E3,146.125,0.5,45,100.0
1171,E2,146.125,0.5,45,100.0
1172,G#3,146.165,83/1000,44,100.0
1173,B3,146.248,83/1000,50,100.0
1174,A3,146.331,81/1000,44,100.0
1175,G#3,146.412,83/1000,41,100.0
1176,G#3,146.5,2.0,56,100.0
1177,G#2,147.875,0.188,35,100.0
1178,E-3,147.875,0.188,35,100.0
1179,C#3,147.875,0.188,35,100.0
1180,C#3,148.125,0.5,41,100.0
1181,G#2,148.125,0.5,41,100.0
1182,E-3,148.125,0.5,41,100.0
1183,G#3,148.5,1.5,56,100.0
1184,C3,149.0,0.5,27,100.0
1185,F#3,149.0,0.5,27,100.0
1186,E-3,149.0,0.5,27,100.0
1187,G#2,149.625,0.5,26,100.0
1188,G#1,151.625,0.5,39,100.0
1189,A1,152.125,0.75,42,100.0
1190,B1,152.875,0.25,46,100.0
1191,C#2,153.125,0.25,55,100.0
1192,C#4,153.5,1.0,34,100.0
1193,E3,153.5,1.0,34,100.0
1194,E4,153.5,1.0,34,100.0
1195,G#3,153.5,1.0,34,100.0
1196,C#2,154.0,0.125,42,100.0
1197,C#3,154.125,1.0,52,100.0
1198,F#1,155.125,0.5,47,100.0
1199,C#3,155.125,0.25,52,100.0
1200,C3,155.375,0.25,43,100.0
1201,C#4,155.5,1.0,34,100.0
1202,F#4,155.5,1.0,34,100.0
1203,A4,155.5,1.0,34,100.0
1204,A3,155.5,1.0,34,100.0
1205,C#3,155.625,0.25,52,100.0
1206,E-3,155.875,0.25,55,100.0
1207,E3,156.125,0.25,57,100.0
1208,A2,156.375,0.25,48,100.0
1209,E3,156.625,0.25,55,100.0
1210,E-3,156.875,0.25,43,100.0
1211,C#3,157.125,0.25,51,100.0
1212,C#4,157.5,1.0,34,100.0
1213,E3,157.5,1.0,34,100.0
1214,E4,157.5,1.0,34,100.0
1215,G#3,157.5,1.0,34,100.0
1216,C#2,157.875,0.062,43,100.0
1217,G#2,157.938,0.062,45,100.0
1218,C#3,158.0,0.062,46,100.0
1219,E-3,158.062,0.062,48,100.0
1220,C#3,158.125,0.75,56,100.0
1221,C3,158.875,0.25,48,100.0
1222,C#3,159.125,1.75,56,100.0
1223,E4,159.5,1.0,34,100.0
1224,G#3,159.5,1.0,34,100.0
1225,E3,159.5,1.0,34,100.0
1226,C#4,159.5,1.0,34,100.0
1227,C#2,160.125,0.5,43,100.0
1228,E-3,160.875,0.125,49,100.0
1229,B1,161.0,0.125,53,100.0
1230,E3,161.125,0.25,57,100.0
1231,B1,161.125,0.25,53,100.0
1232,G#4,161.5,1.0,34,100.0
1233,B3,161.5,1.0,34,100.0
1234,G#3,161.5,1.0,34,100.0
1235,E4,161.5,1.0,34,100.0
1236,E3,162.125,1.0,63,100.0
1237,B1,163.125,0.5,48,100.0
1238,E3,163.125,0.25,63,100.0
1239,E-3,163.375,0.25,46,100.0
1240,A3,163.5,1.0,34,100.0
1241,E-4,163.5,1.0,34,100.0
1242,B3,163.5,1.0,34,100.0
1243,B4,163.5,1.0,34,100.0
1244,E3,163.625,0.25,56,100.0
1245,F#3,163.875,0.25,61,100.0
1246,G#3,164.125,0.25,66,100.0
1247,B2,164.375,0.25,53,100.0
1248,G#3,164.625,0.25,60,100.0
1249,F#3,164.875,0.25,48,100.0
1250,E3,165.125,0.25,61,100.0
1251,G#4,165.5,1.0,34,100.0
1252,G#3,165.5,1.0,34,100.0
1253,B3,165.5,1.0,34,100.0
1254,E4,165.5,1.0,34,100.0
1255,C#2,165.875,0.062,48,100.0
1256,B2,165.938,0.062,49,100.0
1257,E3,166.0,0.062,50,100.0
1258,F#3,166.062,0.062,51,100.0
1259,E3,166.125,0.75,64,100.0
1260,E-3,166.875,0.25,51,100.0
1261,E3,167.125,0.25,59,100.0
1262,E4,167.5,0.75,56,100.0
1263,C4,167.5,1.0,47,100.0
1264,G#4,167.5,1.0,47,100.0
1265,G#3,167.5,1.0,47,100.0
1266,F#3,167.5,1.0,47,100.0
1267,E3,168.125,0.75,44,100.0
1268,G#2,168.125,1.0,48,100.0
1269,E-4,168.25,0.125,57,100.0
1270,E-3,168.875,0.125,45,100.0
1271,C#2,169.0,0.062,39,100.0
1272,C#3,169.062,0.062,41,100.0
1273,C#4,169.125,0.5,64,100.0
1274,C#4,169.5,1.0,55,100.0
1275,C#5,169.5,1.0,75,100.0
1276,E4,169.5,1.0,63,100.0
1277,G#4,169.5,1.0,63,100.0
1278,C#3,170.125,1.0,57,100.0
1279,C#4,170.5,0.25,55,100.0
1280,C#5,170.5,0.5,75,100.0
1281,A4,170.5,0.5,62,100.0
1282,F#4,170.5,0.5,62,100.0
1283,C4,170.75,0.25,67,100.0
1284,C#4,171.0,0.25,69,100.0
1285,F#1,171.125,0.5,47,100.0
1286,C#3,171.125,0.25,57,100.0
1287,E-4,171.25,0.25,72,100.0
1288,C3,171.375,0.25,43,100.0
1289,E4,171.5,0.25,74,100.0
1290,C#3,171.625,0.25,52,100.0
1291,A3,171.75,0.25,65,100.0
1292,E-3,171.875,0.25,55,100.0
1293,E4,172.0,0.25,74,100.0
1294,E3,172.125,0.25,57,100.0
1295,E-4,172.25,0.25,66,100.0
1296,A2,172.375,0.25,48,100.0
1297,C#4,172.5,0.25,78,100.0
1298,E3,172.625,0.25,55,100.0
1299,E-3,172.875,0.25,43,100.0
1300,C#3,173.125,0.25,51,100.0
1301,C#4,173.25,0.125,63,100.0
1302,E-4,173.375,0.125,63,100.0
1303,C#4,173.5,0.75,70,100.0
1304,C#5,173.5,0.5,61,100.0
1305,E4,173.5,0.5,61,100.0
1306,G#4,173.5,0.5,61,100.0
1307,C#3,174.125,0.75,56,100.0
1308,C#2,174.125,0.5,61,100.0
1309,C4,174.25,0.25,72,100.0
1310,C#4,174.5,0.25,78,100.0
1311,C3,174.875,0.25,57,100.0
1312,C#3,175.125,0.25,81,100.0
1313,G4,175.5,0.812,66,100.0
1314,C#5,175.5,0.812,66,100.0
1315,E4,175.5,0.812,66,100.0
1316,E5,175.5,0.812,66,100.0
1317,B-2,176.125,0.5,66,100.0
1318,G3,176.125,1.0,57,100.0
1319,E3,176.125,1.0,57,100.0
1320,C#4,176.125,1.0,57,100.0
1321,G#5,176.5,0.25,74,100.0
1322,G#4,176.5,0.25,74,100.0
1323,C#5,176.5,0.25,74,100.0
1324,A2,176.625,0.312,77,100.0
1325,G#2,176.938,0.188,55,100.0
1326,E3,177.0,0.125,55,100.0
1327,G#3,177.062,0.062,55,100.0
1328,E4,177.125,0.25,69,100.0
1329,G#2,177.125,0.25,55,100.0
1330,E3,177.125,0.25,55,100.0
1331,G#3,177.125,0.25,55,100.0
1332,G#1,178.14,197/200,77,100.0
1333,F#4,178.312,0.188,64,100.0
1334,C5,178.375,0.125,67,100.0
1335,E-5,178.438,0.062,71,100.0
1336,A5,178.5,0.5,86,100.0
1337,F#4,178.5,0.5,64,100.0
1338,C5,178.5,0.5,67,100.0
1339,E-5,178.5,0.5,71,100.0
1340,G#1,179.125,7/50,77,100.0
1341,G1,179.25,0.125,38,100.0
1342,G#1,179.375,0.125,39,100.0
1343,A1,179.5,0.125,39,100.0
1344,C2,179.625,0.125,42,100.0
1345,C#2,179.75,0.125,43,100.0
1346,E-2,179.875,0.125,45,100.0
1347,E2,180.0,0.125,47,100.0
1348,F#2,180.125,0.125,49,100.0
1349,G#2,180.25,0.125,51,100.0
1350,B2,180.375,0.125,53,100.0
1351,A2,180.5,0.125,46,100.0
1352,G#2,180.625,0.125,43,100.0
1353,G2,180.75,0.125,43,100.0
1354,G#2,180.875,0.125,45,100.0
1355,A2,181.0,0.125,46,100.0
1356,C3,181.125,0.125,47,100.0
1357,C#3,181.25,0.125,49,100.0
1358,E-3,181.375,0.125,50,100.0
1359,E3,181.5,0.125,51,100.0
1360,F#3,181.625,0.125,52,100.0
1361,G3,181.75,0.125,57,100.0
1362,G#3,181.875,0.125,62,100.0
1363,B3,182.0,0.125,69,100.0
1364,A3,182.125,0.125,58,100.0
1365,G#3,182.25,0.125,47,100.0
1366,A3,182.375,0.125,48,100.0
1367,G4,182.5,0.125,71,100.0
1368,C4,182.5,0.125,49,100.0
1369,G#4,182.625,0.125,76,100.0
1370,C#4,182.625,0.125,50,100.0
1371,B4,182.75,0.125,80,100.0
1372,E-4,182.75,0.125,51,100.0
1373,A4,182.875,0.125,71,100.0
1374,E4,182.875,0.125,52,100.0
1375,G#4,183.0,0.125,64,100.0
1376,F#4,183.0,0.125,53,100.0
1377,A4,183.125,0.125,65,100.0
1378,C5,183.25,0.125,67,100.0
1379,C#5,183.375,0.125,69,100.0
1380,E-5,183.5,18/125,70,100.0
1381,E5,183.644,71/500,72,100.0
1382,F#5,183.785,18/125,74,100.0
1383,G5,183.927,18/125,80,100.0
1384,G#5,184.071,71/500,83,100.0
1385,B5,184.213,18/125,88,100.0
1386,A5,184.354,73/500,82,100.0
1387,G#5,184.5,0.125,69,100.0
1388,A5,184.625,0.125,61,100.0
1389,G#5,184.75,0.125,69,100.0
1390,A5,184.875,0.125,63,100.0
1391,G#5,185.0,0.125,72,100.0
1392,A5,185.125,0.125,64,100.0
1393,G#5,185.25,0.125,72,100.0
1394,A5,185.375,0.125,65,100.0
1395,G#5,185.5,0.125,74,100.0
1396,A5,185.625,0.125,66,100.0
1397,G#5,185.75,0.125,74,100.0
1398,A5,185.875,0.125,67,100.0
1399,G#5,186.0,0.125,76,100.0
1400,A5,186.125,0.125,68,100.0
1401,G#5,186.25,0.125,77,100.0
1402,A5,186.375,0.125,69,100.0
1403,G#5,186.5,0.125,79,100.0
1404,A5,186.625,0.125,70,100.0
1405,G#5,186.75,0.125,79,100.0
1406,A5,186.875,0.125,70,100.0
1407,G#5,187.0,0.125,81,100.0
1408,A5,187.125,0.125,72,100.0
1409,G#5,187.25,0.125,82,100.0
1410,A5,187.375,0.125,73,100.0
1411,G#5,187.5,0.125,83,100.0
1412,A5,187.625,0.125,74,100.0
1413,G#5,187.75,0.125,84,100.0
1414,A5,187.875,0.125,76,100.0
1415,G#5,188.0,0.125,87,100.0
1416,A5,188.125,0.125,76,100.0
1417,G#5,188.25,0.125,86,100.0
1418,A5,188.375,0.125,77,100.0
1419,G#5,188.5,0.125,88,100.0
1420,A5,188.625,0.125,78,100.0
1421,G#5,188.75,0.125,88,100.0
1422,A5,188.875,0.125,79,100.0
1423,G#5,189.0,0.125,91,100.0
1424,A5,189.125,0.125,81,100.0
1425,G#5,189.25,0.125,91,100.0
1426,A5,189.375,0.125,81,100.0
1427,G#5,189.5,0.125,93,100.0
1428,A5,189.625,0.125,82,100.0
1429,G#5,189.75,0.125,93,100.0
1430,A5,189.875,0.125,83,100.0
1431,G#5,190.0,0.125,95,100.0
1432,A5,190.125,0.125,85,100.0
1433,G#5,190.25,0.125,95,100.0
1434,A5,190.375,0.125,85,100.0
1435,G#5,190.5,0.125,97,100.0
1436,A5,190.625,0.125,86,100.0
1437,G#5,190.75,0.125,97,100.0
1438,A5,190.875,0.125,87,100.0
1439,G#5,191.0,0.125,99,100.0
1440,A5,191.125,0.125,88,100.0
1441,G#5,191.25,0.125,100,100.0
1442,A5,191.375,0.125,90,100.0
1443,G#5,191.5,0.125,101,100.0
1444,A5,191.625,0.125,88,100.0
1445,G#5,191.75,0.125,95,100.0
1446,A5,191.875,0.125,82,100.0
1447,G#5,192.0,0.125,91,100.0
1448,A5,192.125,0.125,80,100.0
1449,G#5,192.25,0.125,86,100.0
1450,A5,192.375,0.125,75,100.0
1451,G#5,192.5,0.125,83,100.0
1452,A5,192.625,0.125,71,100.0
1453,G#5,192.75,0.125,79,100.0
1454,A5,192.875,0.125,68,100.0
1455,G#5,193.0,0.125,74,100.0
1456,A5,193.125,0.125,64,100.0
1457,G#5,193.25,0.125,70,100.0
1458,A5,193.375,0.125,61,100.0
1459,G#5,193.5,0.125,66,100.0
1460,A5,193.625,0.125,57,100.0
1461,G#5,193.75,0.125,61,100.0
1462,A5,193.875,0.125,53,100.0
1463,G#5,194.0,0.125,59,100.0
1464,A5,194.125,0.125,50,100.0
1465,G#5,194.25,0.125,54,100.0
1466,A5,194.375,0.125,46,100.0
1467,G#5,194.5,223/1000,47,100.0
1468,A5,194.723,101/500,45,100.0
1469,G#5,194.946,1/5,44,100.0
1470,G5,195.169,1/5,42,100.0
1471,G#5,195.39,101/500,41,100.0
1472,A5,195.613,101/500,39,100.0
1473,B-5,195.835,101/500,38,100.0
1474,B5,196.058,1/5,37,100.0
1475,C6,196.279,1/5,35,100.0
1476,C#6,196.5,0.25,48,100.0
1477,A2,197.125,0.5,36,100.0
1478,E5,197.375,0.625,44,100.0
1479,A5,197.438,1.062,46,100.0
1480,C#6,197.5,1.0,57,100.0
1481,A4,197.875,0.25,29,100.0
1482,E4,197.875,0.25,29,100.0
1483,C#4,197.875,0.25,29,100.0
1484,E4,198.125,1.0,35,100.0
1485,A4,198.125,1.0,35,100.0
1486,C#5,198.125,1.0,35,100.0
1487,A5,198.5,0.25,46,100.0
1488,C#6,198.5,0.25,57,100.0
1489,G#5,198.75,0.25,44,100.0
1490,C6,198.75,0.25,44,100.0
1491,C#6,199.0,0.25,47,100.0
1492,A5,199.0,0.25,47,100.0
1493,C#3,199.125,0.5,42,100.0
1494,E-6,199.25,0.25,49,100.0
1495,B5,199.25,0.25,49,100.0
1496,E6,199.5,0.25,52,100.0
1497,C#6,199.5,0.25,52,100.0
1498,E5,199.75,0.25,46,100.0
1499,A5,199.75,0.25,46,100.0
1500,A4,199.875,0.25,29,100.0
1501,E4,199.875,0.25,29,100.0
1502,C#4,199.875,0.25,29,100.0
1503,E-6,200.0,0.25,50,100.0
1504,B5,200.0,0.25,50,100.0
1505,C#5,200.125,1.0,35,100.0
1506,A4,200.125,1.0,35,100.0
1507,E4,200.125,1.0,35,100.0
1508,C#6,200.25,0.25,45,100.0
1509,A5,200.25,0.25,45,100.0
1510,G#5,200.5,0.25,50,100.0
1511,B5,200.5,0.25,50,100.0
1512,E2,201.125,0.5,42,100.0
1513,B5,201.25,0.125,48,100.0
1514,C#6,201.375,0.125,44,100.0
1515,G#5,201.5,0.75,52,100.0
1516,B5,201.5,0.75,52,100.0
1517,E4,201.875,0.25,29,100.0
1518,G#4,201.875,0.25,29,100.0
1519,B3,201.875,0.25,29,100.0
1520,B4,202.125,1.0,35,100.0
1521,E4,202.125,1.0,35,100.0
1522,G#4,202.125,1.0,35,100.0
1523,B-5,202.25,0.25,48,100.0
1524,G5,202.25,0.25,48,100.0
1525,B5,202.5,0.25,50,100.0
1526,G#5,202.5,0.25,50,100.0
1527,C#6,203.5,1.0,51,100.0
1528,G#5,203.5,1.0,51,100.0
1529,C#5,203.5,1.0,51,100.0
1530,F3,204.125,1.0,43,100.0
1531,C#4,204.125,1.0,43,100.0
1532,G#4,204.125,1.0,43,100.0
1533,A5,204.5,0.25,48,100.0
1534,F#5,204.5,0.25,48,100.0
1535,C#5,204.5,0.25,48,100.0
1536,F#2,205.125,0.5,42,100.0
1537,A5,205.5,1.0,51,100.0
1538,F#5,205.5,1.0,51,100.0
1539,C#5,205.5,1.0,51,100.0
1540,A3,205.875,0.25,29,100.0
1541,F#4,205.875,0.25,29,100.0
1542,C#4,205.875,0.25,29,100.0
1543,F#4,206.125,1.0,35,100.0
1544,A4,206.125,1.0,35,100.0
1545,C#4,206.125,1.0,35,100.0
1546,A5,206.5,0.25,51,100.0
1547,F#5,206.5,0.25,51,100.0
1548,C#5,206.5,0.25,51,100.0
1549,G#5,206.75,0.25,44,100.0
1550,F5,206.75,0.25,44,100.0
1551,A5,207.0,0.25,47,100.0
1552,F#5,207.0,0.25,47,100.0
1553,A2,207.125,0.5,42,100.0
1554,G#5,207.25,0.25,49,100.0
1555,B5,207.25,0.25,49,100.0
1556,C#6,207.5,0.25,52,100.0
1557,A5,207.5,0.25,52,100.0
1558,C#5,207.75,0.25,46,100.0
1559,F#5,207.75,0.25,46,100.0
1560,C#4,207.875,0.25,29,100.0
1561,F#4,207.875,0.25,29,100.0
1562,A3,207.875,0.25,29,100.0
1563,B5,208.0,0.25,50,100.0
1564,G#5,208.0,0.25,50,100.0
1565,C#4,208.125,1.0,35,100.0
1566,A4,208.125,1.0,35,100.0
1567,F#4,208.125,1.0,35,100.0
1568,F#5,208.25,0.25,45,100.0
1569,A5,208.25,0.25,45,100.0
1570,G#5,208.5,0.25,50,100.0
1571,E5,208.5,0.25,50,100.0
1572,C#3,209.125,0.5,42,100.0
1573,G#5,209.25,0.125,48,100.0
1574,A5,209.375,0.125,48,100.0
1575,G#5,209.5,0.75,52,100.0
1576,E5,209.5,0.75,52,100.0
1577,G#3,209.875,0.25,29,100.0
1578,E4,209.875,0.25,29,100.0
1579,C#4,209.875,0.25,29,100.0
1580,G#4,210.125,1.0,35,100.0
1581,E4,210.125,1.0,35,100.0
1582,C#4,210.125,1.0,35,100.0
1583,E-5,210.25,0.25,48,100.0
1584,G5,210.25,0.25,48,100.0
1585,G#5,210.5,1.0,50,100.0
1586,E5,210.5,1.0,50,100.0
1587,C#2,212.75,0.125,39,100.0
1588,E-2,212.875,0.125,43,100.0
1589,E2,213.0,0.125,47,100.0
1590,F#2,213.125,0.5,50,100.0
1591,A4,213.25,83/1000,48,100.0
1592,D5,213.333,83/1000,48,100.0
1593,G#5,213.417,83/1000,48,100.0
1594,F#5,213.5,0.75,52,100.0
1595,D5,213.5,0.75,52,100.0
1596,D4,214.125,1.0,34,100.0
1597,F#3,214.125,1.0,34,100.0
1598,F#4,214.125,1.0,34,100.0
1599,A3,214.125,1.0,34,100.0
1600,C#5,214.25,0.25,48,100.0
1601,F5,214.25,0.25,48,100.0
1602,D5,214.5,0.5,50,100.0
1603,F#5,214.5,0.5,50,100.0
1604,D4,215.125,0.5,34,100.0
1605,F#3,215.125,0.5,34,100.0
1606,F#4,215.125,0.5,34,100.0
1607,A3,215.125,0.5,34,100.0
1608,D2,216.75,0.125,39,100.0
1609,E2,216.875,0.125,43,100.0
1610,F#2,217.0,0.125,47,100.0
1611,G#2,217.125,0.25,50,100.0
1612,F#4,217.25,83/1000,48,100.0
1613,A4,217.333,83/1000,48,100.0
1614,E5,217.417,83/1000,48,100.0
1615,A4,217.5,1.0,48,100.0
1616,D5,217.5,0.75,52,100.0
1617,F#4,217.5,0.75,52,100.0
1618,A3,218.125,1.0,34,100.0
1619,D4,218.125,1.0,34,100.0
1620,C4,218.125,1.0,34,100.0
1621,F#3,218.125,1.0,34,100.0
1622,C#5,218.25,0.25,48,100.0
1623,F4,218.25,0.25,48,100.0
1624,A4,218.5,2.0,48,100.0
1625,D5,218.5,1.75,50,100.0
1626,F#4,218.5,1.75,50,100.0
1627,A3,219.125,0.5,34,100.0
1628,D4,219.125,0.5,34,100.0
1629,C4,219.125,0.5,34,100.0
1630,F#3,219.125,0.5,34,100.0
1631,E4,220.25,0.188,34,100.0
1632,C#5,220.25,0.188,34,100.0
1633,C#5,220.5,0.5,34,100.0
1634,E4,220.5,0.5,34,100.0
1635,A2,221.125,0.5,28,100.0
1636,E4,221.5,1.0,39,100.0
1637,C#5,221.5,1.0,39,100.0
1638,A4,221.5,1.0,39,100.0
1639,C#4,222.125,1.0,28,100.0
1640,E3,222.125,1.0,28,100.0
1641,A3,222.125,1.0,28,100.0
1642,E4,222.5,0.25,39,100.0
1643,C#5,222.5,0.25,39,100.0
1644,A4,222.5,0.25,39,100.0
1645,G#4,222.75,0.25,40,100.0
1646,C5,222.75,0.25,40,100.0
1647,A4,223.0,0.25,42,100.0
1648,C#5,223.0,0.25,42,100.0
1649,C#3,223.125,0.5,37,100.0
1650,B4,223.25,0.25,44,100.0
1651,E-5,223.25,0.25,44,100.0
1652,E5,223.5,0.25,46,100.0
1653,C#5,223.5,0.25,46,100.0
1654,A4,223.75,0.25,41,100.0
1655,E4,223.75,0.25,41,100.0
1656,B4,224.0,0.25,45,100.0
1657,E-5,224.0,0.25,45,100.0
1658,E3,224.125,1.0,31,100.0
1659,A3,224.125,1.0,31,100.0
1660,C#4,224.125,1.0,31,100.0
1661,A4,224.25,0.25,40,100.0
1662,C#5,224.25,0.25,40,100.0
1663,B4,224.5,0.25,44,100.0
1664,G#4,224.5,0.25,44,100.0
1665,E2,225.125,0.5,37,100.0
1666,B4,225.25,0.125,43,100.0
1667,C#5,225.375,0.125,39,100.0
1668,B4,225.5,0.75,47,100.0
1669,G#4,225.5,0.75,47,100.0
1670,E3,226.125,1.0,31,100.0
1671,G#3,226.125,1.0,31,100.0
1672,B3,226.125,1.0,31,100.0
1673,B-4,226.25,0.25,43,100.0
1674,G4,226.25,0.25,43,100.0
1675,G#4,226.5,0.25,44,100.0
1676,B4,226.5,0.25,44,100.0
1677,C#5,227.5,1.0,46,100.0
1678,G#4,227.5,1.0,46,100.0
1679,C#4,227.5,1.0,46,100.0
1680,G#3,228.125,1.0,39,100.0
1681,C#3,228.125,1.0,39,100.0
1682,F2,228.125,1.0,39,100.0
1683,A4,228.5,0.25,43,100.0
1684,C#4,228.5,0.25,43,100.0
1685,F#4,228.5,0.25,43,100.0
1686,F#2,229.125,0.25,37,100.0
1687,F#4,229.5,1.0,46,100.0
1688,A4,229.5,1.0,46,100.0
1689,C#4,229.5,1.0,46,100.0
1690,C#3,230.125,1.0,31,100.0
1691,F#3,230.125,1.0,31,100.0
1692,A3,230.125,1.0,31,100.0
1693,F#4,230.5,0.25,46,100.0
1694,A4,230.5,0.25,46,100.0
1695,C#4,230.5,0.25,46,100.0
1696,F4,230.75,0.25,40,100.0
1697,G#4,230.75,0.25,40,100.0
1698,A4,231.0,0.25,42,100.0
1699,F#4,231.0,0.25,42,100.0
1700,A2,231.125,0.5,37,100.0
1701,B4,231.25,0.125,44,100.0
1702,G#4,231.25,0.125,44,100.0
1703,F#4,231.375,0.062,40,100.0
1704,A4,231.375,0.062,40,100.0
1705,B4,231.438,0.062,40,100.0
1706,G#4,231.438,0.062,40,100.0
1707,C#5,231.5,0.25,46,100.0
1708,A4,231.5,0.25,46,100.0
1709,F#4,231.75,0.25,41,100.0
1710,C#4,231.75,0.25,41,100.0
1711,B4,232.0,0.25,45,100.0
1712,G#4,232.0,0.25,45,100.0
1713,C#3,232.125,1.0,31,100.0
1714,F#3,232.125,1.0,31,100.0
1715,A3,232.125,1.0,31,100.0
1716,A4,232.25,0.25,40,100.0
1717,F#4,232.25,0.25,40,100.0
1718,E4,232.5,0.25,44,100.0
1719,G#4,232.5,0.25,44,100.0
1720,C#2,233.125,0.5,37,100.0
1721,G#4,233.25,0.125,43,100.0
1722,A4,233.375,0.125,43,100.0
1723,E4,233.5,0.75,47,100.0
1724,G#4,233.5,0.75,47,100.0
1725,G#3,234.125,1.0,31,100.0
1726,E3,234.125,1.0,31,100.0
1727,C#3,234.125,1.0,31,100.0
1728,E-4,234.25,0.25,43,100.0
1729,G4,234.25,0.25,43,100.0
1730,G#4,234.5,1.0,44,100.0
1731,E4,234.5,1.0,44,100.0
1732,C#2,236.75,0.125,35,100.0
1733,E-2,236.875,0.125,38,100.0
1734,E2,237.0,0.125,42,100.0
1735,F#1,237.125,0.5,45,100.0
1736,A3,237.25,83/1000,43,100.0
1737,D4,237.333,83/1000,43,100.0
1738,G#4,237.417,83/1000,43,100.0
1739,A3,237.5,1.0,35,100.0
1740,F#4,237.5,0.75,47,100.0
1741,D4,237.5,0.75,47,100.0
1742,F#3,238.125,1.0,30,100.0
1743,F#2,238.125,1.0,30,100.0
1744,D3,238.125,1.0,30,100.0
1745,A2,238.125,1.0,30,100.0
1746,C#4,238.25,0.25,43,100.0
1747,F4,238.25,0.25,43,100.0
1748,A3,238.5,0.5,35,100.0
1749,D4,238.5,0.5,44,100.0
1750,F#4,238.5,0.5,44,100.0
1751,F#3,239.125,0.5,30,100.0
1752,F#2,239.125,0.5,30,100.0
1753,D3,239.125,0.5,30,100.0
1754,A2,239.125,0.5,30,100.0
1755,D2,240.75,0.125,35,100.0
1756,E2,240.875,0.125,38,100.0
1757,F#2,241.0,0.125,42,100.0
1758,G#1,241.125,0.5,45,100.0
1759,F#3,241.5,0.75,42,100.0
1760,A3,241.5,0.75,42,100.0
1761,F#2,242.125,1.0,27,100.0
1762,D3,242.125,1.0,27,100.0
1763,C3,242.125,1.0,27,100.0
1764,A2,242.125,1.0,27,100.0
1765,G#3,242.25,0.25,38,100.0
1766,F3,242.25,0.25,38,100.0
1767,F#3,242.5,2.0,40,100.0
1768,A3,242.5,2.0,40,100.0
1769,F#2,243.125,2.0,27,100.0
1770,D3,243.125,2.0,27,100.0
1771,C3,243.125,2.0,27,100.0
1772,A2,243.125,2.0,27,100.0
1773,F#3,245.5,1.0,40,100.0
1774,A3,245.5,1.0,40,100.0
1775,F#3,246.5,1.0,34,100.0
1776,G#3,246.5,1.0,34,100.0
1777,C3,246.5,1.0,34,100.0
1778,D3,246.5,1.0,34,100.0
1779,G#1,246.75,0.125,30,100.0
1780,A1,246.875,0.125,31,100.0
1781,C2,247.0,0.125,33,100.0
1782,C#2,247.125,1.625,31,100.0
1783,C#3,248.5,1.0,34,100.0
1784,G#3,248.5,1.0,34,100.0
1785,F3,248.5,1.0,34,100.0
1786,C#2,248.75,0.125,30,100.0
1787,B1,248.875,0.125,31,100.0
1788,C#2,249.0,0.125,33,100.0
1789,B1,249.125,6/5,31,100.0
1790,C#2,250.325,1/5,31,100.0
1791,D3,250.5,1.0,34,100.0
1792,G#3,250.5,1.0,34,100.0
1793,F#3,250.5,1.0,34,100.0
1794,E2,250.525,1/5,35,100.0
1795,D2,250.725,1/5,33,100.0
1796,C#2,250.925,0.188,35,100.0
1797,C#2,251.125,1.625,31,100.0
1798,G#3,252.5,1.0,34,100.0
1799,C#3,252.5,1.0,34,100.0
1800,F3,252.5,1.0,34,100.0
1801,C#2,252.75,0.125,30,100.0
1802,B1,252.875,0.125,31,100.0
1803,C#2,253.0,0.125,31,100.0
1804,B1,253.125,1167/1000,31,100.0
1805,A1,254.292,167/1000,35,100.0
1806,G#1,254.458,167/1000,30,100.0
1807,D3,254.5,1.0,34,100.0
1808,G#3,254.5,1.0,34,100.0
1809,F#3,254.5,1.0,34,100.0
1810,B1,254.625,167/1000,35,100.0
1811,A1,254.792,167/1000,31,100.0
1812,G#1,254.958,73/500,31,100.0
1813,G#1,255.125,2.0,31,100.0
1814,F3,256.5,1.0,30,100.0
1815,C#3,256.5,1.0,30,100.0
1816,G#3,256.5,1.0,30,100.0
1817,G#1,257.125,2.0,39,100.0
1818,C3,258.5,1.0,34,100.0
1819,F#3,258.5,1.0,34,100.0
1820,E-3,258.5,1.0,34,100.0
1821,G#3,258.5,1.0,34,100.0
1822,C#1,259.125,2.0,24,100.0
1823,C#2,259.125,2.0,24,100.0
1824,G#1,259.125,2.0,24,100.0
1825,C#3,259.5,2.0,32,100.0
1826,G#2,259.5,2.0,32,100.0
1827,F3,259.5,2.0,32,100.0
1828,G#3,259.5,2.0,32,100.0
1829,C#1,262.125,1.0,24,100.0
1830,C#2,262.125,1.0,24,100.0
1831,G#1,262.125,1.0,24,100.0
1832,C#3,262.5,1.0,32,100.0
1833,G#2,262.5,1.0,32,100.0
1834,F3,262.5,1.0,32,100.0
1835,G#3,262.5,1.0,32,100.0
1836,C#5,264.375,21/500,40,100.0
1837,G#5,264.375,21/500,40,100.0
1838,C#6,264.458,21/500,45,100.0
1839,G#5,264.5,0.75,50,100.0
1840,C#6,264.5,1833/1000,45,100.0
1841,C#5,265.25,0.25,44,100.0
1842,G#5,265.5,0.75,50,100.0
1843,A5,266.25,0.125,46,100.0
1844,C#5,266.375,21/500,40,100.0
1845,G#5,266.375,21/500,40,100.0
1846,C#6,266.458,21/500,45,100.0
1847,G#5,266.5,0.75,50,100.0
1848,C#6,266.5,1833/1000,45,100.0
1849,B5,267.25,0.25,53,100.0
1850,A5,267.5,0.75,51,100.0
1851,G#5,268.25,0.125,46,100.0
1852,C#5,268.375,21/500,40,100.0
1853,F#5,268.375,21/500,40,100.0
1854,C#6,268.458,21/500,45,100.0
1855,F#5,268.5,0.75,50,100.0
1856,C#6,268.5,1833/1000,45,100.0
1857,C#5,269.25,0.25,44,100.0
1858,F#5,269.5,0.75,50,100.0
1859,G#5,270.25,0.125,46,100.0
1860,C#5,270.375,21/500,40,100.0
1861,A5,270.375,21/500,40,100.0
1862,C#6,270.458,21/500,48,100.0
1863,A5,270.458,21/500,48,100.0
1864,C#6,270.5,177/250,48,100.0
1865,A5,270.5,177/250,48,100.0
1866,C#6,271.25,1.125,54,100.0
1867,B5,271.5,0.75,50,100.0
1868,A5,272.25,0.125,46,100.0
1869,C#5,272.375,21/500,40,100.0
1870,G#5,272.375,21/500,40,100.0
1871,C#6,272.458,21/500,45,100.0
1872,G#5,272.5,0.75,50,100.0
1873,C#6,272.5,1833/1000,45,100.0
1874,C#5,273.25,0.25,44,100.0
1875,G#5,273.5,0.75,50,100.0
1876,A5,274.25,0.125,46,100.0
1877,C#5,274.375,21/500,40,100.0
1878,G#5,274.375,21/500,40,100.0
1879,C#6,274.458,21/500,45,100.0
1880,G#5,274.5,0.75,50,100.0
1881,C#6,274.5,1833/1000,45,100.0
1882,B5,275.25,0.25,53,100.0
1883,A5,275.5,0.75,51,100.0
1884,G#5,276.25,0.125,46,100.0
1885,C#5,276.375,21/500,40,100.0
1886,F#5,276.375,21/500,40,100.0
1887,C#6,276.458,21/500,45,100.0
1888,F#5,276.5,0.75,50,100.0
1889,C#6,276.5,1833/1000,45,100.0
1890,C#5,277.25,0.25,44,100.0
1891,F#5,277.5,0.75,50,100.0
1892,G#5,278.25,0.125,46,100.0
1893,C#5,278.375,21/500,40,100.0
1894,F#5,278.375,21/500,40,100.0
1895,C#6,278.458,21/500,45,100.0
1896,F#5,278.5,0.75,50,100.0
1897,C#6,278.5,1833/1000,45,100.0
1898,C#5,279.25,0.25,54,100.0
1899,A5,279.5,0.75,50,100.0
1900,C#5,280.25,0.125,46,100.0
1901,C#5,280.375,21/500,40,100.0
1902,G#5,280.375,21/500,40,100.0
1903,C#6,280.458,21/500,45,100.0
1904,G#5,280.5,0.75,50,100.0
1905,C#6,280.5,1833/1000,45,100.0
1906,G#4,280.875,0.125,29,100.0
1907,F5,281.0,0.125,29,100.0
1908,G#4,281.125,0.875,38,100.0
1909,C#5,281.25,0.25,44,100.0
1910,G#5,281.5,0.75,50,100.0
1911,A5,282.25,0.125,46,100.0
1912,C#5,282.375,21/500,40,100.0
1913,G#5,282.375,21/500,40,100.0
1914,C#6,282.458,21/500,45,100.0
1915,G#5,282.5,0.75,50,100.0
1916,C#6,282.5,1833/1000,45,100.0
1917,G#6,282.875,0.125,36,100.0
1918,C#7,283.0,0.125,33,100.0
1919,G#6,283.125,0.875,45,100.0
1920,B5,283.25,0.25,53,100.0
1921,A5,283.5,0.75,51,100.0
1922,G#5,284.25,0.125,46,100.0
1923,C#5,284.375,21/500,40,100.0
1924,F#5,284.375,21/500,40,100.0
1925,C#6,284.458,21/500,45,100.0
1926,F#5,284.5,0.75,50,100.0
1927,C#6,284.5,1.875,45,100.0
1928,C#4,284.875,0.125,29,100.0
1929,A4,285.0,0.125,29,100.0
1930,C#4,285.125,0.875,38,100.0
1931,C#5,285.25,0.25,44,100.0
1932,F#5,285.5,0.75,50,100.0
1933,G#5,286.25,0.125,46,100.0
1934,C#5,286.375,21/500,40,100.0
1935,A5,286.375,21/500,40,100.0
1936,C#6,286.458,21/500,48,100.0
1937,A5,286.458,21/500,48,100.0
1938,C#6,286.5,177/250,48,100.0
1939,A5,286.5,177/250,48,100.0
1940,F#6,286.875,0.125,36,100.0
1941,C#7,287.0,0.125,36,100.0
1942,F#6,287.125,0.875,45,100.0
1943,C#6,287.25,1.125,54,100.0
1944,B5,287.5,0.75,50,100.0
1945,A5,288.25,0.125,46,100.0
1946,C#5,288.375,21/500,40,100.0
1947,G#5,288.375,21/500,40,100.0
1948,C#6,288.458,21/500,45,100.0
1949,G#5,288.5,0.75,50,100.0
1950,C#6,288.5,1833/1000,45,100.0
1951,G#4,288.875,0.125,29,100.0
1952,F5,289.0,0.125,29,100.0
1953,G#4,289.125,0.875,38,100.0
1954,C#5,289.25,0.25,44,100.0
1955,G#5,289.5,0.75,50,100.0
1956,A5,290.25,0.125,46,100.0
1957,C#5,290.375,21/500,40,100.0
1958,G#5,290.375,21/500,40,100.0
1959,C#6,290.458,21/500,45,100.0
1960,G#5,290.5,0.75,50,100.0
1961,C#6,290.5,1833/1000,45,100.0
1962,G#6,290.875,0.125,36,100.0
1963,C#7,291.0,0.125,33,100.0
1964,G#6,291.125,0.875,45,100.0
1965,B5,291.25,0.25,53,100.0
1966,A5,291.5,0.75,51,100.0
1967,G#5,292.25,0.125,46,100.0
1968,C#5,292.375,21/500,40,100.0
1969,F#5,292.375,21/500,40,100.0
1970,C#6,292.458,21/500,45,100.0
1971,F#5,292.5,0.75,50,100.0
1972,C#6,292.5,1833/1000,45,100.0
1973,C#4,292.875,0.125,29,100.0
1974,A4,293.0,0.125,29,100.0
1975,C#4,293.125,0.875,38,100.0
1976,C#5,293.25,0.25,44,100.0
1977,F#5,293.5,0.75,50,100.0
1978,G#5,294.25,0.125,46,100.0
1979,C#5,294.375,21/500,40,100.0
1980,F#5,294.375,21/500,40,100.0
1981,C#6,294.458,21/500,45,100.0
1982,F#5,294.5,0.75,50,100.0
1983,C#6,294.5,1817/1000,45,100.0
1984,F#6,294.875,0.125,36,100.0
1985,C#7,295.0,0.125,36,100.0
1986,F#6,295.125,817/1000,45,100.0
1987,C#5,295.25,0.25,54,100.0
1988,A5,295.5,0.75,50,100.0
1989,C#5,296.25,67/1000,46,100.0
1990,G#5,296.375,0.062,42,100.0
1991,C#6,296.438,0.062,45,100.0
1992,G#5,296.5,0.75,50,100.0
1993,G#4,296.875,0.125,29,100.0
1994,F5,297.0,0.125,29,100.0
1995,G#4,297.125,0.875,38,100.0
1996,C#5,297.25,0.25,44,100.0
1997,C#6,297.5,0.75,50,100.0
1998,C#5,298.25,0.125,46,100.0
1999,G#5,298.375,0.062,42,100.0
2000,C#6,298.438,0.062,45,100.0
2001,G#5,298.5,0.75,50,100.0
2002,G#6,298.875,0.125,36,100.0
2003,C#7,299.0,0.125,36,100.0
2004,G#6,299.125,0.75,45,100.0
2005,C#5,299.25,0.25,44,100.0
2006,C#6,299.5,0.75,50,100.0
2007,C#5,300.25,0.125,46,100.0
2008,F#5,300.375,0.062,42,100.0
2009,C#6,300.438,0.062,45,100.0
2010,F#5,300.5,0.75,50,100.0
2011,C#4,300.875,0.125,29,100.0
2012,A4,301.0,0.125,29,100.0
2013,C#4,301.125,0.75,38,100.0
2014,C#5,301.25,0.25,44,100.0
2015,C#6,301.5,0.75,50,100.0
2016,C#5,302.25,0.125,46,100.0
2017,A5,302.375,0.062,42,100.0
2018,C#6,302.438,0.062,45,100.0
2019,A5,302.5,0.75,50,100.0
2020,F#6,302.875,0.125,36,100.0
2021,C#7,303.0,0.125,36,100.0
2022,F#6,303.125,0.75,45,100.0
2023,C#5,303.25,0.25,44,100.0
2024,C#6,303.5,0.75,50,100.0
2025,C#5,304.25,0.125,46,100.0
2026,G#5,304.375,0.062,42,100.0
2027,C#6,304.438,0.062,45,100.0
2028,G#5,304.5,0.75,50,100.0
2029,G#4,304.875,0.125,29,100.0
2030,F5,305.0,0.125,29,100.0
2031,G#4,305.125,0.75,38,100.0
2032,C#5,305.25,0.25,44,100.0
2033,C#6,305.5,0.75,50,100.0
2034,C#5,306.25,0.125,46,100.0
2035,G#5,306.375,0.062,42,100.0
2036,C#6,306.438,0.062,45,100.0
2037,G#5,306.5,0.75,50,100.0
2038,G#6,306.875,0.125,36,100.0
2039,C#7,307.0,0.125,36,100.0
2040,G#6,307.125,0.75,45,100.0
2041,C#5,307.25,0.25,44,100.0
2042,C#6,307.5,0.75,50,100.0
2043,C#5,308.25,0.125,46,100.0
2044,F#5,308.375,0.062,42,100.0
2045,C#6,308.438,0.062,45,100.0
2046,F#5,308.5,0.75,50,100.0
2047,C#4,308.875,0.125,29,100.0
2048,A4,309.0,0.125,29,100.0
2049,C#4,309.125,0.75,38,100.0
2050,C#5,309.25,0.25,44,100.0
2051,C#6,309.5,0.75,50,100.0
2052,C#5,310.25,0.125,46,100.0
2053,A5,310.375,0.062,42,100.0
2054,C#6,310.438,0.062,45,100.0
2055,A5,310.5,0.75,50,100.0
2056,F#6,310.875,0.125,36,100.0
2057,C#7,311.0,0.125,36,100.0
2058,F#6,311.125,1.0,45,100.0
2059,C#5,311.25,0.25,44,100.0
2060,C#6,311.5,0.75,50,100.0
2061,C#5,312.25,0.25,46,100.0
2062,G#4,312.5,1.0,50,100.0
2063,E3,312.625,0.25,44,100.0
2064,C#5,312.75,0.125,45,100.0
2065,C#5,313.0,0.125,46,100.0
2066,B3,313.125,0.25,44,100.0
2067,C#5,313.25,0.125,46,100.0
2068,C#5,313.5,0.125,46,100.0
2069,F4,313.625,0.25,44,100.0
2070,C#5,313.75,0.125,46,100.0
2071,C#5,314.0,0.125,46,100.0
2072,A4,314.125,0.25,50,100.0
2073,C#5,314.25,0.125,46,100.0
2074,C#4,314.625,0.25,46,100.0
2075,C#5,314.75,0.125,43,100.0
2076,C#5,315.0,0.125,43,100.0
2077,G#4,315.125,0.25,50,100.0
2078,C#5,315.25,0.125,43,100.0
2079,C#4,315.625,0.25,46,100.0
2080,C#5,315.75,0.125,45,100.0
2081,C#5,316.0,0.125,45,100.0
2082,C#5,316.25,0.125,45,100.0
2083,F#4,316.5,1.0,50,100.0
2084,C#3,316.625,0.25,44,100.0
2085,C#5,316.75,0.125,44,100.0
2086,C#5,317.0,0.125,44,100.0
2087,A3,317.125,0.25,44,100.0
2088,C#5,317.25,0.125,44,100.0
2089,C#5,317.5,0.125,44,100.0
2090,C#4,317.625,0.25,44,100.0
2091,C#5,317.75,0.125,44,100.0
2092,C#5,318.0,0.125,44,100.0
2093,A4,318.125,0.25,50,100.0
2094,G#4,318.25,0.125,46,100.0
2095,C#4,318.625,0.25,46,100.0
2096,C#5,318.75,0.125,44,100.0
2097,C#5,319.0,0.125,44,100.0
2098,F#4,319.125,0.25,50,100.0
2099,C#5,319.25,0.125,44,100.0
2100,C#4,319.625,0.25,46,100.0
2101,C#5,319.75,0.125,45,100.0
2102,C#5,320.0,0.125,45,100.0
2103,C#5,320.25,0.125,45,100.0
2104,G#4,320.5,1.0,50,100.0
2105,C#3,320.625,0.25,44,100.0
2106,C#5,320.75,0.125,44,100.0
2107,C#5,321.0,0.125,44,100.0
2108,B3,321.125,0.25,44,100.0
2109,C#5,321.25,0.125,44,100.0
2110,C#5,321.5,0.125,44,100.0
2111,F4,321.625,0.25,44,100.0
2112,C#5,321.75,0.125,44,100.0
2113,C#5,322.0,0.125,44,100.0
2114,A4,322.125,0.25,50,100.0
2115,B4,322.25,0.125,49,100.0
2116,C#4,322.625,0.25,46,100.0
2117,C#5,322.75,0.125,46,100.0
2118,C#5,323.0,0.125,46,100.0
2119,G#4,323.125,0.25,50,100.0
2120,C#5,323.25,0.125,46,100.0
2121,C#4,323.625,0.25,46,100.0
2122,C#5,323.75,0.125,45,100.0
2123,C#5,324.0,0.125,45,100.0
2124,C#5,324.25,0.125,45,100.0
2125,F#4,324.5,1.0,50,100.0
2126,C#3,324.625,0.25,44,100.0
2127,C#5,324.75,0.125,42,100.0
2128,C#5,325.0,0.125,42,100.0
2129,A3,325.125,0.25,44,100.0
2130,C#5,325.25,0.125,42,100.0
2131,C#5,325.5,0.125,42,100.0
2132,C#4,325.625,0.25,44,100.0
2133,C#5,325.75,0.125,42,100.0
2134,C#5,326.0,0.125,42,100.0
2135,A4,326.125,0.25,50,100.0
2136,G#4,326.25,0.125,50,100.0
2137,C#4,326.625,0.25,46,100.0
2138,C#5,326.75,0.125,45,100.0
2139,C#5,327.0,0.125,45,100.0
2140,F#4,327.125,0.25,50,100.0
2141,C#5,327.25,0.125,45,100.0
2142,C#4,327.625,0.25,46,100.0
2143,C#5,327.75,0.125,44,100.0
2144,C#5,328.0,0.125,44,100.0
2145,C#5,328.25,0.125,44,100.0
2146,G#4,328.5,1.0,57,100.0
2147,G#5,328.5,1.0,57,100.0
2148,C#3,328.625,0.25,44,100.0
2149,C#5,328.75,0.125,45,100.0
2150,C#5,329.0,0.125,45,100.0
2151,B3,329.125,0.25,44,100.0
2152,C#5,329.25,0.125,45,100.0
2153,C#5,329.5,0.125,45,100.0
2154,F4,329.625,0.25,44,100.0
2155,C#5,329.75,0.125,45,100.0
2156,C#5,330.0,0.125,45,100.0
2157,C#5,330.25,0.125,45,100.0
2158,A5,330.5,0.5,54,100.0
2159,A4,330.5,0.5,54,100.0
2160,F4,330.625,0.25,46,100.0
2161,C#5,330.75,0.125,45,100.0
2162,C#5,331.0,0.125,45,100.0
2163,B3,331.125,0.25,50,100.0
2164,C#5,331.25,0.125,45,100.0
2165,G#5,331.5,0.5,54,100.0
2166,G#4,331.5,0.5,54,100.0
2167,C#3,331.625,0.25,46,100.0
2168,C#5,331.75,0.125,46,100.0
2169,C#5,332.0,0.125,46,100.0
2170,C#5,332.25,0.125,46,100.0
2171,F#4,332.5,1.0,55,100.0
2172,F#5,332.5,1.0,55,100.0
2173,C#3,332.625,0.25,44,100.0
2174,C#5,332.75,0.125,42,100.0
2175,C#5,333.0,0.125,42,100.0
2176,A3,333.125,0.25,44,100.0
2177,C#5,333.25,0.125,42,100.0
2178,C#5,333.5,0.125,42,100.0
2179,F#4,333.625,0.25,44,100.0
2180,C#5,333.75,0.125,42,100.0
2181,C#5,334.0,0.125,42,100.0
2182,G#5,334.25,0.125,50,100.0
2183,G#4,334.25,0.125,50,100.0
2184,A5,334.5,1.0,55,100.0
2185,A4,334.5,1.0,55,100.0
2186,F#4,334.625,0.25,46,100.0
2187,C#5,334.75,0.125,43,100.0
2188,C#5,335.0,0.125,43,100.0
2189,A3,335.125,0.25,50,100.0
2190,C#5,335.25,0.125,43,100.0
2191,F#4,335.5,1.0,50,100.0
2192,F#5,335.5,1.0,50,100.0
2193,C#3,335.625,0.25,46,100.0
2194,C#5,335.75,0.125,43,100.0
2195,C#5,336.0,0.125,43,100.0
2196,C#5,336.25,0.125,43,100.0
2197,G#4,336.5,1.0,57,100.0
2198,G#5,336.5,1.0,57,100.0
2199,C#3,336.625,0.25,44,100.0
2200,C#5,336.75,0.125,41,100.0
2201,C#5,337.0,0.125,41,100.0
2202,B3,337.125,0.25,44,100.0
2203,C#5,337.25,0.125,41,100.0
2204,C#5,337.5,0.125,41,100.0
2205,F4,337.625,0.25,44,100.0
2206,C#5,337.75,0.125,41,100.0
2207,B5,338.0,0.5,49,100.0
2208,B4,338.0,0.5,49,100.0
2209,C#5,338.25,0.125,43,100.0
2210,A5,338.5,0.5,56,100.0
2211,A4,338.5,0.5,56,100.0
2212,F4,338.625,0.25,46,100.0
2213,C#5,338.75,0.125,44,100.0
2214,C#5,339.0,0.125,44,100.0
2215,B3,339.125,0.25,50,100.0
2216,C#5,339.25,0.125,44,100.0
2217,G#5,339.5,0.5,54,100.0
2218,G#4,339.5,0.5,54,100.0
2219,C#3,339.625,0.25,46,100.0
2220,C#5,339.75,0.125,44,100.0
2221,C#5,340.0,0.125,44,100.0
2222,C#5,340.25,0.125,44,100.0
2223,F#5,340.5,1.0,55,100.0
2224,F#4,340.5,1.0,55,100.0
2225,C#3,340.625,0.25,44,100.0
2226,C#5,340.75,0.125,44,100.0
2227,C#5,341.0,0.125,44,100.0
2228,A3,341.125,0.25,44,100.0
2229,C#5,341.25,0.125,44,100.0
2230,C#5,341.5,0.125,44,100.0
2231,F#4,341.625,0.25,44,100.0
2232,C#5,341.75,0.125,44,100.0
2233,C#5,342.0,0.125,44,100.0
2234,G#5,342.25,0.125,50,100.0
2235,G#4,342.25,0.125,50,100.0
2236,A4,342.5,1.0,57,100.0
2237,A5,342.5,1.0,57,100.0
2238,F#4,342.625,0.25,46,100.0
2239,C#5,342.75,0.125,43,100.0
2240,C#5,343.0,0.125,44,100.0
2241,A3,343.125,0.25,50,100.0
2242,C#5,343.25,0.125,44,100.0
2243,F#5,343.5,1.0,54,100.0
2244,F#4,343.5,1.0,54,100.0
2245,C#3,343.625,0.25,46,100.0
2246,C#5,343.75,0.125,44,100.0
2247,C#5,344.0,0.125,44,100.0
2248,G#3,344.125,0.25,62,100.0
2249,C#5,344.25,0.125,44,100.0
2250,C#6,344.5,0.125,57,100.0
2251,C#5,344.75,0.125,43,100.0
2252,C#5,345.0,0.125,44,100.0
2253,B4,345.125,1.0,53,100.0
2254,C#4,345.125,1.0,53,100.0
2255,F4,345.125,1.0,53,100.0
2256,C#5,345.25,0.125,44,100.0
2257,C#6,345.5,0.125,54,100.0
2258,C#5,345.75,0.125,44,100.0
2259,C#5,346.0,0.125,44,100.0
2260,C#3,346.125,0.25,57,100.0
2261,C#5,346.25,0.125,44,100.0
2262,C#6,346.5,0.125,57,100.0
2263,F4,346.625,0.125,41,100.0
2264,A4,346.625,0.125,41,100.0
2265,C#4,346.625,0.125,41,100.0
2266,C#5,346.75,0.125,43,100.0
2267,C#5,347.0,0.125,44,100.0
2268,B3,347.125,0.125,46,100.0
2269,C#5,347.25,0.125,44,100.0
2270,C#6,347.5,0.125,54,100.0
2271,C#4,347.625,0.125,41,100.0
2272,G#4,347.625,0.125,41,100.0
2273,F4,347.625,0.125,41,100.0
2274,C#5,347.75,0.125,44,100.0
2275,C#5,348.0,0.125,44,100.0
2276,F#3,348.125,0.25,64,100.0
2277,C#5,348.25,0.125,44,100.0
2278,C#6,348.5,0.125,57,100.0
2279,C#5,348.75,0.125,43,100.0
2280,C#5,349.0,0.125,44,100.0
2281,F#4,349.125,1.0,53,100.0
2282,A4,349.125,1.0,53,100.0
2283,C#4,349.125,1.0,53,100.0
2284,C#5,349.25,0.125,44,100.0
2285,C#6,349.5,0.125,54,100.0
2286,C#5,349.75,0.125,44,100.0
2287,C#5,350.0,0.125,44,100.0
2288,C#3,350.125,0.25,61,100.0
2289,C#5,350.25,0.125,44,100.0
2290,C#6,350.5,0.125,57,100.0
2291,A3,350.625,0.125,41,100.0
2292,G#4,350.625,0.125,41,100.0
2293,C#4,350.625,0.125,41,100.0
2294,C#5,350.75,0.125,43,100.0
2295,C#5,351.0,0.125,44,100.0
2296,F#3,351.125,0.125,46,100.0
2297,C#5,351.25,0.125,44,100.0
2298,C#6,351.5,0.125,54,100.0
2299,A3,351.625,0.125,41,100.0
2300,F#4,351.625,0.125,41,100.0
2301,C#4,351.625,0.125,41,100.0
2302,C#5,351.75,0.125,44,100.0
2303,C#5,352.0,0.125,44,100.0
2304,G#3,352.125,0.25,60,100.0
2305,C#5,352.25,0.125,44,100.0
2306,C#6,352.5,0.125,57,100.0
2307,C#5,352.75,0.125,43,100.0
2308,C#5,353.0,0.125,44,100.0
2309,F4,353.125,1.0,53,100.0
2310,B4,353.125,1.0,53,100.0
2311,C#4,353.125,1.0,53,100.0
2312,C#5,353.25,0.125,44,100.0
2313,C#6,353.5,0.125,54,100.0
2314,C#5,353.75,0.125,44,100.0
2315,C#5,354.0,0.125,44,100.0
2316,C#3,354.125,0.25,57,100.0
2317,C#5,354.25,0.125,44,100.0
2318,C#6,354.5,0.125,57,100.0
2319,C#4,354.625,0.125,41,100.0
2320,A4,354.625,0.125,41,100.0
2321,F4,354.625,0.125,41,100.0
2322,C#5,354.75,0.125,43,100.0
2323,C#5,355.0,0.125,44,100.0
2324,B3,355.125,0.125,46,100.0
2325,C#5,355.25,0.125,44,100.0
2326,C#6,355.5,0.125,54,100.0
2327,C#4,355.625,0.125,41,100.0
2328,G#4,355.625,0.125,41,100.0
2329,F4,355.625,0.125,41,100.0
2330,C#5,355.75,0.125,44,100.0
2331,C#5,356.0,0.125,44,100.0
2332,F#3,356.125,0.25,62,100.0
2333,C#5,356.25,0.125,44,100.0
2334,C#6,356.5,0.125,57,100.0
2335,C#5,356.75,0.125,43,100.0
2336,C#5,357.0,0.125,44,100.0
2337,C#4,357.125,1.0,53,100.0
2338,F#4,357.125,1.0,53,100.0
2339,A4,357.125,1.0,53,100.0
2340,C#5,357.25,0.125,44,100.0
2341,C#6,357.5,0.125,54,100.0
2342,C#5,357.75,0.125,44,100.0
2343,C#5,358.0,0.125,44,100.0
2344,C#3,358.125,0.25,57,100.0
2345,C#5,358.25,0.125,44,100.0
2346,C#6,358.5,0.125,57,100.0
2347,A3,358.625,0.125,41,100.0
2348,C#4,358.625,0.125,41,100.0
2349,G#4,358.625,0.125,41,100.0
2350,C#5,358.75,0.125,43,100.0
2351,C#5,359.0,0.125,44,100.0
2352,F#3,359.125,0.125,46,100.0
2353,C#5,359.25,0.125,44,100.0
2354,C#6,359.5,0.125,54,100.0
2355,C#4,359.625,0.125,41,100.0
2356,F#4,359.625,0.125,41,100.0
2357,A3,359.625,0.125,41,100.0
2358,C#5,359.75,0.125,44,100.0
2359,C#5,360.0,0.125,44,100.0
2360,G#3,360.125,0.25,55,100.0
2361,C#5,360.25,0.125,44,100.0
2362,C#6,360.5,0.125,57,100.0
2363,C#5,360.75,0.125,43,100.0
2364,C#6,361.0,0.125,51,100.0
2365,C#4,361.125,1.0,49,100.0
2366,B4,361.125,1.0,49,100.0
2367,F4,361.125,1.0,49,100.0
2368,C#6,361.25,0.125,51,100.0
2369,C#7,361.5,0.125,63,100.0
2370,C#6,361.75,0.125,44,100.0
2371,C#6,362.0,0.125,44,100.0
2372,C#3,362.125,0.25,55,100.0
2373,C#5,362.25,0.125,44,100.0
2374,C#6,362.5,0.125,57,100.0
2375,C#5,362.75,0.125,43,100.0
2376,C#5,363.0,0.125,44,100.0
2377,C#4,363.125,1.0,49,100.0
2378,F4,363.125,1.0,49,100.0
2379,B4,363.125,1.0,49,100.0
2380,C#5,363.25,0.125,44,100.0
2381,C#6,363.5,0.125,55,100.0
2382,C#5,363.75,0.125,45,100.0
2383,C#5,364.0,0.125,45,100.0
2384,F#3,364.125,0.25,57,100.0
2385,C#5,364.25,0.125,45,100.0
2386,C#6,364.5,0.125,59,100.0
2387,C#5,364.75,0.125,44,100.0
2388,C#6,365.0,0.125,53,100.0
2389,B-4,365.125,1.0,51,100.0
2390,C#4,365.125,1.0,51,100.0
2391,F#4,365.125,1.0,51,100.0
2392,C#6,365.25,0.125,53,100.0
2393,C#7,365.5,0.125,65,100.0
2394,C#6,365.75,0.125,46,100.0
2395,C#6,366.0,0.125,47,100.0
2396,C#3,366.125,0.25,58,100.0
2397,C#5,366.25,0.125,47,100.0
2398,C#6,366.5,0.125,60,100.0
2399,C#5,366.75,0.125,46,100.0
2400,C#5,367.0,0.125,47,100.0
2401,B-4,367.125,1.0,53,100.0
2402,C#4,367.125,1.0,53,100.0
2403,F#4,367.125,1.0,53,100.0
2404,C#5,367.25,0.125,47,100.0
2405,C#6,367.5,0.125,59,100.0
2406,C#5,367.75,0.125,47,100.0
2407,C#5,368.0,0.125,48,100.0
2408,G#3,368.125,0.25,60,100.0
2409,C#5,368.25,0.125,48,100.0
2410,C#6,368.5,0.125,63,100.0
2411,C#4,368.625,0.125,49,100.0
2412,F4,368.625,0.125,49,100.0
2413,B4,368.625,0.125,49,100.0
2414,C#5,368.75,0.125,48,100.0
2415,C#6,369.0,0.125,60,100.0
2416,C#3,369.125,0.25,61,100.0
2417,C#6,369.25,0.125,60,100.0
2418,C#7,369.5,0.125,76,100.0
2419,F4,369.625,0.125,50,100.0
2420,C#4,369.625,0.125,50,100.0
2421,B4,369.625,0.125,50,100.0
2422,C#6,369.75,0.125,49,100.0
2423,C#6,370.0,0.125,49,100.0
2424,G#3,370.125,0.25,62,100.0
2425,C#5,370.25,0.125,49,100.0
2426,C#6,370.5,0.125,65,100.0
2427,C#4,370.625,0.125,50,100.0
2428,F4,370.625,0.125,50,100.0
2429,B4,370.625,0.125,50,100.0
2430,C#5,370.75,0.125,48,100.0
2431,C#5,371.0,0.125,49,100.0
2432,C#3,371.125,0.25,63,100.0
2433,C#5,371.25,0.125,50,100.0
2434,C#6,371.5,0.125,62,100.0
2435,F4,371.625,0.125,52,100.0
2436,C#4,371.625,0.125,52,100.0
2437,B4,371.625,0.125,52,100.0
2438,C#5,371.75,0.125,51,100.0
2439,C#5,372.0,0.125,51,100.0
2440,F#3,372.125,0.25,65,100.0
2441,C#5,372.25,0.125,51,100.0
2442,C#6,372.5,0.125,67,100.0
2443,C#4,372.625,0.125,52,100.0
2444,B-4,372.625,0.125,52,100.0
2445,F#4,372.625,0.125,52,100.0
2446,C#5,372.75,0.125,50,100.0
2447,C#6,373.0,0.125,64,100.0
2448,C#3,373.125,0.25,65,100.0
2449,C#6,373.25,0.125,63,100.0
2450,C#7,373.5,0.125,82,100.0
2451,B-4,373.625,0.125,53,100.0
2452,C#4,373.625,0.125,53,100.0
2453,F#4,373.625,0.125,53,100.0
2454,C#6,373.75,0.125,61,100.0
2455,C#6,374.0,0.125,61,100.0
2456,F#3,374.125,0.25,66,100.0
2457,C#5,374.25,0.125,52,100.0
2458,C#6,374.5,0.125,69,100.0
2459,B-4,374.625,0.125,54,100.0
2460,F#4,374.625,0.125,54,100.0
2461,C#4,374.625,0.125,54,100.0
2462,C#5,374.75,0.125,51,100.0
2463,C#5,375.0,0.125,53,100.0
2464,C#3,375.125,0.25,67,100.0
2465,C#5,375.25,0.125,53,100.0
2466,C#6,375.5,0.125,66,100.0
2467,B-4,375.625,0.125,55,100.0
2468,C#4,375.625,0.125,55,100.0
2469,F#4,375.625,0.125,55,100.0
2470,C#5,375.75,0.125,54,100.0
2471,C#5,376.0,0.125,54,100.0
2472,G#3,376.125,0.25,69,100.0
2473,C#5,376.25,0.125,54,100.0
2474,C#6,376.5,0.125,71,100.0
2475,F4,376.625,0.125,55,100.0
2476,C#4,376.625,0.125,55,100.0
2477,B4,376.625,0.125,55,100.0
2478,C#5,376.75,0.125,53,100.0
2479,C#6,377.0,0.125,68,100.0
2480,C#3,377.125,0.25,69,100.0
2481,C#6,377.25,0.125,68,100.0
2482,C#7,377.5,0.125,83,100.0
2483,B4,377.625,0.125,56,100.0
2484,C#4,377.625,0.125,56,100.0
2485,F4,377.625,0.125,56,100.0
2486,C#6,377.75,0.125,64,100.0
2487,C#6,378.0,0.125,64,100.0
2488,G#3,378.125,0.25,71,100.0
2489,C#5,378.25,0.125,56,100.0
2490,C#6,378.5,0.125,74,100.0
2491,F4,378.625,0.125,58,100.0
2492,C#4,378.625,0.125,58,100.0
2493,B4,378.625,0.125,58,100.0
2494,C#5,378.75,0.125,56,100.0
2495,C#6,379.0,0.125,65,100.0
2496,C#3,379.125,0.25,73,100.0
2497,C#6,379.25,0.125,65,100.0
2498,C#7,379.5,0.125,83,100.0
2499,F4,379.625,0.125,60,100.0
2500,C#4,379.625,0.125,60,100.0
2501,B4,379.625,0.125,60,100.0
2502,C#6,379.75,0.125,64,100.0
2503,C#6,380.0,0.125,64,100.0
2504,F#3,380.125,0.25,75,100.0
2505,C#5,380.25,0.125,59,100.0
2506,C#6,380.5,0.125,77,100.0
2507,F#4,380.625,0.125,61,100.0
2508,C#4,380.625,0.125,61,100.0
2509,B-4,380.625,0.125,61,100.0
2510,C#5,380.75,0.125,58,100.0
2511,C#6,381.0,0.125,72,100.0
2512,C#3,381.125,0.25,76,100.0
2513,C#6,381.25,0.125,72,100.0
2514,C#7,381.5,0.125,92,100.0
2515,C#4,381.625,0.125,62,100.0
2516,B-4,381.625,0.125,62,100.0
2517,F#4,381.625,0.125,62,100.0
2518,C#6,381.75,0.125,68,100.0
2519,C#6,382.0,0.125,68,100.0
2520,F#3,382.125,0.25,77,100.0
2521,C#5,382.25,0.125,62,100.0
2522,C#6,382.5,0.125,80,100.0
2523,B-4,382.625,0.125,64,100.0
2524,F#4,382.625,0.125,64,100.0
2525,C#4,382.625,0.125,64,100.0
2526,C#5,382.75,0.125,61,100.0
2527,C#6,383.0,0.125,72,100.0
2528,C#3,383.125,0.25,79,100.0
2529,C#6,383.25,0.125,72,100.0
2530,C#7,383.5,0.125,93,100.0
2531,C#4,383.625,0.125,65,100.0
2532,F#4,383.625,0.125,65,100.0
2533,B-4,383.625,0.125,65,100.0
2534,C#6,383.75,0.125,76,100.0
2535,C#6,384.0,0.125,76,100.0
2536,G#2,384.125,0.125,67,100.0
2537,G#3,384.125,0.125,67,100.0
2538,C#5,384.25,0.125,63,100.0
2539,C6,384.5,0.125,76,100.0
2540,C5,384.5,0.125,76,100.0
2541,F5,384.5,0.125,76,100.0
2542,C#4,384.625,0.25,61,100.0
2543,G#3,384.625,0.25,61,100.0
2544,F4,384.625,0.25,61,100.0
2545,C#6,385.0,0.25,72,100.0
2546,C#5,385.0,0.25,72,100.0
2547,G#5,385.0,0.25,72,100.0
2548,C#2,385.125,0.25,67,100.0
2549,C#3,385.125,0.25,67,100.0
2550,B5,385.5,0.75,76,100.0
2551,F5,385.5,0.75,76,100.0
2552,B4,385.5,0.75,76,100.0
2553,C#4,385.625,0.25,62,100.0
2554,G#3,385.625,0.25,62,100.0
2555,F4,385.625,0.25,62,100.0
2556,G#2,386.125,0.125,67,100.0
2557,G#3,386.125,0.125,67,100.0
2558,C#6,386.25,0.25,73,100.0
2559,C#5,386.25,0.25,73,100.0
2560,C5,386.5,0.125,76,100.0
2561,F5,386.5,0.125,76,100.0
2562,C6,386.5,0.125,76,100.0
2563,G#3,386.625,0.25,61,100.0
2564,C#4,386.625,0.25,61,100.0
2565,F4,386.625,0.25,61,100.0
2566,C#6,387.0,0.25,72,100.0
2567,C#5,387.0,0.25,72,100.0
2568,G#5,387.0,0.25,72,100.0
2569,C#2,387.125,0.25,67,100.0
2570,C#3,387.125,0.25,67,100.0
2571,F5,387.5,0.75,76,100.0
2572,B4,387.5,0.75,76,100.0
2573,B5,387.5,0.75,76,100.0
2574,F4,387.625,0.25,62,100.0
2575,C#4,387.625,0.25,62,100.0
2576,G#3,387.625,0.25,62,100.0
2577,F#3,388.125,0.125,67,100.0
2578,F#2,388.125,0.125,67,100.0
2579,C#5,388.25,0.25,73,100.0
2580,C#6,388.25,0.25,73,100.0
2581,A5,388.5,0.125,76,100.0
2582,C5,388.5,0.125,76,100.0
2583,C6,388.5,0.125,76,100.0
2584,C#4,388.625,0.25,61,100.0
2585,F#4,388.625,0.25,61,100.0
2586,B-3,388.625,0.25,61,100.0
2587,C#5,389.0,0.25,72,100.0
2588,C#6,389.0,0.25,72,100.0
2589,B-5,389.0,0.25,72,100.0
2590,C#3,389.125,0.25,67,100.0
2591,C#2,389.125,0.25,67,100.0
2592,B-4,389.5,0.75,76,100.0
2593,F#5,389.5,0.75,76,100.0
2594,B-5,389.5,0.75,76,100.0
2595,C#4,389.625,0.25,62,100.0
2596,B-3,389.625,0.25,62,100.0
2597,F#4,389.625,0.25,62,100.0
2598,F#3,390.125,0.125,67,100.0
2599,F#2,390.125,0.125,67,100.0
2600,C#6,390.25,0.25,71,100.0
2601,C#5,390.25,0.25,71,100.0
2602,B-5,390.25,0.25,71,100.0
2603,C6,390.5,0.125,76,100.0
2604,A5,390.5,0.125,76,100.0
2605,C5,390.5,0.125,76,100.0
2606,C#4,390.625,0.25,61,100.0
2607,B-3,390.625,0.25,61,100.0
2608,F#4,390.625,0.25,61,100.0
2609,B-5,391.0,0.25,72,100.0
2610,C#6,391.0,0.25,72,100.0
2611,C#5,391.0,0.25,72,100.0
2612,C#2,391.125,0.25,67,100.0
2613,C#3,391.125,0.25,67,100.0
2614,F#5,391.5,0.75,76,100.0
2615,B-5,391.5,0.75,76,100.0
2616,B-4,391.5,0.75,76,100.0
2617,B-3,391.625,0.25,62,100.0
2618,C#4,391.625,0.25,62,100.0
2619,F#4,391.625,0.25,62,100.0
2620,G#2,392.125,0.125,67,100.0
2621,G#3,392.125,0.125,67,100.0
2622,C#5,392.25,0.25,73,100.0
2623,C#6,392.25,0.25,73,100.0
2624,C6,392.5,0.125,78,100.0
2625,C5,392.5,0.125,78,100.0
2626,C#4,392.625,0.25,62,100.0
2627,F4,392.625,0.25,62,100.0
2628,C#5,393.0,0.25,72,100.0
2629,G#5,393.0,0.25,72,100.0
2630,C#6,393.0,0.25,72,100.0
2631,C#2,393.125,0.25,67,100.0
2632,C#3,393.125,0.25,67,100.0
2633,E-6,393.5,0.75,76,100.0
2634,B5,393.5,0.75,76,100.0
2635,E-5,393.5,0.75,76,100.0
2636,F4,393.625,0.25,62,100.0
2637,C#4,393.625,0.25,62,100.0
2638,B3,393.625,0.25,62,100.0
2639,G#2,394.125,0.125,67,100.0
2640,G#3,394.125,0.125,67,100.0
2641,C#5,394.25,0.25,71,100.0
2642,C#6,394.25,0.25,71,100.0
2643,G#5,394.25,0.25,71,100.0
2644,C5,394.5,0.125,78,100.0
2645,C6,394.5,0.125,78,100.0
2646,B3,394.625,0.25,61,100.0
2647,C#4,394.625,0.25,61,100.0
2648,F4,394.625,0.25,61,100.0
2649,C#5,395.0,0.25,72,100.0
2650,C#6,395.0,0.25,72,100.0
2651,G#5,395.0,0.25,72,100.0
2652,C#3,395.125,0.25,67,100.0
2653,C#2,395.125,0.25,67,100.0
2654,E-5,395.5,0.75,76,100.0
2655,E-6,395.5,0.75,76,100.0
2656,B5,395.5,0.75,76,100.0
2657,B3,395.625,0.25,62,100.0
2658,C#4,395.625,0.25,62,100.0
2659,F4,395.625,0.25,62,100.0
2660,F#2,396.125,0.125,67,100.0
2661,F#3,396.125,0.125,67,100.0
2662,C#5,396.25,0.25,71,100.0
2663,G#5,396.25,0.25,71,100.0
2664,C#6,396.25,0.25,71,100.0
2665,A5,396.5,0.125,76,100.0
2666,C6,396.5,0.125,76,100.0
2667,C5,396.5,0.125,76,100.0
2668,F#4,396.625,0.25,61,100.0
2669,B-3,396.625,0.25,61,100.0
2670,C#4,396.625,0.25,61,100.0
2671,B-5,397.0,0.25,72,100.0
2672,C#5,397.0,0.25,72,100.0
2673,C#6,397.0,0.25,72,100.0
2674,C#3,397.125,0.25,67,100.0
2675,C#2,397.125,0.25,67,100.0
2676,F#6,397.5,0.75,76,100.0
2677,B-5,397.5,0.75,76,100.0
2678,F#5,397.5,0.75,76,100.0
2679,B-3,397.625,0.25,62,100.0
2680,F#4,397.625,0.25,62,100.0
2681,C#4,397.625,0.25,62,100.0
2682,F#3,398.125,0.125,67,100.0
2683,F#2,398.125,0.125,67,100.0
2684,C#6,398.25,0.25,73,100.0
2685,C#5,398.25,0.25,73,100.0
2686,C6,398.5,0.125,76,100.0
2687,C5,398.5,0.125,76,100.0
2688,A5,398.5,0.125,76,100.0
2689,B-3,398.625,0.25,61,100.0
2690,C#4,398.625,0.25,61,100.0
2691,F#4,398.625,0.25,61,100.0
2692,C#5,399.0,0.25,72,100.0
2693,C#6,399.0,0.25,72,100.0
2694,B-5,399.0,0.25,72,100.0
2695,C#2,399.125,0.25,67,100.0
2696,C#3,399.125,0.25,67,100.0
2697,F#6,399.5,0.75,76,100.0
2698,B-5,399.5,0.75,76,100.0
2699,F#5,399.5,0.75,76,100.0
2700,B-3,399.625,0.25,62,100.0
2701,C#4,399.625,0.25,62,100.0
2702,F#4,399.625,0.25,62,100.0
2703,G#3,400.125,0.125,53,100.0
2704,C#6,400.25,0.25,66,100.0
2705,C#5,400.25,0.25,66,100.0
2706,C5,400.5,0.125,55,100.0
2707,F5,400.5,0.125,55,100.0
2708,C6,400.5,0.125,55,100.0
2709,C#4,400.625,0.25,45,100.0
2710,F4,400.625,0.25,45,100.0
2711,C#6,401.0,0.25,52,100.0
2712,G#5,401.0,0.25,52,100.0
2713,C#5,401.0,0.25,52,100.0
2714,C#3,401.125,0.25,53,100.0
2715,B5,401.5,0.75,55,100.0
2716,B4,401.5,0.75,55,100.0
2717,F5,401.5,0.75,55,100.0
2718,C#4,401.625,0.25,45,100.0
2719,G#3,401.625,0.25,45,100.0
2720,F4,401.625,0.25,45,100.0
2721,G#2,402.125,0.125,53,100.0
2722,C#6,402.25,0.25,52,100.0
2723,C#5,402.25,0.25,52,100.0
2724,F5,402.5,0.125,55,100.0
2725,C5,402.5,0.125,55,100.0
2726,C6,402.5,0.125,55,100.0
2727,G#3,402.625,0.25,44,100.0
2728,F4,402.625,0.25,44,100.0
2729,C#4,402.625,0.25,44,100.0
2730,C#5,403.0,0.25,52,100.0
2731,G#5,403.0,0.25,52,100.0
2732,C#6,403.0,0.25,52,100.0
2733,C#2,403.125,0.25,53,100.0
2734,B4,403.5,0.75,55,100.0
2735,B5,403.5,0.75,55,100.0
2736,F5,403.5,0.75,55,100.0
2737,F4,403.625,0.25,45,100.0
2738,C#4,403.625,0.25,45,100.0
2739,G#3,403.625,0.25,45,100.0
2740,F#3,404.125,0.125,53,100.0
2741,C#6,404.25,0.25,52,100.0
2742,C#5,404.25,0.25,52,100.0
2743,C6,404.5,0.125,55,100.0
2744,A5,404.5,0.125,55,100.0
2745,C5,404.5,0.125,55,100.0
2746,B-3,404.625,0.25,44,100.0
2747,F#4,404.625,0.25,44,100.0
2748,C#4,404.625,0.25,44,100.0
2749,C#6,405.0,0.25,52,100.0
2750,C#5,405.0,0.25,52,100.0
2751,B-5,405.0,0.25,52,100.0
2752,C#3,405.125,0.25,53,100.0
2753,B-4,405.5,0.75,55,100.0
2754,F#5,405.5,0.75,55,100.0
2755,B-5,405.5,0.75,55,100.0
2756,B-3,405.625,0.25,45,100.0
2757,F#4,405.625,0.25,45,100.0
2758,C#4,405.625,0.25,45,100.0
2759,F#2,406.125,0.125,53,100.0
2760,C#5,406.25,0.25,52,100.0
2761,C#6,406.25,0.25,52,100.0
2762,A5,406.5,0.125,55,100.0
2763,C5,406.5,0.125,55,100.0
2764,C6,406.5,0.125,55,100.0
2765,B-3,406.625,0.25,44,100.0
2766,F#4,406.625,0.25,44,100.0
2767,C#4,406.625,0.25,44,100.0
2768,C#6,407.0,0.25,52,100.0
2769,B-5,407.0,0.25,52,100.0
2770,C#5,407.0,0.25,52,100.0
2771,C#2,407.125,0.25,53,100.0
2772,B-5,407.5,0.75,55,100.0
2773,B-4,407.5,0.75,55,100.0
2774,F#5,407.5,0.75,55,100.0
2775,B-3,407.625,0.25,45,100.0
2776,C#4,407.625,0.25,45,100.0
2777,F#4,407.625,0.25,45,100.0
2778,G#3,408.125,0.125,53,100.0
2779,C#6,408.25,0.25,52,100.0
2780,C#5,408.25,0.25,52,100.0
2781,C6,408.5,0.125,57,100.0
2782,C5,408.5,0.125,57,100.0
2783,F4,408.625,0.25,45,100.0
2784,C#4,408.625,0.25,45,100.0
2785,C#6,409.0,0.25,52,100.0
2786,C#5,409.0,0.25,52,100.0
2787,G#5,409.0,0.25,52,100.0
2788,C#3,409.125,0.25,53,100.0
2789,B5,409.5,0.75,55,100.0
2790,E-5,409.5,0.75,55,100.0
2791,E-6,409.5,0.75,55,100.0
2792,F4,409.625,0.25,45,100.0
2793,G#3,409.625,0.25,45,100.0
2794,C#4,409.625,0.25,45,100.0
2795,G#2,410.125,0.125,53,100.0
2796,C#6,410.25,0.25,51,100.0
2797,G#5,410.25,0.25,51,100.0
2798,C#5,410.25,0.25,51,100.0
2799,C6,410.5,0.125,57,100.0
2800,C5,410.5,0.125,57,100.0
2801,C#4,410.625,0.25,44,100.0
2802,F4,410.625,0.25,44,100.0
2803,G#3,410.625,0.25,44,100.0
2804,C#6,411.0,0.25,52,100.0
2805,G#5,411.0,0.25,52,100.0
2806,C#5,411.0,0.25,52,100.0
2807,C#2,411.125,0.25,53,100.0
2808,E-6,411.5,0.75,55,100.0
2809,B5,411.5,0.75,55,100.0
2810,E-5,411.5,0.75,55,100.0
2811,C#4,411.625,0.25,45,100.0
2812,F4,411.625,0.25,45,100.0
2813,G#3,411.625,0.25,45,100.0
2814,F#3,412.125,0.125,53,100.0
2815,G#5,412.25,0.25,51,100.0
2816,C#5,412.25,0.25,51,100.0
2817,C#6,412.25,0.25,51,100.0
2818,C6,412.5,0.125,55,100.0
2819,C5,412.5,0.125,55,100.0
2820,A5,412.5,0.125,55,100.0
2821,C#4,412.625,0.25,44,100.0
2822,B-3,412.625,0.25,44,100.0
2823,F#4,412.625,0.25,44,100.0
2824,C#5,413.0,0.25,52,100.0
2825,C#6,413.0,0.25,52,100.0
2826,B-5,413.0,0.25,52,100.0
2827,C#3,413.125,0.25,53,100.0
2828,F#6,413.5,0.75,55,100.0
2829,B-5,413.5,0.75,55,100.0
2830,F#5,413.5,0.75,55,100.0
2831,F#4,413.625,0.25,45,100.0
2832,B-3,413.625,0.25,45,100.0
2833,C#4,413.625,0.25,45,100.0
2834,F#2,414.125,0.125,53,100.0
2835,C#6,414.25,0.25,52,100.0
2836,C#5,414.25,0.25,52,100.0
2837,C6,414.5,0.125,55,100.0
2838,C5,414.5,0.125,55,100.0
2839,A5,414.5,0.125,55,100.0
2840,C#4,414.625,0.25,44,100.0
2841,B-3,414.625,0.25,44,100.0
2842,F#4,414.625,0.25,44,100.0
2843,C#6,415.0,0.25,52,100.0
2844,B-5,415.0,0.25,52,100.0
2845,C#5,415.0,0.25,52,100.0
2846,C#2,415.125,0.25,53,100.0
2847,B-5,415.5,0.75,55,100.0
2848,F#6,415.5,0.75,55,100.0
2849,F#5,415.5,0.75,55,100.0
2850,B-3,415.625,0.25,45,100.0
2851,C#4,415.625,0.25,45,100.0
2852,F#4,415.625,0.25,45,100.0
2853,F#3,416.125,0.188,42,100.0
2854,C#6,416.25,0.25,52,100.0
2855,C#5,416.25,0.25,52,100.0
2856,E-6,416.5,0.188,54,100.0
2857,B5,416.5,0.188,54,100.0
2858,E-5,416.5,0.188,54,100.0
2859,B3,416.625,0.188,32,100.0
2860,E-4,416.625,0.188,32,100.0
2861,B5,417.0,0.188,50,100.0
2862,F#5,417.0,0.188,50,100.0
2863,C#3,417.125,0.188,33,100.0
2864,E-5,417.5,0.188,50,100.0
2865,F#5,417.5,0.188,50,100.0
2866,F#4,417.625,0.188,30,100.0
2867,E-4,417.625,0.188,30,100.0
2868,B4,418.0,0.188,50,100.0
2869,E-5,418.0,0.188,50,100.0
2870,F#3,418.125,0.188,42,100.0
2871,E-5,418.5,0.188,50,100.0
2872,F#5,418.5,0.188,50,100.0
2873,E-4,418.625,0.188,33,100.0
2874,B3,418.625,0.188,33,100.0
2875,F#5,419.0,0.188,52,100.0
2876,B5,419.0,0.188,52,100.0
2877,C#3,419.125,0.188,36,100.0
2878,B5,419.5,0.188,54,100.0
2879,E-6,419.5,0.188,54,100.0
2880,E-4,419.625,0.188,33,100.0
2881,F#4,419.625,0.188,33,100.0
2882,F#6,420.0,0.188,56,100.0
2883,E-6,420.0,0.188,56,100.0
2884,F#3,420.125,0.188,42,100.0
2885,C#5,420.5,0.188,55,100.0
2886,B-5,420.5,0.188,55,100.0
2887,C#6,420.5,0.188,55,100.0
2888,C#4,420.625,0.188,33,100.0
2889,B-3,420.625,0.188,33,100.0
2890,F#5,421.0,0.188,50,100.0
2891,B-5,421.0,0.188,50,100.0
2892,C#3,421.125,0.188,36,100.0
2893,F#5,421.5,0.188,50,100.0
2894,C#5,421.5,0.188,50,100.0
2895,F#4,421.625,0.188,33,100.0
2896,C#4,421.625,0.188,33,100.0
2897,B-4,422.0,0.188,50,100.0
2898,C#5,422.0,0.188,50,100.0
2899,F#3,422.125,0.188,42,100.0
2900,C#5,422.5,0.188,51,100.0
2901,F#5,422.5,0.188,51,100.0
2902,B-3,422.625,0.188,34,100.0
2903,C#4,422.625,0.188,34,100.0
2904,F#5,423.0,0.188,50,100.0
2905,B-5,423.0,0.188,50,100.0
2906,C#3,423.125,0.25,37,100.0
2907,C#5,423.5,0.625,52,100.0
2908,B-5,423.5,0.625,52,100.0
2909,F#5,423.5,0.625,52,100.0
2910,C#6,423.5,0.625,52,100.0
2911,C#4,423.625,0.25,34,100.0
2912,F#4,423.625,0.25,34,100.0
2913,F#3,424.125,0.25,42,100.0
2914,E-5,424.312,0.188,49,100.0
2915,F#5,424.375,0.125,49,100.0
2916,B5,424.438,0.062,49,100.0
2917,E-6,424.5,0.25,64,100.0
2918,E-5,424.5,0.25,49,100.0
2919,F#5,424.5,0.25,49,100.0
2920,B5,424.5,0.25,49,100.0
2921,E-4,424.625,0.188,32,100.0
2922,B3,424.625,0.188,32,100.0
2923,F#5,425.0,0.188,50,100.0
2924,B5,425.0,0.188,50,100.0
2925,C#3,425.125,0.188,33,100.0
2926,E-5,425.5,0.188,50,100.0
2927,F#5,425.5,0.188,50,100.0
2928,E-4,425.625,0.188,30,100.0
2929,F#4,425.625,0.188,30,100.0
2930,E-5,426.0,0.188,50,100.0
2931,B4,426.0,0.188,50,100.0
2932,F#3,426.125,0.188,42,100.0
2933,E-5,426.5,0.188,50,100.0
2934,F#5,426.5,0.188,50,100.0
2935,B3,426.625,0.188,33,100.0
2936,E-4,426.625,0.188,33,100.0
2937,B5,427.0,0.188,52,100.0
2938,F#5,427.0,0.188,52,100.0
2939,C#3,427.125,0.188,36,100.0
2940,B5,427.5,0.188,54,100.0
2941,E-6,427.5,0.188,54,100.0
2942,F#4,427.625,0.188,33,100.0
2943,E-4,427.625,0.188,33,100.0
2944,F#6,428.0,0.188,56,100.0
2945,E-6,428.0,0.188,56,100.0
2946,F#3,428.125,0.188,42,100.0
2947,B-5,428.5,0.188,58,100.0
2948,C#6,428.5,0.188,58,100.0
2949,C#4,428.625,0.188,33,100.0
2950,B-3,428.625,0.188,33,100.0
2951,F#5,429.0,0.188,50,100.0
2952,B-5,429.0,0.188,50,100.0
2953,C#3,429.125,0.188,36,100.0
2954,F#5,429.5,0.188,50,100.0
2955,C#5,429.5,0.188,50,100.0
2956,C#4,429.625,0.188,33,100.0
2957,F#4,429.625,0.188,33,100.0
2958,C#5,430.0,0.188,50,100.0
2959,B-4,430.0,0.188,50,100.0
2960,F#3,430.125,0.188,42,100.0
2961,C#5,430.5,0.188,51,100.0
2962,F#5,430.5,0.188,51,100.0
2963,B-3,430.625,0.188,34,100.0
2964,C#4,430.625,0.188,34,100.0
2965,F#5,431.0,0.188,50,100.0
2966,B-5,431.0,0.188,50,100.0
2967,C#3,431.125,0.25,37,100.0
2968,F#5,431.5,0.938,52,100.0
2969,B-5,431.5,0.938,52,100.0
2970,C#6,431.5,0.938,52,100.0
2971,C#5,431.5,0.938,52,100.0
2972,C#4,431.625,0.25,34,100.0
2973,F#4,431.625,0.25,34,100.0
2974,G#3,432.125,0.25,42,100.0
2975,C6,432.5,0.25,65,100.0
2976,F4,432.625,0.25,34,100.0
2977,C#4,432.625,0.25,34,100.0
2978,C#7,432.75,0.25,50,100.0
2979,C#6,433.0,0.25,59,100.0
2980,C#3,433.125,0.25,42,100.0
2981,C#7,433.25,0.25,50,100.0
2982,B5,433.5,0.5,65,100.0
2983,C#4,433.625,0.25,34,100.0
2984,F4,433.625,0.25,34,100.0
2985,C#7,433.75,0.25,50,100.0
2986,C#6,434.0,0.5,60,100.0
2987,G#4,434.125,0.25,42,100.0
2988,C#7,434.25,0.25,50,100.0
2989,C6,434.5,0.25,65,100.0
2990,F5,434.625,0.25,34,100.0
2991,C#5,434.625,0.25,34,100.0
2992,C#7,434.75,0.25,50,100.0
2993,C#6,435.0,0.25,59,100.0
2994,C#4,435.125,0.25,42,100.0
2995,C#7,435.25,0.25,50,100.0
2996,B5,435.5,0.5,65,100.0
2997,F5,435.625,0.25,34,100.0
2998,C#5,435.625,0.25,34,100.0
2999,C#7,435.75,0.25,50,100.0
3000,C#6,436.0,0.5,60,100.0
3001,F#3,436.125,0.25,42,100.0
3002,C#7,436.25,0.25,50,100.0
3003,C6,436.5,0.25,65,100.0
3004,F#4,436.625,0.25,33,100.0
3005,B-3,436.625,0.25,33,100.0
3006,C#4,436.625,0.25,33,100.0
3007,C#7,436.75,0.25,50,100.0
3008,C#6,437.0,0.25,59,100.0
3009,C#3,437.125,0.25,42,100.0
3010,C#7,437.25,0.25,50,100.0
3011,B-5,437.5,0.5,65,100.0
3012,B-3,437.625,0.25,33,100.0
3013,C#4,437.625,0.25,33,100.0
3014,F#4,437.625,0.25,33,100.0
3015,C#7,437.75,0.25,50,100.0
3016,C#6,438.0,0.5,60,100.0
3017,B-4,438.125,0.25,42,100.0
3018,C#7,438.25,0.25,50,100.0
3019,C6,438.5,0.25,65,100.0
3020,C#5,438.625,0.25,34,100.0
3021,F#5,438.625,0.25,34,100.0
3022,C#7,438.75,0.25,50,100.0
3023,C#6,439.0,0.25,59,100.0
3024,F#4,439.125,0.25,42,100.0
3025,C#7,439.25,0.25,50,100.0
3026,B-5,439.5,0.5,65,100.0
3027,C#5,439.625,0.25,34,100.0
3028,F#5,439.625,0.25,34,100.0
3029,C#7,439.75,0.25,50,100.0
3030,C#6,440.0,0.5,60,100.0
3031,G#3,440.125,0.25,42,100.0
3032,C#7,440.25,0.25,50,100.0
3033,C6,440.5,0.25,65,100.0
3034,C#4,440.625,0.25,34,100.0
3035,F4,440.625,0.25,34,100.0
3036,C#7,440.75,0.25,50,100.0
3037,C#6,441.0,0.25,59,100.0
3038,C#3,441.125,0.25,42,100.0
3039,C#7,441.25,0.25,50,100.0
3040,F6,441.5,0.5,60,100.0
3041,B5,441.5,0.5,60,100.0
3042,C#4,441.625,0.25,34,100.0
3043,F4,441.625,0.25,34,100.0
3044,C#7,441.75,0.25,50,100.0
3045,C#6,442.0,0.5,60,100.0
3046,G#4,442.125,0.25,42,100.0
3047,C#7,442.25,0.25,50,100.0
3048,C6,442.5,0.25,65,100.0
3049,C#5,442.625,0.25,34,100.0
3050,F5,442.625,0.25,34,100.0
3051,C#7,442.75,0.25,50,100.0
3052,C#6,443.0,0.25,59,100.0
3053,C#4,443.125,0.25,42,100.0
3054,C#7,443.25,0.25,50,100.0
3055,B5,443.5,0.5,60,100.0
3056,F6,443.5,0.5,60,100.0
3057,F5,443.625,0.25,34,100.0
3058,C#5,443.625,0.25,34,100.0
3059,C#7,443.75,0.25,50,100.0
3060,C#6,444.0,0.5,60,100.0
3061,F#3,444.125,0.25,42,100.0
3062,C#7,444.25,0.25,50,100.0
3063,B-5,444.5,0.25,65,100.0
3064,F#4,444.625,0.25,33,100.0
3065,B-3,444.625,0.25,33,100.0
3066,C#4,444.625,0.25,33,100.0
3067,C#7,444.75,0.25,50,100.0
3068,C#6,445.0,0.25,59,100.0
3069,C#3,445.125,0.25,42,100.0
3070,C#7,445.25,0.25,50,100.0
3071,F#6,445.5,0.5,59,100.0
3072,B-5,445.5,0.5,59,100.0
3073,C#4,445.625,0.25,33,100.0
3074,F#4,445.625,0.25,33,100.0
3075,B-3,445.625,0.25,33,100.0
3076,C#7,445.75,0.25,50,100.0
3077,C#6,446.0,0.5,60,100.0
3078,B-4,446.125,0.25,42,100.0
3079,C#7,446.25,0.25,50,100.0
3080,B-5,446.5,0.25,65,100.0
3081,C#5,446.625,0.25,34,100.0
3082,F#5,446.625,0.25,34,100.0
3083,C#7,446.75,0.25,50,100.0
3084,C#6,447.0,0.25,59,100.0
3085,F#4,447.125,0.25,42,100.0
3086,C#7,447.25,0.25,50,100.0
3087,F#6,447.5,0.5,62,100.0
3088,B-5,447.5,0.5,62,100.0
3089,F#5,447.625,0.25,34,100.0
3090,C#5,447.625,0.25,34,100.0
3091,C#7,447.75,0.25,50,100.0
3092,C#6,448.0,0.5,60,100.0
3093,F#4,448.125,0.25,42,100.0
3094,C#7,448.25,0.25,50,100.0
3095,E-6,448.5,0.25,65,100.0
3096,B4,448.625,0.25,34,100.0
3097,E-5,448.625,0.25,34,100.0
3098,C#7,448.75,0.25,47,100.0
3099,B5,449.0,0.25,60,100.0
3100,C#4,449.125,0.25,42,100.0
3101,C#7,449.25,0.25,47,100.0
3102,B-5,449.5,0.25,60,100.0
3103,F#5,449.625,0.25,34,100.0
3104,E-5,449.625,0.25,34,100.0
3105,C#7,449.75,0.25,47,100.0
3106,B5,450.0,0.25,62,100.0
3107,F#4,450.125,0.25,42,100.0
3108,C#7,450.25,0.25,47,100.0
3109,E-6,450.5,0.25,65,100.0
3110,F#5,450.625,0.25,34,100.0
3111,E-5,450.625,0.25,34,100.0
3112,C#7,450.75,0.25,48,100.0
3113,B5,451.0,0.25,62,100.0
3114,B4,451.125,0.25,42,100.0
3115,C#7,451.25,0.25,47,100.0
3116,F#6,451.5,0.25,65,100.0
3117,E-5,451.625,0.25,34,100.0
3118,F#5,451.625,0.25,34,100.0
3119,C#7,451.75,0.25,46,100.0
3120,E-6,452.0,0.25,61,100.0
3121,F#4,452.125,0.25,42,100.0
3122,C#7,452.25,0.25,48,100.0
3123,C#6,452.5,0.25,65,100.0
3124,B-4,452.625,0.25,34,100.0
3125,C#5,452.625,0.25,34,100.0
3126,C#7,452.75,0.25,47,100.0
3127,B-5,453.0,0.25,60,100.0
3128,C#4,453.125,0.25,42,100.0
3129,C#7,453.25,0.25,47,100.0
3130,A5,453.5,0.25,60,100.0
3131,F#5,453.625,0.25,34,100.0
3132,C#5,453.625,0.25,34,100.0
3133,C#7,453.75,0.25,47,100.0
3134,B-5,454.0,0.25,62,100.0
3135,F#4,454.125,0.25,42,100.0
3136,C#7,454.25,0.25,47,100.0
3137,C#6,454.5,0.25,65,100.0
3138,F#5,454.625,0.25,34,100.0
3139,C#5,454.625,0.25,34,100.0
3140,C#7,454.75,0.25,48,100.0
3141,B-5,455.0,0.25,62,100.0
3142,B-4,455.125,0.25,42,100.0
3143,C#7,455.25,0.25,47,100.0
3144,F#6,455.5,0.25,65,100.0
3145,F#5,455.625,0.25,34,100.0
3146,C#5,455.625,0.25,34,100.0
3147,C#7,455.75,0.25,46,100.0
3148,C#6,456.0,0.25,61,100.0
3149,F#4,456.125,0.25,42,100.0
3150,C#7,456.25,0.25,48,100.0
3151,E-6,456.5,0.25,65,100.0
3152,E-5,456.625,0.25,34,100.0
3153,B4,456.625,0.25,34,100.0
3154,C#7,456.75,0.25,47,100.0
3155,B5,457.0,0.25,60,100.0
3156,C#4,457.125,0.25,42,100.0
3157,C#7,457.25,0.25,47,100.0
3158,B-5,457.5,0.25,60,100.0
3159,F#5,457.625,0.25,34,100.0
3160,E-5,457.625,0.25,34,100.0
3161,C#7,457.75,0.25,47,100.0
3162,B5,458.0,0.25,62,100.0
3163,F#4,458.125,0.25,42,100.0
3164,C#7,458.25,0.25,47,100.0
3165,E-6,458.5,0.25,65,100.0
3166,F#5,458.625,0.25,34,100.0
3167,E-5,458.625,0.25,34,100.0
3168,C#7,458.75,0.25,48,100.0
3169,B5,459.0,0.25,62,100.0
3170,B4,459.125,0.25,42,100.0
3171,C#7,459.25,0.25,47,100.0
3172,F#6,459.5,0.25,65,100.0
3173,F#5,459.625,0.25,34,100.0
3174,E-5,459.625,0.25,34,100.0
3175,C#7,459.75,0.25,46,100.0
3176,E-6,460.0,0.25,61,100.0
3177,F#4,460.125,0.25,42,100.0
3178,C#7,460.25,0.25,48,100.0
3179,C#6,460.5,0.25,65,100.0
3180,C#5,460.625,0.25,34,100.0
3181,B-4,460.625,0.25,34,100.0
3182,C#7,460.75,0.25,47,100.0
3183,B-5,461.0,0.25,60,100.0
3184,C#4,461.125,0.25,42,100.0
3185,C#7,461.25,0.25,47,100.0
3186,A5,461.5,0.25,60,100.0
3187,F#5,461.625,0.25,34,100.0
3188,C#5,461.625,0.25,34,100.0
3189,C#7,461.75,0.25,47,100.0
3190,B-5,462.0,0.25,62,100.0
3191,F#4,462.125,0.25,42,100.0
3192,C#7,462.25,0.25,47,100.0
3193,C#6,462.5,0.25,65,100.0
3194,C#5,462.625,0.25,34,100.0
3195,F#5,462.625,0.25,34,100.0
3196,C#7,462.75,0.25,48,100.0
3197,B-5,463.0,0.25,62,100.0
3198,B-4,463.125,0.25,42,100.0
3199,C#7,463.25,0.25,47,100.0
3200,F#6,463.5,0.25,65,100.0
3201,C#5,463.625,0.25,34,100.0
3202,F#5,463.625,0.25,34,100.0
3203,C#7,463.75,0.25,46,100.0
3204,C#6,464.0,0.25,61,100.0
3205,C#7,464.25,0.25,48,100.0
3206,C4,464.5,0.125,42,100.0
3207,B5,464.5,0.25,60,100.0
3208,F6,464.5,0.25,60,100.0
3209,C#4,464.625,0.25,48,100.0
3210,C#7,464.75,0.25,48,100.0
3211,G#6,465.0,0.312,57,100.0
3212,C#6,465.0,0.312,57,100.0
3213,C#7,465.25,0.25,47,100.0
3214,E4,465.5,0.125,48,100.0
3215,B5,465.5,0.25,60,100.0
3216,F6,465.5,0.25,60,100.0
3217,F4,465.625,0.25,49,100.0
3218,C#7,465.75,0.25,46,100.0
3219,C#6,466.0,0.312,56,100.0
3220,G#6,466.0,0.312,56,100.0
3221,C#7,466.25,0.25,48,100.0
3222,A4,466.5,0.125,50,100.0
3223,F6,466.5,0.25,60,100.0
3224,B5,466.5,0.25,60,100.0
3225,B-4,466.625,0.25,51,100.0
3226,C#7,466.75,0.25,48,100.0
3227,C#6,467.0,0.312,57,100.0
3228,G#6,467.0,0.312,57,100.0
3229,C#7,467.25,0.25,47,100.0
3230,G4,467.5,0.125,42,100.0
3231,B5,467.5,0.25,60,100.0
3232,F6,467.5,0.25,60,100.0
3233,G#4,467.625,0.25,49,100.0
3234,C#7,467.75,0.25,46,100.0
3235,C#6,468.0,0.312,56,100.0
3236,G#6,468.0,0.312,56,100.0
3237,C#7,468.25,0.25,48,100.0
3238,F4,468.5,0.125,42,100.0
3239,F#6,468.5,0.25,60,100.0
3240,B-5,468.5,0.25,60,100.0
3241,F#4,468.625,0.25,50,100.0
3242,C#7,468.75,0.25,48,100.0
3243,E4,469.0,0.125,42,100.0
3244,B-6,469.0,0.312,57,100.0
3245,C#6,469.0,0.312,57,100.0
3246,F4,469.125,0.25,48,100.0
3247,C#7,469.25,0.25,47,100.0
3248,E-4,469.5,0.125,42,100.0
3249,F#6,469.5,0.25,60,100.0
3250,B-5,469.5,0.25,60,100.0
3251,E4,469.625,0.25,54,100.0
3252,C#7,469.75,0.25,46,100.0
3253,B-6,470.0,0.312,56,100.0
3254,C#6,470.0,0.312,56,100.0
3255,C#7,470.25,0.25,48,100.0
3256,D4,470.5,0.125,42,100.0
3257,B-5,470.5,0.25,60,100.0
3258,F#6,470.5,0.25,60,100.0
3259,E-4,470.625,0.25,49,100.0
3260,C#7,470.75,0.25,48,100.0
3261,C#4,471.0,0.125,42,100.0
3262,C#6,471.0,0.312,57,100.0
3263,B-6,471.0,0.312,57,100.0
3264,D4,471.125,0.25,49,100.0
3265,C#7,471.25,0.25,47,100.0
3266,C4,471.5,0.125,54,100.0
3267,B-5,471.5,0.25,60,100.0
3268,F#6,471.5,0.25,60,100.0
3269,C#4,471.625,0.25,56,100.0
3270,C#7,471.75,0.25,46,100.0
3271,C#6,472.0,0.312,56,100.0
3272,B-6,472.0,0.312,56,100.0
3273,C#7,472.25,0.25,48,100.0
3274,C4,472.5,0.125,42,100.0
3275,B5,472.5,0.25,60,100.0
3276,F6,472.5,0.25,60,100.0
3277,C#4,472.625,0.25,48,100.0
3278,C#7,472.75,0.25,48,100.0
3279,G#6,473.0,0.312,57,100.0
3280,C#6,473.0,0.312,57,100.0
3281,C#7,473.25,0.25,47,100.0
3282,E4,473.5,0.125,48,100.0
3283,B5,473.5,0.25,60,100.0
3284,F6,473.5,0.25,60,100.0
3285,F4,473.625,0.25,49,100.0
3286,C#7,473.75,0.25,46,100.0
3287,G#6,474.0,0.312,56,100.0
3288,C#6,474.0,0.312,56,100.0
3289,C#7,474.25,0.25,48,100.0
3290,A4,474.5,0.125,50,100.0
3291,F6,474.5,0.25,60,100.0
3292,B5,474.5,0.25,60,100.0
3293,B-4,474.625,0.25,51,100.0
3294,C#7,474.75,0.25,48,100.0
3295,C#6,475.0,0.312,57,100.0
3296,G#6,475.0,0.312,57,100.0
3297,C#7,475.25,0.25,47,100.0
3298,G4,475.5,0.125,42,100.0
3299,B5,475.5,0.25,60,100.0
3300,F6,475.5,0.25,60,100.0
3301,G#4,475.625,0.25,49,100.0
3302,C#7,475.75,0.25,46,100.0
3303,C#6,476.0,0.312,56,100.0
3304,G#6,476.0,0.312,56,100.0
3305,C#7,476.25,0.25,48,100.0
3306,F4,476.5,0.125,42,100.0
3307,B-5,476.5,0.25,60,100.0
3308,F#6,476.5,0.25,60,100.0
3309,F#4,476.625,0.25,50,100.0
3310,C#7,476.75,0.25,48,100.0
3311,E4,477.0,0.125,42,100.0
3312,C#6,477.0,0.312,57,100.0
3313,B-6,477.0,0.312,57,100.0
3314,F4,477.125,0.25,48,100.0
3315,C#7,477.25,0.25,47,100.0
3316,E-4,477.5,0.125,42,100.0
3317,B-5,477.5,0.25,60,100.0
3318,F#6,477.5,0.25,60,100.0
3319,E4,477.625,0.25,54,100.0
3320,C#7,477.75,0.25,46,100.0
3321,C#6,478.0,0.312,56,100.0
3322,B-6,478.0,0.312,56,100.0
3323,C#7,478.25,0.25,48,100.0
3324,D4,478.5,0.125,42,100.0
3325,B-5,478.5,0.25,60,100.0
3326,F#6,478.5,0.25,60,100.0
3327,E-4,478.625,0.25,49,100.0
3328,C#7,478.75,0.25,48,100.0
3329,C#4,479.0,0.125,42,100.0
3330,B-6,479.0,0.312,57,100.0
3331,C#6,479.0,0.312,57,100.0
3332,D4,479.125,0.25,49,100.0
3333,C#7,479.25,0.25,47,100.0
3334,C4,479.5,0.125,54,100.0
3335,B-5,479.5,0.25,60,100.0
3336,F#6,479.5,0.25,60,100.0
3337,C#4,479.625,0.25,56,100.0
3338,C#7,479.75,0.25,46,100.0
3339,C#6,480.0,0.312,56,100.0
3340,B-6,480.0,0.312,56,100.0
3341,G#3,480.125,0.25,42,100.0
3342,C#7,480.25,0.25,48,100.0
3343,B5,480.5,0.25,60,100.0
3344,F6,480.5,0.25,60,100.0
3345,C#4,480.625,0.25,37,100.0
3346,F4,480.625,0.25,37,100.0
3347,C#7,480.75,0.25,48,100.0
3348,G#6,481.0,0.312,57,100.0
3349,C#6,481.0,0.312,57,100.0
3350,C#3,481.125,0.25,42,100.0
3351,C#7,481.25,0.25,47,100.0
3352,F6,481.5,0.25,60,100.0
3353,B5,481.5,0.25,60,100.0
3354,C#4,481.625,0.25,37,100.0
3355,F4,481.625,0.25,37,100.0
3356,C#7,481.75,0.25,46,100.0
3357,C#6,482.0,0.312,56,100.0
3358,G#6,482.0,0.312,56,100.0
3359,G#4,482.125,0.25,40,100.0
3360,C5,482.125,0.25,40,100.0
3361,C#7,482.25,0.25,48,100.0
3362,F6,482.5,0.25,60,100.0
3363,B5,482.5,0.25,60,100.0
3364,C#5,482.625,0.25,37,100.0
3365,F4,482.625,0.25,37,100.0
3366,C#7,482.75,0.25,48,100.0
3367,C#6,483.0,0.312,57,100.0
3368,G#6,483.0,0.312,57,100.0
3369,B4,483.125,0.75,45,100.0
3370,G#4,483.125,0.75,45,100.0
3371,C#7,483.25,0.25,47,100.0
3372,F6,483.5,1.0,58,100.0
3373,C#6,483.5,1.0,58,100.0
3374,F5,483.5,1.0,58,100.0
3375,C#5,483.875,0.25,37,100.0
3376,F4,483.875,0.25,37,100.0
3377,F#3,484.125,0.25,42,100.0
3378,B-5,484.5,0.25,60,100.0
3379,F#6,484.5,0.25,60,100.0
3380,C#4,484.625,0.25,37,100.0
3381,F#4,484.625,0.25,37,100.0
3382,C#7,484.75,0.25,48,100.0
3383,B-6,485.0,0.312,57,100.0
3384,C#6,485.0,0.312,57,100.0
3385,C#3,485.125,0.25,42,100.0
3386,C#7,485.25,0.25,47,100.0
3387,F#6,485.5,0.25,60,100.0
3388,B-5,485.5,0.25,60,100.0
3389,C#4,485.625,0.25,37,100.0
3390,F#4,485.625,0.25,37,100.0
3391,C#7,485.75,0.25,46,100.0
3392,B-6,486.0,0.312,56,100.0
3393,C#6,486.0,0.312,56,100.0
3394,C5,486.125,0.25,40,100.0
3395,A4,486.125,0.25,40,100.0
3396,C#7,486.25,0.25,48,100.0
3397,B-5,486.5,0.25,60,100.0
3398,F#6,486.5,0.25,60,100.0
3399,C#5,486.625,0.25,37,100.0
3400,B-4,486.625,0.25,37,100.0
3401,C#7,486.75,0.25,48,100.0
3402,B-6,487.0,0.312,57,100.0
3403,C#6,487.0,0.312,57,100.0
3404,F#4,487.125,1.0,42,100.0
3405,B-4,487.125,0.75,48,100.0
3406,C#7,487.25,0.25,47,100.0
3407,C#6,487.5,1.0,58,100.0
3408,F#6,487.5,1.0,58,100.0
3409,F#5,487.5,1.0,58,100.0
3410,C#5,487.875,0.25,37,100.0
3411,G#3,488.125,0.25,42,100.0
3412,F6,488.5,0.25,60,100.0
3413,B5,488.5,0.25,60,100.0
3414,C#4,488.625,0.25,37,100.0
3415,F4,488.625,0.25,37,100.0
3416,C#7,488.75,0.25,48,100.0
3417,G#6,489.0,0.312,57,100.0
3418,C#6,489.0,0.312,57,100.0
3419,C#3,489.125,0.25,42,100.0
3420,C#7,489.25,0.25,47,100.0
3421,F6,489.5,0.25,60,100.0
3422,B5,489.5,0.25,60,100.0
3423,F4,489.625,0.25,37,100.0
3424,C#4,489.625,0.25,37,100.0
3425,C#7,489.75,0.25,46,100.0
3426,C#6,490.0,0.312,56,100.0
3427,G#6,490.0,0.312,56,100.0
3428,C5,490.125,0.25,40,100.0
3429,G#4,490.125,0.25,40,100.0
3430,C#7,490.25,0.25,48,100.0
3431,B5,490.5,0.25,60,100.0
3432,F6,490.5,0.25,60,100.0
3433,C#5,490.625,0.25,37,100.0
3434,F4,490.625,0.25,37,100.0
3435,C#7,490.75,0.25,48,100.0
3436,C#6,491.0,0.312,57,100.0
3437,G#6,491.0,0.312,57,100.0
3438,G#4,491.125,0.75,45,100.0
3439,B4,491.125,0.75,45,100.0
3440,C#7,491.25,0.25,47,100.0
3441,F6,491.5,1.0,58,100.0
3442,C#6,491.5,1.0,58,100.0
3443,F5,491.5,1.0,58,100.0
3444,F4,491.875,0.25,37,100.0
3445,C#5,491.875,0.25,37,100.0
3446,F#3,492.125,0.25,42,100.0
3447,F#6,492.5,0.25,60,100.0
3448,B-5,492.5,0.25,60,100.0
3449,C#4,492.625,0.25,37,100.0
3450,F#4,492.625,0.25,37,100.0
3451,C#7,492.75,0.25,48,100.0
3452,C#6,493.0,0.312,57,100.0
3453,B-6,493.0,0.312,57,100.0
3454,C#3,493.125,0.25,42,100.0
3455,C#7,493.25,0.25,47,100.0
3456,B-5,493.5,0.25,60,100.0
3457,F#6,493.5,0.25,60,100.0
3458,F#4,493.625,0.25,37,100.0
3459,C#4,493.625,0.25,37,100.0
3460,C#7,493.75,0.25,46,100.0
3461,C#6,494.0,0.312,56,100.0
3462,B-6,494.0,0.312,56,100.0
3463,C5,494.125,0.25,40,100.0
3464,A4,494.125,0.25,40,100.0
3465,C#7,494.25,0.25,48,100.0
3466,B-5,494.5,0.25,60,100.0
3467,F#6,494.5,0.25,60,100.0
3468,B-4,494.625,0.25,37,100.0
3469,C#5,494.625,0.25,37,100.0
3470,C#7,494.75,0.25,48,100.0
3471,C#6,495.0,0.312,57,100.0
3472,B-6,495.0,0.312,57,100.0
3473,F#4,495.125,1.0,42,100.0
3474,B-4,495.125,0.75,48,100.0
3475,C#7,495.25,0.25,47,100.0
3476,C#6,495.5,1.0,58,100.0
3477,F#5,495.5,1.0,58,100.0
3478,F#6,495.5,1.0,58,100.0
3479,C#5,495.875,0.25,37,100.0
3480,G#3,496.125,0.25,42,100.0
3481,B5,496.375,0.125,66,100.0
3482,E-7,496.5,0.25,82,100.0
3483,C#4,496.625,0.25,32,100.0
3484,B4,496.625,0.25,32,100.0
3485,F4,496.625,0.25,32,100.0
3486,C#3,497.125,0.25,36,100.0
3487,G#5,497.5,1.0,65,100.0
3488,F4,497.625,0.25,32,100.0
3489,B4,497.625,0.25,32,100.0
3490,C#4,497.625,0.25,32,100.0
3491,G#3,498.125,0.25,42,100.0
3492,G#5,498.5,0.5,65,100.0
3493,F4,498.625,0.25,36,100.0
3494,C#4,498.625,0.25,36,100.0
3495,B4,498.625,0.25,36,100.0
3496,B-5,499.0,0.25,65,100.0
3497,C#3,499.125,0.25,36,100.0
3498,B5,499.5,0.25,69,100.0
3499,C#4,499.625,0.25,32,100.0
3500,B4,499.625,0.25,32,100.0
3501,F4,499.625,0.25,32,100.0
3502,G#5,500.0,0.25,65,100.0
3503,F#3,500.125,0.25,42,100.0
3504,B-5,500.375,0.125,63,100.0
3505,C#7,500.5,0.25,83,100.0
3506,C#4,500.625,0.25,30,100.0
3507,F#4,500.625,0.25,30,100.0
3508,B-4,500.625,0.25,30,100.0
3509,C#3,501.125,0.25,34,100.0
3510,F#5,501.5,1.0,65,100.0
3511,B-4,501.625,0.25,30,100.0
3512,C#4,501.625,0.25,30,100.0
3513,F#4,501.625,0.25,30,100.0
3514,F#3,502.125,0.25,42,100.0
3515,F#5,502.5,0.5,65,100.0
3516,B-4,502.625,0.25,32,100.0
3517,F#4,502.625,0.25,32,100.0
3518,C#4,502.625,0.25,32,100.0
3519,G#5,503.0,0.25,65,100.0
3520,C#3,503.125,0.25,36,100.0
3521,B-5,503.5,0.25,69,100.0
3522,B-4,503.625,0.25,32,100.0
3523,C#4,503.625,0.25,32,100.0
3524,F#4,503.625,0.25,32,100.0
3525,F#5,504.0,0.25,59,100.0
3526,G#3,504.125,0.25,42,100.0
3527,F5,504.5,0.25,65,100.0
3528,F4,504.625,0.25,30,100.0
3529,B4,504.625,0.25,30,100.0
3530,C#4,504.625,0.25,30,100.0
3531,F#5,505.0,0.25,61,100.0
3532,C#3,505.125,0.25,34,100.0
3533,G#5,505.5,0.25,65,100.0
3534,F4,505.625,0.25,30,100.0
3535,C#4,505.625,0.25,30,100.0
3536,B4,505.625,0.25,30,100.0
3537,B-5,506.0,0.25,61,100.0
3538,G#3,506.125,0.25,42,100.0
3539,B5,506.5,0.25,65,100.0
3540,F4,506.625,0.25,33,100.0
3541,B4,506.625,0.25,33,100.0
3542,C#4,506.625,0.25,33,100.0
3543,C#6,507.0,0.25,60,100.0
3544,C#3,507.125,0.25,37,100.0
3545,E-6,507.5,0.25,65,100.0
3546,C#4,507.625,0.25,32,100.0
3547,F4,507.625,0.25,32,100.0
3548,B4,507.625,0.25,32,100.0
3549,F6,508.0,0.25,59,100.0
3550,F#3,508.125,0.25,42,100.0
3551,F#6,508.375,0.062,61,100.0
3552,G#6,508.438,0.062,61,100.0
3553,F#6,508.5,0.25,75,100.0
3554,B-4,508.625,0.25,35,100.0
3555,F#4,508.625,0.25,35,100.0
3556,C#4,508.625,0.25,35,100.0
3557,F6,509.0,0.25,65,100.0
3558,C#3,509.125,0.25,39,100.0
3559,F#6,509.5,0.25,71,100.0
3560,C#4,509.625,0.25,35,100.0
3561,B-4,509.625,0.25,35,100.0
3562,F#4,509.625,0.25,35,100.0
3563,G#6,510.0,0.25,65,100.0
3564,F#3,510.125,0.25,42,100.0
3565,B-6,510.5,0.25,73,100.0
3566,C#4,510.625,0.25,34,100.0
3567,B-4,510.625,0.25,34,100.0
3568,F#4,510.625,0.25,34,100.0
3569,G#6,511.0,0.25,65,100.0
3570,C#3,511.125,0.25,38,100.0
3571,B-6,511.5,0.25,73,100.0
3572,F#4,511.625,0.25,34,100.0
3573,B-4,511.625,0.25,34,100.0
3574,C#4,511.625,0.25,34,100.0
3575,F#6,512.0,0.25,65,100.0
3576,G#3,512.125,0.25,42,100.0
3577,B5,512.375,21/500,52,100.0
3578,F6,512.375,21/500,52,100.0
3579,G#6,512.458,21/500,57,100.0
3580,E-7,512.5,0.25,82,100.0
3581,F4,512.625,0.25,32,100.0
3582,C#4,512.625,0.25,32,100.0
3583,B4,512.625,0.25,32,100.0
3584,C#3,513.125,0.25,36,100.0
3585,F5,513.5,1.0,60,100.0
3586,G#5,513.5,1.0,60,100.0
3587,B4,513.625,0.25,32,100.0
3588,C#4,513.625,0.25,32,100.0
3589,F4,513.625,0.25,32,100.0
3590,G#3,514.125,0.25,42,100.0
3591,F5,514.5,0.5,60,100.0
3592,G#5,514.5,0.5,60,100.0
3593,B4,514.625,0.25,36,100.0
3594,F4,514.625,0.25,36,100.0
3595,C#4,514.625,0.25,36,100.0
3596,B-5,515.0,0.25,61,100.0
3597,F#5,515.0,0.25,61,100.0
3598,C#3,515.125,0.25,36,100.0
3599,G#5,515.5,0.25,64,100.0
3600,B5,515.5,0.25,64,100.0
3601,B4,515.625,0.25,32,100.0
3602,F4,515.625,0.25,32,100.0
3603,C#4,515.625,0.25,32,100.0
3604,F5,516.0,0.25,61,100.0
3605,G#5,516.0,0.25,61,100.0
3606,F#3,516.125,0.25,43,100.0
3607,B-5,516.375,21/500,52,100.0
3608,C#6,516.375,21/500,52,100.0
3609,F#6,516.458,1/250,61,100.0
3610,C#7,516.5,0.25,85,100.0
3611,F#4,516.625,0.25,31,100.0
3612,B-4,516.625,0.25,31,100.0
3613,C#4,516.625,0.25,31,100.0
3614,C#3,517.125,0.25,35,100.0
3615,B-4,517.5,1.0,62,100.0
3616,F#5,517.5,1.0,62,100.0
3617,F#4,517.625,0.25,32,100.0
3618,C#4,517.625,0.25,32,100.0
3619,F#3,518.125,0.25,44,100.0
3620,B-4,518.5,0.5,62,100.0
3621,F#5,518.5,0.5,62,100.0
3622,F#4,518.625,0.25,34,100.0
3623,C#4,518.625,0.25,34,100.0
3624,B4,519.0,0.25,63,100.0
3625,G#5,519.0,0.25,63,100.0
3626,C#3,519.125,0.25,38,100.0
3627,C#5,519.5,0.25,67,100.0
3628,B-5,519.5,0.25,67,100.0
3629,C#4,519.625,0.25,35,100.0
3630,F#4,519.625,0.25,35,100.0
3631,F#5,520.0,0.25,58,100.0
3632,B-4,520.0,0.25,58,100.0
3633,G#3,520.125,0.25,44,100.0
3634,F5,520.5,0.25,64,100.0
3635,G#4,520.5,0.25,64,100.0
3636,F4,520.625,0.25,31,100.0
3637,B3,520.625,0.25,31,100.0
3638,C#4,520.625,0.25,31,100.0
3639,F#5,521.0,0.25,60,100.0
3640,B-4,521.0,0.25,60,100.0
3641,C#3,521.125,0.25,36,100.0
3642,B4,521.5,0.25,64,100.0
3643,G#5,521.5,0.25,64,100.0
3644,F4,521.625,0.25,32,100.0
3645,C#4,521.625,0.25,32,100.0
3646,B3,521.625,0.25,32,100.0
3647,C#5,522.0,0.25,60,100.0
3648,B-5,522.0,0.25,60,100.0
3649,G#3,522.125,0.25,45,100.0
3650,E-5,522.5,0.25,64,100.0
3651,B5,522.5,0.25,64,100.0
3652,C#4,522.625,0.25,35,100.0
3653,F4,522.625,0.25,35,100.0
3654,B3,522.625,0.25,35,100.0
3655,F5,523.0,0.25,60,100.0
3656,C#6,523.0,0.25,60,100.0
3657,C#3,523.125,0.25,40,100.0
3658,E-6,523.5,0.25,66,100.0
3659,F#5,523.5,0.25,66,100.0
3660,C#4,523.625,0.25,35,100.0
3661,B3,523.625,0.25,35,100.0
3662,F4,523.625,0.25,35,100.0
3663,G#5,524.0,0.25,60,100.0
3664,F6,524.0,0.25,60,100.0
3665,F#3,524.125,0.25,46,100.0
3666,B-5,524.5,0.25,76,100.0
3667,F#6,524.5,0.25,76,100.0
3668,C#4,524.625,0.25,38,100.0
3669,F#4,524.625,0.25,38,100.0
3670,B-3,524.625,0.25,38,100.0
3671,G#5,525.0,0.25,66,100.0
3672,F6,525.0,0.25,66,100.0
3673,C#3,525.125,0.25,43,100.0
3674,B-5,525.5,0.25,73,100.0
3675,F#6,525.5,0.25,73,100.0
3676,C#4,525.625,0.25,38,100.0
3677,B-3,525.625,0.25,38,100.0
3678,F#4,525.625,0.25,38,100.0
3679,B5,526.0,0.25,66,100.0
3680,G#6,526.0,0.25,66,100.0
3681,F#3,526.125,0.25,47,100.0
3682,B-6,526.5,0.25,76,100.0
3683,C#6,526.5,0.25,76,100.0
3684,B-3,526.625,0.25,38,100.0
3685,F#4,526.625,0.25,38,100.0
3686,C#4,526.625,0.25,38,100.0
3687,B5,527.0,0.25,68,100.0
3688,G#6,527.0,0.25,68,100.0
3689,C#3,527.125,0.25,43,100.0
3690,B-6,527.5,0.25,76,100.0
3691,C#6,527.5,0.25,76,100.0
3692,C#4,527.625,0.25,38,100.0
3693,F#4,527.625,0.25,38,100.0
3694,B-3,527.625,0.25,38,100.0
3695,F#6,528.0,0.25,68,100.0
3696,B-5,528.0,0.25,68,100.0
3697,E-3,528.125,0.25,53,100.0
3698,E-6,528.375,0.062,58,100.0
3699,B-6,528.438,0.062,62,100.0
3700,F#7,528.5,0.25,93,100.0
3701,C4,528.625,0.25,39,100.0
3702,F#4,528.625,0.25,39,100.0
3703,G#3,528.625,0.25,39,100.0
3704,G#2,529.125,0.25,48,100.0
3705,E-5,529.5,1.0,71,100.0
3706,F#4,529.5,1.0,71,100.0
3707,C4,529.625,0.25,40,100.0
3708,G#3,529.625,0.25,40,100.0
3709,F#3,530.125,0.25,52,100.0
3710,E-5,530.5,0.5,71,100.0
3711,F#4,530.5,0.5,71,100.0
3712,C4,530.625,0.25,40,100.0
3713,G#3,530.625,0.25,40,100.0
3714,G#4,531.0,0.25,69,100.0
3715,F5,531.0,0.25,69,100.0
3716,G#2,531.125,0.25,48,100.0
3717,F#5,531.5,0.25,72,100.0
3718,B-4,531.5,0.25,72,100.0
3719,G#3,531.625,0.25,40,100.0
3720,C4,531.625,0.25,40,100.0
3721,F#4,532.0,0.25,66,100.0
3722,E-5,532.0,0.25,66,100.0
3723,C#3,532.125,0.25,53,100.0
3724,C#6,532.375,0.062,58,100.0
3725,G#6,532.438,0.062,62,100.0
3726,F7,532.5,0.25,93,100.0
3727,C#4,532.625,0.25,39,100.0
3728,G#3,532.625,0.25,39,100.0
3729,F4,532.625,0.25,39,100.0
3730,G#2,533.125,0.25,48,100.0
3731,F4,533.5,1.0,71,100.0
3732,C#5,533.5,1.0,71,100.0
3733,C#4,533.625,0.25,40,100.0
3734,G#3,533.625,0.25,40,100.0
3735,C#3,534.125,0.25,52,100.0
3736,F4,534.5,0.5,71,100.0
3737,C#5,534.5,0.5,71,100.0
3738,G#3,534.625,0.25,40,100.0
3739,C#4,534.625,0.25,40,100.0
3740,F#4,535.0,0.25,69,100.0
3741,E-5,535.0,0.25,69,100.0
3742,G#2,535.125,0.25,48,100.0
3743,G#4,535.5,0.25,72,100.0
3744,F5,535.5,0.25,72,100.0
3745,C#4,535.625,0.25,40,100.0
3746,G#3,535.625,0.25,40,100.0
3747,F4,536.0,0.25,66,100.0
3748,C#5,536.0,0.25,66,100.0
3749,E-3,536.125,0.25,52,100.0
3750,C5,536.5,0.25,64,100.0
3751,E-4,536.5,0.25,64,100.0
3752,F#3,536.625,0.25,40,100.0
3753,C4,536.625,0.25,40,100.0
3754,G#3,536.625,0.25,40,100.0
3755,F4,537.0,0.25,66,100.0
3756,C#5,537.0,0.25,66,100.0
3757,G#2,537.125,0.25,45,100.0
3758,E-5,537.5,0.25,68,100.0
3759,F#4,537.5,0.25,68,100.0
3760,G#3,537.625,0.25,40,100.0
3761,C4,537.625,0.25,40,100.0
3762,F#3,537.625,0.25,40,100.0
3763,G#4,538.0,0.25,71,100.0
3764,F5,538.0,0.25,71,100.0
3765,E-3,538.125,0.25,54,100.0
3766,B-4,538.5,0.25,73,100.0
3767,F#5,538.5,0.25,73,100.0
3768,C4,538.625,0.25,44,100.0
3769,F#4,538.625,0.25,44,100.0
3770,G#3,538.625,0.25,44,100.0
3771,C5,539.0,0.25,69,100.0
3772,G#5,539.0,0.25,69,100.0
3773,G#2,539.125,0.25,47,100.0
3774,B-5,539.5,0.25,71,100.0
3775,C#5,539.5,0.25,71,100.0
3776,C4,539.625,0.25,42,100.0
3777,G#3,539.625,0.25,42,100.0
3778,C6,540.0,0.25,74,100.0
3779,E-5,540.0,0.25,74,100.0
3780,C#3,540.125,0.25,56,100.0
3781,F5,540.5,0.25,76,100.0
3782,C#6,540.5,0.25,76,100.0
3783,C#4,540.625,0.25,46,100.0
3784,F4,540.625,0.25,46,100.0
3785,G#3,540.625,0.25,46,100.0
3786,E-5,541.0,0.25,73,100.0
3787,C6,541.0,0.25,73,100.0
3788,G#2,541.125,0.25,51,100.0
3789,C#6,541.5,0.25,73,100.0
3790,F5,541.5,0.25,73,100.0
3791,G#3,541.625,0.25,47,100.0
3792,C#4,541.625,0.25,47,100.0
3793,F#5,542.0,0.25,74,100.0
3794,E-6,542.0,0.25,74,100.0
3795,C#3,542.125,0.25,57,100.0
3796,F6,542.5,0.25,80,100.0
3797,G#5,542.5,0.25,80,100.0
3798,F4,542.625,0.25,46,100.0
3799,G#3,542.625,0.25,46,100.0
3800,C#4,542.625,0.25,46,100.0
3801,F#5,543.0,0.25,74,100.0
3802,E-6,543.0,0.25,74,100.0
3803,G#2,543.125,0.25,51,100.0
3804,G#5,543.5,0.25,80,100.0
3805,F6,543.5,0.25,80,100.0
3806,C#4,543.625,0.25,47,100.0
3807,G#3,543.625,0.25,47,100.0
3808,C#6,544.0,0.25,74,100.0
3809,F5,544.0,0.25,74,100.0
3810,E-3,544.125,0.25,55,100.0
3811,E-6,544.375,0.062,58,100.0
3812,B-6,544.438,0.062,62,100.0
3813,F#7,544.5,0.25,97,100.0
3814,F#4,544.625,0.25,41,100.0
3815,G#3,544.625,0.25,41,100.0
3816,C4,544.625,0.25,41,100.0
3817,G#2,545.125,0.25,50,100.0
3818,E-5,545.5,1.0,74,100.0
3819,F#4,545.5,1.0,74,100.0
3820,G#3,545.625,0.25,42,100.0
3821,C4,545.625,0.25,42,100.0
3822,E-3,546.125,0.25,54,100.0
3823,E-5,546.5,0.5,74,100.0
3824,F#4,546.5,0.5,74,100.0
3825,C4,546.625,0.25,42,100.0
3826,G#3,546.625,0.25,42,100.0
3827,F5,547.0,0.25,72,100.0
3828,G#4,547.0,0.25,72,100.0
3829,G#2,547.125,0.25,50,100.0
3830,F#5,547.5,0.25,76,100.0
3831,B-4,547.5,0.25,76,100.0
3832,G#3,547.625,0.25,42,100.0
3833,C4,547.625,0.25,42,100.0
3834,E-5,548.0,0.25,69,100.0
3835,F#4,548.0,0.25,69,100.0
3836,C#3,548.125,0.25,56,100.0
3837,C#6,548.375,0.062,61,100.0
3838,G#6,548.438,0.062,65,100.0
3839,F7,548.5,0.25,98,100.0
3840,F4,548.625,0.25,41,100.0
3841,C#4,548.625,0.25,41,100.0
3842,G#3,548.625,0.25,41,100.0
3843,G#2,549.125,0.25,51,100.0
3844,C#5,549.5,1.0,76,100.0
3845,F4,549.5,1.0,76,100.0
3846,C#4,549.625,0.25,43,100.0
3847,G#3,549.625,0.25,43,100.0
3848,C#3,550.125,0.25,55,100.0
3849,C#5,550.5,0.5,76,100.0
3850,F4,550.5,0.5,76,100.0
3851,G#3,550.625,0.25,42,100.0
3852,C#4,550.625,0.25,42,100.0
3853,E-5,551.0,0.25,74,100.0
3854,F#4,551.0,0.25,74,100.0
3855,G#2,551.125,0.25,51,100.0
3856,G#4,551.5,0.25,76,100.0
3857,F5,551.5,0.25,76,100.0
3858,C#4,551.625,0.25,43,100.0
3859,G#3,551.625,0.25,43,100.0
3860,C#5,552.0,0.25,70,100.0
3861,F4,552.0,0.25,70,100.0
3862,E-3,552.125,0.25,56,100.0
3863,C5,552.5,0.25,69,100.0
3864,E-4,552.5,0.25,69,100.0
3865,F#3,552.625,0.25,43,100.0
3866,C4,552.625,0.25,43,100.0
3867,G#3,552.625,0.25,43,100.0
3868,C#5,553.0,0.25,71,100.0
3869,F4,553.0,0.25,71,100.0
3870,G#2,553.125,0.25,48,100.0
3871,F#4,553.5,0.25,72,100.0
3872,E-5,553.5,0.25,72,100.0
3873,C4,553.625,0.25,43,100.0
3874,G#3,553.625,0.25,43,100.0
3875,F#3,553.625,0.25,43,100.0
3876,F5,554.0,0.25,76,100.0
3877,G#4,554.0,0.25,76,100.0
3878,E-3,554.125,0.25,58,100.0
3879,F#5,554.5,0.25,80,100.0
3880,B-4,554.5,0.25,80,100.0
3881,G#3,554.625,0.25,48,100.0
3882,C4,554.625,0.25,48,100.0
3883,F#4,554.625,0.25,48,100.0
3884,G#5,555.0,0.25,74,100.0
3885,C5,555.0,0.25,74,100.0
3886,G#2,555.125,0.25,51,100.0
3887,C#5,555.5,0.25,76,100.0
3888,B-5,555.5,0.25,76,100.0
3889,C4,555.625,0.25,46,100.0
3890,G#3,555.625,0.25,46,100.0
3891,E-5,556.0,0.25,80,100.0
3892,C6,556.0,0.25,80,100.0
3893,G#3,556.125,0.5,54,100.0
3894,C#3,556.125,0.5,54,100.0
3895,C#4,556.125,0.5,54,100.0
3896,C#6,556.5,0.5,78,100.0
3897,F5,556.5,0.5,78,100.0
3898,C#5,556.5,0.5,78,100.0
3899,D3,556.625,0.25,44,100.0
3900,D4,556.625,0.25,44,100.0
3901,C5,557.0,0.25,70,100.0
3902,C6,557.0,0.25,70,100.0
3903,C3,557.125,0.5,56,100.0
3904,C4,557.125,0.5,56,100.0
3905,D6,557.5,0.5,80,100.0
3906,D5,557.5,0.5,80,100.0
3907,C#4,557.625,0.25,45,100.0
3908,C#3,557.625,0.25,45,100.0
3909,C#5,558.0,0.25,70,100.0
3910,C#6,558.0,0.25,70,100.0
3911,B2,558.125,0.5,56,100.0
3912,B3,558.125,0.5,56,100.0
3913,E-6,558.5,0.5,81,100.0
3914,E-5,558.5,0.5,81,100.0
3915,C4,558.625,0.25,48,100.0
3916,C3,558.625,0.25,48,100.0
3917,D5,559.0,0.25,70,100.0
3918,D6,559.0,0.25,70,100.0
3919,B-3,559.125,0.5,56,100.0
3920,B-2,559.125,0.5,56,100.0
3921,E5,559.5,0.5,82,100.0
3922,E6,559.5,0.5,82,100.0
3923,B2,559.625,0.25,48,100.0
3924,B3,559.625,0.25,48,100.0
3925,E-5,560.0,0.25,72,100.0
3926,E-6,560.0,0.25,72,100.0
3927,A3,560.125,0.5,58,100.0
3928,A2,560.125,0.5,58,100.0
3929,F5,560.5,0.5,84,100.0
3930,F6,560.5,0.5,84,100.0
3931,B-2,560.625,0.25,50,100.0
3932,B-3,560.625,0.25,50,100.0
3933,E6,561.0,0.25,72,100.0
3934,E5,561.0,0.25,72,100.0
3935,G#2,561.125,0.5,58,100.0
3936,G#3,561.125,0.5,58,100.0
3937,F#6,561.5,0.5,84,100.0
3938,F#5,561.5,0.5,84,100.0
3939,A3,561.625,0.25,50,100.0
3940,A2,561.625,0.25,50,100.0
3941,F5,562.0,0.25,74,100.0
3942,F6,562.0,0.25,74,100.0
3943,G3,562.125,0.5,59,100.0
3944,G2,562.125,0.5,59,100.0
3945,G6,562.5,0.5,86,100.0
3946,G5,562.5,0.5,86,100.0
3947,G#2,562.625,0.25,50,100.0
3948,G#3,562.625,0.25,50,100.0
3949,F#6,563.0,0.25,76,100.0
3950,F#5,563.0,0.25,76,100.0
3951,F#3,563.125,0.5,60,100.0
3952,F#2,563.125,0.5,60,100.0
3953,G#5,563.5,0.5,86,100.0
3954,G#6,563.5,0.5,86,100.0
3955,G2,563.625,0.25,50,100.0
3956,G3,563.625,0.25,50,100.0
3957,G6,564.0,0.25,74,100.0
3958,G5,564.0,0.25,74,100.0
3959,F3,564.125,0.5,61,100.0
3960,F2,564.125,0.5,61,100.0
3961,A5,564.5,0.5,88,100.0
3962,A6,564.5,0.5,88,100.0
3963,F#2,564.625,0.25,52,100.0
3964,F#3,564.625,0.25,52,100.0
3965,G#5,565.0,0.25,76,100.0
3966,G#6,565.0,0.25,76,100.0
3967,E2,565.125,0.5,61,100.0
3968,E3,565.125,0.5,61,100.0
3969,B-6,565.5,0.5,88,100.0
3970,B-5,565.5,0.5,88,100.0
3971,F2,565.625,0.25,52,100.0
3972,F3,565.625,0.25,52,100.0
3973,A6,566.0,0.25,75,100.0
3974,A5,566.0,0.25,75,100.0
3975,E-2,566.125,0.5,62,100.0
3976,E-3,566.125,0.5,62,100.0
3977,B5,566.5,0.5,89,100.0
3978,B6,566.5,0.5,89,100.0
3979,E3,566.625,0.25,54,100.0
3980,E2,566.625,0.25,54,100.0
3981,B-5,567.0,0.25,78,100.0
3982,B-6,567.0,0.25,78,100.0
3983,D3,567.125,0.5,62,100.0
3984,D2,567.125,0.5,62,100.0
3985,B6,567.5,0.5,90,100.0
3986,B5,567.5,0.5,90,100.0
3987,E-3,567.625,0.25,54,100.0
3988,E-2,567.625,0.25,54,100.0
3989,C7,568.0,0.25,77,100.0
3990,C6,568.0,0.25,77,100.0
3991,C#2,568.125,0.5,66,100.0
3992,C#3,568.125,0.5,66,100.0
3993,F6,568.5,0.5,91,100.0
3994,C#7,568.5,0.5,91,100.0
3995,C#6,568.5,0.5,91,100.0
3996,D2,568.625,0.5,59,100.0
3997,D3,568.625,0.5,59,100.0
3998,C6,569.0,0.5,88,100.0
3999,C7,569.0,0.5,88,100.0
4000,G#2,569.125,0.5,65,100.0
4001,C#3,569.125,0.5,65,100.0
4002,C#2,569.125,0.5,65,100.0
4003,C#7,569.5,0.5,91,100.0
4004,F6,569.5,0.5,91,100.0
4005,C#6,569.5,0.5,91,100.0
4006,D3,569.625,0.5,61,100.0
4007,D2,569.625,0.5,61,100.0
4008,C6,570.0,0.5,85,100.0
4009,C7,570.0,0.5,85,100.0
4010,F#6,570.0,0.5,85,100.0
4011,C#3,570.125,0.5,64,100.0
4012,G#2,570.125,0.5,64,100.0
4013,C#2,570.125,0.5,64,100.0
4014,C#6,570.5,0.5,91,100.0
4015,C#7,570.5,0.5,91,100.0
4016,F6,570.5,0.5,91,100.0
4017,D3,570.625,0.5,59,100.0
4018,D2,570.625,0.5,59,100.0
4019,C6,571.0,0.5,85,100.0
4020,C7,571.0,0.5,85,100.0
4021,F#6,571.0,0.5,85,100.0
4022,C#3,571.125,0.5,65,100.0
4023,C#2,571.125,0.5,65,100.0
4024,G#2,571.125,0.5,65,100.0
4025,C#7,571.5,0.5,91,100.0
4026,F6,571.5,0.5,91,100.0
4027,C#6,571.5,0.5,91,100.0
4028,D2,571.625,0.5,61,100.0
4029,D3,571.625,0.5,61,100.0
4030,C6,572.0,0.5,85,100.0
4031,F#6,572.0,0.5,85,100.0
4032,C7,572.0,0.5,85,100.0
4033,C#2,572.125,0.5,64,100.0
4034,G#2,572.125,0.5,64,100.0
4035,C#3,572.125,0.5,64,100.0
4036,F6,572.5,0.5,91,100.0
4037,C#6,572.5,0.5,91,100.0
4038,C#7,572.5,0.5,91,100.0
4039,C3,572.625,271/500,62,100.0
4040,C4,572.625,271/500,62,100.0
4041,C5,573.0,271/500,74,100.0
4042,C6,573.0,271/500,74,100.0
4043,C#3,573.125,271/500,66,100.0
4044,C#4,573.125,271/500,66,100.0
4045,C#5,573.5,271/500,81,100.0
4046,C#6,573.5,271/500,81,100.0
4047,C3,573.625,0.5,62,100.0
4048,C4,573.625,0.5,62,100.0
4049,C6,574.0,0.5,74,100.0
4050,C5,574.0,0.5,74,100.0
4051,C#3,574.125,0.25,67,100.0
4052,C#4,574.125,0.25,67,100.0
4053,C3,574.125,21/500,62,100.0
4054,C4,574.125,21/500,62,100.0
4055,C#5,574.5,0.25,81,100.0
4056,C#6,574.5,0.25,81,100.0
4057,C6,574.5,21/500,74,100.0
4058,C5,574.5,21/500,74,100.0
4059,C3,574.625,271/500,62,100.0
4060,C2,574.625,271/500,62,100.0
4061,C5,575.0,271/500,68,100.0
4062,C4,575.0,271/500,68,100.0
4063,C#2,575.125,271/500,66,100.0
4064,C#3,575.125,271/500,66,100.0
4065,C#5,575.5,271/500,74,100.0
4066,C#4,575.5,271/500,74,100.0
4067,C3,575.625,0.5,62,100.0
4068,C2,575.625,0.5,62,100.0
4069,C4,576.0,0.5,66,100.0
4070,C5,576.0,0.5,66,100.0
4071,C#2,576.125,1.0,76,100.0
4072,C#3,576.125,1.0,76,100.0
4073,C#4,576.5,1.0,85,100.0
4074,C#5,576.5,1.0,85,100.0
4075,F3,576.625,0.25,60,100.0
4076,G#3,576.625,0.25,60,100.0
4077,F4,577.0,0.25,70,100.0
4078,G#4,577.0,0.25,70,100.0
4079,F2,577.125,1.0,70,100.0
4080,F3,577.125,1.0,70,100.0
4081,F4,577.5,1.0,78,100.0
4082,F5,577.5,1.0,78,100.0
4083,C#4,577.625,0.25,60,100.0
4084,G#3,577.625,0.25,60,100.0
4085,C#5,578.0,0.25,70,100.0
4086,G#4,578.0,0.25,70,100.0
4087,B-3,578.125,1.5,83,100.0
4088,B-2,578.125,1.5,83,100.0
4089,B-5,578.5,1.5,92,100.0
4090,B-4,578.5,1.5,92,100.0
4091,F4,578.625,0.25,60,100.0
4092,C#4,578.625,0.25,60,100.0
4093,C#5,579.0,0.25,70,100.0
4094,F5,579.0,0.25,70,100.0
4095,C#4,579.125,0.25,60,100.0
4096,F4,579.125,0.25,60,100.0
4097,F5,579.5,0.25,70,100.0
4098,C#5,579.5,0.25,70,100.0
4099,G#3,579.625,0.25,74,100.0
4100,G#2,579.625,0.25,74,100.0
4101,G#4,580.0,0.25,84,100.0
4102,G#5,580.0,0.25,84,100.0
4103,C#3,580.125,0.25,68,100.0
4104,B-2,580.125,0.25,68,100.0
4105,F#2,580.125,0.25,68,100.0
4106,F#3,580.125,0.25,68,100.0
4107,F#5,580.5,0.25,76,100.0
4108,B-4,580.5,0.25,76,100.0
4109,C#5,580.5,0.25,76,100.0
4110,F#4,580.5,0.25,76,100.0
4111,F3,580.625,0.25,69,100.0
4112,F2,580.625,0.25,69,100.0
4113,F5,581.0,0.25,81,100.0
4114,F4,581.0,0.25,81,100.0
4115,E3,581.125,0.25,69,100.0
4116,E2,581.125,0.25,69,100.0
4117,E5,581.5,0.25,81,100.0
4118,E4,581.5,0.25,81,100.0
4119,E-2,581.5,333/1000,61,100.0
4120,F#2,581.5,333/1000,61,100.0
4121,B-2,581.583,0.25,71,100.0
4122,E-3,581.583,0.25,71,100.0
4123,E-4,581.875,73/250,70,100.0
4124,F#4,581.875,73/250,70,100.0
4125,B-4,581.958,0.25,81,100.0
4126,E-5,581.958,0.25,81,100.0
4127,D2,582.125,0.25,68,100.0
4128,D3,582.125,0.25,68,100.0
4129,D5,582.5,0.25,81,100.0
4130,D4,582.5,0.25,81,100.0
4131,C#2,582.5,333/1000,56,100.0
4132,F#2,582.5,333/1000,56,100.0
4133,B-2,582.583,0.25,66,100.0
4134,C#3,582.583,0.25,66,100.0
4135,C#4,582.875,333/1000,65,100.0
4136,F#4,582.875,333/1000,65,100.0
4137,B-4,582.958,0.25,76,100.0
4138,C#5,582.958,0.25,76,100.0
4139,C3,583.125,0.25,67,100.0
4140,C2,583.125,0.25,67,100.0
4141,C4,583.5,0.25,84,100.0
4142,C5,583.5,0.25,84,100.0
4143,C#3,583.625,0.25,66,100.0
4144,C#2,583.625,0.25,66,100.0
4145,C#4,584.0,0.25,81,100.0
4146,C#5,584.0,0.25,81,100.0
4147,C#3,584.125,1.0,76,100.0
4148,C#2,584.125,1.0,76,100.0
4149,C#5,584.5,1.0,85,100.0
4150,C#4,584.5,1.0,85,100.0
4151,G#3,584.625,0.25,55,100.0
4152,F3,584.625,0.25,55,100.0
4153,F4,585.0,0.25,70,100.0
4154,G#4,585.0,0.25,70,100.0
4155,F3,585.125,1.0,70,100.0
4156,F2,585.125,1.0,70,100.0
4157,F4,585.5,1.0,78,100.0
4158,F5,585.5,1.0,78,100.0
4159,G#3,585.625,0.25,55,100.0
4160,C#4,585.625,0.25,55,100.0
4161,C#5,586.0,0.25,70,100.0
4162,G#4,586.0,0.25,70,100.0
4163,B-2,586.125,1.5,83,100.0
4164,B-3,586.125,1.5,83,100.0
4165,B-5,586.5,1.5,92,100.0
4166,B-4,586.5,1.5,92,100.0
4167,C#4,586.625,0.25,60,100.0
4168,F4,586.625,0.25,60,100.0
4169,F5,587.0,0.25,70,100.0
4170,C#5,587.0,0.25,70,100.0
4171,C#4,587.125,0.25,60,100.0
4172,F4,587.125,0.25,60,100.0
4173,C#5,587.5,0.25,70,100.0
4174,F5,587.5,0.25,70,100.0
4175,G#3,587.625,0.25,74,100.0
4176,G#2,587.625,0.25,74,100.0
4177,G#5,588.0,0.25,84,100.0
4178,G#4,588.0,0.25,84,100.0
4179,F#3,588.125,0.25,68,100.0
4180,B-2,588.125,0.25,68,100.0
4181,F#2,588.125,0.25,68,100.0
4182,C#3,588.125,0.25,68,100.0
4183,C#5,588.5,0.25,76,100.0
4184,F#4,588.5,0.25,76,100.0
4185,B-4,588.5,0.25,76,100.0
4186,F#5,588.5,0.25,76,100.0
4187,F2,588.625,0.25,69,100.0
4188,F3,588.625,0.25,69,100.0
4189,F4,589.0,0.25,81,100.0
4190,F5,589.0,0.25,81,100.0
4191,E-3,589.125,0.25,69,100.0
4192,E-2,589.125,0.25,69,100.0
4193,E-4,589.5,0.25,81,100.0
4194,E-5,589.5,0.25,81,100.0
4195,C#3,589.625,0.25,56,100.0
4196,F#2,589.625,0.25,56,100.0
4197,C#2,589.625,0.25,56,100.0
4198,B-2,589.625,0.25,56,100.0
4199,F#4,590.0,0.25,63,100.0
4200,B-4,590.0,0.25,63,100.0
4201,C#4,590.0,0.25,63,100.0
4202,C#5,590.0,0.25,63,100.0
4203,F#3,590.125,1.0,70,100.0
4204,B-2,590.125,1.0,70,100.0
4205,F#2,590.125,1.0,70,100.0
4206,C#3,590.125,1.0,70,100.0
4207,F#4,590.5,1.0,78,100.0
4208,C#5,590.5,1.0,78,100.0
4209,F#5,590.5,1.0,78,100.0
4210,B-4,590.5,1.0,78,100.0
4211,F#3,591.125,1.0,64,100.0
4212,C#3,591.125,1.0,64,100.0
4213,B-3,591.125,1.0,64,100.0
4214,B-2,591.125,1.0,64,100.0
4215,C#5,591.5,1.0,71,100.0
4216,B-5,591.5,1.0,71,100.0
4217,B-4,591.5,1.0,71,100.0
4218,F#5,591.5,1.0,71,100.0
4219,C#3,592.125,0.25,56,100.0
4220,C#2,592.125,0.25,56,100.0
4221,F6,592.5,0.25,55,100.0
4222,B5,592.5,0.25,55,100.0
4223,C#4,592.625,0.5,71,100.0
4224,C#3,592.625,0.5,71,100.0
4225,C#7,592.75,0.25,56,100.0
4226,G#6,593.0,0.25,57,100.0
4227,C#6,593.0,0.25,57,100.0
4228,G#2,593.125,0.25,56,100.0
4229,G#3,593.125,0.25,56,100.0
4230,C#7,593.25,0.25,59,100.0
4231,C6,593.5,0.25,60,100.0
4232,F6,593.5,0.25,60,100.0
4233,F3,593.625,0.5,74,100.0
4234,F4,593.625,0.5,74,100.0
4235,C#7,593.75,0.25,61,100.0
4236,C#6,594.0,0.25,63,100.0
4237,G#6,594.0,0.25,63,100.0
4238,C#3,594.125,0.25,60,100.0
4239,C#4,594.125,0.25,60,100.0
4240,C#7,594.25,0.25,64,100.0
4241,F6,594.5,0.25,66,100.0
4242,B5,594.5,0.25,66,100.0
4243,B-4,594.625,1.0,80,100.0
4244,B-3,594.625,1.0,80,100.0
4245,C#7,594.75,0.25,67,100.0
4246,G#6,595.0,0.25,69,100.0
4247,C#6,595.0,0.25,69,100.0
4248,C#7,595.25,0.25,69,100.0
4249,F6,595.5,0.25,68,100.0
4250,C6,595.5,0.25,68,100.0
4251,G#4,595.625,0.25,70,100.0
4252,G#3,595.625,0.25,70,100.0
4253,C#7,595.75,0.25,67,100.0
4254,G#6,596.0,0.25,67,100.0
4255,C#6,596.0,0.25,67,100.0
4256,F#4,596.125,0.25,78,100.0
4257,F#3,596.125,0.25,78,100.0
4258,C#7,596.25,0.25,66,100.0
4259,B-5,596.5,0.25,71,100.0
4260,F#6,596.5,0.25,71,100.0
4261,F3,596.625,0.25,64,100.0
4262,F4,596.625,0.25,64,100.0
4263,C#7,596.75,0.25,64,100.0
4264,C#6,597.0,0.25,67,100.0
4265,B-6,597.0,0.25,67,100.0
4266,E4,597.125,0.25,64,100.0
4267,E3,597.125,0.25,64,100.0
4268,C#7,597.25,0.25,63,100.0
4269,C6,597.5,0.25,68,100.0
4270,F#6,597.5,0.25,68,100.0
4271,E-3,597.625,0.25,64,100.0
4272,E-4,597.625,0.25,64,100.0
4273,C#7,597.75,0.25,62,100.0
4274,C#6,598.0,0.25,68,100.0
4275,B-6,598.0,0.25,68,100.0
4276,D3,598.125,0.25,78,100.0
4277,D4,598.125,0.25,78,100.0
4278,C#7,598.25,0.25,61,100.0
4279,F#6,598.5,0.25,69,100.0
4280,B-5,598.5,0.25,69,100.0
4281,C#4,598.625,0.25,64,100.0
4282,C#3,598.625,0.25,64,100.0
4283,C#7,598.75,0.25,60,100.0
4284,B-6,599.0,0.25,63,100.0
4285,C#6,599.0,0.25,63,100.0
4286,B-2,599.125,0.25,64,100.0
4287,B-3,599.125,0.25,64,100.0
4288,C#7,599.25,0.25,58,100.0
4289,C6,599.5,0.25,61,100.0
4290,F#6,599.5,0.25,61,100.0
4291,F#3,599.625,0.25,64,100.0
4292,F#2,599.625,0.25,64,100.0
4293,C#7,599.75,0.25,57,100.0
4294,C#6,600.0,0.25,61,100.0
4295,B-6,600.0,0.25,61,100.0
4296,C#3,600.125,0.25,62,100.0
4297,C#2,600.125,0.25,62,100.0
4298,C#7,600.25,0.25,56,100.0
4299,F6,600.5,0.25,60,100.0
4300,B5,600.5,0.25,60,100.0
4301,C#3,600.625,0.5,78,100.0
4302,C#4,600.625,0.5,78,100.0
4303,C#7,600.75,0.25,60,100.0
4304,C#6,601.0,0.25,61,100.0
4305,G#6,601.0,0.25,61,100.0
4306,G#2,601.125,0.25,58,100.0
4307,G#3,601.125,0.25,58,100.0
4308,C#7,601.25,0.25,62,100.0
4309,C6,601.5,0.25,62,100.0
4310,F6,601.5,0.25,62,100.0
4311,F4,601.625,0.5,76,100.0
4312,F3,601.625,0.5,76,100.0
4313,C#7,601.75,0.25,63,100.0
4314,C#6,602.0,0.25,64,100.0
4315,G#6,602.0,0.25,64,100.0
4316,C#4,602.125,0.25,60,100.0
4317,C#3,602.125,0.25,60,100.0
4318,C#7,602.25,0.25,66,100.0
4319,B5,602.5,0.25,66,100.0
4320,F6,602.5,0.25,66,100.0
4321,B-3,602.625,1.0,80,100.0
4322,B-4,602.625,1.0,80,100.0
4323,C#7,602.75,0.25,67,100.0
4324,C#6,603.0,0.25,69,100.0
4325,G#6,603.0,0.25,69,100.0
4326,C#7,603.25,0.25,69,100.0
4327,C6,603.5,0.25,68,100.0
4328,F6,603.5,0.25,68,100.0
4329,G#4,603.625,0.25,70,100.0
4330,G#3,603.625,0.25,70,100.0
4331,C#7,603.75,0.25,67,100.0
4332,G#6,604.0,0.25,67,100.0
4333,C#6,604.0,0.25,67,100.0
4334,F#3,604.125,0.25,78,100.0
4335,F#4,604.125,0.25,78,100.0
4336,C#7,604.25,0.25,66,100.0
4337,B-5,604.5,0.25,71,100.0
4338,F#6,604.5,0.25,71,100.0
4339,F4,604.625,0.25,64,100.0
4340,F3,604.625,0.25,64,100.0
4341,C#7,604.75,0.25,64,100.0
4342,B-6,605.0,0.25,67,100.0
4343,C#6,605.0,0.25,67,100.0
4344,E4,605.125,0.25,64,100.0
4345,E3,605.125,0.25,64,100.0
4346,C#7,605.25,0.25,63,100.0
4347,C6,605.5,0.25,68,100.0
4348,F#6,605.5,0.25,68,100.0
4349,E-3,605.625,0.25,64,100.0
4350,E-4,605.625,0.25,64,100.0
4351,C#7,605.75,0.25,62,100.0
4352,C#6,606.0,0.25,68,100.0
4353,B-6,606.0,0.25,68,100.0
4354,D3,606.125,0.25,70,100.0
4355,D4,606.125,0.25,70,100.0
4356,C#7,606.25,0.25,61,100.0
4357,F#6,606.5,0.25,69,100.0
4358,B-5,606.5,0.25,69,100.0
4359,C#4,606.625,0.25,60,100.0
4360,C#3,606.625,0.25,60,100.0
4361,C#7,606.75,0.25,59,100.0
4362,B-6,607.0,0.25,61,100.0
4363,C#6,607.0,0.25,61,100.0
4364,C4,607.125,0.25,60,100.0
4365,C3,607.125,0.25,60,100.0
4366,C#7,607.25,0.25,56,100.0
4367,F#6,607.5,0.25,58,100.0
4368,B-5,607.5,0.25,58,100.0
4369,C#3,607.625,0.25,58,100.0
4370,C#4,607.625,0.25,58,100.0
4371,C#7,607.75,0.25,52,100.0
4372,B-6,608.0,0.25,57,100.0
4373,C#6,608.0,0.25,57,100.0
4374,G#3,608.125,0.25,42,100.0
4375,C#7,608.25,0.25,50,100.0
4376,B5,608.5,0.25,60,100.0
4377,F6,608.5,0.25,60,100.0
4378,F4,608.625,0.25,37,100.0
4379,C#4,608.625,0.25,37,100.0
4380,B4,608.625,0.25,37,100.0
4381,C#7,608.75,0.25,48,100.0
4382,G#6,609.0,0.312,57,100.0
4383,C#6,609.0,0.312,57,100.0
4384,C#3,609.125,0.25,42,100.0
4385,C#7,609.25,0.25,47,100.0
4386,F6,609.5,0.25,60,100.0
4387,B5,609.5,0.25,60,100.0
4388,F4,609.625,0.25,37,100.0
4389,C#4,609.625,0.25,37,100.0
4390,B4,609.625,0.25,37,100.0
4391,C#7,609.75,0.25,46,100.0
4392,G#6,610.0,0.312,56,100.0
4393,C#6,610.0,0.312,56,100.0
4394,G#4,610.125,0.25,40,100.0
4395,C5,610.125,0.25,40,100.0
4396,C#7,610.25,0.25,48,100.0
4397,F6,610.5,0.25,60,100.0
4398,B5,610.5,0.25,60,100.0
4399,F4,610.625,0.25,37,100.0
4400,C#5,610.625,0.25,37,100.0
4401,C#7,610.75,0.25,48,100.0
4402,G#6,611.0,0.312,57,100.0
4403,C#6,611.0,0.312,57,100.0
4404,G#4,611.125,0.75,45,100.0
4405,B4,611.125,0.75,45,100.0
4406,C#7,611.25,0.25,47,100.0
4407,F5,611.5,1.0,58,100.0
4408,C#6,611.5,1.0,58,100.0
4409,F6,611.5,1.0,58,100.0
4410,F4,611.875,0.25,37,100.0
4411,C#5,611.875,0.25,37,100.0
4412,F#3,612.125,0.25,42,100.0
4413,F#6,612.5,0.25,60,100.0
4414,B-5,612.5,0.25,60,100.0
4415,F#4,612.625,0.25,37,100.0
4416,B-4,612.625,0.25,37,100.0
4417,C#4,612.625,0.25,37,100.0
4418,C#7,612.75,0.25,48,100.0
4419,C#6,613.0,0.312,57,100.0
4420,B-6,613.0,0.312,57,100.0
4421,C#3,613.125,0.25,42,100.0
4422,C#7,613.25,0.25,47,100.0
4423,F#6,613.5,0.25,60,100.0
4424,B-5,613.5,0.25,60,100.0
4425,F#4,613.625,0.25,37,100.0
4426,B-4,613.625,0.25,37,100.0
4427,C#4,613.625,0.25,37,100.0
4428,C#7,613.75,0.25,46,100.0
4429,C#6,614.0,0.312,56,100.0
4430,B-6,614.0,0.312,56,100.0
4431,A4,614.125,0.25,40,100.0
4432,C5,614.125,0.25,40,100.0
4433,C#7,614.25,0.25,48,100.0
4434,F#6,614.5,0.25,60,100.0
4435,B-5,614.5,0.25,60,100.0
4436,B-4,614.625,0.25,37,100.0
4437,C#5,614.625,0.25,37,100.0
4438,C#7,614.75,0.25,48,100.0
4439,C#6,615.0,0.312,57,100.0
4440,B-6,615.0,0.312,57,100.0
4441,F#4,615.125,1.0,42,100.0
4442,B-4,615.125,0.75,48,100.0
4443,C#7,615.25,0.25,47,100.0
4444,C#6,615.5,1.0,58,100.0
4445,F#6,615.5,1.0,58,100.0
4446,F#5,615.5,1.0,58,100.0
4447,C#5,615.875,0.25,37,100.0
4448,G#3,616.125,0.25,42,100.0
4449,F6,616.5,0.25,60,100.0
4450,B5,616.5,0.25,60,100.0
4451,F4,616.625,0.25,37,100.0
4452,C#4,616.625,0.25,37,100.0
4453,B4,616.625,0.25,37,100.0
4454,C#7,616.75,0.25,48,100.0
4455,G#6,617.0,0.312,57,100.0
4456,C#6,617.0,0.312,57,100.0
4457,C#3,617.125,0.25,42,100.0
4458,C#7,617.25,0.25,47,100.0
4459,F6,617.5,0.25,60,100.0
4460,B5,617.5,0.25,60,100.0
4461,F4,617.625,0.25,37,100.0
4462,B4,617.625,0.25,37,100.0
4463,C#4,617.625,0.25,37,100.0
4464,C#7,617.75,0.25,46,100.0
4465,G#6,618.0,0.312,56,100.0
4466,C#6,618.0,0.312,56,100.0
4467,G#4,618.125,0.25,40,100.0
4468,C5,618.125,0.25,40,100.0
4469,C#7,618.25,0.25,48,100.0
4470,B5,618.5,0.25,60,100.0
4471,F6,618.5,0.25,60,100.0
4472,F4,618.625,0.25,37,100.0
4473,C#5,618.625,0.25,37,100.0
4474,C#7,618.75,0.25,48,100.0
4475,G#6,619.0,0.312,57,100.0
4476,C#6,619.0,0.312,57,100.0
4477,B4,619.125,0.75,45,100.0
4478,G#4,619.125,0.75,45,100.0
4479,C#7,619.25,0.25,47,100.0
4480,C#6,619.5,1.0,58,100.0
4481,F6,619.5,1.0,58,100.0
4482,F5,619.5,1.0,58,100.0
4483,C#5,619.875,0.25,37,100.0
4484,F4,619.875,0.25,37,100.0
4485,F#3,620.125,0.25,42,100.0
4486,B-5,620.5,0.25,60,100.0
4487,F#6,620.5,0.25,60,100.0
4488,F#4,620.625,0.25,37,100.0
4489,B-4,620.625,0.25,37,100.0
4490,C#4,620.625,0.25,37,100.0
4491,C#7,620.75,0.25,48,100.0
4492,B-6,621.0,0.312,57,100.0
4493,C#6,621.0,0.312,57,100.0
4494,C#3,621.125,0.25,42,100.0
4495,C#7,621.25,0.25,47,100.0
4496,B-5,621.5,0.25,60,100.0
4497,F#6,621.5,0.25,60,100.0
4498,F#4,621.625,0.25,37,100.0
4499,B-4,621.625,0.25,37,100.0
4500,C#4,621.625,0.25,37,100.0
4501,C#7,621.75,0.25,46,100.0
4502,B-6,622.0,0.312,56,100.0
4503,C#6,622.0,0.312,56,100.0
4504,A4,622.125,0.25,40,100.0
4505,C5,622.125,0.25,40,100.0
4506,C#7,622.25,0.25,48,100.0
4507,B-5,622.5,0.25,60,100.0
4508,F#6,622.5,0.25,60,100.0
4509,B-4,622.625,0.25,37,100.0
4510,C#5,622.625,0.25,37,100.0
4511,C#7,622.75,0.25,48,100.0
4512,B-6,623.0,0.312,57,100.0
4513,C#6,623.0,0.312,57,100.0
4514,F#4,623.125,0.875,42,100.0
4515,B-4,623.125,0.75,48,100.0
4516,C#7,623.25,0.25,47,100.0
4517,F#6,623.5,0.875,58,100.0
4518,C#6,623.5,0.875,58,100.0
4519,F#5,623.5,0.875,58,100.0
4520,C#5,623.875,0.125,37,100.0
4521,F#4,624.125,0.25,42,100.0
4522,E-6,624.5,0.25,65,100.0
4523,B4,624.625,0.25,34,100.0
4524,E-5,624.625,0.25,34,100.0
4525,C#7,624.75,0.25,47,100.0
4526,B5,625.0,0.25,60,100.0
4527,C#4,625.125,0.25,42,100.0
4528,C#7,625.25,0.25,47,100.0
4529,B-5,625.5,0.25,60,100.0
4530,F#5,625.625,0.25,34,100.0
4531,E-5,625.625,0.25,34,100.0
4532,C#7,625.75,0.25,47,100.0
4533,B5,626.0,0.25,62,100.0
4534,F#4,626.125,0.25,42,100.0
4535,C#7,626.25,0.25,47,100.0
4536,E-6,626.5,0.25,65,100.0
4537,E-5,626.625,0.25,34,100.0
4538,F#5,626.625,0.25,34,100.0
4539,C#7,626.75,0.25,48,100.0
4540,B5,627.0,0.25,62,100.0
4541,B4,627.125,0.25,42,100.0
4542,C#7,627.25,0.25,47,100.0
4543,F#6,627.5,0.25,65,100.0
4544,F#5,627.625,0.25,34,100.0
4545,E-5,627.625,0.25,34,100.0
4546,C#7,627.75,0.25,46,100.0
4547,E-6,628.0,0.25,61,100.0
4548,F#4,628.125,0.25,42,100.0
4549,C#7,628.25,0.25,48,100.0
4550,C#6,628.5,0.25,65,100.0
4551,B-4,628.625,0.25,34,100.0
4552,C#5,628.625,0.25,34,100.0
4553,C#7,628.75,0.25,47,100.0
4554,B-5,629.0,0.25,60,100.0
4555,C#4,629.125,0.25,42,100.0
4556,C#7,629.25,0.25,47,100.0
4557,A5,629.5,0.25,60,100.0
4558,C#5,629.625,0.25,34,100.0
4559,F#5,629.625,0.25,34,100.0
4560,C#7,629.75,0.25,47,100.0
4561,B-5,630.0,0.25,62,100.0
4562,F#4,630.125,0.25,42,100.0
4563,C#7,630.25,0.25,47,100.0
4564,C#6,630.5,0.25,65,100.0
4565,C#5,630.625,0.25,34,100.0
4566,F#5,630.625,0.25,34,100.0
4567,C#7,630.75,0.25,48,100.0
4568,B-5,631.0,0.25,62,100.0
4569,B-4,631.125,0.25,42,100.0
4570,C#7,631.25,0.25,47,100.0
4571,F#6,631.5,0.25,65,100.0
4572,C#5,631.625,0.25,34,100.0
4573,F#5,631.625,0.25,34,100.0
4574,C#7,631.75,0.25,46,100.0
4575,C#6,632.0,0.25,61,100.0
4576,F#4,632.125,0.25,42,100.0
4577,C#7,632.25,0.25,48,100.0
4578,E-6,632.5,0.25,65,100.0
4579,E-5,632.625,0.25,34,100.0
4580,B4,632.625,0.25,34,100.0
4581,C#7,632.75,0.25,47,100.0
4582,B5,633.0,0.25,60,100.0
4583,C#4,633.125,0.25,42,100.0
4584,C#7,633.25,0.25,47,100.0
4585,B-5,633.5,0.25,60,100.0
4586,E-5,633.625,0.25,34,100.0
4587,F#5,633.625,0.25,34,100.0
4588,C#7,633.75,0.25,47,100.0
4589,B5,634.0,0.25,62,100.0
4590,F#4,634.125,0.25,42,100.0
4591,C#7,634.25,0.25,47,100.0
4592,E-6,634.5,0.25,65,100.0
4593,F#5,634.625,0.25,34,100.0
4594,E-5,634.625,0.25,34,100.0
4595,C#7,634.75,0.25,48,100.0
4596,B5,635.0,0.25,62,100.0
4597,B4,635.125,0.25,42,100.0
4598,C#7,635.25,0.25,47,100.0
4599,F#6,635.5,0.25,65,100.0
4600,F#5,635.625,0.25,34,100.0
4601,E-5,635.625,0.25,34,100.0
4602,C#7,635.75,0.25,46,100.0
4603,E-6,636.0,0.25,61,100.0
4604,F#4,636.125,0.25,42,100.0
4605,C#7,636.25,0.25,48,100.0
4606,C#6,636.5,0.25,65,100.0
4607,B-4,636.625,0.25,34,100.0
4608,C#5,636.625,0.25,34,100.0
4609,C#7,636.75,0.25,47,100.0
4610,B-5,637.0,0.25,60,100.0
4611,C#4,637.125,0.25,42,100.0
4612,C#7,637.25,0.25,47,100.0
4613,A5,637.5,0.25,60,100.0
4614,C#5,637.625,0.25,34,100.0
4615,F#5,637.625,0.25,34,100.0
4616,C#7,637.75,0.25,47,100.0
4617,B-5,638.0,0.25,62,100.0
4618,F#4,638.125,0.25,42,100.0
4619,C#7,638.25,0.25,47,100.0
4620,C#6,638.5,0.25,65,100.0
4621,C#5,638.625,0.25,34,100.0
4622,F#5,638.625,0.25,34,100.0
4623,C#7,638.75,0.25,48,100.0
4624,B-5,639.0,0.25,62,100.0
4625,B-4,639.125,0.25,42,100.0
4626,C#7,639.25,0.25,47,100.0
4627,F#6,639.5,0.25,65,100.0
4628,F#5,639.625,0.25,34,100.0
4629,C#5,639.625,0.25,34,100.0
4630,C#7,639.75,0.25,46,100.0
4631,G#3,640.125,0.25,42,100.0
4632,C#3,640.5,0.25,46,100.0
4633,B4,640.625,0.25,30,100.0
4634,F4,640.625,0.25,30,100.0
4635,E-3,641.0,0.25,48,100.0
4636,C#4,641.125,0.25,36,100.0
4637,F3,641.5,0.25,50,100.0
4638,B4,641.625,0.25,30,100.0
4639,F4,641.625,0.25,30,100.0
4640,F#3,642.0,0.25,53,100.0
4641,B-3,642.375,0.125,50,100.0
4642,G#3,642.5,0.25,55,100.0
4643,F4,642.625,0.25,30,100.0
4644,B4,642.625,0.25,30,100.0
4645,G3,643.0,0.25,46,100.0
4646,C#4,643.125,0.25,38,100.0
4647,G#3,643.5,0.25,50,100.0
4648,F4,643.625,0.25,30,100.0
4649,B4,643.625,0.25,30,100.0
4650,F3,644.0,0.25,46,100.0
4651,B-3,644.125,0.25,42,100.0
4652,F#3,644.5,0.25,46,100.0
4653,F#4,644.625,0.25,30,100.0
4654,B-4,644.625,0.25,30,100.0
4655,G#3,645.0,0.25,48,100.0
4656,C#4,645.125,0.25,36,100.0
4657,B-3,645.5,0.25,50,100.0
4658,B-4,645.625,0.25,30,100.0
4659,F#4,645.625,0.25,30,100.0
4660,B3,646.0,0.25,53,100.0
4661,B-3,646.125,0.25,44,100.0
4662,E-4,646.375,0.125,50,100.0
4663,C#4,646.5,0.25,55,100.0
4664,F#4,646.625,0.25,30,100.0
4665,B-4,646.625,0.25,30,100.0
4666,C4,647.0,0.25,46,100.0
4667,C#4,647.5,0.25,50,100.0
4668,B-4,647.625,0.25,30,100.0
4669,F#4,647.625,0.25,30,100.0
4670,B-3,648.0,0.25,46,100.0
4671,G#3,648.125,0.25,44,100.0
4672,B3,648.5,0.25,55,100.0
4673,F4,648.625,0.125,30,100.0
4674,B4,648.625,0.125,30,100.0
4675,D4,648.875,0.125,50,100.0
4676,E-4,649.0,0.125,46,100.0
4677,C#4,649.125,0.25,38,100.0
4678,G#3,649.5,0.25,50,100.0
4679,F4,649.625,0.125,30,100.0
4680,B4,649.625,0.125,30,100.0
4681,B-3,649.875,0.125,50,100.0
4682,B3,650.0,0.125,46,100.0
4683,G#3,650.125,0.25,44,100.0
4684,F3,650.5,0.25,55,100.0
4685,F4,650.625,0.125,30,100.0
4686,B4,650.625,0.125,30,100.0
4687,G3,650.875,0.125,50,100.0
4688,G#3,651.0,0.125,46,100.0
4689,C#4,651.125,0.25,38,100.0
4690,C#3,651.5,0.25,50,100.0
4691,B4,651.625,0.125,30,100.0
4692,F4,651.625,0.125,30,100.0
4693,E3,651.875,0.125,50,100.0
4694,F3,652.0,0.125,46,100.0
4695,B-3,652.125,0.25,44,100.0
4696,F#3,652.5,0.25,55,100.0
4697,B-4,652.625,0.125,30,100.0
4698,F#4,652.625,0.125,30,100.0
4699,A3,652.875,0.125,50,100.0
4700,B-3,653.0,0.125,46,100.0
4701,C#4,653.125,0.25,38,100.0
4702,C#3,653.5,0.25,50,100.0
4703,B-4,653.625,0.125,30,100.0
4704,F#4,653.625,0.125,30,100.0
4705,F3,653.875,0.125,50,100.0
4706,F#3,654.0,0.125,46,100.0
4707,B-3,654.125,0.25,44,100.0
4708,B-2,654.5,0.25,55,100.0
4709,F#4,654.625,0.125,30,100.0
4710,B-4,654.625,0.125,30,100.0
4711,C3,654.875,0.125,50,100.0
4712,C#3,655.0,0.125,46,100.0
4713,C#4,655.125,0.25,38,100.0
4714,F#2,655.5,0.25,50,100.0
4715,F#4,655.625,0.125,30,100.0
4716,B-4,655.625,0.125,30,100.0
4717,G#3,656.125,0.25,42,100.0
4718,C#4,656.5,0.25,44,100.0
4719,C#5,656.5,0.25,44,100.0
4720,B3,656.625,0.25,30,100.0
4721,F4,656.625,0.25,30,100.0
4722,E-4,657.0,0.25,46,100.0
4723,E-5,657.0,0.25,46,100.0
4724,C#3,657.125,0.25,36,100.0
4725,F4,657.5,0.25,48,100.0
4726,F5,657.5,0.25,48,100.0
4727,B3,657.625,0.25,30,100.0
4728,C#4,657.625,0.25,30,100.0
4729,F#4,658.0,0.25,51,100.0
4730,F#5,658.0,0.25,51,100.0
4731,G#3,658.125,0.25,44,100.0
4732,B-5,658.375,0.125,52,100.0
4733,G#4,658.5,0.25,52,100.0
4734,G#5,658.5,0.25,52,100.0
4735,B3,658.625,0.25,30,100.0
4736,F4,658.625,0.25,30,100.0
4737,G4,659.0,0.25,44,100.0
4738,G5,659.0,0.25,44,100.0
4739,C#3,659.125,0.25,38,100.0
4740,G#5,659.5,0.25,48,100.0
4741,G#4,659.5,0.25,48,100.0
4742,B3,659.625,0.25,30,100.0
4743,C#4,659.625,0.25,30,100.0
4744,F5,660.0,0.25,44,100.0
4745,F4,660.0,0.25,44,100.0
4746,F#3,660.125,0.25,42,100.0
4747,F#5,660.5,0.25,44,100.0
4748,F#4,660.5,0.25,44,100.0
4749,F#4,660.625,0.25,30,100.0
4750,B-3,660.625,0.25,30,100.0
4751,G#4,661.0,0.25,46,100.0
4752,G#5,661.0,0.25,46,100.0
4753,C#3,661.125,0.25,36,100.0
4754,B-5,661.5,0.25,48,100.0
4755,B-4,661.5,0.25,48,100.0
4756,B-3,661.625,0.25,30,100.0
4757,C#4,661.625,0.25,30,100.0
4758,B4,662.0,0.25,51,100.0
4759,B5,662.0,0.25,51,100.0
4760,F#3,662.125,0.25,44,100.0
4761,F#6,662.375,0.125,52,100.0
4762,C#5,662.5,0.25,52,100.0
4763,C#6,662.5,0.25,52,100.0
4764,F#4,662.625,0.25,30,100.0
4765,B-3,662.625,0.25,30,100.0
4766,C6,663.0,0.25,44,100.0
4767,C5,663.0,0.25,44,100.0
4768,C#3,663.125,0.25,38,100.0
4769,C#5,663.5,0.25,48,100.0
4770,C#6,663.5,0.25,48,100.0
4771,B-3,663.625,0.25,30,100.0
4772,C#4,663.625,0.25,30,100.0
4773,B-4,664.0,0.25,44,100.0
4774,B-5,664.0,0.25,44,100.0
4775,G#3,664.131,0.25,44,100.0
4776,B5,664.5,0.25,58,100.0
4777,E-5,664.5,0.25,58,100.0
4778,F4,664.625,0.125,30,100.0
4779,B3,664.625,0.125,30,100.0
4780,D6,664.875,0.125,60,100.0
4781,E-6,665.0,0.125,55,100.0
4782,C#3,665.125,0.25,38,100.0
4783,B4,665.5,0.25,55,100.0
4784,G#5,665.5,0.25,55,100.0
4785,C#4,665.625,0.125,30,100.0
4786,B3,665.625,0.125,30,100.0
4787,B-5,665.875,0.125,60,100.0
4788,B5,666.0,0.125,55,100.0
4789,G#3,666.125,0.25,44,100.0
4790,F5,666.5,0.25,58,100.0
4791,G#4,666.5,0.25,58,100.0
4792,B3,666.625,0.125,30,100.0
4793,F4,666.625,0.125,30,100.0
4794,G5,666.875,0.125,60,100.0
4795,G#5,667.0,0.125,55,100.0
4796,C#3,667.125,0.25,38,100.0
4797,C#5,667.5,0.25,55,100.0
4798,F4,667.5,0.25,55,100.0
4799,B3,667.625,0.125,30,100.0
4800,C#4,667.625,0.125,30,100.0
4801,E5,667.875,0.125,60,100.0
4802,F5,668.0,0.125,55,100.0
4803,F#3,668.125,0.25,44,100.0
4804,F#5,668.5,0.25,58,100.0
4805,B-4,668.5,0.25,58,100.0
4806,B-3,668.625,0.125,30,100.0
4807,F#4,668.625,0.125,30,100.0
4808,A5,668.875,0.125,60,100.0
4809,B-5,669.0,0.125,55,100.0
4810,C#3,669.125,0.25,38,100.0
4811,C#5,669.5,0.25,55,100.0
4812,F#4,669.5,0.25,55,100.0
4813,C#4,669.625,0.125,30,100.0
4814,B-3,669.625,0.125,30,100.0
4815,F5,669.875,0.125,60,100.0
4816,F#5,670.0,0.125,55,100.0
4817,F#3,670.125,0.25,44,100.0
4818,B-4,670.5,0.25,58,100.0
4819,C#4,670.5,0.25,58,100.0
4820,F#4,670.625,0.125,30,100.0
4821,B-3,670.625,0.125,30,100.0
4822,C5,670.875,0.125,60,100.0
4823,C#5,671.0,0.125,55,100.0
4824,C#3,671.125,0.25,38,100.0
4825,B-3,671.5,49/100,50,100.0
4826,F#4,671.5,1.0,60,100.0
4827,B-3,671.625,0.125,30,100.0
4828,C#4,671.625,0.125,30,100.0
4829,E-3,672.125,0.25,42,100.0
4830,G#2,672.5,0.25,46,100.0
4831,F#4,672.625,0.25,30,100.0
4832,C4,672.625,0.25,30,100.0
4833,B-2,673.0,0.25,48,100.0
4834,G#3,673.125,0.25,36,100.0
4835,C3,673.5,0.25,50,100.0
4836,F#4,673.625,0.25,30,100.0
4837,C4,673.625,0.25,30,100.0
4838,C#3,674.0,0.25,53,100.0
4839,F3,674.375,0.125,50,100.0
4840,E-3,674.5,0.25,55,100.0
4841,C4,674.625,0.25,30,100.0
4842,F#4,674.625,0.25,30,100.0
4843,D3,675.0,0.25,46,100.0
4844,G#3,675.125,0.25,38,100.0
4845,E-3,675.5,0.25,50,100.0
4846,C4,675.625,0.25,30,100.0
4847,F#4,675.625,0.25,30,100.0
4848,C3,676.0,0.25,46,100.0
4849,F3,676.125,0.25,42,100.0
4850,C#3,676.5,0.25,46,100.0
4851,C#4,676.625,0.25,30,100.0
4852,F4,676.625,0.25,30,100.0
4853,E-3,677.0,0.25,48,100.0
4854,G#3,677.125,0.25,36,100.0
4855,F3,677.5,0.25,50,100.0
4856,C#4,677.625,0.25,30,100.0
4857,F4,677.625,0.25,30,100.0
4858,F#3,678.0,0.25,53,100.0
4859,F3,678.125,0.25,44,100.0
4860,B-3,678.375,0.125,50,100.0
4861,G#3,678.5,0.25,55,100.0
4862,F4,678.625,0.25,30,100.0
4863,C#4,678.625,0.25,30,100.0
4864,G3,679.0,0.25,46,100.0
4865,G#3,679.5,0.25,50,100.0
4866,F4,679.625,0.25,30,100.0
4867,C#4,679.625,0.25,30,100.0
4868,F3,680.0,0.25,46,100.0
4869,E-3,680.125,0.25,44,100.0
4870,F#3,680.5,0.25,55,100.0
4871,F#4,680.625,0.125,30,100.0
4872,C4,680.625,0.125,30,100.0
4873,A3,680.875,0.125,50,100.0
4874,B-3,681.0,0.125,46,100.0
4875,G#3,681.125,0.25,38,100.0
4876,E-3,681.5,0.25,50,100.0
4877,C4,681.625,0.125,30,100.0
4878,F#4,681.625,0.125,30,100.0
4879,F3,681.875,0.125,50,100.0
4880,F#3,682.0,0.125,46,100.0
4881,E-3,682.125,0.25,44,100.0
4882,C3,682.5,0.25,55,100.0
4883,F#4,682.625,0.125,30,100.0
4884,C4,682.625,0.125,30,100.0
4885,D3,682.875,0.125,50,100.0
4886,E-3,683.0,0.125,46,100.0
4887,G#3,683.125,0.25,38,100.0
4888,G#2,683.5,0.25,50,100.0
4889,C4,683.625,0.125,30,100.0
4890,F#4,683.625,0.125,30,100.0
4891,B2,683.875,0.125,50,100.0
4892,C3,684.0,0.125,46,100.0
4893,F3,684.125,0.25,44,100.0
4894,C#3,684.5,0.25,55,100.0
4895,C#4,684.625,0.125,30,100.0
4896,F4,684.625,0.125,30,100.0
4897,E3,684.875,0.125,50,100.0
4898,F3,685.0,0.125,46,100.0
4899,G#3,685.125,0.25,38,100.0
4900,G#2,685.5,0.25,50,100.0
4901,C#4,685.625,0.125,30,100.0
4902,F4,685.625,0.125,30,100.0
4903,C3,685.875,0.125,50,100.0
4904,C#3,686.0,0.125,46,100.0
4905,F3,686.125,0.25,44,100.0
4906,F2,686.5,0.25,55,100.0
4907,C#4,686.625,0.125,30,100.0
4908,F4,686.625,0.125,30,100.0
4909,G2,686.875,0.125,50,100.0
4910,G#2,687.0,0.125,46,100.0
4911,G#3,687.125,0.25,38,100.0
4912,C#2,687.5,0.25,50,100.0
4913,F4,687.625,0.125,30,100.0
4914,C#4,687.625,0.125,30,100.0
4915,E-3,688.125,0.25,46,100.0
4916,C5,688.5,0.25,47,100.0
4917,G#5,688.5,0.25,47,100.0
4918,G#4,688.5,0.25,47,100.0
4919,C4,688.625,0.25,32,100.0
4920,G#3,688.625,0.25,32,100.0
4921,F#4,688.625,0.25,32,100.0
4922,B-4,689.0,0.25,49,100.0
4923,C#5,689.0,0.25,49,100.0
4924,B-5,689.0,0.25,49,100.0
4925,G#2,689.125,0.25,39,100.0
4926,C5,689.5,0.25,51,100.0
4927,E-5,689.5,0.25,51,100.0
4928,C6,689.5,0.25,51,100.0
4929,C4,689.625,0.25,32,100.0
4930,G#3,689.625,0.25,32,100.0
4931,F#4,689.625,0.25,32,100.0
4932,F5,690.0,0.25,54,100.0
4933,C#5,690.0,0.25,54,100.0
4934,C#6,690.0,0.25,54,100.0
4935,E-3,690.125,0.25,48,100.0
4936,E-5,690.5,0.25,55,100.0
4937,F#5,690.5,0.25,55,100.0
4938,E-6,690.5,0.25,55,100.0
4939,F#4,690.625,0.25,32,100.0
4940,G#3,690.625,0.25,32,100.0
4941,C4,690.625,0.25,32,100.0
4942,D5,691.0,0.25,47,100.0
4943,F5,691.0,0.25,47,100.0
4944,D6,691.0,0.25,47,100.0
4945,G#2,691.125,0.25,41,100.0
4946,E-5,691.5,0.25,51,100.0
4947,F#5,691.5,0.25,51,100.0
4948,E-6,691.5,0.25,51,100.0
4949,C4,691.625,0.25,32,100.0
4950,F#4,691.625,0.25,32,100.0
4951,G#3,691.625,0.25,32,100.0
4952,C6,692.0,0.25,47,100.0
4953,C5,692.0,0.25,47,100.0
4954,E-5,692.0,0.25,47,100.0
4955,C#3,692.125,0.25,46,100.0
4956,C#6,692.5,0.25,47,100.0
4957,C#5,692.5,0.25,47,100.0
4958,F5,692.5,0.25,47,100.0
4959,G#3,692.625,0.25,32,100.0
4960,F4,692.625,0.25,32,100.0
4961,C#4,692.625,0.25,32,100.0
4962,E-5,693.0,0.25,49,100.0
4963,E-6,693.0,0.25,49,100.0
4964,G#5,693.0,0.25,49,100.0
4965,G#2,693.125,0.25,39,100.0
4966,F6,693.5,0.25,51,100.0
4967,C#6,693.5,0.25,51,100.0
4968,F5,693.5,0.25,51,100.0
4969,C#4,693.625,0.25,32,100.0
4970,G#3,693.625,0.25,32,100.0
4971,F4,693.625,0.25,32,100.0
4972,F#6,694.0,0.25,54,100.0
4973,F#5,694.0,0.25,54,100.0
4974,E-6,694.0,0.25,54,100.0
4975,C#3,694.125,0.25,48,100.0
4976,G#6,694.5,0.25,55,100.0
4977,B5,694.5,0.25,55,100.0
4978,G#5,694.5,0.25,55,100.0
4979,G#3,694.625,0.25,32,100.0
4980,F4,694.625,0.25,32,100.0
4981,C#4,694.625,0.25,32,100.0
4982,G5,695.0,0.25,47,100.0
4983,G6,695.0,0.25,47,100.0
4984,E6,695.0,0.25,47,100.0
4985,G#2,695.125,0.25,41,100.0
4986,G#6,695.5,0.25,51,100.0
4987,F6,695.5,0.25,51,100.0
4988,G#5,695.5,0.25,51,100.0
4989,C#4,695.625,0.25,32,100.0
4990,G#3,695.625,0.25,32,100.0
4991,F4,695.625,0.25,32,100.0
4992,F6,696.0,0.25,47,100.0
4993,F5,696.0,0.25,47,100.0
4994,C#6,696.0,0.25,47,100.0
4995,E-3,696.131,0.25,48,100.0
4996,B-5,696.5,0.25,64,100.0
4997,F#6,696.5,0.25,64,100.0
4998,F#4,696.625,0.125,32,100.0
4999,C4,696.625,0.125,32,100.0
5000,G#3,696.625,0.125,32,100.0
5001,A6,696.875,0.125,66,100.0
5002,B-6,697.0,0.125,60,100.0
5003,G#2,697.125,0.25,41,100.0
5004,E-6,697.5,0.25,60,100.0
5005,F#5,697.5,0.25,60,100.0
5006,C4,697.625,0.125,32,100.0
5007,G#3,697.625,0.125,32,100.0
5008,F#4,697.625,0.125,32,100.0
5009,F6,697.875,0.125,66,100.0
5010,F#6,698.0,0.125,60,100.0
5011,E-3,698.125,0.25,48,100.0
5012,C6,698.5,0.25,64,100.0
5013,E-5,698.5,0.25,64,100.0
5014,G#3,698.625,0.125,32,100.0
5015,C4,698.625,0.125,32,100.0
5016,F#4,698.625,0.125,32,100.0
5017,D6,698.875,0.125,66,100.0
5018,E-6,699.0,0.125,60,100.0
5019,G#2,699.125,0.25,41,100.0
5020,G#5,699.5,0.25,60,100.0
5021,C5,699.5,0.25,60,100.0
5022,F#4,699.625,0.125,32,100.0
5023,C4,699.625,0.125,32,100.0
5024,G#3,699.625,0.125,32,100.0
5025,B5,699.875,0.125,66,100.0
5026,C6,700.0,0.125,60,100.0
5027,C#3,700.125,0.25,48,100.0
5028,C#6,700.5,0.25,64,100.0
5029,F5,700.5,0.25,64,100.0
5030,F4,700.625,0.125,32,100.0
5031,G#3,700.625,0.125,32,100.0
5032,C#4,700.625,0.125,32,100.0
5033,E6,700.875,0.125,66,100.0
5034,F6,701.0,0.125,60,100.0
5035,G#2,701.125,0.25,41,100.0
5036,C#5,701.5,0.25,60,100.0
5037,G#5,701.5,0.25,60,100.0
5038,F4,701.625,0.125,32,100.0
5039,C#4,701.625,0.125,32,100.0
5040,G#3,701.625,0.125,32,100.0
5041,C6,701.875,0.125,66,100.0
5042,C#6,702.0,0.125,60,100.0
5043,C#3,702.125,0.25,48,100.0
5044,F5,702.5,0.25,64,100.0
5045,G#4,702.5,0.25,64,100.0
5046,F4,702.625,0.125,32,100.0
5047,C#4,702.625,0.125,32,100.0
5048,G#3,702.625,0.125,32,100.0
5049,G5,702.875,0.125,66,100.0
5050,G#5,703.0,0.125,60,100.0
5051,G#2,703.125,0.25,41,100.0
5052,F4,703.5,62/125,55,100.0
5053,C#5,703.5,1.0,66,100.0
5054,F4,703.625,0.5,36,100.0
5055,G#3,703.625,0.125,30,100.0
5056,C#4,703.625,0.125,30,100.0
5057,E-3,704.125,0.25,52,100.0
5058,G#5,704.5,0.25,53,100.0
5059,C6,704.5,0.25,53,100.0
5060,G#6,704.5,0.25,53,100.0
5061,F#4,704.625,0.25,36,100.0
5062,C4,704.625,0.25,36,100.0
5063,G#3,704.625,0.25,36,100.0
5064,B-6,705.0,0.25,56,100.0
5065,C#6,705.0,0.25,56,100.0
5066,B-5,705.0,0.25,56,100.0
5067,G#2,705.125,0.25,44,100.0
5068,E-6,705.5,0.25,58,100.0
5069,C6,705.5,0.25,58,100.0
5070,C7,705.5,0.25,58,100.0
5071,C4,705.625,0.25,36,100.0
5072,G#3,705.625,0.25,36,100.0
5073,F#4,705.625,0.25,36,100.0
5074,F6,706.0,0.25,62,100.0
5075,C#7,706.0,0.25,62,100.0
5076,C#6,706.0,0.25,62,100.0
5077,E-3,706.125,0.25,55,100.0
5078,F#6,706.5,0.25,69,100.0
5079,E-7,706.5,0.25,69,100.0
5080,E-6,706.5,0.25,69,100.0
5081,F#4,706.625,0.25,36,100.0
5082,C4,706.625,0.25,36,100.0
5083,G#3,706.625,0.25,36,100.0
5084,D6,707.0,0.25,58,100.0
5085,F6,707.0,0.25,58,100.0
5086,D7,707.0,0.25,58,100.0
5087,G#2,707.125,0.25,47,100.0
5088,E-6,707.5,0.25,64,100.0
5089,F#6,707.5,0.25,64,100.0
5090,E-7,707.5,0.25,64,100.0
5091,C4,707.625,0.25,36,100.0
5092,F#4,707.625,0.25,36,100.0
5093,G#3,707.625,0.25,36,100.0
5094,C7,708.0,0.25,58,100.0
5095,E-6,708.0,0.25,58,100.0
5096,C6,708.0,0.25,58,100.0
5097,C#3,708.125,0.25,57,100.0
5098,F6,708.5,0.25,58,100.0
5099,C#7,708.5,0.25,58,100.0
5100,C#6,708.5,0.25,58,100.0
5101,F4,708.625,0.25,40,100.0
5102,C#4,708.625,0.25,40,100.0
5103,G#3,708.625,0.25,40,100.0
5104,E-6,709.0,0.25,61,100.0
5105,G#6,709.0,0.25,61,100.0
5106,E-7,709.0,0.25,61,100.0
5107,G#2,709.125,0.25,48,100.0
5108,F6,709.5,0.25,64,100.0
5109,F7,709.5,0.25,64,100.0
5110,C#7,709.5,0.25,64,100.0
5111,G#3,709.625,0.25,40,100.0
5112,F4,709.625,0.25,40,100.0
5113,C#4,709.625,0.25,40,100.0
5114,F#7,710.0,0.25,67,100.0
5115,F#6,710.0,0.25,67,100.0
5116,E-7,710.0,0.25,67,100.0
5117,C#3,710.125,0.25,60,100.0
5118,G#7,710.5,0.25,69,100.0
5119,G#6,710.5,0.25,69,100.0
5120,B6,710.5,0.25,69,100.0
5121,C#4,710.625,0.25,40,100.0
5122,G#3,710.625,0.25,40,100.0
5123,F4,710.625,0.25,40,100.0
5124,G7,711.0,0.25,58,100.0
5125,G6,711.0,0.25,58,100.0
5126,E7,711.0,0.25,58,100.0
5127,G#2,711.125,0.25,51,100.0
5128,F7,711.5,0.25,64,100.0
5129,G#6,711.5,0.25,64,100.0
5130,G#7,711.5,0.25,64,100.0
5131,G#3,711.625,0.25,40,100.0
5132,F4,711.625,0.25,40,100.0
5133,C#4,711.625,0.25,40,100.0
5134,F6,712.0,0.25,58,100.0
5135,F7,712.0,0.25,58,100.0
5136,C#7,712.0,0.25,58,100.0
5137,E-3,712.131,0.25,60,100.0
5138,A6,712.375,0.125,82,100.0
5139,F#7,712.5,0.25,80,100.0
5140,B-6,712.5,0.25,80,100.0
5141,C4,712.625,0.125,40,100.0
5142,G#3,712.625,0.125,40,100.0
5143,F#4,712.625,0.125,40,100.0
5144,F#6,713.0,0.125,75,100.0
5145,G#2,713.125,0.25,51,100.0
5146,F6,713.375,0.125,82,100.0
5147,E-7,713.5,0.25,76,100.0
5148,F#6,713.5,0.25,76,100.0
5149,C4,713.625,0.125,40,100.0
5150,F#4,713.625,0.125,40,100.0
5151,G#3,713.625,0.125,40,100.0
5152,F#6,714.0,0.125,75,100.0
5153,E-3,714.125,0.25,60,100.0
5154,D6,714.375,0.125,82,100.0
5155,C7,714.5,0.25,80,100.0
5156,E-6,714.5,0.25,80,100.0
5157,F#4,714.625,0.125,40,100.0
5158,C4,714.625,0.125,40,100.0
5159,G#3,714.625,0.125,40,100.0
5160,C6,715.0,0.125,75,100.0
5161,G#2,715.125,0.25,51,100.0
5162,B5,715.375,0.125,82,100.0
5163,G#6,715.5,0.25,76,100.0
5164,C6,715.5,0.25,76,100.0
5165,F#4,715.625,0.125,40,100.0
5166,G#3,715.625,0.125,40,100.0
5167,C4,715.625,0.125,40,100.0
5168,G#5,716.0,0.125,75,100.0
5169,C#4,716.125,0.5,46,100.0
5170,C#3,716.125,0.5,46,100.0
5171,C#5,716.5,0.5,63,100.0
5172,C#6,716.5,0.5,63,100.0
5173,F5,716.5,0.5,63,100.0
5174,C4,716.625,0.5,49,100.0
5175,C3,716.625,0.5,49,100.0
5176,D6,717.0,0.5,65,100.0
5177,D5,717.0,0.5,65,100.0
5178,F#5,717.0,0.5,65,100.0
5179,B2,717.125,0.5,52,100.0
5180,B3,717.125,0.5,52,100.0
5181,G5,717.5,0.5,66,100.0
5182,E-6,717.5,0.5,66,100.0
5183,E-5,717.5,0.5,66,100.0
5184,B-3,717.625,0.5,54,100.0
5185,B-2,717.625,0.5,54,100.0
5186,E6,718.0,0.5,70,100.0
5187,E5,718.0,0.5,70,100.0
5188,G#5,718.0,0.5,70,100.0
5189,A2,718.125,0.5,57,100.0
5190,A3,718.125,0.5,57,100.0
5191,F5,718.5,0.5,75,100.0
5192,F6,718.5,0.5,75,100.0
5193,A5,718.5,0.5,75,100.0
5194,B-3,718.625,0.5,54,100.0
5195,B-2,718.625,0.5,54,100.0
5196,E5,719.0,0.5,68,100.0
5197,E6,719.0,0.5,68,100.0
5198,G#5,719.0,0.5,68,100.0
5199,B3,719.125,0.5,49,100.0
5200,B2,719.125,0.5,49,100.0
5201,G5,719.5,0.5,65,100.0
5202,E-5,719.5,0.5,65,100.0
5203,E-6,719.5,0.5,65,100.0
5204,C3,719.625,0.5,45,100.0
5205,C4,719.625,0.5,45,100.0
5206,D5,720.0,0.5,63,100.0
5207,F#5,720.0,0.5,63,100.0
5208,D6,720.0,0.5,63,100.0
5209,B3,720.125,0.5,46,100.0
5210,B2,720.125,0.5,46,100.0
5211,G5,720.5,0.5,63,100.0
5212,E-6,720.5,0.5,63,100.0
5213,E-5,720.5,0.5,63,100.0
5214,B-2,720.625,0.5,49,100.0
5215,B-3,720.625,0.5,49,100.0
5216,E6,721.0,0.5,65,100.0
5217,E5,721.0,0.5,65,100.0
5218,G#5,721.0,0.5,65,100.0
5219,A3,721.125,0.5,52,100.0
5220,A2,721.125,0.5,52,100.0
5221,A5,721.5,0.5,66,100.0
5222,F5,721.5,0.5,66,100.0
5223,F6,721.5,0.5,66,100.0
5224,G#3,721.625,0.5,54,100.0
5225,G#2,721.625,0.5,54,100.0
5226,F#5,722.0,0.5,70,100.0
5227,B-5,722.0,0.5,70,100.0
5228,F#6,722.0,0.5,70,100.0
5229,G2,722.125,0.5,57,100.0
5230,G3,722.125,0.5,57,100.0
5231,G5,722.5,0.5,75,100.0
5232,G6,722.5,0.5,75,100.0
5233,B5,722.5,0.5,75,100.0
5234,G#3,722.625,0.5,54,100.0
5235,G#2,722.625,0.5,54,100.0
5236,B-5,723.0,0.5,68,100.0
5237,F#5,723.0,0.5,68,100.0
5238,F#6,723.0,0.5,68,100.0
5239,A3,723.125,0.5,50,100.0
5240,A2,723.125,0.5,50,100.0
5241,F5,723.5,0.5,66,100.0
5242,F6,723.5,0.5,66,100.0
5243,A5,723.5,0.5,66,100.0
5244,B-2,723.625,0.5,45,100.0
5245,B-3,723.625,0.5,45,100.0
5246,E5,724.0,0.5,64,100.0
5247,E6,724.0,0.5,64,100.0
5248,G#5,724.0,0.5,64,100.0
5249,A3,724.125,0.5,46,100.0
5250,A2,724.125,0.5,46,100.0
5251,A5,724.5,0.5,64,100.0
5252,F6,724.5,0.5,64,100.0
5253,F5,724.5,0.5,64,100.0
5254,G#3,724.625,0.5,50,100.0
5255,G#2,724.625,0.5,50,100.0
5256,F#5,725.0,0.5,66,100.0
5257,F#6,725.0,0.5,66,100.0
5258,B-5,725.0,0.5,66,100.0
5259,G2,725.125,0.5,52,100.0
5260,G3,725.125,0.5,52,100.0
5261,G5,725.5,0.5,67,100.0
5262,G6,725.5,0.5,67,100.0
5263,B5,725.5,0.5,67,100.0
5264,F#3,725.625,0.5,54,100.0
5265,F#2,725.625,0.5,54,100.0
5266,G#5,726.0,0.5,71,100.0
5267,C6,726.0,0.5,71,100.0
5268,G#6,726.0,0.5,71,100.0
5269,F2,726.125,0.5,58,100.0
5270,F3,726.125,0.5,58,100.0
5271,A6,726.5,0.5,76,100.0
5272,A5,726.5,0.5,76,100.0
5273,C#6,726.5,0.5,76,100.0
5274,F#2,726.625,0.5,54,100.0
5275,F#3,726.625,0.5,54,100.0
5276,G#6,727.0,0.5,70,100.0
5277,C6,727.0,0.5,70,100.0
5278,G#5,727.0,0.5,70,100.0
5279,G2,727.125,0.5,50,100.0
5280,G3,727.125,0.5,50,100.0
5281,G6,727.5,0.5,66,100.0
5282,B5,727.5,0.5,66,100.0
5283,G5,727.5,0.5,66,100.0
5284,G#2,727.625,0.5,46,100.0
5285,G#3,727.625,0.5,46,100.0
5286,B-5,728.0,0.5,64,100.0
5287,F#6,728.0,0.5,64,100.0
5288,F#5,728.0,0.5,64,100.0
5289,G3,728.125,0.5,47,100.0
5290,G2,728.125,0.5,47,100.0
5291,B5,728.5,0.5,65,100.0
5292,G6,728.5,0.5,65,100.0
5293,G5,728.5,0.5,65,100.0
5294,F#3,728.625,0.5,49,100.0
5295,F#2,728.625,0.5,49,100.0
5296,C6,729.0,0.5,68,100.0
5297,G#6,729.0,0.5,68,100.0
5298,G#5,729.0,0.5,68,100.0
5299,F2,729.125,0.5,51,100.0
5300,F3,729.125,0.5,51,100.0
5301,A6,729.5,0.5,69,100.0
5302,A5,729.5,0.5,69,100.0
5303,C#6,729.5,0.5,69,100.0
5304,E2,729.625,0.5,53,100.0
5305,E3,729.625,0.5,53,100.0
5306,D6,730.0,0.5,73,100.0
5307,B-5,730.0,0.5,73,100.0
5308,B-6,730.0,0.5,73,100.0
5309,E-3,730.125,0.5,56,100.0
5310,E-2,730.125,0.5,56,100.0
5311,E-6,730.5,0.5,76,100.0
5312,B5,730.5,0.5,76,100.0
5313,B6,730.5,0.5,76,100.0
5314,D3,730.625,0.5,59,100.0
5315,D2,730.625,0.5,59,100.0
5316,C6,731.0,0.5,79,100.0
5317,C7,731.0,0.5,79,100.0
5318,E6,731.0,0.5,79,100.0
5319,C#3,731.125,0.5,60,100.0
5320,C#2,731.125,0.5,60,100.0
5321,F6,731.5,0.5,80,100.0
5322,C#7,731.5,0.5,80,100.0
5323,C#6,731.5,0.5,80,100.0
5324,C2,731.625,0.5,63,100.0
5325,C3,731.625,0.5,63,100.0
5326,D7,732.0,0.5,84,100.0
5327,D6,732.0,0.5,84,100.0
5328,F#6,732.0,0.5,84,100.0
5329,B1,732.125,0.5,66,100.0
5330,B2,732.125,0.5,66,100.0
5331,E-7,732.5,0.5,86,100.0
5332,E-6,732.5,0.5,86,100.0
5333,G6,732.5,0.5,86,100.0
5334,B-2,732.625,0.5,69,100.0
5335,B-1,732.625,0.5,69,100.0
5336,E7,733.0,0.5,89,100.0
5337,G#6,733.0,0.5,89,100.0
5338,E6,733.0,0.5,89,100.0
5339,A1,733.125,0.5,72,100.0
5340,A2,733.125,0.5,72,100.0
5341,F6,733.5,0.5,92,100.0
5342,F7,733.5,0.5,92,100.0
5343,A6,733.5,0.5,92,100.0
5344,B-2,733.625,0.5,70,100.0
5345,B-1,733.625,0.5,70,100.0
5346,E7,734.0,0.5,90,100.0
5347,G#6,734.0,0.5,90,100.0
5348,E6,734.0,0.5,90,100.0
5349,B1,734.125,0.5,70,100.0
5350,B2,734.125,0.5,70,100.0
5351,G6,734.5,0.5,93,100.0
5352,E-6,734.5,0.5,93,100.0
5353,E-7,734.5,0.5,93,100.0
5354,C2,734.625,0.5,68,100.0
5355,C3,734.625,0.5,68,100.0
5356,F#6,735.0,0.5,87,100.0
5357,D6,735.0,0.5,87,100.0
5358,D7,735.0,0.5,87,100.0
5359,C#2,735.125,0.5,65,100.0
5360,C#3,735.125,0.5,65,100.0
5361,C#6,735.5,0.5,86,100.0
5362,C#7,735.5,0.5,86,100.0
5363,F6,735.5,0.5,86,100.0
5364,D2,735.625,0.5,64,100.0
5365,D3,735.625,0.5,64,100.0
5366,C6,736.0,0.5,85,100.0
5367,E6,736.0,0.5,85,100.0
5368,C7,736.0,0.5,85,100.0
5369,E-2,736.125,0.5,61,100.0
5370,E-3,736.125,0.5,61,100.0
5371,B5,736.5,0.5,83,100.0
5372,B6,736.5,0.5,83,100.0
5373,E-6,736.5,0.5,83,100.0
5374,E3,736.625,0.5,60,100.0
5375,E2,736.625,0.5,60,100.0
5376,B-6,737.0,0.5,82,100.0
5377,B-5,737.0,0.5,82,100.0
5378,D6,737.0,0.5,82,100.0
5379,F2,737.125,0.5,58,100.0
5380,F3,737.125,0.5,58,100.0
5381,A6,737.5,0.5,82,100.0
5382,A5,737.5,0.5,82,100.0
5383,C#6,737.5,0.5,82,100.0
5384,E2,737.625,0.5,56,100.0
5385,E3,737.625,0.5,56,100.0
5386,D6,738.0,0.5,81,100.0
5387,B-6,738.0,0.5,81,100.0
5388,B-5,738.0,0.5,81,100.0
5389,E-3,738.125,0.5,58,100.0
5390,E-2,738.125,0.5,58,100.0
5391,B6,738.5,0.5,80,100.0
5392,B5,738.5,0.5,80,100.0
5393,E-6,738.5,0.5,80,100.0
5394,D3,738.625,0.5,60,100.0
5395,D2,738.625,0.5,60,100.0
5396,C6,739.0,0.5,82,100.0
5397,E6,739.0,0.5,82,100.0
5398,C7,739.0,0.5,82,100.0
5399,C#2,739.125,0.5,63,100.0
5400,C#3,739.125,0.5,63,100.0
5401,C#7,739.5,0.5,83,100.0
5402,C#6,739.5,0.5,83,100.0
5403,F6,739.5,0.5,83,100.0
5404,C2,739.625,0.5,65,100.0
5405,C3,739.625,0.5,65,100.0
5406,D7,740.0,0.5,86,100.0
5407,F#6,740.0,0.5,86,100.0
5408,D6,740.0,0.5,86,100.0
5409,B2,740.125,0.5,68,100.0
5410,B1,740.125,0.5,68,100.0
5411,E-6,740.5,0.5,89,100.0
5412,G6,740.5,0.5,89,100.0
5413,E-7,740.5,0.5,89,100.0
5414,B-1,740.625,0.5,70,100.0
5415,B-2,740.625,0.5,70,100.0
5416,E7,741.0,0.5,90,100.0
5417,G#6,741.0,0.5,90,100.0
5418,E6,741.0,0.5,90,100.0
5419,A1,741.125,0.5,72,100.0
5420,A2,741.125,0.5,72,100.0
5421,F6,741.5,0.5,94,100.0
5422,A6,741.5,0.5,94,100.0
5423,F7,741.5,0.5,94,100.0
5424,B-2,741.625,0.5,70,100.0
5425,B-1,741.625,0.5,70,100.0
5426,E7,742.0,0.5,90,100.0
5427,E6,742.0,0.5,90,100.0
5428,G#6,742.0,0.5,90,100.0
5429,B1,742.125,0.5,70,100.0
5430,B2,742.125,0.5,70,100.0
5431,E-7,742.5,0.5,93,100.0
5432,E-6,742.5,0.5,93,100.0
5433,G6,742.5,0.5,93,100.0
5434,C2,742.625,0.5,68,100.0
5435,C3,742.625,0.5,68,100.0
5436,D6,743.0,0.5,87,100.0
5437,F#6,743.0,0.5,87,100.0
5438,D7,743.0,0.5,87,100.0
5439,C#2,743.125,0.5,63,100.0
5440,C#3,743.125,0.5,63,100.0
5441,G#2,743.125,0.5,63,100.0
5442,C#7,743.5,0.5,86,100.0
5443,F6,743.5,0.5,86,100.0
5444,C#6,743.5,0.5,86,100.0
5445,D2,743.625,0.5,64,100.0
5446,D3,743.625,0.5,64,100.0
5447,F#6,744.0,0.5,85,100.0
5448,C6,744.0,0.5,85,100.0
5449,C7,744.0,0.5,85,100.0
5450,G#2,744.125,0.5,67,100.0
5451,C#2,744.125,0.5,67,100.0
5452,C#3,744.125,0.5,67,100.0
5453,F6,744.5,0.5,96,100.0
5454,C#7,744.5,0.5,96,100.0
5455,C#6,744.5,0.5,96,100.0
5456,D3,744.625,0.5,62,100.0
5457,D2,744.625,0.5,62,100.0
5458,C6,745.0,0.5,89,100.0
5459,C7,745.0,0.5,89,100.0
5460,F#6,745.0,0.5,89,100.0
5461,G#2,745.125,0.5,68,100.0
5462,C#2,745.125,0.5,68,100.0
5463,C#3,745.125,0.5,68,100.0
5464,C#6,745.5,0.5,96,100.0
5465,F6,745.5,0.5,96,100.0
5466,C#7,745.5,0.5,96,100.0
5467,D2,745.625,0.5,64,100.0
5468,D3,745.625,0.5,64,100.0
5469,C7,746.0,0.5,89,100.0
5470,F#6,746.0,0.5,89,100.0
5471,C6,746.0,0.5,89,100.0
5472,C#3,746.125,0.5,67,100.0
5473,G#2,746.125,0.5,67,100.0
5474,C#2,746.125,0.5,67,100.0
5475,C#6,746.5,0.5,96,100.0
5476,C#7,746.5,0.5,96,100.0
5477,F6,746.5,0.5,96,100.0
5478,C3,746.625,271/500,62,100.0
5479,C4,746.625,271/500,62,100.0
5480,C5,747.0,271/500,74,100.0
5481,C6,747.0,271/500,74,100.0
5482,C#4,747.125,271/500,66,100.0
5483,C#3,747.125,271/500,66,100.0
5484,C#6,747.5,271/500,81,100.0
5485,C#5,747.5,271/500,81,100.0
5486,C4,747.625,0.5,62,100.0
5487,C3,747.625,0.5,62,100.0
5488,C6,748.0,0.5,74,100.0
5489,C5,748.0,0.5,74,100.0
5490,C#4,748.125,0.25,67,100.0
5491,C#3,748.125,0.25,67,100.0
5492,C4,748.125,21/500,62,100.0
5493,C3,748.125,21/500,62,100.0
5494,C#6,748.5,0.25,81,100.0
5495,C#5,748.5,0.25,81,100.0
5496,C6,748.5,21/500,74,100.0
5497,C5,748.5,21/500,74,100.0
5498,C#3,748.625,271/500,62,100.0
5499,C#2,748.625,271/500,62,100.0
5500,C#5,749.0,271/500,68,100.0
5501,C#4,749.0,271/500,68,100.0
5502,D3,749.125,271/500,66,100.0
5503,D2,749.125,271/500,66,100.0
5504,D5,749.5,271/500,74,100.0
5505,D4,749.5,271/500,74,100.0
5506,E-2,749.625,0.5,62,100.0
5507,E-3,749.625,0.5,62,100.0
5508,E-5,750.0,0.5,66,100.0
5509,E-4,750.0,0.5,66,100.0
5510,E2,750.125,1.0,80,100.0
5511,E3,750.125,1.0,80,100.0
5512,E5,750.5,1.0,88,100.0
5513,E4,750.5,1.0,88,100.0
5514,B3,750.625,0.25,63,100.0
5515,G#3,750.625,0.25,63,100.0
5516,B4,751.0,0.25,73,100.0
5517,G#4,751.0,0.25,73,100.0
5518,G#2,751.125,1.0,72,100.0
5519,G#3,751.125,1.0,72,100.0
5520,G#4,751.5,1.0,81,100.0
5521,G#5,751.5,1.0,81,100.0
5522,E4,751.625,0.25,63,100.0
5523,B3,751.625,0.25,63,100.0
5524,B4,752.0,0.25,73,100.0
5525,E5,752.0,0.25,73,100.0
5526,C#4,752.125,1.5,86,100.0
5527,C#3,752.125,1.5,86,100.0
5528,C#6,752.5,1.5,97,100.0
5529,C#5,752.5,1.5,97,100.0
5530,G#4,752.625,0.25,63,100.0
5531,E4,752.625,0.25,63,100.0
5532,G#5,753.0,0.25,73,100.0
5533,E5,753.0,0.25,73,100.0
5534,G#4,753.125,0.25,63,100.0
5535,E4,753.125,0.25,63,100.0
5536,G#5,753.5,0.25,73,100.0
5537,E5,753.5,0.25,73,100.0
5538,B3,753.625,0.25,77,100.0
5539,B2,753.625,0.25,77,100.0
5540,B4,754.0,0.25,88,100.0
5541,B5,754.0,0.25,88,100.0
5542,E3,754.125,0.25,78,100.0
5543,A3,754.125,0.25,78,100.0
5544,C#3,754.125,0.25,78,100.0
5545,A2,754.125,0.25,78,100.0
5546,E5,754.5,0.25,89,100.0
5547,C#5,754.5,0.25,89,100.0
5548,A5,754.5,0.25,89,100.0
5549,A4,754.5,0.25,89,100.0
5550,G#3,754.625,0.25,72,100.0
5551,G#2,754.625,0.25,72,100.0
5552,G#5,755.0,0.25,84,100.0
5553,G#4,755.0,0.25,84,100.0
5554,G3,755.125,0.25,72,100.0
5555,G2,755.125,0.25,72,100.0
5556,G4,755.5,0.25,84,100.0
5557,G5,755.5,0.25,84,100.0
5558,F#2,755.5,333/1000,64,100.0
5559,A2,755.5,333/1000,64,100.0
5560,C#3,755.583,0.25,74,100.0
5561,F#3,755.583,0.25,74,100.0
5562,F#4,755.875,73/250,73,100.0
5563,A4,755.875,73/250,73,100.0
5564,C#5,755.958,0.25,84,100.0
5565,F#5,755.958,0.25,84,100.0
5566,F2,756.125,0.25,71,100.0
5567,F3,756.125,0.25,71,100.0
5568,F5,756.5,0.25,84,100.0
5569,F4,756.5,0.25,84,100.0
5570,E2,756.5,333/1000,53,100.0
5571,A2,756.5,333/1000,53,100.0
5572,C#3,756.583,0.25,63,100.0
5573,E3,756.583,0.25,63,100.0
5574,E4,756.875,333/1000,62,100.0
5575,A4,756.875,333/1000,62,100.0
5576,C#5,756.958,0.25,74,100.0
5577,E5,756.958,0.25,74,100.0
5578,E-2,757.125,0.25,68,100.0
5579,E-3,757.125,0.25,68,100.0
5580,E-4,757.5,0.25,82,100.0
5581,E-5,757.5,0.25,82,100.0
5582,E2,757.5,333/1000,53,100.0
5583,A2,757.5,333/1000,53,100.0
5584,C#3,757.583,0.25,58,100.0
5585,E3,757.583,0.25,58,100.0
5586,E4,757.875,333/1000,65,100.0
5587,A4,757.875,333/1000,65,100.0
5588,C#5,757.958,0.25,71,100.0
5589,E5,757.958,0.25,71,100.0
5590,E2,758.125,1.0,80,100.0
5591,E3,758.125,1.0,80,100.0
5592,E4,758.5,1.0,88,100.0
5593,E5,758.5,1.0,88,100.0
5594,G#3,758.625,0.25,57,100.0
5595,B3,758.625,0.25,57,100.0
5596,B4,759.0,0.25,73,100.0
5597,G#4,759.0,0.25,73,100.0
5598,G#2,759.125,1.0,72,100.0
5599,G#3,759.125,1.0,72,100.0
5600,G#4,759.5,1.0,81,100.0
5601,G#5,759.5,1.0,81,100.0
5602,B3,759.625,0.25,57,100.0
5603,E4,759.625,0.25,57,100.0
5604,E5,760.0,0.25,73,100.0
5605,B4,760.0,0.25,73,100.0
5606,C#3,760.125,1.5,86,100.0
5607,C#4,760.125,1.5,86,100.0
5608,C#5,760.5,1.5,97,100.0
5609,C#6,760.5,1.5,97,100.0
5610,E4,760.625,0.25,63,100.0
5611,G#4,760.625,0.25,63,100.0
5612,E5,761.0,0.25,73,100.0
5613,G#5,761.0,0.25,73,100.0
5614,G#4,761.125,0.25,63,100.0
5615,E4,761.125,0.25,63,100.0
5616,E5,761.5,0.25,73,100.0
5617,G#5,761.5,0.25,73,100.0
5618,B2,761.625,0.25,77,100.0
5619,B3,761.625,0.25,77,100.0
5620,B5,762.0,0.25,88,100.0
5621,B4,762.0,0.25,88,100.0
5622,A3,762.125,0.25,74,100.0
5623,E3,762.125,0.25,74,100.0
5624,A2,762.125,0.25,74,100.0
5625,C#3,762.125,0.25,74,100.0
5626,A5,762.5,0.25,83,100.0
5627,A4,762.5,0.25,83,100.0
5628,E5,762.5,0.25,83,100.0
5629,C#5,762.5,0.25,83,100.0
5630,G#3,762.625,0.25,72,100.0
5631,G#2,762.625,0.25,72,100.0
5632,G#5,763.0,0.25,84,100.0
5633,G#4,763.0,0.25,84,100.0
5634,F#2,763.125,0.25,72,100.0
5635,F#3,763.125,0.25,72,100.0
5636,F#5,763.5,0.25,84,100.0
5637,F#4,763.5,0.25,84,100.0
5638,E2,763.625,0.25,58,100.0
5639,C#3,763.625,0.25,58,100.0
5640,A2,763.625,0.25,58,100.0
5641,E3,763.625,0.25,58,100.0
5642,A4,764.0,0.25,66,100.0
5643,C#5,764.0,0.25,66,100.0
5644,E4,764.0,0.25,66,100.0
5645,E5,764.0,0.25,66,100.0
5646,A2,764.125,1.0,73,100.0
5647,C#3,764.125,1.0,73,100.0
5648,A3,764.125,1.0,73,100.0
5649,E3,764.125,1.0,73,100.0
5650,C#5,764.5,1.0,81,100.0
5651,E5,764.5,1.0,81,100.0
5652,A4,764.5,1.0,81,100.0
5653,A5,764.5,1.0,81,100.0
5654,C#3,765.125,1.0,67,100.0
5655,C#4,765.125,1.0,67,100.0
5656,A3,765.125,1.0,67,100.0
5657,E3,765.125,1.0,67,100.0
5658,C#6,765.5,1.0,74,100.0
5659,C#5,765.5,1.0,74,100.0
5660,A5,765.5,1.0,74,100.0
5661,E5,765.5,1.0,74,100.0
5662,E2,766.125,0.25,58,100.0
5663,E3,766.125,0.25,58,100.0
5664,D6,766.5,0.25,57,100.0
5665,G#6,766.5,0.25,57,100.0
5666,E3,766.625,0.5,74,100.0
5667,E4,766.625,0.5,74,100.0
5668,E7,766.75,0.25,58,100.0
5669,E6,767.0,0.25,59,100.0
5670,B6,767.0,0.25,59,100.0
5671,B3,767.125,0.25,58,100.0
5672,B2,767.125,0.25,58,100.0
5673,E7,767.25,0.25,61,100.0
5674,G#6,767.5,0.25,63,100.0
5675,D6,767.5,0.25,63,100.0
5676,G#4,767.625,0.5,77,100.0
5677,G#3,767.625,0.5,77,100.0
5678,E7,767.75,0.25,64,100.0
5679,E6,768.0,0.25,66,100.0
5680,B6,768.0,0.25,66,100.0
5681,E4,768.125,0.25,62,100.0
5682,E3,768.125,0.25,62,100.0
5683,E7,768.25,0.25,67,100.0
5684,D6,768.5,0.25,69,100.0
5685,G#6,768.5,0.25,69,100.0
5686,C#4,768.625,1.0,84,100.0
5687,C#5,768.625,1.0,84,100.0
5688,E7,768.75,0.25,70,100.0
5689,B6,769.0,0.25,72,100.0
5690,E6,769.0,0.25,72,100.0
5691,E7,769.25,0.25,72,100.0
5692,G#6,769.5,0.25,71,100.0
5693,D6,769.5,0.25,71,100.0
5694,B4,769.625,0.5,72,100.0
5695,B3,769.625,0.5,72,100.0
5696,E7,769.75,0.25,70,100.0
5697,B6,770.0,0.25,70,100.0
5698,E6,770.0,0.25,70,100.0
5699,A3,770.125,0.25,81,100.0
5700,A4,770.125,0.25,81,100.0
5701,E7,770.25,0.25,69,100.0
5702,C#6,770.5,0.25,74,100.0
5703,A6,770.5,0.25,74,100.0
5704,G#4,770.625,0.25,66,100.0
5705,G#3,770.625,0.25,66,100.0
5706,E7,770.75,0.25,67,100.0
5707,E6,771.0,0.25,70,100.0
5708,C#7,771.0,0.25,70,100.0
5709,G3,771.125,0.25,66,100.0
5710,G4,771.125,0.25,66,100.0
5711,E7,771.25,0.25,66,100.0
5712,C#6,771.5,0.25,71,100.0
5713,A6,771.5,0.25,71,100.0
5714,F#3,771.625,0.25,66,100.0
5715,F#4,771.625,0.25,66,100.0
5716,E7,771.75,0.25,65,100.0
5717,C#7,772.0,0.25,71,100.0
5718,E6,772.0,0.25,71,100.0
5719,F3,772.125,0.5,73,100.0
5720,F4,772.125,0.5,73,100.0
5721,E7,772.25,0.25,64,100.0
5722,C#6,772.5,0.25,72,100.0
5723,A6,772.5,0.25,72,100.0
5724,E3,772.625,0.5,66,100.0
5725,E4,772.625,0.5,66,100.0
5726,E7,772.75,0.25,63,100.0
5727,C#7,773.0,0.25,66,100.0
5728,E6,773.0,0.25,66,100.0
5729,C#4,773.125,0.25,66,100.0
5730,C#3,773.125,0.25,66,100.0
5731,E7,773.25,0.25,60,100.0
5732,A6,773.5,0.25,64,100.0
5733,C#6,773.5,0.25,64,100.0
5734,A2,773.625,0.25,66,100.0
5735,A3,773.625,0.25,66,100.0
5736,E7,773.75,0.25,59,100.0
5737,C#7,774.0,0.25,64,100.0
5738,E6,774.0,0.25,64,100.0
5739,E2,774.125,0.25,64,100.0
5740,E3,774.125,0.25,64,100.0
5741,E7,774.25,0.25,58,100.0
5742,D6,774.5,0.25,63,100.0
5743,G#6,774.5,0.25,63,100.0
5744,E4,774.625,0.5,81,100.0
5745,E3,774.625,0.5,81,100.0
5746,E7,774.75,0.25,63,100.0
5747,B6,775.0,0.25,64,100.0
5748,E6,775.0,0.25,64,100.0
5749,B3,775.125,0.25,61,100.0
5750,B2,775.125,0.25,61,100.0
5751,E7,775.25,0.25,65,100.0
5752,D6,775.5,0.25,65,100.0
5753,G#6,775.5,0.25,65,100.0
5754,G#3,775.625,0.5,80,100.0
5755,G#4,775.625,0.5,80,100.0
5756,E7,775.75,0.25,66,100.0
5757,B6,776.0,0.25,67,100.0
5758,E6,776.0,0.25,67,100.0
5759,E4,776.125,0.25,62,100.0
5760,E3,776.125,0.25,62,100.0
5761,E7,776.25,0.25,69,100.0
5762,D6,776.5,0.25,69,100.0
5763,G#6,776.5,0.25,69,100.0
5764,C#4,776.625,1.0,84,100.0
5765,C#5,776.625,1.0,84,100.0
5766,E7,776.75,0.25,70,100.0
5767,E6,777.0,0.25,72,100.0
5768,B6,777.0,0.25,72,100.0
5769,E7,777.25,0.25,72,100.0
5770,G#6,777.5,0.25,71,100.0
5771,D6,777.5,0.25,71,100.0
5772,B3,777.625,0.5,72,100.0
5773,B4,777.625,0.5,72,100.0
5774,E7,777.75,0.25,70,100.0
5775,B6,778.0,0.25,70,100.0
5776,E6,778.0,0.25,70,100.0
5777,A3,778.125,0.25,81,100.0
5778,A4,778.125,0.25,81,100.0
5779,E7,778.25,0.25,69,100.0
5780,C#6,778.5,0.25,74,100.0
5781,A6,778.5,0.25,74,100.0
5782,G#3,778.625,0.25,66,100.0
5783,G#4,778.625,0.25,66,100.0
5784,E7,778.75,0.25,67,100.0
5785,C#7,779.0,0.25,70,100.0
5786,E6,779.0,0.25,70,100.0
5787,G4,779.125,0.25,66,100.0
5788,G3,779.125,0.25,66,100.0
5789,E7,779.25,0.25,66,100.0
5790,C#6,779.5,0.25,71,100.0
5791,A6,779.5,0.25,71,100.0
5792,F#3,779.625,0.25,66,100.0
5793,F#4,779.625,0.25,66,100.0
5794,E7,779.75,0.25,65,100.0
5795,C#7,780.0,0.25,71,100.0
5796,E6,780.0,0.25,71,100.0
5797,F3,780.125,0.5,66,100.0
5798,F4,780.125,0.5,66,100.0
5799,E7,780.25,0.25,64,100.0
5800,A6,780.5,0.25,72,100.0
5801,C#6,780.5,0.25,72,100.0
5802,E3,780.625,0.5,63,100.0
5803,E4,780.625,0.5,63,100.0
5804,E7,780.75,0.25,61,100.0
5805,E6,781.0,0.25,64,100.0
5806,C#7,781.0,0.25,64,100.0
5807,E-4,781.125,0.25,62,100.0
5808,E-3,781.125,0.25,62,100.0
5809,E7,781.25,0.25,58,100.0
5810,C#6,781.5,0.25,60,100.0
5811,A6,781.5,0.25,60,100.0
5812,E4,781.625,0.25,60,100.0
5813,E3,781.625,0.25,60,100.0
5814,E7,781.75,0.25,54,100.0
5815,C#7,782.0,0.25,59,100.0
5816,E6,782.0,0.25,59,100.0
5817,G#3,782.125,0.25,61,100.0
5818,D4,782.125,0.25,61,100.0
5819,E4,782.125,0.25,61,100.0
5820,E7,782.25,0.25,52,100.0
5821,D7,782.5,0.125,71,100.0
5822,F#6,782.5,0.125,71,100.0
5823,E7,782.625,0.125,75,100.0
5824,E3,782.625,0.25,67,100.0
5825,F#7,782.75,83/1000,79,100.0
5826,G#3,783.125,0.25,61,100.0
5827,E4,783.125,0.25,61,100.0
5828,D4,783.125,0.25,61,100.0
5829,B6,783.5,0.125,71,100.0
5830,D6,783.5,0.125,71,100.0
5831,C#7,783.625,0.125,75,100.0
5832,B2,783.625,0.25,66,100.0
5833,D7,783.75,83/1000,80,100.0
5834,E4,784.125,0.25,61,100.0
5835,D4,784.125,0.25,61,100.0
5836,G#3,784.125,0.25,61,100.0
5837,B5,784.5,0.125,71,100.0
5838,G#6,784.5,0.125,71,100.0
5839,A6,784.625,0.125,75,100.0
5840,E2,784.625,0.25,67,100.0
5841,B6,784.75,83/1000,80,100.0
5842,E4,785.125,0.25,61,100.0
5843,D4,785.125,0.25,61,100.0
5844,G#3,785.125,0.25,61,100.0
5845,E6,785.5,0.125,71,100.0
5846,G#5,785.5,0.125,71,100.0
5847,F#6,785.625,0.125,75,100.0
5848,B2,785.625,0.25,66,100.0
5849,G#6,785.75,83/1000,80,100.0
5850,C#4,786.125,0.25,61,100.0
5851,E4,786.125,0.25,61,100.0
5852,A3,786.125,0.25,61,100.0
5853,A4,786.5,18/125,66,100.0
5854,E3,786.625,0.25,67,100.0
5855,B4,786.644,71/500,67,100.0
5856,C#5,786.785,18/125,68,100.0
5857,D5,786.927,18/125,69,100.0
5858,E5,787.071,71/500,70,100.0
5859,A3,787.125,0.25,61,100.0
5860,C#4,787.125,0.25,61,100.0
5861,E4,787.125,0.25,61,100.0
5862,F#5,787.212,18/125,71,100.0
5863,G#5,787.356,71/500,72,100.0
5864,A5,787.498,18/125,73,100.0
5865,C#3,787.625,0.25,66,100.0
5866,B5,787.64,18/125,74,100.0
5867,C#6,787.783,71/500,75,100.0
5868,D6,787.925,18/125,76,100.0
5869,E6,788.069,71/500,77,100.0
5870,E4,788.125,0.25,61,100.0
5871,C#4,788.125,0.25,61,100.0
5872,A3,788.125,0.25,61,100.0
5873,F#6,788.21,18/125,78,100.0
5874,G#6,788.352,37/250,79,100.0
5875,A6,788.5,18/125,80,100.0
5876,E2,788.625,0.25,67,100.0
5877,B6,788.644,71/500,81,100.0
5878,C#7,788.785,18/125,82,100.0
5879,D7,788.927,71/500,84,100.0
5880,E7,789.071,71/500,85,100.0
5881,E4,789.125,0.25,61,100.0
5882,A3,789.125,0.25,61,100.0
5883,C#4,789.125,0.25,61,100.0
5884,F#7,789.212,18/125,86,100.0
5885,G#7,789.356,71/500,87,100.0
5886,A7,789.5,0.25,88,100.0
5887,C#3,789.625,0.25,66,100.0
5888,A6,790.0,0.25,71,100.0
5889,C#7,790.0,0.25,71,100.0
5890,G#3,790.125,0.25,61,100.0
5891,E4,790.125,0.25,61,100.0
5892,D4,790.125,0.25,61,100.0
5893,F#6,790.5,0.125,71,100.0
5894,D7,790.5,0.125,71,100.0
5895,E7,790.625,0.125,75,100.0
5896,E3,790.625,0.25,67,100.0
5897,F#7,790.75,83/1000,79,100.0
5898,G#3,791.125,0.25,61,100.0
5899,D4,791.125,0.25,61,100.0
5900,E4,791.125,0.25,61,100.0
5901,B6,791.5,0.125,71,100.0
5902,D6,791.5,0.125,71,100.0
5903,C#7,791.625,0.125,75,100.0
5904,B2,791.625,0.25,66,100.0
5905,D7,791.75,83/1000,80,100.0
5906,D4,792.125,0.25,61,100.0
5907,E4,792.125,0.25,61,100.0
5908,G#3,792.125,0.25,61,100.0
5909,G#6,792.5,0.125,71,100.0
5910,B5,792.5,0.125,71,100.0
5911,A6,792.625,0.125,75,100.0
5912,E2,792.625,0.25,67,100.0
5913,B6,792.75,83/1000,80,100.0
5914,G#3,793.125,0.25,61,100.0
5915,D4,793.125,0.25,61,100.0
5916,E4,793.125,0.25,61,100.0
5917,E6,793.5,0.125,71,100.0
5918,G#5,793.5,0.125,71,100.0
5919,F#6,793.625,0.125,75,100.0
5920,B2,793.625,0.25,66,100.0
5921,G#6,793.75,83/1000,80,100.0
5922,A3,794.125,0.25,61,100.0
5923,E4,794.125,0.25,61,100.0
5924,C#4,794.125,0.25,61,100.0
5925,A4,794.5,18/125,66,100.0
5926,E3,794.625,0.25,67,100.0
5927,B4,794.644,71/500,67,100.0
5928,C#5,794.785,18/125,68,100.0
5929,D5,794.927,18/125,69,100.0
5930,E5,795.071,71/500,70,100.0
5931,C#4,795.125,0.25,61,100.0
5932,A3,795.125,0.25,61,100.0
5933,E4,795.125,0.25,61,100.0
5934,F#5,795.212,18/125,71,100.0
5935,G#5,795.356,71/500,72,100.0
5936,A5,795.498,18/125,73,100.0
5937,C#3,795.625,0.25,66,100.0
5938,B5,795.64,18/125,74,100.0
5939,C#6,795.783,71/500,75,100.0
5940,D6,795.925,18/125,76,100.0
5941,E6,796.069,71/500,77,100.0
5942,A3,796.125,0.25,61,100.0
5943,C#4,796.125,0.25,61,100.0
5944,E4,796.125,0.25,61,100.0
5945,F#6,796.21,18/125,78,100.0
5946,G#6,796.352,37/250,79,100.0
5947,A6,796.5,18/125,80,100.0
5948,E2,796.625,0.25,67,100.0
5949,B6,796.644,71/500,81,100.0
5950,C#7,796.785,18/125,82,100.0
5951,D7,796.927,71/500,84,100.0
5952,E7,797.071,71/500,85,100.0
5953,A3,797.125,0.25,61,100.0
5954,E4,797.125,0.25,61,100.0
5955,C#4,797.125,0.25,61,100.0
5956,F#7,797.212,18/125,86,100.0
5957,G#7,797.356,71/500,87,100.0
5958,A7,797.5,0.25,88,100.0
5959,C#3,797.625,0.25,66,100.0
5960,G#3,798.125,0.25,61,100.0
5961,C#4,798.125,0.25,61,100.0
5962,F4,798.125,0.25,61,100.0
5963,E-6,798.5,0.125,71,100.0
5964,B6,798.5,0.125,71,100.0
5965,C#7,798.625,0.125,75,100.0
5966,C#3,798.625,0.25,67,100.0
5967,E-7,798.75,83/1000,79,100.0
5968,G#3,799.125,0.25,61,100.0
5969,F4,799.125,0.25,61,100.0
5970,C#4,799.125,0.25,61,100.0
5971,B5,799.5,0.125,71,100.0
5972,G#6,799.5,0.125,71,100.0
5973,B-6,799.625,0.125,75,100.0
5974,G#2,799.625,0.25,66,100.0
5975,B6,799.75,83/1000,80,100.0
5976,G#3,800.125,0.25,61,100.0
5977,F4,800.125,0.25,61,100.0
5978,C#4,800.125,0.25,61,100.0
5979,G#5,800.5,0.125,71,100.0
5980,F6,800.5,0.125,71,100.0
5981,F#6,800.625,0.125,75,100.0
5982,C#2,800.625,0.25,67,100.0
5983,G#6,800.75,83/1000,80,100.0
5984,F4,801.125,0.25,61,100.0
5985,G#3,801.125,0.25,61,100.0
5986,C#4,801.125,0.25,61,100.0
5987,C#6,801.5,0.125,71,100.0
5988,F5,801.5,0.125,71,100.0
5989,E-6,801.625,0.125,75,100.0
5990,C#3,801.625,0.25,66,100.0
5991,F6,801.75,83/1000,80,100.0
5992,C#4,802.125,0.25,62,100.0
5993,B-3,802.125,0.25,62,100.0
5994,F#4,802.5,18/125,66,100.0
5995,C#3,802.625,0.25,67,100.0
5996,G#4,802.644,71/500,67,100.0
5997,B-4,802.785,18/125,68,100.0
5998,B4,802.927,18/125,69,100.0
5999,C#5,803.071,71/500,70,100.0
6000,B-3,803.125,0.25,61,100.0
6001,F#4,803.125,0.25,61,100.0
6002,C#4,803.125,0.25,61,100.0
6003,E-5,803.212,18/125,71,100.0
6004,F5,803.356,71/500,72,100.0
6005,F#5,803.498,18/125,73,100.0
6006,B-2,803.625,0.25,66,100.0
6007,G#5,803.64,18/125,74,100.0
6008,B-5,803.783,71/500,75,100.0
6009,B5,803.925,18/125,76,100.0
6010,C#6,804.069,71/500,77,100.0
6011,C#4,804.125,0.25,61,100.0
6012,B-3,804.125,0.25,61,100.0
6013,F#4,804.125,0.25,61,100.0
6014,E-6,804.21,18/125,78,100.0
6015,F6,804.352,37/250,79,100.0
6016,F#6,804.5,18/125,80,100.0
6017,C#2,804.625,0.25,67,100.0
6018,G#6,804.644,71/500,81,100.0
6019,B-6,804.785,18/125,82,100.0
6020,B6,804.927,71/500,84,100.0
6021,C#7,805.071,71/500,85,100.0
6022,C#4,805.125,0.25,61,100.0
6023,B-3,805.125,0.25,61,100.0
6024,F#4,805.125,0.25,61,100.0
6025,E-7,805.212,18/125,86,100.0
6026,F7,805.356,71/500,87,100.0
6027,F#7,805.5,0.25,88,100.0
6028,C#3,805.625,0.25,66,100.0
6029,F#6,806.0,0.25,71,100.0
6030,B-6,806.0,0.25,71,100.0
6031,F4,806.125,0.25,61,100.0
6032,G#3,806.125,0.25,61,100.0
6033,C#4,806.125,0.25,61,100.0
6034,B6,806.5,0.125,71,100.0
6035,E-6,806.5,0.125,71,100.0
6036,C#7,806.625,0.125,75,100.0
6037,C#3,806.625,0.25,67,100.0
6038,E-7,806.75,83/1000,79,100.0
6039,C#4,807.125,0.25,61,100.0
6040,F4,807.125,0.25,61,100.0
6041,G#3,807.125,0.25,61,100.0
6042,B5,807.5,0.125,71,100.0
6043,G#6,807.5,0.125,71,100.0
6044,B-6,807.625,0.125,75,100.0
6045,G#2,807.625,0.25,66,100.0
6046,B6,807.75,83/1000,80,100.0
6047,C#4,808.125,0.25,61,100.0
6048,G#3,808.125,0.25,61,100.0
6049,F4,808.125,0.25,61,100.0
6050,F6,808.5,0.125,71,100.0
6051,G#5,808.5,0.125,71,100.0
6052,F#6,808.625,0.125,75,100.0
6053,C#2,808.625,0.25,67,100.0
6054,G#6,808.75,83/1000,80,100.0
6055,C#4,809.125,0.25,61,100.0
6056,F4,809.125,0.25,61,100.0
6057,G#3,809.125,0.25,61,100.0
6058,C#6,809.5,0.125,71,100.0
6059,F5,809.5,0.125,71,100.0
6060,E-6,809.625,0.125,75,100.0
6061,C#3,809.625,0.25,66,100.0
6062,F6,809.75,83/1000,80,100.0
6063,C#4,810.125,0.25,62,100.0
6064,B-3,810.125,0.25,62,100.0
6065,F#4,810.5,18/125,66,100.0
6066,C#3,810.625,0.25,67,100.0
6067,G#4,810.644,71/500,67,100.0
6068,B-4,810.785,18/125,68,100.0
6069,B4,810.927,18/125,69,100.0
6070,C#5,811.071,71/500,70,100.0
6071,B-3,811.125,0.25,61,100.0
6072,C#4,811.125,0.25,61,100.0
6073,F#4,811.125,0.25,61,100.0
6074,E-5,811.212,18/125,71,100.0
6075,F5,811.356,71/500,72,100.0
6076,F#5,811.498,18/125,73,100.0
6077,B-2,811.625,0.25,66,100.0
6078,G#5,811.64,18/125,74,100.0
6079,B-5,811.783,71/500,75,100.0
6080,B5,811.925,18/125,76,100.0
6081,C#6,812.069,71/500,77,100.0
6082,F#4,812.125,0.25,61,100.0
6083,C#4,812.125,0.25,61,100.0
6084,B-3,812.125,0.25,61,100.0
6085,E-6,812.21,18/125,78,100.0
6086,F6,812.352,37/250,79,100.0
6087,F#6,812.5,1/5,80,100.0
6088,C#2,812.625,0.25,67,100.0
6089,G#6,812.7,1/5,81,100.0
6090,B-6,812.9,1/5,82,100.0
6091,B6,813.1,1/5,84,100.0
6092,C#4,813.125,0.25,61,100.0
6093,B-3,813.125,0.25,61,100.0
6094,F#4,813.125,0.25,61,100.0
6095,C#7,813.3,1/5,85,100.0
6096,E-7,813.5,1/5,88,100.0
6097,C#3,813.625,0.25,66,100.0
6098,C#7,813.7,1/5,86,100.0
6099,C7,813.9,1/5,80,100.0
6100,C#7,814.1,1/5,86,100.0
6101,G#3,814.125,0.25,42,100.0
6102,E-7,814.3,1/5,88,100.0
6103,F7,814.5,0.25,89,100.0
6104,C#4,814.625,0.25,37,100.0
6105,F4,814.625,0.25,37,100.0
6106,B4,814.625,0.25,37,100.0
6107,C#7,814.75,0.188,67,100.0
6108,C#7,815.0,47/200,83,100.0
6109,C#3,815.125,0.25,42,100.0
6110,C#7,815.25,0.188,64,100.0
6111,F6,815.5,0.25,82,100.0
6112,F4,815.625,0.25,37,100.0
6113,C#4,815.625,0.25,37,100.0
6114,B4,815.625,0.25,37,100.0
6115,C#7,815.75,0.188,66,100.0
6116,C#7,816.0,47/200,76,100.0
6117,G#4,816.125,0.25,40,100.0
6118,C5,816.125,0.25,40,100.0
6119,C#7,816.25,0.188,60,100.0
6120,F7,816.5,0.25,80,100.0
6121,C#5,816.625,0.25,37,100.0
6122,F4,816.625,0.25,37,100.0
6123,C#7,816.75,0.188,61,100.0
6124,C#7,817.0,47/200,78,100.0
6125,B4,817.125,0.75,48,100.0
6126,G#4,817.125,1.0,42,100.0
6127,C#7,817.25,0.188,60,100.0
6128,F6,817.5,0.25,77,100.0
6129,C#7,817.75,0.188,63,100.0
6130,C#5,817.875,0.25,37,100.0
6131,C#7,818.0,47/200,77,100.0
6132,F#3,818.125,0.25,42,100.0
6133,C#7,818.25,0.188,63,100.0
6134,F#7,818.5,0.25,85,100.0
6135,F#4,818.625,0.25,37,100.0
6136,C#4,818.625,0.25,37,100.0
6137,B-4,818.625,0.25,37,100.0
6138,C#7,818.75,0.188,64,100.0
6139,C#7,819.0,47/200,83,100.0
6140,C#3,819.125,0.25,42,100.0
6141,C#7,819.25,0.188,64,100.0
6142,F#6,819.5,0.25,82,100.0
6143,F#4,819.625,0.25,37,100.0
6144,B-4,819.625,0.25,37,100.0
6145,C#4,819.625,0.25,37,100.0
6146,C#7,819.75,0.188,66,100.0
6147,C#7,820.0,47/200,76,100.0
6148,C5,820.125,0.25,40,100.0
6149,A4,820.125,0.25,40,100.0
6150,C#7,820.25,0.188,60,100.0
6151,F#7,820.5,0.25,80,100.0
6152,C#5,820.625,0.25,37,100.0
6153,B-4,820.625,0.25,37,100.0
6154,C#7,820.75,0.188,61,100.0
6155,C#7,821.0,47/200,78,100.0
6156,B-4,821.125,0.75,48,100.0
6157,F#4,821.125,1.0,42,100.0
6158,C#7,821.25,0.188,60,100.0
6159,F#6,821.5,0.25,77,100.0
6160,C#7,821.75,0.188,63,100.0
6161,C#5,821.875,0.25,37,100.0
6162,C#7,822.0,47/200,77,100.0
6163,G#3,822.125,0.25,42,100.0
6164,C#7,822.25,0.188,63,100.0
6165,F7,822.5,0.25,87,100.0
6166,B4,822.625,0.25,37,100.0
6167,F4,822.625,0.25,37,100.0
6168,C#4,822.625,0.25,37,100.0
6169,C#7,822.75,0.188,67,100.0
6170,C#7,823.0,47/200,83,100.0
6171,C#3,823.125,0.25,42,100.0
6172,C#7,823.25,0.188,64,100.0
6173,F6,823.5,0.25,82,100.0
6174,F4,823.625,0.25,37,100.0
6175,B4,823.625,0.25,37,100.0
6176,C#4,823.625,0.25,37,100.0
6177,C#7,823.75,0.188,66,100.0
6178,C#7,824.0,47/200,76,100.0
6179,C5,824.125,0.25,40,100.0
6180,G#4,824.125,0.25,40,100.0
6181,C#7,824.25,0.188,60,100.0
6182,F7,824.5,0.25,80,100.0
6183,F4,824.625,0.25,37,100.0
6184,C#5,824.625,0.25,37,100.0
6185,C#7,824.75,0.188,61,100.0
6186,C#7,825.0,47/200,78,100.0
6187,B4,825.125,0.75,48,100.0
6188,G#4,825.125,1.0,42,100.0
6189,C#7,825.25,0.188,60,100.0
6190,F6,825.5,0.25,77,100.0
6191,C#7,825.75,0.188,63,100.0
6192,C#5,825.875,0.25,37,100.0
6193,C#7,826.0,47/200,77,100.0
6194,F#3,826.125,0.25,42,100.0
6195,C#7,826.25,0.188,63,100.0
6196,F#7,826.5,0.25,87,100.0
6197,F#4,826.625,0.25,37,100.0
6198,C#4,826.625,0.25,37,100.0
6199,B-4,826.625,0.25,37,100.0
6200,C#7,826.75,0.188,67,100.0
6201,C#7,827.0,47/200,83,100.0
6202,C#3,827.125,0.25,42,100.0
6203,C#7,827.25,0.188,64,100.0
6204,F#6,827.5,0.25,82,100.0
6205,B-4,827.625,0.25,37,100.0
6206,F#4,827.625,0.25,37,100.0
6207,C#4,827.625,0.25,37,100.0
6208,C#7,827.75,0.188,66,100.0
6209,C#7,828.0,47/200,76,100.0
6210,C5,828.125,0.25,40,100.0
6211,A4,828.125,0.25,40,100.0
6212,C#7,828.25,0.188,60,100.0
6213,F#7,828.5,0.25,80,100.0
6214,B-4,828.625,0.25,37,100.0
6215,C#5,828.625,0.25,37,100.0
6216,C#7,828.75,0.188,61,100.0
6217,C#7,829.0,47/200,78,100.0
6218,B-4,829.125,0.75,48,100.0
6219,F#4,829.125,1.0,42,100.0
6220,C#7,829.25,0.188,60,100.0
6221,F#6,829.5,0.25,77,100.0
6222,C#7,829.75,0.188,63,100.0
6223,C#5,829.875,0.25,37,100.0
6224,C#7,830.0,47/200,77,100.0
6225,G#3,830.125,0.25,42,100.0
6226,C#7,830.25,0.188,63,100.0
6227,F7,830.5,0.25,89,100.0
6228,C#4,830.625,0.25,37,100.0
6229,F4,830.625,0.25,37,100.0
6230,B4,830.625,0.25,37,100.0
6231,C#7,830.75,0.188,67,100.0
6232,C#7,831.0,47/200,83,100.0
6233,C#3,831.125,0.25,42,100.0
6234,C#7,831.25,0.188,64,100.0
6235,F6,831.5,0.25,82,100.0
6236,B4,831.625,0.25,37,100.0
6237,C#4,831.625,0.25,37,100.0
6238,F4,831.625,0.25,37,100.0
6239,C#7,831.75,0.188,66,100.0
6240,C#7,832.0,47/200,76,100.0
6241,G#4,832.125,0.25,40,100.0
6242,C5,832.125,0.25,40,100.0
6243,C#7,832.25,0.188,60,100.0
6244,F7,832.5,0.25,80,100.0
6245,C#5,832.625,0.25,37,100.0
6246,F4,832.625,0.25,37,100.0
6247,C#7,832.75,0.188,61,100.0
6248,C#7,833.0,47/200,78,100.0
6249,B4,833.125,0.75,48,100.0
6250,G#4,833.125,1.0,42,100.0
6251,C#7,833.25,0.188,60,100.0
6252,F6,833.5,0.25,77,100.0
6253,C#7,833.75,0.188,63,100.0
6254,C#5,833.875,0.25,37,100.0
6255,C#7,834.0,47/200,77,100.0
6256,C6,834.125,0.25,42,100.0
6257,G#5,834.125,0.25,42,100.0
6258,C#7,834.25,0.188,63,100.0
6259,F7,834.5,0.25,76,100.0
6260,C#6,834.625,0.25,42,100.0
6261,F5,834.625,0.25,42,100.0
6262,C#7,834.75,0.188,57,100.0
6263,C#7,835.0,47/200,74,100.0
6264,B5,835.125,0.75,56,100.0
6265,G#5,835.125,1.0,42,100.0
6266,C#7,835.25,0.188,57,100.0
6267,F6,835.5,0.25,73,100.0
6268,C#7,835.75,0.188,59,100.0
6269,C#6,835.875,0.25,37,100.0
6270,C#7,836.0,47/200,68,100.0
6271,C6,836.125,0.25,42,100.0
6272,G#5,836.125,0.25,42,100.0
6273,C#7,836.25,0.188,54,100.0
6274,F7,836.5,0.25,72,100.0
6275,F5,836.625,0.25,43,100.0
6276,C#6,836.625,0.25,43,100.0
6277,C#7,836.75,0.188,54,100.0
6278,C#7,837.0,47/200,70,100.0
6279,E-6,837.125,0.75,49,100.0
6280,B5,837.125,0.75,49,100.0
6281,C#7,837.25,0.188,54,100.0
6282,F6,837.5,0.25,69,100.0
6283,C#7,837.75,0.188,56,100.0
6284,G#5,837.875,0.25,38,100.0
6285,C#6,837.875,0.25,38,100.0
6286,C#7,838.0,47/200,69,100.0
6287,C#7,838.25,0.188,56,100.0
6288,F7,838.5,0.25,78,100.0
6289,C#7,838.75,0.188,60,100.0
6290,C#7,839.0,47/200,73,100.0
6291,C#7,839.25,0.188,56,100.0
6292,F6,839.5,0.25,71,100.0
6293,C#7,839.75,0.188,56,100.0
6294,C#7,840.0,47/200,65,100.0
6295,C#7,840.25,0.188,51,100.0
6296,F7,840.5,0.25,67,100.0
6297,C#7,840.75,0.188,50,100.0
6298,C#7,841.0,47/200,63,100.0
6299,C#7,841.25,0.188,49,100.0
6300,F6,841.5,0.25,62,100.0
6301,C#7,841.75,0.188,50,100.0
6302,C#7,842.0,47/200,60,100.0
6303,C#7,842.25,0.188,49,100.0
6304,F7,842.5,0.25,67,100.0
6305,C#7,842.75,0.188,51,100.0
6306,C#7,843.0,47/200,63,100.0
6307,C#7,843.25,0.188,48,100.0
6308,F6,843.5,0.25,60,100.0
6309,C#7,843.75,0.188,48,100.0
6310,C#7,844.0,47/200,55,100.0
6311,C#7,844.25,0.188,43,100.0
6312,F7,844.5,0.25,56,100.0
6313,C#7,844.75,0.188,42,100.0
6314,C#7,845.0,47/200,53,100.0
6315,C#7,845.25,0.188,41,100.0
6316,F6,845.5,0.25,52,100.0
6317,C#7,845.75,0.188,42,100.0
6318,C#7,846.0,47/200,50,100.0
6319,F#3,846.125,0.25,42,100.0
6320,C#7,846.25,0.188,40,100.0
6321,F#7,846.5,0.25,82,100.0
6322,F#4,846.625,0.25,32,100.0
6323,B-4,846.625,0.25,32,100.0
6324,C#4,846.625,0.25,32,100.0
6325,C#3,847.125,0.25,36,100.0
6326,F#5,847.5,0.5,58,100.0
6327,C#4,847.625,0.25,32,100.0
6328,B-4,847.625,0.25,32,100.0
6329,F#4,847.625,0.25,32,100.0
6330,F#3,848.125,0.25,42,100.0
6331,A5,848.5,2.0,67,100.0
6332,F#4,848.625,0.25,36,100.0
6333,C#4,848.625,0.25,36,100.0
6334,A4,848.625,0.25,36,100.0
6335,C#3,849.125,0.25,36,100.0
6336,C#4,849.625,0.25,32,100.0
6337,A4,849.625,0.25,32,100.0
6338,F#4,849.625,0.25,32,100.0
6339,G#3,850.125,0.25,42,100.0
6340,G#5,850.5,0.25,65,100.0
6341,C#4,850.625,0.25,36,100.0
6342,B4,850.625,0.25,36,100.0
6343,F4,850.625,0.25,36,100.0
6344,C#3,851.125,0.25,36,100.0
6345,A5,851.25,0.25,59,100.0
6346,B5,851.5,0.25,65,100.0
6347,B4,851.625,0.25,32,100.0
6348,F4,851.625,0.25,32,100.0
6349,C#4,851.625,0.25,32,100.0
6350,G#3,852.125,0.25,42,100.0
6351,D6,852.25,0.25,70,100.0
6352,C#6,852.5,0.25,65,100.0
6353,B4,852.625,0.25,36,100.0
6354,F4,852.625,0.25,36,100.0
6355,C#4,852.625,0.25,36,100.0
6356,C#3,853.125,0.25,36,100.0
6357,C#5,853.25,0.25,59,100.0
6358,E-5,853.5,0.25,65,100.0
6359,B4,853.625,0.25,32,100.0
6360,C#4,853.625,0.25,32,100.0
6361,F4,853.625,0.25,32,100.0
6362,F#3,854.125,0.25,42,100.0
6363,F5,854.25,0.125,60,100.0
6364,F#5,854.375,0.062,49,100.0
6365,G#5,854.438,0.062,50,100.0
6366,F#5,854.5,0.25,65,100.0
6367,C#4,854.625,0.25,36,100.0
6368,B-4,854.625,0.25,36,100.0
6369,F#4,854.625,0.25,36,100.0
6370,C#3,855.125,0.25,36,100.0
6371,F5,855.25,0.25,59,100.0
6372,F#5,855.5,0.25,65,100.0
6373,B-4,855.625,0.25,32,100.0
6374,F#4,855.625,0.25,32,100.0
6375,C#4,855.625,0.25,32,100.0
6376,F#3,856.125,0.25,42,100.0
6377,G#5,856.25,0.25,70,100.0
6378,A5,856.5,2.0,65,100.0
6379,C#4,856.625,0.25,36,100.0
6380,A4,856.625,0.25,36,100.0
6381,F#4,856.625,0.25,36,100.0
6382,C#3,857.125,0.25,36,100.0
6383,A4,857.625,0.25,32,100.0
6384,F#4,857.625,0.25,32,100.0
6385,C#4,857.625,0.25,32,100.0
6386,G#3,858.125,0.25,42,100.0
6387,G#5,858.5,0.25,65,100.0
6388,B4,858.625,0.25,36,100.0
6389,F4,858.625,0.25,36,100.0
6390,C#4,858.625,0.25,36,100.0
6391,C#3,859.125,0.25,36,100.0
6392,A5,859.25,0.25,59,100.0
6393,B5,859.5,0.25,65,100.0
6394,B4,859.625,0.25,32,100.0
6395,C#4,859.625,0.25,32,100.0
6396,F4,859.625,0.25,32,100.0
6397,G#3,860.125,0.25,42,100.0
6398,D6,860.25,0.25,70,100.0
6399,C#6,860.5,0.25,65,100.0
6400,C#4,860.625,0.25,36,100.0
6401,B4,860.625,0.25,36,100.0
6402,F4,860.625,0.25,36,100.0
6403,C#3,861.125,0.25,36,100.0
6404,C#5,861.25,0.25,59,100.0
6405,E-5,861.5,0.25,65,100.0
6406,B4,861.625,0.25,32,100.0
6407,F4,861.625,0.25,32,100.0
6408,C#4,861.625,0.25,32,100.0
6409,F#3,862.125,0.25,42,100.0
6410,F5,862.25,0.125,60,100.0
6411,F#5,862.375,0.062,49,100.0
6412,G#5,862.438,0.062,50,100.0
6413,F#5,862.5,0.25,65,100.0
6414,F#4,862.625,0.25,36,100.0
6415,C#4,862.625,0.25,36,100.0
6416,B-4,862.625,0.25,36,100.0
6417,C#3,863.125,0.25,36,100.0
6418,F5,863.25,0.25,59,100.0
6419,F#5,863.5,0.25,65,100.0
6420,B-4,863.625,0.25,32,100.0
6421,C#4,863.625,0.25,32,100.0
6422,F#4,863.625,0.25,32,100.0
6423,F#3,864.125,0.25,42,100.0
6424,G#5,864.25,0.125,70,100.0
6425,F#5,864.375,0.062,60,100.0
6426,G#5,864.438,0.062,60,100.0
6427,A5,864.5,0.5,65,100.0
6428,A4,864.625,0.25,36,100.0
6429,C#4,864.625,0.25,36,100.0
6430,F#4,864.625,0.25,36,100.0
6431,C#3,865.125,0.25,36,100.0
6432,A5,865.5,1.0,65,100.0
6433,F#4,865.625,0.25,32,100.0
6434,C#4,865.625,0.25,32,100.0
6435,A4,865.625,0.25,32,100.0
6436,G#3,866.125,0.25,42,100.0
6437,G#5,866.5,0.25,59,100.0
6438,F4,866.625,0.25,36,100.0
6439,C#4,866.625,0.25,36,100.0
6440,B4,866.625,0.25,36,100.0
6441,C#3,867.125,0.25,36,100.0
6442,A5,867.25,0.25,47,100.0
6443,B5,867.5,0.25,53,100.0
6444,C#4,867.625,0.25,32,100.0
6445,B4,867.625,0.25,32,100.0
6446,F4,867.625,0.25,32,100.0
6447,D6,868.25,0.25,57,100.0
6448,C#6,868.5,2.0,51,100.0
6449,C#2,870.125,0.188,39,100.0
6450,E-2,870.625,0.188,41,100.0
6451,C#4,870.75,0.188,48,100.0
6452,C#3,870.75,0.188,48,100.0
6453,F2,871.125,0.188,42,100.0
6454,E-3,871.25,0.188,49,100.0
6455,E-4,871.25,0.188,49,100.0
6456,F#2,871.625,0.188,44,100.0
6457,F3,871.75,0.188,51,100.0
6458,F4,871.75,0.188,51,100.0
6459,C#3,872.125,0.188,46,100.0
6460,G#2,872.125,0.188,46,100.0
6461,F#3,872.25,0.188,52,100.0
6462,F#4,872.25,0.188,52,100.0
6463,G2,872.625,0.188,44,100.0
6464,C#4,872.75,0.188,54,100.0
6465,G#4,872.75,0.188,54,100.0
6466,G#3,872.75,0.188,54,100.0
6467,G#2,873.125,0.188,43,100.0
6468,G3,873.25,0.188,53,100.0
6469,G4,873.25,0.188,53,100.0
6470,F2,873.625,0.188,41,100.0
6471,G#3,873.75,0.188,51,100.0
6472,G#4,873.75,0.188,51,100.0
6473,F#2,874.125,0.188,39,100.0
6474,F4,874.25,0.188,49,100.0
6475,F3,874.25,0.188,49,100.0
6476,G#2,874.625,0.188,41,100.0
6477,F#3,874.75,0.188,48,100.0
6478,F#4,874.75,0.188,48,100.0
6479,B-2,875.125,0.188,42,100.0
6480,G#4,875.25,0.188,49,100.0
6481,G#3,875.25,0.188,49,100.0
6482,B2,875.625,0.188,44,100.0
6483,B-4,875.75,0.188,51,100.0
6484,B-3,875.75,0.188,51,100.0
6485,C#3,876.125,0.188,46,100.0
6486,F#3,876.125,0.188,46,100.0
6487,B3,876.25,0.188,52,100.0
6488,B4,876.25,0.188,52,100.0
6489,C3,876.625,0.188,44,100.0
6490,C#5,876.75,0.188,54,100.0
6491,F#4,876.75,0.188,54,100.0
6492,C#4,876.75,0.188,54,100.0
6493,C#3,877.125,0.188,43,100.0
6494,C5,877.25,0.188,53,100.0
6495,C4,877.25,0.188,53,100.0
6496,B-2,877.625,0.188,41,100.0
6497,C#4,877.75,0.188,51,100.0
6498,C#5,877.75,0.188,51,100.0
6499,B2,878.125,0.188,49,100.0
6500,B-3,878.25,0.188,49,100.0
6501,B-4,878.25,0.188,49,100.0
6502,E-3,878.625,0.188,43,100.0
6503,B4,878.75,0.188,59,100.0
6504,B3,878.75,0.188,59,100.0
6505,G#2,879.125,0.188,50,100.0
6506,E-4,879.25,0.188,51,100.0
6507,E-5,879.25,0.188,51,100.0
6508,B2,879.625,0.188,46,100.0
6509,G#3,879.75,0.188,60,100.0
6510,G#4,879.75,0.188,60,100.0
6511,F2,880.125,0.188,50,100.0
6512,B4,880.25,0.188,55,100.0
6513,B3,880.25,0.188,55,100.0
6514,G#2,880.625,0.188,44,100.0
6515,F3,880.75,0.188,60,100.0
6516,F4,880.75,0.188,60,100.0
6517,C#2,881.125,0.188,51,100.0
6518,G#3,881.25,0.188,52,100.0
6519,G#4,881.25,0.188,52,100.0
6520,F2,881.625,0.188,47,100.0
6521,C#3,881.75,0.188,62,100.0
6522,C#4,881.75,0.188,62,100.0
6523,F#2,882.125,0.188,51,100.0
6524,F3,882.25,0.188,56,100.0
6525,F4,882.25,0.188,56,100.0
6526,B-2,882.625,0.188,45,100.0
6527,F#4,882.75,0.188,62,100.0
6528,F#3,882.75,0.188,62,100.0
6529,C#2,883.125,0.188,53,100.0
6530,B-3,883.25,0.188,53,100.0
6531,B-4,883.25,0.188,53,100.0
6532,F#2,883.625,0.188,48,100.0
6533,C#4,883.75,0.188,63,100.0
6534,C#3,883.75,0.188,63,100.0
6535,B-1,884.125,0.188,52,100.0
6536,F#4,884.25,0.188,58,100.0
6537,F#3,884.25,0.188,58,100.0
6538,C#2,884.625,0.188,46,100.0
6539,B-3,884.75,0.188,63,100.0
6540,B-2,884.75,0.188,63,100.0
6541,F#1,885.125,0.188,54,100.0
6542,F#2,885.125,0.188,54,100.0
6543,C#4,885.25,0.188,55,100.0
6544,C#3,885.25,0.188,55,100.0
6545,B-2,885.625,0.188,50,100.0
6546,B-1,885.625,0.188,50,100.0
6547,F#4,885.75,0.188,64,100.0
6548,F#3,885.75,0.188,64,100.0
6549,C#3,886.125,0.25,44,100.0
6550,C#2,886.125,0.25,44,100.0
6551,G#2,886.125,0.25,44,100.0
6552,F2,886.125,0.25,44,100.0
6553,B-4,886.25,0.188,59,100.0
6554,B-3,886.25,0.188,59,100.0
6555,E-2,886.625,0.25,47,100.0
6556,E-3,886.625,0.25,47,100.0
6557,F4,886.75,63/250,55,100.0
6558,G#4,886.75,63/250,55,100.0
6559,C#5,886.75,63/250,55,100.0
6560,C#4,886.75,63/250,55,100.0
6561,F3,887.125,63/250,48,100.0
6562,F2,887.125,63/250,48,100.0
6563,E-5,887.25,63/250,56,100.0
6564,E-4,887.25,63/250,56,100.0
6565,F#2,887.625,0.25,51,100.0
6566,F#3,887.625,0.25,51,100.0
6567,F5,887.75,63/250,59,100.0
6568,F4,887.75,63/250,59,100.0
6569,G#2,888.125,63/250,54,100.0
6570,G#3,888.125,63/250,54,100.0
6571,C#3,888.125,63/250,54,100.0
6572,F#5,888.25,0.25,61,100.0
6573,F#4,888.25,0.25,61,100.0
6574,F#5,888.5,1/500,61,100.0
6575,F#4,888.5,1/500,61,100.0
6576,G2,888.625,0.25,52,100.0
6577,G3,888.625,0.25,52,100.0
6578,C#5,888.75,63/250,64,100.0
6579,G#5,888.75,63/250,64,100.0
6580,G#4,888.75,63/250,64,100.0
6581,G#3,889.125,63/250,51,100.0
6582,G#2,889.125,63/250,51,100.0
6583,G5,889.25,0.25,63,100.0
6584,G4,889.25,0.25,63,100.0
6585,F2,889.625,0.25,49,100.0
6586,F3,889.625,0.25,49,100.0
6587,G#5,889.75,63/250,61,100.0
6588,C#5,889.75,63/250,61,100.0
6589,G#4,889.75,63/250,61,100.0
6590,F#2,890.125,0.25,47,100.0
6591,B-2,890.125,0.25,47,100.0
6592,F#3,890.125,0.25,47,100.0
6593,C#3,890.125,0.25,47,100.0
6594,F4,890.25,0.25,59,100.0
6595,F5,890.25,0.25,59,100.0
6596,F4,890.5,1/500,59,100.0
6597,F5,890.5,1/500,59,100.0
6598,G#2,890.625,0.25,50,100.0
6599,G#3,890.625,0.25,50,100.0
6600,C#5,890.75,63/250,58,100.0
6601,B-4,890.75,63/250,58,100.0
6602,F#4,890.75,63/250,58,100.0
6603,F#5,890.75,63/250,58,100.0
6604,B-3,891.125,63/250,52,100.0
6605,B-2,891.125,63/250,52,100.0
6606,G#4,891.25,63/250,60,100.0
6607,G#5,891.25,63/250,60,100.0
6608,B2,891.625,0.25,55,100.0
6609,B3,891.625,0.25,55,100.0
6610,B-5,891.75,63/250,63,100.0
6611,B-4,891.75,63/250,63,100.0
6612,C#4,892.125,63/250,57,100.0
6613,C#3,892.125,63/250,57,100.0
6614,F#3,892.125,63/250,57,100.0
6615,B4,892.25,0.25,65,100.0
6616,B5,892.25,0.25,65,100.0
6617,B4,892.5,1/500,65,100.0
6618,B5,892.5,1/500,65,100.0
6619,C3,892.625,0.25,55,100.0
6620,C4,892.625,0.25,55,100.0
6621,C#5,892.75,63/250,68,100.0
6622,F#5,892.75,63/250,68,100.0
6623,C#6,892.75,63/250,68,100.0
6624,C#4,893.125,0.25,55,100.0
6625,C#3,893.125,0.25,55,100.0
6626,F#3,893.125,0.25,55,100.0
6627,C6,893.25,63/250,67,100.0
6628,C5,893.25,63/250,67,100.0
6629,B-2,893.625,0.25,52,100.0
6630,B-3,893.625,0.25,52,100.0
6631,C#5,893.75,63/250,65,100.0
6632,F#5,893.75,63/250,65,100.0
6633,C#6,893.75,63/250,65,100.0
6634,C#3,894.125,0.25,50,100.0
6635,F3,894.125,0.25,50,100.0
6636,G#3,894.125,0.25,50,100.0
6637,C#4,894.125,0.25,50,100.0
6638,B-4,894.25,0.25,63,100.0
6639,B-5,894.25,0.25,63,100.0
6640,B-4,894.5,1/500,63,100.0
6641,B-5,894.5,1/500,63,100.0
6642,E-3,894.625,0.25,53,100.0
6643,E-4,894.625,0.25,53,100.0
6644,G#5,894.75,63/250,62,100.0
6645,F5,894.75,63/250,62,100.0
6646,C#6,894.75,63/250,62,100.0
6647,C#5,894.75,63/250,62,100.0
6648,F3,895.125,0.25,55,100.0
6649,F4,895.125,0.25,55,100.0
6650,E-6,895.25,63/250,64,100.0
6651,E-5,895.25,63/250,64,100.0
6652,F#3,895.625,0.25,58,100.0
6653,F#4,895.625,0.25,58,100.0
6654,F5,895.75,63/250,67,100.0
6655,F6,895.75,63/250,67,100.0
6656,C#4,896.125,0.25,61,100.0
6657,G#3,896.125,0.25,61,100.0
6658,G#4,896.125,0.25,61,100.0
6659,F#5,896.25,0.25,69,100.0
6660,F#6,896.25,0.25,69,100.0
6661,F#5,896.5,1/500,69,100.0
6662,F#6,896.5,1/500,69,100.0
6663,G4,896.625,0.25,58,100.0
6664,G3,896.625,0.25,58,100.0
6665,G#6,896.75,63/250,72,100.0
6666,G#5,896.75,63/250,72,100.0
6667,C#6,896.75,63/250,72,100.0
6668,C#4,897.125,63/250,58,100.0
6669,G#4,897.125,63/250,58,100.0
6670,G#3,897.125,63/250,58,100.0
6671,G5,897.25,0.25,71,100.0
6672,G6,897.25,0.25,71,100.0
6673,F4,897.625,63/250,55,100.0
6674,F3,897.625,63/250,55,100.0
6675,C#6,897.75,63/250,69,100.0
6676,G#6,897.75,63/250,69,100.0
6677,G#5,897.75,63/250,69,100.0
6678,F#4,898.125,0.25,53,100.0
6679,B-3,898.125,0.25,53,100.0
6680,F#3,898.125,0.25,53,100.0
6681,C#4,898.125,0.25,53,100.0
6682,F5,898.25,0.25,67,100.0
6683,F6,898.25,0.25,67,100.0
6684,F5,898.5,1/500,67,100.0
6685,F6,898.5,1/500,67,100.0
6686,G#4,898.625,63/250,56,100.0
6687,G#3,898.625,63/250,56,100.0
6688,B-5,898.75,63/250,65,100.0
6689,F#6,898.75,63/250,65,100.0
6690,C#6,898.75,63/250,65,100.0
6691,F#5,898.75,63/250,65,100.0
6692,B-4,899.125,63/250,58,100.0
6693,B-3,899.125,63/250,58,100.0
6694,G#6,899.25,63/250,67,100.0
6695,G#5,899.25,63/250,67,100.0
6696,B3,899.625,0.25,61,100.0
6697,B4,899.625,0.25,61,100.0
6698,B-5,899.75,63/250,70,100.0
6699,B-6,899.75,63/250,70,100.0
6700,C#5,900.125,63/250,64,100.0
6701,C#4,900.125,63/250,64,100.0
6702,F#4,900.125,63/250,64,100.0
6703,B5,900.25,0.25,72,100.0
6704,B6,900.25,0.25,72,100.0
6705,B5,900.5,1/500,72,100.0
6706,B6,900.5,1/500,72,100.0
6707,C5,900.625,63/250,62,100.0
6708,C4,900.625,63/250,62,100.0
6709,C#7,900.75,63/250,76,100.0
6710,F#6,900.75,63/250,76,100.0
6711,C#6,900.75,63/250,76,100.0
6712,C#5,901.125,0.25,61,100.0
6713,C#4,901.125,0.25,61,100.0
6714,F#4,901.125,0.25,61,100.0
6715,C6,901.25,63/250,75,100.0
6716,C7,901.25,63/250,75,100.0
6717,B-3,901.625,0.25,59,100.0
6718,B-4,901.625,0.25,59,100.0
6719,C#6,901.75,63/250,72,100.0
6720,F#6,901.75,63/250,72,100.0
6721,C#7,901.75,63/250,72,100.0
6722,B4,902.125,0.25,68,100.0
6723,B3,902.125,0.25,68,100.0
6724,B-6,902.25,0.25,70,100.0
6725,B-5,902.25,0.25,70,100.0
6726,B-6,902.5,1/500,70,100.0
6727,B-5,902.5,1/500,70,100.0
6728,E-4,902.625,0.25,59,100.0
6729,E-5,902.625,0.25,59,100.0
6730,B5,902.75,63/250,82,100.0
6731,B6,902.75,63/250,82,100.0
6732,G#4,903.125,63/250,69,100.0
6733,G#3,903.125,63/250,69,100.0
6734,E-6,903.25,63/250,71,100.0
6735,E-7,903.25,63/250,71,100.0
6736,B4,903.625,63/250,63,100.0
6737,B3,903.625,63/250,63,100.0
6738,G#5,903.75,63/250,82,100.0
6739,G#6,903.75,63/250,82,100.0
6740,F4,904.125,0.25,69,100.0
6741,F3,904.125,0.25,69,100.0
6742,B5,904.25,0.25,75,100.0
6743,B6,904.25,0.25,75,100.0
6744,B5,904.5,1/500,75,100.0
6745,B6,904.5,1/500,75,100.0
6746,G#4,904.625,63/250,60,100.0
6747,G#3,904.625,63/250,60,100.0
6748,F5,904.75,0.25,83,100.0
6749,F6,904.75,0.25,83,100.0
6750,C#3,905.125,0.25,71,100.0
6751,C#4,905.125,0.25,71,100.0
6752,G#6,905.25,63/250,72,100.0
6753,G#5,905.25,63/250,72,100.0
6754,F3,905.625,0.25,64,100.0
6755,F4,905.625,0.25,64,100.0
6756,C#5,905.75,63/250,84,100.0
6757,C#6,905.75,63/250,84,100.0
6758,B-3,906.125,0.25,70,100.0
6759,B-2,906.125,0.25,70,100.0
6760,F5,906.25,0.25,78,100.0
6761,F6,906.25,0.25,78,100.0
6762,C#4,906.625,63/250,61,100.0
6763,C#3,906.625,63/250,61,100.0
6764,B-4,906.75,0.25,85,100.0
6765,B-5,906.75,0.25,85,100.0
6766,F#2,907.125,0.25,72,100.0
6767,F#3,907.125,0.25,72,100.0
6768,C#5,907.25,63/250,74,100.0
6769,C#6,907.25,63/250,74,100.0
6770,B-2,907.625,0.25,66,100.0
6771,B-3,907.625,0.25,66,100.0
6772,F#4,907.75,63/250,86,100.0
6773,F#5,907.75,63/250,86,100.0
6774,E-2,908.125,0.25,72,100.0
6775,E-3,908.125,0.25,72,100.0
6776,B-5,908.25,0.25,79,100.0
6777,B-4,908.25,0.25,79,100.0
6778,F#2,908.625,0.25,62,100.0
6779,F#3,908.625,0.25,62,100.0
6780,E-5,908.75,0.25,86,100.0
6781,E-4,908.75,0.25,86,100.0
6782,B1,909.125,0.25,73,100.0
6783,B2,909.125,0.25,73,100.0
6784,F#4,909.25,63/250,75,100.0
6785,F#5,909.25,63/250,75,100.0
6786,E-3,909.625,0.25,68,100.0
6787,E-2,909.625,0.25,68,100.0
6788,B4,909.75,63/250,87,100.0
6789,B3,909.75,63/250,87,100.0
6790,G#1,910.125,0.25,73,100.0
6791,G#2,910.125,0.25,73,100.0
6792,E-4,910.25,0.25,81,100.0
6793,E-5,910.25,0.25,81,100.0
6794,B2,910.625,63/250,64,100.0
6795,B1,910.625,63/250,64,100.0
6796,G#3,910.75,0.25,88,100.0
6797,G#4,910.75,0.25,88,100.0
6798,F1,911.125,0.25,75,100.0
6799,F2,911.125,0.25,75,100.0
6800,B4,911.25,63/250,77,100.0
6801,B3,911.25,63/250,77,100.0
6802,G#1,911.625,0.25,69,100.0
6803,G#2,911.625,0.25,69,100.0
6804,F4,911.75,0.25,89,100.0
6805,F3,911.75,0.25,89,100.0
6806,C#2,912.125,0.25,74,100.0
6807,G#4,912.25,0.25,82,100.0
6808,G#3,912.25,0.25,82,100.0
6809,F2,912.625,0.25,65,100.0
6810,C#4,912.75,0.25,90,100.0
6811,C#3,912.75,0.25,90,100.0
6812,B-1,913.125,0.25,76,100.0
6813,F4,913.25,63/250,78,100.0
6814,F3,913.25,63/250,78,100.0
6815,C#2,913.625,0.25,70,100.0
6816,B-2,913.75,63/250,91,100.0
6817,B-3,913.75,63/250,91,100.0
6818,F#2,914.125,0.25,76,100.0
6819,F#1,914.125,0.25,76,100.0
6820,C#3,914.25,0.25,84,100.0
6821,C#4,914.25,0.25,84,100.0
6822,B-2,914.625,0.25,66,100.0
6823,B-1,914.625,0.25,66,100.0
6824,F#3,914.75,0.25,92,100.0
6825,E-2,915.125,0.25,77,100.0
6826,E-1,915.125,0.25,77,100.0
6827,B-3,915.25,63/250,80,100.0
6828,F#2,915.625,0.25,71,100.0
6829,F#1,915.625,0.25,71,100.0
6830,E-3,915.75,63/250,93,100.0
6831,B1,916.125,0.25,90,100.0
6832,B0,916.125,0.25,90,100.0
6833,F#3,916.25,0.25,85,100.0
6834,B2,916.5,0.5,103,100.0
6835,B2,917.875,0.188,64,100.0
6836,B1,917.875,0.188,64,100.0
6837,F#3,918.125,0.75,68,100.0
6838,B3,918.125,0.75,68,100.0
6839,E-3,918.125,0.75,68,100.0
6840,E-4,918.25,0.188,85,100.0
6841,B4,918.25,0.188,85,100.0
6842,E-5,918.25,0.188,85,100.0
6843,E-4,918.5,0.75,90,100.0
6844,E-5,918.5,0.75,90,100.0
6845,B4,918.5,0.75,90,100.0
6846,C#2,918.875,0.188,78,100.0
6847,C#3,918.875,0.188,78,100.0
6848,G#3,919.125,0.75,67,100.0
6849,C#4,919.125,0.75,67,100.0
6850,C#3,919.125,0.75,67,100.0
6851,F3,919.125,0.75,67,100.0
6852,F4,919.25,0.188,82,100.0
6853,F5,919.25,0.188,82,100.0
6854,B4,919.25,0.188,82,100.0
6855,G#4,919.25,0.188,82,100.0
6856,B4,919.5,0.75,89,100.0
6857,G#4,919.5,0.75,89,100.0
6858,F4,919.5,0.75,89,100.0
6859,F5,919.5,0.75,89,100.0
6860,F#2,919.875,0.188,91,100.0
6861,F#1,919.875,0.188,91,100.0
6862,F#3,920.125,2.0,67,100.0
6863,B-3,920.125,2.0,67,100.0
6864,C#3,920.125,2.0,67,100.0
6865,C#4,920.125,2.0,67,100.0
6866,B-4,920.25,0.188,84,100.0
6867,F#5,920.25,0.188,84,100.0
6868,C#5,920.25,0.188,84,100.0
6869,F#4,920.25,0.188,84,100.0
6870,B-4,920.5,2.0,89,100.0
6871,F#5,920.5,2.0,89,100.0
6872,C#5,920.5,2.0,89,100.0
6873,F#4,920.5,2.0,89,100.0
6874,F#4,922.125,0.25,67,100.0
6875,C#4,922.125,0.25,67,100.0
6876,B-4,922.125,0.25,67,100.0
6877,C#5,922.125,0.25,67,100.0
6878,F#6,922.5,0.25,89,100.0
6879,B-5,922.5,0.25,89,100.0
6880,F#5,922.5,0.25,89,100.0
6881,C#6,922.5,0.25,89,100.0
6882,B-5,923.125,0.25,67,100.0
6883,C#5,923.125,0.25,67,100.0
6884,C#6,923.125,0.25,67,100.0
6885,F#5,923.125,0.25,67,100.0
6886,B-6,923.5,0.25,89,100.0
6887,F#7,923.5,0.25,89,100.0
6888,F#6,923.5,0.25,89,100.0
6889,C#7,923.5,0.25,89,100.0
6890,F#2,924.125,0.25,81,100.0
6891,F#1,924.125,0.25,81,100.0
6892,F#4,924.5,0.25,99,100.0
6893,F#3,924.5,0.25,99,100.0
