,note_name,start_time,duration,velocity,tempo
0,E1,0.75,0.25,27,170.5
1,E-2,1.0,0.25,27,170.5
2,E2,1.25,0.25,27,170.5
3,E3,1.5,0.125,35,170.5
4,E1,1.75,0.25,28,170.5
5,E-2,2.0,0.25,28,170.5
6,E2,2.25,0.25,28,170.5
7,E3,2.5,0.125,35,170.5
8,E1,2.75,0.25,27,170.5
9,E-2,3.0,0.25,27,170.5
10,E2,3.25,0.25,27,170.5
11,E3,3.5,0.125,35,170.5
12,E1,3.75,0.25,27,170.5
13,E-2,4.0,0.25,27,170.5
14,E2,4.25,0.25,27,170.5
15,E3,4.5,0.125,35,170.5
16,E1,4.75,0.25,28,170.5
17,E-2,5.0,0.25,28,170.5
18,E2,5.25,0.25,28,170.5
19,E3,5.5,0.125,35,170.5
20,E1,5.75,0.25,27,170.5
21,E-2,6.0,0.25,27,170.5
22,E2,6.25,0.25,27,170.5
23,E3,6.5,0.125,35,170.5
24,E1,6.75,0.25,28,170.5
25,E-2,7.0,0.25,28,170.5
26,E2,7.25,0.25,28,170.5
27,E3,7.5,0.125,35,170.5
28,E1,7.75,0.25,27,170.5
29,E-2,8.0,0.25,27,170.5
30,E2,8.25,0.25,27,170.5
31,E3,8.5,0.125,35,170.5
32,F1,8.75,0.25,28,170.5
33,E2,9.0,0.25,28,170.5
34,F2,9.25,0.25,28,170.5
35,F3,9.5,0.125,35,170.5
36,F1,9.75,0.25,27,170.5
37,E2,10.0,0.25,27,170.5
38,F2,10.25,0.25,27,170.5
39,F3,10.5,0.125,35,170.5
40,F1,10.75,0.25,28,170.5
41,E2,11.0,0.25,28,170.5
42,F2,11.25,0.25,28,170.5
43,F3,11.5,0.125,35,170.5
44,F1,11.75,0.25,27,170.5
45,E2,12.0,0.25,28,170.5
46,F2,12.25,0.25,28,170.5
47,F3,12.5,0.125,35,170.5
48,F1,12.75,0.25,27,170.5
49,E2,13.0,0.25,27,170.5
50,F2,13.25,0.25,27,170.5
51,F3,13.5,0.125,36,170.5
52,F1,13.75,0.25,29,170.5
53,E2,14.0,0.25,29,170.5
54,F2,14.25,0.25,29,170.5
55,F3,14.5,0.125,38,170.5
56,F1,14.75,0.25,29,170.5
57,E2,15.0,0.25,30,170.5
58,F2,15.25,0.25,31,170.5
59,F3,15.5,0.125,39,170.5
60,F1,15.75,0.25,30,170.5
61,E2,16.0,0.25,32,170.5
62,F2,16.25,0.25,32,170.5
63,F3,16.5,0.125,41,170.5
64,G#1,16.75,0.25,32,170.5
65,G2,17.0,0.25,32,170.5
66,G#2,17.25,0.25,32,170.5
67,G#3,17.5,0.125,43,170.5
68,G#1,17.75,0.25,34,170.5
69,G2,18.0,0.25,34,170.5
70,G#2,18.25,0.25,34,170.5
71,G#3,18.5,0.125,44,170.5
72,G#1,18.75,0.25,34,170.5
73,G2,19.0,0.25,35,170.5
74,G#2,19.25,0.25,36,170.5
75,G#3,19.5,0.125,46,170.5
76,G#1,19.75,0.25,35,170.5
77,G2,20.0,0.25,37,170.5
78,G#2,20.25,0.25,37,170.5
79,G#3,20.5,0.125,48,170.5
80,A1,20.75,0.25,37,170.5
81,G#2,21.0,0.25,37,170.5
82,A2,21.25,0.25,37,170.5
83,A3,21.5,0.125,49,170.5
84,A1,21.75,0.25,39,170.5
85,G#2,22.0,0.25,39,170.5
86,A2,22.25,0.25,40,170.5
87,A3,22.5,0.125,51,170.5
88,A1,22.75,0.25,39,170.5
89,G#2,23.0,0.25,41,170.5
90,A2,23.25,0.25,41,170.5
91,A3,23.5,0.125,53,170.5
92,A1,23.75,0.25,40,170.5
93,G#2,24.0,0.25,42,170.5
94,A2,24.25,0.25,42,170.5
95,A3,24.5,0.125,55,170.5
96,B-1,24.75,0.25,42,170.5
97,A2,25.0,0.25,42,170.5
98,B-2,25.25,0.25,43,170.5
99,B-3,25.5,0.125,57,170.5
100,B-1,25.75,0.25,45,170.5
101,A2,26.0,0.25,45,170.5
102,B-2,26.25,0.25,45,170.5
103,B-3,26.5,0.125,58,170.5
104,C#2,26.75,0.25,45,170.5
105,C3,27.0,0.25,46,170.5
106,C#3,27.25,0.25,47,170.5
107,C#4,27.5,0.125,60,170.5
108,C#2,27.75,0.25,46,170.5
109,C3,28.0,0.25,48,170.5
110,C#3,28.25,0.25,48,170.5
111,C#4,28.5,0.125,62,170.5
112,D2,28.75,0.25,47,170.5
113,C#3,29.0,0.25,48,170.5
114,D3,29.25,0.25,48,170.5
115,D4,29.5,0.125,63,170.5
116,D2,29.75,0.25,50,170.5
117,C#3,30.0,0.25,50,170.5
118,D3,30.25,0.25,51,170.5
119,D4,30.5,0.125,65,170.5
120,E-2,30.75,0.25,50,170.5
121,D3,31.0,0.25,52,170.5
122,E-3,31.25,0.25,52,170.5
123,E-4,31.5,0.125,67,170.5
124,E-2,31.75,0.25,51,170.5
125,D3,32.0,0.25,53,170.5
126,E-3,32.25,0.25,53,170.5
127,E-4,32.5,0.125,68,170.5
128,E2,32.75,0.25,52,170.5
129,E-3,33.0,0.25,53,170.5
130,E3,33.25,0.25,53,170.5
131,E4,33.5,0.125,70,170.5
132,F2,33.75,0.25,55,170.5
133,E3,34.0,0.25,56,170.5
134,F3,34.25,0.25,56,170.5
135,F4,34.5,0.125,72,170.5
136,G#2,34.75,0.25,55,170.5
137,G3,35.0,0.25,57,170.5
138,G#3,35.25,0.25,57,170.5
139,G#4,35.5,0.125,73,170.5
140,A2,35.75,0.25,56,170.5
141,G#3,36.0,0.25,58,170.5
142,A3,36.25,0.25,59,170.5
143,A4,36.5,0.125,75,170.5
144,B-2,36.75,0.25,58,170.5
145,A3,37.0,0.25,58,170.5
146,B-3,37.25,0.25,58,170.5
147,B-4,37.5,0.125,77,170.5
148,C#3,37.75,0.25,61,170.5
149,C4,38.0,0.25,61,170.5
150,C#4,38.25,0.25,62,170.5
151,C#5,38.5,0.125,79,170.5
152,D3,38.75,0.25,60,170.5
153,C#4,39.0,0.25,63,170.5
154,D4,39.25,0.25,63,170.5
155,D5,39.5,0.125,81,170.5
156,E-3,39.75,0.25,62,170.5
157,D4,40.0,0.25,64,170.5
158,E-4,40.25,0.25,64,170.5
159,E-5,40.5,0.125,82,170.5
160,E3,40.75,0.25,63,170.5
161,E-4,41.0,0.25,65,170.5
162,E4,41.25,0.25,66,170.5
163,E5,41.5,0.125,84,170.5
164,F2,42.0,0.25,56,170.5
165,F3,42.0,0.25,56,170.5
166,F4,42.25,0.25,64,170.5
167,F5,42.25,0.25,64,170.5
168,G#2,42.5,0.25,58,170.5
169,G#3,42.5,0.25,58,170.5
170,G#4,42.75,0.25,65,170.5
171,G#5,42.75,0.25,65,170.5
172,A2,43.0,0.25,59,170.5
173,A3,43.0,0.25,59,170.5
174,A5,43.25,0.25,66,170.5
175,A4,43.25,0.25,66,170.5
176,B-2,43.5,0.25,61,170.5
177,B-3,43.5,0.25,61,170.5
178,B-5,43.75,0.25,67,170.5
179,B-4,43.75,0.25,67,170.5
180,C#3,44.0,0.25,63,170.5
181,C#4,44.0,0.25,63,170.5
182,C#6,44.25,0.25,68,170.5
183,C#5,44.25,0.25,68,170.5
184,D3,44.5,0.25,64,170.5
185,D4,44.5,0.25,64,170.5
186,D5,44.75,0.25,69,170.5
187,D6,44.75,0.25,69,170.5
188,E-3,45.0,0.25,66,170.5
189,E-4,45.0,0.25,66,170.5
190,E-6,45.25,0.25,71,170.5
191,E-5,45.25,0.25,71,170.5
192,E3,45.5,0.25,68,170.5
193,E4,45.5,0.25,68,170.5
194,E6,45.75,0.25,72,170.5
195,E5,45.75,0.25,72,170.5
196,F3,46.0,0.25,69,170.5
197,F4,46.0,0.25,69,170.5
198,F6,46.25,0.25,73,170.5
199,F5,46.25,0.25,73,170.5
200,G#4,46.5,0.25,71,170.5
201,G#3,46.5,0.25,71,170.5
202,G#6,46.75,0.25,74,170.5
203,G#5,46.75,0.25,74,170.5
204,A3,47.0,0.25,73,170.5
205,A4,47.0,0.25,73,170.5
206,A6,47.25,0.25,75,170.5
207,A5,47.25,0.25,75,170.5
208,B-4,47.5,0.25,74,170.5
209,B-3,47.5,0.25,74,170.5
210,B-6,47.75,0.25,76,170.5
211,B-5,47.75,0.25,76,170.5
212,C#4,48.0,0.25,76,170.5
213,C#5,48.0,0.25,76,170.5
214,C#7,48.25,0.25,77,170.5
215,C#6,48.25,0.25,77,170.5
216,D4,48.5,0.25,78,170.5
217,D5,48.5,0.25,78,170.5
218,D6,48.75,0.25,78,170.5
219,D7,48.75,0.25,78,170.5
220,E-4,49.0,0.25,79,170.5
221,E-5,49.0,0.25,79,170.5
222,E-6,49.25,0.25,80,170.5
223,E-7,49.25,0.25,80,170.5
224,E4,49.5,0.25,81,170.5
225,E5,49.5,0.25,81,170.5
226,E6,49.75,0.25,81,170.5
227,E7,49.75,0.25,81,170.5
228,F4,50.0,0.25,83,170.5
229,F5,50.0,0.25,83,170.5
230,F6,50.25,0.25,82,170.5
231,F7,50.25,0.25,82,170.5
232,G#4,55.0,0.5,72,170.5
233,G#3,55.0,0.5,72,170.5
234,B3,55.0,0.5,72,170.5
235,D4,55.0,0.5,72,170.5
236,F3,55.0,0.5,58,170.5
237,F2,55.0,0.5,58,170.5
238,B2,55.0,0.5,58,170.5
239,D3,55.0,0.5,58,170.5
240,A4,56.0,0.5,81,170.5
241,A3,56.0,0.5,81,170.5
242,C4,56.0,0.5,81,170.5
243,E-3,56.0,0.5,62,170.5
244,E-2,56.0,0.5,62,170.5
245,A2,56.0,0.5,62,170.5
246,C3,56.0,0.5,62,170.5
247,G#4,57.0,0.25,76,170.5
248,G#3,57.0,0.25,76,170.5
249,B4,57.5,0.25,70,170.5
250,B3,57.5,0.25,70,170.5
251,A4,58.0,0.5,75,170.5
252,A3,58.0,0.5,75,170.5
253,C#4,58.0,0.5,75,170.5
254,C#3,58.0,0.5,61,170.5
255,C#2,58.0,0.5,61,170.5
256,F#2,58.0,0.5,61,170.5
257,A2,58.0,0.5,61,170.5
258,G#4,59.0,0.5,74,170.5
259,G#3,59.0,0.5,74,170.5
260,B4,59.5,0.25,69,170.5
261,B3,59.5,0.25,69,170.5
262,E-4,60.0,0.25,75,170.5
263,A4,60.0,0.25,75,170.5
264,A3,60.0,0.25,75,170.5
265,C3,60.0,0.25,61,170.5
266,C2,60.0,0.25,61,170.5
267,F#2,60.0,0.25,61,170.5
268,A2,60.0,0.25,61,170.5
269,G#4,61.0,0.25,69,170.5
270,G#3,61.0,0.25,69,170.5
271,E-4,62.0,2.0,74,170.5
272,A4,62.0,2.0,74,170.5
273,A3,62.0,2.0,74,170.5
274,F#2,62.0,0.5,64,170.5
275,B2,62.0,0.5,64,170.5
276,B1,62.0,0.5,64,170.5
277,E-2,62.0,0.5,64,170.5
278,F#4,64.0,0.5,64,170.5
279,A4,64.0,0.5,64,170.5
280,A3,64.0,0.5,64,170.5
281,C#4,64.0,0.5,64,170.5
282,A2,64.0,0.5,52,170.5
283,A1,64.0,0.5,52,170.5
284,C#2,64.0,0.5,52,170.5
285,F#2,64.0,0.5,52,170.5
286,G#4,64.5,0.5,60,170.5
287,G#3,64.5,0.5,60,170.5
288,A4,65.0,0.5,66,170.5
289,A3,65.0,0.5,66,170.5
290,B4,65.5,0.5,71,170.5
291,B3,65.5,0.5,71,170.5
292,C5,66.0,2.0,71,170.5
293,C4,66.0,2.0,71,170.5
294,E-4,66.0,2.0,71,170.5
295,F#4,66.0,2.0,71,170.5
296,G#2,66.0,0.5,56,170.5
297,G#1,66.0,0.5,56,170.5
298,C2,66.0,0.5,56,170.5
299,E-2,66.0,0.5,56,170.5
300,C5,68.0,0.5,67,170.5
301,C4,68.0,0.5,67,170.5
302,E-4,68.0,0.5,67,170.5
303,G2,68.0,0.5,54,170.5
304,G1,68.0,0.5,54,170.5
305,C2,68.0,0.5,54,170.5
306,E-2,68.0,0.5,54,170.5
307,B4,68.5,0.5,66,170.5
308,B3,68.5,0.5,66,170.5
309,A4,69.0,0.5,68,170.5
310,A3,69.0,0.5,68,170.5
311,G#4,69.5,0.5,69,170.5
312,G#3,69.5,0.5,69,170.5
313,A4,70.0,1.5,74,170.5
314,E-4,70.0,1.5,74,170.5
315,A3,70.0,1.5,74,170.5
316,F#2,70.0,1.5,58,170.5
317,F#1,70.0,1.5,58,170.5
318,C2,70.0,1.5,58,170.5
319,E-2,70.0,1.5,58,170.5
320,C5,71.5,0.25,65,170.5
321,C4,71.5,0.25,65,170.5
322,C3,71.5,0.25,48,170.5
323,C2,71.5,0.25,48,170.5
324,B4,72.0,0.5,78,170.5
325,B3,72.0,0.5,78,170.5
326,B2,72.0,0.5,53,170.5
327,B1,72.0,0.5,53,170.5
328,A4,72.5,2/5,65,170.5
329,A3,72.5,2/5,65,170.5
330,A2,72.5,2/5,44,170.5
331,A1,72.5,2/5,44,170.5
332,G4,73.0,0.25,65,170.5
333,G3,73.0,0.25,65,170.5
334,G2,73.0,0.25,44,170.5
335,G1,73.0,0.25,44,170.5
336,B4,73.5,0.25,65,170.5
337,B3,73.5,0.25,65,170.5
338,B2,73.5,0.25,44,170.5
339,B1,73.5,0.25,44,170.5
340,A4,74.0,0.5,78,170.5
341,A3,74.0,0.5,78,170.5
342,A2,74.0,0.5,53,170.5
343,A1,74.0,0.5,53,170.5
344,G4,74.5,2/5,66,170.5
345,G3,74.5,2/5,66,170.5
346,G2,74.5,2/5,46,170.5
347,G1,74.5,2/5,46,170.5
348,F4,75.0,0.25,66,170.5
349,F3,75.0,0.25,66,170.5
350,F2,75.0,0.25,46,170.5
351,F1,75.0,0.25,46,170.5
352,A4,75.5,0.25,67,170.5
353,A3,75.5,0.25,67,170.5
354,A2,75.5,0.25,46,170.5
355,A1,75.5,0.25,46,170.5
356,G4,76.0,0.5,82,170.5
357,G3,76.0,0.5,82,170.5
358,G2,76.0,0.5,56,170.5
359,G1,76.0,0.5,56,170.5
360,F4,76.5,2/5,67,170.5
361,F3,76.5,2/5,67,170.5
362,F2,76.5,2/5,46,170.5
363,F1,76.5,2/5,46,170.5
364,E4,77.0,0.25,67,170.5
365,E3,77.0,0.25,67,170.5
366,E2,77.0,0.25,46,170.5
367,E1,77.0,0.25,46,170.5
368,G4,77.5,0.25,67,170.5
369,G3,77.5,0.25,67,170.5
370,G2,77.5,0.25,46,170.5
371,G1,77.5,0.25,46,170.5
372,F4,78.0,0.5,83,170.5
373,F3,78.0,0.5,83,170.5
374,F2,78.0,0.5,58,170.5
375,F1,78.0,0.5,58,170.5
376,E4,78.5,2/5,67,170.5
377,E3,78.5,2/5,67,170.5
378,E2,78.5,2/5,46,170.5
379,E1,78.5,2/5,46,170.5
380,E-4,79.0,0.25,67,170.5
381,E-3,79.0,0.25,67,170.5
382,E-2,79.0,0.25,46,170.5
383,E-1,79.0,0.25,46,170.5
384,F4,79.5,0.25,67,170.5
385,F3,79.5,0.25,67,170.5
386,F2,79.5,0.25,46,170.5
387,F1,79.5,0.25,46,170.5
388,F4,80.0,0.5,82,170.5
389,F3,80.0,0.5,82,170.5
390,F2,80.0,0.5,56,170.5
391,F1,80.0,0.5,56,170.5
392,E4,80.5,2/5,67,170.5
393,E3,80.5,2/5,67,170.5
394,E2,80.5,2/5,46,170.5
395,E1,80.5,2/5,46,170.5
396,E4,81.0,0.25,67,170.5
397,E3,81.0,0.25,67,170.5
398,E2,81.0,0.25,46,170.5
399,E1,81.0,0.25,46,170.5
400,E-4,81.5,0.25,67,170.5
401,E-3,81.5,0.25,67,170.5
402,E-2,81.5,0.25,46,170.5
403,E-1,81.5,0.25,46,170.5
404,F4,82.0,0.5,84,170.5
405,F3,82.0,0.5,84,170.5
406,F2,82.0,0.5,58,170.5
407,F1,82.0,0.5,58,170.5
408,E4,82.5,2/5,67,170.5
409,E3,82.5,2/5,67,170.5
410,E2,82.5,2/5,46,170.5
411,E1,82.5,2/5,46,170.5
412,E4,83.0,0.25,67,170.5
413,E3,83.0,0.25,67,170.5
414,E2,83.0,0.25,46,170.5
415,E1,83.0,0.25,46,170.5
416,E-4,83.5,0.25,67,170.5
417,E-3,83.5,0.25,67,170.5
418,E-2,83.5,0.25,46,170.5
419,E-1,83.5,0.25,46,170.5
420,E4,84.0,2.0,82,170.5
421,E3,84.0,2.0,82,170.5
422,E2,84.0,2.0,56,170.5
423,E1,84.0,2.0,56,170.5
424,E5,86.0,0.5,76,170.5
425,B4,86.0,0.5,76,170.5
426,G#4,86.0,0.5,76,170.5
427,E4,86.0,0.5,76,170.5
428,E3,86.0,0.5,52,170.5
429,B2,86.0,0.5,52,170.5
430,G#2,86.0,0.5,52,170.5
431,E2,86.0,0.5,52,170.5
432,E5,87.0,333/1000,78,170.5
433,E3,87.0,333/1000,70,170.5
434,F#5,87.333,333/1000,81,170.5
435,F#3,87.333,333/1000,74,170.5
436,G#5,87.667,333/1000,84,170.5
437,G#3,87.667,333/1000,78,170.5
438,A5,88.0,0.5,86,170.5
439,A4,88.0,0.5,86,170.5
440,A3,88.0,0.5,67,170.5
441,A2,88.0,0.5,67,170.5
442,B4,89.0,0.25,70,170.5
443,G#5,89.0,0.25,70,170.5
444,G#4,89.0,0.25,70,170.5
445,F3,89.0,0.25,54,170.5
446,F2,89.0,0.25,54,170.5
447,D5,89.5,0.25,63,170.5
448,B5,89.5,0.25,63,170.5
449,B4,89.5,0.25,63,170.5
450,A5,90.0,0.5,79,170.5
451,A4,90.0,0.5,79,170.5
452,C5,90.0,0.5,79,170.5
453,A3,90.0,0.5,67,170.5
454,A2,90.0,0.5,67,170.5
455,B4,91.0,0.25,68,170.5
456,G#5,91.0,0.25,68,170.5
457,G#4,91.0,0.25,68,170.5
458,E3,91.0,0.25,54,170.5
459,E2,91.0,0.25,54,170.5
460,D5,91.5,0.25,62,170.5
461,B5,91.5,0.25,62,170.5
462,B4,91.5,0.25,62,170.5
463,C5,92.0,0.25,79,170.5
464,A5,92.0,0.25,79,170.5
465,A4,92.0,0.25,79,170.5
466,A3,92.0,0.25,67,170.5
467,A2,92.0,0.25,67,170.5
468,B4,93.0,0.25,64,170.5
469,G#5,93.0,0.25,64,170.5
470,G#4,93.0,0.25,64,170.5
471,D3,93.0,0.25,54,170.5
472,D2,93.0,0.25,54,170.5
473,F2,93.0,0.25,54,170.5
474,C5,94.0,2.0,78,170.5
475,A5,94.0,2.0,78,170.5
476,A4,94.0,2.0,78,170.5
477,A3,94.0,2.0,65,170.5
478,A2,94.0,2.0,65,170.5
479,E3,94.0,2.0,65,170.5
480,C2,95.75,0.125,55,170.5
481,C3,95.875,0.125,65,170.5
482,F6,96.0,0.5,64,170.5
483,A6,96.0,0.5,64,170.5
484,A5,96.0,0.5,64,170.5
485,C6,96.0,0.5,64,170.5
486,A4,96.0,1.75,58,170.5
487,A3,96.0,1.75,58,170.5
488,C4,96.0,1.75,58,170.5
489,F4,96.0,1.75,58,170.5
490,G#6,96.5,0.5,60,170.5
491,G#5,96.5,0.5,60,170.5
492,A6,97.0,0.5,66,170.5
493,A5,97.0,0.5,66,170.5
494,B6,97.5,0.5,71,170.5
495,B5,97.5,0.5,71,170.5
496,C2,97.75,0.125,60,170.5
497,C3,97.875,0.125,61,170.5
498,C7,98.0,2.0,73,170.5
499,C6,98.0,2.0,73,170.5
500,E6,98.0,2.0,73,170.5
501,C5,98.0,1.75,66,170.5
502,C4,98.0,1.75,66,170.5
503,E4,98.0,1.75,66,170.5
504,G4,98.0,1.75,66,170.5
505,A1,99.75,0.125,58,170.5
506,A2,99.875,0.125,58,170.5
507,C7,100.0,0.5,67,170.5
508,C6,100.0,0.5,67,170.5
509,F6,100.0,0.5,67,170.5
510,F4,100.0,1.75,54,170.5
511,F3,100.0,1.75,54,170.5
512,D4,100.0,1.75,54,170.5
513,A3,100.0,1.75,54,170.5
514,B6,100.5,0.5,66,170.5
515,B5,100.5,0.5,66,170.5
516,A6,101.0,0.5,68,170.5
517,A5,101.0,0.5,68,170.5
518,G#6,101.5,0.5,70,170.5
519,G#5,101.5,0.5,70,170.5
520,A1,101.75,0.125,60,170.5
521,A2,101.875,0.125,61,170.5
522,C6,102.0,1.5,74,170.5
523,A6,102.0,1.5,74,170.5
524,E6,102.0,1.5,74,170.5
525,A5,102.0,1.5,74,170.5
526,A4,102.0,2.0,60,170.5
527,A3,102.0,2.0,60,170.5
528,C4,102.0,2.0,60,170.5
529,E4,102.0,2.0,60,170.5
530,C7,103.5,0.5,65,170.5
531,C6,103.5,0.5,65,170.5
532,B6,104.0,0.5,71,170.5
533,B5,104.0,0.5,71,170.5
534,B2,104.0,0.5,64,170.5
535,B1,104.0,0.5,64,170.5
536,A6,104.5,2/5,65,170.5
537,A5,104.5,2/5,65,170.5
538,G#6,105.0,0.25,65,170.5
539,G#5,105.0,0.25,65,170.5
540,G#4,105.0,0.25,53,170.5
541,B3,105.0,0.25,53,170.5
542,E4,105.0,0.25,53,170.5
543,B6,105.5,0.25,65,170.5
544,B5,105.5,0.25,65,170.5
545,B2,106.0,0.5,66,170.5
546,A6,106.0,0.5,71,170.5
547,A5,106.0,0.5,71,170.5
548,C#6,106.5,2/5,66,170.5
549,C#5,106.5,2/5,66,170.5
550,F#6,107.0,0.25,66,170.5
551,F#5,107.0,0.25,66,170.5
552,A4,107.0,0.25,55,170.5
553,F#4,107.0,0.25,55,170.5
554,C#4,107.0,0.25,55,170.5
555,A6,107.5,0.25,67,170.5
556,A5,107.5,0.25,67,170.5
557,B2,108.0,0.5,66,170.5
558,G#6,108.0,0.5,75,170.5
559,G#5,108.0,0.5,75,170.5
560,F#6,108.5,2/5,67,170.5
561,F#5,108.5,2/5,67,170.5
562,E6,109.0,0.25,67,170.5
563,E5,109.0,0.25,67,170.5
564,G#4,109.0,0.25,52,170.5
565,E4,109.0,0.25,52,170.5
566,B3,109.0,0.25,52,170.5
567,G#6,109.5,0.25,67,170.5
568,G#5,109.5,0.25,67,170.5
569,B2,110.0,0.5,66,170.5
570,F#6,110.0,0.5,76,170.5
571,F#5,110.0,0.5,76,170.5
572,E6,110.5,2/5,67,170.5
573,E5,110.5,2/5,67,170.5
574,E-6,111.0,0.25,67,170.5
575,E-5,111.0,0.25,67,170.5
576,F#4,111.0,0.25,50,170.5
577,E-4,111.0,0.25,50,170.5
578,A3,111.0,0.25,50,170.5
579,F#6,111.5,0.25,67,170.5
580,F#5,111.5,0.25,67,170.5
581,F#6,112.0,0.5,75,170.5
582,F#5,112.0,0.5,75,170.5
583,E4,112.0,0.5,58,170.5
584,B3,112.0,0.5,58,170.5
585,G#3,112.0,0.5,58,170.5
586,E3,112.0,0.5,58,170.5
587,E6,112.5,2/5,67,170.5
588,E5,112.5,2/5,67,170.5
589,E6,113.0,0.25,67,170.5
590,E5,113.0,0.25,67,170.5
591,F#4,113.0,0.25,50,170.5
592,C4,113.0,0.25,50,170.5
593,A3,113.0,0.25,50,170.5
594,E-6,113.5,0.25,67,170.5
595,E-5,113.5,0.25,67,170.5
596,F#6,114.0,0.5,78,170.5
597,F#5,114.0,0.5,78,170.5
598,E4,114.0,0.5,57,170.5
599,B3,114.0,0.5,57,170.5
600,G#3,114.0,0.5,57,170.5
601,E3,114.0,0.5,57,170.5
602,E6,114.5,2/5,67,170.5
603,E5,114.5,2/5,67,170.5
604,E6,115.0,0.25,67,170.5
605,E5,115.0,0.25,67,170.5
606,F#4,115.0,0.25,52,170.5
607,C4,115.0,0.25,52,170.5
608,A3,115.0,0.25,52,170.5
609,E-6,115.5,0.25,67,170.5
610,E-5,115.5,0.25,67,170.5
611,B5,116.0,2.0,78,170.5
612,G#5,116.0,2.0,78,170.5
613,E6,116.0,2.0,78,170.5
614,E5,116.0,2.0,78,170.5
615,E4,116.0,2.0,61,170.5
616,B3,116.0,2.0,61,170.5
617,G#3,116.0,2.0,61,170.5
618,E3,116.0,2.0,61,170.5
619,E7,118.0,0.5,76,170.5
620,B6,118.0,0.5,76,170.5
621,G#6,118.0,0.5,76,170.5
622,E6,118.0,0.5,76,170.5
623,E3,118.0,0.5,59,170.5
624,E2,118.0,0.5,59,170.5
625,G#2,118.0,0.5,59,170.5
626,B2,118.0,0.5,59,170.5
627,E4,119.75,0.25,81,170.5
628,E4,120.0,0.5,88,170.5
629,C#4,122.0,0.5,69,170.5
630,G#4,122.0,0.5,74,170.5
631,E4,122.0,0.5,74,170.5
632,G#3,124.0,3.75,69,170.5
633,B4,124.0,3.75,79,170.5
634,E-4,124.0,3.75,79,170.5
635,G#4,124.0,3.75,79,170.5
636,E5,127.75,0.25,72,170.5
637,E4,127.75,0.25,72,170.5
638,G#4,127.75,0.25,72,170.5
639,C#4,127.75,0.25,54,170.5
640,C#3,127.75,0.25,54,170.5
641,G#3,128.0,1.75,67,170.5
642,G#4,128.0,1.75,79,170.5
643,B4,128.0,1.75,79,170.5
644,E-4,128.0,1.75,79,170.5
645,E5,129.75,0.25,73,170.5
646,E4,129.75,0.25,73,170.5
647,G#4,129.75,0.25,73,170.5
648,C#4,129.75,0.25,56,170.5
649,C#3,129.75,0.25,56,170.5
650,G#3,130.0,1.75,68,170.5
651,B4,130.0,1.75,79,170.5
652,E-4,130.0,1.75,79,170.5
653,G#4,130.0,1.75,79,170.5
654,E5,131.75,0.25,72,170.5
655,E4,131.75,0.25,72,170.5
656,G#4,131.75,0.25,72,170.5
657,C#4,131.75,0.25,56,170.5
658,C#3,131.75,0.25,56,170.5
659,B4,132.0,4.0,79,170.5
660,E-4,132.0,4.0,79,170.5
661,G#4,132.0,4.0,79,170.5
662,G#3,132.0,0.5,78,170.5
663,G#2,132.0,0.5,78,170.5
664,G3,133.0,0.5,78,170.5
665,G2,133.0,0.5,78,170.5
666,F#3,134.0,0.5,78,170.5
667,F#2,134.0,0.5,78,170.5
668,F3,135.0,0.5,78,170.5
669,F2,135.0,0.5,78,170.5
670,E5,136.0,0.375,77,170.5
671,D4,136.0,0.375,77,170.5
672,E4,136.0,0.375,77,170.5
673,G#4,136.0,0.375,77,170.5
674,B4,136.0,0.375,77,170.5
675,E3,136.0,0.375,81,170.5
676,E2,136.0,0.375,81,170.5
677,E5,139.0,1.0,50,170.5
678,C6,140.0,0.5,57,170.5
679,A3,140.0,0.5,40,170.5
680,A4,140.333,333/1000,29,170.5
681,E6,140.5,0.5,50,170.5
682,B4,140.667,333/1000,31,170.5
683,C5,141.0,333/1000,32,170.5
684,C6,141.0,0.5,48,170.5
685,E5,141.0,0.5,48,170.5
686,B4,141.333,333/1000,33,170.5
687,F5,141.5,0.25,40,170.5
688,A4,141.667,333/1000,32,170.5
689,B5,142.0,0.5,55,170.5
690,E5,142.0,1.0,40,170.5
691,G3,142.0,0.5,40,170.5
692,G4,142.333,333/1000,32,170.5
693,D6,142.5,0.5,50,170.5
694,A4,142.667,333/1000,33,170.5
695,B4,143.0,333/1000,34,170.5
696,B5,143.0,0.5,46,170.5
697,D5,143.0,0.5,46,170.5
698,A4,143.333,333/1000,34,170.5
699,E5,143.5,0.25,40,170.5
700,G4,143.667,333/1000,31,170.5
701,A5,144.0,0.5,54,170.5
702,D5,144.0,1.0,40,170.5
703,F3,144.0,0.5,40,170.5
704,F4,144.333,333/1000,31,170.5
705,C6,144.5,0.5,50,170.5
706,G4,144.667,333/1000,33,170.5
707,A4,145.0,333/1000,34,170.5
708,A5,145.0,0.5,48,170.5
709,C5,145.0,0.5,48,170.5
710,G4,145.333,333/1000,34,170.5
711,D5,145.5,0.25,40,170.5
712,F4,145.667,333/1000,32,170.5
713,G#5,146.0,0.5,55,170.5
714,C5,146.0,1.0,40,170.5
715,E3,146.0,0.5,40,170.5
716,E4,146.333,333/1000,31,170.5
717,B5,146.5,0.5,50,170.5
718,F4,146.667,333/1000,32,170.5
719,G#4,147.0,333/1000,33,170.5
720,G#5,147.0,0.5,48,170.5
721,B4,147.0,0.5,48,170.5
722,F4,147.333,333/1000,32,170.5
723,C5,147.5,0.25,40,170.5
724,E4,147.667,333/1000,30,170.5
725,F5,148.0,0.5,54,170.5
726,B4,148.0,1.0,40,170.5
727,D3,148.0,0.5,40,170.5
728,D4,148.333,333/1000,30,170.5
729,A5,148.5,0.5,50,170.5
730,E4,148.667,333/1000,31,170.5
731,F4,149.0,333/1000,32,170.5
732,F5,149.0,0.5,47,170.5
733,A4,149.0,0.5,47,170.5
734,D4,149.333,333/1000,32,170.5
735,B4,149.5,0.25,40,170.5
736,C4,149.667,333/1000,30,170.5
737,E5,150.0,1.5,63,170.5
738,G#4,150.0,0.5,48,170.5
739,E3,150.0,1.0,43,170.5
740,B3,150.0,0.5,43,170.5
741,B4,150.5,0.5,45,170.5
742,E4,150.5,0.5,40,170.5
743,G#4,151.0,0.5,50,170.5
744,B3,151.0,0.5,45,170.5
745,E4,151.5,0.5,40,170.5
746,B4,151.5,0.5,52,170.5
747,G#5,151.5,0.5,52,170.5
748,E5,152.0,1.5,66,170.5
749,G#4,152.0,0.5,48,170.5
750,E3,152.0,1.0,43,170.5
751,B3,152.0,0.5,43,170.5
752,B4,152.5,0.5,45,170.5
753,E4,152.5,0.5,40,170.5
754,G#4,153.0,0.5,50,170.5
755,B3,153.0,0.5,45,170.5
756,E4,153.5,0.5,40,170.5
757,B4,153.5,0.5,51,170.5
758,G#5,153.5,0.5,51,170.5
759,E3,154.0,1.0,43,170.5
760,B3,154.0,0.5,43,170.5
761,E5,154.0,0.5,62,170.5
762,G#4,154.0,0.5,62,170.5
763,E4,154.5,0.25,40,170.5
764,B4,154.5,0.25,60,170.5
765,G#5,154.5,0.25,60,170.5
766,E3,155.0,1.0,43,170.5
767,B3,155.0,0.5,45,170.5
768,E5,155.0,0.5,62,170.5
769,G#4,155.0,0.5,62,170.5
770,E4,155.5,0.25,40,170.5
771,G#5,155.5,0.25,57,170.5
772,B4,155.5,0.25,57,170.5
773,E5,156.0,0.25,71,170.5
774,G#4,156.0,1.0,60,170.5
775,B3,156.0,0.25,52,170.5
776,E3,156.0,0.25,52,170.5
777,B4,156.5,0.25,62,170.5
778,G#4,157.0,1.0,63,170.5
779,E4,157.0,0.25,53,170.5
780,E3,157.0,0.25,53,170.5
781,G#3,157.0,0.25,53,170.5
782,B3,157.0,0.25,53,170.5
783,B4,157.5,0.25,64,170.5
784,E5,158.0,0.25,67,170.5
785,E4,158.0,1.0,63,170.5
786,G#3,158.0,0.25,62,170.5
787,B3,158.0,0.25,62,170.5
788,B2,158.0,0.25,62,170.5
789,E3,158.0,0.25,62,170.5
790,B4,158.5,0.25,72,170.5
791,E5,159.0,0.25,73,170.5
792,E4,159.0,0.25,73,170.5
793,G#3,159.0,0.25,66,170.5
794,G#2,159.0,0.25,66,170.5
795,B2,159.0,0.25,66,170.5
796,E3,159.0,0.25,66,170.5
797,G#5,159.5,0.25,74,170.5
798,G#4,159.5,0.25,74,170.5
799,B4,160.0,2.0,82,170.5
800,E5,160.0,2.0,82,170.5
801,B5,160.0,2.0,82,170.5
802,G#5,160.0,2.0,82,170.5
803,B2,160.0,2.0,62,170.5
804,G#2,160.0,2.0,62,170.5
805,E3,160.0,2.0,62,170.5
806,E2,160.0,2.0,62,170.5
807,E6,162.0,0.5,86,170.5
808,E5,162.0,0.5,86,170.5
809,G#5,162.0,0.5,86,170.5
810,B5,162.0,0.5,86,170.5
811,E4,162.0,0.5,65,170.5
812,B3,162.0,0.5,65,170.5
813,G#3,162.0,0.5,65,170.5
814,E3,162.0,0.5,65,170.5
815,E5,163.0,333/1000,75,170.5
816,E3,163.0,333/1000,67,170.5
817,F#5,163.333,333/1000,78,170.5
818,F#3,163.333,333/1000,71,170.5
819,G#5,163.667,333/1000,80,170.5
820,G#3,163.667,333/1000,75,170.5
821,C5,164.0,0.5,81,170.5
822,A4,164.0,0.5,81,170.5
823,A5,164.0,0.5,81,170.5
824,A3,164.0,0.5,64,170.5
825,A2,164.0,0.5,64,170.5
826,B4,165.0,0.25,67,170.5
827,G#4,165.0,0.25,67,170.5
828,G#5,165.0,0.25,67,170.5
829,F3,165.0,0.25,52,170.5
830,F2,165.0,0.25,52,170.5
831,B4,165.5,0.25,61,170.5
832,B5,165.5,0.25,61,170.5
833,D5,165.5,0.25,61,170.5
834,A4,166.0,0.5,75,170.5
835,A5,166.0,0.5,75,170.5
836,C5,166.0,0.5,75,170.5
837,A3,166.0,0.5,64,170.5
838,A2,166.0,0.5,64,170.5
839,B4,167.0,0.25,65,170.5
840,G#4,167.0,0.25,65,170.5
841,G#5,167.0,0.25,65,170.5
842,E3,167.0,0.25,52,170.5
843,E2,167.0,0.25,52,170.5
844,D5,167.5,0.25,60,170.5
845,B5,167.5,0.25,60,170.5
846,B4,167.5,0.25,60,170.5
847,A4,168.0,0.25,75,170.5
848,A5,168.0,0.25,75,170.5
849,C5,168.0,0.25,75,170.5
850,A3,168.0,0.25,64,170.5
851,A2,168.0,0.25,64,170.5
852,B4,169.0,0.25,65,170.5
853,G#4,169.0,0.25,65,170.5
854,G#5,169.0,0.25,65,170.5
855,D3,169.0,0.25,54,170.5
856,D2,169.0,0.25,54,170.5
857,F2,169.0,0.25,54,170.5
858,A4,170.0,2.0,74,170.5
859,C5,170.0,2.0,74,170.5
860,A5,170.0,2.0,74,170.5
861,A3,170.0,2.0,63,170.5
862,A2,170.0,2.0,63,170.5
863,E3,170.0,2.0,63,170.5
864,A6,172.0,0.25,69,170.5
865,A5,172.0,0.25,69,170.5
866,B6,172.5,0.25,73,170.5
867,B5,172.5,0.25,73,170.5
868,C7,173.0,1.5,79,170.5
869,C6,173.0,1.5,79,170.5
870,A4,173.0,0.25,69,170.5
871,A3,173.0,0.25,69,170.5
872,B4,173.5,0.25,73,170.5
873,B3,173.5,0.25,73,170.5
874,C5,174.0,1.5,79,170.5
875,C4,174.0,1.5,79,170.5
876,B6,174.5,0.25,68,170.5
877,B5,174.5,0.25,68,170.5
878,A6,175.0,1.0,80,170.5
879,A5,175.0,1.0,80,170.5
880,B4,175.5,0.25,68,170.5
881,B3,175.5,0.25,68,170.5
882,A6,176.0,0.5,80,170.5
883,A5,176.0,0.5,80,170.5
884,A4,176.0,1.5,80,170.5
885,A3,176.0,1.5,80,170.5
886,G6,176.5,0.25,69,170.5
887,G5,176.5,0.25,69,170.5
888,F6,177.0,1.5,81,170.5
889,F5,177.0,1.5,81,170.5
890,G4,177.5,0.25,69,170.5
891,G3,177.5,0.25,69,170.5
892,F4,178.0,1.5,81,170.5
893,F3,178.0,1.5,81,170.5
894,E6,178.5,0.25,74,170.5
895,E5,178.5,0.25,74,170.5
896,D6,179.0,0.25,74,170.5
897,D5,179.0,0.25,74,170.5
898,C#6,179.5,0.25,74,170.5
899,C#5,179.5,0.25,74,170.5
900,E3,179.5,0.25,75,170.5
901,E4,179.5,0.25,75,170.5
902,F5,180.0,0.5,81,170.5
903,D5,180.0,0.5,81,170.5
904,D6,180.0,0.5,81,170.5
905,D4,180.0,0.5,64,170.5
906,D3,180.0,0.5,64,170.5
907,E5,181.0,0.25,67,170.5
908,C#5,181.0,0.25,67,170.5
909,C#6,181.0,0.25,67,170.5
910,B-3,181.0,0.25,52,170.5
911,B-2,181.0,0.25,52,170.5
912,E5,181.5,0.25,61,170.5
913,E6,181.5,0.25,61,170.5
914,G5,181.5,0.25,61,170.5
915,D5,182.0,0.5,75,170.5
916,D6,182.0,0.5,75,170.5
917,F5,182.0,0.5,75,170.5
918,D4,182.0,0.5,64,170.5
919,D3,182.0,0.5,64,170.5
920,E5,183.0,0.25,65,170.5
921,C#5,183.0,0.25,65,170.5
922,C#6,183.0,0.25,65,170.5
923,A3,183.0,0.25,52,170.5
924,A2,183.0,0.25,52,170.5
925,G5,183.5,0.25,60,170.5
926,E6,183.5,0.25,60,170.5
927,E5,183.5,0.25,60,170.5
928,D5,184.0,0.25,75,170.5
929,D6,184.0,0.25,75,170.5
930,F5,184.0,0.25,75,170.5
931,D4,184.0,0.25,64,170.5
932,D3,184.0,0.25,64,170.5
933,E5,185.0,0.25,65,170.5
934,C#5,185.0,0.25,65,170.5
935,C#6,185.0,0.25,65,170.5
936,G3,185.0,0.25,54,170.5
937,G2,185.0,0.25,54,170.5
938,B-2,185.0,0.25,54,170.5
939,D5,186.0,2.0,78,170.5
940,F5,186.0,2.0,78,170.5
941,D6,186.0,2.0,78,170.5
942,D4,186.0,2.0,65,170.5
943,D3,186.0,2.0,65,170.5
944,A3,186.0,2.0,65,170.5
945,D7,188.0,0.25,69,170.5
946,D6,188.0,0.25,69,170.5
947,E7,188.5,0.25,73,170.5
948,E6,188.5,0.25,73,170.5
949,F7,189.0,1.5,76,170.5
950,F6,189.0,1.5,76,170.5
951,D5,189.0,0.25,69,170.5
952,D4,189.0,0.25,69,170.5
953,E5,189.5,0.25,73,170.5
954,E4,189.5,0.25,73,170.5
955,F5,190.0,1.5,76,170.5
956,F4,190.0,1.5,76,170.5
957,E7,190.5,0.25,68,170.5
958,E6,190.5,0.25,68,170.5
959,D7,191.0,1.0,76,170.5
960,D6,191.0,1.0,76,170.5
961,E5,191.5,0.25,68,170.5
962,E4,191.5,0.25,68,170.5
963,D7,192.0,0.5,76,170.5
964,D6,192.0,0.5,76,170.5
965,D5,192.0,1.5,76,170.5
966,D4,192.0,1.5,76,170.5
967,C7,192.5,0.25,69,170.5
968,C6,192.5,0.25,69,170.5
969,B6,193.0,1.5,78,170.5
970,B5,193.0,1.5,78,170.5
971,C5,193.5,0.25,69,170.5
972,C4,193.5,0.25,69,170.5
973,B4,194.0,1.5,78,170.5
974,B3,194.0,1.5,78,170.5
975,A6,194.5,0.25,71,170.5
976,A5,194.5,0.25,71,170.5
977,G#6,195.0,0.25,71,170.5
978,G#5,195.0,0.25,71,170.5
979,A6,195.5,0.25,71,170.5
980,A5,195.5,0.25,71,170.5
981,A4,195.5,0.25,64,170.5
982,A3,195.5,0.25,64,170.5
983,G#6,196.0,0.25,73,170.5
984,G#5,196.0,0.25,73,170.5
985,G#4,196.0,0.25,66,170.5
986,G#3,196.0,0.25,66,170.5
987,B6,196.5,0.25,78,170.5
988,B5,196.5,0.25,78,170.5
989,B4,196.5,0.25,71,170.5
990,B3,196.5,0.25,71,170.5
991,E7,197.0,0.5,81,170.5
992,E6,197.0,0.5,81,170.5
993,E5,197.0,0.5,74,170.5
994,E4,197.0,0.5,74,170.5
995,E4,198.0,2.0,77,170.5
996,G#3,198.0,2.0,77,170.5
997,B3,198.0,2.0,77,170.5
998,E3,198.0,2.0,62,170.5
999,E2,198.0,2.0,62,170.5
1000,G#2,198.0,2.0,62,170.5
1001,B2,198.0,2.0,62,170.5
1002,A6,200.0,0.25,76,170.5
1003,A5,200.0,0.25,76,170.5
1004,A4,200.0,0.25,70,170.5
1005,A3,200.0,0.25,70,170.5
1006,C7,200.5,0.25,81,170.5
1007,C6,200.5,0.25,81,170.5
1008,C5,200.5,0.25,74,170.5
1009,C4,200.5,0.25,74,170.5
1010,E7,201.0,0.5,84,170.5
1011,E6,201.0,0.5,84,170.5
1012,E5,201.0,0.5,78,170.5
1013,E4,201.0,0.5,78,170.5
1014,E4,202.0,2.0,77,170.5
1015,A3,202.0,2.0,77,170.5
1016,C4,202.0,2.0,77,170.5
1017,E3,202.0,2.0,62,170.5
1018,E2,202.0,2.0,62,170.5
1019,A2,202.0,2.0,62,170.5
1020,C3,202.0,2.0,62,170.5
1021,F4,204.0,1.0,85,170.5
1022,G#5,204.0,0.25,68,170.5
1023,B4,204.0,0.25,68,170.5
1024,B5,204.5,0.25,60,170.5
1025,D5,204.5,0.25,60,170.5
1026,E4,205.0,0.25,73,170.5
1027,G#5,205.0,0.25,68,170.5
1028,B4,205.0,0.25,68,170.5
1029,B5,205.5,0.25,62,170.5
1030,D5,205.5,0.25,62,170.5
1031,F3,206.0,1.0,84,170.5
1032,B2,206.0,0.25,68,170.5
1033,G#2,206.0,0.25,68,170.5
1034,D3,206.5,0.25,66,170.5
1035,E3,207.0,0.25,74,170.5
1036,B2,207.0,0.25,68,170.5
1037,G#2,207.0,0.25,68,170.5
1038,D3,207.5,0.25,64,170.5
1039,F4,208.0,1.0,85,170.5
1040,A5,208.0,0.25,68,170.5
1041,C5,208.0,0.25,68,170.5
1042,C6,208.5,0.25,60,170.5
1043,E5,208.5,0.25,60,170.5
1044,E4,209.0,0.25,73,170.5
1045,A5,209.0,0.25,68,170.5
1046,C5,209.0,0.25,68,170.5
1047,C6,209.5,0.25,62,170.5
1048,E5,209.5,0.25,62,170.5
1049,F3,210.0,1.0,84,170.5
1050,A2,210.0,0.25,73,170.5
1051,C3,210.5,0.25,66,170.5
1052,E3,211.0,0.25,74,170.5
1053,A2,211.0,0.25,73,170.5
1054,C3,211.5,0.25,64,170.5
1055,B6,212.0,11/20,80,170.5
1056,F7,212.0,11/20,80,170.5
1057,F6,212.0,11/20,80,170.5
1058,G#6,212.0,11/20,80,170.5
1059,F5,212.0,11/20,53,170.5
1060,F4,212.0,11/20,53,170.5
1061,G#4,212.0,11/20,53,170.5
1062,B4,212.0,11/20,53,170.5
1063,E7,212.5,11/20,80,170.5
1064,E6,212.5,11/20,80,170.5
1065,E5,212.5,11/20,56,170.5
1066,E4,212.5,11/20,56,170.5
1067,D7,213.0,11/20,78,170.5
1068,D6,213.0,11/20,78,170.5
1069,D5,213.0,11/20,54,170.5
1070,D4,213.0,11/20,54,170.5
1071,C7,213.5,11/20,76,170.5
1072,C6,213.5,11/20,76,170.5
1073,C5,213.5,11/20,54,170.5
1074,C4,213.5,11/20,54,170.5
1075,B6,214.0,11/20,74,170.5
1076,B5,214.0,11/20,74,170.5
1077,B4,214.0,11/20,52,170.5
1078,B3,214.0,11/20,52,170.5
1079,A6,214.5,11/20,74,170.5
1080,A5,214.5,11/20,74,170.5
1081,A4,214.5,11/20,52,170.5
1082,A3,214.5,11/20,52,170.5
1083,G#6,215.0,11/20,73,170.5
1084,G#5,215.0,11/20,73,170.5
1085,G#4,215.0,11/20,50,170.5
1086,G#3,215.0,11/20,50,170.5
1087,E6,215.5,0.5,71,170.5
1088,E5,215.5,0.5,71,170.5
1089,E4,215.5,0.5,49,170.5
1090,E3,215.5,0.5,49,170.5
1091,F6,216.0,11/20,71,170.5
1092,F5,216.0,11/20,71,170.5
1093,G#5,216.0,11/20,71,170.5
1094,B5,216.0,11/20,71,170.5
1095,E6,216.0,1/20,71,170.5
1096,E5,216.0,1/20,71,170.5
1097,F4,216.0,11/20,52,170.5
1098,F3,216.0,11/20,52,170.5
1099,G#3,216.0,11/20,52,170.5
1100,B3,216.0,11/20,52,170.5
1101,E4,216.0,1/20,49,170.5
1102,E3,216.0,1/20,49,170.5
1103,E6,216.5,11/20,71,170.5
1104,E5,216.5,11/20,71,170.5
1105,E4,216.5,11/20,54,170.5
1106,E3,216.5,11/20,54,170.5
1107,D6,217.0,11/20,69,170.5
1108,D5,217.0,11/20,69,170.5
1109,D4,217.0,11/20,52,170.5
1110,D3,217.0,11/20,52,170.5
1111,C6,217.5,11/20,68,170.5
1112,C5,217.5,11/20,68,170.5
1113,C4,217.5,11/20,50,170.5
1114,C3,217.5,11/20,50,170.5
1115,B5,218.0,11/20,66,170.5
1116,B4,218.0,11/20,66,170.5
1117,B3,218.0,11/20,49,170.5
1118,B2,218.0,11/20,49,170.5
1119,A5,218.5,11/20,64,170.5
1120,A4,218.5,11/20,64,170.5
1121,A3,218.5,11/20,47,170.5
1122,A2,218.5,11/20,47,170.5
1123,G#5,219.0,11/20,62,170.5
1124,G#4,219.0,11/20,62,170.5
1125,G#3,219.0,11/20,46,170.5
1126,G#2,219.0,11/20,46,170.5
1127,E5,219.5,0.5,62,170.5
1128,E4,219.5,0.5,62,170.5
1129,E3,219.5,0.5,44,170.5
1130,E2,219.5,0.5,44,170.5
1131,E4,220.0,0.5,69,170.5
1132,E5,220.0,0.5,69,170.5
1133,A4,220.0,0.5,69,170.5
1134,A3,220.0,0.5,60,170.5
1135,A2,220.0,0.5,60,170.5
1136,C5,220.5,0.25,66,170.5
1137,C4,220.5,0.25,54,170.5
1138,C3,220.5,0.25,54,170.5
1139,E4,221.0,0.5,69,170.5
1140,E5,221.0,0.5,69,170.5
1141,G#4,221.0,0.5,69,170.5
1142,G#3,221.0,0.5,61,170.5
1143,G#2,221.0,0.5,61,170.5
1144,B4,221.5,0.25,72,170.5
1145,B3,221.5,0.25,56,170.5
1146,B2,221.5,0.25,56,170.5
1147,A5,222.0,0.5,65,170.5
1148,A4,222.0,0.5,65,170.5
1149,C5,222.0,0.5,65,170.5
1150,A3,222.0,0.5,58,170.5
1151,A2,222.0,0.5,58,170.5
1152,C3,222.0,0.5,58,170.5
1153,E3,222.0,0.5,58,170.5
1154,C6,222.5,0.25,59,170.5
1155,C5,222.5,0.25,59,170.5
1156,E5,222.5,0.25,59,170.5
1157,G#5,223.0,0.5,66,170.5
1158,G#4,223.0,0.5,66,170.5
1159,B4,223.0,0.5,66,170.5
1160,E3,223.0,0.5,58,170.5
1161,E2,223.0,0.5,58,170.5
1162,G#2,223.0,0.5,58,170.5
1163,B2,223.0,0.5,58,170.5
1164,B5,223.5,0.25,65,170.5
1165,B4,223.5,0.25,65,170.5
1166,D5,223.5,0.25,65,170.5
1167,A5,224.0,0.5,76,170.5
1168,A4,224.0,0.5,76,170.5
1169,C5,224.0,0.5,76,170.5
1170,A3,224.0,0.5,64,170.5
1171,A2,224.0,0.5,64,170.5
1172,C3,224.0,0.5,64,170.5
1173,E3,224.0,0.5,64,170.5
1174,F6,226.0,0.5,80,170.5
1175,F5,226.0,0.5,80,170.5
1176,A5,226.0,0.5,80,170.5
1177,D6,226.0,0.5,80,170.5
1178,D3,226.0,0.5,64,170.5
1179,D2,226.0,0.5,64,170.5
1180,F2,226.0,0.5,64,170.5
1181,A2,226.0,0.5,64,170.5
1182,A6,228.0,2.0,86,170.5
1183,A5,228.0,2.0,86,170.5
1184,C6,228.0,2.0,86,170.5
1185,E6,228.0,2.0,86,170.5
1186,A2,228.0,2.0,67,170.5
1187,A1,228.0,2.0,67,170.5
1188,C2,228.0,2.0,67,170.5
1189,E2,228.0,2.0,67,170.5
1190,E4,231.75,0.25,80,170.5
1191,E4,232.0,0.5,88,170.5
1192,C#4,234.0,0.5,69,170.5
1193,G#4,234.0,0.5,74,170.5
1194,E4,234.0,0.5,74,170.5
1195,G#3,236.0,3.75,69,170.5
1196,B4,236.0,3.75,79,170.5
1197,E-4,236.0,3.75,79,170.5
1198,G#4,236.0,3.75,79,170.5
1199,E5,239.75,0.25,72,170.5
1200,E4,239.75,0.25,72,170.5
1201,G#4,239.75,0.25,72,170.5
1202,C#4,239.75,0.25,54,170.5
1203,C#3,239.75,0.25,54,170.5
1204,G#3,240.0,1.75,66,170.5
1205,G#4,240.0,1.75,79,170.5
1206,B4,240.0,1.75,79,170.5
1207,E-4,240.0,1.75,79,170.5
1208,E5,241.75,0.25,73,170.5
1209,E4,241.75,0.25,73,170.5
1210,G#4,241.75,0.25,73,170.5
1211,C#4,241.75,0.25,55,170.5
1212,C#3,241.75,0.25,55,170.5
1213,G#3,242.0,1.75,68,170.5
1214,B4,242.0,1.75,79,170.5
1215,E-4,242.0,1.75,79,170.5
1216,G#4,242.0,1.75,79,170.5
1217,E5,243.75,0.25,72,170.5
1218,E4,243.75,0.25,72,170.5
1219,G#4,243.75,0.25,72,170.5
1220,C#4,243.75,0.25,56,170.5
1221,C#3,243.75,0.25,56,170.5
1222,B4,244.0,4.0,79,170.5
1223,E-4,244.0,4.0,79,170.5
1224,G#4,244.0,4.0,79,170.5
1225,G#3,244.0,0.5,76,170.5
1226,G#2,244.0,0.5,76,170.5
1227,G3,245.0,0.5,76,170.5
1228,G2,245.0,0.5,76,170.5
1229,F#3,246.0,0.5,76,170.5
1230,F#2,246.0,0.5,76,170.5
1231,F3,247.0,0.5,76,170.5
1232,F2,247.0,0.5,76,170.5
1233,E5,248.0,0.375,77,170.5
1234,D4,248.0,0.375,77,170.5
1235,E4,248.0,0.375,77,170.5
1236,G#4,248.0,0.375,77,170.5
1237,B4,248.0,0.375,77,170.5
1238,E3,248.0,0.375,70,170.5
1239,E2,248.0,0.375,70,170.5
1240,E5,251.0,1.0,50,170.5
1241,C6,252.0,0.5,57,170.5
1242,A3,252.0,0.5,40,170.5
1243,A4,252.333,333/1000,29,170.5
1244,E6,252.5,0.5,50,170.5
1245,B4,252.667,333/1000,31,170.5
1246,C5,253.0,333/1000,32,170.5
1247,C6,253.0,0.5,48,170.5
1248,E5,253.0,0.5,48,170.5
1249,B4,253.333,333/1000,33,170.5
1250,F5,253.5,0.25,40,170.5
1251,A4,253.667,333/1000,32,170.5
1252,B5,254.0,0.5,55,170.5
1253,E5,254.0,1.0,40,170.5
1254,G3,254.0,0.5,40,170.5
1255,G4,254.333,333/1000,32,170.5
1256,D6,254.5,0.5,50,170.5
1257,A4,254.667,333/1000,33,170.5
1258,B4,255.0,333/1000,34,170.5
1259,B5,255.0,0.5,46,170.5
1260,D5,255.0,0.5,46,170.5
1261,A4,255.333,333/1000,34,170.5
1262,E5,255.5,0.25,40,170.5
1263,G4,255.667,333/1000,31,170.5
1264,A5,256.0,0.5,54,170.5
1265,D5,256.0,1.0,40,170.5
1266,F3,256.0,0.5,40,170.5
1267,F4,256.333,333/1000,31,170.5
1268,C6,256.5,0.5,50,170.5
1269,G4,256.667,333/1000,33,170.5
1270,A4,257.0,333/1000,34,170.5
1271,A5,257.0,0.5,48,170.5
1272,C5,257.0,0.5,48,170.5
1273,G4,257.333,333/1000,34,170.5
1274,D5,257.5,0.25,40,170.5
1275,F4,257.667,333/1000,32,170.5
1276,G#5,258.0,0.5,55,170.5
1277,C5,258.0,1.0,40,170.5
1278,E3,258.0,0.5,40,170.5
1279,E4,258.333,333/1000,31,170.5
1280,B5,258.5,0.5,50,170.5
1281,F4,258.667,333/1000,32,170.5
1282,G#4,259.0,333/1000,33,170.5
1283,G#5,259.0,0.5,48,170.5
1284,B4,259.0,0.5,48,170.5
1285,F4,259.333,333/1000,32,170.5
1286,C5,259.5,0.25,40,170.5
1287,E4,259.667,333/1000,30,170.5
1288,F5,260.0,0.5,54,170.5
1289,B4,260.0,1.0,40,170.5
1290,D3,260.0,0.5,40,170.5
1291,D4,260.333,333/1000,30,170.5
1292,A5,260.5,0.5,50,170.5
1293,E4,260.667,333/1000,31,170.5
1294,F4,261.0,333/1000,32,170.5
1295,F5,261.0,0.5,47,170.5
1296,A4,261.0,0.5,47,170.5
1297,D4,261.333,333/1000,32,170.5
1298,B4,261.5,0.25,40,170.5
1299,C4,261.667,333/1000,30,170.5
1300,E5,262.0,1.5,63,170.5
1301,G#4,262.0,0.5,48,170.5
1302,E3,262.0,1.0,43,170.5
1303,B3,262.0,0.5,43,170.5
1304,B4,262.5,0.5,45,170.5
1305,E4,262.5,0.5,40,170.5
1306,G#4,263.0,0.5,50,170.5
1307,B3,263.0,0.5,45,170.5
1308,E4,263.5,0.5,40,170.5
1309,B4,263.5,0.5,52,170.5
1310,G#5,263.5,0.5,52,170.5
1311,E5,264.0,1.5,66,170.5
1312,G#4,264.0,0.5,48,170.5
1313,E3,264.0,1.0,43,170.5
1314,B3,264.0,0.5,43,170.5
1315,B4,264.5,0.5,45,170.5
1316,E4,264.5,0.5,40,170.5
1317,G#4,265.0,0.5,50,170.5
1318,B3,265.0,0.5,45,170.5
1319,E4,265.5,0.5,40,170.5
1320,B4,265.5,0.5,51,170.5
1321,G#5,265.5,0.5,51,170.5
1322,E3,266.0,1.0,43,170.5
1323,B3,266.0,0.5,43,170.5
1324,E5,266.0,0.5,62,170.5
1325,G#4,266.0,0.5,62,170.5
1326,E4,266.5,0.25,40,170.5
1327,B4,266.5,0.25,60,170.5
1328,G#5,266.5,0.25,60,170.5
1329,E3,267.0,1.0,43,170.5
1330,B3,267.0,0.5,45,170.5
1331,E5,267.0,0.5,62,170.5
1332,G#4,267.0,0.5,62,170.5
1333,E4,267.5,0.25,40,170.5
1334,G#5,267.5,0.25,57,170.5
1335,B4,267.5,0.25,57,170.5
1336,E5,268.0,0.25,71,170.5
1337,G#4,268.0,1.0,60,170.5
1338,B3,268.0,0.25,52,170.5
1339,E3,268.0,0.25,52,170.5
1340,B4,268.5,0.25,62,170.5
1341,G#4,269.0,1.0,63,170.5
1342,E4,269.0,0.25,53,170.5
1343,E3,269.0,0.25,53,170.5
1344,G#3,269.0,0.25,53,170.5
1345,B3,269.0,0.25,53,170.5
1346,B4,269.5,0.25,64,170.5
1347,E5,270.0,0.25,67,170.5
1348,E4,270.0,1.0,63,170.5
1349,G#3,270.0,0.25,62,170.5
1350,B3,270.0,0.25,62,170.5
1351,B2,270.0,0.25,62,170.5
1352,E3,270.0,0.25,62,170.5
1353,B4,270.5,0.25,72,170.5
1354,E5,271.0,0.25,73,170.5
1355,E4,271.0,0.25,73,170.5
1356,G#3,271.0,0.25,66,170.5
1357,G#2,271.0,0.25,66,170.5
1358,B2,271.0,0.25,66,170.5
1359,E3,271.0,0.25,66,170.5
1360,G#5,271.5,0.25,74,170.5
1361,G#4,271.5,0.25,74,170.5
1362,B4,272.0,2.0,82,170.5
1363,E5,272.0,2.0,82,170.5
1364,B5,272.0,2.0,82,170.5
1365,G#5,272.0,2.0,82,170.5
1366,B2,272.0,2.0,62,170.5
1367,G#2,272.0,2.0,62,170.5
1368,E3,272.0,2.0,62,170.5
1369,E2,272.0,2.0,62,170.5
1370,E6,274.0,0.5,86,170.5
1371,E5,274.0,0.5,86,170.5
1372,G#5,274.0,0.5,86,170.5
1373,B5,274.0,0.5,86,170.5
1374,E4,274.0,0.5,65,170.5
1375,B3,274.0,0.5,65,170.5
1376,G#3,274.0,0.5,65,170.5
1377,E3,274.0,0.5,65,170.5
1378,E5,275.0,333/1000,75,170.5
1379,E3,275.0,333/1000,67,170.5
1380,F#5,275.333,333/1000,78,170.5
1381,F#3,275.333,333/1000,71,170.5
1382,G#5,275.667,333/1000,80,170.5
1383,G#3,275.667,333/1000,75,170.5
1384,A4,276.0,0.5,81,170.5
1385,A5,276.0,0.5,81,170.5
1386,C5,276.0,0.5,81,170.5
1387,A3,276.0,0.5,64,170.5
1388,A2,276.0,0.5,64,170.5
1389,B4,277.0,0.25,67,170.5
1390,G#4,277.0,0.25,67,170.5
1391,G#5,277.0,0.25,67,170.5
1392,F3,277.0,0.25,52,170.5
1393,F2,277.0,0.25,52,170.5
1394,B4,277.5,0.25,61,170.5
1395,B5,277.5,0.25,61,170.5
1396,D5,277.5,0.25,61,170.5
1397,A4,278.0,0.5,75,170.5
1398,A5,278.0,0.5,75,170.5
1399,C5,278.0,0.5,75,170.5
1400,A3,278.0,0.5,64,170.5
1401,A2,278.0,0.5,64,170.5
1402,B4,279.0,0.25,65,170.5
1403,G#4,279.0,0.25,65,170.5
1404,G#5,279.0,0.25,65,170.5
1405,E3,279.0,0.25,52,170.5
1406,E2,279.0,0.25,52,170.5
1407,D5,279.5,0.25,60,170.5
1408,B5,279.5,0.25,60,170.5
1409,B4,279.5,0.25,60,170.5
1410,A4,280.0,0.25,75,170.5
1411,A5,280.0,0.25,75,170.5
1412,C5,280.0,0.25,75,170.5
1413,A3,280.0,0.25,64,170.5
1414,A2,280.0,0.25,64,170.5
1415,B4,281.0,0.25,65,170.5
1416,G#4,281.0,0.25,65,170.5
1417,G#5,281.0,0.25,65,170.5
1418,D3,281.0,0.25,54,170.5
1419,D2,281.0,0.25,54,170.5
1420,F2,281.0,0.25,54,170.5
1421,A4,282.0,2.0,74,170.5
1422,C5,282.0,2.0,74,170.5
1423,A5,282.0,2.0,74,170.5
1424,A3,282.0,2.0,63,170.5
1425,A2,282.0,2.0,63,170.5
1426,E3,282.0,2.0,63,170.5
1427,A6,284.0,0.25,69,170.5
1428,A5,284.0,0.25,69,170.5
1429,B6,284.5,0.25,73,170.5
1430,B5,284.5,0.25,73,170.5
1431,C7,285.0,1.5,79,170.5
1432,C6,285.0,1.5,79,170.5
1433,A4,285.0,0.25,69,170.5
1434,A3,285.0,0.25,69,170.5
1435,B4,285.5,0.25,73,170.5
1436,B3,285.5,0.25,73,170.5
1437,C5,286.0,1.5,79,170.5
1438,C4,286.0,1.5,79,170.5
1439,B6,286.5,0.25,68,170.5
1440,B5,286.5,0.25,68,170.5
1441,A6,287.0,1.0,80,170.5
1442,A5,287.0,1.0,80,170.5
1443,B4,287.5,0.25,68,170.5
1444,B3,287.5,0.25,68,170.5
1445,A6,288.0,0.5,80,170.5
1446,A5,288.0,0.5,80,170.5
1447,A4,288.0,1.5,80,170.5
1448,A3,288.0,1.5,80,170.5
1449,G6,288.5,0.25,69,170.5
1450,G5,288.5,0.25,69,170.5
1451,F6,289.0,1.5,81,170.5
1452,F5,289.0,1.5,81,170.5
1453,G4,289.5,0.25,69,170.5
1454,G3,289.5,0.25,69,170.5
1455,F4,290.0,1.5,81,170.5
1456,F3,290.0,1.5,81,170.5
1457,E6,290.5,0.25,74,170.5
1458,E5,290.5,0.25,74,170.5
1459,D6,291.0,0.25,74,170.5
1460,D5,291.0,0.25,74,170.5
1461,C#6,291.5,0.25,74,170.5
1462,C#5,291.5,0.25,74,170.5
1463,E3,291.5,0.25,75,170.5
1464,E4,291.5,0.25,75,170.5
1465,F5,292.0,0.5,81,170.5
1466,D5,292.0,0.5,81,170.5
1467,D6,292.0,0.5,81,170.5
1468,D4,292.0,0.5,64,170.5
1469,D3,292.0,0.5,64,170.5
1470,E5,293.0,0.25,67,170.5
1471,C#5,293.0,0.25,67,170.5
1472,C#6,293.0,0.25,67,170.5
1473,B-3,293.0,0.25,52,170.5
1474,B-2,293.0,0.25,52,170.5
1475,E5,293.5,0.25,61,170.5
1476,E6,293.5,0.25,61,170.5
1477,G5,293.5,0.25,61,170.5
1478,D5,294.0,0.5,75,170.5
1479,D6,294.0,0.5,75,170.5
1480,F5,294.0,0.5,75,170.5
1481,D4,294.0,0.5,64,170.5
1482,D3,294.0,0.5,64,170.5
1483,E5,295.0,0.25,65,170.5
1484,C#5,295.0,0.25,65,170.5
1485,C#6,295.0,0.25,65,170.5
1486,A3,295.0,0.25,52,170.5
1487,A2,295.0,0.25,52,170.5
1488,G5,295.5,0.25,60,170.5
1489,E6,295.5,0.25,60,170.5
1490,E5,295.5,0.25,60,170.5
1491,D5,296.0,0.25,75,170.5
1492,D6,296.0,0.25,75,170.5
1493,F5,296.0,0.25,75,170.5
1494,D4,296.0,0.25,64,170.5
1495,D3,296.0,0.25,64,170.5
1496,E5,297.0,0.25,60,170.5
1497,C#5,297.0,0.25,60,170.5
1498,C#6,297.0,0.25,60,170.5
1499,G3,297.0,0.25,50,170.5
1500,G2,297.0,0.25,50,170.5
1501,B-2,297.0,0.25,50,170.5
1502,D5,298.0,2.0,78,170.5
1503,F5,298.0,2.0,78,170.5
1504,D6,298.0,2.0,78,170.5
1505,D4,298.0,2.0,65,170.5
1506,D3,298.0,2.0,65,170.5
1507,A3,298.0,2.0,65,170.5
1508,D7,300.0,0.25,69,170.5
1509,D6,300.0,0.25,69,170.5
1510,E7,300.5,0.25,73,170.5
1511,E6,300.5,0.25,73,170.5
1512,F7,301.0,1.5,76,170.5
1513,F6,301.0,1.5,76,170.5
1514,D5,301.0,0.25,69,170.5
1515,D4,301.0,0.25,69,170.5
1516,E5,301.5,0.25,73,170.5
1517,E4,301.5,0.25,73,170.5
1518,F5,302.0,1.5,76,170.5
1519,F4,302.0,1.5,76,170.5
1520,E7,302.5,0.25,68,170.5
1521,E6,302.5,0.25,68,170.5
1522,D7,303.0,1.0,76,170.5
1523,D6,303.0,1.0,76,170.5
1524,E5,303.5,0.25,68,170.5
1525,E4,303.5,0.25,68,170.5
1526,D7,304.0,0.5,76,170.5
1527,D6,304.0,0.5,76,170.5
1528,D5,304.0,1.5,76,170.5
1529,D4,304.0,1.5,76,170.5
1530,C7,304.5,0.25,69,170.5
1531,C6,304.5,0.25,69,170.5
1532,B6,305.0,1.5,78,170.5
1533,B5,305.0,1.5,78,170.5
1534,C5,305.5,0.25,69,170.5
1535,C4,305.5,0.25,69,170.5
1536,B4,306.0,1.5,78,170.5
1537,B3,306.0,1.5,78,170.5
1538,A6,306.5,0.25,71,170.5
1539,A5,306.5,0.25,71,170.5
1540,G#6,307.0,0.25,71,170.5
1541,G#5,307.0,0.25,71,170.5
1542,A6,307.5,0.25,71,170.5
1543,A5,307.5,0.25,71,170.5
1544,A4,307.5,0.25,64,170.5
1545,A3,307.5,0.25,64,170.5
1546,G#6,308.0,0.25,73,170.5
1547,G#5,308.0,0.25,73,170.5
1548,G#4,308.0,0.25,66,170.5
1549,G#3,308.0,0.25,66,170.5
1550,B6,308.5,0.25,78,170.5
1551,B5,308.5,0.25,78,170.5
1552,B4,308.5,0.25,71,170.5
1553,B3,308.5,0.25,71,170.5
1554,E7,309.0,0.5,81,170.5
1555,E6,309.0,0.5,81,170.5
1556,E5,309.0,0.5,74,170.5
1557,E4,309.0,0.5,74,170.5
1558,E4,310.0,2.0,77,170.5
1559,G#3,310.0,2.0,77,170.5
1560,B3,310.0,2.0,77,170.5
1561,E3,310.0,2.0,62,170.5
1562,E2,310.0,2.0,62,170.5
1563,G#2,310.0,2.0,62,170.5
1564,B2,310.0,2.0,62,170.5
1565,A6,312.0,0.25,73,170.5
1566,A5,312.0,0.25,73,170.5
1567,A4,312.0,0.25,66,170.5
1568,A3,312.0,0.25,66,170.5
1569,C7,312.5,0.25,78,170.5
1570,C6,312.5,0.25,78,170.5
1571,C5,312.5,0.25,71,170.5
1572,C4,312.5,0.25,71,170.5
1573,E7,313.0,0.5,81,170.5
1574,E6,313.0,0.5,81,170.5
1575,E5,313.0,0.5,74,170.5
1576,E4,313.0,0.5,74,170.5
1577,E4,314.0,2.0,77,170.5
1578,A3,314.0,2.0,77,170.5
1579,C4,314.0,2.0,77,170.5
1580,E3,314.0,2.0,62,170.5
1581,E2,314.0,2.0,62,170.5
1582,A2,314.0,2.0,62,170.5
1583,C3,314.0,2.0,62,170.5
1584,F4,316.0,1.0,85,170.5
1585,G#5,316.0,0.25,68,170.5
1586,B4,316.0,0.25,68,170.5
1587,B5,316.5,0.25,60,170.5
1588,D5,316.5,0.25,60,170.5
1589,E4,317.0,0.25,73,170.5
1590,G#5,317.0,0.25,68,170.5
1591,B4,317.0,0.25,68,170.5
1592,B5,317.5,0.25,62,170.5
1593,D5,317.5,0.25,62,170.5
1594,F3,318.0,1.0,84,170.5
1595,B2,318.0,0.25,68,170.5
1596,G#2,318.0,0.25,68,170.5
1597,D3,318.5,0.25,66,170.5
1598,E3,319.0,0.25,74,170.5
1599,B2,319.0,0.25,68,170.5
1600,G#2,319.0,0.25,68,170.5
1601,D3,319.5,0.25,64,170.5
1602,F4,320.0,1.0,85,170.5
1603,A5,320.0,0.25,68,170.5
1604,C5,320.0,0.25,68,170.5
1605,C6,320.5,0.25,60,170.5
1606,E5,320.5,0.25,60,170.5
1607,E4,321.0,0.25,73,170.5
1608,A5,321.0,0.25,68,170.5
1609,C5,321.0,0.25,68,170.5
1610,C6,321.5,0.25,62,170.5
1611,E5,321.5,0.25,62,170.5
1612,F3,322.0,1.0,84,170.5
1613,A2,322.0,0.25,73,170.5
1614,C3,322.5,0.25,66,170.5
1615,E3,323.0,0.25,74,170.5
1616,A2,323.0,0.25,73,170.5
1617,C3,323.5,0.25,64,170.5
1618,B6,324.0,11/20,80,170.5
1619,F7,324.0,11/20,80,170.5
1620,F6,324.0,11/20,80,170.5
1621,G#6,324.0,11/20,80,170.5
1622,F5,324.0,11/20,53,170.5
1623,F4,324.0,11/20,53,170.5
1624,G#4,324.0,11/20,53,170.5
1625,B4,324.0,11/20,53,170.5
1626,E7,324.5,11/20,80,170.5
1627,E6,324.5,11/20,80,170.5
1628,E5,324.5,11/20,56,170.5
1629,E4,324.5,11/20,56,170.5
1630,D7,325.0,11/20,78,170.5
1631,D6,325.0,11/20,78,170.5
1632,D5,325.0,11/20,54,170.5
1633,D4,325.0,11/20,54,170.5
1634,C7,325.5,11/20,76,170.5
1635,C6,325.5,11/20,76,170.5
1636,C5,325.5,11/20,54,170.5
1637,C4,325.5,11/20,54,170.5
1638,B6,326.0,11/20,74,170.5
1639,B5,326.0,11/20,74,170.5
1640,B4,326.0,11/20,52,170.5
1641,B3,326.0,11/20,52,170.5
1642,A6,326.5,11/20,74,170.5
1643,A5,326.5,11/20,74,170.5
1644,A4,326.5,11/20,52,170.5
1645,A3,326.5,11/20,52,170.5
1646,G#6,327.0,11/20,73,170.5
1647,G#5,327.0,11/20,73,170.5
1648,G#4,327.0,11/20,50,170.5
1649,G#3,327.0,11/20,50,170.5
1650,E6,327.5,0.5,71,170.5
1651,E5,327.5,0.5,71,170.5
1652,E4,327.5,0.5,49,170.5
1653,E3,327.5,0.5,49,170.5
1654,F6,328.0,11/20,71,170.5
1655,F5,328.0,11/20,71,170.5
1656,G#5,328.0,11/20,71,170.5
1657,B5,328.0,11/20,71,170.5
1658,E6,328.0,1/20,71,170.5
1659,E5,328.0,1/20,71,170.5
1660,F4,328.0,11/20,52,170.5
1661,F3,328.0,11/20,52,170.5
1662,G#3,328.0,11/20,52,170.5
1663,B3,328.0,11/20,52,170.5
1664,E4,328.0,1/20,49,170.5
1665,E3,328.0,1/20,49,170.5
1666,E6,328.5,11/20,71,170.5
1667,E5,328.5,11/20,71,170.5
1668,E4,328.5,11/20,54,170.5
1669,E3,328.5,11/20,54,170.5
1670,D6,329.0,11/20,69,170.5
1671,D5,329.0,11/20,69,170.5
1672,D4,329.0,11/20,52,170.5
1673,D3,329.0,11/20,52,170.5
1674,C6,329.5,11/20,68,170.5
1675,C5,329.5,11/20,68,170.5
1676,C4,329.5,11/20,50,170.5
1677,C3,329.5,11/20,50,170.5
1678,B5,330.0,11/20,66,170.5
1679,B4,330.0,11/20,66,170.5
1680,B3,330.0,11/20,49,170.5
1681,B2,330.0,11/20,49,170.5
1682,A5,330.5,11/20,64,170.5
1683,A4,330.5,11/20,64,170.5
1684,A3,330.5,11/20,47,170.5
1685,A2,330.5,11/20,47,170.5
1686,G#5,331.0,11/20,62,170.5
1687,G#4,331.0,11/20,62,170.5
1688,G#3,331.0,11/20,46,170.5
1689,G#2,331.0,11/20,46,170.5
1690,E5,331.5,0.5,62,170.5
1691,E4,331.5,0.5,62,170.5
1692,E3,331.5,0.5,44,170.5
1693,E2,331.5,0.5,44,170.5
1694,E4,332.0,0.5,69,170.5
1695,E5,332.0,0.5,69,170.5
1696,A4,332.0,0.5,69,170.5
1697,A3,332.0,0.5,60,170.5
1698,A2,332.0,0.5,60,170.5
1699,C5,332.5,0.25,66,170.5
1700,C4,332.5,0.25,54,170.5
1701,C3,332.5,0.25,54,170.5
1702,E4,333.0,0.5,69,170.5
1703,E5,333.0,0.5,69,170.5
1704,G#4,333.0,0.5,69,170.5
1705,G#3,333.0,0.5,61,170.5
1706,G#2,333.0,0.5,61,170.5
1707,B4,333.5,0.25,72,170.5
1708,B3,333.5,0.25,56,170.5
1709,B2,333.5,0.25,56,170.5
1710,A5,334.0,0.5,65,170.5
1711,A4,334.0,0.5,65,170.5
1712,C5,334.0,0.5,65,170.5
1713,A3,334.0,0.5,58,170.5
1714,A2,334.0,0.5,58,170.5
1715,C3,334.0,0.5,58,170.5
1716,E3,334.0,0.5,58,170.5
1717,C6,334.5,0.25,59,170.5
1718,C5,334.5,0.25,59,170.5
1719,E5,334.5,0.25,59,170.5
1720,G#5,335.0,0.5,66,170.5
1721,G#4,335.0,0.5,66,170.5
1722,B4,335.0,0.5,66,170.5
1723,E3,335.0,0.5,58,170.5
1724,E2,335.0,0.5,58,170.5
1725,G#2,335.0,0.5,58,170.5
1726,B2,335.0,0.5,58,170.5
1727,B5,335.5,0.25,65,170.5
1728,B4,335.5,0.25,65,170.5
1729,D5,335.5,0.25,65,170.5
1730,A5,336.0,0.5,76,170.5
1731,A4,336.0,0.5,76,170.5
1732,C5,336.0,0.5,76,170.5
1733,A3,336.0,0.5,64,170.5
1734,A2,336.0,0.5,64,170.5
1735,C3,336.0,0.5,64,170.5
1736,E3,336.0,0.5,64,170.5
1737,F6,338.0,0.5,80,170.5
1738,F5,338.0,0.5,80,170.5
1739,A5,338.0,0.5,80,170.5
1740,D6,338.0,0.5,80,170.5
1741,D3,338.0,0.5,64,170.5
1742,D2,338.0,0.5,64,170.5
1743,F2,338.0,0.5,64,170.5
1744,A2,338.0,0.5,64,170.5
1745,A6,340.0,2.0,86,170.5
1746,A5,340.0,2.0,86,170.5
1747,C6,340.0,2.0,86,170.5
1748,E6,340.0,2.0,86,170.5
1749,A2,340.0,2.0,67,170.5
1750,A1,340.0,2.0,67,170.5
1751,C2,340.0,2.0,67,170.5
1752,E2,340.0,2.0,67,170.5
1753,C#5,343.0,0.5,42,170.5
1754,E5,343.5,0.5,41,170.5
1755,A4,344.0,2.0,47,170.5
1756,C#4,345.0,0.5,34,170.5
1757,E3,345.0,1.0,34,170.5
1758,E4,345.5,0.5,34,170.5
1759,A2,346.0,0.25,41,170.5
1760,C#5,347.0,0.5,50,170.5
1761,E5,347.5,0.5,49,170.5
1762,A4,348.0,2.0,56,170.5
1763,C#4,349.0,0.5,41,170.5
1764,E3,349.0,1.0,41,170.5
1765,E4,349.5,0.5,41,170.5
1766,A2,350.0,0.25,49,170.5
1767,A5,351.0,0.5,50,170.5
1768,C#5,351.0,1.0,42,170.5
1769,B4,351.0,0.5,30,170.5
1770,C#4,351.0,0.5,30,170.5
1771,F4,351.0,0.5,30,170.5
1772,G#5,351.5,0.25,45,170.5
1773,G#5,352.0,0.5,50,170.5
1774,C#5,352.0,1.0,42,170.5
1775,A4,352.0,0.5,36,170.5
1776,F#4,352.0,0.5,36,170.5
1777,F#5,352.5,0.25,45,170.5
1778,F#5,353.0,0.5,50,170.5
1779,C#5,353.0,1.0,42,170.5
1780,B4,353.0,0.5,32,170.5
1781,C#4,353.0,0.5,32,170.5
1782,G#4,353.0,0.5,32,170.5
1783,F5,353.5,0.25,47,170.5
1784,G#5,354.0,0.5,50,170.5
1785,C#5,354.0,1.0,42,170.5
1786,A4,354.0,0.5,38,170.5
1787,F#4,354.0,0.5,38,170.5
1788,F#5,354.5,0.25,46,170.5
1789,F#5,355.0,0.5,50,170.5
1790,C#5,355.0,1.0,42,170.5
1791,B4,355.0,0.5,33,170.5
1792,C#4,355.0,0.5,33,170.5
1793,G#4,355.0,0.5,33,170.5
1794,F5,355.5,0.25,46,170.5
1795,F#5,356.0,0.5,46,170.5
1796,C#5,356.0,0.5,46,170.5
1797,A4,356.0,0.5,37,170.5
1798,F#4,356.0,0.5,37,170.5
1799,A3,357.0,0.5,41,170.5
1800,C#4,357.5,0.5,41,170.5
1801,F#3,358.0,0.25,49,170.5
1802,F#6,359.0,0.5,50,170.5
1803,A5,359.0,1.0,42,170.5
1804,G5,359.0,0.5,30,170.5
1805,A4,359.0,0.5,30,170.5
1806,C#5,359.0,0.5,30,170.5
1807,E6,359.5,0.25,45,170.5
1808,E6,360.0,0.5,50,170.5
1809,A5,360.0,1.0,42,170.5
1810,F#5,360.0,0.5,36,170.5
1811,D5,360.0,0.5,36,170.5
1812,D6,360.5,0.25,45,170.5
1813,D6,361.0,0.5,50,170.5
1814,A5,361.0,1.0,42,170.5
1815,G5,361.0,0.5,32,170.5
1816,A4,361.0,0.5,32,170.5
1817,E5,361.0,0.5,32,170.5
1818,C#6,361.5,0.25,47,170.5
1819,E6,362.0,0.5,50,170.5
1820,A5,362.0,1.0,42,170.5
1821,F#5,362.0,0.5,38,170.5
1822,D5,362.0,0.5,38,170.5
1823,D6,362.5,0.25,46,170.5
1824,D6,363.0,0.5,50,170.5
1825,A5,363.0,1.0,42,170.5
1826,G5,363.0,0.5,33,170.5
1827,A4,363.0,0.5,33,170.5
1828,E5,363.0,0.5,33,170.5
1829,C#6,363.5,0.25,46,170.5
1830,D6,364.0,0.5,46,170.5
1831,A5,364.0,0.5,46,170.5
1832,F#5,364.0,0.5,37,170.5
1833,D5,364.0,0.5,37,170.5
1834,F#4,365.0,0.5,41,170.5
1835,A4,365.5,0.5,41,170.5
1836,D4,366.0,0.25,49,170.5
1837,D5,367.0,0.5,42,170.5
1838,F#5,367.5,0.5,41,170.5
1839,B4,368.0,2.0,47,170.5
1840,D4,369.0,0.5,34,170.5
1841,F#3,369.0,1.0,34,170.5
1842,F#4,369.5,0.5,34,170.5
1843,B2,370.0,0.25,41,170.5
1844,D5,371.0,0.5,50,170.5
1845,F#5,371.5,0.5,49,170.5
1846,B4,372.0,2.0,56,170.5
1847,D4,373.0,0.5,41,170.5
1848,F#3,373.0,1.0,41,170.5
1849,F#4,373.5,0.5,41,170.5
1850,B2,374.0,0.25,49,170.5
1851,B6,375.0,0.25,50,170.5
1852,D6,375.0,0.25,50,170.5
1853,D7,375.5,0.25,46,170.5
1854,F#6,375.5,0.25,46,170.5
1855,E3,376.0,1.0,41,170.5
1856,C#7,376.0,0.25,50,170.5
1857,E6,376.0,0.25,50,170.5
1858,B6,376.5,0.25,48,170.5
1859,D6,376.5,0.25,48,170.5
1860,A6,377.0,0.25,52,170.5
1861,C#6,377.0,0.25,52,170.5
1862,A4,377.0,0.25,32,170.5
1863,E4,377.0,0.25,32,170.5
1864,C#4,377.0,0.25,32,170.5
1865,C#7,377.5,0.25,46,170.5
1866,E6,377.5,0.25,46,170.5
1867,E4,378.0,1.0,41,170.5
1868,B6,378.0,0.25,54,170.5
1869,D6,378.0,0.25,54,170.5
1870,A6,378.5,0.25,46,170.5
1871,C#6,378.5,0.25,46,170.5
1872,G#6,379.0,0.25,50,170.5
1873,B5,379.0,0.25,50,170.5
1874,G#5,379.0,0.25,32,170.5
1875,E5,379.0,0.25,32,170.5
1876,B4,379.0,0.25,32,170.5
1877,B6,379.5,0.25,46,170.5
1878,D6,379.5,0.25,46,170.5
1879,A6,380.0,0.25,56,170.5
1880,C#6,380.0,0.25,56,170.5
1881,A5,380.0,0.25,36,170.5
1882,A4,380.0,0.25,36,170.5
1883,E5,380.0,0.25,36,170.5
1884,C#7,380.5,0.25,46,170.5
1885,E6,380.5,0.25,46,170.5
1886,G#6,381.0,0.25,50,170.5
1887,B5,381.0,0.25,50,170.5
1888,G#5,381.0,0.25,34,170.5
1889,E5,381.0,0.25,34,170.5
1890,B6,381.5,0.25,46,170.5
1891,D6,381.5,0.25,46,170.5
1892,A6,382.0,0.25,52,170.5
1893,C#6,382.0,0.25,52,170.5
1894,A5,382.0,0.25,36,170.5
1895,A4,382.0,0.25,36,170.5
1896,E5,382.0,0.25,36,170.5
1897,C#4,383.0,0.375,41,170.5
1898,E4,383.5,0.375,41,170.5
1899,A3,384.0,2.0,41,170.5
1900,C#5,385.0,0.25,49,170.5
1901,E4,385.0,0.5,35,170.5
1902,A2,385.0,0.5,26,170.5
1903,E3,385.0,0.5,26,170.5
1904,E5,385.25,0.25,42,170.5
1905,A4,385.5,0.25,49,170.5
1906,E5,386.0,0.5,35,170.5
1907,C#6,386.0,0.25,49,170.5
1908,A2,386.0,0.5,26,170.5
1909,E3,386.0,0.5,26,170.5
1910,E6,386.25,0.25,43,170.5
1911,A5,386.5,0.25,49,170.5
1912,C#4,387.0,0.375,41,170.5
1913,E4,387.5,0.375,41,170.5
1914,A3,388.0,2.0,41,170.5
1915,E5,389.0,0.5,35,170.5
1916,C#6,389.0,0.25,49,170.5
1917,A2,389.0,0.5,26,170.5
1918,E3,389.0,0.5,26,170.5
1919,E6,389.25,0.25,42,170.5
1920,A5,389.5,0.25,49,170.5
1921,E6,390.0,0.5,35,170.5
1922,C#7,390.0,0.25,49,170.5
1923,A2,390.0,0.5,26,170.5
1924,E3,390.0,0.5,26,170.5
1925,E7,390.25,0.25,43,170.5
1926,A6,390.5,0.25,49,170.5
1927,A6,391.0,333/1000,54,170.5
1928,C#6,391.0,1.0,34,170.5
1929,B4,391.0,0.5,30,170.5
1930,C#4,391.0,0.5,30,170.5
1931,F4,391.0,0.5,30,170.5
1932,G#6,391.333,333/1000,47,170.5
1933,G#5,391.667,167/1000,47,170.5
1934,G#6,392.0,333/1000,52,170.5
1935,C#6,392.0,1.0,32,170.5
1936,A4,392.0,0.5,36,170.5
1937,F#4,392.0,0.5,36,170.5
1938,F#6,392.333,333/1000,46,170.5
1939,F#5,392.667,167/1000,46,170.5
1940,F#6,393.0,333/1000,50,170.5
1941,C#6,393.0,1.0,26,170.5
1942,B4,393.0,0.5,32,170.5
1943,C#4,393.0,0.5,32,170.5
1944,G#4,393.0,0.5,32,170.5
1945,F6,393.333,333/1000,46,170.5
1946,F5,393.667,167/1000,46,170.5
1947,G#6,394.0,333/1000,50,170.5
1948,C#6,394.0,1.0,26,170.5
1949,A4,394.0,0.5,38,170.5
1950,F#4,394.0,0.5,38,170.5
1951,F#6,394.333,333/1000,46,170.5
1952,F#5,394.667,167/1000,46,170.5
1953,F#6,395.0,333/1000,50,170.5
1954,C#6,395.0,1.0,26,170.5
1955,B4,395.0,0.5,33,170.5
1956,C#4,395.0,0.5,33,170.5
1957,G#4,395.0,0.5,33,170.5
1958,F6,395.333,333/1000,48,170.5
1959,F5,395.667,167/1000,48,170.5
1960,G#6,396.0,0.25,56,170.5
1961,C#6,396.0,0.5,44,170.5
1962,A4,396.0,0.25,37,170.5
1963,F#4,396.0,0.25,37,170.5
1964,F#6,396.25,0.25,55,170.5
1965,C#6,396.5,0.25,53,170.5
1966,A5,396.75,0.25,52,170.5
1967,G#5,397.0,0.25,51,170.5
1968,F#5,397.25,0.25,49,170.5
1969,C#5,397.5,0.25,48,170.5
1970,A4,397.75,0.25,46,170.5
1971,F#4,398.0,0.25,45,170.5
1972,F#6,399.0,333/1000,54,170.5
1973,A6,399.0,1.0,43,170.5
1974,G5,399.0,0.5,30,170.5
1975,A4,399.0,0.5,30,170.5
1976,C#5,399.0,0.5,30,170.5
1977,E6,399.333,333/1000,47,170.5
1978,A5,399.667,167/1000,47,170.5
1979,E6,400.0,333/1000,52,170.5
1980,A6,400.0,1.0,41,170.5
1981,F#5,400.0,0.5,36,170.5
1982,D5,400.0,0.5,36,170.5
1983,D6,400.333,333/1000,46,170.5
1984,A5,400.667,167/1000,46,170.5
1985,D6,401.0,333/1000,50,170.5
1986,A6,401.0,1.0,33,170.5
1987,G5,401.0,0.5,32,170.5
1988,A4,401.0,0.5,32,170.5
1989,E5,401.0,0.5,32,170.5
1990,C#6,401.333,333/1000,46,170.5
1991,A5,401.667,167/1000,46,170.5
1992,E6,402.0,333/1000,50,170.5
1993,A6,402.0,1.0,33,170.5
1994,F#5,402.0,0.5,38,170.5
1995,D5,402.0,0.5,38,170.5
1996,D6,402.333,333/1000,46,170.5
1997,A5,402.667,167/1000,46,170.5
1998,D6,403.0,333/1000,50,170.5
1999,A6,403.0,1.0,33,170.5
2000,G5,403.0,0.5,33,170.5
2001,A4,403.0,0.5,33,170.5
2002,E5,403.0,0.5,33,170.5
2003,C#6,403.333,333/1000,48,170.5
2004,A5,403.667,167/1000,48,170.5
2005,E6,404.0,333/1000,56,170.5
2006,A6,404.0,0.5,50,170.5
2007,F#5,404.0,0.25,37,170.5
2008,D5,404.0,0.25,37,170.5
2009,D6,404.333,333/1000,55,170.5
2010,A5,404.667,333/1000,53,170.5
2011,F#5,405.0,0.25,51,170.5
2012,D5,405.25,0.25,49,170.5
2013,A4,405.5,0.25,48,170.5
2014,F#4,405.75,0.25,46,170.5
2015,D4,406.0,0.25,45,170.5
2016,D4,407.0,0.375,41,170.5
2017,F#4,407.5,0.375,41,170.5
2018,B3,408.0,2.0,41,170.5
2019,F#4,409.0,0.5,36,170.5
2020,D5,409.0,0.25,49,170.5
2021,B2,409.0,0.5,26,170.5
2022,F#3,409.0,0.5,26,170.5
2023,F#5,409.25,0.25,42,170.5
2024,B4,409.5,0.25,49,170.5
2025,F#5,410.0,0.5,35,170.5
2026,D6,410.0,0.25,49,170.5
2027,B2,410.0,0.5,26,170.5
2028,F#3,410.0,0.5,26,170.5
2029,F#6,410.25,0.25,43,170.5
2030,B5,410.5,0.25,49,170.5
2031,D4,411.0,0.375,41,170.5
2032,F#4,411.5,0.375,41,170.5
2033,B3,412.0,2.0,41,170.5
2034,F#5,413.0,0.5,34,170.5
2035,D6,413.0,0.25,49,170.5
2036,B2,413.0,0.5,26,170.5
2037,F#3,413.0,0.5,26,170.5
2038,F#6,413.25,0.25,42,170.5
2039,B5,413.5,0.25,49,170.5
2040,F#6,414.0,0.5,36,170.5
2041,D7,414.0,0.25,49,170.5
2042,B2,414.0,0.5,26,170.5
2043,F#3,414.0,0.5,26,170.5
2044,F#7,414.25,0.25,43,170.5
2045,B6,414.5,0.25,49,170.5
2046,B5,415.0,0.25,48,170.5
2047,B6,415.0,0.25,48,170.5
2048,D6,415.0,0.25,48,170.5
2049,D6,415.5,0.25,45,170.5
2050,D7,415.5,0.25,45,170.5
2051,F#6,415.5,0.25,45,170.5
2052,C#6,416.0,0.25,49,170.5
2053,C#7,416.0,0.25,49,170.5
2054,E6,416.0,0.25,49,170.5
2055,E2,416.0,0.25,38,170.5
2056,E3,416.0,0.25,38,170.5
2057,B5,416.5,0.25,47,170.5
2058,B6,416.5,0.25,47,170.5
2059,D6,416.5,0.25,47,170.5
2060,A5,417.0,0.25,50,170.5
2061,A6,417.0,0.25,50,170.5
2062,C#6,417.0,0.25,50,170.5
2063,E4,417.0,0.25,32,170.5
2064,C#4,417.0,0.25,32,170.5
2065,A3,417.0,0.25,32,170.5
2066,C#6,417.5,0.25,45,170.5
2067,C#7,417.5,0.25,45,170.5
2068,E6,417.5,0.25,45,170.5
2069,E3,418.0,0.25,41,170.5
2070,B5,418.0,0.25,52,170.5
2071,B6,418.0,0.25,52,170.5
2072,D6,418.0,0.25,52,170.5
2073,A5,418.5,0.25,45,170.5
2074,A6,418.5,0.25,45,170.5
2075,C#6,418.5,0.25,45,170.5
2076,G#5,419.0,0.25,48,170.5
2077,G#6,419.0,0.25,48,170.5
2078,B5,419.0,0.25,48,170.5
2079,G#4,419.0,0.25,32,170.5
2080,E4,419.0,0.25,32,170.5
2081,B3,419.0,0.25,32,170.5
2082,B5,419.5,0.25,45,170.5
2083,B6,419.5,0.25,45,170.5
2084,D6,419.5,0.25,45,170.5
2085,A5,420.0,0.25,54,170.5
2086,A6,420.0,0.25,54,170.5
2087,C#6,420.0,0.25,54,170.5
2088,C#4,420.0,0.25,36,170.5
2089,A4,420.0,0.25,36,170.5
2090,A3,420.0,0.25,36,170.5
2091,E4,420.0,0.25,36,170.5
2092,C#6,420.5,0.25,45,170.5
2093,C#7,420.5,0.25,45,170.5
2094,E6,420.5,0.25,45,170.5
2095,G#5,421.0,0.25,49,170.5
2096,G#6,421.0,0.25,49,170.5
2097,B5,421.0,0.25,49,170.5
2098,G#4,421.0,0.25,34,170.5
2099,E4,421.0,0.25,34,170.5
2100,B5,421.5,0.25,45,170.5
2101,B6,421.5,0.25,45,170.5
2102,D6,421.5,0.25,45,170.5
2103,A5,422.0,0.25,50,170.5
2104,A6,422.0,0.25,50,170.5
2105,C#6,422.0,0.25,50,170.5
2106,C#4,422.0,0.25,36,170.5
2107,A4,422.0,0.25,36,170.5
2108,A3,422.0,0.25,36,170.5
2109,E4,422.0,0.25,36,170.5
2110,A4,423.0,0.375,94,170.5
2111,A3,423.0,0.375,94,170.5
2112,A2,423.0,0.375,64,170.5
2113,A1,423.0,0.375,64,170.5
2114,G#4,424.0,0.375,99,170.5
2115,G#3,424.0,0.375,99,170.5
2116,G#2,424.0,0.375,68,170.5
2117,G#1,424.0,0.375,68,170.5
2118,F4,425.0,0.375,94,170.5
2119,F3,425.0,0.375,94,170.5
2120,F2,425.0,0.375,64,170.5
2121,F1,425.0,0.375,64,170.5
2122,E4,426.0,0.375,99,170.5
2123,E3,426.0,0.375,99,170.5
2124,E2,426.0,0.375,68,170.5
2125,E1,426.0,0.375,68,170.5
2126,D4,427.0,0.375,94,170.5
2127,D3,427.0,0.375,94,170.5
2128,D2,427.0,0.375,64,170.5
2129,D1,427.0,0.375,64,170.5
2130,C#4,428.0,1.5,104,170.5
2131,C#3,428.0,1.5,104,170.5
2132,C#2,428.0,1.5,72,170.5
2133,C#1,428.0,1.5,72,170.5
2134,D4,429.5,0.5,93,170.5
2135,D3,429.5,0.5,93,170.5
2136,D2,429.5,0.5,64,170.5
2137,D1,429.5,0.5,64,170.5
2138,E4,430.0,0.5,106,170.5
2139,E3,430.0,0.5,106,170.5
2140,E2,430.0,0.5,73,170.5
2141,E1,430.0,0.5,73,170.5
2142,A4,431.5,0.25,96,170.5
2143,A3,431.5,0.25,96,170.5
2144,A2,431.5,0.25,66,170.5
2145,A1,431.5,0.25,66,170.5
2146,E4,432.0,1.5,106,170.5
2147,E3,432.0,1.5,106,170.5
2148,E2,432.0,1.5,73,170.5
2149,E1,432.0,1.5,73,170.5
2150,A4,433.5,0.25,92,170.5
2151,A3,433.5,0.25,92,170.5
2152,A2,433.5,0.25,64,170.5
2153,A1,433.5,0.25,64,170.5
2154,E4,434.0,1.5,102,170.5
2155,E3,434.0,1.5,102,170.5
2156,E2,434.0,1.5,72,170.5
2157,E1,434.0,1.5,72,170.5
2158,A4,435.5,0.25,75,170.5
2159,A3,435.5,0.25,75,170.5
2160,A2,435.5,0.25,52,170.5
2161,A1,435.5,0.25,52,170.5
2162,E4,436.0,0.25,80,170.5
2163,E3,436.0,0.25,80,170.5
2164,E2,436.0,0.25,56,170.5
2165,E1,436.0,0.25,56,170.5
2166,C#4,436.5,0.25,70,170.5
2167,C#3,436.5,0.25,70,170.5
2168,C#2,436.5,0.25,49,170.5
2169,C#1,436.5,0.25,49,170.5
2170,A2,437.0,0.25,65,170.5
2171,A3,437.0,0.25,65,170.5
2172,A0,437.0,0.25,45,170.5
2173,A1,437.0,0.25,45,170.5
2174,C#4,437.5,0.25,70,170.5
2175,C#3,437.5,0.25,70,170.5
2176,C#2,437.5,0.25,49,170.5
2177,C#1,437.5,0.25,49,170.5
2178,E4,438.0,0.25,66,170.5
2179,E3,438.0,0.25,66,170.5
2180,E2,438.0,0.25,46,170.5
2181,E1,438.0,0.25,46,170.5
2182,C#4,438.5,0.25,70,170.5
2183,C#3,438.5,0.25,70,170.5
2184,C#2,438.5,0.25,49,170.5
2185,C#1,438.5,0.25,49,170.5
2186,E4,439.0,0.25,75,170.5
2187,E3,439.0,0.25,75,170.5
2188,E2,439.0,0.25,52,170.5
2189,E1,439.0,0.25,52,170.5
2190,A4,439.5,0.25,79,170.5
2191,A3,439.5,0.25,79,170.5
2192,A2,439.5,0.25,54,170.5
2193,A1,439.5,0.25,54,170.5
2194,E4,440.0,2.0,83,170.5
2195,E3,440.0,2.0,83,170.5
2196,E2,440.0,2.0,58,170.5
2197,E1,440.0,2.0,58,170.5
2198,A4,442.0,0.25,78,170.5
2199,A3,442.0,0.25,78,170.5
2200,A2,442.0,0.25,54,170.5
2201,A1,442.0,0.25,54,170.5
2202,F2,442.875,0.625,47,170.5
2203,C3,442.938,0.562,51,170.5
2204,A3,443.0,0.5,58,170.5
2205,A5,443.0,0.5,66,170.5
2206,A4,443.0,0.5,66,170.5
2207,C5,443.0,0.5,66,170.5
2208,E2,443.875,0.125,46,170.5
2209,C3,443.938,0.062,48,170.5
2210,G5,444.0,0.5,70,170.5
2211,G3,444.0,0.5,58,170.5
2212,E2,444.0,0.5,46,170.5
2213,C3,444.0,0.5,48,170.5
2214,G4,444.0,1.0,59,170.5
2215,C5,444.0,1.0,59,170.5
2216,E5,444.5,0.5,65,170.5
2217,F2,444.875,0.625,47,170.5
2218,C3,444.938,0.562,51,170.5
2219,F5,445.0,0.5,70,170.5
2220,A3,445.0,0.5,54,170.5
2221,F4,445.0,1.0,59,170.5
2222,A4,445.0,1.0,59,170.5
2223,D5,445.5,0.5,64,170.5
2224,G2,445.875,0.625,52,170.5
2225,E3,445.938,0.562,55,170.5
2226,E5,446.0,0.5,70,170.5
2227,C4,446.0,0.5,56,170.5
2228,E4,446.0,1.0,59,170.5
2229,G4,446.0,1.0,59,170.5
2230,C5,446.5,0.5,62,170.5
2231,G2,446.875,0.625,45,170.5
2232,F3,446.938,0.562,47,170.5
2233,D5,447.0,0.5,66,170.5
2234,B3,447.0,0.5,51,170.5
2235,D4,447.0,1.0,56,170.5
2236,F4,447.0,1.0,56,170.5
2237,B4,447.5,0.5,60,170.5
2238,C3,447.875,0.125,45,170.5
2239,G3,447.938,0.062,1,170.5
2240,E4,448.0,0.5,40,170.5
2241,C5,448.0,0.25,57,170.5
2242,C4,448.0,0.5,59,170.5
2243,C3,448.0,0.5,45,170.5
2244,G3,448.0,0.5,1,170.5
2245,D5,448.25,0.25,53,170.5
2246,C5,448.5,0.25,57,170.5
2247,B4,448.75,0.25,53,170.5
2248,C5,449.0,0.25,54,170.5
2249,E4,449.0,0.25,45,170.5
2250,E5,449.25,0.25,55,170.5
2251,G4,449.25,0.25,46,170.5
2252,G5,449.5,0.25,56,170.5
2253,C5,449.5,0.25,47,170.5
2254,B5,449.75,167/1000,58,170.5
2255,D5,449.75,0.25,49,170.5
2256,D6,449.917,83/1000,53,170.5
2257,C6,450.0,0.25,61,170.5
2258,E5,450.0,0.25,49,170.5
2259,B5,450.25,0.25,57,170.5
2260,C6,450.5,0.25,57,170.5
2261,D6,450.75,0.25,61,170.5
2262,G3,450.875,0.625,47,170.5
2263,F4,450.938,0.562,51,170.5
2264,F5,451.0,0.5,40,170.5
2265,E6,451.0,0.25,63,170.5
2266,B4,451.0,0.5,59,170.5
2267,D6,451.75,0.25,60,170.5
2268,E5,452.0,0.5,40,170.5
2269,C6,452.0,0.25,57,170.5
2270,C4,452.0,0.5,35,170.5
2271,G4,452.0,0.5,35,170.5
2272,C5,452.0,0.5,35,170.5
2273,D6,452.25,0.25,53,170.5
2274,C6,452.5,0.25,57,170.5
2275,B5,452.75,0.25,53,170.5
2276,C6,453.0,0.25,54,170.5
2277,E5,453.0,0.25,45,170.5
2278,E6,453.25,0.25,55,170.5
2279,G5,453.25,0.25,46,170.5
2280,G6,453.5,0.25,56,170.5
2281,C6,453.5,0.25,47,170.5
2282,B6,453.75,167/1000,58,170.5
2283,D6,453.75,0.25,49,170.5
2284,D7,453.917,83/1000,53,170.5
2285,C7,454.0,0.25,61,170.5
2286,E6,454.0,0.25,49,170.5
2287,B6,454.25,0.25,57,170.5
2288,C7,454.5,0.25,57,170.5
2289,D7,454.75,0.25,61,170.5
2290,G4,454.875,0.625,47,170.5
2291,F5,454.938,0.562,51,170.5
2292,F6,455.0,0.5,40,170.5
2293,E7,455.0,0.25,63,170.5
2294,B5,455.0,0.5,59,170.5
2295,D7,455.75,0.25,60,170.5
2296,C7,456.0,0.25,61,170.5
2297,C6,456.0,0.25,45,170.5
2298,C5,456.0,0.25,45,170.5
2299,E5,456.0,0.25,45,170.5
2300,E6,456.25,0.25,58,170.5
2301,C7,456.5,0.25,58,170.5
2302,E7,456.75,0.25,58,170.5
2303,G7,457.0,0.25,64,170.5
2304,G4,457.0,0.25,50,170.5
2305,G6,457.25,0.25,58,170.5
2306,B6,457.5,0.25,58,170.5
2307,B5,457.5,0.25,41,170.5
2308,F5,457.5,0.25,41,170.5
2309,D5,457.5,0.25,41,170.5
2310,G6,457.75,0.25,58,170.5
2311,C7,458.0,0.25,65,170.5
2312,C5,458.0,0.25,50,170.5
2313,E6,458.25,0.25,59,170.5
2314,C7,458.5,0.25,59,170.5
2315,C6,458.5,0.25,41,170.5
2316,G5,458.5,0.25,41,170.5
2317,E5,458.5,0.25,41,170.5
2318,E7,458.75,0.25,59,170.5
2319,G7,459.0,0.25,65,170.5
2320,G4,459.0,0.25,50,170.5
2321,G6,459.25,0.25,60,170.5
2322,B6,459.5,0.25,60,170.5
2323,B5,459.5,0.25,41,170.5
2324,F5,459.5,0.25,41,170.5
2325,D5,459.5,0.25,41,170.5
2326,G6,459.75,0.25,60,170.5
2327,C7,460.0,0.25,61,170.5
2328,C5,460.0,0.25,50,170.5
2329,E6,460.25,0.25,58,170.5
2330,C7,460.5,0.25,58,170.5
2331,C6,460.5,0.25,41,170.5
2332,E5,460.5,0.25,41,170.5
2333,G5,460.5,0.25,41,170.5
2334,E7,460.75,0.25,58,170.5
2335,G7,461.0,0.25,64,170.5
2336,G4,461.0,0.25,50,170.5
2337,G6,461.25,0.25,58,170.5
2338,B6,461.5,0.25,58,170.5
2339,B5,461.5,0.25,41,170.5
2340,F5,461.5,0.25,41,170.5
2341,D5,461.5,0.25,41,170.5
2342,G6,461.75,0.25,58,170.5
2343,C7,462.0,0.25,65,170.5
2344,C5,462.0,0.25,50,170.5
2345,E6,462.25,0.25,59,170.5
2346,C7,462.5,0.25,59,170.5
2347,C6,462.5,0.25,41,170.5
2348,G5,462.5,0.25,41,170.5
2349,E5,462.5,0.25,41,170.5
2350,E7,462.75,0.25,59,170.5
2351,G7,463.0,0.25,65,170.5
2352,G4,463.0,0.25,50,170.5
2353,G6,463.25,0.25,60,170.5
2354,B6,463.5,0.25,60,170.5
2355,B5,463.5,0.25,41,170.5
2356,F5,463.5,0.25,41,170.5
2357,D5,463.5,0.25,41,170.5
2358,G6,463.75,0.25,60,170.5
2359,C5,463.906,0.094,46,170.5
2360,E5,463.906,0.094,46,170.5
2361,G5,463.969,0.031,49,170.5
2362,C6,463.969,0.031,49,170.5
2363,C7,464.0,0.25,64,170.5
2364,C5,464.0,0.219,46,170.5
2365,E5,464.0,0.219,46,170.5
2366,G5,464.0,0.219,49,170.5
2367,C6,464.0,0.219,49,170.5
2368,C5,465.0,0.25,46,170.5
2369,E4,465.0,0.25,27,170.5
2370,C#5,465.25,0.25,46,170.5
2371,F4,465.25,0.25,28,170.5
2372,D5,465.5,0.25,47,170.5
2373,F#4,465.5,0.25,29,170.5
2374,E-5,465.75,0.25,48,170.5
2375,G4,465.75,0.25,30,170.5
2376,E5,466.0,0.25,49,170.5
2377,G#4,466.0,0.25,31,170.5
2378,F5,466.25,0.25,49,170.5
2379,A4,466.25,0.25,32,170.5
2380,F#5,466.5,0.25,50,170.5
2381,B-4,466.5,0.25,33,170.5
2382,G5,466.75,0.25,51,170.5
2383,B4,466.75,0.25,34,170.5
2384,G#5,467.0,0.25,52,170.5
2385,C5,467.0,0.25,35,170.5
2386,A5,467.25,0.25,52,170.5
2387,C#5,467.25,0.25,36,170.5
2388,B-5,467.5,0.25,53,170.5
2389,D5,467.5,0.25,37,170.5
2390,B5,467.75,0.25,54,170.5
2391,E-5,467.75,0.25,38,170.5
2392,C6,468.0,0.25,55,170.5
2393,E5,468.0,0.25,40,170.5
2394,C#6,468.25,0.25,55,170.5
2395,F5,468.25,0.25,41,170.5
2396,D6,468.5,0.25,56,170.5
2397,F#5,468.5,0.25,42,170.5
2398,E-6,468.75,0.25,57,170.5
2399,G5,468.75,0.25,43,170.5
2400,E6,469.0,0.25,57,170.5
2401,G#5,469.0,0.25,44,170.5
2402,F6,469.25,0.25,58,170.5
2403,A5,469.25,0.25,45,170.5
2404,F#6,469.5,0.25,59,170.5
2405,B-5,469.5,0.25,46,170.5
2406,G6,469.75,0.25,60,170.5
2407,B5,469.75,0.25,47,170.5
2408,G#6,470.0,1/5,60,170.5
2409,C6,470.0,1/5,48,170.5
2410,A6,470.2,1/5,61,170.5
2411,C#6,470.2,1/5,49,170.5
2412,B-6,470.4,1/5,62,170.5
2413,D6,470.4,1/5,50,170.5
2414,B6,470.6,1/5,62,170.5
2415,E-6,470.6,1/5,51,170.5
2416,C7,470.8,1/5,66,170.5
2417,E6,470.8,1/5,52,170.5
2418,C#7,471.0,0.25,57,170.5
2419,E7,471.25,0.25,40,170.5
2420,C#7,471.5,0.25,45,170.5
2421,E6,471.75,0.25,39,170.5
2422,A5,472.0,0.25,41,170.5
2423,C#6,472.25,0.25,38,170.5
2424,A5,472.5,0.25,41,170.5
2425,C#6,472.75,0.25,39,170.5
2426,A5,473.0,0.25,41,170.5
2427,C#5,473.0,0.25,44,170.5
2428,C#6,473.25,0.25,39,170.5
2429,A5,473.5,0.25,41,170.5
2430,E5,473.5,0.25,39,170.5
2431,C#6,473.75,0.25,38,170.5
2432,A5,474.0,0.25,36,170.5
2433,A4,474.0,0.25,39,170.5
2434,A3,474.0,0.25,39,170.5
2435,E4,474.0,0.25,39,170.5
2436,C#6,474.25,0.25,38,170.5
2437,E6,474.5,0.25,39,170.5
2438,A6,474.75,0.25,43,170.5
2439,C#7,475.0,0.25,45,170.5
2440,E7,475.25,0.25,51,170.5
2441,C#7,475.5,0.25,49,170.5
2442,E6,475.75,0.25,41,170.5
2443,A5,476.0,0.25,41,170.5
2444,C#6,476.25,0.25,38,170.5
2445,A5,476.5,0.25,41,170.5
2446,C#6,476.75,0.25,39,170.5
2447,A5,477.0,0.25,41,170.5
2448,C#5,477.0,0.25,44,170.5
2449,C#6,477.25,0.25,39,170.5
2450,A5,477.5,0.25,41,170.5
2451,E5,477.5,0.25,39,170.5
2452,C#6,477.75,0.25,38,170.5
2453,A5,478.0,0.25,36,170.5
2454,A4,478.0,0.25,39,170.5
2455,A3,478.0,0.25,39,170.5
2456,E4,478.0,0.25,39,170.5
2457,C#6,478.25,0.25,38,170.5
2458,E6,478.5,0.25,40,170.5
2459,A6,478.75,0.25,44,170.5
2460,C#7,479.0,0.25,48,170.5
2461,C#5,479.0,0.25,45,170.5
2462,A6,479.25,0.25,52,170.5
2463,G#6,479.5,0.25,49,170.5
2464,B5,479.5,0.25,37,170.5
2465,F5,479.5,0.25,37,170.5
2466,C#6,479.75,0.25,41,170.5
2467,C#7,480.0,0.25,46,170.5
2468,F#5,480.0,0.25,45,170.5
2469,G#6,480.25,0.25,40,170.5
2470,F#6,480.5,0.25,40,170.5
2471,A5,480.5,0.25,39,170.5
2472,C#6,480.75,0.25,40,170.5
2473,C#7,481.0,0.25,45,170.5
2474,C#5,481.0,0.25,44,170.5
2475,F#6,481.25,0.25,39,170.5
2476,F6,481.5,0.25,39,170.5
2477,B5,481.5,0.25,39,170.5
2478,G#5,481.5,0.25,39,170.5
2479,C#6,481.75,0.25,39,170.5
2480,C#7,482.0,0.25,45,170.5
2481,F#5,482.0,0.25,44,170.5
2482,G#6,482.25,0.25,39,170.5
2483,F#6,482.5,0.25,39,170.5
2484,A5,482.5,0.25,39,170.5
2485,C#6,482.75,0.25,39,170.5
2486,C#7,483.0,0.25,42,170.5
2487,C#5,483.0,0.25,44,170.5
2488,F#6,483.25,0.25,38,170.5
2489,F6,483.5,0.25,38,170.5
2490,B5,483.5,0.25,40,170.5
2491,G#5,483.5,0.25,40,170.5
2492,C#6,483.75,0.25,38,170.5
2493,C#7,484.0,0.25,52,170.5
2494,A5,484.0,0.25,44,170.5
2495,F#5,484.0,0.25,44,170.5
2496,G#6,484.25,0.25,49,170.5
2497,F#6,484.5,0.25,48,170.5
2498,C#6,484.75,0.25,46,170.5
2499,A5,485.0,0.25,44,170.5
2500,F#5,485.25,0.25,44,170.5
2501,C#5,485.5,0.25,42,170.5
2502,A4,485.75,0.25,40,170.5
2503,F#4,486.0,0.25,37,170.5
2504,F#7,487.0,0.25,43,170.5
2505,A4,487.0,0.25,45,170.5
2506,A6,487.25,0.25,45,170.5
2507,E6,487.5,0.25,44,170.5
2508,G5,487.5,0.25,37,170.5
2509,E5,487.5,0.25,37,170.5
2510,C#7,487.75,0.25,41,170.5
2511,E7,488.0,0.25,46,170.5
2512,D5,488.0,0.25,45,170.5
2513,A6,488.25,0.25,40,170.5
2514,D6,488.5,0.25,40,170.5
2515,F#5,488.5,0.25,39,170.5
2516,A5,488.5,0.25,39,170.5
2517,D7,488.75,0.25,40,170.5
2518,A6,489.0,0.25,45,170.5
2519,A4,489.0,0.25,44,170.5
2520,C#6,489.25,0.25,39,170.5
2521,A6,489.5,0.25,39,170.5
2522,G5,489.5,0.25,39,170.5
2523,E5,489.5,0.25,39,170.5
2524,C#7,489.75,0.25,39,170.5
2525,E7,490.0,0.25,45,170.5
2526,D5,490.0,0.25,44,170.5
2527,A6,490.25,0.25,39,170.5
2528,D6,490.5,0.25,39,170.5
2529,F#5,490.5,0.25,39,170.5
2530,A5,490.5,0.25,39,170.5
2531,D7,490.75,0.25,39,170.5
2532,A6,491.0,0.25,42,170.5
2533,A4,491.0,0.25,44,170.5
2534,C#6,491.25,0.25,38,170.5
2535,A6,491.5,0.25,38,170.5
2536,G5,491.5,0.25,40,170.5
2537,E5,491.5,0.25,40,170.5
2538,C#7,491.75,0.25,38,170.5
2539,E7,492.0,0.25,52,170.5
2540,F#5,492.0,0.25,44,170.5
2541,D5,492.0,0.25,44,170.5
2542,D7,492.25,0.25,50,170.5
2543,A6,492.5,0.25,48,170.5
2544,D6,492.75,0.25,45,170.5
2545,A5,493.0,0.25,44,170.5
2546,F#5,493.25,0.25,44,170.5
2547,D5,493.5,0.25,42,170.5
2548,A4,493.75,0.25,40,170.5
2549,D4,494.0,0.25,37,170.5
2550,D7,495.0,0.25,51,170.5
2551,F#7,495.25,0.25,45,170.5
2552,D7,495.5,0.25,51,170.5
2553,F#6,495.75,0.25,41,170.5
2554,B5,496.0,0.25,49,170.5
2555,D6,496.25,0.25,43,170.5
2556,B5,496.5,0.25,41,170.5
2557,D6,496.75,0.25,39,170.5
2558,B5,497.0,0.25,41,170.5
2559,D5,497.0,0.25,44,170.5
2560,D6,497.25,0.25,39,170.5
2561,B5,497.5,0.25,41,170.5
2562,F#5,497.5,0.25,39,170.5
2563,D6,497.75,0.25,38,170.5
2564,B5,498.0,0.25,36,170.5
2565,B4,498.0,0.25,39,170.5
2566,B3,498.0,0.25,39,170.5
2567,F#4,498.0,0.25,39,170.5
2568,D6,498.25,0.25,38,170.5
2569,F#6,498.5,0.25,41,170.5
2570,B6,498.75,0.25,44,170.5
2571,D7,499.0,0.25,47,170.5
2572,F#7,499.25,0.25,50,170.5
2573,D7,499.5,0.25,49,170.5
2574,F#6,499.75,0.25,45,170.5
2575,B5,500.0,0.25,41,170.5
2576,D6,500.25,0.25,38,170.5
2577,B5,500.5,0.25,41,170.5
2578,D6,500.75,0.25,39,170.5
2579,B5,501.0,0.25,41,170.5
2580,D5,501.0,0.25,44,170.5
2581,D6,501.25,0.25,39,170.5
2582,B5,501.5,0.25,41,170.5
2583,F#5,501.5,0.25,39,170.5
2584,D6,501.75,0.25,38,170.5
2585,B5,502.0,0.25,36,170.5
2586,B4,502.0,0.25,39,170.5
2587,B3,502.0,0.25,39,170.5
2588,F#4,502.0,0.25,39,170.5
2589,D6,502.25,0.25,38,170.5
2590,F#6,502.5,0.25,41,170.5
2591,B6,502.75,0.25,44,170.5
2592,D7,503.0,0.25,47,170.5
2593,F#5,503.0,1.0,52,170.5
2594,D6,503.0,1.0,52,170.5
2595,F#6,503.25,0.25,50,170.5
2596,B6,503.5,0.25,48,170.5
2597,D7,503.75,0.25,45,170.5
2598,C#7,504.0,0.25,46,170.5
2599,E5,504.0,0.25,50,170.5
2600,C#6,504.0,0.25,50,170.5
2601,E6,504.25,0.25,40,170.5
2602,B6,504.5,0.25,40,170.5
2603,D5,504.5,0.25,41,170.5
2604,B5,504.5,0.25,41,170.5
2605,E7,504.75,0.25,40,170.5
2606,A6,505.0,0.25,45,170.5
2607,C#5,505.0,1.0,51,170.5
2608,A5,505.0,1.0,51,170.5
2609,E6,505.25,0.25,39,170.5
2610,C#7,505.5,0.25,39,170.5
2611,E7,505.75,0.25,39,170.5
2612,B6,506.0,0.25,45,170.5
2613,D5,506.0,0.25,52,170.5
2614,B5,506.0,0.25,52,170.5
2615,E6,506.25,0.25,39,170.5
2616,A6,506.5,0.25,39,170.5
2617,C#5,506.5,0.25,41,170.5
2618,A5,506.5,0.25,41,170.5
2619,E7,506.75,0.25,39,170.5
2620,G#6,507.0,0.25,42,170.5
2621,B4,507.0,1.0,49,170.5
2622,G#5,507.0,1.0,49,170.5
2623,E6,507.25,0.25,38,170.5
2624,B6,507.5,0.25,38,170.5
2625,E7,507.75,0.25,38,170.5
2626,A6,508.0,0.25,44,170.5
2627,A4,508.0,0.25,47,170.5
2628,A5,508.0,0.25,47,170.5
2629,C#5,508.0,0.25,47,170.5
2630,E6,508.25,0.25,42,170.5
2631,C#7,508.5,0.25,42,170.5
2632,E7,508.75,0.25,42,170.5
2633,G#6,509.0,0.25,44,170.5
2634,E4,509.0,0.25,45,170.5
2635,G#4,509.0,0.25,45,170.5
2636,B4,509.0,0.25,45,170.5
2637,E5,509.0,0.25,45,170.5
2638,E6,509.25,0.25,44,170.5
2639,B6,509.5,0.25,42,170.5
2640,E7,509.75,0.25,40,170.5
2641,A6,510.0,0.25,37,170.5
2642,A3,510.0,0.25,46,170.5
2643,C#4,510.0,0.25,46,170.5
2644,E4,510.0,0.25,46,170.5
2645,A4,510.0,0.25,46,170.5
2646,A4,511.0,0.375,94,170.5
2647,A3,511.0,0.375,94,170.5
2648,A2,511.0,0.375,64,170.5
2649,A1,511.0,0.375,64,170.5
2650,G#4,512.0,0.375,99,170.5
2651,G#3,512.0,0.375,99,170.5
2652,G#2,512.0,0.375,68,170.5
2653,G#1,512.0,0.375,68,170.5
2654,F4,513.0,0.375,94,170.5
2655,F3,513.0,0.375,94,170.5
2656,F2,513.0,0.375,64,170.5
2657,F1,513.0,0.375,64,170.5
2658,E4,514.0,0.375,99,170.5
2659,E3,514.0,0.375,99,170.5
2660,E2,514.0,0.375,68,170.5
2661,E1,514.0,0.375,68,170.5
2662,D4,515.0,0.375,94,170.5
2663,D3,515.0,0.375,94,170.5
2664,D2,515.0,0.375,64,170.5
2665,D1,515.0,0.375,64,170.5
2666,C#4,516.0,1.5,104,170.5
2667,C#3,516.0,1.5,104,170.5
2668,C#2,516.0,1.5,72,170.5
2669,C#1,516.0,1.5,72,170.5
2670,D4,517.5,0.5,93,170.5
2671,D3,517.5,0.5,93,170.5
2672,D2,517.5,0.5,64,170.5
2673,D1,517.5,0.5,64,170.5
2674,E4,518.0,0.5,106,170.5
2675,E3,518.0,0.5,106,170.5
2676,E2,518.0,0.5,73,170.5
2677,E1,518.0,0.5,73,170.5
2678,A4,519.5,0.25,96,170.5
2679,A3,519.5,0.25,96,170.5
2680,A2,519.5,0.25,66,170.5
2681,A1,519.5,0.25,66,170.5
2682,E4,520.0,1.5,106,170.5
2683,E3,520.0,1.5,106,170.5
2684,E2,520.0,1.5,73,170.5
2685,E1,520.0,1.5,73,170.5
2686,A4,521.5,0.25,92,170.5
2687,A3,521.5,0.25,92,170.5
2688,A2,521.5,0.25,64,170.5
2689,A1,521.5,0.25,64,170.5
2690,E4,522.0,1.5,102,170.5
2691,E3,522.0,1.5,102,170.5
2692,E2,522.0,1.5,72,170.5
2693,E1,522.0,1.5,72,170.5
2694,A4,523.5,0.25,75,170.5
2695,A3,523.5,0.25,75,170.5
2696,A2,523.5,0.25,52,170.5
2697,A1,523.5,0.25,52,170.5
2698,E4,524.0,0.25,80,170.5
2699,E3,524.0,0.25,80,170.5
2700,E2,524.0,0.25,56,170.5
2701,E1,524.0,0.25,56,170.5
2702,C#4,524.5,0.25,70,170.5
2703,C#3,524.5,0.25,70,170.5
2704,C#2,524.5,0.25,49,170.5
2705,C#1,524.5,0.25,49,170.5
2706,A2,525.0,0.25,65,170.5
2707,A3,525.0,0.25,65,170.5
2708,A0,525.0,0.25,45,170.5
2709,A1,525.0,0.25,45,170.5
2710,C#4,525.5,0.25,70,170.5
2711,C#3,525.5,0.25,70,170.5
2712,C#2,525.5,0.25,49,170.5
2713,C#1,525.5,0.25,49,170.5
2714,E4,526.0,0.25,66,170.5
2715,E3,526.0,0.25,66,170.5
2716,E2,526.0,0.25,46,170.5
2717,E1,526.0,0.25,46,170.5
2718,C#4,526.5,0.25,70,170.5
2719,C#3,526.5,0.25,70,170.5
2720,C#2,526.5,0.25,49,170.5
2721,C#1,526.5,0.25,49,170.5
2722,E4,527.0,0.25,75,170.5
2723,E3,527.0,0.25,75,170.5
2724,E2,527.0,0.25,52,170.5
2725,E1,527.0,0.25,52,170.5
2726,A4,527.5,0.25,79,170.5
2727,A3,527.5,0.25,79,170.5
2728,A2,527.5,0.25,54,170.5
2729,A1,527.5,0.25,54,170.5
2730,E4,528.0,2.0,83,170.5
2731,E3,528.0,2.0,83,170.5
2732,E2,528.0,2.0,58,170.5
2733,E1,528.0,2.0,58,170.5
2734,A4,530.0,0.25,78,170.5
2735,A3,530.0,0.25,78,170.5
2736,A2,530.0,0.25,54,170.5
2737,A1,530.0,0.25,54,170.5
2738,F2,530.875,0.625,47,170.5
2739,C3,530.938,0.562,51,170.5
2740,A3,531.0,0.5,58,170.5
2741,A5,531.0,0.5,66,170.5
2742,A4,531.0,0.5,66,170.5
2743,C5,531.0,0.5,66,170.5
2744,E2,531.875,0.125,46,170.5
2745,C3,531.938,0.062,48,170.5
2746,G5,532.0,0.5,70,170.5
2747,G3,532.0,0.5,58,170.5
2748,E2,532.0,0.5,46,170.5
2749,C3,532.0,0.5,48,170.5
2750,G4,532.0,1.0,59,170.5
2751,C5,532.0,1.0,59,170.5
2752,E5,532.5,0.5,65,170.5
2753,F2,532.875,0.625,47,170.5
2754,C3,532.938,0.562,51,170.5
2755,F5,533.0,0.5,70,170.5
2756,A3,533.0,0.5,54,170.5
2757,F4,533.0,1.0,59,170.5
2758,A4,533.0,1.0,59,170.5
2759,D5,533.5,0.5,64,170.5
2760,G2,533.875,0.625,52,170.5
2761,E3,533.938,0.562,55,170.5
2762,E5,534.0,0.5,70,170.5
2763,C4,534.0,0.5,56,170.5
2764,E4,534.0,1.0,59,170.5
2765,G4,534.0,1.0,59,170.5
2766,C5,534.5,0.5,62,170.5
2767,G2,534.875,0.625,45,170.5
2768,F3,534.938,0.562,47,170.5
2769,D5,535.0,0.5,66,170.5
2770,B3,535.0,0.5,51,170.5
2771,D4,535.0,1.0,56,170.5
2772,F4,535.0,1.0,56,170.5
2773,B4,535.5,0.5,60,170.5
2774,C3,535.875,0.125,45,170.5
2775,G3,535.938,0.062,1,170.5
2776,E4,536.0,0.5,40,170.5
2777,C5,536.0,0.25,57,170.5
2778,C4,536.0,0.5,59,170.5
2779,C3,536.0,0.5,45,170.5
2780,G3,536.0,0.5,1,170.5
2781,D5,536.25,0.25,53,170.5
2782,C5,536.5,0.25,57,170.5
2783,B4,536.75,0.25,53,170.5
2784,C5,537.0,0.25,54,170.5
2785,E4,537.0,0.25,45,170.5
2786,E5,537.25,0.25,55,170.5
2787,G4,537.25,0.25,46,170.5
2788,G5,537.5,0.25,56,170.5
2789,C5,537.5,0.25,47,170.5
2790,B5,537.75,167/1000,58,170.5
2791,D5,537.75,0.25,49,170.5
2792,D6,537.917,83/1000,53,170.5
2793,C6,538.0,0.25,61,170.5
2794,E5,538.0,0.25,49,170.5
2795,B5,538.25,0.25,57,170.5
2796,C6,538.5,0.25,57,170.5
2797,D6,538.75,0.25,61,170.5
2798,G3,538.875,0.625,47,170.5
2799,F4,538.938,0.562,51,170.5
2800,F5,539.0,0.5,40,170.5
2801,E6,539.0,0.25,63,170.5
2802,B4,539.0,0.5,59,170.5
2803,D6,539.75,0.25,60,170.5
2804,E5,540.0,0.5,40,170.5
2805,C6,540.0,0.25,57,170.5
2806,C4,540.0,0.5,35,170.5
2807,G4,540.0,0.5,35,170.5
2808,C5,540.0,0.5,35,170.5
2809,D6,540.25,0.25,53,170.5
2810,C6,540.5,0.25,57,170.5
2811,B5,540.75,0.25,53,170.5
2812,C6,541.0,0.25,54,170.5
2813,E5,541.0,0.25,45,170.5
2814,E6,541.25,0.25,55,170.5
2815,G5,541.25,0.25,46,170.5
2816,G6,541.5,0.25,56,170.5
2817,C6,541.5,0.25,47,170.5
2818,B6,541.75,167/1000,58,170.5
2819,D6,541.75,0.25,49,170.5
2820,D7,541.917,83/1000,53,170.5
2821,C7,542.0,0.25,61,170.5
2822,E6,542.0,0.25,49,170.5
2823,B6,542.25,0.25,57,170.5
2824,C7,542.5,0.25,57,170.5
2825,D7,542.75,0.25,61,170.5
2826,G4,542.875,0.625,47,170.5
2827,F5,542.938,0.562,51,170.5
2828,F6,543.0,0.5,40,170.5
2829,E7,543.0,0.25,63,170.5
2830,B5,543.0,0.5,59,170.5
2831,D7,543.75,0.25,60,170.5
2832,C7,544.0,0.25,61,170.5
2833,C6,544.0,0.25,45,170.5
2834,C5,544.0,0.25,45,170.5
2835,E5,544.0,0.25,45,170.5
2836,E6,544.25,0.25,58,170.5
2837,C7,544.5,0.25,58,170.5
2838,E7,544.75,0.25,58,170.5
2839,G7,545.0,0.25,64,170.5
2840,G4,545.0,0.25,50,170.5
2841,G6,545.25,0.25,58,170.5
2842,B6,545.5,0.25,58,170.5
2843,B5,545.5,0.25,41,170.5
2844,F5,545.5,0.25,41,170.5
2845,D5,545.5,0.25,41,170.5
2846,G6,545.75,0.25,58,170.5
2847,C7,546.0,0.25,65,170.5
2848,C5,546.0,0.25,50,170.5
2849,E6,546.25,0.25,59,170.5
2850,C7,546.5,0.25,59,170.5
2851,C6,546.5,0.25,41,170.5
2852,G5,546.5,0.25,41,170.5
2853,E5,546.5,0.25,41,170.5
2854,E7,546.75,0.25,59,170.5
2855,G7,547.0,0.25,65,170.5
2856,G4,547.0,0.25,50,170.5
2857,G6,547.25,0.25,60,170.5
2858,B6,547.5,0.25,60,170.5
2859,B5,547.5,0.25,41,170.5
2860,F5,547.5,0.25,41,170.5
2861,D5,547.5,0.25,41,170.5
2862,G6,547.75,0.25,60,170.5
2863,C7,548.0,0.25,61,170.5
2864,C5,548.0,0.25,50,170.5
2865,E6,548.25,0.25,58,170.5
2866,C7,548.5,0.25,58,170.5
2867,C6,548.5,0.25,41,170.5
2868,G5,548.5,0.25,41,170.5
2869,E5,548.5,0.25,41,170.5
2870,E7,548.75,0.25,58,170.5
2871,G7,549.0,0.25,64,170.5
2872,G4,549.0,0.25,50,170.5
2873,G6,549.25,0.25,58,170.5
2874,B6,549.5,0.25,58,170.5
2875,B5,549.5,0.25,41,170.5
2876,F5,549.5,0.25,41,170.5
2877,D5,549.5,0.25,41,170.5
2878,G6,549.75,0.25,58,170.5
2879,C7,550.0,0.25,65,170.5
2880,C5,550.0,0.25,50,170.5
2881,E6,550.25,0.25,59,170.5
2882,C7,550.5,0.25,59,170.5
2883,C6,550.5,0.25,41,170.5
2884,G5,550.5,0.25,41,170.5
2885,E5,550.5,0.25,41,170.5
2886,E7,550.75,0.25,59,170.5
2887,G7,551.0,0.25,65,170.5
2888,G4,551.0,0.25,50,170.5
2889,G6,551.25,0.25,60,170.5
2890,B6,551.5,0.25,60,170.5
2891,B5,551.5,0.25,41,170.5
2892,F5,551.5,0.25,41,170.5
2893,D5,551.5,0.25,41,170.5
2894,G6,551.75,0.25,60,170.5
2895,C5,551.906,0.094,46,170.5
2896,E5,551.906,0.094,46,170.5
2897,G5,551.969,0.031,49,170.5
2898,C6,551.969,0.031,49,170.5
2899,C7,552.0,0.25,64,170.5
2900,C5,552.0,0.219,46,170.5
2901,E5,552.0,0.219,46,170.5
2902,G5,552.0,0.219,49,170.5
2903,C6,552.0,0.219,49,170.5
2904,C5,553.0,0.25,46,170.5
2905,E4,553.0,0.25,27,170.5
2906,C#5,553.25,0.25,46,170.5
2907,F4,553.25,0.25,28,170.5
2908,D5,553.5,0.25,47,170.5
2909,F#4,553.5,0.25,29,170.5
2910,E-5,553.75,0.25,48,170.5
2911,G4,553.75,0.25,30,170.5
2912,E5,554.0,0.25,49,170.5
2913,G#4,554.0,0.25,31,170.5
2914,F5,554.25,0.25,49,170.5
2915,A4,554.25,0.25,32,170.5
2916,F#5,554.5,0.25,50,170.5
2917,B-4,554.5,0.25,33,170.5
2918,G5,554.75,0.25,51,170.5
2919,B4,554.75,0.25,34,170.5
2920,G#5,555.0,0.25,52,170.5
2921,C5,555.0,0.25,35,170.5
2922,A5,555.25,0.25,52,170.5
2923,C#5,555.25,0.25,36,170.5
2924,B-5,555.5,0.25,53,170.5
2925,D5,555.5,0.25,37,170.5
2926,B5,555.75,0.25,54,170.5
2927,E-5,555.75,0.25,38,170.5
2928,C6,556.0,0.25,55,170.5
2929,E5,556.0,0.25,40,170.5
2930,C#6,556.25,0.25,55,170.5
2931,F5,556.25,0.25,41,170.5
2932,D6,556.5,0.25,56,170.5
2933,F#5,556.5,0.25,42,170.5
2934,E-6,556.75,0.25,57,170.5
2935,G5,556.75,0.25,43,170.5
2936,E6,557.0,0.25,57,170.5
2937,G#5,557.0,0.25,44,170.5
2938,F6,557.25,0.25,58,170.5
2939,A5,557.25,0.25,45,170.5
2940,F#6,557.5,0.25,59,170.5
2941,B-5,557.5,0.25,46,170.5
2942,G6,557.75,0.25,60,170.5
2943,B5,557.75,0.25,47,170.5
2944,G#6,558.0,1/5,60,170.5
2945,C6,558.0,1/5,48,170.5
2946,A6,558.2,1/5,61,170.5
2947,C#6,558.2,1/5,49,170.5
2948,B-6,558.4,1/5,62,170.5
2949,D6,558.4,1/5,50,170.5
2950,B6,558.6,1/5,62,170.5
2951,E-6,558.6,1/5,51,170.5
2952,C7,558.8,1/5,66,170.5
2953,E6,558.8,1/5,52,170.5
2954,C#7,559.0,0.25,57,170.5
2955,E7,559.25,0.25,40,170.5
2956,C#7,559.5,0.25,45,170.5
2957,E6,559.75,0.25,39,170.5
2958,A5,560.0,0.25,41,170.5
2959,C#6,560.25,0.25,38,170.5
2960,A5,560.5,0.25,41,170.5
2961,C#6,560.75,0.25,39,170.5
2962,A5,561.0,0.25,41,170.5
2963,C#5,561.0,0.25,44,170.5
2964,C#6,561.25,0.25,39,170.5
2965,A5,561.5,0.25,41,170.5
2966,E5,561.5,0.25,39,170.5
2967,C#6,561.75,0.25,38,170.5
2968,A5,562.0,0.25,36,170.5
2969,A4,562.0,0.25,39,170.5
2970,A3,562.0,0.25,39,170.5
2971,E4,562.0,0.25,39,170.5
2972,C#6,562.25,0.25,38,170.5
2973,E6,562.5,0.25,39,170.5
2974,A6,562.75,0.25,43,170.5
2975,C#7,563.0,0.25,45,170.5
2976,E7,563.25,0.25,51,170.5
2977,C#7,563.5,0.25,49,170.5
2978,E6,563.75,0.25,41,170.5
2979,A5,564.0,0.25,41,170.5
2980,C#6,564.25,0.25,38,170.5
2981,A5,564.5,0.25,41,170.5
2982,C#6,564.75,0.25,39,170.5
2983,A5,565.0,0.25,41,170.5
2984,C#5,565.0,0.25,44,170.5
2985,C#6,565.25,0.25,39,170.5
2986,A5,565.5,0.25,41,170.5
2987,E5,565.5,0.25,39,170.5
2988,C#6,565.75,0.25,38,170.5
2989,A5,566.0,0.25,36,170.5
2990,A4,566.0,0.25,39,170.5
2991,A3,566.0,0.25,39,170.5
2992,E4,566.0,0.25,39,170.5
2993,C#6,566.25,0.25,38,170.5
2994,E6,566.5,0.25,40,170.5
2995,A6,566.75,0.25,44,170.5
2996,C#5,567.0,0.25,45,170.5
2997,A6,567.0,0.25,46,170.5
2998,C#7,567.0,0.25,46,170.5
2999,D7,567.25,0.25,52,170.5
3000,G#6,567.5,0.25,44,170.5
3001,C#7,567.5,0.25,44,170.5
3002,B5,567.5,0.25,37,170.5
3003,F5,567.5,0.25,37,170.5
3004,D7,567.75,0.25,41,170.5
3005,F#5,568.0,0.25,45,170.5
3006,G#6,568.0,0.25,46,170.5
3007,C#7,568.0,0.25,46,170.5
3008,D7,568.25,0.25,40,170.5
3009,A5,568.5,0.25,39,170.5
3010,F#6,568.5,0.25,40,170.5
3011,C#7,568.5,0.25,40,170.5
3012,D7,568.75,0.25,40,170.5
3013,C#5,569.0,0.25,44,170.5
3014,F#6,569.0,0.25,44,170.5
3015,C#7,569.0,0.25,44,170.5
3016,D7,569.25,0.25,39,170.5
3017,F6,569.5,0.25,39,170.5
3018,C#7,569.5,0.25,39,170.5
3019,B5,569.5,0.25,39,170.5
3020,G#5,569.5,0.25,39,170.5
3021,D7,569.75,0.25,39,170.5
3022,F#5,570.0,0.25,44,170.5
3023,G#6,570.0,0.25,44,170.5
3024,C#7,570.0,0.25,44,170.5
3025,D7,570.25,0.25,39,170.5
3026,A5,570.5,0.25,39,170.5
3027,F#6,570.5,0.25,39,170.5
3028,C#7,570.5,0.25,39,170.5
3029,D7,570.75,0.25,39,170.5
3030,C#5,571.0,0.25,44,170.5
3031,F#6,571.0,0.25,43,170.5
3032,C#7,571.0,0.25,43,170.5
3033,D7,571.25,0.25,38,170.5
3034,F6,571.5,0.25,39,170.5
3035,C#7,571.5,0.25,39,170.5
3036,B5,571.5,0.25,40,170.5
3037,G#5,571.5,0.25,40,170.5
3038,D7,571.75,0.25,38,170.5
3039,C#7,572.0,0.25,52,170.5
3040,A5,572.0,0.25,44,170.5
3041,F#5,572.0,0.25,44,170.5
3042,G#6,572.25,0.25,49,170.5
3043,F#6,572.5,0.25,48,170.5
3044,C#6,572.75,0.25,46,170.5
3045,A5,573.0,0.25,44,170.5
3046,F#5,573.25,0.25,44,170.5
3047,C#5,573.5,0.25,42,170.5
3048,A4,573.75,0.25,40,170.5
3049,F#4,574.0,0.25,37,170.5
3050,F#7,575.0,0.25,43,170.5
3051,A4,575.0,0.25,45,170.5
3052,A6,575.25,0.25,45,170.5
3053,E7,575.5,0.25,44,170.5
3054,G5,575.5,0.25,37,170.5
3055,C#5,575.5,0.25,37,170.5
3056,A6,575.75,0.25,41,170.5
3057,E7,576.0,0.25,46,170.5
3058,D5,576.0,0.25,45,170.5
3059,A6,576.25,0.25,40,170.5
3060,D7,576.5,0.25,40,170.5
3061,F#5,576.5,0.25,39,170.5
3062,A5,576.5,0.25,39,170.5
3063,A6,576.75,0.25,40,170.5
3064,D7,577.0,0.25,45,170.5
3065,A4,577.0,0.25,44,170.5
3066,A6,577.25,0.25,39,170.5
3067,C#7,577.5,0.25,39,170.5
3068,G5,577.5,0.25,39,170.5
3069,E5,577.5,0.25,39,170.5
3070,A6,577.75,0.25,39,170.5
3071,E7,578.0,0.25,45,170.5
3072,D5,578.0,0.25,44,170.5
3073,A6,578.25,0.25,39,170.5
3074,D7,578.5,0.25,39,170.5
3075,F#5,578.5,0.25,39,170.5
3076,A5,578.5,0.25,39,170.5
3077,A6,578.75,0.25,39,170.5
3078,D7,579.0,0.25,42,170.5
3079,A4,579.0,0.25,44,170.5
3080,A6,579.25,0.25,38,170.5
3081,C#7,579.5,0.25,38,170.5
3082,G5,579.5,0.25,40,170.5
3083,E5,579.5,0.25,40,170.5
3084,A6,579.75,0.25,38,170.5
3085,E7,580.0,0.25,52,170.5
3086,F#5,580.0,0.25,44,170.5
3087,D5,580.0,0.25,44,170.5
3088,D7,580.25,0.25,50,170.5
3089,A6,580.5,0.25,48,170.5
3090,D6,580.75,0.25,45,170.5
3091,A5,581.0,0.25,44,170.5
3092,F#5,581.25,0.25,44,170.5
3093,D5,581.5,0.25,42,170.5
3094,A4,581.75,0.25,40,170.5
3095,D4,582.0,0.25,37,170.5
3096,D7,583.0,0.25,51,170.5
3097,F#7,583.25,0.25,45,170.5
3098,D7,583.5,0.25,51,170.5
3099,F#6,583.75,0.25,41,170.5
3100,B5,584.0,0.25,49,170.5
3101,D6,584.25,0.25,43,170.5
3102,B5,584.5,0.25,41,170.5
3103,D6,584.75,0.25,39,170.5
3104,B5,585.0,0.25,41,170.5
3105,D5,585.0,0.25,44,170.5
3106,D6,585.25,0.25,39,170.5
3107,B5,585.5,0.25,41,170.5
3108,F#5,585.5,0.25,39,170.5
3109,D6,585.75,0.25,38,170.5
3110,B5,586.0,0.25,36,170.5
3111,B4,586.0,0.25,39,170.5
3112,D4,586.0,0.25,39,170.5
3113,F#4,586.0,0.25,39,170.5
3114,D6,586.25,0.25,38,170.5
3115,F#6,586.5,0.25,41,170.5
3116,B6,586.75,0.25,44,170.5
3117,D7,587.0,0.25,47,170.5
3118,F#7,587.25,0.25,50,170.5
3119,D7,587.5,0.25,49,170.5
3120,F#6,587.75,0.25,45,170.5
3121,B5,588.0,0.25,41,170.5
3122,D6,588.25,0.25,38,170.5
3123,B5,588.5,0.25,41,170.5
3124,D6,588.75,0.25,39,170.5
3125,B5,589.0,0.25,41,170.5
3126,D5,589.0,0.25,44,170.5
3127,D6,589.25,0.25,39,170.5
3128,B5,589.5,0.25,41,170.5
3129,F#5,589.5,0.25,39,170.5
3130,D6,589.75,0.25,38,170.5
3131,B5,590.0,0.25,36,170.5
3132,B4,590.0,0.25,39,170.5
3133,D4,590.0,0.25,39,170.5
3134,F#4,590.0,0.25,39,170.5
3135,D7,591.0,0.25,47,170.5
3136,F7,591.25,0.25,50,170.5
3137,D7,591.5,0.25,49,170.5
3138,F6,591.75,0.25,45,170.5
3139,B-5,592.0,0.25,41,170.5
3140,D6,592.25,0.25,38,170.5
3141,B-5,592.5,0.25,41,170.5
3142,D6,592.75,0.25,39,170.5
3143,B-5,593.0,0.25,41,170.5
3144,D5,593.0,0.25,44,170.5
3145,D6,593.25,0.25,39,170.5
3146,B-5,593.5,0.25,41,170.5
3147,F5,593.5,0.25,39,170.5
3148,D6,593.75,0.25,38,170.5
3149,B-5,594.0,0.25,39,170.5
3150,B-4,594.0,0.25,39,170.5
3151,D4,594.0,0.25,39,170.5
3152,F4,594.0,0.25,39,170.5
3153,D6,594.25,0.25,42,170.5
3154,F6,594.5,0.25,45,170.5
3155,B-6,594.75,0.25,46,170.5
3156,D7,595.0,0.25,47,170.5
3157,F7,595.25,0.25,50,170.5
3158,D7,595.5,0.25,49,170.5
3159,F6,595.75,0.25,45,170.5
3160,B-5,596.0,0.25,41,170.5
3161,D6,596.25,0.25,38,170.5
3162,B-5,596.5,0.25,41,170.5
3163,D6,596.75,0.25,39,170.5
3164,B-5,597.0,0.25,41,170.5
3165,D5,597.0,0.25,44,170.5
3166,D6,597.25,0.25,39,170.5
3167,B-5,597.5,0.25,41,170.5
3168,F5,597.5,0.25,39,170.5
3169,D6,597.75,0.25,38,170.5
3170,B-5,598.0,0.25,36,170.5
3171,B-4,598.0,0.25,39,170.5
3172,D4,598.0,0.25,39,170.5
3173,F4,598.0,0.25,39,170.5
3174,B-5,599.0,0.188,36,170.5
3175,B-5,599.25,0.188,35,170.5
3176,B-6,599.5,0.188,41,170.5
3177,B-5,599.75,0.188,35,170.5
3178,A5,600.0,0.188,36,170.5
3179,A5,600.25,0.188,34,170.5
3180,A6,600.5,0.188,41,170.5
3181,A5,600.75,0.188,33,170.5
3182,F#5,601.0,0.188,36,170.5
3183,F#5,601.25,0.188,34,170.5
3184,F#6,601.5,0.188,42,170.5
3185,F#5,601.75,0.188,34,170.5
3186,F5,602.0,0.188,36,170.5
3187,F5,602.25,0.188,32,170.5
3188,F6,602.5,0.188,41,170.5
3189,F5,602.75,0.188,36,170.5
3190,E-5,603.0,0.188,36,170.5
3191,E-5,603.25,0.188,34,170.5
3192,E-6,603.5,0.188,39,170.5
3193,E-5,603.75,0.188,36,170.5
3194,D5,604.0,0.188,36,170.5
3195,D5,604.25,0.188,32,170.5
3196,D6,604.5,0.188,42,170.5
3197,D5,604.75,0.188,35,170.5
3198,D6,605.0,333/1000,43,170.5
3199,E-5,605.333,333/1000,37,170.5
3200,E-6,605.667,333/1000,41,170.5
3201,F5,606.0,0.25,41,170.5
3202,F5,606.25,0.25,36,170.5
3203,F6,606.5,0.25,45,170.5
3204,F5,606.75,0.25,36,170.5
3205,F6,607.0,333/1000,44,170.5
3206,B-5,607.333,333/1000,36,170.5
3207,B-4,607.5,0.5,34,170.5
3208,B-6,607.667,333/1000,44,170.5
3209,F6,608.0,333/1000,36,170.5
3210,F4,608.0,1.5,36,170.5
3211,F5,608.0,1.5,36,170.5
3212,F5,608.333,333/1000,32,170.5
3213,B-5,608.667,333/1000,32,170.5
3214,F6,609.0,333/1000,36,170.5
3215,B-5,609.333,333/1000,36,170.5
3216,B-4,609.5,0.5,34,170.5
3217,B-6,609.667,333/1000,39,170.5
3218,F6,610.0,333/1000,36,170.5
3219,F4,610.0,1.5,36,170.5
3220,F5,610.0,1.5,36,170.5
3221,F5,610.333,333/1000,33,170.5
3222,B-5,610.667,333/1000,36,170.5
3223,F6,611.0,333/1000,38,170.5
3224,B-5,611.333,333/1000,36,170.5
3225,B-4,611.5,0.5,35,170.5
3226,B-6,611.667,333/1000,40,170.5
3227,F6,612.0,333/1000,40,170.5
3228,F4,612.0,0.5,36,170.5
3229,F5,612.0,0.5,36,170.5
3230,B-5,612.333,333/1000,36,170.5
3231,B-4,612.5,0.5,33,170.5
3232,B-6,612.667,333/1000,36,170.5
3233,F6,613.0,333/1000,39,170.5
3234,F4,613.0,0.5,36,170.5
3235,F5,613.0,0.5,36,170.5
3236,B-5,613.333,333/1000,36,170.5
3237,B-4,613.5,0.5,32,170.5
3238,B-6,613.667,333/1000,36,170.5
3239,F6,614.0,333/1000,39,170.5
3240,F4,614.0,0.5,36,170.5
3241,F5,614.0,0.5,36,170.5
3242,B-5,614.333,333/1000,36,170.5
3243,B-4,614.5,0.5,33,170.5
3244,B-6,614.667,333/1000,36,170.5
3245,F6,615.0,333/1000,39,170.5
3246,F4,615.0,0.5,36,170.5
3247,F5,615.0,0.5,36,170.5
3248,B-5,615.333,333/1000,37,170.5
3249,B-4,615.5,0.5,33,170.5
3250,B-6,615.667,333/1000,37,170.5
3251,F6,616.0,0.25,42,170.5
3252,F4,616.0,0.25,36,170.5
3253,F5,616.0,0.25,36,170.5
3254,D6,617.0,0.25,35,170.5
3255,B-5,617.0,0.25,35,170.5
3256,E-6,617.25,0.25,35,170.5
3257,B5,617.25,0.25,35,170.5
3258,E6,617.5,0.25,36,170.5
3259,C6,617.5,0.25,36,170.5
3260,F6,617.75,0.25,37,170.5
3261,C#6,617.75,0.25,37,170.5
3262,F#6,618.0,0.25,38,170.5
3263,D6,618.0,0.25,38,170.5
3264,G6,618.25,0.25,39,170.5
3265,E-6,618.25,0.25,39,170.5
3266,G#6,618.5,0.25,40,170.5
3267,E6,618.5,0.25,40,170.5
3268,F6,618.75,0.25,44,170.5
3269,A6,618.75,0.25,44,170.5
3270,B-6,619.0,0.25,42,170.5
3271,F#6,619.0,0.25,42,170.5
3272,B6,619.25,0.25,42,170.5
3273,G6,619.25,0.25,42,170.5
3274,C7,619.5,0.25,43,170.5
3275,G#6,619.5,0.25,43,170.5
3276,C#7,619.75,0.25,44,170.5
3277,A6,619.75,0.25,44,170.5
3278,D7,620.0,0.25,45,170.5
3279,B-6,620.0,0.25,45,170.5
3280,C#7,620.25,0.25,45,170.5
3281,A6,620.25,0.25,45,170.5
3282,C7,620.5,0.25,44,170.5
3283,G#6,620.5,0.25,44,170.5
3284,B6,620.75,0.25,43,170.5
3285,G6,620.75,0.25,43,170.5
3286,B-6,621.0,0.25,42,170.5
3287,F#6,621.0,0.25,42,170.5
3288,A6,621.25,0.25,42,170.5
3289,F6,621.25,0.25,42,170.5
3290,G#6,621.5,0.25,42,170.5
3291,E6,621.5,0.25,42,170.5
3292,G6,621.75,0.25,40,170.5
3293,E-6,621.75,0.25,40,170.5
3294,F#6,622.0,0.25,40,170.5
3295,D6,622.0,0.25,40,170.5
3296,F6,622.25,0.25,40,170.5
3297,C#6,622.25,0.25,40,170.5
3298,E6,622.5,0.25,39,170.5
3299,C6,622.5,0.25,39,170.5
3300,E-6,622.75,0.25,38,170.5
3301,B5,622.75,0.25,38,170.5
3302,D6,623.0,0.25,37,170.5
3303,B-5,623.0,0.25,37,170.5
3304,C#6,623.25,0.25,37,170.5
3305,A5,623.25,0.25,37,170.5
3306,C6,623.5,0.25,38,170.5
3307,G#5,623.5,0.25,38,170.5
3308,B5,623.75,0.25,38,170.5
3309,G5,623.75,0.25,38,170.5
3310,B-5,624.0,0.25,39,170.5
3311,F#5,624.0,0.25,39,170.5
3312,A5,624.25,0.25,39,170.5
3313,F5,624.25,0.25,39,170.5
3314,G#5,624.5,0.25,40,170.5
3315,E5,624.5,0.25,40,170.5
3316,G5,624.75,0.25,40,170.5
3317,E-5,624.75,0.25,40,170.5
3318,F#5,625.0,0.25,40,170.5
3319,D5,625.0,0.25,40,170.5
3320,F5,625.25,0.25,40,170.5
3321,C#5,625.25,0.25,40,170.5
3322,E5,625.5,0.25,42,170.5
3323,C5,625.5,0.25,42,170.5
3324,E-5,625.75,0.25,42,170.5
3325,B4,625.75,0.25,42,170.5
3326,D5,626.0,0.25,42,170.5
3327,B-4,626.0,0.25,42,170.5
3328,C#5,626.25,0.25,42,170.5
3329,A4,626.25,0.25,42,170.5
3330,C5,626.5,0.25,43,170.5
3331,G#4,626.5,0.25,43,170.5
3332,B4,626.75,0.25,43,170.5
3333,G4,626.75,0.25,43,170.5
3334,B-4,627.0,0.25,48,170.5
3335,F#4,627.0,0.25,48,170.5
3336,A4,627.25,0.25,48,170.5
3337,F4,627.25,0.25,48,170.5
3338,G#4,627.5,0.25,45,170.5
3339,E4,627.5,0.25,45,170.5
3340,G4,627.75,0.25,45,170.5
3341,E-4,627.75,0.25,45,170.5
3342,F#4,628.0,0.25,46,170.5
3343,D4,628.0,0.25,46,170.5
3344,F4,628.25,0.25,46,170.5
3345,C#4,628.25,0.25,46,170.5
3346,E4,628.5,0.25,46,170.5
3347,C4,628.5,0.25,46,170.5
3348,E-4,628.75,0.25,46,170.5
3349,B3,628.75,0.25,46,170.5
3350,D4,629.0,0.25,42,170.5
3351,B-3,629.0,0.25,42,170.5
3352,C#4,629.25,0.25,48,170.5
3353,A3,629.25,0.25,48,170.5
3354,C4,629.5,0.25,48,170.5
3355,G#3,629.5,0.25,48,170.5
3356,B3,629.75,0.25,48,170.5
3357,G3,629.75,0.25,48,170.5
3358,B-3,630.0,0.25,48,170.5
3359,F#3,630.0,0.25,48,170.5
3360,A3,630.25,0.25,48,170.5
3361,F3,630.25,0.25,48,170.5
3362,G#3,630.5,0.25,50,170.5
3363,E3,630.5,0.25,50,170.5
3364,G3,630.75,0.25,50,170.5
3365,E-3,630.75,0.25,50,170.5
3366,F#3,631.0,0.25,50,170.5
3367,D3,631.0,0.25,50,170.5
3368,F3,631.25,0.25,50,170.5
3369,C#3,631.25,0.25,50,170.5
3370,E3,631.5,0.25,50,170.5
3371,C3,631.5,0.25,50,170.5
3372,E-3,631.75,0.25,50,170.5
3373,B2,631.75,0.25,50,170.5
3374,D3,632.0,0.25,52,170.5
3375,B-2,632.0,0.25,52,170.5
3376,C#3,632.25,0.25,52,170.5
3377,A2,632.25,0.25,52,170.5
3378,C3,632.5,0.25,52,170.5
3379,G#2,632.5,0.25,52,170.5
3380,B2,632.75,0.25,52,170.5
3381,G2,632.75,0.25,52,170.5
3382,B-2,633.0,0.25,50,170.5
3383,F#2,633.0,0.25,50,170.5
3384,A2,633.25,0.25,48,170.5
3385,F2,633.25,0.25,48,170.5
3386,G#2,633.5,0.25,45,170.5
3387,E2,633.5,0.25,45,170.5
3388,A2,633.75,0.25,42,170.5
3389,E-2,633.75,0.25,42,170.5
3390,B-2,634.0,0.25,43,170.5
3391,D2,634.0,0.5,37,170.5
3392,B2,634.25,0.25,43,170.5
3393,C3,634.5,0.25,39,170.5
3394,C#2,634.5,0.25,39,170.5
3395,C#3,634.75,0.25,38,170.5
3396,C2,634.75,0.25,38,170.5
3397,D3,635.0,333/1000,38,170.5
3398,B1,635.0,333/1000,38,170.5
3399,E-3,635.333,333/1000,37,170.5
3400,B-1,635.333,333/1000,37,170.5
3401,E3,635.667,333/1000,36,170.5
3402,A1,635.667,333/1000,36,170.5
3403,G#1,636.0,333/1000,31,170.5
3404,F3,636.0,331/1000,39,170.5
3405,B2,636.0,331/1000,39,170.5
3406,D3,636.0,331/1000,39,170.5
3407,D2,636.333,333/1000,27,170.5
3408,F2,636.667,333/1000,27,170.5
3409,B2,637.0,1.0,30,170.5
3410,G1,637.0,333/1000,31,170.5
3411,E3,637.0,0.5,33,170.5
3412,C#3,637.0,0.5,33,170.5
3413,C#2,637.333,333/1000,28,170.5
3414,G3,637.5,0.5,36,170.5
3415,E2,637.667,333/1000,28,170.5
3416,G#1,638.0,333/1000,31,170.5
3417,F3,638.0,331/1000,37,170.5
3418,B2,638.0,331/1000,37,170.5
3419,D3,638.0,331/1000,37,170.5
3420,D2,638.333,333/1000,27,170.5
3421,F2,638.667,333/1000,27,170.5
3422,B2,639.0,1.0,34,170.5
3423,G#1,639.0,333/1000,31,170.5
3424,E3,639.0,0.5,37,170.5
3425,C#3,639.0,0.5,37,170.5
3426,C#2,639.333,333/1000,28,170.5
3427,G3,639.5,0.5,36,170.5
3428,E2,639.667,333/1000,28,170.5
3429,G#1,640.0,333/1000,31,170.5
3430,F3,640.0,331/1000,32,170.5
3431,B2,640.0,331/1000,32,170.5
3432,D3,640.0,331/1000,32,170.5
3433,D2,640.333,333/1000,27,170.5
3434,F2,640.667,333/1000,27,170.5
3435,G#1,641.0,333/1000,31,170.5
3436,E3,641.0,329/1000,30,170.5
3437,B2,641.0,329/1000,30,170.5
3438,C#3,641.0,329/1000,30,170.5
3439,C#2,641.333,333/1000,28,170.5
3440,E2,641.667,333/1000,28,170.5
3441,G#1,642.0,333/1000,31,170.5
3442,F3,642.0,2.0,32,170.5
3443,B2,642.0,2.0,32,170.5
3444,D3,642.0,2.0,32,170.5
3445,D2,642.333,333/1000,27,170.5
3446,F2,642.667,333/1000,27,170.5
3447,D2,643.0,333/1000,31,170.5
3448,B1,643.333,333/1000,28,170.5
3449,G#1,643.667,333/1000,28,170.5
3450,F1,644.0,177/1000,21,170.5
3451,E1,644.119,177/1000,25,170.5
3452,F1,644.235,177/1000,27,170.5
3453,F#1,644.352,177/1000,30,170.5
3454,G1,644.471,177/1000,32,170.5
3455,G#1,644.587,177/1000,34,170.5
3456,A1,644.706,177/1000,38,170.5
3457,B-1,644.823,177/1000,40,170.5
3458,B1,644.94,177/1000,42,170.5
3459,C2,645.058,177/1000,46,170.5
3460,C#2,645.175,177/1000,48,170.5
3461,D2,645.294,177/1000,50,170.5
3462,C#2,645.41,177/1000,49,170.5
3463,C2,645.527,177/1000,47,170.5
3464,B1,645.646,177/1000,44,170.5
3465,B-1,645.763,177/1000,42,170.5
3466,A1,645.881,177/1000,40,170.5
3467,G#1,645.998,177/1000,38,170.5
3468,A1,646.115,177/1000,35,170.5
3469,B-1,646.233,177/1000,33,170.5
3470,B1,646.35,177/1000,35,170.5
3471,C2,646.469,177/1000,37,170.5
3472,C#2,646.585,177/1000,40,170.5
3473,D2,646.702,177/1000,42,170.5
3474,E-2,646.821,177/1000,44,170.5
3475,E2,646.938,177/1000,47,170.5
3476,F2,647.056,177/1000,47,170.5
3477,E2,647.173,177/1000,45,170.5
3478,E-2,647.29,177/1000,43,170.5
3479,D2,647.408,177/1000,42,170.5
3480,C#2,647.525,177/1000,40,170.5
3481,C2,647.644,177/1000,38,170.5
3482,B1,647.76,177/1000,36,170.5
3483,B-1,647.877,123/1000,35,170.5
3484,A1,648.0,333/1000,35,170.5
3485,B-1,648.0,13/250,35,170.5
3486,F#3,648.0,329/1000,44,170.5
3487,C3,648.0,329/1000,44,170.5
3488,E-3,648.0,329/1000,44,170.5
3489,E-2,648.333,333/1000,31,170.5
3490,F#2,648.667,333/1000,31,170.5
3491,D3,649.0,1.0,34,170.5
3492,A1,649.0,333/1000,35,170.5
3493,F3,649.0,0.5,37,170.5
3494,C3,649.0,0.5,37,170.5
3495,D2,649.333,333/1000,32,170.5
3496,G#3,649.5,0.5,40,170.5
3497,F2,649.667,333/1000,32,170.5
3498,A1,650.0,333/1000,35,170.5
3499,F#3,650.0,329/1000,42,170.5
3500,C3,650.0,329/1000,42,170.5
3501,E-3,650.0,329/1000,42,170.5
3502,E-2,650.333,333/1000,31,170.5
3503,F#2,650.667,333/1000,31,170.5
3504,D3,651.0,1.0,38,170.5
3505,A1,651.0,333/1000,35,170.5
3506,F3,651.0,0.5,42,170.5
3507,C3,651.0,0.5,42,170.5
3508,D2,651.333,333/1000,32,170.5
3509,G#3,651.5,0.5,40,170.5
3510,F2,651.667,333/1000,32,170.5
3511,A1,652.0,333/1000,35,170.5
3512,F#3,652.0,329/1000,36,170.5
3513,C3,652.0,329/1000,36,170.5
3514,E-3,652.0,329/1000,36,170.5
3515,E-2,652.333,333/1000,31,170.5
3516,F#2,652.667,333/1000,31,170.5
3517,A1,653.0,333/1000,35,170.5
3518,F3,653.0,329/1000,34,170.5
3519,D3,653.0,329/1000,34,170.5
3520,C3,653.0,329/1000,34,170.5
3521,D2,653.333,333/1000,32,170.5
3522,F2,653.667,333/1000,32,170.5
3523,A1,654.0,333/1000,35,170.5
3524,F#3,654.0,2.0,36,170.5
3525,C3,654.0,2.0,36,170.5
3526,E-3,654.0,2.0,36,170.5
3527,E-2,654.333,333/1000,31,170.5
3528,F#2,654.667,333/1000,31,170.5
3529,E-2,655.0,333/1000,35,170.5
3530,C2,655.333,333/1000,32,170.5
3531,A1,655.667,333/1000,32,170.5
3532,F#1,656.0,177/1000,30,170.5
3533,F1,656.119,177/1000,35,170.5
3534,F#1,656.235,177/1000,37,170.5
3535,G1,656.352,177/1000,38,170.5
3536,G#1,656.471,177/1000,40,170.5
3537,A1,656.587,177/1000,42,170.5
3538,B-1,656.706,177/1000,44,170.5
3539,B1,656.823,177/1000,45,170.5
3540,C2,656.94,177/1000,47,170.5
3541,C#2,657.058,177/1000,48,170.5
3542,D2,657.175,177/1000,50,170.5
3543,E-2,657.294,177/1000,52,170.5
3544,D2,657.41,177/1000,54,170.5
3545,C#2,657.527,177/1000,52,170.5
3546,C2,657.646,177/1000,50,170.5
3547,B1,657.763,177/1000,48,170.5
3548,B-1,657.881,177/1000,47,170.5
3549,A1,657.998,177/1000,45,170.5
3550,B-1,658.115,177/1000,42,170.5
3551,B1,658.233,177/1000,44,170.5
3552,C2,658.35,177/1000,46,170.5
3553,C#2,658.469,177/1000,48,170.5
3554,D2,658.585,177/1000,50,170.5
3555,E-2,658.702,177/1000,52,170.5
3556,E2,658.821,177/1000,55,170.5
3557,F2,658.938,177/1000,57,170.5
3558,F#2,659.056,177/1000,59,170.5
3559,F2,659.173,177/1000,58,170.5
3560,E2,659.29,177/1000,56,170.5
3561,E-2,659.408,177/1000,53,170.5
3562,D2,659.525,177/1000,51,170.5
3563,C#2,659.644,177/1000,48,170.5
3564,C2,659.76,177/1000,46,170.5
3565,B1,659.877,123/1000,43,170.5
3566,B-1,660.0,333/1000,42,170.5
3567,B1,660.0,13/250,43,170.5
3568,G3,660.0,329/1000,52,170.5
3569,C#3,660.0,329/1000,52,170.5
3570,E3,660.0,329/1000,52,170.5
3571,E2,660.333,333/1000,37,170.5
3572,G2,660.667,333/1000,37,170.5
3573,C#3,661.0,1.0,40,170.5
3574,B-1,661.0,333/1000,42,170.5
3575,F#3,661.0,0.5,44,170.5
3576,E-3,661.0,0.5,44,170.5
3577,E-2,661.333,333/1000,38,170.5
3578,A3,661.5,0.5,48,170.5
3579,F#2,661.667,333/1000,38,170.5
3580,B-1,662.0,333/1000,42,170.5
3581,G3,662.0,329/1000,49,170.5
3582,C#3,662.0,329/1000,49,170.5
3583,E3,662.0,329/1000,49,170.5
3584,E2,662.333,333/1000,37,170.5
3585,G2,662.667,333/1000,37,170.5
3586,E2,663.0,333/1000,42,170.5
3587,C#2,663.333,333/1000,38,170.5
3588,B-1,663.667,333/1000,38,170.5
3589,B1,664.0,333/1000,43,170.5
3590,G#3,664.0,329/1000,54,170.5
3591,D3,664.0,329/1000,54,170.5
3592,F3,664.0,329/1000,54,170.5
3593,F2,664.333,333/1000,38,170.5
3594,G#2,664.667,333/1000,38,170.5
3595,D3,665.0,1.0,42,170.5
3596,B1,665.0,333/1000,43,170.5
3597,G3,665.0,0.5,46,170.5
3598,E3,665.0,0.5,46,170.5
3599,E2,665.333,333/1000,40,170.5
3600,B-3,665.5,0.5,50,170.5
3601,G2,665.667,333/1000,40,170.5
3602,B1,666.0,333/1000,43,170.5
3603,G#3,666.0,329/1000,51,170.5
3604,D3,666.0,329/1000,51,170.5
3605,F3,666.0,329/1000,51,170.5
3606,F2,666.333,333/1000,38,170.5
3607,G#2,666.667,333/1000,38,170.5
3608,F2,667.0,333/1000,43,170.5
3609,D2,667.333,333/1000,40,170.5
3610,B1,667.667,333/1000,40,170.5
3611,G#2,668.0,0.25,53,170.5
3612,G#1,668.0,0.25,44,170.5
3613,G2,668.25,0.25,55,170.5
3614,G1,668.25,0.25,45,170.5
3615,G#2,668.5,0.25,56,170.5
3616,G#1,668.5,0.25,46,170.5
3617,A2,668.75,0.25,58,170.5
3618,A1,668.75,0.25,47,170.5
3619,B-2,669.0,0.25,60,170.5
3620,B-1,669.0,0.25,48,170.5
3621,B2,669.25,0.25,61,170.5
3622,B1,669.25,0.25,49,170.5
3623,C3,669.5,0.25,63,170.5
3624,C2,669.5,0.25,51,170.5
3625,C#3,669.75,0.25,65,170.5
3626,C#2,669.75,0.25,52,170.5
3627,D3,670.0,0.25,66,170.5
3628,D2,670.0,0.25,53,170.5
3629,E-3,670.25,0.25,68,170.5
3630,E-2,670.25,0.25,54,170.5
3631,E3,670.5,0.25,70,170.5
3632,E2,670.5,0.25,55,170.5
3633,F3,670.75,0.25,71,170.5
3634,F2,670.75,0.25,56,170.5
3635,E3,671.0,0.25,73,170.5
3636,E2,671.0,0.25,58,170.5
3637,E-3,671.25,0.25,71,170.5
3638,E-2,671.25,0.25,57,170.5
3639,D3,671.5,0.25,69,170.5
3640,D2,671.5,0.25,56,170.5
3641,C#3,671.75,0.25,66,170.5
3642,C#2,671.75,0.25,55,170.5
3643,C3,672.0,0.25,64,170.5
3644,C2,672.0,0.25,54,170.5
3645,B2,672.25,0.25,62,170.5
3646,B1,672.25,0.25,52,170.5
3647,C3,672.5,0.25,59,170.5
3648,C2,672.5,0.25,50,170.5
3649,C#3,672.75,0.25,58,170.5
3650,C#2,672.75,0.25,48,170.5
3651,D3,673.0,0.25,60,170.5
3652,D2,673.0,0.25,51,170.5
3653,E-3,673.25,0.25,63,170.5
3654,E-2,673.25,0.25,53,170.5
3655,E3,673.5,0.25,65,170.5
3656,E2,673.5,0.25,55,170.5
3657,F3,673.75,0.25,68,170.5
3658,F2,673.75,0.25,57,170.5
3659,F#3,674.0,0.25,70,170.5
3660,F#2,674.0,0.25,59,170.5
3661,G3,674.25,0.25,73,170.5
3662,G2,674.25,0.25,60,170.5
3663,G#3,674.5,0.25,76,170.5
3664,G#2,674.5,0.25,62,170.5
3665,G3,674.75,0.25,73,170.5
3666,G2,674.75,0.25,61,170.5
3667,F#3,675.0,0.25,70,170.5
3668,F#2,675.0,0.25,57,170.5
3669,F3,675.25,0.25,67,170.5
3670,F2,675.25,0.25,54,170.5
3671,E3,675.5,0.25,64,170.5
3672,E2,675.5,0.25,51,170.5
3673,E-3,675.75,0.25,60,170.5
3674,E-2,675.75,0.25,47,170.5
3675,D3,676.0,0.25,59,170.5
3676,D2,676.0,0.25,59,170.5
3677,E-4,676.25,0.25,64,170.5
3678,E-3,676.25,0.25,64,170.5
3679,E3,676.5,0.25,61,170.5
3680,E2,676.5,0.25,61,170.5
3681,F4,676.75,0.25,67,170.5
3682,F3,676.75,0.25,67,170.5
3683,F#3,677.0,0.25,64,170.5
3684,F#2,677.0,0.25,64,170.5
3685,G4,677.25,0.25,70,170.5
3686,G3,677.25,0.25,70,170.5
3687,G#3,677.5,0.25,67,170.5
3688,G#2,677.5,0.25,67,170.5
3689,A4,677.75,0.25,74,170.5
3690,A3,677.75,0.25,74,170.5
3691,B-3,678.0,0.25,70,170.5
3692,B-2,678.0,0.25,70,170.5
3693,B4,678.25,121/500,77,170.5
3694,B3,678.25,121/500,77,170.5
3695,B3,678.5,0.25,72,170.5
3696,B2,678.5,0.25,72,170.5
3697,B-4,678.75,0.25,73,170.5
3698,B-3,678.75,0.25,73,170.5
3699,A3,679.0,0.25,71,170.5
3700,A2,679.0,0.25,71,170.5
3701,G#4,679.25,0.25,68,170.5
3702,G#3,679.25,0.25,68,170.5
3703,G3,679.5,0.25,67,170.5
3704,G2,679.5,0.25,67,170.5
3705,F#4,679.75,0.25,64,170.5
3706,F#3,679.75,0.25,64,170.5
3707,F3,680.0,0.25,64,170.5
3708,F2,680.0,0.25,64,170.5
3709,F#4,680.25,0.25,54,170.5
3710,F#3,680.25,0.25,54,170.5
3711,G3,680.5,0.25,63,170.5
3712,G2,680.5,0.25,63,170.5
3713,G#4,680.75,0.25,65,170.5
3714,G#3,680.75,0.25,65,170.5
3715,A3,681.0,0.25,66,170.5
3716,A2,681.0,0.25,66,170.5
3717,B-4,681.25,0.25,69,170.5
3718,B-3,681.25,0.25,69,170.5
3719,B3,681.5,0.25,69,170.5
3720,B2,681.5,0.25,69,170.5
3721,C5,681.75,0.25,73,170.5
3722,C4,681.75,0.25,73,170.5
3723,C#4,682.0,0.25,76,170.5
3724,C#3,682.0,0.25,76,170.5
3725,D5,682.25,121/500,78,170.5
3726,D4,682.25,121/500,78,170.5
3727,D4,682.5,0.25,72,170.5
3728,D3,682.5,0.25,72,170.5
3729,C#5,682.75,0.25,74,170.5
3730,C#4,682.75,0.25,74,170.5
3731,C4,683.0,0.25,68,170.5
3732,C3,683.0,0.25,68,170.5
3733,B4,683.25,0.25,70,170.5
3734,B3,683.25,0.25,70,170.5
3735,B-3,683.5,0.25,63,170.5
3736,B-2,683.5,0.25,63,170.5
3737,A4,683.75,0.25,65,170.5
3738,A3,683.75,0.25,65,170.5
3739,G#3,684.0,0.25,63,170.5
3740,G#2,684.0,0.25,63,170.5
3741,A4,684.25,0.25,66,170.5
3742,A3,684.25,0.25,66,170.5
3743,B-3,684.5,0.25,67,170.5
3744,B-2,684.5,0.25,67,170.5
3745,B4,684.75,0.25,70,170.5
3746,B3,684.75,0.25,70,170.5
3747,C4,685.0,0.25,70,170.5
3748,C3,685.0,0.25,70,170.5
3749,C#5,685.25,0.25,74,170.5
3750,C#4,685.25,0.25,74,170.5
3751,D4,685.5,0.25,74,170.5
3752,D3,685.5,0.25,74,170.5
3753,E-5,685.75,0.25,79,170.5
3754,E-4,685.75,0.25,79,170.5
3755,E4,686.0,0.25,78,170.5
3756,E3,686.0,0.25,78,170.5
3757,F5,686.25,0.25,83,170.5
3758,F4,686.25,0.25,83,170.5
3759,E4,686.5,0.25,74,170.5
3760,E3,686.5,0.25,74,170.5
3761,E-5,686.75,0.25,77,170.5
3762,E-4,686.75,0.25,77,170.5
3763,D4,687.0,0.25,70,170.5
3764,D3,687.0,0.25,70,170.5
3765,C#5,687.25,0.25,72,170.5
3766,C#4,687.25,0.25,72,170.5
3767,C4,687.5,0.25,66,170.5
3768,C3,687.5,0.25,66,170.5
3769,B4,687.75,0.25,56,170.5
3770,B3,687.75,0.25,56,170.5
3771,B-3,688.0,0.25,58,170.5
3772,B-2,688.0,0.25,58,170.5
3773,A4,688.25,0.25,69,170.5
3774,A3,688.25,0.25,69,170.5
3775,G#3,688.5,0.25,69,170.5
3776,G#2,688.5,0.25,69,170.5
3777,A4,688.75,0.25,73,170.5
3778,A3,688.75,0.25,73,170.5
3779,B-3,689.0,0.25,72,170.5
3780,B-2,689.0,0.25,72,170.5
3781,B4,689.25,0.25,76,170.5
3782,B3,689.25,0.25,76,170.5
3783,C4,689.5,0.25,76,170.5
3784,C3,689.5,0.25,76,170.5
3785,C#5,689.75,0.25,79,170.5
3786,C#4,689.75,0.25,79,170.5
3787,D4,690.0,0.25,79,170.5
3788,D3,690.0,0.25,79,170.5
3789,E-5,690.25,0.25,83,170.5
3790,E-4,690.25,0.25,83,170.5
3791,E4,690.5,0.25,80,170.5
3792,E3,690.5,0.25,80,170.5
3793,F5,690.75,0.25,84,170.5
3794,F4,690.75,0.25,84,170.5
3795,E4,691.0,0.25,75,170.5
3796,E3,691.0,0.25,75,170.5
3797,E-5,691.25,0.25,79,170.5
3798,E-4,691.25,0.25,79,170.5
3799,D4,691.5,0.25,70,170.5
3800,D3,691.5,0.25,70,170.5
3801,C#5,691.75,0.25,74,170.5
3802,C#4,691.75,0.25,74,170.5
3803,C4,692.0,0.25,64,170.5
3804,C3,692.0,0.25,64,170.5
3805,B4,692.25,0.25,67,170.5
3806,B3,692.25,0.25,67,170.5
3807,B-3,692.5,0.25,68,170.5
3808,B-2,692.5,0.25,68,170.5
3809,A4,692.75,0.25,69,170.5
3810,A3,692.75,0.25,69,170.5
3811,G#3,693.0,0.25,68,170.5
3812,G#2,693.0,0.25,68,170.5
3813,A4,693.25,0.25,71,170.5
3814,A3,693.25,0.25,71,170.5
3815,B-3,693.5,0.25,69,170.5
3816,B-2,693.5,0.25,69,170.5
3817,B4,693.75,0.25,73,170.5
3818,B3,693.75,0.25,73,170.5
3819,C4,694.0,0.25,70,170.5
3820,C3,694.0,0.25,70,170.5
3821,C#5,694.25,0.25,75,170.5
3822,C#4,694.25,0.25,75,170.5
3823,D4,694.5,0.25,71,170.5
3824,D3,694.5,0.25,71,170.5
3825,E-5,694.75,0.25,77,170.5
3826,E-4,694.75,0.25,77,170.5
3827,E4,695.0,0.25,72,170.5
3828,E3,695.0,0.25,72,170.5
3829,F5,695.25,121/500,79,170.5
3830,F4,695.25,121/500,79,170.5
3831,F4,695.5,0.25,72,170.5
3832,F3,695.5,0.25,72,170.5
3833,G#5,695.75,0.25,81,170.5
3834,G#4,695.75,0.25,81,170.5
3835,D4,696.0,0.25,74,170.5
3836,D3,696.0,0.25,74,170.5
3837,B5,696.25,0.25,69,170.5
3838,B4,696.25,0.25,69,170.5
3839,B3,696.5,0.25,76,170.5
3840,B2,696.5,0.25,76,170.5
3841,D6,696.75,0.25,75,170.5
3842,D5,696.75,0.25,75,170.5
3843,G#3,697.0,0.25,79,170.5
3844,G#2,697.0,0.25,79,170.5
3845,F6,697.25,0.25,78,170.5
3846,F5,697.25,0.25,78,170.5
3847,F3,697.5,0.25,82,170.5
3848,F2,697.5,0.25,82,170.5
3849,G#6,697.75,0.25,80,170.5
3850,G#5,697.75,0.25,80,170.5
3851,D3,698.0,0.25,85,170.5
3852,D2,698.0,0.25,85,170.5
3853,B6,698.25,0.25,83,170.5
3854,B5,698.25,0.25,83,170.5
3855,B2,698.5,0.25,88,170.5
3856,B1,698.5,0.25,88,170.5
3857,D7,698.75,0.25,86,170.5
3858,D6,698.75,0.25,86,170.5
3859,G#2,699.0,0.25,91,170.5
3860,G#1,699.0,0.25,91,170.5
3861,F7,699.25,0.25,89,170.5
3862,F6,699.25,0.25,89,170.5
3863,G#4,700.0,0.5,88,170.5
3864,B3,700.0,0.5,88,170.5
3865,D4,700.0,0.5,88,170.5
3866,F3,700.0,0.5,68,170.5
3867,F2,700.0,0.5,68,170.5
3868,A4,701.0,0.5,92,170.5
3869,A3,701.0,0.5,92,170.5
3870,C4,701.0,0.5,92,170.5
3871,E-3,701.0,0.5,74,170.5
3872,E-2,701.0,0.5,74,170.5
3873,F#3,701.5,0.5,70,170.5
3874,F#2,701.5,0.5,70,170.5
3875,G#5,702.0,0.25,88,170.5
3876,G#4,702.0,0.25,88,170.5
3877,A3,702.0,0.5,70,170.5
3878,A2,702.0,0.5,70,170.5
3879,B5,702.5,0.25,80,170.5
3880,B4,702.5,0.25,80,170.5
3881,A5,703.0,0.5,86,170.5
3882,A4,703.0,0.5,86,170.5
3883,C#5,703.0,0.5,86,170.5
3884,C#3,703.0,0.5,72,170.5
3885,C#2,703.0,0.5,72,170.5
3886,F#3,703.5,0.5,67,170.5
3887,F#2,703.5,0.5,67,170.5
3888,G#6,704.0,0.25,85,170.5
3889,G#5,704.0,0.25,85,170.5
3890,A3,704.0,0.5,67,170.5
3891,A2,704.0,0.5,67,170.5
3892,B6,704.5,0.25,79,170.5
3893,B5,704.5,0.25,79,170.5
3894,E-6,705.0,0.5,86,170.5
3895,A6,705.0,0.5,86,170.5
3896,A5,705.0,0.5,86,170.5
3897,C3,705.0,0.5,72,170.5
3898,C2,705.0,0.5,72,170.5
3899,F#3,705.5,0.5,67,170.5
3900,F#2,705.5,0.5,67,170.5
3901,G#5,706.0,0.5,79,170.5
3902,G#4,706.0,0.5,79,170.5
3903,A3,706.0,0.5,67,170.5
3904,A2,706.0,0.5,67,170.5
3905,E-5,707.0,2.0,85,170.5
3906,A5,707.0,2.0,85,170.5
3907,A4,707.0,2.0,85,170.5
3908,B2,707.0,0.5,72,170.5
3909,B1,707.0,0.5,72,170.5
3910,E-3,707.5,0.5,70,170.5
3911,E-2,707.5,0.5,70,170.5
3912,F#3,708.0,0.5,70,170.5
3913,F#2,708.0,0.5,70,170.5
3914,F#4,709.0,0.5,74,170.5
3915,A4,709.0,0.5,74,170.5
3916,A3,709.0,0.5,74,170.5
3917,C#4,709.0,0.5,74,170.5
3918,A2,709.0,0.5,62,170.5
3919,A1,709.0,0.5,62,170.5
3920,G#4,709.5,0.5,67,170.5
3921,G#3,709.5,0.5,67,170.5
3922,C#3,709.5,0.5,58,170.5
3923,C#2,709.5,0.5,58,170.5
3924,A4,710.0,0.5,72,170.5
3925,A3,710.0,0.5,72,170.5
3926,F#3,710.0,0.5,58,170.5
3927,F#2,710.0,0.5,58,170.5
3928,B4,710.5,0.5,76,170.5
3929,B3,710.5,0.5,76,170.5
3930,C5,711.0,2.0,76,170.5
3931,C4,711.0,2.0,76,170.5
3932,E-4,711.0,2.0,76,170.5
3933,F#4,711.0,2.0,76,170.5
3934,G#2,711.0,0.5,62,170.5
3935,G#1,711.0,0.5,62,170.5
3936,C3,711.5,0.5,58,170.5
3937,C2,711.5,0.5,58,170.5
3938,E-3,712.0,0.5,58,170.5
3939,E-2,712.0,0.5,58,170.5
3940,C7,713.0,0.5,80,170.5
3941,C6,713.0,0.5,80,170.5
3942,E-6,713.0,0.5,80,170.5
3943,G2,713.0,0.5,65,170.5
3944,G1,713.0,0.5,65,170.5
3945,B6,713.5,0.5,78,170.5
3946,B5,713.5,0.5,78,170.5
3947,C3,713.5,0.5,64,170.5
3948,C2,713.5,0.5,64,170.5
3949,A6,714.0,0.5,78,170.5
3950,A5,714.0,0.5,78,170.5
3951,E-3,714.0,0.5,62,170.5
3952,E-2,714.0,0.5,62,170.5
3953,G#6,714.5,0.5,78,170.5
3954,G#5,714.5,0.5,78,170.5
3955,A6,715.0,1.5,82,170.5
3956,E-6,715.0,1.5,82,170.5
3957,A5,715.0,1.5,82,170.5
3958,F#2,715.0,0.5,64,170.5
3959,F#1,715.0,0.5,64,170.5
3960,A2,715.5,0.5,56,170.5
3961,A1,715.5,0.5,56,170.5
3962,C2,716.0,1.0,52,170.5
3963,C3,716.0,1.0,52,170.5
3964,C5,716.5,0.25,71,170.5
3965,C4,716.5,0.25,71,170.5
3966,B4,717.0,0.5,78,170.5
3967,B3,717.0,0.5,78,170.5
3968,B2,717.0,0.5,53,170.5
3969,B1,717.0,0.5,53,170.5
3970,A4,717.5,2/5,71,170.5
3971,A3,717.5,2/5,71,170.5
3972,A2,717.5,2/5,48,170.5
3973,A1,717.5,2/5,48,170.5
3974,G4,718.0,0.25,71,170.5
3975,G3,718.0,0.25,71,170.5
3976,G2,718.0,0.25,48,170.5
3977,G1,718.0,0.25,48,170.5
3978,B4,718.5,0.25,71,170.5
3979,B3,718.5,0.25,71,170.5
3980,B2,718.5,0.25,48,170.5
3981,B1,718.5,0.25,48,170.5
3982,A4,719.0,0.5,78,170.5
3983,A3,719.0,0.5,78,170.5
3984,A2,719.0,0.5,53,170.5
3985,A1,719.0,0.5,53,170.5
3986,G4,719.5,2/5,72,170.5
3987,G3,719.5,2/5,72,170.5
3988,G2,719.5,2/5,50,170.5
3989,G1,719.5,2/5,50,170.5
3990,F4,720.0,0.25,72,170.5
3991,F3,720.0,0.25,72,170.5
3992,F2,720.0,0.25,50,170.5
3993,F1,720.0,0.25,50,170.5
3994,A4,720.5,0.25,74,170.5
3995,A3,720.5,0.25,74,170.5
3996,A2,720.5,0.25,50,170.5
3997,A1,720.5,0.25,50,170.5
3998,G4,721.0,0.5,82,170.5
3999,G3,721.0,0.5,82,170.5
4000,G2,721.0,0.5,56,170.5
4001,G1,721.0,0.5,56,170.5
4002,F4,721.5,2/5,74,170.5
4003,F3,721.5,2/5,74,170.5
4004,F2,721.5,2/5,50,170.5
4005,F1,721.5,2/5,50,170.5
4006,E4,722.0,0.25,74,170.5
4007,E3,722.0,0.25,74,170.5
4008,E2,722.0,0.25,50,170.5
4009,E1,722.0,0.25,50,170.5
4010,G4,722.5,0.25,74,170.5
4011,G3,722.5,0.25,74,170.5
4012,G2,722.5,0.25,50,170.5
4013,G1,722.5,0.25,50,170.5
4014,F4,723.0,0.5,83,170.5
4015,F3,723.0,0.5,83,170.5
4016,F2,723.0,0.5,58,170.5
4017,F1,723.0,0.5,58,170.5
4018,E4,723.5,2/5,74,170.5
4019,E3,723.5,2/5,74,170.5
4020,E2,723.5,2/5,50,170.5
4021,E1,723.5,2/5,50,170.5
4022,E-4,724.0,0.25,74,170.5
4023,E-3,724.0,0.25,74,170.5
4024,E-2,724.0,0.25,50,170.5
4025,E-1,724.0,0.25,50,170.5
4026,F4,724.5,0.25,74,170.5
4027,F3,724.5,0.25,74,170.5
4028,F2,724.5,0.25,50,170.5
4029,F1,724.5,0.25,50,170.5
4030,F4,725.0,0.5,82,170.5
4031,F3,725.0,0.5,82,170.5
4032,F2,725.0,0.5,56,170.5
4033,F1,725.0,0.5,56,170.5
4034,E4,725.5,2/5,74,170.5
4035,E3,725.5,2/5,74,170.5
4036,E2,725.5,2/5,50,170.5
4037,E1,725.5,2/5,50,170.5
4038,E4,726.0,0.25,74,170.5
4039,E3,726.0,0.25,74,170.5
4040,E2,726.0,0.25,50,170.5
4041,E1,726.0,0.25,50,170.5
4042,E-4,726.5,0.25,74,170.5
4043,E-3,726.5,0.25,74,170.5
4044,E-2,726.5,0.25,50,170.5
4045,E-1,726.5,0.25,50,170.5
4046,F4,727.0,0.5,84,170.5
4047,F3,727.0,0.5,84,170.5
4048,F2,727.0,0.5,58,170.5
4049,F1,727.0,0.5,58,170.5
4050,E4,727.5,2/5,74,170.5
4051,E3,727.5,2/5,74,170.5
4052,E2,727.5,2/5,50,170.5
4053,E1,727.5,2/5,50,170.5
4054,E4,728.0,0.25,74,170.5
4055,E3,728.0,0.25,74,170.5
4056,E2,728.0,0.25,50,170.5
4057,E1,728.0,0.25,50,170.5
4058,E-4,728.5,0.25,74,170.5
4059,E-3,728.5,0.25,74,170.5
4060,E-2,728.5,0.25,50,170.5
4061,E-1,728.5,0.25,50,170.5
4062,E4,729.0,2.0,90,170.5
4063,E3,729.0,2.0,90,170.5
4064,E2,729.0,2.0,62,170.5
4065,E1,729.0,2.0,62,170.5
4066,E5,731.0,0.5,82,170.5
4067,B4,731.0,0.5,82,170.5
4068,G#4,731.0,0.5,82,170.5
4069,E4,731.0,0.5,82,170.5
4070,E3,731.0,0.5,57,170.5
4071,B2,731.0,0.5,57,170.5
4072,G#2,731.0,0.5,57,170.5
4073,E2,731.0,0.5,57,170.5
4074,E5,732.0,333/1000,77,170.5
4075,E3,732.0,333/1000,68,170.5
4076,F#5,732.333,333/1000,80,170.5
4077,F#3,732.333,333/1000,72,170.5
4078,G#5,732.667,333/1000,82,170.5
4079,G#3,732.667,333/1000,77,170.5
4080,A5,733.0,0.5,85,170.5
4081,A4,733.0,0.5,85,170.5
4082,A3,733.0,0.5,66,170.5
4083,A2,733.0,0.5,66,170.5
4084,B4,734.0,0.25,68,170.5
4085,G#5,734.0,0.25,68,170.5
4086,G#4,734.0,0.25,68,170.5
4087,F3,734.0,0.5,52,170.5
4088,F2,734.0,0.5,52,170.5
4089,D5,734.5,0.25,62,170.5
4090,B5,734.5,0.25,62,170.5
4091,B4,734.5,0.25,62,170.5
4092,A5,735.0,0.5,77,170.5
4093,A4,735.0,0.5,77,170.5
4094,C5,735.0,0.5,77,170.5
4095,A3,735.0,0.5,66,170.5
4096,A2,735.0,0.5,66,170.5
4097,B4,736.0,0.25,66,170.5
4098,G#5,736.0,0.25,66,170.5
4099,G#4,736.0,0.25,66,170.5
4100,E3,736.0,0.5,52,170.5
4101,E2,736.0,0.5,52,170.5
4102,D5,736.5,0.25,61,170.5
4103,B5,736.5,0.25,61,170.5
4104,B4,736.5,0.25,61,170.5
4105,C5,737.0,0.25,77,170.5
4106,A5,737.0,0.25,77,170.5
4107,A4,737.0,0.25,77,170.5
4108,A3,737.0,0.25,66,170.5
4109,A2,737.0,0.25,66,170.5
4110,B4,738.0,0.25,61,170.5
4111,G#5,738.0,0.25,61,170.5
4112,G#4,738.0,0.25,61,170.5
4113,D3,738.0,0.25,50,170.5
4114,D2,738.0,0.25,50,170.5
4115,F2,738.0,0.25,50,170.5
4116,C5,739.0,2.0,76,170.5
4117,A5,739.0,2.0,76,170.5
4118,A4,739.0,2.0,76,170.5
4119,A3,739.0,2.0,64,170.5
4120,A2,739.0,2.0,64,170.5
4121,E3,739.0,2.0,64,170.5
4122,C2,740.75,0.125,56,170.5
4123,C3,740.875,0.125,66,170.5
4124,F6,741.0,0.5,67,170.5
4125,A6,741.0,0.5,67,170.5
4126,A5,741.0,0.5,67,170.5
4127,C6,741.0,0.5,67,170.5
4128,A4,741.0,1.75,58,170.5
4129,A3,741.0,1.75,58,170.5
4130,C4,741.0,1.75,58,170.5
4131,F4,741.0,1.75,58,170.5
4132,G#6,741.5,0.5,60,170.5
4133,G#5,741.5,0.5,60,170.5
4134,A6,742.0,0.5,64,170.5
4135,A5,742.0,0.5,64,170.5
4136,B6,742.5,0.5,68,170.5
4137,B5,742.5,0.5,68,170.5
4138,C2,742.75,0.125,57,170.5
4139,C3,742.875,0.125,57,170.5
4140,C7,743.0,2.0,70,170.5
4141,C6,743.0,2.0,70,170.5
4142,E6,743.0,2.0,70,170.5
4143,C5,743.0,1.75,62,170.5
4144,C4,743.0,1.75,62,170.5
4145,E4,743.0,1.75,62,170.5
4146,G4,743.0,1.75,62,170.5
4147,A1,744.75,0.125,59,170.5
4148,A2,744.875,0.125,59,170.5
4149,C7,745.0,0.5,70,170.5
4150,C6,745.0,0.5,70,170.5
4151,F6,745.0,0.5,70,170.5
4152,F4,745.0,1.75,56,170.5
4153,F3,745.0,1.75,56,170.5
4154,D4,745.0,1.75,56,170.5
4155,A3,745.0,1.75,56,170.5
4156,B6,745.5,0.5,67,170.5
4157,B5,745.5,0.5,67,170.5
4158,A6,746.0,0.5,67,170.5
4159,A5,746.0,0.5,67,170.5
4160,G#6,746.5,0.5,67,170.5
4161,G#5,746.5,0.5,67,170.5
4162,A1,746.75,0.125,57,170.5
4163,A2,746.875,0.125,57,170.5
4164,C6,747.0,1.5,70,170.5
4165,A6,747.0,1.5,70,170.5
4166,E6,747.0,1.5,70,170.5
4167,A5,747.0,1.5,70,170.5
4168,A4,747.0,2.0,56,170.5
4169,A3,747.0,2.0,56,170.5
4170,C4,747.0,2.0,56,170.5
4171,E4,747.0,2.0,56,170.5
4172,C7,748.5,0.25,64,170.5
4173,C6,748.5,0.25,64,170.5
4174,B6,749.0,0.5,70,170.5
4175,B5,749.0,0.5,70,170.5
4176,B2,749.0,0.5,62,170.5
4177,B1,749.0,0.5,62,170.5
4178,A6,749.5,2/5,64,170.5
4179,A5,749.5,2/5,64,170.5
4180,G#6,750.0,0.25,64,170.5
4181,G#5,750.0,0.25,64,170.5
4182,G#4,750.0,0.5,51,170.5
4183,B3,750.0,0.5,51,170.5
4184,E4,750.0,0.5,51,170.5
4185,B6,750.5,0.25,64,170.5
4186,B5,750.5,0.25,64,170.5
4187,B2,751.0,0.5,64,170.5
4188,A6,751.0,0.5,70,170.5
4189,A5,751.0,0.5,70,170.5
4190,C#6,751.5,2/5,64,170.5
4191,C#5,751.5,2/5,64,170.5
4192,F#6,752.0,0.25,64,170.5
4193,F#5,752.0,0.25,64,170.5
4194,A4,752.0,0.5,54,170.5
4195,F#4,752.0,0.5,54,170.5
4196,C#4,752.0,0.5,54,170.5
4197,A6,752.5,0.25,66,170.5
4198,A5,752.5,0.25,66,170.5
4199,B2,753.0,0.5,64,170.5
4200,G#6,753.0,0.5,74,170.5
4201,G#5,753.0,0.5,74,170.5
4202,F#6,753.5,2/5,66,170.5
4203,F#5,753.5,2/5,66,170.5
4204,E6,754.0,0.25,66,170.5
4205,E5,754.0,0.25,66,170.5
4206,G#4,754.0,0.5,50,170.5
4207,E4,754.0,0.5,50,170.5
4208,B3,754.0,0.5,50,170.5
4209,G#6,754.5,0.25,66,170.5
4210,G#5,754.5,0.25,66,170.5
4211,B2,755.0,0.5,64,170.5
4212,F#6,755.0,0.5,74,170.5
4213,F#5,755.0,0.5,74,170.5
4214,E6,755.5,2/5,66,170.5
4215,E5,755.5,2/5,66,170.5
4216,E-6,756.0,0.25,66,170.5
4217,E-5,756.0,0.25,66,170.5
4218,F#4,756.0,0.5,48,170.5
4219,E-4,756.0,0.5,48,170.5
4220,A3,756.0,0.5,48,170.5
4221,F#6,756.5,0.25,66,170.5
4222,F#5,756.5,0.25,66,170.5
4223,F#6,757.0,0.5,74,170.5
4224,F#5,757.0,0.5,74,170.5
4225,E4,757.0,0.5,56,170.5
4226,B3,757.0,0.5,56,170.5
4227,G#3,757.0,0.5,56,170.5
4228,E3,757.0,0.5,56,170.5
4229,E6,757.5,2/5,66,170.5
4230,E5,757.5,2/5,66,170.5
4231,E6,758.0,0.25,66,170.5
4232,E5,758.0,0.25,66,170.5
4233,F#4,758.0,0.5,48,170.5
4234,C4,758.0,0.5,48,170.5
4235,A3,758.0,0.5,48,170.5
4236,E-6,758.5,0.25,66,170.5
4237,E-5,758.5,0.25,66,170.5
4238,F#6,759.0,0.5,76,170.5
4239,F#5,759.0,0.5,76,170.5
4240,E4,759.0,0.5,56,170.5
4241,B3,759.0,0.5,56,170.5
4242,G#3,759.0,0.5,56,170.5
4243,E3,759.0,0.5,56,170.5
4244,E6,759.5,2/5,66,170.5
4245,E5,759.5,2/5,66,170.5
4246,E6,760.0,0.25,66,170.5
4247,E5,760.0,0.25,66,170.5
4248,F#4,760.0,0.5,50,170.5
4249,C4,760.0,0.5,50,170.5
4250,A3,760.0,0.5,50,170.5
4251,E-6,760.5,0.25,66,170.5
4252,E-5,760.5,0.25,66,170.5
4253,B5,761.0,2.0,76,170.5
4254,G#5,761.0,2.0,76,170.5
4255,E6,761.0,2.0,76,170.5
4256,E5,761.0,2.0,76,170.5
4257,E4,761.0,2.0,60,170.5
4258,B3,761.0,2.0,60,170.5
4259,G#3,761.0,2.0,60,170.5
4260,E3,761.0,2.0,60,170.5
4261,E7,763.0,0.5,74,170.5
4262,B6,763.0,0.5,74,170.5
4263,G#6,763.0,0.5,74,170.5
4264,E6,763.0,0.5,74,170.5
4265,E3,763.0,0.5,57,170.5
4266,E2,763.0,0.5,57,170.5
4267,G#2,763.0,0.5,57,170.5
4268,B2,763.0,0.5,57,170.5
4269,E5,764.75,0.25,76,170.5
4270,E4,764.75,0.25,76,170.5
4271,G#4,764.75,0.25,76,170.5
4272,B4,764.75,0.25,76,170.5
4273,E3,764.75,0.25,53,170.5
4274,G#3,764.75,0.25,53,170.5
4275,B3,764.75,0.25,53,170.5
4276,E5,765.0,0.5,83,170.5
4277,E4,765.0,0.5,83,170.5
4278,G#4,765.0,0.5,83,170.5
4279,B4,765.0,0.5,83,170.5
4280,E3,765.0,0.5,59,170.5
4281,G#3,765.0,0.5,59,170.5
4282,B3,765.0,0.5,59,170.5
4283,G#4,767.0,0.5,76,170.5
4284,C#5,767.0,0.5,76,170.5
4285,G#5,767.0,0.5,76,170.5
4286,E5,767.0,0.5,76,170.5
4287,C#3,767.0,0.5,74,170.5
4288,E3,767.0,0.5,74,170.5
4289,G#3,767.0,0.5,74,170.5
4290,C#4,767.0,0.5,74,170.5
4291,B4,769.0,3.0,83,170.5
4292,B5,769.0,3.0,83,170.5
4293,E-5,769.0,3.0,83,170.5
4294,G#5,769.0,3.0,83,170.5
4295,G#3,769.0,3.0,65,170.5
4296,G#2,769.0,3.0,65,170.5
4297,E-3,769.0,3.0,65,170.5
4298,B4,772.0,0.75,83,170.5
4299,E5,772.0,0.75,83,170.5
4300,G#5,772.0,0.75,83,170.5
4301,B5,772.0,0.75,83,170.5
4302,C#3,772.0,0.25,58,170.5
4303,C#2,772.0,0.25,58,170.5
4304,E6,772.75,0.25,80,170.5
4305,E5,772.75,0.25,80,170.5
4306,B4,773.0,0.5,87,170.5
4307,G#5,773.0,0.5,87,170.5
4308,B5,773.0,0.5,87,170.5
4309,E-5,773.0,0.5,87,170.5
4310,G#2,773.0,0.5,71,170.5
4311,G#3,773.0,0.5,71,170.5
4312,G#5,774.0,0.75,83,170.5
4313,B4,774.0,0.75,83,170.5
4314,E5,774.0,0.75,83,170.5
4315,B5,774.0,0.75,83,170.5
4316,C#4,774.0,0.25,58,170.5
4317,C#3,774.0,0.25,58,170.5
4318,E5,774.75,0.25,80,170.5
4319,E6,774.75,0.25,80,170.5
4320,B4,775.0,0.5,87,170.5
4321,E-5,775.0,0.5,87,170.5
4322,G#5,775.0,0.5,87,170.5
4323,B5,775.0,0.5,87,170.5
4324,G#3,775.0,0.5,71,170.5
4325,G#4,775.0,0.5,71,170.5
4326,E5,776.0,0.75,83,170.5
4327,G#5,776.0,0.75,83,170.5
4328,B4,776.0,0.75,83,170.5
4329,B5,776.0,0.75,83,170.5
4330,C#4,776.0,0.25,58,170.5
4331,C#3,776.0,0.25,58,170.5
4332,E6,776.75,0.25,80,170.5
4333,E5,776.75,0.25,80,170.5
4334,B4,777.0,4.0,83,170.5
4335,B5,777.0,4.0,83,170.5
4336,E-5,777.0,4.0,83,170.5
4337,G#5,777.0,4.0,83,170.5
4338,G#3,777.0,0.5,81,170.5
4339,G#2,777.0,0.5,81,170.5
4340,G3,778.0,0.5,81,170.5
4341,G2,778.0,0.5,81,170.5
4342,F#3,779.0,0.5,81,170.5
4343,F#2,779.0,0.5,81,170.5
4344,F3,780.0,0.5,81,170.5
4345,F2,780.0,0.5,81,170.5
4346,E6,781.0,0.375,87,170.5
4347,D5,781.0,0.375,87,170.5
4348,B5,781.0,0.375,87,170.5
4349,E5,781.0,0.375,87,170.5
4350,G#5,781.0,0.375,87,170.5
4351,B2,781.0,0.375,80,170.5
4352,G#2,781.0,0.375,80,170.5
4353,E3,781.0,0.375,80,170.5
4354,E2,781.0,0.375,80,170.5
4355,E5,784.0,1.0,58,170.5
4356,E4,784.0,1.0,58,170.5
4357,C7,785.0,0.375,79,170.5
4358,A6,785.0,0.375,79,170.5
4359,A4,785.0,0.5,70,170.5
4360,C5,785.0,0.5,70,170.5
4361,G6,785.375,0.125,60,170.5
4362,B6,785.375,0.125,60,170.5
4363,E5,785.5,0.5,61,170.5
4364,A6,785.5,0.25,59,170.5
4365,F6,785.5,0.25,59,170.5
4366,G6,785.75,0.25,58,170.5
4367,E6,785.75,0.25,58,170.5
4368,F6,786.0,0.25,57,170.5
4369,D6,786.0,0.25,57,170.5
4370,A4,786.0,0.5,65,170.5
4371,C5,786.0,0.5,65,170.5
4372,E6,786.25,0.25,56,170.5
4373,C6,786.25,0.25,56,170.5
4374,D6,786.5,0.25,54,170.5
4375,B5,786.5,0.25,54,170.5
4376,C6,786.75,0.25,53,170.5
4377,A5,786.75,0.25,53,170.5
4378,B5,787.0,18/125,51,170.5
4379,G5,787.0,18/125,51,170.5
4380,B3,787.0,0.5,65,170.5
4381,D4,787.0,0.5,65,170.5
4382,A5,787.144,71/500,51,170.5
4383,F5,787.144,71/500,51,170.5
4384,G5,787.285,18/125,50,170.5
4385,E5,787.285,18/125,50,170.5
4386,F5,787.427,18/125,50,170.5
4387,D5,787.427,18/125,50,170.5
4388,G4,787.5,0.5,59,170.5
4389,C5,787.571,71/500,49,170.5
4390,E5,787.571,71/500,49,170.5
4391,B4,787.712,18/125,48,170.5
4392,D5,787.712,18/125,48,170.5
4393,A4,787.856,71/500,47,170.5
4394,C5,787.856,71/500,47,170.5
4395,B4,788.0,0.5,47,170.5
4396,G4,788.0,0.5,47,170.5
4397,B3,788.0,0.5,55,170.5
4398,D4,788.0,0.5,55,170.5
4399,A6,789.0,0.375,79,170.5
4400,F6,789.0,0.375,79,170.5
4401,A4,789.0,0.5,70,170.5
4402,F4,789.0,0.5,70,170.5
4403,E6,789.375,0.125,60,170.5
4404,G6,789.375,0.125,60,170.5
4405,C5,789.5,0.5,61,170.5
4406,F6,789.5,0.25,59,170.5
4407,D6,789.5,0.25,59,170.5
4408,E6,789.75,0.25,58,170.5
4409,C6,789.75,0.25,58,170.5
4410,D6,790.0,0.25,57,170.5
4411,B5,790.0,0.25,57,170.5
4412,A4,790.0,0.5,65,170.5
4413,F4,790.0,0.5,65,170.5
4414,C6,790.25,0.25,55,170.5
4415,A5,790.25,0.25,55,170.5
4416,B5,790.5,0.25,54,170.5
4417,G5,790.5,0.25,54,170.5
4418,A5,790.75,0.25,52,170.5
4419,F5,790.75,0.25,52,170.5
4420,G5,791.0,18/125,50,170.5
4421,E5,791.0,18/125,50,170.5
4422,B3,791.0,0.5,65,170.5
4423,G3,791.0,0.5,65,170.5
4424,F5,791.144,71/500,49,170.5
4425,D5,791.144,71/500,49,170.5
4426,E5,791.285,18/125,48,170.5
4427,C5,791.285,18/125,48,170.5
4428,D5,791.427,18/125,47,170.5
4429,B4,791.427,18/125,47,170.5
4430,E4,791.5,0.5,59,170.5
4431,A4,791.571,71/500,46,170.5
4432,C5,791.571,71/500,46,170.5
4433,G4,791.712,18/125,45,170.5
4434,B4,791.712,18/125,45,170.5
4435,F4,791.856,71/500,43,170.5
4436,A4,791.856,71/500,43,170.5
4437,G4,792.0,0.5,42,170.5
4438,E4,792.0,0.5,42,170.5
4439,B3,792.0,0.5,55,170.5
4440,G3,792.0,0.5,55,170.5
4441,F6,793.0,0.375,79,170.5
4442,D6,793.0,0.375,79,170.5
4443,D4,793.0,0.5,70,170.5
4444,F4,793.0,0.5,70,170.5
4445,C6,793.375,0.125,61,170.5
4446,E6,793.375,0.125,61,170.5
4447,A4,793.5,0.5,61,170.5
4448,D6,793.5,0.25,60,170.5
4449,B5,793.5,0.25,60,170.5
4450,C6,793.75,0.25,59,170.5
4451,A5,793.75,0.25,59,170.5
4452,B5,794.0,0.25,58,170.5
4453,G5,794.0,0.25,58,170.5
4454,D4,794.0,0.5,65,170.5
4455,F4,794.0,0.5,65,170.5
4456,A5,794.25,0.25,57,170.5
4457,F5,794.25,0.25,57,170.5
4458,G5,794.5,0.25,55,170.5
4459,E5,794.5,0.25,55,170.5
4460,F5,794.75,0.25,54,170.5
4461,D5,794.75,0.25,54,170.5
4462,E5,795.0,18/125,53,170.5
4463,C5,795.0,18/125,53,170.5
4464,G3,795.0,0.5,65,170.5
4465,E3,795.0,0.5,65,170.5
4466,D5,795.144,71/500,52,170.5
4467,B4,795.144,71/500,52,170.5
4468,C5,795.285,18/125,51,170.5
4469,A4,795.285,18/125,51,170.5
4470,B4,795.427,18/125,50,170.5
4471,G4,795.427,18/125,50,170.5
4472,C4,795.5,0.5,59,170.5
4473,F4,795.571,71/500,49,170.5
4474,A4,795.571,71/500,49,170.5
4475,E4,795.712,18/125,47,170.5
4476,G4,795.712,18/125,47,170.5
4477,D4,795.856,71/500,46,170.5
4478,F4,795.856,71/500,46,170.5
4479,E4,796.0,0.5,45,170.5
4480,C4,796.0,0.5,45,170.5
4481,G3,796.0,0.5,55,170.5
4482,E3,796.0,0.5,55,170.5
4483,D6,797.0,0.375,79,170.5
4484,B5,797.0,0.375,79,170.5
4485,B3,797.0,0.5,70,170.5
4486,D4,797.0,0.5,70,170.5
4487,A5,797.375,0.125,59,170.5
4488,C6,797.375,0.125,59,170.5
4489,F4,797.5,0.5,61,170.5
4490,B5,797.5,0.25,58,170.5
4491,G5,797.5,0.25,58,170.5
4492,A5,797.75,0.25,57,170.5
4493,F5,797.75,0.25,57,170.5
4494,G5,798.0,0.25,56,170.5
4495,E5,798.0,0.25,56,170.5
4496,D4,798.0,0.5,65,170.5
4497,B3,798.0,0.5,65,170.5
4498,F5,798.25,0.25,54,170.5
4499,D5,798.25,0.25,54,170.5
4500,E5,798.5,0.25,53,170.5
4501,C5,798.5,0.25,53,170.5
4502,D5,798.75,0.25,52,170.5
4503,B4,798.75,0.25,52,170.5
4504,C5,799.0,18/125,51,170.5
4505,A4,799.0,18/125,51,170.5
4506,C3,799.0,0.5,65,170.5
4507,E3,799.0,0.5,65,170.5
4508,B4,799.144,71/500,50,170.5
4509,G4,799.144,71/500,50,170.5
4510,A4,799.285,18/125,49,170.5
4511,F4,799.285,18/125,49,170.5
4512,G4,799.427,18/125,49,170.5
4513,E4,799.427,18/125,49,170.5
4514,A3,799.5,0.5,59,170.5
4515,D4,799.571,71/500,48,170.5
4516,F4,799.571,71/500,48,170.5
4517,C4,799.712,18/125,47,170.5
4518,E4,799.712,18/125,47,170.5
4519,B3,799.856,71/500,45,170.5
4520,D4,799.856,71/500,45,170.5
4521,C4,800.0,0.5,44,170.5
4522,A3,800.0,0.5,44,170.5
4523,C3,800.0,0.5,55,170.5
4524,E3,800.0,0.5,55,170.5
4525,B5,801.0,0.375,79,170.5
4526,G5,801.0,0.375,79,170.5
4527,B3,801.0,0.5,70,170.5
4528,G3,801.0,0.5,70,170.5
4529,F5,801.375,0.125,62,170.5
4530,A5,801.375,0.125,62,170.5
4531,D4,801.5,0.5,61,170.5
4532,G5,801.5,0.25,61,170.5
4533,E5,801.5,0.25,61,170.5
4534,F5,801.75,0.25,59,170.5
4535,D5,801.75,0.25,59,170.5
4536,E5,802.0,0.25,57,170.5
4537,C5,802.0,0.25,57,170.5
4538,B3,802.0,0.5,65,170.5
4539,G3,802.0,0.5,65,170.5
4540,D5,802.25,0.25,56,170.5
4541,B4,802.25,0.25,56,170.5
4542,C5,802.5,0.25,54,170.5
4543,A4,802.5,0.25,54,170.5
4544,B4,802.75,0.25,53,170.5
4545,G4,802.75,0.25,53,170.5
4546,A4,803.0,18/125,50,170.5
4547,F4,803.0,18/125,50,170.5
4548,A2,803.0,0.5,65,170.5
4549,C3,803.0,0.5,65,170.5
4550,G4,803.144,71/500,49,170.5
4551,E4,803.144,71/500,49,170.5
4552,F4,803.285,18/125,48,170.5
4553,D4,803.285,18/125,48,170.5
4554,E4,803.427,18/125,47,170.5
4555,C4,803.427,18/125,47,170.5
4556,F3,803.5,0.5,59,170.5
4557,B3,803.571,71/500,46,170.5
4558,D4,803.571,71/500,46,170.5
4559,A3,803.712,18/125,45,170.5
4560,C4,803.712,18/125,45,170.5
4561,G3,803.856,71/500,44,170.5
4562,B3,803.856,71/500,44,170.5
4563,A3,804.0,0.5,43,170.5
4564,F3,804.0,0.5,43,170.5
4565,C3,804.0,0.5,55,170.5
4566,A2,804.0,0.5,55,170.5
4567,E3,805.0,1.0,68,170.5
4568,G#2,805.0,1.0,68,170.5
4569,E2,805.0,1.0,68,170.5
4570,B2,805.0,1.0,68,170.5
4571,E3,805.333,333/1000,73,170.5
4572,G#3,805.667,333/1000,75,170.5
4573,E4,806.0,3/10,77,170.5
4574,E4,806.333,333/1000,72,170.5
4575,D3,806.5,0.5,60,170.5
4576,E3,806.5,0.5,60,170.5
4577,B3,806.5,0.5,60,170.5
4578,G#4,806.667,333/1000,72,170.5
4579,E4,807.0,3/10,77,170.5
4580,B-3,807.0,0.25,64,170.5
4581,E3,807.0,0.25,64,170.5
4582,C#3,807.0,0.25,64,170.5
4583,E4,807.333,333/1000,74,170.5
4584,G#4,807.667,333/1000,74,170.5
4585,E5,808.0,3/10,77,170.5
4586,C3,808.0,0.25,60,170.5
4587,A3,808.0,0.25,60,170.5
4588,E3,808.0,0.25,60,170.5
4589,E5,808.333,333/1000,74,170.5
4590,G#5,808.667,333/1000,74,170.5
4591,E5,809.0,3/10,77,170.5
4592,E3,809.0,1.0,69,170.5
4593,B2,809.0,1.0,69,170.5
4594,G#3,809.0,1.0,69,170.5
4595,E5,809.333,333/1000,73,170.5
4596,G#5,809.667,333/1000,75,170.5
4597,E6,810.0,3/10,77,170.5
4598,E6,810.333,333/1000,72,170.5
4599,E4,810.5,0.5,60,170.5
4600,D4,810.5,0.5,60,170.5
4601,B4,810.5,0.5,60,170.5
4602,G#6,810.667,333/1000,72,170.5
4603,E6,811.0,3/10,77,170.5
4604,C#4,811.0,0.25,64,170.5
4605,E4,811.0,0.25,64,170.5
4606,B-4,811.0,0.25,64,170.5
4607,E6,811.333,333/1000,74,170.5
4608,G#6,811.667,333/1000,74,170.5
4609,E7,812.0,333/1000,77,170.5
4610,C4,812.0,0.25,60,170.5
4611,E4,812.0,0.25,60,170.5
4612,A4,812.0,0.25,60,170.5
4613,G#6,812.333,333/1000,74,170.5
4614,G#7,812.667,333/1000,74,170.5
4615,E6,813.0,333/1000,77,170.5
4616,B3,813.0,1.0,69,170.5
4617,E4,813.0,1.0,69,170.5
4618,G#4,813.0,1.0,69,170.5
4619,E7,813.333,333/1000,73,170.5
4620,G#6,813.667,333/1000,75,170.5
4621,G#7,814.0,333/1000,78,170.5
4622,E5,814.0,0.25,61,170.5
4623,B4,814.0,0.25,61,170.5
4624,D5,814.0,0.25,61,170.5
4625,E4,814.0,0.25,61,170.5
4626,E6,814.333,333/1000,74,170.5
4627,E7,814.667,333/1000,74,170.5
4628,G#6,815.0,333/1000,84,170.5
4629,E5,815.0,0.25,65,170.5
4630,E4,815.0,0.25,65,170.5
4631,C#5,815.0,0.25,65,170.5
4632,B-4,815.0,0.25,65,170.5
4633,G#7,815.333,333/1000,79,170.5
4634,E6,815.667,333/1000,79,170.5
4635,E7,816.0,333/1000,87,170.5
4636,A4,816.0,0.25,64,170.5
4637,E5,816.0,0.25,64,170.5
4638,C5,816.0,0.25,64,170.5
4639,E4,816.0,0.25,64,170.5
4640,G#6,816.333,333/1000,83,170.5
4641,G#7,816.667,333/1000,83,170.5
4642,E6,817.0,1.0,91,170.5
4643,E4,817.0,1.0,65,170.5
4644,E5,817.0,1.0,65,170.5
4645,B4,817.0,1.0,65,170.5
4646,G#4,817.0,1.0,65,170.5
4647,E7,818.0,0.25,88,170.5
4648,G#6,818.0,0.25,88,170.5
4649,B6,818.0,0.25,88,170.5
4650,G#5,818.0,0.25,68,170.5
4651,B4,818.0,0.25,68,170.5
4652,B5,818.0,0.25,68,170.5
4653,E5,818.0,0.25,68,170.5
4654,E5,819.5,0.5,74,170.5
4655,E4,819.5,0.5,74,170.5
4656,E3,819.5,0.5,64,170.5
4657,E2,819.5,0.5,64,170.5
4658,F#5,820.0,0.5,80,170.5
4659,F#4,820.0,0.5,80,170.5
4660,F#3,820.0,0.5,68,170.5
4661,F#2,820.0,0.5,68,170.5
4662,G#5,820.5,0.5,83,170.5
4663,G#4,820.5,0.5,83,170.5
4664,G#3,820.5,0.5,73,170.5
4665,G#2,820.5,0.5,73,170.5
4666,C5,821.0,0.5,84,170.5
4667,A5,821.0,0.5,84,170.5
4668,A4,821.0,0.5,84,170.5
4669,A3,821.0,0.5,76,170.5
4670,A2,821.0,0.5,76,170.5
4671,B4,822.0,0.25,67,170.5
4672,G#5,822.0,0.25,67,170.5
4673,G#4,822.0,0.25,67,170.5
4674,F3,822.0,0.5,52,170.5
4675,F2,822.0,0.5,52,170.5
4676,D5,822.5,0.25,61,170.5
4677,B5,822.5,0.25,61,170.5
4678,B4,822.5,0.25,61,170.5
4679,A5,823.0,0.5,75,170.5
4680,A4,823.0,0.5,75,170.5
4681,C5,823.0,0.5,75,170.5
4682,A3,823.0,0.5,64,170.5
4683,A2,823.0,0.5,64,170.5
4684,B4,824.0,0.25,65,170.5
4685,G#5,824.0,0.25,65,170.5
4686,G#4,824.0,0.25,65,170.5
4687,E2,824.0,0.5,52,170.5
4688,E3,824.0,0.5,52,170.5
4689,D5,824.5,0.25,60,170.5
4690,B5,824.5,0.25,60,170.5
4691,B4,824.5,0.25,60,170.5
4692,C5,825.0,0.25,75,170.5
4693,A5,825.0,0.25,75,170.5
4694,A4,825.0,0.25,75,170.5
4695,A2,825.0,0.25,64,170.5
4696,A3,825.0,0.25,64,170.5
4697,B4,826.0,0.25,60,170.5
4698,G#5,826.0,0.25,60,170.5
4699,G#4,826.0,0.25,60,170.5
4700,D2,826.0,0.25,50,170.5
4701,D3,826.0,0.25,50,170.5
4702,F2,826.0,0.25,50,170.5
4703,C5,827.0,2.0,74,170.5
4704,A5,827.0,2.0,74,170.5
4705,A4,827.0,2.0,74,170.5
4706,A3,827.0,2.0,63,170.5
4707,E3,827.0,2.0,63,170.5
4708,A2,827.0,2.0,63,170.5
4709,A6,829.0,0.25,69,170.5
4710,A5,829.0,0.25,69,170.5
4711,B6,829.5,0.25,73,170.5
4712,B5,829.5,0.25,73,170.5
4713,C7,830.0,1.5,76,170.5
4714,C6,830.0,1.5,76,170.5
4715,A3,830.0,0.25,69,170.5
4716,A4,830.0,0.25,69,170.5
4717,B4,830.5,0.25,73,170.5
4718,B3,830.5,0.25,73,170.5
4719,C5,831.0,1.5,76,170.5
4720,C4,831.0,1.5,76,170.5
4721,B6,831.5,0.25,68,170.5
4722,B5,831.5,0.25,68,170.5
4723,A6,832.0,1.0,76,170.5
4724,A5,832.0,1.0,76,170.5
4725,B4,832.5,0.25,68,170.5
4726,B3,832.5,0.25,68,170.5
4727,A6,833.0,0.5,76,170.5
4728,A5,833.0,0.5,76,170.5
4729,A4,833.0,1.5,76,170.5
4730,A3,833.0,1.5,76,170.5
4731,G6,833.5,0.25,69,170.5
4732,G5,833.5,0.25,69,170.5
4733,F6,834.0,1.5,78,170.5
4734,F5,834.0,1.5,78,170.5
4735,G3,834.5,0.25,69,170.5
4736,G4,834.5,0.25,69,170.5
4737,F3,835.0,1.5,78,170.5
4738,F4,835.0,1.5,78,170.5
4739,E6,835.5,0.25,74,170.5
4740,E5,835.5,0.25,74,170.5
4741,D6,836.0,0.25,74,170.5
4742,D5,836.0,0.25,74,170.5
4743,C#6,836.5,0.25,74,170.5
4744,C#5,836.5,0.25,74,170.5
4745,E4,836.5,0.25,75,170.5
4746,E3,836.5,0.25,75,170.5
4747,F5,837.0,0.5,81,170.5
4748,D5,837.0,0.5,81,170.5
4749,D6,837.0,0.5,81,170.5
4750,D3,837.0,0.5,64,170.5
4751,D4,837.0,0.5,64,170.5
4752,E5,838.0,0.25,67,170.5
4753,C#5,838.0,0.25,67,170.5
4754,C#6,838.0,0.25,67,170.5
4755,B-2,838.0,0.25,52,170.5
4756,B-3,838.0,0.25,52,170.5
4757,E5,838.5,0.25,61,170.5
4758,E6,838.5,0.25,61,170.5
4759,G5,838.5,0.25,61,170.5
4760,D5,839.0,0.5,75,170.5
4761,D6,839.0,0.5,75,170.5
4762,F5,839.0,0.5,75,170.5
4763,D3,839.0,0.5,64,170.5
4764,D4,839.0,0.5,64,170.5
4765,E5,840.0,0.25,65,170.5
4766,C#5,840.0,0.25,65,170.5
4767,C#6,840.0,0.25,65,170.5
4768,A2,840.0,0.25,52,170.5
4769,A3,840.0,0.25,52,170.5
4770,G5,840.5,0.25,60,170.5
4771,E6,840.5,0.25,60,170.5
4772,E5,840.5,0.25,60,170.5
4773,D5,841.0,0.25,75,170.5
4774,D6,841.0,0.25,75,170.5
4775,F5,841.0,0.25,75,170.5
4776,D3,841.0,0.25,64,170.5
4777,D4,841.0,0.25,64,170.5
4778,E5,842.0,0.25,60,170.5
4779,C#5,842.0,0.25,60,170.5
4780,C#6,842.0,0.25,60,170.5
4781,B-2,842.0,0.25,50,170.5
4782,G3,842.0,0.25,50,170.5
4783,G2,842.0,0.25,50,170.5
4784,D5,843.0,2.0,74,170.5
4785,F5,843.0,2.0,74,170.5
4786,D6,843.0,2.0,74,170.5
4787,D3,843.0,2.0,63,170.5
4788,A3,843.0,2.0,63,170.5
4789,D4,843.0,2.0,63,170.5
4790,D7,845.0,0.25,69,170.5
4791,D6,845.0,0.25,69,170.5
4792,E7,845.5,0.25,73,170.5
4793,E6,845.5,0.25,73,170.5
4794,F7,846.0,1.5,76,170.5
4795,F6,846.0,1.5,76,170.5
4796,D4,846.0,0.25,69,170.5
4797,D5,846.0,0.25,69,170.5
4798,E4,846.5,0.25,73,170.5
4799,E5,846.5,0.25,73,170.5
4800,F4,847.0,1.5,76,170.5
4801,F5,847.0,1.5,76,170.5
4802,E7,847.5,0.25,68,170.5
4803,E6,847.5,0.25,68,170.5
4804,D7,848.0,1.0,76,170.5
4805,D6,848.0,1.0,76,170.5
4806,E4,848.5,0.25,68,170.5
4807,E5,848.5,0.25,68,170.5
4808,D7,849.0,0.5,76,170.5
4809,D6,849.0,0.5,76,170.5
4810,D5,849.0,1.5,76,170.5
4811,D4,849.0,1.5,76,170.5
4812,C7,849.5,0.25,69,170.5
4813,C6,849.5,0.25,69,170.5
4814,B6,850.0,1.5,78,170.5
4815,B5,850.0,1.5,78,170.5
4816,C5,850.5,0.25,69,170.5
4817,C4,850.5,0.25,69,170.5
4818,B4,851.0,1.5,78,170.5
4819,B3,851.0,1.5,78,170.5
4820,A6,851.5,0.25,71,170.5
4821,A5,851.5,0.25,71,170.5
4822,G#6,852.0,0.25,71,170.5
4823,G#5,852.0,0.25,71,170.5
4824,A6,852.5,0.25,71,170.5
4825,A5,852.5,0.25,71,170.5
4826,A4,852.5,0.25,64,170.5
4827,A3,852.5,0.25,64,170.5
4828,G#6,853.0,0.25,73,170.5
4829,G#5,853.0,0.25,73,170.5
4830,G#3,853.0,0.25,66,170.5
4831,G#4,853.0,0.25,66,170.5
4832,B6,853.5,0.25,78,170.5
4833,B5,853.5,0.25,78,170.5
4834,B3,853.5,0.25,71,170.5
4835,B4,853.5,0.25,71,170.5
4836,E7,854.0,0.5,81,170.5
4837,E6,854.0,0.5,81,170.5
4838,E4,854.0,0.5,74,170.5
4839,E5,854.0,0.5,74,170.5
4840,E4,855.0,2.0,77,170.5
4841,G#3,855.0,2.0,77,170.5
4842,B3,855.0,2.0,77,170.5
4843,E2,855.0,2.0,62,170.5
4844,E3,855.0,2.0,62,170.5
4845,G#2,855.0,2.0,62,170.5
4846,B2,855.0,2.0,62,170.5
4847,A6,857.0,0.25,73,170.5
4848,A5,857.0,0.25,73,170.5
4849,A4,857.0,0.25,66,170.5
4850,A3,857.0,0.25,66,170.5
4851,C7,857.5,0.25,78,170.5
4852,C6,857.5,0.25,78,170.5
4853,C5,857.5,0.25,71,170.5
4854,C4,857.5,0.25,71,170.5
4855,E7,858.0,0.5,81,170.5
4856,E6,858.0,0.5,81,170.5
4857,E5,858.0,0.5,74,170.5
4858,E4,858.0,0.5,74,170.5
4859,E4,859.0,2.0,77,170.5
4860,A3,859.0,2.0,77,170.5
4861,C4,859.0,2.0,77,170.5
4862,E3,859.0,2.0,62,170.5
4863,A2,859.0,2.0,62,170.5
4864,C3,859.0,2.0,62,170.5
4865,E2,859.0,2.0,62,170.5
4866,F4,861.0,1.0,85,170.5
4867,G#5,861.0,0.25,68,170.5
4868,B4,861.0,0.25,68,170.5
4869,B5,861.5,0.25,60,170.5
4870,D5,861.5,0.25,60,170.5
4871,E4,862.0,0.25,73,170.5
4872,G#5,862.0,0.25,68,170.5
4873,B4,862.0,0.25,68,170.5
4874,B5,862.5,0.25,62,170.5
4875,D5,862.5,0.25,62,170.5
4876,F3,863.0,1.0,84,170.5
4877,B2,863.0,0.25,68,170.5
4878,G#2,863.0,0.25,68,170.5
4879,D3,863.5,0.25,66,170.5
4880,E3,864.0,0.25,74,170.5
4881,G#2,864.0,0.25,68,170.5
4882,B2,864.0,0.25,68,170.5
4883,D3,864.5,0.25,64,170.5
4884,F4,865.0,1.0,85,170.5
4885,A5,865.0,0.25,68,170.5
4886,C5,865.0,0.25,68,170.5
4887,C6,865.5,0.25,60,170.5
4888,E5,865.5,0.25,60,170.5
4889,E4,866.0,0.25,73,170.5
4890,A5,866.0,0.25,68,170.5
4891,C5,866.0,0.25,68,170.5
4892,C6,866.5,0.25,62,170.5
4893,E5,866.5,0.25,62,170.5
4894,F3,867.0,1.0,84,170.5
4895,A2,867.0,0.25,73,170.5
4896,C3,867.5,0.25,66,170.5
4897,E3,868.0,0.25,74,170.5
4898,A2,868.0,0.25,73,170.5
4899,C3,868.5,0.25,64,170.5
4900,B6,869.0,11/20,80,170.5
4901,F7,869.0,11/20,80,170.5
4902,F6,869.0,11/20,80,170.5
4903,G#6,869.0,11/20,80,170.5
4904,F4,869.0,11/20,53,170.5
4905,F5,869.0,11/20,53,170.5
4906,B4,869.0,11/20,53,170.5
4907,G#4,869.0,11/20,53,170.5
4908,E7,869.5,11/20,80,170.5
4909,E6,869.5,11/20,80,170.5
4910,E5,869.5,11/20,56,170.5
4911,E4,869.5,11/20,56,170.5
4912,D7,870.0,11/20,78,170.5
4913,D6,870.0,11/20,78,170.5
4914,D5,870.0,11/20,54,170.5
4915,D4,870.0,11/20,54,170.5
4916,C7,870.5,11/20,76,170.5
4917,C6,870.5,11/20,76,170.5
4918,C5,870.5,11/20,54,170.5
4919,C4,870.5,11/20,54,170.5
4920,B6,871.0,11/20,74,170.5
4921,B5,871.0,11/20,74,170.5
4922,B4,871.0,11/20,52,170.5
4923,B3,871.0,11/20,52,170.5
4924,A6,871.5,11/20,74,170.5
4925,A5,871.5,11/20,74,170.5
4926,A4,871.5,11/20,52,170.5
4927,A3,871.5,11/20,52,170.5
4928,G#6,872.0,11/20,73,170.5
4929,G#5,872.0,11/20,73,170.5
4930,G#4,872.0,11/20,50,170.5
4931,G#3,872.0,11/20,50,170.5
4932,E6,872.5,0.5,71,170.5
4933,E5,872.5,0.5,71,170.5
4934,E4,872.5,0.5,49,170.5
4935,E3,872.5,0.5,49,170.5
4936,F6,873.0,11/20,71,170.5
4937,F5,873.0,11/20,71,170.5
4938,G#5,873.0,11/20,71,170.5
4939,B5,873.0,11/20,71,170.5
4940,E6,873.0,1/20,71,170.5
4941,E5,873.0,1/20,71,170.5
4942,B3,873.0,11/20,52,170.5
4943,F4,873.0,11/20,52,170.5
4944,F3,873.0,11/20,52,170.5
4945,G#3,873.0,11/20,52,170.5
4946,E4,873.0,1/20,49,170.5
4947,E3,873.0,1/20,49,170.5
4948,E6,873.5,11/20,71,170.5
4949,E5,873.5,11/20,71,170.5
4950,E3,873.5,11/20,54,170.5
4951,E4,873.5,11/20,54,170.5
4952,D6,874.0,11/20,69,170.5
4953,D5,874.0,11/20,69,170.5
4954,D4,874.0,11/20,52,170.5
4955,D3,874.0,11/20,52,170.5
4956,C6,874.5,11/20,68,170.5
4957,C5,874.5,11/20,68,170.5
4958,C4,874.5,11/20,50,170.5
4959,C3,874.5,11/20,50,170.5
4960,B5,875.0,11/20,66,170.5
4961,B4,875.0,11/20,66,170.5
4962,B3,875.0,11/20,49,170.5
4963,B2,875.0,11/20,49,170.5
4964,A5,875.5,11/20,64,170.5
4965,A4,875.5,11/20,64,170.5
4966,A3,875.5,11/20,47,170.5
4967,A2,875.5,11/20,47,170.5
4968,G#5,876.0,11/20,62,170.5
4969,G#4,876.0,11/20,62,170.5
4970,G#2,876.0,11/20,46,170.5
4971,G#3,876.0,11/20,46,170.5
4972,E5,876.5,0.5,62,170.5
4973,E4,876.5,0.5,62,170.5
4974,E2,876.5,0.5,44,170.5
4975,E3,876.5,0.5,44,170.5
4976,F5,877.0,11/20,66,170.5
4977,F4,877.0,11/20,66,170.5
4978,E5,877.0,1/20,62,170.5
4979,E4,877.0,1/20,62,170.5
4980,F2,877.0,11/20,49,170.5
4981,F3,877.0,11/20,49,170.5
4982,E2,877.0,1/20,44,170.5
4983,E3,877.0,1/20,44,170.5
4984,E-5,877.5,11/20,59,170.5
4985,E-4,877.5,11/20,59,170.5
4986,E-2,877.5,11/20,44,170.5
4987,E-3,877.5,11/20,44,170.5
4988,E5,878.0,11/20,64,170.5
4989,E4,878.0,11/20,64,170.5
4990,E2,878.0,11/20,47,170.5
4991,E3,878.0,11/20,47,170.5
4992,D5,878.5,11/20,60,170.5
4993,D4,878.5,11/20,60,170.5
4994,D3,878.5,11/20,44,170.5
4995,D2,878.5,11/20,44,170.5
4996,E-5,879.0,11/20,64,170.5
4997,E-4,879.0,11/20,64,170.5
4998,E-3,879.0,11/20,47,170.5
4999,E-2,879.0,11/20,47,170.5
5000,C#5,879.5,11/20,61,170.5
5001,C#4,879.5,11/20,61,170.5
5002,C#3,879.5,11/20,46,170.5
5003,C#2,879.5,11/20,46,170.5
5004,D5,880.0,11/20,68,170.5
5005,D4,880.0,11/20,68,170.5
5006,D3,880.0,11/20,50,170.5
5007,D2,880.0,11/20,50,170.5
5008,C5,880.5,0.5,64,170.5
5009,C4,880.5,0.5,64,170.5
5010,C3,880.5,0.5,47,170.5
5011,C2,880.5,0.5,47,170.5
5012,C#5,881.0,0.5,70,170.5
5013,C#4,881.0,0.5,70,170.5
5014,C#3,881.0,0.5,52,170.5
5015,C#2,881.0,0.5,52,170.5
5016,B4,881.5,0.5,66,170.5
5017,B3,881.5,0.5,66,170.5
5018,B2,881.5,0.5,49,170.5
5019,B1,881.5,0.5,49,170.5
5020,C5,882.0,0.5,77,170.5
5021,C4,882.0,0.5,77,170.5
5022,C3,882.0,0.5,56,170.5
5023,C2,882.0,0.5,56,170.5
5024,B-4,882.5,0.5,72,170.5
5025,B-3,882.5,0.5,72,170.5
5026,B-1,882.5,0.5,54,170.5
5027,B-2,882.5,0.5,54,170.5
5028,B4,883.0,0.5,82,170.5
5029,B3,883.0,0.5,82,170.5
5030,B1,883.0,0.5,60,170.5
5031,B2,883.0,0.5,60,170.5
5032,A4,883.5,0.5,80,170.5
5033,A3,883.5,0.5,80,170.5
5034,A1,883.5,0.5,58,170.5
5035,A2,883.5,0.5,58,170.5
5036,B-4,884.0,0.5,88,170.5
5037,B-3,884.0,0.5,88,170.5
5038,B-1,884.0,0.5,66,170.5
5039,B-2,884.0,0.5,66,170.5
5040,G#4,884.5,0.5,86,170.5
5041,G#3,884.5,0.5,86,170.5
5042,G#1,884.5,0.5,64,170.5
5043,G#2,884.5,0.5,64,170.5
5044,A6,885.0,2.0,97,170.5
5045,A5,885.0,2.0,97,170.5
5046,C#6,885.0,2.0,97,170.5
5047,A1,885.0,2.0,71,170.5
5048,E2,885.0,2.0,71,170.5
5049,A2,885.0,2.0,71,170.5
5050,A4,886.0,0.5,79,170.5
5051,C#4,886.0,0.5,79,170.5
5052,E4,886.0,0.5,79,170.5
5053,C#3,886.0,0.5,60,170.5
5054,A3,886.0,0.5,60,170.5
5055,E3,886.0,0.5,60,170.5
5056,A4,886.5,0.5,79,170.5
5057,C#4,886.5,0.5,79,170.5
5058,E4,886.5,0.5,79,170.5
5059,A3,886.5,0.5,60,170.5
5060,E3,886.5,0.5,60,170.5
5061,C#3,886.5,0.5,60,170.5
5062,A4,887.0,0.5,87,170.5
5063,C#4,887.0,0.5,87,170.5
5064,E4,887.0,0.5,87,170.5
5065,C#3,887.0,0.5,65,170.5
5066,E3,887.0,0.5,65,170.5
5067,A3,887.0,0.5,65,170.5
5068,G#6,888.0,0.5,90,170.5
5069,G#5,888.0,0.5,90,170.5
5070,B5,888.0,0.5,90,170.5
5071,D3,888.0,0.5,59,170.5
5072,D4,888.0,0.5,59,170.5
5073,F3,888.0,0.5,59,170.5
5074,B6,888.5,0.5,90,170.5
5075,B5,888.5,0.5,90,170.5
5076,D6,888.5,0.5,90,170.5
5077,A6,889.0,0.5,97,170.5
5078,A5,889.0,0.5,97,170.5
5079,C#6,889.0,0.5,97,170.5
5080,A3,889.0,0.5,70,170.5
5081,C#3,889.0,0.5,70,170.5
5082,A2,889.0,0.5,70,170.5
5083,E3,889.0,0.5,70,170.5
5084,G#6,890.0,0.5,90,170.5
5085,G#5,890.0,0.5,90,170.5
5086,B5,890.0,0.5,90,170.5
5087,F2,890.0,0.5,62,170.5
5088,D3,890.0,0.5,62,170.5
5089,D2,890.0,0.5,62,170.5
5090,B6,890.5,0.5,90,170.5
5091,B5,890.5,0.5,90,170.5
5092,D6,890.5,0.5,90,170.5
5093,A6,891.0,0.5,97,170.5
5094,A5,891.0,0.5,97,170.5
5095,C#6,891.0,0.5,97,170.5
5096,E2,891.0,0.5,61,170.5
5097,A2,891.0,0.5,61,170.5
5098,A1,891.0,0.5,61,170.5
5099,C#2,891.0,0.5,61,170.5
5100,A6,892.0,0.5,92,170.5
5101,A5,892.0,0.5,92,170.5
5102,C#6,892.0,0.5,92,170.5
5103,F#2,892.0,0.5,65,170.5
5104,F#3,892.0,0.5,65,170.5
5105,C#7,893.0,2.0,94,170.5
5106,C#6,893.0,2.0,94,170.5
5107,F6,893.0,2.0,94,170.5
5108,C#2,893.0,2.0,69,170.5
5109,G#2,893.0,2.0,69,170.5
5110,C#3,893.0,2.0,69,170.5
5111,C#5,894.0,0.5,79,170.5
5112,F4,894.0,0.5,79,170.5
5113,G#4,894.0,0.5,79,170.5
5114,C#4,894.0,0.5,60,170.5
5115,G#3,894.0,0.5,60,170.5
5116,F3,894.0,0.5,60,170.5
5117,C#5,894.5,0.5,79,170.5
5118,F4,894.5,0.5,79,170.5
5119,G#4,894.5,0.5,79,170.5
5120,F3,894.5,0.5,60,170.5
5121,G#3,894.5,0.5,60,170.5
5122,C#4,894.5,0.5,60,170.5
5123,C#5,895.0,0.5,87,170.5
5124,F4,895.0,0.5,87,170.5
5125,G#4,895.0,0.5,87,170.5
5126,C#4,895.0,0.5,65,170.5
5127,G#3,895.0,0.5,65,170.5
5128,F3,895.0,0.5,65,170.5
5129,C7,896.0,0.5,90,170.5
5130,C6,896.0,0.5,90,170.5
5131,E-6,896.0,0.5,90,170.5
5132,F#4,896.0,0.5,59,170.5
5133,A3,896.0,0.5,59,170.5
5134,F#3,896.0,0.5,59,170.5
5135,E-7,896.5,0.5,90,170.5
5136,E-6,896.5,0.5,90,170.5
5137,F#6,896.5,0.5,90,170.5
5138,C#7,897.0,0.5,97,170.5
5139,C#6,897.0,0.5,97,170.5
5140,F6,897.0,0.5,97,170.5
5141,C#3,897.0,0.5,70,170.5
5142,F3,897.0,0.5,70,170.5
5143,G#3,897.0,0.5,70,170.5
5144,C#4,897.0,0.5,70,170.5
5145,C7,898.0,0.5,90,170.5
5146,C6,898.0,0.5,90,170.5
5147,E-6,898.0,0.5,90,170.5
5148,F#2,898.0,0.5,62,170.5
5149,A2,898.0,0.5,62,170.5
5150,F#3,898.0,0.5,62,170.5
5151,E-7,898.5,0.5,90,170.5
5152,E-6,898.5,0.5,90,170.5
5153,F#6,898.5,0.5,90,170.5
5154,C#7,899.0,0.5,97,170.5
5155,C#6,899.0,0.5,97,170.5
5156,F6,899.0,0.5,97,170.5
5157,C#2,899.0,0.5,61,170.5
5158,C#3,899.0,0.5,61,170.5
5159,G#2,899.0,0.5,61,170.5
5160,F2,899.0,0.5,61,170.5
5161,C#7,900.0,0.5,92,170.5
5162,C#6,900.0,0.5,92,170.5
5163,F6,900.0,0.5,92,170.5
5164,B-2,900.0,0.5,65,170.5
5165,B-3,900.0,0.5,65,170.5
5166,F7,901.0,2.0,94,170.5
5167,F6,901.0,2.0,94,170.5
5168,A6,901.0,2.0,94,170.5
5169,A2,901.0,2.0,68,170.5
5170,F3,901.0,2.0,68,170.5
5171,F2,901.0,2.0,68,170.5
5172,C3,901.0,2.0,68,170.5
5173,F5,902.0,0.5,79,170.5
5174,A4,902.0,0.5,79,170.5
5175,C5,902.0,0.5,79,170.5
5176,F4,902.0,0.5,60,170.5
5177,A3,902.0,0.5,60,170.5
5178,C4,902.0,0.5,60,170.5
5179,F5,902.5,0.5,79,170.5
5180,A4,902.5,0.5,79,170.5
5181,C5,902.5,0.5,79,170.5
5182,F4,902.5,0.5,60,170.5
5183,A3,902.5,0.5,60,170.5
5184,C4,902.5,0.5,60,170.5
5185,F5,903.0,0.5,87,170.5
5186,A4,903.0,0.5,87,170.5
5187,C5,903.0,0.5,87,170.5
5188,A3,903.0,0.5,65,170.5
5189,C4,903.0,0.5,65,170.5
5190,F4,903.0,0.5,65,170.5
5191,E7,904.0,0.5,82,170.5
5192,E6,904.0,0.5,82,170.5
5193,G6,904.0,0.5,82,170.5
5194,B-4,904.0,0.5,54,170.5
5195,C#4,904.0,0.5,54,170.5
5196,B-3,904.0,0.5,54,170.5
5197,G7,904.5,0.5,82,170.5
5198,G6,904.5,0.5,82,170.5
5199,B-6,904.5,0.5,82,170.5
5200,F7,905.0,0.5,89,170.5
5201,F6,905.0,0.5,89,170.5
5202,A6,905.0,0.5,89,170.5
5203,F3,905.0,0.5,64,170.5
5204,A3,905.0,0.5,64,170.5
5205,C4,905.0,0.5,64,170.5
5206,F4,905.0,0.5,64,170.5
5207,E7,906.0,0.5,82,170.5
5208,E6,906.0,0.5,82,170.5
5209,G6,906.0,0.5,82,170.5
5210,B-2,906.0,0.5,56,170.5
5211,C#3,906.0,0.5,56,170.5
5212,B-3,906.0,0.5,56,170.5
5213,G7,906.5,0.5,82,170.5
5214,G6,906.5,0.5,82,170.5
5215,B-6,906.5,0.5,82,170.5
5216,F7,907.0,0.5,89,170.5
5217,F6,907.0,0.5,89,170.5
5218,A6,907.0,0.5,89,170.5
5219,F2,907.0,0.5,56,170.5
5220,F3,907.0,0.5,56,170.5
5221,C3,907.0,0.5,56,170.5
5222,A2,907.0,0.5,56,170.5
5223,F6,908.0,0.5,84,170.5
5224,F5,908.0,0.5,84,170.5
5225,A5,908.0,0.5,84,170.5
5226,D2,908.0,0.5,60,170.5
5227,D3,908.0,0.5,60,170.5
5228,A6,909.0,0.5,74,170.5
5229,A5,909.0,0.5,74,170.5
5230,C#6,909.0,0.5,74,170.5
5231,A1,909.0,1.0,70,170.5
5232,A2,909.0,1.0,70,170.5
5233,G#6,909.5,0.5,70,170.5
5234,G#5,909.5,0.5,70,170.5
5235,A6,910.0,0.5,76,170.5
5236,A5,910.0,0.5,76,170.5
5237,E4,910.0,1.0,64,170.5
5238,A3,910.0,1.0,64,170.5
5239,C#4,910.0,1.0,64,170.5
5240,E3,910.0,1.0,64,170.5
5241,B6,910.5,0.5,70,170.5
5242,B5,910.5,0.5,70,170.5
5243,C#7,911.0,1.5,76,170.5
5244,C#6,911.0,1.5,76,170.5
5245,A2,911.0,1.0,72,170.5
5246,A1,911.0,1.0,72,170.5
5247,F4,912.0,1.0,65,170.5
5248,F3,912.0,1.0,65,170.5
5249,A3,912.0,1.0,65,170.5
5250,C#4,912.0,1.0,65,170.5
5251,C#7,912.5,0.5,74,170.5
5252,C#6,912.5,0.5,74,170.5
5253,C#7,913.0,0.5,76,170.5
5254,C#6,913.0,0.5,76,170.5
5255,A2,913.0,1.0,70,170.5
5256,A1,913.0,1.0,70,170.5
5257,B6,913.5,0.5,70,170.5
5258,B5,913.5,0.5,70,170.5
5259,A6,914.0,0.5,76,170.5
5260,A5,914.0,0.5,76,170.5
5261,F#4,914.0,1.0,64,170.5
5262,F#3,914.0,1.0,64,170.5
5263,D4,914.0,1.0,64,170.5
5264,G#6,914.5,0.5,70,170.5
5265,G#5,914.5,0.5,70,170.5
5266,A6,915.0,1.5,76,170.5
5267,A5,915.0,1.5,76,170.5
5268,A2,915.0,1.0,72,170.5
5269,A1,915.0,1.0,72,170.5
5270,C4,916.0,1.0,66,170.5
5271,F#3,916.0,1.0,66,170.5
5272,E-4,916.0,1.0,66,170.5
5273,F#7,916.5,0.5,74,170.5
5274,F#6,916.5,0.5,74,170.5
5275,E7,917.0,0.5,76,170.5
5276,E6,917.0,0.5,76,170.5
5277,A1,917.0,1.0,70,170.5
5278,A2,917.0,1.0,70,170.5
5279,D7,917.5,0.5,70,170.5
5280,D6,917.5,0.5,70,170.5
5281,C#7,918.0,0.5,76,170.5
5282,C#6,918.0,0.5,76,170.5
5283,G#3,918.0,1.0,64,170.5
5284,E4,918.0,1.0,64,170.5
5285,E3,918.0,1.0,64,170.5
5286,E7,918.5,0.5,70,170.5
5287,E6,918.5,0.5,70,170.5
5288,D7,919.0,0.5,76,170.5
5289,D6,919.0,0.5,76,170.5
5290,A2,919.0,1.0,70,170.5
5291,A1,919.0,1.0,70,170.5
5292,C#7,919.5,0.5,70,170.5
5293,C#6,919.5,0.5,70,170.5
5294,B6,920.0,0.5,76,170.5
5295,B5,920.0,0.5,76,170.5
5296,B3,920.0,1.0,64,170.5
5297,G#3,920.0,1.0,64,170.5
5298,E3,920.0,1.0,64,170.5
5299,E4,920.0,1.0,64,170.5
5300,D7,920.5,0.5,70,170.5
5301,D6,920.5,0.5,70,170.5
5302,C#7,921.0,0.5,76,170.5
5303,C#6,921.0,0.5,76,170.5
5304,A1,921.0,1.0,70,170.5
5305,A2,921.0,1.0,70,170.5
5306,B6,921.5,0.5,70,170.5
5307,B5,921.5,0.5,70,170.5
5308,A6,922.0,0.5,76,170.5
5309,A5,922.0,0.5,76,170.5
5310,E4,922.0,1.0,64,170.5
5311,A3,922.0,1.0,64,170.5
5312,E3,922.0,1.0,64,170.5
5313,C#4,922.0,1.0,64,170.5
5314,C#7,922.5,0.5,70,170.5
5315,C#6,922.5,0.5,70,170.5
5316,B6,923.0,0.5,76,170.5
5317,B5,923.0,0.5,76,170.5
5318,A1,923.0,1.0,70,170.5
5319,A2,923.0,1.0,70,170.5
5320,A6,923.5,0.5,70,170.5
5321,A5,923.5,0.5,70,170.5
5322,G#6,924.0,1.0,76,170.5
5323,G#5,924.0,1.0,76,170.5
5324,B3,924.0,1.0,64,170.5
5325,E3,924.0,1.0,64,170.5
5326,E4,924.0,1.0,64,170.5
5327,A6,925.0,0.5,76,170.5
5328,A5,925.0,0.5,76,170.5
5329,A1,925.0,1.0,70,170.5
5330,A2,925.0,1.0,70,170.5
5331,G#6,925.5,0.5,70,170.5
5332,G#5,925.5,0.5,70,170.5
5333,A6,926.0,0.5,76,170.5
5334,A5,926.0,0.5,76,170.5
5335,C#4,926.0,1.0,64,170.5
5336,E4,926.0,1.0,64,170.5
5337,A3,926.0,1.0,64,170.5
5338,E3,926.0,1.0,64,170.5
5339,B6,926.5,0.5,70,170.5
5340,B5,926.5,0.5,70,170.5
5341,C#7,927.0,1.5,76,170.5
5342,C#6,927.0,1.5,76,170.5
5343,A2,927.0,1.0,72,170.5
5344,A1,927.0,1.0,72,170.5
5345,F4,928.0,1.0,65,170.5
5346,C#4,928.0,1.0,65,170.5
5347,A3,928.0,1.0,65,170.5
5348,F3,928.0,1.0,65,170.5
5349,C#7,928.5,0.5,74,170.5
5350,C#6,928.5,0.5,74,170.5
5351,C#7,929.0,0.5,76,170.5
5352,C#6,929.0,0.5,76,170.5
5353,A2,929.0,1.0,70,170.5
5354,A1,929.0,1.0,70,170.5
5355,B6,929.5,0.5,70,170.5
5356,B5,929.5,0.5,70,170.5
5357,A6,930.0,0.5,76,170.5
5358,A5,930.0,0.5,76,170.5
5359,D4,930.0,1.0,64,170.5
5360,F#3,930.0,1.0,64,170.5
5361,F#4,930.0,1.0,64,170.5
5362,G#6,930.5,0.5,70,170.5
5363,G#5,930.5,0.5,70,170.5
5364,A6,931.0,1.5,76,170.5
5365,A5,931.0,1.5,76,170.5
5366,A1,931.0,1.0,72,170.5
5367,A2,931.0,1.0,72,170.5
5368,C4,932.0,1.0,66,170.5
5369,F#3,932.0,1.0,66,170.5
5370,E-4,932.0,1.0,66,170.5
5371,F#7,932.5,0.5,74,170.5
5372,F#6,932.5,0.5,74,170.5
5373,E7,933.0,0.5,76,170.5
5374,E6,933.0,0.5,76,170.5
5375,A2,933.0,1.0,70,170.5
5376,A1,933.0,1.0,70,170.5
5377,D7,933.5,0.5,70,170.5
5378,D6,933.5,0.5,70,170.5
5379,C#7,934.0,0.5,76,170.5
5380,C#6,934.0,0.5,76,170.5
5381,G#3,934.0,1.0,64,170.5
5382,E3,934.0,1.0,64,170.5
5383,E4,934.0,1.0,64,170.5
5384,E7,934.5,0.5,70,170.5
5385,E6,934.5,0.5,70,170.5
5386,D7,935.0,0.5,76,170.5
5387,D6,935.0,0.5,76,170.5
5388,A2,935.0,1.0,70,170.5
5389,A1,935.0,1.0,70,170.5
5390,C#7,935.5,0.5,70,170.5
5391,C#6,935.5,0.5,70,170.5
5392,B6,936.0,0.5,76,170.5
5393,B5,936.0,0.5,76,170.5
5394,B3,936.0,1.0,64,170.5
5395,G#3,936.0,1.0,64,170.5
5396,E4,936.0,1.0,64,170.5
5397,E3,936.0,1.0,64,170.5
5398,D7,936.5,0.5,70,170.5
5399,D6,936.5,0.5,70,170.5
5400,C#7,937.0,0.5,76,170.5
5401,C#6,937.0,0.5,76,170.5
5402,A1,937.0,1.0,70,170.5
5403,A2,937.0,1.0,70,170.5
5404,B6,937.5,0.5,70,170.5
5405,B5,937.5,0.5,70,170.5
5406,A6,938.0,0.5,76,170.5
5407,A5,938.0,0.5,76,170.5
5408,E4,938.0,1.0,64,170.5
5409,C#4,938.0,1.0,64,170.5
5410,E3,938.0,1.0,64,170.5
5411,A3,938.0,1.0,64,170.5
5412,C#7,938.5,0.5,70,170.5
5413,C#6,938.5,0.5,70,170.5
5414,B6,939.0,0.5,76,170.5
5415,B5,939.0,0.5,76,170.5
5416,A1,939.0,1.0,70,170.5
5417,A2,939.0,1.0,70,170.5
5418,A6,939.5,0.5,70,170.5
5419,A5,939.5,0.5,70,170.5
5420,G#6,940.0,1.0,76,170.5
5421,G#5,940.0,1.0,76,170.5
5422,E4,940.0,1.0,64,170.5
5423,B3,940.0,1.0,64,170.5
5424,E3,940.0,1.0,64,170.5
5425,A5,941.0,0.5,64,170.5
5426,A4,941.0,0.5,64,170.5
5427,A3,941.0,0.5,44,170.5
5428,A2,941.0,0.5,44,170.5
5429,G#5,941.5,0.5,56,170.5
5430,G#4,941.5,0.5,56,170.5
5431,G#3,941.5,0.5,38,170.5
5432,G#2,941.5,0.5,38,170.5
5433,F5,942.0,0.5,66,170.5
5434,F4,942.0,0.5,66,170.5
5435,F2,942.0,0.5,46,170.5
5436,F3,942.0,0.5,46,170.5
5437,A5,942.5,0.5,59,170.5
5438,A4,942.5,0.5,59,170.5
5439,A2,942.5,0.5,40,170.5
5440,A3,942.5,0.5,40,170.5
5441,G#5,943.0,0.5,69,170.5
5442,G#4,943.0,0.5,69,170.5
5443,G#2,943.0,0.5,48,170.5
5444,G#3,943.0,0.5,48,170.5
5445,F5,943.5,0.5,66,170.5
5446,F4,943.5,0.5,66,170.5
5447,F3,943.5,0.5,46,170.5
5448,F2,943.5,0.5,46,170.5
5449,E5,944.0,0.5,71,170.5
5450,E4,944.0,0.5,71,170.5
5451,E3,944.0,0.5,49,170.5
5452,E2,944.0,0.5,49,170.5
5453,G#5,944.5,0.5,68,170.5
5454,G#4,944.5,0.5,68,170.5
5455,G#3,944.5,0.5,47,170.5
5456,G#2,944.5,0.5,47,170.5
5457,F5,945.0,0.5,75,170.5
5458,F4,945.0,0.5,75,170.5
5459,F3,945.0,0.5,52,170.5
5460,F2,945.0,0.5,52,170.5
5461,E5,945.5,0.5,66,170.5
5462,E4,945.5,0.5,66,170.5
5463,E2,945.5,0.5,46,170.5
5464,E3,945.5,0.5,46,170.5
5465,D5,946.0,0.5,78,170.5
5466,D4,946.0,0.5,78,170.5
5467,D2,946.0,0.5,54,170.5
5468,D3,946.0,0.5,54,170.5
5469,F5,946.5,0.5,69,170.5
5470,F4,946.5,0.5,69,170.5
5471,F2,946.5,0.5,48,170.5
5472,F3,946.5,0.5,48,170.5
5473,D5,947.0,0.5,81,170.5
5474,D4,947.0,0.5,81,170.5
5475,D2,947.0,0.5,56,170.5
5476,D3,947.0,0.5,56,170.5
5477,C#5,947.5,0.5,76,170.5
5478,C#4,947.5,0.5,76,170.5
5479,C#2,947.5,0.5,54,170.5
5480,C#3,947.5,0.5,54,170.5
5481,B-3,948.0,0.5,83,170.5
5482,B-4,948.0,0.5,83,170.5
5483,B-2,948.0,0.5,57,170.5
5484,B-1,948.0,0.5,57,170.5
5485,A5,949.0,0.5,64,170.5
5486,A4,949.0,0.5,64,170.5
5487,A3,949.0,0.5,44,170.5
5488,A2,949.0,0.5,44,170.5
5489,G#5,949.5,0.5,56,170.5
5490,G#4,949.5,0.5,56,170.5
5491,G#3,949.5,0.5,38,170.5
5492,G#2,949.5,0.5,38,170.5
5493,F5,950.0,0.5,66,170.5
5494,F4,950.0,0.5,66,170.5
5495,F3,950.0,0.5,46,170.5
5496,F2,950.0,0.5,46,170.5
5497,A5,950.5,0.5,59,170.5
5498,A4,950.5,0.5,59,170.5
5499,A3,950.5,0.5,40,170.5
5500,A2,950.5,0.5,40,170.5
5501,G#5,951.0,0.5,69,170.5
5502,G#4,951.0,0.5,69,170.5
5503,G#3,951.0,0.5,48,170.5
5504,G#2,951.0,0.5,48,170.5
5505,F5,951.5,0.5,66,170.5
5506,F4,951.5,0.5,66,170.5
5507,F3,951.5,0.5,46,170.5
5508,F2,951.5,0.5,46,170.5
5509,E5,952.0,0.5,71,170.5
5510,E4,952.0,0.5,71,170.5
5511,E3,952.0,0.5,49,170.5
5512,E2,952.0,0.5,49,170.5
5513,G#5,952.5,0.5,68,170.5
5514,G#4,952.5,0.5,68,170.5
5515,G#2,952.5,0.5,47,170.5
5516,G#3,952.5,0.5,47,170.5
5517,F5,953.0,0.5,75,170.5
5518,F4,953.0,0.5,75,170.5
5519,F2,953.0,0.5,52,170.5
5520,F3,953.0,0.5,52,170.5
5521,E5,953.5,0.5,66,170.5
5522,E4,953.5,0.5,66,170.5
5523,E2,953.5,0.5,46,170.5
5524,E3,953.5,0.5,46,170.5
5525,D5,954.0,0.5,78,170.5
5526,D4,954.0,0.5,78,170.5
5527,D2,954.0,0.5,54,170.5
5528,D3,954.0,0.5,54,170.5
5529,F5,954.5,0.5,69,170.5
5530,F4,954.5,0.5,69,170.5
5531,F2,954.5,0.5,48,170.5
5532,F3,954.5,0.5,48,170.5
5533,D5,955.0,0.5,81,170.5
5534,D4,955.0,0.5,81,170.5
5535,D2,955.0,0.5,56,170.5
5536,D3,955.0,0.5,56,170.5
5537,C#5,955.5,0.5,76,170.5
5538,C#4,955.5,0.5,76,170.5
5539,C#3,955.5,0.5,54,170.5
5540,C#2,955.5,0.5,54,170.5
5541,B-3,956.0,0.5,83,170.5
5542,B-4,956.0,0.5,83,170.5
5543,B-2,956.0,0.5,57,170.5
5544,B-1,956.0,0.5,57,170.5
5545,A4,957.0,0.5,59,170.5
5546,A3,957.0,0.5,59,170.5
5547,A2,957.0,0.5,44,170.5
5548,A1,957.0,0.5,44,170.5
5549,B-4,957.5,0.5,59,170.5
5550,B-3,957.5,0.5,59,170.5
5551,B-2,957.5,0.5,44,170.5
5552,B-1,957.5,0.5,44,170.5
5553,C#5,958.0,0.5,60,170.5
5554,C#4,958.0,0.5,60,170.5
5555,C#2,958.0,0.5,44,170.5
5556,C#3,958.0,0.5,44,170.5
5557,D5,958.5,0.5,61,170.5
5558,D4,958.5,0.5,61,170.5
5559,D2,958.5,0.5,46,170.5
5560,D3,958.5,0.5,46,170.5
5561,E5,959.0,0.5,62,170.5
5562,E4,959.0,0.5,62,170.5
5563,E2,959.0,0.5,46,170.5
5564,E3,959.0,0.5,46,170.5
5565,F5,959.5,0.5,62,170.5
5566,F4,959.5,0.5,62,170.5
5567,F2,959.5,0.5,46,170.5
5568,F3,959.5,0.5,46,170.5
5569,G#5,960.0,0.5,64,170.5
5570,G#4,960.0,0.5,64,170.5
5571,G#2,960.0,0.5,47,170.5
5572,G#3,960.0,0.5,47,170.5
5573,A5,960.5,0.5,64,170.5
5574,A4,960.5,0.5,64,170.5
5575,A2,960.5,0.5,48,170.5
5576,A3,960.5,0.5,48,170.5
5577,B-5,961.0,0.5,66,170.5
5578,B-4,961.0,0.5,66,170.5
5579,B-2,961.0,0.5,49,170.5
5580,B-3,961.0,0.5,49,170.5
5581,C#6,961.5,0.5,66,170.5
5582,C#5,961.5,0.5,66,170.5
5583,C#3,961.5,0.5,50,170.5
5584,C#4,961.5,0.5,50,170.5
5585,D6,962.0,0.5,68,170.5
5586,D5,962.0,0.5,68,170.5
5587,D3,962.0,0.5,50,170.5
5588,D4,962.0,0.5,50,170.5
5589,E6,962.5,0.5,68,170.5
5590,E5,962.5,0.5,68,170.5
5591,E3,962.5,0.5,50,170.5
5592,E4,962.5,0.5,50,170.5
5593,F6,963.0,0.5,68,170.5
5594,F5,963.0,0.5,68,170.5
5595,F3,963.0,0.5,50,170.5
5596,F4,963.0,0.5,50,170.5
5597,G#6,963.5,0.5,69,170.5
5598,G#5,963.5,0.5,69,170.5
5599,G#3,963.5,0.5,52,170.5
5600,G#4,963.5,0.5,52,170.5
5601,A6,964.0,0.5,70,170.5
5602,A5,964.0,0.5,70,170.5
5603,A3,964.0,0.5,52,170.5
5604,A4,964.0,0.5,52,170.5
5605,B-6,964.5,0.5,71,170.5
5606,B-5,964.5,0.5,71,170.5
5607,B-3,964.5,0.5,52,170.5
5608,B-4,964.5,0.5,52,170.5
5609,C#7,965.0,0.5,72,170.5
5610,C#6,965.0,0.5,72,170.5
5611,C#4,965.0,0.5,54,170.5
5612,C#5,965.0,0.5,54,170.5
5613,B-6,965.5,0.5,71,170.5
5614,B-5,965.5,0.5,71,170.5
5615,B-4,965.5,0.5,52,170.5
5616,B-3,965.5,0.5,52,170.5
5617,A6,966.0,0.5,69,170.5
5618,A5,966.0,0.5,69,170.5
5619,A4,966.0,0.5,52,170.5
5620,A3,966.0,0.5,52,170.5
5621,G#6,966.5,0.5,68,170.5
5622,G#5,966.5,0.5,68,170.5
5623,G#4,966.5,0.5,50,170.5
5624,G#3,966.5,0.5,50,170.5
5625,F6,967.0,0.5,66,170.5
5626,F5,967.0,0.5,66,170.5
5627,F4,967.0,0.5,50,170.5
5628,F3,967.0,0.5,50,170.5
5629,E6,967.5,0.5,64,170.5
5630,E5,967.5,0.5,64,170.5
5631,E3,967.5,0.5,48,170.5
5632,E4,967.5,0.5,48,170.5
5633,D6,968.0,0.5,64,170.5
5634,D5,968.0,0.5,64,170.5
5635,D3,968.0,0.5,47,170.5
5636,D4,968.0,0.5,47,170.5
5637,C#6,968.5,0.5,62,170.5
5638,C#5,968.5,0.5,62,170.5
5639,C#3,968.5,0.5,46,170.5
5640,C#4,968.5,0.5,46,170.5
5641,B-5,969.0,0.5,62,170.5
5642,B-4,969.0,0.5,62,170.5
5643,B-2,969.0,0.5,46,170.5
5644,B-3,969.0,0.5,46,170.5
5645,A5,969.5,0.5,64,170.5
5646,A4,969.5,0.5,64,170.5
5647,A3,969.5,0.5,47,170.5
5648,A2,969.5,0.5,47,170.5
5649,G#5,970.0,0.5,66,170.5
5650,G#4,970.0,0.5,66,170.5
5651,G#3,970.0,0.5,49,170.5
5652,G#2,970.0,0.5,49,170.5
5653,F5,970.5,0.5,68,170.5
5654,F4,970.5,0.5,68,170.5
5655,F3,970.5,0.5,50,170.5
5656,F2,970.5,0.5,50,170.5
5657,E5,971.0,0.5,69,170.5
5658,E4,971.0,0.5,69,170.5
5659,E3,971.0,0.5,52,170.5
5660,E2,971.0,0.5,52,170.5
5661,D5,971.5,0.5,71,170.5
5662,D4,971.5,0.5,71,170.5
5663,D3,971.5,0.5,52,170.5
5664,D2,971.5,0.5,52,170.5
5665,C#5,972.0,0.5,73,170.5
5666,C#4,972.0,0.5,73,170.5
5667,C#2,972.0,0.5,54,170.5
5668,C#3,972.0,0.5,54,170.5
5669,B-4,972.5,0.5,74,170.5
5670,B-3,972.5,0.5,74,170.5
5671,B-2,972.5,0.5,56,170.5
5672,B-1,972.5,0.5,56,170.5
5673,A4,973.0,0.5,59,170.5
5674,A3,973.0,0.5,59,170.5
5675,A2,973.0,0.5,44,170.5
5676,A1,973.0,0.5,44,170.5
5677,B-4,973.5,0.5,59,170.5
5678,B-3,973.5,0.5,59,170.5
5679,B-2,973.5,0.5,44,170.5
5680,B-1,973.5,0.5,44,170.5
5681,C#5,974.0,0.5,60,170.5
5682,C#4,974.0,0.5,60,170.5
5683,C#3,974.0,0.5,44,170.5
5684,C#2,974.0,0.5,44,170.5
5685,D5,974.5,0.5,61,170.5
5686,D4,974.5,0.5,61,170.5
5687,D2,974.5,0.5,46,170.5
5688,D3,974.5,0.5,46,170.5
5689,E5,975.0,0.5,62,170.5
5690,E4,975.0,0.5,62,170.5
5691,E2,975.0,0.5,46,170.5
5692,E3,975.0,0.5,46,170.5
5693,F5,975.5,0.5,62,170.5
5694,F4,975.5,0.5,62,170.5
5695,F2,975.5,0.5,46,170.5
5696,F3,975.5,0.5,46,170.5
5697,G#5,976.0,0.5,64,170.5
5698,G#4,976.0,0.5,64,170.5
5699,G#2,976.0,0.5,47,170.5
5700,G#3,976.0,0.5,47,170.5
5701,A5,976.5,0.5,64,170.5
5702,A4,976.5,0.5,64,170.5
5703,A2,976.5,0.5,48,170.5
5704,A3,976.5,0.5,48,170.5
5705,B-5,977.0,0.5,67,170.5
5706,B-4,977.0,0.5,67,170.5
5707,B-3,977.0,0.5,50,170.5
5708,B-2,977.0,0.5,50,170.5
5709,C#6,977.5,0.5,68,170.5
5710,C#5,977.5,0.5,68,170.5
5711,C#4,977.5,0.5,51,170.5
5712,C#3,977.5,0.5,51,170.5
5713,D6,978.0,0.5,70,170.5
5714,D5,978.0,0.5,70,170.5
5715,D4,978.0,0.5,52,170.5
5716,D3,978.0,0.5,52,170.5
5717,E6,978.5,0.5,72,170.5
5718,E5,978.5,0.5,72,170.5
5719,E4,978.5,0.5,54,170.5
5720,E3,978.5,0.5,54,170.5
5721,F6,979.0,0.5,72,170.5
5722,F5,979.0,0.5,72,170.5
5723,F4,979.0,0.5,54,170.5
5724,F3,979.0,0.5,54,170.5
5725,G#6,979.5,0.5,74,170.5
5726,G#5,979.5,0.5,74,170.5
5727,G#4,979.5,0.5,56,170.5
5728,G#3,979.5,0.5,56,170.5
5729,A6,980.0,0.5,78,170.5
5730,A5,980.0,0.5,78,170.5
5731,A4,980.0,0.5,58,170.5
5732,A3,980.0,0.5,58,170.5
5733,B-6,980.5,0.5,79,170.5
5734,B-5,980.5,0.5,79,170.5
5735,B-3,980.5,0.5,58,170.5
5736,B-4,980.5,0.5,58,170.5
5737,C#7,981.0,0.5,97,170.5
5738,C#6,981.0,0.5,97,170.5
5739,C#4,981.0,0.5,73,170.5
5740,C#5,981.0,0.5,73,170.5
5741,D7,983.0,0.5,87,170.5
5742,D6,983.0,0.5,87,170.5
5743,F6,983.0,0.5,87,170.5
5744,B-6,983.0,0.5,87,170.5
5745,D3,983.0,0.5,61,170.5
5746,F3,983.0,0.5,61,170.5
5747,B-3,983.0,0.5,61,170.5
5748,D4,983.0,0.5,61,170.5
5749,E7,985.0,0.5,90,170.5
5750,C#7,985.0,0.5,90,170.5
5751,A6,985.0,0.5,90,170.5
5752,E6,985.0,0.5,90,170.5
5753,A3,985.0,0.5,62,170.5
5754,C#3,985.0,0.5,62,170.5
5755,A2,985.0,0.5,62,170.5
5756,E3,985.0,0.5,62,170.5
5757,F7,987.0,0.5,103,170.5
5758,B-6,987.0,0.5,103,170.5
5759,F6,987.0,0.5,103,170.5
5760,D3,987.0,0.5,72,170.5
5761,F2,987.0,0.5,72,170.5
5762,B-2,987.0,0.5,72,170.5
5763,D2,987.0,0.5,72,170.5
5764,A3,989.0,0.25,39,170.5
5765,C#4,989.0,0.25,39,170.5
5766,E3,989.0,0.25,39,170.5
5767,A1,989.0,0.25,32,170.5
5768,E2,989.0,0.25,32,170.5
5769,C#2,989.0,0.25,32,170.5
5770,E4,989.25,0.25,45,170.5
5771,A2,989.25,0.25,37,170.5
5772,C#4,989.5,0.25,42,170.5
5773,E3,989.5,0.25,42,170.5
5774,A3,989.5,0.25,42,170.5
5775,A1,989.5,0.25,34,170.5
5776,E2,989.5,0.25,34,170.5
5777,C#2,989.5,0.25,34,170.5
5778,E4,989.75,0.25,48,170.5
5779,A2,989.75,0.25,39,170.5
5780,C#4,990.0,0.25,44,170.5
5781,E3,990.0,0.25,44,170.5
5782,A3,990.0,0.25,44,170.5
5783,E2,990.0,0.25,36,170.5
5784,C#2,990.0,0.25,36,170.5
5785,A1,990.0,0.25,36,170.5
5786,E4,990.25,0.25,50,170.5
5787,A2,990.25,0.25,42,170.5
5788,C#4,990.5,0.25,47,170.5
5789,E3,990.5,0.25,47,170.5
5790,A3,990.5,0.25,47,170.5
5791,E2,990.5,0.25,38,170.5
5792,C#2,990.5,0.25,38,170.5
5793,A1,990.5,0.25,38,170.5
5794,E4,990.75,0.25,53,170.5
5795,A2,990.75,0.25,44,170.5
5796,A3,991.0,0.25,48,170.5
5797,C#4,991.0,0.25,48,170.5
5798,E3,991.0,0.25,48,170.5
5799,E2,991.0,0.25,40,170.5
5800,A1,991.0,0.25,40,170.5
5801,C#2,991.0,0.25,40,170.5
5802,E4,991.25,0.25,56,170.5
5803,A2,991.25,0.25,46,170.5
5804,C#4,991.5,0.25,49,170.5
5805,E3,991.5,0.25,49,170.5
5806,A3,991.5,0.25,49,170.5
5807,E2,991.5,0.25,39,170.5
5808,A1,991.5,0.25,39,170.5
5809,C#2,991.5,0.25,39,170.5
5810,E4,991.75,0.25,53,170.5
5811,A2,991.75,0.25,43,170.5
5812,C#4,992.0,0.25,47,170.5
5813,E3,992.0,0.25,47,170.5
5814,A3,992.0,0.25,47,170.5
5815,A1,992.0,0.25,37,170.5
5816,C#2,992.0,0.25,37,170.5
5817,E2,992.0,0.25,37,170.5
5818,E4,992.25,0.25,50,170.5
5819,A2,992.25,0.25,40,170.5
5820,C#4,992.5,0.25,44,170.5
5821,E3,992.5,0.25,44,170.5
5822,A3,992.5,0.25,44,170.5
5823,A1,992.5,0.25,35,170.5
5824,E2,992.5,0.25,35,170.5
5825,C#2,992.5,0.25,35,170.5
5826,E4,992.75,0.25,47,170.5
5827,A2,992.75,0.25,38,170.5
5828,A1,993.0,0.469,56,170.5
5829,C#2,993.0,0.469,56,170.5
5830,E2,993.062,0.406,64,170.5
5831,A2,993.062,0.406,64,170.5
5832,E3,993.094,0.406,85,170.5
5833,A3,993.094,0.406,85,170.5
5834,C#4,993.094,0.406,85,170.5
5835,A5,994.75,9/40,82,170.5
5836,A4,994.75,9/40,82,170.5
5837,C#5,994.75,9/40,82,170.5
5838,E5,994.75,9/40,82,170.5
5839,A3,994.75,9/40,65,170.5
5840,C#3,994.75,9/40,65,170.5
5841,A2,994.75,9/40,65,170.5
5842,E3,994.75,9/40,65,170.5
5843,A5,995.0,0.5,98,170.5
5844,E5,995.0,0.5,98,170.5
5845,C#5,995.0,0.5,98,170.5
5846,A4,995.0,0.5,98,170.5
5847,A3,995.0,0.5,71,170.5
5848,C#3,995.0,0.5,71,170.5
5849,A2,995.0,0.5,71,170.5
5850,E3,995.0,0.5,71,170.5
5851,A6,996.75,9/40,82,170.5
5852,A5,996.75,9/40,82,170.5
5853,C#6,996.75,9/40,82,170.5
5854,E6,996.75,9/40,82,170.5
5855,A1,996.75,9/40,65,170.5
5856,C#2,996.75,9/40,65,170.5
5857,E2,996.75,9/40,65,170.5
5858,A2,996.75,9/40,65,170.5
5859,A6,997.0,0.5,98,170.5
5860,E6,997.0,0.5,98,170.5
5861,C#6,997.0,0.5,98,170.5
5862,A5,997.0,0.5,98,170.5
5863,A1,997.0,0.5,71,170.5
5864,C#2,997.0,0.5,71,170.5
5865,E2,997.0,0.5,71,170.5
5866,A2,997.0,0.5,71,170.5
