,note_name,start_time,duration,velocity,tempo
0,B-2,3.75,0.25,77,170.5
1,B-1,3.75,0.25,61,170.5
2,E-3,4.0,1.75,89,170.5
3,E-2,4.0,1.75,64,170.5
4,E-1,4.0,1.75,64,170.5
5,G3,5.75,0.25,77,170.5
6,G2,5.75,0.25,56,170.5
7,G1,5.75,0.25,56,170.5
8,G#3,6.0,0.25,83,170.5
9,G#2,6.0,0.25,61,170.5
10,G#1,6.0,0.25,61,170.5
11,A3,7.0,0.25,81,170.5
12,A2,7.0,0.25,60,170.5
13,A1,7.0,0.25,60,170.5
14,B-3,8.0,2.0,89,170.5
15,B-2,8.0,2.0,64,170.5
16,B-1,8.0,2.0,64,170.5
17,E-6,10.0,0.25,74,170.5
18,B-5,10.0,0.25,74,170.5
19,G5,10.0,0.25,74,170.5
20,E-5,10.0,0.25,74,170.5
21,G4,10.0,0.25,59,170.5
22,E-4,10.0,0.25,59,170.5
23,B-3,10.0,0.25,59,170.5
24,G3,10.0,0.25,59,170.5
25,B-2,11.75,0.25,77,170.5
26,B-1,11.75,0.25,61,170.5
27,E-3,12.0,1.75,89,170.5
28,E-2,12.0,1.75,64,170.5
29,E-1,12.0,1.75,64,170.5
30,G3,13.75,0.25,77,170.5
31,G2,13.75,0.25,56,170.5
32,G1,13.75,0.25,56,170.5
33,B-3,14.0,0.25,83,170.5
34,B-2,14.0,0.25,62,170.5
35,B-1,14.0,0.25,62,170.5
36,C4,15.0,0.25,81,170.5
37,C3,15.0,0.25,60,170.5
38,C2,15.0,0.25,60,170.5
39,C#4,16.0,2.0,89,170.5
40,C#3,16.0,2.0,64,170.5
41,C#2,16.0,2.0,64,170.5
42,G6,18.0,0.25,74,170.5
43,E-6,18.0,0.25,74,170.5
44,B-5,18.0,0.25,74,170.5
45,G5,18.0,0.25,74,170.5
46,B-4,18.0,0.25,59,170.5
47,G4,18.0,0.25,59,170.5
48,E-4,18.0,0.25,59,170.5
49,B-3,18.0,0.25,59,170.5
50,C3,19.75,0.25,77,170.5
51,C1,19.75,0.25,55,170.5
52,C2,19.75,0.25,55,170.5
53,E-3,20.0,1.75,89,170.5
54,E-2,20.0,1.75,64,170.5
55,E-1,20.0,1.75,64,170.5
56,G#3,21.75,0.25,64,170.5
57,G#2,21.75,0.25,48,170.5
58,G#1,21.75,0.25,48,170.5
59,C4,22.0,667/1000,72,170.5
60,C3,22.0,667/1000,52,170.5
61,C2,22.0,667/1000,52,170.5
62,C#4,22.667,667/1000,75,170.5
63,C#3,22.667,667/1000,54,170.5
64,C#2,22.667,667/1000,54,170.5
65,D4,23.333,667/1000,79,170.5
66,D3,23.333,667/1000,58,170.5
67,D2,23.333,667/1000,58,170.5
68,E-4,24.0,2.0,89,170.5
69,E-3,24.0,2.0,64,170.5
70,E-2,24.0,2.0,64,170.5
71,G#6,26.0,0.25,74,170.5
72,E-6,26.0,0.25,74,170.5
73,C6,26.0,0.25,74,170.5
74,G#5,26.0,0.25,74,170.5
75,C5,26.0,0.25,59,170.5
76,G#4,26.0,0.25,59,170.5
77,E-4,26.0,0.25,59,170.5
78,C4,26.0,0.25,59,170.5
79,C3,27.75,0.25,77,170.5
80,C1,27.75,0.25,55,170.5
81,C2,27.75,0.25,55,170.5
82,E-3,28.0,1.75,89,170.5
83,E-2,28.0,1.75,64,170.5
84,E-1,28.0,1.75,64,170.5
85,G#3,29.75,0.25,70,170.5
86,G#2,29.75,0.25,56,170.5
87,G#1,29.75,0.25,56,170.5
88,C4,30.0,0.5,68,170.5
89,C3,30.0,0.5,49,170.5
90,C2,30.0,0.5,49,170.5
91,E-4,30.5,0.5,70,170.5
92,E-3,30.5,0.5,54,170.5
93,E-2,30.5,0.5,54,170.5
94,E4,31.0,0.5,74,170.5
95,E3,31.0,0.5,57,170.5
96,E2,31.0,0.5,57,170.5
97,F4,31.5,0.5,79,170.5
98,F3,31.5,0.5,62,170.5
99,F2,31.5,0.5,62,170.5
100,F#4,32.0,2.0,89,170.5
101,F#3,32.0,2.0,64,170.5
102,F#2,32.0,2.0,64,170.5
103,A6,34.0,0.25,74,170.5
104,F#6,34.0,0.25,74,170.5
105,C6,34.0,0.25,74,170.5
106,A5,34.0,0.25,74,170.5
107,E-5,34.0,0.25,59,170.5
108,C5,34.0,0.25,59,170.5
109,F#4,34.0,0.25,59,170.5
110,E-4,34.0,0.25,59,170.5
111,E-4,36.333,1/10,36,170.5
112,G#4,36.333,1/10,36,170.5
113,F#3,36.333,1/10,28,170.5
114,C4,36.333,1/10,28,170.5
115,F4,36.667,1/10,36,170.5
116,B4,36.667,1/10,36,170.5
117,G#3,36.667,1/10,29,170.5
118,D4,36.667,1/10,29,170.5
119,F#4,37.0,1/10,40,170.5
120,C5,37.0,1/10,40,170.5
121,A3,37.0,1/10,33,170.5
122,E-4,37.0,1/10,33,170.5
123,G#4,37.333,1/10,37,170.5
124,D5,37.333,1/10,37,170.5
125,B3,37.333,1/10,30,170.5
126,F4,37.333,1/10,30,170.5
127,A4,37.667,1/10,37,170.5
128,E-5,37.667,1/10,37,170.5
129,C4,37.667,1/10,30,170.5
130,F#4,37.667,1/10,30,170.5
131,B4,38.0,1/10,41,170.5
132,F5,38.0,1/10,41,170.5
133,D4,38.0,1/10,34,170.5
134,G#4,38.0,1/10,34,170.5
135,C5,38.333,1/10,37,170.5
136,F#5,38.333,1/10,37,170.5
137,E-4,38.333,1/10,29,170.5
138,A4,38.333,1/10,29,170.5
139,D5,38.667,1/10,38,170.5
140,G#5,38.667,1/10,38,170.5
141,F4,38.667,1/10,30,170.5
142,B4,38.667,1/10,30,170.5
143,E-5,39.0,1/10,42,170.5
144,A5,39.0,1/10,42,170.5
145,F#4,39.0,1/10,35,170.5
146,C5,39.0,1/10,35,170.5
147,F5,39.333,1/10,40,170.5
148,B5,39.333,1/10,40,170.5
149,G#4,39.333,1/10,33,170.5
150,D5,39.333,1/10,33,170.5
151,F#5,39.667,1/10,40,170.5
152,C6,39.667,1/10,40,170.5
153,A4,39.667,1/10,33,170.5
154,E-5,39.667,1/10,33,170.5
155,G#5,40.0,1/10,42,170.5
156,D6,40.0,1/10,42,170.5
157,B4,40.0,1/10,38,170.5
158,F5,40.0,1/10,38,170.5
159,A5,40.333,1/10,44,170.5
160,E-6,40.333,1/10,44,170.5
161,C5,40.333,1/10,38,170.5
162,F#5,40.333,1/10,38,170.5
163,B5,40.667,1/10,45,170.5
164,F6,40.667,1/10,45,170.5
165,D5,40.667,1/10,39,170.5
166,G#5,40.667,1/10,39,170.5
167,C6,41.0,1/10,46,170.5
168,F#6,41.0,1/10,46,170.5
169,E-5,41.0,1/10,39,170.5
170,A5,41.0,1/10,39,170.5
171,D6,41.333,1/10,47,170.5
172,G#6,41.333,1/10,47,170.5
173,F5,41.333,1/10,40,170.5
174,B5,41.333,1/10,40,170.5
175,E-6,41.667,1/10,48,170.5
176,A6,41.667,1/10,48,170.5
177,F#5,41.667,1/10,41,170.5
178,C6,41.667,1/10,41,170.5
179,F6,42.0,1/10,51,170.5
180,B6,42.0,1/10,51,170.5
181,G#5,42.0,1/10,42,170.5
182,D6,42.0,1/10,42,170.5
183,F#6,42.333,1/10,53,170.5
184,C7,42.333,1/10,53,170.5
185,A5,42.333,1/10,43,170.5
186,E-6,42.333,1/10,43,170.5
187,G6,42.667,1/10,55,170.5
188,C#7,42.667,1/10,55,170.5
189,B-5,42.667,1/10,47,170.5
190,E6,42.667,1/10,47,170.5
191,G#6,43.0,3/40,58,170.5
192,D7,43.0,3/40,58,170.5
193,B5,43.0,3/40,48,170.5
194,F6,43.0,3/40,48,170.5
195,A6,43.25,3/40,61,170.5
196,E-7,43.25,3/40,61,170.5
197,C6,43.25,3/40,49,170.5
198,F#6,43.25,3/40,49,170.5
199,B-6,43.5,3/40,62,170.5
200,E7,43.5,3/40,62,170.5
201,C#6,43.5,3/40,51,170.5
202,G6,43.5,3/40,51,170.5
203,B6,43.75,3/40,64,170.5
204,F7,43.75,3/40,64,170.5
205,D6,43.75,3/40,52,170.5
206,G#6,43.75,3/40,52,170.5
207,F#7,44.0,3/40,67,170.5
208,C7,44.0,3/40,67,170.5
209,A6,44.0,3/40,57,170.5
210,E-6,44.0,3/40,57,170.5
211,E-5,47.5,0.5,50,170.5
212,A4,48.0,2.0,40,170.5
213,E-5,48.0,0.75,50,170.5
214,F#4,48.0,1.0,33,170.5
215,F5,48.75,0.125,46,170.5
216,E-5,48.875,0.125,47,170.5
217,D5,49.0,0.5,50,170.5
218,F4,49.0,0.5,38,170.5
219,C5,49.5,0.312,41,170.5
220,E-4,49.5,0.312,38,170.5
221,D4,49.812,0.688,26,170.5
222,F4,49.875,0.625,31,170.5
223,C5,49.938,0.562,30,170.5
224,F5,50.0,0.5,47,170.5
225,A4,50.5,0.5,37,170.5
226,B-4,51.0,0.5,37,170.5
227,B-4,53.0,1.75,50,170.5
228,E4,54.0,2.0,40,170.5
229,C#4,54.0,1.0,36,170.5
230,C5,54.75,0.125,46,170.5
231,B-4,54.875,0.125,47,170.5
232,G#4,55.0,0.5,50,170.5
233,C4,55.0,0.5,38,170.5
234,G4,55.5,0.312,41,170.5
235,B-3,55.5,0.312,38,170.5
236,A3,55.812,0.188,26,170.5
237,C4,55.875,0.125,31,170.5
238,G4,55.938,0.062,30,170.5
239,C5,56.0,0.5,47,170.5
240,G4,56.0,0.5,30,170.5
241,A3,56.0,0.5,26,170.5
242,C4,56.0,2.0,31,170.5
243,E4,56.5,0.5,37,170.5
244,F4,57.0,0.5,37,170.5
245,G#3,57.0,0.5,30,170.5
246,F4,59.0,1.0,50,170.5
247,E-4,60.0,2.0,40,170.5
248,F4,60.0,0.75,50,170.5
249,B3,60.0,2.0,33,170.5
250,G#2,60.0,2.0,33,170.5
251,G4,60.75,0.125,46,170.5
252,F4,60.875,0.125,47,170.5
253,E4,61.0,0.5,50,170.5
254,F4,61.5,0.312,41,170.5
255,B-3,61.875,1.125,36,170.5
256,F4,61.938,0.562,41,170.5
257,B-4,62.0,0.5,45,170.5
258,G3,62.0,2.0,28,170.5
259,B-2,62.0,2.0,28,170.5
260,D4,62.5,0.5,37,170.5
261,E-4,63.0,0.5,37,170.5
262,B-3,63.875,0.125,36,170.5
263,E-4,63.938,0.062,35,170.5
264,B4,64.0,0.5,45,170.5
265,B-3,64.0,1.0,36,170.5
266,E-4,64.0,0.5,35,170.5
267,F#3,64.0,2.0,28,170.5
268,B-2,64.0,2.0,28,170.5
269,D4,64.5,0.5,37,170.5
270,E-4,65.0,0.5,37,170.5
271,E-4,65.875,13/125,31,170.5
272,E-4,66.0,0.5,37,170.5
273,B2,66.0,1.0,31,170.5
274,B-1,66.0,2.0,26,170.5
275,F3,66.0,2.0,37,170.5
276,G#3,66.0,2.0,37,170.5
277,B3,66.5,0.5,31,170.5
278,E-4,67.0,0.5,37,170.5
279,B-2,67.0,1.0,31,170.5
280,C4,67.5,0.5,31,170.5
281,E-4,68.0,667/1000,39,170.5
282,C#4,68.667,667/1000,33,170.5
283,E-4,69.333,667/1000,33,170.5
284,D4,70.0,0.5,35,170.5
285,E-4,70.5,0.125,28,170.5
286,D4,70.625,0.125,28,170.5
287,C#4,70.75,0.125,28,170.5
288,D4,70.875,0.125,28,170.5
289,B-3,71.0,0.75,32,170.5
290,D4,71.062,0.688,35,170.5
291,G4,71.125,0.625,38,170.5
292,G#3,71.75,0.25,35,170.5
293,F4,71.75,0.25,35,170.5
294,E-2,72.0,0.25,35,170.5
295,B-2,72.875,0.25,33,170.5
296,G3,72.938,0.188,34,170.5
297,E-4,73.0,0.125,35,170.5
298,B-2,74.875,0.25,33,170.5
299,G3,74.938,0.188,34,170.5
300,E-4,75.0,0.125,36,170.5
301,E-2,76.0,0.25,35,170.5
302,B-2,76.875,0.25,33,170.5
303,G3,76.938,0.188,34,170.5
304,E-4,77.0,0.125,36,170.5
305,B-2,78.875,0.25,35,170.5
306,G3,78.938,0.188,37,170.5
307,E-4,79.0,0.125,38,170.5
308,B-3,79.75,0.25,60,170.5
309,E-4,80.0,1.75,68,170.5
310,E-2,80.0,0.25,38,170.5
311,B-2,80.875,0.25,37,170.5
312,G3,80.938,0.188,38,170.5
313,E-4,81.0,0.125,39,170.5
314,G4,81.75,0.25,57,170.5
315,G#4,82.0,0.125,57,170.5
316,B-2,82.875,0.25,37,170.5
317,G3,82.938,0.188,38,170.5
318,A4,83.0,0.125,66,170.5
319,E-4,83.0,0.125,39,170.5
320,B-4,84.0,2.0,71,170.5
321,E-2,84.0,0.25,38,170.5
322,B-2,84.875,0.25,36,170.5
323,G3,84.938,0.188,38,170.5
324,E-4,85.0,0.125,40,170.5
325,E-5,86.0,0.125,68,170.5
326,B-2,86.875,0.25,38,170.5
327,G3,86.938,0.188,39,170.5
328,E-4,87.0,0.125,41,170.5
329,G4,87.0,0.75,56,170.5
330,B-4,87.0,0.75,56,170.5
331,F4,87.75,0.125,52,170.5
332,G#4,87.75,0.125,52,170.5
333,G4,87.875,0.125,53,170.5
334,B-4,87.875,0.125,53,170.5
335,E-2,88.0,0.25,38,170.5
336,F4,88.0,0.5,62,170.5
337,G#4,88.0,0.5,62,170.5
338,B-2,88.812,0.312,35,170.5
339,F3,88.875,0.25,37,170.5
340,G#3,88.938,0.188,39,170.5
341,D4,89.0,0.125,40,170.5
342,G4,89.5,0.5,55,170.5
343,E4,89.5,0.5,55,170.5
344,G#4,90.0,0.125,58,170.5
345,F4,90.0,0.125,58,170.5
346,F3,90.875,0.25,38,170.5
347,B-2,90.875,0.25,38,170.5
348,G#3,90.938,0.188,39,170.5
349,D4,91.0,0.125,40,170.5
350,G4,91.0,0.125,57,170.5
351,B-4,91.0,0.125,57,170.5
352,E-2,92.0,0.25,38,170.5
353,G4,92.0,2.0,61,170.5
354,E-4,92.0,2.0,61,170.5
355,B-2,92.875,0.25,39,170.5
356,G3,92.938,0.188,41,170.5
357,E-4,93.0,0.125,42,170.5
358,B-3,94.333,333/1000,58,170.5
359,B3,94.667,333/1000,50,170.5
360,B-2,94.875,0.25,37,170.5
361,G3,94.938,0.188,39,170.5
362,C4,95.0,333/1000,51,170.5
363,E-4,95.0,0.125,40,170.5
364,C#4,95.333,333/1000,55,170.5
365,D4,95.667,333/1000,58,170.5
366,E-4,96.0,1.75,68,170.5
367,E-2,96.0,0.25,38,170.5
368,B-2,96.875,0.25,38,170.5
369,G3,96.938,0.188,39,170.5
370,E-4,97.0,0.125,41,170.5
371,G4,97.75,0.25,57,170.5
372,G#4,98.0,0.125,57,170.5
373,B-2,98.875,0.25,38,170.5
374,G3,98.938,0.188,40,170.5
375,A4,99.0,0.125,66,170.5
376,E-4,99.0,0.125,41,170.5
377,A4,99.75,83/1000,49,170.5
378,B-4,99.833,83/1000,44,170.5
379,C5,99.917,83/1000,47,170.5
380,B-4,100.0,1/10,54,170.5
381,E-2,100.0,0.25,38,170.5
382,C5,100.1,1/10,49,170.5
383,B-4,100.2,1/10,50,170.5
384,C5,100.3,1/10,47,170.5
385,B-4,100.4,1/10,50,170.5
386,C5,100.5,1/10,47,170.5
387,B-4,100.6,1/10,50,170.5
388,C5,100.7,1/10,47,170.5
389,B-4,100.8,1/10,50,170.5
390,B-2,100.875,0.25,38,170.5
391,C5,100.9,1/10,45,170.5
392,G3,100.938,0.188,39,170.5
393,B-4,101.0,1/10,50,170.5
394,E-4,101.0,0.125,41,170.5
395,C5,101.1,1/10,46,170.5
396,B-4,101.2,1/10,50,170.5
397,C5,101.3,1/10,45,170.5
398,B-4,101.4,1/10,50,170.5
399,C5,101.5,0.125,47,170.5
400,B-4,101.625,0.125,53,170.5
401,A4,101.75,0.125,50,170.5
402,B-4,101.875,0.125,50,170.5
403,G5,102.0,0.125,63,170.5
404,E-5,102.0,0.125,63,170.5
405,B-2,102.875,0.25,38,170.5
406,G3,102.938,0.188,40,170.5
407,E-4,103.0,0.125,42,170.5
408,G4,103.5,0.25,56,170.5
409,B-4,103.5,0.25,56,170.5
410,F4,103.75,0.125,52,170.5
411,G#4,103.75,0.125,52,170.5
412,G4,103.875,0.125,53,170.5
413,B-4,103.875,0.125,53,170.5
414,E-2,104.0,0.25,38,170.5
415,F4,104.0,0.5,62,170.5
416,G#4,104.0,0.5,62,170.5
417,B-2,104.812,0.312,37,170.5
418,F3,104.875,0.25,38,170.5
419,G#3,104.938,0.188,39,170.5
420,D4,105.0,0.125,41,170.5
421,E4,105.5,0.5,55,170.5
422,G4,105.5,0.5,55,170.5
423,G#4,106.0,0.125,58,170.5
424,F4,106.0,0.125,58,170.5
425,B-2,106.875,0.25,36,170.5
426,F3,106.938,0.188,38,170.5
427,G#3,107.0,0.125,39,170.5
428,D4,107.0,0.125,57,170.5
429,B-4,107.0,0.125,57,170.5
430,E-4,108.0,2.0,68,170.5
431,E-2,108.0,0.25,38,170.5
432,B-2,108.875,0.25,35,170.5
433,G3,108.938,0.188,38,170.5
434,E-4,109.0,0.125,41,170.5
435,B-2,110.875,0.25,34,170.5
436,G3,110.938,0.188,37,170.5
437,E-4,111.0,0.125,39,170.5
438,E-2,112.0,0.25,38,170.5
439,B-2,112.875,0.25,36,170.5
440,G3,112.938,0.188,39,170.5
441,E-4,113.0,0.125,42,170.5
442,B-2,114.875,0.25,36,170.5
443,G3,114.938,0.188,38,170.5
444,E-4,115.0,0.125,41,170.5
445,B-4,115.75,0.25,60,170.5
446,E-2,116.0,0.25,48,170.5
447,E-4,116.0,1.75,68,170.5
448,E-5,116.0,1.75,68,170.5
449,B-2,116.875,0.25,42,170.5
450,G3,116.938,0.188,46,170.5
451,E-4,117.0,0.125,48,170.5
452,G4,117.75,0.25,57,170.5
453,G5,117.75,0.25,57,170.5
454,G#4,118.0,0.125,57,170.5
455,G#5,118.0,0.125,57,170.5
456,B-2,118.875,0.25,39,170.5
457,G3,118.938,0.188,41,170.5
458,E-4,119.0,0.125,44,170.5
459,A4,119.0,0.125,62,170.5
460,A5,119.0,0.125,62,170.5
461,B-4,119.75,0.125,44,170.5
462,E-5,119.875,0.125,46,170.5
463,B-5,120.0,18/125,53,170.5
464,E-2,120.0,0.25,38,170.5
465,C6,120.144,71/500,41,170.5
466,B-5,120.285,18/125,41,170.5
467,A5,120.427,18/125,41,170.5
468,B-5,120.571,71/500,41,170.5
469,C6,120.713,18/125,48,170.5
470,B-5,120.856,71/500,41,170.5
471,B-2,120.875,0.25,39,170.5
472,G3,120.938,0.188,42,170.5
473,E-5,121.0,167/1000,48,170.5
474,E-4,121.0,0.125,46,170.5
475,B-4,121.167,167/1000,42,170.5
476,E-4,121.333,167/1000,46,170.5
477,B-4,121.5,167/1000,52,170.5
478,E-5,121.667,167/1000,63,170.5
479,B-5,121.833,167/1000,73,170.5
480,E-6,122.0,0.125,81,170.5
481,B-2,122.875,0.25,35,170.5
482,G3,122.938,0.188,37,170.5
483,E-4,123.0,0.125,38,170.5
484,G4,123.5,229/1000,54,170.5
485,B-4,123.5,229/1000,54,170.5
486,G4,123.75,0.125,36,170.5
487,B-4,123.75,0.125,36,170.5
488,F#4,123.875,0.125,36,170.5
489,A4,123.875,0.125,36,170.5
490,E-2,124.0,0.25,35,170.5
491,F4,124.0,0.125,44,170.5
492,G#4,124.0,0.125,44,170.5
493,B-5,124.75,0.125,39,170.5
494,G5,124.75,0.125,39,170.5
495,B-2,124.812,0.312,31,170.5
496,F3,124.875,0.25,33,170.5
497,A5,124.875,0.125,40,170.5
498,F#5,124.875,0.125,40,170.5
499,G#3,124.938,0.188,34,170.5
500,D4,125.0,0.125,36,170.5
501,F5,125.0,0.125,47,170.5
502,G#5,125.0,0.125,47,170.5
503,B-6,125.75,0.125,38,170.5
504,G6,125.75,0.125,38,170.5
505,F#6,125.875,0.125,39,170.5
506,A6,125.875,0.125,39,170.5
507,G#6,126.0,0.125,46,170.5
508,F6,126.0,0.125,46,170.5
509,E4,126.75,0.25,39,170.5
510,G4,126.75,0.25,39,170.5
511,B-2,126.875,0.25,32,170.5
512,F3,126.875,0.25,32,170.5
513,G#3,126.938,0.188,34,170.5
514,D4,127.0,0.125,36,170.5
515,F4,127.0,0.125,46,170.5
516,G#4,127.0,0.125,46,170.5
517,G4,127.5,0.125,41,170.5
518,B-4,127.5,0.125,41,170.5
519,E-2,128.0,0.25,35,170.5
520,G4,128.0,2.0,48,170.5
521,E-4,128.0,2.0,48,170.5
522,B-2,128.875,0.25,35,170.5
523,G3,128.938,0.188,37,170.5
524,E-4,129.0,0.125,39,170.5
525,B-4,130.333,333/1000,52,170.5
526,B-3,130.333,333/1000,52,170.5
527,B4,130.667,333/1000,52,170.5
528,B3,130.667,333/1000,52,170.5
529,B-2,130.875,0.25,37,170.5
530,G3,130.938,0.188,39,170.5
531,E-4,131.0,0.125,41,170.5
532,C5,131.0,333/1000,50,170.5
533,C4,131.0,333/1000,50,170.5
534,C#5,131.333,333/1000,56,170.5
535,C#4,131.333,333/1000,56,170.5
536,D5,131.667,333/1000,60,170.5
537,D4,131.667,333/1000,60,170.5
538,E-2,132.0,0.25,53,170.5
539,E-5,132.0,1.75,78,170.5
540,E-4,132.0,1.75,78,170.5
541,B-2,132.875,0.25,42,170.5
542,G3,132.938,0.188,45,170.5
543,E-4,133.0,0.125,48,170.5
544,G5,133.75,0.25,61,170.5
545,G4,133.75,0.25,61,170.5
546,G#5,134.0,0.125,67,170.5
547,G#4,134.0,0.125,67,170.5
548,B-2,134.875,0.25,44,170.5
549,G3,134.938,0.188,46,170.5
550,E-4,135.0,0.125,47,170.5
551,A5,135.0,0.125,72,170.5
552,A4,135.0,0.125,72,170.5
553,B-4,135.75,0.125,44,170.5
554,E-5,135.875,0.125,46,170.5
555,B-5,136.0,18/125,60,170.5
556,E-2,136.0,0.25,48,170.5
557,C6,136.144,71/500,45,170.5
558,B-5,136.285,18/125,45,170.5
559,A5,136.427,18/125,45,170.5
560,B-5,136.571,71/500,45,170.5
561,C6,136.713,18/125,52,170.5
562,B-5,136.856,71/500,45,170.5
563,B-2,136.875,0.25,36,170.5
564,G3,136.938,0.188,38,170.5
565,E-5,137.0,73/500,52,170.5
566,E-4,137.0,0.125,40,170.5
567,B-4,137.146,18/125,47,170.5
568,E-4,137.29,73/500,51,170.5
569,B-4,137.435,73/500,58,170.5
570,E-5,137.581,18/125,62,170.5
571,B-5,137.725,0.125,68,170.5
572,B-5,137.869,131/1000,74,170.5
573,G6,138.0,0.125,80,170.5
574,E-6,138.0,0.125,80,170.5
575,B-2,138.875,0.25,35,170.5
576,G3,138.938,0.188,37,170.5
577,E-4,139.0,0.125,38,170.5
578,G4,139.5,229/1000,54,170.5
579,B-4,139.5,229/1000,54,170.5
580,G4,139.75,0.125,36,170.5
581,B-4,139.75,0.125,36,170.5
582,F#4,139.875,0.125,36,170.5
583,A4,139.875,0.125,36,170.5
584,E-2,140.0,0.25,35,170.5
585,F4,140.0,0.125,44,170.5
586,G#4,140.0,0.125,44,170.5
587,B-5,140.75,0.125,39,170.5
588,G5,140.75,0.125,39,170.5
589,B-2,140.812,0.312,31,170.5
590,F3,140.875,0.25,33,170.5
591,A5,140.875,0.125,40,170.5
592,F#5,140.875,0.125,40,170.5
593,G#3,140.938,0.188,34,170.5
594,D4,141.0,0.125,36,170.5
595,F5,141.0,0.125,47,170.5
596,G#5,141.0,0.125,47,170.5
597,B-6,141.75,0.125,38,170.5
598,G6,141.75,0.125,38,170.5
599,F#6,141.875,0.125,39,170.5
600,A6,141.875,0.125,39,170.5
601,G#6,142.0,0.125,46,170.5
602,F6,142.0,0.125,46,170.5
603,E4,142.75,0.25,39,170.5
604,G4,142.75,0.25,39,170.5
605,B-2,142.875,0.25,32,170.5
606,F3,142.875,0.25,32,170.5
607,G#3,142.938,0.188,34,170.5
608,D4,143.0,0.125,36,170.5
609,F4,143.0,333/1000,45,170.5
610,G#4,143.0,333/1000,45,170.5
611,G#4,143.333,0.5,41,170.5
612,C5,143.333,0.5,41,170.5
613,G4,143.833,167/1000,41,170.5
614,B-4,143.833,167/1000,41,170.5
615,E-2,144.0,0.25,35,170.5
616,G4,144.0,1.0,48,170.5
617,E-4,144.0,1.0,48,170.5
618,B-2,144.875,0.25,35,170.5
619,G3,144.938,0.188,37,170.5
620,E-4,145.0,0.125,39,170.5
621,B-2,146.875,0.25,35,170.5
622,G3,146.938,0.188,37,170.5
623,E-4,147.0,0.125,39,170.5
624,C#6,147.0,1.0,62,170.5
625,B-5,147.0,1.0,62,170.5
626,E-2,148.0,0.25,36,170.5
627,C6,148.0,0.75,53,170.5
628,G#5,148.0,0.75,53,170.5
629,D6,148.75,0.125,43,170.5
630,C6,148.875,0.125,49,170.5
631,C3,148.875,0.25,36,170.5
632,G#3,148.938,0.188,38,170.5
633,E-4,149.0,0.125,40,170.5
634,B-5,149.0,0.125,50,170.5
635,G5,149.0,0.125,50,170.5
636,G#5,149.5,0.125,44,170.5
637,F5,149.5,0.125,44,170.5
638,G5,150.0,0.125,47,170.5
639,E-5,150.0,0.125,47,170.5
640,F5,150.5,0.125,42,170.5
641,B-4,150.5,0.125,42,170.5
642,E-3,150.875,0.25,35,170.5
643,B-3,150.938,0.188,37,170.5
644,E-4,151.0,0.125,39,170.5
645,E-5,151.0,0.125,50,170.5
646,G4,151.0,0.125,50,170.5
647,G4,151.75,0.25,44,170.5
648,E-4,151.75,0.25,44,170.5
649,E-2,152.0,0.25,36,170.5
650,G#4,152.0,0.5,56,170.5
651,F4,152.0,0.5,56,170.5
652,B-4,152.5,0.125,45,170.5
653,G#4,152.625,0.125,45,170.5
654,G4,152.75,0.25,47,170.5
655,E4,152.75,0.25,47,170.5
656,B-2,152.812,0.312,36,170.5
657,F3,152.875,0.25,38,170.5
658,G#3,152.938,0.188,38,170.5
659,D4,153.0,0.125,40,170.5
660,G#4,153.0,0.125,52,170.5
661,F4,153.0,0.125,52,170.5
662,A4,153.5,0.125,50,170.5
663,F#4,153.5,0.125,50,170.5
664,B-4,154.0,0.5,54,170.5
665,G4,154.0,0.5,54,170.5
666,E-3,154.875,0.25,35,170.5
667,G3,154.938,0.188,37,170.5
668,E-4,155.0,0.125,39,170.5
669,C#6,155.0,1.0,62,170.5
670,B-5,155.0,1.0,62,170.5
671,E-2,156.0,0.25,36,170.5
672,C6,156.0,0.75,53,170.5
673,G#5,156.0,0.75,53,170.5
674,D6,156.75,0.125,43,170.5
675,C6,156.875,0.125,49,170.5
676,C3,156.875,0.25,36,170.5
677,G#3,156.938,0.188,38,170.5
678,E-4,157.0,0.125,40,170.5
679,B-5,157.0,0.125,50,170.5
680,G5,157.0,0.125,50,170.5
681,G#5,157.5,0.125,44,170.5
682,F5,157.5,0.125,44,170.5
683,G5,158.0,0.125,47,170.5
684,E-5,158.0,0.125,47,170.5
685,F5,158.5,0.125,42,170.5
686,B-4,158.5,0.125,42,170.5
687,E-3,158.875,0.25,35,170.5
688,B-3,158.938,0.188,37,170.5
689,E-4,159.0,0.125,39,170.5
690,E-5,159.0,0.125,50,170.5
691,G4,159.0,0.125,50,170.5
692,G4,159.75,0.25,44,170.5
693,E-4,159.75,0.25,44,170.5
694,E-2,160.0,0.25,36,170.5
695,G#4,160.0,0.5,56,170.5
696,F4,160.0,0.5,56,170.5
697,B-4,160.5,0.125,45,170.5
698,G#4,160.625,0.125,45,170.5
699,G4,160.75,0.25,47,170.5
700,E4,160.75,0.25,47,170.5
701,B-2,160.812,0.312,36,170.5
702,F3,160.875,0.25,38,170.5
703,G#3,160.938,0.188,38,170.5
704,D4,161.0,0.125,40,170.5
705,G#4,161.0,0.125,52,170.5
706,F4,161.0,0.125,52,170.5
707,B-4,161.5,0.125,50,170.5
708,D4,161.5,0.125,50,170.5
709,E-4,162.0,0.5,59,170.5
710,E-3,162.875,0.25,35,170.5
711,G3,162.938,0.188,37,170.5
712,B-5,163.0,0.875,63,170.5
713,E-4,163.0,0.125,39,170.5
714,E-6,163.062,0.812,67,170.5
715,C#7,163.125,0.75,71,170.5
716,G#5,163.875,0.125,64,170.5
717,E-6,163.938,0.062,66,170.5
718,C7,164.0,0.75,69,170.5
719,G#5,164.0,0.75,64,170.5
720,E-6,164.0,0.75,66,170.5
721,E-2,164.0,0.25,36,170.5
722,B-6,164.75,0.125,44,170.5
723,D7,164.75,0.125,44,170.5
724,C3,164.875,0.25,36,170.5
725,G#6,164.875,0.125,48,170.5
726,C7,164.875,0.125,48,170.5
727,G#3,164.938,0.188,38,170.5
728,E-4,165.0,0.125,40,170.5
729,B-6,165.0,0.25,61,170.5
730,G6,165.0,0.25,61,170.5
731,G#6,165.5,0.125,51,170.5
732,F6,165.5,0.125,51,170.5
733,G6,166.0,0.125,56,170.5
734,E-6,166.0,0.125,56,170.5
735,F6,166.5,0.125,49,170.5
736,B-5,166.5,0.125,49,170.5
737,E-3,166.875,0.25,35,170.5
738,B-3,166.938,0.188,37,170.5
739,E-4,167.0,0.125,39,170.5
740,E-6,167.0,0.125,55,170.5
741,G5,167.0,0.125,55,170.5
742,E-4,167.875,0.125,44,170.5
743,G4,167.875,0.125,44,170.5
744,E-2,168.0,0.25,36,170.5
745,G#4,168.0,0.5,56,170.5
746,F4,168.0,0.5,56,170.5
747,B-4,168.5,0.125,45,170.5
748,G#4,168.625,0.125,45,170.5
749,G4,168.75,0.25,47,170.5
750,E4,168.75,0.25,47,170.5
751,B-2,168.812,0.312,36,170.5
752,F3,168.875,0.25,38,170.5
753,G#3,168.938,0.188,38,170.5
754,D4,169.0,0.125,40,170.5
755,G#4,169.0,0.125,52,170.5
756,F4,169.0,0.125,52,170.5
757,A4,169.5,0.125,50,170.5
758,F#4,169.5,0.125,50,170.5
759,B-4,170.0,0.5,54,170.5
760,G4,170.0,0.5,54,170.5
761,E-3,170.875,0.25,35,170.5
762,G3,170.938,0.188,37,170.5
763,B-5,171.0,0.75,61,170.5
764,E-4,171.0,0.125,39,170.5
765,E-6,171.062,0.812,65,170.5
766,C#7,171.125,0.75,68,170.5
767,G#5,171.875,0.125,61,170.5
768,E-6,171.938,0.062,64,170.5
769,C7,172.0,0.75,67,170.5
770,G#5,172.0,0.75,61,170.5
771,E-6,172.0,0.75,64,170.5
772,E-2,172.0,0.25,36,170.5
773,B-6,172.75,0.125,41,170.5
774,D7,172.75,0.125,41,170.5
775,C3,172.875,0.25,36,170.5
776,G#6,172.875,0.125,48,170.5
777,C7,172.875,0.125,48,170.5
778,G#3,172.938,0.188,38,170.5
779,E-4,173.0,0.125,40,170.5
780,B-6,173.0,0.25,60,170.5
781,G6,173.0,0.25,60,170.5
782,G#6,173.5,0.125,54,170.5
783,F6,173.5,0.125,54,170.5
784,G6,174.0,0.125,58,170.5
785,E-6,174.0,0.125,58,170.5
786,F6,174.5,0.125,54,170.5
787,B-5,174.5,0.125,54,170.5
788,E-3,174.875,0.25,35,170.5
789,B-3,174.938,0.188,37,170.5
790,E-4,175.0,0.125,39,170.5
791,E-6,175.0,0.125,63,170.5
792,G5,175.0,0.125,63,170.5
793,G4,175.75,0.25,44,170.5
794,E-4,175.75,0.25,44,170.5
795,E-2,176.0,0.25,36,170.5
796,G#4,176.0,1.5,56,170.5
797,F4,176.0,1.5,56,170.5
798,B-2,176.812,0.312,36,170.5
799,F3,176.875,0.25,38,170.5
800,G#3,176.938,0.188,38,170.5
801,D4,177.0,0.125,40,170.5
802,E4,177.5,519/1000,47,170.5
803,G4,177.5,519/1000,47,170.5
804,F4,178.0,0.125,52,170.5
805,G#4,178.0,0.125,52,170.5
806,D4,179.0,0.125,50,170.5
807,B-4,179.0,0.125,50,170.5
808,B-1,179.875,0.125,61,170.5
809,E-2,180.0,1333/1000,68,170.5
810,B-3,180.812,0.312,40,170.5
811,E-4,180.875,0.25,42,170.5
812,G4,180.938,0.188,44,170.5
813,B-4,181.0,0.125,46,170.5
814,G2,181.333,167/1000,64,170.5
815,G#2,181.667,167/1000,64,170.5
816,A2,182.0,167/1000,68,170.5
817,B-2,182.333,167/1000,64,170.5
818,E-3,182.667,167/1000,64,170.5
819,G4,182.812,0.312,40,170.5
820,B-4,182.875,0.25,42,170.5
821,E-5,182.938,0.188,44,170.5
822,G5,183.0,0.125,46,170.5
823,G3,183.0,167/1000,68,170.5
824,G#3,183.333,167/1000,64,170.5
825,A3,183.667,0.062,64,170.5
826,A3,183.75,83/1000,56,170.5
827,B-3,183.833,83/1000,50,170.5
828,C4,183.917,83/1000,46,170.5
829,B-3,184.0,1/10,58,170.5
830,C4,184.1,1/10,50,170.5
831,B-3,184.2,1/10,57,170.5
832,C4,184.3,1/10,50,170.5
833,B-3,184.4,1/10,56,170.5
834,C4,184.5,1/10,49,170.5
835,B-3,184.6,1/10,55,170.5
836,C4,184.7,1/10,50,170.5
837,B-3,184.8,1/10,56,170.5
838,G5,184.812,0.312,42,170.5
839,B-5,184.875,0.25,44,170.5
840,C4,184.9,1/10,48,170.5
841,E-6,184.938,0.188,45,170.5
842,G6,185.0,0.125,47,170.5
843,B-3,185.0,1/10,55,170.5
844,C4,185.1,1/10,50,170.5
845,B-3,185.2,1/10,58,170.5
846,C4,185.3,1/10,51,170.5
847,B-3,185.4,1/10,60,170.5
848,C4,185.5,0.125,56,170.5
849,B-3,185.625,0.125,63,170.5
850,A3,185.75,0.125,60,170.5
851,B-3,185.875,0.125,60,170.5
852,E-4,186.0,0.25,74,170.5
853,B-2,186.875,0.25,52,170.5
854,G3,186.938,0.188,56,170.5
855,E-4,187.0,0.125,58,170.5
856,B-4,187.75,0.25,37,170.5
857,G4,187.75,0.25,37,170.5
858,E-2,188.0,0.25,35,170.5
859,G#4,188.0,0.25,42,170.5
860,F4,188.0,0.25,42,170.5
861,E-5,188.25,0.25,37,170.5
862,C5,188.25,0.25,37,170.5
863,D5,188.5,0.25,42,170.5
864,B-4,188.5,0.25,42,170.5
865,G5,188.75,0.25,38,170.5
866,E-5,188.75,0.25,38,170.5
867,B-2,188.812,0.312,31,170.5
868,F3,188.875,0.25,33,170.5
869,G#3,188.938,0.188,34,170.5
870,D4,189.0,0.125,36,170.5
871,F5,189.0,0.25,44,170.5
872,D5,189.0,0.25,44,170.5
873,C6,189.25,0.25,40,170.5
874,G#5,189.25,0.25,40,170.5
875,B-5,189.5,0.25,40,170.5
876,G5,189.5,0.25,40,170.5
877,G#5,189.75,0.25,40,170.5
878,F5,189.75,0.25,40,170.5
879,G5,190.0,0.25,49,170.5
880,E-5,190.0,0.25,49,170.5
881,F5,190.25,0.25,40,170.5
882,D5,190.25,0.25,40,170.5
883,E-5,190.5,0.25,40,170.5
884,C5,190.5,0.25,40,170.5
885,D5,190.75,0.25,40,170.5
886,B-4,190.75,0.25,40,170.5
887,B-2,190.875,0.25,32,170.5
888,F3,190.875,0.25,32,170.5
889,G#3,190.938,0.188,34,170.5
890,D4,191.0,0.125,36,170.5
891,C5,191.0,0.25,43,170.5
892,G#4,191.0,0.25,43,170.5
893,B-4,191.25,0.25,42,170.5
894,G4,191.25,0.25,42,170.5
895,A4,191.5,0.125,40,170.5
896,F#4,191.5,0.125,40,170.5
897,G#4,191.875,0.125,37,170.5
898,F4,191.875,0.125,37,170.5
899,E-2,192.0,0.25,35,170.5
900,G4,192.0,1.0,42,170.5
901,E-4,192.0,1.0,42,170.5
902,B-2,192.875,0.25,32,170.5
903,G3,192.938,0.188,35,170.5
904,E-4,193.0,0.125,38,170.5
905,B-2,194.875,0.25,31,170.5
906,G3,194.938,0.188,34,170.5
907,E-4,195.0,0.125,36,170.5
908,B-1,195.875,0.125,61,170.5
909,E-2,196.0,1333/1000,68,170.5
910,B-3,196.812,0.312,40,170.5
911,E-4,196.875,0.25,42,170.5
912,G4,196.938,0.188,44,170.5
913,B-4,197.0,0.125,46,170.5
914,G2,197.333,167/1000,64,170.5
915,G#2,197.667,167/1000,64,170.5
916,A2,198.0,167/1000,68,170.5
917,B-2,198.333,167/1000,64,170.5
918,E-3,198.667,167/1000,64,170.5
919,G4,198.812,0.312,40,170.5
920,B-4,198.875,0.25,42,170.5
921,E-5,198.938,0.188,44,170.5
922,G5,199.0,0.125,46,170.5
923,G3,199.0,167/1000,68,170.5
924,G#3,199.333,167/1000,64,170.5
925,A3,199.667,0.062,64,170.5
926,A3,199.75,83/1000,56,170.5
927,B-3,199.833,83/1000,50,170.5
928,C4,199.917,83/1000,46,170.5
929,B-3,200.0,1/10,58,170.5
930,C4,200.1,1/10,50,170.5
931,B-3,200.2,1/10,57,170.5
932,C4,200.3,1/10,50,170.5
933,B-3,200.4,1/10,56,170.5
934,C4,200.5,1/10,49,170.5
935,B-3,200.6,1/10,55,170.5
936,C4,200.7,1/10,50,170.5
937,B-3,200.8,1/10,56,170.5
938,G5,200.812,0.312,42,170.5
939,B-5,200.875,0.25,44,170.5
940,C4,200.9,1/10,48,170.5
941,E-6,200.938,0.188,45,170.5
942,G6,201.0,0.125,47,170.5
943,B-3,201.0,1/10,55,170.5
944,C4,201.1,1/10,50,170.5
945,B-3,201.2,1/10,58,170.5
946,C4,201.3,1/10,51,170.5
947,B-3,201.4,1/10,60,170.5
948,C4,201.5,0.125,56,170.5
949,B-3,201.625,0.125,63,170.5
950,A3,201.75,0.125,60,170.5
951,B-3,201.875,0.125,60,170.5
952,G4,202.0,0.25,71,170.5
953,E-4,202.0,0.25,71,170.5
954,B-2,202.875,0.25,57,170.5
955,G3,202.938,0.188,61,170.5
956,E-4,203.0,0.125,63,170.5
957,B-4,203.75,0.25,37,170.5
958,G4,203.75,0.25,37,170.5
959,E-2,204.0,0.25,35,170.5
960,G4,204.0,167/1000,42,170.5
961,B-4,204.0,167/1000,42,170.5
962,F#4,204.167,167/1000,38,170.5
963,A4,204.167,167/1000,38,170.5
964,F4,204.333,167/1000,38,170.5
965,G#4,204.333,167/1000,38,170.5
966,C5,204.5,167/1000,40,170.5
967,E-5,204.5,333/1000,45,170.5
968,B4,204.667,167/1000,40,170.5
969,B-2,204.812,0.312,31,170.5
970,B-4,204.833,167/1000,37,170.5
971,D5,204.833,167/1000,37,170.5
972,F3,204.875,0.25,33,170.5
973,G#3,204.938,0.188,34,170.5
974,E-5,205.0,333/1000,44,170.5
975,G5,205.0,167/1000,51,170.5
976,D4,205.0,0.125,36,170.5
977,F#5,205.167,167/1000,49,170.5
978,D5,205.333,167/1000,46,170.5
979,F5,205.333,167/1000,46,170.5
980,C6,205.5,0.125,56,170.5
981,G#5,205.5,0.125,56,170.5
982,G5,206.125,0.125,45,170.5
983,E5,206.125,0.125,45,170.5
984,G#5,206.25,0.125,45,170.5
985,F5,206.25,0.125,45,170.5
986,E5,206.375,0.125,45,170.5
987,C#5,206.375,0.125,45,170.5
988,D5,206.5,0.125,45,170.5
989,F5,206.5,0.125,45,170.5
990,C#5,206.625,0.125,45,170.5
991,A4,206.625,0.125,45,170.5
992,B-4,206.75,0.125,45,170.5
993,D5,206.75,0.125,45,170.5
994,G4,206.875,0.125,45,170.5
995,B4,206.875,0.125,45,170.5
996,B-2,206.906,0.188,26,170.5
997,F3,206.906,0.188,26,170.5
998,G#3,206.969,0.125,35,170.5
999,D4,206.969,0.125,35,170.5
1000,G#4,207.0,0.125,45,170.5
1001,C5,207.0,0.125,45,170.5
1002,E4,207.25,0.125,45,170.5
1003,G4,207.25,0.125,45,170.5
1004,G4,207.5,0.125,45,170.5
1005,B-4,207.5,0.125,45,170.5
1006,F4,207.75,0.125,45,170.5
1007,G#4,207.75,0.125,45,170.5
1008,E-2,208.0,0.25,35,170.5
1009,G4,208.0,1.0,42,170.5
1010,E-4,208.0,1.0,42,170.5
1011,B-2,208.875,0.25,32,170.5
1012,G3,208.938,0.188,35,170.5
1013,E-4,209.0,0.125,38,170.5
1014,B-2,210.875,0.25,31,170.5
1015,G3,210.938,0.188,34,170.5
1016,E-4,211.0,0.125,36,170.5
1017,B-3,211.875,0.125,38,170.5
1018,E-4,212.0,0.75,52,170.5
1019,E-2,212.0,0.25,35,170.5
1020,G4,212.75,0.094,39,170.5
1021,G4,212.875,0.094,36,170.5
1022,B-2,212.875,0.25,34,170.5
1023,G3,212.938,0.188,35,170.5
1024,G#4,213.0,0.094,39,170.5
1025,E-4,213.0,0.125,36,170.5
1026,G#4,213.125,0.094,36,170.5
1027,A4,213.25,0.094,39,170.5
1028,A4,213.375,0.094,36,170.5
1029,B-4,213.5,0.094,39,170.5
1030,B-4,213.625,0.094,36,170.5
1031,E-5,213.75,0.094,39,170.5
1032,E-5,213.875,0.094,36,170.5
1033,G5,214.0,0.094,39,170.5
1034,G5,214.125,0.094,35,170.5
1035,G#5,214.25,0.094,39,170.5
1036,G#5,214.375,0.094,35,170.5
1037,A5,214.5,0.094,39,170.5
1038,A5,214.625,0.094,34,170.5
1039,B-5,214.75,0.094,39,170.5
1040,B-5,214.875,0.094,34,170.5
1041,B-2,214.875,0.25,34,170.5
1042,G3,214.938,0.188,35,170.5
1043,E-6,215.0,0.094,39,170.5
1044,E-4,215.0,0.125,36,170.5
1045,E-6,215.125,0.094,34,170.5
1046,G6,215.25,0.094,39,170.5
1047,G6,215.375,0.094,35,170.5
1048,G#6,215.5,0.094,41,170.5
1049,G#6,215.625,0.094,36,170.5
1050,A6,215.75,0.094,42,170.5
1051,A6,215.875,0.094,37,170.5
1052,A6,216.0,0.125,43,170.5
1053,E-2,216.0,0.25,35,170.5
1054,B-6,216.125,0.125,38,170.5
1055,C7,216.25,0.125,38,170.5
1056,B-6,216.375,0.125,34,170.5
1057,G6,216.5,0.125,42,170.5
1058,E-6,216.625,0.125,35,170.5
1059,C6,216.75,0.125,41,170.5
1060,B-5,216.875,0.125,34,170.5
1061,B-2,216.875,0.25,33,170.5
1062,G3,216.938,0.188,37,170.5
1063,G5,217.0,0.125,40,170.5
1064,E-4,217.0,0.188,35,170.5
1065,E-5,217.125,0.125,33,170.5
1066,C5,217.25,0.125,38,170.5
1067,B-4,217.375,0.125,32,170.5
1068,G4,217.5,0.125,38,170.5
1069,E-4,217.625,0.125,33,170.5
1070,D4,217.75,0.125,37,170.5
1071,E-4,217.875,0.125,34,170.5
1072,G4,218.0,0.125,33,170.5
1073,B-4,218.125,0.125,34,170.5
1074,E-5,218.25,0.125,35,170.5
1075,G5,218.375,0.125,36,170.5
1076,B-5,218.5,0.125,38,170.5
1077,E-6,218.625,0.125,39,170.5
1078,G6,218.75,0.125,40,170.5
1079,B-6,218.875,0.125,41,170.5
1080,B-2,218.875,0.25,35,170.5
1081,G3,218.938,0.188,36,170.5
1082,E-7,219.0,0.5,47,170.5
1083,E-4,219.0,0.125,38,170.5
1084,B-4,219.75,0.125,36,170.5
1085,G4,219.75,0.125,36,170.5
1086,E-2,220.0,0.25,35,170.5
1087,G#4,220.0,167/1000,43,170.5
1088,F4,220.0,167/1000,43,170.5
1089,B-5,220.333,167/1000,39,170.5
1090,G4,220.667,167/1000,36,170.5
1091,E4,220.667,167/1000,36,170.5
1092,B-2,220.812,0.312,31,170.5
1093,F3,220.875,0.25,33,170.5
1094,G#3,220.938,0.188,34,170.5
1095,D4,221.0,0.125,36,170.5
1096,G#4,221.0,167/1000,42,170.5
1097,F4,221.0,167/1000,42,170.5
1098,B-6,221.333,167/1000,41,170.5
1099,B-4,221.667,167/1000,38,170.5
1100,G4,221.667,167/1000,38,170.5
1101,C5,222.0,167/1000,43,170.5
1102,G#4,222.0,167/1000,43,170.5
1103,B-5,222.333,167/1000,41,170.5
1104,D5,222.667,167/1000,38,170.5
1105,B-4,222.667,167/1000,38,170.5
1106,B-2,222.906,0.188,26,170.5
1107,F3,222.906,0.188,26,170.5
1108,G#3,222.969,0.125,35,170.5
1109,D4,222.969,0.125,35,170.5
1110,E-5,223.0,167/1000,42,170.5
1111,C5,223.0,167/1000,42,170.5
1112,B-6,223.333,167/1000,40,170.5
1113,F5,223.667,167/1000,37,170.5
1114,D5,223.667,167/1000,37,170.5
1115,E-2,224.0,0.25,35,170.5
1116,G5,224.0,167/1000,42,170.5
1117,E-5,224.0,167/1000,42,170.5
1118,F5,224.167,167/1000,37,170.5
1119,B-4,224.167,167/1000,37,170.5
1120,E-5,224.333,167/1000,37,170.5
1121,G4,224.333,167/1000,37,170.5
1122,F5,224.5,167/1000,37,170.5
1123,B-4,224.5,167/1000,37,170.5
1124,G5,224.667,167/1000,37,170.5
1125,E-5,224.667,167/1000,37,170.5
1126,F5,224.831,167/1000,38,170.5
1127,B-5,224.831,167/1000,38,170.5
1128,B-2,224.875,0.25,33,170.5
1129,G3,224.938,0.188,37,170.5
1130,E-4,225.0,0.188,35,170.5
1131,E-6,225.0,167/1000,40,170.5
1132,G5,225.0,167/1000,40,170.5
1133,F6,225.167,167/1000,40,170.5
1134,B-5,225.167,167/1000,40,170.5
1135,G6,225.333,167/1000,42,170.5
1136,E-6,225.333,167/1000,42,170.5
1137,B-6,225.5,167/1000,42,170.5
1138,F6,225.5,167/1000,42,170.5
1139,E-7,225.667,167/1000,42,170.5
1140,G6,225.667,167/1000,42,170.5
1141,F7,225.833,167/1000,43,170.5
1142,B-6,225.833,167/1000,43,170.5
1143,E-7,226.0,0.25,57,170.5
1144,G7,226.0,0.25,57,170.5
1145,B-2,226.875,0.25,35,170.5
1146,G3,226.938,0.188,36,170.5
1147,E-4,227.0,0.125,38,170.5
1148,B-3,227.75,0.25,38,170.5
1149,E-4,228.0,0.75,52,170.5
1150,E-2,228.0,0.25,35,170.5
1151,G4,228.75,0.094,39,170.5
1152,G4,228.875,0.094,36,170.5
1153,B-2,228.875,0.25,34,170.5
1154,G3,228.938,0.188,35,170.5
1155,G#4,229.0,0.094,39,170.5
1156,E-4,229.0,0.125,36,170.5
1157,G#4,229.125,0.094,36,170.5
1158,A4,229.25,0.094,39,170.5
1159,A4,229.375,0.094,36,170.5
1160,B-4,229.5,0.094,39,170.5
1161,B-4,229.625,0.094,36,170.5
1162,E-5,229.75,0.094,39,170.5
1163,E-5,229.875,0.094,36,170.5
1164,G5,230.0,0.094,39,170.5
1165,G5,230.125,0.094,35,170.5
1166,G#5,230.25,0.094,39,170.5
1167,G#5,230.375,0.094,35,170.5
1168,A5,230.5,0.094,39,170.5
1169,A5,230.625,0.094,34,170.5
1170,B-5,230.75,0.094,39,170.5
1171,B-5,230.875,0.094,34,170.5
1172,B-2,230.875,0.25,34,170.5
1173,G3,230.938,0.188,35,170.5
1174,E-6,231.0,0.094,39,170.5
1175,E-4,231.0,0.125,36,170.5
1176,E-6,231.125,0.094,34,170.5
1177,G6,231.25,0.094,39,170.5
1178,G6,231.375,0.094,35,170.5
1179,G#6,231.5,0.094,41,170.5
1180,G#6,231.625,0.094,36,170.5
1181,A6,231.75,0.094,42,170.5
1182,A6,231.875,0.094,37,170.5
1183,A6,232.0,0.125,43,170.5
1184,E-2,232.0,0.25,35,170.5
1185,B-6,232.125,0.125,38,170.5
1186,C7,232.25,0.125,38,170.5
1187,B-6,232.375,0.125,34,170.5
1188,G6,232.5,0.125,42,170.5
1189,E-6,232.625,0.125,35,170.5
1190,C6,232.75,0.125,41,170.5
1191,B-5,232.875,0.125,34,170.5
1192,B-2,232.875,0.25,33,170.5
1193,G3,232.938,0.188,37,170.5
1194,G5,233.0,0.125,40,170.5
1195,E-4,233.0,0.188,35,170.5
1196,E-5,233.125,0.125,33,170.5
1197,C5,233.25,0.125,38,170.5
1198,B-4,233.375,0.125,32,170.5
1199,G4,233.5,0.125,38,170.5
1200,E-4,233.625,0.125,33,170.5
1201,D4,233.75,0.125,37,170.5
1202,E-4,233.875,0.125,34,170.5
1203,G4,234.0,0.125,33,170.5
1204,B-4,234.125,0.125,34,170.5
1205,E-5,234.25,0.125,36,170.5
1206,G5,234.375,0.125,38,170.5
1207,B-5,234.5,0.125,41,170.5
1208,E-6,234.625,0.125,43,170.5
1209,G6,234.75,0.125,45,170.5
1210,B-6,234.875,0.125,47,170.5
1211,B-2,234.875,0.25,35,170.5
1212,G3,234.938,0.188,36,170.5
1213,E-4,235.0,0.125,38,170.5
1214,E-7,235.0,0.5,50,170.5
1215,G7,235.0,0.5,50,170.5
1216,G4,235.875,0.094,36,170.5
1217,B-4,235.875,0.094,36,170.5
1218,E-2,236.0,0.25,35,170.5
1219,G#4,236.0,167/1000,43,170.5
1220,F4,236.0,167/1000,43,170.5
1221,B-5,236.333,167/1000,39,170.5
1222,G4,236.667,167/1000,36,170.5
1223,E4,236.667,167/1000,36,170.5
1224,B-2,236.812,0.312,31,170.5
1225,F3,236.875,0.25,33,170.5
1226,G#3,236.938,0.188,34,170.5
1227,D4,237.0,0.125,36,170.5
1228,G#4,237.0,167/1000,42,170.5
1229,F4,237.0,167/1000,42,170.5
1230,B-6,237.333,167/1000,41,170.5
1231,B-4,237.667,167/1000,38,170.5
1232,G4,237.667,167/1000,38,170.5
1233,C5,238.0,167/1000,43,170.5
1234,G#4,238.0,167/1000,43,170.5
1235,B-5,238.333,167/1000,41,170.5
1236,G4,238.667,167/1000,38,170.5
1237,B-4,238.667,167/1000,38,170.5
1238,B-2,238.906,0.188,26,170.5
1239,F3,238.906,0.188,26,170.5
1240,G#3,238.969,0.125,35,170.5
1241,D4,238.969,0.125,35,170.5
1242,G#4,239.0,167/1000,42,170.5
1243,F4,239.0,167/1000,42,170.5
1244,B-6,239.333,167/1000,40,170.5
1245,B-3,239.667,167/1000,37,170.5
1246,F4,239.667,167/1000,37,170.5
1247,E-2,240.0,0.25,35,170.5
1248,G3,240.0,1.0,40,170.5
1249,E-4,240.0,1.0,40,170.5
1250,B-2,240.875,0.25,36,170.5
1251,G3,240.938,0.188,38,170.5
1252,E-4,241.0,0.188,39,170.5
1253,E-3,242.875,0.25,35,170.5
1254,B-3,242.938,0.188,36,170.5
1255,B-5,243.0,167/1000,46,170.5
1256,G4,243.0,0.125,38,170.5
1257,E-6,243.167,167/1000,45,170.5
1258,C#7,243.333,167/1000,60,170.5
1259,E-6,243.5,167/1000,45,170.5
1260,F6,243.667,167/1000,45,170.5
1261,E-6,243.833,167/1000,45,170.5
1262,G#5,244.0,167/1000,53,170.5
1263,E-2,244.0,0.25,35,170.5
1264,E-6,244.167,167/1000,46,170.5
1265,C7,244.333,167/1000,46,170.5
1266,E-6,244.5,167/1000,57,170.5
1267,F6,244.667,167/1000,46,170.5
1268,E-6,244.833,167/1000,46,170.5
1269,C3,244.875,0.25,34,170.5
1270,G#3,244.938,0.188,36,170.5
1271,G5,245.0,0.188,48,170.5
1272,E-4,245.0,0.188,38,170.5
1273,B-6,245.25,0.188,52,170.5
1274,F5,245.5,0.188,44,170.5
1275,G#6,245.75,0.188,52,170.5
1276,E-5,246.0,0.188,44,170.5
1277,G6,246.25,0.188,47,170.5
1278,D5,246.5,0.188,41,170.5
1279,F#6,246.75,0.188,45,170.5
1280,E-3,246.875,0.25,35,170.5
1281,B-3,246.938,0.188,36,170.5
1282,E-5,247.0,0.188,40,170.5
1283,G4,247.0,0.125,38,170.5
1284,G6,247.25,0.188,45,170.5
1285,E5,247.5,0.188,41,170.5
1286,G6,247.75,0.188,45,170.5
1287,F5,248.0,0.188,42,170.5
1288,E-2,248.0,0.25,35,170.5
1289,G#6,248.25,0.188,47,170.5
1290,E5,248.5,0.188,43,170.5
1291,G6,248.75,0.188,49,170.5
1292,B-2,248.875,0.25,33,170.5
1293,G#3,248.938,0.188,35,170.5
1294,F5,249.0,0.188,46,170.5
1295,D4,249.0,0.188,36,170.5
1296,G#6,249.25,0.188,52,170.5
1297,F#5,249.5,0.188,43,170.5
1298,A6,249.75,0.188,46,170.5
1299,G5,250.0,0.188,47,170.5
1300,B-6,250.25,0.188,55,170.5
1301,E-3,250.875,0.25,31,170.5
1302,B-3,250.938,0.188,34,170.5
1303,B-4,251.0,167/1000,45,170.5
1304,G4,251.0,0.125,37,170.5
1305,E-5,251.167,167/1000,38,170.5
1306,C#6,251.333,167/1000,58,170.5
1307,E-5,251.5,167/1000,42,170.5
1308,F5,251.667,167/1000,38,170.5
1309,E-5,251.833,167/1000,40,170.5
1310,G#4,252.0,167/1000,45,170.5
1311,E-2,252.0,0.25,35,170.5
1312,E-5,252.167,167/1000,35,170.5
1313,C6,252.333,167/1000,51,170.5
1314,E-5,252.5,167/1000,35,170.5
1315,F5,252.667,167/1000,35,170.5
1316,E-5,252.833,167/1000,35,170.5
1317,C3,252.875,0.25,32,170.5
1318,G#3,252.938,0.188,34,170.5
1319,G4,253.0,0.188,42,170.5
1320,E-4,253.0,0.188,35,170.5
1321,B-5,253.25,0.188,48,170.5
1322,F4,253.5,0.188,44,170.5
1323,G#5,253.75,0.188,48,170.5
1324,E-4,254.0,0.188,40,170.5
1325,G5,254.25,0.188,47,170.5
1326,D4,254.5,0.188,39,170.5
1327,F#5,254.75,0.188,46,170.5
1328,E-3,254.875,0.25,32,170.5
1329,B-3,254.938,0.188,34,170.5
1330,E-4,255.0,0.188,38,170.5
1331,G4,255.0,0.094,35,170.5
1332,G5,255.25,0.188,45,170.5
1333,E4,255.5,0.188,38,170.5
1334,G5,255.75,0.188,47,170.5
1335,F4,256.0,0.188,41,170.5
1336,E-2,256.0,0.25,33,170.5
1337,G#5,256.25,0.188,44,170.5
1338,E4,256.5,0.188,38,170.5
1339,G5,256.75,0.188,46,170.5
1340,B-2,256.875,0.25,27,170.5
1341,G#3,256.938,0.188,28,170.5
1342,F4,257.0,0.188,40,170.5
1343,D4,257.0,0.188,29,170.5
1344,G#5,257.25,0.188,45,170.5
1345,C#4,257.5,0.188,38,170.5
1346,E5,257.75,0.188,44,170.5
1347,D4,258.0,0.188,40,170.5
1348,F5,258.25,0.188,46,170.5
1349,E-3,258.875,0.25,31,170.5
1350,B-3,258.938,0.188,33,170.5
1351,B-5,259.0,167/1000,50,170.5
1352,G4,259.0,0.125,35,170.5
1353,E-6,259.167,167/1000,45,170.5
1354,C#7,259.333,167/1000,54,170.5
1355,E-6,259.5,167/1000,45,170.5
1356,F6,259.667,167/1000,45,170.5
1357,E-6,259.833,167/1000,45,170.5
1358,G#5,260.0,167/1000,50,170.5
1359,E-2,260.0,0.25,35,170.5
1360,E-6,260.167,167/1000,46,170.5
1361,C7,260.333,167/1000,54,170.5
1362,E-6,260.5,167/1000,46,170.5
1363,F6,260.667,167/1000,46,170.5
1364,E-6,260.833,167/1000,46,170.5
1365,C3,260.875,0.25,34,170.5
1366,G#3,260.938,0.188,36,170.5
1367,G5,261.0,0.188,42,170.5
1368,E-4,261.0,0.188,38,170.5
1369,B-6,261.25,0.188,49,170.5
1370,F5,261.5,0.188,44,170.5
1371,G#6,261.75,0.188,47,170.5
1372,E-5,262.0,0.188,41,170.5
1373,G6,262.25,0.188,48,170.5
1374,D5,262.5,0.188,41,170.5
1375,F#6,262.75,0.188,46,170.5
1376,E-3,262.875,0.25,35,170.5
1377,B-3,262.938,0.188,36,170.5
1378,E-5,263.0,0.188,41,170.5
1379,G4,263.0,0.125,38,170.5
1380,G6,263.25,0.188,46,170.5
1381,E5,263.5,0.188,40,170.5
1382,G6,263.75,0.188,45,170.5
1383,F5,264.0,0.188,39,170.5
1384,E-2,264.0,0.25,35,170.5
1385,G#6,264.25,0.188,47,170.5
1386,E5,264.5,0.188,40,170.5
1387,G6,264.75,0.188,46,170.5
1388,B-2,264.875,0.25,34,170.5
1389,G#3,264.938,0.188,35,170.5
1390,F5,265.0,0.188,43,170.5
1391,D4,265.0,0.188,38,170.5
1392,G#6,265.25,0.188,48,170.5
1393,F#5,265.5,0.188,45,170.5
1394,A6,265.75,0.188,51,170.5
1395,G5,266.0,0.188,47,170.5
1396,B-6,266.25,0.188,52,170.5
1397,E-3,266.875,0.25,30,170.5
1398,B-3,266.938,0.188,33,170.5
1399,B-4,267.0,167/1000,45,170.5
1400,G4,267.0,0.125,37,170.5
1401,E-5,267.167,167/1000,38,170.5
1402,C#6,267.333,167/1000,50,170.5
1403,E-5,267.5,167/1000,38,170.5
1404,F5,267.667,167/1000,38,170.5
1405,E-5,267.833,167/1000,40,170.5
1406,G#4,268.0,167/1000,45,170.5
1407,E-2,268.0,0.25,35,170.5
1408,E-5,268.167,167/1000,38,170.5
1409,C6,268.333,167/1000,48,170.5
1410,E-5,268.5,167/1000,38,170.5
1411,F5,268.667,167/1000,38,170.5
1412,E-5,268.833,167/1000,38,170.5
1413,C3,268.875,0.25,31,170.5
1414,G#3,268.938,0.188,34,170.5
1415,G4,269.0,0.188,40,170.5
1416,E-4,269.0,0.188,36,170.5
1417,B-5,269.25,0.188,46,170.5
1418,F4,269.5,0.188,39,170.5
1419,G#5,269.75,0.188,47,170.5
1420,E-4,270.0,0.188,39,170.5
1421,G5,270.25,0.188,45,170.5
1422,D4,270.5,0.188,40,170.5
1423,F#5,270.75,0.188,45,170.5
1424,E-3,270.875,0.25,32,170.5
1425,B-3,270.938,0.188,34,170.5
1426,E-4,271.0,0.188,39,170.5
1427,G4,271.0,0.125,36,170.5
1428,G5,271.25,0.188,43,170.5
1429,E4,271.5,0.188,38,170.5
1430,G5,271.75,0.188,37,170.5
1431,F4,272.0,0.25,44,170.5
1432,E-2,272.0,0.25,35,170.5
1433,G#5,272.25,0.25,37,170.5
1434,G4,272.5,0.25,47,170.5
1435,B-5,272.75,0.25,38,170.5
1436,G#4,273.0,0.25,47,170.5
1437,B3,273.0,2.0,26,170.5
1438,G#3,273.0,2.0,26,170.5
1439,B2,273.0,2.0,26,170.5
1440,E-3,273.0,2.0,26,170.5
1441,B5,273.25,0.25,38,170.5
1442,B4,273.5,0.25,45,170.5
1443,E6,273.75,0.25,33,170.5
1444,D5,274.0,0.25,47,170.5
1445,F6,274.25,0.25,37,170.5
1446,E5,274.5,0.25,45,170.5
1447,G6,274.75,0.25,33,170.5
1448,F5,275.0,0.25,45,170.5
1449,B3,275.0,1.0,26,170.5
1450,B2,275.0,1.0,26,170.5
1451,E-3,275.0,1.0,26,170.5
1452,G#3,275.0,1.0,26,170.5
1453,G#6,275.25,0.25,33,170.5
1454,G5,275.5,0.25,47,170.5
1455,B-6,275.75,0.25,34,170.5
1456,G#5,276.0,0.25,52,170.5
1457,B3,276.0,1.0,26,170.5
1458,B2,276.0,1.0,26,170.5
1459,E-3,276.0,1.0,26,170.5
1460,G#3,276.0,1.0,26,170.5
1461,B6,276.25,0.25,37,170.5
1462,B5,276.5,0.25,50,170.5
1463,E7,276.75,0.25,37,170.5
1464,D6,277.0,0.25,57,170.5
1465,B3,277.0,1.0,26,170.5
1466,B2,277.0,1.0,26,170.5
1467,E-3,277.0,1.0,26,170.5
1468,G#3,277.0,1.0,26,170.5
1469,F7,277.25,0.25,43,170.5
1470,C#6,277.5,0.25,53,170.5
1471,E7,277.75,0.25,44,170.5
1472,D6,278.0,0.25,58,170.5
1473,B3,278.0,1.0,26,170.5
1474,B2,278.0,1.0,26,170.5
1475,E-3,278.0,1.0,26,170.5
1476,G#3,278.0,1.0,26,170.5
1477,F7,278.25,0.25,44,170.5
1478,C#6,278.5,0.25,53,170.5
1479,E7,278.75,0.25,44,170.5
1480,D6,279.0,0.25,62,170.5
1481,B3,279.0,1.0,26,170.5
1482,B2,279.0,1.0,26,170.5
1483,E-3,279.0,1.0,26,170.5
1484,G#3,279.0,1.0,26,170.5
1485,F7,279.25,0.25,51,170.5
1486,C#6,279.5,0.25,60,170.5
1487,E7,279.75,0.25,57,170.5
1488,D6,280.0,0.125,46,170.5
1489,G#6,280.125,0.125,50,170.5
1490,B6,280.25,0.125,54,170.5
1491,D7,280.375,0.125,59,170.5
1492,G7,280.5,0.125,66,170.5
1493,F#7,280.625,0.125,49,170.5
1494,D7,280.75,0.125,49,170.5
1495,B6,280.875,0.125,48,170.5
1496,F#7,281.0,0.125,59,170.5
1497,F7,281.125,0.125,46,170.5
1498,D7,281.25,0.125,45,170.5
1499,B6,281.375,0.125,45,170.5
1500,F7,281.5,0.125,57,170.5
1501,E7,281.625,0.125,41,170.5
1502,B6,281.75,0.125,41,170.5
1503,G#6,281.875,0.125,41,170.5
1504,E7,282.0,0.125,55,170.5
1505,B3,282.0,2.0,26,170.5
1506,B2,282.0,2.0,26,170.5
1507,E-3,282.0,2.0,26,170.5
1508,G#3,282.0,2.0,26,170.5
1509,E-7,282.125,0.125,40,170.5
1510,B6,282.25,0.125,40,170.5
1511,G#6,282.375,0.125,40,170.5
1512,E-7,282.5,0.125,53,170.5
1513,D7,282.625,0.125,40,170.5
1514,G#6,282.75,0.125,40,170.5
1515,F6,282.875,0.125,40,170.5
1516,D7,283.0,0.125,52,170.5
1517,C#7,283.125,0.125,38,170.5
1518,G#6,283.25,0.125,38,170.5
1519,F6,283.375,0.125,38,170.5
1520,C#7,283.5,0.125,50,170.5
1521,C7,283.625,0.125,38,170.5
1522,G#6,283.75,0.125,38,170.5
1523,F6,283.875,0.125,38,170.5
1524,C7,284.0,0.125,53,170.5
1525,B6,284.125,0.125,35,170.5
1526,G#6,284.25,0.125,35,170.5
1527,F6,284.375,0.125,35,170.5
1528,B6,284.5,0.125,52,170.5
1529,B-6,284.625,0.125,35,170.5
1530,F6,284.75,0.125,35,170.5
1531,D6,284.875,0.125,35,170.5
1532,B-6,285.0,0.125,51,170.5
1533,A6,285.125,0.125,35,170.5
1534,F6,285.25,0.125,35,170.5
1535,D6,285.375,0.125,35,170.5
1536,A6,285.5,0.125,52,170.5
1537,G#6,285.625,0.125,35,170.5
1538,F6,285.75,0.125,35,170.5
1539,D6,285.875,0.125,35,170.5
1540,G#6,286.0,0.125,54,170.5
1541,G6,286.125,0.125,38,170.5
1542,D6,286.25,0.125,35,170.5
1543,B5,286.375,0.125,35,170.5
1544,G6,286.5,0.125,53,170.5
1545,F#6,286.625,0.125,35,170.5
1546,D6,286.75,0.125,35,170.5
1547,B5,286.875,0.125,35,170.5
1548,F#6,287.0,0.125,54,170.5
1549,F6,287.125,0.125,35,170.5
1550,D6,287.25,0.125,35,170.5
1551,B5,287.375,0.125,35,170.5
1552,F6,287.5,0.125,53,170.5
1553,E6,287.625,0.125,35,170.5
1554,B5,287.75,0.125,35,170.5
1555,G#5,287.875,0.125,35,170.5
1556,E6,288.0,0.125,55,170.5
1557,E-6,288.125,0.125,35,170.5
1558,B5,288.25,0.125,35,170.5
1559,G#5,288.375,0.125,35,170.5
1560,E-6,288.5,0.125,55,170.5
1561,D6,288.625,0.125,35,170.5
1562,G#5,288.75,0.125,35,170.5
1563,F5,288.875,0.125,35,170.5
1564,D6,289.0,0.125,56,170.5
1565,C#6,289.125,0.125,35,170.5
1566,G#5,289.25,0.125,35,170.5
1567,F5,289.375,0.125,35,170.5
1568,C#6,289.5,0.125,51,170.5
1569,C6,289.625,0.125,35,170.5
1570,G#5,289.75,0.125,35,170.5
1571,F5,289.875,0.125,35,170.5
1572,C6,290.0,0.125,55,170.5
1573,B5,290.125,0.125,35,170.5
1574,G#5,290.25,0.125,35,170.5
1575,F5,290.375,0.125,35,170.5
1576,B5,290.5,0.125,53,170.5
1577,B-5,290.625,0.125,35,170.5
1578,F5,290.75,0.125,35,170.5
1579,D5,290.875,0.125,35,170.5
1580,B-5,291.0,0.125,55,170.5
1581,A5,291.125,0.125,35,170.5
1582,F5,291.25,0.125,35,170.5
1583,D5,291.375,0.125,35,170.5
1584,A5,291.5,0.125,53,170.5
1585,G#5,291.625,0.125,35,170.5
1586,F5,291.75,0.125,35,170.5
1587,D5,291.875,0.125,35,170.5
1588,G#5,292.0,0.125,56,170.5
1589,G5,292.125,0.125,37,170.5
1590,D5,292.25,0.125,34,170.5
1591,B4,292.375,0.125,35,170.5
1592,G5,292.5,0.125,56,170.5
1593,F#5,292.625,0.125,38,170.5
1594,D5,292.75,0.125,36,170.5
1595,B4,292.875,0.125,36,170.5
1596,F#5,293.0,0.125,57,170.5
1597,F5,293.125,0.125,40,170.5
1598,D5,293.25,0.125,35,170.5
1599,B4,293.375,0.125,35,170.5
1600,F5,293.5,0.125,55,170.5
1601,E5,293.625,0.125,40,170.5
1602,B4,293.75,0.125,36,170.5
1603,G#4,293.875,0.125,36,170.5
1604,E5,294.0,0.125,58,170.5
1605,E-5,294.125,0.125,39,170.5
1606,B4,294.25,0.125,35,170.5
1607,G#4,294.375,0.125,36,170.5
1608,E-5,294.5,0.125,58,170.5
1609,D5,294.625,0.125,39,170.5
1610,G#4,294.75,0.125,37,170.5
1611,F4,294.875,0.125,37,170.5
1612,D5,295.0,0.125,61,170.5
1613,C#5,295.125,0.125,45,170.5
1614,G#4,295.25,0.125,40,170.5
1615,F4,295.375,0.125,40,170.5
1616,C#5,295.5,0.125,61,170.5
1617,C5,295.625,0.125,45,170.5
1618,G#4,295.75,0.125,39,170.5
1619,F4,295.875,0.125,39,170.5
1620,C5,296.0,0.125,63,170.5
1621,B4,296.125,0.125,47,170.5
1622,G#4,296.25,0.125,43,170.5
1623,F4,296.375,0.125,44,170.5
1624,B4,296.5,0.125,63,170.5
1625,B-4,296.625,0.125,49,170.5
1626,F4,296.75,0.125,46,170.5
1627,D4,296.875,0.125,39,170.5
1628,C#4,297.0,167/1000,66,170.5
1629,D4,297.167,167/1000,39,170.5
1630,F4,297.333,167/1000,39,170.5
1631,G#4,297.5,167/1000,40,170.5
1632,A4,297.667,167/1000,41,170.5
1633,B-4,297.833,167/1000,42,170.5
1634,B4,298.0,167/1000,43,170.5
1635,D5,298.167,167/1000,43,170.5
1636,F5,298.333,167/1000,44,170.5
1637,G#5,298.5,167/1000,45,170.5
1638,A5,298.667,167/1000,46,170.5
1639,B-5,298.833,167/1000,47,170.5
1640,B5,299.0,167/1000,49,170.5
1641,D6,299.167,167/1000,50,170.5
1642,F6,299.333,167/1000,51,170.5
1643,G#6,299.5,167/1000,53,170.5
1644,A6,299.667,167/1000,54,170.5
1645,B-6,299.833,167/1000,56,170.5
1646,B6,300.0,167/1000,63,170.5
1647,D7,300.167,167/1000,51,170.5
1648,C7,300.333,167/1000,51,170.5
1649,A6,300.5,167/1000,57,170.5
1650,C7,300.667,167/1000,45,170.5
1651,B-6,300.833,167/1000,45,170.5
1652,G6,301.0,167/1000,53,170.5
1653,B-6,301.167,167/1000,43,170.5
1654,G#6,301.333,167/1000,43,170.5
1655,E6,301.5,167/1000,47,170.5
1656,G6,301.667,167/1000,41,170.5
1657,F6,301.833,167/1000,41,170.5
1658,C#6,302.0,167/1000,48,170.5
1659,E-6,302.167,167/1000,38,170.5
1660,D6,302.333,167/1000,38,170.5
1661,B5,302.5,167/1000,48,170.5
1662,D6,302.667,167/1000,35,170.5
1663,C6,302.833,167/1000,35,170.5
1664,A5,303.0,167/1000,47,170.5
1665,C6,303.167,167/1000,35,170.5
1666,B-5,303.333,167/1000,35,170.5
1667,G5,303.5,167/1000,44,170.5
1668,B-5,303.667,167/1000,35,170.5
1669,G#5,303.833,167/1000,35,170.5
1670,E5,304.0,167/1000,44,170.5
1671,G5,304.167,167/1000,35,170.5
1672,F5,304.333,167/1000,35,170.5
1673,C#5,304.5,167/1000,41,170.5
1674,E-5,304.667,167/1000,35,170.5
1675,D5,304.833,167/1000,35,170.5
1676,B4,305.0,167/1000,41,170.5
1677,D5,305.167,167/1000,34,170.5
1678,C5,305.333,167/1000,34,170.5
1679,G#4,305.5,167/1000,41,170.5
1680,C5,305.667,167/1000,33,170.5
1681,B-4,305.833,167/1000,33,170.5
1682,G4,306.0,167/1000,40,170.5
1683,B-4,306.167,167/1000,31,170.5
1684,G#4,306.333,167/1000,31,170.5
1685,E4,306.5,167/1000,40,170.5
1686,G4,306.667,167/1000,29,170.5
1687,F4,306.833,167/1000,29,170.5
1688,C#4,307.0,167/1000,39,170.5
1689,E-4,307.167,167/1000,30,170.5
1690,D4,307.333,167/1000,30,170.5
1691,B3,307.5,167/1000,39,170.5
1692,D4,307.667,167/1000,30,170.5
1693,C4,307.833,167/1000,30,170.5
1694,A3,308.0,167/1000,38,170.5
1695,B-3,308.167,167/1000,31,170.5
1696,C4,308.333,167/1000,31,170.5
1697,B-3,308.5,167/1000,39,170.5
1698,A3,308.667,167/1000,32,170.5
1699,B-3,308.833,167/1000,47,170.5
1700,D4,309.0,0.062,49,170.5
1701,D4,309.5,0.5,56,170.5
1702,C4,310.0,0.125,52,170.5
1703,C4,310.5,0.5,56,170.5
1704,G3,311.0,0.125,52,170.5
1705,F3,311.25,0.25,39,170.5
1706,B-3,311.5,0.188,46,170.5
1707,B-2,311.5,0.25,41,170.5
1708,E-2,311.75,0.5,34,170.5
1709,C4,311.938,0.062,48,170.5
1710,B-3,312.0,0.188,49,170.5
1711,F3,312.25,0.25,40,170.5
1712,A3,312.375,0.125,46,170.5
1713,B-3,312.5,0.125,52,170.5
1714,B-2,312.5,0.25,41,170.5
1715,E-2,312.75,0.25,35,170.5
1716,F3,313.0,0.125,52,170.5
1717,E-2,313.0,0.25,35,170.5
1718,G3,313.25,0.125,49,170.5
1719,E-3,313.25,0.25,37,170.5
1720,G#3,313.5,0.125,50,170.5
1721,B-2,313.5,0.25,41,170.5
1722,C4,313.75,0.125,50,170.5
1723,E-2,313.75,0.5,34,170.5
1724,B-3,314.0,0.125,52,170.5
1725,G#3,314.25,0.125,48,170.5
1726,E-3,314.25,0.25,40,170.5
1727,G3,314.5,0.125,49,170.5
1728,B-2,314.5,0.25,41,170.5
1729,F3,314.75,0.094,49,170.5
1730,E-2,314.75,0.25,37,170.5
1731,A3,314.938,0.062,46,170.5
1732,B-3,315.0,0.125,52,170.5
1733,E-2,315.0,0.25,37,170.5
1734,D3,315.25,0.25,39,170.5
1735,B-3,315.5,0.188,46,170.5
1736,B-2,315.5,0.25,41,170.5
1737,B-3,315.75,0.125,48,170.5
1738,E-2,315.75,0.5,36,170.5
1739,C4,315.875,0.125,48,170.5
1740,B-3,316.0,0.094,49,170.5
1741,D3,316.25,0.25,39,170.5
1742,A3,316.375,0.125,46,170.5
1743,B-3,316.5,0.5,52,170.5
1744,B-2,316.5,0.25,41,170.5
1745,E-2,316.75,0.25,36,170.5
1746,D4,317.0,0.062,49,170.5
1747,E-2,317.0,0.25,36,170.5
1748,G3,317.25,0.25,39,170.5
1749,D4,317.5,0.5,55,170.5
1750,B-2,317.5,0.25,41,170.5
1751,E-2,317.75,0.5,35,170.5
1752,C4,318.0,0.125,52,170.5
1753,G3,318.25,0.25,39,170.5
1754,C4,318.5,0.5,56,170.5
1755,B-2,318.5,0.25,41,170.5
1756,E-2,318.75,0.25,36,170.5
1757,G3,319.0,0.125,49,170.5
1758,E-2,319.0,0.25,36,170.5
1759,F3,319.25,0.25,39,170.5
1760,B-3,319.5,0.188,56,170.5
1761,B-2,319.5,0.25,41,170.5
1762,E-2,319.75,0.5,34,170.5
1763,C4,319.938,0.062,48,170.5
1764,B-3,320.0,0.188,49,170.5
1765,F3,320.25,0.25,40,170.5
1766,A3,320.375,0.125,46,170.5
1767,B-3,320.5,0.125,52,170.5
1768,B-2,320.5,0.25,41,170.5
1769,E-2,320.75,0.25,35,170.5
1770,F3,321.0,0.125,52,170.5
1771,E-2,321.0,0.25,35,170.5
1772,G3,321.25,0.125,49,170.5
1773,E-3,321.25,0.25,37,170.5
1774,G#3,321.5,0.125,50,170.5
1775,B-2,321.5,0.25,41,170.5
1776,C4,321.75,0.125,50,170.5
1777,E-2,321.75,0.5,34,170.5
1778,B-3,322.0,0.125,52,170.5
1779,G#3,322.25,0.125,48,170.5
1780,E-3,322.25,0.25,40,170.5
1781,G3,322.5,0.125,49,170.5
1782,B-2,322.5,0.25,41,170.5
1783,F3,322.75,0.125,49,170.5
1784,E-2,322.75,0.25,37,170.5
1785,G3,323.0,0.125,53,170.5
1786,E-2,323.0,0.25,37,170.5
1787,D3,323.25,0.25,39,170.5
1788,E-3,323.5,1.0,56,170.5
1789,B-2,323.5,0.25,41,170.5
1790,E-2,323.75,0.5,36,170.5
1791,D3,324.25,0.25,39,170.5
1792,F#3,324.5,0.125,45,170.5
1793,B-2,324.5,0.25,41,170.5
1794,G3,324.625,0.125,47,170.5
1795,A3,324.75,0.125,49,170.5
1796,E-2,324.75,0.25,36,170.5
1797,B-3,324.875,0.125,51,170.5
1798,D4,325.0,0.062,49,170.5
1799,E-2,325.0,0.25,36,170.5
1800,B-2,325.25,0.25,39,170.5
1801,D4,325.5,0.5,55,170.5
1802,E-2,325.5,0.25,41,170.5
1803,B-2,325.75,0.5,36,170.5
1804,C4,326.0,0.125,51,170.5
1805,B-2,326.25,0.25,39,170.5
1806,C4,326.5,0.5,56,170.5
1807,E-2,326.5,0.25,41,170.5
1808,B-2,326.75,0.25,36,170.5
1809,G3,327.0,0.125,52,170.5
1810,F3,327.25,0.25,39,170.5
1811,B-3,327.5,0.188,46,170.5
1812,B-2,327.5,0.25,41,170.5
1813,E-2,327.75,0.5,34,170.5
1814,C4,327.938,0.062,48,170.5
1815,B-3,328.0,0.188,49,170.5
1816,F3,328.25,0.25,40,170.5
1817,A3,328.375,0.125,46,170.5
1818,B-3,328.5,0.125,52,170.5
1819,B-2,328.5,0.25,41,170.5
1820,E-2,328.75,0.25,35,170.5
1821,F3,329.0,0.125,52,170.5
1822,E-2,329.0,0.25,35,170.5
1823,G3,329.25,0.125,49,170.5
1824,E-3,329.25,0.25,37,170.5
1825,G#3,329.5,0.125,50,170.5
1826,B-2,329.5,0.25,41,170.5
1827,C4,329.75,0.125,50,170.5
1828,E-2,329.75,0.5,34,170.5
1829,B-3,330.0,0.125,52,170.5
1830,G#3,330.25,0.125,48,170.5
1831,E-3,330.25,0.25,40,170.5
1832,G3,330.5,0.125,49,170.5
1833,B-2,330.5,0.25,41,170.5
1834,F3,330.75,0.094,49,170.5
1835,E-2,330.75,0.25,37,170.5
1836,A3,330.938,0.062,46,170.5
1837,B-3,331.0,0.125,52,170.5
1838,E-2,331.0,0.25,37,170.5
1839,D3,331.25,0.25,39,170.5
1840,B-3,331.5,0.188,46,170.5
1841,B-2,331.5,0.25,41,170.5
1842,B-3,331.75,0.125,48,170.5
1843,E-2,331.75,0.5,36,170.5
1844,C4,331.875,0.125,48,170.5
1845,B-3,332.0,0.188,49,170.5
1846,D3,332.25,0.25,39,170.5
1847,A3,332.375,0.125,46,170.5
1848,B-3,332.5,0.5,52,170.5
1849,B-2,332.5,0.25,41,170.5
1850,E-2,332.75,0.25,36,170.5
1851,D4,333.0,0.062,49,170.5
1852,E-2,333.0,0.25,36,170.5
1853,G3,333.25,0.25,39,170.5
1854,D4,333.5,0.5,54,170.5
1855,B-2,333.5,0.25,41,170.5
1856,E-2,333.75,0.5,35,170.5
1857,C4,334.0,0.125,49,170.5
1858,G3,334.25,0.25,39,170.5
1859,C4,334.5,0.5,55,170.5
1860,B-2,334.5,0.25,41,170.5
1861,E-2,334.75,0.25,36,170.5
1862,G3,335.0,0.125,52,170.5
1863,E-2,335.0,0.25,36,170.5
1864,F3,335.25,0.25,39,170.5
1865,B-3,335.5,0.188,46,170.5
1866,B-2,335.5,0.25,41,170.5
1867,E-2,335.75,0.5,34,170.5
1868,C4,335.938,0.062,48,170.5
1869,B-3,336.0,0.188,49,170.5
1870,F3,336.25,0.25,40,170.5
1871,A3,336.375,0.125,46,170.5
1872,B-3,336.5,0.25,52,170.5
1873,B-2,336.5,0.25,41,170.5
1874,E-2,336.75,0.25,35,170.5
1875,F3,337.0,0.125,52,170.5
1876,E-2,337.0,0.25,35,170.5
1877,G3,337.25,0.125,49,170.5
1878,E-3,337.25,0.25,37,170.5
1879,G#3,337.5,0.125,50,170.5
1880,B-2,337.5,0.25,41,170.5
1881,C4,337.75,0.125,50,170.5
1882,E-2,337.75,0.5,34,170.5
1883,B-3,338.0,0.125,52,170.5
1884,G#3,338.25,0.125,48,170.5
1885,E-3,338.25,0.25,40,170.5
1886,G3,338.5,0.125,49,170.5
1887,B-2,338.5,0.25,41,170.5
1888,F3,338.75,0.125,49,170.5
1889,E-2,338.75,0.25,37,170.5
1890,G3,339.0,0.125,56,170.5
1891,E-2,339.0,0.25,37,170.5
1892,D3,339.25,0.25,39,170.5
1893,E-3,339.5,1.0,58,170.5
1894,B-2,339.5,0.25,41,170.5
1895,E-2,339.75,0.5,36,170.5
1896,D3,340.25,0.25,39,170.5
1897,F#4,340.375,0.125,41,170.5
1898,A4,340.438,0.062,49,170.5
1899,B-2,340.5,0.25,41,170.5
1900,B-4,340.5,0.5,45,170.5
1901,G4,340.5,0.5,45,170.5
1902,E-2,340.75,0.25,36,170.5
1903,E-2,341.0,0.25,36,170.5
1904,D5,341.0,0.125,44,170.5
1905,F4,341.0,0.125,44,170.5
1906,B-4,341.0,0.125,44,170.5
1907,B-2,341.25,0.25,39,170.5
1908,E-2,341.5,0.25,41,170.5
1909,D5,341.5,0.5,44,170.5
1910,F4,341.5,0.5,44,170.5
1911,B-4,341.5,0.5,44,170.5
1912,B-2,341.75,0.5,36,170.5
1913,C5,342.0,0.188,48,170.5
1914,G#4,342.0,0.188,48,170.5
1915,E-3,342.25,0.25,39,170.5
1916,B-2,342.5,0.25,41,170.5
1917,C5,342.5,0.5,42,170.5
1918,D4,342.5,0.5,42,170.5
1919,G#4,342.5,0.5,42,170.5
1920,E-2,342.75,0.25,36,170.5
1921,E-2,343.0,0.25,36,170.5
1922,G4,343.0,0.188,48,170.5
1923,E-4,343.0,0.188,48,170.5
1924,F3,343.25,0.25,39,170.5
1925,B-2,343.5,0.25,41,170.5
1926,G4,343.5,0.188,44,170.5
1927,B-4,343.5,0.188,44,170.5
1928,B-3,343.5,0.188,44,170.5
1929,E-2,343.75,0.5,34,170.5
1930,C5,343.875,0.125,48,170.5
1931,B-4,344.0,0.188,45,170.5
1932,G4,344.0,0.188,45,170.5
1933,F3,344.25,0.25,40,170.5
1934,A4,344.375,0.125,42,170.5
1935,F#4,344.375,0.125,42,170.5
1936,B-2,344.5,0.25,41,170.5
1937,B-4,344.5,0.25,48,170.5
1938,G4,344.5,0.25,48,170.5
1939,E-2,344.75,0.25,35,170.5
1940,F4,345.0,0.125,52,170.5
1941,B-3,345.0,1.0,44,170.5
1942,E-2,345.0,0.25,35,170.5
1943,G4,345.25,0.125,49,170.5
1944,G3,345.25,0.25,37,170.5
1945,G#4,345.5,0.125,50,170.5
1946,B-2,345.5,0.25,41,170.5
1947,C5,345.75,0.125,50,170.5
1948,E-2,345.75,0.5,34,170.5
1949,B-4,346.0,0.125,52,170.5
1950,G#4,346.25,0.125,48,170.5
1951,G3,346.25,0.25,40,170.5
1952,G4,346.5,0.125,49,170.5
1953,B-2,346.5,0.25,41,170.5
1954,F4,346.75,0.125,49,170.5
1955,E-2,346.75,0.25,37,170.5
1956,E-2,347.0,0.25,37,170.5
1957,G4,347.0,0.188,52,170.5
1958,B-4,347.0,0.188,52,170.5
1959,D3,347.25,0.25,39,170.5
1960,B-2,347.5,0.25,41,170.5
1961,G4,347.5,0.188,44,170.5
1962,B-4,347.5,0.188,44,170.5
1963,B-3,347.5,0.188,44,170.5
1964,E-2,347.75,0.5,36,170.5
1965,C5,347.938,0.062,48,170.5
1966,B-4,348.0,0.188,45,170.5
1967,G4,348.0,0.188,45,170.5
1968,D3,348.25,0.25,39,170.5
1969,A4,348.375,0.125,42,170.5
1970,F#4,348.375,0.125,42,170.5
1971,B-2,348.5,0.25,41,170.5
1972,B-4,348.5,0.25,48,170.5
1973,G4,348.5,0.25,48,170.5
1974,E-2,348.75,0.25,36,170.5
1975,E-2,349.0,0.25,36,170.5
1976,D6,349.0,0.125,44,170.5
1977,F5,349.0,0.125,44,170.5
1978,B-5,349.0,0.125,44,170.5
1979,E-3,349.25,0.25,39,170.5
1980,B-2,349.5,0.25,41,170.5
1981,D6,349.5,0.5,44,170.5
1982,F5,349.5,0.5,44,170.5
1983,B-5,349.5,0.5,44,170.5
1984,E-2,349.75,0.5,36,170.5
1985,C6,350.0,0.188,48,170.5
1986,G#5,350.0,0.188,48,170.5
1987,E-3,350.25,0.25,39,170.5
1988,B-2,350.5,0.25,41,170.5
1989,C6,350.5,0.5,42,170.5
1990,D5,350.5,0.5,42,170.5
1991,G#5,350.5,0.5,42,170.5
1992,E-2,350.75,0.25,36,170.5
1993,E-2,351.0,0.25,36,170.5
1994,G5,351.0,0.188,48,170.5
1995,E-5,351.0,0.188,48,170.5
1996,F3,351.25,0.25,39,170.5
1997,B-2,351.5,0.25,41,170.5
1998,G5,351.5,0.188,44,170.5
1999,B-5,351.5,0.188,44,170.5
2000,B-4,351.5,0.188,44,170.5
2001,E-2,351.75,0.5,34,170.5
2002,C6,351.938,0.062,48,170.5
2003,B-5,352.0,0.188,45,170.5
2004,G5,352.0,0.188,45,170.5
2005,F3,352.25,0.25,40,170.5
2006,A5,352.375,0.125,42,170.5
2007,F#5,352.375,0.125,42,170.5
2008,B-2,352.5,0.25,41,170.5
2009,B-5,352.5,0.25,48,170.5
2010,G5,352.5,0.25,48,170.5
2011,E-2,352.75,0.25,35,170.5
2012,F5,353.0,0.125,52,170.5
2013,B-4,353.0,1.0,44,170.5
2014,E-2,353.0,0.25,35,170.5
2015,G5,353.25,0.125,49,170.5
2016,G3,353.25,0.25,37,170.5
2017,G#5,353.5,0.125,50,170.5
2018,B-2,353.5,0.25,41,170.5
2019,C6,353.75,0.125,50,170.5
2020,E-2,353.75,0.5,34,170.5
2021,B-4,354.0,1.0,44,170.5
2022,B-5,354.0,0.125,52,170.5
2023,G#5,354.25,0.125,48,170.5
2024,G3,354.25,0.25,40,170.5
2025,G5,354.5,0.125,49,170.5
2026,B-2,354.5,0.25,41,170.5
2027,F5,354.75,0.125,49,170.5
2028,E-2,354.75,0.25,37,170.5
2029,E-2,355.0,0.25,37,170.5
2030,B-4,355.0,0.188,52,170.5
2031,G5,355.0,0.188,52,170.5
2032,D3,355.25,0.25,39,170.5
2033,B-2,355.5,0.25,41,170.5
2034,B-4,355.5,0.875,44,170.5
2035,E-5,355.5,0.875,44,170.5
2036,G4,355.5,0.875,44,170.5
2037,E-2,355.75,0.5,36,170.5
2038,D3,356.25,0.25,39,170.5
2039,D5,356.438,0.062,46,170.5
2040,B-2,356.5,0.25,41,170.5
2041,G4,356.5,0.25,39,170.5
2042,B-4,356.5,0.25,39,170.5
2043,E-5,356.5,0.25,39,170.5
2044,E-2,356.75,0.25,36,170.5
2045,F6,357.0,0.125,52,170.5
2046,B-5,357.0,1.0,44,170.5
2047,E-2,357.0,0.25,36,170.5
2048,G6,357.25,0.125,49,170.5
2049,E-3,357.25,0.25,39,170.5
2050,G#6,357.5,0.125,50,170.5
2051,B-2,357.5,0.25,41,170.5
2052,C7,357.75,0.125,50,170.5
2053,E-2,357.75,0.5,36,170.5
2054,B-5,358.0,1.0,44,170.5
2055,B-6,358.0,0.125,52,170.5
2056,G#6,358.25,0.125,48,170.5
2057,E-3,358.25,0.25,39,170.5
2058,G6,358.5,0.125,49,170.5
2059,B-2,358.5,0.25,41,170.5
2060,F6,358.75,0.125,49,170.5
2061,E-2,358.75,0.25,36,170.5
2062,B-5,359.0,0.188,47,170.5
2063,B-6,359.0,0.188,47,170.5
2064,G6,359.0,0.188,47,170.5
2065,G#4,359.25,0.25,39,170.5
2066,B-5,359.5,0.5,44,170.5
2067,D4,359.5,0.25,41,170.5
2068,B-6,359.5,0.375,45,170.5
2069,G6,359.5,0.375,45,170.5
2070,B-3,359.75,0.25,36,170.5
2071,A6,359.875,0.125,42,170.5
2072,F#6,359.875,0.125,42,170.5
2073,B-5,360.0,1.0,47,170.5
2074,B-6,360.0,1.0,47,170.5
2075,G6,360.0,1.0,47,170.5
2076,D3,360.25,0.25,39,170.5
2077,B-2,360.5,0.25,41,170.5
2078,E-2,360.75,0.25,36,170.5
2079,F5,361.0,0.125,52,170.5
2080,B-4,361.0,1.0,44,170.5
2081,G5,361.25,0.125,49,170.5
2082,G4,361.25,0.25,37,170.5
2083,G#5,361.5,0.125,50,170.5
2084,E-4,361.5,0.25,41,170.5
2085,C6,361.75,0.125,50,170.5
2086,B-3,361.75,0.25,34,170.5
2087,B-4,362.0,1.0,44,170.5
2088,B-5,362.0,0.125,52,170.5
2089,G#5,362.25,0.125,48,170.5
2090,E-3,362.25,0.25,40,170.5
2091,G5,362.5,0.125,49,170.5
2092,B-2,362.5,0.25,41,170.5
2093,F5,362.75,0.125,49,170.5
2094,E-2,362.75,0.25,37,170.5
2095,B-4,363.0,0.188,52,170.5
2096,G5,363.0,0.188,52,170.5
2097,G#4,363.25,0.25,39,170.5
2098,D4,363.5,0.25,41,170.5
2099,B-4,363.5,0.875,44,170.5
2100,E-5,363.5,0.875,44,170.5
2101,G4,363.5,0.875,44,170.5
2102,B-3,363.75,0.25,36,170.5
2103,D3,364.25,0.25,39,170.5
2104,D5,364.438,0.062,46,170.5
2105,B-2,364.5,0.25,41,170.5
2106,G4,364.5,0.25,39,170.5
2107,B-4,364.5,0.25,39,170.5
2108,E-5,364.5,0.25,39,170.5
2109,E-2,364.75,0.25,36,170.5
2110,F6,365.0,0.125,52,170.5
2111,B-5,365.0,1.0,44,170.5
2112,G6,365.25,0.125,49,170.5
2113,E-4,365.25,0.25,39,170.5
2114,G#6,365.5,0.125,50,170.5
2115,B-3,365.5,0.25,41,170.5
2116,C7,365.75,0.125,50,170.5
2117,E-3,365.75,0.25,36,170.5
2118,B-5,366.0,1.0,44,170.5
2119,B-6,366.0,0.125,52,170.5
2120,G#6,366.25,0.125,48,170.5
2121,E-3,366.25,0.25,39,170.5
2122,G6,366.5,0.125,49,170.5
2123,B-2,366.5,0.25,41,170.5
2124,F6,366.75,0.125,49,170.5
2125,E-2,366.75,0.25,36,170.5
2126,B-5,367.0,0.188,47,170.5
2127,B-6,367.0,0.188,47,170.5
2128,G6,367.0,0.188,47,170.5
2129,G#4,367.25,0.25,39,170.5
2130,B-5,367.5,0.5,44,170.5
2131,D4,367.5,0.25,41,170.5
2132,B-6,367.5,0.375,45,170.5
2133,G6,367.5,0.375,45,170.5
2134,B-3,367.75,0.25,36,170.5
2135,A6,367.875,0.125,42,170.5
2136,F#6,367.875,0.125,42,170.5
2137,B-5,368.0,1.0,47,170.5
2138,B-6,368.0,1.0,47,170.5
2139,G6,368.0,1.0,47,170.5
2140,D3,368.25,0.25,39,170.5
2141,B-2,368.5,0.25,41,170.5
2142,E-2,368.75,0.25,36,170.5
2143,F5,369.0,0.125,52,170.5
2144,B-4,369.0,1.0,44,170.5
2145,G5,369.25,0.125,49,170.5
2146,G4,369.25,0.25,37,170.5
2147,G#5,369.5,0.125,50,170.5
2148,E-4,369.5,0.25,41,170.5
2149,C6,369.75,0.125,50,170.5
2150,B-3,369.75,0.25,34,170.5
2151,B-4,370.0,1.0,44,170.5
2152,B-5,370.0,0.125,52,170.5
2153,G#5,370.25,0.125,48,170.5
2154,E-3,370.25,0.25,40,170.5
2155,G5,370.5,0.125,49,170.5
2156,B-2,370.5,0.25,41,170.5
2157,F5,370.75,0.125,49,170.5
2158,E-2,370.75,0.25,37,170.5
2159,F#5,370.938,0.062,49,170.5
2160,G5,371.0,0.125,49,170.5
2161,G#4,371.25,0.25,39,170.5
2162,B-4,371.5,0.25,44,170.5
2163,G4,371.5,0.5,37,170.5
2164,D4,371.5,0.25,41,170.5
2165,E-5,371.75,0.125,49,170.5
2166,B-3,371.75,0.25,36,170.5
2167,D5,372.0,0.25,42,170.5
2168,G#4,372.0,0.5,35,170.5
2169,F5,372.25,0.125,49,170.5
2170,D3,372.25,0.25,39,170.5
2171,F4,372.5,0.25,42,170.5
2172,D4,372.5,0.5,35,170.5
2173,B-2,372.5,0.25,41,170.5
2174,B4,372.75,0.125,49,170.5
2175,E-2,372.75,0.25,36,170.5
2176,C5,373.0,1.0,42,170.5
2177,G4,373.0,1.0,42,170.5
2178,G3,373.5,0.5,35,170.5
2179,E-2,373.5,0.5,35,170.5
2180,B4,374.0,167/1000,47,170.5
2181,G#3,374.0,0.5,35,170.5
2182,F2,374.0,0.5,35,170.5
2183,C5,374.167,167/1000,41,170.5
2184,D5,374.333,167/1000,41,170.5
2185,C5,374.5,167/1000,45,170.5
2186,B3,374.5,0.5,35,170.5
2187,G2,374.5,0.5,35,170.5
2188,B4,374.667,167/1000,40,170.5
2189,C5,374.833,167/1000,45,170.5
2190,E-4,375.0,2.0,42,170.5
2191,C3,375.0,2.0,42,170.5
2192,G3,375.0,2.0,42,170.5
2193,F4,375.188,1.312,47,170.5
2194,C5,375.25,1.25,49,170.5
2195,F5,375.312,1.188,51,170.5
2196,E-5,376.5,0.375,49,170.5
2197,E-5,376.875,0.125,42,170.5
2198,G#2,377.0,1.5,37,170.5
2199,F3,377.062,1.438,38,170.5
2200,C4,377.125,1.375,39,170.5
2201,D4,377.188,1.312,47,170.5
2202,G#4,377.25,1.25,49,170.5
2203,D5,377.312,1.188,51,170.5
2204,D4,378.5,0.188,46,170.5
2205,G#4,378.562,0.125,50,170.5
2206,F5,378.625,0.062,58,170.5
2207,B-2,379.0,1.5,37,170.5
2208,E-5,379.0,0.125,52,170.5
2209,G4,379.0,0.125,52,170.5
2210,F3,379.062,1.438,38,170.5
2211,B-3,379.125,1.375,39,170.5
2212,F5,379.25,0.125,45,170.5
2213,B-4,379.25,0.125,45,170.5
2214,G5,379.5,0.125,46,170.5
2215,E-5,379.5,0.125,46,170.5
2216,G#5,379.75,0.125,40,170.5
2217,F5,379.75,0.125,40,170.5
2218,C6,379.938,0.062,56,170.5
2219,B-5,380.0,0.125,46,170.5
2220,G5,380.0,0.125,46,170.5
2221,A5,380.375,0.125,42,170.5
2222,F#5,380.375,0.125,42,170.5
2223,B-1,380.5,0.188,35,170.5
2224,B-5,380.5,0.125,50,170.5
2225,G5,380.5,0.125,50,170.5
2226,G#3,381.0,0.375,97,170.5
2227,E-2,381.0,0.125,43,170.5
2228,C6,381.5,0.125,50,170.5
2229,C5,381.5,0.125,50,170.5
2230,E-5,381.5,0.125,50,170.5
2231,G4,381.5,0.125,33,170.5
2232,E-4,381.5,0.125,33,170.5
2233,G3,381.5,0.125,33,170.5
2234,C6,382.0,0.125,59,170.5
2235,G#5,382.0,0.125,59,170.5
2236,C5,382.0,0.125,59,170.5
2237,B5,382.375,0.125,45,170.5
2238,B4,382.375,0.125,45,170.5
2239,G5,382.375,0.125,45,170.5
2240,C6,382.5,0.125,45,170.5
2241,G#5,382.5,0.125,45,170.5
2242,C5,382.5,0.125,45,170.5
2243,G4,382.5,0.125,31,170.5
2244,E-4,382.5,0.125,31,170.5
2245,B-3,382.5,0.125,31,170.5
2246,G3,383.0,0.375,96,170.5
2247,G#2,383.0,0.375,68,170.5
2248,G#1,383.0,0.375,68,170.5
2249,B-5,383.5,0.125,50,170.5
2250,B-4,383.5,0.125,50,170.5
2251,E-5,383.5,0.125,50,170.5
2252,G#4,383.5,0.125,43,170.5
2253,G#3,383.5,0.125,43,170.5
2254,E-4,383.5,0.125,43,170.5
2255,G4,383.875,0.125,38,170.5
2256,G3,383.875,0.125,38,170.5
2257,B-5,384.0,0.125,59,170.5
2258,G5,384.0,0.125,59,170.5
2259,B-4,384.0,0.125,59,170.5
2260,G#4,384.0,0.125,49,170.5
2261,G#3,384.0,0.125,49,170.5
2262,E-4,384.0,0.125,49,170.5
2263,A5,384.375,0.125,45,170.5
2264,A4,384.375,0.125,45,170.5
2265,F#5,384.375,0.125,45,170.5
2266,B-5,384.5,0.125,45,170.5
2267,G5,384.5,0.125,45,170.5
2268,B-4,384.5,0.125,45,170.5
2269,F3,385.0,0.375,95,170.5
2270,G2,385.0,0.375,68,170.5
2271,G1,385.0,0.375,68,170.5
2272,G#5,385.5,0.125,50,170.5
2273,G#4,385.5,0.125,50,170.5
2274,D5,385.5,0.125,50,170.5
2275,G4,385.5,0.125,43,170.5
2276,G3,385.5,0.125,43,170.5
2277,E-4,385.5,0.125,43,170.5
2278,F#4,385.875,0.125,38,170.5
2279,F#3,385.875,0.125,38,170.5
2280,G#5,386.0,0.125,59,170.5
2281,F5,386.0,0.125,59,170.5
2282,G#4,386.0,0.125,59,170.5
2283,G4,386.0,0.125,49,170.5
2284,G3,386.0,0.125,49,170.5
2285,E-4,386.0,0.125,49,170.5
2286,G5,386.375,0.125,45,170.5
2287,G4,386.375,0.125,45,170.5
2288,E5,386.375,0.125,45,170.5
2289,G#5,386.5,0.125,45,170.5
2290,F5,386.5,0.125,45,170.5
2291,G#4,386.5,0.125,45,170.5
2292,E-3,387.0,0.375,99,170.5
2293,F2,387.0,0.375,68,170.5
2294,F1,387.0,0.375,68,170.5
2295,G5,387.5,0.125,50,170.5
2296,G4,387.5,0.125,50,170.5
2297,B-4,387.5,0.125,50,170.5
2298,F4,387.5,0.125,43,170.5
2299,F3,387.5,0.125,43,170.5
2300,D4,387.5,0.125,43,170.5
2301,E4,387.875,0.125,38,170.5
2302,E3,387.875,0.125,38,170.5
2303,G5,388.0,0.125,59,170.5
2304,E-5,388.0,0.125,59,170.5
2305,G4,388.0,0.125,59,170.5
2306,F4,388.0,0.125,49,170.5
2307,F3,388.0,0.125,49,170.5
2308,D4,388.0,0.125,49,170.5
2309,F#5,388.375,0.125,45,170.5
2310,F#4,388.375,0.125,45,170.5
2311,D5,388.375,0.125,45,170.5
2312,G5,388.5,0.125,45,170.5
2313,E-5,388.5,0.125,45,170.5
2314,G4,388.5,0.125,45,170.5
2315,G#5,389.0,0.125,48,170.5
2316,C5,389.0,0.125,48,170.5
2317,E-2,389.0,0.375,68,170.5
2318,E-1,389.0,0.375,68,170.5
2319,G5,389.25,0.125,43,170.5
2320,B-4,389.25,0.125,43,170.5
2321,F5,389.5,0.125,43,170.5
2322,G#4,389.5,0.125,43,170.5
2323,E-4,389.5,0.125,43,170.5
2324,E-3,389.5,0.125,43,170.5
2325,B-3,389.5,0.125,43,170.5
2326,E-5,389.75,0.125,43,170.5
2327,G4,389.75,0.125,43,170.5
2328,D4,389.875,0.125,38,170.5
2329,D3,389.875,0.125,38,170.5
2330,D5,390.0,0.125,48,170.5
2331,F4,390.0,0.125,48,170.5
2332,E-4,390.0,0.125,49,170.5
2333,E-3,390.0,0.125,49,170.5
2334,B-3,390.0,0.125,49,170.5
2335,B-4,390.25,0.125,42,170.5
2336,D4,390.25,0.125,42,170.5
2337,C5,390.5,0.125,42,170.5
2338,E-4,390.5,0.125,42,170.5
2339,D5,390.75,0.125,42,170.5
2340,F4,390.75,0.125,42,170.5
2341,B-1,391.0,0.125,48,170.5
2342,E-5,391.0,0.125,52,170.5
2343,G4,391.0,0.125,52,170.5
2344,F5,391.25,0.125,45,170.5
2345,B-4,391.25,0.125,45,170.5
2346,G5,391.5,0.125,46,170.5
2347,E-5,391.5,0.125,46,170.5
2348,D4,391.5,0.125,37,170.5
2349,G#3,391.5,0.125,37,170.5
2350,F3,391.5,0.125,37,170.5
2351,G#5,391.75,0.125,40,170.5
2352,F5,391.75,0.125,40,170.5
2353,C6,391.938,0.062,56,170.5
2354,B-2,392.0,0.125,47,170.5
2355,B-5,392.0,0.125,46,170.5
2356,G5,392.0,0.125,46,170.5
2357,A5,392.375,0.125,42,170.5
2358,F#5,392.375,0.125,42,170.5
2359,B-5,392.5,0.125,50,170.5
2360,G5,392.5,0.125,50,170.5
2361,B-3,392.5,0.125,36,170.5
2362,F3,392.5,0.125,36,170.5
2363,G#3,392.5,0.125,36,170.5
2364,E-2,393.0,0.125,43,170.5
2365,G#6,393.0,0.125,48,170.5
2366,C6,393.0,0.125,48,170.5
2367,G6,393.25,0.125,43,170.5
2368,B-5,393.25,0.125,43,170.5
2369,F6,393.5,0.125,43,170.5
2370,G#5,393.5,0.125,43,170.5
2371,E-4,393.5,0.125,33,170.5
2372,B-3,393.5,0.125,33,170.5
2373,G3,393.5,0.125,33,170.5
2374,E-6,393.75,0.125,43,170.5
2375,G5,393.75,0.125,43,170.5
2376,B-2,394.0,0.125,43,170.5
2377,D6,394.0,0.125,48,170.5
2378,F5,394.0,0.125,48,170.5
2379,B-5,394.25,0.125,42,170.5
2380,D5,394.25,0.125,42,170.5
2381,C6,394.5,0.125,42,170.5
2382,E-5,394.5,0.125,42,170.5
2383,E-4,394.5,0.125,31,170.5
2384,B-3,394.5,0.125,31,170.5
2385,G3,394.5,0.125,31,170.5
2386,D6,394.75,0.125,42,170.5
2387,F5,394.75,0.125,42,170.5
2388,B-1,395.0,0.125,48,170.5
2389,E-6,395.0,0.125,52,170.5
2390,G5,395.0,0.125,52,170.5
2391,F6,395.25,0.125,45,170.5
2392,B-5,395.25,0.125,45,170.5
2393,G6,395.5,0.125,46,170.5
2394,E-6,395.5,0.125,46,170.5
2395,D4,395.5,0.125,37,170.5
2396,G#3,395.5,0.125,37,170.5
2397,F3,395.5,0.125,37,170.5
2398,G#6,395.75,0.125,40,170.5
2399,F6,395.75,0.125,40,170.5
2400,C7,395.938,0.062,56,170.5
2401,B-2,396.0,0.125,47,170.5
2402,B-6,396.0,0.125,46,170.5
2403,G6,396.0,0.125,46,170.5
2404,A6,396.375,0.125,42,170.5
2405,F#6,396.375,0.125,42,170.5
2406,B-6,396.5,0.125,50,170.5
2407,G6,396.5,0.125,50,170.5
2408,B-3,396.5,0.125,36,170.5
2409,F3,396.5,0.125,36,170.5
2410,G#3,396.5,0.125,36,170.5
2411,G#3,397.0,0.375,93,170.5
2412,E-2,397.0,0.125,43,170.5
2413,C6,397.5,0.125,50,170.5
2414,C5,397.5,0.125,50,170.5
2415,E-5,397.5,0.125,50,170.5
2416,E-4,397.5,0.125,33,170.5
2417,B-3,397.5,0.125,33,170.5
2418,G3,397.5,0.125,33,170.5
2419,B-2,398.0,0.125,43,170.5
2420,C6,398.0,0.125,59,170.5
2421,G#5,398.0,0.125,59,170.5
2422,C5,398.0,0.125,59,170.5
2423,B5,398.375,0.125,45,170.5
2424,B4,398.375,0.125,45,170.5
2425,G5,398.375,0.125,45,170.5
2426,C6,398.5,0.125,45,170.5
2427,G#5,398.5,0.125,45,170.5
2428,C5,398.5,0.125,45,170.5
2429,E-4,398.5,0.125,31,170.5
2430,B-3,398.5,0.125,31,170.5
2431,G3,398.5,0.125,31,170.5
2432,G3,399.0,0.375,101,170.5
2433,G#2,399.0,0.375,68,170.5
2434,G#1,399.0,0.375,68,170.5
2435,B-5,399.5,0.125,50,170.5
2436,B-4,399.5,0.125,50,170.5
2437,E-5,399.5,0.125,50,170.5
2438,G#4,399.5,0.125,43,170.5
2439,G#3,399.5,0.125,43,170.5
2440,E-4,399.5,0.125,43,170.5
2441,G4,399.875,0.125,38,170.5
2442,G3,399.875,0.125,38,170.5
2443,B-5,400.0,0.125,59,170.5
2444,G5,400.0,0.125,59,170.5
2445,B-4,400.0,0.125,59,170.5
2446,G#4,400.0,0.125,49,170.5
2447,G#3,400.0,0.125,49,170.5
2448,E-4,400.0,0.125,49,170.5
2449,A5,400.375,0.125,45,170.5
2450,A4,400.375,0.125,45,170.5
2451,F#5,400.375,0.125,45,170.5
2452,B-5,400.5,0.125,45,170.5
2453,G5,400.5,0.125,45,170.5
2454,B-4,400.5,0.125,45,170.5
2455,F3,401.0,0.375,96,170.5
2456,G2,401.0,0.375,68,170.5
2457,G1,401.0,0.375,68,170.5
2458,G#5,401.5,0.125,50,170.5
2459,G#4,401.5,0.125,50,170.5
2460,D5,401.5,0.125,50,170.5
2461,G4,401.5,0.125,43,170.5
2462,G3,401.5,0.125,43,170.5
2463,E-4,401.5,0.125,43,170.5
2464,F#4,401.875,0.125,38,170.5
2465,F#3,401.875,0.125,38,170.5
2466,G#5,402.0,0.125,59,170.5
2467,F5,402.0,0.125,59,170.5
2468,G#4,402.0,0.125,59,170.5
2469,G4,402.0,0.125,49,170.5
2470,G3,402.0,0.125,49,170.5
2471,E-4,402.0,0.125,49,170.5
2472,G5,402.375,0.125,45,170.5
2473,G4,402.375,0.125,45,170.5
2474,E5,402.375,0.125,45,170.5
2475,G#5,402.5,0.125,45,170.5
2476,F5,402.5,0.125,45,170.5
2477,G#4,402.5,0.125,45,170.5
2478,E-3,403.0,0.375,92,170.5
2479,F2,403.0,0.375,68,170.5
2480,F1,403.0,0.375,68,170.5
2481,G5,403.5,0.125,50,170.5
2482,G4,403.5,0.125,50,170.5
2483,B-4,403.5,0.125,50,170.5
2484,F4,403.5,0.125,43,170.5
2485,F3,403.5,0.125,43,170.5
2486,D4,403.5,0.125,43,170.5
2487,E4,403.875,0.125,38,170.5
2488,E3,403.875,0.125,38,170.5
2489,G5,404.0,0.125,59,170.5
2490,E-5,404.0,0.125,59,170.5
2491,G4,404.0,0.125,59,170.5
2492,F4,404.0,0.125,49,170.5
2493,F3,404.0,0.125,49,170.5
2494,D4,404.0,0.125,49,170.5
2495,F#5,404.375,0.125,45,170.5
2496,F#4,404.375,0.125,45,170.5
2497,D5,404.375,0.125,45,170.5
2498,G5,404.5,0.125,45,170.5
2499,E-5,404.5,0.125,45,170.5
2500,G4,404.5,0.125,45,170.5
2501,G#6,405.0,0.125,48,170.5
2502,C6,405.0,0.125,48,170.5
2503,E-2,405.0,0.375,68,170.5
2504,E-1,405.0,0.375,68,170.5
2505,G6,405.25,0.125,43,170.5
2506,B-5,405.25,0.125,43,170.5
2507,F6,405.5,0.125,43,170.5
2508,G#5,405.5,0.125,43,170.5
2509,E-4,405.5,0.125,43,170.5
2510,E-3,405.5,0.125,43,170.5
2511,B-3,405.5,0.125,43,170.5
2512,E-6,405.75,0.125,43,170.5
2513,G5,405.75,0.125,43,170.5
2514,D4,405.875,0.125,38,170.5
2515,D3,405.875,0.125,38,170.5
2516,D6,406.0,0.125,48,170.5
2517,F5,406.0,0.125,48,170.5
2518,E-4,406.0,0.125,49,170.5
2519,E-3,406.0,0.125,49,170.5
2520,B-3,406.0,0.125,49,170.5
2521,B-5,406.25,0.125,42,170.5
2522,D5,406.25,0.125,42,170.5
2523,C6,406.5,0.125,42,170.5
2524,E-5,406.5,0.125,42,170.5
2525,D6,406.75,0.125,42,170.5
2526,F5,406.75,0.125,42,170.5
2527,B-1,407.0,0.125,48,170.5
2528,E-6,407.0,0.125,52,170.5
2529,G5,407.0,0.125,52,170.5
2530,F6,407.25,0.125,45,170.5
2531,B-5,407.25,0.125,45,170.5
2532,G6,407.5,0.125,46,170.5
2533,E-6,407.5,0.125,46,170.5
2534,D4,407.5,0.125,37,170.5
2535,G#3,407.5,0.125,37,170.5
2536,F3,407.5,0.125,37,170.5
2537,G#6,407.75,0.125,40,170.5
2538,F6,407.75,0.125,40,170.5
2539,C7,407.938,0.062,56,170.5
2540,B-2,408.0,0.125,47,170.5
2541,B-6,408.0,0.125,46,170.5
2542,G6,408.0,0.125,46,170.5
2543,F#6,408.25,0.125,42,170.5
2544,A6,408.25,0.125,42,170.5
2545,C7,408.5,0.125,50,170.5
2546,G#6,408.5,0.125,50,170.5
2547,B-3,408.5,0.125,36,170.5
2548,F3,408.5,0.125,36,170.5
2549,G#3,408.5,0.125,36,170.5
2550,B-6,408.75,0.125,50,170.5
2551,G6,408.75,0.125,50,170.5
2552,E-2,409.0,0.125,43,170.5
2553,G#5,409.0,0.125,48,170.5
2554,C5,409.0,0.125,48,170.5
2555,G5,409.25,0.125,43,170.5
2556,B-4,409.25,0.125,43,170.5
2557,F5,409.5,0.125,43,170.5
2558,G#4,409.5,0.125,43,170.5
2559,E-4,409.5,0.125,33,170.5
2560,B-3,409.5,0.125,33,170.5
2561,G3,409.5,0.125,33,170.5
2562,E-5,409.75,0.125,43,170.5
2563,G4,409.75,0.125,43,170.5
2564,B-2,410.0,0.125,43,170.5
2565,D5,410.0,0.125,48,170.5
2566,F4,410.0,0.125,48,170.5
2567,B-4,410.25,0.125,42,170.5
2568,D4,410.25,0.125,42,170.5
2569,C5,410.5,0.125,42,170.5
2570,E-4,410.5,0.125,42,170.5
2571,E-4,410.5,0.125,31,170.5
2572,B-3,410.5,0.125,31,170.5
2573,G3,410.5,0.125,31,170.5
2574,D5,410.75,0.125,42,170.5
2575,F4,410.75,0.125,42,170.5
2576,B-1,411.0,0.125,48,170.5
2577,E-5,411.0,0.125,52,170.5
2578,G4,411.0,0.125,52,170.5
2579,F5,411.25,0.125,45,170.5
2580,B-4,411.25,0.125,45,170.5
2581,G5,411.5,0.125,46,170.5
2582,E-5,411.5,0.125,46,170.5
2583,D4,411.5,0.125,37,170.5
2584,G#3,411.5,0.125,37,170.5
2585,F3,411.5,0.125,37,170.5
2586,G#5,411.75,0.125,40,170.5
2587,F5,411.75,0.125,40,170.5
2588,B-2,412.0,0.125,47,170.5
2589,B-5,412.0,0.125,46,170.5
2590,G5,412.0,0.125,46,170.5
2591,F#5,412.25,0.125,42,170.5
2592,A5,412.25,0.125,42,170.5
2593,C6,412.5,0.125,50,170.5
2594,G#5,412.5,0.125,50,170.5
2595,B-3,412.5,0.125,36,170.5
2596,F3,412.5,0.125,36,170.5
2597,G#3,412.5,0.125,36,170.5
2598,B-5,412.75,0.125,50,170.5
2599,G5,412.75,0.125,50,170.5
2600,E-2,413.0,0.125,43,170.5
2601,G#6,413.0,0.125,48,170.5
2602,C6,413.0,0.125,48,170.5
2603,G6,413.25,0.125,43,170.5
2604,B-5,413.25,0.125,43,170.5
2605,F6,413.5,0.125,43,170.5
2606,G#5,413.5,0.125,43,170.5
2607,E-4,413.5,0.125,33,170.5
2608,B-3,413.5,0.125,33,170.5
2609,G3,413.5,0.125,33,170.5
2610,E-6,413.75,0.125,43,170.5
2611,G5,413.75,0.125,43,170.5
2612,B-2,414.0,0.125,43,170.5
2613,D6,414.0,0.125,48,170.5
2614,F5,414.0,0.125,48,170.5
2615,B-5,414.25,0.125,42,170.5
2616,D5,414.25,0.125,42,170.5
2617,C6,414.5,0.125,42,170.5
2618,E-5,414.5,0.125,42,170.5
2619,E-4,414.5,0.125,31,170.5
2620,B-3,414.5,0.125,31,170.5
2621,G3,414.5,0.125,31,170.5
2622,D6,414.75,0.125,42,170.5
2623,F5,414.75,0.125,42,170.5
2624,B-1,415.0,0.125,48,170.5
2625,E-6,415.0,0.125,52,170.5
2626,G5,415.0,0.125,52,170.5
2627,F6,415.25,0.125,45,170.5
2628,B-5,415.25,0.125,45,170.5
2629,G6,415.5,0.125,46,170.5
2630,E-6,415.5,0.125,46,170.5
2631,D4,415.5,0.125,37,170.5
2632,G#3,415.5,0.125,37,170.5
2633,F3,415.5,0.125,37,170.5
2634,G#6,415.75,0.125,40,170.5
2635,F6,415.75,0.125,40,170.5
2636,B-2,416.0,0.125,47,170.5
2637,B-6,416.0,0.125,46,170.5
2638,G6,416.0,0.125,46,170.5
2639,F#6,416.25,0.125,42,170.5
2640,A6,416.25,0.125,42,170.5
2641,C7,416.5,0.125,46,170.5
2642,G#6,416.5,0.125,46,170.5
2643,D4,416.5,0.125,36,170.5
2644,F3,416.5,0.125,36,170.5
2645,G#3,416.5,0.125,36,170.5
2646,B-6,416.75,0.125,46,170.5
2647,G6,416.75,0.125,46,170.5
2648,E-2,417.0,0.125,43,170.5
2649,G#6,417.0,0.125,52,170.5
2650,C6,417.0,0.125,52,170.5
2651,G6,417.25,0.125,49,170.5
2652,B-5,417.25,0.125,49,170.5
2653,F6,417.5,0.125,49,170.5
2654,G#5,417.5,0.125,49,170.5
2655,E-4,417.5,0.125,33,170.5
2656,B-3,417.5,0.125,33,170.5
2657,G3,417.5,0.125,33,170.5
2658,E-6,417.75,0.125,49,170.5
2659,G5,417.75,0.125,49,170.5
2660,B-2,418.0,0.125,43,170.5
2661,D6,418.0,0.125,52,170.5
2662,F5,418.0,0.125,52,170.5
2663,B-5,418.25,0.125,46,170.5
2664,D5,418.25,0.125,46,170.5
2665,A5,418.5,0.125,46,170.5
2666,C#5,418.5,0.125,46,170.5
2667,E-4,418.5,0.125,31,170.5
2668,B-3,418.5,0.125,31,170.5
2669,G3,418.5,0.125,31,170.5
2670,B-5,418.75,0.125,46,170.5
2671,D5,418.75,0.125,46,170.5
2672,B-1,419.0,0.125,59,170.5
2673,B5,419.0,0.125,47,170.5
2674,E-5,419.0,0.125,47,170.5
2675,C6,419.25,0.125,40,170.5
2676,E5,419.25,0.125,40,170.5
2677,C#6,419.5,0.125,42,170.5
2678,F5,419.5,0.125,42,170.5
2679,F3,419.5,0.125,31,170.5
2680,G#3,419.5,0.125,31,170.5
2681,D4,419.5,0.125,31,170.5
2682,D6,419.75,0.125,42,170.5
2683,F#5,419.75,0.125,42,170.5
2684,E-6,420.0,0.125,44,170.5
2685,G5,420.0,0.125,44,170.5
2686,E6,420.25,0.125,46,170.5
2687,G#5,420.25,0.125,46,170.5
2688,F6,420.5,0.125,47,170.5
2689,A5,420.5,0.125,47,170.5
2690,G4,420.5,0.125,40,170.5
2691,E4,420.5,0.125,40,170.5
2692,F#6,420.75,0.125,49,170.5
2693,B-5,420.75,0.125,49,170.5
2694,G#4,420.75,0.125,40,170.5
2695,F4,420.75,0.125,40,170.5
2696,G6,421.0,0.125,50,170.5
2697,B5,421.0,0.125,50,170.5
2698,A4,421.0,0.125,38,170.5
2699,F#4,421.0,0.125,38,170.5
2700,G#6,421.25,0.125,52,170.5
2701,C6,421.25,0.125,52,170.5
2702,B-4,421.25,0.125,40,170.5
2703,G4,421.25,0.125,40,170.5
2704,A6,421.5,0.125,54,170.5
2705,C#6,421.5,0.125,54,170.5
2706,B4,421.5,0.125,40,170.5
2707,G#4,421.5,0.125,40,170.5
2708,B-6,421.75,0.125,56,170.5
2709,D6,421.75,0.125,56,170.5
2710,C5,421.75,0.125,42,170.5
2711,A4,421.75,0.125,42,170.5
2712,A6,422.0,0.125,62,170.5
2713,C#6,422.0,0.125,62,170.5
2714,C#5,422.0,0.125,42,170.5
2715,B-4,422.0,0.125,42,170.5
2716,B-6,422.25,0.125,64,170.5
2717,D6,422.25,0.125,64,170.5
2718,D5,422.25,0.125,43,170.5
2719,B4,422.25,0.125,43,170.5
2720,A6,422.5,0.125,68,170.5
2721,A5,422.5,0.125,68,170.5
2722,E-5,422.5,0.125,44,170.5
2723,C5,422.5,0.125,44,170.5
2724,B-6,422.75,0.125,66,170.5
2725,B-5,422.75,0.125,66,170.5
2726,E5,422.75,0.125,45,170.5
2727,C#5,422.75,0.125,45,170.5
2728,D7,423.0,0.25,76,170.5
2729,D6,423.0,0.25,76,170.5
2730,B-6,423.0,0.25,76,170.5
2731,F5,423.0,0.125,46,170.5
2732,D5,423.0,0.125,46,170.5
2733,F#5,423.25,0.125,47,170.5
2734,E-5,423.25,0.125,47,170.5
2735,D7,423.5,0.5,70,170.5
2736,D6,423.5,0.5,70,170.5
2737,B-6,423.5,0.5,70,170.5
2738,G5,423.5,0.125,49,170.5
2739,E5,423.5,0.125,49,170.5
2740,G#5,423.75,0.125,50,170.5
2741,F5,423.75,0.125,50,170.5
2742,C7,424.0,0.25,76,170.5
2743,C6,424.0,0.25,76,170.5
2744,G#6,424.0,0.25,76,170.5
2745,G5,424.0,0.125,50,170.5
2746,E5,424.0,0.125,50,170.5
2747,G#5,424.25,0.125,52,170.5
2748,F5,424.25,0.125,52,170.5
2749,C7,424.5,0.5,72,170.5
2750,C6,424.5,0.5,72,170.5
2751,G#6,424.5,0.5,72,170.5
2752,G6,425.0,0.25,75,170.5
2753,G5,425.0,0.25,75,170.5
2754,E-6,425.0,0.25,75,170.5
2755,G#2,425.0,0.25,66,170.5
2756,G#1,425.0,0.25,66,170.5
2757,B-6,425.5,0.25,68,170.5
2758,B-5,425.5,0.25,68,170.5
2759,G6,425.5,0.25,68,170.5
2760,F4,425.5,0.5,57,170.5
2761,C4,425.5,0.5,57,170.5
2762,F3,425.5,0.5,57,170.5
2763,B-6,426.0,0.125,72,170.5
2764,B-5,426.0,0.125,72,170.5
2765,G6,426.0,0.125,72,170.5
2766,B-2,426.0,0.25,66,170.5
2767,B-1,426.0,0.25,66,170.5
2768,A6,426.375,0.125,65,170.5
2769,A5,426.375,0.125,65,170.5
2770,F#6,426.375,0.125,65,170.5
2771,B-6,426.5,0.25,72,170.5
2772,B-5,426.5,0.25,72,170.5
2773,G6,426.5,0.25,72,170.5
2774,F4,426.5,0.5,58,170.5
2775,D4,426.5,0.5,58,170.5
2776,F3,426.5,0.5,58,170.5
2777,F6,427.0,0.125,67,170.5
2778,F5,427.0,0.125,67,170.5
2779,G#5,427.0,0.125,67,170.5
2780,E-3,427.0,0.25,66,170.5
2781,E-2,427.0,0.25,66,170.5
2782,G6,427.25,0.125,66,170.5
2783,G5,427.25,0.125,66,170.5
2784,B-5,427.25,0.125,66,170.5
2785,G#6,427.5,0.125,66,170.5
2786,G#5,427.5,0.125,66,170.5
2787,C6,427.5,0.125,66,170.5
2788,G4,427.5,0.25,58,170.5
2789,E-4,427.5,0.25,58,170.5
2790,G3,427.5,0.25,58,170.5
2791,E-6,427.75,0.125,70,170.5
2792,C7,427.75,0.125,70,170.5
2793,C6,427.75,0.125,70,170.5
2794,D6,428.0,0.125,72,170.5
2795,B-6,428.0,0.125,72,170.5
2796,B-5,428.0,0.125,72,170.5
2797,E-3,428.0,0.25,66,170.5
2798,E-2,428.0,0.25,66,170.5
2799,G#6,428.25,0.125,66,170.5
2800,G#5,428.25,0.125,66,170.5
2801,C6,428.25,0.125,66,170.5
2802,G6,428.5,0.125,66,170.5
2803,G5,428.5,0.125,66,170.5
2804,B-5,428.5,0.125,66,170.5
2805,G4,428.5,0.25,58,170.5
2806,E-4,428.5,0.25,58,170.5
2807,G3,428.5,0.25,58,170.5
2808,F6,428.75,0.125,66,170.5
2809,F5,428.75,0.125,66,170.5
2810,G#5,428.75,0.125,66,170.5
2811,B-6,429.0,0.25,80,170.5
2812,G6,429.0,0.25,80,170.5
2813,B-5,429.0,0.25,80,170.5
2814,F3,429.0,0.25,66,170.5
2815,F2,429.0,0.25,66,170.5
2816,G6,429.5,0.25,72,170.5
2817,B-6,429.5,0.25,72,170.5
2818,B-5,429.5,0.25,72,170.5
2819,F4,429.5,0.25,58,170.5
2820,C4,429.5,0.25,58,170.5
2821,G#3,429.5,0.25,58,170.5
2822,A5,429.875,0.125,68,170.5
2823,F#6,429.875,0.125,68,170.5
2824,A6,429.875,0.125,68,170.5
2825,B-6,430.0,1.0,77,170.5
2826,G6,430.0,1.0,77,170.5
2827,B-5,430.0,1.0,77,170.5
2828,B-2,430.0,0.25,66,170.5
2829,B-1,430.0,0.25,66,170.5
2830,F4,430.5,0.25,58,170.5
2831,D4,430.5,0.25,58,170.5
2832,G#3,430.5,0.25,58,170.5
2833,D7,431.0,0.25,76,170.5
2834,D6,431.0,0.25,76,170.5
2835,B-6,431.0,0.25,76,170.5
2836,E-3,431.0,0.25,66,170.5
2837,E-2,431.0,0.25,66,170.5
2838,D7,431.5,0.5,70,170.5
2839,D6,431.5,0.5,70,170.5
2840,B-6,431.5,0.5,70,170.5
2841,G4,431.5,0.25,58,170.5
2842,E-4,431.5,0.25,58,170.5
2843,G3,431.5,0.25,58,170.5
2844,C7,432.0,0.25,76,170.5
2845,C6,432.0,0.25,76,170.5
2846,G#6,432.0,0.25,76,170.5
2847,E-3,432.0,0.25,66,170.5
2848,E-2,432.0,0.25,66,170.5
2849,C7,432.5,0.5,72,170.5
2850,C6,432.5,0.5,72,170.5
2851,G#6,432.5,0.5,72,170.5
2852,G4,432.5,0.25,58,170.5
2853,E-4,432.5,0.25,58,170.5
2854,G3,432.5,0.25,58,170.5
2855,G6,433.0,0.25,75,170.5
2856,G5,433.0,0.25,75,170.5
2857,E-6,433.0,0.25,75,170.5
2858,G#2,433.0,0.25,66,170.5
2859,G#1,433.0,0.25,66,170.5
2860,B-6,433.5,0.25,68,170.5
2861,B-5,433.5,0.25,68,170.5
2862,G6,433.5,0.25,68,170.5
2863,F4,433.5,0.5,57,170.5
2864,C4,433.5,0.5,57,170.5
2865,F3,433.5,0.5,57,170.5
2866,B-6,434.0,0.125,72,170.5
2867,B-5,434.0,0.125,72,170.5
2868,G6,434.0,0.125,72,170.5
2869,B-2,434.0,0.25,66,170.5
2870,B-1,434.0,0.25,66,170.5
2871,A6,434.375,0.125,65,170.5
2872,A5,434.375,0.125,65,170.5
2873,F#6,434.375,0.125,65,170.5
2874,B-6,434.5,0.25,72,170.5
2875,B-5,434.5,0.25,72,170.5
2876,G6,434.5,0.25,72,170.5
2877,F4,434.5,0.5,58,170.5
2878,D4,434.5,0.5,58,170.5
2879,F3,434.5,0.5,58,170.5
2880,F6,435.0,0.125,59,170.5
2881,F5,435.0,0.125,59,170.5
2882,G#5,435.0,0.125,59,170.5
2883,E-3,435.0,0.25,66,170.5
2884,E-2,435.0,0.25,66,170.5
2885,G6,435.25,0.125,61,170.5
2886,G5,435.25,0.125,61,170.5
2887,B-5,435.25,0.125,61,170.5
2888,G#6,435.5,0.125,63,170.5
2889,G#5,435.5,0.125,63,170.5
2890,B5,435.5,0.125,63,170.5
2891,G4,435.5,0.25,58,170.5
2892,E-4,435.5,0.25,58,170.5
2893,G3,435.5,0.25,58,170.5
2894,C6,435.75,0.125,65,170.5
2895,A6,435.75,0.125,65,170.5
2896,A5,435.75,0.125,65,170.5
2897,B-6,436.0,0.125,66,170.5
2898,C#6,436.0,0.125,66,170.5
2899,B-5,436.0,0.125,66,170.5
2900,E-3,436.0,0.25,66,170.5
2901,E-2,436.0,0.25,66,170.5
2902,B6,436.25,0.125,68,170.5
2903,B5,436.25,0.125,68,170.5
2904,D6,436.25,0.125,68,170.5
2905,C7,436.5,0.125,70,170.5
2906,C6,436.5,0.125,70,170.5
2907,E-6,436.5,0.125,70,170.5
2908,G4,436.5,0.25,58,170.5
2909,E-4,436.5,0.25,58,170.5
2910,G3,436.5,0.25,58,170.5
2911,D7,436.75,0.125,71,170.5
2912,D6,436.75,0.125,71,170.5
2913,F6,436.75,0.125,71,170.5
2914,E-7,437.0,0.125,72,170.5
2915,E-6,437.0,0.125,72,170.5
2916,G6,437.0,0.125,72,170.5
2917,F3,437.0,0.25,66,170.5
2918,F2,437.0,0.25,66,170.5
2919,F4,437.5,0.25,58,170.5
2920,C4,437.5,0.25,58,170.5
2921,G#3,437.5,0.25,58,170.5
2922,E-5,438.0,0.125,71,170.5
2923,G5,438.0,0.125,71,170.5
2924,B-5,438.0,0.125,71,170.5
2925,E-6,438.0,0.125,71,170.5
2926,B-2,438.0,0.25,66,170.5
2927,B-1,438.0,0.25,66,170.5
2928,F4,438.5,0.25,58,170.5
2929,D4,438.5,0.25,58,170.5
2930,G#3,438.5,0.25,58,170.5
2931,E-2,439.0,0.25,66,170.5
2932,E-3,439.0,0.25,66,170.5
2933,E-4,440.0,0.25,63,170.5
2934,G4,440.0,0.25,63,170.5
2935,G3,440.0,0.25,63,170.5
2936,B-3,440.0,0.25,63,170.5
2937,B-3,440.5,1/10,57,170.5
2938,C4,440.6,1/10,54,170.5
2939,B-3,440.7,1/10,55,170.5
2940,A3,440.8,1/10,55,170.5
2941,B-3,440.9,1/10,55,170.5
2942,D4,441.0,0.094,60,170.5
2943,C#4,441.25,0.125,53,170.5
2944,C4,441.5,0.125,53,170.5
2945,B3,441.75,0.125,53,170.5
2946,B-3,442.0,0.125,57,170.5
2947,A3,442.25,0.125,54,170.5
2948,G#3,442.5,0.125,54,170.5
2949,C4,442.75,0.125,54,170.5
2950,G3,443.0,0.125,57,170.5
2951,G#3,443.25,0.125,54,170.5
2952,A3,443.5,0.125,54,170.5
2953,B-2,443.5,0.125,38,170.5
2954,F3,443.5,0.125,38,170.5
2955,B-3,443.75,0.062,54,170.5
2956,A3,443.875,21/500,49,170.5
2957,B-3,443.875,21/500,49,170.5
2958,C4,443.958,21/500,49,170.5
2959,B-3,444.0,0.125,57,170.5
2960,E-2,444.0,0.125,45,170.5
2961,A3,444.25,0.125,53,170.5
2962,B-3,444.5,0.125,57,170.5
2963,B-2,444.5,0.125,40,170.5
2964,F3,444.5,0.125,40,170.5
2965,G3,444.75,0.125,54,170.5
2966,F3,445.0,0.125,57,170.5
2967,G3,445.25,0.125,51,170.5
2968,G#3,445.5,0.125,51,170.5
2969,B-2,445.5,0.125,37,170.5
2970,E-3,445.5,0.125,37,170.5
2971,C4,445.75,0.125,51,170.5
2972,B-3,446.0,0.125,54,170.5
2973,E-2,446.0,0.125,45,170.5
2974,G#3,446.25,0.125,51,170.5
2975,G3,446.5,0.125,51,170.5
2976,B-2,446.5,0.125,40,170.5
2977,E-3,446.5,0.125,40,170.5
2978,F3,446.75,0.125,51,170.5
2979,A3,447.0,0.125,54,170.5
2980,B-3,447.25,0.125,45,170.5
2981,B-3,447.5,0.125,47,170.5
2982,B-2,447.5,0.125,38,170.5
2983,D3,447.5,0.125,38,170.5
2984,B3,447.75,0.125,48,170.5
2985,B3,448.0,0.125,50,170.5
2986,E-2,448.0,0.125,45,170.5
2987,C4,448.25,0.125,52,170.5
2988,C4,448.5,0.125,54,170.5
2989,B-2,448.5,0.125,40,170.5
2990,D3,448.5,0.125,40,170.5
2991,C#4,448.75,0.125,55,170.5
2992,D4,449.0,0.125,58,170.5
2993,C#4,449.25,0.125,53,170.5
2994,C4,449.5,0.125,53,170.5
2995,B-2,449.5,0.125,38,170.5
2996,G3,449.5,0.125,38,170.5
2997,B3,449.75,0.125,53,170.5
2998,B-3,450.0,0.125,57,170.5
2999,E-2,450.0,0.125,45,170.5
3000,A3,450.25,0.125,54,170.5
3001,G#3,450.5,0.125,54,170.5
3002,B-2,450.5,0.125,45,170.5
3003,G3,450.5,0.125,45,170.5
3004,C4,450.75,0.125,54,170.5
3005,G3,451.0,0.125,57,170.5
3006,G#3,451.25,0.125,54,170.5
3007,A3,451.5,0.125,54,170.5
3008,B-2,451.5,0.125,38,170.5
3009,F3,451.5,0.125,38,170.5
3010,B-3,451.75,0.062,54,170.5
3011,A3,451.875,21/500,49,170.5
3012,B-3,451.875,21/500,49,170.5
3013,C4,451.958,21/500,49,170.5
3014,B-3,452.0,0.125,57,170.5
3015,E-2,452.0,0.125,45,170.5
3016,A3,452.25,0.125,53,170.5
3017,B-3,452.5,0.125,57,170.5
3018,B-2,452.5,0.125,40,170.5
3019,F3,452.5,0.125,40,170.5
3020,G3,452.75,0.125,54,170.5
3021,F3,453.0,0.125,57,170.5
3022,G3,453.25,0.125,51,170.5
3023,G#3,453.5,0.125,51,170.5
3024,B-2,453.5,0.125,37,170.5
3025,E-3,453.5,0.125,37,170.5
3026,C4,453.75,0.125,51,170.5
3027,B-3,454.0,0.125,54,170.5
3028,E-2,454.0,0.125,45,170.5
3029,G#3,454.25,0.125,51,170.5
3030,G3,454.5,0.125,51,170.5
3031,B-2,454.5,0.125,40,170.5
3032,E-3,454.5,0.125,40,170.5
3033,F3,454.75,0.125,51,170.5
3034,G3,455.0,0.125,54,170.5
3035,E-3,455.25,0.125,51,170.5
3036,G3,455.5,0.125,53,170.5
3037,B-2,455.5,0.125,38,170.5
3038,D3,455.5,0.125,38,170.5
3039,B-3,455.75,0.125,55,170.5
3040,E-4,456.0,0.125,57,170.5
3041,E-2,456.0,0.125,45,170.5
3042,F#4,456.25,0.125,52,170.5
3043,G4,456.5,0.125,53,170.5
3044,B-2,456.5,0.125,40,170.5
3045,D3,456.5,0.125,40,170.5
3046,B-4,456.75,0.125,55,170.5
3047,D5,457.0,13/125,63,170.5
3048,F4,457.25,0.125,55,170.5
3049,D5,457.5,0.5,76,170.5
3050,B-2,457.5,0.125,38,170.5
3051,E-3,457.5,0.125,38,170.5
3052,B-5,457.75,0.25,55,170.5
3053,C5,458.0,0.125,59,170.5
3054,E-2,458.0,0.125,45,170.5
3055,F4,458.25,0.125,55,170.5
3056,C5,458.5,0.5,76,170.5
3057,G#5,458.75,0.25,55,170.5
3058,G4,459.0,0.125,63,170.5
3059,B-3,459.25,0.125,55,170.5
3060,G4,459.5,0.5,75,170.5
3061,B-2,459.5,0.5,58,170.5
3062,G#3,459.5,0.5,58,170.5
3063,E-5,459.75,0.25,55,170.5
3064,B-4,460.0,0.125,59,170.5
3065,E-2,460.0,0.5,47,170.5
3066,E-4,460.25,0.125,55,170.5
3067,B-4,460.5,0.5,72,170.5
3068,B-2,460.5,0.5,51,170.5
3069,G#3,460.5,0.5,51,170.5
3070,G5,460.75,0.125,55,170.5
3071,C#5,460.938,0.062,59,170.5
3072,D5,461.0,0.125,63,170.5
3073,F4,461.25,0.125,55,170.5
3074,D5,461.5,0.5,77,170.5
3075,B-2,461.5,0.5,58,170.5
3076,G3,461.5,0.5,58,170.5
3077,B-5,461.812,0.062,55,170.5
3078,E5,461.938,0.062,56,170.5
3079,F5,462.0,0.125,59,170.5
3080,E-2,462.0,0.5,47,170.5
3081,B-4,462.25,0.125,55,170.5
3082,F5,462.5,0.5,79,170.5
3083,B-2,462.5,0.5,51,170.5
3084,G3,462.5,0.5,51,170.5
3085,D6,462.75,0.125,61,170.5
3086,F#5,462.938,0.062,60,170.5
3087,G5,463.0,0.125,64,170.5
3088,B-4,463.25,0.125,56,170.5
3089,G5,463.5,0.5,79,170.5
3090,B-2,463.5,0.5,58,170.5
3091,G#3,463.5,0.5,58,170.5
3092,E-6,463.75,0.125,58,170.5
3093,A5,463.938,0.062,57,170.5
3094,B-5,464.0,0.125,61,170.5
3095,E-2,464.0,0.5,47,170.5
3096,E-5,464.25,0.125,57,170.5
3097,B-5,464.5,0.5,78,170.5
3098,B-2,464.5,0.5,51,170.5
3099,G#3,464.5,0.5,51,170.5
3100,G6,464.75,0.25,57,170.5
3101,C#6,464.938,0.062,62,170.5
3102,D6,465.0,0.125,66,170.5
3103,F5,465.25,0.125,57,170.5
3104,D6,465.5,0.5,81,170.5
3105,B-2,465.5,0.5,60,170.5
3106,G3,465.5,0.5,60,170.5
3107,B-6,465.75,0.125,58,170.5
3108,B5,465.938,0.062,58,170.5
3109,C6,466.0,0.125,62,170.5
3110,E-2,466.0,0.5,48,170.5
3111,F5,466.25,0.125,58,170.5
3112,C6,466.5,0.5,83,170.5
3113,B-2,466.5,0.5,52,170.5
3114,G3,466.5,0.5,52,170.5
3115,G#6,466.75,0.25,58,170.5
3116,F#5,466.938,0.062,63,170.5
3117,G5,467.0,0.125,68,170.5
3118,B-4,467.25,0.125,59,170.5
3119,G5,467.5,0.5,81,170.5
3120,B-2,467.5,0.5,62,170.5
3121,G#3,467.5,0.5,62,170.5
3122,E-6,467.75,0.125,59,170.5
3123,A5,467.938,0.062,60,170.5
3124,B-5,468.0,0.125,64,170.5
3125,E-2,468.0,0.5,49,170.5
3126,E-5,468.25,0.125,59,170.5
3127,B-5,468.5,0.5,81,170.5
3128,B-2,468.5,0.5,54,170.5
3129,G#3,468.5,0.5,54,170.5
3130,G6,468.75,0.25,60,170.5
3131,C#6,468.938,0.062,68,170.5
3132,D6,469.0,0.125,69,170.5
3133,F5,469.25,0.125,61,170.5
3134,D6,469.5,0.5,87,170.5
3135,B-2,469.5,0.5,62,170.5
3136,G3,469.5,0.5,62,170.5
3137,B-6,469.75,0.125,61,170.5
3138,E6,469.875,0.062,70,170.5
3139,F6,470.0,0.125,66,170.5
3140,E-2,470.0,0.5,51,170.5
3141,B-5,470.25,0.125,61,170.5
3142,F6,470.5,0.5,84,170.5
3143,B-2,470.5,0.5,56,170.5
3144,G3,470.5,0.5,56,170.5
3145,D7,470.75,0.25,62,170.5
3146,F#6,470.938,0.062,64,170.5
3147,G6,471.0,0.125,83,170.5
3148,B-5,471.25,0.125,62,170.5
3149,G6,471.5,0.5,70,170.5
3150,B-2,471.5,0.5,64,170.5
3151,G#3,471.5,0.5,64,170.5
3152,E-7,471.75,0.125,62,170.5
3153,E-4,472.0,0.875,79,170.5
3154,E-2,472.0,0.5,52,170.5
3155,B-2,472.5,0.5,56,170.5
3156,G#3,472.5,0.5,56,170.5
3157,E4,472.875,0.125,48,170.5
3158,F4,473.0,167/1000,48,170.5
3159,G4,473.167,167/1000,50,170.5
3160,G#4,473.333,167/1000,52,170.5
3161,C5,473.5,167/1000,54,170.5
3162,B-2,473.5,0.5,56,170.5
3163,G3,473.5,0.5,56,170.5
3164,B-4,473.667,167/1000,53,170.5
3165,G#4,473.833,167/1000,52,170.5
3166,G4,474.0,167/1000,51,170.5
3167,E-2,474.0,0.5,47,170.5
3168,F4,474.167,167/1000,50,170.5
3169,E-4,474.333,167/1000,49,170.5
3170,D4,474.5,167/1000,48,170.5
3171,B-2,474.5,0.5,43,170.5
3172,G3,474.5,0.5,43,170.5
3173,C4,474.667,167/1000,48,170.5
3174,B-3,474.833,167/1000,47,170.5
3175,A3,475.0,167/1000,49,170.5
3176,B-3,475.167,167/1000,50,170.5
3177,C4,475.333,167/1000,51,170.5
3178,D4,475.5,167/1000,51,170.5
3179,B-2,475.5,0.5,42,170.5
3180,G#3,475.5,0.5,42,170.5
3181,E-4,475.667,167/1000,52,170.5
3182,F#4,475.833,167/1000,53,170.5
3183,G4,476.0,167/1000,54,170.5
3184,E-2,476.0,0.5,44,170.5
3185,G#4,476.167,167/1000,54,170.5
3186,B-4,476.333,167/1000,55,170.5
3187,C5,476.5,167/1000,56,170.5
3188,B-2,476.5,0.5,40,170.5
3189,G#3,476.5,0.5,40,170.5
3190,D5,476.667,167/1000,57,170.5
3191,E-5,476.833,13/125,58,170.5
3192,D5,476.938,0.062,56,170.5
3193,F5,477.0,167/1000,63,170.5
3194,D5,477.0,167/1000,56,170.5
3195,G5,477.167,167/1000,58,170.5
3196,G#5,477.333,167/1000,59,170.5
3197,C6,477.5,167/1000,64,170.5
3198,B-2,477.5,0.5,40,170.5
3199,G3,477.5,0.5,40,170.5
3200,B-5,477.667,167/1000,63,170.5
3201,G#5,477.833,167/1000,62,170.5
3202,G5,478.0,167/1000,60,170.5
3203,E-2,478.0,0.5,44,170.5
3204,F5,478.167,167/1000,59,170.5
3205,E-5,478.333,167/1000,58,170.5
3206,D5,478.5,167/1000,57,170.5
3207,B-2,478.5,0.5,41,170.5
3208,G3,478.5,0.5,41,170.5
3209,C5,478.667,167/1000,55,170.5
3210,B-4,478.833,167/1000,54,170.5
3211,A4,479.0,167/1000,55,170.5
3212,B-4,479.167,167/1000,55,170.5
3213,C5,479.333,167/1000,56,170.5
3214,D5,479.5,167/1000,56,170.5
3215,F3,479.5,0.5,40,170.5
3216,G#3,479.5,0.5,40,170.5
3217,D4,479.5,0.5,40,170.5
3218,E-5,479.667,167/1000,57,170.5
3219,F#5,479.833,167/1000,58,170.5
3220,G5,480.0,167/1000,58,170.5
3221,E-2,480.0,0.5,44,170.5
3222,G#5,480.167,167/1000,59,170.5
3223,B-5,480.333,167/1000,60,170.5
3224,C6,480.5,167/1000,60,170.5
3225,D4,480.5,0.5,40,170.5
3226,G#3,480.5,0.5,40,170.5
3227,F3,480.5,0.5,40,170.5
3228,D6,480.667,167/1000,61,170.5
3229,E-6,480.833,13/125,63,170.5
3230,D6,480.938,0.062,52,170.5
3231,F6,481.0,167/1000,63,170.5
3232,D6,481.0,167/1000,52,170.5
3233,G6,481.167,167/1000,58,170.5
3234,G#6,481.333,167/1000,59,170.5
3235,C7,481.5,167/1000,64,170.5
3236,G3,481.5,0.5,41,170.5
3237,B-3,481.5,0.5,41,170.5
3238,E-4,481.5,0.5,41,170.5
3239,B-6,481.667,167/1000,63,170.5
3240,G#6,481.833,167/1000,62,170.5
3241,G6,482.0,167/1000,60,170.5
3242,E-2,482.0,0.5,44,170.5
3243,F6,482.167,167/1000,59,170.5
3244,E-6,482.333,167/1000,58,170.5
3245,D6,482.5,167/1000,57,170.5
3246,E-4,482.5,0.5,42,170.5
3247,B-3,482.5,0.5,42,170.5
3248,G3,482.5,0.5,42,170.5
3249,C6,482.667,167/1000,55,170.5
3250,B-5,482.833,167/1000,54,170.5
3251,A5,483.0,167/1000,55,170.5
3252,B-5,483.167,167/1000,55,170.5
3253,C6,483.333,167/1000,56,170.5
3254,D6,483.5,167/1000,56,170.5
3255,G#3,483.5,0.5,40,170.5
3256,D4,483.5,0.5,40,170.5
3257,F4,483.5,0.5,40,170.5
3258,E-6,483.667,167/1000,57,170.5
3259,F#6,483.833,167/1000,58,170.5
3260,G6,484.0,167/1000,58,170.5
3261,E-2,484.0,0.5,44,170.5
3262,G#6,484.167,167/1000,58,170.5
3263,B-6,484.333,167/1000,57,170.5
3264,C7,484.5,167/1000,56,170.5
3265,F4,484.5,0.5,40,170.5
3266,D4,484.5,0.5,40,170.5
3267,G#3,484.5,0.5,40,170.5
3268,D7,484.667,167/1000,56,170.5
3269,E-7,484.833,167/1000,55,170.5
3270,E7,485.0,167/1000,55,170.5
3271,F7,485.167,167/1000,50,170.5
3272,B-6,485.333,167/1000,54,170.5
3273,C#7,485.5,167/1000,50,170.5
3274,B-3,485.5,0.5,41,170.5
3275,E-4,485.5,0.5,41,170.5
3276,G4,485.5,0.5,41,170.5
3277,D7,485.667,167/1000,54,170.5
3278,F6,485.833,167/1000,50,170.5
3279,E7,486.0,167/1000,54,170.5
3280,E-2,486.0,0.5,44,170.5
3281,F7,486.167,167/1000,50,170.5
3282,B-6,486.333,167/1000,54,170.5
3283,C#7,486.5,167/1000,50,170.5
3284,G4,486.5,0.5,42,170.5
3285,E-4,486.5,0.5,42,170.5
3286,B-3,486.5,0.5,42,170.5
3287,D7,486.667,167/1000,55,170.5
3288,F6,486.833,167/1000,50,170.5
3289,F#7,487.0,167/1000,55,170.5
3290,G7,487.167,167/1000,50,170.5
3291,B-6,487.333,167/1000,54,170.5
3292,D7,487.5,167/1000,50,170.5
3293,G#4,487.5,0.5,32,170.5
3294,B-3,487.5,0.5,32,170.5
3295,D4,487.5,0.5,32,170.5
3296,E-7,487.667,167/1000,54,170.5
3297,G6,487.833,167/1000,50,170.5
3298,F#7,488.0,167/1000,54,170.5
3299,E-2,488.0,0.5,35,170.5
3300,G7,488.167,167/1000,50,170.5
3301,B-6,488.333,167/1000,54,170.5
3302,D7,488.5,167/1000,50,170.5
3303,G#4,488.5,0.5,33,170.5
3304,D4,488.5,0.5,33,170.5
3305,B-3,488.5,0.5,33,170.5
3306,E-7,488.667,167/1000,55,170.5
3307,G6,488.833,167/1000,50,170.5
3308,E7,489.0,167/1000,55,170.5
3309,F7,489.167,167/1000,50,170.5
3310,B-6,489.333,167/1000,54,170.5
3311,C#7,489.5,167/1000,50,170.5
3312,B-3,489.5,0.5,32,170.5
3313,E-4,489.5,0.5,32,170.5
3314,G4,489.5,0.5,32,170.5
3315,D7,489.667,167/1000,54,170.5
3316,F6,489.833,167/1000,50,170.5
3317,E7,490.0,167/1000,54,170.5
3318,E-2,490.0,0.5,35,170.5
3319,F7,490.167,167/1000,50,170.5
3320,B-6,490.333,167/1000,54,170.5
3321,C#7,490.5,167/1000,50,170.5
3322,G4,490.5,0.5,33,170.5
3323,E-4,490.5,0.5,33,170.5
3324,B-3,490.5,0.5,33,170.5
3325,D7,490.667,167/1000,55,170.5
3326,F6,490.833,167/1000,50,170.5
3327,F#7,491.0,167/1000,55,170.5
3328,G7,491.167,167/1000,50,170.5
3329,B-6,491.333,167/1000,54,170.5
3330,D7,491.5,167/1000,50,170.5
3331,G#4,491.5,0.5,32,170.5
3332,B-3,491.5,0.5,32,170.5
3333,D4,491.5,0.5,32,170.5
3334,E-7,491.667,167/1000,54,170.5
3335,G6,491.833,167/1000,50,170.5
3336,F#7,492.0,167/1000,54,170.5
3337,E-2,492.0,0.5,35,170.5
3338,G7,492.167,167/1000,50,170.5
3339,B-6,492.333,167/1000,54,170.5
3340,D7,492.5,167/1000,50,170.5
3341,G#4,492.5,0.5,33,170.5
3342,D4,492.5,0.5,33,170.5
3343,B-3,492.5,0.5,33,170.5
3344,E-7,492.667,167/1000,55,170.5
3345,G6,492.833,167/1000,50,170.5
3346,E7,493.0,167/1000,55,170.5
3347,F7,493.167,167/1000,50,170.5
3348,B-6,493.333,167/1000,54,170.5
3349,C#7,493.5,167/1000,50,170.5
3350,B-3,493.5,0.5,32,170.5
3351,E-4,493.5,0.5,32,170.5
3352,G4,493.5,0.5,32,170.5
3353,D7,493.667,167/1000,54,170.5
3354,F6,493.833,167/1000,50,170.5
3355,E7,494.0,167/1000,54,170.5
3356,E-2,494.0,0.5,35,170.5
3357,F7,494.167,167/1000,50,170.5
3358,B-6,494.333,167/1000,54,170.5
3359,C#7,494.5,167/1000,50,170.5
3360,G4,494.5,0.5,33,170.5
3361,E-4,494.5,0.5,33,170.5
3362,B-3,494.5,0.5,33,170.5
3363,D7,494.667,167/1000,55,170.5
3364,F6,494.833,167/1000,50,170.5
3365,F#7,495.0,167/1000,55,170.5
3366,G7,495.167,167/1000,50,170.5
3367,B-6,495.333,167/1000,54,170.5
3368,D7,495.5,167/1000,50,170.5
3369,G#4,495.5,0.5,32,170.5
3370,B-3,495.5,0.5,32,170.5
3371,D4,495.5,0.5,32,170.5
3372,E-7,495.667,167/1000,54,170.5
3373,G6,495.833,167/1000,50,170.5
3374,F#7,496.0,167/1000,54,170.5
3375,E-2,496.0,0.5,35,170.5
3376,G7,496.167,167/1000,50,170.5
3377,B-6,496.333,167/1000,54,170.5
3378,D7,496.5,167/1000,50,170.5
3379,G#4,496.5,0.5,33,170.5
3380,D4,496.5,0.5,33,170.5
3381,B-3,496.5,0.5,33,170.5
3382,E-7,496.667,167/1000,55,170.5
3383,G6,496.833,167/1000,50,170.5
3384,E7,497.0,167/1000,55,170.5
3385,F7,497.167,167/1000,50,170.5
3386,B-6,497.333,167/1000,54,170.5
3387,C#7,497.5,167/1000,50,170.5
3388,B-3,497.5,0.5,32,170.5
3389,E-4,497.5,0.5,32,170.5
3390,G4,497.5,0.5,32,170.5
3391,D7,497.667,167/1000,54,170.5
3392,F6,497.833,167/1000,50,170.5
3393,E7,498.0,167/1000,54,170.5
3394,E-2,498.0,0.5,35,170.5
3395,F7,498.167,167/1000,50,170.5
3396,B-6,498.333,167/1000,54,170.5
3397,C#7,498.5,167/1000,50,170.5
3398,G4,498.5,0.5,33,170.5
3399,E-4,498.5,0.5,33,170.5
3400,B-3,498.5,0.5,33,170.5
3401,D7,498.667,167/1000,55,170.5
3402,F6,498.833,167/1000,50,170.5
3403,F#7,499.0,0.125,50,170.5
3404,A6,499.0,0.125,50,170.5
3405,B-6,499.125,0.25,55,170.5
3406,G7,499.125,0.25,55,170.5
3407,G#4,499.5,0.5,32,170.5
3408,B-3,499.5,0.5,32,170.5
3409,D4,499.5,0.5,32,170.5
3410,E-2,500.0,0.5,35,170.5
3411,D5,500.0,0.125,47,170.5
3412,F#4,500.0,0.125,47,170.5
3413,G4,500.125,0.25,52,170.5
3414,E-5,500.125,0.25,52,170.5
3415,G#4,500.5,0.5,33,170.5
3416,D4,500.5,0.5,33,170.5
3417,B-3,500.5,0.5,33,170.5
3418,D6,501.0,0.125,45,170.5
3419,F5,501.0,0.125,45,170.5
3420,F6,501.125,0.25,51,170.5
3421,G#5,501.125,0.25,51,170.5
3422,B-3,501.938,1.062,32,170.5
3423,E-2,502.0,1.0,33,170.5
3424,D4,502.0,0.125,46,170.5
3425,B4,502.0,0.125,46,170.5
3426,F4,502.125,0.25,52,170.5
3427,D5,502.125,0.25,52,170.5
3428,F2,502.938,0.062,30,170.5
3429,C5,503.0,0.125,36,170.5
3430,G#3,503.0,1.0,33,170.5
3431,F2,503.0,1.0,30,170.5
3432,D5,503.125,0.125,33,170.5
3433,C5,503.25,0.125,37,170.5
3434,D5,503.375,0.125,33,170.5
3435,C5,503.5,0.125,37,170.5
3436,D5,503.625,0.125,33,170.5
3437,C5,503.75,0.125,37,170.5
3438,D5,503.875,0.125,33,170.5
3439,G2,503.938,0.938,30,170.5
3440,C5,504.0,0.125,37,170.5
3441,B3,504.0,0.875,33,170.5
3442,D5,504.125,0.125,33,170.5
3443,C5,504.25,0.125,37,170.5
3444,D5,504.375,0.125,33,170.5
3445,C5,504.5,0.125,37,170.5
3446,D5,504.625,0.125,33,170.5
3447,C5,504.75,0.125,37,170.5
3448,D5,504.875,0.125,33,170.5
3449,C3,504.875,0.125,33,170.5
3450,G3,504.938,0.062,33,170.5
3451,B4,505.0,0.125,38,170.5
3452,E-4,505.0,2.0,33,170.5
3453,C3,505.0,2.0,33,170.5
3454,G3,505.0,2.0,33,170.5
3455,C5,505.125,0.125,33,170.5
3456,D5,505.25,0.125,34,170.5
3457,E-5,505.375,0.125,34,170.5
3458,D5,505.5,0.125,41,170.5
3459,E-5,505.625,0.125,36,170.5
3460,F#5,505.75,0.125,37,170.5
3461,G5,505.875,0.125,44,170.5
3462,F#5,506.0,0.125,38,170.5
3463,G5,506.125,0.125,39,170.5
3464,B5,506.25,0.125,39,170.5
3465,C6,506.375,0.125,40,170.5
3466,B5,506.5,0.125,47,170.5
3467,C6,506.625,0.125,42,170.5
3468,D6,506.75,0.125,42,170.5
3469,E-6,506.875,0.125,43,170.5
3470,D6,507.0,0.125,51,170.5
3471,E-6,507.125,0.125,45,170.5
3472,F#6,507.25,0.125,45,170.5
3473,G6,507.375,0.125,54,170.5
3474,F#6,507.5,0.125,47,170.5
3475,G6,507.625,0.125,47,170.5
3476,B6,507.75,0.125,48,170.5
3477,C7,507.875,0.125,49,170.5
3478,B6,508.0,0.125,57,170.5
3479,C7,508.125,0.125,50,170.5
3480,D7,508.25,0.125,51,170.5
3481,E-7,508.375,0.125,52,170.5
3482,D7,508.5,0.125,61,170.5
3483,E-7,508.625,0.125,53,170.5
3484,F#7,508.75,0.125,54,170.5
3485,G7,508.875,0.125,65,170.5
3486,B6,509.0,0.125,61,170.5
3487,C7,509.125,0.125,53,170.5
3488,D7,509.25,0.125,53,170.5
3489,E-7,509.375,0.125,53,170.5
3490,F#6,509.5,0.125,54,170.5
3491,G6,509.625,0.125,48,170.5
3492,B6,509.75,0.125,49,170.5
3493,C7,509.875,0.125,49,170.5
3494,D6,510.0,0.125,51,170.5
3495,E-6,510.125,0.125,45,170.5
3496,F#6,510.25,0.125,45,170.5
3497,G6,510.375,0.125,45,170.5
3498,B5,510.5,0.125,47,170.5
3499,C6,510.625,0.125,42,170.5
3500,D6,510.75,0.125,42,170.5
3501,E-6,510.875,0.125,43,170.5
3502,F#5,511.0,0.125,44,170.5
3503,G5,511.125,0.125,39,170.5
3504,B5,511.25,0.125,40,170.5
3505,C6,511.375,0.125,40,170.5
3506,D5,511.5,0.125,40,170.5
3507,E-5,511.625,0.125,36,170.5
3508,F#5,511.75,0.125,37,170.5
3509,G5,511.875,0.125,36,170.5
3510,B4,512.0,0.125,41,170.5
3511,C5,512.125,0.125,38,170.5
3512,D5,512.25,0.125,40,170.5
3513,E-5,512.375,0.125,41,170.5
3514,F#4,512.5,0.125,43,170.5
3515,G4,512.625,0.125,44,170.5
3516,B4,512.75,0.125,46,170.5
3517,C5,512.875,0.125,47,170.5
3518,B4,513.0,0.125,49,170.5
3519,C5,513.125,0.125,49,170.5
3520,D5,513.25,0.125,51,170.5
3521,E-5,513.375,0.125,53,170.5
3522,D5,513.5,0.125,55,170.5
3523,E-5,513.625,0.125,57,170.5
3524,F#5,513.75,0.125,59,170.5
3525,G5,513.875,0.125,61,170.5
3526,B4,514.0,0.125,41,170.5
3527,C5,514.125,0.125,38,170.5
3528,D5,514.25,0.125,40,170.5
3529,E-5,514.375,0.125,41,170.5
3530,F#4,514.5,0.125,43,170.5
3531,G4,514.625,0.125,44,170.5
3532,B4,514.75,0.125,46,170.5
3533,C5,514.875,0.125,47,170.5
3534,B4,515.0,0.125,49,170.5
3535,C5,515.125,0.125,49,170.5
3536,D5,515.25,0.125,51,170.5
3537,E-5,515.375,0.125,53,170.5
3538,D5,515.5,0.125,55,170.5
3539,E-5,515.625,0.125,57,170.5
3540,F#5,515.75,0.125,59,170.5
3541,G5,515.875,0.125,61,170.5
3542,B4,516.0,0.125,54,170.5
3543,C5,516.125,0.125,49,170.5
3544,D5,516.25,0.125,47,170.5
3545,E-5,516.375,0.125,47,170.5
3546,F#4,516.5,0.125,47,170.5
3547,G4,516.625,0.125,53,170.5
3548,B4,516.75,0.125,45,170.5
3549,C5,516.875,0.125,45,170.5
3550,D4,517.0,0.125,50,170.5
3551,E-4,517.125,0.125,41,170.5
3552,F#4,517.25,0.125,41,170.5
3553,G4,517.375,0.125,41,170.5
3554,F#4,517.5,0.125,46,170.5
3555,G4,517.625,0.125,43,170.5
3556,B4,517.75,0.125,43,170.5
3557,C5,517.875,0.125,43,170.5
3558,F4,518.188,0.812,43,170.5
3559,C5,518.25,0.75,43,170.5
3560,F5,518.312,0.188,43,170.5
3561,E5,518.5,167/1000,43,170.5
3562,F5,518.667,167/1000,42,170.5
3563,G5,518.833,167/1000,43,170.5
3564,F5,519.0,0.125,48,170.5
3565,G5,519.125,0.125,43,170.5
3566,F5,519.25,0.125,47,170.5
3567,G5,519.375,0.125,43,170.5
3568,F5,519.5,0.125,47,170.5
3569,G5,519.625,0.125,43,170.5
3570,F5,519.75,0.125,50,170.5
3571,G5,519.875,0.125,43,170.5
3572,F5,520.0,0.125,49,170.5
3573,G#2,520.0,1.0,43,170.5
3574,F3,520.062,0.938,43,170.5
3575,G5,520.125,0.125,43,170.5
3576,C4,520.125,0.875,43,170.5
3577,F5,520.25,0.125,48,170.5
3578,G5,520.375,0.125,43,170.5
3579,F5,520.5,0.125,46,170.5
3580,G5,520.625,0.125,43,170.5
3581,F5,520.75,0.125,49,170.5
3582,G5,520.875,0.125,43,170.5
3583,E5,521.0,0.5,47,170.5
3584,F5,521.5,0.5,47,170.5
3585,D6,522.0,169/1000,58,170.5
3586,C#6,522.169,167/1000,56,170.5
3587,C6,522.333,169/1000,55,170.5
3588,B5,522.5,167/1000,54,170.5
3589,B-5,522.667,167/1000,53,170.5
3590,A5,522.833,167/1000,52,170.5
3591,G#5,523.004,167/1000,51,170.5
3592,G5,523.167,169/1000,50,170.5
3593,F#5,523.34,167/1000,49,170.5
3594,F5,523.5,167/1000,49,170.5
3595,B4,523.667,167/1000,48,170.5
3596,C5,523.833,167/1000,46,170.5
3597,F5,524.0,167/1000,45,170.5
3598,E5,524.167,167/1000,44,170.5
3599,E-5,524.333,0.062,43,170.5
3600,E-5,524.417,83/1000,43,170.5
3601,D4,524.688,1.312,47,170.5
3602,G#4,524.75,1.25,49,170.5
3603,D5,524.812,1.188,51,170.5
3604,D4,526.0,0.188,46,170.5
3605,G#4,526.062,0.125,50,170.5
3606,F5,526.125,0.062,58,170.5
3607,B-2,526.5,1.5,37,170.5
3608,E-5,526.5,0.125,52,170.5
3609,G4,526.5,0.125,52,170.5
3610,F3,526.562,1.438,38,170.5
3611,B-3,526.625,1.375,39,170.5
3612,F5,526.75,0.125,45,170.5
3613,B-4,526.75,0.125,45,170.5
3614,G5,527.0,0.125,46,170.5
3615,E-5,527.0,0.125,46,170.5
3616,G#5,527.25,0.125,40,170.5
3617,F5,527.25,0.125,40,170.5
3618,C6,527.438,0.062,56,170.5
3619,B-5,527.5,0.125,46,170.5
3620,G5,527.5,0.125,46,170.5
3621,A5,527.875,0.125,42,170.5
3622,F#5,527.875,0.125,42,170.5
3623,B-1,528.0,0.188,35,170.5
3624,B-5,528.0,0.125,54,170.5
3625,G5,528.0,0.125,54,170.5
3626,E-2,528.5,0.125,43,170.5
3627,E-4,528.75,0.125,51,170.5
3628,C5,528.75,0.125,51,170.5
3629,B-2,529.0,0.125,46,170.5
3630,E-5,529.25,0.125,47,170.5
3631,C6,529.25,0.125,47,170.5
3632,G3,529.5,0.125,51,170.5
3633,C6,529.5,0.125,56,170.5
3634,E-5,529.5,0.125,56,170.5
3635,E-4,530.0,0.125,68,170.5
3636,G#3,530.5,0.125,68,170.5
3637,E-4,530.75,0.125,51,170.5
3638,B-4,530.75,0.125,51,170.5
3639,C5,531.0,0.125,40,170.5
3640,G#4,531.0,0.125,40,170.5
3641,E-5,531.25,0.125,47,170.5
3642,B-5,531.25,0.125,47,170.5
3643,B-5,531.5,0.125,56,170.5
3644,E-5,531.5,0.125,56,170.5
3645,G5,531.75,0.125,55,170.5
3646,B5,531.75,0.125,55,170.5
3647,G#5,532.0,0.125,59,170.5
3648,C6,532.0,0.125,59,170.5
3649,G3,532.5,0.125,68,170.5
3650,D4,532.75,0.125,51,170.5
3651,G#4,532.75,0.125,51,170.5
3652,B-4,533.0,0.125,40,170.5
3653,G4,533.0,0.125,40,170.5
3654,D5,533.25,0.125,47,170.5
3655,G#5,533.25,0.125,47,170.5
3656,G#5,533.5,0.125,56,170.5
3657,D5,533.5,0.125,56,170.5
3658,F#5,533.75,0.125,55,170.5
3659,A5,533.75,0.125,55,170.5
3660,G5,534.0,0.125,59,170.5
3661,B-5,534.0,0.125,59,170.5
3662,F3,534.5,0.125,68,170.5
3663,E-4,534.75,0.125,51,170.5
3664,G4,534.75,0.125,51,170.5
3665,G#4,535.0,0.125,40,170.5
3666,F4,535.0,0.125,40,170.5
3667,E-5,535.25,0.125,47,170.5
3668,G5,535.25,0.125,47,170.5
3669,G5,535.5,0.125,56,170.5
3670,E-5,535.5,0.125,56,170.5
3671,E5,535.75,0.125,55,170.5
3672,G5,535.75,0.125,55,170.5
3673,F5,536.0,0.125,59,170.5
3674,G#5,536.0,0.125,59,170.5
3675,E-3,536.5,0.125,68,170.5
3676,G#5,536.5,0.125,48,170.5
3677,C5,536.5,0.125,48,170.5
3678,G5,536.75,0.125,43,170.5
3679,B-4,536.75,0.125,43,170.5
3680,F5,537.0,0.125,43,170.5
3681,G#4,537.0,0.125,43,170.5
3682,G4,537.0,0.125,40,170.5
3683,E-4,537.0,0.125,40,170.5
3684,E-5,537.25,0.125,43,170.5
3685,G4,537.25,0.125,43,170.5
3686,D5,537.5,0.125,48,170.5
3687,F4,537.5,0.125,48,170.5
3688,B-4,537.75,0.125,42,170.5
3689,D4,537.75,0.125,42,170.5
3690,D5,537.75,0.125,55,170.5
3691,F#5,537.75,0.125,55,170.5
3692,C5,538.0,0.125,42,170.5
3693,E-4,538.0,0.125,42,170.5
3694,E-5,538.0,0.125,59,170.5
3695,G5,538.0,0.125,59,170.5
3696,D5,538.25,0.125,42,170.5
3697,F4,538.25,0.125,42,170.5
3698,B-2,538.5,0.125,48,170.5
3699,E-5,538.5,0.125,52,170.5
3700,G4,538.5,0.125,52,170.5
3701,F5,538.75,0.125,45,170.5
3702,B-4,538.75,0.125,45,170.5
3703,D4,539.0,0.125,42,170.5
3704,G5,539.0,0.125,46,170.5
3705,E-5,539.0,0.125,46,170.5
3706,G#5,539.25,0.125,40,170.5
3707,F5,539.25,0.125,40,170.5
3708,C6,539.438,0.062,56,170.5
3709,B-2,539.5,0.125,47,170.5
3710,B-5,539.5,0.125,46,170.5
3711,G5,539.5,0.125,46,170.5
3712,F#5,539.75,0.125,42,170.5
3713,A5,539.75,0.125,42,170.5
3714,G#3,540.0,0.125,40,170.5
3715,B-5,540.0,0.125,54,170.5
3716,G5,540.0,0.125,54,170.5
3717,E-2,540.5,0.125,43,170.5
3718,E-5,540.75,0.125,51,170.5
3719,C6,540.75,0.125,51,170.5
3720,B-2,541.0,0.125,46,170.5
3721,E-6,541.25,0.125,47,170.5
3722,C7,541.25,0.125,47,170.5
3723,G3,541.5,0.125,51,170.5
3724,C7,541.5,0.125,56,170.5
3725,E-6,541.5,0.125,56,170.5
3726,E-4,542.0,0.125,68,170.5
3727,G#4,542.5,0.125,68,170.5
3728,E-5,542.75,0.125,51,170.5
3729,B-5,542.75,0.125,51,170.5
3730,C6,543.0,0.125,40,170.5
3731,G#5,543.0,0.125,40,170.5
3732,E-6,543.25,0.125,47,170.5
3733,B-6,543.25,0.125,47,170.5
3734,B-6,543.5,0.125,56,170.5
3735,E-6,543.5,0.125,56,170.5
3736,G6,543.75,0.125,55,170.5
3737,B6,543.75,0.125,55,170.5
3738,G#6,544.0,0.125,59,170.5
3739,C7,544.0,0.125,59,170.5
3740,G4,544.5,0.125,68,170.5
3741,D5,544.75,0.125,51,170.5
3742,G#5,544.75,0.125,51,170.5
3743,B-5,545.0,0.125,40,170.5
3744,G5,545.0,0.125,40,170.5
3745,D6,545.25,0.125,47,170.5
3746,G#6,545.25,0.125,47,170.5
3747,G#6,545.5,0.125,56,170.5
3748,D6,545.5,0.125,56,170.5
3749,F#6,545.75,0.125,55,170.5
3750,A6,545.75,0.125,55,170.5
3751,G6,546.0,0.125,59,170.5
3752,B-6,546.0,0.125,59,170.5
3753,F4,546.5,0.125,68,170.5
3754,E-5,546.75,0.125,51,170.5
3755,G5,546.75,0.125,51,170.5
3756,G#5,547.0,0.125,40,170.5
3757,F5,547.0,0.125,40,170.5
3758,E-6,547.25,0.125,47,170.5
3759,G6,547.25,0.125,47,170.5
3760,G6,547.5,0.125,56,170.5
3761,E-6,547.5,0.125,56,170.5
3762,E6,547.75,0.125,55,170.5
3763,G6,547.75,0.125,55,170.5
3764,F6,548.0,0.125,59,170.5
3765,G#6,548.0,0.125,59,170.5
3766,E-4,548.5,0.125,68,170.5
3767,G#6,548.5,0.125,48,170.5
3768,C6,548.5,0.125,48,170.5
3769,G6,548.75,0.125,43,170.5
3770,B-5,548.75,0.125,43,170.5
3771,F6,549.0,0.125,43,170.5
3772,G#5,549.0,0.125,43,170.5
3773,G5,549.0,0.125,40,170.5
3774,E-5,549.0,0.125,40,170.5
3775,E-6,549.25,0.125,43,170.5
3776,G5,549.25,0.125,43,170.5
3777,D6,549.5,0.125,48,170.5
3778,F5,549.5,0.125,48,170.5
3779,B-5,549.75,0.125,42,170.5
3780,D5,549.75,0.125,42,170.5
3781,D6,549.75,0.125,55,170.5
3782,F#6,549.75,0.125,55,170.5
3783,C6,550.0,0.125,42,170.5
3784,E-5,550.0,0.125,42,170.5
3785,E-6,550.0,0.125,59,170.5
3786,G6,550.0,0.125,59,170.5
3787,D6,550.25,0.125,42,170.5
3788,F5,550.25,0.125,42,170.5
3789,B-3,550.5,0.125,48,170.5
3790,E-6,550.5,0.125,52,170.5
3791,G5,550.5,0.125,52,170.5
3792,F6,550.75,0.125,45,170.5
3793,B-5,550.75,0.125,45,170.5
3794,D5,551.0,0.125,42,170.5
3795,G6,551.0,0.125,46,170.5
3796,E-6,551.0,0.125,46,170.5
3797,G#6,551.25,0.125,40,170.5
3798,F6,551.25,0.125,40,170.5
3799,B-3,551.5,0.125,47,170.5
3800,B-6,551.5,0.125,46,170.5
3801,G6,551.5,0.125,46,170.5
3802,F#6,551.75,0.125,42,170.5
3803,A6,551.75,0.125,42,170.5
3804,G#4,552.0,0.125,40,170.5
3805,C7,552.0,0.125,50,170.5
3806,G#6,552.0,0.125,50,170.5
3807,G6,552.25,0.125,42,170.5
3808,B-6,552.25,0.125,42,170.5
3809,E-3,552.5,0.125,43,170.5
3810,G#6,552.5,0.125,48,170.5
3811,C6,552.5,0.125,48,170.5
3812,G6,552.75,0.125,43,170.5
3813,B-5,552.75,0.125,43,170.5
3814,B-3,553.0,0.125,41,170.5
3815,F6,553.0,0.125,43,170.5
3816,G#5,553.0,0.125,43,170.5
3817,E-6,553.25,0.125,44,170.5
3818,G5,553.25,0.125,44,170.5
3819,G4,553.5,0.125,48,170.5
3820,D6,553.5,0.125,50,170.5
3821,F5,553.5,0.125,50,170.5
3822,B-5,553.75,0.125,43,170.5
3823,D5,553.75,0.125,43,170.5
3824,E-5,554.0,0.125,51,170.5
3825,C6,554.0,0.125,44,170.5
3826,E-5,554.0,0.125,44,170.5
3827,D6,554.25,0.125,44,170.5
3828,F5,554.25,0.125,44,170.5
3829,B-3,554.5,0.125,48,170.5
3830,E-6,554.5,0.125,56,170.5
3831,G5,554.5,0.125,56,170.5
3832,F6,554.75,0.125,49,170.5
3833,B-5,554.75,0.125,49,170.5
3834,D5,555.0,0.125,42,170.5
3835,G6,555.0,0.125,50,170.5
3836,E-6,555.0,0.125,50,170.5
3837,G#6,555.25,0.125,45,170.5
3838,F6,555.25,0.125,45,170.5
3839,B-3,555.5,0.125,48,170.5
3840,B-6,555.5,0.125,52,170.5
3841,G6,555.5,0.125,52,170.5
3842,F#6,555.75,0.125,47,170.5
3843,A6,555.75,0.125,47,170.5
3844,G#4,556.0,0.125,42,170.5
3845,C7,556.0,0.125,58,170.5
3846,G#6,556.0,0.125,58,170.5
3847,G6,556.25,0.125,48,170.5
3848,B-6,556.25,0.125,48,170.5
3849,E-3,556.5,0.125,46,170.5
3850,G#6,556.5,0.125,56,170.5
3851,C6,556.5,0.125,56,170.5
3852,G6,556.75,0.125,51,170.5
3853,B-5,556.75,0.125,51,170.5
3854,B-3,557.0,0.125,46,170.5
3855,F6,557.0,0.125,52,170.5
3856,G#5,557.0,0.125,52,170.5
3857,E-6,557.25,0.125,52,170.5
3858,G5,557.25,0.125,52,170.5
3859,G4,557.5,0.125,51,170.5
3860,D6,557.5,0.125,58,170.5
3861,F5,557.5,0.125,58,170.5
3862,E-5,558.0,0.125,57,170.5
3863,B-4,558.0,0.25,56,170.5
3864,B-5,558.0,0.25,56,170.5
3865,B4,558.25,0.25,56,170.5
3866,B5,558.25,0.25,56,170.5
3867,B-3,558.5,0.125,57,170.5
3868,C5,558.5,0.25,58,170.5
3869,C6,558.5,0.25,58,170.5
3870,C#5,558.75,0.25,54,170.5
3871,C#6,558.75,0.25,54,170.5
3872,D5,559.0,0.25,54,170.5
3873,D6,559.0,0.25,54,170.5
3874,F4,559.0,0.125,46,170.5
3875,D5,559.0,0.125,46,170.5
3876,E-5,559.25,0.25,54,170.5
3877,E-6,559.25,0.25,54,170.5
3878,D6,559.5,0.25,58,170.5
3879,D5,559.5,0.25,58,170.5
3880,E-6,559.75,0.25,54,170.5
3881,E-5,559.75,0.25,54,170.5
3882,E6,560.0,0.25,54,170.5
3883,E5,560.0,0.25,54,170.5
3884,G#3,560.0,0.25,45,170.5
3885,G#4,560.0,0.25,45,170.5
3886,F5,560.25,0.25,54,170.5
3887,F6,560.25,0.25,54,170.5
3888,G4,560.25,0.25,45,170.5
3889,G3,560.25,0.25,45,170.5
3890,E5,560.5,0.25,64,170.5
3891,E6,560.5,0.25,64,170.5
3892,F#4,560.5,0.25,52,170.5
3893,F#3,560.5,0.25,52,170.5
3894,F5,560.75,0.25,57,170.5
3895,F6,560.75,0.25,57,170.5
3896,F4,560.75,0.25,48,170.5
3897,F3,560.75,0.25,48,170.5
3898,F#5,561.0,0.25,57,170.5
3899,F#6,561.0,0.25,57,170.5
3900,E4,561.0,0.25,48,170.5
3901,E3,561.0,0.25,48,170.5
3902,G5,561.25,0.25,57,170.5
3903,G6,561.25,0.25,57,170.5
3904,E-4,561.25,0.25,48,170.5
3905,E-3,561.25,0.25,48,170.5
3906,F#5,561.5,0.25,64,170.5
3907,F#6,561.5,0.25,64,170.5
3908,D4,561.5,0.25,54,170.5
3909,D3,561.5,0.25,54,170.5
3910,G5,561.75,0.25,59,170.5
3911,G6,561.75,0.25,59,170.5
3912,C#4,561.75,0.25,49,170.5
3913,C#3,561.75,0.25,49,170.5
3914,G#5,562.0,0.25,59,170.5
3915,G#6,562.0,0.25,59,170.5
3916,C4,562.0,0.25,49,170.5
3917,C3,562.0,0.25,49,170.5
3918,A5,562.25,0.25,59,170.5
3919,A6,562.25,0.25,59,170.5
3920,B2,562.25,0.25,49,170.5
3921,B3,562.25,0.25,49,170.5
3922,G#5,562.5,0.25,68,170.5
3923,G#6,562.5,0.25,68,170.5
3924,B-3,562.5,0.25,54,170.5
3925,B-2,562.5,0.25,54,170.5
3926,A5,562.75,0.25,58,170.5
3927,A6,562.75,0.25,58,170.5
3928,A3,562.75,0.25,50,170.5
3929,A2,562.75,0.25,50,170.5
3930,B-5,563.0,0.25,59,170.5
3931,B-6,563.0,0.25,59,170.5
3932,G#2,563.0,0.25,50,170.5
3933,G#3,563.0,0.25,50,170.5
3934,B5,563.25,0.25,59,170.5
3935,B6,563.25,0.25,59,170.5
3936,G3,563.25,0.25,50,170.5
3937,G2,563.25,0.25,50,170.5
3938,B-5,563.5,0.25,70,170.5
3939,B-6,563.5,0.25,70,170.5
3940,F#2,563.5,0.25,50,170.5
3941,F#3,563.5,0.25,50,170.5
3942,B5,563.75,0.25,65,170.5
3943,B6,563.75,0.25,65,170.5
3944,F2,563.75,0.25,58,170.5
3945,F3,563.75,0.25,58,170.5
3946,C6,564.0,0.25,70,170.5
3947,C7,564.0,0.25,70,170.5
3948,E2,564.0,0.25,52,170.5
3949,E3,564.0,0.25,52,170.5
3950,C#6,564.25,0.25,76,170.5
3951,C#7,564.25,0.25,76,170.5
3952,E-2,564.25,0.25,52,170.5
3953,E-3,564.25,0.25,52,170.5
3954,D7,564.5,0.5,84,170.5
3955,D6,564.5,0.5,84,170.5
3956,B-6,564.5,0.5,84,170.5
3957,D2,564.5,0.25,61,170.5
3958,D3,564.5,0.25,61,170.5
3959,C#2,564.75,0.25,54,170.5
3960,C#3,564.75,0.25,54,170.5
3961,D7,565.0,0.5,76,170.5
3962,D6,565.0,0.5,76,170.5
3963,B-6,565.0,0.5,76,170.5
3964,C2,565.0,0.25,56,170.5
3965,C3,565.0,0.25,56,170.5
3966,B1,565.25,0.25,56,170.5
3967,B2,565.25,0.25,56,170.5
3968,C7,565.5,0.5,84,170.5
3969,C6,565.5,0.5,84,170.5
3970,G#6,565.5,0.5,84,170.5
3971,B-1,565.5,0.5,65,170.5
3972,B-2,565.5,0.5,65,170.5
3973,C7,566.0,0.5,79,170.5
3974,C6,566.0,0.5,79,170.5
3975,G#6,566.0,0.5,79,170.5
3976,A1,566.0,0.5,66,170.5
3977,A2,566.0,0.5,66,170.5
3978,G6,566.5,0.5,83,170.5
3979,G5,566.5,0.5,83,170.5
3980,E-6,566.5,0.5,83,170.5
3981,G#2,566.5,0.5,72,170.5
3982,G#1,566.5,0.5,72,170.5
3983,B-6,567.0,0.5,74,170.5
3984,B-5,567.0,0.5,74,170.5
3985,G6,567.0,0.5,74,170.5
3986,F4,567.0,0.5,63,170.5
3987,C4,567.0,0.5,63,170.5
3988,F3,567.0,0.5,63,170.5
3989,B-6,567.5,0.25,79,170.5
3990,B-5,567.5,0.25,79,170.5
3991,G6,567.5,0.25,79,170.5
3992,B-2,567.5,0.5,72,170.5
3993,B-1,567.5,0.5,72,170.5
3994,A5,567.75,0.25,71,170.5
3995,F#6,567.75,0.25,71,170.5
3996,A6,567.75,0.25,71,170.5
3997,B-6,568.0,0.5,79,170.5
3998,B-5,568.0,0.5,79,170.5
3999,G6,568.0,0.5,79,170.5
4000,F4,568.0,0.5,64,170.5
4001,D4,568.0,0.5,64,170.5
4002,F3,568.0,0.5,64,170.5
4003,F6,568.5,0.25,76,170.5
4004,F5,568.5,0.25,76,170.5
4005,E-3,568.5,0.5,72,170.5
4006,E-2,568.5,0.5,72,170.5
4007,G6,568.75,0.25,74,170.5
4008,G5,568.75,0.25,74,170.5
4009,G#6,569.0,0.25,74,170.5
4010,G#5,569.0,0.25,74,170.5
4011,G4,569.0,0.5,64,170.5
4012,E-4,569.0,0.5,64,170.5
4013,G3,569.0,0.5,64,170.5
4014,C7,569.25,0.25,74,170.5
4015,C6,569.25,0.25,74,170.5
4016,B-6,569.5,0.25,76,170.5
4017,B-5,569.5,0.25,76,170.5
4018,E-3,569.5,0.5,72,170.5
4019,E-2,569.5,0.5,72,170.5
4020,G#6,569.75,0.25,74,170.5
4021,G#5,569.75,0.25,74,170.5
4022,G6,570.0,0.25,74,170.5
4023,G5,570.0,0.25,74,170.5
4024,G4,570.0,0.5,64,170.5
4025,E-4,570.0,0.5,64,170.5
4026,G3,570.0,0.5,64,170.5
4027,F6,570.25,0.25,74,170.5
4028,F5,570.25,0.25,74,170.5
4029,B-6,570.5,0.5,87,170.5
4030,G6,570.5,0.5,87,170.5
4031,B-5,570.5,0.5,87,170.5
4032,F3,570.5,0.5,72,170.5
4033,F2,570.5,0.5,72,170.5
4034,G6,571.0,0.375,79,170.5
4035,B-6,571.0,0.375,79,170.5
4036,B-5,571.0,0.375,79,170.5
4037,F4,571.0,0.5,64,170.5
4038,C4,571.0,0.5,64,170.5
4039,G#3,571.0,0.5,64,170.5
4040,A5,571.375,0.125,75,170.5
4041,F#6,571.375,0.125,75,170.5
4042,A6,571.375,0.125,75,170.5
4043,B-6,571.5,1.0,84,170.5
4044,G6,571.5,1.0,84,170.5
4045,B-5,571.5,1.0,84,170.5
4046,B-2,571.5,0.5,72,170.5
4047,B-1,571.5,0.5,72,170.5
4048,F4,572.0,0.5,64,170.5
4049,D4,572.0,0.5,64,170.5
4050,G#3,572.0,0.5,64,170.5
4051,D7,572.5,0.5,84,170.5
4052,D6,572.5,0.5,84,170.5
4053,B-6,572.5,0.5,84,170.5
4054,E-3,572.5,0.5,72,170.5
4055,E-2,572.5,0.5,72,170.5
4056,D7,573.0,0.5,76,170.5
4057,D6,573.0,0.5,76,170.5
4058,B-6,573.0,0.5,76,170.5
4059,G4,573.0,0.5,64,170.5
4060,E-4,573.0,0.5,64,170.5
4061,G3,573.0,0.5,64,170.5
4062,C7,573.5,0.5,84,170.5
4063,C6,573.5,0.5,84,170.5
4064,G#6,573.5,0.5,84,170.5
4065,E-3,573.5,0.5,72,170.5
4066,E-2,573.5,0.5,72,170.5
4067,C7,574.0,0.5,79,170.5
4068,C6,574.0,0.5,79,170.5
4069,G#6,574.0,0.5,79,170.5
4070,G4,574.0,0.5,64,170.5
4071,E-4,574.0,0.5,64,170.5
4072,G3,574.0,0.5,64,170.5
4073,G6,574.5,0.5,83,170.5
4074,G5,574.5,0.5,83,170.5
4075,E-6,574.5,0.5,83,170.5
4076,G#2,574.5,0.5,72,170.5
4077,G#1,574.5,0.5,72,170.5
4078,B-6,575.0,0.5,74,170.5
4079,B-5,575.0,0.5,74,170.5
4080,G6,575.0,0.5,74,170.5
4081,F4,575.0,0.5,63,170.5
4082,C4,575.0,0.5,63,170.5
4083,F3,575.0,0.5,63,170.5
4084,B-6,575.5,0.25,79,170.5
4085,B-5,575.5,0.25,79,170.5
4086,G6,575.5,0.25,79,170.5
4087,B-2,575.5,0.5,72,170.5
4088,B-1,575.5,0.5,72,170.5
4089,A5,575.75,0.25,71,170.5
4090,F#6,575.75,0.25,71,170.5
4091,A6,575.75,0.25,71,170.5
4092,B-6,576.0,0.5,79,170.5
4093,B-5,576.0,0.5,79,170.5
4094,G6,576.0,0.5,79,170.5
4095,F4,576.0,0.5,64,170.5
4096,D4,576.0,0.5,64,170.5
4097,F3,576.0,0.5,64,170.5
4098,F6,576.5,0.25,65,170.5
4099,F5,576.5,0.25,65,170.5
4100,G#5,576.5,0.25,65,170.5
4101,E-3,576.5,0.5,72,170.5
4102,E-2,576.5,0.5,72,170.5
4103,G6,576.75,0.25,66,170.5
4104,G5,576.75,0.25,66,170.5
4105,B-5,576.75,0.25,66,170.5
4106,G#6,577.0,0.25,68,170.5
4107,G#5,577.0,0.25,68,170.5
4108,B5,577.0,0.25,68,170.5
4109,G4,577.0,0.5,64,170.5
4110,E-4,577.0,0.5,64,170.5
4111,G3,577.0,0.5,64,170.5
4112,C6,577.25,0.25,71,170.5
4113,A6,577.25,0.25,71,170.5
4114,A5,577.25,0.25,71,170.5
4115,B-6,577.5,0.25,72,170.5
4116,C#6,577.5,0.25,72,170.5
4117,B-5,577.5,0.25,72,170.5
4118,E-3,577.5,0.5,72,170.5
4119,E-2,577.5,0.5,72,170.5
4120,B6,577.75,0.25,74,170.5
4121,B5,577.75,0.25,74,170.5
4122,D6,577.75,0.25,74,170.5
4123,C7,578.0,0.25,76,170.5
4124,C6,578.0,0.25,76,170.5
4125,E-6,578.0,0.25,76,170.5
4126,G4,578.0,0.5,64,170.5
4127,E-4,578.0,0.5,64,170.5
4128,G3,578.0,0.5,64,170.5
4129,D7,578.25,0.25,77,170.5
4130,D6,578.25,0.25,77,170.5
4131,F6,578.25,0.25,77,170.5
4132,E-7,578.5,0.125,79,170.5
4133,E-6,578.5,0.125,79,170.5
4134,G6,578.5,0.125,79,170.5
4135,F3,578.5,0.5,72,170.5
4136,F2,578.5,0.5,72,170.5
4137,E-5,579.0,1.0,72,170.5
4138,G5,579.0,1.0,72,170.5
4139,E-6,579.0,1.0,72,170.5
4140,F4,579.0,0.5,64,170.5
4141,C4,579.0,0.5,64,170.5
4142,G#3,579.0,0.5,64,170.5
4143,B-2,579.5,0.5,72,170.5
4144,B-1,579.5,0.5,72,170.5
4145,E-5,580.0,0.25,65,170.5
4146,G5,580.0,0.25,65,170.5
4147,E-6,580.0,0.25,65,170.5
4148,F4,580.0,0.5,64,170.5
4149,D4,580.0,0.5,64,170.5
4150,G#3,580.0,0.5,64,170.5
4151,D4,580.5,0.25,51,170.5
4152,F4,580.5,0.125,63,170.5
4153,E-2,580.5,0.25,72,170.5
4154,E-3,580.5,0.25,72,170.5
4155,G4,580.75,0.125,59,170.5
4156,D4,581.0,1.0,52,170.5
4157,G#4,581.0,0.125,59,170.5
4158,G3,581.0,1.0,63,170.5
4159,B-3,581.0,1.0,63,170.5
4160,E-4,581.0,1.0,63,170.5
4161,G4,581.0,1.0,63,170.5
4162,C5,581.25,0.125,59,170.5
4163,B-4,581.5,0.125,64,170.5
4164,G#4,581.75,0.125,55,170.5
4165,D4,582.0,0.25,50,170.5
4166,G4,582.0,0.125,56,170.5
4167,G3,582.0,0.125,56,170.5
4168,B-3,582.0,0.125,56,170.5
4169,E-4,582.0,0.125,56,170.5
4170,G4,582.0,0.125,56,170.5
4171,F4,582.25,0.125,57,170.5
4172,B-4,582.5,0.125,58,170.5
4173,G4,582.5,0.125,58,170.5
4174,G#3,582.5,0.25,38,170.5
4175,B-3,582.5,0.25,38,170.5
4176,E-3,582.5,0.25,38,170.5
4177,C5,582.938,0.062,57,170.5
4178,G4,583.0,0.125,58,170.5
4179,B-4,583.0,0.125,58,170.5
4180,B-3,583.0,1.0,35,170.5
4181,G#3,583.0,1.0,35,170.5
4182,E-3,583.0,1.0,35,170.5
4183,F#4,583.375,0.125,52,170.5
4184,A4,583.375,0.125,52,170.5
4185,G4,583.5,1.0,57,170.5
4186,B-4,583.5,1.0,57,170.5
4187,B-3,584.0,0.25,35,170.5
4188,G#3,584.0,0.25,35,170.5
4189,E-3,584.0,0.25,35,170.5
4190,C4,584.5,0.25,51,170.5
4191,F4,584.5,0.125,63,170.5
4192,C#4,584.5,0.125,51,170.5
4193,E-3,584.5,0.125,51,170.5
4194,G4,584.75,0.125,59,170.5
4195,C4,585.0,1.0,52,170.5
4196,G#4,585.0,0.125,59,170.5
4197,C#4,585.0,1.0,36,170.5
4198,E-3,585.0,1.0,36,170.5
4199,C5,585.25,0.125,59,170.5
4200,B-4,585.5,0.125,64,170.5
4201,G#4,585.75,0.125,55,170.5
4202,D4,586.0,0.25,50,170.5
4203,G4,586.0,0.125,56,170.5
4204,C#4,586.0,0.25,42,170.5
4205,E-3,586.0,0.25,42,170.5
4206,F4,586.25,0.125,57,170.5
4207,G4,586.5,0.125,58,170.5
4208,E-4,586.5,0.125,58,170.5
4209,G#3,586.5,0.25,40,170.5
4210,E-3,586.5,0.25,40,170.5
4211,B-3,587.0,1.0,49,170.5
4212,E-4,587.0,1.0,49,170.5
4213,G#3,587.0,1.0,36,170.5
4214,E-3,587.0,1.0,36,170.5
4215,D4,587.938,0.062,46,170.5
4216,B-3,588.0,0.25,58,170.5
4217,E-4,588.0,0.25,58,170.5
4218,B3,588.0,0.25,38,170.5
4219,E-3,588.0,0.25,38,170.5
4220,F4,588.5,0.125,58,170.5
4221,F5,588.5,0.125,58,170.5
4222,B-3,588.5,0.125,51,170.5
4223,E-3,588.5,0.125,51,170.5
4224,G4,588.75,0.125,54,170.5
4225,G5,588.75,0.125,54,170.5
4226,G#4,589.0,0.125,54,170.5
4227,G#5,589.0,0.125,54,170.5
4228,G3,589.0,0.875,36,170.5
4229,E-3,589.0,0.875,36,170.5
4230,C5,589.25,0.125,54,170.5
4231,C6,589.25,0.125,54,170.5
4232,B-4,589.5,0.125,59,170.5
4233,B-5,589.5,0.125,59,170.5
4234,G#4,589.75,0.125,50,170.5
4235,G#5,589.75,0.125,50,170.5
4236,F#3,589.938,0.062,37,170.5
4237,G4,590.0,0.125,52,170.5
4238,G5,590.0,0.125,52,170.5
4239,G3,590.0,0.25,42,170.5
4240,E-3,590.0,0.25,42,170.5
4241,F4,590.25,0.125,52,170.5
4242,F5,590.25,0.125,52,170.5
4243,E-2,590.5,0.25,43,170.5
4244,B-5,590.5,0.125,58,170.5
4245,B-4,590.5,0.125,58,170.5
4246,C6,590.938,0.062,57,170.5
4247,B-4,591.0,0.125,58,170.5
4248,B-5,591.0,0.125,58,170.5
4249,G#3,591.0,1.0,35,170.5
4250,D3,591.0,1.0,35,170.5
4251,B-2,591.0,1.0,35,170.5
4252,A4,591.375,0.125,52,170.5
4253,A5,591.375,0.125,52,170.5
4254,B-4,591.5,1.0,57,170.5
4255,B-5,591.5,1.0,57,170.5
4256,G#3,592.0,0.25,35,170.5
4257,D3,592.0,0.25,35,170.5
4258,B-2,592.0,0.25,35,170.5
4259,E-2,592.5,0.125,51,170.5
4260,F4,592.5,0.125,58,170.5
4261,F5,592.5,0.125,58,170.5
4262,G4,592.75,0.125,54,170.5
4263,G5,592.75,0.125,54,170.5
4264,G#4,593.0,0.125,54,170.5
4265,G#5,593.0,0.125,54,170.5
4266,G3,593.0,1.0,35,170.5
4267,B-3,593.0,1.0,35,170.5
4268,C#3,593.0,1.0,35,170.5
4269,C5,593.25,0.125,54,170.5
4270,C6,593.25,0.125,54,170.5
4271,B-4,593.5,0.125,59,170.5
4272,B-5,593.5,0.125,59,170.5
4273,G#4,593.75,0.125,50,170.5
4274,G#5,593.75,0.125,50,170.5
4275,G4,594.0,0.125,52,170.5
4276,G5,594.0,0.125,52,170.5
4277,G3,594.0,0.25,41,170.5
4278,B-3,594.0,0.25,41,170.5
4279,C#3,594.0,0.25,41,170.5
4280,F4,594.25,0.125,52,170.5
4281,F5,594.25,0.125,52,170.5
4282,E-2,594.5,0.25,43,170.5
4283,G5,594.5,0.125,58,170.5
4284,G4,594.5,0.125,58,170.5
4285,E-4,595.0,1.0,49,170.5
4286,E-5,595.0,1.0,49,170.5
4287,C3,595.0,1.0,35,170.5
4288,G#3,595.0,1.0,35,170.5
4289,E-3,595.0,1.0,35,170.5
4290,D5,595.938,0.062,46,170.5
4291,E-4,596.0,0.25,58,170.5
4292,E-5,596.0,0.25,58,170.5
4293,B2,596.0,0.25,36,170.5
4294,G#3,596.0,0.25,36,170.5
4295,E-3,596.0,0.25,36,170.5
4296,F#4,596.438,0.062,36,170.5
4297,E-2,596.5,0.125,51,170.5
4298,G4,596.5,0.125,46,170.5
4299,B3,596.5,0.125,46,170.5
4300,C4,597.0,1.0,38,170.5
4301,E-4,597.0,1.0,38,170.5
4302,G3,597.0,1.0,36,170.5
4303,B-2,597.0,1.0,36,170.5
4304,D4,597.938,0.062,36,170.5
4305,B3,598.0,0.25,46,170.5
4306,E-4,598.0,0.25,46,170.5
4307,G3,598.0,0.25,42,170.5
4308,B-2,598.0,0.25,42,170.5
4309,G6,598.5,0.125,46,170.5
4310,G5,598.5,0.125,46,170.5
4311,G2,598.5,0.125,36,170.5
4312,D3,598.5,0.125,36,170.5
4313,E-5,599.0,1.0,38,170.5
4314,E-6,599.0,1.0,38,170.5
4315,G3,599.0,1.0,28,170.5
4316,C3,599.0,1.0,28,170.5
4317,D6,599.938,0.062,36,170.5
4318,E-5,600.0,0.25,46,170.5
4319,E-6,600.0,0.25,46,170.5
4320,E-3,600.0,0.25,33,170.5
4321,G#2,600.0,0.25,33,170.5
4322,F#4,600.438,0.062,36,170.5
4323,E-2,600.5,0.125,40,170.5
4324,G4,600.5,0.125,46,170.5
4325,B3,600.5,0.125,46,170.5
4326,C4,601.0,1.0,38,170.5
4327,E-4,601.0,1.0,38,170.5
4328,G3,601.0,1.0,28,170.5
4329,B-2,601.0,1.0,28,170.5
4330,D4,601.938,0.062,36,170.5
4331,B3,602.0,0.25,46,170.5
4332,E-4,602.0,0.25,46,170.5
4333,G3,602.0,0.25,33,170.5
4334,B-2,602.0,0.25,33,170.5
4335,G3,602.5,0.125,45,170.5
4336,G4,602.5,0.125,45,170.5
4337,B-3,602.5,0.125,45,170.5
4338,G2,602.5,0.125,36,170.5
4339,D3,602.5,0.125,36,170.5
4340,G3,603.0,1.0,38,170.5
4341,C4,603.0,1.0,38,170.5
4342,E-4,603.0,1.0,38,170.5
4343,G3,603.0,1.0,28,170.5
4344,C3,603.0,1.0,28,170.5
4345,D4,603.938,0.062,36,170.5
4346,G#3,604.0,0.25,45,170.5
4347,B3,604.0,0.25,45,170.5
4348,E-4,604.0,0.25,45,170.5
4349,E-3,604.0,0.25,33,170.5
4350,G#2,604.0,0.25,33,170.5
4351,G3,604.5,0.125,45,170.5
4352,G4,604.5,0.125,45,170.5
4353,B-3,604.5,0.125,45,170.5
4354,E-2,604.5,0.125,36,170.5
4355,E-3,604.5,0.125,36,170.5
4356,G3,605.0,1.0,38,170.5
4357,C4,605.0,1.0,38,170.5
4358,E-4,605.0,1.0,38,170.5
4359,C3,605.0,1.0,28,170.5
4360,C2,605.0,1.0,28,170.5
4361,D4,605.938,0.062,36,170.5
4362,G#3,606.0,0.25,45,170.5
4363,B3,606.0,0.25,45,170.5
4364,E-4,606.0,0.25,45,170.5
4365,G#2,606.0,0.25,33,170.5
4366,G#1,606.0,0.25,33,170.5
4367,G3,606.5,1.0,41,170.5
4368,G4,606.5,1.0,41,170.5
4369,B-3,606.5,1.0,41,170.5
4370,E-2,606.5,0.125,36,170.5
4371,E-3,606.5,0.125,36,170.5
4372,C3,607.0,1.0,28,170.5
4373,C2,607.0,1.0,28,170.5
4374,G3,607.5,1.0,35,170.5
4375,C4,607.5,1.0,35,170.5
4376,E-4,607.5,1.0,35,170.5
4377,G#2,608.0,0.25,33,170.5
4378,G#1,608.0,0.25,33,170.5
4379,E-2,608.5,1.0,36,170.5
4380,E-3,608.5,1.0,36,170.5
4381,D4,609.438,0.062,36,170.5
4382,G#3,609.5,0.875,35,170.5
4383,B3,609.5,0.875,35,170.5
4384,E-4,609.5,0.875,35,170.5
4385,C2,609.5,1.0,26,170.5
4386,C3,609.5,1.0,26,170.5
4387,G3,610.375,0.125,37,170.5
4388,E-4,610.438,0.062,39,170.5
4389,B-4,610.5,2.0,40,170.5
4390,G3,610.5,2.0,37,170.5
4391,E-4,610.5,2.0,39,170.5
4392,G#1,611.5,1.0,26,170.5
4393,G#2,611.5,1.0,26,170.5
4394,E-1,612.5,1.0,22,170.5
4395,E-2,612.5,0.5,31,170.5
4396,G2,613.0,0.25,31,170.5
4397,E-4,613.25,0.25,28,170.5
4398,G#2,613.25,0.25,30,170.5
4399,G4,613.5,0.25,28,170.5
4400,A2,613.5,0.25,30,170.5
4401,G#4,613.75,0.25,27,170.5
4402,B-2,613.75,0.25,30,170.5
4403,A4,614.0,0.25,26,170.5
4404,E-3,614.0,0.25,30,170.5
4405,B-4,614.25,0.25,25,170.5
4406,G3,614.25,0.25,30,170.5
4407,E-5,614.5,0.25,27,170.5
4408,G#3,614.5,0.25,30,170.5
4409,G5,614.75,0.25,27,170.5
4410,A3,614.75,0.25,30,170.5
4411,G#5,615.0,0.25,27,170.5
4412,B-3,615.0,0.25,30,170.5
4413,A5,615.25,0.25,27,170.5
4414,B-5,615.5,0.25,27,170.5
4415,E-6,615.75,0.25,27,170.5
4416,G6,616.0,0.25,27,170.5
4417,G#6,616.25,0.25,27,170.5
4418,A6,616.5,0.25,27,170.5
4419,B-6,616.75,0.25,27,170.5
4420,E-7,617.0,0.25,33,170.5
4421,B-4,620.5,0.75,88,170.5
4422,B-5,620.5,0.75,88,170.5
4423,B-4,621.5,0.188,84,170.5
4424,B-5,621.5,0.188,84,170.5
4425,B-4,622.0,0.188,84,170.5
4426,B-5,622.0,0.188,84,170.5
4427,E-5,622.5,1.5,93,170.5
4428,E-6,622.5,1.5,93,170.5
4429,B-2,622.5,0.75,66,170.5
4430,B-3,622.5,0.75,66,170.5
4431,B-2,623.5,0.188,62,170.5
4432,B-3,623.5,0.188,62,170.5
4433,E-5,624.0,0.188,82,170.5
4434,E-6,624.0,0.188,82,170.5
4435,B-2,624.0,0.188,62,170.5
4436,B-3,624.0,0.188,62,170.5
4437,C#5,624.5,0.188,86,170.5
4438,C#6,624.5,0.188,86,170.5
4439,E-3,624.5,1.5,69,170.5
4440,E-4,624.5,1.5,69,170.5
4441,B4,625.0,0.188,86,170.5
4442,B5,625.0,0.188,86,170.5
4443,B-4,625.5,0.188,85,170.5
4444,B-5,625.5,0.188,85,170.5
4445,G#4,626.0,0.188,88,170.5
4446,G#5,626.0,0.188,88,170.5
4447,E-3,626.0,0.188,60,170.5
4448,E-4,626.0,0.188,60,170.5
4449,B-4,626.5,0.188,87,170.5
4450,B-5,626.5,0.188,87,170.5
4451,C#3,626.5,0.188,64,170.5
4452,C#4,626.5,0.188,64,170.5
4453,E-4,627.0,0.188,82,170.5
4454,E-5,627.0,0.188,82,170.5
4455,B2,627.0,0.188,64,170.5
4456,B3,627.0,0.188,64,170.5
4457,E-4,627.5,1.0,82,170.5
4458,E-5,627.5,1.0,82,170.5
4459,B-2,627.5,0.188,62,170.5
4460,B-3,627.5,0.188,62,170.5
4461,G#2,628.0,0.188,66,170.5
4462,G#3,628.0,0.188,66,170.5
4463,G4,628.5,0.75,62,170.5
4464,B-4,628.5,0.75,62,170.5
4465,B-2,628.5,0.188,65,170.5
4466,B-3,628.5,0.188,65,170.5
4467,E-2,629.0,0.188,62,170.5
4468,E-3,629.0,0.188,62,170.5
4469,G4,629.5,0.188,59,170.5
4470,B-4,629.5,0.188,59,170.5
4471,E-2,629.5,1.0,62,170.5
4472,E-3,629.5,1.0,62,170.5
4473,B-4,630.0,0.188,59,170.5
4474,G4,630.0,0.188,59,170.5
4475,E-4,630.5,0.75,51,170.5
4476,F#4,630.5,1.5,66,170.5
4477,E-5,630.5,1.5,66,170.5
4478,C#4,631.5,0.188,44,170.5
4479,E-4,631.5,0.188,44,170.5
4480,E-5,632.0,0.188,57,170.5
4481,F#4,632.0,0.188,57,170.5
4482,C#4,632.0,0.188,44,170.5
4483,E-4,632.0,0.188,44,170.5
4484,G4,632.5,0.5,56,170.5
4485,C#5,632.5,0.188,66,170.5
4486,B3,632.5,1.5,49,170.5
4487,E-4,632.5,1.5,49,170.5
4488,B-4,633.0,0.188,66,170.5
4489,E-4,633.5,0.5,55,170.5
4490,B4,633.5,0.188,65,170.5
4491,G#4,634.0,0.188,68,170.5
4492,B3,634.0,0.188,42,170.5
4493,E-4,634.0,0.188,42,170.5
4494,E-4,634.5,62/125,56,170.5
4495,B-4,634.5,0.188,67,170.5
4496,E-4,634.5,0.5,55,170.5
4497,B-3,634.5,0.188,49,170.5
4498,E-4,635.0,0.188,63,170.5
4499,C#4,635.0,0.188,49,170.5
4500,G#3,635.5,0.188,48,170.5
4501,B3,636.0,0.188,51,170.5
4502,G3,636.5,0.188,50,170.5
4503,G4,636.5,0.75,62,170.5
4504,B-4,636.5,0.75,62,170.5
4505,B-3,637.0,0.188,47,170.5
4506,E-4,637.5,1.0,57,170.5
4507,G4,637.5,0.188,59,170.5
4508,B-4,637.5,0.188,59,170.5
4509,B-4,638.0,0.188,59,170.5
4510,G4,638.0,0.188,59,170.5
4511,F#4,638.5,1.0,60,170.5
4512,E-5,638.5,1.5,71,170.5
4513,E-4,638.5,0.75,51,170.5
4514,G4,639.485,0.5,60,170.5
4515,C#4,639.5,0.188,44,170.5
4516,E-4,639.5,0.188,44,170.5
4517,E-5,640.0,0.188,57,170.5
4518,G#4,640.0,0.188,57,170.5
4519,C#4,640.0,0.188,44,170.5
4520,E-4,640.0,0.188,44,170.5
4521,C#5,640.5,0.188,66,170.5
4522,E4,640.5,0.5,56,170.5
4523,G#4,640.5,0.5,56,170.5
4524,B3,640.5,1.5,49,170.5
4525,E-4,640.5,1.5,49,170.5
4526,B4,641.0,0.188,66,170.5
4527,B-4,641.5,0.188,65,170.5
4528,C#4,641.5,0.5,55,170.5
4529,G4,641.5,0.5,55,170.5
4530,E-4,642.0,0.188,68,170.5
4531,B3,642.0,0.188,42,170.5
4532,E-4,642.0,0.188,42,170.5
4533,B-3,642.5,0.188,49,170.5
4534,E-4,642.5,0.188,64,170.5
4535,G#4,642.5,0.188,64,170.5
4536,E-4,643.0,0.188,66,170.5
4537,C#4,643.0,0.188,49,170.5
4538,E-3,643.5,0.188,48,170.5
4539,E-4,643.5,0.75,65,170.5
4540,G#4,643.5,0.75,65,170.5
4541,G3,644.0,0.188,51,170.5
4542,B-4,644.5,0.75,88,170.5
4543,B-5,644.5,0.75,88,170.5
4544,G#3,644.5,0.188,48,170.5
4545,B3,644.5,0.188,48,170.5
4546,B3,645.0,0.188,49,170.5
4547,B-4,645.5,0.188,84,170.5
4548,B-5,645.5,0.188,84,170.5
4549,G#3,645.5,0.75,52,170.5
4550,B3,645.5,0.75,52,170.5
4551,B-4,646.0,0.188,84,170.5
4552,B-5,646.0,0.188,84,170.5
4553,E-5,646.5,1.5,93,170.5
4554,E-6,646.5,1.5,93,170.5
4555,B-2,646.5,0.75,66,170.5
4556,B-3,646.5,0.75,66,170.5
4557,B-2,647.5,0.188,62,170.5
4558,B-3,647.5,0.188,62,170.5
4559,E-5,648.0,0.188,82,170.5
4560,E-6,648.0,0.188,82,170.5
4561,B-2,648.0,0.188,62,170.5
4562,B-3,648.0,0.188,62,170.5
4563,C#5,648.5,0.188,86,170.5
4564,C#6,648.5,0.188,86,170.5
4565,E-3,648.5,1.5,69,170.5
4566,E-4,648.5,1.5,69,170.5
4567,B4,649.0,0.188,86,170.5
4568,B5,649.0,0.188,86,170.5
4569,B-4,649.5,0.188,85,170.5
4570,B-5,649.5,0.188,85,170.5
4571,G#4,650.0,0.188,88,170.5
4572,G#5,650.0,0.188,88,170.5
4573,E-3,650.0,0.188,60,170.5
4574,E-4,650.0,0.188,60,170.5
4575,B-4,650.5,0.188,87,170.5
4576,B-5,650.5,0.188,87,170.5
4577,C#3,650.5,0.188,64,170.5
4578,C#4,650.5,0.188,64,170.5
4579,E-4,651.0,0.188,82,170.5
4580,E-5,651.0,0.188,82,170.5
4581,B2,651.0,0.188,64,170.5
4582,B3,651.0,0.188,64,170.5
4583,E-4,651.5,1.0,82,170.5
4584,E-5,651.5,1.0,82,170.5
4585,B-2,651.5,0.188,62,170.5
4586,B-3,651.5,0.188,62,170.5
4587,G#2,652.0,0.188,66,170.5
4588,G#3,652.0,0.188,66,170.5
4589,G4,652.5,0.75,62,170.5
4590,B-4,652.5,0.75,62,170.5
4591,B-2,652.5,0.188,65,170.5
4592,B-3,652.5,0.188,65,170.5
4593,E-2,653.0,0.188,62,170.5
4594,E-3,653.0,0.188,62,170.5
4595,G4,653.5,0.188,59,170.5
4596,B-4,653.5,0.188,59,170.5
4597,E-2,653.5,1.0,62,170.5
4598,E-3,653.5,1.0,62,170.5
4599,B-4,654.0,0.188,59,170.5
4600,G4,654.0,0.188,59,170.5
4601,E-4,654.5,0.75,51,170.5
4602,F#4,654.5,1.5,66,170.5
4603,E-5,654.5,1.5,66,170.5
4604,C#4,655.5,0.188,44,170.5
4605,E-4,655.5,0.188,44,170.5
4606,E-5,656.0,0.188,57,170.5
4607,F#4,656.0,0.188,57,170.5
4608,C#4,656.0,0.188,44,170.5
4609,E-4,656.0,0.188,44,170.5
4610,G4,656.5,0.5,56,170.5
4611,C#5,656.5,0.188,66,170.5
4612,B3,656.5,1.5,49,170.5
4613,E-4,656.5,1.5,49,170.5
4614,B-4,657.0,0.188,66,170.5
4615,E-4,657.5,0.5,55,170.5
4616,B4,657.5,0.188,65,170.5
4617,G#4,658.0,0.188,68,170.5
4618,B3,658.0,0.188,42,170.5
4619,E-4,658.0,0.188,42,170.5
4620,E-4,658.5,62/125,56,170.5
4621,B-4,658.5,0.188,67,170.5
4622,E-4,658.5,0.5,55,170.5
4623,B-3,658.5,0.188,49,170.5
4624,E-4,659.0,0.188,63,170.5
4625,C#4,659.0,0.188,49,170.5
4626,G#3,659.5,0.188,48,170.5
4627,B3,660.0,0.188,51,170.5
4628,G3,660.5,0.188,50,170.5
4629,G4,660.5,0.75,62,170.5
4630,B-4,660.5,0.75,62,170.5
4631,B-3,661.0,0.188,47,170.5
4632,E-4,661.5,1.0,57,170.5
4633,G4,661.5,0.188,59,170.5
4634,B-4,661.5,0.188,59,170.5
4635,B-4,662.0,0.188,59,170.5
4636,G4,662.0,0.188,59,170.5
4637,F#4,662.5,1.0,60,170.5
4638,E-5,662.5,1.5,71,170.5
4639,E-4,662.5,0.75,51,170.5
4640,G4,663.485,0.5,60,170.5
4641,C#4,663.5,0.188,44,170.5
4642,E-4,663.5,0.188,44,170.5
4643,E-5,664.0,0.188,57,170.5
4644,G#4,664.0,0.188,57,170.5
4645,C#4,664.0,0.188,44,170.5
4646,E-4,664.0,0.188,44,170.5
4647,C#5,664.5,0.188,66,170.5
4648,E4,664.5,0.5,56,170.5
4649,G#4,664.5,0.5,56,170.5
4650,B3,664.5,1.5,49,170.5
4651,E-4,664.5,1.5,49,170.5
4652,B4,665.0,0.188,66,170.5
4653,B-4,665.5,0.188,65,170.5
4654,C#4,665.5,0.5,55,170.5
4655,G4,665.5,0.5,55,170.5
4656,E-4,666.0,0.188,68,170.5
4657,B3,666.0,0.188,42,170.5
4658,E-4,666.0,0.188,42,170.5
4659,E-4,666.5,62/125,58,170.5
4660,G#4,666.5,0.188,70,170.5
4661,B-3,666.5,0.188,49,170.5
4662,E-4,667.0,0.188,66,170.5
4663,C#4,667.0,0.188,49,170.5
4664,E-3,667.5,0.188,48,170.5
4665,E-4,667.5,0.75,65,170.5
4666,G#4,667.5,0.75,65,170.5
4667,G3,668.0,0.188,51,170.5
4668,E-4,668.5,0.25,55,170.5
4669,G#3,668.5,0.188,48,170.5
4670,B3,668.5,0.188,48,170.5
4671,F4,669.0,0.25,49,170.5
4672,B3,669.0,0.188,49,170.5
4673,G4,669.5,0.25,48,170.5
4674,G#3,669.5,0.75,52,170.5
4675,B3,669.5,0.75,52,170.5
4676,G#4,670.0,0.25,47,170.5
4677,C#4,670.5,0.5,54,170.5
4678,E-4,670.5,0.5,54,170.5
4679,B-4,670.5,0.5,54,170.5
4680,C#4,671.5,0.25,48,170.5
4681,B-4,671.5,0.25,48,170.5
4682,E-4,672.0,0.25,48,170.5
4683,C5,672.0,0.25,48,170.5
4684,E-2,672.438,0.062,33,170.5
4685,G3,672.5,0.25,41,170.5
4686,E-2,672.5,1.0,33,170.5
4687,C4,672.5,0.5,52,170.5
4688,E-4,672.5,0.5,52,170.5
4689,G#4,672.5,0.5,52,170.5
4690,E-3,673.0,0.25,37,170.5
4691,G#2,674.438,0.062,32,170.5
4692,G#3,674.5,0.25,43,170.5
4693,G#2,674.5,1.0,32,170.5
4694,C#4,674.5,0.5,54,170.5
4695,E-4,674.5,0.5,54,170.5
4696,B-4,674.5,0.5,54,170.5
4697,E-3,675.0,0.25,35,170.5
4698,E-4,675.5,0.25,42,170.5
4699,C#4,675.5,0.25,48,170.5
4700,B-4,675.5,0.25,48,170.5
4701,G#3,676.0,0.25,36,170.5
4702,E-4,676.0,0.25,48,170.5
4703,C5,676.0,0.25,48,170.5
4704,E-2,676.438,0.062,33,170.5
4705,G3,676.5,0.25,41,170.5
4706,E-2,676.5,1.0,33,170.5
4707,C4,676.5,0.5,52,170.5
4708,E-4,676.5,0.5,52,170.5
4709,G#4,676.5,0.5,52,170.5
4710,E-3,677.0,0.25,37,170.5
4711,G#2,678.438,0.062,32,170.5
4712,G#3,678.5,0.25,43,170.5
4713,G#2,678.5,1.0,32,170.5
4714,E-4,678.5,1.0,54,170.5
4715,G4,678.5,1.0,54,170.5
4716,B-4,678.5,1.0,54,170.5
4717,E-3,679.0,0.25,35,170.5
4718,E-4,679.5,0.25,42,170.5
4719,G4,679.5,0.25,47,170.5
4720,E-4,679.5,0.25,47,170.5
4721,B-4,679.5,0.25,47,170.5
4722,G#3,680.0,0.25,36,170.5
4723,G4,680.0,0.25,47,170.5
4724,E-4,680.0,0.25,47,170.5
4725,B-4,680.0,0.25,47,170.5
4726,E-3,680.5,0.25,43,170.5
4727,E-4,680.5,1.0,54,170.5
4728,F#4,680.5,1.0,54,170.5
4729,E-5,680.5,1.0,54,170.5
4730,E-4,681.0,0.25,33,170.5
4731,C#3,681.5,0.25,43,170.5
4732,B4,681.5,0.25,47,170.5
4733,E-4,681.5,0.25,47,170.5
4734,E-5,681.5,0.25,47,170.5
4735,C#4,682.0,0.25,37,170.5
4736,B4,682.0,0.25,47,170.5
4737,E-4,682.0,0.25,47,170.5
4738,E-5,682.0,0.25,47,170.5
4739,B2,682.5,0.25,43,170.5
4740,E4,682.5,0.25,54,170.5
4741,C#5,682.5,0.25,54,170.5
4742,B3,683.0,0.25,33,170.5
4743,E-4,683.0,0.25,47,170.5
4744,B4,683.0,0.25,47,170.5
4745,F#2,683.5,0.25,43,170.5
4746,C#4,683.5,0.25,47,170.5
4747,B-4,683.5,0.25,47,170.5
4748,F#3,684.0,0.25,37,170.5
4749,B3,684.0,0.25,47,170.5
4750,G#4,684.0,0.25,47,170.5
4751,G2,684.5,0.25,43,170.5
4752,B-3,684.5,1.0,54,170.5
4753,E-4,684.5,1.0,54,170.5
4754,B-4,684.5,1.0,54,170.5
4755,E-3,685.0,0.25,38,170.5
4756,G#2,685.5,0.25,43,170.5
4757,E-4,685.5,0.25,47,170.5
4758,B-3,685.5,0.25,47,170.5
4759,B-4,685.5,0.25,47,170.5
4760,E-3,686.0,0.25,40,170.5
4761,E-4,686.0,0.25,47,170.5
4762,B-3,686.0,0.25,47,170.5
4763,B-4,686.0,0.25,47,170.5
4764,E-2,686.5,0.25,43,170.5
4765,G3,686.5,0.25,53,170.5
4766,C#4,686.5,0.25,53,170.5
4767,E-4,686.5,0.25,53,170.5
4768,B-2,687.0,0.25,33,170.5
4769,G#3,687.0,0.25,47,170.5
4770,F4,687.0,0.25,47,170.5
4771,E-3,687.5,0.25,43,170.5
4772,B-3,687.5,0.25,46,170.5
4773,C#4,687.5,0.25,46,170.5
4774,G4,687.5,0.25,46,170.5
4775,B-2,688.0,0.25,37,170.5
4776,G3,688.0,0.25,47,170.5
4777,E-4,688.0,0.25,47,170.5
4778,E-2,688.5,0.25,43,170.5
4779,G#3,688.5,0.5,54,170.5
4780,C4,688.5,0.5,54,170.5
4781,G#4,688.5,0.5,54,170.5
4782,B-2,689.0,0.25,38,170.5
4783,E-3,689.5,0.25,43,170.5
4784,B-2,690.0,0.25,40,170.5
4785,E-4,690.5,0.25,58,170.5
4786,E-5,690.5,0.25,58,170.5
4787,G#2,690.5,0.25,47,170.5
4788,E-3,690.5,0.25,47,170.5
4789,E-2,691.0,0.25,38,170.5
4790,F4,691.0,0.25,52,170.5
4791,F5,691.0,0.25,52,170.5
4792,G#1,691.5,0.25,43,170.5
4793,G4,691.5,0.25,50,170.5
4794,G5,691.5,0.25,50,170.5
4795,G#4,692.0,0.25,49,170.5
4796,G#5,692.0,0.25,49,170.5
4797,B-4,692.5,0.5,62,170.5
4798,C#5,692.5,0.5,62,170.5
4799,B-5,692.5,0.5,62,170.5
4800,B-4,693.5,0.25,53,170.5
4801,C#5,693.5,0.25,53,170.5
4802,B-5,693.5,0.25,53,170.5
4803,E-2,694.0,0.25,37,170.5
4804,C5,694.0,0.25,53,170.5
4805,E-5,694.0,0.25,53,170.5
4806,C6,694.0,0.25,53,170.5
4807,G3,694.5,0.25,47,170.5
4808,G#4,694.5,0.5,59,170.5
4809,C5,694.5,0.5,59,170.5
4810,G#5,694.5,0.5,59,170.5
4811,E-3,695.0,0.25,42,170.5
4812,E-4,695.5,0.25,47,170.5
4813,G#2,696.0,0.25,36,170.5
4814,G#3,696.5,0.25,49,170.5
4815,B-4,696.5,0.5,62,170.5
4816,C#5,696.5,0.5,62,170.5
4817,B-5,696.5,0.5,62,170.5
4818,E-3,697.0,0.25,40,170.5
4819,E-4,697.5,0.25,48,170.5
4820,B-4,697.5,0.25,53,170.5
4821,C#5,697.5,0.25,53,170.5
4822,B-5,697.5,0.25,53,170.5
4823,E-2,698.0,0.25,41,170.5
4824,C5,698.0,0.25,53,170.5
4825,E-5,698.0,0.25,53,170.5
4826,C6,698.0,0.25,53,170.5
4827,G3,698.5,0.25,47,170.5
4828,G#4,698.5,0.5,59,170.5
4829,C5,698.5,0.5,59,170.5
4830,G#5,698.5,0.5,59,170.5
4831,E-3,699.0,0.25,42,170.5
4832,E-4,699.5,0.25,47,170.5
4833,G#2,700.0,0.25,36,170.5
4834,G#3,700.5,0.25,49,170.5
4835,B-4,700.5,1.0,61,170.5
4836,E-5,700.5,1.0,61,170.5
4837,G5,700.5,1.0,61,170.5
4838,B-5,700.5,1.0,61,170.5
4839,E-3,701.0,0.25,40,170.5
4840,E-4,701.5,0.25,48,170.5
4841,B-4,701.5,0.25,52,170.5
4842,G5,701.5,0.25,52,170.5
4843,E-5,701.5,0.25,52,170.5
4844,B-5,701.5,0.25,52,170.5
4845,G#3,702.0,0.25,41,170.5
4846,B-4,702.0,0.25,52,170.5
4847,G5,702.0,0.25,52,170.5
4848,E-5,702.0,0.25,52,170.5
4849,B-5,702.0,0.25,52,170.5
4850,E-3,702.5,0.25,49,170.5
4851,E-5,702.5,1.0,62,170.5
4852,F#5,702.5,1.0,62,170.5
4853,E-6,702.5,1.0,62,170.5
4854,E-4,703.0,0.25,37,170.5
4855,C#3,703.5,0.25,49,170.5
4856,B5,703.5,0.25,53,170.5
4857,E-5,703.5,0.25,53,170.5
4858,E-6,703.5,0.25,53,170.5
4859,C#4,704.0,0.25,42,170.5
4860,B5,704.0,0.25,53,170.5
4861,E-5,704.0,0.25,53,170.5
4862,E-6,704.0,0.25,53,170.5
4863,B2,704.5,0.25,49,170.5
4864,C#5,704.5,0.25,60,170.5
4865,E5,704.5,0.25,60,170.5
4866,C#6,704.5,0.25,60,170.5
4867,B3,705.0,0.25,37,170.5
4868,B4,705.0,0.25,52,170.5
4869,E-5,705.0,0.25,52,170.5
4870,B5,705.0,0.25,52,170.5
4871,F#2,705.5,0.25,49,170.5
4872,B-4,705.5,0.25,52,170.5
4873,C#5,705.5,0.25,52,170.5
4874,B-5,705.5,0.25,52,170.5
4875,F#3,706.0,0.25,42,170.5
4876,G#4,706.0,0.25,52,170.5
4877,B4,706.0,0.25,52,170.5
4878,G#5,706.0,0.25,52,170.5
4879,G2,706.5,0.25,49,170.5
4880,B-4,706.5,1.0,62,170.5
4881,E-5,706.5,1.0,62,170.5
4882,B-5,706.5,1.0,62,170.5
4883,E-3,707.0,0.25,40,170.5
4884,G3,707.0,0.25,40,170.5
4885,G#2,707.5,0.25,49,170.5
4886,E-5,707.5,0.25,53,170.5
4887,B-4,707.5,0.25,53,170.5
4888,B-5,707.5,0.25,53,170.5
4889,E-5,708.0,0.25,53,170.5
4890,B-4,708.0,0.25,53,170.5
4891,B-5,708.0,0.25,53,170.5
4892,E-3,708.0,0.25,42,170.5
4893,G#3,708.0,0.25,42,170.5
4894,E-2,708.5,0.25,49,170.5
4895,G4,708.5,0.25,60,170.5
4896,C#5,708.5,0.25,60,170.5
4897,E-5,708.5,0.25,60,170.5
4898,B-2,709.0,0.25,37,170.5
4899,G#4,709.0,0.25,54,170.5
4900,F5,709.0,0.25,54,170.5
4901,E-3,709.5,0.25,49,170.5
4902,B-4,709.5,0.25,52,170.5
4903,C#5,709.5,0.25,52,170.5
4904,G5,709.5,0.25,52,170.5
4905,B-3,710.0,0.25,42,170.5
4906,G4,710.0,0.25,54,170.5
4907,E-5,710.0,0.25,54,170.5
4908,E-4,710.5,0.25,49,170.5
4909,G#4,710.5,0.5,62,170.5
4910,E-5,710.5,0.5,62,170.5
4911,G#5,710.5,0.5,62,170.5
4912,B-3,711.0,0.25,43,170.5
4913,E-3,711.5,0.25,49,170.5
4914,C#4,712.0,0.25,46,170.5
4915,C4,712.5,0.25,54,170.5
4916,B-4,712.5,1.0,69,170.5
4917,E-5,712.5,1.0,69,170.5
4918,G5,712.5,1.0,69,170.5
4919,B-5,712.5,1.0,69,170.5
4920,E-3,713.0,0.25,43,170.5
4921,G#2,713.5,0.25,49,170.5
4922,B-4,713.5,0.25,60,170.5
4923,G5,713.5,0.25,60,170.5
4924,E-5,713.5,0.25,60,170.5
4925,B-5,713.5,0.25,60,170.5
4926,B-4,714.0,0.25,60,170.5
4927,G5,714.0,0.25,60,170.5
4928,E-5,714.0,0.25,60,170.5
4929,B-5,714.0,0.25,60,170.5
4930,E-5,714.5,1.0,70,170.5
4931,F#5,714.5,1.0,70,170.5
4932,E-6,714.5,1.0,70,170.5
4933,E-2,714.5,0.25,59,170.5
4934,E-3,714.5,0.25,59,170.5
4935,E2,715.0,0.25,50,170.5
4936,E3,715.0,0.25,50,170.5
4937,F#5,715.5,0.25,60,170.5
4938,E-5,715.5,0.25,60,170.5
4939,E-6,715.5,0.25,60,170.5
4940,C#2,715.5,0.25,62,170.5
4941,C#3,715.5,0.25,62,170.5
4942,F#5,716.0,0.25,60,170.5
4943,E-5,716.0,0.25,60,170.5
4944,E-6,716.0,0.25,60,170.5
4945,E-2,716.0,0.25,54,170.5
4946,E-3,716.0,0.25,54,170.5
4947,C#5,716.5,0.25,69,170.5
4948,E5,716.5,0.25,69,170.5
4949,C#6,716.5,0.25,69,170.5
4950,B1,716.5,0.25,64,170.5
4951,B2,716.5,0.25,64,170.5
4952,B4,717.0,0.25,59,170.5
4953,E-5,717.0,0.25,59,170.5
4954,B5,717.0,0.25,59,170.5
4955,C#2,717.0,0.25,56,170.5
4956,C#3,717.0,0.25,56,170.5
4957,B-4,717.5,0.25,59,170.5
4958,C#5,717.5,0.25,59,170.5
4959,B-5,717.5,0.25,59,170.5
4960,A1,717.5,0.25,61,170.5
4961,A2,717.5,0.25,61,170.5
4962,G#4,718.0,0.25,59,170.5
4963,B4,718.0,0.25,59,170.5
4964,G#5,718.0,0.25,59,170.5
4965,B1,718.0,0.25,54,170.5
4966,B2,718.0,0.25,54,170.5
4967,B-4,718.5,1.0,70,170.5
4968,E-5,718.5,1.0,70,170.5
4969,B-5,718.5,1.0,70,170.5
4970,G1,718.5,1.0,64,170.5
4971,G2,718.5,1.0,64,170.5
4972,E-5,719.5,0.25,60,170.5
4973,B-4,719.5,0.25,60,170.5
4974,B-5,719.5,0.25,60,170.5
4975,G#1,719.5,1.0,66,170.5
4976,G#2,719.5,1.0,66,170.5
4977,E-5,720.0,0.25,60,170.5
4978,B-4,720.0,0.25,60,170.5
4979,B-5,720.0,0.25,60,170.5
4980,E-2,720.5,0.25,67,170.5
4981,G4,720.5,0.25,69,170.5
4982,C#5,720.5,0.25,69,170.5
4983,E-5,720.5,0.25,69,170.5
4984,B-2,721.0,0.25,59,170.5
4985,G#4,721.0,0.25,61,170.5
4986,F5,721.0,0.25,61,170.5
4987,E-3,721.5,0.25,67,170.5
4988,B-4,721.5,0.25,59,170.5
4989,C#5,721.5,0.25,59,170.5
4990,G5,721.5,0.25,59,170.5
4991,B-3,722.0,0.25,61,170.5
4992,G4,722.0,0.25,61,170.5
4993,E-5,722.0,0.25,61,170.5
4994,E-4,722.5,0.25,69,170.5
4995,G#4,722.5,0.5,70,170.5
4996,E-5,722.5,0.5,70,170.5
4997,G#5,722.5,0.5,70,170.5
4998,B-3,723.0,0.25,57,170.5
4999,E-3,723.5,0.25,67,170.5
5000,C#4,724.0,0.25,61,170.5
5001,B4,724.5,2.0,35,170.5
5002,A5,724.5,0.75,50,170.5
5003,C4,724.5,0.25,76,170.5
5004,E-3,725.0,0.25,64,170.5
5005,B5,725.25,0.125,36,170.5
5006,A5,725.375,0.125,36,170.5
5007,G#5,725.5,0.5,50,170.5
5008,G#2,725.5,0.25,71,170.5
5009,F#5,726.0,0.5,41,170.5
5010,B4,726.5,2.0,29,170.5
5011,B5,726.5,0.5,43,170.5
5012,E-4,726.5,0.25,34,170.5
5013,C#5,726.75,0.25,25,170.5
5014,E-5,727.0,0.375,45,170.5
5015,F#4,727.0,0.25,25,170.5
5016,C#5,727.25,0.25,25,170.5
5017,F#5,727.375,0.125,35,170.5
5018,E5,727.5,1.0,43,170.5
5019,B3,727.5,0.25,31,170.5
5020,C#5,727.75,0.25,25,170.5
5021,F#4,728.0,0.25,25,170.5
5022,C#5,728.25,0.25,25,170.5
5023,B4,728.5,2.0,35,170.5
5024,A5,728.5,0.75,50,170.5
5025,E4,728.5,0.25,34,170.5
5026,C#5,728.75,0.25,25,170.5
5027,G#4,729.0,0.25,25,170.5
5028,B5,729.25,0.125,36,170.5
5029,C#5,729.25,0.25,25,170.5
5030,A5,729.375,0.125,36,170.5
5031,G#5,729.5,0.5,50,170.5
5032,B3,729.5,0.25,31,170.5
5033,C#5,729.75,0.25,25,170.5
5034,F#5,730.0,0.5,41,170.5
5035,G#4,730.0,0.25,25,170.5
5036,C#5,730.25,0.25,25,170.5
5037,B4,730.5,2.0,29,170.5
5038,B5,730.5,0.5,44,170.5
5039,E-4,730.5,0.25,34,170.5
5040,C#5,730.75,0.25,25,170.5
5041,E-5,731.0,0.375,45,170.5
5042,F#4,731.0,0.25,25,170.5
5043,C#5,731.25,0.25,25,170.5
5044,F#5,731.375,0.125,35,170.5
5045,E5,731.5,1.0,43,170.5
5046,B3,731.5,0.25,31,170.5
5047,C#5,731.75,0.25,25,170.5
5048,F#4,732.0,0.25,25,170.5
5049,C#5,732.25,0.25,25,170.5
5050,E4,732.5,0.25,34,170.5
5051,F#3,732.75,0.25,36,170.5
5052,C#5,732.75,0.25,25,170.5
5053,B-3,733.0,0.25,41,170.5
5054,G#4,733.0,0.25,25,170.5
5055,C#5,733.25,0.25,25,170.5
5056,F#4,733.25,0.25,32,170.5
5057,E4,733.25,0.25,32,170.5
5058,B3,733.5,0.25,31,170.5
5059,F#3,733.75,0.25,24,170.5
5060,C#5,733.75,0.25,25,170.5
5061,B3,734.0,0.25,27,170.5
5062,G#4,734.0,0.25,25,170.5
5063,E4,734.25,0.25,25,170.5
5064,F#4,734.25,0.25,22,170.5
5065,E-4,734.25,0.25,22,170.5
5066,B4,734.5,2.0,35,170.5
5067,A5,734.5,0.75,50,170.5
5068,C#2,734.5,1.0,44,170.5
5069,C#3,734.5,0.25,52,170.5
5070,F#2,734.75,0.75,47,170.5
5071,B5,735.25,0.125,36,170.5
5072,A5,735.375,0.125,36,170.5
5073,G#5,735.5,0.5,50,170.5
5074,B1,735.5,1.0,32,170.5
5075,B2,735.5,0.25,38,170.5
5076,F#2,735.75,0.75,35,170.5
5077,F#5,736.0,0.5,41,170.5
5078,B4,736.5,2.0,29,170.5
5079,B5,736.5,0.5,43,170.5
5080,E-4,736.5,0.25,34,170.5
5081,C#5,736.75,0.25,25,170.5
5082,E-5,737.0,0.375,45,170.5
5083,F#4,737.0,0.25,25,170.5
5084,C#5,737.25,0.25,25,170.5
5085,F#5,737.375,0.125,35,170.5
5086,E5,737.5,1.0,43,170.5
5087,B3,737.5,0.25,31,170.5
5088,C#5,737.75,0.25,25,170.5
5089,F#4,738.0,0.25,25,170.5
5090,C#5,738.25,0.25,25,170.5
5091,B4,738.5,2.0,35,170.5
5092,A5,738.5,0.75,50,170.5
5093,E4,738.5,0.25,34,170.5
5094,C#5,738.75,0.25,25,170.5
5095,G#4,739.0,0.25,25,170.5
5096,B5,739.25,0.125,36,170.5
5097,C#5,739.25,0.25,25,170.5
5098,A5,739.375,0.125,36,170.5
5099,G#5,739.5,0.5,50,170.5
5100,B3,739.5,0.25,31,170.5
5101,C#5,739.75,0.25,25,170.5
5102,F#5,740.0,0.5,41,170.5
5103,G#4,740.0,0.25,25,170.5
5104,C#5,740.25,0.25,25,170.5
5105,B4,740.5,2.0,29,170.5
5106,B5,740.5,0.5,44,170.5
5107,E-4,740.5,0.25,34,170.5
5108,C#5,740.75,0.25,25,170.5
5109,E-5,741.0,0.375,45,170.5
5110,F#4,741.0,0.25,25,170.5
5111,C#5,741.25,0.25,25,170.5
5112,F#5,741.375,0.125,35,170.5
5113,E5,741.5,1.0,43,170.5
5114,B3,741.5,0.25,31,170.5
5115,C#5,741.75,0.25,25,170.5
5116,F#4,742.0,0.25,25,170.5
5117,C#5,742.25,0.25,25,170.5
5118,E4,742.5,0.25,34,170.5
5119,F#3,742.75,0.25,36,170.5
5120,C#5,742.75,0.25,25,170.5
5121,B-3,743.0,0.25,41,170.5
5122,G#4,743.0,0.25,25,170.5
5123,C#5,743.25,0.25,25,170.5
5124,F#4,743.25,0.25,32,170.5
5125,E4,743.25,0.25,32,170.5
5126,B3,743.5,0.25,31,170.5
5127,F#3,743.75,0.25,24,170.5
5128,C#5,743.75,0.25,25,170.5
5129,B3,744.0,0.25,27,170.5
5130,G#4,744.0,0.25,25,170.5
5131,E4,744.25,0.25,25,170.5
5132,F#4,744.25,0.25,22,170.5
5133,E-4,744.25,0.25,22,170.5
5134,B4,744.5,2.0,35,170.5
5135,F#5,744.5,0.75,50,170.5
5136,C#2,744.5,1.0,44,170.5
5137,C#3,744.5,0.25,52,170.5
5138,F#2,744.75,0.75,47,170.5
5139,G#5,745.25,0.125,36,170.5
5140,F#5,745.375,0.125,36,170.5
5141,F5,745.5,0.5,50,170.5
5142,B1,745.5,1.0,32,170.5
5143,B2,745.5,0.25,38,170.5
5144,F#2,745.75,0.75,35,170.5
5145,F#5,746.0,0.375,41,170.5
5146,A5,746.375,0.125,35,170.5
5147,B4,746.5,1.0,29,170.5
5148,G#5,746.5,0.875,43,170.5
5149,D4,746.5,0.25,34,170.5
5150,C#5,746.75,0.25,25,170.5
5151,F#4,747.0,0.25,25,170.5
5152,C#5,747.25,0.25,25,170.5
5153,G#5,747.375,0.125,35,170.5
5154,D4,747.5,0.25,31,170.5
5155,B4,747.5,1.0,36,170.5
5156,F#5,747.5,1.0,36,170.5
5157,C#5,747.75,0.25,25,170.5
5158,F#4,748.0,0.25,25,170.5
5159,C#5,748.25,0.25,25,170.5
5160,E4,748.5,0.25,34,170.5
5161,F#3,748.75,0.25,36,170.5
5162,C#5,748.75,0.25,25,170.5
5163,B-3,749.0,0.25,41,170.5
5164,G#4,749.0,0.25,25,170.5
5165,C#5,749.25,0.25,25,170.5
5166,F#4,749.25,0.25,32,170.5
5167,E4,749.25,0.25,32,170.5
5168,D4,749.5,0.25,31,170.5
5169,F#3,749.75,0.25,24,170.5
5170,C#5,749.75,0.25,25,170.5
5171,B3,750.0,0.25,27,170.5
5172,F#4,750.0,0.25,25,170.5
5173,C#5,750.25,0.25,25,170.5
5174,F#4,750.25,0.125,22,170.5
5175,E-4,750.25,0.125,22,170.5
5176,A5,750.375,0.125,37,170.5
5177,G#5,750.5,0.25,50,170.5
5178,C#2,750.5,1.0,44,170.5
5179,C#3,750.5,0.25,52,170.5
5180,F#2,750.75,0.75,47,170.5
5181,G#5,750.875,0.125,37,170.5
5182,F#5,751.0,0.25,50,170.5
5183,F#5,751.375,0.125,37,170.5
5184,F5,751.5,0.25,50,170.5
5185,B1,751.5,1.0,32,170.5
5186,B2,751.5,0.25,38,170.5
5187,F#2,751.75,0.75,35,170.5
5188,F5,751.875,0.125,37,170.5
5189,D5,752.0,0.25,50,170.5
5190,C#5,752.5,0.25,50,170.5
5191,D4,752.5,0.25,34,170.5
5192,C#5,752.75,0.25,25,170.5
5193,C#6,753.0,0.25,50,170.5
5194,F#4,753.0,0.25,25,170.5
5195,C#5,753.25,0.25,25,170.5
5196,C#6,753.5,0.25,50,170.5
5197,D4,753.5,0.25,31,170.5
5198,B4,753.75,0.25,25,170.5
5199,C#7,754.0,0.25,50,170.5
5200,F#4,754.0,0.25,25,170.5
5201,B4,754.25,0.25,25,170.5
5202,F4,754.5,0.25,34,170.5
5203,F#3,754.75,0.25,32,170.5
5204,B4,754.75,0.25,25,170.5
5205,B-3,755.0,0.25,36,170.5
5206,G#4,755.0,0.25,25,170.5
5207,B4,755.25,0.25,25,170.5
5208,F#4,755.25,0.25,28,170.5
5209,E4,755.25,0.25,28,170.5
5210,F#4,755.5,0.25,31,170.5
5211,F#3,755.75,0.25,21,170.5
5212,E5,755.75,0.25,25,170.5
5213,B3,756.0,0.25,24,170.5
5214,B-4,756.0,0.25,25,170.5
5215,E5,756.25,0.25,25,170.5
5216,F#4,756.25,0.25,19,170.5
5217,E-4,756.25,0.25,19,170.5
5218,B4,756.5,2.0,35,170.5
5219,F#5,756.5,0.75,50,170.5
5220,F#2,756.5,1.0,46,170.5
5221,C#3,756.75,0.75,42,170.5
5222,G#5,757.25,0.125,36,170.5
5223,F#5,757.375,0.125,36,170.5
5224,F5,757.5,0.5,50,170.5
5225,B1,757.5,1.0,34,170.5
5226,B2,757.75,0.75,31,170.5
5227,F#5,758.0,0.375,41,170.5
5228,A5,758.375,0.125,35,170.5
5229,B4,758.5,1.0,29,170.5
5230,G#5,758.5,0.875,43,170.5
5231,D4,758.5,0.25,34,170.5
5232,C#5,758.75,0.25,25,170.5
5233,F#4,759.0,0.25,25,170.5
5234,C#5,759.25,0.25,25,170.5
5235,G#5,759.375,0.125,35,170.5
5236,D4,759.5,0.25,31,170.5
5237,B4,759.5,1.0,36,170.5
5238,F#5,759.5,1.0,36,170.5
5239,C#5,759.75,0.25,25,170.5
5240,F#4,760.0,0.25,25,170.5
5241,C#5,760.25,0.25,25,170.5
5242,E4,760.5,0.25,34,170.5
5243,F#3,760.75,0.25,32,170.5
5244,C#5,760.75,0.25,25,170.5
5245,B-3,761.0,0.25,36,170.5
5246,G#4,761.0,0.25,25,170.5
5247,C#5,761.25,0.25,25,170.5
5248,F#4,761.25,0.25,28,170.5
5249,E4,761.25,0.25,28,170.5
5250,D4,761.5,0.25,31,170.5
5251,F#3,761.75,0.25,21,170.5
5252,C#5,761.75,0.25,25,170.5
5253,B3,762.0,0.25,24,170.5
5254,F#4,762.0,0.25,25,170.5
5255,C#5,762.25,0.25,25,170.5
5256,F#4,762.25,0.125,22,170.5
5257,E-4,762.25,0.125,22,170.5
5258,A5,762.375,0.125,37,170.5
5259,G#5,762.5,0.25,50,170.5
5260,C#2,762.5,1.0,39,170.5
5261,C#3,762.5,0.25,46,170.5
5262,F#2,762.75,0.75,42,170.5
5263,G#5,762.875,0.125,37,170.5
5264,F#5,763.0,0.25,50,170.5
5265,F#5,763.375,0.125,37,170.5
5266,F5,763.5,0.25,50,170.5
5267,B1,763.5,1.0,28,170.5
5268,B2,763.5,0.25,34,170.5
5269,F#2,763.75,0.75,31,170.5
5270,F5,763.875,0.125,37,170.5
5271,D5,764.0,0.25,50,170.5
5272,C#5,764.5,0.25,50,170.5
5273,D4,764.5,0.25,34,170.5
5274,C#5,764.75,0.25,25,170.5
5275,C#6,765.0,0.25,50,170.5
5276,F#4,765.0,0.25,25,170.5
5277,C#5,765.25,0.25,25,170.5
5278,C#6,765.5,0.25,50,170.5
5279,D4,765.5,0.25,31,170.5
5280,B4,765.75,0.25,25,170.5
5281,C#7,766.0,0.25,50,170.5
5282,F#4,766.0,0.25,25,170.5
5283,B4,766.25,0.25,25,170.5
5284,F4,766.5,0.25,34,170.5
5285,F#3,766.75,0.25,30,170.5
5286,B4,766.75,0.25,25,170.5
5287,B-3,767.0,0.25,34,170.5
5288,G#4,767.0,0.25,25,170.5
5289,B4,767.25,0.25,25,170.5
5290,F#4,767.25,0.25,26,170.5
5291,E4,767.25,0.25,26,170.5
5292,F#4,767.5,0.25,31,170.5
5293,F#3,767.75,0.25,20,170.5
5294,E5,767.75,0.25,25,170.5
5295,B3,768.0,0.25,22,170.5
5296,B-4,768.0,0.25,25,170.5
5297,E5,768.25,0.25,25,170.5
5298,F#4,768.25,0.25,18,170.5
5299,E-4,768.25,0.25,18,170.5
5300,A5,768.5,1.0,42,170.5
5301,A6,768.5,0.75,50,170.5
5302,F#2,768.5,1.0,44,170.5
5303,C#3,768.75,0.75,39,170.5
5304,B6,769.25,0.125,36,170.5
5305,A6,769.375,0.125,36,170.5
5306,B1,769.5,1.0,32,170.5
5307,G#5,769.5,0.5,46,170.5
5308,G#6,769.5,0.5,46,170.5
5309,B2,769.75,0.75,29,170.5
5310,F#5,770.0,0.5,38,170.5
5311,F#6,770.0,0.5,38,170.5
5312,E-3,770.5,333/1000,34,170.5
5313,B5,770.5,0.5,40,170.5
5314,B6,770.5,0.5,40,170.5
5315,C#4,770.833,333/1000,25,170.5
5316,E-5,771.0,0.5,38,170.5
5317,E-6,771.0,0.375,45,170.5
5318,B3,771.167,333/1000,25,170.5
5319,F#6,771.375,0.125,35,170.5
5320,A4,771.5,0.25,31,170.5
5321,E5,771.5,1.0,40,170.5
5322,E6,771.5,1.0,40,170.5
5323,F#4,771.75,0.25,25,170.5
5324,C#4,772.0,0.25,25,170.5
5325,B3,772.25,0.25,25,170.5
5326,A5,772.5,1.0,42,170.5
5327,A6,772.5,0.75,50,170.5
5328,E3,772.5,333/1000,34,170.5
5329,C#4,772.833,333/1000,25,170.5
5330,B3,773.167,333/1000,25,170.5
5331,B6,773.25,0.125,36,170.5
5332,A6,773.375,0.125,36,170.5
5333,G#4,773.5,0.25,31,170.5
5334,G#5,773.5,0.5,46,170.5
5335,G#6,773.5,0.5,46,170.5
5336,E4,773.75,0.25,25,170.5
5337,C#4,774.0,0.25,25,170.5
5338,F#5,774.0,0.5,38,170.5
5339,F#6,774.0,0.5,38,170.5
5340,B3,774.25,0.25,25,170.5
5341,E-3,774.5,333/1000,34,170.5
5342,B5,774.5,0.5,40,170.5
5343,B6,774.5,0.5,40,170.5
5344,C#4,774.833,333/1000,25,170.5
5345,E-5,775.0,0.5,38,170.5
5346,E-6,775.0,0.375,45,170.5
5347,B3,775.167,333/1000,25,170.5
5348,F#6,775.375,0.125,35,170.5
5349,A4,775.5,0.25,31,170.5
5350,E5,775.5,1.0,40,170.5
5351,E6,775.5,1.0,40,170.5
5352,F#4,775.75,0.25,25,170.5
5353,C#4,776.0,0.25,25,170.5
5354,B3,776.25,0.25,25,170.5
5355,E3,776.5,333/1000,34,170.5
5356,F#3,776.75,0.25,34,170.5
5357,C#4,776.833,333/1000,25,170.5
5358,B-3,777.0,0.25,38,170.5
5359,B3,777.167,333/1000,25,170.5
5360,F#4,777.25,0.25,30,170.5
5361,E4,777.25,0.25,30,170.5
5362,G#4,777.5,0.25,31,170.5
5363,F#3,777.75,0.25,22,170.5
5364,E4,777.75,0.25,25,170.5
5365,B3,778.0,0.25,25,170.5
5366,C#4,778.0,0.25,25,170.5
5367,B3,778.25,0.25,25,170.5
5368,F#4,778.25,0.25,20,170.5
5369,E-4,778.25,0.25,20,170.5
5370,A5,778.5,1.0,42,170.5
5371,A6,778.5,0.75,50,170.5
5372,C#2,778.5,1.0,41,170.5
5373,C#3,778.5,0.25,49,170.5
5374,F#2,778.75,0.75,44,170.5
5375,B6,779.25,0.125,36,170.5
5376,A6,779.375,0.125,36,170.5
5377,B1,779.5,1.0,30,170.5
5378,B2,779.5,0.25,36,170.5
5379,G#5,779.5,0.5,46,170.5
5380,G#6,779.5,0.5,46,170.5
5381,F#2,779.75,0.75,33,170.5
5382,F#5,780.0,0.5,38,170.5
5383,F#6,780.0,0.5,38,170.5
5384,E-3,780.5,333/1000,34,170.5
5385,B5,780.5,0.5,40,170.5
5386,B6,780.5,0.5,40,170.5
5387,C#4,780.833,333/1000,25,170.5
5388,E-5,781.0,0.5,38,170.5
5389,E-6,781.0,0.375,45,170.5
5390,B3,781.167,333/1000,25,170.5
5391,F#6,781.375,0.125,35,170.5
5392,A4,781.5,0.25,31,170.5
5393,E5,781.5,1.0,40,170.5
5394,E6,781.5,1.0,40,170.5
5395,F#4,781.75,0.25,25,170.5
5396,C#4,782.0,0.25,25,170.5
5397,B3,782.25,0.25,25,170.5
5398,A5,782.5,1.0,42,170.5
5399,A6,782.5,0.75,50,170.5
5400,E3,782.5,333/1000,34,170.5
5401,C#4,782.833,333/1000,25,170.5
5402,B3,783.167,333/1000,25,170.5
5403,B6,783.25,0.125,36,170.5
5404,A6,783.375,0.125,36,170.5
5405,G#4,783.5,0.25,31,170.5
5406,G#5,783.5,0.5,46,170.5
5407,G#6,783.5,0.5,46,170.5
5408,E4,783.75,0.25,25,170.5
5409,C#4,784.0,0.25,25,170.5
5410,F#5,784.0,0.5,38,170.5
5411,F#6,784.0,0.5,38,170.5
5412,B3,784.25,0.25,25,170.5
5413,E-3,784.5,333/1000,34,170.5
5414,B5,784.5,0.5,40,170.5
5415,B6,784.5,0.5,40,170.5
5416,C#4,784.833,333/1000,25,170.5
5417,E-5,785.0,0.5,38,170.5
5418,E-6,785.0,0.375,45,170.5
5419,B3,785.167,333/1000,25,170.5
5420,F#6,785.375,0.125,35,170.5
5421,A4,785.5,0.25,31,170.5
5422,E5,785.5,1.0,40,170.5
5423,E6,785.5,1.0,40,170.5
5424,F#4,785.75,0.25,25,170.5
5425,C#4,786.0,0.25,25,170.5
5426,B3,786.25,0.25,25,170.5
5427,E3,786.5,333/1000,34,170.5
5428,F#3,786.75,0.25,34,170.5
5429,C#4,786.833,333/1000,25,170.5
5430,B-3,787.0,0.25,38,170.5
5431,B3,787.167,333/1000,25,170.5
5432,F#4,787.25,0.25,30,170.5
5433,E4,787.25,0.25,30,170.5
5434,G#4,787.5,0.25,31,170.5
5435,F#3,787.75,0.25,22,170.5
5436,E4,787.75,0.25,25,170.5
5437,B3,788.0,0.25,25,170.5
5438,C#4,788.0,0.25,25,170.5
5439,B3,788.25,0.25,25,170.5
5440,F#4,788.25,0.25,20,170.5
5441,E-4,788.25,0.25,20,170.5
5442,F#5,788.5,1.0,42,170.5
5443,F#6,788.5,0.75,50,170.5
5444,C#2,788.5,1.0,41,170.5
5445,C#3,788.5,0.25,49,170.5
5446,F#2,788.75,0.75,44,170.5
5447,G#6,789.25,0.125,36,170.5
5448,F#6,789.375,0.125,36,170.5
5449,B1,789.5,1.0,30,170.5
5450,B2,789.5,0.25,36,170.5
5451,F5,789.5,0.5,46,170.5
5452,F6,789.5,0.5,46,170.5
5453,F#2,789.75,0.75,33,170.5
5454,F#5,790.0,0.5,34,170.5
5455,F#6,790.0,0.375,41,170.5
5456,A6,790.375,0.125,35,170.5
5457,G#5,790.5,1.0,36,170.5
5458,G#6,790.5,0.875,43,170.5
5459,D3,790.5,333/1000,34,170.5
5460,C#4,790.833,333/1000,25,170.5
5461,B3,791.167,333/1000,25,170.5
5462,G#6,791.375,0.125,35,170.5
5463,F#4,791.5,333/1000,34,170.5
5464,F#5,791.5,1.0,34,170.5
5465,F#6,791.5,1.0,34,170.5
5466,C#4,791.833,333/1000,25,170.5
5467,B3,792.167,333/1000,25,170.5
5468,E3,792.5,333/1000,34,170.5
5469,F#3,792.75,0.25,36,170.5
5470,B3,792.833,333/1000,29,170.5
5471,B-3,793.0,0.25,41,170.5
5472,G#4,793.167,333/1000,28,170.5
5473,F#4,793.25,0.25,32,170.5
5474,E4,793.25,0.25,32,170.5
5475,D3,793.5,333/1000,34,170.5
5476,F#3,793.75,0.25,24,170.5
5477,B3,793.833,333/1000,27,170.5
5478,B3,794.0,0.25,27,170.5
5479,F#4,794.167,333/1000,27,170.5
5480,F#4,794.25,0.125,22,170.5
5481,E-4,794.25,0.125,22,170.5
5482,A6,794.375,0.125,37,170.5
5483,C#2,794.5,1.0,44,170.5
5484,C#3,794.5,0.25,52,170.5
5485,G#5,794.5,0.25,46,170.5
5486,G#6,794.5,0.25,46,170.5
5487,F#2,794.75,0.75,47,170.5
5488,G#6,794.875,0.125,37,170.5
5489,F#5,795.0,0.25,46,170.5
5490,F#6,795.0,0.25,46,170.5
5491,F#6,795.375,0.125,37,170.5
5492,B1,795.5,1.0,32,170.5
5493,B2,795.5,0.25,38,170.5
5494,E5,795.5,0.25,46,170.5
5495,E6,795.5,0.25,46,170.5
5496,F#2,795.75,0.75,35,170.5
5497,E6,795.875,0.125,37,170.5
5498,D5,796.0,0.25,46,170.5
5499,D6,796.0,0.25,46,170.5
5500,C#5,796.5,0.25,50,170.5
5501,D3,796.5,333/1000,34,170.5
5502,C#4,796.833,333/1000,25,170.5
5503,C#6,797.0,0.25,50,170.5
5504,B3,797.167,333/1000,25,170.5
5505,C#6,797.5,0.25,50,170.5
5506,F#4,797.5,333/1000,34,170.5
5507,C#4,797.833,333/1000,25,170.5
5508,C#7,798.0,0.25,50,170.5
5509,B3,798.167,333/1000,25,170.5
5510,F3,798.5,333/1000,34,170.5
5511,F#3,798.75,0.25,30,170.5
5512,B3,798.833,333/1000,29,170.5
5513,B-3,799.0,0.25,34,170.5
5514,G#4,799.167,333/1000,28,170.5
5515,F#4,799.25,0.25,26,170.5
5516,E4,799.25,0.25,26,170.5
5517,F#3,799.5,333/1000,34,170.5
5518,F#3,799.75,0.25,20,170.5
5519,E4,799.833,333/1000,27,170.5
5520,B3,800.0,0.25,22,170.5
5521,B-4,800.167,333/1000,27,170.5
5522,F#4,800.25,0.25,18,170.5
5523,E-4,800.25,0.25,18,170.5
5524,F#5,800.5,1.0,42,170.5
5525,F#6,800.5,0.75,50,170.5
5526,F#2,800.5,1.0,44,170.5
5527,C#3,800.75,0.75,39,170.5
5528,G#6,801.25,0.125,36,170.5
5529,F#6,801.375,0.125,36,170.5
5530,B1,801.5,1.0,32,170.5
5531,F5,801.5,0.5,46,170.5
5532,F6,801.5,0.5,46,170.5
5533,B2,801.75,0.75,29,170.5
5534,F#5,802.0,0.5,34,170.5
5535,F#6,802.0,0.375,41,170.5
5536,A6,802.375,0.125,35,170.5
5537,G#5,802.5,1.0,36,170.5
5538,G#6,802.5,0.875,43,170.5
5539,D3,802.5,333/1000,34,170.5
5540,C#4,802.833,333/1000,25,170.5
5541,B3,803.167,333/1000,25,170.5
5542,G#6,803.375,0.125,35,170.5
5543,F#4,803.5,333/1000,34,170.5
5544,F#5,803.5,1.0,34,170.5
5545,F#6,803.5,1.0,34,170.5
5546,C#4,803.833,333/1000,25,170.5
5547,B3,804.167,333/1000,25,170.5
5548,E3,804.5,333/1000,34,170.5
5549,F#3,804.75,0.25,36,170.5
5550,B3,804.833,333/1000,29,170.5
5551,B-3,805.0,0.25,41,170.5
5552,G#4,805.167,333/1000,28,170.5
5553,F#4,805.25,0.25,32,170.5
5554,E4,805.25,0.25,32,170.5
5555,D3,805.5,333/1000,34,170.5
5556,F#3,805.75,0.25,24,170.5
5557,B3,805.833,333/1000,27,170.5
5558,B3,806.0,0.25,27,170.5
5559,F#4,806.167,333/1000,27,170.5
5560,E-4,806.25,0.25,22,170.5
5561,F#4,806.25,0.25,22,170.5
5562,A6,806.5,169/1000,45,170.5
5563,C#2,806.5,1.0,44,170.5
5564,C#3,806.5,0.25,52,170.5
5565,G#6,806.669,167/1000,44,170.5
5566,F#2,806.75,0.75,47,170.5
5567,F#6,806.833,167/1000,44,170.5
5568,E6,807.0,167/1000,43,170.5
5569,D6,807.167,167/1000,43,170.5
5570,C#6,807.333,167/1000,42,170.5
5571,B5,807.5,167/1000,42,170.5
5572,B1,807.5,1.0,32,170.5
5573,B2,807.5,0.25,38,170.5
5574,A5,807.667,167/1000,41,170.5
5575,F#2,807.75,0.75,35,170.5
5576,G#5,807.833,167/1000,41,170.5
5577,F#5,808.0,167/1000,40,170.5
5578,E5,808.167,167/1000,39,170.5
5579,D5,808.333,167/1000,39,170.5
5580,C#5,808.5,0.125,40,170.5
5581,D3,808.5,333/1000,34,170.5
5582,C#6,808.75,0.125,36,170.5
5583,C#4,808.833,333/1000,25,170.5
5584,C#6,809.0,0.125,36,170.5
5585,B3,809.167,333/1000,25,170.5
5586,C#7,809.25,0.125,38,170.5
5587,C#7,809.5,0.125,39,170.5
5588,F#4,809.5,333/1000,34,170.5
5589,C#6,809.75,0.125,36,170.5
5590,C#4,809.833,333/1000,25,170.5
5591,C#6,810.0,0.125,36,170.5
5592,B3,810.167,333/1000,25,170.5
5593,C#5,810.25,0.125,37,170.5
5594,C#5,810.5,0.125,44,170.5
5595,F3,810.5,333/1000,34,170.5
5596,C#6,810.75,0.125,36,170.5
5597,B3,810.833,333/1000,29,170.5
5598,C#6,811.0,0.125,36,170.5
5599,G#4,811.167,333/1000,28,170.5
5600,C#7,811.25,0.125,41,170.5
5601,C#7,811.5,0.125,41,170.5
5602,C#6,811.75,0.125,36,170.5
5603,C#6,812.0,0.125,36,170.5
5604,C#5,812.25,0.125,36,170.5
5605,C#5,812.5,0.125,42,170.5
5606,C#6,812.75,0.125,37,170.5
5607,C#6,813.0,0.125,37,170.5
5608,C#7,813.25,0.125,40,170.5
5609,C#7,813.5,0.125,40,170.5
5610,C#6,813.75,0.125,37,170.5
5611,C#6,814.0,0.125,37,170.5
5612,C#7,814.25,0.125,37,170.5
5613,C#7,814.5,0.125,42,170.5
5614,C#6,814.75,0.125,37,170.5
5615,C#6,815.0,0.125,37,170.5
5616,C#7,815.25,0.125,39,170.5
5617,C#7,815.5,0.125,39,170.5
5618,C#6,815.75,0.125,37,170.5
5619,C#6,816.0,0.125,37,170.5
5620,C#7,816.25,0.125,37,170.5
5621,D7,816.5,167/1000,39,170.5
5622,E7,816.667,167/1000,38,170.5
5623,D7,816.833,167/1000,37,170.5
5624,C#7,817.0,167/1000,36,170.5
5625,B6,817.167,167/1000,36,170.5
5626,A6,817.333,167/1000,36,170.5
5627,G#6,817.5,167/1000,35,170.5
5628,F#6,817.667,167/1000,34,170.5
5629,E6,817.833,167/1000,33,170.5
5630,D6,818.0,167/1000,32,170.5
5631,C#6,818.167,167/1000,31,170.5
5632,B5,818.333,167/1000,30,170.5
5633,E4,818.375,0.125,37,170.5
5634,G#4,818.438,0.062,42,170.5
5635,A5,818.5,167/1000,29,170.5
5636,D5,818.5,1.0,49,170.5
5637,E4,818.5,2.0,37,170.5
5638,G#4,818.5,2.0,42,170.5
5639,G#5,818.667,167/1000,28,170.5
5640,A5,818.833,167/1000,29,170.5
5641,B5,819.0,167/1000,31,170.5
5642,C#6,819.167,167/1000,32,170.5
5643,D6,819.333,167/1000,33,170.5
5644,E6,819.5,167/1000,34,170.5
5645,C#5,819.5,0.5,47,170.5
5646,F#6,819.667,167/1000,35,170.5
5647,G#6,819.833,167/1000,36,170.5
5648,A6,820.0,167/1000,36,170.5
5649,B4,820.0,0.5,41,170.5
5650,B6,820.167,167/1000,37,170.5
5651,C#7,820.333,167/1000,38,170.5
5652,D7,820.5,167/1000,39,170.5
5653,E5,820.5,0.5,45,170.5
5654,E4,820.5,2.0,38,170.5
5655,C#5,820.5,2.0,38,170.5
5656,E7,820.667,167/1000,38,170.5
5657,D7,820.833,167/1000,37,170.5
5658,C#7,821.0,167/1000,36,170.5
5659,G#4,821.0,0.5,39,170.5
5660,B6,821.167,167/1000,36,170.5
5661,A6,821.333,167/1000,36,170.5
5662,G#6,821.5,167/1000,35,170.5
5663,A4,821.5,0.875,45,170.5
5664,F#6,821.667,167/1000,34,170.5
5665,E6,821.833,167/1000,33,170.5
5666,D6,822.0,167/1000,32,170.5
5667,C#6,822.167,167/1000,31,170.5
5668,B5,822.333,167/1000,30,170.5
5669,E4,822.375,0.125,37,170.5
5670,G#4,822.438,0.062,42,170.5
5671,A5,822.5,167/1000,29,170.5
5672,D5,822.5,1.0,49,170.5
5673,E4,822.5,2.0,37,170.5
5674,G#4,822.5,2.0,42,170.5
5675,G#5,822.667,167/1000,28,170.5
5676,A5,822.833,167/1000,29,170.5
5677,B5,823.0,167/1000,31,170.5
5678,C#6,823.167,167/1000,32,170.5
5679,D6,823.333,167/1000,33,170.5
5680,E6,823.5,167/1000,34,170.5
5681,C#5,823.5,0.5,47,170.5
5682,F#6,823.667,167/1000,35,170.5
5683,G#6,823.833,167/1000,36,170.5
5684,A6,824.0,167/1000,36,170.5
5685,B4,824.0,0.5,41,170.5
5686,B6,824.167,167/1000,37,170.5
5687,C#7,824.333,167/1000,38,170.5
5688,D7,824.5,167/1000,39,170.5
5689,E5,824.5,0.5,45,170.5
5690,E4,824.5,2.0,38,170.5
5691,C#5,824.5,2.0,38,170.5
5692,E7,824.667,167/1000,38,170.5
5693,D7,824.833,167/1000,37,170.5
5694,C#7,825.0,167/1000,36,170.5
5695,G#4,825.0,0.5,39,170.5
5696,B6,825.167,167/1000,36,170.5
5697,A6,825.333,167/1000,36,170.5
5698,G#6,825.5,167/1000,35,170.5
5699,A4,825.5,0.875,45,170.5
5700,F#6,825.667,167/1000,34,170.5
5701,E6,825.833,167/1000,33,170.5
5702,D6,826.0,167/1000,32,170.5
5703,C#6,826.167,167/1000,31,170.5
5704,B5,826.333,167/1000,30,170.5
5705,E4,826.375,0.125,37,170.5
5706,G#4,826.438,0.062,42,170.5
5707,A5,826.5,167/1000,29,170.5
5708,D5,826.5,1.0,49,170.5
5709,E4,826.5,2.0,37,170.5
5710,G#4,826.5,2.0,42,170.5
5711,G#5,826.667,167/1000,28,170.5
5712,A5,826.833,167/1000,29,170.5
5713,B5,827.0,167/1000,31,170.5
5714,C#6,827.167,167/1000,32,170.5
5715,D6,827.333,167/1000,33,170.5
5716,E6,827.5,167/1000,34,170.5
5717,C#5,827.5,0.5,47,170.5
5718,F#6,827.667,167/1000,35,170.5
5719,G#6,827.833,167/1000,36,170.5
5720,A6,828.0,167/1000,36,170.5
5721,B4,828.0,0.5,41,170.5
5722,B6,828.167,167/1000,37,170.5
5723,C#7,828.333,167/1000,38,170.5
5724,D7,828.5,167/1000,41,170.5
5725,E5,828.5,0.5,45,170.5
5726,E4,828.5,2.0,38,170.5
5727,C#5,828.5,2.0,38,170.5
5728,E-7,828.667,167/1000,44,170.5
5729,E7,828.833,167/1000,46,170.5
5730,F7,829.0,167/1000,49,170.5
5731,G#4,829.0,0.5,39,170.5
5732,E7,829.167,167/1000,49,170.5
5733,E-7,829.333,167/1000,47,170.5
5734,D7,829.5,167/1000,46,170.5
5735,A4,829.5,1.0,45,170.5
5736,C#7,829.667,167/1000,45,170.5
5737,C7,829.833,167/1000,44,170.5
5738,B6,830.0,167/1000,43,170.5
5739,B-6,830.167,167/1000,41,170.5
5740,A6,830.333,167/1000,40,170.5
5741,G#6,830.5,167/1000,39,170.5
5742,E4,830.5,2.0,42,170.5
5743,G#4,830.5,2.0,42,170.5
5744,B4,830.5,2.0,42,170.5
5745,D5,830.5,2.0,42,170.5
5746,A6,830.667,167/1000,44,170.5
5747,B-6,830.833,167/1000,46,170.5
5748,B6,831.0,167/1000,48,170.5
5749,B-6,831.167,167/1000,49,170.5
5750,A6,831.333,167/1000,48,170.5
5751,G#6,831.5,167/1000,47,170.5
5752,G6,831.667,167/1000,46,170.5
5753,F#6,831.833,167/1000,45,170.5
5754,F6,832.0,167/1000,45,170.5
5755,E6,832.167,167/1000,44,170.5
5756,E-6,832.333,167/1000,43,170.5
5757,D6,832.5,167/1000,41,170.5
5758,E-6,832.667,167/1000,44,170.5
5759,E6,832.833,167/1000,46,170.5
5760,F6,833.0,167/1000,49,170.5
5761,E6,833.167,167/1000,49,170.5
5762,E-6,833.333,167/1000,47,170.5
5763,D6,833.5,167/1000,46,170.5
5764,C#6,833.667,167/1000,45,170.5
5765,C6,833.833,167/1000,44,170.5
5766,B5,834.0,167/1000,43,170.5
5767,B-5,834.167,167/1000,41,170.5
5768,A5,834.333,167/1000,40,170.5
5769,G#5,834.5,167/1000,39,170.5
5770,A5,834.667,167/1000,44,170.5
5771,B-5,834.833,167/1000,46,170.5
5772,B5,835.0,167/1000,48,170.5
5773,B-5,835.167,167/1000,49,170.5
5774,A5,835.333,167/1000,48,170.5
5775,G#5,835.5,167/1000,47,170.5
5776,E4,835.5,2.0,42,170.5
5777,G#4,835.5,2.0,42,170.5
5778,B4,835.5,2.0,42,170.5
5779,D5,835.5,2.0,42,170.5
5780,G5,835.667,167/1000,46,170.5
5781,F#5,835.833,167/1000,45,170.5
5782,F5,836.0,167/1000,45,170.5
5783,E5,836.167,167/1000,44,170.5
5784,E-5,836.333,167/1000,43,170.5
5785,D5,836.5,167/1000,41,170.5
5786,E-5,836.667,167/1000,44,170.5
5787,E5,836.833,167/1000,46,170.5
5788,F5,837.0,167/1000,49,170.5
5789,E5,837.167,167/1000,49,170.5
5790,E-5,837.333,167/1000,47,170.5
5791,D5,837.5,167/1000,46,170.5
5792,C#5,837.667,167/1000,45,170.5
5793,C5,837.833,167/1000,44,170.5
5794,B4,838.0,167/1000,43,170.5
5795,B-4,838.167,167/1000,41,170.5
5796,A4,838.333,167/1000,40,170.5
5797,G#4,838.5,167/1000,39,170.5
5798,E4,838.5,1.0,42,170.5
5799,G#4,838.5,1.0,42,170.5
5800,B4,838.5,1.0,42,170.5
5801,D5,838.5,1.0,42,170.5
5802,A4,838.667,167/1000,44,170.5
5803,B-4,838.833,167/1000,46,170.5
5804,B4,839.0,167/1000,48,170.5
5805,B-4,839.167,167/1000,49,170.5
5806,A4,839.333,167/1000,48,170.5
5807,G#4,839.5,0.125,45,170.5
5808,G4,839.625,0.125,45,170.5
5809,F#4,839.75,0.125,47,170.5
5810,F4,839.875,0.125,49,170.5
5811,E4,840.0,0.25,50,170.5
5812,G4,840.5,0.75,50,170.5
5813,B-4,840.5,0.75,50,170.5
5814,G4,841.5,0.188,47,170.5
5815,B-4,841.5,0.188,47,170.5
5816,G4,842.0,0.188,47,170.5
5817,B-4,842.0,0.188,47,170.5
5818,F#4,842.5,1.5,52,170.5
5819,E-5,842.5,1.5,52,170.5
5820,E-5,844.0,0.188,45,170.5
5821,F#4,844.0,0.188,45,170.5
5822,E4,844.5,0.5,44,170.5
5823,C#5,844.5,0.188,52,170.5
5824,B-4,845.0,0.188,52,170.5
5825,E-4,845.5,0.5,44,170.5
5826,B4,845.5,0.188,52,170.5
5827,G#4,846.0,0.188,54,170.5
5828,G4,846.5,62/125,44,170.5
5829,B-4,846.5,0.188,53,170.5
5830,E-4,846.5,0.188,40,170.5
5831,E-4,847.0,0.188,50,170.5
5832,E4,847.0,0.188,38,170.5
5833,C#4,847.5,0.188,38,170.5
5834,E-4,848.0,0.188,38,170.5
5835,B3,848.5,0.188,40,170.5
5836,G4,848.5,0.75,54,170.5
5837,B-4,848.5,0.75,54,170.5
5838,C#4,849.0,0.188,38,170.5
5839,A3,849.5,0.188,38,170.5
5840,G4,849.5,0.188,52,170.5
5841,B-4,849.5,0.188,52,170.5
5842,B3,850.0,0.188,38,170.5
5843,B-4,850.0,0.188,52,170.5
5844,G4,850.0,0.188,52,170.5
5845,G3,850.5,0.188,44,170.5
5846,F#4,850.5,1.5,56,170.5
5847,E-5,850.5,1.5,56,170.5
5848,C#4,851.0,0.188,39,170.5
5849,G#3,851.5,0.188,38,170.5
5850,B3,852.0,0.188,40,170.5
5851,E-5,852.0,0.188,49,170.5
5852,F#4,852.0,0.188,49,170.5
5853,E4,852.5,0.5,48,170.5
5854,C#5,852.5,0.188,57,170.5
5855,E-3,852.5,0.188,40,170.5
5856,B4,853.0,0.188,57,170.5
5857,B-3,853.0,0.188,37,170.5
5858,G4,853.5,0.5,48,170.5
5859,B-4,853.5,0.188,58,170.5
5860,E-4,853.5,1.0,45,170.5
5861,E-4,854.0,0.188,61,170.5
5862,G#4,854.5,0.188,60,170.5
5863,E-4,854.5,0.188,44,170.5
5864,E-4,855.0,0.188,58,170.5
5865,E4,855.0,0.188,41,170.5
5866,C#4,855.5,0.188,41,170.5
5867,E-4,855.5,0.188,58,170.5
5868,G#4,855.5,0.188,58,170.5
5869,E-4,856.0,0.188,41,170.5
5870,B3,856.5,0.188,44,170.5
5871,B-4,856.5,0.75,61,170.5
5872,E-5,856.5,0.75,61,170.5
5873,G5,856.5,0.75,61,170.5
5874,B-5,856.5,0.75,61,170.5
5875,C#4,857.0,0.188,41,170.5
5876,A3,857.5,0.188,41,170.5
5877,B-4,857.5,0.188,58,170.5
5878,E-5,857.5,0.188,58,170.5
5879,G5,857.5,0.188,58,170.5
5880,B-5,857.5,0.188,58,170.5
5881,B3,858.0,0.188,41,170.5
5882,B-5,858.0,0.188,58,170.5
5883,B-4,858.0,0.188,58,170.5
5884,E-5,858.0,0.188,58,170.5
5885,G5,858.0,0.188,58,170.5
5886,G#3,858.5,0.188,48,170.5
5887,E-5,858.5,1.5,65,170.5
5888,F#5,858.5,1.5,65,170.5
5889,E-6,858.5,1.5,65,170.5
5890,C#4,859.0,0.188,39,170.5
5891,E-3,859.5,0.188,41,170.5
5892,E-5,860.0,0.188,56,170.5
5893,E-6,860.0,0.188,56,170.5
5894,F#5,860.0,0.188,56,170.5
5895,G3,860.0,0.188,42,170.5
5896,C#4,860.0,0.188,42,170.5
5897,G#3,860.5,0.188,46,170.5
5898,C#5,860.5,0.188,60,170.5
5899,E5,860.5,0.188,60,170.5
5900,C#6,860.5,0.188,60,170.5
5901,B3,861.0,0.188,42,170.5
5902,B-4,861.0,0.188,67,170.5
5903,B-5,861.0,0.188,67,170.5
5904,B4,861.5,0.188,60,170.5
5905,E-5,861.5,0.188,60,170.5
5906,B5,861.5,0.188,60,170.5
5907,G#3,861.5,0.188,50,170.5
5908,B3,861.5,0.188,50,170.5
5909,G#4,862.0,0.188,70,170.5
5910,G#5,862.0,0.188,70,170.5
5911,B-4,862.5,0.188,61,170.5
5912,E-5,862.5,0.188,61,170.5
5913,B-5,862.5,0.188,61,170.5
5914,E-3,862.5,0.188,48,170.5
5915,E-4,862.5,0.188,48,170.5
5916,E-4,863.0,0.188,61,170.5
5917,E-5,863.0,0.188,61,170.5
5918,E3,863.0,0.188,45,170.5
5919,E4,863.0,0.188,45,170.5
5920,E-4,863.5,0.188,62,170.5
5921,E-5,863.5,0.188,62,170.5
5922,C#3,863.5,0.188,45,170.5
5923,C#4,863.5,0.188,45,170.5
5924,E-3,864.0,0.188,45,170.5
5925,E-4,864.0,0.188,45,170.5
5926,B-4,864.5,0.75,63,170.5
5927,E-5,864.5,0.75,63,170.5
5928,G5,864.5,0.75,63,170.5
5929,B-5,864.5,0.75,63,170.5
5930,B2,864.5,0.188,48,170.5
5931,B3,864.5,0.188,48,170.5
5932,C#3,865.0,0.188,45,170.5
5933,C#4,865.0,0.188,45,170.5
5934,B-4,865.5,0.188,60,170.5
5935,E-5,865.5,0.188,60,170.5
5936,G5,865.5,0.188,60,170.5
5937,B-5,865.5,0.188,60,170.5
5938,A2,865.5,0.188,45,170.5
5939,A3,865.5,0.188,45,170.5
5940,B-5,866.0,0.188,60,170.5
5941,B-4,866.0,0.188,60,170.5
5942,E-5,866.0,0.188,60,170.5
5943,G5,866.0,0.188,60,170.5
5944,B2,866.0,0.188,45,170.5
5945,B3,866.0,0.188,45,170.5
5946,E-5,866.5,2.0,68,170.5
5947,F#5,866.5,2.0,68,170.5
5948,E-6,866.5,2.0,68,170.5
5949,G2,866.5,1.0,52,170.5
5950,G3,866.5,1.0,52,170.5
5951,G#2,867.5,1.0,45,170.5
5952,G#3,867.5,1.0,45,170.5
5953,D5,868.5,0.75,66,170.5
5954,G5,868.5,0.75,66,170.5
5955,B5,868.5,0.75,66,170.5
5956,D6,868.5,0.75,66,170.5
5957,E-2,868.5,0.188,48,170.5
5958,E-3,868.5,0.188,48,170.5
5959,G2,869.0,0.188,44,170.5
5960,G3,869.0,0.188,44,170.5
5961,D5,869.5,0.188,62,170.5
5962,G5,869.5,0.188,62,170.5
5963,B5,869.5,0.188,62,170.5
5964,D6,869.5,0.188,62,170.5
5965,B-2,869.5,0.188,44,170.5
5966,B-3,869.5,0.188,44,170.5
5967,D6,870.0,0.188,62,170.5
5968,D5,870.0,0.188,62,170.5
5969,G5,870.0,0.188,62,170.5
5970,B5,870.0,0.188,62,170.5
5971,D3,870.0,0.188,44,170.5
5972,D4,870.0,0.188,44,170.5
5973,G5,870.5,2.0,70,170.5
5974,B-5,870.5,2.0,70,170.5
5975,E-6,870.5,2.0,70,170.5
5976,G6,870.5,2.0,70,170.5
5977,E-3,870.5,0.188,50,170.5
5978,E-4,870.5,0.188,50,170.5
5979,E3,871.0,0.188,47,170.5
5980,E4,871.0,0.188,47,170.5
5981,C#3,871.5,0.188,47,170.5
5982,C#4,871.5,0.188,47,170.5
5983,E-3,872.0,0.188,47,170.5
5984,E-4,872.0,0.188,47,170.5
5985,G5,872.5,0.75,69,170.5
5986,C6,872.5,0.75,69,170.5
5987,E6,872.5,0.75,69,170.5
5988,G6,872.5,0.75,69,170.5
5989,B2,872.5,0.188,50,170.5
5990,B3,872.5,0.188,50,170.5
5991,C#3,873.0,0.188,47,170.5
5992,C#4,873.0,0.188,47,170.5
5993,G5,873.5,0.188,64,170.5
5994,C6,873.5,0.188,64,170.5
5995,E6,873.5,0.188,64,170.5
5996,G6,873.5,0.188,64,170.5
5997,A2,873.5,0.188,47,170.5
5998,A3,873.5,0.188,47,170.5
5999,G6,874.0,0.188,64,170.5
6000,G5,874.0,0.188,64,170.5
6001,C6,874.0,0.188,64,170.5
6002,E6,874.0,0.188,64,170.5
6003,B2,874.0,0.188,47,170.5
6004,B3,874.0,0.188,47,170.5
6005,C6,874.5,2.0,74,170.5
6006,E6,874.5,2.0,74,170.5
6007,G6,874.5,2.0,74,170.5
6008,C7,874.5,2.0,74,170.5
6009,G2,874.5,0.188,52,170.5
6010,G3,874.5,0.188,52,170.5
6011,A2,875.0,0.188,49,170.5
6012,A3,875.0,0.188,49,170.5
6013,F2,875.5,0.188,49,170.5
6014,F3,875.5,0.188,49,170.5
6015,G2,876.0,0.188,49,170.5
6016,G3,876.0,0.188,49,170.5
6017,G4,876.5,0.75,70,170.5
6018,C5,876.5,0.75,70,170.5
6019,E5,876.5,0.75,70,170.5
6020,G5,876.5,0.75,70,170.5
6021,E-2,876.5,0.188,52,170.5
6022,E-3,876.5,0.188,52,170.5
6023,F2,877.0,0.188,49,170.5
6024,F3,877.0,0.188,49,170.5
6025,G4,877.5,0.188,66,170.5
6026,C5,877.5,0.188,66,170.5
6027,E5,877.5,0.188,66,170.5
6028,G5,877.5,0.188,66,170.5
6029,C#2,877.5,0.188,49,170.5
6030,C#3,877.5,0.188,49,170.5
6031,G5,878.0,0.188,66,170.5
6032,G4,878.0,0.188,66,170.5
6033,C5,878.0,0.188,66,170.5
6034,E5,878.0,0.188,66,170.5
6035,E-2,878.0,0.188,49,170.5
6036,E-3,878.0,0.188,49,170.5
6037,C2,878.5,1.0,67,170.5
6038,C5,878.5,2.0,76,170.5
6039,E5,878.5,2.0,76,170.5
6040,G5,878.5,2.0,76,170.5
6041,C6,878.5,2.0,76,170.5
6042,C3,879.0,0.188,55,170.5
6043,B1,879.5,1.0,64,170.5
6044,B2,880.0,0.188,55,170.5
6045,A1,880.5,1.0,70,170.5
6046,G5,880.5,0.75,72,170.5
6047,C6,880.5,0.75,72,170.5
6048,E6,880.5,0.75,72,170.5
6049,G6,880.5,0.75,72,170.5
6050,A2,881.0,0.188,55,170.5
6051,G1,881.5,1.0,67,170.5
6052,G5,881.5,0.188,68,170.5
6053,C6,881.5,0.188,68,170.5
6054,E6,881.5,0.188,68,170.5
6055,G6,881.5,0.188,68,170.5
6056,G2,882.0,0.188,56,170.5
6057,G6,882.0,0.188,68,170.5
6058,G5,882.0,0.188,68,170.5
6059,C6,882.0,0.188,68,170.5
6060,E6,882.0,0.188,68,170.5
6061,C2,882.5,1.0,68,170.5
6062,C6,882.5,2.0,78,170.5
6063,E6,882.5,2.0,78,170.5
6064,G6,882.5,2.0,78,170.5
6065,C7,882.5,2.0,78,170.5
6066,C3,883.0,0.188,56,170.5
6067,D2,883.5,1.0,65,170.5
6068,D3,884.0,0.188,56,170.5
6069,E2,884.5,2.0,72,170.5
6070,G4,884.5,0.75,74,170.5
6071,C5,884.5,0.75,74,170.5
6072,E5,884.5,0.75,74,170.5
6073,G5,884.5,0.75,74,170.5
6074,E3,885.0,1.5,75,170.5
6075,G4,885.5,0.188,69,170.5
6076,C5,885.5,0.188,69,170.5
6077,E5,885.5,0.188,69,170.5
6078,G5,885.5,0.188,69,170.5
6079,G5,886.0,0.188,69,170.5
6080,G4,886.0,0.188,69,170.5
6081,C5,886.0,0.188,69,170.5
6082,E5,886.0,0.188,69,170.5
6083,C5,886.5,2.0,79,170.5
6084,E5,886.5,2.0,79,170.5
6085,G5,886.5,2.0,79,170.5
6086,C6,886.5,2.0,79,170.5
6087,C2,886.5,0.188,64,170.5
6088,C3,886.5,0.188,64,170.5
6089,C3,887.0,0.188,52,170.5
6090,C4,887.0,0.188,52,170.5
6091,B1,887.5,0.188,62,170.5
6092,B2,887.5,0.188,62,170.5
6093,B3,888.0,0.188,52,170.5
6094,B2,888.0,0.188,52,170.5
6095,C#6,888.5,0.75,77,170.5
6096,A6,888.5,0.75,77,170.5
6097,C#7,888.5,0.75,77,170.5
6098,A2,888.5,0.188,68,170.5
6099,A1,888.5,0.188,68,170.5
6100,A3,889.0,0.188,53,170.5
6101,A2,889.0,0.188,53,170.5
6102,C#6,889.5,0.188,72,170.5
6103,A6,889.5,0.188,72,170.5
6104,C#7,889.5,0.188,72,170.5
6105,G2,889.5,0.188,65,170.5
6106,G1,889.5,0.188,65,170.5
6107,C#7,890.0,0.188,72,170.5
6108,C#6,890.0,0.188,72,170.5
6109,A6,890.0,0.188,72,170.5
6110,G3,890.0,0.188,54,170.5
6111,G2,890.0,0.188,54,170.5
6112,C#7,890.5,2.0,81,170.5
6113,E6,890.5,2.0,81,170.5
6114,A6,890.5,2.0,81,170.5
6115,E7,890.5,2.0,81,170.5
6116,C2,890.5,0.188,65,170.5
6117,C3,890.5,0.188,65,170.5
6118,C3,891.0,0.188,54,170.5
6119,C4,891.0,0.188,54,170.5
6120,D2,891.5,0.188,64,170.5
6121,D3,891.5,0.188,64,170.5
6122,D4,892.0,0.188,54,170.5
6123,D3,892.0,0.188,54,170.5
6124,C#5,892.5,0.75,77,170.5
6125,A5,892.5,0.75,77,170.5
6126,C#6,892.5,0.75,77,170.5
6127,E3,892.5,0.188,69,170.5
6128,E2,892.5,0.188,69,170.5
6129,E4,893.0,1.5,72,170.5
6130,E3,893.0,1.5,72,170.5
6131,C#5,893.5,0.188,72,170.5
6132,A5,893.5,0.188,72,170.5
6133,C#6,893.5,0.188,72,170.5
6134,C#6,894.0,0.188,72,170.5
6135,C#5,894.0,0.188,72,170.5
6136,A5,894.0,0.188,72,170.5
6137,C#6,894.5,2.0,81,170.5
6138,E5,894.5,2.0,81,170.5
6139,A5,894.5,2.0,81,170.5
6140,E6,894.5,2.0,81,170.5
6141,A1,894.5,0.188,67,170.5
6142,A2,894.5,0.188,67,170.5
6143,A2,895.0,0.188,55,170.5
6144,A3,895.0,0.188,55,170.5
6145,G#1,895.5,0.188,64,170.5
6146,G#2,895.5,0.188,64,170.5
6147,G#3,896.0,0.188,55,170.5
6148,G#2,896.0,0.188,55,170.5
6149,C#6,896.5,0.75,77,170.5
6150,A6,896.5,0.75,77,170.5
6151,C#7,896.5,0.75,77,170.5
6152,F#2,896.5,0.188,70,170.5
6153,F#1,896.5,0.188,70,170.5
6154,F#3,897.0,0.188,55,170.5
6155,F#2,897.0,0.188,55,170.5
6156,C#6,897.5,0.188,72,170.5
6157,A6,897.5,0.188,72,170.5
6158,C#7,897.5,0.188,72,170.5
6159,E2,897.5,0.188,67,170.5
6160,E1,897.5,0.188,67,170.5
6161,C#7,898.0,0.188,72,170.5
6162,C#6,898.0,0.188,72,170.5
6163,A6,898.0,0.188,72,170.5
6164,E3,898.0,0.188,55,170.5
6165,E2,898.0,0.188,55,170.5
6166,C#7,898.5,2.0,81,170.5
6167,E6,898.5,2.0,81,170.5
6168,A6,898.5,2.0,81,170.5
6169,E7,898.5,2.0,81,170.5
6170,A1,898.5,0.188,67,170.5
6171,A2,898.5,0.188,67,170.5
6172,A2,899.0,0.188,55,170.5
6173,A3,899.0,0.188,55,170.5
6174,B1,899.5,0.188,64,170.5
6175,B2,899.5,0.188,64,170.5
6176,B3,900.0,0.188,55,170.5
6177,B2,900.0,0.188,55,170.5
6178,C#5,900.5,0.75,77,170.5
6179,A5,900.5,0.75,77,170.5
6180,C#6,900.5,0.75,77,170.5
6181,C#3,900.5,0.188,70,170.5
6182,C#2,900.5,0.188,70,170.5
6183,C#4,901.0,1.5,74,170.5
6184,C#3,901.0,1.5,74,170.5
6185,C#5,901.5,0.188,72,170.5
6186,A5,901.5,0.188,72,170.5
6187,C#6,901.5,0.188,72,170.5
6188,C#6,902.0,0.188,72,170.5
6189,C#5,902.0,0.188,72,170.5
6190,A5,902.0,0.188,72,170.5
6191,C#6,902.5,2.0,81,170.5
6192,E5,902.5,2.0,81,170.5
6193,A5,902.5,2.0,81,170.5
6194,E6,902.5,2.0,81,170.5
6195,A1,902.5,0.188,67,170.5
6196,A2,902.5,0.188,67,170.5
6197,A2,903.0,0.188,55,170.5
6198,A3,903.0,0.188,55,170.5
6199,G#1,903.5,0.188,64,170.5
6200,G#2,903.5,0.188,64,170.5
6201,G#3,904.0,0.188,55,170.5
6202,G#2,904.0,0.188,55,170.5
6203,F#3,904.5,1.0,76,170.5
6204,B-3,904.5,1.0,76,170.5
6205,C#4,904.5,1.0,76,170.5
6206,F#4,904.5,1.0,76,170.5
6207,F#2,904.5,0.188,70,170.5
6208,F#1,904.5,0.188,70,170.5
6209,F#3,905.0,0.188,55,170.5
6210,F#2,905.0,0.188,55,170.5
6211,B-3,905.5,1.0,71,170.5
6212,C#4,905.5,1.0,71,170.5
6213,F4,905.5,1.0,71,170.5
6214,F3,905.5,1.0,71,170.5
6215,E2,905.5,0.188,67,170.5
6216,E1,905.5,0.188,67,170.5
6217,E3,906.0,0.188,55,170.5
6218,E2,906.0,0.188,55,170.5
6219,E-3,906.5,1.0,75,170.5
6220,F#3,906.5,1.0,75,170.5
6221,B-3,906.5,1.0,75,170.5
6222,E-4,906.5,1.0,75,170.5
6223,A1,906.5,0.188,67,170.5
6224,A2,906.5,0.188,67,170.5
6225,A2,907.0,0.188,55,170.5
6226,A3,907.0,0.188,55,170.5
6227,F#3,907.5,1.0,71,170.5
6228,B-3,907.5,1.0,71,170.5
6229,C#4,907.5,1.0,71,170.5
6230,C#3,907.5,1.0,71,170.5
6231,B1,907.5,0.188,64,170.5
6232,B2,907.5,0.188,64,170.5
6233,B3,908.0,0.188,55,170.5
6234,B2,908.0,0.188,55,170.5
6235,F#3,908.5,9/20,76,170.5
6236,B-3,908.5,9/20,76,170.5
6237,C#4,908.5,9/20,76,170.5
6238,F#4,908.5,9/20,76,170.5
6239,C#3,908.5,0.188,70,170.5
6240,C#2,908.5,0.188,70,170.5
6241,F#3,909.0,9/20,71,170.5
6242,B-3,909.0,9/20,71,170.5
6243,C#4,909.0,9/20,71,170.5
6244,F#4,909.0,9/20,71,170.5
6245,C#4,909.0,1.375,74,170.5
6246,C#3,909.0,1.375,74,170.5
6247,G#3,909.5,1.0,77,170.5
6248,C#4,909.5,1.0,77,170.5
6249,G#4,909.5,1.0,77,170.5
6250,B-3,910.5,1.0,78,170.5
6251,C#4,910.5,1.0,78,170.5
6252,F#4,910.5,1.0,78,170.5
6253,B-4,910.5,1.0,78,170.5
6254,F#1,910.5,1.0,58,170.5
6255,B-1,910.5,1.0,58,170.5
6256,C#2,910.5,1.0,58,170.5
6257,F#2,910.5,1.0,58,170.5
6258,F1,911.5,1.0,53,170.5
6259,B-1,911.5,1.0,53,170.5
6260,C#2,911.5,1.0,53,170.5
6261,F2,911.5,1.0,53,170.5
6262,F#3,912.5,1.0,76,170.5
6263,B-3,912.5,1.0,76,170.5
6264,C#4,912.5,1.0,76,170.5
6265,F#4,912.5,1.0,76,170.5
6266,E-1,912.5,1.0,58,170.5
6267,F#1,912.5,1.0,58,170.5
6268,B-1,912.5,1.0,58,170.5
6269,E-2,912.5,1.0,58,170.5
6270,B-3,913.5,1.0,71,170.5
6271,C#4,913.5,1.0,71,170.5
6272,F4,913.5,1.0,71,170.5
6273,F3,913.5,1.0,71,170.5
6274,C#1,913.5,1.0,51,170.5
6275,F#1,913.5,1.0,51,170.5
6276,B-1,913.5,1.0,51,170.5
6277,C#2,913.5,1.0,51,170.5
6278,E-3,914.5,1.0,75,170.5
6279,F#3,914.5,1.0,75,170.5
6280,B-3,914.5,1.0,75,170.5
6281,E-4,914.5,1.0,75,170.5
6282,F#1,914.5,9/20,58,170.5
6283,B-1,914.5,9/20,58,170.5
6284,C#2,914.5,9/20,58,170.5
6285,F#2,914.5,9/20,58,170.5
6286,F#1,915.0,9/20,53,170.5
6287,B-1,915.0,9/20,53,170.5
6288,C#2,915.0,9/20,53,170.5
6289,F#2,915.0,9/20,53,170.5
6290,F#3,915.5,1.0,71,170.5
6291,B-3,915.5,1.0,71,170.5
6292,C#4,915.5,1.0,71,170.5
6293,C#3,915.5,1.0,71,170.5
6294,G#1,915.5,1.0,58,170.5
6295,C#2,915.5,1.0,58,170.5
6296,G#2,915.5,1.0,58,170.5
6297,F#3,916.5,9/20,76,170.5
6298,B-3,916.5,9/20,76,170.5
6299,C#4,916.5,9/20,76,170.5
6300,F#4,916.5,9/20,76,170.5
6301,B-1,916.5,1.0,60,170.5
6302,C#2,916.5,1.0,60,170.5
6303,F#2,916.5,1.0,60,170.5
6304,B-2,916.5,1.0,60,170.5
6305,F#3,917.0,9/20,71,170.5
6306,B-3,917.0,9/20,71,170.5
6307,C#4,917.0,9/20,71,170.5
6308,F#4,917.0,9/20,71,170.5
6309,G#3,917.5,1.0,77,170.5
6310,C#4,917.5,1.0,77,170.5
6311,G#4,917.5,1.0,77,170.5
6312,B-3,918.5,1.0,78,170.5
6313,C#4,918.5,1.0,78,170.5
6314,F#4,918.5,1.0,78,170.5
6315,B-4,918.5,1.0,78,170.5
6316,F#1,918.5,1.0,58,170.5
6317,B-1,918.5,1.0,58,170.5
6318,C#2,918.5,1.0,58,170.5
6319,F#2,918.5,1.0,58,170.5
6320,F1,919.5,1.0,53,170.5
6321,B-1,919.5,1.0,53,170.5
6322,C#2,919.5,1.0,53,170.5
6323,F2,919.5,1.0,53,170.5
6324,C#4,920.5,1.5,80,170.5
6325,F#4,920.5,1.5,80,170.5
6326,B-4,920.5,1.5,80,170.5
6327,C#5,920.5,1.5,80,170.5
6328,E-1,920.5,1.0,58,170.5
6329,F#1,920.5,1.0,58,170.5
6330,B-1,920.5,1.0,58,170.5
6331,E-2,920.5,1.0,58,170.5
6332,C#1,921.5,1.0,51,170.5
6333,F#1,921.5,1.0,51,170.5
6334,B-1,921.5,1.0,51,170.5
6335,C#2,921.5,1.0,51,170.5
6336,C#4,922.0,0.5,75,170.5
6337,F#4,922.0,0.5,75,170.5
6338,B-4,922.0,0.5,75,170.5
6339,C#5,922.0,0.5,75,170.5
6340,E-4,922.5,1.0,82,170.5
6341,F#4,922.5,1.0,82,170.5
6342,B4,922.5,1.0,82,170.5
6343,E-5,922.5,1.0,82,170.5
6344,F#1,922.5,9/20,58,170.5
6345,B-1,922.5,9/20,58,170.5
6346,C#2,922.5,9/20,58,170.5
6347,F#2,922.5,9/20,58,170.5
6348,F#1,923.0,9/20,53,170.5
6349,B-1,923.0,9/20,53,170.5
6350,C#2,923.0,9/20,53,170.5
6351,F#2,923.0,9/20,53,170.5
6352,C#4,923.5,1.0,76,170.5
6353,F#4,923.5,1.0,76,170.5
6354,B-4,923.5,1.0,76,170.5
6355,C#5,923.5,1.0,76,170.5
6356,G#1,923.5,1.0,58,170.5
6357,C#2,923.5,1.0,58,170.5
6358,G#2,923.5,1.0,58,170.5
6359,B-3,924.5,1.5,86,170.5
6360,B-4,924.5,1.5,86,170.5
6361,B-1,924.5,1.0,60,170.5
6362,C#2,924.5,1.0,60,170.5
6363,F#2,924.5,1.0,60,170.5
6364,B-2,924.5,1.0,60,170.5
6365,B-3,926.0,0.5,80,170.5
6366,G#4,926.0,0.5,80,170.5
6367,B-3,926.5,0.25,84,170.5
6368,F#4,926.5,0.25,84,170.5
6369,F#2,926.5,1.5,65,170.5
6370,B-2,926.5,1.5,65,170.5
6371,C#3,926.5,1.5,65,170.5
6372,F#3,926.5,1.5,65,170.5
6373,B-3,927.0,0.25,78,170.5
6374,F4,927.0,0.25,78,170.5
6375,B-3,927.5,0.5,78,170.5
6376,E-4,927.5,0.5,78,170.5
6377,F#2,928.0,0.5,60,170.5
6378,B-2,928.0,0.5,60,170.5
6379,C#3,928.0,0.5,60,170.5
6380,F#3,928.0,0.5,60,170.5
6381,F#4,928.5,1.0,66,170.5
6382,B-4,928.5,1/5,78,170.5
6383,B2,928.5,1.0,65,170.5
6384,E-3,928.5,1.0,65,170.5
6385,F#3,928.5,1.0,65,170.5
6386,B3,928.5,1.0,65,170.5
6387,B4,928.7,1/5,73,170.5
6388,B-4,928.9,1/5,73,170.5
6389,A4,929.1,1/5,73,170.5
6390,B-4,929.3,1/5,73,170.5
6391,G#4,929.5,0.25,68,170.5
6392,B4,929.5,0.25,68,170.5
6393,F#2,929.5,1.0,62,170.5
6394,B-2,929.5,1.0,62,170.5
6395,C#3,929.5,1.0,62,170.5
6396,F#3,929.5,1.0,62,170.5
6397,F#4,930.0,0.25,64,170.5
6398,B-4,930.0,0.25,64,170.5
6399,F4,930.5,0.25,74,170.5
6400,G#4,930.5,0.25,74,170.5
6401,B-1,930.5,1.5,68,170.5
6402,B-2,930.5,1.5,68,170.5
6403,E-4,931.0,0.25,68,170.5
6404,F#4,931.0,0.25,68,170.5
6405,B-3,931.5,0.5,68,170.5
6406,F4,931.5,0.5,68,170.5
6407,D2,932.0,0.5,62,170.5
6408,B-2,932.0,0.5,62,170.5
6409,F#3,932.5,0.5,80,170.5
6410,B-3,932.5,0.5,80,170.5
6411,E-4,932.5,0.5,80,170.5
6412,E-2,932.5,0.25,66,170.5
6413,B-2,932.5,0.25,66,170.5
6414,F2,933.0,0.25,64,170.5
6415,B-2,933.0,0.25,64,170.5
6416,F#2,933.5,0.5,64,170.5
6417,B-2,933.5,0.5,64,170.5
6418,C#5,934.5,1.5,80,170.5
6419,F#5,934.5,1.5,80,170.5
6420,B-5,934.5,1.5,80,170.5
6421,C#6,934.5,1.5,80,170.5
6422,F#3,934.5,1.0,72,170.5
6423,B-3,934.5,1.0,72,170.5
6424,G#3,935.5,0.25,64,170.5
6425,B3,935.5,0.25,64,170.5
6426,C#5,936.0,0.5,75,170.5
6427,F#5,936.0,0.5,75,170.5
6428,B-5,936.0,0.5,75,170.5
6429,C#6,936.0,0.5,75,170.5
6430,F#3,936.0,0.25,64,170.5
6431,B-3,936.0,0.25,64,170.5
6432,E-5,936.5,1.0,82,170.5
6433,F#5,936.5,1.0,82,170.5
6434,B5,936.5,1.0,82,170.5
6435,E-6,936.5,1.0,82,170.5
6436,F3,936.5,0.25,68,170.5
6437,G#3,936.5,0.25,68,170.5
6438,E-3,937.0,0.25,64,170.5
6439,F#3,937.0,0.25,64,170.5
6440,C#5,937.5,1.0,76,170.5
6441,F#5,937.5,1.0,76,170.5
6442,B-5,937.5,1.0,76,170.5
6443,C#6,937.5,1.0,76,170.5
6444,B-2,937.5,0.5,64,170.5
6445,F3,937.5,0.5,64,170.5
6446,B-4,938.5,1.5,86,170.5
6447,B-5,938.5,1.5,86,170.5
6448,E-2,938.5,0.5,68,170.5
6449,B-2,938.5,0.5,68,170.5
6450,E-3,938.5,0.5,68,170.5
6451,G#4,940.0,0.5,80,170.5
6452,G#5,940.0,0.5,80,170.5
6453,F#4,940.5,0.25,84,170.5
6454,F#5,940.5,0.25,84,170.5
6455,F#2,940.5,1.5,65,170.5
6456,B-2,940.5,1.5,65,170.5
6457,C#3,940.5,1.5,65,170.5
6458,F#3,940.5,1.5,65,170.5
6459,F4,941.0,0.25,78,170.5
6460,F5,941.0,0.25,78,170.5
6461,E-4,941.5,0.5,78,170.5
6462,E-5,941.5,0.5,78,170.5
6463,F#2,942.0,0.5,60,170.5
6464,B-2,942.0,0.5,60,170.5
6465,C#3,942.0,0.5,60,170.5
6466,F#3,942.0,0.5,60,170.5
6467,F#5,942.5,1.0,66,170.5
6468,B-5,942.5,1/5,78,170.5
6469,B2,942.5,1.0,65,170.5
6470,E-3,942.5,1.0,65,170.5
6471,F#3,942.5,1.0,65,170.5
6472,B3,942.5,1.0,65,170.5
6473,B5,942.7,1/5,73,170.5
6474,B-5,942.9,1/5,73,170.5
6475,A5,943.1,1/5,73,170.5
6476,B-5,943.3,1/5,73,170.5
6477,B4,943.5,0.25,68,170.5
6478,B5,943.5,0.25,68,170.5
6479,F#2,943.5,1.0,62,170.5
6480,B-2,943.5,1.0,62,170.5
6481,C#3,943.5,1.0,62,170.5
6482,F#3,943.5,1.0,62,170.5
6483,B-4,944.0,0.25,64,170.5
6484,B-5,944.0,0.25,64,170.5
6485,G#4,944.5,0.25,74,170.5
6486,G#5,944.5,0.25,74,170.5
6487,B-1,944.5,1.5,68,170.5
6488,B-2,944.5,1.5,68,170.5
6489,F#4,945.0,0.25,68,170.5
6490,F#5,945.0,0.25,68,170.5
6491,F4,945.5,0.5,68,170.5
6492,F5,945.5,0.5,68,170.5
6493,B-2,946.0,0.5,60,170.5
6494,D2,946.0,0.5,60,170.5
6495,D3,946.0,0.5,60,170.5
6496,E-4,946.5,0.5,80,170.5
6497,B-4,946.5,0.5,80,170.5
6498,E-5,946.5,0.5,80,170.5
6499,B-2,946.5,0.25,65,170.5
6500,E-2,946.5,0.25,65,170.5
6501,E-3,946.5,0.25,65,170.5
6502,B-2,947.0,0.25,62,170.5
6503,F2,947.0,0.25,62,170.5
6504,F3,947.0,0.25,62,170.5
6505,B-2,947.5,0.5,62,170.5
6506,F#2,947.5,0.5,62,170.5
6507,F#3,947.5,0.5,62,170.5
6508,F#3,948.5,0.375,68,170.5
6509,B-3,948.5,0.375,68,170.5
6510,C#4,948.5,0.375,68,170.5
6511,F#4,948.5,0.375,68,170.5
6512,B-3,948.5,1.0,70,170.5
6513,F#3,948.5,1.0,70,170.5
6514,F#4,948.5,1.0,70,170.5
6515,F#3,949.0,0.375,58,170.5
6516,B-3,949.0,0.375,58,170.5
6517,C#4,949.0,0.375,58,170.5
6518,F#4,949.0,0.375,58,170.5
6519,G#3,949.5,0.25,64,170.5
6520,G#4,949.5,0.25,64,170.5
6521,B-3,950.0,0.375,56,170.5
6522,C#4,950.0,0.375,56,170.5
6523,F4,950.0,0.375,56,170.5
6524,F3,950.0,0.375,56,170.5
6525,F#3,950.0,0.25,64,170.5
6526,F#4,950.0,0.25,64,170.5
6527,F3,950.5,0.25,68,170.5
6528,F4,950.5,0.25,68,170.5
6529,E-3,951.0,0.375,60,170.5
6530,F#3,951.0,0.375,60,170.5
6531,B-3,951.0,0.375,60,170.5
6532,E-4,951.0,0.375,60,170.5
6533,E-3,951.0,0.25,64,170.5
6534,E-4,951.0,0.25,64,170.5
6535,B-2,951.5,0.5,64,170.5
6536,B-3,951.5,0.5,64,170.5
6537,F#3,952.0,0.375,56,170.5
6538,B-3,952.0,0.375,56,170.5
6539,C#4,952.0,0.375,56,170.5
6540,C#3,952.0,0.375,56,170.5
6541,E-3,952.5,0.5,68,170.5
6542,F#3,952.5,0.5,68,170.5
6543,B-3,952.5,0.5,68,170.5
6544,F#3,953.0,169/500,56,170.5
6545,B-3,953.0,169/500,56,170.5
6546,C#4,953.0,169/500,56,170.5
6547,F#4,953.0,169/500,56,170.5
6548,G#3,954.0,0.375,62,170.5
6549,C#4,954.0,0.375,62,170.5
6550,G#4,954.0,0.375,62,170.5
6551,F#1,954.5,1.0,69,170.5
6552,B-1,954.5,1.0,69,170.5
6553,C#2,954.5,1.0,69,170.5
6554,F#2,954.5,1.0,69,170.5
6555,B-3,955.0,0.375,63,170.5
6556,C#4,955.0,0.375,63,170.5
6557,F#4,955.0,0.375,63,170.5
6558,B-4,955.0,0.375,63,170.5
6559,F1,955.5,1.0,64,170.5
6560,B-1,955.5,1.0,64,170.5
6561,C#2,955.5,1.0,64,170.5
6562,F2,955.5,1.0,64,170.5
6563,F#3,956.5,0.375,68,170.5
6564,B-3,956.5,0.375,68,170.5
6565,C#4,956.5,0.375,68,170.5
6566,F#4,956.5,0.375,68,170.5
6567,E-1,956.5,1.0,69,170.5
6568,F#1,956.5,1.0,69,170.5
6569,B-1,956.5,1.0,69,170.5
6570,E-2,956.5,1.0,69,170.5
6571,F#3,957.0,0.375,58,170.5
6572,B-3,957.0,0.375,58,170.5
6573,C#4,957.0,0.375,58,170.5
6574,F#4,957.0,0.375,58,170.5
6575,C#1,957.5,1.0,61,170.5
6576,F#1,957.5,1.0,61,170.5
6577,B-1,957.5,1.0,61,170.5
6578,C#2,957.5,1.0,61,170.5
6579,B-3,958.0,0.375,56,170.5
6580,C#4,958.0,0.375,56,170.5
6581,F4,958.0,0.375,56,170.5
6582,F3,958.0,0.375,56,170.5
6583,F#1,958.5,1.0,69,170.5
6584,B-1,958.5,1.0,69,170.5
6585,C#2,958.5,1.0,69,170.5
6586,F#2,958.5,1.0,69,170.5
6587,E-3,959.0,0.375,60,170.5
6588,F#3,959.0,0.375,60,170.5
6589,B-3,959.0,0.375,60,170.5
6590,E-4,959.0,0.375,60,170.5
6591,G#1,959.5,1.0,70,170.5
6592,C#2,959.5,1.0,70,170.5
6593,G#2,959.5,1.0,70,170.5
6594,F#3,960.0,0.375,56,170.5
6595,B-3,960.0,0.375,56,170.5
6596,C#4,960.0,0.375,56,170.5
6597,C#3,960.0,0.375,56,170.5
6598,B-1,960.5,1.0,71,170.5
6599,C#2,960.5,1.0,71,170.5
6600,F#2,960.5,1.0,71,170.5
6601,B-2,960.5,1.0,71,170.5
6602,F#3,961.0,169/500,56,170.5
6603,B-3,961.0,169/500,56,170.5
6604,C#4,961.0,169/500,56,170.5
6605,F#4,961.0,169/500,56,170.5
6606,G#3,962.0,0.375,62,170.5
6607,C#4,962.0,0.375,62,170.5
6608,G#4,962.0,0.375,62,170.5
6609,F#1,962.5,1.0,69,170.5
6610,B-1,962.5,1.0,69,170.5
6611,C#2,962.5,1.0,69,170.5
6612,F#2,962.5,1.0,69,170.5
6613,B-3,963.0,0.375,63,170.5
6614,C#4,963.0,0.375,63,170.5
6615,F#4,963.0,0.375,63,170.5
6616,B-4,963.0,0.375,63,170.5
6617,F1,963.5,1.0,64,170.5
6618,B-1,963.5,1.0,64,170.5
6619,C#2,963.5,1.0,64,170.5
6620,F2,963.5,1.0,64,170.5
6621,C#4,964.5,1.5,80,170.5
6622,F#4,964.5,1.5,80,170.5
6623,B-4,964.5,1.5,80,170.5
6624,C#5,964.5,1.5,80,170.5
6625,E-1,964.5,1.0,69,170.5
6626,F#1,964.5,1.0,69,170.5
6627,B-1,964.5,1.0,69,170.5
6628,E-2,964.5,1.0,69,170.5
6629,C#1,965.5,1.0,61,170.5
6630,F#1,965.5,1.0,61,170.5
6631,B-1,965.5,1.0,61,170.5
6632,C#2,965.5,1.0,61,170.5
6633,C#4,966.0,0.5,75,170.5
6634,F#4,966.0,0.5,75,170.5
6635,B-4,966.0,0.5,75,170.5
6636,C#5,966.0,0.5,75,170.5
6637,E-4,966.5,1.0,82,170.5
6638,F#4,966.5,1.0,82,170.5
6639,B4,966.5,1.0,82,170.5
6640,E-5,966.5,1.0,82,170.5
6641,F#1,966.5,1.0,69,170.5
6642,B-1,966.5,1.0,69,170.5
6643,C#2,966.5,1.0,69,170.5
6644,F#2,966.5,1.0,69,170.5
6645,C#4,967.5,1.0,76,170.5
6646,F#4,967.5,1.0,76,170.5
6647,B-4,967.5,1.0,76,170.5
6648,C#5,967.5,1.0,76,170.5
6649,G#1,967.5,1.0,70,170.5
6650,C#2,967.5,1.0,70,170.5
6651,G#2,967.5,1.0,70,170.5
6652,B-3,968.5,1.5,86,170.5
6653,B-4,968.5,1.5,86,170.5
6654,B-1,968.5,1.0,71,170.5
6655,C#2,968.5,1.0,71,170.5
6656,F#2,968.5,1.0,71,170.5
6657,B-2,968.5,1.0,71,170.5
6658,B-3,970.0,0.5,80,170.5
6659,G#4,970.0,0.5,80,170.5
6660,B-3,970.5,0.25,84,170.5
6661,F#4,970.5,0.25,84,170.5
6662,F#2,970.5,1.5,65,170.5
6663,B-2,970.5,1.5,65,170.5
6664,C#3,970.5,1.5,65,170.5
6665,F#3,970.5,1.5,65,170.5
6666,B-3,971.0,0.25,78,170.5
6667,F4,971.0,0.25,78,170.5
6668,B-3,971.5,0.5,78,170.5
6669,E-4,971.5,0.5,78,170.5
6670,F#2,972.0,0.5,60,170.5
6671,B-2,972.0,0.5,60,170.5
6672,C#3,972.0,0.5,60,170.5
6673,F#3,972.0,0.5,60,170.5
6674,F#4,972.5,1.0,66,170.5
6675,B-4,972.5,1/5,78,170.5
6676,B2,972.5,1.0,65,170.5
6677,E-3,972.5,1.0,65,170.5
6678,F#3,972.5,1.0,65,170.5
6679,B3,972.5,1.0,65,170.5
6680,B4,972.7,1/5,73,170.5
6681,B-4,972.9,1/5,73,170.5
6682,A4,973.1,1/5,73,170.5
6683,B-4,973.3,1/5,73,170.5
6684,G#4,973.5,0.25,68,170.5
6685,B4,973.5,0.25,68,170.5
6686,F#2,973.5,1.0,62,170.5
6687,B-2,973.5,1.0,62,170.5
6688,C#3,973.5,1.0,62,170.5
6689,F#3,973.5,1.0,62,170.5
6690,F#4,974.0,0.25,64,170.5
6691,B-4,974.0,0.25,64,170.5
6692,F4,974.5,0.25,74,170.5
6693,G#4,974.5,0.25,74,170.5
6694,B-1,974.5,1.5,68,170.5
6695,B-2,974.5,1.5,68,170.5
6696,E-4,975.0,0.25,68,170.5
6697,F#4,975.0,0.25,68,170.5
6698,B-3,975.5,0.5,68,170.5
6699,F4,975.5,0.5,68,170.5
6700,D2,976.0,0.5,62,170.5
6701,B-2,976.0,0.5,62,170.5
6702,F#3,976.5,0.5,80,170.5
6703,B-3,976.5,0.5,80,170.5
6704,E-4,976.5,0.5,80,170.5
6705,E-2,976.5,0.25,66,170.5
6706,B-2,976.5,0.25,66,170.5
6707,F2,977.0,0.25,64,170.5
6708,B-2,977.0,0.25,64,170.5
6709,F#2,977.5,0.5,64,170.5
6710,B-2,977.5,0.5,64,170.5
6711,C#5,978.5,1.5,80,170.5
6712,F#5,978.5,1.5,80,170.5
6713,B-5,978.5,1.5,80,170.5
6714,C#6,978.5,1.5,80,170.5
6715,F#3,978.5,1.0,72,170.5
6716,B-3,978.5,1.0,72,170.5
6717,G#3,979.5,0.25,64,170.5
6718,B3,979.5,0.25,64,170.5
6719,C#5,980.0,0.5,75,170.5
6720,F#5,980.0,0.5,75,170.5
6721,B-5,980.0,0.5,75,170.5
6722,C#6,980.0,0.5,75,170.5
6723,F#3,980.0,0.25,64,170.5
6724,B-3,980.0,0.25,64,170.5
6725,E-5,980.5,1.0,82,170.5
6726,F#5,980.5,1.0,82,170.5
6727,B5,980.5,1.0,82,170.5
6728,E-6,980.5,1.0,82,170.5
6729,F3,980.5,0.25,68,170.5
6730,G#3,980.5,0.25,68,170.5
6731,E-3,981.0,0.25,64,170.5
6732,F#3,981.0,0.25,64,170.5
6733,C#5,981.5,1.0,76,170.5
6734,F#5,981.5,1.0,76,170.5
6735,B-5,981.5,1.0,76,170.5
6736,C#6,981.5,1.0,76,170.5
6737,B-2,981.5,0.5,64,170.5
6738,F3,981.5,0.5,64,170.5
6739,B-4,982.5,1.5,86,170.5
6740,B-5,982.5,1.5,86,170.5
6741,E-2,982.5,0.5,68,170.5
6742,B-2,982.5,0.5,68,170.5
6743,E-3,982.5,0.5,68,170.5
6744,G#4,984.0,0.5,80,170.5
6745,G#5,984.0,0.5,80,170.5
6746,F#4,984.5,0.25,84,170.5
6747,F#5,984.5,0.25,84,170.5
6748,F#2,984.5,1.5,65,170.5
6749,B-2,984.5,1.5,65,170.5
6750,C#3,984.5,1.5,65,170.5
6751,F#3,984.5,1.5,65,170.5
6752,F4,985.0,0.25,78,170.5
6753,F5,985.0,0.25,78,170.5
6754,E-4,985.5,0.5,78,170.5
6755,E-5,985.5,0.5,78,170.5
6756,F#2,986.0,0.5,60,170.5
6757,B-2,986.0,0.5,60,170.5
6758,C#3,986.0,0.5,60,170.5
6759,F#3,986.0,0.5,60,170.5
6760,F#5,986.5,1.0,66,170.5
6761,B-5,986.5,1/5,78,170.5
6762,B2,986.5,1.0,65,170.5
6763,E-3,986.5,1.0,65,170.5
6764,F#3,986.5,1.0,65,170.5
6765,B3,986.5,1.0,65,170.5
6766,B5,986.7,1/5,73,170.5
6767,B-5,986.9,1/5,73,170.5
6768,A5,987.1,1/5,73,170.5
6769,B-5,987.3,1/5,73,170.5
6770,B4,987.5,0.25,68,170.5
6771,B5,987.5,0.25,68,170.5
6772,F#2,987.5,1.0,62,170.5
6773,B-2,987.5,1.0,62,170.5
6774,C#3,987.5,1.0,62,170.5
6775,F#3,987.5,1.0,62,170.5
6776,B-4,988.0,0.25,64,170.5
6777,B-5,988.0,0.25,64,170.5
6778,G#4,988.5,0.25,74,170.5
6779,G#5,988.5,0.25,74,170.5
6780,B-1,988.5,1.5,68,170.5
6781,B-2,988.5,1.5,68,170.5
6782,F#4,989.0,0.25,68,170.5
6783,F#5,989.0,0.25,68,170.5
6784,F4,989.5,0.5,68,170.5
6785,F5,989.5,0.5,68,170.5
6786,B-2,990.0,0.5,60,170.5
6787,D2,990.0,0.5,60,170.5
6788,D3,990.0,0.5,60,170.5
6789,F#4,990.5,1.0,66,170.5
6790,B-4,990.5,1/5,78,170.5
6791,B-2,990.5,0.25,65,170.5
6792,E-2,990.5,0.25,65,170.5
6793,E-3,990.5,0.25,65,170.5
6794,B4,990.7,1/5,73,170.5
6795,B-4,990.9,1/5,73,170.5
6796,B-2,991.0,0.25,62,170.5
6797,F2,991.0,0.25,62,170.5
6798,F3,991.0,0.25,62,170.5
6799,A4,991.1,1/5,73,170.5
6800,B-4,991.3,1/5,73,170.5
6801,G#4,991.5,0.25,68,170.5
6802,B4,991.5,0.25,68,170.5
6803,B-2,991.5,0.5,62,170.5
6804,F#2,991.5,0.5,62,170.5
6805,F#3,991.5,0.5,62,170.5
6806,F#4,992.0,0.25,64,170.5
6807,B-4,992.0,0.25,64,170.5
6808,F4,992.5,0.25,74,170.5
6809,G#4,992.5,0.25,74,170.5
6810,B-3,992.5,1.0,70,170.5
6811,F#3,992.5,1.0,70,170.5
6812,F#4,992.5,1.0,70,170.5
6813,E-4,993.0,0.25,68,170.5
6814,F#4,993.0,0.25,68,170.5
6815,B-3,993.5,0.5,68,170.5
6816,F4,993.5,0.5,68,170.5
6817,G#3,993.5,0.25,64,170.5
6818,G#4,993.5,0.25,64,170.5
6819,F#3,994.0,0.25,64,170.5
6820,F#4,994.0,0.25,64,170.5
6821,F#3,994.5,1.0,66,170.5
6822,B-3,994.5,1/5,78,170.5
6823,F3,994.5,0.25,68,170.5
6824,F4,994.5,0.25,68,170.5
6825,B3,994.7,1/5,73,170.5
6826,B-3,994.9,1/5,73,170.5
6827,E-3,995.0,0.25,64,170.5
6828,E-4,995.0,0.25,64,170.5
6829,A3,995.1,1/5,73,170.5
6830,B-3,995.3,1/5,73,170.5
6831,G#3,995.5,0.25,68,170.5
6832,B3,995.5,0.25,68,170.5
6833,B-2,995.5,0.5,64,170.5
6834,B-3,995.5,0.5,64,170.5
6835,F#3,996.0,0.25,64,170.5
6836,B-3,996.0,0.25,64,170.5
6837,F3,996.5,0.25,74,170.5
6838,G#3,996.5,0.25,74,170.5
6839,F#3,996.5,1.0,72,170.5
6840,B-3,996.5,1.0,72,170.5
6841,E-3,997.0,0.25,68,170.5
6842,F#3,997.0,0.25,68,170.5
6843,B-2,997.5,0.5,68,170.5
6844,F3,997.5,0.5,68,170.5
6845,G#3,997.5,0.25,64,170.5
6846,B3,997.5,0.25,64,170.5
6847,F#3,998.0,0.25,64,170.5
6848,B-3,998.0,0.25,64,170.5
6849,E-3,998.5,1.0,86,170.5
6850,F3,998.5,0.25,68,170.5
6851,G#3,998.5,0.25,68,170.5
6852,E-3,999.0,0.25,64,170.5
6853,F#3,999.0,0.25,64,170.5
6854,G3,999.5,0.5,58,170.5
6855,B-3,999.5,0.5,58,170.5
6856,E-4,999.5,0.5,58,170.5
6857,G4,999.5,0.5,58,170.5
6858,B-2,999.5,0.5,64,170.5
6859,F3,999.5,0.5,64,170.5
6860,G5,1000.0,0.5,58,170.5
6861,E-5,1000.0,0.5,58,170.5
6862,B-4,1000.0,0.5,58,170.5
6863,G4,1000.0,0.5,58,170.5
6864,G6,1000.5,0.5,66,170.5
6865,E-6,1000.5,0.5,66,170.5
6866,B-5,1000.5,0.5,66,170.5
6867,G5,1000.5,0.5,66,170.5
6868,F#2,1000.5,1.0,72,170.5
6869,B-2,1000.5,1.0,72,170.5
6870,G7,1001.0,0.5,72,170.5
6871,E-7,1001.0,0.5,72,170.5
6872,B-6,1001.0,0.5,72,170.5
6873,G6,1001.0,0.5,72,170.5
6874,G#2,1001.5,0.25,64,170.5
6875,B2,1001.5,0.25,64,170.5
6876,F#2,1002.0,0.25,64,170.5
6877,B-2,1002.0,0.25,64,170.5
6878,B-2,1002.5,49/100,82,170.5
6879,B-3,1002.5,1.0,86,170.5
6880,F2,1002.5,0.25,68,170.5
6881,G#2,1002.5,0.25,68,170.5
6882,E-2,1003.0,0.25,64,170.5
6883,F#2,1003.0,0.25,64,170.5
6884,G3,1003.5,0.5,58,170.5
6885,B-3,1003.5,0.5,58,170.5
6886,E-4,1003.5,0.5,58,170.5
6887,G4,1003.5,0.5,58,170.5
6888,B-1,1003.5,0.5,64,170.5
6889,F2,1003.5,0.5,64,170.5
6890,G5,1004.0,0.5,58,170.5
6891,E-5,1004.0,0.5,58,170.5
6892,B-4,1004.0,0.5,58,170.5
6893,G4,1004.0,0.5,58,170.5
6894,E-1,1004.375,0.125,58,170.5
6895,G1,1004.375,0.125,58,170.5
6896,B-1,1004.458,21/500,64,170.5
6897,E-2,1004.458,21/500,64,170.5
6898,G6,1004.5,0.5,66,170.5
6899,E-6,1004.5,0.5,66,170.5
6900,B-5,1004.5,0.5,66,170.5
6901,G5,1004.5,0.5,66,170.5
6902,E-1,1004.5,229/500,58,170.5
6903,G1,1004.5,229/500,58,170.5
6904,B-1,1004.5,229/500,64,170.5
6905,E-2,1004.5,229/500,64,170.5
6906,G7,1005.0,0.5,71,170.5
6907,E-7,1005.0,0.5,71,170.5
6908,B-6,1005.0,0.5,71,170.5
6909,G6,1005.0,0.5,71,170.5
6910,E-2,1005.0,0.5,62,170.5
6911,B-2,1005.0,0.5,62,170.5
6912,E-3,1005.0,0.5,62,170.5
6913,G2,1006.25,0.25,79,170.5
6914,G3,1006.25,0.25,79,170.5
6915,G2,1006.25,0.25,79,170.5
6916,G3,1006.25,0.25,79,170.5
6917,G#2,1006.5,1.0,80,170.5
6918,G#3,1006.5,1.0,80,170.5
6919,G#2,1006.5,1.0,85,170.5
6920,G#3,1006.5,1.0,85,170.5
6921,F3,1007.5,0.5,58,170.5
6922,B-3,1007.5,0.5,58,170.5
6923,D4,1007.5,0.5,58,170.5
6924,F4,1007.5,0.5,58,170.5
6925,A2,1007.5,0.875,84,170.5
6926,A3,1007.5,0.875,84,170.5
6927,F5,1008.0,0.5,58,170.5
6928,D5,1008.0,0.5,58,170.5
6929,B-4,1008.0,0.5,58,170.5
6930,F4,1008.0,0.5,58,170.5
6931,E-1,1008.375,0.125,58,170.5
6932,G1,1008.375,0.125,58,170.5
6933,B-1,1008.458,21/500,64,170.5
6934,E-2,1008.458,21/500,64,170.5
6935,F6,1008.5,0.5,64,170.5
6936,D6,1008.5,0.5,64,170.5
6937,B-5,1008.5,0.5,64,170.5
6938,F5,1008.5,0.5,64,170.5
6939,E-1,1008.5,229/500,58,170.5
6940,G1,1008.5,229/500,58,170.5
6941,B-1,1008.5,229/500,64,170.5
6942,E-2,1008.5,229/500,64,170.5
6943,F7,1009.0,0.5,74,170.5
6944,D7,1009.0,0.5,74,170.5
6945,B-6,1009.0,0.5,74,170.5
6946,F6,1009.0,0.5,74,170.5
6947,E-2,1009.0,0.5,62,170.5
6948,B-2,1009.0,0.5,62,170.5
6949,E-3,1009.0,0.5,62,170.5
6950,B-2,1010.5,1.0,86,170.5
6951,B-3,1010.5,1.0,86,170.5
6952,E-3,1010.5,1.0,76,170.5
6953,E-4,1010.5,1.0,76,170.5
6954,G3,1011.5,0.5,58,170.5
6955,B-3,1011.5,0.5,58,170.5
6956,E-4,1011.5,0.5,58,170.5
6957,G4,1011.5,0.5,58,170.5
6958,G5,1012.0,0.5,58,170.5
6959,E-5,1012.0,0.5,58,170.5
6960,B-4,1012.0,0.5,58,170.5
6961,G4,1012.0,0.5,58,170.5
6962,E-1,1012.375,0.125,58,170.5
6963,B-1,1012.438,0.062,58,170.5
6964,D2,1012.5,0.5,69,170.5
6965,E-1,1012.5,0.5,58,170.5
6966,B-1,1012.5,0.5,58,170.5
6967,G6,1012.5,0.5,68,170.5
6968,E-6,1012.5,0.5,68,170.5
6969,B-5,1012.5,0.5,68,170.5
6970,G5,1012.5,0.5,68,170.5
6971,G7,1013.0,0.5,74,170.5
6972,E-7,1013.0,0.5,74,170.5
6973,B-6,1013.0,0.5,74,170.5
6974,G6,1013.0,0.5,74,170.5
6975,F2,1013.0,0.5,62,170.5
6976,B-2,1013.0,0.5,62,170.5
6977,D3,1013.0,0.5,62,170.5
6978,G#2,1013.5,0.75,77,170.5
6979,G#3,1013.5,0.75,77,170.5
6980,B-2,1014.0,167/1000,71,170.5
6981,C3,1014.167,167/1000,73,170.5
6982,G2,1014.25,0.25,79,170.5
6983,G3,1014.25,0.25,79,170.5
6984,D3,1014.333,13/125,75,170.5
6985,E-3,1014.5,1.0,86,170.5
6986,G#2,1014.5,1.0,85,170.5
6987,G#3,1014.5,1.0,85,170.5
6988,E-4,1015.5,0.5,58,170.5
6989,B-3,1015.5,0.5,58,170.5
6990,G3,1015.5,0.5,58,170.5
6991,G4,1015.5,0.5,58,170.5
6992,A2,1015.5,0.875,84,170.5
6993,A3,1015.5,0.875,84,170.5
6994,G4,1016.0,0.5,58,170.5
6995,B-4,1016.0,0.5,58,170.5
6996,G5,1016.0,0.5,58,170.5
6997,E-5,1016.0,0.5,58,170.5
6998,E-1,1016.375,0.125,58,170.5
6999,B-1,1016.438,0.062,58,170.5
7000,E-2,1016.5,0.5,69,170.5
7001,E-1,1016.5,0.5,58,170.5
7002,B-1,1016.5,0.5,58,170.5
7003,B-5,1016.5,0.5,66,170.5
7004,G5,1016.5,0.5,66,170.5
7005,G6,1016.5,0.5,66,170.5
7006,E-6,1016.5,0.5,66,170.5
7007,G6,1017.0,0.5,72,170.5
7008,E-7,1017.0,0.5,72,170.5
7009,G7,1017.0,0.5,72,170.5
7010,B-6,1017.0,0.5,72,170.5
7011,E-2,1017.0,0.5,62,170.5
7012,B-2,1017.0,0.5,62,170.5
7013,E-3,1017.0,0.5,62,170.5
7014,B-3,1018.5,1.0,86,170.5
7015,B-2,1018.5,49/100,86,170.5
7016,G4,1019.5,0.5,58,170.5
7017,G3,1019.5,0.5,58,170.5
7018,B-3,1019.5,0.5,58,170.5
7019,E-4,1019.5,0.5,58,170.5
7020,B-1,1020.0,167/1000,62,170.5
7021,G4,1020.0,0.5,58,170.5
7022,G5,1020.0,0.5,58,170.5
7023,E-5,1020.0,0.5,58,170.5
7024,B-4,1020.0,0.5,58,170.5
7025,C2,1020.167,167/1000,65,170.5
7026,D2,1020.333,13/125,68,170.5
7027,E-1,1020.438,0.062,58,170.5
7028,G1,1020.438,0.062,58,170.5
7029,B-1,1020.438,0.062,58,170.5
7030,E-2,1020.5,0.5,69,170.5
7031,G6,1020.5,0.5,66,170.5
7032,B-5,1020.5,0.5,66,170.5
7033,E-6,1020.5,0.5,66,170.5
7034,G5,1020.5,0.5,66,170.5
7035,E-1,1020.5,229/500,58,170.5
7036,G1,1020.5,229/500,58,170.5
7037,B-1,1020.5,229/500,58,170.5
7038,G7,1021.0,0.5,71,170.5
7039,B-6,1021.0,0.5,71,170.5
7040,E-7,1021.0,0.5,71,170.5
7041,G6,1021.0,0.5,71,170.5
7042,E-2,1021.0,0.5,62,170.5
7043,B-2,1021.0,0.5,62,170.5
7044,E-3,1021.0,0.5,62,170.5
7045,G3,1022.25,0.25,79,170.5
7046,G2,1022.25,0.25,79,170.5
7047,G2,1022.25,0.25,79,170.5
7048,G3,1022.25,0.25,79,170.5
7049,G#2,1022.5,1.0,80,170.5
7050,G#3,1022.5,1.0,80,170.5
7051,G#2,1022.5,1.0,85,170.5
7052,G#3,1022.5,1.0,85,170.5
7053,F3,1023.5,0.5,58,170.5
7054,B-3,1023.5,0.5,58,170.5
7055,D4,1023.5,0.5,58,170.5
7056,F4,1023.5,0.5,58,170.5
7057,A2,1023.5,0.875,84,170.5
7058,A3,1023.5,0.875,84,170.5
7059,F5,1024.0,0.5,58,170.5
7060,D5,1024.0,0.5,58,170.5
7061,B-4,1024.0,0.5,58,170.5
7062,F4,1024.0,0.5,58,170.5
7063,E-1,1024.375,0.125,58,170.5
7064,G1,1024.375,0.125,58,170.5
7065,B-1,1024.458,21/500,64,170.5
7066,E-2,1024.458,21/500,64,170.5
7067,F6,1024.5,0.5,64,170.5
7068,D6,1024.5,0.5,64,170.5
7069,B-5,1024.5,0.5,64,170.5
7070,F5,1024.5,0.5,64,170.5
7071,E-1,1024.5,229/500,58,170.5
7072,G1,1024.5,229/500,58,170.5
7073,B-1,1024.5,229/500,64,170.5
7074,E-2,1024.5,229/500,64,170.5
7075,F7,1025.0,0.5,74,170.5
7076,D7,1025.0,0.5,74,170.5
7077,B-6,1025.0,0.5,74,170.5
7078,F6,1025.0,0.5,74,170.5
7079,E-2,1025.0,0.5,62,170.5
7080,B-2,1025.0,0.5,62,170.5
7081,E-3,1025.0,0.5,62,170.5
7082,E-3,1026.5,2.0,86,170.5
7083,E-3,1026.5,1.0,78,170.5
7084,E-4,1026.5,1.0,78,170.5
7085,G3,1027.5,0.5,59,170.5
7086,B-3,1027.5,0.5,59,170.5
7087,E-4,1027.5,0.5,59,170.5
7088,E-5,1028.0,0.5,59,170.5
7089,B-4,1028.0,0.5,59,170.5
7090,G4,1028.0,0.5,59,170.5
7091,E-1,1028.375,0.125,58,170.5
7092,B-1,1028.438,0.062,58,170.5
7093,D2,1028.5,0.5,69,170.5
7094,E-1,1028.5,0.5,58,170.5
7095,B-1,1028.5,0.5,58,170.5
7096,E-6,1028.5,0.5,69,170.5
7097,B-5,1028.5,0.5,69,170.5
7098,G5,1028.5,0.5,69,170.5
7099,E-7,1029.0,0.5,77,170.5
7100,B-6,1029.0,0.5,77,170.5
7101,G6,1029.0,0.5,77,170.5
7102,F2,1029.0,0.5,62,170.5
7103,B-2,1029.0,0.5,62,170.5
7104,D3,1029.0,0.5,62,170.5
7105,G#2,1029.5,0.75,77,170.5
7106,G#3,1029.5,0.75,77,170.5
7107,G2,1030.25,0.25,79,170.5
7108,G3,1030.25,0.25,79,170.5
7109,E-4,1030.5,1.0,82,170.5
7110,E-3,1030.5,49/100,75,170.5
7111,G#2,1030.5,1.0,85,170.5
7112,G#3,1030.5,1.0,85,170.5
7113,G3,1031.25,0.25,62,170.5
7114,B-3,1031.5,0.25,56,170.5
7115,E-4,1031.5,0.25,56,170.5
7116,G4,1031.5,0.25,56,170.5
7117,F2,1031.5,0.875,84,170.5
7118,F3,1031.5,0.875,84,170.5
7119,G4,1031.75,0.25,57,170.5
7120,G5,1032.0,0.25,56,170.5
7121,E-5,1032.0,0.25,56,170.5
7122,B-4,1032.0,0.25,56,170.5
7123,G5,1032.25,0.25,56,170.5
7124,E-1,1032.375,0.125,58,170.5
7125,G1,1032.375,0.125,58,170.5
7126,B-1,1032.458,21/500,64,170.5
7127,E-2,1032.458,21/500,64,170.5
7128,G6,1032.5,0.25,64,170.5
7129,E-6,1032.5,0.25,64,170.5
7130,B-5,1032.5,0.25,64,170.5
7131,G5,1032.75,0.25,60,170.5
7132,E-1,1032.958,229/500,58,170.5
7133,G1,1032.958,229/500,58,170.5
7134,B-1,1032.958,229/500,64,170.5
7135,E-2,1032.958,229/500,64,170.5
7136,G6,1033.0,0.25,62,170.5
7137,E-6,1033.0,0.25,62,170.5
7138,B-5,1033.0,0.25,62,170.5
7139,G6,1033.25,0.25,62,170.5
7140,E-2,1033.458,0.5,62,170.5
7141,B-2,1033.458,0.5,62,170.5
7142,E-3,1033.458,0.5,62,170.5
7143,G7,1033.5,0.5,74,170.5
7144,E-7,1033.5,0.5,74,170.5
7145,B-6,1033.5,0.5,74,170.5
7146,B-4,1034.5,187/125,82,170.5
7147,B-3,1034.5,1.25,73,170.5
7148,G3,1035.25,0.25,62,170.5
7149,B-3,1035.5,62/125,53,170.5
7150,E-4,1035.5,0.25,58,170.5
7151,G4,1035.5,0.25,58,170.5
7152,G4,1035.75,0.25,57,170.5
7153,B-2,1035.958,0.75,80,170.5
7154,B-3,1035.958,0.75,80,170.5
7155,G5,1036.0,0.25,56,170.5
7156,E-5,1036.0,0.25,56,170.5
7157,B-4,1036.0,0.25,56,170.5
7158,G5,1036.25,0.25,56,170.5
7159,G6,1036.5,0.25,64,170.5
7160,E-6,1036.5,0.25,64,170.5
7161,B-5,1036.5,0.25,64,170.5
7162,G5,1036.75,0.25,60,170.5
7163,E-1,1036.833,0.125,58,170.5
7164,G1,1036.833,0.125,58,170.5
7165,B-1,1036.917,21/500,64,170.5
7166,E-2,1036.917,21/500,64,170.5
7167,E-1,1036.958,229/500,58,170.5
7168,G1,1036.958,229/500,58,170.5
7169,B-1,1036.958,229/500,64,170.5
7170,E-2,1036.958,229/500,64,170.5
7171,G6,1037.0,0.25,62,170.5
7172,E-6,1037.0,0.25,62,170.5
7173,B-5,1037.0,0.25,62,170.5
7174,G6,1037.25,0.25,62,170.5
7175,E-2,1037.458,0.5,62,170.5
7176,B-2,1037.458,0.5,62,170.5
7177,E-3,1037.458,0.5,62,170.5
7178,G7,1037.5,0.5,74,170.5
7179,E-7,1037.5,0.5,74,170.5
7180,B-6,1037.5,0.5,74,170.5
7181,G3,1038.25,0.25,76,170.5
7182,G4,1038.25,0.25,76,170.5
7183,G#4,1038.5,1.0,78,170.5
7184,G#3,1038.5,1.0,78,170.5
7185,G3,1038.708,0.25,76,170.5
7186,G4,1038.708,0.25,76,170.5
7187,G#3,1038.958,1.0,81,170.5
7188,G#4,1038.958,1.0,81,170.5
7189,F3,1039.25,0.25,62,170.5
7190,B-3,1039.5,0.25,56,170.5
7191,D4,1039.5,0.25,56,170.5
7192,F4,1039.5,0.25,56,170.5
7193,F4,1039.75,0.25,57,170.5
7194,A3,1039.958,0.875,80,170.5
7195,A4,1039.958,0.875,80,170.5
7196,F5,1040.0,0.25,56,170.5
7197,D5,1040.0,0.25,56,170.5
7198,B-4,1040.0,0.25,56,170.5
7199,F5,1040.25,0.25,56,170.5
7200,F6,1040.5,0.25,64,170.5
7201,D6,1040.5,0.25,64,170.5
7202,B-5,1040.5,0.25,64,170.5
7203,F5,1040.75,0.25,60,170.5
7204,E-1,1040.833,0.125,58,170.5
7205,G1,1040.833,0.125,58,170.5
7206,B-1,1040.917,21/500,64,170.5
7207,E-2,1040.917,21/500,64,170.5
7208,E-1,1040.958,229/500,58,170.5
7209,G1,1040.958,229/500,58,170.5
7210,B-1,1040.958,229/500,64,170.5
7211,E-2,1040.958,229/500,64,170.5
7212,F6,1041.0,0.25,62,170.5
7213,D6,1041.0,0.25,62,170.5
7214,B-5,1041.0,0.25,62,170.5
7215,F6,1041.25,0.25,62,170.5
7216,E-2,1041.458,0.5,62,170.5
7217,B-2,1041.458,0.5,62,170.5
7218,E-3,1041.458,0.5,62,170.5
7219,F7,1041.5,0.5,72,170.5
7220,D7,1041.5,0.5,72,170.5
7221,B-6,1041.5,0.5,72,170.5
7222,B-4,1042.5,187/125,82,170.5
7223,B-3,1042.5,1.25,73,170.5
7224,E-4,1042.958,1.0,82,170.5
7225,E-5,1042.958,1.0,82,170.5
7226,G3,1043.25,0.25,62,170.5
7227,B-3,1043.5,62/125,53,170.5
7228,E-4,1043.5,0.25,58,170.5
7229,G4,1043.5,0.25,58,170.5
7230,G4,1043.75,0.25,57,170.5
7231,G5,1044.0,0.25,56,170.5
7232,E-5,1044.0,0.25,56,170.5
7233,B-4,1044.0,0.25,56,170.5
7234,G5,1044.25,0.25,56,170.5
7235,G6,1044.5,0.25,64,170.5
7236,E-6,1044.5,0.25,64,170.5
7237,B-5,1044.5,0.25,64,170.5
7238,G5,1044.75,0.25,60,170.5
7239,E-1,1044.833,0.125,58,170.5
7240,B-1,1044.896,0.062,58,170.5
7241,D2,1044.958,0.5,69,170.5
7242,E-1,1044.958,0.5,58,170.5
7243,B-1,1044.958,0.5,58,170.5
7244,G6,1045.0,0.25,62,170.5
7245,E-6,1045.0,0.25,62,170.5
7246,B-5,1045.0,0.25,62,170.5
7247,G6,1045.25,0.25,62,170.5
7248,F2,1045.458,0.5,62,170.5
7249,B-2,1045.458,0.5,62,170.5
7250,D3,1045.458,0.5,62,170.5
7251,G7,1045.5,0.5,74,170.5
7252,E-7,1045.5,0.5,74,170.5
7253,B-6,1045.5,0.5,74,170.5
7254,B-2,1046.25,0.25,76,170.5
7255,B-3,1046.25,0.25,76,170.5
7256,E-4,1046.5,1.0,82,170.5
7257,E-3,1046.5,49/100,75,170.5
7258,G3,1046.708,0.25,76,170.5
7259,G4,1046.708,0.25,76,170.5
7260,G#3,1046.958,1.0,81,170.5
7261,G#4,1046.958,1.0,81,170.5
7262,G3,1047.25,0.25,62,170.5
7263,B-3,1047.5,0.25,56,170.5
7264,E-4,1047.5,0.25,56,170.5
7265,G4,1047.5,0.25,56,170.5
7266,G4,1047.75,0.25,57,170.5
7267,A3,1047.958,0.875,80,170.5
7268,A4,1047.958,0.875,80,170.5
7269,G5,1048.0,0.25,56,170.5
7270,E-5,1048.0,0.25,56,170.5
7271,B-4,1048.0,0.25,56,170.5
7272,G5,1048.25,0.25,56,170.5
7273,G6,1048.5,0.25,64,170.5
7274,E-6,1048.5,0.25,64,170.5
7275,B-5,1048.5,0.25,64,170.5
7276,G5,1048.75,0.25,60,170.5
7277,E-1,1048.833,0.125,58,170.5
7278,G1,1048.833,0.125,58,170.5
7279,B-1,1048.917,21/500,64,170.5
7280,E-2,1048.917,21/500,64,170.5
7281,E-1,1048.958,229/500,58,170.5
7282,G1,1048.958,229/500,58,170.5
7283,B-1,1048.958,229/500,64,170.5
7284,E-2,1048.958,229/500,64,170.5
7285,G6,1049.0,0.25,62,170.5
7286,E-6,1049.0,0.25,62,170.5
7287,B-5,1049.0,0.25,62,170.5
7288,G6,1049.25,0.25,62,170.5
7289,E-2,1049.458,0.5,62,170.5
7290,B-2,1049.458,0.5,62,170.5
7291,E-3,1049.458,0.5,62,170.5
7292,G7,1049.5,0.5,74,170.5
7293,E-7,1049.5,0.5,74,170.5
7294,B-6,1049.5,0.5,74,170.5
7295,B-4,1050.5,187/125,82,170.5
7296,B-3,1050.5,1.25,73,170.5
7297,G3,1050.958,0.5,82,170.5
7298,G4,1050.958,0.5,82,170.5
7299,G3,1051.25,0.25,62,170.5
7300,B-3,1051.5,62/125,53,170.5
7301,E-4,1051.5,0.25,58,170.5
7302,G4,1051.5,0.25,58,170.5
7303,G4,1051.75,0.25,57,170.5
7304,G5,1052.0,0.25,56,170.5
7305,E-5,1052.0,0.25,56,170.5
7306,B-4,1052.0,0.25,56,170.5
7307,G5,1052.25,0.25,56,170.5
7308,G6,1052.5,0.25,64,170.5
7309,E-6,1052.5,0.25,64,170.5
7310,B-5,1052.5,0.25,64,170.5
7311,G5,1052.75,0.25,60,170.5
7312,E-1,1052.833,0.125,58,170.5
7313,G1,1052.833,0.125,58,170.5
7314,B-1,1052.917,21/500,64,170.5
7315,E-2,1052.917,21/500,64,170.5
7316,E-1,1052.958,229/500,58,170.5
7317,G1,1052.958,229/500,58,170.5
7318,B-1,1052.958,229/500,64,170.5
7319,E-2,1052.958,229/500,64,170.5
7320,G6,1053.0,0.25,62,170.5
7321,E-6,1053.0,0.25,62,170.5
7322,B-5,1053.0,0.25,62,170.5
7323,G6,1053.25,0.25,62,170.5
7324,E-2,1053.458,0.5,62,170.5
7325,B-2,1053.458,0.5,62,170.5
7326,E-3,1053.458,0.5,62,170.5
7327,G7,1053.5,0.5,74,170.5
7328,E-7,1053.5,0.5,74,170.5
7329,B-6,1053.5,0.5,74,170.5
7330,G3,1054.25,0.25,76,170.5
7331,G4,1054.25,0.25,76,170.5
7332,G#4,1054.5,1.0,78,170.5
7333,G#3,1054.5,1.0,78,170.5
7334,G3,1054.708,0.25,74,170.5
7335,G4,1054.708,0.25,74,170.5
7336,G#3,1054.958,1.0,78,170.5
7337,G#4,1054.958,1.0,78,170.5
7338,F3,1055.25,0.25,62,170.5
7339,B-3,1055.5,0.25,56,170.5
7340,D4,1055.5,0.25,56,170.5
7341,F4,1055.5,0.25,56,170.5
7342,F4,1055.75,0.25,57,170.5
7343,A3,1055.958,0.875,80,170.5
7344,A4,1055.958,0.875,80,170.5
7345,F5,1056.0,0.25,56,170.5
7346,D5,1056.0,0.25,56,170.5
7347,B-4,1056.0,0.25,56,170.5
7348,F5,1056.25,0.25,56,170.5
7349,F6,1056.5,0.25,64,170.5
7350,D6,1056.5,0.25,64,170.5
7351,B-5,1056.5,0.25,64,170.5
7352,F5,1056.75,0.25,60,170.5
7353,E-1,1056.833,0.125,58,170.5
7354,G1,1056.833,0.125,58,170.5
7355,B-1,1056.917,21/500,64,170.5
7356,E-2,1056.917,21/500,64,170.5
7357,E-1,1056.958,229/500,58,170.5
7358,G1,1056.958,229/500,58,170.5
7359,B-1,1056.958,229/500,64,170.5
7360,E-2,1056.958,229/500,64,170.5
7361,F6,1057.0,0.25,62,170.5
7362,D6,1057.0,0.25,62,170.5
7363,B-5,1057.0,0.25,62,170.5
7364,F6,1057.25,0.25,62,170.5
7365,E-2,1057.458,0.5,62,170.5
7366,B-2,1057.458,0.5,62,170.5
7367,E-3,1057.458,0.5,62,170.5
7368,F7,1057.5,0.5,72,170.5
7369,D7,1057.5,0.5,72,170.5
7370,B-6,1057.5,0.5,72,170.5
7371,E-4,1058.5,1.0,82,170.5
7372,E-3,1058.5,49/100,73,170.5
7373,E-4,1058.958,1.0,82,170.5
7374,E-5,1058.958,1.0,82,170.5
7375,G3,1059.25,0.25,62,170.5
7376,B-3,1059.5,0.25,58,170.5
7377,E-4,1059.5,0.25,58,170.5
7378,G4,1059.75,0.25,57,170.5
7379,E-5,1060.0,0.25,58,170.5
7380,B-4,1060.0,0.25,58,170.5
7381,G5,1060.25,0.25,56,170.5
7382,E-6,1060.5,0.25,64,170.5
7383,B-5,1060.5,0.25,64,170.5
7384,G5,1060.75,0.25,60,170.5
7385,E-1,1060.833,0.125,58,170.5
7386,B-1,1060.896,0.062,58,170.5
7387,D2,1060.958,0.5,69,170.5
7388,E-1,1060.958,0.5,58,170.5
7389,B-1,1060.958,0.5,58,170.5
7390,E-6,1061.0,0.25,70,170.5
7391,B-5,1061.0,0.25,70,170.5
7392,G6,1061.25,0.25,62,170.5
7393,F2,1061.458,0.5,62,170.5
7394,B-2,1061.458,0.5,62,170.5
7395,D3,1061.458,0.5,62,170.5
7396,E-7,1061.5,0.5,78,170.5
7397,B-6,1061.5,0.5,78,170.5
7398,G3,1062.708,0.25,76,170.5
7399,G4,1062.708,0.25,76,170.5
7400,E-5,1062.75,0.25,60,170.5
7401,G#3,1062.958,1.0,81,170.5
7402,G#4,1062.958,1.0,81,170.5
7403,E-6,1063.0,0.25,57,170.5
7404,G#5,1063.0,0.25,57,170.5
7405,E-6,1063.25,0.25,64,170.5
7406,E-7,1063.5,0.25,60,170.5
7407,G#6,1063.5,0.25,60,170.5
7408,E-6,1063.75,0.25,60,170.5
7409,F3,1063.958,0.875,80,170.5
7410,F4,1063.958,0.875,80,170.5
7411,E-7,1064.0,0.25,59,170.5
7412,G#6,1064.0,0.25,59,170.5
7413,E-6,1064.25,0.25,60,170.5
7414,B-4,1064.75,0.25,60,170.5
7415,E-1,1064.833,0.125,58,170.5
7416,G1,1064.833,0.125,58,170.5
7417,B-1,1064.917,21/500,64,170.5
7418,E-2,1064.917,21/500,64,170.5
7419,E-1,1064.958,229/500,58,170.5
7420,G1,1064.958,229/500,58,170.5
7421,B-1,1064.958,229/500,64,170.5
7422,E-2,1064.958,229/500,64,170.5
7423,B-5,1065.0,0.25,58,170.5
7424,E-5,1065.0,0.25,58,170.5
7425,B-5,1065.25,0.25,60,170.5
7426,E-2,1065.458,0.5,62,170.5
7427,B-2,1065.458,0.5,62,170.5
7428,E-3,1065.458,0.5,62,170.5
7429,B-6,1065.5,0.25,59,170.5
7430,E-6,1065.5,0.25,59,170.5
7431,B-5,1065.75,0.25,60,170.5
7432,B-6,1066.0,0.25,59,170.5
7433,E-6,1066.0,0.25,59,170.5
7434,B-5,1066.25,0.25,60,170.5
7435,B-4,1066.75,0.25,60,170.5
7436,B-5,1067.0,0.25,58,170.5
7437,D5,1067.0,0.25,58,170.5
7438,B-5,1067.25,0.25,60,170.5
7439,B-6,1067.5,0.25,59,170.5
7440,D6,1067.5,0.25,59,170.5
7441,B-5,1067.75,0.25,60,170.5
7442,E-4,1067.958,1.0,72,170.5
7443,G4,1067.958,1.0,72,170.5
7444,C#5,1067.958,1.0,72,170.5
7445,B-6,1068.0,0.25,59,170.5
7446,D6,1068.0,0.25,59,170.5
7447,B-5,1068.25,0.25,60,170.5
7448,B-4,1068.75,0.25,60,170.5
7449,G#4,1068.958,1.0,71,170.5
7450,C5,1068.958,1.0,71,170.5
7451,B-5,1069.0,0.25,58,170.5
7452,E-5,1069.0,0.25,58,170.5
7453,B-5,1069.25,0.25,60,170.5
7454,B-6,1069.5,0.25,59,170.5
7455,E-6,1069.5,0.25,59,170.5
7456,B-5,1069.75,0.25,60,170.5
7457,G4,1069.958,0.25,69,170.5
7458,B-4,1069.958,0.25,69,170.5
7459,B-6,1070.0,0.25,59,170.5
7460,E-6,1070.0,0.25,59,170.5
7461,B-5,1070.25,0.25,60,170.5
7462,F4,1070.458,0.25,69,170.5
7463,G#4,1070.458,0.25,69,170.5
7464,E-5,1070.75,0.25,60,170.5
7465,E-4,1070.958,0.25,73,170.5
7466,G4,1070.958,0.25,73,170.5
7467,E-6,1071.0,0.25,57,170.5
7468,G#5,1071.0,0.25,57,170.5
7469,E-6,1071.25,0.25,64,170.5
7470,B-3,1071.458,0.25,69,170.5
7471,F4,1071.458,0.25,69,170.5
7472,E-7,1071.5,0.25,60,170.5
7473,G#6,1071.5,0.25,60,170.5
7474,E-6,1071.75,0.25,60,170.5
7475,G3,1071.958,0.25,69,170.5
7476,E-4,1071.958,0.25,69,170.5
7477,E-7,1072.0,0.25,59,170.5
7478,G#6,1072.0,0.25,59,170.5
7479,E-6,1072.25,0.25,60,170.5
7480,E-4,1072.458,0.25,70,170.5
7481,G4,1072.458,0.25,70,170.5
7482,B-4,1072.75,0.25,60,170.5
7483,F4,1072.958,0.75,74,170.5
7484,G#4,1072.958,0.75,74,170.5
7485,B-5,1073.0,0.25,58,170.5
7486,E-5,1073.0,0.25,58,170.5
7487,B-5,1073.25,0.25,60,170.5
7488,B-6,1073.5,0.25,59,170.5
7489,E-6,1073.5,0.25,59,170.5
7490,E4,1073.708,0.25,69,170.5
7491,G4,1073.708,0.25,69,170.5
7492,B-5,1073.75,0.25,60,170.5
7493,F4,1073.958,0.25,69,170.5
7494,G#4,1073.958,0.25,69,170.5
7495,B-6,1074.0,0.25,59,170.5
7496,E-6,1074.0,0.25,59,170.5
7497,B-5,1074.25,0.25,60,170.5
7498,F#4,1074.458,0.25,72,170.5
7499,A4,1074.458,0.25,72,170.5
7500,B-4,1074.75,0.25,60,170.5
7501,G4,1074.958,0.25,74,170.5
7502,B-4,1074.958,0.25,74,170.5
7503,B-5,1075.0,0.25,58,170.5
7504,D5,1075.0,0.25,58,170.5
7505,B-5,1075.25,0.25,60,170.5
7506,B-6,1075.5,0.25,59,170.5
7507,D6,1075.5,0.25,59,170.5
7508,B-5,1075.75,0.25,60,170.5
7509,E-4,1075.958,1.0,72,170.5
7510,G4,1075.958,1.0,72,170.5
7511,C#5,1075.958,1.0,72,170.5
7512,B-6,1076.0,0.25,59,170.5
7513,D6,1076.0,0.25,59,170.5
7514,B-5,1076.25,0.25,60,170.5
7515,E-6,1076.5,0.25,58,170.5
7516,B-6,1076.5,0.25,58,170.5
7517,G#4,1076.958,1.0,71,170.5
7518,C5,1076.958,1.0,71,170.5
7519,B-5,1077.5,0.25,75,170.5
7520,C#7,1077.75,0.25,60,170.5
7521,G4,1077.958,0.25,69,170.5
7522,B-4,1077.958,0.25,69,170.5
7523,E-6,1078.0,0.25,67,170.5
7524,C#7,1078.25,0.25,60,170.5
7525,F4,1078.458,0.25,69,170.5
7526,G#4,1078.458,0.25,69,170.5
7527,G#5,1078.5,0.25,72,170.5
7528,C7,1078.75,0.25,57,170.5
7529,E-4,1078.958,0.25,73,170.5
7530,G4,1078.958,0.25,73,170.5
7531,E-6,1079.0,0.25,57,170.5
7532,C7,1079.25,0.25,57,170.5
7533,B-3,1079.458,0.25,69,170.5
7534,F4,1079.458,0.25,69,170.5
7535,G5,1079.5,0.25,69,170.5
7536,B-6,1079.75,0.25,56,170.5
7537,G3,1079.958,0.25,69,170.5
7538,E-4,1079.958,0.25,69,170.5
7539,F5,1080.0,0.25,67,170.5
7540,G#6,1080.25,0.25,56,170.5
7541,E-4,1080.458,0.25,70,170.5
7542,G4,1080.458,0.25,70,170.5
7543,E-5,1080.5,0.25,67,170.5
7544,G6,1080.75,0.25,56,170.5
7545,F4,1080.958,0.75,74,170.5
7546,G#4,1080.958,0.75,74,170.5
7547,D5,1081.0,0.25,66,170.5
7548,F#6,1081.25,0.25,56,170.5
7549,E-5,1081.5,0.25,67,170.5
7550,E4,1081.708,0.25,69,170.5
7551,G4,1081.708,0.25,69,170.5
7552,G6,1081.75,0.25,56,170.5
7553,F4,1081.958,0.25,69,170.5
7554,G#4,1081.958,0.25,69,170.5
7555,E5,1082.0,0.25,68,170.5
7556,G6,1082.25,0.25,57,170.5
7557,B-3,1082.458,0.25,72,170.5
7558,F4,1082.458,0.25,72,170.5
7559,F5,1082.5,0.25,67,170.5
7560,G#6,1082.75,0.25,60,170.5
7561,G3,1082.958,0.25,74,170.5
7562,E-4,1082.958,0.25,74,170.5
7563,E5,1083.0,0.25,66,170.5
7564,G6,1083.25,0.25,60,170.5
7565,F5,1083.5,0.25,67,170.5
7566,G#6,1083.75,0.25,57,170.5
7567,E-2,1083.958,0.5,71,170.5
7568,E-3,1083.958,0.5,71,170.5
7569,F#5,1084.0,0.25,65,170.5
7570,A6,1084.25,0.25,57,170.5
7571,G2,1084.458,0.5,66,170.5
7572,G3,1084.458,0.5,66,170.5
7573,G5,1084.5,0.25,70,170.5
7574,B-6,1084.75,0.25,58,170.5
7575,G#2,1084.958,0.5,74,170.5
7576,G#3,1084.958,0.5,74,170.5
7577,E-6,1085.0,0.25,58,170.5
7578,B-6,1085.25,0.25,58,170.5
7579,C3,1085.458,0.5,68,170.5
7580,C4,1085.458,0.5,68,170.5
7581,B-5,1085.5,0.25,75,170.5
7582,C#7,1085.75,0.25,60,170.5
7583,E-3,1085.958,0.5,68,170.5
7584,E-4,1085.958,0.5,68,170.5
7585,E-6,1086.0,0.25,67,170.5
7586,C#7,1086.25,0.25,60,170.5
7587,G#3,1086.458,0.5,68,170.5
7588,G#4,1086.458,0.5,68,170.5
7589,G#5,1086.5,0.25,72,170.5
7590,C7,1086.75,0.25,57,170.5
7591,B-3,1086.958,1.0,68,170.5
7592,B-4,1086.958,1.0,68,170.5
7593,E-6,1087.0,0.25,57,170.5
7594,C7,1087.25,0.25,57,170.5
7595,G5,1087.5,0.25,69,170.5
7596,B-6,1087.75,0.25,56,170.5
7597,E-2,1087.958,0.5,71,170.5
7598,E-3,1087.958,0.5,71,170.5
7599,F5,1088.0,0.25,67,170.5
7600,G#6,1088.25,0.25,56,170.5
7601,G2,1088.458,0.5,66,170.5
7602,G3,1088.458,0.5,66,170.5
7603,E-5,1088.5,0.25,67,170.5
7604,G6,1088.75,0.25,56,170.5
7605,B-2,1088.958,0.5,74,170.5
7606,B-3,1088.958,0.5,74,170.5
7607,D5,1089.0,0.25,66,170.5
7608,F#6,1089.25,0.25,56,170.5
7609,D3,1089.458,0.5,64,170.5
7610,D4,1089.458,0.5,64,170.5
7611,E-5,1089.5,0.25,67,170.5
7612,G6,1089.75,0.25,56,170.5
7613,F3,1089.958,0.5,68,170.5
7614,F4,1089.958,0.5,68,170.5
7615,E5,1090.0,0.25,68,170.5
7616,G6,1090.25,0.25,57,170.5
7617,F#4,1090.458,0.5,69,170.5
7618,A3,1090.458,0.5,69,170.5
7619,A4,1090.458,0.5,69,170.5
7620,F5,1090.5,0.25,67,170.5
7621,G#6,1090.75,0.25,60,170.5
7622,G4,1090.958,1.0,73,170.5
7623,B-3,1090.958,1.0,73,170.5
7624,B-4,1090.958,1.0,73,170.5
7625,E5,1091.0,0.25,66,170.5
7626,G6,1091.25,0.25,60,170.5
7627,F5,1091.5,0.25,67,170.5
7628,G#6,1091.75,0.25,57,170.5
7629,E-2,1091.958,0.5,71,170.5
7630,E-3,1091.958,0.5,71,170.5
7631,F#5,1092.0,0.25,65,170.5
7632,A6,1092.25,0.25,57,170.5
7633,G2,1092.458,0.5,66,170.5
7634,G3,1092.458,0.5,66,170.5
7635,G5,1092.5,0.25,70,170.5
7636,B-6,1092.75,0.25,58,170.5
7637,G#2,1092.958,0.5,74,170.5
7638,G#3,1092.958,0.5,74,170.5
7639,E-6,1093.0,0.25,58,170.5
7640,B-6,1093.25,0.25,58,170.5
7641,C3,1093.458,0.5,68,170.5
7642,C4,1093.458,0.5,68,170.5
7643,B-5,1093.5,0.25,75,170.5
7644,C#7,1093.75,0.25,60,170.5
7645,E-3,1093.958,0.5,68,170.5
7646,E-4,1093.958,0.5,68,170.5
7647,E-6,1094.0,0.25,67,170.5
7648,C#7,1094.25,0.25,60,170.5
7649,G#3,1094.458,0.5,68,170.5
7650,G#4,1094.458,0.5,68,170.5
7651,G#5,1094.5,0.25,72,170.5
7652,C7,1094.75,0.25,57,170.5
7653,B-3,1094.958,1.0,68,170.5
7654,B-4,1094.958,1.0,68,170.5
7655,E-6,1095.0,0.25,57,170.5
7656,C7,1095.25,0.25,57,170.5
7657,G5,1095.5,0.25,69,170.5
7658,B-6,1095.75,0.25,56,170.5
7659,E-2,1095.958,0.5,71,170.5
7660,E-3,1095.958,0.5,71,170.5
7661,F5,1096.0,0.25,67,170.5
7662,G#6,1096.25,0.25,56,170.5
7663,G2,1096.458,0.5,66,170.5
7664,G3,1096.458,0.5,66,170.5
7665,E-5,1096.5,0.25,67,170.5
7666,G6,1096.75,0.25,56,170.5
7667,B-2,1096.958,0.5,74,170.5
7668,B-3,1096.958,0.5,74,170.5
7669,D5,1097.0,0.25,66,170.5
7670,F#6,1097.25,0.25,56,170.5
7671,D3,1097.458,0.5,64,170.5
7672,D4,1097.458,0.5,64,170.5
7673,E-5,1097.5,0.25,67,170.5
7674,G6,1097.75,0.25,56,170.5
7675,F3,1097.958,0.5,68,170.5
7676,F4,1097.958,0.5,68,170.5
7677,G5,1098.25,0.25,52,170.5
7678,G6,1098.25,0.25,52,170.5
7679,F#4,1098.458,0.5,69,170.5
7680,A3,1098.458,0.5,69,170.5
7681,A4,1098.458,0.5,69,170.5
7682,G#5,1098.75,0.25,56,170.5
7683,G#6,1098.75,0.25,56,170.5
7684,G4,1098.958,1.0,73,170.5
7685,B-3,1098.958,1.0,73,170.5
7686,B-4,1098.958,1.0,73,170.5
7687,G5,1099.25,0.25,54,170.5
7688,G6,1099.25,0.25,54,170.5
7689,G#5,1099.75,0.25,54,170.5
7690,G#6,1099.75,0.25,54,170.5
7691,E-2,1099.958,0.5,71,170.5
7692,E-3,1099.958,0.5,71,170.5
7693,G5,1100.25,0.25,50,170.5
7694,G6,1100.25,0.25,50,170.5
7695,G2,1100.458,0.5,66,170.5
7696,G3,1100.458,0.5,66,170.5
7697,G#5,1100.75,0.25,54,170.5
7698,G#6,1100.75,0.25,54,170.5
7699,G#2,1100.958,0.5,74,170.5
7700,G#3,1100.958,0.5,74,170.5
7701,G5,1101.25,0.25,52,170.5
7702,G6,1101.25,0.25,52,170.5
7703,C3,1101.458,0.5,68,170.5
7704,C4,1101.458,0.5,68,170.5
7705,G#5,1101.75,0.25,54,170.5
7706,G#6,1101.75,0.25,54,170.5
7707,E-3,1101.958,0.5,68,170.5
7708,E-4,1101.958,0.5,68,170.5
7709,B-5,1102.25,0.25,50,170.5
7710,G5,1102.25,0.25,50,170.5
7711,G6,1102.25,0.25,50,170.5
7712,G#3,1102.458,0.5,68,170.5
7713,G#4,1102.458,0.5,68,170.5
7714,B5,1102.75,0.25,53,170.5
7715,G#5,1102.75,0.25,53,170.5
7716,G#6,1102.75,0.25,53,170.5
7717,B-3,1102.958,1.0,68,170.5
7718,B-4,1102.958,1.0,68,170.5
7719,B-5,1103.25,0.25,48,170.5
7720,G5,1103.25,0.25,48,170.5
7721,G6,1103.25,0.25,48,170.5
7722,B5,1103.75,0.25,57,170.5
7723,G#5,1103.75,0.25,57,170.5
7724,G#6,1103.75,0.25,57,170.5
7725,B-5,1104.25,0.25,51,170.5
7726,G5,1104.25,0.25,51,170.5
7727,G6,1104.25,0.25,51,170.5
7728,E-4,1104.458,0.5,59,170.5
7729,E-5,1104.458,0.5,59,170.5
7730,B5,1104.75,0.25,60,170.5
7731,G#5,1104.75,0.25,60,170.5
7732,G#6,1104.75,0.25,60,170.5
7733,D4,1104.958,0.25,62,170.5
7734,D5,1104.958,0.25,62,170.5
7735,B-5,1105.25,0.25,54,170.5
7736,G5,1105.25,0.25,54,170.5
7737,G6,1105.25,0.25,54,170.5
7738,F4,1105.458,0.25,53,170.5
7739,F5,1105.458,0.25,53,170.5
7740,B5,1105.75,0.25,57,170.5
7741,G#5,1105.75,0.25,57,170.5
7742,G#6,1105.75,0.25,57,170.5
7743,C#4,1105.958,0.25,64,170.5
7744,C#5,1105.958,0.25,64,170.5
7745,E6,1106.25,0.25,55,170.5
7746,G5,1106.25,0.25,55,170.5
7747,G6,1106.25,0.25,55,170.5
7748,F4,1106.458,0.25,60,170.5
7749,F5,1106.458,0.25,60,170.5
7750,F6,1106.75,0.25,62,170.5
7751,G#5,1106.75,0.25,62,170.5
7752,G#6,1106.75,0.25,62,170.5
7753,C4,1106.958,0.25,62,170.5
7754,C5,1106.958,0.25,62,170.5
7755,E6,1107.25,0.25,56,170.5
7756,G5,1107.25,0.25,56,170.5
7757,G6,1107.25,0.25,56,170.5
7758,F4,1107.458,0.25,53,170.5
7759,F5,1107.458,0.25,53,170.5
7760,F6,1107.75,0.25,59,170.5
7761,G#5,1107.75,0.25,59,170.5
7762,G#6,1107.75,0.25,59,170.5
7763,B3,1107.958,0.25,64,170.5
7764,B4,1107.958,0.25,64,170.5
7765,E6,1108.25,0.25,57,170.5
7766,G5,1108.25,0.25,57,170.5
7767,G6,1108.25,0.25,57,170.5
7768,D4,1108.458,0.25,60,170.5
7769,D5,1108.458,0.25,60,170.5
7770,F6,1108.75,0.25,64,170.5
7771,G#5,1108.75,0.25,64,170.5
7772,G#6,1108.75,0.25,64,170.5
7773,G#3,1108.958,0.25,66,170.5
7774,G#4,1108.958,0.25,66,170.5
7775,E6,1109.25,0.25,58,170.5
7776,G5,1109.25,0.25,58,170.5
7777,G6,1109.25,0.25,58,170.5
7778,B3,1109.458,0.25,57,170.5
7779,B4,1109.458,0.25,57,170.5
7780,F6,1109.75,0.25,61,170.5
7781,G#5,1109.75,0.25,61,170.5
7782,G#6,1109.75,0.25,61,170.5
7783,F#3,1109.958,0.25,71,170.5
7784,F#4,1109.958,0.25,71,170.5
7785,E6,1110.25,0.25,59,170.5
7786,G5,1110.25,0.25,59,170.5
7787,G6,1110.25,0.25,59,170.5
7788,B3,1110.458,0.25,66,170.5
7789,B4,1110.458,0.25,66,170.5
7790,F6,1110.75,0.25,66,170.5
7791,G#5,1110.75,0.25,66,170.5
7792,G#6,1110.75,0.25,66,170.5
7793,E3,1110.958,0.25,68,170.5
7794,E4,1110.958,0.25,68,170.5
7795,E6,1111.25,0.25,60,170.5
7796,G5,1111.25,0.25,60,170.5
7797,G6,1111.25,0.25,60,170.5
7798,G#3,1111.458,0.25,60,170.5
7799,G#4,1111.458,0.25,60,170.5
7800,F6,1111.75,0.25,65,170.5
7801,G#5,1111.75,0.25,65,170.5
7802,G#6,1111.75,0.25,65,170.5
7803,E-3,1111.958,0.25,74,170.5
7804,E-4,1111.958,0.25,74,170.5
7805,E6,1112.25,0.25,64,170.5
7806,G5,1112.25,0.25,64,170.5
7807,G6,1112.25,0.25,64,170.5
7808,G#3,1112.458,0.25,69,170.5
7809,G#4,1112.458,0.25,69,170.5
7810,F6,1112.75,0.25,72,170.5
7811,G#5,1112.75,0.25,72,170.5
7812,G#6,1112.75,0.25,72,170.5
7813,E3,1112.958,0.25,71,170.5
7814,E4,1112.958,0.25,71,170.5
7815,E6,1113.25,0.25,66,170.5
7816,G5,1113.25,0.25,66,170.5
7817,G6,1113.25,0.25,66,170.5
7818,G#3,1113.458,0.25,62,170.5
7819,G#4,1113.458,0.25,62,170.5
7820,F6,1113.75,0.25,70,170.5
7821,G#5,1113.75,0.25,70,170.5
7822,G#6,1113.75,0.25,70,170.5
7823,C3,1113.958,0.25,77,170.5
7824,C4,1113.958,0.25,77,170.5
7825,E-6,1114.25,0.25,69,170.5
7826,G5,1114.25,0.25,69,170.5
7827,G6,1114.25,0.25,69,170.5
7828,G#3,1114.458,0.25,72,170.5
7829,G#4,1114.458,0.25,72,170.5
7830,G#5,1114.5,0.75,82,170.5
7831,D6,1114.5,0.75,82,170.5
7832,G#6,1114.5,0.75,82,170.5
7833,B2,1114.958,0.25,74,170.5
7834,B3,1114.958,0.25,74,170.5
7835,B-6,1115.25,0.125,78,170.5
7836,G#6,1115.375,0.125,78,170.5
7837,D3,1115.458,0.25,64,170.5
7838,D4,1115.458,0.25,64,170.5
7839,G5,1115.5,0.25,81,170.5
7840,G6,1115.5,0.25,81,170.5
7841,G#2,1115.958,0.25,79,170.5
7842,G#3,1115.958,0.25,79,170.5
7843,F5,1116.0,0.25,76,170.5
7844,F6,1116.0,0.25,76,170.5
7845,B2,1116.458,0.25,74,170.5
7846,B3,1116.458,0.25,74,170.5
7847,B-5,1116.5,0.25,82,170.5
7848,B-6,1116.5,0.25,82,170.5
7849,F2,1116.958,0.25,76,170.5
7850,F3,1116.958,0.25,76,170.5
7851,D5,1117.0,0.25,74,170.5
7852,D6,1117.0,0.25,74,170.5
7853,G#2,1117.458,0.25,66,170.5
7854,G#3,1117.458,0.25,66,170.5
7855,E-5,1117.5,1.0,81,170.5
7856,E-6,1117.5,1.0,81,170.5
7857,D2,1117.958,0.25,83,170.5
7858,D3,1117.958,0.25,83,170.5
7859,F2,1118.458,0.25,79,170.5
7860,F3,1118.458,0.25,79,170.5
7861,G#5,1118.5,0.75,82,170.5
7862,D6,1118.5,0.75,82,170.5
7863,G#6,1118.5,0.75,82,170.5
7864,C#2,1118.958,0.25,83,170.5
7865,C#3,1118.958,0.25,83,170.5
7866,B-6,1119.25,0.125,78,170.5
7867,G#6,1119.375,0.125,78,170.5
7868,F2,1119.458,0.25,72,170.5
7869,F3,1119.458,0.25,72,170.5
7870,G5,1119.5,0.25,81,170.5
7871,G6,1119.5,0.25,81,170.5
7872,B1,1119.958,0.25,90,170.5
7873,B2,1119.958,0.25,90,170.5
7874,F5,1120.0,0.25,76,170.5
7875,F6,1120.0,0.25,76,170.5
7876,F2,1120.458,0.25,85,170.5
7877,F3,1120.458,0.25,85,170.5
7878,B-5,1120.5,0.25,82,170.5
7879,B-6,1120.5,0.25,82,170.5
7880,B-1,1120.958,0.5,78,170.5
7881,B-2,1120.958,0.5,78,170.5
7882,D5,1121.0,0.25,74,170.5
7883,D6,1121.0,0.25,74,170.5
7884,F4,1121.458,0.5,65,170.5
7885,D4,1121.458,0.5,65,170.5
7886,G#3,1121.458,0.5,65,170.5
7887,E-5,1121.5,1.0,81,170.5
7888,E-6,1121.5,1.0,81,170.5
7889,B-2,1121.958,0.25,72,170.5
7890,B-3,1121.958,0.25,72,170.5
7891,F4,1122.458,0.25,65,170.5
7892,D4,1122.458,0.25,65,170.5
7893,G#3,1122.458,0.25,65,170.5
7894,B-1,1122.958,0.25,76,170.5
7895,B-2,1122.958,0.25,76,170.5
7896,F3,1123.0,0.25,66,170.5
7897,A3,1123.0,0.25,66,170.5
7898,E-4,1123.0,0.25,66,170.5
7899,F4,1123.0,0.25,66,170.5
7900,G4,1123.458,0.25,65,170.5
7901,E-4,1123.458,0.25,65,170.5
7902,G3,1123.458,0.25,65,170.5
7903,B-3,1123.5,0.25,69,170.5
7904,F3,1123.5,0.25,69,170.5
7905,D4,1123.5,0.25,69,170.5
7906,F4,1123.5,0.25,69,170.5
7907,B-2,1123.958,0.5,74,170.5
7908,B-3,1123.958,0.5,74,170.5
7909,G4,1124.458,0.5,66,170.5
7910,E-4,1124.458,0.5,66,170.5
7911,G3,1124.458,0.5,66,170.5
7912,B-1,1124.958,0.5,78,170.5
7913,B-2,1124.958,0.5,78,170.5
7914,D6,1125.0,0.5,70,170.5
7915,B-5,1125.0,0.5,70,170.5
7916,D5,1125.0,0.5,70,170.5
7917,F5,1125.0,0.5,70,170.5
7918,F4,1125.458,0.5,65,170.5
7919,D4,1125.458,0.5,65,170.5
7920,G#3,1125.458,0.5,65,170.5
7921,B-2,1125.958,0.25,72,170.5
7922,B-3,1125.958,0.25,72,170.5
7923,D7,1126.0,0.25,70,170.5
7924,B-6,1126.0,0.25,70,170.5
7925,F6,1126.0,0.25,70,170.5
7926,D6,1126.0,0.25,70,170.5
7927,F4,1126.458,0.25,65,170.5
7928,D4,1126.458,0.25,65,170.5
7929,G#3,1126.458,0.25,65,170.5
7930,B-1,1126.958,0.25,76,170.5
7931,B-2,1126.958,0.25,76,170.5
7932,G6,1127.0,0.25,70,170.5
7933,E-6,1127.0,0.25,70,170.5
7934,G5,1127.0,0.25,70,170.5
7935,B-5,1127.0,0.25,70,170.5
7936,G4,1127.458,0.25,65,170.5
7937,E-4,1127.458,0.25,65,170.5
7938,G3,1127.458,0.25,65,170.5
7939,B-2,1127.958,0.5,74,170.5
7940,B-3,1127.958,0.5,74,170.5
7941,G7,1128.0,0.5,70,170.5
7942,E-7,1128.0,0.5,70,170.5
7943,B-6,1128.0,0.5,70,170.5
7944,G6,1128.0,0.5,70,170.5
7945,G4,1128.458,0.5,66,170.5
7946,E-4,1128.458,0.5,66,170.5
7947,G3,1128.458,0.5,66,170.5
7948,C2,1128.958,0.25,78,170.5
7949,C3,1128.958,0.25,78,170.5
7950,D5,1129.0,0.5,70,170.5
7951,B-4,1129.0,0.5,70,170.5
7952,D4,1129.0,0.5,70,170.5
7953,F4,1129.0,0.5,70,170.5
7954,B1,1129.458,0.25,72,170.5
7955,B2,1129.458,0.25,72,170.5
7956,B-1,1129.958,0.25,76,170.5
7957,B-2,1129.958,0.25,76,170.5
7958,D6,1130.0,0.25,70,170.5
7959,B-5,1130.0,0.25,70,170.5
7960,F5,1130.0,0.25,70,170.5
7961,D5,1130.0,0.25,70,170.5
7962,G#3,1130.958,1.0,84,170.5
7963,G#4,1130.958,1.0,84,170.5
7964,G5,1131.0,0.25,70,170.5
7965,E-5,1131.0,0.25,70,170.5
7966,G4,1131.0,0.25,70,170.5
7967,B-4,1131.0,0.25,70,170.5
7968,G3,1131.958,0.25,81,170.5
7969,G4,1131.958,0.25,81,170.5
7970,G6,1132.0,0.5,70,170.5
7971,E-6,1132.0,0.5,70,170.5
7972,B-5,1132.0,0.5,70,170.5
7973,G5,1132.0,0.5,70,170.5
7974,F3,1132.458,0.25,76,170.5
7975,F4,1132.458,0.25,76,170.5
7976,B-3,1132.958,0.25,82,170.5
7977,B-4,1132.958,0.25,82,170.5
7978,F3,1133.0,0.25,66,170.5
7979,A3,1133.0,0.25,66,170.5
7980,E-4,1133.0,0.25,66,170.5
7981,F4,1133.0,0.25,66,170.5
7982,D3,1133.458,0.25,74,170.5
7983,D4,1133.458,0.25,74,170.5
7984,F3,1133.5,0.25,69,170.5
7985,D4,1133.5,0.25,69,170.5
7986,F4,1133.5,0.25,69,170.5
7987,B-3,1133.5,0.25,69,170.5
7988,E-3,1133.958,1.0,81,170.5
7989,E-4,1133.958,1.0,81,170.5
7990,C#6,1134.5,1.0,80,170.5
7991,F5,1134.5,1.0,80,170.5
7992,B-5,1134.5,1.0,80,170.5
7993,F6,1134.5,1.0,80,170.5
7994,G#2,1134.958,1.0,84,170.5
7995,G#3,1134.958,1.0,84,170.5
7996,E5,1135.5,0.25,81,170.5
7997,E6,1135.5,0.25,81,170.5
7998,G2,1135.958,0.25,81,170.5
7999,G3,1135.958,0.25,81,170.5
8000,F5,1136.0,0.25,76,170.5
8001,F6,1136.0,0.25,76,170.5
8002,F2,1136.458,0.25,76,170.5
8003,F3,1136.458,0.25,76,170.5
8004,G6,1136.5,1.0,82,170.5
8005,G5,1136.5,1.0,82,170.5
8006,B-5,1136.5,1.0,82,170.5
8007,B-2,1136.958,0.25,82,170.5
8008,B-3,1136.958,0.25,82,170.5
8009,D2,1137.458,0.25,74,170.5
8010,D3,1137.458,0.25,74,170.5
8011,B-5,1137.5,1.0,79,170.5
8012,F5,1137.5,1.0,79,170.5
8013,F6,1137.5,1.0,79,170.5
8014,E-2,1137.958,1.0,81,170.5
8015,E-3,1137.958,1.0,81,170.5
8016,C2,1138.958,0.25,78,170.5
8017,C3,1138.958,0.25,78,170.5
8018,F3,1139.0,0.25,66,170.5
8019,A3,1139.0,0.25,66,170.5
8020,E-4,1139.0,0.25,66,170.5
8021,F4,1139.0,0.25,66,170.5
8022,B1,1139.458,0.25,72,170.5
8023,B2,1139.458,0.25,72,170.5
8024,F3,1139.5,0.25,69,170.5
8025,D4,1139.5,0.25,69,170.5
8026,F4,1139.5,0.25,69,170.5
8027,B-3,1139.5,0.25,69,170.5
8028,B-1,1139.958,0.25,76,170.5
8029,B-2,1139.958,0.25,76,170.5
8030,B-5,1140.5,333/1000,72,170.5
8031,G5,1140.5,333/1000,72,170.5
8032,G6,1140.5,333/1000,72,170.5
8033,F5,1140.833,333/1000,62,170.5
8034,F6,1140.833,333/1000,62,170.5
8035,C#2,1140.958,0.5,78,170.5
8036,C#3,1140.958,0.5,78,170.5
8037,E5,1141.167,333/1000,62,170.5
8038,E6,1141.167,333/1000,62,170.5
8039,F4,1141.458,0.5,65,170.5
8040,C#4,1141.458,0.5,65,170.5
8041,B-3,1141.458,0.5,65,170.5
8042,E-5,1141.5,333/1000,69,170.5
8043,E-6,1141.5,333/1000,69,170.5
8044,D5,1141.833,333/1000,64,170.5
8045,D6,1141.833,333/1000,64,170.5
8046,B-2,1141.958,0.25,72,170.5
8047,B-3,1141.958,0.25,72,170.5
8048,C#5,1142.167,333/1000,64,170.5
8049,C#6,1142.167,333/1000,64,170.5
8050,F4,1142.458,0.25,65,170.5
8051,C#4,1142.458,0.25,65,170.5
8052,B-3,1142.458,0.25,65,170.5
8053,C5,1142.5,0.25,78,170.5
8054,C6,1142.5,0.25,78,170.5
8055,E-2,1142.958,0.5,78,170.5
8056,E-3,1142.958,0.5,78,170.5
8057,C6,1143.0,0.25,70,170.5
8058,C7,1143.0,0.25,70,170.5
8059,G4,1143.458,0.375,65,170.5
8060,E-4,1143.458,0.375,65,170.5
8061,B-3,1143.458,0.375,65,170.5
8062,C5,1143.5,0.25,76,170.5
8063,C6,1143.5,0.25,76,170.5
8064,C#2,1143.958,0.5,78,170.5
8065,C#3,1143.958,0.5,78,170.5
8066,C6,1144.0,0.25,70,170.5
8067,C7,1144.0,0.25,70,170.5
8068,B-3,1144.458,0.375,65,170.5
8069,F4,1144.458,0.375,65,170.5
8070,C#4,1144.458,0.375,65,170.5
8071,C2,1144.958,0.25,78,170.5
8072,C3,1144.958,0.25,78,170.5
8073,F3,1145.0,0.25,66,170.5
8074,A3,1145.0,0.25,66,170.5
8075,E-4,1145.0,0.25,66,170.5
8076,F4,1145.0,0.25,66,170.5
8077,B1,1145.458,0.25,72,170.5
8078,B2,1145.458,0.25,72,170.5
8079,F3,1145.5,0.25,69,170.5
8080,D4,1145.5,0.25,69,170.5
8081,F4,1145.5,0.25,69,170.5
8082,B-3,1145.5,0.25,69,170.5
8083,B-1,1145.958,0.25,76,170.5
8084,B-2,1145.958,0.25,76,170.5
8085,C#2,1146.958,0.5,78,170.5
8086,C#3,1146.958,0.5,78,170.5
8087,B-5,1147.0,0.25,73,170.5
8088,C#5,1147.0,0.25,73,170.5
8089,B-4,1147.0,0.25,73,170.5
8090,F4,1147.458,0.5,65,170.5
8091,C#4,1147.458,0.5,65,170.5
8092,B-3,1147.458,0.5,65,170.5
8093,C#2,1147.958,0.25,72,170.5
8094,C#3,1147.958,0.25,72,170.5
8095,B-6,1148.0,0.25,72,170.5
8096,C#6,1148.0,0.25,72,170.5
8097,B-5,1148.0,0.25,72,170.5
8098,F4,1148.458,0.25,65,170.5
8099,C#4,1148.458,0.25,65,170.5
8100,B-3,1148.458,0.25,65,170.5
8101,C2,1148.958,0.25,78,170.5
8102,C3,1148.958,0.25,78,170.5
8103,B-5,1149.0,0.25,73,170.5
8104,E-5,1149.0,0.25,73,170.5
8105,B-4,1149.0,0.25,73,170.5
8106,E4,1149.458,0.25,65,170.5
8107,B-3,1149.458,0.25,65,170.5
8108,G3,1149.458,0.25,65,170.5
8109,F3,1149.958,0.25,72,170.5
8110,F2,1149.958,0.25,72,170.5
8111,B-6,1150.0,0.25,72,170.5
8112,C#6,1150.0,0.25,72,170.5
8113,B-5,1150.0,0.25,72,170.5
8114,F4,1150.458,0.25,65,170.5
8115,E-4,1150.458,0.25,65,170.5
8116,A3,1150.458,0.25,65,170.5
8117,C2,1150.958,0.25,78,170.5
8118,C3,1150.958,0.25,78,170.5
8119,F3,1151.0,0.25,66,170.5
8120,A3,1151.0,0.25,66,170.5
8121,E-4,1151.0,0.25,66,170.5
8122,F4,1151.0,0.25,66,170.5
8123,B1,1151.458,0.25,72,170.5
8124,B2,1151.458,0.25,72,170.5
8125,F3,1151.5,0.25,69,170.5
8126,D4,1151.5,0.25,69,170.5
8127,F4,1151.5,0.25,69,170.5
8128,B-3,1151.5,0.25,69,170.5
8129,B-1,1151.958,0.25,76,170.5
8130,B-2,1151.958,0.25,76,170.5
8131,F4,1152.958,1.0,80,170.5
8132,C#4,1152.958,1.0,80,170.5
8133,F3,1152.958,1.0,80,170.5
8134,B-3,1152.958,1.0,80,170.5
8135,C#5,1153.0,0.25,72,170.5
8136,B-4,1153.0,0.25,72,170.5
8137,F5,1153.0,0.25,72,170.5
8138,B-5,1153.0,0.25,72,170.5
8139,E3,1153.958,0.25,81,170.5
8140,E4,1153.958,0.25,81,170.5
8141,B-5,1154.0,0.25,71,170.5
8142,F6,1154.0,0.25,71,170.5
8143,C#6,1154.0,0.25,71,170.5
8144,B-6,1154.0,0.25,71,170.5
8145,F3,1154.458,0.25,76,170.5
8146,F4,1154.458,0.25,76,170.5
8147,E-4,1154.958,1.0,80,170.5
8148,G4,1154.958,1.0,80,170.5
8149,G3,1154.958,1.0,80,170.5
8150,B-3,1154.958,1.0,80,170.5
8151,G5,1155.0,0.25,72,170.5
8152,C6,1155.0,0.25,72,170.5
8153,E5,1155.0,0.25,72,170.5
8154,C5,1155.0,0.25,72,170.5
8155,C#4,1155.958,1.0,78,170.5
8156,F3,1155.958,1.0,78,170.5
8157,B-3,1155.958,1.0,78,170.5
8158,F4,1155.958,1.0,78,170.5
8159,C7,1156.0,0.25,71,170.5
8160,F7,1156.0,0.25,71,170.5
8161,A6,1156.0,0.25,71,170.5
8162,F6,1156.0,0.25,71,170.5
8163,C2,1156.958,0.25,78,170.5
8164,C3,1156.958,0.25,78,170.5
8165,F3,1157.0,0.25,66,170.5
8166,A3,1157.0,0.25,66,170.5
8167,E-4,1157.0,0.25,66,170.5
8168,F4,1157.0,0.25,66,170.5
8169,B1,1157.458,0.25,72,170.5
8170,B2,1157.458,0.25,72,170.5
8171,F3,1157.5,0.25,69,170.5
8172,D4,1157.5,0.25,69,170.5
8173,F4,1157.5,0.25,69,170.5
8174,B-3,1157.5,0.25,69,170.5
8175,B-1,1157.958,0.25,76,170.5
8176,B-2,1157.958,0.25,76,170.5
8177,G3,1158.958,333/1000,74,170.5
8178,G4,1158.958,333/1000,74,170.5
8179,D5,1159.0,167/1000,52,170.5
8180,F5,1159.167,167/1000,54,170.5
8181,F3,1159.292,333/1000,62,170.5
8182,F4,1159.292,333/1000,62,170.5
8183,B-5,1159.333,167/1000,55,170.5
8184,D6,1159.5,167/1000,57,170.5
8185,E3,1159.625,333/1000,62,170.5
8186,E4,1159.625,333/1000,62,170.5
8187,F6,1159.667,167/1000,59,170.5
8188,B-6,1159.833,167/1000,60,170.5
8189,E-3,1159.958,333/1000,69,170.5
8190,E-4,1159.958,333/1000,69,170.5
8191,D7,1160.0,0.25,62,170.5
8192,D3,1160.292,333/1000,64,170.5
8193,D4,1160.292,333/1000,64,170.5
8194,C#3,1160.625,333/1000,64,170.5
8195,C#4,1160.625,333/1000,64,170.5
8196,G3,1160.958,1.0,80,170.5
8197,C4,1160.958,1.0,80,170.5
8198,C3,1160.958,1.0,80,170.5
8199,E3,1160.958,1.0,80,170.5
8200,G5,1161.0,167/1000,53,170.5
8201,B-5,1161.167,167/1000,55,170.5
8202,E-6,1161.333,167/1000,57,170.5
8203,G6,1161.5,167/1000,59,170.5
8204,B-6,1161.667,167/1000,61,170.5
8205,E-7,1161.833,167/1000,64,170.5
8206,C3,1161.958,1.0,78,170.5
8207,F2,1161.958,1.0,78,170.5
8208,A2,1161.958,1.0,78,170.5
8209,F3,1161.958,1.0,78,170.5
8210,G7,1162.0,0.25,66,170.5
8211,C2,1162.958,0.25,78,170.5
8212,C3,1162.958,0.25,78,170.5
8213,B-4,1163.0,167/1000,52,170.5
8214,C#5,1163.167,167/1000,54,170.5
8215,F#5,1163.333,167/1000,56,170.5
8216,B1,1163.458,0.25,72,170.5
8217,B2,1163.458,0.25,72,170.5
8218,B-5,1163.5,167/1000,58,170.5
8219,C#6,1163.667,167/1000,60,170.5
8220,F#6,1163.833,167/1000,61,170.5
8221,B-1,1163.958,0.25,76,170.5
8222,B-2,1163.958,0.25,76,170.5
8223,B-6,1164.0,0.25,63,170.5
8224,G#4,1164.708,0.125,64,170.5
8225,B-4,1164.833,0.125,64,170.5
8226,G#4,1164.958,1.0,73,170.5
8227,B4,1165.0,167/1000,54,170.5
8228,E-5,1165.167,167/1000,55,170.5
8229,F#5,1165.333,167/1000,57,170.5
8230,B5,1165.5,167/1000,58,170.5
8231,E-6,1165.667,167/1000,60,170.5
8232,F#6,1165.833,167/1000,61,170.5
8233,G4,1165.958,0.25,69,170.5
8234,B6,1166.0,0.25,63,170.5
8235,F4,1166.458,0.25,62,170.5
8236,B-4,1166.958,0.25,70,170.5
8237,F#4,1167.0,167/1000,54,170.5
8238,A4,1167.167,167/1000,56,170.5
8239,D5,1167.333,167/1000,57,170.5
8240,D4,1167.458,0.25,63,170.5
8241,F#5,1167.5,167/1000,58,170.5
8242,A5,1167.667,167/1000,59,170.5
8243,D6,1167.833,167/1000,60,170.5
8244,E-4,1167.958,0.75,71,170.5
8245,F#6,1168.0,0.25,62,170.5
8246,E4,1168.708,0.125,64,170.5
8247,F#4,1168.833,0.125,64,170.5
8248,E4,1168.958,1.0,73,170.5
8249,G4,1169.0,167/1000,54,170.5
8250,B4,1169.167,167/1000,55,170.5
8251,D5,1169.333,167/1000,57,170.5
8252,G5,1169.5,167/1000,58,170.5
8253,B5,1169.667,167/1000,59,170.5
8254,D6,1169.833,167/1000,60,170.5
8255,E-4,1169.958,0.25,69,170.5
8256,G6,1170.0,0.25,62,170.5
8257,C#4,1170.458,0.25,62,170.5
8258,B3,1170.75,0.25,50,170.5
8259,B4,1170.75,0.25,50,170.5
8260,F#4,1170.958,0.25,70,170.5
8261,F5,1171.25,0.25,50,170.5
8262,F4,1171.25,0.25,50,170.5
8263,B-3,1171.458,0.25,63,170.5
8264,C5,1171.75,0.25,52,170.5
8265,C4,1171.75,0.25,52,170.5
8266,B3,1171.958,1.0,71,170.5
8267,F#5,1172.25,0.25,52,170.5
8268,F#4,1172.25,0.25,52,170.5
8269,C4,1172.708,0.125,64,170.5
8270,E-5,1172.75,0.25,56,170.5
8271,E-4,1172.75,0.25,56,170.5
8272,D4,1172.833,0.125,64,170.5
8273,C4,1172.958,1.0,73,170.5
8274,B-5,1173.25,0.25,56,170.5
8275,B-4,1173.25,0.25,56,170.5
8276,G5,1173.75,0.25,56,170.5
8277,G4,1173.75,0.25,56,170.5
8278,B3,1173.958,0.25,69,170.5
8279,E-6,1174.25,0.25,56,170.5
8280,E-5,1174.25,0.25,56,170.5
8281,A3,1174.458,0.25,62,170.5
8282,B-5,1174.75,0.25,57,170.5
8283,B-4,1174.75,0.25,57,170.5
8284,D4,1174.958,0.25,70,170.5
8285,F6,1175.25,0.25,57,170.5
8286,F5,1175.25,0.25,57,170.5
8287,F#3,1175.458,0.25,63,170.5
8288,D6,1175.75,0.25,58,170.5
8289,D5,1175.75,0.25,58,170.5
8290,G3,1175.958,0.75,71,170.5
8291,B-6,1176.25,0.25,58,170.5
8292,B-5,1176.25,0.25,58,170.5
8293,G#2,1176.958,0.25,60,170.5
8294,G#3,1176.958,0.25,60,170.5
8295,D5,1177.0,167/1000,52,170.5
8296,F5,1177.167,167/1000,54,170.5
8297,B-5,1177.333,167/1000,55,170.5
8298,D3,1177.458,0.25,50,170.5
8299,D4,1177.458,0.25,50,170.5
8300,D6,1177.5,167/1000,57,170.5
8301,F6,1177.667,167/1000,59,170.5
8302,B-6,1177.833,167/1000,60,170.5
8303,A2,1177.958,0.25,60,170.5
8304,A3,1177.958,0.25,60,170.5
8305,D7,1178.0,0.25,62,170.5
8306,E-4,1178.458,0.25,52,170.5
8307,E-3,1178.458,0.25,52,170.5
8308,B-2,1178.958,0.25,64,170.5
8309,B-3,1178.958,0.25,64,170.5
8310,G5,1179.0,167/1000,53,170.5
8311,B-5,1179.167,167/1000,55,170.5
8312,E-6,1179.333,167/1000,57,170.5
8313,G4,1179.458,0.25,56,170.5
8314,G3,1179.458,0.25,56,170.5
8315,G6,1179.5,167/1000,59,170.5
8316,B-6,1179.667,167/1000,61,170.5
8317,E-7,1179.833,167/1000,64,170.5
8318,E-4,1179.958,0.25,66,170.5
8319,E-3,1179.958,0.25,66,170.5
8320,G7,1180.0,0.25,66,170.5
8321,B-4,1180.458,0.25,56,170.5
8322,B-3,1180.458,0.25,56,170.5
8323,F3,1180.958,0.25,66,170.5
8324,F4,1180.958,0.25,66,170.5
8325,B-4,1181.0,167/1000,52,170.5
8326,C#5,1181.167,167/1000,54,170.5
8327,F#5,1181.333,167/1000,56,170.5
8328,D5,1181.458,0.25,57,170.5
8329,D4,1181.458,0.25,57,170.5
8330,B-5,1181.5,167/1000,58,170.5
8331,C#6,1181.667,167/1000,60,170.5
8332,F#6,1181.833,167/1000,61,170.5
8333,B-4,1181.958,0.25,69,170.5
8334,B-3,1181.958,0.25,69,170.5
8335,B-6,1182.0,0.25,63,170.5
8336,F5,1182.458,0.25,58,170.5
8337,F4,1182.458,0.25,58,170.5
8338,G#3,1182.958,1.0,68,170.5
8339,G#4,1182.958,1.0,68,170.5
8340,B4,1183.0,167/1000,54,170.5
8341,E-5,1183.167,167/1000,55,170.5
8342,F#5,1183.333,167/1000,57,170.5
8343,B5,1183.5,167/1000,58,170.5
8344,E-6,1183.667,167/1000,60,170.5
8345,F#6,1183.833,167/1000,61,170.5
8346,G3,1183.958,0.25,64,170.5
8347,G4,1183.958,0.25,64,170.5
8348,B6,1184.0,0.25,63,170.5
8349,F3,1184.458,0.25,57,170.5
8350,F4,1184.458,0.25,57,170.5
8351,B-3,1184.958,0.25,64,170.5
8352,B-4,1184.958,0.25,64,170.5
8353,F#4,1185.0,167/1000,54,170.5
8354,G#4,1185.167,167/1000,56,170.5
8355,D5,1185.333,167/1000,57,170.5
8356,D3,1185.458,0.25,58,170.5
8357,D4,1185.458,0.25,58,170.5
8358,F#5,1185.5,167/1000,58,170.5
8359,G#5,1185.667,167/1000,59,170.5
8360,D6,1185.833,167/1000,60,170.5
8361,E-3,1185.958,0.75,66,170.5
8362,E-4,1185.958,0.75,66,170.5
8363,F#6,1186.0,0.25,62,170.5
8364,E3,1186.958,1.0,68,170.5
8365,E4,1186.958,1.0,68,170.5
8366,G4,1187.0,167/1000,54,170.5
8367,B4,1187.167,167/1000,55,170.5
8368,D5,1187.333,167/1000,57,170.5
8369,G5,1187.5,167/1000,58,170.5
8370,B5,1187.667,167/1000,59,170.5
8371,D6,1187.833,167/1000,60,170.5
8372,E-3,1187.958,0.25,64,170.5
8373,E-4,1187.958,0.25,64,170.5
8374,G6,1188.0,0.25,62,170.5
8375,C#3,1188.458,0.25,57,170.5
8376,C#4,1188.458,0.25,57,170.5
8377,B3,1188.75,0.25,50,170.5
8378,B4,1188.75,0.25,50,170.5
8379,F#3,1188.958,0.25,64,170.5
8380,F#4,1188.958,0.25,64,170.5
8381,F5,1189.25,0.25,50,170.5
8382,F4,1189.25,0.25,50,170.5
8383,B-2,1189.458,0.25,58,170.5
8384,B-3,1189.458,0.25,58,170.5
8385,C5,1189.75,0.25,52,170.5
8386,C4,1189.75,0.25,52,170.5
8387,B2,1189.958,0.75,66,170.5
8388,B3,1189.958,0.75,66,170.5
8389,F#5,1190.25,0.25,52,170.5
8390,F#4,1190.25,0.25,52,170.5
8391,E-5,1190.75,0.25,52,170.5
8392,E-4,1190.75,0.25,52,170.5
8393,C3,1190.958,1.0,68,170.5
8394,C4,1190.958,1.0,68,170.5
8395,B-5,1191.25,0.25,52,170.5
8396,B-4,1191.25,0.25,52,170.5
8397,G5,1191.75,0.25,52,170.5
8398,G4,1191.75,0.25,52,170.5
8399,B2,1191.958,0.25,64,170.5
8400,B3,1191.958,0.25,64,170.5
8401,E-6,1192.25,0.25,54,170.5
8402,E-5,1192.25,0.25,54,170.5
8403,A2,1192.458,0.25,57,170.5
8404,A3,1192.458,0.25,57,170.5
8405,B-5,1192.75,0.25,54,170.5
8406,B-4,1192.75,0.25,54,170.5
8407,D3,1192.958,0.25,64,170.5
8408,D4,1192.958,0.25,64,170.5
8409,G6,1193.25,0.25,54,170.5
8410,G5,1193.25,0.25,54,170.5
8411,F#2,1193.458,0.25,58,170.5
8412,F#3,1193.458,0.25,58,170.5
8413,E-6,1193.75,0.25,55,170.5
8414,E-5,1193.75,0.25,55,170.5
8415,G2,1193.958,0.75,66,170.5
8416,G3,1193.958,0.75,66,170.5
8417,B-6,1194.25,0.25,55,170.5
8418,B-5,1194.25,0.25,55,170.5
8419,G#6,1194.75,0.25,50,170.5
8420,G#5,1194.75,0.25,50,170.5
8421,G#2,1194.958,0.25,60,170.5
8422,G#3,1194.958,0.25,60,170.5
8423,F6,1195.25,0.25,50,170.5
8424,F5,1195.25,0.25,50,170.5
8425,D3,1195.458,0.25,50,170.5
8426,D4,1195.458,0.25,50,170.5
8427,D6,1195.75,0.25,50,170.5
8428,D5,1195.75,0.25,50,170.5
8429,A2,1195.958,0.25,60,170.5
8430,A3,1195.958,0.25,60,170.5
8431,B-5,1196.25,0.25,50,170.5
8432,B-4,1196.25,0.25,50,170.5
8433,E-4,1196.458,0.25,52,170.5
8434,E-3,1196.458,0.25,52,170.5
8435,G#5,1196.75,0.25,50,170.5
8436,G#4,1196.75,0.25,50,170.5
8437,B-2,1196.958,0.25,64,170.5
8438,B-3,1196.958,0.25,64,170.5
8439,F5,1197.25,0.25,50,170.5
8440,F4,1197.25,0.25,50,170.5
8441,G4,1197.458,0.25,52,170.5
8442,G3,1197.458,0.25,52,170.5
8443,D5,1197.75,0.25,51,170.5
8444,D4,1197.75,0.25,51,170.5
8445,E-4,1197.958,0.25,64,170.5
8446,E-3,1197.958,0.25,64,170.5
8447,F4,1198.25,0.25,53,170.5
8448,F5,1198.25,0.25,53,170.5
8449,B-4,1198.458,0.25,52,170.5
8450,B-3,1198.458,0.25,52,170.5
8451,G#5,1198.75,0.25,56,170.5
8452,G#4,1198.75,0.25,56,170.5
8453,G3,1198.958,0.25,66,170.5
8454,G4,1198.958,0.25,66,170.5
8455,B-5,1199.25,0.25,58,170.5
8456,B-4,1199.25,0.25,58,170.5
8457,E-5,1199.458,0.25,54,170.5
8458,E-4,1199.458,0.25,54,170.5
8459,D6,1199.75,0.25,61,170.5
8460,D5,1199.75,0.25,61,170.5
8461,B-4,1199.958,0.25,66,170.5
8462,B-3,1199.958,0.25,66,170.5
8463,F5,1200.25,0.25,64,170.5
8464,F6,1200.25,0.25,64,170.5
8465,G5,1200.458,0.25,55,170.5
8466,G4,1200.458,0.25,55,170.5
8467,G#6,1200.75,0.25,67,170.5
8468,G#5,1200.75,0.25,67,170.5
8469,F4,1200.958,0.25,64,170.5
8470,F5,1200.958,0.25,64,170.5
8471,B-6,1201.25,0.25,70,170.5
8472,B-5,1201.25,0.25,70,170.5
8473,D4,1201.458,0.25,58,170.5
8474,D5,1201.458,0.25,58,170.5
8475,C7,1201.75,0.25,73,170.5
8476,C6,1201.75,0.25,73,170.5
8477,B-3,1201.958,0.25,57,170.5
8478,B-4,1201.958,0.25,57,170.5
8479,D6,1202.25,0.25,75,170.5
8480,D7,1202.25,0.25,75,170.5
8481,G#3,1202.458,0.25,57,170.5
8482,G#4,1202.458,0.25,57,170.5
8483,E-7,1202.75,0.25,76,170.5
8484,E-6,1202.75,0.25,76,170.5
8485,F3,1202.958,0.25,64,170.5
8486,F4,1202.958,0.25,64,170.5
8487,F7,1203.25,0.25,68,170.5
8488,D7,1203.25,0.25,68,170.5
8489,B-6,1203.25,0.25,68,170.5
8490,F6,1203.25,0.25,68,170.5
8491,D3,1203.458,0.25,58,170.5
8492,D4,1203.458,0.25,58,170.5
8493,G7,1203.75,0.25,72,170.5
8494,E-7,1203.75,0.25,72,170.5
8495,B-6,1203.75,0.25,72,170.5
8496,G6,1203.75,0.25,72,170.5
8497,B-2,1203.958,0.25,57,170.5
8498,B-3,1203.958,0.25,57,170.5
8499,F7,1204.25,0.25,72,170.5
8500,D7,1204.25,0.25,72,170.5
8501,B-6,1204.25,0.25,72,170.5
8502,F6,1204.25,0.25,72,170.5
8503,G#2,1204.458,0.25,59,170.5
8504,G#3,1204.458,0.25,59,170.5
8505,G7,1204.75,0.25,72,170.5
8506,E-7,1204.75,0.25,72,170.5
8507,B-6,1204.75,0.25,72,170.5
8508,G6,1204.75,0.25,72,170.5
8509,F2,1204.958,0.25,70,170.5
8510,F3,1204.958,0.25,70,170.5
8511,F7,1205.25,0.25,72,170.5
8512,D7,1205.25,0.25,72,170.5
8513,B-6,1205.25,0.25,72,170.5
8514,F6,1205.25,0.25,72,170.5
8515,D2,1205.458,0.25,66,170.5
8516,D3,1205.458,0.25,66,170.5
8517,G7,1205.75,0.25,72,170.5
8518,E-7,1205.75,0.25,72,170.5
8519,G6,1205.75,0.25,72,170.5
8520,B-6,1205.75,0.25,72,170.5
8521,B-1,1205.958,0.25,68,170.5
8522,B-2,1205.958,0.25,68,170.5
8523,F7,1206.25,0.25,72,170.5
8524,D7,1206.25,0.25,72,170.5
8525,B-6,1206.25,0.25,72,170.5
8526,F6,1206.25,0.25,72,170.5
8527,A1,1206.458,0.25,71,170.5
8528,A2,1206.458,0.25,71,170.5
8529,G7,1206.75,0.25,72,170.5
8530,E-7,1206.75,0.25,72,170.5
8531,B-6,1206.75,0.25,72,170.5
8532,G6,1206.75,0.25,72,170.5
8533,G#1,1206.958,0.25,84,170.5
8534,G#2,1206.958,0.25,84,170.5
8535,F7,1207.25,0.25,72,170.5
8536,D7,1207.25,0.25,72,170.5
8537,B-6,1207.25,0.25,72,170.5
8538,F6,1207.25,0.25,72,170.5
8539,G1,1207.458,0.25,80,170.5
8540,G2,1207.458,0.25,80,170.5
8541,G7,1207.75,0.25,72,170.5
8542,E-7,1207.75,0.25,72,170.5
8543,G6,1207.75,0.25,72,170.5
8544,B-6,1207.75,0.25,72,170.5
8545,F1,1207.958,0.25,81,170.5
8546,F2,1207.958,0.25,81,170.5
8547,F7,1208.25,0.25,72,170.5
8548,D7,1208.25,0.25,72,170.5
8549,B-6,1208.25,0.25,72,170.5
8550,F6,1208.25,0.25,72,170.5
8551,B-1,1208.458,0.25,85,170.5
8552,B-2,1208.458,0.25,85,170.5
8553,G7,1208.75,0.25,72,170.5
8554,E-7,1208.75,0.25,72,170.5
8555,B-6,1208.75,0.25,72,170.5
8556,G6,1208.75,0.25,72,170.5
8557,E-1,1208.958,0.25,86,170.5
8558,E-2,1208.958,0.25,86,170.5
8559,F7,1209.25,0.25,72,170.5
8560,D7,1209.25,0.25,72,170.5
8561,B-6,1209.25,0.25,72,170.5
8562,F6,1209.25,0.25,72,170.5
8563,B-1,1209.458,0.25,80,170.5
8564,B-2,1209.458,0.25,80,170.5
8565,G7,1209.75,0.25,72,170.5
8566,E-7,1209.75,0.25,72,170.5
8567,G6,1209.75,0.25,72,170.5
8568,B-6,1209.75,0.25,72,170.5
8569,E-2,1209.958,0.25,86,170.5
8570,E-3,1209.958,0.25,86,170.5
8571,F7,1210.25,0.25,72,170.5
8572,D7,1210.25,0.25,72,170.5
8573,B-6,1210.25,0.25,72,170.5
8574,F6,1210.25,0.25,72,170.5
8575,B-2,1210.458,0.25,80,170.5
8576,B-3,1210.458,0.25,80,170.5
8577,G6,1210.5,0.5,81,170.5
8578,B-6,1210.5,0.5,81,170.5
8579,E-7,1210.5,0.5,81,170.5
8580,G7,1210.5,0.5,81,170.5
8581,E-3,1210.958,0.25,86,170.5
8582,E-4,1210.958,0.25,86,170.5
8583,B-4,1211.25,0.25,71,170.5
8584,G4,1211.25,0.25,71,170.5
8585,E-5,1211.25,0.25,71,170.5
8586,G5,1211.25,0.25,71,170.5
8587,B-2,1211.458,0.25,75,170.5
8588,B-3,1211.458,0.25,75,170.5
8589,G4,1211.5,0.25,78,170.5
8590,B-4,1211.5,0.25,78,170.5
8591,E-5,1211.5,0.25,78,170.5
8592,G5,1211.5,0.25,78,170.5
8593,E-2,1211.958,0.25,81,170.5
8594,E-3,1211.958,0.25,81,170.5
8595,G3,1212.25,0.25,74,170.5
8596,B-3,1212.25,0.25,74,170.5
8597,E-4,1212.25,0.25,74,170.5
8598,B-1,1212.458,0.25,78,170.5
8599,B-2,1212.458,0.25,78,170.5
8600,G3,1212.5,0.25,81,170.5
8601,B-3,1212.5,0.25,81,170.5
8602,E-4,1212.5,0.25,81,170.5
8603,E-2,1212.958,0.25,86,170.5
8604,E-3,1212.958,0.25,86,170.5
8605,B-4,1213.25,0.25,72,170.5
8606,E-5,1213.25,0.25,72,170.5
8607,B-5,1213.25,0.25,72,170.5
8608,B-2,1213.458,0.25,75,170.5
8609,B-3,1213.458,0.25,75,170.5
8610,B-4,1213.5,0.25,80,170.5
8611,E-5,1213.5,0.25,80,170.5
8612,B-5,1213.5,0.25,80,170.5
8613,E-3,1213.958,0.25,81,170.5
8614,E-4,1213.958,0.25,81,170.5
8615,G3,1214.25,0.25,74,170.5
8616,B-3,1214.25,0.25,74,170.5
8617,E-4,1214.25,0.25,74,170.5
8618,B-2,1214.458,0.25,78,170.5
8619,B-3,1214.458,0.25,78,170.5
8620,G3,1214.5,0.25,81,170.5
8621,B-3,1214.5,0.25,81,170.5
8622,E-4,1214.5,0.25,81,170.5
8623,E-2,1214.958,0.25,86,170.5
8624,E-3,1214.958,0.25,86,170.5
8625,B-1,1215.458,0.25,75,170.5
8626,B-2,1215.458,0.25,75,170.5
8627,E-2,1215.958,0.25,81,170.5
8628,E-3,1215.958,0.25,81,170.5
8629,B-2,1216.458,0.25,78,170.5
8630,B-3,1216.458,0.25,78,170.5
8631,E-5,1216.5,0.25,89,170.5
8632,G5,1216.5,0.25,89,170.5
8633,E-6,1216.5,0.25,89,170.5
8634,E-3,1216.958,0.25,86,170.5
8635,E-4,1216.958,0.25,86,170.5
8636,G3,1217.708,0.25,67,170.5
8637,E-3,1217.708,0.25,67,170.5
8638,B-3,1217.708,0.25,67,170.5
8639,E-4,1217.708,0.25,67,170.5
8640,E-3,1217.958,0.25,71,170.5
8641,G3,1217.958,0.25,71,170.5
8642,B-3,1217.958,0.25,71,170.5
8643,E-4,1217.958,0.25,71,170.5
8644,E-6,1218.5,0.25,89,170.5
8645,G6,1218.5,0.25,89,170.5
8646,E-7,1218.5,0.25,89,170.5
8647,E-2,1218.708,0.25,69,170.5
8648,B-2,1218.708,0.25,69,170.5
8649,E-3,1218.708,0.25,69,170.5
8650,E-2,1218.958,0.25,72,170.5
8651,B-2,1218.958,0.25,72,170.5
8652,E-3,1218.958,0.25,72,170.5
8653,G3,1219.708,0.25,67,170.5
8654,B-3,1219.708,0.25,67,170.5
8655,E-4,1219.708,0.25,67,170.5
8656,G4,1219.708,0.25,67,170.5
8657,B-3,1219.958,0.25,71,170.5
8658,G3,1219.958,0.25,71,170.5
8659,E-4,1219.958,0.25,71,170.5
8660,G4,1219.958,0.25,71,170.5
8661,E-2,1220.708,0.25,69,170.5
8662,B-2,1220.708,0.25,69,170.5
8663,E-3,1220.708,0.25,69,170.5
8664,E-2,1220.958,0.25,72,170.5
8665,B-2,1220.958,0.25,72,170.5
8666,E-3,1220.958,0.25,72,170.5
8667,G3,1222.958,0.25,78,170.5
8668,B-3,1222.958,0.25,78,170.5
8669,E-4,1222.958,0.25,78,170.5
8670,G4,1222.958,0.25,78,170.5
8671,G4,1224.958,0.25,78,170.5
8672,B-4,1224.958,0.25,78,170.5
8673,E-5,1224.958,0.25,78,170.5
8674,G5,1224.958,0.25,78,170.5
