,note_name,start_time,duration,velocity,tempo
0,E-3,5.0,1.0,44,162.35
1,G#2,6.0,1.0,40,162.35
2,C4,6.0,3.0,49,162.35
3,E-4,6.5,0.5,34,162.35
4,G#4,7.0,0.5,40,162.35
5,C5,7.5,0.5,36,162.35
6,G#4,8.0,0.5,32,162.35
7,E-4,8.5,0.5,32,162.35
8,C4,9.0,3.0,44,162.35
9,E-4,9.5,0.5,37,162.35
10,G#4,10.0,0.5,40,162.35
11,C5,10.5,0.5,37,162.35
12,G#4,11.0,0.5,33,162.35
13,E-4,11.5,0.5,34,162.35
14,G2,12.0,1.0,32,162.35
15,C4,12.0,5.0,38,162.35
16,E4,12.5,0.5,30,162.35
17,B-4,13.0,0.5,34,162.35
18,C5,13.5,0.5,31,162.35
19,B-4,14.0,0.5,27,162.35
20,E4,14.5,0.5,27,162.35
21,E4,15.5,0.5,30,162.35
22,B-4,16.0,0.5,34,162.35
23,C5,16.5,0.5,30,162.35
24,B-4,17.0,0.5,26,162.35
25,C4,17.0,1.0,39,162.35
26,E4,17.5,0.5,26,162.35
27,F2,18.0,1.0,36,162.35
28,C4,18.0,2.0,45,162.35
29,E-4,18.5,0.5,34,162.35
30,A4,19.0,0.5,36,162.35
31,C5,19.5,0.5,35,162.35
32,A4,20.0,0.5,36,162.35
33,C4,20.0,1.0,47,162.35
34,E-4,20.5,0.5,38,162.35
35,C#4,21.0,2.0,52,162.35
36,E-4,21.5,0.5,38,162.35
37,A4,22.0,0.5,43,162.35
38,C5,22.5,0.5,40,162.35
39,A4,23.0,0.5,37,162.35
40,C4,23.0,1.0,49,162.35
41,E-4,23.5,0.5,37,162.35
42,B-1,24.0,1.0,40,162.35
43,C4,24.0,3.0,56,162.35
44,D4,24.5,0.5,38,162.35
45,G#4,25.0,0.5,43,162.35
46,C5,25.5,0.5,42,162.35
47,G#4,26.0,0.5,39,162.35
48,D4,26.5,0.5,39,162.35
49,F3,27.0,1.0,42,162.35
50,D4,27.5,0.5,36,162.35
51,G#4,28.0,0.5,40,162.35
52,C5,28.5,0.5,37,162.35
53,G#4,29.0,0.5,32,162.35
54,F3,29.0,1.0,42,162.35
55,D4,29.5,0.5,34,162.35
56,E-2,29.875,0.125,41,162.35
57,F3,30.0,1.0,48,162.35
58,E-2,30.0,1.0,41,162.35
59,C#4,30.5,0.5,38,162.35
60,E-4,31.0,0.5,45,162.35
61,G3,31.0,1.0,40,162.35
62,C5,31.5,0.5,38,162.35
63,E-4,32.0,0.5,34,162.35
64,G#3,32.0,0.875,46,162.35
65,C#4,32.5,0.5,33,162.35
66,E-3,32.875,1.125,42,162.35
67,C4,33.0,2.0,50,162.35
68,C#4,33.5,0.5,38,162.35
69,E-4,34.0,0.5,43,162.35
70,G4,34.5,0.5,38,162.35
71,E-4,35.0,0.5,34,162.35
72,B-3,35.0,1.0,50,162.35
73,C#4,35.5,0.5,34,162.35
74,G#2,36.0,1.0,42,162.35
75,G#3,36.0,3.0,46,162.35
76,C4,36.5,0.5,38,162.35
77,E-4,37.0,0.5,43,162.35
78,G#4,37.5,0.5,38,162.35
79,E-4,38.0,0.5,34,162.35
80,C4,38.5,0.5,34,162.35
81,G#1,39.0,1.0,42,162.35
82,G#3,39.471,0.5,38,162.35
83,C4,40.0,0.5,43,162.35
84,G#4,40.558,0.5,38,162.35
85,E-4,41.0,0.5,34,162.35
86,E-3,41.0,0.875,41,162.35
87,G#3,41.5,0.5,34,162.35
88,G#2,41.875,0.125,40,162.35
89,C4,42.0,3.0,44,162.35
90,G#2,42.0,1.0,40,162.35
91,E-4,42.5,0.5,34,162.35
92,G#4,43.0,0.5,40,162.35
93,C5,43.5,0.5,36,162.35
94,G#4,44.0,0.5,32,162.35
95,E-4,44.5,0.5,30,162.35
96,C4,45.0,3.0,42,162.35
97,E-4,45.5,0.5,37,162.35
98,G#4,46.0,0.5,40,162.35
99,C5,46.5,0.5,37,162.35
100,G#4,47.0,0.5,33,162.35
101,E-4,47.5,0.5,33,162.35
102,G2,48.0,1.0,35,162.35
103,C4,48.0,5.0,38,162.35
104,E4,48.5,0.5,28,162.35
105,B-4,49.0,0.5,32,162.35
106,C5,49.5,0.5,30,162.35
107,B-4,50.0,0.5,28,162.35
108,E4,50.5,0.5,28,162.35
109,F#2,51.0,1.0,45,162.35
110,E4,51.5,0.5,32,162.35
111,B-4,52.0,0.5,37,162.35
112,C5,52.5,0.5,35,162.35
113,B-4,53.0,0.5,32,162.35
114,C4,53.0,1.0,45,162.35
115,E4,53.5,0.5,37,162.35
116,F2,54.0,1.0,49,162.35
117,C4,54.0,2.0,56,162.35
118,E-4,54.5,0.5,42,162.35
119,A4,55.0,0.5,45,162.35
120,C5,55.5,0.5,43,162.35
121,A4,56.0,0.5,45,162.35
122,C4,56.0,0.75,59,162.35
123,E-4,56.5,0.5,46,162.35
124,F3,56.75,1.25,47,162.35
125,A3,56.875,1.125,49,162.35
126,C#4,57.0,2.0,64,162.35
127,E-4,57.5,0.5,47,162.35
128,A4,58.0,0.5,54,162.35
129,C5,58.5,0.5,50,162.35
130,A4,59.0,0.5,47,162.35
131,C4,59.0,1.0,62,162.35
132,E-4,59.5,0.5,51,162.35
133,B-2,59.875,0.125,49,162.35
134,F4,60.0,3.0,62,162.35
135,B-2,60.0,1.0,49,162.35
136,D4,60.5,0.5,38,162.35
137,G#4,61.0,0.5,43,162.35
138,F5,61.5,0.5,42,162.35
139,C5,62.0,0.5,39,162.35
140,G#4,62.5,0.5,39,162.35
141,B-1,63.0,1.0,39,162.35
142,G#3,63.5,0.5,36,162.35
143,B-3,64.0,0.5,40,162.35
144,F4,64.5,0.5,37,162.35
145,D4,65.0,0.5,33,162.35
146,F3,65.0,1.0,42,162.35
147,B-3,65.5,0.5,33,162.35
148,E-2,66.0,1.0,44,162.35
149,F3,66.0,1.0,44,162.35
150,B-3,66.5,0.5,38,162.35
151,C#4,67.0,0.5,45,162.35
152,G3,67.0,1.0,40,162.35
153,G4,67.5,0.5,38,162.35
154,E-4,68.0,0.5,34,162.35
155,G#3,68.0,1.0,46,162.35
156,C#4,68.5,0.5,35,162.35
157,E-3,69.0,1.0,42,162.35
158,C4,69.0,2.0,50,162.35
159,C#4,69.5,0.5,38,162.35
160,E-4,70.0,0.5,43,162.35
161,G4,70.5,0.5,38,162.35
162,E-4,71.0,0.5,33,162.35
163,B-3,71.0,1.0,50,162.35
164,C#4,71.5,0.5,33,162.35
165,G#2,72.0,1.0,44,162.35
166,G#3,72.0,1.0,44,162.35
167,C4,72.5,0.5,38,162.35
168,E-4,73.0,0.5,43,162.35
169,G#4,73.5,0.5,38,162.35
170,E-4,74.0,0.5,34,162.35
171,C4,74.5,0.5,34,162.35
172,G#1,75.0,1.0,42,162.35
173,C4,75.5,0.5,38,162.35
174,G#4,76.0,0.5,43,162.35
175,E-4,76.5,0.5,38,162.35
176,C4,77.0,0.5,38,162.35
177,G#3,77.5,247/500,47,162.35
178,E2,78.0,1.0,40,162.35
179,G#3,78.0,2.5,50,162.35
180,C#4,78.5,0.5,38,162.35
181,G#4,79.0,0.5,40,162.35
182,E4,79.5,0.5,38,162.35
183,C#4,80.0,0.5,34,162.35
184,G3,80.5,0.5,51,162.35
185,G#3,81.0,2.5,55,162.35
186,C#2,81.0,1.0,36,162.35
187,E3,81.0,1.0,36,162.35
188,C#4,81.5,0.5,40,162.35
189,G#4,82.0,0.5,45,162.35
190,E4,82.5,0.5,42,162.35
191,C#4,83.0,0.5,42,162.35
192,B-3,83.5,0.5,51,162.35
193,C4,84.0,3.0,56,162.35
194,G#2,84.0,1.0,38,162.35
195,E-3,84.0,1.0,38,162.35
196,E-4,84.5,0.5,40,162.35
197,C5,85.0,0.5,45,162.35
198,G#4,85.5,0.5,42,162.35
199,E-4,86.0,0.5,38,162.35
200,C4,86.5,0.5,38,162.35
201,G#1,87.0,1.0,40,162.35
202,E-4,87.5,0.5,40,162.35
203,C5,88.0,0.5,45,162.35
204,G#4,88.5,0.5,42,162.35
205,E-4,89.0,0.5,42,162.35
206,C4,89.5,62/125,46,162.35
207,G#2,90.0,1.0,46,162.35
208,C4,90.0,2.0,57,162.35
209,F4,90.5,0.5,43,162.35
210,C5,91.0,0.5,46,162.35
211,G#4,91.5,0.5,39,162.35
212,F4,92.0,0.5,40,162.35
213,B3,92.5,0.5,59,162.35
214,C4,93.0,2.5,62,162.35
215,F2,93.0,1.0,41,162.35
216,G#3,93.0,1.0,41,162.35
217,F4,93.5,0.5,48,162.35
218,C5,94.0,0.5,53,162.35
219,G#4,94.5,0.5,47,162.35
220,F4,95.0,0.5,47,162.35
221,D4,95.5,0.5,59,162.35
222,E4,96.0,3.0,63,162.35
223,G3,96.0,1.0,46,162.35
224,C2,96.0,1.0,46,162.35
225,G4,96.5,0.5,50,162.35
226,C5,97.0,0.5,56,162.35
227,E5,97.5,0.5,52,162.35
228,C5,98.0,0.5,49,162.35
229,G4,98.5,0.5,49,162.35
230,E4,99.0,3.0,63,162.35
231,G4,99.5,0.5,50,162.35
232,C5,100.0,0.5,56,162.35
233,E5,100.5,0.5,52,162.35
234,C5,101.0,0.5,49,162.35
235,G4,101.5,0.5,49,162.35
236,A2,101.75,0.25,41,162.35
237,E3,101.875,0.125,42,162.35
238,C4,102.0,1.0,42,162.35
239,E4,102.0,3.0,46,162.35
240,A2,102.0,1.0,41,162.35
241,E3,102.0,1.0,42,162.35
242,A4,102.5,0.5,39,162.35
243,C5,103.0,0.5,45,162.35
244,E5,103.5,0.5,38,162.35
245,C5,104.0,0.5,33,162.35
246,A4,104.5,0.5,33,162.35
247,E4,105.0,3.0,53,162.35
248,A4,105.5,0.5,34,162.35
249,C5,106.0,0.5,41,162.35
250,E5,106.5,0.5,35,162.35
251,C5,107.0,0.5,32,162.35
252,A4,107.5,0.5,32,162.35
253,E2,107.75,0.25,33,162.35
254,B2,107.875,0.125,37,162.35
255,G#3,108.0,1.0,42,162.35
256,E4,108.0,3.0,42,162.35
257,E2,108.0,1.0,33,162.35
258,B2,108.0,1.0,37,162.35
259,G#4,108.5,0.5,33,162.35
260,B4,109.0,0.5,41,162.35
261,E5,109.5,0.5,36,162.35
262,B4,110.0,0.5,32,162.35
263,G#4,110.5,0.5,33,162.35
264,B3,111.0,3.0,39,162.35
265,E4,111.5,0.5,31,162.35
266,G#4,112.0,0.5,37,162.35
267,B4,112.5,0.5,31,162.35
268,G#4,113.0,0.5,31,162.35
269,E4,113.5,0.5,27,162.35
270,E2,113.875,0.125,33,162.35
271,G#3,114.0,1.0,42,162.35
272,C#4,114.0,3.0,42,162.35
273,E2,114.0,1.0,33,162.35
274,E4,114.5,0.5,26,162.35
275,G#4,115.0,0.5,33,162.35
276,C#5,115.5,0.5,31,162.35
277,G#4,116.0,0.5,30,162.35
278,E4,116.5,0.5,30,162.35
279,C#4,117.0,62/125,44,162.35
280,C#4,117.5,1.938,27,162.35
281,E4,118.0,0.5,34,162.35
282,G#4,118.5,0.5,30,162.35
283,E4,119.0,0.5,26,162.35
284,G#3,119.0,1.0,36,162.35
285,C#4,119.5,0.5,29,162.35
286,E-2,119.875,0.125,40,162.35
287,G3,120.0,1.0,41,162.35
288,B-3,120.0,3.0,45,162.35
289,E-2,120.0,1.0,40,162.35
290,E-4,120.5,0.5,31,162.35
291,G4,121.0,0.5,38,162.35
292,B-4,121.5,0.5,34,162.35
293,G4,122.0,0.5,31,162.35
294,E-4,122.5,0.5,31,162.35
295,C#4,123.0,2.0,48,162.35
296,E2,123.0,1.0,44,162.35
297,G#3,123.0,1.0,44,162.35
298,E4,123.5,0.5,31,162.35
299,G#4,124.0,0.5,38,162.35
300,C#5,124.5,0.5,32,162.35
301,G#4,125.0,0.5,29,162.35
302,B3,125.0,1.0,42,162.35
303,E4,125.5,0.5,29,162.35
304,E-2,126.0,1.0,40,162.35
305,G3,126.0,1.0,40,162.35
306,B-3,126.0,1.0,40,162.35
307,E-4,126.5,0.5,31,162.35
308,G4,127.0,0.5,38,162.35
309,A3,127.0,1.0,42,162.35
310,B-4,127.5,0.5,33,162.35
311,G4,128.0,0.5,30,162.35
312,B-3,128.0,1.0,43,162.35
313,E-4,128.5,0.5,30,162.35
314,E2,128.875,1.125,43,162.35
315,G#3,129.0,1.0,52,162.35
316,C#4,129.0,2.0,52,162.35
317,E4,129.5,0.5,33,162.35
318,G#4,130.0,0.5,40,162.35
319,C#5,130.5,0.5,34,162.35
320,G#4,131.0,0.5,31,162.35
321,B3,131.0,1.0,45,162.35
322,E4,131.5,0.5,31,162.35
323,E-2,132.0,1.0,39,162.35
324,G3,132.0,1.0,39,162.35
325,B-3,132.0,1.0,39,162.35
326,E-4,132.5,0.5,31,162.35
327,G4,133.0,0.5,39,162.35
328,A3,133.0,1.0,39,162.35
329,B-4,133.5,0.5,34,162.35
330,G4,134.0,0.5,32,162.35
331,B-3,134.0,1.0,41,162.35
332,E-4,134.5,0.5,33,162.35
333,E4,135.0,2.0,45,162.35
334,C#2,135.0,1.0,42,162.35
335,C#3,135.0,1.0,42,162.35
336,G#4,135.5,0.5,36,162.35
337,B-4,136.0,0.5,45,162.35
338,G#3,136.0,1.0,41,162.35
339,E5,136.5,0.5,41,162.35
340,B-4,137.0,0.5,38,162.35
341,B-3,137.0,1.0,43,162.35
342,G#4,137.5,0.5,41,162.35
343,E4,138.0,1.0,51,162.35
344,E-4,139.0,1.0,41,162.35
345,C#4,140.0,1.0,40,162.35
346,B3,141.0,1.0,39,162.35
347,B-3,142.0,1.0,37,162.35
348,G#3,143.0,1.0,36,162.35
349,G3,144.0,1.0,35,162.35
350,E-2,147.0,0.5,37,162.35
351,B-2,147.5,0.5,33,162.35
352,C#3,148.0,0.5,37,162.35
353,G3,148.5,0.5,33,162.35
354,B-3,149.0,0.5,37,162.35
355,C#4,149.5,0.5,32,162.35
356,E4,150.0,0.5,37,162.35
357,E-4,150.5,0.5,34,162.35
358,G#4,151.0,0.25,37,162.35
359,E4,151.0,0.25,37,162.35
360,E-4,151.25,0.25,39,162.35
361,G4,151.25,0.25,39,162.35
362,E4,151.5,0.25,33,162.35
363,G#4,151.5,0.25,40,162.35
364,C#5,151.5,0.25,40,162.35
365,E-4,151.75,0.25,35,162.35
366,G4,151.75,0.25,42,162.35
367,B-4,151.75,0.25,42,162.35
368,G#4,152.0,0.25,36,162.35
369,C#5,152.0,0.25,43,162.35
370,E5,152.0,0.25,43,162.35
371,G4,152.25,0.25,37,162.35
372,B-4,152.25,0.25,45,162.35
373,E-5,152.25,0.25,45,162.35
374,C#5,152.5,0.25,38,162.35
375,E5,152.5,0.25,46,162.35
376,G#5,152.5,0.25,46,162.35
377,B-4,152.75,0.25,40,162.35
378,E-5,152.75,0.25,48,162.35
379,G5,152.75,0.25,48,162.35
380,E5,153.0,0.25,41,162.35
381,C#6,153.0,0.25,49,162.35
382,G#5,153.0,0.25,49,162.35
383,E-5,153.25,0.25,42,162.35
384,G5,153.25,0.25,51,162.35
385,B-5,153.25,0.25,51,162.35
386,G#5,153.5,0.25,43,162.35
387,C#6,153.5,0.25,52,162.35
388,E6,153.5,0.25,52,162.35
389,G5,153.75,0.25,45,162.35
390,B-5,153.75,0.25,54,162.35
391,E-6,153.75,0.25,54,162.35
392,C#6,154.0,0.25,46,162.35
393,E6,154.0,0.25,55,162.35
394,G#6,154.0,0.25,55,162.35
395,B-5,154.25,0.25,47,162.35
396,E-6,154.25,0.25,57,162.35
397,G6,154.25,0.25,57,162.35
398,E6,154.5,0.25,48,162.35
399,G#6,154.5,0.25,58,162.35
400,C#7,154.5,0.25,58,162.35
401,E-6,154.75,0.25,50,162.35
402,B-6,154.75,0.25,60,162.35
403,G6,154.75,0.25,60,162.35
404,G#6,155.0,0.25,51,162.35
405,C#7,155.0,0.25,61,162.35
406,E7,155.0,0.25,61,162.35
407,G6,155.25,0.25,52,162.35
408,B-6,155.25,0.25,61,162.35
409,E-7,155.25,0.25,61,162.35
410,G#6,155.5,0.25,51,162.35
411,C#7,155.5,0.25,60,162.35
412,E7,155.5,0.25,60,162.35
413,G6,155.75,0.25,50,162.35
414,B-6,155.75,0.25,59,162.35
415,E-7,155.75,0.25,59,162.35
416,E6,156.0,0.25,49,162.35
417,G#6,156.0,0.25,57,162.35
418,C#7,156.0,0.25,57,162.35
419,E-6,156.25,0.25,48,162.35
420,G6,156.25,0.25,57,162.35
421,B-6,156.25,0.25,57,162.35
422,C#6,156.5,0.25,46,162.35
423,G#6,156.5,0.25,55,162.35
424,E6,156.5,0.25,55,162.35
425,B-5,156.75,0.25,45,162.35
426,E-6,156.75,0.25,54,162.35
427,G6,156.75,0.25,54,162.35
428,C#6,157.0,0.25,44,162.35
429,G#6,157.0,0.25,53,162.35
430,E6,157.0,0.25,53,162.35
431,B-5,157.25,0.25,43,162.35
432,E-6,157.25,0.25,52,162.35
433,G6,157.25,0.25,52,162.35
434,G#5,157.5,0.25,42,162.35
435,C#6,157.5,0.25,51,162.35
436,E6,157.5,0.25,51,162.35
437,G5,157.75,0.25,41,162.35
438,B-5,157.75,0.25,50,162.35
439,E-6,157.75,0.25,50,162.35
440,E5,158.0,0.25,40,162.35
441,C#6,158.0,0.25,49,162.35
442,G#5,158.0,0.25,49,162.35
443,E-5,158.25,0.25,39,162.35
444,B-5,158.25,0.25,48,162.35
445,G5,158.25,0.25,48,162.35
446,E5,158.5,0.25,38,162.35
447,C#6,158.5,0.25,47,162.35
448,G#5,158.5,0.25,47,162.35
449,E-5,158.75,0.25,37,162.35
450,B-5,158.75,0.25,46,162.35
451,G5,158.75,0.25,46,162.35
452,C#5,159.0,0.25,36,162.35
453,G#5,159.0,0.25,45,162.35
454,E5,159.0,0.25,45,162.35
455,B-4,159.25,0.25,35,162.35
456,E-5,159.25,0.25,44,162.35
457,G5,159.25,0.25,44,162.35
458,G#4,159.5,0.25,33,162.35
459,C#5,159.5,0.25,43,162.35
460,E5,159.5,0.25,43,162.35
461,G4,159.75,0.25,31,162.35
462,B-4,159.75,0.25,42,162.35
463,E-5,159.75,0.25,42,162.35
464,G#4,160.0,0.25,33,162.35
465,C#5,160.0,0.25,41,162.35
466,E5,160.0,0.25,41,162.35
467,G4,160.25,0.25,31,162.35
468,B-4,160.25,0.25,40,162.35
469,E-5,160.25,0.25,40,162.35
470,E4,160.5,0.25,33,162.35
471,G#4,160.5,0.25,39,162.35
472,C#5,160.5,0.25,39,162.35
473,E-4,160.75,0.25,31,162.35
474,G4,160.75,0.25,38,162.35
475,B-4,160.75,0.25,38,162.35
476,E4,161.0,0.25,29,162.35
477,G#4,161.0,0.25,41,162.35
478,C#5,161.0,0.25,41,162.35
479,E-4,161.25,0.25,30,162.35
480,G4,161.25,0.25,42,162.35
481,B-4,161.25,0.25,42,162.35
482,E4,161.5,0.25,31,162.35
483,G#4,161.5,0.25,43,162.35
484,C#5,161.5,0.25,43,162.35
485,E-4,161.75,0.25,32,162.35
486,G4,161.75,0.25,44,162.35
487,B-4,161.75,0.25,44,162.35
488,E4,162.0,0.25,34,162.35
489,G#4,162.0,0.25,46,162.35
490,C#5,162.0,0.25,46,162.35
491,G#4,162.0,0.25,46,162.35
492,C#5,162.0,0.25,46,162.35
493,E-4,162.25,0.25,36,162.35
494,G4,162.25,0.25,48,162.35
495,B-4,162.25,0.25,48,162.35
496,E4,162.5,0.25,38,162.35
497,G#4,162.5,0.25,51,162.35
498,C#5,162.5,0.25,51,162.35
499,E-4,162.75,0.25,39,162.35
500,G4,162.75,0.25,53,162.35
501,B-4,162.75,0.25,53,162.35
502,E4,163.0,0.25,41,162.35
503,G#4,163.0,0.25,55,162.35
504,C#5,163.0,0.25,55,162.35
505,E-4,163.25,0.25,43,162.35
506,G4,163.25,0.25,57,162.35
507,B-4,163.25,0.25,57,162.35
508,E4,163.5,0.25,45,162.35
509,G#4,163.5,0.25,60,162.35
510,C#5,163.5,0.25,60,162.35
511,E-4,163.75,0.25,47,162.35
512,G4,163.75,0.25,62,162.35
513,B-4,163.75,0.25,62,162.35
514,E4,164.0,0.25,49,162.35
515,G#4,164.0,0.25,65,162.35
516,C#5,164.0,0.25,65,162.35
517,E-4,164.25,0.25,51,162.35
518,G4,164.25,0.25,64,162.35
519,B-4,164.25,0.25,64,162.35
520,E4,164.5,0.25,50,162.35
521,G#4,164.5,0.25,61,162.35
522,C#5,164.5,0.25,61,162.35
523,E-4,164.75,0.25,48,162.35
524,G4,164.75,0.25,58,162.35
525,B-4,164.75,0.25,58,162.35
526,E4,165.0,0.25,46,162.35
527,G#4,165.0,0.25,55,162.35
528,C#5,165.0,0.25,55,162.35
529,E-4,165.25,0.25,45,162.35
530,G4,165.25,0.25,53,162.35
531,B-4,165.25,0.25,53,162.35
532,E4,165.5,0.25,43,162.35
533,G#4,165.5,0.25,48,162.35
534,C#5,165.5,0.25,48,162.35
535,E-4,165.75,0.25,41,162.35
536,G4,165.75,0.25,44,162.35
537,B-4,165.75,0.25,44,162.35
538,E4,166.0,0.25,38,162.35
539,G#4,166.0,0.25,41,162.35
540,C#5,166.0,0.25,41,162.35
541,E-4,166.25,0.25,36,162.35
542,G4,166.25,0.25,37,162.35
543,B-4,166.25,0.25,37,162.35
544,E4,166.5,0.25,33,162.35
545,G#4,166.5,0.25,34,162.35
546,C#5,166.5,0.25,34,162.35
547,E-4,166.75,0.25,30,162.35
548,G4,166.75,0.25,30,162.35
549,B-4,166.75,0.25,30,162.35
550,D5,169.0,1.0,46,162.35
551,E-5,170.0,3.0,52,162.35
552,B2,170.0,1.0,35,162.35
553,E-4,170.5,0.5,27,162.35
554,F#3,170.5,0.5,22,162.35
555,F#4,171.0,0.5,32,162.35
556,B3,171.0,0.5,27,162.35
557,B4,171.5,0.5,28,162.35
558,E-4,171.5,0.5,24,162.35
559,F#4,172.0,0.5,27,162.35
560,B3,172.0,0.5,22,162.35
561,E-4,172.5,0.5,27,162.35
562,F#3,172.5,0.5,22,162.35
563,E-5,173.0,3.0,52,162.35
564,E-4,173.5,0.5,29,162.35
565,F#3,173.5,0.5,24,162.35
566,F#4,174.0,0.5,32,162.35
567,B3,174.0,0.5,27,162.35
568,B4,174.5,0.5,29,162.35
569,E-4,174.5,0.5,24,162.35
570,F#4,175.0,0.5,28,162.35
571,B3,175.0,0.5,24,162.35
572,E-4,175.5,0.5,29,162.35
573,F#3,175.5,0.5,24,162.35
574,E-5,176.0,3.0,54,162.35
575,B-2,176.0,1.0,35,162.35
576,E-4,176.5,0.5,32,162.35
577,G3,176.5,0.5,27,162.35
578,G4,177.0,0.5,38,162.35
579,C#4,177.0,0.5,31,162.35
580,C#5,177.5,0.5,32,162.35
581,E-4,177.5,0.5,27,162.35
582,G4,178.0,0.5,30,162.35
583,C#4,178.0,0.5,27,162.35
584,E-4,178.5,0.5,30,162.35
585,G3,178.5,0.5,25,162.35
586,E-4,179.5,0.5,32,162.35
587,G3,179.5,0.5,26,162.35
588,G4,180.0,0.5,35,162.35
589,C#4,180.0,0.5,31,162.35
590,C#5,180.5,0.5,32,162.35
591,E-4,180.5,0.5,26,162.35
592,E-5,181.0,1.0,52,162.35
593,G4,181.0,0.5,28,162.35
594,C#4,181.0,0.5,28,162.35
595,E-4,181.5,0.5,33,162.35
596,G3,181.5,0.5,28,162.35
597,E-5,182.0,2.0,56,162.35
598,A2,182.0,1.0,35,162.35
599,E-4,182.5,0.5,35,162.35
600,F#3,182.5,0.5,25,162.35
601,F#4,183.0,0.5,37,162.35
602,C#4,183.0,0.5,29,162.35
603,C#5,183.5,0.5,34,162.35
604,E-4,183.5,0.5,28,162.35
605,F#4,184.0,0.5,31,162.35
606,E-5,184.0,1.0,50,162.35
607,C#4,184.0,0.5,28,162.35
608,E-4,184.5,0.5,35,162.35
609,F#3,184.5,0.5,28,162.35
610,E5,185.0,2.0,55,162.35
611,G#2,185.0,1.0,38,162.35
612,E-4,185.5,0.5,38,162.35
613,F#3,185.5,0.5,30,162.35
614,F#4,186.0,0.5,42,162.35
615,C4,186.0,0.5,34,162.35
616,C5,186.5,0.5,37,162.35
617,E-4,186.5,0.5,32,162.35
618,E-5,187.0,1.0,49,162.35
619,F#4,187.0,0.5,33,162.35
620,C4,187.0,0.5,32,162.35
621,E-4,187.5,0.5,33,162.35
622,F#3,187.5,0.5,32,162.35
623,E-5,188.0,3.0,56,162.35
624,C#2,188.0,1.0,35,162.35
625,E-4,188.5,0.5,30,162.35
626,F3,188.5,0.5,25,162.35
627,F4,189.0,0.5,34,162.35
628,B3,189.0,0.5,28,162.35
629,B4,189.5,0.5,33,162.35
630,E-4,189.5,0.5,28,162.35
631,F4,190.0,0.5,31,162.35
632,B3,190.0,0.5,26,162.35
633,E-4,190.5,0.5,31,162.35
634,F3,190.5,0.5,26,162.35
635,G#4,191.0,1.0,46,162.35
636,B3,191.5,0.5,24,162.35
637,C#3,191.5,0.5,20,162.35
638,C#4,192.0,0.5,30,162.35
639,F3,192.0,0.5,24,162.35
640,F4,192.5,0.5,24,162.35
641,B3,192.5,0.5,22,162.35
642,C#4,193.0,0.5,31,162.35
643,G#4,193.0,1.0,46,162.35
644,F3,193.0,0.5,22,162.35
645,B3,193.5,0.5,31,162.35
646,C#3,193.5,0.5,22,162.35
647,G#4,194.0,1.0,52,162.35
648,F#2,194.0,1.0,35,162.35
649,C#4,194.5,0.5,36,162.35
650,E3,194.5,0.5,25,162.35
651,B-4,195.0,1.0,54,162.35
652,E4,195.0,0.5,38,162.35
653,F#3,195.0,0.5,28,162.35
654,F#4,195.5,0.5,38,162.35
655,C#4,195.5,0.5,28,162.35
656,B4,196.0,1.0,56,162.35
657,E4,196.0,0.5,38,162.35
658,F#3,196.0,0.5,26,162.35
659,C#4,196.5,0.5,42,162.35
660,E3,196.5,0.5,27,162.35
661,E-5,197.0,2.0,60,162.35
662,E4,197.5,0.5,40,162.35
663,F#3,197.5,0.5,31,162.35
664,F#4,198.0,0.5,48,162.35
665,B-3,198.0,0.5,36,162.35
666,B-4,198.5,0.5,40,162.35
667,E4,198.5,0.5,31,162.35
668,C#5,199.0,1.0,53,162.35
669,F#4,199.0,0.5,31,162.35
670,B-3,199.0,0.5,31,162.35
671,E4,199.5,0.5,37,162.35
672,F#3,199.5,0.5,28,162.35
673,C#5,200.0,1.0,60,162.35
674,E-4,200.5,0.5,37,162.35
675,B2,200.5,0.5,24,162.35
676,F#4,201.0,0.5,34,162.35
677,B4,201.0,1.0,53,162.35
678,F#3,201.0,0.5,28,162.35
679,E-4,201.5,0.5,36,162.35
680,B3,201.5,0.5,26,162.35
681,G#4,202.0,1.0,53,162.35
682,F3,202.0,0.5,28,162.35
683,D4,202.5,0.5,31,162.35
684,B3,202.5,0.5,25,162.35
685,E-4,203.0,0.5,34,162.35
686,F#4,203.0,1.0,52,162.35
687,F#3,203.0,0.5,28,162.35
688,E-4,203.5,0.5,27,162.35
689,C#4,204.0,0.5,27,162.35
690,B3,204.5,0.5,26,162.35
691,G#3,205.0,0.5,33,162.35
692,F#4,205.5,0.5,65,162.35
693,F#3,205.5,0.5,32,162.35
694,E-5,206.0,3.0,72,162.35
695,B2,206.0,1.0,54,162.35
696,E-4,206.5,0.5,49,162.35
697,F#3,206.5,0.5,38,162.35
698,F#4,207.0,0.5,56,162.35
699,B3,207.0,0.5,45,162.35
700,B4,207.5,0.5,47,162.35
701,E-4,207.5,0.5,38,162.35
702,F#4,208.0,0.5,47,162.35
703,B3,208.0,0.5,37,162.35
704,E-4,208.5,0.5,47,162.35
705,F#3,208.5,0.5,37,162.35
706,E-5,209.0,3.0,79,162.35
707,B-2,209.0,1.0,60,162.35
708,E-4,209.5,0.5,57,162.35
709,G3,209.5,0.5,45,162.35
710,G4,210.0,0.5,63,162.35
711,C#4,210.0,0.5,50,162.35
712,C#5,210.5,0.5,58,162.35
713,E-4,210.5,0.5,46,162.35
714,G4,211.0,0.5,58,162.35
715,C#4,211.0,0.5,46,162.35
716,E-4,211.5,0.5,58,162.35
717,G3,211.5,0.5,46,162.35
718,E-5,212.0,3.0,81,162.35
719,A2,212.0,1.0,68,162.35
720,E-4,212.5,0.5,62,162.35
721,F#3,212.5,0.5,46,162.35
722,F#4,213.0,0.5,67,162.35
723,C4,213.0,0.5,49,162.35
724,C5,213.5,0.5,66,162.35
725,E-4,213.5,0.5,47,162.35
726,F#4,214.0,0.5,69,162.35
727,C4,214.0,0.5,47,162.35
728,E-4,214.5,0.5,69,162.35
729,F#3,214.5,0.5,48,162.35
730,G#2,215.0,1.0,77,162.35
731,E-4,215.5,0.5,62,162.35
732,F#3,215.5,0.5,49,162.35
733,F#4,216.0,0.5,68,162.35
734,C4,216.0,0.5,52,162.35
735,C5,216.5,0.5,65,162.35
736,E-4,216.5,0.5,48,162.35
737,E-5,217.0,1.0,76,162.35
738,F#4,217.0,0.5,57,162.35
739,C4,217.0,0.5,48,162.35
740,E-4,217.5,0.5,66,162.35
741,F#3,217.5,0.5,48,162.35
742,E-5,218.0,2.0,82,162.35
743,G2,218.0,1.0,81,162.35
744,E4,218.5,0.5,67,162.35
745,G3,218.5,0.5,45,162.35
746,G4,219.0,0.5,71,162.35
747,C4,219.0,0.5,54,162.35
748,C5,219.5,0.5,64,162.35
749,E4,219.5,0.5,48,162.35
750,G4,220.0,0.5,54,162.35
751,E5,220.0,1.0,75,162.35
752,C4,220.0,0.5,45,162.35
753,E4,220.5,0.5,63,162.35
754,G3,220.5,0.5,45,162.35
755,E-5,221.0,2.0,80,162.35
756,E4,221.5,0.5,64,162.35
757,G3,221.5,0.5,47,162.35
758,G4,222.0,0.5,71,162.35
759,C4,222.0,0.5,57,162.35
760,C5,222.5,0.5,61,162.35
761,E4,222.5,0.5,47,162.35
762,E5,223.0,1.0,78,162.35
763,G4,223.0,0.5,54,162.35
764,C4,223.0,0.5,47,162.35
765,E4,223.5,0.5,54,162.35
766,G3,223.5,0.5,47,162.35
767,F5,224.0,5.0,84,162.35
768,G2,224.0,1.0,75,162.35
769,F4,224.5,0.5,67,162.35
770,A3,224.5,0.5,52,162.35
771,A4,225.0,0.5,72,162.35
772,D4,225.0,0.5,54,162.35
773,C4,225.0,0.5,54,162.35
774,C5,225.5,0.5,58,162.35
775,F4,225.5,0.5,48,162.35
776,A4,226.0,0.5,51,162.35
777,D4,226.0,0.5,48,162.35
778,C4,226.0,0.5,48,162.35
779,F4,226.5,0.5,51,162.35
780,A3,226.5,0.5,48,162.35
781,A3,229.0,1.0,74,162.35
782,A4,229.0,1.0,74,162.35
783,A3,230.0,1.0,81,162.35
784,A4,230.0,1.0,81,162.35
785,G2,230.5,0.5,63,162.35
786,B3,231.0,1.0,65,162.35
787,B4,231.0,1.0,65,162.35
788,D3,231.0,0.5,64,162.35
789,F3,231.0,0.5,64,162.35
790,A3,231.5,0.5,54,162.35
791,C4,232.0,1.0,68,162.35
792,C5,232.0,1.0,68,162.35
793,D3,232.0,0.5,60,162.35
794,F3,232.0,0.5,60,162.35
795,G2,232.5,0.375,58,162.35
796,G2,232.875,0.469,73,162.35
797,F3,232.875,0.469,73,162.35
798,B3,232.938,0.438,74,162.35
799,E4,232.969,2.0,73,162.35
800,E5,232.969,2.0,73,162.35
801,D4,235.0,1.0,62,162.35
802,D5,235.0,1.0,62,162.35
803,G4,236.0,1.0,68,162.35
804,C4,236.0,1.0,68,162.35
805,C5,236.0,1.0,68,162.35
806,C2,236.0,1.0,62,162.35
807,E3,236.0,1.0,62,162.35
808,C5,237.0,0.5,73,162.35
809,E4,237.5,0.5,63,162.35
810,G4,238.0,0.5,70,162.35
811,C4,238.5,0.5,61,162.35
812,E4,239.0,0.5,68,162.35
813,G3,239.5,0.5,62,162.35
814,C4,240.0,0.5,70,162.35
815,E3,240.5,0.5,60,162.35
816,G3,241.0,0.5,68,162.35
817,C3,241.5,0.5,61,162.35
818,C6,241.5,0.5,74,162.35
819,C5,241.5,0.5,74,162.35
820,C5,242.0,2.5,72,162.35
821,F5,242.0,2.5,72,162.35
822,G#5,242.0,2.5,72,162.35
823,C6,242.0,2.5,72,162.35
824,F2,242.0,0.5,69,162.35
825,F3,242.0,0.5,69,162.35
826,G#4,243.0,0.5,68,162.35
827,C4,243.5,0.5,61,162.35
828,F4,244.0,0.5,67,162.35
829,G#3,244.5,0.5,61,162.35
830,B4,244.5,0.5,72,162.35
831,F5,244.5,0.5,72,162.35
832,G#5,244.5,0.5,72,162.35
833,B5,244.5,0.5,72,162.35
834,C4,245.0,0.5,66,162.35
835,C5,245.0,2.5,79,162.35
836,F5,245.0,2.5,79,162.35
837,G#5,245.0,2.5,79,162.35
838,C6,245.0,2.5,79,162.35
839,F3,245.5,0.5,61,162.35
840,G#3,246.0,0.5,66,162.35
841,C3,246.5,0.5,61,162.35
842,F3,247.0,0.5,67,162.35
843,G#2,247.5,0.5,61,162.35
844,D5,247.5,0.5,71,162.35
845,F5,247.5,0.5,71,162.35
846,G#5,247.5,0.5,71,162.35
847,D6,247.5,0.5,71,162.35
848,E5,248.0,2.5,78,162.35
849,G5,248.0,2.5,78,162.35
850,E6,248.0,2.5,78,162.35
851,C2,248.0,1.0,62,162.35
852,C3,248.0,1.0,62,162.35
853,C5,249.0,0.5,73,162.35
854,E4,249.5,0.5,63,162.35
855,G4,250.0,0.5,70,162.35
856,C4,250.5,0.5,61,162.35
857,D5,250.5,0.5,78,162.35
858,G5,250.5,0.5,78,162.35
859,D6,250.5,0.5,78,162.35
860,E4,251.0,0.5,68,162.35
861,C5,251.0,1.0,81,162.35
862,G5,251.0,1.0,81,162.35
863,C6,251.0,1.0,81,162.35
864,G3,251.5,0.5,62,162.35
865,C4,252.0,0.5,70,162.35
866,E3,252.5,0.5,60,162.35
867,G3,253.0,0.5,68,162.35
868,C3,253.5,0.5,61,162.35
869,E6,253.5,0.5,82,162.35
870,E5,253.5,0.5,82,162.35
871,E5,254.0,2.5,83,162.35
872,A5,254.0,2.5,83,162.35
873,C6,254.0,2.5,83,162.35
874,E6,254.0,2.5,83,162.35
875,A1,254.0,0.5,69,162.35
876,A2,254.0,0.5,69,162.35
877,C5,255.0,0.5,68,162.35
878,E4,255.5,0.5,61,162.35
879,A4,256.0,0.5,67,162.35
880,C4,256.5,0.5,61,162.35
881,E-5,256.5,0.5,78,162.35
882,A5,256.5,0.5,78,162.35
883,C6,256.5,0.5,78,162.35
884,E-6,256.5,0.5,78,162.35
885,E4,257.0,0.5,72,162.35
886,E5,257.0,2.5,80,162.35
887,A5,257.0,2.5,80,162.35
888,C6,257.0,2.5,80,162.35
889,E6,257.0,2.5,80,162.35
890,A3,257.5,0.5,66,162.35
891,C4,258.0,0.5,73,162.35
892,E3,258.5,0.5,68,162.35
893,A3,259.0,0.5,77,162.35
894,C3,259.5,0.5,71,162.35
895,F#5,259.5,0.5,86,162.35
896,F#6,259.5,0.5,86,162.35
897,G#5,260.0,3.0,88,162.35
898,G#6,260.0,3.0,88,162.35
899,E2,260.0,3.0,75,162.35
900,E3,260.0,3.0,75,162.35
901,B4,260.5,11/20,63,162.35
902,B3,260.5,11/20,57,162.35
903,E5,261.0,11/20,70,162.35
904,G#3,261.0,11/20,58,162.35
905,G#4,261.5,11/20,62,162.35
906,E4,261.5,11/20,57,162.35
907,B4,262.0,11/20,63,162.35
908,B3,262.0,11/20,53,162.35
909,E5,262.5,0.5,63,162.35
910,G#3,262.5,0.5,53,162.35
911,G#5,263.0,3.0,88,162.35
912,G#6,263.0,3.0,88,162.35
913,E2,263.0,3.0,75,162.35
914,E3,263.0,3.0,75,162.35
915,B4,263.5,11/20,67,162.35
916,B3,263.5,11/20,57,162.35
917,E5,264.0,11/20,67,162.35
918,G#3,264.0,11/20,62,162.35
919,G#4,264.5,11/20,65,162.35
920,E4,264.5,11/20,59,162.35
921,B4,265.0,11/20,62,162.35
922,B3,265.0,11/20,59,162.35
923,E5,265.5,0.5,62,162.35
924,G#3,265.5,0.5,62,162.35
925,G#5,266.0,3.0,88,162.35
926,G#6,266.0,3.0,88,162.35
927,E-2,266.0,3.0,75,162.35
928,E-3,266.0,3.0,75,162.35
929,C5,266.5,11/20,67,162.35
930,C4,266.5,11/20,61,162.35
931,F#5,267.0,11/20,71,162.35
932,G#3,267.0,11/20,65,162.35
933,G#4,267.5,11/20,67,162.35
934,F#4,267.5,11/20,61,162.35
935,C5,268.0,11/20,73,162.35
936,C4,268.0,11/20,59,162.35
937,F#5,268.5,0.5,76,162.35
938,G#3,268.5,0.5,65,162.35
939,G#5,269.0,11/20,81,162.35
940,E-3,269.0,11/20,73,162.35
941,C5,269.5,11/20,71,162.35
942,C4,269.5,11/20,61,162.35
943,F#5,270.0,11/20,76,162.35
944,G#3,270.0,11/20,64,162.35
945,C5,270.5,11/20,70,162.35
946,F#4,270.5,11/20,59,162.35
947,C4,271.0,11/20,64,162.35
948,G#3,271.5,0.5,67,162.35
949,G#5,271.5,0.5,86,162.35
950,G#6,271.5,0.5,86,162.35
951,G#5,272.0,2.0,88,162.35
952,G#6,272.0,2.0,88,162.35
953,D2,272.0,3.0,75,162.35
954,D3,272.0,3.0,75,162.35
955,B4,272.5,11/20,68,162.35
956,B3,272.5,11/20,60,162.35
957,E5,273.0,11/20,70,162.35
958,G#3,273.0,11/20,62,162.35
959,G#4,273.5,11/20,68,162.35
960,F#4,273.5,11/20,61,162.35
961,B3,274.0,11/20,57,162.35
962,G#3,274.5,0.5,66,162.35
963,G#6,274.5,0.5,80,162.35
964,G#5,274.5,0.5,80,162.35
965,A5,275.0,2.0,88,162.35
966,A6,275.0,2.0,88,162.35
967,C#2,275.0,3.0,75,162.35
968,C#3,275.0,3.0,75,162.35
969,B4,275.5,11/20,67,162.35
970,B3,275.5,11/20,61,162.35
971,F5,276.0,11/20,73,162.35
972,G#3,276.0,11/20,65,162.35
973,G#4,276.5,11/20,67,162.35
974,F4,276.5,11/20,62,162.35
975,B3,277.0,11/20,59,162.35
976,G#3,277.5,0.5,67,162.35
977,G#6,277.5,0.5,80,162.35
978,G#5,277.5,0.5,80,162.35
979,F#2,278.0,0.5,80,162.35
980,G#5,278.0,3.0,88,162.35
981,G#6,278.0,3.0,88,162.35
982,E3,278.5,0.5,63,162.35
983,B-3,279.0,0.375,65,162.35
984,B-3,279.5,0.5,67,162.35
985,E4,280.0,0.5,70,162.35
986,G#4,280.5,0.375,72,162.35
987,G#4,281.0,0.5,77,162.35
988,C#5,281.0,1.0,78,162.35
989,C#6,281.0,1.0,78,162.35
990,E4,281.5,0.5,69,162.35
991,B-3,282.0,0.375,71,162.35
992,B-3,282.5,0.5,64,162.35
993,E3,283.0,0.5,70,162.35
994,C#5,283.0,1.0,75,162.35
995,C#6,283.0,1.0,75,162.35
996,F#2,283.5,0.5,64,162.35
997,B1,284.0,0.5,80,162.35
998,C#5,284.0,1.0,75,162.35
999,A5,284.0,1.0,75,162.35
1000,C#6,284.0,1.0,75,162.35
1001,B2,284.5,0.5,63,162.35
1002,F#3,285.0,0.5,65,162.35
1003,E-5,285.0,1.0,74,162.35
1004,B5,285.0,1.0,74,162.35
1005,A5,285.0,1.0,74,162.35
1006,E-6,285.0,1.0,74,162.35
1007,A3,285.5,0.5,67,162.35
1008,C#4,286.0,0.5,70,162.35
1009,E5,286.0,1.0,74,162.35
1010,B5,286.0,1.0,74,162.35
1011,A5,286.0,1.0,74,162.35
1012,E6,286.0,1.0,74,162.35
1013,E4,286.5,0.5,72,162.35
1014,G#4,287.0,0.5,77,162.35
1015,G#5,287.0,2.0,63,162.35
1016,B5,287.0,2.0,63,162.35
1017,E-6,287.0,2.0,63,162.35
1018,G#6,287.0,2.0,63,162.35
1019,E-4,287.5,0.5,69,162.35
1020,B3,288.0,0.5,71,162.35
1021,A3,288.5,0.5,64,162.35
1022,E-3,289.0,0.5,70,162.35
1023,F#5,289.0,1.0,80,162.35
1024,F#6,289.0,1.0,80,162.35
1025,B2,289.5,0.5,64,162.35
1026,E2,290.0,0.5,80,162.35
1027,F#5,290.0,1.0,77,162.35
1028,G#5,290.0,1.0,77,162.35
1029,B5,290.0,1.0,77,162.35
1030,F#6,290.0,1.0,77,162.35
1031,B2,290.5,0.5,63,162.35
1032,E3,291.0,0.5,65,162.35
1033,E5,291.0,1.0,82,162.35
1034,E6,291.0,1.0,82,162.35
1035,G#3,291.5,0.5,67,162.35
1036,B-3,292.0,0.5,70,162.35
1037,C#5,292.0,1.0,74,162.35
1038,G5,292.0,1.0,74,162.35
1039,C#6,292.0,1.0,74,162.35
1040,E4,292.5,0.5,69,162.35
1041,B3,293.0,0.5,77,162.35
1042,B4,293.0,1.0,71,162.35
1043,G#5,293.0,1.0,71,162.35
1044,B5,293.0,1.0,71,162.35
1045,G#4,293.5,0.5,69,162.35
1046,E4,294.0,0.5,71,162.35
1047,B3,294.5,0.5,64,162.35
1048,G#3,295.0,0.5,70,162.35
1049,B4,295.0,1.0,77,162.35
1050,B5,295.0,1.0,77,162.35
1051,B2,295.5,0.5,64,162.35
1052,G#5,296.0,3.0,88,162.35
1053,G#6,296.0,3.0,88,162.35
1054,E2,296.0,3.0,75,162.35
1055,E3,296.0,3.0,75,162.35
1056,B4,296.5,11/20,68,162.35
1057,B3,296.5,11/20,60,162.35
1058,E5,297.0,11/20,71,162.35
1059,G#3,297.0,11/20,63,162.35
1060,G#4,297.5,11/20,68,162.35
1061,E4,297.5,11/20,61,162.35
1062,B4,298.0,11/20,64,162.35
1063,B3,298.0,11/20,57,162.35
1064,E5,298.5,0.5,64,162.35
1065,G#3,298.5,0.5,57,162.35
1066,G#5,299.0,3.0,88,162.35
1067,G#6,299.0,3.0,88,162.35
1068,E-2,299.0,3.0,75,162.35
1069,E-3,299.0,3.0,75,162.35
1070,C5,299.5,11/20,67,162.35
1071,C4,299.5,11/20,61,162.35
1072,F#5,300.0,11/20,70,162.35
1073,G#3,300.0,11/20,64,162.35
1074,G#4,300.5,11/20,67,162.35
1075,F#4,300.5,11/20,62,162.35
1076,C5,301.0,11/20,62,162.35
1077,C4,301.0,11/20,57,162.35
1078,F#5,301.5,0.5,62,162.35
1079,G#3,301.5,0.5,57,162.35
1080,G#5,302.0,3.0,80,162.35
1081,G#6,302.0,6.0,95,162.35
1082,D2,302.0,3.0,75,162.35
1083,D3,302.0,3.0,75,162.35
1084,B4,302.5,11/20,67,162.35
1085,B3,302.5,11/20,61,162.35
1086,F5,303.0,11/20,70,162.35
1087,G#3,303.0,11/20,65,162.35
1088,G#4,303.5,11/20,67,162.35
1089,F4,303.5,11/20,61,162.35
1090,B4,304.0,11/20,73,162.35
1091,B3,304.0,11/20,60,162.35
1092,F5,304.5,0.5,76,162.35
1093,G#3,304.5,0.5,63,162.35
1094,G#5,305.0,0.5,84,162.35
1095,C#3,305.0,3.0,77,162.35
1096,B4,305.5,11/20,72,162.35
1097,B3,305.5,11/20,61,162.35
1098,F5,306.0,11/20,73,162.35
1099,G#3,306.0,11/20,64,162.35
1100,G#4,306.5,11/20,67,162.35
1101,F4,306.5,11/20,59,162.35
1102,B4,307.0,11/20,63,162.35
1103,B3,307.0,11/20,64,162.35
1104,F5,307.5,0.5,68,162.35
1105,G#3,307.5,0.5,63,162.35
1106,G#5,308.0,3.0,88,162.35
1107,G#6,308.0,3.0,88,162.35
1108,C2,308.0,3.0,75,162.35
1109,C3,308.0,3.0,75,162.35
1110,C5,308.5,11/20,68,162.35
1111,C4,308.5,11/20,60,162.35
1112,F5,309.0,11/20,70,162.35
1113,G#3,309.0,11/20,64,162.35
1114,G#4,309.5,11/20,68,162.35
1115,F4,309.5,11/20,61,162.35
1116,C5,310.0,11/20,64,162.35
1117,C4,310.0,11/20,57,162.35
1118,F5,310.5,0.5,64,162.35
1119,G#3,310.5,0.5,57,162.35
1120,G#5,311.0,3.0,88,162.35
1121,G#6,311.0,3.0,88,162.35
1122,B2,311.0,3.0,89,162.35
1123,B1,311.0,3.0,89,162.35
1124,C#5,311.5,11/20,67,162.35
1125,C#4,311.5,11/20,61,162.35
1126,F5,312.0,11/20,70,162.35
1127,G#3,312.0,11/20,66,162.35
1128,G#4,312.5,11/20,67,162.35
1129,F4,312.5,11/20,62,162.35
1130,C#5,313.0,11/20,64,162.35
1131,C#4,313.0,11/20,59,162.35
1132,F5,313.5,0.5,64,162.35
1133,G#3,313.5,0.5,62,162.35
1134,D6,314.0,2.0,85,162.35
1135,G#5,314.0,2.0,85,162.35
1136,G#6,314.0,2.0,85,162.35
1137,B-1,314.0,1.0,96,162.35
1138,B-2,314.0,1.0,96,162.35
1139,G#3,314.5,0.5,78,162.35
1140,D4,315.0,0.5,78,162.35
1141,F4,315.5,0.5,78,162.35
1142,D4,316.0,0.5,74,162.35
1143,G5,316.0,1.0,84,162.35
1144,G6,316.0,1.0,84,162.35
1145,G#3,316.5,0.5,74,162.35
1146,F3,317.0,0.5,82,162.35
1147,F6,317.0,1.0,84,162.35
1148,F5,317.0,1.0,84,162.35
1149,G#3,317.5,0.5,78,162.35
1150,D4,318.0,0.5,78,162.35
1151,G4,318.0,1.0,74,162.35
1152,G5,318.0,1.0,74,162.35
1153,F4,318.5,0.5,78,162.35
1154,D4,319.0,0.5,74,162.35
1155,G#4,319.0,1.0,75,162.35
1156,G#5,319.0,1.0,75,162.35
1157,G#3,319.5,0.5,74,162.35
1158,E-2,320.0,0.5,88,162.35
1159,C5,320.0,3.0,81,162.35
1160,F5,320.0,3.0,81,162.35
1161,G#5,320.0,3.0,81,162.35
1162,C6,320.0,3.0,81,162.35
1163,C#3,320.5,0.5,68,162.35
1164,F3,321.0,0.5,70,162.35
1165,G#3,321.5,0.5,72,162.35
1166,B-3,322.0,0.5,74,162.35
1167,C#4,322.5,0.5,80,162.35
1168,F4,323.0,0.5,85,162.35
1169,B-5,323.0,1.0,74,162.35
1170,B-4,323.0,1.0,74,162.35
1171,C#4,323.5,0.5,83,162.35
1172,B-3,324.0,0.5,75,162.35
1173,G#3,324.5,0.5,74,162.35
1174,F3,325.0,0.5,72,162.35
1175,G#5,325.0,1.0,81,162.35
1176,G#6,325.0,1.0,81,162.35
1177,C#3,325.5,0.5,69,162.35
1178,G#5,326.0,1.5,85,162.35
1179,D6,326.0,1.5,85,162.35
1180,G#6,326.0,1.5,85,162.35
1181,B-1,326.0,1.0,74,162.35
1182,B-2,326.0,1.0,74,162.35
1183,G#3,326.5,0.5,69,162.35
1184,D4,327.0,0.5,69,162.35
1185,F4,327.5,0.5,69,162.35
1186,G6,327.5,0.5,74,162.35
1187,G5,327.5,0.5,74,162.35
1188,D4,328.0,0.5,65,162.35
1189,B-5,328.0,333/1000,84,162.35
1190,B-6,328.0,333/1000,84,162.35
1191,G#5,328.333,333/1000,76,162.35
1192,G#6,328.333,333/1000,76,162.35
1193,G#3,328.5,0.5,66,162.35
1194,G5,328.667,333/1000,76,162.35
1195,G6,328.667,333/1000,76,162.35
1196,F3,329.0,0.5,82,162.35
1197,F6,329.0,1.0,84,162.35
1198,F5,329.0,1.0,84,162.35
1199,G#3,329.5,0.5,78,162.35
1200,D4,330.0,0.5,78,162.35
1201,G4,330.0,1.0,74,162.35
1202,G5,330.0,1.0,74,162.35
1203,F4,330.5,0.5,71,162.35
1204,D4,331.0,0.5,78,162.35
1205,G#4,331.0,1.0,75,162.35
1206,G#5,331.0,1.0,75,162.35
1207,G#3,331.5,0.5,72,162.35
1208,E-2,332.0,0.5,88,162.35
1209,C5,332.0,3.0,81,162.35
1210,F5,332.0,3.0,81,162.35
1211,G#5,332.0,3.0,81,162.35
1212,C6,332.0,3.0,81,162.35
1213,C#3,332.5,0.5,68,162.35
1214,F3,333.0,0.5,70,162.35
1215,G#3,333.5,0.5,72,162.35
1216,B-3,334.0,0.5,74,162.35
1217,C#4,334.5,0.5,80,162.35
1218,F4,335.0,0.5,84,162.35
1219,B-5,335.0,1.0,74,162.35
1220,B-4,335.0,1.0,74,162.35
1221,C#4,335.5,0.5,82,162.35
1222,B-3,336.0,0.5,78,162.35
1223,G#3,336.5,0.5,74,162.35
1224,F3,337.0,0.5,72,162.35
1225,G#5,337.0,1.0,81,162.35
1226,G#6,337.0,1.0,81,162.35
1227,C#3,337.5,0.5,69,162.35
1228,G#5,338.0,1.5,85,162.35
1229,D6,338.0,1.5,85,162.35
1230,G#6,338.0,1.5,85,162.35
1231,B1,338.0,3.0,74,162.35
1232,B2,338.0,3.0,74,162.35
1233,G#3,338.5,0.5,69,162.35
1234,D4,339.0,0.5,69,162.35
1235,F4,339.5,0.5,69,162.35
1236,G6,339.5,0.5,74,162.35
1237,G5,339.5,0.5,74,162.35
1238,D4,340.0,0.5,66,162.35
1239,B-5,340.0,0.5,84,162.35
1240,B-6,340.0,0.5,84,162.35
1241,G#3,340.5,0.5,68,162.35
1242,G#5,340.5,0.5,76,162.35
1243,G#6,340.5,0.5,76,162.35
1244,B5,341.0,0.5,91,162.35
1245,B6,341.0,0.5,91,162.35
1246,B-1,341.0,1.0,74,162.35
1247,B-2,341.0,1.0,74,162.35
1248,F3,341.5,0.5,69,162.35
1249,B-5,341.5,0.5,88,162.35
1250,B-6,341.5,0.5,88,162.35
1251,G#3,342.0,0.5,69,162.35
1252,G7,342.0,1.0,100,162.35
1253,G6,342.0,1.0,100,162.35
1254,D4,342.5,0.5,69,162.35
1255,G#3,343.0,0.5,65,162.35
1256,F3,343.5,0.5,65,162.35
1257,F6,343.5,0.5,79,162.35
1258,F7,343.5,0.5,79,162.35
1259,E-6,344.0,0.5,78,162.35
1260,E-7,344.0,0.5,78,162.35
1261,D7,344.5,0.5,74,162.35
1262,D6,344.5,0.5,74,162.35
1263,C6,345.0,0.5,69,162.35
1264,C7,345.0,0.5,69,162.35
1265,B-5,345.5,0.5,65,162.35
1266,B-6,345.5,0.5,65,162.35
1267,G#5,346.0,0.5,60,162.35
1268,G#6,346.0,0.5,60,162.35
1269,G5,346.5,0.5,56,162.35
1270,G6,346.5,0.5,56,162.35
1271,F5,347.0,1.0,52,162.35
1272,F6,347.0,1.0,52,162.35
1273,G4,348.0,1.0,41,162.35
1274,G5,348.0,1.0,41,162.35
1275,G#4,349.0,1.0,41,162.35
1276,G#5,349.0,1.0,41,162.35
1277,E-2,350.0,0.5,33,162.35
1278,C5,350.0,2.0,47,162.35
1279,F5,350.0,2.0,47,162.35
1280,G#5,350.0,2.0,47,162.35
1281,C6,350.0,2.0,47,162.35
1282,C#3,350.5,0.5,37,162.35
1283,F3,351.0,0.5,40,162.35
1284,G#3,351.5,0.5,45,162.35
1285,B-3,352.0,0.5,48,162.35
1286,B-5,352.0,1.0,52,162.35
1287,B-4,352.0,1.0,52,162.35
1288,C#4,352.5,0.5,53,162.35
1289,F4,353.0,0.5,57,162.35
1290,E-6,353.0,2.0,63,162.35
1291,E-5,353.0,2.0,63,162.35
1292,G#5,353.0,2.0,63,162.35
1293,B-5,353.0,2.0,63,162.35
1294,C#4,353.5,0.5,59,162.35
1295,B-3,354.0,0.5,59,162.35
1296,G#3,354.5,0.5,59,162.35
1297,F3,355.0,0.5,58,162.35
1298,C#6,355.0,1.0,69,162.35
1299,C#5,355.0,1.0,69,162.35
1300,C#3,355.5,0.5,56,162.35
1301,E-2,356.0,0.5,59,162.35
1302,G5,356.0,2.0,78,162.35
1303,B-5,356.0,2.0,78,162.35
1304,C#6,356.0,2.0,78,162.35
1305,G6,356.0,2.0,78,162.35
1306,C#3,356.5,0.5,60,162.35
1307,F3,357.0,0.5,63,162.35
1308,G#3,357.5,0.5,66,162.35
1309,B-3,358.0,0.5,69,162.35
1310,F6,358.0,1.0,76,162.35
1311,F5,358.0,1.0,76,162.35
1312,C#4,358.5,0.5,72,162.35
1313,G#4,359.0,0.5,74,162.35
1314,C7,359.0,2.0,88,162.35
1315,C6,359.0,2.0,88,162.35
1316,F6,359.0,2.0,88,162.35
1317,F4,359.5,0.5,72,162.35
1318,C#4,360.0,0.5,70,162.35
1319,G#3,360.5,0.5,67,162.35
1320,F3,361.0,0.5,65,162.35
1321,B-6,361.0,1.0,82,162.35
1322,B-5,361.0,1.0,82,162.35
1323,C#3,361.5,0.5,63,162.35
1324,E-2,362.0,0.5,82,162.35
1325,G6,362.0,6.0,88,162.35
1326,F6,362.0,6.0,88,162.35
1327,B-6,362.0,6.0,88,162.35
1328,C#7,362.0,6.0,88,162.35
1329,F7,362.0,6.0,88,162.35
1330,B-2,362.5,0.5,64,162.35
1331,C#3,363.0,0.5,64,162.35
1332,G3,363.5,0.5,64,162.35
1333,B-3,364.0,0.5,64,162.35
1334,C#4,364.5,0.5,63,162.35
1335,G4,365.0,0.5,64,162.35
1336,B-4,365.5,0.5,66,162.35
1337,C#5,366.0,0.5,64,162.35
1338,G5,366.5,0.5,58,162.35
1339,B-5,367.0,0.5,49,162.35
1340,C#6,367.5,0.5,37,162.35
1341,E7,368.0,0.25,44,162.35
1342,G6,368.0,0.25,35,162.35
1343,C7,368.25,0.25,40,162.35
1344,B-6,368.25,0.25,31,162.35
1345,E-7,368.5,0.25,44,162.35
1346,F#6,368.5,0.25,35,162.35
1347,B6,368.75,0.25,41,162.35
1348,A6,368.75,0.25,31,162.35
1349,D7,369.0,0.25,44,162.35
1350,F6,369.0,0.25,34,162.35
1351,B-6,369.25,0.25,40,162.35
1352,G#6,369.25,0.25,29,162.35
1353,C#7,369.5,0.25,43,162.35
1354,E6,369.5,0.25,33,162.35
1355,A6,369.75,0.25,39,162.35
1356,G6,369.75,0.25,30,162.35
1357,C7,370.0,0.25,42,162.35
1358,E-6,370.0,0.25,33,162.35
1359,G#6,370.25,0.25,39,162.35
1360,F#6,370.25,0.25,29,162.35
1361,B6,370.5,0.25,42,162.35
1362,D6,370.5,0.25,33,162.35
1363,G6,370.75,0.25,39,162.35
1364,F6,370.75,0.25,28,162.35
1365,B-6,371.0,0.25,41,162.35
1366,C#6,371.0,0.25,33,162.35
1367,F#6,371.25,0.25,37,162.35
1368,E6,371.25,0.25,28,162.35
1369,A6,371.5,0.25,41,162.35
1370,C6,371.5,0.25,32,162.35
1371,F6,371.75,0.25,37,162.35
1372,E-6,371.75,0.25,28,162.35
1373,G#6,372.0,0.25,40,162.35
1374,B5,372.0,0.25,32,162.35
1375,E6,372.25,0.25,36,162.35
1376,D6,372.25,0.25,28,162.35
1377,G6,372.5,0.25,40,162.35
1378,B-5,372.5,0.25,31,162.35
1379,E6,372.75,0.25,36,162.35
1380,C#6,372.75,0.25,27,162.35
1381,F#6,373.0,0.25,39,162.35
1382,A5,373.0,0.25,31,162.35
1383,D6,373.25,0.25,35,162.35
1384,C6,373.25,0.25,27,162.35
1385,F6,373.5,0.25,39,162.35
1386,G#5,373.5,0.25,31,162.35
1387,C#6,373.75,0.25,35,162.35
1388,B5,373.75,0.25,26,162.35
1389,E6,374.0,0.25,38,162.35
1390,G5,374.0,0.25,30,162.35
1391,C6,374.25,0.25,35,162.35
1392,B-5,374.25,0.25,26,162.35
1393,E-6,374.5,0.25,38,162.35
1394,F#5,374.5,0.25,29,162.35
1395,B5,374.75,0.25,33,162.35
1396,A5,374.75,0.25,26,162.35
1397,D6,375.0,0.25,37,162.35
1398,F5,375.0,0.25,29,162.35
1399,B-5,375.25,0.25,33,162.35
1400,G#5,375.25,0.25,26,162.35
1401,C#6,375.5,0.25,37,162.35
1402,E5,375.5,0.25,29,162.35
1403,A5,375.75,0.25,33,162.35
1404,G5,375.75,0.25,26,162.35
1405,C6,376.0,0.25,36,162.35
1406,E-5,376.0,0.25,28,162.35
1407,G#5,376.25,0.25,33,162.35
1408,F#5,376.25,0.25,25,162.35
1409,B5,376.5,0.25,35,162.35
1410,D5,376.5,0.25,28,162.35
1411,G5,376.75,0.25,31,162.35
1412,F5,376.75,0.25,24,162.35
1413,B-5,377.0,0.25,35,162.35
1414,C#5,377.0,0.25,27,162.35
1415,F#5,377.25,0.25,31,162.35
1416,E5,377.25,0.25,24,162.35
1417,A5,377.5,0.25,35,162.35
1418,C5,377.5,0.25,27,162.35
1419,F5,377.75,0.25,31,162.35
1420,E-5,377.75,0.25,24,162.35
1421,G#5,378.0,0.25,34,162.35
1422,B4,378.0,0.25,27,162.35
1423,E5,378.25,0.25,30,162.35
1424,D5,378.25,0.25,24,162.35
1425,G5,378.5,0.25,33,162.35
1426,B-4,378.5,0.25,26,162.35
1427,E5,378.75,0.25,29,162.35
1428,C#5,378.75,0.25,24,162.35
1429,F#5,379.0,0.25,33,162.35
1430,A4,379.0,0.25,26,162.35
1431,D5,379.25,0.25,29,162.35
1432,C5,379.25,0.25,24,162.35
1433,F5,379.5,0.25,32,162.35
1434,G#4,379.5,0.25,26,162.35
1435,C#5,379.75,0.125,28,162.35
1436,B4,379.75,0.125,22,162.35
1437,G4,379.875,0.125,32,162.35
1438,B-4,379.875,0.125,32,162.35
1439,C#5,379.958,21/500,32,162.35
1440,F5,379.958,21/500,32,162.35
1441,C#5,380.0,26/125,32,162.35
1442,F5,380.0,26/125,32,162.35
1443,G4,380.208,26/125,32,162.35
1444,B-4,380.208,26/125,32,162.35
1445,E-5,380.25,0.25,32,162.35
1446,C#5,380.5,0.25,32,162.35
1447,B-4,380.75,0.25,31,162.35
1448,G4,381.0,0.25,32,162.35
1449,D4,381.25,0.25,33,162.35
1450,E-4,381.5,0.25,33,162.35
1451,G4,381.75,0.25,34,162.35
1452,B-4,382.0,0.25,35,162.35
1453,C#5,382.25,0.25,35,162.35
1454,D5,382.5,0.25,36,162.35
1455,F5,382.75,0.25,37,162.35
1456,E-5,383.0,0.25,37,162.35
1457,G5,383.25,0.25,38,162.35
1458,B-5,383.5,0.25,39,162.35
1459,C#6,383.75,0.25,39,162.35
1460,D6,384.0,0.25,40,162.35
1461,F6,384.25,0.25,40,162.35
1462,E-6,384.5,0.25,41,162.35
1463,G6,384.75,0.25,42,162.35
1464,B-6,385.0,0.25,44,162.35
1465,C#7,385.25,0.25,44,162.35
1466,E7,385.5,0.25,48,162.35
1467,F7,385.75,0.25,44,162.35
1468,C7,386.0,0.25,48,162.35
1469,C#7,386.25,0.25,45,162.35
1470,A6,386.5,0.25,46,162.35
1471,B-6,386.75,0.25,40,162.35
1472,F#6,387.0,0.25,44,162.35
1473,G6,387.25,0.25,40,162.35
1474,E6,387.5,0.25,43,162.35
1475,F6,387.75,0.25,39,162.35
1476,C6,388.0,0.25,42,162.35
1477,C#6,388.25,0.25,38,162.35
1478,A5,388.5,0.25,40,162.35
1479,B-5,388.75,0.25,37,162.35
1480,F#5,389.0,0.25,40,162.35
1481,G5,389.25,0.25,36,162.35
1482,E5,389.5,0.25,39,162.35
1483,F5,389.75,0.25,35,162.35
1484,C5,390.0,0.25,38,162.35
1485,C#5,390.25,0.25,33,162.35
1486,A4,390.5,0.25,37,162.35
1487,B-4,390.75,0.25,33,162.35
1488,F#4,391.0,0.25,36,162.35
1489,G4,391.25,0.25,33,162.35
1490,E4,391.5,0.25,35,162.35
1491,F4,391.75,0.25,31,162.35
1492,D4,392.0,0.25,33,162.35
1493,E-4,392.25,0.25,27,162.35
1494,E4,392.5,0.25,32,162.35
1495,E-4,392.75,0.25,27,162.35
1496,F4,393.0,0.25,32,162.35
1497,E-4,393.25,0.25,28,162.35
1498,F#4,393.5,0.25,32,162.35
1499,E-4,393.75,0.25,28,162.35
1500,G4,394.0,0.25,32,162.35
1501,E-4,394.25,0.25,29,162.35
1502,G#4,394.5,0.25,32,162.35
1503,E-4,394.75,0.25,29,162.35
1504,A4,395.0,0.25,32,162.35
1505,E-4,395.25,0.25,29,162.35
1506,B-4,395.5,0.25,32,162.35
1507,E-4,395.75,0.25,29,162.35
1508,B4,396.0,0.25,32,162.35
1509,E-4,397.0,1.0,36,162.35
1510,C5,398.0,3.0,45,162.35
1511,G#2,398.208,1.0,30,162.35
1512,C4,398.5,0.5,21,162.35
1513,E-4,399.0,0.5,27,162.35
1514,G#4,399.5,0.5,20,162.35
1515,E-4,400.0,0.5,20,162.35
1516,C6,400.208,9/10,21,162.35
1517,G#5,400.208,9/10,21,162.35
1518,E-5,400.208,9/10,21,162.35
1519,C4,400.5,0.5,20,162.35
1520,C5,401.0,3.0,28,162.35
1521,E-5,401.208,9/10,22,162.35
1522,G#5,401.208,9/10,22,162.35
1523,C6,401.208,9/10,22,162.35
1524,C4,401.5,0.5,20,162.35
1525,E-4,402.0,0.5,25,162.35
1526,G#4,402.5,0.5,21,162.35
1527,E-4,403.0,0.5,21,162.35
1528,C4,403.5,0.5,21,162.35
1529,C5,404.0,4.0,45,162.35
1530,G2,404.208,1.0,31,162.35
1531,C4,404.5,0.5,23,162.35
1532,E4,405.0,0.5,28,162.35
1533,B-4,405.5,0.5,23,162.35
1534,E4,406.0,0.5,24,162.35
1535,E5,406.208,9/10,20,162.35
1536,B-5,406.208,9/10,20,162.35
1537,C6,406.208,9/10,20,162.35
1538,C4,406.5,0.5,24,162.35
1539,E5,407.208,9/10,23,162.35
1540,B-5,407.208,9/10,23,162.35
1541,C6,407.208,9/10,23,162.35
1542,C4,407.5,0.5,20,162.35
1543,E4,408.0,0.5,26,162.35
1544,B-4,408.5,0.5,21,162.35
1545,C5,409.0,1.0,40,162.35
1546,E4,409.0,0.5,36,162.35
1547,C4,409.5,0.5,24,162.35
1548,C5,410.0,2.0,48,162.35
1549,F2,410.208,1.0,36,162.35
1550,E-4,410.5,0.5,20,162.35
1551,F4,411.0,0.5,26,162.35
1552,A4,411.5,0.5,24,162.35
1553,F4,412.0,0.5,34,162.35
1554,C5,412.0,1.0,40,162.35
1555,C6,412.208,9/10,24,162.35
1556,A5,412.208,9/10,24,162.35
1557,E-5,412.208,9/10,24,162.35
1558,E-4,412.5,0.5,24,162.35
1559,C#5,413.0,2.0,47,162.35
1560,E-5,413.208,9/10,25,162.35
1561,A5,413.208,9/10,25,162.35
1562,C#6,413.208,9/10,25,162.35
1563,E-4,413.5,0.5,28,162.35
1564,F4,414.0,0.5,36,162.35
1565,A4,414.5,0.5,28,162.35
1566,C5,415.0,1.0,41,162.35
1567,F4,415.0,0.5,36,162.35
1568,E-4,415.5,0.5,26,162.35
1569,C5,416.0,3.0,49,162.35
1570,B-1,416.208,1.0,34,162.35
1571,B-2,416.208,1.0,34,162.35
1572,G#3,416.5,0.5,30,162.35
1573,D4,417.0,0.5,36,162.35
1574,F4,417.5,0.5,29,162.35
1575,D4,418.0,0.5,29,162.35
1576,C6,418.208,9/10,22,162.35
1577,F5,418.208,9/10,22,162.35
1578,D5,418.208,9/10,22,162.35
1579,G#3,418.5,0.5,29,162.35
1580,F4,419.0,1.0,37,162.35
1581,D5,419.208,9/10,26,162.35
1582,F5,419.208,9/10,26,162.35
1583,G#3,419.5,0.5,23,162.35
1584,B-3,420.0,0.5,28,162.35
1585,D4,420.5,0.5,22,162.35
1586,B-3,421.0,0.5,28,162.35
1587,F4,421.0,1.0,32,162.35
1588,G#3,421.5,0.5,22,162.35
1589,F4,422.0,1.0,37,162.35
1590,E-2,422.208,1.0,33,162.35
1591,E-3,422.208,1.0,33,162.35
1592,B-3,422.5,0.5,21,162.35
1593,G4,423.0,1.0,38,162.35
1594,C#4,423.0,0.5,32,162.35
1595,E-4,423.5,0.5,26,162.35
1596,G#4,424.0,1.0,39,162.35
1597,C#4,424.0,0.5,34,162.35
1598,G#5,424.208,0.812,24,162.35
1599,C#5,424.208,0.812,24,162.35
1600,B-4,424.208,0.812,24,162.35
1601,B-3,424.5,0.5,28,162.35
1602,C5,425.0,2.0,42,162.35
1603,C#5,425.021,1.188,26,162.35
1604,E-5,425.083,1.125,27,162.35
1605,G5,425.146,1.062,27,162.35
1606,C6,425.208,2.0,28,162.35
1607,C#4,425.5,0.5,26,162.35
1608,E-4,426.0,0.5,26,162.35
1609,G4,426.5,0.5,26,162.35
1610,B-4,427.0,1.0,40,162.35
1611,E-4,427.0,0.5,36,162.35
1612,B-5,427.208,1.0,25,162.35
1613,C#4,427.5,0.5,25,162.35
1614,G#4,428.0,2.0,45,162.35
1615,G#1,428.208,1.0,28,162.35
1616,G#2,428.208,1.0,28,162.35
1617,C4,428.5,0.5,21,162.35
1618,E-4,429.0,0.5,33,162.35
1619,F4,429.5,0.5,24,162.35
1620,E-4,430.0,0.5,24,162.35
1621,G#5,430.208,9/10,23,162.35
1622,C5,430.208,9/10,23,162.35
1623,E-5,430.208,9/10,23,162.35
1624,C4,430.5,0.5,24,162.35
1625,G#3,431.0,0.5,28,162.35
1626,C5,431.208,9/10,25,162.35
1627,E-5,431.208,9/10,25,162.35
1628,G#5,431.208,9/10,25,162.35
1629,C4,431.5,0.5,27,162.35
1630,E-4,432.0,0.5,32,162.35
1631,F4,432.5,0.5,36,162.35
1632,E-4,433.0,1.0,39,162.35
1633,G#4,433.5,0.5,36,162.35
1634,C5,434.0,3.0,45,162.35
1635,G#2,434.083,0.125,35,162.35
1636,E-3,434.146,0.062,36,162.35
1637,C4,434.208,1.0,39,162.35
1638,G#2,434.208,1.0,35,162.35
1639,E-3,434.208,1.0,36,162.35
1640,D4,434.5,0.5,31,162.35
1641,E-4,435.0,0.5,36,162.35
1642,G#4,435.5,0.5,28,162.35
1643,E-4,436.0,0.5,28,162.35
1644,C6,436.208,9/10,20,162.35
1645,G#5,436.208,9/10,20,162.35
1646,E-5,436.208,9/10,20,162.35
1647,C4,436.5,0.5,25,162.35
1648,C5,437.0,3.0,33,162.35
1649,C6,437.208,9/10,25,162.35
1650,G#5,437.208,9/10,25,162.35
1651,E-5,437.208,9/10,25,162.35
1652,C4,437.5,0.5,20,162.35
1653,E-4,438.0,0.5,28,162.35
1654,G#4,438.5,0.5,26,162.35
1655,E-4,439.0,0.5,27,162.35
1656,C4,439.5,0.5,31,162.35
1657,C5,440.0,4.0,44,162.35
1658,G2,440.208,1.0,32,162.35
1659,E3,440.208,1.0,32,162.35
1660,B-3,440.208,1.0,32,162.35
1661,C4,440.5,0.5,23,162.35
1662,E4,441.0,0.5,33,162.35
1663,B-4,441.5,0.5,25,162.35
1664,E4,442.0,0.5,25,162.35
1665,C6,442.208,9/10,22,162.35
1666,B-5,442.208,9/10,22,162.35
1667,E5,442.208,9/10,22,162.35
1668,C4,442.5,0.5,25,162.35
1669,C6,443.208,9/10,29,162.35
1670,B-5,443.208,9/10,29,162.35
1671,E5,443.208,9/10,29,162.35
1672,C4,443.5,0.5,22,162.35
1673,E4,444.0,0.5,29,162.35
1674,B-4,444.5,0.5,25,162.35
1675,E4,445.0,0.5,32,162.35
1676,C5,445.0,1.0,38,162.35
1677,C4,445.5,0.5,26,162.35
1678,C5,446.0,2.0,44,162.35
1679,F2,446.208,3.0,32,162.35
1680,A3,446.208,3.0,32,162.35
1681,C4,446.5,0.5,28,162.35
1682,F4,447.0,0.5,32,162.35
1683,A4,447.5,0.5,27,162.35
1684,F4,448.0,0.5,36,162.35
1685,C5,448.0,1.0,40,162.35
1686,C4,448.5,0.5,30,162.35
1687,C#5,449.0,2.0,52,162.35
1688,E-2,449.208,3.0,28,162.35
1689,F#3,449.208,3.0,28,162.35
1690,C4,449.5,0.5,40,162.35
1691,F#4,450.0,0.5,48,162.35
1692,A4,450.5,0.5,43,162.35
1693,C5,451.0,1.0,50,162.35
1694,F#4,451.0,0.5,42,162.35
1695,C4,451.5,0.5,47,162.35
1696,F5,452.0,6.0,61,162.35
1697,D2,452.208,1.0,45,162.35
1698,F3,452.208,1.0,45,162.35
1699,F4,452.5,0.5,32,162.35
1700,G#4,453.0,0.5,41,162.35
1701,C5,453.5,0.5,29,162.35
1702,G#4,454.0,0.5,37,162.35
1703,F6,454.208,9/10,29,162.35
1704,C6,454.208,9/10,29,162.35
1705,G#5,454.208,9/10,29,162.35
1706,F4,454.5,0.5,30,162.35
1707,B5,455.208,9/10,31,162.35
1708,G#5,455.208,9/10,31,162.35
1709,F6,455.208,9/10,31,162.35
1710,F4,455.5,0.5,23,162.35
1711,G#4,456.0,0.5,31,162.35
1712,B4,456.5,0.5,27,162.35
1713,G#4,457.0,0.5,26,162.35
1714,F4,457.5,0.5,25,162.35
1715,C#2,458.208,1.0,28,162.35
1716,E3,458.208,1.0,28,162.35
1717,B-3,458.5,0.5,21,162.35
1718,E4,459.0,0.5,27,162.35
1719,G#4,459.5,0.5,20,162.35
1720,E4,460.0,0.5,20,162.35
1721,B-5,460.208,9/10,23,162.35
1722,G#5,460.208,9/10,23,162.35
1723,E5,460.208,9/10,23,162.35
1724,B-3,460.5,0.5,20,162.35
1725,B-4,461.0,3.0,32,162.35
1726,E5,461.208,9/10,25,162.35
1727,G5,461.208,9/10,25,162.35
1728,B-5,461.208,9/10,25,162.35
1729,B-3,461.5,0.5,20,162.35
1730,E4,462.0,0.5,25,162.35
1731,G4,462.5,0.5,21,162.35
1732,E4,463.0,0.5,21,162.35
1733,B-3,463.5,0.5,21,162.35
1734,E-5,464.0,6.0,37,162.35
1735,C2,464.146,0.062,29,162.35
1736,E-3,464.208,1.0,31,162.35
1737,C2,464.208,1.0,29,162.35
1738,E-4,464.5,0.5,22,162.35
1739,F#4,465.0,0.5,28,162.35
1740,B-4,465.5,0.5,22,162.35
1741,F#4,466.0,0.5,22,162.35
1742,F#5,466.208,9/10,19,162.35
1743,B-5,466.208,9/10,19,162.35
1744,E-6,466.208,9/10,19,162.35
1745,E-4,466.5,0.5,22,162.35
1746,F#5,467.208,9/10,22,162.35
1747,A5,467.208,9/10,22,162.35
1748,E-6,467.208,9/10,22,162.35
1749,E-4,467.5,0.5,20,162.35
1750,F#4,468.0,0.5,26,162.35
1751,A4,468.5,0.5,21,162.35
1752,F#4,469.0,0.5,30,162.35
1753,E-4,469.5,0.5,24,162.35
1754,B1,470.208,1.0,28,162.35
1755,D3,470.208,1.0,28,162.35
1756,G#3,470.5,0.5,20,162.35
1757,D4,471.0,0.5,25,162.35
1758,F#4,471.5,0.5,20,162.35
1759,D4,472.0,0.5,20,162.35
1760,G#5,472.208,9/10,19,162.35
1761,F#5,472.208,9/10,19,162.35
1762,D5,472.208,9/10,19,162.35
1763,G#3,472.5,0.5,20,162.35
1764,G#4,473.0,3.0,29,162.35
1765,D5,473.208,9/10,22,162.35
1766,F5,473.208,9/10,22,162.35
1767,G#5,473.208,9/10,22,162.35
1768,G#3,473.5,0.5,20,162.35
1769,D4,474.0,0.5,24,162.35
1770,F4,474.5,0.5,20,162.35
1771,D4,475.0,0.5,20,162.35
1772,G#3,475.5,0.5,20,162.35
1773,C#5,476.0,5.0,35,162.35
1774,B-1,476.208,1.0,29,162.35
1775,C#3,476.208,1.0,29,162.35
1776,C#4,476.5,0.5,19,162.35
1777,F4,477.0,0.5,27,162.35
1778,G#4,477.5,0.5,18,162.35
1779,F4,478.0,0.5,18,162.35
1780,F5,478.208,9/10,19,162.35
1781,G#5,478.208,9/10,19,162.35
1782,C#6,478.208,9/10,19,162.35
1783,C#4,478.5,0.5,18,162.35
1784,E5,479.208,9/10,21,162.35
1785,G#5,479.208,9/10,21,162.35
1786,C#6,479.208,9/10,21,162.35
1787,C#4,479.5,0.5,20,162.35
1788,E4,480.0,0.5,26,162.35
1789,G4,480.5,0.5,21,162.35
1790,C5,481.0,1.0,32,162.35
1791,E4,481.0,0.5,26,162.35
1792,C#4,481.5,0.5,22,162.35
1793,C5,482.0,2.0,36,162.35
1794,E-2,482.208,6.0,27,162.35
1795,C#4,482.5,0.5,20,162.35
1796,E4,483.0,0.5,25,162.35
1797,G4,483.5,0.5,21,162.35
1798,B-4,484.0,1.0,32,162.35
1799,E4,484.0,0.5,21,162.35
1800,C#4,484.5,0.5,21,162.35
1801,C5,485.0,2.0,36,162.35
1802,G3,485.208,3.0,27,162.35
1803,C#4,485.5,0.5,20,162.35
1804,E-4,486.0,0.5,25,162.35
1805,G4,486.5,0.5,21,162.35
1806,B-4,487.0,1.0,31,162.35
1807,E-4,487.0,0.5,21,162.35
1808,C#4,487.5,0.375,21,162.35
1809,C4,487.875,0.125,24,162.35
1810,E-4,487.938,0.062,29,162.35
1811,G#4,488.0,1.0,36,162.35
1812,C4,488.0,1.0,24,162.35
1813,E-4,488.0,1.0,29,162.35
1814,G#1,488.708,0.5,20,162.35
1815,G#2,489.208,0.5,21,162.35
1816,E-3,489.708,0.5,23,162.35
1817,G#3,490.208,0.5,24,162.35
1818,C4,490.5,0.5,24,162.35
1819,E-4,491.0,0.5,25,162.35
1820,G#4,491.5,0.5,25,162.35
1821,C5,492.0,0.5,26,162.35
1822,E-5,492.5,0.5,27,162.35
1823,G#5,493.0,0.5,28,162.35
1824,B-5,493.5,0.5,28,162.35
1825,E-5,494.0,2.0,32,162.35
1826,C6,494.0,2.0,32,162.35
1827,G#4,494.208,2.0,25,162.35
1828,C5,494.208,2.0,25,162.35
1829,E5,496.0,19/20,25,162.35
1830,C6,496.0,19/20,25,162.35
1831,G4,496.208,19/20,21,162.35
1832,B-4,496.208,19/20,21,162.35
1833,F5,497.0,19/20,26,162.35
1834,C6,497.0,19/20,26,162.35
1835,F4,497.208,19/20,21,162.35
1836,A4,497.208,19/20,21,162.35
1837,F#5,498.0,19/20,29,162.35
1838,C#6,498.0,19/20,29,162.35
1839,E-4,498.208,19/20,24,162.35
1840,A4,498.208,19/20,24,162.35
1841,F#5,499.0,19/20,25,162.35
1842,C6,499.0,19/20,25,162.35
1843,A4,499.208,19/20,21,162.35
1844,E-4,499.208,19/20,21,162.35
1845,G#5,500.0,19/20,30,162.35
1846,F6,500.0,19/20,30,162.35
1847,D4,500.208,19/20,26,162.35
1848,B4,500.208,19/20,26,162.35
1849,C#5,506.0,2.0,32,162.35
1850,B-5,506.0,2.0,32,162.35
1851,F#4,506.208,2.0,25,162.35
1852,B-4,506.208,2.0,25,162.35
1853,D5,508.0,19/20,25,162.35
1854,B-5,508.0,19/20,25,162.35
1855,F4,508.208,19/20,21,162.35
1856,G#4,508.208,19/20,21,162.35
1857,E-5,509.0,19/20,26,162.35
1858,B-5,509.0,19/20,26,162.35
1859,E-4,509.208,19/20,21,162.35
1860,G4,509.208,19/20,21,162.35
1861,E5,510.0,19/20,29,162.35
1862,C6,510.0,19/20,29,162.35
1863,C#4,510.208,19/20,24,162.35
1864,G4,510.208,19/20,24,162.35
1865,E5,511.0,19/20,25,162.35
1866,B-5,511.0,19/20,25,162.35
1867,G4,511.208,19/20,21,162.35
1868,C#4,511.208,19/20,21,162.35
1869,F#5,512.0,19/20,30,162.35
1870,E-6,512.0,19/20,30,162.35
1871,C4,512.208,19/20,26,162.35
1872,A4,512.208,19/20,26,162.35
1873,C#2,517.708,0.5,41,162.35
1874,C#4,517.75,0.25,47,162.35
1875,A3,517.833,0.375,46,162.35
1876,E4,517.875,0.125,52,162.35
1877,C#5,518.0,5.5,58,162.35
1878,C#4,518.0,5.5,47,162.35
1879,E4,518.0,5.5,52,162.35
1880,C#2,518.208,5.5,41,162.35
1881,A3,518.208,5.5,46,162.35
1882,E-2,523.708,0.5,33,162.35
1883,B-4,524.0,5.0,52,162.35
1884,C#4,524.0,4.0,42,162.35
1885,F4,524.0,4.0,42,162.35
1886,G#3,524.208,3.0,41,162.35
1887,E-2,524.208,6.0,33,162.35
1888,G3,527.208,3.0,33,162.35
1889,E-4,528.0,2.0,37,162.35
1890,C5,529.0,1.0,37,162.35
1891,C4,530.0,4.0,38,162.35
1892,G#4,530.0,6.0,38,162.35
1893,E-3,530.208,4.0,31,162.35
1894,G#2,530.208,6.0,31,162.35
1895,B3,534.0,1.0,37,162.35
1896,D3,534.208,1.0,34,162.35
1897,C4,535.0,0.812,37,162.35
1898,E-3,535.208,0.812,35,162.35
1899,E-4,535.938,0.062,38,162.35
1900,G#4,536.0,6.0,40,162.35
1901,E-4,536.0,3.0,38,162.35
1902,G#2,536.021,0.188,31,162.35
1903,G3,536.083,0.125,33,162.35
1904,G#2,536.208,6.0,31,162.35
1905,G3,536.208,3.0,33,162.35
1906,C#4,539.0,2.0,34,162.35
1907,F3,539.208,2.0,30,162.35
1908,C4,541.0,1.0,31,162.35
1909,E-3,541.208,1.0,30,162.35
1910,G#2,542.208,6.0,26,162.35
1911,E-3,542.458,5.75,34,162.35
1912,C4,542.5,5.5,34,162.35
1913,G#4,542.75,5.25,37,162.35
