,note_name,start_time,duration,velocity,tempo
0,D2,2.812,1.0,46,162.2
1,A2,2.875,0.938,51,162.2
2,D3,2.938,0.875,55,162.2
3,F3,3.0,0.812,63,162.2
4,A4,3.0,0.812,58,162.2
5,A3,3.0,0.812,58,162.2
6,D4,3.0,0.812,58,162.2
7,E2,3.812,0.188,44,162.2
8,A2,3.875,0.125,48,162.2
9,C#3,3.938,0.062,53,162.2
10,C#4,4.0,2.0,61,162.2
11,G3,4.0,2.0,48,162.2
12,E2,4.0,2.0,44,162.2
13,A2,4.0,2.0,48,162.2
14,C#3,4.0,2.0,53,162.2
15,A4,4.0,1.5,66,162.2
16,A3,4.0,1.5,66,162.2
17,A4,5.5,0.5,58,162.2
18,A3,5.5,0.5,58,162.2
19,A3,6.0,1.0,66,162.2
20,A4,6.0,1.0,66,162.2
21,D4,6.0,1.0,66,162.2
22,D3,6.0,1.0,54,162.2
23,F3,6.0,1.0,54,162.2
24,F2,6.0,1.0,54,162.2
25,A2,6.0,1.0,54,162.2
26,A3,7.0,1.0,62,162.2
27,A4,7.0,1.0,62,162.2
28,C4,7.0,1.0,62,162.2
29,E4,7.0,1.0,62,162.2
30,E3,7.0,1.0,53,162.2
31,E2,7.0,1.0,53,162.2
32,A2,7.0,1.0,53,162.2
33,C3,7.0,1.0,53,162.2
34,A4,8.0,2.0,62,162.2
35,A3,8.0,2.0,62,162.2
36,C4,8.0,1.0,53,162.2
37,F#4,8.0,1.0,53,162.2
38,E-3,8.0,1.0,50,162.2
39,E-2,8.0,1.0,50,162.2
40,A2,8.0,1.0,50,162.2
41,C3,8.0,1.0,50,162.2
42,A2,9.0,0.125,35,162.2
43,F#4,9.0,1.0,57,162.2
44,C4,9.0,1.0,57,162.2
45,E-3,9.0,1.0,50,162.2
46,E-2,9.0,1.0,50,162.2
47,C3,9.0,1.0,50,162.2
48,G#2,9.125,0.125,36,162.2
49,A2,9.25,0.125,39,162.2
50,G#2,9.375,0.125,42,162.2
51,A2,9.5,0.125,44,162.2
52,G#2,9.625,0.125,46,162.2
53,A2,9.75,0.125,47,162.2
54,G#2,9.875,0.125,47,162.2
55,A2,10.0,83/1000,49,162.2
56,A4,10.0,1.0,57,162.2
57,C4,10.0,1.0,57,162.2
58,F#4,10.0,1.0,57,162.2
59,A3,10.0,1.0,57,162.2
60,E-3,10.0,1.0,45,162.2
61,E-2,10.0,1.0,45,162.2
62,C3,10.0,1.0,45,162.2
63,G#2,10.083,83/1000,44,162.2
64,A2,10.167,83/1000,49,162.2
65,G#2,10.25,83/1000,43,162.2
66,A2,10.333,83/1000,49,162.2
67,G#2,10.417,83/1000,44,162.2
68,A2,10.5,83/1000,49,162.2
69,G#2,10.583,83/1000,44,162.2
70,A2,10.667,83/1000,49,162.2
71,G#2,10.75,83/1000,43,162.2
72,A2,10.833,83/1000,49,162.2
73,G#2,10.917,83/1000,44,162.2
74,A2,10.988,83/1000,49,162.2
75,F#4,11.0,1.0,46,162.2
76,C4,11.0,1.0,46,162.2
77,A4,11.0,0.75,62,162.2
78,A3,11.0,0.75,62,162.2
79,E-3,11.0,1.0,50,162.2
80,E-2,11.0,1.0,50,162.2
81,C3,11.0,1.0,50,162.2
82,G#2,11.071,83/1000,44,162.2
83,A2,11.154,83/1000,49,162.2
84,G#2,11.238,83/1000,44,162.2
85,A2,11.321,83/1000,49,162.2
86,G#2,11.404,83/1000,44,162.2
87,A2,11.5,0.125,49,162.2
88,G2,11.625,0.125,45,162.2
89,F#2,11.75,0.125,50,162.2
90,A4,11.75,0.25,60,162.2
91,A3,11.75,0.25,60,162.2
92,F2,11.875,0.125,45,162.2
93,E2,12.0,13/125,53,162.2
94,E4,12.0,4.0,66,162.2
95,E3,12.0,4.0,66,162.2
96,C4,12.0,2.0,61,162.2
97,A3,12.0,2.0,61,162.2
98,C3,12.0,2.0,64,162.2
99,A2,12.0,2.0,64,162.2
100,E-2,12.083,13/125,48,162.2
101,E2,12.167,13/125,53,162.2
102,E-2,12.25,13/125,47,162.2
103,E2,12.333,13/125,53,162.2
104,E-2,12.417,13/125,48,162.2
105,E2,12.5,13/125,53,162.2
106,E-2,12.583,13/125,46,162.2
107,E2,12.667,13/125,52,162.2
108,E-2,12.75,13/125,48,162.2
109,E2,12.833,13/125,52,162.2
110,E-2,12.917,13/125,46,162.2
111,E2,13.0,13/125,51,162.2
112,E-2,13.083,13/125,46,162.2
113,E2,13.167,13/125,51,162.2
114,E-2,13.25,13/125,45,162.2
115,E2,13.333,13/125,52,162.2
116,E-2,13.417,13/125,45,162.2
117,E2,13.5,13/125,51,162.2
118,E-2,13.583,13/125,45,162.2
119,E2,13.667,13/125,51,162.2
120,E-2,13.75,13/125,46,162.2
121,E2,13.833,13/125,51,162.2
122,E-2,13.917,13/125,46,162.2
123,E2,14.0,13/125,53,162.2
124,B3,14.0,2.0,66,162.2
125,G#3,14.0,2.0,66,162.2
126,B2,14.0,2.0,56,162.2
127,G#2,14.0,2.0,56,162.2
128,E-2,14.083,13/125,45,162.2
129,E2,14.167,13/125,51,162.2
130,E-2,14.25,13/125,45,162.2
131,E2,14.333,13/125,51,162.2
132,E-2,14.417,13/125,45,162.2
133,E2,14.5,13/125,51,162.2
134,E-2,14.583,13/125,45,162.2
135,E2,14.667,13/125,51,162.2
136,E-2,14.75,13/125,45,162.2
137,E2,14.833,13/125,51,162.2
138,E-2,14.917,13/125,46,162.2
139,E2,15.0,73/500,48,162.2
140,E-2,15.125,73/500,48,162.2
141,E2,15.25,0.125,60,162.2
142,D2,15.375,83/1000,63,162.2
143,C#2,15.5,83/1000,67,162.2
144,C2,15.625,83/1000,70,162.2
145,B1,15.75,0.125,73,162.2
146,B-1,15.875,83/1000,77,162.2
147,A1,16.0,2.0,64,162.2
148,E2,16.062,1.938,56,162.2
149,A2,16.125,1.875,59,162.2
150,C#3,16.188,1.812,64,162.2
151,E3,16.188,1.812,64,162.2
152,A3,16.188,1.812,64,162.2
153,C#4,16.188,1.812,64,162.2
154,E4,16.188,1.812,64,162.2
155,G4,19.75,0.25,66,162.2
156,G3,19.75,0.25,66,162.2
157,D4,19.75,0.25,66,162.2
158,F4,19.75,0.25,66,162.2
159,D3,19.75,0.25,61,162.2
160,G2,19.75,0.25,61,162.2
161,B1,19.75,0.25,61,162.2
162,G4,20.0,0.5,70,162.2
163,C4,20.0,0.5,70,162.2
164,E4,20.0,0.5,70,162.2
165,G3,20.0,0.5,70,162.2
166,E3,20.0,0.5,67,162.2
167,G2,20.0,0.5,67,162.2
168,C2,20.0,0.5,67,162.2
169,G4,21.0,0.5,65,162.2
170,C4,21.0,0.5,65,162.2
171,E-4,21.0,0.5,65,162.2
172,G3,21.0,0.5,65,162.2
173,E-3,21.0,0.5,60,162.2
174,G2,21.0,0.5,60,162.2
175,C2,21.0,0.5,60,162.2
176,G4,22.5,0.5,66,162.2
177,B3,22.5,0.5,66,162.2
178,D4,22.5,0.5,66,162.2
179,G3,22.5,0.5,66,162.2
180,B2,22.5,0.5,66,162.2
181,D3,22.5,0.5,66,162.2
182,D2,22.5,0.5,66,162.2
183,G4,23.0,0.5,70,162.2
184,B-3,23.0,0.5,70,162.2
185,C#4,23.0,0.5,70,162.2
186,G3,23.0,0.5,70,162.2
187,C#3,23.0,0.5,67,162.2
188,B-2,23.0,0.5,67,162.2
189,E2,23.0,0.5,67,162.2
190,G4,24.0,0.5,66,162.2
191,B-3,24.0,0.5,66,162.2
192,C#4,24.0,0.5,66,162.2
193,G3,24.0,0.5,66,162.2
194,C#3,24.0,0.5,64,162.2
195,B-2,24.0,0.5,64,162.2
196,E2,24.0,0.5,64,162.2
197,C4,26.0,1.0,36,162.2
198,G4,26.0,0.75,37,162.2
199,G3,26.0,0.75,37,162.2
200,C3,26.0,1.0,30,162.2
201,E-2,26.0,1.0,30,162.2
202,G2,26.002,0.125,26,162.2
203,F#2,26.127,0.125,27,162.2
204,G2,26.252,0.125,29,162.2
205,F#2,26.377,0.125,32,162.2
206,G2,26.502,0.125,34,162.2
207,F#2,26.627,0.125,36,162.2
208,G3,26.75,0.25,41,162.2
209,G4,26.75,0.25,41,162.2
210,G2,26.752,0.125,37,162.2
211,F#2,26.877,0.125,38,162.2
212,G4,27.0,1.0,44,162.2
213,D4,27.0,1.0,44,162.2
214,B3,27.0,1.0,44,162.2
215,G3,27.0,1.0,44,162.2
216,D3,27.0,1.0,34,162.2
217,B2,27.0,1.0,34,162.2
218,D2,27.0,1.0,34,162.2
219,G2,27.002,83/1000,41,162.2
220,F#2,27.085,83/1000,36,162.2
221,G2,27.169,83/1000,41,162.2
222,F#2,27.252,83/1000,36,162.2
223,G2,27.335,83/1000,42,162.2
224,F#2,27.419,83/1000,37,162.2
225,G2,27.502,83/1000,43,162.2
226,F#2,27.585,83/1000,38,162.2
227,G2,27.669,83/1000,44,162.2
228,F#2,27.752,83/1000,38,162.2
229,G2,27.835,83/1000,45,162.2
230,F#2,27.919,83/1000,40,162.2
231,G2,27.99,83/1000,45,162.2
232,B-3,28.0,1.0,44,162.2
233,E4,28.0,1.0,44,162.2
234,G3,28.0,0.5,54,162.2
235,G4,28.0,0.5,54,162.2
236,E3,28.0,1.0,46,162.2
237,B-2,28.0,1.0,46,162.2
238,C#2,28.0,1.0,46,162.2
239,F#2,28.073,83/1000,40,162.2
240,G2,28.156,83/1000,45,162.2
241,F#2,28.24,83/1000,41,162.2
242,G2,28.323,83/1000,46,162.2
243,F#2,28.406,83/1000,42,162.2
244,G3,28.5,0.5,58,162.2
245,G4,28.5,0.5,58,162.2
246,G2,28.502,0.125,47,162.2
247,F2,28.627,0.125,44,162.2
248,E2,28.752,0.125,49,162.2
249,E-2,28.877,123/1000,45,162.2
250,D2,29.0,13/125,51,162.2
251,E-2,29.0,1/500,45,162.2
252,G3,29.0,1.0,61,162.2
253,A3,29.0,1.0,61,162.2
254,D3,29.0,3.0,66,162.2
255,D4,29.0,3.0,66,162.2
256,G2,29.0,1.0,56,162.2
257,A2,29.0,1.0,56,162.2
258,C#2,29.083,13/125,46,162.2
259,D2,29.167,13/125,51,162.2
260,C#2,29.25,13/125,45,162.2
261,D2,29.333,13/125,52,162.2
262,C#2,29.417,13/125,45,162.2
263,D2,29.5,13/125,51,162.2
264,C#2,29.583,13/125,45,162.2
265,D2,29.667,13/125,51,162.2
266,C#2,29.75,13/125,46,162.2
267,D2,29.833,13/125,51,162.2
268,C#2,29.917,13/125,46,162.2
269,D2,30.0,13/125,56,162.2
270,A3,30.0,2.0,66,162.2
271,F#3,30.0,2.0,66,162.2
272,A2,30.0,2.0,56,162.2
273,F#2,30.0,2.0,56,162.2
274,E-2,30.083,13/125,51,162.2
275,D2,30.167,13/125,56,162.2
276,E-2,30.25,13/125,52,162.2
277,D2,30.333,13/125,55,162.2
278,E-2,30.417,13/125,51,162.2
279,D2,30.5,13/125,55,162.2
280,E-2,30.583,13/125,53,162.2
281,D2,30.667,83/1000,54,162.2
282,E-2,30.75,13/125,52,162.2
283,D2,30.833,13/125,55,162.2
284,E-2,30.917,13/125,53,162.2
285,D2,31.0,73/500,56,162.2
286,E-2,31.125,0.125,54,162.2
287,D2,31.25,83/1000,60,162.2
288,C2,31.375,83/1000,63,162.2
289,B1,31.5,83/1000,67,162.2
290,B-1,31.625,83/1000,70,162.2
291,A1,31.75,0.125,73,162.2
292,G#1,31.875,83/1000,77,162.2
293,G1,32.0,2.0,77,162.2
294,D2,32.062,1.938,56,162.2
295,G2,32.125,1.875,59,162.2
296,B2,32.188,1.812,64,162.2
297,D3,32.25,1.75,65,162.2
298,G3,32.312,1.688,69,162.2
299,B3,32.375,1.625,72,162.2
300,D4,32.438,1.562,76,162.2
301,D4,35.0,31/125,66,162.2
302,D3,35.0,0.125,62,162.2
303,G#2,35.0,0.5,72,162.2
304,B1,35.0,0.5,72,162.2
305,F2,35.0,0.5,72,162.2
306,G#3,35.125,0.125,44,162.2
307,F3,35.125,0.125,44,162.2
308,D4,35.25,0.125,50,162.2
309,D4,35.375,0.125,51,162.2
310,G#4,35.5,0.125,49,162.2
311,F4,35.5,0.125,49,162.2
312,D5,35.625,0.125,54,162.2
313,D5,35.75,0.125,55,162.2
314,G#5,35.875,0.125,52,162.2
315,F5,35.875,0.125,52,162.2
316,D6,36.0,0.125,58,162.2
317,D6,36.125,0.125,60,162.2
318,G#6,36.25,0.125,58,162.2
319,F6,36.25,0.125,58,162.2
320,D7,36.375,0.125,68,162.2
321,D4,36.375,2.0,68,162.2
322,D3,36.375,2.0,68,162.2
323,F3,36.375,2.0,68,162.2
324,G#3,36.375,2.0,68,162.2
325,G#6,36.5,0.125,62,162.2
326,F6,36.5,0.125,62,162.2
327,D6,36.625,0.125,66,162.2
328,D6,36.75,0.125,64,162.2
329,G#5,36.875,0.125,58,162.2
330,F5,36.875,0.125,58,162.2
331,D5,37.0,0.125,61,162.2
332,D5,37.125,0.125,60,162.2
333,G#4,37.25,0.125,54,162.2
334,F4,37.25,0.125,54,162.2
335,D4,37.375,0.125,56,162.2
336,D4,37.5,0.125,54,162.2
337,G#3,37.625,0.125,52,162.2
338,F3,37.625,0.125,52,162.2
339,D3,37.75,0.125,62,162.2
340,G#2,37.75,0.5,69,162.2
341,B1,37.75,0.5,69,162.2
342,F2,37.75,0.5,69,162.2
343,G#3,37.875,0.125,50,162.2
344,F3,37.875,0.125,50,162.2
345,D4,38.0,0.125,56,162.2
346,D4,38.125,0.125,57,162.2
347,G#4,38.25,0.125,54,162.2
348,F4,38.25,0.125,54,162.2
349,D5,38.375,0.125,60,162.2
350,D5,38.5,0.125,61,162.2
351,G#5,38.625,0.125,57,162.2
352,F5,38.625,0.125,57,162.2
353,D6,38.75,0.125,63,162.2
354,D6,38.875,0.125,64,162.2
355,G#6,39.0,0.125,60,162.2
356,F6,39.0,0.125,60,162.2
357,D7,39.125,0.125,68,162.2
358,D3,39.125,1.0,74,162.2
359,F3,39.125,1.0,74,162.2
360,G#3,39.125,1.0,74,162.2
361,D4,39.125,1.0,74,162.2
362,G#6,39.25,0.125,62,162.2
363,F6,39.25,0.125,62,162.2
364,D6,39.375,0.125,65,162.2
365,D6,39.5,0.125,64,162.2
366,G#5,39.625,0.125,58,162.2
367,F5,39.625,0.125,58,162.2
368,D5,39.75,0.125,63,162.2
369,D5,39.875,0.125,61,162.2
370,G#4,40.0,0.125,55,162.2
371,F4,40.0,0.125,55,162.2
372,D4,40.125,0.125,59,162.2
373,D4,40.25,0.125,57,162.2
374,G#3,40.375,0.125,52,162.2
375,F3,40.375,0.125,52,162.2
376,D3,40.5,0.5,87,162.2
377,B1,40.5,0.5,75,162.2
378,F2,40.5,0.5,75,162.2
379,G#2,40.5,0.5,75,162.2
380,A3,46.0,123/500,74,162.2
381,A2,46.0,0.125,74,162.2
382,G2,46.0,0.5,75,162.2
383,C#2,46.0,0.5,75,162.2
384,E2,46.0,0.5,75,162.2
385,E3,46.125,0.125,48,162.2
386,C#3,46.125,0.125,48,162.2
387,A3,46.25,0.125,52,162.2
388,A3,46.375,0.125,54,162.2
389,E4,46.5,0.125,53,162.2
390,C#4,46.5,0.125,53,162.2
391,A4,46.625,0.125,56,162.2
392,A4,46.75,0.125,58,162.2
393,E5,46.875,0.125,58,162.2
394,C#5,46.875,0.125,58,162.2
395,A5,47.0,0.125,61,162.2
396,A5,47.125,0.125,63,162.2
397,E6,47.25,0.125,62,162.2
398,C#6,47.25,0.125,62,162.2
399,A6,47.375,0.125,71,162.2
400,A3,47.375,2.0,71,162.2
401,C#3,47.375,2.0,71,162.2
402,E3,47.375,2.0,71,162.2
403,G3,47.375,2.0,71,162.2
404,E6,47.5,0.125,65,162.2
405,C#6,47.5,0.125,65,162.2
406,A5,47.625,0.125,66,162.2
407,A5,47.75,0.125,64,162.2
408,E5,47.875,0.125,60,162.2
409,C#5,47.875,0.125,60,162.2
410,A4,48.0,0.125,61,162.2
411,A4,48.125,0.125,59,162.2
412,E4,48.25,0.125,55,162.2
413,C#4,48.25,0.125,55,162.2
414,A3,48.375,0.125,55,162.2
415,A3,48.5,0.125,54,162.2
416,E3,48.625,0.125,50,162.2
417,C#3,48.625,0.125,50,162.2
418,A2,48.75,0.125,53,162.2
419,E2,48.75,0.5,72,162.2
420,C#2,48.75,0.5,72,162.2
421,G2,48.75,0.5,72,162.2
422,E3,48.875,0.125,47,162.2
423,C#3,48.875,0.125,47,162.2
424,A3,49.0,0.125,51,162.2
425,A3,49.125,0.125,53,162.2
426,E4,49.25,0.125,52,162.2
427,C#4,49.25,0.125,52,162.2
428,A4,49.375,0.125,56,162.2
429,A4,49.5,0.125,58,162.2
430,E5,49.625,0.125,58,162.2
431,C#5,49.625,0.125,58,162.2
432,A5,49.75,0.125,62,162.2
433,A5,49.875,0.125,63,162.2
434,E6,50.0,0.125,64,162.2
435,C#6,50.0,0.125,64,162.2
436,A6,50.125,0.125,71,162.2
437,C#3,50.125,1.0,78,162.2
438,E3,50.125,1.0,78,162.2
439,G3,50.125,1.0,78,162.2
440,A3,50.125,1.0,78,162.2
441,E6,50.25,0.125,68,162.2
442,C#6,50.25,0.125,68,162.2
443,A5,50.375,0.125,68,162.2
444,A5,50.5,0.125,66,162.2
445,E5,50.625,0.125,62,162.2
446,C#5,50.625,0.125,62,162.2
447,A4,50.75,0.125,63,162.2
448,A4,50.875,0.125,61,162.2
449,E4,51.0,0.125,58,162.2
450,C#4,51.0,0.125,58,162.2
451,A3,51.125,0.125,58,162.2
452,A3,51.25,0.125,56,162.2
453,E3,51.375,0.125,52,162.2
454,C#3,51.375,0.125,52,162.2
455,A2,51.5,0.5,87,162.2
456,C#2,51.5,0.5,76,162.2
457,E2,51.5,0.5,76,162.2
458,G2,51.5,0.5,76,162.2
459,D2,54.312,1.0,33,162.2
460,A2,54.375,0.938,39,162.2
461,D3,54.438,0.875,45,162.2
462,A3,54.5,0.25,49,162.2
463,F3,54.5,0.812,44,162.2
464,A4,54.5,1.0,45,162.2
465,D4,54.5,1.0,45,162.2
466,B-3,54.75,0.25,45,162.2
467,A3,55.0,0.25,48,162.2
468,B-3,55.25,0.25,45,162.2
469,E2,55.312,0.188,32,162.2
470,A2,55.375,0.125,32,162.2
471,C#3,55.438,0.062,32,162.2
472,A3,55.5,0.25,52,162.2
473,G3,55.5,1.875,39,162.2
474,E2,55.5,1.875,32,162.2
475,A2,55.5,1.875,32,162.2
476,C#3,55.5,1.875,32,162.2
477,A4,55.5,1.5,48,162.2
478,C#4,55.5,1.5,48,162.2
479,B-3,55.75,0.25,45,162.2
480,A3,56.0,0.25,48,162.2
481,B-3,56.25,0.25,45,162.2
482,A3,56.5,26/125,48,162.2
483,D4,56.75,0.25,46,162.2
484,C#4,57.0,0.25,48,162.2
485,A4,57.0,0.5,51,162.2
486,B-3,57.25,0.25,48,162.2
487,F2,57.375,479/500,29,162.2
488,A2,57.375,479/500,29,162.2
489,D3,57.375,479/500,29,162.2
490,F3,57.438,0.938,35,162.2
491,A3,57.458,73/250,39,162.2
492,D4,57.479,1.0,46,162.2
493,A4,57.479,1.0,46,162.2
494,B-3,57.75,0.25,45,162.2
495,A3,58.0,0.25,49,162.2
496,B-3,58.25,0.25,45,162.2
497,E2,58.375,1083/1000,35,162.2
498,A2,58.375,1083/1000,35,162.2
499,C3,58.375,1083/1000,35,162.2
500,E3,58.438,1.062,40,162.2
501,A3,58.458,53/200,42,162.2
502,E4,58.458,53/200,42,162.2
503,A4,58.5,1.0,51,162.2
504,E4,58.75,0.25,51,162.2
505,C4,59.0,0.25,52,162.2
506,B3,59.25,0.25,48,162.2
507,A3,59.5,0.25,59,162.2
508,A4,59.5,2.0,59,162.2
509,F#4,59.5,1229/1000,50,162.2
510,E-3,59.5,1.0,43,162.2
511,E-2,59.5,1.0,43,162.2
512,C3,59.5,1.0,43,162.2
513,B3,59.75,0.25,49,162.2
514,A3,60.0,0.25,54,162.2
515,B3,60.25,0.25,49,162.2
516,A3,60.5,229/1000,56,162.2
517,A2,60.5,0.125,36,162.2
518,E-3,60.5,1.0,38,162.2
519,E-2,60.5,1.0,38,162.2
520,C3,60.5,1.0,38,162.2
521,G#2,60.625,0.125,38,162.2
522,F#4,60.75,0.25,54,162.2
523,A2,60.75,0.125,42,162.2
524,G#2,60.875,0.125,45,162.2
525,C4,61.0,0.25,57,162.2
526,A2,61.0,0.125,46,162.2
527,G#2,61.125,0.125,50,162.2
528,B3,61.25,0.25,54,162.2
529,A2,61.25,0.125,52,162.2
530,G#2,61.375,0.125,52,162.2
531,A3,61.5,0.25,62,162.2
532,A2,61.5,83/1000,54,162.2
533,A4,61.5,1.0,57,162.2
534,F#4,61.5,1.0,57,162.2
535,E-3,61.5,1.0,39,162.2
536,E-2,61.5,1.0,39,162.2
537,C3,61.5,1.0,39,162.2
538,G#2,61.583,83/1000,48,162.2
539,A2,61.667,83/1000,54,162.2
540,B3,61.75,0.25,54,162.2
541,G#2,61.75,83/1000,47,162.2
542,A2,61.833,83/1000,55,162.2
543,G#2,61.917,83/1000,49,162.2
544,A3,62.0,0.25,60,162.2
545,A2,62.0,83/1000,55,162.2
546,G#2,62.083,83/1000,49,162.2
547,A2,62.167,83/1000,55,162.2
548,B3,62.25,0.25,55,162.2
549,G#2,62.25,83/1000,49,162.2
550,A2,62.333,83/1000,56,162.2
551,G#2,62.417,83/1000,50,162.2
552,A2,62.487,83/1000,56,162.2
553,A3,62.5,0.25,65,162.2
554,A4,62.5,1.0,60,162.2
555,F#4,62.5,1.0,60,162.2
556,E-3,62.5,1.0,41,162.2
557,E-2,62.5,1.0,41,162.2
558,C3,62.5,1.0,41,162.2
559,G#2,62.571,83/1000,50,162.2
560,A2,62.654,83/1000,57,162.2
561,G#2,62.737,83/1000,51,162.2
562,C4,62.75,0.25,59,162.2
563,A2,62.821,83/1000,57,162.2
564,G#2,62.904,83/1000,51,162.2
565,B3,63.0,0.25,63,162.2
566,A2,63.0,0.125,56,162.2
567,G2,63.125,0.125,53,162.2
568,A3,63.25,0.25,59,162.2
569,F#2,63.25,0.125,56,162.2
570,F2,63.375,0.125,54,162.2
571,E3,63.5,271/1000,59,162.2
572,E2,63.5,13/125,53,162.2
573,C4,63.5,2.0,67,162.2
574,E4,63.5,2.0,67,162.2
575,A2,63.5,2.0,61,162.2
576,C3,63.5,2.0,61,162.2
577,E-2,63.583,13/125,48,162.2
578,E2,63.667,13/125,53,162.2
579,F3,63.75,271/1000,52,162.2
580,E-2,63.75,13/125,47,162.2
581,E2,63.833,13/125,53,162.2
582,E-2,63.917,13/125,48,162.2
583,E3,64.0,271/1000,59,162.2
584,E2,64.0,13/125,53,162.2
585,E-2,64.083,13/125,46,162.2
586,E2,64.167,13/125,52,162.2
587,F3,64.25,271/1000,52,162.2
588,E-2,64.25,13/125,48,162.2
589,E2,64.333,13/125,52,162.2
590,E-2,64.417,13/125,46,162.2
591,E3,64.5,0.25,59,162.2
592,E2,64.5,13/125,51,162.2
593,E-2,64.583,13/125,46,162.2
594,E2,64.667,13/125,51,162.2
595,A3,64.75,271/1000,54,162.2
596,E-2,64.75,13/125,45,162.2
597,E2,64.833,13/125,52,162.2
598,E-2,64.917,13/125,45,162.2
599,G3,65.0,271/1000,59,162.2
600,E2,65.0,13/125,51,162.2
601,E-2,65.083,13/125,45,162.2
602,E2,65.167,13/125,51,162.2
603,F3,65.25,0.25,54,162.2
604,E-2,65.25,13/125,46,162.2
605,E2,65.333,13/125,51,162.2
606,E-2,65.417,13/125,46,162.2
607,E3,65.5,271/1000,59,162.2
608,B3,65.5,1521/1000,67,162.2
609,E4,65.5,2.0,67,162.2
610,E2,65.5,13/125,53,162.2
611,G#2,65.5,2.0,57,162.2
612,B2,65.5,2.0,57,162.2
613,E-2,65.583,13/125,45,162.2
614,E2,65.667,13/125,51,162.2
615,F3,65.75,271/1000,56,162.2
616,E-2,65.75,13/125,45,162.2
617,E2,65.833,13/125,51,162.2
618,E-2,65.917,13/125,45,162.2
619,E3,66.0,271/1000,56,162.2
620,E2,66.0,13/125,51,162.2
621,E-2,66.083,13/125,45,162.2
622,E2,66.167,13/125,51,162.2
623,F3,66.25,271/1000,50,162.2
624,E-2,66.25,13/125,45,162.2
625,E2,66.333,13/125,51,162.2
626,E-2,66.417,13/125,46,162.2
627,E3,66.5,0.25,54,162.2
628,E2,66.5,73/500,48,162.2
629,E-2,66.625,73/500,48,162.2
630,B3,66.75,0.75,49,162.2
631,E2,66.75,0.125,49,162.2
632,D2,66.875,83/1000,53,162.2
633,G#3,67.0,271/1000,59,162.2
634,C#2,67.0,83/1000,55,162.2
635,C2,67.125,83/1000,58,162.2
636,F3,67.25,0.25,54,162.2
637,B1,67.25,0.125,62,162.2
638,B-1,67.375,83/1000,64,162.2
639,A1,67.5,979/500,46,162.2
640,E2,67.5,979/500,46,162.2
641,A2,67.5,979/500,46,162.2
642,C#3,67.562,1.938,46,162.2
643,E4,67.583,1917/1000,59,162.2
644,C#4,67.583,1167/1000,59,162.2
645,E3,67.583,167/1000,59,162.2
646,F3,67.75,0.25,44,162.2
647,E3,68.0,0.25,51,162.2
648,F3,68.25,0.25,45,162.2
649,E3,68.5,0.188,49,162.2
650,C#4,68.75,0.75,54,162.2
651,A3,69.0,0.25,51,162.2
652,F3,69.25,0.25,49,162.2
653,E3,69.5,0.188,54,162.2
654,A3,69.75,0.25,51,162.2
655,F3,70.0,0.25,53,162.2
656,E3,70.25,0.25,50,162.2
657,C#3,70.5,0.188,52,162.2
658,F3,70.75,0.25,54,162.2
659,E3,71.0,0.25,51,162.2
660,C#3,71.25,0.25,47,162.2
661,A2,71.5,0.25,56,162.2
662,B-2,71.75,0.25,53,162.2
663,B2,72.0,0.25,56,162.2
664,C3,72.25,0.25,56,162.2
665,C#3,72.5,0.25,54,162.2
666,D3,72.75,0.25,54,162.2
667,E-3,73.0,0.25,56,162.2
668,E3,73.25,0.25,57,162.2
669,F3,73.5,0.25,58,162.2
670,F#3,73.75,0.25,60,162.2
671,G3,74.0,0.25,61,162.2
672,G#3,74.25,0.25,63,162.2
673,G3,74.5,0.25,69,162.2
674,G#3,74.75,0.25,66,162.2
675,G3,75.0,0.25,63,162.2
676,G4,75.0,0.5,62,162.2
677,F4,75.0,0.5,62,162.2
678,B1,75.0,0.5,43,162.2
679,G2,75.0,0.5,43,162.2
680,D3,75.0,0.5,43,162.2
681,G#3,75.25,0.25,59,162.2
682,G3,75.5,0.25,62,162.2
683,G4,75.5,0.5,68,162.2
684,E4,75.5,0.5,68,162.2
685,E3,75.5,0.5,47,162.2
686,G2,75.5,0.5,47,162.2
687,C2,75.5,0.5,47,162.2
688,G#3,75.75,0.25,56,162.2
689,G3,76.0,0.25,59,162.2
690,G#3,76.25,0.25,56,162.2
691,G3,76.5,229/1000,56,162.2
692,G4,76.5,0.5,66,162.2
693,E-4,76.5,0.5,66,162.2
694,E-3,76.5,0.5,43,162.2
695,G2,76.5,0.5,43,162.2
696,C2,76.5,0.5,43,162.2
697,C4,76.75,0.25,62,162.2
698,B-3,77.0,0.25,58,162.2
699,G#3,77.25,0.25,58,162.2
700,G3,77.5,0.25,62,162.2
701,G#3,77.75,0.25,56,162.2
702,G3,78.0,0.25,62,162.2
703,G4,78.0,0.5,64,162.2
704,D4,78.0,0.5,64,162.2
705,B2,78.0,0.5,47,162.2
706,D3,78.0,0.5,47,162.2
707,D2,78.0,0.5,47,162.2
708,G#3,78.25,0.25,56,162.2
709,G3,78.5,0.25,62,162.2
710,G4,78.5,0.5,68,162.2
711,C#4,78.5,0.5,68,162.2
712,C#3,78.5,0.5,47,162.2
713,B-2,78.5,0.5,47,162.2
714,E2,78.5,0.5,47,162.2
715,A3,78.75,0.25,56,162.2
716,G3,79.0,0.25,62,162.2
717,A3,79.25,0.25,56,162.2
718,G3,79.5,229/1000,58,162.2
719,G4,79.5,0.5,64,162.2
720,C#4,79.5,0.5,64,162.2
721,C#3,79.5,0.5,45,162.2
722,B-2,79.5,0.5,45,162.2
723,E2,79.5,0.5,45,162.2
724,C4,79.75,0.25,60,162.2
725,B-3,80.0,0.25,59,162.2
726,A3,80.25,0.25,59,162.2
727,G3,80.5,0.25,62,162.2
728,A3,80.75,0.25,56,162.2
729,G3,81.0,0.25,62,162.2
730,A3,81.25,0.25,56,162.2
731,G4,81.5,0.75,50,162.2
732,G3,81.5,0.25,52,162.2
733,C4,81.5,0.25,52,162.2
734,C3,81.5,1.0,36,162.2
735,E-2,81.5,1.0,36,162.2
736,G2,81.502,0.125,35,162.2
737,F#2,81.627,0.125,36,162.2
738,C4,81.75,0.75,53,162.2
739,G2,81.752,0.125,39,162.2
740,F#2,81.877,0.125,42,162.2
741,B-3,82.0,0.25,53,162.2
742,G2,82.002,0.125,44,162.2
743,F#2,82.127,0.125,46,162.2
744,A3,82.25,0.25,53,162.2
745,G2,82.252,0.125,47,162.2
746,F#2,82.377,0.125,47,162.2
747,G3,82.5,229/1000,51,162.2
748,G4,82.5,1.0,51,162.2
749,B3,82.5,1.0,51,162.2
750,D3,82.5,1.0,37,162.2
751,B2,82.5,1.0,37,162.2
752,D2,82.5,1.0,37,162.2
753,G2,82.502,83/1000,49,162.2
754,F#2,82.585,83/1000,44,162.2
755,G2,82.669,83/1000,49,162.2
756,D4,82.75,0.25,54,162.2
757,F#2,82.752,83/1000,43,162.2
758,G2,82.835,83/1000,49,162.2
759,F#2,82.919,83/1000,44,162.2
760,B-3,83.0,0.25,54,162.2
761,G2,83.002,83/1000,49,162.2
762,F#2,83.085,83/1000,44,162.2
763,G2,83.169,83/1000,49,162.2
764,G3,83.25,0.25,54,162.2
765,F#2,83.252,83/1000,43,162.2
766,G2,83.335,83/1000,49,162.2
767,F#2,83.419,83/1000,44,162.2
768,G2,83.49,83/1000,49,162.2
769,G3,83.5,229/1000,54,162.2
770,G4,83.5,62/125,54,162.2
771,B-3,83.5,62/125,54,162.2
772,E3,83.5,1.0,44,162.2
773,B-2,83.5,1.0,44,162.2
774,C#2,83.5,1.0,44,162.2
775,F#2,83.573,83/1000,44,162.2
776,G2,83.656,83/1000,49,162.2
777,F#2,83.74,83/1000,44,162.2
778,E4,83.75,0.25,60,162.2
779,G2,83.823,83/1000,49,162.2
780,F#2,83.906,83/1000,44,162.2
781,B-3,84.0,0.25,58,162.2
782,G2,84.002,0.125,49,162.2
783,F2,84.127,0.125,45,162.2
784,G3,84.25,0.25,58,162.2
785,E2,84.252,0.125,50,162.2
786,E-2,84.377,123/1000,45,162.2
787,D4,84.5,2.0,72,162.2
788,D3,84.5,271/1000,58,162.2
789,A3,84.5,1521/1000,61,162.2
790,D2,84.5,0.156,51,162.2
791,E-2,84.5,1/500,45,162.2
792,G2,84.5,1.0,56,162.2
793,A2,84.5,1.0,56,162.2
794,C#2,84.625,0.156,46,162.2
795,E-3,84.75,271/1000,53,162.2
796,D2,84.75,0.156,51,162.2
797,C#2,84.875,0.156,45,162.2
798,D3,85.0,271/1000,58,162.2
799,D2,85.0,0.156,52,162.2
800,C#2,85.125,0.156,45,162.2
801,E-3,85.25,271/1000,53,162.2
802,D2,85.25,0.156,51,162.2
803,C#2,85.375,0.156,45,162.2
804,D3,85.5,229/1000,54,162.2
805,D2,85.5,0.156,56,162.2
806,A2,85.5,2.0,56,162.2
807,F#2,85.5,2.0,56,162.2
808,E-2,85.625,0.156,51,162.2
809,A3,85.75,0.75,58,162.2
810,D2,85.75,0.156,56,162.2
811,E-2,85.875,0.156,52,162.2
812,F#3,86.0,271/1000,54,162.2
813,D2,86.0,0.156,55,162.2
814,E-2,86.125,0.156,51,162.2
815,E-3,86.25,271/1000,54,162.2
816,D2,86.25,0.156,55,162.2
817,E-2,86.375,0.156,53,162.2
818,D3,86.5,271/1000,56,162.2
819,D2,86.5,73/500,56,162.2
820,E-2,86.625,0.125,54,162.2
821,E-3,86.75,271/1000,54,162.2
822,D2,86.75,83/1000,60,162.2
823,C2,86.875,83/1000,63,162.2
824,D3,87.0,271/1000,58,162.2
825,B1,87.0,83/1000,67,162.2
826,B-1,87.125,83/1000,70,162.2
827,E-3,87.25,0.25,54,162.2
828,A1,87.25,0.125,73,162.2
829,G#1,87.375,83/1000,77,162.2
830,E-3,87.5,21/1000,54,162.2
831,G1,87.5,229/500,45,162.2
832,D2,87.5,229/500,45,162.2
833,G2,87.5,229/500,45,162.2
834,D4,87.562,729/1000,61,162.2
835,B2,87.562,0.438,46,162.2
836,D3,87.562,0.188,61,162.2
837,B3,87.562,0.188,61,162.2
838,B3,87.75,0.25,49,162.2
839,G3,88.0,0.25,44,162.2
840,E-3,88.25,0.25,44,162.2
841,D3,88.5,0.188,49,162.2
842,G3,88.75,0.25,45,162.2
843,D3,89.0,0.25,45,162.2
844,C3,89.25,0.25,44,162.2
845,B2,89.5,0.188,49,162.2
846,E-3,89.75,0.25,47,162.2
847,D3,90.0,0.25,47,162.2
848,B2,90.25,0.25,46,162.2
849,G2,90.5,0.25,54,162.2
850,F#2,90.75,0.25,49,162.2
851,G2,91.0,0.25,56,162.2
852,F#2,91.25,0.25,54,162.2
853,G2,91.5,0.25,59,162.2
854,G1,91.5,0.25,53,162.2
855,F#2,91.75,0.25,54,162.2
856,F#1,91.75,0.25,46,162.2
857,G2,92.0,0.25,59,162.2
858,G1,92.0,0.25,53,162.2
859,F#2,92.25,0.25,54,162.2
860,F#1,92.25,0.25,47,162.2
861,G2,92.5,0.25,58,162.2
862,G1,92.5,0.25,46,162.2
863,G#2,92.75,0.25,62,162.2
864,G#1,92.75,0.25,51,162.2
865,A2,93.0,0.25,67,162.2
866,A1,93.0,0.25,54,162.2
867,B-2,93.25,167/1000,72,162.2
868,B-1,93.25,167/1000,58,162.2
869,B1,93.417,83/1000,55,162.2
870,D2,93.417,83/1000,55,162.2
871,F2,93.417,83/1000,55,162.2
872,G#2,93.479,21/1000,64,162.2
873,B2,93.479,21/1000,64,162.2
874,D6,93.5,1.0,76,162.2
875,G#5,93.5,1.0,76,162.2
876,F5,93.5,1.0,76,162.2
877,D5,93.5,1.0,76,162.2
878,B1,93.5,26/125,55,162.2
879,D2,93.5,26/125,55,162.2
880,F2,93.5,26/125,55,162.2
881,G#2,93.5,229/1000,64,162.2
882,B2,93.5,229/1000,64,162.2
883,C3,93.75,0.25,54,162.2
884,C2,93.75,0.25,54,162.2
885,B2,94.0,0.25,54,162.2
886,B1,94.0,0.25,54,162.2
887,C3,94.25,0.25,50,162.2
888,C2,94.25,0.25,50,162.2
889,D6,94.5,2.0,76,162.2
890,G#5,94.5,2.0,76,162.2
891,F5,94.5,2.0,76,162.2
892,D5,94.5,2.0,76,162.2
893,D2,94.5,0.188,58,162.2
894,F2,94.5,0.188,58,162.2
895,G#2,94.5,0.188,58,162.2
896,B1,94.5,0.188,58,162.2
897,B2,94.5,0.188,58,162.2
898,E-3,94.75,271/1000,54,162.2
899,E-2,94.75,271/1000,54,162.2
900,D3,95.0,271/1000,54,162.2
901,D2,95.0,271/1000,54,162.2
902,C3,95.25,0.25,52,162.2
903,C2,95.25,0.25,52,162.2
904,B2,95.5,0.25,56,162.2
905,B1,95.5,0.25,56,162.2
906,C3,95.75,0.25,50,162.2
907,C2,95.75,0.25,50,162.2
908,B2,96.0,0.25,54,162.2
909,B1,96.0,0.25,54,162.2
910,C2,96.25,167/1000,55,162.2
911,C3,96.25,167/1000,55,162.2
912,B1,96.417,73/250,54,162.2
913,D2,96.417,73/250,54,162.2
914,F2,96.417,73/250,54,162.2
915,G#2,96.479,0.25,58,162.2
916,B2,96.479,0.25,58,162.2
917,D6,96.5,1.0,76,162.2
918,G#5,96.5,1.0,76,162.2
919,F5,96.5,1.0,76,162.2
920,D5,96.5,1.0,76,162.2
921,E3,96.75,271/1000,52,162.2
922,E2,96.75,271/1000,52,162.2
923,D3,97.0,271/1000,54,162.2
924,D2,97.0,271/1000,54,162.2
925,C3,97.25,167/1000,52,162.2
926,C2,97.25,167/1000,52,162.2
927,B1,97.417,83/1000,55,162.2
928,D2,97.417,83/1000,55,162.2
929,F2,97.417,83/1000,55,162.2
930,G#2,97.479,21/1000,64,162.2
931,B2,97.479,21/1000,64,162.2
932,D6,97.5,1.0,75,162.2
933,G#5,97.5,1.0,75,162.2
934,F5,97.5,1.0,75,162.2
935,D5,97.5,1.0,75,162.2
936,B1,97.5,26/125,55,162.2
937,D2,97.5,26/125,55,162.2
938,F2,97.5,26/125,55,162.2
939,G#2,97.5,229/1000,64,162.2
940,B2,97.5,229/1000,64,162.2
941,C3,97.75,0.25,54,162.2
942,C2,97.75,0.25,54,162.2
943,D3,98.0,0.25,56,162.2
944,D2,98.0,0.25,56,162.2
945,E3,98.25,0.25,54,162.2
946,E2,98.25,0.25,54,162.2
947,F3,98.5,0.25,54,162.2
948,F2,98.5,0.25,54,162.2
949,G#3,98.75,0.25,56,162.2
950,G#2,98.75,0.25,56,162.2
951,A3,99.0,0.25,58,162.2
952,A2,99.0,0.25,58,162.2
953,B2,99.25,0.25,66,162.2
954,B3,99.25,0.25,66,162.2
955,B3,99.5,0.25,62,162.2
956,B2,99.5,0.25,62,162.2
957,A3,99.75,0.25,62,162.2
958,A2,99.75,0.25,62,162.2
959,G#3,100.0,0.25,60,162.2
960,G#2,100.0,0.25,60,162.2
961,F3,100.25,0.25,59,162.2
962,F2,100.25,0.25,59,162.2
963,E3,100.5,0.25,58,162.2
964,E2,100.5,0.25,58,162.2
965,D3,100.75,0.25,58,162.2
966,D2,100.75,0.25,58,162.2
967,C3,101.0,0.25,56,162.2
968,C2,101.0,0.25,56,162.2
969,B2,101.25,167/1000,55,162.2
970,B1,101.25,167/1000,55,162.2
971,C#2,101.417,83/1000,55,162.2
972,E2,101.417,83/1000,55,162.2
973,G2,101.417,83/1000,55,162.2
974,A2,101.479,21/1000,64,162.2
975,C#3,101.479,21/1000,64,162.2
976,A5,101.5,1.0,76,162.2
977,G5,101.5,1.0,76,162.2
978,E5,101.5,1.0,76,162.2
979,A4,101.5,1.0,76,162.2
980,C#2,101.5,26/125,55,162.2
981,E2,101.5,26/125,55,162.2
982,G2,101.5,26/125,55,162.2
983,A2,101.5,229/1000,64,162.2
984,C#3,101.5,229/1000,64,162.2
985,D3,101.75,0.25,54,162.2
986,D2,101.75,0.25,54,162.2
987,C#3,102.0,0.25,54,162.2
988,C#2,102.0,0.25,54,162.2
989,D3,102.25,0.25,50,162.2
990,D2,102.25,0.25,50,162.2
991,A5,102.5,2.0,76,162.2
992,G5,102.5,2.0,76,162.2
993,E5,102.5,2.0,76,162.2
994,A4,102.5,2.0,76,162.2
995,E2,102.5,0.188,58,162.2
996,G2,102.5,0.188,58,162.2
997,A2,102.5,0.188,58,162.2
998,C#2,102.5,0.188,58,162.2
999,C#3,102.5,0.188,58,162.2
1000,F3,102.75,271/1000,54,162.2
1001,F2,102.75,271/1000,54,162.2
1002,E3,103.0,271/1000,54,162.2
1003,E2,103.0,271/1000,54,162.2
1004,D3,103.25,0.25,52,162.2
1005,D2,103.25,0.25,52,162.2
1006,C#3,103.5,0.25,56,162.2
1007,C#2,103.5,0.25,56,162.2
1008,D3,103.75,0.25,50,162.2
1009,D2,103.75,0.25,50,162.2
1010,C#3,104.0,0.25,54,162.2
1011,C#2,104.0,0.25,54,162.2
1012,D2,104.25,167/1000,55,162.2
1013,D3,104.25,167/1000,55,162.2
1014,C#2,104.417,73/250,54,162.2
1015,E2,104.417,73/250,54,162.2
1016,G2,104.417,73/250,54,162.2
1017,A2,104.479,0.25,58,162.2
1018,C#3,104.479,0.25,58,162.2
1019,A5,104.5,1.0,76,162.2
1020,G5,104.5,1.0,76,162.2
1021,E5,104.5,1.0,76,162.2
1022,A4,104.5,1.0,76,162.2
1023,F3,104.75,271/1000,52,162.2
1024,F2,104.75,271/1000,52,162.2
1025,E3,105.0,271/1000,54,162.2
1026,E2,105.0,271/1000,54,162.2
1027,D3,105.25,0.25,52,162.2
1028,D2,105.25,0.25,52,162.2
1029,G5,105.5,1.5,43,162.2
1030,A5,105.5,1.5,43,162.2
1031,E5,105.5,1.5,43,162.2
1032,A4,105.5,1.5,43,162.2
1033,C#2,105.5,0.25,36,162.2
1034,C#3,105.5,0.25,36,162.2
1035,D3,105.75,0.25,35,162.2
1036,D2,105.75,0.25,35,162.2
1037,E3,106.0,0.25,37,162.2
1038,E2,106.0,0.25,37,162.2
1039,F3,106.25,0.25,35,162.2
1040,F2,106.25,0.25,35,162.2
1041,G3,106.5,0.25,37,162.2
1042,G2,106.5,0.25,37,162.2
1043,A3,106.75,0.25,39,162.2
1044,A2,106.75,0.25,39,162.2
1045,A3,107.0,0.5,39,162.2
1046,E4,107.0,0.5,39,162.2
1047,G4,107.0,0.5,39,162.2
1048,A4,107.0,0.5,39,162.2
1049,B-3,107.0,0.25,42,162.2
1050,B-2,107.0,0.25,42,162.2
1051,C#3,107.25,0.25,45,162.2
1052,C#4,107.25,0.25,45,162.2
1053,A4,107.5,1.0,40,162.2
1054,A3,107.5,1.5,40,162.2
1055,E4,107.5,1.5,40,162.2
1056,G4,107.5,1.5,40,162.2
1057,C#4,107.5,0.25,46,162.2
1058,C#3,107.5,0.25,46,162.2
1059,B-3,107.75,0.25,47,162.2
1060,B-2,107.75,0.25,47,162.2
1061,A3,108.0,0.25,47,162.2
1062,A2,108.0,0.25,47,162.2
1063,G3,108.25,0.25,47,162.2
1064,G2,108.25,0.25,47,162.2
1065,A4,108.375,0.625,49,162.2
1066,A5,108.375,0.125,54,162.2
1067,A4,108.5,0.5,54,162.2
1068,A5,108.5,1.0,54,162.2
1069,F3,108.5,0.25,46,162.2
1070,F2,108.5,0.25,46,162.2
1071,E3,108.75,0.25,46,162.2
1072,E2,108.75,0.25,46,162.2
1073,A3,109.0,0.5,45,162.2
1074,E4,109.0,0.5,45,162.2
1075,G4,109.0,0.5,45,162.2
1076,A4,109.0,0.5,45,162.2
1077,D3,109.0,0.25,46,162.2
1078,D2,109.0,0.25,46,162.2
1079,C#3,109.25,0.25,45,162.2
1080,C#2,109.25,0.25,45,162.2
1081,B-4,109.5,1.5,50,162.2
1082,A4,109.5,1.5,50,162.2
1083,F4,109.5,1.5,50,162.2
1084,B-3,109.5,1.5,50,162.2
1085,D2,109.5,0.25,53,162.2
1086,D3,109.5,0.25,53,162.2
1087,E3,109.75,0.25,51,162.2
1088,E2,109.75,0.25,51,162.2
1089,F3,110.0,0.25,53,162.2
1090,F2,110.0,0.25,53,162.2
1091,G3,110.25,0.25,47,162.2
1092,G2,110.25,0.25,47,162.2
1093,A5,110.375,0.125,63,162.2
1094,A6,110.375,0.125,63,162.2
1095,A5,110.5,1.0,66,162.2
1096,A6,110.5,1.0,66,162.2
1097,A3,110.5,0.25,51,162.2
1098,A2,110.5,0.25,51,162.2
1099,B-3,110.75,0.25,53,162.2
1100,B-2,110.75,0.25,53,162.2
1101,A4,111.0,0.5,51,162.2
1102,B-3,111.0,0.5,51,162.2
1103,F4,111.0,0.5,51,162.2
1104,B-4,111.0,0.5,51,162.2
1105,C#4,111.0,0.25,54,162.2
1106,C#3,111.0,0.25,54,162.2
1107,D3,111.25,0.25,56,162.2
1108,D4,111.25,0.25,56,162.2
1109,A4,111.5,1.0,51,162.2
1110,B3,111.5,1.5,51,162.2
1111,F#4,111.5,1.5,51,162.2
1112,B4,111.5,1.5,51,162.2
1113,E-4,111.5,0.25,59,162.2
1114,E-3,111.5,0.25,59,162.2
1115,C4,111.75,0.25,57,162.2
1116,C3,111.75,0.25,57,162.2
1117,B3,112.0,0.25,56,162.2
1118,B2,112.0,0.25,56,162.2
1119,A3,112.25,0.25,55,162.2
1120,A2,112.25,0.25,55,162.2
1121,A4,112.375,0.625,57,162.2
1122,A5,112.375,0.125,63,162.2
1123,A4,112.5,0.5,63,162.2
1124,A5,112.5,1.0,63,162.2
1125,G3,112.5,0.25,54,162.2
1126,G2,112.5,0.25,54,162.2
1127,F#3,112.75,0.25,53,162.2
1128,F#2,112.75,0.25,53,162.2
1129,B3,113.0,0.5,51,162.2
1130,F#4,113.0,0.5,51,162.2
1131,A4,113.0,0.5,51,162.2
1132,B4,113.0,0.5,51,162.2
1133,E3,113.0,0.25,52,162.2
1134,E2,113.0,0.25,52,162.2
1135,E-3,113.25,0.25,50,162.2
1136,E-2,113.25,0.25,50,162.2
1137,C5,113.5,1.5,56,162.2
1138,A4,113.5,1.5,56,162.2
1139,C4,113.5,1.5,56,162.2
1140,E2,113.5,0.25,58,162.2
1141,E3,113.5,0.25,58,162.2
1142,F#3,113.75,0.25,56,162.2
1143,F#2,113.75,0.25,56,162.2
1144,G#3,114.0,0.25,58,162.2
1145,G#2,114.0,0.25,58,162.2
1146,A3,114.25,0.25,53,162.2
1147,A2,114.25,0.25,53,162.2
1148,A5,114.375,0.125,70,162.2
1149,A6,114.375,0.125,70,162.2
1150,A5,114.5,1.0,73,162.2
1151,A6,114.5,1.0,73,162.2
1152,B3,114.5,0.25,56,162.2
1153,B2,114.5,0.25,56,162.2
1154,C4,114.75,0.25,58,162.2
1155,C3,114.75,0.25,58,162.2
1156,A4,115.0,0.5,56,162.2
1157,C4,115.0,0.5,56,162.2
1158,C5,115.0,0.5,56,162.2
1159,D4,115.0,0.25,61,162.2
1160,D3,115.0,0.25,61,162.2
1161,E3,115.25,0.25,63,162.2
1162,E4,115.25,0.25,63,162.2
1163,A4,115.5,1.0,56,162.2
1164,G4,115.5,1.5,56,162.2
1165,C#4,115.5,1.5,56,162.2
1166,C#5,115.5,1.5,56,162.2
1167,E4,115.5,0.25,65,162.2
1168,E3,115.5,0.25,65,162.2
1169,D4,115.75,0.25,63,162.2
1170,D3,115.75,0.25,63,162.2
1171,C#4,116.0,0.25,63,162.2
1172,C#3,116.0,0.25,63,162.2
1173,B-3,116.25,0.25,62,162.2
1174,B-2,116.25,0.25,62,162.2
1175,A4,116.375,0.625,63,162.2
1176,A5,116.375,0.125,71,162.2
1177,A4,116.5,0.5,71,162.2
1178,A5,116.5,1.0,71,162.2
1179,A3,116.5,0.25,60,162.2
1180,A2,116.5,0.25,60,162.2
1181,G3,116.75,0.25,58,162.2
1182,G2,116.75,0.25,58,162.2
1183,C#4,117.0,0.5,56,162.2
1184,G4,117.0,0.5,56,162.2
1185,A4,117.0,0.5,56,162.2
1186,C#5,117.0,0.5,56,162.2
1187,F3,117.0,0.25,57,162.2
1188,F2,117.0,0.25,57,162.2
1189,E3,117.25,0.25,55,162.2
1190,E2,117.25,0.25,55,162.2
1191,F2,117.5,62/125,32,162.2
1192,D5,117.5,0.25,33,162.2
1193,D4,117.5,0.25,33,162.2
1194,B-4,117.5,0.25,33,162.2
1195,F3,117.5,1.938,34,162.2
1196,B-2,117.5,1.938,34,162.2
1197,D3,117.5,1.938,34,162.2
1198,E-5,117.75,0.25,34,162.2
1199,E-4,117.75,0.25,34,162.2
1200,C5,117.75,0.25,34,162.2
1201,F5,118.0,0.25,36,162.2
1202,F4,118.0,0.25,36,162.2
1203,D5,118.0,0.25,36,162.2
1204,D2,118.0,0.062,25,162.2
1205,F1,118.0,0.062,25,162.2
1206,B-1,118.0,0.062,25,162.2
1207,F2,118.062,0.062,28,162.2
1208,D2,118.125,0.062,26,162.2
1209,F1,118.125,0.062,26,162.2
1210,B-1,118.125,0.062,26,162.2
1211,F2,118.188,0.062,29,162.2
1212,E-5,118.25,0.25,41,162.2
1213,G5,118.25,0.25,41,162.2
1214,G4,118.25,0.25,41,162.2
1215,D2,118.25,0.062,26,162.2
1216,F1,118.25,0.062,26,162.2
1217,B-1,118.25,0.062,26,162.2
1218,F2,118.312,0.062,29,162.2
1219,D2,118.375,0.062,27,162.2
1220,F1,118.375,0.062,27,162.2
1221,B-1,118.375,0.062,27,162.2
1222,F2,118.438,0.062,30,162.2
1223,A5,118.5,0.25,40,162.2
1224,A4,118.5,0.25,40,162.2
1225,F5,118.5,0.25,40,162.2
1226,D2,118.5,0.062,27,162.2
1227,F1,118.5,0.062,27,162.2
1228,B-1,118.5,0.062,27,162.2
1229,F2,118.562,0.062,30,162.2
1230,D2,118.625,0.062,28,162.2
1231,F1,118.625,0.062,28,162.2
1232,B-1,118.625,0.062,28,162.2
1233,F2,118.688,0.062,32,162.2
1234,B-5,118.75,0.25,43,162.2
1235,B-4,118.75,0.25,43,162.2
1236,G5,118.75,0.25,43,162.2
1237,D2,118.75,0.062,29,162.2
1238,F1,118.75,0.062,29,162.2
1239,B-1,118.75,0.062,29,162.2
1240,F2,118.812,0.062,33,162.2
1241,D2,118.875,0.062,29,162.2
1242,F1,118.875,0.062,29,162.2
1243,B-1,118.875,0.062,29,162.2
1244,F2,118.938,0.062,33,162.2
1245,C6,119.0,0.25,46,162.2
1246,C5,119.0,0.25,46,162.2
1247,A5,119.0,0.25,46,162.2
1248,D2,119.0,0.062,30,162.2
1249,F1,119.0,0.062,30,162.2
1250,B-1,119.0,0.062,30,162.2
1251,F2,119.062,0.062,34,162.2
1252,D2,119.125,0.062,30,162.2
1253,F1,119.125,0.062,30,162.2
1254,B-1,119.125,0.062,30,162.2
1255,F2,119.188,0.062,34,162.2
1256,D6,119.25,0.25,48,162.2
1257,D5,119.25,0.25,48,162.2
1258,B-5,119.25,0.25,48,162.2
1259,D2,119.25,0.062,31,162.2
1260,F1,119.25,0.062,31,162.2
1261,B-1,119.25,0.062,31,162.2
1262,F2,119.312,0.062,36,162.2
1263,D2,119.375,0.062,31,162.2
1264,F1,119.375,0.062,31,162.2
1265,B-1,119.375,0.062,31,162.2
1266,F2,119.438,277/500,51,162.2
1267,F2,119.438,29/500,36,162.2
1268,B-2,119.458,2.0,54,162.2
1269,D3,119.458,2.0,54,162.2
1270,B-3,119.458,2.0,54,162.2
1271,D6,119.5,0.25,45,162.2
1272,D5,119.5,0.25,45,162.2
1273,B-5,119.5,0.25,45,162.2
1274,C6,119.75,0.25,52,162.2
1275,C5,119.75,0.25,52,162.2
1276,A5,119.75,0.25,52,162.2
1277,B-5,120.0,0.25,52,162.2
1278,B-4,120.0,0.25,52,162.2
1279,G5,120.0,0.25,52,162.2
1280,D2,120.0,0.062,32,162.2
1281,F1,120.0,0.062,32,162.2
1282,B-1,120.0,0.062,32,162.2
1283,F2,120.062,0.062,36,162.2
1284,D2,120.125,0.062,33,162.2
1285,F1,120.125,0.062,33,162.2
1286,B-1,120.125,0.062,33,162.2
1287,F2,120.188,0.062,36,162.2
1288,A5,120.25,0.25,52,162.2
1289,A4,120.25,0.25,52,162.2
1290,F5,120.25,0.25,52,162.2
1291,D2,120.25,0.062,33,162.2
1292,F1,120.25,0.062,33,162.2
1293,B-1,120.25,0.062,33,162.2
1294,F2,120.312,0.062,36,162.2
1295,D2,120.375,0.062,33,162.2
1296,F1,120.375,0.062,33,162.2
1297,B-1,120.375,0.062,33,162.2
1298,F2,120.438,0.062,37,162.2
1299,G5,120.5,0.25,53,162.2
1300,G4,120.5,0.25,53,162.2
1301,E-5,120.5,0.25,53,162.2
1302,D2,120.5,0.062,33,162.2
1303,F1,120.5,0.062,33,162.2
1304,B-1,120.5,0.062,33,162.2
1305,F2,120.562,0.062,37,162.2
1306,D2,120.625,0.062,33,162.2
1307,F1,120.625,0.062,33,162.2
1308,B-1,120.625,0.062,33,162.2
1309,F2,120.688,0.062,37,162.2
1310,F5,120.75,0.25,53,162.2
1311,F4,120.75,0.25,53,162.2
1312,D5,120.75,0.25,53,162.2
1313,D2,120.75,0.062,34,162.2
1314,F1,120.75,0.062,34,162.2
1315,B-1,120.75,0.062,34,162.2
1316,F2,120.812,0.062,37,162.2
1317,D2,120.875,0.062,34,162.2
1318,F1,120.875,0.062,34,162.2
1319,B-1,120.875,0.062,34,162.2
1320,F2,120.938,0.062,37,162.2
1321,E-5,121.0,0.25,53,162.2
1322,E-4,121.0,0.25,53,162.2
1323,C5,121.0,0.25,53,162.2
1324,D2,121.0,0.062,34,162.2
1325,F1,121.0,0.062,34,162.2
1326,B-1,121.0,0.062,34,162.2
1327,F2,121.062,0.062,38,162.2
1328,D2,121.125,0.062,34,162.2
1329,F1,121.125,0.062,34,162.2
1330,B-1,121.125,0.062,34,162.2
1331,F2,121.188,0.062,38,162.2
1332,D5,121.25,0.25,53,162.2
1333,D4,121.25,0.25,53,162.2
1334,B-4,121.25,0.25,53,162.2
1335,D2,121.25,0.062,34,162.2
1336,F1,121.25,0.062,34,162.2
1337,B-1,121.25,0.062,34,162.2
1338,F2,121.312,0.062,38,162.2
1339,D2,121.375,0.062,34,162.2
1340,F1,121.375,0.062,34,162.2
1341,B-1,121.375,0.062,34,162.2
1342,F2,121.438,0.062,54,162.2
1343,F2,121.438,29/500,34,162.2
1344,C3,121.458,21/500,57,162.2
1345,E-3,121.458,21/500,57,162.2
1346,G#3,121.458,21/500,57,162.2
1347,F2,121.5,62/125,54,162.2
1348,E-5,121.5,0.25,50,162.2
1349,E-4,121.5,0.25,50,162.2
1350,C5,121.5,0.25,50,162.2
1351,C3,121.5,237/125,57,162.2
1352,E-3,121.5,237/125,57,162.2
1353,G#3,121.5,237/125,57,162.2
1354,F5,121.75,0.25,51,162.2
1355,F4,121.75,0.25,51,162.2
1356,D5,121.75,0.25,51,162.2
1357,G5,122.0,0.25,52,162.2
1358,G4,122.0,0.25,52,162.2
1359,E-5,122.0,0.25,52,162.2
1360,E-2,122.0,0.062,30,162.2
1361,F1,122.0,0.062,30,162.2
1362,A1,122.0,0.062,30,162.2
1363,F2,122.062,0.062,34,162.2
1364,E-2,122.125,0.062,30,162.2
1365,F1,122.125,0.062,30,162.2
1366,A1,122.125,0.062,30,162.2
1367,F2,122.188,0.062,34,162.2
1368,A5,122.25,0.25,53,162.2
1369,F5,122.25,0.25,53,162.2
1370,A4,122.25,0.25,53,162.2
1371,E-2,122.25,0.062,30,162.2
1372,F1,122.25,0.062,30,162.2
1373,A1,122.25,0.062,30,162.2
1374,F2,122.312,0.062,34,162.2
1375,E-2,122.375,0.062,30,162.2
1376,F1,122.375,0.062,30,162.2
1377,A1,122.375,0.062,30,162.2
1378,F2,122.438,0.062,34,162.2
1379,B-5,122.5,0.25,54,162.2
1380,B-4,122.5,0.25,54,162.2
1381,G5,122.5,0.25,54,162.2
1382,E-2,122.5,0.062,34,162.2
1383,F1,122.5,0.062,34,162.2
1384,A1,122.5,0.062,34,162.2
1385,F2,122.562,0.062,38,162.2
1386,E-2,122.625,0.062,34,162.2
1387,F1,122.625,0.062,34,162.2
1388,A1,122.625,0.062,34,162.2
1389,F2,122.688,0.062,38,162.2
1390,C6,122.75,0.25,55,162.2
1391,C5,122.75,0.25,55,162.2
1392,A5,122.75,0.25,55,162.2
1393,E-2,122.75,0.062,34,162.2
1394,F1,122.75,0.062,34,162.2
1395,A1,122.75,0.062,34,162.2
1396,F2,122.812,0.062,39,162.2
1397,E-2,122.875,0.062,35,162.2
1398,F1,122.875,0.062,35,162.2
1399,A1,122.875,0.062,35,162.2
1400,F2,122.938,0.062,39,162.2
1401,D6,123.0,0.25,57,162.2
1402,D5,123.0,0.25,57,162.2
1403,B-5,123.0,0.25,57,162.2
1404,E-2,123.0,0.062,35,162.2
1405,F1,123.0,0.062,35,162.2
1406,A1,123.0,0.062,35,162.2
1407,F2,123.062,0.062,39,162.2
1408,E-2,123.125,0.062,35,162.2
1409,F1,123.125,0.062,35,162.2
1410,A1,123.125,0.062,35,162.2
1411,F2,123.188,0.062,39,162.2
1412,E-6,123.25,0.25,57,162.2
1413,E-5,123.25,0.25,57,162.2
1414,C6,123.25,0.25,57,162.2
1415,E-2,123.25,0.062,35,162.2
1416,F1,123.25,0.062,35,162.2
1417,A1,123.25,0.062,35,162.2
1418,F2,123.312,0.062,39,162.2
1419,E-2,123.375,0.062,35,162.2
1420,F1,123.375,0.062,35,162.2
1421,A1,123.375,0.062,35,162.2
1422,F2,123.438,0.062,39,162.2
1423,E-6,123.5,0.25,61,162.2
1424,E-5,123.5,0.25,61,162.2
1425,C6,123.5,0.25,61,162.2
1426,F1,123.5,0.125,37,162.2
1427,A1,123.5,0.125,37,162.2
1428,E-2,123.5,0.125,37,162.2
1429,F2,123.625,0.125,40,162.2
1430,F#1,123.75,0.125,40,162.2
1431,D6,123.75,0.25,59,162.2
1432,D5,123.75,0.25,59,162.2
1433,B-5,123.75,0.25,59,162.2
1434,F2,123.875,0.125,40,162.2
1435,G1,124.0,0.125,40,162.2
1436,C6,124.0,0.25,60,162.2
1437,C5,124.0,0.25,60,162.2
1438,A5,124.0,0.25,60,162.2
1439,F2,124.125,0.125,40,162.2
1440,G#1,124.25,0.125,40,162.2
1441,B-5,124.25,0.25,62,162.2
1442,B-4,124.25,0.25,62,162.2
1443,G5,124.25,0.25,62,162.2
1444,F2,124.375,0.125,41,162.2
1445,A1,124.5,0.125,41,162.2
1446,A5,124.5,0.25,63,162.2
1447,A4,124.5,0.25,63,162.2
1448,F5,124.5,0.25,63,162.2
1449,F2,124.625,0.125,41,162.2
1450,B-1,124.75,0.125,41,162.2
1451,G5,124.75,0.25,65,162.2
1452,G4,124.75,0.25,65,162.2
1453,E-5,124.75,0.25,65,162.2
1454,F2,124.875,0.125,42,162.2
1455,B1,125.0,0.125,42,162.2
1456,F5,125.0,0.25,65,162.2
1457,F4,125.0,0.25,65,162.2
1458,D5,125.0,0.25,65,162.2
1459,F2,125.125,0.125,42,162.2
1460,C2,125.25,0.125,42,162.2
1461,E-5,125.25,0.25,66,162.2
1462,E-4,125.25,0.25,66,162.2
1463,C5,125.25,0.25,66,162.2
1464,F2,125.375,121/1000,42,162.2
1465,F#2,125.5,62/125,32,162.2
1466,E-5,125.5,0.25,33,162.2
1467,E-4,125.5,0.25,33,162.2
1468,B4,125.5,0.25,33,162.2
1469,F#3,125.5,1.938,34,162.2
1470,B2,125.5,1.938,34,162.2
1471,E-3,125.5,1.938,34,162.2
1472,E5,125.75,0.25,34,162.2
1473,E4,125.75,0.25,34,162.2
1474,C#5,125.75,0.25,34,162.2
1475,F#5,126.0,0.25,36,162.2
1476,F#4,126.0,0.25,36,162.2
1477,E-5,126.0,0.25,36,162.2
1478,E-2,126.0,0.062,25,162.2
1479,F#1,126.0,0.062,25,162.2
1480,B1,126.0,0.062,25,162.2
1481,F#2,126.062,0.062,28,162.2
1482,E-2,126.125,0.062,26,162.2
1483,F#1,126.125,0.062,26,162.2
1484,B1,126.125,0.062,26,162.2
1485,F#2,126.188,0.062,29,162.2
1486,E5,126.25,0.25,41,162.2
1487,G#5,126.25,0.25,41,162.2
1488,G#4,126.25,0.25,41,162.2
1489,E-2,126.25,0.062,26,162.2
1490,F#1,126.25,0.062,26,162.2
1491,B1,126.25,0.062,26,162.2
1492,F#2,126.312,0.062,29,162.2
1493,E-2,126.375,0.062,27,162.2
1494,F#1,126.375,0.062,27,162.2
1495,B1,126.375,0.062,27,162.2
1496,F#2,126.438,0.062,30,162.2
1497,B-5,126.5,0.25,40,162.2
1498,B-4,126.5,0.25,40,162.2
1499,F#5,126.5,0.25,40,162.2
1500,E-2,126.5,0.062,27,162.2
1501,F#1,126.5,0.062,27,162.2
1502,B1,126.5,0.062,27,162.2
1503,F#2,126.562,0.062,30,162.2
1504,E-2,126.625,0.062,28,162.2
1505,F#1,126.625,0.062,28,162.2
1506,B1,126.625,0.062,28,162.2
1507,F#2,126.688,0.062,32,162.2
1508,B5,126.75,0.25,43,162.2
1509,B4,126.75,0.25,43,162.2
1510,G#5,126.75,0.25,43,162.2
1511,E-2,126.75,0.062,29,162.2
1512,F#1,126.75,0.062,29,162.2
1513,B1,126.75,0.062,29,162.2
1514,F#2,126.812,0.062,33,162.2
1515,E-2,126.875,0.062,29,162.2
1516,F#1,126.875,0.062,29,162.2
1517,B1,126.875,0.062,29,162.2
1518,F#2,126.938,0.062,33,162.2
1519,C#6,127.0,0.25,46,162.2
1520,C#5,127.0,0.25,46,162.2
1521,B-5,127.0,0.25,46,162.2
1522,E-2,127.0,0.062,30,162.2
1523,F#1,127.0,0.062,30,162.2
1524,B1,127.0,0.062,30,162.2
1525,F#2,127.062,0.062,34,162.2
1526,E-2,127.125,0.062,30,162.2
1527,F#1,127.125,0.062,30,162.2
1528,B1,127.125,0.062,30,162.2
1529,F#2,127.188,0.062,34,162.2
1530,E-6,127.25,0.25,48,162.2
1531,E-5,127.25,0.25,48,162.2
1532,B5,127.25,0.25,48,162.2
1533,E-2,127.25,0.062,31,162.2
1534,F#1,127.25,0.062,31,162.2
1535,B1,127.25,0.062,31,162.2
1536,F#2,127.312,0.062,36,162.2
1537,E-2,127.375,0.062,31,162.2
1538,F#1,127.375,0.062,31,162.2
1539,B1,127.375,0.062,31,162.2
1540,F#2,127.438,277/500,51,162.2
1541,F#2,127.438,29/500,36,162.2
1542,B2,127.458,2.0,54,162.2
1543,E-3,127.458,2.0,54,162.2
1544,B3,127.458,2.0,54,162.2
1545,E-6,127.5,0.25,45,162.2
1546,E-5,127.5,0.25,45,162.2
1547,B5,127.5,0.25,45,162.2
1548,C#6,127.75,0.25,52,162.2
1549,C#5,127.75,0.25,52,162.2
1550,B-5,127.75,0.25,52,162.2
1551,B5,128.0,0.25,52,162.2
1552,B4,128.0,0.25,52,162.2
1553,G#5,128.0,0.25,52,162.2
1554,E-2,128.0,0.062,32,162.2
1555,F#1,128.0,0.062,32,162.2
1556,B1,128.0,0.062,32,162.2
1557,F#2,128.062,0.062,36,162.2
1558,E-2,128.125,0.062,33,162.2
1559,F#1,128.125,0.062,33,162.2
1560,B1,128.125,0.062,33,162.2
1561,F#2,128.188,0.062,36,162.2
1562,B-5,128.25,0.25,52,162.2
1563,B-4,128.25,0.25,52,162.2
1564,F#5,128.25,0.25,52,162.2
1565,E-2,128.25,0.062,33,162.2
1566,F#1,128.25,0.062,33,162.2
1567,B1,128.25,0.062,33,162.2
1568,F#2,128.312,0.062,36,162.2
1569,E-2,128.375,0.062,33,162.2
1570,F#1,128.375,0.062,33,162.2
1571,B1,128.375,0.062,33,162.2
1572,F#2,128.438,0.062,37,162.2
1573,G#5,128.5,0.25,53,162.2
1574,G#4,128.5,0.25,53,162.2
1575,E5,128.5,0.25,53,162.2
1576,E-2,128.5,0.062,33,162.2
1577,F#1,128.5,0.062,33,162.2
1578,B1,128.5,0.062,33,162.2
1579,F#2,128.562,0.062,37,162.2
1580,E-2,128.625,0.062,33,162.2
1581,F#1,128.625,0.062,33,162.2
1582,B1,128.625,0.062,33,162.2
1583,F#2,128.688,0.062,37,162.2
1584,F#5,128.75,0.25,53,162.2
1585,F#4,128.75,0.25,53,162.2
1586,E-5,128.75,0.25,53,162.2
1587,E-2,128.75,0.062,34,162.2
1588,F#1,128.75,0.062,34,162.2
1589,B1,128.75,0.062,34,162.2
1590,F#2,128.812,0.062,37,162.2
1591,E-2,128.875,0.062,34,162.2
1592,F#1,128.875,0.062,34,162.2
1593,B1,128.875,0.062,34,162.2
1594,F#2,128.938,0.062,37,162.2
1595,E5,129.0,0.25,53,162.2
1596,E4,129.0,0.25,53,162.2
1597,C#5,129.0,0.25,53,162.2
1598,E-2,129.0,0.062,34,162.2
1599,F#1,129.0,0.062,34,162.2
1600,B1,129.0,0.062,34,162.2
1601,F#2,129.062,0.062,38,162.2
1602,E-2,129.125,0.062,34,162.2
1603,F#1,129.125,0.062,34,162.2
1604,B1,129.125,0.062,34,162.2
1605,F#2,129.188,0.062,38,162.2
1606,E-5,129.25,0.25,53,162.2
1607,E-4,129.25,0.25,53,162.2
1608,B4,129.25,0.25,53,162.2
1609,E-2,129.25,0.062,34,162.2
1610,F#1,129.25,0.062,34,162.2
1611,B1,129.25,0.062,34,162.2
1612,F#2,129.312,0.062,38,162.2
1613,E-2,129.375,0.062,34,162.2
1614,F#1,129.375,0.062,34,162.2
1615,B1,129.375,0.062,34,162.2
1616,F#2,129.438,0.062,54,162.2
1617,F#2,129.438,29/500,34,162.2
1618,C#3,129.458,21/500,57,162.2
1619,E3,129.458,21/500,57,162.2
1620,A3,129.458,21/500,57,162.2
1621,F#2,129.5,62/125,54,162.2
1622,E5,129.5,0.25,50,162.2
1623,E4,129.5,0.25,50,162.2
1624,C#5,129.5,0.25,50,162.2
1625,C#3,129.5,237/125,57,162.2
1626,E3,129.5,237/125,57,162.2
1627,A3,129.5,237/125,57,162.2
1628,F#5,129.75,0.25,51,162.2
1629,F#4,129.75,0.25,51,162.2
1630,E-5,129.75,0.25,51,162.2
1631,G#5,130.0,0.25,52,162.2
1632,G#4,130.0,0.25,52,162.2
1633,E5,130.0,0.25,52,162.2
1634,E2,130.0,0.062,30,162.2
1635,F#1,130.0,0.062,30,162.2
1636,B-1,130.0,0.062,30,162.2
1637,F#2,130.062,0.062,34,162.2
1638,E2,130.125,0.062,30,162.2
1639,F#1,130.125,0.062,30,162.2
1640,B-1,130.125,0.062,30,162.2
1641,F#2,130.188,0.062,34,162.2
1642,B-5,130.25,0.25,53,162.2
1643,F#5,130.25,0.25,53,162.2
1644,B-4,130.25,0.25,53,162.2
1645,E2,130.25,0.062,30,162.2
1646,F#1,130.25,0.062,30,162.2
1647,B-1,130.25,0.062,30,162.2
1648,F#2,130.312,0.062,34,162.2
1649,E2,130.375,0.062,30,162.2
1650,F#1,130.375,0.062,30,162.2
1651,B-1,130.375,0.062,30,162.2
1652,F#2,130.438,0.062,34,162.2
1653,B5,130.5,0.25,54,162.2
1654,B4,130.5,0.25,54,162.2
1655,G#5,130.5,0.25,54,162.2
1656,E2,130.5,0.062,34,162.2
1657,F#1,130.5,0.062,34,162.2
1658,B-1,130.5,0.062,34,162.2
1659,F#2,130.562,0.062,38,162.2
1660,E2,130.625,0.062,34,162.2
1661,F#1,130.625,0.062,34,162.2
1662,B-1,130.625,0.062,34,162.2
1663,F#2,130.688,0.062,38,162.2
1664,C#6,130.75,0.25,55,162.2
1665,C#5,130.75,0.25,55,162.2
1666,B-5,130.75,0.25,55,162.2
1667,E2,130.75,0.062,34,162.2
1668,F#1,130.75,0.062,34,162.2
1669,B-1,130.75,0.062,34,162.2
1670,F#2,130.812,0.062,39,162.2
1671,E2,130.875,0.062,35,162.2
1672,F#1,130.875,0.062,35,162.2
1673,B-1,130.875,0.062,35,162.2
1674,F#2,130.938,0.062,39,162.2
1675,E-6,131.0,0.25,57,162.2
1676,E-5,131.0,0.25,57,162.2
1677,B5,131.0,0.25,57,162.2
1678,E2,131.0,0.062,35,162.2
1679,F#1,131.0,0.062,35,162.2
1680,B-1,131.0,0.062,35,162.2
1681,F#2,131.062,0.062,39,162.2
1682,E2,131.125,0.062,35,162.2
1683,F#1,131.125,0.062,35,162.2
1684,B-1,131.125,0.062,35,162.2
1685,F#2,131.188,0.062,39,162.2
1686,E6,131.25,0.25,57,162.2
1687,E5,131.25,0.25,57,162.2
1688,C#6,131.25,0.25,57,162.2
1689,E2,131.25,0.062,35,162.2
1690,F#1,131.25,0.062,35,162.2
1691,B-1,131.25,0.062,35,162.2
1692,F#2,131.312,0.062,39,162.2
1693,E2,131.375,0.062,35,162.2
1694,F#1,131.375,0.062,35,162.2
1695,B-1,131.375,0.062,35,162.2
1696,F#2,131.438,0.062,39,162.2
1697,E6,131.5,0.25,61,162.2
1698,E5,131.5,0.25,61,162.2
1699,C#6,131.5,0.25,61,162.2
1700,F#1,131.5,0.125,37,162.2
1701,B-1,131.5,0.125,37,162.2
1702,E2,131.5,0.125,37,162.2
1703,F#2,131.625,0.125,40,162.2
1704,G1,131.75,0.125,40,162.2
1705,E-6,131.75,0.25,59,162.2
1706,E-5,131.75,0.25,59,162.2
1707,B5,131.75,0.25,59,162.2
1708,F#2,131.875,0.125,40,162.2
1709,G#1,132.0,0.125,40,162.2
1710,C#6,132.0,0.25,60,162.2
1711,C#5,132.0,0.25,60,162.2
1712,B-5,132.0,0.25,60,162.2
1713,F#2,132.125,0.125,40,162.2
1714,A1,132.25,0.125,40,162.2
1715,B5,132.25,0.25,62,162.2
1716,B4,132.25,0.25,62,162.2
1717,G#5,132.25,0.25,62,162.2
1718,F#2,132.375,0.125,41,162.2
1719,B-1,132.5,0.125,41,162.2
1720,B-5,132.5,0.25,63,162.2
1721,B-4,132.5,0.25,63,162.2
1722,F#5,132.5,0.25,63,162.2
1723,F#2,132.625,0.125,41,162.2
1724,B1,132.75,0.125,41,162.2
1725,G#5,132.75,0.25,65,162.2
1726,G#4,132.75,0.25,65,162.2
1727,E5,132.75,0.25,65,162.2
1728,F#2,132.875,0.125,42,162.2
1729,C2,133.0,0.125,42,162.2
1730,F#5,133.0,0.25,65,162.2
1731,F#4,133.0,0.25,65,162.2
1732,E-5,133.0,0.25,65,162.2
1733,F#2,133.125,0.125,42,162.2
1734,C#2,133.25,0.125,42,162.2
1735,E5,133.25,0.25,66,162.2
1736,E4,133.25,0.25,66,162.2
1737,C#5,133.25,0.25,66,162.2
1738,F#2,133.375,0.125,42,162.2
1739,G2,133.438,0.062,58,162.2
1740,C#3,133.458,21/500,61,162.2
1741,E3,133.458,21/500,61,162.2
1742,B-3,133.458,21/500,61,162.2
1743,G2,133.5,62/125,58,162.2
1744,E5,133.5,0.25,61,162.2
1745,C#5,133.5,0.25,61,162.2
1746,E4,133.5,0.25,61,162.2
1747,B-4,133.5,0.25,61,162.2
1748,C#3,133.5,237/125,61,162.2
1749,E3,133.5,237/125,61,162.2
1750,B-3,133.5,237/125,61,162.2
1751,F5,133.75,0.25,64,162.2
1752,F4,133.75,0.25,64,162.2
1753,G5,134.0,0.25,66,162.2
1754,G4,134.0,0.25,66,162.2
1755,E2,134.0,0.062,37,162.2
1756,C#2,134.0,0.062,37,162.2
1757,G1,134.0,0.062,37,162.2
1758,B-1,134.0,0.062,37,162.2
1759,G2,134.062,0.062,41,162.2
1760,E2,134.125,0.062,37,162.2
1761,C#2,134.125,0.062,37,162.2
1762,G1,134.125,0.062,37,162.2
1763,B-1,134.125,0.062,37,162.2
1764,G2,134.188,0.062,42,162.2
1765,G#5,134.25,0.25,66,162.2
1766,G#4,134.25,0.25,66,162.2
1767,E2,134.25,0.062,38,162.2
1768,C#2,134.25,0.062,38,162.2
1769,G1,134.25,0.062,38,162.2
1770,B-1,134.25,0.062,38,162.2
1771,G2,134.312,0.062,43,162.2
1772,E2,134.375,0.062,38,162.2
1773,C#2,134.375,0.062,38,162.2
1774,G1,134.375,0.062,38,162.2
1775,B-1,134.375,0.062,38,162.2
1776,G2,134.438,0.062,44,162.2
1777,B-5,134.5,0.25,66,162.2
1778,B-4,134.5,0.25,66,162.2
1779,E2,134.5,0.062,39,162.2
1780,C#2,134.5,0.062,39,162.2
1781,G1,134.5,0.062,39,162.2
1782,B-1,134.5,0.062,39,162.2
1783,G2,134.562,0.062,45,162.2
1784,E2,134.625,0.062,39,162.2
1785,C#2,134.625,0.062,39,162.2
1786,G1,134.625,0.062,39,162.2
1787,B-1,134.625,0.062,39,162.2
1788,G2,134.688,0.062,46,162.2
1789,C6,134.75,0.25,68,162.2
1790,C5,134.75,0.25,68,162.2
1791,E2,134.75,0.062,40,162.2
1792,C#2,134.75,0.062,40,162.2
1793,G1,134.75,0.062,40,162.2
1794,B-1,134.75,0.062,40,162.2
1795,G2,134.812,0.062,47,162.2
1796,E2,134.875,0.062,41,162.2
1797,C#2,134.875,0.062,41,162.2
1798,G1,134.875,0.062,41,162.2
1799,B-1,134.875,0.062,41,162.2
1800,G2,134.938,0.062,48,162.2
1801,C#6,135.0,0.25,68,162.2
1802,C#5,135.0,0.25,68,162.2
1803,E2,135.0,0.062,42,162.2
1804,C#2,135.0,0.062,42,162.2
1805,G1,135.0,0.062,42,162.2
1806,B-1,135.0,0.062,42,162.2
1807,G2,135.062,0.062,49,162.2
1808,E2,135.125,0.062,42,162.2
1809,C#2,135.125,0.062,42,162.2
1810,G1,135.125,0.062,42,162.2
1811,B-1,135.125,0.062,42,162.2
1812,G2,135.188,0.062,50,162.2
1813,E6,135.25,0.25,69,162.2
1814,E5,135.25,0.25,69,162.2
1815,E2,135.25,0.062,43,162.2
1816,C#2,135.25,0.062,43,162.2
1817,G1,135.25,0.062,43,162.2
1818,B-1,135.25,0.062,43,162.2
1819,G2,135.312,0.062,51,162.2
1820,E2,135.375,0.062,44,162.2
1821,C#2,135.375,0.062,44,162.2
1822,G1,135.375,0.062,44,162.2
1823,B-1,135.375,0.062,44,162.2
1824,G#2,135.438,277/500,59,162.2
1825,G2,135.438,0.062,52,162.2
1826,C3,135.458,1.938,62,162.2
1827,F3,135.458,1.938,62,162.2
1828,G#3,135.458,1.938,62,162.2
1829,F6,135.5,0.25,67,162.2
1830,G#5,135.5,0.25,67,162.2
1831,F5,135.5,0.25,67,162.2
1832,C6,135.5,0.25,67,162.2
1833,E-6,135.75,0.25,70,162.2
1834,E-5,135.75,0.25,70,162.2
1835,C#6,136.0,0.25,69,162.2
1836,C#5,136.0,0.25,69,162.2
1837,F2,136.0,0.062,40,162.2
1838,G#1,136.0,0.062,40,162.2
1839,C2,136.0,0.062,40,162.2
1840,G#2,136.062,0.062,45,162.2
1841,F2,136.125,0.062,40,162.2
1842,G#1,136.125,0.062,40,162.2
1843,C2,136.125,0.062,40,162.2
1844,G#2,136.188,0.062,46,162.2
1845,C6,136.25,0.25,69,162.2
1846,C5,136.25,0.25,69,162.2
1847,F2,136.25,0.062,41,162.2
1848,G#1,136.25,0.062,41,162.2
1849,C2,136.25,0.062,41,162.2
1850,G#2,136.312,0.062,47,162.2
1851,F2,136.375,0.062,42,162.2
1852,G#1,136.375,0.062,42,162.2
1853,C2,136.375,0.062,42,162.2
1854,G#2,136.438,0.062,48,162.2
1855,B-5,136.5,0.25,68,162.2
1856,B-4,136.5,0.25,68,162.2
1857,F2,136.5,0.062,43,162.2
1858,G#1,136.5,0.062,43,162.2
1859,C2,136.5,0.062,43,162.2
1860,G#2,136.562,0.062,49,162.2
1861,F2,136.625,0.062,44,162.2
1862,G#1,136.625,0.062,44,162.2
1863,C2,136.625,0.062,44,162.2
1864,G#2,136.688,0.062,50,162.2
1865,G#5,136.75,0.25,68,162.2
1866,G#4,136.75,0.25,68,162.2
1867,F2,136.75,0.062,45,162.2
1868,G#1,136.75,0.062,45,162.2
1869,C2,136.75,0.062,45,162.2
1870,G#2,136.812,0.062,50,162.2
1871,F2,136.875,0.062,46,162.2
1872,G#1,136.875,0.062,46,162.2
1873,C2,136.875,0.062,46,162.2
1874,G#2,136.938,0.062,51,162.2
1875,G5,137.0,0.25,66,162.2
1876,G4,137.0,0.25,66,162.2
1877,F2,137.0,0.062,47,162.2
1878,G#1,137.0,0.062,47,162.2
1879,C2,137.0,0.062,47,162.2
1880,G#2,137.062,0.062,52,162.2
1881,F2,137.125,0.062,48,162.2
1882,G#1,137.125,0.062,48,162.2
1883,C2,137.125,0.062,48,162.2
1884,G#2,137.188,0.062,53,162.2
1885,F5,137.25,0.25,66,162.2
1886,F4,137.25,0.25,66,162.2
1887,F2,137.25,0.062,48,162.2
1888,G#1,137.25,0.062,48,162.2
1889,C2,137.25,0.062,48,162.2
1890,G#2,137.312,0.062,54,162.2
1891,F2,137.375,0.062,48,162.2
1892,G#1,137.375,0.062,48,162.2
1893,C2,137.375,0.062,48,162.2
1894,A2,137.438,0.062,62,162.2
1895,G#2,137.438,29/500,54,162.2
1896,E-3,137.458,21/500,66,162.2
1897,F#3,137.458,21/500,66,162.2
1898,C4,137.458,21/500,66,162.2
1899,A2,137.5,62/125,62,162.2
1900,F#5,137.5,0.25,64,162.2
1901,E-5,137.5,0.25,64,162.2
1902,F#4,137.5,0.25,64,162.2
1903,C5,137.5,0.25,64,162.2
1904,E-3,137.5,237/125,66,162.2
1905,F#3,137.5,237/125,66,162.2
1906,C4,137.5,237/125,66,162.2
1907,G5,137.75,0.25,66,162.2
1908,G4,137.75,0.25,66,162.2
1909,A5,138.0,0.25,66,162.2
1910,A4,138.0,0.25,66,162.2
1911,F#2,138.0,0.062,37,162.2
1912,E-2,138.0,0.062,37,162.2
1913,A1,138.0,0.062,37,162.2
1914,C2,138.0,0.062,37,162.2
1915,A2,138.062,0.062,41,162.2
1916,F#2,138.125,0.062,38,162.2
1917,E-2,138.125,0.062,38,162.2
1918,A1,138.125,0.062,38,162.2
1919,C2,138.125,0.062,38,162.2
1920,A2,138.188,0.062,43,162.2
1921,B-5,138.25,0.25,66,162.2
1922,B-4,138.25,0.25,66,162.2
1923,F#2,138.25,0.062,40,162.2
1924,E-2,138.25,0.062,40,162.2
1925,A1,138.25,0.062,40,162.2
1926,C2,138.25,0.062,40,162.2
1927,A2,138.312,0.062,45,162.2
1928,F#2,138.375,0.062,42,162.2
1929,E-2,138.375,0.062,42,162.2
1930,A1,138.375,0.062,42,162.2
1931,C2,138.375,0.062,42,162.2
1932,A2,138.438,0.062,46,162.2
1933,C6,138.5,0.25,68,162.2
1934,C5,138.5,0.25,68,162.2
1935,F#2,138.5,0.062,44,162.2
1936,E-2,138.5,0.062,44,162.2
1937,A1,138.5,0.062,44,162.2
1938,C2,138.5,0.062,44,162.2
1939,A2,138.562,0.062,48,162.2
1940,F#2,138.625,0.062,44,162.2
1941,E-2,138.625,0.062,44,162.2
1942,A1,138.625,0.062,44,162.2
1943,C2,138.625,0.062,44,162.2
1944,A2,138.688,0.062,49,162.2
1945,D6,138.75,0.25,69,162.2
1946,D5,138.75,0.25,69,162.2
1947,F#2,138.75,0.062,46,162.2
1948,E-2,138.75,0.062,46,162.2
1949,A1,138.75,0.062,46,162.2
1950,C2,138.75,0.062,46,162.2
1951,A2,138.812,0.062,51,162.2
1952,F#2,138.875,0.062,48,162.2
1953,E-2,138.875,0.062,48,162.2
1954,A1,138.875,0.062,48,162.2
1955,C2,138.875,0.062,48,162.2
1956,A2,138.938,0.062,53,162.2
1957,E-6,139.0,0.25,70,162.2
1958,E-5,139.0,0.25,70,162.2
1959,F#2,139.0,0.062,50,162.2
1960,E-2,139.0,0.062,50,162.2
1961,A1,139.0,0.062,50,162.2
1962,C2,139.0,0.062,50,162.2
1963,A2,139.062,0.062,54,162.2
1964,F#2,139.125,0.062,50,162.2
1965,E-2,139.125,0.062,50,162.2
1966,A1,139.125,0.062,50,162.2
1967,C2,139.125,0.062,50,162.2
1968,A2,139.188,0.062,56,162.2
1969,F#6,139.25,0.25,71,162.2
1970,F#5,139.25,0.25,71,162.2
1971,F#2,139.25,0.062,52,162.2
1972,E-2,139.25,0.062,52,162.2
1973,A1,139.25,0.062,52,162.2
1974,C2,139.25,0.062,52,162.2
1975,A2,139.312,0.062,58,162.2
1976,F#2,139.375,0.062,54,162.2
1977,E-2,139.375,0.062,54,162.2
1978,A1,139.375,0.062,54,162.2
1979,C2,139.375,0.062,54,162.2
1980,B-2,139.438,277/500,65,162.2
1981,A2,139.438,0.062,59,162.2
1982,D3,139.458,1.938,69,162.2
1983,G3,139.458,1.938,69,162.2
1984,B-3,139.458,1.938,69,162.2
1985,G6,139.5,0.25,69,162.2
1986,B-5,139.5,0.25,69,162.2
1987,G5,139.5,0.25,69,162.2
1988,D6,139.5,0.25,69,162.2
1989,F6,139.75,0.25,72,162.2
1990,F5,139.75,0.25,72,162.2
1991,E-6,140.0,0.25,72,162.2
1992,E-5,140.0,0.25,72,162.2
1993,G2,140.0,0.062,37,162.2
1994,B-1,140.0,0.062,37,162.2
1995,D2,140.0,0.062,37,162.2
1996,B-2,140.062,0.062,42,162.2
1997,G2,140.125,0.062,37,162.2
1998,B-1,140.125,0.062,37,162.2
1999,D2,140.125,0.062,37,162.2
2000,B-2,140.188,0.062,43,162.2
2001,D6,140.25,0.25,72,162.2
2002,D5,140.25,0.25,72,162.2
2003,G2,140.25,0.062,39,162.2
2004,B-1,140.25,0.062,39,162.2
2005,D2,140.25,0.062,39,162.2
2006,B-2,140.312,0.062,45,162.2
2007,G2,140.375,0.062,40,162.2
2008,B-1,140.375,0.062,40,162.2
2009,D2,140.375,0.062,40,162.2
2010,B-2,140.438,0.062,45,162.2
2011,C6,140.5,0.25,74,162.2
2012,C5,140.5,0.25,74,162.2
2013,G2,140.5,0.062,41,162.2
2014,B-1,140.5,0.062,41,162.2
2015,D2,140.5,0.062,41,162.2
2016,B-2,140.562,0.062,47,162.2
2017,G2,140.625,0.062,42,162.2
2018,B-1,140.625,0.062,42,162.2
2019,D2,140.625,0.062,42,162.2
2020,B-2,140.688,0.062,48,162.2
2021,B-5,140.75,0.25,74,162.2
2022,B-4,140.75,0.25,74,162.2
2023,G2,140.75,0.062,44,162.2
2024,B-1,140.75,0.062,44,162.2
2025,D2,140.75,0.062,44,162.2
2026,B-2,140.812,0.062,50,162.2
2027,G2,140.875,0.062,45,162.2
2028,B-1,140.875,0.062,45,162.2
2029,D2,140.875,0.062,45,162.2
2030,B-2,140.938,0.062,51,162.2
2031,A5,141.0,0.25,75,162.2
2032,A4,141.0,0.25,75,162.2
2033,G2,141.0,0.062,47,162.2
2034,B-1,141.0,0.062,47,162.2
2035,D2,141.0,0.062,47,162.2
2036,B-2,141.062,0.062,53,162.2
2037,G2,141.125,0.062,48,162.2
2038,B-1,141.125,0.062,48,162.2
2039,D2,141.125,0.062,48,162.2
2040,B-2,141.188,0.062,54,162.2
2041,G5,141.25,0.25,76,162.2
2042,G4,141.25,0.25,76,162.2
2043,G2,141.25,0.062,48,162.2
2044,B-1,141.25,0.062,48,162.2
2045,D2,141.25,0.062,48,162.2
2046,B-2,141.312,0.062,55,162.2
2047,G2,141.375,0.062,49,162.2
2048,B-1,141.375,0.062,49,162.2
2049,D2,141.375,0.062,49,162.2
2050,B-2,141.438,0.062,56,162.2
2051,B2,141.438,0.062,64,162.2
2052,F3,141.438,0.062,64,162.2
2053,G#3,141.438,0.062,64,162.2
2054,D4,141.5,0.938,69,162.2
2055,F5,141.5,0.25,79,162.2
2056,G#5,141.5,0.25,79,162.2
2057,G#4,141.5,0.25,79,162.2
2058,D5,141.5,0.25,79,162.2
2059,B2,141.5,112/125,64,162.2
2060,F3,141.5,112/125,64,162.2
2061,G#3,141.5,112/125,64,162.2
2062,A5,141.75,0.25,76,162.2
2063,A4,141.75,0.25,76,162.2
2064,B-5,142.0,0.25,76,162.2
2065,B-4,142.0,0.25,76,162.2
2066,G#2,142.0,0.25,55,162.2
2067,B1,142.0,0.25,55,162.2
2068,F2,142.0,0.25,55,162.2
2069,B5,142.25,0.25,76,162.2
2070,B4,142.25,0.25,76,162.2
2071,B2,142.438,979/500,63,162.2
2072,F3,142.438,979/500,63,162.2
2073,G#3,142.438,979/500,63,162.2
2074,D4,142.5,1.938,67,162.2
2075,C6,142.5,0.25,78,162.2
2076,C5,142.5,0.25,78,162.2
2077,C#6,142.75,0.25,78,162.2
2078,C#5,142.75,0.25,78,162.2
2079,D6,143.0,0.25,79,162.2
2080,D5,143.0,0.25,79,162.2
2081,G#2,143.0,0.25,54,162.2
2082,B1,143.0,0.25,54,162.2
2083,F2,143.0,0.25,54,162.2
2084,E-6,143.25,0.25,79,162.2
2085,E-5,143.25,0.25,79,162.2
2086,E6,143.5,0.25,79,162.2
2087,E5,143.5,0.25,79,162.2
2088,D3,143.5,0.25,54,162.2
2089,F2,143.5,0.25,54,162.2
2090,G#2,143.5,0.25,54,162.2
2091,F6,143.75,0.25,78,162.2
2092,F5,143.75,0.25,78,162.2
2093,F#6,144.0,0.25,78,162.2
2094,F#5,144.0,0.25,78,162.2
2095,G#2,144.0,0.25,54,162.2
2096,B1,144.0,0.25,54,162.2
2097,F2,144.0,0.25,54,162.2
2098,G6,144.25,0.25,78,162.2
2099,G5,144.25,0.25,78,162.2
2100,B2,144.438,479/500,65,162.2
2101,F3,144.438,479/500,65,162.2
2102,G#3,144.438,479/500,65,162.2
2103,D4,144.5,0.938,68,162.2
2104,G#6,144.5,0.25,79,162.2
2105,G#5,144.5,0.25,79,162.2
2106,A6,144.75,0.25,78,162.2
2107,A5,144.75,0.25,78,162.2
2108,B-6,145.0,0.25,78,162.2
2109,B-5,145.0,0.25,78,162.2
2110,G#2,145.0,0.25,57,162.2
2111,B1,145.0,0.25,57,162.2
2112,F2,145.0,0.25,57,162.2
2113,B6,145.25,0.25,78,162.2
2114,B5,145.25,0.25,78,162.2
2115,B2,145.438,0.062,65,162.2
2116,F3,145.438,0.062,65,162.2
2117,G#3,145.438,0.062,65,162.2
2118,D4,145.5,1479/1000,69,162.2
2119,C7,145.5,0.25,78,162.2
2120,C6,145.5,0.25,78,162.2
2121,B2,145.5,1417/1000,65,162.2
2122,F3,145.5,1417/1000,65,162.2
2123,G#3,145.5,1417/1000,65,162.2
2124,C#7,145.75,0.25,79,162.2
2125,C#6,145.75,0.25,79,162.2
2126,D7,146.0,0.25,80,162.2
2127,D6,146.0,0.25,80,162.2
2128,G#2,146.0,0.25,52,162.2
2129,B1,146.0,0.25,52,162.2
2130,F2,146.0,0.25,52,162.2
2131,E-7,146.25,0.25,80,162.2
2132,E-6,146.25,0.25,80,162.2
2133,E7,146.5,0.25,81,162.2
2134,E6,146.5,0.25,81,162.2
2135,D3,146.5,0.25,57,162.2
2136,F2,146.5,0.25,57,162.2
2137,G#2,146.5,0.25,57,162.2
2138,D7,146.75,0.25,84,162.2
2139,F7,146.75,0.25,84,162.2
2140,F6,146.75,0.25,84,162.2
2141,D7,147.0,0.25,80,162.2
2142,F7,147.0,0.25,80,162.2
2143,F#6,147.0,0.25,80,162.2
2144,G#3,147.0,0.25,63,162.2
2145,B2,147.0,0.25,63,162.2
2146,F3,147.0,0.25,63,162.2
2147,D7,147.25,0.25,81,162.2
2148,F7,147.25,0.25,81,162.2
2149,G6,147.25,0.25,81,162.2
2150,D7,147.5,0.5,86,162.2
2151,F7,147.5,0.5,86,162.2
2152,G#6,147.5,0.5,86,162.2
2153,D4,147.5,0.25,68,162.2
2154,F3,147.5,0.25,68,162.2
2155,G#3,147.5,0.25,68,162.2
2156,A5,149.5,0.25,77,162.2
2157,A4,149.5,0.25,77,162.2
2158,E5,149.5,0.25,77,162.2
2159,C#3,149.5,1.0,66,162.2
2160,G3,149.5,1.0,66,162.2
2161,A3,149.5,1.0,66,162.2
2162,B-5,149.75,0.25,76,162.2
2163,B-4,149.75,0.25,76,162.2
2164,B5,150.0,0.25,76,162.2
2165,B4,150.0,0.25,76,162.2
2166,A2,150.0,0.25,55,162.2
2167,C#2,150.0,0.25,55,162.2
2168,G2,150.0,0.25,55,162.2
2169,C6,150.25,0.25,75,162.2
2170,C5,150.25,0.25,75,162.2
2171,C#6,150.5,0.25,72,162.2
2172,C#5,150.5,0.25,72,162.2
2173,C#3,150.5,2.0,65,162.2
2174,G3,150.5,2.0,65,162.2
2175,A3,150.5,2.0,65,162.2
2176,D6,150.75,0.25,78,162.2
2177,D5,150.75,0.25,78,162.2
2178,E-6,151.0,0.25,79,162.2
2179,E-5,151.0,0.25,79,162.2
2180,A2,151.0,0.25,54,162.2
2181,C#2,151.0,0.25,54,162.2
2182,G2,151.0,0.25,54,162.2
2183,E6,151.25,0.25,79,162.2
2184,E5,151.25,0.25,79,162.2
2185,F6,151.5,0.25,74,162.2
2186,F5,151.5,0.25,74,162.2
2187,E3,151.5,0.25,54,162.2
2188,G2,151.5,0.25,54,162.2
2189,A2,151.5,0.25,54,162.2
2190,F#6,151.75,0.25,78,162.2
2191,F#5,151.75,0.25,78,162.2
2192,G6,152.0,0.25,78,162.2
2193,G5,152.0,0.25,78,162.2
2194,A2,152.0,0.25,54,162.2
2195,C#2,152.0,0.25,54,162.2
2196,G2,152.0,0.25,54,162.2
2197,G#6,152.25,0.25,78,162.2
2198,G#5,152.25,0.25,78,162.2
2199,A6,152.5,0.25,79,162.2
2200,A5,152.5,0.25,79,162.2
2201,C#3,152.5,1.0,66,162.2
2202,G3,152.5,1.0,66,162.2
2203,A3,152.5,1.0,66,162.2
2204,A6,152.75,0.25,78,162.2
2205,B-5,152.75,0.25,78,162.2
2206,A6,153.0,0.25,75,162.2
2207,B5,153.0,0.25,75,162.2
2208,A5,153.0,0.25,75,162.2
2209,A2,153.0,0.25,57,162.2
2210,C#2,153.0,0.25,57,162.2
2211,G2,153.0,0.25,57,162.2
2212,A6,153.25,0.25,75,162.2
2213,C6,153.25,0.25,75,162.2
2214,A5,153.25,0.25,75,162.2
2215,A5,153.5,0.25,76,162.2
2216,A6,153.5,0.25,76,162.2
2217,C#6,153.5,0.25,76,162.2
2218,C#3,153.5,0.938,67,162.2
2219,G3,153.5,0.938,67,162.2
2220,A3,153.5,0.938,67,162.2
2221,A5,153.75,0.25,77,162.2
2222,A6,153.75,0.25,77,162.2
2223,D6,153.75,0.25,77,162.2
2224,A5,154.0,0.25,78,162.2
2225,A6,154.0,0.25,78,162.2
2226,E-6,154.0,0.25,78,162.2
2227,A2,154.0,0.25,52,162.2
2228,C#2,154.0,0.25,52,162.2
2229,G2,154.0,0.25,52,162.2
2230,A5,154.25,0.25,78,162.2
2231,A6,154.25,0.25,78,162.2
2232,E6,154.25,0.25,78,162.2
2233,A5,154.5,0.25,79,162.2
2234,A6,154.5,0.25,79,162.2
2235,F6,154.5,0.25,79,162.2
2236,E3,154.5,0.25,57,162.2
2237,G2,154.5,0.25,57,162.2
2238,A2,154.5,0.25,57,162.2
2239,F#6,154.75,0.25,80,162.2
2240,A6,154.75,0.25,80,162.2
2241,A5,154.75,0.25,80,162.2
2242,A5,155.0,0.25,81,162.2
2243,A6,155.0,0.25,81,162.2
2244,G6,155.0,0.25,81,162.2
2245,A3,155.0,0.25,63,162.2
2246,C#3,155.0,0.25,63,162.2
2247,G3,155.0,0.25,63,162.2
2248,A5,155.25,0.25,81,162.2
2249,A6,155.25,0.25,81,162.2
2250,G#6,155.25,0.25,81,162.2
2251,A6,155.5,0.5,84,162.2
2252,A5,155.5,0.5,84,162.2
2253,C#4,155.5,0.25,67,162.2
2254,A4,155.5,0.25,67,162.2
2255,E4,155.5,0.25,67,162.2
2256,G4,155.5,0.25,67,162.2
2257,A4,157.5,2.0,63,162.2
2258,A3,157.5,2.0,60,162.2
2259,F#4,159.5,2.0,63,162.2
2260,F#3,159.5,2.0,56,162.2
2261,D4,161.5,2.0,65,162.2
2262,D3,161.5,2.0,60,162.2
2263,B-4,163.5,1.5,63,162.2
2264,B-3,163.5,1.5,57,162.2
2265,B-4,165.0,0.5,58,162.2
2266,B-3,165.0,0.5,55,162.2
2267,E-4,165.5,2.0,63,162.2
2268,F#1,165.5,0.25,40,162.2
2269,E-3,165.5,0.062,18,162.2
2270,C4,165.562,0.062,16,162.2
2271,A3,165.562,0.062,16,162.2
2272,E-3,165.625,0.062,18,162.2
2273,C4,165.688,0.062,18,162.2
2274,A3,165.688,0.062,18,162.2
2275,G1,165.75,0.25,41,162.2
2276,E-3,165.75,0.062,19,162.2
2277,C4,165.812,0.062,18,162.2
2278,A3,165.812,0.062,18,162.2
2279,E-3,165.875,0.062,20,162.2
2280,C4,165.938,0.062,18,162.2
2281,A3,165.938,0.062,18,162.2
2282,G#1,166.0,0.25,43,162.2
2283,E-3,166.0,0.062,20,162.2
2284,C4,166.062,0.062,20,162.2
2285,A3,166.062,0.062,20,162.2
2286,E-3,166.125,0.062,21,162.2
2287,C4,166.188,0.062,20,162.2
2288,A3,166.188,0.062,20,162.2
2289,A1,166.25,0.25,44,162.2
2290,E-3,166.25,0.062,22,162.2
2291,C4,166.312,0.062,20,162.2
2292,A3,166.312,0.062,20,162.2
2293,E-3,166.375,0.062,22,162.2
2294,C4,166.438,0.062,20,162.2
2295,A3,166.438,0.062,20,162.2
2296,B-1,166.5,0.25,45,162.2
2297,E-3,166.5,0.062,23,162.2
2298,C4,166.562,0.062,21,162.2
2299,A3,166.562,0.062,21,162.2
2300,E-3,166.625,0.062,23,162.2
2301,C4,166.688,0.062,22,162.2
2302,A3,166.688,0.062,22,162.2
2303,B1,166.75,0.25,46,162.2
2304,E-3,166.75,0.062,24,162.2
2305,C4,166.812,0.062,22,162.2
2306,A3,166.812,0.062,22,162.2
2307,E-3,166.875,0.062,25,162.2
2308,C4,166.938,0.062,22,162.2
2309,A3,166.938,0.062,22,162.2
2310,C2,167.0,0.25,49,162.2
2311,E-3,167.0,0.062,25,162.2
2312,C4,167.062,0.062,24,162.2
2313,A3,167.062,0.062,24,162.2
2314,E-3,167.125,0.062,26,162.2
2315,C4,167.188,0.062,24,162.2
2316,A3,167.188,0.062,24,162.2
2317,C#2,167.25,0.25,53,162.2
2318,E-3,167.25,0.062,27,162.2
2319,C4,167.312,0.062,24,162.2
2320,A3,167.312,0.062,24,162.2
2321,E-3,167.375,0.062,27,162.2
2322,C4,167.438,0.062,24,162.2
2323,A3,167.438,0.062,24,162.2
2324,E-4,167.5,1.0,63,162.2
2325,D2,167.5,0.25,55,162.2
2326,E-3,167.5,0.062,27,162.2
2327,C4,167.562,0.062,25,162.2
2328,A3,167.562,0.062,25,162.2
2329,E-3,167.625,0.062,27,162.2
2330,C4,167.688,0.062,26,162.2
2331,A3,167.688,0.062,26,162.2
2332,E-2,167.75,0.25,59,162.2
2333,E-3,167.75,0.062,28,162.2
2334,C4,167.812,0.062,26,162.2
2335,A3,167.812,0.062,26,162.2
2336,E-3,167.875,0.062,29,162.2
2337,C4,167.938,0.062,27,162.2
2338,A3,167.938,0.062,27,162.2
2339,E2,168.0,0.25,62,162.2
2340,E-3,168.0,0.062,29,162.2
2341,C4,168.062,0.062,28,162.2
2342,A3,168.062,0.062,28,162.2
2343,E-3,168.125,0.062,30,162.2
2344,C4,168.188,0.062,28,162.2
2345,A3,168.188,0.062,28,162.2
2346,F2,168.25,0.25,65,162.2
2347,E-3,168.25,0.062,31,162.2
2348,C4,168.312,0.062,28,162.2
2349,A3,168.312,0.062,28,162.2
2350,E-3,168.375,0.062,31,162.2
2351,C4,168.438,0.062,30,162.2
2352,A3,168.438,0.062,30,162.2
2353,E-4,168.5,1.0,60,162.2
2354,E-3,168.5,0.062,32,162.2
2355,F#2,168.5,1.0,68,162.2
2356,C3,168.5,1.0,68,162.2
2357,C4,168.562,0.062,30,162.2
2358,A3,168.562,0.062,30,162.2
2359,E-3,168.625,0.062,32,162.2
2360,C4,168.688,0.062,30,162.2
2361,A3,168.688,0.062,30,162.2
2362,E-3,168.75,0.062,33,162.2
2363,C4,168.812,0.062,30,162.2
2364,A3,168.812,0.062,30,162.2
2365,E-3,168.875,0.062,34,162.2
2366,C4,168.938,0.062,31,162.2
2367,A3,168.938,0.062,31,162.2
2368,E-3,169.0,0.062,34,162.2
2369,C4,169.062,0.062,32,162.2
2370,A3,169.062,0.062,32,162.2
2371,E-3,169.125,0.062,35,162.2
2372,C4,169.188,0.062,32,162.2
2373,A3,169.188,0.062,32,162.2
2374,E-3,169.25,0.062,36,162.2
2375,C4,169.312,0.062,33,162.2
2376,A3,169.312,0.062,33,162.2
2377,E-3,169.375,0.062,36,162.2
2378,C4,169.438,0.062,33,162.2
2379,A3,169.438,0.062,33,162.2
2380,D4,169.5,2.0,64,162.2
2381,C3,169.5,2.0,68,162.2
2382,G2,169.5,0.25,68,162.2
2383,D3,169.5,0.062,37,162.2
2384,C4,169.562,0.062,34,162.2
2385,G3,169.562,0.062,34,162.2
2386,D3,169.625,0.062,37,162.2
2387,C4,169.688,0.062,34,162.2
2388,G3,169.688,0.062,34,162.2
2389,F#2,169.75,0.25,65,162.2
2390,D3,169.75,0.062,37,162.2
2391,C4,169.812,0.062,33,162.2
2392,G3,169.812,0.062,33,162.2
2393,D3,169.875,0.062,36,162.2
2394,C4,169.938,0.062,33,162.2
2395,G3,169.938,0.062,33,162.2
2396,F2,170.0,0.25,63,162.2
2397,D3,170.0,0.062,36,162.2
2398,C4,170.062,0.062,33,162.2
2399,G3,170.062,0.062,33,162.2
2400,D3,170.125,0.062,36,162.2
2401,C4,170.188,0.062,33,162.2
2402,G3,170.188,0.062,33,162.2
2403,E2,170.25,0.25,61,162.2
2404,D3,170.25,0.062,36,162.2
2405,C4,170.312,0.062,32,162.2
2406,G3,170.312,0.062,32,162.2
2407,D3,170.375,0.062,35,162.2
2408,C4,170.438,0.062,32,162.2
2409,G3,170.438,0.062,32,162.2
2410,E-2,170.5,0.25,59,162.2
2411,D3,170.5,0.062,35,162.2
2412,C4,170.562,0.062,31,162.2
2413,G3,170.562,0.062,31,162.2
2414,D3,170.625,0.062,34,162.2
2415,C4,170.688,0.062,31,162.2
2416,G3,170.688,0.062,31,162.2
2417,D2,170.75,0.25,56,162.2
2418,D3,170.75,0.062,34,162.2
2419,C4,170.812,0.062,30,162.2
2420,G3,170.812,0.062,30,162.2
2421,D3,170.875,0.062,33,162.2
2422,C4,170.938,0.062,30,162.2
2423,G3,170.938,0.062,30,162.2
2424,C#2,171.0,0.25,54,162.2
2425,D3,171.0,0.062,33,162.2
2426,C4,171.062,0.062,30,162.2
2427,G3,171.062,0.062,30,162.2
2428,D3,171.125,0.062,32,162.2
2429,C4,171.188,0.062,30,162.2
2430,G3,171.188,0.062,30,162.2
2431,C2,171.25,0.25,48,162.2
2432,D3,171.25,0.062,32,162.2
2433,C4,171.312,0.062,28,162.2
2434,G3,171.312,0.062,28,162.2
2435,D3,171.375,0.062,31,162.2
2436,C4,171.438,0.062,28,162.2
2437,G3,171.438,0.062,28,162.2
2438,B2,171.5,1.0,47,162.2
2439,B1,171.5,0.25,47,162.2
2440,D3,171.5,0.062,31,162.2
2441,B3,171.562,0.062,28,162.2
2442,G3,171.562,0.062,28,162.2
2443,D3,171.625,0.062,30,162.2
2444,B3,171.688,0.062,28,162.2
2445,G3,171.688,0.062,28,162.2
2446,B-1,171.75,0.25,46,162.2
2447,D3,171.75,0.062,30,162.2
2448,B3,171.812,0.062,27,162.2
2449,G3,171.812,0.062,27,162.2
2450,D3,171.875,0.062,29,162.2
2451,B3,171.938,0.062,27,162.2
2452,G3,171.938,0.062,27,162.2
2453,A1,172.0,0.25,45,162.2
2454,D3,172.0,0.062,29,162.2
2455,B3,172.062,0.062,26,162.2
2456,G3,172.062,0.062,26,162.2
2457,D3,172.125,0.062,28,162.2
2458,B3,172.188,0.062,26,162.2
2459,G3,172.188,0.062,26,162.2
2460,G#1,172.25,0.188,45,162.2
2461,D3,172.25,0.062,28,162.2
2462,G3,172.312,0.062,27,162.2
2463,B3,172.312,0.062,27,162.2
2464,D3,172.375,0.062,27,162.2
2465,G1,172.438,0.281,41,162.2
2466,D2,172.438,0.281,41,162.2
2467,B3,172.438,0.062,25,162.2
2468,G3,172.438,0.062,25,162.2
2469,B-2,172.5,0.25,48,162.2
2470,D3,172.5,0.25,57,162.2
2471,G3,172.5,0.25,57,162.2
2472,B-3,172.5,0.25,57,162.2
2473,E-4,173.5,2.0,63,162.2
2474,E-3,173.5,2.0,60,162.2
2475,B-4,175.5,1.5,63,162.2
2476,B-3,175.5,1.5,56,162.2
2477,B-4,177.0,0.5,58,162.2
2478,B-3,177.0,0.5,55,162.2
2479,C#4,177.5,2.0,65,162.2
2480,C#3,177.5,2.0,60,162.2
2481,F4,179.5,2.0,63,162.2
2482,F3,179.5,2.0,57,162.2
2483,B3,181.5,2.0,63,162.2
2484,B2,181.5,0.062,18,162.2
2485,B1,181.5,0.25,32,162.2
2486,G#1,181.5,0.25,32,162.2
2487,F3,181.562,0.062,16,162.2
2488,D3,181.562,0.062,16,162.2
2489,B2,181.625,0.062,18,162.2
2490,F3,181.688,0.062,18,162.2
2491,D3,181.688,0.062,18,162.2
2492,B2,181.75,0.062,19,162.2
2493,C2,181.75,0.25,34,162.2
2494,A1,181.75,0.25,34,162.2
2495,F3,181.812,0.062,18,162.2
2496,D3,181.812,0.062,18,162.2
2497,B2,181.875,0.062,20,162.2
2498,F3,181.938,0.062,18,162.2
2499,D3,181.938,0.062,18,162.2
2500,B2,182.0,0.062,20,162.2
2501,C#2,182.0,0.25,36,162.2
2502,B-1,182.0,0.25,36,162.2
2503,F3,182.062,0.062,20,162.2
2504,D3,182.062,0.062,20,162.2
2505,B2,182.125,0.062,21,162.2
2506,F3,182.188,0.062,20,162.2
2507,D3,182.188,0.062,20,162.2
2508,B2,182.25,0.062,22,162.2
2509,D2,182.25,0.25,38,162.2
2510,B1,182.25,0.25,38,162.2
2511,F3,182.312,0.062,20,162.2
2512,D3,182.312,0.062,20,162.2
2513,B2,182.375,0.062,22,162.2
2514,F3,182.438,0.062,20,162.2
2515,D3,182.438,0.062,20,162.2
2516,B2,182.5,0.062,23,162.2
2517,E-2,182.5,0.25,39,162.2
2518,C2,182.5,0.25,39,162.2
2519,F3,182.562,0.062,21,162.2
2520,D3,182.562,0.062,21,162.2
2521,B2,182.625,0.062,23,162.2
2522,F3,182.688,0.062,22,162.2
2523,D3,182.688,0.062,22,162.2
2524,B2,182.75,0.062,24,162.2
2525,E2,182.75,0.25,41,162.2
2526,C#2,182.75,0.25,41,162.2
2527,F3,182.812,0.062,22,162.2
2528,D3,182.812,0.062,22,162.2
2529,B2,182.875,0.062,25,162.2
2530,F3,182.938,0.062,22,162.2
2531,D3,182.938,0.062,22,162.2
2532,B2,183.0,0.062,25,162.2
2533,F2,183.0,0.25,42,162.2
2534,D2,183.0,0.25,42,162.2
2535,F3,183.062,0.062,24,162.2
2536,D3,183.062,0.062,24,162.2
2537,B2,183.125,0.062,26,162.2
2538,F3,183.188,0.062,24,162.2
2539,D3,183.188,0.062,24,162.2
2540,B2,183.25,0.062,27,162.2
2541,F#2,183.25,0.25,44,162.2
2542,E-2,183.25,0.25,44,162.2
2543,F3,183.312,0.062,24,162.2
2544,D3,183.312,0.062,24,162.2
2545,B2,183.375,0.062,27,162.2
2546,F3,183.438,0.062,24,162.2
2547,D3,183.438,0.062,24,162.2
2548,E4,183.5,1.875,63,162.2
2549,E3,183.5,0.062,27,162.2
2550,G2,183.5,0.25,46,162.2
2551,E2,183.5,0.25,46,162.2
2552,B3,183.562,0.062,25,162.2
2553,G#3,183.562,0.062,25,162.2
2554,E3,183.625,0.062,27,162.2
2555,B3,183.688,0.062,26,162.2
2556,G#3,183.688,0.062,26,162.2
2557,E3,183.75,0.062,28,162.2
2558,G#2,183.75,0.25,48,162.2
2559,F2,183.75,0.25,48,162.2
2560,B3,183.812,0.062,26,162.2
2561,G#3,183.812,0.062,26,162.2
2562,E3,183.875,0.062,29,162.2
2563,B3,183.938,0.062,27,162.2
2564,G#3,183.938,0.062,27,162.2
2565,E3,184.0,0.062,29,162.2
2566,A2,184.0,0.25,49,162.2
2567,F#2,184.0,0.25,49,162.2
2568,B3,184.062,0.062,28,162.2
2569,G#3,184.062,0.062,28,162.2
2570,E3,184.125,0.062,30,162.2
2571,B3,184.188,0.062,28,162.2
2572,G#3,184.188,0.062,28,162.2
2573,E3,184.25,0.062,31,162.2
2574,B-2,184.25,0.25,50,162.2
2575,G2,184.25,0.25,50,162.2
2576,B3,184.312,0.062,28,162.2
2577,G#3,184.312,0.062,28,162.2
2578,E3,184.375,0.062,31,162.2
2579,B3,184.438,0.062,30,162.2
2580,G#3,184.438,0.062,30,162.2
2581,E3,184.5,0.062,32,162.2
2582,G#2,184.5,1.0,52,162.2
2583,B2,184.5,1.0,52,162.2
2584,B3,184.562,0.062,30,162.2
2585,G#3,184.562,0.062,30,162.2
2586,E3,184.625,0.062,32,162.2
2587,B3,184.688,0.062,30,162.2
2588,G#3,184.688,0.062,30,162.2
2589,E3,184.75,0.062,33,162.2
2590,B3,184.812,0.062,30,162.2
2591,G#3,184.812,0.062,30,162.2
2592,E3,184.875,0.062,34,162.2
2593,B3,184.938,0.062,31,162.2
2594,G#3,184.938,0.062,31,162.2
2595,E3,185.0,0.062,34,162.2
2596,B3,185.062,0.062,32,162.2
2597,G#3,185.062,0.062,32,162.2
2598,E3,185.125,0.062,35,162.2
2599,B3,185.188,0.062,32,162.2
2600,G#3,185.188,0.062,32,162.2
2601,E3,185.25,0.062,36,162.2
2602,B3,185.312,0.062,33,162.2
2603,G#3,185.312,0.062,33,162.2
2604,E3,185.375,0.062,36,162.2
2605,D3,185.375,0.125,59,162.2
2606,D4,185.375,0.125,59,162.2
2607,B3,185.438,0.062,33,162.2
2608,G#3,185.438,0.062,33,162.2
2609,C4,185.5,2.0,64,162.2
2610,A2,185.5,167/1000,54,162.2
2611,C3,185.5,0.062,37,162.2
2612,E3,185.562,0.062,37,162.2
2613,C3,185.625,0.062,37,162.2
2614,G#2,185.667,167/1000,51,162.2
2615,B2,185.667,167/1000,51,162.2
2616,E3,185.688,0.062,37,162.2
2617,C3,185.75,0.062,37,162.2
2618,E3,185.812,0.062,36,162.2
2619,G2,185.833,167/1000,49,162.2
2620,B-2,185.833,167/1000,49,162.2
2621,C3,185.875,0.062,36,162.2
2622,E3,185.938,0.062,36,162.2
2623,C3,186.0,0.062,36,162.2
2624,F#2,186.0,167/1000,48,162.2
2625,A2,186.0,167/1000,48,162.2
2626,E3,186.062,0.062,36,162.2
2627,C3,186.125,0.062,36,162.2
2628,F2,186.167,167/1000,48,162.2
2629,G#2,186.167,167/1000,48,162.2
2630,E3,186.188,0.062,36,162.2
2631,C3,186.25,0.062,36,162.2
2632,E3,186.312,0.062,35,162.2
2633,E2,186.333,167/1000,46,162.2
2634,G2,186.333,167/1000,46,162.2
2635,C3,186.375,0.062,35,162.2
2636,E3,186.438,0.062,35,162.2
2637,C3,186.5,0.062,35,162.2
2638,E-2,186.5,167/1000,44,162.2
2639,F#2,186.5,167/1000,44,162.2
2640,E3,186.562,0.062,34,162.2
2641,C3,186.625,0.062,34,162.2
2642,D2,186.667,167/1000,44,162.2
2643,F2,186.667,167/1000,44,162.2
2644,E3,186.688,0.062,34,162.2
2645,C3,186.75,0.062,34,162.2
2646,E3,186.812,0.062,33,162.2
2647,C#2,186.833,167/1000,42,162.2
2648,E2,186.833,167/1000,42,162.2
2649,C3,186.875,0.062,33,162.2
2650,E3,186.938,0.062,33,162.2
2651,C3,187.0,0.062,33,162.2
2652,C2,187.0,167/1000,41,162.2
2653,E-2,187.0,167/1000,41,162.2
2654,E3,187.062,0.062,32,162.2
2655,C3,187.125,0.062,32,162.2
2656,B1,187.167,167/1000,40,162.2
2657,D2,187.167,167/1000,40,162.2
2658,E3,187.188,0.062,32,162.2
2659,C3,187.25,0.062,32,162.2
2660,E3,187.312,0.062,31,162.2
2661,B-1,187.333,167/1000,38,162.2
2662,C#2,187.333,167/1000,38,162.2
2663,C3,187.375,0.062,31,162.2
2664,E3,187.438,0.062,31,162.2
2665,A3,187.5,1.0,57,162.2
2666,C3,187.5,0.062,31,162.2
2667,A1,187.5,0.5,40,162.2
2668,C2,187.5,0.5,40,162.2
2669,E3,187.562,0.062,30,162.2
2670,C3,187.625,0.062,30,162.2
2671,E3,187.688,0.062,30,162.2
2672,C3,187.75,0.062,30,162.2
2673,E3,187.812,0.062,29,162.2
2674,C3,187.875,0.062,29,162.2
2675,E3,187.938,0.062,29,162.2
2676,C3,188.0,0.062,29,162.2
2677,E3,188.062,0.062,28,162.2
2678,C3,188.125,0.062,28,162.2
2679,E3,188.188,0.062,28,162.2
2680,C3,188.25,0.062,28,162.2
2681,E3,188.312,0.062,27,162.2
2682,C3,188.375,0.062,27,162.2
2683,A4,188.375,0.125,46,162.2
2684,A3,188.375,0.125,46,162.2
2685,E3,188.438,0.062,27,162.2
2686,C3,188.5,0.062,31,162.2
2687,A4,188.5,0.5,52,162.2
2688,A3,188.5,0.5,52,162.2
2689,E3,188.562,0.062,30,162.2
2690,C3,188.625,0.062,30,162.2
2691,E3,188.688,0.062,30,162.2
2692,C3,188.75,0.062,30,162.2
2693,E3,188.812,0.062,29,162.2
2694,C3,188.875,0.062,29,162.2
2695,E3,188.938,0.062,29,162.2
2696,C3,189.0,0.062,29,162.2
2697,E3,189.062,0.062,28,162.2
2698,C3,189.125,0.062,28,162.2
2699,E3,189.188,0.062,28,162.2
2700,C3,189.25,0.062,28,162.2
2701,E3,189.312,0.062,27,162.2
2702,C3,189.375,0.062,27,162.2
2703,A2,189.375,83/1000,50,162.2
2704,A3,189.375,83/1000,50,162.2
2705,E3,189.438,0.062,27,162.2
2706,C3,189.458,21/500,47,162.2
2707,E3,189.479,21/1000,47,162.2
2708,C2,189.479,21/1000,47,162.2
2709,E2,189.479,21/1000,47,162.2
2710,A3,189.5,167/1000,35,162.2
2711,A2,189.5,167/1000,45,162.2
2712,C3,189.5,667/1000,47,162.2
2713,E3,189.5,979/1000,47,162.2
2714,C2,189.5,979/1000,47,162.2
2715,E2,189.5,979/1000,47,162.2
2716,B-3,189.667,167/1000,36,162.2
2717,B-2,189.667,167/1000,25,162.2
2718,B3,189.833,167/1000,36,162.2
2719,B2,189.833,167/1000,26,162.2
2720,C4,190.0,167/1000,38,162.2
2721,C3,190.0,0.5,27,162.2
2722,C#4,190.167,167/1000,39,162.2
2723,C#3,190.167,167/1000,28,162.2
2724,D4,190.333,167/1000,40,162.2
2725,D3,190.333,167/1000,30,162.2
2726,E-4,190.5,167/1000,42,162.2
2727,E-3,190.5,167/1000,31,162.2
2728,E4,190.667,167/1000,43,162.2
2729,E3,190.667,167/1000,32,162.2
2730,F4,190.833,167/1000,44,162.2
2731,F3,190.833,167/1000,34,162.2
2732,F#4,191.0,0.125,45,162.2
2733,F#3,191.0,0.125,35,162.2
2734,G4,191.125,0.125,46,162.2
2735,G3,191.125,0.125,36,162.2
2736,G#4,191.25,0.125,47,162.2
2737,G#3,191.25,0.125,36,162.2
2738,A4,191.375,0.125,51,162.2
2739,A5,191.375,0.125,51,162.2
2740,C3,191.375,0.125,53,162.2
2741,E3,191.375,0.125,53,162.2
2742,A3,191.375,0.125,53,162.2
2743,A4,191.5,167/1000,51,162.2
2744,A5,191.5,1.0,62,162.2
2745,A3,191.5,167/1000,52,162.2
2746,C3,191.5,1.0,52,162.2
2747,E3,191.5,1.0,52,162.2
2748,G#4,191.667,167/1000,51,162.2
2749,G#3,191.667,167/1000,38,162.2
2750,G4,191.833,167/1000,50,162.2
2751,G3,191.833,167/1000,38,162.2
2752,F#4,192.0,167/1000,49,162.2
2753,F#3,192.0,167/1000,37,162.2
2754,F4,192.167,167/1000,48,162.2
2755,F3,192.167,167/1000,36,162.2
2756,E4,192.333,167/1000,47,162.2
2757,E3,192.333,167/1000,36,162.2
2758,E-4,192.5,167/1000,46,162.2
2759,E-3,192.5,167/1000,36,162.2
2760,D4,192.667,167/1000,45,162.2
2761,D3,192.667,167/1000,35,162.2
2762,C#4,192.833,167/1000,44,162.2
2763,C#3,192.833,167/1000,34,162.2
2764,C4,193.0,0.125,43,162.2
2765,C3,193.0,0.125,34,162.2
2766,B3,193.125,0.125,43,162.2
2767,B2,193.125,0.125,33,162.2
2768,B-3,193.25,0.125,42,162.2
2769,B-2,193.25,0.125,33,162.2
2770,E3,193.375,0.125,58,162.2
2771,A3,193.375,0.125,58,162.2
2772,C2,193.375,0.125,50,162.2
2773,A2,193.375,0.125,50,162.2
2774,B-3,193.5,167/1000,48,162.2
2775,D2,193.5,1.0,47,162.2
2776,B-2,193.5,167/1000,45,162.2
2777,F3,193.5,1.0,52,162.2
2778,A3,193.5,1.0,52,162.2
2779,B3,193.667,167/1000,45,162.2
2780,B2,193.667,167/1000,34,162.2
2781,C4,193.833,167/1000,45,162.2
2782,C3,193.833,167/1000,35,162.2
2783,C#4,194.0,167/1000,45,162.2
2784,C#3,194.0,167/1000,36,162.2
2785,D4,194.167,167/1000,47,162.2
2786,D3,194.167,167/1000,36,162.2
2787,E-4,194.333,167/1000,48,162.2
2788,E-3,194.333,167/1000,37,162.2
2789,E4,194.5,167/1000,49,162.2
2790,E3,194.5,167/1000,38,162.2
2791,F4,194.667,167/1000,51,162.2
2792,F3,194.667,167/1000,39,162.2
2793,F#4,194.833,167/1000,52,162.2
2794,F#3,194.833,167/1000,40,162.2
2795,G4,195.0,0.125,53,162.2
2796,G3,195.0,0.125,41,162.2
2797,G#4,195.125,0.125,54,162.2
2798,G#3,195.125,0.125,42,162.2
2799,A4,195.25,0.125,54,162.2
2800,A3,195.25,0.125,43,162.2
2801,B-4,195.375,0.125,62,162.2
2802,A5,195.375,0.125,62,162.2
2803,D3,195.375,0.125,54,162.2
2804,F3,195.375,0.125,54,162.2
2805,B-3,195.375,0.125,54,162.2
2806,B4,195.5,167/1000,55,162.2
2807,A5,195.5,1.0,71,162.2
2808,B3,195.5,167/1000,52,162.2
2809,E-3,195.5,1.0,52,162.2
2810,F#3,195.5,1.0,52,162.2
2811,B-4,195.667,167/1000,57,162.2
2812,B-3,195.667,167/1000,45,162.2
2813,A4,195.833,167/1000,56,162.2
2814,A3,195.833,167/1000,45,162.2
2815,G#4,196.0,167/1000,54,162.2
2816,G#3,196.0,167/1000,44,162.2
2817,G4,196.167,167/1000,54,162.2
2818,G3,196.167,167/1000,44,162.2
2819,F#4,196.333,167/1000,53,162.2
2820,F#3,196.333,167/1000,43,162.2
2821,F4,196.5,167/1000,51,162.2
2822,F3,196.5,167/1000,42,162.2
2823,E4,196.673,167/1000,50,162.2
2824,E3,196.673,167/1000,41,162.2
2825,E-4,196.833,167/1000,49,162.2
2826,E-3,196.833,167/1000,40,162.2
2827,D4,197.0,0.125,47,162.2
2828,D3,197.0,0.125,39,162.2
2829,C#4,197.125,0.125,46,162.2
2830,C#3,197.125,0.125,39,162.2
2831,C4,197.25,0.125,46,162.2
2832,C3,197.25,0.125,39,162.2
2833,B-3,197.375,0.125,49,162.2
2834,F3,197.375,0.125,49,162.2
2835,B3,197.375,0.125,49,162.2
2836,E-2,197.375,0.125,42,162.2
2837,B2,197.375,0.125,42,162.2
2838,A3,197.5,1.0,54,162.2
2839,C4,197.5,167/1000,66,162.2
2840,E2,197.5,1.0,54,162.2
2841,C3,197.5,167/1000,45,162.2
2842,C#4,197.667,167/1000,50,162.2
2843,C#3,197.667,167/1000,40,162.2
2844,D4,197.833,167/1000,51,162.2
2845,D3,197.833,167/1000,41,162.2
2846,E-4,198.0,167/1000,52,162.2
2847,E-3,198.0,167/1000,42,162.2
2848,E4,198.167,167/1000,53,162.2
2849,E3,198.167,167/1000,43,162.2
2850,F4,198.333,167/1000,53,162.2
2851,F3,198.333,167/1000,44,162.2
2852,F#4,198.5,167/1000,54,162.2
2853,F#3,198.5,167/1000,44,162.2
2854,G4,198.667,167/1000,54,162.2
2855,G3,198.667,167/1000,45,162.2
2856,G#4,198.833,167/1000,55,162.2
2857,G#3,198.833,167/1000,45,162.2
2858,A4,199.0,0.125,56,162.2
2859,A3,199.0,0.125,46,162.2
2860,B-4,199.125,0.125,56,162.2
2861,B-3,199.125,0.125,47,162.2
2862,B4,199.25,0.125,57,162.2
2863,B3,199.25,0.125,45,162.2
2864,A4,199.375,0.125,62,162.2
2865,C5,199.375,0.125,62,162.2
2866,A5,199.375,0.125,62,162.2
2867,E3,199.375,0.125,45,162.2
2868,A3,199.375,0.125,45,162.2
2869,C4,199.375,0.125,45,162.2
2870,A4,199.5,0.5,70,162.2
2871,C#5,199.5,167/1000,57,162.2
2872,A5,199.5,1.0,77,162.2
2873,C#4,199.5,167/1000,55,162.2
2874,E3,199.5,1.0,55,162.2
2875,G3,199.5,1.0,55,162.2
2876,C5,199.667,167/1000,61,162.2
2877,C4,199.667,167/1000,51,162.2
2878,B4,199.833,167/1000,59,162.2
2879,B3,199.833,167/1000,49,162.2
2880,B-4,200.0,167/1000,58,162.2
2881,B-3,200.0,167/1000,47,162.2
2882,A4,200.167,167/1000,56,162.2
2883,A3,200.167,167/1000,46,162.2
2884,G#4,200.333,167/1000,55,162.2
2885,G#3,200.333,167/1000,45,162.2
2886,G4,200.5,167/1000,54,162.2
2887,G3,200.5,167/1000,45,162.2
2888,F#4,200.673,167/1000,52,162.2
2889,F#3,200.673,167/1000,44,162.2
2890,F4,200.833,167/1000,51,162.2
2891,F3,200.833,167/1000,43,162.2
2892,E4,201.0,0.125,49,162.2
2893,E3,201.0,0.125,41,162.2
2894,E-4,201.125,0.125,48,162.2
2895,E-3,201.125,0.125,41,162.2
2896,D4,201.25,0.125,47,162.2
2897,D3,201.25,0.125,40,162.2
2898,A3,201.375,0.125,46,162.2
2899,C#4,201.375,0.125,46,162.2
2900,E2,201.375,0.125,50,162.2
2901,G2,201.375,0.125,50,162.2
2902,C#3,201.375,0.125,50,162.2
2903,A3,201.5,1.0,46,162.2
2904,D4,201.5,0.125,46,162.2
2905,F2,201.5,1.0,49,162.2
2906,D3,201.5,0.125,42,162.2
2907,E-4,201.625,0.125,47,162.2
2908,E-3,201.625,0.125,41,162.2
2909,E4,201.75,0.125,48,162.2
2910,E3,201.75,0.125,42,162.2
2911,F4,201.875,0.125,49,162.2
2912,F3,201.875,0.125,42,162.2
2913,F#4,202.0,0.125,50,162.2
2914,F#3,202.0,0.125,43,162.2
2915,G4,202.125,0.125,51,162.2
2916,G3,202.125,0.125,44,162.2
2917,G#4,202.25,0.125,52,162.2
2918,G#3,202.25,0.125,45,162.2
2919,A4,202.375,0.125,53,162.2
2920,A3,202.375,0.125,45,162.2
2921,B-4,202.5,0.125,54,162.2
2922,B-3,202.5,0.125,45,162.2
2923,B4,202.625,0.125,54,162.2
2924,B3,202.625,0.125,46,162.2
2925,C5,202.75,0.125,54,162.2
2926,C4,202.75,0.125,47,162.2
2927,C#5,202.875,0.125,55,162.2
2928,C#4,202.875,0.125,48,162.2
2929,D5,203.0,0.125,57,162.2
2930,D4,203.0,0.125,49,162.2
2931,E-5,203.125,0.125,57,162.2
2932,E-4,203.125,0.125,49,162.2
2933,E5,203.25,0.125,58,162.2
2934,E4,203.25,0.125,50,162.2
2935,F5,203.375,0.125,59,162.2
2936,F4,203.375,0.125,51,162.2
2937,F#5,203.5,0.125,60,162.2
2938,F#4,203.5,0.125,52,162.2
2939,G5,203.625,0.125,61,162.2
2940,G4,203.625,0.125,52,162.2
2941,G#5,203.75,0.125,62,162.2
2942,G#4,203.75,0.125,53,162.2
2943,A5,203.875,0.125,63,162.2
2944,A4,203.875,0.125,54,162.2
2945,B-5,204.0,0.125,63,162.2
2946,B-4,204.0,0.125,54,162.2
2947,B5,204.125,0.125,64,162.2
2948,B4,204.125,0.125,55,162.2
2949,C6,204.25,0.125,65,162.2
2950,C5,204.25,0.125,55,162.2
2951,C#6,204.375,0.125,66,162.2
2952,C#5,204.375,0.125,56,162.2
2953,D6,204.5,0.125,77,162.2
2954,D5,204.5,0.125,65,162.2
2955,C#6,204.625,0.125,66,162.2
2956,C#5,204.625,0.125,57,162.2
2957,C6,204.75,0.125,65,162.2
2958,C5,204.75,0.125,58,162.2
2959,B5,204.875,0.125,63,162.2
2960,B4,204.875,0.125,56,162.2
2961,B-5,205.0,0.125,63,162.2
2962,B-4,205.0,0.125,55,162.2
2963,A5,205.125,0.125,62,162.2
2964,A4,205.125,0.125,54,162.2
2965,G#5,205.25,0.125,60,162.2
2966,G#4,205.25,0.125,54,162.2
2967,G5,205.375,0.125,59,162.2
2968,G4,205.375,0.125,53,162.2
2969,F#5,205.5,0.125,58,162.2
2970,F#4,205.5,0.125,52,162.2
2971,F5,205.625,0.125,57,162.2
2972,F4,205.625,0.125,51,162.2
2973,E5,205.75,0.125,55,162.2
2974,E4,205.75,0.125,50,162.2
2975,E-5,205.875,0.125,54,162.2
2976,E-4,205.875,0.125,49,162.2
2977,D5,206.0,0.125,53,162.2
2978,D4,206.0,0.125,48,162.2
2979,C#5,206.125,0.125,52,162.2
2980,C#4,206.125,0.125,47,162.2
2981,C5,206.25,0.125,51,162.2
2982,C4,206.25,0.125,46,162.2
2983,B4,206.375,0.125,49,162.2
2984,B3,206.375,0.125,45,162.2
2985,B-4,206.5,0.125,48,162.2
2986,B-3,206.5,0.125,44,162.2
2987,A4,206.625,0.125,47,162.2
2988,A3,206.625,0.125,44,162.2
2989,G#4,206.75,0.125,46,162.2
2990,G#3,206.75,0.125,42,162.2
2991,G4,206.875,0.125,45,162.2
2992,G3,206.875,0.125,41,162.2
2993,F#4,207.0,0.125,44,162.2
2994,F#3,207.0,0.125,40,162.2
2995,F4,207.125,0.125,43,162.2
2996,F3,207.125,0.125,39,162.2
2997,E4,207.25,0.125,41,162.2
2998,E3,207.25,0.125,38,162.2
2999,E-4,207.375,0.125,40,162.2
3000,E-3,207.375,83/1000,50,162.2
3001,F2,207.458,21/500,63,162.2
3002,D3,207.458,21/500,63,162.2
3003,D4,207.5,0.125,39,162.2
3004,B-3,207.5,3.0,82,162.2
3005,F2,207.5,479/1000,63,162.2
3006,D3,207.5,479/1000,63,162.2
3007,C4,207.625,0.125,39,162.2
3008,E-4,207.625,0.125,39,162.2
3009,C#4,207.75,0.125,40,162.2
3010,E4,207.75,0.125,40,162.2
3011,D4,207.875,0.125,41,162.2
3012,F4,207.875,0.125,41,162.2
3013,E-4,208.0,0.125,42,162.2
3014,F#4,208.0,0.125,42,162.2
3015,E4,208.125,0.125,43,162.2
3016,G4,208.125,0.125,43,162.2
3017,F4,208.25,0.125,44,162.2
3018,G#4,208.25,0.125,44,162.2
3019,F#4,208.375,0.125,45,162.2
3020,A4,208.375,0.125,45,162.2
3021,G4,208.5,0.125,45,162.2
3022,B-4,208.5,0.125,45,162.2
3023,G#4,208.625,0.125,45,162.2
3024,B4,208.625,0.125,45,162.2
3025,A4,208.75,0.125,46,162.2
3026,C5,208.75,0.125,46,162.2
3027,B-4,208.875,0.125,47,162.2
3028,C#5,208.875,0.125,47,162.2
3029,B4,209.0,0.125,48,162.2
3030,D5,209.0,0.125,48,162.2
3031,C5,209.125,0.125,49,162.2
3032,E-5,209.125,0.125,49,162.2
3033,C#5,209.25,0.125,50,162.2
3034,E5,209.25,0.125,50,162.2
3035,D5,209.375,0.125,51,162.2
3036,F5,209.375,0.125,51,162.2
3037,E-5,209.5,0.125,52,162.2
3038,F#5,209.5,0.125,52,162.2
3039,E5,209.625,0.125,53,162.2
3040,G5,209.625,0.125,53,162.2
3041,F5,209.75,0.125,53,162.2
3042,G#5,209.75,0.125,53,162.2
3043,F#5,209.875,0.125,54,162.2
3044,A5,209.875,0.125,54,162.2
3045,G5,210.0,0.125,54,162.2
3046,B-5,210.0,0.125,54,162.2
3047,G#5,210.125,0.125,55,162.2
3048,B5,210.125,0.125,55,162.2
3049,A5,210.25,0.125,56,162.2
3050,C6,210.25,0.125,56,162.2
3051,B-5,210.375,0.125,57,162.2
3052,C#6,210.375,0.125,57,162.2
3053,B5,210.5,0.125,58,162.2
3054,D6,210.5,0.125,58,162.2
3055,C6,210.625,0.125,59,162.2
3056,E-6,210.625,0.125,59,162.2
3057,B-3,210.75,1.25,74,162.2
3058,C#6,210.75,0.125,60,162.2
3059,E6,210.75,0.125,60,162.2
3060,D6,210.875,0.125,60,162.2
3061,F6,210.875,0.125,60,162.2
3062,E-6,211.0,0.125,61,162.2
3063,F#6,211.0,0.125,61,162.2
3064,E6,211.125,0.125,62,162.2
3065,G6,211.125,0.125,62,162.2
3066,F6,211.25,0.125,63,162.2
3067,G#6,211.25,0.125,63,162.2
3068,F#6,211.375,0.125,63,162.2
3069,A6,211.375,0.125,63,162.2
3070,G6,211.5,0.125,64,162.2
3071,B-6,211.5,0.125,64,162.2
3072,G#6,211.625,0.125,65,162.2
3073,B6,211.625,0.125,65,162.2
3074,A6,211.75,0.125,66,162.2
3075,C7,211.75,0.125,66,162.2
3076,B-6,211.875,0.125,67,162.2
3077,C#7,211.875,0.125,67,162.2
3078,B6,212.0,0.125,72,162.2
3079,D7,212.0,0.125,72,162.2
3080,F2,212.062,0.062,72,162.2
3081,E-3,212.062,0.062,72,162.2
3082,A3,212.062,0.062,72,162.2
3083,C4,212.125,2.0,82,162.2
3084,C7,212.125,0.125,66,162.2
3085,E-7,212.125,0.125,66,162.2
3086,F2,212.125,229/500,72,162.2
3087,E-3,212.125,229/500,72,162.2
3088,A3,212.125,229/500,72,162.2
3089,B6,212.25,0.125,66,162.2
3090,D7,212.25,0.125,66,162.2
3091,B-6,212.375,0.125,65,162.2
3092,C#7,212.375,0.125,65,162.2
3093,A6,212.5,0.125,64,162.2
3094,C7,212.5,0.125,64,162.2
3095,G#6,212.625,0.125,64,162.2
3096,B6,212.625,0.125,64,162.2
3097,G6,212.75,0.125,63,162.2
3098,B-6,212.75,0.125,63,162.2
3099,F#6,212.875,0.125,63,162.2
3100,A6,212.875,0.125,63,162.2
3101,F6,213.0,0.125,62,162.2
3102,G#6,213.0,0.125,62,162.2
3103,E6,213.125,0.125,62,162.2
3104,G6,213.125,0.125,62,162.2
3105,E-6,213.25,0.125,61,162.2
3106,F#6,213.25,0.125,61,162.2
3107,D6,213.375,0.125,60,162.2
3108,F6,213.375,0.125,60,162.2
3109,C#6,213.5,0.125,59,162.2
3110,E6,213.5,0.125,59,162.2
3111,C6,213.625,0.125,59,162.2
3112,E-6,213.625,0.125,59,162.2
3113,B5,213.75,0.125,58,162.2
3114,D6,213.75,0.125,58,162.2
3115,B-5,213.875,0.125,57,162.2
3116,C#6,213.875,0.125,57,162.2
3117,A5,214.0,0.125,57,162.2
3118,C6,214.0,0.125,57,162.2
3119,G#5,214.125,0.125,56,162.2
3120,B5,214.125,0.125,56,162.2
3121,G5,214.25,0.125,55,162.2
3122,B-5,214.25,0.125,55,162.2
3123,F#5,214.375,0.125,54,162.2
3124,A5,214.375,0.125,54,162.2
3125,F5,214.5,0.125,54,162.2
3126,G#5,214.5,0.125,54,162.2
3127,E5,214.625,0.125,54,162.2
3128,G5,214.625,0.125,54,162.2
3129,E-3,214.75,2.0,79,162.2
3130,E-5,214.75,0.125,53,162.2
3131,F#5,214.75,0.125,53,162.2
3132,D5,214.875,0.125,53,162.2
3133,F5,214.875,0.125,53,162.2
3134,C#5,215.0,0.125,52,162.2
3135,E5,215.0,0.125,52,162.2
3136,C5,215.125,0.125,51,162.2
3137,E-5,215.125,0.125,51,162.2
3138,B4,215.25,0.125,50,162.2
3139,D5,215.25,0.125,50,162.2
3140,B-4,215.375,0.125,50,162.2
3141,C#5,215.375,0.125,50,162.2
3142,A4,215.5,0.125,49,162.2
3143,C5,215.5,0.125,49,162.2
3144,G#4,215.625,0.125,48,162.2
3145,B4,215.625,0.125,48,162.2
3146,G4,215.75,0.125,48,162.2
3147,B-4,215.75,0.125,48,162.2
3148,F#4,215.875,0.125,47,162.2
3149,A4,215.875,0.125,47,162.2
3150,F4,216.0,0.125,46,162.2
3151,G#4,216.0,0.125,46,162.2
3152,E4,216.125,0.125,45,162.2
3153,G4,216.125,0.125,45,162.2
3154,E-4,216.25,0.125,45,162.2
3155,F#4,216.25,0.125,45,162.2
3156,D4,216.375,0.125,45,162.2
3157,F4,216.375,0.125,45,162.2
3158,C#4,216.5,0.125,44,162.2
3159,E4,216.5,0.125,44,162.2
3160,C4,216.625,0.125,43,162.2
3161,E-4,216.625,0.125,43,162.2
3162,E4,216.75,0.125,49,162.2
3163,A3,216.75,0.125,49,162.2
3164,C4,216.75,0.125,49,162.2
3165,E3,216.75,0.125,48,162.2
3166,E2,216.75,0.125,48,162.2
3167,A2,216.75,0.125,48,162.2
3168,C3,216.75,0.125,48,162.2
3169,F4,216.875,0.125,44,162.2
3170,F3,216.875,0.125,41,162.2
3171,F#4,217.0,0.125,45,162.2
3172,F#3,217.0,0.125,42,162.2
3173,G4,217.125,0.125,45,162.2
3174,G3,217.125,0.125,42,162.2
3175,G#4,217.25,0.125,46,162.2
3176,G#3,217.25,0.125,43,162.2
3177,A4,217.375,0.125,47,162.2
3178,A3,217.375,0.125,44,162.2
3179,B-4,217.5,0.125,49,162.2
3180,B-3,217.5,0.125,45,162.2
3181,B4,217.625,0.125,49,162.2
3182,B3,217.625,0.125,45,162.2
3183,C5,217.75,0.125,51,162.2
3184,C4,217.75,0.125,45,162.2
3185,C#5,217.875,0.125,52,162.2
3186,C#4,217.875,0.125,46,162.2
3187,D5,218.0,0.125,53,162.2
3188,D4,218.0,0.125,47,162.2
3189,E-5,218.125,0.125,54,162.2
3190,E-4,218.125,0.125,48,162.2
3191,E5,218.25,0.125,54,162.2
3192,E4,218.25,0.125,49,162.2
3193,F5,218.375,0.125,55,162.2
3194,E-4,218.375,0.125,50,162.2
3195,F#5,218.5,0.125,56,162.2
3196,D4,218.5,0.125,51,162.2
3197,G5,218.625,0.125,57,162.2
3198,C#4,218.625,0.125,51,162.2
3199,G#5,218.75,0.125,58,162.2
3200,C4,218.75,0.125,52,162.2
3201,A5,218.875,0.125,59,162.2
3202,B3,218.875,0.125,53,162.2
3203,B-5,219.0,0.125,61,162.2
3204,B-3,219.0,0.125,54,162.2
3205,B5,219.125,0.125,61,162.2
3206,A3,219.125,0.125,54,162.2
3207,C6,219.25,0.125,63,162.2
3208,G#3,219.25,0.125,54,162.2
3209,C#6,219.375,0.125,63,162.2
3210,G3,219.375,0.125,55,162.2
3211,D6,219.5,0.125,64,162.2
3212,F#3,219.5,0.125,56,162.2
3213,E-6,219.625,0.125,65,162.2
3214,F3,219.625,0.125,57,162.2
3215,E6,219.75,0.125,66,162.2
3216,E3,219.75,0.125,58,162.2
3217,F6,219.875,0.125,67,162.2
3218,E-3,219.875,0.125,59,162.2
3219,F#6,220.0,0.125,68,162.2
3220,D3,220.0,0.125,59,162.2
3221,G6,220.125,0.125,69,162.2
3222,C#3,220.125,0.125,60,162.2
3223,G#6,220.25,0.125,70,162.2
3224,C3,220.25,0.125,61,162.2
3225,A6,220.375,0.125,71,162.2
3226,B2,220.375,0.125,62,162.2
3227,B-6,220.5,0.125,72,162.2
3228,B-2,220.5,0.125,63,162.2
3229,B6,220.625,0.125,72,162.2
3230,A2,220.625,0.125,63,162.2
3231,C7,220.75,0.125,74,162.2
3232,G#2,220.75,0.125,63,162.2
3233,C#7,220.875,0.125,75,162.2
3234,G2,220.875,0.125,64,162.2
3235,D7,221.0,0.125,76,162.2
3236,F#2,221.0,0.125,65,162.2
3237,E-7,221.125,0.125,77,162.2
3238,F2,221.125,0.125,66,162.2
3239,E7,221.25,0.25,78,162.2
3240,C7,221.25,0.25,78,162.2
3241,A6,221.25,0.25,78,162.2
3242,E6,221.25,0.25,78,162.2
3243,E3,221.25,0.25,70,162.2
3244,C3,221.25,0.25,70,162.2
3245,A2,221.25,0.25,70,162.2
3246,E2,221.25,0.25,70,162.2
3247,F7,222.25,0.25,74,162.2
3248,F6,222.25,0.25,74,162.2
3249,A6,222.25,0.25,74,162.2
3250,C7,222.25,0.25,74,162.2
3251,F3,222.25,0.25,69,162.2
3252,D2,222.25,0.25,69,162.2
3253,A2,222.25,0.25,69,162.2
3254,C3,222.25,0.25,69,162.2
3255,E-2,225.062,0.188,42,162.2
3256,B2,225.125,0.125,45,162.2
3257,F#3,225.188,0.062,47,162.2
3258,A3,225.219,0.031,49,162.2
3259,B3,225.219,0.031,49,162.2
3260,E-2,225.25,0.5,42,162.2
3261,B2,225.25,0.5,45,162.2
3262,F#3,225.25,0.5,47,162.2
3263,A3,225.25,1.844,49,162.2
3264,B3,225.25,1.844,49,162.2
3265,C3,225.5,0.25,56,162.2
3266,B2,225.75,0.25,59,162.2
3267,C3,226.0,0.25,56,162.2
3268,B2,226.25,229/1000,56,162.2
3269,E3,226.5,0.25,62,162.2
3270,D3,226.75,0.25,58,162.2
3271,C3,227.0,0.25,58,162.2
3272,E2,227.062,0.688,42,162.2
3273,B2,227.125,0.625,45,162.2
3274,E3,227.188,0.562,47,162.2
3275,A3,227.219,1.875,49,162.2
3276,B3,227.219,1.875,49,162.2
3277,C3,227.5,0.25,56,162.2
3278,B2,227.75,0.25,62,162.2
3279,C3,228.0,0.25,56,162.2
3280,B2,228.25,0.25,56,162.2
3281,E3,228.5,0.25,62,162.2
3282,D3,228.75,0.25,58,162.2
3283,C3,229.0,0.25,58,162.2
3284,A3,229.125,83/1000,56,162.2
3285,B3,229.125,83/1000,56,162.2
3286,F2,229.208,21/500,45,162.2
3287,B2,229.208,21/500,45,162.2
3288,D3,229.208,21/500,45,162.2
3289,A3,229.25,1.875,49,162.2
3290,B3,229.25,1.875,49,162.2
3291,F2,229.25,229/500,45,162.2
3292,B2,229.25,229/500,45,162.2
3293,D3,229.25,229/500,45,162.2
3294,C3,229.5,0.25,52,162.2
3295,B2,229.75,0.25,54,162.2
3296,C3,230.0,0.25,51,162.2
3297,B2,230.25,229/1000,51,162.2
3298,E3,230.5,0.25,57,162.2
3299,D3,230.75,0.25,54,162.2
3300,C3,231.0,0.25,54,162.2
3301,B2,231.25,0.25,45,162.2
3302,E3,231.5,0.25,54,162.2
3303,D3,231.75,0.25,51,162.2
3304,C3,232.0,0.25,45,162.2
3305,F2,232.062,0.625,34,162.2
3306,B2,232.125,0.625,36,162.2
3307,E-3,232.188,0.562,40,162.2
3308,A3,232.25,1.0,42,162.2
3309,B3,232.25,1.0,42,162.2
3310,C3,232.5,0.25,49,162.2
3311,B2,232.75,0.25,45,162.2
3312,C3,233.0,0.25,45,162.2
3313,E2,233.25,0.469,34,162.2
3314,B2,233.25,0.469,34,162.2
3315,E3,233.312,0.375,36,162.2
3316,G#3,233.312,0.375,36,162.2
3317,B3,233.375,0.375,40,162.2
3318,B4,234.25,0.5,36,162.2
3319,G#4,234.25,0.5,36,162.2
3320,G#4,234.75,0.25,35,162.2
3321,E4,234.75,0.25,35,162.2
3322,D5,235.25,0.75,35,162.2
3323,B4,235.25,0.75,35,162.2
3324,E5,236.0,83/1000,35,162.2
3325,C#5,236.0,83/1000,35,162.2
3326,D5,236.083,83/1000,32,162.2
3327,B4,236.083,83/1000,32,162.2
3328,C#5,236.167,83/1000,32,162.2
3329,A4,236.167,83/1000,32,162.2
3330,G#4,236.25,0.5,30,162.2
3331,B4,236.25,0.5,30,162.2
3332,D5,238.25,0.5,40,162.2
3333,B4,238.25,0.5,40,162.2
3334,B4,238.75,0.25,35,162.2
3335,G#4,238.75,0.25,35,162.2
3336,F#5,239.25,0.75,35,162.2
3337,D5,239.25,0.75,35,162.2
3338,G#5,240.0,83/1000,33,162.2
3339,E5,240.0,83/1000,33,162.2
3340,F#5,240.083,83/1000,30,162.2
3341,D5,240.083,83/1000,30,162.2
3342,E5,240.167,83/1000,32,162.2
3343,C#5,240.167,83/1000,32,162.2
3344,D5,240.25,0.75,34,162.2
3345,B5,240.25,0.75,38,162.2
3346,F#5,240.25,0.75,38,162.2
3347,E5,241.0,83/1000,32,162.2
3348,C#6,241.0,83/1000,38,162.2
3349,G#5,241.0,83/1000,38,162.2
3350,D5,241.083,83/1000,28,162.2
3351,B5,241.083,83/1000,33,162.2
3352,F#5,241.083,83/1000,33,162.2
3353,C#5,241.167,83/1000,28,162.2
3354,A5,241.167,83/1000,33,162.2
3355,E5,241.167,83/1000,33,162.2
3356,B4,241.25,0.75,36,162.2
3357,D6,241.25,0.75,42,162.2
3358,G#5,241.25,0.75,42,162.2
3359,E6,242.0,83/1000,47,162.2
3360,C#5,242.0,83/1000,36,162.2
3361,D6,242.083,83/1000,40,162.2
3362,B4,242.083,83/1000,32,162.2
3363,C#6,242.167,83/1000,40,162.2
3364,A4,242.167,83/1000,32,162.2
3365,F#6,242.25,1.0,45,162.2
3366,B5,242.25,1.0,45,162.2
3367,D4,242.25,1.0,38,162.2
3368,G#4,242.25,1.0,38,162.2
3369,F#6,243.5,0.25,45,162.2
3370,B5,243.5,0.25,45,162.2
3371,D4,243.5,0.25,38,162.2
3372,G#4,243.5,0.25,38,162.2
3373,F6,243.75,0.188,38,162.2
3374,B5,243.75,0.188,38,162.2
3375,C#4,243.75,0.188,34,162.2
3376,G#4,243.75,0.188,34,162.2
3377,F6,244.0,0.188,43,162.2
3378,B5,244.0,0.188,43,162.2
3379,C#4,244.0,0.188,38,162.2
3380,G#4,244.0,0.188,38,162.2
3381,E6,244.25,0.188,38,162.2
3382,B5,244.25,0.188,38,162.2
3383,G4,244.25,0.188,35,162.2
3384,C#5,244.25,0.188,35,162.2
3385,B5,244.5,0.188,43,162.2
3386,E6,244.5,0.188,43,162.2
3387,G4,244.5,0.188,38,162.2
3388,C#5,244.5,0.188,38,162.2
3389,B-5,244.75,0.188,38,162.2
3390,E6,244.75,0.188,38,162.2
3391,F#4,244.75,0.188,34,162.2
3392,C#5,244.75,0.188,34,162.2
3393,B-5,245.0,0.188,42,162.2
3394,E6,245.0,0.188,42,162.2
3395,F#4,245.0,0.188,38,162.2
3396,C#5,245.0,0.188,38,162.2
3397,A5,245.25,0.188,38,162.2
3398,E6,245.25,0.188,38,162.2
3399,C5,245.25,0.125,36,162.2
3400,F#5,245.25,0.125,36,162.2
3401,C5,245.375,0.125,38,162.2
3402,F#5,245.375,0.125,38,162.2
3403,A5,245.458,21/500,44,162.2
3404,E6,245.458,21/500,44,162.2
3405,A5,245.5,1.125,44,162.2
3406,E6,245.5,1.125,44,162.2
3407,C5,245.5,1.125,38,162.2
3408,F#5,245.5,1.125,38,162.2
3409,A5,246.667,167/1000,46,162.2
3410,E-6,246.667,167/1000,46,162.2
3411,B4,246.667,167/1000,36,162.2
3412,F#5,246.667,167/1000,36,162.2
3413,G#5,246.833,167/1000,39,162.2
3414,D6,246.833,333/1000,43,162.2
3415,B4,246.833,167/1000,32,162.2
3416,F5,246.833,167/1000,32,162.2
3417,G5,247.0,167/1000,45,162.2
3418,C5,247.0,167/1000,36,162.2
3419,E5,247.0,167/1000,36,162.2
3420,G5,247.167,167/1000,36,162.2
3421,C#6,247.167,333/1000,41,162.2
3422,B-4,247.167,167/1000,31,162.2
3423,E5,247.167,167/1000,31,162.2
3424,F#5,247.333,167/1000,44,162.2
3425,B4,247.333,167/1000,36,162.2
3426,E-5,247.333,167/1000,36,162.2
3427,F5,247.5,167/1000,36,162.2
3428,B5,247.5,333/1000,42,162.2
3429,G#4,247.5,167/1000,33,162.2
3430,D5,247.5,167/1000,33,162.2
3431,E5,247.667,167/1000,46,162.2
3432,A4,247.667,167/1000,36,162.2
3433,C#5,247.667,167/1000,36,162.2
3434,E5,247.833,167/1000,35,162.2
3435,A5,247.833,333/1000,41,162.2
3436,F#4,247.833,167/1000,32,162.2
3437,C5,247.833,167/1000,32,162.2
3438,D5,248.0,167/1000,44,162.2
3439,G4,248.0,167/1000,36,162.2
3440,B4,248.0,167/1000,36,162.2
3441,D5,248.167,167/1000,33,162.2
3442,G5,248.167,333/1000,37,162.2
3443,E4,248.167,167/1000,32,162.2
3444,B-4,248.167,167/1000,32,162.2
3445,C5,248.333,13/125,38,162.2
3446,F4,248.333,13/125,36,162.2
3447,A4,248.333,13/125,36,162.2
3448,B4,248.438,0.188,38,162.2
3449,G5,248.5,0.125,38,162.2
3450,D4,248.5,0.125,33,162.2
3451,A4,248.5,0.125,33,162.2
3452,F5,248.75,9/40,38,162.2
3453,B4,248.75,9/40,38,162.2
3454,A4,248.75,9/40,35,162.2
3455,D4,248.75,9/40,35,162.2
3456,E5,249.0,9/40,38,162.2
3457,B4,249.0,9/40,38,162.2
3458,A4,249.0,9/40,35,162.2
3459,E4,249.0,9/40,35,162.2
3460,D5,249.25,9/40,36,162.2
3461,B4,249.25,9/40,36,162.2
3462,A4,249.25,9/40,34,162.2
3463,F4,249.25,9/40,34,162.2
3464,G#5,250.5,9/40,38,162.2
3465,B4,250.5,9/40,38,162.2
3466,A4,250.5,9/40,34,162.2
3467,D4,250.5,9/40,34,162.2
3468,F#5,250.75,9/40,38,162.2
3469,B4,250.75,9/40,38,162.2
3470,A4,250.75,9/40,33,162.2
3471,D4,250.75,9/40,33,162.2
3472,E5,251.0,9/40,37,162.2
3473,B4,251.0,9/40,37,162.2
3474,A4,251.0,9/40,33,162.2
3475,E4,251.0,9/40,33,162.2
3476,D5,251.25,14/125,36,162.2
3477,B4,251.25,14/125,36,162.2
3478,A4,251.25,14/125,31,162.2
3479,F#4,251.25,14/125,31,162.2
3480,G#4,251.375,0.125,34,162.2
3481,B4,251.438,0.062,35,162.2
3482,F#4,251.5,667/1000,38,162.2
3483,D5,251.5,1.0,38,162.2
3484,G#4,251.5,1.0,34,162.2
3485,B4,251.5,1.0,35,162.2
3486,F4,252.167,333/1000,34,162.2
3487,E4,252.5,333/1000,36,162.2
3488,G#4,252.5,333/1000,36,162.2
3489,C#5,252.5,333/1000,36,162.2
3490,E-4,252.833,333/1000,34,162.2
3491,G#4,252.833,333/1000,34,162.2
3492,C5,252.833,333/1000,34,162.2
3493,E3,253.333,13/125,35,162.2
3494,D4,253.333,13/125,35,162.2
3495,G#4,253.333,13/125,35,162.2
3496,B4,253.333,13/125,35,162.2
3497,A2,253.438,0.062,35,162.2
3498,C#3,253.438,0.062,35,162.2
3499,A3,253.5,0.5,44,162.2
3500,A2,253.5,0.469,35,162.2
3501,C#3,253.5,0.469,35,162.2
3502,A3,254.0,0.25,42,162.2
3503,A4,254.0,0.25,25,162.2
3504,E4,254.0,0.25,25,162.2
3505,C#4,254.0,0.25,25,162.2
3506,B3,254.25,0.188,37,162.2
3507,A2,254.438,0.531,35,162.2
3508,E3,254.438,0.531,35,162.2
3509,C#4,254.5,0.5,45,162.2
3510,A3,255.0,0.438,42,162.2
3511,A4,255.0,0.25,25,162.2
3512,C#4,255.0,0.25,25,162.2
3513,E4,255.0,0.25,25,162.2
3514,D2,255.438,0.062,31,162.2
3515,F#3,255.5,0.5,42,162.2
3516,D2,255.5,0.5,31,162.2
3517,B3,256.0,497/500,44,162.2
3518,B4,256.0,0.25,30,162.2
3519,D4,256.0,0.25,30,162.2
3520,F#4,256.0,0.25,30,162.2
3521,E-2,256.5,0.5,31,162.2
3522,A3,257.0,0.438,43,162.2
3523,F#4,257.0,0.25,28,162.2
3524,B3,257.0,0.25,28,162.2
3525,E2,257.438,0.062,31,162.2
3526,G#3,257.5,0.375,44,162.2
3527,E2,257.5,0.5,31,162.2
3528,G#3,257.906,0.312,24,162.2
3529,B3,257.906,0.312,24,162.2
3530,E4,257.969,0.25,26,162.2
3531,G#4,257.969,0.25,26,162.2
3532,G#3,258.25,0.25,40,162.2
3533,B2,258.5,0.5,31,162.2
3534,A3,258.5,0.75,43,162.2
3535,B3,259.0,0.5,44,162.2
3536,F#4,259.0,0.25,27,162.2
3537,E-4,259.0,0.25,27,162.2
3538,E2,259.5,0.5,31,162.2
3539,E3,259.5,2.0,45,162.2
3540,E4,259.5,0.5,27,162.2
3541,G#3,259.5,0.5,27,162.2
3542,E5,260.0,249/250,28,162.2
3543,E4,260.0,249/250,28,162.2
3544,D5,260.0,0.5,30,162.2
3545,B4,260.0,0.5,30,162.2
3546,B3,260.0,0.5,24,162.2
3547,G#3,260.0,0.5,24,162.2
3548,C#5,260.5,0.5,30,162.2
3549,A4,260.5,0.5,30,162.2
3550,C#4,260.5,0.5,22,162.2
3551,A3,260.5,0.5,22,162.2
3552,E5,261.0,0.5,28,162.2
3553,G#4,261.0,0.5,28,162.2
3554,D4,261.0,0.5,28,162.2
3555,E4,261.0,0.5,21,162.2
3556,B3,261.0,0.5,21,162.2
3557,A2,261.438,0.062,35,162.2
3558,C#3,261.438,0.062,35,162.2
3559,A3,261.5,0.5,44,162.2
3560,A2,261.5,0.469,35,162.2
3561,C#3,261.5,0.469,35,162.2
3562,A3,262.0,0.25,42,162.2
3563,A4,262.0,0.25,25,162.2
3564,E4,262.0,0.25,25,162.2
3565,C#4,262.0,0.25,25,162.2
3566,B3,262.25,0.188,35,162.2
3567,A2,262.438,0.531,35,162.2
3568,E3,262.438,0.531,35,162.2
3569,C#4,262.5,62/125,45,162.2
3570,A3,263.0,0.438,42,162.2
3571,A4,263.0,0.25,25,162.2
3572,C#4,263.0,0.25,25,162.2
3573,E4,263.0,0.25,25,162.2
3574,D2,263.438,0.062,31,162.2
3575,F#3,263.5,0.5,42,162.2
3576,D2,263.5,0.5,31,162.2
3577,B3,264.0,1.0,40,162.2
3578,B4,264.0,0.25,30,162.2
3579,D4,264.0,0.25,30,162.2
3580,F#4,264.0,0.25,30,162.2
3581,D2,264.5,0.5,31,162.2
3582,A3,265.0,0.438,43,162.2
3583,B4,265.0,0.25,30,162.2
3584,F#4,265.0,0.25,30,162.2
3585,D4,265.0,0.25,30,162.2
3586,E2,265.5,0.5,31,162.2
3587,A3,265.5,0.25,44,162.2
3588,G#3,265.75,0.25,44,162.2
3589,F#3,266.0,0.188,44,162.2
3590,B3,266.0,0.25,25,162.2
3591,D4,266.0,0.25,25,162.2
3592,G#4,266.0,0.25,25,162.2
3593,E3,266.25,0.188,40,162.2
3594,E2,266.5,0.5,31,162.2
3595,E3,266.5,1/10,43,162.2
3596,F#3,266.6,1/10,43,162.2
3597,E3,266.7,1/10,43,162.2
3598,E-3,266.8,1/10,43,162.2
3599,E3,266.9,1/10,43,162.2
3600,F#3,267.0,0.188,44,162.2
3601,B3,267.0,0.25,26,162.2
3602,E4,267.0,0.25,26,162.2
3603,D4,267.0,0.25,26,162.2
3604,G#3,267.25,0.188,44,162.2
3605,E4,267.5,0.5,27,162.2
3606,C#4,267.5,0.5,27,162.2
3607,A2,267.5,0.5,38,162.2
3608,A3,267.5,0.5,38,162.2
3609,E6,268.0,0.5,36,162.2
3610,E5,268.0,0.5,36,162.2
3611,E4,268.0,0.5,26,162.2
3612,C#4,268.0,0.5,26,162.2
3613,F#5,268.5,0.5,34,162.2
3614,D6,268.5,0.5,34,162.2
3615,D5,268.5,0.5,34,162.2
3616,F#4,268.5,0.5,24,162.2
3617,B3,268.5,0.5,24,162.2
3618,B4,269.0,0.5,31,162.2
3619,B5,269.0,0.5,31,162.2
3620,D5,269.0,0.5,31,162.2
3621,G#4,269.0,0.5,23,162.2
3622,E3,269.0,0.5,23,162.2
3623,E4,269.375,0.125,40,162.2
3624,A4,269.5,0.75,50,162.2
3625,A2,269.5,0.25,33,162.2
3626,C#4,270.0,0.25,32,162.2
3627,E4,270.0,0.25,32,162.2
3628,A3,270.0,0.25,26,162.2
3629,E3,270.0,0.25,26,162.2
3630,B4,270.25,0.188,43,162.2
3631,C#5,270.5,0.75,51,162.2
3632,A1,270.5,0.25,34,162.2
3633,C#4,271.0,0.25,32,162.2
3634,E4,271.0,0.25,32,162.2
3635,A3,271.0,0.25,26,162.2
3636,E3,271.0,0.25,26,162.2
3637,A4,271.25,0.25,47,162.2
3638,F#4,271.5,0.5,47,162.2
3639,D2,271.5,0.25,33,162.2
3640,D4,271.938,0.312,37,162.2
3641,B4,272.0,1.0,50,162.2
3642,B3,272.0,0.25,26,162.2
3643,F#3,272.0,0.25,26,162.2
3644,E-2,272.5,0.25,34,162.2
3645,F#4,273.0,0.25,37,162.2
3646,A4,273.0,0.5,49,162.2
3647,B3,273.0,0.25,26,162.2
3648,E-3,273.0,0.25,26,162.2
3649,G#4,273.5,0.75,50,162.2
3650,E2,273.5,0.25,33,162.2
3651,B3,274.0,0.25,33,162.2
3652,E4,274.0,0.25,33,162.2
3653,G#3,274.0,0.25,26,162.2
3654,E3,274.0,0.25,26,162.2
3655,G#4,274.25,0.25,45,162.2
3656,A4,274.5,0.75,49,162.2
3657,B1,274.5,0.25,34,162.2
3658,B4,275.0,0.5,50,162.2
3659,A3,275.0,0.25,36,162.2
3660,E-4,275.0,0.25,36,162.2
3661,F#3,275.0,0.25,26,162.2
3662,B2,275.0,0.25,26,162.2
3663,E2,275.344,0.156,31,162.2
3664,B2,275.344,0.156,31,162.2
3665,E3,275.406,0.094,41,162.2
3666,G#3,275.438,0.062,25,162.2
3667,E4,275.469,0.031,37,162.2
3668,B4,275.469,0.031,37,162.2
3669,G#3,275.5,0.5,25,162.2
3670,E3,275.5,0.5,41,162.2
3671,E4,275.5,0.219,37,162.2
3672,B4,275.5,0.219,37,162.2
3673,E2,275.5,0.469,31,162.2
3674,B2,275.5,0.469,31,162.2
3675,E4,275.75,0.25,42,162.2
3676,E3,276.0,1.0,22,162.2
3677,E5,276.0,1.0,28,162.2
3678,E4,276.0,1.0,28,162.2
3679,D5,276.0,0.5,30,162.2
3680,B4,276.0,0.5,30,162.2
3681,B3,276.0,0.5,24,162.2
3682,G#3,276.0,0.5,24,162.2
3683,C#5,276.5,0.312,30,162.2
3684,A4,276.5,0.312,30,162.2
3685,C#4,276.5,0.312,22,162.2
3686,A3,276.5,0.312,22,162.2
3687,E3,276.812,0.656,19,162.2
3688,B3,276.812,0.656,19,162.2
3689,E4,276.875,0.625,23,162.2
3690,D4,276.906,0.562,25,162.2
3691,G#4,276.906,0.562,25,162.2
3692,B4,276.969,0.5,28,162.2
3693,D5,276.969,0.5,28,162.2
3694,E4,277.375,0.125,40,162.2
3695,A4,277.5,0.75,50,162.2
3696,A2,277.5,0.25,33,162.2
3697,C#4,278.0,0.25,32,162.2
3698,E4,278.0,0.25,32,162.2
3699,A3,278.0,0.25,26,162.2
3700,E3,278.0,0.25,26,162.2
3701,B4,278.25,0.188,43,162.2
3702,C#5,278.5,0.75,51,162.2
3703,A1,278.5,0.25,34,162.2
3704,C#4,279.0,0.25,32,162.2
3705,E4,279.0,0.25,32,162.2
3706,A3,279.0,0.25,26,162.2
3707,E3,279.0,0.25,26,162.2
3708,A4,279.25,0.25,47,162.2
3709,F#4,279.5,0.5,47,162.2
3710,D2,279.5,0.25,33,162.2
3711,D4,280.0,0.25,37,162.2
3712,B4,280.0,1.0,50,162.2
3713,B3,280.0,0.25,26,162.2
3714,F#3,280.0,0.25,26,162.2
3715,D2,280.5,0.25,34,162.2
3716,F#4,281.0,0.25,37,162.2
3717,A4,281.0,0.5,49,162.2
3718,D3,281.0,0.25,26,162.2
3719,B3,281.0,0.25,26,162.2
3720,A4,281.5,0.25,47,162.2
3721,E2,281.5,0.25,33,162.2
3722,G#4,281.75,0.25,47,162.2
3723,B3,282.0,0.188,38,162.2
3724,D4,282.0,0.188,38,162.2
3725,F#4,282.0,0.188,38,162.2
3726,G#3,282.0,0.25,26,162.2
3727,E3,282.0,0.25,26,162.2
3728,E4,282.25,0.188,44,162.2
3729,E4,282.5,1/10,46,162.2
3730,E2,282.5,0.25,34,162.2
3731,F#4,282.6,1/10,46,162.2
3732,E4,282.7,1/10,46,162.2
3733,E-4,282.8,1/10,46,162.2
3734,E4,282.9,1/10,46,162.2
3735,D4,283.0,0.188,42,162.2
3736,F#4,283.0,0.188,42,162.2
3737,B3,283.0,0.25,26,162.2
3738,E3,283.0,0.25,26,162.2
3739,G#4,283.25,0.188,47,162.2
3740,A4,283.5,0.188,47,162.2
3741,C#2,283.5,0.25,33,162.2
3742,C#5,283.75,0.188,49,162.2
3743,E4,284.0,0.25,37,162.2
3744,E5,284.0,1.0,54,162.2
3745,E3,284.0,0.25,25,162.2
3746,C#4,284.0,0.25,25,162.2
3747,A3,284.0,0.25,25,162.2
3748,G#1,284.5,0.25,44,162.2
3749,B4,285.0,0.5,49,162.2
3750,D4,285.0,0.25,37,162.2
3751,E4,285.0,0.25,37,162.2
3752,E3,285.0,0.25,26,162.2
3753,B3,285.0,0.25,26,162.2
3754,D5,285.5,0.25,47,162.2
3755,A1,285.5,0.25,33,162.2
3756,C#5,285.75,0.25,47,162.2
3757,C#4,286.0,0.188,38,162.2
3758,E4,286.0,0.188,38,162.2
3759,B4,286.0,0.188,38,162.2
3760,A3,286.0,0.25,26,162.2
3761,E3,286.0,0.25,26,162.2
3762,A4,286.25,0.188,44,162.2
3763,A4,286.5,73/1000,46,162.2
3764,E2,286.5,0.25,34,162.2
3765,A4,286.583,83/1000,43,162.2
3766,B4,286.667,1/10,43,162.2
3767,A4,286.75,83/1000,43,162.2
3768,G#4,286.833,83/1000,43,162.2
3769,A4,286.917,83/1000,43,162.2
3770,D4,287.0,0.188,42,162.2
3771,C#5,287.0,0.188,42,162.2
3772,A3,287.0,0.25,25,162.2
3773,E4,287.0,0.25,25,162.2
3774,E3,287.0,0.25,25,162.2
3775,B4,287.375,0.125,45,162.2
3776,A4,287.5,0.25,44,162.2
3777,C#4,287.5,0.25,44,162.2
3778,A3,287.5,0.25,32,162.2
3779,A2,287.5,0.25,32,162.2
3780,E3,287.5,0.25,32,162.2
3781,C#7,288.0,0.25,39,162.2
3782,C#6,288.0,0.25,39,162.2
3783,E6,288.0,0.25,39,162.2
3784,C#5,288.0,0.25,25,162.2
3785,A3,288.0,0.25,25,162.2
3786,E4,288.0,0.25,25,162.2
3787,A6,288.5,0.25,39,162.2
3788,A5,288.5,0.25,39,162.2
3789,C#6,288.5,0.25,39,162.2
3790,A4,288.5,0.25,25,162.2
3791,A3,288.5,0.25,25,162.2
3792,C#4,288.5,0.25,25,162.2
3793,E2,289.5,0.25,33,162.2
3794,B3,289.5,0.5,49,162.2
3795,G#3,289.5,0.5,49,162.2
3796,G#3,290.0,0.25,50,162.2
3797,B4,290.0,0.25,29,162.2
3798,E4,290.0,0.25,29,162.2
3799,G#4,290.0,0.25,29,162.2
3800,E3,290.25,0.188,47,162.2
3801,E2,290.5,0.25,33,162.2
3802,C#4,290.5,0.5,49,162.2
3803,A3,290.5,0.5,49,162.2
3804,E4,291.0,0.25,47,162.2
3805,C#4,291.0,0.25,47,162.2
3806,C#5,291.0,0.25,30,162.2
3807,A4,291.0,0.25,30,162.2
3808,C#4,291.25,0.188,44,162.2
3809,A3,291.25,0.188,44,162.2
3810,E2,291.5,0.25,33,162.2
3811,B3,291.5,0.75,50,162.2
3812,G#3,291.5,0.75,50,162.2
3813,B3,291.938,0.281,27,162.2
3814,G#4,291.938,0.281,27,162.2
3815,E5,292.0,0.25,33,162.2
3816,G#3,292.25,0.25,44,162.2
3817,E3,292.25,0.25,44,162.2
3818,E4,292.438,0.281,27,162.2
3819,B4,292.438,0.281,27,162.2
3820,G#5,292.5,0.25,33,162.2
3821,B3,292.5,0.25,46,162.2
3822,G#3,292.5,0.25,46,162.2
3823,G#4,292.938,0.281,27,162.2
3824,E5,292.938,0.281,27,162.2
3825,B5,293.0,0.25,33,162.2
3826,B4,293.25,0.25,44,162.2
3827,F#4,293.5,1729/1000,33,162.2
3828,B-4,293.5,0.25,51,162.2
3829,E-3,293.5,2.0,30,162.2
3830,B3,293.5,2.0,30,162.2
3831,B4,293.75,0.25,45,162.2
3832,C#5,294.0,0.25,49,162.2
3833,B4,294.25,0.25,45,162.2
3834,B-4,294.5,0.25,48,162.2
3835,B4,294.75,0.25,45,162.2
3836,A4,295.0,0.25,48,162.2
3837,F#4,295.25,0.25,45,162.2
3838,E4,295.5,0.5,48,162.2
3839,G#4,295.5,0.5,48,162.2
3840,E3,295.5,0.25,30,162.2
3841,B3,295.5,0.25,30,162.2
3842,G#6,296.0,0.125,34,162.2
3843,E6,296.0,0.125,34,162.2
3844,E4,296.0,0.25,30,162.2
3845,B4,296.0,0.25,30,162.2
3846,G#5,296.0,0.25,30,162.2
3847,A6,296.125,0.125,35,162.2
3848,F#6,296.125,0.125,35,162.2
3849,B6,296.25,0.125,38,162.2
3850,G#6,296.25,0.125,38,162.2
3851,A6,296.375,0.125,36,162.2
3852,F#6,296.375,0.125,36,162.2
3853,G#6,296.5,0.25,35,162.2
3854,E6,296.5,0.25,35,162.2
3855,E4,296.5,0.25,31,162.2
3856,G#4,296.5,0.25,31,162.2
3857,E5,296.5,0.25,31,162.2
3858,E2,297.5,0.25,33,162.2
3859,B3,297.5,0.5,49,162.2
3860,G#3,297.5,0.5,49,162.2
3861,G#3,298.0,0.25,50,162.2
3862,B4,298.0,0.25,29,162.2
3863,E4,298.0,0.25,29,162.2
3864,G#4,298.0,0.25,29,162.2
3865,E3,298.25,0.188,47,162.2
3866,E2,298.5,0.25,33,162.2
3867,A3,298.5,73/1000,38,162.2
3868,C#4,298.5,73/1000,38,162.2
3869,A3,298.583,83/1000,33,162.2
3870,C#4,298.583,83/1000,33,162.2
3871,B3,298.667,83/1000,36,162.2
3872,E-4,298.667,83/1000,36,162.2
3873,A3,298.75,83/1000,33,162.2
3874,C#4,298.75,83/1000,33,162.2
3875,G#3,298.833,83/1000,38,162.2
3876,C4,298.833,83/1000,38,162.2
3877,A3,298.917,0.062,33,162.2
3878,C#4,298.917,0.062,33,162.2
3879,C#4,298.979,0.25,47,162.2
3880,E4,298.979,0.25,47,162.2
3881,C#5,299.0,0.25,30,162.2
3882,A4,299.0,0.25,30,162.2
3883,C#4,299.25,0.188,44,162.2
3884,A3,299.25,0.188,44,162.2
3885,E2,299.5,0.25,33,162.2
3886,B3,299.5,0.75,50,162.2
3887,G#3,299.5,0.75,50,162.2
3888,B3,299.938,0.281,27,162.2
3889,G#4,299.938,0.281,27,162.2
3890,E5,300.0,0.25,33,162.2
3891,G#3,300.25,0.25,44,162.2
3892,E3,300.25,0.25,44,162.2
3893,E4,300.438,0.281,27,162.2
3894,B4,300.438,0.281,27,162.2
3895,G#5,300.5,0.25,33,162.2
3896,B3,300.5,0.25,46,162.2
3897,G#3,300.5,0.25,46,162.2
3898,G#4,300.938,0.281,27,162.2
3899,E5,300.938,0.281,27,162.2
3900,B5,301.0,0.25,33,162.2
3901,B4,301.25,0.25,44,162.2
3902,F#4,301.5,2.0,33,162.2
3903,B4,301.5,0.5,44,162.2
3904,E-3,301.5,2.0,30,162.2
3905,B3,301.5,2.0,30,162.2
3906,B4,302.0,0.25,49,162.2
3907,B4,302.25,0.25,45,162.2
3908,B-4,302.5,0.25,48,162.2
3909,B4,302.75,0.25,45,162.2
3910,A4,303.0,0.25,48,162.2
3911,B4,303.25,0.25,45,162.2
3912,E4,303.5,1.0,33,162.2
3913,G#4,303.5,0.25,51,162.2
3914,E3,303.5,0.5,30,162.2
3915,B3,303.5,0.5,30,162.2
3916,B4,303.75,0.25,45,162.2
3917,B4,304.0,0.125,45,162.2
3918,B4,304.25,0.125,45,162.2
3919,F#4,304.5,1.0,33,162.2
3920,B-4,304.5,0.25,48,162.2
3921,E-3,304.5,1.0,27,162.2
3922,B3,304.5,1.0,33,162.2
3923,B4,304.75,0.25,45,162.2
3924,A4,305.0,0.25,48,162.2
3925,B4,305.25,0.25,45,162.2
3926,E4,305.5,1.0,33,162.2
3927,G#4,305.5,0.25,51,162.2
3928,E3,305.5,0.5,27,162.2
3929,B3,305.5,0.5,33,162.2
3930,B4,305.75,0.25,45,162.2
3931,B4,306.0,0.125,45,162.2
3932,B4,306.25,0.125,45,162.2
3933,B-4,306.5,167/1000,48,162.2
3934,F#4,306.5,1.0,33,162.2
3935,E-3,306.5,1.0,30,162.2
3936,B3,306.5,1.0,30,162.2
3937,C#5,306.667,167/1000,45,162.2
3938,B4,306.833,167/1000,45,162.2
3939,A4,307.0,167/1000,48,162.2
3940,C#5,307.167,167/1000,44,162.2
3941,B4,307.333,167/1000,44,162.2
3942,E4,307.5,0.5,54,162.2
3943,G#4,307.5,0.5,54,162.2
3944,E3,307.5,0.5,33,162.2
3945,B3,307.5,0.5,33,162.2
3946,E4,308.0,0.25,46,162.2
3947,G#3,308.0,0.25,30,162.2
3948,E2,308.5,0.25,35,162.2
3949,G#3,308.5,0.5,53,162.2
3950,B3,308.5,0.5,53,162.2
3951,E3,309.0,0.25,48,162.2
3952,G#3,309.0,0.25,48,162.2
3953,G#4,309.0,0.5,33,162.2
3954,B4,309.0,0.5,33,162.2
3955,E2,309.5,0.25,37,162.2
3956,B3,309.5,1.0,55,162.2
3957,D4,309.5,1.0,55,162.2
3958,D5,309.75,0.5,47,162.2
3959,B4,309.75,0.5,47,162.2
3960,C#5,310.25,83/1000,44,162.2
3961,E5,310.25,83/1000,44,162.2
3962,B4,310.333,83/1000,41,162.2
3963,D5,310.333,83/1000,41,162.2
3964,C#5,310.417,83/1000,41,162.2
3965,A4,310.417,83/1000,41,162.2
3966,E3,310.5,0.25,48,162.2
3967,B3,310.5,0.25,48,162.2
3968,G#4,310.5,0.125,44,162.2
3969,B4,310.5,0.125,44,162.2
3970,F#4,310.75,0.125,40,162.2
3971,D5,310.75,0.125,40,162.2
3972,E4,311.0,0.125,44,162.2
3973,C#5,311.0,0.125,44,162.2
3974,D4,311.25,0.125,40,162.2
3975,B4,311.25,0.125,40,162.2
3976,A3,311.5,0.5,47,162.2
3977,C#4,311.5,0.25,33,162.2
3978,A4,311.5,0.25,33,162.2
3979,A3,312.0,0.188,46,162.2
3980,E4,312.0,0.25,28,162.2
3981,C#4,312.0,0.25,28,162.2
3982,A4,312.0,0.25,28,162.2
3983,B3,312.25,0.188,42,162.2
3984,C#4,312.5,0.5,47,162.2
3985,A2,312.5,0.25,34,162.2
3986,A3,313.0,0.438,43,162.2
3987,C#4,313.0,0.25,28,162.2
3988,E4,313.0,0.25,28,162.2
3989,A4,313.0,0.25,28,162.2
3990,F#3,313.5,0.5,43,162.2
3991,D2,313.5,0.25,36,162.2
3992,B3,314.0,1.0,48,162.2
3993,D4,314.0,0.5,31,162.2
3994,F#4,314.0,0.5,31,162.2
3995,B4,314.0,0.5,31,162.2
3996,E-2,314.5,0.25,42,162.2
3997,A4,315.0,0.5,42,162.2
3998,B3,315.0,0.25,42,162.2
3999,F#4,315.0,0.25,42,162.2
4000,E-3,315.0,0.25,31,162.2
4001,F#3,315.0,0.25,31,162.2
4002,G#4,315.5,0.75,48,162.2
4003,E2,315.5,0.25,36,162.2
4004,B3,316.0,0.25,33,162.2
4005,E4,316.0,0.25,33,162.2
4006,E3,316.0,0.25,31,162.2
4007,G#3,316.0,0.25,31,162.2
4008,G#4,316.25,0.25,42,162.2
4009,A4,316.5,0.5,44,162.2
4010,B1,316.5,0.25,36,162.2
4011,A3,316.938,0.281,46,162.2
4012,E-4,316.938,0.281,46,162.2
4013,B4,317.0,0.5,46,162.2
4014,B2,317.0,0.25,31,162.2
4015,F#3,317.0,0.25,31,162.2
4016,G#3,317.438,0.062,25,162.2
4017,E4,317.469,0.031,37,162.2
4018,B4,317.469,0.031,37,162.2
4019,G#3,317.5,0.5,25,162.2
4020,E2,317.5,0.5,31,162.2
4021,E4,317.5,0.219,37,162.2
4022,B4,317.5,0.219,37,162.2
4023,E4,317.75,0.25,42,162.2
4024,B3,318.0,0.5,30,162.2
4025,G#3,318.0,1.0,25,162.2
4026,D6,318.0,0.5,33,162.2
4027,D5,318.0,0.5,33,162.2
4028,B5,318.0,0.5,33,162.2
4029,C#5,318.5,0.5,33,162.2
4030,C#6,318.5,0.5,33,162.2
4031,A5,318.5,0.5,33,162.2
4032,C#4,318.5,0.5,26,162.2
4033,A3,318.5,0.5,26,162.2
4034,B4,319.0,0.5,29,162.2
4035,B5,319.0,0.5,29,162.2
4036,G#5,319.0,0.5,29,162.2
4037,E3,319.0,0.5,23,162.2
4038,B3,319.0,0.5,23,162.2
4039,D4,319.0,0.5,23,162.2
4040,A2,319.438,0.062,35,162.2
4041,C#3,319.438,0.062,35,162.2
4042,A3,319.5,0.5,44,162.2
4043,A2,319.5,0.469,35,162.2
4044,C#3,319.5,0.469,35,162.2
4045,A3,320.0,0.25,42,162.2
4046,A4,320.0,0.25,25,162.2
4047,E4,320.0,0.25,25,162.2
4048,C#4,320.0,0.25,25,162.2
4049,B3,320.25,0.188,37,162.2
4050,A2,320.5,247/500,38,162.2
4051,E3,320.5,247/500,38,162.2
4052,C#4,320.5,247/500,38,162.2
4053,A3,321.0,0.438,42,162.2
4054,A4,321.0,0.25,25,162.2
4055,C#4,321.0,0.25,25,162.2
4056,E4,321.0,0.25,25,162.2
4057,F#2,321.438,0.062,38,162.2
4058,D4,321.5,1.5,41,162.2
4059,A3,321.5,1.5,45,162.2
4060,F#2,321.5,1.5,38,162.2
4061,A4,321.75,1.25,47,162.2
4062,D5,322.0,1.0,49,162.2
4063,D5,323.25,0.25,47,162.2
4064,D5,323.5,0.25,47,162.2
4065,D4,323.5,2.0,33,162.2
4066,E4,323.5,2.0,33,162.2
4067,E3,323.5,2.0,31,162.2
4068,B3,323.5,2.0,31,162.2
4069,G#4,323.75,0.25,47,162.2
4070,G#4,324.0,0.188,47,162.2
4071,G#4,324.25,0.188,44,162.2
4072,G#4,324.5,73/1000,46,162.2
4073,G#4,324.583,73/1000,43,162.2
4074,A4,324.667,73/1000,43,162.2
4075,G#4,324.75,73/1000,43,162.2
4076,F#4,324.833,73/1000,43,162.2
4077,G#4,324.917,73/1000,43,162.2
4078,A4,325.0,0.188,47,162.2
4079,B4,325.25,0.188,45,162.2
4080,A2,325.5,0.5,33,162.2
4081,A4,325.5,0.5,44,162.2
4082,C#4,325.5,0.5,44,162.2
4083,A3,325.75,0.25,44,162.2
4084,A3,326.0,0.25,45,162.2
4085,A4,326.0,247/500,25,162.2
4086,E4,326.0,247/500,25,162.2
4087,C#4,326.0,247/500,25,162.2
4088,B3,326.25,0.188,48,162.2
4089,A2,326.5,247/500,46,162.2
4090,E3,326.5,247/500,46,162.2
4091,C#4,326.5,247/500,46,162.2
4092,A3,327.0,0.438,42,162.2
4093,A4,327.0,0.5,25,162.2
4094,C#4,327.0,0.5,25,162.2
4095,E4,327.0,0.5,25,162.2
4096,F#2,327.438,0.062,38,162.2
4097,D4,327.5,249/250,38,162.2
4098,A3,327.5,1.0,45,162.2
4099,F#2,327.5,1.0,38,162.2
4100,A4,327.625,0.125,41,162.2
4101,D5,327.75,0.125,44,162.2
4102,F#5,327.875,99/125,45,162.2
4103,F#6,328.0,667/1000,48,162.2
4104,D4,328.5,0.5,41,162.2
4105,B4,328.5,0.5,41,162.2
4106,F#5,328.667,167/1000,40,162.2
4107,F#6,328.667,167/1000,40,162.2
4108,F#5,328.833,167/1000,42,162.2
4109,F#6,328.833,167/1000,42,162.2
4110,F#5,329.0,167/1000,45,162.2
4111,F#6,329.0,167/1000,45,162.2
4112,C#4,329.0,0.5,41,162.2
4113,A4,329.0,0.5,41,162.2
4114,F#5,329.167,167/1000,46,162.2
4115,F#6,329.167,167/1000,46,162.2
4116,F#5,329.333,167/1000,49,162.2
4117,F#6,329.333,167/1000,49,162.2
4118,F#5,329.5,0.5,54,162.2
4119,F#6,329.5,0.125,54,162.2
4120,E3,329.5,0.5,37,162.2
4121,D4,329.5,0.5,37,162.2
4122,B3,329.5,0.5,37,162.2
4123,G#4,329.5,0.5,37,162.2
4124,G#5,329.625,0.125,48,162.2
4125,F#6,329.75,0.125,44,162.2
4126,G#6,329.875,0.125,44,162.2
4127,F#7,330.0,0.125,54,162.2
4128,G#6,330.125,0.125,45,162.2
4129,F#6,330.25,0.125,41,162.2
4130,G#5,330.375,0.125,41,162.2
4131,F#6,330.5,0.125,50,162.2
4132,G#5,330.625,0.125,41,162.2
4133,F#5,330.75,0.125,41,162.2
4134,G#4,330.875,13/125,36,162.2
4135,G#4,331.0,73/500,36,162.2
4136,G#4,331.167,73/500,35,162.2
4137,G#4,331.333,73/500,36,162.2
4138,E2,331.438,0.531,28,162.2
4139,E3,331.438,0.531,28,162.2
4140,G#4,331.5,13/125,50,162.2
4141,B3,331.5,0.5,35,162.2
4142,D4,331.5,0.5,43,162.2
4143,E4,331.5,0.5,43,162.2
4144,G#4,331.625,0.125,37,162.2
4145,A4,331.75,0.125,41,162.2
4146,G#4,331.875,0.125,37,162.2
4147,G4,332.0,0.125,36,162.2
4148,G#4,332.125,0.125,36,162.2
4149,A4,332.25,0.125,36,162.2
4150,B-4,332.375,0.125,36,162.2
4151,B4,332.5,0.125,36,162.2
4152,C5,332.625,0.125,37,162.2
4153,C#5,332.75,0.125,38,162.2
4154,D5,332.875,0.125,39,162.2
4155,E-5,333.0,0.125,40,162.2
4156,E5,333.125,0.125,41,162.2
4157,F5,333.25,0.125,42,162.2
4158,F#5,333.375,0.125,43,162.2
4159,G5,333.5,0.125,44,162.2
4160,G#5,333.625,0.125,44,162.2
4161,A5,333.75,0.125,45,162.2
4162,B-5,333.875,0.125,45,162.2
4163,B5,334.0,0.125,46,162.2
4164,C6,334.125,0.125,47,162.2
4165,C#6,334.25,0.125,48,162.2
4166,D6,334.375,0.125,49,162.2
4167,E-6,334.5,0.125,50,162.2
4168,E6,334.625,0.125,50,162.2
4169,F6,334.75,0.125,51,162.2
4170,F#6,334.875,0.125,52,162.2
4171,G6,335.0,0.125,53,162.2
4172,G#6,335.125,0.125,54,162.2
4173,A6,335.25,0.125,54,162.2
4174,B-6,335.375,0.125,55,162.2
4175,B6,335.5,0.125,56,162.2
4176,C7,335.625,0.125,57,162.2
4177,C#7,335.75,0.125,58,162.2
4178,D7,335.875,0.125,58,162.2
4179,E-7,336.0,167/1000,59,162.2
4180,E7,336.167,167/1000,60,162.2
4181,F7,336.333,167/1000,62,162.2
4182,F#7,336.5,0.125,72,162.2
4183,E3,337.25,0.188,43,162.2
4184,G#4,337.25,0.25,46,162.2
4185,D4,337.25,0.25,46,162.2
4186,A2,337.438,0.062,37,162.2
4187,E3,337.438,0.062,37,162.2
4188,A4,337.5,0.5,43,162.2
4189,C#4,337.5,0.5,58,162.2
4190,A2,337.5,0.219,37,162.2
4191,E3,337.5,0.219,37,162.2
4192,E2,337.75,0.25,37,162.2
4193,C#3,338.0,0.25,42,162.2
4194,E3,338.0,0.25,42,162.2
4195,A3,338.0,0.25,42,162.2
4196,E2,338.25,0.156,45,162.2
4197,E3,338.25,0.156,45,162.2
4198,B2,338.406,0.312,37,162.2
4199,E3,338.406,0.312,37,162.2
4200,G#3,338.469,0.281,37,162.2
4201,D4,338.5,0.75,57,162.2
4202,E2,338.75,0.25,37,162.2
4203,D3,339.0,0.25,37,162.2
4204,D4,339.25,0.25,46,162.2
4205,E4,339.25,0.25,46,162.2
4206,B4,339.25,0.25,46,162.2
4207,E5,339.25,0.25,46,162.2
4208,E2,339.25,0.25,39,162.2
4209,G#3,339.25,0.25,39,162.2
4210,E-5,339.5,0.25,55,162.2
4211,C#4,339.5,0.5,33,162.2
4212,A4,339.5,0.5,33,162.2
4213,C#3,339.5,0.5,41,162.2
4214,A3,339.5,0.5,41,162.2
4215,E5,339.75,0.25,50,162.2
4216,A4,340.0,0.5,33,162.2
4217,F#5,340.0,0.25,54,162.2
4218,C#4,340.0,0.5,33,162.2
4219,E4,340.0,0.5,33,162.2
4220,E5,340.25,0.25,50,162.2
4221,E-5,340.5,0.25,53,162.2
4222,E5,340.75,0.25,50,162.2
4223,E4,341.0,0.5,33,162.2
4224,D5,341.0,0.25,53,162.2
4225,G#3,341.0,0.438,33,162.2
4226,B3,341.0,0.438,33,162.2
4227,B4,341.25,0.25,50,162.2
4228,A2,341.438,0.062,37,162.2
4229,E3,341.438,0.062,37,162.2
4230,C#4,341.5,0.5,58,162.2
4231,E4,341.5,0.5,37,162.2
4232,A4,341.5,0.5,37,162.2
4233,C#5,341.5,0.5,37,162.2
4234,A2,341.5,0.219,37,162.2
4235,E3,341.5,0.219,37,162.2
4236,E2,341.75,0.25,37,162.2
4237,C#3,342.0,0.25,42,162.2
4238,E3,342.0,0.25,42,162.2
4239,A3,342.0,0.25,42,162.2
4240,E2,342.25,0.156,45,162.2
4241,E3,342.25,0.156,45,162.2
4242,B2,342.406,0.312,37,162.2
4243,E3,342.406,0.312,37,162.2
4244,G#3,342.469,0.281,37,162.2
4245,D4,342.5,0.75,57,162.2
4246,E2,342.75,0.25,37,162.2
4247,D3,343.0,0.25,37,162.2
4248,E5,343.25,0.25,50,162.2
4249,D4,343.25,0.25,45,162.2
4250,E4,343.25,0.25,45,162.2
4251,B4,343.25,0.25,45,162.2
4252,E2,343.25,0.25,39,162.2
4253,G#3,343.25,0.25,39,162.2
4254,E5,343.5,0.25,50,162.2
4255,C#4,343.5,0.25,33,162.2
4256,A4,343.5,0.25,33,162.2
4257,C#3,343.5,0.5,41,162.2
4258,A3,343.5,0.5,41,162.2
4259,E5,343.75,0.188,44,162.2
4260,E6,343.75,0.188,44,162.2
4261,E5,344.0,0.188,48,162.2
4262,E6,344.0,0.188,48,162.2
4263,E5,344.25,0.188,44,162.2
4264,E6,344.25,0.188,44,162.2
4265,E-5,344.5,0.25,46,162.2
4266,E-6,344.5,0.25,46,162.2
4267,G#3,344.5,1.0,33,162.2
4268,E4,344.5,1.0,33,162.2
4269,B4,344.5,1.0,33,162.2
4270,E5,344.75,0.25,44,162.2
4271,E6,344.75,0.25,44,162.2
4272,D5,345.0,0.25,46,162.2
4273,D6,345.0,0.25,46,162.2
4274,E5,345.25,0.188,44,162.2
4275,E6,345.25,0.188,44,162.2
4276,A3,345.438,0.062,32,162.2
4277,E4,345.438,0.062,32,162.2
4278,C#5,345.5,0.25,43,162.2
4279,E5,345.5,0.25,48,162.2
4280,E6,345.5,0.25,48,162.2
4281,A3,345.5,0.219,32,162.2
4282,E4,345.5,0.219,32,162.2
4283,C#5,345.75,0.188,44,162.2
4284,C#6,345.75,0.188,44,162.2
4285,C#5,346.0,0.188,44,162.2
4286,C#6,346.0,0.188,44,162.2
4287,C#5,346.25,0.188,44,162.2
4288,C#6,346.25,0.188,44,162.2
4289,C5,346.5,0.25,48,162.2
4290,C6,346.5,0.25,48,162.2
4291,F3,346.5,0.938,30,162.2
4292,C#4,346.5,0.938,30,162.2
4293,G#4,346.5,0.938,30,162.2
4294,C#5,346.75,0.25,44,162.2
4295,C#6,346.75,0.25,44,162.2
4296,B4,347.0,0.25,48,162.2
4297,B5,347.0,0.25,48,162.2
4298,C#5,347.25,0.188,44,162.2
4299,C#6,347.25,0.188,44,162.2
4300,F#3,347.438,0.062,32,162.2
4301,C#4,347.438,0.062,32,162.2
4302,A4,347.5,0.25,43,162.2
4303,C#5,347.5,0.25,48,162.2
4304,C#6,347.5,0.25,48,162.2
4305,F#3,347.5,0.219,32,162.2
4306,C#4,347.5,0.219,32,162.2
4307,A4,347.75,0.188,44,162.2
4308,A5,347.75,0.188,44,162.2
4309,A4,348.0,0.188,44,162.2
4310,A5,348.0,0.188,44,162.2
4311,A4,348.25,0.188,44,162.2
4312,A5,348.25,0.188,44,162.2
4313,G#4,348.5,167/1000,49,162.2
4314,G#5,348.5,167/1000,49,162.2
4315,C#3,348.5,1.0,30,162.2
4316,A3,348.5,1.0,30,162.2
4317,E4,348.5,1.0,30,162.2
4318,B4,348.667,167/1000,45,162.2
4319,B5,348.667,167/1000,45,162.2
4320,A4,348.833,167/1000,45,162.2
4321,A5,348.833,167/1000,45,162.2
4322,G4,349.0,167/1000,48,162.2
4323,G5,349.0,167/1000,48,162.2
4324,B4,349.167,0.25,44,162.2
4325,B5,349.167,0.25,44,162.2
4326,A4,349.417,0.062,44,162.2
4327,A5,349.417,0.062,44,162.2
4328,D3,349.438,0.062,42,162.2
4329,A3,349.438,0.062,42,162.2
4330,F#4,349.5,0.25,46,162.2
4331,A4,349.5,0.25,48,162.2
4332,A5,349.5,0.25,48,162.2
4333,D3,349.5,0.219,42,162.2
4334,A3,349.5,0.219,42,162.2
4335,F#4,349.75,0.188,45,162.2
4336,F#5,349.75,0.188,45,162.2
4337,F#4,350.0,0.5,44,162.2
4338,D5,350.0,0.5,44,162.2
4339,F#5,350.0,0.5,44,162.2
4340,A3,350.0,0.375,40,162.2
4341,D3,350.0,0.375,40,162.2
4342,B2,350.25,83/1000,36,162.2
4343,F#3,350.333,83/1000,37,162.2
4344,D4,350.417,83/1000,41,162.2
4345,D5,350.5,0.25,40,162.2
4346,F#4,350.5,0.25,40,162.2
4347,D4,351.0,0.5,55,162.2
4348,D4,351.5,0.25,60,162.2
4349,G#3,351.75,0.75,56,162.2
4350,B3,352.0,0.375,38,162.2
4351,G#4,352.0,0.375,38,162.2
4352,E3,352.0,0.375,38,162.2
4353,C#3,352.25,83/1000,36,162.2
4354,G#3,352.333,83/1000,37,162.2
4355,E4,352.417,83/1000,41,162.2
4356,E5,352.5,0.25,40,162.2
4357,G#4,352.5,0.25,40,162.2
4358,E4,353.0,0.5,55,162.2
4359,E4,353.5,0.25,60,162.2
4360,A3,353.75,0.75,56,162.2
4361,C#4,354.0,0.375,38,162.2
4362,A4,354.0,0.375,38,162.2
4363,F#3,354.0,0.375,38,162.2
4364,D3,354.25,83/1000,36,162.2
4365,A3,354.333,83/1000,37,162.2
4366,F#4,354.417,83/1000,41,162.2
4367,F#5,354.5,0.25,40,162.2
4368,A4,354.5,0.25,40,162.2
4369,F#6,355.0,0.5,55,162.2
4370,F#5,355.0,0.5,55,162.2
4371,E6,355.5,0.188,55,162.2
4372,E5,355.5,0.188,55,162.2
4373,G#2,355.5,1.0,39,162.2
4374,E3,355.5,1.0,39,162.2
4375,B3,355.5,1.0,39,162.2
4376,E-6,355.75,0.188,51,162.2
4377,E-5,355.75,0.188,51,162.2
4378,D5,356.0,0.5,46,162.2
4379,D6,356.0,0.125,50,162.2
4380,D6,356.125,0.125,42,162.2
4381,E6,356.25,0.125,45,162.2
4382,D6,356.375,0.125,42,162.2
4383,C#6,356.5,0.125,46,162.2
4384,D6,356.625,0.125,42,162.2
4385,C#7,356.75,0.125,49,162.2
4386,B6,356.875,0.125,44,162.2
4387,G#6,357.0,0.125,44,162.2
4388,D6,357.125,0.125,44,162.2
4389,E-6,357.25,0.125,45,162.2
4390,E6,357.375,0.125,46,162.2
4391,F6,357.5,0.125,48,162.2
4392,G#6,357.625,0.125,52,162.2
4393,F#6,357.75,0.125,45,162.2
4394,D6,357.875,0.125,45,162.2
4395,G#5,358.0,0.125,45,162.2
4396,A5,358.125,0.125,44,162.2
4397,B-5,358.25,0.125,46,162.2
4398,C#6,358.375,0.125,49,162.2
4399,B5,358.5,0.125,45,162.2
4400,G#5,358.625,0.125,45,162.2
4401,D5,358.75,0.125,44,162.2
4402,E-5,358.875,0.125,42,162.2
4403,E5,359.0,0.125,45,162.2
4404,F5,359.125,0.125,48,162.2
4405,G#5,359.25,0.125,50,162.2
4406,F#5,359.375,0.125,42,162.2
4407,D5,359.5,0.125,42,162.2
4408,G#4,359.625,0.125,42,162.2
4409,A4,359.75,0.125,45,162.2
4410,B-4,359.875,0.125,39,162.2
4411,C#5,360.0,0.125,44,162.2
4412,B4,360.125,0.125,39,162.2
4413,D5,360.25,0.125,46,162.2
4414,F#5,360.375,0.125,42,162.2
4415,E-5,360.5,0.125,47,162.2
4416,E5,360.625,0.125,45,162.2
4417,G#5,360.75,0.125,48,162.2
4418,C#6,360.875,0.125,44,162.2
4419,B-5,361.0,0.125,48,162.2
4420,B5,361.125,0.125,44,162.2
4421,D6,361.25,0.125,48,162.2
4422,F#6,361.375,0.125,45,162.2
4423,E-6,361.5,0.125,48,162.2
4424,E6,361.625,0.125,45,162.2
4425,G#6,361.75,0.125,48,162.2
4426,C#7,361.875,0.125,45,162.2
4427,B-6,362.0,0.125,45,162.2
4428,B6,362.125,0.125,43,162.2
4429,D7,362.25,0.125,43,162.2
4430,F7,362.375,0.125,43,162.2
4431,B-6,362.5,0.125,45,162.2
4432,B6,362.625,0.125,43,162.2
4433,D7,362.75,0.125,45,162.2
4434,E7,362.875,0.125,45,162.2
4435,B-6,363.0,0.125,49,162.2
4436,B6,363.125,0.125,46,162.2
4437,D7,363.25,0.125,46,162.2
4438,F7,363.375,0.125,47,162.2
4439,B-6,363.5,0.125,53,162.2
4440,B6,363.625,0.125,50,162.2
4441,D7,363.75,0.125,51,162.2
4442,E7,363.875,0.125,52,162.2
4443,B-6,364.0,0.125,55,162.2
4444,B6,364.125,0.125,54,162.2
4445,D7,364.25,0.125,54,162.2
4446,F7,364.375,0.125,54,162.2
4447,B-6,364.5,0.125,59,162.2
4448,B6,364.625,0.125,55,162.2
4449,D7,364.75,0.125,55,162.2
4450,E7,364.875,0.125,55,162.2
4451,B-6,365.0,0.125,62,162.2
4452,B6,365.125,0.125,57,162.2
4453,D7,365.25,0.125,49,162.2
4454,F7,365.375,0.125,49,162.2
4455,E-7,365.5,0.125,54,162.2
4456,E7,365.625,0.125,49,162.2
4457,D7,365.75,0.125,54,162.2
4458,E-7,365.875,0.125,49,162.2
4459,C#7,366.0,0.125,54,162.2
4460,D7,366.125,0.125,49,162.2
4461,C7,366.25,0.125,54,162.2
4462,C#7,366.375,0.125,49,162.2
4463,B6,366.5,0.125,54,162.2
4464,C7,366.625,0.125,49,162.2
4465,B-6,366.75,0.125,54,162.2
4466,B6,366.875,0.125,49,162.2
4467,A6,367.0,0.125,54,162.2
4468,B-6,367.125,0.125,45,162.2
4469,G#6,367.25,0.125,50,162.2
4470,A6,367.375,0.125,46,162.2
4471,G6,367.5,0.125,50,162.2
4472,G#6,367.625,0.125,46,162.2
4473,F#6,367.75,0.125,50,162.2
4474,G6,367.875,0.125,46,162.2
4475,F6,368.0,0.125,50,162.2
4476,F#6,368.125,0.125,46,162.2
4477,E6,368.25,0.125,50,162.2
4478,F6,368.375,0.125,45,162.2
4479,E-6,368.5,0.125,51,162.2
4480,E6,368.625,0.125,44,162.2
4481,D6,368.75,0.125,45,162.2
4482,E-6,368.875,0.125,43,162.2
4483,C#6,369.0,0.125,47,162.2
4484,D6,369.125,0.125,43,162.2
4485,C6,369.25,0.125,48,162.2
4486,C#6,369.375,0.125,43,162.2
4487,B5,369.5,0.125,48,162.2
4488,C6,369.625,0.125,43,162.2
4489,B-5,369.75,0.125,49,162.2
4490,B5,369.875,0.125,42,162.2
4491,A5,370.0,0.125,49,162.2
4492,B-5,370.125,0.125,45,162.2
4493,G#5,370.25,0.125,49,162.2
4494,A5,370.375,0.125,44,162.2
4495,G5,370.5,0.125,50,162.2
4496,G#5,370.625,0.125,43,162.2
4497,F#5,370.75,0.125,49,162.2
4498,G5,370.875,0.125,44,162.2
4499,F5,371.0,0.125,48,162.2
4500,F#5,371.125,0.125,42,162.2
4501,E5,371.25,0.125,49,162.2
4502,F5,371.375,0.125,44,162.2
4503,E-5,371.5,0.125,49,162.2
4504,E5,371.625,0.125,44,162.2
4505,D5,371.75,0.125,49,162.2
4506,E5,371.875,0.125,43,162.2
4507,C#5,372.0,0.125,48,162.2
4508,E5,372.125,0.125,45,162.2
4509,D5,372.25,0.125,45,162.2
4510,E5,372.375,0.125,42,162.2
4511,B-4,372.5,0.125,39,162.2
4512,E5,372.625,0.125,36,162.2
4513,B4,372.75,0.125,43,162.2
4514,E5,372.875,0.125,41,162.2
4515,C#5,373.0,0.125,46,162.2
4516,E5,373.125,0.125,42,162.2
4517,D5,373.25,0.125,49,162.2
4518,E5,373.375,0.125,42,162.2
4519,B-4,373.5,0.125,39,162.2
4520,E5,373.625,0.125,37,162.2
4521,B4,373.75,0.125,44,162.2
4522,E5,373.875,0.125,41,162.2
4523,C#5,374.0,0.125,48,162.2
4524,E5,374.125,0.125,45,162.2
4525,D5,374.25,0.25,48,162.2
4526,E5,374.5,0.25,43,162.2
4527,B-4,374.75,0.25,40,162.2
4528,E5,375.0,0.25,38,162.2
4529,B4,375.25,0.25,43,162.2
4530,E5,375.5,0.25,39,162.2
4531,C5,375.75,0.25,45,162.2
4532,E5,376.0,0.25,43,162.2
4533,C#5,376.25,0.25,47,162.2
4534,E5,376.5,0.25,45,162.2
4535,D5,376.75,0.25,50,162.2
4536,E5,377.0,0.25,45,162.2
4537,B-4,377.25,0.25,46,162.2
4538,E5,377.5,0.25,39,162.2
4539,B4,377.75,0.5,45,162.2
4540,E5,378.25,0.5,43,162.2
4541,G#3,378.75,0.75,35,162.2
4542,E4,378.75,0.75,41,162.2
4543,C5,378.75,0.75,41,162.2
4544,C#5,379.5,1.0,50,162.2
4545,E4,379.5,0.5,42,162.2
4546,A3,379.5,1.0,42,162.2
4547,A2,379.5,3.0,35,162.2
4548,E3,379.5,3.0,35,162.2
4549,C#4,380.0,0.5,39,162.2
4550,G#3,380.5,0.5,37,162.2
4551,B4,380.5,0.5,41,162.2
4552,E4,380.5,0.5,41,162.2
4553,C#5,381.0,1.0,48,162.2
4554,E4,381.0,0.5,40,162.2
4555,A3,381.0,1.0,44,162.2
4556,C#4,381.5,0.5,37,162.2
4557,B3,382.0,0.5,40,162.2
4558,D5,382.0,0.5,41,162.2
4559,E4,382.0,0.5,41,162.2
4560,G#3,382.5,0.5,44,162.2
4561,A2,382.5,3.0,35,162.2
4562,E3,382.5,0.5,35,162.2
4563,B4,382.5,0.5,44,162.2
4564,E4,382.5,0.5,44,162.2
4565,G#3,383.0,0.5,36,162.2
4566,E3,383.0,2.5,30,162.2
4567,E5,383.0,2.0,47,162.2
4568,E4,383.0,2.0,47,162.2
4569,A3,383.5,0.5,36,162.2
4570,F#3,383.5,0.5,36,162.2
4571,B3,384.0,0.5,40,162.2
4572,G#3,384.0,0.5,40,162.2
4573,C#4,384.5,0.5,42,162.2
4574,A3,384.5,0.5,42,162.2
4575,B4,385.0,0.5,41,162.2
4576,E4,385.0,0.5,41,162.2
4577,D4,385.0,0.5,44,162.2
4578,G#3,385.0,0.5,44,162.2
4579,C#5,385.5,1.0,50,162.2
4580,E4,385.5,0.5,42,162.2
4581,A3,385.5,1.0,42,162.2
4582,A2,385.5,3.0,35,162.2
4583,E3,385.5,3.0,35,162.2
4584,C#4,386.0,0.5,39,162.2
4585,G#3,386.5,0.5,37,162.2
4586,B4,386.5,0.5,41,162.2
4587,E4,386.5,0.5,41,162.2
4588,C#5,387.0,1.0,48,162.2
4589,E4,387.0,0.5,40,162.2
4590,A3,387.0,1.0,44,162.2
4591,C#4,387.5,0.5,37,162.2
4592,B3,388.0,0.5,40,162.2
4593,D5,388.0,0.5,41,162.2
4594,E4,388.0,0.5,41,162.2
4595,G#3,388.5,0.5,44,162.2
4596,A2,388.5,3.0,35,162.2
4597,E3,388.5,0.5,35,162.2
4598,B4,388.5,0.5,44,162.2
4599,E4,388.5,0.5,44,162.2
4600,G#3,389.0,0.5,36,162.2
4601,E3,389.0,2.5,30,162.2
4602,E5,389.0,2.0,47,162.2
4603,E4,389.0,2.0,47,162.2
4604,A3,389.5,0.5,36,162.2
4605,F#3,389.5,0.5,36,162.2
4606,B3,390.0,0.5,40,162.2
4607,G#3,390.0,0.5,40,162.2
4608,C#4,390.5,0.5,42,162.2
4609,A3,390.5,0.5,42,162.2
4610,B4,391.0,0.5,44,162.2
4611,E4,391.0,0.5,44,162.2
4612,D4,391.0,0.5,44,162.2
4613,G#3,391.0,0.5,44,162.2
4614,C#5,391.5,0.5,48,162.2
4615,E4,391.5,0.5,48,162.2
4616,A4,391.5,0.5,48,162.2
4617,C#4,391.5,1.438,40,162.2
4618,A3,391.5,1.438,40,162.2
4619,E5,392.0,0.5,44,162.2
4620,C#5,392.0,0.5,44,162.2
4621,C#5,392.5,0.5,44,162.2
4622,A4,392.5,0.5,44,162.2
4623,D3,392.938,1.562,34,162.2
4624,D4,392.969,0.5,37,162.2
4625,F#4,392.969,0.5,37,162.2
4626,D5,393.0,0.5,48,162.2
4627,B4,393.0,0.5,48,162.2
4628,F#5,393.5,0.5,44,162.2
4629,D5,393.5,0.5,44,162.2
4630,D4,393.5,0.5,34,162.2
4631,B3,393.5,0.5,34,162.2
4632,D5,394.0,0.5,44,162.2
4633,B4,394.0,0.5,44,162.2
4634,F#4,394.0,0.5,34,162.2
4635,D4,394.0,0.5,34,162.2
4636,E3,394.5,1.5,42,162.2
4637,C#5,394.5,1.5,49,162.2
4638,A4,394.5,1.5,49,162.2
4639,E4,394.5,0.5,38,162.2
4640,C#4,394.5,0.5,38,162.2
4641,C#4,395.0,0.5,36,162.2
4642,A3,395.0,0.5,36,162.2
4643,E4,395.5,0.5,36,162.2
4644,C#4,395.5,0.5,36,162.2
4645,E2,396.0,0.5,37,162.2
4646,B4,396.0,0.5,41,162.2
4647,D4,396.0,0.5,41,162.2
4648,E4,396.0,0.5,41,162.2
4649,G#4,396.0,0.5,41,162.2
4650,D5,396.5,0.5,42,162.2
4651,B4,396.5,0.5,42,162.2
4652,B3,396.5,0.5,37,162.2
4653,E3,396.5,0.5,37,162.2
4654,B4,397.0,0.5,40,162.2
4655,G#4,397.0,0.5,40,162.2
4656,D4,397.0,0.5,34,162.2
4657,B3,397.0,0.5,34,162.2
4658,A4,397.5,0.25,38,162.2
4659,C#4,397.5,0.25,38,162.2
4660,A3,397.5,0.25,38,162.2
4661,A2,397.5,0.25,38,162.2
4662,E3,397.5,0.25,38,162.2
4663,A5,398.0,1.0,50,162.2
4664,C#5,398.0,0.5,42,162.2
4665,E4,398.0,0.5,43,162.2
4666,E-5,398.5,0.5,47,162.2
4667,F#4,398.5,0.5,45,162.2
4668,G#4,399.0,0.5,47,162.2
4669,G#5,399.0,0.5,44,162.2
4670,E5,399.0,0.5,44,162.2
4671,G4,399.5,0.5,49,162.2
4672,E5,399.5,0.5,44,162.2
4673,B4,399.5,0.5,44,162.2
4674,E4,400.0,0.5,51,162.2
4675,G5,400.0,0.5,46,162.2
4676,C#5,400.0,0.5,46,162.2
4677,D4,400.5,0.5,53,162.2
4678,F#5,400.5,0.5,48,162.2
4679,D5,400.5,0.5,48,162.2
4680,F4,401.0,0.5,53,162.2
4681,D5,401.0,0.5,48,162.2
4682,B-4,401.0,0.5,48,162.2
4683,C4,401.5,0.5,54,162.2
4684,F5,401.5,0.5,48,162.2
4685,A4,401.5,0.5,48,162.2
4686,B3,402.0,0.5,50,162.2
4687,E5,402.0,0.5,50,162.2
4688,G#4,402.0,0.5,50,162.2
4689,G#3,402.5,0.5,46,162.2
4690,B4,402.5,0.5,44,162.2
4691,E4,402.5,0.5,44,162.2
4692,G#4,402.938,0.375,37,162.2
4693,B5,403.0,0.375,45,162.2
4694,G#3,403.0,0.375,39,162.2
4695,D4,403.0,0.375,39,162.2
4696,A2,403.375,0.125,35,162.2
4697,E3,403.406,0.094,38,162.2
4698,C#4,403.406,0.094,38,162.2
4699,A4,403.469,0.031,46,162.2
4700,C#6,403.469,0.031,46,162.2
4701,A2,403.5,2.875,35,162.2
4702,A4,403.5,0.969,46,162.2
4703,C#6,403.5,0.969,46,162.2
4704,E3,403.5,0.531,38,162.2
4705,C#4,403.5,0.531,38,162.2
4706,E3,404.0,1.5,37,162.2
4707,G#4,404.438,0.562,37,162.2
4708,B5,404.5,0.5,45,162.2
4709,G#3,404.5,0.5,34,162.2
4710,B3,404.5,0.5,34,162.2
4711,A4,404.938,1.062,40,162.2
4712,C#6,405.0,1.0,48,162.2
4713,A3,405.0,1.0,40,162.2
4714,C#4,405.0,1.0,40,162.2
4715,E3,405.5,1.0,40,162.2
4716,G#4,405.938,0.375,37,162.2
4717,D6,406.0,0.375,45,162.2
4718,B3,406.0,0.375,38,162.2
4719,D4,406.0,0.375,38,162.2
4720,A2,406.375,0.125,35,162.2
4721,E3,406.406,0.094,40,162.2
4722,B3,406.406,0.094,40,162.2
4723,G#4,406.469,0.031,44,162.2
4724,B5,406.469,0.031,44,162.2
4725,A2,406.5,2.875,35,162.2
4726,G#4,406.5,0.469,44,162.2
4727,B5,406.5,0.469,44,162.2
4728,E3,406.5,0.469,40,162.2
4729,B3,406.5,0.469,40,162.2
4730,G#3,407.0,0.5,36,162.2
4731,E6,407.0,2.0,47,162.2
4732,E5,407.0,2.0,47,162.2
4733,E4,407.0,2.0,38,162.2
4734,E3,407.0,2.0,38,162.2
4735,A3,407.5,0.5,36,162.2
4736,F#3,407.5,0.5,36,162.2
4737,B3,408.0,0.5,40,162.2
4738,G#3,408.0,0.5,40,162.2
4739,C#4,408.5,0.5,42,162.2
4740,A3,408.5,0.5,42,162.2
4741,G#4,408.938,0.406,37,162.2
4742,E5,408.938,0.406,37,162.2
4743,B5,409.0,0.375,45,162.2
4744,E3,409.0,0.375,38,162.2
4745,D4,409.0,0.375,38,162.2
4746,B3,409.0,0.375,38,162.2
4747,A2,409.375,0.125,35,162.2
4748,E3,409.406,0.094,38,162.2
4749,C#4,409.406,0.094,38,162.2
4750,A4,409.458,21/500,45,162.2
4751,E5,409.458,21/500,45,162.2
4752,C#6,409.458,21/500,45,162.2
4753,A2,409.5,2.875,35,162.2
4754,A4,409.5,479/500,45,162.2
4755,E5,409.5,479/500,45,162.2
4756,C#6,409.5,479/500,45,162.2
4757,E3,409.5,0.531,38,162.2
4758,C#4,409.5,0.531,38,162.2
4759,E3,410.0,1.5,37,162.2
4760,G#4,410.438,0.531,37,162.2
4761,E5,410.438,0.531,37,162.2
4762,B5,410.5,0.5,45,162.2
4763,G#3,410.5,0.5,34,162.2
4764,B3,410.5,0.5,34,162.2
4765,A4,410.938,1.031,40,162.2
4766,E5,410.938,1.031,40,162.2
4767,C#6,411.0,1.0,48,162.2
4768,A3,411.0,1.0,40,162.2
4769,C#4,411.0,1.0,40,162.2
4770,E3,411.5,1.0,40,162.2
4771,G#4,411.938,0.406,37,162.2
4772,E5,411.938,0.406,37,162.2
4773,D6,412.0,0.375,45,162.2
4774,B3,412.0,0.375,38,162.2
4775,D4,412.0,0.375,38,162.2
4776,A2,412.375,0.125,35,162.2
4777,E3,412.406,0.094,40,162.2
4778,B3,412.406,0.094,40,162.2
4779,G#4,412.458,21/500,43,162.2
4780,E5,412.458,21/500,43,162.2
4781,B5,412.458,21/500,43,162.2
4782,A2,412.5,2.938,35,162.2
4783,G#4,412.5,229/500,43,162.2
4784,E5,412.5,229/500,43,162.2
4785,B5,412.5,229/500,43,162.2
4786,E3,412.5,0.469,40,162.2
4787,B3,412.5,0.469,40,162.2
4788,G#3,413.0,0.5,36,162.2
4789,E6,413.0,2.0,47,162.2
4790,E5,413.0,2.0,47,162.2
4791,E4,413.0,2.0,38,162.2
4792,E3,413.0,2.0,38,162.2
4793,F#3,413.5,0.5,36,162.2
4794,A3,413.5,0.5,36,162.2
4795,G#3,414.0,0.5,40,162.2
4796,B3,414.0,0.5,40,162.2
4797,A3,414.5,0.5,42,162.2
4798,C#4,414.5,0.5,42,162.2
4799,G#4,414.938,0.406,37,162.2
4800,E5,414.938,0.406,37,162.2
4801,B5,415.0,0.438,45,162.2
4802,E3,415.0,0.438,38,162.2
4803,B3,415.0,0.438,38,162.2
4804,D4,415.0,0.438,38,162.2
4805,A4,415.438,0.062,42,162.2
4806,E5,415.438,0.062,42,162.2
4807,C#6,415.5,1.5,50,162.2
4808,C#4,415.5,0.5,42,162.2
4809,A2,415.5,1.5,42,162.2
4810,A4,415.5,729/500,42,162.2
4811,E5,415.5,729/500,42,162.2
4812,C#4,416.0,0.5,34,162.2
4813,E4,416.0,0.5,34,162.2
4814,A3,416.5,0.375,34,162.2
4815,C#4,416.5,0.375,34,162.2
4816,D3,416.875,1.625,42,162.2
4817,D4,416.906,0.562,40,162.2
4818,F#4,416.906,0.562,40,162.2
4819,B4,416.969,0.5,44,162.2
4820,D6,416.969,0.5,44,162.2
4821,D5,417.469,0.5,46,162.2
4822,F#6,417.469,0.5,46,162.2
4823,B3,417.5,0.5,34,162.2
4824,D4,417.5,0.5,34,162.2
4825,B4,417.938,0.5,37,162.2
4826,D6,418.0,0.438,45,162.2
4827,D4,418.0,0.438,38,162.2
4828,F#4,418.0,0.438,38,162.2
4829,A4,418.438,0.062,42,162.2
4830,C#6,418.5,1.5,50,162.2
4831,A4,418.5,1.5,42,162.2
4832,E3,418.5,1.5,42,162.2
4833,C#4,418.5,0.5,38,162.2
4834,E4,418.5,0.5,38,162.2
4835,A3,419.0,0.5,34,162.2
4836,C#4,419.0,0.5,34,162.2
4837,C#4,419.5,0.375,34,162.2
4838,E4,419.5,0.375,34,162.2
4839,E2,419.875,0.125,42,162.2
4840,G#4,419.938,0.531,40,162.2
4841,E5,419.938,0.531,40,162.2
4842,B5,420.0,0.5,48,162.2
4843,B3,420.0,0.5,40,162.2
4844,D4,420.0,0.5,40,162.2
4845,B4,420.469,0.5,46,162.2
4846,D6,420.469,0.5,46,162.2
4847,E3,420.5,0.5,34,162.2
4848,B3,420.5,0.5,34,162.2
4849,G#4,420.938,177/500,37,162.2
4850,B5,421.0,177/500,45,162.2
4851,B3,421.0,177/500,38,162.2
4852,D4,421.0,177/500,38,162.2
4853,A2,421.354,73/500,35,162.2
4854,E3,421.354,73/500,35,162.2
4855,A3,421.354,73/500,35,162.2
4856,C#4,421.417,83/1000,40,162.2
4857,E4,421.438,0.062,42,162.2
4858,A4,421.438,0.062,42,162.2
4859,C#5,421.438,0.062,42,162.2
4860,A5,421.5,0.25,47,162.2
4861,C#4,421.5,0.25,40,162.2
4862,E4,421.5,26/125,42,162.2
4863,A4,421.5,26/125,42,162.2
4864,C#5,421.5,26/125,42,162.2
4865,A2,421.5,167/1000,35,162.2
4866,E3,421.5,167/1000,35,162.2
4867,A3,421.5,167/1000,35,162.2
4868,E5,422.833,83/1000,47,162.2
4869,C#6,422.833,83/1000,47,162.2
4870,F#5,422.917,21/500,44,162.2
4871,D6,422.917,21/500,44,162.2
4872,C#6,423.0,0.125,45,162.2
4873,E5,423.0,0.125,45,162.2
4874,A4,423.0,0.125,39,162.2
4875,A3,423.0,0.125,39,162.2
4876,G4,423.0,0.125,39,162.2
4877,B5,423.75,0.062,45,162.2
4878,B4,423.75,0.062,45,162.2
4879,C#6,424.0,0.125,42,162.2
4880,E5,424.0,0.125,42,162.2
4881,A4,424.0,0.125,33,162.2
4882,A3,424.0,0.125,33,162.2
4883,G4,424.0,0.125,33,162.2
4884,D6,424.5,0.125,47,162.2
4885,F#5,424.5,0.125,47,162.2
4886,D4,424.5,0.125,40,162.2
4887,F#4,424.5,0.125,40,162.2
4888,A4,424.5,0.125,40,162.2
4889,E6,425.25,0.062,42,162.2
4890,G5,425.25,0.062,42,162.2
4891,D6,425.5,0.094,44,162.2
4892,F#5,425.5,0.094,44,162.2
4893,A4,425.5,0.094,37,162.2
4894,D4,425.5,0.094,37,162.2
4895,F#4,425.5,0.094,37,162.2
4896,E5,425.833,83/1000,47,162.2
4897,C#6,425.833,83/1000,47,162.2
4898,F#5,425.917,21/500,44,162.2
4899,D6,425.917,21/500,44,162.2
4900,C#6,426.0,0.125,45,162.2
4901,E5,426.0,0.125,45,162.2
4902,A4,426.0,0.125,39,162.2
4903,A3,426.0,0.125,39,162.2
4904,G4,426.0,0.125,39,162.2
4905,B5,426.75,0.062,45,162.2
4906,D5,426.75,0.062,45,162.2
4907,C#6,427.0,0.125,42,162.2
4908,E5,427.0,0.125,42,162.2
4909,A4,427.0,0.125,33,162.2
4910,A3,427.0,0.125,33,162.2
4911,G4,427.0,0.125,33,162.2
4912,D6,427.5,0.25,47,162.2
4913,F#5,427.5,0.25,47,162.2
4914,D4,427.5,0.25,40,162.2
4915,F#4,427.5,0.25,40,162.2
4916,A4,427.5,0.25,40,162.2
4917,D7,428.5,0.125,50,162.2
4918,C#7,428.625,0.125,50,162.2
4919,B6,428.75,0.125,49,162.2
4920,A6,428.875,0.125,48,162.2
4921,G#6,429.0,83/1000,48,162.2
4922,F#6,429.083,83/1000,47,162.2
4923,E6,429.167,83/1000,47,162.2
4924,D6,429.25,83/1000,46,162.2
4925,C#6,429.333,83/1000,46,162.2
4926,B5,429.417,83/1000,45,162.2
4927,A5,429.5,1.5,45,162.2
4928,C#5,431.0,0.125,47,162.2
4929,A5,431.0,0.125,47,162.2
4930,E3,431.0,0.125,40,162.2
4931,C#4,431.0,0.125,40,162.2
4932,E4,431.0,0.125,40,162.2
4933,D5,431.75,0.062,42,162.2
4934,B5,431.75,0.062,42,162.2
4935,C#5,432.0,0.094,44,162.2
4936,A5,432.0,0.094,44,162.2
4937,E4,432.0,0.094,37,162.2
4938,E3,432.0,0.094,37,162.2
4939,C#4,432.0,0.094,37,162.2
4940,G#5,432.333,83/1000,47,162.2
4941,B4,432.333,83/1000,47,162.2
4942,A5,432.417,83/1000,44,162.2
4943,C#5,432.417,83/1000,44,162.2
4944,B4,432.5,0.125,45,162.2
4945,G#5,432.5,0.125,45,162.2
4946,E4,432.5,0.125,39,162.2
4947,E3,432.5,0.125,39,162.2
4948,D4,432.5,0.125,39,162.2
4949,A4,433.25,0.062,45,162.2
4950,F#5,433.25,0.062,45,162.2
4951,G#5,433.5,0.125,42,162.2
4952,B4,433.5,0.125,42,162.2
4953,E4,433.5,0.125,33,162.2
4954,E3,433.5,0.125,33,162.2
4955,D4,433.5,0.125,33,162.2
4956,A5,434.0,0.125,47,162.2
4957,C#5,434.0,0.125,47,162.2
4958,A3,434.0,0.125,40,162.2
4959,C#4,434.0,0.125,40,162.2
4960,E4,434.0,0.125,40,162.2
4961,D6,435.0,0.125,48,162.2
4962,F#6,435.0,0.125,48,162.2
4963,C#6,435.125,0.125,48,162.2
4964,B5,435.25,0.125,47,162.2
4965,A5,435.375,0.125,46,162.2
4966,G#5,435.5,83/1000,45,162.2
4967,F#5,435.583,83/1000,45,162.2
4968,E5,435.667,83/1000,44,162.2
4969,D5,435.75,83/1000,44,162.2
4970,C#5,435.833,83/1000,47,162.2
4971,E4,435.833,83/1000,47,162.2
4972,D5,435.917,83/1000,44,162.2
4973,F#4,435.917,83/1000,44,162.2
4974,E4,436.0,0.125,45,162.2
4975,C#5,436.0,0.125,45,162.2
4976,A3,436.0,0.125,39,162.2
4977,A2,436.0,0.125,39,162.2
4978,G3,436.0,0.125,39,162.2
4979,D4,436.75,0.062,45,162.2
4980,B4,436.75,0.062,45,162.2
4981,E4,437.0,0.125,42,162.2
4982,C#5,437.0,0.125,42,162.2
4983,A3,437.0,0.125,33,162.2
4984,A2,437.0,0.125,33,162.2
4985,G3,437.0,0.125,33,162.2
4986,F#4,437.5,0.125,47,162.2
4987,D5,437.5,0.125,47,162.2
4988,D3,437.5,0.125,40,162.2
4989,F#3,437.5,0.125,40,162.2
4990,A3,437.5,0.125,40,162.2
4991,G4,438.25,0.062,42,162.2
4992,E5,438.25,0.062,42,162.2
4993,F#4,438.5,0.094,44,162.2
4994,D5,438.5,0.094,44,162.2
4995,A3,438.5,0.094,37,162.2
4996,D3,438.5,0.094,37,162.2
4997,F#3,438.5,0.094,37,162.2
4998,C#5,438.833,83/1000,47,162.2
4999,E4,438.833,83/1000,47,162.2
5000,D5,438.917,83/1000,44,162.2
5001,F#4,438.917,83/1000,44,162.2
5002,E4,439.0,0.125,45,162.2
5003,C#5,439.0,0.125,45,162.2
5004,A3,439.0,0.125,39,162.2
5005,A2,439.0,0.125,39,162.2
5006,G3,439.0,0.125,39,162.2
5007,B4,439.75,0.062,45,162.2
5008,D4,439.75,0.062,45,162.2
5009,C#5,440.0,0.125,42,162.2
5010,E4,440.0,0.125,42,162.2
5011,A3,440.0,0.125,33,162.2
5012,A2,440.0,0.125,33,162.2
5013,G3,440.0,0.125,33,162.2
5014,D5,440.5,0.125,47,162.2
5015,F#4,440.5,0.125,47,162.2
5016,D3,440.5,0.125,40,162.2
5017,F#3,440.5,0.125,40,162.2
5018,A3,440.5,0.125,40,162.2
5019,A6,441.5,1/10,50,162.2
5020,F#6,441.5,1/10,50,162.2
5021,D6,441.6,1/10,50,162.2
5022,C#6,441.7,1/10,49,162.2
5023,B5,441.8,1/10,48,162.2
5024,A5,441.9,1/10,48,162.2
5025,G#5,442.0,83/1000,47,162.2
5026,F#5,442.083,83/1000,46,162.2
5027,E5,442.167,83/1000,46,162.2
5028,D5,442.25,83/1000,45,162.2
5029,C#5,442.333,83/1000,45,162.2
5030,B4,442.417,83/1000,45,162.2
5031,A4,442.5,1.5,47,162.2
5032,C#4,444.0,0.125,47,162.2
5033,A4,444.0,0.125,47,162.2
5034,E2,444.0,0.125,40,162.2
5035,C#3,444.0,0.125,40,162.2
5036,E3,444.0,0.125,40,162.2
5037,D4,444.75,0.062,42,162.2
5038,B4,444.75,0.062,42,162.2
5039,C#4,445.0,0.094,44,162.2
5040,A4,445.0,0.094,44,162.2
5041,E3,445.0,0.094,37,162.2
5042,E2,445.0,0.094,37,162.2
5043,C#3,445.0,0.094,37,162.2
5044,G#4,445.333,83/1000,47,162.2
5045,B3,445.333,83/1000,47,162.2
5046,A4,445.417,83/1000,44,162.2
5047,C#4,445.417,83/1000,44,162.2
5048,B3,445.5,0.125,45,162.2
5049,G#4,445.5,0.125,45,162.2
5050,E3,445.5,0.125,39,162.2
5051,E2,445.5,0.125,39,162.2
5052,D3,445.5,0.125,39,162.2
5053,A3,446.25,0.062,45,162.2
5054,F#4,446.25,0.062,45,162.2
5055,G#4,446.5,0.125,42,162.2
5056,B3,446.5,0.125,42,162.2
5057,E3,446.5,0.125,33,162.2
5058,E2,446.5,0.125,33,162.2
5059,D3,446.5,0.125,33,162.2
5060,A4,447.0,0.125,47,162.2
5061,C#4,447.0,0.125,47,162.2
5062,A2,447.0,0.125,40,162.2
5063,C#3,447.0,0.125,40,162.2
5064,E3,447.0,0.125,40,162.2
5065,A6,448.0,0.125,51,162.2
5066,C#7,448.0,0.125,51,162.2
5067,G#6,448.125,0.125,51,162.2
5068,F#6,448.25,0.125,50,162.2
5069,E6,448.375,0.125,50,162.2
5070,D6,448.5,0.125,50,162.2
5071,C#6,448.625,0.125,49,162.2
5072,B5,448.75,0.125,49,162.2
5073,A5,448.875,0.125,48,162.2
5074,G#5,449.0,1/10,48,162.2
5075,F#5,449.1,1/10,47,162.2
5076,E5,449.2,1/10,47,162.2
5077,D5,449.3,1/10,47,162.2
5078,C#5,449.4,1/10,46,162.2
5079,B4,449.5,0.125,46,162.2
5080,A4,449.625,0.125,46,162.2
5081,G#4,449.75,0.125,45,162.2
5082,F#4,449.875,0.125,45,162.2
5083,E4,450.0,0.125,48,162.2
5084,E5,450.0,0.125,48,162.2
5085,C#5,450.0,0.125,48,162.2
5086,A4,450.5,0.125,49,162.2
5087,C#5,450.5,0.125,49,162.2
5088,C#4,450.5,0.125,49,162.2
5089,E2,450.5,0.125,44,162.2
5090,C#3,450.5,0.125,44,162.2
5091,E3,450.5,0.125,44,162.2
5092,B4,451.25,0.062,45,162.2
5093,D5,451.25,0.062,45,162.2
5094,D4,451.25,0.062,45,162.2
5095,A4,451.5,0.125,47,162.2
5096,C#4,451.5,0.125,47,162.2
5097,C#5,451.5,0.125,47,162.2
5098,E3,451.5,0.094,40,162.2
5099,E2,451.5,0.094,40,162.2
5100,C#3,451.5,0.094,40,162.2
5101,G#4,452.0,0.125,48,162.2
5102,B3,452.0,0.125,48,162.2
5103,B4,452.0,0.125,48,162.2
5104,D3,452.0,0.125,42,162.2
5105,E3,452.0,0.125,42,162.2
5106,E2,452.0,0.125,42,162.2
5107,B2,452.0,0.125,42,162.2
5108,F#4,452.75,0.062,48,162.2
5109,A4,452.75,0.062,48,162.2
5110,A3,452.75,0.062,48,162.2
5111,G#4,453.0,0.125,46,162.2
5112,B4,453.0,0.125,46,162.2
5113,B3,453.0,0.125,46,162.2
5114,D3,453.0,0.125,36,162.2
5115,E3,453.0,0.125,36,162.2
5116,E2,453.0,0.125,36,162.2
5117,B2,453.0,0.125,36,162.2
5118,A4,453.5,0.125,49,162.2
5119,C#4,453.5,0.125,49,162.2
5120,C#5,453.5,0.125,49,162.2
5121,E3,453.5,0.125,44,162.2
5122,A2,453.5,0.125,44,162.2
5123,C#3,453.5,0.125,44,162.2
5124,A3,453.5,0.125,44,162.2
5125,C#7,454.5,1/10,53,162.2
5126,E7,454.5,1/10,53,162.2
5127,A6,454.6,1/10,53,162.2
5128,G#6,454.7,1/10,53,162.2
5129,F#6,454.8,1/10,52,162.2
5130,E6,454.9,1/10,52,162.2
5131,D6,455.0,0.125,51,162.2
5132,C#6,455.125,0.125,50,162.2
5133,B5,455.25,0.125,50,162.2
5134,A5,455.375,0.125,49,162.2
5135,G#5,455.5,1/10,49,162.2
5136,F#5,455.6,1/10,48,162.2
5137,E5,455.7,1/10,48,162.2
5138,D5,455.8,1/10,47,162.2
5139,C#5,455.9,1/10,47,162.2
5140,B4,456.0,0.125,46,162.2
5141,A4,456.125,0.125,46,162.2
5142,G#4,456.25,0.125,45,162.2
5143,F#4,456.375,0.125,45,162.2
5144,E4,456.5,0.125,58,162.2
5145,E5,456.5,0.125,58,162.2
5146,C#5,456.5,0.125,58,162.2
5147,A4,457.0,0.125,62,162.2
5148,C#5,457.0,0.125,62,162.2
5149,C#4,457.0,0.125,62,162.2
5150,E2,457.0,0.125,54,162.2
5151,C#3,457.0,0.125,54,162.2
5152,E3,457.0,0.125,54,162.2
5153,B4,457.75,0.062,55,162.2
5154,D5,457.75,0.062,55,162.2
5155,D4,457.75,0.062,55,162.2
5156,A4,458.0,0.125,58,162.2
5157,C#4,458.0,0.125,58,162.2
5158,C#5,458.0,0.125,58,162.2
5159,E3,458.0,0.094,49,162.2
5160,E2,458.0,0.094,49,162.2
5161,C#3,458.0,0.094,49,162.2
5162,G#4,458.5,0.125,58,162.2
5163,B3,458.5,0.125,58,162.2
5164,B4,458.5,0.125,58,162.2
5165,D3,458.5,0.125,52,162.2
5166,E3,458.5,0.125,52,162.2
5167,E2,458.5,0.125,52,162.2
5168,B2,458.5,0.125,52,162.2
5169,F#4,459.25,0.062,58,162.2
5170,A4,459.25,0.062,58,162.2
5171,A3,459.25,0.062,58,162.2
5172,G#4,459.5,0.125,56,162.2
5173,B4,459.5,0.125,56,162.2
5174,B3,459.5,0.125,56,162.2
5175,D3,459.5,0.125,44,162.2
5176,E3,459.5,0.125,44,162.2
5177,E2,459.5,0.125,44,162.2
5178,B2,459.5,0.125,44,162.2
5179,A4,460.0,0.125,62,162.2
5180,C#4,460.0,0.125,62,162.2
5181,C#5,460.0,0.125,62,162.2
5182,E3,460.0,0.125,54,162.2
5183,A2,460.0,0.125,54,162.2
5184,C#3,460.0,0.125,54,162.2
5185,A3,460.0,0.125,54,162.2
5186,E-5,461.125,0.125,54,162.2
5187,F#4,461.125,0.125,42,162.2
5188,E5,461.25,0.125,56,162.2
5189,E4,461.25,0.125,44,162.2
5190,F#5,461.375,0.125,58,162.2
5191,D4,461.375,0.125,45,162.2
5192,G#5,461.5,0.125,60,162.2
5193,C#4,461.5,0.125,45,162.2
5194,A5,461.625,0.125,62,162.2
5195,B3,461.625,0.125,47,162.2
5196,B5,461.75,0.125,63,162.2
5197,A3,461.75,0.125,48,162.2
5198,C#6,461.875,0.125,65,162.2
5199,G#3,461.875,0.125,49,162.2
5200,D6,462.0,0.125,67,162.2
5201,F#3,462.0,0.125,51,162.2
5202,E6,462.125,0.125,69,162.2
5203,E3,462.125,0.125,52,162.2
5204,F#6,462.25,0.125,71,162.2
5205,D3,462.25,0.125,53,162.2
5206,G#6,462.375,0.125,72,162.2
5207,C#3,462.375,0.125,54,162.2
5208,A6,462.5,0.125,73,162.2
5209,B2,462.5,0.125,55,162.2
5210,B6,462.625,0.125,75,162.2
5211,A2,462.625,0.125,56,162.2
5212,C#7,462.75,0.125,77,162.2
5213,G#2,462.75,0.125,58,162.2
5214,D7,462.875,0.125,79,162.2
5215,F#2,462.875,0.125,59,162.2
5216,C#7,463.0,0.25,80,162.2
5217,E7,463.0,0.25,80,162.2
5218,E6,463.0,0.25,80,162.2
5219,E3,463.0,0.25,56,162.2
5220,E2,463.0,0.25,56,162.2
5221,C#3,463.0,0.25,56,162.2
5222,E2,463.492,1/125,61,162.2
5223,C#3,463.492,1/125,61,162.2
5224,E3,463.492,1/125,61,162.2
5225,A2,463.492,1/125,61,162.2
5226,E7,463.5,0.25,76,162.2
5227,A6,463.5,0.25,76,162.2
5228,E6,463.5,0.25,76,162.2
5229,C#7,463.5,0.25,76,162.2
5230,E2,463.5,121/500,61,162.2
5231,C#3,463.5,121/500,61,162.2
5232,E3,463.5,121/500,61,162.2
5233,A2,463.5,121/500,61,162.2
5234,D7,464.25,0.125,74,162.2
5235,E7,464.25,0.125,74,162.2
5236,B6,464.25,0.125,74,162.2
5237,E6,464.25,0.125,74,162.2
5238,E3,464.25,0.125,58,162.2
5239,E2,464.25,0.125,58,162.2
5240,B2,464.25,0.125,58,162.2
5241,D3,464.25,0.125,58,162.2
5242,E7,464.5,0.25,72,162.2
5243,E6,464.5,0.25,72,162.2
5244,C#7,464.5,0.25,72,162.2
5245,A6,464.5,0.25,72,162.2
5246,E3,464.5,0.188,58,162.2
5247,E2,464.5,0.188,58,162.2
5248,A2,464.5,0.188,58,162.2
5249,C#3,464.5,0.188,58,162.2
5250,E2,464.992,0.25,63,162.2
5251,E3,464.992,0.25,63,162.2
5252,B2,464.992,0.25,63,162.2
5253,G#2,464.992,0.25,63,162.2
5254,E7,465.0,0.25,76,162.2
5255,E6,465.0,0.25,76,162.2
5256,G#6,465.0,0.25,76,162.2
5257,B6,465.0,0.25,76,162.2
5258,E7,465.75,0.125,71,162.2
5259,E6,465.75,0.125,71,162.2
5260,F#6,465.75,0.125,71,162.2
5261,A6,465.75,0.125,71,162.2
5262,E3,465.75,0.125,55,162.2
5263,E2,465.75,0.125,55,162.2
5264,F#2,465.75,0.125,55,162.2
5265,A2,465.75,0.125,55,162.2
5266,E2,465.992,0.25,55,162.2
5267,E3,465.992,0.25,55,162.2
5268,B2,465.992,0.25,55,162.2
5269,G#2,465.992,0.25,55,162.2
5270,E7,466.0,0.25,71,162.2
5271,E6,466.0,0.25,71,162.2
5272,G#6,466.0,0.25,71,162.2
5273,B6,466.0,0.25,71,162.2
5274,A7,466.5,1.0,76,162.2
5275,A6,466.5,1.0,76,162.2
5276,C#7,466.5,1.0,76,162.2
5277,A2,466.5,1.0,58,162.2
5278,E2,466.5,1.0,58,162.2
5279,C#2,466.5,1.0,58,162.2
5280,A1,466.5,1.0,58,162.2
5281,B4,468.0,0.125,41,162.2
5282,G#4,468.0,0.125,41,162.2
5283,E4,468.0,0.125,33,162.2
5284,E3,468.0,0.125,33,162.2
5285,A4,468.75,0.062,38,162.2
5286,F#4,468.75,0.062,38,162.2
5287,E4,468.75,0.062,30,162.2
5288,E3,468.75,0.062,30,162.2
5289,B4,469.0,0.125,38,162.2
5290,G#4,469.0,0.125,38,162.2
5291,E4,469.0,0.125,30,162.2
5292,E3,469.0,0.125,30,162.2
5293,C#5,469.5,0.125,41,162.2
5294,A4,469.5,0.125,41,162.2
5295,E4,469.5,0.125,33,162.2
5296,A3,469.5,0.125,33,162.2
5297,D5,470.25,0.062,40,162.2
5298,B4,470.25,0.062,40,162.2
5299,E4,470.25,0.062,32,162.2
5300,A3,470.25,0.062,32,162.2
5301,C#5,470.5,0.125,40,162.2
5302,A4,470.5,0.125,40,162.2
5303,E4,470.5,0.125,32,162.2
5304,A3,470.5,0.125,32,162.2
5305,B4,471.0,0.125,41,162.2
5306,G#4,471.0,0.125,41,162.2
5307,E4,471.0,0.125,32,162.2
5308,E3,471.0,0.125,32,162.2
5309,D4,471.0,0.125,32,162.2
5310,A4,471.75,0.062,37,162.2
5311,F#4,471.75,0.062,37,162.2
5312,E4,471.75,0.062,30,162.2
5313,E3,471.75,0.062,30,162.2
5314,D4,471.75,0.062,30,162.2
5315,B4,472.0,0.125,37,162.2
5316,G#4,472.0,0.125,37,162.2
5317,E4,472.0,0.125,30,162.2
5318,E3,472.0,0.125,30,162.2
5319,D4,472.0,0.125,30,162.2
5320,A4,472.5,0.5,41,162.2
5321,E4,472.5,0.5,41,162.2
5322,C#4,472.5,0.5,33,162.2
5323,A3,472.5,0.5,33,162.2
5324,E6,474.0,0.75,76,162.2
5325,E5,474.0,0.75,76,162.2
5326,G#5,474.0,0.75,76,162.2
5327,B5,474.0,0.75,76,162.2
5328,E2,474.0,0.75,63,162.2
5329,E3,474.0,0.75,63,162.2
5330,B2,474.0,0.75,63,162.2
5331,G#2,474.0,0.75,63,162.2
5332,E6,474.75,0.25,71,162.2
5333,E5,474.75,0.25,71,162.2
5334,F#5,474.75,0.25,71,162.2
5335,A5,474.75,0.25,71,162.2
5336,E3,474.75,0.25,55,162.2
5337,E2,474.75,0.25,55,162.2
5338,F#2,474.75,0.25,55,162.2
5339,A2,474.75,0.25,55,162.2
5340,E2,474.992,0.5,55,162.2
5341,E3,474.992,0.5,55,162.2
5342,B2,474.992,0.5,55,162.2
5343,G#2,474.992,0.5,55,162.2
5344,E6,475.0,0.5,71,162.2
5345,E5,475.0,0.5,71,162.2
5346,G#5,475.0,0.5,71,162.2
5347,B5,475.0,0.5,71,162.2
5348,E6,475.5,0.75,76,162.2
5349,A5,475.5,0.75,76,162.2
5350,E5,475.5,0.75,76,162.2
5351,C#6,475.5,0.75,76,162.2
5352,A2,475.5,0.75,54,162.2
5353,C#3,475.5,0.75,54,162.2
5354,E3,475.5,0.75,54,162.2
5355,D6,476.25,0.25,74,162.2
5356,E6,476.25,0.25,74,162.2
5357,B5,476.25,0.25,74,162.2
5358,E5,476.25,0.25,74,162.2
5359,E3,476.25,0.25,59,162.2
5360,B2,476.25,0.25,59,162.2
5361,D3,476.25,0.25,59,162.2
5362,E6,476.5,0.5,72,162.2
5363,E5,476.5,0.5,72,162.2
5364,C#6,476.5,0.5,72,162.2
5365,A5,476.5,0.5,72,162.2
5366,E3,476.5,0.5,59,162.2
5367,A2,476.5,0.5,59,162.2
5368,C#3,476.5,0.5,59,162.2
5369,E2,476.992,0.75,63,162.2
5370,E3,476.992,0.75,63,162.2
5371,B2,476.992,0.75,63,162.2
5372,G#2,476.992,0.75,63,162.2
5373,E6,477.0,0.75,76,162.2
5374,E5,477.0,0.75,76,162.2
5375,G#5,477.0,0.75,76,162.2
5376,B5,477.0,0.75,76,162.2
5377,E6,477.75,0.25,71,162.2
5378,E5,477.75,0.25,71,162.2
5379,F#5,477.75,0.25,71,162.2
5380,A5,477.75,0.25,71,162.2
5381,E3,477.75,0.25,55,162.2
5382,E2,477.75,0.25,55,162.2
5383,F#2,477.75,0.25,55,162.2
5384,A2,477.75,0.25,55,162.2
5385,E2,477.992,0.5,55,162.2
5386,E3,477.992,0.5,55,162.2
5387,B2,477.992,0.5,55,162.2
5388,G#2,477.992,0.5,55,162.2
5389,E6,478.0,0.5,71,162.2
5390,E5,478.0,0.5,71,162.2
5391,G#5,478.0,0.5,71,162.2
5392,B5,478.0,0.5,71,162.2
5393,A6,478.5,1.0,83,162.2
5394,A5,478.5,1.0,83,162.2
5395,C#6,478.5,1.0,83,162.2
5396,A2,478.5,1.0,58,162.2
5397,E2,478.5,1.0,58,162.2
5398,C#2,478.5,1.0,58,162.2
5399,A1,478.5,1.0,58,162.2
5400,E3,480.0,0.438,45,162.2
5401,A2,480.438,0.062,36,162.2
5402,C#3,480.438,0.062,36,162.2
5403,A3,480.5,167/1000,49,162.2
5404,A2,480.5,0.469,36,162.2
5405,C#3,480.5,0.469,36,162.2
5406,B3,480.667,167/1000,42,162.2
5407,A3,480.833,167/1000,42,162.2
5408,G#3,481.0,167/1000,47,162.2
5409,C#4,481.0,0.25,36,162.2
5410,E4,481.0,0.25,36,162.2
5411,A4,481.0,0.25,36,162.2
5412,A3,481.167,167/1000,43,162.2
5413,B3,481.333,13/125,43,162.2
5414,A2,481.438,0.281,36,162.2
5415,E3,481.438,0.281,36,162.2
5416,C#4,481.5,167/1000,49,162.2
5417,C4,481.667,167/1000,45,162.2
5418,D4,481.833,167/1000,45,162.2
5419,C#4,482.0,167/1000,49,162.2
5420,E4,482.0,0.25,36,162.2
5421,A4,482.0,0.25,36,162.2
5422,B3,482.167,167/1000,45,162.2
5423,A3,482.333,167/1000,45,162.2
5424,D3,482.5,0.25,36,162.2
5425,F#3,482.5,167/1000,49,162.2
5426,G#3,482.667,167/1000,43,162.2
5427,F#3,482.833,167/1000,43,162.2
5428,F3,483.0,167/1000,45,162.2
5429,D4,483.0,0.25,36,162.2
5430,F#4,483.0,0.25,36,162.2
5431,B4,483.0,0.25,36,162.2
5432,F#3,483.167,167/1000,43,162.2
5433,B-3,483.333,167/1000,43,162.2
5434,E-3,483.5,0.25,36,162.2
5435,B3,483.5,167/1000,48,162.2
5436,C#4,483.667,167/1000,42,162.2
5437,B3,483.833,167/1000,42,162.2
5438,B-3,484.0,167/1000,45,162.2
5439,F#4,484.0,0.25,36,162.2
5440,A4,484.0,0.25,36,162.2
5441,B4,484.0,0.25,36,162.2
5442,B3,484.167,167/1000,43,162.2
5443,A3,484.333,167/1000,43,162.2
5444,E3,484.5,0.25,36,162.2
5445,G#3,484.5,167/1000,54,162.2
5446,F#4,484.667,167/1000,45,162.2
5447,E4,484.833,167/1000,45,162.2
5448,E-4,485.0,167/1000,50,162.2
5449,B4,485.0,0.25,36,162.2
5450,G#4,485.0,0.25,36,162.2
5451,E4,485.167,167/1000,45,162.2
5452,G#3,485.333,167/1000,45,162.2
5453,A3,485.5,167/1000,48,162.2
5454,B2,485.5,0.25,36,162.2
5455,E-3,485.5,0.25,36,162.2
5456,C4,485.667,167/1000,44,162.2
5457,B3,485.833,167/1000,44,162.2
5458,B-3,486.0,167/1000,48,162.2
5459,E-4,486.0,0.25,36,162.2
5460,B4,486.0,0.25,36,162.2
5461,A4,486.0,0.25,36,162.2
5462,F#4,486.0,0.25,36,162.2
5463,B3,486.167,167/1000,44,162.2
5464,E-3,486.333,167/1000,44,162.2
5465,E2,486.5,0.25,36,162.2
5466,E3,486.5,167/1000,49,162.2
5467,G#3,486.667,167/1000,45,162.2
5468,B3,486.833,167/1000,45,162.2
5469,E3,487.0,0.5,44,162.2
5470,G#3,487.0,0.5,44,162.2
5471,E4,487.0,0.5,44,162.2
5472,G#4,487.167,333/1000,44,162.2
5473,F#5,487.167,167/1000,44,162.2
5474,E5,487.333,167/1000,45,162.2
5475,E-5,487.5,167/1000,48,162.2
5476,A4,487.5,333/1000,40,162.2
5477,C4,487.5,333/1000,45,162.2
5478,F3,487.5,167/1000,38,162.2
5479,D5,487.667,0.5,50,162.2
5480,F#3,487.667,167/1000,42,162.2
5481,F4,487.833,167/1000,47,162.2
5482,B3,487.833,333/1000,37,162.2
5483,G3,487.833,167/1000,30,162.2
5484,E4,488.0,167/1000,45,162.2
5485,G#3,488.0,167/1000,39,162.2
5486,B4,488.167,167/1000,45,162.2
5487,G#4,488.167,333/1000,37,162.2
5488,D4,488.167,167/1000,38,162.2
5489,E3,488.167,333/1000,32,162.2
5490,C#5,488.333,167/1000,45,162.2
5491,E4,488.333,167/1000,39,162.2
5492,A3,488.5,167/1000,49,162.2
5493,A2,488.5,0.5,36,162.2
5494,C#3,488.5,0.5,36,162.2
5495,B3,488.667,167/1000,42,162.2
5496,A3,488.833,167/1000,42,162.2
5497,G#3,489.0,167/1000,47,162.2
5498,C#4,489.0,0.25,36,162.2
5499,E4,489.0,0.25,36,162.2
5500,A4,489.0,0.25,36,162.2
5501,A3,489.167,167/1000,43,162.2
5502,B3,489.333,13/125,43,162.2
5503,A2,489.438,0.281,36,162.2
5504,E3,489.438,0.281,36,162.2
5505,C#4,489.5,167/1000,49,162.2
5506,C4,489.667,167/1000,45,162.2
5507,D4,489.833,167/1000,45,162.2
5508,C#4,490.0,167/1000,49,162.2
5509,E4,490.0,0.25,36,162.2
5510,A4,490.0,0.25,36,162.2
5511,B3,490.167,167/1000,45,162.2
5512,A3,490.333,167/1000,45,162.2
5513,D3,490.5,0.25,36,162.2
5514,F#3,490.5,167/1000,49,162.2
5515,G#3,490.667,167/1000,43,162.2
5516,F#3,490.833,167/1000,43,162.2
5517,F3,491.0,167/1000,45,162.2
5518,D4,491.0,0.25,36,162.2
5519,F#4,491.0,0.25,36,162.2
5520,B4,491.0,0.25,36,162.2
5521,F#3,491.167,167/1000,43,162.2
5522,B-3,491.333,167/1000,43,162.2
5523,D3,491.5,0.25,36,162.2
5524,B3,491.5,167/1000,48,162.2
5525,C#4,491.667,167/1000,42,162.2
5526,B3,491.833,167/1000,42,162.2
5527,B-3,492.0,167/1000,45,162.2
5528,D4,492.0,0.25,36,162.2
5529,F#4,492.0,0.25,36,162.2
5530,B4,492.0,0.25,36,162.2
5531,B3,492.167,167/1000,43,162.2
5532,A3,492.333,13/125,43,162.2
5533,E2,492.438,0.062,36,162.2
5534,A3,492.5,73/500,54,162.2
5535,E2,492.5,0.25,36,162.2
5536,G#3,492.667,167/1000,45,162.2
5537,F#3,492.833,167/1000,45,162.2
5538,F#3,493.0,167/1000,50,162.2
5539,D4,493.0,0.25,36,162.2
5540,E4,493.0,0.25,36,162.2
5541,B4,493.0,0.25,36,162.2
5542,G#4,493.0,0.25,36,162.2
5543,E3,493.167,167/1000,45,162.2
5544,E-3,493.333,73/500,45,162.2
5545,E2,493.5,0.25,36,162.2
5546,E-3,493.5,167/1000,48,162.2
5547,E3,493.667,167/1000,44,162.2
5548,F3,493.833,167/1000,44,162.2
5549,E5,494.0,0.5,36,162.2
5550,F#3,494.0,167/1000,48,162.2
5551,D4,494.0,0.5,36,162.2
5552,B4,494.0,0.5,36,162.2
5553,E4,494.0,0.5,36,162.2
5554,G3,494.167,167/1000,44,162.2
5555,G#3,494.333,167/1000,44,162.2
5556,E5,494.5,167/1000,36,162.2
5557,C#4,494.5,167/1000,40,162.2
5558,A4,494.5,167/1000,40,162.2
5559,A2,494.5,167/1000,40,162.2
5560,E3,494.5,167/1000,40,162.2
5561,A3,494.5,167/1000,40,162.2
5562,A4,494.667,0.125,46,162.2
5563,E5,494.667,0.125,46,162.2
5564,E4,494.667,0.125,50,162.2
5565,C#4,494.667,0.125,50,162.2
5566,A4,494.833,0.125,46,162.2
5567,E5,494.833,0.125,46,162.2
5568,E4,494.833,0.125,49,162.2
5569,C#4,494.833,0.125,49,162.2
5570,A4,495.0,0.125,45,162.2
5571,E5,495.0,0.125,45,162.2
5572,C#4,495.0,0.125,49,162.2
5573,E4,495.0,0.125,49,162.2
5574,A4,495.167,0.125,45,162.2
5575,E-5,495.167,0.125,45,162.2
5576,C4,495.167,0.125,48,162.2
5577,F#4,495.167,0.125,48,162.2
5578,A4,495.333,0.125,45,162.2
5579,E-5,495.333,0.125,45,162.2
5580,C4,495.333,0.125,47,162.2
5581,F#4,495.333,0.125,47,162.2
5582,A4,495.5,0.125,45,162.2
5583,E-5,495.5,0.125,45,162.2
5584,C4,495.5,0.125,46,162.2
5585,F#4,495.5,0.125,46,162.2
5586,A4,495.667,0.125,44,162.2
5587,D5,495.667,0.125,44,162.2
5588,B3,495.667,0.125,45,162.2
5589,F4,495.667,0.125,45,162.2
5590,A4,495.833,0.125,44,162.2
5591,D5,495.833,0.125,44,162.2
5592,B3,495.833,0.125,45,162.2
5593,F4,495.833,0.125,45,162.2
5594,A4,496.0,0.125,43,162.2
5595,D5,496.0,0.125,43,162.2
5596,B3,496.0,0.125,45,162.2
5597,F4,496.0,0.125,45,162.2
5598,G#4,496.167,0.062,42,162.2
5599,B4,496.167,0.062,42,162.2
5600,E3,496.167,0.062,44,162.2
5601,D4,496.167,0.062,44,162.2
5602,G#4,496.333,0.062,42,162.2
5603,C#5,496.333,0.062,42,162.2
5604,E3,496.333,0.062,43,162.2
5605,E4,496.333,0.062,43,162.2
5606,C#4,496.5,247/500,36,162.2
5607,A4,496.5,167/1000,51,162.2
5608,A3,496.5,0.25,32,162.2
5609,A2,496.5,0.25,32,162.2
5610,E3,496.5,0.25,32,162.2
5611,B4,496.667,167/1000,45,162.2
5612,A4,496.833,167/1000,45,162.2
5613,G#4,497.0,167/1000,47,162.2
5614,E4,497.0,0.25,32,162.2
5615,C#4,497.0,0.25,32,162.2
5616,A4,497.167,167/1000,43,162.2
5617,B4,497.333,13/125,43,162.2
5618,C#5,497.438,0.031,36,162.2
5619,D5,497.438,0.031,36,162.2
5620,C#5,497.5,167/1000,49,162.2
5621,A2,497.5,0.25,36,162.2
5622,E4,497.5,0.5,36,162.2
5623,A4,497.5,0.5,36,162.2
5624,C5,497.667,167/1000,45,162.2
5625,D5,497.833,167/1000,45,162.2
5626,C#5,498.0,167/1000,49,162.2
5627,C#4,498.0,0.25,29,162.2
5628,A3,498.0,0.25,29,162.2
5629,E3,498.0,0.25,29,162.2
5630,B4,498.167,167/1000,45,162.2
5631,A4,498.333,167/1000,45,162.2
5632,G#4,498.5,167/1000,51,162.2
5633,D2,498.5,0.25,41,162.2
5634,F#4,498.667,167/1000,45,162.2
5635,G#5,498.833,167/1000,52,162.2
5636,D3,498.906,1.062,35,162.2
5637,A3,498.906,1.062,35,162.2
5638,B3,498.969,1.0,38,162.2
5639,F#4,498.969,1.0,38,162.2
5640,F#5,499.0,167/1000,54,162.2
5641,G#6,499.167,167/1000,51,162.2
5642,F#6,499.333,167/1000,54,162.2
5643,C#7,499.5,167/1000,58,162.2
5644,B6,499.667,167/1000,55,162.2
5645,F#6,499.833,167/1000,55,162.2
5646,C#6,500.0,167/1000,58,162.2
5647,F#4,500.0,0.5,41,162.2
5648,B3,500.0,0.5,41,162.2
5649,E-3,500.0,0.5,41,162.2
5650,B5,500.167,167/1000,50,162.2
5651,F#5,500.333,167/1000,50,162.2
5652,A5,500.333,167/1000,50,162.2
5653,G#5,500.5,167/1000,56,162.2
5654,F#5,500.5,167/1000,56,162.2
5655,E3,500.5,0.5,45,162.2
5656,B3,500.5,0.5,45,162.2
5657,G#4,500.5,0.5,45,162.2
5658,E5,500.667,167/1000,48,162.2
5659,C#5,500.833,167/1000,48,162.2
5660,B4,501.0,167/1000,49,162.2
5661,G#3,501.0,0.25,36,162.2
5662,B3,501.0,0.25,36,162.2
5663,G#4,501.167,167/1000,47,162.2
5664,G#4,501.333,167/1000,50,162.2
5665,E4,501.333,167/1000,50,162.2
5666,B2,501.5,0.25,36,162.2
5667,E4,501.5,167/1000,48,162.2
5668,A4,501.5,167/1000,48,162.2
5669,F#4,501.5,167/1000,48,162.2
5670,C4,501.667,167/1000,46,162.2
5671,B3,501.833,167/1000,46,162.2
5672,A3,502.0,167/1000,50,162.2
5673,E-4,502.0,0.5,43,162.2
5674,F#4,502.0,0.5,43,162.2
5675,B4,502.0,0.5,43,162.2
5676,F#3,502.167,167/1000,50,162.2
5677,E-3,502.333,167/1000,50,162.2
5678,E2,502.438,0.062,36,162.2
5679,G#2,502.438,0.062,36,162.2
5680,E3,502.5,167/1000,57,162.2
5681,E2,502.5,0.469,36,162.2
5682,G#2,502.5,0.469,36,162.2
5683,G#3,502.667,167/1000,45,162.2
5684,B3,502.833,167/1000,45,162.2
5685,E3,503.0,0.5,40,162.2
5686,G#3,503.0,0.5,40,162.2
5687,E4,503.0,0.5,40,162.2
5688,G#4,503.167,333/1000,44,162.2
5689,F#5,503.167,167/1000,44,162.2
5690,E5,503.333,167/1000,45,162.2
5691,E-5,503.5,167/1000,48,162.2
5692,A4,503.5,333/1000,40,162.2
5693,C4,503.5,333/1000,45,162.2
5694,F3,503.5,167/1000,38,162.2
5695,D5,503.667,0.5,50,162.2
5696,F#3,503.667,167/1000,42,162.2
5697,F4,503.833,167/1000,47,162.2
5698,B3,503.833,333/1000,37,162.2
5699,G3,503.833,167/1000,30,162.2
5700,E4,504.0,167/1000,45,162.2
5701,G#3,504.0,167/1000,39,162.2
5702,B4,504.167,167/1000,41,162.2
5703,G#4,504.167,167/1000,41,162.2
5704,D4,504.167,167/1000,35,162.2
5705,E3,504.167,167/1000,35,162.2
5706,G#4,504.333,167/1000,39,162.2
5707,C#5,504.333,167/1000,39,162.2
5708,E3,504.333,167/1000,36,162.2
5709,E4,504.333,167/1000,36,162.2
5710,C#4,504.5,123/250,36,162.2
5711,A4,504.5,167/1000,51,162.2
5712,A3,504.5,0.25,32,162.2
5713,A2,504.5,0.25,32,162.2
5714,E3,504.5,0.25,32,162.2
5715,B4,504.667,167/1000,45,162.2
5716,A4,504.833,167/1000,45,162.2
5717,G#4,505.0,167/1000,47,162.2
5718,E4,505.0,0.25,32,162.2
5719,C#4,505.0,0.25,32,162.2
5720,A4,505.167,167/1000,43,162.2
5721,B4,505.333,13/125,43,162.2
5722,C#5,505.438,0.031,36,162.2
5723,D5,505.438,0.031,36,162.2
5724,C#5,505.5,167/1000,49,162.2
5725,A2,505.5,0.25,36,162.2
5726,E4,505.5,0.5,36,162.2
5727,A4,505.5,0.5,36,162.2
5728,C5,505.667,167/1000,45,162.2
5729,D5,505.833,167/1000,45,162.2
5730,C#5,506.0,167/1000,49,162.2
5731,C#4,506.0,0.25,29,162.2
5732,A3,506.0,0.25,29,162.2
5733,E3,506.0,0.25,29,162.2
5734,B4,506.167,167/1000,45,162.2
5735,A4,506.333,167/1000,45,162.2
5736,G#4,506.5,167/1000,51,162.2
5737,D2,506.5,0.25,41,162.2
5738,F#4,506.667,167/1000,45,162.2
5739,G#5,506.833,167/1000,52,162.2
5740,D3,506.938,0.969,36,162.2
5741,B3,506.938,0.969,36,162.2
5742,F#5,507.0,167/1000,54,162.2
5743,F#4,507.0,0.938,39,162.2
5744,G#6,507.167,167/1000,51,162.2
5745,F#6,507.333,167/1000,54,162.2
5746,C#7,507.5,167/1000,58,162.2
5747,B6,507.667,167/1000,55,162.2
5748,F#6,507.833,167/1000,55,162.2
5749,D3,507.938,0.531,39,162.2
5750,B3,507.938,0.531,39,162.2
5751,C#6,508.0,167/1000,58,162.2
5752,F#4,508.0,0.5,45,162.2
5753,B5,508.167,167/1000,50,162.2
5754,F#5,508.333,167/1000,50,162.2
5755,A5,508.333,167/1000,50,162.2
5756,A5,508.5,167/1000,51,162.2
5757,E2,508.5,0.25,47,162.2
5758,B4,508.5,333/1000,45,162.2
5759,D5,508.5,333/1000,45,162.2
5760,G#5,508.667,167/1000,45,162.2
5761,F#6,508.833,167/1000,52,162.2
5762,G#5,508.833,333/1000,38,162.2
5763,B5,508.833,333/1000,38,162.2
5764,E3,508.906,0.312,35,162.2
5765,B3,508.906,0.312,35,162.2
5766,D4,508.969,0.25,38,162.2
5767,G#4,508.969,0.25,38,162.2
5768,E6,509.0,167/1000,54,162.2
5769,C#6,509.167,167/1000,51,162.2
5770,D5,509.167,333/1000,38,162.2
5771,G#5,509.167,333/1000,38,162.2
5772,B5,509.333,167/1000,54,162.2
5773,A5,509.5,167/1000,58,162.2
5774,E2,509.5,0.25,45,162.2
5775,B4,509.5,333/1000,45,162.2
5776,D5,509.5,333/1000,45,162.2
5777,G#5,509.667,167/1000,55,162.2
5778,F#5,509.833,167/1000,55,162.2
5779,G#4,509.833,333/1000,38,162.2
5780,B4,509.833,333/1000,38,162.2
5781,E3,509.906,0.312,35,162.2
5782,B3,509.906,0.312,35,162.2
5783,D4,509.969,0.25,38,162.2
5784,E4,509.969,0.25,38,162.2
5785,E5,510.0,167/1000,58,162.2
5786,F#5,510.167,167/1000,50,162.2
5787,B4,510.167,333/1000,38,162.2
5788,D5,510.167,333/1000,38,162.2
5789,G#5,510.333,167/1000,50,162.2
5790,C#3,510.438,0.062,40,162.2
5791,A3,510.438,0.062,40,162.2
5792,C#5,510.5,0.25,52,162.2
5793,A5,510.5,167/1000,52,162.2
5794,E4,510.5,0.25,47,162.2
5795,C#3,510.5,0.469,40,162.2
5796,A3,510.5,0.469,40,162.2
5797,E5,510.667,167/1000,54,162.2
5798,C#6,510.667,167/1000,54,162.2
5799,C#5,510.75,0.25,41,162.2
5800,E4,510.75,0.25,41,162.2
5801,A4,510.75,0.25,41,162.2
5802,A5,510.833,167/1000,56,162.2
5803,E6,510.833,167/1000,56,162.2
5804,C#6,511.0,167/1000,59,162.2
5805,A6,511.0,167/1000,59,162.2
5806,E5,511.0,0.5,48,162.2
5807,C#4,511.0,0.5,48,162.2
5808,A4,511.0,0.5,48,162.2
5809,E6,511.167,167/1000,62,162.2
5810,C#7,511.167,167/1000,62,162.2
5811,A6,511.333,167/1000,63,162.2
5812,E7,511.333,167/1000,63,162.2
5813,E7,511.5,333/1000,66,162.2
5814,B6,511.5,167/1000,66,162.2
5815,G#3,511.5,0.5,42,162.2
5816,G#2,511.5,0.5,42,162.2
5817,E3,511.5,0.5,42,162.2
5818,E6,511.667,167/1000,65,162.2
5819,E5,511.75,0.5,52,162.2
5820,E4,511.75,0.5,52,162.2
5821,B4,511.75,0.5,52,162.2
5822,B6,511.833,333/1000,64,162.2
5823,E6,511.833,167/1000,64,162.2
5824,B5,512.0,167/1000,63,162.2
5825,E6,512.167,333/1000,63,162.2
5826,B5,512.167,167/1000,63,162.2
5827,B4,512.25,0.25,42,162.2
5828,B3,512.25,0.25,42,162.2
5829,G#4,512.25,0.25,42,162.2
5830,E5,512.333,167/1000,62,162.2
5831,D6,512.5,167/1000,61,162.2
5832,E5,512.5,333/1000,58,162.2
5833,E6,512.5,333/1000,58,162.2
5834,A3,512.5,0.5,48,162.2
5835,A2,512.5,0.5,48,162.2
5836,E3,512.5,0.5,48,162.2
5837,C#6,512.667,167/1000,61,162.2
5838,C6,512.833,167/1000,60,162.2
5839,E5,512.833,333/1000,56,162.2
5840,E6,512.833,333/1000,56,162.2
5841,C5,512.833,167/1000,43,162.2
5842,E4,512.833,167/1000,43,162.2
5843,B5,513.0,167/1000,60,162.2
5844,B4,513.0,167/1000,43,162.2
5845,E-4,513.0,167/1000,43,162.2
5846,B-5,513.167,167/1000,59,162.2
5847,E5,513.167,333/1000,56,162.2
5848,E6,513.167,333/1000,56,162.2
5849,B-4,513.167,167/1000,42,162.2
5850,D4,513.167,167/1000,42,162.2
5851,A5,513.333,167/1000,58,162.2
5852,A4,513.333,167/1000,42,162.2
5853,C#4,513.333,167/1000,42,162.2
5854,E3,513.438,1.062,45,162.2
5855,C#4,513.469,167/1000,38,162.2
5856,A4,513.469,167/1000,38,162.2
5857,A5,513.5,167/1000,54,162.2
5858,E5,513.5,333/1000,52,162.2
5859,E6,513.5,333/1000,52,162.2
5860,G#5,513.667,167/1000,54,162.2
5861,C4,513.667,167/1000,38,162.2
5862,G#4,513.667,167/1000,38,162.2
5863,A5,513.833,167/1000,53,162.2
5864,E5,513.833,333/1000,50,162.2
5865,E6,513.833,333/1000,50,162.2
5866,C#4,513.833,167/1000,38,162.2
5867,A4,513.833,167/1000,38,162.2
5868,C#6,514.0,167/1000,53,162.2
5869,E4,514.0,167/1000,34,162.2
5870,C#5,514.0,167/1000,34,162.2
5871,C6,514.167,167/1000,45,162.2
5872,G#4,514.167,333/1000,32,162.2
5873,E5,514.167,333/1000,44,162.2
5874,E6,514.167,333/1000,44,162.2
5875,E-4,514.167,167/1000,33,162.2
5876,C5,514.167,167/1000,33,162.2
5877,B5,514.333,23/200,50,162.2
5878,D4,514.333,23/200,34,162.2
5879,B4,514.333,23/200,34,162.2
5880,A3,514.448,13/250,36,162.2
5881,E4,514.448,13/250,36,162.2
5882,A4,514.448,13/250,36,162.2
5883,C#5,514.479,21/1000,53,162.2
5884,A5,514.479,21/1000,53,162.2
5885,E6,514.479,21/1000,53,162.2
5886,C#5,514.5,73/500,53,162.2
5887,A5,514.5,73/500,53,162.2
5888,E6,514.5,73/500,53,162.2
5889,A3,514.5,229/1000,36,162.2
5890,E4,514.5,229/1000,36,162.2
5891,A4,514.5,229/1000,36,162.2
5892,A4,514.667,0.125,55,162.2
5893,C#6,514.833,0.125,55,162.2
5894,A2,514.938,0.281,38,162.2
5895,E3,514.938,0.281,38,162.2
5896,C#5,515.0,0.125,61,162.2
5897,C#4,515.0,0.25,38,162.2
5898,E6,515.125,0.125,53,162.2
5899,E5,515.25,0.125,61,162.2
5900,C#7,515.375,0.125,53,162.2
5901,A6,515.5,0.25,61,162.2
5902,A5,515.5,0.25,61,162.2
5903,A2,515.5,0.25,38,162.2
5904,C#3,515.5,0.25,38,162.2
5905,A3,515.5,0.25,38,162.2
5906,E-3,516.0,167/1000,57,162.2
5907,E3,516.167,167/1000,53,162.2
5908,C#4,516.333,167/1000,49,162.2
5909,A3,516.333,167/1000,49,162.2
5910,E2,516.5,0.25,54,162.2
5911,B3,516.5,167/1000,54,162.2
5912,G#3,516.5,167/1000,54,162.2
5913,G#3,516.667,167/1000,46,162.2
5914,E3,516.667,167/1000,46,162.2
5915,A3,516.833,167/1000,46,162.2
5916,F#3,516.833,167/1000,46,162.2
5917,B3,517.0,167/1000,48,162.2
5918,G#3,517.0,167/1000,48,162.2
5919,B4,517.0,0.25,50,162.2
5920,G#4,517.0,0.25,50,162.2
5921,C#4,517.167,167/1000,48,162.2
5922,A3,517.167,167/1000,48,162.2
5923,G#4,517.25,0.25,42,162.2
5924,E4,517.25,0.25,42,162.2
5925,E-4,517.333,167/1000,50,162.2
5926,B3,517.333,167/1000,50,162.2
5927,E3,517.5,0.25,51,162.2
5928,E4,517.5,167/1000,54,162.2
5929,C#4,517.5,167/1000,54,162.2
5930,E-4,517.667,167/1000,50,162.2
5931,C4,517.667,167/1000,50,162.2
5932,F#4,517.833,167/1000,50,162.2
5933,E-4,517.833,167/1000,50,162.2
5934,E4,518.0,167/1000,50,162.2
5935,C#4,518.0,167/1000,50,162.2
5936,E5,518.0,0.25,50,162.2
5937,C#5,518.0,0.25,50,162.2
5938,E-4,518.167,167/1000,50,162.2
5939,B3,518.167,167/1000,50,162.2
5940,C#5,518.25,0.25,44,162.2
5941,A4,518.25,0.25,44,162.2
5942,C#4,518.333,167/1000,50,162.2
5943,A3,518.333,167/1000,50,162.2
5944,E2,518.5,0.25,53,162.2
5945,B-3,518.5,167/1000,54,162.2
5946,G3,518.5,167/1000,54,162.2
5947,B3,518.667,167/1000,47,162.2
5948,G#3,518.667,167/1000,47,162.2
5949,G#3,518.833,167/1000,47,162.2
5950,E3,518.833,167/1000,47,162.2
5951,B3,519.0,167/1000,49,162.2
5952,G#3,519.0,167/1000,49,162.2
5953,B4,519.0,333/1000,50,162.2
5954,G#4,519.0,333/1000,50,162.2
5955,E4,519.167,167/1000,46,162.2
5956,B3,519.167,167/1000,46,162.2
5957,G#4,519.333,167/1000,50,162.2
5958,E4,519.333,167/1000,47,162.2
5959,B4,519.5,167/1000,53,162.2
5960,G#4,519.5,167/1000,53,162.2
5961,E5,519.667,167/1000,50,162.2
5962,B4,519.667,167/1000,50,162.2
5963,G#5,519.833,167/1000,50,162.2
5964,E5,519.833,167/1000,50,162.2
5965,B5,520.0,83/1000,54,162.2
5966,G#5,520.0,83/1000,54,162.2
5967,B5,520.167,83/1000,50,162.2
5968,G#5,520.167,83/1000,50,162.2
5969,B5,520.333,83/1000,50,162.2
5970,G#5,520.333,83/1000,50,162.2
5971,E-3,520.5,2.0,54,162.2
5972,B5,520.5,83/1000,54,162.2
5973,G#5,520.5,83/1000,54,162.2
5974,B5,520.667,83/1000,50,162.2
5975,G#5,520.667,83/1000,50,162.2
5976,B4,520.75,0.188,44,162.2
5977,B3,520.75,0.188,44,162.2
5978,F#4,520.75,0.188,44,162.2
5979,B5,520.833,83/1000,50,162.2
5980,G#5,520.833,83/1000,50,162.2
5981,B5,521.0,167/1000,52,162.2
5982,G#5,521.0,167/1000,52,162.2
5983,B4,521.0,0.188,44,162.2
5984,B3,521.0,0.188,44,162.2
5985,F#4,521.0,0.188,44,162.2
5986,C#6,521.167,167/1000,50,162.2
5987,A5,521.167,167/1000,50,162.2
5988,B4,521.25,0.188,44,162.2
5989,B3,521.25,0.188,44,162.2
5990,F#4,521.25,0.188,44,162.2
5991,B5,521.333,83/1000,50,162.2
5992,G#5,521.333,83/1000,50,162.2
5993,B-5,521.5,167/1000,54,162.2
5994,G5,521.5,167/1000,54,162.2
5995,B-4,521.5,0.25,47,162.2
5996,B3,521.5,0.25,47,162.2
5997,F#4,521.5,0.25,47,162.2
5998,B5,521.667,167/1000,50,162.2
5999,G#5,521.667,167/1000,50,162.2
6000,B4,521.75,0.188,46,162.2
6001,B3,521.75,0.188,46,162.2
6002,F#4,521.75,0.188,46,162.2
6003,B-5,521.833,83/1000,50,162.2
6004,G5,521.833,83/1000,50,162.2
6005,A5,522.0,167/1000,52,162.2
6006,F#5,522.0,167/1000,52,162.2
6007,A4,522.0,0.25,48,162.2
6008,B3,522.0,0.25,48,162.2
6009,F#4,522.0,0.25,48,162.2
6010,B5,522.167,167/1000,50,162.2
6011,G#5,522.167,167/1000,50,162.2
6012,B4,522.25,0.188,46,162.2
6013,B3,522.25,0.188,46,162.2
6014,F#4,522.25,0.188,46,162.2
6015,A5,522.333,167/1000,50,162.2
6016,F#5,522.333,167/1000,50,162.2
6017,E3,522.438,0.062,44,162.2
6018,B3,522.438,0.062,44,162.2
6019,G#4,522.5,0.5,54,162.2
6020,G#5,522.5,167/1000,52,162.2
6021,E5,522.5,167/1000,52,162.2
6022,E3,522.5,0.469,44,162.2
6023,B3,522.5,0.469,44,162.2
6024,B6,522.667,167/1000,54,162.2
6025,G#6,522.667,167/1000,54,162.2
6026,A6,522.833,167/1000,50,162.2
6027,F#6,522.833,167/1000,50,162.2
6028,G#6,523.0,167/1000,50,162.2
6029,E6,523.0,167/1000,50,162.2
6030,B4,523.0,0.25,48,162.2
6031,E4,523.0,0.25,48,162.2
6032,G#4,523.0,0.25,48,162.2
6033,B5,523.167,167/1000,50,162.2
6034,G#5,523.167,167/1000,50,162.2
6035,A5,523.333,167/1000,48,162.2
6036,F#5,523.333,167/1000,48,162.2
6037,G#5,523.5,0.25,50,162.2
6038,E5,523.5,0.25,50,162.2
6039,B4,523.667,167/1000,49,162.2
6040,G#4,523.667,167/1000,49,162.2
6041,A4,523.833,167/1000,49,162.2
6042,F#4,523.833,167/1000,49,162.2
6043,G#4,524.0,167/1000,49,162.2
6044,E4,524.0,167/1000,49,162.2
6045,G#3,524.167,0.125,50,162.2
6046,E3,524.167,0.125,50,162.2
6047,A3,524.333,0.125,50,162.2
6048,F#3,524.333,0.125,50,162.2
6049,E2,524.5,0.25,54,162.2
6050,B3,524.5,167/1000,54,162.2
6051,G#3,524.5,167/1000,54,162.2
6052,G#3,524.667,167/1000,46,162.2
6053,E3,524.667,167/1000,46,162.2
6054,A3,524.833,167/1000,46,162.2
6055,F#3,524.833,167/1000,46,162.2
6056,B3,525.0,167/1000,48,162.2
6057,G#3,525.0,167/1000,48,162.2
6058,B4,525.0,0.25,50,162.2
6059,G#4,525.0,0.25,50,162.2
6060,C#4,525.167,167/1000,48,162.2
6061,A3,525.167,167/1000,48,162.2
6062,G#4,525.25,0.25,42,162.2
6063,E4,525.25,0.25,42,162.2
6064,E-4,525.333,167/1000,50,162.2
6065,B3,525.333,167/1000,50,162.2
6066,E3,525.5,0.25,51,162.2
6067,E4,525.5,167/1000,54,162.2
6068,C#4,525.5,167/1000,54,162.2
6069,E-4,525.667,167/1000,50,162.2
6070,C4,525.667,167/1000,50,162.2
6071,F#4,525.833,167/1000,50,162.2
6072,E-4,525.833,167/1000,50,162.2
6073,E4,526.0,167/1000,50,162.2
6074,C#4,526.0,167/1000,50,162.2
6075,E5,526.0,0.25,50,162.2
6076,C#5,526.0,0.25,50,162.2
6077,E-4,526.167,167/1000,50,162.2
6078,B3,526.167,167/1000,50,162.2
6079,C#5,526.25,0.25,44,162.2
6080,A4,526.25,0.25,44,162.2
6081,C#4,526.333,167/1000,50,162.2
6082,A3,526.333,167/1000,50,162.2
6083,E2,526.5,0.25,53,162.2
6084,B-3,526.5,167/1000,54,162.2
6085,G3,526.5,167/1000,54,162.2
6086,B3,526.667,167/1000,47,162.2
6087,G#3,526.667,167/1000,47,162.2
6088,G#3,526.833,167/1000,47,162.2
6089,E3,526.833,167/1000,47,162.2
6090,B3,527.0,167/1000,49,162.2
6091,G#3,527.0,167/1000,49,162.2
6092,B4,527.0,333/1000,50,162.2
6093,G#4,527.0,333/1000,50,162.2
6094,E4,527.167,167/1000,46,162.2
6095,B3,527.167,167/1000,46,162.2
6096,G#4,527.333,167/1000,50,162.2
6097,E4,527.333,167/1000,47,162.2
6098,B4,527.5,167/1000,53,162.2
6099,G#4,527.5,167/1000,53,162.2
6100,E5,527.667,167/1000,50,162.2
6101,B4,527.667,167/1000,50,162.2
6102,G#5,527.833,167/1000,50,162.2
6103,E5,527.833,167/1000,50,162.2
6104,B5,528.0,83/1000,54,162.2
6105,G#5,528.0,83/1000,54,162.2
6106,B5,528.167,83/1000,50,162.2
6107,G#5,528.167,83/1000,50,162.2
6108,B5,528.333,83/1000,50,162.2
6109,G#5,528.333,83/1000,50,162.2
6110,E-3,528.5,2.0,54,162.2
6111,B5,528.5,83/1000,54,162.2
6112,G#5,528.5,83/1000,54,162.2
6113,B5,528.667,83/1000,50,162.2
6114,G#5,528.667,83/1000,50,162.2
6115,B4,528.75,0.188,44,162.2
6116,B3,528.75,0.188,44,162.2
6117,F#4,528.75,0.188,44,162.2
6118,B5,528.833,83/1000,50,162.2
6119,G#5,528.833,83/1000,50,162.2
6120,B5,529.0,167/1000,52,162.2
6121,G#5,529.0,167/1000,52,162.2
6122,B4,529.0,0.188,44,162.2
6123,B3,529.0,0.188,44,162.2
6124,F#4,529.0,0.188,44,162.2
6125,C#6,529.167,167/1000,50,162.2
6126,A5,529.167,167/1000,50,162.2
6127,B4,529.25,0.188,44,162.2
6128,B3,529.25,0.188,44,162.2
6129,F#4,529.25,0.188,44,162.2
6130,B5,529.333,83/1000,50,162.2
6131,G#5,529.333,83/1000,50,162.2
6132,B-5,529.5,167/1000,54,162.2
6133,G5,529.5,167/1000,54,162.2
6134,B-4,529.5,0.25,47,162.2
6135,B3,529.5,0.25,47,162.2
6136,F#4,529.5,0.25,47,162.2
6137,B5,529.667,167/1000,50,162.2
6138,G#5,529.667,167/1000,50,162.2
6139,B4,529.75,0.188,46,162.2
6140,B3,529.75,0.188,46,162.2
6141,F#4,529.75,0.188,46,162.2
6142,B-5,529.833,83/1000,50,162.2
6143,G5,529.833,83/1000,50,162.2
6144,A5,530.0,167/1000,52,162.2
6145,F#5,530.0,167/1000,52,162.2
6146,A4,530.0,0.25,48,162.2
6147,B3,530.0,0.25,48,162.2
6148,F#4,530.0,0.25,48,162.2
6149,B5,530.167,167/1000,50,162.2
6150,G#5,530.167,167/1000,50,162.2
6151,B4,530.25,0.188,46,162.2
6152,B3,530.25,0.188,46,162.2
6153,F#4,530.25,0.188,46,162.2
6154,A5,530.333,83/1000,50,162.2
6155,F#5,530.333,83/1000,50,162.2
6156,E3,530.5,1.0,48,162.2
6157,G#5,530.5,83/1000,48,162.2
6158,E5,530.5,83/1000,48,162.2
6159,B5,530.667,167/1000,41,162.2
6160,B6,530.667,83/1000,45,162.2
6161,G#6,530.667,83/1000,45,162.2
6162,B4,530.75,0.188,40,162.2
6163,B3,530.75,0.188,40,162.2
6164,G#4,530.75,0.188,40,162.2
6165,B5,530.833,167/1000,42,162.2
6166,B6,530.833,83/1000,46,162.2
6167,G#6,530.833,83/1000,46,162.2
6168,B5,531.0,167/1000,48,162.2
6169,B6,531.0,167/1000,48,162.2
6170,G#6,531.0,167/1000,48,162.2
6171,B4,531.0,0.188,41,162.2
6172,B3,531.0,0.188,41,162.2
6173,G#4,531.0,0.188,41,162.2
6174,C#6,531.167,167/1000,47,162.2
6175,C#7,531.167,167/1000,47,162.2
6176,A6,531.167,167/1000,47,162.2
6177,B4,531.25,0.188,43,162.2
6178,B3,531.25,0.188,43,162.2
6179,G#4,531.25,0.188,43,162.2
6180,B5,531.333,83/1000,48,162.2
6181,B6,531.333,83/1000,48,162.2
6182,G#6,531.333,83/1000,48,162.2
6183,E-3,531.5,1.0,54,162.2
6184,B-5,531.5,167/1000,52,162.2
6185,B-6,531.5,167/1000,52,162.2
6186,G6,531.5,167/1000,52,162.2
6187,B5,531.667,167/1000,47,162.2
6188,B6,531.667,167/1000,47,162.2
6189,G#6,531.667,167/1000,47,162.2
6190,B-4,531.75,0.188,44,162.2
6191,B3,531.75,0.188,44,162.2
6192,F#4,531.75,0.188,44,162.2
6193,B-5,531.833,83/1000,47,162.2
6194,B-6,531.833,83/1000,47,162.2
6195,G6,531.833,83/1000,47,162.2
6196,A5,532.0,167/1000,48,162.2
6197,A6,532.0,167/1000,48,162.2
6198,F#6,532.0,167/1000,48,162.2
6199,B4,532.0,0.25,45,162.2
6200,B3,532.0,0.25,45,162.2
6201,F#4,532.0,0.25,45,162.2
6202,B5,532.167,167/1000,44,162.2
6203,B6,532.167,167/1000,44,162.2
6204,G#6,532.167,167/1000,44,162.2
6205,A4,532.25,0.188,40,162.2
6206,B3,532.25,0.188,40,162.2
6207,F#4,532.25,0.188,40,162.2
6208,A6,532.333,83/1000,44,162.2
6209,A5,532.333,83/1000,44,162.2
6210,F#6,532.333,83/1000,44,162.2
6211,E3,532.5,1.0,48,162.2
6212,G#5,532.5,83/1000,47,162.2
6213,G#6,532.5,83/1000,47,162.2
6214,E6,532.5,83/1000,47,162.2
6215,B5,532.667,167/1000,41,162.2
6216,B6,532.667,83/1000,45,162.2
6217,G#6,532.667,83/1000,45,162.2
6218,B4,532.75,0.188,40,162.2
6219,B3,532.75,0.188,40,162.2
6220,G#4,532.75,0.188,40,162.2
6221,B5,532.833,167/1000,42,162.2
6222,B6,532.833,83/1000,46,162.2
6223,G#6,532.833,83/1000,46,162.2
6224,B5,533.0,167/1000,48,162.2
6225,B6,533.0,167/1000,48,162.2
6226,G#6,533.0,167/1000,48,162.2
6227,B4,533.0,0.188,41,162.2
6228,B3,533.0,0.188,41,162.2
6229,G#4,533.0,0.188,41,162.2
6230,C#6,533.167,167/1000,47,162.2
6231,C#7,533.167,167/1000,47,162.2
6232,A6,533.167,167/1000,47,162.2
6233,B4,533.25,0.188,43,162.2
6234,B3,533.25,0.188,43,162.2
6235,G#4,533.25,0.188,43,162.2
6236,B5,533.333,83/1000,48,162.2
6237,B6,533.333,83/1000,48,162.2
6238,G#6,533.333,83/1000,48,162.2
6239,E-3,533.5,1.0,54,162.2
6240,B-5,533.5,167/1000,52,162.2
6241,B-6,533.5,167/1000,52,162.2
6242,G6,533.5,167/1000,52,162.2
6243,B5,533.667,167/1000,47,162.2
6244,B6,533.667,167/1000,47,162.2
6245,G#6,533.667,167/1000,47,162.2
6246,B-4,533.75,0.188,44,162.2
6247,B3,533.75,0.188,44,162.2
6248,F#4,533.75,0.188,44,162.2
6249,B-5,533.833,83/1000,47,162.2
6250,B-6,533.833,83/1000,47,162.2
6251,G6,533.833,83/1000,47,162.2
6252,A5,534.0,167/1000,48,162.2
6253,A6,534.0,167/1000,48,162.2
6254,F#6,534.0,167/1000,48,162.2
6255,B4,534.0,0.25,45,162.2
6256,B3,534.0,0.25,45,162.2
6257,F#4,534.0,0.25,45,162.2
6258,B5,534.167,167/1000,44,162.2
6259,B6,534.167,167/1000,44,162.2
6260,G#6,534.167,167/1000,44,162.2
6261,A4,534.25,0.156,40,162.2
6262,B3,534.25,0.156,40,162.2
6263,F#4,534.25,0.156,40,162.2
6264,A6,534.333,83/1000,44,162.2
6265,A5,534.333,83/1000,44,162.2
6266,F#6,534.333,83/1000,44,162.2
6267,E3,534.406,0.094,48,162.2
6268,B3,534.406,0.094,48,162.2
6269,E4,534.469,0.031,50,162.2
6270,G#4,534.469,0.031,50,162.2
6271,G#6,534.5,167/1000,47,162.2
6272,G#5,534.5,167/1000,47,162.2
6273,E6,534.5,167/1000,47,162.2
6274,E3,534.5,0.219,48,162.2
6275,B3,534.5,0.219,48,162.2
6276,E4,534.5,0.219,50,162.2
6277,G#4,534.5,0.219,50,162.2
6278,G#3,534.833,167/1000,48,162.2
6279,G#3,535.0,167/1000,54,162.2
6280,B2,535.0,0.25,48,162.2
6281,E2,535.0,0.25,48,162.2
6282,G3,535.167,167/1000,48,162.2
6283,F#3,535.333,167/1000,46,162.2
6284,F3,535.5,167/1000,52,162.2
6285,B3,535.5,0.5,50,162.2
6286,G#4,535.5,0.5,50,162.2
6287,B4,535.5,0.5,50,162.2
6288,E3,535.667,167/1000,49,162.2
6289,G#3,535.833,167/1000,46,162.2
6290,B3,535.833,167/1000,46,162.2
6291,E2,535.996,0.5,46,162.2
6292,B2,535.996,0.5,46,162.2
6293,G3,536.0,167/1000,48,162.2
6294,B-3,536.0,167/1000,48,162.2
6295,F#3,536.167,167/1000,47,162.2
6296,A3,536.167,167/1000,47,162.2
6297,E3,536.333,167/1000,47,162.2
6298,G#3,536.333,167/1000,47,162.2
6299,D4,536.5,167/1000,58,162.2
6300,B3,536.5,167/1000,58,162.2
6301,E4,536.5,0.5,51,162.2
6302,B4,536.5,0.5,51,162.2
6303,D5,536.5,0.5,51,162.2
6304,C#4,536.667,167/1000,54,162.2
6305,B-3,536.667,167/1000,54,162.2
6306,C4,536.833,167/1000,52,162.2
6307,A3,536.833,167/1000,52,162.2
6308,G#3,537.0,167/1000,50,162.2
6309,B3,537.0,167/1000,50,162.2
6310,D4,537.167,167/1000,52,162.2
6311,F#4,537.167,167/1000,52,162.2
6312,C#4,537.333,167/1000,50,162.2
6313,E4,537.333,167/1000,50,162.2
6314,E-4,537.5,167/1000,49,162.2
6315,C4,537.5,167/1000,49,162.2
6316,D4,537.667,167/1000,48,162.2
6317,B3,537.667,167/1000,48,162.2
6318,G#4,537.833,167/1000,54,162.2
6319,B4,537.833,167/1000,54,162.2
6320,G4,538.0,167/1000,50,162.2
6321,B-4,538.0,167/1000,50,162.2
6322,F#4,538.167,167/1000,49,162.2
6323,A4,538.167,167/1000,49,162.2
6324,E4,538.333,167/1000,46,162.2
6325,G#4,538.333,167/1000,46,162.2
6326,B4,538.5,167/1000,52,162.2
6327,D5,538.5,167/1000,52,162.2
6328,B-4,538.667,167/1000,50,162.2
6329,C#5,538.667,167/1000,50,162.2
6330,A4,538.833,167/1000,48,162.2
6331,C5,538.833,167/1000,48,162.2
6332,G#4,539.0,167/1000,46,162.2
6333,B4,539.0,167/1000,46,162.2
6334,F#5,539.167,167/1000,54,162.2
6335,D5,539.167,167/1000,54,162.2
6336,E5,539.333,167/1000,55,162.2
6337,C#5,539.333,167/1000,55,162.2
6338,E-5,539.5,167/1000,50,162.2
6339,C5,539.5,167/1000,50,162.2
6340,D5,539.667,167/1000,48,162.2
6341,B4,539.667,167/1000,48,162.2
6342,B5,539.833,167/1000,56,162.2
6343,G#5,539.833,167/1000,56,162.2
6344,B-5,540.0,167/1000,54,162.2
6345,G5,540.0,167/1000,54,162.2
6346,A5,540.167,167/1000,52,162.2
6347,F#5,540.167,167/1000,52,162.2
6348,G#5,540.333,167/1000,50,162.2
6349,E5,540.333,167/1000,50,162.2
6350,D6,540.5,167/1000,58,162.2
6351,B5,540.5,167/1000,58,162.2
6352,C#6,540.667,167/1000,56,162.2
6353,B-5,540.667,167/1000,56,162.2
6354,C6,540.833,167/1000,54,162.2
6355,A5,540.833,167/1000,54,162.2
6356,B5,541.0,167/1000,52,162.2
6357,G#5,541.0,167/1000,52,162.2
6358,D6,541.167,167/1000,62,162.2
6359,F#6,541.167,167/1000,62,162.2
6360,C#6,541.333,167/1000,60,162.2
6361,E6,541.333,167/1000,60,162.2
6362,C6,541.5,167/1000,58,162.2
6363,E-6,541.5,167/1000,58,162.2
6364,B5,541.667,167/1000,56,162.2
6365,D6,541.667,167/1000,56,162.2
6366,B6,541.833,167/1000,60,162.2
6367,G#6,541.833,167/1000,60,162.2
6368,B-6,542.0,167/1000,58,162.2
6369,G6,542.0,167/1000,58,162.2
6370,A6,542.167,167/1000,56,162.2
6371,F#6,542.167,167/1000,56,162.2
6372,G#6,542.333,167/1000,54,162.2
6373,E6,542.333,167/1000,54,162.2
6374,D7,542.5,167/1000,60,162.2
6375,A6,542.5,167/1000,60,162.2
6376,F#6,542.5,167/1000,60,162.2
6377,C#7,542.667,167/1000,56,162.2
6378,G#6,542.667,167/1000,56,162.2
6379,F6,542.667,167/1000,56,162.2
6380,C7,542.833,167/1000,55,162.2
6381,G6,542.833,167/1000,55,162.2
6382,E6,542.833,167/1000,55,162.2
6383,B6,543.0,167/1000,55,162.2
6384,F#6,543.0,167/1000,55,162.2
6385,E-6,543.0,167/1000,55,162.2
6386,B-6,543.167,167/1000,55,162.2
6387,F6,543.167,167/1000,55,162.2
6388,D6,543.167,167/1000,55,162.2
6389,A6,543.333,167/1000,54,162.2
6390,E6,543.333,167/1000,54,162.2
6391,C#6,543.333,167/1000,54,162.2
6392,E-6,543.5,167/1000,59,162.2
6393,G#6,543.5,167/1000,59,162.2
6394,C6,543.5,167/1000,59,162.2
6395,G6,543.667,167/1000,53,162.2
6396,B5,543.667,167/1000,53,162.2
6397,D6,543.667,167/1000,53,162.2
6398,F#6,543.833,167/1000,53,162.2
6399,B-5,543.833,167/1000,53,162.2
6400,C#6,543.833,167/1000,53,162.2
6401,F6,544.0,167/1000,52,162.2
6402,A5,544.0,167/1000,52,162.2
6403,C6,544.0,167/1000,52,162.2
6404,E6,544.167,167/1000,51,162.2
6405,G#5,544.167,167/1000,51,162.2
6406,B5,544.167,167/1000,51,162.2
6407,E-6,544.333,167/1000,51,162.2
6408,G5,544.333,167/1000,51,162.2
6409,B-5,544.333,167/1000,51,162.2
6410,D6,544.5,167/1000,55,162.2
6411,A5,544.5,167/1000,55,162.2
6412,F#5,544.5,167/1000,55,162.2
6413,C#6,544.667,167/1000,51,162.2
6414,G#5,544.667,167/1000,51,162.2
6415,F5,544.667,167/1000,51,162.2
6416,C6,544.833,167/1000,50,162.2
6417,G5,544.833,167/1000,50,162.2
6418,E5,544.833,167/1000,50,162.2
6419,B5,545.0,167/1000,49,162.2
6420,F#5,545.0,167/1000,49,162.2
6421,E-5,545.0,167/1000,49,162.2
6422,B-5,545.167,167/1000,49,162.2
6423,F5,545.167,167/1000,49,162.2
6424,D5,545.167,167/1000,49,162.2
6425,A5,545.333,167/1000,49,162.2
6426,E5,545.333,167/1000,49,162.2
6427,C#5,545.333,167/1000,49,162.2
6428,G#5,545.5,167/1000,49,162.2
6429,C5,545.5,167/1000,49,162.2
6430,E-5,545.5,167/1000,49,162.2
6431,G5,545.667,167/1000,48,162.2
6432,B4,545.667,167/1000,48,162.2
6433,D5,545.667,167/1000,48,162.2
6434,F#5,545.833,167/1000,48,162.2
6435,B-4,545.833,167/1000,48,162.2
6436,C#5,545.833,167/1000,48,162.2
6437,F5,546.0,167/1000,47,162.2
6438,A4,546.0,167/1000,47,162.2
6439,C5,546.0,167/1000,47,162.2
6440,E5,546.167,167/1000,47,162.2
6441,G#4,546.167,167/1000,47,162.2
6442,B4,546.167,167/1000,47,162.2
6443,E-5,546.333,167/1000,47,162.2
6444,G4,546.333,167/1000,47,162.2
6445,B-4,546.333,167/1000,47,162.2
6446,D5,546.5,0.125,56,162.2
6447,F#4,546.5,0.125,56,162.2
6448,A4,546.5,0.125,56,162.2
6449,D5,546.667,0.125,51,162.2
6450,F4,546.667,0.125,51,162.2
6451,A4,546.667,0.125,51,162.2
6452,D5,546.833,0.125,52,162.2
6453,F4,546.833,0.125,52,162.2
6454,A4,546.833,0.125,52,162.2
6455,D5,547.0,0.125,57,162.2
6456,F4,547.0,0.125,57,162.2
6457,A4,547.0,0.125,57,162.2
6458,C#5,547.167,0.125,53,162.2
6459,E4,547.167,0.125,53,162.2
6460,A4,547.167,0.125,53,162.2
6461,C#5,547.333,0.125,54,162.2
6462,E4,547.333,0.125,54,162.2
6463,A4,547.333,0.125,54,162.2
6464,C#5,547.5,0.125,59,162.2
6465,E4,547.5,0.125,59,162.2
6466,A4,547.5,0.125,59,162.2
6467,F#5,547.667,0.125,54,162.2
6468,E-4,547.667,0.125,54,162.2
6469,A4,547.667,0.125,54,162.2
6470,C5,547.667,0.125,54,162.2
6471,F#5,547.833,0.125,54,162.2
6472,E-4,547.833,0.125,54,162.2
6473,A4,547.833,0.125,54,162.2
6474,C5,547.833,0.125,54,162.2
6475,F#5,548.0,0.125,58,162.2
6476,E-4,548.0,0.125,58,162.2
6477,A4,548.0,0.125,58,162.2
6478,C5,548.0,0.125,58,162.2
6479,F#5,548.167,0.125,54,162.2
6480,D4,548.167,0.125,54,162.2
6481,G#4,548.167,0.125,54,162.2
6482,B4,548.167,0.125,54,162.2
6483,F#5,548.333,0.125,54,162.2
6484,D4,548.333,0.125,54,162.2
6485,G#4,548.333,0.125,54,162.2
6486,B4,548.333,0.125,54,162.2
6487,F#5,548.5,0.25,58,162.2
6488,D4,548.5,0.25,58,162.2
6489,G#4,548.5,0.25,58,162.2
6490,B4,548.5,0.25,58,162.2
6491,F5,548.75,0.5,56,162.2
6492,C#4,548.75,0.5,56,162.2
6493,G#4,548.75,0.5,56,162.2
6494,B4,548.75,0.5,56,162.2
6495,E5,549.25,0.5,54,162.2
6496,B-3,549.25,0.5,54,162.2
6497,G4,549.25,0.5,54,162.2
6498,C#5,549.25,0.5,54,162.2
6499,E-5,549.75,0.5,52,162.2
6500,B3,549.75,0.5,52,162.2
6501,F#4,549.75,0.5,52,162.2
6502,B4,549.75,0.5,52,162.2
6503,D5,550.25,0.25,48,162.2
6504,A3,550.25,0.25,48,162.2
6505,D4,550.25,0.25,48,162.2
6506,F#4,550.25,0.25,48,162.2
6507,C5,550.25,0.25,48,162.2
6508,D5,550.75,0.25,48,162.2
6509,A3,550.75,0.25,48,162.2
6510,D4,550.75,0.25,48,162.2
6511,F#4,550.75,0.25,48,162.2
6512,C5,550.75,0.25,48,162.2
6513,D4,550.75,0.5,38,162.2
6514,G3,550.75,0.5,38,162.2
6515,D5,551.0,0.5,47,162.2
6516,G4,551.0,0.5,47,162.2
6517,C5,551.0,0.5,47,162.2
6518,D4,551.25,0.25,30,162.2
6519,G3,551.25,0.25,30,162.2
6520,D5,551.5,0.25,37,162.2
6521,G4,551.5,0.25,37,162.2
6522,B4,551.5,0.25,37,162.2
6523,B3,551.75,0.25,31,162.2
6524,F3,551.75,0.25,31,162.2
6525,D5,552.0,0.25,33,162.2
6526,G4,552.0,0.25,33,162.2
6527,C4,552.0,0.25,31,162.2
6528,E3,552.0,0.25,31,162.2
6529,G5,552.25,0.25,33,162.2
6530,G4,552.25,0.25,33,162.2
6531,B3,552.25,0.25,31,162.2
6532,F3,552.25,0.25,31,162.2
6533,D5,552.5,0.25,33,162.2
6534,G4,552.5,0.25,33,162.2
6535,C4,552.5,0.25,37,162.2
6536,E3,552.5,0.25,37,162.2
6537,G5,552.75,0.25,37,162.2
6538,G4,552.75,0.25,37,162.2
6539,E2,553.5,1.0,40,162.2
6540,G#4,553.75,83/1000,37,162.2
6541,E4,553.75,1.0,34,162.2
6542,D4,553.75,1.0,34,162.2
6543,G#4,553.833,83/1000,37,162.2
6544,A4,553.917,83/1000,40,162.2
6545,G#4,554.0,83/1000,36,162.2
6546,G#3,554.0,0.5,40,162.2
6547,F#4,554.083,83/1000,36,162.2
6548,G#4,554.167,83/1000,36,162.2
6549,B4,554.25,167/1000,40,162.2
6550,B4,554.417,0.25,38,162.2
6551,A3,554.5,83/1000,54,162.2
6552,A2,554.5,83/1000,54,162.2
6553,C5,554.667,83/1000,37,162.2
6554,B2,554.667,83/1000,44,162.2
6555,B3,554.667,83/1000,44,162.2
6556,A2,554.833,83/1000,44,162.2
6557,A3,554.833,83/1000,44,162.2
6558,G#3,555.0,83/1000,50,162.2
6559,G#2,555.0,83/1000,50,162.2
6560,A2,555.167,83/1000,45,162.2
6561,A3,555.167,83/1000,45,162.2
6562,C#5,555.25,0.25,40,162.2
6563,C#4,555.25,0.25,40,162.2
6564,E4,555.25,0.25,40,162.2
6565,B2,555.333,13/250,45,162.2
6566,B3,555.333,13/250,45,162.2
6567,G#4,555.5,0.25,38,162.2
6568,D4,555.5,0.25,38,162.2
6569,E4,555.5,0.25,38,162.2
6570,C#4,555.5,83/1000,54,162.2
6571,C#3,555.5,83/1000,54,162.2
6572,C3,555.667,83/1000,47,162.2
6573,C4,555.667,83/1000,47,162.2
6574,D3,555.833,83/1000,47,162.2
6575,D4,555.833,83/1000,47,162.2
6576,C#4,556.0,83/1000,51,162.2
6577,C#3,556.0,83/1000,51,162.2
6578,B2,556.167,83/1000,47,162.2
6579,B3,556.167,83/1000,47,162.2
6580,A4,556.25,0.25,46,162.2
6581,E4,556.25,0.5,39,162.2
6582,A2,556.333,83/1000,47,162.2
6583,A3,556.333,83/1000,47,162.2
6584,C#5,556.5,0.25,40,162.2
6585,A4,556.5,0.25,40,162.2
6586,F#3,556.5,83/1000,57,162.2
6587,F#2,556.5,83/1000,57,162.2
6588,G#2,556.667,83/1000,45,162.2
6589,G#3,556.667,83/1000,45,162.2
6590,F#2,556.833,83/1000,45,162.2
6591,F#3,556.833,83/1000,45,162.2
6592,F#5,557.0,521/1000,57,162.2
6593,B-4,557.0,521/1000,57,162.2
6594,E4,557.0,521/1000,57,162.2
6595,F3,557.0,83/1000,48,162.2
6596,F2,557.0,83/1000,48,162.2
6597,F#2,557.167,83/1000,45,162.2
6598,F#3,557.167,83/1000,45,162.2
6599,B-2,557.333,83/1000,45,162.2
6600,B-3,557.333,83/1000,45,162.2
6601,B4,557.5,0.25,41,162.2
6602,D4,557.5,0.25,41,162.2
6603,B3,557.5,83/1000,53,162.2
6604,B2,557.5,83/1000,53,162.2
6605,C#3,557.667,83/1000,44,162.2
6606,C#4,557.667,83/1000,44,162.2
6607,B2,557.833,83/1000,44,162.2
6608,B3,557.833,83/1000,44,162.2
6609,B-3,558.0,83/1000,48,162.2
6610,B-2,558.0,83/1000,48,162.2
6611,B2,558.167,83/1000,45,162.2
6612,B3,558.167,83/1000,45,162.2
6613,B4,558.25,0.25,34,162.2
6614,E-4,558.25,0.25,34,162.2
6615,F#4,558.25,0.25,34,162.2
6616,A2,558.333,83/1000,45,162.2
6617,A3,558.333,83/1000,45,162.2
6618,B4,558.5,0.25,34,162.2
6619,E-4,558.5,0.25,34,162.2
6620,F#4,558.5,0.25,34,162.2
6621,G#3,558.5,83/1000,57,162.2
6622,G#2,558.5,83/1000,57,162.2
6623,F#4,558.667,83/1000,47,162.2
6624,F#3,558.667,83/1000,47,162.2
6625,E5,558.75,771/1000,51,162.2
6626,E4,558.75,771/1000,51,162.2
6627,B4,558.75,771/1000,51,162.2
6628,E3,558.833,83/1000,47,162.2
6629,E4,558.833,83/1000,47,162.2
6630,E-3,559.0,83/1000,52,162.2
6631,E-4,559.0,83/1000,52,162.2
6632,E4,559.167,83/1000,48,162.2
6633,E3,559.167,83/1000,48,162.2
6634,G#2,559.333,83/1000,48,162.2
6635,G#3,559.333,83/1000,48,162.2
6636,G#4,559.5,0.25,42,162.2
6637,E4,559.5,0.25,42,162.2
6638,F#2,559.5,83/1000,50,162.2
6639,F#3,559.5,83/1000,50,162.2
6640,G#3,559.667,83/1000,46,162.2
6641,G#2,559.667,83/1000,46,162.2
6642,F#2,559.833,83/1000,46,162.2
6643,F#3,559.833,83/1000,46,162.2
6644,C5,560.0,0.5,47,162.2
6645,E4,560.0,0.5,47,162.2
6646,A3,560.0,0.5,47,162.2
6647,F2,560.0,83/1000,50,162.2
6648,F3,560.0,83/1000,50,162.2
6649,F#3,560.167,83/1000,46,162.2
6650,F#2,560.167,83/1000,46,162.2
6651,B1,560.333,83/1000,46,162.2
6652,B2,560.333,83/1000,46,162.2
6653,B4,560.5,0.25,38,162.2
6654,A3,560.5,0.25,38,162.2
6655,E-4,560.5,0.25,38,162.2
6656,E3,560.5,167/1000,50,162.2
6657,E2,560.5,167/1000,50,162.2
6658,G#3,560.667,167/1000,44,162.2
6659,G#2,560.667,167/1000,44,162.2
6660,B3,560.833,167/1000,45,162.2
6661,B2,560.833,167/1000,45,162.2
6662,E4,561.0,0.125,48,162.2
6663,E3,561.0,0.125,48,162.2
6664,G#3,561.0,0.125,48,162.2
6665,G#4,561.167,167/1000,46,162.2
6666,G#3,561.167,167/1000,46,162.2
6667,B4,561.333,167/1000,50,162.2
6668,B3,561.333,167/1000,50,162.2
6669,E5,561.5,83/1000,58,162.2
6670,E4,561.5,83/1000,58,162.2
6671,E4,561.667,0.062,53,162.2
6672,B3,561.667,0.062,53,162.2
6673,E3,561.667,0.062,53,162.2
6674,E-4,561.833,0.062,48,162.2
6675,B3,561.833,0.062,48,162.2
6676,F3,561.833,0.062,48,162.2
6677,E6,561.917,0.062,56,162.2
6678,G#5,561.917,0.062,56,162.2
6679,E5,561.917,0.062,56,162.2
6680,D4,562.0,0.062,55,162.2
6681,C4,562.0,0.062,55,162.2
6682,F#3,562.0,0.062,55,162.2
6683,E-6,562.083,0.062,48,162.2
6684,A5,562.083,0.062,48,162.2
6685,E-5,562.083,0.062,48,162.2
6686,B3,562.167,0.062,50,162.2
6687,G3,562.167,0.062,50,162.2
6688,D6,562.25,0.062,55,162.2
6689,A5,562.25,0.062,55,162.2
6690,D5,562.25,0.062,55,162.2
6691,D4,562.333,0.062,50,162.2
6692,G#3,562.333,0.062,50,162.2
6693,D6,562.417,0.062,48,162.2
6694,F5,562.417,0.062,48,162.2
6695,D5,562.417,0.062,48,162.2
6696,A3,562.5,83/1000,54,162.2
6697,A2,562.5,83/1000,54,162.2
6698,B5,562.583,0.062,48,162.2
6699,E5,562.583,0.062,48,162.2
6700,B4,562.583,0.062,48,162.2
6701,B2,562.667,83/1000,44,162.2
6702,B3,562.667,83/1000,44,162.2
6703,A2,562.833,83/1000,44,162.2
6704,A3,562.833,83/1000,44,162.2
6705,G#3,563.0,83/1000,50,162.2
6706,G#2,563.0,83/1000,50,162.2
6707,A2,563.167,83/1000,45,162.2
6708,A3,563.167,83/1000,45,162.2
6709,C#5,563.25,0.25,40,162.2
6710,C#4,563.25,0.25,40,162.2
6711,E4,563.25,0.25,40,162.2
6712,B2,563.333,13/250,45,162.2
6713,B3,563.333,13/250,45,162.2
6714,G#4,563.5,0.25,38,162.2
6715,D4,563.5,0.25,38,162.2
6716,E4,563.5,0.25,38,162.2
6717,C#4,563.5,83/1000,54,162.2
6718,C#3,563.5,83/1000,54,162.2
6719,C3,563.667,83/1000,47,162.2
6720,C4,563.667,83/1000,47,162.2
6721,D3,563.833,83/1000,47,162.2
6722,D4,563.833,83/1000,47,162.2
6723,C#4,564.0,83/1000,51,162.2
6724,C#3,564.0,83/1000,51,162.2
6725,B2,564.167,83/1000,47,162.2
6726,B3,564.167,83/1000,47,162.2
6727,A4,564.25,0.25,42,162.2
6728,E4,564.25,0.25,42,162.2
6729,A2,564.333,83/1000,47,162.2
6730,A3,564.333,83/1000,47,162.2
6731,C#5,564.5,0.25,39,162.2
6732,E4,564.5,0.25,39,162.2
6733,A4,564.5,0.25,39,162.2
6734,F#3,564.5,167/1000,50,162.2
6735,F#2,564.5,167/1000,50,162.2
6736,A2,564.667,167/1000,44,162.2
6737,A3,564.667,167/1000,44,162.2
6738,D3,564.833,167/1000,44,162.2
6739,D4,564.833,167/1000,44,162.2
6740,F#4,565.0,0.125,48,162.2
6741,F#3,565.0,0.125,48,162.2
6742,A4,565.167,167/1000,50,162.2
6743,A3,565.167,167/1000,50,162.2
6744,D4,565.25,0.25,50,162.2
6745,A4,565.25,0.25,50,162.2
6746,D5,565.25,0.25,50,162.2
6747,C#5,565.335,167/1000,54,162.2
6748,C#4,565.335,167/1000,54,162.2
6749,D5,565.5,167/1000,56,162.2
6750,D4,565.5,167/1000,56,162.2
6751,D6,565.917,83/1000,50,162.2
6752,D5,565.917,83/1000,50,162.2
6753,D6,566.083,83/1000,50,162.2
6754,D5,566.083,83/1000,50,162.2
6755,D6,566.25,83/1000,52,162.2
6756,D5,566.25,83/1000,52,162.2
6757,D6,566.417,83/1000,49,162.2
6758,D5,566.417,83/1000,49,162.2
6759,D6,566.583,83/1000,50,162.2
6760,D5,566.583,83/1000,50,162.2
6761,D6,566.75,167/1000,52,162.2
6762,D5,566.75,167/1000,52,162.2
6763,D4,566.75,0.188,37,162.2
6764,E3,566.75,0.188,37,162.2
6765,B3,566.75,0.188,37,162.2
6766,G#5,566.917,83/1000,49,162.2
6767,G#4,566.917,83/1000,49,162.2
6768,D4,567.0,0.188,37,162.2
6769,E3,567.0,0.188,37,162.2
6770,B3,567.0,0.188,37,162.2
6771,G#5,567.083,83/1000,49,162.2
6772,G#4,567.083,83/1000,49,162.2
6773,G#5,567.25,83/1000,49,162.2
6774,G#4,567.25,83/1000,49,162.2
6775,D4,567.25,0.188,37,162.2
6776,E3,567.25,0.188,37,162.2
6777,B3,567.25,0.188,37,162.2
6778,G#5,567.417,83/1000,49,162.2
6779,G#4,567.417,83/1000,49,162.2
6780,D4,567.5,0.5,41,162.2
6781,E3,567.5,0.5,41,162.2
6782,B3,567.5,0.5,41,162.2
6783,G#5,567.583,83/1000,48,162.2
6784,G#4,567.583,83/1000,48,162.2
6785,G#5,567.75,83/1000,47,162.2
6786,G#4,567.75,83/1000,47,162.2
6787,E2,567.906,0.312,36,162.2
6788,B2,567.906,0.312,36,162.2
6789,G#5,567.917,83/1000,47,162.2
6790,G#4,567.917,83/1000,47,162.2
6791,D3,567.969,0.25,40,162.2
6792,G#3,567.969,0.25,40,162.2
6793,G#5,568.083,83/1000,46,162.2
6794,G#4,568.083,83/1000,46,162.2
6795,G#5,568.25,167/1000,45,162.2
6796,G#4,568.25,167/1000,45,162.2
6797,A5,568.417,167/1000,44,162.2
6798,A4,568.417,167/1000,44,162.2
6799,A3,568.5,83/1000,54,162.2
6800,A2,568.5,83/1000,54,162.2
6801,B5,568.583,167/1000,44,162.2
6802,B4,568.583,167/1000,44,162.2
6803,B2,568.667,83/1000,44,162.2
6804,B3,568.667,83/1000,44,162.2
6805,A2,568.833,83/1000,44,162.2
6806,A3,568.833,83/1000,44,162.2
6807,G#3,569.0,83/1000,50,162.2
6808,G#2,569.0,83/1000,50,162.2
6809,A2,569.167,83/1000,45,162.2
6810,A3,569.167,83/1000,45,162.2
6811,C#5,569.25,0.25,40,162.2
6812,C#4,569.25,0.25,40,162.2
6813,E4,569.25,0.25,40,162.2
6814,B2,569.333,13/250,45,162.2
6815,B3,569.333,13/250,45,162.2
6816,G#4,569.5,0.25,38,162.2
6817,D4,569.5,0.25,38,162.2
6818,E4,569.5,0.25,38,162.2
6819,C#4,569.5,83/1000,54,162.2
6820,C#3,569.5,83/1000,54,162.2
6821,C3,569.667,83/1000,47,162.2
6822,C4,569.667,83/1000,47,162.2
6823,D3,569.833,83/1000,47,162.2
6824,D4,569.833,83/1000,47,162.2
6825,C#4,570.0,83/1000,51,162.2
6826,C#3,570.0,83/1000,51,162.2
6827,B2,570.167,83/1000,47,162.2
6828,B3,570.167,83/1000,47,162.2
6829,A4,570.25,0.25,46,162.2
6830,E4,570.25,0.5,39,162.2
6831,A2,570.333,83/1000,47,162.2
6832,A3,570.333,83/1000,47,162.2
6833,C#5,570.5,0.25,40,162.2
6834,A4,570.5,0.25,40,162.2
6835,F#3,570.5,167/1000,50,162.2
6836,F#2,570.5,167/1000,50,162.2
6837,A2,570.667,167/1000,44,162.2
6838,A3,570.667,167/1000,44,162.2
6839,D3,570.833,167/1000,44,162.2
6840,D4,570.833,167/1000,44,162.2
6841,F#4,571.0,0.125,48,162.2
6842,F#3,571.0,0.125,48,162.2
6843,A4,571.167,167/1000,50,162.2
6844,A3,571.167,167/1000,50,162.2
6845,D4,571.188,0.281,48,162.2
6846,A4,571.188,0.281,48,162.2
6847,F#5,571.25,0.25,54,162.2
6848,D4,571.335,167/1000,54,162.2
6849,D5,571.335,167/1000,54,162.2
6850,F#5,571.5,167/1000,56,162.2
6851,F#4,571.5,167/1000,56,162.2
6852,F#6,571.875,83/1000,41,162.2
6853,F#5,571.875,83/1000,41,162.2
6854,F#6,572.0,83/1000,42,162.2
6855,F#5,572.0,83/1000,42,162.2
6856,B4,572.0,0.25,52,162.2
6857,D4,572.0,0.25,52,162.2
6858,F#6,572.125,83/1000,44,162.2
6859,F#5,572.125,83/1000,44,162.2
6860,F#6,572.25,83/1000,45,162.2
6861,F#5,572.25,83/1000,45,162.2
6862,A4,572.25,0.25,48,162.2
6863,C#4,572.25,0.25,48,162.2
6864,F#6,572.375,83/1000,47,162.2
6865,F#5,572.375,83/1000,47,162.2
6866,F#6,572.5,83/1000,48,162.2
6867,F#5,572.5,83/1000,48,162.2
6868,B3,572.5,0.25,48,162.2
6869,D4,572.5,0.25,48,162.2
6870,G#4,572.5,0.25,48,162.2
6871,F#6,572.625,83/1000,50,162.2
6872,F#5,572.625,83/1000,50,162.2
6873,F#6,572.75,0.125,55,162.2
6874,F#5,572.75,0.125,55,162.2
6875,G#5,572.875,83/1000,44,162.2
6876,G#4,572.875,83/1000,44,162.2
6877,E2,572.906,0.312,46,162.2
6878,B2,572.906,0.312,46,162.2
6879,D3,572.969,0.25,51,162.2
6880,G#3,572.969,0.25,51,162.2
6881,G#5,573.0,83/1000,44,162.2
6882,G#4,573.0,83/1000,44,162.2
6883,G#5,573.125,83/1000,44,162.2
6884,G#4,573.125,83/1000,44,162.2
6885,G#5,573.25,3/40,44,162.2
6886,G#4,573.25,3/40,44,162.2
6887,G#5,573.35,3/40,44,162.2
6888,G#4,573.35,3/40,44,162.2
6889,G#5,573.45,3/40,44,162.2
6890,G#4,573.45,3/40,44,162.2
6891,G#5,573.55,3/40,44,162.2
6892,G#4,573.55,3/40,44,162.2
6893,G#5,573.65,3/40,44,162.2
6894,G#4,573.65,3/40,44,162.2
6895,G#5,573.75,1/10,44,162.2
6896,G#4,573.75,1/10,44,162.2
6897,A5,573.85,1/10,44,162.2
6898,A4,573.85,1/10,44,162.2
6899,B-5,573.95,1/10,45,162.2
6900,B-4,573.95,1/10,45,162.2
6901,B5,574.05,1/10,46,162.2
6902,B4,574.05,1/10,46,162.2
6903,C6,574.15,1/10,47,162.2
6904,C5,574.15,1/10,47,162.2
6905,C#6,574.25,1/10,49,162.2
6906,C#5,574.25,1/10,49,162.2
6907,D6,574.35,1/10,50,162.2
6908,D5,574.35,1/10,50,162.2
6909,E-5,574.45,1/10,50,162.2
6910,E-6,574.45,1/10,50,162.2
6911,E6,574.55,1/10,50,162.2
6912,E5,574.55,1/10,50,162.2
6913,F6,574.65,1/10,52,162.2
6914,F5,574.65,1/10,52,162.2
6915,F#6,574.75,0.125,56,162.2
6916,F#5,574.75,0.125,56,162.2
6917,F#5,575.083,333/1000,48,162.2
6918,F#4,575.083,333/1000,48,162.2
6919,A2,575.438,0.062,42,162.2
6920,E3,575.469,0.031,54,162.2
6921,C#4,575.469,0.031,54,162.2
6922,A2,575.5,0.25,42,162.2
6923,E3,575.5,0.469,54,162.2
6924,C#4,575.5,0.469,54,162.2
6925,G#5,575.583,13/125,48,162.2
6926,G#4,575.583,13/125,48,162.2
6927,E2,575.75,0.25,54,162.2
6928,A5,575.75,167/1000,54,162.2
6929,A4,575.75,167/1000,54,162.2
6930,E-5,575.917,167/1000,52,162.2
6931,E-4,575.917,167/1000,52,162.2
6932,A3,576.0,0.25,51,162.2
6933,E3,576.0,0.25,51,162.2
6934,C#3,576.0,0.25,51,162.2
6935,E5,576.083,167/1000,52,162.2
6936,E4,576.083,167/1000,52,162.2
6937,F#5,576.25,167/1000,54,162.2
6938,F#4,576.25,167/1000,54,162.2
6939,A4,576.25,0.5,46,162.2
6940,C#5,576.25,0.5,46,162.2
6941,E3,576.25,0.156,55,162.2
6942,E2,576.25,0.156,55,162.2
6943,B2,576.406,0.344,50,162.2
6944,E-5,576.417,167/1000,54,162.2
6945,E-4,576.417,167/1000,54,162.2
6946,E3,576.438,0.531,50,162.2
6947,G#3,576.438,0.531,50,162.2
6948,D4,576.5,0.5,62,162.2
6949,E5,576.583,167/1000,52,162.2
6950,E4,576.583,167/1000,52,162.2
6951,E2,576.75,0.25,53,162.2
6952,E-6,576.917,167/1000,57,162.2
6953,E-5,576.917,167/1000,57,162.2
6954,G#3,577.0,0.5,59,162.2
6955,D3,577.0,0.25,50,162.2
6956,E6,577.083,167/1000,58,162.2
6957,E5,577.083,167/1000,58,162.2
6958,B5,577.25,0.5,55,162.2
6959,E2,577.25,0.25,54,162.2
6960,F#6,577.25,167/1000,56,162.2
6961,F#5,577.25,167/1000,56,162.2
6962,E-6,577.417,167/1000,58,162.2
6963,E-5,577.417,167/1000,58,162.2
6964,A3,577.5,0.25,53,162.2
6965,C#3,577.5,0.25,53,162.2
6966,E3,577.5,0.25,53,162.2
6967,E6,577.583,167/1000,56,162.2
6968,E5,577.583,167/1000,56,162.2
6969,E5,577.75,0.188,48,162.2
6970,E4,577.75,0.188,48,162.2
6971,C#5,577.75,0.188,48,162.2
6972,E7,577.917,0.125,51,162.2
6973,C#7,577.917,0.125,51,162.2
6974,E6,577.917,0.125,51,162.2
6975,E5,578.0,0.188,50,162.2
6976,E4,578.0,0.188,50,162.2
6977,C#5,578.0,0.188,50,162.2
6978,E7,578.083,0.125,53,162.2
6979,C#7,578.083,0.125,53,162.2
6980,E6,578.083,0.125,53,162.2
6981,E7,578.25,0.125,55,162.2
6982,C#7,578.25,0.125,55,162.2
6983,E6,578.25,0.125,55,162.2
6984,E5,578.25,0.188,53,162.2
6985,E4,578.25,0.188,53,162.2
6986,C#5,578.25,0.188,53,162.2
6987,E7,578.417,0.125,58,162.2
6988,C#7,578.417,0.125,58,162.2
6989,E6,578.417,0.125,58,162.2
6990,G#3,578.5,0.5,62,162.2
6991,E7,578.583,0.125,57,162.2
6992,C#7,578.583,0.125,57,162.2
6993,E6,578.583,0.125,57,162.2
6994,E4,578.75,0.5,38,162.2
6995,E-7,578.75,167/1000,60,162.2
6996,C7,578.75,167/1000,60,162.2
6997,E-6,578.75,167/1000,60,162.2
6998,E-5,578.75,0.25,54,162.2
6999,C5,578.75,0.25,54,162.2
7000,E7,578.917,167/1000,60,162.2
7001,C#7,578.917,167/1000,60,162.2
7002,E6,578.917,167/1000,60,162.2
7003,E5,579.0,0.25,54,162.2
7004,C#5,579.0,0.25,54,162.2
7005,E-7,579.083,167/1000,59,162.2
7006,C7,579.083,167/1000,59,162.2
7007,E-6,579.083,167/1000,59,162.2
7008,E7,579.25,167/1000,57,162.2
7009,C#7,579.25,167/1000,57,162.2
7010,E6,579.25,167/1000,57,162.2
7011,D5,579.25,0.188,53,162.2
7012,E4,579.25,0.188,53,162.2
7013,B4,579.25,0.188,53,162.2
7014,D7,579.417,167/1000,56,162.2
7015,B6,579.417,167/1000,56,162.2
7016,D6,579.417,167/1000,56,162.2
7017,A2,579.438,0.062,47,162.2
7018,E3,579.469,0.031,63,162.2
7019,C#4,579.469,0.031,63,162.2
7020,A2,579.5,0.25,47,162.2
7021,E3,579.5,0.469,63,162.2
7022,C#4,579.5,0.469,63,162.2
7023,E7,579.583,167/1000,55,162.2
7024,C#7,579.583,167/1000,55,162.2
7025,E6,579.583,167/1000,55,162.2
7026,E2,579.75,0.25,54,162.2
7027,E-5,579.917,167/1000,52,162.2
7028,E-4,579.917,167/1000,52,162.2
7029,A3,580.0,0.25,50,162.2
7030,E3,580.0,0.25,50,162.2
7031,C#3,580.0,0.25,50,162.2
7032,E5,580.083,167/1000,52,162.2
7033,E4,580.083,167/1000,52,162.2
7034,F#5,580.25,167/1000,54,162.2
7035,F#4,580.25,167/1000,54,162.2
7036,A4,580.25,0.5,46,162.2
7037,C#5,580.25,0.5,46,162.2
7038,E3,580.25,0.156,55,162.2
7039,E2,580.25,0.156,55,162.2
7040,B2,580.406,0.344,50,162.2
7041,E-5,580.417,167/1000,54,162.2
7042,E-4,580.417,167/1000,54,162.2
7043,E3,580.438,0.531,50,162.2
7044,G#3,580.438,0.531,50,162.2
7045,D4,580.5,0.5,70,162.2
7046,E5,580.583,167/1000,52,162.2
7047,E4,580.583,167/1000,52,162.2
7048,E2,580.75,0.25,53,162.2
7049,E-6,580.917,167/1000,50,162.2
7050,E-5,580.917,167/1000,50,162.2
7051,G#3,581.0,0.5,64,162.2
7052,D3,581.0,0.25,50,162.2
7053,E6,581.083,167/1000,52,162.2
7054,E5,581.083,167/1000,52,162.2
7055,B5,581.25,0.5,49,162.2
7056,E2,581.25,0.25,54,162.2
7057,F#6,581.25,167/1000,54,162.2
7058,F#5,581.25,167/1000,54,162.2
7059,E-6,581.417,167/1000,52,162.2
7060,E-5,581.417,167/1000,52,162.2
7061,A3,581.5,0.25,53,162.2
7062,C#3,581.5,0.25,53,162.2
7063,E3,581.5,0.25,53,162.2
7064,E6,581.583,167/1000,50,162.2
7065,E5,581.583,167/1000,50,162.2
7066,E5,581.75,0.188,46,162.2
7067,E4,581.75,0.188,46,162.2
7068,C#5,581.75,0.188,46,162.2
7069,E7,581.917,0.125,51,162.2
7070,C#7,581.917,0.125,51,162.2
7071,E6,581.917,0.125,51,162.2
7072,E5,582.0,0.188,48,162.2
7073,E4,582.0,0.188,48,162.2
7074,C#5,582.0,0.188,48,162.2
7075,E7,582.083,0.125,53,162.2
7076,C#7,582.083,0.125,53,162.2
7077,E6,582.083,0.125,53,162.2
7078,E7,582.25,0.125,55,162.2
7079,C#7,582.25,0.125,55,162.2
7080,E6,582.25,0.125,55,162.2
7081,E5,582.25,0.188,50,162.2
7082,E4,582.25,0.188,50,162.2
7083,C#5,582.25,0.188,50,162.2
7084,E7,582.417,0.125,58,162.2
7085,C#7,582.417,0.125,58,162.2
7086,E6,582.417,0.125,58,162.2
7087,G#3,582.5,0.5,62,162.2
7088,E7,582.583,0.125,57,162.2
7089,C#7,582.583,0.125,57,162.2
7090,E6,582.583,0.125,57,162.2
7091,E4,582.75,0.5,40,162.2
7092,E-7,582.75,167/1000,60,162.2
7093,C7,582.75,167/1000,60,162.2
7094,E-6,582.75,167/1000,60,162.2
7095,E-5,582.75,0.25,51,162.2
7096,C5,582.75,0.25,51,162.2
7097,E7,582.917,167/1000,60,162.2
7098,C#7,582.917,167/1000,60,162.2
7099,E6,582.917,167/1000,60,162.2
7100,E5,583.0,0.25,51,162.2
7101,C#5,583.0,0.25,51,162.2
7102,E-7,583.083,167/1000,59,162.2
7103,C7,583.083,167/1000,59,162.2
7104,E-6,583.083,167/1000,59,162.2
7105,E7,583.25,167/1000,57,162.2
7106,C#7,583.25,167/1000,57,162.2
7107,E6,583.25,167/1000,57,162.2
7108,D5,583.25,0.25,50,162.2
7109,E4,583.25,0.25,50,162.2
7110,B4,583.25,0.25,50,162.2
7111,D7,583.417,167/1000,56,162.2
7112,B6,583.417,167/1000,56,162.2
7113,D6,583.417,167/1000,56,162.2
7114,A3,583.5,0.25,59,162.2
7115,E7,583.583,0.125,55,162.2
7116,C#7,583.583,0.125,55,162.2
7117,E6,583.583,0.125,55,162.2
7118,E7,583.75,167/1000,53,162.2
7119,C#7,583.75,167/1000,53,162.2
7120,E6,583.75,167/1000,53,162.2
7121,C#5,583.75,0.188,46,162.2
7122,E4,583.75,0.188,46,162.2
7123,A4,583.75,0.188,46,162.2
7124,C#7,583.917,0.125,51,162.2
7125,C#6,583.917,0.125,51,162.2
7126,A6,583.917,0.125,51,162.2
7127,C#5,584.0,0.188,48,162.2
7128,E4,584.0,0.188,48,162.2
7129,A4,584.0,0.188,48,162.2
7130,C#6,584.083,0.125,50,162.2
7131,A6,584.083,0.125,50,162.2
7132,C#7,584.083,0.125,50,162.2
7133,C#6,584.25,0.125,52,162.2
7134,C#7,584.25,0.125,52,162.2
7135,A6,584.25,0.125,52,162.2
7136,C#5,584.25,0.188,50,162.2
7137,E4,584.25,0.188,50,162.2
7138,A4,584.25,0.188,50,162.2
7139,C#7,584.417,0.125,54,162.2
7140,A6,584.417,0.125,54,162.2
7141,C#6,584.417,0.125,54,162.2
7142,F3,584.5,0.5,62,162.2
7143,C#6,584.583,0.125,53,162.2
7144,C#7,584.583,0.125,53,162.2
7145,A6,584.583,0.125,53,162.2
7146,C#4,584.75,0.5,41,162.2
7147,G#6,584.75,167/1000,57,162.2
7148,C7,584.75,167/1000,57,162.2
7149,C6,584.75,167/1000,57,162.2
7150,C5,584.75,0.25,51,162.2
7151,G#4,584.75,0.25,51,162.2
7152,A6,584.917,167/1000,56,162.2
7153,C#6,584.917,167/1000,56,162.2
7154,C#7,584.917,167/1000,56,162.2
7155,C#5,585.0,0.25,51,162.2
7156,A4,585.0,0.25,51,162.2
7157,C6,585.083,167/1000,55,162.2
7158,C7,585.083,167/1000,55,162.2
7159,G#6,585.083,167/1000,55,162.2
7160,C#6,585.25,167/1000,57,162.2
7161,C#7,585.25,167/1000,57,162.2
7162,A6,585.25,167/1000,57,162.2
7163,B4,585.25,0.25,50,162.2
7164,C#4,585.25,0.25,50,162.2
7165,G#4,585.25,0.25,50,162.2
7166,B5,585.417,167/1000,52,162.2
7167,B6,585.417,167/1000,52,162.2
7168,G#6,585.417,167/1000,52,162.2
7169,F#3,585.5,0.25,59,162.2
7170,C#7,585.583,0.125,52,162.2
7171,A6,585.583,0.125,52,162.2
7172,C#6,585.583,0.125,52,162.2
7173,C#6,585.75,167/1000,53,162.2
7174,A6,585.75,167/1000,53,162.2
7175,C#7,585.75,167/1000,53,162.2
7176,A4,585.75,0.188,46,162.2
7177,C#4,585.75,0.188,46,162.2
7178,F#4,585.75,0.188,46,162.2
7179,A6,585.917,0.125,48,162.2
7180,A5,585.917,0.125,48,162.2
7181,F#6,585.917,0.125,48,162.2
7182,A4,586.0,0.188,48,162.2
7183,C#4,586.0,0.188,48,162.2
7184,F#4,586.0,0.188,48,162.2
7185,A6,586.083,0.125,50,162.2
7186,F#6,586.083,0.125,50,162.2
7187,A5,586.083,0.125,50,162.2
7188,A6,586.25,0.125,52,162.2
7189,A5,586.25,0.125,52,162.2
7190,F#6,586.25,0.125,52,162.2
7191,A4,586.25,0.188,50,162.2
7192,C#4,586.25,0.188,50,162.2
7193,F#4,586.25,0.188,50,162.2
7194,A6,586.417,0.125,54,162.2
7195,F#6,586.417,0.125,54,162.2
7196,A5,586.417,0.125,54,162.2
7197,C#3,586.5,0.5,62,162.2
7198,A5,586.583,0.125,53,162.2
7199,A6,586.583,0.125,53,162.2
7200,F#6,586.583,0.125,53,162.2
7201,A3,586.75,0.5,47,162.2
7202,G#6,586.75,167/1000,57,162.2
7203,G#5,586.75,167/1000,57,162.2
7204,F6,586.75,167/1000,57,162.2
7205,G#4,586.75,0.25,51,162.2
7206,F4,586.75,0.25,51,162.2
7207,A6,586.917,167/1000,56,162.2
7208,A5,586.917,167/1000,56,162.2
7209,F#6,586.917,167/1000,56,162.2
7210,A4,587.0,0.25,51,162.2
7211,F#4,587.0,0.25,51,162.2
7212,G#6,587.083,167/1000,55,162.2
7213,G#5,587.083,167/1000,55,162.2
7214,F6,587.083,167/1000,55,162.2
7215,A6,587.25,167/1000,53,162.2
7216,A5,587.25,167/1000,53,162.2
7217,F#6,587.25,167/1000,53,162.2
7218,G4,587.25,0.188,50,162.2
7219,A3,587.25,0.188,50,162.2
7220,E4,587.25,0.188,50,162.2
7221,G6,587.417,167/1000,52,162.2
7222,G5,587.417,167/1000,52,162.2
7223,E6,587.417,167/1000,52,162.2
7224,D3,587.438,0.062,52,162.2
7225,A3,587.438,0.062,52,162.2
7226,F#4,587.5,0.25,62,162.2
7227,D3,587.5,0.219,52,162.2
7228,A3,587.5,0.219,52,162.2
7229,A6,587.583,0.125,52,162.2
7230,F#6,587.583,0.125,52,162.2
7231,A5,587.583,0.125,52,162.2
7232,D2,587.75,0.094,54,162.2
7233,A6,587.75,167/1000,61,162.2
7234,A5,587.75,167/1000,61,162.2
7235,F#6,587.75,167/1000,61,162.2
7236,F#6,587.917,0.062,51,162.2
7237,D6,587.917,0.062,51,162.2
7238,A2,588.0,0.094,55,162.2
7239,F#6,588.083,0.062,54,162.2
7240,D6,588.083,0.062,54,162.2
7241,F#3,588.25,71/1000,55,162.2
7242,F#5,588.25,0.062,47,162.2
7243,A5,588.25,0.062,47,162.2
7244,D6,588.417,0.062,54,162.2
7245,F#6,588.417,0.062,54,162.2
7246,B2,588.438,53/250,52,162.2
7247,F#3,588.438,53/250,52,162.2
7248,D4,588.5,0.188,62,162.2
7249,D5,588.583,0.062,49,162.2
7250,F#5,588.583,0.062,49,162.2
7251,B1,588.75,0.094,54,162.2
7252,D7,588.75,0.062,70,162.2
7253,B6,588.75,0.062,70,162.2
7254,F#6,588.917,0.062,51,162.2
7255,D6,588.917,0.062,51,162.2
7256,F#2,589.0,0.094,55,162.2
7257,D7,589.083,0.062,54,162.2
7258,B6,589.083,0.062,54,162.2
7259,D3,589.25,71/1000,55,162.2
7260,B5,589.25,0.062,47,162.2
7261,D6,589.25,0.062,47,162.2
7262,B6,589.417,0.062,54,162.2
7263,D7,589.417,0.062,54,162.2
7264,E3,589.438,0.062,57,162.2
7265,B3,589.438,0.062,57,162.2
7266,G#4,589.5,0.25,62,162.2
7267,E3,589.5,0.219,57,162.2
7268,B3,589.5,0.219,57,162.2
7269,F#5,589.583,0.062,49,162.2
7270,B5,589.583,0.062,49,162.2
7271,E2,589.75,0.094,54,162.2
7272,B5,589.75,167/1000,58,162.2
7273,D6,589.75,167/1000,58,162.2
7274,D5,589.75,167/1000,58,162.2
7275,G#5,589.917,0.062,51,162.2
7276,E5,589.917,0.062,51,162.2
7277,B2,590.0,0.094,55,162.2
7278,G#6,590.083,0.062,54,162.2
7279,E6,590.083,0.062,54,162.2
7280,G#3,590.25,71/1000,55,162.2
7281,G#5,590.25,0.062,47,162.2
7282,B5,590.25,0.062,47,162.2
7283,E6,590.417,0.062,54,162.2
7284,G#6,590.417,0.062,54,162.2
7285,C#3,590.438,53/250,52,162.2
7286,G#3,590.438,53/250,52,162.2
7287,E4,590.5,0.188,62,162.2
7288,E5,590.583,0.062,49,162.2
7289,G#5,590.583,0.062,49,162.2
7290,C#2,590.75,0.094,54,162.2
7291,E7,590.75,0.062,70,162.2
7292,C#7,590.75,0.062,70,162.2
7293,G#6,590.917,0.062,51,162.2
7294,E6,590.917,0.062,51,162.2
7295,G#2,591.0,0.094,55,162.2
7296,E7,591.083,0.062,54,162.2
7297,C#7,591.083,0.062,54,162.2
7298,E3,591.25,71/1000,55,162.2
7299,C#6,591.25,0.062,47,162.2
7300,E6,591.25,0.062,47,162.2
7301,C#7,591.417,0.062,54,162.2
7302,E7,591.417,0.062,54,162.2
7303,F#3,591.438,0.062,57,162.2
7304,C#4,591.438,0.062,57,162.2
7305,A4,591.5,0.25,62,162.2
7306,F#3,591.5,0.219,57,162.2
7307,C#4,591.5,0.219,57,162.2
7308,G#5,591.583,0.062,49,162.2
7309,C#6,591.583,0.062,49,162.2
7310,F#2,591.75,0.094,54,162.2
7311,E6,591.75,167/1000,58,162.2
7312,E5,591.75,167/1000,58,162.2
7313,C#6,591.75,167/1000,58,162.2
7314,A5,591.917,0.062,51,162.2
7315,F#5,591.917,0.062,51,162.2
7316,C#3,592.0,0.094,55,162.2
7317,A6,592.083,0.062,54,162.2
7318,F#6,592.083,0.062,54,162.2
7319,A3,592.25,71/1000,55,162.2
7320,A5,592.25,0.062,47,162.2
7321,C#6,592.25,0.062,47,162.2
7322,F#6,592.417,0.062,54,162.2
7323,A6,592.417,0.062,54,162.2
7324,D3,592.438,53/250,52,162.2
7325,A3,592.438,53/250,52,162.2
7326,F4,592.5,0.188,62,162.2
7327,F#5,592.583,0.062,49,162.2
7328,A5,592.583,0.062,49,162.2
7329,D2,592.75,0.094,54,162.2
7330,F7,592.75,0.062,70,162.2
7331,D7,592.75,0.062,70,162.2
7332,A6,592.917,0.062,51,162.2
7333,F6,592.917,0.062,51,162.2
7334,A2,593.0,0.094,55,162.2
7335,F7,593.083,0.062,54,162.2
7336,D7,593.083,0.062,54,162.2
7337,F3,593.25,71/1000,55,162.2
7338,D6,593.25,0.062,47,162.2
7339,F6,593.25,0.062,47,162.2
7340,D7,593.417,0.062,54,162.2
7341,F7,593.417,0.062,54,162.2
7342,G#2,593.438,0.062,51,162.2
7343,E3,593.438,0.062,51,162.2
7344,B3,593.5,0.25,61,162.2
7345,G#2,593.5,0.219,51,162.2
7346,E3,593.5,0.219,51,162.2
7347,A5,593.583,0.062,49,162.2
7348,D6,593.583,0.062,49,162.2
7349,E7,593.75,167/1000,67,162.2
7350,E6,593.75,167/1000,67,162.2
7351,B6,593.75,167/1000,67,162.2
7352,G#1,593.833,167/1000,57,162.2
7353,E-7,593.917,167/1000,62,162.2
7354,B1,594.0,0.125,49,162.2
7355,E7,594.083,167/1000,75,162.2
7356,G#1,594.167,0.125,57,162.2
7357,D7,594.25,0.125,61,162.2
7358,D2,594.333,0.125,50,162.2
7359,E7,594.417,0.125,77,162.2
7360,G#1,594.5,0.125,57,162.2
7361,B6,594.583,0.125,56,162.2
7362,E2,594.667,0.125,50,162.2
7363,E7,594.75,0.125,77,162.2
7364,G#1,594.833,0.125,57,162.2
7365,G#6,594.917,0.125,52,162.2
7366,G#2,595.0,0.125,48,162.2
7367,E7,595.083,0.125,77,162.2
7368,G#1,595.167,0.125,56,162.2
7369,E6,595.25,0.125,52,162.2
7370,B2,595.333,0.125,49,162.2
7371,E7,595.417,0.125,79,162.2
7372,G#1,595.5,0.125,56,162.2
7373,D6,595.583,0.125,50,162.2
7374,D3,595.667,0.125,48,162.2
7375,E7,595.75,0.125,79,162.2
7376,G#1,595.833,0.125,56,162.2
7377,B5,595.917,0.125,50,162.2
7378,E3,596.0,0.125,49,162.2
7379,E7,596.083,0.125,79,162.2
7380,G#1,596.167,0.125,56,162.2
7381,G#5,596.25,0.125,50,162.2
7382,G#3,596.333,0.125,49,162.2
7383,E7,596.417,0.125,79,162.2
7384,G#1,596.5,0.125,56,162.2
7385,E5,596.583,0.125,51,162.2
7386,B3,596.667,0.125,48,162.2
7387,E7,596.75,0.125,79,162.2
7388,G#1,596.833,0.125,56,162.2
7389,D5,596.917,0.125,51,162.2
7390,D4,597.0,0.125,48,162.2
7391,E7,597.083,0.125,79,162.2
7392,G#1,597.167,0.125,56,162.2
7393,B4,597.25,0.125,51,162.2
7394,E4,597.333,0.125,51,162.2
7395,E7,597.417,0.125,79,162.2
7396,G#1,597.5,0.25,61,162.2
7397,G#4,597.583,0.125,51,162.2
7398,E7,597.75,0.25,79,162.2
7399,G#3,598.438,0.5,62,162.2
7400,B4,598.5,0.438,70,162.2
7401,F4,598.75,323/1000,59,162.2
7402,E4,598.917,167/1000,43,162.2
7403,A3,598.938,0.5,62,162.2
7404,C5,599.0,0.438,70,162.2
7405,F4,599.083,167/1000,40,162.2
7406,E4,599.25,167/1000,40,162.2
7407,F4,599.417,167/1000,40,162.2
7408,E4,599.583,167/1000,40,162.2
7409,F#4,599.75,229/1000,43,162.2
7410,E4,599.875,0.125,40,162.2
7411,B-3,599.938,0.5,62,162.2
7412,F#4,600.0,0.125,40,162.2
7413,C#5,600.0,0.438,69,162.2
7414,E4,600.125,0.125,40,162.2
7415,G4,600.25,229/1000,52,162.2
7416,E4,600.375,0.125,40,162.2
7417,B3,600.438,0.062,62,162.2
7418,G4,600.5,0.125,40,162.2
7419,D5,600.5,0.438,70,162.2
7420,B3,600.5,0.438,62,162.2
7421,E4,600.625,0.125,40,162.2
7422,G#4,600.75,229/1000,58,162.2
7423,E4,600.875,0.125,37,162.2
7424,G#4,601.0,0.125,40,162.2
7425,E4,601.125,0.125,38,162.2
7426,G#4,601.25,0.125,40,162.2
7427,E4,601.375,0.125,36,162.2
7428,B3,601.438,0.5,60,162.2
7429,G#4,601.5,0.125,40,162.2
7430,D5,601.5,0.438,66,162.2
7431,E4,601.625,0.125,37,162.2
7432,G#4,601.75,229/1000,54,162.2
7433,E4,601.875,0.125,37,162.2
7434,C4,601.938,0.5,58,162.2
7435,G#4,602.0,0.125,39,162.2
7436,E-5,602.0,0.438,66,162.2
7437,E4,602.125,0.125,37,162.2
7438,F#4,602.25,229/1000,54,162.2
7439,A4,602.25,0.125,54,162.2
7440,E4,602.375,0.125,36,162.2
7441,F#4,602.5,0.125,39,162.2
7442,A4,602.5,0.125,39,162.2
7443,E4,602.625,0.125,36,162.2
7444,F#4,602.75,0.125,39,162.2
7445,A4,602.75,0.125,39,162.2
7446,E4,602.875,0.125,36,162.2
7447,C#4,602.938,0.562,58,162.2
7448,E5,603.0,0.5,62,162.2
7449,F#4,603.0,0.125,39,162.2
7450,A4,603.0,0.125,39,162.2
7451,E4,603.125,0.125,37,162.2
7452,G4,603.25,0.125,54,162.2
7453,B-4,603.25,229/1000,54,162.2
7454,E4,603.375,0.125,39,162.2
7455,G4,603.5,0.125,41,162.2
7456,B-4,603.5,0.125,41,162.2
7457,F5,603.5,0.5,64,162.2
7458,D4,603.5,0.5,64,162.2
7459,E4,603.625,0.125,39,162.2
7460,B-4,603.75,229/1000,61,162.2
7461,F4,603.875,0.125,42,162.2
7462,B-4,604.0,0.125,45,162.2
7463,F4,604.125,0.125,41,162.2
7464,B-4,604.25,0.125,45,162.2
7465,F4,604.375,0.125,41,162.2
7466,B-4,604.5,0.125,45,162.2
7467,F4,604.625,0.125,42,162.2
7468,B-4,604.75,0.125,45,162.2
7469,F4,604.875,0.125,42,162.2
7470,B-4,605.0,0.125,45,162.2
7471,F5,605.0,0.5,62,162.2
7472,D4,605.0,0.5,62,162.2
7473,F4,605.125,0.125,42,162.2
7474,G#4,605.25,0.125,45,162.2
7475,B-4,605.25,229/1000,45,162.2
7476,F4,605.375,0.125,42,162.2
7477,G#4,605.5,0.125,52,162.2
7478,B-4,605.5,0.125,52,162.2
7479,F4,605.625,0.125,41,162.2
7480,G#4,605.75,0.125,44,162.2
7481,B-4,605.75,0.125,44,162.2
7482,F4,605.875,0.125,41,162.2
7483,G#4,606.0,0.125,44,162.2
7484,B-4,606.0,0.125,44,162.2
7485,F4,606.125,0.125,41,162.2
7486,G#4,606.25,0.125,44,162.2
7487,B-4,606.25,0.125,44,162.2
7488,F4,606.375,0.125,40,162.2
7489,G#4,606.5,0.125,44,162.2
7490,B-4,606.5,0.125,44,162.2
7491,F#5,606.5,0.5,62,162.2
7492,E-4,606.5,0.5,62,162.2
7493,F4,606.625,0.125,41,162.2
7494,B-4,606.75,229/1000,52,162.2
7495,F#4,606.875,0.125,42,162.2
7496,B-4,607.0,0.125,45,162.2
7497,F#4,607.125,0.125,41,162.2
7498,B-4,607.25,0.125,45,162.2
7499,F#4,607.375,0.125,41,162.2
7500,B-4,607.5,0.125,45,162.2
7501,F#4,607.625,0.125,41,162.2
7502,B-4,607.75,0.125,45,162.2
7503,F#4,607.875,0.125,40,162.2
7504,B-4,608.0,0.125,45,162.2
7505,F#5,608.0,0.5,64,162.2
7506,E-4,608.0,0.5,64,162.2
7507,F#4,608.125,0.125,41,162.2
7508,B-4,608.25,0.125,62,162.2
7509,B4,608.25,229/1000,62,162.2
7510,F#4,608.375,0.125,44,162.2
7511,B-4,608.5,0.125,47,162.2
7512,B4,608.5,0.125,47,162.2
7513,F#4,608.625,0.125,44,162.2
7514,B-4,608.75,0.125,47,162.2
7515,B4,608.75,0.125,47,162.2
7516,F#4,608.875,0.125,43,162.2
7517,B-4,609.0,0.125,47,162.2
7518,B4,609.0,0.125,47,162.2
7519,F#4,609.125,0.125,44,162.2
7520,B-4,609.25,0.125,47,162.2
7521,B4,609.25,0.125,47,162.2
7522,F#4,609.375,0.125,44,162.2
7523,B-4,609.5,0.125,47,162.2
7524,B4,609.5,0.125,47,162.2
7525,F#4,609.625,0.125,44,162.2
7526,B4,609.75,0.125,57,162.2
7527,A4,609.75,0.125,57,162.2
7528,F4,609.875,0.125,48,162.2
7529,B4,610.0,0.125,44,162.2
7530,A4,610.0,0.125,44,162.2
7531,F4,610.125,0.125,48,162.2
7532,B4,610.25,0.125,44,162.2
7533,A4,610.25,0.125,44,162.2
7534,F4,610.375,0.125,48,162.2
7535,B4,610.5,0.125,44,162.2
7536,A4,610.5,0.125,44,162.2
7537,F4,610.625,0.125,48,162.2
7538,B4,610.75,0.125,44,162.2
7539,A4,610.75,0.125,44,162.2
7540,F4,610.875,0.125,48,162.2
7541,B4,611.0,0.125,44,162.2
7542,A4,611.0,0.125,44,162.2
7543,F4,611.125,0.125,48,162.2
7544,B4,611.25,0.125,50,162.2
7545,A4,611.25,0.125,50,162.2
7546,F4,611.375,0.125,48,162.2
7547,B4,611.5,0.125,44,162.2
7548,A4,611.5,0.125,44,162.2
7549,F4,611.625,0.125,48,162.2
7550,B4,611.75,0.125,44,162.2
7551,A4,611.75,0.125,44,162.2
7552,F4,611.875,0.125,48,162.2
7553,B4,612.0,0.125,44,162.2
7554,A4,612.0,0.125,44,162.2
7555,F4,612.125,0.125,48,162.2
7556,B4,612.25,0.125,44,162.2
7557,A4,612.25,0.125,44,162.2
7558,F4,612.375,0.125,48,162.2
7559,B4,612.5,0.125,44,162.2
7560,A4,612.5,0.125,44,162.2
7561,F4,612.625,0.125,48,162.2
7562,B4,612.75,0.125,50,162.2
7563,A4,612.75,0.125,50,162.2
7564,F4,612.875,0.125,50,162.2
7565,B4,613.0,0.125,46,162.2
7566,A4,613.0,0.125,46,162.2
7567,F4,613.125,0.125,50,162.2
7568,B4,613.25,0.125,46,162.2
7569,A4,613.25,0.125,46,162.2
7570,F4,613.375,0.125,50,162.2
7571,B4,613.5,0.125,46,162.2
7572,A4,613.5,0.125,46,162.2
7573,F4,613.625,0.125,50,162.2
7574,B4,613.75,0.125,46,162.2
7575,A4,613.75,0.125,46,162.2
7576,F4,613.875,0.125,50,162.2
7577,B4,614.0,0.125,46,162.2
7578,A4,614.0,0.125,46,162.2
7579,F4,614.125,0.125,50,162.2
7580,B4,614.25,0.125,51,162.2
7581,A4,614.25,0.125,51,162.2
7582,F4,614.375,0.125,50,162.2
7583,B4,614.5,0.125,46,162.2
7584,A4,614.5,0.125,46,162.2
7585,F4,614.625,0.125,50,162.2
7586,B4,614.75,0.125,46,162.2
7587,A4,614.75,0.125,46,162.2
7588,F4,614.875,0.125,50,162.2
7589,B4,615.0,0.125,46,162.2
7590,A4,615.0,0.125,46,162.2
7591,F4,615.125,0.125,50,162.2
7592,B4,615.25,0.125,46,162.2
7593,A4,615.25,0.125,46,162.2
7594,F4,615.375,0.125,50,162.2
7595,E4,615.5,0.25,36,162.2
7596,B4,615.5,0.125,46,162.2
7597,A4,615.5,0.125,46,162.2
7598,F4,615.625,0.125,50,162.2
7599,G#4,615.75,0.25,47,162.2
7600,F4,615.75,0.25,37,162.2
7601,E5,615.75,0.5,46,162.2
7602,D5,615.75,0.5,46,162.2
7603,A4,616.0,0.25,48,162.2
7604,F#4,616.0,0.25,39,162.2
7605,B-4,616.25,0.25,49,162.2
7606,G4,616.25,0.25,40,162.2
7607,B4,616.5,0.25,51,162.2
7608,G#4,616.5,0.25,42,162.2
7609,C5,616.75,0.25,52,162.2
7610,A4,616.75,0.25,43,162.2
7611,C#5,617.0,0.25,54,162.2
7612,B-4,617.0,0.25,45,162.2
7613,D5,617.25,0.25,54,162.2
7614,B4,617.25,0.25,46,162.2
7615,E-5,617.5,0.25,55,162.2
7616,C5,617.5,0.25,47,162.2
7617,E5,617.75,0.25,57,162.2
7618,C#5,617.75,0.25,49,162.2
7619,F5,618.0,0.25,58,162.2
7620,D5,618.0,0.25,50,162.2
7621,F#5,618.25,0.25,60,162.2
7622,E-5,618.25,0.25,52,162.2
7623,G5,618.5,0.25,61,162.2
7624,E5,618.5,0.25,55,162.2
7625,G#5,618.75,0.25,62,162.2
7626,F5,618.75,0.25,42,162.2
7627,E6,618.75,0.5,62,162.2
7628,D6,618.75,0.5,62,162.2
7629,A5,619.0,0.25,54,162.2
7630,F#5,619.0,0.25,44,162.2
7631,B-5,619.25,0.25,55,162.2
7632,G5,619.25,0.25,45,162.2
7633,B5,619.5,0.25,56,162.2
7634,G#5,619.5,0.25,46,162.2
7635,C6,619.75,0.25,57,162.2
7636,A5,619.75,0.25,48,162.2
7637,C#6,620.0,0.25,59,162.2
7638,B-5,620.0,0.25,50,162.2
7639,D6,620.25,0.25,60,162.2
7640,B5,620.25,0.25,52,162.2
7641,E-6,620.5,0.25,61,162.2
7642,C6,620.5,0.25,53,162.2
7643,E6,620.75,0.25,62,162.2
7644,C#6,620.75,0.25,54,162.2
7645,F6,621.0,0.25,63,162.2
7646,D6,621.0,0.25,56,162.2
7647,F#6,621.25,0.25,64,162.2
7648,E-6,621.25,0.25,58,162.2
7649,G6,621.5,0.25,65,162.2
7650,E6,621.5,0.25,55,162.2
7651,G#6,621.75,0.25,69,162.2
7652,F#6,621.75,0.25,52,162.2
7653,E7,621.75,0.5,69,162.2
7654,D7,621.75,0.5,69,162.2
7655,A6,622.0,0.25,59,162.2
7656,G6,622.0,0.25,54,162.2
7657,B-6,622.25,0.25,61,162.2
7658,G#6,622.25,0.25,56,162.2
7659,B6,622.5,0.25,63,162.2
7660,A6,622.5,0.25,58,162.2
7661,C7,622.75,0.25,65,162.2
7662,B-6,622.75,0.25,60,162.2
7663,C#7,623.0,0.25,67,162.2
7664,B6,623.0,0.25,63,162.2
7665,B-6,623.25,0.25,59,162.2
7666,E7,623.25,0.5,71,162.2
7667,D7,623.25,0.5,71,162.2
7668,C#7,623.5,0.25,69,162.2
7669,A6,623.5,0.25,58,162.2
7670,C7,623.75,0.25,66,162.2
7671,G#6,623.75,0.25,57,162.2
7672,B6,624.0,0.25,63,162.2
7673,G6,624.0,0.25,56,162.2
7674,B-6,624.25,0.25,62,162.2
7675,F#6,624.25,0.25,55,162.2
7676,A6,624.5,0.25,59,162.2
7677,E6,624.5,0.25,55,162.2
7678,G#6,624.75,0.25,69,162.2
7679,F#6,624.75,0.25,52,162.2
7680,E7,624.75,0.5,69,162.2
7681,D7,624.75,0.5,69,162.2
7682,A6,625.0,0.25,59,162.2
7683,G6,625.0,0.25,54,162.2
7684,B-6,625.25,0.25,61,162.2
7685,G#6,625.25,0.25,56,162.2
7686,B6,625.5,0.25,63,162.2
7687,A6,625.5,0.25,58,162.2
7688,C7,625.75,0.25,65,162.2
7689,B-6,625.75,0.25,60,162.2
7690,C#7,626.0,0.25,67,162.2
7691,B6,626.0,0.25,63,162.2
7692,B-6,626.25,0.25,59,162.2
7693,E7,626.25,0.5,71,162.2
7694,D7,626.25,0.5,71,162.2
7695,C#7,626.5,0.25,69,162.2
7696,A6,626.5,0.25,58,162.2
7697,C7,626.75,0.25,66,162.2
7698,G#6,626.75,0.25,57,162.2
7699,B6,627.0,0.25,63,162.2
7700,G6,627.0,0.25,56,162.2
7701,B-6,627.25,0.25,62,162.2
7702,F#6,627.25,0.25,55,162.2
7703,A6,627.5,0.25,59,162.2
7704,E6,627.5,0.25,55,162.2
7705,G#6,627.75,0.25,69,162.2
7706,F#6,627.75,0.25,52,162.2
7707,E7,627.75,0.5,69,162.2
7708,D7,627.75,0.5,69,162.2
7709,A6,628.0,0.25,57,162.2
7710,G6,628.0,0.25,54,162.2
7711,B-6,628.25,0.25,59,162.2
7712,G#6,628.25,0.25,55,162.2
7713,B6,628.5,0.25,61,162.2
7714,A6,628.5,0.25,57,162.2
7715,C7,628.75,0.25,63,162.2
7716,B-6,628.75,0.25,59,162.2
7717,C#7,629.0,0.25,65,162.2
7718,B6,629.0,0.25,61,162.2
7719,D7,629.25,0.25,67,162.2
7720,C7,629.25,0.25,63,162.2
7721,E-7,629.5,0.25,69,162.2
7722,C#7,629.5,0.25,64,162.2
7723,E7,629.75,0.25,72,162.2
7724,D7,629.75,0.25,66,162.2
7725,F7,630.0,0.25,75,162.2
7726,C#7,630.0,0.25,63,162.2
7727,E7,630.25,0.25,73,162.2
7728,C7,630.25,0.25,63,162.2
7729,E-7,630.5,0.25,73,162.2
7730,B6,630.5,0.25,62,162.2
7731,D7,630.75,0.25,70,162.2
7732,G#6,630.75,0.25,62,162.2
7733,B6,631.0,0.25,68,162.2
7734,F6,631.0,0.25,60,162.2
7735,G#6,631.25,0.25,65,162.2
7736,D6,631.25,0.25,57,162.2
7737,F6,631.5,0.25,63,162.2
7738,C#6,631.5,0.25,55,162.2
7739,E6,631.75,0.25,60,162.2
7740,C6,631.75,0.25,53,162.2
7741,E-6,632.0,0.25,57,162.2
7742,B5,632.0,0.25,51,162.2
7743,D6,632.25,0.25,55,162.2
7744,C6,632.25,0.25,48,162.2
7745,E-6,632.5,0.25,53,162.2
7746,C#6,632.5,0.25,53,162.2
7747,E6,632.75,0.25,54,162.2
7748,D6,632.75,0.25,51,162.2
7749,F6,633.0,0.25,53,162.2
7750,C#6,633.0,0.25,50,162.2
7751,E6,633.25,0.25,51,162.2
7752,C6,633.25,0.25,48,162.2
7753,E-6,633.5,0.25,49,162.2
7754,B5,633.5,0.25,47,162.2
7755,D6,633.75,0.25,51,162.2
7756,G#5,633.75,0.25,45,162.2
7757,B5,634.0,0.25,49,162.2
7758,F5,634.0,0.25,45,162.2
7759,G#5,634.25,0.25,48,162.2
7760,D5,634.25,0.25,45,162.2
7761,F5,634.5,0.25,47,162.2
7762,C#5,634.5,0.25,45,162.2
7763,E5,634.75,0.25,46,162.2
7764,C5,634.75,0.25,45,162.2
7765,E-5,635.0,0.25,46,162.2
7766,B4,635.0,0.25,46,162.2
7767,D5,635.25,0.25,47,162.2
7768,C5,635.25,0.25,48,162.2
7769,E-5,635.5,0.25,48,162.2
7770,C#5,635.5,0.25,48,162.2
7771,E5,635.75,0.25,49,162.2
7772,D5,635.75,0.25,46,162.2
7773,F5,636.0,0.25,49,162.2
7774,C#5,636.0,0.25,45,162.2
7775,E5,636.25,0.25,48,162.2
7776,B4,636.25,0.25,44,162.2
7777,D5,636.5,0.25,46,162.2
7778,G#4,636.5,0.25,36,162.2
7779,B4,636.75,0.25,48,162.2
7780,B4,636.75,0.25,37,162.2
7781,D5,637.0,0.25,45,162.2
7782,C#5,637.0,0.25,40,162.2
7783,E5,637.25,0.25,47,162.2
7784,D5,637.25,0.25,40,162.2
7785,F5,637.5,0.25,48,162.2
7786,C#5,637.5,0.25,40,162.2
7787,E5,637.75,0.25,47,162.2
7788,B4,637.75,0.25,39,162.2
7789,D5,638.0,0.25,46,162.2
7790,E4,638.0,0.25,37,162.2
7791,G#4,638.25,0.25,50,162.2
7792,B4,638.25,0.25,36,162.2
7793,D5,638.5,0.25,44,162.2
7794,C#5,638.5,0.25,37,162.2
7795,E5,638.75,0.25,45,162.2
7796,D5,638.75,0.25,39,162.2
7797,F5,639.0,0.25,46,162.2
7798,C#5,639.0,0.25,37,162.2
7799,E5,639.25,0.25,45,162.2
7800,B4,639.25,0.25,37,162.2
7801,D5,639.5,0.25,45,162.2
7802,F#4,639.5,0.25,36,162.2
7803,A4,639.75,0.25,50,162.2
7804,B4,639.75,0.25,36,162.2
7805,D5,640.0,0.25,44,162.2
7806,C#5,640.0,0.25,37,162.2
7807,E5,640.25,0.25,45,162.2
7808,D5,640.25,0.25,38,162.2
7809,F#5,640.5,0.25,45,162.2
7810,C#5,640.5,0.25,37,162.2
7811,E5,640.75,0.25,45,162.2
7812,B4,640.75,0.25,36,162.2
7813,D5,641.0,0.25,43,162.2
7814,G4,641.0,0.25,35,162.2
7815,B-4,641.25,0.25,49,162.2
7816,B4,641.25,0.25,34,162.2
7817,D5,641.5,0.25,40,162.2
7818,C#5,641.5,0.25,35,162.2
7819,E5,641.75,0.25,41,162.2
7820,D5,641.75,0.25,36,162.2
7821,F#5,642.0,0.25,43,162.2
7822,C#5,642.0,0.25,36,162.2
7823,E5,642.25,0.25,43,162.2
7824,B4,642.25,0.25,34,162.2
7825,D5,642.5,0.25,40,162.2
7826,G#4,642.5,0.25,34,162.2
7827,B4,642.75,0.25,49,162.2
7828,B4,642.75,0.25,34,162.2
7829,D5,643.0,0.25,40,162.2
7830,D5,643.0,0.5,34,162.2
7831,F#5,643.25,0.25,44,162.2
7832,E5,643.5,0.25,40,162.2
7833,F5,643.75,0.25,44,162.2
7834,E5,644.0,0.25,40,162.2
7835,F#5,644.25,0.25,44,162.2
7836,E5,644.5,0.25,40,162.2
7837,F5,644.75,0.25,45,162.2
7838,E5,645.0,0.25,40,162.2
7839,F#5,645.25,0.25,45,162.2
7840,E5,645.5,0.25,41,162.2
7841,F5,645.75,0.25,45,162.2
7842,E5,646.0,0.25,42,162.2
7843,F#5,646.25,0.25,45,162.2
7844,E5,646.5,0.25,40,162.2
7845,F5,646.75,0.25,45,162.2
7846,E5,647.0,0.25,40,162.2
7847,F#5,647.25,0.25,44,162.2
7848,E5,647.5,0.25,40,162.2
7849,F5,647.75,0.25,43,162.2
7850,E5,648.0,0.25,38,162.2
7851,F#5,648.25,0.25,42,162.2
7852,E5,648.5,0.25,38,162.2
7853,F5,648.75,0.25,41,162.2
7854,E5,649.0,0.25,37,162.2
7855,F#5,649.25,0.25,40,162.2
7856,E5,649.5,0.25,37,162.2
7857,F#5,649.75,0.25,39,162.2
7858,E5,650.0,0.25,36,162.2
7859,F#5,650.25,0.25,38,162.2
7860,E5,650.5,0.25,36,162.2
7861,F#5,650.75,0.25,37,162.2
7862,E5,651.0,0.25,33,162.2
7863,F#5,651.25,0.25,36,162.2
7864,E5,651.5,0.25,33,162.2
7865,F#5,651.75,0.25,36,162.2
7866,E5,652.0,0.25,32,162.2
7867,F#5,652.25,0.25,35,162.2
7868,E5,652.5,0.25,32,162.2
7869,F#5,652.75,0.25,34,162.2
7870,E5,653.0,0.25,31,162.2
7871,F#5,653.25,0.25,33,162.2
7872,E5,653.5,0.25,30,162.2
7873,F#5,653.75,0.25,32,162.2
7874,E5,654.0,0.25,29,162.2
7875,G#3,654.0,0.25,35,162.2
7876,B5,654.25,0.5,45,162.2
7877,B4,654.25,0.25,36,162.2
7878,E4,654.25,0.25,31,162.2
7879,E5,654.5,0.25,36,162.2
7880,A2,654.5,0.25,38,162.2
7881,C#6,654.75,1.0,47,162.2
7882,C#5,654.75,0.25,36,162.2
7883,E3,654.75,0.25,31,162.2
7884,E5,655.0,0.25,36,162.2
7885,A3,655.0,0.25,34,162.2
7886,F#5,655.25,0.25,39,162.2
7887,E4,655.25,0.25,31,162.2
7888,E5,655.5,0.25,36,162.2
7889,G#3,655.5,0.25,36,162.2
7890,B5,655.75,0.5,43,162.2
7891,B4,655.75,0.25,36,162.2
7892,E4,655.75,0.25,31,162.2
7893,E5,656.0,0.25,36,162.2
7894,A2,656.0,0.25,35,162.2
7895,C#6,656.25,1.0,47,162.2
7896,C#5,656.25,0.25,36,162.2
7897,E3,656.25,0.25,31,162.2
7898,E5,656.5,0.25,36,162.2
7899,A3,656.5,0.25,34,162.2
7900,F#5,656.75,0.25,39,162.2
7901,E4,656.75,0.25,31,162.2
7902,E5,657.0,0.25,36,162.2
7903,B3,657.0,0.25,31,162.2
7904,D6,657.25,0.5,44,162.2
7905,D5,657.25,0.25,36,162.2
7906,E4,657.25,0.25,31,162.2
7907,E5,657.5,0.25,36,162.2
7908,G#3,657.5,0.25,36,162.2
7909,B5,657.75,0.5,48,162.2
7910,D5,657.75,0.25,36,162.2
7911,E4,657.75,0.25,31,162.2
7912,E5,658.0,0.25,36,162.2
7913,E3,658.0,0.25,35,162.2
7914,E6,658.25,1.0,49,162.2
7915,G#5,658.25,0.25,36,162.2
7916,G#4,658.25,0.25,31,162.2
7917,E5,658.5,0.25,36,162.2
7918,F3,658.5,0.25,35,162.2
7919,A5,658.75,0.25,40,162.2
7920,A4,658.75,0.25,31,162.2
7921,E5,659.0,0.25,36,162.2
7922,F#3,659.0,0.25,35,162.2
7923,B-5,659.25,0.25,42,162.2
7924,B-4,659.25,0.25,31,162.2
7925,E5,659.5,0.25,36,162.2
7926,G3,659.5,0.25,36,162.2
7927,B5,659.75,0.25,42,162.2
7928,B4,659.75,0.25,31,162.2
7929,E5,660.0,0.25,36,162.2
7930,G#3,660.0,0.25,36,162.2
7931,C6,660.25,0.25,45,162.2
7932,C5,660.25,0.25,31,162.2
7933,E5,660.5,0.25,36,162.2
7934,A2,660.5,0.25,38,162.2
7935,C#6,660.75,1.0,47,162.2
7936,C#5,660.75,0.25,36,162.2
7937,E3,660.75,0.25,31,162.2
7938,E5,661.0,0.25,36,162.2
7939,A3,661.0,0.25,34,162.2
7940,F#5,661.25,0.25,39,162.2
7941,E4,661.25,0.25,31,162.2
7942,E5,661.5,0.25,36,162.2
7943,G#3,661.5,0.25,36,162.2
7944,B5,661.75,0.5,43,162.2
7945,B4,661.75,0.25,36,162.2
7946,E4,661.75,0.25,31,162.2
7947,E5,662.0,0.25,36,162.2
7948,A2,662.0,0.25,35,162.2
7949,C#6,662.25,1.0,47,162.2
7950,C#5,662.25,0.25,36,162.2
7951,E3,662.25,0.25,31,162.2
7952,E5,662.5,0.25,36,162.2
7953,A3,662.5,0.25,34,162.2
7954,F#5,662.75,0.25,39,162.2
7955,E4,662.75,0.25,31,162.2
7956,E5,663.0,0.25,36,162.2
7957,B3,663.0,0.25,31,162.2
7958,D6,663.25,0.5,44,162.2
7959,D5,663.25,0.25,36,162.2
7960,E4,663.25,0.25,31,162.2
7961,E5,663.5,0.25,36,162.2
7962,G#3,663.5,0.25,36,162.2
7963,B5,663.75,0.5,48,162.2
7964,B4,663.75,0.25,36,162.2
7965,E4,663.75,0.25,31,162.2
7966,E5,664.0,0.25,36,162.2
7967,E3,664.0,0.25,35,162.2
7968,E6,664.25,1.0,49,162.2
7969,G#5,664.25,0.25,36,162.2
7970,G#4,664.25,0.25,31,162.2
7971,E5,664.5,0.25,36,162.2
7972,F3,664.5,0.25,35,162.2
7973,A5,664.75,0.25,40,162.2
7974,A4,664.75,0.25,31,162.2
7975,E5,665.0,0.25,36,162.2
7976,F#3,665.0,0.25,35,162.2
7977,B-5,665.25,0.25,42,162.2
7978,B-4,665.25,0.25,31,162.2
7979,E5,665.5,0.25,36,162.2
7980,G3,665.5,0.25,36,162.2
7981,B5,665.75,0.25,42,162.2
7982,B4,665.75,0.25,31,162.2
7983,E5,666.0,0.25,36,162.2
7984,G#3,666.0,0.25,36,162.2
7985,C6,666.25,0.25,42,162.2
7986,C5,666.25,0.25,31,162.2
7987,E5,666.5,0.25,36,162.2
7988,A2,666.5,0.25,38,162.2
7989,C#5,666.75,0.25,36,162.2
7990,E3,666.75,0.25,31,162.2
7991,C#6,666.75,1.0,44,162.2
7992,A5,666.75,1.0,44,162.2
7993,E5,667.0,0.25,36,162.2
7994,C#4,667.0,0.25,34,162.2
7995,F#5,667.25,0.25,39,162.2
7996,E4,667.25,0.25,31,162.2
7997,E5,667.5,0.25,36,162.2
7998,A3,667.5,0.25,36,162.2
7999,C#5,667.75,0.25,36,162.2
8000,C#4,667.75,0.25,31,162.2
8001,E5,668.0,0.25,36,162.2
8002,D3,668.0,0.25,35,162.2
8003,D5,668.25,0.25,36,162.2
8004,B3,668.25,0.25,31,162.2
8005,B5,668.25,0.5,45,162.2
8006,D6,668.25,0.5,45,162.2
8007,F#5,668.5,0.25,36,162.2
8008,D4,668.5,0.25,34,162.2
8009,G#5,668.75,0.25,39,162.2
8010,F#4,668.75,0.25,31,162.2
8011,F#6,668.75,0.5,42,162.2
8012,D6,668.75,0.5,42,162.2
8013,F#5,669.0,0.25,36,162.2
8014,B3,669.0,0.25,31,162.2
8015,D5,669.25,0.25,36,162.2
8016,D4,669.25,0.25,31,162.2
8017,B5,669.25,0.5,42,162.2
8018,D6,669.25,0.5,42,162.2
8019,F#5,669.5,0.25,36,162.2
8020,E3,669.5,0.25,38,162.2
8021,C#5,669.75,0.25,36,162.2
8022,C#4,669.75,0.25,31,162.2
8023,A5,669.75,0.5,48,162.2
8024,C#6,669.75,0.5,48,162.2
8025,E5,670.0,0.25,36,162.2
8026,A4,670.0,0.25,34,162.2
8027,F#5,670.25,0.25,39,162.2
8028,C#5,670.25,0.25,31,162.2
8029,E6,670.25,0.5,44,162.2
8030,C#6,670.25,0.5,44,162.2
8031,E5,670.5,0.25,36,162.2
8032,E4,670.5,0.25,36,162.2
8033,C#5,670.75,0.25,36,162.2
8034,A4,670.75,0.25,31,162.2
8035,A5,670.75,0.5,44,162.2
8036,C#6,670.75,0.5,44,162.2
8037,E5,671.0,0.25,36,162.2
8038,E3,671.0,0.25,35,162.2
8039,B4,671.25,0.25,36,162.2
8040,D4,671.25,0.25,31,162.2
8041,B5,671.25,0.5,49,162.2
8042,G#5,671.25,0.5,49,162.2
8043,E5,671.5,0.25,36,162.2
8044,G#4,671.5,0.25,34,162.2
8045,F5,671.75,0.25,39,162.2
8046,B4,671.75,0.25,31,162.2
8047,B5,671.75,0.5,44,162.2
8048,D6,671.75,0.5,44,162.2
8049,E5,672.0,0.25,36,162.2
8050,D4,672.0,0.25,31,162.2
8051,B4,672.25,0.25,36,162.2
8052,G#4,672.25,0.25,31,162.2
8053,G#5,672.25,0.5,44,162.2
8054,B5,672.25,0.5,44,162.2
8055,E5,672.5,0.25,36,162.2
8056,C#4,672.5,0.25,32,162.2
8057,E4,672.5,0.25,32,162.2
8058,A4,672.75,0.25,41,162.2
8059,A5,672.75,1.0,51,162.2
8060,E4,672.75,0.25,33,162.2
8061,C#5,673.0,0.25,41,162.2
8062,A4,673.0,0.25,34,162.2
8063,E5,673.25,0.25,41,162.2
8064,C#5,673.25,0.25,34,162.2
8065,A5,673.5,0.25,41,162.2
8066,E5,673.5,0.25,35,162.2
8067,C#6,673.75,0.25,42,162.2
8068,A6,673.75,0.5,51,162.2
8069,F#5,673.75,0.25,36,162.2
8070,E-6,674.0,0.25,44,162.2
8071,G#5,674.0,0.25,36,162.2
8072,E6,674.25,0.25,45,162.2
8073,G#6,674.25,0.5,51,162.2
8074,E5,674.25,0.25,36,162.2
8075,B5,674.5,0.25,44,162.2
8076,B4,674.5,0.25,31,162.2
8077,G#5,674.75,0.25,45,162.2
8078,E6,674.75,0.5,54,162.2
8079,C#5,674.75,0.25,31,162.2
8080,A5,675.0,0.25,45,162.2
8081,D5,675.0,0.25,33,162.2
8082,B5,675.25,0.25,46,162.2
8083,G6,675.25,0.5,54,162.2
8084,E5,675.25,0.25,31,162.2
8085,C#6,675.5,0.25,45,162.2
8086,F#5,675.5,0.25,36,162.2
8087,D6,675.75,0.25,47,162.2
8088,F#6,675.75,0.5,58,162.2
8089,D5,675.75,0.25,36,162.2
8090,A5,676.0,0.25,47,162.2
8091,B-4,676.0,0.25,36,162.2
8092,F5,676.25,0.25,46,162.2
8093,D6,676.25,0.5,56,162.2
8094,F4,676.25,0.25,37,162.2
8095,D5,676.5,0.25,49,162.2
8096,D4,676.5,0.25,38,162.2
8097,B-5,676.75,0.25,48,162.2
8098,F6,676.75,0.5,57,162.2
8099,C4,676.75,0.25,38,162.2
8100,A5,677.0,0.25,50,162.2
8101,B3,677.0,0.25,41,162.2
8102,G#5,677.25,0.25,49,162.2
8103,E6,677.25,0.5,59,162.2
8104,E4,677.25,0.25,38,162.2
8105,E5,677.5,0.25,49,162.2
8106,G#3,677.5,0.25,38,162.2
8107,B4,677.75,0.25,44,162.2
8108,B5,677.75,0.5,51,162.2
8109,E4,677.75,0.25,36,162.2
8110,E5,678.0,0.25,45,162.2
8111,E3,678.0,0.25,36,162.2
8112,G#3,678.0,0.25,36,162.2
8113,C5,678.25,0.25,37,162.2
8114,C6,678.25,0.5,47,162.2
8115,E4,678.25,0.25,34,162.2
8116,E5,678.5,0.25,42,162.2
8117,A2,678.5,0.25,38,162.2
8118,C#6,678.75,1.0,47,162.2
8119,C#5,678.75,0.25,36,162.2
8120,E3,678.75,0.25,31,162.2
8121,E5,679.0,0.25,36,162.2
8122,A3,679.0,0.25,34,162.2
8123,F#5,679.25,0.25,39,162.2
8124,E4,679.25,0.25,31,162.2
8125,E5,679.5,0.25,36,162.2
8126,G#3,679.5,0.25,36,162.2
8127,B5,679.75,0.5,43,162.2
8128,B4,679.75,0.25,36,162.2
8129,E4,679.75,0.25,31,162.2
8130,E5,680.0,0.25,36,162.2
8131,A2,680.0,0.25,35,162.2
8132,C#6,680.25,1.0,47,162.2
8133,C#5,680.25,0.25,36,162.2
8134,E3,680.25,0.25,31,162.2
8135,E5,680.5,0.25,36,162.2
8136,A3,680.5,0.25,34,162.2
8137,F#5,680.75,0.25,39,162.2
8138,E4,680.75,0.25,31,162.2
8139,E5,681.0,0.25,36,162.2
8140,B3,681.0,0.25,31,162.2
8141,D6,681.25,0.5,44,162.2
8142,D5,681.25,0.25,36,162.2
8143,E4,681.25,0.25,31,162.2
8144,E5,681.5,0.25,36,162.2
8145,G#3,681.5,0.25,36,162.2
8146,B5,681.75,0.5,48,162.2
8147,B4,681.75,0.25,36,162.2
8148,E4,681.75,0.25,31,162.2
8149,E5,682.0,0.25,36,162.2
8150,E3,682.0,0.25,35,162.2
8151,E6,682.25,1.0,49,162.2
8152,G#5,682.25,0.25,36,162.2
8153,G#4,682.25,0.25,31,162.2
8154,E5,682.5,0.25,36,162.2
8155,F3,682.5,0.25,35,162.2
8156,A5,682.75,0.25,40,162.2
8157,A4,682.75,0.25,31,162.2
8158,E5,683.0,0.25,36,162.2
8159,F#3,683.0,0.25,35,162.2
8160,B-5,683.25,0.25,42,162.2
8161,B-4,683.25,0.25,31,162.2
8162,E5,683.5,0.25,36,162.2
8163,G3,683.5,0.25,36,162.2
8164,B5,683.75,0.25,42,162.2
8165,B4,683.75,0.25,31,162.2
8166,E5,684.0,0.25,36,162.2
8167,G#3,684.0,0.25,36,162.2
8168,C6,684.25,0.25,45,162.2
8169,C5,684.25,0.25,31,162.2
8170,E5,684.5,0.25,36,162.2
8171,A2,684.5,0.25,38,162.2
8172,C#6,684.75,1.0,47,162.2
8173,C#5,684.75,0.25,36,162.2
8174,E3,684.75,0.25,31,162.2
8175,E5,685.0,0.25,36,162.2
8176,A3,685.0,0.25,34,162.2
8177,F#5,685.25,0.25,39,162.2
8178,E4,685.25,0.25,31,162.2
8179,E5,685.5,0.25,36,162.2
8180,G#3,685.5,0.25,36,162.2
8181,B5,685.75,0.5,43,162.2
8182,B4,685.75,0.25,36,162.2
8183,E4,685.75,0.25,31,162.2
8184,E5,686.0,0.25,36,162.2
8185,A2,686.0,0.25,35,162.2
8186,C#6,686.25,1.0,47,162.2
8187,C#5,686.25,0.25,36,162.2
8188,E3,686.25,0.25,31,162.2
8189,E5,686.5,0.25,36,162.2
8190,A3,686.5,0.25,34,162.2
8191,F#5,686.75,0.25,39,162.2
8192,E4,686.75,0.25,31,162.2
8193,E5,687.0,0.25,36,162.2
8194,B3,687.0,0.25,31,162.2
8195,D6,687.25,0.5,44,162.2
8196,D5,687.25,0.25,36,162.2
8197,E4,687.25,0.25,31,162.2
8198,E5,687.5,0.25,36,162.2
8199,G#3,687.5,0.25,36,162.2
8200,B5,687.75,0.5,48,162.2
8201,B4,687.75,0.25,36,162.2
8202,E4,687.75,0.25,31,162.2
8203,E5,688.0,0.25,36,162.2
8204,E3,688.0,0.25,35,162.2
8205,E6,688.25,1.0,49,162.2
8206,G#5,688.25,0.25,36,162.2
8207,G#4,688.25,0.25,31,162.2
8208,E5,688.5,0.25,36,162.2
8209,F3,688.5,0.25,35,162.2
8210,A5,688.75,0.25,40,162.2
8211,A4,688.75,0.25,31,162.2
8212,E5,689.0,0.25,36,162.2
8213,F#3,689.0,0.25,35,162.2
8214,B-5,689.25,0.25,42,162.2
8215,B-4,689.25,0.25,31,162.2
8216,E5,689.5,0.25,36,162.2
8217,G3,689.5,0.25,36,162.2
8218,B5,689.75,0.25,42,162.2
8219,B4,689.75,0.25,31,162.2
8220,E5,690.0,0.25,36,162.2
8221,G#3,690.0,0.25,36,162.2
8222,C6,690.25,0.25,42,162.2
8223,C5,690.25,0.25,31,162.2
8224,E5,690.5,0.25,36,162.2
8225,A2,690.5,0.25,38,162.2
8226,C#5,690.75,0.25,36,162.2
8227,E3,690.75,0.25,31,162.2
8228,A5,690.75,1.0,44,162.2
8229,C#6,690.75,1.0,44,162.2
8230,E5,691.0,0.25,36,162.2
8231,C#4,691.0,0.25,34,162.2
8232,F#5,691.25,0.25,39,162.2
8233,E4,691.25,0.25,31,162.2
8234,E5,691.5,0.25,36,162.2
8235,A3,691.5,0.25,36,162.2
8236,C#5,691.75,0.25,36,162.2
8237,C#4,691.75,0.25,31,162.2
8238,E5,692.0,0.25,36,162.2
8239,D3,692.0,0.25,35,162.2
8240,D5,692.25,0.25,36,162.2
8241,B3,692.25,0.25,31,162.2
8242,B5,692.25,0.5,45,162.2
8243,D6,692.25,0.5,45,162.2
8244,F#5,692.5,0.25,36,162.2
8245,D4,692.5,0.25,34,162.2
8246,G#5,692.75,0.25,39,162.2
8247,F#4,692.75,0.25,31,162.2
8248,F#6,692.75,0.5,42,162.2
8249,D6,692.75,0.5,42,162.2
8250,F#5,693.0,0.25,36,162.2
8251,B3,693.0,0.25,31,162.2
8252,D5,693.25,0.25,36,162.2
8253,D4,693.25,0.25,31,162.2
8254,B5,693.25,0.5,42,162.2
8255,D6,693.25,0.5,42,162.2
8256,F#5,693.5,0.25,36,162.2
8257,E3,693.5,0.25,38,162.2
8258,C#5,693.75,0.25,36,162.2
8259,C#4,693.75,0.25,31,162.2
8260,C#6,693.75,0.5,48,162.2
8261,A5,693.75,0.5,48,162.2
8262,E5,694.0,0.25,36,162.2
8263,A4,694.0,0.25,34,162.2
8264,F#5,694.25,0.25,39,162.2
8265,C#5,694.25,0.25,31,162.2
8266,E6,694.25,0.5,44,162.2
8267,C#6,694.25,0.5,44,162.2
8268,E5,694.5,0.25,36,162.2
8269,E4,694.5,0.25,36,162.2
8270,C#5,694.75,0.25,36,162.2
8271,A4,694.75,0.25,31,162.2
8272,A5,694.75,0.5,44,162.2
8273,C#6,694.75,0.5,44,162.2
8274,E5,695.0,0.25,36,162.2
8275,E3,695.0,0.25,35,162.2
8276,B4,695.25,0.25,36,162.2
8277,D4,695.25,0.25,31,162.2
8278,B5,695.25,0.5,49,162.2
8279,G#5,695.25,0.5,49,162.2
8280,E5,695.5,0.25,36,162.2
8281,G#4,695.5,0.25,34,162.2
8282,F5,695.75,0.25,39,162.2
8283,B4,695.75,0.25,31,162.2
8284,B5,695.75,0.5,44,162.2
8285,D6,695.75,0.5,44,162.2
8286,E5,696.0,0.25,36,162.2
8287,D4,696.0,0.25,31,162.2
8288,B4,696.25,0.25,36,162.2
8289,G#4,696.25,0.25,31,162.2
8290,B5,696.25,0.5,44,162.2
8291,G#5,696.25,0.5,44,162.2
8292,E5,696.5,0.25,36,162.2
8293,A2,696.5,0.25,39,162.2
8294,E3,696.5,0.25,39,162.2
8295,A3,696.5,0.25,39,162.2
8296,C#5,696.75,0.25,49,162.2
8297,A4,696.75,0.25,49,162.2
8298,A5,696.75,0.25,49,162.2
8299,C#5,697.5,0.25,49,162.2
8300,A3,697.906,0.312,41,162.2
8301,E4,697.906,0.312,41,162.2
8302,G4,697.969,0.25,46,162.2
8303,C#5,697.969,0.25,46,162.2
8304,A5,698.438,0.125,43,162.2
8305,C#6,698.625,0.125,44,162.2
8306,B4,698.75,0.125,49,162.2
8307,A6,698.812,0.125,45,162.2
8308,A6,699.0,0.125,46,162.2
8309,C#5,699.0,0.25,46,162.2
8310,C#6,699.188,0.125,45,162.2
8311,A5,699.375,0.125,44,162.2
8312,D4,699.438,0.062,43,162.2
8313,F#4,699.438,0.062,43,162.2
8314,D5,699.5,0.25,54,162.2
8315,D4,699.5,0.219,43,162.2
8316,F#4,699.5,0.219,43,162.2
8317,C#5,699.562,0.125,44,162.2
8318,A5,699.938,0.125,43,162.2
8319,D6,700.125,0.125,44,162.2
8320,E5,700.25,0.125,45,162.2
8321,A6,700.312,0.125,45,162.2
8322,A6,700.5,0.125,46,162.2
8323,D5,700.5,0.188,48,162.2
8324,D6,700.688,0.125,45,162.2
8325,A5,700.875,0.125,44,162.2
8326,A3,700.906,0.312,41,162.2
8327,E4,700.906,0.312,41,162.2
8328,G4,700.969,0.25,46,162.2
8329,C#5,700.969,0.25,46,162.2
8330,D5,701.062,0.125,44,162.2
8331,A5,701.438,0.125,43,162.2
8332,C#6,701.625,0.125,44,162.2
8333,B4,701.75,0.125,49,162.2
8334,A6,701.812,0.125,45,162.2
8335,A6,702.0,0.125,46,162.2
8336,C#5,702.0,0.25,46,162.2
8337,C#6,702.188,0.125,45,162.2
8338,A5,702.375,0.125,44,162.2
8339,D4,702.5,0.25,47,162.2
8340,D5,702.5,0.25,47,162.2
8341,F#4,702.5,0.25,47,162.2
8342,C#5,702.562,0.125,44,162.2
8343,A4,703.75,0.125,31,162.2
8344,F#4,703.75,0.125,31,162.2
8345,B4,703.875,0.125,32,162.2
8346,G4,703.875,0.125,32,162.2
8347,C#5,704.0,0.125,34,162.2
8348,A4,704.0,0.125,34,162.2
8349,D5,704.125,0.125,34,162.2
8350,B4,704.125,0.125,34,162.2
8351,E5,704.25,0.125,36,162.2
8352,C#5,704.25,0.125,36,162.2
8353,F#5,704.375,0.125,37,162.2
8354,D5,704.375,0.125,37,162.2
8355,G5,704.5,0.125,38,162.2
8356,E5,704.5,0.125,38,162.2
8357,A5,704.625,0.125,40,162.2
8358,F#5,704.625,0.125,40,162.2
8359,B5,704.75,0.125,40,162.2
8360,G5,704.75,0.125,40,162.2
8361,C#6,704.875,0.125,42,162.2
8362,A5,704.875,0.125,42,162.2
8363,D6,705.0,0.125,44,162.2
8364,B5,705.0,0.125,44,162.2
8365,E6,705.125,0.125,44,162.2
8366,C#6,705.125,0.125,44,162.2
8367,F#6,705.25,0.125,45,162.2
8368,D6,705.25,0.125,45,162.2
8369,E3,706.438,0.062,43,162.2
8370,C#4,706.438,0.062,43,162.2
8371,A4,706.5,0.25,54,162.2
8372,E3,706.5,0.219,43,162.2
8373,C#4,706.5,0.219,43,162.2
8374,E5,706.938,0.125,43,162.2
8375,A5,707.125,0.125,44,162.2
8376,B4,707.25,0.125,45,162.2
8377,E6,707.312,0.125,45,162.2
8378,E6,707.5,0.125,46,162.2
8379,A4,707.5,0.188,48,162.2
8380,A5,707.688,0.125,45,162.2
8381,E5,707.875,0.125,44,162.2
8382,E3,707.906,0.312,41,162.2
8383,B3,707.906,0.312,41,162.2
8384,D4,707.969,0.25,46,162.2
8385,G#4,707.969,0.25,46,162.2
8386,A4,708.062,0.125,44,162.2
8387,E5,708.438,0.125,43,162.2
8388,G#5,708.625,0.125,44,162.2
8389,F#4,708.75,0.125,49,162.2
8390,E6,708.812,0.125,45,162.2
8391,E6,709.0,0.125,46,162.2
8392,G#4,709.0,0.25,46,162.2
8393,G#5,709.188,0.125,45,162.2
8394,E5,709.375,0.125,44,162.2
8395,A3,709.5,0.25,47,162.2
8396,A4,709.5,0.25,47,162.2
8397,C#4,709.5,0.25,47,162.2
8398,G#4,709.562,0.125,44,162.2
8399,D7,710.75,0.125,31,162.2
8400,F#6,710.75,0.125,31,162.2
8401,C#7,710.875,0.125,32,162.2
8402,E6,710.875,0.125,32,162.2
8403,B6,711.0,0.125,34,162.2
8404,D6,711.0,0.125,34,162.2
8405,A6,711.125,0.125,34,162.2
8406,C#6,711.125,0.125,34,162.2
8407,G#6,711.25,0.125,36,162.2
8408,B5,711.25,0.125,36,162.2
8409,F#6,711.375,0.125,37,162.2
8410,A5,711.375,0.125,37,162.2
8411,E6,711.5,0.125,38,162.2
8412,G#5,711.5,0.125,38,162.2
8413,D6,711.625,0.125,40,162.2
8414,F#5,711.625,0.125,40,162.2
8415,C#6,711.75,0.125,40,162.2
8416,E5,711.75,0.125,40,162.2
8417,B5,711.875,0.125,42,162.2
8418,D5,711.875,0.125,42,162.2
8419,A5,712.0,0.125,44,162.2
8420,C#5,712.0,0.125,44,162.2
8421,G#5,712.125,0.125,44,162.2
8422,B4,712.125,0.125,44,162.2
8423,F#5,712.25,0.125,45,162.2
8424,A4,712.25,0.125,45,162.2
8425,G#4,712.375,0.125,45,162.2
8426,E5,712.375,0.125,45,162.2
8427,A2,712.406,0.312,41,162.2
8428,E3,712.406,0.312,41,162.2
8429,G3,712.469,0.25,49,162.2
8430,C#4,712.469,0.25,49,162.2
8431,F#4,712.5,0.125,41,162.2
8432,D5,712.5,0.125,41,162.2
8433,A4,712.938,0.125,43,162.2
8434,C#5,713.125,0.125,44,162.2
8435,B3,713.25,0.125,54,162.2
8436,A5,713.312,0.125,45,162.2
8437,A5,713.5,0.125,46,162.2
8438,C#4,713.5,0.25,51,162.2
8439,C#5,713.688,0.125,45,162.2
8440,A4,713.875,0.125,44,162.2
8441,D3,714.0,0.25,48,162.2
8442,F#3,714.0,0.25,48,162.2
8443,D4,714.0,0.25,48,162.2
8444,C#4,714.062,0.125,44,162.2
8445,A4,714.438,0.125,43,162.2
8446,D5,714.625,0.125,44,162.2
8447,E4,714.75,0.125,50,162.2
8448,A5,714.812,0.125,45,162.2
8449,A5,715.0,0.125,46,162.2
8450,D4,715.0,0.188,53,162.2
8451,D5,715.188,0.125,45,162.2
8452,A4,715.375,0.125,44,162.2
8453,A2,715.5,0.25,45,162.2
8454,E3,715.5,0.25,45,162.2
8455,G3,715.5,0.25,45,162.2
8456,C#4,715.5,0.25,45,162.2
8457,D4,715.562,0.125,44,162.2
8458,A4,715.938,0.125,43,162.2
8459,C#5,716.125,0.125,44,162.2
8460,B3,716.25,0.125,54,162.2
8461,A5,716.312,0.125,45,162.2
8462,A5,716.5,0.125,46,162.2
8463,C#4,716.5,0.25,51,162.2
8464,C#5,716.688,0.125,45,162.2
8465,A4,716.875,0.125,44,162.2
8466,D3,717.0,0.25,48,162.2
8467,F#3,717.0,0.25,48,162.2
8468,D4,717.0,0.25,48,162.2
8469,C#4,717.062,0.125,44,162.2
8470,A4,718.25,0.125,30,162.2
8471,F#4,718.25,0.125,30,162.2
8472,B-4,718.375,0.125,31,162.2
8473,G4,718.375,0.125,31,162.2
8474,B4,718.5,0.125,33,162.2
8475,G#4,718.5,0.125,33,162.2
8476,C5,718.625,0.125,33,162.2
8477,A4,718.625,0.125,33,162.2
8478,C#5,718.75,0.125,35,162.2
8479,B-4,718.75,0.125,35,162.2
8480,D5,718.875,0.125,36,162.2
8481,B4,718.875,0.125,36,162.2
8482,E-5,719.0,0.125,38,162.2
8483,C5,719.0,0.125,38,162.2
8484,E5,719.125,0.125,38,162.2
8485,C#5,719.125,0.125,38,162.2
8486,F5,719.25,0.125,40,162.2
8487,D5,719.25,0.125,40,162.2
8488,F#5,719.375,0.125,41,162.2
8489,E-5,719.375,0.125,41,162.2
8490,G5,719.5,0.125,42,162.2
8491,E5,719.5,0.125,42,162.2
8492,G#5,719.625,0.125,44,162.2
8493,F5,719.625,0.125,44,162.2
8494,A5,719.75,0.125,45,162.2
8495,F#5,719.75,0.125,45,162.2
8496,B-5,719.875,0.125,46,162.2
8497,G5,719.875,0.125,46,162.2
8498,B5,720.0,0.125,48,162.2
8499,G#5,720.0,0.125,48,162.2
8500,C6,720.125,0.125,49,162.2
8501,A5,720.125,0.125,49,162.2
8502,C#6,720.25,0.125,50,162.2
8503,B-5,720.25,0.125,50,162.2
8504,D6,720.375,0.125,50,162.2
8505,B5,720.375,0.125,50,162.2
8506,E-6,720.5,0.125,52,162.2
8507,C6,720.5,0.125,52,162.2
8508,E6,720.625,0.125,54,162.2
8509,C#6,720.625,0.125,54,162.2
8510,F#6,720.75,0.125,55,162.2
8511,D6,720.75,0.125,55,162.2
8512,E2,720.938,0.062,43,162.2
8513,C#3,720.938,0.062,43,162.2
8514,A3,721.0,0.25,55,162.2
8515,E2,721.0,0.219,43,162.2
8516,C#3,721.0,0.219,43,162.2
8517,E4,721.438,0.125,43,162.2
8518,A4,721.625,0.125,44,162.2
8519,B3,721.75,0.125,50,162.2
8520,E5,721.812,0.125,45,162.2
8521,E5,722.0,0.125,46,162.2
8522,A3,722.0,0.188,53,162.2
8523,A4,722.188,0.125,45,162.2
8524,E4,722.375,0.125,44,162.2
8525,E2,722.406,0.312,41,162.2
8526,B2,722.406,0.312,41,162.2
8527,D3,722.469,0.25,48,162.2
8528,G#3,722.469,0.25,48,162.2
8529,A3,722.562,0.125,44,162.2
8530,E4,722.938,0.125,43,162.2
8531,G#4,723.125,0.125,44,162.2
8532,F#3,723.25,0.125,54,162.2
8533,E5,723.312,0.125,45,162.2
8534,E5,723.5,0.125,46,162.2
8535,G#3,723.5,0.25,51,162.2
8536,G#4,723.688,0.125,45,162.2
8537,E4,723.875,0.125,44,162.2
8538,A2,724.0,0.25,47,162.2
8539,C#3,724.0,0.25,47,162.2
8540,A3,724.0,0.25,47,162.2
8541,G#3,724.062,0.125,44,162.2
8542,D7,725.25,0.125,30,162.2
8543,F#6,725.25,0.125,30,162.2
8544,C#7,725.375,0.125,31,162.2
8545,F6,725.375,0.125,31,162.2
8546,C7,725.5,0.125,33,162.2
8547,E6,725.5,0.125,33,162.2
8548,B6,725.625,0.125,33,162.2
8549,E-6,725.625,0.125,33,162.2
8550,B-6,725.75,0.125,35,162.2
8551,D6,725.75,0.125,35,162.2
8552,A6,725.875,0.125,36,162.2
8553,C#6,725.875,0.125,36,162.2
8554,G#6,726.0,0.125,38,162.2
8555,C6,726.0,0.125,38,162.2
8556,G6,726.125,0.125,38,162.2
8557,B5,726.125,0.125,38,162.2
8558,F#6,726.25,0.125,40,162.2
8559,B-5,726.25,0.125,40,162.2
8560,F6,726.375,0.125,41,162.2
8561,A5,726.375,0.125,41,162.2
8562,E6,726.5,0.125,42,162.2
8563,G#5,726.5,0.125,42,162.2
8564,E-6,726.625,0.125,44,162.2
8565,G5,726.625,0.125,44,162.2
8566,D6,726.75,0.125,45,162.2
8567,F#5,726.75,0.125,45,162.2
8568,C#6,726.875,0.125,46,162.2
8569,F5,726.875,0.125,46,162.2
8570,C6,727.0,0.125,48,162.2
8571,E5,727.0,0.125,48,162.2
8572,B5,727.125,0.125,49,162.2
8573,E-5,727.125,0.125,49,162.2
8574,D5,727.25,0.125,50,162.2
8575,B-5,727.25,0.125,50,162.2
8576,C#5,727.375,0.125,50,162.2
8577,A5,727.375,0.125,50,162.2
8578,C5,727.5,0.125,50,162.2
8579,G#5,727.5,0.125,50,162.2
8580,B4,727.625,0.125,52,162.2
8581,G5,727.625,0.125,52,162.2
8582,B-4,727.75,1/10,54,162.2
8583,F#5,727.75,1/10,54,162.2
8584,A4,727.85,1/10,54,162.2
8585,F5,727.85,1/10,54,162.2
8586,G#4,727.95,1/10,52,162.2
8587,E5,727.95,1/10,52,162.2
8588,F#4,728.05,1/10,54,162.2
8589,E-5,728.05,1/10,54,162.2
8590,F4,728.15,1/10,56,162.2
8591,D5,728.15,1/10,56,162.2
8592,E5,728.25,0.125,63,162.2
8593,E4,728.25,0.125,63,162.2
8594,C#5,728.25,0.125,63,162.2
8595,A3,728.5,0.25,52,162.2
8596,E2,728.5,0.25,52,162.2
8597,C#3,728.5,0.25,52,162.2
8598,C#4,728.75,0.25,55,162.2
8599,C#5,728.75,0.5,60,162.2
8600,A4,728.75,0.5,60,162.2
8601,E4,729.0,0.25,47,162.2
8602,C#5,729.25,0.25,48,162.2
8603,A4,729.25,0.25,48,162.2
8604,D4,729.25,0.125,44,162.2
8605,B3,729.25,0.125,44,162.2
8606,E5,729.5,0.25,55,162.2
8607,C#4,729.5,0.188,47,162.2
8608,A3,729.5,0.188,47,162.2
8609,C#6,729.75,0.25,54,162.2
8610,A5,729.75,0.25,54,162.2
8611,B3,730.0,0.25,48,162.2
8612,E3,730.0,0.25,48,162.2
8613,G#3,730.0,0.25,48,162.2
8614,B4,730.25,0.25,54,162.2
8615,B5,730.25,0.5,59,162.2
8616,G#5,730.25,0.5,59,162.2
8617,E5,730.5,0.25,52,162.2
8618,B5,730.75,0.25,50,162.2
8619,G#5,730.75,0.25,50,162.2
8620,A3,730.75,0.125,46,162.2
8621,F#3,730.75,0.125,46,162.2
8622,E5,731.0,0.25,57,162.2
8623,B3,731.0,0.25,48,162.2
8624,G#3,731.0,0.25,48,162.2
8625,B6,731.25,0.25,56,162.2
8626,G#6,731.25,0.25,56,162.2
8627,A2,731.406,0.094,55,162.2
8628,E3,731.406,0.094,55,162.2
8629,A3,731.469,0.031,55,162.2
8630,C#4,731.469,0.031,55,162.2
8631,A2,731.5,0.219,55,162.2
8632,E3,731.5,0.219,55,162.2
8633,A3,731.5,0.219,55,162.2
8634,C#4,731.5,0.219,55,162.2
8635,C#7,731.75,0.25,65,162.2
8636,A6,731.75,0.25,65,162.2
8637,C#6,731.75,0.25,65,162.2
8638,A1,732.5,0.125,31,162.2
8639,B1,732.625,0.125,32,162.2
8640,C#2,732.75,0.125,33,162.2
8641,E7,732.75,0.125,30,162.2
8642,C#7,732.75,0.125,30,162.2
8643,B6,732.875,0.125,34,162.2
8644,D2,732.875,0.125,34,162.2
8645,A6,733.0,0.125,36,162.2
8646,E2,733.0,0.125,35,162.2
8647,G#6,733.125,0.125,36,162.2
8648,F#2,733.125,0.125,36,162.2
8649,F#6,733.25,0.125,38,162.2
8650,G#2,733.25,0.125,37,162.2
8651,E6,733.375,0.125,39,162.2
8652,A2,733.375,0.125,38,162.2
8653,D6,733.5,0.125,41,162.2
8654,B2,733.5,0.125,39,162.2
8655,C#6,733.625,0.125,42,162.2
8656,C#3,733.625,0.125,40,162.2
8657,B5,733.75,0.125,44,162.2
8658,D3,733.75,0.125,41,162.2
8659,A5,733.875,0.125,45,162.2
8660,E3,733.875,0.125,43,162.2
8661,G#5,734.0,0.125,46,162.2
8662,F#3,734.0,0.125,44,162.2
8663,F#5,734.125,0.125,47,162.2
8664,G#3,734.125,0.125,45,162.2
8665,E5,734.25,0.125,49,162.2
8666,A3,734.25,0.125,45,162.2
8667,D5,734.375,0.125,50,162.2
8668,B3,734.375,0.125,46,162.2
8669,C#5,734.5,0.125,52,162.2
8670,C#4,734.5,167/1000,47,162.2
8671,B4,734.625,0.125,53,162.2
8672,D4,734.667,167/1000,49,162.2
8673,A4,734.75,167/1000,54,162.2
8674,E-4,734.833,167/1000,51,162.2
8675,G#4,734.917,167/1000,55,162.2
8676,F#4,735.083,167/1000,57,162.2
8677,E4,735.25,0.125,61,162.2
8678,C#5,735.25,0.125,61,162.2
8679,E5,735.25,0.125,61,162.2
8680,A3,735.5,0.25,52,162.2
8681,E2,735.5,0.25,52,162.2
8682,C#3,735.5,0.25,52,162.2
8683,C#4,735.75,0.25,55,162.2
8684,C#5,735.75,0.5,60,162.2
8685,A4,735.75,0.5,60,162.2
8686,E4,736.0,0.25,47,162.2
8687,C#5,736.25,0.25,48,162.2
8688,A4,736.25,0.25,48,162.2
8689,D4,736.25,0.125,44,162.2
8690,B3,736.25,0.125,44,162.2
8691,E5,736.5,0.25,55,162.2
8692,C#4,736.5,0.188,47,162.2
8693,A3,736.5,0.188,47,162.2
8694,C#6,736.75,0.25,54,162.2
8695,A5,736.75,0.25,54,162.2
8696,B3,737.0,0.25,48,162.2
8697,E3,737.0,0.25,48,162.2
8698,G#3,737.0,0.25,48,162.2
8699,B4,737.25,0.25,54,162.2
8700,B5,737.25,0.5,59,162.2
8701,G#5,737.25,0.5,59,162.2
8702,E5,737.5,0.25,52,162.2
8703,B5,737.75,0.25,50,162.2
8704,G#5,737.75,0.25,50,162.2
8705,A3,737.75,0.125,46,162.2
8706,F#3,737.75,0.125,46,162.2
8707,E5,738.0,0.25,57,162.2
8708,B3,738.0,0.25,48,162.2
8709,G#3,738.0,0.25,48,162.2
8710,B6,738.25,0.25,56,162.2
8711,G#6,738.25,0.25,56,162.2
8712,A2,738.406,0.094,55,162.2
8713,E3,738.406,0.094,55,162.2
8714,A3,738.469,0.031,55,162.2
8715,C#4,738.469,0.031,55,162.2
8716,A2,738.5,0.219,55,162.2
8717,E3,738.5,0.219,55,162.2
8718,A3,738.5,0.219,55,162.2
8719,C#4,738.5,0.219,55,162.2
8720,C#7,738.75,0.25,65,162.2
8721,A6,738.75,0.25,65,162.2
8722,C#6,738.75,0.25,65,162.2
8723,F#4,739.5,0.125,36,162.2
8724,E4,739.625,0.125,36,162.2
8725,E-5,739.75,0.125,43,162.2
8726,D4,739.75,0.125,37,162.2
8727,E5,739.875,0.125,45,162.2
8728,C#4,739.875,0.125,38,162.2
8729,F#5,740.0,0.125,46,162.2
8730,B3,740.0,0.125,40,162.2
8731,G#5,740.125,0.125,48,162.2
8732,A3,740.125,0.125,41,162.2
8733,A5,740.25,0.125,50,162.2
8734,G#3,740.25,0.125,42,162.2
8735,B5,740.375,0.125,51,162.2
8736,F#3,740.375,0.125,43,162.2
8737,C#6,740.5,0.125,53,162.2
8738,E3,740.5,0.125,44,162.2
8739,D6,740.625,0.125,54,162.2
8740,D3,740.625,0.125,45,162.2
8741,E6,740.75,0.125,56,162.2
8742,C#3,740.75,0.125,45,162.2
8743,F#6,740.875,0.125,58,162.2
8744,B2,740.875,0.125,46,162.2
8745,G#6,741.0,0.125,60,162.2
8746,A2,741.0,167/1000,47,162.2
8747,A6,741.125,0.125,62,162.2
8748,G#2,741.167,167/1000,49,162.2
8749,B6,741.25,167/1000,63,162.2
8750,F#2,741.333,167/1000,50,162.2
8751,C#7,741.417,17/1000,65,162.2
8752,E3,741.5,0.125,56,162.2
8753,E2,741.5,0.125,56,162.2
8754,C#3,741.5,0.125,56,162.2
8755,D7,741.583,167/1000,68,162.2
8756,C#7,741.75,0.125,80,162.2
8757,E7,741.75,0.125,80,162.2
8758,E6,741.75,0.125,80,162.2
8759,E2,742.0,0.25,61,162.2
8760,C#3,742.0,0.25,61,162.2
8761,E3,742.0,0.25,61,162.2
8762,A2,742.0,0.25,61,162.2
8763,E6,742.25,0.25,76,162.2
8764,E7,742.25,0.25,76,162.2
8765,A6,742.25,0.25,76,162.2
8766,C#7,742.25,0.25,76,162.2
8767,E3,742.75,0.125,58,162.2
8768,E2,742.75,0.125,58,162.2
8769,B2,742.75,0.125,58,162.2
8770,D3,742.75,0.125,58,162.2
8771,E7,743.0,0.125,74,162.2
8772,B6,743.0,0.125,74,162.2
8773,D7,743.0,0.125,74,162.2
8774,E6,743.0,0.125,74,162.2
8775,E3,743.0,0.188,58,162.2
8776,E2,743.0,0.188,58,162.2
8777,A2,743.0,0.188,58,162.2
8778,C#3,743.0,0.188,58,162.2
8779,E6,743.25,0.25,72,162.2
8780,C#7,743.25,0.25,72,162.2
8781,E7,743.25,0.25,72,162.2
8782,A6,743.25,0.25,72,162.2
8783,E2,743.5,0.25,63,162.2
8784,E3,743.5,0.25,63,162.2
8785,B2,743.5,0.25,63,162.2
8786,G#2,743.5,0.25,63,162.2
8787,E6,743.75,0.25,76,162.2
8788,G#6,743.75,0.25,76,162.2
8789,E7,743.75,0.25,76,162.2
8790,B6,743.75,0.25,76,162.2
8791,E3,744.25,0.125,55,162.2
8792,E2,744.25,0.125,55,162.2
8793,F#2,744.25,0.125,55,162.2
8794,A2,744.25,0.125,55,162.2
8795,F#6,744.5,0.125,71,162.2
8796,E6,744.5,0.125,71,162.2
8797,A6,744.5,0.125,71,162.2
8798,E7,744.5,0.125,71,162.2
8799,E2,744.5,0.25,55,162.2
8800,E3,744.5,0.25,55,162.2
8801,B2,744.5,0.25,55,162.2
8802,G#2,744.5,0.25,55,162.2
8803,E7,744.75,0.25,71,162.2
8804,E6,744.75,0.25,71,162.2
8805,G#6,744.75,0.25,71,162.2
8806,B6,744.75,0.25,71,162.2
8807,A2,745.0,1.0,58,162.2
8808,E2,745.0,1.0,58,162.2
8809,C#2,745.0,1.0,58,162.2
8810,A1,745.0,1.0,58,162.2
8811,C#7,745.25,1.0,75,162.2
8812,A6,745.25,1.0,75,162.2
8813,E7,745.25,1.0,75,162.2
8814,E6,745.25,1.0,75,162.2
8815,E4,746.5,0.125,33,162.2
8816,E3,746.5,0.125,33,162.2
8817,B4,746.75,0.125,41,162.2
8818,G#4,746.75,0.125,41,162.2
8819,E4,747.25,0.062,30,162.2
8820,E3,747.25,0.062,30,162.2
8821,A4,747.5,0.062,38,162.2
8822,F#4,747.5,0.062,38,162.2
8823,E4,747.5,0.125,30,162.2
8824,E3,747.5,0.125,30,162.2
8825,B4,747.75,0.125,38,162.2
8826,G#4,747.75,0.125,38,162.2
8827,E4,748.0,0.125,33,162.2
8828,A3,748.0,0.125,33,162.2
8829,C#5,748.25,0.125,41,162.2
8830,A4,748.25,0.125,41,162.2
8831,E4,748.75,0.062,32,162.2
8832,A3,748.75,0.062,32,162.2
8833,D5,749.0,0.062,40,162.2
8834,B4,749.0,0.062,40,162.2
8835,E4,749.0,0.125,32,162.2
8836,A3,749.0,0.125,32,162.2
8837,C#5,749.25,0.125,40,162.2
8838,A4,749.25,0.125,40,162.2
8839,E4,749.5,0.125,33,162.2
8840,E3,749.5,0.125,33,162.2
8841,B4,749.75,0.125,41,162.2
8842,G#4,749.75,0.125,41,162.2
8843,E4,750.25,0.062,31,162.2
8844,E3,750.25,0.062,31,162.2
8845,A4,750.5,0.062,37,162.2
8846,F#4,750.5,0.062,37,162.2
8847,E4,750.5,0.125,31,162.2
8848,E3,750.5,0.125,31,162.2
8849,B4,750.75,0.125,37,162.2
8850,G#4,750.75,0.125,37,162.2
8851,C#4,751.0,0.5,33,162.2
8852,A3,751.0,0.5,33,162.2
8853,A4,751.25,0.5,41,162.2
8854,E4,751.25,0.5,41,162.2
8855,E2,752.5,0.75,63,162.2
8856,E3,752.5,0.75,63,162.2
8857,B2,752.5,0.75,63,162.2
8858,G#2,752.5,0.75,63,162.2
8859,G#5,752.75,0.75,76,162.2
8860,B5,752.75,0.75,76,162.2
8861,E6,752.75,0.75,76,162.2
8862,E5,752.75,0.75,76,162.2
8863,E3,753.25,0.25,55,162.2
8864,E2,753.25,0.25,55,162.2
8865,F#2,753.25,0.25,55,162.2
8866,A2,753.25,0.25,55,162.2
8867,E6,753.5,0.25,71,162.2
8868,E5,753.5,0.25,71,162.2
8869,F#5,753.5,0.25,71,162.2
8870,A5,753.5,0.25,71,162.2
8871,E2,753.5,0.5,55,162.2
8872,E3,753.5,0.5,55,162.2
8873,B2,753.5,0.5,55,162.2
8874,G#2,753.5,0.5,55,162.2
8875,E6,753.75,0.5,71,162.2
8876,E5,753.75,0.5,71,162.2
8877,G#5,753.75,0.5,71,162.2
8878,B5,753.75,0.5,71,162.2
8879,A2,754.0,0.75,54,162.2
8880,C#3,754.0,0.75,54,162.2
8881,E3,754.0,0.75,54,162.2
8882,E6,754.25,0.75,76,162.2
8883,A5,754.25,0.75,76,162.2
8884,E5,754.25,0.75,76,162.2
8885,C#6,754.25,0.75,76,162.2
8886,E3,754.75,0.25,59,162.2
8887,B2,754.75,0.25,59,162.2
8888,D3,754.75,0.25,59,162.2
8889,D6,755.0,0.25,74,162.2
8890,E6,755.0,0.25,74,162.2
8891,B5,755.0,0.25,74,162.2
8892,E5,755.0,0.25,74,162.2
8893,E3,755.0,0.5,59,162.2
8894,A2,755.0,0.5,59,162.2
8895,C#3,755.0,0.5,59,162.2
8896,E6,755.25,0.5,72,162.2
8897,E5,755.25,0.5,72,162.2
8898,C#6,755.25,0.5,72,162.2
8899,A5,755.25,0.5,72,162.2
8900,E2,755.5,0.75,63,162.2
8901,E3,755.5,0.75,63,162.2
8902,B2,755.5,0.75,63,162.2
8903,G#2,755.5,0.75,63,162.2
8904,G#5,755.75,0.75,76,162.2
8905,E6,755.75,0.75,76,162.2
8906,E5,755.75,0.75,76,162.2
8907,B5,755.75,0.75,76,162.2
8908,E3,756.25,0.25,55,162.2
8909,E2,756.25,0.25,55,162.2
8910,F#2,756.25,0.25,55,162.2
8911,A2,756.25,0.25,55,162.2
8912,E5,756.5,0.25,71,162.2
8913,F#5,756.5,0.25,71,162.2
8914,E6,756.5,0.25,71,162.2
8915,A5,756.5,0.25,71,162.2
8916,E2,756.5,0.5,55,162.2
8917,E3,756.5,0.5,55,162.2
8918,B2,756.5,0.5,55,162.2
8919,G#2,756.5,0.5,55,162.2
8920,E5,756.75,0.5,71,162.2
8921,G#5,756.75,0.5,71,162.2
8922,E6,756.75,0.5,71,162.2
8923,B5,756.75,0.5,71,162.2
8924,A2,757.0,0.375,58,162.2
8925,E2,757.0,0.375,58,162.2
8926,C#2,757.0,0.375,58,162.2
8927,A1,757.0,0.375,58,162.2
8928,A5,757.25,0.375,83,162.2
8929,C#6,757.25,0.375,83,162.2
8930,A6,757.25,0.375,83,162.2
8931,A4,758.0,0.125,49,162.2
8932,B4,758.25,0.125,49,162.2
8933,C#5,758.75,0.375,56,162.2
8934,A4,759.5,0.125,50,162.2
8935,G#4,759.808,0.125,50,162.2
8936,F#4,760.25,0.375,55,162.2
8937,D4,760.75,0.125,45,162.2
8938,E4,761.0,0.125,45,162.2
8939,B4,761.25,1.5,58,162.2
8940,F#4,761.5,0.375,54,162.2
8941,C#4,762.25,0.125,46,162.2
8942,E-4,762.5,0.125,46,162.2
8943,A4,762.75,0.125,52,162.2
8944,B3,763.0,0.375,51,162.2
8945,G#4,763.25,0.375,54,162.2
8946,F#4,763.25,0.375,54,162.2
8947,G#3,763.75,0.125,47,162.2
8948,C#4,764.0,0.125,47,162.2
8949,G#4,764.25,0.125,47,162.2
8950,E4,764.25,0.125,47,162.2
8951,C4,764.5,0.375,52,162.2
8952,E4,764.75,0.375,55,162.2
8953,A4,764.75,0.375,55,162.2
8954,F#3,765.25,0.125,46,162.2
8955,B2,765.5,0.125,46,162.2
8956,B4,765.75,0.125,48,162.2
8957,A3,765.75,0.125,48,162.2
8958,E-4,765.75,0.125,48,162.2
8959,E2,766.0,0.375,53,162.2
8960,E4,766.25,0.375,52,162.2
8961,G#3,766.25,0.375,52,162.2
8962,B3,766.75,0.125,44,162.2
8963,E3,766.75,0.125,44,162.2
8964,E5,767.0,0.125,45,162.2
8965,G#4,767.0,0.125,45,162.2
8966,B3,767.0,0.125,44,162.2
8967,F3,767.0,0.125,44,162.2
8968,E-5,767.25,0.125,45,162.2
8969,A4,767.25,0.125,45,162.2
8970,C4,767.5,0.375,47,162.2
8971,F#3,767.5,0.375,47,162.2
8972,D5,767.75,0.375,50,162.2
8973,A4,767.75,0.375,50,162.2
8974,B3,768.25,0.125,44,162.2
8975,G3,768.25,0.125,44,162.2
8976,D5,768.5,0.125,46,162.2
8977,F4,768.5,0.125,46,162.2
8978,D4,768.5,0.125,44,162.2
8979,G#3,768.5,0.125,44,162.2
8980,B4,768.75,0.125,48,162.2
8981,E4,768.75,0.125,48,162.2
8982,C#4,769.0,0.375,50,162.2
8983,A3,769.0,0.375,50,162.2
8984,A4,769.25,0.375,54,162.2
8985,E4,769.25,0.375,54,162.2
8986,A5,770.0,0.125,50,162.2
8987,A4,770.0,0.125,50,162.2
8988,B5,770.25,0.125,52,162.2
8989,B4,770.25,0.125,52,162.2
8990,A2,770.5,0.375,41,162.2
8991,C#4,770.5,0.375,41,162.2
8992,E3,770.5,0.375,41,162.2
8993,C#6,770.75,0.375,58,162.2
8994,C#5,770.75,0.375,58,162.2
8995,A5,771.5,0.125,50,162.2
8996,A4,771.5,0.125,50,162.2
8997,G#5,771.75,0.125,50,162.2
8998,G#4,771.75,0.125,50,162.2
8999,F#5,772.25,0.375,55,162.2
9000,F#4,772.25,0.375,55,162.2
9001,D4,772.75,0.125,44,162.2
9002,D3,772.75,0.125,44,162.2
9003,E4,773.0,0.125,48,162.2
9004,E3,773.0,0.125,48,162.2
9005,B5,773.25,1.5,57,162.2
9006,B4,773.25,1.5,57,162.2
9007,F#4,773.5,0.375,54,162.2
9008,F#3,773.5,0.375,54,162.2
9009,C#4,774.25,0.125,47,162.2
9010,C#3,774.25,0.125,47,162.2
9011,D4,774.5,0.125,48,162.2
9012,D3,774.5,0.125,48,162.2
9013,A5,774.75,0.125,46,162.2
9014,B4,774.75,0.125,46,162.2
9015,F#5,774.75,0.125,46,162.2
9016,A4,774.75,0.125,46,162.2
9017,B3,775.0,0.375,50,162.2
9018,E3,775.0,0.375,50,162.2
9019,A5,775.25,0.375,49,162.2
9020,A4,775.25,0.375,49,162.2
9021,D5,775.25,0.375,49,162.2
9022,E3,775.75,0.125,46,162.2
9023,B2,775.75,0.125,46,162.2
9024,E2,775.75,0.125,46,162.2
9025,G#5,776.0,0.125,46,162.2
9026,D5,776.0,0.125,46,162.2
9027,G#4,776.0,0.125,46,162.2
9028,F#3,776.0,0.125,46,162.2
9029,B2,776.0,0.125,46,162.2
9030,F#2,776.0,0.125,46,162.2
9031,F#5,776.25,0.125,46,162.2
9032,D5,776.25,0.125,46,162.2
9033,F#4,776.25,0.125,46,162.2
9034,G#3,776.5,0.375,50,162.2
9035,B2,776.5,0.375,50,162.2
9036,G#2,776.5,0.375,50,162.2
9037,E5,776.75,0.375,50,162.2
9038,D5,776.75,0.375,50,162.2
9039,E4,776.75,0.375,50,162.2
9040,E-3,777.25,0.125,45,162.2
9041,E-2,777.25,0.125,45,162.2
9042,F#5,777.5,0.125,48,162.2
9043,F#4,777.5,0.125,48,162.2
9044,E3,777.5,0.125,44,162.2
9045,B2,777.5,0.125,44,162.2
9046,E2,777.5,0.125,44,162.2
9047,G#5,777.75,0.125,47,162.2
9048,D5,777.75,0.125,47,162.2
9049,G#4,777.75,0.125,47,162.2
9050,C#3,778.0,0.375,48,162.2
9051,C#2,778.0,0.375,48,162.2
9052,E2,778.0,0.375,48,162.2
9053,A2,778.0,0.375,48,162.2
9054,A5,778.25,0.375,49,162.2
9055,A4,778.25,0.375,49,162.2
9056,C#5,778.25,0.375,49,162.2
9057,C#4,778.5,0.25,50,162.2
9058,A3,778.5,0.25,50,162.2
9059,E3,778.5,0.25,50,162.2
9060,C#6,778.75,0.25,54,162.2
9061,E5,778.75,0.25,54,162.2
9062,C#5,778.75,0.25,54,162.2
9063,E4,779.0,1.0,54,162.2
9064,C#4,779.0,1.0,54,162.2
9065,A3,779.0,1.0,54,162.2
9066,E6,779.25,1.0,60,162.2
9067,A5,779.25,1.0,60,162.2
9068,E5,779.25,1.0,60,162.2
9069,B3,780.0,0.125,51,162.2
9070,G#2,780.0,0.125,51,162.2
9071,E3,780.0,0.125,51,162.2
9072,B5,780.25,0.125,58,162.2
9073,E6,780.25,0.125,58,162.2
9074,E5,780.25,0.125,58,162.2
9075,C4,780.5,0.125,51,162.2
9076,E3,780.5,0.125,51,162.2
9077,G#2,780.5,0.125,51,162.2
9078,E6,780.75,0.125,58,162.2
9079,C6,780.75,0.125,58,162.2
9080,E5,780.75,0.125,58,162.2
9081,D4,781.0,0.375,56,162.2
9082,E3,781.0,0.375,56,162.2
9083,A2,781.0,0.375,56,162.2
9084,E6,781.25,0.375,64,162.2
9085,E5,781.25,0.375,64,162.2
9086,D6,781.25,0.375,64,162.2
9087,C#4,781.75,0.125,50,162.2
9088,E3,781.75,0.125,50,162.2
9089,A2,781.75,0.125,50,162.2
9090,E6,782.0,0.125,59,162.2
9091,C#6,782.0,0.125,59,162.2
9092,E5,782.0,0.125,59,162.2
9093,B3,782.0,0.125,50,162.2
9094,D3,782.0,0.125,50,162.2
9095,A2,782.0,0.125,50,162.2
9096,E6,782.25,0.125,59,162.2
9097,B5,782.25,0.125,59,162.2
9098,E5,782.25,0.125,59,162.2
9099,A3,782.5,0.5,57,162.2
9100,C#3,782.5,0.5,57,162.2
9101,E2,782.5,0.5,57,162.2
9102,E6,782.75,0.5,65,162.2
9103,A5,782.75,0.5,65,162.2
9104,E5,782.75,0.5,65,162.2
9105,C#4,783.25,0.125,50,162.2
9106,E3,783.25,0.125,50,162.2
9107,G#3,783.25,0.125,50,162.2
9108,E6,783.5,0.125,61,162.2
9109,C#6,783.5,0.125,61,162.2
9110,E5,783.5,0.125,61,162.2
9111,B3,783.5,0.125,50,162.2
9112,G#3,783.5,0.125,50,162.2
9113,D3,783.5,0.125,50,162.2
9114,E6,783.75,0.125,61,162.2
9115,B5,783.75,0.125,61,162.2
9116,E5,783.75,0.125,61,162.2
9117,A3,784.0,0.25,55,162.2
9118,A2,784.0,0.25,55,162.2
9119,C#3,784.0,0.25,55,162.2
9120,E6,784.25,0.25,66,162.2
9121,E5,784.25,0.25,66,162.2
9122,A5,784.25,0.25,66,162.2
9123,A2,784.75,0.125,54,162.2
9124,A1,784.75,0.125,54,162.2
9125,B2,785.0,0.125,55,162.2
9126,B1,785.0,0.125,55,162.2
9127,C#3,785.5,0.375,60,162.2
9128,C#2,785.5,0.375,60,162.2
9129,A2,786.25,0.125,54,162.2
9130,A1,786.25,0.125,54,162.2
9131,F2,786.5,0.125,54,162.2
9132,F1,786.5,0.125,54,162.2
9133,E2,787.0,0.375,63,162.2
9134,E1,787.0,0.375,63,162.2
9135,B5,787.25,0.375,54,162.2
9136,B4,787.25,0.375,54,162.2
9137,G#5,787.25,0.375,54,162.2
9138,B3,787.75,0.125,46,162.2
9139,G#3,787.75,0.125,46,162.2
9140,G#4,788.0,83/1000,42,162.2
9141,E4,788.0,83/1000,42,162.2
9142,G#3,788.0,0.125,46,162.2
9143,E3,788.0,0.125,46,162.2
9144,A4,788.083,83/1000,42,162.2
9145,F#4,788.083,83/1000,42,162.2
9146,B4,788.167,83/1000,46,162.2
9147,G#4,788.25,0.25,54,162.2
9148,E4,788.25,0.25,54,162.2
9149,E3,788.5,0.375,53,162.2
9150,E2,788.5,0.375,53,162.2
9151,A2,788.5,0.375,53,162.2
9152,E6,788.75,0.375,57,162.2
9153,C#6,788.75,0.375,57,162.2
9154,E5,788.75,0.375,57,162.2
9155,E4,789.25,0.125,47,162.2
9156,C#4,789.25,0.125,47,162.2
9157,C#5,789.5,83/1000,41,162.2
9158,A4,789.5,83/1000,41,162.2
9159,C#4,789.5,0.125,47,162.2
9160,A3,789.5,0.125,47,162.2
9161,E-5,789.583,83/1000,41,162.2
9162,B4,789.583,83/1000,41,162.2
9163,E5,789.667,83/1000,45,162.2
9164,C#5,789.75,0.25,52,162.2
9165,A4,789.75,0.25,52,162.2
9166,E3,790.0,0.5,55,162.2
9167,E2,790.0,0.5,55,162.2
9168,B2,790.0,0.5,55,162.2
9169,B5,790.25,0.5,54,162.2
9170,B4,790.25,0.5,54,162.2
9171,G#5,790.25,0.5,54,162.2
9172,B3,790.75,0.125,46,162.2
9173,G#3,790.75,0.125,46,162.2
9174,G#4,791.0,83/1000,42,162.2
9175,E4,791.0,83/1000,42,162.2
9176,G#3,791.0,0.125,46,162.2
9177,E3,791.0,0.125,46,162.2
9178,A4,791.083,83/1000,42,162.2
9179,F#4,791.083,83/1000,42,162.2
9180,B4,791.167,83/1000,46,162.2
9181,G#4,791.25,0.25,54,162.2
9182,E4,791.25,0.25,54,162.2
9183,B4,791.5,0.25,48,162.2
9184,G#4,791.5,0.25,48,162.2
9185,G#5,791.75,167/1000,42,162.2
9186,E5,791.75,167/1000,42,162.2
9187,A5,791.917,167/1000,42,162.2
9188,F#5,791.917,167/1000,42,162.2
9189,G#4,792.0,0.25,48,162.2
9190,E4,792.0,0.25,48,162.2
9191,B5,792.083,167/1000,46,162.2
9192,G#5,792.25,0.25,54,162.2
9193,E5,792.25,0.25,54,162.2
9194,B5,792.5,0.25,48,162.2
9195,E5,792.5,0.25,48,162.2
9196,G#6,792.75,167/1000,44,162.2
9197,E6,792.75,167/1000,44,162.2
9198,A6,792.917,167/1000,47,162.2
9199,F#6,792.917,167/1000,47,162.2
9200,B5,793.0,0.25,54,162.2
9201,E-5,793.0,0.25,54,162.2
9202,B-6,793.083,167/1000,50,162.2
9203,G6,793.083,167/1000,50,162.2
9204,B6,793.25,0.25,58,162.2
9205,F#6,793.25,0.25,58,162.2
9206,B4,793.5,167/1000,47,162.2
9207,C5,793.667,167/1000,47,162.2
9208,C#5,793.833,167/1000,47,162.2
9209,C5,794.0,0.25,53,162.2
9210,B6,794.0,0.125,48,162.2
9211,B5,794.0,0.125,48,162.2
9212,E-6,794.0,0.125,48,162.2
9213,B6,794.25,0.25,48,162.2
9214,B5,794.25,0.25,48,162.2
9215,E6,794.25,0.25,48,162.2
9216,C#4,794.5,167/1000,50,162.2
9217,D4,794.667,167/1000,50,162.2
9218,B-6,794.75,0.25,56,162.2
9219,B5,794.75,0.25,56,162.2
9220,E6,794.75,0.25,56,162.2
9221,E-4,794.833,167/1000,50,162.2
9222,D4,795.0,0.25,55,162.2
9223,B6,795.25,0.25,53,162.2
9224,B5,795.25,0.25,53,162.2
9225,F6,795.25,0.25,53,162.2
9226,C#3,795.5,167/1000,47,162.2
9227,D3,795.667,167/1000,47,162.2
9228,A6,795.75,0.25,53,162.2
9229,B5,795.75,0.25,53,162.2
9230,F#6,795.75,0.25,53,162.2
9231,E-3,795.833,167/1000,47,162.2
9232,E3,796.0,0.25,54,162.2
9233,G#6,796.25,0.25,59,162.2
9234,B5,796.25,0.25,59,162.2
9235,E6,796.25,0.25,59,162.2
9236,E4,796.5,71/500,38,162.2
9237,F#4,796.633,7/50,39,162.2
9238,G#4,796.75,0.125,54,162.2
9239,G#4,796.765,71/500,39,162.2
9240,A4,796.875,0.125,54,162.2
9241,F#4,796.921,71/500,41,162.2
9242,B4,797.0,0.125,54,162.2
9243,E4,797.031,7/50,41,162.2
9244,A4,797.125,0.125,55,162.2
9245,E-4,797.163,71/500,39,162.2
9246,G#4,797.25,0.125,54,162.2
9247,C#4,797.296,7/50,37,162.2
9248,A4,797.375,0.125,51,162.2
9249,B3,797.427,71/500,35,162.2
9250,B4,797.5,0.125,49,162.2
9251,A3,797.56,133/1000,36,162.2
9252,C#5,797.625,0.125,50,162.2
9253,G#3,797.694,7/50,36,162.2
9254,E-5,797.75,0.125,51,162.2
9255,F#3,797.825,71/500,38,162.2
9256,E5,797.875,0.125,52,162.2
9257,E3,797.958,7/50,39,162.2
9258,F#5,798.0,0.125,53,162.2
9259,E-3,798.09,71/500,40,162.2
9260,G#5,798.125,0.125,54,162.2
9261,C#3,798.223,71/500,41,162.2
9262,A5,798.25,0.125,55,162.2
9263,B2,798.356,7/50,42,162.2
9264,B5,798.375,0.125,56,162.2
9265,A2,798.487,71/500,43,162.2
9266,C#6,798.5,0.125,57,162.2
9267,G#2,798.621,7/50,45,162.2
9268,E-6,798.625,0.125,58,162.2
9269,E6,798.75,0.125,59,162.2
9270,F#2,798.75,0.125,45,162.2
9271,F#6,798.875,0.125,60,162.2
9272,G#6,799.0,0.125,61,162.2
9273,E2,799.0,0.375,58,162.2
9274,B2,799.0,0.375,58,162.2
9275,E3,799.0,0.375,58,162.2
9276,A6,799.125,0.125,62,162.2
9277,G#6,799.25,0.375,70,162.2
9278,G#5,799.25,0.375,70,162.2
9279,B5,799.25,0.375,70,162.2
9280,B3,799.75,0.125,41,162.2
9281,G#3,799.75,0.125,41,162.2
9282,G#4,800.0,83/1000,38,162.2
9283,E4,800.0,83/1000,38,162.2
9284,G#3,800.0,0.125,41,162.2
9285,E3,800.0,0.125,41,162.2
9286,A4,800.083,83/1000,38,162.2
9287,F#4,800.083,83/1000,38,162.2
9288,B4,800.167,83/1000,41,162.2
9289,G#4,800.25,0.25,49,162.2
9290,E4,800.25,0.25,49,162.2
9291,A2,800.5,0.5,48,162.2
9292,E2,800.5,0.5,48,162.2
9293,E3,800.5,0.5,48,162.2
9294,E6,800.75,0.5,51,162.2
9295,C#6,800.75,0.5,51,162.2
9296,E5,800.75,0.5,51,162.2
9297,E4,801.25,0.125,42,162.2
9298,C#4,801.25,0.125,42,162.2
9299,C#5,801.5,83/1000,36,162.2
9300,A4,801.5,83/1000,36,162.2
9301,A3,801.5,0.125,42,162.2
9302,C#4,801.5,0.125,42,162.2
9303,E-5,801.583,83/1000,36,162.2
9304,B4,801.583,83/1000,36,162.2
9305,E5,801.667,83/1000,40,162.2
9306,C#5,801.75,0.25,46,162.2
9307,A4,801.75,0.25,46,162.2
9308,E3,802.0,0.5,49,162.2
9309,E2,802.0,0.5,49,162.2
9310,B2,802.0,0.5,49,162.2
9311,B5,802.25,0.5,48,162.2
9312,B4,802.25,0.5,48,162.2
9313,G#5,802.25,0.5,48,162.2
9314,G#3,802.75,0.125,41,162.2
9315,B3,802.75,0.125,41,162.2
9316,G#4,803.0,83/1000,38,162.2
9317,E4,803.0,83/1000,38,162.2
9318,G#3,803.0,0.125,41,162.2
9319,E3,803.0,0.125,41,162.2
9320,A4,803.083,83/1000,38,162.2
9321,F#4,803.083,83/1000,38,162.2
9322,B4,803.167,83/1000,41,162.2
9323,G#4,803.25,0.25,49,162.2
9324,E4,803.25,0.25,49,162.2
9325,B4,803.5,0.25,43,162.2
9326,G#4,803.5,0.25,43,162.2
9327,G#5,803.75,167/1000,38,162.2
9328,E5,803.75,167/1000,38,162.2
9329,A5,803.917,167/1000,38,162.2
9330,F#5,803.917,167/1000,38,162.2
9331,G#4,804.0,0.25,43,162.2
9332,E4,804.0,0.25,43,162.2
9333,B5,804.083,167/1000,41,162.2
9334,G#5,804.25,0.25,49,162.2
9335,E5,804.25,0.25,49,162.2
9336,E5,804.5,0.25,43,162.2
9337,B5,804.5,0.25,43,162.2
9338,G#6,804.75,167/1000,39,162.2
9339,E6,804.75,167/1000,39,162.2
9340,A6,804.917,167/1000,42,162.2
9341,F#6,804.917,167/1000,42,162.2
9342,B5,805.0,0.25,49,162.2
9343,E-5,805.0,0.25,49,162.2
9344,B-6,805.083,167/1000,44,162.2
9345,G6,805.083,167/1000,44,162.2
9346,B6,805.25,0.25,52,162.2
9347,F#6,805.25,0.25,52,162.2
9348,B4,805.5,167/1000,42,162.2
9349,C5,805.667,167/1000,42,162.2
9350,C#5,805.833,167/1000,42,162.2
9351,C5,806.0,0.25,47,162.2
9352,B6,806.0,0.125,43,162.2
9353,B5,806.0,0.125,43,162.2
9354,E-6,806.0,0.125,43,162.2
9355,B6,806.25,0.25,43,162.2
9356,B5,806.25,0.25,43,162.2
9357,E6,806.25,0.25,43,162.2
9358,C#4,806.5,167/1000,45,162.2
9359,D4,806.667,167/1000,45,162.2
9360,B-6,806.75,0.25,50,162.2
9361,B5,806.75,0.25,50,162.2
9362,E6,806.75,0.25,50,162.2
9363,E-4,806.833,167/1000,45,162.2
9364,D4,807.0,0.25,49,162.2
9365,B6,807.25,0.25,48,162.2
9366,B5,807.25,0.25,48,162.2
9367,F6,807.25,0.25,48,162.2
9368,C#3,807.5,167/1000,42,162.2
9369,D3,807.667,167/1000,42,162.2
9370,A6,807.75,0.25,48,162.2
9371,B5,807.75,0.25,48,162.2
9372,F#6,807.75,0.25,48,162.2
9373,E-3,807.833,167/1000,42,162.2
9374,E3,808.0,0.25,53,162.2
9375,B5,808.25,0.25,51,162.2
9376,G#6,808.25,0.25,51,162.2
9377,E6,808.25,0.25,51,162.2
9378,B3,808.5,167/1000,47,162.2
9379,C4,808.667,167/1000,47,162.2
9380,C#4,808.833,167/1000,47,162.2
9381,C4,809.0,0.25,53,162.2
9382,B5,809.0,0.125,48,162.2
9383,B4,809.0,0.125,48,162.2
9384,E-5,809.0,0.125,48,162.2
9385,B5,809.25,0.25,48,162.2
9386,B4,809.25,0.25,48,162.2
9387,E5,809.25,0.25,48,162.2
9388,C#3,809.5,167/1000,50,162.2
9389,D3,809.667,167/1000,50,162.2
9390,B-5,809.75,0.25,56,162.2
9391,B4,809.75,0.25,56,162.2
9392,E5,809.75,0.25,56,162.2
9393,E-3,809.833,167/1000,50,162.2
9394,D3,810.0,0.25,55,162.2
9395,B5,810.25,0.25,53,162.2
9396,B4,810.25,0.25,53,162.2
9397,F5,810.25,0.25,53,162.2
9398,C#2,810.5,167/1000,47,162.2
9399,D2,810.667,167/1000,47,162.2
9400,A5,810.75,0.25,53,162.2
9401,B4,810.75,0.25,53,162.2
9402,F#5,810.75,0.25,53,162.2
9403,E-2,810.833,167/1000,47,162.2
9404,E2,811.0,0.25,59,162.2
9405,B4,811.25,0.25,57,162.2
9406,E5,811.25,0.25,57,162.2
9407,G#5,811.25,0.25,57,162.2
9408,B-3,811.5,0.375,60,162.2
9409,B-2,811.5,0.375,60,162.2
9410,B4,812.0,0.25,54,162.2
9411,B3,812.0,0.25,54,162.2
9412,E-4,812.0,0.25,54,162.2
9413,A3,812.0,0.375,61,162.2
9414,A2,812.0,0.375,61,162.2
9415,B4,812.5,0.25,54,162.2
9416,B3,812.5,0.25,54,162.2
9417,C#4,812.5,0.25,54,162.2
9418,E4,812.5,0.25,54,162.2
9419,G#3,812.5,0.375,63,162.2
9420,G#2,812.5,0.375,63,162.2
9421,B-4,813.0,0.25,55,162.2
9422,B3,813.0,0.25,55,162.2
9423,C#4,813.0,0.25,55,162.2
9424,E4,813.0,0.25,55,162.2
9425,G3,813.0,0.375,65,162.2
9426,G2,813.0,0.375,65,162.2
9427,B4,813.5,0.25,56,162.2
9428,B3,813.5,0.25,56,162.2
9429,C#4,813.5,0.25,56,162.2
9430,E4,813.5,0.25,56,162.2
9431,F#3,813.5,0.375,65,162.2
9432,F#2,813.5,0.375,65,162.2
9433,B4,814.0,0.25,58,162.2
9434,B3,814.0,0.25,58,162.2
9435,E-4,814.0,0.25,58,162.2
9436,A4,814.0,0.25,58,162.2
9437,E3,814.0,0.25,62,162.2
9438,E2,814.0,0.25,62,162.2
9439,B2,814.0,0.25,62,162.2
9440,G#5,814.25,0.25,74,162.2
9441,G#4,814.25,0.25,74,162.2
9442,E5,814.25,0.25,74,162.2
9443,G#3,814.75,0.25,66,162.2
9444,E3,815.0,0.25,62,162.2
9445,G#4,815.0,0.25,67,162.2
9446,E4,815.25,0.25,62,162.2
9447,G#5,815.75,0.25,71,162.2
9448,E5,816.0,0.25,65,162.2
9449,G#6,816.0,0.25,72,162.2
9450,E6,816.25,0.25,66,162.2
9451,G#4,816.75,0.25,76,162.2
9452,E4,817.0,0.25,72,162.2
9453,E3,817.0,0.25,62,162.2
9454,E2,817.0,0.25,62,162.2
9455,B2,817.0,0.25,62,162.2
9456,B5,817.25,0.25,74,162.2
9457,B4,817.25,0.25,74,162.2
9458,G#5,817.25,0.25,74,162.2
9459,B3,817.75,0.25,63,162.2
9460,G#3,817.75,0.25,63,162.2
9461,E3,818.0,0.25,62,162.2
9462,B4,818.0,0.25,64,162.2
9463,G#4,818.0,0.25,64,162.2
9464,E4,818.25,0.25,62,162.2
9465,B5,818.75,0.25,67,162.2
9466,G#5,818.75,0.25,67,162.2
9467,E5,819.0,0.25,65,162.2
9468,G#6,819.0,0.25,72,162.2
9469,E6,819.25,0.25,66,162.2
9470,B4,819.75,0.25,73,162.2
9471,G#4,819.75,0.25,73,162.2
9472,E4,820.0,0.25,72,162.2
9473,E2,820.0,0.344,54,162.2
9474,B2,820.0,0.344,54,162.2
9475,D3,820.062,0.281,68,162.2
9476,G#3,820.062,0.281,68,162.2
9477,D6,820.344,0.281,80,162.2
9478,B5,820.344,0.281,80,162.2
9479,D5,820.344,0.281,80,162.2
9480,E6,820.5,0.25,56,162.2
9481,C#6,820.5,0.25,56,162.2
9482,E7,821.0,0.25,47,162.2
9483,C#7,821.0,0.25,47,162.2
9484,B5,821.0,0.25,58,162.2
9485,D6,821.0,0.25,58,162.2
9486,D7,821.5,0.25,49,162.2
9487,B6,821.5,0.25,49,162.2
9488,C#6,821.5,0.25,59,162.2
9489,A5,821.5,0.25,59,162.2
9490,C#7,822.0,0.25,50,162.2
9491,A6,822.0,0.25,50,162.2
9492,B5,822.0,0.25,61,162.2
9493,G#5,822.0,0.25,61,162.2
9494,B6,822.5,0.25,52,162.2
9495,G#6,822.5,0.25,52,162.2
9496,A5,822.5,0.25,62,162.2
9497,F#5,822.5,0.25,62,162.2
9498,D7,823.0,0.25,53,162.2
9499,F#6,823.0,0.25,53,162.2
9500,D6,823.0,0.25,53,162.2
9501,G#5,823.0,0.25,58,162.2
9502,E5,823.0,0.25,58,162.2
9503,C#7,823.5,0.25,50,162.2
9504,E6,823.5,0.25,50,162.2
9505,C#6,823.5,0.25,50,162.2
9506,F#5,823.5,0.25,58,162.2
9507,D5,823.5,0.25,58,162.2
9508,B6,824.0,0.25,48,162.2
9509,B5,824.0,0.25,48,162.2
9510,D6,824.0,0.25,48,162.2
9511,E5,824.0,0.25,58,162.2
9512,C#5,824.0,0.25,58,162.2
9513,A6,824.5,0.25,48,162.2
9514,C#6,824.5,0.25,48,162.2
9515,A5,824.5,0.25,48,162.2
9516,D5,824.5,0.25,59,162.2
9517,B4,824.5,0.25,59,162.2
9518,G#6,825.0,0.25,48,162.2
9519,B5,825.0,0.25,48,162.2
9520,G#5,825.0,0.25,48,162.2
9521,C#5,825.0,0.25,61,162.2
9522,A4,825.0,0.25,61,162.2
9523,F#6,825.5,0.25,50,162.2
9524,A5,825.5,0.25,50,162.2
9525,F#5,825.5,0.25,50,162.2
9526,B4,825.5,0.25,62,162.2
9527,G#4,825.5,0.25,62,162.2
9528,E6,826.0,0.25,50,162.2
9529,G#5,826.0,0.25,50,162.2
9530,E5,826.0,0.25,50,162.2
9531,A4,826.0,0.25,62,162.2
9532,F#4,826.0,0.25,62,162.2
9533,D6,826.5,0.25,51,162.2
9534,F#5,826.5,0.25,51,162.2
9535,D5,826.5,0.25,51,162.2
9536,G#4,826.5,0.25,64,162.2
9537,E4,826.5,0.25,64,162.2
9538,C#6,827.0,0.25,53,162.2
9539,C#5,827.0,0.25,53,162.2
9540,E5,827.0,0.25,53,162.2
9541,F#4,827.0,0.25,65,162.2
9542,D4,827.0,0.25,65,162.2
9543,B5,827.5,0.25,55,162.2
9544,D5,827.5,0.25,55,162.2
9545,B4,827.5,0.25,55,162.2
9546,E4,827.5,0.25,66,162.2
9547,C#4,827.5,0.25,66,162.2
9548,A5,828.0,0.25,56,162.2
9549,C#5,828.0,0.25,56,162.2
9550,A4,828.0,0.25,56,162.2
9551,D4,828.0,0.25,69,162.2
9552,B3,828.0,0.25,69,162.2
9553,G#5,828.5,0.25,57,162.2
9554,B4,828.5,0.25,57,162.2
9555,G#4,828.5,0.25,57,162.2
9556,C#4,828.5,0.25,70,162.2
9557,A3,828.5,0.25,70,162.2
9558,F#5,829.0,0.25,58,162.2
9559,A4,829.0,0.25,58,162.2
9560,F#4,829.0,0.25,58,162.2
9561,B3,829.0,0.375,70,162.2
9562,G#3,829.0,0.375,70,162.2
9563,E5,829.5,0.25,58,162.2
9564,G#4,829.5,0.25,58,162.2
9565,E4,829.5,0.25,58,162.2
9566,A3,829.5,0.375,70,162.2
9567,F#3,829.5,0.375,70,162.2
9568,E-5,830.0,0.25,60,162.2
9569,E-4,830.0,0.25,60,162.2
9570,F#4,830.0,0.25,60,162.2
9571,A3,830.0,0.375,72,162.2
9572,F3,830.0,0.375,72,162.2
9573,D5,830.5,0.25,61,162.2
9574,F4,830.5,0.25,61,162.2
9575,D4,830.5,0.25,61,162.2
9576,A3,830.5,0.375,75,162.2
9577,E3,830.5,0.375,75,162.2
9578,C#5,831.0,0.25,63,162.2
9579,E4,831.0,0.25,63,162.2
9580,C#4,831.0,0.25,63,162.2
9581,A3,831.0,0.375,76,162.2
9582,E-3,831.0,0.375,76,162.2
9583,C5,831.5,0.25,64,162.2
9584,F#4,831.5,0.25,64,162.2
9585,C4,831.5,0.25,64,162.2
9586,E3,831.5,0.375,74,162.2
9587,D3,831.5,0.375,74,162.2
9588,E2,831.5,0.375,74,162.2
9589,G#2,831.5,0.375,74,162.2
9590,B4,832.0,0.25,64,162.2
9591,E4,832.0,0.25,64,162.2
9592,B3,832.0,0.25,64,162.2
9593,A2,832.0,0.25,80,162.2
9594,A1,832.0,0.25,80,162.2
9595,E2,832.0,0.25,80,162.2
9596,A4,832.25,0.25,62,162.2
9597,A3,832.25,0.25,62,162.2
9598,C#4,832.25,0.25,62,162.2
9599,A5,833.0,0.125,66,162.2
9600,A4,833.0,0.125,66,162.2
9601,B5,833.25,0.125,67,162.2
9602,B4,833.25,0.125,67,162.2
9603,A2,833.5,0.375,54,162.2
9604,E3,833.5,0.375,54,162.2
9605,C#4,833.5,0.375,54,162.2
9606,C#6,833.75,0.375,68,162.2
9607,C#5,833.75,0.375,68,162.2
9608,A5,834.5,0.125,62,162.2
9609,A4,834.5,0.125,62,162.2
9610,G#4,834.75,0.125,62,162.2
9611,G#5,834.75,0.125,62,162.2
9612,F#5,835.25,0.375,70,162.2
9613,F#4,835.25,0.375,70,162.2
9614,D4,835.75,0.125,63,162.2
9615,D3,835.75,0.125,63,162.2
9616,E4,836.0,0.125,63,162.2
9617,E3,836.0,0.125,63,162.2
9618,B4,836.25,1.5,72,162.2
9619,B5,836.25,1.5,72,162.2
9620,F#4,836.5,0.375,72,162.2
9621,F#3,836.5,0.375,72,162.2
9622,C#4,837.25,0.125,62,162.2
9623,C#3,837.25,0.125,62,162.2
9624,E-4,837.5,0.125,62,162.2
9625,E-3,837.5,0.125,62,162.2
9626,A5,837.75,0.125,65,162.2
9627,F#5,837.75,0.125,65,162.2
9628,A4,837.75,0.125,65,162.2
9629,B3,838.0,0.375,70,162.2
9630,B2,838.0,0.375,70,162.2
9631,G#5,838.25,0.375,71,162.2
9632,F#5,838.25,0.375,71,162.2
9633,G#4,838.25,0.375,71,162.2
9634,G#3,838.75,0.125,63,162.2
9635,G#2,838.75,0.125,63,162.2
9636,C#4,839.0,0.125,63,162.2
9637,C#3,839.0,0.125,63,162.2
9638,G#5,839.25,0.125,65,162.2
9639,G#4,839.25,0.125,65,162.2
9640,E5,839.25,0.125,65,162.2
9641,C4,839.5,0.5,70,162.2
9642,C3,839.5,0.5,70,162.2
9643,A5,839.75,0.5,71,162.2
9644,A4,839.75,0.5,71,162.2
9645,E5,839.75,0.5,71,162.2
9646,F#3,840.25,0.125,61,162.2
9647,F#2,840.25,0.125,61,162.2
9648,B2,840.5,0.125,61,162.2
9649,B1,840.5,0.125,61,162.2
9650,B5,840.75,0.125,59,162.2
9651,A4,840.75,0.125,59,162.2
9652,E-5,840.75,0.125,59,162.2
9653,E3,841.0,0.375,64,162.2
9654,E2,841.0,0.375,64,162.2
9655,B2,841.0,0.375,64,162.2
9656,E5,841.25,0.375,62,162.2
9657,E4,841.25,0.375,62,162.2
9658,G#4,841.25,0.375,62,162.2
9659,E3,841.75,0.125,61,162.2
9660,E2,841.75,0.125,61,162.2
9661,E6,842.0,0.125,66,162.2
9662,E5,842.0,0.125,66,162.2
9663,G#5,842.0,0.125,66,162.2
9664,B5,842.0,0.125,66,162.2
9665,E-3,842.0,0.125,61,162.2
9666,E-2,842.0,0.125,61,162.2
9667,F6,842.25,0.125,68,162.2
9668,C#6,842.25,0.125,68,162.2
9669,F5,842.25,0.125,68,162.2
9670,A5,842.25,0.125,68,162.2
9671,D3,842.5,0.5,66,162.2
9672,D2,842.5,0.5,66,162.2
9673,F6,842.75,0.5,72,162.2
9674,F5,842.75,0.5,72,162.2
9675,B-5,842.75,0.5,72,162.2
9676,D6,842.75,0.5,72,162.2
9677,F3,843.25,0.125,63,162.2
9678,F2,843.25,0.125,63,162.2
9679,G6,843.5,0.125,66,162.2
9680,G5,843.5,0.125,66,162.2
9681,B5,843.5,0.125,66,162.2
9682,D6,843.5,0.125,66,162.2
9683,E3,843.5,0.125,63,162.2
9684,E2,843.5,0.125,63,162.2
9685,G#6,843.75,0.125,66,162.2
9686,G#5,843.75,0.125,66,162.2
9687,B5,843.75,0.125,66,162.2
9688,D6,843.75,0.125,66,162.2
9689,A2,844.0,0.375,72,162.2
9690,E2,844.0,0.375,72,162.2
9691,A1,844.0,0.375,72,162.2
9692,A6,844.25,0.375,74,162.2
9693,A5,844.25,0.375,74,162.2
9694,C#6,844.25,0.375,74,162.2
9695,A3,844.75,0.125,74,162.2
9696,A2,844.75,0.125,74,162.2
9697,B3,845.0,0.125,76,162.2
9698,B2,845.0,0.125,76,162.2
9699,C#4,845.5,0.375,79,162.2
9700,C#3,845.5,0.375,79,162.2
9701,A5,845.75,0.375,70,162.2
9702,A4,845.75,0.375,70,162.2
9703,C#5,845.75,0.375,70,162.2
9704,E5,845.75,0.375,70,162.2
9705,A3,846.25,0.125,74,162.2
9706,A2,846.25,0.125,74,162.2
9707,G#3,846.5,0.125,74,162.2
9708,G#2,846.5,0.125,74,162.2
9709,F#3,847.0,0.375,79,162.2
9710,F#2,847.0,0.375,79,162.2
9711,B2,847.938,1.531,70,162.2
9712,F#3,847.938,1.531,70,162.2
9713,D4,848.0,1.5,83,162.2
9714,B6,848.0,0.125,72,162.2
9715,B5,848.0,0.125,72,162.2
9716,C#7,848.25,0.125,75,162.2
9717,C#6,848.25,0.125,75,162.2
9718,D7,848.75,0.5,78,162.2
9719,D6,848.75,0.5,78,162.2
9720,B6,849.5,0.125,70,162.2
9721,B5,849.5,0.125,70,162.2
9722,D3,849.5,0.125,64,162.2
9723,D2,849.5,0.125,64,162.2
9724,B2,849.5,0.125,64,162.2
9725,A6,849.75,0.125,67,162.2
9726,A5,849.75,0.125,67,162.2
9727,F#6,849.75,0.125,67,162.2
9728,E3,850.0,0.375,68,162.2
9729,E2,850.0,0.375,68,162.2
9730,B2,850.0,0.375,68,162.2
9731,A6,850.25,0.375,73,162.2
9732,A5,850.25,0.375,73,162.2
9733,D6,850.25,0.375,73,162.2
9734,E3,850.75,0.125,65,162.2
9735,B2,850.75,0.125,65,162.2
9736,E2,850.75,0.125,65,162.2
9737,G#6,851.0,0.125,67,162.2
9738,D6,851.0,0.125,67,162.2
9739,G#5,851.0,0.125,67,162.2
9740,F#3,851.0,0.125,65,162.2
9741,B2,851.0,0.125,65,162.2
9742,F#2,851.0,0.125,65,162.2
9743,F#6,851.25,0.125,69,162.2
9744,D6,851.25,0.125,69,162.2
9745,F#5,851.25,0.125,69,162.2
9746,G#3,851.5,0.375,70,162.2
9747,B2,851.5,0.375,70,162.2
9748,G#2,851.5,0.375,70,162.2
9749,E6,851.75,0.375,71,162.2
9750,D6,851.75,0.375,71,162.2
9751,E5,851.75,0.375,71,162.2
9752,B2,852.25,0.125,62,162.2
9753,E-3,852.25,0.125,62,162.2
9754,E-2,852.25,0.125,62,162.2
9755,D6,852.5,0.125,68,162.2
9756,F#6,852.5,0.125,68,162.2
9757,F#5,852.5,0.125,68,162.2
9758,B2,852.5,0.125,62,162.2
9759,E3,852.5,0.125,62,162.2
9760,E2,852.5,0.125,62,162.2
9761,G#6,852.75,0.125,68,162.2
9762,D6,852.75,0.125,68,162.2
9763,G#5,852.75,0.125,68,162.2
9764,C#3,853.0,0.375,66,162.2
9765,C#2,853.0,0.375,66,162.2
9766,E2,853.0,0.375,66,162.2
9767,A2,853.0,0.375,66,162.2
9768,A6,853.25,0.375,71,162.2
9769,A5,853.25,0.375,71,162.2
9770,C#6,853.25,0.375,71,162.2
9771,C#4,853.5,0.25,68,162.2
9772,A3,853.5,0.25,68,162.2
9773,E3,853.5,0.25,68,162.2
9774,C#7,853.75,0.25,75,162.2
9775,E6,853.75,0.25,75,162.2
9776,C#6,853.75,0.25,75,162.2
9777,E4,854.0,1.0,71,162.2
9778,C#4,854.0,1.0,71,162.2
9779,A3,854.0,1.0,71,162.2
9780,E7,854.25,1.0,79,162.2
9781,A6,854.25,1.0,79,162.2
9782,E6,854.25,1.0,79,162.2
9783,B3,855.0,0.125,68,162.2
9784,G#2,855.0,0.125,68,162.2
9785,E3,855.0,0.125,68,162.2
9786,E7,855.25,0.125,76,162.2
9787,E6,855.25,0.125,76,162.2
9788,B6,855.25,0.125,76,162.2
9789,C4,855.5,0.125,68,162.2
9790,E3,855.5,0.125,68,162.2
9791,G#2,855.5,0.125,68,162.2
9792,E7,855.75,0.125,76,162.2
9793,C7,855.75,0.125,76,162.2
9794,E6,855.75,0.125,76,162.2
9795,D4,856.0,0.375,71,162.2
9796,E3,856.0,0.375,71,162.2
9797,A2,856.0,0.375,71,162.2
9798,E7,856.25,0.375,87,162.2
9799,D7,856.25,0.375,87,162.2
9800,E6,856.25,0.375,87,162.2
9801,C#4,856.75,0.125,65,162.2
9802,E3,856.75,0.125,65,162.2
9803,A2,856.75,0.125,65,162.2
9804,E7,857.0,0.125,78,162.2
9805,C#7,857.0,0.125,78,162.2
9806,E6,857.0,0.125,78,162.2
9807,C4,857.0,0.125,65,162.2
9808,E3,857.0,0.125,65,162.2
9809,A2,857.0,0.125,65,162.2
9810,E7,857.25,0.125,78,162.2
9811,C7,857.25,0.125,78,162.2
9812,E6,857.25,0.125,78,162.2
9813,B3,857.5,0.375,71,162.2
9814,E-3,857.5,0.375,71,162.2
9815,A2,857.5,0.375,71,162.2
9816,E7,857.75,0.375,86,162.2
9817,B6,857.75,0.375,86,162.2
9818,E6,857.75,0.375,86,162.2
9819,B-3,858.0,0.25,65,162.2
9820,A2,858.0,0.25,65,162.2
9821,D3,858.0,0.25,65,162.2
9822,E7,858.25,0.25,79,162.2
9823,E6,858.25,0.25,79,162.2
9824,B-6,858.25,0.25,79,162.2
9825,A3,858.5,0.125,65,162.2
9826,C#3,858.5,0.125,65,162.2
9827,A2,858.5,0.125,65,162.2
9828,E7,858.75,0.125,79,162.2
9829,A6,858.75,0.125,79,162.2
9830,E6,858.75,0.125,79,162.2
9831,A3,859.0,0.375,73,162.2
9832,C#3,859.0,0.375,73,162.2
9833,E2,859.0,0.375,73,162.2
9834,E7,859.25,0.375,84,162.2
9835,E6,859.25,0.375,84,162.2
9836,A6,859.25,0.375,84,162.2
9837,G#3,859.5,0.25,65,162.2
9838,C3,859.5,0.25,65,162.2
9839,E2,859.5,0.25,65,162.2
9840,E7,859.75,0.25,78,162.2
9841,E6,859.75,0.25,78,162.2
9842,G#6,859.75,0.25,78,162.2
9843,A3,860.0,0.125,65,162.2
9844,C#3,860.0,0.125,65,162.2
9845,E2,860.0,0.125,65,162.2
9846,E7,860.25,0.125,78,162.2
9847,A6,860.25,0.125,78,162.2
9848,E6,860.25,0.125,78,162.2
9849,C#4,860.5,1.0,73,162.2
9850,G#3,860.5,1.0,73,162.2
9851,E3,860.5,1.0,73,162.2
9852,E7,860.75,1.0,85,162.2
9853,C#7,860.75,1.0,85,162.2
9854,E6,860.75,1.0,85,162.2
9855,B3,861.5,0.125,66,162.2
9856,G#3,861.5,0.125,66,162.2
9857,D3,861.5,0.125,66,162.2
9858,E7,861.75,0.125,81,162.2
9859,B6,861.75,0.125,81,162.2
9860,E6,861.75,0.125,81,162.2
9861,A3,862.0,0.5,75,162.2
9862,A2,862.0,0.5,75,162.2
9863,C#3,862.0,0.5,75,162.2
9864,A6,863.0,0.25,74,162.2
9865,A5,863.0,0.25,74,162.2
9866,A6,863.25,0.25,74,162.2
9867,A5,863.25,0.25,74,162.2
9868,A6,863.75,0.25,77,162.2
9869,A5,863.75,0.25,77,162.2
9870,A4,864.25,0.25,69,162.2
9871,A3,864.25,0.25,69,162.2
9872,A4,864.5,0.25,69,162.2
9873,A3,864.5,0.25,69,162.2
9874,A4,865.0,0.25,74,162.2
9875,A3,865.0,0.25,74,162.2
9876,A3,866.0,0.25,71,162.2
9877,A2,866.0,0.25,71,162.2
9878,A3,866.25,0.25,71,162.2
9879,A2,866.25,0.25,71,162.2
9880,A3,866.75,0.25,78,162.2
9881,A2,866.75,0.25,78,162.2
9882,A2,867.25,0.25,66,162.2
9883,A1,867.25,0.25,66,162.2
9884,A2,867.5,0.25,66,162.2
9885,A1,867.5,0.25,66,162.2
9886,A2,868.0,1.5,74,162.2
9887,A1,868.0,1.5,74,162.2
9888,A4,868.25,1.5,77,162.2
9889,A3,868.25,1.5,77,162.2
9890,C3,868.75,0.25,49,162.2
9891,E-3,868.75,0.25,49,162.2
9892,F#3,868.75,0.25,49,162.2
9893,C4,869.0,0.25,66,162.2
9894,E-4,869.0,0.25,66,162.2
9895,F#4,869.0,0.25,66,162.2
9896,C3,869.0,0.5,49,162.2
9897,E-3,869.0,0.5,49,162.2
9898,F#3,869.0,0.5,49,162.2
9899,C4,869.25,0.5,66,162.2
9900,E-4,869.25,0.5,66,162.2
9901,F#4,869.25,0.5,66,162.2
9902,A2,869.5,1.0,59,162.2
9903,A1,869.5,1.0,59,162.2
9904,A4,869.75,1.0,75,162.2
9905,A3,869.75,1.0,75,162.2
9906,C3,870.25,0.25,50,162.2
9907,E-3,870.25,0.25,50,162.2
9908,F#3,870.25,0.25,50,162.2
9909,C4,870.5,0.25,64,162.2
9910,E-4,870.5,0.25,64,162.2
9911,F#4,870.5,0.25,64,162.2
9912,C3,870.5,0.5,50,162.2
9913,E-3,870.5,0.5,50,162.2
9914,F#3,870.5,0.5,50,162.2
9915,C4,870.75,0.5,64,162.2
9916,E-4,870.75,0.5,64,162.2
9917,F#4,870.75,0.5,64,162.2
9918,A1,870.875,0.125,53,162.2
9919,A2,870.875,0.125,53,162.2
9920,A2,871.0,1.5,74,162.2
9921,A1,871.0,1.5,74,162.2
9922,A3,871.125,0.125,68,162.2
9923,A4,871.125,0.125,68,162.2
9924,A4,871.25,1.5,77,162.2
9925,A3,871.25,1.5,77,162.2
9926,C3,871.75,0.25,49,162.2
9927,E-3,871.75,0.25,49,162.2
9928,F#3,871.75,0.25,49,162.2
9929,C4,872.0,0.25,66,162.2
9930,E-4,872.0,0.25,66,162.2
9931,F#4,872.0,0.25,66,162.2
9932,C3,872.0,0.5,49,162.2
9933,E-3,872.0,0.5,49,162.2
9934,F#3,872.0,0.5,49,162.2
9935,C4,872.25,0.5,66,162.2
9936,E-4,872.25,0.5,66,162.2
9937,F#4,872.25,0.5,66,162.2
9938,A2,872.5,1.0,59,162.2
9939,A1,872.5,1.0,59,162.2
9940,A4,872.75,1.0,75,162.2
9941,A3,872.75,1.0,75,162.2
9942,C3,873.25,0.25,50,162.2
9943,E-3,873.25,0.25,50,162.2
9944,F#3,873.25,0.25,50,162.2
9945,C4,873.5,0.25,64,162.2
9946,E-4,873.5,0.25,64,162.2
9947,F#4,873.5,0.25,64,162.2
9948,C3,873.5,0.5,50,162.2
9949,E-3,873.5,0.5,50,162.2
9950,F#3,873.5,0.5,50,162.2
9951,C4,873.75,0.5,64,162.2
9952,E-4,873.75,0.5,64,162.2
9953,F#4,873.75,0.5,64,162.2
9954,B-2,874.0,3.0,74,162.2
9955,B-1,874.0,3.0,74,162.2
9956,B-4,874.25,3.0,77,162.2
9957,B-3,874.25,3.0,77,162.2
9958,E-3,874.75,0.125,49,162.2
9959,F#3,874.75,0.125,49,162.2
9960,E-4,875.0,0.125,66,162.2
9961,F#4,875.0,0.125,66,162.2
9962,E-3,875.0,0.25,49,162.2
9963,F#3,875.0,0.25,49,162.2
9964,E-4,875.25,0.25,66,162.2
9965,F#4,875.25,0.25,66,162.2
9966,E-3,875.5,0.75,49,162.2
9967,F#3,875.5,0.75,49,162.2
9968,E-4,875.75,0.75,66,162.2
9969,F#4,875.75,0.75,66,162.2
9970,C#3,876.25,0.125,50,162.2
9971,E3,876.25,0.125,50,162.2
9972,C#4,876.5,0.125,64,162.2
9973,E4,876.5,0.125,64,162.2
9974,C#3,876.5,0.25,50,162.2
9975,E3,876.5,0.25,50,162.2
9976,C#4,876.75,0.25,64,162.2
9977,E4,876.75,0.25,64,162.2
9978,B-2,877.0,1.0,49,162.2
9979,C#3,877.0,0.75,49,162.2
9980,E3,877.0,0.75,49,162.2
9981,B-3,877.25,1.0,66,162.2
9982,C#4,877.25,0.75,66,162.2
9983,E4,877.25,0.75,66,162.2
9984,D3,877.75,0.125,50,162.2
9985,F3,877.75,0.125,50,162.2
9986,D4,878.0,0.125,64,162.2
9987,F4,878.0,0.125,64,162.2
9988,D3,878.0,0.25,50,162.2
9989,F3,878.0,0.25,50,162.2
9990,D4,878.25,0.25,64,162.2
9991,F4,878.25,0.25,64,162.2
9992,D3,878.5,0.75,49,162.2
9993,F3,878.5,0.75,49,162.2
9994,D4,878.75,0.75,66,162.2
9995,F4,878.75,0.75,66,162.2
9996,B-2,879.25,0.125,50,162.2
9997,E-3,879.25,0.125,50,162.2
9998,F#3,879.25,0.125,50,162.2
9999,B-3,879.5,0.125,64,162.2
10000,E-4,879.5,0.125,64,162.2
10001,F#4,879.5,0.125,64,162.2
10002,B-2,879.5,0.25,50,162.2
10003,E3,879.5,0.25,50,162.2
10004,G3,879.5,0.25,50,162.2
10005,B-3,879.75,0.25,64,162.2
10006,E4,879.75,0.25,64,162.2
10007,G4,879.75,0.25,64,162.2
10008,B2,880.0,0.25,49,162.2
10009,F3,880.0,0.25,49,162.2
10010,G#3,880.0,0.25,49,162.2
10011,B3,880.25,0.25,66,162.2
10012,F4,880.25,0.25,66,162.2
10013,G#4,880.25,0.25,66,162.2
10014,B6,881.0,0.25,74,162.2
10015,B5,881.0,0.25,74,162.2
10016,B6,881.25,0.25,74,162.2
10017,B5,881.25,0.25,74,162.2
10018,B6,881.75,0.25,77,162.2
10019,B5,881.75,0.25,77,162.2
10020,B4,882.25,0.25,69,162.2
10021,B3,882.25,0.25,69,162.2
10022,B4,882.5,0.25,69,162.2
10023,B3,882.5,0.25,69,162.2
10024,B4,883.0,0.25,74,162.2
10025,B3,883.0,0.25,74,162.2
10026,B1,883.75,0.25,66,162.2
10027,B2,883.75,0.25,66,162.2
10028,B4,884.0,0.25,71,162.2
10029,B3,884.0,0.25,71,162.2
10030,B1,884.0,0.25,66,162.2
10031,B2,884.0,0.25,66,162.2
10032,B4,884.25,0.25,71,162.2
10033,B3,884.25,0.25,71,162.2
10034,B1,884.5,0.25,66,162.2
10035,B2,884.5,0.25,66,162.2
10036,B4,884.75,0.25,78,162.2
10037,B3,884.75,0.25,78,162.2
10038,D3,885.25,0.25,50,162.2
10039,F3,885.25,0.25,50,162.2
10040,G#3,885.25,0.25,50,162.2
10041,D4,885.5,0.25,64,162.2
10042,F4,885.5,0.25,64,162.2
10043,G#4,885.5,0.25,64,162.2
10044,C#3,885.5,0.5,50,162.2
10045,F3,885.5,0.5,50,162.2
10046,G#3,885.5,0.5,50,162.2
10047,C#4,885.75,0.5,64,162.2
10048,F4,885.75,0.5,64,162.2
10049,G#4,885.75,0.5,64,162.2
10050,B1,885.875,0.125,53,162.2
10051,B2,885.875,0.125,53,162.2
10052,C3,886.0,3.0,74,162.2
10053,C2,886.0,3.0,74,162.2
10054,B3,886.125,0.125,68,162.2
10055,B4,886.125,0.125,68,162.2
10056,C5,886.25,3.0,77,162.2
10057,C4,886.25,3.0,77,162.2
10058,F3,886.75,0.125,49,162.2
10059,G#3,886.75,0.125,49,162.2
10060,F4,887.0,0.125,66,162.2
10061,G#4,887.0,0.125,66,162.2
10062,F3,887.0,0.25,49,162.2
10063,G#3,887.0,0.25,49,162.2
10064,F4,887.25,0.25,66,162.2
10065,G#4,887.25,0.25,66,162.2
10066,F3,887.5,0.75,49,162.2
10067,G#3,887.5,0.75,49,162.2
10068,F4,887.75,0.75,66,162.2
10069,G#4,887.75,0.75,66,162.2
10070,E-3,888.25,0.125,50,162.2
10071,F#3,888.25,0.125,50,162.2
10072,E-4,888.5,0.125,64,162.2
10073,F#4,888.5,0.125,64,162.2
10074,E-3,888.5,0.25,50,162.2
10075,F#3,888.5,0.25,50,162.2
10076,E-4,888.75,0.25,64,162.2
10077,F#4,888.75,0.25,64,162.2
10078,C3,889.0,2.0,49,162.2
10079,E-3,889.0,0.75,49,162.2
10080,F#3,889.0,0.75,49,162.2
10081,C4,889.25,2.0,66,162.2
10082,E-4,889.25,0.75,66,162.2
10083,F#4,889.25,0.75,66,162.2
10084,E3,889.75,0.125,50,162.2
10085,G3,889.75,0.125,50,162.2
10086,E4,890.0,0.125,64,162.2
10087,G4,890.0,0.125,64,162.2
10088,E3,890.0,0.25,50,162.2
10089,G3,890.0,0.25,50,162.2
10090,E4,890.25,0.25,64,162.2
10091,G4,890.25,0.25,64,162.2
10092,E3,890.5,0.75,49,162.2
10093,G3,890.5,0.75,49,162.2
10094,E4,890.75,0.75,66,162.2
10095,G4,890.75,0.75,66,162.2
10096,C3,891.25,0.125,50,162.2
10097,F3,891.25,0.125,50,162.2
10098,G#3,891.25,0.125,50,162.2
10099,F4,891.5,0.125,64,162.2
10100,G#4,891.5,0.125,64,162.2
10101,C3,891.5,0.25,50,162.2
10102,F#3,891.5,0.25,50,162.2
10103,A3,891.5,0.25,50,162.2
10104,F#4,891.75,0.25,64,162.2
10105,A4,891.75,0.25,64,162.2
10106,C#3,892.0,0.25,49,162.2
10107,G3,892.0,0.25,49,162.2
10108,B-3,892.0,0.25,49,162.2
10109,C#4,892.25,0.25,66,162.2
10110,G4,892.25,0.25,66,162.2
10111,B-4,892.25,0.25,66,162.2
10112,C#7,893.0,0.25,74,162.2
10113,C#6,893.0,0.25,74,162.2
10114,C#7,893.25,0.25,74,162.2
10115,C#6,893.25,0.25,74,162.2
10116,C#7,893.75,0.25,77,162.2
10117,C#6,893.75,0.25,77,162.2
10118,C#5,894.25,0.25,69,162.2
10119,C#4,894.25,0.25,69,162.2
10120,C#5,894.5,0.25,69,162.2
10121,C#4,894.5,0.25,69,162.2
10122,C#5,895.0,0.25,74,162.2
10123,C#4,895.0,0.25,74,162.2
10124,G2,895.75,0.25,51,162.2
10125,B-2,895.75,0.25,51,162.2
10126,C#2,895.75,0.25,51,162.2
10127,C#3,895.75,0.25,51,162.2
10128,E4,896.0,0.25,63,162.2
10129,B-4,896.0,0.25,63,162.2
10130,C#5,896.0,0.25,63,162.2
10131,C#4,896.0,0.25,63,162.2
10132,F#2,896.0,0.25,51,162.2
10133,B-2,896.0,0.25,51,162.2
10134,C#2,896.0,0.25,51,162.2
10135,C#3,896.0,0.25,51,162.2
10136,E4,896.25,0.25,63,162.2
10137,B-4,896.25,0.25,63,162.2
10138,C#5,896.25,0.25,63,162.2
10139,C#4,896.25,0.25,63,162.2
10140,G2,896.5,0.25,57,162.2
10141,C#2,896.5,0.25,57,162.2
10142,C#3,896.5,0.25,57,162.2
10143,B-2,896.5,0.25,57,162.2
10144,E4,896.75,0.25,69,162.2
10145,B-4,896.75,0.25,69,162.2
10146,C#5,896.75,0.25,69,162.2
10147,C#4,896.75,0.25,69,162.2
10148,D2,897.25,0.25,50,162.2
10149,G2,897.25,0.25,50,162.2
10150,B-2,897.25,0.25,50,162.2
10151,D3,897.25,0.25,50,162.2
10152,B-4,897.5,0.25,64,162.2
10153,D4,897.5,0.25,64,162.2
10154,G4,897.5,0.25,64,162.2
10155,D5,897.5,0.25,64,162.2
10156,B-2,897.5,0.25,50,162.2
10157,D2,897.5,0.25,50,162.2
10158,G2,897.5,0.25,50,162.2
10159,D3,897.5,0.25,50,162.2
10160,B-4,897.75,0.25,64,162.2
10161,D4,897.75,0.25,64,162.2
10162,G4,897.75,0.25,64,162.2
10163,D5,897.75,0.25,64,162.2
10164,G2,898.0,0.25,49,162.2
10165,C#3,898.0,0.25,49,162.2
10166,E-2,898.0,0.25,49,162.2
10167,B-2,898.0,0.25,49,162.2
10168,E-3,898.0,0.25,49,162.2
10169,G4,898.25,0.25,66,162.2
10170,C#5,898.25,0.25,66,162.2
10171,E-5,898.25,0.25,66,162.2
10172,E-4,898.25,0.25,66,162.2
10173,B-4,898.25,0.25,66,162.2
10174,E-7,899.0,0.25,74,162.2
10175,E-6,899.0,0.25,74,162.2
10176,E-7,899.25,0.25,74,162.2
10177,E-6,899.25,0.25,74,162.2
10178,E-7,899.75,0.25,77,162.2
10179,E-6,899.75,0.25,77,162.2
10180,E-5,900.25,0.25,69,162.2
10181,E-4,900.25,0.25,69,162.2
10182,E-5,900.5,0.25,69,162.2
10183,E-4,900.5,0.25,69,162.2
10184,E-5,901.0,0.25,74,162.2
10185,E-4,901.0,0.25,74,162.2
10186,C#3,901.75,0.25,51,162.2
10187,B-2,901.75,0.25,51,162.2
10188,E-2,901.75,0.25,51,162.2
10189,E-3,901.75,0.25,51,162.2
10190,G4,902.0,0.25,63,162.2
10191,C#5,902.0,0.25,63,162.2
10192,E-5,902.0,0.25,63,162.2
10193,E-4,902.0,0.25,63,162.2
10194,B-2,902.0,0.25,51,162.2
10195,C#3,902.0,0.25,51,162.2
10196,E-2,902.0,0.25,51,162.2
10197,E-3,902.0,0.25,51,162.2
10198,G4,902.25,0.25,63,162.2
10199,C#5,902.25,0.25,63,162.2
10200,E-5,902.25,0.25,63,162.2
10201,E-4,902.25,0.25,63,162.2
10202,B-2,902.5,0.25,57,162.2
10203,E-2,902.5,0.25,57,162.2
10204,E-3,902.5,0.25,57,162.2
10205,C#3,902.5,0.25,57,162.2
10206,G4,902.75,0.25,69,162.2
10207,C#5,902.75,0.25,69,162.2
10208,E-5,902.75,0.25,69,162.2
10209,E-4,902.75,0.25,69,162.2
10210,E3,903.25,0.25,28,162.2
10211,E2,903.25,0.25,28,162.2
10212,B-2,903.25,0.25,28,162.2
10213,C#3,903.25,0.25,28,162.2
10214,E5,903.5,0.25,38,162.2
10215,C#5,903.5,0.25,38,162.2
10216,E4,903.5,0.25,38,162.2
10217,G4,903.5,0.25,38,162.2
10218,E3,903.5,0.25,28,162.2
10219,C#3,903.5,0.25,28,162.2
10220,E2,903.5,0.25,28,162.2
10221,B-2,903.5,0.25,28,162.2
10222,F2,903.75,0.125,49,162.2
10223,E5,903.75,0.25,38,162.2
10224,C#5,903.75,0.25,38,162.2
10225,E4,903.75,0.25,38,162.2
10226,G4,903.75,0.25,38,162.2
10227,F3,903.875,0.125,49,162.2
10228,C#4,904.0,1021/1000,46,162.2
10229,B-3,904.0,1021/1000,46,162.2
10230,F5,904.25,0.25,42,162.2
10231,B-4,904.25,0.25,42,162.2
10232,F4,904.25,0.25,42,162.2
10233,C#5,904.25,0.25,42,162.2
10234,F7,905.0,0.25,42,162.2
10235,F6,905.0,0.25,42,162.2
10236,C4,905.0,0.5,40,162.2
10237,A3,905.0,0.5,40,162.2
10238,F7,905.25,0.25,42,162.2
10239,F6,905.25,0.25,42,162.2
10240,C#4,905.5,1021/1000,40,162.2
10241,B-3,905.5,1021/1000,40,162.2
10242,F7,905.75,0.25,49,162.2
10243,F6,905.75,0.25,49,162.2
10244,F6,906.5,0.25,40,162.2
10245,F5,906.5,0.25,40,162.2
10246,E-4,906.5,0.5,47,162.2
10247,C4,906.5,0.5,47,162.2
10248,F6,906.75,0.25,40,162.2
10249,F5,906.75,0.25,40,162.2
10250,A3,907.0,0.5,47,162.2
10251,C4,907.0,0.5,47,162.2
10252,F6,907.25,0.25,47,162.2
10253,F5,907.25,0.25,47,162.2
10254,F2,907.5,0.25,45,162.2
10255,F4,907.75,1.0,56,162.2
10256,F3,907.75,0.25,53,162.2
10257,E2,907.75,0.25,48,162.2
10258,E3,908.0,0.25,54,162.2
10259,E-2,908.0,0.25,50,162.2
10260,E-3,908.25,0.25,55,162.2
10261,D2,908.25,0.25,51,162.2
10262,D3,908.5,0.25,57,162.2
10263,C#2,908.5,0.25,52,162.2
10264,C#3,908.75,0.25,58,162.2
10265,C2,908.75,0.25,54,162.2
10266,C3,909.0,0.25,60,162.2
10267,B1,909.0,0.25,54,162.2
10268,B2,909.25,0.25,62,162.2
10269,B-1,909.25,0.25,56,162.2
10270,B-2,909.5,0.25,63,162.2
10271,A1,909.5,0.25,57,162.2
10272,A2,909.75,0.25,64,162.2
10273,F3,910.0,1021/1000,45,162.2
10274,F4,910.0,1021/1000,45,162.2
10275,D4,910.0,1021/1000,45,162.2
10276,A6,911.0,0.25,42,162.2
10277,A5,911.0,0.25,42,162.2
10278,E3,911.0,0.5,38,162.2
10279,E4,911.0,0.5,38,162.2
10280,C#4,911.0,0.5,38,162.2
10281,A6,911.25,0.25,42,162.2
10282,A5,911.25,0.25,42,162.2
10283,F3,911.5,1021/1000,38,162.2
10284,F4,911.5,1021/1000,38,162.2
10285,D4,911.5,1021/1000,38,162.2
10286,A6,911.75,0.25,49,162.2
10287,A5,911.75,0.25,49,162.2
10288,A5,912.5,0.25,40,162.2
10289,A4,912.5,0.25,40,162.2
10290,G3,912.5,0.5,45,162.2
10291,G4,912.5,0.5,45,162.2
10292,E4,912.5,0.5,45,162.2
10293,A5,912.75,0.25,40,162.2
10294,A4,912.75,0.25,40,162.2
10295,E3,913.0,0.5,45,162.2
10296,C#4,913.0,0.5,45,162.2
10297,E4,913.0,0.5,45,162.2
10298,A5,913.25,0.25,47,162.2
10299,A4,913.25,0.25,47,162.2
10300,A2,913.5,0.25,45,162.2
10301,A4,913.75,1.0,56,162.2
10302,A3,913.75,0.25,53,162.2
10303,G#2,913.75,0.25,48,162.2
10304,G#3,914.0,0.25,54,162.2
10305,G2,914.0,0.25,50,162.2
10306,G3,914.25,0.25,55,162.2
10307,F#2,914.25,0.25,51,162.2
10308,F#3,914.5,0.25,57,162.2
10309,F2,914.5,0.25,52,162.2
10310,F3,914.75,0.25,58,162.2
10311,E2,914.75,0.25,54,162.2
10312,E3,915.0,0.25,60,162.2
10313,E-2,915.0,0.25,54,162.2
10314,E-3,915.25,0.25,62,162.2
10315,D2,915.25,0.25,56,162.2
10316,D3,915.5,0.25,63,162.2
10317,C#2,915.5,0.25,57,162.2
10318,C#3,915.75,0.25,64,162.2
10319,A3,916.0,1021/1000,45,162.2
10320,A4,916.0,1021/1000,45,162.2
10321,F#4,916.0,1021/1000,45,162.2
10322,C#7,917.0,0.25,42,162.2
10323,C#6,917.0,0.25,42,162.2
10324,G#3,917.0,0.5,38,162.2
10325,G#4,917.0,0.5,38,162.2
10326,F4,917.0,0.5,38,162.2
10327,C#7,917.25,0.25,42,162.2
10328,C#6,917.25,0.25,42,162.2
10329,A3,917.5,1021/1000,38,162.2
10330,A4,917.5,1021/1000,38,162.2
10331,F#4,917.5,1021/1000,38,162.2
10332,C#7,917.75,0.25,49,162.2
10333,C#6,917.75,0.25,49,162.2
10334,C#6,918.5,0.25,40,162.2
10335,C#5,918.5,0.25,40,162.2
10336,B3,918.5,0.5,45,162.2
10337,B4,918.5,0.5,45,162.2
10338,G#4,918.5,0.5,45,162.2
10339,C#6,918.75,0.25,40,162.2
10340,C#5,918.75,0.25,40,162.2
10341,G#3,919.0,0.5,45,162.2
10342,F4,919.0,0.5,45,162.2
10343,G#4,919.0,0.5,45,162.2
10344,C#3,919.5,0.25,45,162.2
10345,C#5,919.75,1.0,56,162.2
10346,C#4,919.75,0.25,53,162.2
10347,C3,919.75,0.25,48,162.2
10348,C4,920.0,0.25,54,162.2
10349,B2,920.0,0.25,50,162.2
10350,B3,920.25,0.25,55,162.2
10351,B-2,920.25,0.25,51,162.2
10352,B-3,920.5,0.25,57,162.2
10353,A2,920.5,0.25,52,162.2
10354,A3,920.75,0.25,58,162.2
10355,G#2,920.75,0.25,54,162.2
10356,G#3,921.0,0.25,60,162.2
10357,F2,921.0,0.25,54,162.2
10358,F3,921.25,0.25,62,162.2
10359,D2,921.25,0.25,56,162.2
10360,D3,921.5,0.25,63,162.2
10361,C#2,921.5,0.25,57,162.2
10362,C#3,921.75,0.25,64,162.2
10363,A3,922.0,1021/1000,46,162.2
10364,F#3,922.0,1021/1000,46,162.2
10365,C#6,923.0,0.25,42,162.2
10366,C#5,923.0,0.25,42,162.2
10367,G#3,923.0,0.5,40,162.2
10368,F3,923.0,0.5,40,162.2
10369,C#6,923.25,0.25,42,162.2
10370,C#5,923.25,0.25,42,162.2
10371,A3,923.5,1021/1000,40,162.2
10372,F#3,923.5,1021/1000,40,162.2
10373,C#6,923.75,0.25,49,162.2
10374,C#5,923.75,0.25,49,162.2
10375,C#5,924.5,0.25,40,162.2
10376,C#4,924.5,0.25,40,162.2
10377,B3,924.5,0.5,47,162.2
10378,G#3,924.5,0.5,47,162.2
10379,C#5,924.75,0.25,40,162.2
10380,C#4,924.75,0.25,40,162.2
10381,F3,925.0,0.5,47,162.2
10382,G#3,925.0,0.5,47,162.2
10383,C#3,925.75,0.25,36,162.2
10384,C#4,925.75,0.25,33,162.2
10385,C#3,925.75,0.25,33,162.2
10386,C3,926.0,0.25,33,162.2
10387,C#4,926.0,0.25,33,162.2
10388,C#3,926.0,0.25,33,162.2
10389,B2,926.25,0.25,32,162.2
10390,B-2,926.5,0.25,31,162.2
10391,C#4,926.5,0.25,38,162.2
10392,C#3,926.5,0.25,38,162.2
10393,A2,926.75,53/250,30,162.2
10394,G#2,926.962,53/250,30,162.2
10395,G2,927.175,53/250,29,162.2
10396,C#4,927.25,0.25,32,162.2
10397,C#3,927.25,0.25,32,162.2
10398,F#2,927.388,53/250,29,162.2
10399,C#4,927.5,0.25,32,162.2
10400,C#3,927.5,0.25,32,162.2
10401,F2,927.6,53/250,28,162.2
10402,E2,927.812,53/250,27,162.2
10403,D2,928.0,0.25,36,162.2
10404,E-2,928.025,9/40,27,162.2
10405,C6,928.25,0.25,36,162.2
10406,F#5,928.25,0.25,36,162.2
10407,F#6,928.25,0.25,36,162.2
10408,F6,928.5,0.25,38,162.2
10409,E-2,928.5,0.25,37,162.2
10410,E6,928.75,0.25,39,162.2
10411,E-6,929.0,0.25,39,162.2
10412,E2,929.0,0.25,38,162.2
10413,D6,929.25,0.25,40,162.2
10414,C#6,929.5,0.25,40,162.2
10415,F2,929.5,0.25,38,162.2
10416,C6,929.75,0.25,41,162.2
10417,B5,930.0,0.25,41,162.2
10418,F#2,930.0,0.25,39,162.2
10419,B-5,930.25,0.25,42,162.2
10420,A5,930.5,0.25,42,162.2
10421,G2,930.5,0.25,40,162.2
10422,G#5,930.75,0.25,43,162.2
10423,G5,931.0,0.25,43,162.2
10424,G#2,931.0,0.25,40,162.2
10425,F#5,931.25,0.25,44,162.2
10426,F5,931.5,0.25,46,162.2
10427,A2,931.5,0.25,42,162.2
10428,E5,931.75,0.25,47,162.2
10429,E-5,932.0,0.25,49,162.2
10430,B-2,932.0,0.25,45,162.2
10431,D5,932.25,0.25,50,162.2
10432,C#5,932.5,0.25,51,162.2
10433,B2,932.5,0.25,48,162.2
10434,C5,932.75,0.25,53,162.2
10435,B4,933.0,0.25,54,162.2
10436,D2,933.0,1.0,68,162.2
10437,C3,933.0,1.0,68,162.2
10438,B-4,933.25,0.25,55,162.2
10439,A4,933.5,0.25,56,162.2
10440,G#4,933.75,0.25,57,162.2
10441,F#4,934.0,0.25,59,162.2
10442,C#2,934.0,0.5,65,162.2
10443,C#3,934.0,0.5,65,162.2
10444,C#4,934.25,0.25,62,162.2
10445,F4,934.25,0.25,62,162.2
10446,C#5,934.25,0.25,62,162.2
10447,C#4,934.5,0.25,60,162.2
10448,C4,934.75,0.25,59,162.2
10449,B3,935.0,0.25,59,162.2
10450,C#7,935.0,0.25,57,162.2
10451,F6,935.0,0.25,57,162.2
10452,C#6,935.0,0.25,57,162.2
10453,B-3,935.25,0.25,59,162.2
10454,C#7,935.25,0.25,57,162.2
10455,F6,935.25,0.25,57,162.2
10456,C#6,935.25,0.25,57,162.2
10457,A3,935.5,0.25,59,162.2
10458,G#3,935.75,0.25,58,162.2
10459,C#7,935.75,0.25,63,162.2
10460,F6,935.75,0.25,63,162.2
10461,C#6,935.75,0.25,63,162.2
10462,G3,936.0,0.25,58,162.2
10463,F#3,936.25,0.25,58,162.2
10464,F3,936.5,0.25,58,162.2
10465,C#6,936.5,0.25,58,162.2
10466,F5,936.5,0.25,58,162.2
10467,C#5,936.5,0.25,58,162.2
10468,E-3,936.75,0.25,57,162.2
10469,C#6,936.75,0.25,58,162.2
10470,F5,936.75,0.25,58,162.2
10471,C#5,936.75,0.25,58,162.2
10472,D3,937.0,0.25,57,162.2
10473,C#3,937.25,0.25,57,162.2
10474,C#5,937.25,0.25,62,162.2
10475,F5,937.25,0.25,62,162.2
10476,C#6,937.25,0.25,62,162.2
10477,C3,937.5,0.25,57,162.2
10478,B2,937.75,0.25,57,162.2
10479,B-2,938.0,0.25,56,162.2
10480,C#5,938.0,0.25,57,162.2
10481,F4,938.0,0.25,57,162.2
10482,C#4,938.0,0.25,57,162.2
10483,A2,938.25,0.25,56,162.2
10484,C#5,938.25,0.25,57,162.2
10485,F4,938.25,0.25,57,162.2
10486,C#4,938.25,0.25,57,162.2
10487,G#2,938.5,0.25,56,162.2
10488,G2,938.75,0.25,56,162.2
10489,C#5,938.75,0.25,63,162.2
10490,F4,938.75,0.25,63,162.2
10491,C#4,938.75,0.25,63,162.2
10492,F#2,939.0,0.25,55,162.2
10493,F2,939.25,0.25,55,162.2
10494,E2,939.5,0.25,55,162.2
10495,C#4,939.5,0.25,58,162.2
10496,F3,939.5,0.25,58,162.2
10497,C#3,939.5,0.25,58,162.2
10498,D2,939.75,0.25,55,162.2
10499,C#4,939.75,0.25,58,162.2
10500,F3,939.75,0.25,58,162.2
10501,C#3,939.75,0.25,58,162.2
10502,D2,940.0,0.25,36,162.2
10503,C6,940.25,0.25,36,162.2
10504,F#5,940.25,0.25,36,162.2
10505,F#6,940.25,0.25,36,162.2
10506,F6,940.5,0.25,38,162.2
10507,E-2,940.5,0.25,44,162.2
10508,E6,940.75,0.25,39,162.2
10509,E-6,941.0,0.25,39,162.2
10510,E2,941.0,0.25,45,162.2
10511,D6,941.25,0.25,40,162.2
10512,C#6,941.5,0.25,40,162.2
10513,F2,941.5,0.25,45,162.2
10514,C6,941.75,0.25,41,162.2
10515,B5,942.0,0.25,41,162.2
10516,F#2,942.0,0.25,45,162.2
10517,B-5,942.25,0.25,42,162.2
10518,A5,942.5,0.25,42,162.2
10519,G2,942.5,0.25,46,162.2
10520,G#5,942.75,0.25,43,162.2
10521,G5,943.0,0.25,43,162.2
10522,G#2,943.0,0.25,46,162.2
10523,F#5,943.25,53/250,44,162.2
10524,F5,943.462,53/250,46,162.2
10525,A2,943.5,0.25,50,162.2
10526,E5,943.675,53/250,47,162.2
10527,E-5,943.888,53/250,49,162.2
10528,B-2,944.0,0.25,53,162.2
10529,D5,944.1,53/250,50,162.2
10530,C#5,944.312,53/250,51,162.2
10531,E-2,944.5,1.5,67,162.2
10532,B2,944.5,1.5,67,162.2
10533,C5,944.525,9/40,51,162.2
10534,A4,944.75,0.25,61,162.2
10535,B4,944.75,0.25,61,162.2
10536,F#4,944.75,0.25,61,162.2
10537,F4,945.0,0.25,45,162.2
10538,E4,945.25,0.25,45,162.2
10539,E-4,945.5,0.25,45,162.2
10540,C4,945.75,0.25,45,162.2
10541,B3,946.0,0.25,45,162.2
10542,E2,946.0,0.25,36,162.2
10543,D6,946.25,0.25,36,162.2
10544,G#5,946.25,0.25,36,162.2
10545,G#6,946.25,0.25,36,162.2
10546,G6,946.5,0.25,38,162.2
10547,F2,946.5,0.25,44,162.2
10548,F#6,946.75,0.25,39,162.2
10549,F6,947.0,0.25,39,162.2
10550,F#2,947.0,0.25,45,162.2
10551,E6,947.25,0.25,40,162.2
10552,E-6,947.5,0.25,40,162.2
10553,G2,947.5,0.25,45,162.2
10554,D6,947.75,0.25,41,162.2
10555,C#6,948.0,0.25,41,162.2
10556,G#2,948.0,0.25,45,162.2
10557,C6,948.25,0.25,42,162.2
10558,B5,948.5,0.25,42,162.2
10559,A2,948.5,0.25,46,162.2
10560,B-5,948.75,0.25,43,162.2
10561,A5,949.0,0.25,43,162.2
10562,B-2,949.0,0.25,46,162.2
10563,G#5,949.25,53/250,44,162.2
10564,G5,949.462,53/250,46,162.2
10565,B2,949.5,0.25,50,162.2
10566,F#5,949.675,53/250,47,162.2
10567,F5,949.888,53/250,49,162.2
10568,C3,950.0,0.25,53,162.2
10569,E5,950.1,53/250,50,162.2
10570,E-5,950.312,53/250,51,162.2
10571,F2,950.5,1.5,68,162.2
10572,C#3,950.5,1.5,68,162.2
10573,D5,950.525,9/40,51,162.2
10574,B4,950.75,0.25,61,162.2
10575,C#5,950.75,0.25,61,162.2
10576,G#4,950.75,0.25,61,162.2
10577,G4,951.0,0.25,50,162.2
10578,F#4,951.25,0.25,52,162.2
10579,F4,951.5,0.25,54,162.2
10580,D4,951.75,0.25,56,162.2
10581,C#4,952.0,0.25,58,162.2
10582,F#2,952.0,0.25,65,162.2
10583,C3,952.0,0.25,65,162.2
10584,E-3,952.0,0.25,65,162.2
10585,A3,952.0,0.25,65,162.2
10586,A4,952.25,0.25,71,162.2
10587,C5,952.25,0.25,71,162.2
10588,E-5,952.25,0.25,71,162.2
10589,A5,952.25,0.25,71,162.2
10590,G#5,952.75,0.25,73,162.2
10591,A6,952.75,0.25,78,162.2
10592,A5,952.75,0.25,78,162.2
10593,F#5,953.25,0.25,74,162.2
10594,G6,953.25,0.25,80,162.2
10595,G5,953.25,0.25,80,162.2
10596,E5,953.75,0.25,77,162.2
10597,F6,953.75,0.25,81,162.2
10598,F5,953.75,0.25,81,162.2
10599,D5,954.25,0.25,78,162.2
10600,E-6,954.25,0.25,82,162.2
10601,E-5,954.25,0.25,82,162.2
10602,C5,954.75,0.25,80,162.2
10603,C#6,954.75,0.25,84,162.2
10604,C#5,954.75,0.25,84,162.2
10605,B-4,955.25,0.25,81,162.2
10606,B5,955.25,0.25,86,162.2
10607,B4,955.25,0.25,86,162.2
10608,G#4,955.75,0.25,83,162.2
10609,A5,955.75,0.25,88,162.2
10610,A4,955.75,0.25,88,162.2
10611,F#4,956.25,0.25,84,162.2
10612,G5,956.25,0.25,88,162.2
10613,G4,956.25,0.25,88,162.2
10614,E4,956.75,0.25,86,162.2
10615,F5,956.75,0.25,91,162.2
10616,F4,956.75,0.25,91,162.2
10617,D4,957.167,167/1000,88,162.2
10618,E-5,957.25,167/1000,93,162.2
10619,E-4,957.25,167/1000,93,162.2
10620,F#3,957.5,0.25,89,162.2
10621,A3,957.5,0.25,89,162.2
10622,C#5,957.583,167/1000,94,162.2
10623,C#4,957.583,167/1000,94,162.2
10624,C5,957.75,0.25,91,162.2
10625,C4,957.75,0.25,91,162.2
10626,E-4,957.75,0.25,91,162.2
10627,C#3,958.0,0.25,80,162.2
10628,F2,958.0,0.25,80,162.2
10629,G#2,958.0,0.25,80,162.2
10630,C#5,958.25,0.25,93,162.2
10631,C#4,958.25,0.25,93,162.2
10632,F4,958.25,0.25,93,162.2
10633,F1,958.5,0.25,76,162.2
10634,C#2,958.5,0.25,76,162.2
10635,C#7,959.0,0.25,71,162.2
10636,F6,959.0,0.25,71,162.2
10637,C#6,959.0,0.25,71,162.2
10638,F#1,959.0,0.25,76,162.2
10639,D2,959.0,0.25,76,162.2
10640,C#7,959.25,0.25,71,162.2
10641,F6,959.25,0.25,71,162.2
10642,C#6,959.25,0.25,71,162.2
10643,G1,959.5,0.25,76,162.2
10644,E-2,959.5,0.25,76,162.2
10645,C#7,959.75,0.25,76,162.2
10646,F6,959.75,0.25,76,162.2
10647,C#6,959.75,0.25,76,162.2
10648,G#1,960.0,0.25,76,162.2
10649,E2,960.0,0.25,76,162.2
10650,C#6,960.5,0.25,72,162.2
10651,F5,960.5,0.25,72,162.2
10652,C#5,960.5,0.25,72,162.2
10653,A1,960.5,0.25,76,162.2
10654,F2,960.5,0.25,76,162.2
10655,C#6,960.75,0.25,72,162.2
10656,F5,960.75,0.25,72,162.2
10657,C#5,960.75,0.25,72,162.2
10658,B-1,961.0,0.25,84,162.2
10659,F#2,961.0,0.25,84,162.2
10660,C#5,961.25,0.25,75,162.2
10661,F5,961.25,0.25,75,162.2
10662,C#6,961.25,0.25,75,162.2
10663,B1,961.375,0.25,78,162.2
10664,G2,961.375,0.25,78,162.2
10665,C2,961.75,0.25,78,162.2
10666,G#2,961.75,0.25,78,162.2
10667,C#5,962.0,0.25,71,162.2
10668,F4,962.0,0.25,71,162.2
10669,C#4,962.0,0.25,71,162.2
10670,C#2,962.125,0.25,78,162.2
10671,A2,962.125,0.25,78,162.2
10672,C#5,962.25,0.25,71,162.2
10673,F4,962.25,0.25,71,162.2
10674,C#4,962.25,0.25,71,162.2
10675,D2,962.5,0.25,78,162.2
10676,B-2,962.5,0.25,78,162.2
10677,C#5,962.75,0.25,76,162.2
10678,F4,962.75,0.25,76,162.2
10679,C#4,962.75,0.25,76,162.2
10680,E-2,962.875,0.25,78,162.2
10681,B2,962.875,0.25,78,162.2
10682,E2,963.25,0.25,78,162.2
10683,C3,963.25,0.25,78,162.2
10684,C#4,963.5,0.25,72,162.2
10685,F3,963.5,0.25,72,162.2
10686,C#3,963.5,0.25,72,162.2
10687,F2,963.625,0.25,78,162.2
10688,C#3,963.625,0.25,78,162.2
10689,C#4,963.75,0.25,72,162.2
10690,F3,963.75,0.25,72,162.2
10691,C#3,963.75,0.25,72,162.2
10692,F#2,964.0,0.25,77,162.2
10693,C3,964.0,0.25,77,162.2
10694,E-3,964.0,0.25,77,162.2
10695,A3,964.0,0.25,77,162.2
10696,A4,964.25,0.25,79,162.2
10697,C5,964.25,0.25,79,162.2
10698,E-5,964.25,0.25,79,162.2
10699,A5,964.25,0.25,79,162.2
10700,G#5,964.75,0.25,73,162.2
10701,A6,964.75,0.25,78,162.2
10702,A5,964.75,0.25,78,162.2
10703,F#5,965.25,0.25,74,162.2
10704,G6,965.25,0.25,80,162.2
10705,G5,965.25,0.25,80,162.2
10706,E5,965.75,0.25,77,162.2
10707,F6,965.75,0.25,81,162.2
10708,F5,965.75,0.25,81,162.2
10709,D5,966.25,0.25,78,162.2
10710,E-6,966.25,0.25,82,162.2
10711,E-5,966.25,0.25,82,162.2
10712,C5,966.75,0.25,80,162.2
10713,C#6,966.75,0.25,84,162.2
10714,C#5,966.75,0.25,84,162.2
10715,B-4,967.25,0.25,81,162.2
10716,B5,967.25,0.25,86,162.2
10717,B4,967.25,0.25,86,162.2
10718,G#4,967.75,0.25,83,162.2
10719,A5,967.75,0.25,88,162.2
10720,A4,967.75,0.25,88,162.2
10721,F#4,968.25,0.25,84,162.2
10722,G5,968.25,0.25,88,162.2
10723,G4,968.25,0.25,88,162.2
10724,E4,968.75,0.25,86,162.2
10725,F5,968.75,0.25,91,162.2
10726,F4,968.75,0.25,91,162.2
10727,D4,969.167,167/1000,88,162.2
10728,E-5,969.25,167/1000,93,162.2
10729,E-4,969.25,167/1000,93,162.2
10730,F#3,969.5,0.25,89,162.2
10731,A3,969.5,0.25,89,162.2
10732,C#5,969.583,167/1000,94,162.2
10733,C#4,969.583,167/1000,94,162.2
10734,C5,969.75,0.25,91,162.2
10735,C4,969.75,0.25,91,162.2
10736,E-4,969.75,0.25,91,162.2
10737,C#3,970.0,0.25,80,162.2
10738,F2,970.0,0.25,80,162.2
10739,G#2,970.0,0.25,80,162.2
10740,C#5,970.25,0.25,93,162.2
10741,C#4,970.25,0.25,93,162.2
10742,F4,970.25,0.25,93,162.2
10743,F1,970.5,0.25,76,162.2
10744,C#2,970.5,0.25,76,162.2
10745,C#7,971.0,0.25,71,162.2
10746,F6,971.0,0.25,71,162.2
10747,C#6,971.0,0.25,71,162.2
10748,F#1,971.0,0.25,76,162.2
10749,D2,971.0,0.25,76,162.2
10750,C#7,971.25,0.25,71,162.2
10751,F6,971.25,0.25,71,162.2
10752,C#6,971.25,0.25,71,162.2
10753,G1,971.5,0.25,76,162.2
10754,E-2,971.5,0.25,76,162.2
10755,C#7,971.75,0.25,76,162.2
10756,F6,971.75,0.25,76,162.2
10757,C#6,971.75,0.25,76,162.2
10758,G#1,971.875,0.25,76,162.2
10759,E2,971.875,0.25,76,162.2
10760,A1,972.25,0.25,76,162.2
10761,F2,972.25,0.25,76,162.2
10762,C#6,972.5,0.25,72,162.2
10763,F5,972.5,0.25,72,162.2
10764,C#5,972.5,0.25,72,162.2
10765,B-1,972.625,0.25,76,162.2
10766,F#2,972.625,0.25,76,162.2
10767,C#6,972.75,0.25,72,162.2
10768,F5,972.75,0.25,72,162.2
10769,C#5,972.75,0.25,72,162.2
10770,B1,973.0,0.25,84,162.2
10771,G2,973.0,0.25,84,162.2
10772,C#5,973.25,0.25,75,162.2
10773,F5,973.25,0.25,75,162.2
10774,C#6,973.25,0.25,75,162.2
10775,C2,973.375,0.25,78,162.2
10776,G#2,973.375,0.25,78,162.2
10777,C#2,973.75,0.25,78,162.2
10778,A2,973.75,0.25,78,162.2
10779,C#5,974.0,0.25,71,162.2
10780,F4,974.0,0.25,71,162.2
10781,C#4,974.0,0.25,71,162.2
10782,D2,974.125,0.25,78,162.2
10783,B-2,974.125,0.25,78,162.2
10784,C#5,974.25,0.25,71,162.2
10785,F4,974.25,0.25,71,162.2
10786,C#4,974.25,0.25,71,162.2
10787,E-2,974.5,0.25,78,162.2
10788,B2,974.5,0.25,78,162.2
10789,C#5,974.75,0.25,76,162.2
10790,F4,974.75,0.25,76,162.2
10791,C#4,974.75,0.25,76,162.2
10792,E2,974.875,0.25,78,162.2
10793,C3,974.875,0.25,78,162.2
10794,C#2,975.25,0.25,76,162.2
10795,F2,975.25,0.25,76,162.2
10796,C#3,975.25,0.25,76,162.2
10797,C#4,975.5,0.25,72,162.2
10798,F3,975.5,0.25,72,162.2
10799,C#3,975.5,0.25,72,162.2
10800,B1,975.625,0.25,78,162.2
10801,B2,975.625,0.25,78,162.2
10802,C#4,975.75,0.25,72,162.2
10803,F3,975.75,0.25,72,162.2
10804,C#3,975.75,0.25,72,162.2
10805,A2,976.0,3/10,73,162.2
10806,A1,976.0,3/10,73,162.2
10807,C#2,976.0,3/10,73,162.2
10808,F#2,976.0,3/10,73,162.2
10809,G3,976.25,3/10,61,162.2
10810,F#4,976.25,21/100,59,162.2
10811,F#3,976.25,21/100,59,162.2
10812,A3,976.75,3/10,63,162.2
10813,G#4,976.75,21/100,61,162.2
10814,G#3,976.75,21/100,61,162.2
10815,B3,977.25,3/10,66,162.2
10816,B-4,977.25,21/100,62,162.2
10817,B-3,977.25,21/100,62,162.2
10818,C#4,977.75,3/10,68,162.2
10819,C5,977.75,26/125,64,162.2
10820,C4,977.75,26/125,64,162.2
10821,E-4,978.25,3/10,71,162.2
10822,D5,978.25,21/100,68,162.2
10823,D4,978.25,21/100,68,162.2
10824,F4,978.75,0.25,74,162.2
10825,E5,978.75,21/100,69,162.2
10826,E4,978.75,21/100,69,162.2
10827,F4,979.0,1/20,74,162.2
10828,F#3,979.0,3/10,74,162.2
10829,B-2,979.0,3/10,74,162.2
10830,C#3,979.0,3/10,74,162.2
10831,F4,979.25,3/10,72,162.2
10832,F#5,979.25,21/100,74,162.2
10833,F#4,979.25,21/100,74,162.2
10834,B-4,979.25,21/100,74,162.2
10835,C#5,979.25,21/100,74,162.2
10836,E-4,979.75,3/10,70,162.2
10837,E5,979.75,21/100,70,162.2
10838,E4,979.75,21/100,70,162.2
10839,C#4,980.25,3/10,67,162.2
10840,D5,980.25,21/100,68,162.2
10841,D4,980.25,21/100,68,162.2
10842,B3,980.75,3/10,65,162.2
10843,C5,980.75,21/100,66,162.2
10844,C4,980.75,21/100,66,162.2
10845,A3,981.25,3/10,62,162.2
10846,B-4,981.25,21/100,64,162.2
10847,B-3,981.25,21/100,64,162.2
10848,G3,981.75,3/10,58,162.2
10849,G#4,981.75,21/100,62,162.2
10850,G#3,981.75,21/100,62,162.2
10851,F#4,982.25,0.25,60,162.2
10852,F#3,982.25,0.25,60,162.2
10853,B2,982.25,3/10,67,162.2
10854,B1,982.25,3/10,67,162.2
10855,D2,982.25,3/10,67,162.2
10856,G2,982.25,3/10,67,162.2
10857,G#3,982.5,3/10,62,162.2
10858,D4,982.5,0.25,56,162.2
10859,B3,982.5,0.25,56,162.2
10860,G4,982.5,0.25,56,162.2
10861,G3,982.5,0.25,56,162.2
10862,B-3,983.0,3/10,65,162.2
10863,A4,983.0,0.25,61,162.2
10864,A3,983.0,0.25,61,162.2
10865,C4,983.5,3/10,67,162.2
10866,B4,983.5,0.25,62,162.2
10867,B3,983.5,0.25,62,162.2
10868,D4,984.0,3/10,70,162.2
10869,C#5,984.0,0.25,64,162.2
10870,C#4,984.0,0.25,64,162.2
10871,E4,984.5,3/10,72,162.2
10872,E-5,984.5,0.25,68,162.2
10873,E-4,984.5,0.25,68,162.2
10874,F#4,985.0,3/10,75,162.2
10875,F5,985.0,0.25,69,162.2
10876,F4,985.0,0.25,69,162.2
10877,G4,985.5,0.25,70,162.2
10878,G5,985.5,0.25,70,162.2
10879,G#3,985.5,3/10,74,162.2
10880,C3,985.5,3/10,74,162.2
10881,E-3,985.5,3/10,74,162.2
10882,G4,985.75,3/10,76,162.2
10883,G#5,985.75,0.25,74,162.2
10884,G#4,985.75,0.25,74,162.2
10885,C5,985.75,0.25,74,162.2
10886,E-5,985.75,0.25,74,162.2
10887,F4,986.25,3/10,72,162.2
10888,F#5,986.25,0.25,70,162.2
10889,F#4,986.25,0.25,70,162.2
10890,E-4,986.75,3/10,68,162.2
10891,E5,986.75,0.25,68,162.2
10892,E4,986.75,0.25,68,162.2
10893,C#4,987.25,3/10,65,162.2
10894,D5,987.25,0.25,66,162.2
10895,D4,987.25,0.25,66,162.2
10896,B3,987.75,3/10,61,162.2
10897,C5,987.75,0.25,64,162.2
10898,C4,987.75,0.25,64,162.2
10899,A3,988.25,3/10,57,162.2
10900,B-4,988.25,0.25,62,162.2
10901,B-3,988.25,0.25,62,162.2
10902,G#4,988.75,0.25,60,162.2
10903,G#3,988.75,0.25,60,162.2
10904,C#3,988.75,3/10,67,162.2
10905,C#2,988.75,3/10,67,162.2
10906,F#2,988.75,3/10,67,162.2
10907,A2,988.75,3/10,67,162.2
10908,B-3,989.0,3/10,79,162.2
10909,F#4,989.0,0.25,56,162.2
10910,C#4,989.0,0.25,56,162.2
10911,A4,989.0,0.25,56,162.2
10912,A3,989.0,0.25,56,162.2
10913,C4,989.5,3/10,65,162.2
10914,B4,989.5,0.25,61,162.2
10915,B3,989.5,0.25,61,162.2
10916,D4,990.0,3/10,67,162.2
10917,C#5,990.0,0.25,62,162.2
10918,C#4,990.0,0.25,62,162.2
10919,E4,990.5,3/10,71,162.2
10920,E-5,990.5,0.25,64,162.2
10921,E-4,990.5,0.25,64,162.2
10922,F#4,991.0,3/10,75,162.2
10923,F5,991.0,0.25,68,162.2
10924,F4,991.0,0.25,68,162.2
10925,G#4,991.5,3/10,78,162.2
10926,G5,991.5,0.25,69,162.2
10927,G4,991.5,0.25,69,162.2
10928,A4,992.0,0.25,70,162.2
10929,A5,992.0,0.25,70,162.2
10930,B-3,992.0,0.25,73,162.2
10931,C#3,992.0,0.25,73,162.2
10932,E3,992.0,0.25,73,162.2
10933,G3,992.0,0.25,73,162.2
10934,A4,992.25,3/10,81,162.2
10935,B-5,992.25,31/125,74,162.2
10936,B-4,992.25,31/125,74,162.2
10937,G5,992.25,31/125,74,162.2
10938,E5,992.25,31/125,74,162.2
10939,G4,992.75,3/10,78,162.2
10940,G#5,992.75,0.25,70,162.2
10941,G#4,992.75,0.25,70,162.2
10942,F4,993.25,3/10,74,162.2
10943,F#5,993.25,0.25,68,162.2
10944,F#4,993.25,0.25,68,162.2
10945,E-4,993.75,3/10,70,162.2
10946,E5,993.75,0.25,66,162.2
10947,E4,993.75,0.25,66,162.2
10948,C#4,994.25,3/10,66,162.2
10949,D5,994.25,0.25,64,162.2
10950,D4,994.25,0.25,64,162.2
10951,B3,994.75,3/10,62,162.2
10952,C5,994.75,0.25,62,162.2
10953,C4,994.75,0.25,62,162.2
10954,B-4,995.25,0.25,60,162.2
10955,B-3,995.25,0.25,60,162.2
10956,D2,995.25,0.25,80,162.2
10957,D3,995.25,0.25,80,162.2
10958,G2,995.25,0.25,80,162.2
10959,B2,995.25,0.25,80,162.2
10960,B3,995.5,167/1000,48,162.2
10961,G4,995.5,167/1000,48,162.2
10962,B4,995.5,167/1000,48,162.2
10963,C4,995.667,167/1000,46,162.2
10964,C#4,995.833,167/1000,46,162.2
10965,D4,996.0,167/1000,46,162.2
10966,B3,996.0,0.25,67,162.2
10967,G3,996.0,0.25,67,162.2
10968,D3,996.0,0.25,67,162.2
10969,E-4,996.167,167/1000,46,162.2
10970,B3,996.25,0.25,67,162.2
10971,G3,996.25,0.25,67,162.2
10972,D3,996.25,0.25,67,162.2
10973,E4,996.333,167/1000,47,162.2
10974,F4,996.5,167/1000,47,162.2
10975,F#4,996.667,167/1000,47,162.2
10976,B3,996.75,0.25,72,162.2
10977,G3,996.75,0.25,72,162.2
10978,D3,996.75,0.25,72,162.2
10979,G4,996.833,167/1000,47,162.2
10980,G#4,997.0,167/1000,47,162.2
10981,A4,997.167,167/1000,48,162.2
10982,B-4,997.333,167/1000,48,162.2
10983,B4,997.5,167/1000,48,162.2
10984,B2,997.5,0.25,68,162.2
10985,G2,997.5,0.25,68,162.2
10986,D2,997.5,0.25,68,162.2
10987,C5,997.667,167/1000,48,162.2
10988,B2,997.75,0.25,68,162.2
10989,G2,997.75,0.25,68,162.2
10990,D2,997.75,0.25,68,162.2
10991,C#5,997.833,167/1000,48,162.2
10992,D5,998.0,167/1000,49,162.2
10993,E-5,998.167,167/1000,49,162.2
10994,D2,998.25,0.25,71,162.2
10995,G2,998.25,0.25,71,162.2
10996,B2,998.25,0.25,71,162.2
10997,E5,998.333,167/1000,49,162.2
10998,F5,998.5,167/1000,49,162.2
10999,F#5,998.667,167/1000,49,162.2
11000,G5,998.833,167/1000,50,162.2
11001,G#5,999.0,167/1000,51,162.2
11002,B4,999.0,0.25,67,162.2
11003,G4,999.0,0.25,67,162.2
11004,D4,999.0,0.25,67,162.2
11005,A5,999.167,167/1000,52,162.2
11006,B4,999.25,0.25,67,162.2
11007,G4,999.25,0.25,67,162.2
11008,D4,999.25,0.25,67,162.2
11009,B-5,999.333,167/1000,53,162.2
11010,B5,999.5,167/1000,54,162.2
11011,C6,999.667,167/1000,55,162.2
11012,B4,999.75,0.25,72,162.2
11013,G4,999.75,0.25,72,162.2
11014,D4,999.75,0.25,72,162.2
11015,C#6,999.833,167/1000,56,162.2
11016,D6,1000.0,167/1000,57,162.2
11017,E-6,1000.167,167/1000,57,162.2
11018,E6,1000.333,167/1000,58,162.2
11019,F6,1000.5,167/1000,59,162.2
11020,F#6,1000.667,167/1000,60,162.2
11021,G6,1000.833,167/1000,61,162.2
11022,G#6,1001.0,0.125,62,162.2
11023,A6,1001.125,0.125,62,162.2
11024,B-6,1001.25,0.125,63,162.2
11025,B6,1001.375,0.125,64,162.2
11026,C7,1001.5,1/5,80,162.2
11027,A6,1001.5,1/5,80,162.2
11028,B6,1001.7,1/5,59,162.2
11029,G#6,1001.7,1/5,59,162.2
11030,B-6,1001.9,1/5,58,162.2
11031,G6,1001.9,1/5,58,162.2
11032,F#3,1002.0,0.25,66,162.2
11033,C4,1002.0,0.25,66,162.2
11034,A3,1002.0,0.25,66,162.2
11035,D3,1002.0,0.25,66,162.2
11036,A6,1002.1,1/5,57,162.2
11037,F#6,1002.1,1/5,57,162.2
11038,F#3,1002.25,0.25,66,162.2
11039,C4,1002.25,0.25,66,162.2
11040,A3,1002.25,0.25,66,162.2
11041,D3,1002.25,0.25,66,162.2
11042,G#6,1002.3,1/5,56,162.2
11043,F6,1002.3,1/5,56,162.2
11044,G6,1002.5,1/5,56,162.2
11045,E6,1002.5,1/5,56,162.2
11046,F#6,1002.7,1/5,54,162.2
11047,E-6,1002.7,1/5,54,162.2
11048,F#3,1002.75,0.25,71,162.2
11049,C4,1002.75,0.25,71,162.2
11050,A3,1002.75,0.25,71,162.2
11051,D3,1002.75,0.25,71,162.2
11052,F6,1002.9,1/5,54,162.2
11053,D6,1002.9,1/5,54,162.2
11054,E6,1003.1,1/5,52,162.2
11055,C#6,1003.1,1/5,52,162.2
11056,E-6,1003.3,1/5,52,162.2
11057,C6,1003.3,1/5,52,162.2
11058,D6,1003.5,1/5,50,162.2
11059,B5,1003.5,1/5,50,162.2
11060,F#2,1003.5,0.25,67,162.2
11061,C3,1003.5,0.25,67,162.2
11062,A2,1003.5,0.25,67,162.2
11063,D2,1003.5,0.25,67,162.2
11064,C#6,1003.7,1/5,50,162.2
11065,B-5,1003.7,1/5,50,162.2
11066,F#2,1003.75,0.25,67,162.2
11067,C3,1003.75,0.25,67,162.2
11068,A2,1003.75,0.25,67,162.2
11069,D2,1003.75,0.25,67,162.2
11070,C6,1003.9,1/5,50,162.2
11071,A5,1003.9,1/5,50,162.2
11072,B5,1004.1,1/5,49,162.2
11073,G#5,1004.1,1/5,49,162.2
11074,F#2,1004.25,0.25,70,162.2
11075,D2,1004.25,0.25,70,162.2
11076,A2,1004.25,0.25,70,162.2
11077,C3,1004.25,0.25,70,162.2
11078,B-5,1004.3,1/5,48,162.2
11079,G5,1004.3,1/5,48,162.2
11080,A5,1004.5,167/1000,48,162.2
11081,F#5,1004.5,167/1000,48,162.2
11082,G#5,1004.667,167/1000,48,162.2
11083,F5,1004.667,167/1000,48,162.2
11084,G5,1004.833,167/1000,47,162.2
11085,E5,1004.833,167/1000,47,162.2
11086,F#5,1005.0,167/1000,47,162.2
11087,E-5,1005.0,167/1000,47,162.2
11088,F#4,1005.0,0.25,59,162.2
11089,C5,1005.0,0.25,59,162.2
11090,A4,1005.0,0.25,59,162.2
11091,D4,1005.0,0.25,59,162.2
11092,F5,1005.167,167/1000,46,162.2
11093,D5,1005.167,167/1000,46,162.2
11094,F#4,1005.25,0.25,59,162.2
11095,C5,1005.25,0.25,59,162.2
11096,A4,1005.25,0.25,59,162.2
11097,D4,1005.25,0.25,59,162.2
11098,E5,1005.333,167/1000,46,162.2
11099,C#5,1005.333,167/1000,46,162.2
11100,E-5,1005.5,167/1000,45,162.2
11101,C5,1005.5,167/1000,45,162.2
11102,D5,1005.667,167/1000,45,162.2
11103,B4,1005.667,167/1000,45,162.2
11104,C#5,1005.833,167/1000,44,162.2
11105,B-4,1005.833,167/1000,44,162.2
11106,C5,1006.0,167/1000,44,162.2
11107,A4,1006.0,167/1000,44,162.2
11108,B4,1006.167,167/1000,43,162.2
11109,G#4,1006.167,167/1000,43,162.2
11110,B-4,1006.333,167/1000,43,162.2
11111,G4,1006.333,167/1000,43,162.2
11112,A4,1006.5,167/1000,42,162.2
11113,F#4,1006.5,167/1000,42,162.2
11114,G#4,1006.667,167/1000,42,162.2
11115,F4,1006.667,167/1000,42,162.2
11116,G4,1006.833,167/1000,42,162.2
11117,E4,1006.833,167/1000,42,162.2
11118,F#4,1007.0,167/1000,42,162.2
11119,E-4,1007.0,167/1000,42,162.2
11120,F4,1007.167,167/1000,40,162.2
11121,D4,1007.167,167/1000,40,162.2
11122,E4,1007.333,167/1000,40,162.2
11123,C#4,1007.333,167/1000,40,162.2
11124,E-4,1007.5,43/200,52,162.2
11125,C4,1007.5,43/200,52,162.2
11126,E4,1007.715,53/250,42,162.2
11127,C#4,1007.715,53/250,42,162.2
11128,F4,1007.927,53/250,42,162.2
11129,D4,1007.927,53/250,42,162.2
11130,C4,1008.0,0.25,67,162.2
11131,G#3,1008.0,0.25,67,162.2
11132,E-3,1008.0,0.25,67,162.2
11133,E-4,1008.14,43/200,42,162.2
11134,F#4,1008.14,43/200,42,162.2
11135,C4,1008.25,0.25,67,162.2
11136,G#3,1008.25,0.25,67,162.2
11137,E-3,1008.25,0.25,67,162.2
11138,E4,1008.354,53/250,42,162.2
11139,G4,1008.354,53/250,42,162.2
11140,G#4,1008.567,43/200,43,162.2
11141,F4,1008.567,43/200,43,162.2
11142,C4,1008.75,0.25,72,162.2
11143,G#3,1008.75,0.25,72,162.2
11144,E-3,1008.75,0.25,72,162.2
11145,A4,1008.781,53/250,43,162.2
11146,F#4,1008.781,53/250,43,162.2
11147,B-4,1008.994,43/200,43,162.2
11148,G4,1008.994,43/200,43,162.2
11149,G#4,1009.206,43/200,43,162.2
11150,B4,1009.206,43/200,43,162.2
11151,A4,1009.421,53/250,44,162.2
11152,C5,1009.421,53/250,44,162.2
11153,C3,1009.5,0.25,68,162.2
11154,G#2,1009.5,0.25,68,162.2
11155,E-2,1009.5,0.25,68,162.2
11156,C#5,1009.633,43/200,44,162.2
11157,B-4,1009.633,43/200,44,162.2
11158,C3,1009.75,0.25,68,162.2
11159,G#2,1009.75,0.25,68,162.2
11160,E-2,1009.75,0.25,68,162.2
11161,D5,1009.848,53/250,44,162.2
11162,B4,1009.848,53/250,44,162.2
11163,E-5,1010.06,43/200,44,162.2
11164,C5,1010.06,43/200,44,162.2
11165,E-2,1010.25,0.25,71,162.2
11166,G#2,1010.25,0.25,71,162.2
11167,C3,1010.25,0.25,71,162.2
11168,E5,1010.273,43/200,44,162.2
11169,C#5,1010.273,43/200,44,162.2
11170,F5,1010.5,3/20,45,162.2
11171,D5,1010.5,3/20,45,162.2
11172,F#5,1010.65,3/20,45,162.2
11173,E-5,1010.65,3/20,45,162.2
11174,G5,1010.8,3/20,46,162.2
11175,E5,1010.8,3/20,46,162.2
11176,G#5,1010.95,3/20,47,162.2
11177,F5,1010.95,3/20,47,162.2
11178,C5,1011.0,0.25,67,162.2
11179,G#4,1011.0,0.25,67,162.2
11180,E-4,1011.0,0.25,67,162.2
11181,A5,1011.1,3/20,48,162.2
11182,F#5,1011.1,3/20,48,162.2
11183,B-5,1011.25,3/20,49,162.2
11184,G5,1011.25,3/20,49,162.2
11185,C5,1011.25,0.25,67,162.2
11186,G#4,1011.25,0.25,67,162.2
11187,E-4,1011.25,0.25,67,162.2
11188,B5,1011.4,3/20,50,162.2
11189,G#5,1011.4,3/20,50,162.2
11190,C6,1011.55,3/20,50,162.2
11191,A5,1011.55,3/20,50,162.2
11192,C#6,1011.7,3/20,52,162.2
11193,B-5,1011.7,3/20,52,162.2
11194,C5,1011.75,0.25,72,162.2
11195,G#4,1011.75,0.25,72,162.2
11196,E-4,1011.75,0.25,72,162.2
11197,D6,1011.85,3/20,52,162.2
11198,B5,1011.85,3/20,52,162.2
11199,E-6,1012.0,3/20,52,162.2
11200,C6,1012.0,3/20,52,162.2
11201,E6,1012.15,3/20,54,162.2
11202,C#6,1012.15,3/20,54,162.2
11203,F6,1012.3,3/20,54,162.2
11204,D6,1012.3,3/20,54,162.2
11205,F#6,1012.45,3/20,56,162.2
11206,E-6,1012.45,3/20,56,162.2
11207,G6,1012.6,3/20,56,162.2
11208,E6,1012.6,3/20,56,162.2
11209,G#6,1012.75,3/20,57,162.2
11210,F6,1012.75,3/20,57,162.2
11211,A6,1012.9,3/20,58,162.2
11212,F#6,1012.9,3/20,58,162.2
11213,B-6,1013.05,3/20,60,162.2
11214,G6,1013.05,3/20,60,162.2
11215,B6,1013.2,3/20,61,162.2
11216,G#6,1013.2,3/20,61,162.2
11217,C7,1013.35,3/20,66,162.2
11218,A6,1013.35,3/20,66,162.2
11219,C#7,1013.5,43/200,80,162.2
11220,B-6,1013.5,43/200,80,162.2
11221,C7,1013.715,53/250,59,162.2
11222,A6,1013.715,53/250,59,162.2
11223,B6,1013.929,53/250,58,162.2
11224,G#6,1013.929,53/250,58,162.2
11225,G3,1014.0,0.25,66,162.2
11226,C#4,1014.0,0.25,66,162.2
11227,B-3,1014.0,0.25,66,162.2
11228,E-3,1014.0,0.25,66,162.2
11229,B-6,1014.142,43/200,57,162.2
11230,G6,1014.142,43/200,57,162.2
11231,G3,1014.25,0.25,66,162.2
11232,C#4,1014.25,0.25,66,162.2
11233,B-3,1014.25,0.25,66,162.2
11234,E-3,1014.25,0.25,66,162.2
11235,A6,1014.356,43/200,56,162.2
11236,F#6,1014.356,43/200,56,162.2
11237,G#6,1014.571,53/250,56,162.2
11238,F6,1014.571,53/250,56,162.2
11239,G3,1014.75,0.25,71,162.2
11240,C#4,1014.75,0.25,71,162.2
11241,B-3,1014.75,0.25,71,162.2
11242,E-3,1014.75,0.25,71,162.2
11243,G6,1014.785,53/250,54,162.2
11244,E6,1014.785,53/250,54,162.2
11245,F#6,1014.998,43/200,54,162.2
11246,E-6,1014.998,43/200,54,162.2
11247,F6,1015.212,43/200,52,162.2
11248,D6,1015.212,43/200,52,162.2
11249,E6,1015.427,53/250,52,162.2
11250,C#6,1015.427,53/250,52,162.2
11251,G2,1015.5,0.25,67,162.2
11252,C#3,1015.5,0.25,67,162.2
11253,B-2,1015.5,0.25,67,162.2
11254,E-2,1015.5,0.25,67,162.2
11255,E-6,1015.64,43/200,50,162.2
11256,C6,1015.64,43/200,50,162.2
11257,G2,1015.75,0.25,67,162.2
11258,C#3,1015.75,0.25,67,162.2
11259,B-2,1015.75,0.25,67,162.2
11260,E-2,1015.75,0.25,67,162.2
11261,D6,1015.854,43/200,50,162.2
11262,B5,1015.854,43/200,50,162.2
11263,C#6,1016.069,53/250,50,162.2
11264,B-5,1016.069,53/250,50,162.2
11265,A5,1016.281,0.219,49,162.2
11266,C6,1016.281,0.219,49,162.2
11267,C#6,1016.5,43/200,64,162.2
11268,B-5,1016.5,43/200,64,162.2
11269,A5,1016.715,53/250,56,162.2
11270,C6,1016.715,53/250,56,162.2
11271,G#5,1016.927,53/250,54,162.2
11272,B5,1016.927,53/250,54,162.2
11273,G3,1017.0,0.25,66,162.2
11274,C#4,1017.0,0.25,66,162.2
11275,B-3,1017.0,0.25,66,162.2
11276,E3,1017.0,0.25,66,162.2
11277,G5,1017.142,43/200,54,162.2
11278,B-5,1017.142,43/200,54,162.2
11279,G3,1017.25,0.25,66,162.2
11280,C#4,1017.25,0.25,66,162.2
11281,B-3,1017.25,0.25,66,162.2
11282,E3,1017.25,0.25,66,162.2
11283,A5,1017.356,43/200,54,162.2
11284,F#5,1017.356,43/200,54,162.2
11285,G#5,1017.569,53/250,52,162.2
11286,F5,1017.569,53/250,52,162.2
11287,G3,1017.75,0.25,71,162.2
11288,C#4,1017.75,0.25,71,162.2
11289,B-3,1017.75,0.25,71,162.2
11290,E3,1017.75,0.25,71,162.2
11291,G5,1017.785,53/250,52,162.2
11292,E5,1017.785,53/250,52,162.2
11293,F#5,1017.998,43/200,52,162.2
11294,E-5,1017.998,43/200,52,162.2
11295,F5,1018.212,43/200,50,162.2
11296,D5,1018.212,43/200,50,162.2
11297,E5,1018.427,53/250,50,162.2
11298,C#5,1018.427,53/250,50,162.2
11299,G2,1018.5,0.25,67,162.2
11300,C#3,1018.5,0.25,67,162.2
11301,B-2,1018.5,0.25,67,162.2
11302,E2,1018.5,0.25,67,162.2
11303,C5,1018.64,43/200,49,162.2
11304,E-5,1018.64,43/200,49,162.2
11305,G2,1018.75,0.25,67,162.2
11306,C#3,1018.75,0.25,67,162.2
11307,B-2,1018.75,0.25,67,162.2
11308,E2,1018.75,0.25,67,162.2
11309,D5,1018.854,43/200,48,162.2
11310,B4,1018.854,43/200,48,162.2
11311,B-4,1019.069,53/250,48,162.2
11312,C#5,1019.069,53/250,48,162.2
11313,C5,1019.281,0.219,47,162.2
11314,A4,1019.281,0.219,47,162.2
11315,C#5,1019.5,43/200,56,162.2
11316,B-4,1019.5,43/200,56,162.2
11317,A4,1019.715,53/250,50,162.2
11318,C5,1019.715,53/250,50,162.2
11319,G#4,1019.927,53/250,50,162.2
11320,B4,1019.927,53/250,50,162.2
11321,F3,1020.0,0.25,67,162.2
11322,C#4,1020.0,0.25,67,162.2
11323,B-3,1020.0,0.25,67,162.2
11324,G4,1020.142,43/200,49,162.2
11325,B-4,1020.142,43/200,49,162.2
11326,F3,1020.25,0.25,67,162.2
11327,C#4,1020.25,0.25,67,162.2
11328,B-3,1020.25,0.25,67,162.2
11329,A4,1020.356,53/250,49,162.2
11330,F#4,1020.356,53/250,49,162.2
11331,G#4,1020.569,53/250,48,162.2
11332,F4,1020.569,53/250,48,162.2
11333,F3,1020.75,0.25,72,162.2
11334,C#4,1020.75,0.25,72,162.2
11335,B-3,1020.75,0.25,72,162.2
11336,G4,1020.785,53/250,47,162.2
11337,E4,1020.785,53/250,47,162.2
11338,F#4,1020.998,43/200,46,162.2
11339,E-4,1020.998,43/200,46,162.2
11340,F4,1021.212,43/200,45,162.2
11341,D4,1021.212,43/200,45,162.2
11342,E4,1021.427,53/250,44,162.2
11343,C#4,1021.427,53/250,44,162.2
11344,F2,1021.5,0.25,68,162.2
11345,C#3,1021.5,0.25,68,162.2
11346,B-2,1021.5,0.25,68,162.2
11347,C4,1021.64,43/200,43,162.2
11348,E-4,1021.64,43/200,43,162.2
11349,F2,1021.75,0.25,68,162.2
11350,C#3,1021.75,0.25,68,162.2
11351,B-2,1021.75,0.25,68,162.2
11352,D4,1021.854,43/200,42,162.2
11353,B3,1021.854,43/200,42,162.2
11354,B-3,1022.069,53/250,42,162.2
11355,C#4,1022.069,53/250,42,162.2
11356,F#2,1022.25,0.25,61,162.2
11357,F#3,1022.25,0.25,61,162.2
11358,C4,1022.281,0.219,42,162.2
11359,A3,1022.281,0.219,42,162.2
11360,C#4,1022.5,0.5,71,162.2
11361,B-3,1022.5,0.25,71,162.2
11362,F3,1022.5,0.25,60,162.2
11363,A3,1022.75,0.25,53,162.2
11364,E3,1022.75,0.25,59,162.2
11365,C#4,1023.0,0.5,53,162.2
11366,B-3,1023.0,0.25,53,162.2
11367,E-3,1023.0,0.25,59,162.2
11368,A3,1023.25,0.25,53,162.2
11369,D3,1023.25,0.25,58,162.2
11370,C#4,1023.5,0.5,53,162.2
11371,B-3,1023.5,0.25,53,162.2
11372,C#3,1023.5,0.25,57,162.2
11373,A3,1023.75,0.25,53,162.2
11374,C3,1023.75,0.25,56,162.2
11375,C#4,1024.0,0.5,53,162.2
11376,B-3,1024.0,0.25,53,162.2
11377,B2,1024.0,0.25,55,162.2
11378,A3,1024.25,0.25,53,162.2
11379,B-2,1024.25,0.25,54,162.2
11380,C#4,1024.5,0.5,53,162.2
11381,B-3,1024.5,0.25,53,162.2
11382,A2,1024.5,0.25,53,162.2
11383,A3,1024.75,0.25,53,162.2
11384,G#2,1024.75,0.25,53,162.2
11385,C#4,1025.0,0.5,53,162.2
11386,B-3,1025.0,0.25,53,162.2
11387,G2,1025.0,0.25,52,162.2
11388,A3,1025.25,0.25,53,162.2
11389,F#2,1025.25,231/1000,61,162.2
11390,F2,1025.481,229/1000,60,162.2
11391,C#4,1025.5,0.5,71,162.2
11392,B-3,1025.5,0.25,71,162.2
11393,E2,1025.71,231/1000,59,162.2
11394,A3,1025.75,0.25,53,162.2
11395,E-2,1025.94,231/1000,59,162.2
11396,C#4,1026.0,0.5,53,162.2
11397,B-3,1026.0,0.25,53,162.2
11398,D2,1026.171,229/1000,58,162.2
11399,A3,1026.25,0.25,53,162.2
11400,C#2,1026.4,231/1000,57,162.2
11401,C#4,1026.5,0.5,53,162.2
11402,B-3,1026.5,0.25,53,162.2
11403,C2,1026.631,229/1000,56,162.2
11404,A3,1026.75,0.25,53,162.2
11405,B1,1026.86,231/1000,55,162.2
11406,E-4,1027.0,0.5,70,162.2
11407,B-3,1027.0,0.25,53,162.2
11408,B-1,1027.09,231/1000,54,162.2
11409,A3,1027.25,0.25,53,162.2
11410,A1,1027.321,229/1000,53,162.2
11411,E-4,1027.5,0.5,53,162.2
11412,B-3,1027.5,0.25,53,162.2
11413,G#1,1027.55,231/1000,53,162.2
11414,A3,1027.75,0.25,53,162.2
11415,G1,1027.781,229/1000,52,162.2
11416,E-4,1028.0,0.5,53,162.2
11417,B-3,1028.0,0.25,53,162.2
11418,F#1,1028.01,6/25,52,162.2
11419,C4,1028.25,0.25,53,162.2
11420,F1,1028.25,0.5,67,162.2
11421,C2,1028.25,0.5,67,162.2
11422,F2,1028.25,0.5,67,162.2
11423,F4,1028.5,0.5,77,162.2
11424,F3,1028.5,0.5,77,162.2
11425,A3,1028.5,0.5,77,162.2
11426,E2,1028.75,0.5,70,162.2
11427,E3,1029.0,0.5,75,162.2
11428,E4,1029.0,0.5,75,162.2
11429,F2,1029.25,0.5,66,162.2
11430,F3,1029.5,0.5,70,162.2
11431,F4,1029.5,0.5,70,162.2
11432,E2,1029.75,0.5,73,162.2
11433,E3,1029.75,0.5,73,162.2
11434,E4,1030.0,0.5,84,162.2
11435,E5,1030.0,0.5,84,162.2
11436,F2,1030.25,0.5,73,162.2
11437,F3,1030.25,0.5,73,162.2
11438,F4,1030.5,0.5,80,162.2
11439,F5,1030.5,0.5,80,162.2
11440,E4,1030.75,0.5,82,162.2
11441,E3,1030.75,0.5,82,162.2
11442,E6,1031.0,0.5,99,162.2
11443,E5,1031.0,0.5,99,162.2
11444,F3,1031.25,0.5,82,162.2
11445,F4,1031.25,0.5,82,162.2
11446,F5,1031.5,0.5,97,162.2
11447,F6,1031.5,0.5,97,162.2
11448,E2,1031.75,0.5,70,162.2
11449,E3,1031.75,0.5,70,162.2
11450,E5,1032.0,0.5,82,162.2
11451,E4,1032.0,0.5,82,162.2
11452,F2,1032.25,0.5,68,162.2
11453,F3,1032.25,0.5,68,162.2
11454,F4,1032.5,0.5,79,162.2
11455,F5,1032.5,0.5,79,162.2
11456,E1,1032.75,0.5,69,162.2
11457,E2,1032.75,0.5,69,162.2
11458,E3,1033.0,0.5,76,162.2
11459,E4,1033.0,0.5,76,162.2
11460,F1,1033.25,0.5,65,162.2
11461,F2,1033.25,0.5,65,162.2
11462,F3,1033.5,0.5,74,162.2
11463,F4,1033.5,0.5,74,162.2
11464,F1,1033.75,0.5,71,162.2
11465,F2,1033.75,0.5,71,162.2
11466,F3,1034.0,0.5,76,162.2
11467,C#3,1034.25,0.25,78,162.2
11468,B-1,1034.25,0.25,78,162.2
11469,E2,1034.25,0.25,78,162.2
11470,G2,1034.25,0.25,78,162.2
11471,C#7,1034.5,0.25,76,162.2
11472,B-6,1034.5,0.25,76,162.2
11473,C7,1034.75,0.25,59,162.2
11474,A6,1034.75,0.25,59,162.2
11475,D3,1034.75,0.25,78,162.2
11476,B1,1034.75,0.25,78,162.2
11477,B6,1035.0,0.25,59,162.2
11478,G#6,1035.0,0.25,59,162.2
11479,B-6,1035.25,0.25,58,162.2
11480,G6,1035.25,0.25,58,162.2
11481,E-3,1035.25,0.25,82,162.2
11482,C2,1035.25,0.25,82,162.2
11483,A6,1035.5,0.25,57,162.2
11484,F#6,1035.5,0.25,57,162.2
11485,G#6,1035.75,0.25,57,162.2
11486,F6,1035.75,0.25,57,162.2
11487,E3,1035.75,0.25,78,162.2
11488,C#2,1035.75,0.25,78,162.2
11489,G6,1036.0,0.25,56,162.2
11490,E6,1036.0,0.25,56,162.2
11491,F#6,1036.25,0.25,56,162.2
11492,E-6,1036.25,0.25,56,162.2
11493,F3,1036.25,0.25,82,162.2
11494,D2,1036.25,0.25,82,162.2
11495,F6,1036.5,0.25,56,162.2
11496,D6,1036.5,0.25,56,162.2
11497,E6,1036.75,0.25,55,162.2
11498,C#6,1036.75,0.25,55,162.2
11499,F#3,1036.75,0.25,78,162.2
11500,E-2,1036.75,0.25,78,162.2
11501,E-6,1037.0,0.25,54,162.2
11502,C6,1037.0,0.25,54,162.2
11503,D6,1037.25,0.25,54,162.2
11504,B5,1037.25,0.25,54,162.2
11505,G3,1037.25,0.25,82,162.2
11506,E2,1037.25,0.25,82,162.2
11507,C#6,1037.5,0.25,54,162.2
11508,B-5,1037.5,0.25,54,162.2
11509,C6,1037.75,0.25,52,162.2
11510,A5,1037.75,0.25,52,162.2
11511,G#3,1037.75,0.25,78,162.2
11512,F2,1037.75,0.25,78,162.2
11513,B5,1038.0,0.25,52,162.2
11514,G#5,1038.0,0.25,52,162.2
11515,B-5,1038.25,0.25,52,162.2
11516,G5,1038.25,0.25,52,162.2
11517,A3,1038.25,0.25,82,162.2
11518,F#2,1038.25,0.25,82,162.2
11519,A5,1038.5,0.25,52,162.2
11520,F#5,1038.5,0.25,52,162.2
11521,G#5,1038.75,0.25,52,162.2
11522,F5,1038.75,0.25,52,162.2
11523,B-3,1038.75,0.25,80,162.2
11524,F#2,1038.75,0.25,80,162.2
11525,C#5,1039.0,0.25,49,162.2
11526,G5,1039.0,0.25,49,162.2
11527,E5,1039.0,0.25,49,162.2
11528,E-5,1039.25,0.25,50,162.2
11529,C5,1039.25,0.25,50,162.2
11530,C#4,1039.25,1.0,90,162.2
11531,B-2,1039.25,1.0,90,162.2
11532,E3,1039.25,1.0,90,162.2
11533,G3,1039.25,1.0,90,162.2
11534,D5,1039.5,0.25,50,162.2
11535,B-4,1039.5,0.25,50,162.2
11536,C5,1039.75,0.25,48,162.2
11537,A4,1039.75,0.25,48,162.2
11538,B4,1040.0,0.25,48,162.2
11539,G#4,1040.0,0.25,48,162.2
11540,F2,1040.146,13/125,69,162.2
11541,C3,1040.146,13/125,69,162.2
11542,A3,1040.146,13/125,69,162.2
11543,B-4,1040.25,73/500,48,162.2
11544,G4,1040.25,73/500,48,162.2
11545,F2,1040.25,229/500,69,162.2
11546,C3,1040.25,229/500,69,162.2
11547,A3,1040.25,229/500,69,162.2
11548,F4,1040.458,21/500,84,162.2
11549,C5,1040.458,21/500,84,162.2
11550,A5,1040.458,21/500,84,162.2
11551,F4,1040.5,229/500,84,162.2
11552,C5,1040.5,229/500,84,162.2
11553,A5,1040.5,229/500,84,162.2
11554,E3,1040.75,0.5,72,162.2
11555,E2,1040.75,0.5,72,162.2
11556,E4,1041.0,0.5,75,162.2
11557,E5,1041.0,0.5,75,162.2
11558,F3,1041.25,0.5,70,162.2
11559,F2,1041.25,0.5,70,162.2
11560,F4,1041.5,0.5,71,162.2
11561,F5,1041.5,0.5,71,162.2
11562,E3,1041.75,0.5,76,162.2
11563,E4,1041.75,0.5,76,162.2
11564,E5,1042.0,0.5,88,162.2
11565,E6,1042.0,0.5,88,162.2
11566,F3,1042.25,0.5,76,162.2
11567,F4,1042.25,0.5,76,162.2
11568,F5,1042.5,0.5,83,162.2
11569,F6,1042.5,0.5,83,162.2
11570,E5,1042.75,0.5,83,162.2
11571,E4,1042.75,0.5,83,162.2
11572,E7,1043.0,0.5,101,162.2
11573,E6,1043.0,0.5,101,162.2
11574,F4,1043.25,0.5,83,162.2
11575,F5,1043.25,0.5,83,162.2
11576,F6,1043.5,0.5,98,162.2
11577,F7,1043.5,0.5,98,162.2
11578,E3,1043.75,0.5,70,162.2
11579,E4,1043.75,0.5,70,162.2
11580,E6,1044.0,0.5,82,162.2
11581,E5,1044.0,0.5,82,162.2
11582,F3,1044.25,0.5,68,162.2
11583,F4,1044.25,0.5,68,162.2
11584,F5,1044.5,0.5,79,162.2
11585,F6,1044.5,0.5,79,162.2
11586,E2,1044.75,0.5,69,162.2
11587,E3,1044.75,0.5,69,162.2
11588,E4,1045.0,0.5,76,162.2
11589,E5,1045.0,0.5,76,162.2
11590,F2,1045.25,0.5,65,162.2
11591,F3,1045.25,0.5,65,162.2
11592,F4,1045.5,0.5,74,162.2
11593,F5,1045.5,0.5,74,162.2
11594,F1,1045.75,0.5,71,162.2
11595,F2,1045.75,0.5,71,162.2
11596,F3,1046.0,0.5,76,162.2
11597,C#3,1046.25,0.25,78,162.2
11598,B-1,1046.25,0.25,78,162.2
11599,E2,1046.25,0.25,78,162.2
11600,G2,1046.25,0.25,78,162.2
11601,C#7,1046.5,0.25,76,162.2
11602,B-6,1046.5,0.25,76,162.2
11603,C7,1046.75,0.25,59,162.2
11604,A6,1046.75,0.25,59,162.2
11605,D3,1046.75,0.25,78,162.2
11606,B1,1046.75,0.25,78,162.2
11607,B6,1047.0,0.25,59,162.2
11608,G#6,1047.0,0.25,59,162.2
11609,B-6,1047.25,0.25,58,162.2
11610,G6,1047.25,0.25,58,162.2
11611,E-3,1047.25,0.25,82,162.2
11612,C2,1047.25,0.25,82,162.2
11613,A6,1047.5,0.25,57,162.2
11614,F#6,1047.5,0.25,57,162.2
11615,G#6,1047.75,0.25,57,162.2
11616,F6,1047.75,0.25,57,162.2
11617,E3,1047.75,0.25,78,162.2
11618,C#2,1047.75,0.25,78,162.2
11619,G6,1048.0,0.25,56,162.2
11620,E6,1048.0,0.25,56,162.2
11621,F#6,1048.25,0.25,56,162.2
11622,E-6,1048.25,0.25,56,162.2
11623,F3,1048.25,0.25,82,162.2
11624,D2,1048.25,0.25,82,162.2
11625,F6,1048.5,0.25,56,162.2
11626,D6,1048.5,0.25,56,162.2
11627,E6,1048.75,0.25,55,162.2
11628,C#6,1048.75,0.25,55,162.2
11629,F#3,1048.75,0.25,78,162.2
11630,E-2,1048.75,0.25,78,162.2
11631,E-6,1049.0,0.25,54,162.2
11632,C6,1049.0,0.25,54,162.2
11633,D6,1049.25,0.25,54,162.2
11634,B5,1049.25,0.25,54,162.2
11635,G3,1049.25,0.25,82,162.2
11636,E2,1049.25,0.25,82,162.2
11637,C#6,1049.5,0.25,54,162.2
11638,B-5,1049.5,0.25,54,162.2
11639,C6,1049.75,0.25,52,162.2
11640,A5,1049.75,0.25,52,162.2
11641,G#3,1049.75,0.25,78,162.2
11642,F2,1049.75,0.25,78,162.2
11643,B5,1050.0,0.25,52,162.2
11644,G#5,1050.0,0.25,52,162.2
11645,B-5,1050.25,0.25,52,162.2
11646,G5,1050.25,0.25,52,162.2
11647,A3,1050.25,0.25,82,162.2
11648,F#2,1050.25,0.25,82,162.2
11649,A5,1050.5,0.25,52,162.2
11650,F#5,1050.5,0.25,52,162.2
11651,G#5,1050.75,0.25,52,162.2
11652,F5,1050.75,0.25,52,162.2
11653,B-3,1050.75,0.25,80,162.2
11654,F#2,1050.75,0.25,80,162.2
11655,C#5,1051.0,0.25,49,162.2
11656,G5,1051.0,0.25,49,162.2
11657,E5,1051.0,0.25,49,162.2
11658,E-5,1051.25,0.25,50,162.2
11659,C5,1051.25,0.25,50,162.2
11660,C#4,1051.25,1.0,90,162.2
11661,B-2,1051.25,1.0,90,162.2
11662,E3,1051.25,1.0,90,162.2
11663,G3,1051.25,1.0,90,162.2
11664,D5,1051.5,0.25,50,162.2
11665,B-4,1051.5,0.25,50,162.2
11666,C5,1051.75,0.25,48,162.2
11667,A4,1051.75,0.25,48,162.2
11668,B4,1052.0,0.25,48,162.2
11669,G#4,1052.0,0.25,48,162.2
11670,F2,1052.146,13/125,69,162.2
11671,C3,1052.146,13/125,69,162.2
11672,A3,1052.146,13/125,69,162.2
11673,B-4,1052.25,73/500,48,162.2
11674,G4,1052.25,73/500,48,162.2
11675,F2,1052.25,229/500,69,162.2
11676,C3,1052.25,229/500,69,162.2
11677,A3,1052.25,229/500,69,162.2
11678,F4,1052.458,21/500,84,162.2
11679,C5,1052.458,21/500,84,162.2
11680,A5,1052.458,21/500,84,162.2
11681,F4,1052.5,229/500,84,162.2
11682,C5,1052.5,229/500,84,162.2
11683,A5,1052.5,229/500,84,162.2
11684,E3,1052.75,0.5,70,162.2
11685,E4,1053.0,0.5,75,162.2
11686,E5,1053.0,0.5,75,162.2
11687,F3,1053.25,0.5,67,162.2
11688,F4,1053.5,0.5,71,162.2
11689,F5,1053.5,0.5,71,162.2
11690,E4,1053.75,0.5,76,162.2
11691,E5,1054.0,0.5,88,162.2
11692,E6,1054.0,0.5,88,162.2
11693,F4,1054.25,0.5,76,162.2
11694,F5,1054.5,0.5,83,162.2
11695,F6,1054.5,0.5,83,162.2
11696,E5,1054.75,0.5,84,162.2
11697,E7,1055.0,0.5,102,162.2
11698,E6,1055.0,0.5,102,162.2
11699,F5,1055.25,1.0,83,162.2
11700,F6,1055.5,1.0,98,162.2
11701,F7,1055.5,1.0,98,162.2
11702,F2,1056.25,19/125,51,162.2
11703,F#2,1056.402,19/125,52,162.2
11704,F3,1056.5,19/125,58,162.2
11705,G2,1056.556,19/125,53,162.2
11706,F#3,1056.652,19/125,59,162.2
11707,G#2,1056.708,19/125,54,162.2
11708,G3,1056.806,19/125,59,162.2
11709,A2,1056.86,19/125,55,162.2
11710,G#3,1056.958,19/125,60,162.2
11711,B-2,1057.013,19/125,56,162.2
11712,A3,1057.11,19/125,61,162.2
11713,B2,1057.165,19/125,57,162.2
11714,B-3,1057.263,19/125,61,162.2
11715,C3,1057.319,19/125,57,162.2
11716,B3,1057.415,19/125,62,162.2
11717,C#3,1057.471,19/125,58,162.2
11718,C4,1057.569,19/125,63,162.2
11719,D3,1057.623,19/125,59,162.2
11720,C#4,1057.721,19/125,64,162.2
11721,E-3,1057.775,19/125,60,162.2
11722,D4,1057.873,19/125,64,162.2
11723,E3,1057.927,19/125,61,162.2
11724,E-4,1058.025,19/125,65,162.2
11725,F3,1058.079,171/1000,62,162.2
11726,E4,1058.177,19/125,66,162.2
11727,F#3,1058.25,4.0,82,162.2
11728,F#2,1058.25,4.0,82,162.2
11729,F4,1058.329,171/1000,66,162.2
11730,F#4,1058.5,4.0,99,162.2
11731,A2,1062.25,4.0,75,162.2
11732,A1,1062.25,4.0,75,162.2
11733,A3,1062.5,4.0,99,162.2
11734,C#3,1066.25,4.0,75,162.2
11735,C#2,1066.25,4.0,75,162.2
11736,C#4,1066.5,4.0,99,162.2
11737,E2,1070.25,4.0,74,162.2
11738,E1,1070.25,4.0,74,162.2
11739,E3,1070.5,4.0,96,162.2
11740,F2,1074.25,1.0,68,162.2
11741,F1,1074.25,1.0,68,162.2
11742,F3,1074.5,0.5,40,162.2
11743,F#3,1075.0,0.5,33,162.2
11744,F3,1075.5,0.5,40,162.2
11745,F#3,1076.0,0.5,33,162.2
11746,F4,1076.25,1.0,48,162.2
11747,A3,1076.25,1.0,48,162.2
11748,C4,1076.25,1.0,48,162.2
11749,F3,1076.5,0.5,40,162.2
11750,B-3,1077.0,0.5,34,162.2
11751,F4,1077.25,0.188,44,162.2
11752,A3,1077.25,0.188,44,162.2
11753,C4,1077.25,0.188,44,162.2
11754,A3,1077.5,0.5,34,162.2
11755,F4,1077.75,0.188,44,162.2
11756,A3,1077.75,0.188,44,162.2
11757,C4,1077.75,0.188,44,162.2
11758,F#3,1078.0,0.5,34,162.2
11759,B-4,1078.25,0.188,48,162.2
11760,C#4,1078.25,0.188,48,162.2
11761,F4,1078.25,0.188,48,162.2
11762,F3,1078.5,0.5,40,162.2
11763,F#3,1079.0,0.5,36,162.2
11764,B-4,1079.25,0.188,44,162.2
11765,C#4,1079.25,0.188,44,162.2
11766,F4,1079.25,0.188,44,162.2
11767,F3,1079.5,0.5,40,162.2
11768,F#3,1080.0,0.5,36,162.2
11769,B-4,1080.25,1.0,48,162.2
11770,C#4,1080.25,1.0,48,162.2
11771,F4,1080.25,1.0,48,162.2
11772,F3,1080.5,0.5,40,162.2
11773,B-3,1081.0,0.5,35,162.2
11774,C#5,1081.25,0.188,44,162.2
11775,C#4,1081.25,0.188,44,162.2
11776,F4,1081.25,0.188,44,162.2
11777,A3,1081.5,0.5,35,162.2
11778,B-4,1081.75,0.188,44,162.2
11779,C#4,1081.75,0.188,44,162.2
11780,F4,1081.75,0.188,44,162.2
11781,F#3,1082.0,0.5,35,162.2
11782,A4,1082.25,0.188,48,162.2
11783,C4,1082.25,0.188,48,162.2
11784,F4,1082.25,0.188,48,162.2
11785,F3,1082.5,0.5,40,162.2
11786,F#3,1083.0,0.5,35,162.2
11787,F4,1083.25,0.188,44,162.2
11788,A3,1083.25,0.188,44,162.2
11789,C4,1083.25,0.188,44,162.2
11790,F3,1083.5,0.5,40,162.2
11791,F#3,1084.0,0.5,35,162.2
11792,F5,1084.25,1.0,48,162.2
11793,A4,1084.25,1.0,48,162.2
11794,C5,1084.25,1.0,48,162.2
11795,F3,1084.5,0.5,40,162.2
11796,B-3,1085.0,0.5,34,162.2
11797,F5,1085.25,0.188,44,162.2
11798,A4,1085.25,0.188,44,162.2
11799,C5,1085.25,0.188,44,162.2
11800,A3,1085.5,0.5,34,162.2
11801,F5,1085.75,0.188,44,162.2
11802,A4,1085.75,0.188,44,162.2
11803,C5,1085.75,0.188,44,162.2
11804,F#3,1086.0,0.5,34,162.2
11805,B-5,1086.25,0.188,48,162.2
11806,C#5,1086.25,0.188,48,162.2
11807,F5,1086.25,0.188,48,162.2
11808,F3,1086.5,0.5,40,162.2
11809,F#3,1087.0,0.5,36,162.2
11810,B-5,1087.25,0.188,44,162.2
11811,C#5,1087.25,0.188,44,162.2
11812,F5,1087.25,0.188,44,162.2
11813,F3,1087.5,0.5,40,162.2
11814,F#3,1088.0,0.5,36,162.2
11815,B-5,1088.25,1.0,48,162.2
11816,C#5,1088.25,1.0,48,162.2
11817,F5,1088.25,1.0,48,162.2
11818,F3,1088.5,0.5,40,162.2
11819,B-3,1089.0,0.5,35,162.2
11820,C#6,1089.25,0.188,44,162.2
11821,C#5,1089.25,0.188,44,162.2
11822,F5,1089.25,0.188,44,162.2
11823,A3,1089.5,0.5,35,162.2
11824,B-5,1089.75,0.188,44,162.2
11825,C#5,1089.75,0.188,44,162.2
11826,F5,1089.75,0.188,44,162.2
11827,F#3,1090.0,0.5,35,162.2
11828,A5,1090.25,1.0,48,162.2
11829,C5,1090.25,1.0,48,162.2
11830,F5,1090.25,1.0,48,162.2
11831,F3,1090.5,0.5,40,162.2
11832,F#3,1091.0,0.5,36,162.2
11833,C6,1091.25,1.0,51,162.2
11834,A4,1091.25,1.0,51,162.2
11835,F5,1091.25,1.0,51,162.2
11836,F3,1091.5,0.5,40,162.2
11837,F#3,1092.0,0.5,36,162.2
11838,C#6,1092.25,1.0,54,162.2
11839,B-4,1092.25,1.0,54,162.2
11840,F5,1092.25,1.0,54,162.2
11841,F3,1092.5,0.5,43,162.2
11842,C#4,1093.0,0.5,45,162.2
11843,B-5,1093.25,1.0,49,162.2
11844,C#5,1093.25,1.0,49,162.2
11845,F5,1093.25,1.0,49,162.2
11846,B-3,1093.5,0.5,42,162.2
11847,F#3,1094.0,0.5,42,162.2
11848,A5,1094.25,1.0,53,162.2
11849,C5,1094.25,1.0,53,162.2
11850,F5,1094.25,1.0,53,162.2
11851,F3,1094.5,0.5,45,162.2
11852,F#3,1095.0,0.5,37,162.2
11853,C6,1095.25,1.0,56,162.2
11854,A4,1095.25,1.0,56,162.2
11855,F5,1095.25,1.0,56,162.2
11856,F3,1095.5,0.5,44,162.2
11857,F#3,1096.0,0.5,38,162.2
11858,C#6,1096.25,1.0,60,162.2
11859,B-4,1096.25,1.0,60,162.2
11860,F5,1096.25,1.0,60,162.2
11861,F3,1096.5,0.5,42,162.2
11862,C#4,1097.0,0.5,47,162.2
11863,B-5,1097.25,1.0,56,162.2
11864,C#5,1097.25,1.0,56,162.2
11865,F5,1097.25,1.0,56,162.2
11866,B-3,1097.5,0.5,43,162.2
11867,F#3,1098.0,0.5,43,162.2
11868,C5,1098.25,2.0,56,162.2
11869,F5,1098.25,2.0,56,162.2
11870,A5,1098.25,2.0,56,162.2
11871,F3,1098.5,0.5,43,162.2
11872,F#3,1099.0,0.5,45,162.2
11873,A3,1099.5,0.5,47,162.2
11874,B-3,1100.0,0.5,49,162.2
11875,C4,1100.5,0.5,53,162.2
11876,C#4,1101.0,0.5,55,162.2
11877,E4,1101.5,0.5,57,162.2
11878,F4,1102.0,479/1000,59,162.2
11879,F4,1102.5,0.5,61,162.2
11880,E4,1103.0,0.5,61,162.2
11881,C#4,1103.5,0.5,59,162.2
11882,C4,1104.0,0.5,58,162.2
11883,B-3,1104.5,0.5,56,162.2
11884,A3,1105.0,0.5,54,162.2
11885,F#2,1105.25,0.5,45,162.2
11886,A1,1105.25,1.0,50,162.2
11887,C2,1105.25,1.0,50,162.2
11888,F#3,1105.5,0.5,53,162.2
11889,F4,1105.5,1.0,60,162.2
11890,E-4,1105.5,1.0,60,162.2
11891,F2,1105.75,0.5,44,162.2
11892,F3,1106.0,0.5,52,162.2
11893,F2,1106.25,0.5,36,162.2
11894,B-1,1106.25,2.0,50,162.2
11895,C#2,1106.25,2.0,50,162.2
11896,C#4,1106.5,2.0,53,162.2
11897,F4,1106.5,2.0,64,162.2
11898,F3,1106.5,0.5,43,162.2
11899,F#2,1106.75,0.5,38,162.2
11900,F#3,1107.0,0.5,45,162.2
11901,A2,1107.25,0.5,39,162.2
11902,A3,1107.5,0.5,47,162.2
11903,B-2,1107.75,0.5,41,162.2
11904,B-3,1108.0,0.5,49,162.2
11905,C3,1108.25,0.5,45,162.2
11906,C4,1108.5,0.5,53,162.2
11907,F4,1108.5,1.0,64,162.2
11908,C#3,1108.75,0.5,46,162.2
11909,C#4,1109.0,0.5,55,162.2
11910,E3,1109.25,0.5,48,162.2
11911,E4,1109.5,0.5,57,162.2
11912,F3,1109.75,479/1000,56,162.2
11913,F4,1110.0,479/1000,67,162.2
11914,F3,1110.25,2.0,57,162.2
11915,F4,1110.5,2.0,68,162.2
11916,E3,1110.75,0.5,51,162.2
11917,E4,1111.0,0.5,61,162.2
11918,C#3,1111.25,0.5,50,162.2
11919,C#4,1111.5,0.5,59,162.2
11920,C3,1111.75,0.5,49,162.2
11921,C4,1112.0,0.5,58,162.2
11922,B-2,1112.25,0.5,47,162.2
11923,C2,1112.25,2.0,49,162.2
11924,E-2,1112.25,2.0,49,162.2
11925,B-3,1112.5,0.5,56,162.2
11926,E-4,1112.5,2.0,65,162.2
11927,F4,1112.5,2.0,65,162.2
11928,A2,1112.75,0.5,45,162.2
11929,A3,1113.0,0.5,54,162.2
11930,F#2,1113.25,0.5,45,162.2
11931,F#3,1113.5,0.5,53,162.2
11932,F2,1113.75,0.5,44,162.2
11933,F3,1114.0,0.5,52,162.2
11934,C#2,1114.25,2.0,53,162.2
11935,F2,1114.25,0.5,36,162.2
11936,C#4,1114.5,2.0,53,162.2
11937,F4,1114.5,2.0,64,162.2
11938,F3,1114.5,0.5,43,162.2
11939,F#2,1114.75,0.5,38,162.2
11940,F#3,1115.0,0.5,45,162.2
11941,A2,1115.25,0.5,39,162.2
11942,A3,1115.5,0.5,47,162.2
11943,B-2,1115.75,0.5,41,162.2
11944,B-3,1116.0,0.5,49,162.2
11945,C3,1116.25,0.5,45,162.2
11946,C4,1116.5,0.5,53,162.2
11947,F4,1116.5,1.0,64,162.2
11948,C#3,1116.75,0.5,46,162.2
11949,C#4,1117.0,0.5,55,162.2
11950,E3,1117.25,0.5,48,162.2
11951,E4,1117.5,0.5,57,162.2
11952,F3,1117.75,0.5,56,162.2
11953,F4,1118.0,0.5,67,162.2
11954,F3,1118.25,2.0,57,162.2
11955,F4,1118.5,2.0,68,162.2
11956,E3,1118.75,0.5,51,162.2
11957,E4,1119.0,0.5,61,162.2
11958,C#3,1119.25,0.5,50,162.2
11959,C#4,1119.5,0.5,59,162.2
11960,C3,1119.75,0.5,49,162.2
11961,C4,1120.0,0.5,58,162.2
11962,D2,1120.25,2.0,52,162.2
11963,G#2,1120.25,2.0,52,162.2
11964,B2,1120.25,2.0,52,162.2
11965,F3,1120.5,2.0,62,162.2
11966,F4,1120.5,2.0,62,162.2
11967,B3,1120.5,2.0,62,162.2
11968,F2,1120.75,0.5,45,162.2
11969,G#3,1121.0,0.5,54,162.2
11970,F#2,1121.25,0.5,46,162.2
11971,G3,1121.5,0.5,54,162.2
11972,G2,1121.75,0.5,45,162.2
11973,F#3,1122.0,0.5,54,162.2
11974,C#2,1122.25,2.0,54,162.2
11975,G#2,1122.25,2.0,54,162.2
11976,B2,1122.25,2.0,54,162.2
11977,F3,1122.5,2.0,65,162.2
11978,F4,1122.5,2.0,65,162.2
11979,B3,1122.5,2.0,65,162.2
11980,F2,1122.75,0.5,48,162.2
11981,G#3,1123.0,0.5,58,162.2
11982,F#2,1123.25,0.5,49,162.2
11983,G3,1123.5,0.5,57,162.2
11984,G2,1123.75,0.5,48,162.2
11985,F#3,1124.0,0.5,57,162.2
11986,C2,1124.25,2.0,57,162.2
11987,G#2,1124.25,2.0,57,162.2
11988,C3,1124.25,2.0,57,162.2
11989,F3,1124.5,2.0,70,162.2
11990,F4,1124.5,2.0,70,162.2
11991,C4,1124.5,2.0,70,162.2
11992,F2,1124.75,0.5,51,162.2
11993,G#3,1125.0,0.5,61,162.2
11994,F#2,1125.25,0.5,52,162.2
11995,G3,1125.5,0.5,61,162.2
11996,G2,1125.75,0.5,51,162.2
11997,F#3,1126.0,0.5,60,162.2
11998,D2,1126.25,2.0,57,162.2
11999,G#2,1126.25,2.0,57,162.2
12000,D3,1126.25,2.0,57,162.2
12001,F3,1126.5,2.0,73,162.2
12002,F4,1126.5,2.0,73,162.2
12003,D4,1126.5,2.0,73,162.2
12004,F2,1126.75,0.5,54,162.2
12005,G#3,1127.0,0.5,65,162.2
12006,F#2,1127.25,0.5,54,162.2
12007,G3,1127.5,0.5,64,162.2
12008,G2,1127.75,0.5,54,162.2
12009,F#3,1128.0,0.5,64,162.2
12010,B-1,1128.25,2.0,59,162.2
12011,G#2,1128.25,249/250,59,162.2
12012,D3,1128.25,1.5,70,162.2
12013,F2,1128.75,0.5,57,162.2
12014,D3,1129.25,1.0,58,162.2
12015,G#2,1129.25,1.0,58,162.2
12016,F3,1129.5,0.5,78,162.2
12017,F4,1129.5,1.0,73,162.2
12018,D4,1129.5,1.0,73,162.2
12019,E2,1129.75,0.406,58,162.2
12020,G#3,1130.0,0.5,78,162.2
12021,A1,1130.156,0.094,62,162.2
12022,E2,1130.156,0.094,62,162.2
12023,A2,1130.219,0.031,72,162.2
12024,C#3,1130.219,0.031,72,162.2
12025,E3,1130.5,0.5,79,162.2
12026,D4,1130.5,1.0,82,162.2
12027,E4,1130.5,1.0,82,162.2
12028,G#3,1131.0,0.5,80,162.2
12029,A1,1131.219,0.969,62,162.2
12030,E2,1131.219,0.969,62,162.2
12031,A2,1131.219,0.969,72,162.2
12032,C#3,1131.219,0.969,72,162.2
12033,A3,1131.5,0.5,40,162.2
12034,B-3,1132.0,0.5,33,162.2
12035,A3,1132.5,0.5,40,162.2
12036,B-3,1133.0,0.5,33,162.2
12037,A4,1133.219,1.0,48,162.2
12038,C#4,1133.219,1.0,48,162.2
12039,E4,1133.219,1.0,48,162.2
12040,A3,1133.5,0.5,40,162.2
12041,D4,1134.0,0.5,34,162.2
12042,A4,1134.219,0.188,44,162.2
12043,C#4,1134.219,0.188,44,162.2
12044,E4,1134.219,0.188,44,162.2
12045,C#4,1134.5,0.5,34,162.2
12046,A4,1134.719,0.188,44,162.2
12047,C#4,1134.719,0.188,44,162.2
12048,E4,1134.719,0.188,44,162.2
12049,B-3,1135.0,0.5,34,162.2
12050,D5,1135.219,0.188,48,162.2
12051,F4,1135.219,0.188,48,162.2
12052,A4,1135.219,0.188,48,162.2
12053,A3,1135.5,0.5,40,162.2
12054,B-3,1136.0,0.5,36,162.2
12055,D5,1136.219,0.188,44,162.2
12056,F4,1136.219,0.188,44,162.2
12057,A4,1136.219,0.188,44,162.2
12058,A3,1136.5,0.5,40,162.2
12059,B-3,1137.0,0.5,36,162.2
12060,D5,1137.219,1.0,48,162.2
12061,F4,1137.219,1.0,48,162.2
12062,A4,1137.219,1.0,48,162.2
12063,A3,1137.5,0.5,40,162.2
12064,D4,1138.0,0.5,35,162.2
12065,F5,1138.219,0.188,44,162.2
12066,A4,1138.219,0.188,44,162.2
12067,D5,1138.219,0.188,44,162.2
12068,C#4,1138.5,0.5,35,162.2
12069,D5,1138.719,0.188,44,162.2
12070,F4,1138.719,0.188,44,162.2
12071,A4,1138.719,0.188,44,162.2
12072,B-3,1139.0,0.5,35,162.2
12073,C#5,1139.219,0.188,48,162.2
12074,E4,1139.219,0.188,48,162.2
12075,A4,1139.219,0.188,48,162.2
12076,A3,1139.5,0.5,40,162.2
12077,B-3,1140.0,0.5,35,162.2
12078,A4,1140.219,0.188,44,162.2
12079,C#4,1140.219,0.188,44,162.2
12080,E4,1140.219,0.188,44,162.2
12081,A3,1140.5,0.5,40,162.2
12082,B-3,1141.0,0.5,35,162.2
12083,A5,1141.219,1.0,48,162.2
12084,C#5,1141.219,1.0,48,162.2
12085,E5,1141.219,1.0,48,162.2
12086,A3,1141.5,0.5,40,162.2
12087,D4,1142.0,0.5,34,162.2
12088,A5,1142.219,0.188,44,162.2
12089,C#5,1142.219,0.188,44,162.2
12090,E5,1142.219,0.188,44,162.2
12091,C#4,1142.5,0.5,34,162.2
12092,A5,1142.719,0.188,44,162.2
12093,C#5,1142.719,0.188,44,162.2
12094,E5,1142.719,0.188,44,162.2
12095,B-3,1143.0,0.5,34,162.2
12096,D6,1143.219,0.188,48,162.2
12097,F5,1143.219,0.188,48,162.2
12098,A5,1143.219,0.188,48,162.2
12099,A3,1143.5,0.5,40,162.2
12100,B-3,1144.0,0.5,36,162.2
12101,D6,1144.219,0.188,44,162.2
12102,F5,1144.219,0.188,44,162.2
12103,A5,1144.219,0.188,44,162.2
12104,A3,1144.5,0.5,40,162.2
12105,B-3,1145.0,0.5,36,162.2
12106,D6,1145.219,1.0,48,162.2
12107,F5,1145.219,1.0,48,162.2
12108,A5,1145.219,1.0,48,162.2
12109,A3,1145.5,0.5,40,162.2
12110,D4,1146.0,0.5,35,162.2
12111,F6,1146.219,0.25,44,162.2
12112,A5,1146.219,0.25,44,162.2
12113,D6,1146.219,0.25,44,162.2
12114,C#4,1146.5,0.5,35,162.2
12115,D6,1146.719,0.25,44,162.2
12116,F5,1146.719,0.25,44,162.2
12117,A5,1146.719,0.25,44,162.2
12118,B-3,1147.0,0.5,35,162.2
12119,C#6,1147.219,0.875,48,162.2
12120,E5,1147.219,0.875,48,162.2
12121,A5,1147.219,0.875,48,162.2
12122,A3,1147.5,0.5,40,162.2
12123,B-3,1148.0,0.5,36,162.2
12124,C#5,1148.094,1.0,48,162.2
12125,A5,1148.156,0.938,48,162.2
12126,E6,1148.219,0.875,57,162.2
12127,A3,1148.5,0.5,40,162.2
12128,B-3,1149.0,0.5,36,162.2
12129,D5,1149.094,0.125,51,162.2
12130,A5,1149.156,0.062,51,162.2
12131,F6,1149.219,1.0,60,162.2
12132,D5,1149.219,1.0,51,162.2
12133,A5,1149.219,0.938,51,162.2
12134,A3,1149.5,0.5,43,162.2
12135,F4,1150.0,0.5,45,162.2
12136,D6,1150.219,1.0,49,162.2
12137,F5,1150.219,1.0,49,162.2
12138,A5,1150.219,1.0,49,162.2
12139,D4,1150.5,0.5,42,162.2
12140,B-3,1151.0,0.5,42,162.2
12141,C#6,1151.219,0.875,53,162.2
12142,E5,1151.219,0.875,53,162.2
12143,A5,1151.219,0.875,53,162.2
12144,A3,1151.5,0.5,45,162.2
12145,B-3,1152.0,0.5,37,162.2
12146,C#5,1152.094,1.0,53,162.2
12147,A5,1152.156,0.938,53,162.2
12148,E6,1152.219,0.875,63,162.2
12149,A3,1152.5,0.5,44,162.2
12150,B-3,1153.0,0.5,38,162.2
12151,D5,1153.094,0.125,56,162.2
12152,A5,1153.156,0.062,56,162.2
12153,F6,1153.219,1.0,67,162.2
12154,D5,1153.219,1.0,56,162.2
12155,A5,1153.219,0.938,56,162.2
12156,A3,1153.5,0.5,42,162.2
12157,F4,1154.0,0.5,47,162.2
12158,D6,1154.219,1.0,56,162.2
12159,F5,1154.219,1.0,56,162.2
12160,A5,1154.219,1.0,56,162.2
12161,D4,1154.5,0.5,43,162.2
12162,B-3,1155.0,0.5,43,162.2
12163,E5,1155.219,2.0,56,162.2
12164,A5,1155.219,2.0,56,162.2
12165,C#6,1155.219,2.0,56,162.2
12166,A3,1155.5,0.5,43,162.2
12167,B-3,1156.0,0.5,45,162.2
12168,C#4,1156.5,0.5,47,162.2
12169,D4,1157.0,0.5,49,162.2
12170,E4,1157.5,0.5,53,162.2
12171,F4,1158.0,0.5,55,162.2
12172,G#4,1158.5,0.5,57,162.2
12173,A4,1159.0,0.5,59,162.2
12174,A4,1159.5,0.5,61,162.2
12175,G#4,1160.0,0.5,61,162.2
12176,F4,1160.5,0.5,59,162.2
12177,E4,1161.0,0.5,58,162.2
12178,D4,1161.5,0.5,56,162.2
12179,C#4,1162.0,0.5,54,162.2
12180,B-2,1162.219,0.5,45,162.2
12181,C#2,1162.219,1.0,50,162.2
12182,E2,1162.219,1.0,50,162.2
12183,B-3,1162.5,0.5,53,162.2
12184,A4,1162.5,1.0,60,162.2
12185,G4,1162.5,1.0,60,162.2
12186,A2,1162.719,0.5,44,162.2
12187,A3,1163.0,0.5,52,162.2
12188,A2,1163.219,0.5,36,162.2
12189,D2,1163.219,2.0,50,162.2
12190,F2,1163.219,2.0,50,162.2
12191,F4,1163.5,2.0,53,162.2
12192,A4,1163.5,2.0,64,162.2
12193,A3,1163.5,0.5,43,162.2
12194,B-2,1163.719,0.5,38,162.2
12195,B-3,1164.0,0.5,45,162.2
12196,C#3,1164.219,0.5,39,162.2
12197,C#4,1164.5,0.5,47,162.2
12198,D3,1164.719,0.5,41,162.2
12199,D4,1165.0,0.5,49,162.2
12200,E3,1165.219,0.5,45,162.2
12201,E4,1165.5,0.5,53,162.2
12202,A4,1165.5,1.0,64,162.2
12203,F3,1165.719,0.5,46,162.2
12204,F4,1166.0,0.5,55,162.2
12205,G#3,1166.219,0.5,48,162.2
12206,G#4,1166.5,0.5,57,162.2
12207,A3,1166.719,229/500,56,162.2
12208,A4,1167.0,229/500,67,162.2
12209,A3,1167.219,2.0,57,162.2
12210,A4,1167.5,2.0,68,162.2
12211,G#3,1167.719,0.5,51,162.2
12212,G#4,1168.0,0.5,61,162.2
12213,F3,1168.219,0.5,50,162.2
12214,F4,1168.5,0.5,59,162.2
12215,E3,1168.719,0.5,49,162.2
12216,E4,1169.0,0.5,58,162.2
12217,D3,1169.219,0.5,47,162.2
12218,E2,1169.219,2.0,49,162.2
12219,G2,1169.219,2.0,49,162.2
12220,D4,1169.5,0.5,56,162.2
12221,G4,1169.5,2.0,65,162.2
12222,A4,1169.5,2.0,65,162.2
12223,C#3,1169.719,0.5,45,162.2
12224,C#4,1170.0,0.5,54,162.2
12225,B-2,1170.219,0.5,45,162.2
12226,B-3,1170.5,0.5,53,162.2
12227,A2,1170.719,229/500,44,162.2
12228,A3,1171.0,229/500,52,162.2
12229,F2,1171.219,2.0,44,162.2
12230,A2,1171.219,2.0,44,162.2
12231,A3,1171.5,0.5,43,162.2
12232,F4,1171.5,2.0,58,162.2
12233,A4,1171.5,2.0,58,162.2
12234,B-2,1171.719,0.5,38,162.2
12235,B-3,1172.0,0.5,45,162.2
12236,C#3,1172.219,0.5,39,162.2
12237,C#4,1172.5,0.5,47,162.2
12238,D3,1172.719,0.5,41,162.2
12239,D4,1173.0,0.5,49,162.2
12240,E3,1173.219,0.5,45,162.2
12241,E4,1173.5,0.5,53,162.2
12242,F3,1173.719,0.5,46,162.2
12243,F4,1174.0,0.5,55,162.2
12244,G#3,1174.219,0.5,48,162.2
12245,G#4,1174.5,0.5,57,162.2
12246,A3,1174.719,229/500,56,162.2
12247,A4,1175.0,229/500,67,162.2
12248,A3,1175.219,2.0,57,162.2
12249,A4,1175.5,2.0,68,162.2
12250,G#3,1175.719,0.5,51,162.2
12251,G#4,1176.0,0.5,61,162.2
12252,F3,1176.219,0.5,50,162.2
12253,F4,1176.5,0.5,59,162.2
12254,E3,1176.719,0.5,49,162.2
12255,E4,1177.0,0.5,58,162.2
12256,F#2,1177.219,2.0,52,162.2
12257,C3,1177.219,2.0,52,162.2
12258,E-3,1177.219,2.0,52,162.2
12259,A3,1177.5,2.0,62,162.2
12260,A4,1177.5,2.0,62,162.2
12261,E-4,1177.5,2.0,62,162.2
12262,A2,1177.719,0.5,45,162.2
12263,C4,1178.0,0.5,54,162.2
12264,B-2,1178.219,0.5,46,162.2
12265,B3,1178.5,0.5,54,162.2
12266,B2,1178.719,0.5,45,162.2
12267,B-3,1179.0,0.5,54,162.2
12268,F2,1179.219,2.0,54,162.2
12269,C3,1179.219,2.0,54,162.2
12270,E-3,1179.219,2.0,54,162.2
12271,A3,1179.5,2.0,65,162.2
12272,A4,1179.5,2.0,65,162.2
12273,E-4,1179.5,2.0,65,162.2
12274,A2,1179.719,0.5,48,162.2
12275,C4,1180.0,0.5,58,162.2
12276,B-2,1180.219,0.5,49,162.2
12277,B3,1180.5,0.5,57,162.2
12278,B2,1180.719,0.5,48,162.2
12279,B-3,1181.0,0.5,57,162.2
12280,E2,1181.219,2.0,57,162.2
12281,C3,1181.219,2.0,57,162.2
12282,E3,1181.219,2.0,57,162.2
12283,A3,1181.5,2.0,70,162.2
12284,A4,1181.5,2.0,70,162.2
12285,E4,1181.5,2.0,70,162.2
12286,A2,1181.719,0.5,51,162.2
12287,C4,1182.0,0.5,61,162.2
12288,B-2,1182.219,0.5,52,162.2
12289,B3,1182.5,0.5,61,162.2
12290,B2,1182.719,0.5,51,162.2
12291,B-3,1183.0,0.5,60,162.2
12292,F#2,1183.219,2.0,57,162.2
12293,C3,1183.219,2.0,57,162.2
12294,F#3,1183.219,2.0,57,162.2
12295,A3,1183.5,2.0,73,162.2
12296,A4,1183.5,2.0,73,162.2
12297,F#4,1183.5,2.0,73,162.2
12298,A2,1183.719,0.5,54,162.2
12299,C4,1184.0,0.5,65,162.2
12300,B-2,1184.219,0.5,54,162.2
12301,B3,1184.5,0.5,64,162.2
12302,B2,1184.719,0.5,54,162.2
12303,B-3,1185.0,0.5,64,162.2
12304,F#3,1185.219,0.5,70,162.2
12305,D2,1185.219,2.0,59,162.2
12306,C3,1185.219,2.0,59,162.2
12307,A2,1185.719,0.5,57,162.2
12308,F#3,1186.219,0.5,58,162.2
12309,B2,1186.219,0.5,58,162.2
12310,B-3,1186.5,0.5,78,162.2
12311,A4,1186.5,1.0,73,162.2
12312,F#4,1186.5,1.0,73,162.2
12313,G#2,1186.719,0.5,58,162.2
12314,C4,1187.0,0.5,78,162.2
12315,C#3,1187.219,0.25,57,162.2
12316,C#2,1187.219,0.25,57,162.2
12317,G#2,1187.219,0.25,57,162.2
12318,G#3,1187.5,0.5,70,162.2
12319,F#4,1187.5,1.0,71,162.2
12320,G#4,1187.5,1.0,71,162.2
12321,D3,1187.719,0.25,50,162.2
12322,D2,1187.719,0.25,50,162.2
12323,C4,1188.0,0.5,77,162.2
12324,C#3,1188.219,0.25,53,162.2
12325,C#2,1188.219,0.25,53,162.2
12326,G#2,1188.219,0.25,53,162.2
12327,F3,1188.5,1.0,77,162.2
12328,C#4,1188.5,1.0,77,162.2
12329,D3,1188.719,0.25,48,162.2
12330,D2,1188.719,0.25,48,162.2
12331,C#3,1189.219,0.25,56,162.2
12332,C#2,1189.219,0.25,56,162.2
12333,F#3,1189.719,0.25,50,162.2
12334,F#2,1189.719,0.25,50,162.2
12335,F3,1190.219,0.25,57,162.2
12336,F2,1190.219,0.25,57,162.2
12337,C#5,1190.5,1.0,57,162.2
12338,C#4,1190.5,1.0,57,162.2
12339,F4,1190.5,1.0,57,162.2
12340,D3,1190.719,0.25,50,162.2
12341,D2,1190.719,0.25,50,162.2
12342,C#3,1191.219,0.25,56,162.2
12343,C#2,1191.219,0.25,56,162.2
12344,C#5,1191.5,0.25,52,162.2
12345,C#4,1191.5,0.25,52,162.2
12346,F4,1191.5,0.25,52,162.2
12347,D3,1191.719,0.25,50,162.2
12348,D2,1191.719,0.25,50,162.2
12349,C#5,1192.0,0.25,52,162.2
12350,C#4,1192.0,0.25,52,162.2
12351,F4,1192.0,0.25,52,162.2
12352,C#3,1192.219,0.25,56,162.2
12353,C#2,1192.219,0.25,56,162.2
12354,F#5,1192.5,0.25,57,162.2
12355,F#4,1192.5,0.25,57,162.2
12356,A4,1192.5,0.25,57,162.2
12357,D3,1192.719,0.25,50,162.2
12358,D2,1192.719,0.25,50,162.2
12359,C#3,1193.219,0.25,56,162.2
12360,C#2,1193.219,0.25,56,162.2
12361,F#5,1193.5,0.25,52,162.2
12362,F#4,1193.5,0.25,52,162.2
12363,A4,1193.5,0.25,52,162.2
12364,F#3,1193.719,0.25,50,162.2
12365,F#2,1193.719,0.25,50,162.2
12366,F3,1194.219,0.25,57,162.2
12367,F2,1194.219,0.25,57,162.2
12368,F#5,1194.5,1.0,57,162.2
12369,F#4,1194.5,1.0,57,162.2
12370,A4,1194.5,1.0,57,162.2
12371,D3,1194.719,0.25,50,162.2
12372,D2,1194.719,0.25,50,162.2
12373,C#3,1195.219,0.25,56,162.2
12374,C#2,1195.219,0.25,56,162.2
12375,A5,1195.5,0.25,52,162.2
12376,A4,1195.5,0.25,52,162.2
12377,C#5,1195.5,0.25,52,162.2
12378,D3,1195.719,0.25,50,162.2
12379,D2,1195.719,0.25,50,162.2
12380,F#5,1196.0,0.25,52,162.2
12381,F#4,1196.0,0.25,52,162.2
12382,A4,1196.0,0.25,52,162.2
12383,C#3,1196.219,0.25,56,162.2
12384,C#2,1196.219,0.25,56,162.2
12385,F5,1196.5,0.25,57,162.2
12386,F4,1196.5,0.25,57,162.2
12387,G#4,1196.5,0.25,57,162.2
12388,D3,1196.719,0.25,50,162.2
12389,D2,1196.719,0.25,50,162.2
12390,C#3,1197.219,0.25,58,162.2
12391,C#2,1197.219,0.25,58,162.2
12392,C#5,1197.5,0.25,52,162.2
12393,C#4,1197.5,0.25,52,162.2
12394,F4,1197.5,0.25,52,162.2
12395,G#3,1197.719,0.25,52,162.2
12396,G#2,1197.719,0.25,52,162.2
12397,F3,1198.219,0.25,60,162.2
12398,F2,1198.219,0.25,60,162.2
12399,C#6,1198.5,1.0,63,162.2
12400,C#5,1198.5,1.0,63,162.2
12401,F5,1198.5,1.0,63,162.2
12402,D3,1198.719,0.25,52,162.2
12403,D2,1198.719,0.25,52,162.2
12404,C#3,1199.219,0.25,58,162.2
12405,C#2,1199.219,0.25,58,162.2
12406,C#6,1199.5,0.25,56,162.2
12407,C#5,1199.5,0.25,56,162.2
12408,F5,1199.5,0.25,56,162.2
12409,D3,1199.719,0.25,52,162.2
12410,D2,1199.719,0.25,52,162.2
12411,C#6,1200.0,0.25,56,162.2
12412,C#5,1200.0,0.25,56,162.2
12413,F5,1200.0,0.25,56,162.2
12414,C#3,1200.219,0.25,58,162.2
12415,C#2,1200.219,0.25,58,162.2
12416,F#6,1200.5,0.25,63,162.2
12417,F#5,1200.5,0.25,63,162.2
12418,A5,1200.5,0.25,63,162.2
12419,D3,1200.719,0.25,52,162.2
12420,D2,1200.719,0.25,52,162.2
12421,C#3,1201.219,0.25,58,162.2
12422,C#2,1201.219,0.25,58,162.2
12423,F#6,1201.5,0.25,56,162.2
12424,F#5,1201.5,0.25,56,162.2
12425,A5,1201.5,0.25,56,162.2
12426,D3,1201.719,0.25,52,162.2
12427,D2,1201.719,0.25,52,162.2
12428,E-3,1202.219,0.25,60,162.2
12429,E-2,1202.219,0.25,60,162.2
12430,F#6,1202.5,1.0,62,162.2
12431,F#5,1202.5,1.0,62,162.2
12432,A5,1202.5,1.0,62,162.2
12433,E3,1202.719,0.25,52,162.2
12434,E2,1202.719,0.25,52,162.2
12435,F3,1203.219,0.25,64,162.2
12436,F2,1203.219,0.25,64,162.2
12437,A6,1203.5,0.25,56,162.2
12438,A5,1203.5,0.25,56,162.2
12439,C#6,1203.5,0.25,56,162.2
12440,F#3,1203.719,0.25,57,162.2
12441,F#2,1203.719,0.25,57,162.2
12442,F#6,1204.0,0.25,56,162.2
12443,F#5,1204.0,0.25,56,162.2
12444,A5,1204.0,0.25,56,162.2
12445,F3,1204.219,0.25,64,162.2
12446,F2,1204.219,0.25,64,162.2
12447,F6,1204.5,0.25,62,162.2
12448,F5,1204.5,0.25,62,162.2
12449,A5,1204.5,0.25,62,162.2
12450,F#3,1204.719,0.25,56,162.2
12451,F#2,1204.719,0.25,56,162.2
12452,F3,1205.219,0.25,56,162.2
12453,F2,1205.219,0.25,56,162.2
12454,B-3,1205.719,0.25,50,162.2
12455,B-2,1205.719,0.25,50,162.2
12456,A3,1206.219,0.25,57,162.2
12457,A2,1206.219,0.25,57,162.2
12458,F5,1206.5,1.0,57,162.2
12459,F4,1206.5,1.0,57,162.2
12460,A4,1206.5,1.0,57,162.2
12461,F#3,1206.719,0.25,50,162.2
12462,F#2,1206.719,0.25,50,162.2
12463,F3,1207.219,0.25,56,162.2
12464,F2,1207.219,0.25,56,162.2
12465,F5,1207.5,0.25,52,162.2
12466,F4,1207.5,0.25,52,162.2
12467,A4,1207.5,0.25,52,162.2
12468,F#3,1207.719,0.25,50,162.2
12469,F#2,1207.719,0.25,50,162.2
12470,F5,1208.0,0.25,52,162.2
12471,F4,1208.0,0.25,52,162.2
12472,A4,1208.0,0.25,52,162.2
12473,F3,1208.219,0.125,56,162.2
12474,F2,1208.219,0.125,56,162.2
12475,B-5,1208.5,0.25,57,162.2
12476,B-4,1208.5,0.25,57,162.2
12477,C#5,1208.5,0.25,57,162.2
12478,F#3,1208.719,0.125,50,162.2
12479,F#2,1208.719,0.125,50,162.2
12480,F3,1209.219,0.25,56,162.2
12481,F2,1209.219,0.25,56,162.2
12482,B-5,1209.5,0.125,59,162.2
12483,B-4,1209.5,0.125,59,162.2
12484,C#5,1209.5,0.125,59,162.2
12485,B-3,1209.719,0.25,50,162.2
12486,B-2,1209.719,0.25,50,162.2
12487,B-4,1210.0,0.125,57,162.2
12488,C#5,1210.0,0.125,57,162.2
12489,B-5,1210.0,0.125,57,162.2
12490,A3,1210.219,0.25,57,162.2
12491,A2,1210.219,0.25,57,162.2
12492,B-5,1210.5,1.0,57,162.2
12493,B-4,1210.5,1.0,57,162.2
12494,C#5,1210.5,1.0,57,162.2
12495,F#3,1210.719,0.25,50,162.2
12496,F#2,1210.719,0.25,50,162.2
12497,F3,1211.219,0.25,56,162.2
12498,F2,1211.219,0.25,56,162.2
12499,C#6,1211.5,0.25,52,162.2
12500,C#5,1211.5,0.25,52,162.2
12501,F5,1211.5,0.25,52,162.2
12502,F#3,1211.719,0.25,50,162.2
12503,F#2,1211.719,0.25,50,162.2
12504,B-5,1212.0,0.25,52,162.2
12505,B-4,1212.0,0.25,52,162.2
12506,C#5,1212.0,0.25,52,162.2
12507,F3,1212.219,0.25,56,162.2
12508,F2,1212.219,0.25,56,162.2
12509,A5,1212.5,0.25,57,162.2
12510,A4,1212.5,0.25,57,162.2
12511,C5,1212.5,0.25,57,162.2
12512,F#3,1212.719,0.25,50,162.2
12513,F#2,1212.719,0.25,50,162.2
12514,F3,1213.219,0.25,58,162.2
12515,F2,1213.219,0.25,58,162.2
12516,F5,1213.5,0.25,52,162.2
12517,F4,1213.5,0.25,52,162.2
12518,A4,1213.5,0.25,52,162.2
12519,C4,1213.719,0.25,52,162.2
12520,C3,1213.719,0.25,52,162.2
12521,A3,1214.219,0.25,60,162.2
12522,A2,1214.219,0.25,60,162.2
12523,F6,1214.5,1.0,63,162.2
12524,F5,1214.5,1.0,63,162.2
12525,A5,1214.5,1.0,63,162.2
12526,F#3,1214.719,0.25,52,162.2
12527,F#2,1214.719,0.25,52,162.2
12528,F3,1215.219,0.25,58,162.2
12529,F2,1215.219,0.25,58,162.2
12530,F6,1215.5,0.25,56,162.2
12531,F5,1215.5,0.25,56,162.2
12532,A5,1215.5,0.25,56,162.2
12533,F#3,1215.719,0.25,52,162.2
12534,F#2,1215.719,0.25,52,162.2
12535,F6,1216.0,0.25,56,162.2
12536,F5,1216.0,0.25,56,162.2
12537,A5,1216.0,0.25,56,162.2
12538,F3,1216.219,0.125,58,162.2
12539,F2,1216.219,0.125,58,162.2
12540,B-6,1216.5,0.25,63,162.2
12541,B-5,1216.5,0.25,63,162.2
12542,C#6,1216.5,0.25,63,162.2
12543,F#3,1216.719,0.125,52,162.2
12544,F#2,1216.719,0.125,52,162.2
12545,F3,1217.219,0.25,58,162.2
12546,F2,1217.219,0.25,58,162.2
12547,B-6,1217.5,0.125,62,162.2
12548,B-5,1217.5,0.125,62,162.2
12549,C#6,1217.5,0.125,62,162.2
12550,C#4,1217.719,0.25,52,162.2
12551,C#3,1217.719,0.25,52,162.2
12552,B-5,1218.0,0.125,61,162.2
12553,C#6,1218.0,0.125,61,162.2
12554,B-6,1218.0,0.125,61,162.2
12555,B-3,1218.219,0.25,60,162.2
12556,B-2,1218.219,0.25,60,162.2
12557,B-6,1218.5,1.0,62,162.2
12558,B-5,1218.5,1.0,62,162.2
12559,C#6,1218.5,1.0,62,162.2
12560,F#3,1218.719,0.25,52,162.2
12561,F#2,1218.719,0.25,52,162.2
12562,F3,1219.219,0.25,56,162.2
12563,F2,1219.219,0.25,56,162.2
12564,C#7,1219.5,0.25,56,162.2
12565,C#6,1219.5,0.25,56,162.2
12566,F6,1219.5,0.25,56,162.2
12567,F#3,1219.719,0.25,58,162.2
12568,F#2,1219.719,0.25,58,162.2
12569,B-6,1220.0,0.25,56,162.2
12570,B-5,1220.0,0.25,56,162.2
12571,C#6,1220.0,0.25,56,162.2
12572,A3,1220.219,0.25,59,162.2
12573,A2,1220.219,0.25,59,162.2
12574,A6,1220.5,1.0,66,162.2
12575,A5,1220.5,1.0,66,162.2
12576,C6,1220.5,1.0,66,162.2
12577,B-3,1220.719,0.25,61,162.2
12578,B-2,1220.719,0.25,61,162.2
12579,C4,1221.219,0.25,64,162.2
12580,C3,1221.219,0.25,64,162.2
12581,C7,1221.5,1.0,70,162.2
12582,A6,1221.5,1.0,70,162.2
12583,F6,1221.5,1.0,70,162.2
12584,C6,1221.5,1.0,70,162.2
12585,C#4,1221.719,0.25,64,162.2
12586,C#3,1221.719,0.25,64,162.2
12587,E4,1222.219,0.25,66,162.2
12588,E3,1222.219,0.25,66,162.2
12589,C#7,1222.5,1.0,71,162.2
12590,B-6,1222.5,1.0,71,162.2
12591,F6,1222.5,1.0,71,162.2
12592,C#6,1222.5,1.0,71,162.2
12593,F4,1222.719,0.25,68,162.2
12594,F3,1222.719,0.25,68,162.2
12595,F4,1223.219,0.25,68,162.2
12596,F3,1223.219,0.25,68,162.2
12597,B-6,1223.5,1.0,70,162.2
12598,B-5,1223.5,1.0,70,162.2
12599,C#6,1223.5,1.0,70,162.2
12600,F6,1223.5,1.0,70,162.2
12601,E4,1223.719,0.25,70,162.2
12602,E3,1223.719,0.25,70,162.2
12603,C#4,1224.219,0.25,69,162.2
12604,C#3,1224.219,0.25,69,162.2
12605,A6,1224.5,1.0,71,162.2
12606,A5,1224.5,1.0,71,162.2
12607,C6,1224.5,1.0,71,162.2
12608,F6,1224.5,1.0,71,162.2
12609,C4,1224.719,0.25,68,162.2
12610,C3,1224.719,0.25,68,162.2
12611,B-3,1225.219,0.25,66,162.2
12612,B-2,1225.219,0.25,66,162.2
12613,C7,1225.5,1.0,70,162.2
12614,A6,1225.5,1.0,70,162.2
12615,F6,1225.5,1.0,70,162.2
12616,C6,1225.5,1.0,70,162.2
12617,A3,1225.719,0.25,66,162.2
12618,A2,1225.719,0.25,66,162.2
12619,F#3,1226.219,0.25,64,162.2
12620,F#2,1226.219,0.25,64,162.2
12621,C#7,1226.5,1.0,74,162.2
12622,B-6,1226.5,1.0,74,162.2
12623,F6,1226.5,1.0,74,162.2
12624,C#6,1226.5,1.0,74,162.2
12625,F3,1226.719,0.25,64,162.2
12626,F2,1226.719,0.25,64,162.2
12627,F3,1227.219,0.25,56,162.2
12628,F2,1227.219,0.25,56,162.2
12629,B-6,1227.5,1.0,70,162.2
12630,F6,1227.5,1.0,70,162.2
12631,C#6,1227.5,1.0,70,162.2
12632,B-5,1227.5,1.0,70,162.2
12633,F#3,1227.719,0.25,58,162.2
12634,F#2,1227.719,0.25,58,162.2
12635,A3,1228.219,0.25,59,162.2
12636,A2,1228.219,0.25,59,162.2
12637,F6,1228.5,1.0,65,162.2
12638,A6,1228.5,1.0,65,162.2
12639,A5,1228.5,1.0,65,162.2
12640,C6,1228.5,1.0,65,162.2
12641,B-3,1228.719,0.25,61,162.2
12642,B-2,1228.719,0.25,61,162.2
12643,C4,1229.219,0.25,64,162.2
12644,C3,1229.219,0.25,64,162.2
12645,F7,1229.5,1.0,70,162.2
12646,C7,1229.5,1.0,70,162.2
12647,A6,1229.5,1.0,70,162.2
12648,F6,1229.5,1.0,70,162.2
12649,C#4,1229.719,0.25,64,162.2
12650,C#3,1229.719,0.25,64,162.2
12651,E4,1230.219,0.25,66,162.2
12652,E3,1230.219,0.25,66,162.2
12653,F7,1230.5,0.875,71,162.2
12654,C#7,1230.5,0.875,71,162.2
12655,B-6,1230.5,0.875,71,162.2
12656,F6,1230.5,0.875,71,162.2
12657,F4,1230.719,0.25,68,162.2
12658,F3,1230.719,0.25,68,162.2
12659,F4,1231.219,0.25,68,162.2
12660,F3,1231.219,0.25,68,162.2
12661,C#6,1231.375,1.0,75,162.2
12662,B-6,1231.438,0.938,78,162.2
12663,F7,1231.5,0.875,82,162.2
12664,E4,1231.719,0.25,70,162.2
12665,E3,1231.719,0.25,70,162.2
12666,C#4,1232.219,0.25,69,162.2
12667,C#3,1232.219,0.25,69,162.2
12668,C6,1232.375,0.125,77,162.2
12669,A6,1232.438,0.062,81,162.2
12670,F7,1232.5,1.0,84,162.2
12671,C6,1232.5,1.0,77,162.2
12672,A6,1232.5,1.0,81,162.2
12673,C4,1232.719,0.25,68,162.2
12674,C3,1232.719,0.25,68,162.2
12675,B-3,1233.219,0.25,66,162.2
12676,B-2,1233.219,0.25,66,162.2
12677,F7,1233.5,1.0,70,162.2
12678,C7,1233.5,1.0,70,162.2
12679,A6,1233.5,1.0,70,162.2
12680,F6,1233.5,1.0,70,162.2
12681,A3,1233.719,0.25,66,162.2
12682,A2,1233.719,0.25,66,162.2
12683,F#3,1234.219,0.25,64,162.2
12684,F#2,1234.219,0.25,64,162.2
12685,F7,1234.5,0.875,74,162.2
12686,C#7,1234.5,0.875,74,162.2
12687,B-6,1234.5,0.875,74,162.2
12688,F6,1234.5,0.875,74,162.2
12689,F3,1234.719,0.25,64,162.2
12690,F2,1234.719,0.25,64,162.2
12691,F2,1235.219,1.0,51,162.2
12692,F3,1235.219,0.5,60,162.2
12693,A2,1235.219,0.5,60,162.2
12694,C#6,1235.375,1.0,81,162.2
12695,B-6,1235.438,0.938,84,162.2
12696,F7,1235.5,0.875,87,162.2
12697,F#3,1235.719,0.5,49,162.2
12698,B-2,1235.719,0.5,49,162.2
12699,A3,1236.219,0.5,50,162.2
12700,C3,1236.219,0.5,50,162.2
12701,C6,1236.375,0.125,80,162.2
12702,A6,1236.438,0.062,83,162.2
12703,F7,1236.5,1.0,85,162.2
12704,C6,1236.5,1.0,80,162.2
12705,A6,1236.5,1.0,83,162.2
12706,B-3,1236.719,0.5,54,162.2
12707,C#3,1236.719,0.5,54,162.2
12708,C4,1237.219,0.5,56,162.2
12709,E-3,1237.219,0.5,56,162.2
12710,C#4,1237.719,0.5,57,162.2
12711,F3,1237.719,0.5,57,162.2
12712,E-4,1238.219,0.5,59,162.2
12713,F#3,1238.219,0.5,59,162.2
12714,F4,1238.719,0.5,61,162.2
12715,A3,1238.719,0.5,61,162.2
12716,F#4,1239.219,0.5,62,162.2
12717,B-3,1239.219,0.5,62,162.2
12718,F4,1241.0,0.5,62,162.2
12719,A3,1241.0,0.5,62,162.2
12720,C4,1241.219,0.5,59,162.2
12721,E-3,1241.219,0.5,59,162.2
12722,E-4,1241.5,0.5,62,162.2
12723,F#3,1241.5,0.5,62,162.2
12724,B-3,1241.719,0.5,58,162.2
12725,C#3,1241.719,0.5,58,162.2
12726,C#4,1242.0,0.5,60,162.2
12727,F3,1242.0,0.5,60,162.2
12728,A3,1242.219,0.5,56,162.2
12729,C3,1242.219,0.5,56,162.2
12730,F#3,1242.719,0.5,56,162.2
12731,B-2,1242.719,0.5,56,162.2
12732,F2,1243.219,1.0,51,162.2
12733,G3,1243.219,0.5,60,162.2
12734,B2,1243.219,0.5,60,162.2
12735,G#3,1243.719,0.5,49,162.2
12736,C3,1243.719,0.5,49,162.2
12737,B3,1244.219,0.5,50,162.2
12738,D3,1244.219,0.5,50,162.2
12739,C4,1244.719,0.5,54,162.2
12740,E-3,1244.719,0.5,54,162.2
12741,D4,1245.219,0.5,56,162.2
12742,F3,1245.219,0.5,56,162.2
12743,E-4,1245.719,0.5,57,162.2
12744,G3,1245.719,0.5,57,162.2
12745,F4,1246.219,0.5,59,162.2
12746,G#3,1246.219,0.5,59,162.2
12747,G4,1246.719,0.5,61,162.2
12748,B3,1246.719,0.5,61,162.2
12749,G#4,1247.219,0.5,62,162.2
12750,C4,1247.219,0.5,62,162.2
12751,G4,1249.0,0.5,62,162.2
12752,B3,1249.0,0.5,62,162.2
12753,D4,1249.219,0.5,59,162.2
12754,F3,1249.219,0.5,59,162.2
12755,F4,1249.5,0.5,62,162.2
12756,G#3,1249.5,0.5,62,162.2
12757,C4,1249.719,0.5,58,162.2
12758,E-3,1249.719,0.5,58,162.2
12759,E-4,1250.0,0.5,60,162.2
12760,G3,1250.0,0.5,60,162.2
12761,B3,1250.219,0.5,56,162.2
12762,D3,1250.219,0.5,56,162.2
12763,G#3,1250.719,0.5,56,162.2
12764,C3,1250.719,0.5,56,162.2
12765,A3,1251.219,0.5,56,162.2
12766,F2,1251.219,0.5,56,162.2
12767,C3,1251.219,0.5,56,162.2
12768,E-3,1251.219,0.5,56,162.2
12769,B-3,1251.719,0.5,56,162.2
12770,D3,1251.719,0.5,56,162.2
12771,F3,1251.719,0.5,56,162.2
12772,C4,1252.219,0.5,58,162.2
12773,E-3,1252.219,0.5,58,162.2
12774,G3,1252.219,0.5,58,162.2
12775,D4,1252.719,0.5,60,162.2
12776,F3,1252.719,0.5,60,162.2
12777,A3,1252.719,0.5,60,162.2
12778,G3,1253.219,0.5,56,162.2
12779,A3,1253.719,0.5,57,162.2
12780,B-3,1254.219,0.5,59,162.2
12781,E-4,1254.5,0.5,63,162.2
12782,B-3,1254.5,0.5,63,162.2
12783,C4,1254.719,0.5,60,162.2
12784,F4,1255.0,0.5,64,162.2
12785,C4,1255.0,0.5,64,162.2
12786,F3,1255.219,0.5,64,162.2
12787,E-4,1255.219,0.5,64,162.2
12788,G4,1255.5,0.5,66,162.2
12789,D4,1255.5,0.5,66,162.2
12790,D4,1255.719,0.5,60,162.2
12791,A4,1256.0,0.5,68,162.2
12792,E-4,1256.0,0.5,68,162.2
12793,C4,1256.219,0.5,59,162.2
12794,C5,1256.5,0.5,72,162.2
12795,G4,1256.5,0.5,72,162.2
12796,B-3,1256.719,0.5,57,162.2
12797,B-4,1257.0,0.5,68,162.2
12798,F4,1257.0,0.5,68,162.2
12799,A3,1257.219,0.5,56,162.2
12800,A4,1257.5,0.5,66,162.2
12801,E-4,1257.5,0.5,66,162.2
12802,G3,1257.719,0.5,54,162.2
12803,G4,1258.0,0.5,64,162.2
12804,D4,1258.0,0.5,64,162.2
12805,F3,1258.219,0.5,52,162.2
12806,F4,1258.5,0.5,63,162.2
12807,C4,1258.5,0.5,63,162.2
12808,E-3,1258.719,0.5,51,162.2
12809,E-4,1259.0,0.5,61,162.2
12810,B-3,1259.0,0.5,61,162.2
12811,F2,1259.219,0.5,50,162.2
12812,G3,1259.219,0.5,50,162.2
12813,D4,1259.5,0.5,59,162.2
12814,A3,1259.5,0.5,59,162.2
12815,A3,1259.719,0.5,52,162.2
12816,C4,1260.0,0.5,58,162.2
12817,G3,1260.0,0.5,58,162.2
12818,B-3,1260.219,0.5,53,162.2
12819,B-3,1260.5,0.5,61,162.2
12820,E-4,1260.5,0.5,61,162.2
12821,C4,1260.719,0.5,55,162.2
12822,C4,1261.0,0.5,58,162.2
12823,F4,1261.0,0.5,58,162.2
12824,D4,1261.219,0.5,56,162.2
12825,D4,1261.5,0.5,60,162.2
12826,G4,1261.5,0.5,60,162.2
12827,E-4,1261.719,0.5,57,162.2
12828,E-4,1262.0,0.5,62,162.2
12829,A4,1262.0,0.5,62,162.2
12830,F4,1262.219,0.5,59,162.2
12831,B-4,1262.5,0.5,63,162.2
12832,F4,1262.5,0.5,63,162.2
12833,G4,1262.719,0.5,60,162.2
12834,C5,1263.0,0.5,64,162.2
12835,G4,1263.0,0.5,64,162.2
12836,B-4,1263.219,0.5,64,162.2
12837,D5,1263.5,0.5,66,162.2
12838,A4,1263.5,0.5,66,162.2
12839,A4,1263.719,0.5,60,162.2
12840,E-5,1264.0,0.5,68,162.2
12841,B-4,1264.0,0.5,68,162.2
12842,G4,1264.219,0.5,59,162.2
12843,G5,1264.5,0.5,72,162.2
12844,D5,1264.5,0.5,72,162.2
12845,F4,1264.719,0.5,57,162.2
12846,F5,1265.0,0.5,68,162.2
12847,C5,1265.0,0.5,68,162.2
12848,E-4,1265.219,0.5,64,162.2
12849,G4,1265.219,0.5,64,162.2
12850,E-5,1265.5,0.5,66,162.2
12851,B-4,1265.5,0.5,66,162.2
12852,F4,1265.719,0.5,62,162.2
12853,D4,1265.719,0.5,62,162.2
12854,D5,1266.0,0.5,64,162.2
12855,A4,1266.0,0.5,64,162.2
12856,C4,1266.219,0.5,59,162.2
12857,E-4,1266.219,0.5,59,162.2
12858,C5,1266.5,0.5,70,162.2
12859,C6,1266.5,0.5,70,162.2
12860,E-5,1266.5,0.5,70,162.2
12861,B-3,1266.719,0.5,57,162.2
12862,D4,1266.719,0.5,57,162.2
12863,D5,1267.0,0.5,65,162.2
12864,B-5,1267.0,0.5,65,162.2
12865,B-4,1267.0,0.5,65,162.2
12866,G4,1267.219,0.5,64,162.2
12867,B-4,1267.219,0.5,64,162.2
12868,A4,1267.5,0.5,64,162.2
12869,A5,1267.5,0.5,64,162.2
12870,C5,1267.5,0.5,64,162.2
12871,F4,1267.719,0.5,60,162.2
12872,A4,1267.719,0.5,60,162.2
12873,G4,1268.0,0.5,62,162.2
12874,G5,1268.0,0.5,62,162.2
12875,B-4,1268.0,0.5,62,162.2
12876,E-4,1268.219,0.5,59,162.2
12877,G4,1268.219,0.5,59,162.2
12878,E-5,1268.5,0.5,70,162.2
12879,E-6,1268.5,0.5,70,162.2
12880,G5,1268.5,0.5,70,162.2
12881,D4,1268.719,0.5,57,162.2
12882,F4,1268.719,0.5,57,162.2
12883,F5,1269.0,0.5,65,162.2
12884,D6,1269.0,0.5,65,162.2
12885,D5,1269.0,0.5,65,162.2
12886,B-4,1269.219,0.5,64,162.2
12887,D5,1269.219,0.5,64,162.2
12888,C5,1269.5,0.5,64,162.2
12889,C6,1269.5,0.5,64,162.2
12890,E-5,1269.5,0.5,64,162.2
12891,A4,1269.719,0.5,60,162.2
12892,C5,1269.719,0.5,60,162.2
12893,B-4,1270.0,0.5,62,162.2
12894,B-5,1270.0,0.5,62,162.2
12895,D5,1270.0,0.5,62,162.2
12896,G4,1270.219,0.5,59,162.2
12897,B-4,1270.219,0.5,59,162.2
12898,G5,1270.5,0.5,70,162.2
12899,G6,1270.5,0.5,70,162.2
12900,B-5,1270.5,0.5,70,162.2
12901,F4,1270.719,0.5,57,162.2
12902,A4,1270.719,0.5,57,162.2
12903,A5,1271.0,0.5,65,162.2
12904,F6,1271.0,0.5,65,162.2
12905,F5,1271.0,0.5,65,162.2
12906,E-5,1271.219,0.5,64,162.2
12907,G5,1271.219,0.5,64,162.2
12908,E-5,1271.5,0.5,64,162.2
12909,E-6,1271.5,0.5,64,162.2
12910,G5,1271.5,0.5,64,162.2
12911,D5,1271.719,0.5,60,162.2
12912,F5,1271.719,0.5,60,162.2
12913,D5,1272.0,0.5,62,162.2
12914,D6,1272.0,0.5,62,162.2
12915,F5,1272.0,0.5,62,162.2
12916,C5,1272.219,0.5,59,162.2
12917,E-5,1272.219,0.5,59,162.2
12918,C6,1272.5,0.5,70,162.2
12919,C7,1272.5,0.5,70,162.2
12920,E-6,1272.5,0.5,70,162.2
12921,B-4,1272.719,0.5,57,162.2
12922,D5,1272.719,0.5,57,162.2
12923,D6,1273.0,0.5,65,162.2
12924,B-6,1273.0,0.5,65,162.2
12925,B-5,1273.0,0.5,65,162.2
12926,B-5,1273.219,0.125,64,162.2
12927,G5,1273.219,0.125,64,162.2
12928,A5,1273.344,0.125,64,162.2
12929,F5,1273.344,0.125,64,162.2
12930,G5,1273.469,0.125,64,162.2
12931,E-5,1273.469,0.125,64,162.2
12932,A5,1273.5,0.5,64,162.2
12933,A6,1273.5,0.5,64,162.2
12934,C6,1273.5,0.5,64,162.2
12935,F5,1273.594,0.125,64,162.2
12936,D5,1273.594,0.125,64,162.2
12937,E-5,1273.719,0.125,62,162.2
12938,C5,1273.719,0.125,62,162.2
12939,D5,1273.844,0.125,62,162.2
12940,B-4,1273.844,0.125,62,162.2
12941,C5,1273.969,0.125,62,162.2
12942,A4,1273.969,0.125,62,162.2
12943,G5,1274.0,0.5,62,162.2
12944,G6,1274.0,0.5,62,162.2
12945,B-5,1274.0,0.5,62,162.2
12946,B-4,1274.094,0.125,62,162.2
12947,G4,1274.094,0.125,62,162.2
12948,A4,1274.219,0.125,61,162.2
12949,F4,1274.219,0.125,61,162.2
12950,G4,1274.344,0.125,61,162.2
12951,E-4,1274.344,0.125,61,162.2
12952,F4,1274.469,0.125,60,162.2
12953,D4,1274.469,0.125,60,162.2
12954,E-7,1274.5,0.125,67,162.2
12955,G6,1274.5,0.125,67,162.2
12956,E-6,1274.5,0.125,67,162.2
12957,E-4,1274.594,0.125,60,162.2
12958,C4,1274.594,0.125,60,162.2
12959,D7,1274.625,0.125,67,162.2
12960,D6,1274.625,0.125,67,162.2
12961,F6,1274.625,0.125,67,162.2
12962,D4,1274.719,0.125,59,162.2
12963,B-3,1274.719,0.125,59,162.2
12964,C7,1274.75,0.125,67,162.2
12965,E-6,1274.75,0.125,67,162.2
12966,C6,1274.75,0.125,67,162.2
12967,C4,1274.844,0.125,59,162.2
12968,A3,1274.844,0.125,59,162.2
12969,B-6,1274.875,0.125,67,162.2
12970,D6,1274.875,0.125,67,162.2
12971,B-5,1274.875,0.125,67,162.2
12972,B3,1274.969,0.125,58,162.2
12973,G#3,1274.969,0.125,58,162.2
12974,A6,1275.0,0.125,66,162.2
12975,A5,1275.0,0.125,66,162.2
12976,C6,1275.0,0.125,66,162.2
12977,C4,1275.094,0.125,58,162.2
12978,A3,1275.094,0.125,58,162.2
12979,G6,1275.125,0.125,66,162.2
12980,G5,1275.125,0.125,66,162.2
12981,B-5,1275.125,0.125,66,162.2
12982,G#3,1275.219,0.125,58,162.2
12983,B3,1275.219,0.125,58,162.2
12984,F6,1275.25,0.125,66,162.2
12985,F5,1275.25,0.125,66,162.2
12986,A5,1275.25,0.125,66,162.2
12987,A3,1275.344,0.125,58,162.2
12988,C4,1275.344,0.125,58,162.2
12989,E-6,1275.375,0.125,66,162.2
12990,E-5,1275.375,0.125,66,162.2
12991,G5,1275.375,0.125,66,162.2
12992,B-3,1275.469,0.125,57,162.2
12993,C#4,1275.469,0.125,57,162.2
12994,D6,1275.5,0.125,66,162.2
12995,F5,1275.5,0.125,66,162.2
12996,D5,1275.5,0.125,66,162.2
12997,B3,1275.594,0.125,58,162.2
12998,D4,1275.594,0.125,58,162.2
12999,C6,1275.625,0.125,66,162.2
13000,C5,1275.625,0.125,66,162.2
13001,E-5,1275.625,0.125,66,162.2
13002,C4,1275.719,0.125,58,162.2
13003,E-4,1275.719,0.125,58,162.2
13004,B-5,1275.75,0.125,66,162.2
13005,B-4,1275.75,0.125,66,162.2
13006,D5,1275.75,0.125,66,162.2
13007,C#4,1275.844,0.125,59,162.2
13008,E4,1275.844,0.125,59,162.2
13009,A5,1275.875,0.125,66,162.2
13010,A4,1275.875,0.125,66,162.2
13011,C5,1275.875,0.125,66,162.2
13012,D4,1275.969,0.125,60,162.2
13013,F4,1275.969,0.125,60,162.2
13014,G5,1276.0,0.125,68,162.2
13015,G4,1276.0,0.125,68,162.2
13016,B-4,1276.0,0.125,68,162.2
13017,E-4,1276.094,0.125,60,162.2
13018,F#4,1276.094,0.125,60,162.2
13019,F5,1276.125,0.125,60,162.2
13020,F4,1276.125,0.125,60,162.2
13021,A4,1276.125,0.125,60,162.2
13022,E4,1276.219,0.125,60,162.2
13023,G4,1276.219,0.125,60,162.2
13024,E5,1276.25,0.125,69,162.2
13025,E4,1276.25,0.125,69,162.2
13026,G#4,1276.25,0.125,69,162.2
13027,F4,1276.344,0.125,61,162.2
13028,G#4,1276.344,0.125,61,162.2
13029,F5,1276.375,0.125,63,162.2
13030,F4,1276.375,0.125,63,162.2
13031,A4,1276.375,0.125,63,162.2
13032,F#4,1276.469,0.125,61,162.2
13033,A4,1276.469,0.125,61,162.2
13034,E5,1276.5,0.125,63,162.2
13035,E4,1276.5,0.125,63,162.2
13036,G#4,1276.5,0.125,63,162.2
13037,G4,1276.594,0.125,62,162.2
13038,B-4,1276.594,0.125,62,162.2
13039,F5,1276.625,0.125,60,162.2
13040,F4,1276.625,0.125,60,162.2
13041,A4,1276.625,0.125,60,162.2
13042,G#4,1276.719,0.125,62,162.2
13043,B4,1276.719,0.125,62,162.2
13044,F#5,1276.75,0.125,61,162.2
13045,F#4,1276.75,0.125,61,162.2
13046,B-4,1276.75,0.125,61,162.2
13047,A4,1276.844,0.125,62,162.2
13048,C5,1276.844,0.125,62,162.2
13049,G5,1276.875,0.125,62,162.2
13050,G4,1276.875,0.125,62,162.2
13051,B4,1276.875,0.125,62,162.2
13052,B-4,1276.969,0.125,63,162.2
13053,C#5,1276.969,0.125,63,162.2
13054,G#5,1277.0,0.125,62,162.2
13055,G#4,1277.0,0.125,62,162.2
13056,C5,1277.0,0.125,62,162.2
13057,B4,1277.094,0.125,64,162.2
13058,D5,1277.094,0.125,64,162.2
13059,A5,1277.125,0.125,63,162.2
13060,A4,1277.125,0.125,63,162.2
13061,C#5,1277.125,0.125,63,162.2
13062,C5,1277.219,0.125,64,162.2
13063,E-5,1277.219,0.125,64,162.2
13064,B-5,1277.25,0.125,64,162.2
13065,B-4,1277.25,0.125,64,162.2
13066,D5,1277.25,0.125,64,162.2
13067,C#5,1277.344,0.125,65,162.2
13068,E5,1277.344,0.125,65,162.2
13069,B5,1277.375,0.125,64,162.2
13070,B4,1277.375,0.125,64,162.2
13071,E-5,1277.375,0.125,64,162.2
13072,D5,1277.469,0.125,66,162.2
13073,F5,1277.469,0.125,66,162.2
13074,C5,1277.5,0.125,64,162.2
13075,E5,1277.5,0.125,64,162.2
13076,C6,1277.5,0.125,64,162.2
13077,E-5,1277.594,0.125,66,162.2
13078,F#5,1277.594,0.125,66,162.2
13079,C#6,1277.625,0.125,65,162.2
13080,C#5,1277.625,0.125,65,162.2
13081,F5,1277.625,0.125,65,162.2
13082,E5,1277.719,0.125,67,162.2
13083,G5,1277.719,0.125,67,162.2
13084,D6,1277.75,0.125,65,162.2
13085,D5,1277.75,0.125,65,162.2
13086,F#5,1277.75,0.125,65,162.2
13087,F5,1277.844,0.125,68,162.2
13088,G#5,1277.844,0.125,68,162.2
13089,E-6,1277.875,0.125,66,162.2
13090,E-5,1277.875,0.125,66,162.2
13091,G5,1277.875,0.125,66,162.2
13092,F#5,1277.969,0.125,68,162.2
13093,A5,1277.969,0.125,68,162.2
13094,E6,1278.0,0.125,66,162.2
13095,E5,1278.0,0.125,66,162.2
13096,G#5,1278.0,0.125,66,162.2
13097,G5,1278.094,0.125,72,162.2
13098,B-5,1278.094,0.125,72,162.2
13099,F6,1278.125,0.125,66,162.2
13100,F5,1278.125,0.125,66,162.2
13101,A5,1278.125,0.125,66,162.2
13102,F#6,1278.25,0.125,67,162.2
13103,F#5,1278.25,0.125,67,162.2
13104,B-5,1278.25,0.125,67,162.2
13105,G5,1278.344,0.125,72,162.2
13106,B-5,1278.344,0.125,72,162.2
13107,G6,1278.375,0.125,68,162.2
13108,G5,1278.375,0.125,68,162.2
13109,B5,1278.375,0.125,68,162.2
13110,G#6,1278.5,0.125,68,162.2
13111,G#5,1278.5,0.125,68,162.2
13112,C6,1278.5,0.125,68,162.2
13113,A6,1278.625,0.125,69,162.2
13114,A5,1278.625,0.125,69,162.2
13115,C#6,1278.625,0.125,69,162.2
13116,B-6,1278.75,0.125,70,162.2
13117,B-5,1278.75,0.125,70,162.2
13118,D6,1278.75,0.125,70,162.2
13119,B6,1278.875,0.125,70,162.2
13120,B5,1278.875,0.125,70,162.2
13121,E-6,1278.875,0.125,70,162.2
13122,C7,1279.0,0.125,71,162.2
13123,C6,1279.0,0.125,71,162.2
13124,E6,1279.0,0.125,71,162.2
13125,C#7,1279.125,0.125,72,162.2
13126,C#6,1279.125,0.125,72,162.2
13127,F6,1279.125,0.125,72,162.2
13128,D7,1279.25,0.125,72,162.2
13129,D6,1279.25,0.125,72,162.2
13130,F#6,1279.25,0.125,72,162.2
13131,E-7,1279.375,0.125,78,162.2
13132,E-6,1279.375,0.125,78,162.2
13133,G6,1279.375,0.125,78,162.2
13134,E-7,1279.625,0.125,78,162.2
13135,E-6,1279.625,0.125,78,162.2
13136,G6,1279.625,0.125,78,162.2
13137,E-5,1281.625,2.0,85,162.2
13138,E-6,1281.625,2.0,85,162.2
13139,G4,1283.625,1.625,76,162.2
13140,G5,1283.625,1.625,76,162.2
13141,F4,1285.25,0.375,37,162.2
13142,C5,1285.375,0.25,49,162.2
13143,E-5,1285.5,0.125,56,162.2
13144,A5,1285.625,0.125,72,162.2
13145,F4,1285.625,0.625,37,162.2
13146,C5,1285.625,0.125,49,162.2
13147,E-5,1285.625,0.125,56,162.2
13148,B-5,1285.75,0.125,30,162.2
13149,D5,1285.75,0.125,30,162.2
13150,F5,1285.75,0.125,30,162.2
13151,A5,1285.875,0.125,31,162.2
13152,C5,1285.875,0.125,31,162.2
13153,E-5,1285.875,0.125,31,162.2
13154,B-5,1286.0,0.125,31,162.2
13155,D5,1286.0,0.125,31,162.2
13156,F5,1286.0,0.125,31,162.2
13157,A5,1286.125,0.125,32,162.2
13158,C5,1286.125,0.125,32,162.2
13159,E-5,1286.125,0.125,32,162.2
13160,B-5,1286.25,0.125,33,162.2
13161,D5,1286.25,0.125,33,162.2
13162,F5,1286.25,0.125,33,162.2
13163,A5,1286.375,0.125,33,162.2
13164,C5,1286.375,0.125,33,162.2
13165,E-5,1286.375,0.125,33,162.2
13166,B-5,1286.5,0.125,34,162.2
13167,D5,1286.5,0.125,34,162.2
13168,F5,1286.5,0.125,34,162.2
13169,A5,1286.625,0.125,34,162.2
13170,C5,1286.625,0.125,34,162.2
13171,E-5,1286.625,0.125,34,162.2
13172,B-5,1286.75,0.125,35,162.2
13173,D5,1286.75,0.125,35,162.2
13174,F5,1286.75,0.125,35,162.2
13175,A5,1286.875,0.125,35,162.2
13176,C5,1286.875,0.125,35,162.2
13177,E-5,1286.875,0.125,35,162.2
13178,B-5,1287.0,0.125,35,162.2
13179,D5,1287.0,0.125,35,162.2
13180,F5,1287.0,0.125,35,162.2
13181,A5,1287.125,0.125,35,162.2
13182,C5,1287.125,0.125,35,162.2
13183,E-5,1287.125,0.125,35,162.2
13184,B-5,1287.25,0.125,36,162.2
13185,D5,1287.25,0.125,36,162.2
13186,F5,1287.25,0.125,36,162.2
13187,A5,1287.375,0.125,36,162.2
13188,C5,1287.375,0.125,36,162.2
13189,E-5,1287.375,0.125,36,162.2
13190,B-5,1287.5,0.125,37,162.2
13191,D5,1287.5,0.125,37,162.2
13192,F5,1287.5,0.125,37,162.2
13193,A5,1287.625,0.125,39,162.2
13194,C5,1287.625,0.125,39,162.2
13195,E-5,1287.625,0.125,39,162.2
13196,B-5,1287.75,0.125,39,162.2
13197,D5,1287.75,0.125,39,162.2
13198,F5,1287.75,0.125,39,162.2
13199,A5,1287.875,0.125,39,162.2
13200,C5,1287.875,0.125,39,162.2
13201,E-5,1287.875,0.125,39,162.2
13202,B-5,1288.0,0.125,40,162.2
13203,D5,1288.0,0.125,40,162.2
13204,F5,1288.0,0.125,40,162.2
13205,A5,1288.125,0.125,40,162.2
13206,C5,1288.125,0.125,40,162.2
13207,E-5,1288.125,0.125,40,162.2
13208,B-5,1288.25,0.125,41,162.2
13209,D5,1288.25,0.125,41,162.2
13210,F5,1288.25,0.125,41,162.2
13211,A5,1288.375,0.125,42,162.2
13212,C5,1288.375,0.125,42,162.2
13213,E-5,1288.375,0.125,42,162.2
13214,B-5,1288.5,0.125,42,162.2
13215,D5,1288.5,0.125,42,162.2
13216,F5,1288.5,0.125,42,162.2
13217,A5,1288.625,0.125,43,162.2
13218,C5,1288.625,0.125,43,162.2
13219,E-5,1288.625,0.125,43,162.2
13220,B-5,1288.75,0.125,44,162.2
13221,D5,1288.75,0.125,44,162.2
13222,F5,1288.75,0.125,44,162.2
13223,A5,1288.875,0.125,44,162.2
13224,C5,1288.875,0.125,44,162.2
13225,E-5,1288.875,0.125,44,162.2
13226,B-5,1289.0,0.125,45,162.2
13227,D5,1289.0,0.125,45,162.2
13228,F5,1289.0,0.125,45,162.2
13229,A5,1289.125,0.125,45,162.2
13230,C5,1289.125,0.125,45,162.2
13231,E-5,1289.125,0.125,45,162.2
13232,B-5,1289.25,0.125,46,162.2
13233,D5,1289.25,0.125,46,162.2
13234,F5,1289.25,0.125,46,162.2
13235,A5,1289.375,0.125,47,162.2
13236,C5,1289.375,0.125,47,162.2
13237,E-5,1289.375,0.125,47,162.2
13238,B-5,1289.5,0.125,47,162.2
13239,D5,1289.5,0.125,47,162.2
13240,F5,1289.5,0.125,47,162.2
13241,A5,1289.625,0.125,48,162.2
13242,E-5,1289.625,0.125,48,162.2
13243,C5,1289.625,0.125,48,162.2
13244,B-5,1289.75,0.125,48,162.2
13245,F5,1289.75,0.125,48,162.2
13246,D5,1289.75,0.125,48,162.2
13247,A5,1289.875,0.125,48,162.2
13248,C5,1289.875,0.125,48,162.2
13249,E-5,1289.875,0.125,48,162.2
13250,B-5,1290.0,0.125,49,162.2
13251,F5,1290.0,0.125,49,162.2
13252,D5,1290.0,0.125,49,162.2
13253,A5,1290.125,0.125,50,162.2
13254,C5,1290.125,0.125,50,162.2
13255,E-5,1290.125,0.125,50,162.2
13256,B-5,1290.25,0.125,50,162.2
13257,D5,1290.25,0.125,50,162.2
13258,F5,1290.25,0.125,50,162.2
13259,A5,1290.375,0.125,51,162.2
13260,C5,1290.375,0.125,51,162.2
13261,E-5,1290.375,0.125,51,162.2
13262,B-5,1290.5,0.125,52,162.2
13263,F5,1290.5,0.125,52,162.2
13264,D5,1290.5,0.125,52,162.2
13265,A5,1290.625,0.125,52,162.2
13266,E-5,1290.625,0.125,52,162.2
13267,C5,1290.625,0.125,52,162.2
13268,B-5,1290.75,0.125,52,162.2
13269,D5,1290.75,0.125,52,162.2
13270,F5,1290.75,0.125,52,162.2
13271,A5,1290.875,0.125,51,162.2
13272,C5,1290.875,0.125,51,162.2
13273,E-5,1290.875,0.125,51,162.2
13274,B-5,1291.0,0.125,50,162.2
13275,F5,1291.0,0.125,50,162.2
13276,D5,1291.0,0.125,50,162.2
13277,A5,1291.125,0.125,49,162.2
13278,C5,1291.125,0.125,49,162.2
13279,E-5,1291.125,0.125,49,162.2
13280,B-5,1291.25,0.125,48,162.2
13281,F5,1291.25,0.125,48,162.2
13282,D5,1291.25,0.125,48,162.2
13283,A5,1291.375,0.125,48,162.2
13284,C5,1291.375,0.125,48,162.2
13285,E-5,1291.375,0.125,48,162.2
13286,B-5,1291.5,0.125,47,162.2
13287,F5,1291.5,0.125,47,162.2
13288,D5,1291.5,0.125,47,162.2
13289,A5,1291.625,0.125,46,162.2
13290,E-5,1291.625,0.125,46,162.2
13291,C5,1291.625,0.125,46,162.2
13292,B-5,1291.75,0.125,44,162.2
13293,F5,1291.75,0.125,44,162.2
13294,D5,1291.75,0.125,44,162.2
13295,A5,1291.875,0.125,43,162.2
13296,C5,1291.875,0.125,43,162.2
13297,E-5,1291.875,0.125,43,162.2
13298,B-5,1292.0,0.125,42,162.2
13299,D5,1292.0,0.125,42,162.2
13300,F5,1292.0,0.125,42,162.2
13301,A5,1292.125,0.125,41,162.2
13302,C5,1292.125,0.125,41,162.2
13303,E-5,1292.125,0.125,41,162.2
13304,B-5,1292.25,0.125,40,162.2
13305,D5,1292.25,0.125,40,162.2
13306,F5,1292.25,0.125,40,162.2
13307,A5,1292.375,0.125,39,162.2
13308,C5,1292.375,0.125,39,162.2
13309,E-5,1292.375,0.125,39,162.2
13310,B-5,1292.5,0.125,38,162.2
13311,D5,1292.5,0.125,38,162.2
13312,F5,1292.5,0.125,38,162.2
13313,A5,1292.625,0.125,37,162.2
13314,E-5,1292.625,0.125,37,162.2
13315,C5,1292.625,0.125,37,162.2
13316,B-5,1292.75,0.125,36,162.2
13317,D5,1292.75,0.125,36,162.2
13318,F5,1292.75,0.125,36,162.2
13319,A5,1292.875,0.125,35,162.2
13320,C5,1292.875,0.125,35,162.2
13321,E-5,1292.875,0.125,35,162.2
13322,B-5,1293.0,0.125,35,162.2
13323,D5,1293.0,0.125,35,162.2
13324,F5,1293.0,0.125,35,162.2
13325,A5,1293.125,0.125,34,162.2
13326,E-5,1293.125,0.125,34,162.2
13327,C5,1293.125,0.125,34,162.2
13328,B-5,1293.25,0.125,33,162.2
13329,D5,1293.25,0.125,33,162.2
13330,F5,1293.25,0.125,33,162.2
13331,A5,1293.375,0.125,32,162.2
13332,C5,1293.375,0.125,32,162.2
13333,E-5,1293.375,0.125,32,162.2
13334,B-5,1293.5,0.125,31,162.2
13335,D5,1293.5,0.125,31,162.2
13336,F5,1293.5,0.125,31,162.2
13337,A5,1293.625,0.5,35,162.2
13338,E-5,1293.625,0.5,35,162.2
13339,C5,1293.625,0.5,35,162.2
13340,B-5,1294.125,0.5,36,162.2
13341,D5,1294.125,0.5,36,162.2
13342,F5,1294.125,0.5,36,162.2
13343,A5,1294.625,0.5,30,162.2
13344,E-5,1294.625,0.5,30,162.2
13345,C5,1294.625,0.5,30,162.2
13346,B-2,1294.844,0.25,75,162.2
13347,G#5,1295.125,0.5,35,162.2
13348,D5,1295.125,0.5,35,162.2
13349,B4,1295.125,0.5,35,162.2
13350,F4,1295.344,0.25,31,162.2
13351,D4,1295.344,0.25,31,162.2
13352,A5,1295.625,0.5,30,162.2
13353,C5,1295.625,0.5,30,162.2
13354,E-5,1295.625,0.5,30,162.2
13355,D4,1295.844,0.25,40,162.2
13356,B-3,1295.844,0.25,40,162.2
13357,B-5,1296.125,1.0,76,162.2
13358,B-4,1296.125,0.25,56,162.2
13359,B-3,1296.344,0.25,31,162.2
13360,F3,1296.344,0.25,31,162.2
13361,F5,1296.625,0.25,41,162.2
13362,D5,1296.625,0.25,41,162.2
13363,B-2,1296.844,0.25,56,162.2
13364,B-5,1297.125,0.25,60,162.2
13365,B-4,1297.125,0.25,60,162.2
13366,F4,1297.344,0.25,31,162.2
13367,D4,1297.344,0.25,31,162.2
13368,B-5,1297.625,0.25,52,162.2
13369,F5,1297.625,0.25,52,162.2
13370,D5,1297.625,0.25,52,162.2
13371,D4,1297.844,0.25,40,162.2
13372,B-3,1297.844,0.25,40,162.2
13373,D6,1298.125,0.25,64,162.2
13374,D5,1298.125,0.25,64,162.2
13375,B-3,1298.344,0.25,31,162.2
13376,F3,1298.344,0.25,31,162.2
13377,B-5,1298.625,0.25,54,162.2
13378,F5,1298.625,0.25,54,162.2
13379,B-2,1298.844,0.25,74,162.2
13380,B-5,1299.125,1.0,60,162.2
13381,B-4,1299.125,0.25,53,162.2
13382,F4,1299.344,0.25,31,162.2
13383,D4,1299.344,0.25,31,162.2
13384,D5,1299.625,0.25,42,162.2
13385,F5,1299.625,0.25,42,162.2
13386,D4,1299.844,0.25,40,162.2
13387,B-3,1299.844,0.25,40,162.2
13388,F5,1300.125,1.0,73,162.2
13389,F4,1300.125,0.25,53,162.2
13390,B-3,1300.344,0.25,31,162.2
13391,F3,1300.344,0.25,31,162.2
13392,B-4,1300.625,0.25,41,162.2
13393,D5,1300.625,0.25,41,162.2
13394,B-2,1300.844,0.25,53,162.2
13395,F5,1301.125,0.25,58,162.2
13396,F4,1301.125,0.25,58,162.2
13397,F4,1301.344,0.25,31,162.2
13398,D4,1301.344,0.25,31,162.2
13399,F5,1301.625,0.25,51,162.2
13400,D5,1301.625,0.25,51,162.2
13401,B-4,1301.625,0.25,51,162.2
13402,D4,1301.844,0.25,40,162.2
13403,B-3,1301.844,0.25,40,162.2
13404,B-5,1302.125,0.25,62,162.2
13405,B-4,1302.125,0.25,62,162.2
13406,B-3,1302.344,0.25,31,162.2
13407,F3,1302.344,0.25,31,162.2
13408,F5,1302.625,0.25,54,162.2
13409,D5,1302.625,0.25,54,162.2
13410,B-2,1302.844,0.25,73,162.2
13411,F5,1303.125,1.0,60,162.2
13412,F4,1303.125,0.25,53,162.2
13413,D4,1303.344,0.25,32,162.2
13414,B-3,1303.344,0.25,32,162.2
13415,B-4,1303.625,0.25,42,162.2
13416,D5,1303.625,0.25,42,162.2
13417,B-3,1303.844,0.25,42,162.2
13418,F3,1303.844,0.25,42,162.2
13419,D5,1304.125,1.0,77,162.2
13420,D4,1304.125,0.25,56,162.2
13421,D4,1304.344,0.25,32,162.2
13422,B-3,1304.344,0.25,32,162.2
13423,F4,1304.625,0.25,42,162.2
13424,B-4,1304.625,0.25,42,162.2
13425,B-2,1304.844,0.25,51,162.2
13426,D5,1305.125,0.25,62,162.2
13427,D4,1305.125,0.25,62,162.2
13428,D4,1305.344,0.25,32,162.2
13429,B-3,1305.344,0.25,32,162.2
13430,E-5,1305.625,0.25,58,162.2
13431,E-4,1305.625,0.25,58,162.2
13432,B-3,1305.844,0.25,42,162.2
13433,F3,1305.844,0.25,42,162.2
13434,G5,1306.125,1.0,69,162.2
13435,G4,1306.125,0.25,51,162.2
13436,D4,1306.344,0.25,32,162.2
13437,B-3,1306.344,0.25,32,162.2
13438,B-4,1306.625,0.25,40,162.2
13439,D5,1306.625,0.25,40,162.2
13440,F2,1306.844,0.25,84,162.2
13441,F5,1307.125,1.0,57,162.2
13442,F4,1307.125,0.25,51,162.2
13443,E-4,1307.344,0.25,32,162.2
13444,C4,1307.344,0.25,32,162.2
13445,B-4,1307.625,0.25,40,162.2
13446,D5,1307.625,0.25,40,162.2
13447,C4,1307.844,0.25,42,162.2
13448,F3,1307.844,0.25,42,162.2
13449,F5,1308.125,1.0,75,162.2
13450,F4,1308.125,0.25,53,162.2
13451,E-4,1308.344,0.25,32,162.2
13452,C4,1308.344,0.25,32,162.2
13453,A4,1308.625,0.25,42,162.2
13454,C5,1308.625,0.25,42,162.2
13455,B-2,1308.844,0.25,61,162.2
13456,G5,1309.125,0.25,56,162.2
13457,G4,1309.125,0.25,56,162.2
13458,D4,1309.344,0.25,32,162.2
13459,B-3,1309.344,0.25,32,162.2
13460,A5,1309.625,0.25,54,162.2
13461,A4,1309.625,0.25,54,162.2
13462,B-3,1309.844,0.25,42,162.2
13463,F3,1309.844,0.25,42,162.2
13464,B-5,1310.125,1.0,69,162.2
13465,B-4,1310.125,0.25,51,162.2
13466,F3,1310.344,0.25,32,162.2
13467,D3,1310.344,0.25,32,162.2
13468,D5,1310.625,0.25,40,162.2
13469,F5,1310.625,0.25,40,162.2
13470,B-2,1310.844,0.25,72,162.2
13471,B-4,1311.125,0.25,51,162.2
13472,F4,1311.344,0.25,31,162.2
13473,D4,1311.344,0.25,31,162.2
13474,D5,1311.625,0.25,40,162.2
13475,F5,1311.625,0.25,40,162.2
13476,D4,1311.844,0.25,40,162.2
13477,B-3,1311.844,0.25,40,162.2
13478,B-5,1312.125,1.0,78,162.2
13479,B-4,1312.125,0.25,53,162.2
13480,B-3,1312.344,0.25,31,162.2
13481,F3,1312.344,0.25,31,162.2
13482,F5,1312.625,0.25,41,162.2
13483,D5,1312.625,0.25,41,162.2
13484,B-2,1312.844,0.25,56,162.2
13485,B-5,1313.125,0.25,58,162.2
13486,B-4,1313.125,0.25,58,162.2
13487,F4,1313.344,0.25,31,162.2
13488,D4,1313.344,0.25,31,162.2
13489,B-5,1313.625,0.25,51,162.2
13490,F5,1313.625,0.25,51,162.2
13491,D5,1313.625,0.25,51,162.2
13492,D4,1313.844,0.25,40,162.2
13493,B-3,1313.844,0.25,40,162.2
13494,D6,1314.125,0.25,66,162.2
13495,D5,1314.125,0.25,66,162.2
13496,B-3,1314.344,0.25,31,162.2
13497,F3,1314.344,0.25,31,162.2
13498,B-5,1314.625,0.25,55,162.2
13499,F5,1314.625,0.25,55,162.2
13500,B-2,1314.844,0.25,74,162.2
13501,B-5,1315.125,1.0,62,162.2
13502,B-4,1315.125,0.25,53,162.2
13503,F4,1315.344,0.25,31,162.2
13504,D4,1315.344,0.25,31,162.2
13505,D5,1315.625,0.25,42,162.2
13506,F5,1315.625,0.25,42,162.2
13507,D4,1315.844,0.25,40,162.2
13508,B-3,1315.844,0.25,40,162.2
13509,F5,1316.125,1.0,77,162.2
13510,F4,1316.125,0.25,53,162.2
13511,B-3,1316.344,0.25,31,162.2
13512,F3,1316.344,0.25,31,162.2
13513,B-4,1316.625,0.25,41,162.2
13514,D5,1316.625,0.25,41,162.2
13515,B-2,1316.844,0.25,53,162.2
13516,F5,1317.125,0.25,58,162.2
13517,F4,1317.125,0.25,58,162.2
13518,F4,1317.344,0.25,31,162.2
13519,D4,1317.344,0.25,31,162.2
13520,F5,1317.625,0.25,51,162.2
13521,D5,1317.625,0.25,51,162.2
13522,B-4,1317.625,0.25,51,162.2
13523,D4,1317.844,0.25,40,162.2
13524,B-3,1317.844,0.25,40,162.2
13525,B-5,1318.125,0.25,64,162.2
13526,B-4,1318.125,0.25,64,162.2
13527,B-3,1318.344,0.25,31,162.2
13528,F3,1318.344,0.25,31,162.2
13529,F5,1318.625,0.25,55,162.2
13530,D5,1318.625,0.25,55,162.2
13531,B-2,1318.844,0.25,73,162.2
13532,F5,1319.125,1.0,62,162.2
13533,F4,1319.125,0.25,53,162.2
13534,D4,1319.344,0.25,32,162.2
13535,B-3,1319.344,0.25,32,162.2
13536,B-4,1319.625,0.25,42,162.2
13537,D5,1319.625,0.25,42,162.2
13538,B-3,1319.844,0.25,42,162.2
13539,F3,1319.844,0.25,42,162.2
13540,D5,1320.125,1.0,77,162.2
13541,D4,1320.125,0.25,56,162.2
13542,D4,1320.344,0.25,32,162.2
13543,B-3,1320.344,0.25,32,162.2
13544,B-4,1320.625,0.25,42,162.2
13545,F4,1320.625,0.25,42,162.2
13546,B-2,1320.844,0.25,51,162.2
13547,D5,1321.125,0.25,62,162.2
13548,D4,1321.125,0.25,62,162.2
13549,D4,1321.344,0.25,32,162.2
13550,B-3,1321.344,0.25,32,162.2
13551,E-5,1321.625,0.25,58,162.2
13552,E-4,1321.625,0.25,58,162.2
13553,B-3,1321.844,0.25,42,162.2
13554,F3,1321.844,0.25,42,162.2
13555,G5,1322.125,1.0,69,162.2
13556,G4,1322.125,0.25,51,162.2
13557,D4,1322.344,0.25,32,162.2
13558,B-3,1322.344,0.25,32,162.2
13559,B-4,1322.625,0.25,40,162.2
13560,D5,1322.625,0.25,40,162.2
13561,F2,1322.844,0.25,85,162.2
13562,F5,1323.125,1.0,57,162.2
13563,F4,1323.125,0.25,51,162.2
13564,E-4,1323.344,0.25,32,162.2
13565,C4,1323.344,0.25,32,162.2
13566,B-4,1323.625,0.25,40,162.2
13567,D5,1323.625,0.25,40,162.2
13568,C4,1323.844,0.25,42,162.2
13569,F3,1323.844,0.25,42,162.2
13570,F5,1324.125,1.0,77,162.2
13571,F4,1324.125,0.25,56,162.2
13572,E-4,1324.344,0.25,32,162.2
13573,C4,1324.344,0.25,32,162.2
13574,A4,1324.625,0.25,42,162.2
13575,C5,1324.625,0.25,42,162.2
13576,B-2,1324.844,0.25,61,162.2
13577,G5,1325.125,0.25,56,162.2
13578,G4,1325.125,0.25,56,162.2
13579,D4,1325.344,0.25,32,162.2
13580,B-3,1325.344,0.25,32,162.2
13581,A5,1325.625,0.25,54,162.2
13582,A4,1325.625,0.25,54,162.2
13583,B-3,1325.844,0.25,42,162.2
13584,F3,1325.844,0.25,42,162.2
13585,B-5,1326.125,1.0,69,162.2
13586,B-4,1326.125,0.25,51,162.2
13587,D5,1326.625,0.25,40,162.2
13588,F5,1326.625,0.25,40,162.2
13589,D4,1326.844,0.25,72,162.2
13590,B-4,1327.125,0.25,51,162.2
13591,F4,1327.344,0.25,34,162.2
13592,D5,1327.625,0.25,40,162.2
13593,F5,1327.625,0.25,40,162.2
13594,B-3,1327.844,0.25,44,162.2
13595,B-5,1328.125,1.0,78,162.2
13596,B-4,1328.125,0.25,53,162.2
13597,D4,1328.344,0.25,31,162.2
13598,F4,1328.344,0.25,31,162.2
13599,F5,1328.625,0.25,41,162.2
13600,D5,1328.625,0.25,41,162.2
13601,A3,1328.844,0.25,51,162.2
13602,C6,1329.125,0.25,57,162.2
13603,C5,1329.125,0.25,57,162.2
13604,C4,1329.344,0.25,31,162.2
13605,F4,1329.344,0.25,31,162.2
13606,D6,1329.625,0.25,54,162.2
13607,D5,1329.625,0.25,54,162.2
13608,F3,1329.844,0.25,44,162.2
13609,C6,1330.125,1.0,71,162.2
13610,C5,1330.125,0.25,49,162.2
13611,A3,1330.344,0.25,31,162.2
13612,C4,1330.344,0.25,31,162.2
13613,F5,1330.625,0.25,41,162.2
13614,A5,1330.625,0.25,41,162.2
13615,E3,1330.844,0.25,72,162.2
13616,A5,1331.125,1.0,57,162.2
13617,A4,1331.125,0.25,49,162.2
13618,G3,1331.344,0.25,31,162.2
13619,C4,1331.344,0.25,31,162.2
13620,F5,1331.625,0.25,38,162.2
13621,C5,1331.625,0.25,38,162.2
13622,C3,1331.844,0.25,44,162.2
13623,G5,1332.125,1.0,76,162.2
13624,G4,1332.125,0.25,53,162.2
13625,C4,1332.344,0.25,31,162.2
13626,E4,1332.344,0.25,31,162.2
13627,E5,1332.625,0.25,41,162.2
13628,C5,1332.625,0.25,41,162.2
13629,F3,1332.844,0.25,51,162.2
13630,A5,1333.125,0.25,56,162.2
13631,A4,1333.125,0.25,56,162.2
13632,C4,1333.344,0.25,31,162.2
13633,F4,1333.344,0.25,31,162.2
13634,B-5,1333.625,0.25,54,162.2
13635,B-4,1333.625,0.25,54,162.2
13636,A3,1333.844,0.25,44,162.2
13637,A5,1334.125,1.0,67,162.2
13638,A4,1334.125,0.25,49,162.2
13639,C4,1334.344,0.25,31,162.2
13640,F4,1334.344,0.25,31,162.2
13641,C5,1334.625,0.25,41,162.2
13642,F5,1334.625,0.25,41,162.2
13643,A3,1334.844,0.25,72,162.2
13644,F5,1335.125,1.0,57,162.2
13645,F4,1335.125,0.25,49,162.2
13646,A4,1335.344,0.25,31,162.2
13647,C4,1335.344,0.25,31,162.2
13648,F4,1335.344,0.25,31,162.2
13649,C5,1335.625,0.25,38,162.2
13650,A4,1335.625,0.25,38,162.2
13651,A3,1335.844,0.25,44,162.2
13652,C6,1336.125,1.0,74,162.2
13653,C5,1336.125,0.25,52,162.2
13654,C4,1336.344,0.25,30,162.2
13655,A4,1336.344,0.25,30,162.2
13656,F4,1336.344,0.25,30,162.2
13657,A5,1336.625,0.25,41,162.2
13658,F5,1336.625,0.25,41,162.2
13659,G#3,1336.844,0.25,56,162.2
13660,C6,1337.125,0.25,57,162.2
13661,C5,1337.125,0.25,57,162.2
13662,B3,1337.344,0.25,32,162.2
13663,F4,1337.344,0.25,32,162.2
13664,G#4,1337.344,0.25,32,162.2
13665,F5,1337.625,0.25,51,162.2
13666,C6,1337.625,0.25,51,162.2
13667,A5,1337.625,0.25,51,162.2
13668,G3,1337.844,0.25,48,162.2
13669,B5,1338.125,1.0,69,162.2
13670,B4,1338.125,0.25,53,162.2
13671,B-3,1338.344,0.25,32,162.2
13672,E4,1338.344,0.25,32,162.2
13673,G4,1338.344,0.25,32,162.2
13674,D5,1338.625,0.25,44,162.2
13675,F5,1338.625,0.25,44,162.2
13676,F3,1338.844,0.25,46,162.2
13677,B-5,1339.125,1.0,62,162.2
13678,B-4,1339.125,0.25,53,162.2
13679,F4,1339.344,0.25,27,162.2
13680,A3,1339.344,0.25,27,162.2
13681,C4,1339.344,0.25,27,162.2
13682,E5,1339.625,0.25,42,162.2
13683,C5,1339.625,0.25,42,162.2
13684,F3,1339.844,0.25,40,162.2
13685,A5,1340.125,1.0,58,162.2
13686,A4,1340.125,0.25,45,162.2
13687,G#3,1340.344,0.25,27,162.2
13688,C4,1340.344,0.25,27,162.2
13689,F4,1340.344,0.25,27,162.2
13690,C5,1340.625,0.25,37,162.2
13691,F5,1340.625,0.25,37,162.2
13692,C3,1340.844,0.25,46,162.2
13693,G#5,1341.125,1.0,52,162.2
13694,G#4,1341.125,0.25,45,162.2
13695,E4,1341.344,0.25,28,162.2
13696,C4,1341.344,0.25,28,162.2
13697,F5,1341.625,0.25,34,162.2
13698,C5,1341.625,0.25,34,162.2
13699,G3,1341.844,0.25,40,162.2
13700,G5,1342.125,2.0,58,162.2
13701,G4,1342.125,0.25,45,162.2
13702,C4,1342.344,0.25,28,162.2
13703,E4,1342.344,0.25,28,162.2
13704,C5,1342.625,0.25,37,162.2
13705,E5,1342.625,0.25,37,162.2
13706,C3,1342.844,0.25,72,162.2
13707,G4,1343.125,0.25,45,162.2
13708,C4,1343.344,0.25,30,162.2
13709,E4,1343.344,0.25,30,162.2
13710,E5,1343.625,0.25,34,162.2
13711,C5,1343.625,0.25,34,162.2
13712,G3,1343.844,0.25,44,162.2
13713,G5,1344.125,1.0,78,162.2
13714,G4,1344.125,0.25,53,162.2
13715,C4,1344.344,0.25,31,162.2
13716,E4,1344.344,0.25,31,162.2
13717,E5,1344.625,0.25,41,162.2
13718,C5,1344.625,0.25,41,162.2
13719,B2,1344.844,0.25,80,162.2
13720,G5,1345.125,0.25,62,162.2
13721,G4,1345.125,0.25,62,162.2
13722,D4,1345.344,0.25,31,162.2
13723,F4,1345.344,0.25,31,162.2
13724,E5,1345.625,0.25,52,162.2
13725,G5,1345.625,0.25,52,162.2
13726,C5,1345.625,0.25,52,162.2
13727,G3,1345.844,0.25,44,162.2
13728,G5,1346.125,1.0,71,162.2
13729,G4,1346.125,0.25,49,162.2
13730,D4,1346.344,0.25,31,162.2
13731,F4,1346.344,0.25,31,162.2
13732,D5,1346.625,0.25,41,162.2
13733,F5,1346.625,0.25,41,162.2
13734,G2,1346.844,0.25,89,162.2
13735,G5,1347.125,1.0,63,162.2
13736,G4,1347.125,0.25,49,162.2
13737,B3,1347.344,0.25,30,162.2
13738,F4,1347.344,0.25,30,162.2
13739,F5,1347.625,0.25,38,162.2
13740,D5,1347.625,0.25,38,162.2
13741,G3,1347.844,0.25,44,162.2
13742,G5,1348.125,0.25,60,162.2
13743,G4,1348.125,0.25,60,162.2
13744,A5,1348.325,1/5,58,162.2
13745,D4,1348.344,0.25,31,162.2
13746,F4,1348.344,0.25,31,162.2
13747,G5,1348.525,1/5,58,162.2
13748,D5,1348.625,0.25,44,162.2
13749,F#5,1348.725,1/5,59,162.2
13750,C3,1348.844,0.25,77,162.2
13751,G5,1348.925,1/5,59,162.2
13752,A5,1349.125,0.25,56,162.2
13753,A4,1349.125,0.25,56,162.2
13754,C4,1349.344,0.25,31,162.2
13755,E4,1349.344,0.25,31,162.2
13756,B5,1349.625,0.25,54,162.2
13757,B4,1349.625,0.25,54,162.2
13758,G3,1349.844,0.25,44,162.2
13759,C6,1350.125,1.0,71,162.2
13760,C5,1350.125,0.25,49,162.2
13761,C4,1350.344,0.25,31,162.2
13762,E4,1350.344,0.25,31,162.2
13763,E5,1350.625,0.25,41,162.2
13764,G5,1350.625,0.25,41,162.2
13765,G2,1350.844,0.25,77,162.2
13766,G5,1351.125,1.0,63,162.2
13767,G4,1351.125,0.25,49,162.2
13768,B3,1351.344,0.25,30,162.2
13769,F4,1351.344,0.25,30,162.2
13770,E5,1351.625,0.25,38,162.2
13771,C5,1351.625,0.25,38,162.2
13772,G3,1351.844,0.25,44,162.2
13773,G5,1352.125,0.25,60,162.2
13774,G4,1352.125,0.25,60,162.2
13775,A5,1352.325,1/5,58,162.2
13776,D4,1352.344,0.25,31,162.2
13777,F4,1352.344,0.25,31,162.2
13778,G5,1352.525,1/5,58,162.2
13779,D5,1352.625,0.25,44,162.2
13780,F#5,1352.725,1/5,59,162.2
13781,C3,1352.844,0.25,51,162.2
13782,G5,1352.925,1/5,59,162.2
13783,A5,1353.125,0.25,56,162.2
13784,A4,1353.125,0.25,56,162.2
13785,C4,1353.344,0.25,31,162.2
13786,E4,1353.344,0.25,31,162.2
13787,B5,1353.625,0.25,54,162.2
13788,B4,1353.625,0.25,54,162.2
13789,G3,1353.844,0.25,44,162.2
13790,C6,1354.125,1.0,71,162.2
13791,C5,1354.125,0.25,49,162.2
13792,C4,1354.344,0.25,31,162.2
13793,E4,1354.344,0.25,31,162.2
13794,E5,1354.625,0.25,41,162.2
13795,G5,1354.625,0.25,41,162.2
13796,G2,1354.844,0.25,86,162.2
13797,G5,1355.125,1.0,63,162.2
13798,G4,1355.125,0.25,49,162.2
13799,B3,1355.344,0.25,30,162.2
13800,F4,1355.344,0.25,30,162.2
13801,E5,1355.625,0.25,38,162.2
13802,C5,1355.625,0.25,38,162.2
13803,G3,1355.844,0.25,44,162.2
13804,G5,1356.125,0.25,60,162.2
13805,G4,1356.125,0.25,60,162.2
13806,A5,1356.325,1/5,58,162.2
13807,D4,1356.344,0.25,31,162.2
13808,F4,1356.344,0.25,31,162.2
13809,G5,1356.525,1/5,58,162.2
13810,D5,1356.625,0.25,44,162.2
13811,F#5,1356.725,1/5,59,162.2
13812,E4,1356.844,0.25,52,162.2
13813,C4,1356.844,0.25,52,162.2
13814,G5,1356.925,1/5,59,162.2
13815,A5,1357.125,0.25,56,162.2
13816,A4,1357.125,0.25,56,162.2
13817,C4,1357.344,0.25,44,162.2
13818,C3,1357.344,0.25,44,162.2
13819,B5,1357.625,0.25,54,162.2
13820,B4,1357.625,0.25,54,162.2
13821,G3,1357.844,0.25,50,162.2
13822,G2,1357.844,0.25,50,162.2
13823,C6,1358.125,2.0,54,162.2
13824,C5,1358.125,2.0,54,162.2
13825,F3,1358.344,0.25,55,162.2
13826,F2,1358.344,0.25,55,162.2
13827,E5,1358.625,0.25,65,162.2
13828,G5,1358.625,0.25,65,162.2
13829,E3,1358.844,0.25,82,162.2
13830,E2,1358.844,0.25,82,162.2
13831,E5,1359.125,0.25,72,162.2
13832,G5,1359.125,0.25,72,162.2
13833,C4,1359.344,0.25,51,162.2
13834,G3,1359.344,0.25,51,162.2
13835,E5,1359.625,0.25,78,162.2
13836,G5,1359.625,0.25,78,162.2
13837,C3,1359.844,0.25,58,162.2
13838,C2,1359.844,0.25,58,162.2
13839,C6,1360.125,1.0,83,162.2
13840,C5,1360.125,0.25,70,162.2
13841,C4,1360.344,0.25,49,162.2
13842,G3,1360.344,0.25,49,162.2
13843,E3,1360.344,0.25,49,162.2
13844,G5,1360.625,0.25,68,162.2
13845,E5,1360.625,0.25,68,162.2
13846,F3,1360.844,0.25,72,162.2
13847,F2,1360.844,0.25,72,162.2
13848,C6,1361.125,0.25,70,162.2
13849,C5,1361.125,0.25,70,162.2
13850,A3,1361.344,0.25,50,162.2
13851,F3,1361.344,0.25,50,162.2
13852,C6,1361.625,0.25,70,162.2
13853,C5,1361.625,0.25,70,162.2
13854,C4,1361.844,0.25,59,162.2
13855,A3,1361.844,0.25,59,162.2
13856,A5,1362.125,0.75,75,162.2
13857,A4,1362.125,0.75,75,162.2
13858,C5,1362.125,0.75,75,162.2
13859,A3,1362.344,0.25,50,162.2
13860,F3,1362.344,0.25,50,162.2
13861,E3,1362.844,0.25,71,162.2
13862,E2,1362.844,0.25,71,162.2
13863,G5,1362.875,0.25,73,162.2
13864,G4,1362.875,0.25,73,162.2
13865,B-4,1362.875,0.25,73,162.2
13866,F5,1363.125,1.0,75,162.2
13867,F4,1363.125,1.0,75,162.2
13868,A4,1363.125,1.0,75,162.2
13869,C4,1363.344,0.25,51,162.2
13870,G3,1363.344,0.25,51,162.2
13871,C3,1363.844,0.25,58,162.2
13872,C2,1363.844,0.25,58,162.2
13873,C6,1364.125,1.0,83,162.2
13874,C5,1364.125,0.25,70,162.2
13875,C4,1364.344,0.25,49,162.2
13876,G3,1364.344,0.25,49,162.2
13877,E3,1364.344,0.25,49,162.2
13878,G5,1364.625,0.25,68,162.2
13879,E5,1364.625,0.25,68,162.2
13880,F3,1364.844,0.25,72,162.2
13881,F2,1364.844,0.25,72,162.2
13882,C6,1365.125,0.25,70,162.2
13883,C5,1365.125,0.25,70,162.2
13884,C4,1365.344,0.25,50,162.2
13885,A3,1365.344,0.25,50,162.2
13886,C6,1365.625,0.25,70,162.2
13887,C5,1365.625,0.25,70,162.2
13888,E4,1365.719,0.125,59,162.2
13889,F4,1365.844,0.25,64,162.2
13890,A5,1366.125,0.25,75,162.2
13891,A4,1366.125,0.25,75,162.2
13892,C5,1366.125,0.25,75,162.2
13893,F4,1366.625,0.25,73,162.2
13894,A4,1366.625,0.25,73,162.2
13895,F5,1366.625,0.25,73,162.2
13896,C4,1366.844,1.0,60,162.2
13897,A3,1366.844,1.0,60,162.2
13898,E6,1367.0,0.125,84,162.2
13899,F6,1367.125,0.25,77,162.2
13900,F5,1367.125,0.25,77,162.2
13901,A3,1367.844,0.25,58,162.2
13902,F3,1367.844,0.25,58,162.2
13903,A5,1368.125,1.0,74,162.2
13904,C6,1368.125,1.0,74,162.2
13905,C5,1368.125,1.0,74,162.2
13906,D4,1368.344,0.25,50,162.2
13907,B-3,1368.344,0.25,50,162.2
13908,C4,1368.844,0.25,61,162.2
13909,A3,1368.844,0.25,61,162.2
13910,F5,1369.125,0.25,68,162.2
13911,A5,1369.125,0.25,68,162.2
13912,A4,1369.125,0.25,68,162.2
13913,A3,1369.344,0.25,50,162.2
13914,F3,1369.344,0.25,50,162.2
13915,B-5,1369.625,0.25,68,162.2
13916,D6,1369.625,0.25,68,162.2
13917,D5,1369.625,0.25,68,162.2
13918,F2,1369.844,0.25,60,162.2
13919,F3,1369.844,0.25,60,162.2
13920,C6,1370.125,0.25,75,162.2
13921,C5,1370.125,0.25,75,162.2
13922,A5,1370.125,0.25,75,162.2
13923,A4,1370.625,0.25,73,162.2
13924,F5,1370.625,0.25,73,162.2
13925,A5,1370.625,0.25,73,162.2
13926,C4,1370.844,1.0,60,162.2
13927,A3,1370.844,1.0,60,162.2
13928,E6,1371.0,0.125,84,162.2
13929,F6,1371.125,0.25,77,162.2
13930,F5,1371.125,0.25,77,162.2
13931,A3,1371.844,0.25,58,162.2
13932,F3,1371.844,0.25,58,162.2
13933,A5,1372.125,1.0,74,162.2
13934,C6,1372.125,1.0,74,162.2
13935,C5,1372.125,1.0,74,162.2
13936,D4,1372.344,0.25,50,162.2
13937,B-3,1372.344,0.25,50,162.2
13938,C4,1372.844,0.25,61,162.2
13939,A3,1372.844,0.25,61,162.2
13940,F5,1373.125,0.25,68,162.2
13941,A5,1373.125,0.25,68,162.2
13942,A4,1373.125,0.25,68,162.2
13943,A3,1373.344,0.25,50,162.2
13944,F3,1373.344,0.25,50,162.2
13945,B-5,1373.625,0.25,68,162.2
13946,D6,1373.625,0.25,68,162.2
13947,D5,1373.625,0.25,68,162.2
13948,F2,1373.844,0.25,60,162.2
13949,F3,1373.844,0.25,60,162.2
13950,C6,1374.125,0.25,75,162.2
13951,C5,1374.125,0.25,75,162.2
13952,A5,1374.125,0.25,75,162.2
13953,A4,1374.625,0.25,73,162.2
13954,F5,1374.625,0.25,73,162.2
13955,A5,1374.625,0.25,73,162.2
13956,C4,1374.844,1.0,60,162.2
13957,A3,1374.844,1.0,60,162.2
13958,E7,1375.0,0.125,88,162.2
13959,F7,1375.125,0.25,81,162.2
13960,F6,1375.125,0.25,81,162.2
13961,A3,1375.844,0.25,58,162.2
13962,F3,1375.844,0.25,58,162.2
13963,A5,1376.125,1.0,74,162.2
13964,C6,1376.125,1.0,74,162.2
13965,C5,1376.125,1.0,74,162.2
13966,D4,1376.344,0.25,50,162.2
13967,B-3,1376.344,0.25,50,162.2
13968,C4,1376.844,0.25,61,162.2
13969,A3,1376.844,0.25,61,162.2
13970,F5,1377.125,0.25,68,162.2
13971,A5,1377.125,0.25,68,162.2
13972,A4,1377.125,0.25,68,162.2
13973,A3,1377.344,0.25,50,162.2
13974,F3,1377.344,0.25,50,162.2
13975,B-5,1377.625,0.25,68,162.2
13976,D6,1377.625,0.25,68,162.2
13977,D5,1377.625,0.25,68,162.2
13978,F2,1377.844,0.25,60,162.2
13979,F3,1377.844,0.25,60,162.2
13980,C6,1378.125,0.25,75,162.2
13981,C5,1378.125,0.25,75,162.2
13982,A5,1378.125,0.25,75,162.2
13983,A4,1378.625,0.25,73,162.2
13984,F5,1378.625,0.25,73,162.2
13985,A5,1378.625,0.25,73,162.2
13986,C4,1378.844,1.0,60,162.2
13987,A3,1378.844,1.0,60,162.2
13988,E7,1379.0,0.125,88,162.2
13989,F7,1379.125,0.25,81,162.2
13990,F6,1379.125,0.25,81,162.2
13991,A3,1379.844,0.25,58,162.2
13992,F3,1379.844,0.25,58,162.2
13993,A5,1380.125,1.0,74,162.2
13994,C6,1380.125,1.0,74,162.2
13995,C5,1380.125,1.0,74,162.2
13996,D4,1380.344,0.25,50,162.2
13997,B-3,1380.344,0.25,50,162.2
13998,C4,1380.844,0.25,61,162.2
13999,A3,1380.844,0.25,61,162.2
14000,F5,1381.125,0.25,68,162.2
14001,A5,1381.125,0.25,68,162.2
14002,A4,1381.125,0.25,68,162.2
14003,B-5,1381.625,0.25,68,162.2
14004,D6,1381.625,0.25,68,162.2
14005,D5,1381.625,0.25,68,162.2
14006,A3,1381.844,0.25,44,162.2
14007,C6,1382.125,0.25,75,162.2
14008,C5,1382.125,0.25,75,162.2
14009,A5,1382.125,0.25,75,162.2
14010,C4,1382.344,0.25,30,162.2
14011,A4,1382.344,0.25,30,162.2
14012,F4,1382.344,0.25,30,162.2
14013,A3,1382.844,0.25,56,162.2
14014,C6,1383.125,1.0,61,162.2
14015,C5,1383.125,0.25,49,162.2
14016,C4,1383.344,0.25,34,162.2
14017,F4,1383.344,0.25,34,162.2
14018,F5,1383.625,0.25,42,162.2
14019,A5,1383.625,0.25,42,162.2
14020,G3,1383.844,0.25,48,162.2
14021,C5,1384.125,0.25,53,162.2
14022,C6,1384.125,1.0,61,162.2
14023,B3,1384.344,0.25,34,162.2
14024,D4,1384.344,0.25,34,162.2
14025,F5,1384.625,0.25,44,162.2
14026,A5,1384.625,0.25,44,162.2
14027,E3,1384.844,0.25,46,162.2
14028,B4,1385.125,0.25,53,162.2
14029,B5,1385.125,1.0,68,162.2
14030,G4,1385.344,0.25,27,162.2
14031,B-3,1385.344,0.25,27,162.2
14032,C4,1385.344,0.25,27,162.2
14033,F5,1385.625,0.25,42,162.2
14034,D5,1385.625,0.25,42,162.2
14035,F3,1385.844,0.25,40,162.2
14036,B-4,1386.125,0.25,45,162.2
14037,B-5,1386.125,1.0,63,162.2
14038,A3,1386.344,0.25,27,162.2
14039,C4,1386.344,0.25,27,162.2
14040,F4,1386.344,0.25,27,162.2
14041,C5,1386.625,0.25,37,162.2
14042,G5,1386.625,0.25,37,162.2
14043,C3,1386.844,0.25,46,162.2
14044,A4,1387.125,0.25,45,162.2
14045,A5,1387.125,1.0,57,162.2
14046,F4,1387.344,0.25,28,162.2
14047,C4,1387.344,0.25,28,162.2
14048,F5,1387.625,0.25,34,162.2
14049,C5,1387.625,0.25,34,162.2
14050,G3,1387.844,0.25,40,162.2
14051,G5,1388.125,0.25,56,162.2
14052,G4,1388.125,0.25,56,162.2
14053,C4,1388.344,0.25,28,162.2
14054,E4,1388.344,0.25,28,162.2
14055,A5,1388.625,0.25,54,162.2
14056,A4,1388.625,0.25,54,162.2
14057,F3,1388.844,0.25,61,162.2
14058,B-5,1389.125,0.25,54,162.2
14059,B-4,1389.125,0.25,54,162.2
14060,F4,1389.344,0.25,30,162.2
14061,C4,1389.344,0.25,30,162.2
14062,A3,1389.344,0.25,30,162.2
14063,C6,1389.625,0.25,54,162.2
14064,C5,1389.625,0.25,54,162.2
14065,A3,1389.844,0.25,44,162.2
14066,A5,1390.125,1.0,64,162.2
14067,A4,1390.125,0.25,56,162.2
14068,C4,1390.344,0.25,30,162.2
14069,A4,1390.344,0.25,30,162.2
14070,F4,1390.344,0.25,30,162.2
14071,C5,1390.625,0.25,44,162.2
14072,F5,1390.625,0.25,44,162.2
14073,G#3,1390.844,0.25,56,162.2
14074,C6,1391.125,1.0,61,162.2
14075,C5,1391.125,0.25,49,162.2
14076,F4,1391.344,0.25,32,162.2
14077,C4,1391.344,0.25,32,162.2
14078,G#4,1391.344,0.25,32,162.2
14079,F5,1391.625,0.25,42,162.2
14080,A5,1391.625,0.25,42,162.2
14081,G3,1391.844,0.25,48,162.2
14082,C5,1392.125,0.25,53,162.2
14083,C6,1392.125,1.0,61,162.2
14084,D4,1392.344,0.25,32,162.2
14085,B3,1392.344,0.25,32,162.2
14086,F4,1392.344,0.25,32,162.2
14087,F5,1392.625,0.25,44,162.2
14088,G#5,1392.625,0.25,44,162.2
14089,E3,1392.844,0.25,46,162.2
14090,B4,1393.125,0.25,53,162.2
14091,B5,1393.125,1.0,68,162.2
14092,E4,1393.344,0.25,27,162.2
14093,B-3,1393.344,0.25,27,162.2
14094,C#4,1393.344,0.25,27,162.2
14095,F5,1393.625,0.25,42,162.2
14096,D5,1393.625,0.25,42,162.2
14097,F3,1393.844,0.25,40,162.2
14098,B-4,1394.125,0.25,45,162.2
14099,B-5,1394.125,1.0,63,162.2
14100,A3,1394.344,0.25,27,162.2
14101,C4,1394.344,0.25,27,162.2
14102,F4,1394.344,0.25,27,162.2
14103,C#5,1394.625,0.25,37,162.2
14104,E5,1394.625,0.25,37,162.2
14105,C3,1394.844,0.25,46,162.2
14106,A4,1395.125,0.25,45,162.2
14107,A5,1395.125,1.0,57,162.2
14108,F4,1395.344,0.25,28,162.2
14109,C4,1395.344,0.25,28,162.2
14110,F5,1395.625,0.25,34,162.2
14111,C5,1395.625,0.25,34,162.2
14112,G3,1395.844,0.25,40,162.2
14113,G5,1396.125,0.25,56,162.2
14114,G4,1396.125,0.25,56,162.2
14115,C4,1396.344,0.25,28,162.2
14116,E4,1396.344,0.25,28,162.2
14117,A5,1396.625,0.25,54,162.2
14118,A4,1396.625,0.25,54,162.2
14119,F3,1396.844,0.25,61,162.2
14120,B-5,1397.125,0.25,54,162.2
14121,B-4,1397.125,0.25,54,162.2
14122,F4,1397.344,0.25,30,162.2
14123,C4,1397.344,0.25,30,162.2
14124,A3,1397.344,0.25,30,162.2
14125,C6,1397.625,0.25,54,162.2
14126,C5,1397.625,0.25,54,162.2
14127,A3,1397.844,0.25,44,162.2
14128,A5,1398.125,1.0,64,162.2
14129,A4,1398.125,0.25,56,162.2
14130,C4,1398.344,0.25,30,162.2
14131,A4,1398.344,0.25,30,162.2
14132,F4,1398.344,0.25,30,162.2
14133,C5,1398.625,0.25,44,162.2
14134,F5,1398.625,0.25,44,162.2
14135,G#3,1398.844,0.25,56,162.2
14136,C6,1399.125,1.0,61,162.2
14137,C5,1399.125,0.25,49,162.2
14138,D4,1399.344,0.25,32,162.2
14139,C4,1399.344,0.25,32,162.2
14140,F#4,1399.344,0.25,32,162.2
14141,F5,1399.625,0.25,42,162.2
14142,A5,1399.625,0.25,42,162.2
14143,G3,1399.844,0.25,48,162.2
14144,C5,1400.125,0.25,53,162.2
14145,C6,1400.125,1.0,61,162.2
14146,D4,1400.344,0.25,32,162.2
14147,B3,1400.344,0.25,32,162.2
14148,G4,1400.344,0.25,32,162.2
14149,D5,1400.625,0.25,44,162.2
14150,F#5,1400.625,0.25,44,162.2
14151,F#3,1400.844,0.25,46,162.2
14152,B4,1401.125,0.25,53,162.2
14153,B5,1401.125,1.0,68,162.2
14154,E4,1401.344,0.25,27,162.2
14155,B-3,1401.344,0.25,27,162.2
14156,C4,1401.344,0.25,27,162.2
14157,G5,1401.625,0.25,42,162.2
14158,D5,1401.625,0.25,42,162.2
14159,F3,1401.844,0.25,40,162.2
14160,B-4,1402.125,0.25,45,162.2
14161,B-5,1402.125,1.0,63,162.2
14162,A3,1402.344,0.25,27,162.2
14163,C4,1402.344,0.25,27,162.2
14164,F4,1402.344,0.25,27,162.2
14165,C5,1402.625,0.25,37,162.2
14166,E5,1402.625,0.25,37,162.2
14167,C#3,1402.844,0.25,46,162.2
14168,A4,1403.125,0.25,45,162.2
14169,A5,1403.125,1.0,57,162.2
14170,G3,1403.344,0.25,27,162.2
14171,F4,1403.344,0.25,27,162.2
14172,B-3,1403.344,0.25,27,162.2
14173,F5,1403.625,0.25,34,162.2
14174,C5,1403.625,0.25,34,162.2
14175,C3,1403.844,0.25,40,162.2
14176,G5,1404.125,0.25,56,162.2
14177,G4,1404.125,0.25,56,162.2
14178,G3,1404.344,0.25,27,162.2
14179,B-3,1404.344,0.25,27,162.2
14180,E4,1404.344,0.25,27,162.2
14181,A5,1404.625,0.25,54,162.2
14182,A4,1404.625,0.25,54,162.2
14183,F3,1404.844,0.25,46,162.2
14184,B-5,1405.125,0.25,54,162.2
14185,B-4,1405.125,0.25,54,162.2
14186,C4,1405.344,0.25,28,162.2
14187,A3,1405.344,0.25,28,162.2
14188,C6,1405.625,0.25,54,162.2
14189,C5,1405.625,0.25,54,162.2
14190,C4,1405.844,0.25,33,162.2
14191,F4,1405.844,0.25,33,162.2
14192,F4,1406.125,1.0,56,162.2
14193,F5,1406.125,1.0,56,162.2
14194,A3,1406.344,0.25,28,162.2
14195,C4,1406.344,0.25,28,162.2
14196,F2,1407.656,0.438,38,162.2
14197,A2,1407.719,0.375,41,162.2
14198,C3,1407.781,0.312,45,162.2
14199,F3,1407.844,0.25,48,162.2
14200,F4,1408.125,1.0,68,162.2
14201,F3,1408.125,0.25,49,162.2
14202,C4,1408.625,0.25,41,162.2
14203,A3,1408.625,0.25,41,162.2
14204,F4,1409.125,0.25,55,162.2
14205,F4,1409.625,0.25,46,162.2
14206,C4,1409.625,0.25,46,162.2
14207,A3,1409.625,0.25,46,162.2
14208,C#2,1409.656,0.438,41,162.2
14209,F2,1409.719,0.375,44,162.2
14210,B-2,1409.781,0.312,47,162.2
14211,C#3,1409.844,0.25,50,162.2
14212,B-4,1410.125,1.0,68,162.2
14213,B-3,1410.125,0.25,49,162.2
14214,C#4,1410.625,0.25,41,162.2
14215,F4,1410.625,0.25,41,162.2
14216,B-4,1411.125,1.0,55,162.2
14217,B-3,1411.125,0.25,49,162.2
14218,C#4,1411.625,0.25,38,162.2
14219,F4,1411.625,0.25,38,162.2
14220,B-1,1411.656,0.438,39,162.2
14221,C#2,1411.719,0.375,42,162.2
14222,F2,1411.781,0.312,45,162.2
14223,B-2,1411.844,0.25,48,162.2
14224,B-4,1412.125,1.0,67,162.2
14225,B-3,1412.125,0.25,49,162.2
14226,F4,1412.625,0.25,41,162.2
14227,C#4,1412.625,0.25,41,162.2
14228,C#5,1413.125,0.25,52,162.2
14229,C#4,1413.125,0.25,52,162.2
14230,B-4,1413.625,0.25,50,162.2
14231,B-3,1413.625,0.25,50,162.2
14232,F1,1413.656,0.438,38,162.2
14233,A1,1413.719,0.375,41,162.2
14234,C2,1413.781,0.312,45,162.2
14235,F2,1413.844,0.25,48,162.2
14236,A4,1414.125,1.0,63,162.2
14237,A3,1414.125,0.25,49,162.2
14238,F4,1414.625,0.25,41,162.2
14239,C4,1414.625,0.25,41,162.2
14240,F3,1415.125,0.25,49,162.2
14241,F4,1415.125,1.0,55,162.2
14242,A3,1415.625,0.25,38,162.2
14243,C4,1415.625,0.25,38,162.2
14244,F2,1415.656,0.438,38,162.2
14245,A2,1415.719,0.375,41,162.2
14246,C3,1415.781,0.312,45,162.2
14247,F3,1415.844,0.25,48,162.2
14248,F4,1416.125,1.0,68,162.2
14249,F3,1416.125,0.25,49,162.2
14250,C4,1416.625,0.25,41,162.2
14251,A3,1416.625,0.25,41,162.2
14252,F4,1417.125,0.25,55,162.2
14253,F4,1417.625,0.25,46,162.2
14254,C4,1417.625,0.25,46,162.2
14255,A3,1417.625,0.25,46,162.2
14256,C#2,1417.656,0.438,41,162.2
14257,F2,1417.719,0.375,44,162.2
14258,B-2,1417.781,0.312,47,162.2
14259,C#3,1417.844,0.25,50,162.2
14260,B-4,1418.125,1.0,68,162.2
14261,B-3,1418.125,0.25,49,162.2
14262,C#4,1418.625,0.25,41,162.2
14263,F4,1418.625,0.25,41,162.2
14264,B-4,1419.125,1.0,55,162.2
14265,B-3,1419.125,0.25,49,162.2
14266,C#4,1419.625,0.25,38,162.2
14267,F4,1419.625,0.25,38,162.2
14268,B-1,1419.656,0.438,39,162.2
14269,C#2,1419.719,0.375,42,162.2
14270,F2,1419.781,0.312,45,162.2
14271,B-2,1419.844,0.25,48,162.2
14272,B-4,1420.125,1.0,67,162.2
14273,B-3,1420.125,0.25,49,162.2
14274,F4,1420.625,0.25,41,162.2
14275,C#4,1420.625,0.25,41,162.2
14276,C#5,1421.125,0.25,52,162.2
14277,C#4,1421.125,0.25,52,162.2
14278,B-4,1421.625,0.25,50,162.2
14279,B-3,1421.625,0.25,50,162.2
14280,A1,1421.656,0.438,38,162.2
14281,C#2,1421.719,0.375,41,162.2
14282,E2,1421.781,0.312,45,162.2
14283,A2,1421.844,0.25,48,162.2
14284,A4,1422.125,2.0,63,162.2
14285,A3,1422.125,0.25,49,162.2
14286,E4,1422.625,0.25,41,162.2
14287,C#4,1422.625,0.25,41,162.2
14288,A3,1423.125,0.25,49,162.2
14289,C#4,1423.625,0.25,38,162.2
14290,E4,1423.625,0.25,38,162.2
14291,A2,1423.656,0.438,38,162.2
14292,C#3,1423.719,0.375,41,162.2
14293,E3,1423.781,0.312,45,162.2
14294,A3,1423.844,0.25,48,162.2
14295,A4,1424.125,1.0,68,162.2
14296,A3,1424.125,0.25,49,162.2
14297,E4,1424.625,0.25,41,162.2
14298,C#4,1424.625,0.25,41,162.2
14299,A4,1425.125,0.25,55,162.2
14300,A4,1425.625,0.25,46,162.2
14301,E4,1425.625,0.25,46,162.2
14302,C#4,1425.625,0.25,46,162.2
14303,F2,1425.656,0.438,41,162.2
14304,A2,1425.719,0.375,44,162.2
14305,D3,1425.781,0.312,47,162.2
14306,F3,1425.844,0.25,50,162.2
14307,D5,1426.125,1.0,68,162.2
14308,D4,1426.125,0.25,49,162.2
14309,F4,1426.625,0.25,41,162.2
14310,A4,1426.625,0.25,41,162.2
14311,D5,1427.125,1.0,55,162.2
14312,D4,1427.125,0.25,49,162.2
14313,F4,1427.625,0.25,38,162.2
14314,A4,1427.625,0.25,38,162.2
14315,D2,1427.656,0.438,39,162.2
14316,F2,1427.719,0.375,42,162.2
14317,A2,1427.781,0.312,45,162.2
14318,D3,1427.844,0.25,48,162.2
14319,D5,1428.125,1.0,67,162.2
14320,D4,1428.125,0.25,49,162.2
14321,A4,1428.625,0.25,41,162.2
14322,F4,1428.625,0.25,41,162.2
14323,F5,1429.125,0.25,52,162.2
14324,F4,1429.125,0.25,52,162.2
14325,D5,1429.625,0.25,50,162.2
14326,D4,1429.625,0.25,50,162.2
14327,C#2,1429.656,0.438,38,162.2
14328,F2,1429.719,0.375,41,162.2
14329,G#2,1429.781,0.312,45,162.2
14330,C#3,1429.844,0.25,48,162.2
14331,C#5,1430.125,2.0,63,162.2
14332,C#4,1430.125,0.25,49,162.2
14333,G#4,1430.625,0.25,41,162.2
14334,F4,1430.625,0.25,41,162.2
14335,C#4,1431.125,0.25,49,162.2
14336,F4,1431.625,0.25,38,162.2
14337,G#4,1431.625,0.25,38,162.2
14338,C#3,1431.656,0.438,38,162.2
14339,F3,1431.719,0.375,41,162.2
14340,G#3,1431.781,0.312,45,162.2
14341,C#4,1431.844,0.25,48,162.2
14342,C#5,1432.125,1.0,70,162.2
14343,C#4,1432.125,0.25,49,162.2
14344,G#4,1432.625,0.25,41,162.2
14345,F4,1432.625,0.25,41,162.2
14346,C#5,1433.125,0.25,57,162.2
14347,C#5,1433.625,0.25,46,162.2
14348,G#4,1433.625,0.25,46,162.2
14349,F4,1433.625,0.25,46,162.2
14350,A2,1433.656,0.438,41,162.2
14351,C#3,1433.719,0.375,44,162.2
14352,F#3,1433.781,0.312,47,162.2
14353,A3,1433.844,0.25,50,162.2
14354,F#5,1434.125,1.0,70,162.2
14355,F#4,1434.125,0.25,49,162.2
14356,A4,1434.625,0.25,41,162.2
14357,C#5,1434.625,0.25,41,162.2
14358,F#5,1435.125,1.0,57,162.2
14359,F#4,1435.125,0.25,49,162.2
14360,A4,1435.625,0.25,38,162.2
14361,C#5,1435.625,0.25,38,162.2
14362,F#2,1435.656,0.438,39,162.2
14363,A2,1435.719,0.375,42,162.2
14364,C#3,1435.781,0.312,45,162.2
14365,F#3,1435.844,0.25,48,162.2
14366,F#5,1436.125,1.0,69,162.2
14367,F#4,1436.125,0.25,49,162.2
14368,C#5,1436.625,0.25,41,162.2
14369,A4,1436.625,0.25,41,162.2
14370,A5,1437.125,0.25,53,162.2
14371,A4,1437.125,0.25,53,162.2
14372,F#5,1437.625,0.25,50,162.2
14373,F#4,1437.625,0.25,50,162.2
14374,F2,1437.656,0.438,38,162.2
14375,A2,1437.719,0.375,41,162.2
14376,C3,1437.781,0.312,45,162.2
14377,F3,1437.844,0.25,48,162.2
14378,F5,1438.125,1.0,65,162.2
14379,F4,1438.125,0.25,49,162.2
14380,C5,1438.625,0.25,41,162.2
14381,A4,1438.625,0.25,41,162.2
14382,C#3,1438.844,1.0,50,162.2
14383,C#2,1438.844,1.0,50,162.2
14384,F2,1438.844,1.0,50,162.2
14385,B-2,1438.844,1.0,50,162.2
14386,F5,1439.125,1.0,57,162.2
14387,F4,1439.125,0.25,49,162.2
14388,A4,1439.625,0.25,38,162.2
14389,C5,1439.625,0.25,38,162.2
14390,B-2,1439.844,1.0,47,162.2
14391,B-1,1439.844,1.0,47,162.2
14392,C#2,1439.844,1.0,47,162.2
14393,F2,1439.844,1.0,47,162.2
14394,B-5,1440.125,1.0,75,162.2
14395,B-4,1440.125,0.25,53,162.2
14396,F5,1440.625,0.25,44,162.2
14397,C#5,1440.625,0.25,44,162.2
14398,C#6,1441.125,0.25,57,162.2
14399,C#5,1441.125,0.25,57,162.2
14400,B-5,1441.625,0.25,54,162.2
14401,B-4,1441.625,0.25,54,162.2
14402,A3,1441.844,1.0,48,162.2
14403,A2,1441.844,1.0,48,162.2
14404,C#3,1441.844,1.0,48,162.2
14405,E3,1441.844,1.0,48,162.2
14406,A5,1442.125,1.0,71,162.2
14407,A4,1442.125,0.25,53,162.2
14408,E5,1442.625,0.25,44,162.2
14409,C#5,1442.625,0.25,44,162.2
14410,F3,1442.844,1.0,55,162.2
14411,F2,1442.844,1.0,55,162.2
14412,A2,1442.844,1.0,55,162.2
14413,D3,1442.844,1.0,55,162.2
14414,A5,1443.125,1.0,69,162.2
14415,A4,1443.125,0.25,53,162.2
14416,C#5,1443.625,0.25,42,162.2
14417,E5,1443.625,0.25,42,162.2
14418,D3,1443.844,1.0,52,162.2
14419,D2,1443.844,1.0,52,162.2
14420,F2,1443.844,1.0,52,162.2
14421,A2,1443.844,1.0,52,162.2
14422,D6,1444.125,1.0,86,162.2
14423,D5,1444.125,0.25,62,162.2
14424,A5,1444.625,0.25,48,162.2
14425,F5,1444.625,0.25,48,162.2
14426,F6,1445.125,0.25,64,162.2
14427,F5,1445.125,0.25,64,162.2
14428,D6,1445.625,0.25,60,162.2
14429,D5,1445.625,0.25,60,162.2
14430,C#4,1445.844,1.0,52,162.2
14431,C#3,1445.844,1.0,52,162.2
14432,F3,1445.844,1.0,52,162.2
14433,G#3,1445.844,1.0,52,162.2
14434,C#6,1446.125,1.0,79,162.2
14435,C#5,1446.125,0.25,59,162.2
14436,G#5,1446.625,0.25,48,162.2
14437,F5,1446.625,0.25,48,162.2
14438,A3,1446.844,1.0,55,162.2
14439,A2,1446.844,1.0,55,162.2
14440,C#3,1446.844,1.0,55,162.2
14441,F#3,1446.844,1.0,55,162.2
14442,C#6,1447.125,1.0,77,162.2
14443,C#5,1447.125,0.25,59,162.2
14444,F5,1447.625,0.25,46,162.2
14445,G#5,1447.625,0.25,46,162.2
14446,F#3,1447.844,1.0,52,162.2
14447,F#2,1447.844,1.0,52,162.2
14448,A2,1447.844,1.0,52,162.2
14449,C#3,1447.844,1.0,52,162.2
14450,F#6,1448.125,1.0,86,162.2
14451,F#5,1448.125,0.25,62,162.2
14452,C#6,1448.625,0.25,48,162.2
14453,A5,1448.625,0.25,48,162.2
14454,C#2,1448.844,1.0,55,162.2
14455,F2,1448.844,1.0,55,162.2
14456,G#2,1448.844,1.0,55,162.2
14457,C#3,1448.844,1.0,55,162.2
14458,A6,1449.125,0.25,64,162.2
14459,A5,1449.125,0.25,64,162.2
14460,F#6,1449.625,0.25,60,162.2
14461,F#5,1449.625,0.25,60,162.2
14462,C#4,1449.844,1.0,52,162.2
14463,C#3,1449.844,1.0,52,162.2
14464,F3,1449.844,1.0,52,162.2
14465,G#3,1449.844,1.0,52,162.2
14466,F6,1450.125,1.0,79,162.2
14467,F5,1450.125,0.25,59,162.2
14468,C#6,1450.625,0.25,48,162.2
14469,G#5,1450.625,0.25,48,162.2
14470,A3,1450.844,1.0,55,162.2
14471,A2,1450.844,1.0,55,162.2
14472,C#3,1450.844,1.0,55,162.2
14473,F#3,1450.844,1.0,55,162.2
14474,C#6,1451.125,1.0,77,162.2
14475,C#5,1451.125,0.25,59,162.2
14476,F5,1451.625,0.25,46,162.2
14477,G#5,1451.625,0.25,46,162.2
14478,F#3,1451.844,1.0,52,162.2
14479,F#2,1451.844,1.0,52,162.2
14480,A2,1451.844,1.0,52,162.2
14481,C#3,1451.844,1.0,52,162.2
14482,F#6,1452.125,1.0,86,162.2
14483,F#5,1452.125,0.25,62,162.2
14484,C#6,1452.625,0.25,48,162.2
14485,A5,1452.625,0.25,48,162.2
14486,C#2,1452.844,1.0,55,162.2
14487,F2,1452.844,1.0,55,162.2
14488,G#2,1452.844,1.0,55,162.2
14489,C#3,1452.844,1.0,55,162.2
14490,A6,1453.125,0.25,64,162.2
14491,A5,1453.125,0.25,64,162.2
14492,F#6,1453.625,0.25,60,162.2
14493,F#5,1453.625,0.25,60,162.2
14494,G#4,1453.844,1.0,53,162.2
14495,C#4,1453.844,1.0,53,162.2
14496,F4,1453.844,1.0,53,162.2
14497,F6,1454.125,1.0,79,162.2
14498,F5,1454.125,0.5,59,162.2
14499,C#6,1454.625,0.5,48,162.2
14500,G#5,1454.625,0.5,48,162.2
14501,C4,1454.844,1.0,56,162.2
14502,F#4,1454.844,1.0,56,162.2
14503,A4,1454.844,1.0,56,162.2
14504,G#6,1455.125,1.0,77,162.2
14505,G#5,1455.125,0.5,59,162.2
14506,C#6,1455.625,0.5,46,162.2
14507,F6,1455.625,0.5,46,162.2
14508,C#2,1455.844,1.0,50,162.2
14509,C3,1455.844,1.0,55,162.2
14510,A2,1455.844,1.0,55,162.2
14511,A6,1456.125,1.0,79,162.2
14512,A5,1456.125,0.5,59,162.2
14513,E-6,1456.625,0.5,48,162.2
14514,C6,1456.625,0.5,48,162.2
14515,C#2,1456.844,1.0,50,162.2
14516,G#2,1456.844,1.0,58,162.2
14517,C#3,1456.844,1.0,58,162.2
14518,F#6,1457.125,1.0,77,162.2
14519,F#5,1457.125,0.5,59,162.2
14520,A5,1457.625,0.5,46,162.2
14521,C6,1457.625,0.5,46,162.2
14522,G#4,1457.844,1.0,55,162.2
14523,C#4,1457.844,1.0,55,162.2
14524,F4,1457.844,1.0,55,162.2
14525,F6,1458.125,1.0,80,162.2
14526,F5,1458.125,0.5,60,162.2
14527,C#6,1458.625,0.5,48,162.2
14528,G#5,1458.625,0.5,48,162.2
14529,D4,1458.844,1.0,58,162.2
14530,G#4,1458.844,1.0,58,162.2
14531,B4,1458.844,1.0,58,162.2
14532,G#6,1459.125,1.0,79,162.2
14533,G#5,1459.125,0.5,60,162.2
14534,C#6,1459.625,0.5,47,162.2
14535,F6,1459.625,0.5,47,162.2
14536,D3,1459.844,1.0,56,162.2
14537,D2,1459.844,1.0,56,162.2
14538,B2,1459.844,1.0,56,162.2
14539,B6,1460.125,1.0,81,162.2
14540,B5,1460.125,0.5,62,162.2
14541,F6,1460.625,0.5,50,162.2
14542,D6,1460.625,0.5,50,162.2
14543,E-2,1460.844,1.0,59,162.2
14544,B-2,1460.844,1.0,59,162.2
14545,E-3,1460.844,1.0,59,162.2
14546,G#6,1461.125,1.0,80,162.2
14547,G#5,1461.125,0.5,62,162.2
14548,B5,1461.625,0.5,48,162.2
14549,F6,1461.625,0.5,48,162.2
14550,B-4,1461.844,1.0,56,162.2
14551,E-4,1461.844,1.0,56,162.2
14552,G4,1461.844,1.0,56,162.2
14553,G6,1462.125,1.0,82,162.2
14554,G5,1462.125,0.5,62,162.2
14555,E-6,1462.625,0.5,51,162.2
14556,B-5,1462.625,0.5,51,162.2
14557,D4,1462.844,1.0,60,162.2
14558,G#4,1462.844,1.0,60,162.2
14559,B4,1462.844,1.0,60,162.2
14560,B-6,1463.125,1.0,81,162.2
14561,B-5,1463.125,0.5,63,162.2
14562,E-6,1463.625,0.5,48,162.2
14563,G6,1463.625,0.5,48,162.2
14564,E-2,1463.844,1.0,54,162.2
14565,D3,1463.844,1.0,60,162.2
14566,B2,1463.844,1.0,60,162.2
14567,B6,1464.125,1.0,83,162.2
14568,B5,1464.125,0.5,63,162.2
14569,F6,1464.625,0.5,52,162.2
14570,D6,1464.625,0.5,52,162.2
14571,E-2,1464.844,1.0,54,162.2
14572,B-2,1464.844,1.0,64,162.2
14573,E-3,1464.844,1.0,64,162.2
14574,G#6,1465.125,1.0,82,162.2
14575,G#5,1465.125,0.5,64,162.2
14576,B5,1465.625,0.5,48,162.2
14577,F6,1465.625,0.5,48,162.2
14578,B-4,1465.844,1.0,59,162.2
14579,E-4,1465.844,1.0,59,162.2
14580,G4,1465.844,1.0,59,162.2
14581,G6,1466.125,1.0,86,162.2
14582,G5,1466.125,0.5,64,162.2
14583,E-6,1466.625,0.5,52,162.2
14584,B-5,1466.625,0.5,52,162.2
14585,E4,1466.844,1.0,61,162.2
14586,B-4,1466.844,1.0,61,162.2
14587,C#5,1466.844,1.0,61,162.2
14588,B-6,1467.125,1.0,83,162.2
14589,B-5,1467.125,0.5,65,162.2
14590,E-6,1467.625,0.5,50,162.2
14591,G6,1467.625,0.5,50,162.2
14592,E3,1467.844,1.0,59,162.2
14593,E2,1467.844,1.0,59,162.2
14594,C#3,1467.844,1.0,59,162.2
14595,C#7,1468.125,1.0,86,162.2
14596,C#6,1468.125,0.5,65,162.2
14597,G6,1468.625,0.5,54,162.2
14598,E6,1468.625,0.5,54,162.2
14599,F2,1468.844,1.0,62,162.2
14600,C3,1468.844,1.0,62,162.2
14601,F3,1468.844,1.0,62,162.2
14602,B-6,1469.125,1.0,85,162.2
14603,B-5,1469.125,0.5,65,162.2
14604,C#6,1469.625,0.5,50,162.2
14605,G6,1469.625,0.5,50,162.2
14606,C4,1469.844,1.0,60,162.2
14607,F3,1469.844,1.0,60,162.2
14608,A3,1469.844,1.0,60,162.2
14609,A6,1470.125,1.0,88,162.2
14610,A5,1470.125,0.5,66,162.2
14611,F6,1470.625,0.5,54,162.2
14612,C6,1470.625,0.5,54,162.2
14613,E3,1470.844,0.906,63,162.2
14614,B-3,1470.844,0.906,63,162.2
14615,C#4,1470.844,0.906,63,162.2
14616,C7,1471.125,1.0,86,162.2
14617,C6,1471.125,0.5,66,162.2
14618,F6,1471.625,0.5,50,162.2
14619,A6,1471.625,0.5,50,162.2
14620,F2,1471.75,0.969,57,162.2
14621,C#3,1471.75,0.969,57,162.2
14622,E3,1471.812,0.906,63,162.2
14623,B-3,1471.812,0.906,63,162.2
14624,C#7,1472.125,1.0,89,162.2
14625,C#6,1472.125,0.5,67,162.2
14626,G6,1472.625,0.5,54,162.2
14627,E6,1472.625,0.5,54,162.2
14628,F2,1472.75,0.094,59,162.2
14629,C3,1472.75,0.094,59,162.2
14630,F3,1472.812,0.031,66,162.2
14631,A3,1472.812,0.031,66,162.2
14632,F2,1472.844,0.969,59,162.2
14633,C3,1472.844,0.969,59,162.2
14634,F3,1472.844,0.969,66,162.2
14635,A3,1472.844,0.969,66,162.2
14636,B-6,1473.125,1.0,88,162.2
14637,B-5,1473.125,0.5,67,162.2
14638,C#6,1473.625,0.5,52,162.2
14639,G6,1473.625,0.5,52,162.2
14640,C4,1473.844,1.0,62,162.2
14641,F3,1473.844,1.0,62,162.2
14642,A3,1473.844,1.0,62,162.2
14643,A6,1474.125,1.0,90,162.2
14644,A5,1474.125,0.5,67,162.2
14645,F6,1474.625,0.5,56,162.2
14646,C6,1474.625,0.5,56,162.2
14647,E3,1474.844,0.906,65,162.2
14648,B-3,1474.844,0.906,65,162.2
14649,C#4,1474.844,0.906,65,162.2
14650,C7,1475.125,1.0,88,162.2
14651,C6,1475.125,0.5,69,162.2
14652,F6,1475.625,0.5,52,162.2
14653,A6,1475.625,0.5,52,162.2
14654,F2,1475.75,0.969,58,162.2
14655,C#3,1475.75,0.969,58,162.2
14656,E3,1475.812,0.906,64,162.2
14657,B-3,1475.812,0.906,64,162.2
14658,C#7,1476.125,1.0,92,162.2
14659,C#6,1476.125,0.5,69,162.2
14660,G6,1476.625,0.5,56,162.2
14661,E6,1476.625,0.5,56,162.2
14662,F2,1476.75,0.094,62,162.2
14663,C3,1476.75,0.094,62,162.2
14664,F3,1476.812,0.031,68,162.2
14665,A3,1476.812,0.031,68,162.2
14666,F2,1476.844,0.969,62,162.2
14667,C3,1476.844,0.969,62,162.2
14668,F3,1476.844,0.969,68,162.2
14669,A3,1476.844,0.969,68,162.2
14670,B-6,1477.125,1.0,90,162.2
14671,B-5,1477.125,0.5,70,162.2
14672,C#6,1477.625,0.5,54,162.2
14673,G6,1477.625,0.5,54,162.2
14674,C4,1477.844,1.0,72,162.2
14675,A6,1478.125,1.0,94,162.2
14676,A5,1478.125,0.5,70,162.2
14677,F6,1478.625,0.5,57,162.2
14678,C6,1478.625,0.5,57,162.2
14679,E-4,1478.844,2.0,79,162.2
14680,C7,1479.125,1.0,92,162.2
14681,C6,1479.125,0.5,71,162.2
14682,F6,1479.625,0.5,54,162.2
14683,A6,1479.625,0.5,54,162.2
14684,E-7,1480.125,2.0,101,162.2
14685,E-6,1480.125,2.0,101,162.2
14686,G3,1480.844,2.0,73,162.2
14687,G4,1482.125,2.0,80,162.2
14688,G5,1482.125,2.0,80,162.2
14689,A3,1482.844,0.125,72,162.2
14690,B-4,1482.969,0.125,60,162.2
14691,A3,1483.094,0.125,64,162.2
14692,B-4,1483.219,0.125,54,162.2
14693,A3,1483.344,0.125,64,162.2
14694,B-4,1483.469,0.125,54,162.2
14695,A3,1483.594,0.125,64,162.2
14696,B-4,1483.719,0.125,54,162.2
14697,A3,1483.844,0.125,64,162.2
14698,B-4,1483.969,0.125,53,162.2
14699,A3,1484.094,0.125,64,162.2
14700,A4,1484.125,0.125,83,162.2
14701,B-4,1484.219,0.125,53,162.2
14702,B-5,1484.25,0.125,55,162.2
14703,A3,1484.344,0.125,64,162.2
14704,A4,1484.375,0.125,63,162.2
14705,B-4,1484.469,0.125,53,162.2
14706,B-5,1484.5,0.125,46,162.2
14707,A3,1484.594,0.125,64,162.2
14708,A4,1484.625,0.125,64,162.2
14709,B-4,1484.719,0.125,51,162.2
14710,B-5,1484.75,0.125,46,162.2
14711,A3,1484.844,0.125,64,162.2
14712,A4,1484.875,0.125,61,162.2
14713,B-4,1484.969,0.125,51,162.2
14714,B-5,1485.0,0.125,46,162.2
14715,A3,1485.094,0.125,64,162.2
14716,A4,1485.125,0.125,59,162.2
14717,B-4,1485.219,0.125,52,162.2
14718,B-5,1485.25,0.125,45,162.2
14719,A3,1485.344,0.125,64,162.2
14720,A4,1485.375,0.125,58,162.2
14721,B-4,1485.469,0.125,53,162.2
14722,B-5,1485.5,0.125,48,162.2
14723,A3,1485.594,0.25,72,162.2
14724,A4,1485.625,0.125,59,162.2
14725,B-5,1485.75,0.125,46,162.2
14726,G3,1485.844,0.125,74,162.2
14727,A4,1485.875,0.125,64,162.2
14728,B-5,1486.0,0.125,50,162.2
14729,A3,1486.094,0.125,74,162.2
14730,A4,1486.125,0.125,65,162.2
14731,B-5,1486.25,0.125,52,162.2
14732,B-1,1486.344,0.25,82,162.2
14733,B-2,1486.344,0.25,82,162.2
14734,A4,1486.375,0.125,65,162.2
14735,B-5,1486.5,0.125,52,162.2
14736,A4,1486.625,0.125,65,162.2
14737,B-5,1486.75,0.125,51,162.2
14738,F4,1486.844,0.25,44,162.2
14739,D4,1486.844,0.25,44,162.2
14740,A4,1486.875,0.25,73,162.2
14741,G5,1487.125,0.125,74,162.2
14742,G4,1487.125,0.125,74,162.2
14743,D4,1487.344,0.25,57,162.2
14744,B-3,1487.344,0.25,57,162.2
14745,A5,1487.375,0.125,74,162.2
14746,A4,1487.375,0.125,74,162.2
14747,B-5,1487.625,1.0,88,162.2
14748,B-4,1487.625,0.25,63,162.2
14749,B-3,1487.844,0.25,44,162.2
14750,F3,1487.844,0.25,44,162.2
14751,F5,1488.125,0.25,53,162.2
14752,D5,1488.125,0.25,53,162.2
14753,B-2,1488.344,0.25,66,162.2
14754,B-5,1488.625,0.25,67,162.2
14755,B-4,1488.625,0.25,67,162.2
14756,F4,1488.844,0.25,44,162.2
14757,D4,1488.844,0.25,44,162.2
14758,B-5,1489.125,0.25,59,162.2
14759,F5,1489.125,0.25,59,162.2
14760,D5,1489.125,0.25,59,162.2
14761,D4,1489.344,0.25,57,162.2
14762,B-3,1489.344,0.25,57,162.2
14763,D6,1489.625,0.25,76,162.2
14764,D5,1489.625,0.25,76,162.2
14765,B-3,1489.844,0.25,44,162.2
14766,F3,1489.844,0.25,44,162.2
14767,B-5,1490.125,0.25,64,162.2
14768,F5,1490.125,0.25,64,162.2
14769,B-2,1490.344,0.25,88,162.2
14770,B-5,1490.625,1.0,71,162.2
14771,B-4,1490.625,0.25,63,162.2
14772,F4,1490.844,0.25,44,162.2
14773,D4,1490.844,0.25,44,162.2
14774,D5,1491.125,0.25,50,162.2
14775,F5,1491.125,0.25,50,162.2
14776,D4,1491.344,0.25,57,162.2
14777,B-3,1491.344,0.25,57,162.2
14778,F5,1491.625,1.0,87,162.2
14779,F4,1491.625,0.25,63,162.2
14780,B-3,1491.844,0.25,44,162.2
14781,F3,1491.844,0.25,44,162.2
14782,B-4,1492.125,0.25,53,162.2
14783,D5,1492.125,0.25,53,162.2
14784,B-2,1492.344,0.25,63,162.2
14785,F5,1492.625,0.25,67,162.2
14786,F4,1492.625,0.25,67,162.2
14787,F4,1492.844,0.25,44,162.2
14788,D4,1492.844,0.25,44,162.2
14789,F5,1493.125,0.25,59,162.2
14790,D5,1493.125,0.25,59,162.2
14791,B-4,1493.125,0.25,59,162.2
14792,D4,1493.344,0.25,57,162.2
14793,B-3,1493.344,0.25,57,162.2
14794,B-5,1493.625,0.25,74,162.2
14795,B-4,1493.625,0.25,74,162.2
14796,B-3,1493.844,0.25,44,162.2
14797,F3,1493.844,0.25,44,162.2
14798,F5,1494.125,0.25,64,162.2
14799,D5,1494.125,0.25,64,162.2
14800,B-2,1494.344,0.25,87,162.2
14801,F5,1494.625,1.0,71,162.2
14802,F4,1494.625,0.25,63,162.2
14803,D4,1494.844,0.25,44,162.2
14804,B-3,1494.844,0.25,44,162.2
14805,B-4,1495.125,0.25,50,162.2
14806,D5,1495.125,0.25,50,162.2
14807,B-3,1495.344,0.25,58,162.2
14808,F3,1495.344,0.25,58,162.2
14809,D5,1495.625,1.0,91,162.2
14810,D4,1495.625,0.25,66,162.2
14811,D4,1495.844,0.25,44,162.2
14812,B-3,1495.844,0.25,44,162.2
14813,F4,1496.125,0.25,54,162.2
14814,B-4,1496.125,0.25,54,162.2
14815,B-2,1496.344,0.25,66,162.2
14816,D5,1496.625,0.25,72,162.2
14817,D4,1496.625,0.25,72,162.2
14818,D4,1496.844,0.25,44,162.2
14819,B-3,1496.844,0.25,44,162.2
14820,E-5,1497.125,0.25,68,162.2
14821,E-4,1497.125,0.25,68,162.2
14822,B-3,1497.344,0.25,58,162.2
14823,F3,1497.344,0.25,58,162.2
14824,G5,1497.625,1.0,89,162.2
14825,G4,1497.625,0.25,66,162.2
14826,D4,1497.844,0.25,44,162.2
14827,B-3,1497.844,0.25,44,162.2
14828,B-4,1498.125,0.25,52,162.2
14829,D5,1498.125,0.25,52,162.2
14830,F2,1498.344,0.25,103,162.2
14831,F5,1498.625,1.0,74,162.2
14832,F4,1498.625,0.25,66,162.2
14833,E-4,1498.844,0.25,44,162.2
14834,C4,1498.844,0.25,44,162.2
14835,B-4,1499.125,0.25,52,162.2
14836,D5,1499.125,0.25,52,162.2
14837,C4,1499.344,0.25,58,162.2
14838,F3,1499.344,0.25,58,162.2
14839,F5,1499.625,1.0,91,162.2
14840,F4,1499.625,0.25,66,162.2
14841,E-4,1499.844,0.25,44,162.2
14842,C4,1499.844,0.25,44,162.2
14843,A4,1500.125,0.25,54,162.2
14844,C5,1500.125,0.25,54,162.2
14845,B-2,1500.344,0.25,79,162.2
14846,G5,1500.625,0.25,72,162.2
14847,G4,1500.625,0.25,72,162.2
14848,D4,1500.844,0.25,44,162.2
14849,B-3,1500.844,0.25,44,162.2
14850,A5,1501.125,0.25,68,162.2
14851,A4,1501.125,0.25,68,162.2
14852,B-3,1501.344,0.25,56,162.2
14853,F3,1501.344,0.25,56,162.2
14854,B-5,1501.625,1.0,89,162.2
14855,B-4,1501.625,0.25,66,162.2
14856,D4,1501.844,0.25,38,162.2
14857,B-3,1501.844,0.25,38,162.2
14858,D5,1502.125,0.25,52,162.2
14859,F5,1502.125,0.25,52,162.2
14860,B-2,1502.344,0.25,59,162.2
14861,B-4,1502.625,0.25,63,162.2
14862,F4,1502.844,0.25,28,162.2
14863,D4,1502.844,0.25,28,162.2
14864,D5,1503.125,0.25,46,162.2
14865,F5,1503.125,0.25,46,162.2
14866,D4,1503.344,0.25,36,162.2
14867,B-3,1503.344,0.25,36,162.2
14868,B-6,1503.625,1.0,63,162.2
14869,B-5,1503.625,0.25,44,162.2
14870,B-3,1503.844,0.25,28,162.2
14871,F3,1503.844,0.25,28,162.2
14872,F6,1504.125,0.25,36,162.2
14873,D6,1504.125,0.25,36,162.2
14874,B-2,1504.344,0.25,45,162.2
14875,B-6,1504.625,0.25,46,162.2
14876,B-5,1504.625,0.25,46,162.2
14877,F4,1504.844,0.25,28,162.2
14878,D4,1504.844,0.25,28,162.2
14879,B-6,1505.125,0.25,41,162.2
14880,F6,1505.125,0.25,41,162.2
14881,D6,1505.125,0.25,41,162.2
14882,D4,1505.344,0.25,36,162.2
14883,B-3,1505.344,0.25,36,162.2
14884,D7,1505.625,0.25,54,162.2
14885,D6,1505.625,0.25,54,162.2
14886,B-3,1505.844,0.25,28,162.2
14887,F3,1505.844,0.25,28,162.2
14888,B-6,1506.125,0.25,45,162.2
14889,F6,1506.125,0.25,45,162.2
14890,B-2,1506.344,0.25,61,162.2
14891,B-6,1506.625,1.0,51,162.2
14892,B-5,1506.625,0.25,44,162.2
14893,F4,1506.844,0.25,28,162.2
14894,D4,1506.844,0.25,28,162.2
14895,D6,1507.125,0.25,34,162.2
14896,F6,1507.125,0.25,34,162.2
14897,D4,1507.344,0.25,36,162.2
14898,B-3,1507.344,0.25,36,162.2
14899,F6,1507.625,1.0,63,162.2
14900,F5,1507.625,0.25,44,162.2
14901,B-3,1507.844,0.25,28,162.2
14902,F3,1507.844,0.25,28,162.2
14903,B-5,1508.125,0.25,36,162.2
14904,D6,1508.125,0.25,36,162.2
14905,B-2,1508.344,0.25,44,162.2
14906,F6,1508.625,0.25,46,162.2
14907,F5,1508.625,0.25,46,162.2
14908,F4,1508.844,0.25,28,162.2
14909,D4,1508.844,0.25,28,162.2
14910,F6,1509.125,0.25,41,162.2
14911,D6,1509.125,0.25,41,162.2
14912,B-5,1509.125,0.25,41,162.2
14913,D4,1509.344,0.25,36,162.2
14914,B-3,1509.344,0.25,36,162.2
14915,B-6,1509.625,0.25,53,162.2
14916,B-5,1509.625,0.25,53,162.2
14917,B-3,1509.844,0.25,28,162.2
14918,F3,1509.844,0.25,28,162.2
14919,F6,1510.125,0.25,45,162.2
14920,D6,1510.125,0.25,45,162.2
14921,B-2,1510.344,0.25,60,162.2
14922,F6,1510.625,1.0,51,162.2
14923,F5,1510.625,0.25,44,162.2
14924,F4,1510.844,0.25,28,162.2
14925,D4,1510.844,0.25,28,162.2
14926,B-5,1511.125,0.25,34,162.2
14927,D6,1511.125,0.25,34,162.2
14928,D4,1511.344,0.25,38,162.2
14929,B-3,1511.344,0.25,38,162.2
14930,D6,1511.625,1.0,63,162.2
14931,D5,1511.625,0.25,45,162.2
14932,B-3,1511.844,0.25,28,162.2
14933,F3,1511.844,0.25,28,162.2
14934,B-5,1512.125,0.25,37,162.2
14935,F5,1512.125,0.25,37,162.2
14936,B-2,1512.344,0.25,45,162.2
14937,D6,1512.625,0.25,46,162.2
14938,D5,1512.625,0.25,46,162.2
14939,F4,1512.844,0.25,28,162.2
14940,D4,1512.844,0.25,28,162.2
14941,E-6,1513.125,0.25,44,162.2
14942,E-5,1513.125,0.25,44,162.2
14943,D4,1513.344,0.25,38,162.2
14944,B-3,1513.344,0.25,38,162.2
14945,G6,1513.625,1.0,62,162.2
14946,G5,1513.625,0.25,45,162.2
14947,B-3,1513.844,0.25,28,162.2
14948,F3,1513.844,0.25,28,162.2
14949,B-5,1514.125,0.25,36,162.2
14950,D6,1514.125,0.25,36,162.2
14951,F2,1514.344,0.25,76,162.2
14952,F6,1514.625,1.0,51,162.2
14953,F5,1514.625,0.25,45,162.2
14954,F4,1514.844,0.25,28,162.2
14955,E-4,1514.844,0.25,28,162.2
14956,B-5,1515.125,0.25,36,162.2
14957,D6,1515.125,0.25,36,162.2
14958,E-4,1515.344,0.25,38,162.2
14959,C4,1515.344,0.25,38,162.2
14960,F6,1515.625,1.0,63,162.2
14961,F5,1515.625,0.25,45,162.2
14962,C4,1515.844,0.25,28,162.2
14963,F3,1515.844,0.25,28,162.2
14964,A5,1516.125,0.25,38,162.2
14965,C6,1516.125,0.25,38,162.2
14966,B-2,1516.344,0.25,54,162.2
14967,G6,1516.625,0.25,46,162.2
14968,G5,1516.625,0.25,46,162.2
14969,F4,1516.844,0.25,28,162.2
14970,D4,1516.844,0.25,28,162.2
14971,A6,1517.125,0.25,44,162.2
14972,A5,1517.125,0.25,44,162.2
14973,D4,1517.344,0.25,38,162.2
14974,B-3,1517.344,0.25,38,162.2
14975,B-6,1517.625,0.25,54,162.2
14976,B-5,1517.625,0.25,54,162.2
14977,B-3,1517.844,0.25,28,162.2
14978,F3,1517.844,0.25,28,162.2
14979,B-4,1518.125,0.25,36,162.2
14980,D5,1518.125,0.25,36,162.2
14981,B-2,1518.344,0.25,85,162.2
14982,D5,1518.625,0.25,38,162.2
14983,F5,1518.625,0.25,38,162.2
14984,F3,1518.844,0.25,42,162.2
14985,D4,1518.844,0.25,42,162.2
14986,B-3,1518.844,0.25,42,162.2
14987,F5,1519.125,0.25,36,162.2
14988,B-5,1519.125,0.25,36,162.2
14989,F2,1519.344,0.25,62,162.2
14990,D6,1519.625,1.0,75,162.2
14991,D5,1519.625,1.0,75,162.2
14992,F5,1519.625,1.0,75,162.2
14993,D3,1519.844,0.25,42,162.2
14994,B-3,1519.844,0.25,42,162.2
14995,F3,1519.844,0.25,42,162.2
14996,C3,1520.344,0.25,66,162.2
14997,B-5,1520.625,0.25,74,162.2
14998,B-4,1520.625,0.25,74,162.2
14999,F3,1520.844,0.25,42,162.2
15000,E-4,1520.844,0.25,42,162.2
15001,A3,1520.844,0.25,42,162.2
15002,F5,1521.125,0.25,66,162.2
15003,F4,1521.125,0.25,66,162.2
15004,F2,1521.344,0.25,62,162.2
15005,E-6,1521.625,1.0,75,162.2
15006,E-5,1521.625,1.0,75,162.2
15007,A5,1521.625,1.0,75,162.2
15008,E-3,1521.844,0.25,42,162.2
15009,A3,1521.844,0.25,42,162.2
15010,F3,1521.844,0.25,42,162.2
15011,B-2,1522.344,0.25,85,162.2
15012,A5,1522.625,1.0,67,162.2
15013,A4,1522.625,1.0,67,162.2
15014,F3,1522.844,0.25,42,162.2
15015,D4,1522.844,0.25,42,162.2
15016,B-3,1522.844,0.25,42,162.2
15017,F2,1523.344,0.25,62,162.2
15018,D6,1523.625,1.0,75,162.2
15019,D5,1523.625,1.0,75,162.2
15020,F5,1523.625,1.0,75,162.2
15021,D3,1523.844,0.25,42,162.2
15022,B-3,1523.844,0.25,42,162.2
15023,F3,1523.844,0.25,42,162.2
15024,C3,1524.344,0.25,66,162.2
15025,B-5,1524.625,0.25,74,162.2
15026,B-4,1524.625,0.25,74,162.2
15027,F3,1524.844,0.25,42,162.2
15028,E-4,1524.844,0.25,42,162.2
15029,A3,1524.844,0.25,42,162.2
15030,F5,1525.125,0.25,66,162.2
15031,F4,1525.125,0.25,66,162.2
15032,F2,1525.344,0.25,62,162.2
15033,E-6,1525.625,1.0,75,162.2
15034,E-5,1525.625,1.0,75,162.2
15035,A5,1525.625,1.0,75,162.2
15036,E-3,1525.844,0.25,42,162.2
15037,A3,1525.844,0.25,42,162.2
15038,F3,1525.844,0.25,42,162.2
15039,B-2,1526.344,0.25,85,162.2
15040,A5,1526.625,1.0,67,162.2
15041,A4,1526.625,1.0,67,162.2
15042,F3,1526.844,0.25,42,162.2
15043,D4,1526.844,0.25,42,162.2
15044,B-3,1526.844,0.25,42,162.2
15045,F2,1527.344,0.25,62,162.2
15046,D6,1527.625,1.0,75,162.2
15047,D5,1527.625,1.0,75,162.2
15048,F5,1527.625,1.0,75,162.2
15049,D3,1527.844,0.25,42,162.2
15050,B-3,1527.844,0.25,42,162.2
15051,F3,1527.844,0.25,42,162.2
15052,C3,1528.344,0.25,66,162.2
15053,B-5,1528.625,0.25,74,162.2
15054,B-4,1528.625,0.25,74,162.2
15055,F3,1528.844,0.25,42,162.2
15056,E-4,1528.844,0.25,42,162.2
15057,A3,1528.844,0.25,42,162.2
15058,F5,1529.125,0.25,66,162.2
15059,F4,1529.125,0.25,66,162.2
15060,F2,1529.344,0.25,62,162.2
15061,E-6,1529.625,1.0,75,162.2
15062,E-5,1529.625,1.0,75,162.2
15063,A5,1529.625,1.0,75,162.2
15064,E-3,1529.844,0.25,42,162.2
15065,A3,1529.844,0.25,42,162.2
15066,F3,1529.844,0.25,42,162.2
15067,B-2,1530.344,0.25,85,162.2
15068,A5,1530.625,1.0,67,162.2
15069,A4,1530.625,1.0,67,162.2
15070,F3,1530.844,0.25,42,162.2
15071,D4,1530.844,0.25,42,162.2
15072,B-3,1530.844,0.25,42,162.2
15073,F2,1531.344,0.25,62,162.2
15074,D6,1531.625,1.0,75,162.2
15075,D5,1531.625,1.0,75,162.2
15076,F5,1531.625,1.0,75,162.2
15077,D3,1531.844,0.25,42,162.2
15078,B-3,1531.844,0.25,42,162.2
15079,F3,1531.844,0.25,42,162.2
15080,C3,1532.344,1.0,58,162.2
15081,F3,1532.344,1.0,58,162.2
15082,A3,1532.344,1.0,58,162.2
15083,E-4,1532.344,1.0,58,162.2
15084,B-5,1532.625,0.25,74,162.2
15085,B-4,1532.625,0.25,74,162.2
15086,F5,1533.125,0.25,66,162.2
15087,F4,1533.125,0.25,66,162.2
15088,F2,1533.344,1.0,49,162.2
15089,F1,1533.344,1.0,49,162.2
15090,E-6,1533.625,1.0,75,162.2
15091,E-5,1533.625,1.0,75,162.2
15092,A5,1533.625,1.0,75,162.2
15093,F#2,1534.344,1.0,40,162.2
15094,F#1,1534.344,1.0,40,162.2
15095,E-4,1534.625,0.5,32,162.2
15096,E-3,1534.625,0.5,32,162.2
15097,A3,1534.625,0.5,32,162.2
15098,E-4,1535.125,0.5,46,162.2
15099,E-3,1535.125,0.5,46,162.2
15100,A3,1535.125,0.5,46,162.2
15101,G2,1535.344,1.0,42,162.2
15102,G1,1535.344,1.0,42,162.2
15103,E-4,1536.125,0.5,46,162.2
15104,E-3,1536.125,0.5,46,162.2
15105,A3,1536.125,0.5,46,162.2
15106,G#2,1536.344,979/1000,45,162.2
15107,G#1,1536.344,979/1000,45,162.2
15108,E-4,1536.625,1.0,36,162.2
15109,E-3,1536.625,1.0,36,162.2
15110,B-3,1536.625,1.0,36,162.2
15111,G#2,1537.344,1.0,46,162.2
15112,G#1,1537.344,1.0,46,162.2
15113,E-4,1537.625,0.5,37,162.2
15114,E-3,1537.625,0.5,37,162.2
15115,B3,1537.625,0.5,37,162.2
15116,A2,1538.344,1.0,38,162.2
15117,A1,1538.344,1.0,38,162.2
15118,E-4,1538.625,0.5,37,162.2
15119,E-3,1538.625,0.5,37,162.2
15120,B3,1538.625,0.5,37,162.2
15121,E-4,1539.125,1.0,39,162.2
15122,E-3,1539.125,1.0,39,162.2
15123,C4,1539.125,1.0,39,162.2
15124,B-2,1539.344,1.0,42,162.2
15125,B-1,1539.344,1.0,42,162.2
15126,F#4,1540.125,0.5,47,162.2
15127,F#3,1540.125,0.5,47,162.2
15128,C4,1540.125,0.5,47,162.2
15129,B2,1540.344,1.0,45,162.2
15130,B1,1540.344,1.0,45,162.2
15131,F#4,1541.125,0.5,47,162.2
15132,F#3,1541.125,0.5,47,162.2
15133,C4,1541.125,0.5,47,162.2
15134,B2,1541.344,1.0,50,162.2
15135,B1,1541.344,1.0,50,162.2
15136,F#4,1541.625,1.0,36,162.2
15137,F#3,1541.625,1.0,36,162.2
15138,C#4,1541.625,1.0,36,162.2
15139,C3,1542.344,1.0,38,162.2
15140,C2,1542.344,1.0,38,162.2
15141,F#4,1542.625,0.5,37,162.2
15142,F#3,1542.625,0.5,37,162.2
15143,D4,1542.625,0.5,37,162.2
15144,C#3,1543.344,1.0,40,162.2
15145,C#2,1543.344,1.0,40,162.2
15146,F#4,1543.625,0.5,37,162.2
15147,F#3,1543.625,0.5,37,162.2
15148,D4,1543.625,0.5,37,162.2
15149,F#4,1544.125,1.0,38,162.2
15150,E-4,1544.125,1.0,38,162.2
15151,F#3,1544.125,1.0,38,162.2
15152,D3,1544.344,979/1000,43,162.2
15153,D2,1544.344,979/1000,43,162.2
15154,A4,1545.125,0.5,47,162.2
15155,A3,1545.125,0.5,47,162.2
15156,E-4,1545.125,0.5,47,162.2
15157,D3,1545.344,1.0,50,162.2
15158,D2,1545.344,1.0,50,162.2
15159,A4,1546.125,0.5,47,162.2
15160,A3,1546.125,0.5,47,162.2
15161,E-4,1546.125,0.5,47,162.2
15162,E-3,1546.344,1.0,37,162.2
15163,E-2,1546.344,1.0,37,162.2
15164,A4,1546.625,1.0,36,162.2
15165,A3,1546.625,1.0,36,162.2
15166,E4,1546.625,1.0,36,162.2
15167,E3,1547.344,1.0,40,162.2
15168,E2,1547.344,1.0,40,162.2
15169,A4,1547.625,0.5,36,162.2
15170,A3,1547.625,0.5,36,162.2
15171,F4,1547.625,0.5,36,162.2
15172,F3,1548.344,667/1000,52,162.2
15173,F2,1548.344,667/1000,52,162.2
15174,A4,1548.625,0.5,36,162.2
15175,A3,1548.625,0.5,36,162.2
15176,F4,1548.625,0.5,36,162.2
15177,F3,1549.01,333/1000,41,162.2
15178,F2,1549.01,333/1000,41,162.2
15179,A4,1549.125,1.0,38,162.2
15180,A3,1549.125,1.0,38,162.2
15181,F#4,1549.125,1.0,38,162.2
15182,F#2,1549.677,333/1000,38,162.2
15183,F#3,1549.677,333/1000,38,162.2
15184,C5,1550.125,0.5,49,162.2
15185,F#4,1550.125,0.5,49,162.2
15186,C4,1550.125,0.5,49,162.2
15187,G2,1550.344,333/1000,38,162.2
15188,G3,1550.344,333/1000,38,162.2
15189,G#3,1551.01,333/1000,38,162.2
15190,G#2,1551.01,333/1000,38,162.2
15191,C5,1551.125,0.5,49,162.2
15192,F#4,1551.125,0.5,49,162.2
15193,C4,1551.125,0.5,49,162.2
15194,C5,1551.625,1.0,39,162.2
15195,G4,1551.625,1.0,39,162.2
15196,C4,1551.625,1.0,39,162.2
15197,A3,1551.677,333/1000,38,162.2
15198,A2,1551.677,333/1000,38,162.2
15199,B-3,1552.344,333/1000,45,162.2
15200,B-2,1552.344,333/1000,45,162.2
15201,C5,1552.625,0.5,38,162.2
15202,C4,1552.625,0.5,38,162.2
15203,G#4,1552.625,0.5,38,162.2
15204,B3,1553.01,333/1000,42,162.2
15205,B2,1553.01,333/1000,42,162.2
15206,C5,1553.125,667/1000,46,162.2
15207,C4,1553.125,667/1000,46,162.2
15208,A4,1553.125,667/1000,46,162.2
15209,C4,1553.677,333/1000,42,162.2
15210,C3,1553.677,333/1000,42,162.2
15211,E-5,1553.792,333/1000,43,162.2
15212,E-4,1553.792,333/1000,43,162.2
15213,A4,1553.792,333/1000,43,162.2
15214,C#4,1554.344,333/1000,49,162.2
15215,C#3,1554.344,333/1000,49,162.2
15216,E-5,1554.458,333/1000,42,162.2
15217,E-4,1554.458,333/1000,42,162.2
15218,B-4,1554.458,333/1000,42,162.2
15219,D4,1555.01,333/1000,42,162.2
15220,D3,1555.01,333/1000,42,162.2
15221,E-5,1555.125,333/1000,50,162.2
15222,E-4,1555.125,333/1000,50,162.2
15223,B4,1555.125,333/1000,50,162.2
15224,E-4,1555.677,333/1000,42,162.2
15225,E-3,1555.677,333/1000,42,162.2
15226,F#5,1555.792,333/1000,45,162.2
15227,F#4,1555.792,333/1000,45,162.2
15228,C5,1555.792,333/1000,45,162.2
15229,E4,1556.344,0.375,56,162.2
15230,E3,1556.344,0.375,56,162.2
15231,F#5,1556.458,333/1000,45,162.2
15232,F#4,1556.458,333/1000,45,162.2
15233,C#5,1556.458,333/1000,45,162.2
15234,F4,1556.844,0.375,50,162.2
15235,F3,1556.844,0.375,50,162.2
15236,F#5,1557.125,333/1000,53,162.2
15237,F#4,1557.125,333/1000,53,162.2
15238,D5,1557.125,333/1000,53,162.2
15239,F#4,1557.344,0.375,50,162.2
15240,F#3,1557.344,0.375,50,162.2
15241,A5,1557.792,333/1000,50,162.2
15242,A4,1557.792,333/1000,50,162.2
15243,E-5,1557.792,333/1000,50,162.2
15244,G4,1557.844,0.375,50,162.2
15245,G3,1557.844,0.375,50,162.2
15246,G#4,1558.344,0.375,57,162.2
15247,G#3,1558.344,0.375,57,162.2
15248,A5,1558.458,333/1000,50,162.2
15249,A4,1558.458,333/1000,50,162.2
15250,E5,1558.458,333/1000,50,162.2
15251,G#4,1558.844,0.375,50,162.2
15252,G#3,1558.844,0.375,50,162.2
15253,A5,1559.125,333/1000,59,162.2
15254,A4,1559.125,333/1000,59,162.2
15255,F5,1559.125,333/1000,59,162.2
15256,A4,1559.344,0.375,50,162.2
15257,A3,1559.344,0.375,50,162.2
15258,C6,1559.792,333/1000,53,162.2
15259,C5,1559.792,333/1000,53,162.2
15260,F#5,1559.792,333/1000,53,162.2
15261,B-4,1559.844,0.375,50,162.2
15262,B-3,1559.844,0.375,50,162.2
15263,B4,1560.344,0.375,58,162.2
15264,B3,1560.344,0.375,58,162.2
15265,C6,1560.458,333/1000,53,162.2
15266,C5,1560.458,333/1000,53,162.2
15267,G5,1560.458,333/1000,53,162.2
15268,B4,1560.844,0.375,52,162.2
15269,B3,1560.844,0.375,52,162.2
15270,C6,1561.125,0.375,63,162.2
15271,C5,1561.125,0.375,63,162.2
15272,G#5,1561.125,0.375,63,162.2
15273,C5,1561.344,0.375,52,162.2
15274,C4,1561.344,0.375,52,162.2
15275,E-6,1561.625,0.375,56,162.2
15276,A5,1561.625,0.375,56,162.2
15277,E-5,1561.625,0.375,56,162.2
15278,C#5,1561.844,0.375,52,162.2
15279,C#4,1561.844,0.375,52,162.2
15280,E-6,1562.125,0.375,56,162.2
15281,B-5,1562.125,0.375,56,162.2
15282,E-5,1562.125,0.375,56,162.2
15283,D5,1562.344,0.375,61,162.2
15284,D4,1562.344,0.375,61,162.2
15285,E-6,1562.625,0.375,56,162.2
15286,B5,1562.625,0.375,56,162.2
15287,E-5,1562.625,0.375,56,162.2
15288,D5,1562.844,0.375,52,162.2
15289,D4,1562.844,0.375,52,162.2
15290,E-6,1563.125,0.375,65,162.2
15291,E-5,1563.125,0.375,65,162.2
15292,C6,1563.125,0.375,65,162.2
15293,E-5,1563.344,0.375,52,162.2
15294,E-4,1563.344,0.375,52,162.2
15295,F#6,1563.625,0.375,58,162.2
15296,F#5,1563.625,0.375,58,162.2
15297,C6,1563.625,0.375,58,162.2
15298,E5,1563.844,0.375,52,162.2
15299,E4,1563.844,0.375,52,162.2
15300,F#6,1564.125,0.375,58,162.2
15301,F#5,1564.125,0.375,58,162.2
15302,C#6,1564.125,0.375,58,162.2
15303,F5,1564.344,0.375,68,162.2
15304,F4,1564.344,0.375,68,162.2
15305,F#6,1564.625,0.375,58,162.2
15306,F#5,1564.625,0.375,58,162.2
15307,D6,1564.625,0.375,58,162.2
15308,F5,1564.844,0.375,58,162.2
15309,A4,1564.844,0.375,58,162.2
15310,F4,1564.844,0.375,58,162.2
15311,F#6,1565.125,0.375,68,162.2
15312,F#5,1565.125,0.375,68,162.2
15313,E-6,1565.125,0.375,68,162.2
15314,F5,1565.344,0.375,61,162.2
15315,B-4,1565.344,0.375,61,162.2
15316,F#4,1565.344,0.375,61,162.2
15317,A6,1565.625,0.375,62,162.2
15318,A5,1565.625,0.375,62,162.2
15319,E-6,1565.625,0.375,62,162.2
15320,F5,1565.844,0.375,64,162.2
15321,B4,1565.844,0.375,64,162.2
15322,G4,1565.844,0.375,64,162.2
15323,A6,1566.125,0.375,62,162.2
15324,A5,1566.125,0.375,62,162.2
15325,E6,1566.125,0.375,62,162.2
15326,F5,1566.344,0.375,67,162.2
15327,C5,1566.344,0.375,67,162.2
15328,G#4,1566.344,0.375,67,162.2
15329,A6,1566.625,0.375,62,162.2
15330,A5,1566.625,0.375,62,162.2
15331,F6,1566.625,0.375,62,162.2
15332,F5,1566.844,0.375,56,162.2
15333,C5,1566.844,0.375,56,162.2
15334,G#4,1566.844,0.375,56,162.2
15335,A5,1567.125,0.375,68,162.2
15336,F#6,1567.125,0.375,68,162.2
15337,A6,1567.125,0.375,68,162.2
15338,F5,1567.344,0.375,56,162.2
15339,B4,1567.344,0.375,56,162.2
15340,G4,1567.344,0.375,56,162.2
15341,C7,1567.625,0.375,64,162.2
15342,C6,1567.625,0.375,64,162.2
15343,F#6,1567.625,0.375,64,162.2
15344,F5,1567.844,0.375,56,162.2
15345,B-4,1567.844,0.375,56,162.2
15346,F#4,1567.844,0.375,56,162.2
15347,C7,1568.125,0.375,64,162.2
15348,C6,1568.125,0.375,64,162.2
15349,G6,1568.125,0.375,64,162.2
15350,F5,1568.344,0.375,67,162.2
15351,A4,1568.344,0.375,67,162.2
15352,F4,1568.344,0.375,67,162.2
15353,C7,1568.625,0.375,64,162.2
15354,C6,1568.625,0.375,64,162.2
15355,G#6,1568.625,0.375,64,162.2
15356,F5,1568.844,0.375,55,162.2
15357,A4,1568.844,0.375,55,162.2
15358,F4,1568.844,0.375,55,162.2
15359,C7,1569.125,0.375,72,162.2
15360,C6,1569.125,0.375,72,162.2
15361,A6,1569.125,0.375,72,162.2
15362,F5,1569.344,0.375,60,162.2
15363,B-4,1569.344,0.375,60,162.2
15364,F#4,1569.344,0.375,60,162.2
15365,E-7,1569.625,0.375,72,162.2
15366,A6,1569.625,0.375,72,162.2
15367,E-6,1569.625,0.375,72,162.2
15368,F5,1569.844,0.375,64,162.2
15369,B4,1569.844,0.375,64,162.2
15370,G4,1569.844,0.375,64,162.2
15371,E-7,1570.125,0.375,75,162.2
15372,B-6,1570.125,0.375,75,162.2
15373,E-6,1570.125,0.375,75,162.2
15374,F5,1570.344,0.375,67,162.2
15375,C5,1570.344,0.375,67,162.2
15376,G#4,1570.344,0.375,67,162.2
15377,B6,1570.625,0.375,84,162.2
15378,E-7,1570.625,0.375,84,162.2
15379,E-6,1570.625,0.375,84,162.2
15380,F5,1570.844,0.375,56,162.2
15381,C5,1570.844,0.375,56,162.2
15382,G#4,1570.844,0.375,56,162.2
15383,E-7,1571.0,167/1000,66,162.2
15384,E-7,1571.125,0.375,83,162.2
15385,C7,1571.125,0.375,83,162.2
15386,E-6,1571.125,0.375,83,162.2
15387,F7,1571.167,167/1000,58,162.2
15388,E-7,1571.333,167/1000,66,162.2
15389,F5,1571.344,0.375,56,162.2
15390,B4,1571.344,0.375,56,162.2
15391,G4,1571.344,0.375,56,162.2
15392,F7,1571.5,167/1000,58,162.2
15393,E-7,1571.625,0.375,72,162.2
15394,C7,1571.625,0.375,72,162.2
15395,E-6,1571.625,0.375,72,162.2
15396,E-7,1571.667,167/1000,66,162.2
15397,F7,1571.833,167/1000,57,162.2
15398,F5,1571.844,0.375,56,162.2
15399,B-4,1571.844,0.375,56,162.2
15400,F#4,1571.844,0.375,56,162.2
15401,E-7,1572.0,167/1000,66,162.2
15402,E-7,1572.125,0.375,72,162.2
15403,B6,1572.125,0.375,72,162.2
15404,E-6,1572.125,0.375,72,162.2
15405,F7,1572.167,167/1000,58,162.2
15406,E-7,1572.333,167/1000,66,162.2
15407,F5,1572.344,1.0,72,162.2
15408,F4,1572.344,1.0,72,162.2
15409,A4,1572.344,1.0,72,162.2
15410,F7,1572.5,167/1000,58,162.2
15411,E-7,1572.625,0.375,72,162.2
15412,B-6,1572.625,0.375,72,162.2
15413,E-6,1572.625,0.375,72,162.2
15414,E-7,1572.667,167/1000,66,162.2
15415,F7,1572.833,167/1000,58,162.2
15416,E-7,1573.0,167/1000,66,162.2
15417,E-7,1573.125,0.375,83,162.2
15418,A6,1573.125,0.375,83,162.2
15419,E-6,1573.125,0.375,83,162.2
15420,F7,1573.167,167/1000,58,162.2
15421,E-7,1573.333,167/1000,66,162.2
15422,F5,1573.344,1.0,65,162.2
15423,F4,1573.344,1.0,65,162.2
15424,A4,1573.344,1.0,65,162.2
15425,F7,1573.5,167/1000,58,162.2
15426,E-7,1573.625,0.375,72,162.2
15427,A6,1573.625,0.375,72,162.2
15428,E-6,1573.625,0.375,72,162.2
15429,E-7,1573.667,167/1000,66,162.2
15430,F7,1573.833,167/1000,59,162.2
15431,E-7,1574.0,167/1000,66,162.2
15432,E-7,1574.125,0.375,75,162.2
15433,B-6,1574.125,0.375,75,162.2
15434,E-6,1574.125,0.375,75,162.2
15435,F7,1574.167,167/1000,59,162.2
15436,E-7,1574.333,167/1000,66,162.2
15437,F#5,1574.344,1.0,65,162.2
15438,F#4,1574.344,1.0,65,162.2
15439,B-4,1574.344,1.0,65,162.2
15440,F7,1574.5,167/1000,59,162.2
15441,B6,1574.625,0.375,84,162.2
15442,E-7,1574.625,0.375,84,162.2
15443,E-6,1574.625,0.375,84,162.2
15444,E-7,1574.667,167/1000,66,162.2
15445,F7,1574.833,167/1000,59,162.2
15446,E-7,1575.0,167/1000,66,162.2
15447,E-7,1575.125,0.375,84,162.2
15448,C7,1575.125,0.375,84,162.2
15449,E-6,1575.125,0.375,84,162.2
15450,F7,1575.167,167/1000,58,162.2
15451,E-7,1575.333,167/1000,66,162.2
15452,G5,1575.344,1.0,65,162.2
15453,G4,1575.344,1.0,65,162.2
15454,B4,1575.344,1.0,65,162.2
15455,F7,1575.5,167/1000,59,162.2
15456,E-7,1575.625,0.375,72,162.2
15457,C7,1575.625,0.375,72,162.2
15458,E-6,1575.625,0.375,72,162.2
15459,E-7,1575.667,167/1000,66,162.2
15460,F7,1575.833,167/1000,59,162.2
15461,E-7,1576.0,167/1000,66,162.2
15462,E-7,1576.125,0.375,72,162.2
15463,B6,1576.125,0.375,72,162.2
15464,E-6,1576.125,0.375,72,162.2
15465,F7,1576.167,167/1000,59,162.2
15466,E-7,1576.333,167/1000,66,162.2
15467,G#5,1576.344,1.0,71,162.2
15468,G#4,1576.344,1.0,71,162.2
15469,C5,1576.344,1.0,71,162.2
15470,F7,1576.5,167/1000,59,162.2
15471,E-7,1576.625,0.375,72,162.2
15472,B-6,1576.625,0.375,72,162.2
15473,E-6,1576.625,0.375,72,162.2
15474,E-7,1576.667,167/1000,66,162.2
15475,F7,1576.833,167/1000,59,162.2
15476,E-7,1577.0,167/1000,65,162.2
15477,A6,1577.125,1.0,86,162.2
15478,E-6,1577.125,1.0,86,162.2
15479,F7,1577.167,167/1000,68,162.2
15480,E-7,1577.333,167/1000,70,162.2
15481,F7,1577.5,167/1000,73,162.2
15482,E-7,1577.667,167/1000,75,162.2
15483,F7,1577.833,167/1000,78,162.2
15484,E-7,1578.0,167/1000,76,162.2
15485,A6,1578.125,1.0,76,162.2
15486,E-6,1578.125,1.0,76,162.2
15487,F7,1578.167,167/1000,75,162.2
15488,E-7,1578.333,167/1000,79,162.2
15489,A5,1578.344,1.0,70,162.2
15490,A4,1578.344,1.0,70,162.2
15491,C5,1578.344,1.0,70,162.2
15492,F5,1578.344,1.0,70,162.2
15493,D7,1578.5,0.25,76,162.2
15494,E-7,1578.75,0.25,76,162.2
15495,B-6,1579.125,1.0,76,162.2
15496,E-6,1579.125,1.0,76,162.2
15497,B6,1580.125,1.0,78,162.2
15498,E-6,1580.125,1.0,78,162.2
15499,C7,1581.125,1.0,86,162.2
15500,E-6,1581.125,1.0,86,162.2
15501,C7,1583.125,1.0,86,162.2
15502,E-6,1583.125,1.0,86,162.2
15503,A3,1584.344,0.25,75,162.2
15504,F3,1584.594,0.25,76,162.2
15505,E-3,1584.844,0.25,79,162.2
15506,C3,1585.094,0.25,81,162.2
15507,G7,1585.125,0.25,59,162.2
15508,A2,1585.344,0.25,84,162.2
15509,F7,1585.375,0.25,60,162.2
15510,G#2,1585.594,0.25,104,162.2
15511,E-7,1585.625,0.25,61,162.2
15512,A2,1585.844,0.25,80,162.2
15513,C7,1585.875,0.25,62,162.2
15514,C3,1586.094,0.25,79,162.2
15515,A6,1586.125,0.25,62,162.2
15516,E-3,1586.344,0.25,77,162.2
15517,F6,1586.375,0.25,63,162.2
15518,F3,1586.594,0.25,76,162.2
15519,E-6,1586.625,0.25,64,162.2
15520,A3,1586.844,0.25,75,162.2
15521,C6,1586.875,0.25,65,162.2
15522,A5,1587.125,0.25,66,162.2
15523,F5,1587.375,0.25,67,162.2
15524,E-5,1587.625,0.25,68,162.2
15525,C5,1587.875,0.25,69,162.2
15526,A4,1588.125,0.25,70,162.2
15527,F4,1588.375,0.25,71,162.2
15528,E-4,1588.625,0.25,72,162.2
15529,C4,1588.875,0.25,72,162.2
15530,C4,1591.875,0.25,68,162.2
15531,E-4,1592.125,0.25,67,162.2
15532,F4,1592.375,0.25,66,162.2
15533,A4,1592.625,0.25,65,162.2
15534,C5,1592.875,0.25,64,162.2
15535,E-5,1593.125,0.25,63,162.2
15536,F5,1593.375,0.25,62,162.2
15537,A5,1593.625,0.25,61,162.2
15538,C6,1593.875,0.25,60,162.2
15539,E-6,1594.125,0.25,59,162.2
15540,F6,1594.375,0.25,58,162.2
15541,A6,1594.625,0.25,62,162.2
15542,A4,1594.844,0.25,70,162.2
15543,A3,1594.844,0.25,70,162.2
15544,C7,1594.875,0.25,65,162.2
15545,F#3,1595.094,0.25,76,162.2
15546,E-7,1595.125,0.25,73,162.2
15547,F4,1595.344,0.25,69,162.2
15548,F3,1595.344,0.25,69,162.2
15549,G7,1595.375,0.25,86,162.2
15550,E3,1595.594,0.25,74,162.2
15551,E-4,1595.844,0.25,68,162.2
15552,E-3,1595.844,0.25,68,162.2
15553,C3,1596.094,0.25,73,162.2
15554,E-7,1596.125,0.25,82,162.2
15555,E-6,1596.125,0.25,82,162.2
15556,A3,1596.344,0.25,66,162.2
15557,A2,1596.344,0.25,66,162.2
15558,C6,1596.375,0.25,88,162.2
15559,F#2,1596.594,0.25,71,162.2
15560,A6,1596.625,0.25,80,162.2
15561,A5,1596.625,0.25,80,162.2
15562,F2,1596.844,0.5,72,162.2
15563,F3,1596.844,0.5,72,162.2
15564,F#5,1596.875,0.25,86,162.2
15565,F6,1597.125,0.25,78,162.2
15566,F5,1597.125,0.25,78,162.2
15567,E5,1597.375,0.25,85,162.2
15568,E-6,1597.625,0.25,78,162.2
15569,E-5,1597.625,0.25,78,162.2
15570,F2,1597.625,0.688,56,162.2
15571,A2,1597.625,0.688,56,162.2
15572,E-3,1597.688,0.625,60,162.2
15573,A3,1597.688,0.625,60,162.2
15574,C5,1597.875,0.25,83,162.2
15575,A5,1598.125,0.25,76,162.2
15576,A4,1598.125,0.25,76,162.2
15577,F#4,1598.375,0.25,81,162.2
15578,F5,1598.625,0.25,74,162.2
15579,F4,1598.625,0.25,74,162.2
15580,F#2,1598.625,0.219,58,162.2
15581,B-2,1598.625,0.219,58,162.2
15582,E-3,1598.688,0.156,61,162.2
15583,B-3,1598.688,0.156,61,162.2
15584,F#2,1598.844,0.469,58,162.2
15585,B-2,1598.844,0.469,58,162.2
15586,E-3,1598.844,0.469,61,162.2
15587,B-3,1598.844,0.469,61,162.2
15588,E4,1598.875,0.25,79,162.2
15589,E-5,1599.125,0.25,72,162.2
15590,E-4,1599.125,0.25,72,162.2
15591,C4,1599.375,0.25,77,162.2
15592,G2,1599.625,0.688,57,162.2
15593,B2,1599.625,0.688,57,162.2
15594,E-3,1599.688,0.625,60,162.2
15595,B3,1599.688,0.625,60,162.2
15596,G#2,1600.625,0.219,60,162.2
15597,C3,1600.625,0.219,60,162.2
15598,E-3,1600.688,0.156,62,162.2
15599,C4,1600.688,0.156,62,162.2
15600,G#2,1600.844,0.469,60,162.2
15601,C3,1600.844,0.469,60,162.2
15602,E-3,1600.844,0.469,62,162.2
15603,C4,1600.844,0.469,62,162.2
15604,A4,1602.531,0.562,78,162.2
15605,E-5,1602.531,0.562,78,162.2
15606,A5,1602.594,0.5,85,162.2
15607,E-6,1602.594,0.5,85,162.2
15608,B-4,1603.531,0.094,79,162.2
15609,E-5,1603.531,0.094,79,162.2
15610,B-5,1603.594,0.031,88,162.2
15611,E-6,1603.594,0.031,88,162.2
15612,B-4,1603.625,0.469,79,162.2
15613,E-5,1603.625,0.469,79,162.2
15614,B-5,1603.625,0.469,88,162.2
15615,E-6,1603.625,0.469,88,162.2
15616,B4,1604.531,0.562,76,162.2
15617,E-5,1604.531,0.562,76,162.2
15618,B5,1604.594,0.5,84,162.2
15619,E-6,1604.594,0.5,84,162.2
15620,C5,1605.531,0.094,81,162.2
15621,E-5,1605.531,0.094,81,162.2
15622,A1,1605.594,1.25,77,162.2
15623,C6,1605.594,0.031,90,162.2
15624,E-6,1605.594,0.031,90,162.2
15625,C5,1605.625,0.469,81,162.2
15626,E-5,1605.625,0.469,81,162.2
15627,C6,1605.625,0.469,90,162.2
15628,E-6,1605.625,0.469,90,162.2
15629,A2,1605.656,1.188,59,162.2
15630,E-3,1605.719,1.125,63,162.2
15631,C4,1605.781,1.062,68,162.2
15632,F4,1605.844,1.0,78,162.2
15633,B-1,1606.844,0.25,98,162.2
15634,B-2,1606.844,0.25,98,162.2
15635,B-3,1607.344,0.25,50,162.2
15636,F4,1607.344,0.25,50,162.2
15637,D4,1607.344,0.25,50,162.2
15638,F3,1607.844,0.25,74,162.2
15639,D6,1607.958,333/1000,66,162.2
15640,D5,1607.958,333/1000,66,162.2
15641,E-6,1608.292,333/1000,70,162.2
15642,E-5,1608.292,333/1000,70,162.2
15643,B-3,1608.344,0.25,50,162.2
15644,F4,1608.344,0.25,50,162.2
15645,D4,1608.344,0.25,50,162.2
15646,E6,1608.625,333/1000,74,162.2
15647,E5,1608.625,333/1000,74,162.2
15648,B-2,1608.844,0.25,72,162.2
15649,F6,1608.958,333/1000,78,162.2
15650,F5,1608.958,333/1000,78,162.2
15651,F#6,1609.292,333/1000,82,162.2
15652,F#5,1609.292,333/1000,82,162.2
15653,B-3,1609.344,0.25,50,162.2
15654,F4,1609.344,0.25,50,162.2
15655,D4,1609.344,0.25,50,162.2
15656,A6,1609.625,333/1000,86,162.2
15657,A5,1609.625,333/1000,86,162.2
15658,F3,1609.844,0.25,74,162.2
15659,G6,1609.958,333/1000,80,162.2
15660,G5,1609.958,333/1000,80,162.2
15661,D6,1610.292,333/1000,76,162.2
15662,D5,1610.292,333/1000,76,162.2
15663,D4,1610.344,0.25,50,162.2
15664,F4,1610.344,0.25,50,162.2
15665,B-3,1610.344,0.25,50,162.2
15666,F6,1610.625,333/1000,86,162.2
15667,F5,1610.625,333/1000,86,162.2
15668,B-2,1610.844,0.25,98,162.2
15669,E-6,1610.958,333/1000,78,162.2
15670,E-5,1610.958,333/1000,78,162.2
15671,C6,1611.292,333/1000,78,162.2
15672,C5,1611.292,333/1000,78,162.2
15673,B-3,1611.344,0.25,50,162.2
15674,F4,1611.344,0.25,50,162.2
15675,D4,1611.344,0.25,50,162.2
15676,B-5,1611.625,1.0,96,162.2
15677,B-4,1611.625,0.25,69,162.2
15678,F3,1611.844,0.25,74,162.2
15679,F5,1612.125,0.25,58,162.2
15680,D5,1612.125,0.25,58,162.2
15681,B-3,1612.344,0.25,50,162.2
15682,F4,1612.344,0.25,50,162.2
15683,D4,1612.344,0.25,50,162.2
15684,B-5,1612.625,0.25,74,162.2
15685,B-4,1612.625,0.25,74,162.2
15686,B-2,1612.844,0.25,69,162.2
15687,B-5,1613.125,0.25,64,162.2
15688,F5,1613.125,0.25,64,162.2
15689,D5,1613.125,0.25,64,162.2
15690,B-3,1613.344,0.25,50,162.2
15691,F4,1613.344,0.25,50,162.2
15692,D4,1613.344,0.25,50,162.2
15693,D6,1613.625,0.25,82,162.2
15694,D5,1613.625,0.25,82,162.2
15695,F3,1613.844,0.25,74,162.2
15696,B-5,1614.125,0.25,70,162.2
15697,F5,1614.125,0.25,70,162.2
15698,B-3,1614.344,0.25,50,162.2
15699,F4,1614.344,0.25,50,162.2
15700,D4,1614.344,0.25,50,162.2
15701,B-5,1614.625,1.0,78,162.2
15702,B-4,1614.625,0.25,69,162.2
15703,B-2,1614.844,0.25,98,162.2
15704,D5,1615.125,0.25,54,162.2
15705,F5,1615.125,0.25,54,162.2
15706,D4,1615.344,0.25,53,162.2
15707,B-3,1615.344,0.25,53,162.2
15708,F5,1615.625,1.0,95,162.2
15709,F4,1615.625,0.25,69,162.2
15710,F3,1615.844,0.25,77,162.2
15711,B-4,1616.125,0.25,58,162.2
15712,D5,1616.125,0.25,58,162.2
15713,D4,1616.344,0.25,53,162.2
15714,B-3,1616.344,0.25,53,162.2
15715,F5,1616.625,0.25,74,162.2
15716,F4,1616.625,0.25,74,162.2
15717,B-2,1616.844,0.25,72,162.2
15718,F5,1617.125,0.25,64,162.2
15719,D5,1617.125,0.25,64,162.2
15720,B-4,1617.125,0.25,64,162.2
15721,D4,1617.344,0.25,53,162.2
15722,B-3,1617.344,0.25,53,162.2
15723,B-5,1617.625,0.25,81,162.2
15724,B-4,1617.625,0.25,81,162.2
15725,F3,1617.844,0.25,77,162.2
15726,F5,1618.125,0.25,70,162.2
15727,D5,1618.125,0.25,70,162.2
15728,D4,1618.344,0.25,53,162.2
15729,B-3,1618.344,0.25,53,162.2
15730,F5,1618.625,1.0,78,162.2
15731,F4,1618.625,0.25,69,162.2
15732,F2,1618.844,0.25,100,162.2
15733,B-4,1619.125,0.25,54,162.2
15734,D5,1619.125,0.25,54,162.2
15735,E-4,1619.344,0.25,51,162.2
15736,F4,1619.344,0.25,51,162.2
15737,C4,1619.344,0.25,51,162.2
15738,D5,1619.625,1.0,100,162.2
15739,D4,1619.625,0.25,72,162.2
15740,F3,1619.844,0.25,77,162.2
15741,F4,1620.125,0.25,60,162.2
15742,B-4,1620.125,0.25,60,162.2
15743,E-4,1620.344,0.25,51,162.2
15744,F4,1620.344,0.25,51,162.2
15745,C4,1620.344,0.25,51,162.2
15746,D5,1620.625,0.25,72,162.2
15747,D4,1620.625,0.25,72,162.2
15748,B-2,1620.844,0.25,86,162.2
15749,E-5,1621.125,0.25,68,162.2
15750,E-4,1621.125,0.25,68,162.2
15751,D4,1621.344,0.25,51,162.2
15752,F4,1621.344,0.25,51,162.2
15753,B-3,1621.344,0.25,51,162.2
15754,G5,1621.625,0.375,97,162.2
15755,G4,1621.625,0.25,72,162.2
15756,F3,1621.844,0.25,73,162.2
15757,F4,1622.125,0.25,61,162.2
15758,F5,1622.125,0.25,61,162.2
15759,B-3,1622.344,0.25,43,162.2
15760,F4,1622.344,0.25,43,162.2
15761,D4,1622.344,0.25,43,162.2
15762,F5,1622.625,0.25,76,162.2
15763,F4,1622.625,0.25,76,162.2
15764,B-2,1622.844,0.25,100,162.2
15765,D5,1623.125,0.25,58,162.2
15766,B-4,1623.125,0.25,58,162.2
15767,F5,1623.125,0.25,58,162.2
15768,B-3,1623.344,0.25,50,162.2
15769,F4,1623.344,0.25,50,162.2
15770,D4,1623.344,0.25,50,162.2
15771,F5,1623.625,1.0,100,162.2
15772,F4,1623.625,0.25,72,162.2
15773,F3,1623.844,0.25,74,162.2
15774,A4,1624.125,0.25,60,162.2
15775,C5,1624.125,0.25,60,162.2
15776,B-3,1624.344,0.25,50,162.2
15777,F4,1624.344,0.25,50,162.2
15778,D4,1624.344,0.25,50,162.2
15779,G5,1624.625,0.25,72,162.2
15780,G4,1624.625,0.25,72,162.2
15781,B-2,1624.844,0.25,72,162.2
15782,A5,1625.125,0.25,68,162.2
15783,A4,1625.125,0.25,68,162.2
15784,B-3,1625.344,0.25,50,162.2
15785,F4,1625.344,0.25,50,162.2
15786,D4,1625.344,0.25,50,162.2
15787,B-5,1625.625,1.0,97,162.2
15788,B-4,1625.625,0.25,72,162.2
15789,F3,1625.844,0.25,74,162.2
15790,D5,1626.125,0.25,56,162.2
15791,F5,1626.125,0.25,56,162.2
15792,D4,1626.344,0.25,50,162.2
15793,F4,1626.344,0.25,50,162.2
15794,B-3,1626.344,0.25,50,162.2
15795,B-4,1626.625,0.25,69,162.2
15796,B-2,1626.844,0.25,99,162.2
15797,D5,1627.125,0.25,50,162.2
15798,F5,1627.125,0.25,50,162.2
15799,B-3,1627.344,0.25,50,162.2
15800,F4,1627.344,0.25,50,162.2
15801,D4,1627.344,0.25,50,162.2
15802,B-6,1627.625,1.0,96,162.2
15803,B-5,1627.625,0.25,69,162.2
15804,F3,1627.844,0.25,74,162.2
15805,F6,1628.125,0.25,58,162.2
15806,D6,1628.125,0.25,58,162.2
15807,B-3,1628.344,0.25,50,162.2
15808,F4,1628.344,0.25,50,162.2
15809,D4,1628.344,0.25,50,162.2
15810,B-6,1628.625,0.25,74,162.2
15811,B-5,1628.625,0.25,74,162.2
15812,B-2,1628.844,0.25,69,162.2
15813,B-6,1629.125,0.25,64,162.2
15814,F6,1629.125,0.25,64,162.2
15815,D6,1629.125,0.25,64,162.2
15816,B-3,1629.344,0.25,50,162.2
15817,F4,1629.344,0.25,50,162.2
15818,D4,1629.344,0.25,50,162.2
15819,D7,1629.625,0.25,82,162.2
15820,D6,1629.625,0.25,82,162.2
15821,F3,1629.844,0.25,74,162.2
15822,B-6,1630.125,0.25,70,162.2
15823,F6,1630.125,0.25,70,162.2
15824,B-3,1630.344,0.25,50,162.2
15825,F4,1630.344,0.25,50,162.2
15826,D4,1630.344,0.25,50,162.2
15827,B-6,1630.625,1.0,78,162.2
15828,B-5,1630.625,0.25,69,162.2
15829,B-2,1630.844,0.25,95,162.2
15830,D6,1631.125,0.25,54,162.2
15831,F6,1631.125,0.25,54,162.2
15832,B-3,1631.344,0.25,51,162.2
15833,F4,1631.344,0.25,51,162.2
15834,D4,1631.344,0.25,51,162.2
15835,F6,1631.625,1.0,95,162.2
15836,F5,1631.625,0.25,69,162.2
15837,F3,1631.844,0.25,77,162.2
15838,B-5,1632.125,0.25,58,162.2
15839,D6,1632.125,0.25,58,162.2
15840,B-3,1632.344,0.25,51,162.2
15841,F4,1632.344,0.25,51,162.2
15842,D4,1632.344,0.25,51,162.2
15843,F6,1632.625,0.25,74,162.2
15844,F5,1632.625,0.25,74,162.2
15845,B-2,1632.844,0.25,78,162.2
15846,F6,1633.125,0.25,64,162.2
15847,D6,1633.125,0.25,64,162.2
15848,B-5,1633.125,0.25,64,162.2
15849,D4,1633.344,0.25,51,162.2
15850,F4,1633.344,0.25,51,162.2
15851,B-3,1633.344,0.25,51,162.2
15852,B-6,1633.625,0.25,81,162.2
15853,B-5,1633.625,0.25,81,162.2
15854,F3,1633.844,0.25,77,162.2
15855,F6,1634.125,0.25,70,162.2
15856,D6,1634.125,0.25,70,162.2
15857,D4,1634.344,0.25,51,162.2
15858,F4,1634.344,0.25,51,162.2
15859,B-3,1634.344,0.25,51,162.2
15860,F6,1634.625,1.0,78,162.2
15861,F5,1634.625,0.25,69,162.2
15862,F2,1634.844,0.25,100,162.2
15863,B-5,1635.125,0.25,54,162.2
15864,D6,1635.125,0.25,54,162.2
15865,E-4,1635.344,0.25,51,162.2
15866,F4,1635.344,0.25,51,162.2
15867,C4,1635.344,0.25,51,162.2
15868,D6,1635.625,1.0,100,162.2
15869,D5,1635.625,0.25,72,162.2
15870,F3,1635.844,0.25,77,162.2
15871,F5,1636.125,0.25,60,162.2
15872,B-5,1636.125,0.25,60,162.2
15873,E-4,1636.344,0.25,51,162.2
15874,F4,1636.344,0.25,51,162.2
15875,C4,1636.344,0.25,51,162.2
15876,D6,1636.625,0.25,72,162.2
15877,D5,1636.625,0.25,72,162.2
15878,B-2,1636.844,1.0,75,162.2
15879,D3,1636.844,1.0,75,162.2
15880,B-3,1636.844,1.0,75,162.2
15881,E-6,1637.125,0.25,68,162.2
15882,E-5,1637.125,0.25,68,162.2
15883,G6,1637.625,0.375,97,162.2
15884,G5,1637.625,0.25,72,162.2
15885,B-2,1637.844,0.25,67,162.2
15886,B-1,1637.844,0.25,67,162.2
15887,F5,1638.125,0.25,60,162.2
15888,F6,1638.125,0.25,60,162.2
15889,F2,1638.344,0.25,60,162.2
15890,F1,1638.344,0.25,60,162.2
15891,F6,1638.625,0.25,76,162.2
15892,F5,1638.625,0.25,76,162.2
15893,B-2,1638.844,0.25,67,162.2
15894,B-1,1638.844,0.25,67,162.2
15895,D6,1639.125,0.25,58,162.2
15896,B-5,1639.125,0.25,58,162.2
15897,F6,1639.125,0.25,58,162.2
15898,F3,1639.344,0.25,58,162.2
15899,F2,1639.344,0.25,58,162.2
15900,F6,1639.625,1.0,100,162.2
15901,F5,1639.625,0.25,72,162.2
15902,D4,1639.844,0.25,62,162.2
15903,D3,1639.844,0.25,62,162.2
15904,A5,1640.125,0.25,60,162.2
15905,C6,1640.125,0.25,60,162.2
15906,B-3,1640.344,0.25,64,162.2
15907,B-2,1640.344,0.25,64,162.2
15908,G6,1640.625,0.25,72,162.2
15909,G5,1640.625,0.25,72,162.2
15910,A3,1640.844,1.0,64,162.2
15911,A2,1640.844,1.0,64,162.2
15912,C3,1640.844,1.0,64,162.2
15913,F3,1640.844,1.0,64,162.2
15914,A6,1641.125,0.25,68,162.2
15915,A5,1641.125,0.25,68,162.2
15916,B-6,1641.625,1.0,84,162.2
15917,B-5,1641.625,1.0,84,162.2
15918,B-3,1641.844,1.0,61,162.2
15919,B-2,1641.844,1.0,61,162.2
15920,D3,1641.844,1.0,61,162.2
15921,F3,1641.844,1.0,61,162.2
15922,D6,1642.625,1.0,85,162.2
15923,D5,1642.625,1.0,85,162.2
15924,F5,1642.625,1.0,85,162.2
15925,E-3,1642.844,1.0,63,162.2
15926,E-2,1642.844,1.0,63,162.2
15927,G2,1642.844,1.0,63,162.2
15928,C3,1642.844,1.0,63,162.2
15929,F3,1643.844,1.0,59,162.2
15930,F2,1643.844,1.0,59,162.2
15931,C3,1643.844,1.0,59,162.2
15932,E-3,1643.844,1.0,59,162.2
15933,D6,1644.625,1.0,85,162.2
15934,D5,1644.625,1.0,85,162.2
15935,F5,1644.625,1.0,85,162.2
15936,B-2,1644.844,1.0,79,162.2
15937,D3,1644.844,1.0,79,162.2
15938,B-3,1644.844,1.0,79,162.2
15939,B-5,1645.625,0.25,82,162.2
15940,B-4,1645.625,0.25,82,162.2
15941,B-2,1645.844,0.25,67,162.2
15942,B-1,1645.844,0.25,67,162.2
15943,F5,1646.125,0.25,75,162.2
15944,F4,1646.125,0.25,75,162.2
15945,F2,1646.344,0.25,60,162.2
15946,F1,1646.344,0.25,60,162.2
15947,E-6,1646.625,0.25,80,162.2
15948,C6,1646.625,0.25,80,162.2
15949,E-5,1646.625,0.25,80,162.2
15950,B-2,1646.844,0.25,67,162.2
15951,B-1,1646.844,0.25,67,162.2
15952,E-6,1647.125,0.25,73,162.2
15953,C6,1647.125,0.25,73,162.2
15954,E-5,1647.125,0.25,73,162.2
15955,F3,1647.344,0.25,58,162.2
15956,F2,1647.344,0.25,58,162.2
15957,D4,1647.844,0.25,62,162.2
15958,D3,1647.844,0.25,62,162.2
15959,D6,1648.125,0.25,73,162.2
15960,F5,1648.125,0.25,73,162.2
15961,D5,1648.125,0.25,73,162.2
15962,B-3,1648.344,0.25,64,162.2
15963,B-2,1648.344,0.25,64,162.2
15964,D6,1648.625,0.25,80,162.2
15965,D5,1648.625,0.25,80,162.2
15966,F5,1648.625,0.25,80,162.2
15967,A3,1648.844,1.0,64,162.2
15968,A2,1648.844,1.0,64,162.2
15969,C3,1648.844,1.0,64,162.2
15970,F3,1648.844,1.0,64,162.2
15971,C6,1649.125,0.25,74,162.2
15972,C5,1649.125,0.25,74,162.2
15973,E-5,1649.125,0.25,74,162.2
15974,B-5,1649.625,0.25,74,162.2
15975,B-4,1649.625,0.25,74,162.2
15976,D5,1649.625,0.25,74,162.2
15977,B-3,1649.844,1.0,61,162.2
15978,B-2,1649.844,1.0,61,162.2
15979,D3,1649.844,1.0,61,162.2
15980,F3,1649.844,1.0,61,162.2
15981,A5,1650.125,0.25,74,162.2
15982,A4,1650.125,0.25,74,162.2
15983,C5,1650.125,0.25,74,162.2
15984,B-5,1650.625,1.0,79,162.2
15985,B-4,1650.625,1.0,79,162.2
15986,E-3,1650.844,1.0,63,162.2
15987,E-2,1650.844,1.0,63,162.2
15988,G2,1650.844,1.0,63,162.2
15989,C3,1650.844,1.0,63,162.2
15990,D6,1651.625,1.0,85,162.2
15991,D5,1651.625,1.0,85,162.2
15992,F5,1651.625,1.0,85,162.2
15993,F3,1651.844,1.0,59,162.2
15994,F2,1651.844,1.0,59,162.2
15995,C3,1651.844,1.0,59,162.2
15996,E-3,1651.844,1.0,59,162.2
15997,B-2,1652.844,0.25,77,162.2
15998,D3,1652.844,0.25,77,162.2
15999,B-3,1652.844,0.25,77,162.2
16000,D4,1653.344,0.25,54,162.2
16001,F4,1653.344,0.25,54,162.2
16002,B-3,1653.344,0.25,54,162.2
16003,D6,1653.625,1.0,85,162.2
16004,D5,1653.625,1.0,85,162.2
16005,F5,1653.625,1.0,85,162.2
16006,F3,1653.844,0.25,80,162.2
16007,D4,1654.344,0.25,54,162.2
16008,F4,1654.344,0.25,54,162.2
16009,B-3,1654.344,0.25,54,162.2
16010,B-5,1654.625,0.25,82,162.2
16011,B-4,1654.625,0.25,82,162.2
16012,F2,1654.844,0.25,78,162.2
16013,F3,1654.844,0.25,78,162.2
16014,F5,1655.125,0.25,75,162.2
16015,F4,1655.125,0.25,75,162.2
16016,E-4,1655.344,0.25,54,162.2
16017,F4,1655.344,0.25,54,162.2
16018,C4,1655.344,0.25,54,162.2
16019,E-6,1655.625,0.25,80,162.2
16020,C6,1655.625,0.25,80,162.2
16021,E-5,1655.625,0.25,80,162.2
16022,F3,1655.844,0.25,80,162.2
16023,E-6,1656.125,0.25,73,162.2
16024,C6,1656.125,0.25,73,162.2
16025,E-5,1656.125,0.25,73,162.2
16026,E-4,1656.344,0.25,54,162.2
16027,F4,1656.344,0.25,54,162.2
16028,C4,1656.344,0.25,54,162.2
16029,B-2,1656.844,0.25,77,162.2
16030,D3,1656.844,0.25,77,162.2
16031,B-3,1656.844,0.25,77,162.2
16032,D6,1657.125,0.25,73,162.2
16033,F5,1657.125,0.25,73,162.2
16034,D5,1657.125,0.25,73,162.2
16035,D4,1657.344,0.25,54,162.2
16036,F4,1657.344,0.25,54,162.2
16037,B-3,1657.344,0.25,54,162.2
16038,D6,1657.625,0.25,80,162.2
16039,D5,1657.625,0.25,80,162.2
16040,F5,1657.625,0.25,80,162.2
16041,F3,1657.844,0.25,80,162.2
16042,C6,1658.125,0.25,74,162.2
16043,C5,1658.125,0.25,74,162.2
16044,E-5,1658.125,0.25,74,162.2
16045,D4,1658.344,0.25,54,162.2
16046,F4,1658.344,0.25,54,162.2
16047,B-3,1658.344,0.25,54,162.2
16048,B-5,1658.625,0.25,74,162.2
16049,B-4,1658.625,0.25,74,162.2
16050,D5,1658.625,0.25,74,162.2
16051,F2,1658.844,0.25,78,162.2
16052,F3,1658.844,0.25,78,162.2
16053,A5,1659.125,0.25,74,162.2
16054,A4,1659.125,0.25,74,162.2
16055,C5,1659.125,0.25,74,162.2
16056,E-4,1659.344,0.25,54,162.2
16057,F4,1659.344,0.25,54,162.2
16058,C4,1659.344,0.25,54,162.2
16059,B-5,1659.625,0.25,80,162.2
16060,B-4,1659.625,0.25,80,162.2
16061,D5,1659.625,0.25,80,162.2
16062,F3,1659.844,0.25,80,162.2
16063,F5,1660.125,0.25,76,162.2
16064,D5,1660.125,0.25,76,162.2
16065,E-4,1660.344,0.25,54,162.2
16066,F4,1660.344,0.25,54,162.2
16067,C4,1660.344,0.25,54,162.2
16068,B-5,1660.625,0.25,74,162.2
16069,B-4,1660.625,0.25,74,162.2
16070,D5,1660.625,0.25,74,162.2
16071,F2,1660.844,0.25,78,162.2
16072,F3,1660.844,0.25,78,162.2
16073,D6,1661.125,0.25,74,162.2
16074,D5,1661.125,0.25,74,162.2
16075,F5,1661.125,0.25,74,162.2
16076,F3,1661.344,0.25,48,162.2
16077,D4,1661.344,0.25,48,162.2
16078,F4,1661.344,0.25,48,162.2
16079,B-3,1661.344,0.25,48,162.2
16080,D6,1661.625,0.25,80,162.2
16081,D5,1661.625,0.25,80,162.2
16082,F5,1661.625,0.25,80,162.2
16083,F3,1661.844,0.25,48,162.2
16084,B-3,1661.844,0.25,48,162.2
16085,D4,1661.844,0.25,48,162.2
16086,F4,1661.844,0.25,48,162.2
16087,C6,1662.125,0.25,74,162.2
16088,C5,1662.125,0.25,74,162.2
16089,E-5,1662.125,0.25,74,162.2
16090,B-5,1662.625,0.25,74,162.2
16091,B-4,1662.625,0.25,74,162.2
16092,D5,1662.625,0.25,74,162.2
16093,F2,1662.844,0.25,78,162.2
16094,F3,1662.844,0.25,78,162.2
16095,A5,1663.125,0.25,74,162.2
16096,A4,1663.125,0.25,74,162.2
16097,C5,1663.125,0.25,74,162.2
16098,F3,1663.344,0.25,48,162.2
16099,E-4,1663.344,0.25,48,162.2
16100,F4,1663.344,0.25,48,162.2
16101,A3,1663.344,0.25,48,162.2
16102,B-5,1663.625,0.25,80,162.2
16103,B-4,1663.625,0.25,80,162.2
16104,D5,1663.625,0.25,80,162.2
16105,F3,1663.844,0.25,48,162.2
16106,A3,1663.844,0.25,48,162.2
16107,E-4,1663.844,0.25,48,162.2
16108,F4,1663.844,0.25,48,162.2
16109,F5,1664.125,0.25,76,162.2
16110,D5,1664.125,0.25,76,162.2
16111,B-5,1664.625,0.25,74,162.2
16112,B-4,1664.625,0.25,74,162.2
16113,D5,1664.625,0.25,74,162.2
16114,F2,1664.844,0.375,78,162.2
16115,F3,1664.844,0.375,78,162.2
16116,D6,1665.125,0.25,74,162.2
16117,D5,1665.125,0.25,74,162.2
16118,F5,1665.125,0.25,74,162.2
16119,F3,1665.344,0.125,48,162.2
16120,D4,1665.344,0.125,48,162.2
16121,F4,1665.344,0.125,48,162.2
16122,B-3,1665.344,0.125,48,162.2
16123,D6,1665.625,0.25,80,162.2
16124,D5,1665.625,0.25,80,162.2
16125,F5,1665.625,0.25,80,162.2
16126,F3,1665.844,0.125,48,162.2
16127,B-3,1665.844,0.125,48,162.2
16128,F4,1665.844,0.125,48,162.2
16129,D4,1665.844,0.125,48,162.2
16130,C6,1666.125,0.25,74,162.2
16131,C5,1666.125,0.25,74,162.2
16132,E-5,1666.125,0.25,74,162.2
16133,F3,1666.344,0.125,48,162.2
16134,D4,1666.344,0.125,48,162.2
16135,F4,1666.344,0.125,48,162.2
16136,B-3,1666.344,0.125,48,162.2
16137,B-5,1666.625,0.25,74,162.2
16138,B-4,1666.625,0.25,74,162.2
16139,D5,1666.625,0.25,74,162.2
16140,F3,1666.844,0.125,72,162.2
16141,A3,1666.844,0.125,72,162.2
16142,E-4,1666.844,0.125,72,162.2
16143,F4,1666.844,0.125,72,162.2
16144,A5,1667.125,0.25,74,162.2
16145,A4,1667.125,0.25,74,162.2
16146,C5,1667.125,0.25,74,162.2
16147,E-3,1667.344,0.125,46,162.2
16148,C3,1667.344,0.125,46,162.2
16149,F3,1667.344,0.125,46,162.2
16150,F2,1667.344,0.125,46,162.2
16151,D6,1667.625,1.5,82,162.2
16152,D5,1667.625,1.5,82,162.2
16153,F5,1667.625,1.5,82,162.2
16154,F2,1667.844,0.125,46,162.2
16155,C3,1667.844,0.125,46,162.2
16156,E-3,1667.844,0.125,46,162.2
16157,F3,1667.844,0.125,46,162.2
16158,E-3,1668.344,0.125,46,162.2
16159,C3,1668.344,0.125,46,162.2
16160,F3,1668.344,0.125,46,162.2
16161,F2,1668.344,0.125,46,162.2
16162,B-2,1668.844,0.25,77,162.2
16163,D3,1668.844,0.25,77,162.2
16164,B-3,1668.844,0.25,77,162.2
16165,B-5,1669.125,0.5,80,162.2
16166,B-4,1669.125,0.5,80,162.2
16167,B2,1669.344,0.25,37,162.2
16168,B1,1669.344,0.25,37,162.2
16169,E-6,1669.625,1.5,82,162.2
16170,E-5,1669.625,1.5,82,162.2
16171,A5,1669.625,1.5,82,162.2
16172,B-2,1669.844,0.25,37,162.2
16173,B-1,1669.844,0.25,37,162.2
16174,B2,1670.344,0.25,37,162.2
16175,B1,1670.344,0.25,37,162.2
16176,B-2,1670.844,0.25,44,162.2
16177,B-1,1670.844,0.25,44,162.2
16178,E-5,1671.125,0.5,74,162.2
16179,C6,1671.125,0.5,74,162.2
16180,C5,1671.125,0.5,74,162.2
16181,E-3,1671.344,0.25,36,162.2
16182,E-2,1671.344,0.25,36,162.2
16183,B-5,1671.625,0.375,80,162.2
16184,B-4,1671.625,0.375,80,162.2
16185,D5,1671.625,0.375,80,162.2
16186,D3,1671.844,0.25,36,162.2
16187,D2,1671.844,0.25,36,162.2
16188,F5,1672.125,0.125,74,162.2
16189,F6,1672.125,0.125,74,162.2
16190,D6,1672.125,0.125,74,162.2
16191,B2,1672.344,0.25,36,162.2
16192,B1,1672.344,0.25,36,162.2
16193,B-6,1672.625,0.125,74,162.2
16194,B-5,1672.625,0.125,74,162.2
16195,D6,1672.625,0.125,74,162.2
16196,B-2,1672.844,0.25,41,162.2
16197,B-1,1672.844,0.25,41,162.2
16198,D7,1673.125,0.125,74,162.2
16199,D6,1673.125,0.125,74,162.2
16200,F6,1673.125,0.125,74,162.2
16201,B2,1673.344,0.25,35,162.2
16202,B1,1673.344,0.25,35,162.2
16203,D7,1673.625,0.125,80,162.2
16204,D6,1673.625,0.125,80,162.2
16205,F6,1673.625,0.125,80,162.2
16206,B-2,1673.844,0.25,36,162.2
16207,B-1,1673.844,0.25,36,162.2
16208,C7,1674.125,0.125,74,162.2
16209,C6,1674.125,0.125,74,162.2
16210,E-6,1674.125,0.125,74,162.2
16211,B2,1674.344,0.25,36,162.2
16212,B1,1674.344,0.25,36,162.2
16213,B-6,1674.625,0.125,74,162.2
16214,B-5,1674.625,0.125,74,162.2
16215,D6,1674.625,0.125,74,162.2
16216,B-2,1674.844,0.25,46,162.2
16217,B-1,1674.844,0.25,46,162.2
16218,A6,1675.125,0.125,74,162.2
16219,A5,1675.125,0.125,74,162.2
16220,C6,1675.125,0.125,74,162.2
16221,E-3,1675.344,0.25,38,162.2
16222,E-2,1675.344,0.25,38,162.2
16223,B-6,1675.625,0.25,80,162.2
16224,B-5,1675.625,0.25,80,162.2
16225,D6,1675.625,0.25,80,162.2
16226,D3,1675.844,0.25,38,162.2
16227,D2,1675.844,0.25,38,162.2
16228,B2,1676.344,0.25,39,162.2
16229,B1,1676.344,0.25,39,162.2
16230,B-2,1676.844,0.25,44,162.2
16231,B-1,1676.844,0.25,44,162.2
16232,B2,1677.344,0.25,39,162.2
16233,B1,1677.344,0.25,39,162.2
16234,B-4,1677.625,1.0,42,162.2
16235,B-3,1677.625,1.0,42,162.2
16236,D4,1677.625,1.0,42,162.2
16237,F4,1677.625,1.0,42,162.2
16238,B-2,1677.844,0.25,40,162.2
16239,B-1,1677.844,0.25,40,162.2
16240,B2,1678.344,0.25,40,162.2
16241,B1,1678.344,0.25,40,162.2
16242,B-4,1678.625,0.25,39,162.2
16243,B-3,1678.625,0.25,39,162.2
16244,D4,1678.625,0.25,39,162.2
16245,F4,1678.625,0.25,39,162.2
16246,B-2,1678.844,0.25,48,162.2
16247,B-1,1678.844,0.25,48,162.2
16248,B-4,1679.125,0.25,39,162.2
16249,B-3,1679.125,0.25,39,162.2
16250,D4,1679.125,0.25,39,162.2
16251,F4,1679.125,0.25,39,162.2
16252,E-3,1679.344,0.25,39,162.2
16253,E-2,1679.344,0.25,39,162.2
16254,E-5,1679.625,1.0,42,162.2
16255,E-4,1679.625,1.0,42,162.2
16256,F#4,1679.625,1.0,42,162.2
16257,B-4,1679.625,1.0,42,162.2
16258,D3,1679.844,0.25,40,162.2
16259,D2,1679.844,0.25,40,162.2
16260,B2,1680.344,0.25,40,162.2
16261,B1,1680.344,0.25,40,162.2
16262,E-5,1680.625,1.0,40,162.2
16263,E-4,1680.625,1.0,40,162.2
16264,F#4,1680.625,1.0,40,162.2
16265,B-4,1680.625,1.0,40,162.2
16266,B-2,1680.844,0.25,46,162.2
16267,B-1,1680.844,0.25,46,162.2
16268,B2,1681.344,0.25,39,162.2
16269,B1,1681.344,0.25,39,162.2
16270,E-5,1681.625,1.0,44,162.2
16271,E-4,1681.625,1.0,44,162.2
16272,F#4,1681.625,1.0,44,162.2
16273,B-4,1681.625,1.0,44,162.2
16274,B-2,1681.844,0.25,39,162.2
16275,B-1,1681.844,0.25,39,162.2
16276,B2,1682.344,0.25,40,162.2
16277,B1,1682.344,0.25,40,162.2
16278,F#5,1682.625,0.25,44,162.2
16279,F#4,1682.625,0.25,44,162.2
16280,B-4,1682.625,0.25,44,162.2
16281,B-2,1682.844,0.25,52,162.2
16282,B-1,1682.844,0.25,52,162.2
16283,E-5,1683.125,0.25,39,162.2
16284,E-4,1683.125,0.25,39,162.2
16285,F#4,1683.125,0.25,39,162.2
16286,E-3,1683.344,0.25,42,162.2
16287,E-2,1683.344,0.25,42,162.2
16288,D5,1683.625,1.0,43,162.2
16289,D4,1683.625,1.0,43,162.2
16290,F4,1683.625,1.0,43,162.2
16291,D3,1683.844,0.25,43,162.2
16292,D2,1683.844,0.25,43,162.2
16293,B2,1684.344,0.25,43,162.2
16294,B1,1684.344,0.25,43,162.2
16295,B-4,1684.625,1.0,41,162.2
16296,B-3,1684.625,1.0,41,162.2
16297,D4,1684.625,1.0,41,162.2
16298,B-2,1684.844,0.25,48,162.2
16299,B-1,1684.844,0.25,48,162.2
16300,B2,1685.344,0.25,44,162.2
16301,B1,1685.344,0.25,44,162.2
16302,B-5,1685.625,1.0,48,162.2
16303,B-4,1685.625,1.0,48,162.2
16304,D5,1685.625,1.0,48,162.2
16305,F5,1685.625,1.0,48,162.2
16306,B-2,1685.844,0.25,44,162.2
16307,B-1,1685.844,0.25,44,162.2
16308,B2,1686.344,0.25,44,162.2
16309,B1,1686.344,0.25,44,162.2
16310,B-5,1686.625,0.25,44,162.2
16311,B-4,1686.625,0.25,44,162.2
16312,D5,1686.625,0.25,44,162.2
16313,F5,1686.625,0.25,44,162.2
16314,B-2,1686.844,0.25,54,162.2
16315,B-1,1686.844,0.25,54,162.2
16316,B-5,1687.125,0.25,44,162.2
16317,B-4,1687.125,0.25,44,162.2
16318,D5,1687.125,0.25,44,162.2
16319,F5,1687.125,0.25,44,162.2
16320,F#3,1687.344,0.25,46,162.2
16321,F#2,1687.344,0.25,46,162.2
16322,E-6,1687.625,1.0,48,162.2
16323,E-5,1687.625,1.0,48,162.2
16324,F#5,1687.625,1.0,48,162.2
16325,B-5,1687.625,1.0,48,162.2
16326,E-3,1687.844,0.25,54,162.2
16327,E-2,1687.844,0.25,54,162.2
16328,B2,1688.344,0.25,48,162.2
16329,B1,1688.344,0.25,48,162.2
16330,E-6,1688.625,1.0,44,162.2
16331,E-5,1688.625,1.0,44,162.2
16332,F#5,1688.625,1.0,44,162.2
16333,B-5,1688.625,1.0,44,162.2
16334,B-2,1688.844,0.25,57,162.2
16335,B-1,1688.844,0.25,57,162.2
16336,B2,1689.344,0.25,50,162.2
16337,B1,1689.344,0.25,50,162.2
16338,E-6,1689.625,1.0,52,162.2
16339,E-5,1689.625,1.0,52,162.2
16340,F#5,1689.625,1.0,52,162.2
16341,B-5,1689.625,1.0,52,162.2
16342,B-2,1689.844,0.25,56,162.2
16343,B-1,1689.844,0.25,56,162.2
16344,B2,1690.344,0.25,52,162.2
16345,B1,1690.344,0.25,52,162.2
16346,F#6,1690.625,0.25,50,162.2
16347,F#5,1690.625,0.25,50,162.2
16348,B-5,1690.625,0.25,50,162.2
16349,B-2,1690.844,0.25,56,162.2
16350,B-1,1690.844,0.25,56,162.2
16351,E-6,1691.125,0.25,44,162.2
16352,E-5,1691.125,0.25,44,162.2
16353,F#5,1691.125,0.25,44,162.2
16354,F#3,1691.344,0.25,48,162.2
16355,F#2,1691.344,0.25,48,162.2
16356,D6,1691.625,1.0,49,162.2
16357,D5,1691.625,1.0,49,162.2
16358,F5,1691.625,1.0,49,162.2
16359,E-3,1691.844,0.25,56,162.2
16360,E-2,1691.844,0.25,56,162.2
16361,B2,1692.344,0.25,50,162.2
16362,B1,1692.344,0.25,50,162.2
16363,F5,1692.625,1.0,58,162.2
16364,F6,1692.625,1.0,58,162.2
16365,B-5,1692.625,1.0,58,162.2
16366,D6,1692.625,1.0,58,162.2
16367,B-2,1692.844,0.25,60,162.2
16368,B-1,1692.844,0.25,60,162.2
16369,B2,1693.344,0.25,52,162.2
16370,B1,1693.344,0.25,52,162.2
16371,F#6,1693.625,1.0,58,162.2
16372,F#5,1693.625,1.0,58,162.2
16373,B-5,1693.625,1.0,58,162.2
16374,E-6,1693.625,1.0,58,162.2
16375,B-2,1693.844,0.25,58,162.2
16376,B-1,1693.844,0.25,58,162.2
16377,B2,1694.344,0.25,54,162.2
16378,B1,1694.344,0.25,54,162.2
16379,E-6,1694.625,1.0,50,162.2
16380,E-5,1694.625,1.0,50,162.2
16381,F#5,1694.625,1.0,50,162.2
16382,B-5,1694.625,1.0,50,162.2
16383,B-2,1694.844,0.25,62,162.2
16384,B-1,1694.844,0.25,62,162.2
16385,B-3,1695.344,0.25,54,162.2
16386,B-2,1695.344,0.25,54,162.2
16387,D6,1695.625,1.0,54,162.2
16388,B-5,1695.625,1.0,54,162.2
16389,F5,1695.625,1.0,54,162.2
16390,D5,1695.625,1.0,54,162.2
16391,F#3,1695.844,0.25,64,162.2
16392,F#2,1695.844,0.25,64,162.2
16393,E-3,1696.344,0.25,57,162.2
16394,E-2,1696.344,0.25,57,162.2
16395,F6,1696.625,1.0,52,162.2
16396,D6,1696.625,1.0,52,162.2
16397,B-5,1696.625,1.0,52,162.2
16398,F5,1696.625,1.0,52,162.2
16399,B-2,1696.844,0.25,70,162.2
16400,B-1,1696.844,0.25,70,162.2
16401,B2,1697.344,0.25,63,162.2
16402,B1,1697.344,0.25,63,162.2
16403,F#6,1697.625,1.0,57,162.2
16404,E-6,1697.625,1.0,57,162.2
16405,B-5,1697.625,1.0,57,162.2
16406,F#5,1697.625,1.0,57,162.2
16407,B-2,1697.844,0.25,72,162.2
16408,B-1,1697.844,0.25,72,162.2
16409,B2,1698.344,0.25,66,162.2
16410,B1,1698.344,0.25,66,162.2
16411,E-6,1698.625,1.0,51,162.2
16412,B-5,1698.625,1.0,51,162.2
16413,F#5,1698.625,1.0,51,162.2
16414,E-5,1698.625,1.0,51,162.2
16415,B-2,1698.844,0.25,67,162.2
16416,B-1,1698.844,0.25,67,162.2
16417,B-3,1699.344,0.25,58,162.2
16418,B-2,1699.344,0.25,58,162.2
16419,D6,1699.625,1.0,57,162.2
16420,B-5,1699.625,1.0,57,162.2
16421,F5,1699.625,1.0,57,162.2
16422,D5,1699.625,1.0,57,162.2
16423,F#3,1699.844,0.25,69,162.2
16424,F#2,1699.844,0.25,69,162.2
16425,E-3,1700.344,0.25,62,162.2
16426,E-2,1700.344,0.25,62,162.2
16427,B-6,1700.625,1.0,69,162.2
16428,F6,1700.625,1.0,69,162.2
16429,D6,1700.625,1.0,69,162.2
16430,B-5,1700.625,1.0,69,162.2
16431,B-2,1700.844,217/1000,80,162.2
16432,B-1,1700.844,0.5,80,162.2
16433,C3,1700.969,217/1000,63,162.2
16434,D3,1701.094,217/1000,66,162.2
16435,E-3,1701.219,217/1000,69,162.2
16436,B-6,1701.625,0.875,72,162.2
16437,B-5,1701.625,0.875,72,162.2
16438,E-6,1701.625,0.875,72,162.2
16439,F#6,1701.625,0.875,72,162.2
16440,A1,1701.844,1.0,77,162.2
16441,E-2,1701.844,1.0,77,162.2
16442,F#2,1701.844,1.0,77,162.2
16443,A2,1701.844,1.0,77,162.2
16444,F#5,1702.5,1.0,66,162.2
16445,E-6,1702.562,0.938,66,162.2
16446,B-6,1702.625,0.875,78,162.2
16447,G#1,1702.844,1.0,75,162.2
16448,C2,1702.844,1.0,75,162.2
16449,E-2,1702.844,1.0,75,162.2
16450,G#2,1702.844,1.0,75,162.2
16451,F5,1703.5,0.125,73,162.2
16452,D6,1703.562,0.062,73,162.2
16453,B-6,1703.625,1.0,86,162.2
16454,F5,1703.625,1.0,73,162.2
16455,D6,1703.625,1.0,73,162.2
16456,G1,1703.844,1.0,72,162.2
16457,A1,1703.844,1.0,72,162.2
16458,C#2,1703.844,1.0,72,162.2
16459,E2,1703.844,1.0,72,162.2
16460,G2,1703.844,1.0,72,162.2
16461,B-6,1704.625,1.0,69,162.2
16462,B-5,1704.625,1.0,69,162.2
16463,D6,1704.625,1.0,69,162.2
16464,F6,1704.625,1.0,69,162.2
16465,F#1,1704.844,0.5,73,162.2
16466,A1,1704.844,0.5,73,162.2
16467,D2,1704.844,0.5,73,162.2
16468,F#2,1704.844,0.5,73,162.2
16469,B-6,1705.625,0.875,76,162.2
16470,F#6,1705.625,0.875,76,162.2
16471,E-6,1705.625,0.875,76,162.2
16472,B-5,1705.625,0.875,76,162.2
16473,E-1,1705.844,1.0,73,162.2
16474,G1,1705.844,1.0,73,162.2
16475,C2,1705.844,1.0,73,162.2
16476,E-2,1705.844,1.0,73,162.2
16477,F#5,1706.5,1.0,67,162.2
16478,E-6,1706.562,0.938,67,162.2
16479,B-6,1706.625,0.875,79,162.2
16480,C2,1707.344,0.25,62,162.2
16481,E-2,1707.344,0.25,62,162.2
16482,G2,1707.344,0.25,62,162.2
16483,C3,1707.344,0.25,62,162.2
16484,F5,1707.5,0.125,73,162.2
16485,D6,1707.562,0.062,73,162.2
16486,B-6,1707.625,0.5,86,162.2
16487,F5,1707.625,0.5,73,162.2
16488,D6,1707.625,0.5,73,162.2
16489,F3,1707.844,0.25,74,162.2
16490,F2,1707.844,0.25,74,162.2
16491,A2,1707.844,0.25,74,162.2
16492,C3,1707.844,0.25,74,162.2
16493,F3,1708.125,217/1000,71,162.2
16494,G3,1708.25,217/1000,73,162.2
16495,F2,1708.344,0.25,66,162.2
16496,F1,1708.344,0.25,66,162.2
16497,A1,1708.344,0.25,66,162.2
16498,C2,1708.344,0.25,66,162.2
16499,A3,1708.375,217/1000,75,162.2
16500,B-3,1708.5,0.125,79,162.2
16501,B4,1708.625,0.5,81,162.2
16502,B3,1708.625,217/1000,81,162.2
16503,A3,1708.75,217/1000,75,162.2
16504,B-2,1708.844,0.5,71,162.2
16505,B-1,1708.844,0.5,71,162.2
16506,D2,1708.844,0.5,71,162.2
16507,F2,1708.844,0.5,71,162.2
16508,G#3,1708.875,217/1000,74,162.2
16509,F#3,1709.0,217/1000,72,162.2
16510,E3,1709.125,217/1000,71,162.2
16511,E-3,1709.25,217/1000,69,162.2
16512,C#3,1709.375,217/1000,68,162.2
16513,B2,1709.5,0.125,67,162.2
16514,C3,1709.625,181/1000,62,162.2
16515,C#3,1709.75,181/1000,64,162.2
16516,A2,1709.844,1.0,73,162.2
16517,E-3,1709.844,1.0,73,162.2
16518,F#3,1709.844,1.0,73,162.2
16519,A3,1709.844,1.0,73,162.2
16520,E-3,1709.875,181/1000,67,162.2
16521,E3,1710.0,181/1000,69,162.2
16522,F#3,1710.125,181/1000,71,162.2
16523,G#3,1710.25,181/1000,73,162.2
16524,B-3,1710.375,181/1000,75,162.2
16525,C4,1710.5,0.125,78,162.2
16526,C#5,1710.625,0.5,84,162.2
16527,C#4,1710.625,181/1000,84,162.2
16528,B3,1710.75,181/1000,78,162.2
16529,G#2,1710.844,1.0,73,162.2
16530,C3,1710.844,1.0,73,162.2
16531,E-3,1710.844,1.0,73,162.2
16532,G#3,1710.844,1.0,73,162.2
16533,A3,1710.875,181/1000,75,162.2
16534,G3,1711.0,181/1000,73,162.2
16535,F#3,1711.125,181/1000,71,162.2
16536,E3,1711.25,181/1000,69,162.2
16537,D3,1711.375,181/1000,66,162.2
16538,C#3,1711.5,0.125,63,162.2
16539,D3,1711.625,3/20,62,162.2
16540,E3,1711.75,3/20,66,162.2
16541,A2,1711.844,1.0,72,162.2
16542,G2,1711.844,1.0,72,162.2
16543,C#3,1711.844,1.0,72,162.2
16544,E3,1711.844,1.0,72,162.2
16545,G3,1711.844,1.0,72,162.2
16546,F#3,1711.875,3/20,68,162.2
16547,G3,1712.0,3/20,71,162.2
16548,A3,1712.125,3/20,74,162.2
16549,B3,1712.25,3/20,77,162.2
16550,C#4,1712.375,3/20,79,162.2
16551,D4,1712.5,0.125,82,162.2
16552,E-5,1712.625,0.5,84,162.2
16553,E-4,1712.625,3/20,84,162.2
16554,D4,1712.75,3/20,78,162.2
16555,F#2,1712.844,0.5,73,162.2
16556,A2,1712.844,0.5,73,162.2
16557,D3,1712.844,0.5,73,162.2
16558,F#3,1712.844,0.5,73,162.2
16559,C4,1712.875,3/20,75,162.2
16560,B-3,1713.0,3/20,73,162.2
16561,A3,1713.125,3/20,71,162.2
16562,G3,1713.256,3/20,69,162.2
16563,F3,1713.375,3/20,66,162.2
16564,E-3,1713.5,0.125,63,162.2
16565,D3,1713.625,3/20,60,162.2
16566,E-3,1713.75,3/20,60,162.2
16567,G2,1713.844,1.0,73,162.2
16568,E-2,1713.844,1.0,73,162.2
16569,C3,1713.844,1.0,73,162.2
16570,E-3,1713.844,1.0,73,162.2
16571,F3,1713.875,3/20,61,162.2
16572,G3,1714.0,3/20,62,162.2
16573,A3,1714.125,121/1000,63,162.2
16574,B-3,1714.225,121/1000,64,162.2
16575,C4,1714.325,121/1000,64,162.2
16576,D4,1714.425,121/1000,66,162.2
16577,E-4,1714.525,1/10,67,162.2
16578,F4,1714.625,121/1000,68,162.2
16579,E-4,1714.625,21/1000,67,162.2
16580,G4,1714.725,121/1000,68,162.2
16581,A4,1714.825,121/1000,69,162.2
16582,B-4,1714.925,121/1000,70,162.2
16583,C5,1715.025,121/1000,71,162.2
16584,D5,1715.125,121/1000,71,162.2
16585,E-5,1715.225,121/1000,72,162.2
16586,F5,1715.325,121/1000,73,162.2
16587,C3,1715.344,0.5,65,162.2
16588,C2,1715.344,0.5,65,162.2
16589,E-2,1715.344,0.5,65,162.2
16590,G2,1715.344,0.5,65,162.2
16591,G5,1715.425,121/1000,73,162.2
16592,A5,1715.525,1/10,74,162.2
16593,B-5,1715.625,0.5,84,162.2
16594,B-4,1715.625,0.125,62,162.2
16595,C5,1715.75,0.125,64,162.2
16596,F3,1715.844,0.5,74,162.2
16597,F2,1715.844,0.5,74,162.2
16598,A2,1715.844,0.5,74,162.2
16599,C3,1715.844,0.5,74,162.2
16600,D5,1715.875,0.125,67,162.2
16601,E-5,1716.0,0.125,69,162.2
16602,F5,1716.125,0.125,71,162.2
16603,G5,1716.25,0.125,73,162.2
16604,F4,1716.344,0.5,66,162.2
16605,F3,1716.344,0.5,66,162.2
16606,A3,1716.344,0.5,66,162.2
16607,C4,1716.344,0.5,66,162.2
16608,A5,1716.375,0.125,75,162.2
16609,B-5,1716.5,0.125,78,162.2
16610,B6,1716.625,0.5,84,162.2
16611,B5,1716.625,0.125,84,162.2
16612,A5,1716.75,0.125,78,162.2
16613,B-3,1716.844,0.5,79,162.2
16614,B-2,1716.844,0.5,79,162.2
16615,D3,1716.844,0.5,79,162.2
16616,G#5,1716.875,0.125,75,162.2
16617,F#5,1717.0,0.125,73,162.2
16618,E5,1717.125,0.125,71,162.2
16619,E-5,1717.25,0.125,69,162.2
16620,B-3,1717.344,0.188,73,162.2
16621,D3,1717.344,0.188,73,162.2
16622,C#5,1717.375,0.125,66,162.2
16623,B4,1717.5,0.125,63,162.2
16624,B-3,1717.594,0.188,73,162.2
16625,D3,1717.594,0.188,73,162.2
16626,C5,1717.625,0.125,62,162.2
16627,C#5,1717.75,0.125,64,162.2
16628,D4,1717.844,0.188,82,162.2
16629,B-3,1717.844,0.188,82,162.2
16630,E-5,1717.875,0.125,67,162.2
16631,E5,1718.0,0.125,69,162.2
16632,B-3,1718.094,0.188,76,162.2
16633,D3,1718.094,0.188,76,162.2
16634,F#5,1718.125,0.125,71,162.2
16635,G#5,1718.25,0.125,73,162.2
16636,B-3,1718.344,0.5,76,162.2
16637,D3,1718.344,0.5,76,162.2
16638,B-5,1718.375,0.125,75,162.2
16639,C6,1718.5,0.125,78,162.2
16640,C#7,1718.625,0.5,84,162.2
16641,C#6,1718.625,0.125,84,162.2
16642,B5,1718.75,0.125,78,162.2
16643,E-4,1718.844,167/1000,59,162.2
16644,F3,1718.844,167/1000,59,162.2
16645,C4,1718.844,167/1000,59,162.2
16646,A5,1718.875,0.125,75,162.2
16647,G5,1719.0,0.125,73,162.2
16648,F#5,1719.125,0.125,71,162.2
16649,F2,1719.177,167/1000,48,162.2
16650,F1,1719.177,167/1000,48,162.2
16651,E5,1719.25,0.125,69,162.2
16652,D5,1719.375,0.125,66,162.2
16653,C#5,1719.5,0.125,63,162.2
16654,F#2,1719.51,167/1000,48,162.2
16655,F#1,1719.51,167/1000,48,162.2
16656,D5,1719.625,0.125,62,162.2
16657,E5,1719.75,0.125,64,162.2
16658,G2,1719.844,167/1000,66,162.2
16659,G1,1719.844,167/1000,66,162.2
16660,F#5,1719.875,0.125,67,162.2
16661,G5,1720.0,0.125,69,162.2
16662,A5,1720.125,0.125,71,162.2
16663,G#2,1720.177,167/1000,55,162.2
16664,G#1,1720.177,167/1000,55,162.2
16665,B5,1720.25,0.125,73,162.2
16666,C#6,1720.375,0.125,75,162.2
16667,D6,1720.5,0.125,78,162.2
16668,A2,1720.51,167/1000,55,162.2
16669,A1,1720.51,167/1000,55,162.2
16670,E-7,1720.625,0.5,84,162.2
16671,E-6,1720.625,0.125,84,162.2
16672,D6,1720.75,0.125,78,162.2
16673,B-2,1720.844,0.5,79,162.2
16674,B-1,1720.844,0.5,79,162.2
16675,D2,1720.844,0.5,79,162.2
16676,C6,1720.875,0.125,75,162.2
16677,B-5,1721.0,0.125,73,162.2
16678,A5,1721.125,0.125,71,162.2
16679,G5,1721.25,0.125,69,162.2
16680,B-3,1721.344,0.188,73,162.2
16681,D3,1721.344,0.188,73,162.2
16682,F5,1721.375,0.125,66,162.2
16683,E-5,1721.5,0.125,63,162.2
16684,B-3,1721.594,0.188,73,162.2
16685,D3,1721.594,0.188,73,162.2
16686,D5,1721.625,0.125,60,162.2
16687,E-5,1721.75,0.125,60,162.2
16688,D4,1721.844,0.188,82,162.2
16689,B-3,1721.844,0.188,82,162.2
16690,F5,1721.875,0.125,61,162.2
16691,G5,1722.0,0.125,62,162.2
16692,B-3,1722.094,0.188,76,162.2
16693,D3,1722.094,0.188,76,162.2
16694,A5,1722.125,1/10,63,162.2
16695,B-5,1722.225,1/10,64,162.2
16696,C6,1722.325,1/10,64,162.2
16697,B-3,1722.344,0.5,76,162.2
16698,D3,1722.344,0.5,76,162.2
16699,D6,1722.425,1/10,66,162.2
16700,E-6,1722.525,1/10,67,162.2
16701,F6,1722.625,0.125,70,162.2
16702,G6,1722.75,0.125,72,162.2
16703,E-4,1722.844,167/1000,59,162.2
16704,F3,1722.844,167/1000,59,162.2
16705,C4,1722.844,167/1000,59,162.2
16706,A6,1722.875,0.125,73,162.2
16707,B-6,1723.0,0.125,75,162.2
16708,C7,1723.125,0.125,77,162.2
16709,F2,1723.177,167/1000,48,162.2
16710,F1,1723.177,167/1000,48,162.2
16711,D7,1723.25,0.125,79,162.2
16712,E-7,1723.375,0.125,80,162.2
16713,E7,1723.5,0.125,82,162.2
16714,F#2,1723.51,167/1000,48,162.2
16715,F#1,1723.51,167/1000,48,162.2
16716,F7,1723.625,167/1000,76,162.2
16717,F6,1723.625,167/1000,76,162.2
16718,D7,1723.625,167/1000,76,162.2
16719,B-6,1723.792,167/1000,75,162.2
16720,G2,1723.844,167/1000,66,162.2
16721,G1,1723.844,167/1000,66,162.2
16722,F6,1723.958,73/500,75,162.2
16723,F6,1724.125,167/1000,74,162.2
16724,D6,1724.125,167/1000,74,162.2
16725,G#2,1724.177,167/1000,55,162.2
16726,G#1,1724.177,167/1000,55,162.2
16727,B-5,1724.292,167/1000,73,162.2
16728,F5,1724.458,167/1000,73,162.2
16729,A2,1724.51,167/1000,55,162.2
16730,A1,1724.51,167/1000,55,162.2
16731,F6,1724.625,167/1000,66,162.2
16732,D6,1724.625,167/1000,66,162.2
16733,B-5,1724.792,167/1000,63,162.2
16734,F3,1724.844,167/1000,61,162.2
16735,F2,1724.844,167/1000,61,162.2
16736,F5,1724.958,73/500,63,162.2
16737,F5,1725.125,167/1000,62,162.2
16738,D5,1725.125,167/1000,62,162.2
16739,F2,1725.177,167/1000,48,162.2
16740,F1,1725.177,167/1000,48,162.2
16741,B-4,1725.292,167/1000,61,162.2
16742,F4,1725.458,167/1000,61,162.2
16743,F#2,1725.51,167/1000,48,162.2
16744,F#1,1725.51,167/1000,48,162.2
16745,E-5,1725.625,167/1000,76,162.2
16746,F5,1725.625,167/1000,76,162.2
16747,F4,1725.625,167/1000,76,162.2
16748,A4,1725.625,167/1000,76,162.2
16749,G2,1725.844,167/1000,66,162.2
16750,G1,1725.844,167/1000,66,162.2
16751,E-4,1725.958,167/1000,60,162.2
16752,F4,1725.958,167/1000,60,162.2
16753,F3,1725.958,167/1000,60,162.2
16754,A3,1725.958,167/1000,60,162.2
16755,G#2,1726.177,167/1000,55,162.2
16756,G#1,1726.177,167/1000,55,162.2
16757,E-4,1726.292,167/1000,60,162.2
16758,F4,1726.292,167/1000,60,162.2
16759,F3,1726.292,167/1000,60,162.2
16760,A3,1726.292,167/1000,60,162.2
16761,A2,1726.51,167/1000,55,162.2
16762,A1,1726.51,167/1000,55,162.2
16763,E-4,1726.625,167/1000,62,162.2
16764,F4,1726.625,167/1000,62,162.2
16765,F3,1726.625,167/1000,62,162.2
16766,B-3,1726.625,167/1000,62,162.2
16767,F3,1726.844,167/1000,61,162.2
16768,F2,1726.844,167/1000,61,162.2
16769,E-4,1726.958,167/1000,67,162.2
16770,F4,1726.958,167/1000,67,162.2
16771,F3,1726.958,167/1000,67,162.2
16772,B3,1726.958,167/1000,67,162.2
16773,F2,1727.177,167/1000,48,162.2
16774,F1,1727.177,167/1000,48,162.2
16775,E-4,1727.292,167/1000,73,162.2
16776,F4,1727.292,167/1000,73,162.2
16777,F3,1727.292,167/1000,73,162.2
16778,C4,1727.292,167/1000,73,162.2
16779,F#2,1727.51,167/1000,48,162.2
16780,F#1,1727.51,167/1000,48,162.2
16781,F7,1727.625,167/1000,76,162.2
16782,F6,1727.625,167/1000,76,162.2
16783,D7,1727.625,167/1000,76,162.2
16784,B-6,1727.792,167/1000,75,162.2
16785,G2,1727.844,167/1000,66,162.2
16786,G1,1727.844,167/1000,66,162.2
16787,F6,1727.958,73/500,75,162.2
16788,F6,1728.125,167/1000,74,162.2
16789,D6,1728.125,167/1000,74,162.2
16790,G#2,1728.177,167/1000,55,162.2
16791,G#1,1728.177,167/1000,55,162.2
16792,B-5,1728.292,167/1000,73,162.2
16793,F5,1728.458,167/1000,73,162.2
16794,A2,1728.51,167/1000,55,162.2
16795,A1,1728.51,167/1000,55,162.2
16796,F6,1728.625,167/1000,66,162.2
16797,D6,1728.625,167/1000,66,162.2
16798,B-5,1728.792,167/1000,63,162.2
16799,F3,1728.844,167/1000,64,162.2
16800,F2,1728.844,167/1000,64,162.2
16801,F5,1728.958,73/500,63,162.2
16802,F5,1729.125,167/1000,62,162.2
16803,D5,1729.125,167/1000,62,162.2
16804,F2,1729.177,167/1000,50,162.2
16805,F1,1729.177,167/1000,50,162.2
16806,B-4,1729.292,167/1000,61,162.2
16807,F4,1729.458,167/1000,61,162.2
16808,F#2,1729.51,167/1000,50,162.2
16809,F#1,1729.51,167/1000,50,162.2
16810,E-5,1729.625,167/1000,76,162.2
16811,F5,1729.625,167/1000,76,162.2
16812,F4,1729.625,167/1000,76,162.2
16813,A4,1729.625,167/1000,76,162.2
16814,G2,1729.844,167/1000,68,162.2
16815,G1,1729.844,167/1000,68,162.2
16816,E-4,1729.958,167/1000,60,162.2
16817,F4,1729.958,167/1000,60,162.2
16818,F3,1729.958,167/1000,60,162.2
16819,A3,1729.958,167/1000,60,162.2
16820,G#2,1730.177,167/1000,57,162.2
16821,G#1,1730.177,167/1000,57,162.2
16822,E-4,1730.292,167/1000,60,162.2
16823,F4,1730.292,167/1000,60,162.2
16824,F3,1730.292,167/1000,60,162.2
16825,A3,1730.292,167/1000,60,162.2
16826,A2,1730.51,167/1000,57,162.2
16827,A1,1730.51,167/1000,57,162.2
16828,E-4,1730.625,167/1000,62,162.2
16829,F4,1730.625,167/1000,62,162.2
16830,F3,1730.625,167/1000,62,162.2
16831,B-3,1730.625,167/1000,62,162.2
16832,F3,1730.844,167/1000,59,162.2
16833,F2,1730.844,167/1000,59,162.2
16834,E-4,1730.958,167/1000,67,162.2
16835,F4,1730.958,167/1000,67,162.2
16836,F3,1730.958,167/1000,67,162.2
16837,B3,1730.958,167/1000,67,162.2
16838,E3,1731.177,167/1000,62,162.2
16839,E2,1731.177,167/1000,62,162.2
16840,E-4,1731.292,167/1000,73,162.2
16841,F4,1731.292,167/1000,73,162.2
16842,F3,1731.292,167/1000,73,162.2
16843,C4,1731.292,167/1000,73,162.2
16844,E-3,1731.51,167/1000,66,162.2
16845,E-2,1731.51,167/1000,66,162.2
16846,E-4,1731.625,167/1000,78,162.2
16847,F4,1731.625,167/1000,78,162.2
16848,A3,1731.625,167/1000,78,162.2
16849,D3,1731.844,167/1000,69,162.2
16850,D2,1731.844,167/1000,69,162.2
16851,E-5,1731.958,167/1000,64,162.2
16852,F5,1731.958,167/1000,64,162.2
16853,F4,1731.958,167/1000,64,162.2
16854,A4,1731.958,167/1000,64,162.2
16855,C#3,1732.177,167/1000,74,162.2
16856,C#2,1732.177,167/1000,74,162.2
16857,E-5,1732.292,167/1000,64,162.2
16858,F5,1732.292,167/1000,64,162.2
16859,F4,1732.292,167/1000,64,162.2
16860,A4,1732.292,167/1000,64,162.2
16861,C3,1732.51,167/1000,76,162.2
16862,C2,1732.51,167/1000,76,162.2
16863,E-5,1732.625,167/1000,67,162.2
16864,F5,1732.625,167/1000,67,162.2
16865,F4,1732.625,167/1000,67,162.2
16866,B-4,1732.625,167/1000,67,162.2
16867,B-2,1732.844,0.5,79,162.2
16868,B-1,1732.844,0.5,79,162.2
16869,F2,1732.844,0.5,79,162.2
16870,E-5,1732.958,167/1000,74,162.2
16871,F5,1732.958,167/1000,74,162.2
16872,F4,1732.958,167/1000,74,162.2
16873,B4,1732.958,167/1000,74,162.2
16874,E-5,1733.292,167/1000,80,162.2
16875,F5,1733.292,167/1000,80,162.2
16876,F4,1733.292,167/1000,80,162.2
16877,C5,1733.292,167/1000,80,162.2
16878,B-3,1733.344,0.125,70,162.2
16879,B-3,1733.594,0.125,71,162.2
16880,E-5,1733.625,167/1000,76,162.2
16881,F5,1733.625,167/1000,76,162.2
16882,F4,1733.625,167/1000,76,162.2
16883,A4,1733.625,167/1000,76,162.2
16884,D4,1733.844,0.125,80,162.2
16885,E-6,1733.958,167/1000,70,162.2
16886,F6,1733.958,167/1000,70,162.2
16887,F5,1733.958,167/1000,70,162.2
16888,A5,1733.958,167/1000,70,162.2
16889,B-3,1734.094,0.125,73,162.2
16890,E-6,1734.292,167/1000,70,162.2
16891,F6,1734.292,167/1000,70,162.2
16892,F5,1734.292,167/1000,70,162.2
16893,A5,1734.292,167/1000,70,162.2
16894,B-3,1734.344,0.25,73,162.2
16895,E-6,1734.625,167/1000,74,162.2
16896,F6,1734.625,167/1000,74,162.2
16897,F5,1734.625,167/1000,74,162.2
16898,B-5,1734.625,167/1000,74,162.2
16899,F3,1734.844,0.125,80,162.2
16900,E-6,1734.958,167/1000,81,162.2
16901,F6,1734.958,167/1000,81,162.2
16902,F5,1734.958,167/1000,81,162.2
16903,B5,1734.958,167/1000,81,162.2
16904,D3,1735.094,0.125,73,162.2
16905,E-6,1735.292,167/1000,87,162.2
16906,F6,1735.292,167/1000,87,162.2
16907,F5,1735.292,167/1000,87,162.2
16908,C6,1735.292,167/1000,87,162.2
16909,D3,1735.344,0.25,73,162.2
16910,E-6,1735.625,167/1000,82,162.2
16911,F6,1735.625,167/1000,82,162.2
16912,F5,1735.625,167/1000,82,162.2
16913,A5,1735.625,167/1000,82,162.2
16914,B-2,1735.844,0.125,80,162.2
16915,E-7,1735.958,167/1000,77,162.2
16916,F7,1735.958,167/1000,77,162.2
16917,F6,1735.958,167/1000,77,162.2
16918,A6,1735.958,167/1000,77,162.2
16919,F2,1736.094,0.125,73,162.2
16920,E-7,1736.292,167/1000,77,162.2
16921,F7,1736.292,167/1000,77,162.2
16922,F6,1736.292,167/1000,77,162.2
16923,A6,1736.292,167/1000,77,162.2
16924,F2,1736.344,0.25,73,162.2
16925,E-7,1736.625,167/1000,80,162.2
16926,F7,1736.625,167/1000,80,162.2
16927,F6,1736.625,167/1000,80,162.2
16928,B-6,1736.625,167/1000,80,162.2
16929,B-2,1736.844,0.5,79,162.2
16930,B-1,1736.844,0.5,79,162.2
16931,F2,1736.844,0.5,79,162.2
16932,E-7,1736.958,167/1000,88,162.2
16933,F7,1736.958,167/1000,88,162.2
16934,F6,1736.958,167/1000,88,162.2
16935,B6,1736.958,167/1000,88,162.2
16936,E-7,1737.292,167/1000,96,162.2
16937,F7,1737.292,167/1000,96,162.2
16938,F6,1737.292,167/1000,96,162.2
16939,C7,1737.292,167/1000,96,162.2
16940,B-4,1737.344,0.125,64,162.2
16941,B-3,1737.344,0.125,64,162.2
16942,B-4,1737.594,0.125,66,162.2
16943,B-3,1737.594,0.125,66,162.2
16944,E-7,1737.625,167/1000,82,162.2
16945,F7,1737.625,167/1000,82,162.2
16946,F6,1737.625,167/1000,82,162.2
16947,A6,1737.625,167/1000,82,162.2
16948,D5,1737.844,0.125,74,162.2
16949,D4,1737.844,0.125,74,162.2
16950,F5,1737.958,167/1000,77,162.2
16951,F6,1737.958,167/1000,77,162.2
16952,B-4,1738.094,0.125,67,162.2
16953,B-3,1738.094,0.125,67,162.2
16954,F#5,1738.292,167/1000,77,162.2
16955,F#6,1738.292,167/1000,77,162.2
16956,B-4,1738.344,0.25,67,162.2
16957,B-3,1738.344,0.25,67,162.2
16958,G6,1738.625,167/1000,80,162.2
16959,G5,1738.625,167/1000,80,162.2
16960,F4,1738.844,0.125,74,162.2
16961,F3,1738.844,0.125,74,162.2
16962,G#5,1738.958,167/1000,88,162.2
16963,G#6,1738.958,167/1000,88,162.2
16964,D4,1739.094,0.125,67,162.2
16965,D3,1739.094,0.125,67,162.2
16966,A5,1739.292,167/1000,96,162.2
16967,A6,1739.292,167/1000,96,162.2
16968,D4,1739.344,0.25,67,162.2
16969,D3,1739.344,0.25,67,162.2
16970,D6,1739.625,0.5,102,162.2
16971,B-5,1739.625,0.5,102,162.2
16972,B-6,1739.625,0.5,102,162.2
16973,B-3,1739.844,0.125,74,162.2
16974,B-2,1739.844,0.125,74,162.2
16975,F3,1740.094,0.125,67,162.2
16976,F2,1740.094,0.125,67,162.2
16977,B-5,1740.125,0.125,85,162.2
16978,B-4,1740.125,0.125,85,162.2
16979,F3,1740.344,0.25,67,162.2
16980,F2,1740.344,0.25,67,162.2
16981,B-5,1740.375,0.125,84,162.2
16982,B-4,1740.375,0.125,84,162.2
16983,D6,1740.625,0.125,90,162.2
16984,D5,1740.625,0.125,90,162.2
16985,D2,1740.844,0.5,78,162.2
16986,B-2,1740.844,0.5,78,162.2
16987,B-1,1740.844,0.5,78,162.2
16988,F2,1740.844,0.5,78,162.2
16989,B-5,1740.875,0.125,85,162.2
16990,B-4,1740.875,0.125,85,162.2
16991,B-5,1741.125,0.25,85,162.2
16992,B-4,1741.125,0.25,85,162.2
16993,F4,1741.344,0.125,64,162.2
16994,F3,1741.344,0.125,64,162.2
16995,F4,1741.594,0.125,66,162.2
16996,F3,1741.594,0.125,66,162.2
16997,F5,1741.625,0.125,90,162.2
16998,F4,1741.625,0.125,90,162.2
16999,B-4,1741.844,0.125,74,162.2
17000,B-3,1741.844,0.125,74,162.2
17001,D5,1741.875,0.125,85,162.2
17002,D4,1741.875,0.125,85,162.2
17003,F4,1742.094,0.125,67,162.2
17004,F3,1742.094,0.125,67,162.2
17005,D5,1742.125,0.25,85,162.2
17006,D4,1742.125,0.25,85,162.2
17007,F4,1742.344,0.25,67,162.2
17008,F3,1742.344,0.25,67,162.2
17009,B-4,1742.625,0.125,90,162.2
17010,B-3,1742.625,0.125,90,162.2
17011,D4,1742.844,0.125,74,162.2
17012,D3,1742.844,0.125,74,162.2
17013,F4,1742.875,0.125,85,162.2
17014,F3,1742.875,0.125,85,162.2
17015,B-3,1743.094,0.125,67,162.2
17016,B-2,1743.094,0.125,67,162.2
17017,F4,1743.125,0.25,85,162.2
17018,F3,1743.125,0.25,85,162.2
17019,B-3,1743.344,0.25,67,162.2
17020,B-2,1743.344,0.25,67,162.2
17021,B-6,1743.625,0.5,102,162.2
17022,D6,1743.625,0.5,102,162.2
17023,D7,1743.625,0.5,102,162.2
17024,F3,1743.844,0.125,77,162.2
17025,F2,1743.844,0.125,77,162.2
17026,D3,1744.094,0.125,70,162.2
17027,D2,1744.094,0.125,70,162.2
17028,D6,1744.125,0.125,85,162.2
17029,D5,1744.125,0.125,85,162.2
17030,D3,1744.344,0.25,70,162.2
17031,D2,1744.344,0.25,70,162.2
17032,D6,1744.375,0.125,84,162.2
17033,D5,1744.375,0.125,84,162.2
17034,F6,1744.625,0.125,90,162.2
17035,F5,1744.625,0.125,90,162.2
17036,B-2,1744.844,333/1000,62,162.2
17037,B-1,1744.844,333/1000,62,162.2
17038,D6,1744.875,0.125,85,162.2
17039,D5,1744.875,0.125,85,162.2
17040,D6,1745.125,0.25,85,162.2
17041,D5,1745.125,0.25,85,162.2
17042,F2,1745.177,0.25,56,162.2
17043,F1,1745.177,0.25,56,162.2
17044,B-3,1745.51,333/1000,62,162.2
17045,B-2,1745.51,333/1000,62,162.2
17046,B-5,1745.625,0.125,90,162.2
17047,B-4,1745.625,0.125,90,162.2
17048,F3,1745.844,0.25,54,162.2
17049,F2,1745.844,0.25,54,162.2
17050,F5,1745.875,0.125,85,162.2
17051,F4,1745.875,0.125,85,162.2
17052,F5,1746.125,0.25,85,162.2
17053,F4,1746.125,0.25,85,162.2
17054,B-4,1746.177,333/1000,62,162.2
17055,B-3,1746.177,333/1000,62,162.2
17056,F4,1746.51,0.25,54,162.2
17057,F3,1746.51,0.25,54,162.2
17058,D5,1746.625,0.125,90,162.2
17059,D4,1746.625,0.125,90,162.2
17060,B-3,1746.844,333/1000,62,162.2
17061,B-2,1746.844,333/1000,62,162.2
17062,B-4,1746.875,0.125,85,162.2
17063,B-3,1746.875,0.125,85,162.2
17064,B-4,1747.125,0.25,85,162.2
17065,B-3,1747.125,0.25,85,162.2
17066,F3,1747.177,0.25,56,162.2
17067,F2,1747.177,0.25,56,162.2
17068,B-2,1747.51,333/1000,62,162.2
17069,B-1,1747.51,333/1000,62,162.2
17070,D7,1747.625,0.5,100,162.2
17071,B-6,1747.625,0.5,100,162.2
17072,F6,1747.625,0.5,100,162.2
17073,F7,1747.625,0.5,100,162.2
17074,F2,1747.844,0.25,56,162.2
17075,F1,1747.844,0.25,56,162.2
17076,F6,1748.125,0.125,85,162.2
17077,F5,1748.125,0.125,85,162.2
17078,B-3,1748.177,333/1000,62,162.2
17079,B-2,1748.177,333/1000,62,162.2
17080,F6,1748.375,0.125,84,162.2
17081,F5,1748.375,0.125,84,162.2
17082,F3,1748.51,0.25,56,162.2
17083,F2,1748.51,0.25,56,162.2
17084,B-6,1748.625,0.125,90,162.2
17085,B-5,1748.625,0.125,90,162.2
17086,B-4,1748.844,333/1000,62,162.2
17087,B-3,1748.844,333/1000,62,162.2
17088,F6,1748.875,0.125,85,162.2
17089,F5,1748.875,0.125,85,162.2
17090,F6,1749.125,0.25,85,162.2
17091,F5,1749.125,0.25,85,162.2
17092,F4,1749.177,167/1000,57,162.2
17093,F3,1749.177,167/1000,57,162.2
17094,B-3,1749.5,3/10,80,162.2
17095,B-2,1749.5,3/10,79,162.2
17096,B-3,1749.51,333/1000,62,162.2
17097,B-2,1749.51,333/1000,62,162.2
17098,D6,1749.625,0.125,90,162.2
17099,D5,1749.625,0.125,90,162.2
17100,B-3,1749.833,3/10,67,162.2
17101,B-2,1749.833,3/10,66,162.2
17102,F3,1749.844,167/1000,56,162.2
17103,F2,1749.844,167/1000,56,162.2
17104,B-5,1749.875,0.125,85,162.2
17105,B-4,1749.875,0.125,85,162.2
17106,B-5,1750.125,0.25,85,162.2
17107,B-4,1750.125,0.25,85,162.2
17108,B-3,1750.167,3/10,67,162.2
17109,B-2,1750.167,3/10,64,162.2
17110,B-2,1750.177,333/1000,62,162.2
17111,B-1,1750.177,333/1000,62,162.2
17112,B-3,1750.5,3/10,74,162.2
17113,B-2,1750.5,3/10,70,162.2
17114,F2,1750.51,167/1000,56,162.2
17115,F1,1750.51,167/1000,56,162.2
17116,F5,1750.625,0.125,94,162.2
17117,F4,1750.625,0.125,94,162.2
17118,B-3,1750.833,3/10,70,162.2
17119,B-2,1750.833,3/10,66,162.2
17120,B-1,1750.844,1.0,102,162.2
17121,D5,1750.875,0.125,88,162.2
17122,D4,1750.875,0.125,88,162.2
17123,D5,1751.125,0.25,88,162.2
17124,D4,1751.125,0.25,88,162.2
17125,B-3,1751.167,3/10,70,162.2
17126,B-2,1751.167,3/10,66,162.2
17127,B-3,1751.5,3/10,75,162.2
17128,B-2,1751.5,3/10,71,162.2
17129,B-4,1751.625,333/1000,90,162.2
17130,B-3,1751.625,333/1000,90,162.2
17131,B-3,1751.833,3/10,70,162.2
17132,B-2,1751.833,3/10,66,162.2
17133,F4,1751.958,0.25,82,162.2
17134,F3,1751.958,0.25,82,162.2
17135,B-3,1752.167,3/10,70,162.2
17136,B-2,1752.167,3/10,66,162.2
17137,B-5,1752.292,333/1000,90,162.2
17138,B-4,1752.292,333/1000,90,162.2
17139,B-3,1752.5,3/10,74,162.2
17140,B-2,1752.5,3/10,71,162.2
17141,F5,1752.625,0.25,78,162.2
17142,F4,1752.625,0.25,78,162.2
17143,B-3,1752.833,3/10,70,162.2
17144,B-2,1752.833,3/10,67,162.2
17145,B-6,1752.958,333/1000,90,162.2
17146,B-5,1752.958,333/1000,90,162.2
17147,B-3,1753.167,3/10,70,162.2
17148,B-2,1753.167,3/10,67,162.2
17149,F6,1753.292,0.25,78,162.2
17150,F5,1753.292,0.25,78,162.2
17151,B-3,1753.5,3/10,74,162.2
17152,B-2,1753.5,3/10,71,162.2
17153,B-5,1753.625,333/1000,90,162.2
17154,B-4,1753.625,333/1000,90,162.2
17155,B-3,1753.833,3/10,67,162.2
17156,B-2,1753.833,3/10,66,162.2
17157,F3,1753.844,1.0,73,162.2
17158,D2,1753.844,1.0,73,162.2
17159,F5,1753.958,0.25,81,162.2
17160,F4,1753.958,0.25,81,162.2
17161,B-3,1754.167,3/10,67,162.2
17162,B-2,1754.167,3/10,64,162.2
17163,B-4,1754.292,333/1000,90,162.2
17164,B-3,1754.292,333/1000,90,162.2
17165,B-3,1754.5,3/10,74,162.2
17166,B-2,1754.5,3/10,70,162.2
17167,F4,1754.625,0.25,82,162.2
17168,F3,1754.625,0.25,82,162.2
17169,B-3,1754.833,3/10,70,162.2
17170,B-2,1754.833,3/10,66,162.2
17171,F#3,1754.844,2.0,78,162.2
17172,E-2,1754.844,2.0,78,162.2
17173,B-5,1754.958,333/1000,90,162.2
17174,B-4,1754.958,333/1000,90,162.2
17175,B-3,1755.167,3/10,70,162.2
17176,B-2,1755.167,3/10,66,162.2
17177,F5,1755.292,0.25,82,162.2
17178,F4,1755.292,0.25,82,162.2
17179,B-3,1755.5,3/10,75,162.2
17180,B-2,1755.5,3/10,71,162.2
17181,B-6,1755.625,333/1000,90,162.2
17182,B-5,1755.625,333/1000,90,162.2
17183,B-3,1755.833,3/10,70,162.2
17184,B-2,1755.833,3/10,66,162.2
17185,F6,1755.958,167/1000,82,162.2
17186,F5,1755.958,167/1000,82,162.2
17187,B-3,1756.167,3/10,70,162.2
17188,B-2,1756.167,3/10,66,162.2
17189,B-5,1756.292,333/1000,90,162.2
17190,B-4,1756.292,333/1000,90,162.2
17191,B-3,1756.5,3/10,74,162.2
17192,B-2,1756.5,3/10,71,162.2
17193,F5,1756.625,167/1000,82,162.2
17194,F4,1756.625,167/1000,82,162.2
17195,B-3,1756.833,3/10,70,162.2
17196,B-2,1756.833,3/10,67,162.2
17197,B-4,1756.958,333/1000,90,162.2
17198,B-3,1756.958,333/1000,90,162.2
17199,B-3,1757.167,3/10,70,162.2
17200,B-2,1757.167,3/10,67,162.2
17201,F4,1757.292,167/1000,82,162.2
17202,F3,1757.292,167/1000,82,162.2
17203,B-3,1757.5,3/10,74,162.2
17204,B-2,1757.5,3/10,71,162.2
17205,B-3,1757.833,3/10,67,162.2
17206,B-2,1757.833,3/10,66,162.2
17207,F3,1757.844,1.0,73,162.2
17208,F2,1757.844,1.0,73,162.2
17209,B-3,1758.167,3/10,67,162.2
17210,B-2,1758.167,3/10,64,162.2
17211,B-3,1758.5,3/10,74,162.2
17212,B-2,1758.5,3/10,70,162.2
17213,B-3,1758.833,3/10,70,162.2
17214,B-2,1758.833,3/10,66,162.2
17215,E-3,1758.844,3.0,78,162.2
17216,F#2,1758.844,3.0,78,162.2
17217,B-3,1759.167,3/10,70,162.2
17218,B-2,1759.167,3/10,66,162.2
17219,B-3,1759.5,3/10,75,162.2
17220,B-2,1759.5,3/10,71,162.2
17221,B-3,1759.833,3/10,70,162.2
17222,B-2,1759.833,3/10,66,162.2
17223,B-3,1760.167,3/10,70,162.2
17224,B-2,1760.167,3/10,66,162.2
17225,B-3,1760.5,3/10,74,162.2
17226,B-2,1760.5,3/10,71,162.2
17227,B-4,1760.625,1.0,87,162.2
17228,F4,1760.625,1.0,87,162.2
17229,G#4,1760.625,1.0,87,162.2
17230,B-3,1760.833,3/10,70,162.2
17231,B-2,1760.833,3/10,67,162.2
17232,B-3,1761.167,3/10,70,162.2
17233,B-2,1761.167,3/10,67,162.2
17234,B-3,1761.5,3/10,74,162.2
17235,B-2,1761.5,3/10,71,162.2
17236,B-4,1761.625,1.5,103,162.2
17237,F#4,1761.625,2.0,86,162.2
17238,B-3,1761.833,3/10,67,162.2
17239,B-2,1761.833,3/10,66,162.2
17240,D3,1761.844,1.0,73,162.2
17241,G#2,1761.844,1.0,73,162.2
17242,B-3,1762.167,3/10,67,162.2
17243,B-2,1762.167,3/10,64,162.2
17244,B-3,1762.5,3/10,74,162.2
17245,B-2,1762.5,3/10,70,162.2
17246,B-3,1762.833,3/10,70,162.2
17247,B-2,1762.833,3/10,66,162.2
17248,E-3,1762.844,1.0,78,162.2
17249,F#2,1762.844,1.0,78,162.2
17250,B-4,1763.125,0.5,100,162.2
17251,B-3,1763.167,3/10,70,162.2
17252,B-2,1763.167,3/10,66,162.2
17253,B-3,1763.5,3/10,75,162.2
17254,B-2,1763.5,3/10,71,162.2
17255,B-4,1763.625,1.0,105,162.2
17256,B-3,1763.833,3/10,70,162.2
17257,B-2,1763.833,3/10,66,162.2
17258,F#2,1763.844,1.0,73,162.2
17259,E-3,1763.844,1.0,73,162.2
17260,B-3,1764.167,3/10,70,162.2
17261,B-2,1764.167,3/10,66,162.2
17262,B-3,1764.5,3/10,74,162.2
17263,B-2,1764.5,3/10,71,162.2
17264,B-4,1764.625,1.0,96,162.2
17265,F4,1764.625,1.0,96,162.2
17266,B-3,1764.833,3/10,70,162.2
17267,B-2,1764.833,3/10,67,162.2
17268,F2,1764.844,1.0,71,162.2
17269,G#2,1764.844,1.0,71,162.2
17270,F3,1764.844,1.0,71,162.2
17271,B-3,1765.167,3/10,70,162.2
17272,B-2,1765.167,3/10,67,162.2
17273,B-4,1765.625,1.5,106,162.2
17274,E-4,1765.625,3.0,96,162.2
17275,E-2,1765.844,1.0,71,162.2
17276,F#3,1765.844,1.0,71,162.2
17277,F#2,1765.844,1.0,71,162.2
17278,B-2,1766.844,3/20,39,162.2
17279,B-1,1766.844,3/20,39,162.2
17280,D2,1766.844,3/20,39,162.2
17281,F2,1766.844,3/20,39,162.2
17282,B-2,1767.01,3/20,36,162.2
17283,B-1,1767.01,3/20,36,162.2
17284,D2,1767.01,3/20,36,162.2
17285,F2,1767.01,3/20,36,162.2
17286,B-4,1767.125,0.5,92,162.2
17287,B-2,1767.177,3/20,36,162.2
17288,B-1,1767.177,3/20,36,162.2
17289,D2,1767.177,3/20,36,162.2
17290,F2,1767.177,3/20,36,162.2
17291,B-2,1767.344,3/40,36,162.2
17292,B-1,1767.344,3/40,36,162.2
17293,D2,1767.344,3/40,36,162.2
17294,F2,1767.344,3/40,36,162.2
17295,B-2,1767.51,3/40,38,162.2
17296,B-1,1767.51,3/40,38,162.2
17297,D2,1767.51,3/40,38,162.2
17298,F2,1767.51,3/40,38,162.2
17299,B-4,1767.625,1.0,99,162.2
17300,B-2,1767.677,3/40,38,162.2
17301,B-1,1767.677,3/40,38,162.2
17302,D2,1767.677,3/40,38,162.2
17303,F2,1767.677,3/40,38,162.2
17304,B-2,1767.844,3/40,40,162.2
17305,B-1,1767.844,3/40,40,162.2
17306,D2,1767.844,3/40,40,162.2
17307,F2,1767.844,3/40,40,162.2
17308,B-2,1768.01,3/40,41,162.2
17309,B-1,1768.01,3/40,41,162.2
17310,D2,1768.01,3/40,41,162.2
17311,F2,1768.01,3/40,41,162.2
17312,B-2,1768.177,3/40,41,162.2
17313,B-1,1768.177,3/40,41,162.2
17314,D2,1768.177,3/40,41,162.2
17315,F2,1768.177,3/40,41,162.2
17316,B-2,1768.344,3/40,44,162.2
17317,B-1,1768.344,3/40,44,162.2
17318,D2,1768.344,3/40,44,162.2
17319,F2,1768.344,3/40,44,162.2
17320,B-2,1768.51,3/40,43,162.2
17321,B-1,1768.51,3/40,43,162.2
17322,D2,1768.51,3/40,43,162.2
17323,F2,1768.51,3/40,43,162.2
17324,B-4,1768.625,1.0,88,162.2
17325,D4,1768.625,1.0,88,162.2
17326,B-2,1768.677,3/40,44,162.2
17327,B-1,1768.677,3/40,44,162.2
17328,D2,1768.677,3/40,44,162.2
17329,F2,1768.677,3/40,44,162.2
17330,B-2,1768.844,167/1000,48,162.2
17331,B-1,1768.844,167/1000,48,162.2
17332,D2,1768.844,167/1000,48,162.2
17333,F2,1768.844,167/1000,48,162.2
17334,D3,1769.01,167/1000,49,162.2
17335,D2,1769.01,167/1000,49,162.2
17336,F3,1769.177,167/1000,51,162.2
17337,F2,1769.177,167/1000,51,162.2
17338,B-3,1769.344,167/1000,54,162.2
17339,B-2,1769.344,167/1000,54,162.2
17340,D4,1769.51,167/1000,56,162.2
17341,D3,1769.51,167/1000,56,162.2
17342,B-4,1769.625,1.0,94,162.2
17343,E-4,1769.625,1.0,94,162.2
17344,F4,1769.677,167/1000,58,162.2
17345,F3,1769.677,167/1000,58,162.2
17346,B-4,1769.844,167/1000,62,162.2
17347,B-3,1769.844,167/1000,62,162.2
17348,F4,1770.01,167/1000,60,162.2
17349,F3,1770.01,167/1000,60,162.2
17350,D4,1770.177,167/1000,58,162.2
17351,D3,1770.177,167/1000,58,162.2
17352,B-3,1770.344,167/1000,56,162.2
17353,B-2,1770.344,167/1000,56,162.2
17354,F3,1770.51,167/1000,55,162.2
17355,F2,1770.51,167/1000,55,162.2
17356,E-4,1770.625,1.0,89,162.2
17357,B-4,1770.625,1.0,89,162.2
17358,D3,1770.677,167/1000,52,162.2
17359,D2,1770.677,167/1000,52,162.2
17360,B-2,1770.844,0.25,50,162.2
17361,B-1,1770.844,0.25,50,162.2
17362,D2,1770.844,0.25,50,162.2
17363,F2,1770.844,0.25,50,162.2
17364,F3,1771.344,0.25,52,162.2
17365,F2,1771.344,0.25,52,162.2
17366,A2,1771.344,0.25,52,162.2
17367,C3,1771.344,0.25,52,162.2
17368,D4,1771.625,1.0,90,162.2
17369,F4,1771.625,1.0,90,162.2
17370,B-4,1771.625,1.0,90,162.2
17371,B-3,1771.844,0.25,54,162.2
17372,B-2,1771.844,0.25,54,162.2
17373,D3,1771.844,0.25,54,162.2
17374,F3,1771.844,0.25,54,162.2
17375,F3,1772.344,0.25,56,162.2
17376,F2,1772.344,0.25,56,162.2
17377,A2,1772.344,0.25,56,162.2
17378,C3,1772.344,0.25,56,162.2
17379,E-4,1772.625,1.0,86,162.2
17380,B-4,1772.625,1.0,86,162.2
17381,F#4,1772.625,1.0,86,162.2
17382,B-2,1772.844,0.25,58,162.2
17383,B-1,1772.844,0.25,58,162.2
17384,D2,1772.844,0.25,58,162.2
17385,F2,1772.844,0.25,58,162.2
17386,F3,1773.344,0.25,60,162.2
17387,C3,1773.344,0.25,60,162.2
17388,A2,1773.344,0.25,60,162.2
17389,F2,1773.344,0.25,60,162.2
17390,B-4,1773.625,3/20,50,162.2
17391,F4,1773.625,3/20,50,162.2
17392,B-3,1773.625,3/20,50,162.2
17393,D4,1773.625,3/20,50,162.2
17394,B-4,1773.792,3/20,42,162.2
17395,B-3,1773.792,3/20,42,162.2
17396,D4,1773.792,3/20,42,162.2
17397,F4,1773.792,3/20,42,162.2
17398,B-3,1773.844,0.25,61,162.2
17399,F3,1773.844,0.25,61,162.2
17400,D3,1773.844,0.25,61,162.2
17401,B-2,1773.844,0.25,61,162.2
17402,B-4,1773.958,3/20,42,162.2
17403,B-3,1773.958,3/20,42,162.2
17404,D4,1773.958,3/20,42,162.2
17405,F4,1773.958,3/20,42,162.2
17406,B-4,1774.125,3/40,44,162.2
17407,F4,1774.125,3/40,44,162.2
17408,B-3,1774.125,3/40,44,162.2
17409,D4,1774.125,3/40,44,162.2
17410,B-4,1774.292,3/40,45,162.2
17411,B-3,1774.292,3/40,45,162.2
17412,D4,1774.292,3/40,45,162.2
17413,F4,1774.292,3/40,45,162.2
17414,F3,1774.344,0.25,64,162.2
17415,C3,1774.344,0.25,64,162.2
17416,A2,1774.344,0.25,64,162.2
17417,F2,1774.344,0.25,64,162.2
17418,B-4,1774.458,3/40,46,162.2
17419,B-3,1774.458,3/40,46,162.2
17420,D4,1774.458,3/40,46,162.2
17421,F4,1774.458,3/40,46,162.2
17422,B-4,1774.625,3/40,47,162.2
17423,F4,1774.625,3/40,47,162.2
17424,B-3,1774.625,3/40,47,162.2
17425,D4,1774.625,3/40,47,162.2
17426,B-4,1774.792,3/40,48,162.2
17427,B-3,1774.792,3/40,48,162.2
17428,D4,1774.792,3/40,48,162.2
17429,F4,1774.792,3/40,48,162.2
17430,B-2,1774.844,0.5,66,162.2
17431,F2,1774.844,0.5,66,162.2
17432,D2,1774.844,0.5,66,162.2
17433,B-1,1774.844,0.5,66,162.2
17434,B-4,1774.958,3/40,50,162.2
17435,B-3,1774.958,3/40,50,162.2
17436,D4,1774.958,3/40,50,162.2
17437,F4,1774.958,3/40,50,162.2
17438,B-4,1775.125,3/40,50,162.2
17439,F4,1775.125,3/40,50,162.2
17440,B-3,1775.125,3/40,50,162.2
17441,D4,1775.125,3/40,50,162.2
17442,B-4,1775.292,3/40,52,162.2
17443,B-3,1775.292,3/40,52,162.2
17444,D4,1775.292,3/40,52,162.2
17445,F4,1775.292,3/40,52,162.2
17446,B-4,1775.458,3/40,52,162.2
17447,B-3,1775.458,3/40,52,162.2
17448,D4,1775.458,3/40,52,162.2
17449,F4,1775.458,3/40,52,162.2
17450,B-4,1775.625,167/1000,71,162.2
17451,B-3,1775.625,167/1000,71,162.2
17452,D4,1775.625,167/1000,71,162.2
17453,F4,1775.625,167/1000,71,162.2
17454,D5,1775.792,167/1000,72,162.2
17455,D4,1775.792,167/1000,72,162.2
17456,D4,1775.844,0.5,70,162.2
17457,B-3,1775.844,0.5,70,162.2
17458,F3,1775.844,0.5,70,162.2
17459,B-2,1775.844,0.5,70,162.2
17460,F5,1775.958,167/1000,74,162.2
17461,F4,1775.958,167/1000,74,162.2
17462,B-5,1776.125,167/1000,78,162.2
17463,B-4,1776.125,167/1000,78,162.2
17464,D6,1776.292,167/1000,82,162.2
17465,D5,1776.292,167/1000,82,162.2
17466,F6,1776.458,167/1000,85,162.2
17467,F5,1776.458,167/1000,85,162.2
17468,B-6,1776.625,167/1000,89,162.2
17469,B-5,1776.625,167/1000,89,162.2
17470,F6,1776.792,167/1000,87,162.2
17471,F5,1776.792,167/1000,87,162.2
17472,B-1,1776.844,0.5,75,162.2
17473,B-2,1776.844,0.5,75,162.2
17474,F2,1776.844,0.5,75,162.2
17475,D6,1776.958,167/1000,84,162.2
17476,D5,1776.958,167/1000,84,162.2
17477,B-5,1777.125,167/1000,82,162.2
17478,B-4,1777.125,167/1000,82,162.2
17479,F5,1777.292,167/1000,80,162.2
17480,F4,1777.292,167/1000,80,162.2
17481,D5,1777.458,167/1000,76,162.2
17482,D4,1777.458,167/1000,76,162.2
17483,B-4,1777.625,0.25,75,162.2
17484,B-3,1777.625,0.25,75,162.2
17485,D4,1777.625,0.25,75,162.2
17486,F4,1777.625,0.25,75,162.2
17487,C5,1778.125,0.25,76,162.2
17488,C4,1778.125,0.25,76,162.2
17489,F4,1778.125,0.25,76,162.2
17490,A4,1778.125,0.25,76,162.2
17491,D5,1778.625,0.25,78,162.2
17492,D4,1778.625,0.25,78,162.2
17493,F4,1778.625,0.25,78,162.2
17494,B-4,1778.625,0.25,78,162.2
17495,F5,1779.125,0.25,82,162.2
17496,F4,1779.125,0.25,82,162.2
17497,A4,1779.125,0.25,82,162.2
17498,C5,1779.125,0.25,82,162.2
17499,B-5,1779.625,0.25,84,162.2
17500,B-4,1779.625,0.25,84,162.2
17501,D5,1779.625,0.25,84,162.2
17502,F5,1779.625,0.25,84,162.2
17503,C6,1780.125,0.25,88,162.2
17504,A5,1780.125,0.25,88,162.2
17505,F5,1780.125,0.25,88,162.2
17506,C5,1780.125,0.25,88,162.2
17507,D6,1780.625,0.25,89,162.2
17508,B-5,1780.625,0.25,89,162.2
17509,F5,1780.625,0.25,89,162.2
17510,D5,1780.625,0.25,89,162.2
17511,F6,1781.125,0.25,92,162.2
17512,C6,1781.125,0.25,92,162.2
17513,A5,1781.125,0.25,92,162.2
17514,F5,1781.125,0.25,92,162.2
17515,D6,1781.625,0.5,95,162.2
17516,B-5,1781.625,0.5,95,162.2
17517,F5,1781.625,0.5,95,162.2
17518,D5,1781.625,0.5,95,162.2
17519,B-6,1782.625,0.5,102,162.2
17520,F6,1782.625,0.5,102,162.2
17521,D6,1782.625,0.5,102,162.2
17522,B-5,1782.625,0.5,102,162.2
17523,B-3,1783.625,0.5,102,162.2
17524,D3,1783.625,0.5,102,162.2
17525,F3,1783.625,0.5,102,162.2
