,note_name,start_time,duration,velocity,tempo
0,C#3,3.917,0.062,70,136.0
1,C#4,3.917,0.062,70,136.0
2,C#3,4.0,0.875,77,136.0
3,C#4,4.0,0.875,77,136.0
4,F#3,4.917,0.062,72,136.0
5,F#4,4.917,0.062,72,136.0
6,F#4,5.0,0.875,81,136.0
7,F#3,5.0,0.875,81,136.0
8,E3,5.917,0.062,68,136.0
9,E4,5.917,0.062,68,136.0
10,E3,6.0,0.375,75,136.0
11,E4,6.0,0.375,75,136.0
12,E-3,6.417,0.062,65,136.0
13,E-4,6.417,0.062,65,136.0
14,E-3,6.5,0.375,75,136.0
15,E-4,6.5,0.375,75,136.0
16,C#3,6.917,0.062,70,136.0
17,C#4,6.917,0.062,70,136.0
18,C#3,7.0,0.375,76,136.0
19,C#4,7.0,0.375,76,136.0
20,C3,7.417,0.062,68,136.0
21,C4,7.417,0.062,68,136.0
22,C3,7.5,0.375,75,136.0
23,C4,7.5,0.375,75,136.0
24,C#3,7.917,0.062,68,136.0
25,C#4,7.917,0.062,68,136.0
26,C#3,8.0,0.25,76,136.0
27,C#4,8.0,0.25,76,136.0
28,B-2,8.5,83/1000,44,136.0
29,G1,8.5,83/1000,40,136.0
30,C#3,8.583,83/1000,38,136.0
31,E2,8.583,83/1000,29,136.0
32,B-2,8.667,83/1000,45,136.0
33,G1,8.667,83/1000,40,136.0
34,C#3,8.75,83/1000,39,136.0
35,E2,8.75,83/1000,31,136.0
36,B-2,8.833,0.125,46,136.0
37,G1,8.833,83/1000,39,136.0
38,C#3,8.917,83/1000,42,136.0
39,E2,8.917,83/1000,30,136.0
40,B-2,9.0,83/1000,47,136.0
41,G1,9.0,83/1000,39,136.0
42,C#3,9.083,83/1000,42,136.0
43,E2,9.083,83/1000,34,136.0
44,B-2,9.167,83/1000,48,136.0
45,G1,9.167,83/1000,41,136.0
46,C#3,9.25,83/1000,44,136.0
47,E2,9.25,83/1000,37,136.0
48,B-2,9.333,0.125,50,136.0
49,G1,9.333,83/1000,43,136.0
50,C#3,9.417,83/1000,45,136.0
51,E2,9.417,83/1000,38,136.0
52,B-2,9.5,83/1000,51,136.0
53,G1,9.5,83/1000,44,136.0
54,C#3,9.583,83/1000,46,136.0
55,E2,9.583,83/1000,41,136.0
56,B-2,9.667,83/1000,52,136.0
57,G1,9.667,83/1000,46,136.0
58,C#3,9.75,83/1000,47,136.0
59,E2,9.75,83/1000,42,136.0
60,B-2,9.833,0.125,53,136.0
61,G1,9.833,83/1000,48,136.0
62,C#3,9.917,83/1000,48,136.0
63,E2,9.917,83/1000,43,136.0
64,B-2,10.0,83/1000,55,136.0
65,G1,10.0,83/1000,49,136.0
66,C#3,10.083,83/1000,49,136.0
67,E2,10.083,83/1000,45,136.0
68,B-2,10.167,83/1000,56,136.0
69,G1,10.167,83/1000,51,136.0
70,C#3,10.25,83/1000,50,136.0
71,E2,10.25,83/1000,45,136.0
72,B-2,10.333,0.125,57,136.0
73,G1,10.333,83/1000,53,136.0
74,C#3,10.417,83/1000,51,136.0
75,E2,10.417,83/1000,47,136.0
76,B-2,10.5,83/1000,58,136.0
77,G1,10.5,83/1000,54,136.0
78,C#3,10.583,83/1000,55,136.0
79,E2,10.583,83/1000,49,136.0
80,B-2,10.667,83/1000,60,136.0
81,G1,10.667,83/1000,56,136.0
82,C#3,10.75,83/1000,53,136.0
83,E2,10.75,83/1000,52,136.0
84,B-2,10.833,0.125,61,136.0
85,G1,10.833,83/1000,57,136.0
86,C#3,10.917,83/1000,54,136.0
87,E2,10.917,83/1000,58,136.0
88,B-2,11.0,83/1000,62,136.0
89,G1,11.0,83/1000,59,136.0
90,C#3,11.083,83/1000,58,136.0
91,E2,11.083,83/1000,60,136.0
92,B-2,11.167,83/1000,63,136.0
93,G1,11.167,83/1000,61,136.0
94,C#3,11.25,83/1000,59,136.0
95,E2,11.25,83/1000,62,136.0
96,B-2,11.333,0.125,67,136.0
97,G1,11.333,83/1000,62,136.0
98,C#3,11.417,83/1000,70,136.0
99,E2,11.417,83/1000,63,136.0
100,B-2,11.5,83/1000,73,136.0
101,G1,11.5,83/1000,64,136.0
102,C#3,11.583,83/1000,76,136.0
103,E2,11.583,83/1000,65,136.0
104,B-2,11.667,83/1000,79,136.0
105,G1,11.667,83/1000,67,136.0
106,C#3,11.75,83/1000,82,136.0
107,E2,11.75,83/1000,68,136.0
108,B-2,11.833,0.125,85,136.0
109,G1,11.833,83/1000,69,136.0
110,C#3,11.917,83/1000,88,136.0
111,E2,11.917,83/1000,70,136.0
112,A2,12.042,83/1000,89,136.0
113,C3,12.042,83/1000,89,136.0
114,F#1,12.042,83/1000,70,136.0
115,E-2,12.042,83/1000,70,136.0
116,B-2,12.125,0.25,95,136.0
117,C#3,12.125,0.25,95,136.0
118,G1,12.125,0.25,80,136.0
119,E2,12.125,0.25,80,136.0
120,G#4,15.917,0.062,70,136.0
121,G#3,15.917,0.062,70,136.0
122,G#3,16.0,0.875,77,136.0
123,G#4,16.0,0.875,77,136.0
124,C#4,16.917,0.062,68,136.0
125,C#5,16.917,0.062,68,136.0
126,C#4,17.0,0.875,76,136.0
127,C#5,17.0,0.875,76,136.0
128,B3,17.917,0.062,68,136.0
129,B4,17.917,0.062,68,136.0
130,B3,18.0,0.375,75,136.0
131,B4,18.0,0.375,75,136.0
132,B-3,18.417,0.062,70,136.0
133,B-4,18.417,0.062,70,136.0
134,B-3,18.5,0.375,75,136.0
135,B-4,18.5,0.375,75,136.0
136,G#3,18.917,0.062,70,136.0
137,G#4,18.917,0.062,70,136.0
138,G#3,19.0,0.375,76,136.0
139,G#4,19.0,0.375,76,136.0
140,G4,19.417,0.062,68,136.0
141,G3,19.417,0.062,68,136.0
142,G3,19.5,0.375,75,136.0
143,G4,19.5,0.375,75,136.0
144,G#3,19.917,0.062,68,136.0
145,G#4,19.917,0.062,68,136.0
146,G#3,20.0,0.25,76,136.0
147,G#4,20.0,0.25,76,136.0
148,F1,20.5,83/1000,40,136.0
149,D3,20.5,83/1000,44,136.0
150,B2,20.5,83/1000,44,136.0
151,G#3,20.583,83/1000,38,136.0
152,D2,20.583,83/1000,29,136.0
153,F1,20.667,83/1000,40,136.0
154,D3,20.667,83/1000,45,136.0
155,B2,20.667,83/1000,45,136.0
156,G#3,20.75,83/1000,39,136.0
157,D2,20.75,83/1000,31,136.0
158,F1,20.833,83/1000,39,136.0
159,D3,20.833,0.125,46,136.0
160,B2,20.833,0.125,46,136.0
161,G#3,20.917,83/1000,42,136.0
162,D2,20.917,83/1000,30,136.0
163,F1,21.0,83/1000,39,136.0
164,D3,21.0,83/1000,47,136.0
165,B2,21.0,83/1000,47,136.0
166,G#3,21.083,83/1000,42,136.0
167,D2,21.083,83/1000,34,136.0
168,F1,21.167,83/1000,41,136.0
169,D3,21.167,83/1000,48,136.0
170,B2,21.167,83/1000,48,136.0
171,G#3,21.25,83/1000,44,136.0
172,D2,21.25,83/1000,37,136.0
173,F1,21.333,83/1000,43,136.0
174,D3,21.333,0.125,50,136.0
175,B2,21.333,0.125,50,136.0
176,G#3,21.417,83/1000,45,136.0
177,D2,21.417,83/1000,38,136.0
178,F1,21.5,83/1000,44,136.0
179,D3,21.5,83/1000,51,136.0
180,B2,21.5,83/1000,51,136.0
181,G#3,21.583,83/1000,46,136.0
182,D2,21.583,83/1000,41,136.0
183,F1,21.667,83/1000,46,136.0
184,D3,21.667,83/1000,52,136.0
185,B2,21.667,83/1000,52,136.0
186,G#3,21.75,83/1000,47,136.0
187,D2,21.75,83/1000,42,136.0
188,F1,21.833,83/1000,48,136.0
189,D3,21.833,0.125,53,136.0
190,B2,21.833,0.125,53,136.0
191,G#3,21.917,83/1000,48,136.0
192,D2,21.917,83/1000,43,136.0
193,F1,22.0,83/1000,49,136.0
194,D3,22.0,83/1000,55,136.0
195,B2,22.0,83/1000,55,136.0
196,G#3,22.083,83/1000,49,136.0
197,D2,22.083,83/1000,45,136.0
198,F1,22.167,83/1000,51,136.0
199,D3,22.167,83/1000,56,136.0
200,B2,22.167,83/1000,56,136.0
201,G#3,22.25,83/1000,50,136.0
202,D2,22.25,83/1000,45,136.0
203,F1,22.333,83/1000,53,136.0
204,D3,22.333,0.125,57,136.0
205,B2,22.333,0.125,57,136.0
206,G#3,22.417,83/1000,51,136.0
207,D2,22.417,83/1000,47,136.0
208,F1,22.5,83/1000,54,136.0
209,D3,22.5,83/1000,58,136.0
210,B2,22.5,83/1000,58,136.0
211,G#3,22.583,83/1000,55,136.0
212,D2,22.583,83/1000,49,136.0
213,F1,22.667,83/1000,56,136.0
214,D3,22.667,83/1000,60,136.0
215,B2,22.667,83/1000,60,136.0
216,G#3,22.75,83/1000,53,136.0
217,D2,22.75,83/1000,52,136.0
218,F1,22.833,83/1000,57,136.0
219,D3,22.833,0.125,61,136.0
220,B2,22.833,0.125,61,136.0
221,G#3,22.917,83/1000,54,136.0
222,D2,22.917,83/1000,58,136.0
223,F1,23.0,83/1000,59,136.0
224,D3,23.0,83/1000,62,136.0
225,B2,23.0,83/1000,62,136.0
226,G#3,23.083,83/1000,58,136.0
227,D2,23.083,83/1000,60,136.0
228,F1,23.167,83/1000,61,136.0
229,D3,23.167,83/1000,63,136.0
230,B2,23.167,83/1000,63,136.0
231,G#3,23.25,83/1000,59,136.0
232,D2,23.25,83/1000,63,136.0
233,F1,23.333,83/1000,64,136.0
234,D3,23.333,0.125,67,136.0
235,B2,23.333,0.125,67,136.0
236,G#3,23.417,83/1000,70,136.0
237,D2,23.417,83/1000,65,136.0
238,F1,23.5,83/1000,66,136.0
239,D3,23.5,83/1000,73,136.0
240,B2,23.5,83/1000,73,136.0
241,G#3,23.583,83/1000,77,136.0
242,D2,23.583,83/1000,67,136.0
243,F1,23.667,83/1000,68,136.0
244,D3,23.667,83/1000,80,136.0
245,B2,23.667,83/1000,80,136.0
246,G#3,23.75,83/1000,83,136.0
247,D2,23.75,83/1000,69,136.0
248,F1,23.833,83/1000,70,136.0
249,D3,23.833,0.125,86,136.0
250,B2,23.833,0.125,86,136.0
251,G#3,23.917,83/1000,89,136.0
252,D2,23.917,83/1000,71,136.0
253,C#3,24.0,83/1000,83,136.0
254,G3,24.0,83/1000,83,136.0
255,B-2,24.0,83/1000,83,136.0
256,C#2,24.0,83/1000,68,136.0
257,E1,24.0,83/1000,68,136.0
258,B2,24.125,0.25,89,136.0
259,D3,24.125,0.25,89,136.0
260,G#3,24.125,0.25,89,136.0
261,F1,24.125,0.25,78,136.0
262,D2,24.125,0.25,78,136.0
263,G#3,27.875,0.125,73,136.0
264,G#3,28.0,1.75,73,136.0
265,E2,28.781,0.688,42,136.0
266,B2,28.781,0.688,42,136.0
267,D3,28.844,0.625,49,136.0
268,G#3,28.844,0.625,49,136.0
269,D4,28.906,0.562,58,136.0
270,G#4,28.906,0.562,58,136.0
271,B4,28.969,0.5,64,136.0
272,E5,28.969,0.5,64,136.0
273,A3,29.75,0.125,73,136.0
274,B3,29.875,0.125,73,136.0
275,E3,30.0,1.0,73,136.0
276,E2,30.781,0.688,42,136.0
277,B2,30.781,0.688,42,136.0
278,D3,30.844,0.625,49,136.0
279,G#3,30.844,0.625,49,136.0
280,D4,30.906,0.562,58,136.0
281,G#4,30.906,0.562,58,136.0
282,B4,30.969,0.5,64,136.0
283,E5,30.969,0.5,64,136.0
284,E3,31.75,0.25,73,136.0
285,F#3,32.0,1.375,73,136.0
286,E2,32.781,0.688,42,136.0
287,B2,32.781,0.688,42,136.0
288,D3,32.844,0.625,49,136.0
289,F#3,32.844,0.625,49,136.0
290,D4,32.906,0.562,58,136.0
291,F#4,32.906,0.562,58,136.0
292,A4,32.969,0.5,64,136.0
293,E5,32.969,0.5,64,136.0
294,A3,33.375,0.125,73,136.0
295,G#3,33.5,0.125,73,136.0
296,F#3,33.625,0.125,73,136.0
297,G#3,33.75,0.125,73,136.0
298,A3,33.875,0.125,73,136.0
299,G#3,34.0,1.0,73,136.0
300,E2,34.781,0.688,42,136.0
301,B2,34.781,0.688,42,136.0
302,D3,34.844,0.625,49,136.0
303,G#3,34.844,0.625,49,136.0
304,D4,34.906,0.562,58,136.0
305,G#4,34.906,0.562,58,136.0
306,B4,34.969,0.5,64,136.0
307,E5,34.969,0.5,64,136.0
308,E3,35.75,0.25,73,136.0
309,C#4,36.0,1.75,73,136.0
310,E2,36.781,0.688,45,136.0
311,C#3,36.781,0.688,45,136.0
312,E3,36.844,0.625,52,136.0
313,A3,36.844,0.625,52,136.0
314,E4,36.906,0.562,62,136.0
315,A4,36.906,0.562,62,136.0
316,C#5,36.969,0.5,68,136.0
317,A5,36.969,0.5,68,136.0
318,D4,37.75,0.125,73,136.0
319,E4,37.875,0.125,73,136.0
320,A3,38.0,1.0,73,136.0
321,E2,38.781,0.688,45,136.0
322,C#3,38.781,0.688,45,136.0
323,E3,38.844,0.625,52,136.0
324,A3,38.844,0.625,52,136.0
325,E4,38.906,0.562,62,136.0
326,A4,38.906,0.562,62,136.0
327,C#5,38.969,0.5,68,136.0
328,A5,38.969,0.5,68,136.0
329,A3,39.75,0.25,75,136.0
330,C4,40.0,1.375,77,136.0
331,E2,40.781,0.688,45,136.0
332,C3,40.781,0.688,45,136.0
333,E-3,40.844,0.625,52,136.0
334,A3,40.844,0.625,52,136.0
335,F#4,40.906,0.562,62,136.0
336,C5,40.906,0.562,62,136.0
337,E-5,40.969,0.5,68,136.0
338,A5,40.969,0.5,68,136.0
339,E-4,41.375,0.125,73,136.0
340,C#4,41.5,0.125,73,136.0
341,C4,41.625,0.125,73,136.0
342,C#4,41.75,0.125,73,136.0
343,E-4,41.875,0.125,73,136.0
344,C#4,42.0,1.0,73,136.0
345,E2,42.781,0.688,45,136.0
346,C#3,42.781,0.688,45,136.0
347,E3,42.844,0.625,52,136.0
348,A3,42.844,0.625,52,136.0
349,E4,42.906,0.562,62,136.0
350,A4,42.906,0.562,62,136.0
351,C#5,42.969,0.5,68,136.0
352,A5,42.969,0.5,68,136.0
353,C#4,43.688,0.125,69,136.0
354,E-2,43.812,0.188,48,136.0
355,C#3,43.812,0.188,48,136.0
356,F#3,43.875,0.125,51,136.0
357,A3,43.906,0.094,61,136.0
358,C#4,43.906,0.094,61,136.0
359,F#4,43.969,0.031,64,136.0
360,A4,44.0,1.5,77,136.0
361,F#4,44.0,2.0,64,136.0
362,F#3,44.0,4.0,51,136.0
363,A3,44.0,199/100,61,136.0
364,C#4,44.0,199/100,61,136.0
365,E-2,44.0,3.969,48,136.0
366,C#3,44.0,3.969,48,136.0
367,B4,45.5,0.25,69,136.0
368,C#5,45.75,0.25,69,136.0
369,C#5,46.0,0.25,73,136.0
370,F#4,46.25,0.75,68,136.0
371,F#4,47.875,83/1000,63,136.0
372,F#4,48.0,1.5,78,136.0
373,G#4,49.5,73/250,65,136.0
374,A4,49.75,73/250,65,136.0
375,C#4,50.0,0.75,70,136.0
376,E-4,50.75,167/1000,64,136.0
377,E4,50.875,167/1000,64,136.0
378,A3,51.0,0.75,70,136.0
379,B3,51.75,167/1000,63,136.0
380,C#4,51.875,167/1000,63,136.0
381,F#3,52.0,0.75,70,136.0
382,G#3,52.75,167/1000,65,136.0
383,A3,52.875,167/1000,66,136.0
384,C#3,53.0,0.75,70,136.0
385,E-3,53.75,167/1000,63,136.0
386,E3,53.875,0.125,63,136.0
387,A2,54.0,0.75,70,136.0
388,E3,54.0,21/500,63,136.0
389,B2,54.75,167/1000,66,136.0
390,C#3,54.875,167/1000,66,136.0
391,F#2,55.0,0.75,70,136.0
392,G#2,55.75,167/1000,62,136.0
393,A2,55.875,167/1000,62,136.0
394,E-2,56.0,0.5,68,136.0
395,E2,56.5,0.125,55,136.0
396,E-2,56.625,0.125,49,136.0
397,E2,56.75,0.125,55,136.0
398,E-2,56.875,0.125,48,136.0
399,E2,57.0,0.125,55,136.0
400,E-2,57.125,0.125,50,136.0
401,E2,57.25,0.125,55,136.0
402,E-2,57.375,0.125,51,136.0
403,E2,57.5,0.125,55,136.0
404,E-2,57.625,0.125,50,136.0
405,E2,57.75,0.125,55,136.0
406,E-2,57.875,0.125,52,136.0
407,E2,58.0,0.125,55,136.0
408,E-2,58.125,0.125,50,136.0
409,E2,58.25,0.125,55,136.0
410,E-2,58.375,0.125,51,136.0
411,E2,58.5,0.125,55,136.0
412,E-2,58.625,0.125,50,136.0
413,E2,58.75,0.125,55,136.0
414,E-2,58.875,0.125,52,136.0
415,E2,59.0,0.125,55,136.0
416,E-2,59.125,0.125,50,136.0
417,E2,59.25,0.125,55,136.0
418,E-2,59.375,0.125,51,136.0
419,E2,59.5,0.125,55,136.0
420,E-2,59.625,0.125,50,136.0
421,E2,59.75,0.125,55,136.0
422,E-2,59.875,0.125,52,136.0
423,D2,60.0,3/20,55,136.0
424,E-2,60.125,3/20,52,136.0
425,E2,60.25,3/20,55,136.0
426,E-2,60.375,3/20,50,136.0
427,C#2,60.5,3/20,51,136.0
428,B1,60.625,3/20,53,136.0
429,A1,60.75,3/20,54,136.0
430,G#1,60.875,3/20,56,136.0
431,A1,61.0,3/20,57,136.0
432,F1,61.125,0.375,59,136.0
433,F#1,61.5,169/1000,51,136.0
434,G#1,61.64,169/1000,51,136.0
435,A1,61.781,167/1000,51,136.0
436,B1,61.921,167/1000,52,136.0
437,C#2,62.06,7/50,52,136.0
438,E-2,62.2,169/1000,54,136.0
439,E2,62.34,169/1000,54,136.0
440,F#2,62.481,167/1000,54,136.0
441,G#2,62.621,167/1000,55,136.0
442,A2,62.76,169/1000,55,136.0
443,B2,62.9,169/1000,56,136.0
444,C#3,63.04,169/1000,56,136.0
445,E-3,63.181,167/1000,57,136.0
446,E3,63.321,167/1000,57,136.0
447,C3,63.46,169/1000,64,136.0
448,E-3,63.6,169/1000,60,136.0
449,C#3,63.74,169/1000,65,136.0
450,B2,63.881,167/1000,67,136.0
451,A2,64.021,167/1000,72,136.0
452,G#2,64.16,169/1000,75,136.0
453,A2,64.3,169/1000,78,136.0
454,F2,64.44,167/1000,81,136.0
455,F#2,64.581,167/1000,84,136.0
456,G2,64.719,167/1000,87,136.0
457,G#2,64.86,133/1000,89,136.0
458,G#2,65.0,0.5,93,136.0
459,G#1,66.0,0.5,92,136.0
460,C#6,66.75,0.188,69,136.0
461,E6,66.75,0.188,69,136.0
462,E5,66.75,0.188,69,136.0
463,E4,66.75,0.188,47,136.0
464,C#5,66.75,0.188,47,136.0
465,C#4,66.75,0.188,47,136.0
466,E6,67.0,2.75,79,136.0
467,C#6,67.0,2.75,79,136.0
468,E5,67.0,2.75,79,136.0
469,C#5,67.0,2.75,52,136.0
470,C#4,67.0,2.75,52,136.0
471,E4,67.0,2.75,52,136.0
472,E-6,69.75,0.188,69,136.0
473,B5,69.75,0.188,69,136.0
474,E-5,69.75,0.188,69,136.0
475,B4,69.75,0.188,45,136.0
476,B3,69.75,0.188,45,136.0
477,E-4,69.75,0.188,45,136.0
478,E-6,70.0,0.75,79,136.0
479,B5,70.0,0.75,79,136.0
480,E-5,70.0,0.75,79,136.0
481,B4,70.0,0.75,52,136.0
482,B3,70.0,0.75,52,136.0
483,E-4,70.0,0.75,52,136.0
484,C#6,70.75,0.188,69,136.0
485,A5,70.75,0.188,69,136.0
486,C#5,70.75,0.188,69,136.0
487,A4,70.75,0.188,45,136.0
488,A3,70.75,0.188,45,136.0
489,C#4,70.75,0.188,45,136.0
490,A5,71.0,0.75,76,136.0
491,C#6,71.0,0.75,76,136.0
492,C#5,71.0,0.75,76,136.0
493,A4,71.0,0.75,50,136.0
494,A3,71.0,0.75,50,136.0
495,C#4,71.0,0.75,50,136.0
496,A5,71.75,0.188,69,136.0
497,F#5,71.75,0.188,69,136.0
498,A4,71.75,0.188,69,136.0
499,F#4,71.75,0.188,45,136.0
500,F#3,71.75,0.188,45,136.0
501,A3,71.75,0.188,45,136.0
502,A5,72.0,0.75,76,136.0
503,F#5,72.0,0.75,76,136.0
504,A4,72.0,0.75,76,136.0
505,F#4,72.0,0.75,50,136.0
506,F#3,72.0,0.75,50,136.0
507,A3,72.0,0.75,50,136.0
508,G#5,72.75,0.188,71,136.0
509,E5,72.75,0.188,71,136.0
510,G#4,72.75,0.188,71,136.0
511,E4,72.75,0.188,47,136.0
512,E3,72.75,0.188,47,136.0
513,G#3,72.75,0.188,47,136.0
514,G#5,73.0,0.75,79,136.0
515,E5,73.0,0.75,79,136.0
516,G#4,73.0,0.75,79,136.0
517,E4,73.0,0.75,52,136.0
518,E3,73.0,0.75,52,136.0
519,G#3,73.0,0.75,52,136.0
520,E5,73.75,0.188,69,136.0
521,C#5,73.75,0.188,69,136.0
522,E4,73.75,0.188,69,136.0
523,C#4,73.75,0.188,45,136.0
524,C#3,73.75,0.188,45,136.0
525,E3,73.75,0.188,45,136.0
526,C#5,74.0,0.75,76,136.0
527,E5,74.0,0.75,76,136.0
528,E4,74.0,0.75,76,136.0
529,C#4,74.0,0.75,50,136.0
530,C#3,74.0,0.75,50,136.0
531,E3,74.0,0.75,50,136.0
532,E-5,74.75,0.188,69,136.0
533,B4,74.75,0.188,69,136.0
534,E-4,74.75,0.188,69,136.0
535,B3,74.75,0.188,45,136.0
536,B2,74.75,0.188,45,136.0
537,E-3,74.75,0.188,45,136.0
538,E-5,75.0,0.75,77,136.0
539,B4,75.0,0.75,77,136.0
540,E-4,75.0,0.75,77,136.0
541,B3,75.0,0.75,50,136.0
542,B2,75.0,0.75,50,136.0
543,E-3,75.0,0.75,50,136.0
544,C#5,75.75,0.188,74,136.0
545,A4,75.75,0.188,74,136.0
546,C#4,75.75,0.188,74,136.0
547,A3,75.75,0.188,48,136.0
548,A2,75.75,0.188,48,136.0
549,C#3,75.75,0.188,48,136.0
550,C#5,76.0,0.75,78,136.0
551,A4,76.0,0.75,78,136.0
552,C#4,76.0,0.75,78,136.0
553,A3,76.0,0.75,51,136.0
554,A2,76.0,0.75,51,136.0
555,C#3,76.0,0.75,51,136.0
556,A4,76.75,0.188,76,136.0
557,F#4,76.75,0.188,76,136.0
558,A3,76.75,0.188,76,136.0
559,F#3,76.75,0.188,49,136.0
560,F#2,76.75,0.188,49,136.0
561,A2,76.75,0.188,49,136.0
562,A4,77.0,0.75,81,136.0
563,F#4,77.0,0.75,81,136.0
564,A3,77.0,0.75,81,136.0
565,F#3,77.0,0.75,53,136.0
566,F#2,77.0,0.75,53,136.0
567,A2,77.0,0.75,53,136.0
568,G#4,77.75,0.188,77,136.0
569,E4,77.75,0.188,77,136.0
570,G#3,77.75,0.188,77,136.0
571,E3,77.75,0.188,50,136.0
572,E2,77.75,0.188,50,136.0
573,G#2,77.75,0.188,50,136.0
574,G#4,78.0,0.75,82,136.0
575,E4,78.0,0.75,82,136.0
576,G#3,78.0,0.75,82,136.0
577,E3,78.0,0.75,53,136.0
578,E2,78.0,0.75,53,136.0
579,G#2,78.0,0.75,53,136.0
580,E4,78.75,0.188,79,136.0
581,C#4,78.75,0.188,79,136.0
582,E3,78.75,0.188,79,136.0
583,C#3,78.75,0.188,51,136.0
584,C#2,78.75,0.188,51,136.0
585,E2,78.75,0.188,51,136.0
586,E4,79.0,0.75,84,136.0
587,C#4,79.0,0.75,84,136.0
588,E3,79.0,0.75,84,136.0
589,C#3,79.0,0.75,54,136.0
590,C#2,79.0,0.75,54,136.0
591,E2,79.0,0.75,54,136.0
592,E-4,79.75,0.188,80,136.0
593,B3,79.75,0.188,80,136.0
594,E-3,79.75,0.188,80,136.0
595,B2,79.75,0.188,52,136.0
596,B1,79.75,0.188,52,136.0
597,E-2,79.75,0.188,52,136.0
598,E-4,80.0,0.75,86,136.0
599,B3,80.0,0.75,86,136.0
600,E-3,80.0,0.75,86,136.0
601,B2,80.0,0.75,56,136.0
602,B1,80.0,0.75,56,136.0
603,E-2,80.0,0.75,56,136.0
604,C#4,80.75,0.188,81,136.0
605,A3,80.75,0.188,81,136.0
606,C#3,80.75,0.188,81,136.0
607,A2,80.75,0.188,53,136.0
608,A1,80.75,0.188,53,136.0
609,E2,80.75,0.188,53,136.0
610,C#4,81.0,2.0,82,136.0
611,C#3,81.0,2.0,82,136.0
612,A3,81.0,2.0,82,136.0
613,A2,81.0,1.0,72,136.0
614,A1,81.0,1.0,72,136.0
615,E2,81.0,1.0,72,136.0
616,G2,82.0,1.0,74,136.0
617,G1,82.0,1.0,74,136.0
618,D4,83.0,2.0,76,136.0
619,D3,83.0,2.0,76,136.0
620,F3,83.0,2.0,76,136.0
621,A3,83.0,2.0,76,136.0
622,F2,83.0,1.0,78,136.0
623,F1,83.0,1.0,78,136.0
624,E2,84.0,1.0,78,136.0
625,E1,84.0,1.0,78,136.0
626,F#4,85.0,2.0,84,136.0
627,F#3,85.0,2.0,84,136.0
628,A3,85.0,2.0,84,136.0
629,D4,85.0,2.0,84,136.0
630,D2,85.0,1.0,76,136.0
631,D1,85.0,1.0,76,136.0
632,C#2,86.0,1.0,74,136.0
633,C#1,86.0,1.0,74,136.0
634,G#4,87.0,1.875,76,136.0
635,F#3,87.0,1.875,76,136.0
636,G#3,87.0,1.875,76,136.0
637,C4,87.0,1.875,76,136.0
638,E-4,87.0,1.875,76,136.0
639,C2,87.0,0.5,78,136.0
640,C1,87.0,0.5,78,136.0
641,A2,87.5,1.0,75,136.0
642,A1,87.5,1.0,75,136.0
643,G#2,88.5,0.25,73,136.0
644,G#1,88.5,0.25,73,136.0
645,C#4,88.917,0.062,65,136.0
646,C#4,89.0,0.875,65,136.0
647,G#3,89.0,0.875,65,136.0
648,E3,89.0,0.875,65,136.0
649,C#3,89.0,1.0,56,136.0
650,C#2,89.0,1.0,56,136.0
651,G#2,89.0,1.0,56,136.0
652,F#4,89.917,0.062,70,136.0
653,F#4,90.0,0.875,64,136.0
654,A3,90.0,0.875,64,136.0
655,F#3,90.0,0.875,64,136.0
656,E-3,90.0,1.0,55,136.0
657,C2,90.0,1.0,55,136.0
658,A2,90.0,1.0,55,136.0
659,E4,90.917,0.062,69,136.0
660,E4,91.0,0.375,63,136.0
661,G#3,91.0,0.375,63,136.0
662,E3,91.0,0.375,63,136.0
663,C#3,91.0,0.5,53,136.0
664,C#2,91.0,0.5,53,136.0
665,G#2,91.0,0.5,53,136.0
666,E-4,91.417,0.062,67,136.0
667,E-4,91.5,0.375,63,136.0
668,F#3,91.5,0.375,63,136.0
669,E-3,91.5,0.375,63,136.0
670,A2,91.5,0.5,47,136.0
671,F#1,91.5,0.5,47,136.0
672,F#2,91.5,0.5,47,136.0
673,C#4,91.917,0.062,68,136.0
674,C#4,92.0,0.375,64,136.0
675,E3,92.0,0.375,64,136.0
676,C#3,92.0,0.375,64,136.0
677,G#2,92.0,0.5,54,136.0
678,G#1,92.0,0.5,54,136.0
679,E2,92.0,0.5,54,136.0
680,C4,92.417,0.062,68,136.0
681,C4,92.5,0.375,63,136.0
682,E-3,92.5,0.375,63,136.0
683,C3,92.5,0.375,63,136.0
684,G#2,92.5,0.5,50,136.0
685,F#2,92.5,0.5,50,136.0
686,E-2,92.5,0.5,50,136.0
687,G#1,92.5,0.5,50,136.0
688,C#4,92.917,0.062,70,136.0
689,C#4,93.0,0.25,64,136.0
690,E3,93.0,0.25,64,136.0
691,C#3,93.0,0.25,64,136.0
692,C#2,93.0,0.25,54,136.0
693,E2,93.0,0.25,54,136.0
694,G#2,93.0,0.25,54,136.0
695,C#3,93.375,0.125,70,136.0
696,A2,93.5,1.5,66,136.0
697,E-3,93.5,0.125,66,136.0
698,F#1,93.5,0.25,54,136.0
699,C#2,93.5,0.25,54,136.0
700,F#2,93.5,0.25,54,136.0
701,C#3,93.625,0.125,61,136.0
702,E-3,93.75,0.125,66,136.0
703,C#3,93.875,0.125,61,136.0
704,E-3,94.0,0.125,66,136.0
705,C#3,94.125,0.125,60,136.0
706,E-3,94.25,0.125,66,136.0
707,C#3,94.375,0.125,61,136.0
708,E-3,94.5,0.125,66,136.0
709,C#3,94.625,0.125,61,136.0
710,C3,94.75,0.125,66,136.0
711,C#3,94.875,0.125,61,136.0
712,E3,95.0,167/1000,71,136.0
713,E-3,95.167,167/1000,65,136.0
714,C#3,95.333,167/1000,65,136.0
715,G#2,95.5,0.125,70,136.0
716,C#3,95.5,0.125,70,136.0
717,C#2,95.5,0.125,54,136.0
718,E2,95.5,0.125,54,136.0
719,G#4,96.917,83/1000,65,136.0
720,G#4,97.0,0.875,65,136.0
721,E-4,97.0,0.875,65,136.0
722,B3,97.0,0.875,65,136.0
723,G#3,97.0,1.0,56,136.0
724,G#2,97.0,1.0,56,136.0
725,E-3,97.0,1.0,56,136.0
726,C#5,97.917,0.062,70,136.0
727,C#5,98.0,0.875,64,136.0
728,E4,98.0,0.875,64,136.0
729,C#4,98.0,0.875,64,136.0
730,B-3,98.0,1.0,55,136.0
731,G2,98.0,1.0,55,136.0
732,E3,98.0,1.0,55,136.0
733,B4,98.917,83/1000,69,136.0
734,B4,99.0,0.375,63,136.0
735,E-4,99.0,0.375,63,136.0
736,B3,99.0,0.375,63,136.0
737,G#3,99.0,0.5,53,136.0
738,G#2,99.0,0.5,53,136.0
739,E-3,99.0,0.5,53,136.0
740,A4,99.417,0.062,67,136.0
741,A4,99.5,0.375,63,136.0
742,C#4,99.5,0.375,63,136.0
743,A3,99.5,0.375,63,136.0
744,E3,99.5,0.5,47,136.0
745,C#2,99.5,0.5,47,136.0
746,C#3,99.5,0.5,47,136.0
747,G#3,99.917,0.062,68,136.0
748,G#4,99.917,0.062,68,136.0
749,G#4,100.0,0.375,64,136.0
750,B3,100.0,0.375,64,136.0
751,G#3,100.0,0.375,64,136.0
752,E-3,100.0,0.5,54,136.0
753,E-2,100.0,0.5,54,136.0
754,B2,100.0,0.5,54,136.0
755,G4,100.417,0.062,68,136.0
756,G4,100.5,0.375,63,136.0
757,B-3,100.5,0.375,63,136.0
758,G3,100.5,0.375,63,136.0
759,E-3,100.5,0.5,50,136.0
760,C#3,100.5,0.5,50,136.0
761,B-2,100.5,0.5,50,136.0
762,E-2,100.5,0.5,50,136.0
763,G#4,100.917,0.062,70,136.0
764,G#4,101.0,0.25,64,136.0
765,B3,101.0,0.25,64,136.0
766,G#3,101.0,0.25,64,136.0
767,G#2,101.0,0.25,54,136.0
768,B2,101.0,0.25,54,136.0
769,E-3,101.0,0.25,54,136.0
770,G#3,101.375,0.125,63,136.0
771,E3,101.5,1.5,59,136.0
772,B-3,101.5,0.125,59,136.0
773,C#2,101.5,1.5,46,136.0
774,B-2,101.5,0.125,50,136.0
775,G#3,101.625,0.125,54,136.0
776,G#2,101.625,0.125,45,136.0
777,B-3,101.75,0.125,59,136.0
778,B-2,101.75,0.125,50,136.0
779,G#3,101.875,0.125,54,136.0
780,G#2,101.875,0.125,45,136.0
781,B-3,102.0,0.125,59,136.0
782,B-2,102.0,0.125,50,136.0
783,G#3,102.125,0.125,54,136.0
784,G#2,102.125,0.125,45,136.0
785,B-3,102.25,0.125,59,136.0
786,B-2,102.25,0.125,50,136.0
787,G#3,102.375,0.125,54,136.0
788,G#2,102.375,0.125,45,136.0
789,B-3,102.5,0.125,59,136.0
790,B-2,102.5,0.125,50,136.0
791,G#3,102.625,0.125,54,136.0
792,G#2,102.625,0.125,45,136.0
793,G3,102.75,0.125,59,136.0
794,G2,102.75,0.125,50,136.0
795,G#3,102.875,0.125,54,136.0
796,G#2,102.875,0.125,45,136.0
797,B3,103.0,167/1000,63,136.0
798,B2,103.0,167/1000,54,136.0
799,B-3,103.167,167/1000,58,136.0
800,B-2,103.167,167/1000,49,136.0
801,G#3,103.333,167/1000,58,136.0
802,G#2,103.333,167/1000,49,136.0
803,B2,103.5,0.125,56,136.0
804,E-3,103.5,0.125,56,136.0
805,G#3,103.5,0.125,56,136.0
806,G#1,103.5,0.25,42,136.0
807,E-2,103.5,0.25,42,136.0
808,G#2,103.5,0.25,42,136.0
809,G#4,104.75,0.125,52,136.0
810,E2,104.844,0.156,45,136.0
811,B2,104.844,0.156,45,136.0
812,G#3,104.906,0.094,48,136.0
813,B3,104.938,0.062,48,136.0
814,E4,104.969,0.031,50,136.0
815,G#4,105.0,1.5,55,136.0
816,B3,105.0,4.0,48,136.0
817,E4,105.0,3.75,50,136.0
818,G#3,105.0,4.0,48,136.0
819,E2,105.0,3.969,45,136.0
820,B2,105.0,3.969,45,136.0
821,A4,106.5,0.25,52,136.0
822,B4,106.75,26/125,52,136.0
823,B4,107.0,0.125,52,136.0
824,E4,107.125,1.875,56,136.0
825,E-4,108.75,26/125,56,136.0
826,E-4,109.0,0.25,56,136.0
827,E-3,109.0,2.0,42,136.0
828,B1,109.0,2.0,42,136.0
829,A3,109.125,1.875,47,136.0
830,F#4,109.125,1.375,54,136.0
831,E4,110.0,0.25,44,136.0
832,F#4,110.25,583/1000,43,136.0
833,G#4,110.5,167/1000,46,136.0
834,F#4,110.667,333/1000,44,136.0
835,E4,110.833,167/1000,44,136.0
836,G#3,111.0,1833/1000,42,136.0
837,E4,111.0,1833/1000,42,136.0
838,B2,111.0,1833/1000,36,136.0
839,E2,111.0,1833/1000,36,136.0
840,E3,112.875,14/125,52,136.0
841,G#4,112.875,14/125,39,136.0
842,G#3,112.875,14/125,39,136.0
843,E4,112.875,14/125,39,136.0
844,E3,113.0,1.5,44,136.0
845,G#4,113.0,1.5,42,136.0
846,G#3,113.0,1.5,42,136.0
847,E4,113.0,1.5,42,136.0
848,E2,113.0,2.0,38,136.0
849,B2,113.0,2.0,38,136.0
850,F#3,114.5,0.25,35,136.0
851,A4,114.5,0.25,47,136.0
852,F#4,114.5,0.25,47,136.0
853,A3,114.5,0.25,47,136.0
854,G#3,114.75,0.25,38,136.0
855,B4,114.75,0.25,49,136.0
856,B3,114.75,0.25,49,136.0
857,G#4,114.75,0.25,49,136.0
858,A3,115.0,667/1000,41,136.0
859,C#5,115.0,667/1000,52,136.0
860,C#4,115.0,667/1000,52,136.0
861,A4,115.0,667/1000,52,136.0
862,A2,115.0,2.0,38,136.0
863,E3,115.0,2.0,38,136.0
864,A3,115.667,333/1000,40,136.0
865,C#5,115.667,333/1000,48,136.0
866,C#4,115.667,333/1000,48,136.0
867,A4,115.667,333/1000,48,136.0
868,A3,116.0,267/1000,44,136.0
869,C#5,116.0,267/1000,51,136.0
870,C#4,116.0,267/1000,51,136.0
871,A4,116.0,267/1000,51,136.0
872,G#3,116.333,267/1000,43,136.0
873,B4,116.333,267/1000,49,136.0
874,B3,116.333,267/1000,49,136.0
875,G#4,116.333,267/1000,49,136.0
876,G3,116.667,267/1000,41,136.0
877,B-4,116.667,267/1000,47,136.0
878,B-3,116.667,267/1000,47,136.0
879,G4,116.667,267/1000,47,136.0
880,B4,117.0,1.0,51,136.0
881,B3,117.0,1.0,51,136.0
882,G#4,117.0,1.0,51,136.0
883,G#3,117.0,1.0,39,136.0
884,G#2,117.0,1.0,39,136.0
885,E3,117.0,1.0,39,136.0
886,E4,118.0,0.625,52,136.0
887,G#3,118.0,1.0,44,136.0
888,C#4,118.0,1.0,44,136.0
889,E3,118.0,1.0,35,136.0
890,C#2,118.0,1.0,35,136.0
891,E-4,118.375,0.125,44,136.0
892,E4,118.5,0.375,45,136.0
893,F#4,118.625,0.125,44,136.0
894,E4,118.75,0.25,46,136.0
895,E-4,118.875,0.125,48,136.0
896,E-4,119.0,0.75,52,136.0
897,A3,119.0,1.0,44,136.0
898,F#3,119.0,1.0,36,136.0
899,B1,119.0,1.0,36,136.0
900,E4,119.75,83/1000,49,136.0
901,G#4,119.833,167/1000,55,136.0
902,F#4,120.0,0.75,52,136.0
903,A3,120.0,1.0,44,136.0
904,E-3,120.0,1.0,34,136.0
905,B2,120.0,1.0,34,136.0
906,E4,120.75,26/125,52,136.0
907,E4,121.0,1.0,48,136.0
908,G#3,121.0,1.0,48,136.0
909,E3,121.0,1.0,38,136.0
910,E2,121.0,1.0,38,136.0
911,B2,121.0,1.0,38,136.0
912,E5,124.781,0.125,52,136.0
913,E4,124.906,0.094,48,136.0
914,G#4,124.938,0.062,49,136.0
915,C#5,124.938,0.062,49,136.0
916,E5,125.0,1.5,55,136.0
917,E4,125.0,0.406,48,136.0
918,C#2,125.0,0.5,48,136.0
919,G#4,125.0,1.969,49,136.0
920,C#5,125.0,1.969,49,136.0
921,E4,125.5,1.5,38,136.0
922,C#4,125.5,1.5,38,136.0
923,G#3,125.5,1.5,38,136.0
924,E3,125.5,1.5,38,136.0
925,F#5,126.5,0.25,52,136.0
926,G#5,126.75,26/125,52,136.0
927,G#5,127.0,0.125,52,136.0
928,C#2,127.0,0.5,48,136.0
929,C#5,127.125,1.625,56,136.0
930,G#4,127.5,1.5,38,136.0
931,E4,127.5,1.5,38,136.0
932,C#4,127.5,1.5,38,136.0
933,G#3,127.5,1.5,38,136.0
934,C5,128.75,0.25,56,136.0
935,C5,129.0,0.25,56,136.0
936,C4,129.031,0.5,47,136.0
937,F#4,129.062,1.906,47,136.0
938,G#4,129.062,1.906,47,136.0
939,E-5,129.125,151/125,54,136.0
940,G#1,129.125,0.375,48,136.0
941,G#2,129.125,0.375,48,136.0
942,F#3,129.5,1.5,38,136.0
943,G#3,129.5,1.5,38,136.0
944,C4,129.5,1.5,38,136.0
945,E-4,129.5,1.5,38,136.0
946,C#5,130.0,167/1000,46,136.0
947,E-5,130.167,417/1000,46,136.0
948,E5,130.333,167/1000,46,136.0
949,E-5,130.5,167/1000,46,136.0
950,E-5,130.604,99/250,46,136.0
951,C#5,130.667,167/1000,48,136.0
952,C5,130.833,167/1000,44,136.0
953,E4,131.0,0.5,39,136.0
954,G#4,131.031,1.438,42,136.0
955,C#5,131.031,1.438,42,136.0
956,C#2,131.062,0.438,48,136.0
957,C#3,131.062,0.438,48,136.0
958,E3,131.5,1.0,38,136.0
959,G#3,131.5,1.0,38,136.0
960,C#4,131.5,1.0,38,136.0
961,E4,131.5,1.0,38,136.0
962,F4,132.75,0.25,73,136.0
963,B3,132.75,0.25,73,136.0
964,C#4,132.75,0.25,73,136.0
965,G#3,132.75,0.25,56,136.0
966,C#3,132.75,0.25,56,136.0
967,F#4,133.0,1.5,81,136.0
968,A3,133.0,1.5,81,136.0
969,C#4,133.0,1.5,81,136.0
970,F#3,133.0,1.5,60,136.0
971,F#2,133.0,1.5,60,136.0
972,C#3,133.0,1.5,60,136.0
973,F#4,134.5,229/500,66,136.0
974,A5,134.5,229/500,72,136.0
975,A4,134.5,229/500,72,136.0
976,F#5,134.5,229/500,72,136.0
977,F#4,135.0,0.375,70,136.0
978,F#5,135.0,0.375,81,136.0
979,A5,135.0,0.375,81,136.0
980,A4,135.0,0.375,81,136.0
981,E4,135.375,0.094,67,136.0
982,G#5,135.375,0.094,71,136.0
983,G#4,135.375,0.094,71,136.0
984,E5,135.375,0.094,71,136.0
985,E4,135.5,0.375,70,136.0
986,G#5,135.5,0.375,76,136.0
987,G#4,135.5,0.375,76,136.0
988,E5,135.5,0.375,76,136.0
989,E-4,135.875,0.094,67,136.0
990,F#5,135.875,0.094,72,136.0
991,F#4,135.875,0.094,72,136.0
992,E-5,135.875,0.094,72,136.0
993,E-4,136.0,0.5,67,136.0
994,F#5,136.0,0.5,72,136.0
995,F#4,136.0,0.5,72,136.0
996,E-5,136.0,0.5,72,136.0
997,E-5,136.75,0.188,48,136.0
998,F#4,136.75,0.188,48,136.0
999,A4,136.75,0.188,48,136.0
1000,E-4,136.75,0.188,40,136.0
1001,F#3,136.75,0.188,40,136.0
1002,A3,136.75,0.188,40,136.0
1003,G#2,136.938,0.062,58,136.0
1004,C#4,137.0,1.0,52,136.0
1005,G#2,137.0,1.0,58,136.0
1006,E5,137.0,0.5,52,136.0
1007,E4,137.0,0.5,52,136.0
1008,G#4,137.0,0.5,52,136.0
1009,E-5,137.5,0.125,48,136.0
1010,E5,137.625,0.125,50,136.0
1011,F#5,137.75,0.125,51,136.0
1012,E5,137.875,0.125,50,136.0
1013,E-5,138.0,0.5,50,136.0
1014,G#4,138.0,0.5,50,136.0
1015,E4,138.0,0.5,46,136.0
1016,G#3,138.0,0.5,46,136.0
1017,C#5,138.75,0.25,48,136.0
1018,G#2,138.938,0.562,43,136.0
1019,F#4,139.0,1.0,45,136.0
1020,C4,139.0,0.5,51,136.0
1021,E-5,139.0,0.5,49,136.0
1022,G#4,139.0,0.5,49,136.0
1023,G#4,139.5,0.5,50,136.0
1024,G#5,140.0,0.75,48,136.0
1025,F#4,140.0,0.75,48,136.0
1026,C5,140.0,0.75,48,136.0
1027,E-4,140.0,0.5,40,136.0
1028,G#3,140.0,0.5,40,136.0
1029,C5,140.75,0.25,44,136.0
1030,C#5,141.0,0.5,46,136.0
1031,E4,141.0,0.5,46,136.0
1032,G#4,141.0,0.5,46,136.0
1033,C#4,141.0,1.0,46,136.0
1034,C#3,141.0,1.0,46,136.0
1035,G#3,141.0,1.0,46,136.0
1036,C5,141.5,167/1000,51,136.0
1037,C#5,141.667,167/1000,51,136.0
1038,E-5,141.833,167/1000,51,136.0
1039,C#5,142.0,0.75,55,136.0
1040,E-4,142.0,1.0,46,136.0
1041,G#4,142.0,1.0,46,136.0
1042,F#3,142.0,1.0,46,136.0
1043,G#2,142.0,1.0,46,136.0
1044,C5,142.75,0.25,51,136.0
1045,C#5,143.0,0.5,49,136.0
1046,C#4,143.0,0.5,49,136.0
1047,G#4,143.0,0.5,49,136.0
1048,E3,143.0,0.5,46,136.0
1049,C#2,143.0,0.5,46,136.0
1050,C#4,144.917,0.062,65,136.0
1051,C#3,145.0,0.125,61,136.0
1052,C#2,145.0,1.0,55,136.0
1053,C#4,145.0,0.875,65,136.0
1054,G#3,145.0,0.875,65,136.0
1055,E3,145.0,0.875,65,136.0
1056,C3,145.125,0.125,61,136.0
1057,B2,145.25,0.125,60,136.0
1058,B-2,145.375,0.125,59,136.0
1059,A2,145.5,0.125,58,136.0
1060,G#2,145.625,0.125,57,136.0
1061,G2,145.75,0.125,56,136.0
1062,G#2,145.875,0.125,55,136.0
1063,F#4,145.917,0.062,70,136.0
1064,A2,146.0,0.125,60,136.0
1065,C2,146.0,1.0,55,136.0
1066,F#4,146.0,0.875,64,136.0
1067,A3,146.0,0.875,64,136.0
1068,F#3,146.0,0.875,64,136.0
1069,G#2,146.125,0.125,53,136.0
1070,G2,146.25,0.125,53,136.0
1071,F#2,146.375,0.125,53,136.0
1072,F2,146.5,0.125,53,136.0
1073,E2,146.625,0.125,53,136.0
1074,E-2,146.75,0.125,53,136.0
1075,C2,146.875,0.125,53,136.0
1076,E4,146.917,0.062,69,136.0
1077,C#2,147.0,0.5,52,136.0
1078,E4,147.0,0.375,63,136.0
1079,G#3,147.0,0.375,63,136.0
1080,E3,147.0,0.375,63,136.0
1081,D2,147.125,0.125,52,136.0
1082,E-2,147.25,0.125,53,136.0
1083,E2,147.375,0.125,54,136.0
1084,D4,147.417,83/1000,69,136.0
1085,F2,147.5,0.125,54,136.0
1086,F#1,147.5,0.5,51,136.0
1087,F#3,147.5,0.375,65,136.0
1088,D4,147.5,0.375,65,136.0
1089,A3,147.5,0.375,65,136.0
1090,F#2,147.625,0.125,55,136.0
1091,F2,147.75,0.125,56,136.0
1092,F#2,147.875,0.125,56,136.0
1093,C#4,147.917,83/1000,72,136.0
1094,G#1,148.0,0.5,51,136.0
1095,G2,148.0,0.125,57,136.0
1096,C#4,148.0,0.375,68,136.0
1097,G#3,148.0,0.375,68,136.0
1098,E3,148.0,0.375,68,136.0
1099,G#2,148.125,0.125,58,136.0
1100,G2,148.25,0.125,59,136.0
1101,G#2,148.375,0.125,59,136.0
1102,C4,148.417,0.062,75,136.0
1103,A2,148.5,0.125,60,136.0
1104,C4,148.5,0.375,70,136.0
1105,F#3,148.5,0.375,70,136.0
1106,E-3,148.5,0.375,70,136.0
1107,G#2,148.625,0.125,61,136.0
1108,A2,148.75,0.125,61,136.0
1109,G#2,148.875,0.125,62,136.0
1110,C#4,148.917,0.062,80,136.0
1111,C#4,149.0,0.25,73,136.0
1112,E3,149.0,0.25,73,136.0
1113,C#3,149.0,0.25,73,136.0
1114,C#2,149.0,0.25,68,136.0
1115,G#2,149.0,0.25,68,136.0
1116,A2,149.5,1.5,66,136.0
1117,C#3,149.5,1/10,66,136.0
1118,F#1,149.5,0.25,52,136.0
1119,C#2,149.5,1/10,56,136.0
1120,E-3,149.6,1/10,61,136.0
1121,E-2,149.6,1/10,51,136.0
1122,C#3,149.7,1/10,66,136.0
1123,C#2,149.7,1/10,56,136.0
1124,E-3,149.8,1/10,61,136.0
1125,E-2,149.8,1/10,51,136.0
1126,C#3,149.9,1/10,61,136.0
1127,C#2,149.9,1/10,51,136.0
1128,C3,150.0,83/1000,66,136.0
1129,C2,150.0,83/1000,56,136.0
1130,C#3,150.083,83/1000,60,136.0
1131,C#2,150.083,83/1000,51,136.0
1132,E-3,150.169,83/1000,66,136.0
1133,E-2,150.169,83/1000,56,136.0
1134,E3,150.252,83/1000,61,136.0
1135,E2,150.252,83/1000,51,136.0
1136,F#3,150.335,83/1000,66,136.0
1137,F#2,150.335,83/1000,56,136.0
1138,G#3,150.419,83/1000,61,136.0
1139,G#2,150.419,83/1000,51,136.0
1140,A3,150.502,83/1000,66,136.0
1141,A2,150.502,83/1000,56,136.0
1142,G#3,150.588,83/1000,60,136.0
1143,G#2,150.588,83/1000,51,136.0
1144,F#3,150.671,83/1000,59,136.0
1145,F#2,150.671,83/1000,50,136.0
1146,E3,150.754,83/1000,60,136.0
1147,E2,150.754,83/1000,51,136.0
1148,E-3,150.838,83/1000,62,136.0
1149,E-2,150.838,83/1000,52,136.0
1150,C#3,150.921,83/1000,63,136.0
1151,C#2,150.921,83/1000,53,136.0
1152,C3,151.004,83/1000,65,136.0
1153,C2,151.004,83/1000,55,136.0
1154,C#3,151.09,83/1000,66,136.0
1155,C#2,151.09,83/1000,56,136.0
1156,E-3,151.173,83/1000,68,136.0
1157,E-2,151.173,83/1000,57,136.0
1158,E3,151.256,83/1000,70,136.0
1159,E2,151.256,83/1000,59,136.0
1160,E-3,151.34,83/1000,72,136.0
1161,E-2,151.34,83/1000,61,136.0
1162,C#3,151.423,3/40,74,136.0
1163,C#2,151.423,3/40,62,136.0
1164,C#1,151.438,0.312,52,136.0
1165,E2,151.5,0.25,62,136.0
1166,G#2,151.5,0.125,88,136.0
1167,C#3,151.5,0.125,88,136.0
1168,G#4,152.917,0.062,65,136.0
1169,G#3,153.0,0.125,61,136.0
1170,G#2,153.0,1.0,55,136.0
1171,G#4,153.0,0.875,65,136.0
1172,E-4,153.0,0.875,65,136.0
1173,B3,153.0,0.875,65,136.0
1174,G3,153.125,0.125,61,136.0
1175,F#3,153.25,0.125,60,136.0
1176,F3,153.375,0.125,59,136.0
1177,E3,153.5,0.125,58,136.0
1178,E-3,153.625,0.125,57,136.0
1179,D3,153.75,0.125,56,136.0
1180,E-3,153.875,0.125,55,136.0
1181,C#5,153.917,0.062,70,136.0
1182,G2,154.0,833/1000,55,136.0
1183,E3,154.0,0.125,60,136.0
1184,C#5,154.0,0.875,64,136.0
1185,E4,154.0,0.875,64,136.0
1186,C#4,154.0,0.875,64,136.0
1187,E-3,154.125,0.125,53,136.0
1188,D3,154.25,0.125,53,136.0
1189,C#3,154.375,0.125,53,136.0
1190,C3,154.5,0.125,53,136.0
1191,B2,154.625,0.125,53,136.0
1192,B-2,154.75,0.125,53,136.0
1193,G2,154.875,0.125,53,136.0
1194,B4,154.917,0.062,69,136.0
1195,G#2,155.0,0.5,52,136.0
1196,B4,155.0,0.375,63,136.0
1197,E-4,155.0,0.375,63,136.0
1198,B3,155.0,0.375,63,136.0
1199,A2,155.125,0.125,52,136.0
1200,B-2,155.25,0.125,53,136.0
1201,B2,155.375,0.125,54,136.0
1202,A4,155.417,0.062,68,136.0
1203,C#2,155.5,0.5,51,136.0
1204,C3,155.5,0.125,54,136.0
1205,A4,155.5,0.375,64,136.0
1206,E4,155.5,0.375,64,136.0
1207,C#4,155.5,0.375,64,136.0
1208,C#3,155.625,0.125,55,136.0
1209,C3,155.75,0.125,56,136.0
1210,C#3,155.875,0.125,56,136.0
1211,G#4,155.917,83/1000,71,136.0
1212,D3,156.0,0.125,57,136.0
1213,G#4,156.0,0.375,67,136.0
1214,E-4,156.0,0.375,67,136.0
1215,B3,156.0,0.375,67,136.0
1216,E-3,156.125,0.125,58,136.0
1217,D3,156.25,0.125,59,136.0
1218,E-3,156.375,0.125,59,136.0
1219,G4,156.417,0.062,72,136.0
1220,E3,156.5,0.125,60,136.0
1221,G4,156.5,0.375,67,136.0
1222,B-3,156.5,0.375,67,136.0
1223,C#4,156.5,0.375,67,136.0
1224,E-3,156.625,0.125,61,136.0
1225,E3,156.75,0.125,61,136.0
1226,E-3,156.875,0.125,62,136.0
1227,G#4,156.917,0.062,77,136.0
1228,G#4,157.0,0.25,70,136.0
1229,B3,157.0,0.25,70,136.0
1230,G#3,157.0,0.25,70,136.0
1231,G#2,157.0,0.25,59,136.0
1232,E-3,157.0,0.25,59,136.0
1233,E3,157.5,1.5,66,136.0
1234,G#3,157.5,1/10,66,136.0
1235,C#2,157.5,0.25,52,136.0
1236,G#2,157.5,1/10,56,136.0
1237,A3,157.6,1/10,61,136.0
1238,A2,157.6,1/10,51,136.0
1239,G#3,157.7,1/10,66,136.0
1240,G#2,157.7,1/10,56,136.0
1241,A3,157.8,1/10,61,136.0
1242,A2,157.8,1/10,51,136.0
1243,G#3,157.9,1/10,61,136.0
1244,G#2,157.9,1/10,51,136.0
1245,G3,158.0,83/1000,66,136.0
1246,G2,158.0,83/1000,56,136.0
1247,G#3,158.083,83/1000,60,136.0
1248,G#2,158.083,83/1000,51,136.0
1249,B-3,158.169,83/1000,66,136.0
1250,B-2,158.169,83/1000,56,136.0
1251,B3,158.252,83/1000,61,136.0
1252,B2,158.252,83/1000,51,136.0
1253,C#4,158.335,83/1000,66,136.0
1254,C#3,158.335,83/1000,56,136.0
1255,E-4,158.419,83/1000,61,136.0
1256,E-3,158.419,83/1000,51,136.0
1257,E4,158.502,83/1000,66,136.0
1258,E3,158.502,83/1000,56,136.0
1259,E-4,158.588,83/1000,60,136.0
1260,E-3,158.588,83/1000,51,136.0
1261,C#4,158.671,83/1000,59,136.0
1262,C#3,158.671,83/1000,50,136.0
1263,B3,158.754,83/1000,60,136.0
1264,B2,158.754,83/1000,51,136.0
1265,B-3,158.838,83/1000,62,136.0
1266,B-2,158.838,83/1000,52,136.0
1267,G#3,158.921,83/1000,63,136.0
1268,G#2,158.921,83/1000,53,136.0
1269,G3,159.004,83/1000,65,136.0
1270,G2,159.004,83/1000,55,136.0
1271,G#3,159.09,83/1000,66,136.0
1272,G#2,159.09,83/1000,56,136.0
1273,B-3,159.173,83/1000,68,136.0
1274,B-2,159.173,83/1000,57,136.0
1275,B3,159.256,83/1000,70,136.0
1276,B2,159.256,83/1000,59,136.0
1277,B-3,159.34,83/1000,72,136.0
1278,B-2,159.34,83/1000,61,136.0
1279,G#3,159.423,3/40,74,136.0
1280,G#2,159.423,3/40,62,136.0
1281,B2,159.5,0.125,88,136.0
1282,E-3,159.5,0.125,88,136.0
1283,G#3,159.5,0.125,88,136.0
1284,E-2,159.5,0.25,55,136.0
1285,G#1,159.5,0.25,55,136.0
1286,G#2,159.5,0.25,55,136.0
1287,E4,160.875,0.125,50,136.0
1288,G#5,161.0,0.125,59,136.0
1289,B5,161.0,0.125,59,136.0
1290,G#6,161.0,0.125,59,136.0
1291,E5,161.0,0.125,54,136.0
1292,B4,161.0,0.125,54,136.0
1293,B3,161.875,0.125,49,136.0
1294,G#5,162.0,0.125,56,136.0
1295,B5,162.0,0.125,56,136.0
1296,G#6,162.0,0.125,56,136.0
1297,E5,162.0,0.125,54,136.0
1298,B4,162.0,0.125,54,136.0
1299,E4,162.875,0.125,55,136.0
1300,G#6,163.0,1.5,69,136.0
1301,G#5,163.0,2.0,53,136.0
1302,B5,163.0,2.0,53,136.0
1303,E5,163.0,1.0,58,136.0
1304,B4,163.0,1.0,58,136.0
1305,B3,164.0,0.875,44,136.0
1306,F#6,164.5,0.25,63,136.0
1307,E6,164.75,0.25,63,136.0
1308,E-4,164.875,0.125,57,136.0
1309,E-6,165.0,0.125,71,136.0
1310,A5,165.0,1.0,55,136.0
1311,B5,165.0,1.0,55,136.0
1312,F#5,165.0,1.0,59,136.0
1313,B4,165.0,1.0,59,136.0
1314,E6,165.5,0.125,66,136.0
1315,B3,166.0,1.0,47,136.0
1316,A5,166.0,1.0,61,136.0
1317,B5,166.0,1.0,61,136.0
1318,F#6,166.0,1.0,61,136.0
1319,E4,166.875,0.125,55,136.0
1320,G#6,167.0,1.5,69,136.0
1321,G#5,167.0,2.0,53,136.0
1322,B5,167.0,2.0,53,136.0
1323,E5,167.0,1.0,58,136.0
1324,B4,167.0,1.0,58,136.0
1325,B3,168.0,0.875,46,136.0
1326,F#6,168.5,0.25,63,136.0
1327,E6,168.75,0.25,63,136.0
1328,E-4,168.875,0.125,57,136.0
1329,E-6,169.0,0.125,71,136.0
1330,A5,169.0,1.0,55,136.0
1331,B5,169.0,1.0,55,136.0
1332,F#5,169.0,1.0,59,136.0
1333,B4,169.0,1.0,59,136.0
1334,E6,169.5,0.125,66,136.0
1335,B3,170.0,1.0,49,136.0
1336,A5,170.0,1.0,61,136.0
1337,B5,170.0,1.0,61,136.0
1338,F#6,170.0,1.0,61,136.0
1339,E4,170.875,0.125,55,136.0
1340,G#6,171.0,1.5,69,136.0
1341,G#5,171.0,2.0,53,136.0
1342,B5,171.0,2.0,53,136.0
1343,E5,171.0,1.0,58,136.0
1344,B4,171.0,1.0,58,136.0
1345,B3,172.0,0.875,47,136.0
1346,F#6,172.5,0.25,63,136.0
1347,E6,172.75,0.25,63,136.0
1348,E-4,172.875,0.125,57,136.0
1349,E-6,173.0,0.125,71,136.0
1350,A5,173.0,1.0,55,136.0
1351,B5,173.0,1.0,55,136.0
1352,F#5,173.0,1.0,59,136.0
1353,B4,173.0,1.0,59,136.0
1354,E6,173.5,0.125,66,136.0
1355,B3,174.0,1.0,48,136.0
1356,A5,174.0,1.0,61,136.0
1357,B5,174.0,1.0,61,136.0
1358,F#6,174.0,1.0,61,136.0
1359,G#4,174.875,0.125,57,136.0
1360,G#6,175.0,1.5,69,136.0
1361,G#5,175.0,1.0,53,136.0
1362,B5,175.0,1.0,53,136.0
1363,E5,175.0,0.875,58,136.0
1364,B4,175.0,0.875,58,136.0
1365,E4,175.875,1.0,47,136.0
1366,B4,175.938,0.938,51,136.0
1367,G#5,176.0,0.875,59,136.0
1368,F#6,176.5,0.25,63,136.0
1369,E6,176.75,0.25,63,136.0
1370,E-4,176.875,0.125,53,136.0
1371,B4,176.938,0.062,58,136.0
1372,B5,177.0,1.0,55,136.0
1373,E-6,177.0,0.25,71,136.0
1374,F#5,177.0,0.875,64,136.0
1375,E-4,177.0,0.875,53,136.0
1376,B4,177.0,0.875,58,136.0
1377,E6,177.25,0.25,66,136.0
1378,F#6,177.5,0.25,66,136.0
1379,G#6,177.75,0.25,66,136.0
1380,C#4,177.875,1.0,51,136.0
1381,G#4,177.938,0.938,54,136.0
1382,G#5,178.0,1.0,55,136.0
1383,F#6,178.0,0.125,72,136.0
1384,E5,178.0,0.875,59,136.0
1385,E6,178.5,0.125,70,136.0
1386,C4,178.875,0.125,52,136.0
1387,G#4,178.938,0.062,54,136.0
1388,G#5,179.0,1.0,55,136.0
1389,E-6,179.0,0.125,74,136.0
1390,E-5,179.0,1.0,64,136.0
1391,C4,179.0,1.0,52,136.0
1392,G#4,179.0,1.0,54,136.0
1393,E6,179.5,0.125,77,136.0
1394,F#6,180.0,0.75,78,136.0
1395,G#3,180.0,1.0,50,136.0
1396,E6,180.75,0.25,73,136.0
1397,C#4,180.875,0.125,53,136.0
1398,G#4,180.938,0.062,58,136.0
1399,G#5,181.0,1.0,55,136.0
1400,E-6,181.0,0.25,71,136.0
1401,E5,181.0,0.875,64,136.0
1402,C#4,181.0,0.875,53,136.0
1403,G#4,181.0,0.875,58,136.0
1404,E6,181.25,0.25,66,136.0
1405,F#6,181.5,0.25,66,136.0
1406,G#6,181.75,0.25,60,136.0
1407,G#5,182.0,1.0,55,136.0
1408,F#6,182.0,0.125,72,136.0
1409,G#3,182.0,1.0,50,136.0
1410,E6,182.5,0.125,70,136.0
1411,C4,182.875,0.125,52,136.0
1412,G#4,182.938,0.062,54,136.0
1413,G#5,183.0,1.0,55,136.0
1414,E-6,183.0,0.125,74,136.0
1415,E-5,183.0,1.0,64,136.0
1416,C4,183.0,1.0,52,136.0
1417,G#4,183.0,1.0,54,136.0
1418,E6,183.5,0.125,77,136.0
1419,F#6,184.0,0.75,78,136.0
1420,G#3,184.0,1.0,50,136.0
1421,E6,184.75,0.25,73,136.0
1422,C#4,184.875,0.125,53,136.0
1423,G#4,184.938,0.062,58,136.0
1424,G#5,185.0,1.0,55,136.0
1425,E-6,185.0,0.25,71,136.0
1426,E5,185.0,0.875,64,136.0
1427,C#4,185.0,0.875,53,136.0
1428,G#4,185.0,0.875,58,136.0
1429,E6,185.25,0.25,66,136.0
1430,F#6,185.5,0.25,66,136.0
1431,G#6,185.75,0.25,66,136.0
1432,G#5,186.0,1.0,55,136.0
1433,F#6,186.0,0.125,72,136.0
1434,G#3,186.0,1.0,50,136.0
1435,E6,186.5,0.125,70,136.0
1436,C4,186.875,0.125,52,136.0
1437,G#4,186.938,0.062,54,136.0
1438,G#5,187.0,1.0,55,136.0
1439,E-6,187.0,0.125,74,136.0
1440,E-5,187.0,1.0,64,136.0
1441,C4,187.0,1.0,52,136.0
1442,G#4,187.0,1.0,54,136.0
1443,C#6,187.5,0.125,69,136.0
1444,C6,188.0,1.0,69,136.0
1445,G#3,188.0,1.0,50,136.0
1446,C#4,188.875,0.125,53,136.0
1447,G#4,188.938,0.062,58,136.0
1448,G#5,189.0,1.0,55,136.0
1449,E-6,189.0,0.25,71,136.0
1450,E5,189.0,0.875,64,136.0
1451,C#4,189.0,0.875,53,136.0
1452,G#4,189.0,0.875,58,136.0
1453,E6,189.25,0.25,66,136.0
1454,F#6,189.5,0.25,66,136.0
1455,G#6,189.75,0.25,66,136.0
1456,F#6,190.0,0.125,72,136.0
1457,C#6,190.0,1.0,55,136.0
1458,A5,190.0,1.0,55,136.0
1459,E5,190.0,1.0,45,136.0
1460,A4,190.0,1.0,45,136.0
1461,C#5,190.0,1.0,45,136.0
1462,E6,190.5,0.125,70,136.0
1463,E-6,191.0,0.125,74,136.0
1464,A5,191.0,1.0,55,136.0
1465,C#6,191.0,1.0,55,136.0
1466,F#4,191.0,1.0,57,136.0
1467,C#5,191.0,1.0,57,136.0
1468,E-5,191.0,1.0,57,136.0
1469,E6,191.5,0.125,77,136.0
1470,A5,192.0,1.0,68,136.0
1471,C#6,192.0,1.0,68,136.0
1472,F#6,192.0,1.0,68,136.0
1473,F#5,192.0,1.0,44,136.0
1474,E-4,192.0,1.0,44,136.0
1475,A4,192.0,1.0,44,136.0
1476,C#5,192.0,1.0,44,136.0
1477,E6,193.0,0.25,71,136.0
1478,G#5,193.0,1.0,60,136.0
1479,G#4,193.0,1.0,57,136.0
1480,C#5,193.0,1.0,57,136.0
1481,E5,193.0,1.0,57,136.0
1482,E-6,193.25,0.25,63,136.0
1483,C#6,193.5,0.25,63,136.0
1484,E6,193.75,0.25,63,136.0
1485,E-6,194.0,0.25,72,136.0
1486,G#5,194.0,1.0,61,136.0
1487,G#4,194.0,0.812,57,136.0
1488,E-5,194.0,0.812,57,136.0
1489,F#5,194.0,0.812,57,136.0
1490,C#6,194.25,0.25,64,136.0
1491,C6,194.5,0.25,64,136.0
1492,E-6,194.75,0.25,63,136.0
1493,C#4,194.812,0.188,54,136.0
1494,G#4,194.875,0.125,54,136.0
1495,C#5,194.938,0.062,54,136.0
1496,G#5,195.0,1.0,60,136.0
1497,C#6,195.0,0.125,54,136.0
1498,E5,195.0,1.0,64,136.0
1499,C#4,195.0,1.0,54,136.0
1500,G#4,195.0,1.0,54,136.0
1501,C#5,195.0,1.0,54,136.0
1502,E-6,195.125,0.125,49,136.0
1503,C#6,195.25,0.125,54,136.0
1504,E-6,195.375,0.125,49,136.0
1505,C#6,195.5,0.125,54,136.0
1506,E-6,195.625,0.125,49,136.0
1507,C#6,195.75,0.125,54,136.0
1508,E-6,195.875,0.125,46,136.0
1509,C#6,196.0,0.125,53,136.0
1510,E-6,196.125,0.125,48,136.0
1511,C#6,196.25,0.125,53,136.0
1512,E-6,196.375,0.125,47,136.0
1513,C#6,196.5,167/1000,53,136.0
1514,E-6,196.667,167/1000,46,136.0
1515,C#6,196.833,167/1000,52,136.0
1516,C6,197.025,0.125,48,136.0
1517,C#6,197.15,0.125,49,136.0
1518,D6,197.275,0.125,51,136.0
1519,E-6,197.4,0.125,53,136.0
1520,E6,197.525,0.125,55,136.0
1521,F6,197.65,0.125,56,136.0
1522,F#6,197.775,0.125,58,136.0
1523,G6,197.9,1/10,60,136.0
1524,G#6,198.0,1.0,70,136.0
1525,G6,198.0,1/40,60,136.0
1526,E4,198.0,1.0,49,136.0
1527,G#5,198.5,0.125,48,136.0
1528,B5,198.5,0.125,48,136.0
1529,B4,198.5,0.125,49,136.0
1530,E5,198.5,0.125,49,136.0
1531,G#6,199.0,1.0,66,136.0
1532,B3,199.0,1.0,49,136.0
1533,G#5,199.5,0.125,49,136.0
1534,B5,199.5,0.125,49,136.0
1535,B4,199.5,0.125,48,136.0
1536,E5,199.5,0.125,48,136.0
1537,G#6,200.0,1.5,69,136.0
1538,E4,200.0,1.0,49,136.0
1539,G#5,200.5,0.125,54,136.0
1540,B5,200.5,0.125,54,136.0
1541,B4,200.5,0.125,54,136.0
1542,E5,200.5,0.125,54,136.0
1543,B3,201.0,1.0,49,136.0
1544,F#6,201.5,0.25,63,136.0
1545,G#5,201.5,0.125,51,136.0
1546,B5,201.5,0.125,51,136.0
1547,E5,201.5,0.125,54,136.0
1548,B4,201.5,0.125,54,136.0
1549,E6,201.75,0.25,63,136.0
1550,E-6,202.0,0.125,71,136.0
1551,E-4,202.0,1.0,49,136.0
1552,A5,202.5,0.125,57,136.0
1553,B5,202.5,0.125,57,136.0
1554,E6,202.5,0.125,57,136.0
1555,F#5,202.5,0.125,54,136.0
1556,B4,202.5,0.125,54,136.0
1557,F#6,203.0,1.0,72,136.0
1558,B3,203.0,1.0,49,136.0
1559,A5,203.5,0.125,52,136.0
1560,B5,203.5,0.125,52,136.0
1561,E-5,203.5,0.125,54,136.0
1562,B4,203.5,0.125,54,136.0
1563,G#6,204.0,1.5,69,136.0
1564,E4,204.0,1.0,49,136.0
1565,G#5,204.5,0.125,54,136.0
1566,B5,204.5,0.125,54,136.0
1567,B4,204.5,0.125,54,136.0
1568,E5,204.5,0.125,54,136.0
1569,B3,205.0,1.0,49,136.0
1570,F#6,205.5,0.25,63,136.0
1571,G#5,205.5,0.125,51,136.0
1572,B5,205.5,0.125,51,136.0
1573,E5,205.5,0.125,54,136.0
1574,B4,205.5,0.125,54,136.0
1575,E6,205.75,0.25,63,136.0
1576,E-6,206.0,0.125,71,136.0
1577,E-4,206.0,1.0,49,136.0
1578,A5,206.5,0.125,57,136.0
1579,B5,206.5,0.125,57,136.0
1580,E6,206.5,0.125,57,136.0
1581,F#5,206.5,0.125,54,136.0
1582,B4,206.5,0.125,54,136.0
1583,F#6,207.0,1.0,72,136.0
1584,B3,207.0,1.0,49,136.0
1585,A5,207.5,0.125,52,136.0
1586,B5,207.5,0.125,52,136.0
1587,E-5,207.5,0.125,54,136.0
1588,B4,207.5,0.125,54,136.0
1589,G#6,208.0,1.5,69,136.0
1590,E4,208.0,1.0,49,136.0
1591,G#5,208.5,0.125,54,136.0
1592,B5,208.5,0.125,54,136.0
1593,B4,208.5,0.125,54,136.0
1594,E5,208.5,0.125,54,136.0
1595,E4,209.0,1.0,49,136.0
1596,F#6,209.5,0.25,63,136.0
1597,G#5,209.5,0.125,51,136.0
1598,B5,209.5,0.125,51,136.0
1599,G#5,209.5,0.125,54,136.0
1600,B4,209.5,0.125,54,136.0
1601,E6,209.75,0.25,63,136.0
1602,E-6,210.0,0.25,71,136.0
1603,E-4,210.0,1.0,49,136.0
1604,E6,210.25,0.25,66,136.0
1605,G#5,210.5,0.125,54,136.0
1606,F#6,210.5,0.25,66,136.0
1607,F#5,210.5,0.125,54,136.0
1608,B4,210.5,0.125,54,136.0
1609,G#6,210.75,0.25,66,136.0
1610,F#6,211.0,0.125,72,136.0
1611,C#4,211.0,1.0,49,136.0
1612,G#5,211.5,0.125,62,136.0
1613,E6,211.5,0.125,62,136.0
1614,G#4,211.5,0.125,52,136.0
1615,E5,211.5,0.125,52,136.0
1616,C#5,211.5,0.125,52,136.0
1617,E-6,212.0,0.125,74,136.0
1618,C4,212.0,1.0,49,136.0
1619,G#5,212.5,0.125,64,136.0
1620,E6,212.5,0.125,64,136.0
1621,E-5,212.5,0.125,54,136.0
1622,G#4,212.5,0.125,54,136.0
1623,F#6,213.0,0.75,78,136.0
1624,G#3,213.0,1.0,49,136.0
1625,G#5,213.5,0.125,51,136.0
1626,E-4,213.5,0.125,54,136.0
1627,C5,213.5,0.125,54,136.0
1628,E6,213.75,0.25,73,136.0
1629,E-6,214.0,0.25,71,136.0
1630,C#4,214.0,1.0,49,136.0
1631,E6,214.25,0.25,66,136.0
1632,G#5,214.5,0.125,51,136.0
1633,F#6,214.5,0.25,66,136.0
1634,E5,214.5,0.125,54,136.0
1635,G#4,214.5,0.125,54,136.0
1636,G#6,214.75,0.25,66,136.0
1637,F#6,215.0,0.125,72,136.0
1638,G#3,215.0,1.0,49,136.0
1639,G#5,215.5,0.125,60,136.0
1640,E6,215.5,0.125,60,136.0
1641,C#5,215.5,0.125,52,136.0
1642,G#4,215.5,0.125,52,136.0
1643,E4,215.5,0.125,52,136.0
1644,E-6,216.0,0.125,74,136.0
1645,C4,216.0,1.0,49,136.0
1646,G#5,216.5,0.125,60,136.0
1647,C#6,216.5,0.125,60,136.0
1648,F#4,216.5,0.125,53,136.0
1649,E-5,216.5,0.125,53,136.0
1650,G#4,216.5,0.125,53,136.0
1651,C6,217.0,1.0,69,136.0
1652,G#3,217.0,1.0,49,136.0
1653,G#5,217.5,0.125,51,136.0
1654,F#4,217.5,0.125,52,136.0
1655,E-4,217.5,0.125,52,136.0
1656,C5,217.5,0.125,52,136.0
1657,E-6,218.0,0.25,71,136.0
1658,C#4,218.0,1.0,49,136.0
1659,E6,218.25,0.25,66,136.0
1660,G#5,218.5,0.125,51,136.0
1661,F#6,218.5,0.25,66,136.0
1662,E5,218.5,0.125,54,136.0
1663,G#4,218.5,0.125,54,136.0
1664,G#6,218.75,0.25,66,136.0
1665,F#6,219.0,0.125,72,136.0
1666,E4,219.0,0.625,49,136.0
1667,E4,219.5,0.5,49,136.0
1668,C#5,219.5,0.125,58,136.0
1669,C#6,219.5,0.125,57,136.0
1670,G#5,219.5,0.125,57,136.0
1671,E6,219.5,0.125,57,136.0
1672,E-6,220.0,0.125,74,136.0
1673,F#4,220.0,1.0,49,136.0
1674,A5,220.5,0.125,60,136.0
1675,C#6,220.5,0.125,60,136.0
1676,E6,220.5,0.125,60,136.0
1677,C#5,220.5,0.125,53,136.0
1678,E-5,220.5,0.125,53,136.0
1679,A4,220.5,0.125,53,136.0
1680,F#6,221.0,1.0,81,136.0
1681,E-4,221.0,1.0,49,136.0
1682,A5,221.5,0.125,51,136.0
1683,C#6,221.5,0.125,51,136.0
1684,A4,221.5,0.125,52,136.0
1685,F#5,221.5,0.125,52,136.0
1686,C#5,221.5,0.125,52,136.0
1687,E6,222.0,0.25,71,136.0
1688,G4,222.0,1.0,49,136.0
1689,E-6,222.25,0.25,63,136.0
1690,C#6,222.5,0.25,63,136.0
1691,G5,222.5,0.125,51,136.0
1692,B-5,222.5,0.125,51,136.0
1693,E5,222.5,0.125,53,136.0
1694,C#5,222.5,0.125,53,136.0
1695,B-4,222.5,0.125,53,136.0
1696,E6,222.75,0.25,63,136.0
1697,E-6,223.0,0.25,72,136.0
1698,G#4,223.0,1.0,49,136.0
1699,C#6,223.25,0.25,64,136.0
1700,G#5,223.5,0.125,51,136.0
1701,C6,223.5,0.25,64,136.0
1702,E-5,223.5,0.125,52,136.0
1703,C5,223.5,0.125,52,136.0
1704,F#5,223.5,0.125,52,136.0
1705,E-6,223.75,0.25,63,136.0
1706,C#6,224.0,0.25,65,136.0
1707,C#4,224.0,1.0,49,136.0
1708,G#5,224.25,0.25,56,136.0
1709,G#6,224.5,0.25,64,136.0
1710,G#4,224.5,0.125,53,136.0
1711,C#5,224.5,0.125,53,136.0
1712,E5,224.5,0.125,53,136.0
1713,G#5,224.75,0.25,57,136.0
1714,C#6,225.0,0.25,71,136.0
1715,G#5,225.25,0.25,63,136.0
1716,G#6,225.5,0.25,71,136.0
1717,G#5,225.75,0.25,63,136.0
1718,C#6,226.0,0.25,72,136.0
1719,G#5,226.25,0.25,62,136.0
1720,G#6,226.5,0.25,71,136.0
1721,G#5,226.75,0.25,63,136.0
1722,C#6,227.0,0.25,74,136.0
1723,G#5,227.25,0.25,64,136.0
1724,G#6,227.5,0.25,72,136.0
1725,G#5,227.75,0.25,66,136.0
1726,C#6,228.0,0.25,78,136.0
1727,G#5,228.25,0.25,66,136.0
1728,G#6,228.5,0.25,73,136.0
1729,G#5,228.75,0.25,62,136.0
1730,C#6,229.0,0.25,71,136.0
1731,G#5,229.25,0.25,60,136.0
1732,G#6,229.5,0.25,65,136.0
1733,G#5,229.75,0.25,58,136.0
1734,C#6,230.0,0.25,67,136.0
1735,G#5,230.25,0.25,57,136.0
1736,G#6,230.5,0.25,63,136.0
1737,G#5,230.75,0.25,53,136.0
1738,C#6,231.0,0.25,61,136.0
1739,G#5,231.25,0.25,51,136.0
1740,G#6,231.5,0.25,56,136.0
1741,G#5,231.75,0.25,45,136.0
1742,G#6,232.0,0.5,70,136.0
1743,E4,232.0,0.5,39,136.0
1744,B5,232.25,0.125,54,136.0
1745,B4,232.25,0.125,40,136.0
1746,B6,232.5,0.125,54,136.0
1747,G#4,232.5,0.125,47,136.0
1748,B5,232.75,0.125,54,136.0
1749,B4,232.75,0.125,47,136.0
1750,G#6,233.0,0.5,66,136.0
1751,B3,233.0,0.5,39,136.0
1752,B5,233.25,0.125,54,136.0
1753,B4,233.25,0.125,39,136.0
1754,B6,233.5,0.125,54,136.0
1755,G#4,233.5,0.125,46,136.0
1756,B5,233.75,0.125,51,136.0
1757,B4,233.75,0.125,39,136.0
1758,G#6,234.0,1.5,69,136.0
1759,E4,234.0,0.5,39,136.0
1760,B5,234.25,0.125,54,136.0
1761,B4,234.25,0.125,40,136.0
1762,B6,234.5,0.125,54,136.0
1763,G#4,234.5,0.125,47,136.0
1764,B5,234.75,0.125,54,136.0
1765,B4,234.75,0.125,47,136.0
1766,F#6,235.0,0.125,63,136.0
1767,B3,235.0,0.5,39,136.0
1768,B5,235.25,0.125,51,136.0
1769,B4,235.25,0.125,39,136.0
1770,E6,235.5,0.125,63,136.0
1771,G#4,235.5,0.125,46,136.0
1772,B5,235.75,0.125,51,136.0
1773,B4,235.75,0.125,39,136.0
1774,E-6,236.0,0.125,71,136.0
1775,F#4,236.0,0.5,39,136.0
1776,B5,236.25,0.125,51,136.0
1777,B4,236.25,0.125,40,136.0
1778,A4,236.5,0.125,47,136.0
1779,B6,236.5,0.125,60,136.0
1780,E6,236.5,0.125,60,136.0
1781,B5,236.75,0.125,51,136.0
1782,B4,236.75,0.125,47,136.0
1783,F#6,237.0,1.0,72,136.0
1784,B3,237.0,0.5,39,136.0
1785,B5,237.25,0.125,51,136.0
1786,B4,237.25,0.125,39,136.0
1787,B6,237.5,0.125,54,136.0
1788,A4,237.5,0.125,46,136.0
1789,B5,237.75,0.125,51,136.0
1790,B4,237.75,0.125,39,136.0
1791,G#6,238.0,1.5,69,136.0
1792,E4,238.0,0.5,39,136.0
1793,B5,238.25,0.125,54,136.0
1794,B4,238.25,0.125,40,136.0
1795,B6,238.5,0.125,54,136.0
1796,G#4,238.5,0.125,47,136.0
1797,B5,238.75,0.125,54,136.0
1798,B4,238.75,0.125,47,136.0
1799,F#6,239.0,0.125,63,136.0
1800,B3,239.0,0.5,39,136.0
1801,B5,239.25,0.125,51,136.0
1802,B4,239.25,0.125,39,136.0
1803,G#4,239.5,0.125,46,136.0
1804,B6,239.5,0.125,58,136.0
1805,E6,239.5,0.125,58,136.0
1806,B5,239.75,0.125,51,136.0
1807,B4,239.75,0.125,39,136.0
1808,E-6,240.0,0.125,71,136.0
1809,F#4,240.0,0.5,39,136.0
1810,B5,240.25,0.125,51,136.0
1811,B4,240.25,0.125,40,136.0
1812,A4,240.5,0.125,47,136.0
1813,B6,240.5,0.125,60,136.0
1814,E6,240.5,0.125,60,136.0
1815,B5,240.75,0.125,54,136.0
1816,B4,240.75,0.125,47,136.0
1817,F#6,241.0,1.0,72,136.0
1818,B3,241.0,0.5,39,136.0
1819,B5,241.25,0.125,51,136.0
1820,B4,241.25,0.125,39,136.0
1821,B6,241.5,0.125,54,136.0
1822,A4,241.5,0.125,46,136.0
1823,B5,241.75,0.125,51,136.0
1824,B4,241.75,0.125,39,136.0
1825,G#6,242.0,1.5,69,136.0
1826,E4,242.0,0.5,39,136.0
1827,B5,242.25,0.125,54,136.0
1828,B4,242.25,0.125,40,136.0
1829,B6,242.5,0.125,54,136.0
1830,G#4,242.5,0.125,47,136.0
1831,B5,242.75,0.125,54,136.0
1832,B4,242.75,0.125,47,136.0
1833,F#6,243.0,0.125,63,136.0
1834,E4,243.0,0.5,39,136.0
1835,B5,243.25,0.125,51,136.0
1836,B4,243.25,0.125,39,136.0
1837,G#4,243.5,0.125,46,136.0
1838,E6,243.5,0.125,57,136.0
1839,B6,243.5,0.125,57,136.0
1840,B5,243.75,0.125,51,136.0
1841,B4,243.75,0.125,39,136.0
1842,E-6,244.0,0.25,71,136.0
1843,E-4,244.0,0.5,39,136.0
1844,E6,244.25,0.25,66,136.0
1845,B4,244.25,0.125,40,136.0
1846,F#6,244.5,0.25,66,136.0
1847,F#4,244.5,0.125,47,136.0
1848,G#6,244.75,0.25,66,136.0
1849,B4,244.75,0.125,47,136.0
1850,F#6,245.0,0.125,72,136.0
1851,C#4,245.0,0.5,39,136.0
1852,B5,245.25,0.125,54,136.0
1853,G#4,245.25,0.125,39,136.0
1854,E4,245.5,0.125,46,136.0
1855,G#6,245.5,0.125,60,136.0
1856,E6,245.5,0.125,60,136.0
1857,B5,245.75,0.125,54,136.0
1858,G#4,245.75,0.125,39,136.0
1859,E-6,246.0,0.125,74,136.0
1860,C4,246.0,0.5,39,136.0
1861,G#5,246.25,0.125,54,136.0
1862,G#4,246.25,0.125,40,136.0
1863,E-4,246.5,0.125,47,136.0
1864,G#6,246.5,0.125,64,136.0
1865,E6,246.5,0.125,64,136.0
1866,G#5,246.75,0.125,54,136.0
1867,G#4,246.75,0.125,47,136.0
1868,F#6,247.0,0.125,78,136.0
1869,G#3,247.0,0.5,39,136.0
1870,G#5,247.25,0.125,54,136.0
1871,G#4,247.25,0.125,39,136.0
1872,E-4,247.5,0.125,46,136.0
1873,G#6,247.5,0.125,62,136.0
1874,E6,247.5,0.125,62,136.0
1875,G#5,247.75,0.125,51,136.0
1876,G#4,247.75,0.125,39,136.0
1877,E-6,248.0,0.25,71,136.0
1878,C#4,248.0,0.5,39,136.0
1879,E6,248.25,0.25,66,136.0
1880,G#4,248.25,0.125,40,136.0
1881,F#6,248.5,0.25,66,136.0
1882,E4,248.5,0.125,47,136.0
1883,G#6,248.75,0.25,66,136.0
1884,G#4,248.75,0.125,47,136.0
1885,F#6,249.0,0.125,72,136.0
1886,G#3,249.0,0.5,39,136.0
1887,G#5,249.25,0.125,51,136.0
1888,G#4,249.25,0.125,39,136.0
1889,E4,249.5,0.125,46,136.0
1890,G#6,249.5,0.125,60,136.0
1891,E6,249.5,0.125,60,136.0
1892,G#5,249.75,0.125,51,136.0
1893,G#4,249.75,0.125,39,136.0
1894,E-6,250.0,0.125,74,136.0
1895,C4,250.0,0.5,39,136.0
1896,G#5,250.25,0.125,51,136.0
1897,G#4,250.25,0.125,40,136.0
1898,E-4,250.5,0.125,47,136.0
1899,G#6,250.5,0.125,60,136.0
1900,C#6,250.5,0.125,60,136.0
1901,G#5,250.75,0.125,51,136.0
1902,G#4,250.75,0.125,47,136.0
1903,C6,251.0,1.0,69,136.0
1904,G#3,251.0,0.5,39,136.0
1905,G#5,251.25,0.125,51,136.0
1906,G#4,251.25,0.125,39,136.0
1907,G#6,251.5,0.125,51,136.0
1908,E-4,251.5,0.125,46,136.0
1909,G#5,251.75,0.125,51,136.0
1910,G#4,251.75,0.125,39,136.0
1911,E-6,252.0,0.25,71,136.0
1912,C#4,252.0,0.5,39,136.0
1913,E6,252.25,0.25,66,136.0
1914,G#4,252.25,0.125,40,136.0
1915,F#6,252.5,0.25,66,136.0
1916,E4,252.5,0.125,47,136.0
1917,G#6,252.75,0.25,66,136.0
1918,G#4,252.75,0.125,47,136.0
1919,F#6,253.0,0.125,72,136.0
1920,G#3,253.0,0.5,39,136.0
1921,G#5,253.25,0.125,51,136.0
1922,G#4,253.25,0.125,39,136.0
1923,E4,253.5,0.125,46,136.0
1924,G#6,253.5,0.125,60,136.0
1925,E6,253.5,0.125,60,136.0
1926,G#5,253.75,0.125,51,136.0
1927,G#4,253.75,0.125,39,136.0
1928,E-6,254.0,0.125,74,136.0
1929,C4,254.0,0.5,39,136.0
1930,G#5,254.25,0.125,51,136.0
1931,G#4,254.25,0.125,40,136.0
1932,E-4,254.5,0.125,47,136.0
1933,G#6,254.5,0.125,60,136.0
1934,C#6,254.5,0.125,60,136.0
1935,G#5,254.75,0.125,51,136.0
1936,G#4,254.75,0.125,47,136.0
1937,C6,255.0,1.0,69,136.0
1938,G#3,255.0,0.5,39,136.0
1939,G#5,255.25,0.125,51,136.0
1940,G#4,255.25,0.125,39,136.0
1941,G#6,255.5,0.125,51,136.0
1942,E-4,255.5,0.125,46,136.0
1943,G#5,255.75,0.125,51,136.0
1944,G#4,255.75,0.125,39,136.0
1945,E6,256.0,0.25,71,136.0
1946,C#4,256.0,0.5,39,136.0
1947,E-6,256.25,0.25,63,136.0
1948,G#4,256.25,0.125,40,136.0
1949,C#6,256.5,0.25,63,136.0
1950,E4,256.5,0.125,47,136.0
1951,G#5,256.5,0.125,51,136.0
1952,G#6,256.5,0.125,51,136.0
1953,E6,256.75,0.25,63,136.0
1954,G#4,256.75,0.125,47,136.0
1955,E-6,257.0,0.25,72,136.0
1956,G#3,257.0,0.5,39,136.0
1957,C#6,257.25,0.25,64,136.0
1958,G#4,257.25,0.125,39,136.0
1959,C6,257.5,0.25,64,136.0
1960,G#6,257.5,0.125,51,136.0
1961,G#5,257.5,0.125,51,136.0
1962,E-4,257.5,0.125,41,136.0
1963,F#4,257.5,0.125,41,136.0
1964,E-6,257.75,0.25,63,136.0
1965,G#4,257.75,0.125,39,136.0
1966,C#6,258.0,0.25,65,136.0
1967,C#4,258.0,0.5,46,136.0
1968,G#5,258.25,0.25,56,136.0
1969,F5,258.25,0.25,37,136.0
1970,G#6,258.5,0.25,64,136.0
1971,G#4,258.5,0.25,48,136.0
1972,G#5,258.75,0.25,57,136.0
1973,F5,258.75,0.25,39,136.0
1974,C#6,259.0,0.25,67,136.0
1975,C#5,259.0,0.25,47,136.0
1976,G#5,259.25,0.25,58,136.0
1977,F5,259.25,0.25,39,136.0
1978,G#6,259.5,0.25,65,136.0
1979,G#4,259.5,0.25,48,136.0
1980,G#5,259.75,0.25,59,136.0
1981,F5,259.75,0.25,42,136.0
1982,C#6,260.0,0.25,72,136.0
1983,C#4,260.0,0.5,50,136.0
1984,G#5,260.25,0.25,62,136.0
1985,F5,260.25,0.25,43,136.0
1986,G#6,260.5,0.25,71,136.0
1987,G#4,260.5,0.25,50,136.0
1988,G#5,260.75,0.25,63,136.0
1989,F5,260.75,0.25,45,136.0
1990,C#6,261.0,0.25,74,136.0
1991,C#5,261.0,0.25,52,136.0
1992,G#5,261.25,0.25,64,136.0
1993,F5,261.25,0.25,46,136.0
1994,G#6,261.5,0.25,72,136.0
1995,G#4,261.5,0.25,53,136.0
1996,G#5,261.75,0.25,66,136.0
1997,F5,261.75,0.25,48,136.0
1998,G#6,262.0,0.25,78,136.0
1999,C#4,262.0,0.5,52,136.0
2000,C#6,262.25,0.25,66,136.0
2001,F5,262.25,0.25,44,136.0
2002,C#7,262.5,0.25,73,136.0
2003,G#4,262.5,0.25,51,136.0
2004,C#6,262.75,0.25,62,136.0
2005,F5,262.75,0.25,45,136.0
2006,G#6,263.0,0.25,71,136.0
2007,C#5,263.0,0.25,53,136.0
2008,C#6,263.25,0.25,60,136.0
2009,F5,263.25,0.25,46,136.0
2010,C#7,263.5,0.25,65,136.0
2011,G#4,263.5,0.25,52,136.0
2012,C#6,263.75,0.25,58,136.0
2013,F5,263.75,0.25,47,136.0
2014,G#6,264.0,0.25,67,136.0
2015,C#4,264.0,0.5,48,136.0
2016,C#6,264.25,0.25,57,136.0
2017,F5,264.25,0.25,36,136.0
2018,C#7,264.5,0.25,63,136.0
2019,G#4,264.5,0.25,49,136.0
2020,C#6,264.75,0.25,53,136.0
2021,F5,264.75,0.25,43,136.0
2022,G#6,265.0,0.25,61,136.0
2023,C#5,265.0,0.25,51,136.0
2024,C#6,265.25,0.25,51,136.0
2025,F5,265.25,0.25,44,136.0
2026,C#7,265.5,0.25,56,136.0
2027,G#4,265.5,0.25,50,136.0
2028,C#6,265.75,0.25,45,136.0
2029,F5,265.75,0.25,43,136.0
2030,G#6,266.0,0.25,67,136.0
2031,C#4,266.0,0.25,48,136.0
2032,C#6,266.25,0.25,55,136.0
2033,F5,266.25,0.25,35,136.0
2034,C#7,266.5,0.25,60,136.0
2035,G#4,266.5,0.25,47,136.0
2036,C#6,266.75,0.25,49,136.0
2037,F5,266.75,0.25,40,136.0
2038,G#6,267.0,0.25,56,136.0
2039,C#4,267.0,0.25,46,136.0
2040,C#6,267.25,0.25,45,136.0
2041,F5,267.25,0.25,39,136.0
2042,C#7,267.5,0.25,49,136.0
2043,G#4,267.5,0.25,44,136.0
2044,C#6,267.75,0.25,38,136.0
2045,F5,267.75,0.25,36,136.0
2046,G#6,268.0,0.25,56,136.0
2047,C#4,268.0,0.25,40,136.0
2048,C#6,268.25,0.25,46,136.0
2049,F5,268.25,0.25,29,136.0
2050,C#7,268.5,0.25,50,136.0
2051,G#4,268.5,0.25,39,136.0
2052,C#6,268.75,0.25,41,136.0
2053,F5,268.75,0.25,33,136.0
2054,G#6,269.0,0.25,46,136.0
2055,C#4,269.0,0.25,38,136.0
2056,C#6,269.25,0.25,37,136.0
2057,F5,269.25,0.25,32,136.0
2058,C#7,269.5,0.25,40,136.0
2059,G#4,269.5,0.25,36,136.0
2060,C#6,269.75,0.25,36,136.0
2061,F5,269.75,0.25,1,136.0
2062,G#6,270.0,0.25,46,136.0
2063,C#4,270.0,0.25,33,136.0
2064,C#6,270.25,0.25,39,136.0
2065,F5,270.25,0.25,25,136.0
2066,C#7,270.5,0.25,44,136.0
2067,G#4,270.5,0.25,34,136.0
2068,C#6,270.75,0.25,37,136.0
2069,F5,270.75,0.25,30,136.0
2070,G#6,271.0,0.25,42,136.0
2071,C#4,271.0,0.25,35,136.0
2072,C#6,271.25,0.25,35,136.0
2073,F5,271.25,0.25,30,136.0
2074,C#7,271.5,0.25,39,136.0
2075,G#4,271.5,0.25,35,136.0
2076,C#6,271.75,0.25,31,136.0
2077,F5,271.75,0.25,30,136.0
2078,G#6,272.0,0.25,39,136.0
2079,C#4,272.0,0.5,33,136.0
2080,C#6,272.25,0.25,31,136.0
2081,C#7,272.5,0.5,31,136.0
2082,F5,272.5,0.5,30,136.0
2083,G#4,272.5,0.5,30,136.0
2084,C#5,275.875,83/1000,47,136.0
2085,C#5,276.0,0.25,57,136.0
2086,A2,276.0,1/5,44,136.0
2087,C#6,276.25,0.188,50,136.0
2088,E3,276.25,1/5,34,136.0
2089,C#6,276.5,0.25,58,136.0
2090,A3,276.5,1/5,35,136.0
2091,B5,276.75,0.188,51,136.0
2092,C#4,276.75,1/5,36,136.0
2093,B5,277.0,0.25,56,136.0
2094,E4,277.0,1/5,37,136.0
2095,A5,277.25,0.188,45,136.0
2096,A4,277.25,1/5,38,136.0
2097,A5,277.5,0.25,49,136.0
2098,C#5,277.5,1/5,36,136.0
2099,G#5,277.75,0.25,45,136.0
2100,B5,278.0,0.25,56,136.0
2101,G#2,278.0,1/5,44,136.0
2102,F3,278.25,1/5,34,136.0
2103,A5,278.5,0.25,48,136.0
2104,B3,278.5,1/5,35,136.0
2105,C#4,278.75,1/5,36,136.0
2106,G#5,279.0,1.0,56,136.0
2107,F4,279.0,1/5,37,136.0
2108,B4,279.25,1/5,38,136.0
2109,C#5,279.5,1/5,36,136.0
2110,F#2,280.0,1/5,44,136.0
2111,C#5,280.0,0.25,60,136.0
2112,B5,280.0,0.25,60,136.0
2113,A5,280.25,26/125,45,136.0
2114,C#3,280.25,1/5,34,136.0
2115,A5,280.5,0.062,55,136.0
2116,F#3,280.5,1/5,35,136.0
2117,B5,280.562,0.062,55,136.0
2118,A5,280.625,0.25,60,136.0
2119,G#5,280.75,26/125,45,136.0
2120,A3,280.75,1/5,36,136.0
2121,G#5,281.0,0.062,55,136.0
2122,C#4,281.0,1/5,37,136.0
2123,A5,281.062,0.062,55,136.0
2124,G#5,281.125,0.125,61,136.0
2125,F#5,281.25,26/125,45,136.0
2126,F#4,281.25,1/5,38,136.0
2127,F#5,281.5,0.062,52,136.0
2128,A4,281.5,1/5,36,136.0
2129,G#5,281.562,0.062,52,136.0
2130,F#5,281.625,0.125,58,136.0
2131,F5,281.75,0.25,45,136.0
2132,G#5,282.0,0.25,58,136.0
2133,C#2,282.0,1/5,44,136.0
2134,C#3,282.25,1/5,34,136.0
2135,G#4,282.438,0.281,41,136.0
2136,C#5,282.438,0.281,41,136.0
2137,F5,282.5,0.25,49,136.0
2138,F3,282.5,1/5,35,136.0
2139,G#3,282.75,1/5,36,136.0
2140,C#5,283.0,479/500,53,136.0
2141,C#4,283.0,1/5,37,136.0
2142,F4,283.25,1/5,38,136.0
2143,G#4,283.5,1/5,36,136.0
2144,C#5,283.875,0.125,47,136.0
2145,C#5,284.0,0.25,57,136.0
2146,A2,284.0,1/5,44,136.0
2147,C#6,284.25,0.188,50,136.0
2148,E3,284.25,1/5,34,136.0
2149,C#6,284.5,0.25,58,136.0
2150,A3,284.5,1/5,35,136.0
2151,B5,284.75,0.188,51,136.0
2152,C#4,284.75,1/5,36,136.0
2153,B5,285.0,0.25,56,136.0
2154,E4,285.0,1/5,37,136.0
2155,A5,285.25,0.188,45,136.0
2156,A4,285.25,1/5,38,136.0
2157,A5,285.5,0.25,49,136.0
2158,C#5,285.5,1/5,36,136.0
2159,G#5,285.75,0.25,45,136.0
2160,B5,286.0,0.25,56,136.0
2161,G#2,286.0,1/5,44,136.0
2162,F3,286.25,1/5,34,136.0
2163,A5,286.5,0.25,48,136.0
2164,B3,286.5,1/5,35,136.0
2165,C#4,286.75,1/5,36,136.0
2166,G#5,287.0,1.0,56,136.0
2167,F4,287.0,1/5,37,136.0
2168,B4,287.25,1/5,38,136.0
2169,C#5,287.5,1/5,36,136.0
2170,A5,287.875,0.062,52,136.0
2171,B5,287.938,0.062,52,136.0
2172,A5,288.0,0.25,60,136.0
2173,F#2,288.0,0.5,44,136.0
2174,G#5,288.25,0.188,45,136.0
2175,C#5,288.5,0.5,49,136.0
2176,F#5,288.5,0.25,60,136.0
2177,F#4,288.5,0.5,35,136.0
2178,C#4,288.5,0.5,35,136.0
2179,A4,288.5,0.5,35,136.0
2180,A5,288.75,0.188,45,136.0
2181,G#5,288.875,0.062,53,136.0
2182,A5,288.938,0.062,53,136.0
2183,G#5,289.0,0.25,61,136.0
2184,C#2,289.0,0.5,37,136.0
2185,F#5,289.25,0.25,45,136.0
2186,F5,289.5,0.25,58,136.0
2187,C#5,289.5,0.5,49,136.0
2188,F4,289.5,0.5,36,136.0
2189,B3,289.5,0.5,36,136.0
2190,G#4,289.5,0.5,36,136.0
2191,G#5,289.75,0.25,45,136.0
2192,F#5,290.0,0.438,58,136.0
2193,F#2,290.0,0.5,44,136.0
2194,F#5,290.375,0.125,43,136.0
2195,G#5,290.438,0.062,44,136.0
2196,C#5,290.5,1.0,49,136.0
2197,F#5,290.5,0.375,49,136.0
2198,B-3,290.5,1.5,36,136.0
2199,B-4,290.5,1.5,36,136.0
2200,F#4,290.5,1.5,36,136.0
2201,F5,290.875,0.125,49,136.0
2202,F#5,291.0,1.0,53,136.0
2203,C#5,291.875,83/1000,46,136.0
2204,C#6,291.875,83/1000,46,136.0
2205,A2,292.0,1/5,44,136.0
2206,C#6,292.0,0.25,56,136.0
2207,C#5,292.0,0.25,56,136.0
2208,E3,292.25,1/5,34,136.0
2209,C#7,292.25,0.188,48,136.0
2210,C#6,292.25,0.188,48,136.0
2211,A3,292.5,1/5,36,136.0
2212,C#6,292.5,0.25,56,136.0
2213,C#7,292.5,0.25,56,136.0
2214,C#4,292.75,1/5,38,136.0
2215,B6,292.75,0.188,49,136.0
2216,B5,292.75,0.188,49,136.0
2217,E4,293.0,1/5,40,136.0
2218,B6,293.0,0.25,56,136.0
2219,B5,293.0,0.25,56,136.0
2220,A4,293.25,1/5,42,136.0
2221,A5,293.25,0.188,49,136.0
2222,A6,293.25,0.188,49,136.0
2223,C#5,293.5,1/5,44,136.0
2224,A5,293.5,0.25,56,136.0
2225,A6,293.5,0.25,56,136.0
2226,G#5,293.75,0.25,50,136.0
2227,G#6,293.75,0.25,50,136.0
2228,G#2,294.0,1/5,44,136.0
2229,B6,294.0,0.25,64,136.0
2230,B5,294.0,0.25,64,136.0
2231,F3,294.25,1/5,34,136.0
2232,A5,294.438,0.281,48,136.0
2233,C#6,294.438,0.281,48,136.0
2234,A6,294.5,0.25,60,136.0
2235,B3,294.5,1/5,35,136.0
2236,C#4,294.75,1/5,36,136.0
2237,G#5,294.938,1.031,52,136.0
2238,C#6,294.938,1.031,52,136.0
2239,G#6,295.0,1.0,66,136.0
2240,F4,295.0,1/5,37,136.0
2241,B4,295.25,1/5,38,136.0
2242,C#5,295.5,1/5,36,136.0
2243,F#2,296.0,1/5,44,136.0
2244,B6,296.0,0.25,64,136.0
2245,B5,296.0,0.25,64,136.0
2246,C#3,296.25,1/5,42,136.0
2247,A5,296.25,0.188,50,136.0
2248,A6,296.25,0.188,50,136.0
2249,F#3,296.5,1/5,41,136.0
2250,A5,296.5,0.188,62,136.0
2251,A6,296.5,0.188,62,136.0
2252,A3,296.75,1/5,41,136.0
2253,G#5,296.75,0.25,54,136.0
2254,G#6,296.75,0.25,54,136.0
2255,A6,296.938,0.062,57,136.0
2256,C#4,297.0,1/5,40,136.0
2257,G#6,297.0,0.125,61,136.0
2258,G#5,297.0,0.125,61,136.0
2259,F#4,297.25,1/5,39,136.0
2260,F#6,297.25,0.188,46,136.0
2261,F#5,297.25,0.188,46,136.0
2262,A4,297.5,1/5,38,136.0
2263,F#6,297.5,0.25,58,136.0
2264,F#5,297.5,0.25,58,136.0
2265,F6,297.75,0.25,43,136.0
2266,F5,297.75,0.25,43,136.0
2267,C#2,298.0,1/5,44,136.0
2268,G#6,298.0,0.25,58,136.0
2269,G#5,298.0,0.25,58,136.0
2270,C#3,298.25,1/5,34,136.0
2271,F5,298.406,0.312,48,136.0
2272,G#5,298.406,0.312,48,136.0
2273,C#6,298.469,0.25,56,136.0
2274,F6,298.469,0.25,56,136.0
2275,F3,298.5,1/5,35,136.0
2276,G#3,298.75,1/5,36,136.0
2277,C#5,298.906,0.938,43,136.0
2278,F5,298.906,0.938,43,136.0
2279,G#5,298.969,0.875,50,136.0
2280,C#6,298.969,0.875,50,136.0
2281,C#4,299.0,1/5,37,136.0
2282,F4,299.25,1/5,38,136.0
2283,G#4,299.5,1/5,36,136.0
2284,C#5,299.875,83/1000,50,136.0
2285,C#6,299.875,83/1000,50,136.0
2286,A2,300.0,1/5,44,136.0
2287,C#6,300.0,0.25,61,136.0
2288,C#5,300.0,0.25,61,136.0
2289,E3,300.25,1/5,34,136.0
2290,C#6,300.25,0.188,54,136.0
2291,C#7,300.25,0.188,54,136.0
2292,A3,300.5,1/5,35,136.0
2293,C#6,300.5,0.25,62,136.0
2294,C#7,300.5,0.25,62,136.0
2295,C#4,300.75,1/5,36,136.0
2296,B6,300.75,0.188,54,136.0
2297,B5,300.75,0.188,54,136.0
2298,E4,301.0,1/5,37,136.0
2299,B6,301.0,0.25,60,136.0
2300,B5,301.0,0.25,60,136.0
2301,A4,301.25,1/5,38,136.0
2302,A6,301.25,0.188,48,136.0
2303,A5,301.25,0.188,48,136.0
2304,C#5,301.5,1/5,36,136.0
2305,A5,301.5,0.25,52,136.0
2306,A6,301.5,0.25,52,136.0
2307,G#6,301.75,0.25,48,136.0
2308,G#5,301.75,0.25,48,136.0
2309,G#2,302.0,1/5,44,136.0
2310,B5,302.0,0.25,60,136.0
2311,B6,302.0,0.25,60,136.0
2312,F3,302.25,1/5,34,136.0
2313,A5,302.438,0.281,48,136.0
2314,C#6,302.438,0.281,48,136.0
2315,A6,302.5,0.25,49,136.0
2316,B3,302.5,1/5,31,136.0
2317,C#4,302.75,1/5,32,136.0
2318,G#5,302.938,1.031,50,136.0
2319,C#6,302.938,1.031,50,136.0
2320,G#6,303.0,1.0,57,136.0
2321,F4,303.0,1/5,33,136.0
2322,B4,303.25,1/5,34,136.0
2323,C#5,303.5,1/5,32,136.0
2324,F#2,304.0,0.5,33,136.0
2325,A6,304.0,0.25,48,136.0
2326,A5,304.0,0.25,48,136.0
2327,G#5,304.25,0.188,36,136.0
2328,G#6,304.25,0.188,36,136.0
2329,C#6,304.5,0.5,36,136.0
2330,F#6,304.5,0.25,48,136.0
2331,F#5,304.5,0.25,48,136.0
2332,C#4,304.5,0.5,26,136.0
2333,A4,304.5,0.5,26,136.0
2334,F#4,304.5,0.5,26,136.0
2335,A5,304.75,26/125,36,136.0
2336,A6,304.75,26/125,36,136.0
2337,C#2,305.0,0.5,27,136.0
2338,G#5,305.0,0.25,48,136.0
2339,G#6,305.0,0.25,48,136.0
2340,F#5,305.25,0.25,36,136.0
2341,F#6,305.25,0.25,36,136.0
2342,C#6,305.5,0.5,36,136.0
2343,F6,305.5,0.25,46,136.0
2344,F5,305.5,0.25,46,136.0
2345,F4,305.5,0.5,27,136.0
2346,B3,305.5,0.5,27,136.0
2347,G#4,305.5,0.5,27,136.0
2348,G#6,305.75,0.25,36,136.0
2349,G#5,305.75,0.25,36,136.0
2350,F#2,306.0,0.5,33,136.0
2351,F#5,306.0,0.5,46,136.0
2352,F#6,306.0,0.5,46,136.0
2353,B-3,306.406,1.562,27,136.0
2354,C#4,306.406,1.562,27,136.0
2355,F#4,306.469,1.5,27,136.0
2356,B-4,306.469,1.5,27,136.0
2357,C#6,306.5,0.5,36,136.0
2358,F#6,306.5,0.375,39,136.0
2359,F#5,306.5,0.375,39,136.0
2360,F5,306.875,0.125,39,136.0
2361,F6,306.875,0.125,39,136.0
2362,C#6,307.0,1.0,41,136.0
2363,F#6,307.0,1.0,41,136.0
2364,F#5,307.0,1.0,41,136.0
2365,G#3,308.0,0.125,46,136.0
2366,E3,308.0,0.125,46,136.0
2367,C#3,308.0,1/5,50,136.0
2368,C#2,308.0,1/5,50,136.0
2369,C#4,308.125,0.125,42,136.0
2370,E3,308.25,0.125,42,136.0
2371,G#3,308.25,0.125,42,136.0
2372,C3,308.25,1/5,44,136.0
2373,C2,308.25,1/5,44,136.0
2374,C#4,308.375,0.125,43,136.0
2375,G#3,308.5,0.125,42,136.0
2376,E3,308.5,0.125,42,136.0
2377,B1,308.5,1/5,44,136.0
2378,B2,308.5,1/5,44,136.0
2379,C#4,308.625,0.125,43,136.0
2380,E3,308.75,0.125,42,136.0
2381,G#3,308.75,0.125,42,136.0
2382,B-2,308.75,1/5,44,136.0
2383,B-1,308.75,1/5,44,136.0
2384,C#4,308.875,0.125,42,136.0
2385,G#3,309.0,0.125,46,136.0
2386,E3,309.0,0.125,46,136.0
2387,A2,309.0,1/5,44,136.0
2388,A1,309.0,1/5,44,136.0
2389,C#4,309.125,0.125,42,136.0
2390,E3,309.25,0.125,42,136.0
2391,G#3,309.25,0.125,42,136.0
2392,G#1,309.25,1/5,44,136.0
2393,G#2,309.25,1/5,44,136.0
2394,C#4,309.375,0.125,41,136.0
2395,E3,309.5,0.125,42,136.0
2396,G#3,309.5,0.125,42,136.0
2397,G2,309.5,1/5,47,136.0
2398,G1,309.5,1/5,47,136.0
2399,C#4,309.625,0.125,41,136.0
2400,G#3,309.75,0.125,42,136.0
2401,E3,309.75,0.125,42,136.0
2402,G#2,309.75,1/5,50,136.0
2403,G#1,309.75,1/5,50,136.0
2404,C#4,309.875,0.125,40,136.0
2405,F#3,310.0,0.125,44,136.0
2406,A3,310.0,0.125,44,136.0
2407,A1,310.0,1/5,52,136.0
2408,A2,310.0,1/5,52,136.0
2409,F#4,310.125,0.125,42,136.0
2410,A3,310.25,0.125,42,136.0
2411,F#3,310.25,0.125,42,136.0
2412,G#2,310.25,1/5,50,136.0
2413,G#1,310.25,1/5,50,136.0
2414,F#4,310.375,0.125,42,136.0
2415,F#3,310.5,0.125,42,136.0
2416,A3,310.5,0.125,42,136.0
2417,G2,310.5,1/5,44,136.0
2418,G1,310.5,1/5,44,136.0
2419,F#4,310.625,0.125,41,136.0
2420,F#3,310.75,0.125,42,136.0
2421,A3,310.75,0.125,42,136.0
2422,F#2,310.75,1/5,44,136.0
2423,F#1,310.75,1/5,44,136.0
2424,F#4,310.875,0.125,42,136.0
2425,A3,311.0,0.125,42,136.0
2426,F#3,311.0,0.125,42,136.0
2427,F1,311.0,1/5,44,136.0
2428,F2,311.0,1/5,44,136.0
2429,F#4,311.125,0.125,42,136.0
2430,F#3,311.25,0.125,42,136.0
2431,A3,311.25,0.125,42,136.0
2432,E2,311.25,1/5,44,136.0
2433,E1,311.25,1/5,44,136.0
2434,F#4,311.375,0.125,42,136.0
2435,A3,311.5,0.125,42,136.0
2436,F#3,311.5,0.125,42,136.0
2437,E-2,311.5,1/5,44,136.0
2438,E-1,311.5,1/5,44,136.0
2439,F#4,311.625,0.125,41,136.0
2440,F#3,311.75,0.125,42,136.0
2441,A3,311.75,0.125,42,136.0
2442,C1,311.75,1/5,44,136.0
2443,C2,311.75,1/5,44,136.0
2444,F#4,311.875,0.125,42,136.0
2445,E3,312.0,0.125,46,136.0
2446,G#3,312.0,0.125,46,136.0
2447,C#1,312.0,1/5,50,136.0
2448,C#2,312.0,1/5,50,136.0
2449,E4,312.125,0.125,42,136.0
2450,G#3,312.25,0.125,42,136.0
2451,E3,312.25,0.125,42,136.0
2452,D2,312.25,1/5,43,136.0
2453,D1,312.25,1/5,43,136.0
2454,E4,312.375,0.125,44,136.0
2455,E3,312.5,0.125,42,136.0
2456,G#3,312.5,0.125,42,136.0
2457,E-2,312.5,1/5,46,136.0
2458,E-1,312.5,1/5,46,136.0
2459,E4,312.625,0.125,45,136.0
2460,E3,312.75,0.125,44,136.0
2461,G#3,312.75,0.125,44,136.0
2462,E1,312.75,1/5,48,136.0
2463,E2,312.75,1/5,48,136.0
2464,E4,312.875,0.125,45,136.0
2465,D3,313.0,0.125,50,136.0
2466,F#3,313.0,0.125,50,136.0
2467,F2,313.0,1/5,54,136.0
2468,F1,313.0,1/5,54,136.0
2469,D4,313.125,0.125,46,136.0
2470,D3,313.25,0.125,46,136.0
2471,F#3,313.25,0.125,46,136.0
2472,F#2,313.25,1/5,50,136.0
2473,F#1,313.25,1/5,50,136.0
2474,D4,313.375,0.125,48,136.0
2475,F#3,313.5,0.125,47,136.0
2476,D3,313.5,0.125,47,136.0
2477,F1,313.5,1/5,54,136.0
2478,F2,313.5,1/5,54,136.0
2479,D4,313.625,0.125,49,136.0
2480,D3,313.75,0.125,47,136.0
2481,F#3,313.75,0.125,47,136.0
2482,F#2,313.75,1/5,52,136.0
2483,F#1,313.75,1/5,52,136.0
2484,D4,313.875,0.125,49,136.0
2485,E3,314.0,0.125,54,136.0
2486,C#3,314.0,0.125,54,136.0
2487,G2,314.0,1/5,59,136.0
2488,G1,314.0,1/5,59,136.0
2489,C#4,314.125,0.125,50,136.0
2490,E3,314.25,0.125,50,136.0
2491,C#3,314.25,0.125,50,136.0
2492,G#1,314.25,1/5,56,136.0
2493,G#2,314.25,1/5,56,136.0
2494,C#4,314.375,0.125,52,136.0
2495,C#3,314.5,0.125,50,136.0
2496,E3,314.5,0.125,50,136.0
2497,G2,314.5,1/5,60,136.0
2498,G1,314.5,1/5,60,136.0
2499,C#4,314.625,0.125,53,136.0
2500,E3,314.75,0.125,51,136.0
2501,C#3,314.75,0.125,51,136.0
2502,G#2,314.75,1/5,54,136.0
2503,G#1,314.75,1/5,54,136.0
2504,C#4,314.875,0.125,53,136.0
2505,E-3,315.0,0.125,58,136.0
2506,F#3,315.0,0.125,58,136.0
2507,A1,315.0,1/5,68,136.0
2508,A2,315.0,1/5,68,136.0
2509,C4,315.125,0.125,54,136.0
2510,F#3,315.25,0.125,52,136.0
2511,E-3,315.25,0.125,52,136.0
2512,G#2,315.25,1/5,58,136.0
2513,G#1,315.25,1/5,58,136.0
2514,C4,315.375,0.125,56,136.0
2515,F#3,315.5,0.125,54,136.0
2516,E-3,315.5,0.125,54,136.0
2517,A2,315.5,1/5,68,136.0
2518,A1,315.5,1/5,68,136.0
2519,C4,315.625,0.125,57,136.0
2520,E-3,315.75,0.125,56,136.0
2521,F#3,315.75,0.125,56,136.0
2522,G#1,315.75,1/5,62,136.0
2523,G#2,315.75,1/5,62,136.0
2524,C4,315.875,0.125,57,136.0
2525,C#4,316.0,0.25,81,136.0
2526,C#3,316.0,0.25,81,136.0
2527,E3,316.0,0.25,81,136.0
2528,C#2,316.0,0.25,82,136.0
2529,C#1,316.0,0.25,82,136.0
2530,C#4,317.0,11/100,78,136.0
2531,A3,317.0,11/100,78,136.0
2532,F#3,317.0,0.25,80,136.0
2533,F#2,317.0,0.25,80,136.0
2534,C#3,317.0,0.25,80,136.0
2535,F#4,317.11,11/100,67,136.0
2536,A4,317.221,11/100,69,136.0
2537,C#5,317.331,11/100,71,136.0
2538,F#5,317.44,11/100,73,136.0
2539,A5,317.55,11/100,75,136.0
2540,C#6,317.66,11/100,77,136.0
2541,F#6,317.771,11/100,79,136.0
2542,A6,317.879,121/1000,81,136.0
2543,G#6,318.0,0.25,93,136.0
2544,C#6,318.0,0.25,93,136.0
2545,C#7,318.0,0.25,93,136.0
2546,E3,318.0,0.25,80,136.0
2547,C#2,318.0,0.25,80,136.0
2548,G#2,318.0,0.25,80,136.0
2549,E-4,320.0,0.125,46,136.0
2550,B3,320.0,0.125,46,136.0
2551,G#3,320.0,1/5,50,136.0
2552,G#2,320.0,1/5,50,136.0
2553,G#4,320.125,0.125,42,136.0
2554,B3,320.25,0.125,42,136.0
2555,E-4,320.25,0.125,42,136.0
2556,G2,320.25,1/5,44,136.0
2557,G3,320.25,1/5,44,136.0
2558,G#4,320.375,0.125,43,136.0
2559,B3,320.5,0.125,42,136.0
2560,E-4,320.5,0.125,42,136.0
2561,F#3,320.5,1/5,44,136.0
2562,F#2,320.5,1/5,44,136.0
2563,G#4,320.625,0.125,43,136.0
2564,B3,320.75,0.125,42,136.0
2565,E-4,320.75,0.125,42,136.0
2566,F3,320.75,1/5,44,136.0
2567,F2,320.75,1/5,44,136.0
2568,G#4,320.875,0.125,42,136.0
2569,B3,321.0,0.125,46,136.0
2570,E-4,321.0,0.125,46,136.0
2571,E2,321.0,1/5,44,136.0
2572,E3,321.0,1/5,44,136.0
2573,G#4,321.125,0.125,42,136.0
2574,E-4,321.25,0.125,42,136.0
2575,B3,321.25,0.125,42,136.0
2576,E-3,321.25,1/5,44,136.0
2577,E-2,321.25,1/5,44,136.0
2578,G#4,321.375,0.125,41,136.0
2579,B3,321.5,0.125,42,136.0
2580,E-4,321.5,0.125,42,136.0
2581,D3,321.5,1/5,47,136.0
2582,D2,321.5,1/5,47,136.0
2583,G#4,321.625,0.125,41,136.0
2584,E-4,321.75,0.125,42,136.0
2585,B3,321.75,0.125,42,136.0
2586,E-2,321.75,1/5,50,136.0
2587,E-3,321.75,1/5,50,136.0
2588,G#4,321.875,0.125,40,136.0
2589,E4,322.0,0.125,44,136.0
2590,C#4,322.0,0.125,44,136.0
2591,E3,322.0,1/5,52,136.0
2592,E2,322.0,1/5,52,136.0
2593,C#5,322.125,0.125,42,136.0
2594,C#4,322.25,0.125,42,136.0
2595,E4,322.25,0.125,42,136.0
2596,E-3,322.25,1/5,50,136.0
2597,E-2,322.25,1/5,50,136.0
2598,C#5,322.375,0.125,42,136.0
2599,E4,322.5,0.125,42,136.0
2600,C#4,322.5,0.125,42,136.0
2601,D2,322.5,1/5,44,136.0
2602,D3,322.5,1/5,44,136.0
2603,C#5,322.625,0.125,41,136.0
2604,C#4,322.75,0.125,42,136.0
2605,E4,322.75,0.125,42,136.0
2606,C#3,322.75,1/5,44,136.0
2607,C#2,322.75,1/5,44,136.0
2608,C#5,322.875,0.125,42,136.0
2609,E4,323.0,0.125,42,136.0
2610,C#4,323.0,0.125,42,136.0
2611,C3,323.0,1/5,44,136.0
2612,C2,323.0,1/5,44,136.0
2613,C#5,323.125,0.125,42,136.0
2614,E4,323.25,0.125,42,136.0
2615,C#4,323.25,0.125,42,136.0
2616,B1,323.25,1/5,44,136.0
2617,B2,323.25,1/5,44,136.0
2618,C#5,323.375,0.125,42,136.0
2619,C#4,323.5,0.125,42,136.0
2620,E4,323.5,0.125,42,136.0
2621,B-2,323.5,1/5,44,136.0
2622,B-1,323.5,1/5,44,136.0
2623,C#5,323.625,0.125,41,136.0
2624,E4,323.75,0.125,42,136.0
2625,C#4,323.75,0.125,42,136.0
2626,G2,323.75,1/5,44,136.0
2627,G1,323.75,1/5,44,136.0
2628,C#5,323.875,0.125,42,136.0
2629,B3,324.0,0.125,46,136.0
2630,E-4,324.0,0.125,46,136.0
2631,G#1,324.0,1/5,50,136.0
2632,G#2,324.0,1/5,50,136.0
2633,B4,324.125,0.125,42,136.0
2634,E-4,324.25,0.125,42,136.0
2635,B3,324.25,0.125,42,136.0
2636,A2,324.25,1/5,43,136.0
2637,A1,324.25,1/5,43,136.0
2638,B4,324.375,0.125,44,136.0
2639,E-4,324.5,0.125,42,136.0
2640,B3,324.5,0.125,42,136.0
2641,B-2,324.5,1/5,46,136.0
2642,B-1,324.5,1/5,46,136.0
2643,B4,324.625,0.125,45,136.0
2644,B3,324.75,0.125,44,136.0
2645,E-4,324.75,0.125,44,136.0
2646,B1,324.75,1/5,48,136.0
2647,B2,324.75,1/5,48,136.0
2648,B4,324.875,0.125,45,136.0
2649,C#4,325.0,0.125,50,136.0
2650,A3,325.0,0.125,50,136.0
2651,C3,325.0,1/5,54,136.0
2652,C2,325.0,1/5,54,136.0
2653,A4,325.125,0.125,46,136.0
2654,A3,325.25,0.125,46,136.0
2655,C#4,325.25,0.125,46,136.0
2656,C#3,325.25,1/5,50,136.0
2657,C#2,325.25,1/5,50,136.0
2658,A4,325.375,0.125,48,136.0
2659,A3,325.5,0.125,47,136.0
2660,C#4,325.5,0.125,47,136.0
2661,C2,325.5,1/5,54,136.0
2662,C3,325.5,1/5,54,136.0
2663,A4,325.625,0.125,49,136.0
2664,A3,325.75,0.125,47,136.0
2665,C#4,325.75,0.125,47,136.0
2666,C#3,325.75,1/5,52,136.0
2667,C#2,325.75,1/5,52,136.0
2668,A4,325.875,0.125,49,136.0
2669,G#3,326.0,0.125,54,136.0
2670,B3,326.0,0.125,54,136.0
2671,D3,326.0,1/5,59,136.0
2672,D2,326.0,1/5,59,136.0
2673,G#4,326.125,0.125,50,136.0
2674,G#3,326.25,0.125,50,136.0
2675,B3,326.25,0.125,50,136.0
2676,E-3,326.25,1/5,56,136.0
2677,E-2,326.25,1/5,56,136.0
2678,G#4,326.375,0.125,52,136.0
2679,B3,326.5,0.125,50,136.0
2680,G#3,326.5,0.125,50,136.0
2681,D3,326.5,1/5,60,136.0
2682,D2,326.5,1/5,60,136.0
2683,G#4,326.625,0.125,53,136.0
2684,G#3,326.75,0.125,51,136.0
2685,B3,326.75,0.125,51,136.0
2686,E-3,326.75,1/5,54,136.0
2687,E-2,326.75,1/5,54,136.0
2688,G#4,326.875,0.125,53,136.0
2689,C#4,327.0,0.125,58,136.0
2690,B-3,327.0,0.125,58,136.0
2691,E3,327.0,1/5,68,136.0
2692,E2,327.0,1/5,68,136.0
2693,G4,327.125,0.125,54,136.0
2694,B-3,327.25,0.125,52,136.0
2695,C#4,327.25,0.125,52,136.0
2696,E-2,327.25,1/5,58,136.0
2697,E-3,327.25,1/5,58,136.0
2698,G4,327.375,0.125,56,136.0
2699,B-3,327.5,0.125,54,136.0
2700,C#4,327.5,0.125,54,136.0
2701,E3,327.5,1/5,68,136.0
2702,E2,327.5,1/5,68,136.0
2703,G4,327.625,0.125,57,136.0
2704,C#4,327.75,0.125,56,136.0
2705,B-3,327.75,0.125,56,136.0
2706,E-3,327.75,1/5,62,136.0
2707,E-2,327.75,1/5,62,136.0
2708,G4,327.875,0.125,57,136.0
2709,G#3,328.0,0.25,81,136.0
2710,G#4,328.0,0.25,81,136.0
2711,B3,328.0,0.25,81,136.0
2712,G#1,328.0,0.25,82,136.0
2713,G#2,328.0,0.25,82,136.0
2714,E4,329.0,11/100,78,136.0
2715,G#4,329.0,11/100,78,136.0
2716,G#3,329.0,0.25,80,136.0
2717,C#4,329.0,0.25,80,136.0
2718,C#3,329.0,0.25,80,136.0
2719,C#5,329.11,11/100,67,136.0
2720,E5,329.221,11/100,69,136.0
2721,G#5,329.331,11/100,71,136.0
2722,C#6,329.44,11/100,73,136.0
2723,E6,329.55,11/100,75,136.0
2724,G#6,329.66,11/100,77,136.0
2725,C#7,329.771,11/100,79,136.0
2726,E7,329.879,121/1000,81,136.0
2727,G#6,330.0,0.25,93,136.0
2728,G#7,330.0,0.25,93,136.0
2729,E-7,330.0,0.25,93,136.0
2730,E-3,330.0,0.25,80,136.0
2731,B3,330.0,0.25,80,136.0
2732,G#2,330.0,0.25,80,136.0
2733,B2,331.75,0.25,64,136.0
2734,B1,331.75,0.25,64,136.0
2735,G#5,332.0,1.75,91,136.0
2736,G#4,332.0,1.75,91,136.0
2737,E3,332.0,0.25,72,136.0
2738,E2,332.0,0.25,72,136.0
2739,G#3,332.75,0.25,63,136.0
2740,E4,332.75,0.25,63,136.0
2741,B3,332.75,0.25,63,136.0
2742,G#3,333.0,0.5,68,136.0
2743,E4,333.0,0.5,68,136.0
2744,B3,333.0,0.5,68,136.0
2745,A5,333.75,0.125,70,136.0
2746,A4,333.75,0.125,70,136.0
2747,B1,333.75,0.25,62,136.0
2748,B2,333.75,0.25,62,136.0
2749,B5,333.875,0.125,70,136.0
2750,B4,333.875,0.125,70,136.0
2751,E4,334.0,1.5,85,136.0
2752,E5,334.0,1.5,85,136.0
2753,E3,334.0,0.25,65,136.0
2754,E2,334.0,0.25,65,136.0
2755,B3,334.75,0.25,67,136.0
2756,G#3,334.75,0.25,67,136.0
2757,G#3,335.0,0.5,71,136.0
2758,B3,335.0,0.5,71,136.0
2759,E-4,335.75,0.25,70,136.0
2760,E-5,335.75,0.25,70,136.0
2761,B2,335.75,0.25,76,136.0
2762,B1,335.75,0.25,76,136.0
2763,F#4,336.0,1167/1000,80,136.0
2764,F#5,336.0,1167/1000,80,136.0
2765,E-3,336.0,0.25,85,136.0
2766,E-2,336.0,0.25,85,136.0
2767,B3,336.75,0.25,66,136.0
2768,A3,336.75,0.25,66,136.0
2769,A3,337.0,0.5,70,136.0
2770,B3,337.0,0.5,70,136.0
2771,E4,337.167,167/1000,70,136.0
2772,E5,337.167,167/1000,70,136.0
2773,F#4,337.333,167/1000,76,136.0
2774,F#5,337.333,167/1000,76,136.0
2775,G#5,337.5,167/1000,76,136.0
2776,G#4,337.5,167/1000,76,136.0
2777,F#5,337.667,0.125,72,136.0
2778,F#4,337.667,0.125,72,136.0
2779,B1,337.875,0.125,73,136.0
2780,B2,337.875,0.125,73,136.0
2781,E4,337.917,0.062,72,136.0
2782,E5,337.917,0.062,72,136.0
2783,E4,338.0,1.5,84,136.0
2784,E5,338.0,1.5,84,136.0
2785,E2,338.0,0.25,77,136.0
2786,E3,338.0,0.25,77,136.0
2787,B3,338.75,0.25,70,136.0
2788,G#3,338.75,0.25,70,136.0
2789,B3,339.0,0.5,75,136.0
2790,G#3,339.0,0.5,75,136.0
2791,G#4,339.75,0.188,74,136.0
2792,E5,339.75,0.188,74,136.0
2793,G#5,339.75,0.188,74,136.0
2794,B2,339.75,0.25,76,136.0
2795,B1,339.75,0.25,76,136.0
2796,G#5,340.0,1.0,83,136.0
2797,E5,340.0,1.0,83,136.0
2798,G#4,340.0,1.0,83,136.0
2799,E3,340.0,0.25,85,136.0
2800,E2,340.0,0.25,85,136.0
2801,G#4,341.0,333/1000,74,136.0
2802,G#5,341.0,333/1000,74,136.0
2803,E4,341.0,333/1000,58,136.0
2804,E3,341.0,333/1000,58,136.0
2805,A5,341.333,333/1000,76,136.0
2806,A4,341.333,333/1000,76,136.0
2807,F#3,341.333,333/1000,61,136.0
2808,F#4,341.333,333/1000,61,136.0
2809,B5,341.667,333/1000,81,136.0
2810,B4,341.667,333/1000,81,136.0
2811,G#3,341.667,333/1000,64,136.0
2812,G#4,341.667,333/1000,64,136.0
2813,C#5,342.0,1.0,79,136.0
2814,C#6,342.0,1.0,79,136.0
2815,A3,342.0,1.0,62,136.0
2816,A4,342.0,1.0,62,136.0
2817,C#4,343.0,333/1000,80,136.0
2818,E4,343.0,333/1000,80,136.0
2819,C#5,343.0,333/1000,80,136.0
2820,A2,343.0,333/1000,64,136.0
2821,A3,343.0,333/1000,64,136.0
2822,E3,343.0,333/1000,64,136.0
2823,B4,343.333,333/1000,75,136.0
2824,B3,343.333,333/1000,75,136.0
2825,E4,343.333,333/1000,75,136.0
2826,G#2,343.333,333/1000,60,136.0
2827,G#3,343.333,333/1000,60,136.0
2828,E3,343.333,333/1000,60,136.0
2829,E4,343.667,333/1000,71,136.0
2830,B-4,343.667,333/1000,71,136.0
2831,B-3,343.667,333/1000,71,136.0
2832,E3,343.667,333/1000,55,136.0
2833,G2,343.667,333/1000,55,136.0
2834,G3,343.667,333/1000,55,136.0
2835,B3,344.0,1.0,83,136.0
2836,E4,344.0,1.0,83,136.0
2837,B4,344.0,1.0,83,136.0
2838,E3,344.0,1.0,75,136.0
2839,G#2,344.0,1.0,75,136.0
2840,G#3,344.0,1.0,75,136.0
2841,G#3,345.0,1.0,77,136.0
2842,E4,345.0,0.75,77,136.0
2843,E3,345.0,0.75,77,136.0
2844,G#2,345.0,1.0,75,136.0
2845,C#2,345.0,1.0,75,136.0
2846,C#3,345.0,1.0,75,136.0
2847,E-4,345.75,0.25,77,136.0
2848,E-3,345.75,0.25,77,136.0
2849,E-4,346.0,1167/1000,77,136.0
2850,E-3,346.0,1167/1000,77,136.0
2851,A3,346.0,1167/1000,77,136.0
2852,F#2,346.0,1.5,74,136.0
2853,B1,346.0,1.5,74,136.0
2854,A2,346.0,1.5,74,136.0
2855,B2,346.0,1.5,74,136.0
2856,E4,347.152,167/1000,70,136.0
2857,E3,347.152,167/1000,70,136.0
2858,F#3,347.319,167/1000,76,136.0
2859,F#4,347.319,167/1000,76,136.0
2860,G#4,347.485,167/1000,76,136.0
2861,G#3,347.485,167/1000,76,136.0
2862,F#4,347.652,0.125,72,136.0
2863,F#3,347.652,0.125,72,136.0
2864,E1,347.875,83/1000,66,136.0
2865,E2,347.875,83/1000,66,136.0
2866,E3,347.902,83/1000,72,136.0
2867,E4,347.902,83/1000,72,136.0
2868,E4,348.0,167/1000,71,136.0
2869,E3,348.0,167/1000,71,136.0
2870,E2,348.0,167/1000,77,136.0
2871,E1,348.0,167/1000,77,136.0
2872,G#3,348.167,167/1000,72,136.0
2873,G#2,348.167,167/1000,68,136.0
2874,B3,348.333,167/1000,73,136.0
2875,B2,348.333,167/1000,70,136.0
2876,E4,348.5,167/1000,74,136.0
2877,E3,348.5,167/1000,71,136.0
2878,G#4,348.667,167/1000,75,136.0
2879,G#3,348.667,167/1000,73,136.0
2880,B4,348.833,167/1000,75,136.0
2881,B3,348.833,167/1000,75,136.0
2882,E5,349.0,167/1000,77,136.0
2883,E4,349.0,167/1000,78,136.0
2884,G#5,349.167,167/1000,78,136.0
2885,B3,349.167,167/1000,79,136.0
2886,B5,349.333,167/1000,79,136.0
2887,G#3,349.333,167/1000,81,136.0
2888,E6,349.5,167/1000,80,136.0
2889,E3,349.5,167/1000,82,136.0
2890,G#6,349.667,167/1000,81,136.0
2891,B2,349.667,167/1000,84,136.0
2892,B6,349.833,167/1000,82,136.0
2893,G#2,349.833,167/1000,86,136.0
2894,G#6,350.0,0.25,93,136.0
2895,E6,350.0,0.25,93,136.0
2896,E7,350.0,0.25,93,136.0
2897,E2,350.0,0.25,84,136.0
2898,E3,350.0,0.25,84,136.0
2899,B2,350.0,0.25,84,136.0
2900,G#1,351.75,0.25,64,136.0
2901,G#2,351.75,0.25,64,136.0
2902,G#5,352.0,1.75,90,136.0
2903,E6,352.0,1.75,90,136.0
2904,E5,352.0,1.75,90,136.0
2905,C#6,352.0,1.75,90,136.0
2906,C#3,352.0,0.25,72,136.0
2907,C#2,352.0,0.25,72,136.0
2908,C#4,352.75,0.188,61,136.0
2909,E4,352.75,0.188,61,136.0
2910,G#4,352.75,0.188,61,136.0
2911,G#3,352.75,0.188,61,136.0
2912,G#3,353.0,0.5,66,136.0
2913,E4,353.0,0.5,66,136.0
2914,G#4,353.0,0.5,66,136.0
2915,C#4,353.0,0.5,66,136.0
2916,F#6,353.75,0.125,74,136.0
2917,F#5,353.75,0.125,74,136.0
2918,G#1,353.75,0.25,62,136.0
2919,G#2,353.75,0.25,62,136.0
2920,G#5,353.875,0.125,74,136.0
2921,G#6,353.875,0.125,74,136.0
2922,C#6,354.0,1.75,88,136.0
2923,C#5,354.0,1.75,88,136.0
2924,C#3,354.0,0.25,65,136.0
2925,C#2,354.0,0.25,65,136.0
2926,E4,354.75,0.188,64,136.0
2927,G#3,354.75,0.188,64,136.0
2928,C#4,354.75,0.188,64,136.0
2929,G#4,354.75,0.188,64,136.0
2930,G#4,355.0,0.5,68,136.0
2931,G#3,355.0,0.5,68,136.0
2932,C#4,355.0,0.5,68,136.0
2933,E4,355.0,0.5,68,136.0
2934,C6,355.75,0.25,74,136.0
2935,C5,355.75,0.25,74,136.0
2936,G#1,355.75,0.25,76,136.0
2937,G#2,355.75,0.25,76,136.0
2938,E-5,356.0,1167/1000,84,136.0
2939,E-6,356.0,1167/1000,84,136.0
2940,C3,356.0,0.25,85,136.0
2941,C2,356.0,0.25,85,136.0
2942,G#4,356.75,0.188,66,136.0
2943,F#4,356.75,0.188,66,136.0
2944,E-4,356.75,0.188,66,136.0
2945,G#3,356.75,0.188,66,136.0
2946,G#3,357.0,0.5,70,136.0
2947,F#4,357.0,0.5,70,136.0
2948,E-4,357.0,0.5,70,136.0
2949,G#4,357.0,0.5,70,136.0
2950,C#5,357.167,167/1000,74,136.0
2951,C#6,357.167,167/1000,74,136.0
2952,E-5,357.333,167/1000,80,136.0
2953,E-6,357.333,167/1000,80,136.0
2954,E6,357.5,167/1000,78,136.0
2955,E5,357.5,167/1000,78,136.0
2956,E-6,357.667,0.125,75,136.0
2957,E-5,357.667,0.125,75,136.0
2958,G#1,357.875,0.125,73,136.0
2959,G#2,357.875,0.125,73,136.0
2960,C#5,357.917,0.062,75,136.0
2961,C#6,357.917,0.062,75,136.0
2962,C#5,358.0,1.5,88,136.0
2963,C#6,358.0,1.5,88,136.0
2964,C#3,358.0,0.25,77,136.0
2965,C#2,358.0,0.25,77,136.0
2966,G#3,358.75,0.188,67,136.0
2967,E4,358.75,0.188,67,136.0
2968,C#4,358.75,0.188,67,136.0
2969,G#4,358.75,0.188,67,136.0
2970,G#4,359.0,0.5,72,136.0
2971,E4,359.0,0.5,72,136.0
2972,C#4,359.0,0.5,72,136.0
2973,G#3,359.0,0.5,72,136.0
2974,F1,359.875,0.125,73,136.0
2975,F3,359.875,0.125,73,136.0
2976,F2,359.875,0.125,73,136.0
2977,F#2,360.0,1.5,83,136.0
2978,F#3,360.0,1.5,83,136.0
2979,F#1,360.0,1.5,83,136.0
2980,C#6,361.875,0.125,72,136.0
2981,C#5,361.875,0.125,72,136.0
2982,A5,361.875,0.125,72,136.0
2983,A3,361.875,0.125,56,136.0
2984,A4,361.875,0.125,56,136.0
2985,C#4,361.875,0.125,56,136.0
2986,A5,362.0,0.375,79,136.0
2987,C#6,362.0,0.375,79,136.0
2988,C#5,362.0,0.375,79,136.0
2989,A3,362.0,0.375,63,136.0
2990,A4,362.0,0.375,63,136.0
2991,C#4,362.0,0.375,63,136.0
2992,B4,362.375,0.125,71,136.0
2993,G#5,362.375,0.125,71,136.0
2994,B5,362.375,0.125,71,136.0
2995,G#3,362.375,0.125,55,136.0
2996,G#4,362.375,0.125,55,136.0
2997,B3,362.375,0.125,55,136.0
2998,G#5,362.5,0.375,77,136.0
2999,B5,362.5,0.375,77,136.0
3000,B4,362.5,0.375,77,136.0
3001,G#3,362.5,0.375,62,136.0
3002,G#4,362.5,0.375,62,136.0
3003,B3,362.5,0.375,62,136.0
3004,A5,362.875,0.125,71,136.0
3005,A4,362.875,0.125,71,136.0
3006,F#5,362.875,0.125,71,136.0
3007,F#3,362.875,0.125,55,136.0
3008,F#4,362.875,0.125,55,136.0
3009,A3,362.875,0.125,55,136.0
3010,A5,363.0,0.5,77,136.0
3011,A4,363.0,0.5,77,136.0
3012,F#5,363.0,0.5,77,136.0
3013,F#3,363.0,0.5,62,136.0
3014,F#4,363.0,0.5,62,136.0
3015,A3,363.0,0.5,62,136.0
3016,C#4,363.875,0.125,82,136.0
3017,C#3,363.875,0.125,69,136.0
3018,C#2,363.875,0.125,69,136.0
3019,D4,364.0,1.5,92,136.0
3020,D3,364.0,1.5,78,136.0
3021,D2,364.0,1.5,78,136.0
3022,F#5,365.875,0.094,72,136.0
3023,A5,365.875,0.094,72,136.0
3024,F#6,365.875,0.094,72,136.0
3025,A4,365.875,0.094,58,136.0
3026,F#4,365.875,0.094,58,136.0
3027,F#6,366.0,0.375,79,136.0
3028,A5,366.0,0.375,79,136.0
3029,F#5,366.0,0.375,79,136.0
3030,F#4,366.0,0.375,64,136.0
3031,A4,366.0,0.375,64,136.0
3032,E5,366.375,0.094,71,136.0
3033,E6,366.375,0.094,71,136.0
3034,G#5,366.375,0.094,71,136.0
3035,G#4,366.375,0.094,57,136.0
3036,E4,366.375,0.094,57,136.0
3037,E5,366.5,0.375,77,136.0
3038,E6,366.5,0.375,77,136.0
3039,G#5,366.5,0.375,77,136.0
3040,G#4,366.5,0.375,64,136.0
3041,E4,366.5,0.375,64,136.0
3042,F#5,366.875,0.094,71,136.0
3043,D5,366.875,0.094,71,136.0
3044,D6,366.875,0.094,71,136.0
3045,D4,366.875,0.094,57,136.0
3046,F#4,366.875,0.094,57,136.0
3047,D5,367.0,0.5,77,136.0
3048,F#5,367.0,0.5,77,136.0
3049,D6,367.0,0.5,77,136.0
3050,F#4,367.0,0.5,64,136.0
3051,D4,367.0,0.5,64,136.0
3052,B-3,367.875,0.125,82,136.0
3053,B-1,367.875,0.125,69,136.0
3054,B-2,367.875,0.125,69,136.0
3055,B3,368.0,1.0,92,136.0
3056,B2,368.0,1.0,78,136.0
3057,B1,368.0,1.0,78,136.0
3058,F#6,368.875,0.094,72,136.0
3059,A6,368.875,0.094,72,136.0
3060,C#6,368.875,0.094,72,136.0
3061,A3,368.875,0.094,56,136.0
3062,A4,368.875,0.094,56,136.0
3063,F#4,368.875,0.094,56,136.0
3064,A6,369.0,0.375,79,136.0
3065,C#6,369.0,0.375,79,136.0
3066,F#6,369.0,0.375,79,136.0
3067,F#4,369.0,0.375,63,136.0
3068,A4,369.0,0.375,63,136.0
3069,A3,369.0,0.375,63,136.0
3070,G#6,369.375,0.094,71,136.0
3071,G#5,369.375,0.094,71,136.0
3072,E6,369.375,0.094,71,136.0
3073,G#4,369.375,0.094,55,136.0
3074,G#3,369.375,0.094,55,136.0
3075,E4,369.375,0.094,55,136.0
3076,E6,369.5,0.375,77,136.0
3077,G#6,369.5,0.375,77,136.0
3078,G#5,369.5,0.375,77,136.0
3079,G#4,369.5,0.375,62,136.0
3080,G#3,369.5,0.375,62,136.0
3081,E4,369.5,0.375,62,136.0
3082,F#5,369.875,0.125,71,136.0
3083,E-6,369.875,0.125,71,136.0
3084,F#6,369.875,0.125,71,136.0
3085,F#4,369.875,0.125,55,136.0
3086,F#3,369.875,0.125,55,136.0
3087,E-4,369.875,0.125,55,136.0
3088,C4,370.0,1.0,92,136.0
3089,C2,370.0,1.0,78,136.0
3090,C3,370.0,1.0,78,136.0
3091,F#6,370.875,0.094,72,136.0
3092,A6,370.875,0.094,72,136.0
3093,C#6,370.875,0.094,72,136.0
3094,F#4,370.875,0.094,56,136.0
3095,A3,370.875,0.094,56,136.0
3096,A4,370.875,0.094,56,136.0
3097,A6,371.0,0.375,79,136.0
3098,C#6,371.0,0.375,79,136.0
3099,F#6,371.0,0.375,79,136.0
3100,F#4,371.0,0.375,63,136.0
3101,A3,371.0,0.375,63,136.0
3102,A4,371.0,0.375,63,136.0
3103,E6,371.375,0.094,71,136.0
3104,G#6,371.375,0.094,71,136.0
3105,G#5,371.375,0.094,71,136.0
3106,E4,371.375,0.094,55,136.0
3107,G#3,371.375,0.094,55,136.0
3108,G#4,371.375,0.094,55,136.0
3109,G#5,371.5,0.375,77,136.0
3110,E6,371.5,0.375,77,136.0
3111,G#6,371.5,0.375,77,136.0
3112,E4,371.5,0.375,62,136.0
3113,G#3,371.5,0.375,62,136.0
3114,G#4,371.5,0.375,62,136.0
3115,F#6,371.875,0.125,71,136.0
3116,F#5,371.875,0.125,71,136.0
3117,E-6,371.875,0.125,71,136.0
3118,E-4,371.875,0.125,55,136.0
3119,F#3,371.875,0.125,55,136.0
3120,F#4,371.875,0.125,55,136.0
3121,G3,372.0,1.0,101,136.0
3122,G2,372.0,1.0,78,136.0
3123,G1,372.0,1.0,78,136.0
3124,E6,372.875,0.094,65,136.0
3125,E7,372.875,0.094,65,136.0
3126,G6,372.875,0.094,65,136.0
3127,B-5,372.875,0.094,54,136.0
3128,G5,372.875,0.094,54,136.0
3129,B-4,372.875,0.094,54,136.0
3130,E7,373.0,0.375,79,136.0
3131,E6,373.0,0.375,79,136.0
3132,G6,373.0,0.375,79,136.0
3133,B-5,373.0,0.375,59,136.0
3134,G5,373.0,0.375,59,136.0
3135,B-4,373.0,0.375,59,136.0
3136,F#6,373.375,0.094,64,136.0
3137,E-7,373.375,0.094,64,136.0
3138,E-6,373.375,0.094,64,136.0
3139,A5,373.375,0.094,53,136.0
3140,F#5,373.375,0.094,53,136.0
3141,A4,373.375,0.094,53,136.0
3142,E-6,373.5,0.375,79,136.0
3143,F#6,373.5,0.375,79,136.0
3144,E-7,373.5,0.375,79,136.0
3145,A5,373.5,0.375,59,136.0
3146,F#5,373.5,0.375,59,136.0
3147,A4,373.5,0.375,59,136.0
3148,C#7,373.875,0.094,74,136.0
3149,E6,373.875,0.094,74,136.0
3150,C#6,373.875,0.094,74,136.0
3151,G5,373.875,0.094,53,136.0
3152,E5,373.875,0.094,53,136.0
3153,G4,373.875,0.094,53,136.0
3154,C#7,374.0,0.375,80,136.0
3155,C#6,374.0,0.375,80,136.0
3156,E6,374.0,0.375,80,136.0
3157,E5,374.0,0.375,65,136.0
3158,G5,374.0,0.375,65,136.0
3159,G4,374.0,0.375,65,136.0
3160,B-6,374.375,0.094,71,136.0
3161,B-5,374.375,0.094,71,136.0
3162,C#6,374.375,0.094,71,136.0
3163,C#5,374.375,0.094,59,136.0
3164,E5,374.375,0.094,59,136.0
3165,E4,374.375,0.094,59,136.0
3166,B-5,374.5,0.375,79,136.0
3167,C#6,374.5,0.375,79,136.0
3168,B-6,374.5,0.375,79,136.0
3169,C#5,374.5,0.375,65,136.0
3170,E5,374.5,0.375,65,136.0
3171,E4,374.5,0.375,65,136.0
3172,C6,374.875,0.094,71,136.0
3173,A5,374.875,0.094,71,136.0
3174,A6,374.875,0.094,71,136.0
3175,C5,374.875,0.094,59,136.0
3176,E-5,374.875,0.094,59,136.0
3177,E-4,374.875,0.094,59,136.0
3178,A5,375.0,0.375,79,136.0
3179,C6,375.0,0.375,79,136.0
3180,A6,375.0,0.375,79,136.0
3181,C5,375.0,0.375,65,136.0
3182,E-5,375.0,0.375,65,136.0
3183,E-4,375.0,0.375,65,136.0
3184,B-5,375.375,0.094,71,136.0
3185,G6,375.375,0.094,71,136.0
3186,G5,375.375,0.094,71,136.0
3187,B-4,375.375,0.094,59,136.0
3188,C#5,375.375,0.094,59,136.0
3189,C#4,375.375,0.094,59,136.0
3190,G6,375.5,0.375,77,136.0
3191,G5,375.5,0.375,77,136.0
3192,B-5,375.5,0.375,77,136.0
3193,B-4,375.5,0.375,65,136.0
3194,C#5,375.5,0.375,65,136.0
3195,C#4,375.5,0.375,65,136.0
3196,E6,375.875,0.094,72,136.0
3197,G5,375.875,0.094,72,136.0
3198,E5,375.875,0.094,72,136.0
3199,G4,375.875,0.094,59,136.0
3200,B-4,375.875,0.094,59,136.0
3201,B-3,375.875,0.094,59,136.0
3202,G5,376.0,0.375,79,136.0
3203,E6,376.0,0.375,79,136.0
3204,E5,376.0,0.375,79,136.0
3205,B-4,376.0,0.375,59,136.0
3206,G4,376.0,0.375,59,136.0
3207,B-3,376.0,0.375,59,136.0
3208,E-5,376.375,0.094,72,136.0
3209,F#5,376.375,0.094,72,136.0
3210,E-6,376.375,0.094,72,136.0
3211,A4,376.375,0.094,53,136.0
3212,F#4,376.375,0.094,53,136.0
3213,A3,376.375,0.094,53,136.0
3214,F#5,376.5,0.375,79,136.0
3215,E-6,376.5,0.375,79,136.0
3216,E-5,376.5,0.375,79,136.0
3217,A4,376.5,0.375,59,136.0
3218,F#4,376.5,0.375,59,136.0
3219,A3,376.5,0.375,59,136.0
3220,C#6,376.875,0.094,64,136.0
3221,C#5,376.875,0.094,64,136.0
3222,E5,376.875,0.094,64,136.0
3223,G4,376.875,0.094,53,136.0
3224,E4,376.875,0.094,53,136.0
3225,G3,376.875,0.094,53,136.0
3226,C#6,377.0,0.375,79,136.0
3227,C#5,377.0,0.375,79,136.0
3228,E5,377.0,0.375,79,136.0
3229,E4,377.0,0.375,65,136.0
3230,G4,377.0,0.375,65,136.0
3231,G3,377.0,0.375,65,136.0
3232,C#5,377.375,0.094,72,136.0
3233,B-5,377.375,0.094,72,136.0
3234,B-4,377.375,0.094,72,136.0
3235,C#4,377.375,0.094,59,136.0
3236,E4,377.375,0.094,59,136.0
3237,E3,377.375,0.094,59,136.0
3238,B-4,377.5,0.375,80,136.0
3239,C#5,377.5,0.375,80,136.0
3240,B-5,377.5,0.375,80,136.0
3241,C#4,377.5,0.375,65,136.0
3242,E3,377.5,0.375,65,136.0
3243,E4,377.5,0.375,65,136.0
3244,C5,377.875,0.094,72,136.0
3245,A5,377.875,0.094,72,136.0
3246,A4,377.875,0.094,72,136.0
3247,C4,377.875,0.094,59,136.0
3248,E-3,377.875,0.094,59,136.0
3249,E-4,377.875,0.094,59,136.0
3250,A5,378.0,0.375,79,136.0
3251,A4,378.0,0.375,79,136.0
3252,C5,378.0,0.375,79,136.0
3253,C4,378.0,0.375,65,136.0
3254,E-3,378.0,0.375,65,136.0
3255,E-4,378.0,0.375,65,136.0
3256,G5,378.375,0.094,71,136.0
3257,G4,378.375,0.094,71,136.0
3258,B-4,378.375,0.094,71,136.0
3259,B-3,378.375,0.094,59,136.0
3260,C#3,378.375,0.094,59,136.0
3261,C#4,378.375,0.094,59,136.0
3262,B-4,378.5,0.375,79,136.0
3263,G5,378.5,0.375,79,136.0
3264,G4,378.5,0.375,79,136.0
3265,C#4,378.5,0.375,65,136.0
3266,B-3,378.5,0.375,65,136.0
3267,C#3,378.5,0.375,65,136.0
3268,G4,378.875,0.094,72,136.0
3269,E4,378.875,0.094,72,136.0
3270,E5,378.875,0.094,72,136.0
3271,B-3,378.875,0.094,59,136.0
3272,G3,378.875,0.094,59,136.0
3273,B-2,378.875,0.094,59,136.0
3274,G4,379.0,0.375,79,136.0
3275,E5,379.0,0.375,79,136.0
3276,E4,379.0,0.375,79,136.0
3277,G3,379.0,0.375,59,136.0
3278,B-3,379.0,0.375,59,136.0
3279,B-2,379.0,0.375,59,136.0
3280,E-5,379.375,0.094,64,136.0
3281,E-4,379.375,0.094,64,136.0
3282,F#4,379.375,0.094,64,136.0
3283,F#3,379.375,0.094,53,136.0
3284,A3,379.375,0.094,53,136.0
3285,A2,379.375,0.094,53,136.0
3286,E-5,379.5,0.375,85,136.0
3287,F#4,379.5,0.375,85,136.0
3288,E-4,379.5,0.375,85,136.0
3289,F#3,379.5,0.375,59,136.0
3290,A3,379.5,0.375,59,136.0
3291,A2,379.5,0.375,59,136.0
3292,C#4,379.875,0.094,64,136.0
3293,E4,379.875,0.094,64,136.0
3294,C#5,379.875,0.094,64,136.0
3295,E3,379.875,0.094,53,136.0
3296,G3,379.875,0.094,53,136.0
3297,G2,379.875,0.094,53,136.0
3298,C#4,380.0,0.375,86,136.0
3299,E4,380.0,0.375,86,136.0
3300,C#5,380.0,0.375,86,136.0
3301,G3,380.0,0.375,65,136.0
3302,E3,380.0,0.375,65,136.0
3303,G2,380.0,0.375,65,136.0
3304,E4,380.875,0.125,74,136.0
3305,E3,380.875,0.125,74,136.0
3306,B-3,380.875,0.125,74,136.0
3307,G1,380.875,0.125,57,136.0
3308,G2,380.875,0.125,57,136.0
3309,C#2,380.875,0.125,57,136.0
3310,E2,380.875,0.125,57,136.0
3311,E3,381.0,0.25,84,136.0
3312,E4,381.0,0.25,84,136.0
3313,G#3,381.0,0.25,84,136.0
3314,G#2,381.0,0.25,57,136.0
3315,E2,381.0,0.25,57,136.0
3316,G#1,381.0,0.25,57,136.0
3317,C#2,381.0,0.25,57,136.0
3318,E-4,381.75,0.25,75,136.0
3319,G#3,381.75,0.25,75,136.0
3320,E-3,381.75,0.25,75,136.0
3321,C#2,381.75,0.25,59,136.0
3322,G#2,381.75,0.25,59,136.0
3323,G#1,381.75,0.25,59,136.0
3324,E2,381.75,0.25,59,136.0
3325,G#3,382.0,0.25,84,136.0
3326,E-4,382.0,0.25,84,136.0
3327,E-3,382.0,0.25,84,136.0
3328,G#1,382.0,0.25,64,136.0
3329,G#2,382.0,0.25,64,136.0
3330,C#2,382.0,0.25,64,136.0
3331,E2,382.0,0.25,64,136.0
3332,C#3,382.75,0.25,76,136.0
3333,G#3,382.75,0.25,76,136.0
3334,C#4,382.75,0.25,76,136.0
3335,G#2,382.75,0.25,57,136.0
3336,E2,382.75,0.25,57,136.0
3337,G#1,382.75,0.25,57,136.0
3338,C#2,382.75,0.25,57,136.0
3339,G#4,383.0,1.0,86,136.0
3340,G#3,383.0,1.0,86,136.0
3341,C4,383.0,1.0,86,136.0
3342,E-2,383.0,1.0,64,136.0
3343,G#2,383.0,1.0,64,136.0
3344,G#1,383.0,1.0,64,136.0
3345,F#2,383.0,1.0,64,136.0
3346,C3,384.0,0.75,82,136.0
3347,C4,384.0,0.75,82,136.0
3348,G#3,384.0,0.75,82,136.0
3349,G#1,384.0,0.75,60,136.0
3350,G#2,384.0,0.75,60,136.0
3351,E-2,384.0,0.75,60,136.0
3352,F#2,384.0,0.75,60,136.0
3353,G#2,384.875,0.125,42,136.0
3354,E3,384.875,0.125,42,136.0
3355,G#3,384.875,0.125,42,136.0
3356,C#4,384.938,0.062,51,136.0
3357,E4,384.958,21/500,62,136.0
3358,G#4,384.958,21/500,62,136.0
3359,E5,385.0,0.75,83,136.0
3360,C#4,385.0,0.906,51,136.0
3361,E4,385.0,979/1000,62,136.0
3362,G#4,385.0,979/1000,62,136.0
3363,G#2,385.0,0.844,42,136.0
3364,E3,385.0,0.844,42,136.0
3365,G#3,385.0,0.844,42,136.0
3366,E-5,385.75,83/1000,75,136.0
3367,E-5,385.875,0.062,67,136.0
3368,G#2,385.906,0.969,46,136.0
3369,E3,385.906,0.969,46,136.0
3370,E5,385.938,0.062,72,136.0
3371,G#3,385.969,0.906,56,136.0
3372,C#4,385.969,0.906,56,136.0
3373,E-5,386.0,0.25,80,136.0
3374,G#4,386.0,1.0,61,136.0
3375,E4,386.0,1.0,61,136.0
3376,C#5,386.5,0.125,77,136.0
3377,G#2,386.906,263/250,49,136.0
3378,E-3,386.906,263/250,49,136.0
3379,G#3,386.906,263/250,49,136.0
3380,C4,386.969,1.031,55,136.0
3381,F#4,386.99,0.969,71,136.0
3382,C5,386.99,0.969,71,136.0
3383,G#5,386.99,0.969,71,136.0
3384,C5,388.0,0.5,77,136.0
3385,G#3,388.906,0.094,50,136.0
3386,E4,388.906,0.094,50,136.0
3387,G#4,388.969,0.031,55,136.0
3388,C#5,388.969,0.031,55,136.0
3389,E6,389.0,0.75,76,136.0
3390,E5,389.0,1.0,54,136.0
3391,G#5,389.0,1.0,54,136.0
3392,G#3,389.0,0.875,50,136.0
3393,E4,389.0,0.875,50,136.0
3394,G#4,389.0,0.875,55,136.0
3395,C#5,389.0,0.875,55,136.0
3396,E-6,389.75,0.125,69,136.0
3397,C#6,389.875,21/500,61,136.0
3398,E-6,389.875,21/500,61,136.0
3399,G#3,389.906,0.969,38,136.0
3400,E4,389.906,0.969,38,136.0
3401,E6,389.958,21/500,63,136.0
3402,G#4,389.969,0.906,42,136.0
3403,C#5,389.969,0.906,42,136.0
3404,E-6,390.0,0.25,73,136.0
3405,E5,390.0,1.0,51,136.0
3406,G#5,390.0,1.0,51,136.0
3407,C#6,390.5,0.25,66,136.0
3408,G#3,390.938,0.938,52,136.0
3409,F#4,390.938,0.938,52,136.0
3410,C5,391.0,0.906,57,136.0
3411,G#5,391.0,0.5,61,136.0
3412,E-6,391.0,0.5,61,136.0
3413,E-5,391.0,0.5,61,136.0
3414,G#5,391.75,0.25,63,136.0
3415,G#3,391.938,0.938,52,136.0
3416,F#4,391.938,0.938,52,136.0
3417,C5,392.0,0.906,57,136.0
3418,G#6,392.0,0.5,64,136.0
3419,G#5,392.0,0.5,64,136.0
3420,G#5,392.75,0.25,68,136.0
3421,G#3,392.906,0.094,42,136.0
3422,E4,392.906,0.094,42,136.0
3423,G#4,392.969,0.031,49,136.0
3424,C#5,392.969,0.031,49,136.0
3425,E6,393.0,0.75,76,136.0
3426,G#5,393.0,1.0,54,136.0
3427,E5,393.0,1.0,54,136.0
3428,G#3,393.0,0.875,42,136.0
3429,E4,393.0,0.875,42,136.0
3430,G#4,393.0,0.875,49,136.0
3431,C#5,393.0,0.875,49,136.0
3432,E-6,393.75,0.125,69,136.0
3433,C#6,393.875,21/500,59,136.0
3434,E-6,393.875,21/500,59,136.0
3435,G#3,393.906,0.969,37,136.0
3436,E4,393.906,0.969,37,136.0
3437,E6,393.958,21/500,63,136.0
3438,G#4,393.969,0.906,42,136.0
3439,C#5,393.969,0.906,42,136.0
3440,E-6,394.0,0.25,73,136.0
3441,E5,394.0,1.0,51,136.0
3442,G#5,394.0,1.0,51,136.0
3443,C#6,394.5,0.25,66,136.0
3444,G#3,394.938,0.938,51,136.0
3445,F#4,394.938,0.938,51,136.0
3446,C5,395.0,0.906,55,136.0
3447,E-5,395.0,0.5,61,136.0
3448,E-6,395.0,0.5,61,136.0
3449,G#5,395.0,0.5,61,136.0
3450,G#5,395.75,0.25,63,136.0
3451,G#6,396.0,0.5,75,136.0
3452,G#5,396.75,0.25,64,136.0
3453,E-6,397.0,0.25,68,136.0
3454,G#5,397.25,0.25,61,136.0
3455,G#6,397.5,0.25,66,136.0
3456,G#5,397.75,0.25,60,136.0
3457,E-6,398.0,0.25,65,136.0
3458,G#5,398.25,0.25,57,136.0
3459,G#6,398.5,0.25,63,136.0
3460,G#5,398.75,0.25,57,136.0
3461,E-6,399.0,167/1000,62,136.0
3462,G#5,399.167,167/1000,57,136.0
3463,G#6,399.333,167/1000,61,136.0
3464,G#5,399.5,169/1000,56,136.0
3465,E-6,399.667,167/1000,59,136.0
3466,G#5,399.833,167/1000,53,136.0
3467,G#6,400.0,167/1000,58,136.0
3468,G#5,400.167,167/1000,50,136.0
3469,E-6,400.333,167/1000,57,136.0
3470,G#5,400.5,167/1000,48,136.0
3471,G#6,400.667,167/1000,59,136.0
3472,G#5,400.833,167/1000,50,136.0
3473,E-6,401.0,0.125,57,136.0
3474,G#5,401.125,0.125,51,136.0
3475,G#6,401.25,0.125,57,136.0
3476,G#5,401.375,0.125,51,136.0
3477,E-6,401.5,0.125,55,136.0
3478,G#5,401.625,0.125,51,136.0
3479,G#6,401.75,0.125,54,136.0
3480,G#5,401.875,0.125,49,136.0
3481,E-6,402.0,0.125,53,136.0
3482,G#5,402.125,0.125,47,136.0
3483,G#6,402.25,0.125,52,136.0
3484,G#5,402.375,0.125,47,136.0
3485,E-6,402.5,0.125,51,136.0
3486,G#5,402.625,0.125,47,136.0
3487,G#6,402.75,0.125,50,136.0
3488,G#5,402.875,0.125,45,136.0
3489,E-6,403.0,0.125,48,136.0
3490,G#5,403.125,0.125,43,136.0
3491,G#6,403.25,0.125,47,136.0
3492,G#5,403.375,0.125,43,136.0
3493,E-6,403.5,0.125,46,136.0
3494,G#5,403.625,0.125,42,136.0
3495,G#6,403.75,0.125,45,136.0
3496,G#5,403.875,0.125,40,136.0
3497,E-6,404.0,0.125,44,136.0
3498,G#5,404.125,0.125,39,136.0
3499,G#6,404.25,0.125,43,136.0
3500,G#5,404.375,0.125,39,136.0
3501,E-6,404.5,0.125,42,136.0
3502,G#5,404.625,0.125,38,136.0
3503,G#6,404.75,0.125,40,136.0
3504,G#5,404.875,0.125,35,136.0
3505,G6,405.0,121/1000,47,136.0
3506,G#6,405.121,121/1000,47,136.0
3507,B-6,405.242,121/1000,47,136.0
3508,G#6,405.36,9/100,47,136.0
3509,B-6,405.45,9/100,42,136.0
3510,G#6,405.54,9/100,47,136.0
3511,B-6,405.631,9/100,40,136.0
3512,G#6,405.721,9/100,47,136.0
3513,B-6,405.81,9/100,41,136.0
3514,G#6,405.9,9/100,47,136.0
3515,B-6,405.99,9/100,41,136.0
3516,G#6,406.081,9/100,47,136.0
3517,B-6,406.171,9/100,41,136.0
3518,G#6,406.26,9/100,47,136.0
3519,B-6,406.35,9/100,42,136.0
3520,G#6,406.44,9/100,47,136.0
3521,B-6,406.531,9/100,41,136.0
3522,G#6,406.621,9/100,47,136.0
3523,B-6,406.71,9/100,41,136.0
3524,G#6,406.8,9/100,47,136.0
3525,B-6,406.89,9/100,42,136.0
3526,G#6,407.0,9/100,47,136.0
3527,B-6,407.09,9/100,41,136.0
3528,G#6,407.181,9/100,47,136.0
3529,B-6,407.271,9/100,41,136.0
3530,G#6,407.36,9/100,47,136.0
3531,B-6,407.45,9/100,42,136.0
3532,G#6,407.54,9/100,47,136.0
3533,B-6,407.631,9/100,40,136.0
3534,G#6,407.721,9/100,47,136.0
3535,B-6,407.81,9/100,41,136.0
3536,G#6,407.9,9/100,47,136.0
3537,B-6,407.99,9/100,41,136.0
3538,G#6,408.081,9/100,47,136.0
3539,B-6,408.171,9/100,41,136.0
3540,G#6,408.26,9/100,47,136.0
3541,B-6,408.35,9/100,42,136.0
3542,G#6,408.44,9/100,47,136.0
3543,G#4,408.5,0.438,50,136.0
3544,B-6,408.531,9/100,41,136.0
3545,G#6,408.621,9/100,47,136.0
3546,B-6,408.71,9/100,41,136.0
3547,G#6,408.8,9/100,47,136.0
3548,B-6,408.89,9/100,42,136.0
3549,C#4,408.938,0.062,45,136.0
3550,G#4,408.938,0.062,45,136.0
3551,F6,409.0,0.75,58,136.0
3552,F5,409.0,0.25,48,136.0
3553,G#6,409.0,9/100,47,136.0
3554,C#4,409.0,0.219,45,136.0
3555,G#4,409.0,0.219,45,136.0
3556,B-6,409.09,9/100,41,136.0
3557,G#6,409.181,9/100,47,136.0
3558,B-6,409.271,9/100,41,136.0
3559,G#6,409.36,9/100,47,136.0
3560,B-6,409.45,9/100,42,136.0
3561,G#6,409.54,9/100,47,136.0
3562,B-6,409.631,9/100,40,136.0
3563,G#6,409.721,9/100,47,136.0
3564,E-6,409.75,0.25,53,136.0
3565,B-6,409.81,9/100,41,136.0
3566,G#6,409.9,9/100,47,136.0
3567,G#4,409.938,0.281,48,136.0
3568,E-5,409.938,0.281,48,136.0
3569,B-6,409.99,9/100,41,136.0
3570,F#6,410.0,0.75,57,136.0
3571,F#5,410.0,0.25,51,136.0
3572,G#6,410.081,9/100,47,136.0
3573,B-6,410.171,9/100,41,136.0
3574,G#6,410.26,9/100,47,136.0
3575,B-6,410.35,9/100,42,136.0
3576,G#6,410.44,9/100,47,136.0
3577,B-6,410.531,9/100,41,136.0
3578,G#6,410.621,9/100,47,136.0
3579,B-6,410.71,9/100,41,136.0
3580,C6,410.75,0.25,52,136.0
3581,G#6,410.8,9/100,47,136.0
3582,B-6,410.89,9/100,42,136.0
3583,C#4,410.938,0.062,44,136.0
3584,G#4,410.938,0.062,44,136.0
3585,E-6,411.0,0.5,59,136.0
3586,F5,411.0,0.25,49,136.0
3587,G#6,411.0,9/100,47,136.0
3588,C#4,411.0,0.219,44,136.0
3589,G#4,411.0,0.219,44,136.0
3590,B-6,411.09,9/100,41,136.0
3591,G#6,411.181,9/100,47,136.0
3592,B-6,411.271,9/100,41,136.0
3593,G#6,411.36,9/100,47,136.0
3594,B-6,411.45,9/100,42,136.0
3595,C#6,411.5,0.5,52,136.0
3596,G#6,411.54,9/100,47,136.0
3597,B-6,411.631,9/100,40,136.0
3598,G#6,411.721,9/100,47,136.0
3599,B-6,411.81,9/100,41,136.0
3600,G#6,411.9,9/100,47,136.0
3601,B-6,411.99,9/100,41,136.0
3602,G#6,412.081,9/100,47,136.0
3603,B-6,412.171,9/100,41,136.0
3604,G#6,412.26,23/200,47,136.0
3605,B-6,412.375,0.125,42,136.0
3606,C#5,412.5,0.5,50,136.0
3607,G#6,412.5,0.125,47,136.0
3608,B-6,412.625,0.125,42,136.0
3609,G6,412.75,0.125,49,136.0
3610,G#6,412.833,83/1000,52,136.0
3611,A6,412.917,83/1000,54,136.0
3612,B-5,413.0,0.25,44,136.0
3613,B-6,413.0,9/100,64,136.0
3614,F#4,413.0,0.5,44,136.0
3615,C#5,413.0,0.5,44,136.0
3616,C7,413.09,9/100,41,136.0
3617,B-6,413.181,9/100,47,136.0
3618,C7,413.271,9/100,41,136.0
3619,B-6,413.36,9/100,47,136.0
3620,C7,413.45,9/100,42,136.0
3621,B-5,413.5,0.25,44,136.0
3622,B-6,413.54,9/100,61,136.0
3623,C7,413.631,9/100,40,136.0
3624,B-6,413.721,9/100,47,136.0
3625,C7,413.81,9/100,41,136.0
3626,B-6,413.9,9/100,47,136.0
3627,C7,413.99,9/100,41,136.0
3628,G#6,414.0,1.0,60,136.0
3629,G#5,414.0,1.0,54,136.0
3630,F4,414.0,0.5,44,136.0
3631,D5,414.0,0.5,44,136.0
3632,B-6,414.081,9/100,47,136.0
3633,C7,414.171,9/100,41,136.0
3634,B-6,414.26,9/100,47,136.0
3635,C7,414.35,9/100,42,136.0
3636,B-6,414.44,9/100,47,136.0
3637,C7,414.531,9/100,41,136.0
3638,B-6,414.621,9/100,47,136.0
3639,C7,414.71,9/100,41,136.0
3640,B-6,414.8,9/100,47,136.0
3641,C7,414.89,9/100,42,136.0
3642,F#6,415.0,0.25,56,136.0
3643,F#5,415.0,0.25,50,136.0
3644,B-6,415.0,9/100,47,136.0
3645,E-4,415.0,0.5,48,136.0
3646,B-4,415.0,0.5,48,136.0
3647,C7,415.09,9/100,41,136.0
3648,B-6,415.181,9/100,47,136.0
3649,C7,415.271,9/100,41,136.0
3650,B-6,415.36,9/100,47,136.0
3651,C7,415.45,9/100,42,136.0
3652,F#6,415.5,1.0,60,136.0
3653,F#5,415.5,1.0,54,136.0
3654,B-6,415.54,9/100,47,136.0
3655,C7,415.631,9/100,40,136.0
3656,B-6,415.721,9/100,47,136.0
3657,C7,415.81,9/100,41,136.0
3658,B-6,415.9,9/100,47,136.0
3659,C7,415.99,9/100,41,136.0
3660,B-6,416.081,9/100,47,136.0
3661,C7,416.171,9/100,41,136.0
3662,B-6,416.26,9/100,47,136.0
3663,C7,416.35,9/100,42,136.0
3664,B-6,416.44,9/100,47,136.0
3665,E-5,416.5,0.5,53,136.0
3666,F#5,416.5,0.5,53,136.0
3667,C7,416.531,9/100,41,136.0
3668,A6,416.625,0.094,54,136.0
3669,B-6,416.719,0.094,56,136.0
3670,B6,416.812,0.094,58,136.0
3671,C7,416.906,0.094,60,136.0
3672,C#7,417.0,9/100,70,136.0
3673,B-5,417.0,0.5,61,136.0
3674,C#6,417.0,0.5,61,136.0
3675,E-7,417.09,9/100,41,136.0
3676,C#7,417.181,9/100,47,136.0
3677,E-7,417.271,9/100,41,136.0
3678,C#7,417.36,9/100,47,136.0
3679,E-7,417.45,9/100,42,136.0
3680,B-5,417.5,0.5,53,136.0
3681,C#6,417.5,0.5,53,136.0
3682,C#7,417.54,9/100,66,136.0
3683,E-7,417.631,9/100,40,136.0
3684,C#7,417.721,9/100,47,136.0
3685,E-7,417.81,9/100,41,136.0
3686,C#7,417.9,9/100,47,136.0
3687,E-7,417.99,9/100,41,136.0
3688,C7,418.0,0.75,64,136.0
3689,G#5,418.0,0.75,60,136.0
3690,C6,418.0,0.75,60,136.0
3691,C#7,418.081,9/100,47,136.0
3692,E-7,418.171,9/100,41,136.0
3693,C#7,418.26,9/100,47,136.0
3694,E-7,418.35,9/100,42,136.0
3695,C#7,418.44,9/100,47,136.0
3696,E-7,418.531,9/100,41,136.0
3697,C#7,418.621,9/100,47,136.0
3698,E-7,418.71,9/100,41,136.0
3699,B-6,418.75,0.25,55,136.0
3700,F#5,418.75,0.25,52,136.0
3701,B-5,418.75,0.25,52,136.0
3702,C#7,418.8,9/100,47,136.0
3703,E-7,418.89,9/100,42,136.0
3704,G#6,419.0,1.0,65,136.0
3705,C#7,419.0,9/100,47,136.0
3706,F5,419.0,0.25,60,136.0
3707,G#5,419.0,0.25,60,136.0
3708,E-7,419.09,9/100,41,136.0
3709,C#7,419.181,9/100,47,136.0
3710,E-7,419.271,9/100,41,136.0
3711,C#7,419.36,9/100,47,136.0
3712,E-7,419.45,9/100,42,136.0
3713,G#4,419.5,1.0,56,136.0
3714,F5,419.5,1.0,56,136.0
3715,G#5,419.5,1.0,56,136.0
3716,C#7,419.54,9/100,47,136.0
3717,E-7,419.631,9/100,40,136.0
3718,C#7,419.721,9/100,47,136.0
3719,E-7,419.81,9/100,41,136.0
3720,C#7,419.9,9/100,47,136.0
3721,E-7,419.99,9/100,41,136.0
3722,C#7,420.081,9/100,47,136.0
3723,E-7,420.171,9/100,41,136.0
3724,C#7,420.26,9/100,47,136.0
3725,E-7,420.35,9/100,42,136.0
3726,C#7,420.44,9/100,47,136.0
3727,C7,420.5,167/1000,45,136.0
3728,F5,420.5,0.406,50,136.0
3729,A5,420.5,0.406,50,136.0
3730,E-7,420.529,3/40,41,136.0
3731,C#7,420.667,167/1000,48,136.0
3732,D7,420.833,167/1000,51,136.0
3733,G#4,420.906,0.094,47,136.0
3734,C5,420.906,0.094,47,136.0
3735,F#5,420.969,0.031,56,136.0
3736,B-5,420.969,0.031,56,136.0
3737,F7,421.0,27/250,54,136.0
3738,G#4,421.0,0.219,47,136.0
3739,C5,421.0,0.219,47,136.0
3740,F#5,421.0,0.219,56,136.0
3741,B-5,421.0,0.219,56,136.0
3742,E-7,421.108,53/500,48,136.0
3743,C#7,421.215,27/250,47,136.0
3744,C7,421.323,27/250,46,136.0
3745,B-6,421.431,53/500,45,136.0
3746,G#6,421.538,27/250,45,136.0
3747,F#6,421.646,53/500,44,136.0
3748,F6,421.752,27/250,43,136.0
3749,E-6,421.86,27/250,42,136.0
3750,C#6,421.969,53/500,42,136.0
3751,C6,422.075,27/250,41,136.0
3752,B-5,422.183,53/500,40,136.0
3753,G#5,422.29,27/250,39,136.0
3754,F#5,422.398,27/250,39,136.0
3755,F5,422.506,53/500,38,136.0
3756,E-5,422.613,27/250,37,136.0
3757,C#5,422.721,53/500,36,136.0
3758,C5,422.827,27/250,36,136.0
3759,B-4,422.935,27/250,35,136.0
3760,G#4,423.044,53/500,34,136.0
3761,F#4,423.15,27/250,33,136.0
3762,F4,423.258,53/500,33,136.0
3763,E-4,423.365,27/250,32,136.0
3764,C#4,423.473,27/250,31,136.0
3765,C4,423.581,53/500,30,136.0
3766,B-3,423.688,27/250,34,136.0
3767,G#3,423.796,53/500,35,136.0
3768,F#3,423.902,27/250,35,136.0
3769,F3,424.01,27/250,35,136.0
3770,E-3,424.119,53/500,35,136.0
3771,C#3,424.225,27/250,35,136.0
3772,C3,424.333,53/500,35,136.0
3773,B-2,424.44,27/250,35,136.0
3774,G#2,424.548,27/250,35,136.0
3775,F#2,424.656,53/500,35,136.0
3776,F2,424.762,27/250,35,136.0
3777,E-2,424.869,131/1000,35,136.0
3778,C#2,425.0,0.125,35,136.0
3779,F2,425.125,0.125,35,136.0
3780,G#2,425.25,0.125,36,136.0
3781,C#3,425.375,0.125,37,136.0
3782,F3,425.5,0.125,38,136.0
3783,G#3,425.625,0.125,39,136.0
3784,C#4,425.75,0.125,39,136.0
3785,F4,425.875,0.125,40,136.0
3786,G#4,426.0,0.125,42,136.0
3787,C#5,426.125,0.125,44,136.0
3788,F5,426.25,0.125,46,136.0
3789,G#5,426.375,0.125,48,136.0
3790,C#6,426.5,0.5,48,136.0
3791,F6,426.562,0.438,50,136.0
3792,G#6,426.625,0.375,52,136.0
3793,C#7,426.688,0.312,54,136.0
3794,G#4,428.75,0.25,50,136.0
3795,F5,429.0,0.75,58,136.0
3796,C#3,429.0,0.25,41,136.0
3797,F4,429.5,0.125,40,136.0
3798,G#4,429.5,0.125,40,136.0
3799,G#3,429.5,0.125,34,136.0
3800,C#4,429.5,0.125,34,136.0
3801,E-5,429.75,0.25,53,136.0
3802,F#5,430.0,0.625,57,136.0
3803,G#2,430.0,0.25,42,136.0
3804,F#4,430.5,0.125,40,136.0
3805,G#4,430.5,0.125,40,136.0
3806,G#3,430.5,0.125,34,136.0
3807,E-4,430.5,0.125,34,136.0
3808,C5,430.75,0.125,52,136.0
3809,E-5,430.875,0.125,59,136.0
3810,C#5,431.0,0.125,59,136.0
3811,C#3,431.0,0.125,44,136.0
3812,C#5,431.5,1.0,52,136.0
3813,F4,431.5,0.125,40,136.0
3814,G#4,431.5,0.125,40,136.0
3815,G#3,431.5,0.125,34,136.0
3816,C#4,431.5,0.125,34,136.0
3817,C#3,432.0,0.125,45,136.0
3818,C#5,432.5,0.5,50,136.0
3819,F4,432.5,0.125,40,136.0
3820,G#4,432.5,0.125,40,136.0
3821,G#3,432.5,0.125,34,136.0
3822,C#4,432.5,0.125,34,136.0
3823,B-5,433.0,0.125,59,136.0
3824,F#3,433.0,0.125,47,136.0
3825,B-5,433.5,0.25,55,136.0
3826,B-4,433.5,0.125,40,136.0
3827,F#4,433.5,0.125,40,136.0
3828,F#4,433.5,0.125,34,136.0
3829,C#4,433.5,0.125,34,136.0
3830,G#5,434.0,1.0,60,136.0
3831,F3,434.0,0.125,47,136.0
3832,B-4,434.5,0.125,40,136.0
3833,G#4,434.5,0.125,40,136.0
3834,F4,434.5,0.125,34,136.0
3835,D4,434.5,0.125,34,136.0
3836,F#5,435.0,0.125,56,136.0
3837,E-3,435.0,0.25,43,136.0
3838,F#5,435.5,1.0,60,136.0
3839,B-4,435.5,0.125,40,136.0
3840,F#4,435.5,0.125,40,136.0
3841,E-4,435.5,0.125,34,136.0
3842,B-3,435.5,0.125,34,136.0
3843,E-3,436.0,0.25,46,136.0
3844,F#5,436.5,0.5,53,136.0
3845,F#4,436.5,0.125,40,136.0
3846,B-4,436.5,0.125,40,136.0
3847,E-4,436.5,0.125,34,136.0
3848,B-3,436.5,0.125,34,136.0
3849,C#6,437.0,0.25,61,136.0
3850,F#2,437.0,0.25,50,136.0
3851,C#6,437.5,0.5,53,136.0
3852,C#5,437.5,0.5,53,136.0
3853,B-5,437.5,0.5,53,136.0
3854,C#4,437.5,0.5,36,136.0
3855,B-4,437.5,0.5,36,136.0
3856,C#4,438.0,1.0,33,136.0
3857,G#4,438.0,0.75,40,136.0
3858,G#5,438.0,0.75,56,136.0
3859,C6,438.0,0.75,56,136.0
3860,C5,438.0,0.75,56,136.0
3861,F#4,438.75,0.25,40,136.0
3862,B-5,438.75,0.125,50,136.0
3863,B-4,438.75,0.125,50,136.0
3864,F#5,438.75,0.125,50,136.0
3865,F#5,438.875,0.125,52,136.0
3866,B-5,438.875,0.125,52,136.0
3867,G#2,439.0,0.25,50,136.0
3868,F5,439.0,0.125,65,136.0
3869,G#5,439.0,0.125,65,136.0
3870,G#5,439.5,1.0,56,136.0
3871,G#4,439.5,1.0,56,136.0
3872,F5,439.5,1.0,56,136.0
3873,F4,439.5,0.25,40,136.0
3874,C#4,439.5,0.25,40,136.0
3875,G#3,440.0,0.25,40,136.0
3876,A5,440.75,0.25,50,136.0
3877,F5,440.75,0.25,50,136.0
3878,F4,440.75,0.25,46,136.0
3879,A4,440.75,0.25,46,136.0
3880,F#5,441.0,0.125,56,136.0
3881,B-5,441.0,0.125,56,136.0
3882,F#4,441.0,0.125,50,136.0
3883,B-4,441.0,0.125,50,136.0
3884,B-5,441.5,1.0,56,136.0
3885,F#5,441.5,1.0,56,136.0
3886,F#4,441.5,1.0,50,136.0
3887,B-4,441.5,1.0,50,136.0
3888,F#4,442.5,0.5,46,136.0
3889,C5,442.5,0.5,46,136.0
3890,E-4,442.5,0.5,42,136.0
3891,G#3,442.5,0.5,42,136.0
3892,C#4,443.0,0.125,51,136.0
3893,C#5,443.0,0.125,48,136.0
3894,F4,443.0,0.125,48,136.0
3895,C#5,443.5,1.0,50,136.0
3896,F4,443.5,1.0,50,136.0
3897,C#4,443.5,1.0,46,136.0
3898,C#3,443.5,1.0,46,136.0
3899,G#3,443.5,1.0,46,136.0
3900,G#5,444.75,0.25,48,136.0
3901,G#4,444.75,0.25,48,136.0
3902,F5,445.0,0.75,56,136.0
3903,F6,445.0,0.75,56,136.0
3904,C#3,445.0,0.25,42,136.0
3905,C#2,445.0,0.25,42,136.0
3906,C#4,445.5,0.125,34,136.0
3907,F4,445.5,0.125,34,136.0
3908,G#4,445.5,0.125,34,136.0
3909,E-6,445.75,0.25,52,136.0
3910,E-5,445.75,0.25,52,136.0
3911,F#5,446.0,0.75,55,136.0
3912,F#6,446.0,0.75,55,136.0
3913,G#3,446.0,0.25,42,136.0
3914,G#2,446.0,0.25,42,136.0
3915,E-4,446.5,0.125,34,136.0
3916,F#4,446.5,0.125,34,136.0
3917,G#4,446.5,0.125,34,136.0
3918,C5,446.75,0.25,50,136.0
3919,C6,446.75,0.25,50,136.0
3920,E-6,447.0,0.125,57,136.0
3921,E-5,447.0,0.125,57,136.0
3922,C#3,447.0,0.125,40,136.0
3923,C#2,447.0,0.125,40,136.0
3924,C#5,447.5,1.0,50,136.0
3925,C#6,447.5,1.0,50,136.0
3926,C#4,447.5,0.125,34,136.0
3927,F4,447.5,0.125,34,136.0
3928,G#4,447.5,0.125,34,136.0
3929,G#3,448.0,0.125,41,136.0
3930,G#2,448.0,0.125,41,136.0
3931,C#5,448.5,0.5,48,136.0
3932,C#6,448.5,0.5,48,136.0
3933,F4,448.5,0.125,34,136.0
3934,C#4,448.5,0.125,34,136.0
3935,G#4,448.5,0.125,34,136.0
3936,B-5,449.0,0.125,60,136.0
3937,B-6,449.0,0.125,60,136.0
3938,F#3,449.0,0.125,38,136.0
3939,F#2,449.0,0.125,38,136.0
3940,B-5,449.5,0.25,55,136.0
3941,B-6,449.5,0.25,55,136.0
3942,C#4,449.5,0.125,34,136.0
3943,B-4,449.5,0.125,34,136.0
3944,F#4,449.5,0.125,34,136.0
3945,G#6,450.0,1.0,58,136.0
3946,G#5,450.0,1.0,58,136.0
3947,F3,450.0,0.125,40,136.0
3948,F2,450.0,0.125,40,136.0
3949,B-3,450.5,0.125,34,136.0
3950,G#4,450.5,0.125,34,136.0
3951,D4,450.5,0.125,34,136.0
3952,F#5,451.0,0.125,54,136.0
3953,F#6,451.0,0.125,54,136.0
3954,E-3,451.0,0.25,45,136.0
3955,E-2,451.0,0.25,45,136.0
3956,F#6,451.5,1.0,59,136.0
3957,B-5,451.5,1.0,59,136.0
3958,F#5,451.5,1.0,59,136.0
3959,F#4,451.5,0.125,34,136.0
3960,E-4,451.5,0.125,34,136.0
3961,B-3,452.0,0.25,42,136.0
3962,B-2,452.0,0.25,42,136.0
3963,E-6,452.5,0.5,49,136.0
3964,F#5,452.5,0.5,49,136.0
3965,F#6,452.5,0.5,49,136.0
3966,F#4,452.5,0.125,34,136.0
3967,E-4,452.5,0.125,34,136.0
3968,C#7,453.0,0.5,63,136.0
3969,B-6,453.0,0.5,63,136.0
3970,C#6,453.0,0.5,63,136.0
3971,F#3,453.0,0.5,43,136.0
3972,F#2,453.0,0.5,43,136.0
3973,B-6,453.5,0.5,55,136.0
3974,C#7,453.5,0.5,55,136.0
3975,C#6,453.5,0.5,55,136.0
3976,C#5,453.5,0.5,36,136.0
3977,C#4,453.5,0.5,36,136.0
3978,B-4,453.5,0.5,36,136.0
3979,C#4,454.0,1.0,34,136.0
3980,C6,454.0,0.75,58,136.0
3981,G#6,454.0,0.75,58,136.0
3982,C7,454.0,0.75,58,136.0
3983,C5,454.0,0.75,37,136.0
3984,G#4,454.0,0.75,37,136.0
3985,B-6,454.75,0.125,52,136.0
3986,B-5,454.75,0.125,52,136.0
3987,F#6,454.75,0.125,52,136.0
3988,B-4,454.75,0.25,37,136.0
3989,F#4,454.75,0.25,37,136.0
3990,G#2,455.0,0.125,55,136.0
3991,F6,455.0,0.125,64,136.0
3992,G#5,455.0,0.125,64,136.0
3993,G#6,455.0,0.125,64,136.0
3994,G#6,455.5,1.0,55,136.0
3995,F6,455.5,1.0,55,136.0
3996,G#5,455.5,1.0,55,136.0
3997,F4,455.5,0.25,40,136.0
3998,G#4,455.5,0.25,40,136.0
3999,C#4,455.5,0.25,40,136.0
4000,G#3,456.0,0.25,40,136.0
4001,A5,456.75,0.25,48,136.0
4002,A6,456.75,0.25,48,136.0
4003,F4,456.75,0.25,46,136.0
4004,F5,456.75,0.25,46,136.0
4005,B-5,457.0,0.125,54,136.0
4006,B-6,457.0,0.125,54,136.0
4007,F#4,457.0,0.125,50,136.0
4008,F#5,457.0,0.125,50,136.0
4009,C5,458.0,1.0,44,136.0
4010,F#4,458.0,1.0,44,136.0
4011,C4,458.0,1.0,44,136.0
4012,G#2,458.0,1.0,40,136.0
4013,G#3,458.0,1.0,40,136.0
4014,E-3,458.0,1.0,40,136.0
4015,F4,459.0,0.125,47,136.0
4016,C#4,459.0,0.125,47,136.0
4017,C#5,459.0,0.125,47,136.0
4018,C#3,459.0,0.125,48,136.0
4019,G#3,459.0,0.125,48,136.0
4020,F4,459.5,0.75,48,136.0
4021,C#4,459.5,0.75,48,136.0
4022,C#5,459.5,0.75,48,136.0
4023,G#3,459.5,0.75,48,136.0
4024,C#3,459.5,0.75,48,136.0
4025,F6,460.25,0.25,40,136.0
4026,C#6,460.25,0.25,40,136.0
4027,F#6,460.5,0.25,45,136.0
4028,E-6,460.5,0.25,45,136.0
4029,E6,460.75,0.25,51,136.0
4030,G6,460.75,0.25,51,136.0
4031,B-6,461.0,0.25,57,136.0
4032,F#6,461.0,0.25,57,136.0
4033,F6,461.25,9/40,47,136.0
4034,G#6,461.25,9/40,47,136.0
4035,C#4,461.5,0.188,38,136.0
4036,G#6,461.5,0.25,47,136.0
4037,F6,461.5,0.25,47,136.0
4038,F5,461.75,0.188,34,136.0
4039,G6,461.75,9/40,47,136.0
4040,E6,461.75,9/40,47,136.0
4041,G#4,462.0,0.188,39,136.0
4042,F#6,462.0,0.25,53,136.0
4043,B-6,462.0,0.25,53,136.0
4044,F5,462.25,0.188,36,136.0
4045,F6,462.25,9/40,46,136.0
4046,G#6,462.25,9/40,46,136.0
4047,C#5,462.5,0.188,40,136.0
4048,G#6,462.5,0.25,47,136.0
4049,F6,462.5,0.25,47,136.0
4050,F5,462.75,0.188,37,136.0
4051,G6,462.75,9/40,49,136.0
4052,E6,462.75,9/40,49,136.0
4053,G#4,463.0,0.188,42,136.0
4054,F#6,463.0,0.25,58,136.0
4055,B-6,463.0,0.25,58,136.0
4056,F5,463.25,0.188,38,136.0
4057,G#6,463.25,9/40,50,136.0
4058,F6,463.25,9/40,50,136.0
4059,C#4,463.5,0.188,44,136.0
4060,G#6,463.5,0.25,50,136.0
4061,F6,463.5,0.25,50,136.0
4062,F5,463.75,0.188,40,136.0
4063,G6,463.75,9/40,50,136.0
4064,E6,463.75,9/40,50,136.0
4065,G#4,464.0,0.188,46,136.0
4066,F#6,464.0,0.25,60,136.0
4067,B-6,464.0,0.25,60,136.0
4068,F5,464.25,0.188,42,136.0
4069,F6,464.25,9/40,53,136.0
4070,G#6,464.25,9/40,53,136.0
4071,C#5,464.5,0.188,47,136.0
4072,F6,464.5,0.25,54,136.0
4073,G#6,464.5,0.25,54,136.0
4074,F5,464.75,0.188,45,136.0
4075,G6,464.75,9/40,56,136.0
4076,E6,464.75,9/40,56,136.0
4077,G#4,465.0,0.188,48,136.0
4078,F#6,465.0,0.25,65,136.0
4079,B-6,465.0,0.25,65,136.0
4080,F5,465.25,0.188,42,136.0
4081,G#6,465.25,9/40,57,136.0
4082,F6,465.25,9/40,57,136.0
4083,C#4,465.5,0.188,50,136.0
4084,G#6,465.5,0.25,57,136.0
4085,F6,465.5,0.25,57,136.0
4086,F5,465.75,0.188,46,136.0
4087,E6,465.75,9/40,57,136.0
4088,G6,465.75,9/40,57,136.0
4089,G#4,466.0,0.188,52,136.0
4090,F#6,466.0,0.25,66,136.0
4091,B-6,466.0,0.25,66,136.0
4092,F5,466.25,0.188,46,136.0
4093,F6,466.25,9/40,60,136.0
4094,G#6,466.25,9/40,60,136.0
4095,C#5,466.5,0.188,53,136.0
4096,F6,466.5,0.25,60,136.0
4097,G#6,466.5,0.25,60,136.0
4098,F5,466.75,0.188,48,136.0
4099,E6,466.75,9/40,60,136.0
4100,G6,466.75,9/40,60,136.0
4101,G#4,467.0,0.188,52,136.0
4102,F#6,467.0,0.25,74,136.0
4103,B-6,467.0,0.25,74,136.0
4104,F5,467.25,0.25,46,136.0
4105,G#6,467.25,9/40,68,136.0
4106,F6,467.25,9/40,68,136.0
4107,F6,467.5,0.5,57,136.0
4108,G#6,467.5,0.25,71,136.0
4109,C#4,467.5,0.25,50,136.0
4110,F7,467.75,9/40,75,136.0
4111,F7,468.0,0.25,82,136.0
4112,F6,468.0,0.5,60,136.0
4113,A4,468.0,0.25,46,136.0
4114,E7,468.25,9/40,79,136.0
4115,F6,468.5,0.5,57,136.0
4116,E7,468.5,0.25,82,136.0
4117,C5,468.5,0.25,42,136.0
4118,F5,468.5,0.25,42,136.0
4119,E-7,468.75,47/200,75,136.0
4120,E-7,469.0,0.25,81,136.0
4121,F6,469.0,0.5,60,136.0
4122,B-4,469.0,0.25,46,136.0
4123,D7,469.25,9/40,77,136.0
4124,D7,469.5,0.25,81,136.0
4125,F6,469.5,0.5,57,136.0
4126,B-5,469.5,0.25,38,136.0
4127,F5,469.5,0.25,38,136.0
4128,C#7,469.75,9/40,75,136.0
4129,C#7,470.0,0.25,78,136.0
4130,F6,470.0,0.5,57,136.0
4131,F4,470.0,0.25,46,136.0
4132,C7,470.25,9/40,69,136.0
4133,F6,470.5,0.5,55,136.0
4134,C7,470.5,0.25,77,136.0
4135,E-6,470.5,0.25,36,136.0
4136,A5,470.5,0.25,36,136.0
4137,F5,470.5,0.25,36,136.0
4138,B6,470.75,0.125,69,136.0
4139,C#7,470.875,0.125,58,136.0
4140,C7,471.0,0.25,72,136.0
4141,F6,471.0,0.5,72,136.0
4142,C#6,471.0,0.25,43,136.0
4143,B-5,471.0,0.25,43,136.0
4144,B-6,471.25,0.125,68,136.0
4145,C7,471.375,0.125,57,136.0
4146,F6,471.5,0.5,70,136.0
4147,B-6,471.5,0.25,70,136.0
4148,E-6,471.5,0.25,36,136.0
4149,C6,471.5,0.25,36,136.0
4150,F5,471.5,0.25,36,136.0
4151,A6,471.75,0.125,68,136.0
4152,C#7,471.875,0.125,58,136.0
4153,C7,472.0,0.25,68,136.0
4154,F6,472.0,0.5,68,136.0
4155,C#6,472.0,0.25,41,136.0
4156,B-5,472.0,0.25,41,136.0
4157,B-6,472.25,0.125,68,136.0
4158,C7,472.375,0.125,57,136.0
4159,F6,472.5,0.5,66,136.0
4160,B-6,472.5,0.25,66,136.0
4161,E-6,472.5,0.25,34,136.0
4162,C6,472.5,0.25,34,136.0
4163,F5,472.5,0.25,34,136.0
4164,A6,472.75,0.125,59,136.0
4165,C#7,472.875,0.125,53,136.0
4166,C7,473.0,0.25,66,136.0
4167,F6,473.0,0.5,66,136.0
4168,C#6,473.0,0.25,39,136.0
4169,B-5,473.0,0.25,39,136.0
4170,B-6,473.25,0.125,62,136.0
4171,C7,473.375,0.125,52,136.0
4172,B-6,473.5,0.25,64,136.0
4173,F6,473.5,0.5,64,136.0
4174,E-6,473.5,0.25,33,136.0
4175,C6,473.5,0.25,33,136.0
4176,F5,473.5,0.25,33,136.0
4177,A6,473.75,0.125,63,136.0
4178,C#7,473.875,0.125,52,136.0
4179,C7,474.0,0.25,62,136.0
4180,F6,474.0,0.5,62,136.0
4181,C#6,474.0,0.25,38,136.0
4182,B-5,474.0,0.25,38,136.0
4183,B-6,474.25,0.125,62,136.0
4184,C7,474.375,0.125,51,136.0
4185,F6,474.5,0.5,61,136.0
4186,B-6,474.5,0.25,61,136.0
4187,E-6,474.5,0.25,32,136.0
4188,C6,474.5,0.25,32,136.0
4189,F5,474.5,0.25,32,136.0
4190,A6,474.75,0.25,54,136.0
4191,F6,475.0,0.25,62,136.0
4192,B-6,475.0,0.125,47,136.0
4193,B-5,475.0,0.25,39,136.0
4194,C#6,475.0,0.25,39,136.0
4195,C7,475.125,3/20,41,136.0
4196,B-6,475.25,3/20,47,136.0
4197,C7,475.375,3/20,41,136.0
4198,B-6,475.5,0.125,47,136.0
4199,C7,475.625,3/20,41,136.0
4200,B-6,475.75,3/20,47,136.0
4201,C7,475.875,3/20,41,136.0
4202,B-6,476.0,0.125,47,136.0
4203,C7,476.125,3/20,41,136.0
4204,B-6,476.25,3/20,47,136.0
4205,C7,476.375,3/20,41,136.0
4206,B-6,476.5,0.125,47,136.0
4207,C7,476.625,3/20,41,136.0
4208,B-6,476.75,3/20,47,136.0
4209,C7,476.875,0.125,41,136.0
4210,B-6,477.0,0.125,47,136.0
4211,C7,477.0,1/40,41,136.0
4212,C7,477.125,3/20,41,136.0
4213,B-6,477.25,3/20,47,136.0
4214,C7,477.375,3/20,41,136.0
4215,B-6,477.5,0.125,47,136.0
4216,C7,477.625,3/20,41,136.0
4217,B-6,477.75,3/20,47,136.0
4218,C7,477.875,3/20,41,136.0
4219,B-6,478.0,0.125,47,136.0
4220,C7,478.125,3/20,41,136.0
4221,B-6,478.25,3/20,47,136.0
4222,C7,478.375,3/20,41,136.0
4223,A6,478.5,0.125,48,136.0
4224,B-6,478.625,3/20,49,136.0
4225,B6,478.75,37/250,51,136.0
4226,C7,478.875,0.125,52,136.0
4227,B-4,478.938,0.062,44,136.0
4228,C#6,479.0,0.938,44,136.0
4229,B-4,479.0,0.938,44,136.0
4230,C#7,479.0,0.125,66,136.0
4231,C7,479.0,1/40,52,136.0
4232,E-7,479.125,3/20,47,136.0
4233,C#7,479.25,3/20,54,136.0
4234,E-7,479.375,3/20,48,136.0
4235,C#7,479.5,0.125,54,136.0
4236,E-7,479.625,3/20,47,136.0
4237,C#7,479.75,3/20,52,136.0
4238,E-7,479.875,3/20,47,136.0
4239,B-4,479.938,1.0,49,136.0
4240,C#6,480.0,0.938,49,136.0
4241,C#7,480.0,0.125,59,136.0
4242,E-7,480.125,3/20,47,136.0
4243,C#7,480.25,3/20,54,136.0
4244,E-7,480.375,3/20,48,136.0
4245,C#7,480.5,0.125,52,136.0
4246,E-7,480.625,3/20,47,136.0
4247,C#7,480.75,3/20,51,136.0
4248,E-7,480.875,0.125,48,136.0
4249,G#4,480.938,0.062,48,136.0
4250,C7,481.0,1.5,56,136.0
4251,C6,481.0,1.438,50,136.0
4252,G#4,481.0,1.438,48,136.0
4253,C#7,481.0,0.125,54,136.0
4254,E-7,481.0,1/40,48,136.0
4255,E-7,481.125,3/20,46,136.0
4256,C#7,481.25,3/20,52,136.0
4257,E-7,481.375,3/20,46,136.0
4258,C#7,481.5,0.125,52,136.0
4259,E-7,481.625,3/20,44,136.0
4260,C#7,481.75,3/20,52,136.0
4261,E-7,481.875,3/20,46,136.0
4262,C#7,482.0,0.125,52,136.0
4263,E-7,482.125,3/20,44,136.0
4264,C#7,482.25,3/20,51,136.0
4265,E-7,482.375,3/20,44,136.0
4266,F#4,482.438,0.5,51,136.0
4267,B-6,482.5,0.5,55,136.0
4268,B-5,482.5,0.438,51,136.0
4269,C#7,482.5,0.125,50,136.0
4270,E-7,482.625,3/20,46,136.0
4271,C#7,482.75,3/20,51,136.0
4272,E-7,482.875,0.125,46,136.0
4273,F4,482.938,0.062,58,136.0
4274,G#6,483.0,0.5,61,136.0
4275,G#5,483.0,0.5,58,136.0
4276,F4,483.0,0.5,58,136.0
4277,C#7,483.0,0.125,52,136.0
4278,E-7,483.0,1/40,46,136.0
4279,E-7,483.125,3/20,44,136.0
4280,C#7,483.25,3/20,51,136.0
4281,E-7,483.375,3/20,43,136.0
4282,C#7,483.5,0.125,50,136.0
4283,E-7,483.625,3/20,43,136.0
4284,C#7,483.75,3/20,50,136.0
4285,E-7,483.875,3/20,43,136.0
4286,G#6,484.0,1.0,56,136.0
4287,C#7,484.0,0.125,49,136.0
4288,G#4,484.0,1.0,52,136.0
4289,F5,484.0,1.0,52,136.0
4290,G#5,484.0,1.0,52,136.0
4291,E-7,484.125,3/20,43,136.0
4292,C#7,484.25,3/20,50,136.0
4293,E-7,484.375,3/20,43,136.0
4294,C#7,484.5,0.125,50,136.0
4295,E-7,484.625,3/20,44,136.0
4296,C#7,484.75,3/20,49,136.0
4297,E-7,484.875,0.125,42,136.0
4298,C#7,485.0,0.125,50,136.0
4299,E-7,485.0,1/40,42,136.0
4300,G#4,485.0,1.5,52,136.0
4301,F5,485.0,1.5,52,136.0
4302,G#5,485.0,1.5,52,136.0
4303,E-7,485.125,3/20,46,136.0
4304,C#7,485.25,3/20,50,136.0
4305,E-7,485.375,3/20,44,136.0
4306,C#7,485.5,0.125,47,136.0
4307,E-7,485.625,3/20,41,136.0
4308,C#7,485.75,3/20,47,136.0
4309,E-7,485.875,3/20,41,136.0
4310,C#7,486.0,167/1000,47,136.0
4311,E-7,486.167,167/1000,41,136.0
4312,C#7,486.333,167/1000,49,136.0
4313,C7,486.5,167/1000,53,136.0
4314,A5,486.5,0.5,43,136.0
4315,F5,486.5,0.5,43,136.0
4316,C#7,486.667,167/1000,58,136.0
4317,D7,486.833,167/1000,62,136.0
4318,F7,487.0,11/125,50,136.0
4319,B-5,487.0,0.25,48,136.0
4320,G#4,487.0,0.25,48,136.0
4321,C5,487.0,0.25,48,136.0
4322,F#5,487.0,0.25,48,136.0
4323,E7,487.087,11/125,50,136.0
4324,E-7,487.175,11/125,50,136.0
4325,D7,487.262,11/125,49,136.0
4326,C#7,487.35,11/125,49,136.0
4327,C7,487.435,11/125,49,136.0
4328,B6,487.523,11/125,49,136.0
4329,B-6,487.61,11/125,48,136.0
4330,A6,487.698,11/125,48,136.0
4331,G#6,487.785,11/125,48,136.0
4332,G6,487.871,11/125,47,136.0
4333,F#6,487.958,11/125,47,136.0
4334,F6,488.046,11/125,47,136.0
4335,E6,488.133,11/125,46,136.0
4336,E-6,488.221,11/125,46,136.0
4337,D6,488.306,11/125,46,136.0
4338,C#6,488.394,11/125,46,136.0
4339,C6,488.481,11/125,45,136.0
4340,B5,488.569,11/125,45,136.0
4341,B-5,488.656,11/125,45,136.0
4342,A5,488.744,11/125,44,136.0
4343,G#5,488.829,11/125,44,136.0
4344,G#3,488.906,0.094,40,136.0
4345,E-4,488.906,0.094,40,136.0
4346,G5,488.917,83/1000,44,136.0
4347,F#4,488.969,0.031,45,136.0
4348,C5,488.969,0.031,45,136.0
4349,F#5,489.0,11/125,41,136.0
4350,G#3,489.0,177/1000,40,136.0
4351,E-4,489.0,177/1000,40,136.0
4352,F#4,489.0,0.219,45,136.0
4353,C5,489.0,0.219,45,136.0
4354,F5,489.087,11/125,41,136.0
4355,E5,489.175,11/125,40,136.0
4356,E-5,489.262,11/125,40,136.0
4357,D5,489.35,11/125,39,136.0
4358,C#5,489.438,11/125,39,136.0
4359,C5,489.525,11/125,38,136.0
4360,B4,489.613,11/125,37,136.0
4361,B-4,489.7,11/125,37,136.0
4362,A4,489.788,11/125,36,136.0
4363,G#4,489.875,11/125,36,136.0
4364,G4,489.962,11/125,35,136.0
4365,F#4,490.05,11/125,35,136.0
4366,F4,490.137,11/125,34,136.0
4367,E4,490.225,11/125,33,136.0
4368,E-4,490.312,11/125,33,136.0
4369,D4,490.4,11/125,32,136.0
4370,C#4,490.488,11/125,32,136.0
4371,C4,490.575,11/125,31,136.0
4372,B3,490.663,11/125,31,136.0
4373,B-3,490.75,11/125,30,136.0
4374,A3,490.837,11/125,30,136.0
4375,G#3,490.925,3/40,29,136.0
4376,C#2,490.938,0.062,34,136.0
4377,G#2,490.938,0.062,34,136.0
4378,C#3,491.0,0.5,39,136.0
4379,C#2,491.0,0.469,34,136.0
4380,G#2,491.0,0.469,34,136.0
4381,F3,491.125,0.125,39,136.0
4382,G#3,491.25,0.125,40,136.0
4383,C#4,491.375,0.125,37,136.0
4384,F4,491.5,0.125,39,136.0
4385,G#4,491.625,0.125,41,136.0
4386,C#5,491.75,0.125,43,136.0
4387,F5,491.875,0.125,44,136.0
4388,G#5,492.0,0.125,46,136.0
4389,C#6,492.125,0.125,48,136.0
4390,F6,492.25,0.125,49,136.0
4391,G#6,492.375,0.125,51,136.0
4392,C#7,492.5,0.25,53,136.0
4393,F5,494.25,0.25,36,136.0
4394,C#5,494.25,0.25,36,136.0
4395,E-5,494.5,0.25,40,136.0
4396,F#5,494.5,0.25,40,136.0
4397,E5,494.75,0.25,45,136.0
4398,G5,494.75,0.25,45,136.0
4399,B-5,495.0,0.25,51,136.0
4400,F#5,495.0,0.25,51,136.0
4401,G#5,495.25,9/40,42,136.0
4402,F5,495.25,9/40,42,136.0
4403,C#3,495.5,0.188,34,136.0
4404,G#5,495.5,0.25,42,136.0
4405,F5,495.5,0.25,42,136.0
4406,F4,495.75,0.188,30,136.0
4407,G5,495.75,9/40,42,136.0
4408,E5,495.75,9/40,42,136.0
4409,G#3,496.0,0.188,35,136.0
4410,B-5,496.0,0.25,47,136.0
4411,F#5,496.0,0.25,47,136.0
4412,F4,496.25,0.188,32,136.0
4413,G#5,496.25,9/40,41,136.0
4414,F5,496.25,9/40,41,136.0
4415,C#4,496.5,0.188,36,136.0
4416,F5,496.5,0.25,42,136.0
4417,G#5,496.5,0.25,42,136.0
4418,F4,496.75,0.188,33,136.0
4419,G5,496.75,9/40,44,136.0
4420,E5,496.75,9/40,44,136.0
4421,G#3,497.0,0.188,37,136.0
4422,B-5,497.0,0.25,52,136.0
4423,F#5,497.0,0.25,52,136.0
4424,F4,497.25,0.188,34,136.0
4425,G#5,497.25,9/40,45,136.0
4426,F5,497.25,9/40,45,136.0
4427,C#3,497.5,0.188,39,136.0
4428,G#5,497.5,0.25,45,136.0
4429,F5,497.5,0.25,45,136.0
4430,F4,497.75,0.188,36,136.0
4431,G5,497.75,9/40,45,136.0
4432,E5,497.75,9/40,45,136.0
4433,G#3,498.0,0.188,41,136.0
4434,B-5,498.0,0.25,54,136.0
4435,F#5,498.0,0.25,54,136.0
4436,F4,498.25,0.188,37,136.0
4437,G#5,498.25,9/40,47,136.0
4438,F5,498.25,9/40,47,136.0
4439,C#4,498.5,0.188,42,136.0
4440,F5,498.5,0.25,48,136.0
4441,G#5,498.5,0.25,48,136.0
4442,F4,498.75,0.188,40,136.0
4443,G5,498.75,9/40,50,136.0
4444,E5,498.75,9/40,50,136.0
4445,G#3,499.0,0.188,43,136.0
4446,B-5,499.0,0.25,58,136.0
4447,F#5,499.0,0.25,58,136.0
4448,F4,499.25,0.188,37,136.0
4449,G#5,499.25,9/40,51,136.0
4450,F5,499.25,9/40,51,136.0
4451,C#3,499.5,0.188,45,136.0
4452,G#5,499.5,0.25,51,136.0
4453,F5,499.5,0.25,51,136.0
4454,F4,499.75,0.188,41,136.0
4455,G5,499.75,9/40,51,136.0
4456,E5,499.75,9/40,51,136.0
4457,G#3,500.0,0.188,46,136.0
4458,B-5,500.0,0.25,59,136.0
4459,F#5,500.0,0.25,59,136.0
4460,F4,500.25,0.188,41,136.0
4461,G#5,500.25,9/40,54,136.0
4462,F5,500.25,9/40,54,136.0
4463,C#4,500.5,0.188,47,136.0
4464,F5,500.5,0.25,54,136.0
4465,G#5,500.5,0.25,54,136.0
4466,F4,500.75,0.188,43,136.0
4467,G5,500.75,9/40,54,136.0
4468,E5,500.75,9/40,54,136.0
4469,G#3,501.0,0.188,46,136.0
4470,F#5,501.0,0.25,66,136.0
4471,B-5,501.0,0.25,66,136.0
4472,F4,501.25,0.25,41,136.0
4473,F5,501.25,9/40,61,136.0
4474,G#5,501.25,9/40,61,136.0
4475,G#5,501.5,0.25,63,136.0
4476,F5,501.5,0.5,51,136.0
4477,C#3,501.5,0.25,45,136.0
4478,F6,501.75,9/40,67,136.0
4479,F6,502.0,0.25,73,136.0
4480,F5,502.0,0.5,54,136.0
4481,A3,502.0,0.25,41,136.0
4482,E6,502.25,9/40,71,136.0
4483,E6,502.5,0.25,73,136.0
4484,F5,502.5,0.5,51,136.0
4485,C4,502.5,0.25,37,136.0
4486,F4,502.5,0.25,37,136.0
4487,E-6,502.75,47/200,67,136.0
4488,E-6,503.0,0.25,72,136.0
4489,F5,503.0,0.5,54,136.0
4490,B-3,503.0,0.25,41,136.0
4491,D6,503.25,9/40,69,136.0
4492,D6,503.5,0.25,72,136.0
4493,F5,503.5,0.5,51,136.0
4494,B-4,503.5,0.25,34,136.0
4495,F4,503.5,0.25,34,136.0
4496,C#6,503.75,9/40,67,136.0
4497,C#6,504.0,0.25,70,136.0
4498,F5,504.0,0.5,51,136.0
4499,F3,504.0,0.25,41,136.0
4500,C6,504.25,9/40,62,136.0
4501,C6,504.5,0.25,69,136.0
4502,F5,504.5,0.5,49,136.0
4503,E-5,504.5,0.25,32,136.0
4504,A4,504.5,0.25,32,136.0
4505,F4,504.5,0.25,32,136.0
4506,B5,504.75,0.125,62,136.0
4507,C#6,504.875,0.125,52,136.0
4508,C6,505.0,0.25,64,136.0
4509,F5,505.0,0.5,64,136.0
4510,C#5,505.0,0.25,38,136.0
4511,B-4,505.0,0.25,38,136.0
4512,B-5,505.25,0.125,61,136.0
4513,C6,505.375,0.125,51,136.0
4514,B-5,505.5,0.25,63,136.0
4515,F5,505.5,0.5,63,136.0
4516,E-5,505.5,0.25,32,136.0
4517,C5,505.5,0.25,32,136.0
4518,F4,505.5,0.25,32,136.0
4519,A5,505.75,0.125,61,136.0
4520,C#6,505.875,0.125,52,136.0
4521,C6,506.0,0.25,61,136.0
4522,F5,506.0,0.5,61,136.0
4523,C#5,506.0,0.25,36,136.0
4524,B-4,506.0,0.25,36,136.0
4525,B-5,506.25,0.125,61,136.0
4526,C6,506.375,0.125,51,136.0
4527,B-5,506.5,0.25,59,136.0
4528,F5,506.5,0.5,59,136.0
4529,E-5,506.5,0.25,30,136.0
4530,C5,506.5,0.25,30,136.0
4531,F4,506.5,0.25,30,136.0
4532,A5,506.75,0.125,53,136.0
4533,C#6,506.875,0.125,47,136.0
4534,C6,507.0,0.25,59,136.0
4535,F5,507.0,0.5,59,136.0
4536,C#5,507.0,0.25,34,136.0
4537,B-4,507.0,0.25,34,136.0
4538,B-5,507.25,0.125,55,136.0
4539,C6,507.375,0.125,46,136.0
4540,B-5,507.5,0.25,57,136.0
4541,F5,507.5,0.5,57,136.0
4542,E-5,507.5,0.25,29,136.0
4543,C5,507.5,0.25,29,136.0
4544,F4,507.5,0.25,29,136.0
4545,A5,507.75,0.125,56,136.0
4546,C#6,507.875,0.125,46,136.0
4547,C6,508.0,0.25,55,136.0
4548,F5,508.0,0.5,55,136.0
4549,C#5,508.0,0.25,33,136.0
4550,B-4,508.0,0.25,33,136.0
4551,B-5,508.25,0.125,55,136.0
4552,C6,508.375,0.125,45,136.0
4553,B-5,508.5,0.25,54,136.0
4554,F5,508.5,0.5,54,136.0
4555,E-5,508.5,0.25,29,136.0
4556,C5,508.5,0.25,29,136.0
4557,F4,508.5,0.25,29,136.0
4558,A5,508.75,0.25,48,136.0
4559,F5,509.0,2.0,55,136.0
4560,B-5,509.0,0.125,36,136.0
4561,B-4,509.0,2.0,34,136.0
4562,C#5,509.0,2.0,34,136.0
4563,C6,509.125,3/20,32,136.0
4564,B-5,509.25,3/20,36,136.0
4565,C6,509.375,3/20,32,136.0
4566,B-5,509.5,0.125,36,136.0
4567,C6,509.625,3/20,32,136.0
4568,B-5,509.75,3/20,36,136.0
4569,C6,509.875,3/20,32,136.0
4570,B-5,510.0,0.125,36,136.0
4571,C6,510.125,3/20,32,136.0
4572,B-5,510.25,3/20,36,136.0
4573,C6,510.375,3/20,32,136.0
4574,B-5,510.5,0.125,36,136.0
4575,C6,510.625,3/20,32,136.0
4576,B-5,510.75,3/20,36,136.0
4577,C6,510.875,3/20,32,136.0
4578,A5,511.0,167/1000,42,136.0
4579,B-5,511.167,167/1000,43,136.0
4580,B5,511.333,0.125,44,136.0
4581,C6,511.5,167/1000,45,136.0
4582,C#6,511.667,167/1000,46,136.0
4583,D6,511.833,167/1000,47,136.0
4584,E-6,512.0,167/1000,48,136.0
4585,E6,512.167,167/1000,49,136.0
4586,F6,512.333,167/1000,50,136.0
4587,F#6,512.5,167/1000,51,136.0
4588,G6,512.667,167/1000,52,136.0
4589,G#6,512.833,167/1000,53,136.0
4590,A6,513.0,167/1000,54,136.0
4591,B-6,513.167,167/1000,55,136.0
4592,B6,513.333,167/1000,56,136.0
4593,C7,513.5,167/1000,57,136.0
4594,C#7,513.667,167/1000,58,136.0
4595,F#3,513.75,0.25,56,136.0
4596,E-7,513.833,167/1000,59,136.0
4597,C#7,514.0,1/10,63,136.0
4598,B-4,514.0,0.25,56,136.0
4599,C#5,514.0,0.25,56,136.0
4600,E-7,514.1,1/10,45,136.0
4601,C#7,514.2,1/10,45,136.0
4602,C7,514.3,1/10,45,136.0
4603,C#7,514.4,1/10,45,136.0
4604,E-7,514.5,0.125,51,136.0
4605,C#7,514.625,0.125,46,136.0
4606,B-6,514.75,0.125,46,136.0
4607,G#6,514.875,0.125,46,136.0
4608,C#7,515.0,0.125,51,136.0
4609,B-6,515.125,0.125,46,136.0
4610,G#6,515.25,0.125,46,136.0
4611,F#6,515.375,0.125,46,136.0
4612,B-6,515.5,0.125,51,136.0
4613,B-4,515.5,1.0,54,136.0
4614,C#5,515.5,1.0,54,136.0
4615,G#6,515.625,0.125,46,136.0
4616,F#6,515.75,0.125,46,136.0
4617,E-6,515.875,0.125,46,136.0
4618,G#6,516.0,0.125,51,136.0
4619,F#6,516.125,0.125,45,136.0
4620,E-6,516.25,0.125,45,136.0
4621,C#6,516.375,0.125,45,136.0
4622,F#6,516.5,0.125,51,136.0
4623,G#4,516.5,1.0,53,136.0
4624,C5,516.5,1.0,53,136.0
4625,E-6,516.625,0.125,45,136.0
4626,C#6,516.75,0.125,45,136.0
4627,B-5,516.875,0.125,45,136.0
4628,E-6,517.0,0.125,51,136.0
4629,C#6,517.125,0.125,45,136.0
4630,B-5,517.25,0.125,45,136.0
4631,G#5,517.375,0.125,45,136.0
4632,C#6,517.5,0.125,51,136.0
4633,B-5,517.625,0.125,47,136.0
4634,G#5,517.75,0.125,47,136.0
4635,F#5,517.875,0.125,47,136.0
4636,B-5,518.0,27/250,51,136.0
4637,G#5,518.108,27/250,46,136.0
4638,F#5,518.219,27/250,46,136.0
4639,E-5,518.327,27/250,46,136.0
4640,G#5,518.435,27/250,51,136.0
4641,F#5,518.544,27/250,45,136.0
4642,E-5,518.652,27/250,45,136.0
4643,C#5,518.763,27/250,45,136.0
4644,F#5,518.871,27/250,51,136.0
4645,E-5,518.979,27/250,45,136.0
4646,C#5,519.087,27/250,45,136.0
4647,B-4,519.196,27/250,45,136.0
4648,E-5,519.306,27/250,51,136.0
4649,C#5,519.415,27/250,47,136.0
4650,B-4,519.523,27/250,47,136.0
4651,G#4,519.631,27/250,47,136.0
4652,B-4,519.875,0.125,57,136.0
4653,B-3,519.875,0.125,57,136.0
4654,C#4,519.875,0.125,57,136.0
4655,F#3,519.875,0.125,50,136.0
4656,F#2,519.875,0.125,50,136.0
4657,G#4,520.0,0.25,64,136.0
4658,G#3,520.0,0.25,64,136.0
4659,C#4,520.0,0.25,64,136.0
4660,F3,520.0,0.25,58,136.0
4661,G#2,520.0,0.25,58,136.0
4662,G#6,521.0,1/10,51,136.0
4663,B-6,521.1,1/10,46,136.0
4664,G#6,521.2,1/10,45,136.0
4665,G6,521.3,1/10,45,136.0
4666,G#6,521.4,1/10,45,136.0
4667,F7,521.5,0.125,51,136.0
4668,G#3,521.5,4.5,45,136.0
4669,F4,521.5,4.5,45,136.0
4670,G#4,521.5,4.5,45,136.0
4671,E-7,521.625,0.125,47,136.0
4672,C#7,521.75,0.125,47,136.0
4673,B-6,521.875,0.125,47,136.0
4674,E-7,522.0,0.125,51,136.0
4675,C#7,522.125,0.125,46,136.0
4676,B-6,522.25,0.125,46,136.0
4677,G#6,522.375,0.125,46,136.0
4678,C#7,522.5,0.125,51,136.0
4679,B-6,522.625,0.125,46,136.0
4680,G#6,522.75,0.125,46,136.0
4681,F6,522.875,0.125,46,136.0
4682,B-6,523.0,0.125,51,136.0
4683,G#6,523.125,0.125,46,136.0
4684,F6,523.25,0.125,46,136.0
4685,E-6,523.375,0.125,46,136.0
4686,G#6,523.5,0.125,51,136.0
4687,F6,523.625,0.125,45,136.0
4688,E-6,523.75,0.125,45,136.0
4689,C#6,523.875,0.125,45,136.0
4690,F6,524.0,0.125,51,136.0
4691,E-6,524.125,0.125,45,136.0
4692,C#6,524.25,0.125,45,136.0
4693,B-5,524.375,0.125,45,136.0
4694,E-6,524.5,0.125,51,136.0
4695,C#6,524.625,0.125,45,136.0
4696,B-5,524.75,0.125,45,136.0
4697,G#5,524.875,0.125,45,136.0
4698,C#6,525.0,0.125,51,136.0
4699,B-5,525.125,0.125,47,136.0
4700,G#5,525.25,0.125,47,136.0
4701,F5,525.375,0.125,47,136.0
4702,B-5,525.5,0.125,51,136.0
4703,G#5,525.625,0.125,44,136.0
4704,F5,525.75,0.125,44,136.0
4705,E-5,525.875,0.125,44,136.0
4706,G#5,526.0,0.125,47,136.0
4707,F5,526.125,0.125,40,136.0
4708,E-5,526.25,0.125,40,136.0
4709,C#5,526.375,0.125,40,136.0
4710,F5,526.5,0.125,43,136.0
4711,E-5,526.625,0.125,37,136.0
4712,C#5,526.75,0.125,37,136.0
4713,B-4,526.875,0.125,37,136.0
4714,E-5,527.0,27/250,43,136.0
4715,C#5,527.108,27/250,35,136.0
4716,B-4,527.219,27/250,35,136.0
4717,G#4,527.327,27/250,35,136.0
4718,C#5,527.435,27/250,42,136.0
4719,B-4,527.544,27/250,36,136.0
4720,G#4,527.652,27/250,36,136.0
4721,F4,527.763,27/250,36,136.0
4722,B-4,527.871,27/250,42,136.0
4723,G#4,527.979,27/250,37,136.0
4724,F4,528.087,27/250,37,136.0
4725,E-4,528.196,27/250,37,136.0
4726,G#4,528.306,27/250,42,136.0
4727,F4,528.415,27/250,38,136.0
4728,E-4,528.523,27/250,38,136.0
4729,C#4,528.631,27/250,38,136.0
4730,A5,528.875,0.125,70,136.0
4731,A4,528.875,0.125,70,136.0
4732,F4,528.875,0.125,59,136.0
4733,F3,528.875,0.125,59,136.0
4734,B-5,529.0,0.25,78,136.0
4735,B-4,529.0,0.25,78,136.0
4736,F#4,529.0,0.25,69,136.0
4737,F#3,529.0,0.25,69,136.0
4738,F#3,530.0,1.0,78,136.0
4739,C4,530.0,1.0,78,136.0
4740,C3,530.0,1.0,66,136.0
4741,G#1,530.0,1.0,66,136.0
4742,E-2,530.0,1.0,66,136.0
4743,G#2,530.0,1.0,66,136.0
4744,C#2,534.0,0.125,37,136.0
4745,G#2,534.25,0.125,37,136.0
4746,G#3,534.5,0.5,37,136.0
4747,C#3,534.5,0.5,37,136.0
4748,C#2,535.0,0.125,38,136.0
4749,G#2,535.25,0.125,38,136.0
4750,G#3,535.5,0.5,37,136.0
4751,C#3,535.5,0.5,37,136.0
4752,C#2,536.0,0.125,37,136.0
4753,G#2,536.25,0.125,37,136.0
4754,G#4,536.5,0.75,42,136.0
4755,F4,536.5,0.75,42,136.0
4756,G#3,536.5,0.5,37,136.0
4757,C#3,536.5,0.5,37,136.0
4758,C#2,537.0,0.125,38,136.0
4759,G#2,537.25,0.125,38,136.0
4760,F#4,537.25,0.125,38,136.0
4761,E-4,537.25,0.125,38,136.0
4762,F4,537.5,0.125,38,136.0
4763,C#4,537.5,0.125,38,136.0
4764,G#3,537.5,0.5,37,136.0
4765,C#3,537.5,0.5,37,136.0
4766,F#4,537.75,0.125,38,136.0
4767,E-4,537.75,0.125,38,136.0
4768,C#2,538.0,0.125,37,136.0
4769,G#4,538.0,0.125,44,136.0
4770,F4,538.0,0.125,44,136.0
4771,G#2,538.25,0.125,37,136.0
4772,B-4,538.375,0.125,38,136.0
4773,F#4,538.375,0.125,38,136.0
4774,G#4,538.5,0.75,42,136.0
4775,F4,538.5,0.75,42,136.0
4776,G#3,538.5,0.5,37,136.0
4777,C#3,538.5,0.5,37,136.0
4778,C#2,539.0,0.125,38,136.0
4779,G#2,539.25,0.125,38,136.0
4780,F#4,539.25,0.125,38,136.0
4781,E-4,539.25,0.125,38,136.0
4782,F4,539.5,0.125,38,136.0
4783,C#4,539.5,0.125,38,136.0
4784,G#3,539.5,0.5,37,136.0
4785,C#3,539.5,0.5,37,136.0
4786,F#4,539.75,0.125,38,136.0
4787,E-4,539.75,0.125,38,136.0
4788,C#2,540.0,0.125,37,136.0
4789,G#4,540.0,0.125,44,136.0
4790,F4,540.0,0.125,44,136.0
4791,G#2,540.25,0.125,37,136.0
4792,B-4,540.375,0.125,38,136.0
4793,F#4,540.375,0.125,38,136.0
4794,G#4,540.5,0.25,42,136.0
4795,F4,540.5,0.25,42,136.0
4796,G#3,540.5,0.5,37,136.0
4797,C#3,540.5,0.5,37,136.0
4798,C#2,541.0,0.125,38,136.0
4799,G#2,541.25,0.125,38,136.0
4800,G#3,541.5,0.5,37,136.0
4801,C#3,541.5,0.5,37,136.0
4802,C#2,542.0,0.125,37,136.0
4803,A2,542.25,0.125,37,136.0
4804,E5,542.5,0.75,46,136.0
4805,C#5,542.5,0.75,46,136.0
4806,E4,542.5,0.75,46,136.0
4807,A3,542.5,0.5,37,136.0
4808,C#3,542.5,0.5,37,136.0
4809,C#2,543.0,0.125,38,136.0
4810,A2,543.25,0.125,38,136.0
4811,D5,543.25,0.125,43,136.0
4812,B4,543.25,0.125,43,136.0
4813,C#5,543.5,0.125,43,136.0
4814,A4,543.5,0.125,43,136.0
4815,A3,543.5,0.5,37,136.0
4816,C#3,543.5,0.5,37,136.0
4817,D5,543.75,0.125,43,136.0
4818,B4,543.75,0.125,43,136.0
4819,C#2,544.0,0.125,37,136.0
4820,E5,544.0,0.125,50,136.0
4821,C#5,544.0,0.125,50,136.0
4822,A2,544.25,0.125,37,136.0
4823,F#5,544.375,0.125,44,136.0
4824,D5,544.375,0.125,44,136.0
4825,E5,544.5,0.75,47,136.0
4826,C#5,544.5,0.75,47,136.0
4827,E4,544.5,0.75,47,136.0
4828,A3,544.5,0.5,37,136.0
4829,C#3,544.5,0.5,37,136.0
4830,C#2,545.0,0.125,38,136.0
4831,A2,545.25,0.125,38,136.0
4832,D5,545.25,0.125,43,136.0
4833,B4,545.25,0.125,43,136.0
4834,C#5,545.5,0.125,43,136.0
4835,A4,545.5,0.125,43,136.0
4836,A3,545.5,0.5,37,136.0
4837,C#3,545.5,0.5,37,136.0
4838,D5,545.75,0.125,41,136.0
4839,B4,545.75,0.125,41,136.0
4840,C#2,546.0,0.125,37,136.0
4841,E5,546.0,0.125,48,136.0
4842,C#5,546.0,0.125,48,136.0
4843,A2,546.25,0.125,37,136.0
4844,F#5,546.375,0.125,43,136.0
4845,D5,546.375,0.125,43,136.0
4846,E5,546.5,0.25,45,136.0
4847,C#5,546.5,0.25,45,136.0
4848,E4,546.5,0.25,45,136.0
4849,A3,546.5,0.5,37,136.0
4850,C#3,546.5,0.5,37,136.0
4851,C#2,547.0,0.125,38,136.0
4852,A2,547.25,0.125,38,136.0
4853,A3,547.5,0.5,37,136.0
4854,C#3,547.5,0.5,37,136.0
4855,C#2,548.0,0.125,37,136.0
4856,C#3,548.25,0.125,37,136.0
4857,A5,548.5,0.75,54,136.0
4858,F#5,548.5,0.75,54,136.0
4859,A4,548.5,0.75,54,136.0
4860,D4,548.5,0.5,37,136.0
4861,F#3,548.5,0.5,37,136.0
4862,C#2,549.0,0.125,38,136.0
4863,C#3,549.25,0.125,38,136.0
4864,G#5,549.25,0.125,46,136.0
4865,E5,549.25,0.125,46,136.0
4866,F#5,549.5,0.125,46,136.0
4867,D5,549.5,0.125,46,136.0
4868,D4,549.5,0.5,37,136.0
4869,F#3,549.5,0.5,37,136.0
4870,G#5,549.75,0.125,48,136.0
4871,E5,549.75,0.125,48,136.0
4872,C#2,550.0,0.125,37,136.0
4873,A5,550.0,0.125,59,136.0
4874,F#5,550.0,0.125,59,136.0
4875,C#3,550.25,0.125,37,136.0
4876,B5,550.375,0.125,50,136.0
4877,G#5,550.375,0.125,50,136.0
4878,F#5,550.5,0.75,55,136.0
4879,A5,550.5,0.75,55,136.0
4880,A4,550.5,0.75,55,136.0
4881,D4,550.5,0.5,37,136.0
4882,F#3,550.5,0.5,37,136.0
4883,C#2,551.0,0.125,38,136.0
4884,C#3,551.25,0.125,38,136.0
4885,G#5,551.25,0.125,46,136.0
4886,E5,551.25,0.125,46,136.0
4887,F#5,551.5,0.125,46,136.0
4888,D5,551.5,0.125,46,136.0
4889,D4,551.5,0.5,37,136.0
4890,F#3,551.5,0.5,37,136.0
4891,G#5,551.75,0.125,46,136.0
4892,E5,551.75,0.125,46,136.0
4893,C#2,552.0,0.125,37,136.0
4894,A5,552.0,0.125,52,136.0
4895,F#5,552.0,0.125,52,136.0
4896,C#3,552.25,0.125,37,136.0
4897,B5,552.375,0.125,45,136.0
4898,G#5,552.375,0.125,45,136.0
4899,A5,552.5,0.125,52,136.0
4900,F#5,552.5,0.125,52,136.0
4901,D4,552.5,0.5,37,136.0
4902,F#3,552.5,0.5,37,136.0
4903,A5,552.875,0.125,47,136.0
4904,F#5,552.875,0.125,47,136.0
4905,F4,553.0,0.125,45,136.0
4906,B5,553.0,0.125,52,136.0
4907,G#5,553.0,0.125,52,136.0
4908,B4,553.25,0.125,41,136.0
4909,A5,553.375,0.125,47,136.0
4910,F#5,553.375,0.125,47,136.0
4911,D5,553.5,0.5,47,136.0
4912,B5,553.5,0.125,52,136.0
4913,G#5,553.5,0.125,52,136.0
4914,C#6,553.875,0.125,49,136.0
4915,F5,553.875,0.125,49,136.0
4916,C#4,554.0,0.125,45,136.0
4917,D6,554.0,0.125,54,136.0
4918,F#5,554.0,0.125,54,136.0
4919,F#4,554.25,0.125,42,136.0
4920,A5,554.375,0.125,47,136.0
4921,F#5,554.375,0.125,47,136.0
4922,A4,554.5,0.125,46,136.0
4923,G#5,554.5,0.125,54,136.0
4924,F5,554.5,0.125,54,136.0
4925,A5,554.875,0.125,50,136.0
4926,F#5,554.875,0.125,50,136.0
4927,F4,555.0,0.125,46,136.0
4928,B5,555.0,0.125,54,136.0
4929,G#5,555.0,0.125,54,136.0
4930,B4,555.25,0.125,41,136.0
4931,A5,555.375,0.125,50,136.0
4932,F#5,555.375,0.125,50,136.0
4933,D5,555.5,0.125,48,136.0
4934,B5,555.5,0.125,56,136.0
4935,G#5,555.5,0.125,56,136.0
4936,C#6,555.875,0.125,50,136.0
4937,F5,555.875,0.125,50,136.0
4938,C#4,556.0,0.125,47,136.0
4939,D6,556.0,0.125,56,136.0
4940,F#5,556.0,0.125,56,136.0
4941,F#4,556.25,0.125,41,136.0
4942,G#6,556.5,0.125,65,136.0
4943,A4,556.5,0.125,46,136.0
4944,A6,556.625,0.125,58,136.0
4945,B6,556.75,0.125,58,136.0
4946,A6,556.875,0.125,58,136.0
4947,G#4,557.0,0.125,44,136.0
4948,E-6,557.0,0.25,64,136.0
4949,F#6,557.0,0.25,64,136.0
4950,E-5,557.25,0.125,38,136.0
4951,C#6,557.25,0.25,59,136.0
4952,F6,557.25,0.25,59,136.0
4953,F#5,557.5,0.125,45,136.0
4954,C6,557.5,0.25,59,136.0
4955,E-6,557.5,0.25,59,136.0
4956,G#5,557.75,0.25,60,136.0
4957,G#6,557.75,0.25,60,136.0
4958,C#4,558.0,0.125,46,136.0
4959,F#6,558.0,0.125,66,136.0
4960,E-6,558.0,0.125,66,136.0
4961,G#4,558.25,0.125,42,136.0
4962,C#6,558.25,0.125,59,136.0
4963,F6,558.25,0.125,59,136.0
4964,C5,558.5,0.125,45,136.0
4965,C6,558.5,0.125,59,136.0
4966,E-6,558.5,0.125,59,136.0
4967,G#4,558.75,0.125,59,136.0
4968,G#5,558.75,0.125,59,136.0
4969,G#3,559.0,0.125,45,136.0
4970,E-5,559.0,0.125,64,136.0
4971,F#5,559.0,0.125,64,136.0
4972,E-4,559.25,0.125,42,136.0
4973,C#5,559.25,0.125,57,136.0
4974,F5,559.25,0.125,57,136.0
4975,F#4,559.5,0.125,46,136.0
4976,C5,559.5,0.125,57,136.0
4977,E-5,559.5,0.125,57,136.0
4978,G#4,559.75,0.125,58,136.0
4979,G#5,559.75,0.125,58,136.0
4980,C#2,560.0,0.125,48,136.0
4981,C#5,560.0,0.125,64,136.0
4982,F5,560.0,0.125,64,136.0
4983,G#2,560.25,0.125,48,136.0
4984,G#4,560.5,0.75,53,136.0
4985,G#5,560.5,0.75,53,136.0
4986,F5,560.5,0.75,53,136.0
4987,G#3,560.5,0.5,48,136.0
4988,C#3,560.5,0.5,48,136.0
4989,C#3,561.0,0.125,49,136.0
4990,G#3,561.25,0.125,49,136.0
4991,F#4,561.25,0.125,47,136.0
4992,F#5,561.25,0.125,47,136.0
4993,E-5,561.25,0.125,47,136.0
4994,C#4,561.5,0.5,52,136.0
4995,F4,561.5,0.125,47,136.0
4996,F5,561.5,0.125,47,136.0
4997,C#5,561.5,0.125,47,136.0
4998,F#4,561.75,0.125,47,136.0
4999,F#5,561.75,0.125,47,136.0
5000,E-5,561.75,0.125,47,136.0
5001,C#2,562.0,0.125,48,136.0
5002,G#4,562.0,0.125,55,136.0
5003,G#5,562.0,0.125,55,136.0
5004,F5,562.0,0.125,55,136.0
5005,G#2,562.25,0.125,48,136.0
5006,B-4,562.375,0.125,47,136.0
5007,B-5,562.375,0.125,47,136.0
5008,F#5,562.375,0.125,47,136.0
5009,G#4,562.5,0.75,53,136.0
5010,G#5,562.5,0.75,53,136.0
5011,F5,562.5,0.75,53,136.0
5012,G#3,562.5,0.5,48,136.0
5013,C#3,562.5,0.5,48,136.0
5014,C#3,563.0,0.125,49,136.0
5015,G#3,563.25,0.125,49,136.0
5016,F#4,563.25,0.125,47,136.0
5017,F#5,563.25,0.125,47,136.0
5018,E-5,563.25,0.125,47,136.0
5019,C#4,563.5,0.5,52,136.0
5020,F4,563.5,0.125,47,136.0
5021,F5,563.5,0.125,47,136.0
5022,C#5,563.5,0.125,47,136.0
5023,F#4,563.75,0.125,47,136.0
5024,F#5,563.75,0.125,47,136.0
5025,E-5,563.75,0.125,47,136.0
5026,C#2,564.0,0.125,48,136.0
5027,G#4,564.0,0.125,55,136.0
5028,G#5,564.0,0.125,55,136.0
5029,F5,564.0,0.125,55,136.0
5030,G#2,564.25,0.125,48,136.0
5031,B-4,564.375,0.125,47,136.0
5032,B-5,564.375,0.125,47,136.0
5033,F#5,564.375,0.125,47,136.0
5034,G#4,564.5,0.25,53,136.0
5035,G#5,564.5,0.25,53,136.0
5036,F5,564.5,0.25,53,136.0
5037,G#3,564.5,0.5,48,136.0
5038,C#3,564.5,0.5,48,136.0
5039,C#2,565.0,0.125,48,136.0
5040,A2,565.25,0.125,48,136.0
5041,E6,565.5,0.5,66,136.0
5042,C#6,565.5,0.5,66,136.0
5043,E5,565.5,0.5,66,136.0
5044,A3,565.5,0.5,48,136.0
5045,C#3,565.5,0.5,48,136.0
5046,C#3,566.0,0.125,49,136.0
5047,E6,566.0,0.25,66,136.0
5048,C#6,566.0,0.25,66,136.0
5049,E5,566.0,0.25,66,136.0
5050,A3,566.25,0.125,49,136.0
5051,D5,566.25,0.125,60,136.0
5052,D6,566.25,0.125,60,136.0
5053,B5,566.25,0.125,60,136.0
5054,E4,566.5,0.5,52,136.0
5055,C#5,566.5,0.125,60,136.0
5056,C#6,566.5,0.125,60,136.0
5057,A5,566.5,0.125,60,136.0
5058,D5,566.75,0.125,60,136.0
5059,D6,566.75,0.125,60,136.0
5060,B5,566.75,0.125,60,136.0
5061,C#2,567.0,0.125,48,136.0
5062,E5,567.0,0.125,70,136.0
5063,E6,567.0,0.125,70,136.0
5064,C#6,567.0,0.125,70,136.0
5065,A2,567.25,0.125,48,136.0
5066,F#5,567.375,0.125,61,136.0
5067,F#6,567.375,0.125,61,136.0
5068,D6,567.375,0.125,61,136.0
5069,E6,567.5,0.5,67,136.0
5070,C#6,567.5,0.5,67,136.0
5071,E5,567.5,0.5,67,136.0
5072,A3,567.5,0.5,48,136.0
5073,C#3,567.5,0.5,48,136.0
5074,C#3,568.0,0.125,49,136.0
5075,E6,568.0,0.25,67,136.0
5076,C#6,568.0,0.25,67,136.0
5077,E5,568.0,0.25,67,136.0
5078,A3,568.25,0.125,49,136.0
5079,D5,568.25,0.125,60,136.0
5080,D6,568.25,0.125,60,136.0
5081,B5,568.25,0.125,60,136.0
5082,E4,568.5,0.5,52,136.0
5083,C#5,568.5,0.125,60,136.0
5084,C#6,568.5,0.125,60,136.0
5085,A5,568.5,0.125,60,136.0
5086,D5,568.75,0.125,58,136.0
5087,D6,568.75,0.125,58,136.0
5088,B5,568.75,0.125,58,136.0
5089,C#2,569.0,0.125,48,136.0
5090,E5,569.0,0.125,68,136.0
5091,E6,569.0,0.125,68,136.0
5092,C#6,569.0,0.125,68,136.0
5093,A2,569.25,0.125,48,136.0
5094,F#5,569.375,0.125,60,136.0
5095,F#6,569.375,0.125,60,136.0
5096,D6,569.375,0.125,60,136.0
5097,E6,569.5,0.25,64,136.0
5098,C#6,569.5,0.25,64,136.0
5099,E5,569.5,0.25,64,136.0
5100,A3,569.5,0.5,48,136.0
5101,C#3,569.5,0.5,48,136.0
5102,C#2,570.0,0.125,48,136.0
5103,A2,570.25,0.125,48,136.0
5104,A6,570.5,0.75,76,136.0
5105,F#6,570.5,0.75,76,136.0
5106,A5,570.5,0.75,76,136.0
5107,A3,570.5,0.5,48,136.0
5108,C#3,570.5,0.5,48,136.0
5109,C#3,571.0,0.125,49,136.0
5110,F#3,571.25,0.125,49,136.0
5111,G#5,571.25,0.125,65,136.0
5112,G#6,571.25,0.125,65,136.0
5113,E6,571.25,0.125,65,136.0
5114,F#5,571.5,0.125,65,136.0
5115,F#6,571.5,0.125,65,136.0
5116,D6,571.5,0.125,65,136.0
5117,D4,571.5,0.5,48,136.0
5118,A3,571.5,0.5,48,136.0
5119,G#5,571.75,0.125,66,136.0
5120,G#6,571.75,0.125,66,136.0
5121,E6,571.75,0.125,66,136.0
5122,C#2,572.0,0.125,48,136.0
5123,A5,572.0,0.125,75,136.0
5124,A6,572.0,0.125,75,136.0
5125,F#6,572.0,0.125,75,136.0
5126,A2,572.25,0.125,48,136.0
5127,B5,572.375,0.125,70,136.0
5128,B6,572.375,0.125,70,136.0
5129,G#6,572.375,0.125,70,136.0
5130,F#6,572.5,0.75,78,136.0
5131,A6,572.5,0.75,78,136.0
5132,A5,572.5,0.75,78,136.0
5133,A3,572.5,0.5,48,136.0
5134,C#3,572.5,0.5,48,136.0
5135,C#3,573.0,0.125,49,136.0
5136,F#3,573.25,0.125,49,136.0
5137,G#5,573.25,0.125,65,136.0
5138,G#6,573.25,0.125,65,136.0
5139,E6,573.25,0.125,65,136.0
5140,F#5,573.5,0.125,65,136.0
5141,F#6,573.5,0.125,65,136.0
5142,D6,573.5,0.125,65,136.0
5143,D4,573.5,0.5,48,136.0
5144,A3,573.5,0.5,48,136.0
5145,G#5,573.75,0.125,65,136.0
5146,G#6,573.75,0.125,65,136.0
5147,E6,573.75,0.125,65,136.0
5148,C#2,574.0,0.125,48,136.0
5149,A5,574.0,0.125,72,136.0
5150,A6,574.0,0.125,72,136.0
5151,F#6,574.0,0.125,72,136.0
5152,A2,574.25,0.125,48,136.0
5153,B5,574.375,0.125,62,136.0
5154,B6,574.375,0.125,62,136.0
5155,G#6,574.375,0.125,62,136.0
5156,A5,574.5,0.125,72,136.0
5157,A6,574.5,0.125,72,136.0
5158,F#6,574.5,0.125,72,136.0
5159,A3,574.5,0.5,48,136.0
5160,C#3,574.5,0.5,48,136.0
5161,A5,574.875,0.125,60,136.0
5162,F#5,574.875,0.125,60,136.0
5163,F4,575.0,0.125,58,136.0
5164,B5,575.0,0.125,68,136.0
5165,G#5,575.0,0.125,68,136.0
5166,B4,575.25,0.125,53,136.0
5167,A5,575.375,0.125,60,136.0
5168,F#5,575.375,0.125,60,136.0
5169,D5,575.5,0.5,61,136.0
5170,B5,575.5,0.125,68,136.0
5171,G#5,575.5,0.125,68,136.0
5172,C#6,575.875,0.125,63,136.0
5173,F5,575.875,0.125,63,136.0
5174,C#4,576.0,0.125,58,136.0
5175,D6,576.0,0.125,69,136.0
5176,F#5,576.0,0.125,69,136.0
5177,F#4,576.25,0.125,54,136.0
5178,A5,576.375,0.125,60,136.0
5179,F#5,576.375,0.125,60,136.0
5180,A4,576.5,0.125,59,136.0
5181,G#5,576.5,0.125,70,136.0
5182,F5,576.5,0.125,70,136.0
5183,A5,576.875,0.125,64,136.0
5184,F#5,576.875,0.125,64,136.0
5185,F4,577.0,0.125,59,136.0
5186,B5,577.0,0.125,70,136.0
5187,G#5,577.0,0.125,70,136.0
5188,B4,577.25,0.125,53,136.0
5189,A5,577.375,0.125,65,136.0
5190,F#5,577.375,0.125,65,136.0
5191,D5,577.5,0.125,62,136.0
5192,B5,577.5,0.125,72,136.0
5193,G#5,577.5,0.125,72,136.0
5194,C#6,577.875,0.125,65,136.0
5195,F5,577.875,0.125,65,136.0
5196,C#4,578.0,0.125,61,136.0
5197,D6,578.0,0.125,72,136.0
5198,F#5,578.0,0.125,72,136.0
5199,F#4,578.25,0.125,53,136.0
5200,G#6,578.5,0.125,79,136.0
5201,A4,578.5,0.125,59,136.0
5202,A6,578.625,0.125,72,136.0
5203,B6,578.75,0.125,72,136.0
5204,A6,578.875,0.125,72,136.0
5205,G#4,579.0,0.125,57,136.0
5206,E-6,579.0,0.25,78,136.0
5207,F#6,579.0,0.25,78,136.0
5208,E-5,579.25,0.125,49,136.0
5209,C#6,579.25,0.25,72,136.0
5210,F6,579.25,0.25,72,136.0
5211,F#5,579.5,0.125,58,136.0
5212,C6,579.5,0.25,72,136.0
5213,E-6,579.5,0.25,72,136.0
5214,G#5,579.75,0.25,74,136.0
5215,G#6,579.75,0.25,74,136.0
5216,C#4,580.0,0.125,59,136.0
5217,F#6,580.0,0.125,80,136.0
5218,E-6,580.0,0.125,80,136.0
5219,G#4,580.25,0.125,54,136.0
5220,C#6,580.25,0.125,72,136.0
5221,F6,580.25,0.125,72,136.0
5222,C5,580.5,0.125,58,136.0
5223,C6,580.5,0.125,72,136.0
5224,E-6,580.5,0.125,72,136.0
5225,G#4,580.75,0.125,72,136.0
5226,G#5,580.75,0.125,72,136.0
5227,G#3,581.0,0.125,58,136.0
5228,E-5,581.0,0.125,78,136.0
5229,F#5,581.0,0.125,78,136.0
5230,E-4,581.25,0.125,54,136.0
5231,C#5,581.25,0.125,64,136.0
5232,F5,581.25,0.125,64,136.0
5233,F#4,581.5,0.125,59,136.0
5234,C5,581.5,0.125,64,136.0
5235,E-5,581.5,0.125,64,136.0
5236,G#4,581.75,0.125,64,136.0
5237,G#5,581.75,0.125,64,136.0
5238,C#3,582.0,0.125,40,136.0
5239,C#5,582.0,0.125,48,136.0
5240,F5,582.0,0.125,48,136.0
5241,G#3,582.25,0.125,35,136.0
5242,F6,582.5,0.75,55,136.0
5243,G#6,582.5,0.75,55,136.0
5244,G#4,582.5,0.125,35,136.0
5245,C#4,582.5,0.125,35,136.0
5246,G#3,582.75,0.125,35,136.0
5247,C#3,583.0,0.125,40,136.0
5248,G#3,583.25,0.125,36,136.0
5249,B-6,583.25,0.125,57,136.0
5250,C#7,583.25,0.125,57,136.0
5251,G#6,583.5,0.125,54,136.0
5252,C7,583.5,0.125,54,136.0
5253,G#4,583.5,0.125,36,136.0
5254,C#4,583.5,0.125,36,136.0
5255,G#3,583.75,0.125,37,136.0
5256,B-6,583.75,0.125,54,136.0
5257,F#6,583.75,0.125,54,136.0
5258,C#3,584.0,0.125,40,136.0
5259,F6,584.0,0.125,50,136.0
5260,G#6,584.0,0.125,50,136.0
5261,G#3,584.25,0.125,35,136.0
5262,F5,584.5,0.75,53,136.0
5263,G#5,584.5,0.75,53,136.0
5264,G#4,584.5,0.125,35,136.0
5265,C#4,584.5,0.125,35,136.0
5266,G#3,584.75,0.125,35,136.0
5267,C#3,585.0,0.125,40,136.0
5268,G#3,585.25,0.125,36,136.0
5269,E-5,585.25,0.125,55,136.0
5270,F#5,585.25,0.125,55,136.0
5271,C#5,585.5,0.125,55,136.0
5272,F5,585.5,0.125,55,136.0
5273,G#4,585.5,0.125,36,136.0
5274,C4,585.5,0.125,36,136.0
5275,G#3,585.75,0.125,37,136.0
5276,E-5,585.75,0.125,55,136.0
5277,G#4,585.75,0.125,55,136.0
5278,C#3,586.0,0.125,40,136.0
5279,C#5,586.0,0.125,48,136.0
5280,F5,586.0,0.125,48,136.0
5281,G#3,586.25,0.125,35,136.0
5282,F6,586.5,0.75,55,136.0
5283,G#6,586.5,0.75,55,136.0
5284,G#4,586.5,0.125,35,136.0
5285,C#4,586.5,0.125,35,136.0
5286,G#3,586.75,0.125,35,136.0
5287,C#3,587.0,0.125,40,136.0
5288,G#3,587.25,0.125,36,136.0
5289,B-6,587.25,0.125,57,136.0
5290,C#7,587.25,0.125,57,136.0
5291,G#6,587.5,0.125,54,136.0
5292,C7,587.5,0.125,54,136.0
5293,G#4,587.5,0.125,36,136.0
5294,C#4,587.5,0.125,36,136.0
5295,G#3,587.75,0.125,37,136.0
5296,B-6,587.75,0.125,54,136.0
5297,F#6,587.75,0.125,54,136.0
5298,C#3,588.0,0.125,45,136.0
5299,F6,588.0,0.125,50,136.0
5300,G#6,588.0,0.125,50,136.0
5301,G#3,588.25,0.125,40,136.0
5302,F#5,588.5,0.5,64,136.0
5303,B-5,588.5,0.5,64,136.0
5304,G#4,588.5,0.125,40,136.0
5305,C#4,588.5,0.125,40,136.0
5306,G#3,588.75,0.125,40,136.0
5307,C#3,589.0,0.125,46,136.0
5308,F5,589.0,0.125,58,136.0
5309,G#5,589.0,0.125,58,136.0
5310,G#3,589.25,0.125,39,136.0
5311,E-5,589.25,0.125,54,136.0
5312,F#5,589.25,0.125,54,136.0
5313,C#5,589.5,0.125,54,136.0
5314,F5,589.5,0.125,54,136.0
5315,G#4,589.5,0.125,39,136.0
5316,C4,589.5,0.125,39,136.0
5317,G#3,589.75,0.125,37,136.0
5318,E-5,589.75,0.125,53,136.0
5319,G#4,589.75,0.125,53,136.0
5320,C#3,590.0,0.125,40,136.0
5321,C#5,590.0,0.125,48,136.0
5322,F5,590.0,0.125,48,136.0
5323,G#3,590.25,0.125,35,136.0
5324,F6,590.5,0.75,55,136.0
5325,G#6,590.5,0.75,55,136.0
5326,G#4,590.5,0.125,35,136.0
5327,C#4,590.5,0.125,35,136.0
5328,G#3,590.75,0.125,35,136.0
5329,C#3,591.0,0.125,40,136.0
5330,G#3,591.25,0.125,36,136.0
5331,B-6,591.25,0.125,57,136.0
5332,C#7,591.25,0.125,57,136.0
5333,G#6,591.5,0.125,54,136.0
5334,C7,591.5,0.125,54,136.0
5335,G#4,591.5,0.125,36,136.0
5336,C#4,591.5,0.125,36,136.0
5337,G#3,591.75,0.125,37,136.0
5338,B-6,591.75,0.125,54,136.0
5339,F#6,591.75,0.125,54,136.0
5340,C#3,592.0,0.125,40,136.0
5341,F6,592.0,0.125,50,136.0
5342,G#6,592.0,0.125,50,136.0
5343,G#3,592.25,0.125,35,136.0
5344,F5,592.5,0.75,53,136.0
5345,G#5,592.5,0.75,53,136.0
5346,G#4,592.5,0.125,35,136.0
5347,C#4,592.5,0.125,35,136.0
5348,G#3,592.75,0.125,35,136.0
5349,C#3,593.0,0.125,40,136.0
5350,G#3,593.25,0.125,36,136.0
5351,E-5,593.25,0.125,55,136.0
5352,F#5,593.25,0.125,55,136.0
5353,C#5,593.5,0.125,53,136.0
5354,F5,593.5,0.125,53,136.0
5355,G#4,593.5,0.125,36,136.0
5356,C4,593.5,0.125,36,136.0
5357,G#3,593.75,0.125,37,136.0
5358,E-5,593.75,0.125,53,136.0
5359,G#4,593.75,0.125,53,136.0
5360,C#3,594.0,0.125,40,136.0
5361,C#5,594.0,0.125,48,136.0
5362,F5,594.0,0.125,48,136.0
5363,G#3,594.25,0.125,35,136.0
5364,F6,594.5,0.75,55,136.0
5365,G#6,594.5,0.75,55,136.0
5366,G#4,594.5,0.125,35,136.0
5367,C#4,594.5,0.125,35,136.0
5368,G#3,594.75,0.125,35,136.0
5369,C#3,595.0,0.125,40,136.0
5370,G#3,595.25,0.125,36,136.0
5371,B-6,595.25,0.125,57,136.0
5372,C#7,595.25,0.125,57,136.0
5373,G#6,595.5,0.125,54,136.0
5374,C7,595.5,0.125,54,136.0
5375,G#4,595.5,0.125,36,136.0
5376,C#4,595.5,0.125,36,136.0
5377,G#3,595.75,0.125,37,136.0
5378,B-6,595.75,0.125,54,136.0
5379,F#6,595.75,0.125,54,136.0
5380,C#3,596.0,0.125,44,136.0
5381,F6,596.0,0.125,50,136.0
5382,G#6,596.0,0.125,50,136.0
5383,G#3,596.25,0.125,39,136.0
5384,F#5,596.5,0.5,60,136.0
5385,B-5,596.5,0.5,60,136.0
5386,G#4,596.5,0.125,39,136.0
5387,C#4,596.5,0.125,39,136.0
5388,G#3,596.75,0.125,39,136.0
5389,C#3,597.0,0.125,44,136.0
5390,F5,597.0,0.125,59,136.0
5391,G#5,597.0,0.125,59,136.0
5392,G#3,597.25,0.125,36,136.0
5393,E-5,597.25,0.125,53,136.0
5394,F#5,597.25,0.125,53,136.0
5395,C#5,597.5,0.125,53,136.0
5396,F5,597.5,0.125,53,136.0
5397,G#4,597.5,0.125,36,136.0
5398,C4,597.5,0.125,36,136.0
5399,G#3,597.75,0.125,37,136.0
5400,E-5,597.75,0.125,53,136.0
5401,G#4,597.75,0.125,53,136.0
5402,C#3,598.0,0.125,40,136.0
5403,C#5,598.0,0.125,55,136.0
5404,F5,598.0,0.125,55,136.0
5405,G#3,598.25,0.125,35,136.0
5406,G#4,598.5,0.5,50,136.0
5407,C#5,598.5,0.25,50,136.0
5408,F4,598.5,0.125,35,136.0
5409,C#4,598.5,0.125,35,136.0
5410,D5,598.75,0.25,51,136.0
5411,G#3,598.75,0.125,35,136.0
5412,C#3,599.0,0.125,40,136.0
5413,G#4,599.0,0.75,55,136.0
5414,E-5,599.0,0.75,55,136.0
5415,G#3,599.25,0.125,36,136.0
5416,F#4,599.5,0.125,36,136.0
5417,C4,599.5,0.125,36,136.0
5418,G#3,599.75,0.125,37,136.0
5419,E-5,599.75,0.125,50,136.0
5420,F#5,599.75,0.125,50,136.0
5421,C#5,600.0,0.5,55,136.0
5422,F5,600.0,0.25,55,136.0
5423,C#3,600.0,0.125,40,136.0
5424,G#5,600.25,0.25,51,136.0
5425,G#3,600.25,0.125,35,136.0
5426,G#4,600.5,0.25,51,136.0
5427,C#5,600.5,0.25,51,136.0
5428,F4,600.5,0.125,35,136.0
5429,C#4,600.5,0.125,35,136.0
5430,G#3,600.75,0.125,35,136.0
5431,C#3,601.0,0.125,40,136.0
5432,G#5,601.0,0.75,57,136.0
5433,E-6,601.0,0.75,57,136.0
5434,G#3,601.25,0.125,36,136.0
5435,F#4,601.5,0.125,36,136.0
5436,C4,601.5,0.125,36,136.0
5437,G#3,601.75,0.125,37,136.0
5438,E-6,601.75,0.125,52,136.0
5439,F#6,601.75,0.125,52,136.0
5440,C#6,602.0,0.5,57,136.0
5441,F6,602.0,0.25,57,136.0
5442,C#3,602.0,0.125,40,136.0
5443,G#6,602.25,0.25,53,136.0
5444,G#3,602.25,0.125,35,136.0
5445,G#5,602.5,0.25,53,136.0
5446,C#6,602.5,0.25,53,136.0
5447,F4,602.5,0.125,35,136.0
5448,C#4,602.5,0.125,35,136.0
5449,G#3,602.75,0.125,35,136.0
5450,C#3,603.0,0.125,40,136.0
5451,G#4,603.0,0.75,55,136.0
5452,E-5,603.0,0.75,55,136.0
5453,G#3,603.25,0.125,36,136.0
5454,F#4,603.5,0.125,36,136.0
5455,C4,603.5,0.125,36,136.0
5456,G#3,603.75,0.125,37,136.0
5457,E-5,603.75,83/1000,50,136.0
5458,F#5,603.75,83/1000,50,136.0
5459,G#5,603.833,83/1000,50,136.0
5460,F#5,603.917,83/1000,50,136.0
5461,C#5,604.0,0.5,55,136.0
5462,F5,604.0,0.25,55,136.0
5463,C#3,604.0,0.125,40,136.0
5464,G#5,604.25,0.25,51,136.0
5465,G#3,604.25,0.125,35,136.0
5466,G#4,604.5,0.25,51,136.0
5467,C#5,604.5,0.25,51,136.0
5468,F4,604.5,0.125,35,136.0
5469,C#4,604.5,0.125,35,136.0
5470,G#3,604.75,0.125,35,136.0
5471,C#3,605.0,0.125,40,136.0
5472,G#5,605.0,0.75,57,136.0
5473,E-6,605.0,0.75,57,136.0
5474,G#3,605.25,0.125,36,136.0
5475,F#4,605.5,0.125,36,136.0
5476,C4,605.5,0.125,36,136.0
5477,G#3,605.75,0.125,37,136.0
5478,E-6,605.75,83/1000,52,136.0
5479,F#6,605.75,83/1000,52,136.0
5480,G#6,605.833,83/1000,52,136.0
5481,F#6,605.917,83/1000,52,136.0
5482,C#6,606.0,0.5,57,136.0
5483,F6,606.0,0.25,57,136.0
5484,C#3,606.0,0.125,40,136.0
5485,G#6,606.25,0.25,53,136.0
5486,G#3,606.25,0.125,35,136.0
5487,G#5,606.5,0.25,53,136.0
5488,C#6,606.5,0.25,53,136.0
5489,F4,606.5,0.125,35,136.0
5490,C#4,606.5,0.125,35,136.0
5491,G#3,606.75,0.125,35,136.0
5492,C5,607.0,0.125,48,136.0
5493,C#3,607.0,0.125,40,136.0
5494,C#5,607.125,0.125,49,136.0
5495,E-5,607.25,0.125,50,136.0
5496,G#3,607.25,0.125,36,136.0
5497,F5,607.375,0.125,51,136.0
5498,F#5,607.5,0.125,52,136.0
5499,F#4,607.5,0.125,36,136.0
5500,C4,607.5,0.125,36,136.0
5501,G#5,607.625,0.125,52,136.0
5502,B-5,607.75,0.125,53,136.0
5503,G#3,607.75,0.125,37,136.0
5504,C6,607.875,0.125,54,136.0
5505,C#6,608.0,0.125,56,136.0
5506,C#3,608.0,0.125,40,136.0
5507,E-6,608.125,0.125,56,136.0
5508,F6,608.25,0.125,56,136.0
5509,G#3,608.25,0.125,35,136.0
5510,F#6,608.375,0.125,57,136.0
5511,G6,608.5,0.125,57,136.0
5512,F4,608.5,0.125,35,136.0
5513,C#4,608.5,0.125,35,136.0
5514,B-6,608.625,0.125,58,136.0
5515,G#6,608.75,0.125,58,136.0
5516,G#3,608.75,0.125,35,136.0
5517,B-6,608.875,0.125,59,136.0
5518,G#6,609.0,0.125,58,136.0
5519,E-6,609.0,0.75,61,136.0
5520,C#3,609.0,0.125,40,136.0
5521,B-6,609.125,0.125,52,136.0
5522,G#6,609.25,0.125,52,136.0
5523,G#3,609.25,0.125,36,136.0
5524,B-6,609.375,0.125,52,136.0
5525,G#6,609.5,0.125,52,136.0
5526,F#4,609.5,0.125,36,136.0
5527,C4,609.5,0.125,36,136.0
5528,B-6,609.625,0.125,52,136.0
5529,G#6,609.75,0.125,52,136.0
5530,F#6,609.75,0.25,52,136.0
5531,G#3,609.75,0.125,37,136.0
5532,B-6,609.875,0.125,52,136.0
5533,G#6,610.0,0.125,58,136.0
5534,F6,610.0,0.25,57,136.0
5535,C#3,610.0,0.125,40,136.0
5536,B-6,610.125,0.125,52,136.0
5537,G#6,610.25,0.25,53,136.0
5538,G#3,610.25,0.125,35,136.0
5539,B-6,610.375,0.125,52,136.0
5540,G#6,610.5,0.25,56,136.0
5541,C#6,610.5,0.25,56,136.0
5542,F4,610.5,0.125,35,136.0
5543,C#4,610.5,0.125,35,136.0
5544,G#3,610.75,0.125,35,136.0
5545,C5,611.002,0.125,48,136.0
5546,C#3,611.002,0.125,40,136.0
5547,C#5,611.127,0.125,49,136.0
5548,G#3,611.25,0.125,36,136.0
5549,E-5,611.252,0.125,50,136.0
5550,F5,611.377,0.125,51,136.0
5551,F#4,611.5,0.125,36,136.0
5552,C4,611.5,0.125,36,136.0
5553,F#5,611.502,0.125,52,136.0
5554,G#5,611.627,0.125,52,136.0
5555,G#3,611.75,0.125,37,136.0
5556,B-5,611.752,0.125,53,136.0
5557,C6,611.877,123/1000,54,136.0
5558,C6,612.0,1/500,54,136.0
5559,C#6,612.002,0.125,56,136.0
5560,C#3,612.002,0.125,40,136.0
5561,E-6,612.127,0.125,56,136.0
5562,F6,612.252,0.125,56,136.0
5563,G#3,612.252,0.125,35,136.0
5564,F#6,612.377,0.125,57,136.0
5565,G6,612.502,0.125,57,136.0
5566,F4,612.502,0.125,35,136.0
5567,C#4,612.502,0.125,35,136.0
5568,B-6,612.627,0.125,58,136.0
5569,G#6,612.752,0.125,58,136.0
5570,G#3,612.752,0.125,35,136.0
5571,B-6,612.877,0.125,59,136.0
5572,G#6,613.002,0.125,58,136.0
5573,E-6,613.002,0.75,61,136.0
5574,C#3,613.002,0.125,40,136.0
5575,B-6,613.127,0.125,52,136.0
5576,G#6,613.252,0.125,52,136.0
5577,G#3,613.252,0.125,36,136.0
5578,B-6,613.377,0.125,52,136.0
5579,G#6,613.502,0.125,52,136.0
5580,F#4,613.502,0.125,36,136.0
5581,C4,613.502,0.125,36,136.0
5582,B-6,613.627,0.125,52,136.0
5583,G#6,613.752,0.125,52,136.0
5584,F#6,613.752,31/125,52,136.0
5585,G#3,613.752,0.125,37,136.0
5586,B-6,613.877,123/1000,52,136.0
5587,B-6,614.0,1/500,52,136.0
5588,F#6,614.0,1/500,52,136.0
5589,G#6,614.002,0.125,58,136.0
5590,F6,614.002,0.25,57,136.0
5591,C#3,614.002,0.125,40,136.0
5592,B-6,614.127,0.125,52,136.0
5593,G#6,614.252,0.25,53,136.0
5594,G#3,614.252,0.125,35,136.0
5595,B-6,614.375,0.125,52,136.0
5596,G#6,614.5,0.125,58,136.0
5597,C#6,614.502,0.25,53,136.0
5598,F4,614.502,0.125,35,136.0
5599,C#4,614.502,0.125,35,136.0
5600,B-6,614.625,0.125,52,136.0
5601,G#6,614.75,0.125,52,136.0
5602,G#3,614.75,0.125,35,136.0
5603,B-6,614.875,0.125,52,136.0
5604,G#6,615.002,0.125,60,136.0
5605,E-6,615.002,0.75,64,136.0
5606,C#3,615.002,0.125,42,136.0
5607,B-6,615.127,0.125,54,136.0
5608,G#6,615.252,0.125,54,136.0
5609,G#3,615.252,0.125,37,136.0
5610,B-6,615.377,0.125,54,136.0
5611,G#6,615.502,0.125,54,136.0
5612,F#4,615.502,0.125,37,136.0
5613,C4,615.502,0.125,37,136.0
5614,B-6,615.627,0.125,54,136.0
5615,G#6,615.752,0.125,54,136.0
5616,F#6,615.752,31/125,54,136.0
5617,G#3,615.752,0.125,38,136.0
5618,B-6,615.877,123/1000,54,136.0
5619,F6,616.0,0.25,63,136.0
5620,B-6,616.0,1/500,54,136.0
5621,F#6,616.0,1/500,54,136.0
5622,G#6,616.0,0.125,60,136.0
5623,C#3,616.002,0.125,42,136.0
5624,B-6,616.125,0.125,54,136.0
5625,G#6,616.25,0.25,64,136.0
5626,G#6,616.25,0.125,60,136.0
5627,G#3,616.252,0.125,36,136.0
5628,B-6,616.375,0.125,54,136.0
5629,C#6,616.5,0.25,55,136.0
5630,G#6,616.5,0.125,60,136.0
5631,F4,616.502,0.125,36,136.0
5632,C#4,616.502,0.125,36,136.0
5633,B-6,616.625,0.125,54,136.0
5634,G#6,616.75,0.125,54,136.0
5635,G#3,616.752,0.125,36,136.0
5636,B-6,616.875,0.125,54,136.0
5637,C6,617.0,0.125,57,136.0
5638,C#3,617.0,0.125,42,136.0
5639,G#6,617.0,0.125,60,136.0
5640,B-6,617.125,0.125,54,136.0
5641,C#6,617.25,0.125,58,136.0
5642,G#3,617.25,0.125,37,136.0
5643,G#6,617.25,0.125,60,136.0
5644,B-6,617.375,0.125,54,136.0
5645,E-6,617.5,0.125,60,136.0
5646,F#4,617.5,0.125,37,136.0
5647,C4,617.5,0.125,37,136.0
5648,G#6,617.502,0.125,60,136.0
5649,B-6,617.625,0.125,54,136.0
5650,E6,617.75,0.125,61,136.0
5651,G#3,617.75,0.125,38,136.0
5652,G#6,617.75,0.125,54,136.0
5653,B-6,617.875,0.125,54,136.0
5654,F6,618.0,0.125,63,136.0
5655,G#6,618.0,0.125,60,136.0
5656,C#3,618.002,0.125,42,136.0
5657,B-6,618.125,0.125,54,136.0
5658,F#6,618.25,0.125,65,136.0
5659,G#6,618.25,0.125,60,136.0
5660,G#3,618.252,0.125,36,136.0
5661,B-6,618.375,0.125,54,136.0
5662,G6,618.5,0.125,64,136.0
5663,G#6,618.5,0.125,60,136.0
5664,F4,618.502,0.125,36,136.0
5665,C#4,618.502,0.125,36,136.0
5666,B-6,618.625,0.125,54,136.0
5667,G#6,618.75,0.125,67,136.0
5668,G#6,618.75,0.125,54,136.0
5669,G#3,618.752,0.125,36,136.0
5670,B-6,618.875,0.125,54,136.0
5671,F#6,619.0,0.125,64,136.0
5672,C#3,619.0,0.125,42,136.0
5673,G#6,619.0,0.125,60,136.0
5674,B-6,619.125,0.125,54,136.0
5675,F6,619.25,0.125,65,136.0
5676,G#3,619.25,0.125,37,136.0
5677,G#6,619.25,0.125,60,136.0
5678,B-6,619.375,0.125,54,136.0
5679,E-6,619.5,0.125,64,136.0
5680,G#6,619.5,0.125,60,136.0
5681,F#4,619.5,0.125,37,136.0
5682,C4,619.5,0.125,37,136.0
5683,B-6,619.625,0.125,54,136.0
5684,F#6,619.75,0.125,65,136.0
5685,G#3,619.75,0.125,38,136.0
5686,G#6,619.75,0.125,54,136.0
5687,B-6,619.875,0.125,54,136.0
5688,F6,620.0,0.25,63,136.0
5689,G#6,620.0,0.125,60,136.0
5690,C#3,620.002,0.125,42,136.0
5691,B-6,620.125,0.125,54,136.0
5692,G#6,620.25,0.25,63,136.0
5693,G#6,620.25,0.125,60,136.0
5694,G#3,620.252,0.125,36,136.0
5695,B-6,620.375,0.125,54,136.0
5696,C#6,620.5,0.25,55,136.0
5697,G#6,620.5,0.125,60,136.0
5698,F4,620.502,0.125,36,136.0
5699,C#4,620.502,0.125,36,136.0
5700,B-6,620.625,0.125,54,136.0
5701,G#6,620.75,0.125,54,136.0
5702,G#3,620.752,0.125,36,136.0
5703,B-6,620.875,0.125,54,136.0
5704,C6,621.0,0.125,57,136.0
5705,C#3,621.0,0.125,42,136.0
5706,G#6,621.0,0.125,60,136.0
5707,B-6,621.125,0.125,54,136.0
5708,C#6,621.25,0.125,58,136.0
5709,G#3,621.25,0.125,37,136.0
5710,G#6,621.25,0.125,60,136.0
5711,B-6,621.375,0.125,54,136.0
5712,E-6,621.5,0.125,60,136.0
5713,G#6,621.5,0.125,60,136.0
5714,F#4,621.5,0.125,37,136.0
5715,C4,621.5,0.125,37,136.0
5716,B-6,621.625,0.125,55,136.0
5717,E6,621.75,0.125,62,136.0
5718,G#3,621.75,0.125,38,136.0
5719,G#6,621.75,0.125,55,136.0
5720,B-6,621.875,0.125,55,136.0
5721,F6,622.0,0.125,64,136.0
5722,G#6,622.0,0.125,61,136.0
5723,C#3,622.002,0.125,43,136.0
5724,B-6,622.125,0.125,56,136.0
5725,F#6,622.25,0.125,67,136.0
5726,G#6,622.25,0.125,62,136.0
5727,G#3,622.252,0.125,37,136.0
5728,B-6,622.375,0.125,56,136.0
5729,G6,622.5,0.125,67,136.0
5730,G#6,622.5,0.125,63,136.0
5731,F4,622.502,0.125,37,136.0
5732,C#4,622.502,0.125,37,136.0
5733,B-6,622.625,0.125,57,136.0
5734,G#6,622.75,0.125,71,136.0
5735,G#6,622.75,0.125,57,136.0
5736,G#3,622.752,0.125,38,136.0
5737,B-6,622.875,0.125,57,136.0
5738,F#6,623.0,0.125,68,136.0
5739,C#3,623.0,0.125,44,136.0
5740,G#6,623.0,0.125,64,136.0
5741,B-6,623.125,0.125,58,136.0
5742,F6,623.25,0.125,70,136.0
5743,G#3,623.25,0.125,39,136.0
5744,G#6,623.25,0.125,64,136.0
5745,B-6,623.375,0.125,58,136.0
5746,E-6,623.5,0.125,69,136.0
5747,G#6,623.5,0.125,65,136.0
5748,F#4,623.5,0.125,40,136.0
5749,C4,623.5,0.125,40,136.0
5750,B-6,623.625,0.125,59,136.0
5751,G#6,623.75,0.125,71,136.0
5752,G#3,623.75,0.125,41,136.0
5753,G#6,623.75,0.125,59,136.0
5754,B-6,623.875,0.125,59,136.0
5755,C#3,623.938,0.062,41,136.0
5756,C#6,624.0,0.5,58,136.0
5757,G#6,624.0,0.125,61,136.0
5758,F4,624.0,0.5,54,136.0
5759,C#3,624.0,0.5,41,136.0
5760,B-6,624.125,0.125,56,136.0
5761,G#6,624.25,0.125,62,136.0
5762,B-6,624.375,0.125,56,136.0
5763,G#6,624.5,0.125,63,136.0
5764,G#5,624.5,0.625,60,136.0
5765,F5,624.5,0.625,60,136.0
5766,B-6,624.625,0.125,57,136.0
5767,G#6,624.75,0.125,60,136.0
5768,B-6,624.875,0.125,52,136.0
5769,G#6,625.0,0.125,59,136.0
5770,B-6,625.125,0.125,51,136.0
5771,G#6,625.25,0.125,59,136.0
5772,C#6,625.25,0.125,55,136.0
5773,B-5,625.25,0.125,55,136.0
5774,B-6,625.375,0.125,51,136.0
5775,G#6,625.5,0.125,59,136.0
5776,C6,625.5,0.125,55,136.0
5777,G#5,625.5,0.125,55,136.0
5778,B-6,625.625,0.125,51,136.0
5779,G#6,625.75,0.125,56,136.0
5780,B-5,625.75,0.125,55,136.0
5781,F#5,625.75,0.125,55,136.0
5782,B-6,625.875,0.125,52,136.0
5783,G#6,626.0,0.125,61,136.0
5784,F5,626.0,0.25,60,136.0
5785,G#5,626.0,0.25,60,136.0
5786,B-6,626.125,0.125,56,136.0
5787,G#6,626.25,0.125,62,136.0
5788,B-6,626.375,0.125,56,136.0
5789,G#6,626.5,0.125,59,136.0
5790,B-6,626.625,0.125,53,136.0
5791,G#6,626.75,0.125,58,136.0
5792,B-5,626.75,83/1000,51,136.0
5793,F#5,626.75,0.25,51,136.0
5794,C6,626.833,83/1000,51,136.0
5795,B-6,626.875,0.125,52,136.0
5796,B-5,626.917,83/1000,51,136.0
5797,G#6,627.0,0.125,59,136.0
5798,G#5,627.0,0.125,60,136.0
5799,F5,627.0,0.125,60,136.0
5800,B-6,627.125,0.125,53,136.0
5801,G#6,627.25,0.125,60,136.0
5802,F#5,627.25,0.125,54,136.0
5803,E-5,627.25,0.125,54,136.0
5804,B-6,627.375,0.125,53,136.0
5805,G#6,627.5,0.125,60,136.0
5806,F5,627.5,0.125,54,136.0
5807,C#5,627.5,0.125,54,136.0
5808,B-6,627.625,0.125,53,136.0
5809,G#6,627.75,0.125,60,136.0
5810,G#4,627.75,0.125,54,136.0
5811,E-5,627.75,0.125,54,136.0
5812,B-6,627.875,0.125,53,136.0
5813,G#6,628.0,0.125,61,136.0
5814,F4,628.0,0.25,54,136.0
5815,C#5,628.0,0.25,54,136.0
5816,B-6,628.125,0.125,56,136.0
5817,G#6,628.25,0.125,62,136.0
5818,B-6,628.375,0.125,56,136.0
5819,G#6,628.5,0.125,63,136.0
5820,G#4,628.5,0.625,60,136.0
5821,F4,628.5,0.625,60,136.0
5822,B-6,628.625,0.125,57,136.0
5823,G#6,628.75,0.125,60,136.0
5824,B-6,628.875,0.125,52,136.0
5825,G#6,629.0,0.125,67,136.0
5826,F6,629.125,0.125,51,136.0
5827,F#6,629.25,0.125,65,136.0
5828,C#5,629.25,0.125,55,136.0
5829,B-4,629.25,0.125,55,136.0
5830,E-6,629.375,0.125,51,136.0
5831,F6,629.5,0.125,65,136.0
5832,C5,629.5,0.125,55,136.0
5833,G#4,629.5,0.125,55,136.0
5834,C#6,629.625,0.125,51,136.0
5835,F#6,629.75,0.125,64,136.0
5836,B-4,629.75,0.125,55,136.0
5837,F#4,629.75,0.125,55,136.0
5838,E-6,629.875,0.125,52,136.0
5839,G#6,630.0,0.125,61,136.0
5840,F4,630.0,0.25,60,136.0
5841,G#4,630.0,0.25,60,136.0
5842,F6,630.125,0.125,56,136.0
5843,B-6,630.25,0.125,62,136.0
5844,F#6,630.375,0.125,56,136.0
5845,G#6,630.5,0.125,59,136.0
5846,F4,630.5,0.625,60,136.0
5847,G#4,630.5,0.625,60,136.0
5848,F6,630.625,0.125,53,136.0
5849,G#6,630.758,0.125,58,136.0
5850,F6,630.875,0.125,52,136.0
5851,G#6,631.0,0.125,59,136.0
5852,F6,631.125,0.125,53,136.0
5853,F#6,631.25,0.125,60,136.0
5854,F#4,631.25,0.125,54,136.0
5855,E-4,631.25,0.125,54,136.0
5856,E-6,631.375,0.125,53,136.0
5857,F6,631.5,0.125,60,136.0
5858,F4,631.5,0.125,54,136.0
5859,C#4,631.5,0.125,54,136.0
5860,C#6,631.625,0.125,53,136.0
5861,F#6,631.75,0.125,60,136.0
5862,G#3,631.75,0.125,54,136.0
5863,E-4,631.75,0.125,54,136.0
5864,E-6,631.875,0.125,53,136.0
5865,G#6,632.0,0.125,61,136.0
5866,F3,632.0,0.125,62,136.0
5867,C#4,632.0,0.125,62,136.0
5868,F6,632.125,0.125,56,136.0
5869,E6,632.25,0.125,58,136.0
5870,G6,632.375,0.125,51,136.0
5871,F6,632.5,0.125,54,136.0
5872,G#6,632.625,0.125,46,136.0
5873,F6,632.75,0.125,54,136.0
5874,A6,632.875,0.125,48,136.0
5875,F#6,633.0,0.125,55,136.0
5876,G#3,633.0,1.0,58,136.0
5877,E-4,633.0,0.75,58,136.0
5878,B-6,633.125,0.125,50,136.0
5879,F6,633.25,0.125,56,136.0
5880,A6,633.375,0.125,50,136.0
5881,F#6,633.5,0.125,56,136.0
5882,B-6,633.625,0.125,49,136.0
5883,E-6,633.75,0.125,56,136.0
5884,F#4,633.75,0.125,53,136.0
5885,C7,633.875,0.125,49,136.0
5886,C#6,634.0,0.125,59,136.0
5887,C#4,634.0,0.5,58,136.0
5888,F4,634.0,0.125,61,136.0
5889,C#7,634.125,0.125,53,136.0
5890,F6,634.25,0.125,58,136.0
5891,G#4,634.25,0.125,55,136.0
5892,G#6,634.375,0.125,48,136.0
5893,E6,634.5,0.125,55,136.0
5894,C#4,634.5,0.25,55,136.0
5895,G6,634.625,0.125,51,136.0
5896,F6,634.75,0.125,57,136.0
5897,G#6,634.875,0.125,51,136.0
5898,E-6,635.0,0.125,55,136.0
5899,G#3,635.0,1.0,58,136.0
5900,E-4,635.0,0.75,58,136.0
5901,F#6,635.125,0.125,50,136.0
5902,C#6,635.25,0.125,56,136.0
5903,F6,635.375,0.125,50,136.0
5904,C6,635.5,0.125,56,136.0
5905,E-6,635.625,0.125,49,136.0
5906,G#5,635.75,0.125,56,136.0
5907,F#4,635.75,0.125,53,136.0
5908,G#6,635.875,0.125,49,136.0
5909,C#6,636.0,0.125,59,136.0
5910,C#4,636.0,0.5,58,136.0
5911,F4,636.0,0.125,61,136.0
5912,F6,636.125,0.125,53,136.0
5913,G#5,636.25,0.125,58,136.0
5914,G#4,636.25,0.125,55,136.0
5915,E-6,636.375,0.125,48,136.0
5916,F5,636.5,0.125,55,136.0
5917,C#4,636.5,0.25,55,136.0
5918,C#6,636.625,0.125,51,136.0
5919,F6,636.75,0.125,57,136.0
5920,G#6,636.875,0.125,51,136.0
5921,F#6,637.0,0.125,55,136.0
5922,G#3,637.0,1.0,63,136.0
5923,E-4,637.0,0.75,63,136.0
5924,B-6,637.125,0.125,50,136.0
5925,F6,637.25,0.125,56,136.0
5926,A6,637.375,0.125,50,136.0
5927,F#6,637.5,0.125,56,136.0
5928,B-6,637.625,0.125,49,136.0
5929,E-6,637.75,0.125,56,136.0
5930,F#4,637.75,0.125,58,136.0
5931,C7,637.875,0.125,49,136.0
5932,C#6,638.0,0.125,59,136.0
5933,C#4,638.0,0.5,63,136.0
5934,F4,638.0,0.125,67,136.0
5935,C#7,638.125,0.125,53,136.0
5936,F6,638.25,0.125,58,136.0
5937,G#4,638.25,0.125,60,136.0
5938,G#6,638.375,0.125,48,136.0
5939,E6,638.5,0.125,55,136.0
5940,C#4,638.5,0.25,60,136.0
5941,G6,638.625,0.125,51,136.0
5942,F6,638.75,0.125,57,136.0
5943,G#6,638.875,0.125,51,136.0
5944,E-6,639.0,0.125,60,136.0
5945,C3,639.0,0.125,50,136.0
5946,F#6,639.125,0.125,55,136.0
5947,C#3,639.125,0.125,51,136.0
5948,C#6,639.25,0.125,60,136.0
5949,E-3,639.25,0.125,52,136.0
5950,F6,639.375,0.125,56,136.0
5951,F3,639.375,0.125,53,136.0
5952,C6,639.5,0.125,61,136.0
5953,F#3,639.5,0.125,54,136.0
5954,E-6,639.625,0.125,56,136.0
5955,G#3,639.625,0.125,55,136.0
5956,G#5,639.75,0.125,61,136.0
5957,B-3,639.75,0.125,57,136.0
5958,G#6,639.875,0.125,58,136.0
5959,C4,639.875,0.125,58,136.0
5960,C#6,640.0,0.125,62,136.0
5961,C#4,640.0,0.125,59,136.0
5962,F6,640.125,0.125,58,136.0
5963,E-4,640.125,0.125,60,136.0
5964,G#5,640.25,0.125,62,136.0
5965,F4,640.25,0.125,61,136.0
5966,E-6,640.375,0.125,59,136.0
5967,F#4,640.375,0.125,62,136.0
5968,F5,640.5,0.125,59,136.0
5969,G#4,640.5,0.25,63,136.0
5970,C#6,640.625,0.125,62,136.0
5971,F6,640.75,0.125,64,136.0
5972,G#6,640.875,0.125,67,136.0
5973,E-6,641.0,0.125,64,136.0
5974,C4,641.0,0.125,56,136.0
5975,F#6,641.125,0.125,58,136.0
5976,C#4,641.125,0.125,57,136.0
5977,C#6,641.25,0.125,64,136.0
5978,E-4,641.25,0.125,59,136.0
5979,F6,641.375,0.125,60,136.0
5980,F4,641.375,0.125,60,136.0
5981,C6,641.5,0.125,61,136.0
5982,F#4,641.5,0.125,61,136.0
5983,E-6,641.625,0.125,64,136.0
5984,G#4,641.625,0.125,63,136.0
5985,G#5,641.75,0.125,67,136.0
5986,B-4,641.75,0.125,64,136.0
5987,G#6,641.875,0.125,67,136.0
5988,C5,641.875,0.125,65,136.0
5989,C#6,642.0,0.125,66,136.0
5990,C#5,642.0,0.125,67,136.0
5991,F6,642.125,0.125,61,136.0
5992,E-5,642.125,0.125,68,136.0
5993,C6,642.25,0.125,66,136.0
5994,F5,642.25,0.125,69,136.0
5995,E-6,642.375,0.125,63,136.0
5996,F#5,642.375,0.125,71,136.0
5997,C#6,642.5,0.125,67,136.0
5998,G#5,642.5,0.25,72,136.0
5999,F6,642.625,0.125,62,136.0
6000,G#5,642.75,0.125,67,136.0
6001,G#6,642.875,0.125,63,136.0
6002,G#6,643.0,0.125,68,136.0
6003,F3,643.0,0.125,61,136.0
6004,B6,643.125,0.125,64,136.0
6005,F#3,643.125,0.125,62,136.0
6006,F#6,643.25,0.125,68,136.0
6007,G#3,643.25,0.125,64,136.0
6008,B-6,643.375,0.125,64,136.0
6009,B-3,643.375,0.125,65,136.0
6010,F6,643.5,0.125,69,136.0
6011,B3,643.5,0.125,66,136.0
6012,G#6,643.625,0.125,65,136.0
6013,C#4,643.625,0.125,67,136.0
6014,C#6,643.75,0.125,69,136.0
6015,E-4,643.75,0.125,69,136.0
6016,C#7,643.875,0.125,73,136.0
6017,F4,643.875,0.125,70,136.0
6018,F#6,644.0,0.125,70,136.0
6019,F#4,644.0,0.125,72,136.0
6020,B-6,644.125,0.125,67,136.0
6021,G#4,644.125,0.125,73,136.0
6022,C#6,644.25,0.125,71,136.0
6023,B-4,644.25,0.125,74,136.0
6024,G#6,644.375,0.125,67,136.0
6025,B4,644.375,0.125,76,136.0
6026,B-5,644.5,0.125,67,136.0
6027,C#5,644.5,0.25,77,136.0
6028,F#6,644.625,0.125,70,136.0
6029,B-6,644.75,0.125,72,136.0
6030,C#7,644.875,0.125,75,136.0
6031,G#6,645.0,0.125,72,136.0
6032,F4,645.0,0.125,67,136.0
6033,B6,645.125,0.125,67,136.0
6034,F#4,645.125,0.125,69,136.0
6035,F#6,645.25,0.125,73,136.0
6036,G#4,645.25,0.125,70,136.0
6037,B-6,645.375,0.125,67,136.0
6038,B-4,645.375,0.125,72,136.0
6039,F6,645.5,0.125,73,136.0
6040,B4,645.5,0.125,73,136.0
6041,G#6,645.625,0.125,70,136.0
6042,C#5,645.625,0.125,75,136.0
6043,C#6,645.75,0.125,74,136.0
6044,E-5,645.75,0.125,77,136.0
6045,C#7,645.875,0.125,70,136.0
6046,F5,645.875,0.125,78,136.0
6047,F#6,646.0,0.125,74,136.0
6048,F#5,646.0,0.125,80,136.0
6049,G#6,646.125,0.125,70,136.0
6050,G#5,646.125,0.125,81,136.0
6051,F6,646.25,0.125,75,136.0
6052,B-5,646.25,0.125,83,136.0
6053,G#6,646.375,0.125,70,136.0
6054,C6,646.375,0.125,85,136.0
6055,F#6,646.5,0.125,75,136.0
6056,C#6,646.5,0.25,86,136.0
6057,B-6,646.625,0.125,72,136.0
6058,C#6,646.75,0.125,76,136.0
6059,C#7,646.875,0.125,72,136.0
6060,C3,647.0,0.5,70,136.0
6061,C2,647.0,0.5,70,136.0
6062,G#2,647.0,0.5,70,136.0
6063,F#2,647.0,0.5,70,136.0
6064,C#3,647.125,0.125,67,136.0
6065,E-3,647.25,0.125,68,136.0
6066,F3,647.375,0.125,70,136.0
6067,F#3,647.5,0.125,71,136.0
6068,E-3,647.5,0.5,62,136.0
6069,E-2,647.5,0.5,62,136.0
6070,G#2,647.5,0.5,62,136.0
6071,F#2,647.5,0.5,62,136.0
6072,G#3,647.625,0.125,72,136.0
6073,B-3,647.75,0.125,74,136.0
6074,C4,647.875,0.125,75,136.0
6075,C#4,648.0,0.125,75,136.0
6076,E-3,648.0,0.5,68,136.0
6077,E-2,648.0,0.5,68,136.0
6078,F2,648.0,0.5,68,136.0
6079,G#2,648.0,0.5,68,136.0
6080,F4,648.125,0.125,76,136.0
6081,G#4,648.25,0.125,78,136.0
6082,C#5,648.375,0.125,79,136.0
6083,F5,648.5,0.125,80,136.0
6084,C#3,648.5,0.5,62,136.0
6085,C#2,648.5,0.5,62,136.0
6086,F2,648.5,0.5,62,136.0
6087,G#2,648.5,0.5,62,136.0
6088,G#5,648.625,0.125,82,136.0
6089,C#6,648.75,0.125,83,136.0
6090,F6,648.875,0.125,85,136.0
6091,F3,649.0,0.5,70,136.0
6092,F2,649.0,0.5,70,136.0
6093,B2,649.0,0.5,70,136.0
6094,C#3,649.0,0.5,70,136.0
6095,F#3,649.125,0.125,75,136.0
6096,G#3,649.25,0.125,76,136.0
6097,B-3,649.375,0.125,78,136.0
6098,B3,649.5,0.125,79,136.0
6099,G#3,649.5,0.5,62,136.0
6100,G#2,649.5,0.5,62,136.0
6101,B2,649.5,0.5,62,136.0
6102,C#3,649.5,0.5,62,136.0
6103,C#4,649.625,0.125,80,136.0
6104,E-4,649.75,0.125,81,136.0
6105,F4,649.875,0.125,82,136.0
6106,F#4,650.0,0.125,83,136.0
6107,G#3,650.0,0.5,70,136.0
6108,G#2,650.0,0.5,70,136.0
6109,B-2,650.0,0.5,70,136.0
6110,C#3,650.0,0.5,70,136.0
6111,B-4,650.125,0.125,84,136.0
6112,C#5,650.25,0.125,86,136.0
6113,F#5,650.375,0.125,88,136.0
6114,B-5,650.5,0.125,90,136.0
6115,F#3,650.5,0.5,64,136.0
6116,F#2,650.5,0.5,64,136.0
6117,B-2,650.5,0.5,64,136.0
6118,C#3,650.5,0.5,64,136.0
6119,C#6,650.625,0.125,92,136.0
6120,F#6,650.75,0.125,94,136.0
6121,G#6,650.875,0.125,95,136.0
6122,B-5,651.0,0.125,97,136.0
6123,B-6,651.0,0.125,97,136.0
6124,F#1,651.0,0.5,84,136.0
6125,F#2,651.0,0.5,84,136.0
6126,F#6,651.25,0.125,91,136.0
6127,G#6,651.375,0.125,94,136.0
6128,B-6,651.5,0.125,97,136.0
6129,B-5,651.5,0.125,97,136.0
6130,B-4,651.5,0.125,75,136.0
6131,B-3,651.5,0.125,75,136.0
6132,C#4,651.5,0.125,75,136.0
6133,F#4,651.5,0.125,75,136.0
6134,F#6,651.75,0.125,88,136.0
6135,B-5,651.75,0.125,88,136.0
6136,B-4,651.75,0.125,72,136.0
6137,B-3,651.75,0.125,72,136.0
6138,C#4,651.75,0.125,72,136.0
6139,F#4,651.75,0.125,72,136.0
6140,B-6,652.0,0.125,94,136.0
6141,B-5,652.0,0.125,94,136.0
6142,B-4,652.0,0.25,77,136.0
6143,B-3,652.0,0.25,77,136.0
6144,C#4,652.0,0.25,77,136.0
6145,F#4,652.0,0.25,77,136.0
6146,G#6,652.125,0.125,89,136.0
6147,F#6,652.25,0.125,89,136.0
6148,F#4,652.5,0.125,81,136.0
6149,C#4,652.5,0.125,81,136.0
6150,F#3,652.5,0.125,73,136.0
6151,F#2,652.5,0.125,73,136.0
6152,C#3,652.5,0.125,73,136.0
6153,F4,652.75,0.125,75,136.0
6154,C#4,652.75,0.125,75,136.0
6155,F3,652.75,0.125,65,136.0
6156,F2,652.75,0.125,65,136.0
6157,C#3,652.75,0.125,65,136.0
6158,F4,653.0,0.75,82,136.0
6159,C#4,653.0,0.75,82,136.0
6160,F3,653.0,0.75,71,136.0
6161,F2,653.0,0.75,71,136.0
6162,C#3,653.0,0.75,71,136.0
6163,E-6,653.75,0.125,90,136.0
6164,F6,653.875,0.125,91,136.0
6165,F#5,654.0,0.125,93,136.0
6166,F#6,654.0,0.125,93,136.0
6167,E-2,654.0,0.5,81,136.0
6168,E-3,654.0,0.5,81,136.0
6169,E-6,654.25,0.125,87,136.0
6170,F6,654.375,0.125,90,136.0
6171,F#6,654.5,0.125,93,136.0
6172,F#5,654.5,0.125,93,136.0
6173,F#4,654.5,0.125,72,136.0
6174,F#3,654.5,0.125,72,136.0
6175,B-3,654.5,0.125,72,136.0
6176,E-4,654.5,0.125,72,136.0
6177,E-6,654.75,0.125,84,136.0
6178,F#5,654.75,0.125,84,136.0
6179,F#4,654.75,0.125,68,136.0
6180,F#3,654.75,0.125,68,136.0
6181,B-3,654.75,0.125,68,136.0
6182,E-4,654.75,0.125,68,136.0
6183,F#6,655.0,0.125,90,136.0
6184,F#5,655.0,0.125,90,136.0
6185,F#4,655.0,0.25,74,136.0
6186,F#3,655.0,0.25,74,136.0
6187,B-3,655.0,0.25,74,136.0
6188,E-4,655.0,0.25,74,136.0
6189,F6,655.125,0.125,83,136.0
6190,E-6,655.25,0.125,83,136.0
6191,D6,655.375,0.125,83,136.0
6192,E-6,655.5,0.125,90,136.0
6193,F#4,655.75,0.125,60,136.0
6194,B-4,655.75,0.125,60,136.0
6195,B-3,655.75,0.125,60,136.0
6196,F#3,655.75,0.25,52,136.0
6197,F#2,655.75,0.25,52,136.0
6198,B4,656.0,0.125,63,136.0
6199,F#4,656.0,0.125,63,136.0
6200,B3,656.0,0.125,63,136.0
6201,F#3,656.0,0.125,52,136.0
6202,B2,656.0,0.125,52,136.0
6203,C5,656.25,0.125,64,136.0
6204,G#4,656.25,0.125,64,136.0
6205,C4,656.25,0.125,64,136.0
6206,G#3,656.25,0.125,54,136.0
6207,G#2,656.25,0.125,54,136.0
6208,G#4,656.5,0.25,67,136.0
6209,C#5,656.5,0.25,67,136.0
6210,C#4,656.5,0.25,67,136.0
6211,G#3,656.5,0.25,58,136.0
6212,C#3,656.5,0.25,58,136.0
6213,C2,657.0,0.125,51,136.0
6214,C5,657.0,0.5,74,136.0
6215,C4,657.0,0.5,74,136.0
6216,C#2,657.125,0.125,53,136.0
6217,E-2,657.25,0.125,54,136.0
6218,G#4,657.25,0.25,62,136.0
6219,F#4,657.25,0.25,62,136.0
6220,F2,657.375,0.125,55,136.0
6221,F#2,657.5,0.125,57,136.0
6222,E-5,657.5,0.5,70,136.0
6223,E-4,657.5,0.5,70,136.0
6224,G#2,657.625,0.125,58,136.0
6225,B-2,657.75,0.125,59,136.0
6226,G#4,657.75,0.25,62,136.0
6227,F#4,657.75,0.25,62,136.0
6228,B2,657.875,0.125,60,136.0
6229,C#3,658.0,0.125,62,136.0
6230,E-5,658.0,0.5,76,136.0
6231,E-4,658.0,0.5,76,136.0
6232,E-3,658.125,0.125,63,136.0
6233,F3,658.25,0.125,65,136.0
6234,G#4,658.25,0.25,64,136.0
6235,F4,658.25,0.25,64,136.0
6236,F#3,658.375,0.125,66,136.0
6237,G#3,658.5,0.25,67,136.0
6238,C#5,658.5,0.5,71,136.0
6239,C#4,658.5,0.5,71,136.0
6240,G#4,658.75,0.25,64,136.0
6241,F4,658.75,0.25,64,136.0
6242,F2,659.0,0.125,58,136.0
6243,F5,659.0,0.5,76,136.0
6244,F4,659.0,0.5,76,136.0
6245,F#2,659.125,0.125,60,136.0
6246,G#2,659.25,0.125,61,136.0
6247,B4,659.25,0.25,63,136.0
6248,C#5,659.25,0.25,63,136.0
6249,B-2,659.375,0.125,62,136.0
6250,B2,659.5,0.125,63,136.0
6251,G#5,659.5,0.5,70,136.0
6252,G#4,659.5,0.5,70,136.0
6253,C#3,659.625,0.125,65,136.0
6254,E-3,659.75,0.125,66,136.0
6255,B4,659.75,0.25,65,136.0
6256,C#5,659.75,0.25,65,136.0
6257,F3,659.875,0.125,67,136.0
6258,F#3,660.0,0.125,68,136.0
6259,G#5,660.0,0.5,78,136.0
6260,G#4,660.0,0.5,78,136.0
6261,G#3,660.125,0.125,70,136.0
6262,B-3,660.25,0.125,71,136.0
6263,B-4,660.25,0.25,64,136.0
6264,C#5,660.25,0.25,64,136.0
6265,B3,660.375,0.125,72,136.0
6266,C#4,660.5,0.25,73,136.0
6267,F#5,660.5,0.5,74,136.0
6268,F#4,660.5,0.5,74,136.0
6269,B-4,660.75,0.25,62,136.0
6270,C#5,660.75,0.25,62,136.0
6271,B-4,661.0,0.125,97,136.0
6272,B-5,661.0,0.125,97,136.0
6273,F#1,661.0,0.5,84,136.0
6274,F#2,661.0,0.5,84,136.0
6275,F#5,661.25,0.125,91,136.0
6276,G#5,661.375,0.125,94,136.0
6277,B-5,661.5,0.125,97,136.0
6278,B-4,661.5,0.125,97,136.0
6279,C#4,661.5,0.125,75,136.0
6280,C#3,661.5,0.125,75,136.0
6281,F#3,661.5,0.125,75,136.0
6282,B-3,661.5,0.125,75,136.0
6283,F#5,661.75,0.125,88,136.0
6284,B-4,661.75,0.125,88,136.0
6285,C#4,661.75,0.125,72,136.0
6286,C#3,661.75,0.125,72,136.0
6287,F#3,661.75,0.125,72,136.0
6288,B-3,661.75,0.125,72,136.0
6289,B-5,662.0,0.125,94,136.0
6290,B-4,662.0,0.125,94,136.0
6291,C#4,662.0,0.25,77,136.0
6292,C#3,662.0,0.25,77,136.0
6293,F#3,662.0,0.25,77,136.0
6294,B-3,662.0,0.25,77,136.0
6295,G#5,662.125,0.125,89,136.0
6296,F#5,662.25,0.125,89,136.0
6297,B-3,662.5,0.125,79,136.0
6298,F#4,662.5,0.125,79,136.0
6299,C#4,662.5,0.125,79,136.0
6300,F#3,662.5,0.125,73,136.0
6301,B-2,662.5,0.125,73,136.0
6302,C#3,662.5,0.125,73,136.0
6303,A3,662.75,0.125,73,136.0
6304,F4,662.75,0.125,73,136.0
6305,C4,662.75,0.125,73,136.0
6306,F3,662.75,0.125,65,136.0
6307,A2,662.75,0.125,65,136.0
6308,C3,662.75,0.125,65,136.0
6309,A3,663.0,0.75,80,136.0
6310,F4,663.0,0.75,80,136.0
6311,C4,663.0,0.75,80,136.0
6312,F3,663.0,0.75,71,136.0
6313,A2,663.0,0.75,71,136.0
6314,C3,663.0,0.75,71,136.0
6315,E-5,663.75,0.125,90,136.0
6316,F5,663.875,0.125,91,136.0
6317,F#4,664.0,0.125,93,136.0
6318,F#5,664.0,0.125,93,136.0
6319,E-1,664.0,0.5,85,136.0
6320,E-2,664.0,0.5,85,136.0
6321,E-5,664.25,0.125,87,136.0
6322,F5,664.375,0.125,90,136.0
6323,F#5,664.5,0.125,93,136.0
6324,F#4,664.5,0.125,93,136.0
6325,B-3,664.5,0.125,72,136.0
6326,B-2,664.5,0.125,72,136.0
6327,E-3,664.5,0.125,72,136.0
6328,F#3,664.5,0.125,72,136.0
6329,E-5,664.75,0.125,84,136.0
6330,F#4,664.75,0.125,84,136.0
6331,B-3,664.75,0.125,68,136.0
6332,B-2,664.75,0.125,68,136.0
6333,E-3,664.75,0.125,68,136.0
6334,F#3,664.75,0.125,68,136.0
6335,F#5,665.0,0.125,90,136.0
6336,F#4,665.0,0.125,90,136.0
6337,B-3,665.0,0.25,74,136.0
6338,B-2,665.0,0.25,74,136.0
6339,E-3,665.0,0.25,74,136.0
6340,F#3,665.0,0.25,74,136.0
6341,F5,665.125,0.125,83,136.0
6342,E-5,665.25,0.125,83,136.0
6343,D5,665.375,0.125,83,136.0
6344,E-5,665.5,0.125,90,136.0
6345,F#4,666.25,0.125,49,136.0
6346,F#3,666.25,0.125,49,136.0
6347,B-3,666.25,0.125,49,136.0
6348,F#2,666.25,0.125,44,136.0
6349,F#1,666.25,0.125,44,136.0
6350,F#4,666.5,0.125,52,136.0
6351,F#3,666.5,0.125,52,136.0
6352,B3,666.5,0.125,52,136.0
6353,B2,666.5,0.125,47,136.0
6354,B1,666.5,0.125,47,136.0
6355,G#4,666.75,0.125,54,136.0
6356,G#3,666.75,0.125,54,136.0
6357,C4,666.75,0.125,54,136.0
6358,G#2,666.75,0.125,50,136.0
6359,G#1,666.75,0.125,50,136.0
6360,G#4,667.0,0.125,58,136.0
6361,G#3,667.0,0.125,58,136.0
6362,C#4,667.0,0.125,58,136.0
6363,C#3,667.0,0.125,52,136.0
6364,C#2,667.0,0.125,52,136.0
6365,F#4,667.25,0.125,56,136.0
6366,B-4,667.25,0.125,56,136.0
6367,B-3,667.25,0.125,56,136.0
6368,F#2,667.25,0.125,48,136.0
6369,F#1,667.25,0.125,48,136.0
6370,B4,667.5,0.125,56,136.0
6371,B3,667.5,0.125,56,136.0
6372,F#4,667.5,0.125,56,136.0
6373,B2,667.5,0.125,50,136.0
6374,B1,667.5,0.125,50,136.0
6375,C5,667.75,0.125,60,136.0
6376,C4,667.75,0.125,60,136.0
6377,G#4,667.75,0.125,60,136.0
6378,G#2,667.75,0.125,54,136.0
6379,G#1,667.75,0.125,54,136.0
6380,C#5,668.0,0.125,63,136.0
6381,C#4,668.0,0.125,63,136.0
6382,G#4,668.0,0.125,63,136.0
6383,C#3,668.0,0.125,56,136.0
6384,C#2,668.0,0.125,56,136.0
6385,F#5,668.25,0.125,56,136.0
6386,F#4,668.25,0.125,56,136.0
6387,B-4,668.25,0.125,56,136.0
6388,F#2,668.25,0.125,48,136.0
6389,F#1,668.25,0.125,48,136.0
6390,F#5,668.5,0.125,59,136.0
6391,F#4,668.5,0.125,59,136.0
6392,B4,668.5,0.125,59,136.0
6393,B2,668.5,0.125,52,136.0
6394,B1,668.5,0.125,52,136.0
6395,G#5,668.75,0.125,62,136.0
6396,G#4,668.75,0.125,62,136.0
6397,C5,668.75,0.125,62,136.0
6398,G#2,668.75,0.125,54,136.0
6399,G#1,668.75,0.125,54,136.0
6400,G#5,669.0,0.125,67,136.0
6401,G#4,669.0,0.125,67,136.0
6402,C#5,669.0,0.125,67,136.0
6403,C#3,669.0,0.125,56,136.0
6404,C#2,669.0,0.125,56,136.0
6405,F#5,669.25,0.125,64,136.0
6406,B-5,669.25,0.125,64,136.0
6407,B-4,669.25,0.125,64,136.0
6408,F#2,669.25,0.125,52,136.0
6409,F#1,669.25,0.125,52,136.0
6410,B5,669.5,0.125,64,136.0
6411,B4,669.5,0.125,64,136.0
6412,F#5,669.5,0.125,64,136.0
6413,B2,669.5,0.125,55,136.0
6414,B1,669.5,0.125,55,136.0
6415,C6,669.75,0.125,68,136.0
6416,C5,669.75,0.125,68,136.0
6417,G#5,669.75,0.125,68,136.0
6418,G#2,669.75,0.125,58,136.0
6419,G#1,669.75,0.125,58,136.0
6420,C#6,670.0,0.125,71,136.0
6421,C#5,670.0,0.125,71,136.0
6422,G#5,670.0,0.125,71,136.0
6423,C#3,670.0,0.125,69,136.0
6424,C#2,670.0,0.125,69,136.0
6425,F#6,670.25,0.125,66,136.0
6426,F#5,670.25,0.125,66,136.0
6427,B-5,670.25,0.125,66,136.0
6428,F#2,670.25,0.125,60,136.0
6429,F#1,670.25,0.125,60,136.0
6430,F#6,670.5,0.125,67,136.0
6431,F#5,670.5,0.125,67,136.0
6432,B5,670.5,0.125,67,136.0
6433,B2,670.5,0.125,60,136.0
6434,B1,670.5,0.125,60,136.0
6435,G#6,670.75,0.125,69,136.0
6436,G#5,670.75,0.125,69,136.0
6437,C6,670.75,0.125,69,136.0
6438,G#2,670.75,0.125,60,136.0
6439,G#1,670.75,0.125,60,136.0
6440,G#6,671.0,0.125,70,136.0
6441,G#5,671.0,0.125,70,136.0
6442,C#6,671.0,0.125,70,136.0
6443,C#3,671.0,0.125,64,136.0
6444,C#2,671.0,0.125,64,136.0
6445,G#6,671.25,0.125,72,136.0
6446,G#5,671.25,0.125,72,136.0
6447,C6,671.25,0.125,72,136.0
6448,G#2,671.25,0.125,58,136.0
6449,G#1,671.25,0.125,58,136.0
6450,G#6,671.5,0.125,73,136.0
6451,G#5,671.5,0.125,73,136.0
6452,C#6,671.5,0.125,73,136.0
6453,C#3,671.5,0.125,58,136.0
6454,C#2,671.5,0.125,58,136.0
6455,G#6,671.75,0.125,75,136.0
6456,G#5,671.75,0.125,75,136.0
6457,C6,671.75,0.125,75,136.0
6458,G#2,671.75,0.125,58,136.0
6459,G#1,671.75,0.125,58,136.0
6460,G#6,672.0,0.125,79,136.0
6461,G#5,672.0,0.125,79,136.0
6462,C#6,672.0,0.125,79,136.0
6463,C#3,672.0,0.125,66,136.0
6464,C#2,672.0,0.125,66,136.0
6465,G#6,672.25,0.125,72,136.0
6466,G#5,672.25,0.125,72,136.0
6467,C6,672.25,0.125,72,136.0
6468,G#2,672.25,0.125,64,136.0
6469,G#1,672.25,0.125,64,136.0
6470,G#6,672.5,0.125,74,136.0
6471,G#5,672.5,0.125,74,136.0
6472,C#6,672.5,0.125,74,136.0
6473,C#3,672.5,0.125,65,136.0
6474,C#2,672.5,0.125,65,136.0
6475,G#6,672.75,0.125,76,136.0
6476,G#5,672.75,0.125,76,136.0
6477,C6,672.75,0.125,76,136.0
6478,G#2,672.75,0.125,66,136.0
6479,G#1,672.75,0.125,66,136.0
6480,G#6,673.0,0.125,85,136.0
6481,G#5,673.0,0.125,85,136.0
6482,C#6,673.0,0.125,85,136.0
6483,C#3,673.0,0.125,72,136.0
6484,C#2,673.0,0.125,72,136.0
6485,G#6,673.25,0.125,81,136.0
6486,G#5,673.25,0.125,81,136.0
6487,C6,673.25,0.125,81,136.0
6488,G#2,673.25,0.125,70,136.0
6489,G#1,673.25,0.125,70,136.0
6490,G#6,673.5,0.125,82,136.0
6491,G#5,673.5,0.125,82,136.0
6492,C#6,673.5,0.125,82,136.0
6493,C#3,673.5,0.125,71,136.0
6494,C#2,673.5,0.125,71,136.0
6495,G#6,673.75,0.125,85,136.0
6496,G#5,673.75,0.125,85,136.0
6497,C6,673.75,0.125,85,136.0
6498,G#2,673.75,0.125,72,136.0
6499,G#1,673.75,0.125,72,136.0
6500,G#6,674.0,0.125,95,136.0
6501,G#5,674.0,0.125,95,136.0
6502,C#6,674.0,0.125,95,136.0
6503,C#3,674.0,0.125,78,136.0
6504,C#2,674.0,0.125,78,136.0
6505,G#5,674.25,0.125,64,136.0
6506,G#4,674.25,0.125,64,136.0
6507,C#5,674.25,0.125,64,136.0
6508,G4,674.375,0.125,58,136.0
6509,F4,674.375,0.125,58,136.0
6510,B-5,674.5,0.125,70,136.0
6511,B-4,674.5,0.125,70,136.0
6512,C#5,674.5,0.125,70,136.0
6513,F4,674.625,0.125,58,136.0
6514,C#4,674.625,0.125,58,136.0
6515,G#5,674.75,0.125,63,136.0
6516,G#4,674.75,0.125,63,136.0
6517,C#5,674.75,0.125,63,136.0
6518,G4,674.875,0.125,59,136.0
6519,F4,674.875,0.125,59,136.0
6520,B-5,675.0,0.125,70,136.0
6521,B-4,675.0,0.125,70,136.0
6522,C#5,675.0,0.125,70,136.0
6523,F4,675.125,0.125,60,136.0
6524,C#4,675.125,0.125,60,136.0
6525,G#5,675.25,0.125,65,136.0
6526,G#4,675.25,0.125,65,136.0
6527,C#5,675.25,0.125,65,136.0
6528,G4,675.375,0.125,60,136.0
6529,F4,675.375,0.125,60,136.0
6530,B-5,675.5,0.125,71,136.0
6531,B-4,675.5,0.125,71,136.0
6532,C#5,675.5,0.125,71,136.0
6533,F4,675.625,0.125,62,136.0
6534,C#4,675.625,0.125,62,136.0
6535,G#5,675.75,0.125,65,136.0
6536,G#4,675.75,0.125,65,136.0
6537,C#5,675.75,0.125,65,136.0
6538,G4,675.875,0.125,62,136.0
6539,F4,675.875,0.125,62,136.0
6540,B-5,676.0,0.125,72,136.0
6541,B-4,676.0,0.125,72,136.0
6542,C#5,676.0,0.125,72,136.0
6543,F4,676.125,0.125,62,136.0
6544,C#4,676.125,0.125,62,136.0
6545,G#5,676.25,0.125,66,136.0
6546,G#4,676.25,0.125,66,136.0
6547,C#5,676.25,0.125,66,136.0
6548,G4,676.375,0.125,63,136.0
6549,F4,676.375,0.125,63,136.0
6550,B-5,676.5,0.125,71,136.0
6551,B-4,676.5,0.125,71,136.0
6552,C#5,676.5,0.125,71,136.0
6553,F4,676.625,0.125,63,136.0
6554,C#4,676.625,0.125,63,136.0
6555,G#4,676.75,0.125,79,136.0
6556,C#5,676.75,0.125,79,136.0
6557,G#5,676.75,0.125,79,136.0
6558,F4,676.875,0.125,70,136.0
6559,G4,676.875,0.125,70,136.0
6560,B-5,677.0,0.125,76,136.0
6561,B-4,677.0,0.125,76,136.0
6562,C#5,677.0,0.125,76,136.0
6563,F4,677.125,0.125,64,136.0
6564,C#4,677.125,0.125,64,136.0
6565,G#5,677.25,0.125,71,136.0
6566,G#4,677.25,0.125,71,136.0
6567,C#5,677.25,0.125,71,136.0
6568,G4,677.375,0.125,66,136.0
6569,F4,677.375,0.125,66,136.0
6570,B-5,677.5,0.125,75,136.0
6571,B-4,677.5,0.125,75,136.0
6572,C#5,677.5,0.125,75,136.0
6573,F4,677.625,0.125,62,136.0
6574,C#4,677.625,0.125,62,136.0
6575,G#5,677.75,0.125,70,136.0
6576,G#4,677.75,0.125,70,136.0
6577,C#5,677.75,0.125,70,136.0
6578,B-2,678.0,167/1000,63,136.0
6579,F6,678.0,0.125,64,136.0
6580,C#6,678.0,0.125,64,136.0
6581,E-6,678.125,0.125,63,136.0
6582,E-3,678.167,167/1000,55,136.0
6583,C#6,678.25,0.125,62,136.0
6584,G3,678.333,167/1000,55,136.0
6585,G5,678.375,0.125,60,136.0
6586,C#4,678.5,0.25,62,136.0
6587,C#5,678.5,0.125,59,136.0
6588,F5,678.5,0.125,59,136.0
6589,E-5,678.625,0.125,58,136.0
6590,C#5,678.75,0.125,56,136.0
6591,G4,678.875,0.125,55,136.0
6592,B-2,679.0,167/1000,63,136.0
6593,F6,679.0,0.125,64,136.0
6594,C#6,679.0,0.125,64,136.0
6595,E-6,679.125,0.125,63,136.0
6596,E-3,679.167,167/1000,55,136.0
6597,C#6,679.25,0.125,62,136.0
6598,G3,679.333,167/1000,55,136.0
6599,G5,679.375,0.125,60,136.0
6600,C#4,679.5,0.25,62,136.0
6601,C#5,679.5,0.125,59,136.0
6602,F5,679.5,0.125,59,136.0
6603,E-5,679.625,0.125,58,136.0
6604,C#5,679.75,0.125,56,136.0
6605,G4,679.875,0.125,55,136.0
6606,G#2,680.0,167/1000,63,136.0
6607,B-6,680.0,0.125,64,136.0
6608,F#6,680.0,0.125,64,136.0
6609,G#6,680.125,0.125,63,136.0
6610,E-3,680.125,0.125,59,136.0
6611,F#6,680.25,0.125,62,136.0
6612,F#3,680.25,0.125,59,136.0
6613,C6,680.375,0.125,60,136.0
6614,C4,680.375,0.125,59,136.0
6615,F#4,680.5,0.25,62,136.0
6616,F#5,680.5,0.125,59,136.0
6617,B-5,680.5,0.125,59,136.0
6618,G#5,680.625,0.125,58,136.0
6619,F#5,680.75,0.125,56,136.0
6620,C5,680.875,0.125,55,136.0
6621,G#2,681.0,0.125,62,136.0
6622,B-6,681.0,0.125,64,136.0
6623,F#6,681.0,0.125,64,136.0
6624,G#6,681.125,0.125,63,136.0
6625,E-3,681.125,0.125,58,136.0
6626,F#6,681.25,0.125,62,136.0
6627,F#3,681.25,0.125,58,136.0
6628,C6,681.375,0.125,60,136.0
6629,C4,681.375,0.125,58,136.0
6630,F#4,681.5,0.25,62,136.0
6631,F#5,681.5,0.125,59,136.0
6632,B-5,681.5,0.125,59,136.0
6633,G#5,681.625,0.125,58,136.0
6634,F#5,681.75,0.125,56,136.0
6635,C5,681.875,0.125,55,136.0
6636,C#5,682.0,0.125,64,136.0
6637,C#3,682.0,0.125,62,136.0
6638,F4,682.0,0.125,62,136.0
6639,G#6,682.25,0.125,64,136.0
6640,G#5,682.25,0.125,64,136.0
6641,C#6,682.25,0.125,64,136.0
6642,G5,682.375,0.125,58,136.0
6643,F5,682.375,0.125,58,136.0
6644,B-6,682.5,0.125,70,136.0
6645,B-5,682.5,0.125,70,136.0
6646,C#6,682.5,0.125,70,136.0
6647,F5,682.625,0.125,58,136.0
6648,C#5,682.625,0.125,58,136.0
6649,G#6,682.75,0.125,63,136.0
6650,G#5,682.75,0.125,63,136.0
6651,C#6,682.75,0.125,63,136.0
6652,G5,682.875,0.125,59,136.0
6653,F5,682.875,0.125,59,136.0
6654,B-6,683.0,0.125,70,136.0
6655,B-5,683.0,0.125,70,136.0
6656,C#6,683.0,0.125,70,136.0
6657,F5,683.125,0.125,60,136.0
6658,C#5,683.125,0.125,60,136.0
6659,G#6,683.25,0.125,65,136.0
6660,G#5,683.25,0.125,65,136.0
6661,C#6,683.25,0.125,65,136.0
6662,G5,683.375,0.125,60,136.0
6663,F5,683.375,0.125,60,136.0
6664,B-6,683.5,0.125,71,136.0
6665,B-5,683.5,0.125,71,136.0
6666,C#6,683.5,0.125,71,136.0
6667,F5,683.625,0.125,62,136.0
6668,C#5,683.625,0.125,62,136.0
6669,G#6,683.75,0.125,65,136.0
6670,G#5,683.75,0.125,65,136.0
6671,C#6,683.75,0.125,65,136.0
6672,G5,683.875,0.125,62,136.0
6673,F5,683.875,0.125,62,136.0
6674,B-6,684.0,0.125,72,136.0
6675,B-5,684.0,0.125,72,136.0
6676,C#6,684.0,0.125,72,136.0
6677,F5,684.125,0.125,62,136.0
6678,C#5,684.125,0.125,62,136.0
6679,G#6,684.25,0.125,66,136.0
6680,G#5,684.25,0.125,66,136.0
6681,C#6,684.25,0.125,66,136.0
6682,G5,684.375,0.125,63,136.0
6683,F5,684.375,0.125,63,136.0
6684,B-6,684.5,0.125,71,136.0
6685,B-5,684.5,0.125,71,136.0
6686,C#6,684.5,0.125,71,136.0
6687,F5,684.625,0.125,63,136.0
6688,C#5,684.625,0.125,63,136.0
6689,G#5,684.75,0.125,79,136.0
6690,C#6,684.75,0.125,79,136.0
6691,G#6,684.75,0.125,79,136.0
6692,F5,684.875,0.125,70,136.0
6693,G5,684.875,0.125,70,136.0
6694,B-6,685.0,0.125,76,136.0
6695,B-5,685.0,0.125,76,136.0
6696,C#6,685.0,0.125,76,136.0
6697,F5,685.125,0.125,64,136.0
6698,C#5,685.125,0.125,64,136.0
6699,G#6,685.25,0.125,71,136.0
6700,G#5,685.25,0.125,71,136.0
6701,C#6,685.25,0.125,71,136.0
6702,G5,685.375,0.125,66,136.0
6703,F5,685.375,0.125,66,136.0
6704,B-6,685.5,0.125,75,136.0
6705,B-5,685.5,0.125,75,136.0
6706,C#6,685.5,0.125,75,136.0
6707,F5,685.625,0.125,62,136.0
6708,C#5,685.625,0.125,62,136.0
6709,G#6,685.75,0.125,70,136.0
6710,G#5,685.75,0.125,70,136.0
6711,C#6,685.75,0.125,70,136.0
6712,B-2,686.0,0.125,63,136.0
6713,F7,686.0,0.125,64,136.0
6714,C#7,686.0,0.125,64,136.0
6715,E-7,686.125,0.125,63,136.0
6716,E-3,686.125,0.125,58,136.0
6717,C#7,686.25,0.125,62,136.0
6718,G3,686.25,0.125,58,136.0
6719,G6,686.375,0.125,60,136.0
6720,C#4,686.375,0.125,58,136.0
6721,G4,686.5,0.25,62,136.0
6722,C#6,686.5,0.125,59,136.0
6723,F6,686.5,0.125,59,136.0
6724,E-6,686.625,0.125,58,136.0
6725,C#6,686.75,0.125,56,136.0
6726,G5,686.875,0.125,55,136.0
6727,B-2,687.0,167/1000,63,136.0
6728,F6,687.0,0.125,64,136.0
6729,C#6,687.0,0.125,64,136.0
6730,E-6,687.125,0.125,63,136.0
6731,E-3,687.167,167/1000,55,136.0
6732,C#6,687.25,0.125,62,136.0
6733,G3,687.333,167/1000,55,136.0
6734,G5,687.375,0.125,60,136.0
6735,C#4,687.5,0.25,62,136.0
6736,C#5,687.5,0.125,59,136.0
6737,F5,687.5,0.125,59,136.0
6738,E-5,687.625,0.125,58,136.0
6739,C#5,687.75,0.125,56,136.0
6740,G4,687.875,0.125,55,136.0
6741,G#2,688.0,167/1000,63,136.0
6742,B-6,688.0,0.125,64,136.0
6743,F#6,688.0,0.125,64,136.0
6744,G#6,688.125,0.125,63,136.0
6745,E-3,688.125,0.125,59,136.0
6746,F#6,688.25,0.125,62,136.0
6747,F#3,688.25,0.125,59,136.0
6748,C6,688.375,0.125,60,136.0
6749,C4,688.375,0.125,59,136.0
6750,F#4,688.5,0.25,62,136.0
6751,F#5,688.5,0.125,59,136.0
6752,B-5,688.5,0.125,59,136.0
6753,G#5,688.625,0.125,58,136.0
6754,F#5,688.75,0.125,56,136.0
6755,C5,688.875,0.125,55,136.0
6756,G#2,689.0,167/1000,62,136.0
6757,B-5,689.0,0.125,64,136.0
6758,F#5,689.0,0.125,64,136.0
6759,G#5,689.125,0.125,63,136.0
6760,E-3,689.167,167/1000,57,136.0
6761,F#5,689.25,0.125,62,136.0
6762,F#3,689.333,167/1000,57,136.0
6763,C5,689.375,0.125,60,136.0
6764,C4,689.5,0.25,62,136.0
6765,F#4,689.5,0.125,59,136.0
6766,B-4,689.5,0.125,59,136.0
6767,G#4,689.625,0.125,58,136.0
6768,F#4,689.75,0.125,56,136.0
6769,C4,689.875,0.125,55,136.0
6770,C#4,690.0,0.125,56,136.0
6771,C#3,690.0,0.125,56,136.0
6772,C#5,690.25,0.125,52,136.0
6773,F4,690.25,0.125,52,136.0
6774,G#4,690.25,0.125,52,136.0
6775,C4,690.25,0.125,56,136.0
6776,C3,690.25,0.125,56,136.0
6777,B3,690.5,0.125,56,136.0
6778,B2,690.5,0.125,56,136.0
6779,C#6,690.75,0.125,53,136.0
6780,G#5,690.75,0.125,53,136.0
6781,F5,690.75,0.125,53,136.0
6782,C#5,690.75,0.125,53,136.0
6783,B-3,690.75,0.125,57,136.0
6784,B-2,690.75,0.125,57,136.0
6785,A3,691.0,0.125,58,136.0
6786,A2,691.0,0.125,58,136.0
6787,C#5,691.25,0.125,57,136.0
6788,E5,691.25,0.125,57,136.0
6789,E4,691.25,0.125,57,136.0
6790,A4,691.25,0.125,57,136.0
6791,G#3,691.25,0.125,59,136.0
6792,G#2,691.25,0.125,59,136.0
6793,G3,691.5,0.125,59,136.0
6794,G2,691.5,0.125,59,136.0
6795,E6,691.75,0.125,56,136.0
6796,C#6,691.75,0.125,56,136.0
6797,A5,691.75,0.125,56,136.0
6798,E5,691.75,0.125,56,136.0
6799,F#3,691.75,0.125,60,136.0
6800,F#2,691.75,0.125,60,136.0
6801,F3,692.0,0.25,67,136.0
6802,F2,692.0,0.25,67,136.0
6803,F5,692.25,0.125,58,136.0
6804,F4,692.25,0.125,58,136.0
6805,A4,692.25,0.125,58,136.0
6806,C5,692.25,0.125,58,136.0
6807,E3,692.25,0.25,62,136.0
6808,E2,692.25,0.25,62,136.0
6809,E-3,692.5,0.5,64,136.0
6810,E-2,692.5,0.5,64,136.0
6811,F6,692.75,0.125,60,136.0
6812,C6,692.75,0.125,60,136.0
6813,A5,692.75,0.125,60,136.0
6814,F5,692.75,0.125,60,136.0
6815,D3,693.0,0.25,72,136.0
6816,D2,693.0,0.25,72,136.0
6817,F#5,693.25,0.125,63,136.0
6818,D5,693.25,0.125,63,136.0
6819,F#4,693.25,0.125,63,136.0
6820,C#3,693.25,0.25,68,136.0
6821,C#2,693.25,0.25,68,136.0
6822,C3,693.5,0.5,68,136.0
6823,C2,693.5,0.5,68,136.0
6824,F#6,693.75,0.125,68,136.0
6825,D6,693.75,0.125,68,136.0
6826,F#5,693.75,0.125,68,136.0
6827,C#4,694.0,0.125,66,136.0
6828,C#3,694.0,0.125,66,136.0
6829,G#4,694.25,0.125,61,136.0
6830,F5,694.25,0.125,61,136.0
6831,F4,694.25,0.125,61,136.0
6832,C#5,694.25,0.125,61,136.0
6833,C4,694.25,0.125,66,136.0
6834,C3,694.25,0.125,66,136.0
6835,B3,694.5,0.125,67,136.0
6836,B2,694.5,0.125,67,136.0
6837,F6,694.75,0.125,64,136.0
6838,C#6,694.75,0.125,64,136.0
6839,G#5,694.75,0.125,64,136.0
6840,F5,694.75,0.125,64,136.0
6841,B-3,694.75,0.125,68,136.0
6842,B-2,694.75,0.125,68,136.0
6843,A3,695.0,0.125,69,136.0
6844,A2,695.0,0.125,69,136.0
6845,C#5,695.25,0.125,68,136.0
6846,A5,695.25,0.125,68,136.0
6847,E5,695.25,0.125,68,136.0
6848,A4,695.25,0.125,68,136.0
6849,G#3,695.25,0.125,70,136.0
6850,G#2,695.25,0.125,70,136.0
6851,G3,695.5,0.125,70,136.0
6852,G2,695.5,0.125,70,136.0
6853,F#6,695.75,0.125,67,136.0
6854,C#6,695.75,0.125,67,136.0
6855,A5,695.75,0.125,67,136.0
6856,E6,695.75,0.125,67,136.0
6857,F#3,695.75,0.125,72,136.0
6858,F#2,695.75,0.125,72,136.0
6859,F3,696.0,0.125,80,136.0
6860,F2,696.0,0.125,80,136.0
6861,A5,696.25,0.125,70,136.0
6862,F5,696.25,0.125,70,136.0
6863,A4,696.25,0.125,70,136.0
6864,C5,696.25,0.125,70,136.0
6865,E3,696.25,0.125,74,136.0
6866,E2,696.25,0.125,74,136.0
6867,E-3,696.5,0.5,76,136.0
6868,E-2,696.5,0.5,76,136.0
6869,A6,696.75,0.125,71,136.0
6870,C6,696.75,0.125,71,136.0
6871,A5,696.75,0.125,71,136.0
6872,F6,696.75,0.125,71,136.0
6873,D3,697.0,0.125,86,136.0
6874,D2,697.0,0.125,86,136.0
6875,A4,697.25,0.125,74,136.0
6876,A5,697.25,0.125,74,136.0
6877,D5,697.25,0.125,74,136.0
6878,F#5,697.25,0.125,74,136.0
6879,C#3,697.25,0.125,80,136.0
6880,C#2,697.25,0.125,80,136.0
6881,C3,697.5,0.5,81,136.0
6882,C2,697.5,0.5,81,136.0
6883,A5,697.75,0.125,83,136.0
6884,A6,697.75,0.125,83,136.0
6885,D6,697.75,0.125,83,136.0
6886,F#6,697.75,0.125,83,136.0
6887,C#4,698.0,0.125,66,136.0
6888,C#3,698.0,0.125,66,136.0
6889,F5,698.25,0.125,61,136.0
6890,C#6,698.25,0.125,61,136.0
6891,C#5,698.25,0.125,61,136.0
6892,G#5,698.25,0.125,61,136.0
6893,C4,698.25,0.125,66,136.0
6894,C3,698.25,0.125,66,136.0
6895,B3,698.5,0.125,67,136.0
6896,B2,698.5,0.125,67,136.0
6897,C#7,698.75,0.125,64,136.0
6898,G#6,698.75,0.125,64,136.0
6899,F6,698.75,0.125,64,136.0
6900,C#6,698.75,0.125,64,136.0
6901,B-3,698.75,0.125,68,136.0
6902,B-2,698.75,0.125,68,136.0
6903,A3,699.0,0.125,69,136.0
6904,A2,699.0,0.125,69,136.0
6905,A5,699.25,0.125,68,136.0
6906,E6,699.25,0.125,68,136.0
6907,C#6,699.25,0.125,68,136.0
6908,E5,699.25,0.125,68,136.0
6909,G#3,699.25,0.125,70,136.0
6910,G#2,699.25,0.125,70,136.0
6911,G3,699.5,0.125,70,136.0
6912,G2,699.5,0.125,70,136.0
6913,E7,699.75,0.125,67,136.0
6914,A6,699.75,0.125,67,136.0
6915,E6,699.75,0.125,67,136.0
6916,C#7,699.75,0.125,67,136.0
6917,F#3,699.75,0.125,72,136.0
6918,F#2,699.75,0.125,72,136.0
6919,F3,700.0,0.125,80,136.0
6920,F2,700.0,0.125,80,136.0
6921,F6,700.25,0.125,70,136.0
6922,C6,700.25,0.125,70,136.0
6923,F5,700.25,0.125,70,136.0
6924,A5,700.25,0.125,70,136.0
6925,E3,700.25,0.125,74,136.0
6926,E2,700.25,0.125,74,136.0
6927,E-3,700.5,0.5,76,136.0
6928,E-2,700.5,0.5,76,136.0
6929,F7,700.75,0.125,71,136.0
6930,A6,700.75,0.125,71,136.0
6931,F6,700.75,0.125,71,136.0
6932,C7,700.75,0.125,71,136.0
6933,D3,701.0,0.125,85,136.0
6934,D2,701.0,0.125,85,136.0
6935,F#5,701.25,0.125,75,136.0
6936,F#6,701.25,0.125,75,136.0
6937,D6,701.25,0.125,75,136.0
6938,C#3,701.25,0.125,80,136.0
6939,C#2,701.25,0.125,80,136.0
6940,C3,701.5,0.5,81,136.0
6941,C2,701.5,0.5,81,136.0
6942,F#6,701.75,0.125,73,136.0
6943,F#7,701.75,0.125,73,136.0
6944,D7,701.75,0.125,73,136.0
6945,B2,702.0,0.125,80,136.0
6946,B1,702.0,0.125,80,136.0
6947,F#6,702.25,0.125,78,136.0
6948,F#5,702.25,0.125,78,136.0
6949,B5,702.25,0.125,78,136.0
6950,E-6,702.25,0.125,78,136.0
6951,B-2,702.25,0.125,81,136.0
6952,B-1,702.25,0.125,81,136.0
6953,A2,702.5,0.125,83,136.0
6954,A1,702.5,0.125,83,136.0
6955,F#7,702.75,0.125,82,136.0
6956,E-7,702.75,0.125,82,136.0
6957,B6,702.75,0.125,82,136.0
6958,F#6,702.75,0.125,82,136.0
6959,G#2,702.75,0.125,84,136.0
6960,G#1,702.75,0.125,84,136.0
6961,G2,703.0,0.125,86,136.0
6962,G1,703.0,0.125,86,136.0
6963,G6,703.25,0.125,86,136.0
6964,D6,703.25,0.125,86,136.0
6965,B5,703.25,0.125,86,136.0
6966,G5,703.25,0.125,86,136.0
6967,F#2,703.25,0.125,86,136.0
6968,F#1,703.25,0.125,86,136.0
6969,F2,703.5,0.5,88,136.0
6970,F1,703.5,0.5,88,136.0
6971,G7,703.75,0.125,86,136.0
6972,B6,703.75,0.125,86,136.0
6973,G6,703.75,0.125,86,136.0
6974,D7,703.75,0.125,86,136.0
6975,G#6,704.0,0.25,90,136.0
6976,G#5,704.0,0.25,90,136.0
6977,E6,704.0,0.25,90,136.0
6978,E2,704.0,0.25,94,136.0
6979,E1,704.0,0.25,94,136.0
6980,G#6,704.5,0.25,90,136.0
6981,G#5,704.5,0.25,90,136.0
6982,E6,704.5,0.25,90,136.0
6983,B3,704.5,0.25,88,136.0
6984,B2,704.5,0.25,88,136.0
6985,G#6,705.0,0.5,96,136.0
6986,E6,705.0,0.5,96,136.0
6987,G#5,705.0,0.5,96,136.0
6988,E3,705.0,0.25,90,136.0
6989,E2,705.0,0.25,90,136.0
6990,F#6,705.5,0.125,90,136.0
6991,E-6,705.5,0.125,90,136.0
6992,F#5,705.5,0.125,90,136.0
6993,B4,705.5,0.25,86,136.0
6994,B3,705.5,0.25,86,136.0
6995,E6,705.75,0.125,90,136.0
6996,E5,705.75,0.125,90,136.0
6997,C#6,705.75,0.125,90,136.0
6998,E-6,706.0,0.125,85,136.0
6999,E-5,706.0,0.125,85,136.0
7000,B5,706.0,0.125,85,136.0
7001,E2,706.0,0.25,94,136.0
7002,E1,706.0,0.25,94,136.0
7003,E6,706.25,0.125,91,136.0
7004,E5,706.25,0.125,91,136.0
7005,C#6,706.25,0.125,91,136.0
7006,F#6,706.5,0.125,94,136.0
7007,F#5,706.5,0.125,94,136.0
7008,E-6,706.5,0.125,94,136.0
7009,B3,706.5,0.25,88,136.0
7010,B2,706.5,0.25,88,136.0
7011,G#6,707.0,0.5,96,136.0
7012,E6,707.0,0.5,96,136.0
7013,G#5,707.0,0.5,96,136.0
7014,E3,707.0,0.25,90,136.0
7015,E2,707.0,0.25,90,136.0
7016,F#6,707.5,0.125,90,136.0
7017,F#5,707.5,0.125,90,136.0
7018,E-6,707.5,0.125,90,136.0
7019,B4,707.5,0.25,86,136.0
7020,B3,707.5,0.25,86,136.0
7021,E6,707.75,0.125,90,136.0
7022,E5,707.75,0.125,90,136.0
7023,C#6,707.75,0.125,90,136.0
7024,E-6,708.0,0.125,93,136.0
7025,E-5,708.0,0.125,93,136.0
7026,B5,708.0,0.125,93,136.0
7027,E2,708.0,0.25,94,136.0
7028,E1,708.0,0.25,94,136.0
7029,E6,708.25,0.125,88,136.0
7030,E5,708.25,0.125,88,136.0
7031,C#6,708.25,0.125,88,136.0
7032,F#6,708.5,0.125,90,136.0
7033,F#5,708.5,0.125,90,136.0
7034,E-6,708.5,0.125,90,136.0
7035,B3,708.5,0.25,88,136.0
7036,B2,708.5,0.25,88,136.0
7037,G#6,709.0,0.5,94,136.0
7038,E6,709.0,0.5,94,136.0
7039,G#5,709.0,0.5,94,136.0
7040,E3,709.0,0.25,90,136.0
7041,E2,709.0,0.25,90,136.0
7042,F#6,709.5,0.125,90,136.0
7043,F#5,709.5,0.125,90,136.0
7044,E-6,709.5,0.125,90,136.0
7045,B4,709.5,0.25,86,136.0
7046,B3,709.5,0.25,86,136.0
7047,E6,709.75,0.125,90,136.0
7048,E5,709.75,0.125,90,136.0
7049,C#6,709.75,0.125,90,136.0
7050,E-6,710.0,0.125,89,136.0
7051,E-5,710.0,0.125,89,136.0
7052,B5,710.0,0.125,89,136.0
7053,B2,710.0,0.25,94,136.0
7054,B1,710.0,0.25,94,136.0
7055,E6,710.25,0.125,90,136.0
7056,E5,710.25,0.125,90,136.0
7057,C#6,710.25,0.125,90,136.0
7058,F#6,710.5,0.125,93,136.0
7059,F#5,710.5,0.125,93,136.0
7060,E-6,710.5,0.125,93,136.0
7061,F#4,710.5,0.25,88,136.0
7062,F#3,710.5,0.25,88,136.0
7063,G#6,710.75,0.125,98,136.0
7064,G#5,710.75,0.125,98,136.0
7065,F#6,711.0,0.125,96,136.0
7066,C#6,711.0,0.125,96,136.0
7067,F#5,711.0,0.125,96,136.0
7068,A2,711.0,0.25,90,136.0
7069,A1,711.0,0.25,90,136.0
7070,E6,711.25,0.125,98,136.0
7071,E5,711.25,0.125,98,136.0
7072,E-6,711.5,0.125,96,136.0
7073,E-5,711.5,0.125,96,136.0
7074,F#4,711.5,0.25,86,136.0
7075,F#3,711.5,0.25,86,136.0
7076,C#6,711.75,0.125,94,136.0
7077,C#5,711.75,0.125,94,136.0
7078,F6,712.0,0.875,91,136.0
7079,F5,712.0,0.875,91,136.0
7080,G#5,712.0,0.875,91,136.0
7081,C#6,712.0,0.875,91,136.0
7082,G#2,712.0,0.25,96,136.0
7083,G#1,712.0,0.25,96,136.0
7084,G3,712.25,0.25,81,136.0
7085,G2,712.25,0.25,81,136.0
7086,G#3,712.5,0.25,86,136.0
7087,G#2,712.5,0.25,86,136.0
7088,G4,712.75,0.25,86,136.0
7089,G3,712.75,0.25,86,136.0
7090,E-6,712.875,0.125,93,136.0
7091,E-5,712.875,0.125,93,136.0
7092,C6,713.0,0.75,98,136.0
7093,F#6,713.0,0.75,98,136.0
7094,F#5,713.0,0.75,98,136.0
7095,G#4,713.0,0.25,92,136.0
7096,G#3,713.0,0.25,92,136.0
7097,G3,713.25,0.25,82,136.0
7098,G2,713.25,0.25,82,136.0
7099,G#3,713.5,0.5,86,136.0
7100,G#2,713.5,0.5,86,136.0
7101,C6,713.75,0.25,93,136.0
7102,C5,713.75,0.25,93,136.0
7103,E-6,714.0,0.125,98,136.0
7104,E-5,714.0,0.125,98,136.0
7105,G#2,714.0,0.25,93,136.0
7106,G#1,714.0,0.25,93,136.0
7107,G3,714.25,0.25,81,136.0
7108,G2,714.25,0.25,81,136.0
7109,C#6,714.5,1.0,87,136.0
7110,C#5,714.5,1.0,87,136.0
7111,F5,714.5,1.0,87,136.0
7112,G#5,714.5,1.0,87,136.0
7113,G#3,714.5,0.25,86,136.0
7114,G#2,714.5,0.25,86,136.0
7115,G4,714.75,0.25,86,136.0
7116,G3,714.75,0.25,86,136.0
7117,G#4,715.0,0.25,92,136.0
7118,G#3,715.0,0.25,92,136.0
7119,G3,715.25,0.25,82,136.0
7120,G2,715.25,0.25,82,136.0
7121,C#6,715.5,0.25,88,136.0
7122,C#5,715.5,0.25,88,136.0
7123,F5,715.5,0.25,88,136.0
7124,G#3,715.5,0.5,86,136.0
7125,G#2,715.5,0.5,86,136.0
7126,B-6,716.0,0.25,97,136.0
7127,B-5,716.0,0.25,97,136.0
7128,C#6,716.0,0.25,97,136.0
7129,F#2,716.0,0.25,98,136.0
7130,F#1,716.0,0.25,98,136.0
7131,A3,716.25,0.25,81,136.0
7132,A2,716.25,0.25,81,136.0
7133,B-6,716.5,0.25,94,136.0
7134,B-5,716.5,0.25,94,136.0
7135,C#6,716.5,0.25,94,136.0
7136,B-3,716.5,0.5,86,136.0
7137,B-2,716.5,0.5,86,136.0
7138,G#6,717.0,1.0,95,136.0
7139,G#5,717.0,1.0,95,136.0
7140,B5,717.0,1.0,95,136.0
7141,D6,717.0,1.0,95,136.0
7142,F2,717.0,0.25,98,136.0
7143,F1,717.0,0.25,98,136.0
7144,C#4,717.25,0.25,82,136.0
7145,C#3,717.25,0.25,82,136.0
7146,D4,717.5,0.5,86,136.0
7147,D3,717.5,0.5,86,136.0
7148,F#6,718.0,0.25,90,136.0
7149,F#5,718.0,0.25,90,136.0
7150,B-5,718.0,0.25,90,136.0
7151,E-2,718.0,0.25,106,136.0
7152,E-1,718.0,0.25,106,136.0
7153,A3,718.25,0.25,81,136.0
7154,A2,718.25,0.25,81,136.0
7155,F#6,718.5,1.0,94,136.0
7156,F#5,718.5,1.0,94,136.0
7157,B-5,718.5,1.0,94,136.0
7158,B-3,718.5,0.25,86,136.0
7159,B-2,718.5,0.25,86,136.0
7160,A4,718.75,0.25,86,136.0
7161,A3,718.75,0.25,86,136.0
7162,B-4,719.0,0.25,92,136.0
7163,B-3,719.0,0.25,92,136.0
7164,A3,719.25,0.25,82,136.0
7165,A2,719.25,0.25,82,136.0
7166,F#6,719.5,0.5,91,136.0
7167,F#5,719.5,0.5,91,136.0
7168,B-5,719.5,0.5,91,136.0
7169,B-3,719.5,0.5,86,136.0
7170,B-2,719.5,0.5,86,136.0
7171,C#7,720.0,0.5,100,136.0
7172,C#6,720.0,0.5,100,136.0
7173,B-6,720.0,0.5,100,136.0
7174,F#2,720.0,0.25,100,136.0
7175,F#1,720.0,0.25,100,136.0
7176,C4,720.25,0.25,81,136.0
7177,C3,720.25,0.25,81,136.0
7178,C#7,720.5,0.5,93,136.0
7179,C#6,720.5,0.5,93,136.0
7180,B-6,720.5,0.5,93,136.0
7181,C#4,720.5,0.25,86,136.0
7182,C#3,720.5,0.25,86,136.0
7183,C5,720.75,0.25,86,136.0
7184,C4,720.75,0.25,86,136.0
7185,C7,721.0,0.5,99,136.0
7186,C6,721.0,0.5,99,136.0
7187,G#6,721.0,0.5,99,136.0
7188,C#5,721.0,0.25,92,136.0
7189,C#4,721.0,0.25,92,136.0
7190,C4,721.25,0.25,82,136.0
7191,C3,721.25,0.25,82,136.0
7192,B-6,721.5,0.5,91,136.0
7193,B-5,721.5,0.5,91,136.0
7194,F#6,721.5,0.5,91,136.0
7195,C#4,721.5,0.5,86,136.0
7196,C#3,721.5,0.5,86,136.0
7197,G#6,722.0,0.25,92,136.0
7198,G#5,722.0,0.25,92,136.0
7199,F6,722.0,0.25,92,136.0
7200,G#2,722.0,0.25,97,136.0
7201,G#1,722.0,0.25,97,136.0
7202,G3,722.25,0.25,81,136.0
7203,G2,722.25,0.25,81,136.0
7204,G#6,722.5,1.0,94,136.0
7205,G#5,722.5,1.0,94,136.0
7206,C#6,722.5,1.0,94,136.0
7207,F6,722.5,1.0,94,136.0
7208,G#3,722.5,0.25,86,136.0
7209,G#2,722.5,0.25,86,136.0
7210,G4,722.75,0.25,86,136.0
7211,G3,722.75,0.25,86,136.0
7212,G#4,723.0,0.25,92,136.0
7213,G#3,723.0,0.25,92,136.0
7214,A6,723.75,0.25,94,136.0
7215,A5,723.75,0.25,94,136.0
7216,F4,723.75,0.25,79,136.0
7217,F5,723.75,0.25,79,136.0
7218,B-6,724.0,0.25,100,136.0
7219,B-5,724.0,0.25,100,136.0
7220,F#5,724.0,0.25,92,136.0
7221,F#4,724.0,0.25,92,136.0
7222,F6,724.75,0.25,88,136.0
7223,F5,724.75,0.25,88,136.0
7224,D5,724.75,0.25,66,136.0
7225,D4,724.75,0.25,66,136.0
7226,F#6,725.0,0.25,94,136.0
7227,F#5,725.0,0.25,94,136.0
7228,E-5,725.0,0.25,70,136.0
7229,E-4,725.0,0.25,70,136.0
7230,D6,725.25,0.25,86,136.0
7231,D5,725.25,0.25,86,136.0
7232,B4,725.25,0.25,64,136.0
7233,B3,725.25,0.25,64,136.0
7234,E-6,725.5,0.25,92,136.0
7235,E-5,725.5,0.25,92,136.0
7236,C5,725.5,0.25,69,136.0
7237,C4,725.5,0.25,69,136.0
7238,B5,725.75,0.25,86,136.0
7239,B4,725.75,0.25,86,136.0
7240,G4,725.75,0.25,64,136.0
7241,G3,725.75,0.25,64,136.0
7242,C6,726.0,0.25,93,136.0
7243,C5,726.0,0.25,93,136.0
7244,G#4,726.0,0.25,69,136.0
7245,G#3,726.0,0.25,69,136.0
7246,A5,726.25,0.25,84,136.0
7247,A4,726.25,0.25,84,136.0
7248,F4,726.25,0.25,62,136.0
7249,F3,726.25,0.25,62,136.0
7250,B-5,726.5,0.25,90,136.0
7251,B-4,726.5,0.25,90,136.0
7252,F#4,726.5,0.25,66,136.0
7253,F#3,726.5,0.25,66,136.0
7254,F5,726.75,0.25,83,136.0
7255,F4,726.75,0.25,83,136.0
7256,D4,726.75,0.25,62,136.0
7257,D3,726.75,0.25,62,136.0
7258,F#5,727.0,0.25,90,136.0
7259,F#4,727.0,0.25,90,136.0
7260,E-4,727.0,0.25,68,136.0
7261,E-3,727.0,0.25,68,136.0
7262,D5,727.25,0.25,81,136.0
7263,D4,727.25,0.25,81,136.0
7264,B3,727.25,0.25,60,136.0
7265,B2,727.25,0.25,60,136.0
7266,E-5,727.5,0.25,88,136.0
7267,E-4,727.5,0.25,88,136.0
7268,C4,727.5,0.25,66,136.0
7269,C3,727.5,0.25,66,136.0
7270,B4,727.75,0.25,84,136.0
7271,B3,727.75,0.25,84,136.0
7272,G3,727.75,0.25,62,136.0
7273,G2,727.75,0.25,62,136.0
7274,C5,728.0,0.25,88,136.0
7275,C4,728.0,0.25,88,136.0
7276,G#3,728.0,0.25,66,136.0
7277,G#2,728.0,0.25,66,136.0
7278,A4,728.25,0.25,86,136.0
7279,A3,728.25,0.25,86,136.0
7280,F3,728.25,0.25,64,136.0
7281,F2,728.25,0.25,64,136.0
7282,B-4,728.5,0.25,92,136.0
7283,B-3,728.5,0.25,92,136.0
7284,F#3,728.5,0.25,68,136.0
7285,F#2,728.5,0.25,68,136.0
7286,F4,728.75,0.25,88,136.0
7287,F3,728.75,0.25,88,136.0
7288,D3,728.75,0.25,65,136.0
7289,D2,728.75,0.25,65,136.0
7290,F#4,729.0,0.25,95,136.0
7291,F#3,729.0,0.25,95,136.0
7292,E-3,729.0,0.25,70,136.0
7293,E-2,729.0,0.25,70,136.0
7294,D4,729.25,0.25,92,136.0
7295,D3,729.25,0.25,92,136.0
7296,B2,729.25,0.25,68,136.0
7297,B1,729.25,0.25,68,136.0
7298,E-4,729.5,0.25,98,136.0
7299,E-3,729.5,0.25,98,136.0
7300,C3,729.5,0.25,74,136.0
7301,C2,729.5,0.25,74,136.0
7302,C4,729.75,0.25,91,136.0
7303,C3,729.75,0.25,91,136.0
7304,F#3,729.75,0.25,91,136.0
7305,G#2,729.75,0.25,68,136.0
7306,G#1,729.75,0.25,68,136.0
7307,E-2,729.75,0.25,68,136.0
7308,F#3,730.0,0.75,90,136.0
7309,C#4,730.0,0.875,98,136.0
7310,C#3,730.0,0.875,98,136.0
7311,F#2,730.0,0.125,74,136.0
7312,A1,730.0,0.125,74,136.0
7313,A2,730.125,0.125,75,136.0
7314,F#2,730.25,0.125,74,136.0
7315,A1,730.25,0.125,74,136.0
7316,A2,730.375,0.125,74,136.0
7317,F#2,730.5,0.125,68,136.0
7318,A1,730.5,0.125,68,136.0
7319,A2,730.625,0.125,80,136.0
7320,F#2,730.75,0.125,68,136.0
7321,A1,730.75,0.125,68,136.0
7322,A2,730.875,0.062,80,136.0
7323,F#4,730.917,83/1000,86,136.0
7324,F#3,730.917,83/1000,86,136.0
7325,A1,730.938,0.531,73,136.0
7326,F#2,730.938,0.531,73,136.0
7327,A2,731.0,0.5,73,136.0
7328,F#4,731.0,0.875,96,136.0
7329,F#3,731.0,0.875,96,136.0
7330,E4,731.917,83/1000,82,136.0
7331,E3,731.917,83/1000,82,136.0
7332,E4,732.0,0.375,88,136.0
7333,A3,732.0,0.375,88,136.0
7334,E3,732.0,0.375,88,136.0
7335,C#2,732.0,0.125,74,136.0
7336,F#1,732.0,0.125,74,136.0
7337,F#2,732.125,0.125,75,136.0
7338,C#2,732.25,0.125,74,136.0
7339,F#1,732.25,0.125,74,136.0
7340,F#2,732.375,0.125,74,136.0
7341,D4,732.417,83/1000,85,136.0
7342,D3,732.417,83/1000,85,136.0
7343,A3,732.5,0.375,89,136.0
7344,D4,732.5,0.375,89,136.0
7345,D3,732.5,0.375,89,136.0
7346,C#2,732.5,0.125,68,136.0
7347,F#1,732.5,0.125,68,136.0
7348,F#2,732.625,0.125,80,136.0
7349,C#2,732.75,0.125,68,136.0
7350,F#1,732.75,0.125,68,136.0
7351,F#2,732.875,0.062,80,136.0
7352,C#4,732.917,83/1000,80,136.0
7353,C#3,732.917,83/1000,80,136.0
7354,F#1,732.938,0.531,73,136.0
7355,C#2,732.938,0.531,73,136.0
7356,F#2,733.0,0.5,73,136.0
7357,A3,733.0,0.375,92,136.0
7358,C#4,733.0,0.375,92,136.0
7359,C#3,733.0,0.375,92,136.0
7360,C4,733.417,83/1000,83,136.0
7361,C3,733.417,83/1000,83,136.0
7362,C4,733.5,0.375,87,136.0
7363,A3,733.5,0.375,87,136.0
7364,C3,733.5,0.375,87,136.0
7365,C#4,733.917,83/1000,83,136.0
7366,C#3,733.917,83/1000,83,136.0
7367,C#4,734.0,0.5,90,136.0
7368,C#3,734.0,0.5,90,136.0
7369,C#1,734.0,0.5,70,136.0
7370,C#2,734.0,0.5,70,136.0
7371,A5,735.0,0.5,85,136.0
7372,F#5,735.0,0.5,85,136.0
7373,C#5,735.0,0.5,85,136.0
7374,A4,735.0,0.5,85,136.0
7375,F#4,735.0,0.5,70,136.0
7376,C#4,735.0,0.5,70,136.0
7377,A3,735.0,0.5,70,136.0
7378,F#3,735.0,0.5,70,136.0
7379,C#6,736.0,0.5,85,136.0
7380,C#5,736.0,0.5,85,136.0
7381,F5,736.0,0.5,85,136.0
7382,G#5,736.0,0.5,85,136.0
7383,C#4,736.0,0.5,70,136.0
7384,C#3,736.0,0.5,70,136.0
7385,F3,736.0,0.5,70,136.0
7386,G#3,736.0,0.5,70,136.0
7387,E-6,736.5,0.5,85,136.0
7388,E-5,736.5,0.5,85,136.0
7389,G#5,736.5,0.5,85,136.0
7390,C6,736.5,0.5,85,136.0
7391,G#3,736.5,0.5,70,136.0
7392,G#2,736.5,0.5,70,136.0
7393,C3,736.5,0.5,70,136.0
7394,E-3,736.5,0.5,70,136.0
7395,F6,737.0,0.5,85,136.0
7396,F5,737.0,0.5,85,136.0
7397,G#5,737.0,0.5,85,136.0
7398,C#6,737.0,0.5,85,136.0
7399,C#3,737.0,0.5,70,136.0
7400,C#2,737.0,0.5,70,136.0
7401,F2,737.0,0.5,70,136.0
7402,G#2,737.0,0.5,70,136.0
7403,G#6,737.5,0.5,85,136.0
7404,G#5,737.5,0.5,85,136.0
7405,C6,737.5,0.5,85,136.0
7406,E-6,737.5,0.5,85,136.0
7407,G#2,737.5,0.5,70,136.0
7408,G#1,737.5,0.5,70,136.0
7409,C2,737.5,0.5,70,136.0
7410,E-2,737.5,0.5,70,136.0
7411,C#7,738.0,0.5,85,136.0
7412,C#6,738.0,0.5,85,136.0
7413,F6,738.0,0.5,85,136.0
7414,G#6,738.0,0.5,85,136.0
7415,C#3,738.0,0.5,70,136.0
7416,C#2,738.0,0.5,70,136.0
7417,F2,738.0,0.5,70,136.0
7418,G#2,738.0,0.5,70,136.0
7419,C#6,740.0,0.5,89,136.0
7420,C#5,740.0,0.5,89,136.0
7421,F#5,740.0,0.5,89,136.0
7422,B-5,740.0,0.5,89,136.0
7423,F#4,740.0,0.5,73,136.0
7424,C#4,740.0,0.5,73,136.0
7425,B-3,740.0,0.5,73,136.0
7426,F#3,740.0,0.5,73,136.0
7427,C#4,742.0,0.5,96,136.0
7428,F3,742.0,0.5,96,136.0
7429,G#3,742.0,0.5,96,136.0
7430,C#3,742.0,0.5,77,136.0
7431,C#2,742.0,0.5,77,136.0
7432,F2,742.0,0.5,77,136.0
7433,G#2,742.0,0.5,77,136.0
