,note_name,start_time,duration,velocity,tempo
0,E4,2.0,0.125,58,165.02
1,G#4,2.25,0.188,51,165.02
2,B4,2.5,0.188,46,165.02
3,E5,2.75,0.188,46,165.02
4,E5,3.0,0.125,65,165.02
5,B4,3.25,0.188,51,165.02
6,G#4,3.5,0.188,47,165.02
7,E4,3.75,0.188,47,165.02
8,E-4,4.0,0.125,58,165.02
9,F#4,4.25,0.188,51,165.02
10,B4,4.5,0.188,47,165.02
11,F#5,4.75,0.188,43,165.02
12,F#5,5.0,0.125,67,165.02
13,B4,5.25,0.188,51,165.02
14,F#4,5.5,0.188,48,165.02
15,E-4,5.75,0.188,43,165.02
16,E4,6.0,0.125,58,165.02
17,G#4,6.25,0.188,51,165.02
18,B4,6.5,0.188,47,165.02
19,E5,6.75,0.188,42,165.02
20,E5,7.0,0.125,70,165.02
21,B4,7.25,0.188,51,165.02
22,G#4,7.5,0.188,48,165.02
23,E4,7.75,0.188,47,165.02
24,B3,8.0,0.125,58,165.02
25,F#4,8.25,0.188,51,165.02
26,E-5,8.5,0.188,51,165.02
27,B5,8.75,0.188,48,165.02
28,B5,9.0,0.125,58,165.02
29,E-5,9.25,0.188,51,165.02
30,F#4,9.5,0.188,47,165.02
31,B3,9.75,0.188,43,165.02
32,E4,10.0,0.125,51,165.02
33,G#4,10.25,0.188,45,165.02
34,B4,10.5,0.188,45,165.02
35,E5,10.75,0.188,41,165.02
36,E5,11.0,0.125,56,165.02
37,B4,11.25,0.188,45,165.02
38,G#4,11.5,0.188,44,165.02
39,E4,11.75,0.188,42,165.02
40,E-4,12.0,0.125,51,165.02
41,F#4,12.25,0.188,45,165.02
42,B4,12.5,0.188,45,165.02
43,F#5,12.75,0.188,41,165.02
44,F#5,13.0,0.125,54,165.02
45,B4,13.25,0.188,45,165.02
46,F#4,13.5,0.188,43,165.02
47,E-4,13.75,0.188,40,165.02
48,E4,14.0,0.125,51,165.02
49,G#4,14.25,0.188,45,165.02
50,B4,14.5,0.188,45,165.02
51,E5,14.75,0.188,40,165.02
52,E5,15.0,0.125,53,165.02
53,B4,15.25,0.188,45,165.02
54,G#4,15.5,0.188,42,165.02
55,E4,15.75,0.188,39,165.02
56,B3,16.0,0.125,51,165.02
57,F#4,16.25,0.188,45,165.02
58,E-5,16.5,0.188,45,165.02
59,B5,16.75,0.188,42,165.02
60,B5,17.0,0.125,56,165.02
61,E-5,17.25,0.188,45,165.02
62,F#4,17.5,0.188,39,165.02
63,B3,17.75,0.188,33,165.02
64,G#3,18.0,0.125,53,165.02
65,E4,18.25,0.188,46,165.02
66,B4,18.5,0.188,47,165.02
67,G#5,18.75,0.188,41,165.02
68,G#5,19.0,0.125,54,165.02
69,B4,19.25,0.188,48,165.02
70,E4,19.5,0.188,42,165.02
71,G#3,19.75,0.188,39,165.02
72,A3,20.0,0.125,55,165.02
73,E4,20.25,0.188,49,165.02
74,C#5,20.5,0.188,49,165.02
75,A5,20.75,0.188,46,165.02
76,C#6,21.0,0.125,62,165.02
77,E6,21.5,0.125,67,165.02
78,B-3,22.0,0.125,53,165.02
79,F#4,22.25,0.188,46,165.02
80,C#5,22.5,0.188,47,165.02
81,B-5,22.75,0.188,41,165.02
82,B-5,23.0,0.125,57,165.02
83,C#5,23.25,0.188,48,165.02
84,F#4,23.5,0.188,43,165.02
85,B-3,23.75,0.188,42,165.02
86,B3,24.0,0.125,55,165.02
87,F#4,24.25,0.188,49,165.02
88,E-5,24.5,0.188,49,165.02
89,B5,24.75,0.188,48,165.02
90,E-6,25.0,0.125,61,165.02
91,F#6,25.5,0.125,64,165.02
92,E-4,26.0,0.125,57,165.02
93,B4,26.25,0.188,50,165.02
94,F#5,26.5,0.188,43,165.02
95,E-6,26.75,0.188,46,165.02
96,E-6,27.0,0.188,56,165.02
97,F#5,27.25,0.188,51,165.02
98,B4,27.5,0.188,45,165.02
99,E-4,27.75,0.188,42,165.02
100,E4,28.0,0.125,60,165.02
101,B4,28.25,0.188,53,165.02
102,G#5,28.5,0.188,54,165.02
103,E6,28.75,0.188,51,165.02
104,E6,29.0,0.188,59,165.02
105,G#5,29.25,0.188,55,165.02
106,B4,29.5,0.188,51,165.02
107,E4,29.75,0.188,48,165.02
108,F#4,30.0,0.125,64,165.02
109,E-5,30.25,0.188,57,165.02
110,B5,30.5,0.188,57,165.02
111,F#6,30.75,0.188,54,165.02
112,F#6,31.0,0.188,64,165.02
113,B5,31.25,0.188,58,165.02
114,E-5,31.5,0.188,54,165.02
115,F#4,31.75,0.188,51,165.02
116,G#4,32.0,0.125,68,165.02
117,E5,32.25,0.188,60,165.02
118,B5,32.5,0.188,61,165.02
119,G#6,32.75,0.188,58,165.02
120,G#6,33.0,0.188,68,165.02
121,B5,33.25,0.188,63,165.02
122,E5,33.5,0.188,57,165.02
123,G#4,33.75,0.188,54,165.02
124,A4,34.0,0.125,73,165.02
125,E5,34.25,0.188,64,165.02
126,C#6,34.5,0.188,64,165.02
127,A6,34.75,0.188,61,165.02
128,A6,35.0,0.188,73,165.02
129,C#6,35.25,0.188,66,165.02
130,E5,35.5,0.188,62,165.02
131,A4,35.75,0.188,55,165.02
132,B-4,36.0,0.125,78,165.02
133,G5,36.25,0.188,68,165.02
134,E6,36.5,0.188,68,165.02
135,C#7,36.75,0.188,64,165.02
136,C#7,37.0,0.188,74,165.02
137,E6,37.25,0.188,68,165.02
138,G5,37.5,0.188,63,165.02
139,B-4,37.75,0.188,58,165.02
140,C#5,38.0,0.125,78,165.02
141,B-5,38.25,0.188,68,165.02
142,G6,38.5,0.188,68,165.02
143,E7,38.75,0.188,66,165.02
144,E7,39.0,0.188,74,165.02
145,G6,39.25,0.188,68,165.02
146,B-5,39.5,0.188,65,165.02
147,C#5,39.75,0.188,62,165.02
148,B-4,40.0,0.125,78,165.02
149,G5,40.25,0.188,68,165.02
150,E6,40.5,0.188,65,165.02
151,C#7,40.75,0.188,68,165.02
152,C#7,41.0,0.188,72,165.02
153,E6,41.25,0.188,65,165.02
154,G5,41.5,0.188,63,165.02
155,B-4,41.75,0.188,59,165.02
156,G4,42.0,0.125,71,165.02
157,E5,42.25,0.188,62,165.02
158,C#6,42.5,0.188,61,165.02
159,B-6,42.75,0.188,61,165.02
160,B-6,43.0,0.188,65,165.02
161,C#6,43.25,0.188,59,165.02
162,E5,43.5,0.188,48,165.02
163,G4,43.75,0.188,42,165.02
164,E4,44.0,0.125,64,165.02
165,C#5,44.25,0.188,57,165.02
166,B-5,44.5,0.188,57,165.02
167,G6,44.75,0.188,56,165.02
168,G6,45.0,0.188,61,165.02
169,B-5,45.25,0.188,54,165.02
170,C#5,45.5,0.188,49,165.02
171,E4,45.75,0.188,40,165.02
172,C#4,46.0,0.125,59,165.02
173,B-4,46.25,0.188,53,165.02
174,G5,46.5,0.188,51,165.02
175,E6,46.75,0.188,51,165.02
176,E6,47.0,0.188,55,165.02
177,G5,47.25,0.188,49,165.02
178,B-4,47.5,0.188,45,165.02
179,C#4,47.75,0.188,42,165.02
180,B3,48.0,0.125,54,165.02
181,F#4,48.25,0.188,47,165.02
182,E-5,48.5,0.188,42,165.02
183,B5,48.75,0.188,46,165.02
184,E-6,49.0,0.125,54,165.02
185,F#6,49.5,0.125,60,165.02
186,A3,50.0,0.125,51,165.02
187,E-4,50.25,0.188,45,165.02
188,B4,50.5,0.188,42,165.02
189,F#5,50.75,0.188,40,165.02
190,F#5,51.0,0.125,57,165.02
191,B4,51.25,0.188,45,165.02
192,E-4,51.5,0.188,42,165.02
193,A3,51.75,0.188,39,165.02
194,G#3,52.0,0.125,51,165.02
195,E4,52.25,0.188,45,165.02
196,B4,52.5,0.188,45,165.02
197,G#5,52.75,0.188,45,165.02
198,B5,53.0,0.125,54,165.02
199,E6,53.5,0.125,60,165.02
200,A3,54.0,0.125,51,165.02
201,E-4,54.25,0.188,45,165.02
202,B4,54.5,0.188,45,165.02
203,F#5,54.75,0.188,39,165.02
204,F#5,55.0,0.125,57,165.02
205,B4,55.25,0.188,45,165.02
206,E-4,55.5,0.188,40,165.02
207,A3,55.75,0.188,38,165.02
208,G#3,56.0,0.125,51,165.02
209,E4,56.25,0.188,45,165.02
210,B4,56.5,0.188,43,165.02
211,G#5,56.75,0.188,45,165.02
212,B5,57.0,0.125,54,165.02
213,E6,57.5,0.125,60,165.02
214,A3,58.0,0.125,75,165.02
215,A5,58.5,0.125,52,165.02
216,E5,58.5,0.125,52,165.02
217,C#5,58.5,0.125,52,165.02
218,A4,58.5,0.125,52,165.02
219,C#4,58.5,0.125,52,165.02
220,E4,58.5,0.125,52,165.02
221,B3,59.0,0.125,82,165.02
222,B5,59.5,0.125,53,165.02
223,G#5,59.5,0.125,53,165.02
224,E5,59.5,0.125,53,165.02
225,B4,59.5,0.125,53,165.02
226,G#4,59.5,0.125,53,165.02
227,E4,59.5,0.125,53,165.02
228,C#4,60.0,0.125,81,165.02
229,C#6,60.5,0.125,53,165.02
230,A5,60.5,0.125,53,165.02
231,E5,60.5,0.125,53,165.02
232,C#5,60.5,0.125,53,165.02
233,A4,60.5,0.125,53,165.02
234,E4,60.5,0.125,53,165.02
235,C4,61.0,0.125,81,165.02
236,C6,61.5,0.125,52,165.02
237,G5,61.5,0.125,52,165.02
238,E5,61.5,0.125,52,165.02
239,C5,61.5,0.125,52,165.02
240,B-4,61.5,0.125,52,165.02
241,G4,61.5,0.125,52,165.02
242,E4,61.5,0.125,52,165.02
243,B3,62.0,0.125,80,165.02
244,B5,62.5,0.125,53,165.02
245,G#5,62.5,0.125,53,165.02
246,E5,62.5,0.125,53,165.02
247,B4,62.5,0.125,53,165.02
248,G#4,62.5,0.125,53,165.02
249,E4,62.5,0.125,53,165.02
250,B3,63.0,0.125,81,165.02
251,B5,63.5,0.125,53,165.02
252,F#5,63.5,0.125,53,165.02
253,E-5,63.5,0.125,53,165.02
254,B4,63.5,0.125,53,165.02
255,A4,63.5,0.125,53,165.02
256,F#4,63.5,0.125,53,165.02
257,E4,64.0,1.0,81,165.02
258,E6,65.0,0.125,64,165.02
259,B5,65.0,0.125,64,165.02
260,G#5,65.0,0.125,64,165.02
261,E5,65.0,0.125,64,165.02
262,B4,65.0,0.125,64,165.02
263,G#4,65.0,0.125,64,165.02
264,E4,66.0,0.125,58,165.02
265,G4,66.25,0.188,51,165.02
266,B4,66.5,0.188,51,165.02
267,E5,66.75,0.188,43,165.02
268,E5,67.0,0.125,59,165.02
269,B4,67.25,0.188,51,165.02
270,G4,67.5,0.188,48,165.02
271,E4,67.75,0.188,42,165.02
272,E-4,68.0,0.125,58,165.02
273,F#4,68.25,0.188,51,165.02
274,B4,68.5,0.188,51,165.02
275,F#5,68.75,0.188,45,165.02
276,F#5,69.0,0.125,62,165.02
277,B4,69.25,0.188,51,165.02
278,F#4,69.5,0.188,48,165.02
279,E-4,69.75,0.188,42,165.02
280,E4,70.0,0.125,58,165.02
281,G4,70.25,0.188,51,165.02
282,B4,70.5,0.188,51,165.02
283,E5,70.75,0.188,46,165.02
284,E5,71.0,0.125,58,165.02
285,B4,71.25,0.188,51,165.02
286,G4,71.5,0.188,47,165.02
287,E4,71.75,0.188,42,165.02
288,B3,72.0,0.125,58,165.02
289,F#4,72.25,0.188,51,165.02
290,E-5,72.5,0.188,48,165.02
291,B5,72.75,0.188,51,165.02
292,B5,73.0,0.125,61,165.02
293,E-5,73.25,0.188,51,165.02
294,F#4,73.5,0.188,46,165.02
295,B3,73.75,0.188,41,165.02
296,E4,74.0,0.125,51,165.02
297,G4,74.25,0.188,45,165.02
298,B4,74.5,0.188,45,165.02
299,E5,74.75,0.188,40,165.02
300,E5,75.0,0.125,53,165.02
301,B4,75.25,0.188,45,165.02
302,G4,75.5,0.188,43,165.02
303,E4,75.75,0.188,39,165.02
304,E-4,76.0,0.125,51,165.02
305,F#4,76.25,0.188,45,165.02
306,B4,76.5,0.188,45,165.02
307,F#5,76.75,0.188,41,165.02
308,F#5,77.0,0.125,57,165.02
309,B4,77.25,0.188,45,165.02
310,F#4,77.5,0.188,42,165.02
311,E-4,77.75,0.188,38,165.02
312,E4,78.0,0.125,51,165.02
313,G4,78.25,0.188,45,165.02
314,B4,78.5,0.188,45,165.02
315,E5,78.75,0.188,41,165.02
316,E5,79.0,0.125,51,165.02
317,B4,79.25,0.188,45,165.02
318,G4,79.5,0.188,41,165.02
319,E4,79.75,0.188,39,165.02
320,B3,80.0,0.125,51,165.02
321,F#4,80.25,0.188,45,165.02
322,E-5,80.5,0.188,40,165.02
323,B5,80.75,0.188,45,165.02
324,B5,81.0,0.125,51,165.02
325,E-5,81.25,0.188,45,165.02
326,F#4,81.5,0.188,40,165.02
327,B3,81.75,0.188,37,165.02
328,B3,82.0,0.125,53,165.02
329,F#4,82.25,0.188,46,165.02
330,D5,82.5,0.188,47,165.02
331,B5,82.75,0.188,47,165.02
332,B5,83.0,0.125,54,165.02
333,D5,83.25,0.188,48,165.02
334,F#4,83.5,0.188,43,165.02
335,B3,83.75,0.188,41,165.02
336,A3,84.0,0.125,51,165.02
337,F#4,84.25,0.188,45,165.02
338,D5,84.5,0.188,45,165.02
339,C6,84.75,0.188,45,165.02
340,C6,85.0,0.125,51,165.02
341,D5,85.25,0.188,45,165.02
342,F#4,85.5,0.188,40,165.02
343,A3,85.75,0.188,34,165.02
344,A3,86.0,0.125,53,165.02
345,F#4,86.25,0.188,46,165.02
346,D5,86.5,0.188,45,165.02
347,A5,86.75,0.188,42,165.02
348,A5,87.0,0.125,54,165.02
349,D5,87.25,0.188,48,165.02
350,F#4,87.5,0.188,42,165.02
351,A3,87.75,0.188,38,165.02
352,G3,88.0,0.125,51,165.02
353,D4,88.25,0.188,45,165.02
354,B4,88.5,0.188,45,165.02
355,D6,88.75,0.188,51,165.02
356,D6,89.0,0.125,62,165.02
357,B4,89.25,0.188,46,165.02
358,D4,89.5,0.188,41,165.02
359,G3,89.75,0.188,34,165.02
360,G3,90.0,0.125,57,165.02
361,D4,90.25,0.188,46,165.02
362,B4,90.25,0.188,46,165.02
363,D5,90.5,0.188,48,165.02
364,G6,90.75,0.188,60,165.02
365,G6,91.0,0.125,65,165.02
366,D5,91.25,0.188,55,165.02
367,D4,91.5,0.188,46,165.02
368,B4,91.5,0.188,46,165.02
369,G3,91.75,0.188,45,165.02
370,G3,92.0,0.125,62,165.02
371,D4,92.25,0.188,50,165.02
372,B4,92.25,0.188,50,165.02
373,G5,92.5,0.188,57,165.02
374,B6,92.75,0.188,63,165.02
375,B6,93.0,0.125,70,165.02
376,G5,93.25,0.188,59,165.02
377,D4,93.5,0.188,55,165.02
378,B4,93.5,0.188,55,165.02
379,G3,93.75,0.188,51,165.02
380,G3,94.0,0.125,66,165.02
381,D4,94.25,0.188,54,165.02
382,B4,94.25,0.188,54,165.02
383,B5,94.5,0.188,61,165.02
384,D7,94.75,0.188,68,165.02
385,D7,95.0,0.125,78,165.02
386,B5,95.25,0.188,64,165.02
387,D4,95.5,0.188,60,165.02
388,B4,95.5,0.188,60,165.02
389,G3,95.75,0.188,51,165.02
390,C4,96.0,0.125,75,165.02
391,G4,96.25,0.188,66,165.02
392,E5,96.5,0.188,61,165.02
393,C5,96.5,0.188,61,165.02
394,C6,96.75,0.188,59,165.02
395,C#4,97.0,0.125,71,165.02
396,E6,97.5,0.125,59,165.02
397,G5,97.5,0.125,59,165.02
398,E5,97.5,0.125,59,165.02
399,A4,97.5,0.125,59,165.02
400,C#4,97.5,0.125,59,165.02
401,D4,98.0,0.125,77,165.02
402,A4,98.25,0.188,68,165.02
403,D5,98.5,0.188,63,165.02
404,F#5,98.5,0.188,63,165.02
405,D6,98.75,0.188,68,165.02
406,E-4,99.0,0.125,74,165.02
407,F#6,99.5,0.125,61,165.02
408,A5,99.5,0.125,61,165.02
409,F#5,99.5,0.125,61,165.02
410,B4,99.5,0.125,61,165.02
411,E-4,99.5,0.125,61,165.02
412,E4,100.0,0.125,80,165.02
413,B4,100.25,0.188,71,165.02
414,E5,100.5,0.188,65,165.02
415,G5,100.75,0.188,64,165.02
416,E6,100.75,0.188,64,165.02
417,F#4,101.0,0.125,77,165.02
418,F#6,101.5,0.125,62,165.02
419,A5,101.5,0.125,62,165.02
420,F#5,101.5,0.125,62,165.02
421,D5,101.5,0.125,62,165.02
422,A4,101.5,0.125,62,165.02
423,G4,102.0,0.125,78,165.02
424,G6,102.5,0.125,64,165.02
425,B5,102.5,0.125,64,165.02
426,G5,102.5,0.125,64,165.02
427,D5,102.5,0.125,64,165.02
428,B4,102.5,0.125,64,165.02
429,A4,103.0,0.125,80,165.02
430,A6,103.5,0.125,65,165.02
431,D6,103.5,0.125,65,165.02
432,A5,103.5,0.125,65,165.02
433,F#5,103.5,0.125,65,165.02
434,D5,103.5,0.125,65,165.02
435,B4,104.0,0.125,81,165.02
436,B6,104.5,0.125,66,165.02
437,D6,104.5,0.125,66,165.02
438,B5,104.5,0.125,66,165.02
439,G5,104.5,0.125,66,165.02
440,D5,104.5,0.125,66,165.02
441,C5,105.0,0.125,83,165.02
442,C7,105.5,0.125,68,165.02
443,E6,105.5,0.125,68,165.02
444,C6,105.5,0.125,68,165.02
445,G5,105.5,0.125,68,165.02
446,E5,105.5,0.125,68,165.02
447,C#5,106.0,167/1000,77,165.02
448,G5,106.167,167/1000,79,165.02
449,B-5,106.333,167/1000,81,165.02
450,E6,106.5,167/1000,82,165.02
451,B-6,106.667,167/1000,84,165.02
452,E7,106.833,167/1000,86,165.02
453,G7,107.0,0.125,96,165.02
454,C#4,107.5,0.125,84,165.02
455,D4,108.0,0.125,84,165.02
456,D6,108.333,0.125,77,165.02
457,B5,108.333,0.125,77,165.02
458,C6,108.667,0.125,75,165.02
459,A5,108.667,0.125,75,165.02
460,B3,109.0,0.125,74,165.02
461,B5,109.0,0.125,74,165.02
462,G5,109.0,0.125,74,165.02
463,C4,109.333,0.125,71,165.02
464,A5,109.333,0.125,72,165.02
465,F#5,109.333,0.125,72,165.02
466,C#4,109.667,0.125,68,165.02
467,G5,109.667,0.125,71,165.02
468,E5,109.667,0.125,71,165.02
469,D4,110.0,0.25,65,165.02
470,D5,110.0,0.125,69,165.02
471,F#5,110.0,0.125,69,165.02
472,C5,110.333,0.125,67,165.02
473,E5,110.333,0.125,67,165.02
474,B4,110.667,0.125,66,165.02
475,D5,110.667,0.125,66,165.02
476,D5,111.0,0.25,69,165.02
477,A4,111.0,0.125,64,165.02
478,C5,111.0,0.125,64,165.02
479,G4,111.333,0.125,62,165.02
480,B4,111.333,0.125,62,165.02
481,F#4,111.667,0.125,61,165.02
482,A4,111.667,0.125,61,165.02
483,G3,112.0,0.125,53,165.02
484,D4,112.25,0.188,46,165.02
485,B4,112.5,0.188,42,165.02
486,G5,112.75,0.188,46,165.02
487,G5,113.0,0.125,55,165.02
488,B4,113.25,0.188,46,165.02
489,D4,113.5,0.188,45,165.02
490,G3,113.75,0.188,42,165.02
491,G3,114.0,0.125,51,165.02
492,E-4,114.25,0.188,46,165.02
493,C5,114.5,0.188,48,165.02
494,F#5,114.75,0.188,50,165.02
495,F#5,115.0,0.125,59,165.02
496,C5,115.25,0.188,54,165.02
497,E-4,115.5,0.188,49,165.02
498,G3,115.75,0.188,42,165.02
499,G3,116.0,0.25,78,165.02
500,D6,116.333,0.125,74,165.02
501,B5,116.333,0.125,74,165.02
502,C6,116.667,0.125,72,165.02
503,A5,116.667,0.125,72,165.02
504,B3,117.0,0.125,71,165.02
505,B5,117.0,0.125,71,165.02
506,G5,117.0,0.125,71,165.02
507,C4,117.333,0.125,68,165.02
508,A5,117.333,0.125,69,165.02
509,F#5,117.333,0.125,69,165.02
510,C#4,117.667,0.125,65,165.02
511,G5,117.667,0.125,68,165.02
512,E5,117.667,0.125,68,165.02
513,D4,118.0,0.25,63,165.02
514,D5,118.0,0.125,66,165.02
515,F#5,118.0,0.125,66,165.02
516,C5,118.333,0.125,64,165.02
517,E5,118.333,0.125,64,165.02
518,B4,118.667,0.125,64,165.02
519,D5,118.667,0.125,64,165.02
520,D5,119.0,0.25,66,165.02
521,A4,119.0,0.125,62,165.02
522,C5,119.0,0.125,62,165.02
523,G4,119.333,0.125,60,165.02
524,B4,119.333,0.125,60,165.02
525,F#4,119.667,0.125,59,165.02
526,A4,119.667,0.125,59,165.02
527,G3,120.0,0.125,53,165.02
528,D4,120.25,0.188,46,165.02
529,B4,120.5,0.188,42,165.02
530,G5,120.75,0.188,46,165.02
531,G5,121.0,0.125,59,165.02
532,B4,121.25,0.188,46,165.02
533,D4,121.5,0.188,39,165.02
534,G3,121.75,0.188,37,165.02
535,G3,122.0,0.125,51,165.02
536,E-4,122.25,0.188,46,165.02
537,C5,122.5,0.188,48,165.02
538,F#5,122.75,0.188,50,165.02
539,F#5,123.0,0.125,59,165.02
540,C5,123.25,0.188,54,165.02
541,E-4,123.5,0.188,49,165.02
542,G3,123.75,0.188,43,165.02
543,G3,124.0,0.25,78,165.02
544,D6,124.333,0.125,74,165.02
545,B5,124.333,0.125,74,165.02
546,C6,124.667,0.125,72,165.02
547,A5,124.667,0.125,72,165.02
548,B3,125.0,0.125,71,165.02
549,B5,125.0,0.125,71,165.02
550,G5,125.0,0.125,71,165.02
551,C4,125.333,0.125,68,165.02
552,A5,125.333,0.125,69,165.02
553,F#5,125.333,0.125,69,165.02
554,C#4,125.667,0.125,65,165.02
555,G5,125.667,0.125,68,165.02
556,E5,125.667,0.125,68,165.02
557,D4,126.0,0.25,63,165.02
558,D5,126.0,0.125,66,165.02
559,F#5,126.0,0.125,66,165.02
560,C5,126.333,0.125,64,165.02
561,E5,126.333,0.125,64,165.02
562,B4,126.667,0.125,64,165.02
563,D5,126.667,0.125,64,165.02
564,D5,127.0,0.25,66,165.02
565,A4,127.0,0.125,62,165.02
566,C5,127.0,0.125,62,165.02
567,G4,127.333,0.125,60,165.02
568,B4,127.333,0.125,60,165.02
569,F#4,127.667,0.125,59,165.02
570,A4,127.667,0.125,59,165.02
571,G3,128.0,0.125,53,165.02
572,D4,128.25,0.188,46,165.02
573,B4,128.5,0.188,46,165.02
574,G5,128.75,0.188,39,165.02
575,G5,129.0,0.125,56,165.02
576,B4,129.25,0.188,46,165.02
577,D4,129.5,0.188,41,165.02
578,G3,129.75,0.188,34,165.02
579,G3,130.0,0.125,51,165.02
580,D4,130.25,0.188,46,165.02
581,B-4,130.5,0.188,48,165.02
582,G5,130.75,0.188,50,165.02
583,G5,131.0,0.125,59,165.02
584,B-4,131.25,0.188,54,165.02
585,D4,131.5,0.188,51,165.02
586,G3,131.75,0.25,49,165.02
587,G3,132.0,0.438,49,165.02
588,E-4,132.0,0.25,76,165.02
589,C#6,132.333,0.125,70,165.02
590,B-5,132.333,0.125,70,165.02
591,C6,132.667,0.125,69,165.02
592,G#5,132.667,0.125,69,165.02
593,B-3,133.0,0.125,68,165.02
594,B-5,133.0,0.125,67,165.02
595,G5,133.0,0.125,67,165.02
596,C#4,133.333,0.125,66,165.02
597,G5,133.333,0.125,66,165.02
598,B-5,133.333,0.125,66,165.02
599,D4,133.667,0.125,65,165.02
600,F5,133.667,0.125,64,165.02
601,G#5,133.667,0.125,64,165.02
602,E-4,134.0,0.25,63,165.02
603,E-5,134.0,0.125,63,165.02
604,G5,134.0,0.125,63,165.02
605,C#5,134.333,0.125,61,165.02
606,F5,134.333,0.125,61,165.02
607,C5,134.667,0.125,60,165.02
608,E-5,134.667,0.125,60,165.02
609,E-5,135.0,0.25,65,165.02
610,B-4,135.0,0.125,59,165.02
611,C#5,135.0,0.125,59,165.02
612,G#4,135.333,0.125,57,165.02
613,C5,135.333,0.125,57,165.02
614,G4,135.667,0.125,61,165.02
615,B-4,135.667,0.125,61,165.02
616,G#3,136.0,0.125,53,165.02
617,E-4,136.25,0.188,46,165.02
618,C5,136.5,0.188,46,165.02
619,G#5,136.75,0.188,42,165.02
620,G#5,137.0,0.125,50,165.02
621,C5,137.25,0.188,46,165.02
622,E-4,137.5,0.188,42,165.02
623,G#3,137.75,0.188,37,165.02
624,G#3,138.0,0.125,51,165.02
625,E-4,138.25,0.188,46,165.02
626,B4,138.5,0.188,48,165.02
627,G#5,138.75,0.188,45,165.02
628,G#5,139.0,0.125,59,165.02
629,B4,139.25,0.188,54,165.02
630,E-4,139.5,0.188,49,165.02
631,G#3,139.75,0.25,47,165.02
632,G#3,140.0,0.438,47,165.02
633,E4,140.0,0.25,76,165.02
634,D6,140.333,0.125,70,165.02
635,B5,140.333,0.125,70,165.02
636,C#6,140.667,0.125,69,165.02
637,A5,140.667,0.125,69,165.02
638,B3,141.0,0.125,68,165.02
639,B5,141.0,0.125,67,165.02
640,G#5,141.0,0.125,67,165.02
641,D4,141.333,0.125,66,165.02
642,G#5,141.333,0.125,66,165.02
643,B5,141.333,0.125,66,165.02
644,E-4,141.667,0.125,65,165.02
645,F#5,141.667,0.125,64,165.02
646,A5,141.667,0.125,64,165.02
647,E4,142.0,0.25,63,165.02
648,E5,142.0,0.125,63,165.02
649,G#5,142.0,0.125,63,165.02
650,D5,142.333,0.125,61,165.02
651,F#5,142.333,0.125,61,165.02
652,C#5,142.667,0.125,60,165.02
653,E5,142.667,0.125,60,165.02
654,E5,143.0,0.25,65,165.02
655,B4,143.0,0.125,59,165.02
656,D5,143.0,0.125,59,165.02
657,A4,143.333,0.125,57,165.02
658,C#5,143.333,0.125,57,165.02
659,G#4,143.667,0.125,61,165.02
660,B4,143.667,0.125,61,165.02
661,A3,144.0,0.125,53,165.02
662,E4,144.25,0.188,46,165.02
663,C#5,144.5,0.188,42,165.02
664,A5,144.75,0.188,46,165.02
665,A5,145.0,0.125,56,165.02
666,C#5,145.25,0.188,46,165.02
667,E4,145.5,0.188,43,165.02
668,A3,145.75,0.188,38,165.02
669,A3,146.0,0.125,51,165.02
670,E4,146.25,0.188,46,165.02
671,C5,146.5,0.188,48,165.02
672,A5,146.75,0.188,50,165.02
673,A5,147.0,0.125,59,165.02
674,C5,147.25,0.188,54,165.02
675,E4,147.5,0.188,51,165.02
676,A3,147.75,0.25,48,165.02
677,A3,148.0,0.438,48,165.02
678,F4,148.0,0.25,78,165.02
679,E-6,148.333,0.125,70,165.02
680,C6,148.333,0.125,70,165.02
681,D6,148.667,0.125,69,165.02
682,B-5,148.667,0.125,69,165.02
683,C4,149.0,0.125,68,165.02
684,C6,149.0,0.125,67,165.02
685,A5,149.0,0.125,67,165.02
686,E-4,149.333,0.125,66,165.02
687,A5,149.333,0.125,66,165.02
688,C6,149.333,0.125,66,165.02
689,E4,149.667,0.125,65,165.02
690,G5,149.667,0.125,64,165.02
691,B-5,149.667,0.125,64,165.02
692,F4,150.0,0.25,63,165.02
693,F5,150.0,0.125,63,165.02
694,A5,150.0,0.125,63,165.02
695,E-5,150.333,0.125,61,165.02
696,G5,150.333,0.125,61,165.02
697,D5,150.667,0.125,60,165.02
698,F5,150.667,0.125,60,165.02
699,F5,151.0,0.25,65,165.02
700,C5,151.0,0.125,59,165.02
701,E-5,151.0,0.125,59,165.02
702,B-4,151.333,0.125,57,165.02
703,D5,151.333,0.125,57,165.02
704,A4,151.667,0.125,61,165.02
705,C5,151.667,0.125,61,165.02
706,B-3,152.0,0.25,58,165.02
707,F4,152.25,0.188,51,165.02
708,D5,152.5,0.188,46,165.02
709,B-5,152.75,0.188,51,165.02
710,B-5,153.0,0.25,58,165.02
711,D5,153.25,0.188,51,165.02
712,F4,153.5,0.188,45,165.02
713,B-3,153.75,0.188,41,165.02
714,B-3,154.0,0.25,58,165.02
715,F4,154.25,0.188,51,165.02
716,C#5,154.5,0.188,46,165.02
717,B-5,154.75,0.188,51,165.02
718,B-5,155.0,0.25,58,165.02
719,C#5,155.25,0.188,51,165.02
720,F4,155.5,0.188,47,165.02
721,B-3,155.75,0.188,43,165.02
722,B-3,156.0,0.25,58,165.02
723,F#4,156.25,0.188,51,165.02
724,C#5,156.5,0.188,47,165.02
725,B-5,156.75,0.188,51,165.02
726,B-5,157.0,0.25,58,165.02
727,C#5,157.25,0.188,51,165.02
728,F#4,157.5,0.188,49,165.02
729,B-3,157.75,0.188,43,165.02
730,B-3,158.0,0.25,58,165.02
731,F#4,158.25,0.188,51,165.02
732,E5,158.5,0.188,48,165.02
733,C#6,158.75,0.188,51,165.02
734,C#6,159.0,0.25,58,165.02
735,E5,159.25,0.188,51,165.02
736,F#4,159.5,0.188,46,165.02
737,B-3,159.75,0.188,42,165.02
738,B3,160.0,0.25,60,165.02
739,F#4,160.25,0.188,52,165.02
740,E-5,160.5,0.188,49,165.02
741,B5,160.75,0.188,52,165.02
742,B5,161.0,0.25,60,165.02
743,E-5,161.25,0.188,53,165.02
744,F#4,161.5,0.188,46,165.02
745,B3,161.75,0.188,43,165.02
746,B3,162.0,0.25,62,165.02
747,F#4,162.25,0.188,54,165.02
748,D5,162.5,0.188,50,165.02
749,B5,162.75,0.188,55,165.02
750,B5,163.0,0.25,62,165.02
751,D5,163.25,0.188,55,165.02
752,F#4,163.5,0.188,50,165.02
753,B3,163.75,0.188,46,165.02
754,B3,164.0,0.25,65,165.02
755,G4,164.25,0.188,56,165.02
756,D5,164.5,0.188,57,165.02
757,B5,164.75,0.188,50,165.02
758,B5,165.0,0.25,69,165.02
759,D5,165.25,0.188,58,165.02
760,G4,165.5,0.188,50,165.02
761,B3,165.75,0.188,46,165.02
762,B3,166.0,0.25,67,165.02
763,G4,166.25,0.188,59,165.02
764,F5,166.5,0.188,53,165.02
765,D6,166.75,0.188,59,165.02
766,D6,167.0,0.25,70,165.02
767,F5,167.25,0.188,59,165.02
768,G4,167.5,0.188,53,165.02
769,B3,167.75,0.188,48,165.02
770,C4,168.0,0.25,69,165.02
771,G4,168.25,0.188,60,165.02
772,E5,168.5,0.188,60,165.02
773,C6,168.75,0.188,56,165.02
774,C6,169.0,0.25,71,165.02
775,E5,169.25,0.188,62,165.02
776,G4,169.5,0.188,55,165.02
777,C4,169.75,0.188,50,165.02
778,C4,170.0,0.25,72,165.02
779,G4,170.25,0.188,63,165.02
780,E-5,170.5,0.188,63,165.02
781,C6,170.75,0.188,58,165.02
782,C6,171.0,0.25,73,165.02
783,E-5,171.25,0.188,64,165.02
784,G4,171.5,0.188,61,165.02
785,C4,171.75,0.188,56,165.02
786,C4,172.0,0.25,74,165.02
787,G#4,172.25,0.188,64,165.02
788,E-5,172.5,0.188,58,165.02
789,C6,172.75,0.188,66,165.02
790,C6,173.0,0.25,76,165.02
791,E-5,173.25,0.188,66,165.02
792,G#4,173.5,0.188,62,165.02
793,C4,173.75,0.188,56,165.02
794,C4,174.0,0.125,77,165.02
795,G#4,174.25,0.188,68,165.02
796,F#5,174.5,0.188,63,165.02
797,E-6,174.75,0.188,69,165.02
798,E-6,175.0,0.125,78,165.02
799,F#5,175.25,0.188,69,165.02
800,G#4,175.5,0.188,61,165.02
801,C4,175.75,0.188,51,165.02
802,C#4,178.0,0.25,58,165.02
803,F4,178.25,0.188,51,165.02
804,G#4,178.5,0.188,51,165.02
805,F5,178.75,0.188,45,165.02
806,C#5,178.75,0.188,45,165.02
807,F5,179.0,0.125,61,165.02
808,C#5,179.0,0.125,61,165.02
809,G#4,179.25,0.188,51,165.02
810,F4,179.5,0.188,45,165.02
811,C#4,179.75,0.188,40,165.02
812,C4,180.0,0.25,58,165.02
813,E-4,180.25,0.188,51,165.02
814,G#4,180.5,0.188,51,165.02
815,E-5,180.75,0.188,45,165.02
816,F#5,180.75,0.188,45,165.02
817,F#5,181.0,0.125,62,165.02
818,E-5,181.0,0.125,62,165.02
819,G#4,181.25,0.188,51,165.02
820,E-4,181.5,0.188,44,165.02
821,C4,181.75,0.188,39,165.02
822,C#4,182.0,0.25,58,165.02
823,F4,182.25,0.188,51,165.02
824,G#4,182.5,0.188,51,165.02
825,F5,182.75,0.188,46,165.02
826,C#5,182.75,0.188,46,165.02
827,F5,183.0,0.125,54,165.02
828,C#5,183.0,0.125,54,165.02
829,G#4,183.25,0.188,51,165.02
830,F4,183.5,0.188,45,165.02
831,C#4,183.75,0.188,42,165.02
832,G#3,184.0,0.25,58,165.02
833,E-4,184.25,0.188,51,165.02
834,G#4,184.5,0.188,51,165.02
835,C5,184.75,0.188,46,165.02
836,G#5,184.75,0.188,46,165.02
837,C5,185.0,0.125,54,165.02
838,G#5,185.0,0.125,54,165.02
839,G#4,185.25,0.188,51,165.02
840,E-4,185.5,0.188,45,165.02
841,G#3,185.75,0.188,40,165.02
842,C#4,186.0,0.25,49,165.02
843,E4,186.25,0.188,43,165.02
844,G#4,186.5,0.188,43,165.02
845,E5,186.75,0.188,39,165.02
846,C#5,186.75,0.188,39,165.02
847,E5,187.0,0.125,45,165.02
848,C#5,187.0,0.125,45,165.02
849,G#4,187.25,0.188,43,165.02
850,E4,187.5,0.188,37,165.02
851,C#4,187.75,0.188,33,165.02
852,C4,188.0,0.25,49,165.02
853,E-4,188.25,0.188,43,165.02
854,G#4,188.5,0.188,43,165.02
855,E-5,188.75,0.188,39,165.02
856,F#5,188.75,0.188,39,165.02
857,E-5,189.0,0.125,45,165.02
858,F#5,189.0,0.125,45,165.02
859,G#4,189.25,0.188,43,165.02
860,E-4,189.5,0.188,39,165.02
861,C4,189.75,0.188,37,165.02
862,C#4,190.0,0.25,49,165.02
863,E4,190.25,0.188,43,165.02
864,G#4,190.5,0.188,43,165.02
865,E5,190.75,0.188,38,165.02
866,C#5,190.75,0.188,38,165.02
867,E5,191.0,0.125,45,165.02
868,C#5,191.0,0.125,45,165.02
869,G#4,191.25,0.188,43,165.02
870,E4,191.5,0.188,38,165.02
871,C#4,191.75,0.188,35,165.02
872,G#3,192.0,0.25,49,165.02
873,E-4,192.25,0.188,43,165.02
874,G#4,192.5,0.188,43,165.02
875,C5,192.75,0.188,40,165.02
876,G#5,192.75,0.188,40,165.02
877,C5,193.0,0.125,45,165.02
878,G#5,193.0,0.125,45,165.02
879,G#4,193.25,0.188,43,165.02
880,E-4,193.5,0.188,39,165.02
881,G#3,193.75,0.188,35,165.02
882,C#4,194.0,0.25,49,165.02
883,E4,194.25,0.188,43,165.02
884,G#4,194.5,0.188,43,165.02
885,E5,194.75,0.188,41,165.02
886,C#5,194.75,0.188,41,165.02
887,E5,195.0,0.125,46,165.02
888,C#5,195.0,0.125,46,165.02
889,G#4,195.25,0.188,45,165.02
890,E4,195.5,0.188,42,165.02
891,C#4,195.75,0.188,41,165.02
892,B3,196.0,0.25,54,165.02
893,E4,196.25,0.188,48,165.02
894,G#4,196.5,0.188,49,165.02
895,E5,196.75,0.188,46,165.02
896,D5,196.75,0.188,46,165.02
897,D5,197.0,0.125,54,165.02
898,E5,197.0,0.125,54,165.02
899,G#4,197.25,0.188,52,165.02
900,E4,197.5,0.188,50,165.02
901,B3,197.75,0.188,46,165.02
902,A3,198.0,0.25,62,165.02
903,E4,198.25,0.188,56,165.02
904,A4,198.5,0.188,56,165.02
905,C#5,198.75,0.188,52,165.02
906,A5,198.75,0.188,52,165.02
907,A5,199.0,0.125,61,165.02
908,C#5,199.0,0.125,61,165.02
909,A4,199.25,0.188,59,165.02
910,E4,199.5,0.188,55,165.02
911,A3,199.75,0.188,50,165.02
912,B-3,200.0,0.25,69,165.02
913,G4,200.25,0.188,62,165.02
914,C#5,200.5,0.188,63,165.02
915,C#6,200.75,0.188,59,165.02
916,E5,200.75,0.188,59,165.02
917,E5,201.0,0.125,68,165.02
918,C#6,201.0,0.125,68,165.02
919,C#5,201.25,0.188,67,165.02
920,G4,201.5,0.188,62,165.02
921,B-3,201.75,0.188,58,165.02
922,B3,202.0,0.125,78,165.02
923,B5,202.5,0.125,53,165.02
924,E-5,202.5,0.125,53,165.02
925,B4,202.5,0.125,53,165.02
926,E-4,202.5,0.125,53,165.02
927,F#4,202.5,0.125,53,165.02
928,A3,203.0,0.125,82,165.02
929,B5,203.5,0.125,53,165.02
930,F#5,203.5,0.125,53,165.02
931,E-5,203.5,0.125,53,165.02
932,B4,203.5,0.125,53,165.02
933,F#4,203.5,0.125,53,165.02
934,E-4,203.5,0.125,53,165.02
935,G#3,204.0,0.125,81,165.02
936,G#5,204.5,0.125,53,165.02
937,E5,204.5,0.125,53,165.02
938,B4,204.5,0.125,53,165.02
939,G#4,204.5,0.125,53,165.02
940,E4,204.5,0.125,53,165.02
941,B3,204.5,0.125,53,165.02
942,A3,205.0,0.125,81,165.02
943,A5,205.5,0.125,53,165.02
944,E5,205.5,0.125,53,165.02
945,C#5,205.5,0.125,53,165.02
946,A4,205.5,0.125,53,165.02
947,E4,205.5,0.125,53,165.02
948,C#4,205.5,0.125,53,165.02
949,B3,206.0,0.125,80,165.02
950,B5,206.5,0.125,53,165.02
951,G#5,206.5,0.125,53,165.02
952,E5,206.5,0.125,53,165.02
953,B4,206.5,0.125,53,165.02
954,G#4,206.5,0.125,53,165.02
955,E4,206.5,0.125,53,165.02
956,B3,207.0,0.125,81,165.02
957,B5,207.5,0.125,53,165.02
958,F#5,207.5,0.125,53,165.02
959,E-5,207.5,0.125,53,165.02
960,B4,207.5,0.125,53,165.02
961,F#4,207.5,0.125,53,165.02
962,E-4,207.5,0.125,53,165.02
963,E4,208.0,1.0,81,165.02
964,E6,209.0,0.125,64,165.02
965,B5,209.0,0.125,64,165.02
966,G#5,209.0,0.125,64,165.02
967,E5,209.0,0.125,64,165.02
968,B4,209.0,0.125,64,165.02
969,G#4,209.0,0.125,64,165.02
970,E4,210.0,0.125,58,165.02
971,G#4,210.25,0.188,51,165.02
972,B4,210.5,0.188,51,165.02
973,E5,210.75,0.188,48,165.02
974,E5,211.0,0.125,58,165.02
975,B4,211.25,0.188,51,165.02
976,G#4,211.5,0.188,48,165.02
977,E4,211.75,0.188,42,165.02
978,E4,212.0,0.125,58,165.02
979,A4,212.25,0.188,51,165.02
980,C5,212.5,0.188,51,165.02
981,E5,212.75,0.188,46,165.02
982,E5,213.0,0.125,58,165.02
983,C5,213.25,0.188,51,165.02
984,A4,213.5,0.188,44,165.02
985,E4,213.75,0.188,42,165.02
986,E4,214.0,0.125,58,165.02
987,G4,214.25,0.188,51,165.02
988,B-4,214.5,0.188,51,165.02
989,E5,214.75,0.188,48,165.02
990,E5,215.0,0.125,58,165.02
991,B-4,215.25,0.188,51,165.02
992,G4,215.5,0.188,48,165.02
993,E4,215.75,0.188,44,165.02
994,E4,216.0,0.125,58,165.02
995,G#4,216.25,0.188,51,165.02
996,B4,216.5,0.188,51,165.02
997,E5,216.75,0.188,48,165.02
998,E4,217.0,0.125,67,165.02
999,B5,217.0,0.125,68,165.02
1000,G#5,217.0,0.125,68,165.02
1001,F#4,217.333,0.125,59,165.02
1002,A5,217.333,0.125,61,165.02
1003,F#5,217.333,0.125,61,165.02
1004,G#4,217.667,0.125,60,165.02
1005,G#5,217.667,0.125,62,165.02
1006,E5,217.667,0.125,62,165.02
1007,A4,218.0,0.25,67,165.02
1008,A5,218.0,0.125,70,165.02
1009,C#6,218.0,0.125,70,165.02
1010,B5,218.333,0.125,62,165.02
1011,G#5,218.333,0.125,62,165.02
1012,F#5,218.667,0.125,62,165.02
1013,A5,218.667,0.125,62,165.02
1014,A3,219.0,0.25,67,165.02
1015,E5,219.0,0.125,70,165.02
1016,G#5,219.0,0.125,70,165.02
1017,E-5,219.333,0.125,61,165.02
1018,F#5,219.333,0.125,61,165.02
1019,B-3,219.5,0.25,66,165.02
1020,C#5,219.667,0.125,61,165.02
1021,E5,219.667,0.125,61,165.02
1022,B3,220.0,0.25,67,165.02
1023,G#4,220.25,0.188,57,165.02
1024,E5,220.5,0.188,57,165.02
1025,B5,220.75,0.188,53,165.02
1026,B5,221.0,0.188,65,165.02
1027,E5,221.25,0.188,56,165.02
1028,G#4,221.5,0.188,48,165.02
1029,B3,221.75,0.188,45,165.02
1030,B3,222.0,0.25,64,165.02
1031,F#4,222.25,0.188,54,165.02
1032,E-5,222.5,0.188,54,165.02
1033,B5,222.75,0.188,50,165.02
1034,B5,223.0,0.188,60,165.02
1035,E-5,223.25,0.188,54,165.02
1036,F#4,223.5,0.188,49,165.02
1037,B3,223.75,0.188,46,165.02
1038,E4,224.0,0.25,60,165.02
1039,G#4,224.25,0.188,53,165.02
1040,E5,224.5,0.188,53,165.02
1041,B5,224.75,0.188,52,165.02
1042,G#6,225.0,0.125,74,165.02
1043,E6,225.5,0.125,70,165.02
1044,E4,226.0,0.25,57,165.02
1045,B4,226.25,0.188,47,165.02
1046,G#4,226.25,0.188,47,165.02
1047,E5,226.5,0.188,50,165.02
1048,G#5,226.75,0.188,46,165.02
1049,E6,226.75,0.188,46,165.02
1050,G#5,227.0,0.188,50,165.02
1051,E6,227.0,0.188,50,165.02
1052,E5,227.25,0.188,48,165.02
1053,G#4,227.5,0.188,44,165.02
1054,B4,227.5,0.188,44,165.02
1055,E4,227.75,0.188,42,165.02
1056,E4,228.0,0.25,57,165.02
1057,C5,228.25,0.188,47,165.02
1058,A4,228.25,0.188,47,165.02
1059,E5,228.5,0.188,50,165.02
1060,A5,228.75,0.188,46,165.02
1061,E6,228.75,0.188,46,165.02
1062,A5,229.0,0.188,50,165.02
1063,E6,229.0,0.188,50,165.02
1064,E5,229.25,0.188,48,165.02
1065,C5,229.5,0.188,45,165.02
1066,A4,229.5,0.188,45,165.02
1067,E4,229.75,0.188,40,165.02
1068,E4,230.0,0.25,57,165.02
1069,B-4,230.25,0.188,48,165.02
1070,G4,230.25,0.188,48,165.02
1071,E5,230.5,0.188,52,165.02
1072,G5,230.75,0.188,49,165.02
1073,E6,230.75,0.188,49,165.02
1074,G5,231.0,0.188,54,165.02
1075,E6,231.0,0.188,54,165.02
1076,E5,231.25,0.188,54,165.02
1077,B-4,231.5,0.188,47,165.02
1078,G4,231.5,0.188,47,165.02
1079,E4,231.75,0.188,41,165.02
1080,E4,232.0,0.25,70,165.02
1081,B4,232.25,0.188,61,165.02
1082,G#4,232.25,0.188,61,165.02
1083,E5,232.5,0.188,61,165.02
1084,E6,232.75,0.188,61,165.02
1085,G#5,232.75,0.188,61,165.02
1086,G#4,233.0,0.125,68,165.02
1087,E4,233.0,0.125,68,165.02
1088,E-4,233.333,0.125,60,165.02
1089,A4,233.333,0.125,62,165.02
1090,F#4,233.333,0.125,62,165.02
1091,D4,233.667,0.125,62,165.02
1092,B4,233.667,0.125,64,165.02
1093,G#4,233.667,0.125,64,165.02
1094,C#4,234.0,0.25,71,165.02
1095,A4,234.0,0.125,74,165.02
1096,C#5,234.0,0.125,74,165.02
1097,E-5,234.333,0.125,66,165.02
1098,B4,234.333,0.125,66,165.02
1099,C#5,234.667,0.125,68,165.02
1100,E5,234.667,0.125,68,165.02
1101,A3,235.0,0.25,72,165.02
1102,E-5,235.0,0.125,76,165.02
1103,F#5,235.0,0.125,76,165.02
1104,E5,235.333,0.125,70,165.02
1105,G#5,235.333,0.125,70,165.02
1106,F#5,235.667,0.125,71,165.02
1107,A5,235.667,0.125,71,165.02
1108,B3,236.0,0.25,65,165.02
1109,B4,236.25,0.188,52,165.02
1110,G#4,236.25,0.188,52,165.02
1111,E5,236.5,0.188,56,165.02
1112,E6,236.75,0.188,50,165.02
1113,G#5,236.75,0.188,50,165.02
1114,G#5,237.0,0.188,57,165.02
1115,E6,237.0,0.188,57,165.02
1116,E5,237.25,0.188,56,165.02
1117,B4,237.5,0.188,49,165.02
1118,G#4,237.5,0.188,49,165.02
1119,B3,237.75,0.188,44,165.02
1120,B3,238.0,0.25,64,165.02
1121,B4,238.25,0.188,52,165.02
1122,F#4,238.25,0.188,52,165.02
1123,E-5,238.5,0.188,56,165.02
1124,E-6,238.75,0.188,51,165.02
1125,F#5,238.75,0.188,51,165.02
1126,F#5,239.0,0.188,58,165.02
1127,E-6,239.0,0.188,58,165.02
1128,E-5,239.25,0.188,57,165.02
1129,B4,239.5,0.188,50,165.02
1130,F#4,239.5,0.188,50,165.02
1131,B3,239.75,0.188,43,165.02
1132,E4,240.0,0.25,65,165.02
1133,B4,240.25,0.188,50,165.02
1134,E5,240.25,0.188,50,165.02
1135,G#4,240.25,0.188,50,165.02
1136,G#5,240.5,0.188,56,165.02
1137,E6,240.75,0.188,51,165.02
1138,B5,240.75,0.188,51,165.02
1139,G#6,241.0,0.188,62,165.02
1140,G#5,241.25,0.188,56,165.02
1141,E5,241.5,0.188,48,165.02
1142,G#4,241.5,0.188,48,165.02
1143,B4,241.5,0.188,48,165.02
1144,E4,241.75,0.188,45,165.02
1145,E4,242.0,0.25,64,165.02
1146,C5,242.25,0.188,50,165.02
1147,E5,242.25,0.188,50,165.02
1148,A4,242.25,0.188,50,165.02
1149,A5,242.5,0.188,56,165.02
1150,E6,242.75,0.188,53,165.02
1151,C6,242.75,0.188,53,165.02
1152,A6,243.0,0.188,63,165.02
1153,A5,243.25,0.188,57,165.02
1154,E5,243.5,0.188,51,165.02
1155,A4,243.5,0.188,51,165.02
1156,C5,243.5,0.188,51,165.02
1157,E4,243.75,0.188,47,165.02
1158,E4,244.0,0.25,65,165.02
1159,B4,244.25,0.188,50,165.02
1160,E5,244.25,0.188,50,165.02
1161,G#4,244.25,0.188,50,165.02
1162,G#5,244.5,0.188,56,165.02
1163,E6,244.75,0.188,49,165.02
1164,B5,244.75,0.188,49,165.02
1165,G#6,245.0,0.188,63,165.02
1166,G#5,245.25,0.188,58,165.02
1167,E5,245.5,0.188,53,165.02
1168,G#4,245.5,0.188,53,165.02
1169,B4,245.5,0.188,53,165.02
1170,E4,245.75,0.188,47,165.02
1171,E4,246.0,0.25,69,165.02
1172,C5,246.25,0.188,54,165.02
1173,E5,246.25,0.188,54,165.02
1174,A4,246.25,0.188,54,165.02
1175,A5,246.5,0.188,61,165.02
1176,E6,246.75,0.188,56,165.02
1177,C6,246.75,0.188,56,165.02
1178,A6,247.0,0.188,69,165.02
1179,A5,247.25,0.188,64,165.02
1180,C5,247.5,0.188,59,165.02
1181,A4,247.5,0.188,59,165.02
1182,E5,247.5,0.188,59,165.02
1183,E4,247.75,0.188,54,165.02
1184,E4,248.0,0.25,76,165.02
1185,B4,248.25,0.188,59,165.02
1186,E5,248.25,0.188,59,165.02
1187,G#4,248.25,0.188,59,165.02
1188,G#5,248.5,0.188,66,165.02
1189,B5,248.75,0.188,60,165.02
1190,E6,248.75,0.188,60,165.02
1191,G#6,249.0,0.188,74,165.02
1192,G#5,249.25,0.188,68,165.02
1193,B4,249.5,0.188,61,165.02
1194,G#4,249.75,0.188,53,165.02
1195,E4,249.75,0.188,53,165.02
1196,C#4,250.0,0.25,80,165.02
1197,G4,250.25,0.188,64,165.02
1198,B-4,250.25,0.188,64,165.02
1199,E5,250.5,0.188,72,165.02
1200,G5,250.75,0.188,65,165.02
1201,E6,250.75,0.188,65,165.02
1202,C#4,251.0,0.125,78,165.02
1203,B-3,251.5,0.125,83,165.02
1204,B3,252.0,0.125,86,165.02
1205,B5,252.333,0.125,70,165.02
1206,G#5,252.333,0.125,70,165.02
1207,A5,252.667,0.125,69,165.02
1208,F#5,252.667,0.125,69,165.02
1209,G#4,253.0,0.125,75,165.02
1210,G#5,253.0,0.125,68,165.02
1211,E5,253.0,0.125,68,165.02
1212,A4,253.333,0.125,74,165.02
1213,E-5,253.333,0.125,66,165.02
1214,F#5,253.333,0.125,66,165.02
1215,B-4,253.667,0.125,73,165.02
1216,C#5,253.667,0.125,66,165.02
1217,E5,253.667,0.125,66,165.02
1218,B4,254.0,0.125,64,165.02
1219,E-5,254.0,0.125,64,165.02
1220,A4,254.333,0.125,64,165.02
1221,C#5,254.333,0.125,64,165.02
1222,G#4,254.667,0.125,62,165.02
1223,B4,254.667,0.125,62,165.02
1224,B3,255.0,0.25,72,165.02
1225,F#4,255.0,0.125,62,165.02
1226,A4,255.0,0.125,62,165.02
1227,E4,255.333,0.125,60,165.02
1228,G#4,255.333,0.125,60,165.02
1229,E-4,255.667,0.125,59,165.02
1230,F#4,255.667,0.125,59,165.02
1231,E4,256.0,0.25,65,165.02
1232,G#4,256.25,0.188,54,165.02
1233,B4,256.5,0.188,53,165.02
1234,E5,256.75,0.188,50,165.02
1235,G#5,257.0,0.188,63,165.02
1236,B4,257.25,0.188,53,165.02
1237,G#4,257.5,0.188,48,165.02
1238,E4,257.75,0.188,45,165.02
1239,E4,258.0,0.25,64,165.02
1240,A4,258.25,0.188,54,165.02
1241,C5,258.5,0.188,54,165.02
1242,E5,258.75,0.188,45,165.02
1243,A5,259.0,0.188,60,165.02
1244,C5,259.25,0.188,54,165.02
1245,A4,259.5,0.188,50,165.02
1246,E4,259.75,0.188,41,165.02
1247,E4,260.0,0.25,65,165.02
1248,G#4,260.25,0.188,54,165.02
1249,B4,260.5,0.188,54,165.02
1250,E5,260.75,0.188,46,165.02
1251,G#5,261.0,0.188,64,165.02
1252,B4,261.25,0.188,55,165.02
1253,G#4,261.5,0.188,49,165.02
1254,E4,261.75,0.188,41,165.02
1255,E4,262.0,0.25,67,165.02
1256,A4,262.25,0.188,56,165.02
1257,C5,262.5,0.188,56,165.02
1258,E5,262.75,0.188,49,165.02
1259,A5,263.0,0.188,65,165.02
1260,C5,263.25,0.188,58,165.02
1261,A4,263.5,0.188,49,165.02
1262,E4,263.75,0.188,47,165.02
1263,E4,264.0,0.25,72,165.02
1264,G#4,264.25,0.188,61,165.02
1265,B4,264.5,0.188,61,165.02
1266,E5,264.75,0.188,56,165.02
1267,G#5,265.0,0.188,72,165.02
1268,B4,265.25,0.188,62,165.02
1269,G#4,265.5,0.188,58,165.02
1270,E4,265.75,0.188,53,165.02
1271,C4,266.0,0.25,75,165.02
1272,G4,266.25,0.188,63,165.02
1273,B-4,266.5,0.188,61,165.02
1274,E5,266.75,0.188,64,165.02
1275,G5,267.0,0.125,77,165.02
1276,E5,267.5,0.125,78,165.02
1277,B3,268.0,0.125,78,165.02
1278,B4,268.333,0.125,68,165.02
1279,E5,268.333,0.125,68,165.02
1280,G#4,268.667,0.125,68,165.02
1281,B4,268.667,0.125,68,165.02
1282,B5,269.0,0.125,73,165.02
1283,E-4,269.333,0.125,58,165.02
1284,B3,269.333,0.125,58,165.02
1285,E4,269.667,0.125,60,165.02
1286,C#4,269.667,0.125,60,165.02
1287,E-4,270.0,0.125,68,165.02
1288,F#4,270.0,0.125,68,165.02
1289,B3,270.333,0.125,55,165.02
1290,G#4,270.333,0.125,66,165.02
1291,E4,270.333,0.125,66,165.02
1292,C#4,270.667,0.125,57,165.02
1293,F#4,270.667,0.125,66,165.02
1294,A4,270.667,0.125,66,165.02
1295,G#4,271.0,0.125,68,165.02
1296,B4,271.0,0.125,68,165.02
1297,B3,271.0,0.125,54,165.02
1298,E-4,271.0,0.125,54,165.02
1299,E4,271.333,0.125,61,165.02
1300,A4,271.333,0.125,69,165.02
1301,C#5,271.333,0.125,69,165.02
1302,F#4,271.667,0.125,63,165.02
1303,B4,271.667,0.125,71,165.02
1304,E-5,271.667,0.125,71,165.02
1305,E5,272.0,0.125,57,165.02
1306,E4,272.0,0.125,54,165.02
1307,G#4,272.0,0.125,54,165.02
1308,G#5,272.25,0.125,49,165.02
1309,B5,272.5,0.125,48,165.02
1310,E5,272.75,0.125,46,165.02
1311,E5,273.0,0.125,52,165.02
1312,B5,273.25,0.125,49,165.02
1313,G#5,273.5,0.125,47,165.02
1314,E5,273.75,0.125,47,165.02
1315,E5,274.0,0.125,57,165.02
1316,E4,274.0,0.125,48,165.02
1317,A5,274.25,0.125,49,165.02
1318,C6,274.5,0.125,48,165.02
1319,E5,274.75,0.125,46,165.02
1320,E5,275.0,0.125,53,165.02
1321,C6,275.25,0.125,48,165.02
1322,A5,275.5,0.125,47,165.02
1323,E5,275.75,0.125,47,165.02
1324,E5,276.0,0.125,57,165.02
1325,E4,276.0,0.125,48,165.02
1326,G#5,276.25,0.125,49,165.02
1327,B5,276.5,0.125,48,165.02
1328,E5,276.75,0.125,48,165.02
1329,E5,277.0,0.125,56,165.02
1330,B5,277.25,0.125,47,165.02
1331,G#5,277.5,0.125,47,165.02
1332,E5,277.75,0.125,47,165.02
1333,E-5,278.0,0.125,57,165.02
1334,E4,278.0,0.125,48,165.02
1335,F#5,278.25,0.125,49,165.02
1336,B5,278.5,0.125,48,165.02
1337,E5,278.75,0.125,47,165.02
1338,E5,279.0,0.125,55,165.02
1339,B5,279.25,0.125,53,165.02
1340,F#5,279.5,0.125,47,165.02
1341,E-5,279.75,0.125,47,165.02
1342,C#5,280.0,0.125,57,165.02
1343,E4,280.0,0.125,48,165.02
1344,E5,280.25,0.125,49,165.02
1345,A5,280.5,0.125,48,165.02
1346,E5,280.75,0.125,46,165.02
1347,E5,281.0,0.125,56,165.02
1348,A5,281.25,0.125,49,165.02
1349,E5,281.5,0.125,47,165.02
1350,C#5,281.75,0.125,47,165.02
1351,B4,282.0,0.125,57,165.02
1352,E4,282.0,0.125,48,165.02
1353,E-5,282.25,0.125,49,165.02
1354,G#5,282.5,0.125,48,165.02
1355,E5,282.75,0.125,47,165.02
1356,E5,283.0,0.125,55,165.02
1357,G#5,283.25,0.125,49,165.02
1358,E-5,283.5,0.125,47,165.02
1359,B4,283.75,0.125,43,165.02
1360,A4,284.0,0.125,57,165.02
1361,E4,284.0,0.125,48,165.02
1362,C#5,284.25,0.125,49,165.02
1363,F#5,284.5,0.125,50,165.02
1364,E5,284.75,0.125,45,165.02
1365,E5,285.0,0.125,53,165.02
1366,F#5,285.25,0.125,46,165.02
1367,C#5,285.5,0.125,47,165.02
1368,A4,285.75,0.125,47,165.02
1369,F#4,286.0,0.125,57,165.02
1370,A4,286.25,0.125,49,165.02
1371,E-5,286.5,0.125,48,165.02
1372,E5,286.75,0.125,47,165.02
1373,E5,287.0,0.125,55,165.02
1374,E-5,287.25,0.125,47,165.02
1375,A4,287.5,0.125,47,165.02
1376,F#4,287.75,0.125,41,165.02
1377,E4,288.0,0.125,57,165.02
1378,G#4,288.25,0.125,49,165.02
1379,E5,288.5,0.125,48,165.02
1380,E5,288.75,0.125,47,165.02
1381,E5,289.0,0.125,53,165.02
1382,E5,289.25,0.125,51,165.02
1383,G#4,289.5,0.125,45,165.02
1384,E4,289.75,0.125,39,165.02
1385,F4,290.0,0.125,61,165.02
1386,A4,290.25,0.125,52,165.02
1387,E-5,290.5,0.125,53,165.02
1388,E5,290.75,0.125,51,165.02
1389,E5,291.0,0.125,61,165.02
1390,E-5,291.25,0.125,54,165.02
1391,A4,291.5,0.125,47,165.02
1392,F4,291.75,0.125,46,165.02
1393,E4,292.0,0.125,66,165.02
1394,G#4,292.25,0.125,57,165.02
1395,E5,292.5,0.125,56,165.02
1396,E5,292.75,0.125,56,165.02
1397,E5,293.0,0.125,63,165.02
1398,E5,293.25,0.125,56,165.02
1399,G#4,293.5,0.125,53,165.02
1400,E4,293.75,0.125,45,165.02
1401,F4,294.0,0.125,69,165.02
1402,A4,294.25,0.125,62,165.02
1403,E-5,294.5,0.125,62,165.02
1404,E5,294.75,0.125,57,165.02
1405,E5,295.0,0.125,65,165.02
1406,E-5,295.25,0.125,59,165.02
1407,A4,295.5,0.125,57,165.02
1408,F4,295.75,0.125,49,165.02
1409,E4,296.0,0.125,86,165.02
1410,G#4,296.5,0.125,76,165.02
1411,E5,296.5,0.125,76,165.02
1412,E4,298.0,0.125,86,165.02
1413,G#4,298.5,0.125,78,165.02
1414,G#5,298.5,0.125,78,165.02
1415,E5,298.5,0.125,78,165.02
1416,E4,300.0,0.125,64,165.02
1417,G#4,300.25,0.125,55,165.02
1418,E5,300.5,0.125,54,165.02
1419,E5,300.75,0.125,51,165.02
1420,E5,301.0,0.125,58,165.02
1421,G#5,301.25,0.125,50,165.02
1422,B4,301.5,0.125,51,165.02
1423,G#4,301.75,0.125,51,165.02
1424,E4,302.0,0.125,62,165.02
1425,G#4,302.25,0.125,53,165.02
1426,E5,302.5,0.125,51,165.02
1427,E5,302.75,0.125,49,165.02
1428,E5,303.0,0.125,57,165.02
1429,G#5,303.25,0.125,56,165.02
1430,B4,303.5,0.125,50,165.02
1431,G#4,303.75,0.125,49,165.02
1432,E4,304.0,2.0,55,165.02
1433,G#4,304.0,2.0,55,165.02
1434,E5,304.0,2.0,55,165.02
