,note_name,start_time,duration,velocity,tempo
0,E-4,0.5,0.375,26,80.0
1,E-5,0.5,0.375,26,80.0
2,E-4,1.0,0.375,26,80.0
3,E-5,1.0,0.375,26,80.0
4,E-5,1.5,0.375,26,80.0
5,E-4,1.5,0.375,26,80.0
6,E-6,2.0,0.375,31,80.0
7,E-7,2.0,0.375,31,80.0
8,E-6,2.5,0.375,31,80.0
9,E-7,2.5,0.375,31,80.0
10,E-7,3.0,0.375,31,80.0
11,E-6,3.0,0.375,31,80.0
12,E-4,3.5,0.375,26,80.0
13,E-5,3.5,0.375,26,80.0
14,E-4,4.0,0.375,26,80.0
15,E-5,4.0,0.375,26,80.0
16,E-5,4.5,0.375,26,80.0
17,E-4,4.5,0.375,26,80.0
18,E-6,5.0,0.375,31,80.0
19,E-7,5.0,0.375,31,80.0
20,E-7,5.5,0.375,31,80.0
21,E-6,5.5,0.375,31,80.0
22,E-6,6.0,0.375,31,80.0
23,E-7,6.0,0.375,31,80.0
24,E-5,6.5,0.375,24,80.0
25,E-4,6.5,0.375,24,80.0
26,E-7,7.0,0.375,30,80.0
27,E-6,7.0,0.375,30,80.0
28,E-7,7.5,0.375,30,80.0
29,E-6,7.5,0.375,30,80.0
30,E-5,8.0,0.375,23,80.0
31,E-4,8.0,0.375,23,80.0
32,E-7,8.5,0.375,24,80.0
33,E-6,8.5,0.375,24,80.0
34,E-7,9.0,0.375,23,80.0
35,E-6,9.0,0.375,23,80.0
36,E-5,10.0,0.375,43,80.0
37,E-6,10.25,0.125,40,80.0
38,E-6,10.5,0.375,50,80.0
39,E-7,10.75,0.125,40,80.0
40,E-6,11.0,0.375,46,80.0
41,E-7,11.25,0.125,39,80.0
42,C#6,11.5,0.375,46,80.0
43,E-7,11.75,0.125,39,80.0
44,G#3,11.75,0.25,37,80.0
45,E-4,11.875,0.125,39,80.0
46,B5,12.0,0.375,46,80.0
47,B4,12.0,0.375,40,80.0
48,G#3,12.0,0.375,37,80.0
49,E-4,12.0,0.375,39,80.0
50,E-7,12.25,0.125,40,80.0
51,B5,12.5,0.375,45,80.0
52,E-7,12.75,0.125,40,80.0
53,B-5,13.0,0.375,43,80.0
54,E-7,13.25,0.125,40,80.0
55,B3,13.25,0.625,35,80.0
56,G#4,13.375,0.5,36,80.0
57,G#5,13.5,0.375,46,80.0
58,E-5,13.5,0.375,37,80.0
59,E-7,13.75,0.125,40,80.0
60,G5,14.0,0.375,45,80.0
61,E-7,14.25,0.125,37,80.0
62,G#5,14.5,0.375,45,80.0
63,E-7,14.75,0.125,40,80.0
64,E-4,14.75,0.25,36,80.0
65,B-4,14.875,0.125,39,80.0
66,B-5,15.0,0.375,46,80.0
67,G5,15.0,0.375,41,80.0
68,E-4,15.0,0.375,36,80.0
69,B-4,15.0,0.375,39,80.0
70,E-7,15.25,0.125,40,80.0
71,E-5,15.5,0.375,43,80.0
72,E-7,15.75,0.125,37,80.0
73,E-5,16.0,0.375,43,80.0
74,E-6,16.25,0.125,37,80.0
75,G4,16.375,0.5,36,80.0
76,E5,16.5,0.375,50,80.0
77,B-4,16.5,0.375,39,80.0
78,E-6,16.75,0.125,43,80.0
79,E-5,17.0,0.375,46,80.0
80,E-6,17.25,0.125,40,80.0
81,C#5,17.5,0.375,46,80.0
82,E-6,17.75,0.125,39,80.0
83,B4,18.0,0.375,46,80.0
84,G#4,18.0,0.375,43,80.0
85,E-6,18.25,0.125,40,80.0
86,B4,18.5,0.375,45,80.0
87,E-6,18.75,0.125,40,80.0
88,B-4,19.0,0.375,43,80.0
89,E-6,19.25,0.125,37,80.0
90,B3,19.25,0.625,36,80.0
91,D4,19.375,0.5,36,80.0
92,G#4,19.5,0.375,46,80.0
93,F4,19.5,0.375,39,80.0
94,E-6,19.75,0.125,40,80.0
95,G4,20.0,0.375,45,80.0
96,E-6,20.25,0.125,37,80.0
97,G#4,20.5,0.375,45,80.0
98,E-6,20.75,0.125,37,80.0
99,E-4,20.875,0.125,33,80.0
100,B-4,21.0,0.375,46,80.0
101,G4,21.0,0.375,35,80.0
102,E-4,21.0,0.375,33,80.0
103,E-6,21.25,0.125,40,80.0
104,E-4,21.5,0.375,43,80.0
105,E-5,21.75,0.125,37,80.0
106,E-5,22.0,0.375,43,80.0
107,E-6,22.25,0.125,37,80.0
108,E-6,22.5,0.375,50,80.0
109,E-7,22.75,0.125,43,80.0
110,E-6,23.0,0.375,46,80.0
111,E-7,23.25,0.125,41,80.0
112,C#6,23.5,0.375,46,80.0
113,E-7,23.75,0.125,40,80.0
114,G#3,23.75,0.25,36,80.0
115,E-4,23.875,0.125,37,80.0
116,B5,24.0,0.375,46,80.0
117,B4,24.0,0.375,40,80.0
118,G#3,24.0,0.375,36,80.0
119,E-4,24.0,0.375,37,80.0
120,E-7,24.25,0.125,41,80.0
121,B5,24.5,0.375,45,80.0
122,E-7,24.75,0.125,39,80.0
123,B-5,25.0,0.375,43,80.0
124,E-7,25.25,0.125,39,80.0
125,B3,25.25,0.625,36,80.0
126,G#4,25.375,0.5,37,80.0
127,G#5,25.5,0.375,46,80.0
128,E-5,25.5,0.375,41,80.0
129,E-7,25.75,0.125,40,80.0
130,G5,26.0,0.375,45,80.0
131,E-7,26.25,0.125,39,80.0
132,G#5,26.5,0.375,45,80.0
133,E-7,26.75,0.125,40,80.0
134,E-4,26.75,0.25,36,80.0
135,B-4,26.875,0.125,39,80.0
136,B-5,27.0,0.375,46,80.0
137,G5,27.0,0.375,41,80.0
138,E-4,27.0,0.375,36,80.0
139,B-4,27.0,0.375,39,80.0
140,E-7,27.25,0.125,40,80.0
141,E-5,27.5,0.375,43,80.0
142,E-7,27.75,0.125,39,80.0
143,E-5,28.0,0.375,43,80.0
144,E-6,28.25,0.125,40,80.0
145,G4,28.375,0.5,37,80.0
146,E5,28.5,0.375,50,80.0
147,B-4,28.5,0.375,39,80.0
148,E-6,28.75,0.125,45,80.0
149,E-5,29.0,0.375,46,80.0
150,E-6,29.25,0.125,43,80.0
151,C#5,29.5,0.375,42,80.0
152,E-5,29.5,0.375,42,80.0
153,E-6,29.75,0.125,40,80.0
154,E-5,30.0,0.188,46,80.0
155,G#4,30.0,0.375,37,80.0
156,B4,30.0,0.375,37,80.0
157,E-6,30.25,0.125,39,80.0
158,G#5,30.5,0.125,39,80.0
159,B5,30.75,0.125,39,80.0
160,E-6,31.0,0.188,46,80.0
161,E-7,31.25,0.125,41,80.0
162,E-5,31.5,0.188,46,80.0
163,E-4,31.5,0.375,31,80.0
164,C#5,31.5,0.375,31,80.0
165,G4,31.5,0.375,31,80.0
166,E-6,31.75,0.125,39,80.0
167,G5,32.0,0.125,39,80.0
168,B-5,32.25,0.125,39,80.0
169,E-6,32.5,0.188,46,80.0
170,E-7,32.75,0.125,45,80.0
171,G#3,33.0,0.188,40,80.0
172,E-4,33.25,0.188,35,80.0
173,B4,33.5,0.188,35,80.0
174,G#5,33.75,0.188,35,80.0
175,E-5,34.0,0.375,41,80.0
176,E-6,34.25,0.125,37,80.0
177,E-7,34.5,0.375,50,80.0
178,E-6,34.75,0.125,40,80.0
179,E-7,35.0,0.375,46,80.0
180,E-6,35.25,0.125,39,80.0
181,E-7,35.5,0.375,46,80.0
182,C#6,35.75,13/125,39,80.0
183,C#6,35.875,0.125,39,80.0
184,B5,36.0,0.375,54,80.0
185,G#2,36.0,0.375,39,80.0
186,E-7,36.25,0.125,43,80.0
187,B5,36.5,0.375,45,80.0
188,B3,36.5,0.375,36,80.0
189,E-3,36.5,0.375,36,80.0
190,E-7,36.75,0.125,40,80.0
191,B-5,37.0,0.375,43,80.0
192,E-7,37.25,0.125,40,80.0
193,B-5,37.375,0.125,49,80.0
194,G#5,37.5,0.375,49,80.0
195,B2,37.5,0.375,39,80.0
196,E-7,37.75,0.125,41,80.0
197,G5,38.0,0.375,45,80.0
198,G#3,38.0,0.375,36,80.0
199,E-4,38.0,0.375,36,80.0
200,E-7,38.25,0.125,40,80.0
201,G#5,38.5,0.375,45,80.0
202,E-7,38.75,0.125,40,80.0
203,G5,38.875,0.062,47,80.0
204,G#5,38.938,0.062,49,80.0
205,B-5,39.0,0.375,50,80.0
206,E-3,39.0,0.375,39,80.0
207,E-7,39.25,0.125,39,80.0
208,E-5,39.5,0.375,43,80.0
209,B-3,39.5,0.375,36,80.0
210,G4,39.5,0.375,36,80.0
211,E-7,39.75,0.125,39,80.0
212,E-5,40.0,0.375,43,80.0
213,E-6,40.25,0.125,40,80.0
214,F#5,40.375,0.125,46,80.0
215,E5,40.5,0.375,47,80.0
216,G4,40.5,0.375,34,80.0
217,B-4,40.5,0.375,34,80.0
218,E-6,40.75,0.125,41,80.0
219,E-5,41.0,0.375,46,80.0
220,B-4,41.0,0.375,34,80.0
221,G4,41.0,0.375,34,80.0
222,E-6,41.25,0.125,40,80.0
223,C#5,41.5,0.375,46,80.0
224,E-6,41.75,0.125,39,80.0
225,C#5,41.875,0.125,50,80.0
226,B4,42.0,0.375,50,80.0
227,G#4,42.0,0.375,40,80.0
228,E-6,42.25,0.125,40,80.0
229,B4,42.5,0.375,45,80.0
230,G#4,42.5,0.375,40,80.0
231,E-6,42.75,0.125,40,80.0
232,B-4,43.0,0.375,43,80.0
233,E-6,43.25,0.125,40,80.0
234,B-4,43.375,0.125,50,80.0
235,G#4,43.5,0.375,50,80.0
236,B3,43.5,0.375,33,80.0
237,F4,43.5,0.375,33,80.0
238,D4,43.5,0.375,33,80.0
239,E-6,43.75,0.125,40,80.0
240,G4,44.0,0.375,45,80.0
241,B3,44.0,0.375,33,80.0
242,F4,44.0,0.375,33,80.0
243,D4,44.0,0.375,33,80.0
244,E-6,44.25,0.125,40,80.0
245,G#4,44.5,0.375,45,80.0
246,E-6,44.75,0.125,40,80.0
247,B-4,45.0,0.375,46,80.0
248,G4,45.0,0.375,33,80.0
249,E-3,45.0,0.375,33,80.0
250,E-6,45.25,0.125,39,80.0
251,E-4,45.5,0.375,43,80.0
252,E-5,45.75,0.125,39,80.0
253,E-5,46.0,0.375,43,80.0
254,E-6,46.25,0.125,40,80.0
255,E-6,46.5,0.375,50,80.0
256,E-7,46.75,0.125,45,80.0
257,E-6,47.0,0.375,46,80.0
258,E-7,47.25,0.125,43,80.0
259,C#6,47.5,0.375,46,80.0
260,E-7,47.75,0.125,39,80.0
261,C#6,47.875,0.125,54,80.0
262,B5,48.0,0.375,54,80.0
263,G#2,48.0,0.375,39,80.0
264,E-7,48.25,0.125,45,80.0
265,B5,48.5,0.375,45,80.0
266,B3,48.5,0.375,34,80.0
267,E-3,48.5,0.375,34,80.0
268,E-7,48.75,0.125,40,80.0
269,B-5,49.0,0.375,45,80.0
270,E-7,49.25,0.125,40,80.0
271,B-5,49.375,0.125,46,80.0
272,G#5,49.5,0.375,51,80.0
273,B2,49.5,0.375,39,80.0
274,E-7,49.75,0.125,40,80.0
275,G5,50.0,0.375,45,80.0
276,G#3,50.0,0.375,34,80.0
277,E-4,50.0,0.375,34,80.0
278,E-7,50.25,0.125,40,80.0
279,G#5,50.5,0.375,45,80.0
280,E-7,50.75,0.125,40,80.0
281,G5,50.875,0.062,52,80.0
282,G#5,50.938,0.062,54,80.0
283,B-5,51.0,0.375,55,80.0
284,E-3,51.0,0.375,39,80.0
285,E-7,51.25,0.125,39,80.0
286,E-5,51.5,0.375,43,80.0
287,B-3,51.5,0.375,34,80.0
288,G4,51.5,0.375,34,80.0
289,E-7,51.75,0.125,39,80.0
290,E-5,52.0,0.375,43,80.0
291,E-6,52.25,0.125,40,80.0
292,F#5,52.375,0.125,46,80.0
293,E5,52.5,0.375,50,80.0
294,G#4,52.5,0.375,32,80.0
295,B-4,52.5,0.375,32,80.0
296,C#4,52.5,0.375,32,80.0
297,G#6,52.75,0.125,44,80.0
298,E-5,53.0,0.375,46,80.0
299,G#4,53.0,0.375,32,80.0
300,B-4,53.0,0.375,32,80.0
301,E-4,53.0,0.375,32,80.0
302,G#6,53.25,0.125,44,80.0
303,C#5,53.5,0.375,46,80.0
304,B-4,53.5,0.375,32,80.0
305,E4,53.5,0.375,32,80.0
306,G#4,53.5,0.375,32,80.0
307,G#6,53.75,0.125,44,80.0
308,E-5,54.0,0.188,46,80.0
309,E-4,54.0,0.375,36,80.0
310,B4,54.0,0.375,36,80.0
311,G#4,54.0,0.375,36,80.0
312,E-6,54.25,0.125,39,80.0
313,G#5,54.5,0.125,39,80.0
314,B5,54.75,0.125,39,80.0
315,E-6,55.0,0.188,46,80.0
316,E-7,55.25,0.125,41,80.0
317,E-5,55.5,0.188,46,80.0
318,C#4,55.5,0.375,31,80.0
319,G4,55.5,0.375,31,80.0
320,E-3,55.5,0.375,31,80.0
321,E-6,55.75,0.125,39,80.0
322,G5,56.0,0.125,39,80.0
323,B-5,56.25,0.125,39,80.0
324,E-6,56.5,0.188,46,80.0
325,E-7,56.75,0.125,45,80.0
326,G#2,57.0,0.188,45,80.0
327,B3,57.25,0.188,40,80.0
328,E-4,57.5,0.188,40,80.0
329,G#4,57.75,0.188,37,80.0
330,E-5,58.0,0.188,37,80.0
331,G#5,58.25,0.188,36,80.0
332,B5,58.5,0.188,35,80.0
333,E-6,58.75,0.188,35,80.0
334,G#6,59.0,0.188,34,80.0
335,B4,61.0,0.375,45,80.0
336,G4,61.25,0.188,38,80.0
337,B-4,61.25,0.188,38,80.0
338,B4,61.5,0.375,47,80.0
339,F#4,61.75,0.188,42,80.0
340,A4,61.75,0.188,42,80.0
341,B4,62.0,0.375,50,80.0
342,F4,62.25,0.188,43,80.0
343,G#4,62.25,0.188,43,80.0
344,B4,62.5,0.375,54,80.0
345,E4,62.75,0.188,45,80.0
346,G4,62.75,0.188,45,80.0
347,C#5,63.0,0.125,54,80.0
348,B4,63.125,0.125,54,80.0
349,B-4,63.25,0.125,54,80.0
350,B4,63.375,0.125,54,80.0
351,F#4,63.5,0.188,61,80.0
352,E-4,63.5,0.375,33,80.0
353,B3,63.5,0.375,33,80.0
354,F#6,63.75,0.188,54,80.0
355,B4,64.0,0.188,62,80.0
356,F#4,64.0,0.375,32,80.0
357,E-4,64.0,0.375,32,80.0
358,F#3,64.0,0.375,32,80.0
359,F#6,64.25,0.188,54,80.0
360,E-5,64.5,0.125,56,80.0
361,C#5,64.625,0.125,56,80.0
362,C5,64.75,0.125,56,80.0
363,C#5,64.875,0.125,56,80.0
364,F#4,65.0,0.188,63,80.0
365,E4,65.0,0.375,34,80.0
366,B-3,65.0,0.375,34,80.0
367,F#6,65.25,0.188,61,80.0
368,C#5,65.5,0.188,63,80.0
369,F#4,65.5,0.375,33,80.0
370,E4,65.5,0.375,33,80.0
371,F#3,65.5,0.375,33,80.0
372,F#6,65.75,0.188,61,80.0
373,E5,66.0,0.125,54,80.0
374,E-5,66.125,0.125,54,80.0
375,D5,66.25,0.125,54,80.0
376,E-5,66.375,0.125,54,80.0
377,B4,66.5,0.188,61,80.0
378,E-4,66.5,0.5,35,80.0
379,B3,66.5,0.5,35,80.0
380,F#6,66.75,0.188,59,80.0
381,E-5,67.0,0.375,45,80.0
382,B4,67.25,0.188,38,80.0
383,D5,67.25,0.188,38,80.0
384,E-5,67.5,0.375,47,80.0
385,B-4,67.75,0.188,42,80.0
386,C#5,67.75,0.188,42,80.0
387,E-5,68.0,0.375,50,80.0
388,A4,68.25,0.188,43,80.0
389,C5,68.25,0.188,43,80.0
390,E-5,68.5,0.375,54,80.0
391,G#4,68.75,0.188,45,80.0
392,B4,68.75,0.188,45,80.0
393,F5,69.0,0.125,54,80.0
394,E-5,69.125,0.125,54,80.0
395,D5,69.25,0.125,54,80.0
396,E-5,69.375,0.125,54,80.0
397,B-4,69.5,0.188,61,80.0
398,E-4,69.5,0.375,33,80.0
399,F#4,69.5,0.375,33,80.0
400,B-6,69.75,0.188,59,80.0
401,E-5,70.0,0.188,62,80.0
402,B-4,70.0,0.375,32,80.0
403,F#4,70.0,0.375,32,80.0
404,B-3,70.0,0.375,32,80.0
405,B-6,70.25,0.188,59,80.0
406,F#5,70.5,0.125,56,80.0
407,F5,70.625,0.125,56,80.0
408,E5,70.75,0.125,56,80.0
409,F5,70.875,0.125,56,80.0
410,B-4,71.0,0.188,63,80.0
411,G#4,71.0,0.375,34,80.0
412,D4,71.0,0.375,34,80.0
413,B-6,71.25,0.188,60,80.0
414,F5,71.5,0.188,62,80.0
415,B-4,71.5,0.375,33,80.0
416,G#4,71.5,0.375,33,80.0
417,B-3,71.5,0.375,33,80.0
418,B-6,71.75,0.188,60,80.0
419,G#5,72.0,0.125,54,80.0
420,F#5,72.125,0.125,54,80.0
421,F5,72.25,0.125,54,80.0
422,F#5,72.375,0.125,54,80.0
423,E-5,72.5,0.188,61,80.0
424,E-4,72.5,0.5,33,80.0
425,F#4,72.5,0.5,33,80.0
426,B-6,72.75,0.188,59,80.0
427,F#5,73.0,0.375,45,80.0
428,D5,73.25,0.188,38,80.0
429,F5,73.25,0.188,38,80.0
430,F#5,73.5,0.375,47,80.0
431,C#5,73.75,0.188,42,80.0
432,E5,73.75,0.188,42,80.0
433,F#5,74.0,0.375,50,80.0
434,E-5,74.25,0.188,43,80.0
435,C5,74.25,0.188,43,80.0
436,F#5,74.5,0.375,54,80.0
437,D5,74.75,0.188,45,80.0
438,B4,74.75,0.188,45,80.0
439,G#5,75.0,0.125,54,80.0
440,F#5,75.125,0.125,54,80.0
441,F5,75.25,0.125,54,80.0
442,F#5,75.375,0.125,54,80.0
443,C#5,75.5,0.188,61,80.0
444,B-4,75.5,0.375,33,80.0
445,F#4,75.5,0.375,33,80.0
446,C#7,75.75,0.188,64,80.0
447,F#5,76.0,0.188,62,80.0
448,B-4,76.0,0.375,34,80.0
449,C#5,76.0,0.375,34,80.0
450,C#4,76.0,0.375,34,80.0
451,C#7,76.25,0.188,64,80.0
452,B-5,76.5,0.125,56,80.0
453,G#5,76.625,0.125,56,80.0
454,G5,76.75,0.125,56,80.0
455,G#5,76.875,0.125,56,80.0
456,C#5,77.0,0.188,63,80.0
457,B4,77.0,0.375,34,80.0
458,F4,77.0,0.375,34,80.0
459,C#7,77.25,0.188,64,80.0
460,G#5,77.5,0.188,62,80.0
461,C#5,77.5,0.375,33,80.0
462,B4,77.5,0.375,33,80.0
463,C#4,77.5,0.375,33,80.0
464,C#7,77.75,0.188,64,80.0
465,B-5,78.0,0.188,47,80.0
466,F#5,78.0,0.188,46,80.0
467,B5,78.25,0.188,47,80.0
468,G#5,78.25,0.188,46,80.0
469,F#4,78.375,0.625,47,80.0
470,C#6,78.5,0.5,50,80.0
471,B-5,78.5,0.5,47,80.0
472,C#7,78.75,0.25,55,80.0
473,B-6,78.75,0.25,55,80.0
474,B5,79.0,0.188,47,80.0
475,G#5,79.0,0.188,46,80.0
476,B-5,79.25,0.188,47,80.0
477,F#5,79.25,0.188,46,80.0
478,G#5,79.5,0.188,47,80.0
479,B4,79.5,0.188,46,80.0
480,B-5,79.75,0.188,47,80.0
481,C#5,79.75,0.188,46,80.0
482,B3,79.875,0.625,49,80.0
483,B5,80.0,0.5,50,80.0
484,E-5,80.0,0.5,49,80.0
485,B6,80.25,0.25,52,80.0
486,E-6,80.25,0.25,52,80.0
487,B-5,80.5,0.188,47,80.0
488,C#5,80.5,0.188,46,80.0
489,G#5,80.75,0.188,47,80.0
490,B4,80.75,0.188,46,80.0
491,F#5,81.0,0.188,47,80.0
492,B-4,81.0,0.188,46,80.0
493,G#5,81.25,0.188,47,80.0
494,B4,81.25,0.188,46,80.0
495,C#4,81.375,0.625,49,80.0
496,B-5,81.5,0.5,50,80.0
497,C#5,81.5,0.5,49,80.0
498,C#6,81.75,0.25,50,80.0
499,B-6,81.75,0.25,50,80.0
500,G#5,82.0,0.188,47,80.0
501,B4,82.0,0.188,46,80.0
502,F#5,82.25,0.188,47,80.0
503,B-4,82.25,0.188,46,80.0
504,F5,82.5,0.188,47,80.0
505,G#4,82.5,0.188,46,80.0
506,F#5,82.75,0.188,47,80.0
507,B-4,82.75,0.188,46,80.0
508,C#4,82.875,0.625,47,80.0
509,G#5,83.0,0.5,50,80.0
510,B4,83.0,0.5,47,80.0
511,G#6,83.25,0.25,48,80.0
512,B5,83.25,0.25,48,80.0
513,E-5,83.5,0.188,47,80.0
514,F#4,83.5,0.188,47,80.0
515,F5,83.75,0.188,47,80.0
516,G#4,83.75,0.188,47,80.0
517,F#5,84.0,0.375,50,80.0
518,F#3,84.0,0.375,46,80.0
519,B-4,84.0,0.375,46,80.0
520,F#6,84.25,0.25,42,80.0
521,B-5,84.25,0.25,42,80.0
522,F#4,84.5,0.188,51,80.0
523,F#5,84.75,0.188,51,80.0
524,G4,85.0,0.188,57,80.0
525,G5,85.25,0.188,57,80.0
526,G#4,85.5,0.188,61,80.0
527,G#5,85.75,0.188,61,80.0
528,G#6,86.0,0.375,65,80.0
529,E4,86.0,0.375,45,80.0
530,G#4,86.0,0.375,45,80.0
531,G#5,86.25,0.25,56,80.0
532,G#6,86.5,0.375,65,80.0
533,E-4,86.5,0.375,45,80.0
534,G#4,86.5,0.375,45,80.0
535,F#5,86.75,0.25,55,80.0
536,G#6,87.0,0.375,67,80.0
537,C#4,87.0,0.375,48,80.0
538,G#4,87.0,0.375,48,80.0
539,E5,87.25,0.25,54,80.0
540,F#7,87.5,0.375,70,80.0
541,E-5,87.5,0.375,47,80.0
542,G#5,87.75,0.25,55,80.0
543,E7,88.0,0.375,70,80.0
544,C#5,88.0,0.375,47,80.0
545,G#5,88.25,0.25,55,80.0
546,E-7,88.5,0.375,70,80.0
547,G#3,88.5,0.5,45,80.0
548,C5,88.5,0.375,51,80.0
549,G#5,88.75,0.25,55,80.0
550,C#7,89.0,0.375,70,80.0
551,B-4,89.0,0.375,47,80.0
552,G#5,89.25,0.25,55,80.0
553,E-7,89.5,0.375,70,80.0
554,C5,89.5,0.375,47,80.0
555,G#5,89.75,0.25,54,80.0
556,E7,90.0,0.375,73,80.0
557,C#4,90.0,0.5,45,80.0
558,C#5,90.0,0.375,51,80.0
559,G#5,90.25,0.25,54,80.0
560,C#7,90.5,0.375,69,80.0
561,E5,90.5,0.375,47,80.0
562,G#5,90.75,0.25,55,80.0
563,G4,91.0,0.188,57,80.0
564,G5,91.25,0.188,57,80.0
565,F#4,91.5,0.188,61,80.0
566,F#5,91.75,0.188,61,80.0
567,F#6,92.0,0.375,65,80.0
568,E-4,92.0,0.375,45,80.0
569,F#4,92.0,0.375,45,80.0
570,F#5,92.25,0.25,56,80.0
571,F#6,92.5,0.375,65,80.0
572,C#4,92.5,0.375,45,80.0
573,F#4,92.5,0.375,45,80.0
574,E5,92.75,0.25,55,80.0
575,F#6,93.0,0.375,67,80.0
576,B3,93.0,0.375,48,80.0
577,F#4,93.0,0.375,48,80.0
578,E-5,93.25,0.25,54,80.0
579,E7,93.5,0.375,70,80.0
580,C#5,93.5,0.375,47,80.0
581,F#5,93.75,0.25,55,80.0
582,E-7,94.0,0.375,70,80.0
583,B4,94.0,0.375,47,80.0
584,F#5,94.25,0.25,55,80.0
585,C#7,94.5,0.375,70,80.0
586,F#3,94.5,0.5,45,80.0
587,B-4,94.5,0.375,51,80.0
588,F#5,94.75,0.25,55,80.0
589,B6,95.0,0.375,70,80.0
590,G#4,95.0,0.375,47,80.0
591,F#5,95.25,0.25,55,80.0
592,C#7,95.5,0.375,70,80.0
593,B-4,95.5,0.375,47,80.0
594,F#5,95.75,0.25,54,80.0
595,E-7,96.0,0.375,73,80.0
596,B3,96.0,0.5,45,80.0
597,B4,96.0,0.375,51,80.0
598,F#5,96.25,0.25,54,80.0
599,B6,96.5,0.375,69,80.0
600,E-5,96.5,0.375,47,80.0
601,F#5,96.75,0.25,55,80.0
602,D4,97.0,0.188,57,80.0
603,D5,97.25,0.188,52,80.0
604,E-4,97.5,0.188,66,80.0
605,E-5,97.75,0.188,61,80.0
606,E-6,98.0,0.188,61,80.0
607,E-4,98.0,0.375,48,80.0
608,G3,98.0,0.375,48,80.0
609,E-5,98.25,0.188,52,80.0
610,E-6,98.5,0.188,60,80.0
611,G#3,98.5,0.375,48,80.0
612,F4,98.5,0.375,48,80.0
613,D5,98.75,0.188,54,80.0
614,E-6,99.0,0.188,61,80.0
615,B-3,99.0,0.375,54,80.0
616,G4,99.0,0.375,54,80.0
617,C#5,99.25,0.188,55,80.0
618,E-6,99.5,0.188,60,80.0
619,B-3,99.5,0.375,56,80.0
620,G4,99.5,0.375,56,80.0
621,C#5,99.75,0.25,57,80.0
622,E-6,100.0,0.188,61,80.0
623,B3,100.0,0.375,56,80.0
624,G#4,100.0,0.375,56,80.0
625,B4,100.25,0.188,64,80.0
626,E5,100.5,0.188,64,80.0
627,E6,100.5,0.188,64,80.0
628,C#4,100.5,0.375,54,80.0
629,B-4,100.5,0.375,54,80.0
630,B-5,100.75,0.188,63,80.0
631,E-6,100.75,0.188,63,80.0
632,C#5,101.0,0.188,62,80.0
633,C#6,101.0,0.188,62,80.0
634,E5,101.25,0.188,60,80.0
635,B5,101.25,0.188,60,80.0
636,B4,101.5,0.188,60,80.0
637,B-5,101.5,0.188,60,80.0
638,D4,101.5,0.375,48,80.0
639,F4,101.5,0.375,48,80.0
640,F5,101.75,0.188,60,80.0
641,G#5,101.75,0.188,60,80.0
642,B-4,102.0,0.188,60,80.0
643,G5,102.0,0.188,60,80.0
644,E-4,102.0,0.375,52,80.0
645,G4,102.0,0.375,52,80.0
646,E-5,102.25,0.188,56,80.0
647,B-5,102.25,0.188,56,80.0
648,G5,102.5,0.188,54,80.0
649,B5,102.5,0.188,54,80.0
650,E-5,102.75,0.188,50,80.0
651,B-5,102.75,0.188,50,80.0
652,D5,103.0,0.188,57,80.0
653,D6,103.25,0.188,52,80.0
654,E-5,103.5,0.188,66,80.0
655,E-6,103.75,0.188,61,80.0
656,E-7,104.0,0.188,60,80.0
657,E-5,104.0,0.375,43,80.0
658,G4,104.0,0.375,43,80.0
659,E-6,104.25,0.188,50,80.0
660,E-7,104.5,0.188,56,80.0
661,G#4,104.5,0.375,43,80.0
662,F5,104.5,0.375,43,80.0
663,D6,104.75,0.188,52,80.0
664,E-7,105.0,0.188,57,80.0
665,B-4,105.0,0.375,48,80.0
666,G5,105.0,0.375,48,80.0
667,C#6,105.25,0.188,54,80.0
668,E-7,105.5,0.188,61,80.0
669,B-4,105.5,0.375,48,80.0
670,G5,105.5,0.375,48,80.0
671,C#6,105.75,0.25,55,80.0
672,E-7,106.0,0.188,61,80.0
673,B4,106.0,0.375,48,80.0
674,G#5,106.0,0.375,48,80.0
675,B5,106.25,0.188,63,80.0
676,E6,106.5,0.188,56,80.0
677,E7,106.5,0.188,56,80.0
678,C#5,106.5,0.375,48,80.0
679,A5,106.5,0.375,48,80.0
680,A6,106.75,0.188,56,80.0
681,E-7,106.75,0.188,56,80.0
682,C#6,107.0,0.188,54,80.0
683,C#7,107.0,0.188,54,80.0
684,E6,107.25,0.188,54,80.0
685,B6,107.25,0.188,54,80.0
686,B5,107.5,0.188,54,80.0
687,A6,107.5,0.188,54,80.0
688,D5,107.5,0.375,44,80.0
689,F5,107.5,0.375,44,80.0
690,F6,107.75,0.188,53,80.0
691,G#6,107.75,0.188,53,80.0
692,G6,108.0,0.188,54,80.0
693,B-5,108.0,0.188,54,80.0
694,E-5,108.0,0.375,44,80.0
695,G5,108.0,0.375,44,80.0
696,E-6,108.25,0.188,51,80.0
697,B-6,108.25,0.188,51,80.0
698,D5,108.5,0.188,57,80.0
699,D6,108.75,0.188,52,80.0
700,E-5,109.0,0.188,52,80.0
701,E-6,109.25,0.188,52,80.0
702,E-7,109.5,0.188,60,80.0
703,E-6,109.75,0.188,55,80.0
704,E-5,110.0,0.188,56,80.0
705,E-6,110.25,0.188,51,80.0
706,E5,110.5,0.188,57,80.0
707,E6,110.75,0.188,54,80.0
708,E-7,111.0,0.188,61,80.0
709,E-6,111.25,0.188,56,80.0
710,E5,111.5,0.188,59,80.0
711,E6,111.75,0.188,54,80.0
712,F5,112.0,0.188,62,80.0
713,F6,112.25,0.188,57,80.0
714,E-7,112.5,0.188,64,80.0
715,E-6,112.75,0.188,57,80.0
716,F#5,113.0,0.188,61,80.0
717,F#6,113.25,0.188,56,80.0
718,E-7,113.5,0.188,67,80.0
719,E-6,113.75,0.188,62,80.0
720,G5,114.0,0.188,64,80.0
721,G6,114.25,0.188,60,80.0
722,E-7,114.5,0.188,70,80.0
723,E-6,114.75,0.188,62,80.0
724,G#5,115.0,0.188,70,80.0
725,G#6,115.25,0.188,65,80.0
726,E-7,115.5,0.188,71,80.0
727,A5,115.75,0.188,71,80.0
728,E-7,116.0,0.188,72,80.0
729,B-5,116.25,0.188,72,80.0
730,E-7,116.5,0.188,72,80.0
731,B5,116.75,0.188,73,80.0
732,E-7,117.0,0.188,75,80.0
733,C6,117.25,0.188,75,80.0
734,E-7,117.5,0.188,76,80.0
735,C#6,117.75,0.188,77,80.0
736,E-7,118.0,0.188,79,80.0
737,D6,118.25,0.188,79,80.0
738,E-7,118.5,0.188,80,80.0
739,E-6,118.75,0.188,81,80.0
740,E-7,119.0,0.188,81,80.0
741,E-6,119.25,0.188,81,80.0
742,E-7,119.5,0.188,82,80.0
743,E-6,119.75,0.188,81,80.0
744,E-7,120.0,0.188,81,80.0
745,E-6,120.25,0.188,79,80.0
746,E-7,120.5,0.188,81,80.0
747,E-6,120.75,0.188,76,80.0
748,E-7,121.0,0.188,72,80.0
749,E-6,121.25,0.188,61,80.0
750,E-7,121.5,0.188,62,80.0
751,E-6,121.75,0.188,61,80.0
752,E-5,122.0,0.5,59,80.0
753,E-6,122.25,0.188,61,80.0
754,E-7,122.5,0.188,61,80.0
755,E-6,122.75,0.188,61,80.0
756,E-5,123.0,0.5,59,80.0
757,E-6,123.25,0.188,55,80.0
758,E-7,123.5,0.188,55,80.0
759,E-6,123.75,0.188,55,80.0
760,E-5,124.0,0.188,61,80.0
761,E-4,124.0,0.375,49,80.0
762,E-6,124.25,0.188,55,80.0
763,E-7,124.5,0.188,47,80.0
764,E-5,124.5,0.375,54,80.0
765,E-6,124.75,0.188,47,80.0
766,E-5,125.0,0.5,55,80.0
767,E-6,125.25,0.188,47,80.0
768,E-7,125.5,0.188,47,80.0
769,C#5,125.5,0.375,51,80.0
770,E-6,125.75,0.188,47,80.0
771,E-5,126.0,0.188,47,80.0
772,G#3,126.0,0.5,42,80.0
773,B4,126.0,0.375,54,80.0
774,E-6,126.25,0.188,47,80.0
775,E-7,126.5,0.188,47,80.0
776,B4,126.5,0.375,50,80.0
777,E-6,126.75,0.188,49,80.0
778,E-5,127.0,0.188,51,80.0
779,B-4,127.0,0.375,51,80.0
780,E-6,127.25,0.188,51,80.0
781,E-7,127.5,0.188,54,80.0
782,B3,127.5,0.5,37,80.0
783,G#4,127.5,0.375,54,80.0
784,E-6,127.75,0.188,54,80.0
785,E-5,128.0,0.188,54,80.0
786,G4,128.0,0.375,54,80.0
787,E-6,128.25,0.188,55,80.0
788,E-7,128.5,0.188,57,80.0
789,G#4,128.5,0.375,57,80.0
790,E-6,128.75,0.188,57,80.0
791,G4,128.875,0.125,45,80.0
792,E-5,129.0,0.188,60,80.0
793,B-4,129.0,0.5,62,80.0
794,G4,129.0,0.5,45,80.0
795,E-6,129.25,0.188,60,80.0
796,E-7,129.5,0.188,60,80.0
797,E-4,129.5,0.375,54,80.0
798,E-6,129.75,0.188,59,80.0
799,E-5,130.0,0.188,59,80.0
800,E-4,130.0,0.375,54,80.0
801,E-6,130.25,0.188,57,80.0
802,E-7,130.5,0.188,57,80.0
803,G3,130.5,0.5,44,80.0
804,E4,130.5,0.375,56,80.0
805,E-6,130.75,0.188,57,80.0
806,E-5,131.0,0.188,56,80.0
807,E-4,131.0,0.375,52,80.0
808,E-6,131.25,0.188,56,80.0
809,E-7,131.5,0.188,54,80.0
810,C#4,131.5,0.375,52,80.0
811,E-6,131.75,0.188,54,80.0
812,E-5,132.0,0.188,54,80.0
813,G#3,132.0,0.5,44,80.0
814,B3,132.0,329/1000,54,80.0
815,E-6,132.25,0.188,54,80.0
816,E-7,132.5,0.188,54,80.0
817,B3,132.5,0.375,50,80.0
818,E-6,132.75,0.188,52,80.0
819,E-5,133.0,0.188,52,80.0
820,B-3,133.0,0.375,49,80.0
821,E-6,133.25,0.188,51,80.0
822,E3,133.375,0.625,45,80.0
823,E-7,133.5,0.188,47,80.0
824,G#3,133.5,0.375,54,80.0
825,E-6,133.75,0.188,47,80.0
826,E-5,134.0,0.188,46,80.0
827,G3,134.0,0.375,50,80.0
828,E-6,134.25,0.188,45,80.0
829,E-7,134.5,0.188,45,80.0
830,G#3,134.5,0.375,47,80.0
831,E-6,134.75,0.188,44,80.0
832,E-5,135.0,0.188,47,80.0
833,G3,135.0,0.5,45,80.0
834,B-3,135.0,0.5,45,80.0
835,E-6,135.25,0.188,47,80.0
836,E-7,135.5,0.188,47,80.0
837,E-3,135.5,0.25,45,80.0
838,E-6,135.75,0.188,47,80.0
839,E-5,136.0,0.188,47,80.0
840,E-6,136.25,0.188,47,80.0
841,E-4,136.375,0.125,57,80.0
842,E-7,136.523,0.188,47,80.0
843,E-5,136.523,0.375,56,80.0
844,E-6,136.773,0.188,47,80.0
845,E-5,137.023,0.5,55,80.0
846,E-6,137.273,0.188,47,80.0
847,E-7,137.523,0.188,47,80.0
848,C#5,137.523,0.375,51,80.0
849,E-6,137.773,0.188,47,80.0
850,E-5,138.0,0.188,47,80.0
851,G#3,138.0,0.5,42,80.0
852,B4,138.0,0.375,54,80.0
853,E-6,138.25,0.188,47,80.0
854,E-7,138.5,0.188,47,80.0
855,B4,138.5,0.375,50,80.0
856,E-6,138.75,0.188,49,80.0
857,E-5,139.0,0.188,51,80.0
858,B-4,139.0,0.375,51,80.0
859,E-6,139.273,0.188,51,80.0
860,E-7,139.5,0.188,54,80.0
861,B3,139.5,0.5,37,80.0
862,G#4,139.5,0.375,54,80.0
863,E-6,139.75,0.188,54,80.0
864,E-5,140.0,0.188,54,80.0
865,G4,140.0,0.375,54,80.0
866,E-6,140.25,0.188,55,80.0
867,E-7,140.5,0.188,57,80.0
868,G#4,140.5,0.375,57,80.0
869,E-6,140.75,0.188,57,80.0
870,E-5,141.0,0.188,60,80.0
871,B-4,141.0,0.5,51,80.0
872,G4,141.0,0.5,51,80.0
873,E-6,141.25,0.188,60,80.0
874,E-7,141.5,0.188,60,80.0
875,E-4,141.5,0.375,54,80.0
876,E-6,141.75,0.188,59,80.0
877,E-5,142.0,0.5,59,80.0
878,E-6,142.25,0.188,57,80.0
879,E5,142.5,0.5,54,80.0
880,C#4,142.5,0.5,43,80.0
881,B-4,142.5,0.5,43,80.0
882,G#4,142.5,0.5,43,80.0
883,E-6,142.75,0.25,54,80.0
884,E-5,143.0,0.5,50,80.0
885,E-4,143.0,0.5,41,80.0
886,B-4,143.0,0.5,41,80.0
887,G#4,143.0,0.5,41,80.0
888,E-6,143.25,0.25,50,80.0
889,C#5,143.5,0.5,50,80.0
890,E4,143.5,0.5,41,80.0
891,B-4,143.5,0.5,41,80.0
892,G#4,143.5,0.5,41,80.0
893,E-6,143.75,0.25,50,80.0
894,E-5,144.0,0.5,59,80.0
895,E-4,144.0,0.5,46,80.0
896,G#4,144.0,0.5,46,80.0
897,B4,144.0,0.5,46,80.0
898,E-6,144.25,0.25,54,80.0
899,G#5,144.5,0.188,54,80.0
900,B5,144.75,0.188,54,80.0
901,E-6,145.0,0.5,60,80.0
902,E-7,145.25,0.25,54,80.0
903,E-5,145.5,0.5,59,80.0
904,E-4,145.5,0.5,43,80.0
905,G4,145.5,0.5,43,80.0
906,C#5,145.5,0.5,43,80.0
907,E-6,145.75,0.25,54,80.0
908,G5,146.0,0.188,54,80.0
909,B-5,146.25,0.188,54,80.0
910,E-6,146.5,0.5,60,80.0
911,E-7,146.75,0.25,54,80.0
912,G#3,147.0,0.188,52,80.0
913,E-4,147.25,0.188,47,80.0
914,B4,147.5,0.188,47,80.0
915,G#5,147.75,0.188,47,80.0
916,E-5,148.0,83/1000,49,80.0
917,E-6,148.167,83/1000,49,80.0
918,E-6,148.333,83/1000,49,80.0
919,E-6,148.5,83/1000,52,80.0
920,E-6,148.667,83/1000,52,80.0
921,E-7,148.833,83/1000,52,80.0
922,E-6,149.0,83/1000,52,80.0
923,E-6,149.167,83/1000,52,80.0
924,E-7,149.333,83/1000,52,80.0
925,C#6,149.5,83/1000,52,80.0
926,C#6,149.667,83/1000,52,80.0
927,C#7,149.833,83/1000,52,80.0
928,B5,150.0,83/1000,54,80.0
929,G#2,150.0,0.5,54,80.0
930,B5,150.167,83/1000,54,80.0
931,B6,150.333,83/1000,54,80.0
932,B5,150.5,83/1000,54,80.0
933,B3,150.5,0.25,47,80.0
934,E-3,150.5,0.25,47,80.0
935,B5,150.667,83/1000,54,80.0
936,B6,150.833,83/1000,54,80.0
937,B-5,151.0,83/1000,52,80.0
938,E-3,151.0,0.25,47,80.0
939,B3,151.0,0.25,47,80.0
940,B-5,151.167,83/1000,52,80.0
941,B-6,151.333,83/1000,52,80.0
942,G#5,151.5,83/1000,54,80.0
943,B2,151.5,0.5,54,80.0
944,G#5,151.667,83/1000,54,80.0
945,G#6,151.833,83/1000,54,80.0
946,G5,152.0,83/1000,52,80.0
947,E-4,152.0,0.25,47,80.0
948,G#3,152.0,0.25,47,80.0
949,G5,152.167,83/1000,52,80.0
950,G6,152.333,83/1000,52,80.0
951,G#5,152.5,83/1000,52,80.0
952,G#3,152.5,0.25,47,80.0
953,E-4,152.5,0.25,47,80.0
954,G#5,152.667,83/1000,52,80.0
955,G#6,152.833,83/1000,52,80.0
956,B-5,153.0,83/1000,54,80.0
957,E-3,153.0,0.5,54,80.0
958,B-5,153.167,83/1000,54,80.0
959,B-6,153.333,83/1000,54,80.0
960,E-5,153.5,83/1000,50,80.0
961,G4,153.5,0.25,45,80.0
962,B-3,153.5,0.25,45,80.0
963,E-5,153.667,83/1000,50,80.0
964,E-6,153.833,83/1000,47,80.0
965,E-5,154.0,83/1000,47,80.0
966,G4,154.0,0.25,45,80.0
967,B-3,154.0,0.25,45,80.0
968,E-5,154.167,83/1000,47,80.0
969,E-6,154.333,83/1000,47,80.0
970,E5,154.5,83/1000,50,80.0
971,G3,154.5,0.5,50,80.0
972,E5,154.667,83/1000,50,80.0
973,E6,154.833,83/1000,50,80.0
974,E-5,155.0,83/1000,47,80.0
975,B-4,155.0,0.25,42,80.0
976,E-4,155.0,0.25,42,80.0
977,E-5,155.167,83/1000,47,80.0
978,E-6,155.333,83/1000,47,80.0
979,C#5,155.5,83/1000,47,80.0
980,E-4,155.5,0.25,42,80.0
981,B-4,155.5,0.25,42,80.0
982,C#5,155.667,83/1000,47,80.0
983,C#6,155.833,83/1000,47,80.0
984,B4,156.0,83/1000,50,80.0
985,G#3,156.0,0.5,47,80.0
986,B4,156.167,83/1000,50,80.0
987,B5,156.333,83/1000,50,80.0
988,B4,156.5,83/1000,47,80.0
989,G#4,156.5,0.25,42,80.0
990,E-4,156.5,0.25,42,80.0
991,B4,156.667,83/1000,47,80.0
992,B5,156.833,83/1000,47,80.0
993,B-4,157.0,83/1000,47,80.0
994,E-4,157.0,0.25,42,80.0
995,G#4,157.0,0.25,42,80.0
996,B-4,157.167,83/1000,47,80.0
997,B-5,157.333,83/1000,47,80.0
998,G#4,157.5,83/1000,49,80.0
999,B3,157.5,0.5,49,80.0
1000,G#4,157.667,83/1000,49,80.0
1001,G#5,157.833,83/1000,49,80.0
1002,G4,158.0,83/1000,47,80.0
1003,D4,158.0,0.25,38,80.0
1004,F4,158.0,0.25,38,80.0
1005,G4,158.167,83/1000,47,80.0
1006,G5,158.333,83/1000,47,80.0
1007,G#4,158.5,83/1000,47,80.0
1008,D4,158.5,0.25,38,80.0
1009,F4,158.5,0.25,38,80.0
1010,G#4,158.667,83/1000,47,80.0
1011,G#5,158.833,83/1000,47,80.0
1012,B-4,159.0,83/1000,50,80.0
1013,E-3,159.0,0.5,46,80.0
1014,B-4,159.167,83/1000,50,80.0
1015,B-5,159.333,83/1000,50,80.0
1016,E-4,159.5,83/1000,47,80.0
1017,G4,159.5,0.5,36,80.0
1018,B-3,159.5,0.5,36,80.0
1019,E-4,159.667,83/1000,47,80.0
1020,E-5,159.833,83/1000,43,80.0
1021,E-5,160.0,83/1000,45,80.0
1022,E-5,160.167,83/1000,45,80.0
1023,E-5,160.333,83/1000,45,80.0
1024,E-6,160.5,83/1000,52,80.0
1025,E-6,160.667,83/1000,52,80.0
1026,E-7,160.833,83/1000,52,80.0
1027,E-6,161.0,83/1000,52,80.0
1028,E-6,161.167,83/1000,52,80.0
1029,E-7,161.333,83/1000,52,80.0
1030,C#6,161.5,83/1000,52,80.0
1031,C#6,161.667,83/1000,52,80.0
1032,C#7,161.833,83/1000,52,80.0
1033,B5,162.0,83/1000,54,80.0
1034,G#2,162.0,0.5,54,80.0
1035,B5,162.167,83/1000,54,80.0
1036,B6,162.333,83/1000,54,80.0
1037,B5,162.5,83/1000,54,80.0
1038,B3,162.5,0.25,47,80.0
1039,E-3,162.5,0.25,47,80.0
1040,B5,162.667,83/1000,54,80.0
1041,B6,162.833,83/1000,54,80.0
1042,B-5,163.0,83/1000,52,80.0
1043,E-3,163.0,0.25,47,80.0
1044,B3,163.0,0.25,47,80.0
1045,B-5,163.167,83/1000,52,80.0
1046,B-6,163.333,83/1000,52,80.0
1047,G#5,163.5,83/1000,54,80.0
1048,B2,163.5,0.5,54,80.0
1049,G#5,163.667,83/1000,54,80.0
1050,G#6,163.833,83/1000,54,80.0
1051,G5,164.0,83/1000,52,80.0
1052,E-4,164.0,0.25,47,80.0
1053,G#3,164.0,0.25,47,80.0
1054,G5,164.167,83/1000,52,80.0
1055,G6,164.333,83/1000,52,80.0
1056,G#5,164.5,83/1000,52,80.0
1057,G#3,164.5,0.25,47,80.0
1058,E-4,164.5,0.25,47,80.0
1059,G#5,164.667,83/1000,52,80.0
1060,G#6,164.833,83/1000,52,80.0
1061,B-5,165.0,83/1000,54,80.0
1062,E-3,165.0,0.5,54,80.0
1063,B-5,165.167,83/1000,54,80.0
1064,B-6,165.333,83/1000,54,80.0
1065,E-5,165.5,83/1000,50,80.0
1066,G4,165.5,0.375,37,80.0
1067,B-3,165.5,0.375,37,80.0
1068,E-5,165.667,83/1000,50,80.0
1069,E-6,165.833,83/1000,47,80.0
1070,E-5,166.0,83/1000,49,80.0
1071,G4,166.0,0.375,38,80.0
1072,B-4,166.0,0.375,38,80.0
1073,E-5,166.167,83/1000,49,80.0
1074,E-6,166.333,83/1000,49,80.0
1075,E5,166.5,83/1000,52,80.0
1076,G#4,166.5,0.375,40,80.0
1077,B4,166.5,0.375,40,80.0
1078,E5,166.667,83/1000,52,80.0
1079,E6,166.833,83/1000,52,80.0
1080,E-5,167.0,83/1000,50,80.0
1081,F#4,167.0,0.375,38,80.0
1082,B-4,167.0,0.375,38,80.0
1083,E-5,167.167,83/1000,50,80.0
1084,E-6,167.333,83/1000,50,80.0
1085,C#5,167.5,83/1000,47,80.0
1086,E4,167.5,0.375,37,80.0
1087,G#4,167.5,0.375,37,80.0
1088,C#5,167.667,83/1000,47,80.0
1089,C#6,167.833,83/1000,47,80.0
1090,E-5,168.0,83/1000,46,80.0
1091,G#4,168.0,0.5,42,80.0
1092,E-4,168.0,0.5,42,80.0
1093,B4,168.0,0.5,42,80.0
1094,E-5,168.167,83/1000,46,80.0
1095,E-6,168.333,83/1000,47,80.0
1096,E5,168.5,83/1000,47,80.0
1097,E5,168.667,83/1000,49,80.0
1098,E-6,168.833,83/1000,49,80.0
1099,F5,169.0,83/1000,50,80.0
1100,F5,169.167,83/1000,50,80.0
1101,E-6,169.333,83/1000,51,80.0
1102,F#5,169.5,83/1000,51,80.0
1103,F#5,169.667,83/1000,52,80.0
1104,E-6,169.833,83/1000,52,80.0
1105,G5,170.0,83/1000,54,80.0
1106,G5,170.167,83/1000,54,80.0
1107,E-6,170.333,83/1000,54,80.0
1108,G#5,170.5,83/1000,55,80.0
1109,G#5,170.667,83/1000,55,80.0
1110,E-6,170.833,83/1000,56,80.0
1111,A5,171.0,83/1000,56,80.0
1112,G4,171.0,0.5,46,80.0
1113,C#4,171.0,0.5,46,80.0
1114,E-3,171.0,0.5,46,80.0
1115,A5,171.167,83/1000,55,80.0
1116,E-6,171.333,83/1000,55,80.0
1117,B-5,171.5,83/1000,55,80.0
1118,B-5,171.667,83/1000,55,80.0
1119,E-6,171.833,83/1000,55,80.0
1120,B5,172.0,83/1000,55,80.0
1121,B5,172.167,83/1000,55,80.0
1122,E-6,172.333,83/1000,55,80.0
1123,C6,172.5,83/1000,54,80.0
1124,C6,172.667,83/1000,54,80.0
1125,E-6,172.833,83/1000,54,80.0
1126,C#6,173.0,83/1000,52,80.0
1127,C#6,173.167,83/1000,52,80.0
1128,E-6,173.333,83/1000,51,80.0
1129,D6,173.5,83/1000,50,80.0
1130,D6,173.667,83/1000,50,80.0
1131,E-6,173.833,83/1000,49,80.0
1132,E-6,174.0,83/1000,47,80.0
1133,G#4,174.0,0.5,35,80.0
1134,B3,174.0,0.5,35,80.0
1135,E-3,174.0,0.5,35,80.0
1136,G#2,174.0,0.5,35,80.0
1137,E-6,174.167,83/1000,47,80.0
1138,E-7,174.333,83/1000,46,80.0
1139,E6,174.5,83/1000,45,80.0
1140,E6,174.667,83/1000,45,80.0
1141,E-7,174.833,83/1000,45,80.0
1142,F6,175.0,83/1000,44,80.0
1143,F6,175.167,83/1000,44,80.0
1144,E-7,175.333,83/1000,43,80.0
1145,F#6,175.5,83/1000,41,80.0
1146,F#6,175.667,83/1000,41,80.0
1147,E-7,175.833,83/1000,40,80.0
1148,G6,176.0,83/1000,39,80.0
1149,G6,176.167,83/1000,39,80.0
1150,E-7,176.333,83/1000,37,80.0
1151,G#6,176.5,83/1000,36,80.0
1152,G#6,176.667,83/1000,36,80.0
1153,E-7,176.833,83/1000,36,80.0
1154,B4,178.0,0.5,41,80.0
1155,G#4,178.0,0.25,41,80.0
1156,B-4,178.25,0.25,43,80.0
1157,G4,178.25,0.25,43,80.0
1158,F#4,178.5,0.188,44,80.0
1159,B4,178.5,0.188,40,80.0
1160,A4,178.5,0.188,40,80.0
1161,F4,178.75,0.188,45,80.0
1162,B4,178.75,0.188,42,80.0
1163,G#4,178.75,0.188,42,80.0
1164,E4,179.0,0.188,45,80.0
1165,B4,179.0,0.188,42,80.0
1166,G4,179.0,0.188,42,80.0
1167,E-4,179.25,0.188,46,80.0
1168,B4,179.25,0.188,44,80.0
1169,F#4,179.25,0.188,44,80.0
1170,D4,179.5,0.188,47,80.0
1171,B4,179.5,0.188,45,80.0
1172,F4,179.5,0.188,45,80.0
1173,C#4,179.75,0.188,49,80.0
1174,B4,179.75,0.188,46,80.0
1175,E4,179.75,0.188,46,80.0
1176,C#5,180.0,0.125,57,80.0
1177,B4,180.125,0.125,50,80.0
1178,B-4,180.25,0.125,50,80.0
1179,B4,180.375,0.125,50,80.0
1180,F#4,180.5,0.5,54,80.0
1181,E-4,180.5,0.375,46,80.0
1182,B3,180.5,0.375,46,80.0
1183,F#5,180.625,14/125,50,80.0
1184,F#5,180.75,14/125,50,80.0
1185,F#5,180.875,14/125,50,80.0
1186,B4,181.0,0.5,54,80.0
1187,F#4,181.0,0.375,46,80.0
1188,E-4,181.0,0.375,46,80.0
1189,F#3,181.0,0.375,46,80.0
1190,B5,181.125,14/125,50,80.0
1191,B5,181.25,14/125,50,80.0
1192,B5,181.375,14/125,50,80.0
1193,C#5,181.5,0.5,54,80.0
1194,C#6,181.625,14/125,51,80.0
1195,C#6,181.75,14/125,51,80.0
1196,C#6,181.875,14/125,51,80.0
1197,F#5,182.0,0.5,54,80.0
1198,E4,182.0,0.375,44,80.0
1199,B-3,182.0,0.375,44,80.0
1200,F#6,182.125,14/125,51,80.0
1201,F#6,182.25,14/125,51,80.0
1202,F#6,182.375,14/125,51,80.0
1203,C#6,182.5,0.5,54,80.0
1204,F#4,182.5,0.375,43,80.0
1205,F#3,182.5,0.375,43,80.0
1206,B-3,182.5,0.375,43,80.0
1207,C#7,182.667,3/20,52,80.0
1208,F#6,182.667,3/20,52,80.0
1209,C#7,182.833,3/20,54,80.0
1210,F#6,182.833,3/20,54,80.0
1211,E-6,183.0,0.5,56,80.0
1212,B2,183.0,0.375,50,80.0
1213,E-7,183.167,3/20,54,80.0
1214,F#6,183.167,3/20,54,80.0
1215,E-7,183.333,3/20,54,80.0
1216,F#6,183.333,3/20,54,80.0
1217,B5,183.5,0.25,54,80.0
1218,E-4,183.5,0.25,43,80.0
1219,F#3,183.5,0.25,43,80.0
1220,E-5,184.0,0.5,41,80.0
1221,B4,184.0,0.5,41,80.0
1222,D5,184.25,0.25,43,80.0
1223,B-4,184.5,0.188,44,80.0
1224,E-5,184.5,0.188,40,80.0
1225,C#5,184.5,0.188,40,80.0
1226,A4,184.75,0.188,45,80.0
1227,E-5,184.75,0.188,42,80.0
1228,C5,184.75,0.188,42,80.0
1229,G#4,185.0,0.188,45,80.0
1230,E-5,185.0,0.188,42,80.0
1231,B4,185.0,0.188,42,80.0
1232,G4,185.25,0.188,46,80.0
1233,E-5,185.25,0.188,44,80.0
1234,B-4,185.25,0.188,44,80.0
1235,F#4,185.5,0.188,47,80.0
1236,E-5,185.5,0.188,45,80.0
1237,A4,185.5,0.188,45,80.0
1238,F4,185.75,0.188,49,80.0
1239,E-5,185.75,0.188,46,80.0
1240,G#4,185.75,0.188,46,80.0
1241,F5,186.0,0.125,56,80.0
1242,E-5,186.125,0.125,50,80.0
1243,D5,186.25,0.125,50,80.0
1244,E-5,186.375,0.125,50,80.0
1245,B-4,186.5,0.5,54,80.0
1246,F#4,186.5,0.375,46,80.0
1247,E-4,186.5,0.375,46,80.0
1248,B-5,186.625,14/125,50,80.0
1249,B-5,186.75,14/125,50,80.0
1250,B-5,186.875,14/125,50,80.0
1251,E-5,187.0,0.5,54,80.0
1252,B-4,187.0,0.375,46,80.0
1253,F#4,187.0,0.375,46,80.0
1254,B-3,187.0,0.375,46,80.0
1255,E-6,187.125,14/125,50,80.0
1256,E-6,187.25,14/125,50,80.0
1257,E-6,187.375,14/125,50,80.0
1258,F5,187.5,0.5,54,80.0
1259,F6,187.625,14/125,51,80.0
1260,F6,187.75,14/125,51,80.0
1261,F6,187.875,14/125,51,80.0
1262,B-5,188.0,0.5,54,80.0
1263,G#4,188.0,0.375,44,80.0
1264,D4,188.0,0.375,44,80.0
1265,B-6,188.125,14/125,51,80.0
1266,B-6,188.25,14/125,51,80.0
1267,B-6,188.375,14/125,51,80.0
1268,F6,188.5,0.5,54,80.0
1269,B-4,188.5,0.375,43,80.0
1270,B-3,188.5,0.375,43,80.0
1271,D4,188.5,0.375,43,80.0
1272,F7,188.667,3/20,52,80.0
1273,B-6,188.667,3/20,52,80.0
1274,F7,188.833,3/20,54,80.0
1275,B-6,188.833,3/20,54,80.0
1276,F#6,189.0,0.5,56,80.0
1277,E-3,189.0,0.375,50,80.0
1278,F#7,189.167,3/20,54,80.0
1279,B-6,189.167,3/20,54,80.0
1280,F#7,189.333,3/20,54,80.0
1281,B-6,189.333,3/20,54,80.0
1282,E-6,189.5,0.25,54,80.0
1283,F#4,189.5,0.25,43,80.0
1284,B-3,189.5,0.25,43,80.0
1285,F#5,190.0,0.5,41,80.0
1286,E-5,190.0,0.25,41,80.0
1287,F5,190.25,0.25,43,80.0
1288,D5,190.25,0.25,41,80.0
1289,C#5,190.5,0.188,44,80.0
1290,F#5,190.5,0.188,40,80.0
1291,E5,190.5,0.188,40,80.0
1292,C5,190.75,0.188,45,80.0
1293,F#5,190.75,0.188,42,80.0
1294,E-5,190.75,0.188,42,80.0
1295,B4,191.0,0.188,45,80.0
1296,F#5,191.0,0.188,42,80.0
1297,D5,191.0,0.188,42,80.0
1298,B-4,191.25,0.188,46,80.0
1299,F#5,191.25,0.188,44,80.0
1300,C#5,191.25,0.188,44,80.0
1301,A4,191.5,0.188,47,80.0
1302,F#5,191.5,0.188,45,80.0
1303,C5,191.5,0.188,45,80.0
1304,G#4,191.75,0.188,49,80.0
1305,F#5,191.75,0.188,46,80.0
1306,B4,191.75,0.188,46,80.0
1307,G#5,192.0,0.125,56,80.0
1308,F#5,192.125,0.125,50,80.0
1309,F5,192.25,0.125,50,80.0
1310,F#5,192.375,0.125,50,80.0
1311,C#5,192.5,0.5,54,80.0
1312,B-4,192.5,0.375,46,80.0
1313,F#4,192.5,0.375,46,80.0
1314,C#6,192.625,14/125,50,80.0
1315,C#6,192.75,14/125,50,80.0
1316,C#6,192.875,14/125,50,80.0
1317,F#5,193.0,0.5,54,80.0
1318,C#5,193.0,0.375,46,80.0
1319,B-4,193.0,0.375,46,80.0
1320,C#4,193.0,0.375,46,80.0
1321,F#6,193.125,14/125,50,80.0
1322,F#6,193.25,14/125,50,80.0
1323,F#6,193.375,14/125,50,80.0
1324,G#5,193.5,0.5,54,80.0
1325,G#6,193.625,14/125,51,80.0
1326,G#6,193.75,14/125,51,80.0
1327,G#6,193.875,14/125,51,80.0
1328,C#6,194.0,0.5,54,80.0
1329,B4,194.0,0.375,44,80.0
1330,F4,194.0,0.375,44,80.0
1331,C#7,194.167,3/20,54,80.0
1332,G#6,194.167,3/20,54,80.0
1333,C#7,194.333,3/20,54,80.0
1334,G#6,194.333,3/20,54,80.0
1335,C#7,194.5,3/20,54,80.0
1336,G#6,194.5,3/20,54,80.0
1337,C#5,194.5,0.375,43,80.0
1338,C#4,194.5,0.375,43,80.0
1339,F4,194.5,0.375,43,80.0
1340,G#6,194.667,3/20,52,80.0
1341,C#7,194.667,3/20,52,80.0
1342,G#6,194.833,3/20,54,80.0
1343,C#7,194.833,3/20,54,80.0
1344,C#7,195.0,0.125,40,80.0
1345,B-6,195.0,0.25,40,80.0
1346,F#4,195.0,0.5,55,80.0
1347,E-7,195.125,0.125,40,80.0
1348,C#7,195.25,0.125,39,80.0
1349,A6,195.25,0.25,39,80.0
1350,E-7,195.375,0.125,37,80.0
1351,C#7,195.5,0.125,37,80.0
1352,G#6,195.5,0.25,37,80.0
1353,F#5,195.5,0.188,46,80.0
1354,B-5,195.5,0.188,46,80.0
1355,E-7,195.625,0.125,36,80.0
1356,C#7,195.75,0.125,36,80.0
1357,G6,195.75,0.25,36,80.0
1358,G#5,195.75,0.188,46,80.0
1359,B5,195.75,0.188,46,80.0
1360,E-7,195.875,0.125,36,80.0
1361,C#7,196.0,0.125,35,80.0
1362,F#6,196.0,0.5,35,80.0
1363,B-5,196.0,0.375,48,80.0
1364,C#6,196.0,0.375,48,80.0
1365,E-7,196.125,0.125,35,80.0
1366,C#7,196.25,0.125,34,80.0
1367,E-7,196.375,0.125,34,80.0
1368,B6,196.5,0.125,37,80.0
1369,G#6,196.5,0.25,37,80.0
1370,B3,196.5,0.5,55,80.0
1371,C#7,196.625,0.125,37,80.0
1372,B6,196.75,0.125,36,80.0
1373,G6,196.75,0.25,36,80.0
1374,C#7,196.875,0.125,36,80.0
1375,B6,197.0,0.125,36,80.0
1376,F#6,197.0,0.25,36,80.0
1377,G#5,197.0,0.188,46,80.0
1378,B4,197.0,0.188,46,80.0
1379,C#7,197.125,0.125,36,80.0
1380,B6,197.25,0.125,35,80.0
1381,F6,197.25,0.25,35,80.0
1382,B-5,197.25,0.188,46,80.0
1383,C#5,197.25,0.188,46,80.0
1384,C#7,197.375,0.125,35,80.0
1385,B6,197.5,0.125,34,80.0
1386,E-6,197.5,0.5,34,80.0
1387,E-5,197.5,0.375,48,80.0
1388,B5,197.5,0.375,48,80.0
1389,C#7,197.625,0.125,34,80.0
1390,B6,197.75,0.125,33,80.0
1391,C#7,197.875,0.125,33,80.0
1392,B-6,198.0,0.125,37,80.0
1393,F#6,198.0,0.25,37,80.0
1394,C#4,198.0,0.5,55,80.0
1395,B6,198.125,0.125,37,80.0
1396,B-6,198.25,0.125,36,80.0
1397,F6,198.25,0.25,36,80.0
1398,B6,198.375,0.125,36,80.0
1399,B-6,198.5,0.125,36,80.0
1400,E-6,198.5,0.25,36,80.0
1401,B-4,198.5,0.188,46,80.0
1402,F#5,198.5,0.188,46,80.0
1403,B6,198.625,0.125,36,80.0
1404,B-6,198.75,0.125,36,80.0
1405,D6,198.75,0.25,36,80.0
1406,B4,198.75,0.188,46,80.0
1407,G#5,198.75,0.188,46,80.0
1408,B6,198.875,0.125,35,80.0
1409,B-6,199.0,0.125,35,80.0
1410,C#6,199.0,0.5,35,80.0
1411,C#5,199.0,0.375,48,80.0
1412,B-5,199.0,0.375,48,80.0
1413,B6,199.125,0.125,34,80.0
1414,B-6,199.25,0.125,34,80.0
1415,B6,199.375,0.125,32,80.0
1416,G#6,199.5,0.125,37,80.0
1417,F6,199.5,0.25,37,80.0
1418,C#4,199.5,0.5,55,80.0
1419,B-6,199.625,0.125,37,80.0
1420,G#6,199.75,0.125,36,80.0
1421,E-6,199.75,0.25,36,80.0
1422,B-6,199.875,0.125,36,80.0
1423,G#6,200.0,0.125,35,80.0
1424,D6,200.0,0.25,35,80.0
1425,F5,200.0,0.188,46,80.0
1426,G#4,200.0,0.188,46,80.0
1427,B-6,200.125,0.125,34,80.0
1428,G#6,200.25,0.125,33,80.0
1429,C#6,200.25,0.25,33,80.0
1430,B-4,200.25,0.188,46,80.0
1431,F#5,200.25,0.188,46,80.0
1432,B-6,200.375,0.125,32,80.0
1433,G#6,200.5,0.125,32,80.0
1434,B5,200.5,0.5,32,80.0
1435,B4,200.5,0.375,48,80.0
1436,G#5,200.5,0.375,48,80.0
1437,E-6,200.625,0.125,36,80.0
1438,E6,200.75,0.125,39,80.0
1439,F6,200.875,0.125,41,80.0
1440,F#6,201.0,0.125,43,80.0
1441,B-5,201.0,0.5,55,80.0
1442,C#5,201.0,0.5,55,80.0
1443,F#4,201.0,0.5,55,80.0
1444,G#6,201.125,0.125,43,80.0
1445,F#6,201.25,0.125,43,80.0
1446,G#6,201.375,0.125,43,80.0
1447,F#5,201.5,0.5,59,80.0
1448,F#6,201.625,0.125,45,80.0
1449,G#6,201.75,0.125,45,80.0
1450,F#6,201.875,0.125,45,80.0
1451,G5,202.0,0.5,60,80.0
1452,G6,202.125,0.125,47,80.0
1453,G#6,202.25,0.125,47,80.0
1454,G6,202.375,0.125,47,80.0
1455,G#5,202.5,0.5,63,80.0
1456,G#6,202.625,0.125,51,80.0
1457,A6,202.75,0.125,51,80.0
1458,G#6,202.875,0.125,50,80.0
1459,E4,202.958,229/500,49,80.0
1460,G#5,202.958,229/500,49,80.0
1461,A6,203.0,0.125,50,80.0
1462,G#6,203.125,0.125,49,80.0
1463,A6,203.25,0.125,49,80.0
1464,G#6,203.375,0.125,47,80.0
1465,E-4,203.458,0.5,50,80.0
1466,F#5,203.458,0.5,50,80.0
1467,A6,203.5,1/10,47,80.0
1468,G#6,203.6,1/10,46,80.0
1469,A6,203.7,1/10,46,80.0
1470,G#6,203.8,1/10,45,80.0
1471,A6,203.9,1/10,45,80.0
1472,G#6,204.0,0.125,45,80.0
1473,C#4,204.0,0.5,49,80.0
1474,E5,204.0,0.5,49,80.0
1475,A6,204.125,0.125,45,80.0
1476,G#6,204.25,0.125,45,80.0
1477,A6,204.375,0.125,45,80.0
1478,G#6,204.5,0.125,51,80.0
1479,F#7,204.5,0.375,61,80.0
1480,E-6,204.5,0.375,55,80.0
1481,A6,204.625,0.125,51,80.0
1482,G#6,204.75,0.125,51,80.0
1483,A6,204.875,0.125,51,80.0
1484,G#6,205.0,0.125,47,80.0
1485,E7,205.0,0.375,60,80.0
1486,C#6,205.0,0.375,55,80.0
1487,A6,205.125,0.125,47,80.0
1488,G#6,205.25,0.125,47,80.0
1489,A6,205.375,0.125,47,80.0
1490,G#6,205.5,0.125,51,80.0
1491,E-7,205.5,0.375,61,80.0
1492,G#4,205.5,0.5,37,80.0
1493,C6,205.5,0.375,59,80.0
1494,A6,205.625,0.125,51,80.0
1495,G#6,205.75,0.125,51,80.0
1496,A6,205.875,0.125,51,80.0
1497,G#6,206.0,0.125,47,80.0
1498,C#7,206.0,0.375,57,80.0
1499,B-5,206.0,0.375,55,80.0
1500,A6,206.125,0.125,47,80.0
1501,G#6,206.25,0.125,47,80.0
1502,A6,206.375,0.125,46,80.0
1503,G#6,206.5,0.125,46,80.0
1504,E-7,206.5,0.375,55,80.0
1505,C6,206.5,0.375,54,80.0
1506,A6,206.625,0.125,46,80.0
1507,G#6,206.75,0.125,45,80.0
1508,A6,206.875,0.125,45,80.0
1509,G#6,207.0,0.125,46,80.0
1510,E7,207.0,0.375,56,80.0
1511,C#5,207.0,0.5,39,80.0
1512,C#6,207.0,0.375,51,80.0
1513,A6,207.125,0.125,46,80.0
1514,G#6,207.25,0.125,45,80.0
1515,A6,207.375,0.125,45,80.0
1516,E6,207.5,0.25,47,80.0
1517,G#6,207.5,0.25,51,80.0
1518,C#7,207.5,0.25,51,80.0
1519,G5,208.0,0.5,60,80.0
1520,G6,208.125,0.125,47,80.0
1521,A6,208.25,0.125,47,80.0
1522,G6,208.375,0.125,47,80.0
1523,F#5,208.5,0.5,63,80.0
1524,F#6,208.625,0.125,51,80.0
1525,G#6,208.75,0.125,51,80.0
1526,F#6,208.875,0.125,50,80.0
1527,G#6,209.0,0.125,50,80.0
1528,E-4,209.0,0.5,49,80.0
1529,F#5,209.0,0.5,49,80.0
1530,F#6,209.125,0.125,49,80.0
1531,G#6,209.25,0.125,49,80.0
1532,F#6,209.375,0.125,47,80.0
1533,G#6,209.5,1/10,47,80.0
1534,C#4,209.5,0.5,48,80.0
1535,E5,209.5,0.5,48,80.0
1536,F#6,209.6,1/10,46,80.0
1537,G#6,209.7,1/10,46,80.0
1538,F#6,209.8,1/10,45,80.0
1539,G#6,209.9,1/10,45,80.0
1540,F#6,210.0,0.125,45,80.0
1541,B3,210.0,0.5,49,80.0
1542,E-5,210.0,0.5,49,80.0
1543,G#6,210.125,0.125,45,80.0
1544,F#6,210.25,0.125,45,80.0
1545,G#6,210.375,0.125,45,80.0
1546,F#6,210.5,0.125,51,80.0
1547,E7,210.5,0.375,61,80.0
1548,C#6,210.5,0.375,55,80.0
1549,G#6,210.625,0.125,51,80.0
1550,F#6,210.75,0.125,51,80.0
1551,G#6,210.875,0.125,51,80.0
1552,F#6,211.0,0.125,47,80.0
1553,E-7,211.0,0.375,60,80.0
1554,B5,211.0,0.375,55,80.0
1555,G#6,211.125,0.125,47,80.0
1556,F#6,211.25,0.125,47,80.0
1557,G#6,211.375,0.125,47,80.0
1558,F#6,211.5,0.125,51,80.0
1559,C#7,211.5,0.375,61,80.0
1560,F#4,211.5,0.5,37,80.0
1561,B-5,211.5,0.375,59,80.0
1562,G#6,211.625,0.125,51,80.0
1563,F#6,211.75,0.125,51,80.0
1564,G#6,211.875,0.125,51,80.0
1565,F#6,212.0,0.125,47,80.0
1566,B6,212.0,0.375,57,80.0
1567,G#5,212.0,0.375,55,80.0
1568,G#6,212.125,0.125,47,80.0
1569,F#6,212.25,0.125,47,80.0
1570,G#6,212.375,0.125,46,80.0
1571,F#6,212.5,0.125,46,80.0
1572,C#7,212.5,0.375,55,80.0
1573,B-5,212.5,0.375,54,80.0
1574,G#6,212.625,0.125,46,80.0
1575,F#6,212.75,0.125,45,80.0
1576,G#6,212.875,0.125,45,80.0
1577,F#6,213.0,0.125,46,80.0
1578,E-7,213.0,0.375,56,80.0
1579,B4,213.0,0.5,39,80.0
1580,B5,213.0,0.375,51,80.0
1581,G#6,213.125,0.125,46,80.0
1582,F#6,213.25,0.125,46,80.0
1583,G#6,213.375,0.125,46,80.0
1584,E-6,213.5,0.25,47,80.0
1585,F#6,213.5,0.25,51,80.0
1586,B6,213.5,0.25,51,80.0
1587,D5,214.0,0.5,57,80.0
1588,D6,214.125,0.125,47,80.0
1589,E-6,214.25,0.125,47,80.0
1590,D6,214.375,0.125,47,80.0
1591,E-5,214.5,0.5,57,80.0
1592,E-6,214.625,0.125,51,80.0
1593,E6,214.75,0.125,50,80.0
1594,E-6,214.875,0.125,50,80.0
1595,E6,215.0,0.125,49,80.0
1596,E-4,215.0,0.5,42,80.0
1597,G4,215.0,0.5,42,80.0
1598,E-5,215.0,0.5,42,80.0
1599,E-6,215.125,0.125,49,80.0
1600,E6,215.25,0.125,47,80.0
1601,E-6,215.375,0.125,47,80.0
1602,E6,215.5,0.125,46,80.0
1603,F4,215.5,0.5,39,80.0
1604,G#4,215.5,0.5,39,80.0
1605,D5,215.5,0.5,39,80.0
1606,E-6,215.625,0.125,46,80.0
1607,E6,215.75,0.125,45,80.0
1608,E-6,215.875,0.125,45,80.0
1609,E6,216.0,0.094,43,80.0
1610,G4,216.0,0.5,36,80.0
1611,B-4,216.0,0.5,36,80.0
1612,C#5,216.0,0.5,36,80.0
1613,E-6,216.094,0.094,44,80.0
1614,D6,216.188,0.094,45,80.0
1615,E-6,216.281,0.094,45,80.0
1616,E6,216.375,0.094,46,80.0
1617,F6,216.469,0.094,47,80.0
1618,F#6,216.562,0.094,49,80.0
1619,G6,216.656,0.094,49,80.0
1620,G#6,216.75,0.094,51,80.0
1621,A6,216.844,0.094,52,80.0
1622,B-6,216.938,0.094,54,80.0
1623,B6,217.031,0.094,55,80.0
1624,C7,217.125,0.094,56,80.0
1625,C#7,217.219,0.094,57,80.0
1626,D7,217.312,0.094,59,80.0
1627,E-7,217.406,0.094,60,80.0
1628,E7,217.5,1/10,61,80.0
1629,G#4,217.5,0.5,44,80.0
1630,B4,217.5,0.5,44,80.0
1631,E5,217.5,0.5,44,80.0
1632,F#7,217.6,1/10,60,80.0
1633,E7,217.7,1/10,60,80.0
1634,E-7,217.8,1/10,59,80.0
1635,D7,217.9,1/10,57,80.0
1636,C#7,218.0,1/10,56,80.0
1637,C7,218.1,1/10,55,80.0
1638,B6,218.2,1/10,54,80.0
1639,B-6,218.3,1/10,54,80.0
1640,A6,218.4,1/10,52,80.0
1641,G#6,218.5,1/10,51,80.0
1642,G6,218.6,1/10,50,80.0
1643,F#6,218.7,1/10,49,80.0
1644,F6,218.8,1/10,47,80.0
1645,E-4,218.875,0.125,39,80.0
1646,E6,218.9,1/10,46,80.0
1647,E-6,219.0,0.5,46,80.0
1648,G5,219.0,0.5,49,80.0
1649,E-4,219.0,0.5,39,80.0
1650,B-4,219.5,0.5,57,80.0
1651,B-5,219.625,0.125,47,80.0
1652,B5,219.75,0.125,47,80.0
1653,B-5,219.875,0.125,47,80.0
1654,D5,220.0,0.5,57,80.0
1655,D6,220.125,0.125,47,80.0
1656,E-6,220.25,0.125,47,80.0
1657,D6,220.375,0.125,47,80.0
1658,E-5,220.5,0.5,57,80.0
1659,E-6,220.625,0.125,51,80.0
1660,E6,220.75,0.125,50,80.0
1661,E-6,220.875,0.125,50,80.0
1662,E6,221.0,0.125,49,80.0
1663,E-4,221.0,0.5,42,80.0
1664,G4,221.0,0.5,42,80.0
1665,E-5,221.0,0.5,42,80.0
1666,E-6,221.125,0.125,49,80.0
1667,E6,221.25,0.125,47,80.0
1668,E-6,221.375,0.125,47,80.0
1669,E6,221.5,0.125,46,80.0
1670,F4,221.5,0.5,39,80.0
1671,G#4,221.5,0.5,39,80.0
1672,D5,221.5,0.5,39,80.0
1673,E-6,221.625,0.125,46,80.0
1674,E6,221.75,0.125,45,80.0
1675,E-6,221.875,0.125,45,80.0
1676,E6,222.0,0.094,43,80.0
1677,G4,222.0,0.5,36,80.0
1678,B-4,222.0,0.5,36,80.0
1679,C#5,222.0,0.5,36,80.0
1680,E-6,222.094,0.094,44,80.0
1681,D6,222.188,0.094,45,80.0
1682,E-6,222.281,0.094,45,80.0
1683,E6,222.375,0.094,46,80.0
1684,F6,222.469,0.094,47,80.0
1685,F#6,222.562,0.094,49,80.0
1686,G6,222.656,0.094,49,80.0
1687,G#6,222.75,0.094,51,80.0
1688,A6,222.844,0.094,52,80.0
1689,B-6,222.938,0.094,54,80.0
1690,B6,223.031,0.094,55,80.0
1691,C7,223.125,0.094,56,80.0
1692,C#7,223.219,0.094,57,80.0
1693,D7,223.312,0.094,59,80.0
1694,E-7,223.406,0.094,60,80.0
1695,E7,223.5,1/10,61,80.0
1696,G#4,223.5,0.5,44,80.0
1697,B4,223.5,0.5,44,80.0
1698,E5,223.5,0.5,44,80.0
1699,F#7,223.6,1/10,60,80.0
1700,E7,223.7,1/10,60,80.0
1701,E-7,223.8,1/10,59,80.0
1702,D7,223.9,1/10,57,80.0
1703,C#7,224.0,1/10,56,80.0
1704,C7,224.1,1/10,55,80.0
1705,B6,224.2,1/10,54,80.0
1706,B-6,224.3,1/10,54,80.0
1707,A6,224.4,1/10,52,80.0
1708,G#6,224.5,1/10,51,80.0
1709,G6,224.6,1/10,50,80.0
1710,F#6,224.7,1/10,49,80.0
1711,F6,224.8,1/10,47,80.0
1712,E6,224.9,1/10,46,80.0
1713,E-6,225.0,0.094,43,80.0
1714,G5,225.0,0.5,36,80.0
1715,E-4,225.0,0.5,36,80.0
1716,B-4,225.0,0.5,36,80.0
1717,E6,225.094,0.094,43,80.0
1718,E-6,225.188,11/125,44,80.0
1719,D6,225.275,11/125,45,80.0
1720,E-6,225.363,11/125,45,80.0
1721,E6,225.45,11/125,46,80.0
1722,F6,225.537,11/125,47,80.0
1723,F#6,225.625,11/125,49,80.0
1724,G6,225.713,11/125,50,80.0
1725,G#6,225.8,11/125,51,80.0
1726,A6,225.887,11/125,52,80.0
1727,B-6,225.975,11/125,54,80.0
1728,B6,226.062,11/125,55,80.0
1729,C7,226.15,11/125,56,80.0
1730,C#7,226.238,11/125,57,80.0
1731,D7,226.325,11/125,59,80.0
1732,E-7,226.412,11/125,60,80.0
1733,E7,226.498,1/10,61,80.0
1734,G#3,226.5,0.5,45,80.0
1735,B4,226.5,0.5,45,80.0
1736,F#7,226.598,1/10,60,80.0
1737,E7,226.698,1/10,60,80.0
1738,E-7,226.798,1/10,59,80.0
1739,D7,226.898,1/10,57,80.0
1740,C#7,226.998,1/10,56,80.0
1741,C7,227.098,1/10,55,80.0
1742,B6,227.198,1/10,54,80.0
1743,B-6,227.298,1/10,54,80.0
1744,A6,227.398,1/10,52,80.0
1745,G#6,227.498,1/10,51,80.0
1746,G6,227.598,1/10,50,80.0
1747,F#6,227.698,1/10,49,80.0
1748,F6,227.798,1/10,47,80.0
1749,E6,227.898,1/10,46,80.0
1750,E-6,228.0,0.094,43,80.0
1751,E-3,228.0,0.5,39,80.0
1752,G4,228.0,0.5,39,80.0
1753,E6,228.094,0.094,43,80.0
1754,E-6,228.188,11/125,44,80.0
1755,D6,228.275,11/125,45,80.0
1756,E-6,228.363,11/125,45,80.0
1757,E6,228.45,11/125,46,80.0
1758,F6,228.537,11/125,47,80.0
1759,F#6,228.625,11/125,49,80.0
1760,G6,228.713,11/125,50,80.0
1761,G#6,228.8,11/125,51,80.0
1762,A6,228.887,11/125,52,80.0
1763,B-6,228.975,11/125,54,80.0
1764,B6,229.062,11/125,55,80.0
1765,C7,229.15,11/125,56,80.0
1766,C#7,229.238,11/125,57,80.0
1767,D7,229.325,11/125,59,80.0
1768,E-7,229.412,11/125,60,80.0
1769,E7,229.5,0.125,67,80.0
1770,G#2,229.5,0.5,63,80.0
1771,B3,229.5,0.5,63,80.0
1772,F#7,229.625,0.125,63,80.0
1773,E7,229.75,0.125,63,80.0
1774,E-7,229.875,0.125,63,80.0
1775,D7,230.0,0.125,67,80.0
1776,E-7,230.125,0.125,63,80.0
1777,D7,230.25,0.125,63,80.0
1778,C#7,230.375,0.125,63,80.0
1779,C7,230.5,0.125,67,80.0
1780,C#7,230.625,0.125,63,80.0
1781,C7,230.75,0.125,63,80.0
1782,B6,230.875,0.125,63,80.0
1783,B-6,231.0,0.125,67,80.0
1784,B6,231.133,0.125,63,80.0
1785,B-6,231.24,0.125,63,80.0
1786,A6,231.385,0.125,63,80.0
1787,G#6,231.502,0.125,67,80.0
1788,A6,231.615,0.125,63,80.0
1789,G#6,231.75,0.125,63,80.0
1790,G6,231.869,0.125,63,80.0
1791,F#6,232.008,0.125,62,80.0
1792,G6,232.127,0.125,61,80.0
1793,F#6,232.254,0.125,61,80.0
1794,F6,232.369,0.125,61,80.0
1795,E6,232.508,0.125,61,80.0
1796,F#6,232.617,0.125,59,80.0
1797,E6,232.742,0.125,59,80.0
1798,E-6,232.881,0.125,59,80.0
1799,D6,232.996,0.125,60,80.0
1800,E-6,233.135,0.125,56,80.0
1801,D6,233.246,0.125,56,80.0
1802,C#6,233.371,0.125,56,80.0
1803,C6,233.492,0.125,59,80.0
1804,C#6,233.631,0.125,56,80.0
1805,C6,233.758,0.125,56,80.0
1806,B5,233.879,0.125,56,80.0
1807,B-5,234.002,0.125,57,80.0
1808,B5,234.131,0.125,54,80.0
1809,B-5,234.244,0.125,54,80.0
1810,A5,234.367,0.125,54,80.0
1811,G#5,234.49,0.125,56,80.0
1812,A5,234.615,0.125,54,80.0
1813,G#5,234.756,0.125,54,80.0
1814,G5,234.883,0.125,54,80.0
1815,F#5,234.994,0.125,55,80.0
1816,G5,235.117,0.125,52,80.0
1817,F#5,235.252,0.125,52,80.0
1818,F5,235.365,0.125,52,80.0
1819,E5,235.492,1/125,55,80.0
1820,E5,235.5,117/1000,55,80.0
1821,F#5,235.623,0.125,52,80.0
1822,E5,235.756,0.125,52,80.0
1823,E-5,235.879,0.125,52,80.0
1824,D5,236.0,0.125,54,80.0
1825,E-5,236.115,0.125,51,80.0
1826,D5,236.248,0.125,51,80.0
1827,C#5,236.369,0.125,51,80.0
1828,C5,236.504,0.125,54,80.0
1829,C#5,236.621,0.125,50,80.0
1830,C5,236.748,0.125,50,80.0
1831,B4,236.869,0.125,50,80.0
1832,B-4,237.002,0.125,52,80.0
1833,B4,237.125,0.125,49,80.0
1834,B-4,237.252,0.125,49,80.0
1835,A4,237.367,0.125,49,80.0
1836,G#4,237.5,0.125,51,80.0
1837,A4,237.635,0.125,47,80.0
1838,G#4,237.754,0.125,47,80.0
1839,G4,237.885,0.125,47,80.0
1840,F#4,237.994,0.125,50,80.0
1841,G4,238.121,0.125,46,80.0
1842,F#4,238.242,0.125,46,80.0
1843,G2,238.25,0.25,41,80.0
1844,B-3,238.375,0.125,41,80.0
1845,F4,238.385,23/200,46,80.0
1846,E4,238.5,0.125,46,80.0
1847,F4,238.5,1/100,46,80.0
1848,C#4,238.5,0.5,51,80.0
1849,G2,238.5,0.5,41,80.0
1850,B-3,238.5,0.5,41,80.0
1851,D4,238.635,0.125,46,80.0
1852,E4,238.742,0.125,46,80.0
1853,E-4,238.877,0.125,46,80.0
1854,F4,238.992,0.125,46,80.0
1855,E4,239.123,0.125,46,80.0
1856,F#4,239.26,0.125,46,80.0
1857,F4,239.365,0.125,46,80.0
1858,G4,239.508,0.125,46,80.0
1859,F#4,239.621,0.125,46,80.0
1860,G#4,239.744,0.125,46,80.0
1861,G4,239.881,0.125,46,80.0
1862,A4,239.998,0.125,46,80.0
1863,G#4,240.119,0.125,46,80.0
1864,B-4,240.252,0.125,46,80.0
1865,A4,240.377,0.125,46,80.0
1866,B4,240.498,0.125,46,80.0
1867,B-4,240.625,0.125,46,80.0
1868,C5,240.752,0.125,46,80.0
1869,B4,240.877,0.125,46,80.0
1870,C#5,241.008,0.125,46,80.0
1871,C5,241.133,0.125,46,80.0
1872,D5,241.252,0.125,46,80.0
1873,C#5,241.379,121/1000,46,80.0
1874,C#5,241.5,1/250,46,80.0
1875,E-5,241.502,0.125,46,80.0
1876,D5,241.623,0.125,46,80.0
1877,E5,241.744,0.125,46,80.0
1878,E-5,241.881,0.125,46,80.0
1879,F5,242.002,0.125,45,80.0
1880,E5,242.133,0.125,45,80.0
1881,F#5,242.244,0.125,45,80.0
1882,F5,242.369,0.125,46,80.0
1883,G5,242.502,0.125,47,80.0
1884,F#5,242.629,0.125,49,80.0
1885,G#5,242.752,0.125,49,80.0
1886,G5,242.871,0.125,50,80.0
1887,A5,243.0,0.125,51,80.0
1888,G#5,243.115,0.125,52,80.0
1889,B-5,243.256,0.125,54,80.0
1890,A5,243.377,0.125,54,80.0
1891,B5,243.502,0.125,54,80.0
1892,B-5,243.629,0.125,55,80.0
1893,C6,243.756,0.125,56,80.0
1894,B5,243.867,0.125,57,80.0
1895,C#6,244.002,0.125,57,80.0
1896,C6,244.133,0.125,59,80.0
1897,D6,244.26,0.125,60,80.0
1898,C#6,244.377,123/1000,61,80.0
1899,C#6,244.5,1/500,61,80.0
1900,E-6,244.506,0.125,62,80.0
1901,D6,244.615,0.125,63,80.0
1902,E6,244.754,0.125,63,80.0
1903,E-6,244.885,0.125,64,80.0
1904,F6,244.996,0.125,65,80.0
1905,E6,245.127,0.125,66,80.0
1906,F#6,245.246,0.125,67,80.0
1907,F6,245.367,0.125,67,80.0
1908,G6,245.492,0.125,69,80.0
1909,F#6,245.633,0.125,70,80.0
1910,G#6,245.758,0.125,71,80.0
1911,G6,245.881,0.125,72,80.0
1912,A6,245.992,0.125,72,80.0
1913,G#6,246.121,0.125,72,80.0
1914,B-6,246.24,0.125,73,80.0
1915,A6,246.365,0.125,75,80.0
1916,B6,246.504,0.125,76,80.0
1917,B-6,246.633,0.125,77,80.0
1918,C7,246.75,0.125,77,80.0
1919,B6,246.873,0.125,79,80.0
1920,C#7,246.998,0.125,80,80.0
1921,C7,247.121,0.125,81,80.0
1922,D7,247.25,0.125,81,80.0
1923,C#7,247.375,0.125,81,80.0
1924,E-7,247.492,1/125,83,80.0
1925,E-7,247.5,117/1000,83,80.0
1926,D7,247.621,0.125,77,80.0
1927,E7,247.756,0.125,83,80.0
1928,D7,247.871,0.125,77,80.0
1929,E-7,248.008,0.125,83,80.0
1930,D7,248.135,0.125,79,80.0
1931,E7,248.258,0.125,83,80.0
1932,D7,248.379,0.125,79,80.0
1933,E-7,248.496,0.125,83,80.0
1934,D7,248.635,0.125,79,80.0
1935,E7,248.742,0.125,83,80.0
1936,D7,248.865,0.125,79,80.0
1937,E-7,249.006,0.125,81,80.0
1938,D7,249.125,0.125,75,80.0
1939,E7,249.252,0.125,76,80.0
1940,D7,249.385,0.125,72,80.0
1941,E-7,249.49,0.125,72,80.0
1942,D7,249.633,0.125,73,80.0
1943,E7,249.754,0.125,73,80.0
1944,D7,249.871,0.125,73,80.0
1945,E-7,249.992,0.125,71,80.0
1946,D7,250.125,0.125,70,80.0
1947,E7,250.244,0.125,67,80.0
1948,D7,250.371,0.125,65,80.0
1949,E-7,250.51,0.125,61,80.0
1950,E7,250.627,0.125,61,80.0
1951,E-7,250.754,0.125,61,80.0
1952,E7,250.867,0.125,61,80.0
1953,E-7,251.0,0.125,61,80.0
1954,E7,251.123,0.125,62,80.0
1955,E-7,251.25,0.125,65,80.0
1956,E7,251.381,0.125,67,80.0
1957,E-7,251.5,0.125,71,80.0
1958,E7,251.623,0.125,72,80.0
1959,E-7,251.754,0.125,75,80.0
1960,E7,251.875,0.125,79,80.0
1961,E-7,252.002,0.125,81,80.0
1962,E7,252.123,0.125,82,80.0
1963,E-7,252.24,0.125,84,80.0
1964,E7,252.379,0.125,89,80.0
1965,E-7,252.492,0.125,90,80.0
1966,E7,252.627,0.125,90,80.0
1967,E-7,252.758,0.125,93,80.0
1968,E7,252.875,0.125,92,80.0
1969,E-7,253.006,0.125,96,80.0
1970,E7,253.125,0.125,93,80.0
1971,E-7,253.248,0.125,99,80.0
1972,E7,253.381,119/1000,94,80.0
1973,E7,253.5,3/500,94,80.0
1974,E-7,253.502,0.125,99,80.0
1975,E7,253.621,0.125,92,80.0
1976,E-7,253.76,0.125,99,80.0
1977,E7,253.877,0.125,92,80.0
1978,E-7,253.992,0.125,99,80.0
1979,E7,254.123,0.125,99,80.0
1980,E-7,254.242,0.125,99,80.0
1981,E7,254.381,0.125,94,80.0
1982,E-7,254.51,0.125,99,80.0
1983,E7,254.627,0.125,93,80.0
1984,E-7,254.74,0.125,99,80.0
1985,E7,254.871,0.125,93,80.0
1986,E-7,254.99,0.125,99,80.0
1987,E7,255.129,0.125,92,80.0
1988,E-7,255.242,0.125,95,80.0
1989,E7,255.383,0.125,92,80.0
1990,E-7,255.508,0.125,90,80.0
1991,E7,255.627,0.125,86,80.0
1992,E-7,255.754,0.125,82,80.0
1993,E7,255.883,0.125,79,80.0
1994,E-7,255.99,0.125,75,80.0
1995,E7,256.117,0.125,72,80.0
1996,E-7,256.254,0.125,69,80.0
1997,E7,256.377,123/1000,65,80.0
1998,E-7,256.494,3/500,59,80.0
1999,E-7,256.5,119/1000,59,80.0
2000,E7,256.5,1/500,65,80.0
2001,E7,256.615,0.125,54,80.0
2002,E-7,256.742,0.125,57,80.0
2003,E7,256.877,0.125,56,80.0
2004,E-7,256.996,0.125,56,80.0
2005,E7,257.121,0.125,53,80.0
2006,E-7,257.248,0.125,55,80.0
2007,E7,257.379,0.125,52,80.0
2008,E-5,257.5,0.375,48,80.0
2009,E-7,257.506,0.125,47,80.0
2010,E7,257.631,0.125,44,80.0
2011,E-7,257.75,0.125,46,80.0
2012,E7,257.877,0.125,44,80.0
2013,E-6,258.0,0.5,51,80.0
2014,E-7,258.006,0.125,46,80.0
2015,E7,258.133,0.125,45,80.0
2016,E-7,258.242,0.125,46,80.0
2017,E7,258.377,0.125,43,80.0
2018,E-7,258.494,0.125,46,80.0
2019,E-6,258.5,0.5,57,80.0
2020,E7,258.617,0.125,44,80.0
2021,E-7,258.758,0.125,46,80.0
2022,E7,258.865,0.125,45,80.0
2023,E-6,258.998,0.25,46,80.0
2024,C#6,259.0,0.375,48,80.0
2025,E-7,259.002,0.125,46,80.0
2026,E7,259.121,0.125,46,80.0
2027,E-7,259.252,0.125,46,80.0
2028,E7,259.369,0.125,44,80.0
2029,E-7,259.492,1/125,46,80.0
2030,E-6,259.496,1/250,29,80.0
2031,E-7,259.5,117/1000,46,80.0
2032,E-6,259.5,123/500,29,80.0
2033,G#4,259.5,0.5,30,80.0
2034,B5,259.5,0.375,50,80.0
2035,E7,259.631,0.125,44,80.0
2036,E-7,259.742,0.125,46,80.0
2037,E7,259.871,0.125,44,80.0
2038,B5,260.0,0.375,35,80.0
2039,E-6,260.006,0.25,29,80.0
2040,E-7,260.008,0.125,46,80.0
2041,E7,260.131,0.125,44,80.0
2042,E-7,260.256,0.125,46,80.0
2043,E7,260.377,0.125,46,80.0
2044,E-6,260.496,0.25,29,80.0
2045,B-5,260.5,0.375,43,80.0
2046,E-7,260.508,0.125,46,80.0
2047,E7,260.619,0.125,44,80.0
2048,E-7,260.758,0.125,46,80.0
2049,E7,260.869,0.125,45,80.0
2050,E-6,260.994,0.25,29,80.0
2051,E-7,261.0,0.125,46,80.0
2052,G#5,261.0,0.375,40,80.0
2053,B4,261.0,0.5,40,80.0
2054,E7,261.135,0.125,44,80.0
2055,E-7,261.24,0.125,46,80.0
2056,E7,261.365,0.125,45,80.0
2057,E-7,261.498,0.125,46,80.0
2058,E-6,261.5,0.25,29,80.0
2059,G5,261.5,0.375,26,80.0
2060,E7,261.617,0.125,44,80.0
2061,E-7,261.744,0.125,46,80.0
2062,E7,261.883,0.125,44,80.0
2063,E-7,261.992,0.125,46,80.0
2064,E-6,261.994,0.25,29,80.0
2065,G#5,262.0,0.375,41,80.0
2066,E7,262.117,0.125,44,80.0
2067,E-7,262.26,0.125,47,80.0
2068,E7,262.365,0.125,44,80.0
2069,E-7,262.49,1/100,47,80.0
2070,E-6,262.49,1/100,30,80.0
2071,E-7,262.5,23/200,47,80.0
2072,E-6,262.5,6/25,30,80.0
2073,G5,262.5,0.5,45,80.0
2074,B-5,262.5,0.5,45,80.0
2075,E7,262.621,0.125,43,80.0
2076,E-7,262.76,0.125,47,80.0
2077,E7,262.873,0.125,44,80.0
2078,E-6,262.998,0.25,30,80.0
2079,E-5,263.0,0.375,28,80.0
2080,E-7,263.01,0.125,47,80.0
2081,E7,263.133,0.125,45,80.0
2082,E-7,263.25,0.125,47,80.0
2083,E7,263.383,0.125,43,80.0
2084,E-7,263.498,0.125,47,80.0
2085,E-5,263.5,0.375,37,80.0
2086,E-6,263.504,0.25,29,80.0
2087,E7,263.619,0.125,45,80.0
2088,E-7,263.74,0.125,47,80.0
2089,E7,263.875,0.125,45,80.0
2090,E-7,263.998,0.125,47,80.0
2091,E5,264.0,0.375,42,80.0
2092,B-4,264.0,0.5,42,80.0
2093,G4,264.0,0.5,42,80.0
2094,E-6,264.01,0.25,29,80.0
2095,E7,264.119,0.125,47,80.0
2096,E-7,264.252,0.125,47,80.0
2097,E7,264.369,0.125,45,80.0
2098,E-5,264.5,0.375,35,80.0
2099,E-6,264.504,0.25,29,80.0
2100,E-7,264.51,0.125,46,80.0
2101,E7,264.623,0.125,44,80.0
2102,E-7,264.758,0.125,46,80.0
2103,E7,264.865,0.125,44,80.0
2104,C#5,265.0,0.375,29,80.0
2105,E-7,265.002,0.125,46,80.0
2106,E-6,265.01,0.25,29,80.0
2107,E7,265.131,0.125,43,80.0
2108,E-7,265.252,0.125,46,80.0
2109,E7,265.367,0.125,45,80.0
2110,E-6,265.494,3/500,29,80.0
2111,E-7,265.498,1/500,46,80.0
2112,E-6,265.5,61/250,29,80.0
2113,E-7,265.5,123/1000,46,80.0
2114,G#4,265.5,0.375,36,80.0
2115,B4,265.5,0.375,36,80.0
2116,E7,265.615,0.125,44,80.0
2117,E-7,265.748,0.125,46,80.0
2118,E7,265.865,0.125,43,80.0
2119,B4,266.0,0.375,35,80.0
2120,G#4,266.0,0.375,35,80.0
2121,E-6,266.004,0.25,29,80.0
2122,E-7,266.008,0.125,45,80.0
2123,E7,266.115,0.125,43,80.0
2124,E-7,266.256,0.125,45,80.0
2125,E7,266.379,0.125,43,80.0
2126,F#4,266.5,0.375,34,80.0
2127,B-4,266.5,0.375,34,80.0
2128,E-6,266.504,0.25,27,80.0
2129,E-7,266.506,0.125,45,80.0
2130,E7,266.625,0.125,42,80.0
2131,E-7,266.754,0.125,45,80.0
2132,E7,266.867,0.125,41,80.0
2133,G#4,267.0,0.375,37,80.0
2134,E4,267.0,0.375,37,80.0
2135,E-6,267.004,0.25,27,80.0
2136,E-7,267.006,0.125,44,80.0
2137,E7,267.131,0.125,40,80.0
2138,E-7,267.24,0.125,44,80.0
2139,E7,267.383,0.125,41,80.0
2140,G4,267.5,0.375,28,80.0
2141,E-6,267.504,0.25,27,80.0
2142,E-7,267.504,0.125,44,80.0
2143,E7,267.615,0.125,40,80.0
2144,E-7,267.752,0.125,43,80.0
2145,E7,267.885,0.125,39,80.0
2146,E-6,267.99,0.25,27,80.0
2147,E-7,267.996,0.125,43,80.0
2148,G#4,268.0,0.375,29,80.0
2149,E7,268.117,0.125,39,80.0
2150,E-7,268.26,0.125,41,80.0
2151,E7,268.377,123/1000,36,80.0
2152,E-6,268.496,1/250,25,80.0
2153,E-6,268.5,123/500,25,80.0
2154,E7,268.5,1/500,36,80.0
2155,G4,268.5,0.5,32,80.0
2156,B-4,268.5,0.5,32,80.0
2157,E-7,268.51,0.125,44,80.0
2158,E7,268.623,0.125,40,80.0
2159,E-7,268.754,0.125,45,80.0
2160,E7,268.869,0.125,40,80.0
2161,E-6,268.992,0.25,25,80.0
2162,E-7,268.994,0.125,45,80.0
2163,E-4,269.0,0.5,36,80.0
2164,E7,269.125,0.125,42,80.0
2165,E-7,269.258,0.125,45,80.0
2166,E7,269.367,0.125,41,80.0
2167,E-7,269.498,0.125,46,80.0
2168,E-6,269.508,0.25,25,80.0
2169,E7,269.615,0.125,43,80.0
2170,E-7,269.756,0.125,46,80.0
2171,E7,269.867,0.125,44,80.0
2172,E-4,269.875,0.125,40,80.0
2173,E-5,270.0,0.375,50,80.0
2174,E-7,270.006,0.125,46,80.0
2175,E-6,270.01,0.25,29,80.0
2176,E7,270.133,0.125,43,80.0
2177,E-7,270.244,0.125,46,80.0
2178,E7,270.375,0.125,43,80.0
2179,E-6,270.49,0.25,29,80.0
2180,E-5,270.5,0.375,46,80.0
2181,E-7,270.506,0.125,46,80.0
2182,E7,270.617,0.125,43,80.0
2183,E-7,270.748,0.125,46,80.0
2184,E7,270.871,0.125,43,80.0
2185,E-7,270.99,0.125,46,80.0
2186,C#5,271.0,0.375,45,80.0
2187,E-6,271.01,0.25,29,80.0
2188,E7,271.119,0.125,43,80.0
2189,E-7,271.244,0.125,46,80.0
2190,E7,271.369,0.125,43,80.0
2191,E-7,271.5,0.125,44,80.0
2192,G#3,271.5,0.5,42,80.0
2193,B4,271.5,0.375,54,80.0
2194,E7,271.625,0.125,49,80.0
2195,E-7,271.75,0.125,49,80.0
2196,E-6,271.875,14/125,49,80.0
2197,E-6,272.0,0.125,40,80.0
2198,B4,272.0,0.375,50,80.0
2199,E6,272.125,0.125,40,80.0
2200,E-6,272.25,0.125,40,80.0
2201,E-5,272.375,0.125,40,80.0
2202,E-6,272.5,167/1000,40,80.0
2203,B-4,272.5,0.375,51,80.0
2204,E6,272.667,167/1000,40,80.0
2205,E-6,272.833,167/1000,40,80.0
2206,E-7,273.0,0.125,47,80.0
2207,B3,273.0,0.5,37,80.0
2208,G#4,273.0,0.375,54,80.0
2209,E7,273.125,0.125,47,80.0
2210,E-7,273.25,0.125,47,80.0
2211,E-6,273.375,14/125,47,80.0
2212,E-6,273.5,0.125,41,80.0
2213,G4,273.5,0.375,50,80.0
2214,E6,273.625,0.125,40,80.0
2215,E-6,273.75,0.125,40,80.0
2216,E-5,273.875,0.125,40,80.0
2217,E-6,274.0,167/1000,40,80.0
2218,G#4,274.0,0.375,51,80.0
2219,E6,274.167,167/1000,40,80.0
2220,E-6,274.333,167/1000,40,80.0
2221,E-7,274.5,0.125,49,80.0
2222,G4,274.5,0.5,52,80.0
2223,B-4,274.5,0.5,52,80.0
2224,E7,274.625,0.125,49,80.0
2225,E-7,274.75,0.125,49,80.0
2226,E-6,274.875,14/125,49,80.0
2227,E-6,275.0,0.125,40,80.0
2228,E-4,275.0,0.375,54,80.0
2229,E6,275.125,0.125,40,80.0
2230,E-6,275.25,0.125,40,80.0
2231,E-5,275.375,0.125,40,80.0
2232,E-6,275.5,167/1000,40,80.0
2233,E-4,275.5,0.375,54,80.0
2234,E6,275.667,167/1000,40,80.0
2235,E-6,275.833,167/1000,40,80.0
2236,E-7,276.0,0.125,47,80.0
2237,G#4,276.0,0.375,45,80.0
2238,B3,276.0,0.375,45,80.0
2239,E7,276.125,0.125,47,80.0
2240,E-7,276.25,0.125,47,80.0
2241,E-6,276.375,14/125,47,80.0
2242,E-6,276.5,0.125,41,80.0
2243,F#4,276.5,0.375,44,80.0
2244,C4,276.5,0.375,44,80.0
2245,E6,276.625,0.125,41,80.0
2246,E-6,276.75,0.125,41,80.0
2247,E-5,276.875,0.125,41,80.0
2248,E-6,277.0,167/1000,41,80.0
2249,E4,277.0,0.375,43,80.0
2250,C#4,277.0,0.375,43,80.0
2251,E6,277.167,167/1000,41,80.0
2252,E-6,277.333,167/1000,41,80.0
2253,E-7,277.5,0.125,45,80.0
2254,E-4,277.5,0.5,59,80.0
2255,E7,277.625,0.125,45,80.0
2256,E-7,277.75,0.125,45,80.0
2257,E-6,277.875,0.125,45,80.0
2258,G#5,278.0,0.25,45,80.0
2259,B4,278.0,0.25,45,80.0
2260,E-5,278.25,0.25,41,80.0
2261,B5,278.25,0.25,41,80.0
2262,E-6,278.5,0.375,46,80.0
2263,G#5,278.5,0.375,46,80.0
2264,E-7,279.0,0.125,45,80.0
2265,E-4,279.0,0.5,52,80.0
2266,E7,279.125,0.125,44,80.0
2267,E-7,279.25,0.125,44,80.0
2268,E-6,279.375,0.125,44,80.0
2269,G5,279.5,0.25,40,80.0
2270,B-4,279.5,0.25,40,80.0
2271,C#5,279.75,0.25,36,80.0
2272,B-5,279.75,0.25,36,80.0
2273,E-6,280.0,0.375,40,80.0
2274,G5,280.0,0.375,40,80.0
2275,G#3,280.5,0.5,52,80.0
2276,E-4,280.75,0.125,40,80.0
2277,B4,280.875,0.125,40,80.0
2278,G#5,281.0,0.25,46,80.0
2279,E-5,281.5,0.5,54,80.0
2280,E-6,281.625,0.125,43,80.0
2281,E6,281.75,0.125,43,80.0
2282,E-6,281.875,0.125,43,80.0
2283,E-6,282.0,0.25,60,80.0
2284,E-7,282.125,0.125,46,80.0
2285,E7,282.25,0.125,46,80.0
2286,E-7,282.375,0.125,46,80.0
2287,E-6,282.5,0.25,60,80.0
2288,E-7,282.625,0.125,44,80.0
2289,E7,282.75,0.125,44,80.0
2290,E-7,282.875,0.125,44,80.0
2291,C#6,283.0,0.25,55,80.0
2292,C#7,283.125,0.125,44,80.0
2293,E-7,283.25,0.125,44,80.0
2294,C#7,283.375,0.125,45,80.0
2295,B5,283.5,0.25,59,80.0
2296,G#1,283.5,0.5,47,80.0
2297,G#2,283.5,0.5,47,80.0
2298,B6,283.625,0.125,45,80.0
2299,C#7,283.75,0.125,45,80.0
2300,B6,283.875,0.125,46,80.0
2301,B5,284.0,0.25,54,80.0
2302,E-3,284.0,0.25,41,80.0
2303,E-4,284.0,0.25,41,80.0
2304,B3,284.0,0.25,41,80.0
2305,B6,284.125,0.125,40,80.0
2306,C#7,284.25,0.125,41,80.0
2307,B6,284.375,0.125,41,80.0
2308,B-5,284.5,0.25,55,80.0
2309,E-4,284.5,0.25,41,80.0
2310,B3,284.5,0.25,41,80.0
2311,G#3,284.5,0.25,41,80.0
2312,B-6,284.625,0.125,40,80.0
2313,B6,284.75,0.125,40,80.0
2314,B-6,284.875,0.125,41,80.0
2315,G#5,285.0,0.25,59,80.0
2316,B1,285.0,0.5,45,80.0
2317,B2,285.0,0.5,45,80.0
2318,G#6,285.125,0.125,41,80.0
2319,B-6,285.25,0.125,41,80.0
2320,G#6,285.375,0.125,41,80.0
2321,G5,285.5,0.25,59,80.0
2322,E-4,285.5,0.25,41,80.0
2323,B3,285.5,0.25,41,80.0
2324,E-3,285.5,0.25,41,80.0
2325,G6,285.625,0.125,41,80.0
2326,G#6,285.75,0.125,41,80.0
2327,G6,285.875,0.125,41,80.0
2328,G#5,286.0,0.25,63,80.0
2329,E-4,286.0,0.25,41,80.0
2330,B3,286.0,0.25,41,80.0
2331,G#3,286.0,0.25,41,80.0
2332,G#6,286.125,0.125,43,80.0
2333,B-6,286.25,0.125,43,80.0
2334,G#6,286.375,0.125,44,80.0
2335,B-5,286.5,0.5,67,80.0
2336,E-2,286.5,0.5,46,80.0
2337,E-3,286.5,0.5,46,80.0
2338,B-6,286.625,0.125,51,80.0
2339,B6,286.75,0.125,51,80.0
2340,B-6,286.875,0.125,51,80.0
2341,E-5,287.0,0.375,59,80.0
2342,G4,287.0,0.375,41,80.0
2343,E-4,287.0,0.375,41,80.0
2344,G3,287.0,0.375,41,80.0
2345,E-6,287.125,0.125,44,80.0
2346,E6,287.25,0.125,44,80.0
2347,E-6,287.375,0.125,44,80.0
2348,E-5,287.5,0.5,59,80.0
2349,G4,287.5,0.375,41,80.0
2350,E-4,287.5,0.375,41,80.0
2351,B-3,287.5,0.375,41,80.0
2352,E-6,287.625,0.125,44,80.0
2353,E6,287.75,0.125,44,80.0
2354,E-6,287.875,0.125,45,80.0
2355,E5,288.0,0.375,62,80.0
2356,G2,288.0,0.5,51,80.0
2357,E6,288.125,0.125,45,80.0
2358,F#6,288.25,0.125,45,80.0
2359,E6,288.375,0.125,45,80.0
2360,E-5,288.5,0.375,56,80.0
2361,C#4,288.5,0.375,39,80.0
2362,E-4,288.5,0.375,39,80.0
2363,B-4,288.5,0.375,39,80.0
2364,E-6,288.625,0.125,43,80.0
2365,E6,288.75,0.125,43,80.0
2366,E-6,288.875,0.125,43,80.0
2367,C#5,289.0,0.375,56,80.0
2368,B-3,289.0,0.375,39,80.0
2369,E-4,289.0,0.375,39,80.0
2370,B-4,289.0,0.375,39,80.0
2371,C#6,289.125,0.125,43,80.0
2372,E-6,289.25,0.125,43,80.0
2373,C#6,289.375,0.125,43,80.0
2374,B4,289.5,0.438,60,80.0
2375,G#2,289.5,0.5,47,80.0
2376,B5,289.625,0.125,43,80.0
2377,C#6,289.75,0.125,43,80.0
2378,B5,289.875,0.125,43,80.0
2379,B4,290.0,0.375,54,80.0
2380,G#4,290.0,0.375,38,80.0
2381,E-4,290.0,0.375,38,80.0
2382,B5,290.125,0.125,39,80.0
2383,C#6,290.25,0.125,39,80.0
2384,B5,290.375,0.125,39,80.0
2385,B-4,290.5,0.375,54,80.0
2386,E-4,290.5,0.375,38,80.0
2387,B3,290.5,0.375,38,80.0
2388,B-5,290.625,0.125,41,80.0
2389,B5,290.75,0.125,41,80.0
2390,B-5,290.875,0.125,43,80.0
2391,G#4,291.0,0.375,60,80.0
2392,E2,291.0,0.5,46,80.0
2393,G#5,291.125,0.125,45,80.0
2394,B-5,291.25,0.125,46,80.0
2395,G#5,291.375,0.125,46,80.0
2396,G4,291.5,0.375,54,80.0
2397,D4,291.5,0.375,36,80.0
2398,B3,291.5,0.375,36,80.0
2399,G5,291.625,0.125,43,80.0
2400,G#5,291.75,0.125,43,80.0
2401,G5,291.875,0.125,43,80.0
2402,G#4,292.0,0.375,52,80.0
2403,D4,292.0,0.375,36,80.0
2404,B-3,292.0,0.375,36,80.0
2405,G#5,292.125,0.125,41,80.0
2406,B-5,292.25,0.125,41,80.0
2407,G#5,292.375,0.125,41,80.0
2408,B-4,292.5,0.5,54,80.0
2409,E-2,292.5,0.5,43,80.0
2410,B-5,292.625,0.125,43,80.0
2411,B5,292.75,0.125,43,80.0
2412,B-5,292.875,0.125,43,80.0
2413,E-4,293.0,0.25,49,80.0
2414,G3,293.0,0.5,36,80.0
2415,B-3,293.0,0.5,36,80.0
2416,E-5,293.125,0.125,37,80.0
2417,E5,293.25,0.125,37,80.0
2418,E-5,293.375,0.125,37,80.0
2419,E-5,293.5,0.5,59,80.0
2420,B-4,293.5,0.5,34,80.0
2421,G4,293.5,0.5,34,80.0
2422,E-6,293.625,0.125,43,80.0
2423,E6,293.75,0.125,43,80.0
2424,E-6,293.875,0.125,43,80.0
2425,E-6,294.0,0.375,64,80.0
2426,B-5,294.0,0.5,40,80.0
2427,G5,294.0,0.5,40,80.0
2428,E-7,294.125,0.125,52,80.0
2429,E7,294.25,0.125,52,80.0
2430,E-7,294.375,0.125,52,80.0
2431,E-6,294.5,0.375,63,80.0
2432,E-7,294.625,0.125,49,80.0
2433,E7,294.75,0.125,49,80.0
2434,E-7,294.875,0.125,49,80.0
2435,C#6,295.0,0.375,63,80.0
2436,C#7,295.125,0.125,49,80.0
2437,E-7,295.25,0.125,49,80.0
2438,C#7,295.375,0.125,49,80.0
2439,C6,295.5,0.375,62,80.0
2440,G#2,295.5,0.5,43,80.0
2441,C7,295.625,0.125,50,80.0
2442,C#7,295.75,0.125,50,80.0
2443,C7,295.875,0.125,50,80.0
2444,C6,296.0,0.375,60,80.0
2445,F#4,296.0,0.375,37,80.0
2446,E-4,296.0,0.375,37,80.0
2447,A3,296.0,0.375,37,80.0
2448,C7,296.125,0.125,47,80.0
2449,C#7,296.25,0.125,47,80.0
2450,C7,296.375,0.125,47,80.0
2451,A5,296.5,0.375,59,80.0
2452,C4,296.5,0.375,37,80.0
2453,E-4,296.5,0.375,37,80.0
2454,F#4,296.5,0.375,37,80.0
2455,A6,296.625,0.125,46,80.0
2456,B6,296.75,0.125,46,80.0
2457,A6,296.875,0.125,46,80.0
2458,G#5,297.0,0.375,62,80.0
2459,C3,297.0,0.5,43,80.0
2460,G#6,297.125,0.125,46,80.0
2461,A6,297.25,0.125,46,80.0
2462,G#6,297.375,0.125,46,80.0
2463,G#5,297.5,0.375,59,80.0
2464,F#4,297.5,0.375,37,80.0
2465,E-4,297.5,0.375,37,80.0
2466,A3,297.5,0.375,37,80.0
2467,G#6,297.625,0.125,45,80.0
2468,A6,297.75,0.125,45,80.0
2469,G#6,297.875,0.125,45,80.0
2470,F#5,298.0,0.375,57,80.0
2471,C4,298.0,0.375,37,80.0
2472,E-4,298.0,0.375,37,80.0
2473,F#4,298.0,0.375,37,80.0
2474,F#6,298.125,0.125,41,80.0
2475,G#6,298.25,0.125,41,80.0
2476,F#6,298.375,0.125,41,80.0
2477,E5,298.5,0.5,55,80.0
2478,E3,298.5,0.5,43,80.0
2479,E6,298.625,0.125,44,80.0
2480,F#6,298.75,0.125,44,80.0
2481,E6,298.875,0.125,44,80.0
2482,C#5,299.0,0.5,51,80.0
2483,E4,299.0,0.5,34,80.0
2484,A4,299.0,0.5,34,80.0
2485,C#6,299.125,0.125,40,80.0
2486,E-6,299.25,0.125,40,80.0
2487,C#6,299.375,0.125,40,80.0
2488,E-5,299.5,0.5,54,80.0
2489,C4,299.5,0.5,38,80.0
2490,A4,299.5,0.5,38,80.0
2491,E-6,299.625,0.125,41,80.0
2492,E6,299.75,0.125,41,80.0
2493,E-6,299.875,0.125,41,80.0
2494,E5,300.0,0.5,55,80.0
2495,C#4,300.0,0.5,42,80.0
2496,A4,300.0,0.5,42,80.0
2497,E6,300.125,0.125,45,80.0
2498,F#6,300.25,0.125,45,80.0
2499,E6,300.375,0.125,45,80.0
2500,E-5,300.5,0.5,52,80.0
2501,F#4,300.5,0.5,36,80.0
2502,A4,300.5,0.5,36,80.0
2503,E-6,300.625,0.125,40,80.0
2504,E6,300.75,0.125,40,80.0
2505,E-6,300.875,0.125,40,80.0
2506,C#5,301.0,0.5,49,80.0
2507,E4,301.0,0.5,34,80.0
2508,A4,301.0,0.5,34,80.0
2509,C#6,301.125,0.125,37,80.0
2510,E-6,301.25,0.125,37,80.0
2511,C#6,301.375,0.125,37,80.0
2512,E-5,301.492,1/125,43,80.0
2513,E-5,301.5,117/1000,43,80.0
2514,B4,301.5,0.5,41,80.0
2515,G#4,301.5,0.5,41,80.0
2516,E-4,301.5,0.5,41,80.0
2517,E-6,301.627,0.125,43,80.0
2518,E5,301.758,0.125,44,80.0
2519,F5,301.885,0.125,44,80.0
2520,F#5,301.994,0.125,45,80.0
2521,G5,302.131,0.125,45,80.0
2522,G#5,302.254,0.125,45,80.0
2523,A5,302.379,0.125,45,80.0
2524,B-5,302.51,0.125,46,80.0
2525,B5,302.625,0.125,47,80.0
2526,C6,302.76,0.125,47,80.0
2527,C#6,302.879,0.125,49,80.0
2528,D6,302.992,0.125,49,80.0
2529,E-6,303.127,0.125,50,80.0
2530,E6,303.252,0.125,50,80.0
2531,F6,303.373,0.125,51,80.0
2532,F#6,303.51,0.125,52,80.0
2533,G6,303.625,0.125,52,80.0
2534,G#6,303.752,0.125,54,80.0
2535,A6,303.875,0.125,54,80.0
2536,B-6,303.994,0.125,54,80.0
2537,B6,304.123,0.125,54,80.0
2538,C7,304.246,0.125,55,80.0
2539,C#7,304.365,0.125,56,80.0
2540,G4,304.5,0.5,43,80.0
2541,C#4,304.5,0.5,43,80.0
2542,E-3,304.5,0.5,43,80.0
2543,D7,304.506,73/500,57,80.0
2544,E-7,304.64,73/500,59,80.0
2545,F#7,304.781,27/200,63,80.0
2546,E7,304.925,27/200,62,80.0
2547,C#7,305.065,27/200,61,80.0
2548,B-6,305.188,27/200,60,80.0
2549,G6,305.327,27/200,57,80.0
2550,D6,305.46,27/200,56,80.0
2551,E-6,305.608,27/200,55,80.0
2552,F#6,305.738,27/200,61,80.0
2553,E6,305.877,27/200,60,80.0
2554,C#6,306.015,27/200,59,80.0
2555,B-5,306.144,27/200,57,80.0
2556,G5,306.285,27/200,60,80.0
2557,E5,306.415,27/200,55,80.0
2558,C#5,306.56,27/200,54,80.0
2559,B-4,306.69,27/200,51,80.0
2560,G4,306.817,27/200,49,80.0
2561,E4,306.969,27/200,47,80.0
2562,C#4,307.102,27/200,45,80.0
2563,B-3,307.227,27/200,44,80.0
2564,G3,307.375,0.125,41,80.0
2565,G3,307.5,1/100,41,80.0
2566,G#2,307.5,167/1000,41,80.0
2567,E-3,307.667,167/1000,41,80.0
2568,G#3,307.833,167/1000,41,80.0
2569,B3,308.0,167/1000,41,80.0
2570,E-4,308.167,167/1000,41,80.0
2571,G#4,308.333,167/1000,41,80.0
2572,B4,308.5,167/1000,41,80.0
2573,E-5,308.667,167/1000,41,80.0
2574,G#5,308.833,167/1000,41,80.0
2575,B4,309.0,167/1000,41,80.0
2576,E-5,309.167,167/1000,41,80.0
2577,B5,309.333,167/1000,45,80.0
2578,G#5,309.5,0.5,40,80.0
2579,G#4,310.25,0.188,33,80.0
2580,B5,310.25,0.188,37,80.0
2581,B4,310.25,0.188,37,80.0
2582,B5,310.5,0.188,41,80.0
2583,B4,310.5,0.188,41,80.0
2584,G4,310.5,0.188,36,80.0
2585,B-4,310.5,0.188,36,80.0
2586,B5,310.75,0.188,45,80.0
2587,B4,310.75,0.188,45,80.0
2588,F#4,310.75,0.188,37,80.0
2589,A4,310.75,0.188,37,80.0
2590,B4,311.0,0.188,47,80.0
2591,B5,311.0,0.188,47,80.0
2592,F4,311.0,0.188,41,80.0
2593,G#4,311.0,0.188,41,80.0
2594,B5,311.25,0.188,51,80.0
2595,B4,311.25,0.188,51,80.0
2596,E4,311.25,0.188,45,80.0
2597,G4,311.25,0.188,45,80.0
2598,B5,311.5,0.188,66,80.0
2599,B2,311.5,0.188,47,80.0
2600,F#4,311.75,0.188,49,80.0
2601,E-4,311.75,0.188,34,80.0
2602,B4,312.0,0.188,55,80.0
2603,F#5,312.0,0.188,55,80.0
2604,F#3,312.0,0.188,38,80.0
2605,B3,312.0,0.188,38,80.0
2606,F#4,312.25,0.188,49,80.0
2607,E-4,312.25,0.188,34,80.0
2608,B5,312.5,0.188,64,80.0
2609,B2,312.5,0.188,44,80.0
2610,F#4,312.75,0.188,49,80.0
2611,E-4,312.75,0.188,34,80.0
2612,C#6,313.0,0.188,71,80.0
2613,F#2,313.0,0.188,45,80.0
2614,F#4,313.25,0.188,49,80.0
2615,E4,313.25,0.188,33,80.0
2616,C#5,313.5,0.188,59,80.0
2617,F#5,313.5,0.188,59,80.0
2618,F#3,313.5,0.188,40,80.0
2619,B-3,313.5,0.188,40,80.0
2620,F#4,313.75,0.188,49,80.0
2621,E4,313.75,0.188,36,80.0
2622,C#6,314.0,0.188,70,80.0
2623,F#2,314.0,0.188,46,80.0
2624,F#4,314.25,0.188,50,80.0
2625,E4,314.25,0.188,36,80.0
2626,E-6,314.5,0.25,73,80.0
2627,B2,314.5,0.25,47,80.0
2628,F#4,314.75,0.188,60,80.0
2629,E-4,314.75,0.188,39,80.0
2630,E-5,315.0,0.188,60,80.0
2631,F#3,315.0,0.188,39,80.0
2632,B5,315.25,0.188,59,80.0
2633,B2,315.25,0.188,37,80.0
2634,E-6,315.5,0.188,57,80.0
2635,F#2,315.5,0.188,36,80.0
2636,B6,315.75,0.188,62,80.0
2637,B1,315.75,0.188,36,80.0
2638,B4,316.25,0.188,33,80.0
2639,E-6,316.25,0.188,37,80.0
2640,E-5,316.25,0.188,37,80.0
2641,E-6,316.5,0.188,41,80.0
2642,E-5,316.5,0.188,41,80.0
2643,B4,316.5,0.188,36,80.0
2644,D5,316.5,0.188,36,80.0
2645,E-6,316.75,0.188,45,80.0
2646,E-5,316.75,0.188,45,80.0
2647,B-4,316.75,0.188,37,80.0
2648,C#5,316.75,0.188,37,80.0
2649,E-6,317.0,0.188,47,80.0
2650,E-5,317.0,0.188,47,80.0
2651,A4,317.0,0.188,41,80.0
2652,C5,317.0,0.188,41,80.0
2653,E-6,317.25,0.188,51,80.0
2654,E-5,317.25,0.188,51,80.0
2655,G#4,317.25,0.188,45,80.0
2656,B4,317.25,0.188,45,80.0
2657,E-6,317.5,0.188,70,80.0
2658,E-3,317.5,0.188,47,80.0
2659,B-4,317.75,0.188,49,80.0
2660,F#4,317.75,0.188,34,80.0
2661,E-5,318.0,0.188,55,80.0
2662,B-5,318.0,0.188,55,80.0
2663,B-3,318.0,0.188,38,80.0
2664,E-4,318.0,0.188,38,80.0
2665,B-4,318.25,0.188,49,80.0
2666,F#4,318.25,0.188,34,80.0
2667,E-6,318.5,0.188,70,80.0
2668,E-3,318.5,0.188,44,80.0
2669,B-4,318.75,0.188,49,80.0
2670,F#4,318.75,0.188,34,80.0
2671,F6,319.0,0.188,76,80.0
2672,B-2,319.0,0.188,45,80.0
2673,B-4,319.25,0.188,49,80.0
2674,G#4,319.25,0.188,33,80.0
2675,F5,319.5,0.188,59,80.0
2676,B-5,319.5,0.188,59,80.0
2677,B-3,319.5,0.188,40,80.0
2678,D4,319.5,0.188,40,80.0
2679,B-4,319.75,0.188,49,80.0
2680,G#4,319.75,0.188,36,80.0
2681,F6,320.0,0.188,72,80.0
2682,B-2,320.0,0.188,46,80.0
2683,B-4,320.25,0.188,50,80.0
2684,G#4,320.25,0.188,36,80.0
2685,F#6,320.5,0.25,79,80.0
2686,E-3,320.5,0.25,47,80.0
2687,B-4,320.75,0.188,60,80.0
2688,F#4,320.75,0.188,39,80.0
2689,F#5,321.0,0.188,60,80.0
2690,B-3,321.0,0.188,39,80.0
2691,E-6,321.25,0.188,59,80.0
2692,E-3,321.25,0.188,37,80.0
2693,F#6,321.5,0.188,59,80.0
2694,B-2,321.5,0.188,37,80.0
2695,E-7,321.75,0.188,62,80.0
2696,E-2,321.75,0.188,36,80.0
2697,E-5,322.25,0.188,33,80.0
2698,F#6,322.25,0.188,37,80.0
2699,F#5,322.25,0.188,37,80.0
2700,F#6,322.5,0.188,41,80.0
2701,F#5,322.5,0.188,41,80.0
2702,D5,322.5,0.188,36,80.0
2703,F5,322.5,0.188,36,80.0
2704,F#6,322.75,0.188,45,80.0
2705,F#5,322.75,0.188,45,80.0
2706,C#5,322.75,0.188,37,80.0
2707,E5,322.75,0.188,37,80.0
2708,F#6,323.0,0.188,47,80.0
2709,F#5,323.0,0.188,47,80.0
2710,C5,323.0,0.188,41,80.0
2711,E-5,323.0,0.188,41,80.0
2712,F#6,323.25,0.188,51,80.0
2713,F#5,323.25,0.188,51,80.0
2714,B4,323.25,0.188,45,80.0
2715,D5,323.25,0.188,45,80.0
2716,F#6,323.5,0.188,70,80.0
2717,F#3,323.5,0.188,47,80.0
2718,C#5,323.75,0.188,49,80.0
2719,B-4,323.75,0.188,34,80.0
2720,F#5,324.0,0.188,55,80.0
2721,C#6,324.0,0.188,55,80.0
2722,C#4,324.0,0.188,38,80.0
2723,F#4,324.0,0.188,38,80.0
2724,C#5,324.25,0.188,49,80.0
2725,B-4,324.25,0.188,34,80.0
2726,F#6,324.5,0.188,70,80.0
2727,F#3,324.5,0.188,44,80.0
2728,C#5,324.75,0.188,49,80.0
2729,B-4,324.75,0.188,34,80.0
2730,G#6,325.0,0.188,76,80.0
2731,C#3,325.0,0.188,45,80.0
2732,C#5,325.25,0.188,49,80.0
2733,B4,325.25,0.188,33,80.0
2734,G#5,325.5,0.188,59,80.0
2735,C#6,325.5,0.188,59,80.0
2736,C#4,325.5,0.188,40,80.0
2737,F4,325.5,0.188,40,80.0
2738,C#5,325.75,0.188,49,80.0
2739,B4,325.75,0.188,36,80.0
2740,G#6,326.0,0.188,72,80.0
2741,C#3,326.0,0.188,46,80.0
2742,C#5,326.25,0.188,50,80.0
2743,B4,326.25,0.188,36,80.0
2744,F#3,326.5,0.5,46,80.0
2745,B-6,326.5,0.188,44,80.0
2746,F#6,326.5,0.188,44,80.0
2747,C#6,326.5,0.188,44,80.0
2748,B6,326.75,0.188,47,80.0
2749,G#6,326.75,0.188,47,80.0
2750,C#6,326.75,0.188,47,80.0
2751,C#4,327.0,0.188,45,80.0
2752,C#7,327.0,0.188,52,80.0
2753,B-6,327.0,0.188,52,80.0
2754,C#6,327.0,0.188,52,80.0
2755,B-4,327.25,0.188,45,80.0
2756,C#7,327.25,0.188,52,80.0
2757,B-6,327.25,0.188,52,80.0
2758,C#6,327.25,0.188,52,80.0
2759,F#5,327.5,0.188,43,80.0
2760,B6,327.5,0.188,50,80.0
2761,G#6,327.5,0.188,50,80.0
2762,C#6,327.5,0.188,50,80.0
2763,B-5,327.75,0.188,41,80.0
2764,B-6,327.75,0.188,47,80.0
2765,F#6,327.75,0.188,47,80.0
2766,C#6,327.75,0.188,47,80.0
2767,B2,328.0,0.5,40,80.0
2768,G#6,328.0,0.188,46,80.0
2769,E-6,328.0,0.188,46,80.0
2770,B5,328.0,0.188,46,80.0
2771,B-6,328.25,0.188,50,80.0
2772,E-6,328.25,0.188,50,80.0
2773,C#6,328.25,0.188,50,80.0
2774,B3,328.5,0.188,43,80.0
2775,E-6,328.5,0.188,54,80.0
2776,B6,328.5,0.188,54,80.0
2777,G#4,328.75,0.188,41,80.0
2778,B6,328.75,0.188,54,80.0
2779,E-6,328.75,0.188,54,80.0
2780,E-5,329.0,0.188,41,80.0
2781,B-6,329.0,0.188,47,80.0
2782,E-6,329.0,0.188,47,80.0
2783,C#6,329.0,0.188,47,80.0
2784,G#5,329.25,0.188,40,80.0
2785,G#6,329.25,0.188,45,80.0
2786,E-6,329.25,0.188,45,80.0
2787,B5,329.25,0.188,45,80.0
2788,C#3,329.5,0.5,45,80.0
2789,F#6,329.5,0.188,45,80.0
2790,C#6,329.5,0.188,45,80.0
2791,B-5,329.5,0.188,45,80.0
2792,B5,329.75,0.188,47,80.0
2793,C#6,329.75,0.188,47,80.0
2794,G#6,329.75,0.188,47,80.0
2795,B-3,330.0,0.188,43,80.0
2796,B-6,330.0,0.188,52,80.0
2797,C#6,330.0,0.188,52,80.0
2798,F#4,330.25,0.188,41,80.0
2799,C#6,330.25,0.188,52,80.0
2800,B-6,330.25,0.188,52,80.0
2801,C#5,330.5,0.188,40,80.0
2802,C#6,330.5,0.188,49,80.0
2803,B5,330.5,0.188,49,80.0
2804,G#6,330.5,0.188,49,80.0
2805,F#5,330.75,0.188,37,80.0
2806,F#6,330.75,0.188,46,80.0
2807,C#6,330.75,0.188,46,80.0
2808,B-5,330.75,0.188,46,80.0
2809,C#4,331.0,0.5,47,80.0
2810,G#5,331.0,0.188,45,80.0
2811,C#6,331.0,0.188,45,80.0
2812,F6,331.0,0.188,45,80.0
2813,F#6,331.25,0.188,46,80.0
2814,C#6,331.25,0.188,46,80.0
2815,B-5,331.25,0.188,46,80.0
2816,F5,331.5,0.188,43,80.0
2817,B5,331.5,0.188,50,80.0
2818,C#6,331.5,0.188,50,80.0
2819,G#6,331.5,0.188,50,80.0
2820,G#4,331.75,0.188,41,80.0
2821,B5,331.75,0.188,50,80.0
2822,C#6,331.75,0.188,50,80.0
2823,G#6,331.75,0.188,50,80.0
2824,C#4,332.0,0.188,40,80.0
2825,F#5,332.0,0.188,47,80.0
2826,E-6,332.0,0.188,47,80.0
2827,C#6,332.0,0.188,47,80.0
2828,B4,332.25,0.188,39,80.0
2829,F6,332.25,0.188,45,80.0
2830,C#6,332.25,0.188,45,80.0
2831,G#5,332.25,0.188,45,80.0
2832,F#6,332.5,0.5,50,80.0
2833,C#6,332.5,0.5,50,80.0
2834,F#5,332.5,0.5,50,80.0
2835,F#4,332.5,0.5,46,80.0
2836,B-4,332.5,0.5,46,80.0
2837,F#2,333.0,0.188,61,80.0
2838,F#3,333.0,0.188,61,80.0
2839,F#2,333.25,0.188,64,80.0
2840,F#3,333.25,0.188,64,80.0
2841,G2,333.5,0.188,66,80.0
2842,G3,333.5,0.188,66,80.0
2843,G2,333.75,0.188,70,80.0
2844,G3,333.75,0.188,70,80.0
2845,G#2,334.0,0.188,71,80.0
2846,G#3,334.0,0.188,71,80.0
2847,G#2,334.25,0.188,71,80.0
2848,G#3,334.25,0.188,71,80.0
2849,G#3,334.5,0.188,64,80.0
2850,G#4,334.5,0.188,64,80.0
2851,G#3,334.75,0.188,64,80.0
2852,G#4,334.75,0.188,64,80.0
2853,G#4,335.0,0.188,64,80.0
2854,G#5,335.0,0.188,64,80.0
2855,G#4,335.25,0.188,64,80.0
2856,G#5,335.25,0.188,64,80.0
2857,G#5,335.5,0.5,71,80.0
2858,G#6,335.5,0.5,71,80.0
2859,E-5,336.0,0.5,54,80.0
2860,G#5,336.0,0.188,54,80.0
2861,F#6,336.0,0.188,45,80.0
2862,F#7,336.0,0.188,45,80.0
2863,G#5,336.25,0.188,43,80.0
2864,F#7,336.25,0.188,45,80.0
2865,F#6,336.25,0.188,45,80.0
2866,C#5,336.5,0.5,43,80.0
2867,G#5,336.5,0.188,43,80.0
2868,E6,336.5,0.188,45,80.0
2869,E7,336.5,0.188,45,80.0
2870,G#5,336.75,0.188,43,80.0
2871,E7,336.75,0.188,45,80.0
2872,E6,336.75,0.188,45,80.0
2873,C5,337.0,0.5,43,80.0
2874,G#5,337.0,0.188,43,80.0
2875,E-7,337.0,0.188,45,80.0
2876,E-6,337.0,0.188,45,80.0
2877,G#5,337.25,0.188,43,80.0
2878,E-6,337.25,0.188,45,80.0
2879,E-7,337.25,0.188,45,80.0
2880,B-4,337.5,0.5,43,80.0
2881,G#5,337.5,0.188,43,80.0
2882,C#6,337.5,0.188,45,80.0
2883,C#7,337.5,0.188,45,80.0
2884,G#5,337.75,0.188,43,80.0
2885,C#7,337.75,0.188,45,80.0
2886,C#6,337.75,0.188,45,80.0
2887,C5,338.0,0.5,43,80.0
2888,G#5,338.0,0.188,43,80.0
2889,E-7,338.0,0.188,45,80.0
2890,E-6,338.0,0.188,45,80.0
2891,G#5,338.25,0.188,43,80.0
2892,E-7,338.25,0.188,45,80.0
2893,E-6,338.25,0.188,45,80.0
2894,E7,338.5,0.5,47,80.0
2895,E6,338.5,0.5,47,80.0
2896,C#5,338.5,0.5,46,80.0
2897,G#5,338.5,0.5,46,80.0
2898,G#2,339.0,0.188,61,80.0
2899,G#3,339.0,0.188,61,80.0
2900,G#2,339.25,0.188,64,80.0
2901,G#3,339.25,0.188,64,80.0
2902,G2,339.5,0.188,66,80.0
2903,G3,339.5,0.188,66,80.0
2904,G2,339.75,0.188,70,80.0
2905,G3,339.75,0.188,70,80.0
2906,F#2,340.0,0.188,71,80.0
2907,F#3,340.0,0.188,71,80.0
2908,F#2,340.25,0.188,71,80.0
2909,F#3,340.25,0.188,71,80.0
2910,F#3,340.5,0.188,64,80.0
2911,F#4,340.5,0.188,64,80.0
2912,F#3,340.75,0.188,64,80.0
2913,F#4,340.75,0.188,64,80.0
2914,F#4,341.0,0.188,64,80.0
2915,F#5,341.0,0.188,64,80.0
2916,F#4,341.25,0.188,64,80.0
2917,F#5,341.25,0.188,64,80.0
2918,F#5,341.5,0.5,71,80.0
2919,F#6,341.5,0.5,71,80.0
2920,C#5,342.0,0.5,54,80.0
2921,F#5,342.0,0.188,54,80.0
2922,E6,342.0,0.188,45,80.0
2923,E7,342.0,0.188,45,80.0
2924,F#5,342.25,0.188,43,80.0
2925,E7,342.25,0.188,45,80.0
2926,E6,342.25,0.188,45,80.0
2927,B4,342.5,0.5,43,80.0
2928,F#5,342.5,0.188,43,80.0
2929,E-6,342.5,0.188,45,80.0
2930,E-7,342.5,0.188,45,80.0
2931,F#5,342.75,0.188,43,80.0
2932,E-7,342.75,0.188,45,80.0
2933,E-6,342.75,0.188,45,80.0
2934,B-4,343.0,0.5,43,80.0
2935,F#5,343.0,0.188,43,80.0
2936,C#7,343.0,0.188,45,80.0
2937,C#6,343.0,0.188,45,80.0
2938,F#5,343.25,0.188,43,80.0
2939,C#6,343.25,0.188,45,80.0
2940,C#7,343.25,0.188,45,80.0
2941,G#4,343.5,0.5,43,80.0
2942,F#5,343.5,0.188,43,80.0
2943,B5,343.5,0.188,45,80.0
2944,B6,343.5,0.188,45,80.0
2945,F#5,343.75,0.188,43,80.0
2946,B6,343.75,0.188,45,80.0
2947,B5,343.75,0.188,45,80.0
2948,B-4,344.0,0.5,43,80.0
2949,F#5,344.0,0.188,43,80.0
2950,C#7,344.0,0.188,45,80.0
2951,C#6,344.0,0.188,45,80.0
2952,F#5,344.25,0.188,43,80.0
2953,C#7,344.25,0.188,45,80.0
2954,C#6,344.25,0.188,45,80.0
2955,E-7,344.5,0.5,47,80.0
2956,E-6,344.5,0.5,47,80.0
2957,B4,344.5,0.5,46,80.0
2958,F#5,344.5,0.5,46,80.0
2959,F2,345.0,0.188,63,80.0
2960,F3,345.0,0.188,63,80.0
2961,F2,345.25,0.188,65,80.0
2962,F3,345.25,0.188,65,80.0
2963,E2,345.5,0.188,67,80.0
2964,E3,345.5,0.188,67,80.0
2965,E2,345.75,0.188,70,80.0
2966,E3,345.75,0.188,70,80.0
2967,E-2,346.0,0.188,71,80.0
2968,E-3,346.0,0.188,71,80.0
2969,E-2,346.25,0.188,71,80.0
2970,E-3,346.25,0.188,71,80.0
2971,E-3,346.5,0.188,64,80.0
2972,E-4,346.5,0.188,64,80.0
2973,E-3,346.75,0.188,64,80.0
2974,E-4,346.75,0.188,64,80.0
2975,E-4,347.0,0.188,64,80.0
2976,E-5,347.0,0.188,64,80.0
2977,E-4,347.25,0.188,64,80.0
2978,E-5,347.25,0.188,64,80.0
2979,E-5,347.5,0.5,71,80.0
2980,E-6,347.5,0.5,71,80.0
2981,E-6,348.0,0.188,59,80.0
2982,E-5,348.0,0.188,59,80.0
2983,E-4,348.0,0.25,49,80.0
2984,G4,348.0,0.25,49,80.0
2985,E-6,348.25,0.188,60,80.0
2986,E-5,348.25,0.188,60,80.0
2987,E-4,348.25,0.25,50,80.0
2988,G4,348.25,0.25,50,80.0
2989,E-6,348.5,0.188,62,80.0
2990,E-5,348.5,0.188,62,80.0
2991,F4,348.5,0.25,52,80.0
2992,G#4,348.5,0.25,52,80.0
2993,E-6,348.75,0.188,64,80.0
2994,E-5,348.75,0.188,64,80.0
2995,F4,348.75,0.25,54,80.0
2996,G#4,348.75,0.25,54,80.0
2997,E5,349.0,0.25,64,80.0
2998,E6,349.0,0.25,64,80.0
2999,F#4,349.0,0.25,55,80.0
3000,A4,349.0,0.25,55,80.0
3001,E-5,349.25,0.25,64,80.0
3002,E-6,349.25,0.25,64,80.0
3003,F#4,349.25,0.25,55,80.0
3004,A4,349.25,0.25,55,80.0
3005,C#5,349.5,0.25,63,80.0
3006,C#6,349.5,0.25,63,80.0
3007,E4,349.5,0.25,54,80.0
3008,G4,349.5,0.25,54,80.0
3009,B4,349.75,0.25,62,80.0
3010,B5,349.75,0.25,62,80.0
3011,E4,349.75,0.25,54,80.0
3012,G4,349.75,0.25,54,80.0
3013,B-4,350.0,0.25,61,80.0
3014,B-5,350.0,0.25,61,80.0
3015,D4,350.0,0.25,52,80.0
3016,F4,350.0,0.25,52,80.0
3017,G#4,350.25,0.25,61,80.0
3018,G#5,350.25,0.25,61,80.0
3019,D4,350.25,0.25,52,80.0
3020,F4,350.25,0.25,52,80.0
3021,E-4,350.5,0.5,51,80.0
3022,G4,350.5,0.5,60,80.0
3023,G5,350.5,0.5,60,80.0
3024,B-1,351.0,0.188,70,80.0
3025,B-2,351.0,0.188,70,80.0
3026,B-1,351.25,0.188,70,80.0
3027,B-2,351.25,0.188,70,80.0
3028,D2,351.5,0.188,71,80.0
3029,D3,351.5,0.188,71,80.0
3030,D2,351.75,0.188,73,80.0
3031,D3,351.75,0.188,73,80.0
3032,E-2,352.0,0.188,77,80.0
3033,E-3,352.0,0.188,77,80.0
3034,E-2,352.25,0.188,77,80.0
3035,E-3,352.25,0.188,77,80.0
3036,E-3,352.5,0.188,69,80.0
3037,E-4,352.5,0.188,69,80.0
3038,E-3,352.75,0.188,69,80.0
3039,E-4,352.75,0.188,69,80.0
3040,E-4,353.0,0.188,71,80.0
3041,E-5,353.0,0.188,71,80.0
3042,E-4,353.25,0.188,71,80.0
3043,E-5,353.25,0.188,71,80.0
3044,E-5,353.5,0.5,76,80.0
3045,E-6,353.5,0.5,76,80.0
3046,E-7,354.0,0.188,69,80.0
3047,E-6,354.0,0.188,69,80.0
3048,G4,354.0,0.188,57,80.0
3049,E-5,354.0,0.188,57,80.0
3050,E-7,354.25,0.188,71,80.0
3051,E-6,354.25,0.188,71,80.0
3052,G4,354.25,0.188,59,80.0
3053,E-5,354.25,0.188,59,80.0
3054,E-7,354.5,0.188,72,80.0
3055,E-6,354.5,0.188,72,80.0
3056,G#4,354.5,0.188,61,80.0
3057,F5,354.5,0.188,61,80.0
3058,E-6,354.75,0.188,73,80.0
3059,E-7,354.75,0.188,73,80.0
3060,G#4,354.75,0.188,62,80.0
3061,F5,354.75,0.188,62,80.0
3062,E6,355.0,0.188,73,80.0
3063,E7,355.0,0.188,73,80.0
3064,A4,355.0,0.188,63,80.0
3065,F#5,355.0,0.188,63,80.0
3066,E-6,355.25,0.188,73,80.0
3067,E-7,355.25,0.188,73,80.0
3068,A4,355.25,0.188,64,80.0
3069,F#5,355.25,0.188,64,80.0
3070,C#6,355.5,0.188,73,80.0
3071,C#7,355.5,0.188,73,80.0
3072,B-4,355.5,0.188,64,80.0
3073,G5,355.5,0.188,64,80.0
3074,B6,355.75,0.188,72,80.0
3075,B5,355.75,0.188,72,80.0
3076,B-4,355.75,0.188,63,80.0
3077,G5,355.75,0.188,63,80.0
3078,B-5,356.0,0.188,72,80.0
3079,B-6,356.0,0.188,72,80.0
3080,D5,356.0,0.188,63,80.0
3081,F5,356.0,0.188,63,80.0
3082,G#6,356.25,0.188,72,80.0
3083,G#5,356.25,0.188,72,80.0
3084,D5,356.25,0.188,62,80.0
3085,F5,356.25,0.188,62,80.0
3086,G6,356.5,0.188,72,80.0
3087,G5,356.5,0.188,72,80.0
3088,B-4,356.5,0.188,62,80.0
3089,E-5,356.5,0.188,62,80.0
3090,F#5,356.75,0.188,72,80.0
3091,F#6,356.75,0.188,72,80.0
3092,B-4,356.75,0.188,62,80.0
3093,E-5,356.75,0.188,62,80.0
3094,F6,357.0,0.188,72,80.0
3095,F5,357.0,0.188,72,80.0
3096,G#4,357.0,0.188,61,80.0
3097,B4,357.0,0.188,61,80.0
3098,E5,357.25,0.188,71,80.0
3099,E6,357.25,0.188,71,80.0
3100,G#4,357.25,0.188,61,80.0
3101,B4,357.25,0.188,61,80.0
3102,D6,357.5,0.188,71,80.0
3103,D5,357.5,0.188,71,80.0
3104,F#4,357.5,0.188,61,80.0
3105,A4,357.5,0.188,61,80.0
3106,E-5,357.75,0.188,72,80.0
3107,E-6,357.75,0.188,72,80.0
3108,F#4,357.75,0.188,62,80.0
3109,A4,357.75,0.188,62,80.0
3110,E6,358.0,0.188,75,80.0
3111,E5,358.0,0.188,75,80.0
3112,G4,358.0,0.188,62,80.0
3113,B-4,358.0,0.188,62,80.0
3114,E-5,358.25,0.188,75,80.0
3115,E-6,358.25,0.188,75,80.0
3116,G4,358.25,0.188,62,80.0
3117,B-4,358.25,0.188,62,80.0
3118,C#6,358.5,0.188,73,80.0
3119,C#5,358.5,0.188,73,80.0
3120,E4,358.5,0.188,62,80.0
3121,G4,358.5,0.188,62,80.0
3122,B4,358.75,0.188,72,80.0
3123,B5,358.75,0.188,72,80.0
3124,E4,358.75,0.188,61,80.0
3125,G4,358.75,0.188,61,80.0
3126,B-5,359.0,0.188,72,80.0
3127,B-4,359.0,0.188,72,80.0
3128,D4,359.0,0.188,61,80.0
3129,F4,359.0,0.188,61,80.0
3130,G#4,359.25,0.188,72,80.0
3131,G#5,359.25,0.188,72,80.0
3132,D4,359.25,0.188,60,80.0
3133,F4,359.25,0.188,60,80.0
3134,G4,359.5,0.188,72,80.0
3135,G5,359.5,0.188,72,80.0
3136,B-3,359.5,0.188,60,80.0
3137,E-4,359.5,0.188,60,80.0
3138,F#5,359.75,0.188,71,80.0
3139,F#4,359.75,0.188,71,80.0
3140,B-3,359.75,0.188,59,80.0
3141,E-4,359.75,0.188,59,80.0
3142,F4,360.0,0.188,70,80.0
3143,F5,360.0,0.188,70,80.0
3144,G#3,360.0,0.188,59,80.0
3145,B3,360.0,0.188,59,80.0
3146,E5,360.25,0.188,70,80.0
3147,E4,360.25,0.188,70,80.0
3148,G#3,360.25,0.188,59,80.0
3149,B3,360.25,0.188,59,80.0
3150,D4,360.5,0.188,72,80.0
3151,D5,360.5,0.188,72,80.0
3152,F#3,360.5,0.188,57,80.0
3153,A3,360.5,0.188,57,80.0
3154,E-4,360.75,0.188,73,80.0
3155,E-5,360.75,0.188,73,80.0
3156,F#3,360.75,0.188,63,80.0
3157,A3,360.75,0.188,63,80.0
3158,E4,361.0,0.188,73,80.0
3159,E5,361.0,0.188,73,80.0
3160,G3,361.0,0.188,66,80.0
3161,B-3,361.0,0.188,66,80.0
3162,E-4,361.25,0.188,73,80.0
3163,E-5,361.25,0.188,73,80.0
3164,G3,361.25,0.188,66,80.0
3165,B-3,361.25,0.188,66,80.0
3166,C#5,361.5,0.188,73,80.0
3167,C#4,361.5,0.188,73,80.0
3168,E3,361.5,0.188,65,80.0
3169,G3,361.5,0.188,65,80.0
3170,B3,361.75,0.188,72,80.0
3171,B4,361.75,0.188,72,80.0
3172,E3,361.75,0.188,64,80.0
3173,G3,361.75,0.188,64,80.0
3174,B-4,362.0,0.188,72,80.0
3175,B-3,362.0,0.188,72,80.0
3176,D3,362.0,0.188,64,80.0
3177,F3,362.0,0.188,64,80.0
3178,G#3,362.25,0.188,72,80.0
3179,G#4,362.25,0.188,72,80.0
3180,D3,362.25,0.188,63,80.0
3181,F3,362.25,0.188,63,80.0
3182,G4,362.5,0.188,72,80.0
3183,G3,362.5,0.188,72,80.0
3184,B-2,362.5,0.188,63,80.0
3185,E-3,362.5,0.188,63,80.0
3186,F#3,362.75,0.188,72,80.0
3187,F#4,362.75,0.188,72,80.0
3188,B-2,362.75,0.188,62,80.0
3189,E-3,362.75,0.188,62,80.0
3190,F4,363.0,0.188,72,80.0
3191,F3,363.0,0.188,72,80.0
3192,G#2,363.0,0.188,61,80.0
3193,B2,363.0,0.188,61,80.0
3194,E3,363.25,0.188,72,80.0
3195,E4,363.25,0.188,72,80.0
3196,G#2,363.25,0.188,61,80.0
3197,B2,363.25,0.188,61,80.0
3198,D3,363.5,0.188,72,80.0
3199,D4,363.5,0.188,72,80.0
3200,F#2,363.5,0.188,57,80.0
3201,A2,363.5,0.188,57,80.0
3202,E-3,363.75,0.188,72,80.0
3203,E-4,363.75,0.188,72,80.0
3204,F#2,363.75,0.188,59,80.0
3205,A2,363.75,0.188,59,80.0
3206,E3,364.0,0.188,73,80.0
3207,E4,364.0,0.188,73,80.0
3208,G2,364.0,0.188,61,80.0
3209,B-2,364.0,0.188,61,80.0
3210,E-4,364.25,0.188,75,80.0
3211,E3,364.25,0.188,75,80.0
3212,G2,364.25,0.188,62,80.0
3213,B-2,364.25,0.188,62,80.0
3214,C#4,364.5,0.188,76,80.0
3215,E3,364.5,0.188,76,80.0
3216,G2,364.5,0.188,64,80.0
3217,B-2,364.5,0.188,64,80.0
3218,B3,364.75,0.188,77,80.0
3219,E3,364.75,0.188,77,80.0
3220,G2,364.75,0.188,65,80.0
3221,B-2,364.75,0.188,65,80.0
3222,F3,365.0,0.188,80,80.0
3223,B-3,365.0,0.188,80,80.0
3224,D2,365.0,0.188,67,80.0
3225,B2,365.0,0.188,67,80.0
3226,F3,365.25,0.188,81,80.0
3227,G#3,365.25,0.188,81,80.0
3228,D2,365.25,0.188,69,80.0
3229,B2,365.25,0.188,69,80.0
3230,G3,365.5,0.5,81,80.0
3231,E-2,365.5,0.5,71,80.0
3232,B-2,365.5,0.5,71,80.0
3233,D4,366.0,9/40,81,80.0
3234,D3,366.0,9/40,81,80.0
3235,D3,366.25,0.25,81,80.0
3236,E-4,366.5,9/40,81,80.0
3237,E-3,366.5,9/40,81,80.0
3238,E-3,366.75,0.25,81,80.0
3239,A3,367.0,0.25,81,80.0
3240,A4,367.0,0.25,81,80.0
3241,A3,367.25,0.25,81,80.0
3242,B-3,367.5,0.25,81,80.0
3243,B-4,367.5,0.25,81,80.0
3244,B-3,367.75,0.25,81,80.0
3245,D4,368.0,0.25,81,80.0
3246,D5,368.0,0.25,81,80.0
3247,D3,368.25,0.25,63,80.0
3248,D4,368.25,0.25,63,80.0
3249,E-4,368.5,0.25,81,80.0
3250,E-5,368.5,0.25,81,80.0
3251,E-3,368.75,0.25,62,80.0
3252,E-4,368.75,0.25,62,80.0
3253,A4,369.0,0.25,81,80.0
3254,A5,369.0,0.25,81,80.0
3255,A3,369.25,0.25,69,80.0
3256,A4,369.25,0.25,69,80.0
3257,B-5,369.5,9/40,81,80.0
3258,B-4,369.5,9/40,81,80.0
3259,B-3,369.75,0.25,70,80.0
3260,B-4,369.75,0.25,70,80.0
3261,D6,370.0,9/40,82,80.0
3262,D5,370.0,9/40,82,80.0
3263,D4,370.25,0.25,71,80.0
3264,D5,370.25,0.25,71,80.0
3265,E-6,370.5,9/40,83,80.0
3266,E-5,370.5,9/40,83,80.0
3267,E-4,370.75,0.25,72,80.0
3268,E-5,370.75,0.25,72,80.0
3269,A6,371.0,9/40,84,80.0
3270,A5,371.0,9/40,84,80.0
3271,A4,371.25,0.25,72,80.0
3272,A5,371.25,0.25,72,80.0
3273,B-6,371.5,9/40,84,80.0
3274,B-5,371.5,9/40,84,80.0
3275,B-4,371.75,0.25,72,80.0
3276,B-5,371.75,0.25,72,80.0
3277,D6,372.0,0.25,92,80.0
3278,D7,372.0,0.25,92,80.0
3279,D5,372.25,0.25,76,80.0
3280,D6,372.25,0.25,76,80.0
3281,E-7,372.5,9/40,89,80.0
3282,E-6,372.5,9/40,89,80.0
3283,E-5,372.75,0.25,72,80.0
3284,E-6,372.75,0.25,72,80.0
3285,D7,373.0,9/40,93,80.0
3286,D6,373.0,9/40,93,80.0
3287,D5,373.25,0.25,76,80.0
3288,D6,373.25,0.25,76,80.0
3289,E-7,373.5,9/40,86,80.0
3290,E-6,373.5,9/40,86,80.0
3291,E-5,373.75,0.25,72,80.0
3292,E-6,373.75,0.25,72,80.0
3293,D7,374.0,9/40,87,80.0
3294,D6,374.0,9/40,87,80.0
3295,D5,374.25,0.25,72,80.0
3296,D6,374.25,0.25,72,80.0
3297,E-7,374.5,0.25,84,80.0
3298,E-6,374.5,0.25,84,80.0
3299,C#5,374.75,0.25,72,80.0
3300,C#6,374.75,0.25,72,80.0
3301,E-7,375.0,0.25,84,80.0
3302,E-6,375.0,0.25,84,80.0
3303,B-4,375.25,0.25,72,80.0
3304,B-5,375.25,0.25,72,80.0
3305,E-7,375.5,0.25,86,80.0
3306,E-6,375.5,0.25,86,80.0
3307,G4,375.75,0.25,73,80.0
3308,G5,375.75,0.25,73,80.0
3309,E-7,376.0,0.25,87,80.0
3310,E-6,376.0,0.25,87,80.0
3311,E-4,376.25,0.25,73,80.0
3312,E-5,376.25,0.25,73,80.0
3313,E-7,376.5,0.25,89,80.0
3314,E-6,376.5,0.25,89,80.0
3315,C#4,376.75,0.25,75,80.0
3316,C#5,376.75,0.25,75,80.0
3317,E-7,377.0,0.25,89,80.0
3318,E-6,377.0,0.25,89,80.0
3319,B-3,377.25,0.25,76,80.0
3320,B-4,377.25,0.25,76,80.0
3321,E-7,377.5,0.25,90,80.0
3322,E-6,377.5,0.25,90,80.0
3323,G4,377.75,0.25,77,80.0
3324,G3,377.75,0.25,77,80.0
3325,E-7,378.0,0.25,90,80.0
3326,E-6,378.0,0.25,90,80.0
3327,E-4,378.25,0.25,79,80.0
3328,E-3,378.25,0.25,79,80.0
3329,E-7,378.5,0.25,91,80.0
3330,E-6,378.5,0.25,91,80.0
3331,C#4,378.75,0.25,79,80.0
3332,C#3,378.75,0.25,79,80.0
3333,E-7,379.0,0.25,92,80.0
3334,E-6,379.0,0.25,92,80.0
3335,B-3,379.25,0.25,80,80.0
3336,B-2,379.25,0.25,80,80.0
3337,E-7,379.5,0.25,92,80.0
3338,E-6,379.5,0.25,92,80.0
3339,G3,379.75,0.25,81,80.0
3340,G2,379.75,0.25,81,80.0
3341,E-7,380.0,0.25,93,80.0
3342,E-6,380.0,0.25,93,80.0
3343,E-2,380.25,0.25,81,80.0
3344,E-3,380.25,0.25,81,80.0
3345,E-6,380.5,0.188,81,80.0
3346,E-7,380.5,0.188,81,80.0
3347,E-6,380.75,0.188,77,80.0
3348,E-7,380.75,0.188,77,80.0
3349,E-6,381.0,0.188,81,80.0
3350,E-7,381.0,0.188,81,80.0
3351,E-6,381.25,0.188,76,80.0
3352,E-7,381.25,0.188,76,80.0
3353,E-6,381.5,0.188,79,80.0
3354,E-7,381.5,0.188,79,80.0
3355,E-6,381.75,0.188,76,80.0
3356,E-7,381.75,0.188,76,80.0
3357,E-6,382.0,0.188,77,80.0
3358,E-7,382.0,0.188,77,80.0
3359,E-6,382.25,0.188,76,80.0
3360,E-7,382.25,0.188,76,80.0
3361,E-6,382.5,0.188,75,80.0
3362,E-7,382.5,0.188,75,80.0
3363,E-6,382.75,0.188,73,80.0
3364,E-7,382.75,0.188,73,80.0
3365,E-6,383.0,0.188,73,80.0
3366,E-7,383.0,0.188,73,80.0
3367,E-6,383.25,0.188,72,80.0
3368,E-7,383.25,0.188,72,80.0
3369,E-6,383.5,0.188,72,80.0
3370,E-7,383.5,0.188,72,80.0
3371,E-6,383.75,0.188,70,80.0
3372,E-7,383.75,0.188,70,80.0
3373,E-6,384.0,0.188,71,80.0
3374,E-7,384.0,0.188,71,80.0
3375,E-6,384.25,0.188,69,80.0
3376,E-7,384.25,0.188,69,80.0
3377,E-4,384.5,0.25,72,80.0
3378,E-6,384.5,0.188,76,80.0
3379,E-7,384.5,0.188,76,80.0
3380,E-6,384.75,0.188,70,80.0
3381,E-7,384.75,0.188,70,80.0
3382,E-5,385.0,0.25,80,80.0
3383,E-6,385.0,0.188,70,80.0
3384,E-7,385.0,0.188,70,80.0
3385,E-6,385.25,0.188,70,80.0
3386,E-7,385.25,0.188,70,80.0
3387,E-6,385.5,0.188,66,80.0
3388,E-7,385.5,0.188,66,80.0
3389,E-6,385.75,0.188,66,80.0
3390,E-7,385.75,0.188,66,80.0
3391,C#6,386.0,0.188,63,80.0
3392,C#7,386.0,0.188,63,80.0
3393,C#6,386.25,0.188,62,80.0
3394,C#7,386.25,0.188,62,80.0
3395,B6,386.5,0.188,66,80.0
3396,B5,386.5,0.188,66,80.0
3397,G#1,386.5,0.5,60,80.0
3398,G#2,386.5,0.5,60,80.0
3399,B6,386.75,0.188,66,80.0
3400,B5,386.75,0.188,66,80.0
3401,B6,387.0,0.188,66,80.0
3402,B5,387.0,0.188,66,80.0
3403,E-3,387.0,0.188,55,80.0
3404,E-4,387.0,0.188,55,80.0
3405,B3,387.0,0.188,55,80.0
3406,B6,387.25,0.188,66,80.0
3407,B5,387.25,0.188,66,80.0
3408,E-3,387.25,0.188,55,80.0
3409,B3,387.25,0.188,55,80.0
3410,E-4,387.25,0.188,55,80.0
3411,B-6,387.5,0.188,62,80.0
3412,B-5,387.5,0.188,62,80.0
3413,G#3,387.5,0.5,55,80.0
3414,B3,387.5,0.5,55,80.0
3415,E-4,387.5,0.5,55,80.0
3416,B-6,387.75,0.188,62,80.0
3417,B-5,387.75,0.188,62,80.0
3418,G#6,388.0,0.188,63,80.0
3419,G#5,388.0,0.188,63,80.0
3420,B1,388.0,0.5,64,80.0
3421,B2,388.0,0.5,64,80.0
3422,G#6,388.25,0.188,63,80.0
3423,G#5,388.25,0.188,63,80.0
3424,G6,388.5,0.188,62,80.0
3425,G5,388.5,0.188,62,80.0
3426,E-3,388.5,0.188,55,80.0
3427,B3,388.5,0.188,55,80.0
3428,E-4,388.5,0.188,55,80.0
3429,G6,388.75,0.188,62,80.0
3430,G5,388.75,0.188,62,80.0
3431,E-4,388.75,0.188,55,80.0
3432,B3,388.75,0.188,55,80.0
3433,E-3,388.75,0.188,55,80.0
3434,G#6,389.0,0.188,62,80.0
3435,G#5,389.0,0.188,62,80.0
3436,G#3,389.0,0.5,55,80.0
3437,B3,389.0,0.5,55,80.0
3438,E-4,389.0,0.5,55,80.0
3439,G#6,389.25,0.188,62,80.0
3440,G#5,389.25,0.188,62,80.0
3441,B-6,389.5,0.188,66,80.0
3442,B-5,389.5,0.188,66,80.0
3443,E-2,389.5,0.5,59,80.0
3444,E-3,389.5,0.5,59,80.0
3445,B-6,389.75,0.188,66,80.0
3446,B-5,389.75,0.188,66,80.0
3447,E-6,390.0,0.188,62,80.0
3448,E-5,390.0,0.188,62,80.0
3449,G3,390.0,0.188,55,80.0
3450,E-4,390.0,0.188,55,80.0
3451,G4,390.0,0.188,55,80.0
3452,E-6,390.25,0.188,62,80.0
3453,E-5,390.25,0.188,62,80.0
3454,G3,390.25,0.188,55,80.0
3455,E-4,390.25,0.188,55,80.0
3456,G4,390.25,0.188,55,80.0
3457,E-6,390.5,0.188,62,80.0
3458,E-5,390.5,0.188,62,80.0
3459,B-3,390.5,0.5,55,80.0
3460,E-4,390.5,0.5,55,80.0
3461,G4,390.5,0.5,55,80.0
3462,E-6,390.75,0.188,62,80.0
3463,E-5,390.75,0.188,62,80.0
3464,E6,391.0,0.188,64,80.0
3465,E5,391.0,0.188,64,80.0
3466,G2,391.0,0.5,60,80.0
3467,G3,391.0,0.5,60,80.0
3468,E6,391.25,0.188,64,80.0
3469,E5,391.25,0.188,64,80.0
3470,E-6,391.5,0.188,64,80.0
3471,E-5,391.5,0.188,64,80.0
3472,C#4,391.5,0.188,49,80.0
3473,E-4,391.5,0.188,49,80.0
3474,B-4,391.5,0.188,49,80.0
3475,E-6,391.75,0.188,62,80.0
3476,E-5,391.75,0.188,62,80.0
3477,C#4,391.75,0.188,49,80.0
3478,E-4,391.75,0.188,49,80.0
3479,B-4,391.75,0.188,49,80.0
3480,C#6,392.0,0.188,62,80.0
3481,C#5,392.0,0.188,62,80.0
3482,C#4,392.0,0.5,49,80.0
3483,E-4,392.0,0.5,49,80.0
3484,B-4,392.0,0.5,49,80.0
3485,C#6,392.25,0.188,62,80.0
3486,C#5,392.25,0.188,62,80.0
3487,B5,392.5,0.188,63,80.0
3488,B4,392.5,0.188,63,80.0
3489,G#3,392.5,0.5,58,80.0
3490,G#2,392.5,0.5,58,80.0
3491,B5,392.75,0.188,63,80.0
3492,B4,392.75,0.188,63,80.0
3493,B5,393.0,0.188,63,80.0
3494,B4,393.0,0.188,63,80.0
3495,B3,393.0,0.188,51,80.0
3496,E-4,393.0,0.188,51,80.0
3497,G#4,393.0,0.188,51,80.0
3498,B5,393.25,0.188,62,80.0
3499,B4,393.25,0.188,62,80.0
3500,B3,393.25,0.188,51,80.0
3501,E-4,393.25,0.188,51,80.0
3502,G#4,393.25,0.188,51,80.0
3503,B-5,393.5,0.188,63,80.0
3504,B-4,393.5,0.188,63,80.0
3505,B3,393.5,0.5,52,80.0
3506,E-4,393.5,0.5,52,80.0
3507,B-5,393.75,0.188,63,80.0
3508,B-4,393.75,0.188,63,80.0
3509,E2,394.0,0.5,59,80.0
3510,G#5,394.0,0.188,65,80.0
3511,G#4,394.0,0.188,65,80.0
3512,G#5,394.25,0.188,65,80.0
3513,G#4,394.25,0.188,65,80.0
3514,G5,394.5,0.188,62,80.0
3515,G4,394.5,0.188,62,80.0
3516,D4,394.5,0.188,54,80.0
3517,B-3,394.5,0.188,54,80.0
3518,G5,394.75,0.188,62,80.0
3519,G4,394.75,0.188,62,80.0
3520,D4,394.75,0.188,54,80.0
3521,B-3,394.75,0.188,54,80.0
3522,G#5,395.0,0.188,63,80.0
3523,G#4,395.0,0.188,63,80.0
3524,B-3,395.0,0.5,54,80.0
3525,D4,395.0,0.5,54,80.0
3526,G#5,395.25,0.188,63,80.0
3527,G#4,395.25,0.188,63,80.0
3528,E-2,395.5,0.5,60,80.0
3529,B-5,395.5,0.188,65,80.0
3530,B-4,395.5,0.188,65,80.0
3531,B-5,395.75,0.188,64,80.0
3532,B-4,395.75,0.188,64,80.0
3533,E-4,396.0,0.188,59,80.0
3534,E-5,396.0,0.188,59,80.0
3535,G3,396.0,0.188,52,80.0
3536,B-3,396.0,0.188,52,80.0
3537,E-5,396.25,0.188,59,80.0
3538,E-4,396.25,0.188,59,80.0
3539,G3,396.25,0.188,52,80.0
3540,B-3,396.25,0.188,52,80.0
3541,E-6,396.5,0.188,63,80.0
3542,E-5,396.5,0.188,63,80.0
3543,E-4,396.5,0.5,54,80.0
3544,B-3,396.5,0.5,54,80.0
3545,G3,396.5,0.5,54,80.0
3546,E-6,396.75,0.188,63,80.0
3547,E-5,396.75,0.188,63,80.0
3548,E-7,397.0,0.188,77,80.0
3549,E-6,397.0,0.188,77,80.0
3550,G4,397.0,0.5,54,80.0
3551,B-4,397.0,0.5,54,80.0
3552,E-5,397.0,0.5,54,80.0
3553,E-6,397.25,0.188,77,80.0
3554,E-7,397.25,0.188,77,80.0
3555,E-7,397.5,0.188,77,80.0
3556,E-6,397.5,0.188,77,80.0
3557,E-7,397.75,0.188,77,80.0
3558,E-6,397.75,0.188,77,80.0
3559,C#7,398.0,0.188,75,80.0
3560,C#6,398.0,0.188,75,80.0
3561,C#6,398.25,0.188,75,80.0
3562,C#7,398.25,0.188,75,80.0
3563,C7,398.5,0.188,75,80.0
3564,C6,398.5,0.188,75,80.0
3565,G#1,398.5,0.5,72,80.0
3566,G#2,398.5,0.5,72,80.0
3567,C6,398.75,0.188,75,80.0
3568,C7,398.75,0.188,75,80.0
3569,C6,399.0,0.188,72,80.0
3570,C7,399.0,0.188,72,80.0
3571,E-4,399.0,0.188,52,80.0
3572,A3,399.0,0.188,52,80.0
3573,F#3,399.0,0.188,52,80.0
3574,C6,399.25,0.188,72,80.0
3575,C7,399.25,0.188,72,80.0
3576,F#3,399.25,0.188,52,80.0
3577,A3,399.25,0.188,52,80.0
3578,E-4,399.25,0.188,52,80.0
3579,A6,399.5,0.188,71,80.0
3580,A5,399.5,0.188,71,80.0
3581,F#3,399.5,0.5,52,80.0
3582,A3,399.5,0.5,52,80.0
3583,E-4,399.5,0.5,52,80.0
3584,A5,399.75,0.188,71,80.0
3585,A6,399.75,0.188,71,80.0
3586,G#6,400.0,0.188,73,80.0
3587,G#5,400.0,0.188,73,80.0
3588,C2,400.0,0.5,76,80.0
3589,C3,400.0,0.5,76,80.0
3590,G#5,400.25,0.188,73,80.0
3591,G#6,400.25,0.188,73,80.0
3592,G#6,400.5,0.188,73,80.0
3593,G#5,400.5,0.188,73,80.0
3594,A3,400.5,0.188,55,80.0
3595,E-4,400.5,0.188,55,80.0
3596,A4,400.5,0.188,55,80.0
3597,G#5,400.75,0.188,73,80.0
3598,G#6,400.75,0.188,73,80.0
3599,A3,400.75,0.188,55,80.0
3600,E-4,400.75,0.188,55,80.0
3601,A4,400.75,0.188,55,80.0
3602,F#6,401.0,0.188,76,80.0
3603,F#5,401.0,0.188,76,80.0
3604,A3,401.0,0.5,55,80.0
3605,E-4,401.0,0.5,55,80.0
3606,A4,401.0,0.5,55,80.0
3607,F#5,401.25,0.188,76,80.0
3608,F#6,401.25,0.188,76,80.0
3609,E6,401.5,0.5,81,80.0
3610,E5,401.5,0.5,81,80.0
3611,C#2,401.5,0.5,82,80.0
3612,C#3,401.5,0.5,82,80.0
3613,E4,402.0,0.188,51,80.0
3614,A4,402.0,0.188,51,80.0
3615,C#5,402.0,0.188,51,80.0
3616,E3,402.0,0.188,46,80.0
3617,A3,402.0,0.188,46,80.0
3618,C#4,402.0,0.188,46,80.0
3619,E4,402.25,0.188,51,80.0
3620,A4,402.25,0.188,51,80.0
3621,C#5,402.25,0.188,51,80.0
3622,E3,402.25,0.188,46,80.0
3623,A3,402.25,0.188,46,80.0
3624,C#4,402.25,0.188,46,80.0
3625,E4,402.5,0.188,53,80.0
3626,A4,402.5,0.188,53,80.0
3627,E-5,402.5,0.188,53,80.0
3628,E-3,402.5,0.188,49,80.0
3629,A3,402.5,0.188,49,80.0
3630,C#4,402.5,0.188,49,80.0
3631,E4,402.75,0.188,53,80.0
3632,A4,402.75,0.188,53,80.0
3633,E-5,402.75,0.188,53,80.0
3634,E-3,402.75,0.188,49,80.0
3635,A3,402.75,0.188,49,80.0
3636,C#4,402.75,0.188,49,80.0
3637,E4,403.0,0.188,57,80.0
3638,A4,403.0,0.188,57,80.0
3639,E5,403.0,0.188,57,80.0
3640,C#3,403.0,0.188,52,80.0
3641,A3,403.0,0.188,52,80.0
3642,C#4,403.0,0.188,52,80.0
3643,E4,403.25,0.188,57,80.0
3644,A4,403.25,0.188,57,80.0
3645,E5,403.25,0.188,57,80.0
3646,C#3,403.25,0.188,52,80.0
3647,A3,403.25,0.188,52,80.0
3648,C#4,403.25,0.188,52,80.0
3649,E4,403.5,0.188,55,80.0
3650,A4,403.5,0.188,55,80.0
3651,E-5,403.5,0.188,55,80.0
3652,E-3,403.5,0.188,49,80.0
3653,A3,403.5,0.188,49,80.0
3654,C#4,403.5,0.188,49,80.0
3655,E4,403.75,0.188,55,80.0
3656,A4,403.75,0.188,55,80.0
3657,E-5,403.75,0.188,55,80.0
3658,E-3,403.75,0.188,49,80.0
3659,A3,403.75,0.188,49,80.0
3660,C#4,403.75,0.188,49,80.0
3661,E4,404.0,0.188,52,80.0
3662,A4,404.0,0.188,52,80.0
3663,C#5,404.0,0.188,52,80.0
3664,E3,404.0,0.188,47,80.0
3665,A3,404.0,0.188,47,80.0
3666,C#4,404.0,0.188,47,80.0
3667,E4,404.25,0.188,52,80.0
3668,A4,404.25,0.188,52,80.0
3669,C#5,404.25,0.188,52,80.0
3670,E3,404.25,0.188,47,80.0
3671,A3,404.25,0.188,47,80.0
3672,C#4,404.25,0.188,47,80.0
3673,E-4,404.5,0.25,47,80.0
3674,G#4,404.5,0.25,47,80.0
3675,B4,404.5,0.25,47,80.0
3676,E-5,404.5,0.25,47,80.0
3677,E-3,404.5,0.25,42,80.0
3678,G#3,404.5,0.25,42,80.0
3679,B3,404.5,0.25,42,80.0
3680,E4,404.75,0.25,54,80.0
3681,E5,404.75,0.25,54,80.0
3682,D3,404.75,0.25,46,80.0
3683,D4,404.75,0.25,46,80.0
3684,F4,405.0,0.25,54,80.0
3685,F5,405.0,0.25,54,80.0
3686,C#3,405.0,0.25,47,80.0
3687,C#4,405.0,0.25,47,80.0
3688,F#4,405.25,0.25,55,80.0
3689,F#5,405.25,0.25,55,80.0
3690,C3,405.25,0.25,49,80.0
3691,C4,405.25,0.25,49,80.0
3692,G4,405.5,0.25,57,80.0
3693,G5,405.5,0.25,57,80.0
3694,B2,405.5,0.25,50,80.0
3695,B3,405.5,0.25,50,80.0
3696,G#4,405.75,0.25,59,80.0
3697,G#5,405.75,0.25,59,80.0
3698,B-2,405.75,0.25,51,80.0
3699,B-3,405.75,0.25,51,80.0
3700,A4,406.0,0.25,60,80.0
3701,A5,406.0,0.25,60,80.0
3702,A2,406.0,0.25,54,80.0
3703,A3,406.0,0.25,54,80.0
3704,B-4,406.25,0.25,62,80.0
3705,B-5,406.25,0.25,62,80.0
3706,G#2,406.25,0.25,54,80.0
3707,G#3,406.25,0.25,54,80.0
3708,B4,406.5,0.25,63,80.0
3709,B5,406.5,0.25,63,80.0
3710,G2,406.5,0.25,55,80.0
3711,G3,406.5,0.25,55,80.0
3712,C5,406.75,0.25,64,80.0
3713,C6,406.75,0.25,64,80.0
3714,F#2,406.75,0.25,56,80.0
3715,F#3,406.75,0.25,56,80.0
3716,C#5,407.0,0.25,66,80.0
3717,C#6,407.0,0.25,66,80.0
3718,F2,407.0,0.25,57,80.0
3719,F3,407.0,0.25,57,80.0
3720,D5,407.25,0.25,67,80.0
3721,D6,407.25,0.25,67,80.0
3722,E2,407.25,0.25,59,80.0
3723,E3,407.25,0.25,59,80.0
3724,E-5,407.5,0.25,62,80.0
3725,G5,407.5,0.25,62,80.0
3726,B-5,407.5,0.25,62,80.0
3727,E-6,407.5,0.25,62,80.0
3728,E-3,407.5,0.25,56,80.0
3729,E-2,407.5,0.25,56,80.0
3730,G2,407.5,0.25,56,80.0
3731,B-2,407.5,0.25,56,80.0
3732,E5,407.75,0.25,71,80.0
3733,E6,407.75,0.25,71,80.0
3734,D2,407.75,0.25,62,80.0
3735,D3,407.75,0.25,62,80.0
3736,F5,408.0,0.25,72,80.0
3737,F6,408.0,0.25,72,80.0
3738,C#2,408.0,0.25,63,80.0
3739,C#3,408.0,0.25,63,80.0
3740,F#5,408.25,0.25,72,80.0
3741,F#6,408.25,0.25,72,80.0
3742,C2,408.25,0.25,64,80.0
3743,C3,408.25,0.25,64,80.0
3744,G5,408.5,0.25,75,80.0
3745,G6,408.5,0.25,75,80.0
3746,B1,408.5,0.25,65,80.0
3747,B2,408.5,0.25,65,80.0
3748,G#5,408.75,0.25,76,80.0
3749,G#6,408.75,0.25,76,80.0
3750,B-1,408.75,0.25,66,80.0
3751,B-2,408.75,0.25,66,80.0
3752,A5,409.0,0.25,77,80.0
3753,A6,409.0,0.25,77,80.0
3754,A1,409.0,0.25,69,80.0
3755,A2,409.0,0.25,69,80.0
3756,B-5,409.25,0.25,79,80.0
3757,B-6,409.25,0.25,79,80.0
3758,G#1,409.25,0.25,70,80.0
3759,G#2,409.25,0.25,70,80.0
3760,B5,409.5,0.25,81,80.0
3761,B6,409.5,0.25,81,80.0
3762,G1,409.5,0.25,67,80.0
3763,G2,409.5,0.25,67,80.0
3764,C#6,409.75,0.25,83,80.0
3765,C#7,409.75,0.25,83,80.0
3766,F#1,409.75,0.25,67,80.0
3767,F#2,409.75,0.25,67,80.0
3768,D6,410.0,0.25,86,80.0
3769,D7,410.0,0.25,86,80.0
3770,E1,410.0,0.25,69,80.0
3771,E2,410.0,0.25,69,80.0
3772,E-6,410.25,229/1000,90,80.0
3773,E-7,410.25,229/1000,90,80.0
3774,E-1,410.25,229/1000,71,80.0
3775,E-2,410.25,229/1000,71,80.0
3776,B3,410.5,0.5,92,80.0
3777,E-4,410.5,0.5,92,80.0
3778,G#4,410.5,0.5,92,80.0
3779,G#1,410.5,0.5,71,80.0
3780,G#2,410.5,0.5,71,80.0
3781,E-2,411.0,0.25,73,80.0
3782,E-3,411.0,0.25,73,80.0
3783,G#2,411.25,0.25,73,80.0
3784,G#3,411.25,0.25,73,80.0
3785,B5,411.5,0.375,79,80.0
3786,E-5,411.5,0.375,79,80.0
3787,B4,411.5,0.375,79,80.0
3788,E-4,411.5,0.375,69,80.0
3789,E-3,411.5,0.375,69,80.0
3790,B-5,412.0,0.25,72,80.0
3791,E-5,412.0,0.25,72,80.0
3792,B-4,412.0,0.25,72,80.0
3793,G#1,412.0,0.5,82,80.0
3794,G#2,412.0,0.5,82,80.0
3795,B4,412.25,0.25,74,80.0
3796,B5,412.25,0.25,74,80.0
3797,C#6,412.5,0.375,82,80.0
3798,C#5,412.5,0.375,82,80.0
3799,E-2,412.5,0.25,74,80.0
3800,E-3,412.5,0.25,74,80.0
3801,G#2,412.75,0.25,74,80.0
3802,G#3,412.75,0.25,74,80.0
3803,E-5,413.0,0.25,72,80.0
3804,B5,413.0,0.25,72,80.0
3805,B4,413.0,0.25,72,80.0
3806,E-4,413.0,0.375,70,80.0
3807,E-3,413.0,0.375,70,80.0
3808,B-5,413.25,0.25,74,80.0
3809,B-4,413.25,0.25,74,80.0
3810,B5,413.5,0.25,72,80.0
3811,E-5,413.5,0.25,72,80.0
3812,B4,413.5,0.25,72,80.0
3813,G#1,413.5,0.5,82,80.0
3814,G#2,413.5,0.5,82,80.0
3815,C#6,413.75,0.25,78,80.0
3816,C#5,413.75,0.25,78,80.0
3817,E-5,414.0,0.375,84,80.0
3818,E-6,414.0,0.375,84,80.0
3819,E-2,414.0,0.25,73,80.0
3820,E-3,414.0,0.25,73,80.0
3821,G#2,414.25,0.25,73,80.0
3822,G#3,414.25,0.25,73,80.0
3823,C#6,414.5,0.25,76,80.0
3824,C#5,414.5,0.25,76,80.0
3825,E-4,414.5,0.375,67,80.0
3826,E-3,414.5,0.375,67,80.0
3827,B4,414.75,0.25,76,80.0
3828,B5,414.75,0.25,76,80.0
3829,B-5,415.0,0.25,72,80.0
3830,E-5,415.0,0.25,72,80.0
3831,B-4,415.0,0.25,72,80.0
3832,G#1,415.0,0.5,82,80.0
3833,G#2,415.0,0.5,82,80.0
3834,B5,415.25,0.25,74,80.0
3835,B4,415.25,0.25,74,80.0
3836,C#5,415.5,0.375,82,80.0
3837,C#6,415.5,0.375,82,80.0
3838,E-2,415.5,0.25,74,80.0
3839,E-3,415.5,0.25,74,80.0
3840,G#2,415.75,0.25,74,80.0
3841,G#3,415.75,0.25,74,80.0
3842,E-5,416.0,0.25,72,80.0
3843,B5,416.0,0.25,72,80.0
3844,B4,416.0,0.25,72,80.0
3845,E-4,416.0,0.375,72,80.0
3846,E-3,416.0,0.375,72,80.0
3847,B-4,416.25,0.25,74,80.0
3848,B-5,416.25,0.25,74,80.0
3849,B4,416.5,0.25,71,80.0
3850,E-5,416.5,0.25,71,80.0
3851,B5,416.5,0.25,71,80.0
3852,G#1,416.5,0.5,76,80.0
3853,G#2,416.5,0.5,76,80.0
3854,B-5,416.75,0.25,71,80.0
3855,B-4,416.75,0.25,71,80.0
3856,G#5,417.0,0.5,71,80.0
3857,G#4,417.0,0.5,71,80.0
3858,E-2,417.0,0.25,68,80.0
3859,E-3,417.0,0.25,68,80.0
3860,G#2,417.25,0.25,68,80.0
3861,G#3,417.25,0.25,68,80.0
3862,B6,417.5,0.375,71,80.0
3863,E-6,417.5,0.375,71,80.0
3864,B5,417.5,0.375,71,80.0
3865,E-4,417.5,0.375,66,80.0
3866,E-3,417.5,0.375,66,80.0
3867,B-6,418.0,0.25,65,80.0
3868,E-6,418.0,0.25,65,80.0
3869,B-5,418.0,0.25,65,80.0
3870,G#1,418.0,0.5,76,80.0
3871,G#2,418.0,0.5,76,80.0
3872,B5,418.25,0.25,69,80.0
3873,B6,418.25,0.25,69,80.0
3874,C#7,418.5,0.375,78,80.0
3875,C#6,418.5,0.375,78,80.0
3876,E-2,418.5,0.25,68,80.0
3877,E-3,418.5,0.25,68,80.0
3878,G#2,418.75,0.25,68,80.0
3879,G#3,418.75,0.25,68,80.0
3880,E-6,419.0,0.25,64,80.0
3881,B6,419.0,0.25,64,80.0
3882,B5,419.0,0.25,64,80.0
3883,E-4,419.0,0.375,66,80.0
3884,E-3,419.0,0.375,66,80.0
3885,B-6,419.25,0.25,68,80.0
3886,B-5,419.25,0.25,68,80.0
3887,B6,419.5,0.25,72,80.0
3888,E-6,419.5,0.25,72,80.0
3889,B5,419.5,0.25,72,80.0
3890,G#1,419.5,0.5,82,80.0
3891,G#2,419.5,0.5,82,80.0
3892,C#7,419.75,0.25,78,80.0
3893,C#6,419.75,0.25,78,80.0
3894,E-6,420.0,0.375,84,80.0
3895,E-7,420.0,0.375,84,80.0
3896,E-2,420.0,0.25,73,80.0
3897,E-3,420.0,0.25,73,80.0
3898,G#2,420.25,0.25,73,80.0
3899,G#3,420.25,0.25,73,80.0
3900,C#7,420.5,0.25,74,80.0
3901,C#6,420.5,0.25,74,80.0
3902,E-4,420.5,0.375,72,80.0
3903,E-3,420.5,0.375,72,80.0
3904,B5,420.75,0.25,74,80.0
3905,B6,420.75,0.25,74,80.0
3906,B-6,421.0,0.25,72,80.0
3907,E-6,421.0,0.25,72,80.0
3908,B-5,421.0,0.25,72,80.0
3909,G#1,421.0,0.5,82,80.0
3910,G#2,421.0,0.5,82,80.0
3911,B6,421.25,0.25,74,80.0
3912,B5,421.25,0.25,74,80.0
3913,C#6,421.5,0.375,84,80.0
3914,C#7,421.5,0.375,84,80.0
3915,E-2,421.5,0.25,74,80.0
3916,E-3,421.5,0.25,74,80.0
3917,G#2,421.75,0.25,74,80.0
3918,G#3,421.75,0.25,74,80.0
3919,E-6,422.0,0.25,73,80.0
3920,B6,422.0,0.25,73,80.0
3921,B5,422.0,0.25,73,80.0
3922,E-4,422.0,0.375,72,80.0
3923,E-3,422.0,0.375,72,80.0
3924,B-5,422.25,0.25,76,80.0
3925,B-6,422.25,0.25,76,80.0
3926,B5,422.5,0.25,86,80.0
3927,E-6,422.5,0.25,86,80.0
3928,B6,422.5,0.25,86,80.0
3929,G#1,422.5,0.5,82,80.0
3930,G#2,422.5,0.5,82,80.0
3931,B-6,422.75,0.25,76,80.0
3932,B-5,422.75,0.25,76,80.0
3933,G#6,423.0,0.5,76,80.0
3934,G#5,423.0,0.5,76,80.0
3935,E-2,423.0,0.25,74,80.0
3936,E-3,423.0,0.25,74,80.0
3937,G#2,423.25,0.25,74,80.0
3938,G#3,423.25,0.25,74,80.0
3939,E-4,423.5,0.5,72,80.0
3940,B4,423.5,0.5,72,80.0
3941,E-5,423.5,0.5,72,80.0
3942,B2,423.5,0.5,79,80.0
3943,B3,423.5,0.5,79,80.0
3944,E-3,423.5,0.5,79,80.0
3945,E-4,424.0,0.25,64,80.0
3946,B-4,424.0,0.25,64,80.0
3947,E-5,424.0,0.25,64,80.0
3948,B-2,424.0,0.25,73,80.0
3949,E-3,424.0,0.25,73,80.0
3950,B-3,424.0,0.25,73,80.0
3951,E-4,424.25,0.25,64,80.0
3952,B4,424.25,0.25,64,80.0
3953,E-5,424.25,0.25,64,80.0
3954,B2,424.25,0.25,73,80.0
3955,E-3,424.25,0.25,73,80.0
3956,B3,424.25,0.25,73,80.0
3957,E-4,424.5,0.5,74,80.0
3958,C#5,424.5,0.5,74,80.0
3959,E-5,424.5,0.5,74,80.0
3960,C#3,424.5,0.5,79,80.0
3961,E-3,424.5,0.5,79,80.0
3962,C#4,424.5,0.5,79,80.0
3963,E-4,425.0,0.25,65,80.0
3964,B4,425.0,0.25,65,80.0
3965,E-5,425.0,0.25,65,80.0
3966,E-3,425.0,0.25,72,80.0
3967,B2,425.0,0.25,72,80.0
3968,B3,425.0,0.25,72,80.0
3969,E-4,425.25,0.25,65,80.0
3970,B-4,425.25,0.25,65,80.0
3971,E-5,425.25,0.25,65,80.0
3972,B-2,425.25,0.25,72,80.0
3973,B-3,425.25,0.25,72,80.0
3974,E-3,425.25,0.25,72,80.0
3975,E-4,425.5,0.25,75,80.0
3976,B4,425.5,0.25,75,80.0
3977,E-5,425.5,0.25,75,80.0
3978,B2,425.5,0.25,79,80.0
3979,E-3,425.5,0.25,79,80.0
3980,B3,425.5,0.25,79,80.0
3981,E-4,425.75,0.25,65,80.0
3982,B-4,425.75,0.25,65,80.0
3983,E-5,425.75,0.25,65,80.0
3984,B-2,425.75,0.25,74,80.0
3985,E-3,425.75,0.25,74,80.0
3986,B-3,425.75,0.25,74,80.0
3987,E-4,426.0,9/20,65,80.0
3988,G#4,426.0,9/20,65,80.0
3989,E-5,426.0,9/20,65,80.0
3990,G#2,426.0,9/20,74,80.0
3991,E-3,426.0,9/20,74,80.0
3992,G#3,426.0,9/20,74,80.0
3993,E-6,426.5,0.375,97,80.0
3994,G#5,426.5,0.375,97,80.0
3995,E-5,426.5,0.375,97,80.0
3996,G#1,426.5,0.375,93,80.0
3997,E-2,426.5,0.375,93,80.0
3998,G#2,426.5,0.375,93,80.0
3999,E-4,427.0,0.25,64,80.0
4000,B-4,427.0,0.25,64,80.0
4001,E-5,427.0,0.25,64,80.0
4002,B-2,427.0,0.25,73,80.0
4003,E-3,427.0,0.25,73,80.0
4004,B-3,427.0,0.25,73,80.0
4005,E-4,427.25,0.25,67,80.0
4006,B4,427.25,0.25,67,80.0
4007,E-5,427.25,0.25,67,80.0
4008,B2,427.25,0.25,73,80.0
4009,E-3,427.25,0.25,73,80.0
4010,B3,427.25,0.25,73,80.0
4011,E-4,427.5,0.5,70,80.0
4012,C#5,427.5,0.5,70,80.0
4013,E-5,427.5,0.5,70,80.0
4014,C#3,427.5,0.5,79,80.0
4015,E-3,427.5,0.5,79,80.0
4016,C#4,427.5,0.5,79,80.0
4017,E-4,428.0,0.25,65,80.0
4018,B4,428.0,0.25,65,80.0
4019,E-5,428.0,0.25,65,80.0
4020,E-3,428.0,0.25,72,80.0
4021,B2,428.0,0.25,72,80.0
4022,B3,428.0,0.25,72,80.0
4023,E-4,428.25,0.25,65,80.0
4024,B-4,428.25,0.25,65,80.0
4025,E-5,428.25,0.25,65,80.0
4026,B-2,428.25,0.25,72,80.0
4027,B-3,428.25,0.25,72,80.0
4028,E-3,428.25,0.25,72,80.0
4029,E-4,428.5,0.25,71,80.0
4030,B4,428.5,0.25,71,80.0
4031,E-5,428.5,0.25,71,80.0
4032,B2,428.5,0.25,79,80.0
4033,E-3,428.5,0.25,79,80.0
4034,B3,428.5,0.25,79,80.0
4035,E-4,428.75,0.25,65,80.0
4036,B-4,428.75,0.25,65,80.0
4037,E-5,428.75,0.25,65,80.0
4038,B-2,428.75,0.25,74,80.0
4039,E-3,428.75,0.25,74,80.0
4040,B-3,428.75,0.25,74,80.0
4041,E-4,429.0,9/20,65,80.0
4042,G#4,429.0,9/20,65,80.0
4043,E-5,429.0,9/20,65,80.0
4044,G#2,429.0,9/20,74,80.0
4045,E-3,429.0,9/20,74,80.0
4046,G#3,429.0,9/20,74,80.0
4047,E-6,429.5,0.375,97,80.0
4048,G#5,429.5,0.375,97,80.0
4049,E-5,429.5,0.375,97,80.0
4050,G#1,429.5,0.375,93,80.0
4051,E-2,429.5,0.375,93,80.0
4052,G#2,429.5,0.375,93,80.0
4053,E-4,430.0,0.25,71,80.0
4054,B4,430.0,0.25,71,80.0
4055,E-5,430.0,0.25,71,80.0
4056,B2,430.0,0.25,79,80.0
4057,E-3,430.0,0.25,79,80.0
4058,B3,430.0,0.25,79,80.0
4059,E-4,430.25,0.25,65,80.0
4060,B-4,430.25,0.25,65,80.0
4061,E-5,430.25,0.25,65,80.0
4062,B-2,430.25,0.25,74,80.0
4063,E-3,430.25,0.25,74,80.0
4064,B-3,430.25,0.25,74,80.0
4065,E-4,430.5,9/20,65,80.0
4066,G#4,430.5,9/20,65,80.0
4067,E-5,430.5,9/20,65,80.0
4068,G#2,430.5,9/20,70,80.0
4069,E-3,430.5,9/20,70,80.0
4070,G#3,430.5,9/20,70,80.0
4071,E-6,431.0,0.375,101,80.0
4072,G#5,431.0,0.375,101,80.0
4073,G#6,431.0,0.375,101,80.0
4074,G#1,431.0,0.375,93,80.0
4075,E-2,431.0,0.375,93,80.0
4076,G#2,431.0,0.375,93,80.0
4077,E-4,431.5,0.25,75,80.0
4078,B4,431.5,0.25,75,80.0
4079,E-5,431.5,0.25,75,80.0
4080,B2,431.5,0.25,79,80.0
4081,E-3,431.5,0.25,79,80.0
4082,B3,431.5,0.25,79,80.0
4083,E-4,431.75,0.25,65,80.0
4084,B-4,431.75,0.25,65,80.0
4085,E-5,431.75,0.25,65,80.0
4086,B-2,431.75,0.25,74,80.0
4087,E-3,431.75,0.25,74,80.0
4088,B-3,431.75,0.25,74,80.0
4089,E-4,432.0,9/20,65,80.0
4090,G#4,432.0,9/20,65,80.0
4091,E-5,432.0,9/20,65,80.0
4092,G#2,432.0,9/20,74,80.0
4093,E-3,432.0,9/20,74,80.0
4094,G#3,432.0,9/20,74,80.0
4095,E-6,432.5,0.375,103,80.0
4096,B5,432.5,0.375,103,80.0
4097,B6,432.5,0.375,103,80.0
4098,G#1,432.5,0.375,95,80.0
4099,E-2,432.5,0.375,95,80.0
4100,G#2,432.5,0.375,95,80.0
4101,E-4,433.0,0.25,71,80.0
4102,B4,433.0,0.25,71,80.0
4103,E-5,433.0,0.25,71,80.0
4104,B2,433.0,0.25,79,80.0
4105,E-3,433.0,0.25,79,80.0
4106,B3,433.0,0.25,79,80.0
4107,E-4,433.25,0.25,65,80.0
4108,B-4,433.25,0.25,65,80.0
4109,E-5,433.25,0.25,65,80.0
4110,B-2,433.25,0.25,74,80.0
4111,E-3,433.25,0.25,74,80.0
4112,B-3,433.25,0.25,74,80.0
4113,E-4,433.5,9/20,65,80.0
4114,G#4,433.5,9/20,65,80.0
4115,E-5,433.5,9/20,65,80.0
4116,G#2,433.5,9/20,74,80.0
4117,E-3,433.5,9/20,74,80.0
4118,G#3,433.5,9/20,74,80.0
4119,E-7,434.0,0.5,105,80.0
4120,G#6,434.0,0.5,105,80.0
4121,E-6,434.0,0.5,105,80.0
4122,G#1,434.0,0.5,95,80.0
4123,E-2,434.0,0.5,95,80.0
4124,G#2,434.0,0.5,95,80.0
4125,E-7,434.5,0.5,105,80.0
4126,G#6,434.5,0.5,105,80.0
4127,E-6,434.5,0.5,105,80.0
4128,G#1,434.5,0.5,95,80.0
4129,E-2,434.5,0.5,95,80.0
4130,G#2,434.5,0.5,95,80.0
4131,E-6,435.0,9/20,89,80.0
4132,G#6,435.0,9/20,89,80.0
4133,E-7,435.0,9/20,89,80.0
4134,G#2,435.0,9/20,65,80.0
4135,E-3,435.0,9/20,65,80.0
4136,G#3,435.0,9/20,65,80.0
4137,E-6,435.5,9/20,91,80.0
4138,G#6,435.5,9/20,91,80.0
4139,E-7,435.5,9/20,91,80.0
4140,G#4,435.5,9/20,68,80.0
4141,E-4,435.5,9/20,68,80.0
4142,G#3,435.5,9/20,68,80.0
4143,E-6,436.0,9/20,89,80.0
4144,G#6,436.0,9/20,89,80.0
4145,E-7,436.0,9/20,89,80.0
4146,G#5,436.0,9/20,76,80.0
4147,E-5,436.0,9/20,76,80.0
4148,G#4,436.0,9/20,76,80.0
4149,E-6,436.5,9/20,91,80.0
4150,G#6,436.5,9/20,91,80.0
4151,E-7,436.5,9/20,91,80.0
4152,G#4,436.5,9/20,74,80.0
4153,E-4,436.5,9/20,74,80.0
4154,G#3,436.5,9/20,74,80.0
4155,E-6,437.0,9/20,99,80.0
4156,G#6,437.0,9/20,99,80.0
4157,E-7,437.0,9/20,99,80.0
4158,G#2,437.0,9/20,73,80.0
4159,E-3,437.0,9/20,73,80.0
4160,G#3,437.0,9/20,73,80.0
4161,E-6,437.5,0.5,103,80.0
4162,G#6,437.5,0.5,103,80.0
4163,E-7,437.5,0.5,103,80.0
4164,G#1,437.5,0.5,77,80.0
4165,E-2,437.5,0.5,77,80.0
4166,G#2,437.5,0.5,77,80.0
4167,B3,439.0,0.5,91,80.0
4168,E-4,439.0,0.5,91,80.0
4169,G#4,439.0,0.5,91,80.0
4170,G#2,439.0,0.5,85,80.0
4171,E-3,439.0,0.5,85,80.0
4172,G#3,439.0,0.5,85,80.0
4173,G#6,440.5,3.0,92,80.0
4174,E-6,440.5,3.0,92,80.0
4175,B5,440.5,3.0,92,80.0
4176,G#5,440.5,3.0,92,80.0
4177,B3,440.5,3.0,87,80.0
4178,E-4,440.5,3.0,87,80.0
4179,G#4,440.5,3.0,87,80.0
4180,B4,440.5,3.0,87,80.0
