,note_name,start_time,duration,velocity,tempo
0,C1,0.0,0.5,60,143.5
1,C2,0.0,0.5,60,143.5
2,C3,0.25,0.25,66,143.5
3,G1,0.5,0.5,62,143.5
4,G2,0.5,0.5,62,143.5
5,G3,0.75,0.25,71,143.5
6,F1,1.0,0.5,66,143.5
7,F2,1.0,0.5,66,143.5
8,F3,1.25,0.25,73,143.5
9,E-1,1.5,0.5,70,143.5
10,E-2,1.5,0.5,70,143.5
11,E-3,1.75,0.25,78,143.5
12,D1,2.0,0.5,74,143.5
13,D2,2.0,0.5,74,143.5
14,D3,2.25,0.25,82,143.5
15,C1,2.5,0.5,93,143.5
16,C2,2.5,0.5,93,143.5
17,C3,2.75,0.25,76,143.5
18,C6,3.0,0.25,81,143.5
19,E-5,3.0,0.25,81,143.5
20,C5,3.0,0.25,81,143.5
21,C4,3.0,0.25,80,143.5
22,G3,3.0,0.25,80,143.5
23,E-3,3.0,0.25,80,143.5
24,C3,3.0,0.25,80,143.5
25,G5,3.75,0.25,74,143.5
26,E-5,3.75,0.25,74,143.5
27,C5,3.75,0.25,74,143.5
28,G4,3.75,0.25,74,143.5
29,C4,3.75,0.25,63,143.5
30,G3,3.75,0.25,63,143.5
31,E-3,3.75,0.25,63,143.5
32,C3,3.75,0.25,63,143.5
33,G4,4.0,0.25,80,143.5
34,C5,4.0,0.25,80,143.5
35,E-5,4.0,0.25,80,143.5
36,G5,4.0,0.25,80,143.5
37,C4,4.0,0.25,70,143.5
38,G3,4.0,0.25,70,143.5
39,E-3,4.0,0.25,70,143.5
40,C3,4.0,0.25,70,143.5
41,E-4,5.25,0.25,74,143.5
42,G4,5.25,0.25,74,143.5
43,E-5,5.25,0.25,74,143.5
44,C3,5.25,0.25,56,143.5
45,E-3,5.25,0.25,56,143.5
46,C4,5.25,0.25,56,143.5
47,G3,5.25,0.25,56,143.5
48,E-4,5.5,0.25,79,143.5
49,G4,5.5,0.25,79,143.5
50,E-5,5.5,0.25,79,143.5
51,C4,5.5,0.25,66,143.5
52,G3,5.5,0.25,66,143.5
53,E-3,5.5,0.25,66,143.5
54,C3,5.5,0.25,66,143.5
55,E-4,6.75,0.25,69,143.5
56,G4,6.75,0.25,69,143.5
57,C5,6.75,0.25,69,143.5
58,C3,6.75,0.25,56,143.5
59,E-3,6.75,0.25,56,143.5
60,G3,6.75,0.25,56,143.5
61,C4,6.75,0.25,56,143.5
62,E-4,7.0,0.25,76,143.5
63,G4,7.0,0.25,76,143.5
64,C5,7.0,0.25,76,143.5
65,C4,7.0,0.25,63,143.5
66,G3,7.0,0.25,63,143.5
67,E-3,7.0,0.25,63,143.5
68,C3,7.0,0.25,63,143.5
69,E-4,7.5,0.25,71,143.5
70,G4,7.5,0.25,71,143.5
71,B4,7.5,0.25,71,143.5
72,C3,7.5,0.25,56,143.5
73,E-3,7.5,0.25,56,143.5
74,G3,7.5,0.25,56,143.5
75,B3,7.5,0.25,56,143.5
76,E-4,8.0,0.25,76,143.5
77,G4,8.0,0.25,76,143.5
78,C5,8.0,0.25,76,143.5
79,C4,8.0,0.25,63,143.5
80,G3,8.0,0.25,63,143.5
81,E-3,8.0,0.25,63,143.5
82,C3,8.0,0.25,63,143.5
83,B1,9.0,0.5,60,143.5
84,D2,9.0,0.5,60,143.5
85,B2,9.25,0.25,64,143.5
86,D3,9.25,0.25,64,143.5
87,G#2,9.5,0.5,68,143.5
88,G#3,9.75,0.25,71,143.5
89,G2,10.0,0.5,72,143.5
90,G3,10.25,0.25,73,143.5
91,F2,10.5,0.5,76,143.5
92,F3,10.75,0.25,78,143.5
93,E-2,11.0,0.5,81,143.5
94,E-3,11.25,0.25,82,143.5
95,D2,11.5,0.438,102,143.5
96,D3,11.75,0.188,76,143.5
97,B2,11.938,0.062,77,143.5
98,F3,11.938,0.062,77,143.5
99,G#3,11.938,0.062,77,143.5
100,D6,12.0,0.25,81,143.5
101,F5,12.0,0.25,81,143.5
102,D5,12.0,0.25,81,143.5
103,D4,12.208,0.25,91,143.5
104,B2,12.208,26/125,77,143.5
105,F3,12.208,26/125,77,143.5
106,G#3,12.208,26/125,77,143.5
107,G#5,12.75,0.25,75,143.5
108,D5,12.75,0.25,75,143.5
109,G#4,12.75,0.25,75,143.5
110,G#3,12.958,0.25,64,143.5
111,F3,12.958,0.25,64,143.5
112,B2,12.958,0.25,64,143.5
113,G#4,13.0,0.25,81,143.5
114,D5,13.0,0.25,81,143.5
115,G#5,13.0,0.25,81,143.5
116,G#3,13.208,0.25,71,143.5
117,F3,13.208,0.25,71,143.5
118,B2,13.208,0.25,71,143.5
119,F4,14.25,0.25,74,143.5
120,G#4,14.25,0.25,74,143.5
121,F5,14.25,0.25,74,143.5
122,F3,14.458,0.25,57,143.5
123,D4,14.458,0.25,57,143.5
124,G#3,14.458,0.25,57,143.5
125,F4,14.5,0.25,79,143.5
126,G#4,14.5,0.25,79,143.5
127,F5,14.5,0.25,79,143.5
128,D4,14.708,0.25,66,143.5
129,G#3,14.708,0.25,66,143.5
130,F3,14.708,0.25,66,143.5
131,D4,15.75,0.25,69,143.5
132,G#4,15.75,0.25,69,143.5
133,D5,15.75,0.25,69,143.5
134,B2,15.958,0.25,56,143.5
135,F3,15.958,0.25,56,143.5
136,G#3,15.958,0.25,56,143.5
137,D4,16.0,0.25,76,143.5
138,G#4,16.0,0.25,76,143.5
139,D5,16.0,0.25,76,143.5
140,G#3,16.208,0.25,64,143.5
141,F3,16.208,0.25,64,143.5
142,B2,16.208,0.25,64,143.5
143,C#4,16.5,0.25,71,143.5
144,G#4,16.5,0.25,71,143.5
145,C#5,16.5,0.25,71,143.5
146,B2,16.708,0.25,56,143.5
147,E3,16.708,0.25,56,143.5
148,G#3,16.708,0.25,56,143.5
149,D4,17.0,0.25,76,143.5
150,G#4,17.0,0.25,76,143.5
151,D5,17.0,0.25,76,143.5
152,G#3,17.208,0.25,64,143.5
153,F3,17.208,0.25,64,143.5
154,B2,17.208,0.25,64,143.5
155,E-4,18.5,0.25,48,143.5
156,G4,18.5,0.25,48,143.5
157,E-5,18.5,0.25,48,143.5
158,C2,18.708,0.25,48,143.5
159,G2,18.708,0.25,48,143.5
160,C3,18.708,0.25,48,143.5
161,C4,19.0,0.125,40,143.5
162,D4,19.125,0.125,41,143.5
163,C3,19.208,0.125,34,143.5
164,E-4,19.25,0.125,44,143.5
165,D3,19.333,0.125,36,143.5
166,F4,19.375,0.125,45,143.5
167,E-3,19.458,0.125,37,143.5
168,G4,19.5,0.25,47,143.5
169,F3,19.583,0.125,39,143.5
170,G3,19.708,0.25,41,143.5
171,F4,20.0,0.188,50,143.5
172,C5,20.0,0.188,50,143.5
173,F5,20.0,0.188,50,143.5
174,G#1,20.208,0.188,42,143.5
175,F2,20.208,0.188,42,143.5
176,G#2,20.208,0.188,42,143.5
177,C6,20.5,0.188,52,143.5
178,C5,20.5,0.188,52,143.5
179,E-5,20.5,0.188,52,143.5
180,G#1,20.708,0.188,45,143.5
181,F2,20.708,0.188,45,143.5
182,G#2,20.708,0.188,45,143.5
183,D5,21.0,0.25,54,143.5
184,C5,21.0,0.25,54,143.5
185,C6,21.0,0.25,54,143.5
186,B-1,21.208,0.25,48,143.5
187,F2,21.208,0.25,48,143.5
188,B-2,21.208,0.25,48,143.5
189,F4,21.5,0.125,42,143.5
190,E-4,21.625,0.125,43,143.5
191,F3,21.708,0.125,36,143.5
192,D4,21.75,0.125,45,143.5
193,E-3,21.833,0.125,36,143.5
194,C4,21.875,0.125,46,143.5
195,D3,21.958,0.125,38,143.5
196,B-3,22.0,0.25,49,143.5
197,C3,22.083,0.125,41,143.5
198,B-2,22.208,0.25,43,143.5
199,B-4,22.5,0.188,57,143.5
200,D5,22.5,0.188,57,143.5
201,B-5,22.5,0.188,57,143.5
202,G1,22.708,0.188,48,143.5
203,E-2,22.708,0.188,48,143.5
204,G2,22.708,0.188,48,143.5
205,E-6,23.0,0.188,59,143.5
206,D5,23.0,0.188,59,143.5
207,B-5,23.0,0.188,59,143.5
208,G1,23.208,0.188,50,143.5
209,E-2,23.208,0.188,50,143.5
210,G2,23.208,0.188,50,143.5
211,G#5,23.5,0.25,61,143.5
212,C5,23.5,0.25,61,143.5
213,E-6,23.5,0.25,61,143.5
214,G#1,23.708,0.25,56,143.5
215,E-2,23.708,0.25,56,143.5
216,G#2,23.708,0.25,56,143.5
217,G#3,24.0,0.125,47,143.5
218,B-3,24.125,0.125,48,143.5
219,G#2,24.208,0.125,40,143.5
220,C4,24.25,0.125,51,143.5
221,B-2,24.333,0.125,41,143.5
222,D4,24.375,0.125,52,143.5
223,C3,24.458,0.125,43,143.5
224,E-4,24.5,0.25,56,143.5
225,D3,24.583,0.125,46,143.5
226,E-3,24.708,0.25,48,143.5
227,G#5,25.0,0.188,64,143.5
228,D5,25.0,0.188,64,143.5
229,C6,25.0,0.188,64,143.5
230,D6,25.0,0.188,64,143.5
231,F1,25.208,0.188,54,143.5
232,D2,25.208,0.188,54,143.5
233,F2,25.208,0.188,54,143.5
234,G#6,25.5,0.188,67,143.5
235,G#5,25.5,0.188,67,143.5
236,C6,25.5,0.188,67,143.5
237,F1,25.708,0.188,57,143.5
238,D2,25.708,0.188,57,143.5
239,F2,25.708,0.188,57,143.5
240,B5,26.0,0.25,69,143.5
241,G#5,26.0,0.25,69,143.5
242,G#6,26.0,0.25,69,143.5
243,G1,26.208,0.25,62,143.5
244,D2,26.208,0.25,62,143.5
245,G2,26.208,0.25,62,143.5
246,D4,26.5,0.125,51,143.5
247,C4,26.625,0.125,52,143.5
248,D3,26.708,0.125,43,143.5
249,B3,26.75,0.125,54,143.5
250,C3,26.833,0.125,45,143.5
251,G#3,26.875,0.125,56,143.5
252,B2,26.958,0.125,47,143.5
253,G3,27.0,0.25,61,143.5
254,G#2,27.083,0.125,50,143.5
255,G2,27.208,0.25,53,143.5
256,G5,27.5,0.188,68,143.5
257,B-5,27.5,0.188,68,143.5
258,C#6,27.5,0.188,68,143.5
259,G6,27.5,0.188,68,143.5
260,E2,27.708,0.188,58,143.5
261,C#3,27.708,0.188,58,143.5
262,E3,27.708,0.188,58,143.5
263,B-6,28.0,0.188,70,143.5
264,C7,28.0,0.188,70,143.5
265,C6,28.0,0.188,70,143.5
266,G6,28.0,0.188,70,143.5
267,E2,28.208,0.188,61,143.5
268,C3,28.208,0.188,61,143.5
269,E3,28.208,0.188,61,143.5
270,G#6,28.5,0.25,74,143.5
271,C6,28.5,0.25,74,143.5
272,C7,28.5,0.25,74,143.5
273,F2,28.708,0.25,67,143.5
274,C3,28.708,0.25,67,143.5
275,F3,28.708,0.25,67,143.5
276,B3,29.0,0.125,52,143.5
277,C4,29.125,0.125,54,143.5
278,B2,29.208,0.125,44,143.5
279,D4,29.25,0.125,56,143.5
280,C3,29.333,0.125,46,143.5
281,E4,29.375,0.125,59,143.5
282,D3,29.458,0.125,48,143.5
283,F4,29.5,0.25,63,143.5
284,E3,29.583,0.125,52,143.5
285,F3,29.708,0.25,54,143.5
286,G#6,30.0,0.25,76,143.5
287,F6,30.0,0.25,76,143.5
288,F7,30.0,0.25,76,143.5
289,C#2,30.208,0.25,68,143.5
290,G#2,30.208,0.25,68,143.5
291,C#3,30.208,0.25,68,143.5
292,C#4,30.5,0.125,50,143.5
293,E-4,30.625,0.125,51,143.5
294,C#3,30.708,0.125,47,143.5
295,F4,30.75,0.125,54,143.5
296,E-3,30.833,0.125,49,143.5
297,F#4,30.875,0.125,55,143.5
298,F3,30.958,0.125,51,143.5
299,G#4,31.0,0.25,67,143.5
300,F#3,31.083,0.125,53,143.5
301,G#3,31.208,0.25,60,143.5
302,C#5,31.5,0.125,54,143.5
303,E-5,31.625,0.125,55,143.5
304,C#4,31.708,0.125,49,143.5
305,F5,31.75,0.125,58,143.5
306,E-4,31.833,0.125,51,143.5
307,F#5,31.875,0.125,60,143.5
308,F4,31.958,0.125,53,143.5
309,G#5,32.0,0.25,71,143.5
310,F#4,32.083,0.125,54,143.5
311,G#4,32.208,0.25,63,143.5
312,C#6,32.5,0.125,58,143.5
313,E-6,32.625,0.125,59,143.5
314,C#5,32.708,0.125,51,143.5
315,F6,32.75,0.125,62,143.5
316,E-5,32.833,0.125,53,143.5
317,F#6,32.875,0.125,63,143.5
318,F5,32.958,0.125,54,143.5
319,G#6,33.0,0.25,75,143.5
320,F#5,33.083,0.125,57,143.5
321,G#5,33.208,0.25,64,143.5
322,C#6,33.75,0.25,81,143.5
323,F6,33.75,0.25,81,143.5
324,C#7,33.75,0.25,81,143.5
325,F2,33.958,0.25,72,143.5
326,C#3,33.958,0.25,72,143.5
327,F3,33.958,0.25,72,143.5
328,C#7,34.0,0.25,77,143.5
329,F6,34.0,0.25,77,143.5
330,C#6,34.0,0.25,77,143.5
331,F2,34.208,0.25,65,143.5
332,C#3,34.208,0.25,65,143.5
333,F3,34.208,0.25,65,143.5
334,G#5,34.5,0.25,82,143.5
335,C#6,34.5,0.25,82,143.5
336,G#6,34.5,0.25,82,143.5
337,G#2,34.708,0.25,72,143.5
338,F3,34.708,0.25,72,143.5
339,G#3,34.708,0.25,72,143.5
340,F5,35.25,0.25,73,143.5
341,G#5,35.25,0.25,73,143.5
342,F6,35.25,0.25,73,143.5
343,C#3,35.458,0.25,66,143.5
344,G#3,35.458,0.25,66,143.5
345,C#4,35.458,0.25,66,143.5
346,F5,35.5,0.25,73,143.5
347,G#5,35.5,0.25,73,143.5
348,F6,35.5,0.25,73,143.5
349,C#3,35.708,0.25,66,143.5
350,G#3,35.708,0.25,66,143.5
351,C#4,35.708,0.25,66,143.5
352,C#5,36.75,0.25,71,143.5
353,F5,36.75,0.25,71,143.5
354,G#5,36.75,0.25,71,143.5
355,C#6,36.75,0.25,71,143.5
356,F3,36.958,0.25,57,143.5
357,G#3,36.958,0.25,57,143.5
358,C#4,36.958,0.25,57,143.5
359,F4,36.958,0.25,57,143.5
360,C#5,37.0,0.25,78,143.5
361,F5,37.0,0.25,78,143.5
362,G#5,37.0,0.25,78,143.5
363,C#6,37.0,0.25,78,143.5
364,F4,37.208,0.25,66,143.5
365,C#4,37.208,0.25,66,143.5
366,G#3,37.208,0.25,66,143.5
367,F3,37.208,0.25,66,143.5
368,C5,37.5,0.25,73,143.5
369,E5,37.5,0.25,73,143.5
370,G#5,37.5,0.25,73,143.5
371,C6,37.5,0.25,73,143.5
372,E3,37.708,0.25,57,143.5
373,G#3,37.708,0.25,57,143.5
374,C4,37.708,0.25,57,143.5
375,E4,37.708,0.25,57,143.5
376,C#5,38.0,0.25,78,143.5
377,F5,38.0,0.25,78,143.5
378,G#5,38.0,0.25,78,143.5
379,C#6,38.0,0.25,78,143.5
380,F4,38.208,0.25,66,143.5
381,C#4,38.208,0.25,66,143.5
382,G#3,38.208,0.25,66,143.5
383,F3,38.208,0.25,66,143.5
384,F5,39.0,0.25,72,143.5
385,G#5,39.0,0.25,72,143.5
386,D6,39.0,0.25,72,143.5
387,F6,39.0,0.25,72,143.5
388,B2,39.208,0.25,62,143.5
389,F3,39.208,0.25,62,143.5
390,G#3,39.208,0.25,62,143.5
391,B3,39.208,0.25,62,143.5
392,C#5,39.75,0.25,80,143.5
393,C#6,39.75,0.25,80,143.5
394,C#3,39.958,0.25,72,143.5
395,C#4,39.958,0.25,72,143.5
396,D6,40.0,0.25,76,143.5
397,D5,40.0,0.25,76,143.5
398,D3,40.208,0.25,64,143.5
399,D4,40.208,0.25,64,143.5
400,E-5,40.5,0.25,78,143.5
401,F#5,40.5,0.25,78,143.5
402,A5,40.5,0.25,78,143.5
403,E-6,40.5,0.25,78,143.5
404,E-3,40.708,0.25,67,143.5
405,F#3,40.708,0.25,67,143.5
406,C4,40.708,0.25,67,143.5
407,E-4,40.708,0.25,67,143.5
408,B4,41.25,0.25,72,143.5
409,B5,41.25,0.25,72,143.5
410,B2,41.458,0.25,65,143.5
411,B3,41.458,0.25,65,143.5
412,C5,41.5,0.25,72,143.5
413,C6,41.5,0.25,72,143.5
414,C3,41.708,0.25,65,143.5
415,C4,41.708,0.25,65,143.5
416,G5,42.0,0.25,83,143.5
417,B5,42.0,0.25,83,143.5
418,G6,42.0,0.25,83,143.5
419,G3,42.208,0.25,59,143.5
420,B3,42.208,0.25,59,143.5
421,D4,42.208,0.25,59,143.5
422,G4,42.208,0.25,59,143.5
423,D2,42.708,0.5,77,143.5
424,D3,42.958,0.25,75,143.5
425,C2,43.208,0.5,73,143.5
426,C3,43.458,0.25,72,143.5
427,B1,43.708,0.5,71,143.5
428,B2,43.958,0.25,70,143.5
429,G#1,44.208,0.5,68,143.5
430,G#2,44.458,0.25,66,143.5
431,G1,44.708,0.5,79,143.5
432,G2,44.958,0.25,63,143.5
433,E-6,45.0,0.25,70,143.5
434,F#5,45.0,0.25,70,143.5
435,E-5,45.0,0.25,70,143.5
436,C3,45.208,0.25,56,143.5
437,F#3,45.208,0.25,56,143.5
438,E-3,45.208,0.25,56,143.5
439,A2,45.208,0.25,56,143.5
440,G2,45.208,0.25,56,143.5
441,C6,45.75,0.25,66,143.5
442,E-5,45.75,0.25,66,143.5
443,C5,45.75,0.25,66,143.5
444,C3,45.958,0.25,44,143.5
445,F#3,45.958,0.25,44,143.5
446,E-3,45.958,0.25,44,143.5
447,A2,45.958,0.25,44,143.5
448,G2,45.958,0.25,44,143.5
449,C5,46.0,0.25,70,143.5
450,E-5,46.0,0.25,70,143.5
451,C6,46.0,0.25,70,143.5
452,C3,46.208,0.25,50,143.5
453,F#3,46.208,0.25,50,143.5
454,E-3,46.208,0.25,50,143.5
455,A2,46.208,0.25,50,143.5
456,G2,46.208,0.25,50,143.5
457,A4,47.25,0.25,65,143.5
458,C5,47.25,0.25,65,143.5
459,A5,47.25,0.25,65,143.5
460,C3,47.458,0.25,39,143.5
461,G2,47.458,0.25,39,143.5
462,A2,47.458,0.25,39,143.5
463,F#3,47.458,0.25,39,143.5
464,E-3,47.458,0.25,39,143.5
465,A4,47.5,0.25,69,143.5
466,C5,47.5,0.25,69,143.5
467,A5,47.5,0.25,69,143.5
468,C3,47.708,0.25,46,143.5
469,F#3,47.708,0.25,46,143.5
470,E-3,47.708,0.25,46,143.5
471,A2,47.708,0.25,46,143.5
472,G2,47.708,0.25,46,143.5
473,F#4,48.5,0.125,66,143.5
474,F#5,48.5,0.125,66,143.5
475,G2,48.708,0.125,39,143.5
476,A2,48.708,0.125,39,143.5
477,C3,48.708,0.125,39,143.5
478,E-3,48.708,0.125,39,143.5
479,F#3,48.708,0.125,39,143.5
480,E-4,48.75,0.125,62,143.5
481,E-5,48.75,0.125,62,143.5
482,G2,48.958,0.125,35,143.5
483,A2,48.958,0.125,35,143.5
484,C3,48.958,0.125,35,143.5
485,E-3,48.958,0.125,35,143.5
486,F#3,48.958,0.125,35,143.5
487,D4,49.0,0.125,62,143.5
488,D5,49.0,0.125,62,143.5
489,G2,49.208,0.125,35,143.5
490,A2,49.208,0.125,35,143.5
491,C3,49.208,0.125,35,143.5
492,E-3,49.208,0.125,35,143.5
493,F#3,49.208,0.125,35,143.5
494,C4,49.25,0.125,62,143.5
495,C5,49.25,0.125,62,143.5
496,G2,49.458,0.125,35,143.5
497,A2,49.458,0.125,35,143.5
498,C3,49.458,0.125,35,143.5
499,E-3,49.458,0.125,35,143.5
500,F#3,49.458,0.125,35,143.5
501,G4,49.5,0.25,68,143.5
502,B4,49.5,0.25,68,143.5
503,G5,49.5,0.25,68,143.5
504,G2,49.708,0.25,42,143.5
505,B2,49.708,0.25,42,143.5
506,D3,49.708,0.25,42,143.5
507,G3,49.708,0.25,42,143.5
508,D2,50.208,0.5,77,143.5
509,D3,50.458,0.25,75,143.5
510,C2,50.708,0.5,73,143.5
511,C3,50.958,0.25,72,143.5
512,B1,51.208,0.5,71,143.5
513,B2,51.458,0.25,70,143.5
514,G#1,51.708,0.5,68,143.5
515,G#2,51.958,0.25,66,143.5
516,G1,52.208,0.5,79,143.5
517,G2,52.458,0.25,63,143.5
518,E-6,52.5,0.25,70,143.5
519,F#5,52.5,0.25,70,143.5
520,E-5,52.5,0.25,70,143.5
521,C3,52.708,0.25,56,143.5
522,F#3,52.708,0.25,56,143.5
523,E-3,52.708,0.25,56,143.5
524,A2,52.708,0.25,56,143.5
525,G2,52.708,0.25,56,143.5
526,C6,53.25,0.25,66,143.5
527,E-5,53.25,0.25,66,143.5
528,C5,53.25,0.25,66,143.5
529,C3,53.458,0.25,44,143.5
530,F#3,53.458,0.25,44,143.5
531,E-3,53.458,0.25,44,143.5
532,A2,53.458,0.25,44,143.5
533,G2,53.458,0.25,44,143.5
534,C5,53.5,0.25,70,143.5
535,E-5,53.5,0.25,70,143.5
536,C6,53.5,0.25,70,143.5
537,C3,53.708,0.25,50,143.5
538,F#3,53.708,0.25,50,143.5
539,E-3,53.708,0.25,50,143.5
540,A2,53.708,0.25,50,143.5
541,G2,53.708,0.25,50,143.5
542,A4,54.75,0.25,65,143.5
543,C5,54.75,0.25,65,143.5
544,A5,54.75,0.25,65,143.5
545,C3,54.958,0.25,39,143.5
546,G2,54.958,0.25,39,143.5
547,A2,54.958,0.25,39,143.5
548,F#3,54.958,0.25,39,143.5
549,E-3,54.958,0.25,39,143.5
550,A4,55.0,0.25,69,143.5
551,C5,55.0,0.25,69,143.5
552,A5,55.0,0.25,69,143.5
553,C3,55.208,0.25,46,143.5
554,F#3,55.208,0.25,46,143.5
555,E-3,55.208,0.25,46,143.5
556,A2,55.208,0.25,46,143.5
557,G2,55.208,0.25,46,143.5
558,F#4,56.0,0.125,66,143.5
559,F#5,56.0,0.125,66,143.5
560,G2,56.208,0.125,39,143.5
561,A2,56.208,0.125,39,143.5
562,C3,56.208,0.125,39,143.5
563,E-3,56.208,0.125,39,143.5
564,F#3,56.208,0.125,39,143.5
565,E-4,56.25,0.125,62,143.5
566,E-5,56.25,0.125,62,143.5
567,G2,56.458,0.125,35,143.5
568,A2,56.458,0.125,35,143.5
569,C3,56.458,0.125,35,143.5
570,E-3,56.458,0.125,35,143.5
571,F#3,56.458,0.125,35,143.5
572,D4,56.5,0.125,62,143.5
573,D5,56.5,0.125,62,143.5
574,G2,56.708,0.125,35,143.5
575,A2,56.708,0.125,35,143.5
576,C3,56.708,0.125,35,143.5
577,E-3,56.708,0.125,35,143.5
578,F#3,56.708,0.125,35,143.5
579,C4,56.75,0.125,62,143.5
580,C5,56.75,0.125,62,143.5
581,G2,56.958,0.125,35,143.5
582,A2,56.958,0.125,35,143.5
583,C3,56.958,0.125,35,143.5
584,E-3,56.958,0.125,35,143.5
585,F#3,56.958,0.125,35,143.5
586,G4,57.0,0.25,68,143.5
587,B4,57.0,0.25,68,143.5
588,G5,57.0,0.25,68,143.5
589,G2,57.208,0.25,42,143.5
590,B2,57.208,0.25,42,143.5
591,D3,57.208,0.25,42,143.5
592,G3,57.208,0.25,42,143.5
593,D3,57.708,0.5,50,143.5
594,D2,57.708,0.5,50,143.5
595,D4,57.75,0.25,55,143.5
596,C3,58.208,0.5,52,143.5
597,C2,58.208,0.5,52,143.5
598,C4,58.25,0.25,56,143.5
599,B2,58.708,0.5,55,143.5
600,B1,58.708,0.5,55,143.5
601,B3,58.75,0.25,58,143.5
602,A2,59.208,0.5,57,143.5
603,A1,59.208,0.5,57,143.5
604,A3,59.25,0.25,59,143.5
605,G2,59.708,0.5,64,143.5
606,G1,59.708,0.5,64,143.5
607,G3,59.75,0.25,61,143.5
608,G#3,60.208,0.5,68,143.5
609,G#2,60.208,0.5,68,143.5
610,G#4,60.25,0.25,62,143.5
611,F#3,60.708,0.5,60,143.5
612,F#2,60.708,0.5,60,143.5
613,F#4,60.75,0.25,63,143.5
614,F3,61.208,0.5,62,143.5
615,F2,61.208,0.5,62,143.5
616,F4,61.25,0.25,65,143.5
617,E-3,61.708,0.5,66,143.5
618,E-2,61.708,0.5,66,143.5
619,E-4,61.75,0.25,66,143.5
620,C#3,62.208,0.5,64,143.5
621,C#2,62.208,0.5,64,143.5
622,C#4,62.24,0.25,68,143.5
623,G#5,62.5,0.25,71,143.5
624,F5,62.5,0.25,71,143.5
625,C#6,62.5,0.25,71,143.5
626,F6,62.5,0.25,71,143.5
627,C#3,62.708,0.25,56,143.5
628,F3,62.708,0.25,56,143.5
629,G#3,62.708,0.25,56,143.5
630,C#4,62.708,0.25,56,143.5
631,D6,63.0,0.25,73,143.5
632,B5,63.0,0.25,73,143.5
633,G5,63.0,0.25,73,143.5
634,G6,63.0,0.25,73,143.5
635,G2,63.208,0.25,62,143.5
636,B2,63.208,0.25,62,143.5
637,D3,63.208,0.25,62,143.5
638,G3,63.208,0.25,62,143.5
639,D3,63.708,0.5,56,143.5
640,D2,63.708,0.5,56,143.5
641,D4,63.75,0.25,61,143.5
642,C3,64.208,0.5,58,143.5
643,C2,64.208,0.5,58,143.5
644,C4,64.25,0.25,62,143.5
645,B2,64.708,0.5,60,143.5
646,B1,64.708,0.5,60,143.5
647,B3,64.75,0.25,63,143.5
648,A2,65.208,0.5,62,143.5
649,A1,65.208,0.5,62,143.5
650,A3,65.25,0.25,64,143.5
651,G2,65.708,0.5,70,143.5
652,G1,65.708,0.5,70,143.5
653,G3,65.75,0.25,66,143.5
654,G#3,66.208,0.5,74,143.5
655,G#2,66.208,0.5,74,143.5
656,G#4,66.25,0.25,67,143.5
657,F#3,66.708,0.5,66,143.5
658,F#2,66.708,0.5,66,143.5
659,F#4,66.75,0.25,70,143.5
660,F3,67.208,0.5,68,143.5
661,F2,67.208,0.5,68,143.5
662,F4,67.25,0.25,72,143.5
663,E-3,67.708,0.5,72,143.5
664,E-2,67.708,0.5,72,143.5
665,E-4,67.75,0.25,72,143.5
666,C#3,68.208,0.5,70,143.5
667,C#2,68.208,0.5,70,143.5
668,C#4,68.25,0.25,74,143.5
669,G#5,68.5,0.25,60,143.5
670,F5,68.5,0.25,60,143.5
671,C#6,68.5,0.25,60,143.5
672,F6,68.5,0.25,60,143.5
673,C#3,68.708,0.25,40,143.5
674,F3,68.708,0.25,40,143.5
675,G#3,68.708,0.25,40,143.5
676,C#4,68.708,0.25,40,143.5
677,G6,69.0,1.5,70,143.5
678,D6,69.0,1.5,70,143.5
679,B5,69.0,1.5,70,143.5
680,B6,69.0,1.5,70,143.5
681,G2,69.208,1.5,43,143.5
682,B2,69.208,1.5,43,143.5
683,D3,69.208,1.5,43,143.5
684,G3,69.208,1.5,43,143.5
685,C6,70.5,1.5,70,143.5
686,F6,70.5,1.5,70,143.5
687,G#6,70.5,1.5,70,143.5
688,C7,70.5,1.5,70,143.5
689,F2,70.708,1.5,48,143.5
690,G#2,70.708,1.5,48,143.5
691,C3,70.708,1.5,48,143.5
692,F3,70.708,1.5,48,143.5
693,C#6,72.0,1.5,76,143.5
694,F6,72.0,1.5,76,143.5
695,G#6,72.0,1.5,76,143.5
696,C#7,72.0,1.5,76,143.5
697,C#2,72.208,1.5,52,143.5
698,F2,72.208,1.5,52,143.5
699,G#2,72.208,1.5,52,143.5
700,C#3,72.208,1.5,52,143.5
701,D6,73.5,1.5,80,143.5
702,F6,73.5,1.5,80,143.5
703,G#6,73.5,1.5,80,143.5
704,D7,73.5,1.5,80,143.5
705,C2,73.708,1.5,56,143.5
706,F2,73.708,1.5,56,143.5
707,G#2,73.708,1.5,56,143.5
708,C3,73.708,1.5,56,143.5
709,F7,75.0,0.75,79,143.5
710,D7,75.0,0.75,79,143.5
711,C7,75.0,0.75,79,143.5
712,F6,75.0,0.75,79,143.5
713,G#1,75.208,0.75,58,143.5
714,C2,75.208,0.75,58,143.5
715,D2,75.208,0.75,58,143.5
716,G#2,75.208,0.75,58,143.5
717,F6,75.75,0.75,79,143.5
718,C7,75.75,0.75,79,143.5
719,D7,75.75,0.75,79,143.5
720,F7,75.75,0.75,79,143.5
721,G#1,75.958,0.75,58,143.5
722,C2,75.958,0.75,58,143.5
723,D2,75.958,0.75,58,143.5
724,G#2,75.958,0.75,58,143.5
725,F6,76.5,0.75,79,143.5
726,C7,76.5,0.75,79,143.5
727,D7,76.5,0.75,79,143.5
728,F7,76.5,0.75,79,143.5
729,G#1,76.708,0.75,58,143.5
730,C2,76.708,0.75,58,143.5
731,D2,76.708,0.75,58,143.5
732,G#2,76.708,0.75,58,143.5
733,F6,77.25,0.75,79,143.5
734,C7,77.25,0.75,79,143.5
735,D7,77.25,0.75,79,143.5
736,F7,77.25,0.75,79,143.5
737,G#1,77.458,0.75,58,143.5
738,C2,77.458,0.75,58,143.5
739,D2,77.458,0.75,58,143.5
740,G#2,77.458,0.75,58,143.5
741,D3,78.0,0.25,74,143.5
742,F3,78.0,0.25,74,143.5
743,B3,78.0,0.25,74,143.5
744,G1,78.208,0.25,54,143.5
745,B1,78.208,0.25,54,143.5
746,D2,78.208,0.25,54,143.5
747,G2,78.208,0.25,54,143.5
748,G#6,78.5,14/125,74,143.5
749,G6,78.612,11/100,73,143.5
750,G#5,78.708,14/125,62,143.5
751,F#6,78.723,14/125,72,143.5
752,G5,78.821,11/100,61,143.5
753,F6,78.833,14/125,71,143.5
754,F#5,78.931,14/125,59,143.5
755,E6,78.946,11/100,70,143.5
756,F5,79.042,14/125,58,143.5
757,E-6,79.056,14/125,69,143.5
758,E5,79.154,11/100,56,143.5
759,D6,79.169,11/100,67,143.5
760,E-5,79.265,14/125,55,143.5
761,C#6,79.279,14/125,66,143.5
762,D5,79.377,11/100,54,143.5
763,C6,79.39,14/125,65,143.5
764,C#5,79.487,14/125,53,143.5
765,B5,79.5,0.25,79,143.5
766,C5,79.598,14/125,52,143.5
767,B4,79.708,0.25,60,143.5
768,G#5,80.0,14/125,63,143.5
769,G5,80.112,11/100,62,143.5
770,G#4,80.208,14/125,52,143.5
771,F#5,80.223,11/100,61,143.5
772,G4,80.321,11/100,51,143.5
773,F5,80.333,14/125,60,143.5
774,F#4,80.431,11/100,50,143.5
775,E5,80.444,11/100,59,143.5
776,F4,80.542,14/125,49,143.5
777,E-5,80.556,14/125,58,143.5
778,E4,80.652,11/100,47,143.5
779,D5,80.669,11/100,56,143.5
780,E-4,80.765,14/125,46,143.5
781,C#5,80.779,11/100,55,143.5
782,D4,80.877,11/100,45,143.5
783,C5,80.89,11/100,55,143.5
784,C#4,80.987,11/100,45,143.5
785,B4,81.0,0.25,66,143.5
786,C5,81.0,1/500,55,143.5
787,C4,81.098,11/100,44,143.5
788,B3,81.208,0.25,50,143.5
789,C4,81.208,1/500,44,143.5
790,G#4,81.5,14/125,53,143.5
791,G4,81.612,11/100,52,143.5
792,G#3,81.708,14/125,44,143.5
793,F#4,81.723,11/100,51,143.5
794,G3,81.821,11/100,43,143.5
795,F4,81.833,14/125,50,143.5
796,F#3,81.931,11/100,42,143.5
797,E4,81.944,11/100,50,143.5
798,F3,82.042,14/125,41,143.5
799,E-4,82.056,14/125,49,143.5
800,E3,82.152,11/100,40,143.5
801,D4,82.169,11/100,47,143.5
802,E-3,82.265,14/125,39,143.5
803,C#4,82.279,11/100,46,143.5
804,D3,82.377,11/100,38,143.5
805,C4,82.39,14/125,46,143.5
806,C#3,82.487,11/100,37,143.5
807,B3,82.5,0.25,55,143.5
808,C3,82.598,14/125,36,143.5
809,B2,82.708,0.25,42,143.5
810,G#3,83.0,11/100,53,143.5
811,G3,83.11,11/100,52,143.5
812,G#2,83.208,11/100,44,143.5
813,F#3,83.223,11/100,51,143.5
814,G2,83.319,11/100,43,143.5
815,F3,83.333,11/100,50,143.5
816,F#2,83.431,11/100,42,143.5
817,E3,83.444,11/100,50,143.5
818,F2,83.542,11/100,41,143.5
819,E-3,83.556,11/100,49,143.5
820,E2,83.652,11/100,40,143.5
821,D3,83.667,11/100,47,143.5
822,E-2,83.765,11/100,39,143.5
823,C#3,83.779,11/100,46,143.5
824,D2,83.875,11/100,38,143.5
825,C3,83.89,11/100,46,143.5
826,C#2,83.987,11/100,37,143.5
827,B2,84.0,14/125,43,143.5
828,C2,84.098,11/100,36,143.5
829,C3,84.112,11/100,45,143.5
830,B1,84.208,14/125,35,143.5
831,C#3,84.223,11/100,46,143.5
832,C2,84.321,11/100,36,143.5
833,D3,84.333,11/100,48,143.5
834,C#2,84.431,11/100,36,143.5
835,E-3,84.444,11/100,50,143.5
836,D2,84.542,11/100,38,143.5
837,E3,84.556,11/100,51,143.5
838,E-2,84.652,11/100,39,143.5
839,F3,84.667,11/100,54,143.5
840,E2,84.765,11/100,40,143.5
841,F#3,84.779,11/100,54,143.5
842,F2,84.875,11/100,41,143.5
843,G3,84.89,11/100,56,143.5
844,F#2,84.987,11/100,43,143.5
845,G#3,85.0,11/100,58,143.5
846,G2,85.098,11/100,44,143.5
847,G3,85.112,11/100,57,143.5
848,G#2,85.208,11/100,45,143.5
849,F#3,85.223,11/100,55,143.5
850,G2,85.321,11/100,44,143.5
851,F3,85.335,11/100,54,143.5
852,F#2,85.431,11/100,43,143.5
853,E3,85.446,11/100,54,143.5
854,F2,85.544,11/100,41,143.5
855,E-3,85.556,11/100,52,143.5
856,E2,85.654,11/100,40,143.5
857,D3,85.669,11/100,51,143.5
858,E-2,85.765,11/100,39,143.5
859,C#3,85.779,11/100,50,143.5
860,D2,85.877,11/100,38,143.5
861,C3,85.892,27/250,49,143.5
862,C#2,85.987,11/100,37,143.5
863,B2,86.0,0.5,58,143.5
864,C3,86.0,1/500,49,143.5
865,C2,86.1,27/250,36,143.5
866,B1,86.208,0.5,50,143.5
867,C2,86.208,1/500,36,143.5
868,G3,87.5,0.5,50,143.5
869,G2,87.708,0.5,50,143.5
870,C2,92.208,0.5,65,143.5
871,C3,92.458,0.25,66,143.5
872,G2,92.708,0.5,68,143.5
873,G3,92.958,0.25,71,143.5
874,F2,93.208,0.5,72,143.5
875,F3,93.458,0.25,73,143.5
876,E-2,93.708,0.5,76,143.5
877,E-3,93.958,0.25,78,143.5
878,D2,94.208,0.5,81,143.5
879,D3,94.458,0.25,82,143.5
880,C2,94.708,0.5,102,143.5
881,C3,94.958,0.25,76,143.5
882,C6,95.0,0.25,81,143.5
883,E-5,95.0,0.25,81,143.5
884,C5,95.0,0.25,81,143.5
885,C4,95.208,0.25,80,143.5
886,G3,95.208,0.25,80,143.5
887,E-3,95.208,0.25,80,143.5
888,C3,95.208,0.25,80,143.5
889,G5,95.75,0.25,74,143.5
890,E-5,95.75,0.25,74,143.5
891,C5,95.75,0.25,74,143.5
892,G4,95.75,0.25,74,143.5
893,C4,95.958,0.25,63,143.5
894,G3,95.958,0.25,63,143.5
895,E-3,95.958,0.25,63,143.5
896,C3,95.958,0.25,63,143.5
897,G4,96.0,0.25,80,143.5
898,C5,96.0,0.25,80,143.5
899,E-5,96.0,0.25,80,143.5
900,G5,96.0,0.25,80,143.5
901,C4,96.208,0.25,70,143.5
902,G3,96.208,0.25,70,143.5
903,E-3,96.208,0.25,70,143.5
904,C3,96.208,0.25,70,143.5
905,E-4,97.25,0.25,74,143.5
906,G4,97.25,0.25,74,143.5
907,E-5,97.25,0.25,74,143.5
908,C3,97.458,0.25,56,143.5
909,E-3,97.458,0.25,56,143.5
910,C4,97.458,0.25,56,143.5
911,G3,97.458,0.25,56,143.5
912,E-4,97.5,0.25,79,143.5
913,G4,97.5,0.25,79,143.5
914,E-5,97.5,0.25,79,143.5
915,C4,97.708,0.25,66,143.5
916,G3,97.708,0.25,66,143.5
917,E-3,97.708,0.25,66,143.5
918,C3,97.708,0.25,66,143.5
919,E-4,98.75,0.25,69,143.5
920,G4,98.75,0.25,69,143.5
921,C5,98.75,0.25,69,143.5
922,C3,98.958,0.25,56,143.5
923,E-3,98.958,0.25,56,143.5
924,G3,98.958,0.25,56,143.5
925,C4,98.958,0.25,56,143.5
926,E-4,99.0,0.25,76,143.5
927,G4,99.0,0.25,76,143.5
928,C5,99.0,0.25,76,143.5
929,C4,99.208,0.25,63,143.5
930,G3,99.208,0.25,63,143.5
931,E-3,99.208,0.25,63,143.5
932,C3,99.208,0.25,63,143.5
933,E-4,99.5,0.25,71,143.5
934,G4,99.5,0.25,71,143.5
935,B4,99.5,0.25,71,143.5
936,C3,99.708,0.25,56,143.5
937,E-3,99.708,0.25,56,143.5
938,G3,99.708,0.25,56,143.5
939,B3,99.708,0.25,56,143.5
940,E-4,100.0,0.25,76,143.5
941,G4,100.0,0.25,76,143.5
942,C5,100.0,0.25,76,143.5
943,C4,100.208,0.25,63,143.5
944,G3,100.208,0.25,63,143.5
945,E-3,100.208,0.25,63,143.5
946,C3,100.208,0.25,63,143.5
947,B1,101.208,0.5,60,143.5
948,C#2,101.208,0.5,60,143.5
949,C#3,101.458,0.25,66,143.5
950,G#2,101.708,0.5,68,143.5
951,G#3,101.958,0.25,71,143.5
952,F#2,102.208,0.5,72,143.5
953,F#3,102.458,0.25,73,143.5
954,F2,102.708,0.5,76,143.5
955,F3,102.958,0.25,78,143.5
956,E-2,103.208,0.5,81,143.5
957,E-3,103.458,0.25,82,143.5
958,C#2,103.708,0.438,102,143.5
959,C#3,103.958,0.188,76,143.5
960,C#6,104.0,0.25,81,143.5
961,F5,104.0,0.25,81,143.5
962,C#5,104.0,0.25,81,143.5
963,B2,104.208,0.25,80,143.5
964,F3,104.208,0.25,80,143.5
965,G#3,104.208,0.25,80,143.5
966,C#4,104.208,0.25,80,143.5
967,G#5,104.75,0.25,75,143.5
968,C#5,104.75,0.25,75,143.5
969,G#4,104.75,0.25,75,143.5
970,G#3,104.958,0.25,64,143.5
971,F3,104.958,0.25,64,143.5
972,B2,104.958,0.25,64,143.5
973,G#4,105.0,0.25,81,143.5
974,C#5,105.0,0.25,81,143.5
975,G#5,105.0,0.25,81,143.5
976,G#3,105.208,0.25,71,143.5
977,F3,105.208,0.25,71,143.5
978,B2,105.208,0.25,71,143.5
979,F4,106.25,0.25,74,143.5
980,G#4,106.25,0.25,74,143.5
981,F5,106.25,0.25,74,143.5
982,F3,106.458,0.25,57,143.5
983,C#4,106.458,0.25,57,143.5
984,G#3,106.458,0.25,57,143.5
985,F4,106.5,0.25,79,143.5
986,G#4,106.5,0.25,79,143.5
987,F5,106.5,0.25,79,143.5
988,C#4,106.708,0.25,66,143.5
989,G#3,106.708,0.25,66,143.5
990,F3,106.708,0.25,66,143.5
991,C#4,107.75,0.25,69,143.5
992,G#4,107.75,0.25,69,143.5
993,C#5,107.75,0.25,69,143.5
994,B2,107.958,0.25,56,143.5
995,F3,107.958,0.25,56,143.5
996,G#3,107.958,0.25,56,143.5
997,C#4,108.0,0.25,76,143.5
998,G#4,108.0,0.25,76,143.5
999,C#5,108.0,0.25,76,143.5
1000,G#3,108.208,0.25,64,143.5
1001,F3,108.208,0.25,64,143.5
1002,B2,108.208,0.25,64,143.5
1003,C4,108.5,0.25,71,143.5
1004,G#4,108.5,0.25,71,143.5
1005,C5,108.5,0.25,71,143.5
1006,B2,108.708,0.25,56,143.5
1007,E3,108.708,0.25,56,143.5
1008,G#3,108.708,0.25,56,143.5
1009,C#4,109.0,0.25,76,143.5
1010,G#4,109.0,0.25,76,143.5
1011,C#5,109.0,0.25,76,143.5
1012,G#3,109.208,0.25,64,143.5
1013,F3,109.208,0.25,64,143.5
1014,B2,109.208,0.25,64,143.5
1015,D4,110.5,0.25,48,143.5
1016,G4,110.5,0.25,48,143.5
1017,D5,110.5,0.25,48,143.5
1018,B-1,110.708,0.25,48,143.5
1019,F2,110.708,0.25,48,143.5
1020,B-2,110.708,0.25,48,143.5
1021,B-3,111.0,0.125,40,143.5
1022,C4,111.125,0.125,41,143.5
1023,B-2,111.208,0.125,34,143.5
1024,D4,111.25,0.125,44,143.5
1025,C3,111.333,0.125,36,143.5
1026,E-4,111.375,0.125,45,143.5
1027,D3,111.458,0.125,37,143.5
1028,F4,111.5,0.25,47,143.5
1029,E-3,111.583,0.125,39,143.5
1030,F3,111.708,0.25,41,143.5
1031,E-4,112.0,0.25,50,143.5
1032,F#4,112.0,0.25,50,143.5
1033,E-5,112.0,0.25,50,143.5
1034,B-1,112.208,0.25,42,143.5
1035,F#2,112.208,0.25,42,143.5
1036,B-2,112.208,0.25,42,143.5
1037,F#5,112.5,0.25,52,143.5
1038,F#4,112.5,0.25,52,143.5
1039,B-4,112.5,0.25,52,143.5
1040,B-1,112.708,0.25,45,143.5
1041,E-2,112.708,0.25,45,143.5
1042,B-2,112.708,0.25,45,143.5
1043,D5,113.0,0.25,54,143.5
1044,B-4,113.0,0.25,54,143.5
1045,B-5,113.0,0.25,54,143.5
1046,B-1,113.208,0.25,48,143.5
1047,F2,113.208,0.25,48,143.5
1048,B-2,113.208,0.25,48,143.5
1049,F4,113.5,0.125,42,143.5
1050,E-4,113.625,0.125,43,143.5
1051,F3,113.708,0.125,36,143.5
1052,D4,113.75,0.125,45,143.5
1053,E-3,113.833,0.125,36,143.5
1054,C4,113.875,0.125,46,143.5
1055,D3,113.958,0.125,38,143.5
1056,B-3,114.0,0.25,49,143.5
1057,C3,114.083,0.125,41,143.5
1058,B-2,114.208,0.25,43,143.5
1059,B4,114.5,0.25,57,143.5
1060,E-5,114.5,0.25,57,143.5
1061,B5,114.5,0.25,57,143.5
1062,A1,114.708,0.25,48,143.5
1063,F#2,114.708,0.25,48,143.5
1064,A2,114.708,0.25,48,143.5
1065,E-6,115.0,0.25,59,143.5
1066,E-5,115.0,0.25,59,143.5
1067,B5,115.0,0.25,59,143.5
1068,A1,115.208,0.25,50,143.5
1069,F#2,115.208,0.25,50,143.5
1070,A2,115.208,0.25,50,143.5
1071,B5,115.5,0.25,61,143.5
1072,E5,115.5,0.25,61,143.5
1073,E6,115.5,0.25,61,143.5
1074,G#1,115.708,0.25,56,143.5
1075,E2,115.708,0.25,56,143.5
1076,G#2,115.708,0.25,56,143.5
1077,E4,116.0,0.125,47,143.5
1078,F#4,116.125,0.125,48,143.5
1079,E3,116.208,0.125,40,143.5
1080,G#4,116.25,0.125,51,143.5
1081,F#3,116.333,0.125,41,143.5
1082,A4,116.375,0.125,52,143.5
1083,G#3,116.458,0.125,43,143.5
1084,B4,116.5,0.25,56,143.5
1085,A3,116.583,0.125,46,143.5
1086,B3,116.708,0.25,48,143.5
1087,E-5,117.0,0.25,65,143.5
1088,C6,117.0,0.25,65,143.5
1089,E-6,117.0,0.25,65,143.5
1090,A1,117.208,0.25,54,143.5
1091,F#2,117.208,0.25,54,143.5
1092,A2,117.208,0.25,54,143.5
1093,C7,117.5,0.25,67,143.5
1094,C6,117.5,0.25,67,143.5
1095,E-6,117.5,0.25,67,143.5
1096,A1,117.708,0.25,57,143.5
1097,F#2,117.708,0.25,57,143.5
1098,A2,117.708,0.25,57,143.5
1099,E6,118.0,0.25,69,143.5
1100,B5,118.0,0.25,69,143.5
1101,B6,118.0,0.25,69,143.5
1102,G#1,118.208,0.25,62,143.5
1103,E2,118.208,0.25,62,143.5
1104,G#2,118.208,0.25,62,143.5
1105,B4,118.5,0.125,51,143.5
1106,A4,118.625,0.125,52,143.5
1107,B3,118.708,0.125,43,143.5
1108,G#4,118.75,0.125,54,143.5
1109,A3,118.833,0.125,45,143.5
1110,F#4,118.875,0.125,56,143.5
1111,G#3,118.958,0.125,47,143.5
1112,E4,119.0,0.25,61,143.5
1113,F#3,119.083,0.125,50,143.5
1114,E3,119.208,0.25,53,143.5
1115,B-5,119.5,0.25,70,143.5
1116,C#6,119.5,0.25,70,143.5
1117,B-6,119.5,0.25,70,143.5
1118,G1,119.708,0.25,58,143.5
1119,E2,119.708,0.25,58,143.5
1120,G2,119.708,0.25,58,143.5
1121,C#7,120.0,0.25,72,143.5
1122,C#6,120.0,0.25,72,143.5
1123,B-6,120.0,0.25,72,143.5
1124,G1,120.208,0.25,61,143.5
1125,E2,120.208,0.25,61,143.5
1126,G2,120.208,0.25,61,143.5
1127,A6,120.5,0.25,74,143.5
1128,D6,120.5,0.25,74,143.5
1129,D7,120.5,0.25,74,143.5
1130,F#1,120.708,0.25,67,143.5
1131,D2,120.708,0.25,67,143.5
1132,F#2,120.708,0.25,67,143.5
1133,D4,121.0,0.125,52,143.5
1134,E4,121.125,0.125,54,143.5
1135,D3,121.208,0.125,44,143.5
1136,F#4,121.25,0.125,56,143.5
1137,E3,121.333,0.125,46,143.5
1138,G4,121.375,0.125,59,143.5
1139,F#3,121.458,0.125,48,143.5
1140,A4,121.5,0.25,63,143.5
1141,G3,121.583,0.125,52,143.5
1142,A3,121.708,0.25,54,143.5
1143,B6,122.0,0.25,75,143.5
1144,G#6,122.0,0.25,75,143.5
1145,D6,122.0,0.25,75,143.5
1146,D7,122.0,0.25,75,143.5
1147,F1,122.208,0.25,68,143.5
1148,D2,122.208,0.25,68,143.5
1149,F2,122.208,0.25,68,143.5
1150,D4,122.5,0.125,50,143.5
1151,F4,122.625,0.125,51,143.5
1152,D3,122.708,0.125,47,143.5
1153,G#4,122.75,0.125,54,143.5
1154,F3,122.833,0.125,49,143.5
1155,B-4,122.875,0.125,55,143.5
1156,G#3,122.958,0.125,51,143.5
1157,B4,123.0,0.25,67,143.5
1158,B-3,123.083,0.125,53,143.5
1159,B3,123.208,0.25,60,143.5
1160,D5,123.5,0.125,54,143.5
1161,F5,123.625,0.125,55,143.5
1162,D4,123.708,0.125,49,143.5
1163,G#5,123.75,0.125,58,143.5
1164,F4,123.833,0.125,51,143.5
1165,B-5,123.875,0.125,60,143.5
1166,G#4,123.958,0.125,53,143.5
1167,B5,124.0,0.25,71,143.5
1168,B-4,124.083,0.125,54,143.5
1169,B4,124.208,0.25,63,143.5
1170,D6,124.5,0.125,58,143.5
1171,F6,124.625,0.125,59,143.5
1172,D5,124.708,0.125,51,143.5
1173,G#6,124.75,0.125,62,143.5
1174,F5,124.833,0.125,53,143.5
1175,B-6,124.875,0.125,63,143.5
1176,G#5,124.958,0.125,54,143.5
1177,B6,125.0,0.25,75,143.5
1178,B-5,125.083,0.125,57,143.5
1179,B5,125.208,0.25,64,143.5
1180,E-6,125.75,0.25,81,143.5
1181,B6,125.75,0.25,81,143.5
1182,E-7,125.75,0.25,81,143.5
1183,F#1,125.958,0.25,72,143.5
1184,E-2,125.958,0.25,72,143.5
1185,F#2,125.958,0.25,72,143.5
1186,E-7,126.0,0.25,77,143.5
1187,B6,126.0,0.25,77,143.5
1188,E-6,126.0,0.25,77,143.5
1189,F#1,126.208,0.25,65,143.5
1190,E-2,126.208,0.25,65,143.5
1191,F#2,126.208,0.25,65,143.5
1192,B5,126.5,0.25,82,143.5
1193,E-6,126.5,0.25,82,143.5
1194,B6,126.5,0.25,82,143.5
1195,B1,126.708,0.25,72,143.5
1196,F#2,126.708,0.25,72,143.5
1197,B2,126.708,0.25,72,143.5
1198,F#5,127.25,0.25,73,143.5
1199,B5,127.25,0.25,73,143.5
1200,F#6,127.25,0.25,73,143.5
1201,E-2,127.458,0.25,66,143.5
1202,B2,127.458,0.25,66,143.5
1203,E-3,127.458,0.25,66,143.5
1204,F#5,127.5,0.25,73,143.5
1205,B5,127.5,0.25,73,143.5
1206,F#6,127.5,0.25,73,143.5
1207,E-2,127.708,0.25,66,143.5
1208,B2,127.708,0.25,66,143.5
1209,E-3,127.708,0.25,66,143.5
1210,E-5,128.75,0.25,72,143.5
1211,B5,128.75,0.25,72,143.5
1212,E-6,128.75,0.25,72,143.5
1213,F#2,128.958,0.25,58,143.5
1214,B2,128.958,0.25,58,143.5
1215,F#3,128.958,0.25,58,143.5
1216,E-5,129.0,0.25,80,143.5
1217,B5,129.0,0.25,80,143.5
1218,E-6,129.0,0.25,80,143.5
1219,F#3,129.208,0.25,67,143.5
1220,B2,129.208,0.25,67,143.5
1221,F#2,129.208,0.25,67,143.5
1222,D5,129.5,0.25,74,143.5
1223,B5,129.5,0.25,74,143.5
1224,D6,129.5,0.25,74,143.5
1225,F2,129.708,0.25,58,143.5
1226,B2,129.708,0.25,58,143.5
1227,F3,129.708,0.25,58,143.5
1228,E-5,130.0,0.25,80,143.5
1229,B5,130.0,0.25,80,143.5
1230,E-6,130.0,0.25,80,143.5
1231,F#3,130.208,0.25,67,143.5
1232,B2,130.208,0.25,67,143.5
1233,F#2,130.208,0.25,67,143.5
1234,F#5,131.0,0.25,73,143.5
1235,B5,131.0,0.25,73,143.5
1236,F#6,131.0,0.25,73,143.5
1237,G#2,131.208,0.25,62,143.5
1238,E-3,131.208,0.25,62,143.5
1239,G#3,131.208,0.25,62,143.5
1240,D5,131.75,0.25,80,143.5
1241,D6,131.75,0.25,80,143.5
1242,D3,131.958,0.25,72,143.5
1243,D4,131.958,0.25,72,143.5
1244,E-6,132.0,0.25,76,143.5
1245,E-5,132.0,0.25,76,143.5
1246,E-3,132.208,0.25,64,143.5
1247,E-4,132.208,0.25,64,143.5
1248,F#5,132.5,0.25,79,143.5
1249,C6,132.5,0.25,79,143.5
1250,F#6,132.5,0.25,79,143.5
1251,A2,132.708,0.25,67,143.5
1252,E-3,132.708,0.25,67,143.5
1253,F#3,132.708,0.25,67,143.5
1254,A3,132.708,0.25,67,143.5
1255,D5,133.25,0.25,72,143.5
1256,D6,133.25,0.25,72,143.5
1257,D3,133.458,0.25,65,143.5
1258,D4,133.458,0.25,65,143.5
1259,E-5,133.5,0.25,72,143.5
1260,E-6,133.5,0.25,72,143.5
1261,E-3,133.708,0.25,65,143.5
1262,E-4,133.708,0.25,65,143.5
1263,B-5,134.0,0.25,83,143.5
1264,D6,134.0,0.25,83,143.5
1265,B-6,134.0,0.25,83,143.5
1266,B-2,134.208,0.25,59,143.5
1267,F3,134.208,0.25,59,143.5
1268,B-3,134.208,0.25,59,143.5
1269,F2,134.708,0.5,77,143.5
1270,F3,134.958,0.25,75,143.5
1271,E-2,135.208,0.5,73,143.5
1272,E-3,135.458,0.25,72,143.5
1273,D2,135.708,0.5,71,143.5
1274,D3,135.958,0.25,70,143.5
1275,B1,136.208,0.5,68,143.5
1276,B2,136.458,0.25,66,143.5
1277,B-1,136.708,0.5,79,143.5
1278,B-2,136.958,0.25,63,143.5
1279,F#6,137.0,0.25,70,143.5
1280,A5,137.0,0.25,70,143.5
1281,F#5,137.0,0.25,70,143.5
1282,E-3,137.208,0.25,56,143.5
1283,A3,137.208,0.25,56,143.5
1284,F#3,137.208,0.25,56,143.5
1285,C3,137.208,0.25,56,143.5
1286,B-2,137.208,0.25,56,143.5
1287,E-6,137.75,0.25,66,143.5
1288,F#5,137.75,0.25,66,143.5
1289,E-5,137.75,0.25,66,143.5
1290,E-3,137.958,0.25,44,143.5
1291,A3,137.958,0.25,44,143.5
1292,F#3,137.958,0.25,44,143.5
1293,C3,137.958,0.25,44,143.5
1294,B-2,137.958,0.25,44,143.5
1295,E-5,138.0,0.25,70,143.5
1296,F#5,138.0,0.25,70,143.5
1297,E-6,138.0,0.25,70,143.5
1298,E-3,138.208,0.25,50,143.5
1299,A3,138.208,0.25,50,143.5
1300,F#3,138.208,0.25,50,143.5
1301,C3,138.208,0.25,50,143.5
1302,B-2,138.208,0.25,50,143.5
1303,C5,139.25,0.25,65,143.5
1304,E-5,139.25,0.25,65,143.5
1305,C6,139.25,0.25,65,143.5
1306,E-3,139.458,0.25,39,143.5
1307,B-2,139.458,0.25,39,143.5
1308,C3,139.458,0.25,39,143.5
1309,A3,139.458,0.25,39,143.5
1310,F#3,139.458,0.25,39,143.5
1311,C5,139.5,0.25,69,143.5
1312,E-5,139.5,0.25,69,143.5
1313,C6,139.5,0.25,69,143.5
1314,E-3,139.708,0.25,46,143.5
1315,A3,139.708,0.25,46,143.5
1316,F#3,139.708,0.25,46,143.5
1317,C3,139.708,0.25,46,143.5
1318,B-2,139.708,0.25,46,143.5
1319,C5,140.5,0.125,65,143.5
1320,A4,140.5,0.125,65,143.5
1321,A5,140.5,0.125,65,143.5
1322,B-2,140.708,0.125,39,143.5
1323,C3,140.708,0.125,39,143.5
1324,E-3,140.708,0.125,39,143.5
1325,F#3,140.708,0.125,39,143.5
1326,A3,140.708,0.125,39,143.5
1327,F#4,140.75,0.125,62,143.5
1328,F#5,140.75,0.125,62,143.5
1329,B-2,140.958,0.125,35,143.5
1330,C3,140.958,0.125,35,143.5
1331,E-3,140.958,0.125,35,143.5
1332,F#3,140.958,0.125,35,143.5
1333,A3,140.958,0.125,35,143.5
1334,F4,141.0,0.125,62,143.5
1335,F5,141.0,0.125,62,143.5
1336,B-2,141.208,0.125,35,143.5
1337,C3,141.208,0.125,35,143.5
1338,E-3,141.208,0.125,35,143.5
1339,F#3,141.208,0.125,35,143.5
1340,A3,141.208,0.125,35,143.5
1341,E-4,141.25,0.125,62,143.5
1342,E-5,141.25,0.125,62,143.5
1343,B-2,141.458,0.125,35,143.5
1344,C3,141.458,0.125,35,143.5
1345,E-3,141.458,0.125,35,143.5
1346,F#3,141.458,0.125,35,143.5
1347,A3,141.458,0.125,35,143.5
1348,B-4,141.5,0.25,68,143.5
1349,D5,141.5,0.25,68,143.5
1350,B-5,141.5,0.25,68,143.5
1351,B-2,141.708,0.25,42,143.5
1352,D3,141.708,0.25,42,143.5
1353,F3,141.708,0.25,42,143.5
1354,B-3,141.708,0.25,42,143.5
1355,F2,142.208,0.5,69,143.5
1356,F3,142.208,0.5,69,143.5
1357,F4,142.25,0.25,75,143.5
1358,E-2,142.708,0.5,66,143.5
1359,E-3,142.708,0.5,66,143.5
1360,E-4,142.75,0.25,72,143.5
1361,D2,143.208,0.5,64,143.5
1362,D3,143.208,0.5,64,143.5
1363,D4,143.25,0.25,70,143.5
1364,B1,143.708,0.5,61,143.5
1365,B2,143.708,0.5,61,143.5
1366,B3,143.75,0.25,66,143.5
1367,B-1,144.208,0.5,71,143.5
1368,B-2,144.208,0.5,71,143.5
1369,B-3,144.25,0.25,63,143.5
1370,E-7,144.5,0.25,81,143.5
1371,F#6,144.5,0.25,81,143.5
1372,E-6,144.5,0.25,81,143.5
1373,E-3,144.708,0.25,56,143.5
1374,A3,144.708,0.25,56,143.5
1375,F#3,144.708,0.25,56,143.5
1376,C3,144.708,0.25,56,143.5
1377,B-2,144.708,0.25,56,143.5
1378,C7,145.25,0.25,75,143.5
1379,E-6,145.25,0.25,75,143.5
1380,C6,145.25,0.25,75,143.5
1381,E-3,145.458,0.25,44,143.5
1382,A3,145.458,0.25,44,143.5
1383,F#3,145.458,0.25,44,143.5
1384,C3,145.458,0.25,44,143.5
1385,B-2,145.458,0.25,44,143.5
1386,C6,145.5,0.25,81,143.5
1387,E-6,145.5,0.25,81,143.5
1388,C7,145.5,0.25,81,143.5
1389,E-3,145.708,0.25,50,143.5
1390,A3,145.708,0.25,50,143.5
1391,F#3,145.708,0.25,50,143.5
1392,C3,145.708,0.25,50,143.5
1393,B-2,145.708,0.25,50,143.5
1394,A5,146.75,0.25,74,143.5
1395,C6,146.75,0.25,74,143.5
1396,A6,146.75,0.25,74,143.5
1397,E-3,146.958,0.25,39,143.5
1398,B-2,146.958,0.25,39,143.5
1399,C3,146.958,0.25,39,143.5
1400,A3,146.958,0.25,39,143.5
1401,F#3,146.958,0.25,39,143.5
1402,A5,147.0,0.25,79,143.5
1403,C6,147.0,0.25,79,143.5
1404,A6,147.0,0.25,79,143.5
1405,E-3,147.208,0.25,46,143.5
1406,A3,147.208,0.25,46,143.5
1407,F#3,147.208,0.25,46,143.5
1408,C3,147.208,0.25,46,143.5
1409,B-2,147.208,0.25,46,143.5
1410,F#5,148.0,0.125,74,143.5
1411,A5,148.0,0.125,74,143.5
1412,F#6,148.0,0.125,74,143.5
1413,B-2,148.208,0.125,39,143.5
1414,C3,148.208,0.125,39,143.5
1415,E-3,148.208,0.125,39,143.5
1416,F#3,148.208,0.125,39,143.5
1417,A3,148.208,0.125,39,143.5
1418,F5,148.25,0.125,72,143.5
1419,F6,148.25,0.125,72,143.5
1420,B-2,148.458,0.125,31,143.5
1421,C3,148.458,0.125,31,143.5
1422,E-3,148.458,0.125,31,143.5
1423,F#3,148.458,0.125,31,143.5
1424,A3,148.458,0.125,31,143.5
1425,E5,148.5,0.125,72,143.5
1426,E6,148.5,0.125,72,143.5
1427,B-2,148.708,0.125,31,143.5
1428,C3,148.708,0.125,31,143.5
1429,E-3,148.708,0.125,31,143.5
1430,F#3,148.708,0.125,31,143.5
1431,A3,148.708,0.125,31,143.5
1432,E-5,148.75,0.125,72,143.5
1433,E-6,148.75,0.125,72,143.5
1434,B-2,148.958,0.125,31,143.5
1435,C3,148.958,0.125,31,143.5
1436,E-3,148.958,0.125,31,143.5
1437,F#3,148.958,0.125,31,143.5
1438,A3,148.958,0.125,31,143.5
1439,B-5,149.0,0.25,78,143.5
1440,D6,149.0,0.25,78,143.5
1441,B-6,149.0,0.25,78,143.5
1442,B-2,149.208,0.25,42,143.5
1443,D3,149.208,0.25,42,143.5
1444,F3,149.208,0.25,42,143.5
1445,B-3,149.208,0.25,42,143.5
1446,F4,149.708,0.5,54,143.5
1447,G#4,149.75,0.25,50,143.5
1448,B-4,149.75,0.25,50,143.5
1449,E-4,150.208,0.5,57,143.5
1450,G#4,150.25,0.25,52,143.5
1451,B-4,150.25,0.25,52,143.5
1452,D4,150.708,0.5,60,143.5
1453,G#4,150.75,0.25,54,143.5
1454,B-4,150.75,0.25,54,143.5
1455,C4,151.208,0.5,62,143.5
1456,G#4,151.25,0.25,57,143.5
1457,B-4,151.25,0.25,57,143.5
1458,B-3,151.708,0.5,54,143.5
1459,G#4,151.75,0.25,59,143.5
1460,B-4,151.75,0.25,59,143.5
1461,B3,152.0,0.25,68,143.5
1462,B4,152.0,0.25,68,143.5
1463,G#2,152.208,0.25,53,143.5
1464,E3,152.208,0.25,53,143.5
1465,G#3,152.208,0.25,53,143.5
1466,E4,152.25,0.25,56,143.5
1467,G#4,152.5,0.25,58,143.5
1468,F#2,152.708,0.25,54,143.5
1469,F#3,152.708,0.25,54,143.5
1470,B4,152.75,0.25,61,143.5
1471,E5,153.0,0.25,63,143.5
1472,E2,153.208,0.25,56,143.5
1473,E3,153.208,0.25,56,143.5
1474,G#5,153.25,0.25,64,143.5
1475,B5,153.5,0.25,66,143.5
1476,C#2,153.708,0.25,58,143.5
1477,C#3,153.708,0.25,58,143.5
1478,E6,153.75,0.25,68,143.5
1479,G#6,154.0,0.25,70,143.5
1480,B1,154.208,0.25,60,143.5
1481,B2,154.208,0.25,60,143.5
1482,B-6,154.25,0.25,72,143.5
1483,B6,154.5,0.25,67,143.5
1484,E6,154.5,0.25,67,143.5
1485,B5,154.5,0.25,67,143.5
1486,G#1,154.708,0.25,62,143.5
1487,G#2,154.708,0.25,62,143.5
1488,D6,155.0,0.25,85,143.5
1489,F6,155.0,0.25,85,143.5
1490,D7,155.0,0.25,85,143.5
1491,B-1,155.208,0.25,61,143.5
1492,F2,155.208,0.25,61,143.5
1493,B-2,155.208,0.25,61,143.5
1494,F4,155.708,0.5,57,143.5
1495,G#4,155.75,0.25,52,143.5
1496,B-4,155.75,0.25,52,143.5
1497,E-4,156.208,0.5,60,143.5
1498,G#4,156.25,0.25,54,143.5
1499,B-4,156.25,0.25,54,143.5
1500,D4,156.708,0.5,63,143.5
1501,G#4,156.75,0.25,57,143.5
1502,B-4,156.75,0.25,57,143.5
1503,C4,157.208,0.5,64,143.5
1504,G#4,157.25,0.25,59,143.5
1505,B-4,157.25,0.25,59,143.5
1506,B-3,157.708,0.5,56,143.5
1507,G#4,157.75,0.25,62,143.5
1508,B-4,157.75,0.25,62,143.5
1509,B3,158.0,0.25,71,143.5
1510,B4,158.0,0.25,71,143.5
1511,G#2,158.208,0.25,56,143.5
1512,E3,158.208,0.25,56,143.5
1513,G#3,158.208,0.25,56,143.5
1514,E4,158.25,0.25,59,143.5
1515,G#4,158.5,0.25,61,143.5
1516,F#2,158.708,0.25,56,143.5
1517,F#3,158.708,0.25,56,143.5
1518,B4,158.75,0.25,63,143.5
1519,E5,159.0,0.25,65,143.5
1520,E2,159.208,0.25,58,143.5
1521,E3,159.208,0.25,58,143.5
1522,G#5,159.25,0.25,67,143.5
1523,B5,159.5,0.25,69,143.5
1524,C#2,159.708,0.25,60,143.5
1525,C#3,159.708,0.25,60,143.5
1526,E6,159.75,0.25,71,143.5
1527,G#6,160.0,0.25,72,143.5
1528,B1,160.208,0.25,63,143.5
1529,B2,160.208,0.25,63,143.5
1530,B-6,160.25,0.25,76,143.5
1531,B6,160.5,0.25,69,143.5
1532,E6,160.5,0.25,69,143.5
1533,B5,160.5,0.25,69,143.5
1534,G#1,160.708,0.25,66,143.5
1535,G#2,160.708,0.25,66,143.5
1536,D6,161.0,0.25,88,143.5
1537,F6,161.0,0.25,88,143.5
1538,D7,161.0,0.25,88,143.5
1539,B-1,161.208,0.25,64,143.5
1540,F2,161.208,0.25,64,143.5
1541,B-2,161.208,0.25,64,143.5
1542,B-5,161.75,0.25,70,143.5
1543,D5,161.75,0.25,70,143.5
1544,B-4,161.75,0.25,70,143.5
1545,B-3,161.958,0.25,52,143.5
1546,G#4,161.958,0.25,52,143.5
1547,F4,161.958,0.25,52,143.5
1548,B-4,162.0,0.5,67,143.5
1549,D5,162.0,0.5,67,143.5
1550,B-5,162.0,0.5,67,143.5
1551,B-3,162.208,0.5,46,143.5
1552,G#4,162.208,0.5,46,143.5
1553,F4,162.208,0.5,46,143.5
1554,B-4,162.5,0.25,71,143.5
1555,D5,162.5,0.25,71,143.5
1556,B-5,162.5,0.25,71,143.5
1557,B-3,162.708,0.25,52,143.5
1558,F4,162.708,0.25,52,143.5
1559,G#4,162.708,0.25,52,143.5
1560,B4,163.25,0.25,75,143.5
1561,E-5,163.25,0.25,75,143.5
1562,B5,163.25,0.25,75,143.5
1563,A3,163.458,0.25,52,143.5
1564,F#4,163.458,0.25,52,143.5
1565,E-4,163.458,0.25,52,143.5
1566,B4,163.5,0.5,69,143.5
1567,E-5,163.5,0.5,69,143.5
1568,B5,163.5,0.5,69,143.5
1569,A3,163.708,0.5,47,143.5
1570,F#4,163.708,0.5,47,143.5
1571,E-4,163.708,0.5,47,143.5
1572,B4,164.0,0.25,75,143.5
1573,E-5,164.0,0.25,75,143.5
1574,B5,164.0,0.25,75,143.5
1575,A3,164.208,0.25,51,143.5
1576,E-4,164.208,0.25,51,143.5
1577,F#4,164.208,0.25,51,143.5
1578,C6,164.75,0.25,77,143.5
1579,E5,164.75,0.25,77,143.5
1580,C5,164.75,0.25,77,143.5
1581,G3,164.958,0.25,53,143.5
1582,E4,164.958,0.25,53,143.5
1583,B-3,164.958,0.25,53,143.5
1584,C5,165.0,0.5,71,143.5
1585,E5,165.0,0.5,71,143.5
1586,C6,165.0,0.5,71,143.5
1587,G3,165.208,0.5,49,143.5
1588,E4,165.208,0.5,49,143.5
1589,B-3,165.208,0.5,49,143.5
1590,C5,165.5,0.25,75,143.5
1591,E5,165.5,0.25,75,143.5
1592,C6,165.5,0.25,75,143.5
1593,G3,165.708,0.25,54,143.5
1594,B-3,165.708,0.25,54,143.5
1595,E4,165.708,0.25,54,143.5
1596,C#5,166.25,0.25,77,143.5
1597,F5,166.25,0.25,77,143.5
1598,C#6,166.25,0.25,77,143.5
1599,F3,166.458,0.25,53,143.5
1600,C#4,166.458,0.25,53,143.5
1601,G#3,166.458,0.25,53,143.5
1602,C#5,166.5,0.5,72,143.5
1603,F5,166.5,0.5,72,143.5
1604,C#6,166.5,0.5,72,143.5
1605,F3,166.708,0.5,48,143.5
1606,C#4,166.708,0.5,48,143.5
1607,G#3,166.708,0.5,48,143.5
1608,C#5,167.0,0.25,76,143.5
1609,F5,167.0,0.25,76,143.5
1610,C#6,167.0,0.25,76,143.5
1611,F3,167.208,0.25,53,143.5
1612,G#3,167.208,0.25,53,143.5
1613,C#4,167.208,0.25,53,143.5
1614,F5,167.75,0.25,78,143.5
1615,F6,167.75,0.25,78,143.5
1616,C#6,167.75,0.25,78,143.5
1617,G#5,167.75,0.25,78,143.5
1618,B2,167.958,0.25,55,143.5
1619,B3,167.958,0.25,55,143.5
1620,F3,167.958,0.25,55,143.5
1621,F5,168.0,0.5,75,143.5
1622,G#5,168.0,0.5,75,143.5
1623,C#6,168.0,0.5,75,143.5
1624,F6,168.0,0.5,75,143.5
1625,B2,168.208,0.5,48,143.5
1626,B3,168.208,0.5,48,143.5
1627,F3,168.208,0.5,48,143.5
1628,F5,168.5,0.25,81,143.5
1629,G#5,168.5,0.25,81,143.5
1630,C#6,168.5,0.25,81,143.5
1631,F6,168.5,0.25,81,143.5
1632,B2,168.708,0.25,55,143.5
1633,F3,168.708,0.25,55,143.5
1634,B3,168.708,0.25,55,143.5
1635,G#5,169.25,0.25,83,143.5
1636,D6,169.25,0.25,83,143.5
1637,B-6,169.25,0.25,83,143.5
1638,B-2,169.458,0.25,56,143.5
1639,B-3,169.458,0.25,56,143.5
1640,F3,169.458,0.25,56,143.5
1641,G#5,169.5,0.5,77,143.5
1642,D6,169.5,0.5,77,143.5
1643,B-6,169.5,0.5,77,143.5
1644,B-2,169.708,0.5,51,143.5
1645,B-3,169.708,0.5,51,143.5
1646,F3,169.708,0.5,51,143.5
1647,G#5,170.0,0.25,85,143.5
1648,D6,170.0,0.25,85,143.5
1649,B-6,170.0,0.25,85,143.5
1650,B-2,170.208,0.25,57,143.5
1651,F3,170.208,0.25,57,143.5
1652,B-3,170.208,0.25,57,143.5
1653,B-4,170.75,0.125,53,143.5
1654,B-3,170.958,0.125,48,143.5
1655,B-4,171.0,0.25,48,143.5
1656,B-3,171.208,0.25,44,143.5
1657,B-4,171.5,0.25,51,143.5
1658,B-3,171.708,0.25,43,143.5
1659,B-4,172.25,0.125,43,143.5
1660,B-3,172.458,0.125,35,143.5
1661,B-4,172.5,0.25,46,143.5
1662,B-3,172.708,0.25,39,143.5
1663,G4,173.0,0.5,42,143.5
1664,B-4,173.0,0.5,42,143.5
1665,G5,173.0,0.5,42,143.5
1666,E-3,173.208,0.5,27,143.5
1667,B-3,173.208,0.5,27,143.5
1668,E-4,173.208,0.5,27,143.5
1669,B-4,173.75,0.125,38,143.5
1670,E-5,173.75,0.125,38,143.5
1671,G4,173.958,0.125,22,143.5
1672,E-4,173.958,0.125,22,143.5
1673,B-4,174.0,0.25,38,143.5
1674,E-5,174.0,0.25,38,143.5
1675,E-4,174.208,0.25,22,143.5
1676,G4,174.208,0.25,22,143.5
1677,B-4,174.5,0.25,43,143.5
1678,E-5,174.5,0.25,43,143.5
1679,E-4,174.708,0.25,28,143.5
1680,G4,174.708,0.25,28,143.5
1681,G4,175.25,0.125,39,143.5
1682,B-4,175.25,0.125,39,143.5
1683,E-4,175.458,0.125,24,143.5
1684,B-3,175.458,0.125,24,143.5
1685,G4,175.5,0.25,39,143.5
1686,B-4,175.5,0.25,39,143.5
1687,B-3,175.708,0.25,24,143.5
1688,E-4,175.708,0.25,24,143.5
1689,E-4,176.0,0.25,45,143.5
1690,G4,176.0,0.25,45,143.5
1691,C4,176.208,0.25,31,143.5
1692,C4,176.75,0.125,40,143.5
1693,E-4,176.75,0.125,40,143.5
1694,C3,176.958,0.125,24,143.5
1695,G3,176.958,0.125,24,143.5
1696,C4,177.0,0.25,40,143.5
1697,E-4,177.0,0.25,40,143.5
1698,C3,177.208,0.25,24,143.5
1699,G3,177.208,0.25,24,143.5
1700,C4,177.5,1.5,45,143.5
1701,E-4,177.5,1.5,45,143.5
1702,C3,177.708,1.5,28,143.5
1703,G3,177.708,1.5,28,143.5
1704,B-3,179.0,0.5,41,143.5
1705,D4,179.0,0.5,41,143.5
1706,B-4,179.0,0.5,41,143.5
1707,B-2,179.208,0.5,26,143.5
1708,F3,179.208,0.5,26,143.5
1709,G#3,179.208,0.5,26,143.5
1710,B-3,179.75,0.125,39,143.5
1711,F4,179.75,0.125,39,143.5
1712,B-2,179.958,0.125,23,143.5
1713,D3,179.958,0.125,23,143.5
1714,G#3,179.958,0.125,23,143.5
1715,B-3,180.0,0.25,39,143.5
1716,F4,180.0,0.25,39,143.5
1717,B-2,180.208,0.25,23,143.5
1718,D3,180.208,0.25,23,143.5
1719,G#3,180.208,0.25,23,143.5
1720,B-3,180.5,0.25,43,143.5
1721,E4,180.5,0.25,43,143.5
1722,C#3,180.708,0.25,27,143.5
1723,B-2,180.708,0.25,27,143.5
1724,G#3,180.708,0.25,27,143.5
1725,B-3,181.0,0.25,45,143.5
1726,F4,181.0,0.25,45,143.5
1727,B-2,181.208,0.25,29,143.5
1728,D3,181.208,0.25,29,143.5
1729,G#3,181.208,0.25,29,143.5
1730,B-3,181.5,0.25,43,143.5
1731,F#4,181.5,0.25,43,143.5
1732,B-4,181.5,0.25,43,143.5
1733,B-2,181.708,0.25,30,143.5
1734,D3,181.708,0.25,30,143.5
1735,G#3,181.708,0.25,30,143.5
1736,B-3,182.0,1.5,46,143.5
1737,G4,182.0,1.5,46,143.5
1738,B-4,182.0,1.5,46,143.5
1739,E-3,182.208,1.5,34,143.5
1740,G3,182.208,1.5,34,143.5
1741,E-4,183.5,0.5,43,143.5
1742,G4,183.5,0.5,43,143.5
1743,E-3,183.708,0.5,30,143.5
1744,B-3,183.708,0.5,30,143.5
1745,B-4,185.0,0.5,42,143.5
1746,E-5,185.0,0.5,42,143.5
1747,G5,185.0,0.5,42,143.5
1748,E-4,185.208,0.5,28,143.5
1749,G4,185.208,0.5,28,143.5
1750,G4,185.75,0.125,36,143.5
1751,B-4,185.75,0.125,36,143.5
1752,E-5,185.75,0.125,36,143.5
1753,E-4,185.958,0.125,22,143.5
1754,B-3,185.958,0.125,22,143.5
1755,G4,186.0,0.25,36,143.5
1756,B-4,186.0,0.25,36,143.5
1757,E-5,186.0,0.25,36,143.5
1758,B-3,186.208,0.25,22,143.5
1759,E-4,186.208,0.25,22,143.5
1760,G4,186.5,0.25,41,143.5
1761,B-4,186.5,0.25,41,143.5
1762,E-5,186.5,0.25,41,143.5
1763,B-3,186.708,0.25,28,143.5
1764,E-4,186.708,0.25,28,143.5
1765,E-4,187.25,0.125,37,143.5
1766,G4,187.25,0.125,37,143.5
1767,B-4,187.25,0.125,37,143.5
1768,B-3,187.458,0.125,24,143.5
1769,G3,187.458,0.125,24,143.5
1770,E-4,187.5,0.25,37,143.5
1771,G4,187.5,0.25,37,143.5
1772,B-4,187.5,0.25,37,143.5
1773,G3,187.708,0.25,24,143.5
1774,B-3,187.708,0.25,24,143.5
1775,E-4,188.0,0.25,45,143.5
1776,G4,188.0,0.25,45,143.5
1777,G3,188.208,0.25,26,143.5
1778,C4,188.208,0.25,26,143.5
1779,C4,188.75,0.125,40,143.5
1780,E-4,188.75,0.125,40,143.5
1781,C3,188.958,0.125,24,143.5
1782,G3,188.958,0.125,24,143.5
1783,C4,189.0,0.25,40,143.5
1784,E-4,189.0,0.25,40,143.5
1785,C3,189.208,0.25,24,143.5
1786,G3,189.208,0.25,24,143.5
1787,C4,189.5,1.5,45,143.5
1788,E-4,189.5,1.5,45,143.5
1789,C3,189.708,1.5,28,143.5
1790,G3,189.708,1.5,28,143.5
1791,B3,191.0,0.5,41,143.5
1792,D4,191.0,0.5,41,143.5
1793,B4,191.0,0.5,41,143.5
1794,G2,191.208,0.5,26,143.5
1795,D3,191.208,0.5,26,143.5
1796,G3,191.208,0.5,26,143.5
1797,B3,191.75,0.125,39,143.5
1798,D4,191.75,0.125,39,143.5
1799,G2,191.958,0.125,23,143.5
1800,D3,191.958,0.125,23,143.5
1801,G3,191.958,0.125,23,143.5
1802,B3,192.0,0.25,39,143.5
1803,D4,192.0,0.25,39,143.5
1804,G2,192.208,0.25,23,143.5
1805,D3,192.208,0.25,23,143.5
1806,G3,192.208,0.25,23,143.5
1807,B3,192.5,0.25,43,143.5
1808,C#4,192.5,0.25,43,143.5
1809,D3,192.708,0.25,27,143.5
1810,G2,192.708,0.25,27,143.5
1811,G3,192.708,0.25,27,143.5
1812,B3,193.0,0.25,45,143.5
1813,D4,193.0,0.25,45,143.5
1814,G2,193.208,0.25,29,143.5
1815,D3,193.208,0.25,29,143.5
1816,G3,193.208,0.25,29,143.5
1817,B3,193.5,0.25,43,143.5
1818,D4,193.5,0.25,43,143.5
1819,G4,193.5,0.25,43,143.5
1820,G2,193.708,0.25,30,143.5
1821,D3,193.708,0.25,30,143.5
1822,G3,193.708,0.25,30,143.5
1823,B3,194.0,1.5,46,143.5
1824,G4,194.0,1.5,46,143.5
1825,B4,194.0,1.5,46,143.5
1826,G2,194.208,1.5,33,143.5
1827,D3,194.208,1.5,33,143.5
1828,G3,194.208,1.5,33,143.5
1829,B-3,195.5,1.5,41,143.5
1830,D4,195.5,1.5,41,143.5
1831,B-4,195.5,1.5,41,143.5
1832,B-2,195.708,1.5,29,143.5
1833,F3,195.708,1.5,29,143.5
1834,G#3,195.708,1.5,29,143.5
1835,G5,197.0,0.5,66,143.5
1836,B-5,197.0,0.5,66,143.5
1837,G6,197.0,0.5,66,143.5
1838,E-2,197.208,0.5,36,143.5
1839,B-2,197.208,0.5,36,143.5
1840,E-3,197.208,0.5,36,143.5
1841,E-5,197.75,0.125,57,143.5
1842,G5,197.75,0.125,57,143.5
1843,E-6,197.75,0.125,57,143.5
1844,G2,197.958,0.125,29,143.5
1845,G3,197.958,0.125,29,143.5
1846,E-3,197.958,0.125,29,143.5
1847,E-5,198.0,0.25,57,143.5
1848,G5,198.0,0.25,57,143.5
1849,E-6,198.0,0.25,57,143.5
1850,G2,198.208,0.25,29,143.5
1851,E-3,198.208,0.25,29,143.5
1852,G3,198.208,0.25,29,143.5
1853,E-5,198.5,0.25,64,143.5
1854,G5,198.5,0.25,64,143.5
1855,E-6,198.5,0.25,64,143.5
1856,G2,198.708,0.25,37,143.5
1857,E-3,198.708,0.25,37,143.5
1858,G3,198.708,0.25,37,143.5
1859,B-4,199.25,0.125,56,143.5
1860,E-5,199.25,0.125,56,143.5
1861,B-5,199.25,0.125,56,143.5
1862,B-2,199.458,0.125,31,143.5
1863,B-3,199.458,0.125,31,143.5
1864,G3,199.458,0.125,31,143.5
1865,B-4,199.5,0.25,56,143.5
1866,E-5,199.5,0.25,56,143.5
1867,B-5,199.5,0.25,56,143.5
1868,B-2,199.708,0.25,32,143.5
1869,G3,199.708,0.25,32,143.5
1870,B-3,199.708,0.25,32,143.5
1871,G4,200.0,0.25,65,143.5
1872,E-5,200.0,0.25,65,143.5
1873,G5,200.0,0.25,65,143.5
1874,C3,200.208,0.25,33,143.5
1875,G3,200.208,0.25,33,143.5
1876,C4,200.208,0.25,33,143.5
1877,G4,200.75,0.125,57,143.5
1878,C5,200.75,0.125,57,143.5
1879,E-5,200.75,0.125,57,143.5
1880,C4,200.958,0.125,31,143.5
1881,G3,200.958,0.125,31,143.5
1882,E-4,200.958,0.125,31,143.5
1883,G4,201.0,0.25,57,143.5
1884,C5,201.0,0.25,57,143.5
1885,E-5,201.0,0.25,57,143.5
1886,C4,201.208,0.25,31,143.5
1887,G3,201.208,0.25,31,143.5
1888,E-4,201.208,0.25,31,143.5
1889,G4,201.5,1.5,64,143.5
1890,C5,201.5,1.5,64,143.5
1891,E-5,201.5,1.5,64,143.5
1892,C4,201.708,1.5,36,143.5
1893,G3,201.708,1.5,36,143.5
1894,E-4,201.708,1.5,36,143.5
1895,G#4,203.0,0.5,52,143.5
1896,B-4,203.0,0.5,52,143.5
1897,D5,203.0,0.5,52,143.5
1898,B-5,203.0,0.5,52,143.5
1899,B-2,203.208,0.5,35,143.5
1900,F3,203.208,0.5,35,143.5
1901,B-3,203.208,0.5,35,143.5
1902,G#4,203.75,0.125,48,143.5
1903,B-4,203.75,0.125,48,143.5
1904,F5,203.75,0.125,48,143.5
1905,B-3,203.958,0.125,31,143.5
1906,D4,203.958,0.125,31,143.5
1907,F4,203.958,0.125,31,143.5
1908,G#4,204.0,0.25,48,143.5
1909,B-4,204.0,0.25,48,143.5
1910,F5,204.0,0.25,48,143.5
1911,B-3,204.208,0.25,31,143.5
1912,D4,204.208,0.25,31,143.5
1913,F4,204.208,0.25,31,143.5
1914,G#4,204.5,0.25,53,143.5
1915,B-4,204.5,0.25,53,143.5
1916,E5,204.5,0.25,53,143.5
1917,C#4,204.708,0.25,36,143.5
1918,B-3,204.708,0.25,36,143.5
1919,E4,204.708,0.25,36,143.5
1920,G#4,205.0,0.25,57,143.5
1921,B-4,205.0,0.25,57,143.5
1922,F5,205.0,0.25,57,143.5
1923,B-3,205.208,0.25,39,143.5
1924,D4,205.208,0.25,39,143.5
1925,F4,205.208,0.25,39,143.5
1926,G#4,205.5,0.25,56,143.5
1927,B-4,205.5,0.25,56,143.5
1928,F#5,205.5,0.25,56,143.5
1929,B-5,205.5,0.25,56,143.5
1930,B-3,205.708,0.25,41,143.5
1931,D4,205.708,0.25,41,143.5
1932,F#4,205.708,0.25,41,143.5
1933,B-4,206.0,1.5,60,143.5
1934,G5,206.0,1.5,60,143.5
1935,B-5,206.0,1.5,60,143.5
1936,B-3,206.208,1.5,44,143.5
1937,E-3,206.208,1.5,44,143.5
1938,G4,206.208,1.5,44,143.5
1939,G4,207.5,0.5,53,143.5
1940,B-4,207.5,0.5,53,143.5
1941,G5,207.5,0.5,53,143.5
1942,B-3,207.708,0.5,38,143.5
1943,E-3,207.708,0.5,38,143.5
1944,E-4,207.708,0.5,38,143.5
1945,E-6,209.0,0.5,74,143.5
1946,G6,209.0,0.5,74,143.5
1947,E-7,209.0,0.5,74,143.5
1948,E-2,209.208,0.5,48,143.5
1949,B-2,209.208,0.5,48,143.5
1950,E-3,209.208,0.5,48,143.5
1951,B-5,209.75,0.125,64,143.5
1952,E-6,209.75,0.125,64,143.5
1953,B-6,209.75,0.125,64,143.5
1954,G2,209.958,0.125,39,143.5
1955,G3,209.958,0.125,39,143.5
1956,E-3,209.958,0.125,39,143.5
1957,B-5,210.0,0.25,65,143.5
1958,E-6,210.0,0.25,65,143.5
1959,B-6,210.0,0.25,65,143.5
1960,G2,210.208,0.25,39,143.5
1961,E-3,210.208,0.25,39,143.5
1962,G3,210.208,0.25,39,143.5
1963,B-5,210.5,0.25,73,143.5
1964,E-6,210.5,0.25,73,143.5
1965,B-6,210.5,0.25,73,143.5
1966,G2,210.708,0.25,50,143.5
1967,E-3,210.708,0.25,50,143.5
1968,G3,210.708,0.25,50,143.5
1969,G5,211.25,0.125,65,143.5
1970,E-6,211.25,0.125,65,143.5
1971,G6,211.25,0.125,65,143.5
1972,B-2,211.458,0.125,43,143.5
1973,B-3,211.458,0.125,43,143.5
1974,G3,211.458,0.125,43,143.5
1975,G5,211.5,0.25,66,143.5
1976,E-6,211.5,0.25,66,143.5
1977,G6,211.5,0.25,66,143.5
1978,B-2,211.708,0.25,45,143.5
1979,G3,211.708,0.25,45,143.5
1980,B-3,211.708,0.25,45,143.5
1981,G5,212.0,0.25,77,143.5
1982,E-6,212.0,0.25,77,143.5
1983,G6,212.0,0.25,77,143.5
1984,C3,212.208,0.25,48,143.5
1985,G3,212.208,0.25,48,143.5
1986,C4,212.208,0.25,48,143.5
1987,E-5,212.75,0.125,70,143.5
1988,C6,212.75,0.125,70,143.5
1989,E-6,212.75,0.125,70,143.5
1990,C4,212.958,0.125,45,143.5
1991,G3,212.958,0.125,45,143.5
1992,E-4,212.958,0.125,45,143.5
1993,E-5,213.0,0.25,70,143.5
1994,C6,213.0,0.25,70,143.5
1995,E-6,213.0,0.25,70,143.5
1996,C4,213.208,0.25,46,143.5
1997,G3,213.208,0.25,46,143.5
1998,E-4,213.208,0.25,46,143.5
1999,E-5,213.5,1.5,78,143.5
2000,C6,213.5,1.5,78,143.5
2001,E-6,213.5,1.5,78,143.5
2002,C4,213.708,1.5,53,143.5
2003,G3,213.708,1.5,53,143.5
2004,E-4,213.708,1.5,53,143.5
2005,B5,215.0,0.5,77,143.5
2006,D6,215.0,0.5,77,143.5
2007,B6,215.0,0.5,77,143.5
2008,G2,215.208,0.5,51,143.5
2009,D3,215.208,0.5,51,143.5
2010,G3,215.208,0.5,51,143.5
2011,D5,215.75,0.125,69,143.5
2012,B5,215.75,0.125,69,143.5
2013,D6,215.75,0.125,69,143.5
2014,G3,215.958,0.125,44,143.5
2015,B3,215.958,0.125,44,143.5
2016,D4,215.958,0.125,44,143.5
2017,D5,216.0,0.25,69,143.5
2018,B5,216.0,0.25,69,143.5
2019,D6,216.0,0.25,69,143.5
2020,G3,216.208,0.25,44,143.5
2021,B3,216.208,0.25,44,143.5
2022,D4,216.208,0.25,44,143.5
2023,C#5,216.5,0.25,73,143.5
2024,B-5,216.5,0.25,73,143.5
2025,C#6,216.5,0.25,73,143.5
2026,B-3,216.708,0.25,48,143.5
2027,G3,216.708,0.25,48,143.5
2028,C#4,216.708,0.25,48,143.5
2029,D5,217.0,0.25,81,143.5
2030,B5,217.0,0.25,81,143.5
2031,D6,217.0,0.25,81,143.5
2032,G3,217.208,0.25,56,143.5
2033,B3,217.208,0.25,56,143.5
2034,D4,217.208,0.25,56,143.5
2035,G5,217.5,0.25,81,143.5
2036,B5,217.5,0.25,81,143.5
2037,G6,217.5,0.25,81,143.5
2038,G3,217.708,0.25,58,143.5
2039,D4,217.708,0.25,58,143.5
2040,G4,217.708,0.25,58,143.5
2041,D6,218.0,0.5,77,143.5
2042,B6,218.0,0.5,77,143.5
2043,B5,218.0,0.5,77,143.5
2044,F#3,218.208,0.5,51,143.5
2045,B3,218.208,0.5,51,143.5
2046,B2,218.208,0.5,51,143.5
2047,F#5,218.75,0.125,69,143.5
2048,F#6,218.75,0.125,69,143.5
2049,D6,218.75,0.125,69,143.5
2050,B3,218.958,0.125,44,143.5
2051,F#4,218.958,0.125,44,143.5
2052,D4,218.958,0.125,44,143.5
2053,D6,219.0,0.25,69,143.5
2054,F#5,219.0,0.25,69,143.5
2055,F#6,219.0,0.25,69,143.5
2056,F#4,219.208,0.25,44,143.5
2057,D4,219.208,0.25,44,143.5
2058,B3,219.208,0.25,44,143.5
2059,F#5,219.5,1.5,77,143.5
2060,F#6,219.5,1.5,77,143.5
2061,D6,219.5,1.5,77,143.5
2062,D4,219.708,1.5,54,143.5
2063,B3,219.708,1.5,54,143.5
2064,F#4,219.708,1.5,54,143.5
2065,B-5,221.0,0.5,69,143.5
2066,C#6,221.0,0.5,69,143.5
2067,B-6,221.0,0.5,69,143.5
2068,F#2,221.208,0.5,46,143.5
2069,C#3,221.208,0.5,46,143.5
2070,F#3,221.208,0.5,46,143.5
2071,C#5,221.75,0.125,61,143.5
2072,B-5,221.75,0.125,61,143.5
2073,C#6,221.75,0.125,61,143.5
2074,F#3,221.958,0.125,39,143.5
2075,B-3,221.958,0.125,39,143.5
2076,C#4,221.958,0.125,39,143.5
2077,C#5,222.0,0.25,61,143.5
2078,B-5,222.0,0.25,61,143.5
2079,C#6,222.0,0.25,61,143.5
2080,F#3,222.208,0.25,39,143.5
2081,B-3,222.208,0.25,39,143.5
2082,C#4,222.208,0.25,39,143.5
2083,C5,222.5,0.25,69,143.5
2084,A5,222.5,0.25,69,143.5
2085,C6,222.5,0.25,69,143.5
2086,A3,222.708,0.25,46,143.5
2087,F#3,222.708,0.25,46,143.5
2088,C4,222.708,0.25,46,143.5
2089,C#5,223.0,0.25,73,143.5
2090,B-5,223.0,0.25,73,143.5
2091,C#6,223.0,0.25,73,143.5
2092,F#3,223.208,0.25,50,143.5
2093,B-3,223.208,0.25,50,143.5
2094,C#4,223.208,0.25,50,143.5
2095,F#5,223.5,0.25,73,143.5
2096,B-5,223.5,0.25,73,143.5
2097,F#6,223.5,0.25,73,143.5
2098,F#3,223.708,0.25,52,143.5
2099,C#4,223.708,0.25,52,143.5
2100,F#4,223.708,0.25,52,143.5
2101,C#6,224.0,0.5,69,143.5
2102,B-6,224.0,0.5,69,143.5
2103,B-5,224.0,0.5,69,143.5
2104,F3,224.208,0.5,46,143.5
2105,B-3,224.208,0.5,46,143.5
2106,B-2,224.208,0.5,46,143.5
2107,F5,224.75,0.125,61,143.5
2108,F6,224.75,0.125,61,143.5
2109,C#6,224.75,0.125,61,143.5
2110,B-3,224.958,0.125,39,143.5
2111,F4,224.958,0.125,39,143.5
2112,C#4,224.958,0.125,39,143.5
2113,C#6,225.0,0.25,61,143.5
2114,F5,225.0,0.25,61,143.5
2115,F6,225.0,0.25,61,143.5
2116,F4,225.208,0.25,39,143.5
2117,C#4,225.208,0.25,39,143.5
2118,B-3,225.208,0.25,39,143.5
2119,F5,225.5,1.5,69,143.5
2120,F6,225.5,1.5,69,143.5
2121,C#6,225.5,1.5,69,143.5
2122,C#4,225.708,1.5,48,143.5
2123,B-3,225.708,1.5,48,143.5
2124,F4,225.708,1.5,48,143.5
2125,A5,227.0,0.5,63,143.5
2126,C6,227.0,0.5,63,143.5
2127,A6,227.0,0.5,63,143.5
2128,F2,227.208,0.5,44,143.5
2129,C3,227.208,0.5,44,143.5
2130,F3,227.208,0.5,44,143.5
2131,C5,227.75,0.125,58,143.5
2132,A5,227.75,0.125,58,143.5
2133,C6,227.75,0.125,58,143.5
2134,A3,227.958,0.125,40,143.5
2135,C4,227.958,0.125,40,143.5
2136,C5,228.0,0.25,58,143.5
2137,A5,228.0,0.25,58,143.5
2138,C6,228.0,0.25,58,143.5
2139,A3,228.208,0.25,40,143.5
2140,C4,228.208,0.25,40,143.5
2141,E5,228.5,0.25,65,143.5
2142,C6,228.5,0.25,65,143.5
2143,E6,228.5,0.25,65,143.5
2144,A2,228.708,0.25,45,143.5
2145,E3,228.708,0.25,45,143.5
2146,A3,228.708,0.25,45,143.5
2147,E-5,229.25,0.125,57,143.5
2148,B5,229.25,0.125,57,143.5
2149,E-6,229.25,0.125,57,143.5
2150,A3,229.458,0.125,40,143.5
2151,B3,229.458,0.125,40,143.5
2152,E-4,229.458,0.125,40,143.5
2153,E5,229.5,0.25,57,143.5
2154,C6,229.5,0.25,57,143.5
2155,E6,229.5,0.25,57,143.5
2156,A3,229.708,0.25,40,143.5
2157,C4,229.708,0.25,40,143.5
2158,E4,229.708,0.25,40,143.5
2159,G#5,230.0,0.5,63,143.5
2160,B5,230.0,0.5,63,143.5
2161,G#6,230.0,0.5,63,143.5
2162,E2,230.208,0.5,44,143.5
2163,B2,230.208,0.5,44,143.5
2164,E3,230.208,0.5,44,143.5
2165,B4,230.75,0.125,58,143.5
2166,G#5,230.75,0.125,58,143.5
2167,B5,230.75,0.125,58,143.5
2168,G#3,230.958,0.125,40,143.5
2169,B3,230.958,0.125,40,143.5
2170,B4,231.0,0.25,58,143.5
2171,G#5,231.0,0.25,58,143.5
2172,B5,231.0,0.25,58,143.5
2173,G#3,231.208,0.25,40,143.5
2174,B3,231.208,0.25,40,143.5
2175,E-5,231.5,0.25,65,143.5
2176,B5,231.5,0.25,65,143.5
2177,E-6,231.5,0.25,65,143.5
2178,G#2,231.708,0.25,45,143.5
2179,E-3,231.708,0.25,45,143.5
2180,G#3,231.708,0.25,45,143.5
2181,D5,232.25,0.125,57,143.5
2182,B5,232.25,0.125,57,143.5
2183,D6,232.25,0.125,57,143.5
2184,G#3,232.458,0.125,40,143.5
2185,B3,232.458,0.125,40,143.5
2186,D4,232.458,0.125,40,143.5
2187,E-5,232.5,0.25,57,143.5
2188,B5,232.5,0.25,57,143.5
2189,E-6,232.5,0.25,57,143.5
2190,G#3,232.708,0.25,40,143.5
2191,B3,232.708,0.25,40,143.5
2192,E-4,232.708,0.25,40,143.5
2193,G5,233.0,0.5,63,143.5
2194,B-5,233.0,0.5,63,143.5
2195,G6,233.0,0.5,63,143.5
2196,E-2,233.208,0.5,45,143.5
2197,E-3,233.208,0.5,45,143.5
2198,B-4,233.75,0.125,57,143.5
2199,E-5,233.75,0.125,57,143.5
2200,G5,233.75,0.125,57,143.5
2201,B-3,233.958,0.125,37,143.5
2202,E-4,233.958,0.125,37,143.5
2203,G4,233.958,0.125,37,143.5
2204,B-4,234.0,0.25,57,143.5
2205,E-5,234.0,0.25,57,143.5
2206,G5,234.0,0.25,57,143.5
2207,B-3,234.208,0.25,37,143.5
2208,E-4,234.208,0.25,37,143.5
2209,G4,234.208,0.25,37,143.5
2210,F#5,234.5,0.25,63,143.5
2211,B-5,234.5,0.25,63,143.5
2212,F#6,234.5,0.25,63,143.5
2213,E-2,234.708,0.25,44,143.5
2214,E-3,234.708,0.25,44,143.5
2215,B-4,235.25,0.125,56,143.5
2216,E-5,235.25,0.125,56,143.5
2217,F#5,235.25,0.125,56,143.5
2218,B-3,235.458,0.125,38,143.5
2219,E-4,235.458,0.125,38,143.5
2220,F#4,235.458,0.125,38,143.5
2221,B-4,235.5,0.25,55,143.5
2222,E-5,235.5,0.25,55,143.5
2223,F#5,235.5,0.25,55,143.5
2224,B-3,235.708,0.25,38,143.5
2225,E-4,235.708,0.25,38,143.5
2226,F#4,235.708,0.25,38,143.5
2227,E5,236.0,0.5,59,143.5
2228,G#5,236.0,0.5,59,143.5
2229,E6,236.0,0.5,59,143.5
2230,B1,236.208,0.5,42,143.5
2231,B2,236.208,0.5,42,143.5
2232,G#4,236.75,0.125,53,143.5
2233,B4,236.75,0.125,53,143.5
2234,E5,236.75,0.125,53,143.5
2235,G#3,236.958,0.125,35,143.5
2236,B3,236.958,0.125,35,143.5
2237,E4,236.958,0.125,35,143.5
2238,G#4,237.0,0.25,53,143.5
2239,B4,237.0,0.25,53,143.5
2240,E5,237.0,0.25,53,143.5
2241,G#3,237.208,0.25,35,143.5
2242,B3,237.208,0.25,35,143.5
2243,E4,237.208,0.25,35,143.5
2244,E-5,237.5,0.25,60,143.5
2245,F#5,237.5,0.25,60,143.5
2246,E-6,237.5,0.25,60,143.5
2247,C2,237.708,0.25,42,143.5
2248,C3,237.708,0.25,42,143.5
2249,F#4,238.25,0.125,53,143.5
2250,A4,238.25,0.125,53,143.5
2251,E-5,238.25,0.125,53,143.5
2252,F#3,238.458,0.125,36,143.5
2253,A3,238.458,0.125,36,143.5
2254,E-4,238.458,0.125,36,143.5
2255,F#4,238.5,0.25,52,143.5
2256,A4,238.5,0.25,52,143.5
2257,E-5,238.5,0.25,52,143.5
2258,F#3,238.708,0.25,37,143.5
2259,A3,238.708,0.25,37,143.5
2260,E-4,238.708,0.25,37,143.5
2261,E-6,238.875,0.125,76,143.5
2262,C#5,239.0,0.5,76,143.5
2263,C#6,239.0,0.5,76,143.5
2264,C#2,239.208,0.5,50,143.5
2265,C#3,239.208,0.5,50,143.5
2266,F#4,239.75,0.125,53,143.5
2267,B-4,239.75,0.125,53,143.5
2268,C#5,239.75,0.125,53,143.5
2269,F#3,239.958,0.125,35,143.5
2270,B-3,239.958,0.125,35,143.5
2271,C#4,239.958,0.125,35,143.5
2272,G4,240.0,0.25,53,143.5
2273,B-4,240.0,0.25,53,143.5
2274,C#5,240.0,0.25,53,143.5
2275,G3,240.208,0.25,35,143.5
2276,B-3,240.208,0.25,35,143.5
2277,C#4,240.208,0.25,35,143.5
2278,G4,240.5,0.25,60,143.5
2279,B-4,240.5,0.25,60,143.5
2280,C#5,240.5,0.25,60,143.5
2281,G3,240.708,0.25,41,143.5
2282,B-3,240.708,0.25,41,143.5
2283,C#4,240.708,0.25,41,143.5
2284,G#4,241.25,0.125,53,143.5
2285,B4,241.25,0.125,53,143.5
2286,C#5,241.25,0.125,53,143.5
2287,G#3,241.458,0.125,36,143.5
2288,B3,241.458,0.125,36,143.5
2289,C#4,241.458,0.125,36,143.5
2290,F4,241.5,0.25,52,143.5
2291,G#4,241.5,0.25,52,143.5
2292,C#5,241.5,0.25,52,143.5
2293,F3,241.708,0.25,37,143.5
2294,G#3,241.708,0.25,37,143.5
2295,C#4,241.708,0.25,37,143.5
2296,E-6,241.875,0.125,76,143.5
2297,C#5,242.0,0.5,76,143.5
2298,C#6,242.0,0.5,76,143.5
2299,C#2,242.208,0.5,50,143.5
2300,C#3,242.208,0.5,50,143.5
2301,F#4,242.75,0.125,53,143.5
2302,B-4,242.75,0.125,53,143.5
2303,C#5,242.75,0.125,53,143.5
2304,F#3,242.958,0.125,35,143.5
2305,B-3,242.958,0.125,35,143.5
2306,C#4,242.958,0.125,35,143.5
2307,G4,243.0,0.25,53,143.5
2308,B-4,243.0,0.25,53,143.5
2309,C#5,243.0,0.25,53,143.5
2310,G3,243.208,0.25,35,143.5
2311,B-3,243.208,0.25,35,143.5
2312,C#4,243.208,0.25,35,143.5
2313,G4,243.5,0.25,60,143.5
2314,B-4,243.5,0.25,60,143.5
2315,C#5,243.5,0.25,60,143.5
2316,G3,243.708,0.25,41,143.5
2317,B-3,243.708,0.25,41,143.5
2318,C#4,243.708,0.25,41,143.5
2319,G#4,244.25,0.125,53,143.5
2320,B4,244.25,0.125,53,143.5
2321,C#5,244.25,0.125,53,143.5
2322,G#3,244.458,0.125,36,143.5
2323,B3,244.458,0.125,36,143.5
2324,C#4,244.458,0.125,36,143.5
2325,F4,244.5,0.25,52,143.5
2326,G#4,244.5,0.25,52,143.5
2327,C#5,244.5,0.25,52,143.5
2328,F3,244.708,0.25,37,143.5
2329,G#3,244.708,0.25,37,143.5
2330,C#4,244.708,0.25,37,143.5
2331,B5,244.875,0.125,76,143.5
2332,B-4,245.0,0.5,76,143.5
2333,B-5,245.0,0.5,76,143.5
2334,B-1,245.208,0.5,50,143.5
2335,B-2,245.208,0.5,50,143.5
2336,E-4,245.75,0.125,53,143.5
2337,F#4,245.75,0.125,53,143.5
2338,B-4,245.75,0.125,53,143.5
2339,E-3,245.958,0.125,35,143.5
2340,F#3,245.958,0.125,35,143.5
2341,B-3,245.958,0.125,35,143.5
2342,E4,246.0,0.25,53,143.5
2343,G4,246.0,0.25,53,143.5
2344,B-4,246.0,0.25,53,143.5
2345,E3,246.208,0.25,35,143.5
2346,G3,246.208,0.25,35,143.5
2347,B-3,246.208,0.25,35,143.5
2348,E4,246.5,0.25,60,143.5
2349,G4,246.5,0.25,60,143.5
2350,B-4,246.5,0.25,60,143.5
2351,E3,246.708,0.25,41,143.5
2352,G3,246.708,0.25,41,143.5
2353,B-3,246.708,0.25,41,143.5
2354,F4,247.25,0.125,53,143.5
2355,G#4,247.25,0.125,53,143.5
2356,B-4,247.25,0.125,53,143.5
2357,F3,247.458,0.125,36,143.5
2358,G#3,247.458,0.125,36,143.5
2359,B-3,247.458,0.125,36,143.5
2360,D4,247.5,0.25,52,143.5
2361,F4,247.5,0.25,52,143.5
2362,B-4,247.5,0.25,52,143.5
2363,D3,247.708,0.25,37,143.5
2364,F3,247.708,0.25,37,143.5
2365,B-3,247.708,0.25,37,143.5
2366,B5,247.875,0.125,76,143.5
2367,B-4,248.0,0.5,72,143.5
2368,B-5,248.0,0.5,72,143.5
2369,B-1,248.208,0.5,48,143.5
2370,B-2,248.208,0.5,48,143.5
2371,E-4,248.75,0.125,47,143.5
2372,F#4,248.75,0.125,47,143.5
2373,B-4,248.75,0.125,47,143.5
2374,E-3,248.958,0.125,31,143.5
2375,F#3,248.958,0.125,31,143.5
2376,B-3,248.958,0.125,31,143.5
2377,E4,249.0,0.25,46,143.5
2378,G4,249.0,0.25,46,143.5
2379,B-4,249.0,0.25,46,143.5
2380,E3,249.208,0.25,30,143.5
2381,G3,249.208,0.25,30,143.5
2382,B-3,249.208,0.25,30,143.5
2383,E4,249.5,0.25,49,143.5
2384,G4,249.5,0.25,49,143.5
2385,B-4,249.5,0.25,49,143.5
2386,E3,249.708,0.25,33,143.5
2387,G3,249.708,0.25,33,143.5
2388,B-3,249.708,0.25,33,143.5
2389,F4,250.25,0.125,40,143.5
2390,G#4,250.25,0.125,40,143.5
2391,B-4,250.25,0.125,40,143.5
2392,F3,250.458,0.125,28,143.5
2393,G#3,250.458,0.125,28,143.5
2394,B-3,250.458,0.125,28,143.5
2395,D4,250.5,0.25,38,143.5
2396,F4,250.5,0.25,38,143.5
2397,B-4,250.5,0.25,38,143.5
2398,D3,250.708,0.25,27,143.5
2399,F3,250.708,0.25,27,143.5
2400,B-3,250.708,0.25,27,143.5
2401,G4,251.0,3.0,49,143.5
2402,E-2,251.208,0.25,28,143.5
2403,B-2,251.208,0.25,28,143.5
2404,E-3,251.208,0.25,28,143.5
2405,G3,251.25,0.25,28,143.5
2406,B-3,251.5,0.25,28,143.5
2407,F4,251.75,0.75,45,143.5
2408,E-2,251.958,0.125,19,143.5
2409,B-2,251.958,0.125,19,143.5
2410,E-3,251.958,0.125,19,143.5
2411,G3,252.0,0.25,26,143.5
2412,E-2,252.208,0.25,28,143.5
2413,B-2,252.208,0.25,28,143.5
2414,E-3,252.208,0.25,28,143.5
2415,B-3,252.25,0.25,26,143.5
2416,E-4,252.5,0.75,45,143.5
2417,G3,252.75,0.25,25,143.5
2418,B-3,253.0,0.25,26,143.5
2419,D4,253.25,0.75,45,143.5
2420,G3,253.5,0.25,26,143.5
2421,B-3,253.75,0.25,26,143.5
2422,G4,254.0,1.5,53,143.5
2423,E-2,254.208,0.25,28,143.5
2424,B-2,254.208,0.25,28,143.5
2425,E-3,254.208,0.25,28,143.5
2426,G3,254.25,0.25,28,143.5
2427,B-3,254.5,0.25,28,143.5
2428,C4,254.75,0.75,46,143.5
2429,E-2,254.958,0.125,19,143.5
2430,B-2,254.958,0.125,19,143.5
2431,E-3,254.958,0.125,19,143.5
2432,G3,255.0,0.25,25,143.5
2433,E-2,255.208,0.25,28,143.5
2434,B-2,255.208,0.25,28,143.5
2435,E-3,255.208,0.25,28,143.5
2436,A3,255.25,0.25,25,143.5
2437,G4,255.5,1.5,49,143.5
2438,G3,255.75,0.25,27,143.5
2439,B-3,256.0,0.25,27,143.5
2440,E-4,256.25,0.25,37,143.5
2441,G3,256.5,0.25,25,143.5
2442,B-3,256.75,0.25,25,143.5
2443,G4,257.0,0.75,49,143.5
2444,E-2,257.208,0.25,28,143.5
2445,B2,257.208,0.25,28,143.5
2446,D3,257.208,0.25,28,143.5
2447,G#3,257.25,0.25,28,143.5
2448,B3,257.5,0.25,28,143.5
2449,E4,257.75,0.75,45,143.5
2450,E-2,257.958,0.125,19,143.5
2451,B2,257.958,0.125,19,143.5
2452,D3,257.958,0.125,19,143.5
2453,G#3,258.0,0.25,27,143.5
2454,E-2,258.208,0.25,28,143.5
2455,B2,258.208,0.25,28,143.5
2456,D3,258.208,0.25,28,143.5
2457,B3,258.25,0.25,27,143.5
2458,F4,258.5,0.75,52,143.5
2459,G#3,258.75,0.25,27,143.5
2460,B3,259.0,0.25,27,143.5
2461,G4,259.25,0.75,58,143.5
2462,G#3,259.5,0.25,29,143.5
2463,B3,259.75,0.25,30,143.5
2464,G#4,260.0,0.75,61,143.5
2465,E-2,260.208,0.25,29,143.5
2466,B-2,260.208,0.25,29,143.5
2467,D3,260.208,0.25,29,143.5
2468,G#3,260.25,0.25,33,143.5
2469,D4,260.5,0.25,33,143.5
2470,A4,260.75,0.75,61,143.5
2471,E-2,260.958,0.125,21,143.5
2472,B-2,260.958,0.125,21,143.5
2473,D3,260.958,0.125,21,143.5
2474,G#3,261.0,0.25,32,143.5
2475,E-2,261.208,0.25,29,143.5
2476,B-2,261.208,0.25,29,143.5
2477,D3,261.208,0.25,29,143.5
2478,D4,261.25,0.25,36,143.5
2479,C5,261.5,0.75,65,143.5
2480,G#3,261.75,0.25,35,143.5
2481,D4,262.0,0.25,33,143.5
2482,B-4,262.25,0.75,52,143.5
2483,G#3,262.5,0.25,27,143.5
2484,D4,262.75,0.25,27,143.5
2485,G4,263.0,3.0,49,143.5
2486,E-2,263.208,0.25,28,143.5
2487,B-2,263.208,0.25,28,143.5
2488,E-3,263.208,0.25,28,143.5
2489,G3,263.25,0.25,28,143.5
2490,B-3,263.5,0.25,28,143.5
2491,F4,263.75,0.75,45,143.5
2492,E-2,263.958,0.125,19,143.5
2493,B-2,263.958,0.125,19,143.5
2494,E-3,263.958,0.125,19,143.5
2495,G3,264.0,0.25,26,143.5
2496,E-2,264.208,0.25,28,143.5
2497,B-2,264.208,0.25,28,143.5
2498,E-3,264.208,0.25,28,143.5
2499,B-3,264.25,0.25,26,143.5
2500,E-4,264.5,0.75,45,143.5
2501,G3,264.75,0.25,25,143.5
2502,B-3,265.0,0.25,26,143.5
2503,D4,265.25,0.75,45,143.5
2504,G3,265.5,0.25,26,143.5
2505,B-3,265.75,0.25,26,143.5
2506,G4,266.0,1.5,53,143.5
2507,E-2,266.208,0.25,28,143.5
2508,B-2,266.208,0.25,28,143.5
2509,E-3,266.208,0.25,28,143.5
2510,G3,266.25,0.25,28,143.5
2511,B-3,266.5,0.25,28,143.5
2512,C4,266.75,0.75,44,143.5
2513,E-2,266.958,0.125,19,143.5
2514,B-2,266.958,0.125,19,143.5
2515,E-3,266.958,0.125,19,143.5
2516,G3,267.0,0.25,25,143.5
2517,E-2,267.208,0.25,28,143.5
2518,B-2,267.208,0.25,28,143.5
2519,E-3,267.208,0.25,28,143.5
2520,A3,267.25,0.25,25,143.5
2521,G4,267.5,1.5,49,143.5
2522,G3,267.75,0.25,27,143.5
2523,B-3,268.0,0.25,27,143.5
2524,E-4,268.25,0.25,37,143.5
2525,G3,268.5,0.25,25,143.5
2526,B-3,268.75,0.25,25,143.5
2527,G4,269.0,0.75,56,143.5
2528,D2,269.208,0.25,28,143.5
2529,C3,269.208,0.25,28,143.5
2530,D3,269.208,0.25,28,143.5
2531,A3,269.25,0.25,28,143.5
2532,C4,269.5,0.25,28,143.5
2533,F#4,269.75,0.75,56,143.5
2534,D2,269.958,0.125,19,143.5
2535,C3,269.958,0.125,19,143.5
2536,D3,269.958,0.125,19,143.5
2537,A3,270.0,0.25,32,143.5
2538,D2,270.208,0.25,28,143.5
2539,C3,270.208,0.25,28,143.5
2540,D3,270.208,0.25,28,143.5
2541,C4,270.25,0.25,32,143.5
2542,B-4,270.5,0.75,63,143.5
2543,C4,270.75,0.25,30,143.5
2544,D4,271.0,0.25,33,143.5
2545,A4,271.25,0.75,62,143.5
2546,D3,271.458,0.25,20,143.5
2547,F#3,271.458,0.25,20,143.5
2548,C4,271.5,0.25,35,143.5
2549,D3,271.708,0.5,28,143.5
2550,F#3,271.708,0.5,28,143.5
2551,D4,271.75,0.25,35,143.5
2552,C5,272.0,0.75,68,143.5
2553,B-3,272.25,0.25,39,143.5
2554,D4,272.5,0.25,40,143.5
2555,B-4,272.75,0.75,67,143.5
2556,G2,272.958,0.125,23,143.5
2557,D3,272.958,0.125,23,143.5
2558,G3,272.958,0.125,23,143.5
2559,B-3,273.0,0.25,36,143.5
2560,G2,273.208,0.25,32,143.5
2561,D3,273.208,0.25,32,143.5
2562,G3,273.208,0.25,32,143.5
2563,D4,273.25,0.25,40,143.5
2564,D5,273.5,0.75,72,143.5
2565,D4,273.75,0.25,41,143.5
2566,F4,274.0,0.25,38,143.5
2567,B-2,274.208,0.5,29,143.5
2568,G#3,274.208,0.5,29,143.5
2569,B-3,274.208,0.5,29,143.5
2570,C5,274.25,0.75,60,143.5
2571,D4,274.5,0.25,33,143.5
2572,B-2,274.708,0.5,29,143.5
2573,G#3,274.708,0.5,29,143.5
2574,B-3,274.708,0.5,29,143.5
2575,B-4,274.75,0.25,33,143.5
2576,G5,275.0,3.0,63,143.5
2577,E-2,275.208,0.5,38,143.5
2578,G4,275.25,0.25,47,143.5
2579,B-4,275.5,0.25,47,143.5
2580,G3,275.708,0.5,24,143.5
2581,B-3,275.708,0.5,24,143.5
2582,F4,275.708,0.5,24,143.5
2583,F5,275.75,0.75,58,143.5
2584,G4,276.0,0.25,44,143.5
2585,G2,276.208,0.5,32,143.5
2586,B-4,276.25,0.25,44,143.5
2587,E-5,276.5,0.75,57,143.5
2588,E-4,276.708,0.5,33,143.5
2589,B-3,276.708,0.5,33,143.5
2590,G3,276.708,0.5,33,143.5
2591,G4,276.75,0.25,42,143.5
2592,B-4,277.0,0.25,44,143.5
2593,B-2,277.208,0.5,34,143.5
2594,D5,277.25,0.75,57,143.5
2595,G4,277.5,0.25,44,143.5
2596,D4,277.708,0.5,29,143.5
2597,B-3,277.708,0.5,29,143.5
2598,G3,277.708,0.5,29,143.5
2599,B-4,277.75,0.25,44,143.5
2600,G5,278.0,1.5,67,143.5
2601,E-3,278.208,0.5,38,143.5
2602,G4,278.25,0.25,47,143.5
2603,B-4,278.5,0.25,47,143.5
2604,C4,278.708,0.5,26,143.5
2605,G3,278.708,0.5,26,143.5
2606,C5,278.75,0.75,56,143.5
2607,G4,279.0,0.25,42,143.5
2608,B-2,279.208,0.5,35,143.5
2609,A4,279.25,0.25,42,143.5
2610,G5,279.5,1.5,63,143.5
2611,B-3,279.708,0.5,30,143.5
2612,G3,279.708,0.5,30,143.5
2613,G4,279.75,0.25,45,143.5
2614,B-4,280.0,0.25,45,143.5
2615,G2,280.208,0.5,33,143.5
2616,E-5,280.25,0.25,57,143.5
2617,G4,280.5,0.25,42,143.5
2618,B-3,280.708,0.5,30,143.5
2619,G3,280.708,0.5,30,143.5
2620,B-4,280.75,0.25,42,143.5
2621,G4,281.0,0.25,47,143.5
2622,G5,281.0,0.75,63,143.5
2623,E-2,281.208,0.5,38,143.5
2624,G#4,281.25,0.25,47,143.5
2625,B4,281.5,0.25,47,143.5
2626,D4,281.708,0.5,30,143.5
2627,B3,281.708,0.5,30,143.5
2628,G#3,281.708,0.5,30,143.5
2629,E4,281.75,0.25,45,143.5
2630,E5,281.75,0.75,58,143.5
2631,G#4,282.0,0.25,45,143.5
2632,G#2,282.208,0.5,36,143.5
2633,B4,282.25,0.25,45,143.5
2634,F4,282.5,0.25,45,143.5
2635,F5,282.5,0.75,66,143.5
2636,B3,282.708,0.5,32,143.5
2637,D4,282.708,0.5,32,143.5
2638,G#3,282.708,0.5,32,143.5
2639,G#4,282.75,0.25,45,143.5
2640,B4,283.0,0.25,45,143.5
2641,B2,283.208,0.5,38,143.5
2642,G4,283.25,0.25,48,143.5
2643,G5,283.25,0.75,71,143.5
2644,B4,283.5,0.25,48,143.5
2645,D4,283.708,0.5,34,143.5
2646,B3,283.708,0.5,34,143.5
2647,G#3,283.708,0.5,34,143.5
2648,D5,283.75,0.25,50,143.5
2649,G#4,284.0,0.25,54,143.5
2650,G#5,284.0,0.75,75,143.5
2651,E-2,284.208,0.5,40,143.5
2652,D5,284.25,0.25,54,143.5
2653,F5,284.5,0.25,54,143.5
2654,F4,284.708,0.5,29,143.5
2655,B-3,284.708,0.5,29,143.5
2656,G#3,284.708,0.5,29,143.5
2657,A4,284.75,0.25,54,143.5
2658,A5,284.75,0.75,75,143.5
2659,D5,285.0,0.25,54,143.5
2660,B-2,285.208,0.5,42,143.5
2661,F5,285.25,0.25,60,143.5
2662,C5,285.5,0.25,57,143.5
2663,C6,285.5,0.75,80,143.5
2664,F4,285.708,0.5,42,143.5
2665,B-3,285.708,0.5,42,143.5
2666,G#3,285.708,0.5,42,143.5
2667,D5,285.75,0.25,57,143.5
2668,F5,286.0,0.25,54,143.5
2669,D3,286.208,0.5,32,143.5
2670,B-4,286.25,0.25,45,143.5
2671,B-5,286.25,0.75,63,143.5
2672,D5,286.5,0.25,45,143.5
2673,F4,286.708,0.5,28,143.5
2674,B-3,286.708,0.5,28,143.5
2675,G#3,286.708,0.5,28,143.5
2676,F5,286.75,0.25,45,143.5
2677,G5,287.0,3.0,63,143.5
2678,E-2,287.208,0.5,38,143.5
2679,G4,287.25,0.25,47,143.5
2680,B-4,287.5,0.25,47,143.5
2681,F4,287.708,0.5,25,143.5
2682,B-3,287.708,0.5,25,143.5
2683,G3,287.708,0.5,25,143.5
2684,F5,287.75,0.75,58,143.5
2685,G4,288.0,0.25,44,143.5
2686,G2,288.208,0.5,34,143.5
2687,B-4,288.25,0.25,44,143.5
2688,E-5,288.5,0.75,57,143.5
2689,E-4,288.708,0.5,29,143.5
2690,B-3,288.708,0.5,29,143.5
2691,G3,288.708,0.5,29,143.5
2692,G4,288.75,0.25,42,143.5
2693,B-4,289.0,0.25,44,143.5
2694,B-2,289.208,0.5,34,143.5
2695,D5,289.25,0.75,57,143.5
2696,G4,289.5,0.25,44,143.5
2697,D4,289.708,0.5,29,143.5
2698,B-3,289.708,0.5,29,143.5
2699,G3,289.708,0.5,29,143.5
2700,B-4,289.75,0.25,44,143.5
2701,G5,290.0,1.5,67,143.5
2702,E-3,290.208,0.5,38,143.5
2703,G4,290.25,0.25,47,143.5
2704,B-4,290.5,0.25,47,143.5
2705,C4,290.708,0.5,28,143.5
2706,G3,290.708,0.5,28,143.5
2707,C5,290.75,0.75,56,143.5
2708,G4,291.0,0.25,42,143.5
2709,B-2,291.208,0.5,36,143.5
2710,A4,291.25,0.25,42,143.5
2711,G5,291.5,1.5,63,143.5
2712,B-3,291.708,0.5,33,143.5
2713,G3,291.708,0.5,33,143.5
2714,G4,291.75,0.25,45,143.5
2715,B-4,292.0,0.25,45,143.5
2716,G2,292.208,0.5,36,143.5
2717,E-5,292.25,0.25,57,143.5
2718,G4,292.5,0.25,42,143.5
2719,B-3,292.708,0.5,33,143.5
2720,G3,292.708,0.5,33,143.5
2721,B-4,292.75,0.25,42,143.5
2722,G4,293.0,0.25,47,143.5
2723,G5,293.0,0.75,72,143.5
2724,D2,293.208,0.5,38,143.5
2725,A4,293.25,0.25,47,143.5
2726,C5,293.5,0.25,47,143.5
2727,D4,293.708,0.5,30,143.5
2728,C4,293.708,0.5,30,143.5
2729,A3,293.708,0.5,30,143.5
2730,F#4,293.75,0.25,54,143.5
2731,F#5,293.75,0.75,71,143.5
2732,A4,294.0,0.25,54,143.5
2733,A2,294.208,0.5,36,143.5
2734,C5,294.25,0.25,54,143.5
2735,E-5,294.5,0.25,52,143.5
2736,E-6,294.5,0.75,82,143.5
2737,E-4,294.708,0.5,33,143.5
2738,C4,294.708,0.5,33,143.5
2739,F#3,294.708,0.5,33,143.5
2740,F#5,294.75,0.25,51,143.5
2741,A5,295.0,0.25,54,143.5
2742,D3,295.208,0.5,42,143.5
2743,D5,295.25,0.25,50,143.5
2744,D6,295.25,0.75,81,143.5
2745,F#5,295.5,0.25,57,143.5
2746,D4,295.708,0.5,39,143.5
2747,C4,295.708,0.5,39,143.5
2748,A3,295.708,0.5,39,143.5
2749,A5,295.75,0.25,58,143.5
2750,D5,296.0,0.25,50,143.5
2751,D6,296.0,0.75,83,143.5
2752,G2,296.208,0.5,38,143.5
2753,G5,296.25,0.25,63,143.5
2754,B5,296.5,0.25,62,143.5
2755,B3,296.708,0.5,32,143.5
2756,D4,296.708,0.5,32,143.5
2757,B4,296.75,0.25,48,143.5
2758,B5,296.75,0.75,70,143.5
2759,D5,297.0,0.25,60,143.5
2760,D3,297.208,0.5,38,143.5
2761,G5,297.25,0.25,61,143.5
2762,G4,297.5,0.25,47,143.5
2763,G5,297.5,0.75,66,143.5
2764,D4,297.708,0.5,27,143.5
2765,B3,297.708,0.5,27,143.5
2766,B4,297.75,0.25,54,143.5
2767,D5,298.0,0.25,54,143.5
2768,G3,298.208,0.5,34,143.5
2769,G4,298.25,0.25,46,143.5
2770,G5,298.25,0.75,66,143.5
2771,B4,298.5,0.25,54,143.5
2772,D4,298.708,0.5,31,143.5
2773,B3,298.708,0.5,31,143.5
2774,D5,298.75,0.25,50,143.5
2775,G5,299.0,3.0,63,143.5
2776,E2,299.208,0.5,38,143.5
2777,G4,299.25,0.25,47,143.5
2778,B4,299.5,0.25,47,143.5
2779,G3,299.708,0.5,22,143.5
2780,B3,299.708,0.5,22,143.5
2781,F#4,299.708,0.5,22,143.5
2782,F#5,299.75,0.75,58,143.5
2783,G4,300.0,0.25,44,143.5
2784,G2,300.208,0.5,32,143.5
2785,B4,300.25,0.25,44,143.5
2786,E5,300.5,0.75,57,143.5
2787,E4,300.708,0.5,33,143.5
2788,B3,300.708,0.5,33,143.5
2789,G3,300.708,0.5,33,143.5
2790,G4,300.75,0.25,42,143.5
2791,B4,301.0,0.25,44,143.5
2792,B2,301.208,0.5,34,143.5
2793,D5,301.25,0.75,57,143.5
2794,G4,301.5,0.25,44,143.5
2795,D4,301.708,0.5,29,143.5
2796,B3,301.708,0.5,29,143.5
2797,G3,301.708,0.5,29,143.5
2798,B4,301.75,0.25,44,143.5
2799,G5,302.0,1.5,67,143.5
2800,E3,302.208,0.5,38,143.5
2801,G4,302.25,0.25,47,143.5
2802,B4,302.5,0.25,47,143.5
2803,C4,302.708,0.5,26,143.5
2804,G3,302.708,0.5,26,143.5
2805,C5,302.75,0.75,56,143.5
2806,G4,303.0,0.25,42,143.5
2807,B2,303.208,0.5,35,143.5
2808,B4,303.25,0.25,42,143.5
2809,G5,303.5,1.5,63,143.5
2810,B3,303.708,0.5,30,143.5
2811,G3,303.708,0.5,30,143.5
2812,G4,303.75,0.25,45,143.5
2813,B4,304.0,0.25,45,143.5
2814,E2,304.208,0.5,33,143.5
2815,E5,304.25,0.25,57,143.5
2816,G4,304.5,0.25,42,143.5
2817,B3,304.708,0.5,30,143.5
2818,G3,304.708,0.5,30,143.5
2819,B4,304.75,0.25,42,143.5
2820,G4,305.0,0.25,47,143.5
2821,G5,305.0,0.75,63,143.5
2822,C2,305.208,0.5,38,143.5
2823,A4,305.25,0.25,47,143.5
2824,E-5,305.5,0.25,47,143.5
2825,E-4,305.708,0.5,30,143.5
2826,A3,305.708,0.5,30,143.5
2827,G3,305.708,0.5,30,143.5
2828,F4,305.75,0.25,45,143.5
2829,F5,305.75,0.75,58,143.5
2830,A4,306.0,0.25,45,143.5
2831,A2,306.208,0.5,36,143.5
2832,E-5,306.25,0.25,45,143.5
2833,F#4,306.5,0.25,45,143.5
2834,F#5,306.5,0.75,66,143.5
2835,A3,306.708,0.5,32,143.5
2836,E-4,306.708,0.5,32,143.5
2837,F#3,306.708,0.5,32,143.5
2838,A4,306.75,0.25,45,143.5
2839,E-5,307.0,0.25,45,143.5
2840,C3,307.208,0.5,38,143.5
2841,G4,307.25,0.25,48,143.5
2842,G5,307.25,0.75,72,143.5
2843,A4,307.5,0.25,48,143.5
2844,E-4,307.708,0.5,34,143.5
2845,A3,307.708,0.5,34,143.5
2846,F#3,307.708,0.5,34,143.5
2847,E-5,307.75,0.25,50,143.5
2848,G#4,308.0,0.25,54,143.5
2849,G#5,308.0,0.75,75,143.5
2850,B1,308.208,0.5,40,143.5
2851,E-5,308.25,0.25,54,143.5
2852,F#5,308.5,0.25,54,143.5
2853,E-4,308.708,0.5,29,143.5
2854,A3,308.708,0.5,29,143.5
2855,F#3,308.708,0.5,29,143.5
2856,A4,308.75,0.25,54,143.5
2857,A5,308.75,0.75,75,143.5
2858,E-5,309.0,0.25,54,143.5
2859,B2,309.208,0.5,42,143.5
2860,F#5,309.25,0.25,60,143.5
2861,C5,309.5,0.25,57,143.5
2862,C6,309.5,0.75,80,143.5
2863,F#4,309.708,0.5,42,143.5
2864,C4,309.708,0.5,42,143.5
2865,A3,309.708,0.5,42,143.5
2866,E-5,309.75,0.25,57,143.5
2867,F#5,310.0,0.25,54,143.5
2868,E-3,310.208,0.5,32,143.5
2869,B4,310.25,0.25,45,143.5
2870,B5,310.25,0.75,63,143.5
2871,E-5,310.5,0.25,45,143.5
2872,F#4,310.708,0.5,28,143.5
2873,B3,310.708,0.5,28,143.5
2874,A3,310.708,0.5,28,143.5
2875,F#5,310.75,0.25,45,143.5
2876,G5,311.0,3.0,63,143.5
2877,E2,311.208,0.5,38,143.5
2878,G4,311.25,0.25,47,143.5
2879,B4,311.5,0.25,47,143.5
2880,F#4,311.708,0.5,24,143.5
2881,B3,311.708,0.5,24,143.5
2882,G3,311.708,0.5,24,143.5
2883,F#5,311.75,0.75,58,143.5
2884,G4,312.0,0.25,44,143.5
2885,G2,312.208,0.5,34,143.5
2886,B4,312.25,0.25,44,143.5
2887,E5,312.5,0.75,57,143.5
2888,E4,312.708,0.5,29,143.5
2889,B3,312.708,0.5,29,143.5
2890,G3,312.708,0.5,29,143.5
2891,G4,312.75,0.25,42,143.5
2892,B4,313.0,0.25,44,143.5
2893,B2,313.208,0.5,34,143.5
2894,D5,313.25,0.75,57,143.5
2895,G4,313.5,0.25,44,143.5
2896,D4,313.708,0.5,29,143.5
2897,B3,313.708,0.5,29,143.5
2898,G3,313.708,0.5,29,143.5
2899,B4,313.75,0.25,44,143.5
2900,G5,314.0,1.5,67,143.5
2901,E3,314.208,0.5,38,143.5
2902,G4,314.25,0.25,47,143.5
2903,B4,314.5,0.25,47,143.5
2904,C4,314.708,0.5,28,143.5
2905,G3,314.708,0.5,28,143.5
2906,C5,314.75,0.75,56,143.5
2907,G4,315.0,0.25,42,143.5
2908,B2,315.208,0.5,36,143.5
2909,B4,315.25,0.25,42,143.5
2910,G5,315.5,1.5,63,143.5
2911,B3,315.708,0.5,33,143.5
2912,G3,315.708,0.5,33,143.5
2913,G4,315.75,0.25,45,143.5
2914,B4,316.0,0.25,45,143.5
2915,E2,316.208,0.5,36,143.5
2916,E5,316.25,0.25,57,143.5
2917,G4,316.5,0.25,42,143.5
2918,B3,316.708,0.5,33,143.5
2919,G3,316.708,0.5,33,143.5
2920,B4,316.75,0.25,42,143.5
2921,G4,317.0,0.25,47,143.5
2922,G5,317.0,0.75,72,143.5
2923,E-2,317.208,0.5,38,143.5
2924,A4,317.25,0.25,47,143.5
2925,C5,317.5,0.25,47,143.5
2926,C4,317.708,0.5,30,143.5
2927,A3,317.708,0.5,30,143.5
2928,G3,317.708,0.5,30,143.5
2929,F4,317.75,0.25,64,143.5
2930,F5,317.75,0.75,64,143.5
2931,A4,318.0,0.25,54,143.5
2932,A2,318.208,0.5,36,143.5
2933,C5,318.25,0.25,54,143.5
2934,F#4,318.5,0.25,68,143.5
2935,F#5,318.5,0.75,68,143.5
2936,C4,318.708,0.5,33,143.5
2937,A3,318.708,0.5,33,143.5
2938,F#3,318.708,0.5,33,143.5
2939,A4,318.75,0.25,51,143.5
2940,C5,319.0,0.25,54,143.5
2941,C3,319.208,0.5,42,143.5
2942,G4,319.25,0.25,72,143.5
2943,G5,319.25,0.75,72,143.5
2944,A4,319.5,0.25,57,143.5
2945,E-4,319.708,0.5,39,143.5
2946,A3,319.708,0.5,39,143.5
2947,F#3,319.708,0.5,39,143.5
2948,C5,319.75,0.25,58,143.5
2949,G#4,320.0,0.25,77,143.5
2950,G#5,320.0,0.75,77,143.5
2951,D2,320.208,0.5,42,143.5
2952,C5,320.25,0.25,60,143.5
2953,F#5,320.5,0.25,60,143.5
2954,F#3,320.708,0.5,36,143.5
2955,C4,320.708,0.5,36,143.5
2956,E-4,320.708,0.5,36,143.5
2957,A4,320.75,0.25,72,143.5
2958,A5,320.75,0.75,72,143.5
2959,C5,321.0,0.25,60,143.5
2960,A2,321.208,0.5,47,143.5
2961,F#5,321.25,0.25,57,143.5
2962,E-5,321.5,0.25,79,143.5
2963,E-6,321.5,0.75,79,143.5
2964,F#3,321.708,0.5,33,143.5
2965,E-4,321.708,0.5,33,143.5
2966,C4,321.708,0.5,33,143.5
2967,F#5,321.75,0.25,54,143.5
2968,A5,322.0,0.25,54,143.5
2969,D3,322.208,0.5,34,143.5
2970,D5,322.25,0.25,46,143.5
2971,D6,322.25,0.75,66,143.5
2972,F#5,322.5,0.25,54,143.5
2973,A3,322.708,0.5,30,143.5
2974,D4,322.708,0.5,30,143.5
2975,C4,322.708,0.5,30,143.5
2976,A5,322.75,0.25,50,143.5
2977,B-5,323.0,3.0,63,143.5
2978,G2,323.208,0.5,38,143.5
2979,B-4,323.25,0.25,47,143.5
2980,D5,323.5,0.25,47,143.5
2981,A4,323.708,0.5,24,143.5
2982,B-3,323.708,0.5,24,143.5
2983,D4,323.708,0.5,24,143.5
2984,A5,323.75,0.75,60,143.5
2985,B-4,324.0,0.25,50,143.5
2986,B-2,324.208,0.5,32,143.5
2987,D5,324.25,0.25,50,143.5
2988,G5,324.5,0.75,62,143.5
2989,G4,324.708,0.5,33,143.5
2990,D4,324.708,0.5,33,143.5
2991,B-3,324.708,0.5,33,143.5
2992,B-4,324.75,0.25,51,143.5
2993,D5,325.0,0.25,54,143.5
2994,D3,325.208,0.5,34,143.5
2995,F5,325.25,0.75,63,143.5
2996,B-4,325.5,0.25,53,143.5
2997,E-4,325.708,0.5,29,143.5
2998,B-3,325.708,0.5,29,143.5
2999,G3,325.708,0.5,29,143.5
3000,E-5,325.75,0.25,55,143.5
3001,C6,326.0,1.5,72,143.5
3002,F#2,326.208,0.5,38,143.5
3003,C5,326.25,0.25,54,143.5
3004,E-5,326.5,0.25,56,143.5
3005,E-4,326.708,0.5,25,143.5
3006,B-4,326.708,0.5,25,143.5
3007,C4,326.708,0.5,25,143.5
3008,B-5,326.75,0.75,66,143.5
3009,C5,327.0,0.25,52,143.5
3010,F2,327.208,0.5,35,143.5
3011,E-5,327.25,0.25,53,143.5
3012,A5,327.5,0.25,50,143.5
3013,C6,327.5,1.5,65,143.5
3014,E-4,327.708,0.5,29,143.5
3015,A4,327.708,0.5,29,143.5
3016,C4,327.708,0.5,29,143.5
3017,C5,327.75,0.25,48,143.5
3018,E-5,328.0,0.25,48,143.5
3019,A2,328.208,0.5,33,143.5
3020,F#5,328.25,0.75,63,143.5
3021,C5,328.5,0.25,46,143.5
3022,C4,328.708,0.5,29,143.5
3023,F#4,328.708,0.5,29,143.5
3024,E-4,328.708,0.5,29,143.5
3025,E-5,328.75,0.25,46,143.5
3026,C#6,329.0,3.0,72,143.5
3027,B-2,329.208,0.5,44,143.5
3028,C#5,329.25,0.25,54,143.5
3029,F5,329.5,0.25,54,143.5
3030,C5,329.708,0.5,27,143.5
3031,C#4,329.708,0.5,27,143.5
3032,F4,329.708,0.5,27,143.5
3033,C6,329.75,0.75,69,143.5
3034,C#5,330.0,0.25,57,143.5
3035,C#3,330.208,0.5,36,143.5
3036,F5,330.25,0.25,57,143.5
3037,B-5,330.5,0.75,71,143.5
3038,B-4,330.708,0.5,38,143.5
3039,F4,330.708,0.5,38,143.5
3040,C#4,330.708,0.5,38,143.5
3041,C#5,330.75,0.25,58,143.5
3042,F5,331.0,0.25,62,143.5
3043,F3,331.208,0.5,38,143.5
3044,G#5,331.25,0.75,72,143.5
3045,C#5,331.5,0.25,60,143.5
3046,F#4,331.708,0.5,33,143.5
3047,C#4,331.708,0.5,33,143.5
3048,B-3,331.708,0.5,33,143.5
3049,F#5,331.75,0.25,63,143.5
3050,E-6,332.0,1.5,82,143.5
3051,A2,332.208,0.5,44,143.5
3052,E-5,332.25,0.25,62,143.5
3053,F#5,332.5,0.25,64,143.5
3054,F#4,332.708,0.5,29,143.5
3055,C#5,332.708,0.5,29,143.5
3056,E-4,332.708,0.5,29,143.5
3057,C#6,332.75,0.75,76,143.5
3058,E-5,333.0,0.25,59,143.5
3059,G#2,333.208,0.5,39,143.5
3060,F#5,333.25,0.25,60,143.5
3061,C6,333.5,0.25,57,143.5
3062,E-6,333.5,1.5,74,143.5
3063,F#4,333.708,0.5,33,143.5
3064,C5,333.708,0.5,33,143.5
3065,E-4,333.708,0.5,33,143.5
3066,E-5,333.75,0.25,55,143.5
3067,F#5,334.0,0.25,55,143.5
3068,C3,334.208,0.5,37,143.5
3069,A5,334.25,0.75,72,143.5
3070,E-5,334.5,0.25,53,143.5
3071,E-4,334.708,0.5,33,143.5
3072,G#4,334.708,0.5,33,143.5
3073,F#4,334.708,0.5,33,143.5
3074,G#5,334.75,0.25,53,143.5
3075,F6,335.0,3.0,79,143.5
3076,C#3,335.208,0.5,47,143.5
3077,F5,335.25,0.25,59,143.5
3078,G#5,335.5,0.25,59,143.5
3079,E-5,335.708,0.5,30,143.5
3080,F4,335.708,0.5,30,143.5
3081,G#4,335.708,0.5,30,143.5
3082,E-6,335.75,0.75,75,143.5
3083,F5,336.0,0.25,63,143.5
3084,F3,336.208,0.5,40,143.5
3085,G#5,336.25,0.25,63,143.5
3086,C#6,336.5,0.75,77,143.5
3087,C#5,336.708,0.5,40,143.5
3088,G#4,336.708,0.5,40,143.5
3089,F4,336.708,0.5,40,143.5
3090,F5,336.75,0.25,63,143.5
3091,G#5,337.0,0.25,67,143.5
3092,G#3,337.208,0.5,42,143.5
3093,C6,337.25,0.75,79,143.5
3094,F5,337.5,0.25,65,143.5
3095,C5,337.708,0.5,36,143.5
3096,G#4,337.708,0.5,36,143.5
3097,F4,337.708,0.5,36,143.5
3098,G#5,337.75,0.25,70,143.5
3099,F6,338.0,1.5,90,143.5
3100,B2,338.208,0.5,47,143.5
3101,E-5,338.25,0.25,67,143.5
3102,G#5,338.5,0.25,71,143.5
3103,F4,338.708,0.5,31,143.5
3104,G#4,338.708,0.5,31,143.5
3105,B4,338.708,0.5,31,143.5
3106,E-4,338.708,0.5,31,143.5
3107,B5,338.75,0.75,83,143.5
3108,E-5,339.0,0.25,64,143.5
3109,F3,339.208,0.5,43,143.5
3110,G#5,339.25,0.25,65,143.5
3111,F6,339.5,1.5,81,143.5
3112,F4,339.708,0.5,36,143.5
3113,G#4,339.708,0.5,36,143.5
3114,B4,339.708,0.5,36,143.5
3115,E-4,339.708,0.5,36,143.5
3116,E-5,339.75,0.25,61,143.5
3117,G#5,340.0,0.25,61,143.5
3118,E-2,340.208,0.5,41,143.5
3119,B5,340.25,0.75,80,143.5
3120,E-5,340.5,0.25,57,143.5
3121,F4,340.708,0.5,36,143.5
3122,E-4,340.708,0.5,36,143.5
3123,B4,340.708,0.5,36,143.5
3124,G#4,340.708,0.5,36,143.5
3125,G#5,340.75,0.25,57,143.5
3126,F6,341.0,0.75,90,143.5
3127,B-2,341.208,0.5,47,143.5
3128,D5,341.25,0.25,67,143.5
3129,B-5,341.5,0.25,62,143.5
3130,G#5,341.5,0.25,62,143.5
3131,F4,341.708,0.5,31,143.5
3132,G#4,341.708,0.5,31,143.5
3133,B-4,341.708,0.5,31,143.5
3134,D4,341.708,0.5,31,143.5
3135,F6,341.75,0.75,84,143.5
3136,D5,342.0,0.25,66,143.5
3137,B-2,342.208,0.5,44,143.5
3138,B-5,342.25,0.25,60,143.5
3139,G#5,342.25,0.25,60,143.5
3140,F#6,342.5,0.75,85,143.5
3141,F#4,342.708,0.5,37,143.5
3142,G#4,342.708,0.5,37,143.5
3143,B-4,342.708,0.5,37,143.5
3144,D4,342.708,0.5,37,143.5
3145,D5,342.75,0.25,63,143.5
3146,B-5,343.0,0.25,59,143.5
3147,G#5,343.0,0.25,59,143.5
3148,B-2,343.208,0.5,43,143.5
3149,F#6,343.25,0.25,85,143.5
3150,D5,343.5,0.25,62,143.5
3151,F#4,343.708,0.5,38,143.5
3152,D4,343.708,0.5,38,143.5
3153,B-4,343.708,0.5,38,143.5
3154,G#4,343.708,0.5,38,143.5
3155,B-5,343.75,0.25,58,143.5
3156,G#5,343.75,0.25,58,143.5
3157,G5,344.0,0.75,75,143.5
3158,G6,344.0,0.25,90,143.5
3159,E-3,344.208,0.75,47,143.5
3160,E-2,344.208,0.75,47,143.5
3161,B-5,344.25,0.25,59,143.5
3162,E-6,344.5,0.25,59,143.5
3163,G3,344.583,0.75,36,143.5
3164,B-3,344.583,0.75,36,143.5
3165,G4,344.583,0.75,36,143.5
3166,F5,344.75,0.75,67,143.5
3167,F6,344.75,0.25,81,143.5
3168,G5,345.0,0.25,54,143.5
3169,B-5,345.25,0.25,54,143.5
3170,G3,345.333,0.75,50,143.5
3171,B-3,345.333,0.75,50,143.5
3172,F4,345.333,0.75,50,143.5
3173,E-5,345.5,0.75,66,143.5
3174,E-6,345.5,0.25,80,143.5
3175,G5,345.75,0.25,53,143.5
3176,B-5,346.0,0.25,54,143.5
3177,G3,346.083,0.75,43,143.5
3178,B-3,346.083,0.75,43,143.5
3179,E-4,346.083,0.75,43,143.5
3180,D5,346.25,0.75,67,143.5
3181,D6,346.25,0.25,81,143.5
3182,G5,346.5,0.25,54,143.5
3183,B-5,346.75,0.25,54,143.5
3184,G3,346.833,0.375,43,143.5
3185,B-3,346.833,0.375,43,143.5
3186,D4,346.833,0.375,43,143.5
3187,C5,347.0,0.75,66,143.5
3188,C6,347.0,0.25,84,143.5
3189,E-2,347.208,0.75,47,143.5
3190,E-3,347.208,0.75,47,143.5
3191,E-5,347.25,0.25,59,143.5
3192,G5,347.5,0.25,59,143.5
3193,E-3,347.583,0.75,38,143.5
3194,G3,347.583,0.75,38,143.5
3195,C4,347.583,0.75,38,143.5
3196,A4,347.75,0.75,66,143.5
3197,A5,347.75,0.25,79,143.5
3198,E-5,348.0,0.25,53,143.5
3199,G5,348.25,0.25,53,143.5
3200,E-3,348.333,0.75,44,143.5
3201,G3,348.333,0.75,44,143.5
3202,A3,348.333,0.75,44,143.5
3203,B-4,348.5,0.75,70,143.5
3204,B-5,348.5,0.25,82,143.5
3205,E-5,348.75,0.25,56,143.5
3206,G5,349.0,0.25,56,143.5
3207,E-3,349.083,0.75,44,143.5
3208,G3,349.083,0.75,44,143.5
3209,B-3,349.083,0.75,44,143.5
3210,G5,349.25,0.25,73,143.5
3211,G6,349.25,0.75,87,143.5
3212,B-5,349.5,0.25,53,143.5
3213,E-6,349.75,0.25,53,143.5
3214,G3,349.833,0.375,46,143.5
3215,B-3,349.833,0.375,46,143.5
3216,E-4,349.833,0.375,46,143.5
3217,G4,349.833,0.375,46,143.5
3218,G5,350.0,0.25,73,143.5
3219,G6,350.0,0.75,87,143.5
3220,E-3,350.208,0.75,47,143.5
3221,E-2,350.208,0.75,47,143.5
3222,B5,350.25,0.25,59,143.5
3223,D6,350.5,0.25,59,143.5
3224,D4,350.583,0.75,34,143.5
3225,G#3,350.583,0.75,34,143.5
3226,B3,350.583,0.75,34,143.5
3227,G4,350.583,0.75,34,143.5
3228,E5,350.75,0.25,69,143.5
3229,E6,350.75,0.75,81,143.5
3230,B5,351.0,0.25,55,143.5
3231,D6,351.25,0.25,55,143.5
3232,D4,351.333,0.75,48,143.5
3233,G#3,351.333,0.75,48,143.5
3234,B3,351.333,0.75,48,143.5
3235,E4,351.333,0.75,48,143.5
3236,F5,351.5,0.25,75,143.5
3237,F6,351.5,0.75,90,143.5
3238,B5,351.75,0.25,55,143.5
3239,D6,352.0,0.25,55,143.5
3240,D4,352.083,0.75,41,143.5
3241,G#3,352.083,0.75,41,143.5
3242,B3,352.083,0.75,41,143.5
3243,F4,352.083,0.75,41,143.5
3244,G5,352.25,0.25,80,143.5
3245,G6,352.25,0.75,94,143.5
3246,B5,352.5,0.25,61,143.5
3247,D6,352.75,0.25,63,143.5
3248,D4,352.833,0.375,41,143.5
3249,G#3,352.833,0.375,41,143.5
3250,B3,352.833,0.375,41,143.5
3251,G4,352.833,0.375,41,143.5
3252,G#5,353.0,0.25,81,143.5
3253,G#6,353.0,0.75,96,143.5
3254,E-2,353.208,0.75,47,143.5
3255,E-3,353.208,0.75,47,143.5
3256,D6,353.25,0.25,69,143.5
3257,F6,353.5,0.25,69,143.5
3258,B3,353.583,0.75,37,143.5
3259,D4,353.583,0.75,37,143.5
3260,F4,353.583,0.75,37,143.5
3261,G#4,353.583,0.75,37,143.5
3262,A5,353.75,0.25,82,143.5
3263,A6,353.75,0.75,94,143.5
3264,D6,354.0,0.25,67,143.5
3265,F6,354.25,0.25,75,143.5
3266,B3,354.333,0.75,43,143.5
3267,D4,354.333,0.75,43,143.5
3268,F4,354.333,0.75,43,143.5
3269,A4,354.333,0.75,43,143.5
3270,C6,354.5,0.25,89,143.5
3271,C7,354.5,0.75,99,143.5
3272,D6,354.75,0.25,72,143.5
3273,F6,355.0,0.25,69,143.5
3274,B-3,355.083,0.75,42,143.5
3275,D4,355.083,0.75,42,143.5
3276,F4,355.083,0.75,42,143.5
3277,G#4,355.083,0.75,42,143.5
3278,C5,355.083,0.75,42,143.5
3279,B-5,355.25,0.25,76,143.5
3280,B-6,355.25,0.75,90,143.5
3281,D6,355.5,0.25,56,143.5
3282,F6,355.75,0.25,56,143.5
3283,D4,355.833,0.375,45,143.5
3284,B-3,355.833,0.375,45,143.5
3285,F4,355.833,0.375,45,143.5
3286,G#4,355.833,0.375,45,143.5
3287,B-4,355.833,0.375,45,143.5
3288,G5,356.0,0.75,75,143.5
3289,G6,356.0,0.25,90,143.5
3290,E-3,356.208,0.75,47,143.5
3291,E-2,356.208,0.75,47,143.5
3292,B-5,356.25,0.25,59,143.5
3293,E-6,356.5,0.25,59,143.5
3294,G3,356.583,0.75,36,143.5
3295,B-3,356.583,0.75,36,143.5
3296,G4,356.583,0.75,36,143.5
3297,F5,356.75,0.75,67,143.5
3298,F6,356.75,0.25,81,143.5
3299,G5,357.0,0.25,54,143.5
3300,B-5,357.25,0.25,54,143.5
3301,G3,357.333,0.75,50,143.5
3302,B-3,357.333,0.75,50,143.5
3303,F4,357.333,0.75,50,143.5
3304,E-5,357.5,0.75,66,143.5
3305,E-6,357.5,0.25,80,143.5
3306,G5,357.75,0.25,53,143.5
3307,B-5,358.0,0.25,54,143.5
3308,G3,358.083,0.75,43,143.5
3309,B-3,358.083,0.75,43,143.5
3310,E-4,358.083,0.75,43,143.5
3311,D5,358.25,0.75,67,143.5
3312,D6,358.25,0.25,81,143.5
3313,G5,358.5,0.25,54,143.5
3314,B-5,358.75,0.25,54,143.5
3315,G3,358.833,0.375,43,143.5
3316,B-3,358.833,0.375,43,143.5
3317,D4,358.833,0.375,43,143.5
3318,C5,359.0,0.75,66,143.5
3319,C6,359.0,0.25,84,143.5
3320,E-2,359.208,0.75,47,143.5
3321,E-3,359.208,0.75,47,143.5
3322,E-5,359.25,0.25,59,143.5
3323,G5,359.5,0.25,59,143.5
3324,E-3,359.583,0.75,38,143.5
3325,G3,359.583,0.75,38,143.5
3326,C4,359.583,0.75,38,143.5
3327,A4,359.75,0.75,66,143.5
3328,A5,359.75,0.25,79,143.5
3329,E-5,360.0,0.25,53,143.5
3330,G5,360.25,0.25,53,143.5
3331,E-3,360.333,0.75,44,143.5
3332,G3,360.333,0.75,44,143.5
3333,A3,360.333,0.75,44,143.5
3334,B-4,360.5,0.75,70,143.5
3335,B-5,360.5,0.25,82,143.5
3336,E-5,360.75,0.25,56,143.5
3337,G5,361.0,0.25,56,143.5
3338,E-3,361.083,0.75,44,143.5
3339,G3,361.083,0.75,44,143.5
3340,B-3,361.083,0.75,44,143.5
3341,G5,361.25,0.25,80,143.5
3342,G6,361.25,0.25,80,143.5
3343,B-5,361.5,0.25,53,143.5
3344,E-6,361.75,0.25,53,143.5
3345,G3,361.833,0.375,46,143.5
3346,B-3,361.833,0.375,46,143.5
3347,E-4,361.833,0.375,46,143.5
3348,G4,361.833,0.375,46,143.5
3349,G5,362.0,0.25,73,143.5
3350,G6,362.0,0.75,87,143.5
3351,D3,362.208,0.75,47,143.5
3352,D2,362.208,0.75,47,143.5
3353,A5,362.25,0.25,59,143.5
3354,C6,362.5,0.25,59,143.5
3355,A3,362.583,0.75,36,143.5
3356,C4,362.583,0.75,36,143.5
3357,G4,362.583,0.75,36,143.5
3358,F#5,362.75,0.25,69,143.5
3359,F#6,362.75,0.75,81,143.5
3360,A5,363.0,0.25,63,143.5
3361,C6,363.25,0.25,64,143.5
3362,A3,363.333,0.75,50,143.5
3363,C4,363.333,0.75,50,143.5
3364,F#4,363.333,0.75,50,143.5
3365,E-6,363.5,0.25,89,143.5
3366,E-7,363.5,0.75,100,143.5
3367,F#6,363.75,0.25,67,143.5
3368,A6,364.0,0.25,67,143.5
3369,F#4,364.083,0.75,43,143.5
3370,A4,364.083,0.75,43,143.5
3371,E-5,364.083,0.75,43,143.5
3372,D6,364.25,0.25,82,143.5
3373,D7,364.25,0.75,96,143.5
3374,F#6,364.5,0.25,67,143.5
3375,A6,364.75,0.25,67,143.5
3376,F#4,364.833,0.375,43,143.5
3377,A4,364.833,0.375,43,143.5
3378,D5,364.833,0.375,43,143.5
3379,D6,365.0,0.25,81,143.5
3380,D7,365.0,0.75,95,143.5
3381,G2,365.208,0.75,47,143.5
3382,G3,365.208,0.75,47,143.5
3383,G6,365.25,0.25,69,143.5
3384,B6,365.5,0.25,69,143.5
3385,G4,365.583,0.75,38,143.5
3386,B4,365.583,0.75,38,143.5
3387,D5,365.583,0.75,38,143.5
3388,B5,365.75,0.25,79,143.5
3389,B6,365.75,0.75,91,143.5
3390,D6,366.0,0.25,67,143.5
3391,G6,366.25,0.25,65,143.5
3392,D4,366.333,0.75,44,143.5
3393,G4,366.333,0.75,44,143.5
3394,B4,366.333,0.75,44,143.5
3395,G5,366.5,0.25,70,143.5
3396,G6,366.5,0.75,83,143.5
3397,B5,366.75,0.25,63,143.5
3398,D6,367.0,0.25,63,143.5
3399,B3,367.083,0.75,42,143.5
3400,D4,367.083,0.75,42,143.5
3401,G4,367.083,0.75,42,143.5
3402,G5,367.25,0.25,64,143.5
3403,G6,367.25,0.75,90,143.5
3404,B5,367.5,0.25,58,143.5
3405,D6,367.75,0.25,59,143.5
3406,G3,367.833,0.375,44,143.5
3407,B3,367.833,0.375,44,143.5
3408,D4,367.833,0.375,44,143.5
3409,G4,367.833,0.375,44,143.5
3410,G#5,368.0,0.25,74,143.5
3411,G#6,368.0,0.75,88,143.5
3412,G2,368.208,0.75,44,143.5
3413,C6,368.25,0.25,63,143.5
3414,E-6,368.5,0.25,63,143.5
3415,C4,368.583,0.75,35,143.5
3416,E-4,368.583,0.75,35,143.5
3417,G#4,368.583,0.75,35,143.5
3418,G5,368.75,0.25,72,143.5
3419,G6,368.75,0.75,85,143.5
3420,C6,369.0,0.25,62,143.5
3421,E-6,369.25,0.25,60,143.5
3422,C4,369.333,0.75,40,143.5
3423,E-4,369.333,0.75,40,143.5
3424,G4,369.333,0.75,40,143.5
3425,F5,369.5,0.25,67,143.5
3426,F6,369.5,0.75,80,143.5
3427,G5,369.75,0.25,60,143.5
3428,C6,370.0,0.25,58,143.5
3429,G3,370.083,0.75,40,143.5
3430,C4,370.083,0.75,40,143.5
3431,F4,370.083,0.75,40,143.5
3432,E-5,370.25,0.25,59,143.5
3433,E-6,370.25,0.75,82,143.5
3434,G5,370.5,0.25,52,143.5
3435,C6,370.75,0.25,52,143.5
3436,G3,370.833,0.375,43,143.5
3437,C4,370.833,0.375,43,143.5
3438,E-4,370.833,0.375,43,143.5
3439,E-5,371.0,0.25,66,143.5
3440,E-6,371.0,0.75,79,143.5
3441,F2,371.208,0.75,39,143.5
3442,G#5,371.25,0.25,56,143.5
3443,C6,371.5,0.25,56,143.5
3444,F3,371.583,0.75,30,143.5
3445,G#3,371.583,0.75,30,143.5
3446,C4,371.583,0.75,30,143.5
3447,E-4,371.583,0.75,30,143.5
3448,D5,371.75,0.25,64,143.5
3449,D6,371.75,0.75,76,143.5
3450,G#5,372.0,0.25,55,143.5
3451,C6,372.25,0.25,54,143.5
3452,C4,372.333,0.75,35,143.5
3453,F3,372.333,0.75,35,143.5
3454,G#3,372.333,0.75,35,143.5
3455,D4,372.333,0.75,35,143.5
3456,D5,372.5,0.25,60,143.5
3457,D6,372.5,0.75,72,143.5
3458,G#5,372.75,0.25,54,143.5
3459,C6,373.0,0.25,52,143.5
3460,G#3,373.083,0.75,36,143.5
3461,C4,373.083,0.75,36,143.5
3462,D4,373.083,0.75,36,143.5
3463,D5,373.25,0.25,53,143.5
3464,D6,373.25,0.75,73,143.5
3465,G#5,373.5,0.25,46,143.5
3466,C6,373.75,0.25,46,143.5
3467,G#3,373.833,0.375,38,143.5
3468,F3,373.833,0.375,38,143.5
3469,C4,373.833,0.375,38,143.5
3470,D4,373.833,0.375,38,143.5
3471,E-5,374.0,0.25,59,143.5
3472,E-6,374.0,0.75,71,143.5
3473,G2,374.208,0.75,35,143.5
3474,G5,374.25,0.25,50,143.5
3475,B5,374.5,0.25,50,143.5
3476,G3,374.583,0.75,27,143.5
3477,B3,374.583,0.75,27,143.5
3478,E-4,374.583,0.75,27,143.5
3479,D5,374.75,0.25,57,143.5
3480,D6,374.75,0.75,68,143.5
3481,G5,375.0,0.25,49,143.5
3482,B5,375.25,0.25,48,143.5
3483,B3,375.333,0.75,32,143.5
3484,G3,375.333,0.75,32,143.5
3485,D4,375.333,0.75,32,143.5
3486,C5,375.5,0.25,54,143.5
3487,C6,375.5,0.75,64,143.5
3488,D5,375.75,0.25,48,143.5
3489,G5,376.0,0.25,46,143.5
3490,D3,376.083,0.75,32,143.5
3491,G3,376.083,0.75,32,143.5
3492,C4,376.083,0.75,32,143.5
3493,B4,376.25,0.25,47,143.5
3494,B5,376.25,0.75,65,143.5
3495,D5,376.5,0.25,41,143.5
3496,G5,376.75,0.25,41,143.5
3497,G3,376.833,0.375,34,143.5
3498,D3,376.833,0.375,34,143.5
3499,B3,376.833,0.375,34,143.5
3500,G#4,377.0,0.25,55,143.5
3501,G#5,377.0,0.75,67,143.5
3502,B4,377.25,0.25,47,143.5
3503,D5,377.5,0.25,47,143.5
3504,B2,377.583,0.75,25,143.5
3505,D3,377.583,0.75,25,143.5
3506,G#3,377.583,0.75,25,143.5
3507,G4,377.75,0.25,54,143.5
3508,G5,377.75,0.75,64,143.5
3509,B4,378.0,0.25,46,143.5
3510,D5,378.25,0.25,45,143.5
3511,D3,378.333,0.75,29,143.5
3512,B2,378.333,0.75,29,143.5
3513,G3,378.333,0.75,29,143.5
3514,G4,378.5,0.25,51,143.5
3515,G5,378.5,0.75,61,143.5
3516,B4,378.75,0.25,45,143.5
3517,D5,379.0,0.25,44,143.5
3518,B2,379.083,0.75,28,143.5
3519,D3,379.083,0.75,28,143.5
3520,G3,379.083,0.75,28,143.5
3521,G4,379.25,0.25,45,143.5
3522,G5,379.25,0.75,62,143.5
3523,B4,379.5,0.25,38,143.5
3524,D5,379.75,0.25,38,143.5
3525,D3,379.833,0.375,30,143.5
3526,B2,379.833,0.375,30,143.5
3527,G3,379.833,0.375,30,143.5
3528,B-4,380.0,0.25,52,143.5
3529,B-5,380.0,0.75,63,143.5
3530,G1,380.208,0.75,31,143.5
3531,C5,380.25,0.25,45,143.5
3532,E-5,380.5,0.25,45,143.5
3533,C3,380.583,0.75,23,143.5
3534,E-3,380.583,0.75,23,143.5
3535,B-3,380.583,0.75,23,143.5
3536,G#4,380.75,0.25,51,143.5
3537,G#5,380.75,0.75,61,143.5
3538,C5,381.0,0.25,44,143.5
3539,E-5,381.25,0.25,43,143.5
3540,E-3,381.333,0.75,27,143.5
3541,C3,381.333,0.75,27,143.5
3542,G#3,381.333,0.75,27,143.5
3543,G4,381.5,0.25,48,143.5
3544,G5,381.5,0.75,57,143.5
3545,C5,381.75,0.25,43,143.5
3546,E-5,382.0,0.25,41,143.5
3547,G2,382.083,0.75,26,143.5
3548,C3,382.083,0.75,26,143.5
3549,E-3,382.083,0.75,26,143.5
3550,G3,382.083,0.75,26,143.5
3551,F4,382.25,0.25,42,143.5
3552,F5,382.25,0.75,58,143.5
3553,G4,382.5,0.25,36,143.5
3554,C5,382.75,0.25,36,143.5
3555,C3,382.833,0.375,28,143.5
3556,G2,382.833,0.375,28,143.5
3557,F3,382.833,0.375,28,143.5
3558,E-4,383.0,0.25,49,143.5
3559,E-5,383.0,0.75,60,143.5
3560,F1,383.208,0.75,29,143.5
3561,G#4,383.25,0.25,42,143.5
3562,C5,383.5,0.25,42,143.5
3563,F2,383.583,0.75,20,143.5
3564,G#2,383.583,0.75,20,143.5
3565,C3,383.583,0.75,20,143.5
3566,E-3,383.583,0.75,20,143.5
3567,D4,383.75,0.25,48,143.5
3568,D5,383.75,0.75,57,143.5
3569,G#4,384.0,0.25,41,143.5
3570,C5,384.25,0.25,40,143.5
3571,G#2,384.333,0.75,24,143.5
3572,C3,384.333,0.75,24,143.5
3573,F2,384.333,0.75,24,143.5
3574,D3,384.333,0.75,24,143.5
3575,D4,384.5,0.25,45,143.5
3576,D5,384.5,0.75,54,143.5
3577,G#4,384.75,0.25,40,143.5
3578,C5,385.0,0.25,38,143.5
3579,G#2,385.083,0.75,24,143.5
3580,C3,385.083,0.75,24,143.5
3581,D3,385.083,0.75,24,143.5
3582,D4,385.25,0.25,39,143.5
3583,D5,385.25,0.75,54,143.5
3584,G#4,385.5,0.25,34,143.5
3585,C5,385.75,0.25,34,143.5
3586,G#2,385.833,0.375,25,143.5
3587,C3,385.833,0.375,25,143.5
3588,F2,385.833,0.375,25,143.5
3589,D3,385.833,0.375,25,143.5
3590,E-4,386.0,0.25,49,143.5
3591,E-5,386.0,0.75,60,143.5
3592,G1,386.208,0.75,29,143.5
3593,G4,386.25,0.25,42,143.5
3594,B4,386.5,0.25,42,143.5
3595,G2,386.583,0.75,21,143.5
3596,B2,386.583,0.75,21,143.5
3597,E-3,386.583,0.75,21,143.5
3598,D4,386.75,0.25,48,143.5
3599,D5,386.75,0.75,57,143.5
3600,G4,387.0,0.25,41,143.5
3601,B4,387.25,0.25,40,143.5
3602,G2,387.333,0.75,25,143.5
3603,B2,387.333,0.75,25,143.5
3604,D3,387.333,0.75,25,143.5
3605,C4,387.5,0.25,45,143.5
3606,C5,387.5,0.75,54,143.5
3607,E-4,387.75,0.25,40,143.5
3608,G4,388.0,0.25,38,143.5
3609,E-3,388.083,0.75,26,143.5
3610,G3,388.083,0.75,26,143.5
3611,B3,388.25,0.25,39,143.5
3612,B4,388.25,0.75,54,143.5
3613,D4,388.5,0.25,34,143.5
3614,G4,388.75,0.25,34,143.5
3615,D3,388.833,0.375,27,143.5
3616,G3,388.833,0.375,27,143.5
3617,B-3,389.0,0.25,44,143.5
3618,B-4,389.0,0.75,54,143.5
3619,C#2,389.208,0.75,26,143.5
3620,C#4,389.25,0.25,37,143.5
3621,F4,389.5,0.25,37,143.5
3622,C#3,389.583,0.75,20,143.5
3623,F3,389.583,0.75,20,143.5
3624,G#3,389.75,0.25,43,143.5
3625,G#4,389.75,0.75,51,143.5
3626,C#4,390.0,0.25,36,143.5
3627,F4,390.25,0.25,36,143.5
3628,C#3,390.333,0.375,24,143.5
3629,F3,390.333,0.375,24,143.5
3630,G3,390.5,0.25,40,143.5
3631,G4,390.5,0.75,48,143.5
3632,G#3,390.75,0.25,36,143.5
3633,C#4,391.0,0.25,34,143.5
3634,G#2,391.083,0.75,21,143.5
3635,E2,391.083,0.75,21,143.5
3636,C#3,391.083,0.75,21,143.5
3637,F3,391.25,0.25,35,143.5
3638,F4,391.25,0.75,48,143.5
3639,G#3,391.5,0.25,30,143.5
3640,C#4,391.75,0.25,30,143.5
3641,F2,391.833,0.375,22,143.5
3642,G#2,391.833,0.375,22,143.5
3643,C#3,391.833,0.375,22,143.5
3644,E-4,392.0,0.25,35,143.5
3645,E-5,392.0,0.75,42,143.5
3646,G1,392.208,0.75,20,143.5
3647,G4,392.25,0.25,29,143.5
3648,B4,392.5,0.25,29,143.5
3649,G2,392.583,0.75,14,143.5
3650,B2,392.583,0.75,14,143.5
3651,E-3,392.583,0.75,14,143.5
3652,D4,392.75,0.25,34,143.5
3653,D5,392.75,0.75,40,143.5
3654,G4,393.0,0.25,29,143.5
3655,B4,393.25,0.25,28,143.5
3656,G2,393.333,0.75,17,143.5
3657,B2,393.333,0.75,17,143.5
3658,D3,393.333,0.75,17,143.5
3659,C4,393.5,0.25,32,143.5
3660,C5,393.5,0.75,38,143.5
3661,E-4,393.75,0.25,28,143.5
3662,G4,394.0,0.25,27,143.5
3663,E-3,394.083,0.75,18,143.5
3664,G3,394.083,0.75,18,143.5
3665,B3,394.25,0.25,27,143.5
3666,B4,394.25,0.75,38,143.5
3667,D4,394.5,0.25,24,143.5
3668,G4,394.75,0.25,24,143.5
3669,D3,394.833,0.375,18,143.5
3670,G3,394.833,0.375,18,143.5
3671,B-3,395.0,0.25,30,143.5
3672,B-4,395.0,0.75,38,143.5
3673,C#2,395.208,0.75,18,143.5
3674,C#4,395.25,0.25,26,143.5
3675,F4,395.5,0.25,26,143.5
3676,C#3,395.583,0.75,13,143.5
3677,F3,395.583,0.75,13,143.5
3678,G#3,395.75,0.25,30,143.5
3679,G#4,395.75,0.75,36,143.5
3680,C#4,396.0,0.25,25,143.5
3681,F4,396.25,0.25,25,143.5
3682,C#3,396.333,0.375,16,143.5
3683,F3,396.333,0.375,16,143.5
3684,G3,396.5,0.25,28,143.5
3685,G4,396.5,0.75,34,143.5
3686,G#3,396.75,0.25,25,143.5
3687,C#4,397.0,0.25,24,143.5
3688,G#2,397.083,0.75,14,143.5
3689,E2,397.083,0.75,14,143.5
3690,C#3,397.083,0.75,14,143.5
3691,F3,397.25,0.25,25,143.5
3692,F4,397.25,0.75,34,143.5
3693,G#3,397.5,0.25,20,143.5
3694,C#4,397.75,0.25,20,143.5
3695,F2,397.833,0.375,16,143.5
3696,G#2,397.833,0.375,16,143.5
3697,C#3,397.833,0.375,16,143.5
3698,B3,398.0,0.25,44,143.5
3699,D4,398.0,0.25,44,143.5
3700,G2,398.208,0.25,26,143.5
3701,D3,398.208,0.25,26,143.5
3702,D2,398.708,0.5,34,143.5
3703,D3,398.75,0.25,34,143.5
3704,C2,399.208,0.5,35,143.5
3705,C3,399.25,0.25,35,143.5
3706,B1,399.708,0.5,36,143.5
3707,B2,399.75,0.25,36,143.5
3708,G#1,400.208,0.5,38,143.5
3709,G#2,400.25,0.25,36,143.5
3710,G1,400.708,0.5,43,143.5
3711,G2,400.75,0.25,37,143.5
3712,G#2,401.208,0.5,45,143.5
3713,G#3,401.25,0.25,38,143.5
3714,G2,401.708,0.5,40,143.5
3715,G3,401.75,0.25,39,143.5
3716,F2,402.208,0.5,42,143.5
3717,F3,402.25,0.25,40,143.5
3718,E-2,402.708,0.5,45,143.5
3719,E-3,402.75,0.25,40,143.5
3720,C#2,403.208,0.5,46,143.5
3721,C#3,403.25,0.25,42,143.5
3722,G#3,403.5,0.25,45,143.5
3723,C#4,403.5,0.25,45,143.5
3724,F4,403.5,0.25,45,143.5
3725,C#3,403.708,0.25,36,143.5
3726,F3,403.708,0.25,36,143.5
3727,B3,404.0,0.25,46,143.5
3728,G3,404.0,0.25,46,143.5
3729,G4,404.0,0.25,46,143.5
3730,G2,404.208,0.25,40,143.5
3731,D3,404.208,0.25,40,143.5
3732,D2,404.708,0.5,34,143.5
3733,D3,404.75,0.25,34,143.5
3734,C2,405.208,0.5,35,143.5
3735,C3,405.25,0.25,35,143.5
3736,B1,405.708,0.5,36,143.5
3737,B2,405.75,0.25,36,143.5
3738,G#1,406.208,0.5,38,143.5
3739,G#2,406.25,0.25,36,143.5
3740,G1,406.708,0.5,43,143.5
3741,G2,406.75,0.25,37,143.5
3742,G#2,407.208,0.5,45,143.5
3743,G#3,407.25,0.25,38,143.5
3744,G2,407.708,0.5,40,143.5
3745,G3,407.75,0.25,39,143.5
3746,F2,408.208,0.5,42,143.5
3747,F3,408.25,0.25,40,143.5
3748,E-2,408.708,0.5,45,143.5
3749,E-3,408.75,0.25,40,143.5
3750,C#2,409.208,0.5,46,143.5
3751,C#3,409.25,0.25,42,143.5
3752,G#3,409.5,0.25,45,143.5
3753,C#4,409.5,0.25,45,143.5
3754,F4,409.5,0.25,45,143.5
3755,C#3,409.708,0.25,36,143.5
3756,F3,409.708,0.25,36,143.5
3757,C4,410.0,0.25,46,143.5
3758,G#3,410.0,0.25,46,143.5
3759,G#4,410.0,0.25,46,143.5
3760,G#2,410.208,0.25,40,143.5
3761,E-3,410.208,0.25,40,143.5
3762,E-2,410.708,0.5,34,143.5
3763,E-3,410.75,0.25,34,143.5
3764,C#2,411.208,0.5,35,143.5
3765,C#3,411.25,0.25,35,143.5
3766,C2,411.708,0.5,36,143.5
3767,C3,411.75,0.25,36,143.5
3768,B-1,412.208,0.5,38,143.5
3769,B-2,412.25,0.25,36,143.5
3770,G#1,412.708,0.5,43,143.5
3771,G#2,412.75,123/500,37,143.5
3772,G#2,413.208,0.5,45,143.5
3773,G#3,413.25,0.25,38,143.5
3774,F#2,413.708,0.5,40,143.5
3775,F#3,413.75,0.25,39,143.5
3776,E2,414.208,0.5,42,143.5
3777,E3,414.25,0.25,40,143.5
3778,E-2,414.708,0.5,45,143.5
3779,E-3,414.75,0.25,40,143.5
3780,C#2,415.208,0.5,46,143.5
3781,C#3,415.25,0.25,42,143.5
3782,G#3,415.5,0.25,45,143.5
3783,C#4,415.5,0.25,45,143.5
3784,E4,415.5,0.25,45,143.5
3785,C#3,415.708,0.25,36,143.5
3786,E3,415.708,0.25,36,143.5
3787,C#4,416.0,0.25,46,143.5
3788,A3,416.0,0.25,46,143.5
3789,A4,416.0,0.25,46,143.5
3790,A2,416.208,0.25,40,143.5
3791,E3,416.208,0.25,40,143.5
3792,E2,416.708,0.5,34,143.5
3793,E3,416.75,0.25,34,143.5
3794,D2,417.208,0.5,35,143.5
3795,D3,417.25,0.25,35,143.5
3796,C#2,417.708,0.5,36,143.5
3797,C#3,417.75,0.25,36,143.5
3798,B-1,418.208,0.5,38,143.5
3799,B-2,418.25,0.25,36,143.5
3800,A1,418.708,0.5,43,143.5
3801,A2,418.75,123/500,37,143.5
3802,A2,419.208,0.5,45,143.5
3803,A3,419.25,0.25,38,143.5
3804,G2,419.708,0.5,40,143.5
3805,G3,419.75,0.25,39,143.5
3806,F2,420.208,0.5,42,143.5
3807,F3,420.25,0.25,40,143.5
3808,E2,420.708,0.5,45,143.5
3809,E3,420.75,0.25,40,143.5
3810,D2,421.208,0.5,46,143.5
3811,D3,421.25,0.25,42,143.5
3812,A3,421.5,0.25,45,143.5
3813,D4,421.5,0.25,45,143.5
3814,F4,421.5,0.25,45,143.5
3815,D3,421.708,0.25,36,143.5
3816,F3,421.708,0.25,36,143.5
3817,D4,422.0,0.25,46,143.5
3818,B-3,422.0,0.25,46,143.5
3819,B-4,422.0,0.25,46,143.5
3820,B-2,422.208,0.25,40,143.5
3821,F3,422.208,0.25,40,143.5
3822,F2,422.708,0.5,34,143.5
3823,F3,422.75,0.25,34,143.5
3824,E-2,423.208,0.5,35,143.5
3825,E-3,423.25,0.25,35,143.5
3826,D2,423.708,0.5,36,143.5
3827,D3,423.75,0.25,36,143.5
3828,B1,424.208,0.5,38,143.5
3829,B2,424.25,0.25,36,143.5
3830,B-1,424.708,0.5,43,143.5
3831,B-2,424.75,0.25,37,143.5
3832,E-4,425.0,0.25,46,143.5
3833,B-3,425.0,0.25,46,143.5
3834,B-4,425.0,0.25,46,143.5
3835,B-2,425.208,0.25,40,143.5
3836,F#3,425.208,0.25,40,143.5
3837,F#2,425.708,0.5,34,143.5
3838,F#3,425.75,0.25,35,143.5
3839,F2,426.208,0.5,36,143.5
3840,F3,426.25,0.25,36,143.5
3841,E-2,426.708,0.5,37,143.5
3842,E-3,426.75,0.25,36,143.5
3843,B1,427.208,0.5,39,143.5
3844,B2,427.25,0.25,37,143.5
3845,B-1,427.708,0.5,44,143.5
3846,B-2,427.75,0.25,38,143.5
3847,F4,428.0,0.25,48,143.5
3848,D4,428.0,0.25,48,143.5
3849,D5,428.0,0.25,48,143.5
3850,G#3,428.208,0.25,40,143.5
3851,B2,428.208,0.25,40,143.5
3852,B3,428.208,0.25,40,143.5
3853,G#2,428.708,0.5,35,143.5
3854,G#3,428.75,0.25,35,143.5
3855,F2,429.208,0.5,36,143.5
3856,F3,429.25,0.25,36,143.5
3857,D2,429.708,0.5,38,143.5
3858,D3,429.75,0.25,37,143.5
3859,C#2,430.208,0.5,40,143.5
3860,C#3,430.25,0.25,38,143.5
3861,B1,430.708,0.5,45,143.5
3862,B2,430.75,0.25,39,143.5
3863,A4,431.0,0.25,48,143.5
3864,F#4,431.0,0.25,48,143.5
3865,F#5,431.0,0.25,48,143.5
3866,C4,431.208,0.25,40,143.5
3867,E-3,431.208,0.25,40,143.5
3868,E-4,431.208,0.25,40,143.5
3869,A2,431.708,0.5,36,143.5
3870,A3,431.75,0.25,36,143.5
3871,G#2,432.208,0.5,37,143.5
3872,G#3,432.25,0.25,37,143.5
3873,F#2,432.708,0.5,39,143.5
3874,F#3,432.75,0.25,38,143.5
3875,E-2,433.208,0.5,41,143.5
3876,E-3,433.25,0.25,39,143.5
3877,C2,433.708,0.5,46,143.5
3878,C3,433.75,0.25,40,143.5
3879,C#5,434.0,0.5,42,143.5
3880,F#5,434.0,0.5,42,143.5
3881,A5,434.0,0.5,42,143.5
3882,C#4,434.208,0.5,27,143.5
3883,A4,434.208,0.5,27,143.5
3884,F#4,434.208,0.5,27,143.5
3885,A4,434.75,0.125,36,143.5
3886,F#5,434.75,0.125,36,143.5
3887,C#5,434.75,0.125,36,143.5
3888,A3,434.958,0.125,22,143.5
3889,C#4,434.958,0.125,22,143.5
3890,F#4,434.958,0.125,22,143.5
3891,A4,435.0,0.25,36,143.5
3892,C#5,435.0,0.25,36,143.5
3893,F#5,435.0,0.25,36,143.5
3894,A3,435.208,0.25,22,143.5
3895,C#4,435.208,0.25,22,143.5
3896,F#4,435.208,0.25,22,143.5
3897,F#4,435.5,0.25,41,143.5
3898,A4,435.5,0.25,41,143.5
3899,C#5,435.5,0.25,41,143.5
3900,A3,435.708,0.25,28,143.5
3901,F#3,435.708,0.25,28,143.5
3902,C#4,435.708,0.25,28,143.5
3903,C#4,436.25,0.125,37,143.5
3904,A4,436.25,0.125,37,143.5
3905,F#4,436.25,0.125,37,143.5
3906,C#3,436.458,0.125,23,143.5
3907,F#3,436.458,0.125,23,143.5
3908,A3,436.458,0.125,23,143.5
3909,C#4,436.5,0.25,37,143.5
3910,A4,436.5,0.25,37,143.5
3911,F#4,436.5,0.25,37,143.5
3912,C#3,436.708,0.25,24,143.5
3913,A3,436.708,0.25,24,143.5
3914,F#3,436.708,0.25,24,143.5
3915,D2,437.208,0.5,43,143.5
3916,D3,437.25,0.25,38,143.5
3917,A2,437.708,0.5,39,143.5
3918,A3,437.75,0.25,43,143.5
3919,G2,438.208,0.5,45,143.5
3920,G3,438.25,0.25,45,143.5
3921,F#2,438.708,0.5,42,143.5
3922,F#3,438.75,0.25,42,143.5
3923,E2,439.208,0.5,38,143.5
3924,E3,439.25,0.25,39,143.5
3925,D2,439.708,0.5,36,143.5
3926,D3,439.75,0.25,36,143.5
3927,D5,440.0,0.5,42,143.5
3928,G5,440.0,0.5,42,143.5
3929,B-5,440.0,0.5,42,143.5
3930,D4,440.208,0.5,27,143.5
3931,B-4,440.208,0.5,27,143.5
3932,G4,440.208,0.5,27,143.5
3933,B-4,440.75,0.125,36,143.5
3934,G5,440.75,0.125,36,143.5
3935,D5,440.75,0.125,36,143.5
3936,B-3,440.958,0.125,22,143.5
3937,D4,440.958,0.125,22,143.5
3938,G4,440.958,0.125,22,143.5
3939,B-4,441.0,0.25,36,143.5
3940,D5,441.0,0.25,36,143.5
3941,G5,441.0,0.25,36,143.5
3942,B-3,441.208,0.25,22,143.5
3943,D4,441.208,0.25,22,143.5
3944,G4,441.208,0.25,22,143.5
3945,G4,441.5,0.25,41,143.5
3946,B-4,441.5,0.25,41,143.5
3947,D5,441.5,0.25,41,143.5
3948,B-3,441.708,0.25,28,143.5
3949,G3,441.708,0.25,28,143.5
3950,D4,441.708,0.25,28,143.5
3951,D4,442.25,0.125,37,143.5
3952,B-4,442.25,0.125,37,143.5
3953,G4,442.25,0.125,37,143.5
3954,D3,442.458,0.125,23,143.5
3955,G3,442.458,0.125,23,143.5
3956,B-3,442.458,0.125,23,143.5
3957,D4,442.5,0.25,37,143.5
3958,B-4,442.5,0.25,37,143.5
3959,G4,442.5,0.25,37,143.5
3960,D3,442.708,0.25,24,143.5
3961,B-3,442.708,0.25,24,143.5
3962,G3,442.708,0.25,24,143.5
3963,E-2,443.208,0.5,43,143.5
3964,E-3,443.25,0.25,38,143.5
3965,B-2,443.708,0.5,39,143.5
3966,B-3,443.75,0.25,43,143.5
3967,G#2,444.208,0.5,45,143.5
3968,G#3,444.25,0.25,45,143.5
3969,G2,444.708,0.5,42,143.5
3970,G3,444.75,0.25,42,143.5
3971,F2,445.208,0.5,38,143.5
3972,F3,445.25,0.25,39,143.5
3973,E-2,445.708,0.5,36,143.5
3974,E-3,445.75,0.25,36,143.5
3975,E-5,446.0,0.5,46,143.5
3976,G#5,446.0,0.5,46,143.5
3977,B5,446.0,0.5,46,143.5
3978,E-4,446.208,0.5,29,143.5
3979,B4,446.208,0.5,29,143.5
3980,G#4,446.208,0.5,29,143.5
3981,B4,446.75,0.125,39,143.5
3982,G#5,446.75,0.125,39,143.5
3983,E-5,446.75,0.125,39,143.5
3984,B3,446.958,0.125,24,143.5
3985,E-4,446.958,0.125,24,143.5
3986,G#4,446.958,0.125,24,143.5
3987,B4,447.0,0.25,39,143.5
3988,E-5,447.0,0.25,39,143.5
3989,G#5,447.0,0.25,39,143.5
3990,B3,447.208,0.25,24,143.5
3991,E-4,447.208,0.25,24,143.5
3992,G#4,447.208,0.25,24,143.5
3993,G#4,447.5,0.25,45,143.5
3994,B4,447.5,0.25,45,143.5
3995,E-5,447.5,0.25,45,143.5
3996,B3,447.708,0.25,29,143.5
3997,G#3,447.708,0.25,29,143.5
3998,E-4,447.708,0.25,29,143.5
3999,E-4,448.25,0.125,40,143.5
4000,B4,448.25,0.125,40,143.5
4001,G#4,448.25,0.125,40,143.5
4002,E-3,448.458,0.125,24,143.5
4003,G#3,448.458,0.125,24,143.5
4004,B3,448.458,0.125,24,143.5
4005,E-4,448.5,0.25,40,143.5
4006,B4,448.5,0.25,40,143.5
4007,G#4,448.5,0.25,40,143.5
4008,E-3,448.708,0.25,26,143.5
4009,B3,448.708,0.25,26,143.5
4010,G#3,448.708,0.25,26,143.5
4011,E5,449.0,0.5,51,143.5
4012,G#5,449.0,0.5,51,143.5
4013,E6,449.0,0.5,51,143.5
4014,E3,449.208,0.5,31,143.5
4015,E4,449.208,0.5,31,143.5
4016,B3,449.208,0.5,31,143.5
4017,B4,449.75,0.125,43,143.5
4018,B5,449.75,0.125,43,143.5
4019,E5,449.75,0.125,43,143.5
4020,G#3,449.958,0.125,26,143.5
4021,B3,449.958,0.125,26,143.5
4022,B4,450.0,0.25,43,143.5
4023,E5,450.0,0.25,43,143.5
4024,B5,450.0,0.25,43,143.5
4025,G#3,450.208,0.25,26,143.5
4026,B3,450.208,0.25,26,143.5
4027,G#4,450.5,0.25,50,143.5
4028,B4,450.5,0.25,50,143.5
4029,G#5,450.5,0.25,50,143.5
4030,B3,450.708,0.25,33,143.5
4031,E4,450.708,0.25,33,143.5
4032,E4,451.25,0.125,44,143.5
4033,E5,451.25,0.125,44,143.5
4034,G#4,451.25,0.125,44,143.5
4035,G#3,451.458,0.125,28,143.5
4036,B3,451.458,0.125,28,143.5
4037,E4,451.5,0.25,45,143.5
4038,E5,451.5,0.25,45,143.5
4039,G#4,451.5,0.25,45,143.5
4040,B3,451.708,0.25,30,143.5
4041,G#3,451.708,0.25,30,143.5
4042,E5,452.0,0.5,54,143.5
4043,A5,452.0,0.5,54,143.5
4044,E6,452.0,0.5,54,143.5
4045,A2,452.208,0.5,33,143.5
4046,C4,452.208,0.5,33,143.5
4047,E3,452.208,0.5,33,143.5
4048,C5,452.75,0.125,46,143.5
4049,C6,452.75,0.125,46,143.5
4050,E5,452.75,0.125,46,143.5
4051,C4,452.958,0.125,28,143.5
4052,A3,452.958,0.125,28,143.5
4053,C5,453.0,0.25,46,143.5
4054,E5,453.0,0.25,46,143.5
4055,C6,453.0,0.25,46,143.5
4056,A3,453.208,0.25,28,143.5
4057,C4,453.208,0.25,28,143.5
4058,A4,453.5,0.25,53,143.5
4059,C5,453.5,0.25,53,143.5
4060,A5,453.5,0.25,53,143.5
4061,C4,453.708,0.25,36,143.5
4062,E4,453.708,0.25,36,143.5
4063,E4,454.25,0.125,47,143.5
4064,E5,454.25,0.125,47,143.5
4065,A4,454.25,0.125,47,143.5
4066,A3,454.458,0.125,30,143.5
4067,C4,454.458,0.125,30,143.5
4068,E4,454.5,0.25,47,143.5
4069,E5,454.5,0.25,47,143.5
4070,A4,454.5,0.25,47,143.5
4071,C4,454.708,0.25,30,143.5
4072,A3,454.708,0.25,30,143.5
4073,F5,455.0,0.5,58,143.5
4074,A5,455.0,0.5,58,143.5
4075,F6,455.0,0.5,58,143.5
4076,F2,455.208,0.5,36,143.5
4077,A3,455.208,0.5,36,143.5
4078,C3,455.208,0.5,36,143.5
4079,C5,455.75,0.125,49,143.5
4080,C6,455.75,0.125,49,143.5
4081,F5,455.75,0.125,49,143.5
4082,F3,455.958,0.125,29,143.5
4083,C4,455.958,0.125,29,143.5
4084,A3,455.958,0.125,29,143.5
4085,C5,456.0,0.25,49,143.5
4086,F5,456.0,0.25,49,143.5
4087,C6,456.0,0.25,49,143.5
4088,F3,456.208,0.25,29,143.5
4089,A3,456.208,0.25,29,143.5
4090,C4,456.208,0.25,29,143.5
4091,A4,456.5,0.25,56,143.5
4092,C5,456.5,0.25,56,143.5
4093,A5,456.5,0.25,56,143.5
4094,A3,456.708,0.25,37,143.5
4095,C4,456.708,0.25,37,143.5
4096,F4,456.708,0.25,37,143.5
4097,F4,457.25,0.125,50,143.5
4098,F5,457.25,0.125,50,143.5
4099,A4,457.25,0.125,50,143.5
4100,F3,457.458,0.125,30,143.5
4101,A3,457.458,0.125,30,143.5
4102,C4,457.458,0.125,30,143.5
4103,F4,457.5,0.25,50,143.5
4104,F5,457.5,0.25,50,143.5
4105,A4,457.5,0.25,50,143.5
4106,F3,457.708,0.25,31,143.5
4107,C4,457.708,0.25,31,143.5
4108,A3,457.708,0.25,31,143.5
4109,F5,458.0,0.5,59,143.5
4110,G#5,458.0,0.5,59,143.5
4111,F6,458.0,0.5,59,143.5
4112,C#3,458.208,0.5,36,143.5
4113,C#4,458.208,0.5,36,143.5
4114,G#3,458.208,0.5,36,143.5
4115,C#5,458.75,0.125,52,143.5
4116,C#6,458.75,0.125,52,143.5
4117,F3,458.958,0.125,30,143.5
4118,F4,458.958,0.125,30,143.5
4119,C#5,459.0,0.25,52,143.5
4120,C#6,459.0,0.25,52,143.5
4121,F3,459.208,0.25,30,143.5
4122,F4,459.208,0.25,30,143.5
4123,B-5,459.5,0.25,56,143.5
4124,F5,459.5,0.25,56,143.5
4125,C#6,459.5,0.25,56,143.5
4126,F6,459.5,0.25,56,143.5
4127,B-2,459.708,0.25,39,143.5
4128,B-3,459.708,0.25,39,143.5
4129,C#6,460.25,0.125,53,143.5
4130,C#5,460.25,0.125,53,143.5
4131,C#3,460.458,0.125,32,143.5
4132,C#4,460.458,0.125,32,143.5
4133,C#6,460.5,0.25,54,143.5
4134,C#5,460.5,0.25,54,143.5
4135,C#3,460.708,0.25,33,143.5
4136,C#4,460.708,0.25,33,143.5
4137,C#6,461.0,0.5,58,143.5
4138,F#5,461.0,0.5,58,143.5
4139,B-5,461.0,0.5,58,143.5
4140,F#6,461.0,0.5,58,143.5
4141,F#2,461.208,0.5,38,143.5
4142,F#3,461.208,0.5,38,143.5
4143,C#5,461.75,0.125,52,143.5
4144,C#6,461.75,0.125,52,143.5
4145,B-2,461.958,0.125,30,143.5
4146,B-3,461.958,0.125,30,143.5
4147,C#5,462.0,0.25,52,143.5
4148,C#6,462.0,0.25,52,143.5
4149,B-2,462.208,0.25,30,143.5
4150,B-3,462.208,0.25,30,143.5
4151,B-5,462.5,0.25,57,143.5
4152,F#5,462.5,0.25,57,143.5
4153,E-6,462.5,0.25,57,143.5
4154,F#6,462.5,0.25,57,143.5
4155,E-2,462.708,0.25,40,143.5
4156,E-3,462.708,0.25,40,143.5
4157,E-6,463.25,0.125,54,143.5
4158,E-5,463.25,0.125,54,143.5
4159,F#2,463.458,0.125,32,143.5
4160,F#3,463.458,0.125,32,143.5
4161,E-6,463.5,0.25,54,143.5
4162,E-5,463.5,0.25,54,143.5
4163,F#2,463.708,0.25,33,143.5
4164,F#3,463.708,0.25,33,143.5
4165,F#5,464.0,0.25,52,143.5
4166,E-6,464.0,0.25,52,143.5
4167,B1,464.208,0.5,33,143.5
4168,B2,464.208,0.5,33,143.5
4169,F#6,464.25,0.25,50,143.5
4170,F#5,464.5,0.25,52,143.5
4171,E-6,464.5,0.25,52,143.5
4172,F#3,464.708,0.5,43,143.5
4173,F#6,464.75,0.25,50,143.5
4174,F#5,465.0,0.25,52,143.5
4175,E-6,465.0,0.25,52,143.5
4176,E3,465.208,0.5,40,143.5
4177,F#6,465.25,0.25,51,143.5
4178,F#5,465.5,0.25,52,143.5
4179,E-6,465.5,0.25,52,143.5
4180,E-3,465.708,0.5,40,143.5
4181,F#6,465.75,0.25,51,143.5
4182,F#5,466.0,0.25,54,143.5
4183,E-6,466.0,0.25,54,143.5
4184,C#3,466.208,0.5,38,143.5
4185,F#6,466.25,0.25,53,143.5
4186,F#5,466.5,0.25,54,143.5
4187,E-6,466.5,0.25,54,143.5
4188,B2,466.708,0.5,38,143.5
4189,F#6,466.75,0.25,53,143.5
4190,G#5,467.0,0.25,54,143.5
4191,E-6,467.0,0.25,54,143.5
4192,E-4,467.208,0.5,38,143.5
4193,B4,467.208,0.5,38,143.5
4194,G#6,467.25,0.25,53,143.5
4195,G#5,467.5,0.25,55,143.5
4196,E-6,467.5,0.25,55,143.5
4197,G#6,467.75,0.25,53,143.5
4198,B3,467.958,0.125,30,143.5
4199,G#4,467.958,0.125,30,143.5
4200,G#5,468.0,0.25,56,143.5
4201,E-6,468.0,0.25,56,143.5
4202,B3,468.208,0.25,30,143.5
4203,G#4,468.208,0.25,30,143.5
4204,G#6,468.25,0.25,52,143.5
4205,G#5,468.5,0.25,56,143.5
4206,E-6,468.5,0.25,56,143.5
4207,G#3,468.708,0.25,40,143.5
4208,E-4,468.708,0.25,40,143.5
4209,G#6,468.75,0.25,53,143.5
4210,G#5,469.0,0.25,57,143.5
4211,E-6,469.0,0.25,57,143.5
4212,G#6,469.25,0.25,54,143.5
4213,E-3,469.458,0.125,32,143.5
4214,B3,469.458,0.125,32,143.5
4215,G#5,469.5,0.25,57,143.5
4216,E-6,469.5,0.25,57,143.5
4217,E-3,469.708,0.25,34,143.5
4218,B3,469.708,0.25,34,143.5
4219,G#6,469.75,0.25,54,143.5
4220,B5,470.0,0.25,58,143.5
4221,E-6,470.0,0.25,58,143.5
4222,G#1,470.208,0.5,36,143.5
4223,G#2,470.208,0.5,36,143.5
4224,B6,470.25,0.25,56,143.5
4225,B5,470.5,0.25,58,143.5
4226,E-6,470.5,0.25,58,143.5
4227,E-3,470.708,0.5,48,143.5
4228,B6,470.75,0.25,56,143.5
4229,B5,471.0,0.25,58,143.5
4230,E-6,471.0,0.25,58,143.5
4231,C#3,471.208,0.5,45,143.5
4232,B6,471.25,0.25,57,143.5
4233,B5,471.5,0.25,59,143.5
4234,E-6,471.5,0.25,59,143.5
4235,B2,471.708,0.5,45,143.5
4236,B6,471.75,0.25,57,143.5
4237,B5,472.0,0.25,60,143.5
4238,E-6,472.0,0.25,60,143.5
4239,B-2,472.208,0.5,43,143.5
4240,B6,472.25,0.25,59,143.5
4241,B5,472.5,0.25,60,143.5
4242,E-6,472.5,0.25,60,143.5
4243,G#2,472.708,0.5,42,143.5
4244,B6,472.75,0.25,60,143.5
4245,B5,473.0,0.25,60,143.5
4246,D6,473.0,0.25,60,143.5
4247,D4,473.208,0.5,41,143.5
4248,B4,473.208,0.5,41,143.5
4249,B6,473.25,0.25,59,143.5
4250,B5,473.5,0.25,61,143.5
4251,D6,473.5,0.25,61,143.5
4252,B6,473.75,0.25,60,143.5
4253,B3,473.958,0.125,34,143.5
4254,F4,473.958,0.125,34,143.5
4255,B5,474.0,0.25,62,143.5
4256,D6,474.0,0.25,62,143.5
4257,B3,474.208,0.25,34,143.5
4258,F4,474.208,0.25,34,143.5
4259,B6,474.25,0.25,58,143.5
4260,B5,474.5,0.25,62,143.5
4261,D6,474.5,0.25,62,143.5
4262,F3,474.708,0.25,44,143.5
4263,D4,474.708,0.25,44,143.5
4264,B6,474.75,0.25,60,143.5
4265,B5,475.0,0.25,62,143.5
4266,D6,475.0,0.25,62,143.5
4267,B6,475.25,0.25,60,143.5
4268,D3,475.458,0.125,36,143.5
4269,B3,475.458,0.125,36,143.5
4270,B5,475.5,0.25,64,143.5
4271,D6,475.5,0.25,64,143.5
4272,D3,475.708,0.25,38,143.5
4273,B3,475.708,0.25,38,143.5
4274,B6,475.75,0.25,61,143.5
4275,C6,476.0,0.25,64,143.5
4276,E-6,476.0,0.25,64,143.5
4277,G#2,476.208,0.5,49,143.5
4278,G#3,476.208,0.5,49,143.5
4279,C7,476.25,0.25,63,143.5
4280,C6,476.5,0.25,65,143.5
4281,E-6,476.5,0.25,65,143.5
4282,C7,476.75,0.25,63,143.5
4283,E-2,476.958,0.125,40,143.5
4284,E-3,476.958,0.125,40,143.5
4285,C6,477.0,0.25,66,143.5
4286,E-6,477.0,0.25,66,143.5
4287,E-2,477.208,0.25,40,143.5
4288,E-3,477.208,0.25,40,143.5
4289,C7,477.25,0.25,61,143.5
4290,C#6,477.5,0.25,66,143.5
4291,E6,477.5,0.25,66,143.5
4292,G#2,477.708,0.25,52,143.5
4293,G#3,477.708,0.25,52,143.5
4294,C#7,477.75,0.25,63,143.5
4295,C#6,478.0,0.25,68,143.5
4296,E6,478.0,0.25,68,143.5
4297,C#7,478.25,0.25,63,143.5
4298,C#2,478.458,0.125,42,143.5
4299,C#3,478.458,0.125,42,143.5
4300,C#6,478.5,0.25,68,143.5
4301,E6,478.5,0.25,68,143.5
4302,C#2,478.708,0.25,46,143.5
4303,C#3,478.708,0.25,46,143.5
4304,C#7,478.75,0.25,65,143.5
4305,D6,479.0,0.25,69,143.5
4306,F6,479.0,0.25,69,143.5
4307,G#2,479.208,0.5,54,143.5
4308,G#3,479.208,0.5,54,143.5
4309,D7,479.25,0.25,67,143.5
4310,D6,479.5,0.25,70,143.5
4311,F6,479.5,0.25,70,143.5
4312,D7,479.75,0.25,67,143.5
4313,B1,479.958,0.125,44,143.5
4314,B2,479.958,0.125,44,143.5
4315,D6,480.0,0.25,70,143.5
4316,F6,480.0,0.25,70,143.5
4317,B1,480.208,0.25,44,143.5
4318,B2,480.208,0.25,44,143.5
4319,D7,480.25,0.25,66,143.5
4320,D6,480.5,0.25,72,143.5
4321,F6,480.5,0.25,72,143.5
4322,G#2,480.708,0.25,58,143.5
4323,G#3,480.708,0.25,58,143.5
4324,D7,480.75,0.25,68,143.5
4325,D6,481.0,0.25,74,143.5
4326,F6,481.0,0.25,74,143.5
4327,D7,481.25,0.25,70,143.5
4328,B-1,481.458,0.125,48,143.5
4329,B-2,481.458,0.125,48,143.5
4330,D6,481.5,0.25,74,143.5
4331,F6,481.5,0.25,74,143.5
4332,B-1,481.708,0.25,51,143.5
4333,B-2,481.708,0.25,51,143.5
4334,D7,481.75,0.25,71,143.5
4335,D6,482.0,0.25,76,143.5
4336,F6,482.0,0.25,76,143.5
4337,A2,482.208,0.5,59,143.5
4338,A3,482.208,0.5,59,143.5
4339,D7,482.25,0.25,73,143.5
4340,D6,482.5,0.25,76,143.5
4341,F6,482.5,0.25,76,143.5
4342,D7,482.75,0.25,74,143.5
4343,A1,482.958,0.125,49,143.5
4344,A2,482.958,0.125,49,143.5
4345,D6,483.0,0.25,76,143.5
4346,F6,483.0,0.25,76,143.5
4347,A1,483.208,0.25,50,143.5
4348,A2,483.208,0.25,50,143.5
4349,D7,483.25,0.25,72,143.5
4350,D6,483.5,0.25,78,143.5
4351,F6,483.5,0.25,78,143.5
4352,B-2,483.708,0.25,63,143.5
4353,B-3,483.708,0.25,63,143.5
4354,D7,483.75,0.25,74,143.5
4355,D6,484.0,0.25,78,143.5
4356,F6,484.0,0.25,78,143.5
4357,D7,484.25,0.25,76,143.5
4358,G#1,484.458,0.125,52,143.5
4359,G#2,484.458,0.125,52,143.5
4360,D6,484.5,0.25,80,143.5
4361,F6,484.5,0.25,80,143.5
4362,G#1,484.708,0.25,56,143.5
4363,G#2,484.708,0.25,56,143.5
4364,D7,484.75,0.25,76,143.5
4365,D6,485.0,0.25,81,143.5
4366,F6,485.0,0.25,81,143.5
4367,B2,485.208,0.5,64,143.5
4368,B3,485.208,0.5,64,143.5
4369,D7,485.25,0.25,79,143.5
4370,D6,485.5,0.25,82,143.5
4371,F6,485.5,0.25,82,143.5
4372,D7,485.75,0.25,80,143.5
4373,G#1,485.958,0.125,54,143.5
4374,G#2,485.958,0.125,54,143.5
4375,D6,486.0,0.25,83,143.5
4376,F6,486.0,0.25,83,143.5
4377,G#1,486.208,0.25,54,143.5
4378,G#2,486.208,0.25,54,143.5
4379,D7,486.25,0.25,78,143.5
4380,E-6,486.5,0.25,84,143.5
4381,F#6,486.5,0.25,84,143.5
4382,B2,486.708,0.25,70,143.5
4383,B3,486.708,0.25,70,143.5
4384,E-7,486.75,0.25,81,143.5
4385,E-6,487.0,0.25,85,143.5
4386,F#6,487.0,0.25,85,143.5
4387,E-7,487.25,0.25,81,143.5
4388,G1,487.458,0.125,58,143.5
4389,G2,487.458,0.125,58,143.5
4390,E-6,487.5,0.25,86,143.5
4391,F#6,487.5,0.25,86,143.5
4392,G1,487.708,0.25,60,143.5
4393,G2,487.708,0.25,60,143.5
4394,E-7,487.75,0.25,82,143.5
4395,C7,488.0,0.5,83,143.5
4396,E6,488.0,0.5,83,143.5
4397,G6,488.0,0.5,83,143.5
4398,E7,488.0,0.5,83,143.5
4399,C2,488.208,0.5,53,143.5
4400,E2,488.208,0.5,53,143.5
4401,G2,488.208,0.5,53,143.5
4402,C3,488.208,0.5,53,143.5
4403,C6,488.75,0.125,71,143.5
4404,E6,488.75,0.125,71,143.5
4405,G6,488.75,0.125,71,143.5
4406,C7,488.75,0.125,71,143.5
4407,E2,488.958,0.125,43,143.5
4408,G2,488.958,0.125,43,143.5
4409,E3,488.958,0.125,43,143.5
4410,C3,488.958,0.125,43,143.5
4411,E6,489.0,0.25,71,143.5
4412,C6,489.0,0.25,71,143.5
4413,G6,489.0,0.25,71,143.5
4414,C7,489.0,0.25,71,143.5
4415,E2,489.208,0.25,43,143.5
4416,G2,489.208,0.25,43,143.5
4417,C3,489.208,0.25,43,143.5
4418,E3,489.208,0.25,43,143.5
4419,C7,489.5,0.25,81,143.5
4420,E6,489.5,0.25,81,143.5
4421,C6,489.5,0.25,81,143.5
4422,G6,489.5,0.25,81,143.5
4423,E2,489.708,0.25,55,143.5
4424,G2,489.708,0.25,55,143.5
4425,C3,489.708,0.25,55,143.5
4426,E3,489.708,0.25,55,143.5
4427,G5,490.25,0.125,73,143.5
4428,C6,490.25,0.125,73,143.5
4429,E6,490.25,0.125,73,143.5
4430,G6,490.25,0.125,73,143.5
4431,G2,490.458,0.125,45,143.5
4432,C3,490.458,0.125,45,143.5
4433,G3,490.458,0.125,45,143.5
4434,E3,490.458,0.125,45,143.5
4435,G5,490.5,0.25,73,143.5
4436,C6,490.5,0.25,73,143.5
4437,E6,490.5,0.25,73,143.5
4438,G6,490.5,0.25,73,143.5
4439,G2,490.708,0.25,47,143.5
4440,C3,490.708,0.25,47,143.5
4441,E3,490.708,0.25,47,143.5
4442,G3,490.708,0.25,47,143.5
4443,C6,491.0,0.25,85,143.5
4444,A5,491.0,0.25,85,143.5
4445,E5,491.0,0.25,85,143.5
4446,E6,491.0,0.25,85,143.5
4447,A2,491.208,0.25,55,143.5
4448,C3,491.208,0.25,55,143.5
4449,E3,491.208,0.25,55,143.5
4450,A3,491.208,0.25,55,143.5
4451,C5,491.75,0.125,77,143.5
4452,E5,491.75,0.125,77,143.5
4453,A5,491.75,0.125,77,143.5
4454,C6,491.75,0.125,77,143.5
4455,C3,491.958,0.125,45,143.5
4456,E3,491.958,0.125,45,143.5
4457,A3,491.958,0.125,45,143.5
4458,C4,491.958,0.125,45,143.5
4459,C5,492.0,0.25,77,143.5
4460,E5,492.0,0.25,77,143.5
4461,A5,492.0,0.25,77,143.5
4462,C6,492.0,0.25,77,143.5
4463,C3,492.208,0.25,45,143.5
4464,E3,492.208,0.25,45,143.5
4465,A3,492.208,0.25,45,143.5
4466,C4,492.208,0.25,45,143.5
4467,C5,492.5,1.5,85,143.5
4468,E5,492.5,1.5,85,143.5
4469,A5,492.5,1.5,85,143.5
4470,C6,492.5,1.5,85,143.5
4471,C3,492.708,1.5,53,143.5
4472,E3,492.708,1.5,53,143.5
4473,A3,492.708,1.5,53,143.5
4474,C4,492.708,1.5,53,143.5
4475,F5,494.0,0.5,81,143.5
4476,G5,494.0,0.5,81,143.5
4477,B5,494.0,0.5,81,143.5
4478,G6,494.0,0.5,81,143.5
4479,G2,494.208,0.5,53,143.5
4480,D3,494.208,0.5,53,143.5
4481,G3,494.208,0.5,53,143.5
4482,D5,494.75,0.125,75,143.5
4483,G5,494.75,0.125,75,143.5
4484,D6,494.75,0.125,75,143.5
4485,G3,494.958,0.125,46,143.5
4486,B3,494.958,0.125,46,143.5
4487,F4,494.958,0.125,46,143.5
4488,D5,495.0,0.25,75,143.5
4489,G5,495.0,0.25,75,143.5
4490,D6,495.0,0.25,75,143.5
4491,G3,495.208,0.25,46,143.5
4492,B3,495.208,0.25,46,143.5
4493,F4,495.208,0.25,46,143.5
4494,G5,495.5,0.25,83,143.5
4495,C#5,495.5,0.25,83,143.5
4496,C#6,495.5,0.25,83,143.5
4497,B-3,495.708,0.25,54,143.5
4498,G3,495.708,0.25,54,143.5
4499,F4,495.708,0.25,54,143.5
4500,G5,496.0,0.25,87,143.5
4501,D5,496.0,0.25,87,143.5
4502,D6,496.0,0.25,87,143.5
4503,G3,496.208,0.25,58,143.5
4504,B3,496.208,0.25,58,143.5
4505,F4,496.208,0.25,58,143.5
4506,E-5,496.5,0.25,87,143.5
4507,G5,496.5,0.25,87,143.5
4508,E-6,496.5,0.25,87,143.5
4509,G3,496.708,0.25,61,143.5
4510,B3,496.708,0.25,61,143.5
4511,F4,496.708,0.25,61,143.5
4512,E5,497.0,1.5,92,143.5
4513,G5,497.0,1.5,92,143.5
4514,E6,497.0,1.5,92,143.5
4515,C4,497.208,1.5,68,143.5
4516,E4,497.208,1.5,68,143.5
4517,C5,498.5,0.5,83,143.5
4518,G5,498.5,0.5,83,143.5
4519,C6,498.5,0.5,83,143.5
4520,E4,498.708,0.5,59,143.5
4521,G4,498.708,0.5,59,143.5
4522,C7,500.0,0.5,83,143.5
4523,E6,500.0,0.5,83,143.5
4524,G6,500.0,0.5,83,143.5
4525,E7,500.0,0.5,83,143.5
4526,C2,500.208,0.5,53,143.5
4527,E2,500.208,0.5,53,143.5
4528,G2,500.208,0.5,53,143.5
4529,C3,500.208,0.5,53,143.5
4530,C6,500.75,0.125,71,143.5
4531,E6,500.75,0.125,71,143.5
4532,G6,500.75,0.125,71,143.5
4533,C7,500.75,0.125,71,143.5
4534,E2,500.958,0.125,43,143.5
4535,G2,500.958,0.125,43,143.5
4536,E3,500.958,0.125,43,143.5
4537,C3,500.958,0.125,43,143.5
4538,E6,501.0,0.25,71,143.5
4539,C6,501.0,0.25,71,143.5
4540,G6,501.0,0.25,71,143.5
4541,C7,501.0,0.25,71,143.5
4542,E2,501.208,0.25,43,143.5
4543,G2,501.208,0.25,43,143.5
4544,C3,501.208,0.25,43,143.5
4545,E3,501.208,0.25,43,143.5
4546,C7,501.5,0.25,81,143.5
4547,E6,501.5,0.25,81,143.5
4548,C6,501.5,0.25,81,143.5
4549,G6,501.5,0.25,81,143.5
4550,E2,501.708,0.25,55,143.5
4551,G2,501.708,0.25,55,143.5
4552,C3,501.708,0.25,55,143.5
4553,E3,501.708,0.25,55,143.5
4554,G5,502.25,0.125,73,143.5
4555,C6,502.25,0.125,73,143.5
4556,E6,502.25,0.125,73,143.5
4557,G6,502.25,0.125,73,143.5
4558,G2,502.458,0.125,45,143.5
4559,C3,502.458,0.125,45,143.5
4560,G3,502.458,0.125,45,143.5
4561,E3,502.458,0.125,45,143.5
4562,G5,502.5,0.25,73,143.5
4563,C6,502.5,0.25,73,143.5
4564,E6,502.5,0.25,73,143.5
4565,G6,502.5,0.25,73,143.5
4566,G2,502.708,0.25,47,143.5
4567,C3,502.708,0.25,47,143.5
4568,E3,502.708,0.25,47,143.5
4569,G3,502.708,0.25,47,143.5
4570,C6,503.0,0.25,85,143.5
4571,A5,503.0,0.25,85,143.5
4572,E5,503.0,0.25,85,143.5
4573,E6,503.0,0.25,85,143.5
4574,A2,503.208,0.25,55,143.5
4575,C3,503.208,0.25,55,143.5
4576,E3,503.208,0.25,55,143.5
4577,A3,503.208,0.25,55,143.5
4578,C5,503.75,0.125,77,143.5
4579,E5,503.75,0.125,77,143.5
4580,A5,503.75,0.125,77,143.5
4581,C6,503.75,0.125,77,143.5
4582,C3,503.958,0.125,45,143.5
4583,E3,503.958,0.125,45,143.5
4584,A3,503.958,0.125,45,143.5
4585,C4,503.958,0.125,45,143.5
4586,C5,504.0,0.25,77,143.5
4587,E5,504.0,0.25,77,143.5
4588,A5,504.0,0.25,77,143.5
4589,C6,504.0,0.25,77,143.5
4590,C3,504.208,0.25,45,143.5
4591,E3,504.208,0.25,45,143.5
4592,A3,504.208,0.25,45,143.5
4593,C4,504.208,0.25,45,143.5
4594,C5,504.5,1.5,85,143.5
4595,E5,504.5,1.5,85,143.5
4596,A5,504.5,1.5,85,143.5
4597,C6,504.5,1.5,85,143.5
4598,C3,504.708,1.5,53,143.5
4599,E3,504.708,1.5,53,143.5
4600,A3,504.708,1.5,53,143.5
4601,C4,504.708,1.5,53,143.5
4602,E-5,506.0,0.5,83,143.5
4603,F#5,506.0,0.5,83,143.5
4604,E-6,506.0,0.5,83,143.5
4605,F#3,506.208,0.5,52,143.5
4606,B2,506.208,0.5,52,143.5
4607,E-3,506.208,0.5,52,143.5
4608,B3,506.208,0.5,52,143.5
4609,B4,506.75,0.125,75,143.5
4610,E-5,506.75,0.125,75,143.5
4611,F#5,506.75,0.125,75,143.5
4612,B3,506.958,0.125,46,143.5
4613,E-4,506.958,0.125,46,143.5
4614,F#4,506.958,0.125,46,143.5
4615,B4,507.0,0.25,75,143.5
4616,E-5,507.0,0.25,75,143.5
4617,F#5,507.0,0.25,75,143.5
4618,B3,507.208,0.25,46,143.5
4619,E-4,507.208,0.25,46,143.5
4620,F#4,507.208,0.25,46,143.5
4621,E-5,507.5,0.25,74,143.5
4622,B4,507.5,0.25,74,143.5
4623,F5,507.5,0.25,74,143.5
4624,E-4,507.708,0.25,48,143.5
4625,B3,507.708,0.25,48,143.5
4626,F4,507.708,0.25,48,143.5
4627,E-5,508.0,0.25,78,143.5
4628,B4,508.0,0.25,78,143.5
4629,F#5,508.0,0.25,78,143.5
4630,B3,508.208,0.25,52,143.5
4631,E-4,508.208,0.25,52,143.5
4632,F#4,508.208,0.25,52,143.5
4633,B4,508.5,0.25,78,143.5
4634,E-5,508.5,0.25,78,143.5
4635,B5,508.5,0.25,78,143.5
4636,B3,508.708,0.25,55,143.5
4637,E-4,508.708,0.25,55,143.5
4638,F#4,508.708,0.25,55,143.5
4639,E-5,509.0,1.5,92,143.5
4640,F#5,509.0,1.5,92,143.5
4641,E-6,509.0,1.5,92,143.5
4642,B3,509.208,1.5,66,143.5
4643,E-4,509.208,1.5,66,143.5
4644,F#4,509.208,1.5,66,143.5
4645,B4,509.208,1.5,66,143.5
4646,F5,510.5,0.5,81,143.5
4647,D5,510.5,0.5,81,143.5
4648,G5,510.5,0.5,81,143.5
4649,D6,510.5,0.5,81,143.5
4650,G3,510.708,0.5,56,143.5
4651,D4,510.708,0.5,56,143.5
4652,F4,510.708,0.5,56,143.5
4653,B4,510.708,0.5,56,143.5
4654,E6,512.0,0.25,66,143.5
4655,C6,512.0,0.25,66,143.5
4656,G5,512.0,0.25,66,143.5
4657,E5,512.0,0.25,66,143.5
4658,C4,512.208,0.375,50,143.5
4659,E4,512.208,0.375,50,143.5
4660,G4,512.208,0.375,50,143.5
4661,C5,512.208,0.375,50,143.5
4662,C6,512.5,0.375,64,143.5
4663,G5,512.5,0.375,64,143.5
4664,E5,512.5,0.375,64,143.5
4665,C5,512.5,0.375,64,143.5
4666,G3,512.583,14/125,43,143.5
4667,C4,512.583,14/125,43,143.5
4668,E4,512.583,14/125,43,143.5
4669,G4,512.583,14/125,43,143.5
4670,G3,512.708,0.125,51,143.5
4671,C4,512.708,0.125,51,143.5
4672,E4,512.708,0.125,51,143.5
4673,G4,512.708,0.125,51,143.5
4674,G5,512.875,14/125,56,143.5
4675,E5,512.875,14/125,56,143.5
4676,C5,512.875,14/125,56,143.5
4677,G4,512.875,14/125,56,143.5
4678,G4,513.0,0.125,64,143.5
4679,C5,513.0,0.125,64,143.5
4680,E5,513.0,0.125,64,143.5
4681,G5,513.0,0.125,64,143.5
4682,E4,513.208,0.375,51,143.5
4683,C4,513.208,0.375,51,143.5
4684,G3,513.208,0.375,51,143.5
4685,E3,513.208,0.375,51,143.5
4686,E4,513.5,0.375,64,143.5
4687,G4,513.5,0.375,64,143.5
4688,C5,513.5,0.375,64,143.5
4689,E5,513.5,0.375,64,143.5
4690,C3,513.583,14/125,45,143.5
4691,E3,513.583,14/125,45,143.5
4692,G3,513.583,14/125,45,143.5
4693,C4,513.583,14/125,45,143.5
4694,C3,513.708,0.125,52,143.5
4695,E3,513.708,0.125,52,143.5
4696,G3,513.708,0.125,52,143.5
4697,C4,513.708,0.125,52,143.5
4698,C4,513.875,14/125,56,143.5
4699,E4,513.875,14/125,56,143.5
4700,A4,513.875,14/125,56,143.5
4701,C5,513.875,14/125,56,143.5
4702,C5,514.0,0.125,66,143.5
4703,A4,514.0,0.125,66,143.5
4704,E4,514.0,0.125,66,143.5
4705,C4,514.0,0.125,66,143.5
4706,A2,514.208,0.375,50,143.5
4707,C3,514.208,0.375,50,143.5
4708,E3,514.208,0.375,50,143.5
4709,A3,514.208,0.375,50,143.5
4710,A4,514.5,0.375,64,143.5
4711,E4,514.5,0.375,64,143.5
4712,C4,514.5,0.375,64,143.5
4713,A3,514.5,0.375,64,143.5
4714,E2,514.583,14/125,43,143.5
4715,A2,514.583,14/125,43,143.5
4716,C3,514.583,14/125,43,143.5
4717,E3,514.583,14/125,43,143.5
4718,E2,514.708,0.125,51,143.5
4719,A2,514.708,0.125,51,143.5
4720,C3,514.708,0.125,51,143.5
4721,E3,514.708,0.125,51,143.5
4722,E4,514.875,14/125,56,143.5
4723,C4,514.875,14/125,56,143.5
4724,A3,514.875,14/125,56,143.5
4725,E3,514.875,14/125,56,143.5
4726,E3,515.0,0.125,64,143.5
4727,A3,515.0,0.125,64,143.5
4728,C4,515.0,0.125,64,143.5
4729,E4,515.0,0.125,64,143.5
4730,C3,515.208,0.375,51,143.5
4731,A2,515.208,0.375,51,143.5
4732,E2,515.208,0.375,51,143.5
4733,C2,515.208,0.375,51,143.5
4734,C3,515.5,0.375,64,143.5
4735,E3,515.5,0.375,64,143.5
4736,A3,515.5,0.375,64,143.5
4737,C4,515.5,0.375,64,143.5
4738,A1,515.583,14/125,45,143.5
4739,C2,515.583,14/125,45,143.5
4740,E2,515.583,14/125,45,143.5
4741,A2,515.583,14/125,45,143.5
4742,A1,515.708,0.125,52,143.5
4743,C2,515.708,0.125,52,143.5
4744,E2,515.708,0.125,52,143.5
4745,A2,515.708,0.125,52,143.5
4746,E3,515.875,0.125,58,143.5
4747,E4,515.875,0.125,58,143.5
4748,F3,516.0,0.5,66,143.5
4749,B3,516.0,0.5,66,143.5
4750,G4,516.0,0.5,66,143.5
4751,G1,516.208,0.5,53,143.5
4752,D2,516.208,0.5,53,143.5
4753,G2,516.208,0.5,53,143.5
4754,F3,516.75,0.125,59,143.5
4755,B3,516.75,0.125,59,143.5
4756,D4,516.75,0.125,59,143.5
4757,G2,516.958,0.125,46,143.5
4758,B2,516.958,0.125,46,143.5
4759,D3,516.958,0.125,46,143.5
4760,F3,517.0,0.25,59,143.5
4761,B3,517.0,0.25,59,143.5
4762,D4,517.0,0.25,59,143.5
4763,G2,517.208,0.25,46,143.5
4764,B2,517.208,0.25,46,143.5
4765,D3,517.208,0.25,46,143.5
4766,B-3,517.5,0.25,66,143.5
4767,F3,517.5,0.25,66,143.5
4768,C#4,517.5,0.25,66,143.5
4769,B-2,517.708,0.25,54,143.5
4770,G2,517.708,0.25,54,143.5
4771,C#3,517.708,0.25,54,143.5
4772,B3,518.0,0.25,69,143.5
4773,F3,518.0,0.25,69,143.5
4774,D4,518.0,0.25,69,143.5
4775,G2,518.208,0.25,58,143.5
4776,B2,518.208,0.25,58,143.5
4777,D3,518.208,0.25,58,143.5
4778,F3,518.5,0.25,69,143.5
4779,B3,518.5,0.25,69,143.5
4780,E-4,518.5,0.25,69,143.5
4781,G2,518.708,0.25,61,143.5
4782,B2,518.708,0.25,61,143.5
4783,E-3,518.708,0.25,61,143.5
4784,E4,519.0,53/250,83,143.5
4785,C4,519.0,53/250,83,143.5
4786,C3,519.208,1.5,68,143.5
4787,E3,519.208,1.5,68,143.5
4788,G3,519.212,53/250,70,143.5
4789,E3,519.425,53/250,71,143.5
4790,G3,519.638,53/250,72,143.5
4791,C4,519.85,53/250,73,143.5
4792,E4,520.062,53/250,74,143.5
4793,G4,520.275,9/40,75,143.5
4794,C5,520.5,53/250,76,143.5
4795,G2,520.708,0.5,56,143.5
4796,E2,520.708,0.5,56,143.5
4797,C2,520.708,0.5,56,143.5
4798,C3,520.708,0.5,56,143.5
4799,E5,520.712,53/250,78,143.5
4800,G5,520.925,53/250,79,143.5
4801,C6,521.138,53/250,80,143.5
4802,E6,521.35,53/250,81,143.5
4803,G6,521.562,53/250,82,143.5
4804,C7,521.775,9/40,83,143.5
4805,E7,522.0,0.5,72,143.5
4806,C7,522.0,0.5,72,143.5
4807,G6,522.0,0.5,72,143.5
4808,E6,522.0,0.5,72,143.5
4809,C5,522.208,0.375,56,143.5
4810,E5,522.208,0.375,56,143.5
4811,G5,522.208,0.375,56,143.5
4812,C6,522.208,0.375,56,143.5
4813,C7,522.5,0.375,69,143.5
4814,G6,522.5,0.375,69,143.5
4815,E6,522.5,0.375,69,143.5
4816,C6,522.5,0.375,69,143.5
4817,G4,522.583,14/125,47,143.5
4818,C5,522.583,14/125,47,143.5
4819,E5,522.583,14/125,47,143.5
4820,G5,522.583,14/125,47,143.5
4821,G4,522.708,0.25,56,143.5
4822,C5,522.708,0.25,56,143.5
4823,E5,522.708,0.25,56,143.5
4824,G5,522.708,0.25,56,143.5
4825,G6,522.875,14/125,60,143.5
4826,E6,522.875,14/125,60,143.5
4827,C6,522.875,14/125,60,143.5
4828,G5,522.875,14/125,60,143.5
4829,G5,523.0,0.25,69,143.5
4830,C6,523.0,0.25,69,143.5
4831,E6,523.0,0.25,69,143.5
4832,G6,523.0,0.25,69,143.5
4833,E5,523.208,0.375,56,143.5
4834,C5,523.208,0.375,56,143.5
4835,G4,523.208,0.375,56,143.5
4836,E4,523.208,0.375,56,143.5
4837,E5,523.5,0.375,69,143.5
4838,G5,523.5,0.375,69,143.5
4839,C6,523.5,0.375,69,143.5
4840,E6,523.5,0.375,69,143.5
4841,C4,523.583,14/125,48,143.5
4842,E4,523.583,14/125,48,143.5
4843,G4,523.583,14/125,48,143.5
4844,C5,523.583,14/125,48,143.5
4845,C4,523.708,0.5,56,143.5
4846,E4,523.708,0.5,56,143.5
4847,G4,523.708,0.5,56,143.5
4848,C5,523.708,0.5,56,143.5
4849,C5,523.875,14/125,62,143.5
4850,E5,523.875,14/125,62,143.5
4851,A5,523.875,14/125,62,143.5
4852,C6,523.875,14/125,62,143.5
4853,C6,524.0,0.25,72,143.5
4854,A5,524.0,0.25,72,143.5
4855,E5,524.0,0.25,72,143.5
4856,C5,524.0,0.25,72,143.5
4857,A3,524.208,0.375,56,143.5
4858,C4,524.208,0.375,56,143.5
4859,E4,524.208,0.375,56,143.5
4860,A4,524.208,0.375,56,143.5
4861,A5,524.5,0.375,69,143.5
4862,E5,524.5,0.375,69,143.5
4863,C5,524.5,0.375,69,143.5
4864,A4,524.5,0.375,69,143.5
4865,E3,524.583,14/125,47,143.5
4866,A3,524.583,14/125,47,143.5
4867,C4,524.583,14/125,47,143.5
4868,E4,524.583,14/125,47,143.5
4869,E3,524.708,0.25,56,143.5
4870,A3,524.708,0.25,56,143.5
4871,C4,524.708,0.25,56,143.5
4872,E4,524.708,0.25,56,143.5
4873,E5,524.875,14/125,60,143.5
4874,C5,524.875,14/125,60,143.5
4875,A4,524.875,14/125,60,143.5
4876,E4,524.875,14/125,60,143.5
4877,E4,525.0,0.25,69,143.5
4878,A4,525.0,0.25,69,143.5
4879,C5,525.0,0.25,69,143.5
4880,E5,525.0,0.25,69,143.5
4881,C4,525.208,0.375,56,143.5
4882,A3,525.208,0.375,56,143.5
4883,E3,525.208,0.375,56,143.5
4884,C3,525.208,0.375,56,143.5
4885,C4,525.5,0.25,69,143.5
4886,E4,525.5,0.25,69,143.5
4887,A4,525.5,0.25,69,143.5
4888,C5,525.5,0.25,69,143.5
4889,A2,525.583,14/125,48,143.5
4890,C3,525.583,14/125,48,143.5
4891,E3,525.583,14/125,48,143.5
4892,A3,525.583,14/125,48,143.5
4893,A2,525.708,0.25,56,143.5
4894,C3,525.708,0.25,56,143.5
4895,E3,525.708,0.25,56,143.5
4896,A3,525.708,0.25,56,143.5
4897,G#5,526.0,0.25,78,143.5
4898,B5,526.0,0.25,78,143.5
4899,G#6,526.0,0.25,78,143.5
4900,E2,526.021,0.188,50,143.5
4901,G#2,526.083,0.125,50,143.5
4902,B2,526.146,0.062,50,143.5
4903,E3,526.208,0.25,59,143.5
4904,E2,526.208,0.156,50,143.5
4905,G#2,526.208,0.188,50,143.5
4906,B2,526.208,0.219,50,143.5
4907,B4,526.75,0.125,62,143.5
4908,B5,526.75,0.125,62,143.5
4909,B2,526.958,0.125,48,143.5
4910,B3,526.958,0.125,48,143.5
4911,B4,527.0,0.25,62,143.5
4912,B5,527.0,0.25,62,143.5
4913,B2,527.208,0.25,48,143.5
4914,B3,527.208,0.25,48,143.5
4915,B-4,527.5,0.25,70,143.5
4916,B-5,527.5,0.25,70,143.5
4917,B-2,527.708,0.25,56,143.5
4918,B-3,527.708,0.25,56,143.5
4919,B4,528.0,0.25,72,143.5
4920,B5,528.0,0.25,72,143.5
4921,B2,528.208,0.25,60,143.5
4922,B3,528.208,0.25,60,143.5
4923,E5,528.5,0.25,78,143.5
4924,E6,528.5,0.25,78,143.5
4925,E3,528.708,0.25,64,143.5
4926,E4,528.708,0.25,64,143.5
4927,G#5,529.0,0.25,78,143.5
4928,C6,529.0,0.25,78,143.5
4929,G#6,529.0,0.25,78,143.5
4930,G#2,529.083,0.125,50,143.5
4931,E-3,529.146,0.062,50,143.5
4932,G#3,529.208,0.25,59,143.5
4933,G#2,529.208,0.188,50,143.5
4934,E-3,529.208,26/125,50,143.5
4935,E-5,529.75,0.125,62,143.5
4936,E-6,529.75,0.125,62,143.5
4937,E-3,529.958,0.125,48,143.5
4938,E-4,529.958,0.125,48,143.5
4939,E-5,530.0,0.25,62,143.5
4940,E-6,530.0,0.25,62,143.5
4941,E-3,530.208,0.25,48,143.5
4942,E-4,530.208,0.25,48,143.5
4943,D5,530.5,0.25,70,143.5
4944,D6,530.5,0.25,70,143.5
4945,D3,530.708,0.25,56,143.5
4946,D4,530.708,0.25,56,143.5
4947,E-5,531.0,0.25,72,143.5
4948,E-6,531.0,0.25,72,143.5
4949,E-3,531.208,0.25,60,143.5
4950,E-4,531.208,0.25,60,143.5
4951,E-5,531.5,0.25,78,143.5
4952,E-6,531.5,0.25,78,143.5
4953,E-3,531.708,0.25,64,143.5
4954,E-4,531.708,0.25,64,143.5
4955,G5,532.0,0.25,78,143.5
4956,B-5,532.0,0.25,78,143.5
4957,G6,532.0,0.25,78,143.5
4958,E-2,532.021,0.188,50,143.5
4959,G2,532.083,0.125,50,143.5
4960,B-2,532.146,0.062,50,143.5
4961,E-3,532.208,0.25,59,143.5
4962,E-2,532.208,0.156,50,143.5
4963,G2,532.208,0.188,50,143.5
4964,B-2,532.208,0.219,50,143.5
4965,B-4,532.75,0.125,62,143.5
4966,B-5,532.75,0.125,62,143.5
4967,B-2,532.958,0.125,48,143.5
4968,B-3,532.958,0.125,48,143.5
4969,B-4,533.0,0.25,62,143.5
4970,B-5,533.0,0.25,62,143.5
4971,B-2,533.208,0.25,48,143.5
4972,B-3,533.208,0.25,48,143.5
4973,A4,533.5,0.25,70,143.5
4974,A5,533.5,0.25,70,143.5
4975,A2,533.708,0.25,56,143.5
4976,A3,533.708,0.25,56,143.5
4977,B-4,534.0,0.25,72,143.5
4978,B-5,534.0,0.25,72,143.5
4979,B-2,534.208,0.25,60,143.5
4980,B-3,534.208,0.25,60,143.5
4981,E-5,534.5,0.25,78,143.5
4982,E-6,534.5,0.25,78,143.5
4983,E-3,534.708,0.25,64,143.5
4984,E-4,534.708,0.25,64,143.5
4985,G5,535.0,0.25,78,143.5
4986,B-5,535.0,0.25,78,143.5
4987,G6,535.0,0.25,78,143.5
4988,G2,535.083,0.125,50,143.5
4989,D3,535.146,0.062,50,143.5
4990,G3,535.208,0.25,59,143.5
4991,G2,535.208,0.188,50,143.5
4992,D3,535.208,0.219,50,143.5
4993,D5,535.75,0.125,62,143.5
4994,D6,535.75,0.125,62,143.5
4995,D3,535.958,0.125,48,143.5
4996,D4,535.958,0.125,48,143.5
4997,D5,536.0,0.25,62,143.5
4998,D6,536.0,0.25,62,143.5
4999,D3,536.208,0.25,48,143.5
5000,D4,536.208,0.25,48,143.5
5001,C#5,536.5,0.25,70,143.5
5002,C#6,536.5,0.25,70,143.5
5003,C#3,536.708,0.25,56,143.5
5004,C#4,536.708,0.25,56,143.5
5005,D5,537.0,0.25,72,143.5
5006,D6,537.0,0.25,72,143.5
5007,D3,537.208,0.25,60,143.5
5008,D4,537.208,0.25,60,143.5
5009,D5,537.5,0.25,78,143.5
5010,D6,537.5,0.25,78,143.5
5011,D3,537.708,0.25,64,143.5
5012,D4,537.708,0.25,64,143.5
5013,F#5,538.0,0.25,78,143.5
5014,A5,538.0,0.25,78,143.5
5015,F#6,538.0,0.25,78,143.5
5016,D2,538.208,0.25,54,143.5
5017,D3,538.208,0.25,54,143.5
5018,F#5,538.5,0.25,59,143.5
5019,A4,538.5,0.25,59,143.5
5020,A5,538.5,0.25,59,143.5
5021,F#3,538.708,0.25,46,143.5
5022,D3,538.708,0.25,46,143.5
5023,A3,538.708,0.25,46,143.5
5024,F#5,539.0,0.25,59,143.5
5025,B4,539.0,0.25,59,143.5
5026,B5,539.0,0.25,59,143.5
5027,F#3,539.208,0.25,46,143.5
5028,D3,539.208,0.25,46,143.5
5029,B3,539.208,0.25,46,143.5
5030,A5,539.5,0.25,72,143.5
5031,C#5,539.5,0.25,72,143.5
5032,C#6,539.5,0.25,72,143.5
5033,F#2,539.708,0.25,60,143.5
5034,F#3,539.708,0.25,60,143.5
5035,G#5,540.0,0.25,69,143.5
5036,C5,540.0,0.25,69,143.5
5037,C6,540.0,0.25,69,143.5
5038,G#3,540.208,0.25,58,143.5
5039,F#3,540.208,0.25,58,143.5
5040,C4,540.208,0.25,58,143.5
5041,A5,540.5,0.25,75,143.5
5042,C#5,540.5,0.25,75,143.5
5043,C#6,540.5,0.25,75,143.5
5044,A3,540.708,0.25,61,143.5
5045,F#3,540.708,0.25,61,143.5
5046,C#4,540.708,0.25,61,143.5
5047,F5,541.0,0.25,78,143.5
5048,G#5,541.0,0.25,78,143.5
5049,F6,541.0,0.25,78,143.5
5050,C#2,541.208,0.25,54,143.5
5051,C#3,541.208,0.25,54,143.5
5052,F5,541.5,0.25,59,143.5
5053,G#4,541.5,0.25,59,143.5
5054,G#5,541.5,0.25,59,143.5
5055,F3,541.708,0.25,46,143.5
5056,C#3,541.708,0.25,46,143.5
5057,G#3,541.708,0.25,46,143.5
5058,F5,542.0,0.25,59,143.5
5059,B-4,542.0,0.25,59,143.5
5060,B-5,542.0,0.25,59,143.5
5061,F3,542.208,0.25,46,143.5
5062,C#3,542.208,0.25,46,143.5
5063,B-3,542.208,0.25,46,143.5
5064,G#5,542.5,0.25,72,143.5
5065,C5,542.5,0.25,72,143.5
5066,C6,542.5,0.25,72,143.5
5067,F2,542.708,0.25,60,143.5
5068,F3,542.708,0.25,60,143.5
5069,G5,543.0,0.25,69,143.5
5070,B4,543.0,0.25,69,143.5
5071,B5,543.0,0.25,69,143.5
5072,G3,543.208,0.25,58,143.5
5073,F3,543.208,0.25,58,143.5
5074,B3,543.208,0.25,58,143.5
5075,G#5,543.5,0.25,75,143.5
5076,C5,543.5,0.25,75,143.5
5077,C6,543.5,0.25,75,143.5
5078,G#3,543.708,0.25,61,143.5
5079,F3,543.708,0.25,61,143.5
5080,C4,543.708,0.25,61,143.5
5081,E6,544.0,61/125,63,143.5
5082,G5,544.0,61/125,63,143.5
5083,E5,544.0,61/125,63,143.5
5084,C2,544.208,0.25,52,143.5
5085,C3,544.208,0.25,52,143.5
5086,G4,544.375,0.125,55,143.5
5087,C5,544.375,0.125,55,143.5
5088,E5,544.375,0.125,55,143.5
5089,E5,544.5,0.5,63,143.5
5090,C5,544.5,0.5,63,143.5
5091,G4,544.5,0.5,63,143.5
5092,G3,544.583,14/125,43,143.5
5093,C4,544.583,14/125,43,143.5
5094,E4,544.583,14/125,43,143.5
5095,G3,544.708,0.5,51,143.5
5096,C4,544.708,0.5,51,143.5
5097,E4,544.708,0.5,51,143.5
5098,E-6,545.0,61/125,63,143.5
5099,G5,545.0,61/125,63,143.5
5100,E-5,545.0,61/125,63,143.5
5101,C2,545.208,0.25,52,143.5
5102,C3,545.208,0.25,52,143.5
5103,G4,545.375,0.125,55,143.5
5104,C5,545.375,0.125,55,143.5
5105,E-5,545.375,0.125,55,143.5
5106,E-5,545.5,0.5,63,143.5
5107,C5,545.5,0.5,63,143.5
5108,G4,545.5,0.5,63,143.5
5109,G3,545.583,14/125,43,143.5
5110,C4,545.583,14/125,43,143.5
5111,E-4,545.583,14/125,43,143.5
5112,G3,545.708,0.5,51,143.5
5113,C4,545.708,0.5,51,143.5
5114,E-4,545.708,0.5,51,143.5
5115,C#6,546.0,61/125,63,143.5
5116,F5,546.0,61/125,63,143.5
5117,C#5,546.0,61/125,63,143.5
5118,G#1,546.208,0.25,52,143.5
5119,G#2,546.208,0.25,52,143.5
5120,F4,546.375,0.125,55,143.5
5121,G#4,546.375,0.125,55,143.5
5122,C#5,546.375,0.125,55,143.5
5123,C#5,546.5,0.5,63,143.5
5124,G#4,546.5,0.5,63,143.5
5125,F4,546.5,0.5,63,143.5
5126,F3,546.583,14/125,43,143.5
5127,G#3,546.583,14/125,43,143.5
5128,C#4,546.583,14/125,43,143.5
5129,F3,546.708,0.5,51,143.5
5130,G#3,546.708,0.5,51,143.5
5131,C#4,546.708,0.5,51,143.5
5132,C6,547.0,61/125,63,143.5
5133,E-5,547.0,61/125,63,143.5
5134,C5,547.0,61/125,63,143.5
5135,A1,547.208,0.25,52,143.5
5136,A2,547.208,0.25,52,143.5
5137,E-4,547.375,0.125,55,143.5
5138,F#4,547.375,0.125,55,143.5
5139,C5,547.375,0.125,55,143.5
5140,C5,547.5,0.5,63,143.5
5141,F#4,547.5,0.5,63,143.5
5142,E-4,547.5,0.5,63,143.5
5143,E-3,547.583,14/125,43,143.5
5144,F#3,547.583,14/125,43,143.5
5145,C4,547.583,14/125,43,143.5
5146,E-3,547.708,0.5,51,143.5
5147,F#3,547.708,0.5,51,143.5
5148,C4,547.708,0.5,51,143.5
5149,B-4,548.0,0.25,60,143.5
5150,B-5,548.0,0.25,60,143.5
5151,B-1,548.208,0.25,47,143.5
5152,B-2,548.208,0.25,47,143.5
5153,B-3,548.5,0.25,49,143.5
5154,B-4,548.5,0.25,49,143.5
5155,E-3,548.958,0.125,40,143.5
5156,F#3,548.958,0.125,40,143.5
5157,B-5,549.0,0.25,52,143.5
5158,B-4,549.0,0.25,52,143.5
5159,E3,549.208,0.25,40,143.5
5160,G3,549.208,0.25,40,143.5
5161,B-6,549.5,0.25,63,143.5
5162,B-5,549.5,0.25,63,143.5
5163,E3,549.708,0.25,50,143.5
5164,G3,549.708,0.25,50,143.5
5165,B-4,550.0,0.25,50,143.5
5166,B-5,550.0,0.25,50,143.5
5167,G#3,550.458,0.125,40,143.5
5168,F3,550.458,0.125,40,143.5
5169,B-3,550.5,0.25,50,143.5
5170,B-4,550.5,0.25,50,143.5
5171,D3,550.708,0.25,41,143.5
5172,F3,550.708,0.25,41,143.5
5173,B-4,551.0,0.25,60,143.5
5174,B-5,551.0,0.25,60,143.5
5175,B-1,551.208,0.25,47,143.5
5176,B-2,551.208,0.25,47,143.5
5177,B-3,551.5,0.25,49,143.5
5178,B-4,551.5,0.25,49,143.5
5179,E-3,551.958,0.125,40,143.5
5180,F#3,551.958,0.125,40,143.5
5181,B-5,552.0,0.25,52,143.5
5182,B-4,552.0,0.25,52,143.5
5183,E3,552.208,0.25,40,143.5
5184,G3,552.208,0.25,40,143.5
5185,B-6,552.5,0.25,63,143.5
5186,B-5,552.5,0.25,63,143.5
5187,E3,552.708,0.25,50,143.5
5188,G3,552.708,0.25,50,143.5
5189,B-4,553.0,0.25,50,143.5
5190,B-5,553.0,0.25,50,143.5
5191,G#3,553.458,0.125,40,143.5
5192,F3,553.458,0.125,40,143.5
5193,B-3,553.5,0.25,50,143.5
5194,B-4,553.5,0.25,50,143.5
5195,D3,553.708,0.25,41,143.5
5196,F3,553.708,0.25,41,143.5
5197,C#5,554.0,0.25,66,143.5
5198,C#6,554.0,0.25,66,143.5
5199,C#2,554.208,0.25,50,143.5
5200,C#3,554.208,0.25,50,143.5
5201,C#4,554.5,0.25,53,143.5
5202,C#5,554.5,0.25,53,143.5
5203,F#3,554.958,0.125,42,143.5
5204,A3,554.958,0.125,42,143.5
5205,C#6,555.0,0.25,57,143.5
5206,C#5,555.0,0.25,57,143.5
5207,G3,555.208,0.25,44,143.5
5208,B-3,555.208,0.25,44,143.5
5209,C#7,555.5,0.25,69,143.5
5210,C#6,555.5,0.25,69,143.5
5211,G3,555.708,0.25,54,143.5
5212,B-3,555.708,0.25,54,143.5
5213,C#5,556.0,0.25,56,143.5
5214,C#6,556.0,0.25,56,143.5
5215,B3,556.458,0.125,42,143.5
5216,G#3,556.458,0.125,42,143.5
5217,C#4,556.5,0.25,56,143.5
5218,C#5,556.5,0.25,56,143.5
5219,F3,556.708,0.25,45,143.5
5220,G#3,556.708,0.25,45,143.5
5221,C#5,557.0,0.25,66,143.5
5222,C#6,557.0,0.25,66,143.5
5223,C#2,557.208,0.25,50,143.5
5224,C#3,557.208,0.25,50,143.5
5225,C#4,557.5,0.25,53,143.5
5226,C#5,557.5,0.25,53,143.5
5227,F#3,557.958,0.125,42,143.5
5228,A3,557.958,0.125,42,143.5
5229,C#6,558.0,0.25,57,143.5
5230,C#5,558.0,0.25,57,143.5
5231,G3,558.208,0.25,44,143.5
5232,B-3,558.208,0.25,44,143.5
5233,C#7,558.5,0.25,69,143.5
5234,C#6,558.5,0.25,69,143.5
5235,G3,558.708,0.25,54,143.5
5236,B-3,558.708,0.25,54,143.5
5237,C#5,559.0,0.25,56,143.5
5238,C#6,559.0,0.25,56,143.5
5239,B3,559.458,0.125,42,143.5
5240,G#3,559.458,0.125,42,143.5
5241,C#4,559.5,0.25,56,143.5
5242,C#5,559.5,0.25,56,143.5
5243,F3,559.708,0.25,45,143.5
5244,G#3,559.708,0.25,45,143.5
5245,E5,560.0,0.25,66,143.5
5246,E6,560.0,0.25,66,143.5
5247,E2,560.208,0.25,50,143.5
5248,E3,560.208,0.25,50,143.5
5249,E4,560.5,0.25,53,143.5
5250,E5,560.5,0.25,53,143.5
5251,A3,560.958,0.125,43,143.5
5252,C4,560.958,0.125,43,143.5
5253,E6,561.0,0.25,57,143.5
5254,E5,561.0,0.25,57,143.5
5255,B-3,561.208,0.25,44,143.5
5256,C#4,561.208,0.25,44,143.5
5257,E7,561.5,0.25,70,143.5
5258,E6,561.5,0.25,70,143.5
5259,B-3,561.708,0.25,56,143.5
5260,C#4,561.708,0.25,56,143.5
5261,E5,562.0,0.25,58,143.5
5262,E6,562.0,0.25,58,143.5
5263,D4,562.458,0.125,44,143.5
5264,B3,562.458,0.125,44,143.5
5265,E4,562.5,0.25,58,143.5
5266,E5,562.5,0.25,58,143.5
5267,G#3,562.708,0.25,46,143.5
5268,B3,562.708,0.25,46,143.5
5269,G5,563.0,0.25,68,143.5
5270,G6,563.0,0.25,68,143.5
5271,G2,563.208,0.25,54,143.5
5272,G3,563.208,0.25,54,143.5
5273,G4,563.5,0.25,56,143.5
5274,G5,563.5,0.25,56,143.5
5275,C4,563.958,0.125,45,143.5
5276,E-4,563.958,0.125,45,143.5
5277,G6,564.0,0.25,60,143.5
5278,G5,564.0,0.25,60,143.5
5279,C#4,564.208,0.25,46,143.5
5280,E4,564.208,0.25,46,143.5
5281,G7,564.5,0.25,74,143.5
5282,G6,564.5,0.25,74,143.5
5283,C#4,564.708,0.25,58,143.5
5284,E4,564.708,0.25,58,143.5
5285,G5,565.0,0.25,60,143.5
5286,G6,565.0,0.25,60,143.5
5287,F4,565.458,0.125,46,143.5
5288,D4,565.458,0.125,46,143.5
5289,G4,565.5,0.25,60,143.5
5290,G5,565.5,0.25,60,143.5
5291,B3,565.708,0.25,48,143.5
5292,D4,565.708,0.25,48,143.5
5293,B-5,566.0,0.25,72,143.5
5294,B-6,566.0,0.25,72,143.5
5295,G2,566.208,0.25,56,143.5
5296,G3,566.208,0.25,56,143.5
5297,B-4,566.5,0.25,58,143.5
5298,B-5,566.5,0.25,58,143.5
5299,E-4,566.958,0.125,46,143.5
5300,C4,566.958,0.125,46,143.5
5301,G4,566.958,0.125,46,143.5
5302,B-6,567.0,0.25,62,143.5
5303,B-5,567.0,0.25,62,143.5
5304,E4,567.208,0.25,47,143.5
5305,C#4,567.208,0.25,47,143.5
5306,G4,567.208,0.25,47,143.5
5307,B-7,567.5,0.25,76,143.5
5308,B-6,567.5,0.25,76,143.5
5309,C#4,567.708,0.25,58,143.5
5310,E4,567.708,0.25,58,143.5
5311,G4,567.708,0.25,58,143.5
5312,B-5,568.0,0.25,62,143.5
5313,B-6,568.0,0.25,62,143.5
5314,D4,568.458,0.125,47,143.5
5315,G4,568.458,0.125,47,143.5
5316,F4,568.458,0.125,47,143.5
5317,B-4,568.5,0.25,62,143.5
5318,B-5,568.5,0.25,62,143.5
5319,G3,568.708,0.25,49,143.5
5320,D4,568.708,0.25,49,143.5
5321,G4,568.708,0.25,49,143.5
5322,B5,569.0,0.25,74,143.5
5323,B6,569.0,0.25,74,143.5
5324,G2,569.208,0.25,58,143.5
5325,G3,569.208,0.25,58,143.5
5326,B4,569.5,0.25,60,143.5
5327,B5,569.5,0.25,60,143.5
5328,E4,569.958,0.125,48,143.5
5329,C#4,569.958,0.125,48,143.5
5330,G4,569.958,0.125,48,143.5
5331,B6,570.0,0.25,65,143.5
5332,B5,570.0,0.25,65,143.5
5333,F4,570.208,0.25,48,143.5
5334,D4,570.208,0.25,48,143.5
5335,G4,570.208,0.25,48,143.5
5336,B7,570.5,0.25,80,143.5
5337,B6,570.5,0.25,80,143.5
5338,D4,570.708,0.25,61,143.5
5339,F4,570.708,0.25,61,143.5
5340,G4,570.708,0.25,61,143.5
5341,B5,571.0,0.25,65,143.5
5342,B6,571.0,0.25,65,143.5
5343,G#3,571.458,0.125,47,143.5
5344,D4,571.458,0.125,47,143.5
5345,G#4,571.458,0.125,47,143.5
5346,F4,571.458,0.125,47,143.5
5347,B4,571.5,0.25,66,143.5
5348,B5,571.5,0.25,66,143.5
5349,F4,571.708,0.25,50,143.5
5350,G3,571.708,0.25,50,143.5
5351,D4,571.708,0.25,50,143.5
5352,G4,571.708,0.25,50,143.5
5353,E5,572.0,0.75,60,143.5
5354,E6,572.0,0.75,60,143.5
5355,C3,572.208,0.25,33,143.5
5356,C2,572.208,0.25,33,143.5
5357,G5,572.25,0.25,41,143.5
5358,C6,572.5,0.25,41,143.5
5359,E3,572.708,0.25,24,143.5
5360,G3,572.708,0.25,24,143.5
5361,D4,572.708,0.25,24,143.5
5362,D5,572.75,0.75,54,143.5
5363,D6,572.75,0.75,54,143.5
5364,E5,573.0,0.25,37,143.5
5365,C3,573.208,0.25,33,143.5
5366,G5,573.25,0.25,37,143.5
5367,C5,573.5,0.75,53,143.5
5368,C6,573.5,0.75,53,143.5
5369,E3,573.708,0.25,34,143.5
5370,G3,573.708,0.25,34,143.5
5371,C4,573.708,0.25,34,143.5
5372,E5,573.75,0.25,36,143.5
5373,G5,574.0,0.25,37,143.5
5374,C3,574.208,0.25,33,143.5
5375,B4,574.25,0.75,54,143.5
5376,B5,574.25,0.75,54,143.5
5377,E5,574.5,0.25,37,143.5
5378,E3,574.708,0.25,30,143.5
5379,G3,574.708,0.25,30,143.5
5380,B3,574.708,0.25,30,143.5
5381,G5,574.75,0.25,37,143.5
5382,A4,575.0,0.75,54,143.5
5383,A5,575.0,0.75,54,143.5
5384,C2,575.208,0.25,33,143.5
5385,C5,575.25,0.25,41,143.5
5386,E5,575.5,0.25,41,143.5
5387,E3,575.708,0.25,24,143.5
5388,F#3,575.708,0.25,24,143.5
5389,A3,575.708,0.25,24,143.5
5390,F#4,575.75,0.75,52,143.5
5391,F#5,575.75,0.75,52,143.5
5392,C5,576.0,0.25,36,143.5
5393,C3,576.208,0.25,33,143.5
5394,E5,576.25,0.25,36,143.5
5395,G4,576.5,0.75,56,143.5
5396,G5,576.5,0.75,56,143.5
5397,E3,576.708,0.25,36,143.5
5398,G3,576.708,0.25,36,143.5
5399,C5,576.75,0.25,39,143.5
5400,E5,577.0,0.25,39,143.5
5401,C3,577.208,0.25,33,143.5
5402,E5,577.25,0.75,58,143.5
5403,E6,577.25,0.75,58,143.5
5404,G5,577.5,0.25,36,143.5
5405,G3,577.708,0.25,30,143.5
5406,C4,577.708,0.25,30,143.5
5407,E4,577.708,0.25,30,143.5
5408,C6,577.75,0.25,36,143.5
5409,E5,578.0,0.75,60,143.5
5410,E6,578.0,0.75,60,143.5
5411,C3,578.208,0.25,33,143.5
5412,C2,578.208,0.25,33,143.5
5413,F#5,578.25,0.25,41,143.5
5414,A5,578.5,0.25,41,143.5
5415,F#3,578.708,0.25,24,143.5
5416,A3,578.708,0.25,24,143.5
5417,E4,578.708,0.25,24,143.5
5418,C#5,578.75,0.75,64,143.5
5419,C#6,578.75,0.75,64,143.5
5420,F#5,579.0,0.25,37,143.5
5421,C3,579.208,0.25,33,143.5
5422,A5,579.25,0.25,37,143.5
5423,D5,579.5,0.75,58,143.5
5424,D6,579.5,0.75,58,143.5
5425,F#3,579.708,0.25,34,143.5
5426,A3,579.708,0.25,34,143.5
5427,D4,579.708,0.25,34,143.5
5428,F#5,579.75,0.25,36,143.5
5429,A5,580.0,0.25,37,143.5
5430,C3,580.208,0.25,33,143.5
5431,E5,580.25,0.75,62,143.5
5432,E6,580.25,0.75,62,143.5
5433,F#5,580.5,0.25,37,143.5
5434,F#3,580.708,0.25,30,143.5
5435,A3,580.708,0.25,30,143.5
5436,E4,580.708,0.25,30,143.5
5437,A5,580.75,0.25,37,143.5
5438,F5,581.0,0.75,64,143.5
5439,F6,581.0,0.75,64,143.5
5440,C3,581.208,0.25,41,143.5
5441,B5,581.25,0.25,44,143.5
5442,D6,581.5,0.25,45,143.5
5443,G3,581.708,0.25,30,143.5
5444,B3,581.708,0.25,30,143.5
5445,F4,581.708,0.25,30,143.5
5446,F#5,581.75,0.75,61,143.5
5447,F#6,581.75,0.75,61,143.5
5448,B5,582.0,0.25,45,143.5
5449,C3,582.208,0.25,43,143.5
5450,D6,582.25,0.25,45,143.5
5451,A5,582.5,0.75,66,143.5
5452,A6,582.5,0.75,66,143.5
5453,B3,582.708,0.25,30,143.5
5454,F4,582.708,0.25,30,143.5
5455,A4,582.708,0.25,30,143.5
5456,B5,582.75,0.25,48,143.5
5457,D6,583.0,0.25,49,143.5
5458,C3,583.208,0.25,45,143.5
5459,G5,583.25,0.75,62,143.5
5460,G6,583.25,0.75,62,143.5
5461,B5,583.5,0.25,47,143.5
5462,B3,583.708,0.25,35,143.5
5463,F4,583.708,0.25,35,143.5
5464,G4,583.708,0.25,35,143.5
5465,D6,583.75,0.25,46,143.5
5466,E5,584.0,0.25,60,143.5
5467,E6,584.0,0.25,60,143.5
5468,C3,584.208,0.25,33,143.5
5469,C2,584.208,0.25,33,143.5
5470,G5,584.25,0.25,41,143.5
5471,C6,584.5,0.25,41,143.5
5472,E3,584.708,0.5,24,143.5
5473,G3,584.708,0.5,24,143.5
5474,D4,584.708,0.5,24,143.5
5475,D5,584.75,0.25,54,143.5
5476,D6,584.75,0.25,54,143.5
5477,E5,585.0,0.25,37,143.5
5478,C3,585.208,0.5,33,143.5
5479,G5,585.25,0.25,37,143.5
5480,C5,585.5,0.25,53,143.5
5481,C6,585.5,0.25,53,143.5
5482,E3,585.708,0.5,34,143.5
5483,G3,585.708,0.5,34,143.5
5484,C4,585.708,0.5,34,143.5
5485,E5,585.75,0.25,36,143.5
5486,G5,586.0,0.25,37,143.5
5487,C3,586.208,0.5,33,143.5
5488,B4,586.25,0.25,54,143.5
5489,B5,586.25,0.25,54,143.5
5490,E5,586.5,0.25,37,143.5
5491,E3,586.708,0.5,30,143.5
5492,G3,586.708,0.5,30,143.5
5493,B3,586.708,0.5,30,143.5
5494,G5,586.75,0.25,37,143.5
5495,A4,587.0,0.25,54,143.5
5496,A5,587.0,0.25,54,143.5
5497,C3,587.208,0.5,33,143.5
5498,C5,587.25,0.25,41,143.5
5499,E5,587.5,0.25,41,143.5
5500,E3,587.708,0.5,24,143.5
5501,F#3,587.708,0.5,24,143.5
5502,A3,587.708,0.5,24,143.5
5503,F#4,587.75,0.25,52,143.5
5504,F#5,587.75,0.25,52,143.5
5505,C5,588.0,0.25,36,143.5
5506,C3,588.208,0.5,33,143.5
5507,E5,588.25,0.25,36,143.5
5508,G4,588.5,0.25,56,143.5
5509,G5,588.5,0.25,56,143.5
5510,E3,588.708,0.5,36,143.5
5511,G3,588.708,0.5,36,143.5
5512,C5,588.75,0.25,39,143.5
5513,E5,589.0,0.25,39,143.5
5514,C3,589.208,0.5,33,143.5
5515,E5,589.25,0.25,58,143.5
5516,E6,589.25,0.25,58,143.5
5517,G5,589.5,0.25,36,143.5
5518,G3,589.708,0.5,30,143.5
5519,C4,589.708,0.5,30,143.5
5520,E4,589.708,0.5,30,143.5
5521,C6,589.75,0.25,36,143.5
5522,E5,590.0,0.25,55,143.5
5523,E6,590.0,0.25,55,143.5
5524,B1,590.208,0.5,41,143.5
5525,F#5,590.25,0.25,43,143.5
5526,A5,590.5,0.25,43,143.5
5527,F#3,590.708,0.5,30,143.5
5528,A3,590.708,0.5,30,143.5
5529,E-4,590.708,0.5,30,143.5
5530,E-5,590.75,0.25,58,143.5
5531,E-6,590.75,0.25,58,143.5
5532,F#5,591.0,0.25,48,143.5
5533,B2,591.208,0.5,48,143.5
5534,A5,591.25,0.25,49,143.5
5535,G5,591.5,0.25,64,143.5
5536,G6,591.5,0.25,64,143.5
5537,A3,591.708,0.5,38,143.5
5538,E-4,591.708,0.5,38,143.5
5539,G4,591.708,0.5,38,143.5
5540,A5,591.75,0.25,49,143.5
5541,E-6,592.0,0.25,51,143.5
5542,B2,592.208,0.5,54,143.5
5543,F#5,592.25,0.25,70,143.5
5544,F#6,592.25,0.25,70,143.5
5545,A5,592.5,0.25,52,143.5
5546,A3,592.708,0.5,44,143.5
5547,E-4,592.708,0.5,44,143.5
5548,F#4,592.708,0.5,44,143.5
5549,E-6,592.75,0.25,54,143.5
5550,A5,593.0,0.25,75,143.5
5551,A6,593.0,0.25,75,143.5
5552,E2,593.208,0.5,57,143.5
5553,E3,593.208,0.5,57,143.5
5554,B5,593.25,0.25,58,143.5
5555,E6,593.5,0.25,59,143.5
5556,B3,593.708,0.5,40,143.5
5557,E4,593.708,0.5,40,143.5
5558,A4,593.708,0.5,40,143.5
5559,G5,593.75,0.25,76,143.5
5560,G6,593.75,0.25,76,143.5
5561,B5,594.0,0.25,60,143.5
5562,B3,594.208,0.5,48,143.5
5563,E4,594.208,0.5,48,143.5
5564,G4,594.208,0.5,48,143.5
5565,E6,594.25,0.25,63,143.5
5566,B5,594.5,0.25,87,143.5
5567,B6,594.5,0.25,87,143.5
5568,G2,594.708,0.5,44,143.5
5569,G3,594.708,0.5,44,143.5
5570,D6,594.75,0.25,63,143.5
5571,F6,595.0,0.25,64,143.5
5572,B3,595.208,0.5,42,143.5
5573,D4,595.208,0.5,42,143.5
5574,F4,595.208,0.5,42,143.5
5575,A4,595.208,0.5,42,143.5
5576,A5,595.25,0.25,80,143.5
5577,A6,595.25,0.25,80,143.5
5578,D6,595.5,0.25,54,143.5
5579,F6,595.5,0.25,54,143.5
5580,D4,595.708,0.5,38,143.5
5581,B3,595.708,0.5,38,143.5
5582,F4,595.708,0.5,38,143.5
5583,G4,595.708,0.5,38,143.5
5584,G5,595.75,0.25,59,143.5
5585,G6,595.75,0.25,59,143.5
5586,G6,596.0,0.75,84,143.5
5587,E6,596.0,0.75,84,143.5
5588,E7,596.0,0.75,84,143.5
5589,C3,596.208,0.75,49,143.5
5590,C2,596.208,0.75,49,143.5
5591,E4,596.583,0.75,37,143.5
5592,G4,596.583,0.75,37,143.5
5593,E5,596.583,0.75,37,143.5
5594,G6,596.75,0.75,74,143.5
5595,E6,596.75,0.75,74,143.5
5596,D6,596.75,0.75,74,143.5
5597,D7,596.75,0.75,74,143.5
5598,D4,597.333,0.75,50,143.5
5599,E4,597.333,0.75,50,143.5
5600,G4,597.333,0.75,50,143.5
5601,D5,597.333,0.75,50,143.5
5602,G6,597.5,0.75,72,143.5
5603,E6,597.5,0.75,72,143.5
5604,C6,597.5,0.75,72,143.5
5605,C7,597.5,0.75,72,143.5
5606,C4,598.083,0.75,44,143.5
5607,E4,598.083,0.75,44,143.5
5608,G4,598.083,0.75,44,143.5
5609,C5,598.083,0.75,44,143.5
5610,G6,598.25,0.75,74,143.5
5611,E6,598.25,0.75,74,143.5
5612,B5,598.25,0.75,74,143.5
5613,B6,598.25,0.75,74,143.5
5614,B3,598.833,0.375,44,143.5
5615,E4,598.833,0.375,44,143.5
5616,G4,598.833,0.375,44,143.5
5617,B4,598.833,0.375,44,143.5
5618,E6,599.0,0.75,74,143.5
5619,C6,599.0,0.75,74,143.5
5620,A5,599.0,0.75,74,143.5
5621,A6,599.0,0.75,74,143.5
5622,A3,599.583,0.75,38,143.5
5623,C4,599.583,0.75,38,143.5
5624,E4,599.583,0.75,38,143.5
5625,A4,599.583,0.75,38,143.5
5626,E6,599.75,0.75,72,143.5
5627,C6,599.75,0.75,72,143.5
5628,F#5,599.75,0.75,72,143.5
5629,F#6,599.75,0.75,72,143.5
5630,F#3,600.333,0.75,45,143.5
5631,C4,600.333,0.75,45,143.5
5632,E4,600.333,0.75,45,143.5
5633,F#4,600.333,0.75,45,143.5
5634,E6,600.5,0.75,76,143.5
5635,C6,600.5,0.75,76,143.5
5636,G5,600.5,0.75,76,143.5
5637,G6,600.5,0.75,76,143.5
5638,G3,601.083,0.375,45,143.5
5639,C4,601.083,0.375,45,143.5
5640,E4,601.083,0.375,45,143.5
5641,G4,601.083,0.375,45,143.5
5642,C7,601.25,0.75,80,143.5
5643,G6,601.25,0.75,80,143.5
5644,E6,601.25,0.75,80,143.5
5645,E7,601.25,0.75,80,143.5
5646,C2,601.833,0.375,49,143.5
5647,A6,602.0,0.75,80,143.5
5648,F#6,602.0,0.75,80,143.5
5649,E6,602.0,0.75,80,143.5
5650,E7,602.0,0.75,80,143.5
5651,C3,602.208,0.75,49,143.5
5652,C2,602.208,0.75,49,143.5
5653,A4,602.583,0.75,36,143.5
5654,E4,602.583,0.75,36,143.5
5655,F#4,602.583,0.75,36,143.5
5656,E5,602.583,0.75,36,143.5
5657,A6,602.75,0.75,75,143.5
5658,F#6,602.75,0.75,75,143.5
5659,C#6,602.75,0.75,75,143.5
5660,C#7,602.75,0.75,75,143.5
5661,A4,603.333,0.75,50,143.5
5662,C#4,603.333,0.75,50,143.5
5663,F#4,603.333,0.75,50,143.5
5664,C#5,603.333,0.75,50,143.5
5665,A6,603.5,0.75,83,143.5
5666,F#6,603.5,0.75,83,143.5
5667,D6,603.5,0.75,83,143.5
5668,D7,603.5,0.75,83,143.5
5669,A4,604.083,0.75,44,143.5
5670,D4,604.083,0.75,44,143.5
5671,F#4,604.083,0.75,44,143.5
5672,D5,604.083,0.75,44,143.5
5673,A6,604.25,0.75,87,143.5
5674,F#6,604.25,0.75,87,143.5
5675,E6,604.25,0.75,87,143.5
5676,E7,604.25,0.75,87,143.5
5677,A4,604.833,0.375,44,143.5
5678,E4,604.833,0.375,44,143.5
5679,F#4,604.833,0.375,44,143.5
5680,E5,604.833,0.375,44,143.5
5681,B6,605.0,0.75,88,143.5
5682,G#6,605.0,0.75,88,143.5
5683,F6,605.0,0.75,88,143.5
5684,F7,605.0,0.75,88,143.5
5685,F4,605.583,0.75,38,143.5
5686,G#4,605.583,0.75,38,143.5
5687,B4,605.583,0.75,38,143.5
5688,F5,605.583,0.75,38,143.5
5689,G#6,605.75,0.75,89,143.5
5690,F6,605.75,0.75,89,143.5
5691,D6,605.75,0.75,89,143.5
5692,D7,605.75,0.75,89,143.5
5693,D4,606.333,0.75,45,143.5
5694,F4,606.333,0.75,45,143.5
5695,G#4,606.333,0.75,45,143.5
5696,D5,606.333,0.75,45,143.5
5697,D6,606.5,0.75,82,143.5
5698,B5,606.5,0.75,82,143.5
5699,G#5,606.5,0.75,82,143.5
5700,G#6,606.5,0.75,82,143.5
5701,B3,607.083,0.375,40,143.5
5702,D4,607.083,0.375,40,143.5
5703,F4,607.083,0.375,40,143.5
5704,B4,607.083,0.375,40,143.5
5705,D6,607.25,0.75,70,143.5
5706,B5,607.25,0.75,70,143.5
5707,G5,607.25,0.75,70,143.5
5708,G6,607.25,0.75,70,143.5
5709,C2,607.833,0.375,36,143.5
5710,G5,608.0,0.75,63,143.5
5711,E5,608.0,0.75,63,143.5
5712,E6,608.0,0.75,63,143.5
5713,C3,608.208,0.75,36,143.5
5714,C2,608.208,0.75,36,143.5
5715,E3,608.583,0.75,28,143.5
5716,G3,608.583,0.75,28,143.5
5717,E4,608.583,0.75,28,143.5
5718,G5,608.75,0.75,55,143.5
5719,E5,608.75,0.75,55,143.5
5720,D5,608.75,0.75,55,143.5
5721,D6,608.75,0.75,55,143.5
5722,E3,609.333,0.75,38,143.5
5723,G3,609.333,0.75,38,143.5
5724,D4,609.333,0.75,38,143.5
5725,G5,609.5,0.75,54,143.5
5726,E5,609.5,0.75,54,143.5
5727,C5,609.5,0.75,54,143.5
5728,C6,609.5,0.75,54,143.5
5729,E3,610.083,0.75,33,143.5
5730,G3,610.083,0.75,33,143.5
5731,C4,610.083,0.75,33,143.5
5732,G5,610.25,0.75,55,143.5
5733,E5,610.25,0.75,55,143.5
5734,B4,610.25,0.75,55,143.5
5735,B5,610.25,0.75,55,143.5
5736,E3,610.833,0.375,33,143.5
5737,G3,610.833,0.375,33,143.5
5738,B3,610.833,0.375,33,143.5
5739,E5,611.0,0.75,54,143.5
5740,C5,611.0,0.75,54,143.5
5741,A4,611.0,0.75,54,143.5
5742,A5,611.0,0.75,54,143.5
5743,C3,611.583,0.75,29,143.5
5744,E3,611.583,0.75,29,143.5
5745,A3,611.583,0.75,29,143.5
5746,E5,611.75,0.75,54,143.5
5747,C5,611.75,0.75,54,143.5
5748,F#4,611.75,0.75,54,143.5
5749,F#5,611.75,0.75,54,143.5
5750,C3,612.333,0.75,34,143.5
5751,E3,612.333,0.75,34,143.5
5752,F#3,612.333,0.75,34,143.5
5753,E5,612.5,0.75,56,143.5
5754,C5,612.5,0.75,56,143.5
5755,G4,612.5,0.75,56,143.5
5756,G5,612.5,0.75,56,143.5
5757,C3,613.083,0.375,34,143.5
5758,E3,613.083,0.375,34,143.5
5759,G3,613.083,0.375,34,143.5
5760,C6,613.25,0.375,60,143.5
5761,G5,613.25,0.375,60,143.5
5762,E5,613.25,0.375,60,143.5
5763,E6,613.25,0.375,60,143.5
5764,C2,613.833,0.375,36,143.5
5765,G#5,614.0,0.75,68,143.5
5766,F5,614.0,0.75,68,143.5
5767,F6,614.0,0.75,68,143.5
5768,C3,614.208,0.75,39,143.5
5769,C2,614.208,0.75,36,143.5
5770,F3,614.583,0.75,30,143.5
5771,G#3,614.583,0.75,30,143.5
5772,F4,614.583,0.75,30,143.5
5773,G#5,614.75,0.75,61,143.5
5774,E-5,614.75,0.75,61,143.5
5775,E-6,614.75,0.75,61,143.5
5776,F3,615.333,0.75,42,143.5
5777,G#3,615.333,0.75,42,143.5
5778,E-4,615.333,0.75,42,143.5
5779,G#5,615.5,0.75,60,143.5
5780,C#5,615.5,0.75,60,143.5
5781,C#6,615.5,0.75,60,143.5
5782,F3,616.083,0.75,36,143.5
5783,G#3,616.083,0.75,36,143.5
5784,C#4,616.083,0.75,36,143.5
5785,G#5,616.25,0.75,61,143.5
5786,C5,616.25,0.75,61,143.5
5787,C6,616.25,0.75,61,143.5
5788,F3,616.833,0.375,36,143.5
5789,G#3,616.833,0.375,36,143.5
5790,C4,616.833,0.375,36,143.5
5791,F5,617.0,0.75,60,143.5
5792,C#5,617.0,0.75,60,143.5
5793,B-4,617.0,0.75,60,143.5
5794,B-5,617.0,0.75,60,143.5
5795,C3,617.583,0.75,31,143.5
5796,F3,617.583,0.75,31,143.5
5797,B-3,617.583,0.75,31,143.5
5798,F5,617.75,0.75,59,143.5
5799,C#5,617.75,0.75,59,143.5
5800,G4,617.75,0.75,59,143.5
5801,G5,617.75,0.75,59,143.5
5802,C3,618.333,0.75,37,143.5
5803,F3,618.333,0.75,37,143.5
5804,G3,618.333,0.75,37,143.5
5805,F5,618.5,0.75,62,143.5
5806,C#5,618.5,0.75,62,143.5
5807,G#4,618.5,0.75,62,143.5
5808,G#5,618.5,0.75,62,143.5
5809,C3,619.083,0.375,37,143.5
5810,F3,619.083,0.375,37,143.5
5811,G#3,619.083,0.375,37,143.5
5812,C#6,619.25,0.375,66,143.5
5813,G#5,619.25,0.375,66,143.5
5814,F5,619.25,0.375,66,143.5
5815,F6,619.25,0.375,66,143.5
5816,C2,619.833,0.375,36,143.5
5817,A5,620.0,0.75,72,143.5
5818,F#5,620.0,0.75,72,143.5
5819,F#6,620.0,0.75,72,143.5
5820,C3,620.208,0.75,47,143.5
5821,C2,620.208,0.75,36,143.5
5822,F#3,620.583,0.75,47,143.5
5823,A3,620.583,0.75,47,143.5
5824,F#4,620.583,0.75,47,143.5
5825,A5,620.75,0.75,68,143.5
5826,E5,620.75,0.75,68,143.5
5827,E6,620.75,0.75,68,143.5
5828,F#3,621.333,0.75,43,143.5
5829,A3,621.333,0.75,43,143.5
5830,E4,621.333,0.75,43,143.5
5831,F#5,621.5,0.75,66,143.5
5832,A5,621.5,0.75,66,143.5
5833,D5,621.5,0.75,66,143.5
5834,D6,621.5,0.75,66,143.5
5835,F#3,622.083,0.75,40,143.5
5836,A3,622.083,0.75,40,143.5
5837,D4,622.083,0.75,40,143.5
5838,D5,622.25,0.75,64,143.5
5839,F#5,622.25,0.75,64,143.5
5840,A4,622.25,0.75,64,143.5
5841,A5,622.25,0.75,64,143.5
5842,C2,622.833,0.375,40,143.5
5843,B-5,623.0,0.75,78,143.5
5844,G5,623.0,0.75,78,143.5
5845,G6,623.0,0.75,78,143.5
5846,C3,623.208,0.75,48,143.5
5847,C2,623.208,0.75,40,143.5
5848,G3,623.583,0.75,50,143.5
5849,B-3,623.583,0.75,50,143.5
5850,G4,623.583,0.75,50,143.5
5851,B-5,623.75,0.75,72,143.5
5852,F5,623.75,0.75,72,143.5
5853,F6,623.75,0.75,72,143.5
5854,G3,624.333,0.75,46,143.5
5855,B-3,624.333,0.75,46,143.5
5856,F4,624.333,0.75,46,143.5
5857,B-5,624.5,0.75,70,143.5
5858,E5,624.5,0.75,70,143.5
5859,E6,624.5,0.75,70,143.5
5860,G3,625.083,0.75,41,143.5
5861,B-3,625.083,0.75,41,143.5
5862,E4,625.083,0.75,41,143.5
5863,E5,625.25,0.75,68,143.5
5864,B-4,625.25,0.75,68,143.5
5865,B-5,625.25,0.75,68,143.5
5866,C2,625.833,0.375,43,143.5
5867,D6,626.0,0.75,81,143.5
5868,B5,626.0,0.75,81,143.5
5869,G#5,626.0,0.75,81,143.5
5870,G#6,626.0,0.75,81,143.5
5871,C3,626.208,0.75,54,143.5
5872,C2,626.208,0.75,43,143.5
5873,B3,626.583,0.75,52,143.5
5874,D4,626.583,0.75,52,143.5
5875,G#4,626.583,0.75,52,143.5
5876,D6,626.75,0.75,76,143.5
5877,B5,626.75,0.75,76,143.5
5878,G5,626.75,0.75,76,143.5
5879,G6,626.75,0.75,76,143.5
5880,B3,627.333,0.75,49,143.5
5881,D4,627.333,0.75,49,143.5
5882,G4,627.333,0.75,49,143.5
5883,G#5,627.5,0.75,72,143.5
5884,B5,627.5,0.75,72,143.5
5885,F5,627.5,0.75,72,143.5
5886,F6,627.5,0.75,72,143.5
5887,G#3,628.083,0.75,45,143.5
5888,B3,628.083,0.75,45,143.5
5889,F4,628.083,0.75,45,143.5
5890,F5,628.25,0.75,70,143.5
5891,G#5,628.25,0.75,70,143.5
5892,D5,628.25,0.75,70,143.5
5893,D6,628.25,0.75,70,143.5
5894,F3,628.833,0.375,41,143.5
5895,G#3,628.833,0.375,41,143.5
5896,D4,628.833,0.375,41,143.5
5897,F5,629.0,0.75,70,143.5
5898,D5,629.0,0.75,70,143.5
5899,B4,629.0,0.75,70,143.5
5900,B5,629.0,0.75,70,143.5
5901,D3,629.583,0.75,54,143.5
5902,F3,629.583,0.75,54,143.5
5903,B3,629.583,0.75,54,143.5
5904,D5,629.75,0.75,66,143.5
5905,B4,629.75,0.75,66,143.5
5906,G#4,629.75,0.75,66,143.5
5907,G#5,629.75,0.75,66,143.5
5908,B2,630.333,0.75,50,143.5
5909,D3,630.333,0.75,50,143.5
5910,G#3,630.333,0.75,50,143.5
5911,B4,630.5,0.75,66,143.5
5912,D5,630.5,0.75,66,143.5
5913,G4,630.5,0.75,66,143.5
5914,G5,630.5,0.75,66,143.5
5915,B2,631.083,0.75,48,143.5
5916,D3,631.083,0.75,48,143.5
5917,G3,631.083,0.75,48,143.5
5918,G#4,631.25,0.75,67,143.5
5919,B4,631.25,0.75,67,143.5
5920,F4,631.25,0.75,67,143.5
5921,F5,631.25,0.75,67,143.5
5922,G#2,631.833,0.375,44,143.5
5923,B2,631.833,0.375,44,143.5
5924,F3,631.833,0.375,44,143.5
5925,G#4,632.0,0.75,71,143.5
5926,F4,632.0,0.75,71,143.5
5927,D4,632.0,0.75,71,143.5
5928,D5,632.0,0.75,71,143.5
5929,F2,632.583,0.75,55,143.5
5930,G#2,632.583,0.75,55,143.5
5931,D3,632.583,0.75,55,143.5
5932,F4,632.75,0.75,66,143.5
5933,D4,632.75,0.75,66,143.5
5934,B3,632.75,0.75,66,143.5
5935,B4,632.75,0.75,66,143.5
5936,D2,633.333,0.75,52,143.5
5937,F2,633.333,0.75,52,143.5
5938,B2,633.333,0.75,52,143.5
5939,B3,633.5,0.75,68,143.5
5940,D4,633.5,0.75,68,143.5
5941,G#3,633.5,0.75,68,143.5
5942,G#4,633.5,0.75,68,143.5
5943,B1,634.083,0.75,51,143.5
5944,D2,634.083,0.75,51,143.5
5945,G#2,634.083,0.75,51,143.5
5946,B3,634.25,0.75,71,143.5
5947,D4,634.25,0.75,71,143.5
5948,G3,634.25,0.75,71,143.5
5949,G4,634.25,0.75,71,143.5
5950,B1,634.833,0.375,49,143.5
5951,D2,634.833,0.375,49,143.5
5952,G2,634.833,0.375,49,143.5
5953,D4,635.0,0.75,77,143.5
5954,B3,635.0,0.75,77,143.5
5955,F3,635.0,0.75,77,143.5
5956,F4,635.0,0.75,77,143.5
5957,B1,635.583,0.75,60,143.5
5958,D2,635.583,0.75,60,143.5
5959,F2,635.583,0.75,60,143.5
5960,D4,635.75,0.75,77,143.5
5961,B3,635.75,0.75,77,143.5
5962,G#3,635.75,0.75,77,143.5
5963,G#4,635.75,0.75,77,143.5
5964,D2,636.333,0.75,60,143.5
5965,G#1,636.333,0.75,60,143.5
5966,B1,636.333,0.75,60,143.5
5967,G#2,636.333,0.75,60,143.5
5968,B3,636.5,0.75,80,143.5
5969,D4,636.5,0.75,80,143.5
5970,G3,636.5,0.75,80,143.5
5971,G4,636.5,0.75,80,143.5
5972,D2,637.083,0.75,59,143.5
5973,G1,637.083,0.75,59,143.5
5974,B1,637.083,0.75,59,143.5
5975,G2,637.083,0.75,59,143.5
5976,G#3,637.25,0.75,83,143.5
5977,D4,637.25,0.75,83,143.5
5978,F3,637.25,0.75,83,143.5
5979,F4,637.25,0.75,83,143.5
5980,D2,637.833,0.375,58,143.5
5981,F1,637.833,0.375,58,143.5
5982,B1,637.833,0.375,58,143.5
5983,F2,637.833,0.375,58,143.5
5984,C3,638.0,1.5,70,143.5
5985,C4,638.0,0.25,82,143.5
5986,E1,638.208,1.5,58,143.5
5987,G1,638.208,1.5,58,143.5
5988,C1,638.208,1.5,58,143.5
5989,C2,638.208,1.5,58,143.5
5990,G3,638.25,0.25,66,143.5
5991,E3,638.25,0.25,66,143.5
5992,C4,638.5,0.188,72,143.5
5993,C4,638.75,0.25,73,143.5
5994,G4,639.0,0.25,69,143.5
5995,E4,639.0,0.25,69,143.5
5996,C5,639.25,0.188,77,143.5
5997,C5,639.5,0.25,78,143.5
5998,C4,639.708,0.25,60,143.5
5999,E3,639.708,0.25,60,143.5
6000,G3,639.708,0.25,60,143.5
6001,G5,639.75,0.25,74,143.5
6002,E5,639.75,0.25,74,143.5
6003,C6,640.0,0.188,81,143.5
6004,C6,640.25,167/1000,82,143.5
6005,E6,640.417,73/250,90,143.5
6006,G6,640.417,73/250,90,143.5
6007,C3,640.458,0.125,52,143.5
6008,G3,640.458,0.125,52,143.5
6009,E3,640.458,0.125,52,143.5
6010,C7,640.5,0.25,95,143.5
6011,C3,640.708,0.25,59,143.5
6012,E3,640.708,0.25,59,143.5
6013,G3,640.708,0.25,59,143.5
6014,C#3,641.0,1.5,70,143.5
6015,C#4,641.0,0.25,82,143.5
6016,B-1,641.208,1.5,58,143.5
6017,C#2,641.208,1.5,58,143.5
6018,G1,641.208,1.5,58,143.5
6019,G2,641.208,1.5,58,143.5
6020,F3,641.25,0.25,71,143.5
6021,B-3,641.5,0.188,70,143.5
6022,C#4,641.5,0.188,70,143.5
6023,C#4,641.75,0.25,73,143.5
6024,F4,642.0,0.25,75,143.5
6025,B-4,642.25,0.188,74,143.5
6026,C#5,642.25,0.188,74,143.5
6027,C#5,642.5,0.25,78,143.5
6028,C#4,642.708,0.25,60,143.5
6029,F3,642.708,0.25,60,143.5
6030,B-3,642.708,0.25,60,143.5
6031,F5,642.75,0.25,80,143.5
6032,B-5,643.0,0.188,79,143.5
6033,C#6,643.0,0.188,79,143.5
6034,C#6,643.25,167/1000,82,143.5
6035,F6,643.417,73/250,90,143.5
6036,B-6,643.417,73/250,90,143.5
6037,C#3,643.458,0.125,52,143.5
6038,B-3,643.458,0.125,52,143.5
6039,F3,643.458,0.125,52,143.5
6040,C#7,643.5,0.25,95,143.5
6041,C#3,643.708,0.25,59,143.5
6042,F3,643.708,0.25,59,143.5
6043,B-3,643.708,0.25,59,143.5
6044,C3,644.0,1.5,70,143.5
6045,C4,644.0,0.25,82,143.5
6046,E1,644.208,1.5,58,143.5
6047,G1,644.208,1.5,58,143.5
6048,C1,644.208,1.5,58,143.5
6049,C2,644.208,1.5,58,143.5
6050,G3,644.229,0.25,66,143.5
6051,E3,644.229,0.25,66,143.5
6052,C4,644.5,0.188,72,143.5
6053,C4,644.75,0.25,73,143.5
6054,G4,645.0,0.25,69,143.5
6055,E4,645.0,0.25,69,143.5
6056,C5,645.25,0.188,77,143.5
6057,C5,645.5,0.25,78,143.5
6058,C4,645.708,0.25,60,143.5
6059,E3,645.708,0.25,60,143.5
6060,G3,645.708,0.25,60,143.5
6061,G5,645.75,0.25,74,143.5
6062,E5,645.75,0.25,74,143.5
6063,C6,646.0,0.188,81,143.5
6064,C6,646.25,167/1000,82,143.5
6065,E6,646.417,73/250,90,143.5
6066,G6,646.417,73/250,90,143.5
6067,C3,646.458,0.125,52,143.5
6068,G3,646.458,0.125,52,143.5
6069,E3,646.458,0.125,52,143.5
6070,C7,646.5,0.25,95,143.5
6071,C3,646.708,0.25,59,143.5
6072,E3,646.708,0.25,59,143.5
6073,G3,646.708,0.25,59,143.5
6074,F3,647.0,1.5,70,143.5
6075,F4,647.0,0.25,82,143.5
6076,G#1,647.208,1.5,57,143.5
6077,B1,647.208,1.5,57,143.5
6078,D2,647.208,1.5,57,143.5
6079,F1,647.208,1.5,57,143.5
6080,F2,647.208,1.5,57,143.5
6081,G#3,647.25,0.25,68,143.5
6082,B3,647.25,0.25,68,143.5
6083,F4,647.5,0.188,72,143.5
6084,F4,647.75,0.25,73,143.5
6085,G#4,648.0,0.25,70,143.5
6086,B4,648.0,0.25,70,143.5
6087,F5,648.25,0.188,77,143.5
6088,F5,648.5,0.25,78,143.5
6089,G#4,648.708,0.25,60,143.5
6090,B3,648.708,0.25,60,143.5
6091,D4,648.708,0.25,60,143.5
6092,G#5,648.75,0.25,76,143.5
6093,B5,648.75,0.25,76,143.5
6094,F6,649.0,0.188,81,143.5
6095,F6,649.25,167/1000,82,143.5
6096,G#6,649.417,73/250,90,143.5
6097,B6,649.417,73/250,90,143.5
6098,G#3,649.458,0.125,52,143.5
6099,F4,649.458,0.125,52,143.5
6100,B3,649.458,0.125,52,143.5
6101,F7,649.5,0.25,95,143.5
6102,G#3,649.708,0.25,59,143.5
6103,B3,649.708,0.25,59,143.5
6104,F4,649.708,0.25,59,143.5
6105,E3,650.0,0.25,76,143.5
6106,E4,650.0,0.25,76,143.5
6107,E2,650.208,1.0,58,143.5
6108,G2,650.208,1.0,58,143.5
6109,C2,650.208,1.0,58,143.5
6110,C3,650.208,1.0,58,143.5
6111,G3,650.229,0.25,71,143.5
6112,C4,650.5,0.25,72,143.5
6113,E4,650.75,0.25,73,143.5
6114,E5,651.0,0.25,72,143.5
6115,C5,651.0,0.25,72,143.5
6116,G4,651.0,0.25,72,143.5
6117,G3,651.208,0.25,60,143.5
6118,C4,651.208,0.25,60,143.5
6119,C#5,651.5,0.25,78,143.5
6120,C#4,651.5,0.25,78,143.5
6121,G1,651.708,1.0,58,143.5
6122,B-1,651.708,1.0,58,143.5
6123,C#2,651.708,1.0,58,143.5
6124,G2,651.708,1.0,58,143.5
6125,F4,651.75,0.25,74,143.5
6126,B-4,652.0,0.188,70,143.5
6127,C#5,652.0,0.188,70,143.5
6128,C#5,652.25,0.25,78,143.5
6129,F5,652.5,0.25,71,143.5
6130,B-5,652.5,0.25,71,143.5
6131,C#6,652.5,0.25,71,143.5
6132,F3,652.708,0.25,59,143.5
6133,B-3,652.708,0.25,59,143.5
6134,C#4,652.708,0.25,59,143.5
6135,C4,653.0,0.25,76,143.5
6136,C5,653.0,0.25,76,143.5
6137,E2,653.208,1.0,58,143.5
6138,G2,653.208,1.0,58,143.5
6139,C2,653.208,1.0,58,143.5
6140,C3,653.208,1.0,58,143.5
6141,G4,653.25,0.25,67,143.5
6142,E4,653.25,0.25,67,143.5
6143,C5,653.5,0.188,72,143.5
6144,C5,653.75,0.25,73,143.5
6145,C6,654.0,0.25,72,143.5
6146,G5,654.0,0.25,72,143.5
6147,E5,654.0,0.25,72,143.5
6148,G3,654.208,0.25,60,143.5
6149,C4,654.208,0.25,60,143.5
6150,F6,654.5,0.25,78,143.5
6151,F5,654.5,0.25,78,143.5
6152,B1,654.708,1.0,57,143.5
6153,F1,654.708,1.0,57,143.5
6154,G#1,654.708,1.0,57,143.5
6155,D2,654.708,1.0,57,143.5
6156,F2,654.708,1.0,57,143.5
6157,G#5,654.75,0.25,72,143.5
6158,B5,654.75,0.25,72,143.5
6159,F6,655.0,0.188,78,143.5
6160,F6,655.25,0.25,81,143.5
6161,G#6,655.5,0.25,76,143.5
6162,B6,655.5,0.25,76,143.5
6163,F7,655.5,0.25,76,143.5
6164,G#3,655.708,0.25,58,143.5
6165,B3,655.708,0.25,58,143.5
6166,D4,655.708,0.25,58,143.5
6167,F4,655.708,0.25,58,143.5
6168,E7,656.0,0.25,67,143.5
6169,C7,656.0,0.25,67,143.5
6170,G6,656.0,0.25,67,143.5
6171,C2,656.208,0.25,56,143.5
6172,C3,656.208,0.25,56,143.5
6173,B-6,656.5,0.25,58,143.5
6174,C#7,656.5,0.25,58,143.5
6175,F6,656.5,0.25,58,143.5
6176,G1,656.708,0.25,49,143.5
6177,G2,656.708,0.25,49,143.5
6178,C7,657.0,0.25,66,143.5
6179,G6,657.0,0.25,66,143.5
6180,E6,657.0,0.25,66,143.5
6181,C2,657.208,0.25,56,143.5
6182,C3,657.208,0.25,56,143.5
6183,B-6,657.5,0.25,58,143.5
6184,F6,657.5,0.25,58,143.5
6185,C#6,657.5,0.25,58,143.5
6186,G1,657.708,0.25,48,143.5
6187,G2,657.708,0.25,48,143.5
6188,G6,658.0,0.25,67,143.5
6189,E6,658.0,0.25,67,143.5
6190,C6,658.0,0.25,67,143.5
6191,C2,658.208,0.25,56,143.5
6192,C3,658.208,0.25,56,143.5
6193,G#5,658.5,0.25,56,143.5
6194,B5,658.5,0.25,56,143.5
6195,D6,658.5,0.25,56,143.5
6196,F6,658.5,0.25,56,143.5
6197,F1,658.708,0.25,47,143.5
6198,F2,658.708,0.25,47,143.5
6199,E6,659.0,0.25,62,143.5
6200,C6,659.0,0.25,62,143.5
6201,G5,659.0,0.25,62,143.5
6202,C2,659.208,0.25,56,143.5
6203,C3,659.208,0.25,56,143.5
6204,B-5,659.5,0.25,53,143.5
6205,C#6,659.5,0.25,53,143.5
6206,F5,659.5,0.25,53,143.5
6207,G1,659.708,0.25,49,143.5
6208,G2,659.708,0.25,49,143.5
6209,C6,660.0,0.25,60,143.5
6210,G5,660.0,0.25,60,143.5
6211,E5,660.0,0.25,60,143.5
6212,C2,660.208,0.25,56,143.5
6213,C3,660.208,0.25,56,143.5
6214,B-5,660.5,0.25,53,143.5
6215,F5,660.5,0.25,53,143.5
6216,C#5,660.5,0.25,53,143.5
6217,G1,660.708,0.25,48,143.5
6218,G2,660.708,0.25,48,143.5
6219,G5,661.0,0.25,62,143.5
6220,E5,661.0,0.25,62,143.5
6221,C5,661.0,0.25,62,143.5
6222,C2,661.208,0.25,56,143.5
6223,C3,661.208,0.25,56,143.5
6224,G#4,661.5,0.25,50,143.5
6225,B4,661.5,0.25,50,143.5
6226,D5,661.5,0.25,50,143.5
6227,F5,661.5,0.25,50,143.5
6228,F1,661.708,0.25,47,143.5
6229,F2,661.708,0.25,47,143.5
6230,E5,662.0,0.25,62,143.5
6231,C5,662.0,0.25,62,143.5
6232,G4,662.0,0.25,62,143.5
6233,C2,662.208,0.25,56,143.5
6234,C3,662.208,0.25,56,143.5
6235,B-4,662.5,0.25,55,143.5
6236,C#5,662.5,0.25,55,143.5
6237,F4,662.5,0.25,55,143.5
6238,G1,662.708,0.25,50,143.5
6239,G2,662.708,0.25,50,143.5
6240,C5,663.0,0.25,63,143.5
6241,G4,663.0,0.25,63,143.5
6242,E4,663.0,0.25,63,143.5
6243,C2,663.208,0.25,58,143.5
6244,C3,663.208,0.25,58,143.5
6245,B-4,663.5,0.25,57,143.5
6246,F4,663.5,0.25,57,143.5
6247,C#4,663.5,0.25,57,143.5
6248,G1,663.708,0.25,52,143.5
6249,G2,663.708,0.25,52,143.5
6250,G4,664.0,0.25,68,143.5
6251,E4,664.0,0.25,68,143.5
6252,C4,664.0,0.25,68,143.5
6253,C2,664.208,0.25,62,143.5
6254,C3,664.208,0.25,62,143.5
6255,G#3,664.5,0.25,56,143.5
6256,B3,664.5,0.25,56,143.5
6257,D4,664.5,0.25,56,143.5
6258,F4,664.5,0.25,56,143.5
6259,F1,664.708,0.25,53,143.5
6260,F2,664.708,0.25,53,143.5
6261,E4,665.0,0.25,72,143.5
6262,C4,665.0,0.25,72,143.5
6263,G3,665.0,0.25,72,143.5
6264,C2,665.208,0.25,66,143.5
6265,C3,665.208,0.25,66,143.5
6266,B-3,665.5,0.25,64,143.5
6267,C#4,665.5,0.25,64,143.5
6268,F3,665.5,0.25,64,143.5
6269,G1,665.708,0.25,58,143.5
6270,G2,665.708,0.25,58,143.5
6271,C4,666.0,0.25,74,143.5
6272,G3,666.0,0.25,74,143.5
6273,E3,666.0,0.25,74,143.5
6274,C2,666.208,0.25,68,143.5
6275,C3,666.208,0.25,68,143.5
6276,B-3,666.5,0.25,67,143.5
6277,F3,666.5,0.25,67,143.5
6278,C#3,666.5,0.25,67,143.5
6279,G1,666.708,0.25,60,143.5
6280,G2,666.708,0.25,60,143.5
6281,G3,667.0,0.25,81,143.5
6282,E3,667.0,0.25,81,143.5
6283,C2,667.208,0.25,71,143.5
6284,C3,667.208,0.25,71,143.5
6285,G#2,667.5,0.25,79,143.5
6286,B2,667.5,0.25,79,143.5
6287,F3,667.5,0.25,79,143.5
6288,B1,667.708,0.25,64,143.5
6289,D2,667.708,0.25,64,143.5
6290,F1,667.708,0.25,64,143.5
6291,F2,667.708,0.25,64,143.5
6292,G#2,669.0,0.25,79,143.5
6293,B2,669.0,0.25,79,143.5
6294,D3,669.0,0.25,79,143.5
6295,F1,669.208,0.25,64,143.5
6296,B1,669.208,0.25,64,143.5
6297,D2,669.208,0.25,64,143.5
6298,F2,669.208,0.25,64,143.5
6299,G#2,670.5,0.25,82,143.5
6300,B2,670.5,0.25,82,143.5
6301,F1,670.708,0.25,64,143.5
6302,B1,670.708,0.25,64,143.5
6303,D2,670.708,0.25,64,143.5
6304,F2,670.708,0.25,64,143.5
6305,G#2,671.0,0.25,87,143.5
6306,B2,671.0,0.25,87,143.5
6307,G#3,671.0,0.25,87,143.5
6308,F1,671.208,0.25,70,143.5
6309,B1,671.208,0.25,70,143.5
6310,D2,671.208,0.25,70,143.5
6311,F2,671.208,0.25,70,143.5
6312,G#2,671.5,0.25,79,143.5
6313,B2,671.5,0.25,79,143.5
6314,F3,671.5,0.25,79,143.5
6315,F1,671.708,0.25,64,143.5
6316,B1,671.708,0.25,64,143.5
6317,D2,671.708,0.25,64,143.5
6318,F2,671.708,0.25,64,143.5
6319,G#2,673.0,0.188,79,143.5
6320,G#1,673.208,0.188,81,143.5
6321,G2,673.25,0.188,81,143.5
6322,G1,673.458,0.188,83,143.5
6323,F#2,673.5,0.188,83,143.5
6324,F#1,673.708,0.188,85,143.5
6325,F2,673.75,0.188,86,143.5
6326,F1,673.958,0.188,87,143.5
6327,E2,674.0,3.0,79,143.5
6328,G2,674.0,3.0,79,143.5
6329,C3,674.0,3.0,79,143.5
6330,C1,674.208,3.0,73,143.5
6331,E1,674.208,3.0,73,143.5
6332,G1,674.208,3.0,73,143.5
6333,C2,674.208,3.0,73,143.5
