,note_name,start_time,duration,velocity,tempo
0,C#4,0.562,0.5,56,100.0
1,G4,0.625,0.5,58,100.0
2,B-4,0.688,0.5,60,100.0
3,E5,0.75,0.5,62,100.0
4,G5,0.812,0.5,72,100.0
5,C#6,0.875,0.5,72,100.0
6,E6,0.938,0.5,77,100.0
7,B-6,1.0,0.5,79,100.0
8,G#3,2.562,0.5,54,100.0
9,D4,2.625,0.5,55,100.0
10,F4,2.688,0.5,58,100.0
11,B4,2.75,0.5,61,100.0
12,D5,2.812,0.5,68,100.0
13,G#5,2.875,0.5,69,100.0
14,B5,2.938,0.5,71,100.0
15,F6,3.0,0.5,73,100.0
16,E-3,4.781,0.5,44,100.0
17,A3,4.781,0.5,44,100.0
18,C4,4.844,0.5,48,100.0
19,F#4,4.844,0.5,48,100.0
20,A4,4.906,0.5,60,100.0
21,E-5,4.906,0.5,60,100.0
22,F#5,4.969,0.5,65,100.0
23,C6,4.969,0.5,65,100.0
24,B-2,5.781,0.5,42,100.0
25,E3,5.781,0.5,42,100.0
26,G3,5.844,0.5,46,100.0
27,C#4,5.844,0.5,46,100.0
28,E4,5.906,0.5,60,100.0
29,B-4,5.906,0.5,60,100.0
30,C#5,5.969,0.5,64,100.0
31,G5,5.969,0.5,64,100.0
32,F2,6.781,0.5,45,100.0
33,B2,6.781,0.5,45,100.0
34,D3,6.844,0.5,50,100.0
35,G#3,6.844,0.5,50,100.0
36,B3,6.906,0.5,60,100.0
37,F4,6.906,0.5,60,100.0
38,G#4,6.969,0.5,66,100.0
39,D5,6.969,0.5,66,100.0
40,C2,7.781,0.219,47,100.0
41,F#2,7.781,0.219,47,100.0
42,A2,7.844,0.156,52,100.0
43,E-3,7.844,0.156,52,100.0
44,F#3,7.906,0.094,64,100.0
45,C4,7.906,0.094,64,100.0
46,E-4,7.969,0.031,70,100.0
47,A4,7.969,0.031,70,100.0
48,F#3,8.0,0.406,64,100.0
49,C4,8.0,0.406,64,100.0
50,E-4,8.0,0.469,70,100.0
51,A4,8.0,0.469,70,100.0
52,C2,8.0,0.281,47,100.0
53,F#2,8.0,0.281,47,100.0
54,A2,8.0,0.344,52,100.0
55,E-3,8.0,0.344,52,100.0
56,C#2,8.781,0.5,48,100.0
57,G2,8.781,0.5,48,100.0
58,B-2,8.844,0.5,52,100.0
59,E3,8.844,0.5,52,100.0
60,G3,8.906,0.5,66,100.0
61,C#4,8.906,0.5,66,100.0
62,E4,8.969,0.5,70,100.0
63,B-4,8.969,0.5,70,100.0
64,D2,9.812,0.5,50,100.0
65,G#2,9.812,0.5,50,100.0
66,B2,9.875,0.5,55,100.0
67,F3,9.875,0.5,55,100.0
68,G#3,9.938,0.5,71,100.0
69,B3,9.938,0.5,71,100.0
70,F4,10.0,0.5,77,100.0
71,B-1,10.812,0.5,51,100.0
72,F2,10.812,0.5,51,100.0
73,G#2,10.875,0.5,55,100.0
74,D3,10.875,0.5,55,100.0
75,F3,10.938,0.5,72,100.0
76,G#3,10.938,0.5,72,100.0
77,D4,11.0,0.5,76,100.0
78,A1,11.781,0.219,54,100.0
79,D2,11.781,0.219,54,100.0
80,F2,11.844,0.156,58,100.0
81,A2,11.844,0.156,58,100.0
82,A3,11.906,0.094,72,100.0
83,D4,11.906,0.094,72,100.0
84,F4,11.969,0.031,78,100.0
85,A4,11.969,0.031,78,100.0
86,A3,12.0,0.406,72,100.0
87,D4,12.0,0.406,72,100.0
88,F4,12.0,0.469,78,100.0
89,A4,12.0,0.469,78,100.0
90,A1,12.0,0.281,54,100.0
91,D2,12.0,0.281,54,100.0
92,F2,12.0,0.344,58,100.0
93,A2,12.0,0.344,58,100.0
94,A5,14.0,0.5,74,100.0
95,A4,14.0,0.5,74,100.0
96,F5,14.0,0.5,74,100.0
97,D5,14.0,0.5,74,100.0
98,A2,14.0,0.5,56,100.0
99,D3,14.0,0.5,56,100.0
100,A3,14.0,0.5,56,100.0
101,F3,14.0,0.5,56,100.0
102,G5,16.0,0.5,74,100.0
103,A6,16.0,0.5,74,100.0
104,C#6,16.0,0.5,74,100.0
105,E6,16.0,0.5,74,100.0
106,A5,16.0,0.5,74,100.0
107,C#4,16.0,0.5,56,100.0
108,A4,16.0,0.5,56,100.0
109,A3,16.0,0.5,56,100.0
110,E4,16.0,0.5,56,100.0
111,A2,20.25,0.375,39,100.0
112,A1,20.256,0.375,29,100.0
113,B-2,20.5,0.375,42,100.0
114,B-1,20.504,0.375,31,100.0
115,C#3,20.75,0.375,43,100.0
116,C#2,20.754,0.375,32,100.0
117,F2,20.998,3/10,34,100.0
118,F3,21.0,3/10,46,100.0
119,E3,21.2,3/10,45,100.0
120,E2,21.202,3/10,34,100.0
121,D3,21.4,3/10,44,100.0
122,D2,21.4,3/10,33,100.0
123,C#2,21.596,3/10,32,100.0
124,C#3,21.6,3/10,43,100.0
125,B-1,21.796,3/10,30,100.0
126,B-2,21.8,3/10,41,100.0
127,A2,22.0,63/250,43,100.0
128,A1,22.006,63/250,32,100.0
129,B-1,22.165,0.25,32,100.0
130,B-2,22.167,0.25,43,100.0
131,C#2,22.329,0.25,32,100.0
132,C#3,22.333,0.25,44,100.0
133,D3,22.5,0.25,45,100.0
134,D2,22.5,0.25,34,100.0
135,E3,22.667,0.25,47,100.0
136,E2,22.667,0.25,35,100.0
137,F2,22.829,0.25,36,100.0
138,F3,22.833,0.25,48,100.0
139,B-3,23.0,0.25,50,100.0
140,B-2,23.002,0.25,37,100.0
141,A3,23.167,0.25,49,100.0
142,A2,23.169,0.25,36,100.0
143,G3,23.333,0.25,48,100.0
144,G2,23.335,0.25,36,100.0
145,F3,23.5,0.25,47,100.0
146,F2,23.504,0.25,34,100.0
147,E3,23.667,0.25,45,100.0
148,E2,23.671,0.25,34,100.0
149,D3,23.833,167/1000,44,100.0
150,D2,23.835,33/200,32,100.0
151,C#3,24.0,0.188,45,100.0
152,D3,24.0,83/1000,44,100.0
153,D2,24.0,17/200,32,100.0
154,C#2,24.006,0.188,33,100.0
155,D3,24.125,0.188,44,100.0
156,D2,24.129,0.188,33,100.0
157,E2,24.246,0.188,33,100.0
158,E3,24.25,0.188,45,100.0
159,F3,24.375,0.188,46,100.0
160,F2,24.379,0.188,34,100.0
161,G2,24.496,0.188,35,100.0
162,G3,24.5,0.188,48,100.0
163,A2,24.623,0.188,35,100.0
164,A3,24.625,0.188,48,100.0
165,B-3,24.75,0.188,49,100.0
166,B-2,24.754,0.188,36,100.0
167,C#4,24.875,0.188,49,100.0
168,C#3,24.877,0.188,37,100.0
169,F4,25.0,3/10,51,100.0
170,F3,25.004,3/10,38,100.0
171,E3,25.196,3/10,37,100.0
172,E4,25.2,3/10,51,100.0
173,D3,25.398,3/10,37,100.0
174,D4,25.4,3/10,50,100.0
175,C#4,25.6,3/10,50,100.0
176,C#3,25.604,3/10,37,100.0
177,B-3,25.8,3/10,50,100.0
178,B-2,25.806,3/10,37,100.0
179,A3,26.0,0.25,50,100.0
180,A2,26.0,0.25,38,100.0
181,B-3,26.167,0.25,51,100.0
182,B-2,26.171,0.25,39,100.0
183,C#4,26.333,0.25,52,100.0
184,C#3,26.335,0.25,40,100.0
185,D3,26.496,0.25,41,100.0
186,D4,26.5,0.25,53,100.0
187,E4,26.667,0.25,54,100.0
188,E3,26.667,0.25,41,100.0
189,F4,26.833,0.25,56,100.0
190,F3,26.837,0.25,42,100.0
191,B-3,26.996,0.25,43,100.0
192,B-4,27.0,0.25,57,100.0
193,A4,27.167,0.25,57,100.0
194,A3,27.169,0.25,43,100.0
195,G4,27.333,0.25,56,100.0
196,G3,27.337,0.25,43,100.0
197,F3,27.496,0.25,42,100.0
198,F4,27.5,0.25,54,100.0
199,E4,27.667,0.25,53,100.0
200,E3,27.673,0.25,42,100.0
201,D4,27.833,167/1000,52,100.0
202,D3,27.84,4/25,40,100.0
203,C#4,28.0,0.188,53,100.0
204,D4,28.0,83/1000,52,100.0
205,D3,28.0,9/100,40,100.0
206,C#3,28.004,0.188,40,100.0
207,D4,28.125,0.188,54,100.0
208,D3,28.131,0.188,40,100.0
209,E3,28.246,0.188,41,100.0
210,E4,28.25,0.188,56,100.0
211,F4,28.375,0.188,56,100.0
212,F3,28.381,0.188,42,100.0
213,G3,28.496,0.188,43,100.0
214,G4,28.5,0.188,57,100.0
215,A3,28.621,0.188,43,100.0
216,A4,28.625,0.188,57,100.0
217,B-4,28.75,0.188,59,100.0
218,B-3,28.752,0.188,43,100.0
219,C#5,28.875,0.188,60,100.0
220,C#4,28.879,0.188,44,100.0
221,F4,28.998,3/10,45,100.0
222,F5,29.0,3/10,61,100.0
223,E4,29.196,3/10,45,100.0
224,E5,29.2,3/10,61,100.0
225,D5,29.4,3/10,60,100.0
226,D4,29.406,3/10,45,100.0
227,C#5,29.6,3/10,59,100.0
228,C#4,29.602,3/10,44,100.0
229,B-4,29.8,3/10,58,100.0
230,B-3,29.804,3/10,44,100.0
231,A4,30.0,0.25,58,100.0
232,A3,30.004,0.25,44,100.0
233,B-4,30.167,0.25,58,100.0
234,B-3,30.171,0.25,44,100.0
235,C#4,30.331,0.25,46,100.0
236,C#5,30.333,0.25,60,100.0
237,D5,30.5,0.25,61,100.0
238,D4,30.5,0.25,47,100.0
239,E5,30.667,0.25,62,100.0
240,E4,30.673,0.25,48,100.0
241,F5,30.833,0.25,63,100.0
242,F4,30.833,0.25,48,100.0
243,B-4,30.998,0.25,48,100.0
244,B-5,31.0,0.25,63,100.0
245,A5,31.167,0.25,63,100.0
246,A4,31.167,0.25,47,100.0
247,G5,31.333,0.25,62,100.0
248,G4,31.337,0.25,46,100.0
249,F5,31.5,0.25,61,100.0
250,F4,31.506,0.25,46,100.0
251,E5,31.667,0.25,60,100.0
252,E4,31.671,0.25,44,100.0
253,D4,31.831,169/1000,43,100.0
254,D5,31.833,167/1000,59,100.0
255,C#5,32.0,0.188,58,100.0
256,D5,32.0,83/1000,59,100.0
257,C#4,32.0,0.188,43,100.0
258,D4,32.0,81/1000,43,100.0
259,D5,32.125,0.188,58,100.0
260,D4,32.129,0.188,44,100.0
261,E4,32.246,0.188,45,100.0
262,E5,32.25,0.188,59,100.0
263,F4,32.373,0.188,46,100.0
264,F5,32.375,0.188,60,100.0
265,G5,32.5,0.188,62,100.0
266,G4,32.5,0.188,47,100.0
267,A4,32.621,0.188,48,100.0
268,A5,32.625,0.188,63,100.0
269,B-5,32.75,0.188,64,100.0
270,B-4,32.752,0.188,49,100.0
271,C#6,32.875,0.188,65,100.0
272,C#5,32.875,0.188,51,100.0
273,F6,33.0,3/10,66,100.0
274,F5,33.002,3/10,52,100.0
275,E6,33.2,3/10,66,100.0
276,E5,33.202,3/10,52,100.0
277,D5,33.398,3/10,50,100.0
278,D6,33.4,3/10,65,100.0
279,C#6,33.6,3/10,65,100.0
280,C#5,33.6,3/10,51,100.0
281,B-4,33.798,3/10,49,100.0
282,B-5,33.8,3/10,64,100.0
283,A5,34.0,3/10,65,100.0
284,A4,34.002,3/10,48,100.0
285,B-5,34.2,3/10,68,100.0
286,B-4,34.202,3/10,50,100.0
287,C#6,34.4,3/10,70,100.0
288,C#5,34.4,3/10,51,100.0
289,D6,34.6,3/10,71,100.0
290,D5,34.606,3/10,53,100.0
291,E5,34.798,3/10,54,100.0
292,E6,34.8,3/10,72,100.0
293,F6,35.0,3/10,74,100.0
294,F5,35.004,3/10,55,100.0
295,G5,35.198,3/10,56,100.0
296,G6,35.2,3/10,76,100.0
297,A6,35.4,3/10,78,100.0
298,A5,35.404,3/10,58,100.0
299,B-6,35.6,3/10,80,100.0
300,B-5,35.604,3/10,59,100.0
301,C#6,35.796,51/250,60,100.0
302,C#7,35.8,1/5,81,100.0
303,F6,35.996,1/250,63,100.0
304,F7,36.0,0.125,85,100.0
305,C#7,36.0,1/10,81,100.0
306,C#6,36.0,12/125,60,100.0
307,F6,36.0,121/1000,63,100.0
308,E6,36.119,0.125,63,100.0
309,E7,36.125,0.125,85,100.0
310,D7,36.25,0.125,84,100.0
311,D6,36.252,0.125,63,100.0
312,C#6,36.369,0.125,63,100.0
313,C#7,36.375,0.125,84,100.0
314,B-6,36.5,0.125,83,100.0
315,B-5,36.5,0.125,62,100.0
316,A5,36.615,0.125,62,100.0
317,A6,36.625,0.125,83,100.0
318,G6,36.75,0.125,83,100.0
319,G5,36.752,0.125,62,100.0
320,F6,36.875,0.125,82,100.0
321,F5,36.879,0.125,61,100.0
322,E5,36.992,0.125,61,100.0
323,E6,37.0,0.125,82,100.0
324,D6,37.125,0.125,81,100.0
325,D5,37.135,0.125,60,100.0
326,C#5,37.248,0.125,60,100.0
327,C#6,37.25,0.125,81,100.0
328,B-4,37.367,0.125,60,100.0
329,B-5,37.375,0.125,80,100.0
330,A5,37.5,0.125,80,100.0
331,A4,37.51,0.125,60,100.0
332,G5,37.625,0.125,80,100.0
333,G4,37.633,0.125,60,100.0
334,F5,37.75,0.125,79,100.0
335,F4,37.758,0.125,59,100.0
336,E5,37.875,0.125,79,100.0
337,E4,37.875,0.125,59,100.0
338,D5,38.0,0.125,79,100.0
339,D4,38.004,0.125,59,100.0
340,C#5,38.125,0.125,79,100.0
341,C#4,38.131,0.125,59,100.0
342,B-4,38.25,0.125,78,100.0
343,B-3,38.252,0.125,58,100.0
344,A4,38.375,0.125,78,100.0
345,A3,38.381,0.125,58,100.0
346,G3,38.492,0.125,58,100.0
347,G4,38.5,0.125,78,100.0
348,F4,38.625,0.125,77,100.0
349,F3,38.633,0.125,58,100.0
350,E4,38.75,0.125,77,100.0
351,E3,38.758,0.125,58,100.0
352,D3,38.869,0.125,57,100.0
353,D4,38.875,0.125,77,100.0
354,C#3,38.996,0.125,58,100.0
355,C#4,39.0,0.125,78,100.0
356,B-3,39.125,0.125,78,100.0
357,B-2,39.125,0.125,58,100.0
358,A2,39.248,0.125,58,100.0
359,A3,39.25,0.125,79,100.0
360,G2,39.373,0.125,59,100.0
361,G3,39.375,0.125,80,100.0
362,F3,39.5,0.125,81,100.0
363,F2,39.504,0.125,60,100.0
364,E2,39.619,0.125,61,100.0
365,E3,39.625,0.125,82,100.0
366,D2,39.74,0.125,61,100.0
367,D3,39.75,0.125,82,100.0
368,C#3,39.875,0.125,82,100.0
369,C#2,39.879,0.125,62,100.0
370,B-1,39.992,1/10,63,100.0
371,B-2,40.0,1/10,80,100.0
372,A2,40.1,1/10,80,100.0
373,A1,40.1,2/5,63,100.0
374,G2,40.2,1/10,82,100.0
375,F2,40.3,1/10,83,100.0
376,E2,40.4,1/10,84,100.0
377,D6,40.5,2.0,83,100.0
378,F5,40.5,2.0,83,100.0
379,D5,40.5,2.0,83,100.0
380,D3,40.5,2.0,64,100.0
381,A2,40.5,2.0,64,100.0
382,D2,40.5,2.0,64,100.0
383,E3,41.0,0.25,54,100.0
384,G#3,41.0,0.25,54,100.0
385,A3,41.25,0.25,56,100.0
386,F3,41.25,0.25,56,100.0
387,E4,41.5,0.25,58,100.0
388,C#4,41.5,0.25,58,100.0
389,D4,41.75,0.25,60,100.0
390,F4,41.75,0.25,60,100.0
391,E4,42.0,0.25,62,100.0
392,G#4,42.0,0.25,62,100.0
393,F4,42.25,0.25,64,100.0
394,A4,42.25,0.25,64,100.0
395,F5,42.5,1.0,85,100.0
396,D5,42.5,1.0,85,100.0
397,D6,42.5,1.0,85,100.0
398,A2,42.5,1.0,67,100.0
399,D3,42.5,1.0,67,100.0
400,D2,42.5,1.0,67,100.0
401,E3,43.0,0.25,54,100.0
402,G#3,43.0,0.25,54,100.0
403,F3,43.25,0.25,56,100.0
404,A3,43.25,0.25,56,100.0
405,C#4,43.5,0.25,58,100.0
406,E4,43.5,0.25,58,100.0
407,D4,43.75,0.25,60,100.0
408,F4,43.75,0.25,60,100.0
409,E4,44.0,0.25,69,100.0
410,G#4,44.0,0.25,69,100.0
411,F4,44.25,0.25,64,100.0
412,A4,44.25,0.25,64,100.0
413,C6,44.375,0.125,80,100.0
414,C5,44.375,0.125,80,100.0
415,B-4,44.5,2.0,84,100.0
416,E5,44.5,2.0,84,100.0
417,B-5,44.5,2.0,84,100.0
418,D3,44.5,2.0,68,100.0
419,D2,44.5,2.0,68,100.0
420,G2,44.5,2.0,68,100.0
421,F#3,45.0,0.25,54,100.0
422,A3,45.0,0.25,54,100.0
423,B-3,45.25,0.25,56,100.0
424,G3,45.25,0.25,56,100.0
425,E-4,45.5,0.25,58,100.0
426,F#4,45.5,0.25,58,100.0
427,E4,45.75,0.25,60,100.0
428,G4,45.75,0.25,60,100.0
429,A4,46.0,0.25,62,100.0
430,F#4,46.0,0.25,62,100.0
431,B-4,46.25,0.25,64,100.0
432,G4,46.25,0.25,64,100.0
433,E5,46.5,1.0,79,100.0
434,B-5,46.5,1.0,79,100.0
435,B-4,46.5,1.0,79,100.0
436,D2,46.5,1.0,64,100.0
437,D3,46.5,1.0,64,100.0
438,G2,46.5,1.0,64,100.0
439,A3,47.0,0.25,54,100.0
440,F#3,47.0,0.25,54,100.0
441,B-3,47.25,0.25,56,100.0
442,G3,47.25,0.25,56,100.0
443,E-4,47.5,0.25,58,100.0
444,F#4,47.5,0.25,58,100.0
445,G4,47.75,0.25,60,100.0
446,E4,47.75,0.25,60,100.0
447,A4,48.0,0.25,69,100.0
448,F#4,48.0,0.25,69,100.0
449,B-4,48.25,0.125,64,100.0
450,G4,48.25,0.125,64,100.0
451,B-4,48.375,0.125,80,100.0
452,B-5,48.375,0.125,80,100.0
453,A5,48.5,1.0,82,100.0
454,E5,48.5,1.0,82,100.0
455,A4,48.5,1.0,82,100.0
456,C#2,48.5,1.0,67,100.0
457,C#3,48.5,1.0,67,100.0
458,E-3,49.0,0.25,54,100.0
459,F#3,49.0,0.25,54,100.0
460,E3,49.25,0.25,56,100.0
461,G3,49.25,0.25,56,100.0
462,C4,49.5,0.25,58,100.0
463,E-4,49.5,0.25,58,100.0
464,C#4,49.75,0.25,60,100.0
465,E4,49.75,0.25,60,100.0
466,F#4,50.0,0.25,69,100.0
467,E-4,50.0,0.25,69,100.0
468,E4,50.25,0.25,64,100.0
469,G4,50.25,0.25,64,100.0
470,A4,50.375,0.125,80,100.0
471,A5,50.375,0.125,80,100.0
472,G5,50.5,1.0,82,100.0
473,E6,50.5,1.0,82,100.0
474,E5,50.5,1.0,82,100.0
475,A1,50.5,1.0,67,100.0
476,A2,50.5,1.0,67,100.0
477,E-3,51.0,0.25,54,100.0
478,F#3,51.0,0.25,54,100.0
479,E3,51.25,0.25,56,100.0
480,G3,51.25,0.25,56,100.0
481,C4,51.5,0.25,58,100.0
482,E-4,51.5,0.25,58,100.0
483,E4,51.75,0.25,60,100.0
484,C#4,51.75,0.25,60,100.0
485,F#4,52.0,0.25,69,100.0
486,E-4,52.0,0.25,69,100.0
487,G4,52.25,0.125,64,100.0
488,E4,52.25,0.125,64,100.0
489,G5,52.375,0.125,71,100.0
490,G4,52.375,0.125,71,100.0
491,F4,52.5,1.0,73,100.0
492,A4,52.5,1.0,73,100.0
493,F5,52.5,1.0,73,100.0
494,D3,52.5,1.0,67,100.0
495,D2,52.5,1.0,67,100.0
496,G#3,53.0,0.25,44,100.0
497,E3,53.0,0.25,44,100.0
498,F3,53.25,0.25,46,100.0
499,A3,53.25,0.25,46,100.0
500,E4,53.5,0.25,47,100.0
501,C#4,53.5,0.25,47,100.0
502,D4,53.75,0.25,48,100.0
503,F4,53.75,0.25,48,100.0
504,G#4,54.0,0.25,55,100.0
505,E4,54.0,0.25,55,100.0
506,A4,54.25,0.125,50,100.0
507,F4,54.25,0.125,50,100.0
508,A4,54.375,0.125,73,100.0
509,A5,54.375,0.125,73,100.0
510,D4,54.5,1.0,76,100.0
511,D5,54.5,1.0,76,100.0
512,F4,54.5,1.0,76,100.0
513,D2,54.5,1.0,60,100.0
514,A2,54.5,1.0,60,100.0
515,D3,54.5,1.0,60,100.0
516,G#3,55.0,0.25,44,100.0
517,E3,55.0,0.25,44,100.0
518,A3,55.25,0.25,44,100.0
519,F3,55.25,0.25,44,100.0
520,C#4,55.5,0.25,46,100.0
521,E4,55.5,0.25,46,100.0
522,F4,55.75,0.25,47,100.0
523,D4,55.75,0.25,47,100.0
524,G#4,56.0,0.25,53,100.0
525,E4,56.0,0.25,53,100.0
526,A4,56.25,0.25,48,100.0
527,F4,56.25,0.25,48,100.0
528,C5,56.5,1.5,71,100.0
529,E5,56.5,1.5,71,100.0
530,C6,56.5,1.5,71,100.0
531,C3,56.5,2.0,59,100.0
532,C2,56.5,2.0,59,100.0
533,B3,57.0,0.25,46,100.0
534,F#3,57.0,0.25,46,100.0
535,G3,57.25,0.25,47,100.0
536,C4,57.25,0.25,47,100.0
537,E-4,57.5,0.25,49,100.0
538,B3,57.5,0.25,49,100.0
539,E4,57.75,0.25,50,100.0
540,C4,57.75,0.25,50,100.0
541,F#4,58.0,0.25,52,100.0
542,B4,58.0,0.25,52,100.0
543,G4,58.25,0.25,53,100.0
544,C5,58.25,0.25,53,100.0
545,G5,58.5,1.0,63,100.0
546,C5,58.5,1.0,63,100.0
547,C6,58.5,1.0,63,100.0
548,E2,58.5,1.0,57,100.0
549,E3,58.5,1.0,57,100.0
550,F#3,59.0,0.25,46,100.0
551,B3,59.0,0.25,46,100.0
552,C4,59.25,0.25,47,100.0
553,G3,59.25,0.25,47,100.0
554,B3,59.5,0.25,49,100.0
555,E-4,59.5,0.25,49,100.0
556,C4,59.75,0.25,50,100.0
557,E4,59.75,0.25,50,100.0
558,F#4,60.0,0.25,58,100.0
559,E-4,60.0,0.25,58,100.0
560,E4,60.25,0.25,53,100.0
561,G4,60.25,0.25,53,100.0
562,B-4,60.375,0.125,62,100.0
563,B-5,60.375,0.125,62,100.0
564,F5,60.5,1.0,63,100.0
565,A5,60.5,1.0,63,100.0
566,A4,60.5,1.0,63,100.0
567,F2,60.5,1.0,57,100.0
568,F3,60.5,1.0,57,100.0
569,G#3,61.0,0.25,46,100.0
570,B3,61.0,0.25,46,100.0
571,C4,61.25,0.25,47,100.0
572,A3,61.25,0.25,47,100.0
573,B3,61.5,0.25,49,100.0
574,E4,61.5,0.25,49,100.0
575,C4,61.75,0.25,50,100.0
576,F4,61.75,0.25,50,100.0
577,B4,62.0,0.25,58,100.0
578,G#4,62.0,0.25,58,100.0
579,A4,62.25,0.25,53,100.0
580,C5,62.25,0.25,53,100.0
581,C5,62.375,0.125,62,100.0
582,C6,62.375,0.125,62,100.0
583,F5,62.5,1.0,63,100.0
584,A4,62.5,1.0,63,100.0
585,F4,62.5,1.0,63,100.0
586,F2,62.5,1.0,57,100.0
587,F3,62.5,1.0,57,100.0
588,B3,63.0,0.25,46,100.0
589,G#3,63.0,0.25,46,100.0
590,C4,63.25,0.25,47,100.0
591,A3,63.25,0.25,47,100.0
592,E4,63.5,0.25,49,100.0
593,B3,63.5,0.25,49,100.0
594,C4,63.75,0.25,50,100.0
595,F4,63.75,0.25,50,100.0
596,G#4,64.0,0.25,58,100.0
597,E4,64.0,0.25,58,100.0
598,A4,64.25,0.25,53,100.0
599,F4,64.25,0.25,53,100.0
600,E5,64.5,2.0,75,100.0
601,E6,64.5,2.0,75,100.0
602,G#5,64.5,2.0,75,100.0
603,E3,64.5,2.0,59,100.0
604,E2,64.5,2.0,59,100.0
605,B-3,65.0,0.25,42,100.0
606,G3,65.0,0.25,42,100.0
607,B3,65.25,0.25,45,100.0
608,G#3,65.25,0.25,45,100.0
609,E-4,65.5,0.25,46,100.0
610,G4,65.5,0.25,46,100.0
611,G#4,65.75,0.25,49,100.0
612,E4,65.75,0.25,49,100.0
613,G4,66.0,0.25,50,100.0
614,B-4,66.0,0.25,50,100.0
615,B4,66.25,0.25,52,100.0
616,G#4,66.25,0.25,52,100.0
617,B5,66.5,1.0,71,100.0
618,E5,66.5,1.0,71,100.0
619,E6,66.5,1.0,71,100.0
620,G#2,66.5,1.0,58,100.0
621,G#3,66.5,1.0,58,100.0
622,G3,67.0,0.25,45,100.0
623,B-3,67.0,0.25,45,100.0
624,B3,67.25,0.25,47,100.0
625,G#3,67.25,0.25,47,100.0
626,G4,67.5,0.25,49,100.0
627,E-4,67.5,0.25,49,100.0
628,G#4,67.75,0.25,50,100.0
629,E4,67.75,0.25,50,100.0
630,G4,68.0,0.25,58,100.0
631,B-4,68.0,0.25,58,100.0
632,G#4,68.25,0.25,58,100.0
633,B4,68.25,0.25,58,100.0
634,D6,68.375,0.125,66,100.0
635,D5,68.375,0.125,66,100.0
636,C#5,68.5,1.0,68,100.0
637,A5,68.5,1.0,68,100.0
638,C#6,68.5,1.0,68,100.0
639,A3,68.5,1.0,59,100.0
640,E3,68.5,1.0,59,100.0
641,A2,68.5,1.0,59,100.0
642,C4,69.0,0.25,47,100.0
643,E-4,69.0,0.25,47,100.0
644,E4,69.25,0.25,49,100.0
645,C#4,69.25,0.25,49,100.0
646,G#4,69.5,0.25,50,100.0
647,C5,69.5,0.25,50,100.0
648,A4,69.75,0.25,53,100.0
649,C#5,69.75,0.25,53,100.0
650,C5,70.0,0.25,62,100.0
651,E-5,70.0,0.25,62,100.0
652,C#5,70.25,0.125,59,100.0
653,E5,70.25,0.125,59,100.0
654,E6,70.375,0.125,69,100.0
655,E5,70.375,0.125,69,100.0
656,C#5,70.5,1.0,71,100.0
657,A4,70.5,1.0,71,100.0
658,A5,70.5,1.0,71,100.0
659,A2,70.5,1.0,61,100.0
660,E3,70.5,1.0,61,100.0
661,A3,70.5,1.0,61,100.0
662,C4,71.0,0.25,52,100.0
663,E-4,71.0,0.25,52,100.0
664,C#4,71.25,0.25,54,100.0
665,E4,71.25,0.25,54,100.0
666,G#4,71.5,0.25,56,100.0
667,C5,71.5,0.25,56,100.0
668,A4,71.75,0.25,58,100.0
669,C#5,71.75,0.25,58,100.0
670,C5,72.0,0.25,67,100.0
671,E-5,72.0,0.25,67,100.0
672,E5,72.25,0.25,62,100.0
673,C#5,72.25,0.25,62,100.0
674,A4,72.375,0.125,72,100.0
675,A5,72.375,0.125,72,100.0
676,C#6,72.5,1.5,85,100.0
677,G5,72.5,1.5,85,100.0
678,G6,72.5,1.5,85,100.0
679,B-3,72.5,2.0,71,100.0
680,B-2,72.5,2.0,71,100.0
681,E3,72.5,2.0,71,100.0
682,E-4,73.0,0.25,54,100.0
683,F#4,73.0,0.25,54,100.0
684,G4,73.25,0.25,56,100.0
685,E4,73.25,0.25,56,100.0
686,C5,73.5,0.25,58,100.0
687,E-5,73.5,0.25,58,100.0
688,C#5,73.75,0.25,60,100.0
689,E5,73.75,0.25,60,100.0
690,F#5,74.0,0.25,62,100.0
691,E-5,74.0,0.25,62,100.0
692,E5,74.25,0.25,64,100.0
693,G5,74.25,0.25,64,100.0
694,A4,74.5,1.0,78,100.0
695,A5,74.5,1.0,78,100.0
696,A2,74.5,1.0,70,100.0
697,A3,74.5,1.0,70,100.0
698,E-4,75.0,0.25,54,100.0
699,F#4,75.0,0.25,54,100.0
700,E4,75.25,0.25,56,100.0
701,G4,75.25,0.25,56,100.0
702,E-5,75.5,0.25,58,100.0
703,C5,75.5,0.25,58,100.0
704,C#5,75.75,0.25,60,100.0
705,E5,75.75,0.25,60,100.0
706,F#5,76.0,0.25,69,100.0
707,E-5,76.0,0.25,69,100.0
708,E5,76.25,0.25,64,100.0
709,G5,76.25,0.25,64,100.0
710,A5,76.375,0.125,72,100.0
711,A4,76.375,0.125,72,100.0
712,F#5,76.5,1.5,85,100.0
713,C6,76.5,1.5,85,100.0
714,F#6,76.5,1.5,85,100.0
715,E-3,76.5,2.0,68,100.0
716,B-2,76.5,2.0,68,100.0
717,B-3,76.5,2.0,68,100.0
718,D4,77.0,0.25,54,100.0
719,F4,77.0,0.25,54,100.0
720,E-4,77.25,0.25,56,100.0
721,F#4,77.25,0.25,56,100.0
722,B4,77.5,0.25,58,100.0
723,D5,77.5,0.25,58,100.0
724,C5,77.75,0.25,60,100.0
725,E-5,77.75,0.25,60,100.0
726,F5,78.0,0.25,62,100.0
727,D5,78.0,0.25,62,100.0
728,F#5,78.25,0.25,64,100.0
729,E-5,78.25,0.25,64,100.0
730,A4,78.5,1.0,78,100.0
731,A5,78.5,1.0,78,100.0
732,A3,78.5,1.0,67,100.0
733,A2,78.5,1.0,67,100.0
734,D4,79.0,0.25,54,100.0
735,F4,79.0,0.25,54,100.0
736,E-4,79.25,0.25,56,100.0
737,F#4,79.25,0.25,56,100.0
738,D5,79.5,0.25,58,100.0
739,B4,79.5,0.25,58,100.0
740,C5,79.75,0.25,60,100.0
741,E-5,79.75,0.25,60,100.0
742,F5,80.0,0.25,69,100.0
743,D5,80.0,0.25,69,100.0
744,E-5,80.25,0.25,64,100.0
745,F#5,80.25,0.25,64,100.0
746,A4,80.375,0.125,72,100.0
747,A5,80.375,0.125,72,100.0
748,G#5,80.5,1.0,75,100.0
749,F5,80.5,1.0,75,100.0
750,F6,80.5,1.0,75,100.0
751,D3,80.5,1.0,64,100.0
752,B2,80.5,1.0,64,100.0
753,B3,80.5,1.0,64,100.0
754,E4,81.0,0.25,54,100.0
755,C#4,81.0,0.25,54,100.0
756,F4,81.25,0.25,56,100.0
757,D4,81.25,0.25,56,100.0
758,B-4,81.5,0.25,58,100.0
759,G4,81.5,0.25,58,100.0
760,G#4,81.75,0.25,60,100.0
761,B4,81.75,0.25,60,100.0
762,E5,82.0,0.25,69,100.0
763,C#5,82.0,0.25,69,100.0
764,D5,82.25,0.25,64,100.0
765,F5,82.25,0.25,64,100.0
766,F6,82.375,0.125,72,100.0
767,F5,82.375,0.125,72,100.0
768,E5,82.5,1.0,75,100.0
769,G#5,82.5,1.0,75,100.0
770,E6,82.5,1.0,75,100.0
771,E3,82.5,1.0,64,100.0
772,E2,82.5,1.0,64,100.0
773,B2,82.5,1.0,64,100.0
774,B-3,83.0,0.25,54,100.0
775,G3,83.0,0.25,54,100.0
776,G#3,83.25,0.25,56,100.0
777,B3,83.25,0.25,56,100.0
778,E-4,83.5,0.25,58,100.0
779,G4,83.5,0.25,58,100.0
780,G#4,83.75,0.25,60,100.0
781,E4,83.75,0.25,60,100.0
782,B-4,84.0,0.25,69,100.0
783,G4,84.0,0.25,69,100.0
784,G#4,84.25,0.25,64,100.0
785,B4,84.25,0.25,64,100.0
786,D5,84.375,0.125,72,100.0
787,D6,84.375,0.125,72,100.0
788,A5,84.5,1.0,75,100.0
789,C#6,84.5,1.0,75,100.0
790,C#5,84.5,1.0,75,100.0
791,A3,84.5,1.0,64,100.0
792,A2,84.5,1.0,64,100.0
793,E3,84.5,1.0,64,100.0
794,C4,85.0,0.25,54,100.0
795,E-4,85.0,0.25,54,100.0
796,E4,85.25,0.25,56,100.0
797,C#4,85.25,0.25,56,100.0
798,C5,85.5,0.25,58,100.0
799,G#4,85.5,0.25,58,100.0
800,A4,85.75,0.25,60,100.0
801,C#5,85.75,0.25,60,100.0
802,E-5,86.0,0.25,69,100.0
803,C5,86.0,0.25,69,100.0
804,C#5,86.25,0.125,64,100.0
805,E5,86.25,0.125,64,100.0
806,E6,86.375,0.125,72,100.0
807,E5,86.375,0.125,72,100.0
808,C#5,86.5,1.0,75,100.0
809,A5,86.5,1.0,75,100.0
810,A4,86.5,1.0,75,100.0
811,A3,86.5,1.0,64,100.0
812,A2,86.5,1.0,64,100.0
813,E3,86.5,1.0,64,100.0
814,G#3,87.0,0.25,54,100.0
815,C4,87.0,0.25,54,100.0
816,C#4,87.25,0.25,56,100.0
817,A3,87.25,0.25,56,100.0
818,C4,87.5,0.25,58,100.0
819,E-4,87.5,0.25,58,100.0
820,C#4,87.75,0.25,60,100.0
821,E4,87.75,0.25,60,100.0
822,G#4,88.0,0.25,69,100.0
823,E-4,88.0,0.25,69,100.0
824,E4,88.25,0.25,64,100.0
825,A4,88.25,0.25,64,100.0
826,G5,88.5,1.5,76,100.0
827,C#5,88.5,1.5,76,100.0
828,G4,88.5,1.5,76,100.0
829,B-1,88.5,2.0,63,100.0
830,E2,88.5,2.0,63,100.0
831,B-2,88.5,2.0,63,100.0
832,E-3,89.0,0.25,48,100.0
833,F#3,89.0,0.25,48,100.0
834,E3,89.25,0.25,50,100.0
835,G3,89.25,0.25,50,100.0
836,C4,89.5,0.25,52,100.0
837,E-4,89.5,0.25,52,100.0
838,C#4,89.75,0.25,54,100.0
839,E4,89.75,0.25,54,100.0
840,E-4,90.0,0.25,56,100.0
841,F#4,90.0,0.25,56,100.0
842,G4,90.25,0.25,56,100.0
843,E4,90.25,0.25,56,100.0
844,A4,90.5,1.0,70,100.0
845,A3,90.5,1.0,70,100.0
846,A1,90.5,1.0,62,100.0
847,A2,90.5,1.0,62,100.0
848,E-3,91.0,0.25,48,100.0
849,F#3,91.0,0.25,48,100.0
850,E3,91.25,0.25,50,100.0
851,G3,91.25,0.25,50,100.0
852,E-4,91.5,0.25,52,100.0
853,C4,91.5,0.25,52,100.0
854,E4,91.75,0.25,54,100.0
855,C#4,91.75,0.25,54,100.0
856,E-4,92.0,0.25,62,100.0
857,F#4,92.0,0.25,62,100.0
858,E4,92.25,0.25,56,100.0
859,G4,92.25,0.25,56,100.0
860,A4,92.375,0.125,64,100.0
861,A3,92.375,0.125,64,100.0
862,F#5,92.5,1.5,76,100.0
863,C5,92.5,1.5,76,100.0
864,F#4,92.5,1.5,76,100.0
865,B-1,92.5,2.0,61,100.0
866,E-2,92.5,2.0,61,100.0
867,B-2,92.5,2.0,61,100.0
868,F3,93.0,0.25,48,100.0
869,D3,93.0,0.25,48,100.0
870,E-3,93.25,0.25,50,100.0
871,F#3,93.25,0.25,50,100.0
872,D4,93.5,0.25,52,100.0
873,B3,93.5,0.25,52,100.0
874,E-4,93.75,0.25,54,100.0
875,C4,93.75,0.25,54,100.0
876,F4,94.0,0.25,56,100.0
877,D4,94.0,0.25,56,100.0
878,E-4,94.25,0.25,56,100.0
879,F#4,94.25,0.25,56,100.0
880,A3,94.5,1.0,70,100.0
881,A4,94.5,1.0,70,100.0
882,A2,94.5,1.0,60,100.0
883,A1,94.5,1.0,60,100.0
884,F3,95.0,0.25,48,100.0
885,D3,95.0,0.25,48,100.0
886,E-3,95.25,0.25,50,100.0
887,F#3,95.25,0.25,50,100.0
888,B3,95.5,0.25,52,100.0
889,D4,95.5,0.25,52,100.0
890,E-4,95.75,0.25,54,100.0
891,C4,95.75,0.25,54,100.0
892,D4,96.0,0.25,62,100.0
893,F4,96.0,0.25,62,100.0
894,F#4,96.25,0.25,56,100.0
895,E-4,96.25,0.25,56,100.0
896,A3,96.375,0.125,64,100.0
897,A4,96.375,0.125,64,100.0
898,F4,96.5,1.0,67,100.0
899,G#4,96.5,1.0,67,100.0
900,F5,96.5,1.0,67,100.0
901,D2,96.5,1.0,57,100.0
902,B1,96.5,1.0,57,100.0
903,B2,96.5,1.0,57,100.0
904,E3,97.0,0.25,48,100.0
905,C#3,97.0,0.25,48,100.0
906,F3,97.25,0.25,50,100.0
907,D3,97.25,0.25,50,100.0
908,G3,97.5,0.25,52,100.0
909,B-3,97.5,0.25,52,100.0
910,B3,97.75,0.25,54,100.0
911,G#3,97.75,0.25,54,100.0
912,E4,98.0,0.25,62,100.0
913,C#4,98.0,0.25,62,100.0
914,F4,98.25,0.125,56,100.0
915,D4,98.25,0.125,56,100.0
916,F5,98.375,0.125,64,100.0
917,F4,98.375,0.125,64,100.0
918,E5,98.5,1.0,67,100.0
919,G#4,98.5,1.0,67,100.0
920,E4,98.5,1.0,67,100.0
921,B-2,98.5,1.0,57,100.0
922,D2,98.5,1.0,57,100.0
923,B-1,98.5,1.0,57,100.0
924,C#3,99.0,0.25,48,100.0
925,E3,99.0,0.25,48,100.0
926,F3,99.25,0.25,50,100.0
927,D3,99.25,0.25,50,100.0
928,A3,99.5,0.25,52,100.0
929,C#4,99.5,0.25,52,100.0
930,B-3,99.75,0.25,54,100.0
931,D4,99.75,0.25,54,100.0
932,G3,100.0,0.25,62,100.0
933,E-4,100.0,0.25,62,100.0
934,E4,100.25,0.25,56,100.0
935,G#3,100.25,0.25,56,100.0
936,D5,100.375,0.125,64,100.0
937,D4,100.375,0.125,64,100.0
938,A4,100.5,0.5,67,100.0
939,C#4,100.5,0.5,67,100.0
940,A3,100.5,0.5,67,100.0
941,A2,100.5,0.5,57,100.0
942,A1,100.5,0.5,57,100.0
943,E2,100.5,0.5,57,100.0
944,E4,101.5,333/1000,46,100.0
945,C#5,101.5,1.0,70,100.0
946,G3,101.5,333/1000,39,100.0
947,B-2,101.5,1.0,56,100.0
948,F4,101.833,333/1000,46,100.0
949,G#3,101.833,333/1000,39,100.0
950,F#4,102.167,333/1000,47,100.0
951,A3,102.167,333/1000,39,100.0
952,E5,102.5,1.0,73,100.0
953,G4,102.5,333/1000,48,100.0
954,C#3,102.5,1.0,59,100.0
955,B-3,102.5,333/1000,40,100.0
956,G#4,102.833,333/1000,48,100.0
957,B3,102.833,333/1000,41,100.0
958,A4,103.167,333/1000,49,100.0
959,C4,103.167,333/1000,41,100.0
960,G5,103.5,1.0,77,100.0
961,B-4,103.5,333/1000,50,100.0
962,C#4,103.5,333/1000,41,100.0
963,E3,103.5,1.0,62,100.0
964,B4,103.833,333/1000,50,100.0
965,D4,103.833,333/1000,42,100.0
966,C5,104.167,333/1000,51,100.0
967,E-4,104.167,333/1000,43,100.0
968,B-5,104.5,1.0,80,100.0
969,C#5,104.5,333/1000,51,100.0
970,G3,104.5,1.0,65,100.0
971,E4,104.5,333/1000,43,100.0
972,D5,104.833,333/1000,52,100.0
973,D4,104.833,333/1000,43,100.0
974,E5,105.167,333/1000,52,100.0
975,C#4,105.167,333/1000,44,100.0
976,B4,105.5,333/1000,43,100.0
977,B5,105.5,1.0,77,100.0
978,B3,105.5,1.0,38,100.0
979,F4,105.5,1.0,38,100.0
980,D3,105.5,1.0,38,100.0
981,G#3,105.5,1.0,38,100.0
982,F5,105.833,333/1000,55,100.0
983,G#5,106.167,333/1000,55,100.0
984,E5,106.5,0.5,66,100.0
985,C#6,106.5,0.5,66,100.0
986,A5,106.5,0.5,66,100.0
987,E6,106.5,0.5,66,100.0
988,A2,106.5,0.5,57,100.0
989,A3,106.5,0.5,57,100.0
990,E3,106.5,0.5,57,100.0
991,C#6,107.5,1.0,70,100.0
992,E5,107.5,333/1000,46,100.0
993,B-3,107.5,1.0,56,100.0
994,G4,107.5,333/1000,39,100.0
995,F5,107.833,333/1000,46,100.0
996,G#4,107.833,333/1000,39,100.0
997,F#5,108.167,333/1000,47,100.0
998,A4,108.167,333/1000,39,100.0
999,G5,108.5,333/1000,48,100.0
1000,E6,108.5,1.0,73,100.0
1001,C#4,108.5,1.0,59,100.0
1002,B-4,108.5,333/1000,40,100.0
1003,G#5,108.833,333/1000,48,100.0
1004,B4,108.833,333/1000,41,100.0
1005,A5,109.167,333/1000,49,100.0
1006,C5,109.167,333/1000,41,100.0
1007,B-5,109.5,333/1000,50,100.0
1008,G6,109.5,1.0,77,100.0
1009,E4,109.5,1.0,62,100.0
1010,C#5,109.5,333/1000,41,100.0
1011,B5,109.833,333/1000,50,100.0
1012,D5,109.833,333/1000,42,100.0
1013,C6,110.167,333/1000,51,100.0
1014,E-5,110.167,333/1000,43,100.0
1015,B-6,110.5,1.0,80,100.0
1016,C#6,110.5,333/1000,51,100.0
1017,E5,110.5,333/1000,43,100.0
1018,G4,110.5,1.0,65,100.0
1019,D6,110.833,333/1000,52,100.0
1020,D5,110.833,333/1000,43,100.0
1021,E6,111.167,333/1000,52,100.0
1022,C#5,111.167,333/1000,44,100.0
1023,B6,111.5,1.0,77,100.0
1024,B5,111.5,333/1000,50,100.0
1025,B4,111.5,0.5,38,100.0
1026,D4,111.5,0.5,38,100.0
1027,G#4,111.5,0.5,38,100.0
1028,F5,111.5,0.5,38,100.0
1029,F6,111.833,333/1000,55,100.0
1030,G#6,112.167,333/1000,55,100.0
1031,A6,112.5,0.5,72,100.0
1032,C#7,112.5,0.5,72,100.0
1033,E6,112.5,0.5,72,100.0
1034,E7,112.5,0.5,72,100.0
1035,A4,112.5,0.5,56,100.0
1036,A3,112.5,0.5,56,100.0
1037,E4,112.5,0.5,56,100.0
1038,C#4,112.5,0.5,56,100.0
1039,B5,113.5,333/1000,55,100.0
1040,B6,113.5,1.0,67,100.0
1041,D3,113.5,0.5,51,100.0
1042,D4,113.5,0.5,51,100.0
1043,G#3,113.5,0.5,51,100.0
1044,F3,113.5,0.5,51,100.0
1045,F6,113.833,333/1000,55,100.0
1046,G#6,114.167,333/1000,55,100.0
1047,E7,114.5,0.5,72,100.0
1048,A6,114.5,0.5,72,100.0
1049,E6,114.5,0.5,72,100.0
1050,C#7,114.5,0.5,72,100.0
1051,A2,114.5,0.5,51,100.0
1052,E3,114.5,0.5,51,100.0
1053,A3,114.5,0.5,51,100.0
1054,C#3,114.5,0.5,51,100.0
1055,B5,115.5,333/1000,55,100.0
1056,B6,115.5,1.0,67,100.0
1057,D3,115.5,0.5,51,100.0
1058,F2,115.5,0.5,51,100.0
1059,D2,115.5,0.5,51,100.0
1060,G#2,115.5,0.5,51,100.0
1061,F6,115.833,333/1000,55,100.0
1062,G#6,116.167,333/1000,55,100.0
1063,C#7,116.5,0.5,72,100.0
1064,E6,116.5,0.5,72,100.0
1065,E7,116.5,0.5,72,100.0
1066,A6,116.5,0.5,72,100.0
1067,A1,116.5,0.5,51,100.0
1068,E2,116.5,0.5,51,100.0
1069,C#2,116.5,0.5,51,100.0
1070,A2,116.5,0.5,51,100.0
1071,B6,117.5,1.0,67,100.0
1072,B5,117.5,333/1000,55,100.0
1073,D3,117.5,0.5,51,100.0
1074,G#2,117.5,0.5,51,100.0
1075,F2,117.5,0.5,51,100.0
1076,D2,117.5,0.5,51,100.0
1077,F6,117.833,333/1000,55,100.0
1078,G#6,118.167,333/1000,55,100.0
1079,A6,118.5,0.5,72,100.0
1080,E6,118.5,0.5,72,100.0
1081,E7,118.5,0.5,72,100.0
1082,C#7,118.5,0.5,72,100.0
1083,C#2,118.5,0.5,56,100.0
1084,A1,118.5,0.5,56,100.0
1085,A2,118.5,0.5,56,100.0
1086,E2,118.5,0.5,56,100.0
1087,B-2,119.496,667/1000,50,100.0
1088,B-3,119.496,667/1000,50,100.0
1089,B-5,119.5,667/1000,68,100.0
1090,B-4,119.5,667/1000,68,100.0
1091,A2,120.165,333/1000,46,100.0
1092,A3,120.165,333/1000,46,100.0
1093,A4,120.167,333/1000,62,100.0
1094,A5,120.167,333/1000,62,100.0
1095,G3,120.496,333/1000,50,100.0
1096,G2,120.496,333/1000,50,100.0
1097,G4,120.5,333/1000,68,100.0
1098,G5,120.5,333/1000,68,100.0
1099,F3,120.831,333/1000,48,100.0
1100,F2,120.831,333/1000,48,100.0
1101,F5,120.833,333/1000,64,100.0
1102,F4,120.833,333/1000,64,100.0
1103,E5,121.167,333/1000,64,100.0
1104,E4,121.167,333/1000,64,100.0
1105,E3,121.169,333/1000,48,100.0
1106,E2,121.169,333/1000,48,100.0
1107,D5,121.5,333/1000,59,100.0
1108,D4,121.5,333/1000,59,100.0
1109,D3,121.5,333/1000,44,100.0
1110,D2,121.5,333/1000,44,100.0
1111,C#3,121.831,333/1000,49,100.0
1112,C#2,121.831,333/1000,49,100.0
1113,C#4,121.833,333/1000,66,100.0
1114,C#5,121.833,333/1000,66,100.0
1115,E2,122.165,333/1000,46,100.0
1116,E3,122.165,333/1000,46,100.0
1117,E4,122.167,333/1000,62,100.0
1118,E5,122.167,333/1000,62,100.0
1119,C3,122.496,333/1000,50,100.0
1120,C2,122.496,333/1000,50,100.0
1121,C4,122.5,333/1000,68,100.0
1122,C5,122.5,333/1000,68,100.0
1123,E5,122.833,333/1000,64,100.0
1124,E4,122.833,333/1000,64,100.0
1125,E3,122.838,333/1000,47,100.0
1126,E2,122.838,333/1000,47,100.0
1127,B4,123.167,333/1000,68,100.0
1128,B3,123.167,333/1000,68,100.0
1129,B2,123.169,333/1000,50,100.0
1130,B1,123.169,333/1000,50,100.0
1131,E2,123.496,333/1000,46,100.0
1132,E3,123.496,333/1000,46,100.0
1133,E5,123.5,333/1000,62,100.0
1134,E4,123.5,333/1000,62,100.0
1135,B-2,123.831,333/1000,52,100.0
1136,B-1,123.831,333/1000,52,100.0
1137,B-4,123.833,333/1000,70,100.0
1138,B-3,123.833,333/1000,70,100.0
1139,E5,124.167,333/1000,64,100.0
1140,E4,124.167,333/1000,64,100.0
1141,E2,124.167,333/1000,48,100.0
1142,E3,124.167,333/1000,48,100.0
1143,A4,124.5,0.5,74,100.0
1144,A3,124.5,0.5,74,100.0
1145,A1,124.5,0.5,56,100.0
1146,A2,124.5,0.5,56,100.0
1147,C#6,125.5,667/1000,76,100.0
1148,C#5,125.5,667/1000,76,100.0
1149,C#4,125.502,667/1000,52,100.0
1150,C#3,125.502,667/1000,52,100.0
1151,B-2,126.162,333/1000,49,100.0
1152,B-3,126.162,333/1000,49,100.0
1153,B-4,126.167,333/1000,62,100.0
1154,B-5,126.167,333/1000,62,100.0
1155,A5,126.5,333/1000,68,100.0
1156,A4,126.5,333/1000,68,100.0
1157,A2,126.504,333/1000,52,100.0
1158,A3,126.504,333/1000,52,100.0
1159,G2,126.831,333/1000,47,100.0
1160,G3,126.831,333/1000,47,100.0
1161,G4,126.833,333/1000,64,100.0
1162,G5,126.833,333/1000,64,100.0
1163,F5,127.167,333/1000,62,100.0
1164,F4,127.167,333/1000,62,100.0
1165,F3,127.167,333/1000,47,100.0
1166,F2,127.167,333/1000,47,100.0
1167,E3,127.498,333/1000,52,100.0
1168,E2,127.498,333/1000,52,100.0
1169,E5,127.5,333/1000,66,100.0
1170,E4,127.5,333/1000,66,100.0
1171,G3,127.831,333/1000,46,100.0
1172,G2,127.831,333/1000,46,100.0
1173,G5,127.833,333/1000,59,100.0
1174,G4,127.833,333/1000,59,100.0
1175,E-5,128.167,333/1000,66,100.0
1176,E-4,128.167,333/1000,66,100.0
1177,E-3,128.169,333/1000,52,100.0
1178,E-2,128.169,333/1000,52,100.0
1179,G3,128.496,333/1000,45,100.0
1180,G2,128.496,333/1000,45,100.0
1181,G5,128.5,333/1000,61,100.0
1182,G4,128.5,333/1000,61,100.0
1183,D4,128.833,333/1000,68,100.0
1184,D5,128.833,333/1000,68,100.0
1185,D2,128.835,333/1000,52,100.0
1186,D3,128.835,333/1000,52,100.0
1187,G5,129.167,333/1000,61,100.0
1188,G4,129.167,333/1000,61,100.0
1189,G2,129.167,333/1000,46,100.0
1190,G3,129.167,333/1000,46,100.0
1191,C#2,129.496,333/1000,52,100.0
1192,C#3,129.496,333/1000,52,100.0
1193,C#5,129.5,333/1000,68,100.0
1194,C#4,129.5,333/1000,68,100.0
1195,G2,129.831,333/1000,46,100.0
1196,G3,129.831,333/1000,46,100.0
1197,G5,129.833,333/1000,62,100.0
1198,G4,129.833,333/1000,62,100.0
1199,B-3,130.167,333/1000,69,100.0
1200,B-4,130.167,333/1000,69,100.0
1201,B-1,130.167,333/1000,56,100.0
1202,B-2,130.167,333/1000,56,100.0
1203,G3,130.498,1/500,55,100.0
1204,G2,130.498,1/500,55,100.0
1205,G4,130.5,0.25,78,100.0
1206,G5,130.5,0.25,78,100.0
1207,G3,130.5,31/125,55,100.0
1208,G2,130.5,31/125,55,100.0
1209,A3,131.0,0.25,68,100.0
1210,A4,131.0,0.25,68,100.0
1211,A1,131.0,0.25,50,100.0
1212,A2,131.0,0.25,50,100.0
1213,E3,131.496,667/1000,48,100.0
1214,E4,131.496,667/1000,48,100.0
1215,E6,131.5,667/1000,68,100.0
1216,E5,131.5,667/1000,68,100.0
1217,D4,132.165,333/1000,41,100.0
1218,D3,132.165,333/1000,41,100.0
1219,D5,132.167,333/1000,59,100.0
1220,D6,132.167,333/1000,59,100.0
1221,C#4,132.496,333/1000,45,100.0
1222,C#3,132.496,333/1000,45,100.0
1223,C#6,132.5,333/1000,66,100.0
1224,C#5,132.5,333/1000,66,100.0
1225,B-3,132.829,333/1000,38,100.0
1226,B-2,132.829,333/1000,38,100.0
1227,B-5,132.833,333/1000,55,100.0
1228,B-4,132.833,333/1000,55,100.0
1229,A3,133.162,333/1000,38,100.0
1230,A2,133.162,333/1000,38,100.0
1231,A5,133.167,333/1000,55,100.0
1232,A4,133.167,333/1000,55,100.0
1233,G3,133.496,333/1000,45,100.0
1234,G4,133.496,333/1000,45,100.0
1235,G6,133.5,333/1000,66,100.0
1236,G5,133.5,333/1000,66,100.0
1237,F6,133.833,333/1000,64,100.0
1238,F5,133.833,333/1000,64,100.0
1239,F3,133.833,333/1000,44,100.0
1240,F4,133.833,333/1000,44,100.0
1241,E6,134.167,333/1000,62,100.0
1242,E5,134.167,333/1000,62,100.0
1243,E3,134.169,333/1000,43,100.0
1244,E4,134.169,333/1000,43,100.0
1245,D3,134.498,333/1000,42,100.0
1246,D4,134.498,333/1000,42,100.0
1247,D6,134.5,333/1000,60,100.0
1248,D5,134.5,333/1000,60,100.0
1249,C#6,134.833,333/1000,60,100.0
1250,C#5,134.833,333/1000,60,100.0
1251,C#3,134.833,333/1000,42,100.0
1252,C#4,134.833,333/1000,42,100.0
1253,B-5,135.167,333/1000,62,100.0
1254,B-6,135.167,333/1000,62,100.0
1255,B-4,135.167,333/1000,42,100.0
1256,B-3,135.167,333/1000,42,100.0
1257,A4,135.498,333/1000,48,100.0
1258,A3,135.498,333/1000,48,100.0
1259,A5,135.5,333/1000,70,100.0
1260,A6,135.5,333/1000,70,100.0
1261,G3,135.831,333/1000,47,100.0
1262,G4,135.831,333/1000,47,100.0
1263,G5,135.833,333/1000,68,100.0
1264,G6,135.833,333/1000,68,100.0
1265,F4,136.165,333/1000,44,100.0
1266,F3,136.165,333/1000,44,100.0
1267,F5,136.167,333/1000,64,100.0
1268,F6,136.167,333/1000,64,100.0
1269,E5,136.5,333/1000,60,100.0
1270,E6,136.5,333/1000,60,100.0
1271,E3,136.5,333/1000,42,100.0
1272,E4,136.5,333/1000,42,100.0
1273,E6,136.833,333/1000,76,100.0
1274,E7,136.833,333/1000,76,100.0
1275,E5,136.835,333/1000,52,100.0
1276,E4,136.835,333/1000,52,100.0
1277,D4,137.165,333/1000,52,100.0
1278,D5,137.165,333/1000,52,100.0
1279,D7,137.167,333/1000,74,100.0
1280,D6,137.167,333/1000,74,100.0
1281,C#7,137.5,333/1000,73,100.0
1282,C#6,137.5,333/1000,73,100.0
1283,C#4,137.502,333/1000,50,100.0
1284,C#5,137.502,333/1000,50,100.0
1285,B-4,137.831,333/1000,47,100.0
1286,B-3,137.831,333/1000,47,100.0
1287,B-5,137.833,333/1000,68,100.0
1288,B-6,137.833,333/1000,68,100.0
1289,A4,138.162,333/1000,52,100.0
1290,A3,138.162,333/1000,52,100.0
1291,A6,138.167,333/1000,74,100.0
1292,A5,138.167,333/1000,74,100.0
1293,B-4,138.496,333/1000,46,100.0
1294,B-3,138.496,333/1000,46,100.0
1295,B-6,138.5,333/1000,66,100.0
1296,B-5,138.5,333/1000,66,100.0
1297,G6,138.833,333/1000,74,100.0
1298,G5,138.833,333/1000,74,100.0
1299,G4,138.833,333/1000,52,100.0
1300,G3,138.833,333/1000,52,100.0
1301,B-3,139.165,333/1000,46,100.0
1302,B-4,139.165,333/1000,46,100.0
1303,B-5,139.167,333/1000,66,100.0
1304,B-6,139.167,333/1000,66,100.0
1305,F3,139.496,333/1000,52,100.0
1306,F4,139.496,333/1000,52,100.0
1307,F6,139.5,333/1000,74,100.0
1308,F5,139.5,333/1000,74,100.0
1309,G6,139.833,333/1000,66,100.0
1310,G5,139.833,333/1000,66,100.0
1311,G4,139.833,333/1000,46,100.0
1312,G3,139.833,333/1000,46,100.0
1313,E4,140.162,333/1000,52,100.0
1314,E3,140.162,333/1000,52,100.0
1315,E6,140.167,333/1000,74,100.0
1316,E5,140.167,333/1000,74,100.0
1317,G4,140.496,333/1000,46,100.0
1318,G3,140.496,333/1000,46,100.0
1319,G5,140.5,333/1000,66,100.0
1320,G6,140.5,333/1000,66,100.0
1321,D3,140.831,333/1000,52,100.0
1322,D4,140.831,333/1000,52,100.0
1323,D5,140.833,333/1000,76,100.0
1324,D6,140.833,333/1000,76,100.0
1325,E5,141.167,333/1000,68,100.0
1326,E6,141.167,333/1000,68,100.0
1327,E3,141.173,333/1000,47,100.0
1328,E4,141.173,333/1000,47,100.0
1329,C#5,141.5,333/1000,74,100.0
1330,C#6,141.5,333/1000,74,100.0
1331,C#3,141.5,333/1000,52,100.0
1332,C#4,141.5,333/1000,52,100.0
1333,E5,141.833,333/1000,66,100.0
1334,E6,141.833,333/1000,66,100.0
1335,E3,141.833,333/1000,46,100.0
1336,E4,141.833,333/1000,46,100.0
1337,B-2,142.165,333/1000,50,100.0
1338,B-3,142.165,333/1000,50,100.0
1339,B-5,142.167,333/1000,73,100.0
1340,B-4,142.167,333/1000,73,100.0
1341,C#3,142.498,1/500,45,100.0
1342,C#4,142.498,1/500,45,100.0
1343,C#6,142.5,333/1000,64,100.0
1344,C#5,142.5,333/1000,64,100.0
1345,C#3,142.5,331/1000,45,100.0
1346,C#4,142.5,331/1000,45,100.0
1347,A4,142.833,333/1000,71,100.0
1348,A5,142.833,333/1000,71,100.0
1349,A2,142.833,333/1000,49,100.0
1350,A3,142.833,333/1000,49,100.0
1351,B-2,143.165,333/1000,43,100.0
1352,B-3,143.165,333/1000,43,100.0
1353,B-4,143.167,333/1000,62,100.0
1354,B-5,143.167,333/1000,62,100.0
1355,G3,143.496,333/1000,47,100.0
1356,G2,143.496,333/1000,47,100.0
1357,G5,143.5,333/1000,68,100.0
1358,G4,143.5,333/1000,68,100.0
1359,B-2,143.829,333/1000,42,100.0
1360,B-3,143.829,333/1000,42,100.0
1361,B-4,143.833,333/1000,62,100.0
1362,B-5,143.833,333/1000,62,100.0
1363,F3,144.165,333/1000,50,100.0
1364,F2,144.165,333/1000,50,100.0
1365,F5,144.167,333/1000,72,100.0
1366,F4,144.167,333/1000,72,100.0
1367,G2,144.498,333/1000,44,100.0
1368,G3,144.498,333/1000,44,100.0
1369,G4,144.5,333/1000,64,100.0
1370,G5,144.5,333/1000,64,100.0
1371,E4,144.833,333/1000,69,100.0
1372,E5,144.833,333/1000,69,100.0
1373,E3,144.838,333/1000,48,100.0
1374,E2,144.838,333/1000,48,100.0
1375,G2,145.165,333/1000,44,100.0
1376,G3,145.165,333/1000,44,100.0
1377,G4,145.167,333/1000,64,100.0
1378,G5,145.167,333/1000,64,100.0
1379,D5,145.5,333/1000,70,100.0
1380,D4,145.5,333/1000,70,100.0
1381,D2,145.5,333/1000,48,100.0
1382,D3,145.5,333/1000,48,100.0
1383,E3,145.829,333/1000,45,100.0
1384,E2,145.829,333/1000,45,100.0
1385,E5,145.833,333/1000,64,100.0
1386,E4,145.833,333/1000,64,100.0
1387,C#5,146.167,333/1000,70,100.0
1388,C#4,146.167,333/1000,70,100.0
1389,C#2,146.167,333/1000,48,100.0
1390,C#3,146.167,333/1000,48,100.0
1391,E3,146.496,333/1000,44,100.0
1392,E2,146.496,333/1000,44,100.0
1393,E4,146.5,333/1000,64,100.0
1394,E5,146.5,333/1000,64,100.0
1395,B-1,146.829,333/1000,49,100.0
1396,B-2,146.829,333/1000,49,100.0
1397,B-4,146.833,333/1000,71,100.0
1398,B-3,146.833,333/1000,71,100.0
1399,C#2,147.162,333/1000,46,100.0
1400,C#3,147.162,333/1000,46,100.0
1401,C#5,147.167,333/1000,66,100.0
1402,C#4,147.167,333/1000,66,100.0
1403,A4,147.5,333/1000,72,100.0
1404,A3,147.5,333/1000,72,100.0
1405,A1,147.5,333/1000,50,100.0
1406,A2,147.5,333/1000,50,100.0
1407,B-1,147.831,333/1000,46,100.0
1408,B-2,147.831,333/1000,46,100.0
1409,B-4,147.833,333/1000,66,100.0
1410,B-3,147.833,333/1000,66,100.0
1411,G#2,148.165,333/1000,50,100.0
1412,G#1,148.165,333/1000,50,100.0
1413,G#3,148.167,333/1000,73,100.0
1414,G#4,148.167,333/1000,73,100.0
1415,A3,148.5,333/1000,66,100.0
1416,A4,148.5,333/1000,66,100.0
1417,A1,148.5,333/1000,46,100.0
1418,A2,148.5,333/1000,46,100.0
1419,G2,148.831,333/1000,50,100.0
1420,G1,148.831,333/1000,50,100.0
1421,G3,148.833,333/1000,73,100.0
1422,G4,148.833,333/1000,73,100.0
1423,A4,149.167,333/1000,66,100.0
1424,A3,149.167,333/1000,66,100.0
1425,A2,149.171,333/1000,46,100.0
1426,A1,149.171,333/1000,46,100.0
1427,F#1,149.496,333/1000,50,100.0
1428,F#2,149.496,333/1000,50,100.0
1429,F#3,149.5,333/1000,73,100.0
1430,F#4,149.5,333/1000,73,100.0
1431,A3,149.833,333/1000,68,100.0
1432,A4,149.833,333/1000,68,100.0
1433,A1,149.833,333/1000,47,100.0
1434,A2,149.833,333/1000,47,100.0
1435,F4,150.167,333/1000,74,100.0
1436,F3,150.167,333/1000,74,100.0
1437,F1,150.167,333/1000,52,100.0
1438,F2,150.167,333/1000,52,100.0
1439,A2,150.496,333/1000,46,100.0
1440,A1,150.496,333/1000,46,100.0
1441,A3,150.5,333/1000,66,100.0
1442,A4,150.5,333/1000,66,100.0
1443,E1,150.831,333/1000,52,100.0
1444,E2,150.831,333/1000,52,100.0
1445,E4,150.833,333/1000,74,100.0
1446,E3,150.833,333/1000,74,100.0
1447,A2,151.162,333/1000,47,100.0
1448,A1,151.162,333/1000,47,100.0
1449,A4,151.167,333/1000,68,100.0
1450,A3,151.167,333/1000,68,100.0
1451,E-4,151.5,0.5,74,100.0
1452,E-3,151.5,0.5,74,100.0
1453,E-1,151.504,0.5,52,100.0
1454,E-2,151.504,0.5,52,100.0
1455,A2,151.996,0.5,46,100.0
1456,A1,151.996,0.5,46,100.0
1457,A3,152.0,0.5,66,100.0
1458,A4,152.0,0.5,66,100.0
1459,C1,152.496,0.5,52,100.0
1460,C2,152.496,0.5,52,100.0
1461,C4,152.5,0.5,76,100.0
1462,C3,152.5,0.5,76,100.0
1463,A3,153.0,0.5,69,100.0
1464,A4,153.0,0.5,69,100.0
1465,A2,153.0,0.5,48,100.0
1466,A1,153.0,0.5,48,100.0
1467,C#1,153.498,0.5,54,100.0
1468,C#2,153.498,0.5,54,100.0
1469,C#3,153.5,0.5,76,100.0
1470,C#4,153.5,0.5,76,100.0
1471,A3,154.0,0.5,71,100.0
1472,A4,154.0,0.5,71,100.0
1473,A1,154.002,249/500,49,100.0
1474,A2,154.002,249/500,49,100.0
1475,D6,154.5,2.0,83,100.0
1476,D5,154.5,2.0,83,100.0
1477,F5,154.5,2.0,83,100.0
1478,A2,154.5,333/1000,64,100.0
1479,D3,154.5,333/1000,64,100.0
1480,D2,154.5,333/1000,64,100.0
1481,A1,154.5,1/500,49,100.0
1482,A2,154.5,1/500,49,100.0
1483,E3,154.833,333/1000,54,100.0
1484,G#3,154.833,333/1000,54,100.0
1485,A3,155.167,333/1000,56,100.0
1486,F3,155.167,333/1000,56,100.0
1487,E4,155.5,333/1000,58,100.0
1488,C#4,155.5,333/1000,58,100.0
1489,D4,155.833,333/1000,60,100.0
1490,F4,155.833,333/1000,60,100.0
1491,D2,156.167,667/1000,75,100.0
1492,D6,156.5,1.0,85,100.0
1493,F5,156.5,1.0,85,100.0
1494,D5,156.5,1.0,85,100.0
1495,A2,156.5,333/1000,70,100.0
1496,D3,156.5,333/1000,70,100.0
1497,G#3,156.833,333/1000,54,100.0
1498,E3,156.833,333/1000,54,100.0
1499,A3,157.167,333/1000,56,100.0
1500,F3,157.167,333/1000,56,100.0
1501,E4,157.5,333/1000,58,100.0
1502,C#4,157.5,333/1000,58,100.0
1503,D4,157.833,333/1000,60,100.0
1504,F4,157.833,333/1000,60,100.0
1505,D2,158.167,333/1000,75,100.0
1506,C5,158.25,0.25,80,100.0
1507,C6,158.25,0.25,80,100.0
1508,D2,158.5,333/1000,75,100.0
1509,B-5,158.5,1.0,84,100.0
1510,E5,158.5,1.0,84,100.0
1511,B-4,158.5,1.0,84,100.0
1512,G2,158.5,333/1000,71,100.0
1513,D3,158.5,333/1000,71,100.0
1514,F#3,158.833,333/1000,54,100.0
1515,A3,158.833,333/1000,54,100.0
1516,G3,159.167,333/1000,56,100.0
1517,B-3,159.167,333/1000,56,100.0
1518,E-4,159.5,333/1000,58,100.0
1519,F#4,159.5,333/1000,58,100.0
1520,E4,159.833,333/1000,60,100.0
1521,G4,159.833,333/1000,60,100.0
1522,D2,160.167,667/1000,75,100.0
1523,B-4,160.5,1.0,79,100.0
1524,E5,160.5,1.0,79,100.0
1525,B-5,160.5,1.0,79,100.0
1526,D3,160.5,333/1000,67,100.0
1527,G2,160.5,333/1000,67,100.0
1528,F#3,160.833,333/1000,54,100.0
1529,A3,160.833,333/1000,54,100.0
1530,B-3,161.167,333/1000,56,100.0
1531,G3,161.167,333/1000,56,100.0
1532,E-4,161.5,333/1000,58,100.0
1533,F#4,161.5,333/1000,58,100.0
1534,E4,161.833,333/1000,60,100.0
1535,G4,161.833,333/1000,60,100.0
1536,C#2,162.167,333/1000,75,100.0
1537,B-4,162.25,0.25,80,100.0
1538,B-5,162.25,0.25,80,100.0
1539,C#2,162.5,333/1000,75,100.0
1540,A4,162.5,1.0,82,100.0
1541,E5,162.5,1.0,82,100.0
1542,A5,162.5,1.0,82,100.0
1543,A2,162.5,333/1000,67,100.0
1544,C#3,162.5,333/1000,67,100.0
1545,F#3,162.833,333/1000,54,100.0
1546,E-3,162.833,333/1000,54,100.0
1547,G3,163.167,333/1000,56,100.0
1548,E3,163.167,333/1000,56,100.0
1549,E-4,163.5,333/1000,58,100.0
1550,C4,163.5,333/1000,58,100.0
1551,C#4,163.833,333/1000,60,100.0
1552,E4,163.833,333/1000,60,100.0
1553,A1,164.167,333/1000,75,100.0
1554,A4,164.25,0.25,80,100.0
1555,A5,164.25,0.25,80,100.0
1556,E6,164.5,1.0,82,100.0
1557,G5,164.5,1.0,82,100.0
1558,E5,164.5,1.0,82,100.0
1559,C#2,164.5,333/1000,72,100.0
1560,A2,164.5,333/1000,72,100.0
1561,E-3,164.833,333/1000,53,100.0
1562,F#3,164.833,333/1000,53,100.0
1563,G3,165.167,333/1000,55,100.0
1564,E3,165.167,333/1000,55,100.0
1565,C4,165.5,333/1000,55,100.0
1566,E-4,165.5,333/1000,55,100.0
1567,C#4,165.833,333/1000,57,100.0
1568,E4,165.833,333/1000,57,100.0
1569,D2,166.167,333/1000,70,100.0
1570,G4,166.25,0.25,66,100.0
1571,G5,166.25,0.25,66,100.0
1572,D2,166.5,333/1000,70,100.0
1573,F4,166.5,1.0,67,100.0
1574,A4,166.5,1.0,67,100.0
1575,F5,166.5,1.0,67,100.0
1576,D3,166.5,333/1000,64,100.0
1577,A2,166.5,333/1000,64,100.0
1578,G#3,166.833,333/1000,44,100.0
1579,E3,166.833,333/1000,44,100.0
1580,A3,167.167,333/1000,45,100.0
1581,F3,167.167,333/1000,45,100.0
1582,E4,167.5,333/1000,46,100.0
1583,C#4,167.5,333/1000,46,100.0
1584,D4,167.833,333/1000,46,100.0
1585,F4,167.833,333/1000,46,100.0
1586,D2,168.167,667/1000,63,100.0
1587,A4,168.25,0.25,61,100.0
1588,A5,168.25,0.25,61,100.0
1589,F4,168.5,1.0,63,100.0
1590,D5,168.5,1.0,63,100.0
1591,D4,168.5,1.0,63,100.0
1592,D3,168.5,333/1000,52,100.0
1593,A2,168.5,333/1000,52,100.0
1594,E3,168.833,333/1000,40,100.0
1595,G#3,168.833,333/1000,40,100.0
1596,F3,169.167,333/1000,40,100.0
1597,A3,169.167,333/1000,40,100.0
1598,E4,169.5,333/1000,40,100.0
1599,C#4,169.5,333/1000,40,100.0
1600,D4,169.833,333/1000,40,100.0
1601,F4,169.833,333/1000,40,100.0
1602,C2,170.167,333/1000,57,100.0
1603,C2,170.5,333/1000,57,100.0
1604,E5,170.5,1.0,62,100.0
1605,C6,170.5,1.0,62,100.0
1606,C5,170.5,1.0,62,100.0
1607,C3,170.5,333/1000,51,100.0
1608,G2,170.5,333/1000,51,100.0
1609,E-3,170.833,333/1000,42,100.0
1610,F#3,170.833,333/1000,42,100.0
1611,G3,171.167,333/1000,43,100.0
1612,E3,171.167,333/1000,43,100.0
1613,E-4,171.5,333/1000,44,100.0
1614,B3,171.5,333/1000,44,100.0
1615,C4,171.833,333/1000,46,100.0
1616,E4,171.833,333/1000,46,100.0
1617,E2,172.167,667/1000,57,100.0
1618,G5,172.5,1.0,62,100.0
1619,C5,172.5,1.0,62,100.0
1620,C6,172.5,1.0,62,100.0
1621,E3,172.5,333/1000,56,100.0
1622,C3,172.5,333/1000,56,100.0
1623,B3,172.833,333/1000,42,100.0
1624,F#3,172.833,333/1000,42,100.0
1625,C4,173.167,333/1000,43,100.0
1626,G3,173.167,333/1000,43,100.0
1627,F#4,173.5,333/1000,44,100.0
1628,E-4,173.5,333/1000,44,100.0
1629,E4,173.833,333/1000,46,100.0
1630,G4,173.833,333/1000,46,100.0
1631,F2,174.167,333/1000,57,100.0
1632,B-4,174.25,0.25,55,100.0
1633,B-5,174.25,0.25,55,100.0
1634,F2,174.5,333/1000,57,100.0
1635,G#4,174.5,1.0,56,100.0
1636,G#5,174.5,1.0,56,100.0
1637,C5,174.5,1.0,56,100.0
1638,F3,174.5,333/1000,56,100.0
1639,C3,174.5,333/1000,56,100.0
1640,B3,174.833,333/1000,38,100.0
1641,G3,174.833,333/1000,38,100.0
1642,G#3,175.167,333/1000,39,100.0
1643,C4,175.167,333/1000,39,100.0
1644,E4,175.5,333/1000,40,100.0
1645,G4,175.5,333/1000,40,100.0
1646,G#4,175.833,333/1000,42,100.0
1647,F4,175.833,333/1000,42,100.0
1648,F2,176.167,667/1000,57,100.0
1649,C5,176.25,0.25,56,100.0
1650,C6,176.25,0.25,56,100.0
1651,F4,176.5,1.0,59,100.0
1652,G#4,176.5,1.0,59,100.0
1653,F5,176.5,1.0,59,100.0
1654,F3,176.5,333/1000,48,100.0
1655,C3,176.5,333/1000,48,100.0
1656,B3,176.833,333/1000,37,100.0
1657,G3,176.833,333/1000,37,100.0
1658,C4,177.167,333/1000,38,100.0
1659,G#3,177.167,333/1000,38,100.0
1660,G4,177.5,333/1000,39,100.0
1661,E4,177.5,333/1000,39,100.0
1662,G#4,177.833,333/1000,40,100.0
1663,F4,177.833,333/1000,40,100.0
1664,E-2,178.167,333/1000,57,100.0
1665,E-2,178.5,333/1000,57,100.0
1666,E-6,178.5,1.0,66,100.0
1667,G5,178.5,1.0,66,100.0
1668,E-5,178.5,1.0,66,100.0
1669,E-3,178.5,333/1000,54,100.0
1670,B-2,178.5,333/1000,54,100.0
1671,F#3,178.833,333/1000,40,100.0
1672,A3,178.833,333/1000,40,100.0
1673,B-3,179.167,333/1000,40,100.0
1674,G3,179.167,333/1000,40,100.0
1675,F#4,179.5,333/1000,42,100.0
1676,D4,179.5,333/1000,42,100.0
1677,G4,179.833,333/1000,44,100.0
1678,E-4,179.833,333/1000,44,100.0
1679,G2,180.167,667/1000,61,100.0
1680,E-5,180.5,1.0,67,100.0
1681,E-6,180.5,1.0,67,100.0
1682,B-5,180.5,1.0,67,100.0
1683,E-3,180.5,333/1000,60,100.0
1684,G3,180.5,333/1000,60,100.0
1685,D4,180.833,333/1000,39,100.0
1686,A3,180.833,333/1000,39,100.0
1687,E-4,181.167,333/1000,42,100.0
1688,B-3,181.167,333/1000,42,100.0
1689,F#4,181.5,333/1000,43,100.0
1690,A4,181.5,333/1000,43,100.0
1691,B-4,181.833,333/1000,44,100.0
1692,G4,181.833,333/1000,44,100.0
1693,G#2,182.167,333/1000,61,100.0
1694,C#5,182.25,0.25,60,100.0
1695,C#6,182.25,0.25,60,100.0
1696,G#2,182.5,333/1000,61,100.0
1697,G#5,182.5,1.0,61,100.0
1698,C5,182.5,1.0,61,100.0
1699,C6,182.5,1.0,61,100.0
1700,E-3,182.5,333/1000,62,100.0
1701,G#3,182.5,333/1000,62,100.0
1702,B3,182.833,333/1000,41,100.0
1703,D4,182.833,333/1000,41,100.0
1704,E-4,183.167,333/1000,42,100.0
1705,C4,183.167,333/1000,42,100.0
1706,B4,183.5,333/1000,42,100.0
1707,G4,183.5,333/1000,42,100.0
1708,G#4,183.833,333/1000,45,100.0
1709,C5,183.833,333/1000,45,100.0
1710,G#2,184.167,667/1000,64,100.0
1711,E-5,184.25,0.25,62,100.0
1712,E-6,184.25,0.25,62,100.0
1713,G#5,184.5,1.0,64,100.0
1714,G#4,184.5,1.0,64,100.0
1715,C5,184.5,1.0,64,100.0
1716,G#3,184.5,333/1000,52,100.0
1717,E-3,184.5,333/1000,52,100.0
1718,B3,184.833,333/1000,40,100.0
1719,D4,184.833,333/1000,40,100.0
1720,E-4,185.167,333/1000,42,100.0
1721,C4,185.167,333/1000,42,100.0
1722,B4,185.5,333/1000,42,100.0
1723,G4,185.5,333/1000,42,100.0
1724,G#4,185.833,333/1000,44,100.0
1725,C5,185.833,333/1000,44,100.0
1726,G#2,186.167,333/1000,64,100.0
1727,G#2,186.5,333/1000,64,100.0
1728,F5,186.5,1.0,65,100.0
1729,F6,186.5,1.0,65,100.0
1730,B5,186.5,1.0,65,100.0
1731,D3,186.5,333/1000,53,100.0
1732,G#3,186.5,333/1000,53,100.0
1733,E4,186.833,333/1000,43,100.0
1734,C#4,186.833,333/1000,43,100.0
1735,F4,187.167,333/1000,44,100.0
1736,D4,187.167,333/1000,44,100.0
1737,C#5,187.5,333/1000,46,100.0
1738,B-4,187.5,333/1000,46,100.0
1739,D5,187.833,333/1000,48,100.0
1740,B4,187.833,333/1000,48,100.0
1741,G#2,188.167,667/1000,59,100.0
1742,F6,188.5,1.0,65,100.0
1743,F5,188.5,1.0,65,100.0
1744,B5,188.5,1.0,65,100.0
1745,G#3,188.5,333/1000,58,100.0
1746,D3,188.5,333/1000,58,100.0
1747,C#4,188.833,333/1000,44,100.0
1748,E4,188.833,333/1000,44,100.0
1749,F4,189.167,333/1000,45,100.0
1750,D4,189.167,333/1000,45,100.0
1751,C#5,189.5,333/1000,47,100.0
1752,B-4,189.5,333/1000,47,100.0
1753,D5,189.833,333/1000,49,100.0
1754,B4,189.833,333/1000,49,100.0
1755,G#2,190.167,333/1000,60,100.0
1756,F5,190.25,0.25,58,100.0
1757,F6,190.25,0.25,58,100.0
1758,G#2,190.5,333/1000,60,100.0
1759,G#6,190.5,1.0,71,100.0
1760,G#5,190.5,1.0,71,100.0
1761,C6,190.5,1.0,71,100.0
1762,G#3,190.5,333/1000,59,100.0
1763,E-3,190.5,333/1000,59,100.0
1764,D4,190.833,333/1000,40,100.0
1765,B3,190.833,333/1000,40,100.0
1766,E-4,191.167,333/1000,42,100.0
1767,C4,191.167,333/1000,42,100.0
1768,G4,191.5,333/1000,50,100.0
1769,B4,191.5,333/1000,50,100.0
1770,C5,191.833,333/1000,50,100.0
1771,G#4,191.833,333/1000,50,100.0
1772,G#2,192.167,667/1000,60,100.0
1773,G#5,192.5,1.0,63,100.0
1774,E-6,192.5,1.0,63,100.0
1775,E-5,192.5,1.0,63,100.0
1776,C3,192.5,333/1000,50,100.0
1777,G#3,192.5,333/1000,50,100.0
1778,B3,192.833,333/1000,39,100.0
1779,D4,192.833,333/1000,39,100.0
1780,E-4,193.167,333/1000,40,100.0
1781,C4,193.167,333/1000,40,100.0
1782,B4,193.5,333/1000,49,100.0
1783,G4,193.5,333/1000,49,100.0
1784,G#4,193.833,333/1000,49,100.0
1785,C5,193.833,333/1000,49,100.0
1786,G#2,194.167,333/1000,61,100.0
1787,G#2,194.5,333/1000,61,100.0
1788,F6,194.5,1.0,67,100.0
1789,B5,194.5,1.0,67,100.0
1790,F5,194.5,1.0,67,100.0
1791,G#3,194.5,333/1000,54,100.0
1792,D3,194.5,333/1000,54,100.0
1793,E4,194.833,333/1000,44,100.0
1794,C#4,194.833,333/1000,44,100.0
1795,F4,195.167,333/1000,46,100.0
1796,D4,195.167,333/1000,46,100.0
1797,B-4,195.5,333/1000,48,100.0
1798,C#5,195.5,333/1000,48,100.0
1799,D5,195.833,333/1000,50,100.0
1800,B4,195.833,333/1000,50,100.0
1801,G#2,196.167,667/1000,62,100.0
1802,F5,196.5,1.0,68,100.0
1803,B5,196.5,1.0,68,100.0
1804,F6,196.5,1.0,68,100.0
1805,G#3,196.5,333/1000,60,100.0
1806,D3,196.5,333/1000,60,100.0
1807,C#4,196.833,333/1000,45,100.0
1808,E4,196.833,333/1000,45,100.0
1809,D4,197.167,333/1000,46,100.0
1810,F4,197.167,333/1000,46,100.0
1811,B-4,197.5,333/1000,48,100.0
1812,C#5,197.5,333/1000,48,100.0
1813,B4,197.833,333/1000,51,100.0
1814,D5,197.833,333/1000,51,100.0
1815,G#2,198.167,333/1000,62,100.0
1816,F5,198.25,0.25,60,100.0
1817,F6,198.25,0.25,60,100.0
1818,G#2,198.5,333/1000,62,100.0
1819,G#6,198.5,1.0,68,100.0
1820,G#5,198.5,1.0,68,100.0
1821,C6,198.5,1.0,68,100.0
1822,G#3,198.5,333/1000,56,100.0
1823,E-3,198.5,333/1000,56,100.0
1824,B3,198.833,333/1000,45,100.0
1825,D4,198.833,333/1000,45,100.0
1826,C4,199.167,333/1000,46,100.0
1827,E-4,199.167,333/1000,46,100.0
1828,B4,199.5,333/1000,49,100.0
1829,G4,199.5,333/1000,49,100.0
1830,C5,199.833,333/1000,51,100.0
1831,G#4,199.833,333/1000,51,100.0
1832,G#2,200.167,667/1000,63,100.0
1833,G#3,200.5,333/1000,63,100.0
1834,G#6,200.5,1.0,72,100.0
1835,G#5,200.5,1.0,72,100.0
1836,C#4,200.833,333/1000,46,100.0
1837,E4,200.833,333/1000,46,100.0
1838,F4,201.167,333/1000,48,100.0
1839,D4,201.167,333/1000,48,100.0
1840,B-4,201.5,333/1000,50,100.0
1841,C#5,201.5,333/1000,50,100.0
1842,D5,201.833,333/1000,52,100.0
1843,B4,201.833,333/1000,52,100.0
1844,G#5,202.25,0.25,61,100.0
1845,G#6,202.25,0.25,61,100.0
1846,G#2,202.25,0.25,63,100.0
1847,G#3,202.25,0.25,63,100.0
1848,A5,202.5,1.0,80,100.0
1849,A6,202.5,1.0,80,100.0
1850,A3,202.5,1.0,63,100.0
1851,A2,202.5,1.0,63,100.0
1852,E4,202.833,333/1000,46,100.0
1853,G#4,202.833,333/1000,46,100.0
1854,F4,203.167,333/1000,48,100.0
1855,A4,203.167,333/1000,48,100.0
1856,C#5,203.5,333/1000,50,100.0
1857,E5,203.5,333/1000,50,100.0
1858,D5,203.833,333/1000,52,100.0
1859,F5,203.833,333/1000,52,100.0
1860,F2,204.167,667/1000,64,100.0
1861,F3,204.5,333/1000,64,100.0
1862,F6,204.5,1.0,76,100.0
1863,F5,204.5,1.0,76,100.0
1864,C#4,204.833,333/1000,46,100.0
1865,E4,204.833,333/1000,46,100.0
1866,D4,205.167,333/1000,48,100.0
1867,F4,205.167,333/1000,48,100.0
1868,C#5,205.5,333/1000,50,100.0
1869,G#4,205.5,333/1000,50,100.0
1870,A4,205.833,333/1000,52,100.0
1871,D5,205.833,333/1000,52,100.0
1872,D2,206.167,333/1000,64,100.0
1873,D3,206.5,333/1000,64,100.0
1874,D2,206.5,333/1000,64,100.0
1875,D5,206.5,1.0,78,100.0
1876,D6,206.5,1.0,78,100.0
1877,C#4,206.833,333/1000,47,100.0
1878,G#3,206.833,333/1000,47,100.0
1879,D4,207.167,333/1000,48,100.0
1880,A3,207.167,333/1000,48,100.0
1881,E4,207.5,333/1000,50,100.0
1882,G#4,207.5,333/1000,50,100.0
1883,A4,207.833,333/1000,53,100.0
1884,F4,207.833,333/1000,53,100.0
1885,A1,208.167,667/1000,65,100.0
1886,A2,208.5,333/1000,65,100.0
1887,A5,208.5,1.0,69,100.0
1888,A4,208.5,1.0,69,100.0
1889,G#3,208.833,333/1000,47,100.0
1890,E3,208.833,333/1000,47,100.0
1891,F3,209.167,333/1000,49,100.0
1892,A3,209.167,333/1000,49,100.0
1893,E4,209.5,333/1000,50,100.0
1894,C#4,209.5,333/1000,50,100.0
1895,F4,209.833,333/1000,53,100.0
1896,D4,209.833,333/1000,53,100.0
1897,B-1,210.167,333/1000,66,100.0
1898,B-2,210.5,333/1000,66,100.0
1899,B-1,210.5,333/1000,66,100.0
1900,B-4,210.5,1.0,81,100.0
1901,B-5,210.5,1.0,81,100.0
1902,A3,210.833,333/1000,48,100.0
1903,F#3,210.833,333/1000,48,100.0
1904,B-3,211.167,333/1000,50,100.0
1905,G3,211.167,333/1000,50,100.0
1906,F#4,211.5,333/1000,52,100.0
1907,D4,211.5,333/1000,52,100.0
1908,E-4,211.833,333/1000,54,100.0
1909,G4,211.833,333/1000,54,100.0
1910,G1,212.167,667/1000,66,100.0
1911,G2,212.5,333/1000,66,100.0
1912,G5,212.5,1.0,78,100.0
1913,G4,212.5,1.0,78,100.0
1914,D3,212.833,333/1000,48,100.0
1915,F#3,212.833,333/1000,48,100.0
1916,G3,213.167,333/1000,50,100.0
1917,E-3,213.167,333/1000,50,100.0
1918,A3,213.5,333/1000,52,100.0
1919,D4,213.5,333/1000,52,100.0
1920,B-3,213.833,333/1000,54,100.0
1921,E-4,213.833,333/1000,54,100.0
1922,E1,214.167,333/1000,66,100.0
1923,E2,214.5,333/1000,67,100.0
1924,E1,214.5,333/1000,66,100.0
1925,E5,214.5,1.0,80,100.0
1926,E4,214.5,1.0,80,100.0
1927,A2,214.833,333/1000,48,100.0
1928,C#3,214.833,333/1000,48,100.0
1929,B-2,215.167,333/1000,50,100.0
1930,D3,215.167,333/1000,50,100.0
1931,A3,215.5,333/1000,52,100.0
1932,F#3,215.5,333/1000,52,100.0
1933,G3,215.833,333/1000,54,100.0
1934,B-3,215.833,333/1000,54,100.0
1935,A1,216.167,667/1000,67,100.0
1936,A2,216.5,333/1000,67,100.0
1937,A4,216.5,1.0,78,100.0
1938,A5,216.5,1.0,78,100.0
1939,F#3,216.833,333/1000,49,100.0
1940,E-3,216.833,333/1000,49,100.0
1941,E3,217.167,333/1000,51,100.0
1942,G3,217.167,333/1000,51,100.0
1943,E-4,217.5,333/1000,52,100.0
1944,C4,217.5,333/1000,52,100.0
1945,C#4,217.833,333/1000,54,100.0
1946,E4,217.833,333/1000,54,100.0
1947,A3,218.25,0.25,62,100.0
1948,A4,218.25,0.25,62,100.0
1949,A1,218.25,0.25,64,100.0
1950,A2,218.25,0.25,64,100.0
1951,D4,218.5,1.0,74,100.0
1952,D5,218.5,1.0,74,100.0
1953,D2,218.5,1.0,68,100.0
1954,D3,218.5,1.0,68,100.0
1955,G#3,219.167,333/1000,46,100.0
1956,E3,219.167,333/1000,46,100.0
1957,A3,219.5,333/1000,50,100.0
1958,F#3,219.5,333/1000,50,100.0
1959,E4,219.833,333/1000,56,100.0
1960,G#4,219.833,333/1000,56,100.0
1961,A4,220.167,333/1000,59,100.0
1962,F4,220.167,333/1000,59,100.0
1963,G#5,220.5,333/1000,62,100.0
1964,E5,220.5,333/1000,62,100.0
1965,A5,220.833,333/1000,64,100.0
1966,F5,220.833,333/1000,64,100.0
1967,G#6,221.167,333/1000,68,100.0
1968,E6,221.167,333/1000,68,100.0
1969,A6,221.5,0.5,76,100.0
1970,F6,221.5,0.5,76,100.0
1971,D4,222.25,0.25,72,100.0
1972,D5,222.25,0.25,72,100.0
1973,D3,222.25,0.25,66,100.0
1974,D2,222.25,0.25,66,100.0
1975,C5,222.5,2.0,70,100.0
1976,C6,222.5,2.0,70,100.0
1977,F#5,222.5,2.0,70,100.0
1978,A2,222.5,2.0,66,100.0
1979,D2,222.5,2.0,66,100.0
1980,D3,222.5,2.0,66,100.0
1981,G#3,223.167,333/1000,46,100.0
1982,B3,223.167,333/1000,46,100.0
1983,A3,223.5,333/1000,50,100.0
1984,C4,223.5,333/1000,50,100.0
1985,G#4,223.833,333/1000,56,100.0
1986,B4,223.833,333/1000,56,100.0
1987,A4,224.167,333/1000,59,100.0
1988,C5,224.167,333/1000,59,100.0
1989,B5,224.5,333/1000,62,100.0
1990,G#5,224.5,333/1000,62,100.0
1991,A5,224.833,333/1000,64,100.0
1992,C6,224.833,333/1000,64,100.0
1993,G#6,225.167,333/1000,68,100.0
1994,B6,225.167,333/1000,68,100.0
1995,A6,225.5,0.5,76,100.0
1996,C7,225.5,0.5,76,100.0
1997,D5,226.25,0.25,72,100.0
1998,D4,226.25,0.25,72,100.0
1999,D2,226.25,0.25,66,100.0
2000,D3,226.25,0.25,66,100.0
2001,B5,226.5,2.0,70,100.0
2002,B4,226.5,2.0,70,100.0
2003,F5,226.5,2.0,70,100.0
2004,D2,226.5,2.0,66,100.0
2005,D3,226.5,2.0,66,100.0
2006,G#2,226.5,2.0,66,100.0
2007,G3,227.167,333/1000,46,100.0
2008,B-3,227.167,333/1000,46,100.0
2009,B3,227.5,333/1000,50,100.0
2010,G#3,227.5,333/1000,50,100.0
2011,G4,227.833,333/1000,56,100.0
2012,B-4,227.833,333/1000,56,100.0
2013,B4,228.167,333/1000,59,100.0
2014,G#4,228.167,333/1000,59,100.0
2015,B-5,228.5,333/1000,62,100.0
2016,G5,228.5,333/1000,62,100.0
2017,G#5,228.833,333/1000,64,100.0
2018,B5,228.833,333/1000,64,100.0
2019,B-6,229.167,333/1000,68,100.0
2020,G6,229.167,333/1000,68,100.0
2021,G#6,229.5,0.5,76,100.0
2022,B6,229.5,0.5,76,100.0
2023,D4,230.25,0.25,72,100.0
2024,D5,230.25,0.25,72,100.0
2025,D3,230.25,0.25,66,100.0
2026,D2,230.25,0.25,66,100.0
2027,B-5,230.5,1.0,80,100.0
2028,B-4,230.5,1.0,80,100.0
2029,B-1,230.5,1.0,67,100.0
2030,B-2,230.5,1.0,67,100.0
2031,E-3,230.833,333/1000,48,100.0
2032,F#3,230.833,333/1000,48,100.0
2033,G3,231.167,333/1000,50,100.0
2034,E3,231.167,333/1000,50,100.0
2035,C4,231.5,333/1000,52,100.0
2036,E-4,231.5,333/1000,52,100.0
2037,E4,231.833,333/1000,54,100.0
2038,C#4,231.833,333/1000,54,100.0
2039,B-4,232.25,0.25,73,100.0
2040,B-5,232.25,0.25,73,100.0
2041,B-1,232.25,0.25,67,100.0
2042,B-2,232.25,0.25,67,100.0
2043,A4,232.5,1.0,78,100.0
2044,A5,232.5,1.0,78,100.0
2045,A2,232.5,1.0,67,100.0
2046,A1,232.5,1.0,67,100.0
2047,F#3,232.833,333/1000,49,100.0
2048,E-3,232.833,333/1000,49,100.0
2049,G3,233.167,333/1000,51,100.0
2050,E3,233.167,333/1000,51,100.0
2051,C4,233.5,333/1000,52,100.0
2052,E-4,233.5,333/1000,52,100.0
2053,C#4,233.833,333/1000,54,100.0
2054,E4,233.833,333/1000,54,100.0
2055,G4,234.25,0.25,62,100.0
2056,G5,234.25,0.25,62,100.0
2057,G1,234.25,0.25,64,100.0
2058,G2,234.25,0.25,64,100.0
2059,D5,234.5,1.0,70,100.0
2060,F#4,234.5,1.0,70,100.0
2061,D4,234.5,1.0,70,100.0
2062,A2,234.5,1.0,66,100.0
2063,D2,234.5,1.0,66,100.0
2064,D3,234.5,1.0,66,100.0
2065,G#3,235.167,333/1000,46,100.0
2066,E3,235.167,333/1000,46,100.0
2067,F#3,235.5,333/1000,50,100.0
2068,A3,235.5,333/1000,50,100.0
2069,F4,235.833,333/1000,56,100.0
2070,G#4,235.833,333/1000,56,100.0
2071,A4,236.167,333/1000,59,100.0
2072,F#4,236.167,333/1000,59,100.0
2073,G#5,236.5,333/1000,62,100.0
2074,F5,236.5,333/1000,62,100.0
2075,F#5,236.833,333/1000,64,100.0
2076,A5,236.833,333/1000,64,100.0
2077,F6,237.167,333/1000,68,100.0
2078,G#6,237.167,333/1000,68,100.0
2079,F#6,237.5,0.5,76,100.0
2080,A6,237.5,0.5,76,100.0
2081,D5,238.25,0.25,72,100.0
2082,D4,238.25,0.25,72,100.0
2083,D3,238.25,0.25,66,100.0
2084,D2,238.25,0.25,66,100.0
2085,C5,238.5,2.0,70,100.0
2086,F#5,238.5,2.0,70,100.0
2087,C6,238.5,2.0,70,100.0
2088,A2,238.5,2.0,66,100.0
2089,E-2,238.5,2.0,66,100.0
2090,E-3,238.5,2.0,66,100.0
2091,B3,239.167,333/1000,46,100.0
2092,G#3,239.167,333/1000,46,100.0
2093,A3,239.5,333/1000,50,100.0
2094,C4,239.5,333/1000,50,100.0
2095,G#4,239.833,333/1000,56,100.0
2096,B4,239.833,333/1000,56,100.0
2097,C5,240.167,333/1000,59,100.0
2098,A4,240.167,333/1000,59,100.0
2099,G#5,240.5,333/1000,62,100.0
2100,B5,240.5,333/1000,62,100.0
2101,A5,240.833,333/1000,64,100.0
2102,C6,240.833,333/1000,64,100.0
2103,B6,241.167,333/1000,68,100.0
2104,G#6,241.167,333/1000,68,100.0
2105,C7,241.5,0.5,76,100.0
2106,A6,241.5,0.5,76,100.0
2107,D5,242.25,0.25,72,100.0
2108,D4,242.25,0.25,72,100.0
2109,D2,242.25,0.25,66,100.0
2110,D3,242.25,0.25,66,100.0
2111,B4,242.5,2.0,70,100.0
2112,F5,242.5,2.0,70,100.0
2113,B5,242.5,2.0,70,100.0
2114,G#2,242.5,2.0,66,100.0
2115,E-2,242.5,2.0,66,100.0
2116,E-3,242.5,2.0,66,100.0
2117,B-3,243.167,333/1000,46,100.0
2118,G3,243.167,333/1000,46,100.0
2119,G#3,243.5,333/1000,50,100.0
2120,B3,243.5,333/1000,50,100.0
2121,G4,243.833,333/1000,56,100.0
2122,B-4,243.833,333/1000,56,100.0
2123,G#4,244.167,333/1000,59,100.0
2124,B4,244.167,333/1000,59,100.0
2125,G5,244.5,333/1000,62,100.0
2126,B-5,244.5,333/1000,62,100.0
2127,G#5,244.833,333/1000,64,100.0
2128,B5,244.833,333/1000,64,100.0
2129,G6,245.167,333/1000,68,100.0
2130,B-6,245.167,333/1000,68,100.0
2131,B6,245.5,0.5,76,100.0
2132,G#6,245.5,0.5,76,100.0
2133,D5,246.25,0.25,72,100.0
2134,D4,246.25,0.25,72,100.0
2135,D2,246.25,0.25,66,100.0
2136,D3,246.25,0.25,66,100.0
2137,B-5,246.5,1.0,80,100.0
2138,B-4,246.5,1.0,80,100.0
2139,B-1,246.5,1.0,67,100.0
2140,B-2,246.5,1.0,67,100.0
2141,E-3,246.833,333/1000,48,100.0
2142,F#3,246.833,333/1000,48,100.0
2143,E3,247.167,333/1000,50,100.0
2144,G3,247.167,333/1000,50,100.0
2145,E-4,247.5,333/1000,52,100.0
2146,C4,247.5,333/1000,52,100.0
2147,E4,247.833,333/1000,54,100.0
2148,C#4,247.833,333/1000,54,100.0
2149,B-4,248.25,0.25,73,100.0
2150,B-5,248.25,0.25,73,100.0
2151,B-1,248.25,0.25,67,100.0
2152,B-2,248.25,0.25,67,100.0
2153,A4,248.5,1.0,78,100.0
2154,A5,248.5,1.0,78,100.0
2155,A1,248.5,1.0,67,100.0
2156,A2,248.5,1.0,67,100.0
2157,F#3,248.833,333/1000,49,100.0
2158,E-3,248.833,333/1000,49,100.0
2159,G3,249.167,333/1000,51,100.0
2160,E3,249.167,333/1000,51,100.0
2161,C4,249.5,333/1000,52,100.0
2162,E-4,249.5,333/1000,52,100.0
2163,C#4,249.833,333/1000,54,100.0
2164,E4,249.833,333/1000,54,100.0
2165,G4,250.25,0.25,62,100.0
2166,G5,250.25,0.25,62,100.0
2167,G1,250.25,0.25,64,100.0
2168,G2,250.25,0.25,64,100.0
2169,F#4,250.5,0.5,67,100.0
2170,D5,250.5,0.5,67,100.0
2171,D4,250.5,0.5,67,100.0
2172,D2,250.5,0.5,57,100.0
2173,A2,250.5,0.5,57,100.0
2174,D3,250.5,0.5,57,100.0
2175,B-6,251.5,1.0,70,100.0
2176,C#6,251.5,333/1000,46,100.0
2177,E5,251.5,333/1000,39,100.0
2178,G4,251.5,1.0,56,100.0
2179,C6,251.833,333/1000,46,100.0
2180,E-5,251.833,333/1000,39,100.0
2181,B5,252.167,333/1000,47,100.0
2182,D5,252.167,333/1000,39,100.0
2183,B-5,252.5,333/1000,48,100.0
2184,G6,252.5,1.0,73,100.0
2185,C#5,252.5,333/1000,40,100.0
2186,E4,252.5,1.0,59,100.0
2187,A5,252.833,333/1000,48,100.0
2188,C5,252.833,333/1000,41,100.0
2189,G#5,253.167,333/1000,49,100.0
2190,B4,253.167,333/1000,41,100.0
2191,G5,253.5,333/1000,50,100.0
2192,E6,253.5,1.0,77,100.0
2193,C#4,253.5,1.0,62,100.0
2194,B-4,253.5,333/1000,41,100.0
2195,F#5,253.833,333/1000,50,100.0
2196,A4,253.833,333/1000,42,100.0
2197,F5,254.167,333/1000,51,100.0
2198,G#4,254.167,333/1000,43,100.0
2199,C#6,254.5,0.5,66,100.0
2200,E5,254.5,0.5,66,100.0
2201,B-3,254.5,0.5,54,100.0
2202,G4,254.5,0.5,54,100.0
2203,B-4,255.5,333/1000,47,100.0
2204,B-5,255.5,1.0,84,100.0
2205,C#3,255.5,0.5,42,100.0
2206,G3,255.5,0.5,42,100.0
2207,G2,255.5,0.5,42,100.0
2208,E3,255.5,0.5,42,100.0
2209,C#5,255.833,333/1000,60,100.0
2210,E5,256.167,333/1000,60,100.0
2211,D5,256.5,0.5,74,100.0
2212,D6,256.5,0.5,74,100.0
2213,F#5,256.5,0.5,74,100.0
2214,D4,256.5,0.5,61,100.0
2215,F#3,256.5,0.5,61,100.0
2216,D3,256.5,0.5,61,100.0
2217,A3,256.5,0.5,61,100.0
2218,B-5,257.5,1.0,70,100.0
2219,C#5,257.5,333/1000,46,100.0
2220,E4,257.5,333/1000,39,100.0
2221,G3,257.5,1.0,56,100.0
2222,C5,257.833,333/1000,46,100.0
2223,E-4,257.833,333/1000,39,100.0
2224,B4,258.167,333/1000,47,100.0
2225,D4,258.167,333/1000,39,100.0
2226,G5,258.5,1.0,73,100.0
2227,B-4,258.5,333/1000,48,100.0
2228,C#4,258.5,333/1000,40,100.0
2229,E3,258.5,1.0,59,100.0
2230,A4,258.833,333/1000,48,100.0
2231,C4,258.833,333/1000,41,100.0
2232,G#4,259.167,333/1000,49,100.0
2233,B3,259.167,333/1000,41,100.0
2234,E5,259.5,1.0,77,100.0
2235,G4,259.5,333/1000,50,100.0
2236,B-3,259.5,333/1000,41,100.0
2237,C#3,259.5,1.0,62,100.0
2238,F#4,259.833,333/1000,50,100.0
2239,A3,259.833,333/1000,42,100.0
2240,F4,260.167,333/1000,51,100.0
2241,G#3,260.167,333/1000,43,100.0
2242,E4,260.5,0.5,66,100.0
2243,C#5,260.5,0.5,66,100.0
2244,G3,260.5,0.5,54,100.0
2245,B-2,260.5,0.5,54,100.0
2246,B-4,261.5,1.0,84,100.0
2247,B-3,261.5,333/1000,47,100.0
2248,C#3,261.5,0.5,42,100.0
2249,E3,261.5,0.5,42,100.0
2250,G3,261.5,0.5,42,100.0
2251,G2,261.5,0.5,42,100.0
2252,C#4,261.833,333/1000,60,100.0
2253,E4,262.167,333/1000,60,100.0
2254,F#4,262.5,0.5,80,100.0
2255,D5,262.5,0.5,80,100.0
2256,D4,262.5,0.5,80,100.0
2257,D3,262.5,0.5,61,100.0
2258,F#2,262.5,0.5,61,100.0
2259,D2,262.5,0.5,61,100.0
2260,A2,262.5,0.5,61,100.0
2261,E5,263.5,1.0,70,100.0
2262,E4,263.5,333/1000,57,100.0
2263,B-2,263.5,0.5,53,100.0
2264,C#3,263.5,0.5,53,100.0
2265,G2,263.5,0.5,53,100.0
2266,G3,263.5,0.5,53,100.0
2267,B-4,263.833,333/1000,57,100.0
2268,C#5,264.167,333/1000,57,100.0
2269,A4,264.5,0.5,77,100.0
2270,F#5,264.5,0.5,77,100.0
2271,F#4,264.5,0.5,77,100.0
2272,D4,264.5,0.5,54,100.0
2273,A3,264.5,0.5,54,100.0
2274,F#3,264.5,0.5,54,100.0
2275,D3,264.5,0.5,54,100.0
2276,B-5,265.5,1.0,71,100.0
2277,B-4,265.5,333/1000,58,100.0
2278,G2,265.5,0.5,54,100.0
2279,C#3,265.5,0.5,54,100.0
2280,B-2,265.5,0.5,54,100.0
2281,G3,265.5,0.5,54,100.0
2282,C#5,265.833,333/1000,58,100.0
2283,E5,266.167,333/1000,59,100.0
2284,F#5,266.5,0.5,78,100.0
2285,D5,266.5,0.5,78,100.0
2286,D6,266.5,0.5,78,100.0
2287,F#2,266.5,0.5,55,100.0
2288,D2,266.5,0.5,55,100.0
2289,A2,266.5,0.5,55,100.0
2290,D3,266.5,0.5,55,100.0
2291,E6,267.5,1.0,73,100.0
2292,E5,267.5,333/1000,60,100.0
2293,B-1,267.5,0.5,56,100.0
2294,G1,267.5,0.5,56,100.0
2295,C#2,267.5,0.5,56,100.0
2296,G2,267.5,0.5,56,100.0
2297,B-5,267.833,333/1000,60,100.0
2298,C#6,268.167,333/1000,60,100.0
2299,F#6,268.5,0.5,81,100.0
2300,A5,268.5,0.5,81,100.0
2301,F#5,268.5,0.5,81,100.0
2302,D3,268.5,0.5,61,100.0
2303,F#2,268.5,0.5,61,100.0
2304,D2,268.5,0.5,61,100.0
2305,A2,268.5,0.5,61,100.0
2306,B-5,269.5,333/1000,61,100.0
2307,B-6,269.5,1.0,75,100.0
2308,B-1,269.5,0.5,57,100.0
2309,G2,269.5,0.5,57,100.0
2310,G1,269.5,0.5,57,100.0
2311,C#2,269.5,0.5,57,100.0
2312,C#6,269.833,333/1000,61,100.0
2313,E6,270.167,333/1000,62,100.0
2314,F#6,270.5,0.5,82,100.0
2315,D6,270.5,0.5,82,100.0
2316,D7,270.5,0.5,82,100.0
2317,D2,270.5,0.5,57,100.0
2318,A2,270.5,0.5,57,100.0
2319,D3,270.5,0.5,57,100.0
2320,F#2,270.5,0.5,57,100.0
2321,B-6,271.5,1.0,77,100.0
2322,B-5,271.5,333/1000,63,100.0
2323,C#2,271.5,0.5,58,100.0
2324,B-1,271.5,0.5,58,100.0
2325,G1,271.5,0.5,58,100.0
2326,G2,271.5,0.5,58,100.0
2327,C#6,271.833,333/1000,63,100.0
2328,E6,272.167,333/1000,63,100.0
2329,D6,272.5,0.5,84,100.0
2330,F#6,272.5,0.5,84,100.0
2331,D7,272.5,0.5,84,100.0
2332,D2,272.5,0.5,59,100.0
2333,D3,272.5,0.5,59,100.0
2334,F#2,272.5,0.5,59,100.0
2335,A2,272.5,0.5,59,100.0
2336,B-6,273.5,1.0,78,100.0
2337,B-5,273.5,333/1000,64,100.0
2338,G2,273.5,0.5,59,100.0
2339,G1,273.5,0.5,59,100.0
2340,B-1,273.5,0.5,59,100.0
2341,C#2,273.5,0.5,59,100.0
2342,C#6,273.833,333/1000,64,100.0
2343,E6,274.167,333/1000,64,100.0
2344,D7,274.5,0.5,74,100.0
2345,D6,274.5,0.5,74,100.0
2346,F#6,274.5,0.5,74,100.0
2347,D2,274.5,0.5,59,100.0
2348,F#2,274.5,0.5,59,100.0
2349,A2,274.5,0.5,59,100.0
2350,D3,274.5,0.5,59,100.0
2351,B-6,275.0,0.5,69,100.0
2352,B-5,275.0,0.5,69,100.0
2353,A5,275.5,0.5,61,100.0
2354,A4,275.5,0.5,61,100.0
2355,F#4,276.0,0.5,61,100.0
2356,F#5,276.0,0.5,61,100.0
2357,D5,276.5,0.5,68,100.0
2358,D6,276.5,0.5,68,100.0
2359,B-4,277.0,0.5,68,100.0
2360,B-5,277.0,0.5,68,100.0
2361,A3,277.5,0.5,56,100.0
2362,A4,277.5,0.5,56,100.0
2363,F#4,278.0,0.5,56,100.0
2364,F#3,278.0,0.5,56,100.0
2365,D5,278.5,0.5,68,100.0
2366,D4,278.5,0.5,68,100.0
2367,B-3,279.0,0.5,68,100.0
2368,B-4,279.0,0.5,68,100.0
2369,A3,279.5,0.5,57,100.0
2370,A2,279.5,0.5,57,100.0
2371,F#3,280.0,0.5,57,100.0
2372,F#2,280.0,0.5,57,100.0
2373,D3,280.5,0.5,66,100.0
2374,D4,280.5,0.5,66,100.0
2375,C3,281.0,0.5,52,100.0
2376,C2,281.0,0.5,52,100.0
2377,D4,281.5,0.5,66,100.0
2378,D3,281.5,0.5,66,100.0
2379,B1,282.0,0.5,50,100.0
2380,B2,282.0,0.5,50,100.0
2381,D4,282.5,0.5,64,100.0
2382,D3,282.5,0.5,64,100.0
2383,B-1,283.0,0.5,49,100.0
2384,B-2,283.0,0.5,49,100.0
2385,D4,283.5,0.5,64,100.0
2386,D3,283.5,0.5,64,100.0
2387,G1,284.0,0.5,47,100.0
2388,G2,284.0,0.5,47,100.0
2389,D4,284.5,0.5,62,100.0
2390,D3,284.5,0.5,62,100.0
2391,G#2,285.0,0.5,45,100.0
2392,G#1,285.0,0.5,45,100.0
2393,D4,285.5,0.5,62,100.0
2394,D3,285.5,0.5,62,100.0
2395,A1,286.0,0.5,43,100.0
2396,A2,286.0,0.5,43,100.0
2397,D1,286.5,0.25,51,100.0
2398,D2,286.5,0.25,51,100.0
2399,E-2,286.75,0.25,56,100.0
2400,E-3,286.75,0.25,56,100.0
2401,E1,287.0,0.25,51,100.0
2402,E2,287.0,0.25,51,100.0
2403,F3,287.25,0.25,56,100.0
2404,F2,287.25,0.25,56,100.0
2405,F#2,287.5,0.25,51,100.0
2406,F#1,287.5,0.25,51,100.0
2407,G3,287.75,0.25,56,100.0
2408,G2,287.75,0.25,56,100.0
2409,G#2,288.0,0.25,51,100.0
2410,G#1,288.0,0.25,51,100.0
2411,A2,288.25,0.25,56,100.0
2412,A3,288.25,0.25,56,100.0
2413,B-2,288.5,0.25,51,100.0
2414,B-1,288.5,0.25,51,100.0
2415,B2,288.75,0.25,56,100.0
2416,B3,288.75,0.25,56,100.0
2417,C2,289.0,0.25,51,100.0
2418,C3,289.0,0.25,51,100.0
2419,C#3,289.25,0.25,56,100.0
2420,C#4,289.25,0.25,56,100.0
2421,D2,289.5,0.25,51,100.0
2422,D3,289.5,0.25,51,100.0
2423,E-4,289.75,0.25,56,100.0
2424,E-3,289.75,0.25,56,100.0
2425,E3,290.0,0.25,51,100.0
2426,E2,290.0,0.25,51,100.0
2427,F3,290.25,0.25,56,100.0
2428,F4,290.25,0.25,56,100.0
2429,F#3,290.5,0.25,51,100.0
2430,F#2,290.5,0.25,51,100.0
2431,G3,290.75,0.25,57,100.0
2432,G4,290.75,0.25,57,100.0
2433,G#3,291.0,0.25,52,100.0
2434,G#2,291.0,0.25,52,100.0
2435,A4,291.25,0.25,58,100.0
2436,A3,291.25,0.25,58,100.0
2437,B-3,291.5,0.25,54,100.0
2438,B-2,291.5,0.25,54,100.0
2439,B4,291.75,0.25,60,100.0
2440,B3,291.75,0.25,60,100.0
2441,C3,292.0,0.25,56,100.0
2442,C4,292.0,0.25,56,100.0
2443,C#5,292.25,0.25,62,100.0
2444,C#4,292.25,0.25,62,100.0
2445,D4,292.5,0.25,57,100.0
2446,D3,292.5,0.25,57,100.0
2447,E-5,292.75,0.25,62,100.0
2448,E-4,292.75,0.25,62,100.0
2449,E3,293.0,0.25,58,100.0
2450,E4,293.0,0.25,58,100.0
2451,F5,293.25,0.25,64,100.0
2452,F4,293.25,0.25,64,100.0
2453,F#3,293.5,0.25,59,100.0
2454,F#4,293.5,0.25,59,100.0
2455,G5,293.75,0.25,64,100.0
2456,G4,293.75,0.25,64,100.0
2457,G#3,294.0,0.25,60,100.0
2458,G#4,294.0,0.25,60,100.0
2459,A5,294.25,0.25,66,100.0
2460,A4,294.25,0.25,66,100.0
2461,B-4,294.5,0.25,62,100.0
2462,B-3,294.5,0.25,62,100.0
2463,B4,294.75,0.25,67,100.0
2464,B5,294.75,0.25,67,100.0
2465,C4,295.0,0.25,62,100.0
2466,C5,295.0,0.25,62,100.0
2467,C#5,295.25,0.25,74,100.0
2468,C#6,295.25,0.25,74,100.0
2469,D5,295.5,0.25,64,100.0
2470,D4,295.5,0.25,64,100.0
2471,C#6,295.75,0.25,69,100.0
2472,C#5,295.75,0.25,69,100.0
2473,C5,296.0,0.25,62,100.0
2474,C4,296.0,0.25,62,100.0
2475,B4,296.25,0.25,68,100.0
2476,B5,296.25,0.25,68,100.0
2477,B-3,296.5,0.25,62,100.0
2478,B-4,296.5,0.25,62,100.0
2479,A4,296.75,0.25,67,100.0
2480,A5,296.75,0.25,67,100.0
2481,G#3,297.0,0.25,60,100.0
2482,G#4,297.0,0.25,60,100.0
2483,G5,297.25,0.25,66,100.0
2484,G4,297.25,0.25,66,100.0
2485,F#3,297.5,0.25,59,100.0
2486,F#4,297.5,0.25,59,100.0
2487,F5,297.75,0.25,64,100.0
2488,F4,297.75,0.25,64,100.0
2489,E4,298.0,0.25,58,100.0
2490,E3,298.0,0.25,58,100.0
2491,E-4,298.25,0.25,64,100.0
2492,E-5,298.25,0.25,64,100.0
2493,D3,298.5,0.25,57,100.0
2494,D4,298.5,0.25,57,100.0
2495,C#5,298.75,0.25,62,100.0
2496,C#4,298.75,0.25,62,100.0
2497,C4,299.0,0.25,56,100.0
2498,C3,299.0,0.25,56,100.0
2499,B3,299.25,0.25,62,100.0
2500,B4,299.25,0.25,62,100.0
2501,B-2,299.5,0.25,55,100.0
2502,B-3,299.5,0.25,55,100.0
2503,A4,299.75,0.25,60,100.0
2504,A3,299.75,0.25,60,100.0
2505,G#3,300.0,0.25,54,100.0
2506,G#2,300.0,0.25,54,100.0
2507,G4,300.25,0.25,57,100.0
2508,G3,300.25,0.25,57,100.0
2509,F#2,300.5,0.25,52,100.0
2510,F#3,300.5,0.25,52,100.0
2511,F4,300.75,0.25,56,100.0
2512,F3,300.75,0.25,56,100.0
2513,E3,301.0,0.25,51,100.0
2514,E2,301.0,0.25,51,100.0
2515,E-4,301.25,0.25,56,100.0
2516,E-3,301.25,0.25,56,100.0
2517,D2,301.5,0.25,50,100.0
2518,D3,301.5,0.25,50,100.0
2519,C#3,301.75,0.25,55,100.0
2520,C#4,301.75,0.25,55,100.0
2521,C3,302.0,0.25,50,100.0
2522,C2,302.0,0.25,50,100.0
2523,B3,302.25,0.25,52,100.0
2524,B2,302.25,0.25,52,100.0
2525,B-1,302.5,0.25,48,100.0
2526,B-2,302.5,0.25,48,100.0
2527,A3,302.75,0.25,51,100.0
2528,A2,302.75,0.25,51,100.0
2529,G#1,303.0,0.25,47,100.0
2530,G#2,303.0,0.25,47,100.0
2531,G2,303.25,0.25,50,100.0
2532,G3,303.25,0.25,50,100.0
2533,F#1,303.5,0.25,46,100.0
2534,F#2,303.5,0.25,46,100.0
2535,F2,303.75,0.25,49,100.0
2536,F3,303.75,0.25,49,100.0
2537,E1,304.0,0.25,44,100.0
2538,E2,304.0,0.25,44,100.0
2539,E-2,304.25,0.25,48,100.0
2540,E-3,304.25,0.25,48,100.0
2541,D1,304.5,1.0,49,100.0
2542,D2,304.5,1.0,49,100.0
2543,D3,305.5,1.0,42,100.0
2544,D2,305.5,1.0,42,100.0
2545,D4,306.5,0.5,43,100.0
2546,D3,306.5,0.5,43,100.0
2547,B-2,307.125,0.375,23,100.0
2548,F3,307.25,0.25,28,100.0
2549,B-3,307.375,0.125,32,100.0
2550,D4,307.5,0.312,41,100.0
2551,B-2,307.5,0.125,23,100.0
2552,F3,307.5,0.25,28,100.0
2553,B-3,307.5,0.375,32,100.0
2554,F4,307.833,333/1000,24,100.0
2555,D4,307.833,1.0,20,100.0
2556,B-4,308.167,333/1000,22,100.0
2557,D5,308.167,333/1000,22,100.0
2558,D5,308.5,333/1000,23,100.0
2559,F5,308.5,333/1000,23,100.0
2560,D6,308.833,333/1000,24,100.0
2561,B-5,308.833,333/1000,24,100.0
2562,B-1,309.0,0.5,23,100.0
2563,B-2,309.125,0.5,25,100.0
2564,D6,309.167,333/1000,24,100.0
2565,F6,309.167,333/1000,24,100.0
2566,F3,309.25,0.5,28,100.0
2567,B-3,309.375,0.5,30,100.0
2568,D4,309.5,1.5,39,100.0
2569,B-6,309.5,333/1000,26,100.0
2570,D7,309.5,333/1000,26,100.0
2571,D6,309.833,333/1000,26,100.0
2572,F6,309.833,333/1000,26,100.0
2573,D6,310.167,333/1000,26,100.0
2574,B-5,310.167,333/1000,26,100.0
2575,F5,310.5,333/1000,24,100.0
2576,D5,310.5,333/1000,24,100.0
2577,D5,310.833,333/1000,23,100.0
2578,B-4,310.833,333/1000,23,100.0
2579,C4,311.0,0.312,36,100.0
2580,F4,311.167,0.125,22,100.0
2581,D4,311.167,0.125,22,100.0
2582,B-2,311.312,0.188,28,100.0
2583,D3,311.375,0.125,30,100.0
2584,F3,311.438,0.062,33,100.0
2585,B-3,311.5,0.312,41,100.0
2586,B-2,311.5,0.312,28,100.0
2587,D3,311.5,0.375,30,100.0
2588,F3,311.5,0.438,33,100.0
2589,D4,311.833,1.0,20,100.0
2590,F4,311.833,333/1000,24,100.0
2591,D5,312.167,333/1000,22,100.0
2592,B-4,312.167,333/1000,22,100.0
2593,F5,312.5,333/1000,23,100.0
2594,D5,312.5,333/1000,23,100.0
2595,D6,312.833,333/1000,24,100.0
2596,B-5,312.833,333/1000,24,100.0
2597,B-1,313.0,0.5,26,100.0
2598,B-2,313.125,0.5,28,100.0
2599,D6,313.167,333/1000,24,100.0
2600,F6,313.167,333/1000,24,100.0
2601,D3,313.25,0.5,32,100.0
2602,F3,313.375,0.5,35,100.0
2603,B-3,313.5,1.5,38,100.0
2604,B-6,313.5,333/1000,26,100.0
2605,D7,313.5,333/1000,26,100.0
2606,F6,313.833,333/1000,26,100.0
2607,D6,313.833,333/1000,26,100.0
2608,D6,314.167,333/1000,26,100.0
2609,B-5,314.167,333/1000,26,100.0
2610,D5,314.5,333/1000,24,100.0
2611,F5,314.5,333/1000,24,100.0
2612,D5,314.833,333/1000,23,100.0
2613,B-4,314.833,333/1000,23,100.0
2614,B-3,315.0,0.312,39,100.0
2615,F4,315.167,0.125,22,100.0
2616,D4,315.167,0.125,22,100.0
2617,B-2,315.312,0.188,28,100.0
2618,E-3,315.375,0.125,31,100.0
2619,F#3,315.438,0.062,33,100.0
2620,A3,315.5,1.5,41,100.0
2621,B-2,315.5,0.312,28,100.0
2622,E-3,315.5,0.375,31,100.0
2623,F#3,315.5,0.438,33,100.0
2624,E-4,315.833,333/1000,22,100.0
2625,F#4,315.833,333/1000,22,100.0
2626,E-5,316.167,333/1000,22,100.0
2627,C5,316.167,333/1000,22,100.0
2628,F#5,316.5,333/1000,23,100.0
2629,E-5,316.5,333/1000,23,100.0
2630,C6,316.833,333/1000,24,100.0
2631,E-6,316.833,333/1000,24,100.0
2632,A3,317.0,0.312,44,100.0
2633,E-6,317.167,333/1000,24,100.0
2634,F#6,317.167,333/1000,24,100.0
2635,F#3,317.375,0.5,35,100.0
2636,A3,317.438,0.5,42,100.0
2637,F#4,317.5,1.5,55,100.0
2638,E-7,317.5,333/1000,26,100.0
2639,C7,317.5,333/1000,26,100.0
2640,E-6,317.833,333/1000,26,100.0
2641,F#6,317.833,333/1000,26,100.0
2642,E-6,318.167,333/1000,26,100.0
2643,C6,318.167,333/1000,26,100.0
2644,E-5,318.5,333/1000,24,100.0
2645,F#5,318.5,333/1000,24,100.0
2646,E-5,318.833,333/1000,23,100.0
2647,C5,318.833,333/1000,23,100.0
2648,A3,319.0,0.375,39,100.0
2649,F#4,319.167,0.125,22,100.0
2650,E-4,319.167,0.125,22,100.0
2651,B-2,319.375,0.125,29,100.0
2652,F3,319.438,0.062,35,100.0
2653,C4,319.5,2.0,44,100.0
2654,B-2,319.5,0.375,29,100.0
2655,F3,319.5,0.438,35,100.0
2656,F4,319.833,333/1000,22,100.0
2657,D4,319.833,333/1000,22,100.0
2658,B-4,320.167,333/1000,22,100.0
2659,D5,320.167,333/1000,22,100.0
2660,F5,320.5,333/1000,23,100.0
2661,D5,320.5,333/1000,23,100.0
2662,D6,320.833,333/1000,24,100.0
2663,B-5,320.833,333/1000,24,100.0
2664,D6,321.167,333/1000,24,100.0
2665,F6,321.167,333/1000,24,100.0
2666,B-3,321.5,0.5,40,100.0
2667,D7,321.5,333/1000,26,100.0
2668,B-6,321.5,333/1000,26,100.0
2669,D6,321.833,333/1000,26,100.0
2670,F6,321.833,333/1000,26,100.0
2671,B-5,322.167,333/1000,26,100.0
2672,D6,322.167,333/1000,26,100.0
2673,D5,322.5,333/1000,24,100.0
2674,F5,322.5,333/1000,24,100.0
2675,D5,322.833,333/1000,23,100.0
2676,B-4,322.833,333/1000,23,100.0
2677,D4,323.167,0.125,22,100.0
2678,F4,323.167,0.125,22,100.0
2679,D3,323.312,0.188,23,100.0
2680,G3,323.375,0.125,28,100.0
2681,B-3,323.438,0.062,32,100.0
2682,D4,323.5,0.312,45,100.0
2683,D3,323.5,0.312,23,100.0
2684,G3,323.5,0.375,28,100.0
2685,B-3,323.5,0.438,32,100.0
2686,D4,323.833,1.0,20,100.0
2687,G4,323.833,333/1000,24,100.0
2688,D5,324.167,333/1000,22,100.0
2689,B-4,324.167,333/1000,22,100.0
2690,D5,324.5,333/1000,23,100.0
2691,G5,324.5,333/1000,23,100.0
2692,B-5,324.833,333/1000,24,100.0
2693,D6,324.833,333/1000,24,100.0
2694,G1,325.0,0.5,23,100.0
2695,G2,325.062,0.5,23,100.0
2696,D3,325.125,0.5,25,100.0
2697,G6,325.167,333/1000,24,100.0
2698,D6,325.167,333/1000,24,100.0
2699,G3,325.25,0.5,28,100.0
2700,B-3,325.375,0.5,30,100.0
2701,D4,325.5,1.5,39,100.0
2702,B-6,325.5,333/1000,26,100.0
2703,D7,325.5,333/1000,26,100.0
2704,D6,325.833,333/1000,26,100.0
2705,G6,325.833,333/1000,26,100.0
2706,B-5,326.167,333/1000,26,100.0
2707,D6,326.167,333/1000,26,100.0
2708,G5,326.5,333/1000,24,100.0
2709,D5,326.5,333/1000,24,100.0
2710,D5,326.833,333/1000,23,100.0
2711,B-4,326.833,333/1000,23,100.0
2712,C4,327.0,0.312,36,100.0
2713,G4,327.167,333/1000,22,100.0
2714,D4,327.167,333/1000,22,100.0
2715,G2,327.375,0.125,28,100.0
2716,D3,327.438,0.062,30,100.0
2717,B-3,327.5,1.5,41,100.0
2718,G2,327.5,0.375,28,100.0
2719,D3,327.5,0.438,30,100.0
2720,D4,327.833,333/1000,22,100.0
2721,G4,327.833,333/1000,22,100.0
2722,B-4,328.167,333/1000,22,100.0
2723,D5,328.167,333/1000,22,100.0
2724,D5,328.5,333/1000,23,100.0
2725,G5,328.5,333/1000,23,100.0
2726,D6,328.833,333/1000,24,100.0
2727,B-5,328.833,333/1000,24,100.0
2728,G1,329.0,0.5,26,100.0
2729,G2,329.125,0.5,28,100.0
2730,D6,329.167,333/1000,24,100.0
2731,G6,329.167,333/1000,24,100.0
2732,D3,329.25,0.5,32,100.0
2733,G3,329.375,0.5,35,100.0
2734,B-3,329.5,1.5,38,100.0
2735,B-6,329.5,333/1000,26,100.0
2736,D7,329.5,333/1000,26,100.0
2737,G6,329.833,333/1000,26,100.0
2738,D6,329.833,333/1000,26,100.0
2739,B-5,330.167,333/1000,26,100.0
2740,D6,330.167,333/1000,26,100.0
2741,G5,330.5,333/1000,24,100.0
2742,D5,330.5,333/1000,24,100.0
2743,D5,330.833,333/1000,23,100.0
2744,B-4,330.833,333/1000,23,100.0
2745,B-3,331.0,0.312,39,100.0
2746,G4,331.167,333/1000,22,100.0
2747,D4,331.167,333/1000,22,100.0
2748,C3,331.312,0.188,28,100.0
2749,E3,331.375,0.125,31,100.0
2750,B-3,331.438,0.062,33,100.0
2751,C#4,331.5,1.5,41,100.0
2752,C3,331.5,0.312,28,100.0
2753,E3,331.5,0.375,31,100.0
2754,B-3,331.5,0.438,33,100.0
2755,G4,331.833,333/1000,22,100.0
2756,E4,331.833,333/1000,22,100.0
2757,E5,332.167,333/1000,22,100.0
2758,B-4,332.167,333/1000,22,100.0
2759,E5,332.5,333/1000,23,100.0
2760,G5,332.5,333/1000,23,100.0
2761,E6,332.833,333/1000,24,100.0
2762,B-5,332.833,333/1000,24,100.0
2763,C4,333.0,0.312,44,100.0
2764,G6,333.167,333/1000,24,100.0
2765,E6,333.167,333/1000,24,100.0
2766,G3,333.375,0.5,32,100.0
2767,C4,333.438,0.5,34,100.0
2768,B-4,333.5,1.5,48,100.0
2769,B-6,333.5,333/1000,26,100.0
2770,E7,333.5,333/1000,26,100.0
2771,E6,333.833,333/1000,26,100.0
2772,G6,333.833,333/1000,26,100.0
2773,B-5,334.167,333/1000,26,100.0
2774,E6,334.167,333/1000,26,100.0
2775,G5,334.5,333/1000,24,100.0
2776,E5,334.5,333/1000,24,100.0
2777,E5,334.833,333/1000,23,100.0
2778,B-4,334.833,333/1000,23,100.0
2779,E4,335.0,0.375,39,100.0
2780,G4,335.167,333/1000,24,100.0
2781,F2,335.312,0.188,29,100.0
2782,C3,335.375,0.125,29,100.0
2783,A3,335.438,0.062,35,100.0
2784,F4,335.5,0.312,44,100.0
2785,C3,335.5,0.375,29,100.0
2786,F2,335.5,0.312,29,100.0
2787,A3,335.5,0.438,35,100.0
2788,F4,335.833,2.0,20,100.0
2789,A4,335.833,333/1000,24,100.0
2790,C5,336.167,333/1000,22,100.0
2791,F5,336.167,333/1000,22,100.0
2792,A5,336.5,333/1000,23,100.0
2793,F5,336.5,333/1000,23,100.0
2794,F6,336.833,333/1000,24,100.0
2795,C6,336.833,333/1000,24,100.0
2796,F6,337.167,333/1000,24,100.0
2797,A6,337.167,333/1000,24,100.0
2798,C7,337.5,333/1000,26,100.0
2799,F7,337.5,333/1000,26,100.0
2800,F6,337.833,333/1000,26,100.0
2801,A6,337.833,333/1000,26,100.0
2802,C6,338.167,333/1000,26,100.0
2803,F6,338.167,333/1000,26,100.0
2804,A5,338.5,333/1000,24,100.0
2805,F5,338.5,333/1000,24,100.0
2806,F5,338.833,333/1000,23,100.0
2807,C5,338.833,333/1000,23,100.0
2808,F4,339.167,333/1000,22,100.0
2809,A4,339.167,333/1000,22,100.0
2810,C#3,339.312,0.188,23,100.0
2811,G#3,339.375,0.125,28,100.0
2812,C#4,339.438,0.062,32,100.0
2813,F4,339.5,0.312,41,100.0
2814,C#3,339.5,0.312,23,100.0
2815,G#3,339.5,0.375,28,100.0
2816,C#4,339.5,0.438,32,100.0
2817,F4,339.833,1.0,20,100.0
2818,G#4,339.833,333/1000,24,100.0
2819,C#5,340.167,333/1000,22,100.0
2820,F5,340.167,333/1000,22,100.0
2821,G#5,340.5,333/1000,23,100.0
2822,F5,340.5,333/1000,23,100.0
2823,C#6,340.833,333/1000,24,100.0
2824,F6,340.833,333/1000,24,100.0
2825,C#2,341.0,0.5,23,100.0
2826,C#3,341.125,0.5,25,100.0
2827,F6,341.167,333/1000,24,100.0
2828,G#6,341.167,333/1000,24,100.0
2829,G#3,341.25,0.5,28,100.0
2830,C#4,341.375,0.5,30,100.0
2831,F4,341.5,1.5,39,100.0
2832,C#7,341.5,333/1000,26,100.0
2833,F7,341.5,333/1000,26,100.0
2834,G#6,341.833,333/1000,26,100.0
2835,F6,341.833,333/1000,26,100.0
2836,F6,342.167,333/1000,26,100.0
2837,C#6,342.167,333/1000,26,100.0
2838,G#5,342.5,333/1000,24,100.0
2839,F5,342.5,333/1000,24,100.0
2840,F5,342.833,333/1000,23,100.0
2841,C#5,342.833,333/1000,23,100.0
2842,F4,343.0,0.312,36,100.0
2843,G#4,343.167,0.125,24,100.0
2844,G#3,343.312,0.188,28,100.0
2845,C#4,343.375,0.125,30,100.0
2846,E-4,343.438,0.062,33,100.0
2847,G#4,343.5,0.312,48,100.0
2848,G#3,343.5,0.312,28,100.0
2849,C#4,343.5,0.375,30,100.0
2850,E-4,343.5,0.312,33,100.0
2851,G#4,343.833,1.0,24,100.0
2852,E-4,343.833,333/1000,20,100.0
2853,C#5,344.167,333/1000,22,100.0
2854,E-5,344.167,333/1000,22,100.0
2855,E-5,344.5,333/1000,23,100.0
2856,G#5,344.5,333/1000,23,100.0
2857,C#6,344.833,333/1000,24,100.0
2858,E-6,344.833,333/1000,24,100.0
2859,G#2,345.0,0.5,26,100.0
2860,E-3,345.125,0.5,28,100.0
2861,E-6,345.167,333/1000,24,100.0
2862,G#6,345.167,333/1000,24,100.0
2863,G#3,345.25,0.5,32,100.0
2864,C4,345.375,0.5,35,100.0
2865,E-4,345.5,1.5,38,100.0
2866,C7,345.5,333/1000,26,100.0
2867,E-7,345.5,333/1000,26,100.0
2868,G#6,345.833,333/1000,26,100.0
2869,E-6,345.833,333/1000,26,100.0
2870,E-6,346.167,333/1000,26,100.0
2871,C6,346.167,333/1000,26,100.0
2872,E-5,346.5,333/1000,24,100.0
2873,G#5,346.5,333/1000,24,100.0
2874,C5,346.833,333/1000,23,100.0
2875,E-5,346.833,333/1000,23,100.0
2876,E-4,347.167,0.125,23,100.0
2877,G#4,347.167,0.125,23,100.0
2878,C3,347.312,0.188,23,100.0
2879,G3,347.375,0.125,28,100.0
2880,C4,347.438,0.062,32,100.0
2881,E-4,347.5,0.312,41,100.0
2882,C3,347.5,0.312,23,100.0
2883,G3,347.5,0.375,28,100.0
2884,C4,347.5,0.438,32,100.0
2885,E-4,347.833,1.0,20,100.0
2886,G4,347.833,333/1000,24,100.0
2887,E-5,348.167,333/1000,22,100.0
2888,C5,348.167,333/1000,22,100.0
2889,E-5,348.5,333/1000,23,100.0
2890,G5,348.5,333/1000,23,100.0
2891,E-6,348.833,333/1000,24,100.0
2892,C6,348.833,333/1000,24,100.0
2893,C2,349.0,0.5,23,100.0
2894,C3,349.125,0.5,25,100.0
2895,E-6,349.167,333/1000,24,100.0
2896,G6,349.167,333/1000,24,100.0
2897,G3,349.25,0.5,28,100.0
2898,C4,349.375,0.5,30,100.0
2899,E-4,349.5,1.5,39,100.0
2900,C7,349.5,333/1000,26,100.0
2901,E-7,349.5,333/1000,26,100.0
2902,G6,349.833,333/1000,26,100.0
2903,E-6,349.833,333/1000,26,100.0
2904,E-6,350.167,333/1000,26,100.0
2905,C6,350.167,333/1000,26,100.0
2906,G5,350.5,333/1000,24,100.0
2907,E-5,350.5,333/1000,24,100.0
2908,E-5,350.833,333/1000,23,100.0
2909,C5,350.833,333/1000,23,100.0
2910,E-4,351.0,0.312,36,100.0
2911,G4,351.167,167/1000,24,100.0
2912,G3,351.312,0.188,28,100.0
2913,C4,351.375,0.125,30,100.0
2914,D4,351.438,0.062,33,100.0
2915,G4,351.5,0.312,41,100.0
2916,G3,351.5,0.312,28,100.0
2917,C4,351.5,0.375,30,100.0
2918,D4,351.5,0.312,33,100.0
2919,G4,351.833,1.0,24,100.0
2920,D4,351.833,333/1000,20,100.0
2921,D5,352.167,333/1000,22,100.0
2922,C5,352.167,333/1000,22,100.0
2923,G5,352.5,333/1000,23,100.0
2924,D5,352.5,333/1000,23,100.0
2925,C6,352.833,333/1000,24,100.0
2926,D6,352.833,333/1000,24,100.0
2927,G2,353.0,0.5,26,100.0
2928,D3,353.125,0.5,28,100.0
2929,G6,353.167,333/1000,24,100.0
2930,D6,353.167,333/1000,24,100.0
2931,G3,353.25,0.5,32,100.0
2932,B3,353.375,0.5,35,100.0
2933,D4,353.5,1.5,38,100.0
2934,B6,353.5,333/1000,26,100.0
2935,D7,353.5,333/1000,26,100.0
2936,G6,353.833,333/1000,26,100.0
2937,D6,353.833,333/1000,26,100.0
2938,B5,354.167,333/1000,26,100.0
2939,D6,354.167,333/1000,26,100.0
2940,D5,354.5,333/1000,24,100.0
2941,G5,354.5,333/1000,24,100.0
2942,D5,354.833,333/1000,23,100.0
2943,B4,354.833,333/1000,23,100.0
2944,D4,355.167,0.125,22,100.0
2945,G4,355.167,0.125,22,100.0
2946,B-2,355.312,0.188,23,100.0
2947,F3,355.375,0.125,28,100.0
2948,B-3,355.438,0.062,32,100.0
2949,D4,355.5,0.312,41,100.0
2950,B-2,355.5,0.312,23,100.0
2951,F3,355.5,0.375,28,100.0
2952,B-3,355.5,0.438,32,100.0
2953,D4,355.833,1.0,20,100.0
2954,F4,355.833,333/1000,24,100.0
2955,B-4,356.167,333/1000,22,100.0
2956,D5,356.167,333/1000,22,100.0
2957,F5,356.5,333/1000,23,100.0
2958,D5,356.5,333/1000,23,100.0
2959,B-5,356.833,333/1000,24,100.0
2960,D6,356.833,333/1000,24,100.0
2961,B-1,357.0,0.5,23,100.0
2962,B-2,357.125,0.5,25,100.0
2963,D6,357.167,333/1000,24,100.0
2964,F6,357.167,333/1000,24,100.0
2965,F3,357.25,0.5,28,100.0
2966,B-3,357.375,0.5,30,100.0
2967,D4,357.5,1.5,39,100.0
2968,B-6,357.5,333/1000,26,100.0
2969,D7,357.5,333/1000,26,100.0
2970,D6,357.833,333/1000,26,100.0
2971,F6,357.833,333/1000,26,100.0
2972,B-5,358.167,333/1000,26,100.0
2973,D6,358.167,333/1000,26,100.0
2974,F5,358.5,333/1000,24,100.0
2975,D5,358.5,333/1000,24,100.0
2976,D5,358.833,333/1000,23,100.0
2977,B-4,358.833,333/1000,23,100.0
2978,C4,359.0,0.312,36,100.0
2979,D4,359.167,167/1000,22,100.0
2980,F4,359.167,167/1000,22,100.0
2981,G2,359.375,0.125,30,100.0
2982,D3,359.438,0.062,33,100.0
2983,B-3,359.5,1.5,41,100.0
2984,G2,359.5,0.375,30,100.0
2985,D3,359.5,0.438,33,100.0
2986,D4,359.833,333/1000,22,100.0
2987,G4,359.833,333/1000,22,100.0
2988,B-4,360.167,333/1000,22,100.0
2989,D5,360.167,333/1000,22,100.0
2990,G5,360.5,333/1000,23,100.0
2991,D5,360.5,333/1000,23,100.0
2992,B-5,360.833,333/1000,24,100.0
2993,D6,360.833,333/1000,24,100.0
2994,G1,361.0,0.5,26,100.0
2995,G2,361.125,0.5,28,100.0
2996,D6,361.167,333/1000,24,100.0
2997,G6,361.167,333/1000,24,100.0
2998,D3,361.25,0.5,32,100.0
2999,G3,361.375,0.5,35,100.0
3000,B-3,361.5,1.5,38,100.0
3001,D7,361.5,333/1000,26,100.0
3002,B-6,361.5,333/1000,26,100.0
3003,D6,361.833,333/1000,26,100.0
3004,G6,361.833,333/1000,26,100.0
3005,B-5,362.167,333/1000,26,100.0
3006,D6,362.167,333/1000,26,100.0
3007,D5,362.5,333/1000,24,100.0
3008,G5,362.5,333/1000,24,100.0
3009,D5,362.833,333/1000,23,100.0
3010,B-4,362.833,333/1000,23,100.0
3011,B-3,363.0,0.5,36,100.0
3012,G4,363.167,333/1000,22,100.0
3013,D4,363.167,333/1000,22,100.0
3014,D4,363.5,1.0,40,100.0
3015,E-3,363.5,0.5,32,100.0
3016,G3,363.5,0.5,32,100.0
3017,G4,363.833,333/1000,25,100.0
3018,E-4,363.833,333/1000,25,100.0
3019,D5,364.167,333/1000,25,100.0
3020,C4,364.5,1.0,38,100.0
3021,E-2,364.5,0.5,30,100.0
3022,C5,364.833,333/1000,27,100.0
3023,E-5,364.833,333/1000,27,100.0
3024,C6,365.167,333/1000,27,100.0
3025,G5,365.167,333/1000,27,100.0
3026,B-3,365.5,1.0,38,100.0
3027,E-3,365.5,0.5,30,100.0
3028,G3,365.5,0.5,30,100.0
3029,E-6,365.833,333/1000,27,100.0
3030,B-5,365.833,333/1000,27,100.0
3031,B-6,366.167,333/1000,27,100.0
3032,G6,366.167,333/1000,27,100.0
3033,E-2,366.5,0.5,29,100.0
3034,C4,366.5,1.0,37,100.0
3035,C6,366.833,333/1000,25,100.0
3036,E-6,366.833,333/1000,25,100.0
3037,C7,367.167,333/1000,25,100.0
3038,G6,367.167,333/1000,25,100.0
3039,D2,367.312,0.188,29,100.0
3040,A2,367.375,0.125,32,100.0
3041,F#3,367.438,0.062,35,100.0
3042,D4,367.5,0.312,37,100.0
3043,D2,367.5,0.312,29,100.0
3044,A2,367.5,0.375,32,100.0
3045,F#3,367.5,0.438,35,100.0
3046,D4,367.833,3.5,20,100.0
3047,F#4,367.833,333/1000,24,100.0
3048,D5,368.167,333/1000,22,100.0
3049,A4,368.167,333/1000,22,100.0
3050,D5,368.5,333/1000,23,100.0
3051,F#5,368.5,333/1000,23,100.0
3052,A5,368.833,333/1000,24,100.0
3053,D6,368.833,333/1000,24,100.0
3054,F#6,369.167,333/1000,24,100.0
3055,D6,369.167,333/1000,24,100.0
3056,D7,369.5,333/1000,26,100.0
3057,A6,369.5,333/1000,26,100.0
3058,F#6,369.833,333/1000,26,100.0
3059,D6,369.833,333/1000,26,100.0
3060,A5,370.167,333/1000,26,100.0
3061,D6,370.167,333/1000,26,100.0
3062,D5,370.5,333/1000,24,100.0
3063,F#5,370.5,333/1000,24,100.0
3064,D6,370.833,333/1000,23,100.0
3065,A5,370.833,333/1000,23,100.0
3066,D5,371.167,333/1000,22,100.0
3067,F#5,371.167,333/1000,22,100.0
3068,A4,371.5,333/1000,24,100.0
3069,D5,371.5,333/1000,24,100.0
3070,D4,371.833,333/1000,22,100.0
3071,F#4,371.833,333/1000,22,100.0
3072,D5,372.167,333/1000,24,100.0
3073,A4,372.167,333/1000,24,100.0
3074,F#4,372.5,333/1000,22,100.0
3075,D4,372.5,333/1000,22,100.0
3076,A3,372.833,333/1000,24,100.0
3077,D4,372.833,333/1000,24,100.0
3078,F#3,373.167,333/1000,21,100.0
3079,D3,373.167,333/1000,21,100.0
3080,A3,373.5,333/1000,24,100.0
3081,D4,373.5,333/1000,24,100.0
3082,D3,373.833,333/1000,22,100.0
3083,F#3,373.833,333/1000,22,100.0
3084,D1,374.167,333/1000,29,100.0
3085,D2,374.5,0.5,24,100.0
3086,D3,375.0,0.5,29,100.0
3087,D4,375.5,0.5,28,100.0
3088,D5,376.0,0.5,33,100.0
3089,D6,376.5,0.5,30,100.0
3090,D7,377.0,0.5,37,100.0
3091,D5,377.833,3/10,26,100.0
3092,D6,377.833,3/10,26,100.0
3093,D5,378.167,3/10,28,100.0
3094,D6,378.167,3/10,28,100.0
3095,D5,378.5,3/10,31,100.0
3096,D6,378.5,3/10,31,100.0
3097,D6,378.833,3/10,32,100.0
3098,D5,378.833,3/10,32,100.0
3099,D6,379.167,3/10,36,100.0
3100,D5,379.167,3/10,36,100.0
3101,B-2,379.5,333/1000,41,100.0
3102,D6,379.5,2.0,48,100.0
3103,D5,379.5,2.0,48,100.0
3104,F3,379.833,3/10,23,100.0
3105,D4,379.833,3/10,23,100.0
3106,F4,379.833,3/10,23,100.0
3107,B-5,379.833,3/10,23,100.0
3108,F5,379.833,3/10,23,100.0
3109,D4,380.167,3/10,24,100.0
3110,F#3,380.167,3/10,24,100.0
3111,F4,380.167,3/10,24,100.0
3112,B-5,380.167,3/10,24,100.0
3113,F5,380.167,3/10,24,100.0
3114,F4,380.5,3/10,25,100.0
3115,D4,380.5,3/10,25,100.0
3116,B-5,380.5,3/10,25,100.0
3117,F5,380.5,3/10,25,100.0
3118,G3,380.5,3/10,25,100.0
3119,F5,380.833,3/10,27,100.0
3120,B-5,380.833,3/10,27,100.0
3121,D4,380.833,3/10,27,100.0
3122,F4,380.833,3/10,27,100.0
3123,G#3,380.833,3/10,27,100.0
3124,D4,381.167,3/10,28,100.0
3125,F4,381.167,3/10,28,100.0
3126,F5,381.167,3/10,28,100.0
3127,B-5,381.167,3/10,28,100.0
3128,A3,381.167,3/10,28,100.0
3129,D6,381.5,1.5,45,100.0
3130,D5,381.5,1.5,45,100.0
3131,F4,381.5,3/10,26,100.0
3132,D4,381.5,3/10,26,100.0
3133,B-3,381.5,3/10,26,100.0
3134,F5,381.833,3/10,30,100.0
3135,B-5,381.833,3/10,30,100.0
3136,B3,381.833,3/10,30,100.0
3137,D4,381.833,3/10,30,100.0
3138,F4,381.833,3/10,30,100.0
3139,F5,382.167,3/10,31,100.0
3140,D4,382.167,3/10,31,100.0
3141,F4,382.167,3/10,31,100.0
3142,B-5,382.167,3/10,31,100.0
3143,C4,382.167,3/10,31,100.0
3144,F5,382.5,3/10,33,100.0
3145,F4,382.5,3/10,33,100.0
3146,C#4,382.5,3/10,33,100.0
3147,B-5,382.5,3/10,33,100.0
3148,D4,382.5,3/10,33,100.0
3149,B-5,382.833,3/10,36,100.0
3150,D4,382.833,3/10,36,100.0
3151,F4,382.833,3/10,36,100.0
3152,F5,382.833,3/10,36,100.0
3153,C5,383.167,333/1000,38,100.0
3154,C6,383.167,333/1000,38,100.0
3155,B-2,383.5,333/1000,41,100.0
3156,B-5,383.5,2.0,50,100.0
3157,B-4,383.5,2.0,50,100.0
3158,F3,383.833,3/10,23,100.0
3159,D4,383.833,3/10,23,100.0
3160,F4,383.833,3/10,23,100.0
3161,F5,383.833,3/10,23,100.0
3162,D5,383.833,3/10,23,100.0
3163,F5,384.167,3/10,24,100.0
3164,F4,384.167,3/10,24,100.0
3165,D5,384.167,3/10,24,100.0
3166,D4,384.167,3/10,24,100.0
3167,F#3,384.167,3/10,24,100.0
3168,F4,384.5,3/10,25,100.0
3169,D4,384.5,3/10,25,100.0
3170,F5,384.5,3/10,25,100.0
3171,G3,384.5,3/10,25,100.0
3172,D5,384.5,3/10,25,100.0
3173,D4,384.833,3/10,27,100.0
3174,G#3,384.833,3/10,27,100.0
3175,F5,384.833,3/10,27,100.0
3176,D5,384.833,3/10,27,100.0
3177,F4,384.833,3/10,27,100.0
3178,D5,385.167,3/10,28,100.0
3179,F5,385.167,3/10,28,100.0
3180,A3,385.167,3/10,28,100.0
3181,F4,385.167,3/10,28,100.0
3182,D4,385.167,3/10,28,100.0
3183,B-4,385.5,1.5,50,100.0
3184,B-5,385.5,1.5,50,100.0
3185,B-3,385.5,3/10,26,100.0
3186,D4,385.5,3/10,26,100.0
3187,F4,385.5,3/10,26,100.0
3188,F4,385.833,3/10,30,100.0
3189,F5,385.833,3/10,30,100.0
3190,D5,385.833,3/10,30,100.0
3191,B3,385.833,3/10,30,100.0
3192,D4,385.833,3/10,30,100.0
3193,F5,386.167,3/10,31,100.0
3194,C4,386.167,3/10,31,100.0
3195,D5,386.167,3/10,31,100.0
3196,D4,386.167,3/10,31,100.0
3197,F4,386.167,3/10,31,100.0
3198,D5,386.5,3/10,33,100.0
3199,D4,386.5,3/10,33,100.0
3200,C#4,386.5,3/10,33,100.0
3201,F4,386.5,3/10,33,100.0
3202,F5,386.5,3/10,33,100.0
3203,F5,386.833,3/10,36,100.0
3204,D5,386.833,3/10,36,100.0
3205,D4,386.833,3/10,36,100.0
3206,F4,386.833,3/10,36,100.0
3207,B-4,387.167,333/1000,52,100.0
3208,B-5,387.167,333/1000,52,100.0
3209,B-2,387.5,333/1000,41,100.0
3210,A5,387.5,1.5,57,100.0
3211,A4,387.5,1.5,57,100.0
3212,C5,387.833,3/10,25,100.0
3213,E-5,387.833,3/10,25,100.0
3214,E-4,387.833,3/10,25,100.0
3215,F#4,387.833,3/10,25,100.0
3216,F#3,387.833,3/10,25,100.0
3217,E-5,388.167,3/10,26,100.0
3218,F#4,388.167,3/10,26,100.0
3219,E-4,388.167,3/10,26,100.0
3220,C5,388.167,3/10,26,100.0
3221,G3,388.167,3/10,26,100.0
3222,E-5,388.5,3/10,27,100.0
3223,C5,388.5,3/10,27,100.0
3224,F#4,388.5,3/10,27,100.0
3225,E-4,388.5,3/10,27,100.0
3226,G#3,388.5,3/10,27,100.0
3227,C5,388.833,3/10,30,100.0
3228,E-4,388.833,3/10,30,100.0
3229,F#4,388.833,3/10,30,100.0
3230,E-5,388.833,3/10,30,100.0
3231,A3,388.833,3/10,30,100.0
3232,A5,389.167,333/1000,63,100.0
3233,A4,389.167,333/1000,63,100.0
3234,E-4,389.167,3/10,27,100.0
3235,B-3,389.167,3/10,27,100.0
3236,F#4,389.167,3/10,27,100.0
3237,F#6,389.5,1.5,69,100.0
3238,F#5,389.5,1.5,69,100.0
3239,E-4,389.5,3/10,28,100.0
3240,B3,389.5,3/10,28,100.0
3241,F#4,389.5,3/10,28,100.0
3242,A5,389.833,3/10,33,100.0
3243,F#4,389.833,3/10,33,100.0
3244,C6,389.833,3/10,33,100.0
3245,C4,389.833,3/10,33,100.0
3246,E-4,389.833,3/10,33,100.0
3247,C#4,390.167,3/10,34,100.0
3248,E-4,390.167,3/10,34,100.0
3249,F#4,390.167,3/10,34,100.0
3250,A5,390.167,3/10,34,100.0
3251,C6,390.167,3/10,34,100.0
3252,E-4,390.5,3/10,36,100.0
3253,F#4,390.5,3/10,36,100.0
3254,C6,390.5,3/10,36,100.0
3255,A5,390.5,3/10,36,100.0
3256,D4,390.5,3/10,36,100.0
3257,C6,390.833,3/10,39,100.0
3258,F#4,390.833,3/10,39,100.0
3259,A5,390.833,3/10,39,100.0
3260,E-4,390.833,3/10,39,100.0
3261,A4,391.167,333/1000,54,100.0
3262,A5,391.167,333/1000,54,100.0
3263,B-2,391.5,333/1000,41,100.0
3264,C5,391.5,2.0,60,100.0
3265,C6,391.5,2.0,60,100.0
3266,F5,391.833,3/10,25,100.0
3267,F3,391.833,3/10,25,100.0
3268,F4,391.833,3/10,25,100.0
3269,D4,391.833,3/10,25,100.0
3270,D5,391.833,3/10,25,100.0
3271,D5,392.167,3/10,26,100.0
3272,D4,392.167,3/10,26,100.0
3273,F4,392.167,3/10,26,100.0
3274,F5,392.167,3/10,26,100.0
3275,F#3,392.167,3/10,26,100.0
3276,D5,392.5,3/10,27,100.0
3277,G3,392.5,3/10,27,100.0
3278,F4,392.5,3/10,27,100.0
3279,F5,392.5,3/10,27,100.0
3280,D4,392.5,3/10,27,100.0
3281,G#3,392.833,3/10,30,100.0
3282,D5,392.833,3/10,30,100.0
3283,D4,392.833,3/10,30,100.0
3284,F5,392.833,3/10,30,100.0
3285,F4,392.833,3/10,30,100.0
3286,F4,393.167,3/10,30,100.0
3287,D5,393.167,3/10,30,100.0
3288,A3,393.167,3/10,30,100.0
3289,D4,393.167,3/10,30,100.0
3290,F5,393.167,3/10,30,100.0
3291,B-5,393.5,1.0,55,100.0
3292,B-4,393.5,1.0,55,100.0
3293,D4,393.5,3/10,28,100.0
3294,B-3,393.5,3/10,28,100.0
3295,F4,393.5,3/10,28,100.0
3296,B3,393.833,3/10,33,100.0
3297,D5,393.833,3/10,33,100.0
3298,D4,393.833,3/10,33,100.0
3299,F4,393.833,3/10,33,100.0
3300,F5,393.833,3/10,33,100.0
3301,F4,394.167,3/10,34,100.0
3302,C4,394.167,3/10,34,100.0
3303,D5,394.167,3/10,34,100.0
3304,F5,394.167,3/10,34,100.0
3305,D4,394.167,3/10,34,100.0
3306,C#4,394.5,3/10,36,100.0
3307,F5,394.5,3/10,36,100.0
3308,D5,394.5,3/10,36,100.0
3309,F4,394.5,3/10,36,100.0
3310,D4,394.5,3/10,36,100.0
3311,D4,394.833,3/10,40,100.0
3312,F4,394.833,3/10,40,100.0
3313,D5,394.833,3/10,40,100.0
3314,F5,394.833,3/10,40,100.0
3315,D5,395.167,3/10,44,100.0
3316,F5,395.167,3/10,44,100.0
3317,G2,395.5,333/1000,45,100.0
3318,D5,395.5,2.0,62,100.0
3319,D6,395.5,2.0,62,100.0
3320,B-3,395.833,3/10,25,100.0
3321,G4,395.833,3/10,25,100.0
3322,G5,395.833,3/10,25,100.0
3323,B-4,395.833,3/10,25,100.0
3324,B-5,395.833,3/10,25,100.0
3325,G4,396.167,3/10,26,100.0
3326,G5,396.167,3/10,26,100.0
3327,B3,396.167,3/10,26,100.0
3328,B-5,396.167,3/10,26,100.0
3329,B-4,396.167,3/10,26,100.0
3330,C4,396.5,3/10,27,100.0
3331,B-5,396.5,3/10,27,100.0
3332,B-4,396.5,3/10,27,100.0
3333,G4,396.5,3/10,27,100.0
3334,G5,396.5,3/10,27,100.0
3335,B-5,396.833,3/10,30,100.0
3336,C#4,396.833,3/10,30,100.0
3337,G5,396.833,3/10,30,100.0
3338,G4,396.833,3/10,30,100.0
3339,B-4,396.833,3/10,30,100.0
3340,B-5,397.167,3/10,30,100.0
3341,D4,397.167,3/10,30,100.0
3342,G5,397.167,3/10,30,100.0
3343,G4,397.167,3/10,30,100.0
3344,B-4,397.167,3/10,30,100.0
3345,D5,397.5,1.5,58,100.0
3346,D6,397.5,1.5,58,100.0
3347,G4,397.5,3/10,28,100.0
3348,B-4,397.5,3/10,28,100.0
3349,E-4,397.5,3/10,28,100.0
3350,B-4,397.833,3/10,33,100.0
3351,G4,397.833,3/10,33,100.0
3352,E4,397.833,3/10,33,100.0
3353,B-5,397.833,3/10,33,100.0
3354,G5,397.833,3/10,33,100.0
3355,B-5,398.167,3/10,34,100.0
3356,G4,398.167,3/10,34,100.0
3357,F4,398.167,3/10,34,100.0
3358,B-4,398.167,3/10,34,100.0
3359,G5,398.167,3/10,34,100.0
3360,B-4,398.5,3/10,36,100.0
3361,G4,398.5,3/10,36,100.0
3362,F#4,398.5,3/10,36,100.0
3363,B-5,398.5,3/10,36,100.0
3364,G5,398.5,3/10,36,100.0
3365,B-4,398.833,3/10,39,100.0
3366,G4,398.833,3/10,39,100.0
3367,G5,398.833,3/10,39,100.0
3368,B-5,398.833,3/10,39,100.0
3369,C5,399.167,333/1000,55,100.0
3370,C6,399.167,333/1000,55,100.0
3371,G2,399.5,333/1000,45,100.0
3372,B-4,399.5,2.0,62,100.0
3373,B-5,399.5,2.0,62,100.0
3374,D4,399.833,3/10,25,100.0
3375,D5,399.833,3/10,25,100.0
3376,G5,399.833,3/10,25,100.0
3377,G3,399.833,3/10,25,100.0
3378,G4,399.833,3/10,25,100.0
3379,G5,400.167,3/10,26,100.0
3380,G#3,400.167,3/10,26,100.0
3381,D4,400.167,3/10,26,100.0
3382,D5,400.167,3/10,26,100.0
3383,G4,400.167,3/10,26,100.0
3384,G5,400.5,3/10,27,100.0
3385,D5,400.5,3/10,27,100.0
3386,A3,400.5,3/10,27,100.0
3387,G4,400.5,3/10,27,100.0
3388,D4,400.5,3/10,27,100.0
3389,G5,400.833,3/10,30,100.0
3390,D5,400.833,3/10,30,100.0
3391,D4,400.833,3/10,30,100.0
3392,B-3,400.833,3/10,30,100.0
3393,G4,400.833,3/10,30,100.0
3394,B3,401.167,3/10,30,100.0
3395,D5,401.167,3/10,30,100.0
3396,G4,401.167,3/10,30,100.0
3397,G5,401.167,3/10,30,100.0
3398,D4,401.167,3/10,30,100.0
3399,D5,401.5,3/10,31,100.0
3400,G5,401.5,3/10,31,100.0
3401,G4,401.5,3/10,31,100.0
3402,D4,401.5,3/10,31,100.0
3403,C4,401.5,3/10,31,100.0
3404,G5,401.833,3/10,34,100.0
3405,G4,401.833,3/10,34,100.0
3406,D5,401.833,3/10,34,100.0
3407,C#4,401.833,3/10,34,100.0
3408,D4,402.167,3/10,36,100.0
3409,G5,402.167,3/10,36,100.0
3410,G4,402.167,3/10,36,100.0
3411,D5,402.167,3/10,36,100.0
3412,D5,402.5,3/10,36,100.0
3413,G4,402.5,3/10,36,100.0
3414,G5,402.5,3/10,36,100.0
3415,B-3,402.5,3/10,36,100.0
3416,D5,402.833,3/10,41,100.0
3417,G5,402.833,3/10,41,100.0
3418,B-4,403.167,333/1000,58,100.0
3419,B-5,403.167,333/1000,58,100.0
3420,C#6,403.5,1.5,62,100.0
3421,C#5,403.5,1.5,62,100.0
3422,C3,403.5,333/1000,45,100.0
3423,C2,403.5,333/1000,45,100.0
3424,E5,403.833,3/10,25,100.0
3425,G4,403.833,3/10,25,100.0
3426,B-5,403.833,3/10,25,100.0
3427,B-4,403.833,3/10,25,100.0
3428,B-3,403.833,3/10,25,100.0
3429,G4,404.167,3/10,26,100.0
3430,E5,404.167,3/10,26,100.0
3431,B-4,404.167,3/10,26,100.0
3432,B3,404.167,3/10,26,100.0
3433,B-5,404.167,3/10,26,100.0
3434,C4,404.5,3/10,27,100.0
3435,B-4,404.5,3/10,27,100.0
3436,B-5,404.5,3/10,27,100.0
3437,G4,404.5,3/10,27,100.0
3438,E5,404.5,3/10,27,100.0
3439,C#4,404.833,3/10,30,100.0
3440,E5,404.833,3/10,30,100.0
3441,G4,404.833,3/10,30,100.0
3442,B-5,404.833,3/10,30,100.0
3443,B-4,404.833,3/10,30,100.0
3444,C5,405.167,333/1000,67,100.0
3445,C6,405.167,333/1000,67,100.0
3446,B-4,405.167,3/10,27,100.0
3447,D4,405.167,3/10,27,100.0
3448,G4,405.167,3/10,27,100.0
3449,B-5,405.5,1.5,72,100.0
3450,B-6,405.5,1.5,72,100.0
3451,B-4,405.5,3/10,28,100.0
3452,G4,405.5,3/10,28,100.0
3453,E-4,405.5,3/10,28,100.0
3454,E4,405.833,3/10,33,100.0
3455,E6,405.833,3/10,33,100.0
3456,C#6,405.833,3/10,33,100.0
3457,B-4,405.833,3/10,33,100.0
3458,G4,405.833,3/10,33,100.0
3459,C#6,406.167,3/10,34,100.0
3460,G4,406.167,3/10,34,100.0
3461,F4,406.167,3/10,34,100.0
3462,E6,406.167,3/10,34,100.0
3463,B-4,406.167,3/10,34,100.0
3464,F#4,406.5,3/10,36,100.0
3465,G4,406.5,3/10,36,100.0
3466,B-4,406.5,3/10,36,100.0
3467,E6,406.5,3/10,36,100.0
3468,C#6,406.5,3/10,36,100.0
3469,G4,406.833,3/10,39,100.0
3470,E6,406.833,3/10,39,100.0
3471,C#6,406.833,3/10,39,100.0
3472,B-4,406.833,3/10,39,100.0
3473,E5,407.167,333/1000,58,100.0
3474,E6,407.167,333/1000,58,100.0
3475,F2,407.5,333/1000,45,100.0
3476,F6,407.5,2.0,66,100.0
3477,F5,407.5,2.0,66,100.0
3478,A5,407.833,3/10,28,100.0
3479,C6,407.833,3/10,28,100.0
3480,F4,407.833,3/10,28,100.0
3481,A3,407.833,3/10,28,100.0
3482,A4,407.833,3/10,28,100.0
3483,F4,408.167,3/10,29,100.0
3484,A5,408.167,3/10,29,100.0
3485,B-3,408.167,3/10,29,100.0
3486,C6,408.167,3/10,29,100.0
3487,A4,408.167,3/10,29,100.0
3488,A4,408.5,3/10,31,100.0
3489,A5,408.5,3/10,31,100.0
3490,F4,408.5,3/10,31,100.0
3491,B3,408.5,3/10,31,100.0
3492,C6,408.5,3/10,31,100.0
3493,F4,408.833,3/10,34,100.0
3494,C4,408.833,3/10,34,100.0
3495,C6,408.833,3/10,34,100.0
3496,A5,408.833,3/10,34,100.0
3497,A4,408.833,3/10,34,100.0
3498,A5,409.167,3/10,35,100.0
3499,F4,409.167,3/10,35,100.0
3500,C6,409.167,3/10,35,100.0
3501,C#4,409.167,3/10,35,100.0
3502,A4,409.167,3/10,35,100.0
3503,A5,409.5,3/10,34,100.0
3504,D4,409.5,3/10,34,100.0
3505,C6,409.5,3/10,34,100.0
3506,A4,409.5,3/10,34,100.0
3507,F4,409.5,3/10,34,100.0
3508,C6,409.833,3/10,39,100.0
3509,A5,409.833,3/10,39,100.0
3510,A4,409.833,3/10,39,100.0
3511,F4,409.833,3/10,39,100.0
3512,E-4,409.833,3/10,39,100.0
3513,E4,410.167,3/10,42,100.0
3514,C6,410.167,3/10,42,100.0
3515,A5,410.167,3/10,42,100.0
3516,F4,410.167,3/10,42,100.0
3517,A4,410.167,3/10,42,100.0
3518,A4,410.5,3/10,48,100.0
3519,F4,410.5,3/10,48,100.0
3520,A5,410.5,3/10,48,100.0
3521,C6,410.5,3/10,48,100.0
3522,A5,410.833,3/10,57,100.0
3523,C6,410.833,3/10,57,100.0
3524,C6,411.156,3/10,59,100.0
3525,A5,411.156,3/10,59,100.0
3526,F5,411.5,2.0,71,100.0
3527,F6,411.5,2.0,71,100.0
3528,C#2,411.5,333/1000,51,100.0
3529,C#3,411.5,333/1000,51,100.0
3530,F3,411.833,3/10,31,100.0
3531,G#5,411.833,3/10,31,100.0
3532,F4,411.833,3/10,31,100.0
3533,C#4,411.833,3/10,31,100.0
3534,C#6,411.833,3/10,31,100.0
3535,C#4,412.167,3/10,33,100.0
3536,G#5,412.167,3/10,33,100.0
3537,F4,412.167,3/10,33,100.0
3538,F#3,412.167,3/10,33,100.0
3539,C#6,412.167,3/10,33,100.0
3540,G#5,412.5,3/10,35,100.0
3541,C#6,412.5,3/10,35,100.0
3542,F4,412.5,3/10,35,100.0
3543,G3,412.5,3/10,35,100.0
3544,C#4,412.5,3/10,35,100.0
3545,F4,412.833,3/10,38,100.0
3546,G#5,412.833,3/10,38,100.0
3547,C#6,412.833,3/10,38,100.0
3548,G#3,412.833,3/10,38,100.0
3549,C#4,412.833,3/10,38,100.0
3550,A3,413.167,3/10,40,100.0
3551,G#5,413.167,3/10,40,100.0
3552,C#6,413.167,3/10,40,100.0
3553,C#4,413.167,3/10,40,100.0
3554,F4,413.167,3/10,40,100.0
3555,F5,413.5,1.5,68,100.0
3556,F6,413.5,1.5,68,100.0
3557,B-3,413.5,3/10,37,100.0
3558,F4,413.5,3/10,37,100.0
3559,C#4,413.5,3/10,37,100.0
3560,G#5,413.833,3/10,43,100.0
3561,C#4,413.833,3/10,43,100.0
3562,B3,413.833,3/10,43,100.0
3563,F4,413.833,3/10,43,100.0
3564,C#6,413.833,3/10,43,100.0
3565,C4,414.167,3/10,46,100.0
3566,F4,414.167,3/10,46,100.0
3567,G#5,414.167,3/10,46,100.0
3568,C#6,414.167,3/10,46,100.0
3569,C#4,414.167,3/10,46,100.0
3570,C#4,414.5,3/10,52,100.0
3571,F4,414.5,3/10,52,100.0
3572,C#6,414.5,3/10,52,100.0
3573,G#5,414.5,3/10,52,100.0
3574,G#5,414.833,3/10,57,100.0
3575,C#6,414.833,3/10,57,100.0
3576,F5,415.167,333/1000,66,100.0
3577,F6,415.167,333/1000,66,100.0
3578,G#5,415.5,2.0,76,100.0
3579,G#6,415.5,2.0,76,100.0
3580,G#1,415.5,333/1000,55,100.0
3581,G#2,415.5,333/1000,55,100.0
3582,E-6,415.833,3/10,34,100.0
3583,G#3,415.833,3/10,34,100.0
3584,G#4,415.833,3/10,34,100.0
3585,C#6,415.833,3/10,34,100.0
3586,E-4,415.833,3/10,34,100.0
3587,C#6,416.167,3/10,35,100.0
3588,E-6,416.167,3/10,35,100.0
3589,A3,416.167,3/10,35,100.0
3590,G#4,416.167,3/10,35,100.0
3591,E-4,416.167,3/10,35,100.0
3592,C#6,416.5,3/10,38,100.0
3593,E-4,416.5,3/10,38,100.0
3594,B-3,416.5,3/10,38,100.0
3595,E-6,416.5,3/10,38,100.0
3596,G#4,416.5,3/10,38,100.0
3597,G#4,416.833,3/10,42,100.0
3598,C#6,416.833,3/10,42,100.0
3599,E-6,416.833,3/10,42,100.0
3600,B3,416.833,3/10,42,100.0
3601,E-4,416.833,3/10,42,100.0
3602,E-6,417.167,3/10,43,100.0
3603,C4,417.167,3/10,43,100.0
3604,C#6,417.167,3/10,43,100.0
3605,E-4,417.167,3/10,43,100.0
3606,G#4,417.167,3/10,43,100.0
3607,E-5,417.5,1.0,74,100.0
3608,E-6,417.5,1.0,74,100.0
3609,G#5,417.833,3/10,48,100.0
3610,C6,417.833,3/10,48,100.0
3611,B3,417.833,3/10,48,100.0
3612,E-4,417.833,3/10,48,100.0
3613,G#4,417.833,3/10,48,100.0
3614,G#5,418.167,3/10,50,100.0
3615,C4,418.167,3/10,50,100.0
3616,G#4,418.167,3/10,50,100.0
3617,C6,418.167,3/10,50,100.0
3618,E-4,418.167,3/10,50,100.0
3619,E-4,418.5,3/10,52,100.0
3620,G#4,418.5,3/10,52,100.0
3621,C6,418.5,3/10,52,100.0
3622,C#4,418.5,3/10,52,100.0
3623,G#5,418.5,3/10,52,100.0
3624,G#4,418.833,3/10,53,100.0
3625,D4,418.833,3/10,53,100.0
3626,C6,418.833,3/10,53,100.0
3627,G#5,418.833,3/10,53,100.0
3628,E-4,419.167,3/10,53,100.0
3629,G#4,419.167,3/10,53,100.0
3630,G#5,419.167,3/10,53,100.0
3631,C6,419.167,3/10,53,100.0
3632,G#6,419.5,2.0,82,100.0
3633,G#5,419.5,2.0,82,100.0
3634,E3,419.5,333/1000,59,100.0
3635,E2,419.5,333/1000,59,100.0
3636,G#3,419.833,3/10,35,100.0
3637,B5,419.833,3/10,35,100.0
3638,E4,419.833,3/10,35,100.0
3639,G#4,419.833,3/10,35,100.0
3640,E6,419.833,3/10,35,100.0
3641,B5,420.167,3/10,39,100.0
3642,E6,420.167,3/10,39,100.0
3643,G#4,420.167,3/10,39,100.0
3644,A3,420.167,3/10,39,100.0
3645,E4,420.167,3/10,39,100.0
3646,B5,420.5,3/10,40,100.0
3647,E4,420.5,3/10,40,100.0
3648,E6,420.5,3/10,40,100.0
3649,B-3,420.5,3/10,40,100.0
3650,G#4,420.5,3/10,40,100.0
3651,E6,420.833,3/10,44,100.0
3652,G#4,420.833,3/10,44,100.0
3653,B3,420.833,3/10,44,100.0
3654,E4,420.833,3/10,44,100.0
3655,B5,420.833,3/10,44,100.0
3656,B5,421.167,3/10,46,100.0
3657,C4,421.167,3/10,46,100.0
3658,G#4,421.167,3/10,46,100.0
3659,E6,421.167,3/10,46,100.0
3660,E4,421.167,3/10,46,100.0
3661,G#5,421.5,1.5,78,100.0
3662,G#6,421.5,1.5,78,100.0
3663,G#4,421.5,3/10,42,100.0
3664,C#4,421.5,3/10,42,100.0
3665,E4,421.5,3/10,42,100.0
3666,D4,421.833,3/10,50,100.0
3667,G#4,421.833,3/10,50,100.0
3668,E6,421.833,3/10,50,100.0
3669,B5,421.833,3/10,50,100.0
3670,E4,421.833,3/10,50,100.0
3671,E4,422.167,3/10,52,100.0
3672,E-4,422.167,3/10,52,100.0
3673,E6,422.167,3/10,52,100.0
3674,B5,422.167,3/10,52,100.0
3675,G#4,422.167,3/10,52,100.0
3676,E4,422.5,3/10,58,100.0
3677,E6,422.5,3/10,58,100.0
3678,G#4,422.5,3/10,58,100.0
3679,B5,422.5,3/10,58,100.0
3680,E6,422.833,3/10,64,100.0
3681,B5,422.833,3/10,64,100.0
3682,G#5,423.167,333/1000,76,100.0
3683,G#6,423.167,333/1000,76,100.0
3684,B6,423.5,2.0,86,100.0
3685,B5,423.5,2.0,86,100.0
3686,B2,423.5,333/1000,62,100.0
3687,B1,423.5,333/1000,62,100.0
3688,F#6,423.833,3/10,38,100.0
3689,E6,423.833,3/10,38,100.0
3690,B3,423.833,3/10,38,100.0
3691,B4,423.833,3/10,38,100.0
3692,F#4,423.833,3/10,38,100.0
3693,C4,424.167,3/10,40,100.0
3694,B4,424.167,3/10,40,100.0
3695,F#6,424.167,3/10,40,100.0
3696,E6,424.167,3/10,40,100.0
3697,F#4,424.167,3/10,40,100.0
3698,F#6,424.5,3/10,42,100.0
3699,C#4,424.5,3/10,42,100.0
3700,F#4,424.5,3/10,42,100.0
3701,B4,424.5,3/10,42,100.0
3702,E6,424.5,3/10,42,100.0
3703,D4,424.833,3/10,48,100.0
3704,F#6,424.833,3/10,48,100.0
3705,E6,424.833,3/10,48,100.0
3706,B4,424.833,3/10,48,100.0
3707,F#4,424.833,3/10,48,100.0
3708,E6,425.167,3/10,48,100.0
3709,E-4,425.167,3/10,48,100.0
3710,F#6,425.167,3/10,48,100.0
3711,F#4,425.167,3/10,48,100.0
3712,B4,425.167,3/10,48,100.0
3713,F#6,425.5,1.0,82,100.0
3714,F#5,425.5,1.0,82,100.0
3715,D4,425.833,3/10,54,100.0
3716,F#4,425.833,3/10,54,100.0
3717,E-6,425.833,3/10,54,100.0
3718,B5,425.833,3/10,54,100.0
3719,B4,425.833,3/10,54,100.0
3720,F#4,426.167,3/10,56,100.0
3721,B4,426.167,3/10,56,100.0
3722,B5,426.167,3/10,56,100.0
3723,E-6,426.167,3/10,56,100.0
3724,E-4,426.167,3/10,56,100.0
3725,E4,426.5,3/10,58,100.0
3726,E-6,426.5,3/10,58,100.0
3727,B4,426.5,3/10,58,100.0
3728,B5,426.5,3/10,58,100.0
3729,F#4,426.5,3/10,58,100.0
3730,F4,426.833,3/10,60,100.0
3731,E-6,426.833,3/10,60,100.0
3732,B4,426.833,3/10,60,100.0
3733,B5,426.833,3/10,60,100.0
3734,E-6,427.167,9/40,60,100.0
3735,B5,427.167,9/40,60,100.0
3736,B4,427.167,9/40,60,100.0
3737,F#4,427.167,9/40,60,100.0
3738,G#3,427.406,0.094,49,100.0
3739,D4,427.406,0.094,49,100.0
3740,F4,427.469,0.031,59,100.0
3741,B4,427.5,2.0,79,100.0
3742,F4,427.5,0.469,59,100.0
3743,G#3,427.5,0.406,49,100.0
3744,D4,427.5,0.406,49,100.0
3745,C#4,428.167,3/10,37,100.0
3746,B4,428.167,3/10,37,100.0
3747,B4,428.5,3/10,37,100.0
3748,D4,428.5,3/10,37,100.0
3749,B4,428.833,3/10,37,100.0
3750,E-4,428.833,3/10,37,100.0
3751,B4,429.167,3/10,37,100.0
3752,E4,429.167,3/10,37,100.0
3753,G#2,429.312,0.5,45,100.0
3754,D3,429.375,0.5,49,100.0
3755,F3,429.438,0.5,53,100.0
3756,B3,429.5,1.5,73,100.0
3757,F4,429.5,3/10,37,100.0
3758,B4,429.5,3/10,37,100.0
3759,B4,429.833,3/10,37,100.0
3760,F#4,429.833,3/10,37,100.0
3761,B4,430.167,3/10,37,100.0
3762,G4,430.167,3/10,37,100.0
3763,B4,430.5,3/10,37,100.0
3764,G#4,430.5,3/10,37,100.0
3765,B4,430.833,3/10,37,100.0
3766,A4,430.833,3/10,37,100.0
3767,B3,431.0,0.5,71,100.0
3768,B4,431.167,3/10,37,100.0
3769,B-4,431.167,3/10,37,100.0
3770,G#2,431.375,0.125,40,100.0
3771,E-3,431.438,0.062,40,100.0
3772,B4,431.5,3/10,40,100.0
3773,B3,431.5,1.0,75,100.0
3774,G#2,431.5,0.375,40,100.0
3775,E-3,431.5,0.438,40,100.0
3776,B4,431.833,3/10,38,100.0
3777,C5,431.833,3/10,38,100.0
3778,B4,432.167,3/10,39,100.0
3779,C#5,432.167,3/10,39,100.0
3780,D5,432.5,3/10,40,100.0
3781,B4,432.5,3/10,40,100.0
3782,E-5,432.833,3/10,41,100.0
3783,B4,432.833,3/10,41,100.0
3784,B4,433.167,3/10,42,100.0
3785,E5,433.167,3/10,42,100.0
3786,G#1,433.25,0.25,52,100.0
3787,E-2,433.25,0.25,52,100.0
3788,F5,433.5,3/10,43,100.0
3789,B4,433.5,3/10,43,100.0
3790,E-2,433.5,0.5,61,100.0
3791,G#1,433.5,0.5,61,100.0
3792,F#5,433.833,3/10,44,100.0
3793,B4,433.833,3/10,44,100.0
3794,G5,434.167,3/10,46,100.0
3795,B4,434.167,3/10,46,100.0
3796,B4,434.5,3/10,46,100.0
3797,G#5,434.5,3/10,46,100.0
3798,A5,434.833,3/10,48,100.0
3799,B4,434.833,3/10,48,100.0
3800,B-5,435.167,3/10,49,100.0
3801,B4,435.167,3/10,49,100.0
3802,G#3,435.406,0.094,49,100.0
3803,D4,435.406,0.094,49,100.0
3804,F4,435.469,0.031,59,100.0
3805,B5,435.5,3/10,51,100.0
3806,B4,435.5,2.0,79,100.0
3807,F4,435.5,0.469,59,100.0
3808,G#3,435.5,0.406,49,100.0
3809,D4,435.5,0.406,49,100.0
3810,B5,435.833,3/10,48,100.0
3811,C5,435.833,3/10,48,100.0
3812,B5,436.167,3/10,48,100.0
3813,C#5,436.167,3/10,48,100.0
3814,B5,436.5,3/10,49,100.0
3815,D5,436.5,3/10,49,100.0
3816,B5,436.833,3/10,50,100.0
3817,E-5,436.833,3/10,50,100.0
3818,E5,437.167,3/10,52,100.0
3819,B5,437.167,3/10,52,100.0
3820,G#2,437.312,0.5,45,100.0
3821,D3,437.375,0.5,49,100.0
3822,F3,437.438,0.5,53,100.0
3823,B3,437.5,1.5,73,100.0
3824,F5,437.5,3/10,52,100.0
3825,B5,437.5,3/10,52,100.0
3826,B5,437.833,3/10,54,100.0
3827,F#5,437.833,3/10,54,100.0
3828,G5,438.167,3/10,54,100.0
3829,B5,438.167,3/10,54,100.0
3830,G#5,438.5,3/10,55,100.0
3831,B5,438.5,3/10,55,100.0
3832,A5,438.833,3/10,55,100.0
3833,B5,438.833,3/10,55,100.0
3834,B3,439.0,0.5,71,100.0
3835,B5,439.167,3/10,56,100.0
3836,B-5,439.167,3/10,56,100.0
3837,G#2,439.375,0.125,40,100.0
3838,E-3,439.438,0.062,40,100.0
3839,B5,439.5,3/10,62,100.0
3840,B3,439.5,1.0,75,100.0
3841,G#2,439.5,0.375,40,100.0
3842,E-3,439.5,0.438,40,100.0
3843,C6,439.833,3/10,58,100.0
3844,B5,439.833,3/10,58,100.0
3845,B5,440.167,3/10,60,100.0
3846,C#6,440.167,3/10,60,100.0
3847,B5,440.5,3/10,60,100.0
3848,D6,440.5,3/10,60,100.0
3849,B5,440.833,3/10,61,100.0
3850,E-6,440.833,3/10,61,100.0
3851,E6,441.167,3/10,62,100.0
3852,B5,441.167,3/10,62,100.0
3853,E-2,441.25,0.25,52,100.0
3854,G#1,441.25,0.25,52,100.0
3855,F6,441.5,3/10,62,100.0
3856,B5,441.5,3/10,62,100.0
3857,E-2,441.5,0.5,62,100.0
3858,G#1,441.5,0.5,62,100.0
3859,B5,441.833,3/10,64,100.0
3860,F#6,441.833,3/10,64,100.0
3861,G6,442.167,3/10,64,100.0
3862,B5,442.167,3/10,64,100.0
3863,B5,442.5,3/10,64,100.0
3864,G#6,442.5,3/10,64,100.0
3865,B5,442.833,3/10,66,100.0
3866,A6,442.833,3/10,66,100.0
3867,B5,443.167,3/10,66,100.0
3868,B-6,443.167,3/10,66,100.0
3869,G#3,443.406,0.094,52,100.0
3870,D4,443.406,0.094,52,100.0
3871,F4,443.469,0.031,62,100.0
3872,B4,443.5,2.0,84,100.0
3873,F4,443.5,0.469,62,100.0
3874,B5,443.5,3/10,66,100.0
3875,B6,443.5,3/10,66,100.0
3876,G#3,443.5,0.406,52,100.0
3877,D4,443.5,0.406,52,100.0
3878,B6,443.833,3/10,67,100.0
3879,C6,443.833,3/10,67,100.0
3880,C#6,444.167,3/10,68,100.0
3881,B6,444.167,3/10,68,100.0
3882,B6,444.5,3/10,68,100.0
3883,D6,444.5,3/10,68,100.0
3884,B6,444.833,3/10,69,100.0
3885,E-6,444.833,3/10,69,100.0
3886,E6,445.167,3/10,70,100.0
3887,B6,445.167,3/10,70,100.0
3888,G#2,445.312,0.5,49,100.0
3889,D3,445.375,0.5,53,100.0
3890,F3,445.438,0.5,58,100.0
3891,B3,445.5,1.5,80,100.0
3892,E6,445.833,3/10,75,100.0
3893,B6,445.833,3/10,75,100.0
3894,D6,445.833,3/10,75,100.0
3895,F6,446.167,3/10,72,100.0
3896,D6,446.167,3/10,72,100.0
3897,B6,446.167,3/10,72,100.0
3898,D6,446.5,3/10,72,100.0
3899,F#6,446.5,3/10,72,100.0
3900,B6,446.5,3/10,72,100.0
3901,G6,446.833,3/10,73,100.0
3902,B6,446.833,3/10,73,100.0
3903,D6,446.833,3/10,73,100.0
3904,B3,447.0,0.5,80,100.0
3905,B6,447.167,0.188,74,100.0
3906,D6,447.167,0.188,74,100.0
3907,G#6,447.167,0.188,74,100.0
3908,G2,447.25,0.25,51,100.0
3909,E3,447.375,0.125,64,100.0
3910,G3,447.438,0.062,69,100.0
3911,G2,447.5,0.25,51,100.0
3912,E3,447.5,0.375,64,100.0
3913,G3,447.5,0.438,69,100.0
3914,C4,447.5,2.0,85,100.0
3915,E4,447.5,2.0,85,100.0
3916,G6,447.833,333/1000,77,100.0
3917,E7,447.833,333/1000,77,100.0
3918,C7,447.833,333/1000,77,100.0
3919,E-7,448.167,333/1000,77,100.0
3920,F#6,448.167,333/1000,77,100.0
3921,B6,448.167,333/1000,77,100.0
3922,F6,448.5,333/1000,76,100.0
3923,B-6,448.5,333/1000,76,100.0
3924,D7,448.5,333/1000,76,100.0
3925,C#7,448.833,333/1000,75,100.0
3926,A6,448.833,333/1000,75,100.0
3927,E6,448.833,333/1000,75,100.0
3928,C7,449.167,333/1000,75,100.0
3929,E-6,449.167,333/1000,75,100.0
3930,G#6,449.167,333/1000,75,100.0
3931,B6,449.5,333/1000,74,100.0
3932,D6,449.5,333/1000,74,100.0
3933,G6,449.5,333/1000,74,100.0
3934,G2,449.5,0.5,78,100.0
3935,G1,449.5,0.5,78,100.0
3936,B-6,449.833,333/1000,79,100.0
3937,C#6,449.833,333/1000,79,100.0
3938,F#6,449.833,333/1000,79,100.0
3939,F6,450.167,333/1000,73,100.0
3940,C6,450.167,333/1000,73,100.0
3941,A6,450.167,333/1000,73,100.0
3942,B5,450.5,333/1000,72,100.0
3943,E6,450.5,333/1000,72,100.0
3944,G#6,450.5,333/1000,72,100.0
3945,C4,450.5,1.0,73,100.0
3946,G3,450.5,1.0,73,100.0
3947,E4,450.5,1.0,73,100.0
3948,E-6,450.833,333/1000,72,100.0
3949,G6,450.833,333/1000,72,100.0
3950,B-5,450.833,333/1000,72,100.0
3951,F#6,451.167,333/1000,72,100.0
3952,D6,451.167,333/1000,72,100.0
3953,A5,451.167,333/1000,72,100.0
3954,C#6,451.5,333/1000,64,100.0
3955,G#5,451.5,333/1000,64,100.0
3956,F6,451.5,333/1000,64,100.0
3957,G#3,451.5,1.812,76,100.0
3958,F4,451.5,1.812,76,100.0
3959,C#4,451.5,1.812,76,100.0
3960,G5,451.833,333/1000,64,100.0
3961,E6,451.833,333/1000,64,100.0
3962,C6,451.833,333/1000,64,100.0
3963,F#5,452.167,333/1000,71,100.0
3964,E-6,452.167,333/1000,71,100.0
3965,B5,452.167,333/1000,71,100.0
3966,F5,452.5,333/1000,62,100.0
3967,B-5,452.5,333/1000,62,100.0
3968,D6,452.5,333/1000,62,100.0
3969,C#6,452.833,333/1000,62,100.0
3970,E5,452.833,333/1000,62,100.0
3971,A5,452.833,333/1000,62,100.0
3972,E-5,453.167,333/1000,60,100.0
3973,C6,453.167,333/1000,60,100.0
3974,G#5,453.167,333/1000,60,100.0
3975,G2,453.312,0.5,49,100.0
3976,D3,453.375,0.5,53,100.0
3977,F3,453.438,0.5,58,100.0
3978,B3,453.5,1.5,80,100.0
3979,G5,453.833,333/1000,66,100.0
3980,B5,453.833,333/1000,66,100.0
3981,D5,453.833,333/1000,66,100.0
3982,B-5,454.167,333/1000,66,100.0
3983,F#5,454.167,333/1000,66,100.0
3984,C#5,454.167,333/1000,66,100.0
3985,C5,454.5,333/1000,69,100.0
3986,F5,454.5,333/1000,69,100.0
3987,A5,454.5,333/1000,69,100.0
3988,G#5,454.833,333/1000,65,100.0
3989,D5,454.833,333/1000,65,100.0
3990,B4,454.833,333/1000,65,100.0
3991,F3,455.0,0.5,68,100.0
3992,D3,455.0,0.5,68,100.0
3993,B3,455.0,0.5,68,100.0
3994,D5,455.167,333/1000,65,100.0
3995,G5,455.167,333/1000,65,100.0
3996,B4,455.167,333/1000,65,100.0
3997,C4,455.5,2.0,76,100.0
3998,G3,455.5,2.0,76,100.0
3999,E4,455.5,2.0,76,100.0
4000,E6,455.833,333/1000,65,100.0
4001,G5,455.833,333/1000,65,100.0
4002,C6,455.833,333/1000,65,100.0
4003,B5,456.167,333/1000,65,100.0
4004,F#5,456.167,333/1000,65,100.0
4005,E-6,456.167,333/1000,65,100.0
4006,D6,456.5,333/1000,64,100.0
4007,B-5,456.5,333/1000,64,100.0
4008,F5,456.5,333/1000,64,100.0
4009,A5,456.833,333/1000,63,100.0
4010,C#6,456.833,333/1000,63,100.0
4011,E5,456.833,333/1000,63,100.0
4012,G#5,457.167,333/1000,63,100.0
4013,E-5,457.167,333/1000,63,100.0
4014,C6,457.167,333/1000,63,100.0
4015,B5,457.5,333/1000,62,100.0
4016,D5,457.5,333/1000,62,100.0
4017,G5,457.5,333/1000,62,100.0
4018,G2,457.5,0.5,70,100.0
4019,G1,457.5,0.5,70,100.0
4020,B-5,457.833,333/1000,62,100.0
4021,C#5,457.833,333/1000,62,100.0
4022,F#5,457.833,333/1000,62,100.0
4023,A5,458.167,333/1000,60,100.0
4024,C5,458.167,333/1000,60,100.0
4025,F5,458.167,333/1000,60,100.0
4026,E5,458.5,333/1000,59,100.0
4027,B4,458.5,333/1000,59,100.0
4028,G#5,458.5,333/1000,59,100.0
4029,G3,458.5,1.0,71,100.0
4030,C4,458.5,1.0,71,100.0
4031,E4,458.5,1.0,71,100.0
4032,G5,458.833,333/1000,58,100.0
4033,B-4,458.833,333/1000,58,100.0
4034,E-5,458.833,333/1000,58,100.0
4035,D5,459.167,333/1000,58,100.0
4036,F#5,459.167,333/1000,58,100.0
4037,A4,459.167,333/1000,58,100.0
4038,F4,459.5,3.0,81,100.0
4039,G#4,459.5,333/1000,57,100.0
4040,C#5,459.5,333/1000,57,100.0
4041,F5,459.5,333/1000,57,100.0
4042,C#4,459.5,1.0,69,100.0
4043,G#3,459.5,1.0,69,100.0
4044,E5,459.833,333/1000,60,100.0
4045,C5,459.833,333/1000,60,100.0
4046,E-5,460.167,333/1000,58,100.0
4047,B4,460.167,333/1000,58,100.0
4048,B-4,460.5,333/1000,57,100.0
4049,D5,460.5,333/1000,57,100.0
4050,E4,460.833,333/1000,54,100.0
4051,A4,460.833,333/1000,54,100.0
4052,C#5,460.833,333/1000,54,100.0
4053,E-4,461.167,333/1000,53,100.0
4054,C5,461.167,333/1000,53,100.0
4055,G#4,461.167,333/1000,53,100.0
4056,G4,461.5,333/1000,53,100.0
4057,B4,461.5,333/1000,53,100.0
4058,D4,461.5,333/1000,53,100.0
4059,B-4,461.833,333/1000,53,100.0
4060,F#4,461.833,333/1000,53,100.0
4061,C#4,461.833,333/1000,53,100.0
4062,C4,462.167,333/1000,51,100.0
4063,A4,462.167,333/1000,51,100.0
4064,F4,462.167,333/1000,51,100.0
4065,E4,462.5,333/1000,50,100.0
4066,B3,462.5,333/1000,50,100.0
4067,G#4,462.5,333/1000,50,100.0
4068,B-3,462.833,333/1000,50,100.0
4069,E-4,462.833,333/1000,50,100.0
4070,G4,462.833,333/1000,50,100.0
4071,A3,463.167,333/1000,49,100.0
4072,F#4,463.167,333/1000,49,100.0
4073,D4,463.167,333/1000,49,100.0
4074,C#4,463.5,333/1000,51,100.0
4075,F4,463.5,333/1000,51,100.0
4076,G#3,463.5,333/1000,51,100.0
4077,E4,463.833,333/1000,48,100.0
4078,C4,463.833,333/1000,48,100.0
4079,G3,463.833,333/1000,48,100.0
4080,F#3,464.167,333/1000,46,100.0
4081,B3,464.167,333/1000,46,100.0
4082,E-4,464.167,333/1000,46,100.0
4083,D4,464.5,333/1000,45,100.0
4084,F3,464.5,333/1000,45,100.0
4085,B-3,464.5,333/1000,45,100.0
4086,E3,464.833,333/1000,45,100.0
4087,A3,464.833,333/1000,45,100.0
4088,C#4,464.833,333/1000,45,100.0
4089,E-3,465.167,333/1000,43,100.0
4090,C4,465.167,333/1000,43,100.0
4091,G#3,465.167,333/1000,43,100.0
4092,D3,465.5,333/1000,42,100.0
4093,G3,465.5,333/1000,42,100.0
4094,B3,465.5,333/1000,42,100.0
4095,F#3,465.833,333/1000,41,100.0
4096,B-3,465.833,333/1000,41,100.0
4097,C#3,465.833,333/1000,41,100.0
4098,F3,466.167,333/1000,40,100.0
4099,A3,466.167,333/1000,40,100.0
4100,C3,466.167,333/1000,40,100.0
4101,G#3,466.5,333/1000,39,100.0
4102,E3,466.5,333/1000,39,100.0
4103,B2,466.5,333/1000,39,100.0
4104,G3,466.833,333/1000,38,100.0
4105,E-3,466.833,333/1000,38,100.0
4106,B-2,466.833,333/1000,38,100.0
4107,D3,467.167,333/1000,37,100.0
4108,A2,467.167,333/1000,37,100.0
4109,F#3,467.167,333/1000,37,100.0
4110,G#2,467.5,333/1000,37,100.0
4111,F3,467.5,333/1000,37,100.0
4112,C#3,467.5,333/1000,37,100.0
4113,C3,467.833,333/1000,37,100.0
4114,G2,467.833,333/1000,37,100.0
4115,E3,467.833,333/1000,37,100.0
4116,E-3,468.167,333/1000,35,100.0
4117,F#2,468.167,333/1000,35,100.0
4118,B2,468.167,333/1000,35,100.0
4119,F2,468.5,333/1000,36,100.0
4120,D3,468.5,333/1000,36,100.0
4121,B-2,468.5,333/1000,36,100.0
4122,A2,468.833,333/1000,34,100.0
4123,E2,468.833,333/1000,34,100.0
4124,C#3,468.833,333/1000,34,100.0
4125,C3,469.167,333/1000,32,100.0
4126,E-2,469.167,333/1000,32,100.0
4127,G#2,469.167,333/1000,32,100.0
4128,D2,469.5,333/1000,32,100.0
4129,B2,469.5,333/1000,32,100.0
4130,G2,469.5,333/1000,32,100.0
4131,B-2,469.833,333/1000,31,100.0
4132,C#2,469.833,333/1000,31,100.0
4133,F#2,469.833,333/1000,31,100.0
4134,C2,470.167,333/1000,30,100.0
4135,A2,470.167,333/1000,30,100.0
4136,F2,470.167,333/1000,30,100.0
4137,B1,470.5,333/1000,30,100.0
4138,E2,470.5,333/1000,30,100.0
4139,G#2,470.5,333/1000,30,100.0
4140,G2,470.833,333/1000,29,100.0
4141,E-2,470.833,333/1000,29,100.0
4142,B-1,470.833,333/1000,29,100.0
4143,F#2,471.167,333/1000,28,100.0
4144,A1,471.167,333/1000,28,100.0
4145,D2,471.167,333/1000,28,100.0
4146,C#2,471.5,333/1000,25,100.0
4147,F2,471.5,333/1000,25,100.0
4148,G#1,471.5,333/1000,25,100.0
4149,A1,471.833,333/1000,27,100.0
4150,F#2,471.833,333/1000,27,100.0
4151,D2,471.833,333/1000,27,100.0
4152,E-2,472.167,333/1000,30,100.0
4153,G2,472.167,333/1000,30,100.0
4154,B-1,472.167,333/1000,30,100.0
4155,E2,472.5,333/1000,31,100.0
4156,B1,472.5,333/1000,31,100.0
4157,G#2,472.5,333/1000,31,100.0
4158,E-2,472.833,333/1000,30,100.0
4159,G2,472.833,333/1000,30,100.0
4160,B-1,472.833,333/1000,30,100.0
4161,D2,473.167,333/1000,29,100.0
4162,A1,473.167,333/1000,29,100.0
4163,F#2,473.167,333/1000,29,100.0
4164,G#1,473.5,333/1000,28,100.0
4165,C#2,473.5,333/1000,28,100.0
4166,F2,473.5,333/1000,28,100.0
4167,F#2,473.833,333/1000,30,100.0
4168,D2,473.833,333/1000,30,100.0
4169,A1,473.833,333/1000,30,100.0
4170,E-2,474.167,333/1000,30,100.0
4171,G2,474.167,333/1000,30,100.0
4172,B-1,474.167,333/1000,30,100.0
4173,G#2,474.5,333/1000,33,100.0
4174,B1,474.5,333/1000,33,100.0
4175,E2,474.5,333/1000,33,100.0
4176,B-1,474.833,333/1000,31,100.0
4177,G2,474.833,333/1000,31,100.0
4178,E-2,474.833,333/1000,31,100.0
4179,A1,475.167,333/1000,30,100.0
4180,D2,475.167,333/1000,30,100.0
4181,F#2,475.167,333/1000,30,100.0
4182,F2,475.5,333/1000,34,100.0
4183,C#2,475.5,333/1000,34,100.0
4184,G#1,475.5,333/1000,34,100.0
4185,D2,475.833,333/1000,32,100.0
4186,A1,475.833,333/1000,32,100.0
4187,F#2,475.833,333/1000,32,100.0
4188,E-2,476.167,333/1000,34,100.0
4189,B-1,476.167,333/1000,34,100.0
4190,G2,476.167,333/1000,34,100.0
4191,E2,476.5,333/1000,34,100.0
4192,G#2,476.5,333/1000,34,100.0
4193,B1,476.5,333/1000,34,100.0
4194,B-1,476.833,333/1000,35,100.0
4195,E-2,476.833,333/1000,35,100.0
4196,G2,476.833,333/1000,35,100.0
4197,A1,477.167,333/1000,37,100.0
4198,D2,477.167,333/1000,37,100.0
4199,F#2,477.167,333/1000,37,100.0
4200,C#2,477.5,333/1000,34,100.0
4201,G#1,477.5,333/1000,34,100.0
4202,F2,477.5,333/1000,34,100.0
4203,F#2,477.833,333/1000,34,100.0
4204,D2,477.833,333/1000,34,100.0
4205,A1,477.833,333/1000,34,100.0
4206,B-1,478.167,333/1000,33,100.0
4207,G2,478.167,333/1000,33,100.0
4208,E-2,478.167,333/1000,33,100.0
4209,E2,478.5,333/1000,38,100.0
4210,B1,478.5,667/1000,35,100.0
4211,G#2,478.5,667/1000,35,100.0
4212,F2,478.833,333/1000,37,100.0
4213,C#1,478.833,667/1000,31,100.0
4214,G2,479.167,333/1000,37,100.0
4215,G2,479.5,1.0,37,100.0
4216,C2,479.5,1.0,38,100.0
4217,C1,479.5,1.0,38,100.0
4218,E2,479.5,1.0,38,100.0
4219,C4,480.5,1.0,48,100.0
4220,C3,480.5,0.625,38,100.0
4221,G3,480.833,333/1000,30,100.0
4222,E3,480.833,333/1000,30,100.0
4223,C2,481.167,333/1000,30,100.0
4224,C3,481.167,333/1000,30,100.0
4225,C#4,481.5,1.0,49,100.0
4226,C#3,481.5,1.0,40,100.0
4227,F3,481.833,333/1000,32,100.0
4228,G#3,481.833,333/1000,32,100.0
4229,B1,482.167,333/1000,32,100.0
4230,B2,482.167,333/1000,32,100.0
4231,D4,482.5,1.0,52,100.0
4232,D3,482.5,1.0,41,100.0
4233,G#3,482.833,333/1000,32,100.0
4234,F3,482.833,333/1000,32,100.0
4235,B-2,483.167,333/1000,32,100.0
4236,B-1,483.167,333/1000,32,100.0
4237,E-4,483.5,1.0,53,100.0
4238,E-3,483.5,1.0,45,100.0
4239,B-3,483.833,333/1000,35,100.0
4240,G3,483.833,333/1000,35,100.0
4241,E-2,484.167,333/1000,36,100.0
4242,E-1,484.167,333/1000,36,100.0
4243,E4,484.5,1.0,57,100.0
4244,E3,484.5,1.0,46,100.0
4245,B3,484.833,333/1000,36,100.0
4246,G#3,484.833,333/1000,36,100.0
4247,D2,485.167,333/1000,36,100.0
4248,D3,485.167,333/1000,36,100.0
4249,F4,485.5,1.0,58,100.0
4250,F3,485.5,1.0,46,100.0
4251,B3,485.833,333/1000,38,100.0
4252,G#3,485.833,333/1000,38,100.0
4253,C#3,486.167,333/1000,40,100.0
4254,C#2,486.167,333/1000,40,100.0
4255,F#4,486.5,1.0,61,100.0
4256,F#3,486.5,1.0,49,100.0
4257,C#4,486.833,333/1000,40,100.0
4258,B-3,486.833,333/1000,40,100.0
4259,F#1,487.167,333/1000,40,100.0
4260,F#2,487.167,333/1000,40,100.0
4261,G4,487.5,1.0,65,100.0
4262,G3,487.5,1.0,52,100.0
4263,D4,487.833,333/1000,42,100.0
4264,B3,487.833,333/1000,42,100.0
4265,F1,488.167,333/1000,42,100.0
4266,F2,488.167,333/1000,42,100.0
4267,G#4,488.5,1.0,66,100.0
4268,G#3,488.5,1.0,53,100.0
4269,B3,488.833,333/1000,42,100.0
4270,D4,488.833,333/1000,42,100.0
4271,E1,489.167,333/1000,42,100.0
4272,E2,489.167,333/1000,42,100.0
4273,A4,489.5,1.0,69,100.0
4274,A3,489.5,1.0,55,100.0
4275,C#4,489.833,333/1000,43,100.0
4276,E4,489.833,333/1000,43,100.0
4277,A1,490.167,333/1000,44,100.0
4278,A2,490.167,333/1000,44,100.0
4279,B-4,490.5,1.0,71,100.0
4280,B-3,490.5,1.0,56,100.0
4281,F4,490.833,333/1000,47,100.0
4282,D4,490.833,333/1000,47,100.0
4283,A1,491.167,333/1000,48,100.0
4284,A2,491.167,333/1000,48,100.0
4285,B4,491.5,1.0,75,100.0
4286,B3,491.5,1.0,59,100.0
4287,E-4,491.833,333/1000,48,100.0
4288,F#4,491.833,333/1000,48,100.0
4289,A2,492.167,333/1000,49,100.0
4290,A1,492.167,333/1000,49,100.0
4291,C5,492.5,1.0,78,100.0
4292,C4,492.5,1.0,61,100.0
4293,G4,492.833,333/1000,50,100.0
4294,E4,492.833,333/1000,50,100.0
4295,A2,493.167,333/1000,50,100.0
4296,A1,493.167,333/1000,50,100.0
4297,C#4,493.5,0.5,75,100.0
4298,C#5,493.5,0.5,75,100.0
4299,A2,493.5,0.5,57,100.0
4300,G3,493.5,0.5,57,100.0
4301,E3,493.5,0.5,57,100.0
4302,B-3,494.494,503/500,62,100.0
4303,B-2,494.494,503/500,62,100.0
4304,B-4,494.5,1.0,82,100.0
4305,B-5,494.5,1.0,82,100.0
4306,B-4,495.5,1.0,82,100.0
4307,B-5,495.5,1.0,82,100.0
4308,B-3,495.5,497/500,62,100.0
4309,B-2,495.5,497/500,62,100.0
4310,A4,496.167,333/1000,60,100.0
4311,A5,496.167,333/1000,60,100.0
4312,A3,496.169,333/1000,45,100.0
4313,A2,496.169,333/1000,45,100.0
4314,G2,496.492,333/1000,44,100.0
4315,G3,496.492,333/1000,44,100.0
4316,G4,496.5,333/1000,58,100.0
4317,G5,496.5,333/1000,58,100.0
4318,F2,496.829,333/1000,44,100.0
4319,F3,496.829,333/1000,44,100.0
4320,F4,496.831,333/1000,58,100.0
4321,F5,496.831,333/1000,58,100.0
4322,E2,497.158,333/1000,48,100.0
4323,E3,497.158,333/1000,48,100.0
4324,E5,497.167,333/1000,64,100.0
4325,E4,497.167,333/1000,64,100.0
4326,D4,497.494,333/1000,60,100.0
4327,D5,497.494,333/1000,60,100.0
4328,D2,497.5,333/1000,45,100.0
4329,D3,497.5,333/1000,45,100.0
4330,C#2,497.827,333/1000,50,100.0
4331,C#3,497.827,333/1000,50,100.0
4332,C#5,497.833,333/1000,68,100.0
4333,C#4,497.833,333/1000,68,100.0
4334,E5,498.167,333/1000,60,100.0
4335,E4,498.167,333/1000,60,100.0
4336,E2,498.173,333/1000,45,100.0
4337,E3,498.173,333/1000,45,100.0
4338,C3,498.494,333/1000,48,100.0
4339,C2,498.494,333/1000,48,100.0
4340,C5,498.5,333/1000,66,100.0
4341,C4,498.5,333/1000,66,100.0
4342,E5,498.833,333/1000,60,100.0
4343,E4,498.833,333/1000,60,100.0
4344,E3,498.833,333/1000,45,100.0
4345,E2,498.833,333/1000,45,100.0
4346,B2,499.163,333/1000,48,100.0
4347,B1,499.163,333/1000,48,100.0
4348,B3,499.167,333/1000,66,100.0
4349,B4,499.167,333/1000,66,100.0
4350,E3,499.498,1/500,45,100.0
4351,E2,499.498,1/500,45,100.0
4352,E5,499.5,333/1000,60,100.0
4353,E4,499.5,333/1000,60,100.0
4354,E3,499.5,331/1000,45,100.0
4355,E2,499.5,331/1000,45,100.0
4356,B-1,499.831,333/1000,48,100.0
4357,B-2,499.831,333/1000,48,100.0
4358,B-3,499.833,333/1000,66,100.0
4359,B-4,499.833,333/1000,66,100.0
4360,E5,500.167,333/1000,60,100.0
4361,E4,500.167,333/1000,60,100.0
4362,E2,500.177,333/1000,45,100.0
4363,E3,500.177,333/1000,45,100.0
4364,A2,500.496,0.5,48,100.0
4365,A1,500.496,0.5,48,100.0
4366,A3,500.5,0.5,66,100.0
4367,A4,500.5,0.5,66,100.0
4368,C#5,501.5,667/1000,82,100.0
4369,C#6,501.5,667/1000,82,100.0
4370,C#3,501.504,667/1000,62,100.0
4371,C#4,501.504,667/1000,62,100.0
4372,B-2,502.16,333/1000,45,100.0
4373,B-3,502.16,333/1000,45,100.0
4374,B-5,502.167,333/1000,60,100.0
4375,B-4,502.167,333/1000,60,100.0
4376,A3,502.492,333/1000,44,100.0
4377,A2,502.492,333/1000,44,100.0
4378,A5,502.5,333/1000,58,100.0
4379,A4,502.5,333/1000,58,100.0
4380,G3,502.825,333/1000,44,100.0
4381,G2,502.825,333/1000,44,100.0
4382,G5,502.833,333/1000,58,100.0
4383,G4,502.833,333/1000,58,100.0
4384,F4,503.167,333/1000,64,100.0
4385,F5,503.167,333/1000,64,100.0
4386,F2,503.167,333/1000,48,100.0
4387,F3,503.167,333/1000,48,100.0
4388,E5,503.5,333/1000,66,100.0
4389,E4,503.5,333/1000,66,100.0
4390,E2,503.508,333/1000,50,100.0
4391,E3,503.508,333/1000,50,100.0
4392,G2,503.831,333/1000,42,100.0
4393,G3,503.831,333/1000,42,100.0
4394,G5,503.833,333/1000,60,100.0
4395,G4,503.833,333/1000,60,100.0
4396,E-2,504.158,333/1000,52,100.0
4397,E-3,504.158,333/1000,52,100.0
4398,E-4,504.167,333/1000,66,100.0
4399,E-5,504.167,333/1000,66,100.0
4400,G3,504.49,333/1000,44,100.0
4401,G2,504.49,333/1000,44,100.0
4402,G4,504.5,333/1000,57,100.0
4403,G5,504.5,333/1000,57,100.0
4404,D3,504.823,333/1000,54,100.0
4405,D2,504.823,333/1000,54,100.0
4406,D5,504.833,333/1000,68,100.0
4407,D4,504.833,333/1000,68,100.0
4408,G2,505.163,333/1000,43,100.0
4409,G3,505.163,333/1000,43,100.0
4410,G4,505.167,333/1000,57,100.0
4411,G5,505.167,333/1000,57,100.0
4412,C#4,505.5,333/1000,66,100.0
4413,C#5,505.5,333/1000,66,100.0
4414,C#2,505.506,333/1000,54,100.0
4415,C#3,505.506,333/1000,54,100.0
4416,G4,505.833,333/1000,58,100.0
4417,G5,505.833,333/1000,58,100.0
4418,G3,505.837,333/1000,43,100.0
4419,G2,505.837,333/1000,43,100.0
4420,B-1,506.158,333/1000,54,100.0
4421,B-2,506.158,333/1000,54,100.0
4422,B-4,506.167,333/1000,56,100.0
4423,B-3,506.167,333/1000,56,100.0
4424,G5,506.5,0.25,66,100.0
4425,G4,506.5,0.25,66,100.0
4426,G2,506.504,0.25,40,100.0
4427,G3,506.504,0.25,40,100.0
4428,A3,507.0,0.25,69,100.0
4429,A4,507.0,0.25,69,100.0
4430,A2,507.002,0.25,50,100.0
4431,A1,507.002,0.25,50,100.0
4432,E3,507.494,3/500,62,100.0
4433,E4,507.494,3/500,62,100.0
4434,E5,507.5,667/1000,82,100.0
4435,E6,507.5,667/1000,82,100.0
4436,E3,507.5,33/50,62,100.0
4437,E4,507.5,33/50,62,100.0
4438,D3,508.156,333/1000,45,100.0
4439,D4,508.156,333/1000,45,100.0
4440,D5,508.167,333/1000,60,100.0
4441,D6,508.167,333/1000,60,100.0
4442,C#6,508.5,333/1000,58,100.0
4443,C#5,508.5,333/1000,58,100.0
4444,C#3,508.506,333/1000,44,100.0
4445,C#4,508.506,333/1000,44,100.0
4446,B-2,508.827,333/1000,44,100.0
4447,B-3,508.827,333/1000,44,100.0
4448,B-5,508.833,333/1000,58,100.0
4449,B-4,508.833,333/1000,58,100.0
4450,A5,509.167,333/1000,64,100.0
4451,A4,509.167,333/1000,64,100.0
4452,A2,509.167,333/1000,48,100.0
4453,A3,509.167,333/1000,48,100.0
4454,G3,509.492,333/1000,54,100.0
4455,G4,509.492,333/1000,54,100.0
4456,G5,509.5,333/1000,70,100.0
4457,G6,509.5,333/1000,70,100.0
4458,F4,509.831,333/1000,50,100.0
4459,F3,509.831,333/1000,50,100.0
4460,F6,509.833,333/1000,66,100.0
4461,F5,509.833,333/1000,66,100.0
4462,E4,510.156,333/1000,49,100.0
4463,E3,510.156,333/1000,49,100.0
4464,E6,510.167,333/1000,66,100.0
4465,E5,510.167,333/1000,66,100.0
4466,D3,510.494,333/1000,48,100.0
4467,D4,510.494,333/1000,48,100.0
4468,D6,510.5,333/1000,62,100.0
4469,D5,510.5,333/1000,62,100.0
4470,C#4,510.825,333/1000,48,100.0
4471,C#3,510.825,333/1000,48,100.0
4472,C#5,510.833,333/1000,62,100.0
4473,C#6,510.833,333/1000,62,100.0
4474,B-4,511.165,333/1000,52,100.0
4475,B-3,511.165,333/1000,52,100.0
4476,B-6,511.167,333/1000,69,100.0
4477,B-5,511.167,333/1000,69,100.0
4478,A6,511.5,333/1000,70,100.0
4479,A5,511.5,333/1000,70,100.0
4480,A4,511.504,333/1000,54,100.0
4481,A3,511.504,333/1000,54,100.0
4482,G4,511.825,333/1000,52,100.0
4483,G3,511.825,333/1000,52,100.0
4484,G6,511.833,333/1000,69,100.0
4485,G5,511.833,333/1000,69,100.0
4486,F4,512.165,333/1000,51,100.0
4487,F3,512.165,333/1000,51,100.0
4488,F5,512.167,333/1000,68,100.0
4489,F6,512.167,333/1000,68,100.0
4490,E6,512.5,333/1000,66,100.0
4491,E5,512.5,333/1000,66,100.0
4492,E4,512.5,333/1000,50,100.0
4493,E3,512.5,333/1000,50,100.0
4494,E7,512.833,333/1000,78,100.0
4495,E6,512.833,333/1000,78,100.0
4496,E4,512.835,333/1000,58,100.0
4497,E5,512.835,333/1000,58,100.0
4498,D5,513.165,333/1000,56,100.0
4499,D4,513.165,333/1000,56,100.0
4500,D6,513.167,333/1000,76,100.0
4501,D7,513.167,333/1000,76,100.0
4502,C#5,513.494,333/1000,54,100.0
4503,C#4,513.494,333/1000,54,100.0
4504,C#7,513.5,333/1000,72,100.0
4505,C#6,513.5,333/1000,72,100.0
4506,B-5,513.833,333/1000,73,100.0
4507,B-6,513.833,333/1000,73,100.0
4508,B-4,513.842,333/1000,56,100.0
4509,B-3,513.842,333/1000,56,100.0
4510,A4,514.158,333/1000,54,100.0
4511,A3,514.158,333/1000,54,100.0
4512,A6,514.167,333/1000,72,100.0
4513,A5,514.167,333/1000,72,100.0
4514,B-4,514.498,333/1000,50,100.0
4515,B-3,514.498,333/1000,50,100.0
4516,B-5,514.5,333/1000,66,100.0
4517,B-6,514.5,333/1000,66,100.0
4518,G5,514.833,333/1000,70,100.0
4519,G6,514.833,333/1000,70,100.0
4520,G3,514.835,333/1000,52,100.0
4521,G4,514.835,333/1000,52,100.0
4522,B-6,515.167,333/1000,64,100.0
4523,B-5,515.167,333/1000,64,100.0
4524,B-4,515.167,333/1000,48,100.0
4525,B-3,515.167,333/1000,48,100.0
4526,F3,515.49,1/100,52,100.0
4527,F4,515.49,1/100,52,100.0
4528,F5,515.5,333/1000,70,100.0
4529,F6,515.5,333/1000,70,100.0
4530,F3,515.5,323/1000,52,100.0
4531,F4,515.5,323/1000,52,100.0
4532,G6,515.833,333/1000,70,100.0
4533,G5,515.833,333/1000,70,100.0
4534,G3,515.84,333/1000,52,100.0
4535,G4,515.84,333/1000,52,100.0
4536,E4,516.158,333/1000,52,100.0
4537,E3,516.158,333/1000,52,100.0
4538,E5,516.167,333/1000,70,100.0
4539,E6,516.167,333/1000,70,100.0
4540,G3,516.494,333/1000,52,100.0
4541,G4,516.494,333/1000,52,100.0
4542,G6,516.5,333/1000,70,100.0
4543,G5,516.5,333/1000,70,100.0
4544,D3,516.831,333/1000,52,100.0
4545,D4,516.831,333/1000,52,100.0
4546,D6,516.833,333/1000,70,100.0
4547,D5,516.833,333/1000,70,100.0
4548,E3,517.16,333/1000,48,100.0
4549,E4,517.16,333/1000,48,100.0
4550,E5,517.167,333/1000,66,100.0
4551,E6,517.167,333/1000,66,100.0
4552,C#6,517.5,333/1000,70,100.0
4553,C#5,517.5,333/1000,70,100.0
4554,C#3,517.502,333/1000,53,100.0
4555,C#4,517.502,333/1000,53,100.0
4556,E3,517.829,333/1000,50,100.0
4557,E4,517.829,333/1000,50,100.0
4558,E6,517.833,333/1000,67,100.0
4559,E5,517.833,333/1000,67,100.0
4560,B-2,518.16,333/1000,54,100.0
4561,B-3,518.16,333/1000,54,100.0
4562,B-4,518.167,333/1000,71,100.0
4563,B-5,518.167,333/1000,71,100.0
4564,C#4,518.492,333/1000,46,100.0
4565,C#3,518.492,333/1000,46,100.0
4566,C#5,518.5,333/1000,64,100.0
4567,C#6,518.5,333/1000,64,100.0
4568,A2,518.825,333/1000,54,100.0
4569,A3,518.825,333/1000,54,100.0
4570,A5,518.833,333/1000,72,100.0
4571,A4,518.833,333/1000,72,100.0
4572,B-2,519.165,333/1000,48,100.0
4573,B-3,519.165,333/1000,48,100.0
4574,B-4,519.167,333/1000,66,100.0
4575,B-5,519.167,333/1000,66,100.0
4576,G5,519.5,333/1000,73,100.0
4577,G4,519.5,333/1000,73,100.0
4578,G2,519.504,333/1000,55,100.0
4579,G3,519.504,333/1000,55,100.0
4580,B-2,519.829,333/1000,50,100.0
4581,B-3,519.829,333/1000,50,100.0
4582,B-5,519.833,333/1000,67,100.0
4583,B-4,519.833,333/1000,67,100.0
4584,F2,520.156,333/1000,56,100.0
4585,F3,520.156,333/1000,56,100.0
4586,F5,520.167,333/1000,74,100.0
4587,F4,520.167,333/1000,74,100.0
4588,G2,520.492,333/1000,51,100.0
4589,G3,520.492,333/1000,51,100.0
4590,G5,520.5,333/1000,68,100.0
4591,G4,520.5,333/1000,68,100.0
4592,E5,520.833,333/1000,76,100.0
4593,E4,520.833,333/1000,76,100.0
4594,E3,520.833,333/1000,56,100.0
4595,E2,520.833,333/1000,56,100.0
4596,G3,521.165,333/1000,52,100.0
4597,G2,521.165,333/1000,52,100.0
4598,G4,521.167,333/1000,68,100.0
4599,G5,521.167,333/1000,68,100.0
4600,D5,521.5,333/1000,77,100.0
4601,D4,521.5,333/1000,77,100.0
4602,D3,521.504,333/1000,58,100.0
4603,D2,521.504,333/1000,58,100.0
4604,E4,521.833,333/1000,70,100.0
4605,E5,521.833,333/1000,70,100.0
4606,E2,521.833,333/1000,52,100.0
4607,E3,521.833,333/1000,52,100.0
4608,C#5,522.167,333/1000,75,100.0
4609,C#4,522.167,333/1000,75,100.0
4610,C#2,522.169,333/1000,56,100.0
4611,C#3,522.169,333/1000,56,100.0
4612,E3,522.49,333/1000,52,100.0
4613,E2,522.49,333/1000,52,100.0
4614,E5,522.5,333/1000,68,100.0
4615,E4,522.5,333/1000,68,100.0
4616,B-1,522.823,333/1000,56,100.0
4617,B-2,522.823,333/1000,56,100.0
4618,B-3,522.833,333/1000,76,100.0
4619,B-4,522.833,333/1000,76,100.0
4620,C#2,523.158,333/1000,52,100.0
4621,C#3,523.158,333/1000,52,100.0
4622,C#4,523.167,333/1000,70,100.0
4623,C#5,523.167,333/1000,70,100.0
4624,A1,523.496,1/250,58,100.0
4625,A2,523.496,1/250,58,100.0
4626,A3,523.5,333/1000,78,100.0
4627,A4,523.5,333/1000,78,100.0
4628,A1,523.5,329/1000,58,100.0
4629,A2,523.5,329/1000,58,100.0
4630,B-2,523.827,333/1000,54,100.0
4631,B-1,523.827,333/1000,54,100.0
4632,B-3,523.833,333/1000,70,100.0
4633,B-4,523.833,333/1000,70,100.0
4634,G#1,524.156,333/1000,58,100.0
4635,G#2,524.156,333/1000,58,100.0
4636,G#4,524.167,333/1000,78,100.0
4637,G#3,524.167,333/1000,78,100.0
4638,A4,524.5,333/1000,72,100.0
4639,A3,524.5,333/1000,72,100.0
4640,A2,524.508,333/1000,54,100.0
4641,A1,524.508,333/1000,54,100.0
4642,G1,524.823,333/1000,60,100.0
4643,G2,524.823,333/1000,60,100.0
4644,G3,524.833,333/1000,80,100.0
4645,G4,524.833,333/1000,80,100.0
4646,A3,525.167,333/1000,72,100.0
4647,A4,525.167,333/1000,72,100.0
4648,A2,525.169,333/1000,54,100.0
4649,A1,525.169,333/1000,54,100.0
4650,F#2,525.498,333/1000,60,100.0
4651,F#1,525.498,333/1000,60,100.0
4652,F#4,525.5,333/1000,80,100.0
4653,F#3,525.5,333/1000,80,100.0
4654,A2,525.831,333/1000,54,100.0
4655,A1,525.831,333/1000,54,100.0
4656,A4,525.833,333/1000,71,100.0
4657,A3,525.833,333/1000,71,100.0
4658,F1,526.165,333/1000,62,100.0
4659,F2,526.165,333/1000,62,100.0
4660,F4,526.167,333/1000,81,100.0
4661,F3,526.167,333/1000,81,100.0
4662,A2,526.492,333/1000,56,100.0
4663,A1,526.492,333/1000,56,100.0
4664,A3,526.5,333/1000,74,100.0
4665,A4,526.5,333/1000,74,100.0
4666,E2,526.827,333/1000,62,100.0
4667,E1,526.827,333/1000,62,100.0
4668,E4,526.833,333/1000,82,100.0
4669,E3,526.833,333/1000,82,100.0
4670,A1,527.158,333/1000,56,100.0
4671,A2,527.158,333/1000,56,100.0
4672,A4,527.167,333/1000,74,100.0
4673,A3,527.167,333/1000,74,100.0
4674,E-4,527.5,0.5,83,100.0
4675,E-3,527.5,0.5,83,100.0
4676,E-1,527.5,0.5,62,100.0
4677,E-2,527.5,0.5,62,100.0
4678,A4,528.0,0.5,77,100.0
4679,A3,528.0,0.5,77,100.0
4680,A2,528.0,0.5,58,100.0
4681,A1,528.0,0.5,58,100.0
4682,C3,528.5,0.5,84,100.0
4683,C4,528.5,0.5,84,100.0
4684,C2,528.5,0.5,64,100.0
4685,C1,528.5,0.5,64,100.0
4686,A4,529.0,0.5,77,100.0
4687,A3,529.0,0.5,77,100.0
4688,A1,529.0,0.5,59,100.0
4689,A2,529.0,0.5,59,100.0
4690,C#3,529.5,0.5,84,100.0
4691,C#4,529.5,0.5,84,100.0
4692,C#2,529.5,0.5,63,100.0
4693,C#1,529.5,0.5,63,100.0
4694,A3,530.0,0.375,76,100.0
4695,A4,530.0,0.375,76,100.0
4696,A1,530.0,0.375,58,100.0
4697,A2,530.0,0.375,58,100.0
4698,D6,530.5,1.0,53,100.0
4699,F5,530.5,1.0,53,100.0
4700,D5,530.5,1.0,53,100.0
4701,A2,530.5,1.0,37,100.0
4702,D2,530.5,1.0,37,100.0
4703,D3,530.5,1.0,37,100.0
4704,E3,530.875,0.125,30,100.0
4705,G#3,530.875,0.125,30,100.0
4706,A3,531.0,0.062,37,100.0
4707,F3,531.0,0.062,37,100.0
4708,E4,531.375,0.125,28,100.0
4709,C#4,531.375,0.125,28,100.0
4710,D4,531.5,0.062,35,100.0
4711,F4,531.5,0.062,35,100.0
4712,D5,532.0,1.0,53,100.0
4713,F5,532.0,1.0,53,100.0
4714,D6,532.0,1.0,53,100.0
4715,D3,532.0,1.0,37,100.0
4716,A2,532.0,1.0,37,100.0
4717,D2,532.0,1.0,37,100.0
4718,C#4,532.375,0.125,30,100.0
4719,G#3,532.375,0.125,30,100.0
4720,D4,532.5,0.062,37,100.0
4721,A3,532.5,0.062,37,100.0
4722,E4,532.875,0.125,28,100.0
4723,G#4,532.875,0.125,28,100.0
4724,F4,533.0,0.062,32,100.0
4725,A4,533.0,0.062,32,100.0
4726,C5,533.25,0.25,50,100.0
4727,C6,533.25,0.25,50,100.0
4728,B-5,533.5,1.0,53,100.0
4729,E5,533.5,1.0,53,100.0
4730,B-4,533.5,1.0,53,100.0
4731,G2,533.5,1.0,37,100.0
4732,D3,533.5,1.0,37,100.0
4733,D2,533.5,1.0,37,100.0
4734,A3,533.875,0.125,30,100.0
4735,F#3,533.875,0.125,30,100.0
4736,B-3,534.0,0.062,38,100.0
4737,G3,534.0,0.062,38,100.0
4738,F#4,534.375,0.125,30,100.0
4739,E-4,534.375,0.125,30,100.0
4740,G4,534.5,0.062,32,100.0
4741,E4,534.5,0.062,32,100.0
4742,B-4,535.0,1.0,53,100.0
4743,B-5,535.0,1.0,53,100.0
4744,E5,535.0,1.0,53,100.0
4745,G2,535.0,1.0,37,100.0
4746,D2,535.0,1.0,37,100.0
4747,D3,535.0,1.0,37,100.0
4748,A3,535.375,0.125,30,100.0
4749,F#3,535.375,0.125,30,100.0
4750,G3,535.5,0.062,38,100.0
4751,B-3,535.5,0.062,38,100.0
4752,F#4,535.875,0.125,28,100.0
4753,E-4,535.875,0.125,28,100.0
4754,E4,536.0,0.062,32,100.0
4755,G4,536.0,0.062,32,100.0
4756,B-5,536.25,0.25,52,100.0
4757,B-4,536.25,0.25,52,100.0
4758,A4,536.5,1.0,55,100.0
4759,A5,536.5,1.0,55,100.0
4760,E5,536.5,1.0,55,100.0
4761,C#2,536.5,1.0,38,100.0
4762,C#3,536.5,1.0,38,100.0
4763,E-3,536.875,0.125,30,100.0
4764,F#3,536.875,0.125,30,100.0
4765,G3,537.0,0.062,38,100.0
4766,E3,537.0,0.062,38,100.0
4767,E-4,537.375,0.125,30,100.0
4768,C4,537.375,0.125,30,100.0
4769,C#4,537.5,0.062,38,100.0
4770,E4,537.5,0.062,38,100.0
4771,A5,537.75,0.25,56,100.0
4772,A4,537.75,0.25,56,100.0
4773,G5,538.0,1.0,57,100.0
4774,E6,538.0,1.0,57,100.0
4775,E5,538.0,1.0,57,100.0
4776,A1,538.0,1.0,38,100.0
4777,A2,538.0,1.0,38,100.0
4778,F#3,538.375,0.125,30,100.0
4779,E-3,538.375,0.125,30,100.0
4780,G3,538.5,0.062,38,100.0
4781,E3,538.5,0.062,38,100.0
4782,C4,538.875,0.125,30,100.0
4783,E-4,538.875,0.125,30,100.0
4784,E4,539.0,0.062,38,100.0
4785,C#4,539.0,0.062,38,100.0
4786,G5,539.25,0.25,57,100.0
4787,G4,539.25,0.25,57,100.0
4788,F5,539.5,1.0,58,100.0
4789,F4,539.5,1.0,58,100.0
4790,A4,539.5,1.0,58,100.0
4791,D2,539.5,1.0,41,100.0
4792,D3,539.5,1.0,41,100.0
4793,G#3,539.875,0.125,28,100.0
4794,E3,539.875,0.125,28,100.0
4795,F3,540.0,0.062,32,100.0
4796,A3,540.0,0.062,32,100.0
4797,E4,540.375,0.125,30,100.0
4798,C#4,540.375,0.125,30,100.0
4799,D4,540.5,0.062,32,100.0
4800,F4,540.5,0.062,32,100.0
4801,A4,540.75,0.25,54,100.0
4802,A5,540.75,0.25,54,100.0
4803,D4,541.0,1.0,55,100.0
4804,D5,541.0,1.0,55,100.0
4805,F4,541.0,1.0,55,100.0
4806,D3,541.0,1.0,36,100.0
4807,A2,541.0,1.0,36,100.0
4808,D2,541.0,1.0,36,100.0
4809,E3,541.375,0.125,30,100.0
4810,G#3,541.375,0.125,30,100.0
4811,F3,541.5,0.062,32,100.0
4812,A3,541.5,0.062,32,100.0
4813,E4,541.875,0.125,30,100.0
4814,C#4,541.875,0.125,30,100.0
4815,F4,542.0,0.062,32,100.0
4816,D4,542.0,0.062,32,100.0
4817,C5,542.5,1.0,53,100.0
4818,C6,542.5,1.0,53,100.0
4819,E5,542.5,1.0,53,100.0
4820,C3,542.5,1.0,38,100.0
4821,C2,542.5,1.0,38,100.0
4822,E-3,542.875,0.125,30,100.0
4823,F#3,542.875,0.125,30,100.0
4824,G3,543.0,0.062,37,100.0
4825,E3,543.0,0.062,37,100.0
4826,B3,543.375,0.125,28,100.0
4827,E-4,543.375,0.125,28,100.0
4828,C4,543.5,0.062,35,100.0
4829,E4,543.5,0.062,35,100.0
4830,G5,544.0,1.0,54,100.0
4831,C5,544.0,1.0,54,100.0
4832,C6,544.0,1.0,54,100.0
4833,E2,544.0,1.0,40,100.0
4834,E3,544.0,1.0,40,100.0
4835,F#3,544.375,0.125,30,100.0
4836,B3,544.375,0.125,30,100.0
4837,C4,544.5,0.062,38,100.0
4838,G3,544.5,0.062,38,100.0
4839,F#4,544.875,0.125,30,100.0
4840,E-4,544.875,0.125,30,100.0
4841,G4,545.0,0.062,33,100.0
4842,E4,545.0,0.062,33,100.0
4843,B-4,545.25,0.25,52,100.0
4844,B-5,545.25,0.25,52,100.0
4845,F5,545.5,1.0,56,100.0
4846,A5,545.5,1.0,56,100.0
4847,A4,545.5,1.0,56,100.0
4848,C3,545.5,1.0,39,100.0
4849,F3,545.5,1.0,39,100.0
4850,F2,545.5,1.0,39,100.0
4851,B3,545.875,0.125,31,100.0
4852,G#3,545.875,0.125,31,100.0
4853,A3,546.0,0.062,40,100.0
4854,C4,546.0,0.062,40,100.0
4855,G#4,546.375,0.125,32,100.0
4856,E4,546.375,0.125,32,100.0
4857,F4,546.5,0.062,34,100.0
4858,A4,546.5,0.062,34,100.0
4859,C5,546.75,0.25,55,100.0
4860,C6,546.75,0.25,55,100.0
4861,F5,547.0,1.0,57,100.0
4862,A4,547.0,1.0,57,100.0
4863,F4,547.0,1.0,57,100.0
4864,F3,547.0,1.0,42,100.0
4865,F2,547.0,1.0,42,100.0
4866,G#3,547.375,0.125,32,100.0
4867,B3,547.375,0.125,32,100.0
4868,C4,547.5,0.062,41,100.0
4869,A3,547.5,0.062,41,100.0
4870,E4,547.875,0.125,31,100.0
4871,G#4,547.875,0.125,31,100.0
4872,F4,548.0,0.062,35,100.0
4873,A4,548.0,0.062,35,100.0
4874,E6,548.5,1.0,59,100.0
4875,G#5,548.5,1.0,59,100.0
4876,E5,548.5,1.0,59,100.0
4877,E3,548.5,1.0,43,100.0
4878,E2,548.5,1.0,43,100.0
4879,G3,548.875,0.125,33,100.0
4880,B-3,548.875,0.125,33,100.0
4881,B3,549.0,0.062,42,100.0
4882,G#3,549.0,0.062,42,100.0
4883,G4,549.375,0.125,32,100.0
4884,E-4,549.375,0.125,32,100.0
4885,E4,549.5,0.062,39,100.0
4886,G#4,549.5,0.062,39,100.0
4887,E5,550.0,1.0,60,100.0
4888,B5,550.0,1.0,60,100.0
4889,E6,550.0,1.0,60,100.0
4890,G#2,550.0,1.0,44,100.0
4891,G#3,550.0,1.0,44,100.0
4892,B-3,550.375,0.125,34,100.0
4893,E-4,550.375,0.125,34,100.0
4894,B3,550.5,0.062,42,100.0
4895,E4,550.5,0.062,42,100.0
4896,G4,550.875,0.125,33,100.0
4897,B-4,550.875,0.125,33,100.0
4898,B4,551.0,0.062,36,100.0
4899,G#4,551.0,0.062,36,100.0
4900,D5,551.25,0.25,58,100.0
4901,D6,551.25,0.25,58,100.0
4902,A5,551.5,1.0,62,100.0
4903,C#5,551.5,1.0,62,100.0
4904,C#6,551.5,1.0,62,100.0
4905,A2,551.5,1.0,44,100.0
4906,A3,551.5,1.0,44,100.0
4907,E3,551.5,1.0,44,100.0
4908,E-4,551.875,0.125,35,100.0
4909,C4,551.875,0.125,35,100.0
4910,E4,552.0,0.062,45,100.0
4911,C#4,552.0,0.062,45,100.0
4912,C5,552.375,0.125,35,100.0
4913,G#4,552.375,0.125,35,100.0
4914,C#5,552.5,0.062,38,100.0
4915,A4,552.5,0.062,38,100.0
4916,E5,552.75,0.25,62,100.0
4917,E6,552.75,0.25,62,100.0
4918,A5,553.0,1.0,64,100.0
4919,A4,553.0,1.0,64,100.0
4920,C#5,553.0,1.0,64,100.0
4921,E3,553.0,1.0,45,100.0
4922,A2,553.0,1.0,45,100.0
4923,A3,553.0,1.0,45,100.0
4924,E-4,553.375,0.125,36,100.0
4925,C4,553.375,0.125,36,100.0
4926,E4,553.5,0.062,46,100.0
4927,C#4,553.5,0.062,46,100.0
4928,C5,553.875,0.125,34,100.0
4929,G#4,553.875,0.125,34,100.0
4930,A4,554.0,0.062,39,100.0
4931,C#5,554.0,0.062,39,100.0
4932,A5,554.25,0.25,64,100.0
4933,A4,554.25,0.25,64,100.0
4934,A2,554.25,0.25,50,100.0
4935,A3,554.25,0.25,50,100.0
4936,G6,554.5,1.0,66,100.0
4937,C#6,554.5,1.0,66,100.0
4938,G5,554.5,1.0,66,100.0
4939,B-3,554.5,1.0,46,100.0
4940,E3,554.5,1.0,46,100.0
4941,B-2,554.5,1.0,46,100.0
4942,F#4,554.875,0.125,36,100.0
4943,E-4,554.875,0.125,36,100.0
4944,E4,555.0,0.062,46,100.0
4945,G4,555.0,0.062,46,100.0
4946,E-5,555.375,0.125,35,100.0
4947,C5,555.375,0.125,35,100.0
4948,C#5,555.5,0.062,43,100.0
4949,E5,555.5,0.062,43,100.0
4950,A5,556.0,1.0,68,100.0
4951,A4,556.0,1.0,68,100.0
4952,A3,556.0,1.0,48,100.0
4953,A2,556.0,1.0,48,100.0
4954,F#4,556.375,0.125,36,100.0
4955,E-4,556.375,0.125,36,100.0
4956,E4,556.5,0.062,46,100.0
4957,G4,556.5,0.062,46,100.0
4958,E-5,556.875,0.125,35,100.0
4959,C5,556.875,0.125,35,100.0
4960,E5,557.0,0.062,40,100.0
4961,C#5,557.0,0.062,40,100.0
4962,A5,557.25,0.25,62,100.0
4963,A4,557.25,0.25,62,100.0
4964,A2,557.25,0.25,42,100.0
4965,A3,557.25,0.25,42,100.0
4966,C6,557.5,1.0,66,100.0
4967,F#5,557.5,1.0,66,100.0
4968,F#6,557.5,1.0,66,100.0
4969,B-2,557.5,1.0,46,100.0
4970,B-3,557.5,1.0,46,100.0
4971,E-3,557.5,1.0,46,100.0
4972,D4,557.875,0.125,36,100.0
4973,F4,557.875,0.125,36,100.0
4974,E-4,558.0,0.062,48,100.0
4975,F#4,558.0,0.062,48,100.0
4976,D5,558.375,0.125,36,100.0
4977,B4,558.375,0.125,36,100.0
4978,E-5,558.5,0.062,40,100.0
4979,C5,558.5,0.062,40,100.0
4980,A4,559.0,1.0,68,100.0
4981,A5,559.0,1.0,68,100.0
4982,A2,559.0,1.0,48,100.0
4983,A3,559.0,1.0,48,100.0
4984,F4,559.375,0.125,36,100.0
4985,D4,559.375,0.125,36,100.0
4986,E-4,559.5,0.062,46,100.0
4987,F#4,559.5,0.062,46,100.0
4988,D5,559.875,0.125,35,100.0
4989,B4,559.875,0.125,35,100.0
4990,E-5,560.0,0.062,40,100.0
4991,C5,560.0,0.062,40,100.0
4992,A5,560.25,0.25,64,100.0
4993,A4,560.25,0.25,64,100.0
4994,A2,560.25,0.25,40,100.0
4995,A3,560.25,0.25,40,100.0
4996,F5,560.5,1.0,69,100.0
4997,F6,560.5,1.0,69,100.0
4998,G#5,560.5,1.0,69,100.0
4999,B3,560.5,1.0,45,100.0
5000,D3,560.5,1.0,45,100.0
5001,B2,560.5,1.0,45,100.0
5002,E4,560.875,0.125,38,100.0
5003,C#4,560.875,0.125,38,100.0
5004,D4,561.0,0.062,48,100.0
5005,F4,561.0,0.062,48,100.0
5006,B-4,561.375,0.125,38,100.0
5007,G4,561.375,0.125,38,100.0
5008,G#4,561.5,0.062,48,100.0
5009,B4,561.5,0.062,48,100.0
5010,F6,561.75,0.25,70,100.0
5011,F5,561.75,0.25,70,100.0
5012,E5,562.0,1.0,71,100.0
5013,G#5,562.0,1.0,71,100.0
5014,E6,562.0,1.0,71,100.0
5015,E2,562.0,1.0,45,100.0
5016,E3,562.0,1.0,45,100.0
5017,B2,562.0,1.0,45,100.0
5018,B-3,562.375,0.125,36,100.0
5019,G3,562.375,0.125,36,100.0
5020,G#3,562.5,0.062,46,100.0
5021,B3,562.5,0.062,46,100.0
5022,G4,562.875,0.125,36,100.0
5023,E-4,562.875,0.125,36,100.0
5024,E4,563.0,0.062,48,100.0
5025,G#4,563.0,0.062,48,100.0
5026,D5,563.25,0.25,71,100.0
5027,D6,563.25,0.25,71,100.0
5028,C#6,563.5,1.0,72,100.0
5029,C#5,563.5,1.0,72,100.0
5030,A5,563.5,1.0,72,100.0
5031,A2,563.5,1.0,51,100.0
5032,E3,563.5,1.0,51,100.0
5033,A3,563.5,1.0,51,100.0
5034,E-4,563.875,0.125,35,100.0
5035,C4,563.875,0.125,35,100.0
5036,C#4,564.0,0.062,40,100.0
5037,E4,564.0,0.062,40,100.0
5038,C5,564.375,0.125,36,100.0
5039,G#4,564.375,0.125,36,100.0
5040,A4,564.5,0.062,40,100.0
5041,C#5,564.5,0.062,40,100.0
5042,E6,564.75,0.25,66,100.0
5043,E5,564.75,0.25,66,100.0
5044,A5,565.0,1.0,69,100.0
5045,C#5,565.0,1.0,69,100.0
5046,A4,565.0,1.0,69,100.0
5047,A2,565.0,1.0,45,100.0
5048,A3,565.0,1.0,45,100.0
5049,E3,565.0,1.0,45,100.0
5050,E-4,565.375,0.125,36,100.0
5051,C4,565.375,0.125,36,100.0
5052,C#4,565.5,0.062,40,100.0
5053,E4,565.5,0.062,40,100.0
5054,G#4,565.875,0.125,38,100.0
5055,C5,565.875,0.125,38,100.0
5056,C#5,566.0,0.062,40,100.0
5057,A4,566.0,0.062,40,100.0
5058,A3,566.25,0.25,66,100.0
5059,A4,566.25,0.25,66,100.0
5060,A2,566.25,0.25,44,100.0
5061,A1,566.25,0.25,44,100.0
5062,C#5,566.5,1.0,60,100.0
5063,G5,566.5,1.0,60,100.0
5064,G4,566.5,1.0,60,100.0
5065,B-2,566.5,1.0,43,100.0
5066,B-1,566.5,1.0,43,100.0
5067,E2,566.5,1.0,43,100.0
5068,E-3,566.875,0.125,34,100.0
5069,F#3,566.875,0.125,34,100.0
5070,G3,567.0,0.062,42,100.0
5071,E3,567.0,0.062,42,100.0
5072,E-4,567.375,0.125,32,100.0
5073,C4,567.375,0.125,32,100.0
5074,E4,567.5,0.062,40,100.0
5075,C#4,567.5,0.062,40,100.0
5076,A3,568.0,1.0,62,100.0
5077,A4,568.0,1.0,62,100.0
5078,A2,568.0,1.0,44,100.0
5079,A1,568.0,1.0,44,100.0
5080,E-3,568.375,0.125,34,100.0
5081,F#3,568.375,0.125,34,100.0
5082,E3,568.5,0.062,42,100.0
5083,G3,568.5,0.062,42,100.0
5084,C4,568.875,0.125,32,100.0
5085,E-4,568.875,0.125,32,100.0
5086,C#4,569.0,0.062,36,100.0
5087,E4,569.0,0.062,36,100.0
5088,A3,569.25,0.25,56,100.0
5089,A4,569.25,0.25,56,100.0
5090,A1,569.25,0.25,39,100.0
5091,A2,569.25,0.25,39,100.0
5092,C5,569.5,1.0,60,100.0
5093,F#4,569.5,1.0,60,100.0
5094,F#5,569.5,1.0,60,100.0
5095,B-2,569.5,1.0,43,100.0
5096,B-1,569.5,1.0,43,100.0
5097,E-2,569.5,1.0,43,100.0
5098,D3,569.875,0.125,34,100.0
5099,F3,569.875,0.125,34,100.0
5100,E-3,570.0,0.062,44,100.0
5101,F#3,570.0,0.062,44,100.0
5102,D4,570.375,0.125,34,100.0
5103,B3,570.375,0.125,34,100.0
5104,E-4,570.5,0.062,36,100.0
5105,C4,570.5,0.062,36,100.0
5106,A3,571.0,1.0,62,100.0
5107,A4,571.0,1.0,62,100.0
5108,A2,571.0,1.0,44,100.0
5109,A1,571.0,1.0,44,100.0
5110,F3,571.375,0.125,34,100.0
5111,D3,571.375,0.125,34,100.0
5112,F#3,571.5,0.062,43,100.0
5113,E-3,571.5,0.062,43,100.0
5114,D4,571.875,0.125,32,100.0
5115,B3,571.875,0.125,32,100.0
5116,C4,572.0,0.062,36,100.0
5117,E-4,572.0,0.062,36,100.0
5118,A4,572.25,0.25,59,100.0
5119,A3,572.25,0.25,59,100.0
5120,A1,572.25,0.25,37,100.0
5121,A2,572.25,0.25,37,100.0
5122,F4,572.5,1.0,63,100.0
5123,G#4,572.5,1.0,63,100.0
5124,F5,572.5,1.0,63,100.0
5125,B2,572.5,1.0,42,100.0
5126,B1,572.5,1.0,42,100.0
5127,D2,572.5,1.0,42,100.0
5128,G3,572.875,0.125,34,100.0
5129,E3,572.875,0.125,34,100.0
5130,G#3,573.0,0.062,44,100.0
5131,F3,573.0,0.062,44,100.0
5132,C#4,573.375,0.125,34,100.0
5133,E4,573.375,0.125,34,100.0
5134,F4,573.5,0.062,44,100.0
5135,D4,573.5,0.062,44,100.0
5136,F4,573.75,0.25,64,100.0
5137,F5,573.75,0.25,64,100.0
5138,G#4,574.0,1.0,66,100.0
5139,E5,574.0,1.0,66,100.0
5140,E4,574.0,1.0,66,100.0
5141,B-1,574.0,1.0,42,100.0
5142,D2,574.0,1.0,42,100.0
5143,B-2,574.0,1.0,42,100.0
5144,E-3,574.375,0.125,36,100.0
5145,E3,574.5,0.062,47,100.0
5146,G3,574.875,0.125,36,100.0
5147,G#3,575.0,0.062,40,100.0
5148,D5,575.25,0.25,65,100.0
5149,D4,575.25,0.25,65,100.0
5150,A4,575.5,0.5,67,100.0
5151,C#4,575.5,0.5,67,100.0
5152,C#5,575.5,0.5,67,100.0
5153,A1,575.5,0.5,47,100.0
5154,A2,575.5,0.5,47,100.0
5155,E2,575.5,0.5,47,100.0
5156,B-2,576.0,0.25,47,100.0
5157,G3,576.0,0.25,47,100.0
5158,E4,576.25,0.25,54,100.0
5159,C#5,576.25,0.25,54,100.0
5160,C#3,576.5,0.25,48,100.0
5161,B-3,576.5,0.25,48,100.0
5162,G4,576.75,0.25,56,100.0
5163,E5,576.75,0.25,56,100.0
5164,C#4,577.0,0.25,51,100.0
5165,E3,577.0,0.25,51,100.0
5166,B-4,577.25,0.25,63,100.0
5167,G5,577.25,0.25,63,100.0
5168,E4,577.5,0.25,54,100.0
5169,G3,577.5,0.25,54,100.0
5170,B-5,577.75,0.25,60,100.0
5171,C#5,577.75,0.25,60,100.0
5172,B5,578.0,0.25,70,100.0
5173,G#5,578.0,0.25,70,100.0
5174,B4,578.0,0.25,70,100.0
5175,F5,578.0,0.25,70,100.0
5176,D3,578.0,0.25,66,100.0
5177,D4,578.0,0.25,66,100.0
5178,E5,578.5,0.25,74,100.0
5179,E6,578.5,0.25,74,100.0
5180,C#6,578.5,0.25,74,100.0
5181,A5,578.5,0.25,74,100.0
5182,A3,578.5,0.25,69,100.0
5183,A2,578.5,0.25,69,100.0
5184,G4,579.0,0.25,60,100.0
5185,B-3,579.0,0.25,60,100.0
5186,C#6,579.25,0.25,58,100.0
5187,E5,579.25,0.25,58,100.0
5188,C#4,579.5,0.25,63,100.0
5189,B-4,579.5,0.25,63,100.0
5190,G5,579.75,0.25,60,100.0
5191,E6,579.75,0.25,60,100.0
5192,C#5,580.0,0.25,64,100.0
5193,E4,580.0,0.25,64,100.0
5194,G6,580.25,0.25,69,100.0
5195,B-5,580.25,0.25,69,100.0
5196,G4,580.5,0.25,70,100.0
5197,E5,580.5,0.25,70,100.0
5198,B-6,580.75,0.25,65,100.0
5199,C#6,580.75,0.25,65,100.0
5200,F6,581.0,0.25,67,100.0
5201,B5,581.0,0.25,67,100.0
5202,G#6,581.0,0.25,67,100.0
5203,B6,581.0,0.25,67,100.0
5204,D4,581.0,0.25,79,100.0
5205,D5,581.0,0.25,79,100.0
5206,C#7,581.5,0.25,70,100.0
5207,E6,581.5,0.25,70,100.0
5208,A6,581.5,0.25,70,100.0
5209,E7,581.5,0.25,70,100.0
5210,A4,581.5,0.25,65,100.0
5211,A3,581.5,0.25,65,100.0
5212,G#6,582.25,0.25,60,100.0
5213,B6,582.25,0.25,60,100.0
5214,B5,582.25,0.25,60,100.0
5215,F6,582.25,0.25,60,100.0
5216,D4,582.25,0.25,79,100.0
5217,D3,582.25,0.25,79,100.0
5218,C#7,582.5,0.25,62,100.0
5219,E7,582.5,0.25,62,100.0
5220,A6,582.5,0.25,62,100.0
5221,E6,582.5,0.25,62,100.0
5222,A3,582.5,0.25,58,100.0
5223,A2,582.5,0.25,58,100.0
5224,G#6,583.0,0.25,60,100.0
5225,B5,583.0,0.25,60,100.0
5226,B6,583.0,0.25,60,100.0
5227,F6,583.0,0.25,60,100.0
5228,D2,583.0,0.25,79,100.0
5229,D3,583.0,0.25,79,100.0
5230,A6,583.5,0.25,64,100.0
5231,C#7,583.5,0.25,64,100.0
5232,E7,583.5,0.25,64,100.0
5233,E6,583.5,0.25,64,100.0
5234,A2,583.5,0.25,60,100.0
5235,A1,583.5,0.25,60,100.0
5236,B5,584.0,0.25,62,100.0
5237,G#6,584.0,0.25,62,100.0
5238,F6,584.0,0.25,62,100.0
5239,B6,584.0,0.25,62,100.0
5240,D3,584.0,0.25,79,100.0
5241,D2,584.0,0.25,79,100.0
5242,A6,584.5,0.25,64,100.0
5243,C#7,584.5,0.25,64,100.0
5244,E7,584.5,0.25,64,100.0
5245,E6,584.5,0.25,64,100.0
5246,A2,584.5,0.25,60,100.0
5247,A1,584.5,0.25,60,100.0
5248,F6,585.25,0.25,63,100.0
5249,B6,585.25,0.25,63,100.0
5250,G#6,585.25,0.25,63,100.0
5251,B5,585.25,0.25,63,100.0
5252,D4,585.25,0.25,79,100.0
5253,D3,585.25,0.25,79,100.0
5254,E6,585.5,0.25,67,100.0
5255,A6,585.5,0.25,67,100.0
5256,E7,585.5,0.25,67,100.0
5257,C#7,585.5,0.25,67,100.0
5258,A2,585.5,0.25,62,100.0
5259,A3,585.5,0.25,62,100.0
5260,F6,586.0,0.25,64,100.0
5261,G#6,586.0,0.25,64,100.0
5262,B6,586.0,0.25,64,100.0
5263,B5,586.0,0.25,64,100.0
5264,D3,586.0,0.25,79,100.0
5265,D2,586.0,0.25,79,100.0
5266,E6,586.5,0.25,67,100.0
5267,C#7,586.5,0.25,67,100.0
5268,A6,586.5,0.25,67,100.0
5269,E7,586.5,0.25,67,100.0
5270,A2,586.5,0.25,62,100.0
5271,A1,586.5,0.25,62,100.0
5272,G#6,587.0,0.25,64,100.0
5273,F6,587.0,0.25,64,100.0
5274,B6,587.0,0.25,64,100.0
5275,B5,587.0,0.25,64,100.0
5276,D3,587.0,0.25,79,100.0
5277,D2,587.0,0.25,79,100.0
5278,C#7,587.5,0.25,69,100.0
5279,E6,587.5,0.25,69,100.0
5280,E7,587.5,0.25,69,100.0
5281,A6,587.5,0.25,69,100.0
5282,A1,587.5,0.25,64,100.0
5283,A2,587.5,0.25,64,100.0
5284,G#5,588.0,0.25,51,100.0
5285,G#4,588.0,0.25,51,100.0
5286,G#3,588.0,0.25,37,100.0
5287,G#2,588.0,0.25,37,100.0
5288,A4,588.25,0.25,51,100.0
5289,A5,588.25,0.25,51,100.0
5290,A2,588.25,0.25,37,100.0
5291,A3,588.25,0.25,37,100.0
5292,B-5,588.5,0.25,54,100.0
5293,B-4,588.5,0.25,54,100.0
5294,B-2,588.5,0.25,40,100.0
5295,B-3,588.5,0.25,40,100.0
5296,A5,589.0,0.25,53,100.0
5297,A4,589.0,0.25,53,100.0
5298,A2,589.0,0.25,38,100.0
5299,A3,589.0,0.25,38,100.0
5300,B-5,589.25,0.25,54,100.0
5301,B-4,589.25,0.25,54,100.0
5302,B-2,589.25,0.25,40,100.0
5303,B-3,589.25,0.25,40,100.0
5304,B5,589.5,0.25,58,100.0
5305,B4,589.5,0.25,58,100.0
5306,B3,589.5,0.25,42,100.0
5307,B2,589.5,0.25,42,100.0
5308,B-5,590.0,0.25,56,100.0
5309,B-4,590.0,0.25,56,100.0
5310,B-2,590.0,0.25,42,100.0
5311,B-3,590.0,0.25,42,100.0
5312,B4,590.25,0.25,56,100.0
5313,B5,590.25,0.25,56,100.0
5314,B2,590.25,0.25,42,100.0
5315,B3,590.25,0.25,42,100.0
5316,C6,590.5,0.25,61,100.0
5317,C5,590.5,0.25,61,100.0
5318,C3,590.5,0.25,44,100.0
5319,C4,590.5,0.25,44,100.0
5320,A5,591.0,0.25,56,100.0
5321,A4,591.0,0.25,56,100.0
5322,A2,591.0,0.25,42,100.0
5323,A3,591.0,0.25,42,100.0
5324,B-5,591.25,0.25,56,100.0
5325,B-4,591.25,0.25,56,100.0
5326,B-3,591.25,0.25,42,100.0
5327,B-2,591.25,0.25,42,100.0
5328,B4,591.5,0.25,59,100.0
5329,B5,591.5,0.25,59,100.0
5330,B3,591.5,0.25,44,100.0
5331,B2,591.5,0.25,44,100.0
5332,B-4,592.0,0.25,56,100.0
5333,B-5,592.0,0.25,56,100.0
5334,B-2,592.0,0.25,42,100.0
5335,B-3,592.0,0.25,42,100.0
5336,B5,592.25,0.25,58,100.0
5337,B4,592.25,0.25,58,100.0
5338,B3,592.25,0.25,42,100.0
5339,B2,592.25,0.25,42,100.0
5340,C6,592.5,0.25,62,100.0
5341,C5,592.5,0.25,62,100.0
5342,C4,592.5,0.25,46,100.0
5343,C3,592.5,0.25,46,100.0
5344,B5,593.0,0.25,60,100.0
5345,B4,593.0,0.25,60,100.0
5346,B2,593.0,0.25,44,100.0
5347,B3,593.0,0.25,44,100.0
5348,C5,593.25,0.25,62,100.0
5349,C6,593.25,0.25,62,100.0
5350,C3,593.25,0.25,46,100.0
5351,C4,593.25,0.25,46,100.0
5352,C#6,593.5,0.25,66,100.0
5353,C#5,593.5,0.25,66,100.0
5354,C#3,593.5,0.25,50,100.0
5355,C#4,593.5,0.25,50,100.0
5356,B-4,594.0,0.25,63,100.0
5357,B-5,594.0,0.25,63,100.0
5358,B-3,594.0,0.25,46,100.0
5359,B-2,594.0,0.25,46,100.0
5360,B5,594.25,0.25,63,100.0
5361,B4,594.25,0.25,63,100.0
5362,B3,594.25,0.25,46,100.0
5363,B2,594.25,0.25,46,100.0
5364,C6,594.5,0.25,68,100.0
5365,C5,594.5,0.25,68,100.0
5366,C3,594.5,0.25,50,100.0
5367,C4,594.5,0.25,50,100.0
5368,B4,595.0,0.25,65,100.0
5369,B5,595.0,0.25,65,100.0
5370,B3,595.0,0.25,48,100.0
5371,B2,595.0,0.25,48,100.0
5372,C6,595.25,0.25,66,100.0
5373,C5,595.25,0.25,66,100.0
5374,C3,595.25,0.25,50,100.0
5375,C4,595.25,0.25,50,100.0
5376,C#6,595.5,0.25,70,100.0
5377,C#5,595.5,0.25,70,100.0
5378,C#4,595.5,0.25,52,100.0
5379,C#3,595.5,0.25,52,100.0
5380,C5,596.0,0.25,68,100.0
5381,C6,596.0,0.25,68,100.0
5382,C3,596.0,0.25,50,100.0
5383,C4,596.0,0.25,50,100.0
5384,C#5,596.25,0.25,68,100.0
5385,C#6,596.25,0.25,68,100.0
5386,C#3,596.25,0.25,50,100.0
5387,C#4,596.25,0.25,50,100.0
5388,D6,596.5,0.375,76,100.0
5389,D5,596.5,0.375,76,100.0
5390,D2,596.5,0.375,54,100.0
5391,D3,596.5,0.375,54,100.0
5392,G#4,596.875,0.125,46,100.0
5393,F4,596.875,0.125,46,100.0
5394,D4,596.875,0.125,31,100.0
5395,F3,596.875,0.125,31,100.0
5396,G#3,596.875,0.125,31,100.0
5397,A4,597.0,0.375,56,100.0
5398,F#4,597.0,0.375,56,100.0
5399,A3,597.0,0.375,38,100.0
5400,F#3,597.0,0.375,38,100.0
5401,D6,597.5,0.375,76,100.0
5402,D5,597.5,0.375,76,100.0
5403,D3,597.5,0.375,49,100.0
5404,D2,597.5,0.375,49,100.0
5405,G#4,597.875,0.125,46,100.0
5406,F4,597.875,0.125,46,100.0
5407,G#3,597.875,0.125,31,100.0
5408,D4,597.875,0.125,31,100.0
5409,F3,597.875,0.125,31,100.0
5410,A4,598.0,0.375,56,100.0
5411,F#4,598.0,0.375,56,100.0
5412,F#3,598.0,0.375,38,100.0
5413,A3,598.0,0.375,38,100.0
5414,C6,598.25,0.25,62,100.0
5415,C5,598.25,0.25,62,100.0
5416,B-5,598.5,0.375,76,100.0
5417,B-4,598.5,0.375,76,100.0
5418,D2,598.5,0.375,54,100.0
5419,D3,598.5,0.375,54,100.0
5420,F#4,598.875,0.125,46,100.0
5421,E-4,598.875,0.125,46,100.0
5422,A3,598.875,0.125,32,100.0
5423,F#3,598.875,0.125,32,100.0
5424,E4,599.0,0.375,56,100.0
5425,G4,599.0,0.375,56,100.0
5426,G3,599.0,0.375,38,100.0
5427,B-3,599.0,0.375,38,100.0
5428,B-5,599.5,0.375,78,100.0
5429,B-4,599.5,0.375,78,100.0
5430,D3,599.5,0.375,54,100.0
5431,D2,599.5,0.375,54,100.0
5432,E-4,599.875,0.125,46,100.0
5433,F#4,599.875,0.125,46,100.0
5434,A3,599.875,0.125,32,100.0
5435,F#3,599.875,0.125,32,100.0
5436,G4,600.0,0.375,56,100.0
5437,E4,600.0,0.375,56,100.0
5438,G3,600.0,0.375,38,100.0
5439,B-3,600.0,0.375,38,100.0
5440,B-5,600.25,0.25,62,100.0
5441,B-4,600.25,0.25,62,100.0
5442,A5,600.5,0.375,76,100.0
5443,A4,600.5,0.375,76,100.0
5444,C#3,600.5,0.375,52,100.0
5445,C#2,600.5,0.375,52,100.0
5446,E-4,600.875,0.125,46,100.0
5447,C4,600.875,0.125,46,100.0
5448,E-3,600.875,0.125,32,100.0
5449,F#3,600.875,0.125,32,100.0
5450,C#4,601.0,0.375,56,100.0
5451,E4,601.0,0.375,56,100.0
5452,G3,601.0,0.375,38,100.0
5453,E3,601.0,0.375,38,100.0
5454,A5,601.25,0.25,69,100.0
5455,A4,601.25,0.25,69,100.0
5456,E5,601.5,0.375,76,100.0
5457,E6,601.5,0.375,76,100.0
5458,A1,601.5,0.375,52,100.0
5459,A2,601.5,0.375,52,100.0
5460,E-4,601.875,0.125,46,100.0
5461,C4,601.875,0.125,46,100.0
5462,F#3,601.875,0.125,32,100.0
5463,E-3,601.875,0.125,32,100.0
5464,C#4,602.0,0.375,56,100.0
5465,E4,602.0,0.375,56,100.0
5466,E3,602.0,0.375,38,100.0
5467,G3,602.0,0.375,38,100.0
5468,G4,602.25,0.25,62,100.0
5469,G5,602.25,0.25,62,100.0
5470,F#4,602.5,0.375,76,100.0
5471,F#5,602.5,0.375,76,100.0
5472,D3,602.5,0.375,52,100.0
5473,D2,602.5,0.375,52,100.0
5474,F4,602.875,0.125,46,100.0
5475,G#4,602.875,0.125,46,100.0
5476,F3,602.875,0.125,31,100.0
5477,D4,602.875,0.125,31,100.0
5478,G#3,602.875,0.125,31,100.0
5479,F#4,603.0,0.375,56,100.0
5480,A4,603.0,0.375,56,100.0
5481,A3,603.0,0.375,38,100.0
5482,F#3,603.0,0.375,38,100.0
5483,A4,603.25,0.25,60,100.0
5484,A5,603.25,0.25,60,100.0
5485,D5,603.5,0.375,73,100.0
5486,D4,603.5,0.375,73,100.0
5487,D2,603.5,0.375,50,100.0
5488,D3,603.5,0.375,50,100.0
5489,F4,603.875,0.125,46,100.0
5490,C#4,603.875,0.125,46,100.0
5491,G#3,603.875,0.125,32,100.0
5492,F3,603.875,0.125,32,100.0
5493,F#4,604.0,0.375,56,100.0
5494,D4,604.0,0.375,56,100.0
5495,A3,604.0,0.375,38,100.0
5496,F#3,604.0,0.375,38,100.0
5497,C#5,604.5,0.375,76,100.0
5498,C#6,604.5,0.375,76,100.0
5499,C#2,604.5,0.375,54,100.0
5500,C#3,604.5,0.375,54,100.0
5501,E4,604.875,0.125,46,100.0
5502,G4,604.875,0.125,46,100.0
5503,C#4,604.875,0.125,31,100.0
5504,G3,604.875,0.125,31,100.0
5505,E3,604.875,0.125,31,100.0
5506,G#4,605.0,0.375,56,100.0
5507,F4,605.0,0.375,56,100.0
5508,F3,605.0,0.375,38,100.0
5509,G#3,605.0,0.375,38,100.0
5510,C#5,605.5,0.375,76,100.0
5511,C#6,605.5,0.375,76,100.0
5512,F2,605.5,0.375,49,100.0
5513,F3,605.5,0.375,49,100.0
5514,E4,605.875,0.125,46,100.0
5515,G4,605.875,0.125,46,100.0
5516,C#4,605.875,0.125,32,100.0
5517,G3,605.875,0.125,32,100.0
5518,G#3,606.0,0.375,42,100.0
5519,G#4,606.0,0.375,56,100.0
5520,F4,606.0,0.375,56,100.0
5521,B4,606.25,0.25,62,100.0
5522,B5,606.25,0.25,62,100.0
5523,A4,606.5,0.375,76,100.0
5524,A5,606.5,0.375,76,100.0
5525,F#3,606.5,0.375,54,100.0
5526,F#2,606.5,0.375,54,100.0
5527,F4,606.875,0.125,46,100.0
5528,G#4,606.875,0.125,46,100.0
5529,G#3,606.875,0.125,32,100.0
5530,C#4,606.875,0.125,32,100.0
5531,A3,607.0,0.375,42,100.0
5532,F#4,607.0,0.375,56,100.0
5533,A4,607.0,0.375,56,100.0
5534,F#4,607.5,0.375,78,100.0
5535,F#5,607.5,0.375,78,100.0
5536,A3,607.5,0.375,54,100.0
5537,A2,607.5,0.375,54,100.0
5538,F4,607.875,0.125,46,100.0
5539,G#4,607.875,0.125,46,100.0
5540,C#4,607.875,0.125,32,100.0
5541,G#3,607.875,0.125,32,100.0
5542,A3,608.0,0.375,42,100.0
5543,F#4,608.0,0.375,56,100.0
5544,A4,608.0,0.375,56,100.0
5545,A5,608.25,0.25,62,100.0
5546,A4,608.25,0.25,62,100.0
5547,E5,608.5,0.375,76,100.0
5548,E6,608.5,0.375,76,100.0
5549,E2,608.5,0.375,54,100.0
5550,E3,608.5,0.375,54,100.0
5551,B-4,608.875,0.125,46,100.0
5552,G4,608.875,0.125,46,100.0
5553,E4,608.875,0.125,31,100.0
5554,G3,608.875,0.125,31,100.0
5555,B-3,608.875,0.125,31,100.0
5556,B4,609.0,0.375,56,100.0
5557,G#4,609.0,0.375,56,100.0
5558,B3,609.0,0.375,38,100.0
5559,G#3,609.0,0.375,38,100.0
5560,E6,609.5,0.375,76,100.0
5561,E5,609.5,0.375,76,100.0
5562,G#2,609.5,0.375,49,100.0
5563,G#3,609.5,0.375,49,100.0
5564,B-4,609.875,0.125,46,100.0
5565,G4,609.875,0.125,46,100.0
5566,B-3,609.875,0.125,32,100.0
5567,E4,609.875,0.125,32,100.0
5568,B3,610.0,0.375,42,100.0
5569,G#4,610.0,0.375,56,100.0
5570,B4,610.0,0.375,56,100.0
5571,D6,610.25,0.25,62,100.0
5572,D5,610.25,0.25,62,100.0
5573,C#6,610.5,0.375,76,100.0
5574,C#5,610.5,0.375,76,100.0
5575,A3,610.5,0.375,54,100.0
5576,A2,610.5,0.375,54,100.0
5577,C5,610.875,0.125,46,100.0
5578,G#4,610.875,0.125,46,100.0
5579,E4,610.875,0.125,32,100.0
5580,C4,610.875,0.125,32,100.0
5581,C#4,611.0,0.375,42,100.0
5582,C#5,611.0,0.375,56,100.0
5583,A4,611.0,0.375,56,100.0
5584,A4,611.5,0.375,78,100.0
5585,A5,611.5,0.375,78,100.0
5586,C#4,611.5,0.375,54,100.0
5587,C#3,611.5,0.375,54,100.0
5588,C5,611.875,0.125,46,100.0
5589,G#4,611.875,0.125,46,100.0
5590,E4,611.875,0.125,32,100.0
5591,C4,611.875,0.125,32,100.0
5592,C#4,612.0,0.375,42,100.0
5593,C#5,612.0,0.375,56,100.0
5594,A4,612.0,0.375,56,100.0
5595,A4,612.25,0.25,62,100.0
5596,A5,612.25,0.25,62,100.0
5597,A3,612.25,0.25,48,100.0
5598,A2,612.25,0.25,48,100.0
5599,C6,612.5,0.375,59,100.0
5600,F#6,612.5,0.375,59,100.0
5601,F#5,612.5,0.375,59,100.0
5602,A3,612.5,0.375,41,100.0
5603,E-3,612.5,0.375,41,100.0
5604,A2,612.5,0.375,41,100.0
5605,D5,612.875,0.125,36,100.0
5606,B4,612.875,0.125,36,100.0
5607,F4,612.875,0.125,26,100.0
5608,D4,612.875,0.125,26,100.0
5609,C5,613.0,0.375,44,100.0
5610,E-5,613.0,0.375,44,100.0
5611,F#4,613.0,0.375,30,100.0
5612,E-4,613.0,0.375,30,100.0
5613,F#6,613.5,0.375,59,100.0
5614,F#5,613.5,0.375,59,100.0
5615,C6,613.5,0.375,59,100.0
5616,E-3,613.5,0.375,39,100.0
5617,A3,613.5,0.375,39,100.0
5618,A2,613.5,0.375,39,100.0
5619,B4,613.875,0.125,36,100.0
5620,D5,613.875,0.125,36,100.0
5621,F4,613.875,0.125,26,100.0
5622,D4,613.875,0.125,26,100.0
5623,C5,614.0,0.375,44,100.0
5624,E-5,614.0,0.375,44,100.0
5625,F#4,614.0,0.375,30,100.0
5626,E-4,614.0,0.375,30,100.0
5627,C6,614.25,0.25,48,100.0
5628,F#5,614.25,0.25,48,100.0
5629,F#6,614.25,0.25,48,100.0
5630,A3,614.25,0.25,37,100.0
5631,E-3,614.25,0.25,37,100.0
5632,A2,614.25,0.25,37,100.0
5633,A5,614.5,0.375,59,100.0
5634,C#6,614.5,0.375,59,100.0
5635,A6,614.5,0.375,59,100.0
5636,A2,614.5,0.375,41,100.0
5637,E3,614.5,0.375,41,100.0
5638,A3,614.5,0.375,41,100.0
5639,E-5,614.875,0.125,36,100.0
5640,C5,614.875,0.125,36,100.0
5641,E-4,614.875,0.125,26,100.0
5642,C4,614.875,0.125,26,100.0
5643,C#5,615.0,0.375,44,100.0
5644,E5,615.0,0.375,44,100.0
5645,E4,615.0,0.375,30,100.0
5646,C#4,615.0,0.375,30,100.0
5647,E6,615.5,0.375,60,100.0
5648,E5,615.5,0.375,60,100.0
5649,A5,615.5,0.375,60,100.0
5650,A2,615.5,0.375,41,100.0
5651,C#3,615.5,0.375,41,100.0
5652,A3,615.5,0.375,41,100.0
5653,C5,615.875,0.125,36,100.0
5654,G#4,615.875,0.125,36,100.0
5655,E-4,615.875,0.125,26,100.0
5656,C4,615.875,0.125,26,100.0
5657,A4,616.0,0.375,44,100.0
5658,C#5,616.0,0.375,44,100.0
5659,E4,616.0,0.375,30,100.0
5660,C#4,616.0,0.375,30,100.0
5661,C6,616.5,0.375,62,100.0
5662,F#5,616.5,0.375,62,100.0
5663,F#6,616.5,0.375,62,100.0
5664,A2,616.5,0.375,43,100.0
5665,E-3,616.5,0.375,43,100.0
5666,A3,616.5,0.375,43,100.0
5667,B4,616.875,0.125,38,100.0
5668,D5,616.875,0.125,38,100.0
5669,D4,616.875,0.125,26,100.0
5670,F4,616.875,0.125,26,100.0
5671,C5,617.0,0.375,46,100.0
5672,E-5,617.0,0.375,46,100.0
5673,F#4,617.0,0.375,32,100.0
5674,E-4,617.0,0.375,32,100.0
5675,F#5,617.5,0.375,62,100.0
5676,C6,617.5,0.375,62,100.0
5677,F#6,617.5,0.375,62,100.0
5678,A2,617.5,0.375,40,100.0
5679,E-3,617.5,0.375,40,100.0
5680,A3,617.5,0.375,40,100.0
5681,B4,617.875,0.125,38,100.0
5682,D5,617.875,0.125,38,100.0
5683,F4,617.875,0.125,26,100.0
5684,D4,617.875,0.125,26,100.0
5685,C5,618.0,0.375,46,100.0
5686,E-5,618.0,0.375,46,100.0
5687,F#4,618.0,0.375,32,100.0
5688,E-4,618.0,0.375,32,100.0
5689,C6,618.25,0.25,50,100.0
5690,F#5,618.25,0.25,50,100.0
5691,F#6,618.25,0.25,50,100.0
5692,A2,618.25,0.25,38,100.0
5693,E-3,618.25,0.25,38,100.0
5694,A3,618.25,0.25,38,100.0
5695,D6,618.5,0.375,62,100.0
5696,B-6,618.5,0.375,62,100.0
5697,B-5,618.5,0.375,62,100.0
5698,B-2,618.5,0.375,43,100.0
5699,F3,618.5,0.375,43,100.0
5700,B-3,618.5,0.375,43,100.0
5701,E5,618.875,0.125,38,100.0
5702,C#5,618.875,0.125,38,100.0
5703,C#4,618.875,0.125,26,100.0
5704,E4,618.875,0.125,26,100.0
5705,F5,619.0,0.375,46,100.0
5706,D5,619.0,0.375,46,100.0
5707,F4,619.0,0.375,32,100.0
5708,D4,619.0,0.375,32,100.0
5709,F5,619.5,0.375,62,100.0
5710,F6,619.5,0.375,62,100.0
5711,B-5,619.5,0.375,62,100.0
5712,B-3,619.5,0.375,43,100.0
5713,D3,619.5,0.375,43,100.0
5714,B-2,619.5,0.375,43,100.0
5715,C#5,619.875,0.125,38,100.0
5716,A4,619.875,0.125,38,100.0
5717,C#4,619.875,0.125,26,100.0
5718,E4,619.875,0.125,26,100.0
5719,B-4,620.0,0.375,46,100.0
5720,D5,620.0,0.375,46,100.0
5721,D4,620.0,0.375,32,100.0
5722,F4,620.0,0.375,32,100.0
5723,G6,620.5,0.375,64,100.0
5724,G5,620.5,0.375,64,100.0
5725,C#6,620.5,0.375,64,100.0
5726,E3,620.5,0.375,45,100.0
5727,B-3,620.5,0.375,45,100.0
5728,B-2,620.5,0.375,45,100.0
5729,E-5,620.875,0.125,40,100.0
5730,C5,620.875,0.125,40,100.0
5731,E-4,620.875,0.125,28,100.0
5732,F#4,620.875,0.125,28,100.0
5733,E5,621.0,0.375,48,100.0
5734,C#5,621.0,0.375,48,100.0
5735,G4,621.0,0.375,33,100.0
5736,E4,621.0,0.375,33,100.0
5737,G6,621.5,0.375,66,100.0
5738,C#6,621.5,0.375,66,100.0
5739,G5,621.5,0.375,66,100.0
5740,E3,621.5,0.375,43,100.0
5741,B-3,621.5,0.375,43,100.0
5742,B-2,621.5,0.375,43,100.0
5743,E-5,621.875,0.125,41,100.0
5744,C5,621.875,0.125,41,100.0
5745,F#4,621.875,0.125,28,100.0
5746,E-4,621.875,0.125,28,100.0
5747,E5,622.0,0.375,50,100.0
5748,C#5,622.0,0.375,50,100.0
5749,E4,622.0,0.375,34,100.0
5750,G4,622.0,0.375,34,100.0
5751,G6,622.25,0.25,54,100.0
5752,C#6,622.25,0.25,54,100.0
5753,G5,622.25,0.25,54,100.0
5754,B-2,622.25,0.25,41,100.0
5755,B-3,622.25,0.25,41,100.0
5756,E3,622.25,0.25,41,100.0
5757,B6,622.5,0.375,68,100.0
5758,E-6,622.5,0.375,68,100.0
5759,B5,622.5,0.375,68,100.0
5760,B3,622.5,0.375,47,100.0
5761,B2,622.5,0.375,47,100.0
5762,F#3,622.5,0.375,47,100.0
5763,D5,622.875,0.125,42,100.0
5764,B-4,622.875,0.125,42,100.0
5765,D4,622.875,0.125,29,100.0
5766,F4,622.875,0.125,29,100.0
5767,E-5,623.0,0.375,52,100.0
5768,B4,623.0,0.375,52,100.0
5769,E-4,623.0,0.375,35,100.0
5770,F#4,623.0,0.375,35,100.0
5771,B5,623.5,0.375,72,100.0
5772,B6,623.5,0.375,72,100.0
5773,B3,623.5,0.375,46,100.0
5774,B2,623.5,0.375,46,100.0
5775,C#5,623.875,0.125,44,100.0
5776,E5,623.875,0.125,44,100.0
5777,E4,623.875,0.125,30,100.0
5778,G4,623.875,0.125,30,100.0
5779,D5,624.0,0.375,53,100.0
5780,F5,624.0,0.375,53,100.0
5781,F4,624.0,0.375,36,100.0
5782,G#4,624.0,0.375,36,100.0
5783,B5,624.25,0.25,60,100.0
5784,B6,624.25,0.25,60,100.0
5785,B3,624.25,0.25,46,100.0
5786,B2,624.25,0.25,46,100.0
5787,C6,624.5,0.375,74,100.0
5788,C7,624.5,0.375,74,100.0
5789,C3,624.5,0.375,52,100.0
5790,C4,624.5,0.375,52,100.0
5791,B4,624.875,0.125,44,100.0
5792,E-5,624.875,0.125,44,100.0
5793,E-4,624.875,0.125,31,100.0
5794,F#4,624.875,0.125,31,100.0
5795,E5,625.0,0.375,55,100.0
5796,C5,625.0,0.375,55,100.0
5797,G4,625.0,0.375,37,100.0
5798,E4,625.0,0.375,37,100.0
5799,C#6,625.5,0.375,76,100.0
5800,C#7,625.5,0.375,76,100.0
5801,C#4,625.5,0.375,48,100.0
5802,C#3,625.5,0.375,48,100.0
5803,F#5,625.875,0.125,46,100.0
5804,E-5,625.875,0.125,46,100.0
5805,A4,625.875,0.125,32,100.0
5806,F#4,625.875,0.125,32,100.0
5807,G5,626.0,0.375,56,100.0
5808,E5,626.0,0.375,56,100.0
5809,B-4,626.0,0.375,38,100.0
5810,G4,626.0,0.375,38,100.0
5811,C#6,626.25,0.25,64,100.0
5812,C#7,626.25,0.25,64,100.0
5813,C#3,626.25,0.25,48,100.0
5814,C#4,626.25,0.25,48,100.0
5815,D6,626.5,0.375,78,100.0
5816,D7,626.5,0.375,78,100.0
5817,D4,626.5,0.375,54,100.0
5818,D3,626.5,0.375,54,100.0
5819,E5,626.875,0.125,49,100.0
5820,G#5,626.875,0.125,49,100.0
5821,G#4,626.875,0.125,35,100.0
5822,E4,626.875,0.125,35,100.0
5823,A5,627.0,0.375,57,100.0
5824,F5,627.0,0.375,57,100.0
5825,A4,627.0,0.375,42,100.0
5826,F4,627.0,0.375,42,100.0
5827,A5,627.5,0.375,72,100.0
5828,A6,627.5,0.375,72,100.0
5829,A3,627.5,0.375,49,100.0
5830,A2,627.5,0.375,49,100.0
5831,C#5,627.875,0.125,49,100.0
5832,E5,627.875,0.125,49,100.0
5833,C#4,627.875,0.125,36,100.0
5834,E4,627.875,0.125,36,100.0
5835,F5,628.0,0.375,56,100.0
5836,D5,628.0,0.375,56,100.0
5837,D4,628.0,0.375,43,100.0
5838,F4,628.0,0.375,43,100.0
5839,F5,628.5,0.375,78,100.0
5840,F6,628.5,0.375,78,100.0
5841,F3,628.5,0.375,54,100.0
5842,F2,628.5,0.375,54,100.0
5843,G#4,628.875,0.125,49,100.0
5844,C#5,628.875,0.125,49,100.0
5845,C#4,628.875,0.125,35,100.0
5846,G#3,628.875,0.125,35,100.0
5847,D5,629.0,0.375,57,100.0
5848,A4,629.0,0.375,57,100.0
5849,A3,629.0,0.375,42,100.0
5850,D4,629.0,0.375,42,100.0
5851,D6,629.5,0.375,72,100.0
5852,D5,629.5,0.375,72,100.0
5853,D2,629.5,0.375,49,100.0
5854,D3,629.5,0.375,49,100.0
5855,E4,629.875,0.125,49,100.0
5856,G#4,629.875,0.125,49,100.0
5857,E3,629.875,0.125,36,100.0
5858,G#3,629.875,0.125,36,100.0
5859,F4,630.0,0.375,56,100.0
5860,A4,630.0,0.375,56,100.0
5861,F3,630.0,0.375,43,100.0
5862,A3,630.0,0.375,43,100.0
5863,B-5,630.5,0.375,78,100.0
5864,B-6,630.5,0.375,78,100.0
5865,B-2,630.5,0.375,54,100.0
5866,B-3,630.5,0.375,54,100.0
5867,C#5,630.875,0.125,49,100.0
5868,E5,630.875,0.125,49,100.0
5869,E4,630.875,0.125,35,100.0
5870,C#4,630.875,0.125,35,100.0
5871,D5,631.0,0.375,57,100.0
5872,F5,631.0,0.375,57,100.0
5873,F4,631.0,0.375,42,100.0
5874,D4,631.0,0.375,42,100.0
5875,F5,631.5,0.375,72,100.0
5876,F6,631.5,0.375,72,100.0
5877,F3,631.5,0.375,49,100.0
5878,F2,631.5,0.375,49,100.0
5879,A4,631.875,0.125,49,100.0
5880,C#5,631.875,0.125,49,100.0
5881,A3,631.875,0.125,36,100.0
5882,C#4,631.875,0.125,36,100.0
5883,B-4,632.0,0.375,56,100.0
5884,D5,632.0,0.375,56,100.0
5885,D4,632.0,0.375,43,100.0
5886,B-3,632.0,0.375,43,100.0
5887,D5,632.5,0.375,78,100.0
5888,D6,632.5,0.375,78,100.0
5889,D3,632.5,0.375,54,100.0
5890,D2,632.5,0.375,54,100.0
5891,A4,632.875,0.125,49,100.0
5892,E4,632.875,0.125,49,100.0
5893,A3,632.875,0.125,35,100.0
5894,E3,632.875,0.125,35,100.0
5895,B-4,633.0,0.375,57,100.0
5896,F4,633.0,0.375,57,100.0
5897,F3,633.0,0.375,42,100.0
5898,B-3,633.0,0.375,42,100.0
5899,B-5,633.5,0.375,72,100.0
5900,B-4,633.5,0.375,72,100.0
5901,B-1,633.5,0.375,49,100.0
5902,B-2,633.5,0.375,49,100.0
5903,E4,633.875,0.125,49,100.0
5904,C#4,633.875,0.125,49,100.0
5905,C#3,633.875,0.125,36,100.0
5906,E3,633.875,0.125,36,100.0
5907,D4,634.0,0.375,56,100.0
5908,F4,634.0,0.375,56,100.0
5909,D3,634.0,0.375,43,100.0
5910,F3,634.0,0.375,43,100.0
5911,E-6,634.5,0.375,78,100.0
5912,E-5,634.5,0.375,78,100.0
5913,E-3,634.5,0.375,54,100.0
5914,E-2,634.5,0.375,54,100.0
5915,F#4,634.875,0.125,44,100.0
5916,D4,634.875,0.125,44,100.0
5917,F#3,634.875,0.125,31,100.0
5918,A3,634.875,0.125,31,100.0
5919,E-4,635.0,0.375,50,100.0
5920,G4,635.0,0.375,50,100.0
5921,G3,635.0,0.375,37,100.0
5922,B-3,635.0,0.375,37,100.0
5923,B-5,635.5,0.375,72,100.0
5924,B-4,635.5,0.375,72,100.0
5925,B-2,635.5,0.375,49,100.0
5926,B-1,635.5,0.375,49,100.0
5927,F#4,635.875,0.125,44,100.0
5928,D4,635.875,0.125,44,100.0
5929,A3,635.875,0.125,32,100.0
5930,F#3,635.875,0.125,32,100.0
5931,G4,636.0,0.375,50,100.0
5932,E-4,636.0,0.375,50,100.0
5933,B-3,636.0,0.375,38,100.0
5934,G3,636.0,0.375,38,100.0
5935,E-5,636.5,0.375,78,100.0
5936,E-6,636.5,0.375,78,100.0
5937,E-2,636.5,0.375,54,100.0
5938,E-3,636.5,0.375,54,100.0
5939,F#4,636.875,0.125,44,100.0
5940,D4,636.875,0.125,44,100.0
5941,A3,636.875,0.125,31,100.0
5942,F#3,636.875,0.125,31,100.0
5943,G4,637.0,0.375,50,100.0
5944,E-4,637.0,0.375,50,100.0
5945,B-3,637.0,0.375,37,100.0
5946,G3,637.0,0.375,37,100.0
5947,B-5,637.5,0.375,72,100.0
5948,B-4,637.5,0.375,72,100.0
5949,B-2,637.5,0.375,49,100.0
5950,B-1,637.5,0.375,49,100.0
5951,F#4,637.875,0.125,44,100.0
5952,D4,637.875,0.125,44,100.0
5953,A3,637.875,0.125,32,100.0
5954,F#3,637.875,0.125,32,100.0
5955,E-4,638.0,0.375,50,100.0
5956,G4,638.0,0.375,50,100.0
5957,B-3,638.0,0.375,38,100.0
5958,G3,638.0,0.375,38,100.0
5959,A4,638.5,0.375,78,100.0
5960,A5,638.5,0.375,78,100.0
5961,A2,638.5,0.375,54,100.0
5962,A1,638.5,0.375,54,100.0
5963,E4,638.875,0.125,49,100.0
5964,C#4,638.875,0.125,49,100.0
5965,G#3,638.875,0.125,35,100.0
5966,E3,638.875,0.125,35,100.0
5967,D4,639.0,0.375,57,100.0
5968,F4,639.0,0.375,57,100.0
5969,F3,639.0,0.375,42,100.0
5970,A3,639.0,0.375,42,100.0
5971,F5,639.5,0.375,72,100.0
5972,F4,639.5,0.375,72,100.0
5973,F1,639.5,0.375,49,100.0
5974,F2,639.5,0.375,49,100.0
5975,E3,639.875,0.125,39,100.0
5976,G#3,639.875,0.125,49,100.0
5977,C#4,639.875,0.125,49,100.0
5978,F3,640.0,0.375,47,100.0
5979,A3,640.0,0.375,56,100.0
5980,D4,640.0,0.375,56,100.0
5981,E4,640.5,0.375,78,100.0
5982,E5,640.5,0.375,78,100.0
5983,E1,640.5,0.375,54,100.0
5984,E2,640.5,0.375,54,100.0
5985,G3,641.0,0.375,55,100.0
5986,B-3,641.0,0.375,55,100.0
5987,D4,641.0,0.375,55,100.0
5988,E3,641.0,0.375,40,100.0
5989,D3,641.0,0.375,40,100.0
5990,B-2,641.0,0.375,40,100.0
5991,A4,641.5,0.375,72,100.0
5992,A5,641.5,0.375,72,100.0
5993,A1,641.5,0.375,49,100.0
5994,A2,641.5,0.375,49,100.0
5995,A4,642.0,0.375,53,100.0
5996,C#4,642.0,0.375,53,100.0
5997,A3,642.0,0.375,53,100.0
5998,E4,642.0,0.375,53,100.0
5999,G3,642.0,0.375,40,100.0
6000,A2,642.0,0.375,40,100.0
6001,C#3,642.0,0.375,40,100.0
6002,E3,642.0,0.375,40,100.0
6003,D4,642.5,71/500,70,100.0
6004,F3,642.5,0.25,67,100.0
6005,A3,642.5,0.25,67,100.0
6006,D3,642.5,0.5,56,100.0
6007,D2,642.5,0.5,56,100.0
6008,A2,642.5,0.5,56,100.0
6009,D4,642.667,71/500,53,100.0
6010,D5,642.833,71/500,54,100.0
6011,D5,643.0,71/500,54,100.0
6012,D6,643.167,71/500,54,100.0
6013,D6,643.333,71/500,58,100.0
6014,D7,643.5,71/500,62,100.0
6015,D6,643.667,71/500,54,100.0
6016,D6,643.833,71/500,58,100.0
6017,D5,644.0,71/500,54,100.0
6018,D5,644.167,71/500,58,100.0
6019,D2,644.25,0.188,64,100.0
6020,D3,644.25,0.188,64,100.0
6021,D4,644.333,71/500,54,100.0
6022,E-2,644.438,0.062,66,100.0
6023,F#2,644.438,0.062,66,100.0
6024,A2,644.438,0.062,66,100.0
6025,E-3,644.5,1.75,78,100.0
6026,E-2,644.5,1.688,66,100.0
6027,F#2,644.5,1.688,66,100.0
6028,A2,644.5,1.688,66,100.0
6029,D4,644.667,71/500,50,100.0
6030,F#4,644.667,71/500,50,100.0
6031,C5,644.833,71/500,50,100.0
6032,D5,644.833,71/500,50,100.0
6033,D5,645.0,71/500,50,100.0
6034,F#5,645.0,71/500,50,100.0
6035,C6,645.167,71/500,54,100.0
6036,D6,645.167,71/500,54,100.0
6037,F#6,645.333,71/500,50,100.0
6038,D6,645.333,71/500,50,100.0
6039,C7,645.5,71/500,58,100.0
6040,D7,645.5,71/500,58,100.0
6041,F#6,645.667,71/500,50,100.0
6042,D6,645.667,71/500,50,100.0
6043,D6,645.833,71/500,56,100.0
6044,C6,645.833,71/500,56,100.0
6045,F#5,646.0,71/500,50,100.0
6046,D5,646.0,71/500,50,100.0
6047,C5,646.167,71/500,54,100.0
6048,D5,646.167,71/500,54,100.0
6049,D3,646.25,0.188,62,100.0
6050,D2,646.25,0.188,62,100.0
6051,F#4,646.333,71/500,50,100.0
6052,D4,646.333,71/500,50,100.0
6053,F2,646.438,0.062,65,100.0
6054,G#2,646.438,0.062,65,100.0
6055,B2,646.438,0.062,65,100.0
6056,F3,646.5,1.75,77,100.0
6057,F2,646.5,1.688,65,100.0
6058,G#2,646.5,1.688,65,100.0
6059,B2,646.5,1.688,65,100.0
6060,F4,646.667,71/500,49,100.0
6061,D4,646.667,71/500,49,100.0
6062,D5,646.833,71/500,49,100.0
6063,B4,646.833,71/500,49,100.0
6064,F5,647.0,71/500,49,100.0
6065,D5,647.0,71/500,49,100.0
6066,D6,647.167,71/500,52,100.0
6067,B5,647.167,71/500,52,100.0
6068,F6,647.333,71/500,49,100.0
6069,D6,647.333,71/500,49,100.0
6070,D7,647.5,71/500,56,100.0
6071,B6,647.5,71/500,56,100.0
6072,D6,647.667,71/500,49,100.0
6073,F6,647.667,71/500,49,100.0
6074,B5,647.833,71/500,52,100.0
6075,D6,647.833,71/500,52,100.0
6076,F5,648.0,71/500,49,100.0
6077,D5,648.0,71/500,49,100.0
6078,B4,648.167,71/500,52,100.0
6079,D5,648.167,71/500,52,100.0
6080,D3,648.25,0.188,62,100.0
6081,D2,648.25,0.188,62,100.0
6082,D4,648.333,71/500,49,100.0
6083,F4,648.333,71/500,49,100.0
6084,B-2,648.438,0.062,65,100.0
6085,D3,648.438,0.062,65,100.0
6086,G3,648.438,0.062,65,100.0
6087,B-3,648.5,0.5,77,100.0
6088,B-2,648.5,0.438,65,100.0
6089,D3,648.5,0.438,65,100.0
6090,G3,648.5,0.438,65,100.0
6091,D4,648.667,71/500,49,100.0
6092,E4,648.667,71/500,49,100.0
6093,B-4,648.833,71/500,49,100.0
6094,D5,648.833,71/500,49,100.0
6095,E5,649.0,71/500,49,100.0
6096,D5,649.0,71/500,49,100.0
6097,B-5,649.167,71/500,52,100.0
6098,D6,649.167,71/500,52,100.0
6099,B-3,649.25,0.25,62,100.0
6100,B-2,649.25,0.25,62,100.0
6101,D6,649.333,71/500,49,100.0
6102,E6,649.333,71/500,49,100.0
6103,D7,649.5,71/500,56,100.0
6104,B-6,649.5,71/500,56,100.0
6105,A3,649.5,0.5,71,100.0
6106,A2,649.5,0.5,71,100.0
6107,D6,649.667,71/500,49,100.0
6108,E6,649.667,71/500,49,100.0
6109,B-5,649.833,71/500,52,100.0
6110,D6,649.833,71/500,52,100.0
6111,D5,650.0,71/500,49,100.0
6112,E5,650.0,71/500,49,100.0
6113,B-4,650.167,71/500,52,100.0
6114,D5,650.167,71/500,52,100.0
6115,G3,650.25,0.188,62,100.0
6116,G2,650.25,0.188,62,100.0
6117,D4,650.333,71/500,49,100.0
6118,E4,650.333,71/500,49,100.0
6119,D2,650.438,0.062,66,100.0
6120,F#2,650.438,0.062,66,100.0
6121,A2,650.438,0.062,66,100.0
6122,D3,650.5,1.5,78,100.0
6123,D2,650.5,1.438,66,100.0
6124,F#2,650.5,1.438,66,100.0
6125,A2,650.5,1.438,66,100.0
6126,F#4,650.667,71/500,50,100.0
6127,D4,650.667,71/500,50,100.0
6128,A4,650.833,71/500,50,100.0
6129,D5,650.833,71/500,50,100.0
6130,D5,651.0,71/500,50,100.0
6131,F#5,651.0,71/500,50,100.0
6132,A5,651.167,71/500,54,100.0
6133,D6,651.167,71/500,54,100.0
6134,D6,651.333,71/500,50,100.0
6135,F#6,651.333,71/500,50,100.0
6136,A6,651.5,71/500,58,100.0
6137,D7,651.5,71/500,58,100.0
6138,F#6,651.667,71/500,50,100.0
6139,D6,651.667,71/500,50,100.0
6140,D6,651.833,71/500,56,100.0
6141,A5,651.833,71/500,56,100.0
6142,F#5,652.0,71/500,50,100.0
6143,D5,652.0,71/500,50,100.0
6144,A4,652.167,71/500,54,100.0
6145,D5,652.167,71/500,54,100.0
6146,D3,652.25,0.188,62,100.0
6147,D2,652.25,0.188,62,100.0
6148,F#4,652.333,71/500,50,100.0
6149,D4,652.333,71/500,50,100.0
6150,E-2,652.438,0.062,66,100.0
6151,F#2,652.438,0.062,66,100.0
6152,A2,652.438,0.062,66,100.0
6153,E-3,652.5,1.75,78,100.0
6154,E-2,652.5,1.688,66,100.0
6155,F#2,652.5,1.688,66,100.0
6156,A2,652.5,1.688,66,100.0
6157,E-4,652.667,71/500,50,100.0
6158,C4,652.667,71/500,50,100.0
6159,F#4,652.833,71/500,50,100.0
6160,C5,652.833,71/500,50,100.0
6161,E-5,653.0,71/500,50,100.0
6162,C5,653.0,71/500,50,100.0
6163,F#5,653.167,71/500,54,100.0
6164,C6,653.167,71/500,54,100.0
6165,C6,653.333,71/500,50,100.0
6166,E-6,653.333,71/500,50,100.0
6167,C7,653.5,71/500,58,100.0
6168,F#6,653.5,71/500,58,100.0
6169,E-6,653.667,71/500,50,100.0
6170,C6,653.667,71/500,50,100.0
6171,C6,653.833,71/500,56,100.0
6172,F#5,653.833,71/500,56,100.0
6173,C5,654.0,71/500,50,100.0
6174,E-5,654.0,71/500,50,100.0
6175,C5,654.167,71/500,54,100.0
6176,F#4,654.167,71/500,54,100.0
6177,D3,654.25,0.188,62,100.0
6178,D2,654.25,0.188,62,100.0
6179,C4,654.333,71/500,50,100.0
6180,E-4,654.333,71/500,50,100.0
6181,B1,654.438,0.062,65,100.0
6182,F2,654.438,0.062,65,100.0
6183,G#2,654.438,0.062,65,100.0
6184,B2,654.5,1.75,77,100.0
6185,B1,654.5,1.688,65,100.0
6186,F2,654.5,1.688,65,100.0
6187,G#2,654.5,1.688,65,100.0
6188,D4,654.667,71/500,49,100.0
6189,B3,654.667,71/500,49,100.0
6190,B4,654.833,71/500,49,100.0
6191,F4,654.833,71/500,49,100.0
6192,D5,655.0,71/500,49,100.0
6193,B4,655.0,71/500,49,100.0
6194,B5,655.167,71/500,52,100.0
6195,F5,655.167,71/500,52,100.0
6196,D6,655.333,71/500,49,100.0
6197,B5,655.333,71/500,49,100.0
6198,B6,655.5,71/500,56,100.0
6199,F6,655.5,71/500,56,100.0
6200,B5,655.667,71/500,49,100.0
6201,D6,655.667,71/500,49,100.0
6202,F5,655.833,71/500,52,100.0
6203,B5,655.833,71/500,52,100.0
6204,D5,656.0,71/500,49,100.0
6205,B4,656.0,71/500,49,100.0
6206,B4,656.167,71/500,52,100.0
6207,F4,656.167,71/500,52,100.0
6208,D2,656.25,0.25,62,100.0
6209,D3,656.25,0.25,62,100.0
6210,B3,656.333,71/500,49,100.0
6211,D4,656.333,71/500,49,100.0
6212,B-3,656.5,71/500,49,100.0
6213,C#4,656.5,71/500,49,100.0
6214,E2,656.5,0.5,68,100.0
6215,B-1,656.5,0.5,68,100.0
6216,B-2,656.5,0.5,68,100.0
6217,C#2,656.5,0.5,68,100.0
6218,E4,656.667,71/500,49,100.0
6219,B-4,656.667,71/500,49,100.0
6220,B-4,656.833,71/500,49,100.0
6221,C#5,656.833,71/500,49,100.0
6222,B-5,657.0,71/500,52,100.0
6223,E5,657.0,71/500,52,100.0
6224,B-5,657.167,71/500,49,100.0
6225,C#6,657.167,71/500,49,100.0
6226,B-2,657.25,0.25,62,100.0
6227,B-1,657.25,0.25,62,100.0
6228,B-6,657.333,71/500,56,100.0
6229,E6,657.333,71/500,56,100.0
6230,B-3,657.5,71/500,49,100.0
6231,G3,657.5,71/500,49,100.0
6232,G1,657.5,0.5,68,100.0
6233,G2,657.5,0.5,68,100.0
6234,E2,657.5,0.5,68,100.0
6235,C#2,657.5,0.5,68,100.0
6236,G4,657.667,71/500,49,100.0
6237,C#4,657.667,71/500,49,100.0
6238,G4,657.833,71/500,49,100.0
6239,B-4,657.833,71/500,49,100.0
6240,G5,658.0,71/500,52,100.0
6241,C#5,658.0,71/500,52,100.0
6242,B-5,658.167,71/500,49,100.0
6243,G5,658.167,71/500,49,100.0
6244,G2,658.25,0.25,62,100.0
6245,G1,658.25,0.25,62,100.0
6246,G6,658.333,71/500,56,100.0
6247,C#6,658.333,71/500,56,100.0
6248,D4,658.5,0.25,70,100.0
6249,A3,658.5,0.25,60,100.0
6250,F3,658.5,0.25,60,100.0
6251,D2,658.5,0.25,60,100.0
6252,A2,658.5,0.25,60,100.0
6253,D3,658.5,0.25,60,100.0
6254,C#6,659.0,167/1000,60,100.0
6255,B-6,659.0,0.5,70,100.0
6256,E5,659.0,167/1000,60,100.0
6257,G4,659.0,0.5,59,100.0
6258,C6,659.167,167/1000,60,100.0
6259,E-5,659.167,167/1000,60,100.0
6260,B5,659.333,167/1000,60,100.0
6261,D5,659.333,167/1000,60,100.0
6262,B-5,659.5,167/1000,60,100.0
6263,G6,659.5,0.5,76,100.0
6264,C#5,659.5,167/1000,60,100.0
6265,E4,659.5,0.5,63,100.0
6266,A5,659.667,167/1000,60,100.0
6267,C5,659.667,167/1000,60,100.0
6268,G#5,659.833,167/1000,60,100.0
6269,B4,659.833,167/1000,60,100.0
6270,E6,660.0,0.5,70,100.0
6271,G5,660.0,167/1000,60,100.0
6272,B-4,660.0,167/1000,60,100.0
6273,C#4,660.0,0.5,58,100.0
6274,F#5,660.167,167/1000,60,100.0
6275,A4,660.167,167/1000,60,100.0
6276,F5,660.333,167/1000,60,100.0
6277,G#4,660.333,167/1000,60,100.0
6278,C#6,660.5,0.25,70,100.0
6279,E5,660.5,0.25,70,100.0
6280,G4,660.5,0.25,58,100.0
6281,B-3,660.5,0.25,58,100.0
6282,B-4,661.0,0.25,64,100.0
6283,B-5,661.0,0.25,64,100.0
6284,G3,661.0,0.25,58,100.0
6285,G2,661.0,0.25,58,100.0
6286,C#5,661.25,0.25,57,100.0
6287,E5,661.25,0.25,57,100.0
6288,E3,661.25,0.25,52,100.0
6289,C#3,661.25,0.25,52,100.0
6290,A4,661.5,0.25,64,100.0
6291,A5,661.5,0.25,64,100.0
6292,A3,661.5,0.25,58,100.0
6293,A2,661.5,0.25,58,100.0
6294,E5,661.75,0.25,57,100.0
6295,C#5,661.75,0.25,57,100.0
6296,C#3,661.75,0.25,54,100.0
6297,E3,661.75,0.25,54,100.0
6298,G4,662.0,0.25,64,100.0
6299,G5,662.0,0.25,64,100.0
6300,B-2,662.0,0.25,58,100.0
6301,B-3,662.0,0.25,58,100.0
6302,B-4,662.25,0.25,58,100.0
6303,C#5,662.25,0.25,58,100.0
6304,E3,662.25,0.25,52,100.0
6305,G3,662.25,0.25,52,100.0
6306,D5,662.5,0.25,64,100.0
6307,D6,662.5,0.25,64,100.0
6308,F#5,662.5,0.25,64,100.0
6309,A3,662.5,0.25,64,100.0
6310,F#3,662.5,0.25,64,100.0
6311,D4,662.5,0.25,64,100.0
6312,D3,662.5,0.25,64,100.0
6313,B-5,663.0,0.5,63,100.0
6314,C#5,663.0,167/1000,54,100.0
6315,E4,663.0,167/1000,54,100.0
6316,G3,663.0,0.5,53,100.0
6317,C5,663.167,167/1000,54,100.0
6318,E-4,663.167,167/1000,54,100.0
6319,B4,663.333,167/1000,54,100.0
6320,D4,663.333,167/1000,54,100.0
6321,G5,663.5,0.5,68,100.0
6322,B-4,663.5,167/1000,54,100.0
6323,E3,663.5,0.5,56,100.0
6324,C#4,663.5,167/1000,54,100.0
6325,A4,663.667,167/1000,54,100.0
6326,C4,663.667,167/1000,54,100.0
6327,G#4,663.833,167/1000,54,100.0
6328,B3,663.833,167/1000,54,100.0
6329,E5,664.0,0.5,63,100.0
6330,G4,664.0,167/1000,54,100.0
6331,C#3,664.0,0.5,52,100.0
6332,B-3,664.0,167/1000,54,100.0
6333,F#4,664.167,167/1000,54,100.0
6334,A3,664.167,167/1000,54,100.0
6335,F4,664.333,167/1000,54,100.0
6336,G#3,664.333,167/1000,54,100.0
6337,E4,664.5,0.25,62,100.0
6338,C#5,664.5,0.25,62,100.0
6339,G3,664.5,0.25,52,100.0
6340,B-2,664.5,0.25,52,100.0
6341,B-3,665.0,0.25,64,100.0
6342,B-4,665.0,0.25,64,100.0
6343,G2,665.0,0.25,56,100.0
6344,G1,665.0,0.25,56,100.0
6345,E4,665.25,0.25,55,100.0
6346,C#4,665.25,0.25,55,100.0
6347,E2,665.25,0.25,52,100.0
6348,C#2,665.25,0.25,52,100.0
6349,A4,665.5,0.25,64,100.0
6350,A3,665.5,0.25,64,100.0
6351,A1,665.5,0.25,56,100.0
6352,A2,665.5,0.25,56,100.0
6353,C#4,665.75,0.25,55,100.0
6354,E4,665.75,0.25,55,100.0
6355,C#2,665.75,0.25,52,100.0
6356,E2,665.75,0.25,52,100.0
6357,G4,666.0,0.25,64,100.0
6358,G3,666.0,0.25,64,100.0
6359,B-2,666.0,0.25,56,100.0
6360,B-1,666.0,0.25,56,100.0
6361,B-3,666.25,0.25,56,100.0
6362,C#4,666.25,0.25,56,100.0
6363,E2,666.25,0.25,52,100.0
6364,G2,666.25,0.25,52,100.0
6365,D4,666.5,0.25,63,100.0
6366,F#4,666.5,0.25,63,100.0
6367,D5,666.5,0.25,63,100.0
6368,D2,666.5,0.25,62,100.0
6369,D3,666.5,0.25,62,100.0
6370,F#2,666.5,0.25,62,100.0
6371,A2,666.5,0.25,62,100.0
6372,E4,667.0,0.188,61,100.0
6373,B-4,667.0,0.188,61,100.0
6374,C#5,667.0,0.188,61,100.0
6375,E5,667.0,0.188,61,100.0
6376,C#3,667.0,0.188,48,100.0
6377,G3,667.0,0.188,48,100.0
6378,B-2,667.0,0.188,48,100.0
6379,G2,667.0,0.188,48,100.0
6380,C#5,667.25,0.188,61,100.0
6381,E4,667.25,0.188,61,100.0
6382,B-4,667.25,0.188,61,100.0
6383,E5,667.25,0.188,61,100.0
6384,B-2,667.25,0.188,48,100.0
6385,G2,667.25,0.188,48,100.0
6386,C#3,667.25,0.188,48,100.0
6387,G3,667.25,0.188,48,100.0
6388,D5,667.5,0.25,68,100.0
6389,F#5,667.5,0.25,68,100.0
6390,F#4,667.5,0.25,68,100.0
6391,A4,667.5,0.25,68,100.0
6392,D3,667.5,0.25,56,100.0
6393,D4,667.5,0.25,56,100.0
6394,F#3,667.5,0.25,56,100.0
6395,A3,667.5,0.25,56,100.0
6396,B-5,668.0,0.188,64,100.0
6397,E5,668.0,0.188,64,100.0
6398,C#5,668.0,0.188,64,100.0
6399,B-4,668.0,0.188,64,100.0
6400,C#3,668.0,0.188,51,100.0
6401,G3,668.0,0.188,51,100.0
6402,B-2,668.0,0.188,51,100.0
6403,G2,668.0,0.188,51,100.0
6404,B-4,668.25,0.188,64,100.0
6405,B-5,668.25,0.188,64,100.0
6406,E5,668.25,0.188,64,100.0
6407,C#5,668.25,0.188,64,100.0
6408,B-2,668.25,0.188,51,100.0
6409,G2,668.25,0.188,51,100.0
6410,C#3,668.25,0.188,51,100.0
6411,G3,668.25,0.188,51,100.0
6412,F#5,668.5,0.25,66,100.0
6413,D5,668.5,0.25,66,100.0
6414,D6,668.5,0.25,66,100.0
6415,A5,668.5,0.25,66,100.0
6416,D2,668.5,0.25,60,100.0
6417,D3,668.5,0.25,60,100.0
6418,F#2,668.5,0.25,60,100.0
6419,A2,668.5,0.25,60,100.0
6420,E5,669.0,0.188,64,100.0
6421,E6,669.0,0.188,64,100.0
6422,B-5,669.0,0.188,64,100.0
6423,C#6,669.0,0.188,64,100.0
6424,G3,669.0,0.188,53,100.0
6425,G2,669.0,0.188,53,100.0
6426,C#3,669.0,0.188,53,100.0
6427,B-2,669.0,0.188,53,100.0
6428,E5,669.25,0.188,64,100.0
6429,E6,669.25,0.188,64,100.0
6430,B-5,669.25,0.188,64,100.0
6431,C#6,669.25,0.188,64,100.0
6432,G2,669.25,0.188,51,100.0
6433,G3,669.25,0.188,51,100.0
6434,B-2,669.25,0.188,51,100.0
6435,C#3,669.25,0.188,51,100.0
6436,F#5,669.5,0.25,72,100.0
6437,A5,669.5,0.25,72,100.0
6438,D6,669.5,0.25,72,100.0
6439,F#6,669.5,0.25,72,100.0
6440,D3,669.5,0.25,58,100.0
6441,F#3,669.5,0.25,58,100.0
6442,D4,669.5,0.25,58,100.0
6443,A3,669.5,0.25,58,100.0
6444,B-5,670.0,0.188,68,100.0
6445,C#6,670.0,0.188,68,100.0
6446,E6,670.0,0.188,68,100.0
6447,B-6,670.0,0.188,68,100.0
6448,B-2,670.0,0.188,52,100.0
6449,C#3,670.0,0.188,52,100.0
6450,G3,670.0,0.188,52,100.0
6451,G2,670.0,0.188,52,100.0
6452,B-5,670.25,0.188,68,100.0
6453,C#6,670.25,0.188,68,100.0
6454,E6,670.25,0.188,68,100.0
6455,B-6,670.25,0.188,68,100.0
6456,C#3,670.25,0.188,52,100.0
6457,G3,670.25,0.188,52,100.0
6458,B-2,670.25,0.188,52,100.0
6459,G2,670.25,0.188,52,100.0
6460,D7,670.5,0.25,78,100.0
6461,F#6,670.5,0.25,78,100.0
6462,D6,670.5,0.25,78,100.0
6463,D2,670.5,0.25,60,100.0
6464,D3,670.5,0.25,60,100.0
6465,F#2,670.5,0.25,60,100.0
6466,A2,670.5,0.25,60,100.0
6467,E6,671.0,0.188,69,100.0
6468,B-6,671.0,0.188,69,100.0
6469,C#6,671.0,0.188,69,100.0
6470,B-5,671.0,0.188,69,100.0
6471,E2,671.0,0.188,56,100.0
6472,G1,671.0,0.188,56,100.0
6473,C#2,671.0,0.188,56,100.0
6474,G2,671.0,0.188,56,100.0
6475,C#6,671.25,0.188,69,100.0
6476,B-5,671.25,0.188,69,100.0
6477,E6,671.25,0.188,69,100.0
6478,B-6,671.25,0.188,69,100.0
6479,E2,671.25,0.188,56,100.0
6480,G2,671.25,0.188,56,100.0
6481,C#2,671.25,0.188,56,100.0
6482,G1,671.25,0.188,56,100.0
6483,D6,671.5,0.25,81,100.0
6484,D7,671.5,0.25,81,100.0
6485,F#6,671.5,0.25,81,100.0
6486,D2,671.5,0.25,62,100.0
6487,F#2,671.5,0.25,62,100.0
6488,A2,671.5,0.25,62,100.0
6489,D3,671.5,0.25,62,100.0
6490,C#6,672.0,0.188,75,100.0
6491,E6,672.0,0.188,75,100.0
6492,B-6,672.0,0.188,75,100.0
6493,B-5,672.0,0.188,75,100.0
6494,G1,672.0,0.188,54,100.0
6495,C#2,672.0,0.188,54,100.0
6496,E2,672.0,0.188,54,100.0
6497,G2,672.0,0.188,54,100.0
6498,C#6,672.25,0.188,75,100.0
6499,B-5,672.25,0.188,75,100.0
6500,E6,672.25,0.188,75,100.0
6501,B-6,672.25,0.188,75,100.0
6502,G1,672.25,0.188,54,100.0
6503,G2,672.25,0.188,54,100.0
6504,E2,672.25,0.188,54,100.0
6505,C#2,672.25,0.188,54,100.0
6506,D6,672.5,0.5,84,100.0
6507,D7,672.5,0.5,84,100.0
6508,F#6,672.5,0.5,84,100.0
6509,A2,672.5,0.5,65,100.0
6510,D2,672.5,0.5,65,100.0
6511,D3,672.5,0.5,65,100.0
6512,F#2,672.5,0.5,65,100.0
6513,B-6,673.0,0.5,76,100.0
6514,B-5,673.0,0.5,76,100.0
6515,E6,673.0,0.5,76,100.0
6516,C#6,673.0,0.5,76,100.0
6517,E2,673.0,0.5,56,100.0
6518,C#2,673.0,0.5,56,100.0
6519,G2,673.0,0.5,56,100.0
6520,G1,673.0,0.5,56,100.0
6521,B-6,674.0,0.5,76,100.0
6522,B-5,674.0,0.5,76,100.0
6523,E6,674.0,0.5,76,100.0
6524,C#6,674.0,0.5,76,100.0
6525,G1,674.0,0.5,56,100.0
6526,E2,674.0,0.5,56,100.0
6527,C#2,674.0,0.5,56,100.0
6528,G2,674.0,0.5,56,100.0
6529,B-5,675.0,0.5,73,100.0
6530,B-6,675.0,0.5,73,100.0
6531,C#6,675.0,0.5,73,100.0
6532,E6,675.0,0.5,73,100.0
6533,G1,675.0,0.5,56,100.0
6534,G2,675.0,0.5,56,100.0
6535,C#2,675.0,0.5,56,100.0
6536,E2,675.0,0.5,56,100.0
6537,F5,675.5,0.5,76,100.0
6538,B5,675.5,0.5,76,100.0
6539,F6,675.5,0.5,76,100.0
6540,G#5,675.5,0.5,76,100.0
6541,F2,675.5,0.5,54,100.0
6542,D2,675.5,0.5,54,100.0
6543,D3,675.5,0.5,54,100.0
6544,G#2,675.5,0.5,54,100.0
6545,C5,676.0,0.5,73,100.0
6546,E-5,676.0,0.5,73,100.0
6547,F#5,676.0,0.5,73,100.0
6548,C6,676.0,0.5,73,100.0
6549,F#2,676.0,0.5,54,100.0
6550,D2,676.0,0.5,54,100.0
6551,E-3,676.0,0.5,54,100.0
6552,A2,676.0,0.5,54,100.0
6553,G4,676.5,0.5,73,100.0
6554,B-4,676.5,0.5,73,100.0
6555,G5,676.5,0.5,73,100.0
6556,C#5,676.5,0.5,73,100.0
6557,B-2,676.5,0.5,54,100.0
6558,D2,676.5,0.5,54,100.0
6559,E3,676.5,0.5,54,100.0
6560,G2,676.5,0.5,54,100.0
6561,D5,677.0,0.5,73,100.0
6562,D4,677.0,0.5,73,100.0
6563,F4,677.0,0.5,73,100.0
6564,G#4,677.0,0.5,73,100.0
6565,B2,677.0,0.5,54,100.0
6566,D2,677.0,0.5,54,100.0
6567,G#2,677.0,0.5,54,100.0
6568,F3,677.0,0.5,54,100.0
6569,C4,677.5,0.5,73,100.0
6570,A4,677.5,0.5,73,100.0
6571,E-4,677.5,0.5,73,100.0
6572,A3,677.5,0.5,73,100.0
6573,F#3,677.5,0.5,54,100.0
6574,C3,677.5,0.5,54,100.0
6575,D2,677.5,0.5,54,100.0
6576,A2,677.5,0.5,54,100.0
6577,B-4,678.0,0.5,73,100.0
6578,B-3,678.0,0.5,73,100.0
6579,C#4,678.0,0.5,73,100.0
6580,E4,678.0,0.5,73,100.0
6581,D2,678.0,0.5,54,100.0
6582,B-2,678.0,0.5,54,100.0
6583,G3,678.0,0.5,54,100.0
6584,C#3,678.0,0.5,54,100.0
6585,F4,679.5,1.5,81,100.0
6586,F3,679.5,1.0,68,100.0
6587,B3,679.5,1.0,68,100.0
6588,D2,679.5,1.0,50,100.0
6589,B2,679.5,1.0,50,100.0
6590,G#3,679.5,1.0,50,100.0
6591,C#4,681.0,0.5,72,100.0
6592,D4,681.5,0.75,72,100.0
6593,E4,682.25,0.094,72,100.0
6594,E4,682.375,0.094,72,100.0
6595,G4,682.5,1.5,81,100.0
6596,F4,684.0,0.5,77,100.0
6597,E4,684.5,667/1000,79,100.0
6598,D4,685.167,667/1000,75,100.0
6599,C#4,685.833,667/1000,75,100.0
6600,C4,686.5,667/1000,80,100.0
6601,B3,687.167,667/1000,76,100.0
6602,F3,687.833,667/1000,61,100.0
6603,G#3,687.833,667/1000,61,100.0
6604,B-3,687.833,667/1000,61,100.0
6605,D2,687.833,667/1000,45,100.0
6606,B-2,687.833,667/1000,45,100.0
6607,B-3,688.5,2.0,64,100.0
6608,F#3,688.5,2.0,64,100.0
6609,E-2,688.5,2.0,59,100.0
6610,B-2,688.5,2.0,59,100.0
6611,B-2,690.5,1.75,64,100.0
6612,C#2,690.5,2.0,54,100.0
6613,F3,690.5,2.0,64,100.0
6614,B-3,690.5,2.0,64,100.0
6615,B-2,692.25,0.25,67,100.0
6616,B-3,692.5,2.0,62,100.0
6617,E-4,692.5,2.0,62,100.0
6618,E-3,692.5,2.0,62,100.0
6619,B1,692.5,2.0,64,100.0
6620,B-2,692.5,2.0,64,100.0
6621,E-4,694.5,1.75,67,100.0
6622,E-3,694.5,1.75,67,100.0
6623,G#3,694.5,1.75,67,100.0
6624,G#2,694.5,1.75,60,100.0
6625,B1,694.5,1.75,60,100.0
6626,F3,696.25,0.188,65,100.0
6627,D4,696.25,0.188,65,100.0
6628,F4,696.25,0.188,65,100.0
6629,G#3,696.25,0.188,65,100.0
6630,G#2,696.25,0.188,54,100.0
6631,B1,696.25,0.188,54,100.0
6632,G#3,696.5,0.5,71,100.0
6633,F3,696.5,0.5,71,100.0
6634,D4,696.5,0.5,71,100.0
6635,F4,696.5,0.5,71,100.0
6636,B1,696.5,0.5,62,100.0
6637,G#2,696.5,0.5,62,100.0
6638,F3,698.0,0.5,48,100.0
6639,D4,698.5,1.5,54,100.0
6640,F3,700.0,0.5,51,100.0
6641,C#4,702.5,0.5,54,100.0
6642,F4,702.5,0.5,54,100.0
6643,F3,702.5,0.5,44,100.0
6644,B-1,702.5,0.5,44,100.0
6645,G#2,702.5,0.5,44,100.0
6646,G#3,702.5,0.5,44,100.0
6647,F4,704.25,0.188,49,100.0
6648,D4,704.25,0.188,49,100.0
6649,F3,704.25,0.188,39,100.0
6650,G#2,704.25,0.188,39,100.0
6651,G#3,704.25,0.188,39,100.0
6652,B1,704.25,0.188,39,100.0
6653,F4,704.5,0.25,54,100.0
6654,D4,704.5,0.25,54,100.0
6655,G#3,704.5,0.25,44,100.0
6656,B1,704.5,0.25,44,100.0
6657,G#2,704.5,0.25,44,100.0
6658,F3,704.5,0.25,44,100.0
6659,F3,706.0,0.5,48,100.0
6660,D4,706.5,1.5,54,100.0
6661,F3,708.0,0.5,51,100.0
6662,C#4,710.5,0.5,54,100.0
6663,F4,710.5,0.5,54,100.0
6664,B-1,710.5,0.5,44,100.0
6665,G#3,710.5,0.5,44,100.0
6666,F3,710.5,0.5,44,100.0
6667,G#2,710.5,0.5,44,100.0
6668,D4,712.25,0.188,49,100.0
6669,F4,712.25,0.188,49,100.0
6670,B1,712.25,0.188,39,100.0
6671,G#2,712.25,0.188,39,100.0
6672,G#3,712.25,0.188,39,100.0
6673,F3,712.25,0.188,39,100.0
6674,F4,712.5,0.25,54,100.0
6675,D4,712.5,0.25,54,100.0
6676,F3,712.5,0.25,44,100.0
6677,G#2,712.5,0.25,44,100.0
6678,G#3,712.5,0.25,44,100.0
6679,B1,712.5,0.25,44,100.0
6680,D4,714.0,0.5,48,100.0
6681,B4,714.5,1.5,54,100.0
6682,D4,716.0,0.5,51,100.0
6683,G#3,718.0,0.5,43,100.0
6684,F4,718.5,1.5,51,100.0
6685,G#3,720.0,0.5,46,100.0
6686,D3,722.0,0.5,38,100.0
6687,B3,722.5,1.5,44,100.0
6688,G#2,724.0,0.5,37,100.0
6689,F3,724.5,4.0,37,100.0
6690,F4,730.75,11/40,55,100.0
6691,F2,730.75,11/40,42,100.0
6692,F3,730.75,11/40,42,100.0
6693,E4,731.0,11/40,57,100.0
6694,E3,731.0,11/40,45,100.0
6695,E2,731.0,11/40,45,100.0
6696,D4,731.25,11/40,59,100.0
6697,D2,731.25,11/40,47,100.0
6698,D3,731.25,11/40,47,100.0
6699,C#4,731.5,11/40,61,100.0
6700,C#2,731.5,11/40,50,100.0
6701,C#3,731.5,11/40,50,100.0
6702,C4,731.75,11/40,63,100.0
6703,C3,731.75,11/40,52,100.0
6704,C2,731.75,11/40,52,100.0
6705,B3,732.0,11/40,65,100.0
6706,B1,732.0,11/40,54,100.0
6707,B2,732.0,11/40,54,100.0
6708,B-3,732.25,0.25,67,100.0
6709,B-1,732.25,0.25,56,100.0
6710,B-2,732.25,0.25,56,100.0
6711,A3,732.5,1.5,76,100.0
6712,B-3,732.5,1/40,67,100.0
6713,A1,732.5,3.0,61,100.0
6714,A2,732.5,3.0,61,100.0
6715,B-1,732.5,1/40,56,100.0
6716,B-2,732.5,1/40,56,100.0
6717,A4,734.25,0.094,56,100.0
6718,D5,734.25,0.094,56,100.0
6719,F#5,734.25,0.094,56,100.0
6720,A5,734.25,0.094,56,100.0
6721,F#4,734.25,0.094,50,100.0
6722,D4,734.25,0.094,50,100.0
6723,A3,734.25,0.094,50,100.0
6724,A4,734.375,0.094,56,100.0
6725,D5,734.375,0.094,56,100.0
6726,F#5,734.375,0.094,56,100.0
6727,A5,734.375,0.094,56,100.0
6728,F#4,734.375,0.094,50,100.0
6729,D4,734.375,0.094,50,100.0
6730,A3,734.375,0.094,50,100.0
6731,A4,734.5,1.5,64,100.0
6732,D5,734.5,1.5,64,100.0
6733,F#5,734.5,1.5,64,100.0
6734,A5,734.5,1.5,64,100.0
6735,F#4,734.5,1.5,56,100.0
6736,D4,734.5,1.5,56,100.0
6737,A3,734.5,1.5,56,100.0
6738,A3,736.25,0.25,74,100.0
6739,A1,736.25,0.25,59,100.0
6740,A2,736.25,0.25,59,100.0
6741,B3,736.5,1.5,78,100.0
6742,B1,736.5,3.0,59,100.0
6743,B2,736.5,3.0,59,100.0
6744,D6,738.25,0.094,56,100.0
6745,B5,738.25,0.094,56,100.0
6746,F#5,738.25,0.094,56,100.0
6747,D5,738.25,0.094,56,100.0
6748,F#4,738.25,0.094,47,100.0
6749,D4,738.25,0.094,47,100.0
6750,B3,738.25,0.094,47,100.0
6751,F#3,738.25,0.094,47,100.0
6752,D6,738.375,0.094,56,100.0
6753,B5,738.375,0.094,56,100.0
6754,F#5,738.375,0.094,56,100.0
6755,D5,738.375,0.094,56,100.0
6756,F#4,738.375,0.094,47,100.0
6757,D4,738.375,0.094,47,100.0
6758,B3,738.375,0.094,47,100.0
6759,F#3,738.375,0.094,47,100.0
6760,D6,738.5,1.5,61,100.0
6761,B5,738.5,1.5,61,100.0
6762,F#5,738.5,1.5,61,100.0
6763,D5,738.5,1.5,61,100.0
6764,F#4,738.5,1.5,54,100.0
6765,D4,738.5,1.5,54,100.0
6766,B3,738.5,1.5,54,100.0
6767,F#3,738.5,1.5,54,100.0
6768,B3,740.25,0.25,75,100.0
6769,B1,740.25,0.25,62,100.0
6770,B2,740.25,0.25,62,100.0
6771,F#3,740.5,1.5,73,100.0
6772,F#4,740.5,1.5,73,100.0
6773,F#1,740.5,2.0,56,100.0
6774,F#2,740.5,2.0,56,100.0
6775,F#6,741.25,0.094,56,100.0
6776,C#6,741.25,0.094,56,100.0
6777,B-5,741.25,0.094,56,100.0
6778,F#5,741.25,0.094,56,100.0
6779,F#4,741.25,0.094,49,100.0
6780,C#4,741.25,0.094,49,100.0
6781,B-3,741.25,0.094,49,100.0
6782,F#3,741.25,0.094,49,100.0
6783,F#6,741.375,0.094,56,100.0
6784,C#6,741.375,0.094,56,100.0
6785,B-5,741.375,0.094,56,100.0
6786,F#5,741.375,0.094,56,100.0
6787,F#4,741.375,0.094,50,100.0
6788,C#4,741.375,0.094,50,100.0
6789,B-3,741.375,0.094,50,100.0
6790,F#3,741.375,0.094,50,100.0
6791,F#6,741.5,0.5,60,100.0
6792,C#6,741.5,0.5,60,100.0
6793,B-5,741.5,0.5,60,100.0
6794,F#5,741.5,0.5,60,100.0
6795,F#4,741.5,0.5,56,100.0
6796,C#4,741.5,0.5,56,100.0
6797,B-3,741.5,0.5,56,100.0
6798,F#3,741.5,0.5,56,100.0
6799,A3,742.5,1.5,71,100.0
6800,A4,742.5,1.5,71,100.0
6801,A1,742.5,1.5,60,100.0
6802,A2,742.5,1.5,60,100.0
6803,A6,743.25,0.094,56,100.0
6804,E6,743.25,0.094,56,100.0
6805,C#6,743.25,0.094,56,100.0
6806,A5,743.25,0.094,56,100.0
6807,A4,743.25,0.094,52,100.0
6808,E4,743.25,0.094,52,100.0
6809,C#4,743.25,0.094,52,100.0
6810,A3,743.25,0.094,52,100.0
6811,A6,743.375,0.094,56,100.0
6812,E6,743.375,0.094,56,100.0
6813,C#6,743.375,0.094,56,100.0
6814,A5,743.375,0.094,56,100.0
6815,A4,743.375,0.094,52,100.0
6816,E4,743.375,0.094,52,100.0
6817,C#4,743.375,0.094,52,100.0
6818,A3,743.375,0.094,52,100.0
6819,A6,743.5,0.5,61,100.0
6820,E6,743.5,0.5,61,100.0
6821,C#6,743.5,0.5,61,100.0
6822,A5,743.5,0.5,61,100.0
6823,A4,743.5,0.5,58,100.0
6824,E4,743.5,0.5,58,100.0
6825,C#4,743.5,0.5,58,100.0
6826,A3,743.5,0.5,58,100.0
6827,A3,744.25,0.188,71,100.0
6828,D4,744.25,0.188,71,100.0
6829,F#4,744.25,0.188,71,100.0
6830,A4,744.25,0.188,71,100.0
6831,D1,744.25,0.188,59,100.0
6832,A1,744.25,0.188,59,100.0
6833,D2,744.25,0.188,59,100.0
6834,A3,744.5,1.5,63,100.0
6835,D4,744.5,1.5,63,100.0
6836,F#4,744.5,1.5,63,100.0
6837,A4,744.5,1.5,63,100.0
6838,D1,744.5,4.0,58,100.0
6839,A1,744.5,4.0,58,100.0
6840,D2,744.5,4.0,58,100.0
6841,A5,746.25,0.188,59,100.0
6842,D6,746.25,0.188,59,100.0
6843,F#6,746.25,0.188,59,100.0
6844,A6,746.25,0.188,59,100.0
6845,A3,746.25,0.188,59,100.0
6846,D4,746.25,0.188,59,100.0
6847,F#4,746.25,0.188,59,100.0
6848,A4,746.25,0.188,59,100.0
6849,A5,746.5,0.5,69,100.0
6850,D6,746.5,0.5,69,100.0
6851,F#6,746.5,0.5,69,100.0
6852,A6,746.5,0.5,69,100.0
6853,A3,746.5,0.5,69,100.0
6854,D4,746.5,0.5,69,100.0
6855,F#4,746.5,0.5,69,100.0
6856,A4,746.5,0.5,69,100.0
6857,D7,747.25,0.188,62,100.0
6858,A6,747.25,0.188,62,100.0
6859,F#6,747.25,0.188,62,100.0
6860,D6,747.25,0.188,62,100.0
6861,D5,747.25,0.188,62,100.0
6862,A4,747.25,0.188,62,100.0
6863,F#4,747.25,0.188,62,100.0
6864,D4,747.25,0.188,62,100.0
6865,D7,747.5,0.5,70,100.0
6866,A6,747.5,0.5,70,100.0
6867,F#6,747.5,0.5,70,100.0
6868,D6,747.5,0.5,70,100.0
6869,D5,747.5,0.5,70,100.0
6870,A4,747.5,0.5,70,100.0
6871,F#4,747.5,0.5,70,100.0
6872,D4,747.5,0.5,70,100.0
6873,F#6,748.25,0.188,64,100.0
6874,D6,748.25,0.188,64,100.0
6875,F#5,748.25,0.188,64,100.0
6876,F#4,748.25,0.188,64,100.0
6877,D4,748.25,0.188,64,100.0
6878,F#3,748.25,0.188,64,100.0
6879,F#6,748.5,0.5,72,100.0
6880,D6,748.5,0.5,72,100.0
6881,F#5,748.5,0.5,72,100.0
6882,F#4,748.5,0.5,72,100.0
6883,D4,748.5,0.5,72,100.0
6884,F#3,748.5,0.5,72,100.0
6885,A6,749.25,0.188,62,100.0
6886,F#6,749.25,0.188,62,100.0
6887,D6,749.25,0.188,62,100.0
6888,A5,749.25,0.188,62,100.0
6889,A4,749.25,0.188,62,100.0
6890,F#4,749.25,0.188,62,100.0
6891,D4,749.25,0.188,62,100.0
6892,A3,749.25,0.188,62,100.0
6893,A6,749.5,0.5,71,100.0
6894,F#6,749.5,0.5,71,100.0
6895,D6,749.5,0.5,71,100.0
6896,A5,749.5,0.5,71,100.0
6897,A4,749.5,0.5,71,100.0
6898,F#4,749.5,0.5,71,100.0
6899,D4,749.5,0.5,71,100.0
6900,A3,749.5,0.5,71,100.0
6901,D6,750.25,0.188,64,100.0
6902,A5,750.25,0.188,64,100.0
6903,F#5,750.25,0.188,64,100.0
6904,D5,750.25,0.188,64,100.0
6905,D4,750.25,0.188,64,100.0
6906,A3,750.25,0.188,64,100.0
6907,F#3,750.25,0.188,64,100.0
6908,D3,750.25,0.188,64,100.0
6909,D6,750.5,0.5,70,100.0
6910,A5,750.5,0.5,70,100.0
6911,F#5,750.5,0.5,70,100.0
6912,D5,750.5,0.5,70,100.0
6913,D4,750.5,0.5,70,100.0
6914,A3,750.5,0.5,70,100.0
6915,F#3,750.5,0.5,70,100.0
6916,D3,750.5,0.5,70,100.0
6917,F#6,751.25,0.188,66,100.0
6918,D6,751.25,0.188,66,100.0
6919,F#5,751.25,0.188,66,100.0
6920,F#4,751.25,0.188,62,100.0
6921,D4,751.25,0.188,62,100.0
6922,F#3,751.25,0.188,62,100.0
6923,F#5,751.5,0.5,72,100.0
6924,D6,751.5,0.5,72,100.0
6925,F#6,751.5,0.5,72,100.0
6926,F#3,751.5,0.5,68,100.0
6927,D4,751.5,0.5,68,100.0
6928,F#4,751.5,0.5,68,100.0
6929,A4,752.25,0.188,59,100.0
6930,D5,752.25,0.188,59,100.0
6931,F#5,752.25,0.188,59,100.0
6932,A5,752.25,0.188,59,100.0
6933,A2,752.25,0.188,59,100.0
6934,D3,752.25,0.188,59,100.0
6935,F#3,752.25,0.188,59,100.0
6936,A3,752.25,0.188,59,100.0
6937,A4,752.5,0.5,69,100.0
6938,D5,752.5,0.5,69,100.0
6939,F#5,752.5,0.5,69,100.0
6940,A5,752.5,0.5,69,100.0
6941,A2,752.5,0.5,69,100.0
6942,D3,752.5,0.5,69,100.0
6943,F#3,752.5,0.5,69,100.0
6944,A3,752.5,0.5,69,100.0
6945,D6,753.25,0.188,62,100.0
6946,A5,753.25,0.188,62,100.0
6947,F#5,753.25,0.188,62,100.0
6948,D5,753.25,0.188,62,100.0
6949,D4,753.25,0.188,62,100.0
6950,A3,753.25,0.188,62,100.0
6951,F#3,753.25,0.188,62,100.0
6952,D3,753.25,0.188,62,100.0
6953,D6,753.5,0.5,70,100.0
6954,A5,753.5,0.5,70,100.0
6955,F#5,753.5,0.5,70,100.0
6956,D5,753.5,0.5,70,100.0
6957,D4,753.5,0.5,70,100.0
6958,A3,753.5,0.5,70,100.0
6959,F#3,753.5,0.5,70,100.0
6960,D3,753.5,0.5,70,100.0
6961,F#5,754.25,0.188,64,100.0
6962,D5,754.25,0.188,64,100.0
6963,F#4,754.25,0.188,64,100.0
6964,F#3,754.25,0.188,64,100.0
6965,D3,754.25,0.188,64,100.0
6966,F#2,754.25,0.188,64,100.0
6967,F#5,754.5,0.5,72,100.0
6968,D5,754.5,0.5,72,100.0
6969,F#4,754.5,0.5,72,100.0
6970,F#3,754.5,0.5,72,100.0
6971,D3,754.5,0.5,72,100.0
6972,F#2,754.5,0.5,72,100.0
6973,A5,755.25,0.188,62,100.0
6974,F#5,755.25,0.188,62,100.0
6975,D5,755.25,0.188,62,100.0
6976,A4,755.25,0.188,62,100.0
6977,A3,755.25,0.188,62,100.0
6978,F#3,755.25,0.188,62,100.0
6979,D3,755.25,0.188,62,100.0
6980,A2,755.25,0.188,62,100.0
6981,A5,755.5,0.5,71,100.0
6982,F#5,755.5,0.5,71,100.0
6983,D5,755.5,0.5,71,100.0
6984,A4,755.5,0.5,71,100.0
6985,A3,755.5,0.5,71,100.0
6986,F#3,755.5,0.5,71,100.0
6987,D3,755.5,0.5,71,100.0
6988,A2,755.5,0.5,71,100.0
6989,D5,756.25,0.188,64,100.0
6990,A4,756.25,0.188,64,100.0
6991,F#4,756.25,0.188,64,100.0
6992,D4,756.25,0.188,64,100.0
6993,D3,756.25,0.188,64,100.0
6994,A2,756.25,0.188,64,100.0
6995,F#2,756.25,0.188,64,100.0
6996,D2,756.25,0.188,64,100.0
6997,D5,756.5,0.5,70,100.0
6998,A4,756.5,0.5,70,100.0
6999,F#4,756.5,0.5,70,100.0
7000,D4,756.5,0.5,70,100.0
7001,D3,756.5,0.5,70,100.0
7002,A2,756.5,0.5,70,100.0
7003,F#2,756.5,0.5,70,100.0
7004,D2,756.5,0.5,70,100.0
7005,F#5,757.25,0.188,66,100.0
7006,D5,757.25,0.188,66,100.0
7007,F#4,757.25,0.188,66,100.0
7008,F#3,757.25,0.188,66,100.0
7009,D3,757.25,0.188,66,100.0
7010,F#2,757.25,0.188,66,100.0
7011,F#4,757.5,0.5,72,100.0
7012,D5,757.5,0.5,72,100.0
7013,F#5,757.5,0.5,72,100.0
7014,F#2,757.5,0.5,72,100.0
7015,D3,757.5,0.5,72,100.0
7016,F#3,757.5,0.5,72,100.0
7017,A3,758.25,0.188,59,100.0
7018,D4,758.25,0.188,59,100.0
7019,F#4,758.25,0.188,59,100.0
7020,A4,758.25,0.188,59,100.0
7021,A1,758.25,0.188,59,100.0
7022,D2,758.25,0.188,59,100.0
7023,F#2,758.25,0.188,59,100.0
7024,A2,758.25,0.188,59,100.0
7025,A3,758.5,0.5,69,100.0
7026,D4,758.5,0.5,69,100.0
7027,F#4,758.5,0.5,69,100.0
7028,A4,758.5,0.5,69,100.0
7029,A1,758.5,0.5,69,100.0
7030,D2,758.5,0.5,69,100.0
7031,F#2,758.5,0.5,69,100.0
7032,A2,758.5,0.5,69,100.0
7033,D5,759.25,0.188,62,100.0
7034,A4,759.25,0.188,62,100.0
7035,F#4,759.25,0.188,62,100.0
7036,D4,759.25,0.188,62,100.0
7037,D3,759.25,0.188,62,100.0
7038,A2,759.25,0.188,62,100.0
7039,F#2,759.25,0.188,62,100.0
7040,D2,759.25,0.188,62,100.0
7041,D5,759.5,0.5,70,100.0
7042,A4,759.5,0.5,70,100.0
7043,F#4,759.5,0.5,70,100.0
7044,D4,759.5,0.5,70,100.0
7045,D3,759.5,0.5,70,100.0
7046,A2,759.5,0.5,70,100.0
7047,F#2,759.5,0.5,70,100.0
7048,D2,759.5,0.5,70,100.0
7049,F#4,760.25,0.188,64,100.0
7050,D4,760.25,0.188,64,100.0
7051,F#3,760.25,0.188,64,100.0
7052,F#2,760.25,0.188,64,100.0
7053,D2,760.25,0.188,64,100.0
7054,F#1,760.25,0.188,64,100.0
7055,F#4,760.5,0.5,72,100.0
7056,D4,760.5,0.5,72,100.0
7057,F#3,760.5,0.5,72,100.0
7058,F#2,760.5,0.5,72,100.0
7059,D2,760.5,0.5,72,100.0
7060,F#1,760.5,0.5,72,100.0
7061,A4,761.25,0.188,62,100.0
7062,F#4,761.25,0.188,62,100.0
7063,D4,761.25,0.188,62,100.0
7064,A3,761.25,0.188,62,100.0
7065,A2,761.25,0.188,62,100.0
7066,F#2,761.25,0.188,62,100.0
7067,D2,761.25,0.188,62,100.0
7068,A1,761.25,0.188,62,100.0
7069,A4,761.5,0.5,71,100.0
7070,F#4,761.5,0.5,71,100.0
7071,D4,761.5,0.5,71,100.0
7072,A3,761.5,0.5,71,100.0
7073,A2,761.5,0.5,71,100.0
7074,F#2,761.5,0.5,71,100.0
7075,D2,761.5,0.5,71,100.0
7076,A1,761.5,0.5,71,100.0
7077,D4,762.25,0.188,62,100.0
7078,A3,762.25,0.188,62,100.0
7079,F#3,762.25,0.188,62,100.0
7080,D3,762.25,0.188,62,100.0
7081,D1,762.25,0.188,54,100.0
7082,A1,762.25,0.188,54,100.0
7083,D2,762.25,0.188,54,100.0
7084,D3,762.5,9/20,68,100.0
7085,F#3,762.5,9/20,68,100.0
7086,A3,762.5,9/20,68,100.0
7087,D4,762.5,9/20,68,100.0
7088,D1,762.5,9/20,60,100.0
7089,A1,762.5,9/20,60,100.0
7090,D2,762.5,9/20,60,100.0
7091,D4,763.0,9/20,62,100.0
7092,B-3,763.0,9/20,62,100.0
7093,G3,763.0,9/20,62,100.0
7094,D3,763.0,9/20,62,100.0
7095,D1,763.0,9/20,54,100.0
7096,B-1,763.0,9/20,54,100.0
7097,D2,763.0,9/20,54,100.0
7098,D3,763.5,9/20,68,100.0
7099,F#3,763.5,9/20,68,100.0
7100,A3,763.5,9/20,68,100.0
7101,D4,763.5,9/20,68,100.0
7102,D1,763.5,9/20,60,100.0
7103,A1,763.5,9/20,60,100.0
7104,D2,763.5,9/20,60,100.0
7105,D3,764.0,9/20,62,100.0
7106,G3,764.0,9/20,62,100.0
7107,B-3,764.0,9/20,62,100.0
7108,D4,764.0,9/20,62,100.0
7109,D1,764.0,9/20,54,100.0
7110,B-1,764.0,9/20,54,100.0
7111,D2,764.0,9/20,54,100.0
7112,D3,764.5,9/20,68,100.0
7113,F#3,764.5,9/20,68,100.0
7114,A3,764.5,9/20,68,100.0
7115,D4,764.5,9/20,68,100.0
7116,D1,764.5,9/20,60,100.0
7117,A1,764.5,9/20,60,100.0
7118,D2,764.5,9/20,60,100.0
7119,D4,765.0,9/20,62,100.0
7120,B-3,765.0,9/20,62,100.0
7121,G3,765.0,9/20,62,100.0
7122,D3,765.0,9/20,62,100.0
7123,D1,765.0,9/20,54,100.0
7124,B-1,765.0,9/20,54,100.0
7125,D2,765.0,9/20,54,100.0
7126,D3,765.5,9/20,68,100.0
7127,F#3,765.5,9/20,68,100.0
7128,A3,765.5,9/20,68,100.0
7129,D4,765.5,9/20,68,100.0
7130,D1,765.5,9/20,60,100.0
7131,A1,765.5,9/20,60,100.0
7132,D2,765.5,9/20,60,100.0
7133,D3,766.0,9/20,62,100.0
7134,G3,766.0,9/20,62,100.0
7135,B-3,766.0,9/20,62,100.0
7136,D4,766.0,9/20,62,100.0
7137,D1,766.0,9/20,54,100.0
7138,B-1,766.0,9/20,54,100.0
7139,D2,766.0,9/20,54,100.0
7140,D3,766.5,0.375,68,100.0
7141,F#3,766.5,0.375,68,100.0
7142,A3,766.5,0.375,68,100.0
7143,D4,766.5,0.375,68,100.0
7144,D1,766.5,0.375,60,100.0
7145,A1,766.5,0.375,60,100.0
7146,D2,766.5,0.375,60,100.0
7147,D4,767.0,0.375,62,100.0
7148,B-3,767.0,0.375,62,100.0
7149,G3,767.0,0.375,62,100.0
7150,D3,767.0,0.375,62,100.0
7151,D1,767.0,0.375,54,100.0
7152,B-1,767.0,0.375,54,100.0
7153,D2,767.0,0.375,54,100.0
7154,D3,767.5,0.375,68,100.0
7155,F#3,767.5,0.375,68,100.0
7156,A3,767.5,0.375,68,100.0
7157,D4,767.5,0.375,68,100.0
7158,D1,767.5,0.375,60,100.0
7159,A1,767.5,0.375,60,100.0
7160,D2,767.5,0.375,60,100.0
7161,D3,768.0,0.375,62,100.0
7162,G3,768.0,0.375,62,100.0
7163,B-3,768.0,0.375,62,100.0
7164,D4,768.0,0.375,62,100.0
7165,D1,768.0,0.375,54,100.0
7166,B-1,768.0,0.375,54,100.0
7167,D2,768.0,0.375,54,100.0
7168,D3,768.5,1.0,70,100.0
7169,F#3,768.5,1.0,70,100.0
7170,A3,768.5,1.0,70,100.0
7171,D4,768.5,1.0,70,100.0
7172,D1,768.5,1.0,56,100.0
7173,A1,768.5,1.0,56,100.0
7174,D2,768.5,1.0,56,100.0
7175,D4,769.5,1.0,76,100.0
7176,F#4,769.5,1.0,76,100.0
7177,A4,769.5,1.0,76,100.0
7178,D5,769.5,1.0,76,100.0
7179,F#2,769.5,1.0,63,100.0
7180,D2,769.5,1.0,63,100.0
7181,A2,769.5,1.0,63,100.0
7182,D3,769.5,1.0,63,100.0
7183,D5,770.5,1.0,82,100.0
7184,F#5,770.5,1.0,82,100.0
7185,A5,770.5,1.0,82,100.0
7186,D6,770.5,1.0,82,100.0
7187,F#3,770.5,1.0,65,100.0
7188,D3,770.5,1.0,65,100.0
7189,A3,770.5,1.0,65,100.0
7190,D4,770.5,1.0,65,100.0
7191,D6,771.5,1.0,86,100.0
7192,F#6,771.5,1.0,86,100.0
7193,A6,771.5,1.0,86,100.0
7194,D7,771.5,1.0,86,100.0
7195,F#4,771.5,1.0,67,100.0
7196,D4,771.5,1.0,67,100.0
7197,A4,771.5,1.0,67,100.0
7198,D5,771.5,1.0,67,100.0
7199,D4,772.5,4.0,113,100.0
7200,D1,772.5,4.0,86,100.0
7201,D2,772.5,4.0,86,100.0
7202,D3,772.5,4.0,86,100.0
