,note_name,start_time,duration,velocity,tempo
0,E-4,3.875,13/125,71,100.0
1,E-4,4.0,1927/500,74,100.0
2,E-4,7.875,13/125,57,100.0
3,G#4,7.875,13/125,59,100.0
4,F#4,7.875,13/125,59,100.0
5,C4,7.875,13/125,59,100.0
6,E-4,8.0,1927/500,59,100.0
7,C4,8.0,1927/500,63,100.0
8,F#4,8.0,1927/500,63,100.0
9,G#4,8.0,1927/500,63,100.0
10,E-4,11.875,13/125,56,100.0
11,A4,11.875,13/125,59,100.0
12,F#4,11.875,13/125,59,100.0
13,B3,11.875,13/125,59,100.0
14,E-4,12.0,0.938,58,100.0
15,A4,12.0,0.938,62,100.0
16,F#4,12.0,0.938,62,100.0
17,B3,12.0,0.938,62,100.0
18,E-4,13.0,0.938,62,100.0
19,B3,13.0,0.938,64,100.0
20,A4,13.0,0.938,64,100.0
21,F#4,13.0,0.938,64,100.0
22,F4,14.0,0.938,68,100.0
23,A4,14.0,0.938,68,100.0
24,D4,14.0,0.938,54,100.0
25,F3,14.0,0.938,54,100.0
26,E-4,15.0,667/1000,68,100.0
27,A4,15.0,667/1000,68,100.0
28,F3,15.0,667/1000,59,100.0
29,C4,15.0,667/1000,59,100.0
30,B-2,15.688,0.312,65,100.0
31,F3,15.75,0.25,58,100.0
32,B-3,15.812,0.188,58,100.0
33,D4,15.875,0.125,63,100.0
34,F4,15.938,0.062,63,100.0
35,B-4,16.0,2.0,72,100.0
36,D4,16.0,2.0,63,100.0
37,F4,16.0,2.0,63,100.0
38,B-2,16.0,2.0,65,100.0
39,F3,16.0,2.0,58,100.0
40,B-3,16.0,2.0,58,100.0
41,B-4,18.0,67/1000,38,100.0
42,D5,18.0,67/1000,38,100.0
43,D4,18.071,67/1000,36,100.0
44,F4,18.071,67/1000,36,100.0
45,B-4,18.142,67/1000,38,100.0
46,D5,18.142,67/1000,38,100.0
47,F5,18.142,67/1000,38,100.0
48,B-4,18.212,67/1000,36,100.0
49,F4,18.212,67/1000,36,100.0
50,B-5,18.283,67/1000,38,100.0
51,D5,18.283,67/1000,38,100.0
52,F5,18.283,67/1000,38,100.0
53,B-4,18.354,0.062,36,100.0
54,D5,18.354,0.062,36,100.0
55,F5,18.425,0.062,38,100.0
56,B-5,18.425,0.062,38,100.0
57,D6,18.425,0.062,38,100.0
58,D5,18.496,0.062,36,100.0
59,F5,18.496,0.062,36,100.0
60,B-5,18.567,0.062,38,100.0
61,D6,18.567,0.062,38,100.0
62,F6,18.567,0.062,38,100.0
63,F5,18.637,0.062,36,100.0
64,B-5,18.637,0.062,36,100.0
65,B-6,18.708,0.062,39,100.0
66,D6,18.708,0.062,39,100.0
67,F6,18.708,0.062,39,100.0
68,B-5,18.779,0.062,39,100.0
69,D6,18.779,0.062,39,100.0
70,D7,18.85,0.062,42,100.0
71,B-6,18.85,0.062,42,100.0
72,F6,18.85,0.062,42,100.0
73,D6,18.921,0.062,46,100.0
74,F6,18.921,0.062,46,100.0
75,B-6,19.0,1.0,46,100.0
76,D7,19.0,1.0,46,100.0
77,F7,19.0,1.0,46,100.0
78,B-6,20.0,167/1000,38,100.0
79,C#7,20.0,167/1000,38,100.0
80,E6,20.0,167/1000,38,100.0
81,G6,20.167,167/1000,35,100.0
82,E-7,20.167,167/1000,35,100.0
83,F6,20.333,73/500,36,100.0
84,D7,20.333,73/500,36,100.0
85,A6,20.5,167/1000,38,100.0
86,F6,20.5,167/1000,38,100.0
87,C#6,20.5,167/1000,38,100.0
88,E-6,20.667,167/1000,35,100.0
89,C7,20.667,167/1000,35,100.0
90,D6,20.833,73/500,35,100.0
91,B-6,20.833,73/500,35,100.0
92,E6,21.0,167/1000,38,100.0
93,C#6,21.0,167/1000,38,100.0
94,B-5,21.0,167/1000,38,100.0
95,D6,21.167,167/1000,36,100.0
96,G6,21.167,167/1000,36,100.0
97,B-5,21.333,73/500,36,100.0
98,F6,21.333,73/500,36,100.0
99,E5,21.5,167/1000,38,100.0
100,B-5,21.5,167/1000,38,100.0
101,C#6,21.5,167/1000,38,100.0
102,G5,21.667,167/1000,35,100.0
103,E-6,21.667,167/1000,35,100.0
104,F5,21.833,73/500,36,100.0
105,D6,21.833,73/500,36,100.0
106,A5,22.0,167/1000,38,100.0
107,F5,22.0,167/1000,38,100.0
108,C#5,22.0,167/1000,38,100.0
109,E-5,22.167,167/1000,35,100.0
110,C6,22.167,167/1000,35,100.0
111,D5,22.333,73/500,36,100.0
112,B-5,22.333,73/500,36,100.0
113,E5,22.5,167/1000,39,100.0
114,C#5,22.5,167/1000,39,100.0
115,B-4,22.5,167/1000,39,100.0
116,D5,22.667,167/1000,38,100.0
117,G5,22.667,167/1000,38,100.0
118,F5,22.833,73/500,39,100.0
119,B-4,22.833,73/500,39,100.0
120,E4,23.0,167/1000,41,100.0
121,C#5,23.0,167/1000,41,100.0
122,B-4,23.0,167/1000,41,100.0
123,G4,23.167,167/1000,39,100.0
124,E-5,23.167,167/1000,39,100.0
125,F4,23.333,73/500,38,100.0
126,D5,23.333,73/500,38,100.0
127,A4,23.5,167/1000,43,100.0
128,F4,23.5,167/1000,43,100.0
129,C#4,23.5,167/1000,43,100.0
130,E-4,23.667,167/1000,41,100.0
131,C5,23.667,167/1000,41,100.0
132,D4,23.833,73/500,42,100.0
133,B-4,23.833,73/500,42,100.0
134,E4,24.0,167/1000,46,100.0
135,B-3,24.0,167/1000,46,100.0
136,C#4,24.0,167/1000,46,100.0
137,D4,24.167,167/1000,43,100.0
138,G4,24.167,167/1000,43,100.0
139,B-3,24.333,73/500,43,100.0
140,F4,24.333,73/500,43,100.0
141,E3,24.5,167/1000,51,100.0
142,C#4,24.5,167/1000,51,100.0
143,B-3,24.5,167/1000,51,100.0
144,G3,24.667,167/1000,48,100.0
145,E-4,24.667,167/1000,48,100.0
146,F3,24.833,73/500,48,100.0
147,D4,24.833,73/500,48,100.0
148,A3,25.0,167/1000,54,100.0
149,F3,25.0,167/1000,54,100.0
150,C#3,25.0,167/1000,54,100.0
151,C4,25.167,167/1000,51,100.0
152,E-3,25.167,167/1000,51,100.0
153,D3,25.333,73/500,51,100.0
154,B-3,25.333,73/500,51,100.0
155,E3,25.5,167/1000,58,100.0
156,C#3,25.5,167/1000,58,100.0
157,B-2,25.5,167/1000,58,100.0
158,D3,25.667,167/1000,56,100.0
159,G3,25.667,167/1000,56,100.0
160,B-2,25.833,73/500,56,100.0
161,F3,25.833,73/500,56,100.0
162,C#3,26.0,167/1000,64,100.0
163,B-2,26.0,167/1000,64,100.0
164,E2,26.0,167/1000,64,100.0
165,G2,26.167,167/1000,59,100.0
166,E-3,26.167,167/1000,59,100.0
167,F2,26.333,73/500,59,100.0
168,D3,26.333,73/500,59,100.0
169,B-1,26.5,0.5,82,100.0
170,B-1,27.0,3/40,46,100.0
171,C2,27.075,3/40,43,100.0
172,B-1,27.15,3/40,48,100.0
173,C2,27.225,3/40,48,100.0
174,B-1,27.3,3/40,56,100.0
175,C2,27.375,3/40,52,100.0
176,B-1,27.45,3/40,61,100.0
177,C2,27.525,3/40,58,100.0
178,B-1,27.6,3/40,68,100.0
179,C2,27.675,3/40,66,100.0
180,B-1,27.75,83/1000,73,100.0
181,A1,27.833,83/1000,79,100.0
182,B-1,27.917,83/1000,70,100.0
183,B-2,28.0,0.125,77,100.0
184,D4,28.375,333/1000,54,100.0
185,B-4,28.375,333/1000,54,100.0
186,F5,28.375,333/1000,54,100.0
187,G#5,28.438,271/1000,57,100.0
188,D6,28.438,271/1000,57,100.0
189,F6,28.438,271/1000,57,100.0
190,B-6,28.5,0.25,64,100.0
191,B-3,29.0,1.0,66,100.0
192,B-3,30.0,1.0,66,100.0
193,A5,31.0,81/1000,41,100.0
194,B-5,31.092,81/1000,36,100.0
195,E-6,31.183,81/1000,38,100.0
196,C6,31.275,81/1000,36,100.0
197,B-5,31.367,81/1000,36,100.0
198,G#5,31.458,81/1000,36,100.0
199,G5,31.55,81/1000,33,100.0
200,F5,31.642,81/1000,37,100.0
201,E-5,31.733,81/1000,37,100.0
202,D5,31.825,81/1000,36,100.0
203,C5,31.917,73/1000,36,100.0
204,B-4,32.0,0.188,41,100.0
205,G3,32.5,0.188,28,100.0
206,B-3,32.5,0.188,28,100.0
207,E-4,32.5,0.188,28,100.0
208,B-2,32.5,0.188,27,100.0
209,E-2,32.5,0.188,27,100.0
210,F4,33.0,0.188,29,100.0
211,B-3,33.0,0.188,29,100.0
212,G#3,33.0,0.188,29,100.0
213,B-2,33.0,0.188,27,100.0
214,E-2,33.0,0.188,27,100.0
215,F#4,33.5,0.188,28,100.0
216,A3,33.5,0.188,28,100.0
217,B-3,33.5,0.188,28,100.0
218,B-2,33.5,0.188,27,100.0
219,E-2,33.5,0.188,27,100.0
220,B-3,34.0,0.5,31,100.0
221,G4,34.0,0.5,31,100.0
222,B-2,34.0,1.0,29,100.0
223,E-2,34.0,1.0,29,100.0
224,G3,34.5,0.25,28,100.0
225,E-4,34.5,0.25,28,100.0
226,A5,35.0,3/50,41,100.0
227,B-5,35.071,3/50,36,100.0
228,G6,35.142,3/50,36,100.0
229,F6,35.212,3/50,36,100.0
230,E-6,35.283,3/50,36,100.0
231,D6,35.354,3/50,36,100.0
232,C6,35.425,3/50,36,100.0
233,B-5,35.496,3/50,36,100.0
234,G#5,35.567,3/50,36,100.0
235,G5,35.638,3/50,33,100.0
236,F5,35.708,3/50,37,100.0
237,E-5,35.779,3/50,37,100.0
238,D5,35.85,3/50,36,100.0
239,C5,35.921,69/1000,36,100.0
240,B-4,36.0,0.188,41,100.0
241,E-4,36.5,0.188,26,100.0
242,G3,36.5,0.188,26,100.0
243,B-3,36.5,0.188,26,100.0
244,B-2,36.5,0.188,27,100.0
245,E-2,36.5,0.188,27,100.0
246,G#3,37.0,0.188,29,100.0
247,D4,37.0,0.188,29,100.0
248,F4,37.0,0.188,29,100.0
249,E-2,37.0,0.188,29,100.0
250,B-2,37.0,0.188,29,100.0
251,B-3,37.5,0.188,28,100.0
252,G4,37.5,0.188,28,100.0
253,E-2,37.5,0.188,27,100.0
254,B-2,37.5,0.188,27,100.0
255,G3,38.0,479/500,28,100.0
256,E-4,38.0,479/500,28,100.0
257,E-2,38.0,479/500,27,100.0
258,B-2,38.0,479/500,27,100.0
259,A6,39.0,0.062,41,100.0
260,B-6,39.067,0.062,36,100.0
261,E-7,39.133,1/20,37,100.0
262,C7,39.133,1/20,37,100.0
263,B-6,39.242,1/20,36,100.0
264,G#6,39.242,1/20,36,100.0
265,G6,39.35,1/20,33,100.0
266,F6,39.404,1/20,37,100.0
267,E-6,39.404,1/20,37,100.0
268,D6,39.513,1/20,36,100.0
269,C6,39.513,1/20,36,100.0
270,B-5,39.621,1/20,36,100.0
271,G#5,39.621,1/20,36,100.0
272,G5,39.729,1/20,36,100.0
273,F5,39.729,1/20,36,100.0
274,E-5,39.837,1/20,36,100.0
275,D5,39.837,1/20,36,100.0
276,C5,39.95,1/20,36,100.0
277,B-4,40.0,0.188,41,100.0
278,E-4,40.5,0.188,30,100.0
279,B-3,40.5,0.188,30,100.0
280,G3,40.5,0.188,30,100.0
281,E-2,40.5,0.188,29,100.0
282,B-2,40.5,0.188,29,100.0
283,F4,41.0,0.188,33,100.0
284,B-3,41.0,0.188,33,100.0
285,G#3,41.0,0.188,33,100.0
286,E-2,41.0,0.188,32,100.0
287,B-2,41.0,0.188,32,100.0
288,F#4,41.5,0.188,32,100.0
289,B-3,41.5,0.188,32,100.0
290,A3,41.5,0.188,32,100.0
291,E-2,41.5,0.188,30,100.0
292,B-2,41.5,0.188,30,100.0
293,B-3,42.0,0.5,34,100.0
294,G4,42.0,0.5,34,100.0
295,E-2,42.0,1.0,32,100.0
296,B-2,42.0,1.0,32,100.0
297,G3,42.5,0.25,31,100.0
298,E-4,42.5,0.25,31,100.0
299,A6,43.0,3/50,41,100.0
300,B-6,43.065,3/50,36,100.0
301,G7,43.129,21/500,36,100.0
302,F7,43.129,21/500,36,100.0
303,E-7,43.221,21/500,36,100.0
304,D7,43.221,21/500,36,100.0
305,C7,43.312,21/500,36,100.0
306,B-6,43.312,21/500,36,100.0
307,G#6,43.404,21/500,34,100.0
308,G6,43.404,21/500,34,100.0
309,F6,43.496,21/500,37,100.0
310,E-6,43.496,21/500,37,100.0
311,D6,43.587,21/500,36,100.0
312,C6,43.587,21/500,36,100.0
313,B-5,43.679,21/500,36,100.0
314,G#5,43.679,21/500,36,100.0
315,G5,43.771,21/500,36,100.0
316,F5,43.771,21/500,36,100.0
317,E-5,43.862,21/500,36,100.0
318,D5,43.862,21/500,36,100.0
319,C5,43.954,21/500,36,100.0
320,B-4,44.0,0.188,41,100.0
321,E-4,44.5,0.188,33,100.0
322,B-3,44.5,0.188,33,100.0
323,G3,44.5,0.188,33,100.0
324,E-2,44.5,0.188,31,100.0
325,B-2,44.5,0.188,31,100.0
326,G#3,45.0,0.188,34,100.0
327,D4,45.0,0.188,34,100.0
328,F4,45.0,0.188,34,100.0
329,E-2,45.0,0.188,32,100.0
330,B2,45.0,0.188,32,100.0
331,D4,45.5,0.188,33,100.0
332,G#3,45.5,0.188,33,100.0
333,G4,45.5,0.188,33,100.0
334,B-2,45.5,0.188,31,100.0
335,E-2,45.5,0.188,31,100.0
336,G3,46.0,479/500,32,100.0
337,E-4,46.0,479/500,32,100.0
338,E-2,46.0,479/500,29,100.0
339,E-3,46.0,479/500,29,100.0
340,B-2,46.0,479/500,29,100.0
341,B-2,47.0,81/1000,53,100.0
342,A2,47.083,81/1000,53,100.0
343,G#2,47.167,81/1000,53,100.0
344,G2,47.25,81/1000,53,100.0
345,F#2,47.333,81/1000,53,100.0
346,F2,47.417,81/1000,53,100.0
347,E2,47.5,81/1000,55,100.0
348,E-2,47.583,81/1000,57,100.0
349,D2,47.667,81/1000,59,100.0
350,C#2,47.75,81/1000,62,100.0
351,C2,47.833,81/1000,63,100.0
352,B1,47.917,81/1000,65,100.0
353,B-1,48.0,0.125,80,100.0
354,D4,48.5,0.188,48,100.0
355,B-3,48.5,0.188,48,100.0
356,B-2,48.5,0.188,41,100.0
357,F3,48.5,0.188,41,100.0
358,C4,49.0,0.188,52,100.0
359,B-3,49.0,0.188,52,100.0
360,E-4,49.0,0.188,52,100.0
361,F#3,49.0,0.188,45,100.0
362,B-2,49.0,0.188,45,100.0
363,B-3,49.5,0.188,47,100.0
364,C#4,49.5,0.188,47,100.0
365,E4,49.5,0.188,47,100.0
366,B-2,49.5,0.188,43,100.0
367,G3,49.5,0.188,43,100.0
368,B-2,50.0,1.0,45,100.0
369,B-3,50.0,62/125,45,100.0
370,D4,50.0,0.5,48,100.0
371,F4,50.0,0.5,48,100.0
372,F3,50.5,0.25,44,100.0
373,B-3,50.5,0.25,46,100.0
374,D4,50.5,0.25,46,100.0
375,B-1,51.0,3/40,55,100.0
376,C2,51.077,3/40,56,100.0
377,D2,51.154,3/40,57,100.0
378,E-2,51.231,3/40,59,100.0
379,F2,51.308,3/40,60,100.0
380,G2,51.385,3/40,62,100.0
381,A2,51.462,3/40,63,100.0
382,B-2,51.54,3/40,63,100.0
383,C3,51.617,3/40,64,100.0
384,D3,51.694,3/40,65,100.0
385,E-3,51.771,3/40,67,100.0
386,E3,51.848,3/40,69,100.0
387,G3,51.925,73/1000,70,100.0
388,F3,52.0,2.0,63,100.0
389,D4,52.5,0.188,46,100.0
390,B-3,52.5,0.188,46,100.0
391,F2,52.5,0.188,41,100.0
392,B-2,52.5,0.188,41,100.0
393,A3,53.0,0.188,50,100.0
394,E-4,53.0,0.188,50,100.0
395,C3,53.0,0.188,44,100.0
396,F2,53.0,0.188,44,100.0
397,A3,53.5,0.188,48,100.0
398,F4,53.5,0.188,48,100.0
399,D3,53.5,0.188,43,100.0
400,F2,53.5,0.188,43,100.0
401,B-2,54.0,1.0,44,100.0
402,F3,54.0,0.5,63,100.0
403,B-3,54.0,479/500,48,100.0
404,D4,54.0,479/500,48,100.0
405,B-1,54.5,0.25,48,100.0
406,B-4,55.0,81/1000,58,100.0
407,A4,55.083,81/1000,58,100.0
408,G#4,55.167,81/1000,58,100.0
409,G4,55.25,81/1000,58,100.0
410,F#4,55.333,81/1000,58,100.0
411,F4,55.417,81/1000,58,100.0
412,E4,55.5,81/1000,60,100.0
413,E-4,55.583,81/1000,63,100.0
414,D4,55.667,81/1000,64,100.0
415,C#4,55.75,81/1000,67,100.0
416,C4,55.833,81/1000,70,100.0
417,B3,55.917,81/1000,72,100.0
418,B-3,56.0,0.125,87,100.0
419,D5,56.5,0.188,48,100.0
420,D4,56.5,0.188,48,100.0
421,B-4,56.5,0.188,48,100.0
422,F3,56.5,0.188,44,100.0
423,B-3,56.5,0.188,44,100.0
424,B-2,56.5,0.188,44,100.0
425,E-4,57.0,0.188,53,100.0
426,E-5,57.0,0.188,53,100.0
427,B-4,57.0,0.188,53,100.0
428,C4,57.0,0.188,48,100.0
429,F#3,57.0,0.188,48,100.0
430,B-2,57.0,0.188,48,100.0
431,E5,57.5,0.188,50,100.0
432,B-4,57.5,0.188,50,100.0
433,E4,57.5,0.188,50,100.0
434,G3,57.5,0.188,46,100.0
435,B-2,57.5,0.188,46,100.0
436,C#4,57.5,0.188,46,100.0
437,F5,58.0,0.5,55,100.0
438,D4,58.0,0.5,53,100.0
439,B-4,58.0,479/500,45,100.0
440,F4,58.0,479/500,45,100.0
441,F3,58.0,1.0,46,100.0
442,B-2,58.0,1.0,46,100.0
443,D5,58.5,0.25,52,100.0
444,B-3,58.5,0.25,52,100.0
445,B-2,59.0,3/40,49,100.0
446,C3,59.077,3/40,50,100.0
447,D3,59.154,3/40,51,100.0
448,E-3,59.231,3/40,53,100.0
449,F3,59.308,3/40,54,100.0
450,G3,59.385,3/40,55,100.0
451,A3,59.462,3/40,55,100.0
452,B-3,59.54,3/40,56,100.0
453,C4,59.617,3/40,57,100.0
454,D4,59.694,3/40,58,100.0
455,E-4,59.771,3/40,60,100.0
456,E4,59.848,3/40,62,100.0
457,G4,59.925,73/1000,63,100.0
458,F4,60.0,1167/1000,55,100.0
459,D5,60.5,0.5,39,100.0
460,G#4,60.5,0.5,39,100.0
461,F3,60.5,0.5,35,100.0
462,B3,60.5,0.5,35,100.0
463,A4,61.0,0.5,43,100.0
464,E-5,61.0,0.5,43,100.0
465,F3,61.0,0.5,36,100.0
466,C4,61.0,0.5,36,100.0
467,F4,61.167,167/1000,43,100.0
468,G4,61.333,167/1000,37,100.0
469,E-4,61.5,167/1000,43,100.0
470,F4,61.5,0.375,36,100.0
471,C5,61.5,0.5,38,100.0
472,F5,61.5,0.5,38,100.0
473,F3,61.5,0.5,32,100.0
474,A3,61.5,0.5,32,100.0
475,C4,61.667,167/1000,39,100.0
476,D4,61.833,21/500,38,100.0
477,B-2,61.875,0.125,33,100.0
478,F3,61.875,0.125,33,100.0
479,D4,61.875,0.125,33,100.0
480,B-3,61.938,0.062,36,100.0
481,F4,61.938,0.062,36,100.0
482,B-4,61.938,0.062,36,100.0
483,D5,62.0,479/500,38,100.0
484,B-3,62.0,917/1000,36,100.0
485,F4,62.0,917/1000,36,100.0
486,B-4,62.0,917/1000,36,100.0
487,B-2,62.0,917/1000,33,100.0
488,F3,62.0,917/1000,33,100.0
489,D4,62.0,917/1000,33,100.0
490,B-5,63.0,0.188,46,100.0
491,C#5,63.0,0.188,46,100.0
492,F5,63.0,0.188,46,100.0
493,A5,63.188,0.062,38,100.0
494,G#5,63.25,0.094,38,100.0
495,C5,63.25,0.094,38,100.0
496,G5,63.344,0.094,39,100.0
497,D5,63.344,0.094,39,100.0
498,B4,63.344,0.094,39,100.0
499,B-4,63.438,0.094,41,100.0
500,F#5,63.438,0.094,41,100.0
501,F5,63.531,0.094,42,100.0
502,C5,63.531,0.094,42,100.0
503,A4,63.531,0.094,42,100.0
504,E5,63.625,0.094,43,100.0
505,G#4,63.625,0.094,43,100.0
506,E-5,63.719,0.094,44,100.0
507,B-4,63.719,0.094,44,100.0
508,G4,63.719,0.094,44,100.0
509,D5,63.812,0.094,45,100.0
510,F#4,63.812,0.094,45,100.0
511,F4,63.906,0.094,46,100.0
512,G#4,63.906,0.094,46,100.0
513,C#5,63.906,0.094,46,100.0
514,E4,64.0,0.125,48,100.0
515,C5,64.0,0.125,48,100.0
516,G4,64.0,0.125,48,100.0
517,C3,64.5,83/1000,51,100.0
518,B-3,64.5,0.188,39,100.0
519,E4,64.5,0.188,39,100.0
520,G3,64.5,0.188,39,100.0
521,C#3,64.583,83/1000,53,100.0
522,C3,64.667,83/1000,54,100.0
523,B2,64.75,83/1000,56,100.0
524,B-2,64.833,83/1000,57,100.0
525,A2,64.917,83/1000,58,100.0
526,G#2,65.0,0.188,60,100.0
527,G#3,65.0,0.188,42,100.0
528,F4,65.0,0.188,42,100.0
529,C#4,65.0,0.188,42,100.0
530,F2,65.5,71/1000,52,100.0
531,B3,65.5,0.188,39,100.0
532,D4,65.5,0.188,39,100.0
533,G#4,65.5,0.188,39,100.0
534,F#2,65.571,71/1000,51,100.0
535,F2,65.642,71/1000,50,100.0
536,E2,65.713,71/1000,50,100.0
537,E-2,65.783,71/1000,49,100.0
538,D2,65.854,73/1000,48,100.0
539,C#2,65.927,73/1000,46,100.0
540,C2,66.0,0.5,41,100.0
541,G4,66.0,0.5,40,100.0
542,E4,66.0,0.5,40,100.0
543,E3,66.5,0.188,36,100.0
544,G3,66.5,0.188,34,100.0
545,C4,66.5,0.188,34,100.0
546,F5,67.0,0.188,50,100.0
547,C#5,67.0,0.188,50,100.0
548,B-5,67.0,0.188,50,100.0
549,A5,67.188,0.062,41,100.0
550,C5,67.25,0.094,42,100.0
551,G#5,67.25,0.094,42,100.0
552,G5,67.344,0.094,43,100.0
553,D5,67.344,0.094,43,100.0
554,B4,67.344,0.094,43,100.0
555,F#5,67.438,0.094,44,100.0
556,B-4,67.438,0.094,44,100.0
557,F5,67.531,0.094,45,100.0
558,C5,67.531,0.094,45,100.0
559,A4,67.531,0.094,45,100.0
560,E5,67.625,0.094,45,100.0
561,G#4,67.625,0.094,45,100.0
562,G4,67.719,0.094,46,100.0
563,B-4,67.719,0.094,46,100.0
564,E-5,67.719,0.094,46,100.0
565,D5,67.812,0.094,49,100.0
566,F#4,67.812,0.094,49,100.0
567,G#4,67.906,0.094,50,100.0
568,C#5,67.906,0.094,50,100.0
569,F4,67.906,0.094,50,100.0
570,E4,68.0,0.125,51,100.0
571,G4,68.0,0.125,51,100.0
572,C5,68.0,0.125,51,100.0
573,C3,68.5,0.5,51,100.0
574,C4,68.5,83/1000,51,100.0
575,E4,68.5,0.188,38,100.0
576,G4,68.5,0.188,38,100.0
577,E5,68.5,0.188,38,100.0
578,B-4,68.5,0.188,38,100.0
579,C#4,68.583,83/1000,53,100.0
580,C4,68.667,83/1000,54,100.0
581,B3,68.75,83/1000,56,100.0
582,B-3,68.833,83/1000,57,100.0
583,A3,68.917,83/1000,58,100.0
584,F4,69.0,0.188,43,100.0
585,C#5,69.0,0.188,43,100.0
586,F5,69.0,0.188,43,100.0
587,G#4,69.0,0.188,43,100.0
588,G#2,69.0,0.188,60,100.0
589,G#3,69.0,0.188,60,100.0
590,F2,69.5,0.5,52,100.0
591,F3,69.5,71/1000,52,100.0
592,G#4,69.5,0.188,38,100.0
593,B4,69.5,0.188,38,100.0
594,G#5,69.5,0.188,38,100.0
595,D5,69.5,0.188,38,100.0
596,G3,69.571,71/1000,51,100.0
597,F3,69.642,71/1000,50,100.0
598,E3,69.713,71/1000,50,100.0
599,E-3,69.783,71/1000,49,100.0
600,D3,69.854,73/1000,48,100.0
601,C#3,69.927,73/1000,46,100.0
602,E5,70.0,0.5,39,100.0
603,G5,70.0,0.5,39,100.0
604,G4,70.0,0.5,39,100.0
605,C3,70.0,0.5,41,100.0
606,C2,70.0,0.5,41,100.0
607,C5,70.5,0.188,36,100.0
608,E4,70.5,0.188,36,100.0
609,G3,70.5,0.188,36,100.0
610,G#4,71.0,1.0,50,100.0
611,F4,71.0,1/10,50,100.0
612,C5,71.0,9/10,50,100.0
613,G#5,71.0,1/10,50,100.0
614,E4,71.1,1/10,45,100.0
615,G5,71.1,1/10,48,100.0
616,E-4,71.2,1/10,45,100.0
617,F#5,71.2,1/10,49,100.0
618,D4,71.3,1/10,46,100.0
619,F5,71.3,1/10,50,100.0
620,C#4,71.4,1/10,49,100.0
621,E5,71.4,1/10,52,100.0
622,C4,71.5,1/10,50,100.0
623,E-5,71.5,1/10,54,100.0
624,B3,71.6,1/10,51,100.0
625,D5,71.6,1/10,55,100.0
626,B-3,71.7,1/10,53,100.0
627,C#5,71.7,1/10,56,100.0
628,A3,71.8,1/10,54,100.0
629,C5,71.8,1/5,58,100.0
630,G#3,71.9,1/10,55,100.0
631,B4,71.9,1/10,59,100.0
632,F4,72.0,0.125,57,100.0
633,D4,72.0,0.125,57,100.0
634,G#4,72.0,0.125,62,100.0
635,B-4,72.0,0.125,62,100.0
636,B-2,72.5,83/1000,51,100.0
637,G#3,72.5,0.188,42,100.0
638,D4,72.5,0.188,42,100.0
639,F3,72.5,0.188,42,100.0
640,B2,72.583,83/1000,53,100.0
641,B-2,72.667,83/1000,54,100.0
642,A2,72.75,83/1000,56,100.0
643,G#2,72.833,83/1000,57,100.0
644,G2,72.917,83/1000,58,100.0
645,F#2,73.0,0.188,60,100.0
646,F#3,73.0,0.188,45,100.0
647,E-4,73.0,0.188,45,100.0
648,B3,73.0,0.188,45,100.0
649,E-2,73.5,71/1000,57,100.0
650,A3,73.5,0.188,43,100.0
651,C4,73.5,0.188,43,100.0
652,F#4,73.5,0.188,43,100.0
653,F2,73.571,71/1000,57,100.0
654,E-2,73.642,71/1000,56,100.0
655,D2,73.713,71/1000,55,100.0
656,C#2,73.783,71/1000,55,100.0
657,C2,73.854,73/1000,54,100.0
658,B1,73.927,73/1000,54,100.0
659,B-1,74.0,0.5,53,100.0
660,F4,74.0,0.5,48,100.0
661,D4,74.0,0.5,48,100.0
662,D3,74.5,0.188,49,100.0
663,F3,74.5,0.188,41,100.0
664,B-3,74.5,0.188,41,100.0
665,G#4,75.0,1.0,50,100.0
666,E4,75.0,1/10,50,100.0
667,G#5,75.0,1/10,50,100.0
668,B4,75.0,1.0,50,100.0
669,E-4,75.1,1/10,45,100.0
670,G5,75.1,1/10,48,100.0
671,D4,75.2,1/10,45,100.0
672,F#5,75.2,1/10,49,100.0
673,C#4,75.3,1/10,46,100.0
674,F5,75.3,1/10,50,100.0
675,C4,75.4,1/10,49,100.0
676,E5,75.4,1/10,52,100.0
677,B3,75.5,1/10,50,100.0
678,E-5,75.5,1/10,54,100.0
679,B-3,75.6,1/10,51,100.0
680,D5,75.6,1/10,55,100.0
681,A3,75.7,1/10,53,100.0
682,C#5,75.7,1/10,56,100.0
683,G#3,75.8,1/10,54,100.0
684,C5,75.8,1/10,58,100.0
685,B3,75.9,1/10,55,100.0
686,B4,75.9,1/10,59,100.0
687,D4,76.0,0.125,57,100.0
688,F4,76.0,0.125,57,100.0
689,G#4,76.0,0.125,62,100.0
690,B-4,76.0,0.125,62,100.0
691,B-2,76.438,0.562,59,100.0
692,B-3,76.5,83/1000,59,100.0
693,D5,76.5,0.188,47,100.0
694,G#4,76.5,0.188,47,100.0
695,D4,76.5,0.188,47,100.0
696,F4,76.5,0.188,47,100.0
697,B3,76.583,83/1000,60,100.0
698,B-3,76.667,83/1000,62,100.0
699,A3,76.75,83/1000,62,100.0
700,G#3,76.833,83/1000,63,100.0
701,G3,76.917,83/1000,63,100.0
702,E-5,77.0,0.188,62,100.0
703,F#4,77.0,0.188,62,100.0
704,E-4,77.0,0.188,62,100.0
705,B4,77.0,0.188,62,100.0
706,F#2,77.0,0.188,63,100.0
707,F#3,77.0,0.188,63,100.0
708,E-2,77.438,0.562,64,100.0
709,E-3,77.5,71/1000,64,100.0
710,C5,77.5,0.188,62,100.0
711,F#5,77.5,0.188,62,100.0
712,A4,77.5,0.188,62,100.0
713,F#4,77.5,0.188,62,100.0
714,F3,77.571,71/1000,64,100.0
715,E-3,77.642,71/1000,64,100.0
716,D3,77.713,71/1000,64,100.0
717,C#3,77.783,71/1000,64,100.0
718,C3,77.854,73/1000,64,100.0
719,B2,77.927,73/1000,64,100.0
720,B-1,77.948,13/250,62,100.0
721,B-2,77.958,21/500,77,100.0
722,F4,77.969,0.031,67,100.0
723,B-4,77.969,0.031,67,100.0
724,D5,77.969,0.031,67,100.0
725,B-5,77.969,0.031,67,100.0
726,B-1,78.0,0.5,62,100.0
727,B-2,78.0,479/500,77,100.0
728,F4,78.0,0.469,67,100.0
729,B-4,78.0,0.469,67,100.0
730,D5,78.0,0.469,67,100.0
731,B-5,78.0,0.469,67,100.0
732,B-3,78.5,0.188,65,100.0
733,D3,78.5,0.188,52,100.0
734,F3,78.5,0.188,52,100.0
735,B-4,79.0,0.125,76,100.0
736,B-5,79.0,0.125,76,100.0
737,A5,79.125,21/500,66,100.0
738,A6,79.125,21/500,66,100.0
739,G#5,79.167,53/500,66,100.0
740,G#4,79.167,53/500,66,100.0
741,G6,79.25,27/250,67,100.0
742,G5,79.25,27/250,67,100.0
743,F#5,79.333,11/100,67,100.0
744,F#4,79.333,11/100,67,100.0
745,F6,79.417,14/125,69,100.0
746,F5,79.417,14/125,69,100.0
747,E4,79.5,23/200,69,100.0
748,E5,79.5,23/200,69,100.0
749,E-6,79.583,117/1000,72,100.0
750,E-5,79.583,117/1000,72,100.0
751,D4,79.667,119/1000,72,100.0
752,D5,79.667,119/1000,72,100.0
753,C#5,79.75,121/1000,74,100.0
754,C#6,79.75,121/1000,74,100.0
755,C4,79.833,123/1000,74,100.0
756,C5,79.833,123/1000,74,100.0
757,B5,79.917,0.125,76,100.0
758,B4,79.917,0.125,76,100.0
759,B-4,80.0,0.25,80,100.0
760,B-3,80.0,0.25,80,100.0
761,D3,80.5,0.5,65,100.0
762,D4,80.5,0.5,65,100.0
763,B-3,80.5,0.5,65,100.0
764,F3,80.5,0.5,65,100.0
765,B-1,80.5,0.5,63,100.0
766,B-2,80.5,0.5,63,100.0
767,F2,80.5,0.5,63,100.0
768,D6,81.0,83/1000,76,100.0
769,D5,81.0,83/1000,76,100.0
770,C#6,81.125,21/500,66,100.0
771,C#7,81.125,21/500,66,100.0
772,C6,81.167,53/500,66,100.0
773,C5,81.167,53/500,66,100.0
774,B6,81.25,27/250,67,100.0
775,B5,81.25,27/250,67,100.0
776,B-5,81.333,11/100,67,100.0
777,B-4,81.333,11/100,67,100.0
778,A6,81.417,14/125,69,100.0
779,A5,81.417,14/125,69,100.0
780,G#5,81.5,23/200,69,100.0
781,G#4,81.5,23/200,69,100.0
782,G6,81.583,117/1000,72,100.0
783,G5,81.583,117/1000,72,100.0
784,F#5,81.667,119/1000,72,100.0
785,F#4,81.667,119/1000,72,100.0
786,F6,81.75,121/1000,74,100.0
787,F5,81.75,121/1000,74,100.0
788,E4,81.833,123/1000,74,100.0
789,E5,81.833,123/1000,74,100.0
790,E-5,81.917,83/1000,76,100.0
791,E-6,81.917,83/1000,76,100.0
792,E-5,82.0,21/500,76,100.0
793,E-6,82.0,21/500,76,100.0
794,D5,82.0,0.25,80,100.0
795,D4,82.0,0.25,80,100.0
796,F4,82.5,0.5,65,100.0
797,F3,82.5,0.5,65,100.0
798,B-3,82.5,0.5,65,100.0
799,D4,82.5,0.5,65,100.0
800,F2,82.5,0.5,63,100.0
801,B-1,82.5,0.5,63,100.0
802,D3,82.5,0.5,63,100.0
803,F6,83.0,83/1000,70,100.0
804,F5,83.0,83/1000,70,100.0
805,E6,83.083,83/1000,62,100.0
806,E7,83.083,83/1000,62,100.0
807,E-6,83.167,83/1000,70,100.0
808,E-5,83.167,83/1000,70,100.0
809,D7,83.25,83/1000,62,100.0
810,D6,83.25,83/1000,62,100.0
811,C#6,83.333,83/1000,72,100.0
812,C#5,83.333,83/1000,72,100.0
813,C7,83.417,83/1000,64,100.0
814,C6,83.417,83/1000,64,100.0
815,B5,83.5,83/1000,73,100.0
816,B4,83.5,83/1000,73,100.0
817,B-6,83.583,83/1000,64,100.0
818,B-5,83.583,83/1000,64,100.0
819,A5,83.667,83/1000,74,100.0
820,A4,83.667,83/1000,74,100.0
821,G#6,83.75,83/1000,66,100.0
822,G#5,83.75,83/1000,66,100.0
823,G4,83.833,83/1000,75,100.0
824,G5,83.833,83/1000,75,100.0
825,F#5,83.917,83/1000,66,100.0
826,F#6,83.917,83/1000,66,100.0
827,F4,84.0,83/1000,75,100.0
828,F5,84.0,83/1000,75,100.0
829,E6,84.083,83/1000,66,100.0
830,E5,84.083,83/1000,66,100.0
831,E-4,84.167,83/1000,76,100.0
832,E-5,84.167,83/1000,76,100.0
833,D6,84.25,83/1000,66,100.0
834,D5,84.25,83/1000,66,100.0
835,C#4,84.333,0.094,76,100.0
836,C#5,84.333,0.094,76,100.0
837,C6,84.417,0.094,67,100.0
838,C5,84.417,0.094,67,100.0
839,B4,84.5,0.094,78,100.0
840,B3,84.5,0.094,78,100.0
841,B-5,84.583,13/125,67,100.0
842,B-4,84.583,13/125,67,100.0
843,A4,84.667,13/125,78,100.0
844,A3,84.667,13/125,78,100.0
845,G#5,84.75,13/125,68,100.0
846,G#4,84.75,13/125,68,100.0
847,G4,84.833,13/125,78,100.0
848,G3,84.833,13/125,78,100.0
849,F#5,84.917,13/125,68,100.0
850,F#4,84.917,13/125,68,100.0
851,F4,85.0,13/125,79,100.0
852,F3,85.0,13/125,79,100.0
853,E4,85.083,13/125,68,100.0
854,E5,85.083,13/125,68,100.0
855,E-4,85.167,53/500,80,100.0
856,E-3,85.167,53/500,80,100.0
857,D5,85.25,27/250,68,100.0
858,D4,85.25,27/250,68,100.0
859,C#4,85.333,11/100,82,100.0
860,C#3,85.333,11/100,82,100.0
861,C4,85.417,14/125,69,100.0
862,C5,85.417,14/125,69,100.0
863,B2,85.5,23/200,82,100.0
864,B3,85.5,23/200,82,100.0
865,B-4,85.583,117/1000,69,100.0
866,B-3,85.583,117/1000,69,100.0
867,A3,85.667,119/1000,82,100.0
868,A2,85.667,119/1000,82,100.0
869,G#4,85.75,121/1000,69,100.0
870,G#3,85.75,121/1000,69,100.0
871,F2,85.833,123/1000,84,100.0
872,F3,85.833,123/1000,84,100.0
873,D4,85.917,83/1000,69,100.0
874,D3,85.917,83/1000,69,100.0
875,D4,86.0,21/500,69,100.0
876,D3,86.0,21/500,69,100.0
877,B-2,86.0,0.5,89,100.0
878,B-1,86.0,0.5,89,100.0
879,A2,86.5,83/1000,74,100.0
880,A1,86.5,83/1000,74,100.0
881,B-2,86.583,83/1000,72,100.0
882,B-1,86.583,83/1000,72,100.0
883,D3,86.667,0.094,72,100.0
884,D2,86.667,0.094,72,100.0
885,F3,86.75,12/125,73,100.0
886,F2,86.75,12/125,73,100.0
887,G#3,86.833,49/500,73,100.0
888,G#2,86.833,49/500,73,100.0
889,B-3,86.917,1/10,74,100.0
890,B-2,86.917,1/10,74,100.0
891,D4,87.0,51/500,74,100.0
892,D3,87.0,51/500,74,100.0
893,F4,87.083,13/125,76,100.0
894,F3,87.083,13/125,76,100.0
895,G#4,87.167,83/1000,76,100.0
896,G#3,87.167,83/1000,76,100.0
897,B-4,87.25,83/1000,77,100.0
898,B-3,87.25,83/1000,77,100.0
899,D5,87.333,83/1000,77,100.0
900,D4,87.333,83/1000,77,100.0
901,F5,87.417,83/1000,77,100.0
902,F4,87.417,83/1000,77,100.0
903,G#5,87.5,1/10,78,100.0
904,G#4,87.5,1/10,78,100.0
905,B-5,87.6,1/10,78,100.0
906,B-4,87.6,1/10,78,100.0
907,D6,87.7,1/10,79,100.0
908,D5,87.7,1/10,79,100.0
909,F6,87.8,1/10,80,100.0
910,F5,87.8,1/10,80,100.0
911,G#6,87.9,1/10,80,100.0
912,G#5,87.9,1/10,80,100.0
913,A6,88.0,13/250,81,100.0
914,A5,88.0,13/250,81,100.0
915,C7,88.071,0.062,78,100.0
916,C6,88.071,0.062,78,100.0
917,B-6,88.142,0.062,77,100.0
918,B-5,88.142,0.062,77,100.0
919,G#6,88.213,0.062,77,100.0
920,G#5,88.213,0.062,77,100.0
921,F6,88.283,0.062,77,100.0
922,F5,88.283,0.062,77,100.0
923,D6,88.354,0.062,77,100.0
924,D5,88.354,0.062,77,100.0
925,B-5,88.425,0.062,77,100.0
926,B-4,88.425,0.062,77,100.0
927,A5,88.5,0.062,81,100.0
928,A4,88.5,0.062,81,100.0
929,C6,88.571,71/1000,78,100.0
930,C5,88.571,71/1000,78,100.0
931,B-5,88.642,71/1000,77,100.0
932,B-4,88.642,71/1000,77,100.0
933,G#5,88.713,71/1000,77,100.0
934,G#4,88.713,71/1000,77,100.0
935,F5,88.783,71/1000,77,100.0
936,F4,88.783,71/1000,77,100.0
937,D5,88.854,71/1000,77,100.0
938,D4,88.854,71/1000,77,100.0
939,B-4,88.925,71/1000,77,100.0
940,B-3,88.925,71/1000,77,100.0
941,A4,89.0,0.062,81,100.0
942,A3,89.0,0.062,81,100.0
943,C5,89.071,71/1000,78,100.0
944,C4,89.071,71/1000,78,100.0
945,B-4,89.142,71/1000,77,100.0
946,B-3,89.142,71/1000,77,100.0
947,G#4,89.213,71/1000,77,100.0
948,G#3,89.213,71/1000,77,100.0
949,F4,89.283,71/1000,77,100.0
950,F3,89.283,71/1000,77,100.0
951,D4,89.354,71/1000,77,100.0
952,D3,89.354,71/1000,77,100.0
953,B-3,89.425,71/1000,76,100.0
954,B-2,89.425,71/1000,76,100.0
955,A3,89.5,13/125,78,100.0
956,A2,89.5,13/125,78,100.0
957,B-3,89.6,13/125,80,100.0
958,B-2,89.6,13/125,80,100.0
959,D4,89.7,13/125,83,100.0
960,D3,89.7,13/125,83,100.0
961,F4,89.8,23/200,85,100.0
962,F3,89.8,23/200,85,100.0
963,G#4,89.9,1/10,88,100.0
964,G#3,89.9,1/10,88,100.0
965,A3,90.0,0.062,82,100.0
966,A2,90.0,0.062,82,100.0
967,B-3,90.077,27/1000,72,100.0
968,B-4,90.077,27/1000,72,100.0
969,E-3,90.104,77/1000,75,100.0
970,E-4,90.104,77/1000,75,100.0
971,D5,90.156,77/1000,66,100.0
972,D4,90.156,77/1000,66,100.0
973,C#4,90.208,77/1000,76,100.0
974,C#3,90.208,77/1000,76,100.0
975,C5,90.26,77/1000,66,100.0
976,C4,90.26,77/1000,66,100.0
977,B3,90.312,77/1000,78,100.0
978,B2,90.312,77/1000,78,100.0
979,B-4,90.365,77/1000,70,100.0
980,B-3,90.365,77/1000,70,100.0
981,A3,90.417,77/1000,81,100.0
982,A2,90.417,77/1000,81,100.0
983,G#4,90.469,77/1000,71,100.0
984,G#3,90.469,77/1000,71,100.0
985,G2,90.521,77/1000,81,100.0
986,G3,90.521,77/1000,81,100.0
987,F#4,90.573,77/1000,72,100.0
988,F#3,90.573,77/1000,72,100.0
989,F2,90.625,77/1000,82,100.0
990,F3,90.625,77/1000,82,100.0
991,E4,90.677,77/1000,74,100.0
992,E3,90.677,77/1000,74,100.0
993,E-2,90.729,77/1000,83,100.0
994,E-3,90.729,77/1000,83,100.0
995,D4,90.781,77/1000,75,100.0
996,D3,90.781,77/1000,75,100.0
997,C#2,90.833,77/1000,95,100.0
998,C#3,90.833,77/1000,95,100.0
999,C3,90.885,77/1000,78,100.0
1000,C4,90.885,77/1000,78,100.0
1001,B2,90.938,0.094,97,100.0
1002,B1,90.938,0.094,97,100.0
1003,B-2,91.0,0.188,83,100.0
1004,B-1,91.0,0.188,83,100.0
1005,E-4,91.5,26/125,70,100.0
1006,G4,91.5,26/125,70,100.0
1007,E-5,91.5,26/125,70,100.0
1008,E-3,91.5,26/125,63,100.0
1009,B-2,91.5,26/125,63,100.0
1010,E-2,91.5,26/125,63,100.0
1011,F4,92.0,26/125,76,100.0
1012,G#4,92.0,26/125,76,100.0
1013,F5,92.0,26/125,76,100.0
1014,F3,92.0,26/125,65,100.0
1015,B-2,92.0,26/125,65,100.0
1016,E-2,92.0,26/125,65,100.0
1017,F#4,92.5,26/125,70,100.0
1018,A4,92.5,26/125,70,100.0
1019,F#5,92.5,26/125,70,100.0
1020,E-2,92.5,26/125,63,100.0
1021,B-2,92.5,26/125,63,100.0
1022,F#3,92.5,26/125,63,100.0
1023,G3,93.0,0.5,82,100.0
1024,B-4,93.0,0.5,76,100.0
1025,G4,93.0,0.5,76,100.0
1026,G5,93.0,0.5,76,100.0
1027,B-2,93.0,1.0,65,100.0
1028,E-2,93.0,1.0,65,100.0
1029,E-3,93.5,0.25,79,100.0
1030,E-4,93.5,0.25,72,100.0
1031,E-5,93.5,0.25,72,100.0
1032,A3,94.0,0.094,85,100.0
1033,A2,94.0,0.094,85,100.0
1034,B-3,94.106,7/200,77,100.0
1035,B-4,94.106,7/200,77,100.0
1036,G3,94.142,53/500,81,100.0
1037,G4,94.142,53/500,81,100.0
1038,F4,94.213,53/500,70,100.0
1039,F5,94.213,53/500,70,100.0
1040,E-4,94.283,53/500,83,100.0
1041,E-3,94.283,53/500,83,100.0
1042,D4,94.354,53/500,72,100.0
1043,D5,94.354,53/500,72,100.0
1044,C4,94.425,53/500,85,100.0
1045,C3,94.425,53/500,85,100.0
1046,B-3,94.496,53/500,74,100.0
1047,B-4,94.496,53/500,74,100.0
1048,G#3,94.567,53/500,87,100.0
1049,G#2,94.567,53/500,87,100.0
1050,G3,94.638,53/500,76,100.0
1051,G4,94.638,53/500,76,100.0
1052,F3,94.708,53/500,90,100.0
1053,F2,94.708,53/500,90,100.0
1054,E-3,94.779,53/500,79,100.0
1055,E-4,94.779,53/500,79,100.0
1056,D2,94.85,53/500,92,100.0
1057,D3,94.85,53/500,92,100.0
1058,C3,94.921,119/1000,81,100.0
1059,C4,94.921,119/1000,81,100.0
1060,B-1,95.0,0.188,92,100.0
1061,B-2,95.0,0.188,92,100.0
1062,E-4,95.5,26/125,74,100.0
1063,G4,95.5,26/125,74,100.0
1064,E-5,95.5,26/125,74,100.0
1065,E-2,95.5,26/125,66,100.0
1066,E-3,95.5,26/125,66,100.0
1067,B-2,95.5,26/125,66,100.0
1068,F4,96.0,26/125,79,100.0
1069,G#4,96.0,26/125,79,100.0
1070,F5,96.0,26/125,79,100.0
1071,F3,96.0,26/125,71,100.0
1072,E-2,96.0,26/125,71,100.0
1073,B2,96.0,26/125,71,100.0
1074,D3,96.0,26/125,71,100.0
1075,G4,96.5,26/125,74,100.0
1076,B-4,96.5,26/125,74,100.0
1077,G5,96.5,26/125,74,100.0
1078,E-2,96.5,26/125,66,100.0
1079,B-2,96.5,26/125,66,100.0
1080,G3,96.5,26/125,66,100.0
1081,E-4,97.0,479/500,69,100.0
1082,G4,97.0,479/500,69,100.0
1083,E-5,97.0,479/500,69,100.0
1084,E-3,97.0,479/500,64,100.0
1085,B-2,97.0,479/500,64,100.0
1086,E-2,97.0,479/500,64,100.0
1087,A6,98.0,0.062,41,100.0
1088,B-6,98.067,0.062,36,100.0
1089,E-7,98.133,1/20,37,100.0
1090,C7,98.133,1/20,37,100.0
1091,B-6,98.242,1/20,36,100.0
1092,G#6,98.242,1/20,36,100.0
1093,G6,98.35,1/20,33,100.0
1094,F6,98.404,1/20,37,100.0
1095,E-6,98.404,1/20,37,100.0
1096,D6,98.513,1/20,36,100.0
1097,C6,98.513,1/20,36,100.0
1098,B-5,98.621,1/20,36,100.0
1099,G#5,98.621,1/20,36,100.0
1100,G5,98.729,1/20,36,100.0
1101,F5,98.729,1/20,36,100.0
1102,E-5,98.838,1/20,36,100.0
1103,D5,98.838,1/20,36,100.0
1104,C5,98.95,1/20,36,100.0
1105,B-4,99.0,0.188,41,100.0
1106,E-3,99.5,0.188,29,100.0
1107,G3,99.5,0.188,30,100.0
1108,B-3,99.5,0.188,30,100.0
1109,E-4,99.5,0.188,30,100.0
1110,D3,100.0,0.188,32,100.0
1111,G#3,100.0,0.188,33,100.0
1112,B3,100.0,0.188,33,100.0
1113,F4,100.0,0.188,33,100.0
1114,D2,100.5,0.188,30,100.0
1115,A3,100.5,0.188,32,100.0
1116,C4,100.5,0.188,32,100.0
1117,F#4,100.5,0.188,32,100.0
1118,G2,101.0,1.0,29,100.0
1119,D3,101.0,0.5,29,100.0
1120,B3,101.0,0.5,32,100.0
1121,G4,101.0,0.5,32,100.0
1122,B2,101.5,0.25,27,100.0
1123,G3,101.5,0.25,30,100.0
1124,D4,101.5,0.25,30,100.0
1125,B-6,102.0,0.062,27,100.0
1126,F#6,102.0,0.062,27,100.0
1127,B6,102.062,0.062,27,100.0
1128,G6,102.062,0.062,27,100.0
1129,G7,102.125,0.062,29,100.0
1130,B6,102.125,0.062,29,100.0
1131,F#7,102.188,0.062,29,100.0
1132,A6,102.188,0.062,29,100.0
1133,E7,102.25,0.062,29,100.0
1134,G6,102.25,0.062,29,100.0
1135,D7,102.312,0.062,29,100.0
1136,F#6,102.312,0.062,29,100.0
1137,C7,102.375,0.062,29,100.0
1138,E6,102.375,0.062,29,100.0
1139,B6,102.438,0.062,28,100.0
1140,D6,102.438,0.062,28,100.0
1141,A6,102.5,0.062,28,100.0
1142,C6,102.5,0.062,28,100.0
1143,G6,102.562,0.062,28,100.0
1144,B5,102.562,0.062,28,100.0
1145,F#6,102.625,0.062,28,100.0
1146,A5,102.625,0.062,28,100.0
1147,E6,102.688,0.062,28,100.0
1148,G5,102.688,0.062,28,100.0
1149,D6,102.75,0.062,27,100.0
1150,F#5,102.75,0.062,27,100.0
1151,C6,102.812,0.062,27,100.0
1152,E5,102.812,0.062,27,100.0
1153,B5,102.875,0.062,27,100.0
1154,D5,102.875,0.062,27,100.0
1155,A5,102.938,0.062,27,100.0
1156,C5,102.938,0.062,27,100.0
1157,G5,103.0,0.188,27,100.0
1158,B4,103.0,0.188,27,100.0
1159,C3,103.5,229/500,28,100.0
1160,C4,103.5,229/500,33,100.0
1161,E4,103.5,229/500,33,100.0
1162,G4,103.5,229/500,33,100.0
1163,F2,104.0,417/1000,31,100.0
1164,C4,104.0,417/1000,33,100.0
1165,G#4,104.0,417/1000,33,100.0
1166,F4,104.0,417/1000,33,100.0
1167,G#3,104.5,229/500,32,100.0
1168,D4,104.5,229/500,32,100.0
1169,B-4,104.5,229/500,32,100.0
1170,B-2,104.5,229/500,30,100.0
1171,B-1,104.5,229/500,30,100.0
1172,G3,105.0,0.938,30,100.0
1173,E-4,105.0,0.938,30,100.0
1174,B-4,105.0,0.938,30,100.0
1175,B-2,105.0,0.938,30,100.0
1176,E-2,105.0,0.938,30,100.0
1177,G2,106.0,0.75,78,100.0
1178,G3,106.0,0.75,78,100.0
1179,E-2,106.75,0.25,75,100.0
1180,E-3,106.75,0.25,75,100.0
1181,C2,107.0,0.25,78,100.0
1182,C3,107.0,0.25,78,100.0
1183,B1,107.25,0.25,74,100.0
1184,B2,107.25,0.25,74,100.0
1185,G3,107.5,0.25,79,100.0
1186,C2,107.5,0.188,74,100.0
1187,C3,107.5,0.188,74,100.0
1188,D2,107.75,0.188,74,100.0
1189,D3,107.75,0.188,74,100.0
1190,C4,108.0,1.0,82,100.0
1191,E-2,108.0,0.25,78,100.0
1192,E-3,108.0,0.25,78,100.0
1193,D2,108.25,0.25,74,100.0
1194,D3,108.25,0.25,74,100.0
1195,G4,108.5,0.5,78,100.0
1196,E-2,108.5,0.188,74,100.0
1197,E-3,108.5,0.188,74,100.0
1198,F2,108.75,0.188,74,100.0
1199,F3,108.75,0.188,74,100.0
1200,D4,109.0,1.5,82,100.0
1201,C4,109.0,0.5,82,100.0
1202,G2,109.0,0.25,78,100.0
1203,G3,109.0,0.25,78,100.0
1204,F#2,109.25,0.25,75,100.0
1205,F#3,109.25,0.25,75,100.0
1206,B3,109.5,247/500,79,100.0
1207,G2,109.5,0.188,75,100.0
1208,G3,109.5,0.188,75,100.0
1209,A2,109.75,0.188,75,100.0
1210,A3,109.75,0.188,75,100.0
1211,D5,110.0,1.5,82,100.0
1212,B2,110.0,0.25,80,100.0
1213,B3,110.0,0.25,80,100.0
1214,A2,110.25,0.25,75,100.0
1215,A3,110.25,0.25,75,100.0
1216,F4,110.5,0.25,79,100.0
1217,B2,110.5,0.188,75,100.0
1218,B3,110.5,0.188,75,100.0
1219,G2,110.75,0.188,75,100.0
1220,G3,110.75,0.188,75,100.0
1221,E-4,111.0,249/250,81,100.0
1222,C3,111.0,0.25,84,100.0
1223,C4,111.0,0.25,84,100.0
1224,B2,111.25,0.25,76,100.0
1225,B3,111.25,0.25,76,100.0
1226,G4,111.5,0.25,83,100.0
1227,C3,111.5,0.188,76,100.0
1228,C4,111.5,0.188,76,100.0
1229,D3,111.75,0.188,76,100.0
1230,D4,111.75,0.188,76,100.0
1231,G5,112.0,0.75,86,100.0
1232,E-3,112.0,0.25,88,100.0
1233,E-4,112.0,0.25,88,100.0
1234,D3,112.25,0.25,76,100.0
1235,D4,112.25,0.25,76,100.0
1236,C5,112.5,0.25,77,100.0
1237,E-3,112.5,0.188,76,100.0
1238,E-4,112.5,0.188,76,100.0
1239,G#5,112.75,0.25,72,100.0
1240,F3,112.75,0.188,76,100.0
1241,F4,112.75,0.188,76,100.0
1242,D5,113.0,1.0,77,100.0
1243,C5,113.0,0.5,77,100.0
1244,G3,113.0,0.25,88,100.0
1245,G4,113.0,0.25,88,100.0
1246,D4,113.5,0.5,68,100.0
1247,B4,113.5,0.5,68,100.0
1248,G2,113.5,0.375,76,100.0
1249,D3,113.5,0.375,76,100.0
1250,B3,113.5,0.375,76,100.0
1251,G6,114.0,0.75,78,100.0
1252,D6,114.0,0.75,78,100.0
1253,B5,114.0,0.75,78,100.0
1254,G5,114.0,0.75,78,100.0
1255,G3,114.0,0.75,78,100.0
1256,B3,114.0,0.75,78,100.0
1257,D4,114.0,0.75,78,100.0
1258,G4,114.0,0.75,78,100.0
1259,G6,114.75,0.188,72,100.0
1260,G5,114.75,0.188,72,100.0
1261,G#5,115.0,0.188,75,100.0
1262,G#6,115.0,0.188,75,100.0
1263,G5,115.25,0.188,72,100.0
1264,G6,115.25,0.188,72,100.0
1265,F3,115.5,0.5,55,100.0
1266,G#5,115.5,0.188,72,100.0
1267,G#6,115.5,0.188,72,100.0
1268,D4,115.5,1.0,62,100.0
1269,B3,115.5,1.0,62,100.0
1270,D5,115.75,0.188,72,100.0
1271,D6,115.75,0.188,72,100.0
1272,G4,116.0,0.5,67,100.0
1273,E-3,116.0,1.0,60,100.0
1274,G6,116.0,0.188,75,100.0
1275,G5,116.0,0.188,75,100.0
1276,F#5,116.25,0.188,72,100.0
1277,F#6,116.25,0.188,72,100.0
1278,C4,116.5,0.5,69,100.0
1279,G5,116.5,0.188,72,100.0
1280,G6,116.5,0.188,72,100.0
1281,C6,116.75,0.188,72,100.0
1282,C5,116.75,0.188,72,100.0
1283,F6,117.0,0.188,75,100.0
1284,F5,117.0,0.188,75,100.0
1285,E5,117.25,0.188,73,100.0
1286,E6,117.25,0.188,73,100.0
1287,G#3,117.5,1.0,62,100.0
1288,F5,117.5,0.188,73,100.0
1289,F6,117.5,0.188,73,100.0
1290,D3,117.5,0.5,55,100.0
1291,B3,117.5,0.5,55,100.0
1292,B4,117.75,0.188,73,100.0
1293,B5,117.75,0.188,73,100.0
1294,E-5,118.0,0.188,75,100.0
1295,E-6,118.0,0.188,75,100.0
1296,E-4,118.0,0.5,64,100.0
1297,C3,118.0,0.5,64,100.0
1298,D5,118.25,0.188,72,100.0
1299,D6,118.25,0.188,72,100.0
1300,E-5,118.5,0.188,72,100.0
1301,E-6,118.5,0.188,72,100.0
1302,E-3,118.5,0.5,58,100.0
1303,G3,118.5,0.5,58,100.0
1304,C4,118.5,0.5,58,100.0
1305,G#2,118.75,2.25,56,100.0
1306,C5,118.75,0.188,72,100.0
1307,C6,118.75,0.188,72,100.0
1308,C5,119.0,0.25,72,100.0
1309,C6,119.0,0.25,72,100.0
1310,E-4,119.0,0.25,64,100.0
1311,G4,119.0,0.25,64,100.0
1312,B-4,119.25,26/125,68,100.0
1313,B-5,119.25,26/125,68,100.0
1314,D4,119.25,26/125,60,100.0
1315,F4,119.25,26/125,60,100.0
1316,B-4,119.5,0.25,68,100.0
1317,B-5,119.5,0.25,68,100.0
1318,D4,119.5,0.25,60,100.0
1319,F4,119.5,0.25,60,100.0
1320,G#4,119.75,26/125,68,100.0
1321,G#5,119.75,26/125,68,100.0
1322,C4,119.75,26/125,60,100.0
1323,E-4,119.75,26/125,60,100.0
1324,G#4,120.0,0.25,73,100.0
1325,G#5,120.0,0.25,73,100.0
1326,C4,120.0,0.25,66,100.0
1327,E-4,120.0,0.25,66,100.0
1328,G4,120.25,26/125,68,100.0
1329,G5,120.25,26/125,68,100.0
1330,B-3,120.25,26/125,60,100.0
1331,D4,120.25,26/125,60,100.0
1332,G4,120.5,0.25,68,100.0
1333,G5,120.5,0.25,68,100.0
1334,B-3,120.5,0.25,60,100.0
1335,D4,120.5,0.25,60,100.0
1336,F#4,120.75,26/125,68,100.0
1337,F#5,120.75,26/125,68,100.0
1338,G#3,120.75,26/125,60,100.0
1339,C4,120.75,26/125,60,100.0
1340,F#4,121.0,0.25,72,100.0
1341,F#5,121.0,0.25,72,100.0
1342,C4,121.0,0.25,64,100.0
1343,G#3,121.0,0.25,64,100.0
1344,G4,121.25,0.188,70,100.0
1345,G5,121.25,0.188,70,100.0
1346,G3,121.25,0.188,62,100.0
1347,B3,121.25,0.188,62,100.0
1348,G6,121.5,0.25,90,100.0
1349,G5,121.5,0.25,90,100.0
1350,G2,121.5,0.25,74,100.0
1351,G3,121.5,0.25,74,100.0
1352,G3,122.0,0.75,78,100.0
1353,G4,122.0,0.75,78,100.0
1354,E-3,122.75,0.25,75,100.0
1355,E-4,122.75,0.25,75,100.0
1356,C3,123.0,0.25,78,100.0
1357,C4,123.0,0.25,78,100.0
1358,B2,123.25,0.25,74,100.0
1359,B3,123.25,0.25,74,100.0
1360,G1,123.5,0.25,71,100.0
1361,C3,123.5,0.188,74,100.0
1362,C4,123.5,0.188,74,100.0
1363,D3,123.75,0.188,74,100.0
1364,D4,123.75,0.188,74,100.0
1365,C2,124.0,1.0,73,100.0
1366,E-3,124.0,0.25,78,100.0
1367,E-4,124.0,0.25,78,100.0
1368,D3,124.25,0.25,74,100.0
1369,D4,124.25,0.25,74,100.0
1370,G2,124.5,0.5,70,100.0
1371,E-3,124.5,0.188,74,100.0
1372,E-4,124.5,0.188,74,100.0
1373,F3,124.75,0.188,74,100.0
1374,F4,124.75,0.188,74,100.0
1375,D2,125.0,1.5,73,100.0
1376,C2,125.0,0.5,73,100.0
1377,G3,125.0,0.25,78,100.0
1378,G4,125.0,0.25,78,100.0
1379,F#3,125.25,0.25,75,100.0
1380,F#4,125.25,0.25,75,100.0
1381,B1,125.5,0.5,71,100.0
1382,G3,125.5,0.188,75,100.0
1383,G4,125.5,0.188,75,100.0
1384,A3,125.75,0.188,75,100.0
1385,A4,125.75,0.188,75,100.0
1386,D3,126.0,1.5,73,100.0
1387,B3,126.0,0.25,80,100.0
1388,B4,126.0,0.25,80,100.0
1389,A3,126.25,0.25,75,100.0
1390,A4,126.25,0.25,75,100.0
1391,F2,126.5,0.25,71,100.0
1392,B3,126.5,0.188,75,100.0
1393,B4,126.5,0.188,75,100.0
1394,G3,126.75,0.188,75,100.0
1395,G4,126.75,0.188,75,100.0
1396,E-2,127.0,1.5,64,100.0
1397,C4,127.0,0.25,84,100.0
1398,C5,127.0,0.25,84,100.0
1399,B3,127.25,0.25,76,100.0
1400,B4,127.25,0.25,76,100.0
1401,G2,127.5,0.25,73,100.0
1402,C4,127.5,0.188,76,100.0
1403,C5,127.5,0.188,76,100.0
1404,D4,127.75,0.188,76,100.0
1405,D5,127.75,0.188,76,100.0
1406,G3,128.0,0.75,77,100.0
1407,E-4,128.0,0.25,88,100.0
1408,E-5,128.0,0.25,88,100.0
1409,D4,128.25,0.25,76,100.0
1410,D5,128.25,0.25,76,100.0
1411,C3,128.5,0.25,69,100.0
1412,E-4,128.5,0.188,76,100.0
1413,E-5,128.5,0.188,76,100.0
1414,G#3,128.75,0.25,64,100.0
1415,F4,128.75,0.188,76,100.0
1416,F5,128.75,0.188,76,100.0
1417,C3,129.0,0.5,69,100.0
1418,D3,129.0,1.0,77,100.0
1419,G4,129.0,0.25,88,100.0
1420,G5,129.0,0.25,88,100.0
1421,G3,129.5,0.375,93,100.0
1422,B2,129.5,0.5,72,100.0
1423,G4,130.0,0.75,72,100.0
1424,B3,130.0,0.75,72,100.0
1425,D4,130.0,0.75,72,100.0
1426,G3,130.0,0.75,72,100.0
1427,G3,130.75,0.188,68,100.0
1428,G4,130.75,0.188,68,100.0
1429,G#3,131.0,0.188,71,100.0
1430,G#4,131.0,0.188,71,100.0
1431,G4,131.25,0.188,68,100.0
1432,G3,131.25,0.188,68,100.0
1433,B4,131.5,0.5,67,100.0
1434,B5,131.5,0.5,67,100.0
1435,F5,131.5,0.5,67,100.0
1436,G#4,131.5,0.188,68,100.0
1437,G#3,131.5,0.188,68,100.0
1438,D4,131.75,0.188,68,100.0
1439,D3,131.75,0.188,68,100.0
1440,B5,132.0,0.5,70,100.0
1441,E-6,132.0,0.5,70,100.0
1442,E-5,132.0,0.5,70,100.0
1443,G3,132.0,0.188,71,100.0
1444,G4,132.0,0.188,71,100.0
1445,F#3,132.25,0.188,68,100.0
1446,F#4,132.25,0.188,68,100.0
1447,C5,132.5,0.5,61,100.0
1448,E-5,132.5,0.5,61,100.0
1449,C6,132.5,0.5,61,100.0
1450,G3,132.5,0.188,68,100.0
1451,G4,132.5,0.188,68,100.0
1452,C4,132.75,0.188,68,100.0
1453,C3,132.75,0.188,68,100.0
1454,F4,133.0,0.188,71,100.0
1455,F3,133.0,0.188,71,100.0
1456,E3,133.25,0.188,70,100.0
1457,E4,133.25,0.188,70,100.0
1458,D5,133.5,0.5,65,100.0
1459,D6,133.5,0.5,65,100.0
1460,G#5,133.5,0.5,65,100.0
1461,F4,133.5,0.188,70,100.0
1462,F3,133.5,0.188,70,100.0
1463,B2,133.75,0.188,70,100.0
1464,B3,133.75,0.188,70,100.0
1465,G6,134.0,0.5,71,100.0
1466,D6,134.0,0.5,71,100.0
1467,G5,134.0,0.5,71,100.0
1468,E-4,134.0,0.188,71,100.0
1469,E-3,134.0,0.188,71,100.0
1470,D4,134.25,0.188,68,100.0
1471,D3,134.25,0.188,68,100.0
1472,C5,134.5,0.5,63,100.0
1473,G5,134.5,0.5,63,100.0
1474,C6,134.5,0.5,63,100.0
1475,E-4,134.5,0.188,68,100.0
1476,E-3,134.5,0.188,68,100.0
1477,C4,134.75,0.188,68,100.0
1478,C3,134.75,0.188,68,100.0
1479,B-2,135.0,0.188,68,100.0
1480,B-3,135.0,0.188,68,100.0
1481,G#2,135.25,0.188,64,100.0
1482,G#3,135.25,0.188,64,100.0
1483,G#5,135.5,0.5,73,100.0
1484,C6,135.5,0.5,73,100.0
1485,G#6,135.5,0.5,73,100.0
1486,G2,135.5,0.188,64,100.0
1487,G3,135.5,0.188,64,100.0
1488,F2,135.75,0.188,64,100.0
1489,F3,135.75,0.188,64,100.0
1490,G5,136.0,0.5,79,100.0
1491,C6,136.0,0.5,79,100.0
1492,G6,136.0,0.5,79,100.0
1493,E-2,136.0,0.188,70,100.0
1494,E-3,136.0,0.188,70,100.0
1495,G3,136.25,0.188,64,100.0
1496,G2,136.25,0.188,64,100.0
1497,B6,136.5,0.375,75,100.0
1498,G6,136.5,0.375,75,100.0
1499,B5,136.5,0.375,75,100.0
1500,F2,136.5,0.188,64,100.0
1501,F3,136.5,0.188,64,100.0
1502,D3,136.75,0.188,64,100.0
1503,D2,136.75,0.188,64,100.0
1504,C6,137.0,0.375,84,100.0
1505,E-6,137.0,0.375,84,100.0
1506,C7,137.0,0.375,84,100.0
1507,B2,137.0,0.25,68,100.0
1508,B1,137.0,0.25,68,100.0
1509,C3,137.25,26/125,66,100.0
1510,C2,137.25,26/125,66,100.0
1511,E-4,137.5,0.375,71,100.0
1512,G4,137.5,0.375,71,100.0
1513,C5,137.5,0.375,71,100.0
1514,G3,137.5,0.375,71,100.0
1515,E-3,137.5,0.375,71,100.0
1516,C4,137.5,0.375,71,100.0
1517,B-3,138.0,0.75,86,100.0
1518,B-4,138.0,0.75,86,100.0
1519,B-1,138.0,0.75,82,100.0
1520,B-2,138.0,0.75,82,100.0
1521,D4,138.5,0.5,66,100.0
1522,F4,138.5,0.5,66,100.0
1523,F2,138.5,0.5,62,100.0
1524,G#2,138.5,0.5,62,100.0
1525,B-3,138.75,0.25,74,100.0
1526,B-4,138.75,0.25,74,100.0
1527,B-1,138.75,0.25,74,100.0
1528,B-2,138.75,0.25,74,100.0
1529,B-3,139.0,0.25,78,100.0
1530,B-4,139.0,0.25,78,100.0
1531,B-1,139.0,0.25,78,100.0
1532,B-2,139.0,0.25,78,100.0
1533,A3,139.25,0.25,68,100.0
1534,A4,139.25,0.25,68,100.0
1535,A1,139.25,0.25,66,100.0
1536,A2,139.25,0.25,66,100.0
1537,B-3,139.5,0.25,70,100.0
1538,B-4,139.5,0.25,70,100.0
1539,B-1,139.5,0.25,68,100.0
1540,B-2,139.5,0.25,68,100.0
1541,D4,139.75,0.25,73,100.0
1542,D5,139.75,0.25,73,100.0
1543,D2,139.75,0.25,72,100.0
1544,D3,139.75,0.25,72,100.0
1545,F4,140.0,0.25,75,100.0
1546,F5,140.0,0.25,75,100.0
1547,F2,140.0,0.25,74,100.0
1548,F3,140.0,0.25,74,100.0
1549,B-4,140.25,0.25,76,100.0
1550,B-5,140.25,0.25,76,100.0
1551,B-2,140.25,0.25,76,100.0
1552,B-3,140.25,0.25,76,100.0
1553,D5,140.5,0.25,78,100.0
1554,D6,140.5,0.25,78,100.0
1555,D3,140.5,0.25,79,100.0
1556,D4,140.5,0.25,79,100.0
1557,F5,140.75,0.25,80,100.0
1558,F6,140.75,0.25,80,100.0
1559,F3,140.75,0.25,82,100.0
1560,F4,140.75,0.25,82,100.0
1561,G#5,141.0,0.25,82,100.0
1562,G#6,141.0,0.25,82,100.0
1563,G#4,141.0,0.25,85,100.0
1564,G#3,141.0,0.25,85,100.0
1565,F5,141.25,0.25,78,100.0
1566,F6,141.25,0.25,78,100.0
1567,F3,141.25,0.25,78,100.0
1568,F4,141.25,0.25,78,100.0
1569,D6,141.5,0.375,65,100.0
1570,D5,141.5,0.375,65,100.0
1571,F5,141.5,0.375,65,100.0
1572,D3,141.5,0.375,65,100.0
1573,G#3,141.5,0.375,65,100.0
1574,B-3,141.5,0.375,65,100.0
1575,D4,141.5,0.375,65,100.0
1576,B-3,142.0,0.75,86,100.0
1577,B-4,142.0,0.75,86,100.0
1578,B-1,142.0,0.75,82,100.0
1579,B-2,142.0,0.75,82,100.0
1580,D4,142.5,0.5,62,100.0
1581,F4,142.5,0.5,62,100.0
1582,F2,142.5,0.5,62,100.0
1583,G#2,142.5,0.5,62,100.0
1584,B-3,142.75,0.25,74,100.0
1585,B-4,142.75,0.25,74,100.0
1586,B-1,142.75,0.25,74,100.0
1587,B-2,142.75,0.25,74,100.0
1588,B-3,143.0,0.25,78,100.0
1589,B-4,143.0,0.25,78,100.0
1590,B-1,143.0,0.25,78,100.0
1591,B-2,143.0,0.25,78,100.0
1592,A3,143.25,0.25,68,100.0
1593,A4,143.25,0.25,68,100.0
1594,A1,143.25,0.25,66,100.0
1595,A2,143.25,0.25,66,100.0
1596,B-3,143.5,0.25,70,100.0
1597,B-4,143.5,0.25,70,100.0
1598,B-1,143.5,0.25,68,100.0
1599,B-2,143.5,0.25,68,100.0
1600,D4,143.75,0.25,73,100.0
1601,D5,143.75,0.25,73,100.0
1602,D2,143.75,0.25,72,100.0
1603,D3,143.75,0.25,72,100.0
1604,F4,144.0,0.25,75,100.0
1605,F5,144.0,0.25,75,100.0
1606,F2,144.0,0.25,74,100.0
1607,F3,144.0,0.25,74,100.0
1608,B-4,144.25,0.25,76,100.0
1609,B-5,144.25,0.25,76,100.0
1610,B-2,144.25,0.25,76,100.0
1611,B-3,144.25,0.25,76,100.0
1612,D5,144.5,0.25,78,100.0
1613,D6,144.5,0.25,78,100.0
1614,D3,144.5,0.25,79,100.0
1615,D4,144.5,0.25,79,100.0
1616,F5,144.75,0.25,80,100.0
1617,F6,144.75,0.25,80,100.0
1618,F3,144.75,0.25,82,100.0
1619,F4,144.75,0.25,82,100.0
1620,G#5,145.0,0.25,82,100.0
1621,G#6,145.0,0.25,82,100.0
1622,G#4,145.0,0.25,85,100.0
1623,G#3,145.0,0.25,85,100.0
1624,F5,145.25,0.188,78,100.0
1625,F6,145.25,0.188,78,100.0
1626,F3,145.25,0.188,78,100.0
1627,F4,145.25,0.188,78,100.0
1628,B5,145.5,0.375,65,100.0
1629,D5,145.5,0.375,65,100.0
1630,B4,145.5,0.375,65,100.0
1631,B2,145.5,0.375,65,100.0
1632,F3,145.5,0.375,65,100.0
1633,G#3,145.5,0.375,65,100.0
1634,B3,145.5,0.375,65,100.0
1635,G4,146.0,0.75,86,100.0
1636,G5,146.0,0.75,86,100.0
1637,G2,146.0,0.75,90,100.0
1638,G3,146.0,0.75,90,100.0
1639,E-4,146.75,0.25,74,100.0
1640,E-5,146.75,0.25,74,100.0
1641,E-2,146.75,0.25,70,100.0
1642,E-3,146.75,0.25,70,100.0
1643,C4,147.0,0.188,78,100.0
1644,C5,147.0,0.188,78,100.0
1645,C2,147.0,0.188,73,100.0
1646,C3,147.0,0.188,73,100.0
1647,B3,147.25,0.188,74,100.0
1648,B4,147.25,0.188,74,100.0
1649,B1,147.25,0.188,70,100.0
1650,B2,147.25,0.188,70,100.0
1651,E-4,147.5,0.375,51,100.0
1652,G4,147.5,0.375,51,100.0
1653,C4,147.5,0.25,74,100.0
1654,C5,147.5,0.25,74,100.0
1655,E-2,147.5,0.375,51,100.0
1656,G2,147.5,0.375,51,100.0
1657,C2,147.5,0.25,70,100.0
1658,C3,147.5,0.25,70,100.0
1659,D4,147.75,0.25,74,100.0
1660,D5,147.75,0.25,74,100.0
1661,D2,147.75,0.25,70,100.0
1662,D3,147.75,0.25,70,100.0
1663,G4,148.0,1.0,54,100.0
1664,C5,148.0,1.0,54,100.0
1665,E-4,148.0,0.188,76,100.0
1666,E-5,148.0,0.188,76,100.0
1667,G2,148.0,1.0,54,100.0
1668,C3,148.0,1.0,54,100.0
1669,E-2,148.0,0.188,72,100.0
1670,E-3,148.0,0.188,72,100.0
1671,D4,148.25,0.188,74,100.0
1672,D5,148.25,0.188,74,100.0
1673,D2,148.25,0.188,70,100.0
1674,D3,148.25,0.188,70,100.0
1675,E-4,148.5,0.25,74,100.0
1676,E-5,148.5,0.25,74,100.0
1677,E-2,148.5,0.25,70,100.0
1678,E-3,148.5,0.25,70,100.0
1679,F4,148.75,0.25,74,100.0
1680,F5,148.75,0.25,74,100.0
1681,F2,148.75,0.25,70,100.0
1682,F3,148.75,0.25,70,100.0
1683,D5,149.0,0.375,54,100.0
1684,C5,149.0,0.375,54,100.0
1685,G4,149.0,0.188,76,100.0
1686,G5,149.0,0.188,76,100.0
1687,D3,149.0,0.375,54,100.0
1688,C3,149.0,0.375,54,100.0
1689,G2,149.0,0.188,72,100.0
1690,G3,149.0,0.188,72,100.0
1691,F#4,149.25,26/125,74,100.0
1692,F#5,149.25,26/125,74,100.0
1693,F#2,149.25,26/125,70,100.0
1694,F#3,149.25,26/125,70,100.0
1695,B4,149.5,0.375,54,100.0
1696,D5,149.5,0.375,54,100.0
1697,G4,149.5,0.25,74,100.0
1698,G5,149.5,0.25,74,100.0
1699,B2,149.5,0.375,54,100.0
1700,D3,149.5,0.375,54,100.0
1701,G2,149.5,0.25,70,100.0
1702,G3,149.5,0.25,70,100.0
1703,A5,149.75,0.25,74,100.0
1704,A4,149.75,0.25,74,100.0
1705,A3,149.75,0.25,70,100.0
1706,A2,149.75,0.25,70,100.0
1707,B4,150.0,0.188,79,100.0
1708,B5,150.0,0.188,79,100.0
1709,B2,150.0,0.188,74,100.0
1710,B3,150.0,0.188,74,100.0
1711,A4,150.25,229/1000,74,100.0
1712,A5,150.25,229/1000,74,100.0
1713,A2,150.25,229/1000,70,100.0
1714,A3,150.25,229/1000,70,100.0
1715,D5,150.5,0.375,54,100.0
1716,F5,150.5,0.375,54,100.0
1717,B4,150.5,0.25,74,100.0
1718,B5,150.5,0.25,74,100.0
1719,D3,150.5,0.375,54,100.0
1720,F3,150.5,0.375,54,100.0
1721,B2,150.5,0.25,70,100.0
1722,B3,150.5,0.25,70,100.0
1723,G4,150.75,0.25,74,100.0
1724,G5,150.75,0.25,74,100.0
1725,G2,150.75,0.25,70,100.0
1726,G3,150.75,0.25,70,100.0
1727,E-5,151.0,0.375,60,100.0
1728,E-3,151.0,0.375,60,100.0
1729,C5,151.0,26/125,84,100.0
1730,C6,151.0,26/125,84,100.0
1731,C3,151.0,26/125,79,100.0
1732,C4,151.0,26/125,79,100.0
1733,B4,151.25,0.25,73,100.0
1734,B5,151.25,0.25,73,100.0
1735,B2,151.25,0.25,69,100.0
1736,B3,151.25,0.25,69,100.0
1737,G5,151.5,0.375,60,100.0
1738,E-5,151.5,0.375,60,100.0
1739,C5,151.5,0.25,74,100.0
1740,C6,151.5,0.25,74,100.0
1741,G3,151.5,0.375,60,100.0
1742,E-3,151.5,0.375,60,100.0
1743,C3,151.5,0.25,70,100.0
1744,C4,151.5,0.25,70,100.0
1745,D5,151.75,0.25,76,100.0
1746,D6,151.75,0.25,76,100.0
1747,D3,151.75,0.25,72,100.0
1748,D4,151.75,0.25,72,100.0
1749,C6,152.0,0.375,63,100.0
1750,G5,152.0,0.375,63,100.0
1751,E-5,152.0,26/125,86,100.0
1752,E-6,152.0,26/125,86,100.0
1753,C4,152.0,0.375,63,100.0
1754,G3,152.0,0.375,63,100.0
1755,E-3,152.0,26/125,81,100.0
1756,E-4,152.0,26/125,81,100.0
1757,D5,152.25,0.25,74,100.0
1758,D6,152.25,0.25,74,100.0
1759,D3,152.25,0.25,70,100.0
1760,D4,152.25,0.25,70,100.0
1761,G#5,152.5,0.375,63,100.0
1762,C6,152.5,0.375,63,100.0
1763,E-5,152.5,0.25,76,100.0
1764,E-6,152.5,0.25,76,100.0
1765,G#3,152.5,0.375,63,100.0
1766,C4,152.5,0.375,63,100.0
1767,E-3,152.5,0.25,72,100.0
1768,E-4,152.5,0.25,72,100.0
1769,F5,152.75,0.25,78,100.0
1770,F6,152.75,0.25,78,100.0
1771,F3,152.75,0.25,73,100.0
1772,F4,152.75,0.25,73,100.0
1773,B5,153.0,0.25,84,100.0
1774,G5,153.0,0.25,84,100.0
1775,G6,153.0,0.25,84,100.0
1776,B3,153.0,0.25,81,100.0
1777,G3,153.0,0.25,81,100.0
1778,G4,153.0,0.25,81,100.0
1779,B3,153.5,0.375,72,100.0
1780,D4,153.5,0.375,72,100.0
1781,G4,153.5,0.375,72,100.0
1782,G2,153.5,0.375,69,100.0
1783,D3,153.5,0.375,69,100.0
1784,G3,153.5,0.375,69,100.0
1785,G6,154.0,0.75,78,100.0
1786,B5,154.0,0.75,78,100.0
1787,D6,154.0,0.75,78,100.0
1788,G5,154.0,0.75,78,100.0
1789,G4,154.0,0.75,74,100.0
1790,D4,154.0,0.75,74,100.0
1791,B3,154.0,0.75,74,100.0
1792,G3,154.0,0.75,74,100.0
1793,G5,154.75,0.25,78,100.0
1794,G6,154.75,0.25,78,100.0
1795,G2,154.75,0.25,68,100.0
1796,G3,154.75,0.25,68,100.0
1797,D6,155.0,0.25,80,100.0
1798,G#5,155.0,0.25,80,100.0
1799,G#6,155.0,0.25,80,100.0
1800,F2,155.0,0.25,69,100.0
1801,B2,155.0,0.25,69,100.0
1802,F3,155.0,0.25,69,100.0
1803,G6,155.25,0.25,78,100.0
1804,G5,155.25,0.25,78,100.0
1805,E2,155.25,0.25,68,100.0
1806,E3,155.25,0.25,68,100.0
1807,D6,155.5,0.25,78,100.0
1808,G#6,155.5,0.25,78,100.0
1809,G#5,155.5,0.25,78,100.0
1810,F2,155.5,0.25,67,100.0
1811,B2,155.5,0.25,67,100.0
1812,F3,155.5,0.25,67,100.0
1813,D6,155.75,0.25,78,100.0
1814,D5,155.75,0.25,78,100.0
1815,B2,155.75,0.25,68,100.0
1816,B3,155.75,0.25,68,100.0
1817,G5,156.0,0.25,82,100.0
1818,G6,156.0,0.25,82,100.0
1819,E-2,156.0,0.25,70,100.0
1820,E-3,156.0,0.25,70,100.0
1821,F#5,156.25,0.25,78,100.0
1822,F#6,156.25,0.25,78,100.0
1823,D2,156.25,0.25,68,100.0
1824,D3,156.25,0.25,68,100.0
1825,C6,156.5,0.25,76,100.0
1826,G5,156.5,0.25,76,100.0
1827,G6,156.5,0.25,76,100.0
1828,E-2,156.5,0.25,69,100.0
1829,C3,156.5,0.25,69,100.0
1830,E-3,156.5,0.25,69,100.0
1831,C6,156.75,0.25,78,100.0
1832,C5,156.75,0.25,78,100.0
1833,G#2,156.75,0.25,68,100.0
1834,G#3,156.75,0.25,68,100.0
1835,C6,157.0,0.25,80,100.0
1836,F6,157.0,0.25,80,100.0
1837,F5,157.0,0.25,80,100.0
1838,D2,157.0,0.25,69,100.0
1839,G#2,157.0,0.25,69,100.0
1840,D3,157.0,0.25,69,100.0
1841,E5,157.25,0.25,79,100.0
1842,E6,157.25,0.25,79,100.0
1843,C#2,157.25,0.25,68,100.0
1844,C#3,157.25,0.25,68,100.0
1845,B5,157.5,0.188,77,100.0
1846,F6,157.5,0.188,77,100.0
1847,F5,157.5,0.188,77,100.0
1848,D2,157.5,0.188,67,100.0
1849,G2,157.5,0.188,67,100.0
1850,D3,157.5,0.188,67,100.0
1851,B4,157.75,0.25,79,100.0
1852,B5,157.75,0.25,79,100.0
1853,G2,157.75,0.25,68,100.0
1854,G3,157.75,0.25,68,100.0
1855,E-6,158.0,0.25,82,100.0
1856,E-5,158.0,0.25,82,100.0
1857,C2,158.0,0.25,70,100.0
1858,C3,158.0,0.25,70,100.0
1859,D6,158.25,0.25,78,100.0
1860,D5,158.25,0.25,78,100.0
1861,B1,158.25,0.25,68,100.0
1862,B2,158.25,0.25,68,100.0
1863,G5,158.5,0.188,76,100.0
1864,E-6,158.5,0.188,76,100.0
1865,E-5,158.5,0.188,76,100.0
1866,C2,158.5,0.188,67,100.0
1867,G2,158.5,0.188,67,100.0
1868,C3,158.5,0.188,67,100.0
1869,C6,158.75,0.25,78,100.0
1870,C5,158.75,0.25,78,100.0
1871,E-2,158.75,0.25,68,100.0
1872,E-3,158.75,0.25,68,100.0
1873,D5,159.0,0.188,80,100.0
1874,B-4,159.0,0.188,80,100.0
1875,B-5,159.0,0.188,80,100.0
1876,F2,159.0,0.5,70,100.0
1877,F3,159.0,0.5,70,100.0
1878,C5,159.25,0.188,76,100.0
1879,G#4,159.25,0.188,76,100.0
1880,G#5,159.25,0.188,76,100.0
1881,G4,159.5,0.188,78,100.0
1882,G5,159.5,0.188,78,100.0
1883,E-3,159.5,0.188,68,100.0
1884,E-4,159.5,0.188,68,100.0
1885,F4,159.75,0.188,78,100.0
1886,F5,159.75,0.188,78,100.0
1887,D3,159.75,0.188,68,100.0
1888,D4,159.75,0.188,68,100.0
1889,E-4,160.0,0.188,82,100.0
1890,E-5,160.0,0.188,82,100.0
1891,C3,160.0,0.188,72,100.0
1892,C4,160.0,0.188,72,100.0
1893,G5,160.25,0.188,78,100.0
1894,G4,160.25,0.188,78,100.0
1895,G2,160.25,0.188,68,100.0
1896,G3,160.25,0.188,68,100.0
1897,B4,160.5,0.188,80,100.0
1898,F4,160.5,0.188,80,100.0
1899,F5,160.5,0.188,80,100.0
1900,G#2,160.5,0.188,68,100.0
1901,G#3,160.5,0.188,68,100.0
1902,D5,160.75,0.188,78,100.0
1903,D4,160.75,0.188,78,100.0
1904,G2,160.75,26/125,68,100.0
1905,G3,160.75,26/125,68,100.0
1906,B4,161.0,0.25,78,100.0
1907,B3,161.0,0.25,78,100.0
1908,B1,161.0,0.25,68,100.0
1909,B2,161.0,0.25,68,100.0
1910,C5,161.25,0.188,78,100.0
1911,C4,161.25,0.188,78,100.0
1912,C2,161.25,0.188,67,100.0
1913,C3,161.25,0.188,67,100.0
1914,C5,161.5,0.375,83,100.0
1915,G5,161.5,0.375,83,100.0
1916,E-5,161.5,0.375,83,100.0
1917,C6,161.5,0.375,83,100.0
1918,C3,161.5,0.375,72,100.0
1919,E-3,161.5,0.375,72,100.0
1920,G3,161.5,0.375,72,100.0
1921,C4,161.5,0.375,72,100.0
1922,E-4,162.875,0.125,78,100.0
1923,E-4,163.0,2.0,82,100.0
1924,B4,165.0,0.25,74,100.0
1925,B3,165.0,0.25,74,100.0
1926,B1,165.0,0.25,73,100.0
1927,B2,165.0,0.25,73,100.0
1928,C5,165.25,0.188,68,100.0
1929,C4,165.25,0.188,68,100.0
1930,C2,165.25,0.188,67,100.0
1931,C3,165.25,0.188,67,100.0
1932,G#5,165.5,0.375,57,100.0
1933,F#5,165.5,0.375,57,100.0
1934,E-5,165.5,0.375,57,100.0
1935,E-6,165.5,0.375,57,100.0
1936,G#3,165.5,0.375,57,100.0
1937,C3,165.5,0.375,57,100.0
1938,F#3,165.5,0.375,57,100.0
1939,E-4,165.5,0.375,57,100.0
1940,E-4,166.875,0.125,56,100.0
1941,G#4,166.875,0.125,56,100.0
1942,F#4,166.875,0.125,56,100.0
1943,C4,166.875,0.125,56,100.0
1944,E-4,167.0,2.0,62,100.0
1945,G#4,167.0,2.0,62,100.0
1946,C4,167.0,2.0,62,100.0
1947,F#4,167.0,2.0,62,100.0
1948,E-4,169.0,1.0,47,100.0
1949,F#4,169.0,1.0,47,100.0
1950,A4,169.0,1.0,47,100.0
1951,B1,169.0,0.125,57,100.0
1952,B2,169.0,0.125,57,100.0
1953,C2,169.25,0.125,54,100.0
1954,C3,169.25,0.125,54,100.0
1955,F#2,169.5,0.375,50,100.0
1956,F#3,169.5,0.375,50,100.0
1957,B4,170.0,0.125,54,100.0
1958,B5,170.0,0.125,54,100.0
1959,A4,170.0,1.0,47,100.0
1960,F#4,170.0,1.0,47,100.0
1961,E-4,170.0,1.0,47,100.0
1962,C5,170.25,0.125,51,100.0
1963,C6,170.25,0.125,51,100.0
1964,F#5,170.5,0.375,50,100.0
1965,F#6,170.5,0.375,50,100.0
1966,E5,171.0,0.125,51,100.0
1967,E6,171.0,0.125,51,100.0
1968,D4,171.0,1.0,46,100.0
1969,F4,171.0,1.0,46,100.0
1970,A4,171.0,1.0,46,100.0
1971,F5,171.25,0.125,48,100.0
1972,F6,171.25,0.125,48,100.0
1973,F7,171.5,0.375,46,100.0
1974,F6,171.5,0.375,46,100.0
1975,C4,172.0,1.0,45,100.0
1976,E-4,172.0,1.0,45,100.0
1977,A4,172.0,1.0,45,100.0
1978,E2,172.0,0.125,52,100.0
1979,E3,172.0,0.125,52,100.0
1980,F2,172.25,0.188,51,100.0
1981,F3,172.25,0.188,51,100.0
1982,F4,172.5,0.5,48,100.0
1983,F3,172.5,0.5,48,100.0
1984,B-3,173.0,2.0,46,100.0
1985,D4,173.0,2.0,46,100.0
1986,B-4,173.0,2.0,46,100.0
1987,B-1,174.0,0.75,51,100.0
1988,B-2,174.0,0.75,51,100.0
1989,F2,174.5,0.5,46,100.0
1990,G#2,174.5,0.5,46,100.0
1991,B-1,174.75,0.188,48,100.0
1992,B-2,174.75,0.188,48,100.0
1993,B-1,175.0,0.125,48,100.0
1994,B-2,175.0,0.125,48,100.0
1995,A1,175.25,0.125,48,100.0
1996,A2,175.25,0.125,48,100.0
1997,B-1,175.5,0.125,48,100.0
1998,B-2,175.5,0.125,48,100.0
1999,D2,175.75,0.125,50,100.0
2000,D3,175.75,0.125,50,100.0
2001,F2,176.0,0.125,52,100.0
2002,F3,176.0,0.125,52,100.0
2003,B-2,176.25,0.125,54,100.0
2004,B-3,176.25,0.125,54,100.0
2005,D3,176.5,0.125,54,100.0
2006,D4,176.5,0.125,54,100.0
2007,F3,176.75,0.125,55,100.0
2008,F4,176.75,0.125,55,100.0
2009,G#4,177.0,0.125,57,100.0
2010,G#3,177.0,0.125,57,100.0
2011,F3,177.25,0.125,54,100.0
2012,F4,177.25,0.125,54,100.0
2013,D3,177.5,0.25,46,100.0
2014,D4,177.5,0.25,46,100.0
2015,B-3,178.0,0.75,48,100.0
2016,B-4,178.0,0.75,48,100.0
2017,D4,178.5,0.5,45,100.0
2018,F4,178.5,0.5,45,100.0
2019,G#4,178.5,0.5,45,100.0
2020,B-3,178.75,0.188,43,100.0
2021,B-4,178.75,0.188,43,100.0
2022,B-3,179.0,0.125,46,100.0
2023,B-4,179.0,0.125,46,100.0
2024,A3,179.25,0.125,48,100.0
2025,A4,179.25,0.125,48,100.0
2026,B-3,179.5,0.125,48,100.0
2027,B-4,179.5,0.125,48,100.0
2028,D4,179.75,0.125,48,100.0
2029,D5,179.75,0.125,48,100.0
2030,F4,180.0,0.125,50,100.0
2031,F5,180.0,0.125,50,100.0
2032,B-4,180.25,0.125,52,100.0
2033,B-5,180.25,0.125,52,100.0
2034,D5,180.5,0.125,52,100.0
2035,D6,180.5,0.125,52,100.0
2036,F5,180.75,0.125,53,100.0
2037,F6,180.75,0.125,53,100.0
2038,G#6,181.0,0.125,55,100.0
2039,G#5,181.0,0.125,55,100.0
2040,F5,181.25,0.125,52,100.0
2041,F6,181.25,0.125,52,100.0
2042,D5,181.5,0.25,44,100.0
2043,D6,181.5,0.25,44,100.0
2044,G#4,181.625,0.125,38,100.0
2045,D4,181.75,0.125,39,100.0
2046,F3,181.875,0.125,42,100.0
2047,B-2,182.0,0.5,44,100.0
2048,G#6,183.0,0.125,46,100.0
2049,G#5,183.0,0.125,46,100.0
2050,F5,183.25,0.125,41,100.0
2051,F6,183.25,0.125,41,100.0
2052,B4,183.5,0.25,36,100.0
2053,B5,183.5,0.25,36,100.0
2054,G#3,183.625,0.125,35,100.0
2055,F3,183.75,0.125,36,100.0
2056,B2,183.875,0.125,38,100.0
2057,E-2,184.0,0.5,39,100.0
2058,G#6,185.0,0.125,36,100.0
2059,F6,185.125,0.125,36,100.0
2060,B5,185.25,0.125,36,100.0
2061,B-5,185.375,0.125,36,100.0
2062,G#5,185.5,0.125,36,100.0
2063,F5,185.625,0.125,36,100.0
2064,B4,185.75,0.125,36,100.0
2065,B-4,185.875,0.125,36,100.0
2066,G#4,186.0,0.125,36,100.0
2067,F4,186.125,0.125,36,100.0
2068,B3,186.25,0.125,36,100.0
2069,B-3,186.375,0.125,36,100.0
2070,G#3,186.5,0.125,36,100.0
2071,F3,186.625,0.125,36,100.0
2072,B2,186.75,0.125,36,100.0
2073,B-2,186.875,0.125,36,100.0
2074,D2,187.0,0.25,36,100.0
2075,D4,187.854,151/250,32,100.0
2076,A4,187.854,151/250,32,100.0
2077,C5,187.854,151/250,32,100.0
2078,F#5,187.917,583/1000,35,100.0
2079,A5,187.938,521/1000,36,100.0
2080,C6,187.938,521/1000,36,100.0
2081,F#6,187.938,521/1000,36,100.0
2082,A6,188.0,0.5,38,100.0
2083,B-3,188.875,0.125,33,100.0
2084,F4,188.875,0.125,33,100.0
2085,G#4,188.875,0.125,33,100.0
2086,D5,188.938,0.062,36,100.0
2087,G#5,188.958,21/500,37,100.0
2088,D6,188.958,21/500,37,100.0
2089,B-6,188.958,21/500,37,100.0
2090,D5,189.0,0.5,36,100.0
2091,G#5,189.0,229/500,37,100.0
2092,D6,189.0,229/500,37,100.0
2093,B-6,189.0,229/500,37,100.0
2094,B-3,189.0,229/500,33,100.0
2095,F4,189.0,229/500,33,100.0
2096,G#4,189.0,229/500,33,100.0
2097,B-3,189.875,0.125,30,100.0
2098,B-3,190.0,0.125,32,100.0
2099,B3,190.083,0.125,31,100.0
2100,B-3,190.167,0.125,33,100.0
2101,B3,190.25,0.125,31,100.0
2102,B-3,190.333,0.125,33,100.0
2103,B3,190.417,0.125,32,100.0
2104,B-3,190.5,0.125,35,100.0
2105,B3,190.583,0.125,32,100.0
2106,B-3,190.667,0.125,35,100.0
2107,B3,190.75,0.125,32,100.0
2108,B-3,190.833,0.125,36,100.0
2109,B3,190.917,0.125,33,100.0
2110,B-3,191.0,0.125,36,100.0
2111,B3,191.083,0.125,33,100.0
2112,B-3,191.167,0.125,36,100.0
2113,B3,191.25,0.125,33,100.0
2114,B-3,191.333,0.125,36,100.0
2115,B3,191.417,0.125,32,100.0
2116,B-3,191.5,0.094,36,100.0
2117,B3,191.562,0.094,32,100.0
2118,B-3,191.625,0.125,35,100.0
2119,A3,191.75,167/1000,32,100.0
2120,B-3,191.875,0.125,32,100.0
2121,B3,192.0,0.125,36,100.0
2122,C4,192.083,0.125,35,100.0
2123,B3,192.167,0.125,36,100.0
2124,C4,192.25,0.125,35,100.0
2125,B3,192.333,0.125,36,100.0
2126,C4,192.417,0.125,35,100.0
2127,B3,192.5,0.094,36,100.0
2128,C4,192.562,0.094,35,100.0
2129,B3,192.625,0.125,37,100.0
2130,B-3,192.75,167/1000,36,100.0
2131,B3,192.875,0.125,36,100.0
2132,C4,193.0,0.125,39,100.0
2133,C#4,193.083,0.125,36,100.0
2134,C4,193.167,0.125,39,100.0
2135,C#4,193.25,0.125,36,100.0
2136,C4,193.333,0.125,39,100.0
2137,C#4,193.417,0.125,36,100.0
2138,C4,193.5,0.094,39,100.0
2139,C#4,193.562,0.094,36,100.0
2140,C4,193.625,0.125,41,100.0
2141,B3,193.75,167/1000,37,100.0
2142,C4,193.875,0.125,37,100.0
2143,C#4,194.0,0.125,41,100.0
2144,D4,194.083,0.125,37,100.0
2145,C#4,194.167,0.125,42,100.0
2146,D4,194.25,0.125,37,100.0
2147,C#4,194.333,0.125,43,100.0
2148,D4,194.417,0.125,38,100.0
2149,C#4,194.5,0.094,44,100.0
2150,D4,194.562,0.094,39,100.0
2151,C#4,194.625,0.094,44,100.0
2152,D4,194.688,0.094,39,100.0
2153,C#4,194.75,0.094,44,100.0
2154,D4,194.812,0.094,41,100.0
2155,C#4,194.875,0.094,45,100.0
2156,D4,194.938,0.094,41,100.0
2157,C#4,195.0,0.125,45,100.0
2158,D4,195.083,0.125,41,100.0
2159,C#4,195.167,0.125,45,100.0
2160,D4,195.25,0.125,39,100.0
2161,C#4,195.333,0.125,45,100.0
2162,D4,195.417,0.125,39,100.0
2163,C#4,195.5,0.094,44,100.0
2164,D4,195.562,0.094,38,100.0
2165,C#4,195.625,0.094,43,100.0
2166,D4,195.688,0.094,37,100.0
2167,C#4,195.75,0.094,41,100.0
2168,D4,195.812,0.094,37,100.0
2169,C#4,195.875,0.094,41,100.0
2170,D4,195.938,0.094,36,100.0
2171,C#4,196.0,0.125,41,100.0
2172,D4,196.083,0.125,36,100.0
2173,C#4,196.167,0.125,38,100.0
2174,D4,196.25,0.125,35,100.0
2175,C#4,196.333,0.125,36,100.0
2176,D4,196.417,0.125,33,100.0
2177,C#4,196.5,0.094,36,100.0
2178,D4,196.562,0.094,32,100.0
2179,C#4,196.625,0.125,33,100.0
2180,C4,196.75,0.125,29,100.0
2181,C#4,196.875,0.125,26,100.0
2182,D4,197.0,0.25,24,100.0
2183,A5,199.0,81/1000,41,100.0
2184,B-5,199.092,81/1000,36,100.0
2185,E-6,199.183,81/1000,38,100.0
2186,C6,199.275,81/1000,36,100.0
2187,B-5,199.367,81/1000,36,100.0
2188,G#5,199.458,81/1000,36,100.0
2189,G5,199.55,81/1000,33,100.0
2190,F5,199.642,81/1000,37,100.0
2191,E-5,199.733,81/1000,37,100.0
2192,D5,199.825,81/1000,36,100.0
2193,C5,199.917,73/1000,36,100.0
2194,B-4,200.0,0.188,41,100.0
2195,G3,200.5,0.188,28,100.0
2196,B-3,200.5,0.188,28,100.0
2197,E-4,200.5,0.188,28,100.0
2198,E-2,200.5,0.188,27,100.0
2199,B-2,200.5,0.188,27,100.0
2200,G#3,201.0,0.188,29,100.0
2201,B-3,201.0,0.188,29,100.0
2202,F4,201.0,0.188,29,100.0
2203,E-2,201.0,0.188,27,100.0
2204,B-2,201.0,0.188,27,100.0
2205,A3,201.5,0.188,28,100.0
2206,B-3,201.5,0.188,28,100.0
2207,F#4,201.5,0.188,28,100.0
2208,E-2,201.5,0.188,27,100.0
2209,B-2,201.5,0.188,27,100.0
2210,B-3,202.0,0.5,31,100.0
2211,G4,202.0,0.5,31,100.0
2212,E-2,202.0,1.0,29,100.0
2213,B-2,202.0,1.0,29,100.0
2214,G3,202.5,0.25,28,100.0
2215,E-4,202.5,0.25,28,100.0
2216,A5,203.0,3/50,41,100.0
2217,B-5,203.071,3/50,36,100.0
2218,G6,203.142,3/50,36,100.0
2219,F6,203.213,3/50,36,100.0
2220,E-6,203.283,3/50,36,100.0
2221,D6,203.354,3/50,36,100.0
2222,C6,203.425,3/50,36,100.0
2223,B-5,203.496,3/50,36,100.0
2224,G#5,203.567,3/50,36,100.0
2225,G5,203.637,3/50,33,100.0
2226,F5,203.708,3/50,37,100.0
2227,E-5,203.779,3/50,37,100.0
2228,D5,203.85,3/50,36,100.0
2229,C5,203.921,69/1000,36,100.0
2230,B-4,204.0,0.188,41,100.0
2231,G3,204.5,0.188,27,100.0
2232,B-3,204.5,0.188,27,100.0
2233,E-4,204.5,0.188,27,100.0
2234,E-2,204.5,0.188,27,100.0
2235,B-2,204.5,0.188,27,100.0
2236,G#3,205.0,0.188,29,100.0
2237,D4,205.0,0.188,29,100.0
2238,F4,205.0,0.188,29,100.0
2239,E-2,205.0,0.188,29,100.0
2240,B-2,205.0,0.188,29,100.0
2241,B-3,205.5,0.188,28,100.0
2242,G4,205.5,0.188,28,100.0
2243,E-2,205.5,0.188,27,100.0
2244,B-2,205.5,0.188,27,100.0
2245,G3,206.0,479/500,28,100.0
2246,E-4,206.0,479/500,28,100.0
2247,E-2,206.0,479/500,27,100.0
2248,B-2,206.0,479/500,27,100.0
2249,A6,207.0,0.062,41,100.0
2250,B-6,207.067,0.062,36,100.0
2251,E-7,207.133,1/20,37,100.0
2252,C7,207.133,1/20,37,100.0
2253,B-6,207.242,1/20,36,100.0
2254,G#6,207.242,1/20,36,100.0
2255,G6,207.35,1/20,33,100.0
2256,F6,207.404,1/20,37,100.0
2257,E-6,207.404,1/20,37,100.0
2258,D6,207.512,1/20,36,100.0
2259,C6,207.512,1/20,36,100.0
2260,B-5,207.621,1/20,36,100.0
2261,G#5,207.621,1/20,36,100.0
2262,G5,207.729,1/20,36,100.0
2263,F5,207.729,1/20,36,100.0
2264,E-5,207.838,1/20,36,100.0
2265,D5,207.838,1/20,36,100.0
2266,C5,207.95,1/20,36,100.0
2267,B-4,208.0,0.188,41,100.0
2268,G3,208.5,0.188,30,100.0
2269,B-3,208.5,0.188,30,100.0
2270,E-4,208.5,0.188,30,100.0
2271,E-2,208.5,0.188,29,100.0
2272,B-2,208.5,0.188,29,100.0
2273,G#3,209.0,0.188,33,100.0
2274,B-3,209.0,0.188,33,100.0
2275,F4,209.0,0.188,33,100.0
2276,E-2,209.0,0.188,32,100.0
2277,B-2,209.0,0.188,32,100.0
2278,A3,209.5,0.188,32,100.0
2279,B-3,209.5,0.188,32,100.0
2280,F#4,209.5,0.188,32,100.0
2281,E-2,209.5,0.188,30,100.0
2282,B-2,209.5,0.188,30,100.0
2283,B-3,210.0,0.5,34,100.0
2284,G4,210.0,0.5,34,100.0
2285,E-2,210.0,1.0,32,100.0
2286,B-2,210.0,1.0,32,100.0
2287,G3,210.5,0.25,31,100.0
2288,E-4,210.5,0.25,31,100.0
2289,A6,211.0,3/50,41,100.0
2290,B-6,211.065,3/50,36,100.0
2291,G7,211.129,21/500,36,100.0
2292,F7,211.129,21/500,36,100.0
2293,E-7,211.221,21/500,36,100.0
2294,D7,211.221,21/500,36,100.0
2295,C7,211.312,21/500,36,100.0
2296,B-6,211.312,21/500,36,100.0
2297,G#6,211.404,21/500,34,100.0
2298,G6,211.404,21/500,34,100.0
2299,F6,211.496,21/500,37,100.0
2300,E-6,211.496,21/500,37,100.0
2301,D6,211.588,21/500,36,100.0
2302,C6,211.588,21/500,36,100.0
2303,B-5,211.679,21/500,36,100.0
2304,G#5,211.679,21/500,36,100.0
2305,G5,211.771,21/500,36,100.0
2306,F5,211.771,21/500,36,100.0
2307,E-5,211.863,21/500,36,100.0
2308,D5,211.863,21/500,36,100.0
2309,C5,211.954,21/500,36,100.0
2310,B-4,212.0,0.188,41,100.0
2311,G3,212.5,0.188,33,100.0
2312,B-3,212.5,0.188,33,100.0
2313,E-4,212.5,0.188,33,100.0
2314,E-2,212.5,0.188,31,100.0
2315,B-2,212.5,0.188,31,100.0
2316,G#3,213.0,0.188,34,100.0
2317,D4,213.0,0.188,34,100.0
2318,F4,213.0,0.188,34,100.0
2319,E-2,213.0,0.188,32,100.0
2320,B2,213.0,0.188,32,100.0
2321,D4,213.5,0.188,33,100.0
2322,G#3,213.5,0.188,33,100.0
2323,G4,213.5,0.188,33,100.0
2324,E-2,213.5,0.188,31,100.0
2325,B-2,213.5,0.188,31,100.0
2326,G3,214.0,479/500,32,100.0
2327,E-4,214.0,479/500,32,100.0
2328,E-3,214.0,479/500,29,100.0
2329,E-2,214.0,479/500,29,100.0
2330,B-2,214.0,479/500,29,100.0
2331,B-2,215.0,81/1000,53,100.0
2332,A2,215.083,81/1000,53,100.0
2333,G#2,215.167,81/1000,53,100.0
2334,G2,215.25,81/1000,53,100.0
2335,F#2,215.333,81/1000,53,100.0
2336,F2,215.417,81/1000,53,100.0
2337,E2,215.5,81/1000,56,100.0
2338,E-2,215.583,81/1000,58,100.0
2339,D2,215.667,81/1000,60,100.0
2340,C#2,215.75,81/1000,63,100.0
2341,C2,215.833,81/1000,64,100.0
2342,B1,215.917,81/1000,66,100.0
2343,B-1,216.0,0.125,83,100.0
2344,D4,216.5,0.188,48,100.0
2345,B-3,216.5,0.188,48,100.0
2346,F3,216.5,0.188,41,100.0
2347,B-2,216.5,0.188,41,100.0
2348,B-3,217.0,0.188,52,100.0
2349,C4,217.0,0.188,52,100.0
2350,E-4,217.0,0.188,52,100.0
2351,B-2,217.0,0.188,45,100.0
2352,F#3,217.0,0.188,45,100.0
2353,B-3,217.5,0.188,47,100.0
2354,C#4,217.5,0.188,47,100.0
2355,E4,217.5,0.188,47,100.0
2356,G3,217.5,0.188,43,100.0
2357,B-2,217.5,0.188,43,100.0
2358,B-3,218.0,62/125,45,100.0
2359,B-2,218.0,1.0,45,100.0
2360,D4,218.0,0.5,48,100.0
2361,F4,218.0,0.5,48,100.0
2362,F3,218.5,0.25,44,100.0
2363,B-3,218.5,0.25,46,100.0
2364,D4,218.5,0.25,46,100.0
2365,B-1,219.0,3/40,55,100.0
2366,C2,219.077,3/40,56,100.0
2367,D2,219.154,3/40,57,100.0
2368,E-2,219.231,3/40,59,100.0
2369,F2,219.308,3/40,60,100.0
2370,G2,219.385,3/40,62,100.0
2371,A2,219.463,3/40,63,100.0
2372,B-2,219.54,3/40,63,100.0
2373,C3,219.617,3/40,64,100.0
2374,D3,219.694,3/40,65,100.0
2375,E-3,219.771,3/40,67,100.0
2376,E3,219.848,3/40,69,100.0
2377,G3,219.925,73/1000,70,100.0
2378,F3,220.0,2.0,63,100.0
2379,D4,220.5,0.188,46,100.0
2380,B-3,220.5,0.188,46,100.0
2381,B-2,220.5,0.188,41,100.0
2382,F2,220.5,0.188,41,100.0
2383,A3,221.0,0.188,50,100.0
2384,E-4,221.0,0.188,50,100.0
2385,F2,221.0,0.188,44,100.0
2386,C3,221.0,0.188,44,100.0
2387,A3,221.5,0.188,48,100.0
2388,F4,221.5,0.188,48,100.0
2389,D3,221.5,0.188,43,100.0
2390,F2,221.5,0.188,43,100.0
2391,B-2,222.0,1.0,44,100.0
2392,F3,222.0,0.5,63,100.0
2393,D4,222.0,479/500,48,100.0
2394,B-3,222.0,479/500,48,100.0
2395,B-1,222.5,0.25,48,100.0
2396,B-4,223.0,81/1000,58,100.0
2397,A4,223.083,81/1000,58,100.0
2398,G#4,223.167,81/1000,58,100.0
2399,G4,223.25,81/1000,58,100.0
2400,F#4,223.333,81/1000,58,100.0
2401,F4,223.417,81/1000,58,100.0
2402,E4,223.5,81/1000,60,100.0
2403,E-4,223.583,81/1000,63,100.0
2404,D4,223.667,81/1000,65,100.0
2405,C#4,223.75,81/1000,69,100.0
2406,C4,223.833,81/1000,72,100.0
2407,B3,223.917,81/1000,73,100.0
2408,B-3,224.0,0.125,87,100.0
2409,D5,224.5,0.188,46,100.0
2410,D4,224.5,0.188,46,100.0
2411,B-4,224.5,0.188,46,100.0
2412,B-3,224.5,0.188,38,100.0
2413,F3,224.5,0.188,38,100.0
2414,B-2,224.5,0.188,38,100.0
2415,B-4,225.0,0.188,49,100.0
2416,E-5,225.0,0.188,49,100.0
2417,E-4,225.0,0.188,49,100.0
2418,C4,225.0,0.188,43,100.0
2419,B-2,225.0,0.188,43,100.0
2420,F#3,225.0,0.188,43,100.0
2421,E4,225.5,0.188,47,100.0
2422,B-4,225.5,0.188,47,100.0
2423,E5,225.5,0.188,47,100.0
2424,C#4,225.5,0.188,42,100.0
2425,G3,225.5,0.188,42,100.0
2426,B-2,225.5,0.188,42,100.0
2427,F5,226.0,0.5,55,100.0
2428,D4,226.0,0.5,42,100.0
2429,F4,226.0,479/500,41,100.0
2430,B-4,226.0,479/500,41,100.0
2431,F3,226.0,1.0,42,100.0
2432,B-2,226.0,1.0,42,100.0
2433,D5,226.5,0.25,52,100.0
2434,B-3,226.5,0.25,41,100.0
2435,B-2,227.0,3/40,49,100.0
2436,C3,227.077,3/40,50,100.0
2437,D3,227.154,3/40,51,100.0
2438,E-3,227.231,3/40,53,100.0
2439,F3,227.308,3/40,54,100.0
2440,G3,227.385,3/40,55,100.0
2441,A3,227.463,3/40,55,100.0
2442,B-3,227.54,3/40,56,100.0
2443,C4,227.617,3/40,57,100.0
2444,D4,227.694,3/40,58,100.0
2445,E-4,227.771,3/40,60,100.0
2446,E4,227.848,3/40,62,100.0
2447,G4,227.925,73/1000,63,100.0
2448,F4,228.0,1167/1000,55,100.0
2449,D5,228.5,0.5,39,100.0
2450,G#4,228.5,0.5,39,100.0
2451,F3,228.5,0.5,35,100.0
2452,B3,228.5,0.5,35,100.0
2453,A4,229.0,0.5,43,100.0
2454,E-5,229.0,0.5,43,100.0
2455,C4,229.0,0.5,36,100.0
2456,F3,229.0,0.5,36,100.0
2457,F4,229.167,167/1000,43,100.0
2458,G4,229.333,167/1000,33,100.0
2459,E-4,229.5,167/1000,43,100.0
2460,F5,229.5,0.5,41,100.0
2461,C5,229.5,0.5,41,100.0
2462,F4,229.5,0.5,33,100.0
2463,F3,229.5,0.5,33,100.0
2464,A3,229.5,0.5,33,100.0
2465,C4,229.667,167/1000,39,100.0
2466,D4,229.833,21/500,38,100.0
2467,B-2,229.875,0.125,33,100.0
2468,F3,229.875,0.125,33,100.0
2469,D4,229.875,0.125,33,100.0
2470,B-3,229.938,0.062,32,100.0
2471,F4,229.938,0.062,32,100.0
2472,B-4,229.938,0.062,32,100.0
2473,D5,230.0,479/500,38,100.0
2474,B-3,230.0,917/1000,32,100.0
2475,F4,230.0,917/1000,32,100.0
2476,B-4,230.0,917/1000,32,100.0
2477,B-2,230.0,917/1000,33,100.0
2478,F3,230.0,917/1000,33,100.0
2479,D4,230.0,917/1000,33,100.0
2480,F5,231.0,0.188,46,100.0
2481,C#5,231.0,0.188,46,100.0
2482,B-5,231.0,0.188,46,100.0
2483,A5,231.188,0.062,38,100.0
2484,G#5,231.25,0.094,38,100.0
2485,C5,231.25,0.094,38,100.0
2486,G5,231.344,0.094,39,100.0
2487,D5,231.344,0.094,39,100.0
2488,B4,231.344,0.094,39,100.0
2489,F#5,231.438,0.094,41,100.0
2490,B-4,231.438,0.094,41,100.0
2491,F5,231.531,0.094,42,100.0
2492,C5,231.531,0.094,42,100.0
2493,A4,231.531,0.094,42,100.0
2494,E5,231.625,0.094,43,100.0
2495,G#4,231.625,0.094,43,100.0
2496,E-5,231.719,0.094,44,100.0
2497,B-4,231.719,0.094,44,100.0
2498,G4,231.719,0.094,44,100.0
2499,D5,231.812,0.094,45,100.0
2500,F#4,231.812,0.094,45,100.0
2501,C#5,231.906,0.094,46,100.0
2502,G#4,231.906,0.094,46,100.0
2503,F4,231.906,0.094,46,100.0
2504,E4,232.0,0.125,48,100.0
2505,G4,232.0,0.125,48,100.0
2506,C5,232.0,0.125,48,100.0
2507,C3,232.5,83/1000,51,100.0
2508,G3,232.5,0.188,39,100.0
2509,E4,232.5,0.188,39,100.0
2510,B-3,232.5,0.188,39,100.0
2511,C#3,232.583,83/1000,53,100.0
2512,C3,232.667,83/1000,54,100.0
2513,B2,232.75,83/1000,56,100.0
2514,B-2,232.833,83/1000,57,100.0
2515,A2,232.917,83/1000,58,100.0
2516,G#2,233.0,0.188,60,100.0
2517,C#4,233.0,0.188,42,100.0
2518,F4,233.0,0.188,42,100.0
2519,G#3,233.0,0.188,42,100.0
2520,F2,233.5,71/1000,52,100.0
2521,B3,233.5,0.188,39,100.0
2522,D4,233.5,0.188,39,100.0
2523,G#4,233.5,0.188,39,100.0
2524,G2,233.571,71/1000,51,100.0
2525,F2,233.642,71/1000,50,100.0
2526,E2,233.713,71/1000,50,100.0
2527,E-2,233.783,71/1000,49,100.0
2528,D2,233.854,73/1000,48,100.0
2529,C#2,233.927,73/1000,46,100.0
2530,C2,234.0,0.5,45,100.0
2531,G4,234.0,0.5,40,100.0
2532,E4,234.0,0.5,40,100.0
2533,E3,234.5,0.188,39,100.0
2534,G3,234.5,0.188,34,100.0
2535,C4,234.5,0.188,34,100.0
2536,F6,235.0,0.188,50,100.0
2537,C#6,235.0,0.188,50,100.0
2538,B-6,235.0,0.188,50,100.0
2539,A6,235.188,0.062,41,100.0
2540,G#6,235.25,0.094,42,100.0
2541,C6,235.25,0.094,42,100.0
2542,G6,235.344,0.094,43,100.0
2543,D6,235.344,0.094,43,100.0
2544,B5,235.344,0.094,43,100.0
2545,F#6,235.438,0.094,44,100.0
2546,B-5,235.438,0.094,44,100.0
2547,F6,235.531,0.094,45,100.0
2548,C6,235.531,0.094,45,100.0
2549,A5,235.531,0.094,45,100.0
2550,E6,235.625,0.094,45,100.0
2551,G#5,235.625,0.094,45,100.0
2552,E-6,235.719,0.094,46,100.0
2553,B-5,235.719,0.094,46,100.0
2554,G5,235.719,0.094,46,100.0
2555,D6,235.812,0.094,49,100.0
2556,F#5,235.812,0.094,49,100.0
2557,C#6,235.906,0.094,50,100.0
2558,G#5,235.906,0.094,50,100.0
2559,F5,235.906,0.094,50,100.0
2560,E5,236.0,0.125,51,100.0
2561,G5,236.0,0.125,51,100.0
2562,C6,236.0,0.125,51,100.0
2563,C3,236.5,0.5,51,100.0
2564,C4,236.5,83/1000,51,100.0
2565,E4,236.5,0.188,38,100.0
2566,G4,236.5,0.188,38,100.0
2567,E5,236.5,0.188,38,100.0
2568,B-4,236.5,0.188,38,100.0
2569,C#4,236.583,83/1000,53,100.0
2570,C4,236.667,83/1000,54,100.0
2571,B3,236.75,83/1000,56,100.0
2572,B-3,236.833,83/1000,57,100.0
2573,A3,236.917,83/1000,58,100.0
2574,F4,237.0,0.188,43,100.0
2575,C#5,237.0,0.188,43,100.0
2576,F5,237.0,0.188,43,100.0
2577,G#4,237.0,0.188,43,100.0
2578,G#2,237.0,0.188,57,100.0
2579,G#3,237.0,0.188,57,100.0
2580,F2,237.5,0.5,52,100.0
2581,F3,237.5,71/1000,52,100.0
2582,G#4,237.5,0.188,38,100.0
2583,B4,237.5,0.188,38,100.0
2584,D5,237.5,0.188,38,100.0
2585,G#5,237.5,0.188,38,100.0
2586,G3,237.571,71/1000,51,100.0
2587,F3,237.642,71/1000,50,100.0
2588,E3,237.713,71/1000,50,100.0
2589,E-3,237.783,71/1000,49,100.0
2590,D3,237.854,73/1000,48,100.0
2591,C#3,237.927,73/1000,46,100.0
2592,G4,238.0,0.5,39,100.0
2593,G5,238.0,0.5,39,100.0
2594,E5,238.0,0.5,39,100.0
2595,C2,238.0,0.5,43,100.0
2596,C3,238.0,0.5,43,100.0
2597,C5,238.5,0.188,36,100.0
2598,G3,238.5,0.188,38,100.0
2599,E4,238.5,0.188,38,100.0
2600,G#4,239.0,1.0,50,100.0
2601,F4,239.0,1/10,50,100.0
2602,C5,239.0,9/10,50,100.0
2603,G#5,239.0,1/10,50,100.0
2604,E4,239.1,1/10,45,100.0
2605,G5,239.1,1/10,48,100.0
2606,E-4,239.2,1/10,45,100.0
2607,F#5,239.2,1/10,49,100.0
2608,D4,239.3,1/10,46,100.0
2609,F5,239.3,1/10,50,100.0
2610,C#4,239.4,1/10,49,100.0
2611,E5,239.4,1/10,52,100.0
2612,C4,239.5,1/10,50,100.0
2613,E-5,239.5,1/10,54,100.0
2614,B3,239.6,1/10,51,100.0
2615,D5,239.6,1/10,55,100.0
2616,B-3,239.7,1/10,53,100.0
2617,C#5,239.7,1/10,56,100.0
2618,A3,239.8,1/10,54,100.0
2619,C5,239.8,1/5,58,100.0
2620,G#3,239.9,1/10,55,100.0
2621,B4,239.9,1/10,59,100.0
2622,D4,240.0,0.125,57,100.0
2623,F4,240.0,0.125,57,100.0
2624,B-4,240.0,0.125,62,100.0
2625,G#4,240.0,0.125,62,100.0
2626,B-2,240.5,83/1000,51,100.0
2627,F3,240.5,0.188,42,100.0
2628,D4,240.5,0.188,42,100.0
2629,G#3,240.5,0.188,42,100.0
2630,B2,240.583,83/1000,53,100.0
2631,B-2,240.667,83/1000,54,100.0
2632,A2,240.75,83/1000,56,100.0
2633,G#2,240.833,83/1000,57,100.0
2634,G2,240.917,83/1000,58,100.0
2635,F#2,241.0,0.188,60,100.0
2636,B3,241.0,0.188,47,100.0
2637,E-4,241.0,0.188,47,100.0
2638,F#3,241.0,0.188,47,100.0
2639,E-2,241.5,71/1000,57,100.0
2640,A3,241.5,0.188,43,100.0
2641,C4,241.5,0.188,43,100.0
2642,F#4,241.5,0.188,43,100.0
2643,F2,241.571,71/1000,57,100.0
2644,E-2,241.642,71/1000,56,100.0
2645,D2,241.713,71/1000,55,100.0
2646,C#2,241.783,71/1000,55,100.0
2647,C2,241.854,73/1000,54,100.0
2648,B1,241.927,73/1000,54,100.0
2649,B-1,242.0,0.5,53,100.0
2650,F4,242.0,0.5,48,100.0
2651,D4,242.0,0.5,48,100.0
2652,D3,242.5,0.188,49,100.0
2653,F3,242.5,0.188,41,100.0
2654,B-3,242.5,0.188,41,100.0
2655,G#4,243.0,1.0,50,100.0
2656,E4,243.0,1/10,50,100.0
2657,B4,243.0,1.0,50,100.0
2658,G#5,243.0,1/10,50,100.0
2659,E-4,243.1,1/10,45,100.0
2660,G5,243.1,1/10,48,100.0
2661,D4,243.2,1/10,45,100.0
2662,F#5,243.2,1/10,49,100.0
2663,C#4,243.3,1/10,46,100.0
2664,F5,243.3,1/10,50,100.0
2665,C4,243.4,1/10,49,100.0
2666,E5,243.4,1/10,52,100.0
2667,B3,243.5,1/10,50,100.0
2668,E-5,243.5,1/10,54,100.0
2669,B-3,243.6,1/10,51,100.0
2670,D5,243.6,1/10,55,100.0
2671,A3,243.7,1/10,53,100.0
2672,C#5,243.7,1/10,56,100.0
2673,G#3,243.8,1/10,54,100.0
2674,C5,243.8,1/10,58,100.0
2675,B3,243.9,1/10,55,100.0
2676,B4,243.9,1/10,59,100.0
2677,D4,244.0,0.125,57,100.0
2678,F4,244.0,0.125,57,100.0
2679,B-4,244.0,0.125,62,100.0
2680,G#4,244.0,0.125,62,100.0
2681,B-2,244.438,0.562,53,100.0
2682,B-3,244.5,83/1000,59,100.0
2683,D4,244.5,0.188,47,100.0
2684,F4,244.5,0.188,47,100.0
2685,D5,244.5,0.188,47,100.0
2686,G#4,244.5,0.188,47,100.0
2687,B3,244.583,83/1000,60,100.0
2688,B-3,244.667,83/1000,62,100.0
2689,A3,244.75,83/1000,62,100.0
2690,G#3,244.833,83/1000,63,100.0
2691,G3,244.917,83/1000,63,100.0
2692,E-4,245.0,0.188,62,100.0
2693,B4,245.0,0.188,62,100.0
2694,E-5,245.0,0.188,62,100.0
2695,F#4,245.0,0.188,62,100.0
2696,F#2,245.0,0.188,60,100.0
2697,F#3,245.0,0.188,60,100.0
2698,E-2,245.438,0.562,57,100.0
2699,E-3,245.5,71/1000,64,100.0
2700,F#4,245.5,0.188,62,100.0
2701,A4,245.5,0.188,62,100.0
2702,C5,245.5,0.188,62,100.0
2703,F#5,245.5,0.188,62,100.0
2704,F3,245.571,71/1000,64,100.0
2705,E-3,245.642,71/1000,64,100.0
2706,D3,245.713,71/1000,64,100.0
2707,C#3,245.783,71/1000,64,100.0
2708,C3,245.854,73/1000,64,100.0
2709,B2,245.927,73/1000,64,100.0
2710,B-1,245.948,13/250,69,100.0
2711,B-2,245.958,21/500,77,100.0
2712,F4,245.969,0.031,67,100.0
2713,B-4,245.969,0.031,67,100.0
2714,D5,245.969,0.031,67,100.0
2715,B-5,245.969,0.031,67,100.0
2716,B-1,246.0,0.5,69,100.0
2717,B-2,246.0,479/500,77,100.0
2718,F4,246.0,0.469,67,100.0
2719,B-4,246.0,0.469,67,100.0
2720,D5,246.0,0.469,67,100.0
2721,B-5,246.0,0.469,67,100.0
2722,B-3,246.5,0.188,65,100.0
2723,F3,246.5,0.188,62,100.0
2724,D3,246.5,0.188,62,100.0
2725,B-4,247.0,0.125,76,100.0
2726,B-5,247.0,0.125,76,100.0
2727,A5,247.125,21/500,66,100.0
2728,A6,247.125,21/500,66,100.0
2729,G#4,247.167,53/500,69,100.0
2730,G#5,247.167,53/500,69,100.0
2731,G6,247.25,27/250,67,100.0
2732,G5,247.25,27/250,67,100.0
2733,F#4,247.333,11/100,67,100.0
2734,F#5,247.333,11/100,67,100.0
2735,F6,247.417,14/125,69,100.0
2736,F5,247.417,14/125,69,100.0
2737,E4,247.5,23/200,69,100.0
2738,E5,247.5,23/200,69,100.0
2739,E-6,247.583,117/1000,72,100.0
2740,E-5,247.583,117/1000,72,100.0
2741,D4,247.667,119/1000,72,100.0
2742,D5,247.667,119/1000,72,100.0
2743,C#6,247.75,121/1000,75,100.0
2744,C#5,247.75,121/1000,75,100.0
2745,C4,247.833,123/1000,75,100.0
2746,C5,247.833,123/1000,75,100.0
2747,B5,247.917,0.125,78,100.0
2748,B4,247.917,0.125,78,100.0
2749,B-3,248.0,0.25,86,100.0
2750,B-4,248.0,0.25,86,100.0
2751,D3,248.5,0.5,66,100.0
2752,F3,248.5,0.5,66,100.0
2753,B-3,248.5,0.5,66,100.0
2754,D4,248.5,0.5,66,100.0
2755,B-1,248.5,0.5,64,100.0
2756,F2,248.5,0.5,64,100.0
2757,B-2,248.5,0.5,64,100.0
2758,D5,249.0,0.125,76,100.0
2759,D6,249.0,0.125,76,100.0
2760,C#6,249.125,21/500,66,100.0
2761,C#7,249.125,21/500,66,100.0
2762,C5,249.167,53/500,66,100.0
2763,C6,249.167,53/500,66,100.0
2764,B6,249.25,27/250,67,100.0
2765,B5,249.25,27/250,67,100.0
2766,B-4,249.333,11/100,67,100.0
2767,B-5,249.333,11/100,67,100.0
2768,A6,249.417,14/125,69,100.0
2769,A5,249.417,14/125,69,100.0
2770,G#4,249.5,23/200,69,100.0
2771,G#5,249.5,23/200,69,100.0
2772,G6,249.583,117/1000,72,100.0
2773,G5,249.583,117/1000,72,100.0
2774,F#4,249.667,119/1000,72,100.0
2775,F#5,249.667,119/1000,72,100.0
2776,F6,249.75,121/1000,75,100.0
2777,F5,249.75,121/1000,75,100.0
2778,E4,249.833,123/1000,75,100.0
2779,E5,249.833,123/1000,75,100.0
2780,E-6,249.917,83/1000,78,100.0
2781,E-5,249.917,83/1000,78,100.0
2782,E-6,250.0,21/500,78,100.0
2783,E-5,250.0,21/500,78,100.0
2784,D4,250.0,0.25,86,100.0
2785,D5,250.0,0.25,86,100.0
2786,F4,250.5,0.5,66,100.0
2787,F3,250.5,0.5,66,100.0
2788,B-3,250.5,0.5,66,100.0
2789,D4,250.5,0.5,66,100.0
2790,B-1,250.5,0.5,64,100.0
2791,F2,250.5,0.5,64,100.0
2792,D3,250.5,0.5,64,100.0
2793,F5,251.0,83/1000,70,100.0
2794,F6,251.0,83/1000,70,100.0
2795,E6,251.083,83/1000,62,100.0
2796,E7,251.083,83/1000,62,100.0
2797,E-5,251.167,83/1000,70,100.0
2798,E-6,251.167,83/1000,70,100.0
2799,D7,251.25,83/1000,62,100.0
2800,D6,251.25,83/1000,62,100.0
2801,C#5,251.333,83/1000,72,100.0
2802,C#6,251.333,83/1000,72,100.0
2803,C7,251.417,83/1000,64,100.0
2804,C6,251.417,83/1000,64,100.0
2805,B4,251.5,83/1000,73,100.0
2806,B5,251.5,83/1000,73,100.0
2807,B-6,251.583,83/1000,64,100.0
2808,B-5,251.583,83/1000,64,100.0
2809,A4,251.667,83/1000,74,100.0
2810,A5,251.667,83/1000,74,100.0
2811,G#6,251.75,83/1000,66,100.0
2812,G#5,251.75,83/1000,66,100.0
2813,G4,251.833,83/1000,75,100.0
2814,G5,251.833,83/1000,75,100.0
2815,F#6,251.917,83/1000,66,100.0
2816,F#5,251.917,83/1000,66,100.0
2817,F4,252.0,83/1000,75,100.0
2818,F5,252.0,83/1000,75,100.0
2819,E5,252.083,83/1000,66,100.0
2820,E6,252.083,83/1000,66,100.0
2821,E-4,252.167,83/1000,76,100.0
2822,E-5,252.167,83/1000,76,100.0
2823,D6,252.25,83/1000,66,100.0
2824,D5,252.25,83/1000,66,100.0
2825,C#4,252.333,0.094,76,100.0
2826,C#5,252.333,0.094,76,100.0
2827,C6,252.417,0.094,67,100.0
2828,C5,252.417,0.094,67,100.0
2829,B3,252.5,13/125,78,100.0
2830,B4,252.5,13/125,78,100.0
2831,B-5,252.583,13/125,67,100.0
2832,B-4,252.583,13/125,67,100.0
2833,A3,252.667,13/125,78,100.0
2834,A4,252.667,13/125,78,100.0
2835,G#5,252.75,13/125,68,100.0
2836,G#4,252.75,13/125,68,100.0
2837,G3,252.833,13/125,78,100.0
2838,G4,252.833,13/125,78,100.0
2839,F#5,252.917,13/125,68,100.0
2840,F#4,252.917,13/125,68,100.0
2841,F3,253.0,13/125,79,100.0
2842,F4,253.0,13/125,79,100.0
2843,E4,253.083,13/125,68,100.0
2844,E5,253.083,13/125,68,100.0
2845,E-3,253.167,53/500,80,100.0
2846,E-4,253.167,53/500,80,100.0
2847,D5,253.25,27/250,68,100.0
2848,D4,253.25,27/250,68,100.0
2849,C#3,253.333,11/100,82,100.0
2850,C#4,253.333,11/100,82,100.0
2851,C5,253.417,14/125,69,100.0
2852,C4,253.417,14/125,69,100.0
2853,B2,253.5,23/200,82,100.0
2854,B3,253.5,23/200,82,100.0
2855,B-4,253.583,117/1000,69,100.0
2856,B-3,253.583,117/1000,69,100.0
2857,A2,253.667,119/1000,82,100.0
2858,A3,253.667,119/1000,82,100.0
2859,G#4,253.75,121/1000,69,100.0
2860,G#3,253.75,121/1000,69,100.0
2861,F2,253.833,123/1000,84,100.0
2862,F3,253.833,123/1000,84,100.0
2863,D4,253.917,83/1000,69,100.0
2864,D3,253.917,83/1000,69,100.0
2865,D4,254.0,21/500,69,100.0
2866,D3,254.0,21/500,69,100.0
2867,B-1,254.0,0.5,89,100.0
2868,B-2,254.0,0.5,89,100.0
2869,A2,254.5,83/1000,74,100.0
2870,A1,254.5,83/1000,74,100.0
2871,B-2,254.583,83/1000,72,100.0
2872,B-1,254.583,83/1000,72,100.0
2873,D3,254.667,0.094,72,100.0
2874,D2,254.667,0.094,72,100.0
2875,F3,254.75,12/125,73,100.0
2876,F2,254.75,12/125,73,100.0
2877,G#3,254.833,49/500,73,100.0
2878,G#2,254.833,49/500,73,100.0
2879,B-3,254.917,1/10,74,100.0
2880,B-2,254.917,1/10,74,100.0
2881,D4,255.0,51/500,74,100.0
2882,D3,255.0,51/500,74,100.0
2883,F4,255.083,13/125,76,100.0
2884,F3,255.083,13/125,76,100.0
2885,G#4,255.167,83/1000,76,100.0
2886,G#3,255.167,83/1000,76,100.0
2887,B-4,255.25,83/1000,77,100.0
2888,B-3,255.25,83/1000,77,100.0
2889,D5,255.333,83/1000,77,100.0
2890,D4,255.333,83/1000,77,100.0
2891,F5,255.417,83/1000,77,100.0
2892,F4,255.417,83/1000,77,100.0
2893,G#5,255.5,1/10,78,100.0
2894,G#4,255.5,1/10,78,100.0
2895,B-5,255.6,1/10,78,100.0
2896,B-4,255.6,1/10,78,100.0
2897,D6,255.7,1/10,79,100.0
2898,D5,255.7,1/10,79,100.0
2899,F6,255.8,1/10,80,100.0
2900,F5,255.8,1/10,80,100.0
2901,G#6,255.9,1/10,80,100.0
2902,G#5,255.9,1/10,80,100.0
2903,A6,256.0,13/250,81,100.0
2904,A5,256.0,13/250,81,100.0
2905,C7,256.071,0.062,78,100.0
2906,C6,256.071,0.062,78,100.0
2907,B-6,256.142,0.062,77,100.0
2908,B-5,256.142,0.062,77,100.0
2909,G#6,256.212,0.062,77,100.0
2910,G#5,256.212,0.062,77,100.0
2911,F6,256.283,0.062,77,100.0
2912,F5,256.283,0.062,77,100.0
2913,D6,256.354,0.062,77,100.0
2914,D5,256.354,0.062,77,100.0
2915,B-5,256.425,0.062,77,100.0
2916,B-4,256.425,0.062,77,100.0
2917,A5,256.5,0.062,81,100.0
2918,A4,256.5,0.062,81,100.0
2919,C6,256.571,71/1000,78,100.0
2920,C5,256.571,71/1000,78,100.0
2921,B-5,256.642,71/1000,77,100.0
2922,B-4,256.642,71/1000,77,100.0
2923,G#5,256.712,71/1000,77,100.0
2924,G#4,256.712,71/1000,77,100.0
2925,F5,256.783,71/1000,77,100.0
2926,F4,256.783,71/1000,77,100.0
2927,D5,256.854,71/1000,77,100.0
2928,D4,256.854,71/1000,77,100.0
2929,B-4,256.925,71/1000,77,100.0
2930,B-3,256.925,71/1000,77,100.0
2931,A4,257.0,0.062,81,100.0
2932,A3,257.0,0.062,81,100.0
2933,C5,257.071,71/1000,78,100.0
2934,C4,257.071,71/1000,78,100.0
2935,B-4,257.142,71/1000,77,100.0
2936,B-3,257.142,71/1000,77,100.0
2937,G#4,257.212,71/1000,77,100.0
2938,G#3,257.212,71/1000,77,100.0
2939,F4,257.283,71/1000,77,100.0
2940,F3,257.283,71/1000,77,100.0
2941,D4,257.354,71/1000,77,100.0
2942,D3,257.354,71/1000,77,100.0
2943,B-3,257.425,71/1000,76,100.0
2944,B-2,257.425,71/1000,76,100.0
2945,A3,257.5,13/125,78,100.0
2946,A2,257.5,13/125,78,100.0
2947,B-3,257.6,13/125,80,100.0
2948,B-2,257.6,13/125,80,100.0
2949,D4,257.7,13/125,83,100.0
2950,D3,257.7,13/125,83,100.0
2951,F4,257.8,23/200,85,100.0
2952,F3,257.8,23/200,85,100.0
2953,G#4,257.9,1/10,88,100.0
2954,G#3,257.9,1/10,88,100.0
2955,A2,258.0,0.062,82,100.0
2956,A3,258.0,0.062,82,100.0
2957,B-3,258.077,27/1000,84,100.0
2958,B-4,258.077,27/1000,84,100.0
2959,E-3,258.104,77/1000,67,100.0
2960,E-4,258.104,77/1000,67,100.0
2961,D5,258.156,77/1000,74,100.0
2962,D4,258.156,77/1000,74,100.0
2963,C#3,258.208,77/1000,68,100.0
2964,C#4,258.208,77/1000,68,100.0
2965,C5,258.26,77/1000,70,100.0
2966,C4,258.26,77/1000,70,100.0
2967,B2,258.312,77/1000,70,100.0
2968,B3,258.312,77/1000,70,100.0
2969,B-4,258.365,77/1000,72,100.0
2970,B-3,258.365,77/1000,72,100.0
2971,A2,258.417,77/1000,72,100.0
2972,A3,258.417,77/1000,72,100.0
2973,G#4,258.469,77/1000,74,100.0
2974,G#3,258.469,77/1000,74,100.0
2975,G2,258.521,77/1000,73,100.0
2976,G3,258.521,77/1000,73,100.0
2977,F#4,258.573,77/1000,75,100.0
2978,F#3,258.573,77/1000,75,100.0
2979,F2,258.625,77/1000,75,100.0
2980,F3,258.625,77/1000,75,100.0
2981,E4,258.677,77/1000,78,100.0
2982,E3,258.677,77/1000,78,100.0
2983,E-2,258.729,77/1000,78,100.0
2984,E-3,258.729,77/1000,78,100.0
2985,D4,258.781,77/1000,79,100.0
2986,D3,258.781,77/1000,79,100.0
2987,C#3,258.833,77/1000,89,100.0
2988,C#2,258.833,77/1000,89,100.0
2989,C3,258.885,77/1000,80,100.0
2990,C4,258.885,77/1000,80,100.0
2991,B1,258.938,0.094,81,100.0
2992,B2,258.938,0.094,81,100.0
2993,B-1,259.0,0.188,78,100.0
2994,B-2,259.0,0.188,78,100.0
2995,E-4,259.5,26/125,75,100.0
2996,G4,259.5,26/125,75,100.0
2997,E-5,259.5,26/125,75,100.0
2998,E-3,259.5,26/125,71,100.0
2999,E-2,259.5,26/125,71,100.0
3000,B-2,259.5,26/125,71,100.0
3001,F4,260.0,26/125,81,100.0
3002,G#4,260.0,26/125,81,100.0
3003,F5,260.0,26/125,81,100.0
3004,F3,260.0,26/125,73,100.0
3005,E-2,260.0,26/125,73,100.0
3006,B-2,260.0,26/125,73,100.0
3007,F#4,260.5,26/125,75,100.0
3008,A4,260.5,26/125,75,100.0
3009,F#5,260.5,26/125,75,100.0
3010,F#3,260.5,26/125,71,100.0
3011,E-2,260.5,26/125,71,100.0
3012,B-2,260.5,26/125,71,100.0
3013,G3,261.0,0.5,73,100.0
3014,B-4,261.0,0.5,81,100.0
3015,G4,261.0,0.5,81,100.0
3016,G5,261.0,0.5,81,100.0
3017,E-2,261.0,1.0,73,100.0
3018,B-2,261.0,1.0,73,100.0
3019,E-3,261.5,0.25,71,100.0
3020,E-4,261.5,0.25,76,100.0
3021,E-5,261.5,0.25,76,100.0
3022,A2,262.0,0.094,76,100.0
3023,A3,262.0,0.094,76,100.0
3024,B-3,262.106,7/200,76,100.0
3025,B-4,262.106,7/200,76,100.0
3026,G3,262.142,53/500,72,100.0
3027,G4,262.142,53/500,72,100.0
3028,F4,262.212,53/500,68,100.0
3029,F5,262.212,53/500,68,100.0
3030,E-3,262.283,53/500,73,100.0
3031,E-4,262.283,53/500,73,100.0
3032,D4,262.354,53/500,71,100.0
3033,D5,262.354,53/500,71,100.0
3034,C3,262.425,53/500,76,100.0
3035,C4,262.425,53/500,76,100.0
3036,B-3,262.496,53/500,75,100.0
3037,B-4,262.496,53/500,75,100.0
3038,G#2,262.567,53/500,80,100.0
3039,G#3,262.567,53/500,80,100.0
3040,G3,262.637,53/500,76,100.0
3041,G4,262.637,53/500,76,100.0
3042,F2,262.708,53/500,82,100.0
3043,F3,262.708,53/500,82,100.0
3044,E-3,262.779,53/500,82,100.0
3045,E-4,262.779,53/500,82,100.0
3046,D2,262.85,53/500,84,100.0
3047,D3,262.85,53/500,84,100.0
3048,C3,262.921,119/1000,83,100.0
3049,C4,262.921,119/1000,83,100.0
3050,B-1,263.0,0.188,86,100.0
3051,B-2,263.0,0.188,86,100.0
3052,E-4,263.5,26/125,74,100.0
3053,G4,263.5,26/125,74,100.0
3054,E-5,263.5,26/125,74,100.0
3055,E-3,263.5,26/125,69,100.0
3056,E-2,263.5,26/125,69,100.0
3057,B-2,263.5,26/125,69,100.0
3058,F4,264.0,26/125,79,100.0
3059,G#4,264.0,26/125,79,100.0
3060,F5,264.0,26/125,79,100.0
3061,D3,264.0,26/125,75,100.0
3062,F3,264.0,26/125,75,100.0
3063,E-2,264.0,26/125,75,100.0
3064,B2,264.0,26/125,75,100.0
3065,G4,264.5,26/125,74,100.0
3066,B-4,264.5,26/125,74,100.0
3067,G5,264.5,26/125,74,100.0
3068,G3,264.5,26/125,69,100.0
3069,E-2,264.5,26/125,69,100.0
3070,B-2,264.5,26/125,69,100.0
3071,G4,265.0,479/500,69,100.0
3072,E-4,265.0,479/500,69,100.0
3073,E-5,265.0,479/500,69,100.0
3074,E-3,265.0,479/500,67,100.0
3075,E-2,265.0,479/500,67,100.0
3076,B-2,265.0,479/500,67,100.0
3077,A6,266.0,0.062,41,100.0
3078,B-6,266.067,0.062,36,100.0
3079,E-7,266.133,1/20,37,100.0
3080,C7,266.133,1/20,37,100.0
3081,B-6,266.242,1/20,36,100.0
3082,G#6,266.242,1/20,36,100.0
3083,G6,266.35,1/20,33,100.0
3084,F6,266.404,1/20,37,100.0
3085,E-6,266.404,1/20,37,100.0
3086,D6,266.512,1/20,36,100.0
3087,C6,266.512,1/20,36,100.0
3088,B-5,266.621,1/20,36,100.0
3089,G#5,266.621,1/20,36,100.0
3090,G5,266.729,1/20,36,100.0
3091,F5,266.729,1/20,36,100.0
3092,E-5,266.837,1/20,36,100.0
3093,D5,266.837,1/20,36,100.0
3094,C5,266.95,1/20,36,100.0
3095,B-4,267.0,0.188,41,100.0
3096,E-3,267.5,0.188,29,100.0
3097,G3,267.5,0.188,30,100.0
3098,B-3,267.5,0.188,30,100.0
3099,E-4,267.5,0.188,30,100.0
3100,D3,268.0,0.188,32,100.0
3101,G#3,268.0,0.188,33,100.0
3102,B3,268.0,0.188,33,100.0
3103,F4,268.0,0.188,33,100.0
3104,D2,268.5,0.188,30,100.0
3105,A3,268.5,0.188,32,100.0
3106,C4,268.5,0.188,32,100.0
3107,F#4,268.5,0.188,32,100.0
3108,G2,269.0,1.0,29,100.0
3109,D3,269.0,0.5,29,100.0
3110,B3,269.0,0.5,32,100.0
3111,G4,269.0,0.5,32,100.0
3112,B2,269.5,0.25,27,100.0
3113,G3,269.5,0.25,30,100.0
3114,D4,269.5,0.25,30,100.0
3115,B-6,270.0,0.062,27,100.0
3116,F#6,270.0,0.062,27,100.0
3117,B6,270.062,0.062,27,100.0
3118,G6,270.062,0.062,27,100.0
3119,G7,270.125,0.062,29,100.0
3120,B6,270.125,0.062,29,100.0
3121,F#7,270.188,0.062,29,100.0
3122,A6,270.188,0.062,29,100.0
3123,E7,270.25,0.062,29,100.0
3124,G6,270.25,0.062,29,100.0
3125,D7,270.312,0.062,29,100.0
3126,F#6,270.312,0.062,29,100.0
3127,C7,270.375,0.062,29,100.0
3128,E6,270.375,0.062,29,100.0
3129,B6,270.438,0.062,28,100.0
3130,D6,270.438,0.062,28,100.0
3131,A6,270.5,0.062,28,100.0
3132,C6,270.5,0.062,28,100.0
3133,G6,270.562,0.062,28,100.0
3134,B5,270.562,0.062,28,100.0
3135,F#6,270.625,0.062,28,100.0
3136,A5,270.625,0.062,28,100.0
3137,E6,270.688,0.062,28,100.0
3138,G5,270.688,0.062,28,100.0
3139,D6,270.75,0.062,27,100.0
3140,F#5,270.75,0.062,27,100.0
3141,C6,270.812,0.062,27,100.0
3142,E5,270.812,0.062,27,100.0
3143,B5,270.875,0.062,27,100.0
3144,D5,270.875,0.062,27,100.0
3145,A5,270.938,0.062,27,100.0
3146,C5,270.938,0.062,27,100.0
3147,G5,271.0,0.188,27,100.0
3148,B4,271.0,0.188,27,100.0
3149,C3,271.5,229/500,32,100.0
3150,C4,271.5,229/500,33,100.0
3151,E4,271.5,229/500,33,100.0
3152,G4,271.5,229/500,33,100.0
3153,F2,272.0,417/1000,36,100.0
3154,C4,272.0,417/1000,33,100.0
3155,G#4,272.0,417/1000,33,100.0
3156,F4,272.0,417/1000,33,100.0
3157,G#3,272.5,229/500,32,100.0
3158,D4,272.5,229/500,32,100.0
3159,B-4,272.5,229/500,32,100.0
3160,B-1,272.5,229/500,35,100.0
3161,B-2,272.5,229/500,35,100.0
3162,G3,273.0,0.938,30,100.0
3163,E-4,273.0,0.938,30,100.0
3164,B-4,273.0,0.938,30,100.0
3165,E-2,273.0,0.938,35,100.0
3166,B-2,273.0,0.938,35,100.0
3167,A3,274.0,81/1000,39,100.0
3168,B-3,274.083,81/1000,43,100.0
3169,E-4,274.167,81/1000,44,100.0
3170,D4,274.25,81/1000,43,100.0
3171,C4,274.333,81/1000,43,100.0
3172,B-3,274.417,81/1000,42,100.0
3173,G#3,274.5,81/1000,41,100.0
3174,G3,274.583,81/1000,41,100.0
3175,F3,274.667,81/1000,39,100.0
3176,E-3,274.75,81/1000,39,100.0
3177,D3,274.833,81/1000,39,100.0
3178,C3,274.917,81/1000,39,100.0
3179,B2,275.0,2.0,42,100.0
3180,E-6,275.5,417/1000,36,100.0
3181,B5,275.5,417/1000,36,100.0
3182,E-5,275.5,417/1000,36,100.0
3183,E-2,275.5,417/1000,26,100.0
3184,A2,275.5,417/1000,26,100.0
3185,F#3,275.5,417/1000,26,100.0
3186,F6,276.0,417/1000,38,100.0
3187,B5,276.0,417/1000,38,100.0
3188,E-5,276.0,417/1000,38,100.0
3189,E-2,276.0,417/1000,28,100.0
3190,A2,276.0,417/1000,28,100.0
3191,F#3,276.0,417/1000,28,100.0
3192,F#6,276.5,0.375,39,100.0
3193,B5,276.5,0.375,39,100.0
3194,E-5,276.5,0.375,39,100.0
3195,E-2,276.5,0.375,28,100.0
3196,A2,276.5,0.375,28,100.0
3197,F#3,276.5,0.375,28,100.0
3198,E-2,276.896,13/125,32,100.0
3199,B-2,276.896,13/125,32,100.0
3200,G3,276.896,13/125,32,100.0
3201,E-5,276.977,23/1000,35,100.0
3202,B-5,276.977,23/1000,35,100.0
3203,G6,277.0,0.5,38,100.0
3204,E-5,277.0,499/500,35,100.0
3205,B-5,277.0,499/500,35,100.0
3206,E-2,277.0,229/500,32,100.0
3207,B-2,277.0,229/500,32,100.0
3208,G3,277.0,229/500,32,100.0
3209,E-6,277.5,0.25,36,100.0
3210,A3,278.0,3/50,37,100.0
3211,B-3,278.071,3/50,41,100.0
3212,G4,278.142,3/50,42,100.0
3213,F4,278.212,3/50,42,100.0
3214,E-4,278.283,3/50,42,100.0
3215,D4,278.354,3/50,42,100.0
3216,C4,278.425,3/50,41,100.0
3217,B-3,278.496,3/50,41,100.0
3218,G#3,278.567,3/50,41,100.0
3219,G3,278.637,3/50,41,100.0
3220,F3,278.708,3/50,39,100.0
3221,E-3,278.779,3/50,39,100.0
3222,D3,278.85,3/50,39,100.0
3223,C3,278.921,69/1000,37,100.0
3224,B-2,279.0,2.0,41,100.0
3225,E2,279.5,0.5,35,100.0
3226,B-3,279.5,0.5,34,100.0
3227,C#4,279.5,0.5,34,100.0
3228,G4,279.5,0.5,34,100.0
3229,F2,280.0,229/500,37,100.0
3230,B-3,280.0,229/500,37,100.0
3231,C4,280.0,229/500,37,100.0
3232,G#4,280.0,229/500,37,100.0
3233,B-1,280.5,0.5,33,100.0
3234,G#4,280.5,0.375,37,100.0
3235,C5,280.5,0.375,37,100.0
3236,B-3,280.5,0.5,29,100.0
3237,D4,280.5,0.5,29,100.0
3238,G4,280.875,0.125,32,100.0
3239,B-4,280.875,0.125,32,100.0
3240,E-2,281.0,1.0,32,100.0
3241,B-2,281.0,1.0,41,100.0
3242,E-4,281.0,1.0,31,100.0
3243,G4,281.0,1.0,31,100.0
3244,A6,282.0,0.062,36,100.0
3245,B-6,282.067,0.062,32,100.0
3246,E-7,282.133,1/20,34,100.0
3247,C7,282.133,1/20,34,100.0
3248,B-6,282.242,1/20,32,100.0
3249,G#6,282.242,1/20,32,100.0
3250,G6,282.35,1/20,29,100.0
3251,F6,282.404,1/20,33,100.0
3252,E-6,282.404,1/20,33,100.0
3253,D6,282.512,1/20,32,100.0
3254,C6,282.512,1/20,32,100.0
3255,B-5,282.621,1/20,32,100.0
3256,G#5,282.621,1/20,32,100.0
3257,G5,282.729,1/20,32,100.0
3258,F5,282.729,1/20,32,100.0
3259,E-5,282.837,1/20,32,100.0
3260,D5,282.837,1/20,32,100.0
3261,C5,282.95,1/20,32,100.0
3262,B4,283.0,2.0,36,100.0
3263,A4,283.5,417/1000,36,100.0
3264,E-5,283.5,417/1000,36,100.0
3265,B5,283.5,417/1000,36,100.0
3266,B3,283.5,417/1000,34,100.0
3267,F#4,283.5,417/1000,34,100.0
3268,A4,284.0,417/1000,37,100.0
3269,B5,284.0,417/1000,37,100.0
3270,E5,284.0,417/1000,37,100.0
3271,B3,284.0,417/1000,34,100.0
3272,E4,284.0,417/1000,34,100.0
3273,A4,284.5,0.375,39,100.0
3274,F#5,284.5,0.375,39,100.0
3275,B5,284.5,0.375,39,100.0
3276,B3,284.5,0.375,34,100.0
3277,E-4,284.5,0.375,34,100.0
3278,G#5,285.0,0.5,42,100.0
3279,B5,285.0,0.5,42,100.0
3280,E4,285.0,0.5,38,100.0
3281,G#4,285.0,0.5,38,100.0
3282,G#6,285.5,0.25,41,100.0
3283,E6,285.5,0.25,41,100.0
3284,B4,285.5,0.25,31,100.0
3285,E5,285.5,0.25,31,100.0
3286,B-4,286.0,67/1000,36,100.0
3287,B4,286.067,67/1000,32,100.0
3288,G#5,286.133,67/1000,36,100.0
3289,F#5,286.2,67/1000,35,100.0
3290,E5,286.267,67/1000,33,100.0
3291,E-5,286.333,67/1000,33,100.0
3292,C#5,286.4,67/1000,32,100.0
3293,B4,286.467,67/1000,32,100.0
3294,A4,286.533,67/1000,32,100.0
3295,G#4,286.6,67/1000,32,100.0
3296,F#4,286.667,67/1000,32,100.0
3297,E4,286.733,67/1000,32,100.0
3298,E-4,286.8,67/1000,32,100.0
3299,C#4,286.867,67/1000,32,100.0
3300,B3,286.933,67/1000,32,100.0
3301,B-3,287.0,2.0,35,100.0
3302,E3,287.5,0.5,32,100.0
3303,C#4,287.5,0.5,33,100.0
3304,G4,287.5,0.5,33,100.0
3305,B-4,287.5,0.5,33,100.0
3306,F3,288.0,229/500,36,100.0
3307,D4,288.0,229/500,34,100.0
3308,G#4,288.0,229/500,34,100.0
3309,B-4,288.0,229/500,34,100.0
3310,D4,288.312,0.688,30,100.0
3311,G#4,288.375,0.625,27,100.0
3312,D5,288.438,0.062,31,100.0
3313,C5,288.5,0.375,36,100.0
3314,B-2,288.5,0.5,31,100.0
3315,B-4,288.875,0.125,32,100.0
3316,E-3,289.0,479/500,27,100.0
3317,B-4,289.0,479/500,28,100.0
3318,E-4,289.0,479/500,28,100.0
3319,G4,289.0,479/500,28,100.0
3320,A3,290.0,3/50,36,100.0
3321,B-3,290.071,3/50,38,100.0
3322,G4,290.142,3/50,38,100.0
3323,F4,290.212,3/50,38,100.0
3324,E-4,290.283,3/50,38,100.0
3325,D4,290.354,3/50,38,100.0
3326,C4,290.425,3/50,38,100.0
3327,B-3,290.496,3/50,38,100.0
3328,G#3,290.567,3/50,38,100.0
3329,G3,290.637,3/50,38,100.0
3330,F3,290.708,3/50,37,100.0
3331,E-3,290.779,3/50,37,100.0
3332,D3,290.85,3/50,37,100.0
3333,C3,290.921,69/1000,36,100.0
3334,B-2,291.0,2.0,38,100.0
3335,E2,291.5,0.5,33,100.0
3336,G3,291.5,0.5,33,100.0
3337,B-3,291.5,0.5,33,100.0
3338,C#4,291.5,0.5,33,100.0
3339,F2,292.0,229/500,36,100.0
3340,G#3,292.0,229/500,34,100.0
3341,B-3,292.0,229/500,34,100.0
3342,D4,292.0,229/500,34,100.0
3343,D4,292.5,0.5,31,100.0
3344,B-1,292.5,0.5,31,100.0
3345,G#3,292.5,0.375,34,100.0
3346,C4,292.5,0.375,34,100.0
3347,G3,292.875,0.125,29,100.0
3348,B-3,292.875,0.125,29,100.0
3349,E-2,293.0,1.0,26,100.0
3350,B-2,293.0,1.0,38,100.0
3351,G3,293.0,1.0,28,100.0
3352,E-3,293.0,1.0,28,100.0
3353,E-4,293.0,1.0,28,100.0
3354,A6,294.0,81/1000,36,100.0
3355,B-6,294.092,81/1000,31,100.0
3356,E-7,294.183,81/1000,36,100.0
3357,C7,294.275,81/1000,36,100.0
3358,B-6,294.367,81/1000,35,100.0
3359,G#6,294.458,81/1000,33,100.0
3360,G6,294.55,81/1000,32,100.0
3361,F6,294.642,81/1000,33,100.0
3362,E-6,294.733,81/1000,33,100.0
3363,D6,294.825,81/1000,32,100.0
3364,C6,294.917,73/1000,32,100.0
3365,A5,295.0,67/1000,33,100.0
3366,B-5,295.077,67/1000,35,100.0
3367,G6,295.154,67/1000,36,100.0
3368,E-6,295.231,67/1000,36,100.0
3369,D6,295.308,67/1000,37,100.0
3370,C6,295.385,67/1000,38,100.0
3371,B-5,295.462,67/1000,39,100.0
3372,G#5,295.54,67/1000,38,100.0
3373,G5,295.617,67/1000,39,100.0
3374,F5,295.694,67/1000,41,100.0
3375,E-5,295.771,67/1000,42,100.0
3376,D5,295.848,67/1000,43,100.0
3377,C5,295.925,67/1000,45,100.0
3378,A4,296.0,81/1000,44,100.0
3379,B-4,296.092,81/1000,45,100.0
3380,E-5,296.183,81/1000,46,100.0
3381,C5,296.275,81/1000,49,100.0
3382,B-4,296.367,81/1000,51,100.0
3383,G#4,296.458,81/1000,53,100.0
3384,G4,296.55,81/1000,55,100.0
3385,F4,296.642,81/1000,55,100.0
3386,E-4,296.733,81/1000,57,100.0
3387,D4,296.825,81/1000,59,100.0
3388,C4,296.917,73/1000,62,100.0
3389,A3,297.0,67/1000,53,100.0
3390,B-3,297.077,67/1000,54,100.0
3391,G4,297.154,67/1000,56,100.0
3392,E-4,297.231,67/1000,57,100.0
3393,D4,297.308,67/1000,59,100.0
3394,C4,297.385,67/1000,60,100.0
3395,B-3,297.462,67/1000,63,100.0
3396,G#3,297.54,67/1000,62,100.0
3397,G3,297.617,67/1000,63,100.0
3398,F3,297.694,67/1000,65,100.0
3399,E-3,297.771,67/1000,67,100.0
3400,D3,297.848,67/1000,69,100.0
3401,C3,297.925,67/1000,71,100.0
3402,B-2,298.0,1.0,86,100.0
3403,E-4,298.5,0.5,64,100.0
3404,B-3,298.5,0.5,64,100.0
3405,G3,298.5,0.5,64,100.0
3406,E-3,298.5,0.5,64,100.0
3407,C#2,298.5,0.5,62,100.0
3408,E-2,298.5,0.5,62,100.0
3409,B2,299.0,1.0,81,100.0
3410,E-4,299.5,0.5,62,100.0
3411,B3,299.5,0.5,62,100.0
3412,F#3,299.5,0.5,62,100.0
3413,E-3,299.5,0.5,62,100.0
3414,B1,299.5,0.5,60,100.0
3415,E-2,299.5,0.5,60,100.0
3416,E-4,300.0,0.5,62,100.0
3417,B3,300.0,0.5,62,100.0
3418,G#3,300.0,0.5,62,100.0
3419,E-3,300.0,0.5,62,100.0
3420,G#1,300.0,0.5,65,100.0
3421,E-2,300.0,0.5,65,100.0
3422,B2,300.0,0.5,65,100.0
3423,F4,300.5,0.5,62,100.0
3424,B3,300.5,0.5,62,100.0
3425,G#3,300.5,0.5,62,100.0
3426,F3,300.5,0.5,62,100.0
3427,G#1,300.5,0.5,65,100.0
3428,E-2,300.5,0.5,65,100.0
3429,G#2,300.5,0.5,65,100.0
3430,G3,301.0,2.0,69,100.0
3431,B-3,301.0,2.0,69,100.0
3432,E-4,301.0,2.0,69,100.0
3433,G4,301.0,2.0,69,100.0
3434,E-1,301.0,2.0,64,100.0
3435,B-1,301.0,2.0,64,100.0
3436,E-2,301.0,2.0,64,100.0
3437,G3,303.0,1.0,67,100.0
3438,B-3,303.0,1.0,67,100.0
3439,E-4,303.0,1.0,67,100.0
3440,G4,303.0,1.0,67,100.0
3441,E-1,303.0,1.0,64,100.0
3442,B-1,303.0,1.0,64,100.0
3443,E-2,303.0,1.0,64,100.0
3444,G3,304.0,1.0,67,100.0
3445,B-3,304.0,1.0,67,100.0
3446,E-4,304.0,1.0,67,100.0
3447,G4,304.0,1.0,67,100.0
3448,E-1,304.0,1.0,64,100.0
3449,B-1,304.0,1.0,64,100.0
3450,E-2,304.0,1.0,64,100.0
3451,G3,305.0,4.0,67,100.0
3452,B-3,305.0,4.0,67,100.0
3453,E-4,305.0,4.0,67,100.0
3454,G4,305.0,4.0,67,100.0
3455,E-1,305.0,4.0,64,100.0
3456,B-1,305.0,4.0,64,100.0
3457,E-2,305.0,4.0,64,100.0
