,note_name,start_time,duration,velocity,tempo
0,B2,0.0,0.188,77,114.2
1,B1,0.0,0.188,61,114.2
2,B2,0.25,0.75,92,114.2
3,B1,0.25,0.75,73,114.2
4,C#3,1.0,0.125,48,114.2
5,C#2,1.0,0.125,38,114.2
6,E-3,1.125,0.125,50,114.2
7,E-2,1.125,0.125,39,114.2
8,E3,1.25,0.125,51,114.2
9,E2,1.25,0.125,40,114.2
10,F#3,1.375,0.125,52,114.2
11,F#2,1.375,0.125,41,114.2
12,G#3,1.5,0.125,53,114.2
13,G#2,1.5,0.125,42,114.2
14,A3,1.625,0.125,54,114.2
15,A2,1.625,0.125,43,114.2
16,B3,1.75,0.125,55,114.2
17,B2,1.75,0.125,44,114.2
18,C#4,1.875,0.125,56,114.2
19,C#3,1.875,0.125,45,114.2
20,E-4,2.0,0.125,57,114.2
21,E-3,2.0,0.125,45,114.2
22,E4,2.125,0.125,58,114.2
23,E3,2.125,0.125,46,114.2
24,F#4,2.25,0.125,59,114.2
25,F#3,2.25,0.125,46,114.2
26,G#4,2.375,0.125,61,114.2
27,G#3,2.375,0.125,48,114.2
28,A4,2.5,0.125,62,114.2
29,A3,2.5,0.125,49,114.2
30,B4,2.625,0.125,63,114.2
31,B3,2.625,0.125,50,114.2
32,C#5,2.75,0.125,63,114.2
33,C#4,2.75,0.125,50,114.2
34,E-5,2.875,0.125,64,114.2
35,E-4,2.875,0.125,51,114.2
36,E5,3.0,0.125,66,114.2
37,E4,3.0,0.125,53,114.2
38,F#5,3.125,0.125,67,114.2
39,F#4,3.125,0.125,54,114.2
40,G#5,3.25,0.125,68,114.2
41,G#4,3.25,0.125,54,114.2
42,A5,3.375,0.125,69,114.2
43,A4,3.375,0.125,54,114.2
44,B5,3.5,0.125,70,114.2
45,B4,3.5,0.125,55,114.2
46,C#6,3.625,0.125,72,114.2
47,C#5,3.625,0.125,57,114.2
48,E-6,3.75,0.125,72,114.2
49,E-5,3.75,0.125,57,114.2
50,E6,3.875,0.125,73,114.2
51,E5,3.875,0.125,58,114.2
52,F#6,4.0,0.125,74,114.2
53,F#5,4.0,0.125,59,114.2
54,G#6,4.125,0.125,75,114.2
55,G#5,4.125,0.125,60,114.2
56,A6,4.25,0.125,77,114.2
57,A5,4.25,0.125,61,114.2
58,B6,4.375,0.375,98,114.2
59,B5,4.375,0.375,78,114.2
60,C#3,5.0,0.188,70,114.2
61,B2,5.0,0.188,70,114.2
62,E2,5.0,0.188,56,114.2
63,B1,5.0,0.188,56,114.2
64,C#3,5.25,0.75,85,114.2
65,B2,5.25,0.75,85,114.2
66,E2,5.25,0.75,67,114.2
67,B1,5.25,0.75,67,114.2
68,E-3,6.0,0.125,48,114.2
69,F#2,6.0,0.125,38,114.2
70,E3,6.125,0.125,50,114.2
71,G#2,6.125,0.125,40,114.2
72,F#3,6.25,0.125,51,114.2
73,A2,6.25,0.125,40,114.2
74,G#3,6.375,0.125,52,114.2
75,B2,6.375,0.125,41,114.2
76,A3,6.5,0.125,53,114.2
77,C#3,6.5,0.125,42,114.2
78,B3,6.625,0.125,54,114.2
79,E-3,6.625,0.125,43,114.2
80,C#4,6.75,0.125,55,114.2
81,E3,6.75,0.125,44,114.2
82,E-4,6.875,0.125,56,114.2
83,F#3,6.875,0.125,44,114.2
84,E4,7.0,0.125,57,114.2
85,G#3,7.0,0.125,45,114.2
86,F#4,7.125,0.125,58,114.2
87,A3,7.125,0.125,46,114.2
88,G#4,7.25,0.125,59,114.2
89,B3,7.25,0.125,47,114.2
90,A4,7.375,0.125,61,114.2
91,C#4,7.375,0.125,48,114.2
92,B4,7.5,0.125,62,114.2
93,E-4,7.5,0.125,49,114.2
94,C#5,7.625,0.125,63,114.2
95,E4,7.625,0.125,50,114.2
96,E-5,7.75,0.125,63,114.2
97,F#4,7.75,0.125,50,114.2
98,E5,7.875,0.125,64,114.2
99,G#4,7.875,0.125,51,114.2
100,F#5,8.0,0.125,66,114.2
101,A4,8.0,0.125,52,114.2
102,G#5,8.125,0.125,67,114.2
103,B4,8.125,0.125,53,114.2
104,A5,8.25,0.125,68,114.2
105,C#5,8.25,0.125,54,114.2
106,B5,8.375,0.125,69,114.2
107,E-5,8.375,0.125,55,114.2
108,C#6,8.5,0.125,70,114.2
109,E5,8.5,0.125,56,114.2
110,E-6,8.625,0.125,72,114.2
111,F#5,8.625,0.125,57,114.2
112,E6,8.75,0.125,72,114.2
113,G#5,8.75,0.125,57,114.2
114,F#6,8.875,0.125,73,114.2
115,A5,8.875,0.125,58,114.2
116,G#6,9.0,0.125,74,114.2
117,B5,9.0,0.125,59,114.2
118,A6,9.125,0.125,75,114.2
119,C#6,9.125,0.125,60,114.2
120,B6,9.25,0.125,77,114.2
121,E-6,9.25,0.125,61,114.2
122,C#7,9.375,0.375,98,114.2
123,E6,9.375,0.375,78,114.2
124,F#3,10.0,0.188,70,114.2
125,E3,10.0,0.188,70,114.2
126,A2,10.0,0.188,56,114.2
127,B1,10.0,0.188,56,114.2
128,F#3,10.25,0.75,85,114.2
129,E3,10.25,0.75,85,114.2
130,A2,10.25,0.75,67,114.2
131,B1,10.25,0.75,67,114.2
132,G#3,11.0,0.125,52,114.2
133,B2,11.0,0.125,39,114.2
134,A3,11.125,0.125,53,114.2
135,C#3,11.125,0.125,40,114.2
136,B3,11.25,0.125,55,114.2
137,E-3,11.25,0.125,41,114.2
138,C#4,11.375,0.125,56,114.2
139,E3,11.375,0.125,42,114.2
140,E-4,11.5,0.125,57,114.2
141,F#3,11.5,0.125,43,114.2
142,E4,11.625,0.125,59,114.2
143,G#3,11.625,0.125,44,114.2
144,F#4,11.75,0.125,60,114.2
145,A3,11.75,0.125,46,114.2
146,G#4,11.875,0.125,61,114.2
147,B3,11.875,0.125,47,114.2
148,A4,12.0,0.125,62,114.2
149,C#4,12.0,0.125,48,114.2
150,B4,12.125,0.125,64,114.2
151,E-4,12.125,0.125,49,114.2
152,C#5,12.25,0.125,65,114.2
153,E4,12.25,0.125,50,114.2
154,E-5,12.375,0.125,66,114.2
155,E-4,12.375,0.125,51,114.2
156,E5,12.5,0.125,68,114.2
157,C#4,12.5,0.125,52,114.2
158,F#5,12.625,0.125,69,114.2
159,B3,12.625,0.125,53,114.2
160,G#5,12.75,0.125,70,114.2
161,A3,12.75,0.125,54,114.2
162,A5,12.875,0.125,72,114.2
163,G#3,12.875,0.125,55,114.2
164,B5,13.0,0.125,73,114.2
165,F#3,13.0,0.125,56,114.2
166,C#6,13.125,0.125,74,114.2
167,E3,13.125,0.125,58,114.2
168,E-6,13.25,0.125,76,114.2
169,E-3,13.25,0.125,59,114.2
170,E6,13.375,0.125,77,114.2
171,C#3,13.375,0.125,60,114.2
172,F#6,13.5,0.125,78,114.2
173,B2,13.5,0.125,61,114.2
174,G#6,13.625,0.125,80,114.2
175,A2,13.625,0.125,62,114.2
176,A6,13.75,0.125,81,114.2
177,G#2,13.75,0.125,63,114.2
178,B6,13.875,0.125,82,114.2
179,F#2,13.875,0.125,64,114.2
180,C#7,14.0,0.125,83,114.2
181,E2,14.0,0.125,65,114.2
182,E-7,14.125,0.125,85,114.2
183,E-2,14.125,0.125,66,114.2
184,E7,14.25,0.125,86,114.2
185,C#2,14.25,0.125,67,114.2
186,F#7,14.375,0.625,98,114.2
187,B1,14.375,0.625,83,114.2
188,F#7,15.0,0.25,98,114.2
189,B1,15.0,0.25,83,114.2
190,B2,15.854,229/500,56,114.2
191,E3,15.854,229/500,56,114.2
192,F#3,15.854,229/500,56,114.2
193,C#4,15.917,0.438,59,114.2
194,E4,15.938,0.375,68,114.2
195,A4,15.938,0.375,68,114.2
196,C#5,15.938,0.375,68,114.2
197,F#5,16.0,177/500,72,114.2
198,B2,16.354,0.562,59,114.2
199,E3,16.354,0.562,59,114.2
200,F#3,16.354,0.562,59,114.2
201,C4,16.417,271/500,62,114.2
202,E5,16.438,479/1000,72,114.2
203,A5,16.438,479/1000,72,114.2
204,C6,16.438,479/1000,72,114.2
205,F#6,16.5,229/500,75,114.2
206,B1,16.958,21/500,67,114.2
207,F#2,16.958,21/500,67,114.2
208,E-3,16.958,21/500,67,114.2
209,B4,17.0,26/125,68,114.2
210,A3,17.0,26/125,68,114.2
211,E-4,17.0,26/125,68,114.2
212,B1,17.0,167/1000,67,114.2
213,F#2,17.0,167/1000,67,114.2
214,E-3,17.0,167/1000,67,114.2
215,B2,17.208,26/125,70,114.2
216,F#3,17.208,26/125,70,114.2
217,E-4,17.208,26/125,70,114.2
218,B5,17.25,26/125,71,114.2
219,E-5,17.25,26/125,71,114.2
220,A4,17.25,26/125,71,114.2
221,B3,17.458,0.25,75,114.2
222,F#4,17.458,0.25,75,114.2
223,E-5,17.458,0.25,75,114.2
224,B6,17.5,0.25,85,114.2
225,E-6,17.5,0.25,85,114.2
226,A5,17.5,0.25,85,114.2
227,B4,18.875,0.094,71,114.2
228,B3,18.875,0.094,71,114.2
229,E2,18.938,0.062,71,114.2
230,B2,18.938,0.062,71,114.2
231,G#3,19.0,0.5,77,114.2
232,B4,19.0,0.5,69,114.2
233,B3,19.0,0.5,69,114.2
234,E4,19.0,0.5,69,114.2
235,E2,19.0,0.969,71,114.2
236,B2,19.0,0.969,71,114.2
237,A3,19.5,0.125,59,114.2
238,C#5,19.5,0.125,56,114.2
239,C#4,19.5,0.125,56,114.2
240,B3,19.75,0.25,61,114.2
241,E-5,19.75,0.125,58,114.2
242,E-4,19.75,0.125,58,114.2
243,C#4,20.0,0.125,62,114.2
244,E5,20.0,0.125,60,114.2
245,E4,20.0,0.125,60,114.2
246,E-4,20.25,0.125,64,114.2
247,F#5,20.25,0.125,62,114.2
248,F#4,20.25,0.125,62,114.2
249,E4,20.5,0.125,65,114.2
250,G#5,20.5,0.125,64,114.2
251,G#4,20.5,0.125,64,114.2
252,F#4,20.75,0.125,67,114.2
253,A4,20.75,0.125,71,114.2
254,A5,20.75,0.125,71,114.2
255,G#4,21.0,0.25,68,114.2
256,B5,21.0,0.25,67,114.2
257,B4,21.0,0.25,67,114.2
258,B2,21.5,0.125,59,114.2
259,B1,21.5,0.125,59,114.2
260,F#5,21.75,0.125,62,114.2
261,A5,21.75,0.125,62,114.2
262,A4,21.75,0.125,62,114.2
263,C3,21.75,0.125,54,114.2
264,C2,21.75,0.125,54,114.2
265,G#5,22.0,0.188,63,114.2
266,G#4,22.0,0.188,63,114.2
267,E5,22.0,0.188,63,114.2
268,C#3,22.0,0.188,59,114.2
269,C#2,22.0,0.188,59,114.2
270,F#5,22.5,0.188,58,114.2
271,F#4,22.5,0.188,58,114.2
272,B4,22.5,0.188,58,114.2
273,E-3,22.5,0.188,56,114.2
274,E-2,22.5,0.188,56,114.2
275,E2,22.875,0.125,54,114.2
276,B2,22.938,0.062,54,114.2
277,B4,23.0,1.0,73,114.2
278,G#3,23.0,0.5,64,114.2
279,E2,23.0,0.5,54,114.2
280,B2,23.0,0.5,54,114.2
281,F#5,23.0,0.5,67,114.2
282,F#4,23.0,0.5,67,114.2
283,E5,23.5,0.375,61,114.2
284,E4,23.5,0.375,61,114.2
285,F#5,23.875,0.125,65,114.2
286,B4,24.0,0.188,69,114.2
287,E5,24.0,0.188,69,114.2
288,E4,24.0,0.188,69,114.2
289,B3,24.0,0.188,52,114.2
290,B2,24.0,0.188,52,114.2
291,F#3,24.0,0.188,52,114.2
292,A3,24.0,0.188,52,114.2
293,E-5,24.5,0.188,58,114.2
294,E-4,24.5,0.188,58,114.2
295,E5,25.0,0.5,61,114.2
296,E4,25.0,0.5,61,114.2
297,B4,25.0,0.5,61,114.2
298,B3,25.0,0.5,53,114.2
299,E3,25.0,0.5,53,114.2
300,G#3,25.0,0.5,53,114.2
301,G#4,26.75,0.25,69,114.2
302,C5,26.75,0.25,69,114.2
303,C4,26.75,0.25,69,114.2
304,E3,26.75,0.25,54,114.2
305,G#3,26.75,0.25,54,114.2
306,A3,27.0,0.5,77,114.2
307,C#5,27.0,0.5,69,114.2
308,C#4,27.0,0.5,69,114.2
309,A4,27.0,0.5,69,114.2
310,A2,27.0,2.0,67,114.2
311,E3,27.0,2.0,67,114.2
312,B3,27.5,0.125,59,114.2
313,B4,27.5,0.125,55,114.2
314,E-5,27.5,0.125,55,114.2
315,E-4,27.5,0.125,55,114.2
316,C#4,27.75,0.25,61,114.2
317,C#5,27.75,0.125,56,114.2
318,E5,27.75,0.125,56,114.2
319,E4,27.75,0.125,56,114.2
320,E-4,28.0,0.125,62,114.2
321,E-5,28.0,0.125,58,114.2
322,F#5,28.0,0.125,58,114.2
323,F#4,28.0,0.125,58,114.2
324,E4,28.25,0.125,64,114.2
325,E5,28.25,0.125,60,114.2
326,G#5,28.25,0.125,60,114.2
327,G#4,28.25,0.125,60,114.2
328,F#4,28.5,0.125,65,114.2
329,F#5,28.5,0.125,62,114.2
330,A5,28.5,0.125,62,114.2
331,A4,28.5,0.125,62,114.2
332,G#4,28.75,0.125,67,114.2
333,G#5,28.75,0.125,71,114.2
334,B4,28.75,0.125,71,114.2
335,B5,28.75,0.125,71,114.2
336,A4,29.0,0.25,68,114.2
337,A5,29.0,0.25,65,114.2
338,C#6,29.0,0.25,65,114.2
339,C#5,29.0,0.25,65,114.2
340,F#2,29.5,0.125,59,114.2
341,F#1,29.5,0.125,59,114.2
342,G#5,29.75,0.125,62,114.2
343,B5,29.75,0.125,62,114.2
344,B4,29.75,0.125,62,114.2
345,G#2,29.75,0.125,54,114.2
346,G#1,29.75,0.125,54,114.2
347,A5,30.0,0.188,63,114.2
348,A4,30.0,0.188,63,114.2
349,F#5,30.0,0.188,63,114.2
350,A2,30.0,0.188,59,114.2
351,A1,30.0,0.188,59,114.2
352,G#5,30.5,0.188,58,114.2
353,G#4,30.5,0.188,58,114.2
354,E5,30.5,0.188,58,114.2
355,B-2,30.5,0.188,56,114.2
356,B-1,30.5,0.188,56,114.2
357,E5,31.0,0.5,65,114.2
358,G#5,31.0,0.5,65,114.2
359,G#4,31.0,0.5,65,114.2
360,B1,31.0,0.5,59,114.2
361,B2,31.0,0.5,59,114.2
362,E-5,31.5,0.375,59,114.2
363,F#5,31.5,0.375,59,114.2
364,F#4,31.5,0.375,59,114.2
365,G#5,31.875,0.125,65,114.2
366,E-5,32.0,0.188,65,114.2
367,F#5,32.0,0.188,65,114.2
368,F#4,32.0,0.188,65,114.2
369,B3,32.0,0.188,53,114.2
370,B2,32.0,0.188,53,114.2
371,G#3,32.0,0.188,53,114.2
372,D5,32.5,0.188,56,114.2
373,F5,32.5,0.188,56,114.2
374,F4,32.5,0.188,56,114.2
375,F#5,33.0,0.5,61,114.2
376,F#4,33.0,0.5,61,114.2
377,E-5,33.0,0.5,61,114.2
378,E-4,33.0,0.5,53,114.2
379,B2,33.0,0.5,53,114.2
380,F#3,33.0,0.5,53,114.2
381,G5,34.75,0.25,55,114.2
382,B-4,34.75,0.25,55,114.2
383,G4,34.75,0.25,55,114.2
384,G#5,35.0,0.5,55,114.2
385,G#4,35.0,0.5,55,114.2
386,B4,35.0,0.5,55,114.2
387,E3,35.0,2.0,45,114.2
388,E2,35.0,2.0,45,114.2
389,A5,35.5,0.125,51,114.2
390,C#5,35.5,0.125,51,114.2
391,A4,35.5,0.125,51,114.2
392,E-5,35.75,0.125,52,114.2
393,B5,35.75,0.125,52,114.2
394,B4,35.75,0.125,52,114.2
395,C#6,36.0,0.125,54,114.2
396,E5,36.0,0.125,54,114.2
397,C#5,36.0,0.125,54,114.2
398,G#4,36.0,1.0,36,114.2
399,G#3,36.0,1.0,36,114.2
400,B3,36.0,1.0,36,114.2
401,E4,36.0,1.0,36,114.2
402,E-6,36.25,0.125,54,114.2
403,F#5,36.25,0.125,54,114.2
404,E-5,36.25,0.125,54,114.2
405,E6,36.5,0.125,55,114.2
406,G#5,36.5,0.125,55,114.2
407,E5,36.5,0.125,55,114.2
408,F#6,36.75,0.125,56,114.2
409,A5,36.75,0.125,56,114.2
410,F#5,36.75,0.125,56,114.2
411,G#6,37.0,0.25,58,114.2
412,C6,37.0,0.25,58,114.2
413,G#5,37.0,0.25,58,114.2
414,E-3,37.0,2.0,45,114.2
415,E-2,37.0,2.0,45,114.2
416,F#6,37.75,83/1000,53,114.2
417,A5,37.75,83/1000,53,114.2
418,F#5,37.75,83/1000,53,114.2
419,F#6,37.875,0.125,48,114.2
420,F#5,37.875,0.125,48,114.2
421,A5,37.875,0.125,48,114.2
422,E6,38.0,0.25,55,114.2
423,E5,38.0,0.25,55,114.2
424,G#5,38.0,0.25,55,114.2
425,G#4,38.0,1.0,37,114.2
426,G#3,38.0,1.0,37,114.2
427,C4,38.0,1.0,37,114.2
428,F#4,38.0,1.0,37,114.2
429,E-6,38.5,0.25,55,114.2
430,E-5,38.5,0.25,55,114.2
431,F#5,38.5,0.25,55,114.2
432,E6,39.0,0.25,52,114.2
433,E5,39.0,0.25,52,114.2
434,G#5,39.0,0.25,52,114.2
435,C#3,39.0,2.0,45,114.2
436,C#2,39.0,2.0,45,114.2
437,C6,39.5,0.25,50,114.2
438,C5,39.5,0.25,50,114.2
439,E-5,39.5,0.25,50,114.2
440,C#6,40.0,0.25,52,114.2
441,C#5,40.0,0.25,52,114.2
442,E5,40.0,0.25,52,114.2
443,G#4,40.0,1.0,38,114.2
444,G#3,40.0,1.0,38,114.2
445,C#4,40.0,1.0,38,114.2
446,E4,40.0,1.0,38,114.2
447,E-6,40.5,0.25,54,114.2
448,E-5,40.5,0.25,54,114.2
449,F#5,40.5,0.25,54,114.2
450,E6,41.0,0.25,55,114.2
451,E5,41.0,0.25,55,114.2
452,G#5,41.0,0.25,55,114.2
453,C3,41.0,2.0,44,114.2
454,C2,41.0,2.0,44,114.2
455,F#6,41.5,0.25,56,114.2
456,F#5,41.5,0.25,56,114.2
457,A5,41.5,0.25,56,114.2
458,G#6,42.0,0.25,58,114.2
459,G#5,42.0,0.25,58,114.2
460,B5,42.0,0.25,58,114.2
461,A4,42.0,1.0,39,114.2
462,A3,42.0,1.0,39,114.2
463,C4,42.0,1.0,39,114.2
464,E4,42.0,1.0,39,114.2
465,A6,42.5,0.25,60,114.2
466,A5,42.5,0.25,60,114.2
467,C6,42.5,0.25,60,114.2
468,G#5,42.875,0.125,65,114.2
469,E6,42.938,0.062,68,114.2
470,B6,43.0,0.25,72,114.2
471,G#5,43.0,0.25,65,114.2
472,E6,43.0,0.25,68,114.2
473,B2,43.0,2.0,45,114.2
474,B1,43.0,2.0,45,114.2
475,E6,43.75,0.25,56,114.2
476,G#5,43.75,0.25,56,114.2
477,E5,43.75,0.25,56,114.2
478,F#6,44.0,0.188,58,114.2
479,A5,44.0,0.188,58,114.2
480,F#5,44.0,0.188,58,114.2
481,B4,44.0,1.0,38,114.2
482,B3,44.0,1.0,38,114.2
483,E4,44.0,1.0,38,114.2
484,G#4,44.0,1.0,38,114.2
485,G#6,44.5,0.188,61,114.2
486,B5,44.5,0.188,61,114.2
487,G#5,44.5,0.188,61,114.2
488,A6,45.0,0.25,64,114.2
489,C#6,45.0,0.25,64,114.2
490,A5,45.0,0.25,64,114.2
491,B2,45.0,2.0,44,114.2
492,B1,45.0,2.0,44,114.2
493,B5,45.75,0.25,56,114.2
494,E-5,45.75,0.25,56,114.2
495,B4,45.75,0.25,56,114.2
496,C#6,46.0,0.188,58,114.2
497,E5,46.0,0.188,58,114.2
498,C#5,46.0,0.188,58,114.2
499,A4,46.0,1.0,39,114.2
500,B3,46.0,1.0,39,114.2
501,F#4,46.0,1.0,39,114.2
502,E-6,46.5,0.188,61,114.2
503,F#5,46.5,0.188,61,114.2
504,E-5,46.5,0.188,61,114.2
505,E3,47.0,0.25,45,114.2
506,F#6,47.0,0.5,66,114.2
507,A5,47.0,0.5,66,114.2
508,F#5,47.0,0.5,66,114.2
509,E6,47.5,0.375,59,114.2
510,G#5,47.5,0.375,59,114.2
511,E5,47.5,0.375,59,114.2
512,G#4,47.5,0.25,35,114.2
513,E4,47.5,0.25,35,114.2
514,B3,47.5,0.25,35,114.2
515,F#6,47.875,0.125,54,114.2
516,F#5,47.875,0.125,54,114.2
517,A5,47.875,0.125,54,114.2
518,B2,48.0,0.188,46,114.2
519,E6,48.0,0.188,60,114.2
520,G#5,48.0,0.188,60,114.2
521,E5,48.0,0.188,60,114.2
522,E-6,48.5,0.188,55,114.2
523,F#5,48.5,0.188,55,114.2
524,E-5,48.5,0.188,55,114.2
525,B4,48.5,0.188,36,114.2
526,F#4,48.5,0.188,36,114.2
527,A3,48.5,0.188,36,114.2
528,E2,49.0,0.5,47,114.2
529,E6,49.0,0.5,59,114.2
530,E5,49.0,0.5,59,114.2
531,G#5,49.0,0.5,59,114.2
532,G#3,49.75,0.5,49,114.2
533,E4,49.875,0.375,52,114.2
534,B4,50.0,0.25,55,114.2
535,B3,50.75,0.188,80,114.2
536,G#3,50.75,0.188,80,114.2
537,E2,50.75,0.188,67,114.2
538,B2,50.75,0.188,67,114.2
539,B3,51.0,0.5,79,114.2
540,G#3,51.0,0.5,79,114.2
541,B2,51.0,0.5,71,114.2
542,E2,51.0,0.5,71,114.2
543,C#4,51.5,0.25,67,114.2
544,A3,51.5,0.25,67,114.2
545,E-4,51.75,0.125,70,114.2
546,B3,51.75,0.125,70,114.2
547,E4,52.0,0.125,73,114.2
548,C#4,52.0,0.125,73,114.2
549,F#4,52.25,0.125,73,114.2
550,E-4,52.25,0.125,73,114.2
551,G#4,52.5,0.125,76,114.2
552,E4,52.5,0.125,76,114.2
553,A4,52.75,0.125,79,114.2
554,F#4,52.75,0.125,79,114.2
555,B4,53.0,0.25,82,114.2
556,G#4,53.0,0.25,82,114.2
557,C#5,53.25,0.125,66,114.2
558,E-5,53.375,0.125,66,114.2
559,E5,53.5,0.125,67,114.2
560,F#5,53.625,0.125,68,114.2
561,G#5,53.75,0.125,69,114.2
562,A4,53.75,0.125,73,114.2
563,F#4,53.75,0.125,73,114.2
564,A5,53.875,0.125,69,114.2
565,B5,54.0,0.125,70,114.2
566,G#4,54.0,0.25,79,114.2
567,E4,54.0,0.25,79,114.2
568,C#6,54.125,0.125,71,114.2
569,E-6,54.25,0.125,72,114.2
570,E6,54.375,0.125,72,114.2
571,F#6,54.5,0.125,73,114.2
572,F#4,54.5,0.25,68,114.2
573,B3,54.5,0.25,68,114.2
574,G#6,54.625,0.125,74,114.2
575,A6,54.75,0.125,75,114.2
576,B-6,54.875,0.125,75,114.2
577,B6,55.0,0.125,75,114.2
578,F#4,55.0,0.5,76,114.2
579,B3,55.0,0.5,76,114.2
580,C#7,55.125,0.125,69,114.2
581,B6,55.25,0.125,72,114.2
582,C#7,55.375,0.25,69,114.2
583,B6,55.5,0.125,72,114.2
584,E4,55.5,0.375,70,114.2
585,G#3,55.5,0.375,70,114.2
586,C#7,55.625,0.125,68,114.2
587,B6,55.75,0.125,72,114.2
588,C#7,55.875,0.125,69,114.2
589,F#4,55.875,0.125,75,114.2
590,B6,56.0,0.125,72,114.2
591,E4,56.0,0.25,78,114.2
592,G#3,56.0,0.25,78,114.2
593,C#7,56.125,0.125,70,114.2
594,B6,56.25,0.125,72,114.2
595,C#7,56.375,0.25,70,114.2
596,B6,56.5,167/1000,72,114.2
597,E-4,56.5,0.25,67,114.2
598,F#3,56.5,0.25,67,114.2
599,B-6,56.667,167/1000,70,114.2
600,B6,56.833,167/1000,71,114.2
601,E6,56.958,0.25,76,114.2
602,G#6,56.958,0.25,76,114.2
603,E7,56.958,0.25,76,114.2
604,E4,57.0,0.5,71,114.2
605,G#3,57.0,0.5,71,114.2
606,E3,58.75,0.188,67,114.2
607,C4,58.75,0.25,80,114.2
608,G#3,58.75,0.25,80,114.2
609,C#4,59.0,0.5,79,114.2
610,A3,59.0,0.5,79,114.2
611,E3,59.0,0.5,71,114.2
612,A2,59.0,0.5,71,114.2
613,E-4,59.5,0.25,67,114.2
614,B3,59.5,0.25,67,114.2
615,E4,59.75,0.125,70,114.2
616,C#4,59.75,0.125,70,114.2
617,F#4,60.0,0.125,73,114.2
618,E-4,60.0,0.125,73,114.2
619,G#4,60.25,0.125,73,114.2
620,E4,60.25,0.125,73,114.2
621,A4,60.5,0.125,76,114.2
622,F#4,60.5,0.125,76,114.2
623,B4,60.75,0.125,79,114.2
624,G#4,60.75,0.125,79,114.2
625,C#5,61.0,0.25,82,114.2
626,A4,61.0,0.25,82,114.2
627,E-5,61.25,0.125,66,114.2
628,E5,61.375,0.125,66,114.2
629,F#5,61.5,0.125,67,114.2
630,G#5,61.625,0.125,68,114.2
631,A5,61.75,0.125,69,114.2
632,B4,61.75,0.125,73,114.2
633,G#4,61.75,0.125,73,114.2
634,B5,61.875,0.125,69,114.2
635,C#6,62.0,0.125,70,114.2
636,A3,62.0,0.25,77,114.2
637,A4,62.0,0.25,77,114.2
638,F#4,62.0,0.25,77,114.2
639,E-6,62.125,0.125,71,114.2
640,E6,62.25,0.125,72,114.2
641,F#6,62.375,0.125,72,114.2
642,G#6,62.5,0.125,73,114.2
643,B-3,62.5,0.25,67,114.2
644,G#4,62.5,0.25,67,114.2
645,E4,62.5,0.25,67,114.2
646,B-6,62.625,0.125,74,114.2
647,B6,62.75,0.125,75,114.2
648,C7,62.875,0.125,75,114.2
649,C#7,63.0,0.125,75,114.2
650,B3,63.0,0.5,74,114.2
651,G#4,63.0,0.5,74,114.2
652,E4,63.0,0.5,74,114.2
653,E-7,63.125,0.125,69,114.2
654,C#7,63.25,0.125,72,114.2
655,E-7,63.375,0.25,69,114.2
656,C#7,63.5,0.125,72,114.2
657,F#4,63.5,0.375,70,114.2
658,E-4,63.5,0.375,70,114.2
659,E-7,63.625,0.125,68,114.2
660,C#7,63.75,0.125,72,114.2
661,E-7,63.875,0.125,69,114.2
662,E4,63.875,0.125,75,114.2
663,G#4,63.875,0.125,75,114.2
664,C#7,64.0,0.125,72,114.2
665,F#4,64.0,0.25,78,114.2
666,E-4,64.0,0.25,78,114.2
667,E-7,64.125,0.125,70,114.2
668,C#7,64.25,0.125,72,114.2
669,E-7,64.375,0.125,70,114.2
670,C#7,64.5,0.125,72,114.2
671,F4,64.5,0.25,67,114.2
672,D4,64.5,0.25,67,114.2
673,C7,64.625,0.125,70,114.2
674,C#7,64.75,0.125,70,114.2
675,F#7,64.875,0.125,71,114.2
676,B6,65.0,73/250,76,114.2
677,F#6,65.0,73/250,76,114.2
678,F#4,65.0,0.5,71,114.2
679,E-4,65.0,0.5,71,114.2
680,G5,66.75,0.25,53,114.2
681,B-4,66.75,0.25,53,114.2
682,G#5,67.0,0.5,53,114.2
683,B4,67.0,0.5,53,114.2
684,E3,67.0,1.0,40,114.2
685,E2,67.0,1.0,40,114.2
686,A5,67.5,0.25,50,114.2
687,C#5,67.5,0.25,50,114.2
688,E-5,67.75,0.25,50,114.2
689,B5,67.75,0.25,50,114.2
690,G#3,67.75,0.25,31,114.2
691,E4,67.75,0.25,31,114.2
692,C#6,68.0,0.25,52,114.2
693,E5,68.0,0.25,52,114.2
694,G#4,68.0,0.25,33,114.2
695,B3,68.0,0.25,33,114.2
696,E-6,68.25,0.25,52,114.2
697,F#5,68.25,0.25,52,114.2
698,E6,68.5,0.25,53,114.2
699,G#5,68.5,0.25,53,114.2
700,F#6,68.75,0.25,54,114.2
701,A5,68.75,0.25,54,114.2
702,G#6,69.0,0.25,56,114.2
703,C6,69.0,0.25,56,114.2
704,E-3,69.0,1.0,40,114.2
705,E-2,69.0,1.0,40,114.2
706,A5,69.25,0.375,47,114.2
707,F#6,69.25,0.125,47,114.2
708,G#6,69.375,0.125,47,114.2
709,F#6,69.5,0.125,53,114.2
710,G#5,69.75,0.375,52,114.2
711,E6,69.75,0.125,57,114.2
712,G#3,69.75,0.25,31,114.2
713,F#4,69.75,0.25,31,114.2
714,F#6,69.875,0.125,52,114.2
715,E6,70.0,0.25,55,114.2
716,G#4,70.0,0.25,34,114.2
717,C4,70.0,0.25,34,114.2
718,F#5,70.25,0.375,51,114.2
719,E-6,70.25,0.125,56,114.2
720,D6,70.375,0.125,51,114.2
721,E-6,70.5,0.25,60,114.2
722,G#5,70.75,0.25,49,114.2
723,E-6,70.75,0.125,49,114.2
724,E6,70.875,0.125,49,114.2
725,E6,71.0,0.25,57,114.2
726,G#5,71.0,0.125,49,114.2
727,C#3,71.0,1.0,40,114.2
728,C#2,71.0,1.0,40,114.2
729,E-5,71.25,0.375,47,114.2
730,C6,71.25,0.125,47,114.2
731,B5,71.375,0.125,47,114.2
732,C6,71.5,0.25,55,114.2
733,E5,71.75,0.375,48,114.2
734,C#6,71.75,0.125,48,114.2
735,G#3,71.75,0.25,31,114.2
736,E4,71.75,0.25,31,114.2
737,C6,71.875,0.125,48,114.2
738,C#6,72.0,0.25,57,114.2
739,G#4,72.0,0.25,35,114.2
740,C#4,72.0,0.25,35,114.2
741,F#5,72.25,0.375,51,114.2
742,E-6,72.25,0.125,51,114.2
743,C#6,72.375,0.125,51,114.2
744,E-6,72.5,0.25,59,114.2
745,G#5,72.75,0.375,50,114.2
746,E6,72.75,0.125,50,114.2
747,E-6,72.875,0.125,50,114.2
748,E6,73.0,0.25,60,114.2
749,C3,73.0,1.0,40,114.2
750,C2,73.0,1.0,40,114.2
751,A5,73.25,0.375,53,114.2
752,F#6,73.25,0.125,53,114.2
753,E6,73.375,0.125,53,114.2
754,F#6,73.5,0.25,61,114.2
755,B5,73.75,0.375,53,114.2
756,G#6,73.75,0.125,53,114.2
757,A3,73.75,0.25,31,114.2
758,E4,73.75,0.25,31,114.2
759,F#6,73.875,0.125,53,114.2
760,G#6,74.0,0.25,63,114.2
761,A4,74.0,0.25,36,114.2
762,C4,74.0,0.25,36,114.2
763,C6,74.25,0.375,52,114.2
764,A6,74.25,0.125,57,114.2
765,G#6,74.375,0.125,52,114.2
766,A6,74.5,0.25,60,114.2
767,G#5,74.875,0.125,58,114.2
768,E6,74.938,0.062,61,114.2
769,B6,75.0,0.25,70,114.2
770,G#5,75.0,0.25,58,114.2
771,E6,75.0,0.25,61,114.2
772,B2,75.0,0.25,40,114.2
773,B1,75.0,0.25,40,114.2
774,B-4,75.125,0.125,41,114.2
775,B4,75.25,0.125,41,114.2
776,C#5,75.375,0.125,42,114.2
777,E-5,75.5,0.125,43,114.2
778,E5,75.625,0.125,44,114.2
779,F#5,75.75,0.125,45,114.2
780,E4,75.75,0.25,41,114.2
781,G#3,75.75,0.25,41,114.2
782,G#5,75.875,0.125,45,114.2
783,A5,76.0,0.125,45,114.2
784,B3,76.0,0.188,42,114.2
785,F#4,76.0,0.188,42,114.2
786,B5,76.125,0.125,45,114.2
787,C#6,76.25,0.125,46,114.2
788,E-6,76.375,0.125,47,114.2
789,E6,76.5,0.125,47,114.2
790,G#4,76.5,0.188,44,114.2
791,E4,76.5,0.188,44,114.2
792,F#6,76.625,0.125,48,114.2
793,G#6,76.75,0.125,49,114.2
794,B6,76.875,0.125,52,114.2
795,A6,77.0,0.25,42,114.2
796,F#4,77.0,0.25,46,114.2
797,A4,77.0,0.25,46,114.2
798,B-4,77.2,1/10,42,114.2
799,B4,77.3,1/10,43,114.2
800,C#5,77.4,1/10,44,114.2
801,E-5,77.5,1/10,45,114.2
802,E5,77.6,1/10,45,114.2
803,F#5,77.7,1/10,45,114.2
804,B3,77.75,0.25,41,114.2
805,E-3,77.75,0.25,41,114.2
806,G#5,77.8,0.125,45,114.2
807,A5,77.9,1/10,45,114.2
808,B5,78.0,1/10,46,114.2
809,B2,78.0,1.0,35,114.2
810,C#4,78.0,0.188,42,114.2
811,E3,78.0,0.188,42,114.2
812,C#6,78.1,1/10,47,114.2
813,E-6,78.2,1/10,48,114.2
814,E6,78.3,1/10,48,114.2
815,F#6,78.4,1/10,49,114.2
816,G#6,78.5,1/10,50,114.2
817,E-4,78.5,0.188,44,114.2
818,F#3,78.5,0.188,44,114.2
819,A6,78.6,1/10,50,114.2
820,B6,78.7,1/10,50,114.2
821,C#7,78.8,1/10,51,114.2
822,E-7,78.9,1/10,51,114.2
823,E3,78.958,21/500,31,114.2
824,G#3,78.958,21/500,31,114.2
825,B3,78.958,21/500,31,114.2
826,F#4,79.0,0.5,41,114.2
827,F#7,79.0,0.5,55,114.2
828,B6,79.0,0.5,55,114.2
829,F#6,79.0,0.5,55,114.2
830,E3,79.0,479/500,31,114.2
831,G#3,79.0,479/500,31,114.2
832,B3,79.0,479/500,31,114.2
833,E4,79.5,0.5,36,114.2
834,E7,79.5,0.5,48,114.2
835,E6,79.5,0.5,48,114.2
836,F#7,79.875,0.125,50,114.2
837,B2,79.958,0.25,34,114.2
838,F#3,79.958,0.25,34,114.2
839,E4,79.958,0.25,34,114.2
840,A3,79.958,0.25,34,114.2
841,E7,80.0,0.25,51,114.2
842,B6,80.0,0.25,51,114.2
843,E6,80.0,0.25,51,114.2
844,E-4,80.5,0.25,34,114.2
845,E-7,80.5,0.25,50,114.2
846,E-6,80.5,0.25,50,114.2
847,E7,81.0,0.5,51,114.2
848,E6,81.0,0.5,51,114.2
849,B6,81.0,0.5,51,114.2
850,E4,81.0,0.5,36,114.2
851,G#3,81.0,0.5,36,114.2
852,E3,81.0,0.5,36,114.2
853,G#5,82.0,1.0,55,114.2
854,E2,83.0,0.5,44,114.2
855,F#5,83.25,0.5,53,114.2
856,F#4,83.25,1.5,45,114.2
857,C#4,83.5,0.5,32,114.2
858,F#3,83.5,0.5,32,114.2
859,B-4,83.75,0.5,52,114.2
860,F#4,84.0,0.5,32,114.2
861,B-3,84.0,0.5,32,114.2
862,C#5,84.25,0.5,53,114.2
863,C#4,84.5,0.5,34,114.2
864,F#3,84.5,0.5,34,114.2
865,G#5,84.75,0.5,50,114.2
866,G#4,84.75,0.5,50,114.2
867,E-2,85.0,0.5,45,114.2
868,F#5,85.25,0.5,52,114.2
869,F#4,85.25,0.5,52,114.2
870,E-4,85.5,0.5,32,114.2
871,F#3,85.5,0.5,32,114.2
872,G#5,85.75,0.5,52,114.2
873,G#4,85.75,0.5,52,114.2
874,F#4,86.0,0.5,32,114.2
875,B3,86.0,0.5,32,114.2
876,B-5,86.25,0.5,56,114.2
877,B-4,86.25,0.5,56,114.2
878,E-4,86.5,0.5,33,114.2
879,F#3,86.5,0.5,33,114.2
880,B5,86.75,0.25,61,114.2
881,B4,86.75,0.25,61,114.2
882,C#2,87.0,0.5,56,114.2
883,E-6,87.25,0.5,64,114.2
884,E-5,87.25,0.5,64,114.2
885,E4,87.5,0.5,36,114.2
886,F#3,87.5,0.5,36,114.2
887,C#6,87.75,0.5,61,114.2
888,C#5,87.75,0.5,61,114.2
889,F#4,88.0,0.5,36,114.2
890,B-3,88.0,0.5,36,114.2
891,G#5,88.25,0.5,56,114.2
892,G#4,88.25,0.5,56,114.2
893,E4,88.5,0.5,36,114.2
894,F#3,88.5,0.5,36,114.2
895,B-5,88.75,0.375,61,114.2
896,B-4,88.75,0.5,51,114.2
897,B1,89.0,0.5,53,114.2
898,C#6,89.125,0.125,60,114.2
899,B5,89.25,0.5,59,114.2
900,B4,89.25,0.5,59,114.2
901,E-4,89.5,0.5,33,114.2
902,F#3,89.5,0.5,33,114.2
903,B-5,89.75,0.5,56,114.2
904,B-4,89.75,0.5,56,114.2
905,F#4,90.0,0.5,34,114.2
906,B3,90.0,0.5,34,114.2
907,B5,90.25,0.5,62,114.2
908,B4,90.25,0.5,62,114.2
909,E-4,90.5,0.375,35,114.2
910,F#3,90.5,0.375,35,114.2
911,C6,90.75,0.25,64,114.2
912,C5,90.75,0.25,64,114.2
913,F#2,90.875,0.125,56,114.2
914,C#4,91.0,0.25,44,114.2
915,F#2,91.0,1.0,56,114.2
916,C#6,91.0,0.25,60,114.2
917,C#5,91.0,0.25,60,114.2
918,B-5,91.0,0.25,60,114.2
919,C6,91.375,0.094,56,114.2
920,A5,91.375,0.094,56,114.2
921,E-4,91.5,0.25,43,114.2
922,A5,91.5,0.25,70,114.2
923,C6,91.5,0.25,70,114.2
924,B5,91.875,0.094,56,114.2
925,G#5,91.875,0.094,56,114.2
926,F4,92.0,0.25,46,114.2
927,B5,92.0,0.25,64,114.2
928,G#5,92.0,0.25,64,114.2
929,B-5,92.375,0.094,57,114.2
930,C#5,92.375,0.094,57,114.2
931,F#4,92.5,0.25,49,114.2
932,B-5,92.5,0.25,64,114.2
933,C#5,92.5,0.25,64,114.2
934,C#3,92.875,1.125,49,114.2
935,G#5,92.875,0.094,56,114.2
936,B4,92.875,0.094,56,114.2
937,F4,93.0,0.25,50,114.2
938,G#5,93.0,0.25,62,114.2
939,B4,93.0,0.25,62,114.2
940,B5,93.375,0.125,56,114.2
941,E-5,93.375,0.125,56,114.2
942,G#4,93.5,0.25,44,114.2
943,B5,93.5,0.25,62,114.2
944,E-5,93.5,0.25,62,114.2
945,E-5,93.875,0.094,54,114.2
946,F#4,93.875,0.094,54,114.2
947,B4,94.0,0.25,52,114.2
948,E-5,94.0,0.25,60,114.2
949,F#4,94.0,0.25,60,114.2
950,F5,94.375,0.094,56,114.2
951,G#4,94.375,0.094,56,114.2
952,C#4,94.5,0.25,46,114.2
953,F5,94.5,0.25,62,114.2
954,G#4,94.5,0.25,62,114.2
955,G#5,94.875,0.094,52,114.2
956,B4,94.875,0.094,52,114.2
957,C#4,95.0,0.5,48,114.2
958,F#3,95.0,1.0,48,114.2
959,G#5,95.0,0.25,57,114.2
960,B4,95.0,0.25,57,114.2
961,F#5,95.25,0.188,48,114.2
962,B-4,95.25,0.188,48,114.2
963,C#4,95.5,0.125,32,114.2
964,F#5,95.5,0.125,49,114.2
965,B-4,95.5,0.125,49,114.2
966,D4,95.75,0.125,32,114.2
967,F5,95.75,0.125,49,114.2
968,B4,95.75,0.125,49,114.2
969,C#4,96.0,0.5,32,114.2
970,F#3,96.0,1.0,39,114.2
971,G#5,96.0,0.25,54,114.2
972,B4,96.0,0.25,54,114.2
973,F#5,96.25,0.188,49,114.2
974,B-4,96.25,0.188,49,114.2
975,C#4,96.5,0.125,32,114.2
976,F#5,96.5,0.125,49,114.2
977,B-4,96.5,0.125,49,114.2
978,D4,96.75,0.125,32,114.2
979,F5,96.75,0.125,49,114.2
980,B4,96.75,0.125,49,114.2
981,F#5,97.0,0.5,57,114.2
982,B-4,97.0,0.5,57,114.2
983,C#4,97.0,0.5,36,114.2
984,F#3,97.0,0.5,36,114.2
985,F#4,98.0,0.5,67,114.2
986,G4,98.5,0.5,67,114.2
987,G#4,99.0,0.75,70,114.2
988,C4,99.25,0.25,50,114.2
989,F#2,99.375,0.375,48,114.2
990,E-4,99.5,0.25,50,114.2
991,G#3,99.5,0.25,52,114.2
992,A4,99.75,0.25,67,114.2
993,G#4,100.0,1.0,69,114.2
994,C5,100.25,0.25,48,114.2
995,A5,100.25,0.25,48,114.2
996,E-5,100.5,0.5,46,114.2
997,G#5,100.5,0.5,46,114.2
998,G#4,101.0,0.75,69,114.2
999,C#4,101.25,0.25,50,114.2
1000,E2,101.375,0.375,46,114.2
1001,E4,101.5,0.25,50,114.2
1002,G#3,101.5,0.25,50,114.2
1003,C#5,101.75,0.25,62,114.2
1004,G#4,102.0,0.875,66,114.2
1005,E5,102.25,0.25,48,114.2
1006,C#6,102.25,0.25,48,114.2
1007,C#5,102.5,0.5,45,114.2
1008,G#5,102.5,0.5,45,114.2
1009,G4,102.875,0.125,53,114.2
1010,G#4,103.0,167/1000,60,114.2
1011,C4,103.167,167/1000,50,114.2
1012,F#4,103.333,167/1000,50,114.2
1013,E-5,103.5,167/1000,56,114.2
1014,A4,103.5,0.5,61,114.2
1015,C5,103.667,167/1000,50,114.2
1016,F#5,103.833,167/1000,50,114.2
1017,E-6,104.0,167/1000,56,114.2
1018,G#4,104.0,0.5,65,114.2
1019,C4,104.0,1.0,52,114.2
1020,E-4,104.0,1.0,52,114.2
1021,C6,104.167,167/1000,49,114.2
1022,F#6,104.333,167/1000,49,114.2
1023,E-7,104.5,167/1000,56,114.2
1024,F#4,104.5,0.5,62,114.2
1025,G#6,104.667,167/1000,50,114.2
1026,F#6,104.833,167/1000,50,114.2
1027,E6,105.0,0.125,56,114.2
1028,E4,105.0,0.5,66,114.2
1029,C#4,105.0,1.0,52,114.2
1030,G#6,105.125,0.125,47,114.2
1031,E7,105.25,0.125,47,114.2
1032,E-7,105.375,0.125,47,114.2
1033,G#6,105.5,0.125,57,114.2
1034,E-4,105.5,0.5,62,114.2
1035,E6,105.625,0.125,50,114.2
1036,E7,105.75,0.125,50,114.2
1037,E-7,105.875,0.125,50,114.2
1038,A6,106.0,0.125,59,114.2
1039,E4,106.0,0.5,62,114.2
1040,C4,106.0,1.0,52,114.2
1041,E6,106.125,0.125,52,114.2
1042,E7,106.25,0.125,52,114.2
1043,E-7,106.375,0.125,52,114.2
1044,B-6,106.5,0.125,59,114.2
1045,F#4,106.5,0.438,62,114.2
1046,E6,106.625,0.125,53,114.2
1047,E7,106.75,0.125,53,114.2
1048,E-7,106.875,0.125,53,114.2
1049,B3,106.938,0.062,55,114.2
1050,E4,106.938,0.062,55,114.2
1051,G#4,107.0,0.5,69,114.2
1052,E6,107.0,0.25,60,114.2
1053,B6,107.0,0.25,60,114.2
1054,B3,107.0,0.469,55,114.2
1055,E4,107.0,0.469,55,114.2
1056,E-4,107.5,0.5,46,114.2
1057,F#4,107.75,0.5,47,114.2
1058,E4,107.75,0.5,47,114.2
1059,D4,108.0,0.5,47,114.2
1060,G#4,108.25,0.5,49,114.2
1061,E4,108.25,0.5,49,114.2
1062,C#4,108.5,0.5,49,114.2
1063,A4,108.75,0.5,50,114.2
1064,E4,108.75,0.5,50,114.2
1065,G#3,109.0,0.5,51,114.2
1066,B3,109.0,0.5,51,114.2
1067,B4,109.25,0.5,52,114.2
1068,E4,109.25,0.5,52,114.2
1069,B-3,109.5,1.0,52,114.2
1070,G3,109.5,0.5,44,114.2
1071,C5,109.75,0.5,54,114.2
1072,E4,109.75,0.5,54,114.2
1073,F#3,110.0,0.5,54,114.2
1074,C#5,110.25,0.5,56,114.2
1075,E4,110.25,0.5,56,114.2
1076,A3,110.5,0.5,50,114.2
1077,B2,110.5,0.5,50,114.2
1078,F#3,110.5,0.5,50,114.2
1079,E-5,110.75,0.25,55,114.2
1080,E4,110.75,0.25,55,114.2
1081,B4,110.75,0.25,55,114.2
1082,G#3,111.0,0.25,58,114.2
1083,E3,111.0,1.0,49,114.2
1084,F#5,111.25,0.5,58,114.2
1085,F#4,111.25,0.5,58,114.2
1086,B4,111.25,0.5,58,114.2
1087,B3,111.5,0.25,52,114.2
1088,E5,111.75,0.375,54,114.2
1089,E4,111.75,0.375,54,114.2
1090,F#3,112.0,0.25,53,114.2
1091,B2,112.0,1.0,44,114.2
1092,F#5,112.125,0.125,52,114.2
1093,B4,112.25,0.5,59,114.2
1094,E5,112.25,0.5,59,114.2
1095,E4,112.25,0.5,59,114.2
1096,A3,112.5,0.25,50,114.2
1097,E-5,112.75,0.25,56,114.2
1098,E-4,112.75,0.25,56,114.2
1099,E2,112.875,0.594,52,114.2
1100,G#3,112.875,0.594,52,114.2
1101,E4,112.938,0.438,55,114.2
1102,B4,112.969,0.5,60,114.2
1103,E5,112.969,0.5,60,114.2
1104,G5,113.729,83/1000,56,114.2
1105,G#5,113.833,83/1000,55,114.2
1106,B-5,113.917,83/1000,55,114.2
1107,G#5,114.0,0.125,59,114.2
1108,B-5,114.125,0.125,55,114.2
1109,G#5,114.25,0.125,59,114.2
1110,B-5,114.375,0.125,54,114.2
1111,G#5,114.5,0.125,59,114.2
1112,B-5,114.625,0.125,60,114.2
1113,G#5,114.75,0.125,63,114.2
1114,B-5,114.875,0.125,68,114.2
1115,G#5,115.0,0.125,59,114.2
1116,G5,115.125,0.125,60,114.2
1117,G#5,115.25,0.125,63,114.2
1118,G#6,115.375,0.125,68,114.2
1119,F#5,115.5,0.5,59,114.2
1120,E2,115.5,0.5,49,114.2
1121,F#6,115.75,0.25,56,114.2
1122,B-4,116.0,0.5,57,114.2
1123,G#4,116.0,0.5,36,114.2
1124,C#4,116.0,0.5,36,114.2
1125,B-5,116.25,0.25,55,114.2
1126,C#5,116.5,0.5,58,114.2
1127,F#4,116.5,0.5,36,114.2
1128,B-3,116.5,0.5,36,114.2
1129,C#6,116.75,0.25,50,114.2
1130,G#5,117.0,0.5,58,114.2
1131,C#4,117.0,0.5,36,114.2
1132,F#3,117.0,0.5,36,114.2
1133,G#6,117.25,0.25,55,114.2
1134,F#5,117.5,0.5,59,114.2
1135,E-2,117.5,0.5,48,114.2
1136,F#6,117.75,0.25,52,114.2
1137,G#5,118.0,0.5,59,114.2
1138,G#4,118.0,0.5,33,114.2
1139,E-4,118.0,0.5,33,114.2
1140,G#6,118.25,0.25,54,114.2
1141,B-5,118.5,0.5,62,114.2
1142,F#4,118.5,0.5,33,114.2
1143,B3,118.5,0.5,33,114.2
1144,B-6,118.75,0.25,57,114.2
1145,B5,119.0,0.5,66,114.2
1146,E-4,119.0,0.5,33,114.2
1147,F#3,119.0,0.5,33,114.2
1148,B6,119.25,0.25,59,114.2
1149,E-6,119.5,0.5,69,114.2
1150,C#2,119.5,0.5,56,114.2
1151,E-7,119.75,0.25,63,114.2
1152,C#6,120.0,0.5,66,114.2
1153,G#4,120.0,0.5,36,114.2
1154,E4,120.0,0.5,36,114.2
1155,C#7,120.25,0.25,59,114.2
1156,G#5,120.5,0.5,61,114.2
1157,F#4,120.5,0.5,36,114.2
1158,B-3,120.5,0.5,36,114.2
1159,G#6,120.75,0.25,56,114.2
1160,B-5,121.0,0.5,61,114.2
1161,E4,121.0,0.5,36,114.2
1162,F#3,121.0,0.5,36,114.2
1163,B-6,121.25,0.25,54,114.2
1164,B5,121.5,0.5,64,114.2
1165,B1,121.5,0.5,53,114.2
1166,B6,121.75,0.25,59,114.2
1167,E-6,121.75,0.25,59,114.2
1168,B-5,122.0,0.5,60,114.2
1169,G#4,122.0,0.5,33,114.2
1170,E-4,122.0,0.5,33,114.2
1171,F#6,122.25,0.25,56,114.2
1172,B-6,122.25,0.25,56,114.2
1173,B5,122.5,0.5,68,114.2
1174,F#4,122.5,0.5,34,114.2
1175,B3,122.5,0.5,34,114.2
1176,E-6,122.75,0.25,59,114.2
1177,B6,122.75,0.25,59,114.2
1178,C6,123.0,0.5,69,114.2
1179,F#3,123.0,0.5,36,114.2
1180,E-4,123.0,0.5,36,114.2
1181,C7,123.25,0.25,61,114.2
1182,C#6,123.5,0.125,53,114.2
1183,F#2,123.5,0.25,56,114.2
1184,C#6,123.667,0.125,51,114.2
1185,C#4,123.75,0.25,44,114.2
1186,B-6,123.833,0.125,50,114.2
1187,C#7,123.833,0.125,50,114.2
1188,C6,124.0,0.125,53,114.2
1189,C6,124.167,0.125,49,114.2
1190,E-4,124.25,0.25,43,114.2
1191,C7,124.333,0.125,49,114.2
1192,A6,124.333,0.125,49,114.2
1193,B5,124.5,0.125,54,114.2
1194,B5,124.667,0.125,49,114.2
1195,F4,124.75,0.25,46,114.2
1196,B6,124.833,0.125,49,114.2
1197,G#6,124.833,0.125,49,114.2
1198,B-5,125.0,0.125,55,114.2
1199,B-5,125.167,0.125,51,114.2
1200,F#4,125.25,0.25,49,114.2
1201,B-6,125.333,0.125,51,114.2
1202,F#6,125.333,0.125,51,114.2
1203,G#5,125.5,0.125,58,114.2
1204,C#3,125.5,0.25,50,114.2
1205,G#5,125.667,0.125,53,114.2
1206,F4,125.75,0.25,50,114.2
1207,G#6,125.833,0.125,53,114.2
1208,B5,125.833,0.125,53,114.2
1209,B5,126.0,0.125,59,114.2
1210,B5,126.167,0.125,51,114.2
1211,G#4,126.25,0.25,44,114.2
1212,B6,126.333,0.125,51,114.2
1213,E-6,126.333,0.125,51,114.2
1214,E-5,126.5,0.125,56,114.2
1215,E-5,126.667,0.125,50,114.2
1216,B4,126.75,0.25,52,114.2
1217,E-6,126.833,0.125,50,114.2
1218,F#5,126.833,0.125,50,114.2
1219,F5,127.0,0.125,57,114.2
1220,F5,127.167,0.125,51,114.2
1221,C#4,127.25,0.25,46,114.2
1222,G#5,127.333,0.125,51,114.2
1223,F6,127.333,0.125,51,114.2
1224,F#4,127.5,0.25,48,114.2
1225,G#6,127.5,0.25,55,114.2
1226,B5,127.5,0.25,55,114.2
1227,G#5,127.5,0.25,55,114.2
1228,F#6,127.75,71/500,47,114.2
1229,B-5,127.75,71/500,47,114.2
1230,F#5,127.75,71/500,47,114.2
1231,B-5,128.0,0.125,48,114.2
1232,F#6,128.0,0.125,48,114.2
1233,C#6,128.0,0.125,48,114.2
1234,B5,128.25,0.125,48,114.2
1235,D6,128.25,0.125,48,114.2
1236,F6,128.25,0.125,48,114.2
1237,B5,128.5,0.25,53,114.2
1238,G#6,128.5,0.25,53,114.2
1239,G#5,128.5,0.25,53,114.2
1240,B-5,128.75,71/500,48,114.2
1241,F#5,128.75,71/500,48,114.2
1242,F#6,128.75,71/500,48,114.2
1243,F#6,129.0,0.125,48,114.2
1244,C#6,129.0,0.125,48,114.2
1245,B-5,129.0,0.125,48,114.2
1246,F6,129.25,77/1000,48,114.2
1247,B5,129.25,77/1000,48,114.2
1248,D6,129.25,77/1000,48,114.2
1249,F#5,129.406,0.562,52,114.2
1250,B-5,129.406,0.562,52,114.2
1251,C#6,129.469,0.5,57,114.2
1252,F#6,129.469,0.5,57,114.2
1253,F#4,130.5,0.5,67,114.2
1254,G4,131.0,0.5,67,114.2
1255,G#4,131.5,0.375,70,114.2
1256,F#2,131.5,0.5,50,114.2
1257,C4,131.625,0.125,39,114.2
1258,E-4,131.75,0.125,40,114.2
1259,A4,131.875,0.125,40,114.2
1260,G#4,132.0,1/10,41,114.2
1261,A4,132.1,1/10,42,114.2
1262,B-4,132.2,1/10,43,114.2
1263,B4,132.3,1/10,43,114.2
1264,A4,132.375,0.125,52,114.2
1265,E-4,132.375,0.125,52,114.2
1266,C5,132.4,1/10,44,114.2
1267,C#5,132.5,1/10,45,114.2
1268,G#4,132.5,0.5,56,114.2
1269,C4,132.5,0.5,56,114.2
1270,D5,132.6,1/10,45,114.2
1271,E-5,132.7,1/10,46,114.2
1272,E5,132.8,1/10,46,114.2
1273,F5,132.9,1/10,47,114.2
1274,F#5,133.0,1/10,48,114.2
1275,G5,133.1,0.125,48,114.2
1276,G#5,133.2,1/10,48,114.2
1277,B5,133.3,1/10,49,114.2
1278,A5,133.4,1/10,49,114.2
1279,G#5,133.5,0.375,70,114.2
1280,E2,133.5,1.0,52,114.2
1281,C#5,133.625,0.125,48,114.2
1282,E5,133.75,0.125,48,114.2
1283,C#6,133.875,0.125,49,114.2
1284,G#5,134.0,0.125,49,114.2
1285,G5,134.125,83/1000,50,114.2
1286,G#5,134.208,83/1000,50,114.2
1287,A5,134.292,83/1000,51,114.2
1288,E4,134.375,0.125,52,114.2
1289,C#5,134.375,0.125,52,114.2
1290,B-5,134.417,83/1000,51,114.2
1291,B5,134.5,83/1000,52,114.2
1292,C#4,134.5,0.5,56,114.2
1293,G#4,134.5,0.5,56,114.2
1294,C6,134.583,83/1000,52,114.2
1295,C#6,134.667,83/1000,53,114.2
1296,D6,134.75,83/1000,53,114.2
1297,E-6,134.833,83/1000,53,114.2
1298,E6,134.917,83/1000,54,114.2
1299,F6,135.0,0.125,54,114.2
1300,F#6,135.083,83/1000,55,114.2
1301,G6,135.167,0.125,55,114.2
1302,G#6,135.25,83/1000,55,114.2
1303,B6,135.333,83/1000,56,114.2
1304,A6,135.417,83/1000,56,114.2
1305,G#6,135.5,0.125,56,114.2
1306,A6,135.5,21/500,56,114.2
1307,E-2,135.5,0.5,52,114.2
1308,C6,135.625,0.125,47,114.2
1309,F#6,135.75,0.125,47,114.2
1310,A6,135.875,0.125,47,114.2
1311,G#6,136.0,0.125,57,114.2
1312,F#4,136.0,0.5,58,114.2
1313,E-5,136.0,0.5,58,114.2
1314,C6,136.125,0.125,50,114.2
1315,F#6,136.25,0.125,50,114.2
1316,E-7,136.375,0.125,50,114.2
1317,G#6,136.5,0.125,59,114.2
1318,C4,136.5,0.5,58,114.2
1319,G#4,136.5,0.5,58,114.2
1320,C6,136.625,0.125,52,114.2
1321,F#6,136.75,0.125,52,114.2
1322,A6,136.875,0.125,52,114.2
1323,G#6,137.0,0.125,59,114.2
1324,G#3,137.0,0.5,57,114.2
1325,F#4,137.0,0.5,57,114.2
1326,C6,137.125,0.125,53,114.2
1327,F#6,137.25,0.125,53,114.2
1328,E-7,137.375,0.125,53,114.2
1329,G#6,137.5,0.125,56,114.2
1330,E4,137.5,0.5,66,114.2
1331,C#3,137.5,1.0,52,114.2
1332,C#6,137.625,0.125,47,114.2
1333,G#6,137.75,0.125,47,114.2
1334,A6,137.875,0.125,47,114.2
1335,G#6,138.0,0.125,57,114.2
1336,E-4,138.0,0.5,62,114.2
1337,C#6,138.125,0.125,50,114.2
1338,G#6,138.25,0.125,50,114.2
1339,E7,138.375,0.125,50,114.2
1340,B-6,138.5,0.125,59,114.2
1341,E4,138.5,0.5,62,114.2
1342,C3,138.5,1.0,52,114.2
1343,E6,138.625,0.125,52,114.2
1344,B-6,138.75,0.125,52,114.2
1345,B6,138.875,0.125,52,114.2
1346,B-6,139.0,0.125,59,114.2
1347,F#4,139.0,0.5,62,114.2
1348,E6,139.125,0.125,53,114.2
1349,B-6,139.25,0.125,53,114.2
1350,E7,139.375,0.125,53,114.2
1351,B6,139.5,123/500,56,114.2
1352,G#4,139.5,0.5,62,114.2
1353,B2,139.5,0.5,62,114.2
1354,E6,139.625,0.125,46,114.2
1355,B6,139.75,0.25,47,114.2
1356,E7,139.875,0.125,47,114.2
1357,F#6,140.0,123/500,57,114.2
1358,E-5,140.0,0.5,57,114.2
1359,F#5,140.0,0.5,57,114.2
1360,E6,140.125,0.125,48,114.2
1361,F#6,140.25,0.25,49,114.2
1362,E7,140.375,0.125,50,114.2
1363,G#6,140.5,123/500,59,114.2
1364,D5,140.5,0.5,60,114.2
1365,G#5,140.5,0.5,60,114.2
1366,E6,140.625,0.125,50,114.2
1367,G#6,140.75,0.25,50,114.2
1368,E7,140.875,0.125,51,114.2
1369,A6,141.0,123/500,59,114.2
1370,C#5,141.0,0.438,62,114.2
1371,E5,141.0,0.438,62,114.2
1372,A5,141.0,0.438,62,114.2
1373,E6,141.125,0.125,52,114.2
1374,A6,141.25,0.25,52,114.2
1375,E7,141.375,0.125,52,114.2
1376,B4,141.438,229/500,62,114.2
1377,E5,141.438,229/500,62,114.2
1378,G#5,141.438,229/500,62,114.2
1379,B6,141.5,123/500,62,114.2
1380,B5,141.5,0.438,63,114.2
1381,E6,141.625,0.125,53,114.2
1382,B6,141.75,0.25,54,114.2
1383,E7,141.875,0.125,55,114.2
1384,B-4,141.938,229/500,65,114.2
1385,E5,141.938,229/500,65,114.2
1386,G5,141.938,229/500,65,114.2
1387,C7,142.0,123/500,62,114.2
1388,C6,142.0,0.438,70,114.2
1389,E6,142.125,0.125,56,114.2
1390,C7,142.25,0.25,56,114.2
1391,E7,142.375,0.125,56,114.2
1392,B-4,142.438,229/500,65,114.2
1393,E5,142.438,229/500,65,114.2
1394,G5,142.438,229/500,65,114.2
1395,C#7,142.5,123/500,63,114.2
1396,C#6,142.5,0.438,69,114.2
1397,E6,142.625,0.125,55,114.2
1398,C#7,142.75,0.25,55,114.2
1399,E7,142.875,0.125,55,114.2
1400,B4,142.938,521/1000,66,114.2
1401,F#5,142.938,521/1000,66,114.2
1402,A5,142.938,521/1000,66,114.2
1403,E-7,143.0,123/500,61,114.2
1404,E-6,143.0,0.5,71,114.2
1405,F#6,143.125,0.125,55,114.2
1406,E-7,143.25,0.25,55,114.2
1407,F#7,143.375,0.125,55,114.2
1408,B6,143.5,0.125,67,114.2
1409,G#5,143.5,0.5,69,114.2
1410,E5,143.5,1.0,58,114.2
1411,F#6,143.625,0.125,54,114.2
1412,B6,143.75,0.125,54,114.2
1413,F#7,143.875,0.125,54,114.2
1414,B6,144.0,0.125,66,114.2
1415,B5,144.0,0.5,63,114.2
1416,E6,144.125,0.125,55,114.2
1417,B6,144.25,0.125,55,114.2
1418,E7,144.375,0.125,55,114.2
1419,B6,144.5,0.125,66,114.2
1420,A5,144.5,0.25,68,114.2
1421,B4,144.5,1.0,57,114.2
1422,F#5,144.5,1.0,57,114.2
1423,E6,144.625,0.125,56,114.2
1424,B6,144.75,0.125,56,114.2
1425,E7,144.875,0.125,56,114.2
1426,B6,145.0,0.125,67,114.2
1427,B5,145.0,0.25,60,114.2
1428,E-6,145.125,0.125,57,114.2
1429,B6,145.25,0.125,57,114.2
1430,E-7,145.375,0.125,57,114.2
1431,B6,145.5,0.125,67,114.2
1432,G#5,145.5,0.5,68,114.2
1433,E5,145.5,1.0,57,114.2
1434,F#6,145.625,0.125,54,114.2
1435,B6,145.75,0.125,54,114.2
1436,F#7,145.875,0.125,54,114.2
1437,B6,146.0,0.125,66,114.2
1438,B5,146.0,0.5,60,114.2
1439,E6,146.125,0.125,55,114.2
1440,B6,146.25,0.125,55,114.2
1441,E7,146.375,0.125,55,114.2
1442,B6,146.5,0.125,66,114.2
1443,A5,146.5,0.25,67,114.2
1444,B4,146.5,1.0,56,114.2
1445,F#5,146.5,1.0,56,114.2
1446,E6,146.625,0.125,56,114.2
1447,B6,146.75,0.125,56,114.2
1448,E7,146.875,0.125,56,114.2
1449,B6,147.0,0.125,67,114.2
1450,B5,147.0,0.25,61,114.2
1451,E-6,147.125,0.125,57,114.2
1452,B6,147.25,0.125,57,114.2
1453,E-7,147.375,0.125,57,114.2
1454,B6,147.5,0.125,63,114.2
1455,F#6,147.5,0.25,65,114.2
1456,G#5,147.5,0.25,65,114.2
1457,E5,147.5,1.0,55,114.2
1458,F#7,147.625,0.125,51,114.2
1459,B6,147.75,0.125,50,114.2
1460,F#7,147.875,0.125,49,114.2
1461,E6,148.0,0.25,63,114.2
1462,B6,148.0,0.125,60,114.2
1463,B5,148.0,0.25,57,114.2
1464,E7,148.125,0.125,50,114.2
1465,B6,148.25,0.125,49,114.2
1466,E7,148.375,0.125,49,114.2
1467,E6,148.5,0.25,61,114.2
1468,B6,148.5,0.125,58,114.2
1469,A5,148.5,0.25,60,114.2
1470,B4,148.5,1.0,51,114.2
1471,F#5,148.5,1.0,51,114.2
1472,E7,148.625,0.125,49,114.2
1473,B6,148.75,0.125,49,114.2
1474,E7,148.875,0.125,49,114.2
1475,E-6,149.0,0.25,59,114.2
1476,B6,149.0,0.125,57,114.2
1477,B5,149.0,0.25,52,114.2
1478,E-7,149.125,0.125,49,114.2
1479,B6,149.25,0.125,48,114.2
1480,E-7,149.375,0.125,48,114.2
1481,F#6,149.5,0.25,58,114.2
1482,B6,149.5,0.125,57,114.2
1483,G#5,149.5,0.25,57,114.2
1484,E5,149.5,1.0,48,114.2
1485,F#7,149.625,0.125,45,114.2
1486,B6,149.75,0.125,44,114.2
1487,F#7,149.875,0.125,44,114.2
1488,B6,150.0,0.125,54,114.2
1489,E6,150.0,0.25,57,114.2
1490,B5,150.0,0.25,49,114.2
1491,E7,150.125,0.125,44,114.2
1492,B6,150.25,0.125,44,114.2
1493,E7,150.375,0.125,43,114.2
1494,E6,150.5,0.25,54,114.2
1495,B6,150.5,0.125,52,114.2
1496,A5,150.5,0.25,53,114.2
1497,B4,150.5,1.0,44,114.2
1498,F#5,150.5,1.0,44,114.2
1499,E7,150.625,0.125,44,114.2
1500,B6,150.75,0.125,43,114.2
1501,E7,150.875,0.125,42,114.2
1502,E-6,151.0,0.25,53,114.2
1503,B6,151.0,0.125,51,114.2
1504,B5,151.0,0.25,47,114.2
1505,E-7,151.125,0.125,43,114.2
1506,B6,151.25,0.125,42,114.2
1507,E-7,151.375,0.125,38,114.2
1508,E5,151.5,0.125,49,114.2
1509,G#5,151.625,0.125,49,114.2
1510,E6,151.75,0.125,49,114.2
1511,B6,151.875,0.125,49,114.2
1512,F#7,152.0,0.125,49,114.2
1513,E7,152.125,0.125,49,114.2
1514,B6,152.25,0.125,49,114.2
1515,B-6,152.375,0.125,49,114.2
1516,C#7,152.5,0.125,50,114.2
1517,B6,152.625,0.125,50,114.2
1518,G#6,152.75,0.125,50,114.2
1519,G6,152.875,0.125,50,114.2
1520,A6,153.0,0.125,51,114.2
1521,G#6,153.125,0.125,51,114.2
1522,E6,153.25,0.125,51,114.2
1523,E-6,153.375,0.125,51,114.2
1524,F#6,153.5,0.125,52,114.2
1525,E6,153.625,0.125,52,114.2
1526,B5,153.75,0.125,52,114.2
1527,B-5,153.875,0.125,53,114.2
1528,C#6,154.0,0.125,53,114.2
1529,B5,154.125,0.125,53,114.2
1530,G#5,154.25,0.125,53,114.2
1531,G5,154.375,0.125,54,114.2
1532,A5,154.5,0.125,54,114.2
1533,G#5,154.625,0.125,54,114.2
1534,E5,154.75,0.125,54,114.2
1535,E-5,154.875,0.125,55,114.2
1536,F#5,155.0,0.125,55,114.2
1537,E5,155.125,0.125,55,114.2
1538,B4,155.25,0.125,55,114.2
1539,B-4,155.375,0.125,56,114.2
1540,C#5,155.5,0.125,56,114.2
1541,B4,155.625,0.125,56,114.2
1542,G#4,155.75,0.125,57,114.2
1543,G4,155.875,0.125,57,114.2
1544,A4,156.0,0.125,57,114.2
1545,G#4,156.125,0.125,58,114.2
1546,E4,156.25,0.125,59,114.2
1547,E-4,156.375,0.125,60,114.2
1548,F#4,156.5,3/20,60,114.2
1549,E4,156.625,3/20,60,114.2
1550,B3,156.75,3/20,60,114.2
1551,B-3,156.875,3/20,61,114.2
1552,C#4,157.0,3/20,61,114.2
1553,B3,157.125,3/20,61,114.2
1554,G#3,157.25,3/20,62,114.2
1555,G3,157.375,3/20,62,114.2
1556,A3,157.5,0.125,62,114.2
1557,G#3,157.625,0.125,63,114.2
1558,E3,157.75,0.125,66,114.2
1559,E-3,157.875,0.125,64,114.2
1560,F#3,158.0,0.125,62,114.2
1561,E3,158.125,0.125,60,114.2
1562,B2,158.25,0.125,58,114.2
1563,B-2,158.375,0.125,56,114.2
1564,C#3,158.5,0.125,54,114.2
1565,B2,158.625,0.125,52,114.2
1566,G#2,158.75,0.125,50,114.2
1567,E-2,158.875,0.125,49,114.2
1568,E2,159.0,7/50,44,114.2
1569,B2,159.14,7/50,46,114.2
1570,E3,159.281,7/50,49,114.2
1571,G#3,159.421,7/50,51,114.2
1572,B3,159.56,7/50,49,114.2
1573,E4,159.7,7/50,50,114.2
1574,G#4,159.84,7/50,51,114.2
1575,B4,159.981,7/50,52,114.2
1576,E5,160.121,7/50,53,114.2
1577,G#5,160.26,7/50,54,114.2
1578,B5,160.4,7/50,56,114.2
1579,E6,160.54,7/50,57,114.2
1580,B6,160.681,7/50,58,114.2
1581,G#6,160.821,7/50,59,114.2
1582,E6,160.96,7/50,59,114.2
1583,B5,161.1,7/50,58,114.2
1584,G#5,161.24,7/50,57,114.2
1585,E5,161.381,7/50,56,114.2
1586,B4,161.521,7/50,55,114.2
1587,G#4,161.66,7/50,54,114.2
1588,E4,161.8,7/50,52,114.2
1589,B3,161.94,7/50,51,114.2
1590,G#3,162.081,7/50,42,114.2
1591,E3,162.221,7/50,42,114.2
1592,B2,162.36,7/50,42,114.2
1593,E2,162.5,0.125,72,114.2
1594,F#2,162.75,0.125,43,114.2
1595,G#2,163.0,0.125,43,114.2
1596,A2,163.25,0.125,43,114.2
1597,C#3,163.375,0.125,44,114.2
1598,B2,163.5,0.125,47,114.2
1599,B-2,163.75,0.125,40,114.2
1600,B2,164.0,0.125,40,114.2
1601,D3,164.25,0.125,40,114.2
1602,D3,164.5,0.188,48,114.2
1603,C3,165.0,1.0,47,114.2
1604,E3,165.5,1.0,31,114.2
1605,G#3,165.5,1.0,31,114.2
1606,D4,165.5,1.0,31,114.2
1607,E4,165.5,1.0,31,114.2
1608,B2,166.0,0.5,43,114.2
1609,E2,166.75,0.125,43,114.2
1610,F#2,167.0,0.125,43,114.2
1611,G#2,167.25,0.125,43,114.2
1612,B2,167.375,0.125,44,114.2
1613,A2,167.5,0.125,50,114.2
1614,G#2,167.75,0.125,40,114.2
1615,A2,168.0,0.125,40,114.2
1616,C3,168.25,0.125,40,114.2
1617,B2,168.5,0.188,48,114.2
1618,A2,169.0,1.0,47,114.2
1619,E3,169.5,1.0,31,114.2
1620,A3,169.5,1.0,31,114.2
1621,C4,169.5,1.0,31,114.2
1622,E4,169.5,1.0,31,114.2
1623,A2,170.0,0.5,43,114.2
1624,B1,170.5,0.125,54,114.2
1625,C2,170.75,0.125,44,114.2
1626,E-2,171.0,0.125,44,114.2
1627,E2,171.25,0.125,45,114.2
1628,A2,171.375,0.125,46,114.2
1629,G2,171.5,0.125,54,114.2
1630,F#2,171.75,0.125,43,114.2
1631,G2,172.0,0.125,43,114.2
1632,A2,172.25,0.125,43,114.2
1633,G2,172.5,0.188,51,114.2
1634,F#2,173.0,1.0,49,114.2
1635,F#3,173.5,1.0,31,114.2
1636,B-3,173.5,1.0,31,114.2
1637,E4,173.5,1.0,31,114.2
1638,F#4,173.5,1.0,31,114.2
1639,F#2,174.0,0.5,46,114.2
1640,B1,174.5,0.125,49,114.2
1641,C#2,174.75,0.125,43,114.2
1642,E-2,175.0,0.125,43,114.2
1643,E2,175.25,0.125,43,114.2
1644,G2,175.375,0.125,44,114.2
1645,F#2,175.5,0.125,50,114.2
1646,E2,175.75,0.125,40,114.2
1647,F#2,176.0,0.125,40,114.2
1648,B2,176.25,0.125,40,114.2
1649,A3,176.5,0.25,31,114.2
1650,E-4,176.5,0.25,31,114.2
1651,B4,176.5,0.25,31,114.2
1652,E5,178.5,0.125,61,114.2
1653,E6,178.5,0.125,61,114.2
1654,E2,178.5,0.25,43,114.2
1655,E3,178.5,0.25,43,114.2
1656,F#5,178.75,0.125,52,114.2
1657,F#6,178.75,0.125,52,114.2
1658,G#5,179.0,0.125,52,114.2
1659,G#6,179.0,0.125,52,114.2
1660,E4,179.0,0.25,33,114.2
1661,D4,179.0,0.25,33,114.2
1662,A5,179.25,0.125,52,114.2
1663,A6,179.25,0.125,52,114.2
1664,C#6,179.375,0.125,57,114.2
1665,G#3,179.5,0.25,40,114.2
1666,B5,179.5,0.125,58,114.2
1667,B6,179.5,0.125,58,114.2
1668,B-5,179.75,0.125,49,114.2
1669,B-6,179.75,0.125,49,114.2
1670,B5,180.0,0.125,49,114.2
1671,B6,180.0,0.125,49,114.2
1672,E4,180.0,0.25,32,114.2
1673,D4,180.0,0.25,32,114.2
1674,D6,180.25,0.125,49,114.2
1675,D7,180.25,0.125,49,114.2
1676,E3,180.5,0.25,43,114.2
1677,D6,180.5,0.25,59,114.2
1678,D7,180.5,0.25,59,114.2
1679,C#6,181.0,1.0,63,114.2
1680,C#7,181.0,1.0,63,114.2
1681,E4,181.0,0.25,34,114.2
1682,D4,181.0,0.25,34,114.2
1683,G#3,181.5,0.25,43,114.2
1684,B5,182.0,0.5,52,114.2
1685,B6,182.0,0.5,52,114.2
1686,E4,182.0,0.25,36,114.2
1687,D4,182.0,0.25,36,114.2
1688,A2,182.5,0.25,43,114.2
1689,B5,182.5,0.25,52,114.2
1690,B6,182.5,0.25,52,114.2
1691,E5,182.75,0.125,52,114.2
1692,E6,182.75,0.125,52,114.2
1693,F#5,183.0,0.125,52,114.2
1694,F#6,183.0,0.125,52,114.2
1695,E4,183.0,0.25,33,114.2
1696,C4,183.0,0.25,33,114.2
1697,G#5,183.25,0.125,52,114.2
1698,G#6,183.25,0.125,52,114.2
1699,B5,183.375,0.125,57,114.2
1700,A3,183.5,0.25,40,114.2
1701,A5,183.5,0.125,58,114.2
1702,A6,183.5,0.125,58,114.2
1703,G#5,183.75,0.125,49,114.2
1704,G#6,183.75,0.125,49,114.2
1705,A5,184.0,0.125,49,114.2
1706,A6,184.0,0.125,49,114.2
1707,E4,184.0,0.25,32,114.2
1708,C4,184.0,0.25,32,114.2
1709,C6,184.25,0.125,49,114.2
1710,C7,184.25,0.125,49,114.2
1711,E3,184.5,0.25,43,114.2
1712,B5,184.5,0.25,59,114.2
1713,B6,184.5,0.25,59,114.2
1714,A5,185.0,1.0,63,114.2
1715,A6,185.0,1.0,63,114.2
1716,E4,185.0,0.25,34,114.2
1717,C4,185.0,0.25,34,114.2
1718,A3,185.5,0.25,43,114.2
1719,A5,186.0,0.5,52,114.2
1720,A6,186.0,0.5,52,114.2
1721,E4,186.0,0.25,36,114.2
1722,C4,186.0,0.25,36,114.2
1723,B2,186.5,0.25,43,114.2
1724,B4,186.5,0.125,61,114.2
1725,B5,186.5,0.125,61,114.2
1726,C5,186.75,0.125,52,114.2
1727,C6,186.75,0.125,52,114.2
1728,E-5,187.0,0.125,52,114.2
1729,E-6,187.0,0.125,52,114.2
1730,E4,187.0,0.25,33,114.2
1731,B3,187.0,0.25,33,114.2
1732,E5,187.25,0.125,52,114.2
1733,E6,187.25,0.125,52,114.2
1734,A5,187.375,0.125,57,114.2
1735,G3,187.5,0.25,40,114.2
1736,G5,187.5,0.125,58,114.2
1737,G6,187.5,0.125,58,114.2
1738,F#5,187.75,0.125,49,114.2
1739,F#6,187.75,0.125,49,114.2
1740,G5,188.0,0.125,49,114.2
1741,G6,188.0,0.125,49,114.2
1742,E4,188.0,0.25,32,114.2
1743,B3,188.0,0.25,32,114.2
1744,A5,188.25,0.125,49,114.2
1745,A6,188.25,0.125,49,114.2
1746,C#3,188.5,0.25,43,114.2
1747,G5,188.5,0.25,59,114.2
1748,G6,188.5,0.25,59,114.2
1749,F#5,189.0,1.0,63,114.2
1750,F#6,189.0,1.0,63,114.2
1751,E4,189.0,0.25,34,114.2
1752,B-3,189.0,0.25,34,114.2
1753,C3,189.5,0.25,43,114.2
1754,F#5,190.0,0.5,52,114.2
1755,F#6,190.0,0.5,52,114.2
1756,E4,190.0,0.25,36,114.2
1757,B-3,190.0,0.25,36,114.2
1758,B2,190.5,0.25,43,114.2
1759,B4,190.5,0.125,61,114.2
1760,B5,190.5,0.125,61,114.2
1761,C5,190.75,0.125,52,114.2
1762,C6,190.75,0.125,52,114.2
1763,E-5,191.0,0.125,52,114.2
1764,E-6,191.0,0.125,52,114.2
1765,E-4,191.0,0.25,33,114.2
1766,B3,191.0,0.25,33,114.2
1767,E5,191.25,0.125,52,114.2
1768,E6,191.25,0.125,52,114.2
1769,A3,191.5,0.25,40,114.2
1770,F#5,191.5,0.125,58,114.2
1771,F#6,191.5,0.125,58,114.2
1772,E6,191.75,0.125,46,114.2
1773,E5,191.75,0.125,46,114.2
1774,G6,192.0,0.125,56,114.2
1775,G5,192.0,0.125,56,114.2
1776,E-4,192.0,0.25,32,114.2
1777,B3,192.0,0.25,32,114.2
1778,F#6,192.25,0.125,52,114.2
1779,F#5,192.25,0.125,52,114.2
1780,E6,192.5,0.125,59,114.2
1781,E5,192.5,0.125,59,114.2
1782,E3,192.5,0.25,36,114.2
1783,G3,192.5,0.25,36,114.2
1784,E4,192.5,0.25,36,114.2
1785,E-6,192.75,0.125,50,114.2
1786,E-5,192.75,0.125,50,114.2
1787,G6,193.0,0.125,56,114.2
1788,G5,193.0,0.125,56,114.2
1789,E-4,193.0,0.25,32,114.2
1790,A4,193.0,0.25,32,114.2
1791,B3,193.0,0.25,32,114.2
1792,F#6,193.25,0.125,50,114.2
1793,F#5,193.25,0.125,50,114.2
1794,E6,193.5,0.125,54,114.2
1795,E5,193.5,0.125,54,114.2
1796,E4,193.5,0.25,32,114.2
1797,G4,193.5,0.25,32,114.2
1798,E4,194.375,83/1000,57,114.2
1799,E4,194.5,0.125,65,114.2
1800,E2,194.5,0.25,43,114.2
1801,F#4,194.75,0.125,56,114.2
1802,G#4,195.0,0.125,56,114.2
1803,D4,195.0,0.25,33,114.2
1804,G#3,195.0,0.25,33,114.2
1805,A4,195.25,0.125,56,114.2
1806,C#5,195.375,0.125,57,114.2
1807,B4,195.5,0.125,62,114.2
1808,E3,195.5,0.25,40,114.2
1809,B-4,195.75,0.125,52,114.2
1810,B4,196.0,0.125,52,114.2
1811,D4,196.0,0.25,32,114.2
1812,G#3,196.0,0.25,32,114.2
1813,D5,196.25,0.125,52,114.2
1814,D5,196.5,0.25,65,114.2
1815,E5,196.5,0.125,65,114.2
1816,F#5,196.75,0.125,56,114.2
1817,G#5,197.0,0.125,56,114.2
1818,D4,197.0,1.0,50,114.2
1819,E4,197.0,1.0,50,114.2
1820,G#4,197.0,1.0,50,114.2
1821,C#5,197.0,1.0,50,114.2
1822,A5,197.25,0.125,56,114.2
1823,C#6,197.375,0.125,57,114.2
1824,B5,197.5,0.125,66,114.2
1825,B-5,197.75,0.125,58,114.2
1826,B5,198.0,0.125,57,114.2
1827,D4,198.0,0.5,46,114.2
1828,E4,198.0,0.5,46,114.2
1829,G#4,198.0,0.5,46,114.2
1830,B4,198.0,0.5,46,114.2
1831,E6,198.25,0.125,57,114.2
1832,A2,198.5,0.25,43,114.2
1833,E4,198.75,0.125,56,114.2
1834,F#4,199.0,0.125,56,114.2
1835,C4,199.0,0.25,33,114.2
1836,A3,199.0,0.25,33,114.2
1837,G#4,199.25,0.125,56,114.2
1838,B4,199.375,0.125,57,114.2
1839,A4,199.5,0.125,62,114.2
1840,E3,199.5,0.25,40,114.2
1841,G#4,199.75,0.125,52,114.2
1842,A4,200.0,0.125,52,114.2
1843,C4,200.0,0.25,32,114.2
1844,A3,200.0,0.25,32,114.2
1845,C5,200.25,0.125,52,114.2
1846,B4,200.5,0.25,65,114.2
1847,E5,200.75,0.125,56,114.2
1848,F#5,201.0,0.125,56,114.2
1849,C4,201.0,1.0,52,114.2
1850,E4,201.0,1.0,52,114.2
1851,A4,201.0,1.0,52,114.2
1852,G#5,201.25,0.125,56,114.2
1853,B5,201.375,0.125,57,114.2
1854,A5,201.5,0.125,66,114.2
1855,G#5,201.75,0.125,56,114.2
1856,A5,202.0,0.125,56,114.2
1857,C4,202.0,0.5,46,114.2
1858,E4,202.0,0.5,46,114.2
1859,A4,202.0,0.5,46,114.2
1860,E6,202.25,0.125,56,114.2
1861,B3,202.5,0.125,65,114.2
1862,B2,202.5,0.25,43,114.2
1863,C4,202.75,0.125,56,114.2
1864,E-4,203.0,0.125,56,114.2
1865,B3,203.0,0.25,33,114.2
1866,G3,203.0,0.25,33,114.2
1867,E4,203.25,0.125,56,114.2
1868,G4,203.375,0.062,57,114.2
1869,A4,203.438,0.062,57,114.2
1870,G4,203.5,0.125,62,114.2
1871,E3,203.5,0.25,40,114.2
1872,F#4,203.75,0.125,52,114.2
1873,G4,204.0,0.125,52,114.2
1874,B3,204.0,0.25,32,114.2
1875,G3,204.0,0.25,32,114.2
1876,A4,204.25,0.125,52,114.2
1877,G4,204.5,0.25,65,114.2
1878,C#3,204.5,0.25,43,114.2
1879,B-4,204.75,0.125,56,114.2
1880,E5,205.0,0.125,56,114.2
1881,B-3,205.0,1.0,51,114.2
1882,E4,205.0,1.0,51,114.2
1883,F#4,205.0,1.0,51,114.2
1884,F5,205.25,0.125,56,114.2
1885,F#5,205.375,0.062,57,114.2
1886,G5,205.438,0.062,57,114.2
1887,F#5,205.5,0.125,66,114.2
1888,C3,205.5,0.25,43,114.2
1889,F5,205.75,0.125,53,114.2
1890,F#5,206.0,0.125,53,114.2
1891,B-3,206.0,0.5,46,114.2
1892,E4,206.0,0.5,46,114.2
1893,F#4,206.0,0.5,46,114.2
1894,F#6,206.25,0.125,59,114.2
1895,B2,206.5,0.25,43,114.2
1896,B5,206.5,0.125,61,114.2
1897,B6,206.5,0.125,61,114.2
1898,C6,206.75,0.125,52,114.2
1899,C7,206.75,0.125,52,114.2
1900,E-6,207.0,0.125,52,114.2
1901,E-7,207.0,0.125,52,114.2
1902,F#3,207.0,0.25,33,114.2
1903,E-4,207.0,0.25,33,114.2
1904,A3,207.0,0.25,33,114.2
1905,E6,207.25,0.125,52,114.2
1906,E7,207.25,0.125,52,114.2
1907,B2,207.5,0.25,40,114.2
1908,F#6,207.5,0.125,58,114.2
1909,F#7,207.5,0.125,58,114.2
1910,E7,207.75,0.125,46,114.2
1911,E6,207.75,0.125,46,114.2
1912,G7,208.0,0.125,56,114.2
1913,G6,208.0,0.125,56,114.2
1914,F#3,208.0,0.25,32,114.2
1915,E-4,208.0,0.25,32,114.2
1916,A3,208.0,0.25,32,114.2
1917,F#7,208.25,0.125,52,114.2
1918,F#6,208.25,0.125,52,114.2
1919,E7,208.5,0.125,59,114.2
1920,E6,208.5,0.125,59,114.2
1921,E3,208.5,0.25,36,114.2
1922,G3,208.5,0.25,36,114.2
1923,E4,208.5,0.25,36,114.2
1924,E-7,208.75,0.125,50,114.2
1925,E-6,208.75,0.125,50,114.2
1926,G7,209.0,0.125,56,114.2
1927,G6,209.0,0.125,56,114.2
1928,E-4,209.0,0.25,32,114.2
1929,A4,209.0,0.25,32,114.2
1930,B3,209.0,0.25,32,114.2
1931,F#7,209.25,0.125,50,114.2
1932,F#6,209.25,0.125,50,114.2
1933,E7,209.5,0.125,54,114.2
1934,E6,209.5,0.125,54,114.2
1935,E4,209.5,0.25,32,114.2
1936,G4,209.5,0.25,32,114.2
1937,E5,210.375,83/1000,63,114.2
1938,E5,210.5,0.25,70,114.2
1939,C5,210.5,0.5,59,114.2
1940,A3,210.5,0.5,43,114.2
1941,A5,210.75,0.125,61,114.2
1942,A4,210.75,0.125,33,114.2
1943,A5,211.0,0.25,61,114.2
1944,C5,211.0,0.5,51,114.2
1945,E4,211.0,0.125,38,114.2
1946,C6,211.25,0.125,61,114.2
1947,A4,211.25,0.125,33,114.2
1948,C6,211.5,0.25,68,114.2
1949,D5,211.5,0.5,57,114.2
1950,E3,211.5,0.5,44,114.2
1951,B5,211.75,0.125,59,114.2
1952,G#4,211.75,0.125,33,114.2
1953,B5,212.0,0.25,59,114.2
1954,D5,212.0,0.5,50,114.2
1955,E4,212.0,0.125,37,114.2
1956,E5,212.25,23/200,59,114.2
1957,G#4,212.25,0.125,33,114.2
1958,C5,212.375,0.125,49,114.2
1959,E5,212.375,0.125,49,114.2
1960,B5,212.375,0.125,49,114.2
1961,A5,212.5,0.125,68,114.2
1962,A3,212.5,0.5,43,114.2
1963,A4,212.75,0.125,33,114.2
1964,E4,213.0,0.125,38,114.2
1965,A5,213.0,1.0,57,114.2
1966,C5,213.0,1.0,57,114.2
1967,E5,213.0,1.0,57,114.2
1968,A4,213.25,0.125,33,114.2
1969,A3,213.5,0.5,44,114.2
1970,A4,213.75,0.125,33,114.2
1971,A5,214.0,0.25,66,114.2
1972,C5,214.0,0.5,56,114.2
1973,E4,214.0,0.125,37,114.2
1974,C6,214.25,0.125,64,114.2
1975,A4,214.25,0.125,33,114.2
1976,C5,214.5,0.5,59,114.2
1977,G3,214.5,0.5,43,114.2
1978,E5,214.5,0.25,70,114.2
1979,C6,214.5,0.25,70,114.2
1980,G5,214.75,0.125,61,114.2
1981,G4,214.75,0.125,33,114.2
1982,E5,215.0,0.25,56,114.2
1983,G5,215.0,0.25,56,114.2
1984,E4,215.0,0.125,35,114.2
1985,C4,215.0,0.125,35,114.2
1986,G4,215.25,0.125,33,114.2
1987,A5,215.25,0.125,56,114.2
1988,F5,215.25,0.125,56,114.2
1989,B4,215.5,0.5,57,114.2
1990,G3,215.5,0.5,44,114.2
1991,F5,215.5,0.25,62,114.2
1992,A5,215.5,0.25,62,114.2
1993,D5,215.75,0.125,59,114.2
1994,G4,215.75,0.125,33,114.2
1995,F5,216.0,0.25,54,114.2
1996,D5,216.0,0.25,54,114.2
1997,F4,216.0,0.125,34,114.2
1998,B3,216.0,0.125,34,114.2
1999,G5,216.25,13/125,59,114.2
2000,G4,216.25,0.125,33,114.2
2001,G5,216.375,0.125,56,114.2
2002,C4,216.5,0.5,43,114.2
2003,E5,216.5,0.125,62,114.2
2004,C5,216.5,0.125,62,114.2
2005,G4,216.75,0.125,33,114.2
2006,E-5,216.875,0.125,52,114.2
2007,B4,216.875,0.125,52,114.2
2008,E4,217.0,0.125,38,114.2
2009,E5,217.0,1.0,59,114.2
2010,C5,217.0,1.0,59,114.2
2011,G4,217.25,0.125,33,114.2
2012,C4,217.5,0.5,44,114.2
2013,G4,217.75,0.125,33,114.2
2014,E4,218.0,0.125,37,114.2
2015,C5,218.0,0.125,59,114.2
2016,E5,218.0,0.125,59,114.2
2017,G5,218.125,0.125,61,114.2
2018,G4,218.25,0.125,33,114.2
2019,E5,218.5,0.25,70,114.2
2020,C5,218.5,0.5,59,114.2
2021,C4,218.5,0.5,43,114.2
2022,G5,218.75,0.125,61,114.2
2023,B-4,218.75,0.125,33,114.2
2024,G5,219.0,0.25,61,114.2
2025,C5,219.0,0.5,51,114.2
2026,E4,219.0,0.125,38,114.2
2027,G4,219.0,0.125,38,114.2
2028,C6,219.25,0.125,61,114.2
2029,B-4,219.25,0.125,33,114.2
2030,C4,219.5,0.5,44,114.2
2031,C6,219.5,0.25,62,114.2
2032,E5,219.5,0.25,62,114.2
2033,B-4,219.75,0.125,33,114.2
2034,B5,219.75,0.125,54,114.2
2035,G5,219.75,0.125,54,114.2
2036,C6,220.0,0.25,54,114.2
2037,E5,220.0,0.25,54,114.2
2038,E4,220.0,0.125,37,114.2
2039,G4,220.0,0.125,37,114.2
2040,B-4,220.25,0.125,33,114.2
2041,B-5,220.25,0.125,54,114.2
2042,G5,220.25,0.125,54,114.2
2043,B-5,220.375,0.125,56,114.2
2044,A3,220.5,0.5,43,114.2
2045,F5,220.5,0.125,64,114.2
2046,A5,220.5,0.125,64,114.2
2047,A4,220.75,0.125,33,114.2
2048,A5,221.0,1.0,57,114.2
2049,C5,221.0,1.0,57,114.2
2050,F5,221.0,1.0,57,114.2
2051,C4,221.0,0.125,34,114.2
2052,F4,221.0,0.125,34,114.2
2053,A4,221.25,0.125,33,114.2
2054,A3,221.5,0.125,44,114.2
2055,A4,221.75,0.125,33,114.2
2056,F4,222.0,0.125,37,114.2
2057,C6,222.0,0.25,61,114.2
2058,C5,222.0,0.25,61,114.2
2059,A4,222.25,0.125,33,114.2
2060,B5,222.5,0.25,70,114.2
2061,B4,222.5,0.5,59,114.2
2062,B3,222.5,0.5,43,114.2
2063,E5,222.75,0.125,61,114.2
2064,G4,222.75,0.125,33,114.2
2065,E5,223.0,0.25,51,114.2
2066,E4,223.0,0.125,38,114.2
2067,E-5,223.25,0.125,61,114.2
2068,G4,223.25,0.125,33,114.2
2069,E-5,223.5,0.25,68,114.2
2070,B3,223.5,0.5,44,114.2
2071,B5,223.75,0.125,59,114.2
2072,A4,223.75,0.125,33,114.2
2073,B5,224.0,0.25,54,114.2
2074,B4,224.0,0.25,54,114.2
2075,F#4,224.0,0.125,34,114.2
2076,E-4,224.0,0.125,34,114.2
2077,E-5,224.25,0.125,59,114.2
2078,A4,224.25,0.125,33,114.2
2079,E4,224.5,0.5,43,114.2
2080,F#5,224.5,0.25,62,114.2
2081,B4,224.5,0.25,62,114.2
2082,E5,224.75,0.125,61,114.2
2083,G4,224.75,0.125,33,114.2
2084,B3,225.0,0.5,43,114.2
2085,F#4,225.0,0.125,38,114.2
2086,E-5,225.0,0.25,59,114.2
2087,B4,225.0,0.25,59,114.2
2088,F#5,225.25,0.125,61,114.2
2089,A4,225.25,0.125,33,114.2
2090,B4,225.5,0.25,53,114.2
2091,E5,225.5,0.25,53,114.2
2092,E4,225.5,0.25,46,114.2
2093,G4,225.5,0.25,46,114.2
2094,E5,226.375,0.125,60,114.2
2095,E6,226.375,0.125,60,114.2
2096,A3,226.5,0.5,43,114.2
2097,E5,226.5,0.25,64,114.2
2098,E6,226.5,0.25,64,114.2
2099,A5,226.75,0.125,61,114.2
2100,C5,226.75,0.125,33,114.2
2101,A5,227.0,0.25,56,114.2
2102,A6,227.0,0.25,56,114.2
2103,A4,227.0,0.125,36,114.2
2104,E4,227.0,0.125,36,114.2
2105,C6,227.25,0.125,61,114.2
2106,C5,227.25,0.125,33,114.2
2107,C7,227.5,0.25,68,114.2
2108,C6,227.5,0.5,57,114.2
2109,E3,227.5,0.5,44,114.2
2110,B6,227.75,0.125,59,114.2
2111,G#4,227.75,0.125,33,114.2
2112,B6,228.0,0.25,59,114.2
2113,B5,228.0,0.5,50,114.2
2114,D4,228.0,0.125,36,114.2
2115,E4,228.0,0.125,36,114.2
2116,E6,228.25,0.125,59,114.2
2117,G#4,228.25,0.125,33,114.2
2118,B6,228.375,0.125,56,114.2
2119,A3,228.5,0.5,43,114.2
2120,A5,228.5,0.125,65,114.2
2121,A6,228.5,0.125,65,114.2
2122,C5,228.75,0.125,33,114.2
2123,A6,229.0,1.0,57,114.2
2124,A5,229.0,1.0,57,114.2
2125,C6,229.0,1.0,57,114.2
2126,A4,229.0,0.125,36,114.2
2127,E4,229.0,0.125,36,114.2
2128,C5,229.25,0.125,33,114.2
2129,A3,229.5,0.5,44,114.2
2130,C5,229.75,0.125,33,114.2
2131,A6,230.0,0.25,61,114.2
2132,C6,230.0,0.25,61,114.2
2133,A4,230.0,0.125,36,114.2
2134,E4,230.0,0.125,36,114.2
2135,C5,230.25,0.125,33,114.2
2136,E6,230.25,0.125,62,114.2
2137,C7,230.25,0.125,62,114.2
2138,C6,230.5,0.5,59,114.2
2139,G3,230.5,0.5,43,114.2
2140,E6,230.5,0.25,70,114.2
2141,C7,230.5,0.25,70,114.2
2142,G6,230.75,0.125,61,114.2
2143,C5,230.75,0.125,33,114.2
2144,G5,231.0,0.5,59,114.2
2145,E6,231.0,0.25,56,114.2
2146,G6,231.0,0.25,56,114.2
2147,G4,231.0,0.125,35,114.2
2148,E4,231.0,0.125,35,114.2
2149,C5,231.25,0.125,33,114.2
2150,A6,231.25,0.125,56,114.2
2151,F6,231.25,0.125,56,114.2
2152,A5,231.5,0.5,57,114.2
2153,G3,231.5,0.5,44,114.2
2154,F6,231.5,0.25,62,114.2
2155,A6,231.5,0.25,62,114.2
2156,D6,231.75,0.125,59,114.2
2157,B4,231.75,0.125,33,114.2
2158,F5,232.0,0.5,59,114.2
2159,F6,232.0,0.25,54,114.2
2160,D6,232.0,0.25,54,114.2
2161,F4,232.0,0.125,34,114.2
2162,D4,232.0,0.125,34,114.2
2163,G6,232.25,13/125,59,114.2
2164,B4,232.25,0.125,33,114.2
2165,G6,232.375,0.125,56,114.2
2166,C4,232.5,0.5,43,114.2
2167,E5,232.5,0.125,61,114.2
2168,E6,232.5,0.125,61,114.2
2169,C6,232.5,0.125,61,114.2
2170,C5,232.75,0.125,33,114.2
2171,E5,233.0,1.0,57,114.2
2172,E6,233.0,1.0,57,114.2
2173,C6,233.0,1.0,57,114.2
2174,G4,233.0,0.125,38,114.2
2175,E4,233.0,0.125,38,114.2
2176,C5,233.25,0.125,33,114.2
2177,C4,233.5,0.5,44,114.2
2178,C5,233.75,0.125,33,114.2
2179,G5,234.0,0.5,59,114.2
2180,E6,234.0,0.125,67,114.2
2181,G4,234.0,0.125,40,114.2
2182,E4,234.0,0.125,40,114.2
2183,G6,234.125,0.125,65,114.2
2184,C5,234.25,0.125,36,114.2
2185,C4,234.5,0.5,47,114.2
2186,C6,234.5,0.25,70,114.2
2187,E5,234.5,0.25,70,114.2
2188,B-4,234.75,0.125,36,114.2
2189,G5,234.75,0.125,61,114.2
2190,E6,234.75,0.125,61,114.2
2191,E6,235.0,0.25,62,114.2
2192,G5,235.0,0.25,62,114.2
2193,E4,235.0,0.125,41,114.2
2194,G4,235.0,0.125,41,114.2
2195,B-4,235.25,0.125,36,114.2
2196,C6,235.25,0.125,61,114.2
2197,G6,235.25,0.125,61,114.2
2198,C4,235.5,0.5,48,114.2
2199,G6,235.5,0.25,68,114.2
2200,C6,235.5,0.25,68,114.2
2201,B-4,235.75,0.125,36,114.2
2202,C7,235.75,0.125,60,114.2
2203,E6,235.75,0.125,60,114.2
2204,C7,236.0,0.25,60,114.2
2205,E6,236.0,0.25,60,114.2
2206,E4,236.0,0.125,40,114.2
2207,G4,236.0,0.125,40,114.2
2208,B-4,236.25,0.125,36,114.2
2209,B-6,236.25,83/1000,60,114.2
2210,G6,236.25,83/1000,60,114.2
2211,G6,236.375,0.125,58,114.2
2212,B-6,236.375,0.125,58,114.2
2213,F3,236.5,0.5,47,114.2
2214,F6,236.5,0.125,70,114.2
2215,A6,236.5,0.125,70,114.2
2216,A4,236.75,0.125,36,114.2
2217,A6,237.0,1.0,63,114.2
2218,A5,237.0,1.0,63,114.2
2219,F6,237.0,1.0,63,114.2
2220,C4,237.0,0.125,37,114.2
2221,F4,237.0,0.125,37,114.2
2222,A4,237.25,0.125,36,114.2
2223,A3,237.5,0.125,48,114.2
2224,C5,237.75,0.125,36,114.2
2225,C7,238.0,0.25,66,114.2
2226,C6,238.0,0.25,66,114.2
2227,A4,238.0,0.125,44,114.2
2228,F4,238.0,0.125,44,114.2
2229,C5,238.25,0.125,41,114.2
2230,B3,238.5,0.5,48,114.2
2231,B6,238.5,0.5,64,114.2
2232,B5,238.5,0.5,64,114.2
2233,E6,238.75,0.125,60,114.2
2234,B4,238.75,0.125,36,114.2
2235,E6,239.0,0.25,51,114.2
2236,B5,239.0,0.5,62,114.2
2237,B6,239.0,0.5,62,114.2
2238,E4,239.0,0.125,43,114.2
2239,G4,239.0,0.125,43,114.2
2240,E-6,239.25,0.125,61,114.2
2241,B4,239.25,0.125,38,114.2
2242,E-6,239.5,0.25,69,114.2
2243,B3,239.5,0.5,50,114.2
2244,B4,239.75,0.125,38,114.2
2245,B5,239.75,0.125,58,114.2
2246,B6,239.75,0.125,58,114.2
2247,B6,240.0,0.5,56,114.2
2248,B5,240.0,0.5,56,114.2
2249,A4,240.0,0.125,40,114.2
2250,F#4,240.0,0.125,40,114.2
2251,E-6,240.25,0.125,62,114.2
2252,B4,240.25,0.125,39,114.2
2253,F#6,240.5,0.25,72,114.2
2254,B3,240.5,0.5,52,114.2
2255,B6,240.5,0.5,62,114.2
2256,B5,240.5,0.5,62,114.2
2257,E6,240.75,0.125,65,114.2
2258,B4,240.75,0.125,40,114.2
2259,E6,241.0,0.25,55,114.2
2260,B5,241.0,0.5,68,114.2
2261,B6,241.0,0.5,68,114.2
2262,E4,241.0,0.125,47,114.2
2263,G4,241.0,0.125,47,114.2
2264,E-6,241.25,0.125,67,114.2
2265,B4,241.25,0.125,40,114.2
2266,E-6,241.5,0.5,76,114.2
2267,B3,241.5,0.5,55,114.2
2268,B4,241.75,0.125,41,114.2
2269,B5,241.75,0.125,63,114.2
2270,B6,241.75,0.125,63,114.2
2271,B6,242.0,0.5,62,114.2
2272,B5,242.0,0.5,62,114.2
2273,A4,242.0,0.125,44,114.2
2274,F#4,242.0,0.125,44,114.2
2275,E-6,242.25,0.125,67,114.2
2276,B4,242.25,0.125,42,114.2
2277,F#6,242.5,0.25,79,114.2
2278,G4,242.5,0.125,49,114.2
2279,E4,242.5,0.5,57,114.2
2280,B6,242.5,0.5,68,114.2
2281,B5,242.5,0.5,68,114.2
2282,E6,242.75,0.125,70,114.2
2283,B4,242.75,0.125,42,114.2
2284,E-6,243.0,0.25,60,114.2
2285,B3,243.0,0.5,50,114.2
2286,B5,243.0,0.5,74,114.2
2287,B6,243.0,0.5,74,114.2
2288,F#4,243.0,0.125,50,114.2
2289,A4,243.0,0.125,50,114.2
2290,F#6,243.25,0.125,72,114.2
2291,B4,243.25,0.125,45,114.2
2292,G4,243.5,0.125,51,114.2
2293,E4,243.5,0.5,61,114.2
2294,B6,243.5,0.5,73,114.2
2295,B5,243.5,0.5,73,114.2
2296,F#6,243.5,0.5,73,114.2
2297,E6,243.75,0.125,72,114.2
2298,B4,243.75,0.125,45,114.2
2299,B3,244.0,0.5,54,114.2
2300,E-6,244.0,0.5,68,114.2
2301,B6,244.0,0.5,68,114.2
2302,B5,244.0,0.5,68,114.2
2303,A4,244.0,0.125,47,114.2
2304,F#4,244.0,0.125,47,114.2
2305,F#6,244.25,0.125,73,114.2
2306,B4,244.25,0.125,47,114.2
2307,B5,244.5,0.25,77,114.2
2308,E6,244.5,0.25,77,114.2
2309,B6,244.5,0.25,77,114.2
2310,E4,244.5,0.25,57,114.2
2311,G4,244.5,0.25,57,114.2
2312,B4,246.0,0.188,52,114.2
2313,A2,246.188,0.312,48,114.2
2314,E3,246.25,0.25,53,114.2
2315,A3,246.312,0.188,57,114.2
2316,C4,246.375,0.125,56,114.2
2317,E4,246.438,0.062,63,114.2
2318,C5,246.5,1.0,70,114.2
2319,C4,246.5,1.0,56,114.2
2320,E4,246.5,1.0,63,114.2
2321,A2,246.5,1.0,48,114.2
2322,E3,246.5,1.0,53,114.2
2323,A3,246.5,1.0,57,114.2
2324,B4,247.5,0.125,45,114.2
2325,E5,247.625,0.125,40,114.2
2326,C5,247.625,0.125,40,114.2
2327,E-5,247.75,0.125,40,114.2
2328,C5,247.875,0.125,40,114.2
2329,E5,247.875,0.125,40,114.2
2330,B4,248.0,0.125,45,114.2
2331,C5,248.125,0.125,42,114.2
2332,E5,248.125,0.125,42,114.2
2333,E-5,248.25,0.125,42,114.2
2334,C5,248.375,0.125,43,114.2
2335,E5,248.375,0.125,43,114.2
2336,B4,248.5,0.125,47,114.2
2337,E5,248.625,0.125,43,114.2
2338,C5,248.625,0.125,43,114.2
2339,E-5,248.75,0.125,44,114.2
2340,C5,248.875,0.125,44,114.2
2341,E5,248.875,0.125,44,114.2
2342,B4,249.0,0.125,49,114.2
2343,C5,249.125,0.125,45,114.2
2344,E5,249.125,0.125,45,114.2
2345,E-5,249.25,0.125,45,114.2
2346,C5,249.375,0.125,45,114.2
2347,E5,249.375,0.125,45,114.2
2348,B4,249.5,0.125,50,114.2
2349,E5,249.625,0.125,47,114.2
2350,C5,249.625,0.125,47,114.2
2351,E-5,249.75,0.125,48,114.2
2352,C5,249.875,0.125,48,114.2
2353,E5,249.875,0.125,48,114.2
2354,B4,250.0,0.125,52,114.2
2355,C5,250.125,0.125,48,114.2
2356,E5,250.125,0.125,48,114.2
2357,E-5,250.25,0.125,48,114.2
2358,C5,250.375,0.125,49,114.2
2359,E5,250.375,0.125,49,114.2
2360,C6,250.5,0.125,69,114.2
2361,A2,251.188,0.312,48,114.2
2362,F#3,251.25,0.25,53,114.2
2363,C4,251.312,0.188,57,114.2
2364,E-4,251.375,0.125,56,114.2
2365,F#4,251.438,0.062,63,114.2
2366,E-5,251.5,1.0,70,114.2
2367,E-4,251.5,1.0,56,114.2
2368,F#4,251.5,1.0,63,114.2
2369,A2,251.5,1.0,48,114.2
2370,F#3,251.5,1.0,53,114.2
2371,C4,251.5,1.0,57,114.2
2372,D5,252.5,0.125,45,114.2
2373,F#5,252.625,0.125,40,114.2
2374,E-5,252.625,0.125,40,114.2
2375,F5,252.75,0.125,40,114.2
2376,E-5,252.875,0.125,40,114.2
2377,F#5,252.875,0.125,40,114.2
2378,D5,253.0,0.125,45,114.2
2379,E-5,253.125,0.125,42,114.2
2380,F#5,253.125,0.125,42,114.2
2381,F5,253.25,0.125,42,114.2
2382,E-5,253.375,0.125,43,114.2
2383,F#5,253.375,0.125,43,114.2
2384,D5,253.5,0.125,47,114.2
2385,F#5,253.625,0.125,43,114.2
2386,E-5,253.625,0.125,43,114.2
2387,F5,253.75,0.125,44,114.2
2388,E-5,253.875,0.125,44,114.2
2389,F#5,253.875,0.125,44,114.2
2390,D5,254.0,0.125,49,114.2
2391,E-5,254.125,0.125,45,114.2
2392,F#5,254.125,0.125,45,114.2
2393,F5,254.25,0.125,45,114.2
2394,E-5,254.375,0.125,45,114.2
2395,F#5,254.375,0.125,45,114.2
2396,D5,254.5,0.125,50,114.2
2397,F#5,254.625,0.125,47,114.2
2398,E-5,254.625,0.125,47,114.2
2399,F5,254.75,0.125,48,114.2
2400,E-5,254.875,0.125,48,114.2
2401,F#5,254.875,0.125,48,114.2
2402,D5,255.0,0.125,52,114.2
2403,E-5,255.125,0.125,48,114.2
2404,F#5,255.125,0.125,48,114.2
2405,F5,255.25,0.125,48,114.2
2406,E-5,255.375,0.125,49,114.2
2407,F#5,255.375,0.125,49,114.2
2408,E-6,255.5,0.125,72,114.2
2409,E2,256.25,0.25,65,114.2
2410,G3,256.312,0.188,68,114.2
2411,E4,256.375,0.125,72,114.2
2412,B4,256.438,0.062,76,114.2
2413,E5,256.5,1.0,84,114.2
2414,E4,256.5,1.0,72,114.2
2415,B4,256.5,1.0,76,114.2
2416,E2,256.5,1.0,65,114.2
2417,G3,256.5,1.0,68,114.2
2418,E-5,257.5,0.125,49,114.2
2419,B5,257.625,0.125,44,114.2
2420,E5,257.625,0.125,44,114.2
2421,B-5,257.75,0.125,44,114.2
2422,F#5,257.75,0.125,44,114.2
2423,G5,257.875,0.125,44,114.2
2424,B5,257.875,0.125,44,114.2
2425,E-5,258.0,0.125,54,114.2
2426,E5,258.125,0.125,47,114.2
2427,B5,258.125,0.125,47,114.2
2428,B-5,258.25,0.125,47,114.2
2429,F#5,258.25,0.125,47,114.2
2430,G5,258.375,0.125,47,114.2
2431,B5,258.375,0.125,47,114.2
2432,E-5,258.5,0.125,56,114.2
2433,B5,258.625,0.125,47,114.2
2434,E5,258.625,0.125,47,114.2
2435,B-5,258.75,0.125,49,114.2
2436,F#5,258.75,0.125,49,114.2
2437,G5,258.875,0.125,49,114.2
2438,B5,258.875,0.125,49,114.2
2439,E-5,259.0,0.125,58,114.2
2440,E5,259.125,0.125,50,114.2
2441,B5,259.125,0.125,50,114.2
2442,B-5,259.25,0.125,50,114.2
2443,F#5,259.25,0.125,50,114.2
2444,G5,259.375,0.125,50,114.2
2445,B5,259.375,0.125,50,114.2
2446,E-5,259.5,0.125,61,114.2
2447,B5,259.625,0.125,53,114.2
2448,E5,259.625,0.125,53,114.2
2449,B-5,259.75,0.125,53,114.2
2450,F#5,259.75,0.125,53,114.2
2451,G5,259.875,0.125,53,114.2
2452,B5,259.875,0.125,53,114.2
2453,F#5,260.0,0.125,66,114.2
2454,G5,260.125,0.125,55,114.2
2455,E6,260.125,0.125,55,114.2
2456,B-5,260.25,0.125,55,114.2
2457,E-6,260.25,0.125,55,114.2
2458,B5,260.375,0.125,55,114.2
2459,E6,260.375,0.125,55,114.2
2460,B-5,260.5,0.125,68,114.2
2461,B5,260.625,0.125,59,114.2
2462,G6,260.625,0.125,59,114.2
2463,E-6,260.75,0.125,60,114.2
2464,F#6,260.75,0.125,60,114.2
2465,E6,260.875,0.125,61,114.2
2466,G6,260.875,0.125,61,114.2
2467,E-6,261.0,0.125,73,114.2
2468,E6,261.125,0.125,60,114.2
2469,B6,261.125,0.125,60,114.2
2470,F#6,261.25,0.125,64,114.2
2471,B-6,261.25,0.125,64,114.2
2472,E6,261.375,0.125,65,114.2
2473,B6,261.375,0.125,65,114.2
2474,F#6,261.5,0.125,77,114.2
2475,G6,261.625,0.125,68,114.2
2476,E7,261.625,0.125,68,114.2
2477,B-6,261.75,0.125,69,114.2
2478,E-7,261.75,0.125,69,114.2
2479,B6,261.875,0.125,71,114.2
2480,E7,261.875,0.125,71,114.2
2481,B4,262.75,83/1000,45,114.2
2482,B4,262.875,0.125,45,114.2
2483,C5,263.0,0.125,49,114.2
2484,B4,263.125,0.125,45,114.2
2485,B-4,263.25,0.125,45,114.2
2486,B4,263.375,0.125,45,114.2
2487,E5,263.498,0.125,48,114.2
2488,E-5,263.667,0.125,45,114.2
2489,D5,263.833,0.125,45,114.2
2490,C#5,264.0,0.125,51,114.2
2491,C5,264.167,0.125,44,114.2
2492,B4,264.333,0.125,44,114.2
2493,B-4,264.5,0.125,50,114.2
2494,B4,264.667,0.25,48,114.2
2495,E4,264.667,333/1000,38,114.2
2496,E3,264.667,333/1000,28,114.2
2497,G3,264.667,333/1000,28,114.2
2498,C5,264.917,26/125,48,114.2
2499,A2,265.125,0.375,48,114.2
2500,E3,265.219,0.281,53,114.2
2501,A3,265.312,0.188,57,114.2
2502,C4,265.375,0.125,56,114.2
2503,E4,265.438,0.062,63,114.2
2504,C5,265.5,1.0,70,114.2
2505,C4,265.5,1.0,56,114.2
2506,E4,265.5,1.0,63,114.2
2507,A2,265.5,1.0,48,114.2
2508,E3,265.5,1.0,53,114.2
2509,A3,265.5,1.0,57,114.2
2510,B4,266.5,0.125,45,114.2
2511,E5,266.625,0.125,40,114.2
2512,C5,266.625,0.125,40,114.2
2513,E-5,266.75,0.125,40,114.2
2514,C5,266.875,0.125,40,114.2
2515,E5,266.875,0.125,40,114.2
2516,B4,267.0,0.125,45,114.2
2517,C5,267.125,0.125,42,114.2
2518,E5,267.125,0.125,42,114.2
2519,E-5,267.25,0.125,42,114.2
2520,C5,267.375,0.125,43,114.2
2521,E5,267.375,0.125,43,114.2
2522,B4,267.5,0.125,47,114.2
2523,E5,267.625,0.125,43,114.2
2524,C5,267.625,0.125,43,114.2
2525,E-5,267.75,0.125,44,114.2
2526,C5,267.875,0.125,44,114.2
2527,E5,267.875,0.125,44,114.2
2528,B4,268.0,0.125,49,114.2
2529,C5,268.125,0.125,45,114.2
2530,E5,268.125,0.125,45,114.2
2531,E-5,268.25,0.125,45,114.2
2532,C5,268.375,0.125,45,114.2
2533,E5,268.375,0.125,45,114.2
2534,B4,268.5,0.125,50,114.2
2535,E5,268.625,0.125,47,114.2
2536,C5,268.625,0.125,47,114.2
2537,E-5,268.75,0.125,48,114.2
2538,C5,268.875,0.125,48,114.2
2539,E5,268.875,0.125,48,114.2
2540,B4,269.0,0.125,52,114.2
2541,C5,269.125,0.125,48,114.2
2542,E5,269.125,0.125,48,114.2
2543,E-5,269.25,0.125,48,114.2
2544,C5,269.375,0.125,49,114.2
2545,E5,269.375,0.125,49,114.2
2546,C5,269.5,0.125,56,114.2
2547,E5,269.625,0.125,59,114.2
2548,C6,269.75,0.125,64,114.2
2549,E5,269.875,0.125,65,114.2
2550,C5,270.0,0.125,56,114.2
2551,E4,270.125,0.125,62,114.2
2552,C5,270.25,0.125,57,114.2
2553,A2,271.188,0.312,48,114.2
2554,F#3,271.25,0.25,53,114.2
2555,C4,271.312,0.188,57,114.2
2556,E-4,271.375,0.125,56,114.2
2557,F#4,271.438,0.062,63,114.2
2558,E-5,271.5,1.0,70,114.2
2559,E-4,271.5,1.0,56,114.2
2560,F#4,271.5,1.0,63,114.2
2561,A2,271.5,1.0,48,114.2
2562,F#3,271.5,1.0,53,114.2
2563,C4,271.5,1.0,57,114.2
2564,D5,272.5,0.125,45,114.2
2565,F#5,272.625,0.125,40,114.2
2566,E-5,272.625,0.125,40,114.2
2567,F5,272.75,0.125,40,114.2
2568,E-5,272.875,0.125,40,114.2
2569,F#5,272.875,0.125,40,114.2
2570,D5,273.0,0.125,45,114.2
2571,E-5,273.125,0.125,42,114.2
2572,F#5,273.125,0.125,42,114.2
2573,F5,273.25,0.125,42,114.2
2574,E-5,273.375,0.125,43,114.2
2575,F#5,273.375,0.125,43,114.2
2576,D5,273.5,0.125,47,114.2
2577,F#5,273.625,0.125,43,114.2
2578,E-5,273.625,0.125,43,114.2
2579,F5,273.75,0.125,44,114.2
2580,E-5,273.875,0.125,44,114.2
2581,F#5,273.875,0.125,44,114.2
2582,D5,274.0,0.125,49,114.2
2583,E-5,274.125,0.125,45,114.2
2584,F#5,274.125,0.125,45,114.2
2585,F5,274.25,0.125,45,114.2
2586,E-5,274.375,0.125,45,114.2
2587,F#5,274.375,0.125,45,114.2
2588,D5,274.5,0.125,50,114.2
2589,F#5,274.625,0.125,47,114.2
2590,E-5,274.625,0.125,47,114.2
2591,F5,274.75,0.125,48,114.2
2592,E-5,274.875,0.125,48,114.2
2593,F#5,274.875,0.125,48,114.2
2594,D5,275.0,0.125,52,114.2
2595,E-5,275.125,0.125,48,114.2
2596,F#5,275.125,0.125,48,114.2
2597,F5,275.25,0.125,48,114.2
2598,E-5,275.375,0.125,49,114.2
2599,F#5,275.375,0.125,49,114.2
2600,E-5,275.5,0.125,56,114.2
2601,F#5,275.625,0.125,59,114.2
2602,E-6,275.75,0.125,64,114.2
2603,F#5,275.875,0.125,61,114.2
2604,E-5,276.0,0.125,58,114.2
2605,F#4,276.125,0.125,64,114.2
2606,E-5,276.25,0.125,59,114.2
2607,E5,277.0,0.5,80,114.2
2608,E2,277.25,0.25,65,114.2
2609,G3,277.312,0.188,68,114.2
2610,E4,277.375,0.125,72,114.2
2611,B4,277.438,0.062,76,114.2
2612,E5,277.5,1.0,84,114.2
2613,E4,277.5,1.0,72,114.2
2614,B4,277.5,1.0,76,114.2
2615,E2,277.5,1.0,65,114.2
2616,G3,277.5,1.0,68,114.2
2617,E-5,278.5,0.125,49,114.2
2618,B5,278.625,0.125,44,114.2
2619,E5,278.625,0.125,44,114.2
2620,B-5,278.75,0.125,44,114.2
2621,F#5,278.75,0.125,44,114.2
2622,G5,278.875,0.125,44,114.2
2623,B5,278.875,0.125,44,114.2
2624,E-5,279.0,0.125,54,114.2
2625,E5,279.125,0.125,47,114.2
2626,B5,279.125,0.125,47,114.2
2627,B-5,279.25,0.125,47,114.2
2628,F#5,279.25,0.125,47,114.2
2629,G5,279.375,0.125,47,114.2
2630,B5,279.375,0.125,47,114.2
2631,E-5,279.5,0.125,56,114.2
2632,B5,279.625,0.125,47,114.2
2633,E5,279.625,0.125,47,114.2
2634,B-5,279.75,0.125,49,114.2
2635,F#5,279.75,0.125,49,114.2
2636,G5,279.875,0.125,49,114.2
2637,B5,279.875,0.125,49,114.2
2638,E-5,280.0,0.125,58,114.2
2639,E5,280.125,0.125,50,114.2
2640,B5,280.125,0.125,50,114.2
2641,B-5,280.25,0.125,50,114.2
2642,F#5,280.25,0.125,50,114.2
2643,G5,280.375,0.125,50,114.2
2644,B5,280.375,0.125,50,114.2
2645,E-5,280.5,0.125,61,114.2
2646,B5,280.625,0.125,53,114.2
2647,E5,280.625,0.125,53,114.2
2648,B-5,280.75,0.125,53,114.2
2649,F#5,280.75,0.125,53,114.2
2650,G5,280.875,0.125,53,114.2
2651,B5,280.875,0.125,53,114.2
2652,E-5,281.0,0.125,61,114.2
2653,B5,281.125,0.125,53,114.2
2654,E5,281.125,0.125,53,114.2
2655,B-5,281.25,0.125,53,114.2
2656,F#5,281.25,0.125,53,114.2
2657,G5,281.375,0.125,53,114.2
2658,B5,281.375,0.125,53,114.2
2659,F#5,281.5,0.125,66,114.2
2660,G5,281.625,0.125,55,114.2
2661,E6,281.625,0.125,55,114.2
2662,B-5,281.75,0.125,55,114.2
2663,E-6,281.75,0.125,55,114.2
2664,B5,281.875,0.125,55,114.2
2665,E6,281.875,0.125,55,114.2
2666,B-5,282.0,0.125,68,114.2
2667,B5,282.125,0.125,59,114.2
2668,G6,282.125,0.125,59,114.2
2669,E-6,282.25,0.125,60,114.2
2670,F#6,282.25,0.125,60,114.2
2671,E6,282.375,0.125,61,114.2
2672,G6,282.375,0.125,61,114.2
2673,E-6,282.5,0.125,73,114.2
2674,E6,282.625,0.125,60,114.2
2675,B6,282.625,0.125,60,114.2
2676,F#6,282.75,0.125,64,114.2
2677,B-6,282.75,0.125,64,114.2
2678,G6,282.875,0.125,65,114.2
2679,B6,282.875,0.125,65,114.2
2680,F#6,283.0,0.125,77,114.2
2681,G6,283.125,0.125,68,114.2
2682,E7,283.125,0.125,68,114.2
2683,B-6,283.25,0.125,69,114.2
2684,E-7,283.25,0.125,69,114.2
2685,G6,283.375,0.125,71,114.2
2686,E7,283.375,0.125,71,114.2
2687,E-6,283.5,0.125,77,114.2
2688,E6,283.625,0.125,67,114.2
2689,B6,283.625,0.125,67,114.2
2690,F#6,283.75,0.125,67,114.2
2691,B-6,283.75,0.125,67,114.2
2692,G6,283.875,0.125,67,114.2
2693,B6,283.875,0.125,67,114.2
2694,B-5,284.0,0.125,68,114.2
2695,B5,284.125,0.125,60,114.2
2696,G6,284.125,0.125,60,114.2
2697,E-6,284.25,0.125,60,114.2
2698,F#6,284.25,0.125,60,114.2
2699,E6,284.375,0.125,60,114.2
2700,G6,284.375,0.125,60,114.2
2701,E-6,284.5,0.125,73,114.2
2702,E6,284.625,0.125,60,114.2
2703,B6,284.625,0.125,60,114.2
2704,F#6,284.75,0.125,64,114.2
2705,B-6,284.75,0.125,64,114.2
2706,G6,284.875,0.125,65,114.2
2707,B6,284.875,0.125,65,114.2
2708,F#6,285.0,0.125,77,114.2
2709,G6,285.125,0.125,68,114.2
2710,E7,285.125,0.125,68,114.2
2711,B-6,285.25,0.125,69,114.2
2712,E-7,285.25,0.125,69,114.2
2713,B6,285.375,0.125,71,114.2
2714,E7,285.375,0.125,71,114.2
2715,E-6,285.5,0.125,73,114.2
2716,E6,285.625,0.125,65,114.2
2717,B6,285.625,0.125,65,114.2
2718,F#6,285.75,0.125,65,114.2
2719,B-6,285.75,0.125,65,114.2
2720,G6,285.875,0.125,65,114.2
2721,B6,285.875,0.125,65,114.2
2722,B-5,286.0,0.125,68,114.2
2723,B5,286.125,0.125,59,114.2
2724,G6,286.125,0.125,59,114.2
2725,E-6,286.25,0.125,60,114.2
2726,F#6,286.25,0.125,60,114.2
2727,E6,286.375,0.125,61,114.2
2728,G6,286.375,0.125,61,114.2
2729,E-6,286.5,0.125,73,114.2
2730,E6,286.625,0.125,60,114.2
2731,B6,286.625,0.125,60,114.2
2732,F#6,286.75,0.125,64,114.2
2733,B-6,286.75,0.125,64,114.2
2734,G6,286.875,0.125,65,114.2
2735,B6,286.875,0.125,65,114.2
2736,F#6,287.0,0.125,77,114.2
2737,G6,287.125,0.125,68,114.2
2738,E7,287.125,0.125,68,114.2
2739,B-6,287.25,0.125,69,114.2
2740,E-7,287.25,0.125,69,114.2
2741,B6,287.375,0.125,71,114.2
2742,E7,287.375,0.125,71,114.2
2743,E-6,287.5,0.125,73,114.2
2744,E6,287.625,0.125,60,114.2
2745,B6,287.625,0.125,60,114.2
2746,F#6,287.75,0.125,64,114.2
2747,B-6,287.75,0.125,64,114.2
2748,G6,287.875,0.125,65,114.2
2749,B6,287.875,0.125,65,114.2
2750,F#6,288.0,0.125,77,114.2
2751,G6,288.125,0.125,68,114.2
2752,E7,288.125,0.125,68,114.2
2753,B-6,288.25,0.125,69,114.2
2754,E-7,288.25,0.125,69,114.2
2755,B6,288.375,0.125,71,114.2
2756,E7,288.375,0.125,71,114.2
2757,E-6,288.5,0.125,73,114.2
2758,E6,288.625,0.125,60,114.2
2759,B6,288.625,0.125,60,114.2
2760,F#6,288.75,0.125,64,114.2
2761,B-6,288.75,0.125,64,114.2
2762,G6,288.875,0.125,65,114.2
2763,B6,288.875,0.125,65,114.2
2764,F#6,289.0,0.125,77,114.2
2765,G6,289.125,0.125,68,114.2
2766,E7,289.125,0.125,68,114.2
2767,B-6,289.25,0.125,69,114.2
2768,E-7,289.25,0.125,69,114.2
2769,B6,289.375,0.125,71,114.2
2770,E7,289.375,0.125,71,114.2
2771,E-6,289.5,0.125,73,114.2
2772,E6,289.625,0.125,60,114.2
2773,B6,289.625,0.125,60,114.2
2774,F#6,289.75,0.125,64,114.2
2775,B-6,289.75,0.125,64,114.2
2776,G6,289.875,0.125,65,114.2
2777,B6,289.875,0.125,65,114.2
2778,F#6,290.0,0.125,77,114.2
2779,G6,290.125,0.125,68,114.2
2780,E7,290.125,0.125,68,114.2
2781,B-6,290.25,0.125,69,114.2
2782,E-7,290.25,0.125,69,114.2
2783,B6,290.375,0.125,71,114.2
2784,E7,290.375,0.125,71,114.2
2785,F#6,290.5,0.125,77,114.2
2786,G6,290.625,0.125,64,114.2
2787,E7,290.625,0.125,64,114.2
2788,B-6,290.75,0.125,63,114.2
2789,E-7,290.75,0.125,63,114.2
2790,B6,290.875,0.125,62,114.2
2791,E7,290.875,0.125,62,114.2
2792,F#6,291.0,0.125,69,114.2
2793,G6,291.125,0.125,60,114.2
2794,E7,291.125,0.125,60,114.2
2795,B-6,291.25,0.125,59,114.2
2796,E-7,291.25,0.125,59,114.2
2797,B6,291.375,0.125,59,114.2
2798,E7,291.375,0.125,59,114.2
2799,F#6,291.5,0.125,64,114.2
2800,G6,291.625,0.125,57,114.2
2801,E7,291.625,0.125,57,114.2
2802,B-6,291.75,0.125,56,114.2
2803,E-7,291.75,0.125,56,114.2
2804,B6,291.875,0.125,55,114.2
2805,E7,291.875,0.125,55,114.2
2806,F#6,292.0,0.125,57,114.2
2807,G6,292.125,0.125,46,114.2
2808,E7,292.125,0.125,46,114.2
2809,B-6,292.25,0.125,46,114.2
2810,E-7,292.25,0.125,46,114.2
2811,B6,292.375,0.125,45,114.2
2812,E7,292.375,0.125,45,114.2
2813,F#6,292.5,0.125,52,114.2
2814,G6,292.625,0.125,44,114.2
2815,E7,292.625,0.125,44,114.2
2816,B-6,292.75,0.125,44,114.2
2817,E-7,292.75,0.125,44,114.2
2818,B6,292.875,0.125,42,114.2
2819,E7,292.875,0.125,42,114.2
2820,E5,294.0,0.5,50,114.2
2821,B4,294.0,0.5,45,114.2
2822,E4,294.0,0.5,45,114.2
2823,G4,294.0,0.5,45,114.2
2824,F5,294.5,1.0,59,114.2
2825,B4,294.5,0.5,38,114.2
2826,D4,294.5,0.5,38,114.2
2827,A4,294.5,0.5,38,114.2
2828,G5,294.625,11/100,47,114.2
2829,A5,294.735,11/100,49,114.2
2830,B5,294.846,11/100,50,114.2
2831,C6,294.956,11/100,52,114.2
2832,D6,295.065,11/100,54,114.2
2833,E6,295.175,11/100,55,114.2
2834,F6,295.285,11/100,57,114.2
2835,G6,295.396,13/125,59,114.2
2836,A6,295.5,1.125,72,114.2
2837,B4,296.5,0.5,46,114.2
2838,G3,296.5,0.5,46,114.2
2839,F4,296.5,0.5,46,114.2
2840,G6,296.625,0.125,52,114.2
2841,F6,296.75,0.125,50,114.2
2842,E6,296.875,0.125,48,114.2
2843,D6,297.0,0.125,47,114.2
2844,C6,297.125,0.125,45,114.2
2845,B5,297.25,0.125,43,114.2
2846,A5,297.375,0.125,41,114.2
2847,G5,297.5,0.125,40,114.2
2848,F5,297.625,0.125,38,114.2
2849,E5,297.75,0.125,36,114.2
2850,D5,297.875,0.125,50,114.2
2851,C5,298.5,1.0,57,114.2
2852,E4,298.5,0.5,47,114.2
2853,C4,298.5,0.5,47,114.2
2854,D5,298.562,0.062,46,114.2
2855,E5,298.625,0.062,47,114.2
2856,F5,298.688,0.062,49,114.2
2857,G5,298.75,0.062,50,114.2
2858,A5,298.812,0.062,52,114.2
2859,B5,298.875,0.062,53,114.2
2860,C6,298.938,0.062,55,114.2
2861,D6,299.0,0.062,57,114.2
2862,E6,299.062,0.062,58,114.2
2863,F6,299.125,0.062,60,114.2
2864,G6,299.188,0.062,61,114.2
2865,A6,299.25,0.062,63,114.2
2866,B6,299.312,0.062,64,114.2
2867,C7,299.375,0.062,66,114.2
2868,D7,299.438,0.062,69,114.2
2869,E7,299.5,263/250,76,114.2
2870,D7,300.552,13/250,48,114.2
2871,C7,300.552,13/250,48,114.2
2872,B6,300.658,13/250,46,114.2
2873,A6,300.658,13/250,46,114.2
2874,G6,300.762,13/250,45,114.2
2875,F6,300.762,13/250,45,114.2
2876,E6,300.869,13/250,44,114.2
2877,D6,300.869,13/250,44,114.2
2878,C6,300.973,13/250,42,114.2
2879,B5,300.973,13/250,42,114.2
2880,A5,301.077,13/250,40,114.2
2881,G5,301.077,13/250,40,114.2
2882,F5,301.183,13/250,38,114.2
2883,E5,301.183,13/250,38,114.2
2884,D5,301.288,13/250,36,114.2
2885,C5,301.288,13/250,36,114.2
2886,B4,301.394,13/250,36,114.2
2887,A4,301.394,13/250,36,114.2
2888,G4,301.5,13/250,56,114.2
2889,C4,301.5,0.5,45,114.2
2890,E3,301.5,0.5,45,114.2
2891,G3,301.5,0.5,45,114.2
2892,F4,302.5,1.0,54,114.2
2893,C4,302.5,0.5,48,114.2
2894,D3,302.5,0.5,48,114.2
2895,A3,302.5,0.5,48,114.2
2896,G4,302.548,6/125,40,114.2
2897,A4,302.548,6/125,40,114.2
2898,B4,302.644,6/125,42,114.2
2899,C5,302.644,6/125,42,114.2
2900,D5,302.738,6/125,44,114.2
2901,E5,302.738,6/125,44,114.2
2902,F5,302.833,6/125,48,114.2
2903,G5,302.833,6/125,48,114.2
2904,A5,302.927,6/125,50,114.2
2905,B5,302.927,6/125,50,114.2
2906,C6,303.023,6/125,52,114.2
2907,D6,303.023,6/125,52,114.2
2908,E6,303.119,6/125,55,114.2
2909,F6,303.119,6/125,55,114.2
2910,G6,303.212,6/125,58,114.2
2911,A6,303.212,6/125,58,114.2
2912,B6,303.308,6/125,60,114.2
2913,C7,303.308,6/125,60,114.2
2914,D7,303.402,6/125,62,114.2
2915,E7,303.402,6/125,62,114.2
2916,F7,303.5,68/125,72,114.2
2917,B3,304.5,0.5,45,114.2
2918,G2,304.5,0.5,45,114.2
2919,F3,304.5,0.5,45,114.2
2920,E7,304.544,11/250,46,114.2
2921,D7,304.544,11/250,46,114.2
2922,C7,304.631,11/250,46,114.2
2923,B6,304.631,11/250,46,114.2
2924,A6,304.719,11/250,44,114.2
2925,G6,304.719,11/250,44,114.2
2926,F6,304.806,11/250,44,114.2
2927,E6,304.806,11/250,44,114.2
2928,D6,304.894,11/250,42,114.2
2929,C6,304.894,11/250,42,114.2
2930,B5,304.981,11/250,41,114.2
2931,A5,304.981,11/250,41,114.2
2932,G5,305.069,11/250,40,114.2
2933,F5,305.069,11/250,40,114.2
2934,E5,305.156,11/250,38,114.2
2935,D5,305.156,11/250,38,114.2
2936,C5,305.244,11/250,38,114.2
2937,B4,305.244,11/250,38,114.2
2938,A4,305.331,11/250,36,114.2
2939,G4,305.331,11/250,36,114.2
2940,F4,305.419,19/500,35,114.2
2941,E4,305.419,19/500,35,114.2
2942,D4,305.5,0.125,56,114.2
2943,C4,306.5,16/25,57,114.2
2944,E3,306.5,2.0,47,114.2
2945,C3,306.5,2.0,47,114.2
2946,D4,306.581,79/1000,45,114.2
2947,E4,306.66,81/1000,46,114.2
2948,F4,306.74,81/1000,47,114.2
2949,G4,306.821,79/1000,47,114.2
2950,A4,306.9,81/1000,48,114.2
2951,B4,306.981,79/1000,49,114.2
2952,C5,307.06,81/1000,50,114.2
2953,D5,307.14,81/1000,51,114.2
2954,E5,307.221,79/1000,52,114.2
2955,F5,307.3,81/1000,53,114.2
2956,G5,307.381,79/1000,53,114.2
2957,A5,307.46,81/1000,54,114.2
2958,B5,307.54,81/1000,55,114.2
2959,C6,307.621,79/1000,56,114.2
2960,D6,307.7,81/1000,57,114.2
2961,E6,307.781,79/1000,58,114.2
2962,F6,307.86,81/1000,59,114.2
2963,G6,307.94,81/1000,60,114.2
2964,A6,308.021,79/1000,60,114.2
2965,B6,308.1,81/1000,61,114.2
2966,C7,308.181,79/1000,62,114.2
2967,D7,308.26,81/1000,63,114.2
2968,E7,308.34,81/1000,64,114.2
2969,F7,308.421,79/1000,65,114.2
2970,G7,308.5,0.125,75,114.2
2971,E4,309.5,0.5,50,114.2
2972,C4,309.5,0.5,45,114.2
2973,E3,309.5,0.5,45,114.2
2974,G3,309.5,0.5,45,114.2
2975,F4,310.5,1.0,57,114.2
2976,B3,310.5,0.5,48,114.2
2977,D3,310.5,0.5,48,114.2
2978,A3,310.5,0.5,48,114.2
2979,G4,310.562,0.062,45,114.2
2980,A4,310.625,0.062,46,114.2
2981,B4,310.688,0.062,47,114.2
2982,C5,310.75,0.062,48,114.2
2983,D5,310.812,0.062,50,114.2
2984,E5,310.875,0.062,51,114.2
2985,F5,310.938,0.062,52,114.2
2986,G5,311.0,0.062,54,114.2
2987,A5,311.062,0.062,55,114.2
2988,B5,311.125,0.062,56,114.2
2989,C6,311.188,0.062,57,114.2
2990,D6,311.25,0.062,59,114.2
2991,E6,311.312,0.062,60,114.2
2992,F6,311.375,0.062,61,114.2
2993,G6,311.438,0.062,62,114.2
2994,A6,311.5,263/250,76,114.2
2995,B3,312.5,0.5,45,114.2
2996,G2,312.5,0.5,45,114.2
2997,F3,312.5,0.5,45,114.2
2998,G6,312.552,7/125,48,114.2
2999,F6,312.552,7/125,48,114.2
3000,E6,312.665,27/500,46,114.2
3001,D6,312.665,27/500,46,114.2
3002,C6,312.775,7/125,45,114.2
3003,B5,312.775,7/125,45,114.2
3004,A5,312.887,7/125,44,114.2
3005,G5,312.887,7/125,44,114.2
3006,F5,312.998,27/500,42,114.2
3007,E5,312.998,27/500,42,114.2
3008,D5,313.11,7/125,40,114.2
3009,C5,313.11,7/125,40,114.2
3010,B4,313.221,27/500,38,114.2
3011,A4,313.221,27/500,38,114.2
3012,G4,313.331,7/125,36,114.2
3013,F4,313.331,7/125,36,114.2
3014,E4,313.444,13/250,46,114.2
3015,D4,313.444,13/250,46,114.2
3016,C4,314.5,173/250,57,114.2
3017,E3,314.5,2.0,47,114.2
3018,C3,314.5,2.0,47,114.2
3019,D4,314.587,17/200,48,114.2
3020,E4,314.673,11/125,49,114.2
3021,F4,314.76,17/200,50,114.2
3022,G4,314.846,11/125,50,114.2
3023,A4,314.933,17/200,51,114.2
3024,B4,315.019,11/125,52,114.2
3025,C5,315.106,17/200,53,114.2
3026,D5,315.192,11/125,54,114.2
3027,E5,315.277,11/125,55,114.2
3028,F5,315.365,17/200,56,114.2
3029,G5,315.45,11/125,56,114.2
3030,A5,315.538,17/200,57,114.2
3031,B5,315.623,11/125,58,114.2
3032,C6,315.71,17/200,59,114.2
3033,D6,315.796,11/125,60,114.2
3034,E6,315.883,17/200,61,114.2
3035,F6,315.969,11/125,62,114.2
3036,G6,316.056,17/200,63,114.2
3037,A6,316.142,11/125,63,114.2
3038,B6,316.229,17/200,64,114.2
3039,C7,316.315,11/125,65,114.2
3040,D7,316.402,17/200,66,114.2
3041,E7,316.488,11/125,79,114.2
3042,B-4,317.5,0.5,57,114.2
3043,C4,317.5,0.5,57,114.2
3044,E4,317.5,0.5,57,114.2
3045,B-3,317.5,0.5,53,114.2
3046,E3,317.5,0.5,53,114.2
3047,G3,317.5,0.5,53,114.2
3048,B4,318.5,0.5,66,114.2
3049,E4,318.5,0.5,66,114.2
3050,B3,318.5,0.5,66,114.2
3051,G#3,318.5,2.0,58,114.2
3052,B2,318.5,2.0,58,114.2
3053,C4,319.0,3/40,47,114.2
3054,D4,319.077,3/40,48,114.2
3055,E4,319.152,3/40,50,114.2
3056,F4,319.227,3/40,51,114.2
3057,G4,319.302,3/40,53,114.2
3058,A4,319.377,3/40,54,114.2
3059,B4,319.452,3/40,56,114.2
3060,C5,319.529,3/40,57,114.2
3061,D5,319.604,3/40,59,114.2
3062,E5,319.679,3/40,60,114.2
3063,F5,319.754,3/40,62,114.2
3064,G5,319.829,3/40,63,114.2
3065,A5,319.904,3/40,64,114.2
3066,B5,319.981,3/40,66,114.2
3067,C6,320.056,3/40,67,114.2
3068,D6,320.131,3/40,69,114.2
3069,E6,320.206,3/40,70,114.2
3070,F6,320.281,3/40,72,114.2
3071,G6,320.356,3/40,73,114.2
3072,A6,320.433,3/40,75,114.2
3073,B5,320.506,3/40,81,114.2
3074,E-4,321.5,0.5,60,114.2
3075,B3,321.5,0.5,60,114.2
3076,B4,321.5,0.5,60,114.2
3077,A3,321.5,0.5,54,114.2
3078,F#3,321.5,0.5,54,114.2
3079,B2,321.5,0.5,54,114.2
3080,B4,322.5,0.5,68,114.2
3081,E4,322.5,0.5,68,114.2
3082,B3,322.5,0.5,68,114.2
3083,G#3,322.5,2.0,62,114.2
3084,B2,322.5,2.0,62,114.2
3085,C4,323.0,3/40,53,114.2
3086,D4,323.077,3/40,54,114.2
3087,E4,323.152,3/40,55,114.2
3088,F4,323.227,3/40,56,114.2
3089,G4,323.302,3/40,57,114.2
3090,A4,323.377,3/40,58,114.2
3091,B4,323.452,3/40,60,114.2
3092,C5,323.529,3/40,61,114.2
3093,D5,323.604,3/40,62,114.2
3094,E5,323.679,3/40,63,114.2
3095,F5,323.754,3/40,64,114.2
3096,G5,323.829,3/40,65,114.2
3097,A5,323.904,3/40,67,114.2
3098,B5,323.981,3/40,68,114.2
3099,C6,324.056,3/40,69,114.2
3100,D6,324.131,3/40,70,114.2
3101,E6,324.206,3/40,71,114.2
3102,F6,324.281,3/40,73,114.2
3103,G6,324.356,3/40,74,114.2
3104,A6,324.433,3/40,75,114.2
3105,B6,324.506,3/40,85,114.2
3106,B5,325.5,0.5,68,114.2
3107,F#5,325.5,0.5,68,114.2
3108,B4,325.5,0.5,68,114.2
3109,E-5,325.5,0.5,68,114.2
3110,B3,325.5,0.5,62,114.2
3111,F#3,325.5,0.5,62,114.2
3112,E-3,325.5,0.5,62,114.2
3113,B2,325.5,0.5,62,114.2
3114,G#5,326.5,0.5,76,114.2
3115,B5,326.5,0.5,76,114.2
3116,B4,326.5,0.5,76,114.2
3117,E5,326.5,0.5,76,114.2
3118,B3,326.5,0.5,68,114.2
3119,G#3,326.5,0.5,68,114.2
3120,E3,326.5,0.5,68,114.2
3121,B2,326.5,0.5,68,114.2
3122,A4,327.527,3/40,51,114.2
3123,C5,327.529,3/40,58,114.2
3124,G4,327.602,3/40,52,114.2
3125,D5,327.604,3/40,60,114.2
3126,F4,327.677,3/40,53,114.2
3127,E5,327.679,3/40,61,114.2
3128,E4,327.752,3/40,56,114.2
3129,F5,327.754,3/40,63,114.2
3130,D4,327.827,3/40,57,114.2
3131,G5,327.829,3/40,64,114.2
3132,A5,327.904,3/40,66,114.2
3133,C4,327.904,3/40,58,114.2
3134,B3,327.979,3/40,59,114.2
3135,B5,327.981,3/40,67,114.2
3136,A3,328.054,3/40,60,114.2
3137,C6,328.056,3/40,69,114.2
3138,G3,328.129,3/40,61,114.2
3139,D6,328.131,3/40,70,114.2
3140,F3,328.204,3/40,62,114.2
3141,E6,328.206,3/40,71,114.2
3142,E3,328.279,3/40,63,114.2
3143,F6,328.281,3/40,73,114.2
3144,G6,328.356,3/40,74,114.2
3145,D3,328.356,3/40,64,114.2
3146,C3,328.431,3/40,66,114.2
3147,A6,328.433,3/40,76,114.2
3148,B6,328.506,3/40,93,114.2
3149,B2,328.506,0.125,88,114.2
3150,B5,329.5,0.5,70,114.2
3151,F#5,329.5,0.5,70,114.2
3152,B4,329.5,0.5,70,114.2
3153,E-5,329.5,0.5,70,114.2
3154,B3,329.5,0.5,64,114.2
3155,F#3,329.5,0.5,64,114.2
3156,E-3,329.5,0.5,64,114.2
3157,B2,329.5,0.5,64,114.2
3158,B5,330.5,0.5,80,114.2
3159,E6,330.5,0.5,80,114.2
3160,E5,330.5,0.5,80,114.2
3161,G#5,330.5,0.5,80,114.2
3162,E4,330.5,0.5,70,114.2
3163,B3,330.5,0.5,70,114.2
3164,G#3,330.5,0.5,70,114.2
3165,E3,330.5,0.5,70,114.2
3166,B6,332.5,0.5,84,114.2
3167,E7,332.5,0.5,84,114.2
3168,E6,332.5,0.5,84,114.2
3169,G#6,332.5,0.5,84,114.2
3170,E3,332.5,0.5,74,114.2
3171,B2,332.5,0.5,74,114.2
3172,G#2,332.5,0.5,74,114.2
3173,E2,332.5,0.5,74,114.2
3174,E5,333.5,0.5,50,114.2
3175,E4,333.5,0.5,45,114.2
3176,G#4,333.5,0.5,45,114.2
3177,B4,333.5,0.5,45,114.2
3178,F5,334.5,1.0,59,114.2
3179,B4,334.5,0.5,38,114.2
3180,D4,334.5,0.5,38,114.2
3181,A4,334.5,0.5,38,114.2
3182,G5,334.625,11/100,44,114.2
3183,A5,334.735,11/100,46,114.2
3184,B5,334.846,11/100,48,114.2
3185,C6,334.956,11/100,50,114.2
3186,D6,335.065,11/100,53,114.2
3187,E6,335.175,11/100,55,114.2
3188,F6,335.285,11/100,57,114.2
3189,G6,335.396,13/125,59,114.2
3190,A6,335.5,1.125,66,114.2
3191,B4,336.5,0.5,46,114.2
3192,G3,336.5,0.5,46,114.2
3193,F4,336.5,0.5,46,114.2
3194,G6,336.625,0.125,52,114.2
3195,F6,336.75,0.125,50,114.2
3196,E6,336.875,0.125,48,114.2
3197,D6,337.0,0.125,47,114.2
3198,C6,337.125,0.125,45,114.2
3199,B5,337.25,0.125,43,114.2
3200,A5,337.375,0.125,41,114.2
3201,G5,337.5,0.125,40,114.2
3202,F5,337.625,0.125,38,114.2
3203,E5,337.75,0.125,36,114.2
3204,D5,337.875,0.125,50,114.2
3205,C5,338.5,1.0,57,114.2
3206,E4,338.5,0.5,47,114.2
3207,C4,338.5,0.5,47,114.2
3208,D5,338.562,0.062,45,114.2
3209,E5,338.625,0.062,46,114.2
3210,F5,338.688,0.062,47,114.2
3211,G5,338.75,0.062,48,114.2
3212,A5,338.812,0.062,50,114.2
3213,B5,338.875,0.062,51,114.2
3214,C6,338.938,0.062,52,114.2
3215,D6,339.0,0.062,54,114.2
3216,E6,339.062,0.062,55,114.2
3217,F6,339.125,0.062,56,114.2
3218,G6,339.188,0.062,57,114.2
3219,A6,339.25,0.062,59,114.2
3220,B6,339.312,0.062,60,114.2
3221,C7,339.375,0.062,61,114.2
3222,D7,339.438,0.062,62,114.2
3223,E7,339.5,263/250,76,114.2
3224,D7,340.552,13/250,48,114.2
3225,C7,340.552,13/250,48,114.2
3226,B6,340.658,13/250,46,114.2
3227,A6,340.658,13/250,46,114.2
3228,G6,340.762,13/250,45,114.2
3229,F6,340.762,13/250,45,114.2
3230,E6,340.869,13/250,44,114.2
3231,D6,340.869,13/250,44,114.2
3232,C6,340.973,13/250,42,114.2
3233,B5,340.973,13/250,42,114.2
3234,A5,341.077,13/250,40,114.2
3235,G5,341.077,13/250,40,114.2
3236,F5,341.183,13/250,38,114.2
3237,E5,341.183,13/250,38,114.2
3238,D5,341.288,13/250,36,114.2
3239,C5,341.288,13/250,36,114.2
3240,B4,341.394,13/250,36,114.2
3241,A4,341.394,13/250,36,114.2
3242,G4,341.5,13/250,56,114.2
3243,C4,341.5,0.5,45,114.2
3244,E3,341.5,0.5,45,114.2
3245,G3,341.5,0.5,45,114.2
3246,F4,342.5,1.0,54,114.2
3247,C4,342.5,0.5,48,114.2
3248,D3,342.5,0.5,48,114.2
3249,A3,342.5,0.5,48,114.2
3250,G4,342.548,6/125,38,114.2
3251,A4,342.548,6/125,38,114.2
3252,B4,342.644,6/125,40,114.2
3253,C5,342.644,6/125,40,114.2
3254,D5,342.738,6/125,42,114.2
3255,E5,342.738,6/125,42,114.2
3256,F5,342.833,6/125,44,114.2
3257,G5,342.833,6/125,44,114.2
3258,A5,342.927,6/125,46,114.2
3259,B5,342.927,6/125,46,114.2
3260,C6,343.023,6/125,48,114.2
3261,D6,343.023,6/125,48,114.2
3262,E6,343.119,6/125,50,114.2
3263,F6,343.119,6/125,50,114.2
3264,G6,343.212,6/125,52,114.2
3265,A6,343.212,6/125,52,114.2
3266,B6,343.308,6/125,54,114.2
3267,C7,343.308,6/125,54,114.2
3268,D7,343.402,6/125,56,114.2
3269,E7,343.402,6/125,56,114.2
3270,F7,343.5,68/125,68,114.2
3271,B3,344.5,0.5,45,114.2
3272,G2,344.5,0.5,45,114.2
3273,F3,344.5,0.5,45,114.2
3274,E7,344.544,11/250,46,114.2
3275,D7,344.544,11/250,46,114.2
3276,C7,344.631,11/250,46,114.2
3277,B6,344.631,11/250,46,114.2
3278,A6,344.719,11/250,44,114.2
3279,G6,344.719,11/250,44,114.2
3280,F6,344.806,11/250,44,114.2
3281,E6,344.806,11/250,44,114.2
3282,D6,344.894,11/250,42,114.2
3283,C6,344.894,11/250,42,114.2
3284,B5,344.981,11/250,41,114.2
3285,A5,344.981,11/250,41,114.2
3286,G5,345.069,11/250,40,114.2
3287,F5,345.069,11/250,40,114.2
3288,E5,345.156,11/250,38,114.2
3289,D5,345.156,11/250,38,114.2
3290,C5,345.244,11/250,38,114.2
3291,B4,345.244,11/250,38,114.2
3292,A4,345.331,11/250,36,114.2
3293,G4,345.331,11/250,36,114.2
3294,F4,345.419,19/500,35,114.2
3295,E4,345.419,19/500,35,114.2
3296,D4,345.5,0.125,56,114.2
3297,C4,346.5,16/25,57,114.2
3298,E3,346.5,2.0,47,114.2
3299,C3,346.5,2.0,47,114.2
3300,D4,346.581,79/1000,45,114.2
3301,E4,346.66,81/1000,46,114.2
3302,F4,346.74,81/1000,46,114.2
3303,G4,346.821,79/1000,47,114.2
3304,A4,346.9,81/1000,48,114.2
3305,B4,346.981,79/1000,49,114.2
3306,C5,347.06,81/1000,50,114.2
3307,D5,347.14,81/1000,51,114.2
3308,E5,347.221,79/1000,51,114.2
3309,F5,347.3,81/1000,52,114.2
3310,G5,347.381,79/1000,53,114.2
3311,A5,347.46,81/1000,54,114.2
3312,B5,347.54,81/1000,55,114.2
3313,C6,347.621,79/1000,56,114.2
3314,D6,347.7,81/1000,57,114.2
3315,E6,347.781,79/1000,57,114.2
3316,F6,347.86,81/1000,58,114.2
3317,G6,347.94,81/1000,59,114.2
3318,A6,348.021,79/1000,60,114.2
3319,B6,348.1,81/1000,61,114.2
3320,C7,348.181,79/1000,62,114.2
3321,D7,348.26,81/1000,62,114.2
3322,E7,348.34,81/1000,63,114.2
3323,F7,348.421,79/1000,64,114.2
3324,G7,348.5,0.125,75,114.2
3325,E4,349.5,0.5,50,114.2
3326,C4,349.5,0.5,45,114.2
3327,E3,349.5,0.5,45,114.2
3328,G3,349.5,0.5,45,114.2
3329,F4,350.5,1.0,57,114.2
3330,B3,350.5,0.5,48,114.2
3331,D3,350.5,0.5,48,114.2
3332,A3,350.5,0.5,48,114.2
3333,G4,350.562,0.062,45,114.2
3334,A4,350.625,0.062,46,114.2
3335,B4,350.688,0.062,47,114.2
3336,C5,350.75,0.062,48,114.2
3337,D5,350.812,0.062,50,114.2
3338,E5,350.875,0.062,51,114.2
3339,F5,350.938,0.062,52,114.2
3340,G5,351.0,0.062,54,114.2
3341,A5,351.062,0.062,55,114.2
3342,B5,351.125,0.062,56,114.2
3343,C6,351.188,0.062,57,114.2
3344,D6,351.25,0.062,59,114.2
3345,E6,351.312,0.062,60,114.2
3346,F6,351.375,0.062,61,114.2
3347,G6,351.438,0.062,62,114.2
3348,A6,351.5,263/250,76,114.2
3349,B3,352.5,0.5,45,114.2
3350,G2,352.5,0.5,45,114.2
3351,F3,352.5,0.5,45,114.2
3352,G6,352.552,7/125,48,114.2
3353,F6,352.552,7/125,48,114.2
3354,E6,352.665,27/500,46,114.2
3355,D6,352.665,27/500,46,114.2
3356,C6,352.775,7/125,45,114.2
3357,B5,352.775,7/125,45,114.2
3358,A5,352.887,7/125,44,114.2
3359,G5,352.887,7/125,44,114.2
3360,F5,352.998,27/500,42,114.2
3361,E5,352.998,27/500,42,114.2
3362,D5,353.11,7/125,40,114.2
3363,C5,353.11,7/125,40,114.2
3364,B4,353.221,27/500,38,114.2
3365,A4,353.221,27/500,38,114.2
3366,G4,353.331,7/125,36,114.2
3367,F4,353.331,7/125,36,114.2
3368,E4,353.444,13/250,46,114.2
3369,D4,353.444,13/250,46,114.2
3370,C4,354.5,173/250,57,114.2
3371,E3,354.5,2.0,47,114.2
3372,C3,354.5,2.0,47,114.2
3373,D4,354.587,17/200,46,114.2
3374,E4,354.673,11/125,47,114.2
3375,F4,354.76,17/200,47,114.2
3376,G4,354.846,11/125,48,114.2
3377,A4,354.933,17/200,49,114.2
3378,B4,355.019,11/125,50,114.2
3379,C5,355.106,17/200,51,114.2
3380,D5,355.192,11/125,51,114.2
3381,E5,355.277,11/125,52,114.2
3382,F5,355.365,17/200,53,114.2
3383,G5,355.45,11/125,54,114.2
3384,A5,355.538,17/200,55,114.2
3385,B5,355.623,11/125,56,114.2
3386,C6,355.71,17/200,56,114.2
3387,D6,355.796,11/125,57,114.2
3388,E6,355.883,17/200,58,114.2
3389,F6,355.969,11/125,59,114.2
3390,G6,356.056,17/200,60,114.2
3391,A6,356.142,11/125,61,114.2
3392,B6,356.229,17/200,61,114.2
3393,C7,356.315,11/125,62,114.2
3394,D7,356.402,17/200,63,114.2
3395,E7,356.488,11/125,74,114.2
3396,B-4,357.5,0.5,57,114.2
3397,C4,357.5,0.5,57,114.2
3398,E4,357.5,0.5,57,114.2
3399,B-3,357.5,0.5,53,114.2
3400,E3,357.5,0.5,53,114.2
3401,G3,357.5,0.5,53,114.2
3402,E4,358.5,0.5,66,114.2
3403,B4,358.5,0.5,66,114.2
3404,B3,358.5,0.5,66,114.2
3405,G#3,358.5,2.0,58,114.2
3406,B2,358.5,2.0,58,114.2
3407,C4,359.0,3/40,44,114.2
3408,D4,359.077,3/40,45,114.2
3409,E4,359.152,3/40,46,114.2
3410,F4,359.227,3/40,47,114.2
3411,G4,359.302,3/40,48,114.2
3412,A4,359.377,3/40,50,114.2
3413,B4,359.452,3/40,51,114.2
3414,C5,359.529,3/40,52,114.2
3415,D5,359.604,3/40,53,114.2
3416,E5,359.679,3/40,54,114.2
3417,F5,359.754,3/40,56,114.2
3418,G5,359.829,3/40,57,114.2
3419,A5,359.904,3/40,58,114.2
3420,B5,359.981,3/40,59,114.2
3421,C6,360.056,3/40,60,114.2
3422,D6,360.131,3/40,61,114.2
3423,E6,360.206,3/40,63,114.2
3424,F6,360.281,3/40,64,114.2
3425,G6,360.356,3/40,65,114.2
3426,A6,360.433,3/40,66,114.2
3427,B6,360.506,3/40,81,114.2
3428,B3,361.5,0.5,60,114.2
3429,E-4,361.5,0.5,60,114.2
3430,B4,361.5,0.5,60,114.2
3431,A3,361.5,0.5,54,114.2
3432,F#3,361.5,0.5,54,114.2
3433,B2,361.5,0.5,54,114.2
3434,B4,362.5,0.5,68,114.2
3435,B3,362.5,0.5,68,114.2
3436,E4,362.5,0.5,68,114.2
3437,G#3,362.5,2.0,62,114.2
3438,B2,362.5,2.0,62,114.2
3439,C4,363.0,3/40,48,114.2
3440,D4,363.077,3/40,50,114.2
3441,E4,363.152,3/40,51,114.2
3442,F4,363.227,3/40,52,114.2
3443,G4,363.302,3/40,53,114.2
3444,A4,363.377,3/40,55,114.2
3445,B4,363.452,3/40,56,114.2
3446,C5,363.529,3/40,57,114.2
3447,D5,363.604,3/40,59,114.2
3448,E5,363.679,3/40,60,114.2
3449,F5,363.754,3/40,61,114.2
3450,G5,363.829,3/40,62,114.2
3451,A5,363.904,3/40,64,114.2
3452,B5,363.981,3/40,65,114.2
3453,C6,364.056,3/40,66,114.2
3454,D6,364.131,3/40,67,114.2
3455,E6,364.206,3/40,69,114.2
3456,F6,364.281,3/40,70,114.2
3457,G6,364.356,3/40,71,114.2
3458,A6,364.433,3/40,73,114.2
3459,B6,364.506,3/40,85,114.2
3460,B5,365.5,0.5,68,114.2
3461,F#5,365.5,0.5,68,114.2
3462,B4,365.5,0.5,68,114.2
3463,E-5,365.5,0.5,68,114.2
3464,B3,365.5,0.5,62,114.2
3465,F#3,365.5,0.5,62,114.2
3466,E-3,365.5,0.5,62,114.2
3467,B2,365.5,0.5,62,114.2
3468,B5,366.5,0.5,76,114.2
3469,E5,366.5,0.5,76,114.2
3470,B4,366.5,0.5,76,114.2
3471,G#5,366.5,0.5,76,114.2
3472,B3,366.5,0.5,68,114.2
3473,G#3,366.5,0.5,68,114.2
3474,E3,366.5,0.5,68,114.2
3475,B2,366.5,0.5,68,114.2
3476,A4,367.527,3/40,51,114.2
3477,C5,367.529,3/40,60,114.2
3478,G4,367.602,3/40,52,114.2
3479,D5,367.604,3/40,61,114.2
3480,F4,367.677,3/40,53,114.2
3481,E5,367.679,3/40,63,114.2
3482,E4,367.752,3/40,56,114.2
3483,F5,367.754,3/40,64,114.2
3484,D4,367.827,3/40,57,114.2
3485,G5,367.829,3/40,65,114.2
3486,A5,367.904,3/40,67,114.2
3487,C4,367.904,3/40,58,114.2
3488,B3,367.979,3/40,59,114.2
3489,B5,367.981,3/40,68,114.2
3490,A3,368.054,3/40,60,114.2
3491,C6,368.056,3/40,69,114.2
3492,G3,368.129,3/40,61,114.2
3493,D6,368.131,3/40,71,114.2
3494,F3,368.204,3/40,62,114.2
3495,E6,368.206,3/40,72,114.2
3496,E3,368.279,3/40,63,114.2
3497,F6,368.281,3/40,73,114.2
3498,G6,368.356,3/40,75,114.2
3499,D3,368.356,3/40,64,114.2
3500,C3,368.431,3/40,66,114.2
3501,A6,368.433,3/40,76,114.2
3502,B6,368.506,3/40,93,114.2
3503,B2,368.506,0.125,88,114.2
3504,B5,369.5,0.5,77,114.2
3505,F#5,369.5,0.5,77,114.2
3506,B4,369.5,0.5,77,114.2
3507,E-5,369.5,0.5,77,114.2
3508,B3,369.5,0.5,70,114.2
3509,F#3,369.5,0.5,70,114.2
3510,E-3,369.5,0.5,70,114.2
3511,B2,369.5,0.5,70,114.2
3512,B5,370.5,0.5,84,114.2
3513,E5,370.5,0.5,84,114.2
3514,B4,370.5,0.5,84,114.2
3515,G#5,370.5,0.5,84,114.2
3516,B3,370.5,0.5,74,114.2
3517,G#3,370.5,0.5,74,114.2
3518,E3,370.5,0.5,74,114.2
3519,B2,370.5,0.5,74,114.2
3520,A4,371.527,3/40,56,114.2
3521,C5,371.529,3/40,63,114.2
3522,G4,371.602,3/40,57,114.2
3523,D5,371.604,3/40,65,114.2
3524,F4,371.677,3/40,58,114.2
3525,E5,371.679,3/40,67,114.2
3526,E4,371.752,3/40,61,114.2
3527,F5,371.754,3/40,69,114.2
3528,D4,371.827,3/40,62,114.2
3529,G5,371.829,3/40,70,114.2
3530,A5,371.904,3/40,72,114.2
3531,C4,371.904,3/40,63,114.2
3532,B3,371.979,3/40,64,114.2
3533,B5,371.981,3/40,74,114.2
3534,A3,372.054,3/40,66,114.2
3535,C6,372.056,3/40,76,114.2
3536,G3,372.129,3/40,67,114.2
3537,D6,372.131,3/40,77,114.2
3538,F3,372.204,3/40,68,114.2
3539,E6,372.206,3/40,79,114.2
3540,E3,372.279,3/40,69,114.2
3541,F6,372.281,3/40,81,114.2
3542,G6,372.356,3/40,82,114.2
3543,D3,372.356,3/40,70,114.2
3544,C3,372.431,3/40,72,114.2
3545,A6,372.433,3/40,84,114.2
3546,B6,372.506,3/40,102,114.2
3547,B2,372.506,0.125,96,114.2
3548,F#5,373.5,0.5,77,114.2
3549,E-5,373.5,0.5,77,114.2
3550,B4,373.5,0.5,77,114.2
3551,B5,373.5,0.5,77,114.2
3552,B3,373.5,0.5,70,114.2
3553,F#3,373.5,0.5,70,114.2
3554,E-3,373.5,0.5,70,114.2
3555,B2,373.5,0.5,70,114.2
3556,E6,374.5,0.125,86,114.2
3557,E5,374.5,0.125,86,114.2
3558,E3,374.5,0.25,74,114.2
3559,E2,374.5,0.25,74,114.2
3560,F#5,374.75,0.125,74,114.2
3561,F#6,374.75,0.125,74,114.2
3562,G#5,375.0,0.125,74,114.2
3563,G#6,375.0,0.125,74,114.2
3564,E4,375.0,0.25,54,114.2
3565,G#3,375.0,0.25,54,114.2
3566,A5,375.25,0.125,74,114.2
3567,A6,375.25,0.125,74,114.2
3568,B5,375.5,0.125,82,114.2
3569,B6,375.5,0.125,82,114.2
3570,E3,375.5,0.25,66,114.2
3571,E2,375.5,0.25,66,114.2
3572,B-5,375.75,0.125,68,114.2
3573,B-6,375.75,0.125,68,114.2
3574,B6,376.0,0.125,68,114.2
3575,B5,376.0,0.125,68,114.2
3576,E4,376.0,0.25,50,114.2
3577,G#3,376.0,0.25,50,114.2
3578,D6,376.25,0.125,68,114.2
3579,D7,376.25,0.125,68,114.2
3580,D7,376.5,0.25,84,114.2
3581,D6,376.5,0.25,84,114.2
3582,E3,376.5,0.25,70,114.2
3583,E2,376.5,0.25,70,114.2
3584,C#7,377.0,1.0,82,114.2
3585,C#6,377.0,1.0,82,114.2
3586,E4,377.0,0.25,55,114.2
3587,G#3,377.0,0.25,55,114.2
3588,E3,377.5,0.25,66,114.2
3589,E2,377.5,0.25,66,114.2
3590,B5,378.0,0.5,74,114.2
3591,B6,378.0,0.5,74,114.2
3592,E4,378.0,0.25,55,114.2
3593,G#3,378.0,0.25,55,114.2
3594,B5,378.5,0.25,74,114.2
3595,B6,378.5,0.25,74,114.2
3596,A2,378.5,0.25,72,114.2
3597,A1,378.5,0.25,72,114.2
3598,E6,378.75,0.125,74,114.2
3599,E5,378.75,0.125,74,114.2
3600,F#5,379.0,0.125,74,114.2
3601,F#6,379.0,0.125,74,114.2
3602,E4,379.0,0.25,52,114.2
3603,E3,379.0,0.25,52,114.2
3604,C4,379.0,0.25,52,114.2
3605,G#5,379.25,0.125,74,114.2
3606,G#6,379.25,0.125,74,114.2
3607,A5,379.5,0.125,82,114.2
3608,A6,379.5,0.125,82,114.2
3609,A2,379.5,0.25,66,114.2
3610,A1,379.5,0.25,66,114.2
3611,G#6,379.75,0.125,68,114.2
3612,G#5,379.75,0.125,68,114.2
3613,A6,380.0,0.125,68,114.2
3614,A5,380.0,0.125,68,114.2
3615,E4,380.0,0.25,52,114.2
3616,E3,380.0,0.25,52,114.2
3617,C4,380.0,0.25,52,114.2
3618,C6,380.25,0.125,68,114.2
3619,C7,380.25,0.125,68,114.2
3620,B6,380.5,0.25,84,114.2
3621,B5,380.5,0.25,84,114.2
3622,A2,380.5,0.25,66,114.2
3623,A1,380.5,0.25,66,114.2
3624,A5,381.0,1.0,82,114.2
3625,A6,381.0,1.0,82,114.2
3626,E4,381.0,0.25,54,114.2
3627,E3,381.0,0.25,54,114.2
3628,C4,381.0,0.25,54,114.2
3629,C3,381.5,0.25,67,114.2
3630,C2,381.5,0.25,67,114.2
3631,A5,382.0,0.5,74,114.2
3632,A6,382.0,0.5,74,114.2
3633,E4,382.0,0.25,55,114.2
3634,E3,382.0,0.25,55,114.2
3635,A3,382.0,0.25,55,114.2
3636,B4,382.5,0.125,86,114.2
3637,B5,382.5,0.125,86,114.2
3638,B2,382.5,0.25,70,114.2
3639,B1,382.5,0.25,70,114.2
3640,C5,382.75,0.125,74,114.2
3641,C6,382.75,0.125,74,114.2
3642,E-6,383.0,0.125,74,114.2
3643,E-5,383.0,0.125,74,114.2
3644,E4,383.0,0.25,52,114.2
3645,G3,383.0,0.25,52,114.2
3646,B3,383.0,0.25,52,114.2
3647,E5,383.25,0.125,74,114.2
3648,E6,383.25,0.125,74,114.2
3649,G6,383.5,0.125,82,114.2
3650,G5,383.5,0.125,82,114.2
3651,B2,383.5,0.25,64,114.2
3652,B1,383.5,0.25,64,114.2
3653,F#6,383.75,0.125,68,114.2
3654,F#5,383.75,0.125,68,114.2
3655,G5,384.0,0.125,68,114.2
3656,G6,384.0,0.125,68,114.2
3657,E4,384.0,0.25,49,114.2
3658,G3,384.0,0.25,49,114.2
3659,B3,384.0,0.25,49,114.2
3660,A6,384.25,0.125,68,114.2
3661,A5,384.25,0.125,68,114.2
3662,G5,384.5,0.25,84,114.2
3663,G6,384.5,0.25,84,114.2
3664,C#3,384.5,0.25,78,114.2
3665,C#2,384.5,0.25,78,114.2
3666,F#5,385.0,1.0,82,114.2
3667,F#6,385.0,1.0,82,114.2
3668,E4,385.0,0.25,53,114.2
3669,F#3,385.0,0.25,53,114.2
3670,B-3,385.0,0.25,53,114.2
3671,C3,385.5,0.25,69,114.2
3672,C2,385.5,0.25,69,114.2
3673,F#5,386.0,0.5,74,114.2
3674,F#6,386.0,0.5,74,114.2
3675,E4,386.0,0.25,55,114.2
3676,F#3,386.0,0.25,55,114.2
3677,B-3,386.0,0.25,55,114.2
3678,B4,386.5,0.125,86,114.2
3679,B5,386.5,0.125,86,114.2
3680,B2,386.5,0.25,76,114.2
3681,B1,386.5,0.25,76,114.2
3682,C5,386.75,0.125,74,114.2
3683,C6,386.75,0.125,74,114.2
3684,E-6,387.0,0.125,74,114.2
3685,E-5,387.0,0.125,74,114.2
3686,E-4,387.0,0.25,52,114.2
3687,F#3,387.0,0.25,52,114.2
3688,A3,387.0,0.25,52,114.2
3689,E5,387.25,0.125,74,114.2
3690,E6,387.25,0.125,74,114.2
3691,F#6,387.5,0.125,82,114.2
3692,F#5,387.5,0.125,82,114.2
3693,B2,387.5,0.25,67,114.2
3694,B1,387.5,0.25,67,114.2
3695,E6,387.75,0.125,64,114.2
3696,E5,387.75,0.125,64,114.2
3697,G5,388.0,0.125,78,114.2
3698,G6,388.0,0.125,78,114.2
3699,E-4,388.0,0.25,51,114.2
3700,F#3,388.0,0.25,51,114.2
3701,A3,388.0,0.25,51,114.2
3702,F#6,388.25,0.125,73,114.2
3703,F#5,388.25,0.125,73,114.2
3704,E6,388.5,0.125,84,114.2
3705,E5,388.5,0.125,84,114.2
3706,E4,388.5,0.25,65,114.2
3707,E3,388.5,0.25,65,114.2
3708,G3,388.5,0.25,65,114.2
3709,E-5,388.75,0.125,71,114.2
3710,E-6,388.75,0.125,71,114.2
3711,B2,388.875,0.375,47,114.2
3712,A3,388.938,0.312,47,114.2
3713,E-4,389.0,0.25,56,114.2
3714,G6,389.0,0.125,78,114.2
3715,G5,389.0,0.125,78,114.2
3716,F#6,389.25,0.125,71,114.2
3717,F#5,389.25,0.125,71,114.2
3718,E6,389.5,0.125,77,114.2
3719,E5,389.5,0.125,77,114.2
3720,E4,389.5,0.25,54,114.2
3721,E3,389.5,0.25,54,114.2
3722,G3,389.5,0.25,54,114.2
3723,E2,390.375,83/1000,86,114.2
3724,E3,390.375,83/1000,86,114.2
3725,E2,390.5,0.125,86,114.2
3726,E3,390.5,0.125,86,114.2
3727,F#2,390.75,0.125,74,114.2
3728,F#3,390.75,0.125,74,114.2
3729,G#2,391.0,0.125,74,114.2
3730,G#3,391.0,0.125,74,114.2
3731,A2,391.25,0.125,74,114.2
3732,A3,391.25,0.125,74,114.2
3733,B2,391.5,0.125,82,114.2
3734,B3,391.5,0.125,82,114.2
3735,B-2,391.75,0.125,68,114.2
3736,B-3,391.75,0.125,68,114.2
3737,B2,392.0,0.125,68,114.2
3738,B3,392.0,0.125,68,114.2
3739,D3,392.25,0.125,68,114.2
3740,D4,392.25,0.125,68,114.2
3741,E4,392.375,83/1000,86,114.2
3742,E5,392.375,83/1000,86,114.2
3743,E4,392.5,0.125,86,114.2
3744,E5,392.5,0.125,86,114.2
3745,D3,392.5,0.25,84,114.2
3746,D4,392.5,0.25,84,114.2
3747,F#4,392.75,0.125,74,114.2
3748,F#5,392.75,0.125,74,114.2
3749,G#4,393.0,0.125,74,114.2
3750,G#5,393.0,0.125,74,114.2
3751,E3,393.0,1.0,80,114.2
3752,G#3,393.0,1.0,80,114.2
3753,C3,393.0,1.0,80,114.2
3754,C4,393.0,1.0,80,114.2
3755,A4,393.25,0.125,74,114.2
3756,A5,393.25,0.125,74,114.2
3757,B4,393.5,0.125,82,114.2
3758,B5,393.5,0.125,82,114.2
3759,B-4,393.75,0.125,68,114.2
3760,B-5,393.75,0.125,68,114.2
3761,B4,394.0,0.125,68,114.2
3762,B5,394.0,0.125,68,114.2
3763,E3,394.0,0.5,72,114.2
3764,G#3,394.0,0.5,72,114.2
3765,B2,394.0,0.5,72,114.2
3766,B3,394.0,0.5,72,114.2
3767,D5,394.25,0.125,68,114.2
3768,D6,394.25,0.125,68,114.2
3769,G#5,394.5,0.25,81,114.2
3770,B5,394.5,0.25,81,114.2
3771,D5,394.5,0.25,81,114.2
3772,D6,394.5,0.25,81,114.2
3773,E2,394.75,0.125,74,114.2
3774,E3,394.75,0.125,74,114.2
3775,A5,395.0,1.0,81,114.2
3776,C5,395.0,1.0,81,114.2
3777,C6,395.0,1.0,81,114.2
3778,F#2,395.0,0.125,74,114.2
3779,F#3,395.0,0.125,74,114.2
3780,G#2,395.25,0.125,74,114.2
3781,G#3,395.25,0.125,74,114.2
3782,A2,395.5,0.125,82,114.2
3783,A3,395.5,0.125,82,114.2
3784,G#2,395.75,0.125,68,114.2
3785,G#3,395.75,0.125,68,114.2
3786,C5,396.0,0.5,72,114.2
3787,E5,396.0,0.5,72,114.2
3788,A5,396.0,0.5,72,114.2
3789,A4,396.0,0.5,72,114.2
3790,A2,396.0,0.125,68,114.2
3791,A3,396.0,0.125,68,114.2
3792,C3,396.25,0.125,68,114.2
3793,C4,396.25,0.125,68,114.2
3794,B2,396.5,0.25,84,114.2
3795,B3,396.5,0.25,84,114.2
3796,E5,396.75,0.125,74,114.2
3797,E4,396.75,0.125,74,114.2
3798,F#4,397.0,0.125,74,114.2
3799,F#5,397.0,0.125,74,114.2
3800,C3,397.0,1.0,80,114.2
3801,E3,397.0,1.0,80,114.2
3802,A2,397.0,1.0,80,114.2
3803,A3,397.0,1.0,80,114.2
3804,G#5,397.25,0.125,74,114.2
3805,G#4,397.25,0.125,74,114.2
3806,A4,397.5,0.125,82,114.2
3807,A5,397.5,0.125,82,114.2
3808,G#4,397.75,0.125,68,114.2
3809,G#5,397.75,0.125,68,114.2
3810,A5,398.0,0.125,68,114.2
3811,A4,398.0,0.125,68,114.2
3812,C3,398.0,0.5,72,114.2
3813,E3,398.0,0.5,72,114.2
3814,A2,398.0,0.5,72,114.2
3815,A3,398.0,0.5,72,114.2
3816,C6,398.25,0.125,68,114.2
3817,C5,398.25,0.125,68,114.2
3818,C6,398.5,0.25,84,114.2
3819,C5,398.5,0.25,84,114.2
3820,B2,398.5,0.125,86,114.2
3821,B1,398.5,0.125,86,114.2
3822,C2,398.75,0.125,74,114.2
3823,C3,398.75,0.125,74,114.2
3824,G5,399.0,1.0,80,114.2
3825,E5,399.0,1.0,80,114.2
3826,B5,399.0,1.0,80,114.2
3827,B4,399.0,1.0,80,114.2
3828,E-2,399.0,0.125,74,114.2
3829,E-3,399.0,0.125,74,114.2
3830,E2,399.25,0.125,74,114.2
3831,E3,399.25,0.125,74,114.2
3832,G2,399.5,0.125,82,114.2
3833,G3,399.5,0.125,82,114.2
3834,F#2,399.75,0.125,68,114.2
3835,F#3,399.75,0.125,68,114.2
3836,B4,400.0,0.5,72,114.2
3837,E5,400.0,0.5,72,114.2
3838,G4,400.0,0.5,72,114.2
3839,G5,400.0,0.5,72,114.2
3840,G2,400.0,0.125,68,114.2
3841,G3,400.0,0.125,68,114.2
3842,A2,400.25,0.125,68,114.2
3843,A3,400.25,0.125,68,114.2
3844,B-3,400.5,0.125,86,114.2
3845,B-4,400.5,0.125,86,114.2
3846,G3,400.5,0.25,84,114.2
3847,G2,400.5,0.25,84,114.2
3848,C#4,400.75,0.125,74,114.2
3849,C#5,400.75,0.125,74,114.2
3850,E4,401.0,0.125,74,114.2
3851,E5,401.0,0.125,74,114.2
3852,F#3,401.0,1.0,80,114.2
3853,F#2,401.0,1.0,80,114.2
3854,C#3,401.0,1.0,80,114.2
3855,B-2,401.0,1.0,80,114.2
3856,F5,401.25,0.125,74,114.2
3857,F4,401.25,0.125,74,114.2
3858,F#4,401.5,0.125,82,114.2
3859,F#5,401.5,0.125,82,114.2
3860,F5,401.75,0.125,68,114.2
3861,F4,401.75,0.125,68,114.2
3862,F#5,402.0,0.125,68,114.2
3863,F#4,402.0,0.125,68,114.2
3864,B-2,402.0,0.5,74,114.2
3865,B-1,402.0,0.5,74,114.2
3866,E4,402.25,0.125,68,114.2
3867,E5,402.25,0.125,68,114.2
3868,E-5,402.5,0.188,51,114.2
3869,E-4,402.5,0.188,51,114.2
3870,B2,402.5,0.188,36,114.2
3871,B1,402.5,0.188,36,114.2
3872,E4,402.75,0.188,52,114.2
3873,E5,402.75,0.188,52,114.2
3874,B3,402.75,0.188,36,114.2
3875,B2,402.75,0.188,36,114.2
3876,E-3,402.75,0.188,36,114.2
3877,F#3,402.75,0.188,36,114.2
3878,F#4,403.0,0.188,54,114.2
3879,F#5,403.0,0.188,54,114.2
3880,B3,403.0,0.188,37,114.2
3881,B2,403.0,0.188,37,114.2
3882,E-3,403.0,0.188,37,114.2
3883,F#3,403.0,0.188,37,114.2
3884,G#4,403.25,0.188,55,114.2
3885,G#5,403.25,0.188,55,114.2
3886,B3,403.25,0.188,38,114.2
3887,B2,403.25,0.188,38,114.2
3888,E-3,403.25,0.188,38,114.2
3889,F#3,403.25,0.188,38,114.2
3890,A5,403.5,0.188,57,114.2
3891,A4,403.5,0.188,57,114.2
3892,B3,403.5,0.188,40,114.2
3893,B2,403.5,0.188,40,114.2
3894,E-3,403.5,0.188,40,114.2
3895,F#3,403.5,0.188,40,114.2
3896,B-5,403.75,0.188,58,114.2
3897,B-4,403.75,0.188,58,114.2
3898,B3,403.75,0.188,41,114.2
3899,B2,403.75,0.188,41,114.2
3900,E-3,403.75,0.188,41,114.2
3901,F#3,403.75,0.188,41,114.2
3902,B4,404.0,0.188,60,114.2
3903,B5,404.0,0.188,60,114.2
3904,B3,404.0,0.188,42,114.2
3905,B2,404.0,0.188,42,114.2
3906,E-3,404.0,0.188,42,114.2
3907,F#3,404.0,0.188,42,114.2
3908,C6,404.25,0.188,61,114.2
3909,C5,404.25,0.188,61,114.2
3910,B3,404.25,0.188,43,114.2
3911,B2,404.25,0.188,43,114.2
3912,E-3,404.25,0.188,43,114.2
3913,F#3,404.25,0.188,43,114.2
3914,C#5,404.5,0.188,63,114.2
3915,C#6,404.5,0.188,63,114.2
3916,B3,404.5,0.188,45,114.2
3917,B2,404.5,0.188,45,114.2
3918,E-3,404.5,0.188,45,114.2
3919,F#3,404.5,0.188,45,114.2
3920,D5,404.75,0.188,64,114.2
3921,D6,404.75,0.188,64,114.2
3922,B3,404.75,0.188,46,114.2
3923,B2,404.75,0.188,46,114.2
3924,E-3,404.75,0.188,46,114.2
3925,F#3,404.75,0.188,46,114.2
3926,E-5,405.0,0.188,66,114.2
3927,E-6,405.0,0.188,66,114.2
3928,B3,405.0,0.188,47,114.2
3929,B2,405.0,0.188,47,114.2
3930,E-3,405.0,0.188,47,114.2
3931,F#3,405.0,0.188,47,114.2
3932,E5,405.25,0.188,67,114.2
3933,E6,405.25,0.188,67,114.2
3934,B3,405.25,0.188,48,114.2
3935,B2,405.25,0.188,48,114.2
3936,E-3,405.25,0.188,48,114.2
3937,F#3,405.25,0.188,48,114.2
3938,F6,405.5,0.188,72,114.2
3939,F5,405.5,0.188,72,114.2
3940,B3,405.5,0.5,50,114.2
3941,B2,405.5,0.5,50,114.2
3942,E-3,405.5,0.5,50,114.2
3943,F#3,405.5,0.5,50,114.2
3944,F#5,405.75,0.188,70,114.2
3945,F#6,405.75,0.188,70,114.2
3946,G6,406.0,0.188,71,114.2
3947,G5,406.0,0.188,71,114.2
3948,G#6,406.25,0.188,74,114.2
3949,G#5,406.25,0.188,74,114.2
3950,B2,406.5,0.25,70,114.2
3951,A6,406.5,0.5,71,114.2
3952,A5,406.5,0.5,71,114.2
3953,E-4,406.75,0.25,61,114.2
3954,E-3,407.0,0.25,61,114.2
3955,C#6,407.0,0.25,62,114.2
3956,C#7,407.0,0.25,62,114.2
3957,F#4,407.25,0.25,61,114.2
3958,F#3,407.5,0.25,70,114.2
3959,C#6,407.5,0.5,70,114.2
3960,C#5,407.5,0.5,70,114.2
3961,A4,407.75,0.25,63,114.2
3962,A3,408.0,0.25,63,114.2
3963,E-6,408.0,0.25,64,114.2
3964,E-5,408.0,0.25,64,114.2
3965,C#5,408.25,0.25,63,114.2
3966,G#3,408.5,0.25,70,114.2
3967,E6,408.5,0.125,62,114.2
3968,E5,408.5,0.125,62,114.2
3969,B4,408.75,0.25,59,114.2
3970,F#6,408.75,0.125,64,114.2
3971,F#5,408.75,0.125,64,114.2
3972,E3,409.0,0.25,61,114.2
3973,G#6,409.0,0.125,66,114.2
3974,G#5,409.0,0.125,66,114.2
3975,G#4,409.25,0.25,63,114.2
3976,A5,409.25,0.125,68,114.2
3977,A6,409.25,0.125,68,114.2
3978,G#3,409.5,0.25,73,114.2
3979,B6,409.5,0.25,70,114.2
3980,B5,409.5,0.25,70,114.2
3981,B4,409.75,0.25,62,114.2
3982,E3,410.0,0.25,62,114.2
3983,C#6,410.0,0.25,66,114.2
3984,C#7,410.0,0.25,66,114.2
3985,G#4,410.25,0.25,62,114.2
3986,B2,410.5,0.25,70,114.2
3987,A6,410.5,0.5,71,114.2
3988,A5,410.5,0.5,71,114.2
3989,E-4,410.75,0.25,61,114.2
3990,E-3,411.0,0.25,61,114.2
3991,C#6,411.0,0.25,62,114.2
3992,C#7,411.0,0.25,62,114.2
3993,F#4,411.25,0.25,61,114.2
3994,F#3,411.5,0.25,70,114.2
3995,C#6,411.5,0.5,70,114.2
3996,C#5,411.5,0.5,70,114.2
3997,A4,411.75,0.25,63,114.2
3998,A3,412.0,0.25,63,114.2
3999,E-6,412.0,0.25,64,114.2
4000,E-5,412.0,0.25,64,114.2
4001,C#5,412.25,0.25,63,114.2
4002,G#3,412.5,0.25,70,114.2
4003,E5,412.5,0.125,62,114.2
4004,E6,412.5,0.125,62,114.2
4005,B4,412.75,0.25,59,114.2
4006,F#5,412.75,0.125,64,114.2
4007,F#6,412.75,0.125,64,114.2
4008,E3,413.0,0.25,61,114.2
4009,G#5,413.0,0.125,66,114.2
4010,G#6,413.0,0.125,66,114.2
4011,G#4,413.25,0.25,63,114.2
4012,A6,413.25,0.125,68,114.2
4013,A5,413.25,0.125,68,114.2
4014,G#3,413.5,0.25,73,114.2
4015,B5,413.5,0.25,70,114.2
4016,B6,413.5,0.25,70,114.2
4017,B4,413.75,0.25,62,114.2
4018,E3,414.0,0.25,62,114.2
4019,C#7,414.0,0.25,66,114.2
4020,C#6,414.0,0.25,66,114.2
4021,G#4,414.25,0.25,62,114.2
4022,E3,414.5,0.25,70,114.2
4023,D7,414.5,0.5,71,114.2
4024,D6,414.5,0.5,71,114.2
4025,G#4,414.75,0.25,61,114.2
4026,G#3,415.0,0.25,61,114.2
4027,F#7,415.0,0.25,62,114.2
4028,F#6,415.0,0.25,62,114.2
4029,B4,415.25,0.25,61,114.2
4030,B3,415.5,0.25,70,114.2
4031,F#6,415.5,0.5,70,114.2
4032,F#5,415.5,0.5,70,114.2
4033,D5,415.75,0.25,63,114.2
4034,D4,416.0,0.25,63,114.2
4035,G#6,416.0,0.25,64,114.2
4036,G#5,416.0,0.25,64,114.2
4037,F#5,416.25,0.25,63,114.2
4038,C#4,416.5,0.25,70,114.2
4039,A5,416.5,0.125,62,114.2
4040,A6,416.5,0.125,62,114.2
4041,E5,416.75,0.25,59,114.2
4042,B6,416.75,0.125,64,114.2
4043,B5,416.75,0.125,64,114.2
4044,A3,417.0,0.25,61,114.2
4045,C#6,417.0,0.125,66,114.2
4046,C#7,417.0,0.125,66,114.2
4047,C#5,417.25,0.25,63,114.2
4048,E-6,417.25,0.125,68,114.2
4049,E-7,417.25,0.125,68,114.2
4050,C#4,417.5,0.25,73,114.2
4051,E7,417.5,0.25,70,114.2
4052,E6,417.5,0.25,70,114.2
4053,E5,417.75,0.25,62,114.2
4054,B-3,418.0,0.25,62,114.2
4055,F#6,418.0,0.25,66,114.2
4056,F#7,418.0,0.25,66,114.2
4057,C#5,418.25,0.25,62,114.2
4058,E-4,418.5,0.25,70,114.2
4059,B6,418.5,0.125,62,114.2
4060,B5,418.5,0.125,62,114.2
4061,F#5,418.75,0.25,59,114.2
4062,C#7,418.75,0.125,64,114.2
4063,C#6,418.75,0.125,64,114.2
4064,B3,419.0,0.25,61,114.2
4065,E-7,419.0,0.125,66,114.2
4066,E-6,419.0,0.125,66,114.2
4067,E-5,419.25,0.25,63,114.2
4068,E6,419.25,0.125,68,114.2
4069,E7,419.25,0.125,68,114.2
4070,E-4,419.5,0.25,73,114.2
4071,F#6,419.5,0.25,70,114.2
4072,F#7,419.5,0.25,70,114.2
4073,B4,419.75,0.25,62,114.2
4074,B3,420.0,0.25,62,114.2
4075,G#7,420.0,0.25,66,114.2
4076,G#6,420.0,0.25,66,114.2
4077,A4,420.25,0.25,62,114.2
4078,E6,420.5,0.25,69,114.2
4079,E7,420.5,0.25,69,114.2
4080,G#4,420.5,0.25,52,114.2
4081,E4,420.5,0.25,52,114.2
4082,B6,421.0,0.25,65,114.2
4083,E-6,421.0,0.25,65,114.2
4084,F#6,421.0,0.25,65,114.2
4085,B5,421.0,0.25,65,114.2
4086,B4,421.0,0.25,47,114.2
4087,B3,421.0,0.25,47,114.2
4088,E-4,421.0,0.25,47,114.2
4089,F#4,421.0,0.25,47,114.2
4090,E7,421.5,0.25,68,114.2
4091,G#6,421.5,0.25,68,114.2
4092,B6,421.5,0.25,68,114.2
4093,E6,421.5,0.25,68,114.2
4094,E4,421.5,0.25,47,114.2
4095,B3,421.5,0.25,47,114.2
4096,G#3,421.5,0.25,47,114.2
4097,E3,421.5,0.25,47,114.2
4098,F#5,422.0,0.25,71,114.2
4099,F#4,422.0,0.25,71,114.2
4100,G#5,422.25,0.25,67,114.2
4101,G#4,422.25,0.25,67,114.2
4102,B1,422.5,0.25,77,114.2
4103,A4,422.5,0.5,78,114.2
4104,A5,422.5,0.5,78,114.2
4105,E-3,422.75,0.25,67,114.2
4106,E-2,423.0,0.25,67,114.2
4107,C#5,423.0,0.25,68,114.2
4108,C#6,423.0,0.25,68,114.2
4109,F#3,423.25,0.25,67,114.2
4110,F#2,423.5,0.25,77,114.2
4111,C#4,423.5,0.5,76,114.2
4112,C#5,423.5,0.5,76,114.2
4113,A3,423.75,0.25,69,114.2
4114,A2,424.0,0.25,69,114.2
4115,E-4,424.0,0.25,70,114.2
4116,E-5,424.0,0.25,70,114.2
4117,C#4,424.25,0.25,69,114.2
4118,G#2,424.5,0.25,77,114.2
4119,E5,424.5,0.125,68,114.2
4120,E4,424.5,0.125,68,114.2
4121,B3,424.75,0.25,64,114.2
4122,F#5,424.75,0.125,70,114.2
4123,F#4,424.75,0.125,70,114.2
4124,E2,425.0,0.25,67,114.2
4125,G#4,425.0,0.125,73,114.2
4126,G#5,425.0,0.125,73,114.2
4127,G#3,425.25,0.25,69,114.2
4128,A5,425.25,0.125,74,114.2
4129,A4,425.25,0.125,74,114.2
4130,G#2,425.5,0.25,80,114.2
4131,B5,425.5,0.25,76,114.2
4132,B4,425.5,0.25,76,114.2
4133,B3,425.75,0.25,68,114.2
4134,E2,426.0,0.25,68,114.2
4135,C#5,426.0,0.25,73,114.2
4136,C#6,426.0,0.25,73,114.2
4137,G#3,426.25,0.25,68,114.2
4138,B1,426.5,0.25,77,114.2
4139,A4,426.5,0.5,78,114.2
4140,A5,426.5,0.5,78,114.2
4141,E-3,426.75,0.25,67,114.2
4142,E-2,427.0,0.25,67,114.2
4143,C#5,427.0,0.25,68,114.2
4144,C#6,427.0,0.25,68,114.2
4145,F#3,427.25,0.25,67,114.2
4146,F#2,427.5,0.25,77,114.2
4147,C#4,427.5,0.5,76,114.2
4148,C#5,427.5,0.5,76,114.2
4149,A3,427.75,0.25,69,114.2
4150,A2,428.0,0.25,69,114.2
4151,E-4,428.0,0.25,70,114.2
4152,E-5,428.0,0.25,70,114.2
4153,C#4,428.25,0.25,69,114.2
4154,G#2,428.5,0.25,77,114.2
4155,E4,428.5,0.125,68,114.2
4156,E5,428.5,0.125,68,114.2
4157,B3,428.75,0.25,64,114.2
4158,F#5,428.75,0.125,70,114.2
4159,F#4,428.75,0.125,70,114.2
4160,E2,429.0,0.25,67,114.2
4161,G#4,429.0,0.125,73,114.2
4162,G#5,429.0,0.125,73,114.2
4163,G#3,429.25,0.25,69,114.2
4164,A5,429.25,0.125,74,114.2
4165,A4,429.25,0.125,74,114.2
4166,G#2,429.5,0.25,80,114.2
4167,B5,429.5,0.25,76,114.2
4168,B4,429.5,0.25,76,114.2
4169,B3,429.75,0.25,68,114.2
4170,E2,430.0,0.25,68,114.2
4171,C#6,430.0,0.25,73,114.2
4172,C#5,430.0,0.25,73,114.2
4173,G#3,430.25,0.25,68,114.2
4174,E2,430.5,0.25,77,114.2
4175,D6,430.5,0.5,78,114.2
4176,D5,430.5,0.5,78,114.2
4177,G#3,430.75,0.25,67,114.2
4178,G#2,431.0,0.25,67,114.2
4179,F#5,431.0,0.25,68,114.2
4180,F#6,431.0,0.25,68,114.2
4181,B3,431.25,0.25,67,114.2
4182,B2,431.5,0.25,77,114.2
4183,F#5,431.5,0.5,76,114.2
4184,F#4,431.5,0.5,76,114.2
4185,D4,431.75,0.25,69,114.2
4186,D3,432.0,0.25,69,114.2
4187,G#4,432.0,0.25,70,114.2
4188,G#5,432.0,0.25,70,114.2
4189,F#4,432.25,0.25,69,114.2
4190,C#3,432.5,0.25,77,114.2
4191,A4,432.5,0.125,68,114.2
4192,A5,432.5,0.125,68,114.2
4193,E4,432.75,0.25,64,114.2
4194,B5,432.75,0.125,70,114.2
4195,B4,432.75,0.125,70,114.2
4196,A2,433.0,0.25,67,114.2
4197,C#5,433.0,0.125,73,114.2
4198,C#6,433.0,0.125,73,114.2
4199,C#4,433.25,0.25,69,114.2
4200,E-6,433.25,0.125,74,114.2
4201,E-5,433.25,0.125,74,114.2
4202,C#3,433.5,0.25,80,114.2
4203,E6,433.5,0.25,76,114.2
4204,E5,433.5,0.25,76,114.2
4205,E4,433.75,0.25,68,114.2
4206,B-2,434.0,0.25,68,114.2
4207,F#6,434.0,0.25,73,114.2
4208,F#5,434.0,0.25,73,114.2
4209,C#4,434.25,0.25,68,114.2
4210,B5,434.5,0.25,66,114.2
4211,B4,434.5,0.25,66,114.2
4212,B3,434.5,0.25,56,114.2
4213,B2,434.5,0.25,56,114.2
4214,C#6,434.75,0.25,68,114.2
4215,C#5,434.75,0.25,68,114.2
4216,B-3,434.75,0.25,57,114.2
4217,B-2,434.75,0.25,57,114.2
4218,E-5,435.0,0.25,70,114.2
4219,E-6,435.0,0.25,70,114.2
4220,A3,435.0,0.25,59,114.2
4221,A2,435.0,0.25,59,114.2
4222,E6,435.25,0.25,71,114.2
4223,E5,435.25,0.25,71,114.2
4224,G#3,435.25,0.25,61,114.2
4225,G#2,435.25,0.25,61,114.2
4226,F#5,435.5,0.25,73,114.2
4227,F#6,435.5,0.25,73,114.2
4228,F#3,435.5,0.25,62,114.2
4229,F#2,435.5,0.25,62,114.2
4230,G#6,435.75,0.25,74,114.2
4231,G#5,435.75,0.25,74,114.2
4232,E3,435.75,0.25,64,114.2
4233,E2,435.75,0.25,64,114.2
4234,A5,436.0,0.25,76,114.2
4235,A6,436.0,0.25,76,114.2
4236,E-3,436.0,0.25,66,114.2
4237,E-2,436.0,0.25,66,114.2
4238,B-6,436.25,0.25,78,114.2
4239,B-5,436.25,0.25,78,114.2
4240,C#3,436.25,0.25,68,114.2
4241,C#2,436.25,0.25,68,114.2
4242,B6,436.5,0.25,78,114.2
4243,B5,436.5,0.25,78,114.2
4244,B2,436.5,0.25,70,114.2
4245,B1,436.5,0.25,70,114.2
4246,C6,437.0,0.25,80,114.2
4247,C7,437.0,0.25,80,114.2
4248,E-6,437.0,0.25,80,114.2
4249,A2,437.0,0.25,66,114.2
4250,A1,437.0,0.25,66,114.2
4251,E6,437.5,0.25,84,114.2
4252,C#6,437.5,0.25,84,114.2
4253,C#7,437.5,0.25,84,114.2
4254,G#2,437.5,0.25,70,114.2
4255,G#1,437.5,0.25,70,114.2
4256,E-7,438.0,0.25,89,114.2
4257,E-6,438.0,0.25,89,114.2
4258,F#6,438.0,0.25,89,114.2
4259,F#2,438.0,0.25,68,114.2
4260,F#1,438.0,0.25,68,114.2
4261,G#6,438.5,0.25,93,114.2
4262,E7,438.5,0.25,93,114.2
4263,E6,438.5,0.25,93,114.2
4264,E2,438.5,0.25,70,114.2
4265,E1,438.5,0.25,70,114.2
4266,F7,439.5,0.25,91,114.2
4267,F6,439.5,0.25,91,114.2
4268,A6,439.5,0.25,91,114.2
4269,C7,439.5,0.25,91,114.2
4270,A2,439.5,0.25,66,114.2
4271,A1,439.5,0.25,66,114.2
4272,C#2,439.5,0.25,66,114.2
4273,F2,439.5,0.25,66,114.2
4274,B5,441.375,14/125,68,114.2
4275,E-6,441.375,14/125,68,114.2
4276,F#6,441.375,14/125,68,114.2
4277,B6,441.375,14/125,68,114.2
4278,B1,441.375,14/125,50,114.2
4279,E-2,441.375,14/125,50,114.2
4280,F#2,441.375,14/125,50,114.2
4281,B2,441.375,14/125,50,114.2
4282,E-6,441.5,0.25,86,114.2
4283,B6,441.5,0.25,86,114.2
4284,F#6,441.5,0.25,86,114.2
4285,B5,441.5,0.25,86,114.2
4286,B1,441.5,0.25,62,114.2
4287,E-2,441.5,0.25,62,114.2
4288,F#2,441.5,0.25,62,114.2
4289,B2,441.5,0.25,62,114.2
4290,B5,442.375,14/125,68,114.2
4291,E6,442.375,14/125,68,114.2
4292,E5,442.375,14/125,68,114.2
4293,G#5,442.375,14/125,68,114.2
4294,E2,442.375,14/125,50,114.2
4295,G#2,442.375,14/125,50,114.2
4296,B2,442.375,14/125,50,114.2
4297,E3,442.375,14/125,50,114.2
4298,E5,442.5,0.25,86,114.2
4299,G#5,442.5,0.25,86,114.2
4300,E6,442.5,0.25,86,114.2
4301,B5,442.5,0.25,86,114.2
4302,E2,442.5,0.25,62,114.2
4303,G#2,442.5,0.25,62,114.2
4304,B2,442.5,0.25,62,114.2
4305,E3,442.5,0.25,62,114.2
4306,F5,443.375,14/125,68,114.2
4307,A5,443.375,14/125,68,114.2
4308,C6,443.375,14/125,68,114.2
4309,F6,443.375,14/125,68,114.2
4310,A2,443.375,14/125,50,114.2
4311,C3,443.375,14/125,50,114.2
4312,F3,443.375,14/125,50,114.2
4313,A3,443.375,14/125,50,114.2
4314,F6,443.5,0.25,86,114.2
4315,C6,443.5,0.25,86,114.2
4316,F5,443.5,0.25,86,114.2
4317,A5,443.5,0.25,86,114.2
4318,A2,443.5,0.25,62,114.2
4319,C3,443.5,0.25,62,114.2
4320,F3,443.5,0.25,62,114.2
4321,A3,443.5,0.25,62,114.2
4322,E-5,444.375,14/125,68,114.2
4323,B4,444.375,14/125,68,114.2
4324,F#5,444.375,14/125,68,114.2
4325,B5,444.375,14/125,68,114.2
4326,B2,444.375,14/125,50,114.2
4327,E-3,444.375,14/125,50,114.2
4328,F#3,444.375,14/125,50,114.2
4329,B3,444.375,14/125,50,114.2
4330,E-5,444.5,0.25,86,114.2
4331,F#5,444.5,0.25,86,114.2
4332,B4,444.5,0.25,86,114.2
4333,B5,444.5,0.25,86,114.2
4334,B2,444.5,0.25,62,114.2
4335,E-3,444.5,0.25,62,114.2
4336,F#3,444.5,0.25,62,114.2
4337,B3,444.5,0.25,62,114.2
4338,B4,445.375,14/125,68,114.2
4339,G#4,445.375,14/125,68,114.2
4340,E4,445.375,14/125,68,114.2
4341,E5,445.375,14/125,68,114.2
4342,E2,445.375,14/125,50,114.2
4343,G#2,445.375,14/125,50,114.2
4344,B2,445.375,14/125,50,114.2
4345,E3,445.375,14/125,50,114.2
4346,E4,445.5,0.25,86,114.2
4347,E5,445.5,0.25,86,114.2
4348,G#4,445.5,0.25,86,114.2
4349,B4,445.5,0.25,86,114.2
4350,E2,445.5,0.25,62,114.2
4351,G#2,445.5,0.25,62,114.2
4352,B2,445.5,0.25,62,114.2
4353,E3,445.5,0.25,62,114.2
4354,F4,446.375,14/125,61,114.2
4355,A4,446.375,14/125,61,114.2
4356,F5,446.375,14/125,61,114.2
4357,C5,446.375,14/125,61,114.2
4358,A1,446.375,14/125,44,114.2
4359,C2,446.375,14/125,44,114.2
4360,F2,446.375,14/125,44,114.2
4361,A2,446.375,14/125,44,114.2
4362,A4,446.5,0.25,77,114.2
4363,F5,446.5,0.25,77,114.2
4364,C5,446.5,0.25,77,114.2
4365,F4,446.5,0.25,77,114.2
4366,A1,446.5,0.25,56,114.2
4367,C2,446.5,0.25,56,114.2
4368,F2,446.5,0.25,56,114.2
4369,A2,446.5,0.25,56,114.2
4370,F#4,447.375,14/125,61,114.2
4371,B4,447.375,14/125,61,114.2
4372,E-4,447.375,14/125,61,114.2
4373,B3,447.375,14/125,61,114.2
4374,B1,447.375,14/125,44,114.2
4375,E-2,447.375,14/125,44,114.2
4376,F#2,447.375,14/125,44,114.2
4377,B2,447.375,14/125,44,114.2
4378,B3,447.5,0.25,77,114.2
4379,B4,447.5,0.25,77,114.2
4380,F#4,447.5,0.25,77,114.2
4381,E-4,447.5,0.25,77,114.2
4382,B1,447.5,0.25,56,114.2
4383,E-2,447.5,0.25,56,114.2
4384,F#2,447.5,0.25,56,114.2
4385,B2,447.5,0.25,56,114.2
4386,E3,448.375,14/125,61,114.2
4387,G#3,448.375,14/125,61,114.2
4388,B3,448.375,14/125,61,114.2
4389,E4,448.375,14/125,61,114.2
4390,E1,448.375,14/125,44,114.2
4391,G#1,448.375,14/125,44,114.2
4392,B1,448.375,14/125,44,114.2
4393,E2,448.375,14/125,44,114.2
4394,G#3,448.5,0.25,77,114.2
4395,E4,448.5,0.25,77,114.2
4396,B3,448.5,0.25,77,114.2
4397,E3,448.5,0.25,77,114.2
4398,E1,448.5,0.25,56,114.2
4399,G#1,448.5,0.25,56,114.2
4400,B1,448.5,0.25,56,114.2
4401,E2,448.5,0.25,56,114.2
4402,E5,449.515,0.25,86,114.2
4403,B4,449.515,0.25,86,114.2
4404,E4,449.515,0.25,86,114.2
4405,G#4,449.515,0.25,86,114.2
4406,E2,449.515,0.25,62,114.2
4407,G#2,449.515,0.25,62,114.2
4408,B2,449.515,0.25,62,114.2
4409,E3,449.515,0.25,62,114.2
4410,G#5,450.5,0.25,94,114.2
4411,B5,450.5,0.25,94,114.2
4412,E5,450.5,0.25,94,114.2
4413,E6,450.5,0.25,94,114.2
4414,E3,450.5,0.25,68,114.2
4415,G#3,450.5,0.25,68,114.2
4416,B3,450.5,0.25,68,114.2
4417,E4,450.5,0.25,68,114.2
4418,E7,451.5,1.0,94,114.2
4419,E6,451.5,1.0,94,114.2
4420,B6,451.5,1.0,94,114.2
4421,G#6,451.5,1.0,94,114.2
4422,E4,451.5,1.0,68,114.2
4423,G#4,451.5,1.0,68,114.2
4424,B4,451.5,1.0,68,114.2
4425,E5,451.5,1.0,68,114.2
4426,E7,452.5,2.0,94,114.2
4427,E6,452.5,2.0,94,114.2
4428,B6,452.5,2.0,94,114.2
4429,G#6,452.5,2.0,94,114.2
4430,E4,452.5,2.0,68,114.2
4431,G#4,452.5,2.0,68,114.2
4432,B4,452.5,2.0,68,114.2
4433,E5,452.5,2.0,68,114.2
