,note_name,start_time,duration,velocity,tempo
0,F4,0.5,3/20,37,100.0
1,F#4,0.625,3/20,37,100.0
2,F4,0.75,3/20,37,100.0
3,G4,0.875,3/20,38,100.0
4,G#4,1.0,3/20,38,100.0
5,A4,1.125,3/20,38,100.0
6,G#4,1.25,3/20,39,100.0
7,B-4,1.375,3/20,39,100.0
8,B4,1.5,3/20,39,100.0
9,C5,1.625,3/20,41,100.0
10,B4,1.75,3/20,41,100.0
11,C#5,1.875,0.125,41,100.0
12,D5,2.0,3/20,42,100.0
13,C#5,2.0,1/40,41,100.0
14,E-5,2.125,3/20,42,100.0
15,D5,2.25,3/20,42,100.0
16,E5,2.375,3/20,43,100.0
17,F5,2.5,3/20,43,100.0
18,F#5,2.625,3/20,43,100.0
19,F5,2.75,3/20,44,100.0
20,F3,2.812,1.188,33,100.0
21,G5,2.875,3/20,44,100.0
22,B3,2.875,1.125,37,100.0
23,D4,2.938,1.062,41,100.0
24,G#5,3.0,3/20,44,100.0
25,G#4,3.0,1.0,51,100.0
26,A5,3.125,3/20,45,100.0
27,G#5,3.25,3/20,45,100.0
28,B-5,3.375,3/20,45,100.0
29,B5,3.5,3/20,45,100.0
30,C6,3.625,3/20,45,100.0
31,B5,3.75,3/20,45,100.0
32,D6,3.875,0.125,46,100.0
33,C4,3.938,0.062,29,100.0
34,C6,4.0,3/20,46,100.0
35,D6,4.0,1/40,46,100.0
36,E-4,4.0,1.5,41,100.0
37,F3,4.0,2.0,33,100.0
38,G#4,4.0,0.5,51,100.0
39,C4,4.0,1.438,29,100.0
40,C#6,4.125,3/20,46,100.0
41,C6,4.25,3/20,48,100.0
42,D6,4.375,3/20,48,100.0
43,E-6,4.5,3/20,48,100.0
44,G4,4.5,0.5,44,100.0
45,F6,4.625,3/20,49,100.0
46,E-6,4.75,3/20,49,100.0
47,F#6,4.875,3/20,49,100.0
48,G6,5.0,3/20,50,100.0
49,E-4,5.0,1.0,48,100.0
50,G#6,5.125,3/20,50,100.0
51,G6,5.25,3/20,50,100.0
52,B6,5.375,3/20,51,100.0
53,C7,5.5,3/20,51,100.0
54,C4,5.5,0.5,44,100.0
55,C#7,5.625,3/20,51,100.0
56,C7,5.75,3/20,52,100.0
57,D7,5.875,0.125,52,100.0
58,E-7,6.0,0.125,54,100.0
59,D7,6.0,1/40,52,100.0
60,D7,6.125,0.125,54,100.0
61,E-7,6.25,0.125,53,100.0
62,C#7,6.375,0.125,53,100.0
63,C7,6.5,0.125,52,100.0
64,B6,6.625,0.125,52,100.0
65,C7,6.75,0.125,51,100.0
66,B-6,6.875,0.125,51,100.0
67,A6,7.0,0.125,50,100.0
68,G#6,7.125,0.125,50,100.0
69,A6,7.25,0.125,49,100.0
70,G6,7.375,0.125,49,100.0
71,F#6,7.5,0.125,48,100.0
72,F6,7.625,0.125,48,100.0
73,F#6,7.75,0.125,46,100.0
74,E6,7.875,0.125,45,100.0
75,E-6,8.0,0.125,44,100.0
76,D6,8.125,0.125,44,100.0
77,E-6,8.25,0.125,44,100.0
78,C#6,8.375,0.125,43,100.0
79,C6,8.5,0.125,43,100.0
80,B5,8.625,0.125,43,100.0
81,C6,8.75,0.125,42,100.0
82,F3,8.75,1.25,31,100.0
83,A3,8.812,1.0,33,100.0
84,B-5,8.875,0.125,42,100.0
85,C4,8.875,0.938,36,100.0
86,E-4,8.938,0.875,38,100.0
87,A5,9.0,0.125,41,100.0
88,F#4,9.0,1.0,41,100.0
89,G#5,9.125,0.125,41,100.0
90,A5,9.25,0.125,41,100.0
91,G5,9.375,0.125,39,100.0
92,F#5,9.5,0.125,39,100.0
93,F5,9.625,0.125,38,100.0
94,F#5,9.75,0.125,38,100.0
95,E-5,9.875,0.125,37,100.0
96,B-3,9.938,0.062,32,100.0
97,D5,10.0,0.125,37,100.0
98,D4,10.0,1.0,43,100.0
99,F3,10.0,1.812,31,100.0
100,B-3,10.0,1.812,32,100.0
101,F#4,10.0,1.0,41,100.0
102,C#5,10.125,0.125,37,100.0
103,D5,10.25,0.125,36,100.0
104,C5,10.375,0.125,36,100.0
105,B-4,10.5,0.125,36,100.0
106,F4,10.5,0.5,31,100.0
107,A4,10.625,0.125,36,100.0
108,B-4,10.75,0.125,36,100.0
109,G#4,10.875,0.125,35,100.0
110,G4,11.0,0.125,35,100.0
111,C#4,11.0,0.5,41,100.0
112,F#4,11.125,0.125,33,100.0
113,G4,11.25,0.125,33,100.0
114,F4,11.375,0.125,33,100.0
115,C#5,11.5,0.125,32,100.0
116,B-3,11.5,0.312,30,100.0
117,B-4,11.625,0.125,32,100.0
118,G4,11.75,0.125,31,100.0
119,F3,11.812,0.188,30,100.0
120,F4,11.875,0.125,31,100.0
121,G3,11.875,0.125,30,100.0
122,B-3,11.938,0.062,30,100.0
123,E4,12.0,0.5,38,100.0
124,C#4,12.0,0.5,30,100.0
125,F3,12.0,0.5,30,100.0
126,G3,12.0,0.5,30,100.0
127,B-3,12.0,0.5,30,100.0
128,C#7,13.0,0.125,43,100.0
129,E6,13.0,0.125,30,100.0
130,G6,13.0,0.125,30,100.0
131,B-6,13.125,0.125,43,100.0
132,F#6,13.25,0.125,42,100.0
133,A5,13.25,0.125,26,100.0
134,C6,13.25,0.125,26,100.0
135,E-6,13.375,0.125,41,100.0
136,G6,13.5,0.125,41,100.0
137,C#6,13.5,0.125,26,100.0
138,B-5,13.5,0.125,26,100.0
139,E6,13.625,0.125,39,100.0
140,C6,13.75,0.125,39,100.0
141,E-5,13.75,0.125,26,100.0
142,F#5,13.75,0.125,26,100.0
143,A5,13.875,0.125,38,100.0
144,C#6,14.0,0.125,37,100.0
145,E5,14.0,0.125,30,100.0
146,G5,14.0,0.125,30,100.0
147,B-5,14.125,0.125,36,100.0
148,F#5,14.25,0.125,36,100.0
149,C5,14.25,0.125,26,100.0
150,A4,14.25,0.125,26,100.0
151,E-5,14.375,0.125,36,100.0
152,G5,14.5,0.125,35,100.0
153,C#5,14.5,0.125,26,100.0
154,B-4,14.5,0.125,26,100.0
155,E5,14.625,0.125,35,100.0
156,C5,14.75,0.125,33,100.0
157,E-4,14.75,0.125,26,100.0
158,F#4,14.75,0.125,26,100.0
159,A4,14.875,0.125,32,100.0
160,C#5,15.0,0.125,32,100.0
161,E4,15.0,0.125,30,100.0
162,G4,15.0,0.125,30,100.0
163,B-4,15.125,0.125,31,100.0
164,F#4,15.25,0.125,31,100.0
165,A3,15.25,0.125,27,100.0
166,C4,15.25,0.125,27,100.0
167,E4,15.375,0.125,30,100.0
168,E4,15.5,0.25,30,100.0
169,G4,15.5,0.25,30,100.0
170,B-3,15.5,0.25,30,100.0
171,C#4,15.5,0.25,30,100.0
172,F2,16.0,0.125,36,100.0
173,C#6,16.25,0.125,35,100.0
174,E5,16.25,0.125,35,100.0
175,C#5,16.25,0.125,35,100.0
176,F3,16.25,0.125,19,100.0
177,G4,16.25,0.125,19,100.0
178,B-3,16.25,0.125,19,100.0
179,C#4,16.25,0.125,19,100.0
180,C6,16.5,0.125,30,100.0
181,C#5,16.5,0.125,30,100.0
182,E5,16.5,0.125,30,100.0
183,B-3,16.5,0.125,19,100.0
184,C#4,16.5,0.125,19,100.0
185,F3,16.5,0.125,19,100.0
186,G4,16.5,0.125,19,100.0
187,B5,16.75,0.125,33,100.0
188,E5,16.75,0.125,33,100.0
189,C#5,16.75,0.125,33,100.0
190,G4,16.75,0.125,19,100.0
191,F3,16.75,0.125,19,100.0
192,B-3,16.75,0.125,19,100.0
193,C#4,16.75,0.125,19,100.0
194,C#5,17.0,0.125,30,100.0
195,B-5,17.0,0.125,30,100.0
196,E5,17.0,0.125,30,100.0
197,G4,17.0,0.125,21,100.0
198,F3,17.0,0.125,21,100.0
199,C#4,17.0,0.125,21,100.0
200,B-3,17.0,0.125,21,100.0
201,E5,17.25,0.125,34,100.0
202,C#5,17.25,0.125,34,100.0
203,C#6,17.25,0.125,34,100.0
204,G4,17.25,0.125,23,100.0
205,C#4,17.25,0.125,23,100.0
206,B-3,17.25,0.125,23,100.0
207,F3,17.25,0.125,23,100.0
208,C6,17.5,0.125,42,100.0
209,C#5,17.5,0.25,35,100.0
210,E5,17.5,0.25,35,100.0
211,G4,17.5,0.5,19,100.0
212,F3,17.5,0.5,19,100.0
213,C#4,17.5,0.5,19,100.0
214,B-3,17.5,0.5,19,100.0
215,B5,17.625,0.125,41,100.0
216,B-5,17.75,0.125,39,100.0
217,E-7,18.5,0.125,43,100.0
218,A6,18.5,0.125,30,100.0
219,F#6,18.5,0.125,30,100.0
220,C7,18.625,0.125,43,100.0
221,G#6,18.75,0.125,42,100.0
222,B5,18.75,0.125,26,100.0
223,D6,18.75,0.125,26,100.0
224,F6,18.875,0.125,41,100.0
225,A6,19.0,0.125,41,100.0
226,C6,19.0,0.125,26,100.0
227,E-6,19.0,0.125,26,100.0
228,F#6,19.125,0.125,39,100.0
229,D6,19.25,0.125,39,100.0
230,G#5,19.25,0.125,26,100.0
231,F5,19.25,0.125,26,100.0
232,B5,19.375,0.125,38,100.0
233,E-6,19.5,0.125,37,100.0
234,F#5,19.5,0.125,30,100.0
235,A5,19.5,0.125,30,100.0
236,C6,19.625,0.125,36,100.0
237,G#5,19.75,0.125,36,100.0
238,D5,19.75,0.125,26,100.0
239,B4,19.75,0.125,26,100.0
240,F5,19.875,0.125,36,100.0
241,A5,20.0,0.125,35,100.0
242,C5,20.0,0.125,26,100.0
243,E-5,20.0,0.125,26,100.0
244,F#5,20.125,0.125,35,100.0
245,D5,20.25,0.125,33,100.0
246,F4,20.25,0.125,26,100.0
247,G#4,20.25,0.125,26,100.0
248,B4,20.375,0.125,32,100.0
249,E-5,20.5,0.125,32,100.0
250,A4,20.5,0.125,30,100.0
251,F#4,20.5,0.125,30,100.0
252,C5,20.625,0.125,31,100.0
253,G#4,20.75,0.125,31,100.0
254,D4,20.75,0.125,27,100.0
255,B3,20.75,0.125,27,100.0
256,F4,20.875,0.125,30,100.0
257,F#4,21.0,0.25,30,100.0
258,A4,21.0,0.25,30,100.0
259,C4,21.0,0.25,30,100.0
260,E-4,21.0,0.25,30,100.0
261,F2,22.0,0.125,39,100.0
262,F#6,22.25,0.125,41,100.0
263,A5,22.25,0.125,41,100.0
264,F#5,22.25,0.125,41,100.0
265,C4,22.25,0.125,24,100.0
266,E-4,22.25,0.125,24,100.0
267,A4,22.25,0.125,24,100.0
268,F6,22.5,0.125,36,100.0
269,A5,22.5,0.125,36,100.0
270,F#5,22.5,0.125,36,100.0
271,A4,22.5,0.125,24,100.0
272,C4,22.5,0.125,24,100.0
273,E-4,22.5,0.125,24,100.0
274,F#5,22.75,0.125,40,100.0
275,A5,22.75,0.125,40,100.0
276,E6,22.75,0.125,40,100.0
277,E-4,22.75,0.125,24,100.0
278,C4,22.75,0.125,24,100.0
279,A4,22.75,0.125,24,100.0
280,F#5,23.0,0.125,35,100.0
281,E-6,23.0,0.125,35,100.0
282,A5,23.0,0.125,35,100.0
283,A4,23.0,0.125,25,100.0
284,C4,23.0,0.125,25,100.0
285,E-4,23.0,0.125,25,100.0
286,A5,23.25,0.125,40,100.0
287,F#6,23.25,0.125,40,100.0
288,F#5,23.25,0.125,40,100.0
289,A4,23.25,0.125,28,100.0
290,C4,23.25,0.125,28,100.0
291,E-4,23.25,0.125,28,100.0
292,F6,23.5,0.125,50,100.0
293,F#5,23.5,0.25,41,100.0
294,A5,23.5,0.25,41,100.0
295,A4,23.5,0.5,22,100.0
296,C4,23.5,0.5,22,100.0
297,E-4,23.5,0.5,22,100.0
298,E6,23.625,0.125,48,100.0
299,E-6,23.75,0.125,43,100.0
300,E-6,24.25,0.125,33,100.0
301,E-5,24.25,0.125,33,100.0
302,F#5,24.25,0.125,33,100.0
303,C4,24.25,0.125,19,100.0
304,E-4,24.25,0.125,19,100.0
305,A4,24.25,0.125,19,100.0
306,D6,24.5,0.125,29,100.0
307,E-5,24.5,0.125,29,100.0
308,F#5,24.5,0.125,29,100.0
309,A4,24.5,0.125,19,100.0
310,C4,24.5,0.125,19,100.0
311,E-4,24.5,0.125,19,100.0
312,C#6,24.75,0.125,31,100.0
313,E-5,24.75,0.125,31,100.0
314,F#5,24.75,0.125,31,100.0
315,E-4,24.75,0.125,19,100.0
316,C4,24.75,0.125,19,100.0
317,A4,24.75,0.125,19,100.0
318,F#5,25.0,0.125,28,100.0
319,C6,25.0,0.125,28,100.0
320,E-5,25.0,0.125,28,100.0
321,C4,25.0,0.125,20,100.0
322,A4,25.0,0.125,20,100.0
323,E-4,25.0,0.125,20,100.0
324,E-5,25.25,0.125,32,100.0
325,F#5,25.25,0.125,32,100.0
326,E-6,25.25,0.125,32,100.0
327,E-4,25.25,0.125,22,100.0
328,A4,25.25,0.125,22,100.0
329,C4,25.25,0.125,22,100.0
330,D6,25.5,0.125,39,100.0
331,E-5,25.5,0.25,33,100.0
332,F#5,25.5,0.25,33,100.0
333,A4,25.5,0.5,18,100.0
334,E-4,25.5,0.5,18,100.0
335,C4,25.5,0.5,18,100.0
336,C#6,25.625,0.125,38,100.0
337,C6,25.75,0.125,37,100.0
338,C6,26.25,0.125,31,100.0
339,E-5,26.25,0.125,31,100.0
340,C5,26.25,0.125,31,100.0
341,F#4,26.25,0.125,20,100.0
342,E-4,26.25,0.125,20,100.0
343,A4,26.25,0.125,20,100.0
344,B5,26.5,0.125,38,100.0
345,C5,26.5,0.25,32,100.0
346,E-5,26.5,0.25,32,100.0
347,E-4,26.5,0.5,17,100.0
348,F#4,26.5,0.5,17,100.0
349,A4,26.5,0.5,17,100.0
350,B-5,26.625,0.125,37,100.0
351,A5,26.75,0.125,37,100.0
352,E-5,27.25,0.125,30,100.0
353,C5,27.25,0.125,30,100.0
354,A5,27.25,0.125,30,100.0
355,F#4,27.25,0.125,21,100.0
356,A4,27.25,0.125,21,100.0
357,G#5,27.5,0.125,36,100.0
358,E-5,27.5,0.25,30,100.0
359,C5,27.5,0.25,30,100.0
360,F#4,27.5,0.5,16,100.0
361,A4,27.5,0.5,16,100.0
362,G5,27.625,0.125,36,100.0
363,F#5,27.75,0.125,35,100.0
364,F5,28.25,0.125,32,100.0
365,C5,28.25,0.125,32,100.0
366,A4,28.25,0.125,28,100.0
367,E-5,28.25,0.125,28,100.0
368,C5,28.5,0.125,25,100.0
369,E-5,28.5,0.125,27,100.0
370,F#5,28.5,0.125,27,100.0
371,C5,28.75,0.125,32,100.0
372,F5,28.75,0.125,32,100.0
373,A4,28.75,0.125,28,100.0
374,E-5,28.75,0.125,28,100.0
375,C5,29.0,0.125,27,100.0
376,E-5,29.0,0.125,28,100.0
377,G5,29.0,0.125,28,100.0
378,F5,29.25,0.125,32,100.0
379,C5,29.25,0.125,32,100.0
380,A4,29.25,0.125,28,100.0
381,E-5,29.25,0.125,28,100.0
382,C5,29.5,0.125,26,100.0
383,E-5,29.5,0.125,27,100.0
384,F#5,29.5,0.125,27,100.0
385,F5,29.75,0.125,32,100.0
386,C5,29.75,0.125,32,100.0
387,E-5,29.75,0.125,28,100.0
388,A4,29.75,0.125,28,100.0
389,G5,30.0,83/1000,32,100.0
390,F5,30.167,83/1000,36,100.0
391,F#5,30.333,83/1000,30,100.0
392,F5,30.5,83/1000,36,100.0
393,G5,30.667,83/1000,29,100.0
394,F5,30.833,83/1000,36,100.0
395,F#5,31.0,83/1000,32,100.0
396,F5,31.167,83/1000,36,100.0
397,G5,31.333,83/1000,30,100.0
398,F5,31.5,0.125,36,100.0
399,F#5,31.625,0.125,31,100.0
400,F5,31.75,0.125,36,100.0
401,G5,31.875,0.125,31,100.0
402,F5,32.0,0.125,36,100.0
403,F#5,32.125,0.125,31,100.0
404,F5,32.25,0.125,36,100.0
405,G5,32.375,0.125,31,100.0
406,F5,32.5,0.125,36,100.0
407,F#5,32.625,0.125,31,100.0
408,F5,32.75,0.125,36,100.0
409,G5,32.875,0.125,30,100.0
410,F5,33.0,0.125,36,100.0
411,F#5,33.125,0.125,31,100.0
412,F5,33.25,0.125,36,100.0
413,G5,33.375,0.125,31,100.0
414,F5,33.5,0.125,36,100.0
415,F#5,33.625,0.125,31,100.0
416,F5,33.75,0.125,36,100.0
417,G5,33.875,0.125,32,100.0
418,F5,34.0,73/500,36,100.0
419,F#5,34.125,73/500,32,100.0
420,F5,34.25,73/500,36,100.0
421,G5,34.375,0.125,31,100.0
422,F4,34.5,1.0,32,100.0
423,E-4,34.5,0.5,41,100.0
424,F5,34.5,0.125,32,100.0
425,A4,34.5,0.125,32,100.0
426,C5,34.625,0.125,30,100.0
427,F#5,34.625,0.125,30,100.0
428,F5,34.75,0.125,32,100.0
429,A4,34.75,0.125,32,100.0
430,G5,34.875,0.125,28,100.0
431,C5,34.875,0.125,28,100.0
432,D4,35.0,0.5,32,100.0
433,B-4,35.0,0.125,32,100.0
434,F5,35.0,0.125,32,100.0
435,F#5,35.125,0.125,30,100.0
436,D5,35.125,0.125,30,100.0
437,B-4,35.25,0.125,32,100.0
438,F5,35.25,0.125,32,100.0
439,G5,35.375,0.125,28,100.0
440,D5,35.375,0.125,28,100.0
441,C4,35.5,0.5,38,100.0
442,F4,35.5,0.5,30,100.0
443,A4,35.5,0.125,32,100.0
444,F5,35.5,0.125,32,100.0
445,E-5,35.625,0.125,30,100.0
446,F#5,35.625,0.125,30,100.0
447,F5,35.75,0.125,32,100.0
448,A4,35.75,0.125,32,100.0
449,E-5,35.875,0.125,28,100.0
450,G5,35.875,0.125,28,100.0
451,B-3,36.0,0.5,33,100.0
452,F4,36.0,0.5,30,100.0
453,B-4,36.0,0.125,32,100.0
454,F5,36.0,0.125,32,100.0
455,F#5,36.125,0.062,30,100.0
456,D5,36.125,0.062,30,100.0
457,F#5,36.25,0.125,42,100.0
458,B-4,36.25,0.125,42,100.0
459,D5,36.375,0.062,36,100.0
460,G5,36.375,0.062,36,100.0
461,G#5,36.5,0.125,41,100.0
462,D5,36.5,0.125,41,100.0
463,F4,36.5,0.25,27,100.0
464,F3,36.5,0.25,27,100.0
465,D4,36.5,0.25,27,100.0
466,A5,36.625,0.125,35,100.0
467,F5,36.625,0.125,35,100.0
468,D5,36.75,0.125,42,100.0
469,A5,36.75,0.125,42,100.0
470,B-5,36.875,0.062,35,100.0
471,F5,36.875,0.062,35,100.0
472,C5,37.0,0.125,42,100.0
473,B-5,37.0,0.125,42,100.0
474,F3,37.0,0.25,25,100.0
475,E-4,37.0,0.25,25,100.0
476,F4,37.0,0.25,25,100.0
477,A5,37.125,0.062,38,100.0
478,E-5,37.125,0.062,38,100.0
479,C5,37.25,0.125,42,100.0
480,A5,37.25,0.125,42,100.0
481,E-5,37.375,0.062,35,100.0
482,G#5,37.375,0.062,35,100.0
483,F4,37.5,0.5,26,100.0
484,C5,37.5,0.125,40,100.0
485,G#5,37.5,0.125,40,100.0
486,E-4,37.5,0.25,30,100.0
487,A3,37.5,0.25,30,100.0
488,E-5,37.625,0.062,34,100.0
489,G5,37.625,0.062,34,100.0
490,G5,37.75,0.125,38,100.0
491,C5,37.75,0.125,38,100.0
492,E-5,37.875,0.062,32,100.0
493,F#5,37.875,0.062,32,100.0
494,F4,38.0,0.25,26,100.0
495,F5,38.0,69/500,32,100.0
496,B-4,38.0,69/500,32,100.0
497,B-3,38.0,0.25,26,100.0
498,D4,38.0,0.25,26,100.0
499,F#5,38.125,69/500,30,100.0
500,D5,38.125,69/500,30,100.0
501,F5,38.25,69/500,32,100.0
502,B-4,38.25,69/500,32,100.0
503,D5,38.375,0.125,28,100.0
504,G5,38.375,0.125,28,100.0
505,F4,38.5,1.0,32,100.0
506,E-4,38.5,0.5,41,100.0
507,F5,38.5,0.125,32,100.0
508,A4,38.5,0.125,32,100.0
509,C5,38.625,0.125,30,100.0
510,F#5,38.625,0.125,30,100.0
511,F5,38.75,0.125,32,100.0
512,A4,38.75,0.125,32,100.0
513,G5,38.875,0.125,28,100.0
514,C5,38.875,0.125,28,100.0
515,D4,39.0,0.5,32,100.0
516,B-4,39.0,0.125,32,100.0
517,F5,39.0,0.125,32,100.0
518,D5,39.125,0.125,30,100.0
519,F#5,39.125,0.125,30,100.0
520,F5,39.25,0.125,32,100.0
521,B-4,39.25,0.125,32,100.0
522,D5,39.375,0.125,28,100.0
523,G5,39.375,0.125,28,100.0
524,F4,39.5,0.5,30,100.0
525,C4,39.5,0.5,38,100.0
526,A4,39.5,0.125,32,100.0
527,F5,39.5,0.125,32,100.0
528,F#5,39.625,0.125,30,100.0
529,E-5,39.625,0.125,30,100.0
530,F5,39.75,0.125,32,100.0
531,A4,39.75,0.125,32,100.0
532,E-5,39.875,0.125,28,100.0
533,G5,39.875,0.125,28,100.0
534,B-3,40.0,0.5,33,100.0
535,F4,40.0,0.5,30,100.0
536,F5,40.0,0.125,32,100.0
537,B-4,40.0,0.125,32,100.0
538,F#5,40.125,0.062,30,100.0
539,D5,40.125,0.062,30,100.0
540,F#5,40.25,0.125,42,100.0
541,B-4,40.25,0.125,42,100.0
542,D5,40.375,0.062,36,100.0
543,G5,40.375,0.062,36,100.0
544,D5,40.5,0.125,41,100.0
545,G#5,40.5,0.125,41,100.0
546,F3,40.5,0.25,27,100.0
547,D4,40.5,0.25,27,100.0
548,F4,40.5,0.25,27,100.0
549,A5,40.625,0.062,35,100.0
550,F5,40.625,0.062,35,100.0
551,A5,40.75,0.125,42,100.0
552,D5,40.75,0.125,42,100.0
553,B-5,40.875,0.062,35,100.0
554,F5,40.875,0.062,35,100.0
555,B-5,41.0,0.125,42,100.0
556,C5,41.0,0.125,42,100.0
557,E-4,41.0,0.25,25,100.0
558,F4,41.0,0.25,25,100.0
559,F3,41.0,0.25,25,100.0
560,E-5,41.125,0.062,38,100.0
561,A5,41.125,0.062,38,100.0
562,A5,41.25,0.125,42,100.0
563,C5,41.25,0.125,42,100.0
564,E-5,41.375,0.062,35,100.0
565,G#5,41.375,0.062,35,100.0
566,F4,41.5,0.5,26,100.0
567,G#5,41.5,0.125,40,100.0
568,C5,41.5,0.125,40,100.0
569,E-4,41.5,0.25,30,100.0
570,A3,41.5,0.25,30,100.0
571,G5,41.625,0.062,34,100.0
572,E-5,41.625,0.062,34,100.0
573,G5,41.75,0.125,38,100.0
574,C5,41.75,0.125,38,100.0
575,F#5,41.875,0.062,32,100.0
576,E-5,41.875,0.062,32,100.0
577,F4,42.0,0.25,26,100.0
578,F5,42.0,0.125,32,100.0
579,D5,42.0,0.125,32,100.0
580,D4,42.0,0.5,26,100.0
581,B-3,42.0,0.5,26,100.0
582,F#5,42.125,0.125,30,100.0
583,B-4,42.125,0.125,30,100.0
584,D5,42.25,0.125,32,100.0
585,F5,42.25,0.125,32,100.0
586,A5,42.375,0.125,36,100.0
587,G#4,42.5,0.5,41,100.0
588,B-4,42.5,1.0,32,100.0
589,B-5,42.5,0.125,32,100.0
590,D5,42.5,0.125,32,100.0
591,F5,42.625,0.125,30,100.0
592,B5,42.625,0.125,30,100.0
593,B-5,42.75,0.125,32,100.0
594,D5,42.75,0.125,32,100.0
595,B5,42.875,0.125,28,100.0
596,F5,42.875,0.125,28,100.0
597,F#4,43.0,0.5,32,100.0
598,B-5,43.0,0.125,32,100.0
599,E-5,43.0,0.125,32,100.0
600,B5,43.125,0.125,30,100.0
601,F#5,43.125,0.125,30,100.0
602,B-5,43.25,0.125,32,100.0
603,E-5,43.25,0.125,32,100.0
604,B5,43.375,0.125,28,100.0
605,F#5,43.375,0.125,28,100.0
606,F4,43.5,0.5,38,100.0
607,B-4,43.5,0.5,30,100.0
608,B-5,43.5,0.125,32,100.0
609,D5,43.5,0.125,32,100.0
610,B5,43.625,0.125,30,100.0
611,G#5,43.625,0.125,30,100.0
612,D5,43.75,0.125,32,100.0
613,B-5,43.75,0.125,32,100.0
614,B5,43.875,0.125,28,100.0
615,G#5,43.875,0.125,28,100.0
616,E-4,44.0,0.5,33,100.0
617,B-4,44.0,0.5,30,100.0
618,B-5,44.0,0.125,32,100.0
619,E-5,44.0,0.125,32,100.0
620,F#5,44.125,0.062,30,100.0
621,B5,44.125,0.062,30,100.0
622,B5,44.25,0.125,42,100.0
623,E-5,44.25,0.125,42,100.0
624,F#5,44.375,0.062,36,100.0
625,C6,44.375,0.062,36,100.0
626,F#5,44.5,0.125,41,100.0
627,C#6,44.5,0.125,41,100.0
628,B-4,44.5,0.25,27,100.0
629,B-3,44.5,0.25,27,100.0
630,F#4,44.5,0.25,27,100.0
631,B-5,44.625,0.125,35,100.0
632,D6,44.625,0.125,35,100.0
633,D6,44.75,0.125,42,100.0
634,F#5,44.75,0.125,42,100.0
635,E-6,44.875,0.062,35,100.0
636,B-5,44.875,0.062,35,100.0
637,E-6,45.0,0.125,42,100.0
638,F5,45.0,0.125,42,100.0
639,G#4,45.0,0.25,25,100.0
640,B-4,45.0,0.25,25,100.0
641,B-3,45.0,0.25,25,100.0
642,D6,45.125,0.062,38,100.0
643,G#5,45.125,0.062,38,100.0
644,D6,45.25,0.125,42,100.0
645,F5,45.25,0.125,42,100.0
646,G#5,45.375,0.062,35,100.0
647,C#6,45.375,0.062,35,100.0
648,B-4,45.5,0.5,26,100.0
649,F5,45.5,0.125,40,100.0
650,C#6,45.5,0.125,40,100.0
651,D4,45.5,0.25,30,100.0
652,G#4,45.5,0.25,30,100.0
653,G#5,45.625,0.062,34,100.0
654,C6,45.625,0.062,34,100.0
655,C6,45.75,0.125,38,100.0
656,F5,45.75,0.125,38,100.0
657,B5,45.875,0.062,32,100.0
658,G#5,45.875,0.062,32,100.0
659,B-4,46.0,0.25,26,100.0
660,F#5,46.0,0.125,32,100.0
661,B-5,46.0,0.125,32,100.0
662,F#4,46.0,0.25,26,100.0
663,E-4,46.0,0.25,26,100.0
664,B5,46.125,0.125,30,100.0
665,E-5,46.125,0.125,30,100.0
666,B-5,46.25,0.125,32,100.0
667,F#5,46.25,0.125,32,100.0
668,B5,46.375,0.125,28,100.0
669,E-5,46.375,0.125,28,100.0
670,B-4,46.5,1.0,32,100.0
671,G#4,46.5,0.5,41,100.0
672,D5,46.5,0.125,32,100.0
673,B-5,46.5,0.125,32,100.0
674,B5,46.625,0.125,30,100.0
675,F5,46.625,0.125,30,100.0
676,D5,46.75,0.125,32,100.0
677,B-5,46.75,0.125,32,100.0
678,F5,46.875,0.125,28,100.0
679,B5,46.875,0.125,28,100.0
680,F#4,47.0,0.5,32,100.0
681,E-5,47.0,0.125,32,100.0
682,B-5,47.0,0.125,32,100.0
683,F#5,47.125,0.125,30,100.0
684,B5,47.125,0.125,30,100.0
685,E-5,47.25,0.125,32,100.0
686,B-5,47.25,0.125,32,100.0
687,B5,47.375,0.125,28,100.0
688,F#5,47.375,0.125,28,100.0
689,F4,47.5,0.5,38,100.0
690,B-4,47.5,0.5,30,100.0
691,B-5,47.5,0.125,32,100.0
692,D5,47.5,0.125,32,100.0
693,B5,47.625,0.125,30,100.0
694,G#5,47.625,0.125,30,100.0
695,D5,47.75,0.125,32,100.0
696,B-5,47.75,0.125,32,100.0
697,G#5,47.875,0.125,28,100.0
698,B5,47.875,0.125,28,100.0
699,E-4,48.0,0.5,33,100.0
700,B-4,48.0,0.5,30,100.0
701,B-5,48.0,0.125,32,100.0
702,E-5,48.0,0.125,32,100.0
703,F#5,48.125,0.062,30,100.0
704,B5,48.125,0.062,30,100.0
705,B5,48.25,0.125,42,100.0
706,E-5,48.25,0.125,42,100.0
707,C6,48.375,0.062,36,100.0
708,F#5,48.375,0.062,36,100.0
709,F#5,48.5,0.125,41,100.0
710,C#6,48.5,0.125,41,100.0
711,B-3,48.5,0.25,27,100.0
712,B-4,48.5,0.25,27,100.0
713,F#4,48.5,0.25,27,100.0
714,B-5,48.625,0.125,35,100.0
715,D6,48.625,0.125,35,100.0
716,D6,48.75,0.125,42,100.0
717,F#5,48.75,0.125,42,100.0
718,E-6,48.875,0.062,35,100.0
719,B-5,48.875,0.062,35,100.0
720,E-6,49.0,0.125,42,100.0
721,F5,49.0,0.125,42,100.0
722,G#4,49.0,0.25,25,100.0
723,B-4,49.0,0.25,25,100.0
724,B-3,49.0,0.25,25,100.0
725,G#5,49.125,0.062,38,100.0
726,D6,49.125,0.062,38,100.0
727,D6,49.25,0.125,42,100.0
728,F5,49.25,0.125,42,100.0
729,C#6,49.375,0.062,35,100.0
730,G#5,49.375,0.062,35,100.0
731,B-4,49.5,0.5,26,100.0
732,F5,49.5,0.125,40,100.0
733,C#6,49.5,0.125,40,100.0
734,G#4,49.5,0.25,30,100.0
735,D4,49.5,0.25,30,100.0
736,C6,49.625,0.062,34,100.0
737,G#5,49.625,0.062,34,100.0
738,F5,49.75,0.125,38,100.0
739,C6,49.75,0.125,38,100.0
740,G#5,49.875,0.062,32,100.0
741,B5,49.875,0.062,32,100.0
742,B-4,50.0,0.25,26,100.0
743,F#5,50.0,0.125,32,100.0
744,B-5,50.0,0.125,32,100.0
745,E-4,50.0,0.25,26,100.0
746,F#4,50.0,0.25,26,100.0
747,E-5,50.125,0.125,30,100.0
748,B5,50.125,0.125,30,100.0
749,F#5,50.25,0.125,32,100.0
750,B-5,50.25,0.125,32,100.0
751,E-6,50.375,0.125,33,100.0
752,F#5,50.5,0.125,37,100.0
753,F#6,50.5,0.25,45,100.0
754,C#4,50.5,0.5,33,100.0
755,B-2,50.5,0.5,33,100.0
756,C#6,50.625,0.125,32,100.0
757,E-6,50.625,0.125,32,100.0
758,F#6,50.75,0.125,34,100.0
759,F#5,50.75,0.125,34,100.0
760,E6,50.875,0.125,32,100.0
761,C#6,50.875,0.125,32,100.0
762,F#5,51.0,0.125,39,100.0
763,E6,51.0,0.25,48,100.0
764,B2,51.0,0.25,26,100.0
765,E-4,51.0,0.25,26,100.0
766,D6,51.125,0.125,32,100.0
767,B5,51.125,0.125,32,100.0
768,E6,51.25,0.125,34,100.0
769,F#5,51.25,0.125,34,100.0
770,B5,51.375,0.125,32,100.0
771,E-6,51.375,0.125,32,100.0
772,E-6,51.5,0.25,45,100.0
773,E5,51.5,0.125,45,100.0
774,E4,51.5,0.5,32,100.0
775,C#3,51.5,0.5,32,100.0
776,C6,51.625,0.125,30,100.0
777,B-5,51.625,0.125,30,100.0
778,E-6,51.75,0.125,34,100.0
779,E5,51.75,0.125,34,100.0
780,B-5,51.875,0.125,35,100.0
781,C#6,51.875,0.125,35,100.0
782,C#6,52.0,0.25,45,100.0
783,E-5,52.0,0.125,37,100.0
784,F#4,52.0,0.25,22,100.0
785,E-3,52.0,0.25,22,100.0
786,B-5,52.125,0.125,30,100.0
787,F#5,52.125,0.125,30,100.0
788,C#6,52.25,0.125,34,100.0
789,E-5,52.25,0.125,34,100.0
790,F#5,52.375,0.094,35,100.0
791,B5,52.375,0.094,35,100.0
792,C#5,52.5,0.125,35,100.0
793,C6,52.5,0.25,42,100.0
794,G4,52.5,0.5,28,100.0
795,E3,52.5,0.5,28,100.0
796,A5,52.625,0.125,33,100.0
797,G5,52.625,0.125,33,100.0
798,C6,52.75,0.125,32,100.0
799,C#5,52.75,0.125,32,100.0
800,G5,52.875,0.094,32,100.0
801,B-5,52.875,0.094,32,100.0
802,C5,53.0,0.125,35,100.0
803,B-5,53.0,0.25,41,100.0
804,A4,53.0,0.25,23,100.0
805,F3,53.0,0.25,23,100.0
806,F5,53.125,0.125,30,100.0
807,G#5,53.125,0.125,30,100.0
808,C5,53.25,0.125,32,100.0
809,B-5,53.25,0.125,32,100.0
810,F5,53.375,0.094,28,100.0
811,A5,53.375,0.094,28,100.0
812,A5,53.5,0.25,41,100.0
813,B-4,53.5,0.125,35,100.0
814,E4,53.5,0.25,27,100.0
815,G3,53.5,0.5,22,100.0
816,F#5,53.625,0.125,28,100.0
817,E5,53.625,0.125,28,100.0
818,C#4,53.75,0.25,23,100.0
819,A5,53.75,0.125,32,100.0
820,B-4,53.75,0.125,32,100.0
821,G5,53.875,0.094,28,100.0
822,E5,53.875,0.094,28,100.0
823,A4,54.0,0.125,32,100.0
824,G5,54.0,0.25,38,100.0
825,A3,54.0,0.5,24,100.0
826,F4,54.0,0.125,29,100.0
827,E5,54.125,0.125,26,100.0
828,C5,54.125,0.125,26,100.0
829,C4,54.25,0.125,25,100.0
830,G5,54.25,0.125,32,100.0
831,A4,54.25,0.125,32,100.0
832,C5,54.375,0.094,28,100.0
833,F5,54.375,0.094,28,100.0
834,C#5,54.5,0.25,28,100.0
835,F5,54.5,0.125,33,100.0
836,G4,54.5,0.125,29,100.0
837,B-3,54.5,0.5,29,100.0
838,E-5,54.625,0.125,28,100.0
839,F5,54.75,0.125,33,100.0
840,B-4,54.75,0.25,28,100.0
841,C#4,54.75,0.125,24,100.0
842,E5,54.875,0.125,28,100.0
843,G5,55.0,0.125,31,100.0
844,E-5,55.0,0.25,26,100.0
845,C4,55.0,0.5,24,100.0
846,A4,55.0,0.125,29,100.0
847,E5,55.125,0.125,27,100.0
848,G5,55.25,0.125,32,100.0
849,C5,55.25,0.25,27,100.0
850,E-4,55.25,0.125,24,100.0
851,F5,55.375,0.125,25,100.0
852,B-4,55.5,0.125,28,100.0
853,F5,55.5,0.125,28,100.0
854,G4,55.5,0.125,26,100.0
855,C#4,55.5,0.125,26,100.0
856,E-5,55.625,0.125,26,100.0
857,F5,55.75,0.125,31,100.0
858,E5,55.875,0.125,26,100.0
859,G5,56.0,0.125,30,100.0
860,C5,56.0,0.125,30,100.0
861,A4,56.0,0.125,26,100.0
862,E-4,56.0,0.125,26,100.0
863,E-5,56.125,0.125,28,100.0
864,G5,56.25,0.125,31,100.0
865,F#5,56.375,0.125,28,100.0
866,F5,56.5,0.125,36,100.0
867,F#5,56.625,0.125,31,100.0
868,F5,56.75,0.125,36,100.0
869,G5,56.875,0.125,30,100.0
870,F5,57.0,0.125,36,100.0
871,F#5,57.125,0.125,31,100.0
872,F5,57.25,0.125,36,100.0
873,G5,57.375,0.125,31,100.0
874,F5,57.5,0.125,36,100.0
875,F#5,57.625,0.125,31,100.0
876,F5,57.75,0.125,36,100.0
877,G5,57.875,0.125,32,100.0
878,F5,58.0,0.125,36,100.0
879,F#5,58.125,0.125,32,100.0
880,F5,58.25,0.125,36,100.0
881,G5,58.375,0.125,31,100.0
882,E-3,58.5,0.125,41,100.0
883,A4,58.5,0.125,32,100.0
884,F5,58.5,0.125,32,100.0
885,F#5,58.625,0.125,30,100.0
886,C5,58.625,0.125,30,100.0
887,G4,58.688,0.062,36,100.0
888,F4,58.75,0.062,41,100.0
889,A4,58.75,0.125,32,100.0
890,F5,58.75,0.125,32,100.0
891,C5,58.875,0.125,28,100.0
892,G5,58.875,0.125,28,100.0
893,D3,59.0,0.125,41,100.0
894,B-4,59.0,0.125,32,100.0
895,F5,59.0,0.125,32,100.0
896,D5,59.125,0.125,30,100.0
897,F#5,59.125,0.125,30,100.0
898,F#4,59.188,0.062,36,100.0
899,F4,59.25,0.062,41,100.0
900,B-4,59.25,0.125,32,100.0
901,F5,59.25,0.125,32,100.0
902,D5,59.375,0.125,28,100.0
903,G5,59.375,0.125,28,100.0
904,C3,59.5,0.125,41,100.0
905,A4,59.5,0.125,32,100.0
906,F5,59.5,0.125,32,100.0
907,F#5,59.625,0.125,30,100.0
908,C5,59.625,0.125,30,100.0
909,G4,59.688,0.062,36,100.0
910,F4,59.75,0.062,41,100.0
911,F5,59.75,0.125,32,100.0
912,A4,59.75,0.125,32,100.0
913,C5,59.875,0.125,28,100.0
914,G5,59.875,0.125,28,100.0
915,B-2,60.0,0.125,41,100.0
916,F5,60.0,0.125,32,100.0
917,B-4,60.0,0.125,32,100.0
918,F#5,60.125,0.062,30,100.0
919,D5,60.125,0.062,30,100.0
920,F#4,60.188,0.062,35,100.0
921,F4,60.25,0.062,41,100.0
922,B-4,60.25,0.125,42,100.0
923,F#5,60.25,0.125,42,100.0
924,D5,60.375,0.062,36,100.0
925,G5,60.375,0.062,36,100.0
926,F2,60.5,0.125,44,100.0
927,G#5,60.5,0.125,45,100.0
928,D5,60.5,0.125,45,100.0
929,A5,60.625,0.125,38,100.0
930,F5,60.625,0.125,38,100.0
931,G4,60.688,0.062,39,100.0
932,F4,60.75,0.062,45,100.0
933,A5,60.75,0.125,45,100.0
934,D5,60.75,0.125,45,100.0
935,B-5,60.875,0.062,38,100.0
936,F5,60.875,0.062,38,100.0
937,F2,61.0,0.125,46,100.0
938,C5,61.0,0.125,46,100.0
939,B-5,61.0,0.125,46,100.0
940,A5,61.125,0.062,41,100.0
941,E-5,61.125,0.062,41,100.0
942,F#4,61.188,0.062,39,100.0
943,F4,61.25,0.062,45,100.0
944,A5,61.25,0.125,45,100.0
945,C5,61.25,0.125,45,100.0
946,E-5,61.375,0.062,38,100.0
947,G#5,61.375,0.062,38,100.0
948,A2,61.5,0.125,45,100.0
949,G#5,61.5,0.125,43,100.0
950,C5,61.5,0.125,43,100.0
951,G5,61.625,0.062,37,100.0
952,E-5,61.625,0.062,37,100.0
953,G4,61.688,0.062,36,100.0
954,F4,61.75,0.062,41,100.0
955,G5,61.75,0.125,42,100.0
956,C5,61.75,0.125,42,100.0
957,F#5,61.875,0.062,36,100.0
958,E-5,61.875,0.062,36,100.0
959,B-2,62.0,0.125,41,100.0
960,D5,62.0,0.125,32,100.0
961,F5,62.0,0.125,32,100.0
962,B-4,62.125,0.125,30,100.0
963,F#5,62.125,0.125,30,100.0
964,F#4,62.188,0.062,36,100.0
965,F4,62.25,0.062,41,100.0
966,D5,62.25,0.125,32,100.0
967,F5,62.25,0.125,32,100.0
968,G5,62.375,0.125,28,100.0
969,B-4,62.375,0.125,28,100.0
970,E-3,62.5,0.125,41,100.0
971,A4,62.5,0.125,32,100.0
972,F5,62.5,0.125,32,100.0
973,C5,62.625,0.125,30,100.0
974,F#5,62.625,0.125,30,100.0
975,G4,62.688,0.062,36,100.0
976,F4,62.75,0.062,41,100.0
977,F5,62.75,0.125,32,100.0
978,A4,62.75,0.125,32,100.0
979,C5,62.875,0.125,28,100.0
980,G5,62.875,0.125,28,100.0
981,D3,63.0,0.125,41,100.0
982,F5,63.0,0.125,32,100.0
983,B-4,63.0,0.125,32,100.0
984,D5,63.125,0.125,30,100.0
985,F#5,63.125,0.125,30,100.0
986,F#4,63.188,0.062,36,100.0
987,F4,63.25,0.062,41,100.0
988,F5,63.25,0.125,32,100.0
989,B-4,63.25,0.125,32,100.0
990,D5,63.375,0.125,28,100.0
991,G5,63.375,0.125,28,100.0
992,C3,63.5,0.125,41,100.0
993,F5,63.5,0.125,32,100.0
994,A4,63.5,0.125,32,100.0
995,F#5,63.625,0.125,30,100.0
996,E-5,63.625,0.125,30,100.0
997,G4,63.688,0.062,36,100.0
998,F4,63.75,0.062,41,100.0
999,A4,63.75,0.125,32,100.0
1000,F5,63.75,0.125,32,100.0
1001,E-5,63.875,0.125,28,100.0
1002,G5,63.875,0.125,28,100.0
1003,B-2,64.0,0.125,41,100.0
1004,B-4,64.0,0.125,32,100.0
1005,F5,64.0,0.125,32,100.0
1006,D5,64.125,0.062,30,100.0
1007,F#5,64.125,0.062,30,100.0
1008,F#4,64.188,0.062,35,100.0
1009,F4,64.25,0.062,41,100.0
1010,F#5,64.25,0.125,42,100.0
1011,B-4,64.25,0.125,42,100.0
1012,D5,64.375,0.062,36,100.0
1013,G5,64.375,0.062,36,100.0
1014,F2,64.5,0.125,44,100.0
1015,D5,64.5,0.125,45,100.0
1016,G#5,64.5,0.125,45,100.0
1017,A5,64.625,0.125,38,100.0
1018,F5,64.625,0.125,38,100.0
1019,G4,64.688,0.062,39,100.0
1020,F4,64.75,0.062,45,100.0
1021,A5,64.75,0.125,45,100.0
1022,D5,64.75,0.125,45,100.0
1023,F5,64.875,0.062,38,100.0
1024,B-5,64.875,0.062,38,100.0
1025,F2,65.0,0.125,46,100.0
1026,C5,65.0,0.125,46,100.0
1027,B-5,65.0,0.125,46,100.0
1028,A5,65.125,0.062,41,100.0
1029,E-5,65.125,0.062,41,100.0
1030,F#4,65.188,0.062,39,100.0
1031,F4,65.25,0.062,45,100.0
1032,C5,65.25,0.125,45,100.0
1033,A5,65.25,0.125,45,100.0
1034,E-5,65.375,0.062,38,100.0
1035,G#5,65.375,0.062,38,100.0
1036,A2,65.5,0.125,45,100.0
1037,G#5,65.5,0.125,43,100.0
1038,C5,65.5,0.125,43,100.0
1039,G5,65.625,0.062,37,100.0
1040,E-5,65.625,0.062,37,100.0
1041,G4,65.688,0.062,36,100.0
1042,F4,65.75,0.062,41,100.0
1043,C5,65.75,0.125,42,100.0
1044,G5,65.75,0.125,42,100.0
1045,E-5,65.875,0.062,37,100.0
1046,F#5,65.875,0.062,37,100.0
1047,B-2,66.0,0.125,46,100.0
1048,D5,66.0,0.125,33,100.0
1049,F5,66.0,0.125,33,100.0
1050,B-4,66.125,0.125,30,100.0
1051,F#5,66.125,0.125,30,100.0
1052,G4,66.188,0.062,42,100.0
1053,F4,66.25,0.062,46,100.0
1054,F5,66.25,0.125,34,100.0
1055,D5,66.25,0.125,34,100.0
1056,A5,66.375,0.125,36,100.0
1057,G#3,66.5,0.125,52,100.0
1058,D5,66.5,0.125,34,100.0
1059,B-5,66.5,0.125,34,100.0
1060,F5,66.625,0.125,30,100.0
1061,B5,66.625,0.125,30,100.0
1062,B4,66.688,0.062,46,100.0
1063,B-4,66.75,0.062,53,100.0
1064,B-5,66.75,0.125,34,100.0
1065,D5,66.75,0.125,34,100.0
1066,F5,66.875,0.125,30,100.0
1067,C6,66.875,0.125,30,100.0
1068,G3,67.0,0.125,54,100.0
1069,B-5,67.0,0.125,34,100.0
1070,E-5,67.0,0.125,34,100.0
1071,B5,67.125,0.125,31,100.0
1072,F#5,67.125,0.125,31,100.0
1073,C5,67.188,0.062,48,100.0
1074,B-4,67.25,0.062,55,100.0
1075,E-5,67.25,0.125,34,100.0
1076,B-5,67.25,0.125,34,100.0
1077,F#5,67.375,0.125,30,100.0
1078,C6,67.375,0.125,30,100.0
1079,D3,67.5,0.125,55,100.0
1080,F5,67.5,0.125,35,100.0
1081,B-5,67.5,0.125,35,100.0
1082,B5,67.625,0.125,32,100.0
1083,G#5,67.625,0.125,32,100.0
1084,B4,67.688,0.062,49,100.0
1085,B-4,67.75,0.062,56,100.0
1086,F5,67.75,0.125,35,100.0
1087,B-5,67.75,0.125,35,100.0
1088,G#5,67.875,0.125,31,100.0
1089,C6,67.875,0.125,31,100.0
1090,E-3,68.0,0.125,56,100.0
1091,E-5,68.0,0.125,36,100.0
1092,B-5,68.0,0.125,36,100.0
1093,G5,68.125,0.062,32,100.0
1094,B5,68.125,0.062,32,100.0
1095,B4,68.188,0.062,49,100.0
1096,B-4,68.25,0.062,57,100.0
1097,E-5,68.25,0.125,47,100.0
1098,B5,68.25,0.125,47,100.0
1099,G5,68.375,0.062,40,100.0
1100,C6,68.375,0.062,40,100.0
1101,B-2,68.5,0.125,59,100.0
1102,G5,68.5,0.125,50,100.0
1103,C#6,68.5,0.125,50,100.0
1104,D6,68.625,0.125,42,100.0
1105,B-5,68.625,0.125,42,100.0
1106,C5,68.688,0.062,51,100.0
1107,B-4,68.75,0.062,60,100.0
1108,D6,68.75,0.125,51,100.0
1109,G5,68.75,0.125,51,100.0
1110,E-6,68.875,0.062,43,100.0
1111,B-5,68.875,0.062,43,100.0
1112,B-2,69.0,0.125,60,100.0
1113,F5,69.0,0.125,52,100.0
1114,E-6,69.0,0.125,52,100.0
1115,G#5,69.125,0.062,47,100.0
1116,D6,69.125,0.062,47,100.0
1117,B4,69.188,0.062,52,100.0
1118,B-4,69.25,0.062,60,100.0
1119,D6,69.25,0.125,51,100.0
1120,F5,69.25,0.125,51,100.0
1121,C#6,69.375,0.062,44,100.0
1122,G#5,69.375,0.062,44,100.0
1123,D3,69.5,0.125,61,100.0
1124,F5,69.5,0.125,49,100.0
1125,C#6,69.5,0.125,49,100.0
1126,G#5,69.625,0.062,43,100.0
1127,C6,69.625,0.062,43,100.0
1128,C5,69.688,0.062,52,100.0
1129,B-4,69.75,0.062,60,100.0
1130,F5,69.75,0.125,49,100.0
1131,C6,69.75,0.125,49,100.0
1132,G#5,69.875,0.062,42,100.0
1133,B5,69.875,0.062,42,100.0
1134,E-3,70.0,0.125,60,100.0
1135,G5,70.0,0.125,38,100.0
1136,B-5,70.0,0.125,38,100.0
1137,B5,70.125,0.125,35,100.0
1138,E-5,70.125,0.125,35,100.0
1139,B4,70.188,0.062,53,100.0
1140,B-4,70.25,0.062,60,100.0
1141,B-5,70.25,0.125,38,100.0
1142,G5,70.25,0.125,38,100.0
1143,E-5,70.375,0.125,34,100.0
1144,C6,70.375,0.125,34,100.0
1145,G#3,70.5,0.125,54,100.0
1146,B-5,70.5,0.125,38,100.0
1147,D5,70.5,0.125,38,100.0
1148,B5,70.625,0.125,35,100.0
1149,F5,70.625,0.125,35,100.0
1150,C5,70.688,0.062,47,100.0
1151,B-4,70.75,0.062,54,100.0
1152,D5,70.75,0.125,39,100.0
1153,B-5,70.75,0.125,39,100.0
1154,C6,70.875,0.125,34,100.0
1155,F5,70.875,0.125,34,100.0
1156,G3,71.0,0.125,54,100.0
1157,B-5,71.0,0.125,39,100.0
1158,E-5,71.0,0.125,39,100.0
1159,F#5,71.125,0.125,36,100.0
1160,B5,71.125,0.125,36,100.0
1161,B4,71.188,0.062,46,100.0
1162,B-4,71.25,0.062,55,100.0
1163,E-5,71.25,0.125,40,100.0
1164,B-5,71.25,0.125,40,100.0
1165,F#5,71.375,0.125,35,100.0
1166,C6,71.375,0.125,35,100.0
1167,D3,71.5,0.125,55,100.0
1168,B-5,71.5,0.125,40,100.0
1169,F5,71.5,0.125,40,100.0
1170,B5,71.625,0.125,36,100.0
1171,G#5,71.625,0.125,36,100.0
1172,C5,71.688,0.062,48,100.0
1173,B-4,71.75,0.062,56,100.0
1174,B-5,71.75,0.125,40,100.0
1175,F5,71.75,0.125,40,100.0
1176,C6,71.875,0.125,35,100.0
1177,G#5,71.875,0.125,35,100.0
1178,E-3,72.0,0.125,56,100.0
1179,B-5,72.0,0.125,40,100.0
1180,E-5,72.0,0.125,40,100.0
1181,G5,72.125,0.062,37,100.0
1182,B5,72.125,0.062,37,100.0
1183,B4,72.188,0.062,52,100.0
1184,B-4,72.25,0.062,57,100.0
1185,B5,72.25,0.125,53,100.0
1186,E-5,72.25,0.125,53,100.0
1187,G5,72.375,0.062,45,100.0
1188,C6,72.375,0.062,45,100.0
1189,B-2,72.5,0.125,62,100.0
1190,C#6,72.5,0.125,57,100.0
1191,G5,72.5,0.125,57,100.0
1192,B-5,72.625,0.125,48,100.0
1193,D6,72.625,0.125,48,100.0
1194,C5,72.688,0.062,55,100.0
1195,B-4,72.75,0.062,63,100.0
1196,D6,72.75,0.125,58,100.0
1197,G5,72.75,0.125,58,100.0
1198,B-5,72.875,0.062,49,100.0
1199,E-6,72.875,0.062,49,100.0
1200,B-2,73.0,0.125,63,100.0
1201,E-6,73.0,0.125,59,100.0
1202,F5,73.0,0.125,59,100.0
1203,D6,73.125,0.062,53,100.0
1204,G#5,73.125,0.062,53,100.0
1205,B4,73.188,0.062,57,100.0
1206,B-4,73.25,0.062,63,100.0
1207,F5,73.25,0.125,58,100.0
1208,D6,73.25,0.125,58,100.0
1209,G#5,73.375,0.062,49,100.0
1210,C#6,73.375,0.062,49,100.0
1211,D3,73.5,0.125,58,100.0
1212,C#6,73.5,0.125,55,100.0
1213,F5,73.5,0.125,55,100.0
1214,C6,73.625,0.062,48,100.0
1215,G#5,73.625,0.062,48,100.0
1216,C5,73.688,0.062,50,100.0
1217,B-4,73.75,0.062,58,100.0
1218,F5,73.75,0.125,54,100.0
1219,C6,73.75,0.125,54,100.0
1220,B5,73.875,0.062,46,100.0
1221,G#5,73.875,0.062,46,100.0
1222,E-3,74.0,0.5,44,100.0
1223,G5,74.0,0.125,51,100.0
1224,B-5,74.0,0.125,51,100.0
1225,C6,74.125,0.125,48,100.0
1226,E-5,74.125,0.125,48,100.0
1227,G5,74.25,0.125,51,100.0
1228,B-5,74.25,0.125,51,100.0
1229,E-6,74.375,0.125,54,100.0
1230,G#5,74.5,0.125,43,100.0
1231,G6,74.5,0.25,54,100.0
1232,B2,74.5,0.125,38,100.0
1233,B1,74.5,0.125,38,100.0
1234,D6,74.625,0.125,37,100.0
1235,E6,74.625,0.125,37,100.0
1236,G#5,74.75,0.125,40,100.0
1237,G6,74.75,0.125,40,100.0
1238,G#3,74.75,0.125,29,100.0
1239,D4,74.75,0.125,29,100.0
1240,F3,74.75,0.125,29,100.0
1241,C3,74.875,0.375,35,100.0
1242,F6,74.875,0.094,38,100.0
1243,D6,74.875,0.094,38,100.0
1244,G3,74.938,0.312,35,100.0
1245,F6,75.0,0.25,55,100.0
1246,G5,75.0,0.125,45,100.0
1247,E-4,75.0,0.25,42,100.0
1248,C6,75.125,0.125,36,100.0
1249,D6,75.125,0.125,36,100.0
1250,F6,75.25,0.125,40,100.0
1251,G5,75.25,0.125,40,100.0
1252,C6,75.375,0.125,38,100.0
1253,E-6,75.375,0.125,38,100.0
1254,E-6,75.5,0.25,52,100.0
1255,F5,75.5,0.125,52,100.0
1256,D3,75.5,0.125,38,100.0
1257,D2,75.5,0.125,38,100.0
1258,B5,75.625,0.125,34,100.0
1259,C#6,75.625,0.125,34,100.0
1260,E-6,75.75,0.125,40,100.0
1261,F5,75.75,0.125,40,100.0
1262,F4,75.75,0.125,30,100.0
1263,B3,75.75,0.125,30,100.0
1264,G#3,75.75,0.125,30,100.0
1265,E-3,75.875,0.125,35,100.0
1266,B-5,75.875,0.094,39,100.0
1267,D6,75.875,0.094,39,100.0
1268,C4,75.938,0.062,35,100.0
1269,D6,76.0,0.25,50,100.0
1270,E-5,76.0,0.125,43,100.0
1271,G4,76.0,0.25,42,100.0
1272,E-3,76.0,0.25,35,100.0
1273,C4,76.0,0.25,35,100.0
1274,B5,76.125,0.125,34,100.0
1275,G5,76.125,0.125,34,100.0
1276,E-5,76.25,0.125,40,100.0
1277,D6,76.25,0.125,40,100.0
1278,C6,76.375,0.094,39,100.0
1279,G5,76.375,0.094,39,100.0
1280,G5,76.5,0.125,39,100.0
1281,C6,76.5,0.25,48,100.0
1282,E2,76.5,0.125,36,100.0
1283,C#5,76.625,0.125,37,100.0
1284,A5,76.625,0.125,37,100.0
1285,B-2,76.75,0.125,28,100.0
1286,C6,76.75,0.125,36,100.0
1287,G5,76.75,0.125,36,100.0
1288,C#5,76.875,0.125,36,100.0
1289,B-5,76.875,0.125,36,100.0
1290,A5,77.0,0.25,45,100.0
1291,C#5,77.0,0.125,37,100.0
1292,E3,77.0,0.125,35,100.0
1293,F#5,77.125,0.125,32,100.0
1294,B-4,77.125,0.125,32,100.0
1295,B-3,77.25,0.125,27,100.0
1296,A5,77.25,0.125,34,100.0
1297,C#5,77.25,0.125,34,100.0
1298,B-4,77.375,0.125,30,100.0
1299,G5,77.375,0.125,30,100.0
1300,B-4,77.5,0.125,36,100.0
1301,F5,77.5,0.25,43,100.0
1302,C#4,77.5,0.25,28,100.0
1303,G3,77.5,0.5,18,100.0
1304,E-5,77.625,0.125,30,100.0
1305,G4,77.625,0.125,30,100.0
1306,B-3,77.75,0.188,23,100.0
1307,F5,77.75,0.125,32,100.0
1308,C#5,77.75,0.125,32,100.0
1309,E5,77.875,0.125,28,100.0
1310,G4,77.875,0.125,28,100.0
1311,F3,77.938,0.062,20,100.0
1312,G5,78.0,0.375,52,100.0
1313,B-4,78.0,0.125,40,100.0
1314,D4,78.0,0.25,36,100.0
1315,F3,78.0,0.25,20,100.0
1316,F4,78.125,0.125,36,100.0
1317,B-4,78.25,0.125,45,100.0
1318,F5,78.375,0.125,41,100.0
1319,D5,78.5,0.375,52,100.0
1320,G#4,78.5,0.125,40,100.0
1321,B3,78.5,0.5,27,100.0
1322,F3,78.5,1.0,22,100.0
1323,F4,78.625,0.125,40,100.0
1324,G#4,78.75,0.125,40,100.0
1325,E-5,78.875,0.125,41,100.0
1326,D5,79.0,0.375,52,100.0
1327,C4,79.0,0.5,27,100.0
1328,B-4,79.0,0.125,40,100.0
1329,E4,79.0,0.125,40,100.0
1330,G4,79.125,0.125,40,100.0
1331,E4,79.25,0.125,40,100.0
1332,C5,79.375,0.125,41,100.0
1333,E-4,79.5,0.125,40,100.0
1334,G4,79.5,0.375,52,100.0
1335,E2,79.5,0.125,41,100.0
1336,C4,79.625,0.125,40,100.0
1337,F2,79.625,0.125,36,100.0
1338,E-4,79.75,0.125,40,100.0
1339,E2,79.75,0.125,43,100.0
1340,A4,79.875,0.125,41,100.0
1341,F2,79.875,0.125,36,100.0
1342,C5,80.0,0.375,52,100.0
1343,D4,80.0,0.125,40,100.0
1344,F3,80.0,0.5,36,100.0
1345,F2,80.0,0.5,36,100.0
1346,F4,80.125,0.125,36,100.0
1347,D4,80.25,0.125,45,100.0
1348,B-4,80.375,0.125,41,100.0
1349,G4,80.5,0.375,52,100.0
1350,G#3,80.5,0.125,40,100.0
1351,B2,80.5,0.5,27,100.0
1352,F2,80.5,1.0,22,100.0
1353,D4,80.625,0.125,40,100.0
1354,G#3,80.75,0.125,40,100.0
1355,D4,80.875,0.125,40,100.0
1356,F4,80.875,0.125,40,100.0
1357,F4,81.0,0.375,52,100.0
1358,G3,81.0,0.125,40,100.0
1359,C3,81.0,0.5,27,100.0
1360,C4,81.125,0.125,40,100.0
1361,G3,81.25,0.125,40,100.0
1362,E-4,81.375,0.125,41,100.0
1363,C4,81.5,0.375,52,100.0
1364,E-3,81.5,0.125,40,100.0
1365,F#2,81.5,0.25,41,100.0
1366,A3,81.625,0.125,40,100.0
1367,E-3,81.75,0.125,40,100.0
1368,F2,81.75,0.25,36,100.0
1369,D4,81.875,0.125,40,100.0
1370,A3,81.875,0.125,40,100.0
1371,B-1,82.0,0.25,41,100.0
1372,B-3,82.0,0.25,50,100.0
1373,D3,82.0,0.25,50,100.0
1374,D3,82.25,0.125,31,100.0
1375,F3,82.25,0.125,24,100.0
1376,B-3,82.25,0.125,24,100.0
1377,D4,82.375,0.125,25,100.0
1378,C3,82.5,0.125,36,100.0
1379,F#3,82.5,0.125,23,100.0
1380,B-3,82.5,0.125,23,100.0
1381,D4,82.625,0.125,25,100.0
1382,B2,82.75,0.125,32,100.0
1383,G3,82.75,0.125,23,100.0
1384,B-3,82.75,0.125,23,100.0
1385,D4,82.875,0.125,25,100.0
1386,B-2,83.0,0.125,36,100.0
1387,F#3,83.0,0.125,28,100.0
1388,B-3,83.0,0.125,28,100.0
1389,D4,83.125,0.125,22,100.0
1390,D3,83.25,0.125,32,100.0
1391,F3,83.25,0.125,28,100.0
1392,B-3,83.25,0.125,28,100.0
1393,D4,83.375,0.125,21,100.0
1394,C3,83.5,0.125,36,100.0
1395,F#3,83.5,0.125,28,100.0
1396,B-3,83.5,0.125,28,100.0
1397,B2,83.625,0.125,31,100.0
1398,D4,83.625,0.125,25,100.0
1399,B-2,83.75,0.125,31,100.0
1400,B-3,83.75,0.125,28,100.0
1401,G3,83.75,0.125,28,100.0
1402,D4,83.875,83/1000,22,100.0
1403,F#3,83.958,21/500,30,100.0
1404,A3,83.958,21/500,30,100.0
1405,E-4,83.958,21/500,30,100.0
1406,F#3,84.083,83/1000,30,100.0
1407,A3,84.083,83/1000,30,100.0
1408,E-4,84.083,83/1000,30,100.0
1409,E-6,84.25,0.125,37,100.0
1410,A5,84.333,0.125,41,100.0
1411,F#5,84.333,0.125,41,100.0
1412,C6,84.375,0.125,37,100.0
1413,G#5,84.5,0.125,36,100.0
1414,D5,84.583,0.125,39,100.0
1415,B4,84.583,0.125,39,100.0
1416,F5,84.625,0.125,36,100.0
1417,A5,84.75,0.125,36,100.0
1418,E-5,84.833,0.125,38,100.0
1419,C5,84.833,0.125,38,100.0
1420,F#5,84.875,0.125,35,100.0
1421,D5,85.0,0.125,35,100.0
1422,G#4,85.083,0.125,38,100.0
1423,F4,85.083,0.125,38,100.0
1424,B4,85.125,0.125,33,100.0
1425,E-5,85.25,0.125,33,100.0
1426,F#4,85.333,0.125,37,100.0
1427,A4,85.333,0.125,37,100.0
1428,C5,85.375,0.125,32,100.0
1429,G#4,85.5,0.125,32,100.0
1430,B3,85.583,0.125,36,100.0
1431,D4,85.583,0.125,36,100.0
1432,F4,85.625,0.125,31,100.0
1433,A4,85.75,0.125,30,100.0
1434,E-4,85.833,0.125,36,100.0
1435,C4,85.833,0.125,36,100.0
1436,F#5,85.875,0.125,30,100.0
1437,B-4,86.0,0.25,38,100.0
1438,F5,86.0,0.25,38,100.0
1439,F2,86.083,0.25,45,100.0
1440,D3,86.25,0.125,31,100.0
1441,F3,86.333,0.125,24,100.0
1442,B-3,86.333,0.125,24,100.0
1443,D4,86.458,0.125,25,100.0
1444,C3,86.5,0.125,36,100.0
1445,B-3,86.583,0.125,23,100.0
1446,F#3,86.583,0.125,23,100.0
1447,D4,86.708,0.125,25,100.0
1448,B2,86.75,0.125,32,100.0
1449,G3,86.833,0.125,23,100.0
1450,B-3,86.833,0.125,23,100.0
1451,D4,86.958,0.125,25,100.0
1452,B-2,87.0,0.125,36,100.0
1453,F#3,87.083,0.125,28,100.0
1454,B-3,87.083,0.125,28,100.0
1455,D4,87.208,0.125,22,100.0
1456,D3,87.25,0.125,32,100.0
1457,F3,87.333,0.125,28,100.0
1458,B-3,87.333,0.125,28,100.0
1459,D4,87.458,0.125,21,100.0
1460,C3,87.5,0.125,36,100.0
1461,F#3,87.583,0.125,28,100.0
1462,B-3,87.583,0.125,28,100.0
1463,B2,87.625,0.125,31,100.0
1464,D4,87.708,0.125,25,100.0
1465,B-2,87.75,0.125,31,100.0
1466,G3,87.833,0.125,28,100.0
1467,B-3,87.833,0.125,28,100.0
1468,D4,87.958,83/1000,22,100.0
1469,F#3,88.042,21/500,27,100.0
1470,A3,88.042,21/500,27,100.0
1471,E-4,88.042,21/500,27,100.0
1472,F#3,88.167,83/1000,27,100.0
1473,A3,88.167,83/1000,27,100.0
1474,E-4,88.167,83/1000,27,100.0
1475,E-6,88.25,0.125,37,100.0
1476,C6,88.375,0.125,37,100.0
1477,A5,88.417,0.125,38,100.0
1478,F#5,88.417,0.125,38,100.0
1479,G#5,88.5,0.125,36,100.0
1480,F5,88.625,0.125,36,100.0
1481,B4,88.667,0.125,36,100.0
1482,D5,88.667,0.125,36,100.0
1483,A5,88.75,0.125,36,100.0
1484,F#5,88.875,0.125,35,100.0
1485,E-5,88.917,0.125,35,100.0
1486,C5,88.917,0.125,35,100.0
1487,D5,89.0,0.125,35,100.0
1488,B4,89.125,0.125,33,100.0
1489,G#4,89.167,0.125,35,100.0
1490,F4,89.167,0.125,35,100.0
1491,E-5,89.25,0.125,33,100.0
1492,C5,89.375,0.125,32,100.0
1493,F#4,89.417,0.125,34,100.0
1494,A4,89.417,0.125,34,100.0
1495,G#4,89.5,0.125,32,100.0
1496,F4,89.625,0.125,31,100.0
1497,D4,89.667,0.125,33,100.0
1498,B3,89.667,0.125,33,100.0
1499,A4,89.75,0.125,30,100.0
1500,F#5,89.875,81/1000,30,100.0
1501,E-4,89.917,0.125,32,100.0
1502,C4,89.917,0.125,32,100.0
1503,D4,90.0,0.125,36,100.0
1504,F4,90.0,0.125,36,100.0
1505,B-2,90.125,21/500,38,100.0
1506,G#3,90.125,21/500,38,100.0
1507,B3,90.125,21/500,38,100.0
1508,B-2,90.167,83/1000,38,100.0
1509,G#3,90.167,83/1000,38,100.0
1510,B3,90.167,83/1000,38,100.0
1511,F6,90.25,0.125,41,100.0
1512,D6,90.375,0.125,41,100.0
1513,G#5,90.417,0.125,41,100.0
1514,B5,90.417,0.125,41,100.0
1515,B-5,90.5,0.125,39,100.0
1516,G5,90.625,0.125,39,100.0
1517,E5,90.667,0.125,40,100.0
1518,C#5,90.667,0.125,40,100.0
1519,B5,90.75,0.125,38,100.0
1520,G#5,90.875,0.125,37,100.0
1521,D5,90.917,0.125,38,100.0
1522,F5,90.917,0.125,38,100.0
1523,E5,91.0,0.125,37,100.0
1524,C#5,91.125,0.125,36,100.0
1525,B-4,91.167,0.125,38,100.0
1526,G4,91.167,0.125,38,100.0
1527,F5,91.25,0.125,36,100.0
1528,D5,91.375,0.125,36,100.0
1529,G#4,91.417,0.125,38,100.0
1530,B4,91.417,0.125,38,100.0
1531,B-4,91.5,0.125,36,100.0
1532,G4,91.625,0.125,35,100.0
1533,C#4,91.667,0.125,36,100.0
1534,E4,91.667,0.125,36,100.0
1535,B4,91.75,0.125,33,100.0
1536,G#5,91.875,0.125,33,100.0
1537,F4,91.917,0.125,35,100.0
1538,D4,91.917,0.125,35,100.0
1539,E-4,92.0,0.125,39,100.0
1540,G4,92.0,0.125,39,100.0
1541,B-2,92.125,21/500,42,100.0
1542,C#4,92.125,21/500,42,100.0
1543,B-2,92.167,83/1000,42,100.0
1544,C#4,92.167,83/1000,42,100.0
1545,G6,92.25,0.125,45,100.0
1546,E6,92.375,0.125,45,100.0
1547,C#6,92.417,0.125,45,100.0
1548,B-5,92.417,0.125,45,100.0
1549,C6,92.5,0.125,43,100.0
1550,A5,92.625,0.125,43,100.0
1551,E-5,92.667,0.125,42,100.0
1552,F#5,92.667,0.125,42,100.0
1553,C#6,92.75,0.125,42,100.0
1554,B-5,92.875,0.125,41,100.0
1555,E-5,92.917,0.125,42,100.0
1556,G5,92.917,0.125,42,100.0
1557,A4,93.0,0.125,43,100.0
1558,E-4,93.0,0.125,43,100.0
1559,B-2,93.083,167/1000,43,100.0
1560,F#3,93.083,167/1000,43,100.0
1561,C4,93.167,0.125,51,100.0
1562,A6,93.25,0.125,45,100.0
1563,F#6,93.375,0.125,45,100.0
1564,C6,93.417,0.125,45,100.0
1565,E-6,93.417,0.125,45,100.0
1566,D6,93.5,0.125,43,100.0
1567,B5,93.625,0.125,43,100.0
1568,G#5,93.667,0.125,42,100.0
1569,F5,93.667,0.125,42,100.0
1570,E-6,93.75,0.125,42,100.0
1571,C6,93.875,0.125,41,100.0
1572,A5,93.917,0.125,42,100.0
1573,F#5,93.917,0.125,42,100.0
1574,C7,94.0,0.125,55,100.0
1575,A6,94.125,0.125,55,100.0
1576,F#5,94.167,0.125,45,100.0
1577,E-5,94.167,0.125,45,100.0
1578,F6,94.25,0.125,54,100.0
1579,D6,94.375,0.125,54,100.0
1580,B4,94.417,0.125,45,100.0
1581,G#4,94.417,0.125,45,100.0
1582,F#6,94.5,0.125,51,100.0
1583,E-6,94.625,0.125,49,100.0
1584,A4,94.667,0.125,42,100.0
1585,C5,94.667,0.125,42,100.0
1586,E-7,94.75,0.125,62,100.0
1587,C7,94.875,0.125,57,100.0
1588,A4,94.917,0.125,42,100.0
1589,F#4,94.917,0.125,42,100.0
1590,G#6,95.0,0.125,60,100.0
1591,F6,95.125,0.125,53,100.0
1592,D4,95.167,0.125,48,100.0
1593,B3,95.167,0.125,48,100.0
1594,A6,95.25,0.125,60,100.0
1595,F#6,95.375,0.125,52,100.0
1596,C4,95.417,0.125,50,100.0
1597,E-4,95.417,0.125,50,100.0
1598,E7,95.5,0.125,63,100.0
1599,E-6,95.625,0.125,57,100.0
1600,B3,95.667,0.125,54,100.0
1601,E4,95.667,0.125,54,100.0
1602,G#3,95.667,0.125,54,100.0
1603,F7,95.75,0.125,74,100.0
1604,E-6,95.875,0.125,67,100.0
1605,F4,95.917,0.125,56,100.0
1606,C4,95.917,0.125,56,100.0
1607,A3,95.917,0.125,56,100.0
1608,B-1,96.167,1.0,66,100.0
1609,B-2,96.167,1.0,66,100.0
1610,B-6,96.25,0.125,45,100.0
1611,D7,96.25,0.125,45,100.0
1612,A6,96.375,0.125,45,100.0
1613,D4,96.417,0.25,48,100.0
1614,D3,96.417,0.25,48,100.0
1615,D7,96.5,0.125,45,100.0
1616,G#6,96.5,0.125,45,100.0
1617,G6,96.625,0.125,45,100.0
1618,F3,96.667,0.25,48,100.0
1619,C4,96.667,0.25,48,100.0
1620,F#6,96.75,0.125,45,100.0
1621,D7,96.75,0.125,45,100.0
1622,F6,96.875,0.125,45,100.0
1623,B-3,96.917,0.25,52,100.0
1624,B-6,97.0,0.125,44,100.0
1625,D7,97.0,0.125,44,100.0
1626,E6,97.125,0.125,44,100.0
1627,G#1,97.167,1.0,66,100.0
1628,G#2,97.167,1.0,66,100.0
1629,B-6,97.25,0.125,44,100.0
1630,F6,97.25,0.125,44,100.0
1631,D6,97.375,0.125,44,100.0
1632,D3,97.417,0.25,49,100.0
1633,D4,97.417,0.25,49,100.0
1634,C6,97.5,0.125,43,100.0
1635,F6,97.5,0.125,43,100.0
1636,B5,97.625,0.125,43,100.0
1637,F3,97.667,0.25,45,100.0
1638,C4,97.667,0.125,55,100.0
1639,D6,97.75,0.125,42,100.0
1640,B-5,97.75,0.125,42,100.0
1641,B3,97.792,0.125,48,100.0
1642,A5,97.875,0.125,42,100.0
1643,B-3,97.917,0.25,56,100.0
1644,F6,98.0,0.125,45,100.0
1645,B-5,98.0,0.125,45,100.0
1646,A5,98.125,0.125,45,100.0
1647,F#1,98.167,1.0,66,100.0
1648,F#2,98.167,1.0,66,100.0
1649,D6,98.25,0.125,45,100.0
1650,B-5,98.25,0.125,45,100.0
1651,A5,98.375,0.125,45,100.0
1652,D4,98.417,0.25,48,100.0
1653,D3,98.417,0.25,48,100.0
1654,D6,98.5,0.125,45,100.0
1655,G#5,98.5,0.125,45,100.0
1656,G5,98.625,0.125,45,100.0
1657,C4,98.667,0.25,48,100.0
1658,F#3,98.667,0.25,48,100.0
1659,F#5,98.75,0.125,45,100.0
1660,B-5,98.75,0.125,45,100.0
1661,F5,98.875,0.125,45,100.0
1662,B-3,98.917,0.25,52,100.0
1663,D6,99.0,0.125,44,100.0
1664,B-5,99.0,0.125,44,100.0
1665,E5,99.125,0.125,44,100.0
1666,F1,99.167,1.0,66,100.0
1667,F2,99.167,1.0,66,100.0
1668,F5,99.25,0.125,44,100.0
1669,B-5,99.25,0.125,44,100.0
1670,D5,99.375,0.125,44,100.0
1671,D3,99.417,0.25,49,100.0
1672,D4,99.417,0.25,49,100.0
1673,F5,99.5,0.125,43,100.0
1674,C5,99.5,0.125,43,100.0
1675,B4,99.625,0.125,43,100.0
1676,G#3,99.667,0.25,45,100.0
1677,C4,99.667,0.125,55,100.0
1678,D5,99.75,0.125,42,100.0
1679,B-4,99.75,0.125,42,100.0
1680,B3,99.792,0.125,48,100.0
1681,G#4,99.875,0.125,42,100.0
1682,B-3,99.917,0.25,56,100.0
1683,F#5,100.0,0.125,46,100.0
1684,B-4,100.0,0.125,46,100.0
1685,F#4,100.0,0.125,46,100.0
1686,E-3,100.167,1.0,74,100.0
1687,E-2,100.167,1.0,74,100.0
1688,F#6,100.25,0.125,52,100.0
1689,E-6,100.25,0.125,52,100.0
1690,D6,100.375,0.125,52,100.0
1691,F#4,100.417,0.25,55,100.0
1692,F#3,100.417,0.25,55,100.0
1693,C#6,100.5,0.125,51,100.0
1694,F#6,100.5,0.125,51,100.0
1695,C6,100.625,0.125,52,100.0
1696,B-3,100.667,0.25,54,100.0
1697,F4,100.667,0.25,54,100.0
1698,E-6,100.75,0.125,50,100.0
1699,F#6,100.75,0.125,50,100.0
1700,B5,100.875,0.125,51,100.0
1701,E-4,100.917,0.25,59,100.0
1702,B-5,101.0,0.125,50,100.0
1703,F#6,101.0,0.125,50,100.0
1704,A5,101.125,0.125,50,100.0
1705,C#2,101.167,1.0,76,100.0
1706,C#3,101.167,1.0,76,100.0
1707,G#5,101.25,0.125,50,100.0
1708,E-6,101.25,0.125,50,100.0
1709,G5,101.375,0.125,51,100.0
1710,F#4,101.417,0.25,56,100.0
1711,F#3,101.417,0.25,56,100.0
1712,E-6,101.5,0.125,50,100.0
1713,F#5,101.5,0.125,50,100.0
1714,F5,101.625,0.125,50,100.0
1715,F4,101.667,0.125,65,100.0
1716,B-3,101.667,0.25,54,100.0
1717,B-5,101.75,0.125,49,100.0
1718,F#5,101.75,0.125,49,100.0
1719,E4,101.792,0.125,57,100.0
1720,E5,101.875,0.125,50,100.0
1721,E-4,101.917,0.25,66,100.0
1722,E-6,102.0,0.125,55,100.0
1723,F#5,102.0,0.125,55,100.0
1724,E-5,102.125,0.125,55,100.0
1725,B1,102.167,1.0,80,100.0
1726,B2,102.167,1.0,80,100.0
1727,E-5,102.25,0.125,56,100.0
1728,B-5,102.25,0.125,56,100.0
1729,D5,102.375,0.125,56,100.0
1730,F#3,102.417,0.25,58,100.0
1731,F#4,102.417,0.25,58,100.0
1732,C#5,102.5,0.125,55,100.0
1733,F#5,102.5,0.125,55,100.0
1734,C5,102.625,0.125,55,100.0
1735,B3,102.667,0.25,58,100.0
1736,F4,102.667,0.25,58,100.0
1737,E-5,102.75,0.125,54,100.0
1738,F#5,102.75,0.125,54,100.0
1739,B4,102.875,0.125,54,100.0
1740,E-4,102.917,0.25,63,100.0
1741,F#5,103.0,0.125,54,100.0
1742,E-5,103.0,0.125,54,100.0
1743,B-4,103.125,0.125,54,100.0
1744,B-1,103.167,1.0,83,100.0
1745,B-2,103.167,1.0,83,100.0
1746,F#5,103.25,0.125,54,100.0
1747,E-5,103.25,0.125,54,100.0
1748,A4,103.375,0.125,54,100.0
1749,F#4,103.417,0.25,60,100.0
1750,F#3,103.417,0.25,60,100.0
1751,E-5,103.5,0.125,54,100.0
1752,G#4,103.5,0.125,54,100.0
1753,G4,103.625,0.125,54,100.0
1754,F4,103.667,0.125,70,100.0
1755,B-3,103.667,0.25,58,100.0
1756,B-4,103.75,0.125,53,100.0
1757,F#4,103.75,0.125,53,100.0
1758,E4,103.792,0.125,60,100.0
1759,E-4,103.875,0.125,53,100.0
1760,E-4,103.917,0.25,72,100.0
1761,G#1,104.167,0.5,36,100.0
1762,G#2,104.167,3/20,36,100.0
1763,B6,104.25,0.125,31,100.0
1764,E-6,104.25,0.125,31,100.0
1765,A2,104.292,0.125,28,100.0
1766,B5,104.375,0.125,36,100.0
1767,F#6,104.375,0.125,36,100.0
1768,A2,104.417,0.125,28,100.0
1769,B-2,104.542,0.125,29,100.0
1770,B2,104.667,3/20,29,100.0
1771,E-6,104.75,0.125,32,100.0
1772,F#5,104.75,0.125,32,100.0
1773,C3,104.792,0.125,29,100.0
1774,B5,104.875,0.125,36,100.0
1775,E-5,104.875,0.125,36,100.0
1776,B2,104.917,0.125,30,100.0
1777,C3,105.042,0.125,30,100.0
1778,C#2,105.167,0.5,36,100.0
1779,C#3,105.167,3/20,36,100.0
1780,B4,105.25,0.125,31,100.0
1781,G#5,105.25,0.125,31,100.0
1782,D3,105.292,0.125,31,100.0
1783,G#4,105.375,0.125,36,100.0
1784,F5,105.375,0.125,36,100.0
1785,C#3,105.417,0.125,32,100.0
1786,E-3,105.542,0.125,32,100.0
1787,B5,105.625,0.375,32,100.0
1788,E3,105.667,3/20,33,100.0
1789,G#6,105.688,0.312,38,100.0
1790,C#7,105.75,0.25,45,100.0
1791,F3,105.792,0.125,35,100.0
1792,E3,105.917,0.125,36,100.0
1793,F3,106.042,0.125,36,100.0
1794,F#2,106.167,0.5,36,100.0
1795,F#3,106.167,3/20,36,100.0
1796,B-6,106.25,0.125,31,100.0
1797,C#6,106.25,0.125,31,100.0
1798,G3,106.292,0.125,28,100.0
1799,F6,106.375,0.125,36,100.0
1800,B-5,106.375,0.125,36,100.0
1801,F#3,106.417,0.125,28,100.0
1802,G#3,106.542,0.125,29,100.0
1803,A3,106.667,3/20,29,100.0
1804,C#6,106.75,0.125,32,100.0
1805,F5,106.75,0.125,32,100.0
1806,B-3,106.792,0.125,29,100.0
1807,B-5,106.875,0.125,36,100.0
1808,C#5,106.875,0.125,36,100.0
1809,A3,106.917,0.125,30,100.0
1810,B-3,107.042,0.125,30,100.0
1811,B2,107.167,0.5,36,100.0
1812,B3,107.167,3/20,36,100.0
1813,F#5,107.25,0.125,31,100.0
1814,B-4,107.25,0.125,31,100.0
1815,C4,107.292,0.125,31,100.0
1816,E-5,107.375,0.125,36,100.0
1817,F#4,107.375,0.125,36,100.0
1818,B3,107.417,0.125,32,100.0
1819,C#4,107.542,0.125,32,100.0
1820,B-5,107.625,0.375,32,100.0
1821,D4,107.667,3/20,33,100.0
1822,F#6,107.688,0.312,38,100.0
1823,B6,107.75,0.25,45,100.0
1824,E-4,107.792,0.125,35,100.0
1825,D4,107.917,0.125,36,100.0
1826,E-4,108.042,0.125,36,100.0
1827,F4,108.167,3/20,36,100.0
1828,F3,108.167,0.5,36,100.0
1829,B5,108.25,0.125,31,100.0
1830,G#6,108.25,0.125,31,100.0
1831,F#4,108.292,0.125,28,100.0
1832,E-6,108.375,0.125,36,100.0
1833,G#5,108.375,0.125,36,100.0
1834,F4,108.417,0.125,28,100.0
1835,G4,108.542,0.125,29,100.0
1836,G#4,108.667,3/20,29,100.0
1837,E-6,108.75,0.125,32,100.0
1838,G#5,108.75,0.125,32,100.0
1839,A4,108.792,0.125,29,100.0
1840,B5,108.875,0.125,36,100.0
1841,F5,108.875,0.125,36,100.0
1842,G#4,108.917,0.125,30,100.0
1843,A4,109.042,0.125,30,100.0
1844,B-3,109.167,0.5,36,100.0
1845,B-4,109.167,3/20,36,100.0
1846,G#5,109.25,0.25,31,100.0
1847,D5,109.25,0.125,31,100.0
1848,B4,109.292,0.125,31,100.0
1849,E5,109.375,0.125,36,100.0
1850,B-4,109.417,0.125,32,100.0
1851,F5,109.5,0.25,31,100.0
1852,C#5,109.542,0.125,32,100.0
1853,D5,109.667,0.125,33,100.0
1854,G#5,109.75,0.25,42,100.0
1855,B-6,109.75,0.25,42,100.0
1856,C#5,109.792,0.125,35,100.0
1857,D5,109.917,0.125,36,100.0
1858,B-4,110.042,0.125,36,100.0
1859,E-4,110.167,0.5,36,100.0
1860,E-5,110.167,3/20,33,100.0
1861,F#6,110.25,0.125,32,100.0
1862,B-5,110.25,0.125,32,100.0
1863,D5,110.292,0.125,33,100.0
1864,E-6,110.375,0.125,36,100.0
1865,F#5,110.375,0.125,36,100.0
1866,C#5,110.417,0.125,33,100.0
1867,C5,110.542,0.125,33,100.0
1868,B4,110.667,3/20,33,100.0
1869,B-5,110.75,0.125,32,100.0
1870,E-5,110.75,0.125,32,100.0
1871,B-4,110.792,0.125,33,100.0
1872,E-6,110.875,0.125,36,100.0
1873,F#5,110.875,0.125,36,100.0
1874,F#4,110.917,0.125,33,100.0
1875,F#5,111.0,0.5,45,100.0
1876,F#6,111.0,0.125,45,100.0
1877,E-4,111.042,0.125,33,100.0
1878,F6,111.125,0.125,36,100.0
1879,B3,111.167,0.5,43,100.0
1880,A4,111.167,0.125,43,100.0
1881,E6,111.25,0.125,38,100.0
1882,G#4,111.292,0.125,35,100.0
1883,E-6,111.375,0.125,42,100.0
1884,G4,111.417,0.125,36,100.0
1885,A6,111.5,0.125,48,100.0
1886,A5,111.5,0.5,48,100.0
1887,F#4,111.542,0.125,36,100.0
1888,G#6,111.625,0.125,41,100.0
1889,C4,111.667,0.5,45,100.0
1890,F4,111.667,0.125,45,100.0
1891,G6,111.75,0.125,44,100.0
1892,E4,111.792,0.125,37,100.0
1893,F#6,111.875,0.125,48,100.0
1894,E-4,111.917,0.125,38,100.0
1895,C#7,112.0,0.125,57,100.0
1896,C#6,112.0,0.125,57,100.0
1897,D4,112.042,0.125,38,100.0
1898,C#4,112.167,0.125,56,100.0
1899,C#3,112.167,0.125,56,100.0
1900,D6,112.5,0.125,33,100.0
1901,G#5,112.5,0.25,29,100.0
1902,F5,112.5,0.25,29,100.0
1903,B5,112.625,0.125,31,100.0
1904,B4,112.667,0.125,28,100.0
1905,G5,112.75,0.125,33,100.0
1906,D5,112.792,0.125,22,100.0
1907,E5,112.875,0.125,27,100.0
1908,B-4,112.917,0.125,28,100.0
1909,G#5,113.0,0.125,33,100.0
1910,C#5,113.042,0.125,24,100.0
1911,F5,113.125,0.125,28,100.0
1912,B4,113.167,0.125,28,100.0
1913,C#6,113.25,0.125,33,100.0
1914,D5,113.292,0.125,25,100.0
1915,B-5,113.375,0.125,33,100.0
1916,E4,113.417,0.125,30,100.0
1917,D6,113.5,0.125,35,100.0
1918,G4,113.542,0.125,29,100.0
1919,B5,113.625,0.125,36,100.0
1920,F4,113.667,0.125,30,100.0
1921,G6,113.75,0.125,37,100.0
1922,G#4,113.792,0.125,32,100.0
1923,E6,113.875,0.125,38,100.0
1924,B-3,113.917,0.125,33,100.0
1925,G#6,114.0,0.125,39,100.0
1926,C#4,114.042,0.125,36,100.0
1927,F6,114.125,0.125,37,100.0
1928,B3,114.167,0.125,36,100.0
1929,D7,114.25,0.125,48,100.0
1930,D4,114.292,0.125,33,100.0
1931,F6,114.375,0.125,36,100.0
1932,D6,114.375,0.125,36,100.0
1933,B3,114.417,0.125,39,100.0
1934,C#7,114.5,0.125,45,100.0
1935,C#3,114.542,0.125,33,100.0
1936,F6,114.625,0.125,36,100.0
1937,C#6,114.625,0.125,36,100.0
1938,A3,114.667,0.125,39,100.0
1939,B6,114.75,0.125,48,100.0
1940,C#3,114.792,0.125,32,100.0
1941,B5,114.875,0.125,39,100.0
1942,F6,114.875,0.125,39,100.0
1943,G#3,114.917,0.125,39,100.0
1944,B-6,115.0,0.125,46,100.0
1945,C#3,115.042,0.125,31,100.0
1946,B-5,115.125,0.125,36,100.0
1947,C#6,115.125,0.125,36,100.0
1948,G3,115.167,0.125,39,100.0
1949,A6,115.25,0.125,45,100.0
1950,C#3,115.292,0.125,33,100.0
1951,C6,115.375,0.125,39,100.0
1952,A5,115.375,0.125,39,100.0
1953,F#3,115.417,0.125,39,100.0
1954,G#6,115.5,0.125,48,100.0
1955,C#3,115.542,0.125,32,100.0
1956,C6,115.625,0.125,38,100.0
1957,G#5,115.625,0.125,38,100.0
1958,A3,115.667,0.125,39,100.0
1959,F#6,115.75,0.125,46,100.0
1960,C#3,115.792,0.125,32,100.0
1961,C6,115.875,0.125,39,100.0
1962,F#5,115.875,0.125,39,100.0
1963,E-4,115.917,0.125,39,100.0
1964,F5,116.0,0.25,50,100.0
1965,F6,116.0,0.25,50,100.0
1966,C#6,116.0,0.25,50,100.0
1967,C#3,116.042,0.125,33,100.0
1968,G#4,116.167,0.125,43,100.0
1969,C#4,116.167,0.125,43,100.0
1970,C#2,116.417,0.125,43,100.0
1971,D5,116.5,0.125,33,100.0
1972,G#4,116.5,0.5,28,100.0
1973,F4,116.5,0.5,28,100.0
1974,B4,116.625,0.125,31,100.0
1975,B3,116.667,0.125,28,100.0
1976,G4,116.75,0.125,33,100.0
1977,D4,116.792,0.125,22,100.0
1978,E4,116.875,0.125,27,100.0
1979,B-3,116.917,0.125,28,100.0
1980,G#4,117.0,0.125,33,100.0
1981,C#4,117.042,0.125,24,100.0
1982,F4,117.125,0.125,28,100.0
1983,B3,117.167,0.125,28,100.0
1984,C#5,117.25,0.125,33,100.0
1985,D4,117.292,0.125,25,100.0
1986,B-4,117.375,0.125,33,100.0
1987,E3,117.417,0.125,30,100.0
1988,D5,117.5,0.125,35,100.0
1989,G3,117.542,0.125,29,100.0
1990,B4,117.625,0.125,36,100.0
1991,F3,117.667,0.125,30,100.0
1992,G5,117.75,0.125,37,100.0
1993,G#3,117.792,0.125,32,100.0
1994,E5,117.875,0.125,38,100.0
1995,B-2,117.917,0.125,33,100.0
1996,G#5,118.0,0.125,39,100.0
1997,C#3,118.042,0.125,36,100.0
1998,F5,118.125,0.125,37,100.0
1999,B2,118.167,0.125,36,100.0
2000,D6,118.25,0.125,48,100.0
2001,D3,118.292,0.125,33,100.0
2002,D5,118.375,0.125,36,100.0
2003,F5,118.375,0.125,36,100.0
2004,B2,118.417,0.125,39,100.0
2005,C#6,118.5,0.125,45,100.0
2006,C#2,118.542,0.125,33,100.0
2007,C#5,118.625,0.125,36,100.0
2008,F5,118.625,0.125,36,100.0
2009,A2,118.667,0.125,39,100.0
2010,B5,118.75,0.125,48,100.0
2011,C#2,118.792,0.125,32,100.0
2012,F5,118.875,0.125,39,100.0
2013,B4,118.875,0.125,39,100.0
2014,G#2,118.917,0.125,39,100.0
2015,B-5,119.0,0.125,46,100.0
2016,C#2,119.042,0.125,31,100.0
2017,C#5,119.125,0.125,36,100.0
2018,B-4,119.125,0.125,36,100.0
2019,G2,119.167,0.125,39,100.0
2020,A5,119.25,0.125,45,100.0
2021,C#2,119.292,0.125,33,100.0
2022,A4,119.375,0.125,39,100.0
2023,C5,119.375,0.125,39,100.0
2024,F#2,119.417,0.125,39,100.0
2025,G#5,119.5,0.125,48,100.0
2026,C#2,119.542,0.125,32,100.0
2027,G#4,119.625,0.125,38,100.0
2028,C5,119.625,0.125,38,100.0
2029,A2,119.667,0.125,39,100.0
2030,F#5,119.75,0.125,46,100.0
2031,C#2,119.792,0.125,32,100.0
2032,F#4,119.875,0.125,39,100.0
2033,C5,119.875,0.125,39,100.0
2034,E-3,119.917,0.125,39,100.0
2035,F5,120.0,0.125,46,100.0
2036,C#2,120.042,0.125,33,100.0
2037,F4,120.125,0.125,38,100.0
2038,G#4,120.125,0.125,38,100.0
2039,C#3,120.167,0.125,39,100.0
2040,D5,120.25,0.125,46,100.0
2041,C#2,120.292,0.125,32,100.0
2042,D4,120.375,0.125,38,100.0
2043,F4,120.375,0.125,38,100.0
2044,B2,120.417,0.125,39,100.0
2045,C#5,120.5,0.125,48,100.0
2046,C#2,120.542,0.125,32,100.0
2047,C#4,120.625,0.125,39,100.0
2048,F4,120.625,0.125,39,100.0
2049,A2,120.667,0.125,41,100.0
2050,B4,120.75,0.125,49,100.0
2051,C#2,120.792,0.125,33,100.0
2052,B3,120.875,0.125,41,100.0
2053,F4,120.875,0.125,41,100.0
2054,G#2,120.917,0.125,41,100.0
2055,B-4,121.0,0.125,50,100.0
2056,C#2,121.042,0.125,33,100.0
2057,C#4,121.125,0.125,42,100.0
2058,B-3,121.125,0.125,42,100.0
2059,G2,121.167,0.125,42,100.0
2060,A4,121.25,0.125,51,100.0
2061,C#2,121.292,0.125,35,100.0
2062,A3,121.375,0.125,42,100.0
2063,C4,121.375,0.125,42,100.0
2064,F#2,121.417,0.125,43,100.0
2065,G#4,121.5,0.125,52,100.0
2066,C#2,121.542,0.125,36,100.0
2067,G#3,121.625,0.125,43,100.0
2068,C4,121.625,0.125,43,100.0
2069,A2,121.667,0.125,44,100.0
2070,F#4,121.75,0.125,52,100.0
2071,C#2,121.792,0.125,36,100.0
2072,F#3,121.875,0.125,44,100.0
2073,C4,121.875,0.125,44,100.0
2074,E-3,121.917,0.125,45,100.0
2075,F4,122.0,0.25,59,100.0
2076,G#3,122.0,0.25,59,100.0
2077,C#2,122.042,0.125,36,100.0
2078,C#3,122.167,0.25,50,100.0
2079,D4,122.25,0.125,75,100.0
2080,G#3,122.25,0.125,75,100.0
2081,F3,122.25,0.125,75,100.0
2082,B1,122.417,0.125,64,100.0
2083,B2,122.417,0.125,64,100.0
2084,G#3,122.5,0.125,69,100.0
2085,C#4,122.5,0.125,69,100.0
2086,F3,122.5,0.125,69,100.0
2087,C3,122.667,0.125,56,100.0
2088,C2,122.667,0.125,56,100.0
2089,C4,122.75,0.125,69,100.0
2090,F3,122.75,0.125,69,100.0
2091,G#3,122.75,0.125,69,100.0
2092,C#2,122.917,0.125,56,100.0
2093,C#3,122.917,0.125,56,100.0
2094,F3,123.0,0.125,75,100.0
2095,G#3,123.0,0.125,75,100.0
2096,B3,123.0,0.125,75,100.0
2097,D2,123.167,0.125,64,100.0
2098,D3,123.167,0.125,64,100.0
2099,G#3,123.25,0.125,69,100.0
2100,D4,123.25,0.125,69,100.0
2101,F3,123.25,0.125,69,100.0
2102,B2,123.417,0.125,65,100.0
2103,C#4,123.5,0.125,83,100.0
2104,G#3,123.5,0.25,71,100.0
2105,F3,123.5,0.25,71,100.0
2106,C4,123.625,0.125,75,100.0
2107,C3,123.667,0.125,69,100.0
2108,B3,123.75,0.25,75,100.0
2109,C#3,123.792,0.125,64,100.0
2110,D3,123.917,0.25,64,100.0
2111,G#4,124.25,0.125,35,100.0
2112,F4,124.25,0.125,35,100.0
2113,D5,124.25,0.125,35,100.0
2114,B3,124.417,0.125,33,100.0
2115,F4,124.5,0.125,32,100.0
2116,G#4,124.5,0.125,32,100.0
2117,C#5,124.5,0.125,32,100.0
2118,C4,124.667,0.125,28,100.0
2119,F4,124.75,0.125,32,100.0
2120,C5,124.75,0.125,32,100.0
2121,G#4,124.75,0.125,32,100.0
2122,C#4,124.917,0.125,28,100.0
2123,F4,125.0,0.125,35,100.0
2124,G#4,125.0,0.125,35,100.0
2125,B4,125.0,0.125,35,100.0
2126,D4,125.167,0.125,33,100.0
2127,G#4,125.25,0.125,32,100.0
2128,F4,125.25,0.125,32,100.0
2129,D5,125.25,0.125,32,100.0
2130,B3,125.417,0.125,30,100.0
2131,C#5,125.5,0.125,39,100.0
2132,F4,125.5,0.25,33,100.0
2133,G#4,125.5,0.25,33,100.0
2134,C5,125.625,0.125,36,100.0
2135,C4,125.667,0.125,33,100.0
2136,B4,125.75,0.25,36,100.0
2137,C#4,125.792,0.125,30,100.0
2138,D4,125.917,0.25,30,100.0
2139,F4,126.25,0.125,75,100.0
2140,G#3,126.25,0.125,75,100.0
2141,D4,126.25,0.125,75,100.0
2142,B1,126.417,0.125,64,100.0
2143,B2,126.417,0.125,64,100.0
2144,F4,126.5,0.125,69,100.0
2145,C#4,126.5,0.125,69,100.0
2146,G#3,126.5,0.125,69,100.0
2147,C2,126.667,0.125,56,100.0
2148,C3,126.667,0.125,56,100.0
2149,G#3,126.75,0.125,69,100.0
2150,F4,126.75,0.125,69,100.0
2151,C4,126.75,0.125,69,100.0
2152,C#3,126.917,0.125,56,100.0
2153,C#2,126.917,0.125,56,100.0
2154,F4,127.0,0.125,75,100.0
2155,G#3,127.0,0.125,75,100.0
2156,B3,127.0,0.125,75,100.0
2157,D3,127.167,0.125,64,100.0
2158,D2,127.167,0.125,64,100.0
2159,D4,127.25,0.125,69,100.0
2160,F4,127.25,0.125,69,100.0
2161,G#3,127.25,0.125,69,100.0
2162,B2,127.417,0.125,65,100.0
2163,C#4,127.5,0.125,83,100.0
2164,G#3,127.5,0.25,71,100.0
2165,F4,127.5,0.25,71,100.0
2166,C4,127.625,0.125,75,100.0
2167,C3,127.667,0.125,69,100.0
2168,B3,127.75,0.25,75,100.0
2169,C#3,127.792,0.125,64,100.0
2170,D3,127.917,0.25,64,100.0
2171,F5,128.25,0.125,35,100.0
2172,D5,128.25,0.125,35,100.0
2173,G#4,128.25,0.125,35,100.0
2174,B3,128.417,0.125,33,100.0
2175,G#4,128.5,0.125,32,100.0
2176,C#5,128.5,0.125,32,100.0
2177,F5,128.5,0.125,32,100.0
2178,C4,128.667,0.125,28,100.0
2179,G#4,128.75,0.125,32,100.0
2180,C5,128.75,0.125,32,100.0
2181,F5,128.75,0.125,32,100.0
2182,C#4,128.917,0.125,28,100.0
2183,F5,129.0,0.125,35,100.0
2184,B4,129.0,0.125,35,100.0
2185,G#4,129.0,0.125,35,100.0
2186,D4,129.167,0.125,33,100.0
2187,G#4,129.25,0.125,32,100.0
2188,F5,129.25,0.125,32,100.0
2189,D5,129.25,0.125,32,100.0
2190,B3,129.417,0.125,30,100.0
2191,C#5,129.5,0.125,39,100.0
2192,F5,129.5,0.25,33,100.0
2193,G#4,129.5,0.25,33,100.0
2194,C5,129.625,0.125,36,100.0
2195,C4,129.667,0.125,33,100.0
2196,B4,129.75,0.25,36,100.0
2197,C#4,129.792,0.125,30,100.0
2198,D4,129.917,0.25,30,100.0
2199,B4,130.25,0.125,35,100.0
2200,F5,130.25,0.125,35,100.0
2201,G#5,130.25,0.125,35,100.0
2202,D4,130.417,0.125,33,100.0
2203,E5,130.5,0.125,32,100.0
2204,B4,130.5,0.125,32,100.0
2205,G#5,130.5,0.125,32,100.0
2206,E-4,130.667,0.125,28,100.0
2207,G#5,130.75,0.125,32,100.0
2208,E-5,130.75,0.125,32,100.0
2209,B4,130.75,0.125,32,100.0
2210,E4,130.917,0.125,28,100.0
2211,D5,131.0,0.125,35,100.0
2212,G#5,131.0,0.125,35,100.0
2213,B4,131.0,0.125,35,100.0
2214,F4,131.167,0.125,33,100.0
2215,G#5,131.25,0.125,32,100.0
2216,D5,131.25,0.125,32,100.0
2217,B5,131.25,0.125,32,100.0
2218,F4,131.417,0.125,30,100.0
2219,G5,131.5,0.125,39,100.0
2220,D5,131.5,0.25,33,100.0
2221,B5,131.5,0.25,33,100.0
2222,F#5,131.625,0.125,36,100.0
2223,F#4,131.667,0.125,33,100.0
2224,F5,131.75,0.25,36,100.0
2225,G4,131.792,0.125,30,100.0
2226,G#4,131.917,0.25,30,100.0
2227,F5,132.0,0.5,37,100.0
2228,D6,132.0,0.5,37,100.0
2229,B5,132.167,0.125,31,100.0
2230,G#4,132.167,0.125,31,100.0
2231,A5,132.292,0.125,25,100.0
2232,A4,132.292,0.125,25,100.0
2233,B-5,132.417,0.125,25,100.0
2234,B-4,132.417,0.125,25,100.0
2235,F6,132.5,0.5,38,100.0
2236,G#5,132.5,0.5,38,100.0
2237,B4,132.542,0.125,25,100.0
2238,G#5,132.542,0.125,25,100.0
2239,B4,132.667,0.125,31,100.0
2240,E-6,132.667,0.125,31,100.0
2241,C5,132.792,0.125,25,100.0
2242,C6,132.792,0.125,25,100.0
2243,C#5,132.917,0.125,25,100.0
2244,C#6,132.917,0.125,25,100.0
2245,B5,133.0,0.5,39,100.0
2246,G#6,133.0,0.5,39,100.0
2247,D5,133.042,0.125,25,100.0
2248,B5,133.042,0.125,25,100.0
2249,D5,133.167,0.125,31,100.0
2250,E6,133.167,0.125,31,100.0
2251,E-6,133.292,0.125,27,100.0
2252,E-5,133.292,0.125,27,100.0
2253,E5,133.417,0.125,27,100.0
2254,E6,133.417,0.125,27,100.0
2255,D6,133.5,0.5,37,100.0
2256,B6,133.5,0.5,37,100.0
2257,D6,133.542,0.125,27,100.0
2258,F5,133.542,0.125,27,100.0
2259,G#6,133.667,0.125,31,100.0
2260,F5,133.667,0.125,31,100.0
2261,F#6,133.792,0.125,27,100.0
2262,F#5,133.792,0.125,27,100.0
2263,G6,133.917,0.125,27,100.0
2264,G5,133.917,0.125,27,100.0
2265,F6,134.0,0.5,48,100.0
2266,D7,134.0,0.5,48,100.0
2267,F6,134.042,0.125,27,100.0
2268,G#5,134.042,0.125,27,100.0
2269,B6,134.167,0.125,32,100.0
2270,G#5,134.167,0.125,32,100.0
2271,A6,134.292,0.125,29,100.0
2272,A5,134.292,0.125,29,100.0
2273,B-5,134.417,0.125,29,100.0
2274,B-6,134.417,0.125,29,100.0
2275,D7,134.5,0.5,45,100.0
2276,F6,134.5,0.5,45,100.0
2277,G#6,134.542,0.125,29,100.0
2278,B5,134.542,0.125,29,100.0
2279,G#5,134.667,0.125,32,100.0
2280,B6,134.667,0.125,32,100.0
2281,A5,134.792,0.125,29,100.0
2282,A6,134.792,0.125,29,100.0
2283,B-5,134.917,0.125,29,100.0
2284,B-6,134.917,0.125,29,100.0
2285,D7,135.0,0.5,49,100.0
2286,F6,135.0,0.5,49,100.0
2287,G#6,135.042,0.125,28,100.0
2288,B5,135.042,0.125,28,100.0
2289,B6,135.167,0.125,32,100.0
2290,G#5,135.167,0.125,32,100.0
2291,A5,135.292,0.125,29,100.0
2292,A6,135.292,0.125,29,100.0
2293,B-5,135.417,0.125,29,100.0
2294,B-6,135.417,0.125,29,100.0
2295,F6,135.5,0.5,45,100.0
2296,D7,135.5,0.5,45,100.0
2297,G#6,135.542,0.125,29,100.0
2298,B5,135.542,0.125,29,100.0
2299,G#5,135.667,0.125,32,100.0
2300,B6,135.667,0.125,32,100.0
2301,A6,135.792,0.125,28,100.0
2302,A5,135.792,0.125,28,100.0
2303,B-5,135.917,0.125,28,100.0
2304,B-6,135.917,0.125,28,100.0
2305,G#6,136.042,0.125,28,100.0
2306,B5,136.042,0.125,28,100.0
2307,F7,136.167,0.125,41,100.0
2308,D7,136.167,0.125,41,100.0
2309,B6,136.167,0.125,41,100.0
2310,C#7,136.292,0.125,30,100.0
2311,B-6,136.292,0.125,30,100.0
2312,F7,136.417,0.125,32,100.0
2313,D7,136.417,0.125,32,100.0
2314,B6,136.417,0.125,32,100.0
2315,C7,136.542,0.125,30,100.0
2316,A6,136.542,0.125,30,100.0
2317,D7,136.667,0.125,40,100.0
2318,G#6,136.667,0.125,40,100.0
2319,B6,136.667,0.125,40,100.0
2320,G6,136.792,0.125,30,100.0
2321,B-6,136.792,0.125,30,100.0
2322,D7,136.917,0.125,32,100.0
2323,B6,136.917,0.125,32,100.0
2324,G#6,136.917,0.125,32,100.0
2325,F#6,137.042,0.125,30,100.0
2326,A6,137.042,0.125,30,100.0
2327,B6,137.167,0.125,41,100.0
2328,F6,137.167,0.125,41,100.0
2329,G#6,137.167,0.125,41,100.0
2330,G6,137.292,0.125,31,100.0
2331,E6,137.292,0.125,31,100.0
2332,B6,137.417,0.125,33,100.0
2333,F6,137.417,0.125,33,100.0
2334,G#6,137.417,0.125,33,100.0
2335,E-6,137.542,0.125,31,100.0
2336,F#6,137.542,0.125,31,100.0
2337,G#6,137.667,0.125,40,100.0
2338,D6,137.667,0.125,40,100.0
2339,F6,137.667,0.125,40,100.0
2340,C#6,137.792,0.125,30,100.0
2341,E6,137.792,0.125,30,100.0
2342,G#6,137.917,0.125,32,100.0
2343,F6,137.917,0.125,32,100.0
2344,D6,137.917,0.125,32,100.0
2345,C6,138.042,0.125,30,100.0
2346,E-6,138.042,0.125,30,100.0
2347,F6,138.167,0.125,37,100.0
2348,D6,138.167,0.125,37,100.0
2349,B5,138.167,0.125,37,100.0
2350,B-5,138.292,0.125,27,100.0
2351,C#6,138.292,0.125,27,100.0
2352,F6,138.417,0.125,29,100.0
2353,B5,138.417,0.125,29,100.0
2354,D6,138.417,0.125,29,100.0
2355,A5,138.542,0.125,27,100.0
2356,C6,138.542,0.125,27,100.0
2357,D6,138.667,0.125,36,100.0
2358,B5,138.667,0.125,36,100.0
2359,G#5,138.667,0.125,36,100.0
2360,B-5,138.792,0.125,27,100.0
2361,G5,138.792,0.125,27,100.0
2362,D6,138.917,0.125,29,100.0
2363,G#5,138.917,0.125,29,100.0
2364,B5,138.917,0.125,29,100.0
2365,A5,139.042,0.125,27,100.0
2366,F#5,139.042,0.125,27,100.0
2367,B5,139.167,0.125,36,100.0
2368,F5,139.167,0.125,36,100.0
2369,G#5,139.167,0.125,36,100.0
2370,G5,139.292,0.125,27,100.0
2371,E5,139.292,0.125,27,100.0
2372,B5,139.417,0.125,29,100.0
2373,F5,139.417,0.125,29,100.0
2374,G#5,139.417,0.125,29,100.0
2375,F#5,139.542,0.125,27,100.0
2376,E-5,139.542,0.125,27,100.0
2377,G#5,139.667,0.125,36,100.0
2378,F5,139.667,0.125,36,100.0
2379,D5,139.667,0.125,36,100.0
2380,E5,139.792,0.125,27,100.0
2381,C#5,139.792,0.125,27,100.0
2382,G#5,139.917,0.125,29,100.0
2383,F5,139.917,0.125,29,100.0
2384,D5,139.917,0.125,29,100.0
2385,C5,140.042,0.125,27,100.0
2386,E-5,140.042,0.125,27,100.0
2387,G#5,140.167,0.125,33,100.0
2388,D5,140.167,0.125,33,100.0
2389,F5,140.167,0.125,33,100.0
2390,C#5,140.292,0.125,27,100.0
2391,E5,140.292,0.125,27,100.0
2392,F5,140.417,0.125,27,100.0
2393,D5,140.417,0.125,27,100.0
2394,G#5,140.417,0.125,27,100.0
2395,E5,140.542,0.125,27,100.0
2396,C#5,140.542,0.125,27,100.0
2397,F5,140.667,0.125,33,100.0
2398,D5,140.667,0.125,33,100.0
2399,G#5,140.667,0.125,33,100.0
2400,C#5,140.792,0.125,27,100.0
2401,E5,140.792,0.125,27,100.0
2402,G#5,140.917,0.125,27,100.0
2403,F5,140.917,0.125,27,100.0
2404,D5,140.917,0.125,27,100.0
2405,E5,141.042,0.125,27,100.0
2406,C#5,141.042,0.125,27,100.0
2407,F5,141.167,0.125,33,100.0
2408,D5,141.167,0.125,33,100.0
2409,G#5,141.167,0.125,33,100.0
2410,C#5,141.292,0.125,27,100.0
2411,E5,141.292,0.125,27,100.0
2412,G#5,141.417,0.125,27,100.0
2413,F5,141.417,0.125,27,100.0
2414,D5,141.417,0.125,27,100.0
2415,C#5,141.542,0.125,27,100.0
2416,E5,141.542,0.125,27,100.0
2417,D5,141.667,0.125,33,100.0
2418,F5,141.667,0.125,33,100.0
2419,G#5,141.667,0.125,33,100.0
2420,C#5,141.792,0.125,27,100.0
2421,E5,141.792,0.125,27,100.0
2422,D5,141.917,0.125,27,100.0
2423,G#5,141.917,0.125,27,100.0
2424,F5,141.917,0.125,27,100.0
2425,C#5,142.042,0.125,27,100.0
2426,E5,142.042,0.125,27,100.0
2427,G#5,142.167,0.125,27,100.0
2428,D5,142.167,0.125,27,100.0
2429,F5,142.167,0.125,27,100.0
2430,F#5,142.292,0.125,27,100.0
2431,F5,142.417,0.125,27,100.0
2432,F#5,142.542,0.125,27,100.0
2433,F5,142.667,0.125,25,100.0
2434,F#5,142.792,0.125,25,100.0
2435,F5,142.917,0.125,25,100.0
2436,F#5,143.042,0.125,27,100.0
2437,F5,143.167,0.125,27,100.0
2438,F#5,143.292,0.125,27,100.0
2439,F5,143.417,0.125,27,100.0
2440,F#5,143.542,0.125,27,100.0
2441,F5,143.667,0.125,23,100.0
2442,F#5,143.792,0.125,23,100.0
2443,F5,143.917,0.125,24,100.0
2444,F5,144.0,0.125,26,100.0
2445,F#5,144.042,0.125,24,100.0
2446,F#5,144.125,0.125,23,100.0
2447,F5,144.25,0.125,26,100.0
2448,F#5,144.375,0.125,23,100.0
2449,B-4,144.5,0.25,33,100.0
2450,E5,144.5,0.125,26,100.0
2451,F#5,144.625,0.125,23,100.0
2452,D4,144.667,0.5,32,100.0
2453,G4,144.667,0.25,30,100.0
2454,E5,144.75,0.125,30,100.0
2455,B4,144.75,0.25,30,100.0
2456,F#5,144.875,0.125,23,100.0
2457,G#4,144.917,0.25,26,100.0
2458,E5,145.0,0.125,26,100.0
2459,C5,145.0,0.25,35,100.0
2460,F#5,145.125,0.125,23,100.0
2461,C#4,145.167,0.5,36,100.0
2462,G#4,145.167,0.25,30,100.0
2463,E5,145.25,0.125,26,100.0
2464,C#5,145.25,0.25,31,100.0
2465,F#5,145.375,0.125,23,100.0
2466,A4,145.417,0.25,26,100.0
2467,C#5,145.5,0.25,36,100.0
2468,E5,145.5,0.125,26,100.0
2469,F#5,145.625,0.125,23,100.0
2470,B-4,145.667,0.25,35,100.0
2471,G#3,145.667,0.5,32,100.0
2472,E5,145.75,0.125,26,100.0
2473,D5,145.75,0.25,31,100.0
2474,F#5,145.875,0.125,23,100.0
2475,B4,145.917,0.25,29,100.0
2476,C#5,146.0,0.125,27,100.0
2477,E5,146.0,0.125,27,100.0
2478,F#5,146.125,0.125,23,100.0
2479,A3,146.167,0.5,32,100.0
2480,E4,146.167,0.5,32,100.0
2481,E5,146.25,0.125,35,100.0
2482,C#6,146.25,0.125,35,100.0
2483,F#5,146.375,0.125,19,100.0
2484,C#5,146.375,0.125,19,100.0
2485,E5,146.5,0.125,36,100.0
2486,B5,146.5,0.125,36,100.0
2487,F#5,146.625,0.125,19,100.0
2488,C#5,146.625,0.125,19,100.0
2489,A3,146.667,0.5,26,100.0
2490,E3,146.667,0.5,26,100.0
2491,E4,146.667,0.5,26,100.0
2492,E5,146.75,0.125,33,100.0
2493,A5,146.75,0.125,33,100.0
2494,F#5,146.875,0.125,20,100.0
2495,C#5,146.875,0.125,20,100.0
2496,D5,147.0,0.125,36,100.0
2497,A5,147.0,0.125,36,100.0
2498,B4,147.125,0.125,21,100.0
2499,E5,147.125,0.125,21,100.0
2500,B3,147.167,0.5,26,100.0
2501,E4,147.167,0.5,26,100.0
2502,E3,147.167,0.5,26,100.0
2503,D5,147.25,0.125,34,100.0
2504,G#5,147.25,0.125,34,100.0
2505,E5,147.375,0.125,19,100.0
2506,B4,147.375,0.125,19,100.0
2507,D5,147.5,0.125,36,100.0
2508,G5,147.5,0.125,36,100.0
2509,B4,147.625,0.125,28,100.0
2510,F#5,147.625,0.125,28,100.0
2511,E4,147.667,0.5,27,100.0
2512,G#3,147.667,0.5,27,100.0
2513,F5,147.75,0.125,35,100.0
2514,D5,147.75,0.125,35,100.0
2515,B4,147.875,0.125,19,100.0
2516,C#5,148.0,0.125,36,100.0
2517,E5,148.0,0.125,36,100.0
2518,A4,148.125,0.125,22,100.0
2519,A3,148.167,0.5,32,100.0
2520,E4,148.167,0.5,32,100.0
2521,C#5,148.25,0.125,22,100.0
2522,F#5,148.375,0.125,22,100.0
2523,B-4,148.5,0.25,33,100.0
2524,E5,148.5,0.125,26,100.0
2525,F#5,148.625,0.125,23,100.0
2526,D4,148.667,0.5,32,100.0
2527,G4,148.667,0.25,30,100.0
2528,B4,148.75,0.25,30,100.0
2529,E5,148.75,0.125,30,100.0
2530,F#5,148.875,0.125,23,100.0
2531,G#4,148.917,0.25,26,100.0
2532,E5,149.0,0.125,26,100.0
2533,C5,149.0,0.25,35,100.0
2534,F#5,149.125,0.125,23,100.0
2535,C#4,149.167,0.5,36,100.0
2536,G#4,149.167,0.25,30,100.0
2537,E5,149.25,0.125,26,100.0
2538,C#5,149.25,0.25,31,100.0
2539,F#5,149.375,0.125,23,100.0
2540,A4,149.417,0.25,26,100.0
2541,C#5,149.5,0.25,36,100.0
2542,E5,149.5,0.125,26,100.0
2543,F#5,149.625,0.125,23,100.0
2544,B-4,149.667,0.25,35,100.0
2545,G#3,149.667,0.5,32,100.0
2546,D5,149.75,0.25,31,100.0
2547,E5,149.75,0.125,26,100.0
2548,F#5,149.875,0.125,23,100.0
2549,B4,149.917,0.25,29,100.0
2550,C#5,150.0,0.125,27,100.0
2551,E5,150.0,0.125,27,100.0
2552,F#5,150.125,0.125,23,100.0
2553,E4,150.167,0.5,32,100.0
2554,A3,150.167,0.5,32,100.0
2555,C#6,150.25,0.125,37,100.0
2556,E5,150.25,0.125,37,100.0
2557,F#5,150.375,0.125,19,100.0
2558,C#5,150.375,0.125,19,100.0
2559,E5,150.5,0.125,38,100.0
2560,B5,150.5,0.125,38,100.0
2561,F#5,150.625,0.125,19,100.0
2562,C#5,150.625,0.125,19,100.0
2563,A3,150.667,0.5,26,100.0
2564,E3,150.667,0.5,26,100.0
2565,E4,150.667,0.5,26,100.0
2566,E5,150.75,0.125,36,100.0
2567,A5,150.75,0.125,36,100.0
2568,C#5,150.875,0.125,20,100.0
2569,F#5,150.875,0.125,20,100.0
2570,D5,151.0,0.125,38,100.0
2571,A5,151.0,0.125,38,100.0
2572,B4,151.125,0.125,21,100.0
2573,E5,151.125,0.125,21,100.0
2574,E4,151.167,0.5,26,100.0
2575,E3,151.167,0.5,26,100.0
2576,B3,151.167,0.5,26,100.0
2577,D5,151.25,0.125,36,100.0
2578,G#5,151.25,0.125,36,100.0
2579,E5,151.375,0.125,19,100.0
2580,B4,151.375,0.125,19,100.0
2581,D5,151.5,0.125,38,100.0
2582,G5,151.5,0.125,38,100.0
2583,B4,151.625,0.125,25,100.0
2584,F#5,151.625,0.125,25,100.0
2585,G#3,151.667,0.5,27,100.0
2586,E4,151.667,0.5,27,100.0
2587,F5,151.75,0.125,37,100.0
2588,D5,151.75,0.125,37,100.0
2589,B4,151.875,0.125,23,100.0
2590,E5,152.0,0.125,40,100.0
2591,C#5,152.0,0.125,40,100.0
2592,A4,152.125,0.125,22,100.0
2593,E4,152.167,0.5,27,100.0
2594,A3,152.167,0.5,27,100.0
2595,C#5,152.25,0.125,22,100.0
2596,G#5,152.375,0.125,22,100.0
2597,A5,152.5,0.125,26,100.0
2598,E-5,152.5,0.25,33,100.0
2599,B-5,152.625,0.125,23,100.0
2600,G4,152.667,0.5,32,100.0
2601,C5,152.667,0.25,30,100.0
2602,E5,152.75,0.25,30,100.0
2603,A5,152.75,0.125,30,100.0
2604,B-5,152.875,0.125,23,100.0
2605,C#5,152.917,0.25,26,100.0
2606,A5,153.0,0.125,26,100.0
2607,E5,153.0,0.25,35,100.0
2608,B-5,153.125,0.125,23,100.0
2609,C#5,153.167,0.25,30,100.0
2610,F4,153.167,0.5,36,100.0
2611,F5,153.25,0.25,31,100.0
2612,A5,153.25,0.125,26,100.0
2613,B-5,153.375,0.125,23,100.0
2614,D5,153.417,0.25,26,100.0
2615,A5,153.5,0.125,26,100.0
2616,F#5,153.5,0.25,36,100.0
2617,B-5,153.625,0.125,23,100.0
2618,C#4,153.667,0.5,32,100.0
2619,E-5,153.667,0.25,35,100.0
2620,G5,153.75,0.25,31,100.0
2621,A5,153.75,0.125,26,100.0
2622,B-5,153.875,0.125,23,100.0
2623,E5,153.917,0.25,29,100.0
2624,A5,154.0,0.125,27,100.0
2625,F5,154.0,0.125,27,100.0
2626,B-5,154.125,0.125,23,100.0
2627,D4,154.167,0.5,32,100.0
2628,A4,154.167,0.5,32,100.0
2629,F6,154.25,0.125,40,100.0
2630,A5,154.25,0.125,40,100.0
2631,B-5,154.375,0.125,19,100.0
2632,F5,154.375,0.125,19,100.0
2633,E6,154.5,0.125,40,100.0
2634,A5,154.5,0.125,40,100.0
2635,F5,154.625,0.125,19,100.0
2636,B-5,154.625,0.125,19,100.0
2637,A3,154.667,0.5,26,100.0
2638,A4,154.667,0.5,26,100.0
2639,D4,154.667,0.5,26,100.0
2640,A5,154.75,0.125,38,100.0
2641,D6,154.75,0.125,38,100.0
2642,B-5,154.875,0.125,22,100.0
2643,F5,154.875,0.125,22,100.0
2644,D6,155.0,0.125,40,100.0
2645,G5,155.0,0.125,40,100.0
2646,A5,155.125,0.125,21,100.0
2647,E5,155.125,0.125,21,100.0
2648,E4,155.167,0.5,26,100.0
2649,A3,155.167,0.5,26,100.0
2650,A4,155.167,0.5,26,100.0
2651,C#6,155.25,0.125,38,100.0
2652,G5,155.25,0.125,38,100.0
2653,E5,155.375,0.125,19,100.0
2654,A5,155.375,0.125,19,100.0
2655,G5,155.5,0.125,40,100.0
2656,C6,155.5,0.125,40,100.0
2657,B5,155.625,0.125,32,100.0
2658,E5,155.625,0.125,32,100.0
2659,C#4,155.667,0.5,24,100.0
2660,A4,155.667,0.5,30,100.0
2661,B-5,155.75,0.125,36,100.0
2662,G5,155.75,0.125,36,100.0
2663,E5,155.875,0.125,19,100.0
2664,F5,156.0,0.125,42,100.0
2665,A5,156.0,0.125,42,100.0
2666,D5,156.125,0.125,22,100.0
2667,D4,156.167,0.5,29,100.0
2668,A4,156.167,0.5,30,100.0
2669,F5,156.25,0.125,22,100.0
2670,B-5,156.375,0.125,22,100.0
2671,E-5,156.5,0.25,33,100.0
2672,A5,156.5,0.125,26,100.0
2673,B-5,156.625,0.125,23,100.0
2674,G4,156.667,0.5,32,100.0
2675,C5,156.667,0.25,30,100.0
2676,A5,156.75,0.125,30,100.0
2677,E5,156.75,0.25,30,100.0
2678,B-5,156.875,0.125,23,100.0
2679,C#5,156.917,0.25,26,100.0
2680,E5,157.0,0.25,35,100.0
2681,A5,157.0,0.125,26,100.0
2682,B-5,157.125,0.125,23,100.0
2683,F4,157.167,0.5,36,100.0
2684,C#5,157.167,0.25,30,100.0
2685,F5,157.25,0.25,31,100.0
2686,A5,157.25,0.125,26,100.0
2687,B-5,157.375,0.125,23,100.0
2688,D5,157.417,0.25,26,100.0
2689,F#5,157.5,0.25,36,100.0
2690,A5,157.5,0.125,26,100.0
2691,B-5,157.625,0.125,23,100.0
2692,C#4,157.667,0.5,32,100.0
2693,E-5,157.667,0.25,35,100.0
2694,A5,157.75,0.125,26,100.0
2695,G5,157.75,0.25,31,100.0
2696,B-5,157.875,0.125,23,100.0
2697,E5,157.917,0.25,29,100.0
2698,F5,158.0,0.125,27,100.0
2699,A5,158.0,0.125,27,100.0
2700,B-5,158.125,0.125,23,100.0
2701,A4,158.167,0.5,32,100.0
2702,D4,158.167,0.5,32,100.0
2703,F6,158.25,0.125,37,100.0
2704,A5,158.25,0.125,37,100.0
2705,B-5,158.375,0.125,19,100.0
2706,F5,158.375,0.125,19,100.0
2707,A5,158.5,0.125,38,100.0
2708,E6,158.5,0.125,38,100.0
2709,B-5,158.625,0.125,19,100.0
2710,F5,158.625,0.125,19,100.0
2711,A4,158.667,0.5,26,100.0
2712,D4,158.667,0.5,26,100.0
2713,A3,158.667,0.5,26,100.0
2714,D6,158.75,0.125,36,100.0
2715,A5,158.75,0.125,36,100.0
2716,B-5,158.875,0.125,20,100.0
2717,F5,158.875,0.125,20,100.0
2718,D6,159.0,0.125,38,100.0
2719,G5,159.0,0.125,38,100.0
2720,E5,159.125,0.125,21,100.0
2721,A5,159.125,0.125,21,100.0
2722,A4,159.167,0.5,26,100.0
2723,E4,159.167,0.5,26,100.0
2724,A3,159.167,0.5,26,100.0
2725,C#6,159.25,0.125,36,100.0
2726,G5,159.25,0.125,36,100.0
2727,E5,159.375,0.125,21,100.0
2728,A5,159.375,0.125,21,100.0
2729,G5,159.5,0.125,38,100.0
2730,C6,159.5,0.125,38,100.0
2731,B5,159.625,0.125,30,100.0
2732,E5,159.625,0.125,30,100.0
2733,C#4,159.667,0.5,24,100.0
2734,A4,159.667,0.5,30,100.0
2735,B-5,159.75,0.125,37,100.0
2736,G5,159.75,0.125,37,100.0
2737,E5,159.875,0.125,19,100.0
2738,F5,160.0,0.125,40,100.0
2739,A5,160.0,0.125,40,100.0
2740,D5,160.125,0.125,22,100.0
2741,D4,160.167,0.5,29,100.0
2742,A4,160.167,0.5,30,100.0
2743,F5,160.25,0.125,22,100.0
2744,D6,160.375,0.125,22,100.0
2745,F6,160.5,0.25,45,100.0
2746,F5,160.5,0.125,37,100.0
2747,D6,160.625,0.125,32,100.0
2748,C6,160.625,0.125,32,100.0
2749,C4,160.667,0.5,33,100.0
2750,A2,160.667,0.5,33,100.0
2751,F6,160.75,0.125,34,100.0
2752,F5,160.75,0.125,34,100.0
2753,C6,160.875,0.125,32,100.0
2754,E-6,160.875,0.125,32,100.0
2755,E-6,161.0,0.25,48,100.0
2756,F5,161.0,0.125,39,100.0
2757,C#6,161.125,0.125,32,100.0
2758,B-5,161.125,0.125,32,100.0
2759,B-2,161.167,0.25,26,100.0
2760,D4,161.167,0.25,26,100.0
2761,E-6,161.25,0.125,34,100.0
2762,F5,161.25,0.125,34,100.0
2763,B-5,161.375,0.125,32,100.0
2764,D6,161.375,0.125,32,100.0
2765,D6,161.5,0.25,45,100.0
2766,E-5,161.5,0.125,45,100.0
2767,B5,161.625,0.125,30,100.0
2768,A5,161.625,0.125,30,100.0
2769,C3,161.667,0.5,32,100.0
2770,E-4,161.667,0.5,32,100.0
2771,E-5,161.75,0.125,34,100.0
2772,D6,161.75,0.125,34,100.0
2773,A5,161.875,0.125,35,100.0
2774,C6,161.875,0.125,35,100.0
2775,C6,162.0,0.25,45,100.0
2776,D5,162.0,0.125,37,100.0
2777,F5,162.125,0.125,30,100.0
2778,A5,162.125,0.125,30,100.0
2779,F4,162.167,0.25,22,100.0
2780,D3,162.167,0.25,22,100.0
2781,C6,162.25,0.125,34,100.0
2782,D5,162.25,0.125,34,100.0
2783,F5,162.375,0.125,35,100.0
2784,B-5,162.375,0.125,35,100.0
2785,C5,162.5,0.125,35,100.0
2786,B5,162.5,0.25,42,100.0
2787,G#5,162.625,0.125,33,100.0
2788,F#5,162.625,0.125,33,100.0
2789,F#4,162.667,0.5,28,100.0
2790,E-3,162.667,0.5,28,100.0
2791,C5,162.75,0.125,32,100.0
2792,B5,162.75,0.125,32,100.0
2793,F#5,162.875,0.125,32,100.0
2794,A5,162.875,0.125,32,100.0
2795,A5,163.0,0.25,41,100.0
2796,B4,163.0,0.125,35,100.0
2797,G5,163.125,0.125,30,100.0
2798,E5,163.125,0.125,30,100.0
2799,G#4,163.167,0.25,23,100.0
2800,E3,163.167,0.25,23,100.0
2801,B4,163.25,0.125,32,100.0
2802,A5,163.25,0.125,32,100.0
2803,G#5,163.375,0.125,28,100.0
2804,E5,163.375,0.125,28,100.0
2805,A4,163.5,0.125,35,100.0
2806,G#5,163.5,0.25,41,100.0
2807,F5,163.625,0.125,28,100.0
2808,E-5,163.625,0.125,28,100.0
2809,F#3,163.667,0.5,22,100.0
2810,E-4,163.667,0.25,27,100.0
2811,A4,163.75,0.125,32,100.0
2812,G#5,163.75,0.125,32,100.0
2813,F#5,163.875,0.125,28,100.0
2814,E-5,163.875,0.125,28,100.0
2815,C4,163.917,0.25,23,100.0
2816,F#5,164.0,0.25,38,100.0
2817,G#4,164.0,0.125,32,100.0
2818,E-5,164.125,0.125,26,100.0
2819,B4,164.125,0.125,26,100.0
2820,G#3,164.167,0.5,24,100.0
2821,E4,164.167,0.125,29,100.0
2822,G#4,164.25,0.125,32,100.0
2823,F#5,164.25,0.125,32,100.0
2824,E5,164.375,0.125,28,100.0
2825,B4,164.375,0.125,28,100.0
2826,B3,164.417,0.125,25,100.0
2827,C5,164.5,0.25,28,100.0
2828,E5,164.5,0.125,33,100.0
2829,D5,164.625,0.125,28,100.0
2830,A3,164.667,0.5,29,100.0
2831,F#4,164.667,0.125,29,100.0
2832,E5,164.75,0.125,33,100.0
2833,A4,164.75,0.25,28,100.0
2834,E-5,164.875,0.125,28,100.0
2835,C4,164.917,0.125,24,100.0
2836,D5,165.0,0.25,26,100.0
2837,F#5,165.0,0.125,31,100.0
2838,E-5,165.125,0.125,27,100.0
2839,B3,165.167,0.5,24,100.0
2840,G#4,165.167,0.125,29,100.0
2841,B4,165.25,0.25,27,100.0
2842,F#5,165.25,0.125,32,100.0
2843,E5,165.375,0.125,25,100.0
2844,D4,165.417,0.125,24,100.0
2845,E5,165.5,0.125,28,100.0
2846,A4,165.5,0.125,28,100.0
2847,D5,165.625,0.125,26,100.0
2848,F#4,165.667,0.125,26,100.0
2849,C4,165.667,0.125,26,100.0
2850,E5,165.75,0.125,31,100.0
2851,E-5,165.875,0.125,26,100.0
2852,F#5,166.0,0.125,30,100.0
2853,B4,166.0,0.125,30,100.0
2854,E5,166.125,0.125,28,100.0
2855,D4,166.167,0.125,26,100.0
2856,G#4,166.167,0.125,26,100.0
2857,F#5,166.25,0.125,31,100.0
2858,F5,166.375,0.125,28,100.0
2859,E5,166.5,0.125,33,100.0
2860,F#5,166.625,0.125,30,100.0
2861,B4,166.667,0.125,40,100.0
2862,G#4,166.667,0.125,40,100.0
2863,E5,166.75,0.125,33,100.0
2864,F#6,166.875,0.125,39,100.0
2865,D4,166.917,0.125,32,100.0
2866,E6,167.0,0.125,39,100.0
2867,F#5,167.125,0.125,33,100.0
2868,A4,167.167,0.125,44,100.0
2869,C#5,167.167,0.125,44,100.0
2870,E5,167.25,0.125,33,100.0
2871,F#4,167.375,0.125,30,100.0
2872,C#4,167.417,0.125,31,100.0
2873,E4,167.5,0.125,33,100.0
2874,F#4,167.625,0.125,29,100.0
2875,D5,167.667,0.125,44,100.0
2876,G#4,167.667,0.125,44,100.0
2877,E4,167.75,0.125,33,100.0
2878,F#5,167.875,0.125,32,100.0
2879,B3,167.917,0.125,32,100.0
2880,E5,168.0,0.125,27,100.0
2881,A3,168.104,0.062,38,100.0
2882,F#5,168.125,0.125,23,100.0
2883,C#5,168.125,0.125,23,100.0
2884,C#5,168.167,0.5,43,100.0
2885,A3,168.167,0.5,38,100.0
2886,C#6,168.25,0.125,40,100.0
2887,E5,168.25,0.125,40,100.0
2888,E-4,168.354,0.062,36,100.0
2889,C#5,168.375,0.125,23,100.0
2890,F#5,168.375,0.125,23,100.0
2891,E4,168.417,0.125,48,100.0
2892,B5,168.5,0.125,40,100.0
2893,E5,168.5,0.125,40,100.0
2894,C#5,168.625,0.125,23,100.0
2895,F#5,168.625,0.125,23,100.0
2896,C#3,168.667,0.125,37,100.0
2897,A5,168.75,0.125,39,100.0
2898,E5,168.75,0.125,39,100.0
2899,F#4,168.854,0.062,32,100.0
2900,C#5,168.875,0.125,24,100.0
2901,F#5,168.875,0.125,24,100.0
2902,E4,168.917,0.125,45,100.0
2903,A5,169.0,0.125,40,100.0
2904,D5,169.0,0.125,40,100.0
2905,B4,169.125,0.125,25,100.0
2906,E5,169.125,0.125,25,100.0
2907,E2,169.167,0.125,38,100.0
2908,D5,169.25,0.125,36,100.0
2909,G#5,169.25,0.125,36,100.0
2910,E-4,169.354,0.062,26,100.0
2911,B4,169.375,0.125,23,100.0
2912,E5,169.375,0.125,23,100.0
2913,E4,169.417,0.125,42,100.0
2914,G5,169.5,0.125,37,100.0
2915,D5,169.5,0.125,37,100.0
2916,B4,169.625,0.125,32,100.0
2917,F#5,169.625,0.125,32,100.0
2918,G#2,169.667,0.125,37,100.0
2919,F5,169.75,0.125,40,100.0
2920,D5,169.75,0.125,40,100.0
2921,F4,169.854,0.062,31,100.0
2922,B4,169.875,0.125,23,100.0
2923,E4,169.917,0.125,42,100.0
2924,E5,170.0,0.125,40,100.0
2925,C#5,170.0,0.125,40,100.0
2926,A4,170.125,0.125,22,100.0
2927,A2,170.167,0.125,39,100.0
2928,C#5,170.25,0.125,22,100.0
2929,E-4,170.354,0.062,26,100.0
2930,F#5,170.375,0.125,22,100.0
2931,E4,170.417,0.125,43,100.0
2932,E5,170.5,0.125,33,100.0
2933,F#5,170.625,0.125,30,100.0
2934,B4,170.667,0.125,40,100.0
2935,G#4,170.667,0.125,40,100.0
2936,E5,170.75,0.125,33,100.0
2937,F#6,170.875,0.125,39,100.0
2938,D4,170.917,0.125,32,100.0
2939,E6,171.0,0.125,39,100.0
2940,F#5,171.125,0.125,33,100.0
2941,C#5,171.167,0.125,44,100.0
2942,A4,171.167,0.125,44,100.0
2943,E5,171.25,0.125,30,100.0
2944,F#4,171.375,0.125,33,100.0
2945,C#4,171.417,0.125,31,100.0
2946,E4,171.5,121/500,30,100.0
2947,F#4,171.625,0.125,33,100.0
2948,D5,171.667,0.125,44,100.0
2949,G#4,171.667,0.125,44,100.0
2950,E4,171.75,0.125,30,100.0
2951,F#5,171.875,0.125,33,100.0
2952,B3,171.917,0.125,32,100.0
2953,E5,172.0,0.125,27,100.0
2954,A3,172.123,11/250,40,100.0
2955,C#5,172.123,11/250,40,100.0
2956,F#5,172.125,0.125,23,100.0
2957,C#5,172.125,0.125,23,100.0
2958,A3,172.167,57/125,40,100.0
2959,C#5,172.167,57/125,40,100.0
2960,C#6,172.25,0.125,40,100.0
2961,E5,172.25,0.125,40,100.0
2962,E-4,172.354,0.062,36,100.0
2963,F#5,172.375,0.125,23,100.0
2964,C#5,172.375,0.125,23,100.0
2965,E4,172.417,0.125,48,100.0
2966,E5,172.5,0.125,40,100.0
2967,B5,172.5,0.125,40,100.0
2968,F#5,172.625,0.125,23,100.0
2969,C#5,172.625,0.125,23,100.0
2970,C#3,172.667,0.125,37,100.0
2971,E5,172.75,0.125,38,100.0
2972,A5,172.75,0.125,38,100.0
2973,F#4,172.854,0.062,32,100.0
2974,F#5,172.875,0.125,24,100.0
2975,C#5,172.875,0.125,24,100.0
2976,E4,172.917,0.125,45,100.0
2977,A5,173.0,0.125,40,100.0
2978,D5,173.0,0.125,40,100.0
2979,B4,173.125,0.125,25,100.0
2980,E5,173.125,0.125,25,100.0
2981,E2,173.167,0.125,38,100.0
2982,D5,173.25,0.125,38,100.0
2983,G#5,173.25,0.125,38,100.0
2984,E-4,173.354,0.062,26,100.0
2985,E5,173.375,0.125,23,100.0
2986,B4,173.375,0.125,23,100.0
2987,E4,173.417,0.125,42,100.0
2988,D5,173.5,0.125,40,100.0
2989,G5,173.5,0.125,40,100.0
2990,F#5,173.625,0.125,30,100.0
2991,B4,173.625,0.125,30,100.0
2992,G#2,173.667,0.125,37,100.0
2993,F5,173.75,0.125,40,100.0
2994,D5,173.75,0.125,40,100.0
2995,F4,173.854,0.062,31,100.0
2996,B4,173.875,0.125,23,100.0
2997,E4,173.917,0.125,42,100.0
2998,E5,174.0,0.125,40,100.0
2999,C#5,174.0,0.125,40,100.0
3000,A4,174.125,0.125,22,100.0
3001,A2,174.167,0.125,39,100.0
3002,C#5,174.25,0.125,22,100.0
3003,E-4,174.354,0.062,26,100.0
3004,G#5,174.375,0.125,25,100.0
3005,E4,174.417,0.125,43,100.0
3006,A5,174.5,0.125,33,100.0
3007,B-5,174.625,0.125,30,100.0
3008,C#5,174.667,0.125,40,100.0
3009,E5,174.667,0.125,40,100.0
3010,A5,174.75,0.125,33,100.0
3011,B-6,174.875,0.125,38,100.0
3012,G4,174.917,0.125,32,100.0
3013,A6,175.0,0.125,38,100.0
3014,B-5,175.125,0.125,33,100.0
3015,F5,175.167,0.125,44,100.0
3016,D5,175.167,0.125,44,100.0
3017,A5,175.25,0.125,31,100.0
3018,B-4,175.375,0.125,33,100.0
3019,F4,175.417,0.125,31,100.0
3020,A4,175.5,6/25,30,100.0
3021,B-4,175.625,0.125,33,100.0
3022,C#5,175.667,0.125,44,100.0
3023,G5,175.667,0.125,44,100.0
3024,A4,175.75,0.125,31,100.0
3025,B-5,175.875,0.125,33,100.0
3026,E4,175.917,0.125,32,100.0
3027,A5,176.0,0.125,27,100.0
3028,F5,176.125,0.125,23,100.0
3029,B-5,176.125,0.125,23,100.0
3030,D4,176.167,0.5,43,100.0
3031,F5,176.167,0.5,43,100.0
3032,A5,176.25,0.125,40,100.0
3033,F6,176.25,0.125,40,100.0
3034,G#4,176.354,0.062,36,100.0
3035,B-5,176.375,0.125,23,100.0
3036,F5,176.375,0.125,23,100.0
3037,A4,176.417,0.125,48,100.0
3038,A5,176.5,0.125,40,100.0
3039,E6,176.5,0.125,40,100.0
3040,B-5,176.625,0.125,23,100.0
3041,F5,176.625,0.125,23,100.0
3042,F3,176.667,0.125,37,100.0
3043,D6,176.75,0.125,39,100.0
3044,A5,176.75,0.125,39,100.0
3045,B-4,176.854,0.062,32,100.0
3046,F5,176.875,0.125,24,100.0
3047,B-5,176.875,0.125,24,100.0
3048,A4,176.917,0.125,45,100.0
3049,D6,177.0,0.125,40,100.0
3050,G5,177.0,0.125,40,100.0
3051,A5,177.125,0.125,25,100.0
3052,E5,177.125,0.125,25,100.0
3053,A2,177.167,0.125,38,100.0
3054,C#6,177.25,0.125,39,100.0
3055,G5,177.25,0.125,39,100.0
3056,G#4,177.354,0.062,26,100.0
3057,A5,177.375,0.125,23,100.0
3058,E5,177.375,0.125,23,100.0
3059,A4,177.417,0.125,42,100.0
3060,G5,177.5,0.125,40,100.0
3061,C6,177.5,0.125,40,100.0
3062,B5,177.625,0.125,32,100.0
3063,E5,177.625,0.125,32,100.0
3064,C#3,177.667,0.125,37,100.0
3065,B-5,177.75,0.125,40,100.0
3066,G5,177.75,0.125,40,100.0
3067,B-4,177.854,0.062,31,100.0
3068,E5,177.875,0.125,23,100.0
3069,A4,177.917,0.125,42,100.0
3070,F5,178.0,0.125,40,100.0
3071,A5,178.0,0.125,40,100.0
3072,D5,178.125,0.125,22,100.0
3073,D3,178.167,0.125,39,100.0
3074,F5,178.25,0.125,22,100.0
3075,G#4,178.354,0.062,26,100.0
3076,B-5,178.375,0.125,22,100.0
3077,A4,178.417,0.125,43,100.0
3078,A5,178.5,0.125,33,100.0
3079,B-5,178.625,0.125,29,100.0
3080,E5,178.667,0.125,40,100.0
3081,C#5,178.667,0.125,40,100.0
3082,A5,178.75,0.125,33,100.0
3083,B-6,178.875,0.125,38,100.0
3084,G4,178.917,0.125,32,100.0
3085,A6,179.0,0.125,38,100.0
3086,B-5,179.125,0.125,33,100.0
3087,D5,179.167,0.125,44,100.0
3088,F5,179.167,0.125,44,100.0
3089,A5,179.25,0.125,31,100.0
3090,B-4,179.375,0.125,33,100.0
3091,F4,179.417,0.125,31,100.0
3092,A4,179.5,0.125,31,100.0
3093,B-4,179.625,0.125,33,100.0
3094,C#5,179.667,0.125,44,100.0
3095,G5,179.667,0.125,44,100.0
3096,A4,179.75,0.125,30,100.0
3097,B-5,179.875,0.125,33,100.0
3098,E4,179.917,0.125,32,100.0
3099,A5,180.0,0.125,27,100.0
3100,F5,180.125,0.125,23,100.0
3101,B-5,180.125,0.125,23,100.0
3102,D4,180.167,0.5,43,100.0
3103,F5,180.167,0.5,43,100.0
3104,F6,180.25,0.125,40,100.0
3105,A5,180.25,0.125,40,100.0
3106,G#4,180.354,0.062,36,100.0
3107,F5,180.375,0.125,23,100.0
3108,B-5,180.375,0.125,23,100.0
3109,A4,180.417,0.125,48,100.0
3110,A5,180.5,0.125,40,100.0
3111,E6,180.5,0.125,40,100.0
3112,F5,180.625,0.125,23,100.0
3113,B-5,180.625,0.125,23,100.0
3114,F3,180.667,0.125,37,100.0
3115,A5,180.75,0.125,39,100.0
3116,D6,180.75,0.125,39,100.0
3117,B-4,180.854,0.062,32,100.0
3118,B-5,180.875,0.125,24,100.0
3119,F5,180.875,0.125,24,100.0
3120,A4,180.917,0.125,45,100.0
3121,D6,181.0,0.125,38,100.0
3122,G5,181.0,0.125,38,100.0
3123,A5,181.125,0.125,25,100.0
3124,E5,181.125,0.125,25,100.0
3125,A2,181.167,0.125,38,100.0
3126,G5,181.25,0.125,39,100.0
3127,C#6,181.25,0.125,39,100.0
3128,G#4,181.354,0.062,26,100.0
3129,E5,181.375,0.125,23,100.0
3130,A5,181.375,0.125,23,100.0
3131,A4,181.417,0.125,42,100.0
3132,C6,181.5,0.125,40,100.0
3133,G5,181.5,0.125,40,100.0
3134,B5,181.625,0.125,32,100.0
3135,E5,181.625,0.125,32,100.0
3136,C#3,181.667,0.125,37,100.0
3137,G5,181.75,0.125,40,100.0
3138,B-5,181.75,0.125,40,100.0
3139,B-4,181.854,0.062,31,100.0
3140,E5,181.875,0.125,23,100.0
3141,A4,181.917,0.125,42,100.0
3142,A5,182.0,0.125,40,100.0
3143,F5,182.0,0.125,40,100.0
3144,D5,182.125,0.125,22,100.0
3145,D3,182.167,0.125,39,100.0
3146,F5,182.25,0.125,22,100.0
3147,D6,182.375,0.125,25,100.0
3148,F6,182.5,0.375,53,100.0
3149,F5,182.5,0.125,44,100.0
3150,C6,182.625,0.125,44,100.0
3151,A5,182.625,0.125,44,100.0
3152,F1,182.667,0.5,44,100.0
3153,F2,182.667,0.125,44,100.0
3154,E-5,182.75,0.125,41,100.0
3155,F#2,182.792,0.125,36,100.0
3156,E-6,182.875,0.125,49,100.0
3157,F2,182.917,0.125,36,100.0
3158,C#6,183.0,0.375,57,100.0
3159,C#5,183.0,0.125,46,100.0
3160,F#2,183.042,0.125,36,100.0
3161,B-5,183.125,0.125,41,100.0
3162,F5,183.125,0.125,41,100.0
3163,F2,183.167,0.5,45,100.0
3164,F3,183.167,0.125,45,100.0
3165,D5,183.25,0.125,45,100.0
3166,F#3,183.292,0.125,38,100.0
3167,D6,183.375,0.125,50,100.0
3168,F3,183.417,0.125,38,100.0
3169,G#5,183.5,0.375,54,100.0
3170,G#4,183.5,0.125,54,100.0
3171,F#3,183.542,0.125,38,100.0
3172,E-5,183.625,0.125,35,100.0
3173,C5,183.625,0.125,35,100.0
3174,F4,183.667,0.125,45,100.0
3175,F3,183.667,0.5,45,100.0
3176,A4,183.75,0.125,43,100.0
3177,F#4,183.792,0.125,38,100.0
3178,A5,183.875,0.125,51,100.0
3179,F4,183.917,0.125,37,100.0
3180,C5,184.0,0.125,46,100.0
3181,C6,184.0,0.375,55,100.0
3182,F#4,184.042,0.125,37,100.0
3183,F5,184.125,0.125,47,100.0
3184,D5,184.125,0.125,47,100.0
3185,F4,184.167,0.125,46,100.0
3186,B-4,184.25,0.125,43,100.0
3187,G4,184.292,0.125,37,100.0
3188,B-5,184.375,0.125,43,100.0
3189,F4,184.417,0.125,37,100.0
3190,F5,184.5,0.125,47,100.0
3191,F6,184.5,0.375,56,100.0
3192,C6,184.625,0.125,47,100.0
3193,A5,184.625,0.125,47,100.0
3194,F1,184.667,0.5,47,100.0
3195,F2,184.667,0.125,47,100.0
3196,E-5,184.75,0.125,44,100.0
3197,F#2,184.792,0.125,39,100.0
3198,E-6,184.875,0.125,52,100.0
3199,F2,184.917,0.125,39,100.0
3200,C#5,185.0,0.125,49,100.0
3201,C#6,185.0,0.375,61,100.0
3202,F#2,185.042,0.125,39,100.0
3203,B-5,185.125,0.125,43,100.0
3204,F5,185.125,0.125,43,100.0
3205,F2,185.167,0.5,48,100.0
3206,F3,185.167,0.125,48,100.0
3207,D5,185.25,0.125,48,100.0
3208,F#3,185.292,0.125,40,100.0
3209,D6,185.375,0.125,53,100.0
3210,F3,185.417,0.125,40,100.0
3211,G#5,185.5,0.375,58,100.0
3212,G#4,185.5,0.125,58,100.0
3213,F#3,185.542,0.125,40,100.0
3214,E-5,185.625,0.125,37,100.0
3215,C5,185.625,0.125,37,100.0
3216,F3,185.667,0.5,48,100.0
3217,F4,185.667,0.125,48,100.0
3218,A4,185.75,0.125,46,100.0
3219,F#4,185.792,0.125,40,100.0
3220,A5,185.875,0.125,54,100.0
3221,F4,185.917,0.125,39,100.0
3222,C6,186.0,0.375,58,100.0
3223,C5,186.0,0.125,49,100.0
3224,F#4,186.042,0.125,39,100.0
3225,D5,186.125,0.125,49,100.0
3226,F5,186.125,0.125,49,100.0
3227,F4,186.167,0.125,49,100.0
3228,B-4,186.25,0.125,46,100.0
3229,G4,186.292,0.125,40,100.0
3230,B-5,186.375,0.125,46,100.0
3231,F4,186.417,0.125,40,100.0
3232,B-5,186.5,0.125,56,100.0
3233,B-6,186.5,0.375,70,100.0
3234,F6,186.625,0.125,56,100.0
3235,D6,186.625,0.125,56,100.0
3236,B-1,186.667,0.5,56,100.0
3237,B-2,186.667,0.125,56,100.0
3238,G#5,186.75,0.125,54,100.0
3239,B2,186.792,0.125,47,100.0
3240,G#6,186.875,0.125,63,100.0
3241,B-2,186.917,0.125,47,100.0
3242,F5,187.0,0.125,60,100.0
3243,F6,187.0,0.375,72,100.0
3244,B2,187.042,0.125,47,100.0
3245,E-6,187.125,0.125,51,100.0
3246,B-5,187.125,0.125,51,100.0
3247,B-2,187.167,0.5,57,100.0
3248,B-3,187.167,0.125,57,100.0
3249,F#5,187.25,0.125,59,100.0
3250,B3,187.292,0.125,50,100.0
3251,F#6,187.375,0.125,64,100.0
3252,B-3,187.417,0.125,50,100.0
3253,C#5,187.5,0.125,71,100.0
3254,C#6,187.5,0.375,71,100.0
3255,B3,187.542,0.125,51,100.0
3256,F5,187.625,0.125,46,100.0
3257,G#5,187.625,0.125,46,100.0
3258,B-3,187.667,0.5,57,100.0
3259,B-4,187.667,0.125,57,100.0
3260,D5,187.75,0.125,56,100.0
3261,B4,187.792,0.125,51,100.0
3262,D6,187.875,0.125,66,100.0
3263,B-4,187.917,0.125,44,100.0
3264,F6,188.0,0.375,72,100.0
3265,F5,188.0,0.125,58,100.0
3266,B4,188.042,0.125,44,100.0
3267,F#5,188.125,0.125,59,100.0
3268,B-5,188.125,0.125,59,100.0
3269,B-4,188.167,0.125,58,100.0
3270,E-5,188.25,0.125,56,100.0
3271,E-6,188.375,0.125,56,100.0
3272,B-6,188.5,0.375,81,100.0
3273,B-5,188.5,0.125,66,100.0
3274,D6,188.625,0.125,66,100.0
3275,F6,188.625,0.125,66,100.0
3276,B-1,188.667,0.5,66,100.0
3277,B-2,188.667,0.125,66,100.0
3278,G#5,188.75,0.125,61,100.0
3279,B2,188.792,0.125,54,100.0
3280,G#6,188.875,0.125,74,100.0
3281,B-2,188.917,0.125,54,100.0
3282,F6,189.0,0.375,84,100.0
3283,F5,189.0,0.125,69,100.0
3284,B2,189.042,0.125,54,100.0
3285,E-6,189.125,0.125,60,100.0
3286,B-5,189.125,0.125,60,100.0
3287,B-3,189.167,0.125,67,100.0
3288,B-2,189.167,0.5,67,100.0
3289,F#5,189.25,0.125,68,100.0
3290,B3,189.292,0.125,58,100.0
3291,F#6,189.375,0.125,74,100.0
3292,B-3,189.417,0.125,58,100.0
3293,C#6,189.5,0.375,83,100.0
3294,C#5,189.5,0.125,83,100.0
3295,B3,189.542,0.125,59,100.0
3296,G#5,189.625,0.125,53,100.0
3297,F5,189.625,0.125,53,100.0
3298,B-4,189.667,0.125,67,100.0
3299,B-3,189.667,0.5,67,100.0
3300,D5,189.75,0.125,64,100.0
3301,B4,189.792,0.125,59,100.0
3302,D6,189.875,0.125,76,100.0
3303,B-4,189.917,0.125,51,100.0
3304,F5,190.0,0.125,68,100.0
3305,F6,190.0,0.375,84,100.0
3306,B4,190.042,0.125,51,100.0
3307,B-5,190.125,0.125,69,100.0
3308,F#5,190.125,0.125,69,100.0
3309,B-4,190.167,0.125,68,100.0
3310,E-5,190.25,0.125,64,100.0
3311,E-6,190.375,0.125,64,100.0
3312,C#6,190.5,0.125,75,100.0
3313,C#7,190.5,0.375,91,100.0
3314,F#6,190.625,0.125,75,100.0
3315,B-2,190.667,0.125,85,100.0
3316,B-1,190.667,0.125,85,100.0
3317,C#6,190.75,0.125,70,100.0
3318,C#7,190.875,0.125,83,100.0
3319,F#2,190.917,0.125,76,100.0
3320,F#3,190.917,0.125,76,100.0
3321,E7,191.0,0.375,92,100.0
3322,E6,191.0,0.125,80,100.0
3323,F#6,191.125,0.125,68,100.0
3324,B1,191.167,0.125,89,100.0
3325,B2,191.167,0.125,89,100.0
3326,E-6,191.25,0.125,78,100.0
3327,E-7,191.375,0.125,82,100.0
3328,F#3,191.417,0.125,76,100.0
3329,F#2,191.417,0.125,76,100.0
3330,A5,191.5,0.125,91,100.0
3331,A6,191.5,0.375,91,100.0
3332,F#6,191.625,0.125,60,100.0
3333,E6,191.625,0.125,60,100.0
3334,C#3,191.667,0.125,88,100.0
3335,C#2,191.667,0.125,88,100.0
3336,B-5,191.75,0.125,72,100.0
3337,B-6,191.875,0.125,83,100.0
3338,F#2,191.917,0.125,81,100.0
3339,F#3,191.917,0.125,81,100.0
3340,C#7,192.0,0.375,91,100.0
3341,C#6,192.0,0.125,75,100.0
3342,F#6,192.125,0.125,75,100.0
3343,E-6,192.125,0.125,75,100.0
3344,E-2,192.167,0.125,88,100.0
3345,E-3,192.167,0.125,88,100.0
3346,B5,192.25,0.125,70,100.0
3347,B6,192.375,0.125,70,100.0
3348,F#2,192.417,0.125,83,100.0
3349,F#3,192.417,0.125,83,100.0
3350,G6,192.5,0.125,61,100.0
3351,C7,192.5,0.125,61,100.0
3352,C#6,192.625,0.125,51,100.0
3353,B-6,192.625,0.125,51,100.0
3354,E3,192.667,0.125,88,100.0
3355,E2,192.667,0.125,88,100.0
3356,C7,192.75,0.125,51,100.0
3357,G6,192.75,0.125,51,100.0
3358,C#6,192.875,0.125,51,100.0
3359,B-6,192.875,0.125,51,100.0
3360,G3,192.917,0.125,84,100.0
3361,B-2,192.917,0.125,84,100.0
3362,A6,193.0,0.125,55,100.0
3363,E6,193.0,0.125,55,100.0
3364,B-5,193.125,0.125,46,100.0
3365,G6,193.125,0.125,46,100.0
3366,B-3,193.167,0.125,83,100.0
3367,C#3,193.167,0.125,83,100.0
3368,A6,193.25,0.125,45,100.0
3369,E6,193.25,0.125,45,100.0
3370,B-5,193.375,0.125,45,100.0
3371,G6,193.375,0.125,45,100.0
3372,C#4,193.417,0.125,84,100.0
3373,E3,193.417,0.125,84,100.0
3374,F#6,193.5,0.125,54,100.0
3375,C#6,193.5,0.125,54,100.0
3376,G5,193.625,0.125,44,100.0
3377,E6,193.625,0.125,44,100.0
3378,E4,193.667,0.125,84,100.0
3379,G3,193.667,0.125,84,100.0
3380,F#6,193.75,0.125,44,100.0
3381,C#6,193.75,0.125,44,100.0
3382,E6,193.875,0.125,42,100.0
3383,G5,193.875,0.125,42,100.0
3384,G4,193.917,0.125,84,100.0
3385,B-3,193.917,0.125,84,100.0
3386,E-6,194.0,0.125,47,100.0
3387,G5,194.0,0.125,47,100.0
3388,E5,194.125,0.125,36,100.0
3389,C#6,194.125,0.125,36,100.0
3390,C#4,194.167,0.125,79,100.0
3391,B-4,194.167,0.125,79,100.0
3392,G5,194.25,0.125,36,100.0
3393,E-6,194.25,0.125,36,100.0
3394,E5,194.375,0.125,36,100.0
3395,C#6,194.375,0.125,36,100.0
3396,E4,194.417,0.125,74,100.0
3397,C#5,194.417,0.125,74,100.0
3398,G5,194.5,0.125,44,100.0
3399,C6,194.5,0.125,44,100.0
3400,C#5,194.625,0.125,34,100.0
3401,A5,194.625,0.125,34,100.0
3402,E5,194.667,0.125,73,100.0
3403,G5,194.75,0.125,34,100.0
3404,C6,194.75,0.125,34,100.0
3405,C#5,194.875,0.125,34,100.0
3406,B-5,194.875,0.125,34,100.0
3407,E4,194.917,0.125,68,100.0
3408,A5,195.0,0.125,40,100.0
3409,E5,195.0,0.125,40,100.0
3410,B-4,195.125,0.125,32,100.0
3411,F#5,195.125,0.125,32,100.0
3412,C#5,195.167,0.125,63,100.0
3413,E5,195.25,0.125,32,100.0
3414,A5,195.25,0.125,32,100.0
3415,B-4,195.375,0.125,30,100.0
3416,G5,195.375,0.125,30,100.0
3417,C#4,195.417,0.125,57,100.0
3418,F5,195.5,0.125,38,100.0
3419,C#5,195.5,0.125,38,100.0
3420,G4,195.625,0.125,28,100.0
3421,E-5,195.625,0.125,28,100.0
3422,B-4,195.667,0.125,53,100.0
3423,F5,195.75,0.125,28,100.0
3424,C#5,195.75,0.125,28,100.0
3425,E5,195.875,0.125,28,100.0
3426,G4,195.875,0.125,28,100.0
3427,B-3,195.917,0.125,45,100.0
3428,G5,196.0,0.375,42,100.0
3429,B-4,196.0,0.125,32,100.0
3430,D5,196.0,0.125,32,100.0
3431,F4,196.125,0.125,29,100.0
3432,D4,196.167,0.25,29,100.0
3433,B-4,196.25,0.125,36,100.0
3434,F5,196.375,0.125,33,100.0
3435,D5,196.5,0.375,42,100.0
3436,G#4,196.5,0.125,32,100.0
3437,F4,196.625,0.125,32,100.0
3438,F3,196.667,1.0,18,100.0
3439,B3,196.667,0.5,22,100.0
3440,G#4,196.75,0.125,32,100.0
3441,E-5,196.875,0.125,33,100.0
3442,D5,197.0,0.375,42,100.0
3443,E4,197.0,0.125,32,100.0
3444,B-4,197.0,0.125,32,100.0
3445,G4,197.125,0.125,32,100.0
3446,C4,197.167,0.5,22,100.0
3447,E4,197.25,0.125,32,100.0
3448,C5,197.375,0.125,33,100.0
3449,E-4,197.5,0.125,32,100.0
3450,G4,197.5,0.375,42,100.0
3451,C4,197.625,0.125,32,100.0
3452,E2,197.667,0.125,33,100.0
3453,E-4,197.75,0.125,32,100.0
3454,F2,197.792,0.125,29,100.0
3455,A4,197.875,0.125,33,100.0
3456,E2,197.917,0.125,35,100.0
3457,G5,198.0,0.375,42,100.0
3458,B-4,198.0,0.125,32,100.0
3459,D5,198.0,0.125,32,100.0
3460,F2,198.042,0.125,29,100.0
3461,F4,198.125,0.125,29,100.0
3462,F3,198.167,0.125,29,100.0
3463,F2,198.167,0.125,29,100.0
3464,B-4,198.25,0.125,36,100.0
3465,F5,198.375,0.125,33,100.0
3466,G#4,198.5,0.125,32,100.0
3467,D5,198.5,0.375,42,100.0
3468,F4,198.625,0.125,32,100.0
3469,B3,198.667,0.5,22,100.0
3470,F3,198.667,1.0,18,100.0
3471,G#4,198.75,0.125,32,100.0
3472,E-5,198.875,0.125,33,100.0
3473,D5,199.0,0.375,42,100.0
3474,B-4,199.0,0.125,32,100.0
3475,E4,199.0,0.125,32,100.0
3476,G4,199.125,0.125,32,100.0
3477,C4,199.167,0.5,22,100.0
3478,E4,199.25,0.125,32,100.0
3479,C5,199.375,0.125,33,100.0
3480,E-4,199.5,0.125,32,100.0
3481,G4,199.5,0.375,42,100.0
3482,C4,199.625,0.125,32,100.0
3483,E2,199.667,0.125,33,100.0
3484,E-4,199.75,0.125,32,100.0
3485,F2,199.792,0.125,29,100.0
3486,A4,199.875,0.125,33,100.0
3487,E2,199.917,0.125,35,100.0
3488,D4,200.0,0.125,32,100.0
3489,C5,200.0,0.375,42,100.0
3490,F2,200.042,0.125,29,100.0
3491,F4,200.125,0.125,29,100.0
3492,F3,200.167,0.125,29,100.0
3493,F2,200.167,0.125,29,100.0
3494,D4,200.25,0.125,36,100.0
3495,B-4,200.375,0.125,33,100.0
3496,G#3,200.5,0.125,32,100.0
3497,G4,200.5,0.375,42,100.0
3498,D4,200.625,0.125,32,100.0
3499,F2,200.667,1.0,18,100.0
3500,B2,200.667,0.5,22,100.0
3501,D3,200.667,0.5,22,100.0
3502,G#3,200.75,0.125,32,100.0
3503,D4,200.875,0.125,30,100.0
3504,F4,200.875,0.125,30,100.0
3505,F4,201.0,0.375,42,100.0
3506,G3,201.0,0.125,32,100.0
3507,C4,201.125,0.125,32,100.0
3508,C3,201.167,0.5,22,100.0
3509,E-3,201.167,0.5,22,100.0
3510,G3,201.25,0.125,32,100.0
3511,E-4,201.375,0.125,30,100.0
3512,C4,201.375,0.125,30,100.0
3513,E-3,201.5,0.125,32,100.0
3514,C4,201.5,0.375,42,100.0
3515,A3,201.625,0.125,32,100.0
3516,F#2,201.667,0.125,33,100.0
3517,E-3,201.75,0.125,32,100.0
3518,F2,201.792,0.125,29,100.0
3519,D4,201.875,0.125,32,100.0
3520,A3,201.875,0.125,32,100.0
3521,F#2,201.917,0.125,35,100.0
3522,F2,202.042,0.125,29,100.0
3523,B-3,202.167,0.25,35,100.0
3524,B-1,202.167,0.25,35,100.0
3525,D3,202.167,0.25,35,100.0
3526,F4,202.25,0.125,35,100.0
3527,D4,202.25,0.125,35,100.0
3528,D5,202.25,0.125,35,100.0
3529,B-3,202.417,0.125,22,100.0
3530,D3,202.417,0.125,22,100.0
3531,F3,202.417,0.125,22,100.0
3532,D4,202.5,0.125,32,100.0
3533,C5,202.5,0.125,32,100.0
3534,F4,202.5,0.125,32,100.0
3535,B-3,202.667,0.125,19,100.0
3536,F3,202.667,0.125,19,100.0
3537,D3,202.667,0.125,19,100.0
3538,D4,202.75,0.125,32,100.0
3539,F4,202.75,0.125,32,100.0
3540,B4,202.75,0.125,32,100.0
3541,F3,202.917,0.125,19,100.0
3542,D3,202.917,0.125,19,100.0
3543,B-3,202.917,0.125,19,100.0
3544,F4,203.0,0.125,35,100.0
3545,D4,203.0,0.125,35,100.0
3546,B-4,203.0,0.125,35,100.0
3547,D3,203.167,0.125,22,100.0
3548,B-3,203.167,0.125,22,100.0
3549,F3,203.167,0.125,22,100.0
3550,D4,203.25,0.125,32,100.0
3551,D5,203.25,0.125,32,100.0
3552,F4,203.25,0.125,32,100.0
3553,D3,203.417,0.125,19,100.0
3554,F3,203.417,0.125,19,100.0
3555,B-3,203.417,0.125,19,100.0
3556,C5,203.5,0.125,39,100.0
3557,F4,203.5,0.25,33,100.0
3558,D4,203.5,0.25,33,100.0
3559,B4,203.625,0.125,36,100.0
3560,F3,203.667,0.125,19,100.0
3561,D3,203.667,0.125,19,100.0
3562,B-3,203.667,0.125,19,100.0
3563,B-4,203.75,0.25,36,100.0
3564,G#1,204.167,0.25,44,100.0
3565,F5,204.25,0.125,35,100.0
3566,F4,204.25,0.125,35,100.0
3567,B-4,204.25,0.125,35,100.0
3568,F3,204.417,0.125,22,100.0
3569,B-3,204.417,0.125,22,100.0
3570,D4,204.417,0.125,22,100.0
3571,F4,204.5,0.125,32,100.0
3572,E5,204.5,0.125,32,100.0
3573,B-4,204.5,0.125,32,100.0
3574,F3,204.667,0.125,19,100.0
3575,B-3,204.667,0.125,19,100.0
3576,D4,204.667,0.125,19,100.0
3577,E-5,204.75,0.125,32,100.0
3578,F4,204.75,0.125,32,100.0
3579,B-4,204.75,0.125,32,100.0
3580,B-3,204.917,0.125,19,100.0
3581,D4,204.917,0.125,19,100.0
3582,F3,204.917,0.125,19,100.0
3583,B-4,205.0,0.125,35,100.0
3584,F4,205.0,0.125,35,100.0
3585,D5,205.0,0.125,35,100.0
3586,F3,205.167,0.125,22,100.0
3587,D4,205.167,0.125,22,100.0
3588,B-3,205.167,0.125,22,100.0
3589,F5,205.25,0.125,32,100.0
3590,F4,205.25,0.125,32,100.0
3591,B-4,205.25,0.125,32,100.0
3592,F3,205.417,0.125,19,100.0
3593,D4,205.417,0.125,19,100.0
3594,B-3,205.417,0.125,19,100.0
3595,E5,205.5,0.125,39,100.0
3596,F4,205.5,0.25,33,100.0
3597,B-4,205.5,0.25,33,100.0
3598,E-5,205.625,0.125,36,100.0
3599,F3,205.667,0.125,19,100.0
3600,B-3,205.667,0.125,19,100.0
3601,D4,205.667,0.125,19,100.0
3602,D5,205.75,0.25,36,100.0
3603,F#1,206.167,0.25,45,100.0
3604,B-5,206.25,0.125,35,100.0
3605,C#5,206.25,0.125,35,100.0
3606,B-4,206.25,0.125,35,100.0
3607,E4,206.417,0.125,22,100.0
3608,C#4,206.417,0.125,22,100.0
3609,F#3,206.417,0.125,22,100.0
3610,C#5,206.5,0.125,32,100.0
3611,B-4,206.5,0.125,32,100.0
3612,G#5,206.5,0.125,32,100.0
3613,C#4,206.667,0.125,19,100.0
3614,E4,206.667,0.125,19,100.0
3615,F#3,206.667,0.125,19,100.0
3616,B-4,206.75,0.125,32,100.0
3617,G5,206.75,0.125,32,100.0
3618,C#5,206.75,0.125,32,100.0
3619,E4,206.917,0.125,19,100.0
3620,C#4,206.917,0.125,19,100.0
3621,F#3,206.917,0.125,19,100.0
3622,B-4,207.0,0.125,35,100.0
3623,C#5,207.0,0.125,35,100.0
3624,F#5,207.0,0.125,35,100.0
3625,E4,207.167,0.125,22,100.0
3626,C#4,207.167,0.125,22,100.0
3627,F#3,207.167,0.125,22,100.0
3628,B-5,207.25,0.125,32,100.0
3629,C#5,207.25,0.125,32,100.0
3630,B-4,207.25,0.125,32,100.0
3631,F#3,207.417,0.125,19,100.0
3632,E4,207.417,0.125,19,100.0
3633,C#4,207.417,0.125,19,100.0
3634,G#5,207.5,0.125,39,100.0
3635,B-4,207.5,0.25,33,100.0
3636,C#5,207.5,0.25,33,100.0
3637,G5,207.625,0.125,36,100.0
3638,E4,207.667,0.125,19,100.0
3639,C#4,207.667,0.125,19,100.0
3640,F#3,207.667,0.125,19,100.0
3641,F#5,207.75,0.25,36,100.0
3642,F1,208.167,0.25,42,100.0
3643,C5,208.25,0.125,35,100.0
3644,F#5,208.25,0.125,35,100.0
3645,A4,208.25,0.125,35,100.0
3646,A3,208.417,0.125,22,100.0
3647,F#4,208.417,0.125,22,100.0
3648,E-4,208.417,0.125,22,100.0
3649,C5,208.5,0.125,32,100.0
3650,F5,208.5,0.125,32,100.0
3651,A4,208.5,0.125,32,100.0
3652,E-4,208.667,0.125,19,100.0
3653,F4,208.667,0.125,19,100.0
3654,A3,208.667,0.125,19,100.0
3655,C5,208.75,0.125,32,100.0
3656,A4,208.75,0.125,32,100.0
3657,E5,208.75,0.125,32,100.0
3658,A3,208.917,0.125,19,100.0
3659,E-4,208.917,0.125,19,100.0
3660,F4,208.917,0.125,19,100.0
3661,C5,209.0,0.125,35,100.0
3662,A4,209.0,0.125,35,100.0
3663,E-5,209.0,0.125,35,100.0
3664,F4,209.167,0.125,22,100.0
3665,E-4,209.167,0.125,22,100.0
3666,A3,209.167,0.125,22,100.0
3667,A4,209.25,0.125,33,100.0
3668,C5,209.25,0.125,33,100.0
3669,C4,209.417,0.125,20,100.0
3670,E-4,209.417,0.125,20,100.0
3671,F4,209.417,0.125,20,100.0
3672,G5,209.5,0.125,39,100.0
3673,C5,209.5,0.25,33,100.0
3674,A4,209.5,0.25,33,100.0
3675,F#5,209.625,0.125,36,100.0
3676,E-4,209.667,0.125,20,100.0
3677,F4,209.667,0.125,20,100.0
3678,F5,209.75,0.25,36,100.0
3679,B-1,210.167,0.25,46,100.0
3680,D5,210.25,0.125,36,100.0
3681,D4,210.25,0.125,36,100.0
3682,F#4,210.375,0.125,31,100.0
3683,B-3,210.417,0.125,23,100.0
3684,F4,210.417,0.125,23,100.0
3685,C5,210.5,0.125,33,100.0
3686,D4,210.5,0.125,33,100.0
3687,G4,210.625,0.125,28,100.0
3688,F4,210.667,0.125,20,100.0
3689,F3,210.667,0.125,20,100.0
3690,D4,210.75,0.125,33,100.0
3691,B4,210.75,0.125,33,100.0
3692,F#4,210.875,0.125,29,100.0
3693,B-3,210.917,0.125,20,100.0
3694,F4,210.917,0.125,20,100.0
3695,D4,211.0,0.125,36,100.0
3696,B-4,211.0,0.125,36,100.0
3697,G4,211.125,0.125,31,100.0
3698,F4,211.167,0.125,22,100.0
3699,F3,211.167,0.125,22,100.0
3700,D4,211.25,0.125,33,100.0
3701,D5,211.25,0.125,33,100.0
3702,F#4,211.375,0.125,29,100.0
3703,B-3,211.417,0.125,20,100.0
3704,F4,211.417,0.125,20,100.0
3705,C5,211.5,0.125,39,100.0
3706,D4,211.5,0.25,33,100.0
3707,B4,211.625,0.125,36,100.0
3708,F4,211.667,0.25,21,100.0
3709,F3,211.667,0.25,21,100.0
3710,B-4,211.75,0.25,36,100.0
3711,G#1,212.167,0.25,46,100.0
3712,F5,212.25,0.125,36,100.0
3713,F4,212.25,0.125,36,100.0
3714,B4,212.375,0.125,31,100.0
3715,D4,212.417,0.125,23,100.0
3716,B-4,212.417,0.125,23,100.0
3717,E5,212.5,0.125,33,100.0
3718,F4,212.5,0.125,33,100.0
3719,C5,212.625,0.125,28,100.0
3720,B-4,212.667,0.125,20,100.0
3721,G#3,212.667,0.125,20,100.0
3722,E-5,212.75,0.125,33,100.0
3723,F4,212.75,0.125,33,100.0
3724,B4,212.875,0.125,29,100.0
3725,D4,212.917,0.125,20,100.0
3726,B-4,212.917,0.125,20,100.0
3727,F4,213.0,0.125,36,100.0
3728,D5,213.0,0.125,36,100.0
3729,C5,213.125,0.125,31,100.0
3730,G#3,213.167,0.125,22,100.0
3731,B-4,213.167,0.125,22,100.0
3732,F4,213.25,0.125,33,100.0
3733,F5,213.25,0.125,33,100.0
3734,B4,213.375,0.125,29,100.0
3735,D4,213.417,0.125,20,100.0
3736,B-4,213.417,0.125,20,100.0
3737,F4,213.5,0.25,33,100.0
3738,E5,213.5,0.125,39,100.0
3739,E-5,213.625,0.125,36,100.0
3740,G#3,213.667,0.25,21,100.0
3741,B-4,213.667,0.25,21,100.0
3742,D5,213.75,0.25,36,100.0
3743,F#2,214.167,0.25,46,100.0
3744,F#1,214.167,0.25,46,100.0
3745,B-4,214.25,0.125,32,100.0
3746,B-5,214.25,0.125,32,100.0
3747,C#5,214.25,0.125,32,100.0
3748,F#3,214.417,0.125,19,100.0
3749,C#4,214.417,0.125,19,100.0
3750,E4,214.417,0.125,19,100.0
3751,G#5,214.5,0.125,41,100.0
3752,B-4,214.5,0.25,35,100.0
3753,C#5,214.5,0.25,35,100.0
3754,G5,214.625,0.125,39,100.0
3755,E4,214.667,0.25,22,100.0
3756,C#4,214.667,0.25,22,100.0
3757,B-3,214.667,0.25,22,100.0
3758,F#5,214.75,0.25,39,100.0
3759,B1,215.167,0.25,52,100.0
3760,B2,215.167,0.25,52,100.0
3761,F#5,215.25,0.125,37,100.0
3762,E-6,215.25,0.125,37,100.0
3763,E-5,215.25,0.125,37,100.0
3764,B3,215.417,0.125,22,100.0
3765,F#4,215.417,0.125,22,100.0
3766,A4,215.417,0.125,22,100.0
3767,C#6,215.5,0.125,47,100.0
3768,E-5,215.5,0.25,40,100.0
3769,F#5,215.5,0.25,40,100.0
3770,C6,215.625,0.125,44,100.0
3771,E-4,215.667,0.25,25,100.0
3772,A4,215.667,0.25,25,100.0
3773,F#4,215.667,0.25,25,100.0
3774,B5,215.75,0.25,45,100.0
3775,F1,216.167,0.25,59,100.0
3776,F2,216.167,0.25,59,100.0
3777,E-6,216.25,0.125,45,100.0
3778,C6,216.25,0.125,45,100.0
3779,A6,216.25,0.125,45,100.0
3780,F3,216.417,0.125,46,100.0
3781,C6,216.5,0.125,48,100.0
3782,G#6,216.5,0.125,48,100.0
3783,E-6,216.5,0.125,48,100.0
3784,E3,216.542,0.125,39,100.0
3785,F#3,216.667,0.125,46,100.0
3786,C6,216.75,0.125,48,100.0
3787,E-6,216.75,0.125,48,100.0
3788,G6,216.75,0.125,48,100.0
3789,F3,216.792,0.125,39,100.0
3790,G3,216.917,0.125,46,100.0
3791,E-6,217.0,0.125,45,100.0
3792,F#6,217.0,0.125,45,100.0
3793,C6,217.0,0.125,45,100.0
3794,F#3,217.042,0.125,39,100.0
3795,G#3,217.167,0.125,46,100.0
3796,A5,217.25,0.125,45,100.0
3797,C6,217.25,0.125,45,100.0
3798,F6,217.25,0.125,45,100.0
3799,G3,217.292,0.125,40,100.0
3800,A3,217.417,0.125,46,100.0
3801,E6,217.5,0.125,44,100.0
3802,C6,217.5,0.125,44,100.0
3803,A5,217.5,0.125,44,100.0
3804,G#3,217.542,0.125,40,100.0
3805,B-3,217.667,0.125,46,100.0
3806,C6,217.75,0.125,43,100.0
3807,A5,217.75,0.125,43,100.0
3808,E-6,217.75,0.125,43,100.0
3809,A3,217.792,0.125,40,100.0
3810,B3,217.917,0.125,46,100.0
3811,A5,218.0,0.125,48,100.0
3812,F#5,218.0,0.125,48,100.0
3813,D6,218.0,0.125,48,100.0
3814,B-3,218.042,0.125,40,100.0
3815,C4,218.167,0.125,46,100.0
3816,F#5,218.25,0.125,48,100.0
3817,C#6,218.25,0.125,48,100.0
3818,A5,218.25,0.125,48,100.0
3819,B3,218.292,0.125,46,100.0
3820,C#4,218.417,0.125,46,100.0
3821,F#5,218.5,0.125,48,100.0
3822,A5,218.5,0.125,48,100.0
3823,C6,218.5,0.125,48,100.0
3824,C4,218.542,0.125,42,100.0
3825,D4,218.667,0.125,48,100.0
3826,F#5,218.75,0.125,49,100.0
3827,E-5,218.75,0.125,49,100.0
3828,B5,218.75,0.125,49,100.0
3829,C#4,218.792,0.125,42,100.0
3830,E-4,218.917,0.125,49,100.0
3831,B-5,219.0,0.125,50,100.0
3832,F#5,219.0,0.125,50,100.0
3833,E-5,219.0,0.125,50,100.0
3834,D4,219.042,0.125,46,100.0
3835,E4,219.167,0.125,50,100.0
3836,C5,219.25,0.125,51,100.0
3837,E-5,219.25,0.125,51,100.0
3838,A5,219.25,0.125,51,100.0
3839,E-4,219.292,0.125,46,100.0
3840,F4,219.417,0.125,54,100.0
3841,E-5,219.5,0.125,52,100.0
3842,C5,219.5,0.125,52,100.0
3843,G#5,219.5,0.125,52,100.0
3844,E4,219.542,0.125,48,100.0
3845,F#4,219.667,0.125,57,100.0
3846,E-5,219.75,0.125,53,100.0
3847,G5,219.75,0.125,53,100.0
3848,C5,219.75,0.125,53,100.0
3849,F4,219.792,0.125,53,100.0
3850,G4,219.917,0.125,58,100.0
3851,C5,220.0,0.125,54,100.0
3852,F#5,220.0,0.125,54,100.0
3853,E-5,220.0,0.125,54,100.0
3854,F#4,220.042,0.125,55,100.0
3855,G#4,220.167,0.125,62,100.0
3856,F5,220.25,0.125,53,100.0
3857,E-5,220.25,0.125,53,100.0
3858,C5,220.25,0.125,53,100.0
3859,G4,220.292,0.125,53,100.0
3860,A4,220.417,0.125,58,100.0
3861,E-5,220.5,0.125,53,100.0
3862,G5,220.5,0.125,53,100.0
3863,G#4,220.542,0.125,50,100.0
3864,B-4,220.667,0.125,54,100.0
3865,F5,220.75,0.125,50,100.0
3866,E-5,220.75,0.125,50,100.0
3867,A4,220.792,0.125,48,100.0
3868,C5,220.917,0.125,50,100.0
3869,E-5,221.0,0.25,41,100.0
3870,F#5,221.0,0.25,41,100.0
3871,A4,221.042,0.125,42,100.0
3872,G#4,221.167,0.125,38,100.0
3873,E-5,221.25,0.25,37,100.0
3874,F5,221.25,0.25,37,100.0
3875,B4,221.292,0.125,35,100.0
3876,A4,221.417,0.125,38,100.0
3877,E-5,221.5,0.25,41,100.0
3878,G5,221.5,0.25,41,100.0
3879,C5,221.542,0.125,33,100.0
3880,G#4,221.667,0.125,38,100.0
3881,F5,221.75,0.25,35,100.0
3882,E-5,221.75,0.25,35,100.0
3883,B4,221.792,0.125,35,100.0
3884,A4,221.917,0.125,38,100.0
3885,F#5,222.0,0.25,41,100.0
3886,E-5,222.0,0.25,41,100.0
3887,C5,222.042,0.125,35,100.0
3888,G#4,222.167,0.125,38,100.0
3889,F5,222.25,0.25,34,100.0
3890,E-5,222.25,0.25,34,100.0
3891,B4,222.292,0.125,35,100.0
3892,A4,222.417,0.125,37,100.0
3893,G5,222.5,0.25,38,100.0
3894,E-5,222.5,0.25,38,100.0
3895,C5,222.542,0.125,32,100.0
3896,G#4,222.667,0.125,36,100.0
3897,E-5,222.75,0.25,32,100.0
3898,F5,222.75,0.25,32,100.0
3899,B4,222.792,0.125,31,100.0
3900,A4,222.917,0.125,36,100.0
3901,E-5,223.0,0.25,36,100.0
3902,G5,223.0,0.25,36,100.0
3903,C5,223.042,0.125,30,100.0
3904,G#4,223.167,0.125,35,100.0
3905,E-5,223.25,0.25,30,100.0
3906,F5,223.25,0.25,30,100.0
3907,B4,223.292,0.125,29,100.0
3908,A4,223.417,0.125,33,100.0
3909,E-5,223.5,0.25,34,100.0
3910,G5,223.5,0.25,34,100.0
3911,C5,223.542,0.125,28,100.0
3912,G#4,223.667,0.125,32,100.0
3913,E-5,223.75,0.25,28,100.0
3914,F5,223.75,0.25,28,100.0
3915,B4,223.792,0.125,27,100.0
3916,A4,223.917,0.125,31,100.0
3917,F5,224.0,0.25,32,100.0
3918,D5,224.0,0.25,32,100.0
3919,C5,224.042,0.125,26,100.0
3920,B-4,224.167,0.25,30,100.0
3921,D4,224.5,3/20,35,100.0
3922,E-4,224.625,3/20,35,100.0
3923,D4,224.75,3/20,35,100.0
3924,E4,224.875,3/20,35,100.0
3925,F4,225.0,3/20,36,100.0
3926,F#4,225.125,3/20,36,100.0
3927,B3,225.167,1.0,30,100.0
3928,D3,225.167,1.0,30,100.0
3929,G#3,225.167,1.0,30,100.0
3930,F4,225.25,3/20,36,100.0
3931,G4,225.375,3/20,36,100.0
3932,G#4,225.5,3/20,36,100.0
3933,A4,225.625,3/20,36,100.0
3934,G#4,225.75,3/20,37,100.0
3935,B-4,225.875,0.125,37,100.0
3936,B4,226.0,3/20,37,100.0
3937,B-4,226.0,1/40,37,100.0
3938,C5,226.125,3/20,37,100.0
3939,B3,226.167,0.5,30,100.0
3940,D3,226.167,0.5,30,100.0
3941,G#3,226.167,0.5,30,100.0
3942,B4,226.25,3/20,38,100.0
3943,C#5,226.375,3/20,38,100.0
3944,D4,226.417,0.125,43,100.0
3945,D5,226.5,3/20,38,100.0
3946,E-5,226.625,3/20,39,100.0
3947,C#4,226.667,0.125,43,100.0
3948,G#3,226.667,0.5,30,100.0
3949,F3,226.667,0.5,30,100.0
3950,D5,226.75,3/20,39,100.0
3951,E5,226.875,3/20,39,100.0
3952,C4,226.917,0.125,43,100.0
3953,F5,227.0,3/20,39,100.0
3954,F#5,227.125,3/20,38,100.0
3955,B3,227.167,0.125,43,100.0
3956,D3,227.167,0.5,30,100.0
3957,G3,227.167,0.5,30,100.0
3958,F5,227.25,3/20,38,100.0
3959,G5,227.375,3/20,38,100.0
3960,D4,227.417,0.125,43,100.0
3961,G#5,227.5,3/20,38,100.0
3962,A5,227.625,3/20,39,100.0
3963,C#4,227.667,0.125,43,100.0
3964,F3,227.667,0.5,30,100.0
3965,G3,227.667,0.5,30,100.0
3966,G#5,227.75,3/20,39,100.0
3967,C4,227.792,0.125,43,100.0
3968,B5,227.875,0.125,39,100.0
3969,B3,227.917,0.125,43,100.0
3970,D6,228.0,0.125,39,100.0
3971,B5,228.0,1/40,39,100.0
3972,E-6,228.125,0.125,41,100.0
3973,F#3,228.167,0.25,30,100.0
3974,D3,228.167,0.25,30,100.0
3975,D4,228.167,0.25,30,100.0
3976,A3,228.167,0.25,30,100.0
3977,D6,228.25,0.125,41,100.0
3978,F6,228.375,0.125,41,100.0
3979,F#6,228.5,0.125,41,100.0
3980,G6,228.625,0.125,42,100.0
3981,F#6,228.75,0.125,42,100.0
3982,G#6,228.875,0.125,42,100.0
3983,A6,229.0,0.125,43,100.0
3984,B-6,229.125,0.125,43,100.0
3985,A6,229.25,0.125,43,100.0
3986,C#7,229.375,0.125,43,100.0
3987,D7,229.5,0.125,44,100.0
3988,C#7,229.625,0.125,44,100.0
3989,D7,229.75,0.125,44,100.0
3990,C#7,229.875,0.125,44,100.0
3991,C7,230.0,0.125,45,100.0
3992,E-7,230.0,0.5,55,100.0
3993,B6,230.125,0.125,39,100.0
3994,G3,230.167,0.25,31,100.0
3995,C3,230.167,0.25,31,100.0
3996,E-4,230.167,0.25,31,100.0
3997,C7,230.25,0.125,39,100.0
3998,B-6,230.375,0.125,39,100.0
3999,A6,230.5,0.125,39,100.0
4000,G6,230.625,0.125,39,100.0
4001,G#6,230.75,0.125,39,100.0
4002,F#6,230.875,0.125,39,100.0
4003,F6,231.0,0.125,45,100.0
4004,F7,231.0,0.5,54,100.0
4005,E6,231.125,0.125,39,100.0
4006,C3,231.167,0.25,30,100.0
4007,A3,231.167,0.25,30,100.0
4008,E-3,231.167,0.25,30,100.0
4009,F2,231.167,0.25,30,100.0
4010,F6,231.25,0.125,39,100.0
4011,E-6,231.375,0.125,39,100.0
4012,D6,231.5,0.125,39,100.0
4013,C#6,231.625,0.125,39,100.0
4014,C6,231.75,0.125,39,100.0
4015,B5,231.875,83/1000,39,100.0
4016,B-5,231.979,21/1000,54,100.0
4017,D7,231.979,21/1000,54,100.0
4018,B-5,232.0,13/125,54,100.0
4019,D7,232.0,13/125,54,100.0
4020,B-2,232.083,83/1000,31,100.0
4021,F3,232.083,83/1000,31,100.0
4022,D4,232.083,83/1000,31,100.0
4023,B-2,232.167,83/1000,31,100.0
4024,F3,232.167,83/1000,31,100.0
4025,D4,232.167,83/1000,31,100.0
4026,D2,232.667,3/20,35,100.0
4027,E-2,232.792,3/20,35,100.0
4028,D2,232.917,3/20,35,100.0
4029,F3,233.0,1.0,30,100.0
4030,D4,233.0,1.0,30,100.0
4031,B3,233.0,1.0,30,100.0
4032,G#3,233.0,1.0,30,100.0
4033,E2,233.042,3/20,35,100.0
4034,F2,233.167,3/20,36,100.0
4035,F#2,233.292,3/20,36,100.0
4036,F2,233.417,3/20,36,100.0
4037,G2,233.542,3/20,36,100.0
4038,G#2,233.667,3/20,36,100.0
4039,A2,233.792,3/20,36,100.0
4040,G#2,233.917,3/20,37,100.0
4041,B-2,234.042,0.125,37,100.0
4042,B2,234.167,3/20,37,100.0
4043,B-2,234.167,1/40,37,100.0
4044,D6,234.25,0.125,37,100.0
4045,G#5,234.25,0.125,37,100.0
4046,F5,234.25,0.125,37,100.0
4047,C3,234.292,3/20,37,100.0
4048,B2,234.417,3/20,38,100.0
4049,C#6,234.5,0.125,37,100.0
4050,G#5,234.5,0.125,37,100.0
4051,F5,234.5,0.125,37,100.0
4052,C#3,234.542,3/20,38,100.0
4053,D3,234.667,3/20,38,100.0
4054,F5,234.75,0.125,37,100.0
4055,C6,234.75,0.125,37,100.0
4056,G#5,234.75,0.125,37,100.0
4057,E-3,234.792,3/20,39,100.0
4058,D3,234.917,3/20,39,100.0
4059,B5,235.0,0.125,46,100.0
4060,G#5,235.0,0.5,33,100.0
4061,D5,235.0,0.5,33,100.0
4062,E3,235.042,3/20,39,100.0
4063,F3,235.167,3/20,39,100.0
4064,D6,235.25,0.125,49,100.0
4065,F#3,235.292,3/20,38,100.0
4066,F3,235.417,3/20,38,100.0
4067,D5,235.5,0.125,35,100.0
4068,C#6,235.5,0.125,35,100.0
4069,F5,235.5,0.125,35,100.0
4070,G3,235.542,3/20,38,100.0
4071,C6,235.625,0.125,46,100.0
4072,G#3,235.667,3/20,38,100.0
4073,B5,235.75,0.125,46,100.0
4074,A3,235.792,3/20,39,100.0
4075,G#3,235.917,3/20,39,100.0
4076,D6,236.0,0.25,33,100.0
4077,F#5,236.0,0.25,33,100.0
4078,A6,236.0,0.25,33,100.0
4079,B3,236.042,0.125,39,100.0
4080,D4,236.167,3/20,33,100.0
4081,D3,236.167,0.5,33,100.0
4082,B3,236.167,1/40,39,100.0
4083,E-4,236.292,3/20,35,100.0
4084,D4,236.417,3/20,35,100.0
4085,F4,236.542,3/20,35,100.0
4086,F#4,236.667,3/20,35,100.0
4087,G4,236.792,3/20,35,100.0
4088,F#4,236.917,3/20,35,100.0
4089,G#4,237.042,3/20,35,100.0
4090,A4,237.167,3/20,36,100.0
4091,B-4,237.292,3/20,36,100.0
4092,A4,237.417,3/20,36,100.0
4093,C#5,237.542,3/20,36,100.0
4094,D5,237.667,3/20,36,100.0
4095,C#5,237.792,3/20,36,100.0
4096,D5,237.917,3/20,36,100.0
4097,C7,238.0,0.25,33,100.0
4098,E-6,238.0,0.25,33,100.0
4099,G5,238.0,0.25,33,100.0
4100,C#5,238.042,0.125,36,100.0
4101,C4,238.167,0.5,45,100.0
4102,C5,238.167,3/20,38,100.0
4103,C#5,238.167,1/40,36,100.0
4104,B4,238.292,3/20,33,100.0
4105,C5,238.417,3/20,33,100.0
4106,B-4,238.542,3/20,33,100.0
4107,A4,238.667,3/20,33,100.0
4108,G4,238.792,3/20,33,100.0
4109,G#4,238.917,3/20,33,100.0
4110,E-6,239.0,0.25,33,100.0
4111,A6,239.0,0.25,33,100.0
4112,F7,239.0,0.25,33,100.0
4113,F#4,239.042,3/20,33,100.0
4114,F3,239.167,0.5,45,100.0
4115,F4,239.167,3/20,38,100.0
4116,E4,239.292,3/20,33,100.0
4117,F4,239.417,3/20,33,100.0
4118,E-4,239.542,3/20,33,100.0
4119,D4,239.667,3/20,33,100.0
4120,C#4,239.792,3/20,33,100.0
4121,C4,239.917,3/20,33,100.0
4122,D6,240.0,0.125,33,100.0
4123,F7,240.0,0.125,33,100.0
4124,B-6,240.0,0.125,33,100.0
4125,B3,240.042,1/10,33,100.0
4126,B-2,240.167,0.125,45,100.0
4127,B-3,240.167,0.125,45,100.0
4128,D3,240.25,0.125,31,100.0
4129,B-3,240.417,0.125,24,100.0
4130,F3,240.417,0.125,24,100.0
4131,C3,240.5,0.125,36,100.0
4132,D4,240.542,0.125,25,100.0
4133,B-3,240.667,0.125,23,100.0
4134,F#3,240.667,0.125,23,100.0
4135,B2,240.75,0.125,32,100.0
4136,D4,240.792,0.125,25,100.0
4137,B-3,240.917,0.125,23,100.0
4138,G3,240.917,0.125,23,100.0
4139,B-2,241.0,0.125,36,100.0
4140,D4,241.042,0.125,25,100.0
4141,B-3,241.167,0.125,28,100.0
4142,F#3,241.167,0.125,28,100.0
4143,D3,241.25,0.125,32,100.0
4144,D4,241.292,0.125,22,100.0
4145,F3,241.417,0.125,28,100.0
4146,B-3,241.417,0.125,28,100.0
4147,C3,241.5,0.125,36,100.0
4148,D4,241.542,0.125,21,100.0
4149,B2,241.625,0.125,31,100.0
4150,B-3,241.667,0.125,28,100.0
4151,F#3,241.667,0.125,28,100.0
4152,B-2,241.75,0.125,31,100.0
4153,D4,241.792,0.125,25,100.0
4154,B-3,241.917,0.125,28,100.0
4155,G3,241.917,0.125,28,100.0
4156,D4,242.042,83/1000,22,100.0
4157,F#3,242.125,21/500,30,100.0
4158,A3,242.125,21/500,30,100.0
4159,E-4,242.125,21/500,30,100.0
4160,F#3,242.167,83/1000,30,100.0
4161,A3,242.167,83/1000,30,100.0
4162,E-4,242.167,83/1000,30,100.0
4163,E-6,242.25,0.125,37,100.0
4164,C6,242.375,0.125,37,100.0
4165,A5,242.417,0.125,41,100.0
4166,F#5,242.417,0.125,41,100.0
4167,G#5,242.5,0.125,36,100.0
4168,F5,242.625,0.125,36,100.0
4169,B4,242.667,0.125,39,100.0
4170,D5,242.667,0.125,39,100.0
4171,A5,242.75,0.125,36,100.0
4172,F#5,242.875,0.125,35,100.0
4173,C5,242.917,0.125,38,100.0
4174,E-5,242.917,0.125,38,100.0
4175,D5,243.0,0.125,35,100.0
4176,B4,243.125,0.125,33,100.0
4177,G#4,243.167,0.125,38,100.0
4178,F4,243.167,0.125,38,100.0
4179,E-5,243.25,0.125,33,100.0
4180,C5,243.375,0.125,32,100.0
4181,A4,243.417,0.125,37,100.0
4182,F#4,243.417,0.125,37,100.0
4183,G#4,243.5,0.125,32,100.0
4184,F4,243.625,0.125,31,100.0
4185,D4,243.667,0.125,36,100.0
4186,B3,243.667,0.125,36,100.0
4187,A4,243.75,0.125,30,100.0
4188,F#5,243.875,0.125,30,100.0
4189,C4,243.917,0.125,36,100.0
4190,E-4,243.917,0.125,36,100.0
4191,F5,244.0,0.25,38,100.0
4192,B-4,244.0,0.25,38,100.0
4193,F2,244.167,0.25,45,100.0
4194,D3,244.25,0.125,31,100.0
4195,B-3,244.417,0.125,24,100.0
4196,F3,244.417,0.125,24,100.0
4197,C3,244.5,0.125,36,100.0
4198,D4,244.542,0.125,25,100.0
4199,B-3,244.667,0.125,23,100.0
4200,F#3,244.667,0.125,23,100.0
4201,B2,244.75,0.125,32,100.0
4202,D4,244.792,0.125,25,100.0
4203,B-3,244.917,0.125,23,100.0
4204,G3,244.917,0.125,23,100.0
4205,B-2,245.0,0.125,36,100.0
4206,D4,245.042,0.125,25,100.0
4207,F#3,245.167,0.125,28,100.0
4208,B-3,245.167,0.125,28,100.0
4209,D3,245.25,0.125,32,100.0
4210,D4,245.292,0.125,22,100.0
4211,F3,245.417,0.125,28,100.0
4212,B-3,245.417,0.125,28,100.0
4213,C3,245.5,0.125,36,100.0
4214,D4,245.542,0.125,21,100.0
4215,B2,245.625,0.125,31,100.0
4216,B-3,245.667,0.125,28,100.0
4217,F#3,245.667,0.125,28,100.0
4218,B-2,245.75,0.125,31,100.0
4219,D4,245.792,0.125,25,100.0
4220,B-3,245.917,0.125,28,100.0
4221,G3,245.917,0.125,28,100.0
4222,D4,246.042,0.125,22,100.0
4223,F#3,246.125,21/500,27,100.0
4224,A3,246.125,21/500,27,100.0
4225,E-4,246.125,21/500,27,100.0
4226,F#3,246.167,83/1000,27,100.0
4227,A3,246.167,83/1000,27,100.0
4228,E-4,246.167,83/1000,27,100.0
4229,E-6,246.25,0.125,37,100.0
4230,C6,246.375,0.125,37,100.0
4231,F#5,246.417,0.125,38,100.0
4232,A5,246.417,0.125,38,100.0
4233,G#5,246.5,0.125,36,100.0
4234,F5,246.625,0.125,36,100.0
4235,B4,246.667,0.125,36,100.0
4236,D5,246.667,0.125,36,100.0
4237,A5,246.75,0.125,36,100.0
4238,F#5,246.875,0.125,35,100.0
4239,C5,246.917,0.125,35,100.0
4240,E-5,246.917,0.125,35,100.0
4241,D5,247.0,0.125,35,100.0
4242,B4,247.125,0.125,33,100.0
4243,G#4,247.167,0.125,35,100.0
4244,F4,247.167,0.125,35,100.0
4245,E-5,247.25,0.125,33,100.0
4246,C5,247.375,0.125,32,100.0
4247,A4,247.417,0.125,34,100.0
4248,F#4,247.417,0.125,34,100.0
4249,G#4,247.5,0.125,32,100.0
4250,F4,247.625,0.125,31,100.0
4251,D4,247.667,0.125,33,100.0
4252,B3,247.667,0.125,33,100.0
4253,A4,247.75,0.125,30,100.0
4254,F#5,247.875,81/1000,30,100.0
4255,E-4,247.917,0.125,32,100.0
4256,C4,247.917,0.125,32,100.0
4257,C4,248.0,0.125,36,100.0
4258,F#4,248.0,0.125,36,100.0
4259,A3,248.167,0.125,40,100.0
4260,E-3,248.167,0.125,40,100.0
4261,F#6,248.25,0.125,41,100.0
4262,E-6,248.375,0.125,41,100.0
4263,C6,248.417,0.25,41,100.0
4264,A5,248.417,0.25,41,100.0
4265,B5,248.5,0.125,39,100.0
4266,G#5,248.625,0.125,39,100.0
4267,F5,248.667,0.25,40,100.0
4268,D5,248.667,0.25,40,100.0
4269,C6,248.75,0.125,38,100.0
4270,A5,248.875,0.125,37,100.0
4271,E-5,248.917,0.25,38,100.0
4272,F#5,248.917,0.25,38,100.0
4273,F5,249.0,0.125,37,100.0
4274,D5,249.125,0.125,36,100.0
4275,B-4,249.167,0.25,38,100.0
4276,G#4,249.167,0.25,38,100.0
4277,F#5,249.25,0.125,36,100.0
4278,E-5,249.375,0.125,36,100.0
4279,C5,249.417,0.25,38,100.0
4280,A4,249.417,0.25,38,100.0
4281,B4,249.5,0.125,36,100.0
4282,G#4,249.625,0.125,35,100.0
4283,D4,249.667,0.25,36,100.0
4284,F4,249.667,0.25,36,100.0
4285,C5,249.75,0.125,33,100.0
4286,A5,249.875,0.125,33,100.0
4287,E-4,249.917,0.25,35,100.0
4288,F#4,249.917,0.25,35,100.0
4289,A4,250.0,0.125,36,100.0
4290,E-4,250.0,0.125,36,100.0
4291,C4,250.167,0.125,38,100.0
4292,F#3,250.167,0.125,38,100.0
4293,B-2,250.167,0.125,38,100.0
4294,A6,250.25,0.125,41,100.0
4295,F#6,250.375,0.125,41,100.0
4296,C6,250.417,0.25,41,100.0
4297,E-6,250.417,0.25,41,100.0
4298,D6,250.5,0.125,39,100.0
4299,B5,250.625,0.125,39,100.0
4300,F5,250.667,0.25,40,100.0
4301,G#5,250.667,0.25,40,100.0
4302,E-6,250.75,0.125,38,100.0
4303,C6,250.875,0.125,37,100.0
4304,A5,250.917,0.25,38,100.0
4305,F#5,250.917,0.25,38,100.0
4306,C7,251.0,0.125,37,100.0
4307,A6,251.125,0.125,36,100.0
4308,F#6,251.167,0.25,38,100.0
4309,E-6,251.167,0.25,38,100.0
4310,F6,251.25,0.125,36,100.0
4311,D6,251.375,0.125,36,100.0
4312,B5,251.417,0.25,38,100.0
4313,G#5,251.417,0.25,38,100.0
4314,F#6,251.5,0.125,36,100.0
4315,E-6,251.625,0.125,35,100.0
4316,A5,251.667,0.25,36,100.0
4317,C6,251.667,0.25,36,100.0
4318,E-7,251.75,0.125,33,100.0
4319,C7,251.875,0.125,33,100.0
4320,F#6,251.917,0.25,35,100.0
4321,A6,251.917,0.25,35,100.0
4322,G#6,252.0,0.125,41,100.0
4323,F6,252.125,0.125,36,100.0
4324,B5,252.167,0.25,39,100.0
4325,D6,252.167,0.25,39,100.0
4326,A6,252.25,0.125,42,100.0
4327,F#6,252.375,0.125,36,100.0
4328,E-6,252.417,0.25,35,100.0
4329,C6,252.417,0.25,35,100.0
4330,E7,252.5,0.125,38,100.0
4331,E-6,252.625,0.125,31,100.0
4332,G#5,252.667,0.25,39,100.0
4333,B5,252.667,0.25,39,100.0
4334,F7,252.75,0.125,36,100.0
4335,E-6,252.875,0.125,27,100.0
4336,A5,252.917,0.25,33,100.0
4337,C6,252.917,0.25,33,100.0
4338,E7,253.0,0.125,45,100.0
4339,E-6,253.125,0.125,27,100.0
4340,G#5,253.167,0.25,39,100.0
4341,B5,253.167,0.25,39,100.0
4342,F7,253.25,0.125,42,100.0
4343,E-6,253.375,0.125,29,100.0
4344,C6,253.417,0.25,32,100.0
4345,A5,253.417,0.25,32,100.0
4346,E7,253.5,0.125,37,100.0
4347,E-6,253.625,0.125,29,100.0
4348,G#5,253.667,0.25,39,100.0
4349,B5,253.667,0.25,39,100.0
4350,F7,253.75,0.125,37,100.0
4351,E-6,253.875,0.125,29,100.0
4352,C6,253.917,0.25,35,100.0
4353,A5,253.917,0.25,35,100.0
4354,F7,254.0,0.25,43,100.0
4355,B-5,254.167,0.25,39,100.0
4356,D6,254.167,0.25,39,100.0
4357,F#6,254.25,0.125,32,100.0
4358,D7,254.25,0.125,32,100.0
4359,B-6,254.375,0.125,28,100.0
4360,F6,254.375,0.125,28,100.0
4361,D6,254.5,0.125,28,100.0
4362,F#6,254.5,0.125,28,100.0
4363,F6,254.625,0.125,26,100.0
4364,B-5,254.625,0.125,26,100.0
4365,F#5,254.75,0.125,26,100.0
4366,D6,254.75,0.125,26,100.0
4367,B-5,254.875,0.125,26,100.0
4368,F5,254.875,0.125,26,100.0
4369,F#5,255.0,0.125,24,100.0
4370,D5,255.0,0.125,24,100.0
4371,F5,255.125,0.125,26,100.0
4372,B-4,255.125,0.125,26,100.0
4373,F#5,255.25,0.125,26,100.0
4374,D5,255.25,0.125,26,100.0
4375,F5,255.375,0.125,28,100.0
4376,B-5,255.375,0.125,28,100.0
4377,D6,255.5,0.125,28,100.0
4378,F#5,255.5,0.125,28,100.0
4379,B-5,255.625,0.125,30,100.0
4380,F6,255.625,0.125,30,100.0
4381,F#6,255.75,0.125,30,100.0
4382,D6,255.75,0.125,30,100.0
4383,B-6,255.875,0.125,32,100.0
4384,F6,255.875,0.125,32,100.0
4385,B-5,256.0,0.125,32,100.0
4386,D7,256.0,0.125,32,100.0
4387,D6,256.25,0.125,30,100.0
4388,F#5,256.25,0.125,30,100.0
4389,B-5,256.375,0.125,26,100.0
4390,F5,256.375,0.125,26,100.0
4391,D5,256.5,0.125,26,100.0
4392,F#5,256.5,0.125,26,100.0
4393,B-4,256.625,0.125,25,100.0
4394,F5,256.625,0.125,25,100.0
4395,D5,256.75,0.125,24,100.0
4396,F#4,256.75,0.125,24,100.0
4397,F4,256.875,0.125,24,100.0
4398,B-4,256.875,0.125,24,100.0
4399,D4,257.0,0.125,23,100.0
4400,F#4,257.0,0.125,23,100.0
4401,F4,257.125,0.125,24,100.0
4402,B-3,257.125,0.125,24,100.0
4403,D4,257.25,0.125,25,100.0
4404,F#4,257.25,0.125,25,100.0
4405,B-4,257.375,0.125,26,100.0
4406,F4,257.375,0.125,26,100.0
4407,F#4,257.5,0.125,26,100.0
4408,D5,257.5,0.125,26,100.0
4409,F5,257.625,0.125,28,100.0
4410,B-4,257.625,0.125,28,100.0
4411,F#5,257.75,0.125,28,100.0
4412,D5,257.75,0.125,28,100.0
4413,F5,257.875,0.125,30,100.0
4414,B-5,257.875,0.125,30,100.0
4415,D6,258.0,0.125,30,100.0
4416,B-4,258.0,0.125,30,100.0
4417,D5,258.25,0.125,29,100.0
4418,F#4,258.25,0.125,29,100.0
4419,B-4,258.375,0.125,28,100.0
4420,F4,258.375,0.125,28,100.0
4421,D4,258.5,0.125,27,100.0
4422,F#4,258.5,0.125,27,100.0
4423,B-3,258.625,0.125,26,100.0
4424,F4,258.625,0.125,26,100.0
4425,F#3,258.75,0.125,24,100.0
4426,D4,258.75,0.125,24,100.0
4427,F3,258.875,0.125,23,100.0
4428,B-3,258.875,0.125,23,100.0
4429,D4,259.0,0.125,22,100.0
4430,F#3,259.0,0.125,22,100.0
4431,B-3,259.125,0.125,21,100.0
4432,F4,259.125,0.125,21,100.0
4433,D4,259.25,0.125,21,100.0
4434,F#4,259.25,0.125,21,100.0
4435,B-4,259.375,0.125,22,100.0
4436,F4,259.375,0.125,22,100.0
4437,D5,259.5,0.125,22,100.0
4438,F#4,259.5,0.125,22,100.0
4439,B-4,259.625,0.125,24,100.0
4440,F5,259.625,0.125,24,100.0
4441,D5,259.75,0.125,26,100.0
4442,F#5,259.75,0.125,26,100.0
4443,F5,259.875,0.125,27,100.0
4444,B-5,259.875,0.125,27,100.0
4445,D6,260.0,0.125,28,100.0
4446,F#5,260.0,0.125,28,100.0
4447,B-5,260.125,0.125,29,100.0
4448,F6,260.125,0.125,29,100.0
4449,D6,260.25,0.125,30,100.0
4450,F#6,260.25,0.125,30,100.0
4451,B-6,260.375,0.125,32,100.0
4452,F6,260.375,0.125,32,100.0
4453,F#6,260.5,0.125,32,100.0
4454,D7,260.5,0.125,32,100.0
4455,B-6,260.625,0.125,25,100.0
4456,F6,260.625,0.125,25,100.0
4457,F#6,260.75,0.125,24,100.0
4458,D6,260.75,0.125,24,100.0
4459,B-5,260.875,0.125,24,100.0
4460,F6,260.875,0.125,24,100.0
4461,F#6,261.0,0.125,30,100.0
4462,D7,261.0,0.125,30,100.0
4463,F6,261.125,0.125,24,100.0
4464,B-6,261.125,0.125,24,100.0
4465,D6,261.25,0.125,22,100.0
4466,F#6,261.25,0.125,22,100.0
4467,B-5,261.375,0.125,22,100.0
4468,F6,261.375,0.125,22,100.0
4469,D7,261.5,0.125,28,100.0
4470,F#6,261.5,0.125,28,100.0
4471,B-6,261.625,0.125,22,100.0
4472,F6,261.625,0.125,22,100.0
4473,F#6,261.75,0.125,22,100.0
4474,D6,261.75,0.125,22,100.0
4475,F6,261.875,0.125,22,100.0
4476,B-5,261.875,0.125,22,100.0
4477,D7,262.0,0.125,26,100.0
4478,F#6,262.0,0.125,26,100.0
4479,B-6,262.125,0.125,20,100.0
4480,F6,262.125,0.125,20,100.0
4481,F#6,262.25,0.125,20,100.0
4482,D6,262.25,0.125,20,100.0
4483,F6,262.375,0.125,20,100.0
4484,B-5,262.375,0.125,20,100.0
4485,D7,262.5,0.125,25,100.0
4486,F#6,262.5,0.125,25,100.0
4487,F6,262.625,0.125,20,100.0
4488,B-6,262.625,0.125,20,100.0
4489,D6,262.75,0.125,20,100.0
4490,F#6,262.75,0.125,20,100.0
4491,F6,262.875,0.125,20,100.0
4492,B-5,262.875,0.125,20,100.0
4493,F4,263.167,0.5,20,100.0
4494,D6,263.188,0.312,32,100.0
4495,B-4,263.229,0.438,22,100.0
4496,B-6,263.25,0.25,38,100.0
4497,F5,263.292,0.375,24,100.0
4498,F7,263.312,0.188,43,100.0
4499,B-2,264.167,0.188,24,100.0
4500,F3,264.229,0.125,28,100.0
4501,D4,264.292,0.062,32,100.0
